<svg width="48" height="48" viewBox="0 0 103 124" fill="#229EFF" xmlns="http://www.w3.org/2000/svg" stroke-width="1px" stroke-linecap="round" stroke-linejoin="round"><path d="M100.219 20.4225L95.3091 29.0126L89.6792 25.8026V42.6326L82.6592 46.6926V29.7626L77.0391 39.4526L72.1191 36.6526L80.769 21.7426L86.1692 12.4126L100.219 20.4225Z" stroke="white" stroke-linejoin="round"/><path d="M86.1692 12.4126L80.769 21.7426L72.1191 36.6526L67.0791 34.1326L62.6592 31.9225L57.1892 29.1826L52.1191 26.6526L66.1692 2.4126L86.1692 12.4126Z" stroke="white" stroke-linejoin="round"/><path d="M100.22 76.8627L22.9297 121.493L37.0195 91.8127L44.0195 77.0727L50.9998 83.7327L59.8196 92.1327L65.4397 84.0427L59.7896 78.6627L55.4297 74.5127L65.6396 52.9727L68.5996 46.7427L100.22 76.8627Z" stroke="white" stroke-linejoin="round"/><path d="M65.4397 84.0427L57.4197 80.0327L45.4397 74.0427L35.4297 64.5127L55.4297 74.5127L59.7896 78.6627L65.4397 84.0427Z" stroke="white" stroke-linejoin="round"/><path d="M82.6602 29.7627V46.6927L62.6602 36.6927V32.2727L66.77 34.3227L77.04 39.4527L82.6602 29.7627Z" stroke="white" stroke-linejoin="round"/><path d="M77.0391 39.4523L66.769 34.3223L62.6592 32.2723L57.0391 29.4523L52.1191 26.6523L57.1892 29.1823L62.6592 31.9223L67.0791 34.1323L72.1191 36.6523L77.0391 39.4523Z" stroke="white" stroke-linejoin="round"/><path d="M95.2996 29.0126L89.6797 26.2026" stroke="white" stroke-linejoin="round"/><path d="M68.5996 46.7427L65.6396 52.9727L55.4297 74.5127L35.4297 64.5127L48.5996 36.7427L68.5996 46.7427Z" stroke="white" stroke-linejoin="round"/><path d="M65.4397 84.0425L59.8196 92.1325L50.9998 83.7325L44.0195 77.0725L43.5195 76.8225L45.4397 74.0425L57.4197 80.0325L65.4397 84.0425Z" stroke="white" stroke-linejoin="round"/><path d="M44.0195 77.0728L37.0195 91.8127L22.9297 121.493L2.92969 111.493L24.0195 67.0728L44.0195 77.0728Z" stroke="white" stroke-linejoin="round"/></svg>