<svg width="48" height="48" viewBox="0 0 87 117" xmlns="http://www.w3.org/2000/svg" stroke-width="1px"
     stroke-linecap="round" stroke-linejoin="round">
    <path d="M84.3113 25.86L59.6914 68.94L53.8914 65.56L68.5913 39.82L41.5913 55.63L37.9912 57.74L37.6714 57.93L30.8213 61.93L31.1213 109.34L22.8914 114.17L22.5312 57.28L38.1414 48.14L49.7612 41.33L68.5413 30.34L59.0413 25.08L53.6113 22.07L58.8213 12.94L59.4314 11.87L84.3113 25.86Z" class="pr-icon-iso-solid-stroke" stroke-linejoin="round"/>
    <path d="M68.5408 30.3399L58.7808 25.5399L48.4709 20.46L33.5508 12.2L53.6108 22.0699L59.0408 25.08L68.5408 30.3399Z" class="pr-icon-iso-solid-stroke" stroke-linejoin="round"/>
    <path d="M59.6919 68.94L39.6318 59.07L37.6719 57.93L37.9917 57.74L39.8618 58.66L53.8918 65.56L59.6919 68.94Z" class="pr-icon-iso-solid-stroke" stroke-linejoin="round"/>
    <path d="M68.5405 30.3399L49.7605 41.33L38.1406 48.14L22.5305 57.2799L11.3005 51.7499L2.4707 47.3999L48.4707 20.46L58.7805 25.5399L68.5405 30.3399Z" class="pr-icon-iso-solid-stroke" stroke-linejoin="round"/>
    <path d="M22.5305 57.2799L22.8906 114.17L2.83057 104.29L2.4707 47.3999L11.3005 51.7499L22.5305 57.2799Z" class="pr-icon-iso-solid-stroke" stroke-linejoin="round"/>
    <path d="M68.5903 39.8201L53.8904 65.5601L39.8604 58.66L37.9902 57.7401L41.5903 55.6301L68.5903 39.8201Z" class="pr-icon-iso-solid-stroke" stroke-linejoin="round"/>
    <path d="M59.4309 11.87L58.8208 12.94L53.6108 22.07L33.5508 12.2L39.3708 2L59.4309 11.87Z" class="pr-icon-iso-solid-stroke" stroke-linejoin="round"/>
</svg>