<svg width="48" height="48" viewBox="0 0 105 118" xmlns="http://www.w3.org/2000/svg" stroke-width="1px"
     stroke-linecap="round" stroke-linejoin="round">
    <path d="M102.89 46.2799L62.9202 115.22L43.5303 104.17L22.9502 92.4299L31.6702 77.3999L32.2803 76.35L36.2603 78.62L52.8602 88.08L56.2603 90.0199V19.6899L69.5802 12V82.33L93.5602 40.96L102.89 46.2799Z" class="pr-icon-iso-solid-stroke" stroke-linejoin="round"/>
    <path d="M56.2598 19.6899V90.0199L52.8597 88.08L36.2598 78.62V9.68994L49.5797 16.35L56.2598 19.6899Z" class="pr-icon-iso-solid-stroke" stroke-linejoin="round"/>
    <path d="M32.2803 76.3501L31.6702 77.4L22.9502 92.4301L2.9502 82.4301L12.2803 66.3501L32.2803 76.3501Z" class="pr-icon-iso-solid-stroke" stroke-linejoin="round"/>
    <path d="M69.5797 12L56.2598 19.6899L49.5797 16.35L36.2598 9.68994L49.5797 2L69.5797 12Z" class="pr-icon-iso-solid-stroke" stroke-linejoin="round"/>
    <path d="M93.5601 40.96L69.5801 82.33V37.83L73.5601 30.96L93.5601 40.96Z" class="pr-icon-iso-solid-stroke" stroke-linejoin="round"/>
    <path d="M62.9202 115.22L42.9202 105.22L2.9502 82.4299L22.9502 92.4299L43.5303 104.17L62.9202 115.22Z" class="pr-icon-iso-solid-stroke" stroke-linejoin="round"/>
</svg>