<svg width="48" height="48" viewBox="0 0 119 96" fill="#229EFF" xmlns="http://www.w3.org/2000/svg" stroke-width="1px" stroke-linecap="round" stroke-linejoin="round"><path d="M116.22 25.5262L44.7603 66.7862L65.6404 78.6962L57.4003 93.2362L38.0004 82.1762L22.1104 73.1162L29.8804 59.7062L35.0004 50.8662L46.7704 30.5762L57.4003 12.2362L65.6404 17.2662L63.5303 20.8962L51.7704 41.1862L44.7603 53.2862L116.22 12.0262V25.5262Z" stroke="white" stroke-linejoin="round"/><path d="M116.221 12.0262L44.7607 53.2862L51.7708 41.1862L63.5307 20.8962L96.2207 2.02618L116.221 12.0262Z" stroke="white" stroke-linejoin="round"/><path d="M57.4003 12.2362L46.7704 30.5762L35.0004 50.8662L29.8804 59.7062L22.1104 73.1162L2.11035 63.1162L37.4003 2.23621L57.4003 12.2362Z" stroke="white" stroke-linejoin="round"/><path d="M57.4003 93.2362L37.4003 83.2362L2.11035 63.1162L22.1104 73.1162L38.0004 82.1762L57.4003 93.2362Z" stroke="white" stroke-linejoin="round"/></svg>