<svg width="24" height="24" viewBox="0 0 103 118" xmlns="http://www.w3.org/2000/svg" stroke-width="1px" stroke-linecap="round" stroke-linejoin="round">
    <path d="M43.9796 115.299L23.9796 105.299L2.38965 82.7295L22.3896 92.7295L30.6996 101.419L43.9796 115.299Z" class="pr-icon-iso-solid-stroke" stroke-linejoin="round"/>
    <path d="M43.9796 45.2197L39.2296 55.6697L22.3896 92.7297L2.38965 82.7297L23.9796 35.2197L38.4897 42.4797L43.9796 45.2197Z" class="pr-icon-iso-solid-stroke" stroke-linejoin="round"/>
    <path d="M100.91 12.3496L80.9097 23.8996L67.4097 31.6896L56.0297 38.2596L44.7197 44.7896L43.9797 45.2196L38.4897 42.4796L23.9797 35.2196L80.9097 2.34961L100.91 12.3496Z" class="pr-icon-iso-solid-stroke" stroke-linejoin="round"/>
    <path d="M80.9097 23.8996L67.4097 31.6896L56.0296 38.2596L44.7197 44.7896L43.9796 45.2196L39.2296 55.6696L22.3896 92.7296L30.6996 101.42L43.9796 115.3L100.91 82.4296V12.3496L80.9097 23.8996ZM80.9097 64.0196L87.8196 67.9596L81.7197 78.4996L76.0197 75.2496L70.3696 72.0296L64.7197 81.7796L59.0296 91.5896L53.3396 88.3496L52.9296 88.1096L64.0797 68.8796L64.2697 68.5496L62.3297 67.4396L52.9296 62.0796L58.4196 52.5996L58.4796 52.4996L58.6696 52.1696L59.0296 51.5496L70.3696 58.0196L80.9097 39.8496L81.5296 38.7796L81.7197 38.4496L87.8196 41.9296L80.9097 53.8496L76.4796 61.4996L80.9097 64.0196Z" class="pr-icon-iso-solid-stroke" stroke-linejoin="round"/>
    <path d="M70.3697 72.0296L64.7197 81.7796L59.0297 91.5896L53.3397 88.3496L52.9297 88.1096L64.0797 68.8796L70.3697 72.0296Z" class="pr-icon-iso-solid-stroke" stroke-linejoin="round"/>
    <path d="M70.3697 58.0196L58.6697 52.1696L59.0297 51.5496L70.3697 58.0196Z" class="pr-icon-iso-solid-stroke" stroke-linejoin="round"/>
    <path d="M87.8197 67.9595L80.9097 64.5095L67.8197 57.9595L58.4197 52.5995L58.4797 52.4995L70.1997 58.3595L76.4797 61.4995L80.9097 64.0195L87.8197 67.9595Z" class="pr-icon-iso-solid-stroke" stroke-linejoin="round"/>
    <path d="M87.8195 41.9297L81.5295 38.7797L81.7195 38.4497L87.8195 41.9297Z" class="pr-icon-iso-solid-stroke" stroke-linejoin="round"/>
    <path d="M87.8197 41.9295L80.9097 53.8495L76.4797 61.4995L70.1997 58.3595L58.4797 52.4995L58.6697 52.1695L70.3697 58.0195L80.9097 39.8495L81.5297 38.7795L87.8197 41.9295Z" class="pr-icon-iso-solid-stroke" stroke-linejoin="round"/>
    <path d="M87.8196 67.9597L81.7196 78.4997L76.0196 75.2497L70.3696 72.0297L64.0796 68.8797L64.2696 68.5497L62.3296 67.4397L67.8196 57.9597L80.9096 64.5097L87.8196 67.9597Z" class="pr-icon-iso-solid-stroke" stroke-linejoin="round"/>
</svg>