<svg width="48" height="48" viewBox="0 0 102 100" xmlns="http://www.w3.org/2000/svg" stroke-width="1px"
     stroke-linecap="round" stroke-linejoin="round">
    <path d="M89.1382 42.2028L85.5282 44.2927V52.5928L99.9883 44.2427V35.9427L96.3782 38.0327V12.3027L83.1382 27.5227L79.9883 31.1427L74.5682 37.3727L73.6982 38.3727L68.6682 44.1627L58.2782 56.0928L50.5782 64.9528L39.2682 77.9628L31.1382 87.3027L22.2383 97.5327L96.3782 96.9528V71.2327L99.9883 69.1427V60.8428L85.5282 69.1927V77.4927L89.0482 75.4528V87.8027L73.1382 87.9628C73.2782 87.6328 73.4182 87.3028 73.5482 86.9728C74.3582 85.0128 75.0682 83.0527 75.6682 81.1127C75.9282 80.2827 76.1682 79.4527 76.3782 78.6227C76.5982 77.8127 76.7983 77.0128 76.9783 76.2028C77.1883 75.2928 77.3682 74.3827 77.5282 73.4927C78.0082 70.7527 78.2682 68.1128 78.2882 65.5728C78.2982 65.4028 78.2982 65.2428 78.2982 65.0728C78.2982 63.4028 78.1983 61.8027 77.9983 60.2927C77.7783 58.6127 77.4383 57.0327 76.9783 55.5527C76.7183 54.7027 76.4182 53.8828 76.0782 53.1028C75.3182 51.3028 74.3683 49.6927 73.2283 48.2827L74.3483 47.0027L79.3982 41.2228L88.8683 30.3827L89.1382 30.0728V42.2028ZM71.0382 70.2527C70.9682 72.8127 70.5882 75.4727 69.9182 78.2427C69.9082 78.2927 69.8982 78.3327 69.8882 78.3827C69.1782 81.2627 68.1982 84.1427 66.9382 87.0227C66.8082 87.3227 66.6782 87.6327 66.5382 87.9327L38.5182 88.0327L39.2083 87.2427L47.0883 78.2128L56.7582 67.1327L66.6282 55.8228C67.1382 56.4228 67.6082 57.0627 68.0382 57.7427C68.7282 58.8327 69.3182 60.0228 69.7982 61.3228C69.8282 61.4128 69.8582 61.4928 69.8882 61.5728C70.6682 63.7828 71.0582 66.3427 71.0582 69.2427C71.0582 69.5727 71.0482 69.9127 71.0382 70.2527Z" class="pr-icon-iso-solid-stroke" stroke-linejoin="round"/>
    <path d="M85.5281 44.2926V52.5927L74.3481 47.0026L79.3981 41.2227L85.5281 44.2926Z" class="pr-icon-iso-solid-stroke" stroke-linejoin="round"/>
    <path d="M99.9882 60.8428L85.5281 69.1927L78.2881 65.5728C78.2981 65.4028 78.2981 65.2428 78.2981 65.0728C78.2981 63.4028 78.1982 61.8027 77.9982 60.2927C77.7782 58.6127 77.4381 57.0327 76.9781 55.5527C76.7181 54.7027 76.4181 53.8828 76.0781 53.1028L79.9882 50.8428L99.9882 60.8428Z" class="pr-icon-iso-solid-stroke" stroke-linejoin="round"/>
    <path d="M71.0579 69.2422C71.0579 69.5722 71.0478 69.9122 71.0378 70.2522C70.9678 72.8122 70.5878 75.4722 69.9178 78.2422C69.9078 78.2922 69.8978 78.3322 69.8878 78.3822C69.1778 81.2622 68.1979 84.1422 66.9379 87.0222C66.8079 87.3222 66.6778 87.6323 66.5378 87.9323L64.7578 87.0422L47.0879 78.2123L56.7578 67.1322L66.6278 55.8223C67.1378 56.4223 67.6078 57.0622 68.0378 57.7422C68.7278 58.8322 69.3179 60.0223 69.7979 61.3223C69.8279 61.4123 69.8578 61.4923 69.8878 61.5723C70.6678 63.7823 71.0579 66.3422 71.0579 69.2422Z" class="pr-icon-iso-solid-stroke" stroke-linejoin="round"/>
    <path d="M66.5381 87.9329L38.5181 88.0328L39.2081 87.2428L47.0881 78.2129L64.7581 87.0428L66.5381 87.9329Z" class="pr-icon-iso-solid-stroke" stroke-linejoin="round"/>
    <path d="M96.3782 12.3027L83.1382 27.5227L79.9883 31.1427L74.5682 37.3727L73.6982 38.3727L68.6682 44.1627L58.2782 56.0928L50.5782 64.9528L39.2682 77.9628L31.1382 87.3027L22.2383 97.5327L2.23828 87.5327L76.3782 2.30273L96.3782 12.3027Z" class="pr-icon-iso-solid-stroke" stroke-linejoin="round"/>
    <path d="M99.988 35.9426L96.3779 38.0326V34.1426L99.988 35.9426Z" class="pr-icon-iso-solid-stroke" stroke-linejoin="round"/>
    <path d="M89.1384 30.5228V42.2029L85.5284 44.2928L79.3984 41.2229L88.8685 30.3828L89.1384 30.5228Z" class="pr-icon-iso-solid-stroke" stroke-linejoin="round"/>
    <path d="M89.0482 87.8024L73.1382 87.9624C73.2782 87.6324 73.4182 87.3024 73.5482 86.9724C74.3582 85.0124 75.0682 83.0523 75.6682 81.1123L76.3782 81.4724L89.0482 87.8024Z" class="pr-icon-iso-solid-stroke" stroke-linejoin="round"/>
    <path d="M85.5283 69.1923V77.4922L77.5283 73.4922C78.0083 70.7522 78.2683 68.1123 78.2883 65.5723L85.5283 69.1923Z" class="pr-icon-iso-solid-stroke" stroke-linejoin="round"/>
    <path d="M89.048 75.4523V87.8022L76.3779 81.4723L75.668 81.1122C75.928 80.2822 76.1679 79.4522 76.3779 78.6222C76.5979 77.8122 76.798 77.0123 76.978 76.2023C77.188 75.2923 77.368 74.3822 77.528 73.4922L85.528 77.4922L89.048 75.4523Z" class="pr-icon-iso-solid-stroke" stroke-linejoin="round"/>
</svg>