<svg width="48" height="48" viewBox="0 0 99 126" xmlns="http://www.w3.org/2000/svg" stroke-width="1px"
     stroke-linecap="round" stroke-linejoin="round">
    <path d="M96.491 58.7499V67.2898L85.321 73.7399V86.5598L77.8809 90.8499V78.0398L66.7109 84.4899V75.9398L77.8809 69.4899V56.6798L84.5908 52.7998L85.321 52.3799V65.1998L96.491 58.7499Z" class="pr-icon-iso-solid-stroke" stroke-linejoin="round"/>
    <path d="M80.481 12.46L69.051 19.0599L68.2109 19.5399L50.4309 29.8099L30.6008 41.2599L22.041 58.1599V123.09L65.031 98.2699C63.171 96.9899 61.741 95.1699 60.751 92.7799C59.761 90.3999 59.261 87.6099 59.261 84.4099C59.261 83.4899 59.3109 82.55 59.4009 81.61C59.4209 81.37 59.451 81.12 59.491 80.88C59.521 80.53 59.5709 80.19 59.6309 79.84C59.6509 79.62 59.691 79.3899 59.731 79.1699C60.041 77.3899 60.4409 75.61 60.9409 73.83H57.8809L55.541 73.85L52.481 77.37L43.8408 87.3199L40.981 90.61L40.6509 90.99V56.8099L55.3608 48.3199L57.8809 46.86L58.051 46.7699L65.321 42.5699L65.501 42.47L70.4309 39.62V55.85C70.9809 55.14 71.5409 54.4599 72.1309 53.8099C73.2509 52.5499 74.4409 51.3799 75.6909 50.3099C75.9609 50.0799 76.221 49.8599 76.491 49.6399C76.721 49.4499 76.9409 49.27 77.1709 49.09C77.3809 48.93 77.581 48.77 77.791 48.62C79.031 47.68 80.3008 46.84 81.6008 46.09C82.9008 45.34 84.1709 44.77 85.4209 44.37C86.6609 43.97 87.871 43.68 89.051 43.5V19.47L80.481 12.46ZM69.051 31.88L63.1409 35.2799L59.6309 37.3099L50.4309 42.63L30.9709 53.86L34.1309 47.7599L50.4309 38.35L69.051 27.6L76.1409 23.5099L76.9509 23.0399L80.1108 25.49L69.051 31.88Z" class="pr-icon-iso-solid-stroke" stroke-linejoin="round"/>
    <path d="M80.1108 25.4901L76.1409 23.51L76.9509 23.04L80.1108 25.4901Z" class="pr-icon-iso-solid-stroke" stroke-linejoin="round"/>
    <path d="M85.321 52.3801L84.5908 52.8L77.8809 56.6801L76.491 55.9901L72.1309 53.8101C73.2509 52.5501 74.4409 51.3801 75.6909 50.3101C75.9609 50.0801 76.221 49.86 76.491 49.64C76.721 49.45 76.9409 49.2701 77.1709 49.0901C77.3809 48.9301 77.581 48.7701 77.791 48.6201L85.321 52.3801Z" class="pr-icon-iso-solid-stroke" stroke-linejoin="round"/>
    <path d="M77.8809 69.4897L66.7109 75.9397L65.321 75.2498L57.8809 71.5297L54.6509 69.9097L46.7109 65.9397L57.8809 59.4897L65.811 63.4597L77.8809 69.4897Z" class="pr-icon-iso-solid-stroke" stroke-linejoin="round"/>
    <path d="M55.541 73.8497L52.481 77.3698L43.8408 87.3197L40.981 90.6097L40.6509 90.9897V66.4097L46.7109 69.4397L51.4009 71.7797L55.541 73.8497Z" class="pr-icon-iso-solid-stroke" stroke-linejoin="round"/>
    <path d="M22.041 58.1597V123.09L2.04102 113.09V48.1597L20.6509 57.4697L22.041 58.1597Z" class="pr-icon-iso-solid-stroke" stroke-linejoin="round"/>
    <path d="M30.6008 41.2598L22.041 58.1598L20.6509 57.4698L2.04102 48.1598L10.6008 31.2598L18.531 35.2198L22.491 37.2098L30.4209 41.1698L30.6008 41.2598Z" class="pr-icon-iso-solid-stroke" stroke-linejoin="round"/>
    <path d="M80.481 12.46L69.051 19.0599L68.2109 19.5399L50.4309 29.8099L30.6008 41.2599L30.4209 41.1699L22.491 37.21L18.531 35.22L10.6008 31.2599L60.481 2.45996L80.481 12.46Z" class="pr-icon-iso-solid-stroke" stroke-linejoin="round"/>
    <path d="M80.1108 25.4899L69.051 31.8799L63.1409 35.2798L59.6309 37.3098L50.4309 42.6299L30.9709 53.8599L34.1309 47.7598L50.4309 38.3499L69.051 27.5999L76.1409 23.5098L80.1108 25.4899Z" class="pr-icon-iso-solid-stroke" stroke-linejoin="round"/>
    <path d="M60.9409 73.8301L57.8809 73.8401L55.541 73.8501L51.4009 71.78L46.7109 69.4401L40.6509 66.41V63.8301H40.9409L46.7109 66.7201L53.9309 70.3201L57.8809 72.3L60.9409 73.8301Z" class="pr-icon-iso-solid-stroke" stroke-linejoin="round"/>
    <path d="M77.8809 56.6801V69.4901L65.811 63.4601L57.8809 59.4901V49.5801L65.321 53.3L67.0908 54.1801L70.4309 55.8501C70.9809 55.1401 71.5409 54.4601 72.1309 53.8101L76.491 55.9901L77.8809 56.6801Z" class="pr-icon-iso-solid-stroke" stroke-linejoin="round"/>
    <path d="M70.4309 39.6201V55.8501L67.0908 54.1801L65.321 53.3L57.8809 49.5801L55.3608 48.3201L57.8809 46.8601L58.051 46.77L65.321 42.5701L65.501 42.4701L70.4309 39.6201Z" class="pr-icon-iso-solid-stroke" stroke-linejoin="round"/>
    <path d="M96.491 58.75L85.321 65.2V53.1699L96.491 58.75Z" class="pr-icon-iso-solid-stroke" stroke-linejoin="round"/>
    <path d="M66.7109 75.9399V84.49L59.491 80.88C59.521 80.53 59.5709 80.19 59.6309 79.84C59.6509 79.62 59.691 79.3899 59.731 79.1699C60.041 77.3899 60.4409 75.61 60.9409 73.83L57.8809 72.2999L53.9309 70.3199L46.7109 66.72V65.9399L54.6509 69.9099L57.8809 71.5299L65.321 75.25L66.7109 75.9399Z" class="pr-icon-iso-solid-stroke" stroke-linejoin="round"/>
    <path d="M77.8809 78.04V90.8501L59.4009 81.6101C59.4209 81.3701 59.451 81.1201 59.491 80.8801L66.7109 84.4901L77.8809 78.04Z" class="pr-icon-iso-solid-stroke" stroke-linejoin="round"/>
</svg>