<svg width="24" height="24" viewBox="0 0 98 108" xmlns="http://www.w3.org/2000/svg" stroke-width="1px" stroke-linecap="round" stroke-linejoin="round">
    <path d="M92.2896 23.9781C90.3896 20.0381 87.8193 17.1381 84.5793 15.2881L83.1494 14.5781C80.2294 13.2481 76.8794 12.7481 73.1194 13.0581C72.7194 13.0881 72.3094 13.1381 71.8994 13.1881C67.8694 13.7281 63.5796 15.2981 59.0496 17.9181C54.0596 20.7981 49.3695 24.5981 44.9795 29.2981C42.8695 31.5681 40.8896 33.9381 39.0496 36.4081C37.0496 39.0681 35.2195 41.8581 33.5295 44.7581C30.2795 50.3681 27.7093 56.2281 25.8193 62.3581C23.9193 68.4881 22.9795 74.4181 22.9795 80.1481C22.9795 82.3481 23.1194 84.4181 23.3994 86.3581C23.8494 89.4581 24.6493 92.2281 25.8193 94.6481C25.9493 94.9181 26.0795 95.1881 26.2195 95.4481C28.0695 98.9781 30.4995 101.618 33.5295 103.338C36.7795 105.188 40.5895 105.938 44.9795 105.578C49.3695 105.218 54.0596 103.598 59.0496 100.708C64.0396 97.8281 68.7294 94.0381 73.1194 89.3281C77.5094 84.6181 81.3293 79.4681 84.5793 73.8681C87.8193 68.2681 90.3896 62.3981 92.2896 56.2681C94.1796 50.1381 95.1294 44.2181 95.1294 38.4881C95.1294 32.7581 94.1796 27.9281 92.2896 23.9781ZM70.1494 83.5481C66.5994 87.2481 62.8996 90.2081 59.0496 92.4381C50.9996 97.0881 44.1693 97.8181 38.5793 94.6281C37.5093 94.0181 36.5495 93.2981 35.6895 92.4781C33.8595 90.7281 32.4893 88.4781 31.5793 85.7381C30.6493 82.9881 30.1895 79.7381 30.1895 75.9781C30.1895 66.7281 32.9893 57.2881 38.5793 47.6381C38.7293 47.3681 38.8896 47.1081 39.0496 46.8481C44.5496 37.6081 51.2196 30.7181 59.0496 26.1981V59.3181L65.1694 62.8081L79.5295 70.9881C76.8195 75.6581 73.6894 79.8381 70.1494 83.5481Z" class="pr-icon-iso-solid-stroke" stroke-linejoin="round"/>
    <path d="M59.0498 26.1982V59.3182L39.0498 49.3182V46.8482C44.5498 37.6082 51.2198 30.7182 59.0498 26.1982Z" class="pr-icon-iso-solid-stroke" stroke-linejoin="round"/>
    <path d="M79.5298 70.9879L64.7397 63.5879L59.5298 60.9879L39.0498 49.3179L59.0498 59.3179L65.1697 62.8079L79.5298 70.9879Z" class="pr-icon-iso-solid-stroke" stroke-linejoin="round"/>
    <path d="M79.5293 70.9883C76.8193 75.6583 73.6892 79.8383 70.1492 83.5483C66.5992 87.2483 62.8993 90.2083 59.0493 92.4383C50.9993 97.0883 44.1691 97.8183 38.5791 94.6283C37.5091 94.0183 36.5492 93.2983 35.6892 92.4783C33.8592 90.7283 32.4891 88.4783 31.5791 85.7383C33.9391 85.0483 36.4293 83.9483 39.0493 82.4383C42.8993 80.2083 46.5992 77.2483 50.1492 73.5483C53.6892 69.8383 56.8193 65.6583 59.5293 60.9883L64.7393 63.5883L79.5293 70.9883Z" class="pr-icon-iso-solid-stroke" stroke-linejoin="round"/>
    <path d="M83.1494 14.578C80.2294 13.248 76.8794 12.748 73.1194 13.058C72.7194 13.088 72.3094 13.138 71.8994 13.188C67.8694 13.728 63.5796 15.298 59.0496 17.918C54.0596 20.798 49.3695 24.598 44.9795 29.298C42.8695 31.568 40.8896 33.938 39.0496 36.408C37.0496 39.068 35.2195 41.858 33.5295 44.758C30.2795 50.368 27.7093 56.228 25.8193 62.358C23.9193 68.488 22.9795 74.418 22.9795 80.148C22.9795 82.348 23.1194 84.418 23.3994 86.358C23.8494 89.458 24.6493 92.228 25.8193 94.648C25.9493 94.918 26.0795 95.1881 26.2195 95.4481C28.0695 98.9781 30.4995 101.618 33.5295 103.338L15.1094 94.1281L13.5295 93.3381C10.2795 91.4881 7.70934 88.588 5.81934 84.648C3.91934 80.708 2.97949 75.868 2.97949 70.148C2.97949 64.428 3.91934 58.488 5.81934 52.358C7.70934 46.228 10.2795 40.368 13.5295 34.758C16.7795 29.158 20.5895 24.008 24.9795 19.298C29.3695 14.598 34.0596 10.798 39.0496 7.91805C44.0396 5.03805 48.7294 3.41805 53.1194 3.05805C57.5094 2.69805 61.3293 3.43805 64.5793 5.28805L83.1494 14.578Z" class="pr-icon-iso-solid-stroke" stroke-linejoin="round"/>
</svg>