<svg width="24" height="24" viewBox="0 0 94 111" xmlns="http://www.w3.org/2000/svg" stroke-width="1px" stroke-linecap="round" stroke-linejoin="round">
    <path d="M91.6976 12.2998V68.4498L71.6976 57.0498L68.6076 55.2898L71.6976 53.4998L85.2376 45.6798V30.8597L71.6976 38.6798L71.4776 38.7998L55.6876 47.9198L49.8376 44.5798L42.7676 40.5498L65.2376 27.5798L71.6976 23.8497L91.6976 12.2998Z" class="pr-icon-iso-solid-stroke" stroke-linejoin="round"/>
    <path d="M40.0183 49.5498L33.5583 45.8698L27.3483 42.3198L26.7383 43.3798L22.7383 50.2598L27.0983 52.7498V108.9L75.3483 81.0498L76.0383 80.6498L86.6983 86.7197L91.2983 78.7798L40.0183 49.5498ZM33.5583 75.5198V60.6898L36.4283 59.0398L37.2783 58.5498L50.1983 65.9198L33.5583 75.5198Z" class="pr-icon-iso-solid-stroke" stroke-linejoin="round"/>
    <path d="M91.6976 12.2998L71.6976 23.8497L65.2376 27.5798L42.7676 40.5498L22.7676 30.5498L71.6976 2.2998L91.6976 12.2998Z" class="pr-icon-iso-solid-stroke" stroke-linejoin="round"/>
    <path d="M27.0983 52.7498L7.09828 42.7498L2.73828 40.2598L22.7383 50.2598L27.0983 52.7498Z" class="pr-icon-iso-solid-stroke" stroke-linejoin="round"/>
    <path d="M50.1986 65.9198L33.5586 75.5198V60.6898L36.4286 59.0398L50.1986 65.9198Z" class="pr-icon-iso-solid-stroke" stroke-linejoin="round"/>
    <path d="M50.1977 65.9198L36.4277 59.0398L37.2777 58.5498L50.1977 65.9198Z" class="pr-icon-iso-solid-stroke" stroke-linejoin="round"/>
    <path d="M27.0977 52.7498V108.9L7.09766 98.8998V42.7498L27.0977 52.7498Z" class="pr-icon-iso-solid-stroke" stroke-linejoin="round"/>
    <path d="M91.6974 68.4498L71.6974 58.4498L48.6074 45.2898L68.6074 55.2898L71.6974 57.0498L91.6974 68.4498Z" class="pr-icon-iso-solid-stroke" stroke-linejoin="round"/>
    <path d="M85.2385 30.8599V45.6799L71.6985 38.9099L71.4785 38.7999L71.6985 38.6799L85.2385 30.8599Z" class="pr-icon-iso-solid-stroke" stroke-linejoin="round"/>
    <path d="M85.2374 45.6798L71.6974 53.4998L68.6074 55.2898L48.6074 45.2898L49.4474 44.7998L55.6874 47.9198L71.4774 38.7998L71.6974 38.9098L85.2374 45.6798Z" class="pr-icon-iso-solid-stroke" stroke-linejoin="round"/>
    <path d="M55.6876 47.9198L35.6876 37.9198L22.7676 30.5498L42.7676 40.5498L49.8376 44.5798L55.6876 47.9198Z" class="pr-icon-iso-solid-stroke" stroke-linejoin="round"/>
    <path d="M27.3483 42.3198L26.7383 43.3798L22.7383 50.2598L2.73828 40.2598L7.34828 32.3198L27.3483 42.3198Z" class="pr-icon-iso-solid-stroke" stroke-linejoin="round"/>
    <path d="M86.6977 86.7197L75.3477 81.0498" class="pr-icon-iso-solid-stroke" stroke-linejoin="round"/>
</svg>