<svg width="48" height="48" viewBox="0 0 108 95" fill="#229EFF" xmlns="http://www.w3.org/2000/svg" stroke-width="1px" stroke-linecap="round" stroke-linejoin="round"><path d="M68.7048 44.8851V42.2251L66.2349 43.6451L62.6248 45.7351L59.4248 47.5752V52.9052L65.3247 49.4951L75.2148 43.7852L75.6648 43.5251V62.1552L52.4648 75.5552V64.9052L59.4248 60.8851V63.5452L68.7048 58.1952V52.8651L63.7549 55.7251L56.9548 59.6552L52.4648 62.2451V43.6151L55.6648 41.7651L58.8247 39.9452L62.6248 37.7451L62.8547 37.6151L63.3149 37.3451L65.3247 36.1852L69.5847 33.7251L69.8149 33.5951L75.6648 30.2151V40.8651L75.2148 41.1251L73.1948 42.2952L72.7449 42.5552L68.7048 44.8851Z" stroke="white" stroke-linejoin="round"/><path d="M105.825 12.8052L93.4651 19.9352L88.9751 22.5352L85.825 24.3451L82.625 26.1952L74.9851 22.3751L70.0452 19.9052L62.625 16.1952L85.825 2.80518L105.825 12.8052Z" stroke="white" stroke-linejoin="round"/><path d="M68.7048 42.2251V44.8851L68.4749 44.7651L66.2349 43.6451L68.7048 42.2251Z" stroke="white" stroke-linejoin="round"/><path d="M52.4648 43.6152V62.2452L45.0549 58.5353L45.5049 58.2753V47.6252L42.8049 46.2753L32.4648 41.1052V33.6152L39.8748 37.3153L44.8149 39.7953L52.4648 43.6152Z" stroke="white" stroke-linejoin="round"/><path d="M22.3149 61.0251V92.9651L2.31494 82.9651V51.0251L9.72485 54.7251L22.0747 60.9052L22.3149 61.0251Z" stroke="white" stroke-linejoin="round"/><path d="M38.5449 59.6353V62.2953L38.3149 62.1753L36.0747 61.0653L38.5449 59.6353Z" stroke="white" stroke-linejoin="round"/><path d="M38.5449 62.295V59.635L36.0747 61.0651L33.1548 62.745L32.4648 63.145L29.2749 64.985V80.9551L38.5449 75.605V72.9451L42.5847 70.615L45.5049 68.925V79.5751L22.3149 92.965V61.025L25.5049 59.1851L25.7449 59.045L28.6648 57.355L32.4648 55.155L32.7048 55.025L35.1648 53.595L39.4248 51.135L39.6548 51.005L45.5049 47.625V58.275L45.0549 58.535L42.5847 59.965L38.5449 62.295Z" stroke="white" stroke-linejoin="round"/><path d="M38.5449 75.6051L29.2749 80.9552V70.9751L38.5449 75.6051Z" stroke="white" stroke-linejoin="round"/><path d="M38.5449 72.9452V75.6051L29.2749 70.9751V68.3152L38.5449 72.9452Z" stroke="white" stroke-linejoin="round"/><path d="M45.5049 68.9252L42.5847 70.6151L38.5449 72.9452L29.2749 68.3152V64.9851L32.4648 63.1451L33.1548 62.7451L35.3848 63.8651L45.5049 68.9252Z" stroke="white" stroke-linejoin="round"/><path d="M52.4648 64.9052V75.5552L45.5049 72.0752V68.9252L35.3848 63.8651L33.1548 62.7451L36.0747 61.0652L38.3149 62.1752L38.5449 62.2952L42.5847 59.9651L52.4648 64.9052Z" stroke="white" stroke-linejoin="round"/><path d="M59.425 60.8851L52.4651 64.9052L42.585 59.9651L45.0552 58.5352L52.4651 62.2451L56.9551 59.6552L59.425 60.8851Z" stroke="white" stroke-linejoin="round"/><path d="M68.7048 52.8652V58.1953L63.7549 55.7252L68.7048 52.8652Z" stroke="white" stroke-linejoin="round"/><path d="M59.425 63.5452V60.8851L56.9551 59.6552L63.7551 55.7251L68.7051 58.1952L59.425 63.5452Z" stroke="white" stroke-linejoin="round"/><path d="M45.5049 47.625L39.6548 51.005L39.4248 51.135L35.1648 53.595L32.7048 55.025L32.4648 55.155L28.6648 57.355L25.7449 59.045L25.5049 59.1851L22.3149 61.025L22.0747 60.905L9.72485 54.725L2.31494 51.025L25.5049 37.625L32.4648 41.105L42.8049 46.275L45.5049 47.625Z" stroke="white" stroke-linejoin="round"/><path d="M82.625 47.4951V58.1451L75.665 54.6652V44.0151L82.625 47.4951Z" stroke="white" stroke-linejoin="round"/><path d="M75.6648 43.5251L75.2148 43.7852L65.3247 49.4951L59.4248 52.9052V47.5752L62.6248 45.7351L66.2349 43.6451L68.4749 44.7651L68.7048 44.8851L72.7449 42.5552L73.1948 42.2952L75.6648 43.5251Z" stroke="white" stroke-linejoin="round"/><path d="M75.6648 30.2151L69.8149 33.5951L69.5847 33.7251L65.3247 36.1852L63.3149 37.3451L62.8547 37.6151L62.6248 37.7451L58.8247 39.9452L55.6648 41.7651L52.4648 43.6151L44.8149 39.7952L39.8748 37.3152L32.4648 33.6151L55.6648 20.2151L62.6248 23.6952L72.9648 28.8651L75.6648 30.2151Z" stroke="white" stroke-linejoin="round"/><path d="M105.825 26.1152L89.585 35.4952V30.1653L96.395 26.2352L98.865 27.4752L103.355 24.8853L105.825 26.1152Z" stroke="white" stroke-linejoin="round"/><path d="M98.8645 24.8152V27.4751L96.3945 26.2351L98.8645 24.8152Z" stroke="white" stroke-linejoin="round"/><path d="M98.865 27.4751V24.8152L96.395 26.2351L89.585 30.1652V35.4951L105.825 26.1151V44.7451L82.625 58.1451V47.4951L89.585 43.4751V46.1351L98.865 40.7852V35.4552L93.915 38.3152L87.115 42.2451L82.625 44.8351V26.1952L85.825 24.3451L88.9751 22.5352L93.4651 19.9352L105.825 12.8052V23.4552L103.355 24.8851L98.865 27.4751Z" stroke="white" stroke-linejoin="round"/><path d="M98.865 35.4551V40.785L93.915 38.3151L98.865 35.4551Z" stroke="white" stroke-linejoin="round"/><path d="M89.5847 46.1351V43.4751L87.1147 42.2451L93.9148 38.3152L98.8647 40.7852L89.5847 46.1351Z" stroke="white" stroke-linejoin="round"/><path d="M89.5847 43.475L82.6248 47.495L75.6648 44.015V43.525L73.1948 42.295L75.2148 41.125L82.6248 44.835L87.1147 42.245L89.5847 43.475Z" stroke="white" stroke-linejoin="round"/><path d="M82.625 26.1953V44.8352L75.2151 41.1252L75.665 40.8652V30.2152L72.9651 28.8652L62.625 23.6953V16.1953L70.0452 19.9053L74.9851 22.3752L82.625 26.1953Z" stroke="white" stroke-linejoin="round"/></svg>