<svg width="48" height="48" viewBox="0 0 94 123" fill="#229EFF" xmlns="http://www.w3.org/2000/svg" stroke-width="1px" stroke-linecap="round" stroke-linejoin="round"><path d="M75.7609 60.2899C75.2209 60.6399 74.6309 60.9899 74.0109 61.3499C69.9209 63.7099 66.1809 64.7898 62.8009 64.5898C60.6109 64.4598 58.6809 63.8998 57.0109 62.8998C56.0909 62.3598 55.2508 61.6898 54.4908 60.8798L45.8708 65.8599L38.2909 70.2399L29.7009 75.1998V63.4698L43.6008 55.4398L45.1909 54.5198L50.4009 51.5098C50.2909 50.9198 50.2209 50.3299 50.1909 49.7299C50.1909 49.4599 50.1709 49.1698 50.1609 48.8798C50.1509 48.5098 50.1509 48.1398 50.1509 47.7498C50.1509 46.9198 50.1808 46.0898 50.2408 45.2498C50.3908 43.1098 50.7509 40.9398 51.3009 38.7198C52.0709 35.6398 53.1308 32.5998 54.4908 29.5898C47.8908 33.3998 42.4109 36.9398 38.0509 40.1898C34.6709 42.7098 31.9609 45.0698 29.9109 47.2598C27.0209 50.3498 25.0209 53.5999 23.9209 56.9899C23.2209 59.0999 22.8809 61.2699 22.8809 63.4899V100.65C22.8809 102.34 23.1608 103.86 23.7308 105.19C24.3008 106.53 25.1509 107.55 26.2909 108.26V120.19L36.5109 114.29V106.47L56.5109 94.9199L63.7809 90.7198V98.5499L74.0109 92.6398V80.7098C75.1509 78.6898 76.0009 76.6798 76.5709 74.6898C77.1309 72.6998 77.4209 70.8599 77.4209 69.1599V59.0898C76.8509 59.5498 76.3009 59.9499 75.7609 60.2899ZM41.8409 89.9498C40.8509 91.6598 39.6408 92.9298 38.2208 93.7498C36.8008 94.5698 35.5908 94.6898 34.6008 94.1298C33.6008 93.5598 33.1108 92.4598 33.1108 90.8298C33.1108 89.2998 33.5409 87.7299 34.4409 86.1199C34.4809 86.0199 34.5408 85.9198 34.6008 85.8198C35.5908 84.0998 36.8008 82.8298 38.2208 82.0098C39.6408 81.1898 40.8509 81.0698 41.8409 81.6298C41.9009 81.6598 41.9609 81.6999 42.0109 81.7399C42.8909 82.3399 43.3309 83.3999 43.3309 84.9299C43.3309 86.5599 42.8309 88.2298 41.8409 89.9498ZM65.7009 76.1699C64.7109 77.8899 63.5009 79.1498 62.0809 79.9698C60.6609 80.7898 59.4509 80.9199 58.4609 80.3499C57.4609 79.7899 56.9708 78.6899 56.9708 77.0599C56.9708 75.4299 57.4609 73.7599 58.4609 72.0399C59.4509 70.3299 60.6609 69.0599 62.0809 68.2399C63.5009 67.4199 64.7109 67.2899 65.7009 67.8599C66.6909 68.4299 67.1909 69.5198 67.1909 71.1498C67.1909 72.7798 66.6909 74.4599 65.7009 76.1699Z" stroke="white" stroke-linejoin="round"/><path d="M67.1908 71.15C67.1908 72.78 66.6908 74.46 65.7008 76.17C64.7108 77.89 63.5008 79.15 62.0808 79.97C60.6608 80.79 59.4508 80.92 58.4608 80.35C57.4608 79.79 56.9707 78.69 56.9707 77.06C56.9707 75.43 57.4608 73.76 58.4608 72.04C59.4508 70.33 60.6608 69.06 62.0808 68.24C63.5008 67.42 64.7108 67.29 65.7008 67.86C66.6908 68.43 67.1908 69.52 67.1908 71.15Z" stroke="white" stroke-linejoin="round"/><path d="M43.3314 84.9299C43.3314 86.5599 42.8314 88.2299 41.8414 89.9499C40.8514 91.6599 39.6413 92.9299 38.2213 93.7499C36.8013 94.5699 35.5913 94.6899 34.6013 94.1299C33.6013 93.5599 33.1113 92.4599 33.1113 90.8299C33.1113 89.2999 33.5414 87.7299 34.4414 86.1199C34.4814 86.0199 34.5413 85.9199 34.6013 85.8199C35.5913 84.0999 36.8013 82.8299 38.2213 82.0099C39.6413 81.1899 40.8514 81.0699 41.8414 81.6299C41.9014 81.6599 41.9614 81.6999 42.0114 81.7399C42.8914 82.3399 43.3314 83.3999 43.3314 84.9299Z" stroke="white" stroke-linejoin="round"/><path d="M54.4911 60.8799L45.8711 65.86L38.2911 70.24L29.7012 75.2V63.47L43.6011 55.4399L54.4911 60.8799Z" stroke="white" stroke-linejoin="round"/><path d="M26.291 108.26V120.19L6.29102 110.19V98.26L26.291 108.26Z" stroke="white" stroke-linejoin="round"/><path d="M54.4908 29.5898C47.8908 33.3998 42.4109 36.9398 38.0509 40.1898C34.6709 42.7098 31.9609 45.0698 29.9109 47.2598C27.0209 50.3498 25.0209 53.5999 23.9209 56.9899C23.2209 59.0999 22.8809 61.2699 22.8809 63.4899V100.65C22.8809 102.34 23.1608 103.86 23.7308 105.19C24.3008 106.53 25.1509 107.55 26.2909 108.26L6.29089 98.2598C5.15089 97.5498 4.30083 96.5298 3.73083 95.1898C3.16083 93.8598 2.88086 92.3398 2.88086 90.6498V53.4899C2.88086 47.6899 5.22089 42.2798 9.91089 37.2598C14.6009 32.2398 22.7908 26.3498 34.4908 19.5898L39.4708 22.0798L54.4908 29.5898Z" stroke="white" stroke-linejoin="round"/><path d="M85.3408 12.8C82.1608 11.35 78.3807 11.88 74.0107 14.41C72.9507 15.02 71.9208 15.71 70.9408 16.47C67.8608 18.84 65.1308 21.93 62.7708 25.74C62.4708 26.21 62.1908 26.68 61.9108 27.17C59.0908 32.08 57.4808 36.85 57.0808 41.46C57.0008 42.25 56.9707 43.03 56.9707 43.81C56.9707 45.87 57.2108 47.66 57.6908 49.22C58.4808 51.75 59.8908 53.59 61.9508 54.77L57.4208 52.51L54.5208 51.05L50.1608 48.8799C50.1508 48.5099 50.1508 48.1399 50.1508 47.7499C50.1508 46.9199 50.1807 46.0899 50.2407 45.2499C50.3907 43.1099 50.7508 40.94 51.3008 38.72C52.0708 35.64 53.1307 32.6 54.4907 29.59L39.4707 22.08C40.1507 20.46 40.9608 18.83 41.9108 17.17C45.2008 11.42 49.2407 7.16998 54.0107 4.40998C58.7207 1.68998 62.7408 1.27999 66.0708 3.16999L85.3408 12.8Z" stroke="white" stroke-linejoin="round"/><path d="M86.0708 13.1701L85.3408 12.8001C82.1608 11.3501 78.3807 11.8801 74.0107 14.4101C72.9507 15.0201 71.9208 15.71 70.9408 16.47C67.8608 18.84 65.1308 21.9301 62.7708 25.7401C62.4708 26.2101 62.1908 26.6801 61.9108 27.1701C59.0908 32.0801 57.4808 36.85 57.0808 41.46C57.0008 42.25 56.9707 43.0301 56.9707 43.8101C56.9707 45.8701 57.2108 47.66 57.6908 49.22C58.4808 51.75 59.8908 53.59 61.9508 54.77C64.2708 56.09 66.9308 56.2901 69.9408 55.3501C71.2308 54.9601 72.5907 54.35 74.0107 53.53C78.7207 50.81 82.7408 46.5801 86.0708 40.8501C89.3908 35.1101 91.0508 29.54 91.0508 24.13C91.0508 18.72 89.3908 15.0701 86.0708 13.1701ZM79.6307 40.1101L72.3008 35.7401V23.22L75.7108 21.25V32.21L82.1908 35.7L79.6307 40.1101Z" stroke="white" stroke-linejoin="round"/><path d="M82.1908 35.7L79.6307 40.11L72.3008 35.7401V30.51L75.7108 32.21L82.1908 35.7Z" stroke="white" stroke-linejoin="round"/><path d="M75.7108 21.25V32.21L72.3008 30.51V23.22L75.7108 21.25Z" stroke="white" stroke-linejoin="round"/><path d="M77.4207 59.09C76.8507 59.55 76.3006 59.95 75.7606 60.29C75.2206 60.64 74.6306 60.99 74.0106 61.35C69.9206 63.71 66.1807 64.79 62.8007 64.59C60.6107 64.46 58.6806 63.9 57.0106 62.9C56.0906 62.36 55.2506 61.69 54.4906 60.88L43.6006 55.44L45.1907 54.52C47.9207 54.22 50.8606 53.17 54.0106 51.35C54.1806 51.25 54.3606 51.15 54.5206 51.05L57.4207 52.51L61.9507 54.77C64.2707 56.09 66.9307 56.29 69.9407 55.35L77.4207 59.09Z" stroke="white" stroke-linejoin="round"/><path d="M63.7808 90.72V98.55L56.5107 94.92L63.7808 90.72Z" stroke="white" stroke-linejoin="round"/></svg>