<svg width="48" height="48" viewBox="0 0 91 93" fill="#229EFF" xmlns="http://www.w3.org/2000/svg" stroke-width="1px" stroke-linecap="round" stroke-linejoin="round"><path d="M31.9785 37.0306H31.9985L38.5286 28.9207L31.9785 37.0306Z" stroke="white" stroke-linejoin="round"/><path d="M61.7993 13.0707L51.9993 12.2607L51.6592 12.6807L38.5293 28.9207L31.9993 37.0307H31.9792L25.3792 45.2007L22.1992 49.1307V88.0807L51.1692 90.4407L50.3394 88.7407C49.7894 87.5307 49.3794 86.1907 49.0994 84.7007C48.8894 83.5207 48.7492 82.2807 48.7192 80.9707C48.6992 80.6207 48.6892 80.2707 48.6892 79.9107C48.6892 78.9407 48.7293 77.9707 48.8093 76.9907C49.0493 74.0207 49.6492 71.0107 50.6292 67.9607C51.0292 66.6607 51.5193 65.3507 52.0593 64.0307C52.6593 62.5807 53.3394 61.1307 54.1094 59.6607C54.5294 58.8407 54.9892 58.0107 55.4692 57.1807C59.0392 51.0207 63.1992 46.1307 67.9392 42.5407C69.0492 41.6907 70.1891 40.9107 71.3691 40.2207C71.5291 40.1107 71.6994 40.0207 71.8594 39.9207C73.6294 38.9007 75.3493 38.1307 77.0293 37.6007C78.7193 37.0707 80.2993 36.7907 81.7893 36.7507V14.7107L61.7893 13.0707H61.7993ZM75.1792 26.9907L66.4893 37.7807L65.9993 38.3807L53.5293 53.8707L51.9993 55.7707L50.2092 55.6107L37.7993 54.5407L32.0593 54.0407L28.8193 53.7607V49.7707L32.0193 45.7807L32.3792 45.3407L36.3792 45.6807L42.4993 46.2107L50.2092 46.8807L51.9993 47.0307L53.5293 45.1307L61.3394 35.4407L70.1692 24.4807L71.6191 22.6807L75.1792 23.0007V26.9907Z" stroke="white" stroke-linejoin="round"/><path d="M75.1799 23.0007V26.9907L70.1699 24.4807L71.6199 22.6807L75.1799 23.0007Z" stroke="white" stroke-linejoin="round"/><path d="M52.0002 55.7708L50.2102 55.6108L37.8003 54.5408L32.0603 54.0408L28.8203 53.7608V49.7708L32.0203 45.7808L35.3403 47.4408L40.1602 49.8508L50.2102 54.8808L52.0002 55.7708Z" stroke="white" stroke-linejoin="round"/><path d="M75.1794 26.9907L66.4895 37.7807L65.9995 38.3807L53.5295 53.8707L51.9995 55.7707L50.2095 54.8807L40.1594 49.8507L35.3396 47.4407L32.0195 45.7807L32.3794 45.3407L36.3794 45.6807L42.4995 46.2107L50.2095 46.8807L51.9995 47.0307L53.5295 45.1307L61.3396 35.4407L70.1694 24.4807L75.1794 26.9907Z" stroke="white" stroke-linejoin="round"/><path d="M31.9785 37.0306H31.9985L38.5286 28.9207L31.9785 37.0306Z" stroke="white" stroke-linejoin="round"/><path d="M83.5786 46.3207L82.7285 45.9006C79.6785 44.5706 76.0584 45.1106 71.8684 47.5206C70.6084 48.2406 69.4085 49.0806 68.2485 50.0406C65.1985 52.5406 62.4984 55.8106 60.1584 59.8406C59.7184 60.5906 59.3185 61.3407 58.9385 62.0807C57.0685 65.7907 55.9185 69.4307 55.4985 73.0007C55.3685 74.0407 55.3086 75.0607 55.3086 76.0807C55.3086 80.9807 56.7085 84.3906 59.5085 86.3106L59.5386 86.3307C59.7386 86.4807 59.9484 86.6106 60.1584 86.7306C60.6884 87.0306 61.2286 87.2807 61.7986 87.4507C64.6786 88.3807 68.0384 87.7406 71.8684 85.5206C76.4484 82.8806 80.3486 78.7707 83.5786 73.2007C86.8086 67.6307 88.4285 62.2206 88.4285 56.9606C88.4285 51.7006 86.8086 48.1607 83.5786 46.3207ZM73.0286 76.6806C72.6986 77.2506 72.3084 77.6706 71.8684 77.9206C71.4284 78.1806 71.0385 78.2106 70.7085 78.0206C70.3785 77.8306 70.2085 77.4906 70.2085 76.9806C70.2085 76.4706 70.3785 75.9306 70.7085 75.3606C71.0385 74.7906 71.4284 74.3806 71.8684 74.1206C72.3084 73.8706 72.6986 73.8406 73.0286 74.0206C73.3586 74.2106 73.5286 74.5607 73.5286 75.0707C73.5286 75.5807 73.3586 76.1106 73.0286 76.6806ZM73.5286 69.3706L70.2085 71.2806V56.0807L73.5286 54.1706V69.3706Z" stroke="white" stroke-linejoin="round"/><path d="M73.5291 75.0707C73.5291 75.5707 73.3591 76.1107 73.0291 76.6807C72.6991 77.2507 72.3089 77.6707 71.8689 77.9207C71.4289 78.1807 71.039 78.2107 70.709 78.0207C70.379 77.8307 70.209 77.4907 70.209 76.9807C70.209 76.4707 70.379 75.9307 70.709 75.3607C71.039 74.7907 71.4289 74.3807 71.8689 74.1207C72.3089 73.8707 72.6991 73.8407 73.0291 74.0207C73.3591 74.2107 73.5291 74.5607 73.5291 75.0707Z" stroke="white" stroke-linejoin="round"/><path d="M73.5291 69.3707L70.209 71.2807V67.7107L73.5291 69.3707Z" stroke="white" stroke-linejoin="round"/><path d="M73.5291 54.1707V69.3707L70.209 67.7106V56.0807L73.5291 54.1707Z" stroke="white" stroke-linejoin="round"/><path d="M22.1992 49.1307V88.0807L2.19922 78.0807V39.1307L8.81934 42.4407L12.0093 44.0407H12.0193L22.1992 49.1307Z" stroke="white" stroke-linejoin="round"/><path d="M51.6191 12.6807L38.5293 28.9207L31.9792 37.0307L25.3792 45.2007L22.1992 49.1307L12.0193 44.0407H12.0093L8.81934 42.4407L2.19922 39.1307L31.9993 2.26074L51.6191 12.6807Z" stroke="white" stroke-linejoin="round"/><path d="M81.8 14.7107L61.8 13.0707L52 12.2607L51.6599 12.6807H51.6199L32 2.26074L61.8 4.71069L81.8 14.7107Z" stroke="white" stroke-linejoin="round"/><path d="M82.7295 45.9007C79.6795 44.5707 76.0594 45.1107 71.8694 47.5207C70.6094 48.2407 69.4095 49.0807 68.2495 50.0407C65.1995 52.5407 62.4994 55.8107 60.1594 59.8407C59.7194 60.5907 59.3195 61.3407 58.9395 62.0807C57.0695 65.7907 55.9195 69.4307 55.4995 73.0007C55.3695 74.0407 55.3096 75.0607 55.3096 76.0807C55.3096 80.9807 56.7095 84.3907 59.5095 86.3107L48.7195 80.9707C48.6995 80.6207 48.6895 80.2707 48.6895 79.9107C48.6895 78.9407 48.7296 77.9707 48.8096 76.9907C49.0496 74.0207 49.6494 71.0107 50.6294 67.9607C51.0294 66.6607 51.5196 65.3507 52.0596 64.0307C52.6596 62.5807 53.3396 61.1307 54.1096 59.6607C54.5296 58.8407 54.9895 58.0107 55.4695 57.1807C59.0395 51.0207 63.1995 46.1307 67.9395 42.5407C69.0495 41.6907 70.1894 40.9107 71.3694 40.2207L82.7195 45.9007H82.7295Z" stroke="white" stroke-linejoin="round"/></svg>