<svg width="48" height="48" viewBox="0 0 97 113" fill="#229EFF" xmlns="http://www.w3.org/2000/svg" stroke-width="1px" stroke-linecap="round" stroke-linejoin="round"><path d="M92.5902 59.6642C92.2302 59.5042 91.8102 59.4042 91.3502 59.3542C89.1502 59.1042 86.2502 60.0142 82.6402 62.0942C82.0402 62.4442 81.4502 62.7942 80.8802 63.1542C80.3002 63.5142 79.7402 63.9142 79.1902 64.3442C79.8402 65.1242 80.3302 66.0742 80.6502 67.2042C80.9802 68.3442 81.1402 69.6542 81.1402 71.1442V76.7443L94.6602 68.9442V63.5142C94.6602 61.5242 93.9702 60.2342 92.5902 59.6642Z" stroke="white" stroke-linejoin="round"/><path d="M88.6501 48.2841C88.6501 50.1841 88.0702 52.1441 86.9202 54.1541C86.5002 54.8841 86.0501 55.5441 85.5601 56.1441C84.7001 57.1841 83.7302 58.0241 82.6402 58.6441C80.9902 59.6041 79.5801 59.7442 78.4001 59.0742C77.2301 58.4042 76.6401 57.1242 76.6401 55.2242C76.6401 54.1442 76.8201 53.0642 77.1901 51.9642C77.4701 51.0742 77.8801 50.1841 78.4001 49.2941C79.5801 47.2941 80.9902 45.8142 82.6402 44.8642C84.1802 43.9842 85.4801 43.7542 86.5701 44.2042L86.9202 44.3742C88.0702 45.0342 88.6501 46.3341 88.6501 48.2841Z" stroke="white" stroke-linejoin="round"/><path d="M81.1401 71.1442V76.7443L76.6401 74.4943V73.7443C76.6401 71.0143 75.7601 69.1843 73.9901 68.2443L73.8501 68.1742L65.7201 64.1042L64.3701 63.4342L64.3801 63.4242C64.6101 63.0842 64.8301 62.7242 65.0401 62.3542C65.8401 60.9542 66.4601 59.5642 66.8901 58.1942L71.7501 60.6243L79.1901 64.3442C79.8401 65.1242 80.3301 66.0742 80.6501 67.2042C80.9801 68.3442 81.1401 69.6542 81.1401 71.1442Z" stroke="white" stroke-linejoin="round"/><path d="M67.6301 53.5342V53.6842C67.6101 55.1642 67.3701 56.6742 66.8901 58.1942C66.4601 59.5642 65.8401 60.9542 65.0401 62.3542C64.8301 62.7242 64.6101 63.0842 64.3801 63.4242C64.3801 63.4242 64.3801 63.4342 64.3701 63.4342C63.7601 64.3942 63.0901 65.2542 62.3701 66.0342C62.0901 66.3442 61.8001 66.6442 61.5001 66.9242C60.6101 67.7642 59.6501 68.4842 58.6201 69.0742C57.2801 69.8442 56.0501 70.2642 54.9201 70.3342C53.9501 70.4042 53.0501 70.2043 52.2401 69.7443C50.4901 68.7443 49.6101 66.8042 49.6101 63.9342C49.6101 61.8142 50.0701 59.6741 51.0001 57.5141C51.3501 56.6941 51.7601 55.8742 52.2401 55.0542C53.8401 52.3242 55.7601 50.2342 57.9901 48.7942C58.1901 48.6442 58.4101 48.5142 58.6201 48.3942C60.8601 47.1042 62.7801 46.7542 64.3901 47.3642C64.4301 47.3742 64.4701 47.3842 64.5101 47.4042L65.0401 47.6642C65.9401 48.1742 66.6101 48.9543 67.0401 50.0043C67.4301 50.9543 67.6301 52.1442 67.6301 53.5342Z" stroke="white" stroke-linejoin="round"/><path d="M38.2001 88.0142C37.6501 88.2142 37.0701 88.4742 36.4701 88.7942C35.8701 89.1142 35.2401 89.4642 34.5901 89.8342C32.3401 91.1342 30.3601 92.5842 28.6501 94.1842C27.6501 95.1142 26.7401 96.0943 25.9201 97.1243C23.6901 99.9343 22.5801 102.604 22.5801 105.124V110.554L2.58008 100.554V95.1243C2.58008 92.6043 3.69007 89.9343 5.92007 87.1243C8.15007 84.3143 11.0401 81.8842 14.5901 79.8342C14.8801 79.6742 15.1601 79.5142 15.4401 79.3542L17.3001 80.2842L20.8401 82.0642L28.2201 85.7543L30.3501 86.8142C31.5301 87.4842 32.9401 87.3442 34.5901 86.3942C34.6501 86.3642 34.7101 86.3242 34.7601 86.2942L38.2001 88.0142Z" stroke="white" stroke-linejoin="round"/><path d="M38.2001 88.0142C37.5001 89.5642 36.9701 91.1042 36.6201 92.6342C36.2701 94.1542 36.1001 95.6642 36.1001 97.1542V102.754L22.5801 110.554V105.124C22.5801 102.604 23.6901 99.9343 25.9201 97.1243C26.7401 96.0943 27.6501 95.1142 28.6501 94.1842C30.3601 92.5842 32.3401 91.1342 34.5901 89.8342C35.2401 89.4642 35.8701 89.1142 36.4701 88.7942C37.0701 88.4742 37.6501 88.2142 38.2001 88.0142Z" stroke="white" stroke-linejoin="round"/><path d="M64.4102 47.3542C64.4102 47.3542 64.4002 47.3643 64.3902 47.3643C62.7802 46.7543 60.8602 47.1042 58.6202 48.3942C58.4102 48.5142 58.1902 48.6442 57.9902 48.7942C55.7602 50.2342 53.8402 52.3242 52.2402 55.0542C51.7602 55.8742 51.3502 56.6942 51.0002 57.5142C50.0702 59.6742 49.6102 61.8142 49.6102 63.9342C49.6102 66.8042 50.4902 68.7443 52.2402 69.7443L37.4602 62.3542L32.7902 60.0142L32.2402 59.7443C31.0902 59.0843 30.3102 58.0142 29.9202 56.5442C30.5702 54.6242 31.4502 52.7042 32.5702 50.7742C35.2202 46.1942 38.5002 42.7842 42.4002 40.5342C43.8102 39.7142 45.1102 39.1243 46.3002 38.7443C46.4902 38.6843 46.6802 38.6242 46.8602 38.5742H46.8702L56.7902 43.5442L64.4102 47.3542Z" stroke="white" stroke-linejoin="round"/><path d="M40.6001 76.0342C40.6001 76.9542 40.4601 77.8943 40.1901 78.8443C39.9001 79.8443 39.4601 80.8642 38.8701 81.8942C37.7601 83.8442 36.4001 85.3042 34.7601 86.2942C34.7101 86.3242 34.6501 86.3642 34.5901 86.3942C32.9401 87.3442 31.5301 87.4842 30.3501 86.8142C29.7501 86.4742 29.3001 85.9642 29.0101 85.2942C28.7501 84.7242 28.6201 84.0243 28.6001 83.2143C28.5901 83.1343 28.5901 83.0443 28.5901 82.9643C28.5901 81.0143 29.1801 79.0342 30.3501 77.0342C31.5301 75.0342 32.9401 73.5643 34.5901 72.6043C36.1301 71.7243 37.4301 71.5042 38.5201 71.9442L38.8701 72.1143C40.0201 72.7743 40.6001 74.0742 40.6001 76.0342Z" stroke="white" stroke-linejoin="round"/><path d="M76.6401 73.7442V79.3442L40.6001 100.154V94.5541C40.6001 90.8241 42.2601 86.8442 45.5901 82.6242C48.9201 78.4042 53.2601 74.7541 58.6201 71.6541C60.9101 70.3341 63.0101 69.3241 64.9201 68.6341H64.9301C67.5301 67.6941 69.7801 67.3442 71.6801 67.5642C72.5101 67.6542 73.2301 67.8641 73.8501 68.1741L73.9901 68.2442C75.7601 69.1842 76.6401 71.0142 76.6401 73.7442Z" stroke="white" stroke-linejoin="round"/><path d="M58.6201 43.5742L56.9601 42.7442L48.1401 38.3342C49.5501 38.1342 50.7401 38.3342 51.7501 38.9242C53.4501 39.9142 55.2201 41.0741 57.0501 42.4041C57.5701 42.7841 58.0901 43.1742 58.6201 43.5742Z" stroke="white" stroke-linejoin="round"/><path d="M86.57 44.2042C85.48 43.7542 84.18 43.9843 82.64 44.8643C80.99 45.8143 79.58 47.2942 78.4 49.2942C77.88 50.1842 77.47 51.0742 77.19 51.9542C76.82 53.0642 76.64 54.1443 76.64 55.2243C76.64 57.1243 77.23 58.4042 78.4 59.0742L74.66 57.2042L67.63 53.6842V53.5342C67.63 52.1442 67.43 50.9543 67.04 50.0043C66.61 48.9543 65.94 48.1742 65.04 47.6642L64.51 47.4042L64.41 47.3543L56.79 43.5442C56.83 43.2842 56.89 43.0143 56.96 42.7443L58.62 43.5742C60.33 40.3242 61.99 37.2642 63.59 34.3942C64.88 33.8542 65.99 33.8443 66.92 34.3743L86.57 44.2042Z" stroke="white" stroke-linejoin="round"/><path d="M92.5901 59.6642C92.2301 59.5042 91.8101 59.4042 91.3501 59.3542C89.1501 59.1042 86.2502 60.0142 82.6402 62.0942C82.0402 62.4442 81.4501 62.7942 80.8801 63.1542C80.3001 63.5142 79.7401 63.9142 79.1901 64.3442L71.7501 60.6243L66.8901 58.1942C67.3701 56.6742 67.6101 55.1642 67.6301 53.6842L74.6601 57.2042L78.4001 59.0742C79.5801 59.7442 80.9902 59.6042 82.6402 58.6442C83.7302 58.0242 84.7001 57.1842 85.5601 56.1442L92.5901 59.6642Z" stroke="white" stroke-linejoin="round"/><path d="M91.8 40.6143L71.8 30.6143L67.28 28.3442C67.28 28.3442 67.3 28.3142 67.31 28.3042L71.7 30.4943L71.81 30.5542L87.21 38.2543C88.21 38.1943 89.09 38.3842 89.84 38.8042C90.59 39.2342 91.24 39.8343 91.79 40.6143H91.8Z" stroke="white" stroke-linejoin="round"/><path d="M88.15 12.9042C84.5 11.2342 80.05 11.8942 74.84 14.9142C74.77 14.9542 74.71 14.9942 74.64 15.0342C72.57 16.2442 70.58 17.7442 68.65 19.5342C67.69 20.4142 66.75 21.3642 65.83 22.3942C62.97 25.5642 60.57 29.0642 58.62 32.8942C58 32.3942 57.33 31.9742 56.61 31.6442L43.27 24.9743L38.72 22.7042C40.65 18.9442 43.02 15.5142 45.83 12.3942C48.68 9.22418 51.68 6.7342 54.84 4.9142C60.44 1.6742 65.15 1.14422 68.95 3.31422L88.15 12.9042Z" stroke="white" stroke-linejoin="round"/><path d="M56.6101 31.6442C55.0901 30.9442 53.3501 30.6342 51.4101 30.7242C48.5601 30.8442 45.5601 31.8142 42.4001 33.6342C41.8501 33.9542 41.3001 34.2942 40.7701 34.6442C35.8801 37.8542 31.7201 42.4242 28.2901 48.3342C25.2201 53.6242 23.3901 58.8642 22.8001 64.0742C22.6501 65.3242 22.5801 66.5742 22.5801 67.8242C22.5801 70.0042 22.8301 72.0142 23.3301 73.8542C23.4601 74.3142 23.5901 74.7642 23.7501 75.2142C24.2001 76.5342 24.7601 77.7742 25.4301 78.9242L22.4701 77.4442L16.8401 74.6342L8.87009 70.6442L5.43008 68.9242C4.53008 67.3842 3.83008 65.6842 3.33008 63.8542C2.83008 62.0142 2.58008 60.0042 2.58008 57.8242C2.58008 51.3942 4.48008 44.8942 8.29008 38.3342C12.0901 31.7742 16.8001 26.8742 22.4001 23.6342C25.5601 21.8142 28.5601 20.8442 31.4101 20.7242C33.5701 20.6242 35.4901 21.0242 37.1401 21.9142L37.4001 22.0442L38.7201 22.7042L43.2701 24.9742L56.6101 31.6442Z" stroke="white" stroke-linejoin="round"/><path d="M73.8501 68.1742C73.2301 67.8642 72.5101 67.6542 71.6801 67.5642C69.7801 67.3442 67.5301 67.6942 64.9301 68.6342H64.9201C63.0101 69.3242 60.9101 70.3342 58.6201 71.6542C53.2601 74.7542 48.9201 78.4043 45.5901 82.6243C42.2601 86.8443 40.6001 90.8242 40.6001 94.5542V100.154L36.1001 97.9042V97.1542C36.1001 95.6642 36.2701 94.1542 36.6201 92.6342C36.9701 91.1042 37.5001 89.5642 38.2001 88.0142L34.7601 86.2942C36.4001 85.3042 37.7601 83.8442 38.8701 81.8942C39.4601 80.8642 39.9001 79.8442 40.1901 78.8442C40.4601 77.8942 40.6001 76.9542 40.6001 76.0342C40.6001 74.0742 40.0201 72.7743 38.8701 72.1143L38.5201 71.9442L30.1501 67.7543C32.3101 65.8043 34.7401 64.0042 37.4601 62.3542L52.2401 69.7443C53.0501 70.2043 53.9501 70.4042 54.9201 70.3342C56.0501 70.2642 57.2801 69.8442 58.6201 69.0742C59.6501 68.4842 60.6101 67.7642 61.5001 66.9242C61.8001 66.6442 62.0901 66.3442 62.3701 66.0342C63.0901 65.2542 63.7601 64.3942 64.3701 63.4342L65.7201 64.1042L73.8501 68.1742Z" stroke="white" stroke-linejoin="round"/><path d="M88.6501 29.6842C88.6501 31.0042 88.5201 32.3641 88.2701 33.7741C88.0201 35.1841 87.6701 36.6742 87.2201 38.2542L71.8201 30.5542L71.7101 30.5042L67.3201 28.3042C67.3301 28.2842 67.3401 28.2742 67.3601 28.2542C69.1701 25.9142 71.4101 23.9141 74.0901 22.2641C74.3401 22.1041 74.5901 21.9542 74.8501 21.8042C78.7501 19.5542 82.0301 19.1842 84.6801 20.6942C87.3301 22.2042 88.6601 25.2042 88.6601 29.6842H88.6501Z" stroke="white" stroke-linejoin="round"/><path d="M38.5201 71.9442C37.4301 71.5042 36.1301 71.7242 34.5901 72.6042C32.9401 73.5642 31.5301 75.0342 30.3501 77.0342C29.1801 79.0342 28.5901 81.0142 28.5901 82.9642C28.5901 83.0442 28.5901 83.1342 28.6001 83.2142C28.6201 84.0242 28.7501 84.7242 29.0101 85.2942C29.3001 85.9642 29.7501 86.4742 30.3501 86.8142L28.2201 85.7543L20.8401 82.0642L17.3001 80.2842L15.4401 79.3542L10.7201 76.9943L10.3501 76.8142C9.1801 76.1442 8.59009 74.8642 8.59009 72.9642C8.59009 72.1942 8.6801 71.4242 8.8701 70.6442L16.8401 74.6342L22.4701 77.4442L25.4301 78.9242C25.9801 77.5242 26.6401 76.1643 27.3901 74.8743C28.1401 73.5743 29.0101 72.3842 30.0101 71.2842C29.6501 70.4442 29.3601 69.5842 29.1401 68.7042C29.0701 68.4742 29.0101 68.2442 28.9601 68.0142C28.8901 67.7142 28.8301 67.3942 28.7901 67.0742L30.1501 67.7543L38.5201 71.9442Z" stroke="white" stroke-linejoin="round"/><path d="M94.6601 26.2142C94.6601 28.3942 94.4101 30.6942 93.9101 33.1042C93.4001 35.5242 92.7001 38.0242 91.8001 40.6142C91.2501 39.8342 90.6001 39.2342 89.8501 38.8042C89.1001 38.3842 88.2201 38.1942 87.2201 38.2542C87.6701 36.6742 88.0201 35.1841 88.2701 33.7741C88.5201 32.3641 88.6501 31.0042 88.6501 29.6842C88.6501 25.2042 87.3201 22.2042 84.6701 20.6942C82.0201 19.1842 78.7401 19.5542 74.8401 21.8042C74.5801 21.9542 74.3301 22.1041 74.0801 22.2641C71.4001 23.9141 69.1601 25.9142 67.3501 28.2542C67.3301 28.2742 67.3201 28.2842 67.3101 28.3042C67.3001 28.3142 67.2901 28.3342 67.2801 28.3442C66.6201 29.2042 66.0301 30.0942 65.4901 31.0342C64.8701 32.1242 64.2301 33.2441 63.5901 34.3941C61.9901 37.2641 60.3301 40.3242 58.6201 43.5742C58.0901 43.1742 57.5701 42.7841 57.0501 42.4041C55.2201 41.0741 53.4501 39.9142 51.7501 38.9242C50.7401 38.3342 49.5501 38.1342 48.1401 38.3342H48.1301C47.7301 38.3742 47.3101 38.4542 46.8701 38.5742H46.8601C46.6801 38.6242 46.4901 38.6842 46.3001 38.7442C45.1101 39.1242 43.8101 39.7142 42.4001 40.5342C38.5001 42.7842 35.2201 46.1941 32.5701 50.7741C31.4501 52.7041 30.5701 54.6242 29.9201 56.5442C29.0301 59.1642 28.5901 61.7642 28.5901 64.3542C28.5901 65.3142 28.6501 66.2242 28.7901 67.0742C28.8301 67.3942 28.8901 67.7141 28.9601 68.0141C29.0101 68.2441 29.0701 68.4742 29.1401 68.7042C29.3601 69.5842 29.6501 70.4442 30.0101 71.2842C29.0101 72.3842 28.1401 73.5742 27.3901 74.8742C26.6401 76.1642 25.9801 77.5242 25.4301 78.9242C24.7601 77.7742 24.2001 76.5342 23.7501 75.2142C23.5901 74.7642 23.4601 74.3142 23.3301 73.8542C22.8301 72.0142 22.5801 70.0042 22.5801 67.8242C22.5801 66.5742 22.6501 65.3242 22.8001 64.0742C23.3901 58.8642 25.2201 53.6242 28.2901 48.3342C31.7201 42.4242 35.8801 37.8541 40.7701 34.6441C41.3001 34.2941 41.8501 33.9541 42.4001 33.6341C45.5601 31.8141 48.5601 30.8442 51.4101 30.7242C53.3501 30.6342 55.0901 30.9441 56.6101 31.6441C57.3301 31.9741 58.0001 32.3941 58.6201 32.8941C60.5701 29.0641 62.9701 25.5641 65.8301 22.3941C66.7501 21.3641 67.6901 20.4142 68.6501 19.5342C70.5801 17.7442 72.5701 16.2442 74.6401 15.0342C74.7101 14.9942 74.7701 14.9542 74.8401 14.9142C80.0501 11.8942 84.5001 11.2341 88.1501 12.9041C88.4201 13.0241 88.6901 13.1642 88.9501 13.3142C92.7501 15.4842 94.6601 19.7842 94.6601 26.2142Z" stroke="white" stroke-linejoin="round"/></svg>