<svg width="48" height="48" viewBox="0 0 112 114" xmlns="http://www.w3.org/2000/svg" stroke-width="1px"
     stroke-linecap="round" stroke-linejoin="round">
    <path d="M66.0699 12L50.4 39.03L47.6699 43.74L41.74 40.78L34.0399 36.92L27.6699 33.74L46.0699 2L66.0699 12Z" class="pr-icon-iso-solid-stroke" stroke-linejoin="round"/>
    <path d="M34.0399 36.92L33.84 37.26L27.6699 33.74L34.0399 36.92Z" class="pr-icon-iso-solid-stroke" stroke-linejoin="round"/>
    <path d="M53.8392 47.26L41.7393 41.21V40.78L47.6692 43.74L53.8392 47.26Z" class="pr-icon-iso-solid-stroke" stroke-linejoin="round"/>
    <path d="M41.0695 55.13L37.2195 61.77L22.7695 86.69L2.76953 76.69L21.0695 45.13L35.9395 52.57L41.0695 55.13Z" class="pr-icon-iso-solid-stroke" stroke-linejoin="round"/>
    <path d="M41.7399 41.21L33.8398 37.26" class="pr-icon-iso-solid-stroke" stroke-linejoin="round"/>
    <path d="M109.37 36.69L90.9695 68.43L84.7994 64.91L92.6995 51.28L76.3895 60.7L70.3995 64.16V89.62L78.1995 76.06L84.4795 79.64L66.0695 111.38L47.6694 100.89L53.8395 90.24L61.7395 94.75V69.16L53.7695 73.76L50.3995 75.71L41.7395 80.71L39.5494 81.97L41.7395 83.18L47.4495 86.35L47.1395 86.89L41.1694 97.18L28.2794 89.83L22.7695 86.69L37.2195 61.77L41.0695 55.13L47.2395 58.65L41.7395 68.13L39.4395 72.1L41.7395 70.77L50.3995 65.77L61.7395 59.22V33.63L58.2195 39.71L53.8395 47.26L47.6694 43.74L50.3995 39.03L66.0695 12L84.4795 22.49L84.2695 22.85L83.8595 23.55L78.3094 33.14L70.3995 28.63V54.22L74.9194 51.61L92.5895 41.41L84.6895 37.03L90.9695 26.2L109.37 36.69Z" class="pr-icon-iso-solid-stroke" stroke-linejoin="round"/>
    <path d="M41.1694 97.18L27.8795 90.53L21.1694 87.18L2.76953 76.69L22.7695 86.69L28.2794 89.83L41.1694 97.18Z" class="pr-icon-iso-solid-stroke" stroke-linejoin="round"/>
    <path d="M66.0699 111.38L46.0699 101.38L27.6699 90.89L46.65 100.38L47.6699 100.89L66.0699 111.38Z" class="pr-icon-iso-solid-stroke" stroke-linejoin="round"/>
    <path d="M53.84 90.24L47.6699 100.89L46.65 100.38L27.6699 90.89L27.88 90.53L41.1699 97.18L47.14 86.89L52.83 89.73L53.84 90.24Z" class="pr-icon-iso-solid-stroke" stroke-linejoin="round"/>
    <path d="M61.7393 69.16V94.75L53.8392 90.24L52.8292 89.73L47.1393 86.89L47.4492 86.35L41.7393 83.18V80.71L50.3993 75.71L53.7693 73.76L61.7393 69.16Z" class="pr-icon-iso-solid-stroke" stroke-linejoin="round"/>
    <path d="M78.1993 76.06L70.3994 89.62V72.16L78.1993 76.06Z" class="pr-icon-iso-solid-stroke" stroke-linejoin="round"/>
    <path d="M92.6996 51.28L84.7996 64.91L76.3896 60.7L92.6996 51.28Z" class="pr-icon-iso-solid-stroke" stroke-linejoin="round"/>
    <path d="M61.7393 33.63V59.22L50.9692 53.83L41.7393 49.22V41.21L53.8392 47.26L58.2192 39.71L61.7393 33.63Z" class="pr-icon-iso-solid-stroke" stroke-linejoin="round"/>
    <path d="M61.7395 59.22L50.3995 65.77L41.7395 70.77L39.4395 72.1L41.7395 68.13L47.2395 58.65L41.0695 55.13L35.9395 52.57L41.7395 49.22L50.9695 53.83L61.7395 59.22Z" class="pr-icon-iso-solid-stroke" stroke-linejoin="round"/>
    <path d="M90.9694 26.2L84.6893 37.03L83.6693 36.52L70.3994 29.89V28.63L78.3093 33.14L83.8594 23.55L84.2694 22.85L90.9694 26.2Z" class="pr-icon-iso-solid-stroke" stroke-linejoin="round"/>
    <path d="M92.5894 41.41L74.9193 51.61L70.3994 54.22V32.67L72.5894 31.41L83.4794 36.85L92.5894 41.41Z" class="pr-icon-iso-solid-stroke" stroke-linejoin="round"/>
    <path d="M92.5894 41.41L83.4794 36.85L72.5894 31.41L70.3994 30.2V29.89L83.6693 36.52L84.6893 37.03L92.5894 41.41Z" class="pr-icon-iso-solid-stroke" stroke-linejoin="round"/>
</svg>