<svg width="48" height="48" viewBox="0 0 92 121" xmlns="http://www.w3.org/2000/svg" stroke-width="1px"
     stroke-linecap="round" stroke-linejoin="round">
    <path d="M86.6302 36.015C84.5802 30.015 81.9303 25.035 78.6903 21.065C75.9903 17.775 73.0403 15.365 69.8403 13.855L69.6503 13.755C69.0603 13.485 68.4702 13.245 67.8602 13.035C65.2202 12.115 62.5903 11.995 59.9603 12.705C58.6403 13.045 57.3303 13.595 56.0103 14.355C52.1703 16.575 48.2402 20.685 44.2302 26.675C40.2202 32.675 36.5903 39.535 33.3403 47.245C30.6403 53.655 28.3602 60.295 26.5002 67.155C26.1102 68.545 25.7503 69.955 25.4003 71.365C24.1903 76.315 23.3402 81.035 22.8502 85.535C22.5102 88.645 22.3403 91.635 22.3403 94.525C22.3403 99.975 23.1702 104.515 24.8502 108.155C26.4702 111.715 28.9103 114.425 32.1403 116.265C38.6703 119.995 46.6303 119.145 56.0103 113.725C65.4003 108.315 73.3503 99.965 79.8903 88.695C86.4303 77.425 89.6903 66.405 89.6903 55.635C89.6903 48.555 88.6702 42.015 86.6302 36.015ZM65.6403 91.615L60.8303 94.385C54.9103 97.805 49.7703 98.645 45.4003 96.905C44.8603 96.695 44.3303 96.445 43.8103 96.145C40.3403 94.165 38.1603 90.845 37.2603 86.175C36.9303 84.515 36.7703 82.675 36.7703 80.675V75.155L37.0603 74.985L46.3903 69.595V75.115C46.3903 78.885 47.3402 81.655 49.2202 83.405C49.6302 83.795 50.0903 84.135 50.5903 84.415C51.3303 84.835 52.1103 85.125 52.9303 85.265C53.7903 85.425 54.6903 85.435 55.6403 85.295C57.2403 85.065 58.9603 84.415 60.8203 83.345L65.6302 80.565V91.615H65.6403Z" class="pr-icon-iso-solid-stroke" stroke-linejoin="round"/>
    <path d="M12.1401 106.265C12.6601 106.565 13.1801 106.825 13.7201 107.055L12.1401 106.265Z" class="pr-icon-iso-solid-stroke" stroke-linejoin="round"/>
    <path d="M50.6102 84.425L45.3502 81.795L36.7803 77.515V75.165L37.0703 74.995L46.4003 69.605V75.125C46.4003 78.895 47.3502 81.665 49.2302 83.415H49.2402C49.6502 83.805 50.1102 84.145 50.6102 84.425Z" class="pr-icon-iso-solid-stroke" stroke-linejoin="round"/>
    <path d="M65.6505 91.625L60.8406 94.3951C54.9206 97.8151 49.7805 98.655 45.4105 96.915C44.8705 96.705 44.3406 96.455 43.8206 96.155C40.3506 94.175 38.1705 90.855 37.2705 86.185C38.4205 85.695 39.6206 85.1051 40.8406 84.3951L45.3505 81.795L50.6105 84.425C51.3505 84.845 52.1306 85.1351 52.9506 85.2751L54.9606 86.285L65.6505 91.625Z" class="pr-icon-iso-solid-stroke" stroke-linejoin="round"/>
    <path d="M65.6501 80.575V91.6249L54.9602 86.2849L52.9502 85.275C53.8102 85.435 54.7102 85.445 55.6602 85.305C57.2602 85.075 58.9802 84.425 60.8402 83.3549L65.6501 80.575Z" class="pr-icon-iso-solid-stroke" stroke-linejoin="round"/>
    <path d="M69.6503 13.755C69.0603 13.485 68.4702 13.245 67.8602 13.035C65.2202 12.115 62.5903 11.995 59.9603 12.705C58.6403 13.045 57.3303 13.595 56.0103 14.355C52.1703 16.575 48.2402 20.685 44.2302 26.675C40.2202 32.675 36.5903 39.535 33.3403 47.245C30.6403 53.655 28.3602 60.295 26.5002 67.155C26.1102 68.545 25.7503 69.955 25.4003 71.365C24.1903 76.315 23.3402 81.035 22.8502 85.535C22.5102 88.645 22.3403 91.635 22.3403 94.525C22.3403 99.975 23.1702 104.515 24.8502 108.155C26.4702 111.715 28.9103 114.425 32.1403 116.265L13.7202 107.055L12.1403 106.265C5.60026 102.535 2.34033 95.295 2.34033 84.525C2.34033 77.445 3.36027 69.725 5.40027 61.365C7.45027 53.005 10.0903 44.965 13.3403 37.245C16.5903 29.535 20.2202 22.675 24.2302 16.675C28.2402 10.685 32.1703 6.57501 36.0103 4.35501C39.9403 2.08501 43.8902 1.64501 47.8602 3.03501C48.6702 3.32501 49.4702 3.65502 50.2502 4.04502L69.6503 13.755Z" class="pr-icon-iso-solid-stroke" stroke-linejoin="round"/>
    <path d="M50.2604 4.05499L50.1104 3.97498" class="pr-icon-iso-solid-stroke" stroke-miterlimit="10"/>
</svg>