<svg viewBox="0 0 96 106" xmlns="http://www.w3.org/2000/svg" height="24" width="24" stroke-width="1px" stroke-linecap="round" stroke-linejoin="round">
    <path d="M50.8203 54.0856L49.2803 59.0756L44.0003 76.2456L40.7803 86.7456L40.2603 88.4556L39.9503 89.4456L38.0003 88.4656L31.7403 85.3456C31.4803 84.7556 31.2603 84.1456 31.0603 83.5056V83.4856C30.9803 83.2756 30.9203 83.0556 30.8603 82.8356C30.8503 82.8056 30.8403 82.7656 30.8303 82.7256C30.8003 82.6156 30.7703 82.5056 30.7403 82.3956C30.7403 82.3656 30.7303 82.3456 30.7303 82.3156C30.6603 82.0756 30.6003 81.8256 30.5503 81.5756C30.5003 81.3756 30.4603 81.1756 30.4203 80.9656C30.3803 80.7556 30.3403 80.5456 30.3003 80.3356C30.2903 80.3056 30.2903 80.2756 30.2803 80.2456C30.2203 79.8756 30.1603 79.4856 30.1103 79.0956C30.1103 79.0756 30.1003 79.0556 30.1003 79.0356C30.0503 78.6256 30.0003 78.2056 29.9703 77.7756C29.9703 77.7356 29.9603 77.6856 29.9603 77.6456C29.9503 77.5556 29.9403 77.4756 29.9403 77.3856C29.9103 77.0956 29.8903 76.8056 29.8803 76.5056V76.4156C29.8603 76.1956 29.8503 75.9656 29.8503 75.7356C29.8303 75.2756 29.8203 74.8156 29.8203 74.3356C29.8203 73.8156 29.8303 73.2956 29.8503 72.7756C29.8603 72.4156 29.8803 72.0556 29.9103 71.6856C29.9103 71.6156 29.9103 71.5556 29.9203 71.4856C29.9203 71.3156 29.9303 71.1356 29.9503 70.9556C29.9603 70.8456 29.9703 70.7356 29.9803 70.6256C30.0103 70.1956 30.0503 69.7756 30.1003 69.3456C30.1503 68.9256 30.2003 68.5056 30.2603 68.0856C30.3003 67.7856 30.3403 67.4956 30.3903 67.1956C30.4403 66.8356 30.5003 66.4756 30.5703 66.1156C30.6203 65.8456 30.6703 65.5856 30.7203 65.3256C30.7303 65.2656 30.7403 65.2156 30.7503 65.1656C30.7503 65.1356 30.7603 65.1056 30.7703 65.0756C30.8203 64.7956 30.8803 64.5256 30.9403 64.2556C31.0003 63.9856 31.0603 63.7156 31.1303 63.4456C31.1403 63.4156 31.1403 63.3756 31.1503 63.3456C31.2203 63.0256 31.3003 62.7056 31.3903 62.3756C31.4103 62.3056 31.4303 62.2256 31.4503 62.1456C31.5803 61.6456 31.7203 61.1456 31.8703 60.6456C32.0203 60.1456 32.1703 59.6556 32.3303 59.1556C32.5003 58.6356 32.6903 58.1056 32.8803 57.5756C33.0403 57.1156 33.2203 56.6456 33.4003 56.1856C33.4303 56.1156 33.4503 56.0456 33.4803 55.9756C33.5803 55.7056 33.7003 55.4256 33.8103 55.1556C33.8203 55.1256 33.8303 55.0856 33.8503 55.0556C34.0403 54.6056 34.2303 54.1456 34.4303 53.6956C34.6603 53.1756 34.8903 52.6556 35.1403 52.1356C35.3703 51.6456 35.6103 51.1556 35.8603 50.6656C36.0003 50.3756 36.1503 50.0856 36.3003 49.8056C36.3303 49.7356 36.3703 49.6756 36.4003 49.6056C36.5303 49.3656 36.6503 49.1256 36.7903 48.8756C36.8303 48.7956 36.8703 48.7156 36.9203 48.6356C37.1103 48.2756 37.3103 47.9256 37.5103 47.5656C37.5303 47.5256 37.5503 47.4956 37.5703 47.4556L40.7503 49.0456L45.1103 51.2256L50.8303 54.0856H50.8203Z" class="pr-icon-iso-solid-stroke" stroke-linejoin="round"/>
    <path d="M81.5 14.3955L82.9 15.0955C82.44 14.8355 81.98 14.5955 81.5 14.3955Z" class="pr-icon-iso-solid-stroke" stroke-linejoin="round"/>
    <path d="M81.5005 14.3954C78.6505 13.0954 75.3905 12.6054 71.7205 12.9054C71.2105 12.9454 70.7005 13.0054 70.1905 13.0854C67.2905 13.5154 64.2605 14.4854 61.1005 16.0154C60.2705 16.4054 59.4405 16.8354 58.6005 17.3054C58.3905 17.4154 58.1905 17.5354 57.9805 17.6554C57.2405 18.0754 56.5105 18.5254 55.7905 18.9954C54.1205 20.0654 52.4905 21.2554 50.8905 22.5454C48.6105 24.3954 46.3905 26.4754 44.2505 28.7654C41.9305 31.2454 39.7805 33.8554 37.8005 36.5954C36.1005 38.9254 34.5305 41.3454 33.0705 43.8654C32.8705 44.2154 32.6705 44.5654 32.4805 44.9154C30.0705 49.1854 28.0705 53.6254 26.4705 58.2154C26.1405 59.1454 25.8305 60.0854 25.5405 61.0354C25.2405 62.0154 24.9605 62.9954 24.7005 63.9654C23.6105 68.1754 22.9805 72.2854 22.8105 76.2854C22.7805 76.9954 22.7705 77.6954 22.7705 78.3954C22.7705 79.2554 22.7905 80.0854 22.8405 80.8954C22.9005 82.0654 23.0005 83.1954 23.1605 84.2854C23.5905 87.3854 24.3805 90.1454 25.5405 92.5554C25.6205 92.7254 25.7005 92.8854 25.7905 93.0454C27.6105 96.6454 30.0405 99.3154 33.0705 101.045L14.4105 91.7154C13.9505 91.5254 13.5105 91.2954 13.0705 91.0454C9.90051 89.2354 7.39051 86.4054 5.54051 82.5554C3.69051 78.7054 2.77051 73.9854 2.77051 68.3954C2.77051 62.8054 3.69051 57.0254 5.54051 51.0354C7.39051 45.0554 9.90051 39.3254 13.0705 33.8654C16.2405 28.3954 19.9605 23.3654 24.2505 18.7654C28.5305 14.1754 33.1105 10.4654 37.9805 7.65538C42.8505 4.84538 47.4305 3.26538 51.7205 2.90538C56.0005 2.55538 59.7305 3.28538 62.9005 5.09538L81.5005 14.3954Z" class="pr-icon-iso-solid-stroke" stroke-linejoin="round"/>
    <path d="M90.4305 23.5756C88.5805 19.7256 86.0705 16.8956 82.9005 15.0956L81.5005 14.3956C78.6505 13.0956 75.3905 12.6056 71.7205 12.9056C71.2105 12.9456 70.7005 13.0056 70.1905 13.0856C67.2905 13.5156 64.2605 14.4856 61.1005 16.0156C60.2705 16.4056 59.4405 16.8356 58.6005 17.3056C58.3905 17.4156 58.1905 17.5356 57.9805 17.6556C57.2405 18.0756 56.5105 18.5256 55.7905 18.9956C54.1205 20.0656 52.4905 21.2556 50.8905 22.5456C48.6105 24.3956 46.3905 26.4756 44.2505 28.7656C41.9305 31.2456 39.7805 33.8556 37.8005 36.5956C36.1005 38.9256 34.5305 41.3456 33.0705 43.8656C32.8705 44.2156 32.6705 44.5656 32.4805 44.9156C30.0705 49.1856 28.0705 53.6256 26.4705 58.2156C26.1405 59.1456 25.8305 60.0856 25.5405 61.0356C25.2405 62.0156 24.9605 62.9956 24.7005 63.9656C23.6105 68.1756 22.9805 72.2856 22.8105 76.2856C22.7805 76.9956 22.7705 77.6956 22.7705 78.3956C22.7705 79.2556 22.7905 80.0856 22.8405 80.8956C22.9005 82.0656 23.0005 83.1956 23.1605 84.2856C23.5905 87.3856 24.3805 90.1456 25.5405 92.5556C25.6205 92.7256 25.7005 92.8856 25.7905 93.0456C27.6105 96.6456 30.0405 99.3156 33.0705 101.046C36.2405 102.846 39.9605 103.576 44.2505 103.226C48.5305 102.876 53.1105 101.286 57.9805 98.4756C62.8505 95.6656 67.4305 91.9556 71.7205 87.3656C76.0005 82.7656 79.7305 77.7356 82.9005 72.2756C86.0705 66.8056 88.5805 61.0756 90.4305 55.0956C92.2705 49.1156 93.2005 43.3256 93.2005 37.7356C93.2005 32.1456 92.2705 27.4256 90.4305 23.5756ZM77.9705 69.4656C72.5105 78.8756 65.8505 85.8556 57.9805 90.3956C50.1205 94.9356 43.4605 95.6456 38.0005 92.5356C37.7005 92.3656 37.4105 92.1856 37.1205 91.9856C36.9505 91.8756 36.7805 91.7556 36.6105 91.6256C36.4905 91.5456 36.3705 91.4556 36.2605 91.3556C36.0705 91.2156 35.8905 91.0756 35.7205 90.9156C35.6505 90.8556 35.5805 90.7956 35.5105 90.7256C35.4105 90.6356 35.3105 90.5556 35.2105 90.4556C35.1105 90.3656 35.0205 90.2756 34.9305 90.1756L34.9105 90.1556C34.9105 90.1556 34.8805 90.1256 34.8705 90.1156C34.8405 90.0856 34.8105 90.0556 34.7905 90.0256C34.6305 89.8756 34.4905 89.7156 34.3505 89.5556C34.1905 89.3756 34.0305 89.1756 33.8705 88.9756C33.7505 88.8456 33.6505 88.7056 33.5505 88.5656C33.2005 88.0956 32.8805 87.6056 32.5905 87.0756C32.5105 86.9556 32.4405 86.8256 32.3705 86.6856C32.2505 86.4556 32.1305 86.2156 32.0205 85.9756C31.9205 85.7856 31.8305 85.5956 31.7605 85.4056C31.7605 85.3856 31.7405 85.3656 31.7305 85.3456C31.4705 84.7556 31.2505 84.1456 31.0505 83.5056V83.4856C30.9705 83.2756 30.9105 83.0556 30.8505 82.8356C30.8405 82.8056 30.8305 82.7656 30.8205 82.7256C30.7905 82.6156 30.7605 82.5056 30.7305 82.3956C30.7305 82.3656 30.7205 82.3456 30.7205 82.3156C30.6505 82.0756 30.5905 81.8256 30.5405 81.5756C30.4905 81.3756 30.4505 81.1756 30.4105 80.9656C30.3705 80.7556 30.3305 80.5456 30.2905 80.3356C30.2805 80.3056 30.2805 80.2756 30.2705 80.2456C30.2105 79.8756 30.1505 79.4856 30.1005 79.0956C30.1005 79.0756 30.0905 79.0556 30.0905 79.0356C30.0405 78.6256 29.9905 78.2056 29.9605 77.7756C29.9605 77.7356 29.9505 77.6856 29.9505 77.6456C29.9405 77.5556 29.9305 77.4756 29.9305 77.3856C29.9005 77.0956 29.8805 76.8056 29.8705 76.5056V76.4156C29.8505 76.1956 29.8405 75.9656 29.8405 75.7356C29.8205 75.2756 29.8105 74.8156 29.8105 74.3356C29.8105 73.8156 29.8205 73.2956 29.8405 72.7756C29.8505 72.4156 29.8705 72.0556 29.9005 71.6856C29.9005 71.6156 29.9005 71.5556 29.9105 71.4856C29.9105 71.3156 29.9205 71.1356 29.9405 70.9556C29.9505 70.8456 29.9605 70.7356 29.9705 70.6256C30.0005 70.1956 30.0405 69.7756 30.0905 69.3456C30.1405 68.9256 30.1905 68.5056 30.2505 68.0856C30.2905 67.7856 30.3305 67.4956 30.3805 67.1956C30.4305 66.8356 30.4905 66.4756 30.5605 66.1156C30.6105 65.8456 30.6605 65.5856 30.7105 65.3256C30.7205 65.2656 30.7305 65.2156 30.7405 65.1656C30.7405 65.1356 30.7505 65.1056 30.7605 65.0756C30.8105 64.7956 30.8705 64.5256 30.9305 64.2556C30.9905 63.9856 31.0505 63.7156 31.1205 63.4456C31.1305 63.4156 31.1305 63.3756 31.1405 63.3456C31.2105 63.0256 31.2905 62.7056 31.3805 62.3756C31.4005 62.3056 31.4205 62.2256 31.4405 62.1456C31.5705 61.6456 31.7105 61.1456 31.8605 60.6456C32.0005 60.1556 32.1605 59.6556 32.3205 59.1556C32.4905 58.6356 32.6805 58.1056 32.8705 57.5756C33.0305 57.1156 33.2105 56.6456 33.3905 56.1856C33.4205 56.1156 33.4405 56.0456 33.4705 55.9756C33.5705 55.7056 33.6905 55.4256 33.8005 55.1556C33.8105 55.1256 33.8205 55.0856 33.8405 55.0556C34.0305 54.6056 34.2205 54.1456 34.4205 53.6956C34.6505 53.1756 34.8805 52.6556 35.1305 52.1356C35.3605 51.6456 35.6005 51.1556 35.8505 50.6656C35.9905 50.3756 36.1405 50.0856 36.2905 49.8056C36.3205 49.7356 36.3605 49.6756 36.3905 49.6056C36.5205 49.3656 36.6405 49.1256 36.7805 48.8756C36.8205 48.7956 36.8605 48.7156 36.9105 48.6356C37.1005 48.2756 37.3005 47.9256 37.5005 47.5656C37.5205 47.5256 37.5405 47.4956 37.5605 47.4556C37.7005 47.1956 37.8505 46.9356 38.0005 46.6756C38.6305 45.5956 39.2705 44.5456 39.9205 43.5356C40.0105 43.4056 40.0905 43.2656 40.1805 43.1356C40.5105 42.6256 40.8505 42.1256 41.2005 41.6356C41.4805 41.2256 41.7705 40.8156 42.0705 40.4156C42.1405 40.3156 42.2105 40.2256 42.2805 40.1256C42.3205 40.0656 42.3505 40.0156 42.3905 39.9756C42.7405 39.4956 43.1005 39.0256 43.4605 38.5656H43.4705C43.7905 38.1556 44.1005 37.7656 44.4305 37.3756C44.5105 37.2756 44.6005 37.1656 44.6905 37.0656C45.0305 36.6556 45.3805 36.2556 45.7305 35.8556C45.7705 35.8056 45.8105 35.7656 45.8605 35.7156C46.1705 35.3656 46.4905 35.0156 46.8205 34.6756C46.9705 34.5056 47.1305 34.3356 47.3005 34.1656C47.7105 33.7456 48.1205 33.3256 48.5305 32.9256C48.8305 32.6356 49.1305 32.3456 49.4405 32.0656C49.8505 31.6756 50.2605 31.3056 50.6805 30.9556C50.9205 30.7356 51.1605 30.5356 51.4105 30.3356C51.6905 30.0956 51.9705 29.8656 52.2605 29.6356C54.0905 28.1856 56.0005 26.8856 57.9805 25.7356C60.4105 24.3356 62.7205 23.2956 64.9205 22.6256C64.9405 22.6256 64.9505 22.6256 64.9705 22.6256C65.2005 22.5556 65.4305 22.4856 65.6605 22.4256C66.1205 22.2956 66.5605 22.1856 67.0105 22.1056C67.1805 22.0656 67.3405 22.0356 67.5105 22.0056C67.6205 21.9856 67.7405 21.9656 67.8505 21.9456C68.0205 21.9156 68.1905 21.8856 68.3605 21.8656C68.4305 21.8556 68.5005 21.8556 68.5705 21.8456C68.7505 21.8256 68.9305 21.8056 69.1105 21.7856C69.2905 21.7656 69.4705 21.7556 69.6505 21.7456C70.0105 21.7156 70.3605 21.7056 70.7105 21.7056C70.9605 21.7056 71.2205 21.7156 71.4705 21.7256C71.5705 21.7356 71.6605 21.7356 71.7605 21.7456C71.8105 21.7456 71.8505 21.7456 71.9005 21.7456C72.0905 21.7556 72.2805 21.7756 72.4705 21.7956C72.5805 21.8056 72.7005 21.8256 72.8105 21.8456C73.0405 21.8756 73.2705 21.9156 73.4905 21.9556L73.6705 21.9856C73.8105 22.0156 73.9505 22.0456 74.0905 22.0756C74.1105 22.0856 74.1405 22.0856 74.1605 22.0956C74.3805 22.1356 74.6005 22.1956 74.8205 22.2656C75.0805 22.3356 75.3305 22.4256 75.5805 22.5056C75.6005 22.5156 75.6205 22.5156 75.6405 22.5256C75.6805 22.5356 75.7105 22.5556 75.7405 22.5656C75.7705 22.5756 75.7905 22.5856 75.8205 22.5956C76.0205 22.6656 76.2205 22.7456 76.4205 22.8256H76.4305C76.4305 22.8256 76.4605 22.8456 76.4805 22.8556C76.6305 22.9156 76.7805 22.9856 76.9205 23.0556C77.0405 23.1156 77.1705 23.1656 77.2805 23.2256C77.2905 23.2256 77.2905 23.2356 77.3005 23.2356C77.5305 23.3456 77.7505 23.4656 77.9705 23.5956C83.4305 26.7056 86.1605 32.7756 86.1605 41.8056C86.1605 50.8356 83.4305 60.0456 77.9705 69.4656Z" class="pr-icon-iso-solid-stroke" stroke-linejoin="round"/>
    <path d="M86.1601 41.8052C86.1601 50.8252 83.4301 60.0452 77.9701 69.4652C72.5101 78.8752 65.8501 85.8552 57.9801 90.3952C50.1201 94.9352 43.4601 95.6452 38.0001 92.5352C37.7001 92.3652 37.4101 92.1852 37.1201 91.9852C36.9501 91.8752 36.7801 91.7552 36.6101 91.6252C36.4901 91.5452 36.3701 91.4552 36.2601 91.3552C36.0701 91.2152 35.8901 91.0752 35.7201 90.9152C35.6501 90.8552 35.5801 90.7952 35.5101 90.7252C35.4101 90.6352 35.3101 90.5552 35.2101 90.4552C35.1101 90.3652 35.0201 90.2752 34.9301 90.1752L34.9101 90.1552C34.9101 90.1552 34.8801 90.1252 34.8701 90.1152C35.9001 89.6252 36.9301 89.0752 37.9801 88.4752C37.9801 88.4752 37.9801 88.4752 37.9801 88.4652L39.9301 89.4452L40.6801 88.6152H40.6901L45.7901 82.9852C45.7901 82.9852 45.8101 82.9652 45.8201 82.9652L58.7601 68.6952C58.7601 68.6952 58.7601 68.6852 58.7601 68.6752C58.7701 68.6752 58.7701 68.6652 58.7701 68.6652L64.8301 61.9852L69.6901 47.3252L76.0001 28.2952L76.6501 26.3452L73.0701 24.5552C73.0101 23.6252 72.9201 22.7152 72.7901 21.8452C73.0201 21.8752 73.2501 21.9152 73.4701 21.9552L73.6501 21.9852C73.7901 22.0152 73.9301 22.0452 74.0701 22.0752C74.0901 22.0852 74.1201 22.0852 74.1401 22.0952C74.3601 22.1352 74.5801 22.1952 74.8001 22.2652C75.0601 22.3352 75.3101 22.4252 75.5601 22.5052C75.5801 22.5152 75.6001 22.5152 75.6201 22.5252C75.6601 22.5352 75.6901 22.5552 75.7201 22.5652C75.7501 22.5752 75.7701 22.5852 75.8001 22.5952C76.0001 22.6652 76.2001 22.7452 76.4001 22.8252H76.4101C76.4101 22.8252 76.4401 22.8452 76.4601 22.8552C76.6101 22.9152 76.7601 22.9852 76.9001 23.0552C77.0201 23.1152 77.1501 23.1652 77.2601 23.2252C77.2701 23.2252 77.2701 23.2352 77.2801 23.2352C77.5101 23.3452 77.7301 23.4652 77.9501 23.5952C83.4101 26.7052 86.1401 32.7752 86.1401 41.8052H86.1601Z" class="pr-icon-iso-solid-stroke" stroke-linejoin="round"/>
    <path d="M75.5204 27.5652L73.1304 30.1252L65.7004 38.1052L53.3304 51.3852L50.8104 54.0852L49.2704 59.0752L43.9904 76.2452L40.7704 86.7452L40.2504 88.4552L39.9404 89.4452L40.6904 88.6152H40.7004L45.8004 82.9852C45.8004 82.9852 45.8204 82.9652 45.8304 82.9652L58.7704 68.6952C58.7704 68.6952 58.7704 68.6852 58.7704 68.6752C58.7804 68.6752 58.7804 68.6652 58.7804 68.6652L64.8404 61.9852L69.7004 47.3252L76.0104 28.2952L76.6604 26.3452L75.5204 27.5652ZM60.4804 59.4952C59.8104 60.6652 58.9704 61.5352 57.9704 62.1052C57.2504 62.5252 56.6004 62.6952 56.0404 62.5952C55.8404 62.5652 55.6404 62.4952 55.4604 62.3952C54.7904 62.0052 54.4504 61.2452 54.4504 60.0952C54.4504 58.9452 54.7904 57.8052 55.4604 56.6352C56.1404 55.4752 56.9804 54.6052 57.9704 54.0252C58.9704 53.4452 59.8104 53.3552 60.4804 53.7352C60.6104 53.8052 60.7204 53.8952 60.8204 53.9952C61.2704 54.4152 61.4904 55.0952 61.4904 56.0352C61.4904 57.1752 61.1604 58.3352 60.4804 59.4952Z" class="pr-icon-iso-solid-stroke" stroke-linejoin="round"/>
    <path d="M61.5009 56.0355C61.5009 57.1755 61.1709 58.3355 60.4909 59.4955C59.8209 60.6655 58.9809 61.5355 57.9809 62.1055C57.2609 62.5255 56.6109 62.6955 56.0509 62.5955C55.8509 62.5655 55.6509 62.4955 55.4709 62.3955C54.8009 62.0055 54.4609 61.2455 54.4609 60.0955C54.4609 58.9455 54.8009 57.8055 55.4709 56.6355C56.1509 55.4755 56.9909 54.6055 57.9809 54.0255C58.9809 53.4455 59.8209 53.3555 60.4909 53.7355C60.6209 53.8055 60.7309 53.8955 60.8309 53.9955C61.2809 54.4155 61.5009 55.0955 61.5009 56.0355Z" class="pr-icon-iso-solid-stroke" stroke-linejoin="round"/>
    <path d="M76.6705 26.3453L75.5305 27.5653L73.1405 30.1253L65.7106 38.1053L53.3405 51.3853L50.8206 54.0853L45.1006 51.2253L40.7406 49.0453L37.5605 47.4553C37.7005 47.1953 37.8505 46.9353 38.0005 46.6753C38.6305 45.5953 39.2705 44.5453 39.9205 43.5353C40.0105 43.4053 40.0906 43.2653 40.1806 43.1353C40.5106 42.6253 40.8505 42.1253 41.2005 41.6353C41.4805 41.2253 41.7706 40.8153 42.0706 40.4153C42.1406 40.3153 42.2105 40.2253 42.2805 40.1253C42.3205 40.0653 42.3505 40.0153 42.3905 39.9753C42.7405 39.4953 43.1006 39.0253 43.4606 38.5653H43.4706C43.7906 38.1553 44.1006 37.7653 44.4306 37.3753C44.5106 37.2753 44.6006 37.1653 44.6906 37.0653C45.0306 36.6553 45.3805 36.2553 45.7305 35.8553C45.7705 35.8053 45.8105 35.7653 45.8605 35.7153C46.1705 35.3653 46.4906 35.0153 46.8206 34.6753C46.9706 34.5053 47.1306 34.3353 47.3006 34.1653C47.7106 33.7453 48.1205 33.3253 48.5305 32.9253C48.8305 32.6353 49.1306 32.3453 49.4406 32.0653C49.8506 31.6853 50.2606 31.3153 50.6806 30.9553C50.9206 30.7453 51.1606 30.5353 51.4106 30.3353C51.6906 30.0953 51.9706 29.8653 52.2606 29.6353C54.0906 28.1853 56.0005 26.8853 57.9805 25.7353C60.4105 24.3353 62.7205 23.2953 64.9205 22.6253C64.9405 22.6253 64.9506 22.6253 64.9706 22.6253C65.2006 22.5553 65.4306 22.4853 65.6606 22.4253C66.1206 22.2953 66.5606 22.1853 67.0106 22.1053C67.1806 22.0653 67.3406 22.0353 67.5106 22.0053C67.6206 21.9853 67.7406 21.9653 67.8506 21.9453L73.0905 24.5653L76.6705 26.3553V26.3453Z" class="pr-icon-iso-solid-stroke" stroke-linejoin="round"/>
</svg>