<svg width="48" height="48" viewBox="0 0 122 123" xmlns="http://www.w3.org/2000/svg" stroke-width="1px"
     stroke-linecap="round" stroke-linejoin="round">
    <path d="M81.85 95.67V107.97L60.41 120.35V108.05L81.85 95.67Z" class="pr-icon-iso-solid-stroke" stroke-linejoin="round"/>
    <path d="M103.29 52.54V64.84L64.73 87.11L61.85 88.77L43.29 99.49L40.41 101.15L38.97 101.98V89.68L103.29 52.54Z" class="pr-icon-iso-solid-stroke" stroke-linejoin="round"/>
    <path d="M119.37 12.5V24.8L86.16 43.98L83.29 45.63L22.89 80.51V68.21L119.37 12.5Z" class="pr-icon-iso-solid-stroke" stroke-linejoin="round"/>
    <path d="M103.29 52.54L38.97 89.68L30.39 85.39L18.97 79.68L20.02 79.07L22.89 80.51L83.29 45.63L86.16 43.98L103.29 52.54Z" class="pr-icon-iso-solid-stroke" stroke-linejoin="round"/>
    <path d="M119.37 12.5L22.89 68.21L14.31 63.92L2.89001 58.21L99.37 2.5L119.37 12.5Z" class="pr-icon-iso-solid-stroke" stroke-linejoin="round"/>
    <path d="M22.89 68.21V80.51L20.02 79.07L2.89001 70.51V58.21L14.31 63.92L22.89 68.21Z" class="pr-icon-iso-solid-stroke" stroke-linejoin="round"/>
    <path d="M38.97 89.6801V101.98L18.97 91.9801V79.6801L30.39 85.3901L38.97 89.6801Z" class="pr-icon-iso-solid-stroke" stroke-linejoin="round"/>
    <path d="M81.8501 95.67L60.41 108.05L51.83 103.76L43.29 99.49L61.8501 88.77L64.73 87.11L81.8501 95.67Z" class="pr-icon-iso-solid-stroke" stroke-linejoin="round"/>
    <path d="M60.41 108.05V120.35L40.41 110.35V101.15L43.29 99.49L51.83 103.76L60.41 108.05Z" class="pr-icon-iso-solid-stroke" stroke-linejoin="round"/>
</svg>