<svg width="48" height="48" viewBox="0 0 102 118" xmlns="http://www.w3.org/2000/svg" stroke-width="1px"
     stroke-linecap="round" stroke-linejoin="round">
    <path d="M84.3604 85.6912C84.3604 86.9412 83.9903 88.2012 83.2603 89.4712C82.5203 90.7412 81.6103 91.6912 80.5203 92.3212L53.6401 107.841C52.5501 108.471 51.6401 108.571 50.9001 108.151C50.1601 107.731 49.8003 106.901 49.8003 105.651C49.8003 104.401 50.1601 103.141 50.9001 101.871C51.6401 100.601 52.5501 99.6512 53.6401 99.0212L80.5203 83.5012C81.5003 82.9312 82.3403 82.8012 83.0303 83.0812L83.2603 83.1912C83.9903 83.6112 84.3604 84.4412 84.3604 85.6912Z" class="pr-icon-iso-solid-stroke" stroke-linejoin="round"/>
    <path d="M45.9604 107.861C45.9604 109.111 45.5906 110.371 44.8506 111.641C44.1206 112.911 43.2006 113.861 42.1106 114.491C41.0306 115.121 40.1106 115.221 39.3806 114.801C38.6406 114.381 38.2705 113.551 38.2705 112.301C38.2705 111.051 38.6406 109.791 39.3806 108.521C40.1106 107.251 41.0306 106.301 42.1106 105.671C43.0906 105.111 43.9306 104.971 44.6306 105.251L44.8506 105.361C45.5906 105.781 45.9604 106.621 45.9604 107.861Z" class="pr-icon-iso-solid-stroke" stroke-linejoin="round"/>
    <path d="M88.2004 70.2513C88.2004 71.5013 87.8306 72.7613 87.1006 74.0313C86.3606 75.3013 85.4506 76.2513 84.3606 76.8813C83.2706 77.5013 82.3606 77.6113 81.6306 77.1913C80.8906 76.7713 80.5205 75.9413 80.5205 74.6913C80.5205 73.4413 80.8906 72.1813 81.6306 70.9113C82.3606 69.6413 83.2706 68.6913 84.3606 68.0613C85.3406 67.4913 86.1806 67.3613 86.8706 67.6413L87.1006 67.7513C87.8306 68.1713 88.2004 69.0013 88.2004 70.2513Z" class="pr-icon-iso-solid-stroke" stroke-linejoin="round"/>
    <path d="M76.6802 76.9014C76.6802 77.8014 76.4904 78.7014 76.1104 79.6114C75.9604 79.9614 75.7903 80.3214 75.5803 80.6814C74.8403 81.9514 73.9303 82.9014 72.8403 83.5314L39.8103 102.601L39.5903 102.731L38.2703 103.491C37.1903 104.111 36.2703 104.221 35.5403 103.801C34.8003 103.381 34.4302 102.541 34.4302 101.301C34.4302 100.931 34.4603 100.571 34.5303 100.201C34.5403 100.131 34.5503 100.061 34.5703 99.9914C34.7303 99.1714 35.0603 98.3514 35.5403 97.5214C35.8103 97.0414 36.1102 96.6114 36.4402 96.2314H36.4502C36.9902 95.5814 37.6003 95.0614 38.2703 94.6714L62.3604 80.7614L69.8003 76.4614L72.8403 74.7114C73.8203 74.1514 74.6603 74.0114 75.3503 74.2914L75.5803 74.4014C76.3103 74.8214 76.6802 75.6614 76.6802 76.9014Z" class="pr-icon-iso-solid-stroke" stroke-linejoin="round"/>
    <path d="M99.7202 34.9514C99.7202 40.4614 98.0402 46.1214 94.6802 51.9114C91.3202 57.7114 87.2402 61.9914 82.4402 64.7614L81.8303 65.1114L70.5303 71.6414L70.3103 71.7714L65.7202 74.4214L64.3403 75.2214L44.0403 86.9414C39.7903 89.3914 35.9901 90.3314 32.6401 89.7314C31.4001 89.5214 30.2203 89.0914 29.1003 88.4514C28.7503 88.2514 28.4204 88.0414 28.1104 87.8114C26.0604 86.3414 24.6203 84.2314 23.7803 81.4914C23.4103 80.2814 23.1603 78.9514 23.0303 77.5014C22.9503 76.6714 22.9102 75.8014 22.9102 74.8914C22.9102 68.8014 24.6702 62.4614 28.1902 55.8714C31.7102 49.2814 36.0702 44.0914 41.2502 40.2914C43.3002 34.9214 46.1001 30.0114 49.6501 25.5814C53.2001 21.1414 57.0903 17.7014 61.3203 15.2614C62.2303 14.7314 63.1302 14.2714 64.0002 13.8814C68.6502 11.7514 72.7603 11.4314 76.3403 12.9214C78.5203 13.8314 80.2703 15.2614 81.5703 17.2314C82.8003 19.0914 83.6403 21.4414 84.0703 24.2714C87.9503 22.4214 91.2803 22.1514 94.0703 23.4814H94.0903C94.4703 23.6614 94.8502 23.8814 95.2102 24.1214C98.2202 26.1314 99.7202 29.7414 99.7202 34.9514Z" class="pr-icon-iso-solid-stroke" stroke-linejoin="round"/>
    <path d="M76.3401 12.9214C72.7601 11.4314 68.65 11.7515 64 13.8815C63.13 14.2715 62.2301 14.7314 61.3201 15.2614C57.0901 17.7014 53.1999 21.1414 49.6499 25.5814C46.0999 30.0114 43.3 34.9214 41.25 40.2914L21.25 30.2914C23.3 24.9214 26.0999 20.0114 29.6499 15.5814C33.1999 11.1414 37.0901 7.70144 41.3201 5.26144C47.0801 1.93144 52.0901 1.15144 56.3401 2.92144C56.8701 3.14144 57.3801 3.40145 57.8601 3.68145L76.3401 12.9214Z" class="pr-icon-iso-solid-stroke" stroke-linejoin="round"/>
    <path d="M41.2502 40.2915C36.0702 44.0915 31.7102 49.2815 28.1902 55.8715C24.6702 62.4615 22.9102 68.8015 22.9102 74.8915C22.9102 75.8015 22.9503 76.6715 23.0303 77.5015C23.1603 78.9515 23.4103 80.2815 23.7803 81.4915C24.6203 84.2315 26.0604 86.3415 28.1104 87.8115L27.9702 87.8915L19.7903 83.7915L10.1802 78.9915L9.10034 78.4515C4.98034 76.1015 2.91016 71.5815 2.91016 64.8915C2.91016 58.8015 4.67019 52.4615 8.19019 45.8715C11.7102 39.2815 16.0702 34.0915 21.2502 30.2915L41.2502 40.2915Z" class="pr-icon-iso-solid-stroke" stroke-linejoin="round"/>
    <path d="M94.6003 23.7412L94.0903 23.4912" class="pr-icon-iso-solid-stroke" stroke-linejoin="round"/>
    <path d="M94.0703 23.4814C91.2803 22.1514 87.9503 22.4215 84.0703 24.2715C83.6403 21.4415 82.8003 19.0914 81.5703 17.2314L94.0703 23.4814Z" class="pr-icon-iso-solid-stroke" stroke-linejoin="round"/>
    <path d="M86.8704 67.6413C86.1804 67.3613 85.3404 67.4913 84.3604 68.0613C83.2704 68.6913 82.3604 69.6413 81.6304 70.9113C80.8904 72.1813 80.5203 73.4413 80.5203 74.6913C80.5203 75.9413 80.8904 76.7713 81.6304 77.1913L70.5303 71.6413L81.8303 65.1113L86.8704 67.6413Z" class="pr-icon-iso-solid-stroke" stroke-linejoin="round"/>
    <path d="M75.3503 74.2915C74.6603 74.0115 73.8203 74.1515 72.8403 74.7115L69.8003 76.4615L62.3604 80.7615L38.2703 94.6715C37.6003 95.0615 36.9902 95.5815 36.4502 96.2215H36.4402C36.1102 96.6115 35.8103 97.0415 35.5403 97.5215C35.0603 98.3515 34.7303 99.1715 34.5703 99.9915C34.5503 100.061 34.5403 100.131 34.5303 100.201C34.4603 100.571 34.4302 100.931 34.4302 101.301C34.4302 102.541 34.8003 103.381 35.5403 103.801L25.8604 98.9615L20.9602 96.5115L15.7603 93.9115L15.5403 93.8015C14.8003 93.3815 14.4302 92.5415 14.4302 91.3015C14.4302 90.0615 14.8003 88.7915 15.5403 87.5215C16.2703 86.2515 17.1903 85.3015 18.2703 84.6715L19.7903 83.7915L27.9702 87.8915L29.1003 88.4515C30.2203 89.0915 31.4001 89.5215 32.6401 89.7315C35.9901 90.3315 39.7903 89.3915 44.0403 86.9415L64.3403 75.2215L65.7202 74.4215L70.3103 71.7715L75.3503 74.2915Z" class="pr-icon-iso-solid-stroke" stroke-linejoin="round"/>
    <path d="M44.6306 105.251C43.9306 104.971 43.0906 105.111 42.1106 105.671C41.0306 106.301 40.1106 107.251 39.3806 108.521C38.6406 109.791 38.2705 111.051 38.2705 112.301C38.2705 113.551 38.6406 114.381 39.3806 114.801L19.6006 104.911L19.3806 104.801C18.6406 104.381 18.2705 103.551 18.2705 102.301C18.2705 101.051 18.6406 99.7912 19.3806 98.5212C19.8406 97.7312 20.3704 97.0612 20.9604 96.5112L25.8606 98.9612L35.5405 103.801C36.2705 104.221 37.1905 104.111 38.2705 103.491L39.5906 102.731L44.6306 105.251Z" class="pr-icon-iso-solid-stroke" stroke-linejoin="round"/>
    <path d="M83.0305 83.0813C82.3405 82.8013 81.5005 82.9313 80.5205 83.5013L53.6404 99.0213C52.5504 99.6513 51.6404 100.601 50.9004 101.871C50.1604 103.141 49.8005 104.401 49.8005 105.651C49.8005 106.901 50.1604 107.731 50.9004 108.151L39.8105 102.601L72.8406 83.5313C73.9306 82.9013 74.8406 81.9513 75.5806 80.6813C75.7906 80.3213 75.9606 79.9613 76.1106 79.6113L83.0305 83.0813Z" class="pr-icon-iso-solid-stroke" stroke-linejoin="round"/>
</svg>