<svg viewBox="0 0 89 111" xmlns="http://www.w3.org/2000/svg" height="24" width="24" stroke-width="1px" stroke-linecap="round" stroke-linejoin="round">
    <path d="M76.5901 14.2656C72.8101 12.4556 68.6802 12.0156 64.1902 12.9656C61.0702 13.6156 57.77 14.9456 54.29 16.9556C49.59 19.6756 45.2001 23.2556 41.1301 27.7056C37.8801 31.2556 34.8402 35.3556 31.9902 40.0156C27.3002 47.6956 24.3201 55.6256 23.0701 63.8056C22.6001 66.8156 22.3701 69.8556 22.3701 72.9356C22.3701 80.5756 25.01 87.3456 30.3 93.2556C31.65 94.7656 33.1801 96.2156 34.8801 97.6156C37.6801 99.9356 40.98 102.116 44.75 104.136L26.9001 95.2456L26.7002 95.1456C19.7202 91.6456 14.26 87.6856 10.3 83.2556C5.01005 77.3456 2.37012 70.5756 2.37012 62.9356C2.37012 51.4856 5.57023 40.5156 11.9902 30.0156C18.4102 19.5156 25.84 11.8356 34.29 6.95558C42.74 2.07558 50.1701 1.18558 56.5901 4.26558L57.1802 4.56558L76.5901 14.2656Z" class="pr-icon-iso-solid-stroke" stroke-linejoin="round"/>
    <path d="M50.3003 69.6355L42.3203 74.2355V65.6455L50.3003 69.6355Z" class="pr-icon-iso-solid-stroke" stroke-linejoin="round"/>
    <path d="M50.3003 57.0354V69.6354L42.3203 65.6454V53.0454L50.3003 57.0354Z" class="pr-icon-iso-solid-stroke" stroke-linejoin="round"/>
    <path d="M66.2595 38.6655V60.4155L58.2795 56.4255V52.4355L46.6797 46.6355L54.2896 36.4155L64.4497 38.3255L66.2595 38.6655Z" class="pr-icon-iso-solid-stroke" stroke-linejoin="round"/>
    <path d="M76.5901 14.2658C72.8101 12.4558 68.6802 12.0158 64.1902 12.9658C61.0702 13.6158 57.77 14.9458 54.29 16.9558C49.59 19.6758 45.2001 23.2558 41.1301 27.7058C37.8801 31.2558 34.8402 35.3558 31.9902 40.0158C27.3002 47.6958 24.3201 55.6258 23.0701 63.8058C22.6001 66.8158 22.3701 69.8558 22.3701 72.9358C22.3701 80.5758 25.01 87.3458 30.3 93.2558C31.65 94.7658 33.1801 96.2158 34.8801 97.6158C37.6801 99.9358 40.98 102.116 44.75 104.136L44.8501 104.186C47.7201 105.726 50.86 107.176 54.29 108.546C65 91.9058 73 77.5758 78.29 65.5558C83.57 53.5358 86.2202 43.7058 86.2202 36.0758C86.2202 24.6258 83.0101 17.3558 76.5901 14.2658ZM66.26 60.4158L58.28 65.0258V52.4358L54.5701 54.5758L50.3 57.0358V69.6358L42.3201 74.2358V52.4858L46.26 47.1958L46.6802 46.6358L54.29 36.4158L64.4502 38.3258L66.26 38.6658V60.4158Z" class="pr-icon-iso-solid-stroke" stroke-linejoin="round"/>
    <path d="M66.2603 60.4158L58.2803 65.0258V56.4258L66.2603 60.4158Z" class="pr-icon-iso-solid-stroke" stroke-linejoin="round"/>
    <path d="M58.2803 52.4357L54.5703 54.5757L50.3003 57.0357L42.3203 53.0457V52.4857L46.2603 47.1957L46.6804 46.6357L58.2803 52.4357Z" class="pr-icon-iso-solid-stroke" stroke-linejoin="round"/>
    <path d="M26.7 95.1458L26.21 94.9058" class="pr-icon-iso-solid-stroke" stroke-linejoin="round"/>
</svg>