<svg viewBox="0 0 99 116" xmlns="http://www.w3.org/2000/svg" height="48" width="48" stroke-width="1px"
     stroke-linecap="round" stroke-linejoin="round">
    <path d="M96.6914 49.0027V70.3627L22.2314 113.353V91.9927L37.1216 83.3927V87.6627L44.5715 83.3627V79.0927L74.3516 61.9027V66.1726L81.8015 61.8727V57.6027L96.6914 49.0027Z" class="pr-icon-iso-solid-stroke" stroke-linejoin="round"/>
    <path d="M78.0715 29.8527V12.7627L76.6914 13.5626L54.7615 26.2227L40.8516 34.2527V51.3427L24.5715 60.7427L22.2314 62.0927V87.7227L33.1616 81.4127L36.6416 79.4027L37.1216 79.1227V70.5826L44.5715 66.2827V74.8226L70.3916 59.9226L73.8716 57.9127L74.3516 57.6327V49.0826L76.6914 47.7327L81.8015 44.7827V53.3326L92.7314 47.0227L96.6914 44.7327V19.1027L78.0715 29.8527ZM70.6316 34.1527L61.8015 39.2427L54.3516 43.5426L48.2915 47.0426V38.5027L62.6914 30.1826L70.6316 25.6027V34.1527Z" class="pr-icon-iso-solid-stroke" stroke-linejoin="round"/>
    <path d="M44.571 66.2827V74.8226L37.1211 71.1027V70.5826L44.571 66.2827Z" class="pr-icon-iso-solid-stroke" stroke-linejoin="round"/>
    <path d="M81.801 57.6027V61.8727L76.6909 59.3226L73.8711 57.9127L74.3511 57.6327V53.8827L76.6909 55.0526L81.801 57.6027Z" class="pr-icon-iso-solid-stroke" stroke-linejoin="round"/>
    <path d="M74.3516 66.1726V61.9027L74.1716 61.8126L70.3916 59.9226L73.8716 57.9127L76.6914 59.3226L81.8015 61.8727L74.3516 66.1726Z" class="pr-icon-iso-solid-stroke" stroke-linejoin="round"/>
    <path d="M74.3511 61.9027L44.571 79.0927L44.4011 79.0027L37.1211 75.3727V71.1027L44.571 74.8226L70.3911 59.9226L74.1711 61.8126L74.3511 61.9027Z" class="pr-icon-iso-solid-stroke" stroke-linejoin="round"/>
    <path d="M44.5715 79.0927V83.3627L40.4316 81.2926L36.6416 79.4027L37.1216 79.1227V75.3727L44.4016 79.0027L44.5715 79.0927Z" class="pr-icon-iso-solid-stroke" stroke-linejoin="round"/>
    <path d="M37.1221 87.6627V83.3927L36.9519 83.3026L33.1621 81.4127L36.6421 79.4027L40.4321 81.2926L44.572 83.3627L37.1221 87.6627Z" class="pr-icon-iso-solid-stroke" stroke-linejoin="round"/>
    <path d="M37.1216 83.3927L22.2314 91.9927L22.0615 91.9027L2.23145 81.9927L6.19141 79.7026L22.2314 87.7227L33.1616 81.4127L36.9514 83.3026L37.1216 83.3927Z" class="pr-icon-iso-solid-stroke" stroke-linejoin="round"/>
    <path d="M22.2314 91.9927V113.353L2.23145 103.353V81.9927L22.0615 91.9027L22.2314 91.9927Z" class="pr-icon-iso-solid-stroke" stroke-linejoin="round"/>
    <path d="M22.2314 62.0927V87.7227L6.19141 79.7026L2.23145 77.7227V52.0927L22.2314 62.0927Z" class="pr-icon-iso-solid-stroke" stroke-linejoin="round"/>
    <path d="M40.8516 51.3427L24.5715 60.7427L22.2314 62.0927L2.23145 52.0927L20.8516 41.3427L40.8516 51.3427Z" class="pr-icon-iso-solid-stroke" stroke-linejoin="round"/>
    <path d="M70.6316 25.6027V34.1527L62.6914 30.1826L70.6316 25.6027Z" class="pr-icon-iso-solid-stroke" stroke-linejoin="round"/>
    <path d="M70.6311 34.1527L61.801 39.2427L54.3511 43.5426L48.291 47.0426V38.5027L62.6909 30.1826L70.6311 34.1527Z" class="pr-icon-iso-solid-stroke" stroke-linejoin="round"/>
    <path d="M40.8516 34.2527V51.3427L20.8516 41.3427V24.2527L28.7815 28.2227L36.7114 32.1826L40.8516 34.2527Z" class="pr-icon-iso-solid-stroke" stroke-linejoin="round"/>
    <path d="M78.0715 29.8527V12.7627L73.9316 10.6926L76.6914 9.10266L96.6914 19.1027L78.0715 29.8527Z" class="pr-icon-iso-solid-stroke" stroke-linejoin="round"/>
    <path d="M81.8015 44.7827V53.3326L76.6914 50.7827L74.3516 49.6127V49.0826L76.6914 47.7327L81.8015 44.7827Z" class="pr-icon-iso-solid-stroke" stroke-linejoin="round"/>
    <path d="M96.6914 49.0027L81.8015 57.6027L76.6914 55.0526L74.3516 53.8827V49.6127L76.6914 50.7827L81.8015 53.3326L92.7314 47.0227L96.6914 49.0027Z" class="pr-icon-iso-solid-stroke" stroke-linejoin="round"/>
    <path d="M78.0715 12.7627L76.6914 13.5626L54.7615 26.2227L40.8516 34.2527L36.7114 32.1826L28.7815 28.2227L20.8516 24.2527L58.0715 2.7627L78.0715 12.7627Z" class="pr-icon-iso-solid-stroke" stroke-linejoin="round"/>
</svg>