<svg width="24" height="24" viewBox="0 0 93 124" xmlns="http://www.w3.org/2000/svg" stroke-width="1px" stroke-linecap="round" stroke-linejoin="round">
    <path d="M30.38 121.91L10.38 111.91L2.77002 107.57L10.59 111.48L10.62 111.5L22.77 117.57L30.38 121.91Z" class="pr-icon-iso-solid-stroke" stroke-linejoin="round"/>
    <path d="M79.3198 18.78V93.65L90.1998 87.37V12.5L79.3198 18.78Z" class="pr-icon-iso-solid-stroke" stroke-linejoin="round"/>
    <path d="M90.1998 12.5L79.3198 18.78L59.3198 8.78L70.1998 2.5L90.1998 12.5Z" class="pr-icon-iso-solid-stroke" stroke-linejoin="round"/>
    <path d="M79.3198 18.78V93.65L59.3198 83.65V71.99L63.0098 65.63L59.3198 63.53V8.78003L79.3198 18.78Z" class="pr-icon-iso-solid-stroke" stroke-linejoin="round"/>
    <path d="M30.38 47.03L29.77 48.08L22.77 60.16L2.77002 50.16L10.38 37.03L30.38 47.03Z" class="pr-icon-iso-solid-stroke" stroke-linejoin="round"/>
    <path d="M47.78 74.42L35.64 68.35L27.78 64.42L2.77002 50.16L22.77 60.16L36.01 67.71L47.78 74.42Z" class="pr-icon-iso-solid-stroke" stroke-linejoin="round"/>
    <path d="M63.01 65.63L59.32 71.99L30.38 121.91L22.77 117.57L47.78 74.42L36.01 67.71L22.77 60.16L29.77 48.08L30.38 47.03L59.32 63.53L63.01 65.63Z" class="pr-icon-iso-solid-stroke" stroke-linejoin="round"/>
    <path d="M47.78 74.42L22.77 117.57L10.62 111.5L10.59 111.48L2.77002 107.57L27.78 64.42L35.64 68.35L47.78 74.42Z" class="pr-icon-iso-solid-stroke" stroke-linejoin="round"/>
</svg>