<svg width="48" height="48" viewBox="0 0 88 123" fill="#229EFF" xmlns="http://www.w3.org/2000/svg" stroke-width="1px" stroke-linecap="round" stroke-linejoin="round"><path d="M58.4746 35.9399V36.09L58.6145 36.01L58.4746 35.9399Z" stroke="white" stroke-linejoin="round"/><path d="M65.4543 24.0499L58.4744 28.08L51.1743 32.29L49.7542 33.11L48.4243 33.88L27.0742 46.21L22.6543 48.76V120.82L85.4543 84.5599V12.5L65.4543 24.0499ZM78.4744 80.59L47.0742 98.72V42.6699L49.7542 41.12L58.4744 36.09V35.9399L58.6143 36.01L65.4543 32.0599L78.4744 24.54V80.59Z" stroke="white" stroke-linejoin="round"/><path d="M69.7546 41.5801V73.6101L65.4548 71.1602L58.4749 67.1801L55.8047 65.6602L58.4749 61.05L65.4548 49.0001L69.7546 41.5801Z" stroke="white" stroke-linejoin="round"/><path d="M69.7542 41.58L65.4543 49L58.4744 61.0499L55.8042 65.66L49.7542 62.64L47.0742 61.2999V42.6699L49.7542 41.12L58.4744 36.09L58.6143 36.01L65.4543 39.4299L69.7542 41.58Z" stroke="white" stroke-linejoin="round"/><path d="M78.4744 80.5898L47.0742 98.7198V77.1698L58.4744 70.5898L78.4744 80.5898Z" stroke="white" stroke-linejoin="round"/><path d="M69.7542 73.6099L65.4543 71.4598L58.4744 67.9698L49.7542 63.6099L47.0742 62.0798V61.2998L49.7542 62.6399L55.8042 65.6599L58.4744 67.1798L65.4543 71.1599L69.7542 73.6099Z" stroke="white" stroke-linejoin="round"/><path d="M78.4746 24.54V80.59L58.4746 70.59V67.97L65.4546 71.46L69.7544 73.61V41.58L65.4546 39.4299L58.6145 36.01L65.4546 32.0599L78.4746 24.54Z" stroke="white" stroke-linejoin="round"/><path d="M58.4746 35.9399V36.09L58.6145 36.01L58.4746 35.9399Z" stroke="white" stroke-linejoin="round"/><path d="M85.4543 12.5L65.4543 24.0499L58.4744 28.08L51.1743 32.29L49.7542 33.11L48.4243 33.88L27.0742 46.21L22.6543 48.76L2.6543 38.76L65.4543 2.5L85.4543 12.5Z" stroke="white" stroke-linejoin="round"/><path d="M22.6543 48.76V120.82L2.6543 110.82V38.76L22.6543 48.76Z" stroke="white" stroke-linejoin="round"/></svg>