<svg width="48" height="48" viewBox="0 0 104 125" xmlns="http://www.w3.org/2000/svg" stroke-width="1px"
     stroke-linecap="round" stroke-linejoin="round">
    <path d="M101.47 37.32V48.65L61.0305 72L56.8005 74.44L47.1904 79.9901V17.7L57.0604 12V62.96L101.47 37.32Z" class="pr-icon-iso-solid-stroke" stroke-linejoin="round"/>
    <path d="M76.8005 79.88V91.2L22.5205 122.54V60.26L27.1904 57.5601L32.3905 54.5601V105.52L76.8005 79.88Z" class="pr-icon-iso-solid-stroke" stroke-linejoin="round"/>
    <path d="M101.471 37.3201L57.0605 62.9601V41.4101L81.4706 27.3201L101.471 37.3201Z" class="pr-icon-iso-solid-stroke" stroke-linejoin="round"/>
    <path d="M57.0604 12L47.1904 17.7L37.0604 12.64L27.1904 7.70001L37.0604 2L57.0604 12Z" class="pr-icon-iso-solid-stroke" stroke-linejoin="round"/>
    <path d="M76.8007 79.88L32.3906 105.52V83.97L42.9606 77.8701L47.1906 79.9901L56.8007 74.44L61.0306 72L76.8007 79.88Z" class="pr-icon-iso-solid-stroke" stroke-linejoin="round"/>
    <path d="M47.1904 17.7V79.99L42.9604 77.87L32.3905 72.59V54.56L27.1904 51.96V7.69995L37.0604 12.64L47.1904 17.7Z" class="pr-icon-iso-solid-stroke" stroke-linejoin="round"/>
    <path d="M32.3905 54.5601L27.1904 57.5601L22.5205 60.26L12.3905 55.2L2.52051 50.26L12.3905 44.5601L27.1904 51.96L32.3905 54.5601Z" class="pr-icon-iso-solid-stroke" stroke-linejoin="round"/>
    <path d="M22.5205 60.26V122.54L2.52051 112.54V50.26L12.3905 55.2L22.5205 60.26Z" class="pr-icon-iso-solid-stroke" stroke-linejoin="round"/>
</svg>