<svg width="48" height="48" viewBox="0 0 92 97" xmlns="http://www.w3.org/2000/svg" stroke-width="1px"
     stroke-linecap="round" stroke-linejoin="round">
    <path d="M89.4102 29.9082C89.4102 26.0182 88.2101 23.3882 85.8101 22.0282L85.1602 21.6982L85.0601 21.6582C82.8201 20.7382 80.1801 21.1582 77.1401 22.9082C73.7501 24.8682 70.8602 27.9082 68.4602 32.0382C66.9502 34.6482 65.9201 37.1982 65.3601 39.7182C65.2301 40.3082 65.1203 40.8982 65.0503 41.4882C64.9303 42.3582 64.8701 43.2182 64.8701 44.0682C64.8701 47.2882 65.6901 49.6482 67.3201 51.1482C67.7401 51.5282 68.1902 51.8482 68.6602 52.0882L68.8401 52.1782C70.2001 52.8182 71.7901 52.9282 73.6301 52.4882V71.1882L78.8901 74.1882L85.9001 62.0982L80.6401 59.0982L85.9001 50.0282L81.5203 47.5282C83.8003 45.2082 85.6802 42.4482 87.1702 39.2382C88.6602 36.0282 89.4102 32.9182 89.4102 29.9082ZM79.6401 36.3982C78.9601 37.5582 78.1301 38.4282 77.1401 38.9982C76.1401 39.5682 75.3101 39.6682 74.6401 39.2882C73.9701 38.8982 73.6301 38.1382 73.6301 36.9982C73.6301 35.8582 73.9701 34.7082 74.6401 33.5482C75.3101 32.3982 76.1401 31.5282 77.1401 30.9582C78.1301 30.3782 78.9601 30.2882 79.6401 30.6682C80.3101 31.0482 80.6401 31.8082 80.6401 32.9482C80.6401 34.0882 80.3101 35.2382 79.6401 36.3982Z" class="pr-icon-iso-solid-stroke" stroke-linejoin="round"/>
    <path d="M80.6399 32.9481C80.6399 34.0881 80.3099 35.2381 79.6399 36.3981C78.9599 37.5581 78.1299 38.4281 77.1399 38.9981C76.1399 39.5681 75.3099 39.6681 74.6399 39.2881C73.9699 38.8981 73.6299 38.1381 73.6299 36.9981C73.6299 35.8581 73.9699 34.7081 74.6399 33.5481C75.3099 32.3981 76.1399 31.5281 77.1399 30.9581C78.1299 30.3781 78.9599 30.2881 79.6399 30.6681C80.3099 31.0481 80.6399 31.8081 80.6399 32.9481Z" class="pr-icon-iso-solid-stroke" stroke-linejoin="round"/>
    <path d="M58.8904 12.0381C58.8004 12.0681 58.7004 12.1081 58.6104 12.1581C59.0504 12.2481 59.4704 12.3781 59.8804 12.5381L58.8904 12.0381Z" class="pr-icon-iso-solid-stroke" stroke-linejoin="round"/>
    <path d="M78.8901 74.1882L66.1001 67.7982V67.4282L73.6301 71.1882L78.8901 74.1882Z" class="pr-icon-iso-solid-stroke" stroke-linejoin="round"/>
    <path d="M53.6301 44.5679L53.3701 44.438" class="pr-icon-iso-solid-stroke" stroke-linejoin="round"/>
    <path d="M57.8601 46.708C56.6901 47.178 55.5201 47.708 54.3501 48.278C54.1101 48.398 53.8701 48.518 53.6301 48.638C52.7101 49.118 51.7801 49.618 50.8501 50.158C49.7401 50.798 48.6501 51.468 47.5601 52.188C47.0701 52.498 46.5901 52.828 46.1001 53.168C43.8601 54.698 41.6502 56.408 39.4602 58.288C35.7202 61.488 32.0402 65.168 28.4202 69.338C28.2202 69.568 28.0301 69.808 27.8401 70.048C26.4101 71.858 25.2401 73.858 24.3401 76.068C23.3201 78.568 22.8101 80.958 22.8101 83.238V94.498L2.81006 84.498V73.238C2.81006 70.958 3.32009 68.568 4.34009 66.068C5.36009 63.568 6.72017 61.328 8.42017 59.338C12.0402 55.168 15.7202 51.488 19.4602 48.288C22.6402 45.568 25.8501 43.198 29.1201 41.198L39.5901 46.438L40.9502 47.118C43.6902 48.688 46.9901 48.3581 50.8501 46.1281C51.7101 45.6281 52.5501 45.078 53.3501 44.458L53.6301 44.598L57.8601 46.708Z" class="pr-icon-iso-solid-stroke" stroke-linejoin="round"/>
    <path d="M73.6299 52.4882V71.1882L66.0999 67.4282V61.4581L61.78 59.2982H61.77C61.77 59.2982 61.75 59.2781 61.74 59.2681C60.95 58.5581 60.27 57.6881 59.7 56.6581C58.24 54.0481 57.6299 50.7281 57.8599 46.7081L53.6299 44.5981V44.5681L61.0999 48.3082L68.6599 52.0881L68.8398 52.1782C70.1998 52.8182 71.7899 52.9282 73.6299 52.4882Z" class="pr-icon-iso-solid-stroke" stroke-linejoin="round"/>
    <path d="M66.1001 61.4581C64.8201 61.1881 63.6802 60.7081 62.6902 60.0281C62.3702 59.8081 62.0703 59.5681 61.7803 59.2981L66.1001 61.4581Z" class="pr-icon-iso-solid-stroke" stroke-linejoin="round"/>
    <path d="M85.0598 21.658C82.8198 20.738 80.1799 21.158 77.1399 22.908C73.7499 24.868 70.86 27.908 68.46 32.038C66.95 34.648 65.9199 37.198 65.3599 39.718C65.2299 40.308 65.12 40.898 65.05 41.488C64.93 42.358 64.8699 43.218 64.8699 44.068C64.8699 47.288 65.6898 49.648 67.3198 51.148C67.7398 51.528 68.1899 51.848 68.6599 52.088L61.0999 48.308L53.6299 44.568V44.238C56.3099 42.098 58.69 39.248 60.75 35.688C63.5 30.948 64.8699 26.368 64.8699 21.948C64.8699 17.528 63.5 14.528 60.75 12.968C60.5 12.828 60.25 12.698 59.99 12.588L59.8799 12.538L58.8899 12.038C61.5399 10.908 63.8398 10.898 65.8098 12.038L85.0598 21.668V21.658Z" class="pr-icon-iso-solid-stroke" stroke-linejoin="round"/>
    <path d="M64.8701 21.948C64.8701 26.368 63.5002 30.9481 60.7502 35.6881C58.6902 39.2481 56.3101 42.0981 53.6301 44.2381C53.5401 44.2981 53.4601 44.3681 53.3701 44.4381L53.3501 44.458C52.5501 45.078 51.7101 45.6281 50.8501 46.1281C46.9901 48.3581 43.6902 48.6881 40.9502 47.1181C40.3202 46.7581 39.7503 46.3181 39.2603 45.7981C37.6403 44.0781 36.8301 41.528 36.8301 38.138C36.8301 37.798 36.8401 37.4581 36.8601 37.1181C36.9801 34.3581 37.6401 31.528 38.8401 28.648C39.4201 27.248 40.1202 25.828 40.9502 24.398C41.5602 23.348 42.1901 22.3581 42.8601 21.4281C45.1801 18.1781 47.8501 15.688 50.8501 13.958C53.7501 12.278 56.3401 11.678 58.6101 12.158C59.0501 12.248 59.4701 12.3781 59.8801 12.5381L59.9902 12.588L60.7502 12.968C63.5002 14.528 64.8701 17.528 64.8701 21.948Z" class="pr-icon-iso-solid-stroke" stroke-linejoin="round"/>
    <path d="M58.8901 12.0381C58.8001 12.0681 58.7001 12.1081 58.6101 12.1581C56.3401 11.6781 53.7501 12.2781 50.8501 13.9581C47.8501 15.6881 45.1801 18.1781 42.8601 21.4281C42.1901 22.3581 41.5602 23.3481 40.9502 24.3981C40.1202 25.8281 39.4201 27.2481 38.8401 28.6481C37.6401 31.5281 36.9801 34.3581 36.8601 37.1181C36.8401 37.4581 36.8301 37.7981 36.8301 38.1381C36.8301 41.5281 37.6403 44.0781 39.2603 45.7881C39.3603 46.0181 39.4701 46.2281 39.5901 46.4381L29.1201 41.1981L21.8201 37.5481L20.9502 37.1181C18.2002 35.5581 16.8301 32.5581 16.8301 28.1381C16.8301 23.7181 18.2002 19.1381 20.9502 14.3981C23.6902 9.6581 26.9901 6.1781 30.8501 3.9581C34.7001 1.7281 38.0102 1.39811 40.7502 2.96811L58.8901 12.0381Z" class="pr-icon-iso-solid-stroke" stroke-linejoin="round"/>
    <path d="M66.1001 61.458V69.508L22.8101 94.498V83.238C22.8101 80.958 23.3201 78.568 24.3401 76.068C25.2401 73.858 26.4101 71.858 27.8401 70.048C28.0301 69.808 28.2202 69.568 28.4202 69.338C32.0402 65.168 35.7202 61.488 39.4602 58.288C41.6502 56.408 43.8601 54.698 46.1001 53.168C46.5901 52.828 47.0701 52.498 47.5601 52.188C48.6501 51.468 49.7401 50.798 50.8501 50.158C51.7801 49.618 52.7101 49.118 53.6301 48.638C53.8701 48.518 54.1101 48.398 54.3501 48.278C55.5201 47.708 56.6901 47.178 57.8601 46.708C57.6301 50.728 58.2402 54.048 59.7002 56.658C60.2702 57.688 60.9502 58.558 61.7402 59.268C61.7502 59.278 61.7603 59.288 61.7703 59.288H61.7803C62.0703 59.568 62.3702 59.808 62.6902 60.028C63.6802 60.708 64.8201 61.188 66.1001 61.458Z" class="pr-icon-iso-solid-stroke" stroke-linejoin="round"/>
</svg>