<svg width="48" height="48" viewBox="0 0 114 99" fill="#229EFF" xmlns="http://www.w3.org/2000/svg" stroke-width="1px" stroke-linecap="round" stroke-linejoin="round"><path d="M77.6307 31.36V64.35L70.4407 68.5V54.76L60.8607 60.29V74.03L53.6807 78.18V45.2L57.6307 42.92L60.2407 41.41L60.8607 41.05V52.04L67.2107 48.37L70.4407 46.51V35.51L77.6307 31.36Z" stroke="white" stroke-linejoin="round"/><path d="M91.2209 23.51L91.171 23.54L87.2109 25.83V58.82L94.4009 54.67V43.67L111.171 33.99V12L91.2209 23.51ZM103.981 29.89L94.4009 35.43V29.93L98.881 27.34L103.981 24.4V29.89Z" stroke="white" stroke-linejoin="round"/><path d="M103.98 29.89L94.4004 35.43V29.93L98.8804 27.34L103.98 29.89Z" stroke="white" stroke-linejoin="round"/><path d="M103.981 24.4V29.89L98.8809 27.34L103.981 24.4Z" stroke="white" stroke-linejoin="round"/><path d="M77.6304 31.36L70.4404 35.51L67.2104 33.9L57.6304 29.11L50.4404 25.51L57.6304 21.36L67.2104 26.15L77.6304 31.36Z" stroke="white" stroke-linejoin="round"/><path d="M70.4404 46.51L67.2104 48.37L60.8604 52.04V41.72L67.2104 44.9L70.4404 46.51Z" stroke="white" stroke-linejoin="round"/><path d="M87.2099 25.83V58.82L77.63 54.03V31.36L67.21 26.15V15.83L74.8699 19.66L79.97 22.21L87.2099 25.83Z" stroke="white" stroke-linejoin="round"/><path d="M22.5303 63.18V96.16L2.53027 86.16V53.18L10.1803 57L15.2903 59.56L22.5303 63.18Z" stroke="white" stroke-linejoin="round"/><path d="M46.4903 49.34L40.8603 52.59L33.6803 56.74L26.5403 60.86L26.4903 60.84V60.89L22.5303 63.18L15.2903 59.56L10.1803 57L2.53027 53.18L26.4903 39.34L33.6803 42.94L44.3603 48.27L46.4903 49.34Z" stroke="white" stroke-linejoin="round"/><path d="M70.4404 35.51V46.51L67.2104 44.9L60.8604 41.72V41.05L57.6304 39.44L50.4404 35.84V25.51L57.6304 29.11L67.2104 33.9L70.4404 35.51Z" stroke="white" stroke-linejoin="round"/><path d="M53.6807 45.2V78.18L43.4807 73.08L46.4907 71.34V49.34L44.3607 48.27L33.6807 42.94V35.2L53.6807 45.2Z" stroke="white" stroke-linejoin="round"/><path d="M60.8607 41.05L60.2407 41.41L57.6307 42.92L53.6807 45.2L33.6807 35.2L40.8607 31.05L50.4407 35.84L57.6307 39.44L60.8607 41.05Z" stroke="white" stroke-linejoin="round"/><path d="M70.4404 54.76V68.5L60.8604 63.71V60.29L70.4404 54.76Z" stroke="white" stroke-linejoin="round"/><path d="M40.8603 52.59L33.6803 56.74L26.5403 60.86L26.4903 60.89L22.5303 63.18V96.16L29.7203 92.01V81.02L43.4803 73.08L46.4903 71.34V49.34L40.8603 52.59ZM39.3003 67.24L35.8203 69.25L29.7203 72.77V67.27L33.6803 64.98L34.1903 64.69L39.3003 61.74V67.24Z" stroke="white" stroke-linejoin="round"/><path d="M39.3004 61.74V67.24L37.1604 66.17L34.1904 64.69L39.3004 61.74Z" stroke="white" stroke-linejoin="round"/><path d="M39.3007 67.24L35.8207 69.25L29.7207 72.77V67.27L33.6807 64.98L34.1907 64.69L37.1607 66.17L39.3007 67.24Z" stroke="white" stroke-linejoin="round"/><path d="M111.17 12L91.22 23.51L91.17 23.49V23.54L87.2099 25.83L79.97 22.21L74.8699 19.66L67.21 15.83L91.17 2L111.17 12Z" stroke="white" stroke-linejoin="round"/></svg>