<svg viewBox="0 0 79 124" fill="#229EFF" xmlns="http://www.w3.org/2000/svg" height="48" width="48" stroke-width="1px" stroke-linecap="round" stroke-linejoin="round"><path d="M76.6903 81.0088V89.9688L22.0703 121.499V112.549L76.6903 81.0088Z" stroke="white" stroke-linejoin="round"/><path d="M22.0703 112.549V121.499L2.07031 111.499V102.549L10.3803 106.699L22.0703 112.549Z" stroke="white" stroke-linejoin="round"/><path d="M69.0803 13.8388C68.8503 13.6988 68.6103 13.5688 68.3703 13.4388L68.3103 13.4088C64.7703 11.5788 60.5403 11.5388 55.6203 13.2688C53.6503 13.9588 51.5703 14.9388 49.3803 16.1988C44.0303 19.2888 39.3303 23.3288 35.3003 28.3088C33.2503 30.8288 31.3803 33.5888 29.6803 36.5888C27.6503 40.1688 26.0203 43.7788 24.8103 47.4188C22.9803 52.8688 22.0703 58.3888 22.0703 63.9788C22.0703 70.9888 24.3303 76.8488 28.8503 81.5488C29.0503 81.7588 29.2603 81.9688 29.4703 82.1688C30.4403 83.1188 31.5203 84.0188 32.6903 84.8688C34.0603 85.8688 35.5503 86.7988 37.1803 87.6588C38.2503 88.2288 39.3703 88.7688 40.5603 89.2788C43.2103 90.4288 46.1503 91.4288 49.3803 92.2988C54.0803 85.6088 58.1603 79.3388 61.6403 73.4788C64.9503 67.8988 67.7103 62.6788 69.9103 57.8388C74.4303 47.9188 76.6903 39.4588 76.6903 32.4388C76.6903 23.1188 74.1503 16.9188 69.0803 13.8388ZM54.8903 50.6788C53.3603 53.3188 51.5303 55.2488 49.3803 56.4888C47.7603 57.4288 46.3203 57.7588 45.0503 57.4788C44.6403 57.3988 44.2403 57.2488 43.8703 57.0388C42.3403 56.1688 41.5803 54.5088 41.5803 52.0388C41.5803 49.5688 42.3403 47.0288 43.8703 44.3988C45.4003 41.7588 47.2403 39.8188 49.3803 38.5888C51.1003 37.5988 52.6103 37.2788 53.9303 37.6288C54.2603 37.7188 54.5803 37.8488 54.8903 38.0288C56.4203 38.9088 57.1803 40.5688 57.1803 43.0288C57.1803 45.4888 56.4203 48.0388 54.8903 50.6788Z" stroke="white" stroke-linejoin="round"/><path d="M57.1801 43.0288C57.1801 45.4988 56.4201 48.0388 54.8901 50.6788C53.3601 53.3188 51.5301 55.2488 49.3801 56.4888C47.7601 57.4288 46.3201 57.7588 45.0501 57.4788C44.6401 57.3988 44.2401 57.2488 43.8701 57.0388C42.3401 56.1688 41.5801 54.5088 41.5801 52.0388C41.5801 49.5688 42.3401 47.0288 43.8701 44.3988C45.4001 41.7588 47.2401 39.8188 49.3801 38.5888C51.1001 37.5988 52.6101 37.2788 53.9301 37.6288C54.2601 37.7188 54.5801 37.8488 54.8901 38.0288C56.4201 38.9088 57.1801 40.5688 57.1801 43.0288Z" stroke="white" stroke-linejoin="round"/><path d="M68.3103 13.4087C64.7703 11.5787 60.5403 11.5387 55.6203 13.2687C53.6503 13.9587 51.5703 14.9387 49.3803 16.1987C44.0303 19.2887 39.3303 23.3287 35.3003 28.3087C33.2503 30.8287 31.3803 33.5887 29.6803 36.5887C27.6503 40.1687 26.0203 43.7787 24.8103 47.4187C22.9803 52.8687 22.0703 58.3887 22.0703 63.9787C22.0703 70.9887 24.3303 76.8487 28.8503 81.5487C29.0503 81.7587 29.2603 81.9687 29.4703 82.1687C30.4403 83.1187 31.5203 84.0187 32.6903 84.8687C34.0603 85.8687 35.5503 86.7987 37.1803 87.6587L32.1803 85.1587L18.7003 78.4287L17.3703 77.7587C13.9503 75.9687 11.1103 73.8987 8.85031 71.5487C4.33031 66.8487 2.07031 60.9887 2.07031 53.9787C2.07031 44.6487 4.61031 35.5187 9.68031 26.5887C14.7503 17.6487 21.3203 10.8587 29.3803 6.19867C36.8003 1.91867 42.9503 0.908669 47.8303 3.17867L48.4803 3.49867L68.3103 13.4087Z" stroke="white" stroke-linejoin="round"/><path d="M17.3703 77.7588L17.2803 77.7188" stroke="white" stroke-linejoin="round"/><path d="M76.6903 81.0085L22.0703 112.549L10.3803 106.699L2.07031 102.549L32.1803 85.1585L37.1803 87.6585C38.2503 88.2285 39.3703 88.7685 40.5603 89.2785C43.2103 90.4285 46.1503 91.4285 49.3803 92.2985C54.0803 85.6085 58.1603 79.3385 61.6403 73.4785L76.6903 81.0085Z" stroke="white" stroke-linejoin="round"/></svg>