<svg width="48" height="48" viewBox="0 0 85 107" fill="#229EFF" xmlns="http://www.w3.org/2000/svg" stroke-width="1px" stroke-linecap="round" stroke-linejoin="round"><path d="M82.5498 12.0798V38.5598C82.5498 43.1098 82.0298 47.8398 80.9898 52.7498C79.9498 57.6498 78.4498 62.6199 76.4998 67.6599L65.3398 61.2999C66.0298 59.5199 66.5498 57.7899 66.8998 56.1099C67.2498 54.4299 67.4198 52.7898 67.4198 51.1998C67.4198 46.4198 65.9398 43.1898 62.9798 41.4998C62.4598 41.2098 61.9298 40.9699 61.3798 40.7999C58.7598 39.9999 55.7298 40.5898 52.2898 42.5698C50.7298 43.4698 49.2498 44.5598 47.8598 45.8398C47.4698 46.2098 47.0798 46.5799 46.6998 46.9799C44.8398 48.8999 43.1398 51.1898 41.5998 53.8398C39.8298 56.8898 38.5898 59.8898 37.8798 62.8198C37.7498 63.3698 37.6298 63.9098 37.5398 64.4498C37.2898 65.8698 37.1598 67.2799 37.1598 68.6699C37.1598 73.4399 38.6398 76.6699 41.5998 78.3599C42.5898 78.9299 43.6498 79.2599 44.7798 79.3599C47.0098 79.5899 49.5198 78.8999 52.2898 77.2899C53.6098 76.5299 54.9198 75.5799 56.2098 74.4299C57.5098 73.2899 58.7198 71.9899 59.8598 70.5399L72.0498 77.3898C69.4098 82.4598 66.4298 87.2199 63.1198 91.6599C59.8098 96.0999 56.1998 99.9998 52.2898 103.34C45.9698 105.16 40.4398 104.83 35.6998 102.37L35.6298 102.33C35.2398 102.13 34.8498 101.9 34.4698 101.67C33.1098 100.82 31.8098 99.7898 30.5898 98.5598C29.3198 97.2898 28.1898 95.8899 27.2198 94.3599C23.7498 88.9999 22.0298 82.0498 22.0298 73.4998V47.0198L38.4498 30.4698L52.2898 16.5298L62.5498 15.0198L82.5498 12.0798Z" stroke="white" stroke-linejoin="round"/><path d="M57.1596 50.4899C55.7796 49.9199 54.1596 50.1698 52.2896 51.2498C51.3096 51.8198 50.3996 52.5298 49.5496 53.3998L49.3596 53.5898C48.4896 54.5198 47.6796 55.6198 46.9496 56.8898C45.7296 58.9798 45.0096 61.0298 44.7996 63.0098C44.7796 63.1098 44.7696 63.1999 44.7696 63.2999C44.7296 63.6399 44.7196 63.9699 44.7196 64.2999C44.7196 66.6899 45.4696 68.2998 46.9496 69.1498L37.5396 64.4498C37.6296 63.9098 37.7496 63.3698 37.8796 62.8198C38.5896 59.8898 39.8295 56.8898 41.5995 53.8398C43.1395 51.1898 44.8396 48.8999 46.6996 46.9799C47.0796 46.5799 47.4696 46.2098 47.8596 45.8398L57.1596 50.4899Z" stroke="white" stroke-linejoin="round"/><path d="M52.2898 16.5298L38.4498 30.4698L22.0298 47.0198L20.3498 46.1798L2.02979 37.0198L32.2898 6.52979L52.2898 16.5298Z" stroke="white" stroke-linejoin="round"/><path d="M82.5498 12.0798L62.5498 15.0198L52.2898 16.5298L32.2898 6.52985L62.5498 2.07983L82.5498 12.0798Z" stroke="white" stroke-linejoin="round"/><path d="M35.6298 102.33L17.3498 93.1198C16.1298 92.6298 14.9498 92.0098 13.8298 91.2498H13.8098C12.6898 90.4798 11.6098 89.5898 10.5898 88.5598C4.87978 82.8498 2.02979 74.4898 2.02979 63.4998V37.0198L20.3498 46.1798L22.0298 47.0198V73.4998C22.0298 82.0498 23.7498 88.9998 27.2198 94.3598C28.1898 95.8898 29.3198 97.2898 30.5898 98.5598C31.8098 99.7898 33.1098 100.82 34.4698 101.67C34.8498 101.9 35.2398 102.13 35.6298 102.33Z" stroke="white" stroke-linejoin="round"/><path d="M59.8597 70.5397C58.7197 71.9897 57.5097 73.2897 56.2097 74.4297C54.9197 75.5797 53.6097 76.5297 52.2897 77.2897C49.5197 78.8997 47.0097 79.5897 44.7797 79.3597C43.6497 79.2597 42.5897 78.9297 41.5997 78.3597C38.6397 76.6697 37.1597 73.4397 37.1597 68.6697C37.1597 67.2797 37.2897 65.8697 37.5397 64.4497L46.9497 69.1497C48.1297 69.8197 49.5097 69.8397 51.0797 69.2097C51.4697 69.0497 51.8797 68.8497 52.2897 68.6097C52.8297 68.2997 53.3497 67.9397 53.8497 67.5297L59.8597 70.5397Z" stroke="white" stroke-linejoin="round"/><path d="M59.8597 55.5698C59.8597 56.4898 59.7497 57.4298 59.5097 58.3898C59.4697 58.6098 59.4097 58.8498 59.3297 59.0798C58.9697 60.3498 58.3997 61.6499 57.6297 62.9799C56.5397 64.8699 55.2797 66.3799 53.8497 67.5299C53.3497 67.9399 52.8297 68.2999 52.2897 68.6099C51.8797 68.8499 51.4697 69.0498 51.0797 69.2098C49.5097 69.8398 48.1297 69.8198 46.9497 69.1498C45.4697 68.2998 44.7197 66.6899 44.7197 64.2999C44.7197 63.9699 44.7297 63.6399 44.7697 63.2999C44.7697 63.1999 44.7697 63.1098 44.7997 63.0098C45.0097 61.0298 45.7297 58.9798 46.9497 56.8898C47.6797 55.6198 48.4897 54.5199 49.3597 53.5899L49.5497 53.3998C50.3997 52.5298 51.3097 51.8198 52.2897 51.2498C54.1597 50.1698 55.7797 49.9199 57.1597 50.4899L57.6297 50.7199C58.0297 50.9399 58.3697 51.2198 58.6497 51.5598C59.4597 52.4798 59.8597 53.8198 59.8597 55.5698Z" stroke="white" stroke-linejoin="round"/><path d="M67.4199 51.1999C67.4199 52.7899 67.2499 54.4299 66.8999 56.1099C66.5499 57.7899 66.0299 59.5199 65.3399 61.2999L59.5099 58.3899C59.7499 57.4299 59.8599 56.4899 59.8599 55.5699C59.8599 53.8199 59.4599 52.4799 58.6499 51.5599C58.3699 51.2199 58.0299 50.9399 57.6299 50.7199L57.1599 50.4899L47.8599 45.8399C49.2499 44.5599 50.7299 43.4699 52.2899 42.5699C55.7299 40.5899 58.7599 39.9999 61.3799 40.7999C61.9299 40.9699 62.4599 41.2099 62.9799 41.4999C65.9399 43.1899 67.4199 46.4199 67.4199 51.1999Z" stroke="white" stroke-linejoin="round"/><path d="M76.4996 67.6599L59.3296 59.0799C59.4096 58.8499 59.4696 58.6099 59.5096 58.3899L65.3396 61.2999L76.4996 67.6599Z" stroke="white" stroke-linejoin="round"/></svg>