<svg width="48" height="48" viewBox="0 0 103 125" fill="#229EFF" xmlns="http://www.w3.org/2000/svg" stroke-width="1px" stroke-linecap="round" stroke-linejoin="round"><path d="M100.119 71.6523L95.0194 80.4524L77.8994 70.6924L76.7894 71.3324L63.5194 78.9923L55.7094 83.5023L41.4594 91.7224L30.6894 85.5824L22.6694 81.0223L22.1494 80.7224L27.2594 71.9224L32.8794 75.1323L40.1694 79.2823L44.3794 81.6824L55.0394 75.5323L55.7694 75.1123L69.3894 67.2423L79.5994 61.3524L80.8094 60.6523L100.119 71.6523Z" stroke="white" stroke-linejoin="round"/><path d="M75.7093 88.6726V105.403L46.5693 122.233V105.503C46.5693 103.693 47.0093 101.823 47.9093 99.9126C48.1393 99.4026 48.4093 98.8826 48.7093 98.3626C50.1293 95.9026 51.8493 94.0926 53.8493 92.9326L55.7093 91.8626L68.4293 84.5226C70.2193 83.4826 71.7793 83.2426 73.1193 83.7926L73.5693 84.0126C74.9993 84.8226 75.7093 86.3826 75.7093 88.6726Z" stroke="white" stroke-linejoin="round"/><path d="M97.3895 17.3125C97.2695 15.8525 97.0694 14.6925 96.7994 13.8425C96.5294 12.9925 96.1795 12.4425 95.7495 12.2025L95.5594 12.1124C95.0894 11.9324 94.3994 11.9724 93.5194 12.2324C92.5194 12.5324 91.2594 13.0525 89.7394 13.7925C85.5194 16.0125 81.0194 19.1825 76.2294 23.2925C76.1894 23.3225 76.1594 23.3524 76.1194 23.3824C71.3494 27.4724 68.1695 30.8825 66.5695 33.5825C66.5495 33.6125 66.5295 33.6525 66.5095 33.6825C66.2495 34.1425 66.0094 34.6125 65.8094 35.0925C65.5394 35.7025 65.3195 36.3324 65.1495 36.9824C64.8395 38.1324 64.6895 39.2924 64.6895 40.4824C64.6895 41.6724 64.8195 42.7824 65.0995 43.8724C65.4095 45.2024 65.9295 46.4825 66.6495 47.7125C67.9595 49.9525 69.7294 51.7525 71.9794 53.1025C72.2194 53.2525 72.4695 53.3924 72.7195 53.5224L73.0894 53.7025C75.0194 54.6525 77.0795 55.1224 79.2595 55.1124C81.8795 55.1024 84.3295 54.4325 86.6395 53.1025C87.6695 52.5025 88.6595 51.7425 89.5995 50.8125C90.5395 49.8925 91.3194 48.9025 91.9294 47.8525C93.5594 45.0325 94.9594 40.3925 96.1194 33.9425C97.2694 27.4925 97.6895 21.9525 97.3895 17.3125ZM81.8595 45.6725C80.1295 45.5925 78.5395 45.1325 77.0795 44.3025C75.7395 43.5425 74.6195 42.4125 73.7095 40.9225C73.0395 39.8225 72.5794 38.7125 72.3394 37.5925C72.3094 37.4725 72.2895 37.3425 72.2695 37.2225C72.2195 36.9425 72.1795 36.6624 72.1595 36.3824C72.3695 36.2524 72.5995 36.1425 72.8295 36.0425C73.8995 35.5725 75.1595 35.3825 76.5795 35.4525C78.3095 35.5325 79.9294 36.0024 81.4494 36.8624C83.0294 37.7024 84.2994 38.8625 85.2794 40.3525C86.2494 41.8525 86.6995 43.3124 86.6395 44.7424C85.1895 45.4424 83.5895 45.7525 81.8595 45.6725ZM90.0995 26.2324C90.0395 27.6524 89.9495 29.0325 89.8295 30.3525C89.3395 29.8725 88.8395 29.4325 88.3295 29.0325C87.8095 28.6325 87.2495 28.2625 86.6395 27.9125C86.0995 27.6025 85.4994 27.3125 84.8694 27.0525C84.2294 26.8025 83.5795 26.5825 82.9095 26.4125C84.1195 25.5725 85.3495 24.7425 86.5995 23.9125C87.8395 23.0925 89.0695 22.3624 90.2895 21.7324C90.2295 23.3024 90.1595 24.8024 90.0995 26.2324Z" stroke="white" stroke-linejoin="round"/><path d="M90.2892 21.7324C90.2292 23.3024 90.1592 24.8024 90.0992 26.2324C90.0392 27.6524 89.9492 29.0325 89.8292 30.3525C89.3392 29.8725 88.8392 29.4325 88.3292 29.0325C87.8092 28.6325 87.2492 28.2625 86.6392 27.9125C86.0992 27.6025 85.4992 27.3125 84.8692 27.0525C84.2292 26.8025 83.5792 26.5825 82.9092 26.4125C84.1192 25.5725 85.3492 24.7425 86.5992 23.9125C87.8392 23.0925 89.0692 22.3624 90.2892 21.7324Z" stroke="white" stroke-linejoin="round"/><path d="M86.6389 44.7427C85.1889 45.4427 83.5889 45.7527 81.8589 45.6727C80.1289 45.5927 78.5389 45.1327 77.0789 44.3027C75.7389 43.5427 74.6189 42.4127 73.7089 40.9227C73.0389 39.8227 72.5789 38.7128 72.3389 37.5928L86.6389 44.7427Z" stroke="white" stroke-linejoin="round"/><path d="M86.6392 44.7425L72.3392 37.5926C72.3092 37.4726 72.2892 37.3426 72.2692 37.2226C72.2192 36.9426 72.1792 36.6625 72.1592 36.3825C72.3692 36.2525 72.5992 36.1425 72.8292 36.0425C73.8992 35.5725 75.1592 35.3826 76.5792 35.4526C78.3092 35.5326 79.9292 36.0025 81.4492 36.8625C83.0292 37.7025 84.2992 38.8626 85.2792 40.3526C86.2492 41.8526 86.6992 43.3125 86.6392 44.7425Z" stroke="white" stroke-linejoin="round"/><path d="M80.8092 60.6523L79.5993 61.3524L69.3893 67.2423L55.7693 75.1123L55.0393 75.5323L44.3793 81.6824L40.1693 79.2823L32.8793 75.1323L27.2593 71.9224L25.4893 71.0424L60.8092 50.6523L80.8092 60.6523Z" stroke="white" stroke-linejoin="round"/><path d="M95.019 80.453L76.7891 71.333" stroke="white" stroke-linejoin="round"/><path d="M41.4594 91.7227L21.4594 81.7227L2.14941 70.7227L22.1494 80.7227L22.6694 81.0226L30.6894 85.5826L41.4594 91.7227Z" stroke="white" stroke-linejoin="round"/><path d="M27.2594 71.9229L22.1494 80.7229L2.14941 70.7229L7.25941 61.9229L25.4894 71.0428L27.2594 71.9229Z" stroke="white" stroke-linejoin="round"/><path d="M73.1193 83.7922C71.7793 83.2422 70.2193 83.4822 68.4293 84.5222L55.7093 91.8622L53.8493 92.9323C51.8493 94.0923 50.1293 95.9022 48.7093 98.3622C48.4093 98.8822 48.1393 99.4022 47.9093 99.9122C47.0093 101.822 46.5693 103.692 46.5693 105.502V122.232L26.5693 112.232V95.5022C26.5693 93.2022 27.2793 90.8222 28.7093 88.3622C29.1793 87.5422 29.6893 86.7922 30.2393 86.1122L41.4593 91.7223L55.7093 83.5022L63.5193 78.9922L73.1193 83.7922Z" stroke="white" stroke-linejoin="round"/><path d="M95.5594 12.1127C95.0894 11.9327 94.3994 11.9727 93.5194 12.2327C92.5194 12.5327 91.2594 13.0528 89.7394 13.7928C85.5194 16.0128 81.0194 19.1828 76.2294 23.2928C76.1894 23.3228 76.1594 23.3527 76.1194 23.3827C71.3494 27.4727 68.1695 30.8828 66.5695 33.5828C66.5495 33.6128 66.5295 33.6528 66.5095 33.6828C66.2495 34.1428 66.0094 34.6128 65.8094 35.0928C65.5394 35.7028 65.3195 36.3327 65.1495 36.9827C64.8395 38.1327 64.6895 39.2927 64.6895 40.4827C64.6895 41.6727 64.8195 42.7827 65.0995 43.8727C65.4095 45.2027 65.9295 46.4828 66.6495 47.7128C67.9595 49.9528 69.7294 51.7528 71.9794 53.1028C72.2194 53.2528 72.4695 53.3927 72.7195 53.5227L53.9095 44.0728C53.2495 43.8028 52.6094 43.4828 51.9794 43.1028C49.7294 41.7528 47.9595 39.9528 46.6495 37.7128C45.3395 35.4728 44.6895 33.0627 44.6895 30.4827C44.6895 29.2927 44.8395 28.1327 45.1495 26.9827C45.4495 25.8327 45.9095 24.7328 46.5095 23.6828C48.0895 20.9628 51.2894 17.5227 56.1194 13.3827C60.9494 9.23273 65.4895 6.03277 69.7395 3.79277C71.2595 3.05277 72.5195 2.53271 73.5195 2.23271C74.5195 1.93271 75.2695 1.9228 75.7495 2.2028L95.5594 12.1127Z" stroke="white" stroke-linejoin="round"/></svg>