<svg width="24" height="24" viewBox="0 0 100 111" xmlns="http://www.w3.org/2000/svg" stroke-width="1px" stroke-linecap="round" stroke-linejoin="round">
    <path d="M54.1802 34.2301L52.8301 33.5601C53.2901 33.7501 53.7402 33.9801 54.1802 34.2301Z" class="pr-icon-iso-solid-stroke" stroke-linejoin="round"/>
    <path d="M97.7 12.2401V21.89C97.7 27.04 96.8399 32.4801 95.1299 38.2201C93.4099 43.9601 90.9698 49.5401 87.8198 54.9901C84.6698 60.4301 81.0399 65.2901 76.9399 69.5901C72.8399 73.8901 68.5498 77.33 64.0598 79.92V104.05L55.6499 108.91V70.42C51.6399 72.73 47.7798 74.18 44.0598 74.76C43.6098 74.83 43.16 74.8901 42.72 74.9301C40.18 75.1901 37.8199 75.0301 35.6499 74.4401C34.3799 74.1101 33.18 73.63 32.04 73C31.95 72.96 31.87 72.9101 31.78 72.8601C28.68 71.0901 26.2799 68.36 24.6099 64.67C24.5799 64.61 24.56 64.56 24.53 64.5C22.85 60.73 22 56.2701 22 51.1201V41.4701L30.4199 36.6101C34.1499 34.4501 37.7898 33.0601 41.3198 32.4301C41.9598 32.3101 42.6 32.22 43.24 32.16C44.02 32.08 44.79 32.04 45.53 32.05C48.19 32.05 50.6198 32.5501 52.8298 33.5601L54.1799 34.2301C56.3499 35.4701 58.1498 37.1701 59.5898 39.3101C61.0298 41.4601 62.1299 44.0001 62.8999 46.9301C63.2499 46.1701 63.6398 45.4 64.0598 44.63C64.4798 43.87 64.9399 43.0601 65.4299 42.2201C68.1799 37.4601 71.3198 33.1201 74.8198 29.1901H74.8298C75.3298 28.6201 75.8399 28.07 76.3599 27.52C80.4999 23.16 84.81 19.6901 89.29 17.1001L97.7 12.2401Z" class="pr-icon-iso-solid-stroke" stroke-linejoin="round"/>
    <path d="M55.6504 70.42V108.91L35.6504 98.91V74.4401C37.8204 75.0301 40.1805 75.1901 42.7205 74.9301C43.1605 74.8901 43.6103 74.83 44.0603 74.76C47.7803 74.18 51.6404 72.73 55.6504 70.42Z" class="pr-icon-iso-solid-stroke" stroke-linejoin="round"/>
    <path d="M97.6995 12.2401L89.2896 17.1001C84.8096 19.6901 80.4994 23.16 76.3594 27.52C75.8394 28.07 75.3293 28.6201 74.8293 29.1801H74.8193C71.3193 33.1201 68.1794 37.4601 65.4294 42.2201C64.9394 43.0601 64.4793 43.87 64.0593 44.63C63.6393 45.4 63.2494 46.1701 62.8994 46.9301C62.1294 44.0001 61.0294 41.4601 59.5894 39.3101C58.1494 37.1701 56.3494 35.4701 54.1794 34.2301C53.7394 33.9801 53.2893 33.7501 52.8293 33.5601L46.5195 30.4C49.4095 25.68 52.6994 21.39 56.3594 17.52C60.4994 13.16 64.8096 9.6901 69.2896 7.1001L77.6995 2.24011L97.6995 12.2401Z" class="pr-icon-iso-solid-stroke" stroke-linejoin="round"/>
    <path d="M54.1802 34.2301L52.8301 33.5601C53.2901 33.7501 53.7402 33.9801 54.1802 34.2301Z" class="pr-icon-iso-solid-stroke" stroke-linejoin="round"/>
    <path d="M32.04 73L12.95 63.4601C12.55 63.2801 12.16 63.0801 11.78 62.8601C8.63003 61.0601 6.21003 58.28 4.53003 54.5C2.85003 50.73 2 46.2701 2 41.1201V31.4701L22 41.4701V51.1201C22 56.2701 22.85 60.73 24.53 64.5C24.56 64.56 24.5799 64.61 24.6099 64.67C26.2799 68.36 28.68 71.0901 31.78 72.8601C31.87 72.9101 31.95 72.96 32.04 73Z" class="pr-icon-iso-solid-stroke" stroke-linejoin="round"/>
    <path d="M52.8298 33.56C50.6198 32.55 48.19 32.05 45.53 32.05C44.79 32.04 44.02 32.08 43.24 32.16C42.6 32.22 41.9598 32.31 41.3198 32.43C37.7898 33.06 34.1499 34.4501 30.4199 36.6101L22 41.4701L2 31.4701L10.4199 26.6101C14.8299 24.0601 19.11 22.58 23.24 22.16C27.38 21.75 31.0199 22.4401 34.1799 24.2301L46.52 30.4L52.8298 33.56Z" class="pr-icon-iso-solid-stroke" stroke-linejoin="round"/>
</svg>