<svg width="48" height="48" viewBox="0 0 110 97" fill="#229EFF" xmlns="http://www.w3.org/2000/svg" stroke-width="1px" stroke-linecap="round" stroke-linejoin="round"><path d="M107.801 56.667L101.141 64.387L95.8809 55.3669L102.641 47.5869L107.801 56.667Z" stroke="white" stroke-linejoin="round"/><path d="M99.0803 42.5375C99.0803 43.5075 98.8504 44.4874 98.3904 45.4674C98.2804 45.7174 98.1502 45.9774 98.0002 46.2274C97.2802 47.4674 96.3803 48.3975 95.3203 49.0175C94.2603 49.6275 93.3704 49.7274 92.6504 49.3174C91.9304 48.9074 91.5703 48.0975 91.5703 46.8775C91.5703 45.6575 91.9304 44.4174 92.6504 43.1774C92.7404 43.0274 92.8302 42.8674 92.9302 42.7274C93.6002 41.7074 94.3903 40.9275 95.3203 40.3975C96.3803 39.7875 97.2802 39.6774 98.0002 40.0874C98.7202 40.4974 99.0803 41.3175 99.0803 42.5375Z" stroke="white" stroke-linejoin="round"/><path d="M94.6604 34.0972L92.0603 37.1172L88.9402 40.7372L88.0002 41.8271L86.7202 39.6272L82.4702 32.3271V32.3171L75.2402 19.8972L81.9902 12.1172L94.6604 34.0972Z" stroke="white" stroke-linejoin="round"/><path d="M89.1306 67.3469L82.3706 75.2269L62.1006 40.407L68.8606 32.627L71.5906 37.2969L72.8105 39.397L76.1306 45.0769L76.4705 45.657V45.667L81.3906 54.0969L81.7505 54.6969V54.7069L89.1306 67.3469Z" stroke="white" stroke-linejoin="round"/><path d="M71.8606 75.477C71.8606 76.707 71.5005 77.9369 70.7805 79.1769C70.0605 80.4169 69.1706 81.347 68.1006 81.957C67.0406 82.567 66.1504 82.677 65.4304 82.267C64.7104 81.857 64.3506 81.0369 64.3506 79.8169C64.3506 78.5969 64.7104 77.367 65.4304 76.127C66.1504 74.887 67.0406 73.957 68.1006 73.337C69.0606 72.787 69.8805 72.6569 70.5605 72.9269L70.7805 73.037C71.5005 73.447 71.8606 74.257 71.8606 75.477Z" stroke="white" stroke-linejoin="round"/><path d="M66.5103 67.5874L64.5103 69.9075L59.8503 75.3074L53.4902 64.3975V64.3875L39.5703 40.4874L44.6304 34.7474L46.3303 32.8174L64.0203 63.2974L66.2703 67.1774L66.5103 67.5874Z" stroke="white" stroke-linejoin="round"/><path d="M88.0002 41.8274L83.8804 39.7675L81.7002 38.6774L77.7102 36.6874L72.2502 33.9574L68.0002 31.8274L66.0603 28.4974C66.1703 28.0074 66.2302 27.5175 66.2302 27.0375C66.2302 25.8175 65.8704 25.0074 65.1504 24.5974L64.9302 24.4874L63.2402 23.6475L55.2402 9.89746L71.0203 17.7875L75.2402 19.8975L82.4702 32.3174L86.7202 39.6274L88.0002 41.8274Z" stroke="white" stroke-linejoin="round"/><path d="M68.8596 32.6272L62.0996 40.4072L58.0596 38.3872L42.0996 30.4072L45.3997 26.6172L53.5796 30.7072L59.7996 33.8171C60.5196 34.2271 61.4095 34.1272 62.4695 33.5172C63.5295 32.9072 64.4196 31.9972 65.1296 30.7672L68.8596 32.6272Z" stroke="white" stroke-linejoin="round"/><path d="M66.2297 27.0377C66.2297 27.5177 66.1698 28.0076 66.0598 28.4976C65.8898 29.2376 65.5799 29.9876 65.1499 30.7376C65.1399 30.7476 65.1399 30.7576 65.1299 30.7676C64.4199 31.9976 63.5297 32.9076 62.4697 33.5176C61.4097 34.1276 60.5198 34.2276 59.7998 33.8176C59.0798 33.4076 58.7197 32.5976 58.7197 31.3776C58.7197 30.2676 59.0199 29.1376 59.6199 28.0076C59.6799 27.9076 59.7398 27.7976 59.7998 27.6876C60.5198 26.4376 61.4097 25.5177 62.4697 24.8977C62.9097 24.6577 63.3097 24.4877 63.6897 24.4177C64.1397 24.3077 64.5597 24.3376 64.9297 24.4876L65.1499 24.5976C65.8699 25.0076 66.2297 25.8177 66.2297 27.0377Z" stroke="white" stroke-linejoin="round"/><path d="M48.5803 94.7378L28.5803 84.7378L19.5703 69.2578L35.1604 77.0577L39.5703 79.2578L48.5803 94.7378Z" stroke="white" stroke-linejoin="round"/><path d="M46.3303 71.4778L45.5803 72.3378L39.5703 79.2578L35.1604 77.0577L19.5703 69.2578L22.2502 66.1777L31.9202 71.0078L36.3403 73.2178C37.0603 73.6278 37.9503 73.5178 39.0103 72.9078C40.0703 72.2978 40.9702 71.3678 41.6902 70.1278C41.8402 69.8678 41.9703 69.6178 42.0903 69.3578L44.4004 70.5178L46.3303 71.4778Z" stroke="white" stroke-linejoin="round"/><path d="M42.7698 66.4372C42.7698 66.5472 42.7698 66.6473 42.7598 66.7573C42.7198 67.6173 42.4898 68.4873 42.0898 69.3573C41.9698 69.6173 41.8397 69.8673 41.6897 70.1273C40.9697 71.3673 40.0698 72.2973 39.0098 72.9073C37.9498 73.5173 37.0598 73.6273 36.3398 73.2173C35.6198 72.8073 35.2598 71.9873 35.2598 70.7673C35.2598 69.5473 35.6198 68.3172 36.3398 67.0772C36.4298 66.9272 36.5199 66.7673 36.6199 66.6273C37.2899 65.6073 38.0798 64.8272 39.0098 64.2972C39.0698 64.2572 39.1397 64.2272 39.1997 64.1972C39.9397 63.7972 40.5999 63.6573 41.1599 63.7873C41.2699 63.8073 41.3697 63.8373 41.4697 63.8773L41.6897 63.9873C42.4097 64.3973 42.7698 65.2072 42.7698 66.4372Z" stroke="white" stroke-linejoin="round"/><path d="M38.3499 57.9972L36.6997 59.9072L35.7498 61.0172L32.6299 64.6272L31.6897 65.7172L30.4099 63.5172L26.1599 56.2172L22.6797 50.2472L27.7397 44.5072L29.4397 42.5771L38.3499 57.9972Z" stroke="white" stroke-linejoin="round"/><path d="M29.4397 42.5771L27.7397 44.5072L22.6797 50.2472L2.67969 40.2472L9.4397 32.5771L25.4497 40.5771V40.5872L29.4397 42.5771Z" stroke="white" stroke-linejoin="round"/><path d="M81.9902 12.1172L75.2402 19.8972L71.0203 17.7872L55.2402 9.89722L61.9902 2.11719L81.9902 12.1172Z" stroke="white" stroke-linejoin="round"/><path d="M98.0002 40.087C97.2802 39.677 96.3803 39.7871 95.3203 40.3971C94.3903 40.9271 93.6002 41.7071 92.9302 42.7271C92.8302 42.8671 92.7404 43.027 92.6504 43.177C91.9304 44.417 91.5703 45.6471 91.5703 46.8771C91.5703 48.1071 91.9304 48.907 92.6504 49.317L87.6604 46.827L78.5703 42.2771L72.8704 39.427L72.8103 39.3971L71.5903 37.297C71.5803 37.167 71.5703 37.0271 71.5703 36.8771C71.5703 35.9071 71.7902 34.937 72.2502 33.957L77.7102 36.687L81.7002 38.677L83.8804 39.7671L88.0002 41.827L88.9402 40.7371L92.0603 37.1171L98.0002 40.087Z" stroke="white" stroke-linejoin="round"/><path d="M102.64 47.5873L95.8799 55.3673L84.9897 49.9272L76.4697 45.6674L76.1299 45.0773L78.5698 42.2773L87.6599 46.8273L92.6499 49.3173C93.3699 49.7273 94.2598 49.6273 95.3198 49.0173C96.3798 48.3973 97.2798 47.4673 97.9998 46.2273C98.1498 45.9773 98.2799 45.7173 98.3899 45.4673L102.64 47.5873Z" stroke="white" stroke-linejoin="round"/><path d="M81.7498 54.7069L81.3899 54.0969L76.4697 45.667L84.9897 49.9269L95.8799 55.3669L101.14 64.387C100.62 64.457 85.0498 56.4069 81.7498 54.7069Z" stroke="white" stroke-linejoin="round"/><path d="M64.9297 24.4868C64.5597 24.3368 64.1397 24.3069 63.6897 24.4169C63.3097 24.4869 62.9097 24.6568 62.4697 24.8968C61.4097 25.5168 60.5198 26.4368 59.7998 27.6868C59.7398 27.7968 59.6799 27.9068 59.6199 28.0068C59.0199 29.1368 58.7197 30.2668 58.7197 31.3768C58.7197 32.5968 59.0798 33.4068 59.7998 33.8168L53.5798 30.7068L45.3999 26.6168L40.0198 23.9268L39.7998 23.8168C39.0798 23.4068 38.7197 22.5968 38.7197 21.3768C38.7197 20.1568 39.0798 18.9268 39.7998 17.6868C40.5198 16.4368 41.4097 15.5168 42.4697 14.8968C43.5397 14.2868 44.4299 14.1868 45.1499 14.5968L63.2397 23.6368L64.9297 24.4868Z" stroke="white" stroke-linejoin="round"/><path d="M82.3696 75.2272L66.2695 67.1771L64.0195 63.2971L46.3296 32.8171L42.3396 30.8271V30.8171L42.0996 30.4072L58.0596 38.3872L62.0996 40.4072L82.3696 75.2272Z" stroke="white" stroke-linejoin="round"/><path d="M46.3303 32.8174L44.6304 34.7474L39.5703 40.4874L35.3704 38.3875L19.5703 30.4874L26.3303 22.8174L42.3403 30.8174V30.8274L46.3303 32.8174Z" stroke="white" stroke-linejoin="round"/><path d="M55.3403 86.8475L48.5803 94.7375L39.5703 79.2576L45.5803 72.3375L46.3303 71.4775L46.9004 72.4475L47.3604 73.2275V73.2375L55.3403 86.8475Z" stroke="white" stroke-linejoin="round"/><path d="M59.8503 75.3073L49.9602 70.3573L44.7002 67.7273L42.7603 66.7573C42.7703 66.6473 42.7703 66.5473 42.7703 66.4373C42.7703 65.2073 42.4102 64.3973 41.6902 63.9873L41.4702 63.8773L41.2002 63.7473L38.0103 62.1473L36.7002 59.9073L38.3503 57.9973L29.4402 42.5773L25.4502 40.5873L19.5703 30.4873L35.3704 38.3873L39.5703 40.4873L53.4902 64.3873L59.8503 75.3073Z" stroke="white" stroke-linejoin="round"/><path d="M70.5596 72.9275C69.8796 72.6575 69.0596 72.7875 68.0996 73.3375C67.0396 73.9575 66.1494 74.8876 65.4294 76.1276C64.7094 77.3676 64.3496 78.5975 64.3496 79.8175C64.3496 81.0375 64.7094 81.8576 65.4294 82.2676L47.3596 73.2375L46.8997 72.4475L46.3296 71.4775L44.3997 70.5176C44.3697 70.3076 44.3496 70.0675 44.3496 69.8175C44.3496 69.1275 44.4695 68.4275 44.6995 67.7275L49.9595 70.3575L59.8496 75.3075L64.5095 69.9076L70.5596 72.9275Z" stroke="white" stroke-linejoin="round"/><path d="M41.1997 63.7477L41.1599 63.7877C40.5999 63.6577 39.9397 63.7976 39.1997 64.1976C39.1397 64.2276 39.0698 64.2576 39.0098 64.2976C38.0798 64.8276 37.2899 65.6077 36.6199 66.6277C36.5199 66.7677 36.4298 66.9276 36.3398 67.0776C35.6198 68.3176 35.2598 69.5477 35.2598 70.7677C35.2598 71.9877 35.6198 72.8077 36.3398 73.2177L31.9197 71.0077L22.2498 66.1776L16.5598 63.3276L16.3398 63.2177C15.6198 62.8077 15.2598 61.9877 15.2598 60.7677C15.2598 59.7977 15.4897 58.8277 15.9497 57.8477L21.4099 60.5776L25.3899 62.5676L27.6199 63.6876L31.6897 65.7177L32.6299 64.6277L35.7498 61.0177L38.0098 62.1477L41.1997 63.7477Z" stroke="white" stroke-linejoin="round"/><path d="M31.6897 65.717L27.6199 63.687L25.3899 62.567L21.4099 60.577L15.9497 57.847L11.6897 55.717L2.67969 40.2471L22.6797 50.2471L26.1599 56.217L30.4099 63.5171L31.6897 65.717Z" stroke="white" stroke-linejoin="round"/></svg>