<svg width="48" height="48" viewBox="0 0 83 116" fill="#229EFF" xmlns="http://www.w3.org/2000/svg" stroke-width="1px" stroke-linecap="round" stroke-linejoin="round"><path d="M80.9744 42.3597V49.8098L74.4844 53.5598V46.1097L80.9744 42.3597Z" stroke="white" stroke-linejoin="round"/><path d="M80.9744 57.2598V64.7098L74.4844 68.4598V61.0098L80.9744 57.2598Z" stroke="white" stroke-linejoin="round"/><path d="M80.9744 72.1598V79.6198L74.4844 83.3698V75.9098L80.9744 72.1598Z" stroke="white" stroke-linejoin="round"/><path d="M29.0244 57.4498V64.8998L22.5244 68.6498V61.1998L29.0244 57.4498Z" stroke="white" stroke-linejoin="round"/><path d="M29.0244 72.3497V79.7998L22.5244 83.5498V76.0997L29.0244 72.3497Z" stroke="white" stroke-linejoin="round"/><path d="M80.9741 12.5498V34.8998L74.4841 38.6498V23.7498L61.4941 31.2498V23.7998L80.9741 12.5498Z" stroke="white" stroke-linejoin="round"/><path d="M54.4844 27.7498V27.8497L54.5844 27.7898L54.4844 27.7498Z" stroke="white" stroke-linejoin="round"/><path d="M80.9744 42.3597L74.4844 46.1097L60.9744 39.3597L54.4844 36.1097L60.9744 32.3597L80.9744 42.3597Z" stroke="white" stroke-linejoin="round"/><path d="M80.9744 57.2598L74.4844 61.0098L60.9744 54.2598L54.4844 51.0098L60.9744 47.2598L80.9744 57.2598Z" stroke="white" stroke-linejoin="round"/><path d="M80.9744 72.1598L74.4844 75.9098L60.9744 69.1598L54.4844 65.9098L60.9744 62.1598L80.9744 72.1598Z" stroke="white" stroke-linejoin="round"/><path d="M67.9841 79.6598L67.5542 79.9098L61.4941 83.4098L47.9841 76.6598L41.4941 73.4098L47.9841 69.6598L54.4841 72.9098L54.9142 73.1198L67.9841 79.6598Z" stroke="white" stroke-linejoin="round"/><path d="M55.0039 87.1598L54.5739 87.4098L48.5039 90.9098L28.5039 80.9098L35.0039 77.1598L41.4939 80.4098L41.924 80.6198L55.0039 87.1598Z" stroke="white" stroke-linejoin="round"/><path d="M22.5244 76.0997V83.5498L2.52441 73.5498V66.0997L22.5244 76.0997Z" stroke="white" stroke-linejoin="round"/><path d="M29.0244 72.3497L22.5244 76.0997L2.52441 66.0997L9.02441 62.3497L29.0244 72.3497Z" stroke="white" stroke-linejoin="round"/><path d="M22.5244 61.1998V68.6498L2.52441 58.6498V51.1998L22.5244 61.1998Z" stroke="white" stroke-linejoin="round"/><path d="M29.0244 57.4498L22.5244 61.1998L2.52441 51.1998L9.02441 47.4498L29.0244 57.4498Z" stroke="white" stroke-linejoin="round"/><path d="M22.5244 46.2898V53.7498L2.52441 43.7498V36.2898L22.5244 46.2898Z" stroke="white" stroke-linejoin="round"/><path d="M35.5146 38.7898V46.2498L29.0247 43.0098V42.5398L15.9447 35.9998L15.5146 35.7898V28.7898L35.5146 38.7898Z" stroke="white" stroke-linejoin="round"/><path d="M42.0146 35.0398L41.5846 35.2898L35.5146 38.7898L15.5146 28.7898L22.0146 25.0398L28.5046 28.2898L28.9347 28.4998L42.0146 35.0398Z" stroke="white" stroke-linejoin="round"/><path d="M48.5039 31.2998V38.7498L42.0139 35.5098V35.0398L28.934 28.4998L28.5039 28.2898V21.2998L48.5039 31.2998Z" stroke="white" stroke-linejoin="round"/><path d="M74.4839 23.7498V38.6498L55.0039 28.9098V28.0098L55.3239 28.1598L61.4939 31.2498L74.4839 23.7498Z" stroke="white" stroke-linejoin="round"/><path d="M55.0039 27.5498L54.5839 27.7898L54.4839 27.7498V27.8497L48.5039 31.2998L28.5039 21.2998L35.0039 17.5498L41.4939 20.7998L41.9139 21.0098L54.4839 27.2898L55.0039 27.5498Z" stroke="white" stroke-linejoin="round"/><path d="M61.4941 23.7998V31.2498L55.3241 28.1598L55.0042 28.0098V27.5498L54.4841 27.2898L41.9142 21.0098L41.4941 20.7998V13.7998L48.4142 17.2598L54.4841 20.2998L60.9741 23.5398L61.4941 23.7998Z" stroke="white" stroke-linejoin="round"/><path d="M80.9741 12.5498L61.4941 23.7998L60.9741 23.5398L54.4841 20.2998L48.4142 17.2598L41.4941 13.7998L60.9741 2.5498L80.9741 12.5498Z" stroke="white" stroke-linejoin="round"/><path d="M55.0039 27.5498V34.9998L48.5039 38.7498V31.2998L54.4839 27.8497L54.5839 27.7898L55.0039 27.5498Z" stroke="white" stroke-linejoin="round"/><path d="M74.4844 46.1097V53.5598L54.4844 43.5598V36.1097L60.9744 39.3597L74.4844 46.1097Z" stroke="white" stroke-linejoin="round"/><path d="M42.0146 35.0398V42.4998L35.5146 46.2498V38.7898L41.5846 35.2898L42.0146 35.0398Z" stroke="white" stroke-linejoin="round"/><path d="M29.0244 42.5398L28.5944 42.7898L22.5244 46.2898L2.52441 36.2898L9.02441 32.5398L15.5144 35.7898L15.9445 35.9998L29.0244 42.5398Z" stroke="white" stroke-linejoin="round"/><path d="M29.0244 42.5398V49.9998L22.5244 53.7498V46.2898L28.5944 42.7898L29.0244 42.5398Z" stroke="white" stroke-linejoin="round"/><path d="M22.5244 91.0098V113.36L2.52441 103.36V81.0098L9.02441 84.2598L16.3544 87.9298L22.0144 90.7598L22.5244 91.0098Z" stroke="white" stroke-linejoin="round"/><path d="M29.0244 87.2598L28.5044 87.5598L28.1844 87.7397L22.5244 91.0098L22.0144 90.7598L16.3544 87.9298L9.02441 84.2598L2.52441 81.0098L9.02441 77.2598L29.0244 87.2598Z" stroke="white" stroke-linejoin="round"/><path d="M42.0144 94.6598L41.5944 94.8998L29.0244 102.16V88.1698L42.0144 94.6598Z" stroke="white" stroke-linejoin="round"/><path d="M42.0144 94.6598V102.11L22.5244 113.36V91.0098L28.1844 87.7397L28.5044 87.5598L29.0244 87.2598V102.16L41.5944 94.8998L42.0144 94.6598Z" stroke="white" stroke-linejoin="round"/><path d="M48.5039 90.9098V98.3597L42.0139 95.1198V94.6598L29.0239 88.1698V87.2598L28.5039 86.9998V80.9098L48.5039 90.9098Z" stroke="white" stroke-linejoin="round"/><path d="M55.0039 87.1598V94.6097L48.5039 98.3597V90.9098L54.5739 87.4098L55.0039 87.1598Z" stroke="white" stroke-linejoin="round"/><path d="M61.4941 83.4098V90.8698L55.0042 87.6298V87.1598L41.9242 80.6198L41.4941 80.4098V73.4098L47.9841 76.6598L61.4941 83.4098Z" stroke="white" stroke-linejoin="round"/><path d="M67.9841 79.6598V87.1198L61.4941 90.8698V83.4098L67.5542 79.9098L67.9841 79.6598Z" stroke="white" stroke-linejoin="round"/><path d="M74.4844 75.9098V83.3698L67.9844 80.1198V79.6598L54.9144 73.1198L54.4844 72.9098V65.9098L60.9744 69.1598L74.4844 75.9098Z" stroke="white" stroke-linejoin="round"/><path d="M74.4844 61.0098V68.4598L54.4844 58.4598V51.0098L60.9744 54.2598L74.4844 61.0098Z" stroke="white" stroke-linejoin="round"/></svg>