<svg width="24" height="24" viewBox="0 0 95 127" xmlns="http://www.w3.org/2000/svg" stroke-width="1px" stroke-linecap="round" stroke-linejoin="round">
    <path d="M86.9202 51.0441L86.0101 50.5941C82.6001 49.0841 78.5601 49.6841 73.8801 52.3841C73.3501 52.6941 72.8202 53.0241 72.3002 53.3641C68.2802 56.0441 64.7501 59.7941 61.7301 64.6341C61.6601 64.7341 61.6002 64.8341 61.5402 64.9441C61.3002 65.3241 61.0702 65.7141 60.8402 66.1041C60.1902 67.2241 59.6002 68.3441 59.0702 69.4541C56.7402 74.3141 55.5302 79.0641 55.4602 83.7041C55.4502 83.8641 55.4502 84.0141 55.4502 84.1741C55.4502 90.0241 57.2502 93.9741 60.8402 96.0241C64.4302 98.0741 68.7801 97.6341 73.8801 94.6841C78.9801 91.7441 83.3302 87.1741 86.9202 80.9741C90.5102 74.7741 92.3102 68.7441 92.3102 62.8941C92.3102 57.0441 90.5102 53.0941 86.9202 51.0441ZM80.0502 80.0141L72.0402 75.4441V61.9141L75.7202 59.7841V71.6241L82.6301 75.5641L80.0502 80.0141Z" class="pr-icon-iso-solid-stroke" stroke-linejoin="round"/>
    <path d="M82.631 75.5642L80.051 80.0142L72.041 75.4442V69.7842L75.7211 71.6242L82.631 75.5642Z" class="pr-icon-iso-solid-stroke" stroke-linejoin="round"/>
    <path d="M75.7211 59.7842V71.6242L72.041 69.7842V61.9142L75.7211 59.7842Z" class="pr-icon-iso-solid-stroke" stroke-linejoin="round"/>
    <path d="M50.1906 23.7639L42.8206 28.0139L37.3506 31.1739L33.6006 33.3439L22.2705 39.8839V124.484L55.8206 105.114C54.2206 104.414 52.8705 103.294 51.7605 101.744C50.6605 100.194 49.8005 98.3639 49.1805 96.2539L42.5505 100.084V91.6239L41.3306 92.3339L35.1805 95.8839V87.4239L39.3805 84.9939L42.5505 83.1639V74.7039L44.4205 73.6239L49.9205 70.4539V76.3739C50.8805 72.9939 52.1805 69.6839 53.8105 66.4539C54.2505 65.5639 54.7206 64.6739 55.2206 63.7939C55.5706 63.1739 55.9305 62.5639 56.3005 61.9539C56.3005 61.9439 56.3006 61.9339 56.3206 61.9239C58.2306 58.7939 60.3906 55.8739 62.8206 53.1539C63.9406 51.9539 65.0906 50.7839 66.3206 49.6139C67.5506 48.4439 68.8406 47.3639 70.1906 46.3739V12.2139L50.1906 23.7639ZM62.8206 50.3139L55.7206 54.4139L52.0405 56.5339L36.7805 65.3439L32.6405 67.7339L29.6505 69.4639V44.0839L42.8206 36.4839L45.2006 35.1039L50.1906 32.2239L62.8206 24.9339V50.3139Z" class="pr-icon-iso-solid-stroke" stroke-linejoin="round"/>
    <path d="M53.6104 42.9437C53.6104 43.8037 53.5104 44.6737 53.3104 45.5537C52.9704 47.0637 52.3504 48.5937 51.4404 50.1637C50.0004 52.6537 48.2603 54.4937 46.2303 55.6637C44.2103 56.8337 42.4704 57.0037 41.0304 56.1837C40.9704 56.1537 40.9204 56.1137 40.8604 56.0637C39.5204 55.2237 38.8604 53.6937 38.8604 51.4537C38.8604 49.9637 39.1604 48.4237 39.7604 46.8637C40.0904 45.9937 40.5104 45.1237 41.0304 44.2337C41.5804 43.2737 42.1804 42.4237 42.8204 41.6637C43.0004 41.4437 43.1804 41.2437 43.3704 41.0437C43.4704 40.9337 43.5704 40.8337 43.6704 40.7337C44.4604 39.9337 45.3203 39.2737 46.2303 38.7437C46.9403 38.3337 47.6204 38.0437 48.2704 37.8737C49.2604 37.6237 50.1704 37.6637 50.9904 38.0037L51.4404 38.2237C52.8004 38.9937 53.5205 40.4337 53.6005 42.5537C53.6105 42.6837 53.6104 42.8137 53.6104 42.9437Z" class="pr-icon-iso-solid-stroke" stroke-linejoin="round"/>
    <path d="M44.4209 73.6231L49.9209 76.3731V70.4531L44.4209 73.6231Z" class="pr-icon-iso-solid-stroke" stroke-linejoin="round"/>
    <path d="M62.8204 50.3137L55.7205 54.4137L52.0404 56.5337L36.7804 65.3437L32.6404 67.7337L29.6504 69.4637V50.5037L35.4504 53.4037L40.8405 56.1037C40.8405 56.1037 40.8604 56.0737 40.8604 56.0637C40.9204 56.1137 40.9704 56.1537 41.0304 56.1837C42.4704 57.0037 44.2103 56.8337 46.2303 55.6637C48.2603 54.4937 50.0004 52.6537 51.4404 50.1637C52.3504 48.5937 52.9704 47.0637 53.3104 45.5537L62.8204 50.3137Z" class="pr-icon-iso-solid-stroke" stroke-linejoin="round"/>
    <path d="M62.8202 24.9336V50.3136L53.3102 45.5536C53.5102 44.6736 53.6101 43.8036 53.6101 42.9436C53.6101 42.8136 53.6102 42.6836 53.6002 42.5536C53.5202 40.4336 52.8002 38.9936 51.4402 38.2236L50.9901 38.0036L49.2202 37.1136L45.2002 35.1036L50.1902 32.2236L62.8202 24.9336Z" class="pr-icon-iso-solid-stroke" stroke-linejoin="round"/>
    <path d="M22.2705 39.8838V124.484L2.27051 114.484V29.8838L10.1205 33.8138L19.2705 38.3838L22.2705 39.8838Z" class="pr-icon-iso-solid-stroke" stroke-linejoin="round"/>
    <path d="M70.1906 12.2139L50.1906 23.7639L42.8206 28.0139L37.3506 31.1739L33.6006 33.3439L22.2705 39.8839L19.2705 38.3839L10.1205 33.8139L2.27051 29.8839L50.1906 2.21387L70.1906 12.2139Z" class="pr-icon-iso-solid-stroke" stroke-linejoin="round"/>
    <path d="M49.1808 96.2543L42.5508 100.084V92.9443L49.1808 96.2543Z" class="pr-icon-iso-solid-stroke" stroke-linejoin="round"/>
    <path d="M42.5507 91.6243L41.3307 92.3343L35.1807 95.8843V87.9443L42.5507 91.6243Z" class="pr-icon-iso-solid-stroke" stroke-linejoin="round"/>
    <path d="M86.0109 50.5941C82.6009 49.0841 78.5609 49.6841 73.8809 52.3841C73.3509 52.6941 72.8209 53.0241 72.3009 53.3641C68.2809 56.0441 64.7508 59.7941 61.7308 64.6341C61.6608 64.7341 61.6009 64.8341 61.5409 64.9441C61.3009 65.3241 61.0709 65.7141 60.8409 66.1041C60.1909 67.2241 59.6009 68.3441 59.0709 69.4541C56.7409 74.3141 55.5309 79.0641 55.4609 83.7041C55.4509 83.8641 55.4509 84.0141 55.4509 84.1741C55.4509 90.0241 57.2509 93.9741 60.8409 96.0241L41.7308 86.4641L40.8409 86.0241C40.3109 85.7241 39.8309 85.3841 39.3809 84.9941L42.5509 83.1641V74.7041L44.4209 73.6241L49.9209 76.3741C50.8809 72.9941 52.1809 69.6841 53.8109 66.4541C54.2509 65.5641 54.7209 64.6741 55.2209 63.7941C55.5709 63.1741 55.9309 62.5641 56.3009 61.9541C56.3009 61.9441 56.3009 61.9341 56.3209 61.9241C58.2309 58.7941 60.3909 55.8741 62.8209 53.1541C63.9409 51.9541 65.0909 50.7841 66.3209 49.6141C67.5509 48.4441 68.8409 47.3641 70.1909 46.3741V42.7041L86.0109 50.5941Z" class="pr-icon-iso-solid-stroke" stroke-linejoin="round"/>
    <path d="M50.9904 38.0035C50.1704 37.6635 49.2604 37.6235 48.2704 37.8735C47.6204 38.0435 46.9403 38.3335 46.2303 38.7435C45.3203 39.2735 44.4604 39.9335 43.6704 40.7335C43.5704 40.8335 43.4704 40.9335 43.3704 41.0435C43.1804 41.2435 43.0004 41.4435 42.8204 41.6635C42.1804 42.4235 41.5804 43.2735 41.0304 44.2335C40.5104 45.1235 40.0904 45.9935 39.7604 46.8635C39.1604 48.4235 38.8604 49.9635 38.8604 51.4535C38.8604 53.6935 39.5204 55.2235 40.8604 56.0635C40.8604 56.0735 40.8505 56.0935 40.8405 56.1035L35.4504 53.4035L29.6504 50.5035V44.0835L42.8204 36.4835L45.2004 35.1035L49.2205 37.1135L50.9904 38.0035Z" class="pr-icon-iso-solid-stroke" stroke-linejoin="round"/>
</svg>