<svg width="48" height="48" viewBox="0 0 113 97" xmlns="http://www.w3.org/2000/svg" stroke-width="1px"
     stroke-linecap="round" stroke-linejoin="round">
    <path d="M90.6101 24.3601L82.9402 28.7801L22.2002 63.8501V94.2801L110.61 43.2401V12.8101L90.6101 24.3601ZM101.77 38.2001L75.2502 53.5101V43.3701L92.3601 33.4901L101.77 28.0601V38.2001Z" class="pr-icon-iso-solid-stroke" stroke-linejoin="round"/>
    <path d="M101.77 38.2L75.25 53.51V43.37L92.3599 33.49L101.77 38.2Z" class="pr-icon-iso-solid-stroke" stroke-linejoin="round"/>
    <path d="M101.771 28.0601V38.2001L92.3604 33.4901L101.771 28.0601Z" class="pr-icon-iso-solid-stroke" stroke-linejoin="round"/>
    <path d="M22.2002 63.8501V94.2801L2.2002 84.2801V53.8501L22.2002 63.8501Z" class="pr-icon-iso-solid-stroke" stroke-linejoin="round"/>
    <path d="M110.61 12.8101L90.6101 24.3601L82.9502 28.7801L22.2002 63.8501L2.2002 53.8501L90.6101 2.81006L110.61 12.8101Z" class="pr-icon-iso-solid-stroke" stroke-linejoin="round"/>
</svg>