<svg width="24" height="24" viewBox="0 0 92 114" xmlns="http://www.w3.org/2000/svg" stroke-width="1px" stroke-linecap="round" stroke-linejoin="round">
    <path d="M69.5295 23.605L56.2195 31.2849L39.5696 40.9049L32.9094 44.745L22.9395 50.505V111.635L89.5295 73.1849V12.0549L69.5295 23.605ZM52.9094 79.0549L36.2595 88.6649V58.095L39.5696 56.1849L52.9094 48.485V79.0549ZM76.2195 65.595L59.5696 75.205V44.645L69.5295 38.895L76.2195 35.0349V65.595Z" class="pr-icon-iso-solid-stroke" stroke-linejoin="round"/>
    <path d="M76.2202 35.0349V65.595L69.5303 62.255L59.5703 57.2749V44.645L69.5303 38.895L76.2202 35.0349Z" class="pr-icon-iso-solid-stroke" stroke-linejoin="round"/>
    <path d="M76.2202 65.595L59.5703 75.205V57.2749L69.5303 62.255L76.2202 65.595Z" class="pr-icon-iso-solid-stroke" stroke-linejoin="round"/>
    <path d="M52.9097 79.0548L36.2598 88.6648V70.7349L47.0898 76.1449L52.9097 79.0548Z" class="pr-icon-iso-solid-stroke" stroke-linejoin="round"/>
    <path d="M89.5295 12.0549L69.5295 23.605L56.2195 31.2849L39.5696 40.9049L32.9094 44.745L22.9395 50.505L17.1196 47.595L2.93945 40.505L69.5295 2.05493L89.5295 12.0549Z" class="pr-icon-iso-solid-stroke" stroke-linejoin="round"/>
    <path d="M52.9097 48.4849V79.0548L47.0898 76.1449L36.2598 70.7349V58.0948L39.5698 56.1848L52.9097 48.4849Z" class="pr-icon-iso-solid-stroke" stroke-linejoin="round"/>
    <path d="M22.9395 50.5049V111.635L2.93945 101.635V40.5049L17.1196 47.5948L22.9395 50.5049Z" class="pr-icon-iso-solid-stroke" stroke-linejoin="round"/>
</svg>