<svg width="24" height="24" viewBox="0 0 88 125" xmlns="http://www.w3.org/2000/svg" stroke-width="1px" stroke-linecap="round" stroke-linejoin="round">
    <path d="M22.0996 71.0799V78.3899L28.4795 74.7099V67.3899L22.0996 71.0799ZM28.4395 97.0799L28.4795 97.0999V97.0599L28.4395 97.0799ZM65.8596 31.1399V31.1799L65.8994 31.1599L65.8596 31.1399Z" class="pr-icon-iso-solid-stroke" stroke-linejoin="round"/>
    <path d="M28.4795 111.29V118.61L22.0996 122.29V114.97L28.0596 111.53L28.4795 111.29Z" class="pr-icon-iso-solid-stroke" stroke-linejoin="round"/>
    <path d="M28.4795 97.0599L28.4395 97.0799L28.4795 97.0999V103.97L28.0596 104.21L22.0996 107.66V100.34L27.6096 97.1599L27.6494 97.1399L28.0696 96.8999L28.4795 96.6599V97.0599Z" class="pr-icon-iso-solid-stroke" stroke-linejoin="round"/>
    <path d="M28.4795 82.0298V89.3398L22.0996 93.0198V85.7098L28.4795 82.0298Z" class="pr-icon-iso-solid-stroke" stroke-linejoin="round"/>
    <path d="M66.7292 89.1997V96.5197L60.3594 100.2V92.8897L66.3093 89.4397L66.7292 89.1997Z" class="pr-icon-iso-solid-stroke" stroke-linejoin="round"/>
    <path d="M79.4893 81.8398V89.1598L73.1094 92.8398V85.5198L79.4893 81.8398Z" class="pr-icon-iso-solid-stroke" stroke-linejoin="round"/>
    <path d="M65.8594 23.8698L59.4893 27.5498L37.1692 40.4398L34.8594 41.7698V100.29L40.8093 96.8498L46.7793 93.4098L47.1892 93.1698L53.5593 89.4898L59.5293 86.0498L59.9492 85.8098L66.3193 82.1298L72.6992 78.4498L85.8594 70.8498V12.3198L65.8594 23.8698ZM79.4893 37.9498L65.8594 45.8198L57.1692 50.8298V36.1998L65.8594 31.1798V31.1398L65.8992 31.1598L79.4893 23.3098V37.9498Z" class="pr-icon-iso-solid-stroke" stroke-linejoin="round"/>
    <path d="M79.4895 23.3098V37.9498L65.8994 31.1598L79.4895 23.3098Z" class="pr-icon-iso-solid-stroke" stroke-linejoin="round"/>
    <path d="M79.49 37.9499L65.8601 45.8199L57.1699 50.8299V36.1999L65.8601 31.1799L65.8999 31.1599L79.49 37.9499Z" class="pr-icon-iso-solid-stroke" stroke-linejoin="round"/>
    <path d="M27.6096 97.1199V97.1599L27.6494 97.1399L27.6096 97.1199ZM22.0996 71.0799V78.3899L28.4795 74.7099V67.3899L22.0996 71.0799Z" class="pr-icon-iso-solid-stroke" stroke-linejoin="round"/>
    <path d="M22.0996 114.97V122.29L2.09961 112.29V104.97L22.0996 114.97Z" class="pr-icon-iso-solid-stroke" stroke-linejoin="round"/>
    <path d="M41.2295 103.93L40.8196 104.17L34.8596 107.61L28.0596 104.21L28.4795 103.97V97.5598L41.2295 103.93Z" class="pr-icon-iso-solid-stroke" stroke-linejoin="round"/>
    <path d="M34.8594 107.61V114.93L28.4792 111.74V111.29L15.2793 104.69L14.8594 104.48V104.04L15.6792 104.45L22.0994 107.66L28.0593 104.21L34.8594 107.61Z" class="pr-icon-iso-solid-stroke" stroke-linejoin="round"/>
    <path d="M28.4795 96.6597L28.0696 96.8997L27.6494 97.1397L27.6096 97.1197V97.1597L22.0996 100.34L21.2295 99.9097L15.6895 97.1297L8.47949 93.5297L2.09961 90.3397L8.47949 86.6597L14.8596 89.8497L15.2695 90.0497L27.6096 96.2297L28.4795 96.6597Z" class="pr-icon-iso-solid-stroke" stroke-linejoin="round"/>
    <path d="M34.8594 41.7698V100.29L28.4792 97.0998V96.6598L27.6094 96.2298L15.2693 90.0498L14.8594 89.8498V89.3998L15.6892 89.8098L22.0994 93.0198L28.4792 89.3398V82.0298L14.8594 75.2198V74.7698L22.0994 78.3898L28.4792 74.7098V67.3898L14.8594 60.5798V60.1398L22.0994 63.7598L28.4792 60.0798V52.7598L14.8594 45.9498V31.7698L34.8594 41.7698Z" class="pr-icon-iso-solid-stroke" stroke-linejoin="round"/>
    <path d="M22.0996 85.7097V93.0197L15.6895 89.8097L14.8596 89.3997L2.09961 83.0197V75.7097L22.0996 85.7097Z" class="pr-icon-iso-solid-stroke" stroke-linejoin="round"/>
    <path d="M22.0996 71.0798V78.3898L2.09961 68.3898V61.0798L22.0996 71.0798Z" class="pr-icon-iso-solid-stroke" stroke-linejoin="round"/>
    <path d="M28.4795 52.7598V60.0798L22.0996 63.7598V56.4398L28.4795 52.7598Z" class="pr-icon-iso-solid-stroke" stroke-linejoin="round"/>
    <path d="M22.0996 56.4397V63.7597L2.09961 53.7597V46.4397L22.0996 56.4397Z" class="pr-icon-iso-solid-stroke" stroke-linejoin="round"/>
    <path d="M85.8594 12.3198L65.8594 23.8698L59.4893 27.5498L37.1692 40.4398L34.8594 41.7698L14.8594 31.7698L65.8594 2.31982L85.8594 12.3198Z" class="pr-icon-iso-solid-stroke" stroke-linejoin="round"/>
    <path d="M28.4795 52.7598L22.0996 56.4398L2.09961 46.4398L8.47949 42.7598L28.4795 52.7598Z" class="pr-icon-iso-solid-stroke" stroke-linejoin="round"/>
    <path d="M28.4795 67.3899L22.0996 71.0799L2.09961 61.0799L8.47949 57.3899L28.4795 67.3899Z" class="pr-icon-iso-solid-stroke" stroke-linejoin="round"/>
    <path d="M28.4795 82.0298L22.0996 85.7098L2.09961 75.7098L8.47949 72.0298L28.4795 82.0298Z" class="pr-icon-iso-solid-stroke" stroke-linejoin="round"/>
    <path d="M22.0996 100.34V107.66L15.6794 104.45L14.8596 104.04L2.09961 97.6598V90.3398L8.47949 93.5298L15.6895 97.1298L21.2295 99.9098L22.0996 100.34Z" class="pr-icon-iso-solid-stroke" stroke-linejoin="round"/>
    <path d="M28.4795 111.29L28.0596 111.53L22.0996 114.97L2.09961 104.97L8.47949 101.29L14.8596 104.48L15.2795 104.69L28.4795 111.29Z" class="pr-icon-iso-solid-stroke" stroke-linejoin="round"/>
    <path d="M79.4893 81.8397L73.1094 85.5197L66.3193 82.1297L72.6992 78.4497L79.4893 81.8397Z" class="pr-icon-iso-solid-stroke" stroke-linejoin="round"/>
    <path d="M73.1094 85.5199V92.8399L66.7292 89.6499V89.1999L59.9492 85.8099L66.3193 82.1299L73.1094 85.5199Z" class="pr-icon-iso-solid-stroke" stroke-linejoin="round"/>
    <path d="M66.7295 89.1998L66.3096 89.4398L60.3596 92.8898L53.5596 89.4898L59.5295 86.0498L59.9495 85.8098L66.7295 89.1998Z" class="pr-icon-iso-solid-stroke" stroke-linejoin="round"/>
    <path d="M60.3596 92.8897V100.2L53.9795 97.0098V96.5697L47.1895 93.1697L53.5596 89.4897L60.3596 92.8897Z" class="pr-icon-iso-solid-stroke" stroke-linejoin="round"/>
    <path d="M53.9792 96.5698V103.88L47.6094 107.56V100.25L53.5693 96.8098L53.9792 96.5698Z" class="pr-icon-iso-solid-stroke" stroke-linejoin="round"/>
    <path d="M53.9795 96.5699L53.5696 96.8099L47.6096 100.25L40.8096 96.8499L46.7795 93.4099L47.1895 93.1699L53.9795 96.5699Z" class="pr-icon-iso-solid-stroke" stroke-linejoin="round"/>
    <path d="M41.2292 103.93V111.24L34.8594 114.93V107.61L40.8193 104.17L41.2292 103.93Z" class="pr-icon-iso-solid-stroke" stroke-linejoin="round"/>
    <path d="M47.6096 100.25V107.56L41.2295 104.37V103.93L28.4795 97.5599V97.0999L34.8596 100.29L40.8096 96.8499L47.6096 100.25Z" class="pr-icon-iso-solid-stroke" stroke-linejoin="round"/>
</svg>