<svg width="48" height="48" viewBox="0 0 87 122" fill="#229EFF" xmlns="http://www.w3.org/2000/svg" stroke-width="1px" stroke-linecap="round" stroke-linejoin="round"><path d="M31.5105 78.53L31.2105 78.7L31.3705 78.79L31.5205 78.53H31.5105ZM28.7305 72.23L28.9905 72.08V71.78L28.7305 72.23Z" stroke="white" stroke-linejoin="round"/><path d="M84.0696 12.62V83.73L22.0996 119.51V99.76L28.9896 95.78V107.64L77.1896 79.81V32.4L64.0696 39.98L57.1896 43.95L45.8696 50.48L44.9796 51L35.9096 56.23L35.3596 56.55L28.9896 60.23V71.78L28.7296 72.23L22.0996 76.06V48.4L57.1896 28.14L64.0696 24.17L84.0696 12.62Z" stroke="white" stroke-linejoin="round"/><path d="M38.8405 82.19L38.5305 82.37L44.2005 85.2L44.5105 85.02L38.8405 82.19ZM28.7305 72.23L28.9905 72.08V71.78L28.7305 72.23ZM31.5105 78.53L31.2105 78.7L31.3705 78.79L31.5205 78.53H31.5105ZM35.9105 56.23L35.3605 56.55L42.2605 60L42.5305 59.54L35.9105 56.23Z" stroke="white" stroke-linejoin="round"/><path d="M77.1895 32.4V79.81L64.0695 73.25L61.2095 71.82L64.0695 66.88L66.8595 62.07L64.0695 60.48L57.1895 56.55V43.95L64.0695 39.98L77.1895 32.4Z" stroke="white" stroke-linejoin="round"/><path d="M28.99 107.64V95.7801L27.32 94.9501L20 91.2801L20.44 91.0301L22.1 91.86L38.53 82.3701L44.2 85.2001L51.37 88.7901L58.1 77.1701L61.21 71.8201L64.07 73.2501L77.19 79.8101L28.99 107.64Z" stroke="white" stroke-linejoin="round"/><path d="M22.0996 83.96V91.86L20.4396 91.03L2.09961 81.86V73.96L9.42961 77.63L22.0996 83.96Z" stroke="white" stroke-linejoin="round"/><path d="M22.0996 48.4V76.06L16.7596 73.39L9.42961 69.73L2.09961 66.06V38.4L16.7696 45.74L22.0996 48.4Z" stroke="white" stroke-linejoin="round"/><path d="M84.0696 12.62L64.0696 24.17L57.1896 28.14L22.0996 48.4L16.7696 45.74L2.09961 38.4L64.0696 2.62L84.0696 12.62Z" stroke="white" stroke-linejoin="round"/><path d="M22.0996 99.76V119.51L2.09961 109.51V89.76L8.98961 93.21L13.1096 95.26L20.4296 98.93L22.0996 99.76Z" stroke="white" stroke-linejoin="round"/><path d="M28.9896 95.78L22.0996 99.76L20.4296 98.93L13.1096 95.26L8.98961 93.21L2.09961 89.76L8.98961 85.78L19.9996 91.28L27.3196 94.95L28.9896 95.78Z" stroke="white" stroke-linejoin="round"/><path d="M66.8596 62.07L64.0696 66.88L61.2096 71.82L58.0996 77.17L51.3696 88.79L46.5396 86.04L48.4296 82.76L53.6896 73.62L38.8396 82.19L38.5296 82.37L22.0996 91.86V83.96L31.2096 78.7L31.3696 78.79L31.5196 78.53L31.5296 78.52L53.6896 65.72L46.5396 61.55L51.3696 53.23L57.1896 56.55L64.0696 60.48L66.8596 62.07Z" stroke="white" stroke-linejoin="round"/><path d="M51.3702 53.23L46.5402 61.55L42.5302 59.54L35.9102 56.23L44.9802 51L45.8702 50.48L51.3702 53.23Z" stroke="white" stroke-linejoin="round"/><path d="M53.6896 65.7201L31.5296 78.5201L31.5196 78.5301H31.5096L31.2096 78.7001L22.0996 83.9601L9.42961 77.6301L2.09961 73.9601L9.42961 69.7301L16.7596 73.3901L22.0996 76.0601L28.7296 72.2301L28.9896 72.08V60.2301L35.3596 56.55L42.2596 60.0001L53.6896 65.7201Z" stroke="white" stroke-linejoin="round"/><path d="M53.6898 73.62L48.4298 82.76L46.5398 86.04L44.5098 85.02L38.8398 82.19L53.6898 73.62Z" stroke="white" stroke-linejoin="round"/></svg>