<svg width="48" height="48" viewBox="0 0 96 121" fill="#229EFF" xmlns="http://www.w3.org/2000/svg" stroke-width="1px" stroke-linecap="round" stroke-linejoin="round"><path d="M45.2 75.9302L45.13 75.9702L46.21 76.5102L45.2 75.9302Z" stroke="white" stroke-linejoin="round"/><path d="M45.2 75.9298L45.13 75.9698L41.35 74.0798L38.02 72.4198L31.39 69.0998L29.61 68.2098V67.5698L31.68 68.5998L36.98 71.2498L38.02 71.8398L41.64 73.9098L45.2 75.9298Z" stroke="white" stroke-linejoin="round"/><path d="M93.54 12.5L73.54 24.05L66.44 28.15L23.12 53.16L23.06 53.2L22.5 53.52L21.74 53.14L17.63 51.09L2.5 43.52L73.54 2.5L93.54 12.5Z" stroke="white" stroke-linejoin="round"/><path d="M22.5 53.52V118.73L2.5 108.73V43.52L17.63 51.09L21.74 53.14L22.5 53.52Z" stroke="white" stroke-linejoin="round"/><path d="M73.54 24.05L66.44 28.15L23.12 53.16L23.06 53.2L22.5 53.52V118.73L93.54 77.72V12.5L73.54 24.05ZM86.44 73.67L29.61 106.48V65.72L35.23 62.47L38.26 60.73L66.44 44.46L73.54 40.36L86.44 32.91V73.67Z" stroke="white" stroke-linejoin="round"/><path d="M86.44 32.9102V73.6702L79.34 70.1202V65.5402L73.54 62.6402L66.44 59.0902V44.4602L73.54 40.3602L86.44 32.9102Z" stroke="white" stroke-linejoin="round"/><path d="M79.34 65.54V73.69L58.02 86L49.78 81.88L50.17 81.21L53.44 75.56L56.93 77.31L58.02 77.85L75.09 67.99L79.34 65.54Z" stroke="white" stroke-linejoin="round"/><path d="M79.34 65.54L75.09 67.99L58.02 77.85L56.93 77.31L53.44 75.56L56.25 70.72L55.23 70.14L51.68 68.11L44.58 64.07L59.34 55.54L66.44 59.09L73.54 62.64L79.34 65.54Z" stroke="white" stroke-linejoin="round"/><path d="M86.44 73.6701L29.61 106.48V93.0801L33.38 90.9001L42.04 95.2301L49.78 81.8801L58.02 86.0001L79.34 73.6901V70.1201L86.44 73.6701Z" stroke="white" stroke-linejoin="round"/><path d="M56.25 70.7201L53.44 75.5601L50.17 81.2101L49.78 81.8801L42.04 95.2301L37.07 92.3901L40.19 86.9701L44.61 79.2901L46.21 76.5101L45.2 75.9301L41.64 73.9101L38.02 71.8401L36.98 71.2501L38.02 69.4801L38.76 68.2201L39.46 67.0201L42.04 62.6201L44.58 64.0701L51.68 68.1101L55.23 70.1401L56.25 70.7201Z" stroke="white" stroke-linejoin="round"/><path d="M42.04 62.62L39.46 67.02L38.76 68.22L38.02 69.48L36.98 71.25L31.68 68.6L29.61 67.57V65.72L35.23 62.47L38.26 60.73L42.04 62.62Z" stroke="white" stroke-linejoin="round"/><path d="M46.21 76.5101L44.61 79.2901L40.19 86.9701L37.07 92.3901L33.71 90.7101L29.61 88.6601V72.1701L31.39 69.1001L38.02 72.4201L41.35 74.0801L46.21 76.5101Z" stroke="white" stroke-linejoin="round"/><path d="M42.04 95.2302L33.38 90.9002L29.61 89.0201V88.6602L33.71 90.7102L37.07 92.3902L42.04 95.2302Z" stroke="white" stroke-linejoin="round"/></svg>