<svg viewBox="0 0 99 125" xmlns="http://www.w3.org/2000/svg" height="24" width="24" stroke-width="1px" stroke-linecap="round" stroke-linejoin="round">
    <path d="M56.1709 35.0901V56.1201L48.2409 52.15L47.8409 51.9501H47.8309L42.8409 49.4601L41.5009 48.78L36.1709 46.1201V25.0901L48.6909 31.3501L52.7809 33.4L56.1709 35.0901Z" class="pr-icon-iso-solid-stroke" stroke-linejoin="round"/>
    <path d="M39.5108 88.6901C39.5108 89.0201 39.4808 89.3601 39.4208 89.6901C39.2808 90.4501 38.9908 91.2101 38.5508 91.9701C38.2808 92.4301 37.9908 92.8401 37.6708 93.2001C37.2208 93.7101 36.7208 94.1201 36.1708 94.4401C35.2308 94.9801 34.4408 95.0701 33.8008 94.7101C33.1608 94.3401 32.8408 93.6201 32.8408 92.5401C32.8408 91.4601 33.1608 90.3601 33.8008 89.2601C34.4408 88.1601 35.2308 87.3301 36.1708 86.7901C37.1208 86.2401 37.9108 86.1501 38.5508 86.5201C39.1908 86.8801 39.5108 87.6101 39.5108 88.6901Z" class="pr-icon-iso-solid-stroke" stroke-linejoin="round"/>
    <path d="M62.8408 58.01L49.2708 65.8401L48.4808 66.3L42.8408 69.5601L22.8408 81.1001L19.4608 79.41L15.3608 77.3601L2.84082 71.1001L41.5008 48.78L42.8408 49.4601L47.8308 51.9501H47.8408L48.2408 52.15L56.1708 56.1201L57.5108 55.3501L62.8408 58.01Z" class="pr-icon-iso-solid-stroke" stroke-linejoin="round"/>
    <path d="M96.1609 11.9999L76.1609 23.55L56.1709 35.09L52.7809 33.4L48.6909 31.35L36.1709 25.09L76.1609 2L96.1609 11.9999Z" class="pr-icon-iso-solid-stroke" stroke-linejoin="round"/>
    <path d="M67.8309 62.39V49.39L57.5109 55.3501L56.1709 56.1201V35.0901L76.1609 23.55L96.1609 12V38.77C96.1609 45.14 94.2209 51.68 90.3309 58.39C86.4409 65.1 81.7209 70.05 76.1709 73.26C74.7209 74.09 73.2909 74.7401 71.8809 75.2101C70.4609 75.6801 69.1109 75.9301 67.8309 75.9701V62.39ZM67.8309 62.39C67.8309 59.84 68.7509 57.46 70.5809 55.26C72.4209 53.05 74.2809 51.4001 76.1709 50.3101C76.7609 49.9701 77.3409 49.6801 77.8909 49.4701H77.9009C79.3809 48.8701 80.7309 48.6901 81.9609 48.9301C83.6509 49.2601 84.5009 50.54 84.5009 52.77L67.8309 62.39ZM72.7309 43.7101C72.6009 44.4501 72.3109 45.2001 71.8809 45.9601C71.8009 46.0901 71.7309 46.2201 71.6409 46.3401C71.4509 46.6401 71.2409 46.92 71.0209 47.17C70.5709 47.69 70.0609 48.1101 69.5009 48.4301C68.5609 48.9701 67.7709 49.0601 67.1309 48.7001C66.4909 48.3301 66.1709 47.61 66.1709 46.53C66.1709 45.66 66.3709 44.79 66.7809 43.91C66.8909 43.69 67.0009 43.47 67.1309 43.25C67.7709 42.15 68.5609 41.32 69.5009 40.78C70.4509 40.23 71.2409 40.14 71.8809 40.51C72.5109 40.87 72.8309 41.5901 72.8309 42.6801C72.8309 43.0201 72.8009 43.3701 72.7309 43.7101ZM85.2109 38.26C84.5709 39.36 83.7809 40.1801 82.8309 40.7301C81.8909 41.2701 81.1009 41.37 80.4609 41C79.8209 40.64 79.5009 39.9101 79.5009 38.8301C79.5009 37.7501 79.8209 36.65 80.4609 35.55C81.1009 34.45 81.8909 33.6301 82.8309 33.0801C83.7809 32.5401 84.5709 32.4501 85.2109 32.8101C85.8509 33.1701 86.1609 33.9001 86.1609 34.9801C86.1609 36.0601 85.8509 37.16 85.2109 38.26Z" class="pr-icon-iso-solid-stroke" stroke-linejoin="round"/>
    <path d="M86.161 34.98C86.161 36.06 85.851 37.1599 85.211 38.2599C84.571 39.3599 83.781 40.18 82.831 40.73C81.891 41.27 81.101 41.3699 80.461 40.9999C79.821 40.6399 79.501 39.91 79.501 38.83C79.501 37.75 79.821 36.65 80.461 35.55C81.101 34.45 81.891 33.63 82.831 33.08C83.781 32.54 84.571 32.45 85.211 32.81C85.851 33.17 86.161 33.9 86.161 34.98Z" class="pr-icon-iso-solid-stroke" stroke-linejoin="round"/>
    <path d="M84.5004 52.77L77.9004 49.47C79.3804 48.87 80.7304 48.69 81.9604 48.93C83.6504 49.26 84.5004 50.54 84.5004 52.77Z" class="pr-icon-iso-solid-stroke" stroke-linejoin="round"/>
    <path d="M84.5011 52.7699L67.8311 62.3899C67.8311 59.8399 68.7511 57.4599 70.5811 55.2599C72.4211 53.0499 74.2811 51.3999 76.1711 50.3099C76.7611 49.9699 77.3411 49.68 77.8911 49.47H77.9011L84.5011 52.7699Z" class="pr-icon-iso-solid-stroke" stroke-linejoin="round"/>
    <path d="M72.8309 42.6801C72.8309 43.0201 72.8009 43.3701 72.7309 43.7101C72.6009 44.4501 72.3109 45.2001 71.8809 45.9601C71.8009 46.0901 71.7309 46.2201 71.6409 46.3401C71.4509 46.6401 71.2409 46.9201 71.0209 47.1701C70.5709 47.6901 70.0609 48.1101 69.5009 48.4301C68.5609 48.9701 67.7709 49.0601 67.1309 48.7001C66.4909 48.3301 66.1709 47.6101 66.1709 46.5301C66.1709 45.6601 66.3709 44.7901 66.7809 43.9101C66.8909 43.6901 67.0009 43.4701 67.1309 43.2501C67.7709 42.1501 68.5609 41.3201 69.5009 40.7801C70.4509 40.2301 71.2409 40.1401 71.8809 40.5101C72.5109 40.8701 72.8309 41.5901 72.8309 42.6801Z" class="pr-icon-iso-solid-stroke" stroke-linejoin="round"/>
    <path d="M28.6808 120.76L9.70082 111.27L8.68082 110.76C4.79082 108.54 2.84082 104.24 2.84082 97.8701V71.1001L15.3608 77.3601L19.4608 79.41L22.8408 81.1001V107.87C22.8408 108.34 22.8508 108.8 22.8708 109.25C23.1408 114.87 25.0808 118.7 28.6808 120.76Z" class="pr-icon-iso-solid-stroke" stroke-linejoin="round"/>
    <path d="M49.2708 65.8401L48.4808 66.3L42.8408 69.5601L22.8408 81.1001V107.87C22.8408 108.34 22.8508 108.8 22.8708 109.25C23.1408 114.87 25.0808 118.7 28.6808 120.76C32.5608 122.97 37.2808 122.48 42.8408 119.27C48.3908 116.06 53.1208 111.11 57.0008 104.4C60.8908 97.69 62.8408 91.15 62.8408 84.78V58.01L49.2708 65.8401ZM33.8008 94.7101C33.1608 94.3401 32.8408 93.62 32.8408 92.54C32.8408 91.46 33.1608 90.36 33.8008 89.26C34.4408 88.16 35.2308 87.33 36.1708 86.79C37.1208 86.24 37.9108 86.15 38.5508 86.52C39.1908 86.88 39.5108 87.6101 39.5108 88.6901C39.5108 89.0201 39.4808 89.3601 39.4208 89.6901C39.2808 90.4501 38.9908 91.2101 38.5508 91.9701C38.2808 92.4301 37.9908 92.8401 37.6708 93.2001C37.2208 93.7101 36.7208 94.1201 36.1708 94.4401C35.2308 94.9801 34.4408 95.0701 33.8008 94.7101ZM48.6308 98.29C46.9408 100.57 45.0108 102.34 42.8408 103.59C40.6708 104.84 38.7408 105.3 37.0508 104.98C35.3508 104.65 34.5108 103.37 34.5108 101.14L51.1708 91.52C51.1708 93.75 50.3208 96 48.6308 98.29ZM51.8808 84.27C51.2408 85.37 50.4508 86.2001 49.5008 86.7401C48.5608 87.2901 47.7708 87.38 47.1308 87.01C46.4908 86.65 46.1708 85.9201 46.1708 84.8401C46.1708 83.7601 46.4908 82.6601 47.1308 81.5601C47.7708 80.4601 48.5608 79.6401 49.5008 79.0901C50.4508 78.5501 51.2408 78.4601 51.8808 78.8201C52.5208 79.1901 52.8408 79.9101 52.8408 80.9901C52.8408 82.0701 52.5208 83.17 51.8808 84.27Z" class="pr-icon-iso-solid-stroke" stroke-linejoin="round"/>
    <path d="M51.1707 91.52C51.1707 93.75 50.3207 96 48.6307 98.29C46.9407 100.57 45.0107 102.34 42.8407 103.59C40.6707 104.84 38.7407 105.3 37.0507 104.98C35.3507 104.65 34.5107 103.37 34.5107 101.14L51.1707 91.52Z" class="pr-icon-iso-solid-stroke" stroke-linejoin="round"/>
    <path d="M52.8409 80.99C52.8409 82.08 52.5209 83.1699 51.8809 84.2699C51.2409 85.3699 50.4509 86.2 49.5009 86.74C48.5609 87.29 47.7709 87.3799 47.1309 87.0099C46.4909 86.6499 46.1709 85.92 46.1709 84.84C46.1709 83.76 46.4909 82.66 47.1309 81.56C47.7709 80.46 48.5609 79.64 49.5009 79.09C50.4509 78.55 51.2409 78.46 51.8809 78.82C52.5209 79.19 52.8409 79.91 52.8409 80.99Z" class="pr-icon-iso-solid-stroke" stroke-linejoin="round"/>
    <path d="M67.8307 49.3899V75.97L62.8407 73.48V58.0099L57.5107 55.35L67.8307 49.3899Z" class="pr-icon-iso-solid-stroke" stroke-linejoin="round"/>
</svg>