<svg width="24" height="24" viewBox="0 0 100 103" xmlns="http://www.w3.org/2000/svg" stroke-width="1px" stroke-linecap="round" stroke-linejoin="round">
    <path d="M91.5795 19.1403C89.4895 21.2103 87.0095 23.5402 84.1395 26.1302C81.6995 28.2602 79.5195 30.2602 77.6195 32.1302C75.7395 33.9802 74.1195 35.7103 72.7595 37.3103C71.7295 38.5303 70.7395 39.8003 69.7795 41.1403C68.1995 43.3203 66.7195 45.6603 65.3195 48.1603C64.9095 47.3603 64.4495 46.5904 63.9395 45.8604C62.0495 43.0804 59.5495 40.7803 56.4195 38.9503C56.3895 38.9403 56.3595 38.9203 56.3295 38.9003C55.7095 38.5403 55.0895 38.2203 54.4595 37.9203C52.0095 36.7603 49.4495 36.0203 46.7595 35.7003C45.7595 35.5703 44.7395 35.5103 43.6995 35.5103H43.3195L22.7595 85.0303L22.7295 85.1104L51.2795 99.2402C52.7095 99.9102 54.3095 100.16 56.0495 99.9703C57.7995 99.7903 59.6095 99.1603 61.4795 98.0703C62.9795 97.2103 64.3995 96.1603 65.7395 94.9203C67.0795 93.6803 68.3495 92.2802 69.5295 90.7402L97.6195 54.2203V12.7603C95.6795 14.9503 93.6695 17.0803 91.5795 19.1403ZM85.3095 54.0803C84.5895 55.3203 83.6995 56.2403 82.6395 56.8503C82.0195 57.2103 81.4395 57.4003 80.9095 57.4203C80.3795 57.4403 79.9595 57.2602 79.6395 56.8702L66.3495 74.1003C66.5995 75.0303 66.7295 75.5703 66.7295 75.7103C66.7295 76.9303 66.3695 78.1603 65.6495 79.3903C64.9295 80.6303 64.0395 81.5603 62.9795 82.1703C61.9195 82.7803 61.0295 82.8803 60.3095 82.4803C59.5895 82.0703 59.2395 81.2503 59.2395 80.0403C59.2395 79.8203 59.2495 79.6004 59.2795 79.3604C59.3095 79.1304 59.3595 78.9202 59.4195 78.7502C58.5495 79.0302 57.8295 78.9503 57.2695 78.4803C56.9195 78.2003 56.6895 77.8103 56.5595 77.3203C56.4695 77.0203 56.4295 76.6703 56.4295 76.2903C56.4295 75.0703 56.7895 73.8403 57.4995 72.6003C57.9895 71.7603 58.5495 71.0703 59.1995 70.5303C59.4995 70.2603 59.8295 70.0303 60.1695 69.8303C60.8595 69.4303 61.4995 69.2603 62.0895 69.3103C62.6795 69.3603 63.1395 69.6203 63.4495 70.0803L75.3595 54.7303L76.7395 52.9503C76.3095 51.9203 76.0895 51.2603 76.0895 50.9703C76.0895 49.7503 76.4495 48.5203 77.1595 47.2903C77.5595 46.6003 78.0195 46.0003 78.5295 45.5103C78.9295 45.1103 79.3595 44.7803 79.8295 44.5103C80.8895 43.9003 81.7795 43.8003 82.4995 44.2103C83.2195 44.6103 83.5795 45.4303 83.5795 46.6503C83.5795 46.8603 83.5595 47.0803 83.5295 47.3203C83.4995 47.5503 83.4495 47.7603 83.3895 47.9403C84.2595 47.6503 84.9795 47.7303 85.5395 48.2003C86.0995 48.6603 86.3795 49.3903 86.3795 50.4003C86.3795 51.6103 86.0295 52.8403 85.3095 54.0803Z" class="pr-icon-iso-solid-stroke" stroke-linejoin="round"/>
    <path d="M83.5793 46.6503C83.5793 46.8603 83.5593 47.0804 83.5293 47.3204C83.4993 47.5504 83.4493 47.7603 83.3893 47.9403L78.5293 45.5103C78.9293 45.1103 79.3593 44.7803 79.8293 44.5103C80.8893 43.9003 81.7793 43.8004 82.4993 44.2104C83.2193 44.6104 83.5793 45.4303 83.5793 46.6503Z" class="pr-icon-iso-solid-stroke" stroke-linejoin="round"/>
    <path d="M86.3794 50.4003C86.3794 51.6103 86.0294 52.8403 85.3094 54.0803C84.5894 55.3203 83.6994 56.2403 82.6394 56.8503C82.0194 57.2103 81.4394 57.4003 80.9094 57.4203C80.3794 57.4403 79.9594 57.2602 79.6394 56.8702L75.3594 54.7303L76.7394 52.9503C76.3094 51.9203 76.0894 51.2603 76.0894 50.9703C76.0894 49.7503 76.4494 48.5203 77.1594 47.2903C77.5594 46.6003 78.0194 46.0003 78.5294 45.5103L83.3894 47.9403C84.2594 47.6503 84.9794 47.7303 85.5394 48.2003C86.0994 48.6603 86.3794 49.3903 86.3794 50.4003Z" class="pr-icon-iso-solid-stroke" stroke-linejoin="round"/>
    <path d="M79.6392 56.8802L66.3492 74.1104L59.1992 70.5403C59.4992 70.2703 59.8292 70.0403 60.1692 69.8403C60.8592 69.4403 61.4992 69.2703 62.0892 69.3203C62.6792 69.3703 63.1392 69.6303 63.4492 70.0903L75.3592 54.7402L79.6392 56.8802Z" class="pr-icon-iso-solid-stroke" stroke-linejoin="round"/>
    <path d="M66.7297 75.7103C66.7297 76.9303 66.3697 78.1603 65.6497 79.3903C64.9297 80.6303 64.0397 81.5603 62.9797 82.1703C61.9197 82.7803 61.0297 82.8803 60.3097 82.4803C59.5897 82.0703 59.2397 81.2503 59.2397 80.0403C59.2397 79.8203 59.2497 79.6004 59.2797 79.3604C59.3097 79.1304 59.3597 78.9202 59.4197 78.7502L56.5597 77.3203C56.4697 77.0203 56.4297 76.6703 56.4297 76.2903C56.4297 75.0703 56.7897 73.8403 57.4997 72.6003C57.9897 71.7603 58.5497 71.0703 59.1997 70.5303L66.3497 74.1003C66.5997 75.0303 66.7297 75.5703 66.7297 75.7103Z" class="pr-icon-iso-solid-stroke" stroke-linejoin="round"/>
    <path d="M43.3195 35.5103L22.7595 85.0303L22.7295 85.1104L2.72949 75.1104L23.3195 25.5103L43.3195 35.5103Z" class="pr-icon-iso-solid-stroke" stroke-linejoin="round"/>
    <path d="M97.6191 12.7603C95.6791 14.9503 93.6691 17.0803 91.5791 19.1403C89.4891 21.2103 87.0091 23.5402 84.1391 26.1302C81.6991 28.2602 79.5191 30.2602 77.6191 32.1302C75.7391 33.9802 74.1191 35.7103 72.7591 37.3103C71.7291 38.5303 70.7391 39.8003 69.7791 41.1403C68.1991 43.3203 66.7191 45.6603 65.3191 48.1603C64.9091 47.3603 64.4491 46.5904 63.9391 45.8604C62.0491 43.0804 59.5491 40.7803 56.4191 38.9503C56.3891 38.9403 56.3591 38.9203 56.3291 38.9003C55.7091 38.5403 55.0891 38.2203 54.4591 37.9203L47.5391 34.4603C49.1691 31.8903 50.9091 29.5103 52.7591 27.3103C55.4791 24.1003 59.2691 20.3702 64.1391 16.1302C67.0091 13.5402 69.4891 11.2103 71.5791 9.14026C73.6691 7.08026 75.6791 4.95025 77.6191 2.76025L97.6191 12.7603Z" class="pr-icon-iso-solid-stroke" stroke-linejoin="round"/>
    <path d="M59.4196 78.7603C58.5496 79.0403 57.8296 78.9602 57.2696 78.4902C56.9196 78.2102 56.6896 77.8203 56.5596 77.3303L59.4196 78.7603Z" class="pr-icon-iso-solid-stroke" stroke-linejoin="round"/>
    <path d="M54.4593 37.9203C52.0093 36.7603 49.4493 36.0203 46.7593 35.7003C45.7593 35.5703 44.7393 35.5102 43.6993 35.5102H43.3193L23.3193 25.5102C27.4393 25.4702 31.2993 26.3402 34.8893 28.1302L47.5393 34.4603L54.4593 37.9203Z" class="pr-icon-iso-solid-stroke" stroke-linejoin="round"/>
</svg>