<svg viewBox="0 0 89 111" fill="#229EFF" xmlns="http://www.w3.org/2000/svg" height="48" width="48" stroke-width="1px" stroke-linecap="round" stroke-linejoin="round"><path d="M77.0898 14.2524C73.3098 12.4324 69.1797 11.9924 64.6997 12.9324C61.5597 13.5924 58.2398 14.9324 54.7498 16.9424C51.3398 18.9224 48.0798 21.3524 44.9998 24.2524C44.6498 24.5624 44.2997 24.8924 43.9597 25.2424C39.7997 29.3224 35.9497 34.2624 32.4097 40.0524C30.9597 42.4224 29.6798 44.8124 28.5598 47.2324C26.8998 50.7924 25.5997 54.4024 24.6497 58.0724C23.3897 62.9624 22.7598 67.9524 22.7598 73.0324C22.7598 80.6824 25.4097 87.4724 30.7097 93.3924C32.0697 94.9124 33.6098 96.3824 35.3298 97.8024C38.5198 100.422 42.3197 102.862 46.7397 105.102C49.2097 106.362 51.8798 107.572 54.7498 108.712C65.4798 92.0424 73.4998 77.6824 78.7898 65.6324C84.0898 53.5924 86.7397 43.7424 86.7397 36.1024C86.7397 24.6324 83.5298 17.3424 77.0898 14.2524ZM54.8098 64.0924L50.5498 71.4424L39.2598 65.0024L44.9597 55.1724L50.5498 58.3724L64.6497 34.0524L65.7998 34.7124L70.3499 37.3024L54.8098 64.0924Z" stroke="white" stroke-linejoin="round"/><path d="M70.3499 37.3022L54.8098 64.0923L50.5498 71.4422L39.2598 65.0023L44.9597 55.1723L50.5498 58.3723L64.6497 34.0522L65.7998 34.7122L70.3499 37.3022Z" stroke="white" stroke-linejoin="round"/><path d="M77.0898 14.2524C73.3098 12.4324 69.1797 11.9924 64.6997 12.9324C61.5597 13.5924 58.2398 14.9324 54.7498 16.9424C51.3398 18.9224 48.0798 21.3524 44.9998 24.2524C44.6498 24.5624 44.2997 24.8924 43.9597 25.2424C39.7997 29.3224 35.9497 34.2624 32.4097 40.0524C30.9597 42.4224 29.6798 44.8124 28.5598 47.2324C26.8998 50.7924 25.5997 54.4024 24.6497 58.0724C23.3897 62.9624 22.7598 67.9524 22.7598 73.0324C22.7598 80.6824 25.4097 87.4724 30.7097 93.3924C32.0697 94.9124 33.6098 96.3825 35.3298 97.8025C38.5198 100.422 42.3197 102.862 46.7397 105.102L30.1099 96.7324C28.0299 95.7824 26.0797 94.8025 24.2397 93.7725C18.6197 90.6525 14.1097 87.1924 10.7097 83.3924C5.40972 77.4724 2.75977 70.6824 2.75977 63.0324C2.75977 51.5624 5.97967 40.5724 12.4097 30.0524C18.8397 19.5324 26.2898 11.8324 34.7498 6.94243C43.2198 2.05243 50.6598 1.16245 57.0898 4.25245L57.6797 4.55243L77.0898 14.2524Z" stroke="white" stroke-linejoin="round"/></svg>