<svg xmlns="http://www.w3.org/2000/svg" viewBox="0 0 640 512"><!--! Font Awesome Pro 6.7.2 by @fontawesome - https://fontawesome.com License - https://fontawesome.com/license (Commercial License) Copyright 2024 Fonticons, Inc. --><defs><style>.fa-secondary{opacity:.4}</style></defs><path class="fa-secondary" d="M16 368l264 0 344 0 0 64L16 432l0-64zM208 240A64 64 0 1 1 80 240a64 64 0 1 1 128 0zm80-40c0-13.3 10.7-24 24-24l47.3 0c1.6 3.3 3.3 6.6 4.9 9.9c7 14.1 21.7 22.7 37.4 22.1s29.6-10.5 35.5-25.1c.9-2.3 1.8-4.6 2.7-6.9l96.1 0c48.6 0 88 39.4 88 88l0 88-336 0 0-152z"/><path class="fa-primary" d="M471.2 4.4L500.9 64 632 64c4.4 0 8 3.6 8 8s-3.6 8-8 8L496 80c-3 0-5.8-1.7-7.2-4.4l-24-48.1L407.4 171c-1.2 2.9-3.9 4.9-7.1 5s-6.1-1.6-7.5-4.4L347.1 80 200 80c-4.4 0-8-3.6-8-8s3.6-8 8-8l152 0c3 0 5.8 1.7 7.2 4.4l40 80.1L456.6 5c1.2-2.9 3.9-4.9 7.1-5s6.1 1.6 7.5 4.4zM312 160l39.3 0 8 16L312 176c-13.3 0-24 10.7-24 24l0 152 336 0 0-88c0-48.6-39.4-88-88-88l-96.1 0 6.4-16 89.7 0c57.4 0 104 46.6 104 104l0 96 0 80 0 64c0 4.4-3.6 8-8 8s-8-3.6-8-8l0-56L16 448l0 56c0 4.4-3.6 8-8 8s-8-3.6-8-8l0-64 0-80L0 72c0-4.4 3.6-8 8-8s8 3.6 8 8l0 280 256 0 0-152c0-22.1 17.9-40 40-40zM624 432l0-64-344 0L16 368l0 64 608 0zM208 240A64 64 0 1 0 80 240a64 64 0 1 0 128 0zM64 240a80 80 0 1 1 160 0A80 80 0 1 1 64 240z"/></svg>