<svg xmlns="http://www.w3.org/2000/svg" viewBox="0 0 448 512"><!--! Font Awesome Pro 6.7.2 by @fontawesome - https://fontawesome.com License - https://fontawesome.com/license (Commercial License) Copyright 2024 Fonticons, Inc. --><defs><style>.fa-secondary{opacity:.4}</style></defs><path class="fa-secondary" d="M16 200c0-13.3 10.7-24 24-24l368 0c13.3 0 24 10.7 24 24l0 1.9c0 3-.6 6-1.7 8.8L362.3 384c3.1 0 6.2 0 9.3 0c-98.3 0-196.5 0-294.8 0l9 0L17.7 210.7c-1.1-2.8-1.7-5.8-1.7-8.8l0-1.9zM48 481.2c0-3.7 1.4-7.2 3.8-9.9l30.6-33.9c3-3.4 7.4-5.3 11.9-5.3l259.5 0c4.5 0 8.9 1.9 11.9 5.3l30.6 33.9c2.5 2.7 3.8 6.3 3.8 9.9c0 8.2-6.6 14.8-14.8 14.8L62.8 496c-8.2 0-14.8-6.6-14.8-14.8z"/><path class="fa-primary" d="M224 0c4.4 0 8 3.6 8 8l0 48 56 0c4.4 0 8 3.6 8 8s-3.6 8-8 8l-56 0 0 88 176 0c22.1 0 40 17.9 40 40l0 1.9c0 5-.9 10-2.8 14.6L379.5 384l-17.2 0 68.1-173.3c1.1-2.8 1.7-5.8 1.7-8.8l0-1.9c0-13.3-10.7-24-24-24L40 176c-13.3 0-24 10.7-24 24l0 1.9c0 3 .6 6 1.7 8.8L85.7 384l-17.2 0L2.8 216.6C.9 211.9 0 206.9 0 201.9L0 200c0-22.1 17.9-40 40-40l176 0 0-88-56 0c-4.4 0-8-3.6-8-8s3.6-8 8-8l56 0 0-48c0-4.4 3.6-8 8-8zM94.3 432c-4.5 0-8.9 1.9-11.9 5.3L51.8 471.2c-2.5 2.7-3.8 6.3-3.8 9.9c0 8.2 6.6 14.8 14.8 14.8l322.3 0c8.2 0 14.8-6.6 14.8-14.8c0-3.7-1.4-7.2-3.8-9.9l-30.6-33.9c-3-3.4-7.4-5.3-11.9-5.3L94.3 432zm313.8 28.5c5.1 5.7 7.9 13 7.9 20.6c0 17-13.8 30.8-30.8 30.8L62.8 512c-17 0-30.8-13.8-30.8-30.8c0-7.6 2.8-15 7.9-20.6l30.6-33.9c6.1-6.7 14.7-10.6 23.8-10.6l259.5 0c9.1 0 17.7 3.8 23.8 10.6l30.6 33.9z"/></svg>