<svg xmlns="http://www.w3.org/2000/svg" viewBox="0 0 512 512"><!--! Font Awesome Pro 6.7.2 by @fontawesome - https://fontawesome.com License - https://fontawesome.com/license (Commercial License) Copyright 2024 Fonticons, Inc. --><defs><style>.fa-secondary{opacity:.4}</style></defs><path class="fa-secondary" d="M16 256a240 240 0 1 0 480 0A240 240 0 1 0 16 256zm144-32c0-53 43-96 96-96s96 43 96 96c0 16.6-4.2 32.2-11.6 45.8c-5.4 9.9-12.5 19-21.2 26.6L221.3 382c-3.3 2.9-8.4 2.6-11.3-.8s-2.6-8.4 .8-11.3l58.1-50.8c-4.2 .6-8.5 .8-12.8 .8c-53 0-96-43-96-96zm16 0a80 80 0 1 0 159.9 0A80 80 0 1 0 176 224z"/><path class="fa-primary" d="M256 16a240 240 0 1 1 0 480 240 240 0 1 1 0-480zm0 496A256 256 0 1 0 256 0a256 256 0 1 0 0 512zM210 381.3c2.9 3.3 8 3.7 11.3 .8l97.9-85.7c8.7-7.6 15.9-16.6 21.2-26.6c7.4-13.6 11.6-29.2 11.6-45.8c0-53-43-96-96-96s-96 43-96 96s43 96 96 96c4.3 0 8.6-.3 12.8-.8L210.7 370c-3.3 2.9-3.7 8-.8 11.3zM255.9 304a80 80 0 1 1 .1-160 80 80 0 1 1 -.1 160z"/></svg>