<svg xmlns="http://www.w3.org/2000/svg" viewBox="0 0 192 512"><!--! Font Awesome Pro 6.7.2 by @fontawesome - https://fontawesome.com License - https://fontawesome.com/license (Commercial License) Copyright 2024 Fonticons, Inc. --><defs><style>.fa-secondary{opacity:.4}</style></defs><path class="fa-secondary" d="M48 128a48 48 0 1 0 96 0 48 48 0 1 0 -96 0zm0 256a48 48 0 1 0 96 0 48 48 0 1 0 -96 0z"/><path class="fa-primary" d="M144 128a48 48 0 1 0 -96 0 48 48 0 1 0 96 0zM32 128a64 64 0 1 1 128 0A64 64 0 1 1 32 128zM144 384a48 48 0 1 0 -96 0 48 48 0 1 0 96 0zM32 384a64 64 0 1 1 128 0A64 64 0 1 1 32 384z"/></svg>