<svg xmlns="http://www.w3.org/2000/svg" viewBox="0 0 512 512"><!--! Font Awesome Pro 6.7.2 by @fontawesome - https://fontawesome.com License - https://fontawesome.com/license (Commercial License) Copyright 2024 Fonticons, Inc. --><defs><style>.fa-secondary{opacity:.4}</style></defs><path class="fa-secondary" d="M16 256c0 132.5 107.5 240 240 240c4.4 0 8 3.6 8 8c0 4.3-3.5 7.9-8 8c40.3 0 78.2-9.3 112-25.7l0-137.8c-13.3 11.8-29.3 22.7-48 30.7l0 92.8c0 4.4-3.6 8-8 8s-8-3.6-8-8l0-87c-14.6 4.4-30.6 7-48 7c-63.8 0-108.5-34.9-134.2-67c-2.8-3.4-2.2-8.5 1.2-11.2s8.5-2.2 11.2 1.2c23.8 29.7 64.3 61 121.8 61s98-31.3 121.8-61c2.8-3.5 7.8-4 11.2-1.2s4 7.8 1.2 11.2c-2 2.5-4.1 4.9-6.2 7.4l0 145.3c23.6-13.6 44.8-30.9 62.8-51.1c-2.9 3.3-8 3.6-11.3 .6s-3.6-8-.6-11.3c38-42.5 61.1-98.5 61.1-160C496 123.5 388.5 16 256 16S16 123.5 16 256zm104.5-42.7c7.3-20.4 34.8-61.3 87.5-61.3c4.4 0 8 3.6 8 8s-3.6 8-8 8c-43.3 0-66.4 33.7-72.5 50.7c-1.5 4.2-6.1 6.3-10.2 4.8s-6.3-6.1-4.8-10.2zM296 160c0-4.4 3.6-8 8-8c52.7 0 80.3 40.9 87.5 61.3c1.5 4.2-.7 8.7-4.8 10.2s-8.7-.7-10.2-4.8c-6.1-17-29.2-50.7-72.5-50.7c-4.4 0-8-3.6-8-8z"/><path class="fa-primary" d="M16 256C16 123.5 123.5 16 256 16s240 107.5 240 240c0 61.5-23.1 117.5-61.1 160c-2.9 3.3-2.7 8.4 .6 11.3s8.3 2.7 11.3-.6C487.3 381.4 512 321.6 512 256C512 114.6 397.4 0 256 0S0 114.6 0 256S114.6 512 256 512c4.4 0 8-3.6 8-8s-3.6-8-8-8C123.5 496 16 388.5 16 256zm352 92.5L368 504c0 4.4 3.6 8 8 8s8-3.6 8-8l0-171.6c2.2-2.5 4.3-5 6.2-7.4c2.8-3.4 2.2-8.5-1.2-11.2s-8.5-2.2-11.2 1.2C354 344.7 313.4 376 256 376s-98-31.3-121.8-61c-2.8-3.5-7.8-4-11.2-1.2s-4 7.8-1.2 11.2c25.7 32.1 70.5 67 134.2 67c17.4 0 33.4-2.6 48-7l0 87c0 4.4 3.6 8 8 8s8-3.6 8-8l0-92.8c18.7-7.9 34.7-18.8 48-30.7zM208 168c4.4 0 8-3.6 8-8s-3.6-8-8-8c-52.7 0-80.3 40.9-87.5 61.3c-1.5 4.2 .7 8.7 4.8 10.2s8.7-.7 10.2-4.8c6.1-17 29.2-50.7 72.5-50.7zm168.5 50.7c1.5 4.2 6.1 6.3 10.2 4.8s6.3-6.1 4.8-10.2C384.3 192.9 356.7 152 304 152c-4.4 0-8 3.6-8 8s3.6 8 8 8c43.3 0 66.4 33.7 72.5 50.7z"/></svg>