<svg xmlns="http://www.w3.org/2000/svg" viewBox="0 0 640 512"><!--! Font Awesome Pro 6.7.2 by @fontawesome - https://fontawesome.com License - https://fontawesome.com/license (Commercial License) Copyright 2024 Fonticons, Inc. --><defs><style>.fa-secondary{opacity:.4}</style></defs><path class="fa-secondary" d="M104 128c2.7 0 5.3 0 8 0l0 16 0 192 3.4 0c17 0 33.3 6.7 45.3 18.7l20.6 20.6L221 415.2c16.1 16.1 41.9 16.8 58.8 1.6c2.7-2.4 4.9-5 6.9-7.8c1.3-2 3.5-3.2 5.9-3.5s4.7 .6 6.4 2.3L310 418.9c16.4 16.4 43.2 15.6 58.6-1.7c8.7-9.8 11.8-22.7 9.4-34.7c-.7-3.5 1-7 4.1-8.6s6.9-1.1 9.4 1.4l1 1c15 15 39 15.7 54.8 1.6c17.2-15.3 18-41.9 1.7-58.1l-99.9-99.9L299 266.1c-22.3 20.6-56.6 20.9-79.3 .7c-25.9-23-26.5-63.2-1.4-87l87.5-82.9c9-8.5 19.1-15.5 30-20.8c-10.9-4.7-28.3-11.2-41.9-12.1L277.1 80l-21.2 0c-28.2 0-55.6 10-77.2 28.1L144 137.3l0-20.9c-4.6 3.9-9.2 7.7-13.8 11.6L104 128zm125.3 63.4c-18.3 17.4-17.9 46.7 1 63.5c16.5 14.7 41.6 14.5 57.8-.5l76-70.2c3.2-3 8.3-2.8 11.3 .5s2.8 8.3-.5 11.3L360.8 209l99.5 99.5c7.9 7.9 12.9 17.4 15.1 27.5l52.6 0 0-192 0-16 8 0c-9.2 0-18.4 0-27.6 0c-4.1-3.5-8.3-7-12.4-10.4l0 20.9-40.5-34.1C436.7 88.6 413 80 388.5 80c-26.7 0-52.3 10.2-71.6 28.5l-87.5 82.9zM284.5 64l6.7 0c-2.2-.1-4.5-.1-6.7 0zm6.7 0c.9 0 1.8 0 2.7 .1c-.9-.1-1.8-.1-2.7-.1z"/><path class="fa-primary" d="M255.9 64c-32 0-63 11.3-87.5 31.9L144 116.4l0 20.9 34.7-29.2C200.3 90 227.7 80 255.9 80l21.2 0L294 64l-38.1 0zM112 336l0-192 0-16-8 0-8 0-64 0c-17.7 0-32 14.3-32 32L0 368c0 17.7 14.3 32 32 32l48 0c17.7 0 32-14.3 32-32l0-16 3.4 0c12.7 0 24.9 5.1 33.9 14.1l20.6 20.6 15.4 15.4c0 0 0 0 .1 .1l24.4 24.4c22.1 22.1 57.5 23.1 80.8 2.2c1.2-1.1 2.3-2.2 3.4-3.3l4.8 4.8c22.9 22.9 60.3 21.8 81.9-2.4c7.9-8.8 12.4-19.5 13.8-30.4c20.2 10.8 45.6 8.4 63.6-7.5c11.4-10.1 17.7-23.8 18.6-37.9l51.4 0 0 16c0 17.7 14.3 32 32 32l48 0c17.7 0 32-14.3 32-32l0-208c0-17.7-14.3-32-32-32l-64 0-8 0-8 0 0 16 0 192-52.6 0c-2.2-10.1-7.2-19.6-15.1-27.5L360.8 209 375 195.9c3.2-3 3.4-8.1 .5-11.3s-8.1-3.4-11.3-.5l-76 70.2c-16.3 15-41.3 15.3-57.8 .5c-18.9-16.8-19.3-46.1-1-63.5l87.5-82.9c19.3-18.3 45-28.5 71.6-28.5c24.5 0 48.2 8.6 67 24.4L496 138.5l0-20.9L465.8 92.2C444.1 74 416.7 64 388.5 64c-30.7 0-60.3 11.8-82.6 32.9l-87.5 82.9c-25.1 23.8-24.5 64 1.4 87c22.7 20.2 57 19.9 79.3-.7l50.1-46.2L449 319.8c16.3 16.3 15.5 42.8-1.7 58.1c-15.8 14-39.8 13.3-54.8-1.6l-1-1c-2.5-2.5-6.3-3.1-9.4-1.4s-4.8 5.2-4.1 8.6c2.4 12-.7 24.9-9.4 34.7c-15.4 17.3-42.2 18.1-58.6 1.7l-11.1-11.1c-1.7-1.7-4-2.5-6.4-2.3s-4.5 1.5-5.9 3.5c-1.9 2.8-4.2 5.4-6.9 7.8c-16.9 15.1-42.7 14.4-58.8-1.6l-39.9-39.9-20.6-20.6c-12-12-28.3-18.7-45.3-18.7l-3.4 0zM96 144l0 224c0 8.8-7.2 16-16 16l-48 0c-8.8 0-16-7.2-16-16l0-208c0-8.8 7.2-16 16-16l64 0zm512 0c8.8 0 16 7.2 16 16l0 208c0 8.8-7.2 16-16 16l-48 0c-8.8 0-16-7.2-16-16l0-224 64 0z"/></svg>