<svg xmlns="http://www.w3.org/2000/svg" viewBox="0 0 640 512"><!--! Font Awesome Pro 6.7.2 by @fontawesome - https://fontawesome.com License - https://fontawesome.com/license (Commercial License) Copyright 2024 Fonticons, Inc. --><defs><style>.fa-secondary{opacity:.4}</style></defs><path class="fa-secondary" d="M512 440l64 0c30.1 0 81.3-48.6 48-104c-48-80-128-112-152-120L448 80c0-8-13.7-50.7-64-40C323.5 52.9 234.7 74.7 192 88c-24 2.7-40 22.4-40 48c0 2.4 0 2.4-1 12.2s-3 29.4-7 71C112 220.8 41.6 243.2 16 320s0 112 24 120l472 0zm0 0L304 280l160 0c15.6 .6 20.6 6.2 24 24l24 136z"/><path class="fa-primary" d="M388.4 49l-200 46.7c-17.1 4-29.7 18.7-30.8 36.3l-5.1 76.4c3.7-.2 7.4-.4 11.2-.4c35.7 0 70.4 11.6 98.8 33.2L303.3 272l170.3 0L439.2 80.9c-3.4-19.1-20-32.9-39.4-32.9l-2.3 0c-3.1 0-6.1 .4-9.1 1zM136.4 210.3l5.3-79.3c1.6-24.6 19.2-45.2 43.2-50.8l200-46.7c4.2-1 8.4-1.5 12.7-1.5l2.3 0C427 32 450.2 51.4 455 78.1l23.7 132c1 .4 2.1 .9 3.5 1.5c4.5 2 10.8 4.9 18.5 8.7c15.2 7.6 35.6 18.8 56 33.1c20.4 14.3 41.1 31.8 56.8 52.2C629 326 640 349.7 640 376c0 39.8-32.2 72-72 72l-56 0-40 0L52.8 448C23.6 448 0 424.4 0 395.2l0-23.5c0-81.1 59-148.4 136.4-161.4zm345.7 18.9l21.8 121.4c.8 4.3-2.1 8.5-6.5 9.3s-8.5-2.1-9.3-6.5L476.4 288l-152 0L514.7 432l53.3 0c30.9 0 56-25.1 56-56c0-21.7-9-42-23.3-60.6c-14.3-18.6-33.6-35.1-53.2-48.8c-19.6-13.7-39.2-24.5-54-31.9c-4.2-2.1-8-3.9-11.3-5.5zM16 371.7l0 23.5C16 415.5 32.5 432 52.8 432L472 432l16.2 0L297.9 288l-1.9 0 0-1.4-43.1-32.6c-25.7-19.4-57-29.9-89.1-29.9C82.1 224 16 290.1 16 371.7z"/></svg>