<svg xmlns="http://www.w3.org/2000/svg" viewBox="0 0 512 512"><!--! Font Awesome Pro 6.7.2 by @fontawesome - https://fontawesome.com License - https://fontawesome.com/license (Commercial License) Copyright 2024 Fonticons, Inc. --><defs><style>.fa-secondary{opacity:.4}</style></defs><path class="fa-secondary" d="M16 240C16 116.3 116.3 16 240 16s224 100.3 224 224l0 32-208 0c-3.4 0-6.5 2.2-7.6 5.5L218.2 368 72 368c-30.9 0-56-25.1-56-56l0-72zM128 104l0 72c0 26.5 21.5 48 48 48s48-21.5 48-48l0-72c0-4.4-3.6-8-8-8s-8 3.6-8 8l0 72c0 17.7-14.3 32-32 32s-32-14.3-32-32l0-72c0-4.4-3.6-8-8-8s-8 3.6-8 8zm128 0l0 112c0 4.4 3.6 8 8 8s8-3.6 8-8l0-87 65.5 91.7c2 2.8 5.6 4 9 3s5.6-4.1 5.6-7.6l0-112c0-4.4-3.6-8-8-8s-8 3.6-8 8l0 87L270.5 99.4c-2-2.8-5.6-4-9-3s-5.6 4.1-5.6 7.6z"/><path class="fa-primary" d="M16 240C16 116.3 116.3 16 240 16s224 100.3 224 224l0 32-208 0c-3.4 0-6.5 2.2-7.6 5.5L218.2 368 72 368c-30.9 0-56-25.1-56-56l0-72zm464 0C480 107.5 372.5 0 240 0S0 107.5 0 240l0 72c0 39.8 32.2 72 72 72l148.8 0L354.5 509.8c1.5 1.4 3.4 2.2 5.5 2.2l112 0c4.4 0 8-3.6 8-8s-3.6-8-8-8l-104 0 0-208 104 0 32 0c4.4 0 8-3.6 8-8s-3.6-8-8-8l-24 0 0-32zM352 288l0 197.5L233.2 373.7 261.8 288l90.2 0zM270.5 99.4c-2-2.8-5.6-4-9-3s-5.6 4.1-5.6 7.6l0 112c0 4.4 3.6 8 8 8s8-3.6 8-8l0-87 65.5 91.7c2 2.8 5.6 4 9 3s5.6-4.1 5.6-7.6l0-112c0-4.4-3.6-8-8-8s-8 3.6-8 8l0 87L270.5 99.4zM144 104c0-4.4-3.6-8-8-8s-8 3.6-8 8l0 72c0 26.5 21.5 48 48 48s48-21.5 48-48l0-72c0-4.4-3.6-8-8-8s-8 3.6-8 8l0 72c0 17.7-14.3 32-32 32s-32-14.3-32-32l0-72z"/></svg>