<svg xmlns="http://www.w3.org/2000/svg" viewBox="0 0 576 512"><!--! Font Awesome Pro 6.7.2 by @fontawesome - https://fontawesome.com License - https://fontawesome.com/license (Commercial License) Copyright 2024 Fonticons, Inc. --><defs><style>.fa-secondary{opacity:.4}</style></defs><path class="fa-secondary" d="M17.2 486.1c2.5 6 8.3 9.9 14.8 9.9l128 0 0-176c0-70.7 57.3-128 128-128s128 57.3 128 128l0 176 128 0c6.5 0 12.3-3.9 14.8-9.9c2.5-5.9 1.1-12.8-3.4-17.3l-.3-.3C510 420.4 496 346.6 496 288c0-97.7-43.8-163.3-90.5-205.3c-3.4-3-5.3-7.3-5.3-11.9s1.9-8.8 5.2-11.9c3.7-3.4 8.3-7.1 12.5-10.6c2.3-1.9 4.6-3.7 6.5-5.4c6-5.1 10.8-9.7 14.1-14.4c1.6-2.2 2-5 1-7.6C438.3 18 435.3 16 432 16L320 16C187.5 16 80 123.5 80 256l0 32c0 58.7-14.1 132.5-59 180.3c-.1 .1-.2 .2-.4 .5c-4.5 4.6-5.8 11.4-3.4 17.4z"/><path class="fa-primary" d="M20.6 468.8s0 0 0 0l.2-.2 .2-.2s0 0 0 0c0 0 0 0 .1-.1C65.9 420.5 80 346.7 80 288l0-32C80 123.5 187.5 16 320 16l112 0c3.3 0 6.3 2 7.5 5.1c1 2.5 .6 5.4-1 7.6c-3.4 4.7-8.1 9.3-14.1 14.4c-1.9 1.6-4.1 3.4-6.5 5.4c0 0 0 0 0 0c-4.2 3.4-8.7 7.2-12.5 10.6c-3.3 3-5.3 7.4-5.2 11.9s1.9 8.8 5.3 11.9C452.2 124.7 496 190.3 496 288c0 58.6 14 132.4 59 180.3c0 0 0 0 0 0l.1 .1 .3 .3s0 0 0 0s0 0 0 0c4.5 4.6 5.8 11.4 3.4 17.3c-2.5 6-8.3 9.9-14.8 9.9l-128 0 0-176c0-70.7-57.3-128-128-128s-128 57.3-128 128l0 176L32 496c-6.5 0-12.3-3.9-14.8-9.9c-2.5-5.9-1.1-12.8 3.4-17.4zM176 496l0-176c0-61.9 50.1-112 112-112s112 50.1 112 112l0 176-224 0zm397.6-3.8c4.9-11.9 2.2-25.6-6.8-34.7c0 0 0 0 0 0l-.1-.1C525.8 413.8 512 345 512 288c0-94.9-39.4-161.6-84.2-206.2c-3.9-3.8-7.7-7.5-11.7-11c3.5-3.2 7.4-6.3 11.3-9.5l1.1-.9c8.4-6.9 17-14 23-22.4c4.7-6.5 5.9-15 2.9-22.7C450.8 6.1 441.9 0 432 0L320 0C178.6 0 64 114.6 64 256l0 32c0 57.1-13.9 125.9-54.6 169.4l-.2 .2c-9 9.1-11.7 22.8-6.8 34.7c5 12 16.6 19.8 29.6 19.8l512 0c12.9 0 24.6-7.8 29.6-19.8z"/></svg>