<svg xmlns="http://www.w3.org/2000/svg" viewBox="0 0 576 512"><!--! Font Awesome Pro 6.7.2 by @fontawesome - https://fontawesome.com License - https://fontawesome.com/license (Commercial License) Copyright 2024 Fonticons, Inc. --><defs><style>.fa-secondary{opacity:.4}</style></defs><path class="fa-secondary" d="M80 202.9L80 448c0 26.5 21.5 48 48 48l153.1 0-55.7-83.6c-1.2-1.8-1.6-4.1-1.1-6.3s1.9-4 3.8-5.1l102.1-58.4L226.8 254.1c-3.4-2.9-3.7-7.9-.9-11.3s7.9-3.7 11.3-.9l112 96c2 1.7 3 4.2 2.8 6.8s-1.7 4.9-4 6.2L243.4 410.7 300.3 496 448 496c26.5 0 48-21.5 48-48l0-245.1L288 18.7 80 202.9z"/><path class="fa-primary" d="M293.3 2c-3-2.7-7.6-2.7-10.6 0L2.7 250c-3.3 2.9-3.6 8-.7 11.3s8 3.6 11.3 .7L64 217.1 64 448c0 35.3 28.7 64 64 64l320 0c35.3 0 64-28.7 64-64l0-230.9L562.7 262c3.3 2.9 8.4 2.6 11.3-.7s2.6-8.4-.7-11.3L293.3 2zM80 448l0-245.1L288 18.7 496 202.9 496 448c0 26.5-21.5 48-48 48l-147.7 0-56.9-85.3L348 350.9c2.3-1.3 3.8-3.6 4-6.2s-.8-5.1-2.8-6.8l-112-96c-3.4-2.9-8.4-2.5-11.3 .9s-2.5 8.4 .9 11.3l103.4 88.6L228 401.1c-1.9 1.1-3.3 3-3.8 5.1s-.1 4.4 1.1 6.3L281.1 496 128 496c-26.5 0-48-21.5-48-48z"/></svg>