<svg xmlns="http://www.w3.org/2000/svg" viewBox="0 0 640 512"><!--! Font Awesome Pro 6.7.2 by @fontawesome - https://fontawesome.com License - https://fontawesome.com/license (Commercial License) Copyright 2024 Fonticons, Inc. --><defs><style>.fa-secondary{opacity:.4}</style></defs><path class="fa-secondary" d="M16 256l0 192c0 26.5 21.5 48 48 48l256 0c26.5 0 48-21.5 48-48l0-192c0-61.9-50.1-112-112-112l-128 0C66.1 144 16 194.1 16 256zM112 24l0 56 96 0 0-56c0-4.4-3.6-8-8-8l-80 0c-4.4 0-8 3.6-8 8zM240 248c0-22.1 17.9-40 40-40s40 17.9 40 40l0 80c0 22.1-17.9 40-40 40s-40-17.9-40-40l0-80zm167.1-44.9c5.8 16.6 8.9 34.3 8.9 52.9l0 192c0 10.9-1.8 21.4-5.2 31.2c10.8 10.4 25.5 16.8 41.6 16.8L564 496c33.1 0 60-26.9 60-60c0-15.4-5.8-29.4-15.4-40.1c-5.5-6.2-5.5-15.6 .2-21.6c9.4-10 15.1-23.5 15.1-38.3c0-14.6-5.6-27.9-14.8-37.9c-5.6-6.1-5.7-15.4-.1-21.5c9.3-10.4 14.9-24 14.9-39.1c0-22.7-13.1-43.4-33.7-53l-4.7-2.2c-8.9-4.1-18.5-6.3-28.3-6.3l-88.5 0c-11.2 0-22.2 2.5-32.3 7.2l-9.6 4.5c-7.8 3.7-14.6 9-19.9 15.5zM464 96l0 32 96 0 0-32c0-8.8-7.2-16-16-16l-64 0c-8.8 0-16 7.2-16 16z"/><path class="fa-primary" d="M120 16l80 0c4.4 0 8 3.6 8 8l0 56-96 0 0-56c0-4.4 3.6-8 8-8zM96 80L72 80c-4.4 0-8 3.6-8 8s3.6 8 8 8l24 0 16 0 96 0 16 0 24 0c4.4 0 8-3.6 8-8s-3.6-8-8-8l-24 0 0-56c0-13.3-10.7-24-24-24L120 0C106.7 0 96 10.7 96 24l0 56zm160 64c61.9 0 112 50.1 112 112l0 192c0 26.5-21.5 48-48 48L64 496c-26.5 0-48-21.5-48-48l0-192c0-61.9 50.1-112 112-112l128 0zM128 128C57.3 128 0 185.3 0 256L0 448c0 35.3 28.7 64 64 64l256 0c29.7 0 54.7-20.2 61.9-47.6c0 0 0 0 0 0c1.4-5.2 2.1-10.7 2.1-16.4l0-45.1s0 0 0 0l0-135.1s0 0 0 0l0-11.7c0-11.2-1.4-22-4.1-32.4c0 0 0 0 0 0C365.5 168.6 315.5 128 256 128l-128 0zm152 80c-22.1 0-40 17.9-40 40l0 80c0 22.1 17.9 40 40 40s40-17.9 40-40l0-80c0-22.1-17.9-40-40-40zm-24 40c0-13.3 10.7-24 24-24s24 10.7 24 24l0 80c0 13.3-10.7 24-24 24s-24-10.7-24-24l0-80zM404 494.6c13.2 10.9 30.1 17.4 48.4 17.4L564 512c42 0 76-34 76-76c0-19.5-7.4-37.3-19.5-50.8C632.6 372.3 640 355 640 336c0-18.8-7.2-35.9-19-48.8c11.8-13.2 19-30.6 19-49.7c0-28.9-16.7-55.2-42.9-67.5l-4.7-2.2c-11-5.1-23-7.8-35.1-7.8l-88.5 0c-13.5 0-26.9 3-39.1 8.7l-9.6 4.5c-7.4 3.5-14.1 8.1-19.8 13.7c2.5 5.3 4.8 10.7 6.7 16.3c5.3-6.5 12-11.8 19.9-15.5l9.6-4.5c10.1-4.7 21.1-7.2 32.3-7.2l88.5 0c9.8 0 19.4 2.2 28.3 6.3l4.7 2.2c20.6 9.6 33.7 30.3 33.7 53c0 15-5.6 28.7-14.9 39.1c-5.5 6.1-5.4 15.5 .1 21.5c9.2 10 14.8 23.3 14.8 37.9c0 14.8-5.7 28.3-15.1 38.3c-5.7 6.1-5.8 15.5-.2 21.6c9.6 10.6 15.4 24.7 15.4 40.1c0 33.1-26.9 60-60 60l-111.6 0c-16.1 0-30.8-6.3-41.6-16.8c-1.8 5.3-4.1 10.5-6.8 15.3zM464 96c0-8.8 7.2-16 16-16l64 0c8.8 0 16 7.2 16 16l0 32 16 0 0-32c0-17.7-14.3-32-32-32l-64 0c-17.7 0-32 14.3-32 32l0 32 16 0 0-32z"/></svg>