<svg xmlns="http://www.w3.org/2000/svg" viewBox="0 0 576 512"><!--! Font Awesome Pro 6.7.2 by @fontawesome - https://fontawesome.com License - https://fontawesome.com/license (Commercial License) Copyright 2024 Fonticons, Inc. --><defs><style>.fa-secondary{opacity:.4}</style></defs><path class="fa-secondary" d="M16.2 480.1c79.2-79.5 158.5-158.8 237.8-238.1c30.9 30.9 61.8 61.8 92.7 92.7c-6.2 6.2-6.2 16.4 0 22.6l9.4 9.4c6.4 6.4 6.1 16.3 0 21.9C287.4 453.1 217.7 496 112 496c-31.9 0-64.9-5.9-95.8-15.9zM313 186.3L479.8 19.6c2.3-2.3 5.4-3.6 8.6-3.6c3 0 5.8 1.1 8.1 3.1l59.9 53.3c2.3 2.1 3.7 5.1 3.7 8.2c0 2.8-1.1 5.5-3 7.5L458.8 193.3c-6.9 7.4-10.8 17.2-10.8 27.3l0 30.3c0 9.6-5.7 18.3-14.5 22.1l-26.6 11.4c-3 1.3-6.5 .6-8.8-1.7l-85-85c-3.1-3.1-3.1-8.2 0-11.3zM416 144a16 16 0 1 0 32 0 16 16 0 1 0 -32 0zm48-48a16 16 0 1 0 32 0 16 16 0 1 0 -32 0z"/><path class="fa-primary" d="M479.8 19.6L313 186.3c-3.1 3.1-3.1 8.2 0 11.3l85 85c2.3 2.3 5.8 3 8.8 1.7L433.5 273c8.8-3.8 14.5-12.5 14.5-22.1l0-30.3c0-10.1 3.8-19.9 10.8-27.3L557 88c1.9-2 3-4.7 3-7.5c0-3.1-1.3-6.1-3.7-8.2L496.4 19.1c-2.2-2-5.1-3.1-8.1-3.1c-3.2 0-6.3 1.3-8.6 3.6zM507 7.1l59.9 53.3c5.8 5.1 9.1 12.5 9.1 20.2c0 6.8-2.6 13.4-7.3 18.4L470.5 204.2c-4.1 4.4-6.5 10.3-6.5 16.4l0 30.3c0 16-9.5 30.5-24.2 36.8l-26.6 11.4c-9 3.9-19.5 1.9-26.4-5.1l-85-85c-9.4-9.4-9.4-24.6 0-33.9L468.4 8.2C473.7 3 480.9 0 488.3 0c6.9 0 13.5 2.5 18.7 7.1zM4.7 468.7L242.7 230.6l11.3 11.3L16.1 479.9c0 .1 .1 .2 .1 .2C47.1 490.1 80.1 496 112 496c105.7 0 175.4-42.9 244.2-107.5c6-5.7 6.3-15.6 0-21.9l-9.4-9.4c-6.2-6.2-6.2-16.4 0-22.6l21.7 21.7c11.5 12.6 11.3 32.2-1.3 43.9C296.6 466.3 223.2 512 112 512c-33.9 0-68.6-6.3-100.8-16.8C0 491.5-3.7 477.1 4.7 468.7zM416 144a16 16 0 1 1 32 0 16 16 0 1 1 -32 0zm64-64a16 16 0 1 1 0 32 16 16 0 1 1 0-32z"/></svg>