<svg xmlns="http://www.w3.org/2000/svg" viewBox="0 0 640 512"><!--! Font Awesome Pro 6.7.2 by @fontawesome - https://fontawesome.com License - https://fontawesome.com/license (Commercial License) Copyright 2024 Fonticons, Inc. --><defs><style>.fa-secondary{opacity:.4}</style></defs><path class="fa-secondary" d="M144 256c0-14.8 1.8-29.3 5.3-43c25.4 20.1 50.8 40.1 76.2 60.2C233.6 318 272.8 352 320 352c1.8 0 3.5 0 5.2-.1c25.4 20.1 50.8 40.1 76.2 60.2C377.1 424.8 349.4 432 320 432c-97.2 0-176-78.8-176-176zM238.5 99.9C262.9 87.2 290.6 80 320 80c97.2 0 176 78.8 176 176c0 14.8-1.8 29.3-5.3 43c-25.4-20.1-50.8-40.1-76.2-60.2C406.4 194 367.2 160 320 160c-1.8 0-3.5 0-5.2 .1c-25.4-20.1-50.8-40.1-76.2-60.2zM248 290.9c18.3 14.4 36.5 28.8 54.8 43.3c-24.2-5.3-44.3-21.5-54.8-43.3zm89.2-113c18.3 14.4 36.5 28.8 54.8 43.3c-10.5-21.7-30.6-38-54.8-43.3z"/><path class="fa-primary" d="M401.5 412.1C377.1 424.8 349.4 432 320 432c-97.2 0-176-78.8-176-176c0-14.8 1.8-29.3 5.3-43l-13.7-10.8c-4.3 14.6-6.8 30-7.5 45.8L72 248c-4.4 0-8 3.6-8 8s3.6 8 8 8l56.2 0c4.1 99.7 84.2 179.8 183.8 183.8l0 56.2c0 4.4 3.6 8 8 8s8-3.6 8-8l0-56.2c31.6-1.3 61.2-10.2 87.1-25l-13.6-10.8zM312 64.2c-31.6 1.3-61.2 10.2-87.1 25l13.6 10.8C262.9 87.2 290.6 80 320 80c97.2 0 176 78.8 176 176c0 14.8-1.8 29.3-5.3 43l13.7 10.8c4.3-14.6 6.8-30 7.5-45.8l56.2 0c4.4 0 8-3.6 8-8s-3.6-8-8-8l-56.2 0C507.8 148.3 427.7 68.2 328 64.2L328 8c0-4.4-3.6-8-8-8s-8 3.6-8 8l0 56.2zM320 352c1.8 0 3.5 0 5.2-.1l-22.4-17.7c-24.2-5.3-44.3-21.5-54.8-43.3l-22.5-17.7C233.6 318 272.8 352 320 352zm-5.2-191.9l22.4 17.7c24.2 5.3 44.3 21.5 54.8 43.3l22.5 17.7C406.4 194 367.2 160 320 160c-1.8 0-3.5 0-5.2 .1zM13 1.7C9.5-1 4.5-.4 1.7 3S-.4 11.5 3 14.3l624 496c3.5 2.7 8.5 2.2 11.2-1.3s2.2-8.5-1.3-11.2L13 1.7z"/></svg>