<svg xmlns="http://www.w3.org/2000/svg" viewBox="0 0 640 512"><!--! Font Awesome Pro 6.7.2 by @fontawesome - https://fontawesome.com License - https://fontawesome.com/license (Commercial License) Copyright 2024 Fonticons, Inc. --><defs><style>.fa-secondary{opacity:.4}</style></defs><path class="fa-secondary" d="M16 64l0 192c0 26.5 21.5 48 48 48l32 0c8.8 0 16 7.2 16 16l0 48 81.1-60.8c2.8-2.1 6.1-3.2 9.6-3.2L352 304c26.5 0 48-21.5 48-48l0-192c0-26.5-21.5-48-48-48L64 16C37.5 16 16 37.5 16 64zm127.3 61c0-23.2 18.8-42 42-42l39.8 0c26.2 0 47.5 21.3 47.5 47.5c0 16-8 30.9-21.4 39.7L216 193.4l0 16.6c0 4.4-3.6 8-8 8s-8-3.6-8-8l0-20.9c0-2.7 1.4-5.2 3.6-6.7l38.9-25.6c8.8-5.8 14.2-15.7 14.2-26.3c0-17.4-14.1-31.5-31.5-31.5l-39.8 0c-14.4 0-26 11.6-26 26l0 4.6c0 4.4-3.6 8-8 8s-8-3.6-8-8l0-4.6zm76 119a11.3 11.3 0 1 1 -22.7 0 11.3 11.3 0 1 1 22.7 0zM272 352l0 32c0 26.5 21.5 48 48 48l117.3 0c3.5 0 6.8 1.1 9.6 3.2L528 496l0-48c0-8.8 7.2-16 16-16l32 0c26.5 0 48-21.5 48-48l0-192c0-26.5-21.5-48-48-48l-128 0 0 112c0 53-43 96-96 96l-80 0z"/><path class="fa-primary" d="M193.1 307.2L112 368l0-48c0-8.8-7.2-16-16-16l-32 0c-26.5 0-48-21.5-48-48L16 64c0-26.5 21.5-48 48-48l288 0c26.5 0 48 21.5 48 48l0 192c0 26.5-21.5 48-48 48l-149.3 0c-3.5 0-6.8 1.1-9.6 3.2zm9.6 12.8L352 320c35.3 0 64-28.7 64-64l0-192c0-35.3-28.7-64-64-64L64 0C28.7 0 0 28.7 0 64L0 256c0 35.3 28.7 64 64 64l16 0 16 0 0 16 0 32c0 6.1 3.4 11.6 8.8 14.3s11.9 2.1 16.8-1.5L202.7 320zM256 384c0 35.3 28.7 64 64 64l117.3 0 81.1 60.8c4.8 3.6 11.3 4.2 16.8 1.5s8.8-8.2 8.8-14.3l0-32 0-16 16 0 16 0c35.3 0 64-28.7 64-64l0-192c0-35.3-28.7-64-64-64l-128 0 0 16 128 0c26.5 0 48 21.5 48 48l0 192c0 26.5-21.5 48-48 48l-32 0c-8.8 0-16 7.2-16 16l0 48-81.1-60.8c-2.8-2.1-6.1-3.2-9.6-3.2L320 432c-26.5 0-48-21.5-48-48l0-32-16 0 0 32zM143.3 125l0 4.6c0 4.4 3.6 8 8 8s8-3.6 8-8l0-4.6c0-14.4 11.6-26 26-26l39.8 0c17.4 0 31.5 14.1 31.5 31.5c0 10.6-5.3 20.5-14.2 26.3l-38.9 25.6c-2.2 1.5-3.6 4-3.6 6.7l0 20.9c0 4.4 3.6 8 8 8s8-3.6 8-8l0-16.6 35.3-23.3c13.3-8.8 21.4-23.7 21.4-39.7c0-26.2-21.3-47.5-47.5-47.5l-39.8 0c-23.2 0-42 18.8-42 42zm76 119a11.3 11.3 0 1 0 -22.7 0 11.3 11.3 0 1 0 22.7 0z"/></svg>