<svg xmlns="http://www.w3.org/2000/svg" viewBox="0 0 576 512"><!--! Font Awesome Pro 6.7.2 by @fontawesome - https://fontawesome.com License - https://fontawesome.com/license (Commercial License) Copyright 2024 Fonticons, Inc. --><defs><style>.fa-secondary{opacity:.4}</style></defs><path class="fa-secondary" d="M0 360c0 .2 0 .3 0 .5c.6 4.4 4.6 7.5 8.9 6.9c26.5-3.3 50-20.7 66.4-36.1c8.8-8.3 15.9-16.4 20.6-22.2c5.2 6.4 13.2 15.6 23.4 24.8c18 16.3 43.9 34.1 72.6 34.1c1.3 0 2.7 0 4-.1C216.2 397 249.9 416 288 416s71.8-19 92-48.1c1.5 .1 2.8 .1 4 .1c28.7 0 54.6-17.8 72.6-34.1c10.2-9.2 18.2-18.4 23.4-24.8c4.7 5.8 11.8 13.9 20.6 22.2c16.4 15.4 39.9 32.8 66.4 36.1c4.4 .6 8.4-2.6 8.9-6.9c0-.2 0-.3 .1-.5l0 143c-.2-3.8-3.1-7-7-7.5c-21.3-2.7-41.7-17.1-57.4-31.9c-9.1-8.6-17.7-18-25-28.3c-1.5-2.1-3.9-3.4-6.6-3.4s-5.1 1.3-6.6 3.4c-7.9 11.2-17.5 21.5-27.6 30.7C428.6 481.8 406.5 496 384 496s-44.6-14.2-61.8-29.9c-10.1-9.2-19.6-19.5-27.6-30.7c-3-4.3-10.2-4.3-13.2 0c-8 11.2-17.5 21.4-27.6 30.7C236.6 481.8 214.5 496 192 496s-44.6-14.2-61.8-29.9c-10.1-9.2-19.7-19.5-27.6-30.7c-1.5-2.1-3.9-3.4-6.6-3.4s-5.1 1.3-6.6 3.4c-7.3 10.3-15.9 19.6-25 28.3C48.7 478.5 28.3 492.9 7 495.6c-4 .5-7 4-7 7.9c0 .2 0 .4 0 .5c0-48 0-96 0-144zm352-56a64 64 0 1 1 -128 0 64 64 0 1 1 128 0z"/><path class="fa-primary" d="M280 24c0-13.3 10.7-24 24-24l72 0c4.4 0 8 3.6 8 8s-3.6 8-8 8l-72 0c-4.4 0-8 3.6-8 8l0 72 80 0c4.4 0 8 3.6 8 8s-3.6 8-8 8l-80 0 0 112.4c40.4 4 72 38.1 72 79.6c0 44.2-35.8 80-80 80s-80-35.8-80-80c0-41.5 31.6-75.6 72-79.6L280 104l0-80zM224 304a64 64 0 1 0 128 0 64 64 0 1 0 -128 0zm156 63.9c3.5-5.1 6.7-10.5 9.3-16.1c20.6-2 40.6-15.2 56.5-29.7c10.1-9.2 19.7-19.5 27.6-30.7c1.5-2.1 3.9-3.4 6.6-3.4s5.1 1.3 6.6 3.4c7.3 10.3 15.9 19.6 25 28.3c15.7 14.8 36.1 29.2 57.4 31.9c4.4 .6 7.5 4.6 6.9 8.9s-4.6 7.5-8.9 6.9c-26.5-3.3-50-20.7-66.4-36.1c-8.8-8.3-15.9-16.4-20.6-22.2c-5.2 6.4-13.3 15.6-23.4 24.8c-18 16.3-43.9 34.1-72.6 34.1c-1.3 0-2.7 0-4-.1zM192 368c-28.7 0-54.6-17.8-72.6-34.1c-10.2-9.2-18.2-18.4-23.4-24.8c-4.7 5.8-11.8 13.9-20.6 22.2C59 346.7 35.5 364.1 9 367.4c-4.4 .6-8.4-2.6-8.9-6.9s2.6-8.4 6.9-8.9c21.3-2.7 41.7-17.1 57.4-31.9c9.1-8.6 17.7-18 25-28.3c1.5-2.1 3.9-3.4 6.6-3.4s5.1 1.3 6.6 3.4c7.9 11.2 17.5 21.5 27.6 30.7c15.9 14.4 35.9 27.7 56.5 29.7c2.7 5.7 5.8 11.1 9.3 16.1c-1.3 .1-2.7 .1-4 .1zm102.6 67.4c8 11.2 17.5 21.4 27.6 30.7C339.5 481.8 361.5 496 384 496s44.6-14.2 61.8-29.9c10.1-9.2 19.7-19.5 27.6-30.7c1.5-2.1 3.9-3.4 6.6-3.4s5.1 1.3 6.6 3.4c7.3 10.3 15.9 19.6 25 28.3c15.7 14.8 36.1 29.2 57.4 31.9c4.4 .6 7.5 4.6 6.9 8.9s-4.6 7.5-8.9 6.9c-26.5-3.3-50-20.7-66.4-36.1c-8.8-8.3-15.9-16.4-20.6-22.2c-5.2 6.4-13.3 15.6-23.4 24.8c-18 16.3-43.9 34.1-72.6 34.1s-54.6-17.8-72.6-34.1c-10.2-9.2-18.2-18.4-23.4-24.8c0 0 0 0 0 0c0 0 0 0 0 0c-5.2 6.4-13.3 15.6-23.4 24.8c-18 16.3-43.9 34.1-72.6 34.1s-54.6-17.8-72.6-34.1c-10.2-9.2-18.2-18.4-23.4-24.8c-4.7 5.8-11.8 13.9-20.6 22.2C59 490.7 35.5 508.1 9 511.4c-4.4 .6-8.4-2.6-8.9-6.9s2.6-8.4 6.9-8.9c21.3-2.7 41.7-17.1 57.4-31.9c9.1-8.6 17.7-18 25-28.3c1.5-2.1 3.9-3.4 6.6-3.4s5.1 1.3 6.6 3.4c7.9 11.2 17.5 21.5 27.6 30.7C147.4 481.8 169.5 496 192 496s44.6-14.2 61.8-29.9c10.1-9.2 19.6-19.5 27.6-30.7c3-4.3 10.2-4.3 13.2 0z"/></svg>