<svg xmlns="http://www.w3.org/2000/svg" viewBox="0 0 512 512"><!--! Font Awesome Pro 6.7.2 by @fontawesome - https://fontawesome.com License - https://fontawesome.com/license (Commercial License) Copyright 2024 Fonticons, Inc. --><defs><style>.fa-secondary{opacity:.4}</style></defs><path class="fa-secondary" d="M16 64l0 224c39.8 0 72 32.2 72 72l0 32c0 22.1 17.9 40 40 40s40-17.9 40-40l0-40-24 0c-17.7 0-32-14.3-32-32l0-64c0-17.7 14.3-32 32-32l64 0c17.7 0 32 14.3 32 32l0 64c0 17.7-14.3 32-32 32l-24 0 0 40c0 30.9-25.1 56-56 56s-56-25.1-56-56l0-32c0-30.9-25.1-56-56-56l0 144c0 26.5 21.5 48 48 48l384 0c26.5 0 48-21.5 48-48l0-384c0-26.5-21.5-48-48-48L64 16C37.5 16 16 37.5 16 64zM88 88c0-4.4 3.6-8 8-8l128 0c4.4 0 8 3.6 8 8s-3.6 8-8 8L96 96c-4.4 0-8-3.6-8-8zm0 64c0-4.4 3.6-8 8-8l128 0c4.4 0 8 3.6 8 8s-3.6 8-8 8L96 160c-4.4 0-8-3.6-8-8zM280 88c0-4.4 3.6-8 8-8l128 0c4.4 0 8 3.6 8 8s-3.6 8-8 8L288 96c-4.4 0-8-3.6-8-8zm0 64c0-4.4 3.6-8 8-8l128 0c4.4 0 8 3.6 8 8s-3.6 8-8 8l-128 0c-4.4 0-8-3.6-8-8zm8 104c0-17.7 14.3-32 32-32l64 0c17.7 0 32 14.3 32 32l0 160c0 17.7-14.3 32-32 32l-64 0c-17.7 0-32-14.3-32-32l0-160z"/><path class="fa-primary" d="M64 16l384 0c26.5 0 48 21.5 48 48l0 384c0 26.5-21.5 48-48 48L64 496c-26.5 0-48-21.5-48-48l0-144c30.9 0 56 25.1 56 56l0 32c0 30.9 25.1 56 56 56s56-25.1 56-56l0-40 24 0c17.7 0 32-14.3 32-32l0-64c0-17.7-14.3-32-32-32l-64 0c-17.7 0-32 14.3-32 32l0 64c0 17.7 14.3 32 32 32l24 0 0 40c0 22.1-17.9 40-40 40s-40-17.9-40-40l0-32c0-39.8-32.2-72-72-72L16 64c0-26.5 21.5-48 48-48zM0 296L0 448c0 35.3 28.7 64 64 64l384 0c35.3 0 64-28.7 64-64l0-384c0-35.3-28.7-64-64-64L64 0C28.7 0 0 28.7 0 64L0 296zM96 80c-4.4 0-8 3.6-8 8s3.6 8 8 8l128 0c4.4 0 8-3.6 8-8s-3.6-8-8-8L96 80zm192 0c-4.4 0-8 3.6-8 8s3.6 8 8 8l128 0c4.4 0 8-3.6 8-8s-3.6-8-8-8L288 80zM96 144c-4.4 0-8 3.6-8 8s3.6 8 8 8l128 0c4.4 0 8-3.6 8-8s-3.6-8-8-8L96 144zm192 0c-4.4 0-8 3.6-8 8s3.6 8 8 8l128 0c4.4 0 8-3.6 8-8s-3.6-8-8-8l-128 0zM208 336l-32 0-32 0c-8.8 0-16-7.2-16-16l0-64c0-8.8 7.2-16 16-16l64 0c8.8 0 16 7.2 16 16l0 64c0 8.8-7.2 16-16 16zm112-96l64 0c8.8 0 16 7.2 16 16l0 160c0 8.8-7.2 16-16 16l-64 0c-8.8 0-16-7.2-16-16l0-160c0-8.8 7.2-16 16-16zm-32 16l0 160c0 17.7 14.3 32 32 32l64 0c17.7 0 32-14.3 32-32l0-160c0-17.7-14.3-32-32-32l-64 0c-17.7 0-32 14.3-32 32z"/></svg>