<svg xmlns="http://www.w3.org/2000/svg" viewBox="0 0 512 512"><!--! Font Awesome Pro 6.7.2 by @fontawesome - https://fontawesome.com License - https://fontawesome.com/license (Commercial License) Copyright 2024 Fonticons, Inc. --><defs><style>.fa-secondary{opacity:.4}</style></defs><path class="fa-secondary" d="M128 80a32 32 0 1 0 64 0 32 32 0 1 0 -64 0zm21.3 135.2l21.1 84.5C175.8 321 195 336 217 336l6.3 0 .3 0c.2 0 .5 0 .7 0l.3 0c31.4 0 62.7 0 94.1 0c13.3 0 25.3 8.3 30 20.8L385 453.6c3 8.1 11.9 12.3 20 9.6l48-16c8.4-2.8 12.9-11.9 10.1-20.2s-11.9-12.9-20.2-10.1l-18.7 6.2c-8.2 2.7-17-1.5-20-9.6l-25.5-68c-9.4-25-33.2-41.5-59.9-41.5L249 304c-7.3 0-13.7-5-15.5-12.1l-8-32c-1.2-4.8-.1-9.8 2.9-13.7s7.7-6.2 12.6-6.2l79 0c8.8 0 16-7.2 16-16s-7.2-16-16-16l-95.2 0c-6.8 0-12.9-4.3-15.1-10.8c-4.3-12.6-16.3-21.2-29.8-21.2c-20.5 0-35.6 19.3-30.6 39.2z"/><path class="fa-primary" d="M241 240c-4.9 0-9.6 2.3-12.6 6.2s-4.1 8.9-2.9 13.7l8 32c1.8 7.1 8.2 12.1 15.5 12.1l69.8 0c26.7 0 50.6 16.5 59.9 41.5l25.5 68c3 8.1 11.9 12.3 20 9.6l18.7-6.2c8.4-2.8 17.4 1.7 20.2 10.1s-1.7 17.4-10.1 20.2l-48 16c-8.2 2.7-17-1.5-20-9.6l-36.3-96.9c-4.7-12.5-16.6-20.8-30-20.8l-94.1 0s0 0 0 0l-.3 0c-.2 0-.5 0-.7 0c0 0 0 0 0 0l-.3 0-6.3 0c-22 0-41.2-15-46.6-36.4l-21.1-84.5c-5-19.9 10.1-39.2 30.6-39.2c13.5 0 25.4 8.6 29.8 21.2c2.2 6.5 8.3 10.8 15.1 10.8l95.2 0c8.8 0 16 7.2 16 16s-7.2 16-16 16l-79 0zM128 80a32 32 0 1 1 64 0 32 32 0 1 1 -64 0zM249 288l-4-16-4-16 16.5 0 62.5 0c17.7 0 32-14.3 32-32s-14.3-32-32-32l-95.2 0c-6.6-19-24.5-32-44.9-32c-30.9 0-53.6 29.1-46.1 59l21.1 84.5C162 332 187.6 352 217 352l6.3 0c.5 0 .9 0 1.4 0l94.1 0c6.7 0 12.6 4.1 15 10.4L370 459.2c6 16.1 23.8 24.6 40.1 19.1l48-16c16.8-5.6 25.8-23.7 20.2-40.5s-23.7-25.8-40.5-20.2l-18.7 6.2-25.5-68c-11.7-31.2-41.6-51.9-74.9-51.9L249 288zM208 80a48 48 0 1 0 -96 0 48 48 0 1 0 96 0zM47.8 134.4c-.9-4.3-5.1-7.1-9.4-6.2s-7.1 5.1-6.2 9.4L72.4 333c10 48.3 52.5 83 101.9 83L296 416c4.4 0 8-3.6 8-8s-3.6-8-8-8l-121.8 0c-41.8 0-77.8-29.4-86.2-70.3L47.8 134.4z"/></svg>