<svg xmlns="http://www.w3.org/2000/svg" viewBox="0 0 512 512"><!--! Font Awesome Pro 6.7.2 by @fontawesome - https://fontawesome.com License - https://fontawesome.com/license (Commercial License) Copyright 2024 Fonticons, Inc. --><defs><style>.fa-secondary{opacity:.4}</style></defs><path class="fa-secondary" d="M20.5 468.9c-6 6.3-5.9 16.2 .2 22.4s16.1 6.3 22.4 .2L326.4 219.1c-5.3-5.9-10.8-11.6-16.4-17.1s-11.3-11-17.1-16.4L20.5 468.9zM144.2 34.5C219.1 62.8 288.7 112.7 344 168c55.6 55.6 104.7 125 133.3 199.8c38.1-94 15.4-205.3-56.6-277.1C348.9 19.1 238-3.3 144.2 34.5zM284.9 178.2c2.7 2.4 5.4 4.9 8.1 7.3c-2.8-2.4-5.5-4.9-8.1-7.3zm41.6 40.9c2.4 2.7 4.9 5.4 7.2 8c-2.3-2.8-4.7-5.4-7.2-8z"/><path class="fa-primary" d="M477.3 367.8c0 0 .1 0 .1 0s.1 0 .1 0c38-94 15.3-205.3-56.8-277.1C348.9 19.1 238-3.3 144.2 34.5c0 0 0 .1 0 .1s0 .1 0 .1C219.1 62.8 288.7 112.7 344 168c55.6 55.6 104.7 125 133.3 199.8zM138.5 49.6c-13.4-5-13.7-24.5-.5-29.8C237.7-20.6 355.6 3.2 432 79.3C508.6 155.7 532.7 274 492.2 374c-5.4 13.3-24.9 13-29.8-.5C434.7 301.2 387 233.7 332.7 179.3C278.6 125.2 210.8 76.8 138.5 49.6zM20.5 468.9c-6 6.3-5.9 16.2 .2 22.4s16.1 6.3 22.4 .2L326.4 219.1c3.6 4 7.2 8 10.6 12L54.2 503.1c-12.6 12.1-32.5 11.9-44.8-.4S-3.1 470.4 8.9 457.8l272-282.9c4 3.4 8 7 12 10.6L20.5 468.9zM429.7 18.3l64 64c3.1 3.1 3.1 8.2 0 11.3s-8.2 3.1-11.3 0l-64-64c-3.1-3.1-3.1-8.2 0-11.3s8.2-3.1 11.3 0z"/></svg>