<svg xmlns="http://www.w3.org/2000/svg" viewBox="0 0 512 512"><!--! Font Awesome Pro 6.7.2 by @fontawesome - https://fontawesome.com License - https://fontawesome.com/license (Commercial License) Copyright 2024 Fonticons, Inc. --><defs><style>.fa-secondary{opacity:.4}</style></defs><path class="fa-secondary" d="M107.2 267.2l63.1 63.1L249 251.7l43.4-137.3c-.7 .4-1.4 .8-2.1 1.1L148.5 182l-41.3 85.2zm52.4-108.1l123.8-58.1c2.8-1.3 4.6-4.1 4.6-7.2L288 24c0-4.4-3.6-8-8-8l-46 0c-3.1 0-5.9 1.8-7.2 4.5L159.6 159.2zm22.1 182.5l63 63c28.5-13.7 56.9-27.4 85.3-41.2l66.5-141.7c.3-.7 .7-1.4 1.1-2.1L260.3 263l-78.6 78.6zm86.6-97.9L400 202.1l0-82.1c0-4.4-3.6-8-8-8l-82.1 0L268.3 243.7zm84.6 108.7l138.7-67.2c2.8-1.3 4.5-4.1 4.5-7.2l0-46c0-4.4-3.6-8-8-8l-69.8 0c-3.1 0-5.9 1.8-7.2 4.6L352.8 352.4z"/><path class="fa-primary" d="M226.8 20.5c1.3-2.8 4.1-4.5 7.2-4.5l46 0c4.4 0 8 3.6 8 8l0 69.8c0 3.1-1.8 5.9-4.6 7.2L159.6 159.2 226.8 20.5zm63.4 95.1c.7-.3 1.4-.7 2.1-1.1L249 251.7l-78.6 78.6-63-63-.1-.1L148.5 182l141.7-66.5zM303.9 96c.1-.7 .1-1.4 .1-2.2L304 24c0-13.3-10.7-24-24-24L234 0c-9.2 0-17.6 5.3-21.6 13.5L93.8 258.2l-9.1 9.1L33.1 318.9C11.9 340.1 0 368.9 0 398.9C0 461.3 50.7 512 113.1 512c30 0 58.8-11.9 80-33.1l51.5-51.5 9.1-9.1L498.5 299.6c8.3-4 13.5-12.4 13.5-21.6l0-46c0-13.3-10.7-24-24-24l-69.8 0c-.7 0-1.4 0-2.2 .1l0-.1 0-88c0-13.3-10.7-24-24-24l-88 0-.1 0zM330 363.5l-85.2 41.3-.1-.1-63-63L260.3 263l137.3-43.4c-.4 .7-.8 1.4-1.1 2.1L330 363.5zM268.3 243.7L309.9 112l82.1 0c4.4 0 8 3.6 8 8l0 82.1L268.3 243.7zM53 321.7l43-43L233.4 416l-43 43L53 321.7zM179 470.3c-17.9 16.5-41.4 25.7-65.8 25.7C59.5 496 16 452.5 16 398.9c0-24.4 9.2-47.9 25.7-65.8L179 470.3zM496 278c0 3.1-1.8 5.9-4.5 7.2L352.8 352.4l58.1-123.8c1.3-2.8 4.1-4.6 7.2-4.6l69.8 0c4.4 0 8 3.6 8 8l0 46z"/></svg>