<svg xmlns="http://www.w3.org/2000/svg" viewBox="0 0 512 512"><!--! Font Awesome Pro 6.7.2 by @fontawesome - https://fontawesome.com License - https://fontawesome.com/license (Commercial License) Copyright 2024 Fonticons, Inc. --><defs><style>.fa-secondary{opacity:.4}</style></defs><path class="fa-secondary" d="M39.2 267.1c-14.3 68.4-10.2 138.8 1 192.8c0 .2 .1 .4 .1 .6L169.6 331.1c-35.3-33.1-80.4-56.1-130.5-64zm3.6-15.6c53 8.6 100.7 33.1 138.2 68.3L244.7 256 110.1 121.4C98.5 134.1 88.4 147.7 79.7 162c-17.1 27.9-29 58.3-36.9 89.5zM51.3 472c.6 .2 1.2 .3 1.8 .4c75.4 12.6 138.9 12.3 192 2c-7.7-50.7-30.7-96.3-64.2-132L51.3 472zm69.9-362L256 244.7l63.8-63.8C284.1 143.1 259.5 94.7 251.2 41c-12.9 3.1-25.1 6.8-36.7 11.1c-37.7 14-68.4 33.9-93.2 57.8zm71 221.1c35.6 37.8 60.2 86.2 68.6 139.9c12.9-3.1 25.1-6.8 36.7-11.1c37.7-14 68.4-33.9 93.2-57.8L256 267.3l-63.8 63.8zM266.8 37.6c7.7 50.7 30.7 96.3 64.2 132L460.7 40c-.6-.2-1.2-.3-1.8-.4c-75.4-12.6-138.9-12.3-192-2zm.5 218.4L401.9 390.6c11.6-12.7 21.7-26.2 30.4-40.5c17.1-27.9 29-58.3 36.9-89.5c-53-8.6-100.7-33.1-138.2-68.3L267.3 256zm75.1-75.1c35.3 33.1 80.4 56.1 130.5 64c14.3-68.4 10.2-138.8-1-192.8c0-.2-.1-.4-.1-.6L342.4 180.9z"/><path class="fa-primary" d="M266.8 37.6c53.1-10.3 116.6-10.6 192 2c.6 .1 1.2 .2 1.8 .4L331.1 169.6c-33.5-35.7-56.5-81.3-64.2-132zm-1.9-15.9s0 0 0 0c-5.3 1-10.6 2.1-15.8 3.4c0 0 0 0 0 0c-14.1 3.3-27.5 7.4-40.3 12.1C169 52 136.3 73.2 110 98.6c0 0 0 0 0 0c-3.9 3.7-7.6 7.6-11.2 11.5c0 0 0 0 0 0C86.3 123.7 75.4 138.3 66 153.6c-18.4 29.9-31 62.5-39.2 95.7c0 0 0 0 0 0c-1.3 5.2-2.5 10.5-3.6 15.7c0 0 0 0 0 0c-14.6 70.8-10.1 143.1 1.2 198c.7 3.4 1.9 6.6 3.6 9.5c0 0 0 0 0 0c1.9 3.3 4.4 6.2 7.3 8.6c.7 .5 1.3 1.1 2 1.6c3.8 2.7 8.3 4.6 13.1 5.4c103.9 17.4 187 11 252.6-13.3c66-24.5 112.2-66.5 142.9-116.5c60.2-98.2 59.1-224.7 41.6-309.5c-1.5-7.3-5.4-13.6-10.9-18.2c-.7-.6-1.4-1.1-2.2-1.6c-.6-.4-1.2-.8-1.8-1.1c0 0 0 0 0 0c-3.4-2-7.2-3.5-11.2-4.1c-76.3-12.7-141.4-12.7-196.6-2.2zM471.8 51.6c.1 .2 .1 .4 .1 .6c11.1 53.9 15.3 124.4 1 192.8c-50-7.9-95.1-30.8-130.5-64L471.8 51.6zm-2.5 209c-7.9 31.2-19.8 61.6-36.9 89.5c-8.8 14.3-18.9 27.9-30.4 40.5L267.3 256l63.8-63.8c37.4 35.2 85.1 59.7 138.2 68.3zM390.7 402c-24.8 23.9-55.5 43.8-93.2 57.8c-11.6 4.3-23.8 8-36.7 11.1c-8.4-53.7-33-102.1-68.6-139.9L256 267.3 390.7 402zM245.2 474.4c-53.1 10.3-116.6 10.6-192-2c-.6-.1-1.2-.2-1.8-.4L180.9 342.4c33.5 35.7 56.5 81.3 64.2 132zm-204.9-14c0-.2-.1-.4-.1-.6c-11.1-53.9-15.3-124.4-1-192.8c50 7.9 95.1 30.8 130.5 64L40.2 460.4zm2.5-209c7.9-31.2 19.8-61.6 36.9-89.5c8.8-14.3 18.9-27.9 30.4-40.5L244.7 256l-63.8 63.8c-37.4-35.2-85.1-59.7-138.2-68.3zM121.3 110c24.8-23.9 55.5-43.8 93.2-57.8c11.6-4.3 23.8-8 36.7-11.1c8.4 53.7 33 102.1 68.6 139.9L256 244.7 121.3 110z"/></svg>