<svg xmlns="http://www.w3.org/2000/svg" viewBox="0 0 640 512"><!--! Font Awesome Pro 6.7.2 by @fontawesome - https://fontawesome.com License - https://fontawesome.com/license (Commercial License) Copyright 2024 Fonticons, Inc. --><defs><style>.fa-secondary{opacity:.4}</style></defs><path class="fa-secondary" d="M16 190.4c0 12.4 8.5 23.3 20.5 26.3L451.9 320.5c7.1 1.8 12.1 8.2 12.1 15.5l0 80 160 0 0-80 0-16 0-4.7c0-30.3-17.1-58-44.2-71.6L253.6 80.7C231.6 69.7 207.5 64 182.9 64c-49.7 0-96.5 23.4-126.3 63.2l-35.2 47c-3.5 4.7-5.4 10.4-5.4 16.3zM48 448c0 8.8 7.2 16 16 16l528 0c17.7 0 32-14.3 32-32l-160 0-16 0L64 432c-8.8 0-16 7.2-16 16z"/><path class="fa-primary" d="M448 352l0 64L64 416c-17.7 0-32 14.3-32 32s14.3 32 32 32l528 0c26.5 0 48-21.5 48-48l0-8 0-8 0-80 0-16 0-4.7c0-36.4-20.5-69.6-53.1-85.9L260.7 66.4C236.6 54.3 209.9 48 182.9 48C128.2 48 76.7 73.8 43.8 117.6l-35.2 47C3 172 0 181 0 190.4c0 19.8 13.5 37 32.6 41.8L48 236l0 92c0 13.3 10.7 24 24 24l376 0zm0-16L72 336c-4.4 0-8-3.6-8-8l0-88 384 96zm176 80l-160 0 0-80c0-7.3-5-13.7-12.1-15.5L36.5 216.6c-12.1-3-20.5-13.8-20.5-26.3c0-5.9 1.9-11.6 5.4-16.3l35.2-47C86.5 87.4 133.2 64 182.9 64c24.5 0 48.7 5.7 70.6 16.7L579.8 243.8C606.9 257.3 624 285 624 315.3l0 4.7 0 16 0 80zM464 432l160 0c0 17.7-14.3 32-32 32L64 464c-8.8 0-16-7.2-16-16s7.2-16 16-16l384 0 16 0z"/></svg>