<svg xmlns="http://www.w3.org/2000/svg" viewBox="0 0 448 512"><!--! Font Awesome Pro 6.7.2 by @fontawesome - https://fontawesome.com License - https://fontawesome.com/license (Commercial License) Copyright 2024 Fonticons, Inc. --><defs><style>.fa-secondary{opacity:.4}</style></defs><path class="fa-secondary" d="M32 304a192 192 0 1 0 384 0A192 192 0 1 0 32 304zm80.2-73.9l.3-1.4c5.4-21.6 24.8-36.7 47-36.7c26.7 0 48.4 21.7 48.4 48.4l0 13c0 13.9-5.2 27.4-14.6 37.7l-42.6 46.8c-14.7 16.2-22.9 37.3-22.9 59.2l0 2.9 72 0c4.4 0 8 3.6 8 8s-3.6 8-8 8l-80 0c-4.4 0-8-3.6-8-8l0-10.9c0-25.9 9.6-50.8 27-70l42.6-46.8c6.7-7.4 10.4-17 10.4-26.9l0-13c0-17.9-14.5-32.4-32.4-32.4c-14.9 0-27.9 10.1-31.5 24.6l-.3 1.4c-1.1 4.3-5.4 6.9-9.7 5.8s-6.9-5.4-5.8-9.7zM240 240c0-26.5 21.5-48 48-48s48 21.5 48 48l0 128c0 26.5-21.5 48-48 48s-48-21.5-48-48l0-128zm16 0l0 128c0 17.7 14.3 32 32 32s32-14.3 32-32l0-128c0-17.7-14.3-32-32-32s-32 14.3-32 32z"/><path class="fa-primary" d="M152 0c-4.4 0-8 3.6-8 8s3.6 8 8 8l64 0 0 80.2C104.8 100.4 16 191.8 16 304c0 114.9 93.1 208 208 208s208-93.1 208-208c0-50.5-18-96.8-47.9-132.8l37.6-37.6c3.1-3.1 3.1-8.2 0-11.3s-8.2-3.1-11.3 0l-36.9 36.9c-36.1-37.2-86-61-141.4-63.1L232 16l64 0c4.4 0 8-3.6 8-8s-3.6-8-8-8L152 0zM32 304a192 192 0 1 1 384 0A192 192 0 1 1 32 304zm208-64l0 128c0 26.5 21.5 48 48 48s48-21.5 48-48l0-128c0-26.5-21.5-48-48-48s-48 21.5-48 48zm48-32c17.7 0 32 14.3 32 32l0 128c0 17.7-14.3 32-32 32s-32-14.3-32-32l0-128c0-17.7 14.3-32 32-32zM128.1 232.6c3.6-14.4 16.6-24.6 31.5-24.6c17.9 0 32.4 14.5 32.4 32.4l0 13c0 10-3.7 19.5-10.4 26.9L139 327.2c-17.4 19.1-27 44.1-27 70l0 10.9c0 4.4 3.6 8 8 8l80 0c4.4 0 8-3.6 8-8s-3.6-8-8-8l-72 0 0-2.9c0-21.9 8.2-43 22.9-59.2l42.6-46.8c9.4-10.3 14.6-23.7 14.6-37.7l0-13c0-26.7-21.7-48.4-48.4-48.4c-22.2 0-41.6 15.1-47 36.7l-.3 1.4c-1.1 4.3 1.5 8.6 5.8 9.7s8.6-1.5 9.7-5.8l.3-1.4z"/></svg>