<svg width="48" height="48" viewBox="0 0 123 98" fill="none" xmlns="http://www.w3.org/2000/svg" stroke-width="1px"
     stroke-linecap="round" stroke-linejoin="round">
    <path d="M82.8999 56.1199V56.5499C82.8999 56.5499 82.9299 56.5099 82.9499 56.4899C82.9099 56.3699 82.8999 56.2499 82.8999 56.1199Z" stroke="currentColor" stroke-linejoin="round"/>
    <path d="M44.0201 11.2499V11.2699C44.0201 12.2799 43.3501 13.1699 42.0201 13.9399L28.05 21.9999L21.3401 25.8799L14.1801 30.0099C12.8401 30.7899 11.2901 31.1699 9.53009 31.1699C7.77009 31.1699 6.22006 30.7699 4.87006 29.9999C3.52006 29.2199 2.84008 28.3199 2.83008 27.2999C2.83008 26.2899 3.50009 25.3899 4.84009 24.6199L21.3401 15.0899L28.04 11.2199L23.3701 8.52994C22.0201 7.74994 21.3401 6.84994 21.3401 5.83994C21.3301 4.81994 22.0001 3.92994 23.3401 3.14994C24.6801 2.37994 26.2301 1.98994 27.9901 1.99994C29.7501 1.99994 31.3001 2.38994 32.6501 3.16994L41.9901 8.55994C43.3401 9.33994 44.0201 10.2399 44.0201 11.2499Z" stroke="currentColor" stroke-linejoin="round"/>
    <path d="M83.56 34.62V34.64C83.56 36 82.68 37.19 80.94 38.2L71.66 43.55C71 43.93 70.3 44.24 69.56 44.48C68.31 44.87 66.95 45.07 65.46 45.07C63.08 45.06 61.01 44.55 59.25 43.53L54.8 40.96L52.47 39.61L46.8 36.34L40.61 39.91L46.8 43.48L54.62 48C55.97 48.78 56.64 49.68 56.65 50.69C56.65 51.71 55.99 52.6 54.65 53.38C54.55 53.44 54.44 53.5 54.34 53.55C53.07 54.21 51.63 54.54 50 54.53C48.84 54.53 47.78 54.36 46.8 54.02C46.29 53.85 45.8 53.63 45.34 53.36L39.56 50.02L26.86 42.69L26.66 42.58C25.31 41.8 24.63 40.9 24.63 39.89C24.62 38.87 25.29 37.98 26.63 37.2L37.46 30.95C39.09 30.01 41.01 29.5 43.19 29.45C43.34 29.44 43.5 29.44 43.65 29.44C43.78 29.44 43.9 29.44 44.02 29.45C46.25 29.5 48.2 30 49.87 30.97L52.47 32.47L62.32 38.16L68.51 34.59L54.5 26.5C53.15 25.72 52.47 24.83 52.47 23.81C52.46 22.8 53.13 21.9 54.47 21.13C55.81 20.35 57.36 19.97 59.12 19.97C60.88 19.97 62.43 20.36 63.78 21.14L80.9 31.03C82.67 32.05 83.55 33.24 83.56 34.62Z" stroke="currentColor" stroke-linejoin="round"/>
    <path d="M120.92 56.1799V76.1799C120.92 77.5599 120.05 78.7499 118.3 79.7599L93.55 94.0499C91.8 95.0599 89.73 95.5699 87.35 95.5599C84.97 95.5599 82.9 95.0499 81.14 94.0299L64.01 84.1399C62.67 83.3699 61.99 82.4699 61.98 81.4499V61.4499C61.99 62.4699 62.67 63.3699 64.01 64.1399L65.61 65.0699L81.14 74.0299C81.69 74.3499 82.28 74.6199 82.9 74.8399C83.04 74.8899 83.18 74.9399 83.32 74.9799C84.55 75.3699 85.89 75.5599 87.35 75.5599C88.83 75.5699 90.2 75.3699 91.44 74.9799C92.19 74.7399 92.89 74.4299 93.55 74.0499L97.88 71.5499L107.16 66.1899L118.3 59.7599C120.05 58.7499 120.92 57.5599 120.92 56.1799Z" stroke="currentColor" stroke-linejoin="round"/>
    <path d="M93.4899 63.3L89.8299 65.41L87.2999 66.87L82.8999 64.33V56.55C82.8999 56.55 82.9299 56.51 82.9499 56.49C83.0599 57.04 83.4699 57.52 84.1499 57.91L89.8299 61.19L92.1399 62.52L93.4899 63.3Z" stroke="currentColor" stroke-linejoin="round"/>
    <path d="M120.92 56.18C120.92 57.56 120.05 58.75 118.3 59.76L107.16 66.19L97.88 71.55L93.55 74.05C92.89 74.43 92.19 74.74 91.44 74.98C90.2 75.37 88.83 75.57 87.35 75.56C85.89 75.56 84.55 75.37 83.32 74.98C83.18 74.94 83.04 74.89 82.9 74.84C82.28 74.62 81.69 74.35 81.14 74.03L65.61 65.07L64.01 64.14C62.67 63.37 61.99 62.47 61.98 61.45C61.98 60.44 62.64 59.54 63.99 58.77C65.33 58 66.88 57.61 68.63 57.61C70.39 57.62 71.95 58.01 73.3 58.79L76.61 60.7L82.9 64.33L87.3 66.87L89.83 65.41L93.49 63.3L92.14 62.52L89.83 61.19L84.15 57.91C83.47 57.52 83.06 57.04 82.95 56.49C82.91 56.37 82.9 56.25 82.9 56.12C82.9 55.59 83.12 55.13 83.56 54.74C83.72 54.59 83.91 54.46 84.13 54.33C84.96 53.85 85.99 53.61 87.23 53.62C88.23 53.62 89.1 53.78 89.83 54.09C90.01 54.16 90.18 54.25 90.34 54.34L99.68 59.73L105.87 56.16L91.86 48.07C90.51 47.29 89.83 46.39 89.83 45.38C89.82 44.36 90.49 43.47 91.83 42.69C93.17 41.92 94.72 41.54 96.48 41.54C98.24 41.54 99.79 41.93 101.14 42.71L118.26 52.6C120.02 53.61 120.91 54.81 120.92 56.18Z" stroke="currentColor" stroke-linejoin="round"/>
    <path d="M105.87 56.1599L99.6801 59.7299L90.3401 54.3399C90.1801 54.2499 90.0101 54.1599 89.8301 54.0899V45.3799C89.8301 46.3899 90.51 47.2899 91.86 48.0699L105.87 56.1599Z" stroke="currentColor" stroke-linejoin="round"/>
    <path d="M46.7999 36.3398V43.4798L40.6099 39.9098L46.7999 36.3398Z" stroke="currentColor" stroke-linejoin="round"/>
    <path d="M83.5598 34.6399V54.7399C83.1198 55.1299 82.8998 55.5899 82.8998 56.1199V56.5499C82.4698 57.1399 81.8098 57.6999 80.9398 58.1999L76.6098 60.6999L73.2998 58.7899C71.9498 58.0099 70.3898 57.6199 68.6298 57.6099C66.8798 57.6099 65.3298 57.9999 63.9898 58.7699C62.6398 59.5399 61.9798 60.4399 61.9798 61.4499V64.6399C60.9998 64.3899 60.0898 64.0199 59.2498 63.5299L56.6498 62.0299V50.6899C56.6398 49.6799 55.9698 48.7799 54.6198 47.9999L46.7998 43.4799V36.3399L52.4698 39.6099L54.7998 40.9599L59.2498 43.5299C61.0098 44.5499 63.0798 45.0599 65.4598 45.0699C66.9498 45.0699 68.3098 44.8699 69.5598 44.4799C70.2998 44.2399 70.9998 43.9299 71.6598 43.5499L80.9398 38.1999C82.6798 37.1899 83.5598 35.9999 83.5598 34.6399Z" stroke="currentColor" stroke-linejoin="round"/>
    <path d="M56.6499 50.6899V70.6899C56.6499 71.7099 55.9899 72.5999 54.6499 73.3799C53.3099 74.1499 51.7599 74.5399 49.9999 74.5299C48.2399 74.5299 46.6899 74.1399 45.3399 73.3599L26.6599 62.5799C25.3099 61.7999 24.6299 60.8999 24.6299 59.8899V39.8899C24.6299 40.8999 25.3099 41.7999 26.6599 42.5799L26.8599 42.6899L39.5599 50.0199L45.3399 53.3599C45.7999 53.6299 46.2899 53.8499 46.7999 54.0199C47.7799 54.3599 48.8399 54.5299 49.9999 54.5299C51.6299 54.5399 53.0699 54.2099 54.3399 53.5499C54.4399 53.4999 54.5499 53.4399 54.6499 53.3799C55.9899 52.5999 56.6499 51.7099 56.6499 50.6899Z" stroke="currentColor" stroke-linejoin="round"/>
    <path d="M68.5103 34.5901L62.3203 38.1601L52.4702 32.4701V23.8101C52.4702 24.8301 53.1502 25.7201 54.5002 26.5001L68.5103 34.5901Z" stroke="currentColor" stroke-linejoin="round"/>
    <path d="M44.0201 11.27V29.45C43.9001 29.44 43.7801 29.44 43.6501 29.44C43.5001 29.44 43.3401 29.44 43.1901 29.45C41.0101 29.5 39.0901 30.01 37.4601 30.95L26.6301 37.2C25.2901 37.98 24.6201 38.87 24.6301 39.89V43.98L14.1801 50.01C12.8401 50.79 11.2901 51.17 9.53009 51.17C7.77009 51.17 6.22006 50.77 4.87006 50C3.52006 49.22 2.84008 48.32 2.83008 47.3V27.3C2.84008 28.32 3.52006 29.22 4.87006 30C6.22006 30.77 7.77009 31.17 9.53009 31.17C11.2901 31.17 12.8401 30.79 14.1801 30.01L21.3401 25.88L28.05 22L42.0201 13.94C43.3501 13.17 44.0201 12.28 44.0201 11.27Z" stroke="currentColor" stroke-linejoin="round"/>
    <path d="M28.0398 11.2198L21.3398 15.0898V5.83984C21.3398 6.84984 22.0198 7.74984 23.3698 8.52984L28.0398 11.2198Z" stroke="currentColor" stroke-linejoin="round"/>
</svg>