<svg width="48" height="48" viewBox="0 0 72 91" fill="none" xmlns="http://www.w3.org/2000/svg" stroke-width="1px" stroke-linecap="round" stroke-linejoin="round"><path d="M69.5803 38.6492V38.6992C69.5803 40.7192 68.3404 42.4391 65.8904 43.8591L57.5703 48.6592L48.5703 53.8591L25.3904 67.2392C24.1204 67.9692 22.6104 68.3392 20.8804 68.3392C19.1504 68.3292 17.6504 67.9592 16.3604 67.2192C15.0804 66.4792 14.4404 65.6091 14.4304 64.6091C14.4304 63.6091 15.0603 62.7392 16.3403 62.0092L39.5103 48.6292L48.5103 43.4291L56.8303 38.6292L40.9802 29.4792L28.2002 22.0892L15.2903 14.6392L15.3303 22.0692L15.3704 29.7592V29.7792C15.3704 30.8092 14.7503 31.6692 13.5203 32.3292C12.2803 32.9992 10.8003 33.3492 9.07031 33.3892C7.27031 33.3892 5.74024 33.0492 4.50024 32.3792C3.25024 31.6992 2.63036 30.8391 2.62036 29.7991L2.59033 25.0092L2.49023 5.68916C2.49023 5.16916 2.65023 4.6992 2.99023 4.2892C3.33023 3.8792 3.79038 3.49918 4.39038 3.14918C4.99038 2.80918 5.65035 2.53918 6.36035 2.33918C7.08035 2.14918 7.89028 2.04916 8.79028 2.05916L50.0903 2.12916C51.9003 2.12916 53.4204 2.48918 54.6704 3.20918C55.9104 3.92918 56.5403 4.80914 56.5403 5.85914V5.88917C56.5403 6.90917 55.9402 7.77918 54.7502 8.45918C53.5502 9.14918 52.0502 9.49915 50.2402 9.48915L24.2903 9.44917L46.2402 22.1192L55.8103 27.6492L65.8303 33.4291C68.3203 34.8691 69.5703 36.6092 69.5803 38.6492Z" stroke="#229EFF" stroke-linejoin="round"/><path d="M69.5796 38.6992V58.6492C69.5996 60.6892 68.3596 62.4292 65.8896 63.8592L25.3896 87.2392C24.1196 87.9692 22.6096 88.3392 20.8796 88.3392C19.1496 88.3292 17.6496 87.9592 16.3596 87.2192C15.0796 86.4792 14.4397 85.6092 14.4297 84.6092V64.6092C14.4397 65.6092 15.0796 66.4792 16.3596 67.2192C17.6496 67.9592 19.1496 68.3292 20.8796 68.3392C22.6096 68.3392 24.1196 67.9692 25.3896 67.2392L48.5696 53.8592L57.5696 48.6592L65.8896 43.8592C68.3396 42.4392 69.5796 40.7192 69.5796 38.6992Z" stroke="#229EFF" stroke-linejoin="round"/><path d="M56.8311 38.6292L48.511 43.4291L39.511 48.6292L15.3711 34.6891V29.7592L15.3311 22.0692L15.291 14.6392L28.2009 22.0892L40.981 29.4792L56.8311 38.6292Z" stroke="#229EFF" stroke-linejoin="round"/><path d="M15.3704 29.7792V49.7592C15.3804 50.7992 14.7603 51.6592 13.5203 52.3292C12.2803 52.9992 10.8003 53.3492 9.07031 53.3892C7.27031 53.3892 5.74024 53.0492 4.50024 52.3792C3.25024 51.6992 2.63036 50.8392 2.62036 49.7992L2.49023 25.6892V5.68921L2.59033 25.0092L2.62036 29.7992C2.63036 30.8392 3.25024 31.6992 4.50024 32.3792C5.74024 33.0492 7.27031 33.3892 9.07031 33.3892C10.8003 33.3492 12.2803 32.9992 13.5203 32.3292C14.7503 31.6692 15.3704 30.8092 15.3704 29.7792Z" stroke="#229EFF" stroke-linejoin="round"/><path d="M56.541 5.88916V25.8591C56.551 26.5291 56.301 27.1192 55.811 27.6492L46.241 22.1191L24.291 9.44916L50.241 9.48914C52.051 9.48914 53.551 9.14917 54.751 8.45917C55.941 7.77917 56.541 6.90916 56.541 5.88916Z" stroke="#229EFF" stroke-linejoin="round"/></svg>