<svg width="24" height="24" viewBox="0 0 119 82" fill="none" xmlns="http://www.w3.org/2000/svg" stroke-width="1px" stroke-linecap="round" stroke-linejoin="round">
    <path d="M71.4102 35.6802V36.0901H71.4202C71.4402 35.9501 71.4302 35.8202 71.4102 35.6802ZM90.3401 46.5602V47.1402C90.3801 46.9502 90.3801 46.7602 90.3401 46.5602Z" stroke="currentColor" stroke-linejoin="round"/>
    <path d="M71.41 36.1802V50.1902C71.3 50.2402 71.1801 50.2802 71.0601 50.3202L65.09 46.8702L59.3301 43.5502C60.5801 43.0202 61.7801 42.4702 62.9501 41.8902C63.0201 41.8602 63.08 41.8302 63.15 41.8002C64.26 41.2502 65.33 40.6702 66.37 40.0802C66.49 40.0202 66.6 39.9502 66.71 39.8902L68.55 38.8302C69.21 38.4502 69.7901 38.0801 70.3101 37.7101C70.9701 37.2401 71.33 36.7302 71.41 36.1802Z" stroke="currentColor" stroke-linejoin="round"/>
    <path d="M78.4399 15.1902V35.1902C76.0499 35.4102 73.7099 35.7101 71.4199 36.0901C71.4399 35.9501 71.4299 35.8202 71.4099 35.6802C71.2899 34.9502 70.7499 34.3102 69.7699 33.7402C68.8699 33.2202 67.7399 32.9801 66.3699 33.0201V25.0002C66.3699 24.7502 66.31 24.5102 66.2 24.2802C65.98 23.8102 65.5399 23.3902 64.8899 23.0102L58.3398 19.2302C61.4898 18.2102 64.74 17.3602 68.08 16.6902C71.43 16.0202 74.8799 15.5202 78.4399 15.1902Z" stroke="currentColor" stroke-linejoin="round"/>
    <path d="M116.95 31.0703V51.0502C116.96 52.2102 116.25 53.2002 114.82 54.0202L104.54 59.9602C103.11 60.7902 101.39 61.2002 99.3801 61.1902C97.3801 61.1902 95.6601 60.7702 94.2201 59.9402L90.3401 57.7003V47.1403C90.3801 46.9503 90.3801 46.7602 90.3401 46.5602C90.2301 45.9902 89.8201 45.4602 89.1201 44.9602C88.9601 44.8402 88.7702 44.7202 88.5702 44.6002C87.6502 44.0702 86.4702 43.8503 85.0402 43.9503C83.6202 44.0403 82.5002 44.3902 81.7002 44.9702V30.9802C81.7102 32.1402 82.4301 33.1402 83.8701 33.9702L88.9901 36.9202L94.2201 39.9402C95.1101 40.4502 96.1001 40.8102 97.2101 41.0002C97.8901 41.1302 98.6101 41.1902 99.3801 41.1902C100.15 41.1902 100.81 41.1402 101.47 41.0302C102.61 40.8402 103.64 40.4902 104.54 39.9602L114.82 34.0202C116.24 33.2102 116.95 32.2203 116.95 31.0703Z" stroke="currentColor" stroke-linejoin="round"/>
    <path d="M90.3396 46.5602V47.1402C90.3796 46.9502 90.3796 46.7602 90.3396 46.5602ZM71.4097 35.6802V36.1802C71.4097 36.1802 71.4197 36.1201 71.4197 36.0901C71.4397 35.9501 71.4297 35.8202 71.4097 35.6802Z" stroke="currentColor" stroke-linejoin="round"/>
    <path d="M89.1198 44.9601C88.9598 44.8401 88.7698 44.7201 88.5698 44.6001C87.6498 44.0701 86.4698 43.8502 85.0398 43.9502C83.6198 44.0402 82.4998 44.3901 81.6998 44.9701H81.6898C81.2398 45.3701 80.7798 45.7001 80.3198 45.9601L78.7798 46.8501C77.6398 47.5101 76.4198 48.1301 75.1398 48.7101C73.9598 49.2401 72.7098 49.7302 71.4098 50.1802C71.2998 50.2302 71.1798 50.2702 71.0598 50.3102L65.0897 46.8602L59.3298 43.5401C60.5798 43.0101 61.7798 42.4602 62.9498 41.8802C63.0198 41.8502 63.0798 41.8201 63.1498 41.7901C64.2598 41.2401 65.3298 40.6602 66.3698 40.0702C66.4898 40.0102 66.5997 39.9402 66.7097 39.8802L68.5498 38.8202C69.2098 38.4402 69.7898 38.0702 70.3098 37.7002C70.9698 37.2302 71.3298 36.7202 71.4098 36.1702V35.6702C71.2898 34.9402 70.7498 34.3002 69.7698 33.7302C68.8698 33.2102 67.7398 32.9702 66.3698 33.0102H66.2798C64.8798 33.0502 63.7797 33.3701 62.9797 33.9701C62.4597 34.3301 61.9498 34.6601 61.4298 34.9601L59.8098 35.9001C58.6598 36.5601 57.4798 37.1902 56.2498 37.8002C55.0198 38.4102 53.7498 39.0002 52.4298 39.5602L49.9298 38.1202L36.2197 30.2002C37.1897 29.4402 38.1998 28.7002 39.2598 27.9902C40.3098 27.2802 41.4098 26.6002 42.5598 25.9402C43.6998 25.2802 44.8897 24.6501 46.1097 24.0401C46.9397 23.6301 47.7798 23.2301 48.6498 22.8501C49.0698 22.6501 49.4998 22.4601 49.9298 22.2801L50.8698 22.8202L58.0398 26.9601C59.0198 27.5301 60.1597 27.8102 61.4797 27.8102C62.7997 27.8102 63.9498 27.5301 64.9198 26.9701C65.8898 26.4101 66.3698 25.7502 66.3698 24.9902C66.3698 24.7402 66.3098 24.5001 66.1998 24.2701C65.9798 23.8001 65.5398 23.3802 64.8898 23.0002L58.3397 19.2201C61.4897 18.2001 64.7398 17.3502 68.0798 16.6802C71.4298 16.0102 74.8798 15.5102 78.4398 15.1802C79.0098 15.5202 79.5998 15.8401 80.1998 16.1501C80.8098 16.4701 81.3698 16.8102 81.8898 17.1802C82.7498 17.8102 83.7998 18.1301 85.0298 18.1501C86.2598 18.1701 87.3597 17.9001 88.3397 17.3401C89.3597 16.7401 89.9598 16.1001 90.1298 15.4001C90.2998 14.7101 89.9497 14.0502 89.0897 13.4202C88.5697 13.0502 87.9798 12.6602 87.3198 12.2502C86.6598 11.8302 86.0397 11.4602 85.4597 11.1302C80.6897 8.37017 75.3098 6.30015 69.3098 4.92015C63.3098 3.53015 57.2198 2.83018 51.0298 2.82018C44.8398 2.81018 38.7498 3.49015 32.7698 4.85015C26.7898 6.21015 21.4298 8.26017 16.6798 11.0002C11.9398 13.7402 8.38979 16.8401 6.02979 20.2901C3.66979 23.7401 2.49978 27.2602 2.51978 30.8302C2.53978 34.1902 3.60972 37.4902 5.70972 40.7602C5.84972 40.9702 5.98978 41.1802 6.13978 41.3902C7.76978 43.7302 9.93979 45.9202 12.6498 47.9402C13.9498 48.9002 15.3598 49.8301 16.8998 50.7101C18.4398 51.6001 20.0398 52.4201 21.6998 53.1501C24.2898 54.3201 27.0298 55.3102 29.9198 56.1102C30.9398 56.4102 31.9898 56.6802 33.0498 56.9202C33.6398 57.0602 34.2198 57.1902 34.8098 57.3002C40.1698 58.4202 45.5897 58.9901 51.0997 59.0201H51.4898C52.2298 59.0201 52.9697 59.0102 53.7097 58.9902C59.0897 58.8402 64.3797 58.1702 69.5897 56.9902C70.1597 56.8602 70.7298 56.7202 71.2898 56.5802C75.2398 55.5802 78.8998 54.2602 82.2798 52.6302C83.4498 52.0702 84.5798 51.4801 85.6798 50.8401C86.2498 50.5101 86.8698 50.1401 87.5198 49.7201C88.1798 49.3101 88.7698 48.9202 89.2798 48.5602C89.8998 48.1002 90.2597 47.6302 90.3397 47.1302V46.5502C90.2297 45.9802 89.8198 45.4502 89.1198 44.9502V44.9601ZM54.8898 8.57018C59.4998 8.83018 63.8997 9.57017 68.0997 10.8102C65.1197 11.3302 62.2298 11.9502 59.4198 12.6802C56.6198 13.4002 53.8998 14.2202 51.2698 15.1402L41.0897 9.27013C45.6697 8.55013 50.2698 8.32018 54.8898 8.57018ZM20.3698 17.1001C21.3698 16.3601 22.4398 15.6502 23.5798 15.0002C24.7298 14.3402 25.9397 13.7202 27.2297 13.1402C28.5097 12.5602 29.8698 12.0301 31.2998 11.5301L43.0298 18.3102C41.7198 18.8702 40.4397 19.4502 39.2097 20.0602C37.9897 20.6702 36.7998 21.3101 35.6598 21.9701C34.5098 22.6301 33.4097 23.3101 32.3597 24.0201C31.9997 24.2601 31.6498 24.5002 31.2998 24.7602C30.9698 24.9802 30.6398 25.2201 30.3198 25.4701C29.9798 25.7101 29.6498 25.9601 29.3198 26.2201L28.7698 25.9001L17.5897 19.4502C18.4397 18.6302 19.3698 17.8401 20.3698 17.1001ZM19.5698 35.6902C18.3198 37.3102 17.2398 38.9802 16.3298 40.6902C14.3498 38.4702 13.0998 36.1202 12.5798 33.6802C12.5298 33.4802 12.4897 33.2702 12.4597 33.0702C12.0197 30.4002 12.4198 27.7501 13.6598 25.1001L20.4697 29.0301L23.8397 30.9802C22.2397 32.5002 20.8198 34.0702 19.5698 35.6902ZM30.9098 45.7701C30.4898 45.8501 30.0698 45.9201 29.6398 45.9801C29.4498 46.0101 29.2498 46.0402 29.0498 46.0702C27.3698 46.3102 25.6598 46.5102 23.9298 46.6702C24.1998 45.6702 24.5497 44.6801 24.9697 43.7101C25.3997 42.6901 25.9198 41.6802 26.5198 40.6902C27.6798 38.7502 29.1498 36.8802 30.9098 35.0602L39.4098 39.9701L44.0198 42.6302C40.8798 43.6502 37.6298 44.5002 34.2798 45.1702C33.1698 45.3902 32.0498 45.6001 30.9098 45.7701ZM51.0997 53.3902C49.8897 53.3902 48.6897 53.3601 47.4797 53.2901C44.9297 53.1501 42.4398 52.8501 40.0198 52.4001C38.0598 52.0501 36.1398 51.6002 34.2698 51.0502C35.1298 50.9002 35.9897 50.7402 36.8397 50.5702C38.9197 50.1602 40.9498 49.6902 42.9398 49.1802C45.7498 48.4602 48.4597 47.6401 51.0997 46.7101L61.2698 52.5901C57.8898 53.1201 54.4997 53.3902 51.0997 53.3902Z" stroke="currentColor" stroke-linejoin="round"/>
    <path d="M68.0999 10.8101C65.1199 11.3301 62.2299 11.9501 59.4199 12.6801C56.6199 13.4001 53.8999 14.2202 51.2699 15.1402L41.0898 9.2701C45.6698 8.5501 50.2699 8.32014 54.8899 8.57014C59.4999 8.83014 63.8999 9.57014 68.0999 10.8101Z" stroke="currentColor" stroke-linejoin="round"/>
    <path d="M89.2795 68.5701C88.7695 68.9301 88.1795 69.3201 87.5195 69.7301C86.8695 70.1501 86.2496 70.5201 85.6796 70.8501C80.9396 73.5901 75.5795 75.6401 69.5895 77.0001C63.6095 78.3601 57.5196 79.0401 51.3296 79.0301C45.1396 79.0101 39.0496 78.3201 33.0496 76.9301C27.0596 75.5501 21.6695 73.4801 16.8995 70.7201C12.1295 67.9701 8.53953 64.8601 6.13953 61.4001C3.74953 57.9301 2.53953 54.4201 2.51953 50.8401V30.8401C2.53953 34.2001 3.60947 37.5001 5.70947 40.7701C5.84947 40.9801 5.98953 41.1901 6.13953 41.4001C7.76953 43.7401 9.93954 45.9301 12.6495 47.9501C13.9495 48.9101 15.3595 49.8401 16.8995 50.7201C18.4395 51.6101 20.0396 52.4301 21.6996 53.1601C24.2896 54.3301 27.0296 55.3201 29.9196 56.1201C30.9396 56.4201 31.9896 56.6901 33.0496 56.9301C33.6396 57.0701 34.2196 57.2001 34.8096 57.3101C40.1696 58.4301 45.5895 59.0001 51.0995 59.0301H51.4895C52.2295 59.0301 52.9695 59.0201 53.7095 59.0001C59.0895 58.8501 64.3795 58.1801 69.5895 57.0001C70.1595 56.8701 70.7296 56.7301 71.2896 56.5901C75.2396 55.5901 78.8995 54.2701 82.2795 52.6401C83.4495 52.0801 84.5796 51.4901 85.6796 50.8501C86.2496 50.5201 86.8695 50.1501 87.5195 49.7301C88.1795 49.3201 88.7695 48.9301 89.2795 48.5701C89.8995 48.1101 90.2595 47.6401 90.3395 47.1401V66.5601C90.4895 67.2701 90.1395 67.9401 89.2795 68.5701Z" stroke="currentColor" stroke-linejoin="round"/>
    <path d="M61.2697 52.5902C57.8897 53.1202 54.4996 53.3903 51.0996 53.3903V46.7102L61.2697 52.5902Z" stroke="currentColor" stroke-linejoin="round"/>
    <path d="M51.0995 46.7102V53.3903C49.8895 53.3903 48.6895 53.3602 47.4795 53.2902C44.9295 53.1502 42.4395 52.8502 40.0195 52.4002C38.0595 52.0502 36.1395 51.6002 34.2695 51.0502C35.1295 50.9002 35.9895 50.7403 36.8395 50.5703C38.9195 50.1603 40.9496 49.6902 42.9396 49.1802C45.7496 48.4602 48.4595 47.6402 51.0995 46.7102Z" stroke="currentColor" stroke-linejoin="round"/>
    <path d="M30.9097 35.0601V45.77C30.4897 45.85 30.0696 45.92 29.6396 45.98C29.4496 46.01 29.2497 46.0401 29.0497 46.0701C27.3697 46.3101 25.6597 46.51 23.9297 46.67C24.1997 45.67 24.5496 44.68 24.9696 43.71C25.3996 42.69 25.9197 41.6801 26.5197 40.6901C27.6797 38.7501 29.1497 36.8801 30.9097 35.0601Z" stroke="currentColor" stroke-linejoin="round"/>
    <path d="M44.0197 42.6301C40.8797 43.6501 37.6297 44.5 34.2797 45.17C33.1697 45.39 32.0497 45.6 30.9097 45.77V35.0601L39.4097 39.97L44.0197 42.6301Z" stroke="currentColor" stroke-linejoin="round"/>
    <path d="M66.3696 25.0001V33.02H66.2797C64.8797 33.06 63.7796 33.38 62.9796 33.98C62.4596 34.34 61.9497 34.67 61.4297 34.97L59.8097 35.91C58.6597 36.57 57.4796 37.2001 56.2496 37.8101C55.0196 38.4201 53.7497 39.0101 52.4297 39.5701L49.9297 38.1301V22.29L50.8696 22.8301L58.0397 26.97C59.0197 27.54 60.1596 27.8201 61.4796 27.8201C62.7996 27.8201 63.9497 27.54 64.9197 26.98C65.8897 26.42 66.3696 25.7601 66.3696 25.0001Z" stroke="currentColor" stroke-linejoin="round"/>
    <path d="M49.9298 22.29V38.1301L36.2197 30.21C37.1897 29.45 38.1998 28.7101 39.2598 28.0001C40.3098 27.2901 41.4098 26.6101 42.5598 25.9501C43.6998 25.2901 44.8897 24.66 46.1097 24.05C46.9397 23.64 47.7798 23.24 48.6498 22.86C49.0698 22.66 49.4998 22.47 49.9298 22.29Z" stroke="currentColor" stroke-linejoin="round"/>
    <path d="M114.79 28.0701L104.44 22.0901C103 21.2601 101.28 20.8401 99.2697 20.8401C97.2597 20.8401 95.5496 21.2501 94.1196 22.0701L90.1296 24.3801L83.8396 28.0101C83.0996 28.4301 82.5497 28.9001 82.1997 29.4201C81.8697 29.9001 81.6997 30.4201 81.6997 30.9801C81.7097 32.1401 82.4296 33.1401 83.8696 33.9701L88.9896 36.9201L94.2196 39.9401C95.1096 40.4501 96.0996 40.8101 97.2096 41.0001C97.8896 41.1301 98.6096 41.1901 99.3796 41.1901C100.15 41.1901 100.81 41.1401 101.47 41.0301C102.61 40.8401 103.64 40.4901 104.54 39.9601L114.82 34.0201C116.24 33.2101 116.95 32.2201 116.95 31.0701V31.0501C116.95 29.8901 116.23 28.9001 114.79 28.0701ZM111.37 32.0301L107.94 34.0101C107.49 34.2701 106.91 34.4101 106.23 34.4001C105.54 34.4001 104.96 34.2701 104.5 34.0001L101.05 32.0101C100.59 31.7501 100.36 31.4201 100.36 31.0201C100.36 30.6201 100.59 30.2901 101.04 30.0301L104.47 28.0501C104.93 27.7801 105.5 27.6501 106.19 27.6501C106.88 27.6501 107.45 27.7901 107.91 28.0501L111.36 30.0501C111.82 30.3101 112.05 30.6401 112.05 31.0401C112.06 31.4401 111.83 31.7701 111.37 32.0301Z" stroke="currentColor" stroke-linejoin="round"/>
    <path d="M112.05 31.0402C112.06 31.4402 111.83 31.7702 111.37 32.0302L107.94 34.0102C107.49 34.2702 106.91 34.4101 106.23 34.4001C105.54 34.4001 104.96 34.2702 104.5 34.0002L101.05 32.0102C100.59 31.7502 100.36 31.4201 100.36 31.0201C100.36 30.6201 100.59 30.2902 101.04 30.0302L104.47 28.0502C104.93 27.7802 105.5 27.6501 106.19 27.6501C106.88 27.6501 107.45 27.7902 107.91 28.0502L111.36 30.0502C111.82 30.3102 112.05 30.6402 112.05 31.0402Z" stroke="currentColor" stroke-linejoin="round"/>
    <path d="M90.1299 15.4102V24.3802L83.8398 28.0102C83.0998 28.4302 82.55 28.9002 82.2 29.4202C81.87 29.9002 81.7 30.4202 81.7 30.9802V37.0702C81.23 36.7402 80.74 36.4402 80.2 36.1602C79.6 35.8502 79.0099 35.5302 78.4399 35.1902V15.1902C79.0099 15.5302 79.6 15.8502 80.2 16.1602C80.81 16.4802 81.3699 16.8202 81.8899 17.1902C82.7499 17.8202 83.7999 18.1402 85.0299 18.1602C86.2599 18.1802 87.3598 17.9102 88.3398 17.3502C89.3598 16.7502 89.9599 16.1102 90.1299 15.4102Z" stroke="currentColor" stroke-linejoin="round"/>
    <path d="M31.2999 11.5303V24.7603C30.9699 24.9803 30.6399 25.2203 30.3199 25.4703C29.9799 25.7103 29.6499 25.9603 29.3199 26.2203L28.7699 25.9003L17.5898 19.4503C18.4398 18.6303 19.3699 17.8403 20.3699 17.1003C21.3699 16.3603 22.44 15.6503 23.58 15.0003C24.73 14.3403 25.9399 13.7203 27.2299 13.1403C28.5099 12.5603 29.8699 12.0303 31.2999 11.5303Z" stroke="currentColor" stroke-linejoin="round"/>
    <path d="M43.0298 18.3103C41.7198 18.8703 40.4397 19.4503 39.2097 20.0603C37.9897 20.6703 36.7998 21.3103 35.6598 21.9703C34.5098 22.6303 33.4097 23.3103 32.3597 24.0203C31.9997 24.2603 31.6498 24.5003 31.2998 24.7603V11.5303L43.0298 18.3103Z" stroke="currentColor" stroke-linejoin="round"/>
    <path d="M23.84 30.9801C22.24 32.5001 20.8201 34.0701 19.5701 35.6901C18.3201 37.3101 17.2401 38.9801 16.3301 40.6901C14.3501 38.4701 13.1001 36.1201 12.5801 33.6801C12.5301 33.4801 12.49 33.2701 12.46 33.0701C12.02 30.4001 12.42 27.7501 13.66 25.1001L20.47 29.0301L23.84 30.9801Z" stroke="currentColor" stroke-linejoin="round"/>
</svg>