<svg viewBox="0 0 122 85" fill="none" xmlns="http://www.w3.org/2000/svg" height="48" width="48" stroke-width="1px"
     stroke-linecap="round" stroke-linejoin="round">
    <path d="M119.699 41.1197V61.0996C119.709 62.2296 118.989 63.2097 117.529 64.0497C116.079 64.8897 114.379 65.3097 112.429 65.2997L85.819 65.2597C83.999 65.2597 82.3889 64.8796 80.9989 64.1396V52.4697C80.9989 52.2297 80.9289 51.9996 80.7889 51.7396C80.3889 50.9996 79.609 50.3996 78.439 49.9596L78.3889 40.8096C78.3889 40.5896 78.4189 40.3596 78.4989 40.1396V41.0296C78.5089 42.1496 79.2389 43.1397 80.7089 43.9797C82.1689 44.8297 83.869 45.2497 85.819 45.2597L96.1289 45.2796H101.929L112.429 45.2997C114.379 45.3097 116.079 44.8897 117.529 44.0497C118.679 43.3897 119.369 42.6397 119.599 41.7997C119.669 41.5797 119.699 41.3497 119.699 41.1197Z" stroke="currentColor" stroke-linejoin="round"/>
    <path d="M119.589 20.8794C119.589 20.3594 119.399 19.8194 119.029 19.2694C118.649 18.7294 118.119 18.2494 117.429 17.8594L104.079 10.1494C102.649 9.31941 100.929 8.90941 98.929 8.89941C96.919 8.89941 95.2089 9.30941 93.7789 10.1294L80.5189 17.7894C79.8389 18.1894 79.309 18.6594 78.939 19.1994C78.569 19.7394 78.3889 20.2794 78.3889 20.8094L78.4989 40.1394V41.0294C78.5089 42.1494 79.2389 43.1394 80.7089 43.9794C82.1689 44.8294 83.869 45.2494 85.819 45.2594L96.1289 45.2794H101.929L112.429 45.2994C114.379 45.3094 116.079 44.8894 117.529 44.0494C118.679 43.3894 119.369 42.6394 119.599 41.7994C119.669 41.5794 119.699 41.3494 119.699 41.1194V41.0994L119.589 20.8794ZM102.449 25.0194C101.479 25.5794 100.339 25.8494 99.0189 25.8494C97.6989 25.8494 96.5589 25.5694 95.5789 24.9994C94.6089 24.4394 94.1189 23.7794 94.1089 23.0194C94.1089 22.2594 94.589 21.5994 95.559 21.0394C96.529 20.4794 97.6689 20.1994 98.9889 20.1994C100.309 20.1994 101.449 20.4894 102.429 21.0494C103.399 21.6094 103.889 22.2794 103.899 23.0394C103.899 23.7994 103.419 24.4594 102.449 25.0194Z" stroke="currentColor" stroke-linejoin="round"/>
    <path d="M103.899 23.0402C103.899 23.8002 103.419 24.4602 102.449 25.0202C101.479 25.5802 100.339 25.8502 99.0189 25.8502C97.6989 25.8502 96.5589 25.5702 95.5789 25.0002C94.6089 24.4402 94.1189 23.7802 94.1089 23.0202C94.1089 22.2602 94.589 21.6002 95.559 21.0402C96.529 20.4802 97.6689 20.2002 98.9889 20.2002C100.309 20.2002 101.449 20.4902 102.429 21.0502C103.399 21.6102 103.889 22.2802 103.899 23.0402Z" stroke="currentColor" stroke-linejoin="round"/>
    <path d="M80.7889 51.7397C80.3889 50.9997 79.6089 50.3997 78.4389 49.9597C78.2589 49.8797 78.0589 49.8097 77.8589 49.7497C77.3489 49.5797 76.8889 49.4197 76.4889 49.2497C76.0789 49.0897 75.6489 48.8997 75.1889 48.7097C74.5089 48.3697 73.8689 48.0298 73.2989 47.6598C72.7289 47.2998 72.1789 46.8997 71.6589 46.4697C70.7589 46.7797 69.7989 46.9498 68.7889 46.9798C68.7489 46.9898 68.7089 46.9897 68.6689 46.9897C68.1889 47.0097 67.6988 46.9997 67.1988 46.9597C65.5988 46.8197 64.2188 46.4198 63.0788 45.7598C61.6388 44.9298 60.9189 43.9397 60.9089 42.7797C60.9089 42.1897 61.0989 41.6397 61.4789 41.1297C61.8289 40.6497 62.3489 40.2097 63.0389 39.8097C63.8389 39.3497 64.7389 39.0098 65.7389 38.7998C66.7389 38.5898 67.7589 38.5198 68.7889 38.5798L68.7589 33.4098L68.7289 27.5798C68.7289 26.8498 68.4789 26.1497 67.9889 25.4697C67.8189 25.2297 67.6189 24.9997 67.3889 24.7797C66.9689 24.3797 66.4589 23.9997 65.8689 23.6597L60.6389 20.6397L46.7589 12.6197L60.6389 8.77975L68.0489 13.0597C69.0189 13.6197 70.1689 13.9097 71.4889 13.9097C72.8089 13.9097 73.9489 13.6297 74.9189 13.0697C75.8789 12.5197 76.3589 11.8597 76.3589 11.1097V11.0897C76.3589 10.3297 75.8689 9.66975 74.8889 9.10975L66.2789 4.13975C65.1889 3.50975 63.8889 3.11975 62.3689 2.95975C60.8489 2.80975 59.4089 2.92975 58.0389 3.32975L31.7289 10.5697C31.2689 10.6997 30.8089 10.8597 30.3489 11.0597C29.8989 11.2597 29.469 11.4697 29.069 11.6997L4.59886 25.8298C3.16886 26.6498 2.45885 27.6397 2.46885 28.7997C2.46885 29.9597 3.18889 30.9497 4.62889 31.7797C6.05889 32.6097 7.77892 33.0197 9.78892 33.0297C11.7889 33.0297 13.4989 32.6197 14.9289 31.7997L16.6389 30.8097L23.6289 34.8397L34.319 41.0098L43.9389 46.5697L57.9689 54.6697L56.2589 55.6598C54.8389 56.4798 54.1289 57.4697 54.1289 58.6297C54.1389 59.7897 54.8589 60.7797 56.2889 61.6097C57.5989 62.3597 59.1389 62.7697 60.9189 62.8397C61.0889 62.8497 61.2688 62.8497 61.4488 62.8497C63.4488 62.8597 65.1689 62.4498 66.5889 61.6198L78.4689 54.7697L79.8589 53.9697C80.6189 53.5297 80.9989 53.0298 80.9989 52.4798C80.9989 52.2298 80.9289 51.9997 80.7889 51.7397ZM42.9989 27.4697C42.8089 27.6197 42.5989 27.7497 42.3789 27.8797C40.9489 28.6997 39.2389 29.1097 37.2289 29.1097H37.0489C35.1289 29.0797 33.4688 28.6597 32.0788 27.8597C30.6388 27.0297 29.9189 26.0397 29.9089 24.8797C29.9089 23.7297 30.6189 22.7397 32.0389 21.9197C33.4689 21.0897 35.1889 20.6797 37.1889 20.6897C39.1889 20.6897 40.9088 21.1097 42.3388 21.9297C43.7788 22.7597 44.4989 23.7497 44.5089 24.9097C44.5089 25.8897 44.0089 26.7397 42.9989 27.4697Z" stroke="currentColor" stroke-linejoin="round"/>
    <path d="M44.5089 24.9096C44.5089 25.8896 44.0089 26.7396 42.9989 27.4696C42.8089 27.6196 42.5989 27.7496 42.3789 27.8796C40.9489 28.6996 39.2389 29.1096 37.2289 29.1096H37.049C35.129 29.0796 33.4689 28.6596 32.0789 27.8596C30.6389 27.0296 29.9189 26.0396 29.9089 24.8796C29.9089 23.7296 30.6189 22.7396 32.0389 21.9196C33.4689 21.0896 35.189 20.6796 37.189 20.6896C39.189 20.6896 40.9089 21.1096 42.3389 21.9296C43.7789 22.7596 44.4989 23.7496 44.5089 24.9096Z" stroke="currentColor" stroke-linejoin="round"/>
    <path d="M76.3589 11.1093V31.0893C76.3689 31.8493 75.8889 32.5093 74.9189 33.0693C73.9489 33.6293 72.7989 33.9093 71.4889 33.9093C70.4789 33.9093 69.5689 33.7393 68.7589 33.4093L68.7289 27.5793C68.7289 26.8493 68.4789 26.1493 67.9889 25.4693C67.8189 25.2293 67.6189 24.9993 67.3889 24.7793C66.9689 24.3793 66.4589 23.9993 65.8689 23.6593L60.6389 20.6393V8.7793L68.049 13.0593C69.019 13.6193 70.1689 13.9093 71.4889 13.9093C72.8089 13.9093 73.9489 13.6293 74.9189 13.0693C75.8789 12.5193 76.3589 11.8593 76.3589 11.1093Z" stroke="currentColor" stroke-linejoin="round"/>
    <path d="M60.6389 8.7793V20.6393L46.7589 12.6193L60.6389 8.7793Z" stroke="currentColor" stroke-linejoin="round"/>
    <path d="M16.6389 30.8098V50.8098L14.929 51.7998C13.499 52.6198 11.7889 53.0298 9.78894 53.0298C7.77894 53.0198 6.05891 52.6098 4.62891 51.7798C3.18891 50.9498 2.46887 49.9598 2.46887 48.7998V28.7998C2.46887 29.9598 3.18891 30.9498 4.62891 31.7798C6.05891 32.6098 7.77894 33.0198 9.78894 33.0298C11.7889 33.0298 13.499 32.6198 14.929 31.7998L16.6389 30.8098Z" stroke="currentColor" stroke-linejoin="round"/>
    <path d="M57.9689 54.6696L56.2589 55.6596C54.8389 56.4796 54.1289 57.4696 54.1289 58.6296V72.4496L16.6389 50.8096V30.8096L23.6289 34.8396L34.319 41.0096L43.939 46.5696L57.9689 54.6696Z" stroke="currentColor" stroke-linejoin="round"/>
    <path d="M80.9989 52.4795V72.5195C80.9789 73.0495 80.5989 73.5395 79.8589 73.9695L66.5889 81.6195C65.1689 82.4495 63.4489 82.8595 61.4489 82.8495C59.4489 82.8495 57.7289 82.4295 56.2889 81.6095C54.8589 80.7795 54.1389 79.7895 54.1289 78.6295V58.6295C54.1389 59.7895 54.8589 60.7795 56.2889 61.6095C57.5989 62.3595 59.1389 62.7695 60.9189 62.8395C61.0889 62.8495 61.2689 62.8495 61.4489 62.8495C63.4489 62.8595 65.1689 62.4495 66.5889 61.6195L78.4689 54.7695L79.8589 53.9695C80.6189 53.5295 80.9989 53.0295 80.9989 52.4795Z" stroke="currentColor" stroke-linejoin="round"/>
    <path d="M68.7889 38.5802V46.9802C68.7889 46.9802 68.7089 46.9902 68.6689 46.9902C68.1889 47.0102 67.6989 47.0002 67.1989 46.9602C65.5989 46.8202 64.2189 46.4202 63.0789 45.7602C61.6389 44.9302 60.9189 43.9402 60.9089 42.7802C60.9089 42.1902 61.0989 41.6402 61.4789 41.1302C61.8289 40.6502 62.3489 40.2102 63.0389 39.8102C63.8389 39.3502 64.7389 39.0102 65.7389 38.8002C66.7389 38.5902 67.7589 38.5202 68.7889 38.5802Z" stroke="currentColor" stroke-linejoin="round"/>
    <path d="M78.3989 20.8096V42.0196" stroke="currentColor" stroke-linejoin="round"/>
</svg>