<svg width="48" height="48" viewBox="0 0 122 92" fill="none" xmlns="http://www.w3.org/2000/svg" stroke-width="1px"
     stroke-linecap="round" stroke-linejoin="round">
    <path d="M116.25 36.8998L115.54 36.4899L105.5 30.6998L112.62 26.5898C114.57 25.4698 115.54 24.0899 115.54 22.4899V22.4698C115.54 20.8498 114.55 19.4798 112.58 18.3398L91.0901 5.92987C89.1201 4.79987 86.7301 4.22985 83.9401 4.21985C81.1401 4.21985 78.76 4.77985 76.8 5.90985L69.6901 10.0198L58.9401 3.80988C56.9701 2.67988 54.59 2.10985 51.79 2.09985C48.99 2.09985 46.62 2.65986 44.66 3.78986L5.51001 26.3898C3.55001 27.5198 2.58008 28.8998 2.58008 30.5098C2.59008 32.1298 3.58005 33.4998 5.55005 34.6398L15.7101 40.4999L22.87 44.6398L62.8601 67.7198C64.8301 68.8598 67.21 69.4299 70.01 69.4399C72.81 69.4399 75.18 68.8799 77.14 67.7499L77.62 67.4799L106.09 51.0399L116.29 45.1498C118.25 44.0198 119.22 42.6398 119.22 41.0298C119.21 39.4098 118.22 38.0398 116.25 36.8998ZM77.1001 59.4999L30.4701 32.5798L29.9501 32.2798L19.79 26.4199L30.4701 20.2499L40.63 26.1199L87.77 53.3398L77.1001 59.4999ZM98.3401 26.5599L83.9701 18.2598L76.8501 14.1498L83.9701 10.0399L105.46 22.4498L98.3401 26.5599Z" stroke="currentColor" stroke-linejoin="round"/>
    <path d="M30.4691 20.25V32.58L29.9491 32.28L19.7891 26.42L30.4691 20.25Z" stroke="currentColor" stroke-linejoin="round"/>
    <path d="M87.7706 53.34L77.1007 59.5L30.4707 32.58V20.25L40.6306 26.12L87.7706 53.34Z" stroke="currentColor" stroke-linejoin="round"/>
    <path d="M83.9696 10.0398V18.2598L76.8496 14.1498L83.9696 10.0398Z" stroke="currentColor" stroke-linejoin="round"/>
    <path d="M105.461 22.4498L98.3407 26.5598L83.9707 18.2598V10.0398L105.461 22.4498Z" stroke="currentColor" stroke-linejoin="round"/>
    <path d="M119.22 41.0298V61.0298C119.22 62.6398 118.25 64.0198 116.29 65.1498L77.14 87.7498C75.18 88.8798 72.81 89.4398 70.01 89.4398C67.21 89.4398 64.8301 88.8598 62.8601 87.7198L5.55005 54.6398C3.58005 53.4998 2.59008 52.1298 2.58008 50.5098V30.5098C2.59008 32.1298 3.58005 33.4998 5.55005 34.6398L15.7101 40.4998L22.87 44.6398L62.8601 67.7198C64.8301 68.8598 67.21 69.4298 70.01 69.4398C72.81 69.4398 75.18 68.8798 77.14 67.7498L77.62 67.4798L106.09 51.0398L116.29 45.1498C118.25 44.0198 119.22 42.6398 119.22 41.0298Z" stroke="currentColor" stroke-linejoin="round"/>
    <path d="M115.54 22.4897V36.4897L105.5 30.6997L112.62 26.5897C114.57 25.4697 115.54 24.0897 115.54 22.4897Z" stroke="currentColor" stroke-linejoin="round"/>
</svg>