<svg width="48" height="48" viewBox="0 0 119 91" fill="none" xmlns="http://www.w3.org/2000/svg" stroke-width="1px" stroke-linecap="round" stroke-linejoin="round"><path d="M113.405 31.8401L66.0951 4.52005C64.2351 3.45005 61.9851 2.91005 59.3451 2.91005C56.7051 2.90005 54.4651 3.43005 52.6151 4.50005L5.59505 31.65C3.74505 32.71 2.82504 34.01 2.83504 35.53C2.84504 37.05 3.77503 38.35 5.63503 39.43L16.195 45.53L22.955 49.43L52.955 66.7401C54.815 67.8201 57.055 68.36 59.695 68.36C62.335 68.36 64.5851 67.83 66.4251 66.7701L96.125 49.62L102.845 45.74L113.445 39.62C115.285 38.56 116.205 37.27 116.205 35.76V35.74C116.195 34.21 115.265 32.9101 113.405 31.8401ZM96.085 41.84L89.3651 45.72L59.6651 62.87L29.6751 45.55L22.9151 41.65L12.3551 35.55L59.375 8.40005L106.685 35.72L96.085 41.84Z" stroke="#229EFF" stroke-linejoin="round"/><path d="M59.3749 8.40002V28.4L29.675 45.56L22.915 41.65L12.355 35.56L59.3749 8.40002Z" stroke="#229EFF" stroke-linejoin="round"/><path d="M106.685 35.72L96.085 41.84L89.3651 45.72L59.375 28.4V8.40002L106.685 35.72Z" stroke="#229EFF" stroke-linejoin="round"/><path d="M116.205 35.76V55.74C116.215 57.26 115.295 58.55 113.445 59.62L66.425 86.77C64.585 87.83 62.3349 88.37 59.6949 88.36C57.0549 88.36 54.815 87.82 52.955 86.74L5.63495 59.43C3.77495 58.35 2.84496 57.05 2.83496 55.53V35.53C2.84496 37.05 3.77495 38.35 5.63495 39.43L16.1949 45.53L22.955 49.43L52.955 66.74C54.815 67.82 57.0549 68.36 59.6949 68.36C62.3349 68.36 64.585 67.83 66.425 66.77L96.1249 49.62L102.845 45.74L113.445 39.62C115.285 38.56 116.205 37.27 116.205 35.76Z" stroke="#229EFF" stroke-linejoin="round"/></svg>