<svg width="48" height="48" viewBox="0 0 100 80" fill="none" xmlns="http://www.w3.org/2000/svg" stroke-width="1px"
     stroke-linecap="round" stroke-linejoin="round">
    <path d="M94.5103 12.5596V32.4896C94.5103 32.5796 94.5103 32.6796 94.5003 32.7696C93.5703 32.4396 92.5004 32.2696 91.2804 32.2696C89.5404 32.2696 88.0703 32.6096 86.8803 33.2896C85.9003 33.8496 85.3304 34.5296 85.1604 35.3096C84.8704 35.2196 84.6003 35.1096 84.3303 34.9896C76.5303 31.5396 67.8703 29.7996 58.3603 29.7896L53.8403 27.1796C52.6103 26.4596 51.1603 26.0996 49.4903 26.0996C47.8203 26.0996 46.3704 26.4496 45.1504 27.1596C43.9204 27.8696 43.3103 28.7096 43.3103 29.6696V31.2696C37.5403 32.4596 32.3303 34.3996 27.6903 37.0796C23.7603 39.3496 20.7604 41.8496 18.6704 44.5796C16.2104 41.4296 15.0203 38.0796 15.0803 34.5196C15.0803 34.0196 15.1104 33.5096 15.1704 33.0096C15.8604 26.8096 20.0303 21.5096 27.6903 17.0796C35.3503 12.6596 44.5503 10.2496 55.2703 9.84959C66.0003 9.44959 75.6903 11.1696 84.3303 14.9896C85.6403 15.5796 87.1103 15.8396 88.7403 15.7796C90.3703 15.7196 91.7604 15.3596 92.9204 14.6896C93.9804 14.0796 94.5103 13.3596 94.5103 12.5596Z" stroke="currentColor" stroke-linejoin="round"/>
    <path d="M97.4806 53.8995V73.8695C97.4906 74.8795 96.9106 75.7095 95.7606 76.3795C94.6006 77.0495 93.1506 77.3795 91.4106 77.3795L60.1006 77.3195C58.3606 77.3195 56.9205 76.9695 55.8005 76.2795C54.6705 75.5795 54.1006 74.7395 54.1006 73.7295V53.7295C54.1006 54.7395 54.6705 55.5795 55.8005 56.2795C56.9205 56.9695 58.3606 57.3195 60.1006 57.3195L71.4506 57.3395L85.1106 57.3695H91.4106C93.1506 57.3795 94.6006 57.0495 95.7606 56.3795C96.4606 55.9695 96.9506 55.4995 97.2306 54.9695C97.3906 54.6295 97.4806 54.2795 97.4806 53.8995Z" stroke="currentColor" stroke-linejoin="round"/>
    <path d="M94.51 12.4896V12.5596C94.51 13.3596 93.98 14.0796 92.92 14.6896C91.76 15.3596 90.37 15.7196 88.74 15.7796C87.11 15.8396 85.64 15.5796 84.33 14.9896C75.69 11.1696 66 9.44962 55.27 9.84962C44.55 10.2496 35.3499 12.6596 27.6899 17.0796C20.0299 21.5096 15.86 26.8096 15.17 33.0096C15.11 33.5096 15.08 34.0196 15.08 34.5196C15.02 38.0796 16.21 41.4296 18.67 44.5796C20.05 46.3796 21.8599 48.1096 24.0699 49.7796C25.0799 50.5396 25.5399 51.3896 25.4399 52.3296C25.3399 53.2696 24.7099 54.0796 23.5499 54.7396C22.3199 55.4496 20.7799 55.7296 18.9299 55.5796C17.4199 55.4596 16.13 55.1096 15.08 54.5096C14.84 54.3896 14.62 54.2496 14.41 54.0996C10.37 51.0996 7.36993 47.9196 5.42993 44.5696C3.72993 41.6496 2.81996 38.5896 2.70996 35.3996V34.2496C2.71996 33.6996 2.75995 33.1396 2.81995 32.5796C3.68995 24.6096 9.06997 17.7596 18.97 12.0496C28.8 6.3696 40.59 3.27963 54.36 2.75963C68.13 2.23963 80.58 4.43962 91.7 9.34962C93.22 10.0696 94.1299 10.9496 94.4299 11.9996C94.4699 12.1696 94.5 12.3296 94.51 12.4896Z" stroke="currentColor" stroke-linejoin="round"/>
    <path d="M97.4796 53.8696V53.8996C97.4796 54.2796 97.3896 54.6296 97.2296 54.9696C96.9496 55.4996 96.4596 55.9696 95.7596 56.3796C94.5996 57.0496 93.1497 57.3796 91.4097 57.3796H85.1096L71.4496 57.3396L60.0996 57.3196C58.3596 57.3196 56.9196 56.9696 55.7996 56.2796C54.6696 55.5796 54.0996 54.7396 54.0996 53.7296C54.0896 52.7296 54.6696 51.8896 55.8196 51.2196C56.7496 50.6896 57.8796 50.3696 59.1896 50.2696C59.4996 50.2396 59.8297 50.2296 60.1697 50.2296L76.4796 50.2596L45.1697 32.1796C44.6097 31.8596 44.1796 31.5096 43.8796 31.1396C43.4996 30.6896 43.3196 30.1996 43.3096 29.6696C43.3096 28.7096 43.9197 27.8696 45.1497 27.1596C46.3697 26.4496 47.8196 26.0996 49.4896 26.0996C51.1596 26.0996 52.6096 26.4596 53.8396 27.1796L58.3596 29.7896L85.1497 45.2496L85.0996 35.8296C85.0996 35.6496 85.1197 35.4696 85.1597 35.3096C85.3297 34.5296 85.8996 33.8496 86.8796 33.2896C88.0696 32.6096 89.5397 32.2596 91.2797 32.2696C92.4997 32.2696 93.5696 32.4396 94.4996 32.7696C94.8996 32.9096 95.2796 33.0796 95.6296 33.2796C96.7896 33.9496 97.3796 34.7896 97.3796 35.7896L97.4796 53.8696Z" stroke="currentColor" stroke-linejoin="round"/>
    <path d="M25.4399 52.3294V72.3294C25.3399 73.2694 24.7099 74.0794 23.5499 74.7394C22.3199 75.4494 20.7799 75.7294 18.9299 75.5794C17.0799 75.4294 15.58 74.9394 14.41 74.0994C6.53998 68.2494 2.63991 61.7494 2.70991 54.5794V35.3994C2.81991 38.5894 3.72988 41.6494 5.42988 44.5694C7.36988 47.9194 10.37 51.0994 14.41 54.0994C14.62 54.2494 14.8399 54.3894 15.0799 54.5094C16.1299 55.1094 17.4199 55.4594 18.9299 55.5794C20.7799 55.7294 22.3199 55.4494 23.5499 54.7394C24.7099 54.0794 25.3399 53.2694 25.4399 52.3294Z" stroke="currentColor" stroke-linejoin="round"/>
    <path d="M76.4796 50.2595L60.1697 50.2295C59.8297 50.2295 59.4996 50.2394 59.1896 50.2694C57.8796 50.3694 56.7496 50.6895 55.8196 51.2195C54.6696 51.8895 54.0896 52.7295 54.0996 53.7295V57.3394L45.1697 52.1794C43.9397 51.4694 43.3196 50.6294 43.3096 49.6694V29.6694C43.3196 30.1994 43.4996 30.6894 43.8796 31.1394C44.1796 31.5094 44.6097 31.8594 45.1697 32.1794L76.4796 50.2595Z" stroke="currentColor" stroke-linejoin="round"/>
</svg>