<svg width="24" height="24" viewBox="0 0 106 107" fill="none" xmlns="http://www.w3.org/2000/svg" stroke-width="1px" stroke-linecap="round" stroke-linejoin="round">
    <path d="M53.5417 56.04L53.5217 56.06" stroke="currentColor" stroke-linejoin="round"/>
    <path d="M53.7017 81.0704V101.07C53.7017 101.9 53.2317 102.6 52.2817 103.18C51.3417 103.76 50.1517 104.05 48.7217 104.05C47.2917 104.05 46.0918 103.76 45.1118 103.19C44.1318 102.63 43.6318 101.93 43.6318 101.11L43.4917 91.8904V78.1704C43.4917 78.1704 43.5618 78.2204 43.5918 78.2404L43.6318 81.1104C43.6318 81.9304 44.1318 82.6304 45.1118 83.1904C46.0918 83.7604 47.3017 84.0504 48.7217 84.0504C50.1417 84.0504 51.3417 83.7604 52.2817 83.1804C53.0117 82.7304 53.4618 82.2104 53.6218 81.6204C53.6818 81.4404 53.7017 81.2604 53.7017 81.0704Z" stroke="currentColor" stroke-linejoin="round"/>
    <path d="M43.5918 78.2401C43.5918 78.2401 43.5217 78.2002 43.4917 78.1702V71.8901L43.5317 74.3401L43.5918 78.2401Z" stroke="currentColor" stroke-linejoin="round"/>
    <path d="M53.5217 56.0602H53.5117M53.5117 56.0602C53.1517 56.4102 52.7718 56.7402 52.3518 57.0602L52.2717 57.1302C51.8417 57.4602 51.3718 57.7803 50.8818 58.1003C50.4518 58.3803 50.0017 58.6602 49.5517 58.9402C49.5017 58.9602 49.4418 58.9702 49.3918 58.9902C48.1418 59.3602 46.8717 59.4003 45.5617 59.0803C44.6917 58.8703 43.9816 58.5602 43.4316 58.1302C43.1416 57.9102 42.9016 57.6602 42.7016 57.3802C42.5916 57.2202 42.5016 57.0502 42.4416 56.8802C42.2416 56.3502 42.3018 55.8002 42.6418 55.2402C42.8318 54.9302 43.0916 54.6503 43.4216 54.4103C43.8516 54.0803 44.4117 53.8202 45.0817 53.6302C46.0117 53.3802 46.9017 53.1203 47.7717 52.8303V52.8203C48.3517 52.6303 48.9216 52.4303 49.4816 52.2203C50.7916 51.7203 52.0617 51.1903 53.2917 50.6003L53.4916 50.5103V50.6003L53.5117 56.0602Z" stroke="currentColor" stroke-linejoin="round"/>
    <path d="M53.4216 56.04L53.4016 56.06" stroke="currentColor" stroke-linejoin="round"/>
    <path d="M53.5417 36.04L53.5217 36.06" stroke="currentColor" stroke-linejoin="round"/>
    <path d="M103.862 43.5303V63.4402C103.882 67.1502 102.662 70.7902 100.222 74.3702C97.7717 77.9502 94.0916 81.1602 89.1716 84.0002C86.6316 85.4702 83.9117 86.7403 81.0417 87.8203C78.1617 88.9003 75.1517 89.7903 72.0017 90.5103C70.8217 90.7803 69.6718 90.8402 68.5718 90.6802C67.4718 90.5202 66.5116 90.2003 65.6716 89.7203C65.0816 89.3803 64.6117 88.9703 64.2817 88.5103C63.9517 88.0503 63.7917 87.5402 63.7817 86.9902L63.7117 73.3002V53.3002L63.7717 65.0002V66.9902C63.7917 67.5402 63.9517 68.0503 64.2817 68.5103C64.6117 68.9703 65.0816 69.3803 65.6716 69.7203C66.5116 70.2003 67.4718 70.5202 68.5718 70.6802C69.6718 70.8402 70.8217 70.7803 72.0017 70.5103C75.1517 69.7903 78.1617 68.9003 81.0417 67.8203C83.9117 66.7403 86.6316 65.4702 89.1716 64.0002C94.0916 61.1602 97.7717 57.9502 100.222 54.3702C100.412 54.0902 100.602 53.8003 100.772 53.5203C102.832 50.2503 103.862 46.9203 103.862 43.5303Z" stroke="currentColor" stroke-linejoin="round"/>
    <path d="M103.862 43.4403V43.5303C103.862 46.9203 102.832 50.2503 100.772 53.5203C100.602 53.8003 100.412 54.0903 100.222 54.3703C97.7717 57.9503 94.0916 61.1603 89.1716 64.0003C86.6316 65.4703 83.9117 66.7403 81.0417 67.8203C78.1617 68.9003 75.1517 69.7903 72.0017 70.5103C70.8217 70.7803 69.6718 70.8402 68.5718 70.6802C67.4718 70.5202 66.5116 70.2003 65.6716 69.7203C65.0816 69.3803 64.6117 68.9703 64.2817 68.5103C63.9517 68.0503 63.7917 67.5402 63.7817 66.9902V65.0003L63.7117 53.3002C64.4217 53.0302 65.0618 52.7303 65.6218 52.4003L67.3518 51.4003C70.0818 49.8303 72.5417 48.1903 74.7317 46.4803C76.9217 44.7703 78.8417 42.9503 80.4917 41.0303C81.1017 40.3603 81.1917 39.6602 80.7517 38.9302C80.7317 38.8802 80.7016 38.8203 80.6616 38.7703C80.1216 37.9803 79.1018 37.4303 77.6218 37.1203C76.6618 36.9003 75.6917 36.8503 74.6917 36.9803C74.4517 37.0203 74.2117 37.0602 73.9617 37.1102C72.7217 37.3802 71.8017 37.8603 71.2117 38.5403C70.2017 39.6803 69.0818 40.7903 67.8418 41.8803C66.6018 42.9803 65.2116 44.0403 63.6716 45.0703L63.6418 39.0303L63.5317 19.7503C63.5317 19.2003 63.6917 18.7103 64.0117 18.2803C64.3417 17.8503 64.7918 17.4703 65.3918 17.1303C66.2218 16.6503 67.1617 16.3203 68.2317 16.1503C69.3017 15.9803 70.4617 16.0203 71.7117 16.2603C74.9217 16.9503 77.9618 17.8503 80.8218 18.9503C83.6818 20.0603 86.3917 21.3503 88.9517 22.8303C93.9017 25.6903 97.6118 28.9103 100.102 32.5003C102.592 36.0903 103.842 39.7403 103.862 43.4403Z" stroke="currentColor" stroke-linejoin="round"/>
    <path d="M53.5017 50.5104L53.4817 44.8604" stroke="currentColor" stroke-linejoin="round"/>
    <path d="M53.6318 64.1703L53.6118 57.5903H53.5718L53.0618 57.7903C52.5718 57.9703 52.0617 58.1403 51.5317 58.3203C50.8617 58.5403 50.2118 58.7502 49.5518 58.9402C49.5018 58.9602 49.4418 58.9702 49.3918 58.9902C48.1418 59.3602 46.8718 59.4003 45.5618 59.0803C44.6918 58.8703 43.9816 58.5602 43.4316 58.1302C43.1416 57.9102 42.9017 57.6602 42.7017 57.3802C42.5917 57.2202 42.5016 57.0502 42.4416 56.8802C42.2416 56.3502 42.3018 55.8002 42.6418 55.2402C42.8318 54.9302 43.0916 54.6503 43.4216 54.4103C43.8516 54.0803 44.4118 53.8202 45.0818 53.6302C46.0118 53.3802 46.9017 53.1203 47.7717 52.8303V52.8203C48.3517 52.6303 48.9217 52.4303 49.4817 52.2203C50.7917 51.7203 52.0617 51.1903 53.2917 50.6003L53.4917 50.5103L53.4717 44.8602L52.7317 45.2603L51.8418 45.7402C50.6718 46.3602 49.4416 46.9303 48.1616 47.4603C46.7416 48.0403 45.3018 48.5803 43.8118 49.0703C43.6718 49.1203 43.5318 49.1603 43.3918 49.2103C43.0318 49.3303 42.6617 49.4502 42.2917 49.5602C41.4117 49.8102 40.5018 49.8903 39.5718 49.7903C39.2518 49.7603 38.9218 49.7002 38.5918 49.6302C37.3118 49.3302 36.3717 48.8102 35.7717 48.0502C35.2317 47.3302 35.2016 46.6103 35.6716 45.8903C36.1416 45.1703 37.0318 44.6103 38.3418 44.2003C40.1218 43.6503 41.7617 43.0303 43.2717 42.3303C43.3017 42.3203 43.3318 42.3003 43.3618 42.2903C44.8418 41.6003 46.2816 40.8502 47.6716 40.0502C48.8016 39.4002 49.8618 38.7503 50.8718 38.1003C51.3618 37.7803 51.8317 37.4602 52.2617 37.1302L52.3418 37.0602C52.7318 36.7602 53.0916 36.4603 53.4216 36.1503C53.4516 36.1203 53.4717 36.0903 53.5017 36.0703H53.5117L53.4517 19.6802H53.4316L53.3718 5.47028C53.3618 4.65028 52.8718 3.95026 51.8918 3.39026C50.9018 2.82026 49.7017 2.53027 48.2717 2.53027C46.8417 2.53027 45.6416 2.81024 44.6716 3.37024C43.6916 3.94024 43.2017 4.63026 43.2117 5.45026L43.2517 14.7703C38.7717 15.2703 34.4618 16.1303 30.3018 17.3503C25.7018 18.6903 21.4818 20.4803 17.6318 22.7003C12.7118 25.5403 9.03179 28.7503 6.58178 32.3303C4.14178 35.9103 2.92165 39.5503 2.94165 43.2603C2.96165 46.6103 3.99174 49.9103 6.03174 53.1703C6.24174 53.5103 6.46166 53.8603 6.70166 54.2003C9.19166 57.7903 12.9018 61.0202 17.8518 63.8702C21.5518 66.0102 25.5518 67.7403 29.8718 69.0703C34.1818 70.3903 38.7217 71.3403 43.4817 71.8903L43.5217 74.3403L43.5818 78.2402L43.6218 81.1102C43.6218 81.9302 44.1218 82.6302 45.1018 83.1902C46.0818 83.7602 47.2917 84.0502 48.7117 84.0502C50.1317 84.0502 51.3317 83.7602 52.2717 83.1802C53.0017 82.7302 53.4518 82.2102 53.6118 81.6202C53.6718 81.4402 53.6916 81.2603 53.6916 81.0703L53.6218 64.1703H53.6318ZM31.9116 40.1703C30.6016 39.9003 29.6417 39.3403 29.0417 38.5203C28.8917 38.2903 28.7817 38.0603 28.7217 37.8303C28.5917 37.3703 28.6716 36.8903 28.9416 36.4103C29.3616 35.6903 30.1317 35.1103 31.2517 34.6603C31.9617 34.3903 32.6518 34.1003 33.3018 33.7903C33.9518 33.4903 34.5716 33.1603 35.1616 32.8203C35.7616 32.4803 36.3218 32.1202 36.8518 31.7402C37.3818 31.3602 37.8918 30.9702 38.3618 30.5602C39.1318 29.9102 40.1516 29.4603 41.4316 29.2003C42.0516 29.0803 42.6617 29.0203 43.2417 29.0403H43.3218C43.9118 29.0503 44.4817 29.1303 45.0417 29.2903C46.4717 29.6303 47.4216 30.1802 47.9016 30.9402C48.3816 31.6902 48.2417 32.4303 47.4717 33.1503C46.7617 33.8303 45.9718 34.4902 45.1218 35.1302C44.5618 35.5402 43.9718 35.9403 43.3518 36.3303C43.0218 36.5403 42.6718 36.7503 42.3218 36.9503C41.3118 37.5303 40.2616 38.0702 39.1616 38.5602C38.0716 39.0602 36.9217 39.5103 35.7417 39.9203C34.4917 40.3703 33.2116 40.4503 31.9116 40.1703Z" stroke="currentColor" stroke-linejoin="round"/>
    <path d="M47.4716 33.1504C46.7616 33.8304 45.9718 34.4904 45.1218 35.1304C44.5618 35.5404 43.9717 35.9404 43.3517 36.3304C43.0217 36.5404 42.6717 36.7504 42.3217 36.9504C41.3117 37.5304 40.2616 38.0704 39.1616 38.5604C38.0716 39.0604 36.9216 39.5104 35.7416 39.9204C34.4916 40.3704 33.2116 40.4504 31.9116 40.1704C30.6016 39.9004 29.6417 39.3404 29.0417 38.5204C28.8917 38.2904 28.7816 38.0604 28.7216 37.8304C28.5916 37.3704 28.6716 36.8904 28.9416 36.4104C29.3616 35.6904 30.1316 35.1104 31.2516 34.6604C31.9616 34.3904 32.6517 34.1004 33.3017 33.7904C33.9517 33.4904 34.5716 33.1604 35.1616 32.8204C35.7616 32.4804 36.3217 32.1204 36.8517 31.7404C37.3817 31.3604 37.8918 30.9704 38.3618 30.5604C39.1318 29.9104 40.1516 29.4604 41.4316 29.2004C42.0516 29.0804 42.6616 29.0204 43.2416 29.0404H43.3217C43.9117 29.0504 44.4817 29.1304 45.0417 29.2904C46.4717 29.6304 47.4215 30.1804 47.9015 30.9404C48.3815 31.6904 48.2416 32.4304 47.4716 33.1504Z" stroke="currentColor" stroke-linejoin="round"/>
    <path d="M53.4216 36.04L53.4016 36.06" stroke="currentColor" stroke-linejoin="round"/>
    <path d="M53.5117 50.6001H53.5017" stroke="currentColor" stroke-linejoin="round"/>
    <path d="M63.6716 45.07V65.07L63.5317 39.75V19.75L63.6418 39.03L63.6716 45.07Z" stroke="currentColor" stroke-linejoin="round"/>
    <path d="M80.4917 41.0301C78.8417 42.9501 76.9217 44.7701 74.7317 46.4801C72.5417 48.1901 70.0818 49.8301 67.3518 51.4001L65.6218 52.4001C65.0618 52.7301 64.4217 53.03 63.7117 53.3V65.0401C63.7117 65.0401 63.6816 65.0601 63.6716 65.0701V45.0701C65.2116 44.0401 66.6018 42.9801 67.8418 41.8801C69.0818 40.7901 70.2017 39.6801 71.2117 38.5401C71.8017 37.8601 72.7217 37.38 73.9617 37.11C74.2117 37.06 74.4517 37.0201 74.6917 36.9801C75.6917 36.8501 76.6618 36.9 77.6218 37.12C79.1018 37.43 80.1216 37.9801 80.6616 38.7701C80.7016 38.8201 80.7317 38.88 80.7517 38.93C81.1917 39.66 81.1017 40.3601 80.4917 41.0301Z" stroke="currentColor" stroke-linejoin="round"/>
    <path d="M43.4917 71.8903V91.8903C38.7317 91.3403 34.1918 90.3903 29.8818 89.0703C25.5618 87.7403 21.5618 86.0102 17.8618 83.8702C12.9118 81.0202 9.20167 77.7903 6.71167 74.2003C4.23167 70.6103 2.97166 66.9603 2.95166 63.2603V43.2603C2.97166 46.6103 4.00175 49.9103 6.04175 53.1703C6.25175 53.5103 6.47167 53.8603 6.71167 54.2003C9.20167 57.7903 12.9118 61.0202 17.8618 63.8702C21.5618 66.0102 25.5618 67.7403 29.8818 69.0703C34.1918 70.3903 38.7317 71.3403 43.4917 71.8903Z" stroke="currentColor" stroke-linejoin="round"/>
    <path d="M53.5217 36.0601L53.4816 44.86L52.7417 45.2601L51.8518 45.7401C50.6818 46.3601 49.4516 46.9301 48.1716 47.4601C46.7516 48.0401 45.3117 48.5801 43.8217 49.0701C43.6817 49.1201 43.5416 49.1601 43.4016 49.2101C43.0416 49.3301 42.6717 49.4501 42.3017 49.5601C41.4217 49.8101 40.5117 49.8901 39.5817 49.7901C39.2617 49.7601 38.9318 49.7001 38.6018 49.6301C37.3218 49.3301 36.3817 48.81 35.7817 48.05C35.2417 47.33 35.2116 46.6101 35.6816 45.8901C36.1516 45.1701 37.0418 44.6101 38.3518 44.2001C40.1318 43.6501 41.7717 43.0301 43.2817 42.3301C43.3117 42.3201 43.3418 42.3001 43.3718 42.2901C44.8518 41.6001 46.2916 40.85 47.6816 40.05C48.8116 39.4 49.8718 38.7501 50.8818 38.1001C51.3718 37.7801 51.8417 37.4601 52.2717 37.1301L52.3518 37.0601C52.7418 36.7601 53.1016 36.4601 53.4316 36.1501C53.4616 36.1201 53.4817 36.0901 53.5117 36.0701H53.5217V36.0601Z" stroke="currentColor" stroke-linejoin="round"/>
</svg>