<svg width="48" height="48" viewBox="0 0 111 96" fill="none" xmlns="http://www.w3.org/2000/svg" stroke-width="1px"
     stroke-linecap="round" stroke-linejoin="round">
    <path d="M59.0399 63.4452C57.9699 62.8352 56.7199 62.5252 55.2899 62.5152C53.8499 62.5152 52.6099 62.8252 51.5499 63.4352C50.4899 64.0452 49.9599 64.7652 49.9699 65.5852C49.9699 66.4152 50.51 67.1352 51.57 67.7552C52.64 68.3652 53.88 68.6752 55.32 68.6752C56.75 68.6852 58 68.3752 59.06 67.7652C60.12 67.1552 60.6398 66.4352 60.6398 65.6052C60.6298 64.7852 60.0999 64.0552 59.0399 63.4452ZM72.2599 40.6152V40.6352L72.2899 40.6152H72.2599Z" stroke="currentColor" stroke-linejoin="round"/>
    <path d="M72.2603 40.6352V46.9352C71.5003 46.7952 70.8002 46.5352 70.1702 46.1752C69.1102 45.5552 68.5703 44.8352 68.5703 44.0052C68.5703 43.1752 69.0901 42.4652 70.1501 41.8552L72.2603 40.6352Z" stroke="currentColor" stroke-linejoin="round"/>
    <path d="M90.4401 37.5652C90.4401 38.3952 89.91 39.1152 88.86 39.7252L77.6601 46.1852C76.6001 46.7952 75.3601 47.1052 73.9201 47.0952C73.3401 47.0952 72.7801 47.0452 72.2601 46.9352V40.6352L72.2902 40.6152H72.2601V34.4552L70.1 33.2052C69.04 32.5952 68.5001 31.8652 68.5001 31.0452C68.4901 30.2152 69.02 29.4952 70.08 28.8852C71.14 28.2752 72.3802 27.9652 73.8202 27.9752C75.2502 27.9752 76.5002 28.2852 77.5702 28.8952L88.83 35.4052C89.9 36.0152 90.4301 36.7352 90.4401 37.5652Z" stroke="currentColor" stroke-linejoin="round"/>
    <path d="M72.2603 34.4552V40.6152L47.7402 40.5252V34.4052L72.2603 34.4552Z" stroke="currentColor" stroke-linejoin="round"/>
    <path d="M72.2598 40.6152V40.6352L72.2898 40.6152H72.2598Z" stroke="currentColor" stroke-linejoin="round"/>
    <path d="M104.15 21.7852C101.54 18.0152 97.6402 14.6352 92.4502 11.6352C87.2502 8.63521 81.3901 6.37521 74.8601 4.87521C68.3301 3.36521 61.7002 2.60521 54.9602 2.59521C48.2202 2.59521 41.6001 3.31521 35.0901 4.80521C28.5701 6.28521 22.7403 8.51521 17.5703 11.4952C15.4003 12.7552 13.2501 14.2652 11.1401 16.0252C9.03014 17.7852 7.38021 19.5152 6.21021 21.2052L40.8401 21.2652C42.2101 21.2652 43.4001 21.5352 44.4001 22.0852C44.9401 22.3752 45.3501 22.7052 45.6301 23.0752C45.8801 23.3852 46.0301 23.7252 46.0901 24.0852L47.7402 34.4052L72.2603 34.4552L70.1001 33.2052C69.0401 32.5952 68.5002 31.8652 68.5002 31.0452C68.4902 30.2152 69.0201 29.4952 70.0801 28.8852C71.1401 28.2752 72.3803 27.9652 73.8203 27.9752C75.2503 27.9752 76.5003 28.2852 77.5703 28.8952L88.8301 35.4052C89.9001 36.0152 90.4302 36.7352 90.4402 37.5652C90.4402 38.3952 89.9101 39.1152 88.8601 39.7252L77.6602 46.1852C76.6002 46.7952 75.3602 47.1052 73.9202 47.0952C73.3402 47.0952 72.7803 47.0452 72.2603 46.9352C71.5003 46.7952 70.8002 46.5352 70.1702 46.1752C69.1102 45.5552 68.5703 44.8352 68.5703 44.0052C68.5703 43.1752 69.0901 42.4652 70.1501 41.8552L72.2603 40.6352V40.6152L47.7402 40.5252L42.8103 40.5052C41.4403 40.5052 40.2402 40.2352 39.2102 39.7152C38.1702 39.1952 37.6203 38.5152 37.5603 37.6852L36.1001 27.3652L26.4802 27.3452L6.21021 27.3152H3.15015C2.49015 29.1452 2.16016 31.0152 2.16016 32.9152V32.9452C2.16016 35.8052 2.90015 38.7252 4.40015 41.7052C5.38015 43.6752 6.68029 45.5352 8.30029 47.3152C10.7503 50.0052 13.9203 52.4852 17.8103 54.7252L47.8501 72.0752C49.9201 73.2652 52.4201 73.8652 55.3501 73.8652C58.2801 73.8752 60.7701 73.2852 62.8301 72.0952L71.8901 66.8652L90.0203 56.3952L92.6802 54.8552C97.8402 51.8752 101.71 48.5052 104.28 44.7452C104.59 44.2852 104.89 43.8252 105.17 43.3652C107.12 40.0752 108.1 36.7452 108.1 33.3652V33.2752C108.08 29.3852 106.76 25.5552 104.15 21.7852ZM59.0603 67.7652C58.0003 68.3752 56.7503 68.6852 55.3203 68.6752C53.8803 68.6752 52.6403 68.3652 51.5703 67.7552C50.5103 67.1352 49.9702 66.4152 49.9702 65.5852C49.9602 64.7652 50.4903 64.0452 51.5503 63.4352C52.6103 62.8252 53.8503 62.5152 55.2903 62.5152C56.7203 62.5252 57.9703 62.8352 59.0403 63.4452C60.1003 64.0552 60.6301 64.7852 60.6401 65.6052C60.6401 66.4352 60.1203 67.1552 59.0603 67.7652Z" stroke="currentColor" stroke-linejoin="round"/>
    <path d="M47.74 34.4052V40.5252L42.8101 40.5052C41.4401 40.5052 40.24 40.2352 39.21 39.7152C38.17 39.1952 37.6201 38.5152 37.5601 37.6852L36.0999 27.3652L26.48 27.3452L6.20996 27.3152V21.2052L40.8398 21.2652C42.2098 21.2652 43.3999 21.5352 44.3999 22.0852C44.9399 22.3752 45.3499 22.7052 45.6299 23.0752C45.8799 23.3852 46.0298 23.7252 46.0898 24.0852L47.74 34.4052Z" stroke="currentColor" stroke-linejoin="round"/>
    <path d="M108.1 33.3652V53.2752C108.12 57.1652 106.85 60.9852 104.28 64.7452C101.71 68.5052 97.8402 71.8752 92.6802 74.8552L62.8301 92.0952C60.7701 93.2852 58.2801 93.8752 55.3501 93.8652C52.4201 93.8652 49.9201 93.2652 47.8501 92.0752L17.8103 74.7252C11.3603 71.0052 6.89015 66.6652 4.40015 61.7052C2.90015 58.7252 2.16016 55.8052 2.16016 52.9452V32.9452C2.16016 35.8052 2.90015 38.7252 4.40015 41.7052C5.38015 43.6752 6.68029 45.5352 8.30029 47.3152C10.7503 50.0052 13.9203 52.4852 17.8103 54.7252L47.8501 72.0752C49.9201 73.2652 52.4201 73.8652 55.3501 73.8652C58.2801 73.8752 60.7701 73.2852 62.8301 72.0952L71.8901 66.8652L90.0203 56.3952L92.6802 54.8552C97.8402 51.8752 101.71 48.5052 104.28 44.7452C104.59 44.2852 104.89 43.8252 105.17 43.3652C107.12 40.0752 108.1 36.7452 108.1 33.3652Z" stroke="currentColor" stroke-linejoin="round"/>
    <path d="M2.16016 53.2652V52.9452" stroke="currentColor" stroke-linejoin="round"/>
</svg>