<svg width="24" height="24" viewBox="0 0 108 85" fill="none" xmlns="http://www.w3.org/2000/svg" stroke-width="1px" stroke-linecap="round" stroke-linejoin="round">
    <path d="M105.059 38.2001V38.2201C105.059 38.4701 105.029 38.7201 104.959 38.9701C104.439 40.4201 103.739 41.8401 102.849 43.2301C102.219 44.2301 101.489 45.2201 100.659 46.1901C100.429 46.4801 100.179 46.7701 99.9192 47.0501C97.8792 49.2901 95.3092 51.3701 92.2092 53.3001C91.7492 53.6001 91.2593 53.8801 90.7693 54.1701C88.8193 55.3001 86.7892 56.3201 84.6892 57.2301C75.7692 61.0901 65.4991 63.01 53.8691 62.99C47.5091 62.98 41.5593 62.3901 35.9993 61.2201C35.8293 61.1801 35.6593 61.1501 35.4893 61.1001C34.6393 60.9301 33.7892 60.73 32.9592 60.5C27.1392 59.02 21.7691 56.8701 16.8691 54.0401L12.7793 56.4001C11.9593 56.8701 10.9693 57.0101 9.80933 56.8101C8.63933 56.6101 7.98912 56.1501 7.84912 55.4401L6.81934 51.3301L4.59912 42.4601C4.57912 42.3701 4.55932 42.2801 4.54932 42.1901C4.53932 42.0901 4.5293 41.99 4.5293 41.89C4.5293 41.02 5.09924 40.27 6.21924 39.62C6.33924 39.55 6.4591 39.4901 6.5791 39.4301C7.8691 38.7801 9.38917 38.5301 11.1492 38.6801L30.1091 40.27L33.6292 40.5601C34.8692 40.6401 35.6493 41.0101 35.9993 41.6901C36.0893 41.8801 36.1492 42.0601 36.1592 42.2301V42.26C36.1592 42.44 36.0993 42.6101 35.9993 42.7801C35.8593 43.0001 35.6193 43.2101 35.2893 43.4001L31.1992 45.77C32.7192 46.65 34.3193 47.4201 35.9993 48.0801C36.0493 48.1001 36.1092 48.12 36.1592 48.14C41.3192 50.17 47.2093 51.1801 53.8093 51.2001C62.6293 51.2201 70.1491 49.4301 76.3591 45.8501C76.6891 45.6601 76.9993 45.4701 77.3093 45.2801C79.1293 44.1301 80.6592 42.8801 81.8792 41.5301C83.3092 39.9501 84.3192 38.32 84.9292 36.62C85.2692 35.55 86.1293 34.7001 87.5293 34.0501C88.9293 33.4001 90.5193 33.1501 92.2993 33.3101L98.3591 33.86C99.1691 33.92 99.9191 34.0401 100.599 34.2101C101.429 34.4301 102.169 34.73 102.819 35.12C102.839 35.13 102.869 35.1501 102.889 35.1601C103.119 35.3001 103.339 35.46 103.549 35.62C104.549 36.41 105.049 37.2801 105.059 38.2001Z" stroke="currentColor" stroke-linejoin="round"/>
    <path d="M102.89 23.68C102.88 23.83 102.86 23.97 102.82 24.11C102.66 24.79 102.12 25.39 101.19 25.92C99.8296 26.71 98.1897 27.02 96.2697 26.86L74.4496 25.04L73.7797 24.9801C72.9697 24.9301 72.3496 24.75 71.9296 24.44C71.7096 24.28 71.5396 24.0801 71.4196 23.8501C71.3196 23.6501 71.2597 23.46 71.2597 23.28V23.2101C71.2897 22.8101 71.5796 22.45 72.1196 22.14L76.2197 19.77C69.9697 16.17 62.4296 14.3601 53.6096 14.3401C44.7796 14.3401 37.2598 16.11 31.0598 19.69C28.8098 20.99 26.9697 22.43 25.5397 24.01C24.2797 25.4 23.3397 26.83 22.7197 28.31C22.6397 28.51 22.5597 28.71 22.4897 28.92C22.1497 29.99 21.2796 30.84 19.8796 31.49C18.4996 32.13 16.9396 32.38 15.1996 32.24C15.1696 32.24 15.1396 32.2301 15.1096 32.2301L9.05975 31.68C6.85975 31.52 5.11975 30.9401 3.80975 29.9501C2.93975 29.2901 2.44954 28.57 2.33954 27.78V27.7101C2.28954 27.3501 2.33966 26.9701 2.45966 26.5701C3.39966 23.7301 5.05964 21.0301 7.43964 18.4601C9.82964 15.9001 12.8896 13.54 16.6396 11.37C26.8696 5.45998 39.1697 2.52003 53.5397 2.55003C67.9097 2.57003 80.2497 5.55998 90.5397 11.5L94.6296 9.14C95.4496 8.67 96.4396 8.53009 97.6096 8.73009C98.7696 8.93009 99.4298 9.39008 99.5698 10.1001L102.82 23.0801C102.87 23.2901 102.9 23.49 102.89 23.68Z" stroke="currentColor" stroke-linejoin="round"/>
    <path d="M105.061 58.5201V58.2202" stroke="currentColor" stroke-linejoin="round"/>
    <path d="M76.2202 19.7698L72.1201 22.1398C71.5801 22.4498 71.2903 22.8099 71.2603 23.2099V37.3998C66.1003 35.3698 60.2101 34.3599 53.6101 34.3399C44.7801 34.3399 37.2603 36.1099 31.0603 39.6899C30.7303 39.8799 30.4201 40.0698 30.1101 40.2698L11.1501 38.6799C9.39015 38.5299 7.87008 38.7799 6.58008 39.4299C6.46008 39.4899 6.34021 39.5498 6.22021 39.6198C5.10021 40.2698 4.53027 41.0198 4.53027 41.8898V50.4198C4.28027 50.2798 4.0403 50.1199 3.8103 49.9499C2.8303 49.1999 2.33031 48.3799 2.32031 47.4799V47.4399L2.34009 27.7798C2.45009 28.5698 2.9403 29.2899 3.8103 29.9499C5.1203 30.9399 6.8603 31.5199 9.0603 31.6799L15.1101 32.2299C15.1101 32.2299 15.1702 32.2398 15.2002 32.2398C16.9402 32.3798 18.5001 32.1298 19.8801 31.4898C21.2801 30.8398 22.1502 29.9898 22.4902 28.9198C22.5602 28.7098 22.6402 28.5099 22.7202 28.3099C23.3402 26.8299 24.2803 25.3998 25.5403 24.0098C26.9703 22.4298 28.8103 20.9899 31.0603 19.6899C37.2603 16.1099 44.7801 14.3299 53.6101 14.3399C62.4301 14.3599 69.9702 16.1698 76.2202 19.7698Z" stroke="currentColor" stroke-linejoin="round"/>
    <path d="M16.8701 54.0402V74.0402L12.7803 76.4001C11.9603 76.8701 10.9703 77.0102 9.8103 76.8102C8.6403 76.6102 7.9901 76.1502 7.8501 75.4402L4.6001 62.4602C4.5501 62.2902 4.53027 62.1102 4.53027 61.9502V41.8901C4.53027 41.9901 4.54029 42.0902 4.55029 42.1902C4.55029 42.2802 4.5801 42.3702 4.6001 42.4602L6.82031 51.3302L7.8501 55.4402C7.9901 56.1502 8.6403 56.6102 9.8103 56.8102C10.9703 57.0102 11.9603 56.8701 12.7803 56.4001L16.8701 54.0402Z" stroke="currentColor" stroke-linejoin="round"/>
    <path d="M105.06 38.2202V58.2202C105.06 58.4702 105.03 58.7202 104.96 58.9702C103.95 61.7702 102.27 64.4602 99.9202 67.0502C97.5702 69.6302 94.5203 72.0002 90.7703 74.1702C80.5403 80.0802 68.2401 83.0201 53.8701 82.9901C39.5001 82.9701 27.1701 79.9802 16.8701 74.0402V54.0402C21.7701 56.8702 27.1402 59.0201 32.9602 60.5001C33.7902 60.7301 34.6402 60.9302 35.4902 61.1002C35.6602 61.1502 35.8302 61.1802 36.0002 61.2202C41.5602 62.3902 47.5101 62.9801 53.8701 62.9901C65.5001 63.0101 75.7702 61.0902 84.6902 57.2302C86.7902 56.3202 88.8203 55.3002 90.7703 54.1702C91.2603 53.8802 91.7502 53.6002 92.2102 53.3002C95.3102 51.3702 97.8802 49.2902 99.9202 47.0502C100.18 46.7702 100.43 46.4802 100.66 46.1902C101.49 45.2202 102.22 44.2302 102.85 43.2302C103.74 41.8402 104.44 40.4202 104.96 38.9702C105.03 38.7202 105.06 38.4702 105.06 38.2202Z" stroke="currentColor" stroke-linejoin="round"/>
    <path d="M36.1602 42.2598V48.1398C36.1102 48.1198 36.0502 48.0998 36.0002 48.0798C34.3202 47.4198 32.7202 46.6498 31.2002 45.7698L35.2903 43.3998C35.6203 43.2098 35.8602 42.9998 36.0002 42.7798C36.1002 42.6098 36.1602 42.4398 36.1602 42.2598Z" stroke="currentColor" stroke-linejoin="round"/>
    <path d="M36.1602 48.2401V48.1401" stroke="currentColor" stroke-linejoin="round"/>
    <path d="M102.89 23.6803V35.1603C102.89 35.1603 102.84 35.1302 102.82 35.1202C102.17 34.7302 101.43 34.4303 100.6 34.2103C99.9196 34.0403 99.1696 33.9202 98.3596 33.8602L92.2998 33.3103C90.5198 33.1503 88.9298 33.4003 87.5298 34.0503C86.1298 34.7003 85.2697 35.5502 84.9297 36.6202C84.3197 38.3202 83.3096 39.9503 81.8796 41.5303C80.6596 42.8803 79.1298 44.1303 77.3098 45.2803L73.7798 44.9803C72.5498 44.9003 71.7597 44.5303 71.4197 43.8503C71.3197 43.6503 71.2598 43.4603 71.2598 43.2803V23.2803C71.2598 23.4603 71.3197 23.6503 71.4197 23.8503C71.5397 24.0803 71.7097 24.2803 71.9297 24.4403C72.3497 24.7503 72.9698 24.9303 73.7798 24.9803L74.4497 25.0403L96.2698 26.8602C98.1898 27.0202 99.8297 26.7103 101.19 25.9203C102.12 25.3903 102.66 24.7902 102.82 24.1102C102.86 23.9702 102.88 23.8303 102.89 23.6803Z" stroke="currentColor" stroke-linejoin="round"/>
    <path d="M102.891 35.2601V35.1602" stroke="currentColor" stroke-linejoin="round"/>
</svg>