<svg width="48" height="48" viewBox="0 0 126 94" fill="none" xmlns="http://www.w3.org/2000/svg" stroke-width="1px" stroke-linecap="round" stroke-linejoin="round"><path d="M75.8293 40.8135V59.4435C75.7293 59.4835 75.6193 59.5135 75.5193 59.5435C71.5293 60.8535 67.3593 61.9335 63.0093 62.7935C62.4693 62.8835 61.9593 63.0035 61.4893 63.1435L51.9592 57.6435C50.4292 56.7535 49.6594 55.7134 49.6494 54.5234V34.5234C49.6594 35.1234 49.8493 35.6835 50.2393 36.2035C50.6293 36.7235 51.1992 37.2035 51.9592 37.6435L62.7793 43.8835C64.3093 44.7635 66.1092 45.2134 68.1792 45.2134C70.2392 45.2234 72.0393 44.7834 73.5593 43.9034C75.0693 43.0334 75.8293 41.9935 75.8293 40.8135Z" stroke="#229EFF" stroke-linejoin="round"/><path d="M25.6497 31.3638V31.3838C25.6497 33.1938 24.5296 34.7438 22.2996 36.0338C19.9796 37.3738 17.2597 38.0338 14.1597 38.0038C11.0597 37.9638 8.3897 37.3038 6.1297 36.0038C3.7897 34.6438 2.60967 33.0938 2.59967 31.3238C2.58967 29.5638 3.74965 28.0038 6.07965 26.6638C8.31965 25.3738 10.9897 24.7138 14.0897 24.6938C17.1897 24.6738 19.9096 25.3438 22.2496 26.6938C24.5096 27.9938 25.6397 29.5538 25.6497 31.3638Z" stroke="#229EFF" stroke-linejoin="round"/><path d="M63.2698 9.65357V9.67359C63.2698 11.4736 62.15 13.0236 59.92 14.3136C57.59 15.6536 54.8798 16.3136 51.7798 16.2836C48.6798 16.2536 45.9998 15.5836 43.7498 14.2836C41.4098 12.9336 40.2298 11.3736 40.2198 9.60358C40.2098 7.84358 41.3698 6.29361 43.6998 4.94361C45.9398 3.65361 48.6098 2.99358 51.7098 2.97358C54.8098 2.95358 57.5299 3.62358 59.8699 4.97358C62.1199 6.27358 63.2598 7.83357 63.2698 9.65357Z" stroke="#229EFF" stroke-linejoin="round"/><path d="M75.8293 40.7937V40.8137C75.8293 41.9937 75.0693 43.0337 73.5593 43.9037C72.0393 44.7837 70.2392 45.2237 68.1792 45.2137C66.1092 45.2137 64.3093 44.7637 62.7793 43.8837L51.9592 37.6437C51.1992 37.2037 50.6293 36.7237 50.2393 36.2037C49.8493 35.6837 49.6594 35.1237 49.6494 34.5237C49.6494 33.3337 50.4092 32.2937 51.9292 31.4137C53.4492 30.5337 55.2493 30.0937 57.3093 30.1037C59.3793 30.1037 61.1792 30.5537 62.7092 31.4337L62.8394 31.5037L73.5293 37.6737C75.0593 38.5637 75.8293 39.6037 75.8293 40.7937Z" stroke="#229EFF" stroke-linejoin="round"/><path d="M123.619 33.3935V33.7934C123.609 34.0034 123.569 34.2034 123.509 34.4234C121.999 39.0334 119.349 43.4835 115.559 47.7535C114.939 48.4535 114.289 49.1335 113.599 49.8135C111.939 51.4735 110.079 53.0734 108.039 54.6034C105.789 56.3134 103.309 57.9435 100.599 59.5135C95.5795 62.4135 90.1795 64.8235 84.3995 66.7635C78.6095 68.6935 72.5794 70.2234 66.2994 71.3534C64.2294 71.7134 62.2994 71.5835 60.4994 70.9535C58.6994 70.3335 57.5695 69.4234 57.1095 68.2234C57.0195 67.9934 56.9593 67.7734 56.9393 67.5434V67.5234C56.8293 66.5934 57.2395 65.7135 58.1695 64.8835C59.0295 64.1135 60.1394 63.5335 61.4894 63.1435C61.9594 63.0035 62.4694 62.8834 63.0094 62.7934C67.3594 61.9334 71.5294 60.8534 75.5194 59.5434C75.6194 59.5134 75.7295 59.4835 75.8295 59.4435C76.2695 59.3035 76.7095 59.1535 77.1395 59.0035C81.6295 57.4535 85.8394 55.5434 89.7794 53.2734C94.6194 50.4734 98.6194 47.4135 101.789 44.0735C104.959 40.7335 107.17 37.2434 108.41 33.6134C108.85 32.4234 109.879 31.4135 111.489 30.5835C113.099 29.7635 114.99 29.4035 117.15 29.5135C119.3 29.6135 120.989 30.1534 122.209 31.1134C123.089 31.7934 123.549 32.5535 123.619 33.3935Z" stroke="#229EFF" stroke-linejoin="round"/><path d="M63.2698 9.67352V29.6535C63.2698 30.3035 63.1298 30.9235 62.8398 31.5035L62.7097 31.4335C61.1797 30.5535 59.3798 30.1035 57.3098 30.1035C55.2498 30.0935 53.4497 30.5335 51.9297 31.4135C50.4097 32.2935 49.6499 33.3335 49.6499 34.5235V36.1535C47.4399 35.9035 45.4698 35.2735 43.7498 34.2835C41.4098 32.9335 40.2297 31.3735 40.2197 29.6035V9.60352C40.2297 11.3735 41.4098 12.9335 43.7498 14.2835C45.9998 15.5835 48.6798 16.2535 51.7798 16.2835C54.8798 16.3135 57.5899 15.6535 59.9199 14.3135C62.1499 13.0235 63.2698 11.4735 63.2698 9.67352Z" stroke="#229EFF" stroke-linejoin="round"/><path d="M25.6497 31.3837V51.3637C25.6597 53.1837 24.5396 54.7337 22.2996 56.0337C19.9796 57.3737 17.2597 58.0337 14.1597 58.0037C11.0597 57.9637 8.38964 57.3037 6.12964 56.0037C3.78964 54.6437 2.60961 53.0937 2.59961 51.3237V31.3237C2.60961 33.0937 3.78964 34.6437 6.12964 36.0037C8.38964 37.3037 11.0597 37.9637 14.1597 38.0037C17.2597 38.0337 19.9796 37.3737 22.2996 36.0337C24.5296 34.7437 25.6497 33.1937 25.6497 31.3837Z" stroke="#229EFF" stroke-linejoin="round"/><path d="M123.63 53.5934V53.6335C123.63 53.8935 123.59 54.1535 123.51 54.4235C122 59.0335 119.35 63.4835 115.56 67.7535C111.76 72.0235 106.78 75.9435 100.6 79.5135C95.5799 82.4135 90.1799 84.8235 84.3999 86.7635C78.6099 88.6935 72.5798 90.2235 66.2998 91.3535C64.2298 91.7135 62.2998 91.5835 60.4998 90.9535C58.6998 90.3335 57.5699 89.4234 57.1099 88.2234C56.9899 87.9234 56.9299 87.6235 56.9199 87.3235V87.2535L56.9397 67.5435C56.9597 67.7735 57.0199 67.9934 57.1099 68.2234C57.5699 69.4234 58.6998 70.3335 60.4998 70.9535C62.2998 71.5835 64.2298 71.7135 66.2998 71.3535C72.5798 70.2235 78.6099 68.6935 84.3999 66.7635C90.1799 64.8235 95.5799 62.4135 100.6 59.5135C103.31 57.9435 105.79 56.3135 108.04 54.6035C110.08 53.0735 111.94 51.4735 113.6 49.8135C114.29 49.1335 114.94 48.4535 115.56 47.7535C119.35 43.4835 122 39.0335 123.51 34.4235C123.57 34.2035 123.61 34.0035 123.62 33.7935V53.5934H123.63Z" stroke="#229EFF" stroke-linejoin="round"/></svg>