<svg width="24" height="24" viewBox="0 0 105 93" fill="none" xmlns="http://www.w3.org/2000/svg" stroke-width="1px" stroke-linecap="round" stroke-linejoin="round">
    <path d="M45.3595 31.8807V41.8307L44.9395 42.1808V52.0508L42.5895 52.9907L40.5595 51.8108C40.2995 51.6608 40.0295 51.5308 39.7495 51.4208V42.6608L33.3095 38.9407C32.7495 38.6107 32.4895 38.2007 32.5495 37.6907C32.6095 37.1807 32.9895 36.8008 33.6795 36.5508L45.3595 31.8807Z" stroke="currentColor" stroke-linejoin="round"/>
    <path d="M64.8897 67.1207V67.1407C64.8897 67.3107 64.8697 67.4707 64.8197 67.6307C64.6497 68.2507 64.1397 68.8108 63.2997 69.2908C62.2397 69.9108 60.9797 70.2107 59.5297 70.2107C58.0797 70.2107 56.8197 69.9008 55.7497 69.2808L48.1797 64.9108L40.6497 69.2507C39.5797 69.8707 38.3297 70.1708 36.8797 70.1708C35.4297 70.1708 34.1697 69.8607 33.0997 69.2407C32.0297 68.6207 31.4897 67.8908 31.4797 67.0608C31.4797 66.2208 32.0097 65.4907 33.0797 64.8807L35.4097 63.5308L38.3297 61.8407L39.7497 61.0208L40.5997 60.5308L39.7497 60.0408L33.6997 56.5408L33.0297 56.1608C31.9597 55.5408 31.4197 54.8107 31.4097 53.9807C31.4097 53.1407 31.9397 52.4208 33.0097 51.8008C34.0697 51.1908 35.3297 50.8807 36.7797 50.8807C37.8697 50.8807 38.8597 51.0608 39.7497 51.4208C40.0297 51.5308 40.2997 51.6608 40.5597 51.8108L42.5897 52.9907L44.9397 54.3407L48.1297 56.1907L55.6597 51.8407C56.7197 51.2307 57.9797 50.9208 59.4297 50.9208C60.8697 50.9308 62.1297 51.2407 63.2097 51.8607C63.9497 52.2907 64.4397 52.7708 64.6597 53.3008C64.7697 53.5408 64.8197 53.7808 64.8197 54.0408V54.0608C64.8197 54.8808 64.2897 55.6107 63.2297 56.2107L55.6997 60.5608L61.1497 63.7007L63.2797 64.9308C64.1397 65.4308 64.6597 66.0007 64.8197 66.6407C64.8697 66.8007 64.8897 66.9607 64.8897 67.1207Z" stroke="currentColor" stroke-linejoin="round"/>
    <path d="M102.46 35.1408V35.6508C102.46 35.9008 102.41 36.1608 102.34 36.4208C102 37.6808 101.04 38.7608 99.4797 39.6608L93.7397 42.9808L81.5097 50.0408C80.3797 50.6908 79.0297 50.9608 77.4497 50.8508C75.8797 50.7308 74.6197 50.3008 73.6697 49.5308C73.2297 49.1308 72.7397 48.7608 72.1997 48.4108C71.6597 48.0708 71.1097 47.7308 70.5397 47.4008C66.9497 45.4008 62.9297 43.9608 58.4897 43.1008C54.1897 42.2708 49.8097 41.9508 45.3597 42.1608C45.2197 42.1608 45.0797 42.1708 44.9397 42.1808L45.3597 41.8307L52.3597 35.9308C54.2497 36.2908 56.1497 36.3407 58.0697 36.0707C59.9897 35.8007 61.6697 35.2508 63.1097 34.4208C65.1797 33.2208 66.2097 31.7707 66.1997 30.0707C66.1897 29.0507 65.8197 28.1108 65.0697 27.2708C64.5697 26.7008 63.9097 26.1807 63.0697 25.7007C60.9797 24.5007 58.4597 23.8908 55.5097 23.8908C54.5897 23.8908 53.7197 23.9409 52.8897 24.0609C51.0297 24.3109 49.3897 24.8508 47.9597 25.6708C46.5197 26.5108 45.5697 27.4807 45.0997 28.5807C44.6397 29.6907 44.7197 30.7908 45.3597 31.8808L33.6797 36.5508C32.9897 36.8008 32.6097 37.1807 32.5497 37.6907C32.4897 38.2007 32.7497 38.6107 33.3097 38.9407L39.7497 42.6608C37.1697 43.0508 34.6597 43.6507 32.2097 44.4407C29.7597 45.2407 27.4997 46.2308 25.4297 47.4308C23.6797 48.4408 22.1397 49.5708 20.8297 50.8008C19.5097 52.0308 18.4797 53.3408 17.7297 54.7208C17.1697 55.9908 15.8997 56.7008 13.9197 56.8608C11.9397 57.0208 10.5997 56.6108 9.89972 55.6308C8.02972 53.8608 6.5197 52.0108 5.3797 50.1008C3.5797 47.1008 2.67969 43.9207 2.67969 40.5807C2.67969 38.7207 2.95971 36.8007 3.51971 34.8307C5.70971 27.0807 11.5697 20.4507 21.0997 14.9507L38.8897 4.68084C40.4497 3.77084 42.3197 3.22082 44.4897 3.03082C46.6597 2.83082 48.7497 2.99079 50.7697 3.50079L81.9597 11.7308C83.1597 12.0608 84.1997 12.4808 85.0797 12.9908C85.9597 13.5008 86.6897 14.1008 87.2597 14.7908L101.52 32.8008C102.1 33.5608 102.41 34.3408 102.46 35.1408Z" stroke="currentColor" stroke-linejoin="round"/>
    <path d="M64.8197 54.0608V66.6407C64.6597 66.0007 64.1397 65.4308 63.2797 64.9308L61.1497 63.7007L55.6997 60.5608L63.2297 56.2107C64.2897 55.6107 64.8197 54.8808 64.8197 54.0608Z" stroke="currentColor" stroke-linejoin="round"/>
    <path d="M102.479 55.4008C102.479 55.7308 102.429 56.0808 102.339 56.4208C101.999 57.6808 101.039 58.7608 99.4794 59.6608L81.5095 70.0408C80.3795 70.6908 79.0295 70.9607 77.4495 70.8507C75.8795 70.7307 74.6194 70.3008 73.6694 69.5308C73.2294 69.1308 72.7395 68.7608 72.1995 68.4108C71.6595 68.0708 71.1094 67.7308 70.5394 67.4008C68.7394 66.4008 66.8395 65.5407 64.8195 64.8207V54.0408C64.8195 53.7808 64.7694 53.5408 64.6594 53.3008C64.4394 52.7708 63.9495 52.2907 63.2095 51.8607C62.1295 51.2407 60.8694 50.9308 59.4294 50.9208C57.9794 50.9208 56.7194 51.2307 55.6594 51.8407L48.1295 56.1907L44.9395 54.3407V42.1808C45.0795 42.1708 45.2194 42.1608 45.3594 42.1608C49.8094 41.9508 54.1894 42.2707 58.4894 43.1007C62.9294 43.9607 66.9494 45.4008 70.5394 47.4008C71.1094 47.7308 71.6595 48.0708 72.1995 48.4108C72.7395 48.7608 73.2294 49.1308 73.6694 49.5308C74.6194 50.3008 75.8795 50.7307 77.4495 50.8507C79.0295 50.9607 80.3795 50.6908 81.5095 50.0408L93.7394 42.9807L99.4794 39.6608C101.039 38.7608 101.999 37.6808 102.339 36.4208C102.409 36.1608 102.449 35.9008 102.459 35.6508L102.479 55.4008Z" stroke="currentColor" stroke-linejoin="round"/>
    <path d="M66.1995 30.0707C66.1995 31.7707 65.1795 33.2208 63.1095 34.4208C61.6695 35.2508 59.9895 35.8007 58.0695 36.0707C56.1495 36.3407 54.2495 36.2908 52.3595 35.9308L45.3595 41.8307V31.8807C44.7195 30.7907 44.6395 29.6907 45.0995 28.5807C45.5695 27.4807 46.5195 26.5108 47.9595 25.6708C49.3895 24.8508 51.0295 24.3108 52.8895 24.0608C53.7195 23.9408 54.5895 23.8907 55.5095 23.8907C58.4595 23.8907 60.9795 24.5007 63.0695 25.7007C63.9095 26.1807 64.5695 26.7008 65.0695 27.2708C65.8195 28.1108 66.1895 29.0507 66.1995 30.0707Z" stroke="currentColor" stroke-linejoin="round"/>
    <path d="M39.7497 42.6608V51.4208C38.8597 51.0608 37.8697 50.8807 36.7797 50.8807C35.3297 50.8807 34.0697 51.1908 33.0097 51.8008C31.9397 52.4208 31.4097 53.1407 31.4097 53.9807V64.7207C29.2697 65.4607 27.2697 66.3608 25.4297 67.4308C23.6797 68.4408 22.1397 69.5708 20.8297 70.8008C19.5097 72.0308 18.4797 73.3407 17.7297 74.7207C17.1697 75.9907 15.8997 76.7007 13.9197 76.8607C11.9397 77.0207 10.5997 76.6107 9.89972 75.6307C5.08972 71.0707 2.67969 66.0507 2.67969 60.5807V40.5807C2.67969 43.9207 3.5797 47.1007 5.3797 50.1007C6.5197 52.0107 8.02972 53.8607 9.89972 55.6307C10.5997 56.6107 11.9397 57.0207 13.9197 56.8607C15.8997 56.7007 17.1697 55.9907 17.7297 54.7207C18.4797 53.3407 19.5097 52.0308 20.8297 50.8008C22.1397 49.5708 23.6797 48.4408 25.4297 47.4308C27.4997 46.2308 29.7597 45.2407 32.2097 44.4407C34.6597 43.6507 37.1697 43.0508 39.7497 42.6608Z" stroke="currentColor" stroke-linejoin="round"/>
    <path d="M2.67969 61.3108V60.5807" stroke="currentColor" stroke-linejoin="round"/>
    <path d="M2.67969 40.5807V40.0408" stroke="currentColor" stroke-linejoin="round"/>
    <path d="M40.5997 60.5308L39.7497 61.0208L38.3297 61.8407L35.4097 63.5308L33.0797 64.8807C32.0097 65.4907 31.4797 66.2208 31.4797 67.0608V74.4407C31.4297 74.2907 31.4097 74.1407 31.4097 73.9807V53.9807C31.4197 54.8107 31.9597 55.5408 33.0297 56.1608L33.6997 56.5408L39.7497 60.0408L40.5997 60.5308Z" stroke="currentColor" stroke-linejoin="round"/>
    <path d="M48.1795 64.9108V84.9108L40.6495 89.2507C39.5795 89.8707 38.3295 90.1708 36.8795 90.1708C35.4295 90.1708 34.1695 89.8607 33.0995 89.2407C32.0295 88.6207 31.4895 87.8908 31.4795 87.0608V67.0608C31.4895 67.8908 32.0295 68.6207 33.0995 69.2407C34.1695 69.8607 35.4295 70.1708 36.8795 70.1708C38.3295 70.1708 39.5795 69.8707 40.6495 69.2507L48.1795 64.9108Z" stroke="currentColor" stroke-linejoin="round"/>
    <path d="M64.8897 67.1407V87.1207C64.8997 87.9507 64.3697 88.6808 63.2997 89.2908C62.2397 89.9108 60.9797 90.2107 59.5297 90.2107C58.0797 90.2107 56.8197 89.9008 55.7497 89.2808L48.1797 84.9108V64.9108L55.7497 69.2808C56.8197 69.9008 58.0797 70.2107 59.5297 70.2107C60.9797 70.2107 62.2397 69.9108 63.2997 69.2908C64.1397 68.8108 64.6497 68.2507 64.8197 67.6307C64.8697 67.4707 64.8897 67.3107 64.8897 67.1407Z" stroke="currentColor" stroke-linejoin="round"/>
    <path d="M64.8896 67.1207V67.0208" stroke="currentColor" stroke-linejoin="round"/>
</svg>