<svg width="24" height="24" viewBox="0 0 100 79" fill="none" xmlns="http://www.w3.org/2000/svg" stroke-width="1px" stroke-linecap="round" stroke-linejoin="round">
    <path d="M59.4004 52.8703C59.4004 53.9603 58.7605 54.8802 57.4705 55.6302C56.1705 56.3702 54.5804 56.7503 52.7004 56.7403H16.2104C12.6204 56.7303 9.4803 55.9502 6.8103 54.4102C4.1203 52.8602 2.78051 51.0502 2.77051 48.9602V47.1102L2.65039 27.8502C2.65039 26.7602 3.31038 25.8502 4.64038 25.1302C5.97038 24.4002 7.58046 24.0403 9.47046 24.0503C11.3605 24.0503 12.9505 24.4303 14.2505 25.1803C15.5605 25.9303 16.2104 26.8502 16.2104 27.9402V48.9802L52.7705 49.0503C54.6605 49.0503 56.2305 49.4202 57.5005 50.1502C58.7605 50.8702 59.3904 51.7803 59.4004 52.8703Z" stroke="currentColor" stroke-linejoin="round"/>
    <path d="M97.0209 31.1503V31.1703C97.0209 31.4003 96.9908 31.6203 96.9208 31.8403C96.7008 32.6303 96.0709 33.3103 95.0309 33.8703C93.7009 34.6003 92.0908 34.9603 90.2008 34.9503C88.3908 34.9003 86.8406 34.5303 85.5406 33.8203C84.2306 33.1103 83.5807 32.2203 83.5807 31.1303L83.5309 22.3903L83.4608 10.1503L47.1407 10.0903C45.2507 10.0903 43.6908 9.71027 42.4708 8.96027C41.2508 8.21027 40.5909 7.31026 40.5109 6.26026C40.5009 5.17026 41.1307 4.25029 42.3807 3.48029C43.6407 2.71029 45.2107 2.32027 47.0907 2.33027L83.4208 2.39026C87.0408 2.40026 90.1907 3.18028 92.8707 4.72028C95.5507 6.27028 96.9008 8.0903 96.9108 10.1803L97.0209 31.1503Z" stroke="currentColor" stroke-linejoin="round"/>
    <path d="M97.021 31.1704V51.1504C97.021 52.2404 96.361 53.1504 95.031 53.8704C93.701 54.6004 92.0909 54.9604 90.2009 54.9504C88.3909 54.9004 86.8408 54.5304 85.5408 53.8204C84.2308 53.1104 83.5808 52.2204 83.5808 51.1304L83.4609 30.1504V10.1504L83.531 22.3904L83.5808 31.1304C83.5808 32.2204 84.2308 33.1104 85.5408 33.8204C86.8408 34.5304 88.3909 34.9004 90.2009 34.9504C92.0909 34.9604 93.701 34.6004 95.031 33.8704C96.071 33.3104 96.7009 32.6304 96.9209 31.8404C96.9909 31.6204 97.021 31.4004 97.021 31.1704Z" stroke="currentColor" stroke-linejoin="round"/>
    <path d="M83.4607 10.1503V30.1503L47.1406 30.0903C45.2506 30.0903 43.6907 29.7103 42.4707 28.9603C41.2507 28.2103 40.5907 27.3103 40.5107 26.2603V6.26025C40.5907 7.31025 41.2507 8.21027 42.4707 8.96027C43.6907 9.71027 45.2506 10.0903 47.1406 10.0903L83.4607 10.1503Z" stroke="currentColor" stroke-linejoin="round"/>
    <path d="M59.4004 52.8704V72.8704C59.4004 73.9604 58.7605 74.8803 57.4705 75.6303C56.1705 76.3703 54.5804 76.7504 52.7004 76.7404H16.2505C12.6405 76.7404 9.4903 75.9603 6.8103 74.4103C4.1203 72.8603 2.78051 71.0503 2.77051 68.9603L2.65039 47.8503V27.8503L2.7605 47.1104V48.9603C2.7805 51.0503 4.1203 52.8603 6.8103 54.4103C9.4803 55.9503 12.6204 56.7304 16.2104 56.7404H52.7004C54.5804 56.7504 56.1705 56.3703 57.4705 55.6303C58.7605 54.8803 59.4004 53.9604 59.4004 52.8704Z" stroke="currentColor" stroke-linejoin="round"/>
</svg>