<svg width="48" height="48" viewBox="0 0 109 85" fill="none" xmlns="http://www.w3.org/2000/svg" stroke-width="1px" stroke-linecap="round" stroke-linejoin="round"><path d="M55.3105 41.0044V41.8344L55.5205 41.9544C55.3805 41.6544 55.3105 41.3344 55.3105 41.0044Z" stroke="#229EFF" stroke-linejoin="round"/><path d="M46.2701 28.3047V28.3247C46.2701 29.3347 45.64 30.2147 44.37 30.9447C43.08 31.6847 41.5702 32.0447 39.7902 32.0447C39.2502 32.0447 38.7401 32.0047 38.2501 31.9347V31.9247C37.2701 31.7947 36.3702 31.5147 35.5602 31.1047C35.4502 31.0547 35.3301 30.9847 35.2201 30.9247C33.9401 30.1747 33.2902 29.2947 33.2902 28.2747C33.2802 27.2647 33.9201 26.3747 35.2001 25.6447C35.5801 25.4247 35.98 25.2347 36.41 25.0847C37.4 24.7147 38.5301 24.5347 39.7601 24.5347C41.5301 24.5347 43.0602 24.9147 44.3502 25.6547C45.6302 26.3947 46.2801 27.2747 46.2801 28.3047H46.2701Z" stroke="#229EFF" stroke-linejoin="round"/><path d="M102.39 21.4045C99.8301 17.7245 96.0202 14.4045 90.9402 11.4745C85.9202 8.57448 80.2203 6.38449 73.8303 4.91449C67.4503 3.44449 60.9503 2.69449 54.3203 2.66449C47.7103 2.63449 41.2103 3.34449 34.8403 4.79449C28.4703 6.24449 22.7602 8.42448 17.7202 11.3445C12.7302 14.2145 8.98021 17.4945 6.47021 21.1845C3.95021 24.8545 2.71022 28.6145 2.73022 32.4545C2.75022 35.8245 3.74019 39.1245 5.70019 42.3745C5.98019 42.8345 6.27033 43.2845 6.59033 43.7445C8.25033 46.1345 10.4201 48.3645 13.1201 50.4145C14.5801 51.5345 16.1902 52.6045 17.9502 53.6145C23.0302 56.5445 28.7601 58.7545 35.1501 60.2245C41.5201 61.6945 48.0301 62.4345 54.6501 62.4245C55.0301 62.4245 55.4103 62.4245 55.7903 62.4145C60.0103 62.3645 64.1703 62.0145 68.2803 61.3545C70.2403 61.0645 72.1901 60.6845 74.1301 60.2445C77.1301 59.5645 79.9802 58.7145 82.6702 57.7145C85.7002 56.5945 88.5301 55.2645 91.1601 53.7445C96.2201 50.8345 99.9902 47.5445 102.5 43.8545C102.76 43.4745 103.01 43.0945 103.24 42.7145C105.24 39.4545 106.24 36.1345 106.24 32.7645V32.6345C106.23 28.8345 104.94 25.0945 102.39 21.4045ZM83.8203 49.5045C81.1303 51.0645 78.2602 52.3545 75.2102 53.3845C73.0002 54.1445 70.7003 54.7545 68.3103 55.2345C64.2503 56.0445 59.9203 56.4645 55.3103 56.4945C55.0903 56.5045 54.8501 56.5045 54.6201 56.5045C43.2401 56.5045 33.4502 54.1345 25.2502 49.3945C21.5502 47.2545 18.6902 44.9245 16.6602 42.4045C14.6702 39.9145 13.4901 37.2445 13.1201 34.3745C13.0401 33.7445 12.9902 33.1045 12.9902 32.4645C12.9402 25.8745 16.9703 20.2545 25.0603 15.5845C28.5503 13.5745 32.3201 11.9945 36.4001 10.8545L56.8403 22.7145L91.9302 43.0845C89.9402 45.3845 87.2403 47.5345 83.8203 49.5045Z" stroke="#229EFF" stroke-linejoin="round"/><path d="M68.3105 41.0444V55.2344C64.2505 56.0444 59.9205 56.4644 55.3105 56.4944V41.8344L55.5205 41.9545H55.5305C55.8005 42.5845 56.3805 43.1444 57.2505 43.6444C58.1005 44.1344 59.0604 44.4645 60.1204 44.6245H60.1304C60.6704 44.7145 61.2406 44.7645 61.8306 44.7645C63.6006 44.7645 65.1304 44.4044 66.4004 43.6644C67.6704 42.9344 68.3105 42.0544 68.3105 41.0444Z" stroke="#229EFF" stroke-linejoin="round"/><path d="M91.9304 43.0845C89.9404 45.3845 87.2406 47.5345 83.8206 49.5045C81.1306 51.0645 78.2604 52.3545 75.2104 53.3845L68.3105 49.3745V41.0245C68.3005 40.0045 67.6504 39.1145 66.3704 38.3845C65.0904 37.6345 63.5605 37.2645 61.7905 37.2645C60.0205 37.2645 58.5005 37.6245 57.2205 38.3645C55.9405 39.1045 55.3105 39.9845 55.3105 41.0045V41.8345L46.2705 36.5845V28.3045C46.2705 27.2745 45.6206 26.3945 44.3406 25.6545C43.0506 24.9145 41.5205 24.5345 39.7505 24.5345C38.5205 24.5345 37.3904 24.7145 36.4004 25.0845V10.8545L56.8406 22.7145L91.9304 43.0845Z" stroke="#229EFF" stroke-linejoin="round"/><path d="M36.4001 10.8545V25.0845C35.9701 25.2345 35.5702 25.4245 35.1902 25.6445C33.9102 26.3745 33.2702 27.2645 33.2802 28.2745V31.8345C30.3802 32.8445 27.6403 34.0945 25.0603 35.5845C21.4503 37.6645 18.6501 39.9445 16.6601 42.4045C14.6701 39.9145 13.4901 37.2445 13.1201 34.3745C13.0401 33.7445 12.9902 33.1045 12.9902 32.4645C12.9402 25.8745 16.9703 20.2545 25.0603 15.5845C28.5503 13.5745 32.3201 11.9945 36.4001 10.8545Z" stroke="#229EFF" stroke-linejoin="round"/><path d="M68.3105 41.0246V41.0446C68.3105 42.0546 67.6704 42.9346 66.4004 43.6646C65.1304 44.4046 63.6006 44.7646 61.8306 44.7646C61.2406 44.7646 60.6704 44.7146 60.1304 44.6346H60.1204C59.0604 44.4646 58.1005 44.1346 57.2505 43.6446C56.3805 43.1446 55.8005 42.5847 55.5305 41.9547H55.5205C55.3805 41.6547 55.3105 41.3346 55.3105 41.0046C55.3105 39.9846 55.9405 39.1046 57.2205 38.3646C58.5005 37.6246 60.0205 37.2646 61.7905 37.2646C63.5605 37.2646 65.0904 37.6346 66.3704 38.3846C67.6504 39.1146 68.3005 40.0046 68.3105 41.0246Z" stroke="#229EFF" stroke-linejoin="round"/><path d="M106.24 32.7646V52.6346C106.27 56.4446 105.02 60.1846 102.5 63.8546C99.9905 67.5446 96.2204 70.8346 91.1604 73.7446C86.1804 76.6246 80.5004 78.7946 74.1304 80.2446C67.7704 81.6946 61.2704 82.4246 54.6504 82.4246C48.0304 82.4346 41.5204 81.6945 35.1504 80.2245C28.7604 78.7545 23.0304 76.5446 17.9504 73.6146C12.9304 70.7246 9.14058 67.4246 6.59058 63.7446C4.04058 60.0546 2.75047 56.2946 2.73047 52.4546V32.4546C2.75047 35.8246 3.74044 39.1246 5.70044 42.3746C5.98044 42.8346 6.27058 43.2846 6.59058 43.7446C8.25058 46.1346 10.4204 48.3646 13.1204 50.4146C14.5804 51.5346 16.1904 52.6046 17.9504 53.6146C23.0304 56.5446 28.7604 58.7545 35.1504 60.2245C41.5204 61.6945 48.0304 62.4346 54.6504 62.4246C55.0304 62.4246 55.4105 62.4246 55.7905 62.4146C60.0105 62.3646 64.1705 62.0146 68.2805 61.3546C70.2405 61.0646 72.1904 60.6846 74.1304 60.2446C77.1304 59.5646 79.9804 58.7145 82.6704 57.7145C85.7004 56.5945 88.5304 55.2646 91.1604 53.7446C96.2204 50.8346 99.9905 47.5446 102.5 43.8546C102.76 43.4746 103.01 43.0945 103.24 42.7145C105.24 39.4545 106.24 36.1346 106.24 32.7646Z" stroke="#229EFF" stroke-linejoin="round"/><path d="M46.2703 28.3245V48.3044C46.2803 49.3244 45.6501 50.2045 44.3701 50.9445C43.0801 51.6845 41.5703 52.0444 39.7903 52.0444C38.0303 52.0344 36.5002 51.6644 35.2102 50.9244C33.9302 50.1744 33.2803 49.2944 33.2803 48.2744V28.2744C33.2803 29.2944 33.9302 30.1744 35.2102 30.9244C35.3202 30.9844 35.4403 31.0544 35.5503 31.1044C36.3603 31.5144 37.2602 31.7944 38.2402 31.9244V31.9344C38.7302 32.0044 39.2403 32.0444 39.7803 32.0444C41.5603 32.0444 43.0704 31.6845 44.3604 30.9445C45.6304 30.2145 46.2603 29.3345 46.2603 28.3245H46.2703Z" stroke="#229EFF" stroke-linejoin="round"/></svg>