<svg width="24" height="24" viewBox="0 0 108 85" fill="none" xmlns="http://www.w3.org/2000/svg" stroke-width="1px" stroke-linecap="round" stroke-linejoin="round">
    <path d="M93.2297 56.0839V75.9339L93.2197 76.1939C93.1997 76.5739 93.0796 76.9639 92.8696 77.3339C92.4896 77.9939 91.8896 78.5539 91.0596 79.0339L88.7795 80.3539C86.9895 81.3939 84.8396 81.7639 82.3396 81.4839C79.8496 81.1939 78.1096 80.3739 77.1296 79.0139L61.2197 57.7439V37.7439L77.1296 59.0139C78.1096 60.3739 79.8496 61.1939 82.3396 61.4839C84.7096 61.7539 86.7698 61.4339 88.4998 60.5039C88.5998 60.4539 88.6895 60.4039 88.7795 60.3539L91.0596 59.0339C91.8896 58.5539 92.4896 57.9939 92.8696 57.3339C93.0996 56.9239 93.2197 56.5039 93.2297 56.0839Z" stroke="currentColor" stroke-linejoin="round"/>
    <path d="M105.24 9.49396V9.51396C105.24 11.384 104.109 12.984 101.839 14.284L83.5994 24.814L83.7893 25.434L88.8894 41.764L93.1194 55.324C93.1994 55.574 93.2395 55.834 93.2295 56.084C93.2195 56.504 93.0994 56.924 92.8694 57.334C92.4894 57.994 91.8893 58.554 91.0593 59.034L88.7793 60.354C88.6893 60.404 88.5995 60.454 88.4995 60.504C86.7695 61.434 84.7094 61.754 82.3394 61.484C79.8494 61.194 78.1094 60.374 77.1294 59.014L61.2195 37.744L46.2993 46.354L49.5793 56.864C49.6293 57.054 49.6494 57.234 49.6494 57.424C49.6494 57.784 49.5594 58.134 49.3794 58.484C49.0994 59.004 48.6194 59.464 47.9294 59.864L45.4395 61.294C44.0595 62.094 42.3694 62.414 40.3594 62.244C38.3494 62.084 36.8494 61.484 35.8794 60.434L31.4194 55.684L25.1094 48.954L5.21948 42.744C3.41948 42.174 2.36936 41.314 2.08936 40.154C2.03936 39.954 2.01953 39.764 2.01953 39.584C2.01953 38.664 2.5895 37.884 3.7395 37.214L4.05933 37.034L6.21948 35.784C6.91948 35.384 7.70938 35.104 8.60938 34.944C9.50937 34.784 10.4494 34.744 11.4194 34.824L29.6194 36.724L37.5693 32.134L44.5393 28.104L7.68945 18.924C5.32945 18.354 3.90942 17.354 3.40942 15.914C3.32942 15.684 3.27952 15.454 3.25952 15.234C3.15952 14.084 3.85938 13.064 5.36938 12.194L7.64941 10.874C8.47941 10.404 9.45938 10.054 10.6094 9.83396C11.7494 9.61396 12.9094 9.56396 14.0894 9.69396L66.9194 15.184L85.1494 4.65396C87.4294 3.34396 90.1995 2.68396 93.4595 2.69396C96.7195 2.69396 99.4893 3.36396 101.789 4.68396C104.079 6.01396 105.23 7.61396 105.24 9.49396Z" stroke="currentColor" stroke-linejoin="round"/>
    <path d="M105.24 9.51392V29.4939C105.25 31.3739 104.12 32.9739 101.84 34.2839L88.8896 41.7639L83.7896 25.4339L83.5996 24.8139L101.84 14.2839C104.11 12.9839 105.24 11.3839 105.24 9.51392Z" stroke="currentColor" stroke-linejoin="round"/>
    <path d="M49.6289 77.7438V77.6938" stroke="currentColor" stroke-linejoin="round"/>
    <path d="M49.6494 57.4239V64.4239L49.6294 77.6939C49.5994 77.9539 49.5194 78.2239 49.3794 78.4839C49.0994 79.0039 48.6194 79.4639 47.9294 79.8639L45.4395 81.2939C44.0595 82.0939 42.3694 82.4139 40.3594 82.2439C38.3494 82.0839 36.8494 81.4839 35.8794 80.4339L25.1094 68.9539V48.9539L31.4194 55.6839L35.8794 60.4339C36.8494 61.4839 38.3494 62.0839 40.3594 62.2439C42.3694 62.4139 44.0595 62.0939 45.4395 61.2939L47.9294 59.8639C48.6194 59.4639 49.0994 59.0039 49.3794 58.4839C49.5594 58.1339 49.6494 57.7839 49.6494 57.4239Z" stroke="currentColor" stroke-linejoin="round"/>
    <path d="M61.219 37.7439V57.7439L49.6389 64.4239V57.4239C49.6489 57.2339 49.6289 57.0539 49.5789 56.8639L46.2988 46.3539L61.219 37.7439Z" stroke="currentColor" stroke-linejoin="round"/>
    <path d="M25.1099 48.954V68.954L5.22003 62.744C3.42003 62.174 2.3699 61.314 2.0899 60.154C2.0599 60.034 2.03984 59.904 2.02984 59.794V39.584C2.01984 39.764 2.0399 39.954 2.0899 40.154C2.3699 41.314 3.42003 42.174 5.22003 42.744L25.1099 48.954Z" stroke="currentColor" stroke-linejoin="round"/>
    <path d="M2.01953 39.584V39.354" stroke="currentColor" stroke-linejoin="round"/>
    <path d="M44.5396 28.1039L37.5696 32.1339L29.6196 36.7239L11.4197 34.8239C10.4497 34.7439 9.50962 34.7839 8.60962 34.9439C7.70962 35.1039 6.91973 35.3839 6.21973 35.7839L4.05957 37.0339C3.76957 36.6939 3.54967 36.3239 3.40967 35.9139C3.31967 35.6439 3.25977 35.3839 3.25977 35.1339V15.2339C3.27977 15.4539 3.32967 15.6839 3.40967 15.9139C3.90967 17.3539 5.3297 18.3539 7.6897 18.9239L44.5396 28.1039Z" stroke="currentColor" stroke-linejoin="round"/>
    <path d="M3.25977 15.2339V14.9739" stroke="currentColor" stroke-linejoin="round"/>
    <path d="M49.6494 57.424V57.304" stroke="currentColor" stroke-linejoin="round"/>
</svg>