<svg width="48" height="48" viewBox="0 0 95 78" fill="none" xmlns="http://www.w3.org/2000/svg" stroke-width="1px" stroke-linecap="round" stroke-linejoin="round"><path d="M2.33008 52.1128C2.34008 52.0528 2.36006 51.9928 2.37006 51.9228V51.8628C2.35006 51.9428 2.33008 52.0228 2.33008 52.1128Z" stroke="#229EFF" stroke-linejoin="round"/><path d="M70.3301 36.8929C70.3301 37.0929 70.3001 37.2929 70.2201 37.5029C70.1601 37.7029 70.0601 37.9128 69.9301 38.1228C69.6601 38.5428 69.2601 38.9129 68.7201 39.2229C67.5701 39.8929 66.2201 40.2129 64.6701 40.2129C63.1201 40.2129 61.7601 39.8729 60.6101 39.2129C60.0701 38.9029 59.6601 38.5329 59.3901 38.1029C59.1201 37.6729 58.9801 37.2628 58.9801 36.8728L58.8101 23.4929V22.5329C58.7901 20.7429 57.6501 19.1929 55.3801 17.8829C53.1101 16.5729 50.4201 15.9129 47.3101 15.9029L9.22009 15.8329C7.46009 15.8329 5.97012 15.5029 4.75012 14.8329C3.53012 14.1729 2.79013 13.3329 2.51013 12.3129C2.39013 11.8829 2.34009 11.4529 2.34009 11.0329V10.9529C2.35009 10.1729 2.57012 9.41285 3.00012 8.69285C3.67012 7.56285 4.74009 6.56285 6.22009 5.71285C7.77009 4.82285 9.61011 4.13285 11.7401 3.64285C13.8601 3.16285 16.1401 2.92285 18.5701 2.92285H52.9201C55.2101 2.93285 57.3601 3.16285 59.3601 3.61285C61.3501 4.06285 63.1301 4.74285 64.6901 5.64285C66.3801 6.62285 67.7201 7.74285 68.7101 9.01285C69.6901 10.2828 70.1901 11.5829 70.2001 12.9029L70.3301 36.8929Z" stroke="#229EFF" stroke-linejoin="round"/><path d="M92.7601 65.7629C92.7601 67.1729 92.32 68.4629 91.41 69.6529C90.5 70.8429 89.0801 71.9929 87.1201 73.1229C85.7801 73.9029 84.1101 74.513 82.1201 74.963C80.1301 75.403 77.9801 75.6229 75.6901 75.6229L8.11005 75.5529C7.03005 75.5529 6.21004 75.473 5.67004 75.313C5.13004 75.163 4.59005 74.9229 4.05005 74.6129C2.90005 73.9429 2.32006 73.1629 2.31006 72.2729V52.3829C2.31006 52.3829 2.32007 52.463 2.32007 52.503C2.33007 52.563 2.35005 52.6229 2.36005 52.6829C2.52005 53.4029 3.08005 54.0429 4.05005 54.6129C4.59005 54.9229 5.13004 55.163 5.67004 55.313C6.21004 55.473 7.03005 55.5529 8.11005 55.5529L53.0801 55.603H70.3101L70.3201 55.6129H75.6901L75.98 55.6229C78.16 55.6029 80.2101 55.383 82.1201 54.963C84.1101 54.513 85.7801 53.9029 87.1201 53.1229C89.0801 51.9929 90.5 50.8429 91.41 49.6529C92.26 48.5329 92.7001 47.3329 92.7501 46.0229V65.7629H92.7601Z" stroke="#229EFF" stroke-linejoin="round"/><path d="M92.7601 45.7628C92.7601 45.8228 92.7601 45.8828 92.7501 45.9328C92.7601 45.9628 92.7601 45.9928 92.7501 46.0228C92.7001 47.3328 92.2601 48.5328 91.4101 49.6528C90.5001 50.8428 89.0801 51.9928 87.1201 53.1228C85.7801 53.9028 84.1101 54.5128 82.1201 54.9628C80.2101 55.3828 78.1601 55.6028 75.9801 55.6228H70.3201L70.3101 55.6128H58.9701L53.0801 55.6028L8.11011 55.5528C7.03011 55.5528 6.21011 55.4728 5.6701 55.3128C5.1301 55.1628 4.59011 54.9228 4.05011 54.6128C3.08011 54.0428 2.52011 53.4028 2.36011 52.6828C2.35011 52.6228 2.33013 52.5628 2.32013 52.5028C2.32013 52.4628 2.31012 52.4228 2.31012 52.3828V52.2728C2.31012 52.2728 2.31013 52.1628 2.32013 52.1128C2.33013 52.0528 2.35011 51.9928 2.36011 51.9228V51.8628C2.50011 51.1328 3.06014 50.4928 4.02014 49.9328C4.49014 49.6628 5.0801 49.4328 5.7901 49.2628C6.5001 49.0928 7.26013 49.0028 8.07013 49.0028L42.7201 49.0628C43.2301 49.0628 43.7001 49.0028 44.1201 48.8628C44.2501 48.8128 44.3701 48.7528 44.4901 48.6828C45.0601 48.3528 45.3401 47.9528 45.3401 47.4828C45.3401 47.0128 45.0701 46.6228 44.5201 46.3128C43.9801 46.0028 43.3101 45.8428 42.5001 45.8428H7.94012C7.27012 45.8328 6.5901 45.7628 5.9201 45.6028C5.2401 45.4428 4.56014 45.1728 3.89014 44.7828C3.12014 44.3428 2.61011 43.8528 2.36011 43.3028C2.34011 43.2728 2.32012 43.2328 2.31012 43.1928C2.20012 42.9528 2.15015 42.6928 2.15015 42.4328C2.15015 42.1728 2.20012 41.9128 2.31012 41.6628C2.54012 41.0828 3.06011 40.5628 3.86011 40.1028C4.17011 39.9228 4.50011 39.7628 4.86011 39.6428C5.26011 39.4628 5.6501 39.3428 6.0401 39.2628C6.6801 39.1228 7.34014 39.0528 8.02014 39.0628L42.6701 39.1228C43.4801 39.1228 44.1501 38.9728 44.6901 38.6528C45.2301 38.3428 45.5001 37.9528 45.5001 37.4928C45.4901 37.0228 45.2201 36.6328 44.6801 36.3128C44.3101 36.1028 43.8701 35.9528 43.3701 35.8928L9.21014 35.8328C8.61014 35.8328 8.05013 35.7928 7.51013 35.7128C7.45013 35.7028 7.39009 35.7028 7.34009 35.6928C6.82009 35.6628 6.33012 35.5928 5.87012 35.4828C5.19012 35.3328 4.55012 35.0728 3.94012 34.7228C2.86012 34.0928 2.31012 33.3128 2.31012 32.3828C2.31012 32.2828 2.3201 32.2228 2.3501 32.1328V32.0028C2.3501 31.9328 2.37014 31.8628 2.39014 31.7928C2.56014 31.1128 3.0701 30.5228 3.9101 30.0428C4.4501 29.7328 5.0601 29.5028 5.7301 29.3428C6.4101 29.1928 7.15014 29.1128 7.96014 29.1128L42.4101 29.1728C43.2201 29.1828 43.9101 29.0128 44.4901 28.6828C45.0601 28.3528 45.3401 27.9528 45.3401 27.4828C45.3401 27.0128 45.0701 26.6228 44.5201 26.3128C43.9801 26.0028 43.3101 25.8428 42.5001 25.8428H7.94012C7.39012 25.8328 6.83009 25.7828 6.28009 25.6728C6.16009 25.6528 6.0401 25.6328 5.9201 25.6028C5.2401 25.4428 4.56014 25.1728 3.89014 24.7828C3.09014 24.3228 2.58014 23.8128 2.33014 23.2428C2.21014 22.9828 2.15015 22.7128 2.15015 22.4328C2.15015 22.1528 2.21014 21.8828 2.33014 21.6228C2.57014 21.0628 3.08011 20.5528 3.86011 20.1028C4.40011 19.7828 5.01011 19.5528 5.68011 19.4028C6.36011 19.2428 7.1001 19.1728 7.9101 19.1728L47.6301 19.2428C49.1101 19.2428 50.3801 19.5828 51.4301 20.2728C52.4801 20.9528 53.0101 21.7228 53.0101 22.5828V22.9328L53.0901 36.8428V36.8628C53.1001 37.7128 53.3901 38.5628 53.9701 39.4028C54.5501 40.2428 55.3401 40.9628 56.3601 41.5428C57.1101 41.9728 57.9201 42.3428 58.7901 42.6328C58.8501 42.6528 58.9101 42.6728 58.9701 42.6928C59.3201 42.8028 59.6901 42.9028 60.0601 42.9928C60.2201 43.0328 60.3801 43.0728 60.5401 43.1028C61.7101 43.3528 62.9701 43.4928 64.3201 43.5228C66.4801 43.5628 68.4601 43.2728 70.2401 42.6328C70.2701 42.6328 70.2901 42.6128 70.3201 42.6028C71.1101 42.3328 71.8501 41.9828 72.5701 41.5728C73.5101 41.0328 74.3201 40.3728 74.9901 39.5928C75.6601 38.8128 76.0001 37.9128 75.9901 36.9028L75.9001 20.8728C75.9001 20.0128 76.2201 19.2628 76.8501 18.6228C77.4901 17.9828 78.4501 17.5628 79.7401 17.3728C81.3601 17.1428 82.8801 17.1628 84.3001 17.4328C85.7201 17.7128 87.0001 18.1828 88.1501 18.8428C89.5801 19.6728 90.7001 20.7028 91.5101 21.9528C92.3301 23.2028 92.7401 24.5328 92.7501 25.9328V45.7628H92.7601Z" stroke="#229EFF" stroke-linejoin="round"/><path d="M58.97 36.873V42.693C58.91 42.673 58.85 42.653 58.79 42.633V42.533C58.78 40.743 57.6401 39.193 55.3701 37.883C54.6501 37.473 53.89 37.123 53.09 36.843L53.0101 22.933V22.583C53.0101 21.723 52.4801 20.953 51.4301 20.273C50.3801 19.583 49.1101 19.243 47.6301 19.243L7.91003 19.173C7.10003 19.173 6.36005 19.243 5.68005 19.403C5.01005 19.553 4.40005 19.783 3.86005 20.103C3.08005 20.553 2.57008 21.063 2.33008 21.623V11.033C2.33008 11.453 2.38006 11.883 2.50006 12.313C2.78006 13.333 3.52005 14.173 4.74005 14.833C5.96005 15.503 7.45008 15.833 9.21008 15.833L47.3 15.903C50.41 15.913 53.1001 16.573 55.3701 17.883C57.6401 19.193 58.78 20.743 58.79 22.533V23.493L58.97 36.873Z" stroke="#229EFF" stroke-linejoin="round"/><path d="M2.33008 52.113C2.33008 52.113 2.32007 52.223 2.32007 52.273V51.543V52.113H2.33008Z" stroke="#229EFF" stroke-linejoin="round"/><path d="M45.5001 37.4928C45.5001 37.9528 45.2301 38.3428 44.6901 38.6528C44.1501 38.9728 43.48 39.1228 42.67 39.1228L8.02008 39.0628C7.34008 39.0528 6.68004 39.1228 6.04004 39.2628C5.65004 39.3428 5.26005 39.4628 4.86005 39.6428C4.50005 39.7628 4.17005 39.9228 3.86005 40.1028C3.06005 40.5628 2.54006 41.0828 2.31006 41.6628V32.3828C2.31006 33.3128 2.86006 34.0928 3.94006 34.7228C4.55006 35.0728 5.19006 35.3328 5.87006 35.4828C6.33006 35.5928 6.82003 35.6628 7.34003 35.6928C7.39003 35.7028 7.45007 35.7028 7.51007 35.7128C8.05007 35.7928 8.61008 35.8328 9.21008 35.8328L43.3701 35.8928C43.8701 35.9528 44.3101 36.1028 44.6801 36.3128C45.2201 36.6328 45.4901 37.0228 45.5001 37.4928Z" stroke="#229EFF" stroke-linejoin="round"/><path d="M2.36011 32.6828L2.3501 32.1328" stroke="#229EFF" stroke-linejoin="round"/><path d="M45.3502 27.4829C45.3502 27.9529 45.0702 28.3529 44.5002 28.6829C43.9202 29.0129 43.2302 29.1829 42.4202 29.1729L7.97015 29.1129C7.16015 29.1129 6.42017 29.1929 5.74017 29.3429C5.07017 29.5029 4.46017 29.7329 3.92017 30.0429C3.08017 30.5229 2.57021 31.1129 2.40021 31.7929C2.36021 31.5429 2.34015 31.2929 2.34015 31.0429L2.16016 22.4329C2.16016 22.7129 2.22015 22.9829 2.34015 23.2429C2.59015 23.8129 3.10021 24.3229 3.90021 24.7829C4.57021 25.1729 5.25018 25.4429 5.93018 25.6029C6.05018 25.6329 6.17016 25.6529 6.29016 25.6729C6.84016 25.7829 7.4002 25.8329 7.9502 25.8429H42.5102C43.3202 25.8429 43.9902 26.0029 44.5302 26.3129C45.0802 26.6229 45.3502 27.0129 45.3502 27.4829Z" stroke="#229EFF" stroke-linejoin="round"/><path d="M2.35004 32.003L2.33008 31.043" stroke="#229EFF" stroke-linejoin="round"/><path d="M70.33 36.8928V42.6028C70.33 42.6028 70.28 42.6228 70.25 42.6328C68.47 43.2728 66.49 43.5628 64.33 43.5228C62.98 43.4928 61.72 43.3528 60.55 43.1028C60.39 43.0728 60.23 43.0328 60.07 42.9928C59.7 42.9028 59.33 42.8028 58.98 42.6928V36.8728C58.98 37.2628 59.12 37.6728 59.39 38.1028C59.66 38.5328 60.07 38.9028 60.61 39.2128C61.76 39.8728 63.12 40.2128 64.67 40.2128C66.22 40.2128 67.57 39.8928 68.72 39.2228C69.26 38.9128 69.66 38.5428 69.93 38.1228C70.06 37.9128 70.16 37.7028 70.22 37.5028C70.3 37.2928 70.33 37.0928 70.33 36.8928Z" stroke="#229EFF" stroke-linejoin="round"/><path d="M45.3502 47.4826C45.3502 47.9526 45.0702 48.3526 44.5002 48.6826C44.3802 48.7526 44.2602 48.8126 44.1302 48.8626C43.7102 49.0026 43.2402 49.0626 42.7302 49.0626L8.0802 49.0026C7.2702 49.0026 6.51017 49.0926 5.80017 49.2626C5.09017 49.4326 4.50015 49.6626 4.03015 49.9326C3.07015 50.4926 2.51018 51.1326 2.37018 51.8626C2.35018 51.9426 2.3302 52.0226 2.3302 52.1126V51.5426L2.16016 42.4326C2.16016 42.6926 2.21019 42.9526 2.32019 43.1926C2.33019 43.2326 2.35018 43.2726 2.37018 43.3026C2.62018 43.8526 3.13021 44.3426 3.90021 44.7826C4.57021 45.1726 5.25018 45.4426 5.93018 45.6026C6.60018 45.7626 7.2802 45.8326 7.9502 45.8426H42.5102C43.3202 45.8426 43.9902 46.0026 44.5302 46.3126C45.0802 46.6226 45.3502 47.0126 45.3502 47.4826Z" stroke="#229EFF" stroke-linejoin="round"/></svg>