<svg width="48" height="48" viewBox="0 0 116 89" fill="none" xmlns="http://www.w3.org/2000/svg" stroke-width="1px" stroke-linecap="round" stroke-linejoin="round"><path d="M69.5701 25.1398C69.5701 25.9398 69.0402 26.6498 67.9802 27.2598L51.2402 36.9298L49.5801 37.8898L49.6201 37.9099L58.2202 42.8698C58.6802 43.1398 59.04 43.4198 59.3 43.7198C59.65 44.1198 59.8301 44.5498 59.8301 45.0098V45.0298C59.8301 45.8198 59.3002 46.5298 58.2402 47.1398C57.1802 47.7498 55.9501 48.0498 54.5601 48.0498C53.7601 48.0498 53.0201 47.9498 52.3301 47.7498C51.8101 47.5998 51.3201 47.3898 50.8601 47.1198L42.2603 42.1599L38.5203 39.9998C37.4503 39.3798 36.9202 38.6698 36.9102 37.8598C36.9102 37.2198 37.2502 36.6398 37.9302 36.1098C38.1002 35.9798 38.2902 35.8498 38.5002 35.7298L52.2903 27.7698L60.5701 22.9898C61.6401 22.3798 62.8703 22.0698 64.2603 22.0698C65.6503 22.0798 66.8902 22.3898 67.9602 22.9998C69.0202 23.6198 69.5601 24.3298 69.5701 25.1398Z" stroke="#229EFF" stroke-linejoin="round"/><path d="M100.99 57.8898V77.8698C101 78.9598 100.31 79.8998 98.9199 80.6998L91.5598 84.9498C90.1698 85.7498 88.5299 86.1498 86.6399 86.1498C84.7499 86.1498 83.11 85.7397 81.72 84.9297L66.9099 76.3798C65.5099 75.5798 64.8098 74.6298 64.7998 73.5398V53.5398C64.8098 54.6298 65.5099 55.5798 66.9099 56.3798L77.0598 62.2397L77.71 62.6097L79.2998 63.5298L81.72 64.9297C83.11 65.7397 84.7599 66.1498 86.6399 66.1498C88.5199 66.1498 90.08 65.7698 91.45 65.0098C91.49 64.9898 91.5198 64.9698 91.5598 64.9498L98.76 60.7898L98.9199 60.6998C99.5399 60.3398 100.02 59.9598 100.35 59.5398C100.78 59.0398 100.99 58.4798 100.99 57.8898Z" stroke="#229EFF" stroke-linejoin="round"/><path d="M113.26 50.79C113.26 51.87 112.57 52.8199 111.18 53.6199L108.73 55.04C108.07 55.42 107.25 55.6 106.27 55.6C105.29 55.6 104.46 55.41 103.81 55.03L101.34 53.6099C100.68 53.2299 100.35 52.7499 100.35 52.1799C100.34 51.6099 100.67 51.1399 101.32 50.7599L91.4501 45.0599L86.5401 47.9L91.4501 50.7299L98.88 55.02C99.52 55.39 100.01 55.78 100.35 56.21C100.78 56.72 100.99 57.2699 100.99 57.8699V57.89C100.99 58.48 100.78 59.04 100.35 59.54C100.02 59.96 99.54 60.34 98.92 60.7L98.7601 60.79L91.5599 64.95C91.5599 64.95 91.4901 64.9899 91.4501 65.0099C90.0801 65.7699 88.48 66.15 86.64 66.15C84.8 66.15 83.1101 65.7399 81.7201 64.9299L79.2999 63.53L77.7101 62.6099L77.0599 62.2399L66.91 56.3799C65.51 55.5799 64.8099 54.63 64.7999 53.54C64.7899 52.45 65.49 51.5 66.88 50.7L69.3299 49.29C69.9799 48.91 70.8001 48.72 71.7901 48.72C72.7801 48.72 73.5901 48.91 74.2501 49.29L76.7201 50.72C76.8501 50.79 76.9599 50.87 77.0599 50.95C77.4899 51.28 77.7101 51.68 77.7101 52.14C77.7101 52.6 77.4999 53 77.0599 53.34C76.9599 53.42 76.8501 53.4899 76.7301 53.5599L77.0599 53.7499L77.7101 54.1299L86.61 59.2599L91.4501 56.46L91.5101 56.4299L91.4501 56.4L79.17 49.2999C77.77 48.4999 77.0699 47.55 77.0599 46.46C77.0599 45.37 77.75 44.4199 79.14 43.6199L86.5001 39.3699C87.8901 38.5699 89.53 38.1699 91.41 38.1699C93.3 38.1799 94.9399 38.58 96.3399 39.39L111.15 47.9399C112.55 48.7499 113.25 49.7 113.26 50.79Z" stroke="#229EFF" stroke-linejoin="round"/><path d="M113.26 50.79V70.79C113.26 71.87 112.57 72.82 111.18 73.62L108.73 75.04C108.07 75.42 107.25 75.6 106.27 75.6C105.29 75.6 104.46 75.41 103.81 75.03L101.34 73.61C101.21 73.54 101.09 73.46 100.99 73.37V57.87C100.99 57.27 100.78 56.72 100.35 56.21V52.18C100.35 52.75 100.68 53.23 101.34 53.61L103.81 55.03C104.46 55.41 105.29 55.6 106.27 55.6C107.25 55.6 108.07 55.42 108.73 55.04L111.18 53.62C112.57 52.82 113.26 51.87 113.26 50.79Z" stroke="#229EFF" stroke-linejoin="round"/><path d="M91.4497 56.4V56.46L86.6096 59.2599L77.7097 54.1299V52.14C77.7097 51.68 77.4896 51.28 77.0596 50.95V46.46C77.0696 47.55 77.7697 48.4999 79.1697 49.2999L91.4497 56.4Z" stroke="#229EFF" stroke-linejoin="round"/><path d="M69.5701 25.1399V45.1399C69.5701 45.9399 69.0402 46.6499 67.9802 47.2599L59.8301 51.9699V45.0099C59.8301 44.5499 59.65 44.1199 59.3 43.7199C59.04 43.4199 58.6802 43.1399 58.2202 42.8699L49.6201 37.9099L49.5801 37.8899L51.2402 36.9299L67.9802 27.2599C69.0402 26.6499 69.5701 25.9399 69.5701 25.1399Z" stroke="#229EFF" stroke-linejoin="round"/><path d="M59.8301 45.0299V65.0099C59.8401 65.8099 59.3102 66.5199 58.2402 67.1399C57.1802 67.7499 55.9501 68.0499 54.5601 68.0499C53.1701 68.0499 51.9301 67.7399 50.8601 67.1199L38.5203 59.9999C37.4503 59.3799 36.9202 58.6699 36.9102 57.8599V37.8599C36.9202 38.6699 37.4503 39.3799 38.5203 39.9999L42.2603 42.1599L50.8601 47.1199C51.3201 47.3899 51.8101 47.5999 52.3301 47.7499C53.0201 47.9499 53.7601 48.0499 54.5601 48.0499C55.9501 48.0499 57.1802 47.7499 58.2402 47.1399C59.3002 46.5299 59.8301 45.8199 59.8301 45.0299Z" stroke="#229EFF" stroke-linejoin="round"/><path d="M52.29 15.1599V27.7699L38.5 35.7299C38.29 35.8499 38.0999 35.9799 37.9299 36.1099C37.2499 36.6399 36.9099 37.2199 36.9099 37.8599V45.2499L28.6299 50.0299C27.5599 50.6499 26.3299 50.9499 24.9399 50.9499C23.5499 50.9499 22.31 50.6399 21.24 50.0199C20.18 49.3999 19.6399 48.6899 19.6299 47.8899V27.8899C19.6299 27.9899 19.6399 28.0899 19.6599 28.1899C19.6799 28.2799 19.7 28.3799 19.74 28.4699C19.76 28.5499 19.7998 28.6199 19.8398 28.6899C19.8598 28.7499 19.8899 28.8099 19.9299 28.8599C19.9799 28.9399 20.0298 29.0099 20.0898 29.0799C20.1398 29.1499 20.2 29.2199 20.27 29.2799C20.38 29.3999 20.4999 29.5099 20.6399 29.6099C20.7099 29.6699 20.7899 29.7299 20.8699 29.7799C20.9799 29.8599 21.11 29.9399 21.24 30.0199C22.31 30.6399 23.5499 30.9499 24.9399 30.9499C26.3299 30.9499 27.5599 30.6499 28.6299 30.0299L33.98 26.9399L50.7 17.2899C51.76 16.6799 52.29 15.9699 52.29 15.1599Z" stroke="#229EFF" stroke-linejoin="round"/><path d="M52.2897 15.1599C52.2897 15.9699 51.7596 16.6799 50.6996 17.2899L33.9796 26.9399L28.6295 30.0299C27.5595 30.6499 26.3296 30.9499 24.9396 30.9499C23.5496 30.9499 22.3096 30.6399 21.2396 30.0199C21.1096 29.9399 20.9795 29.8599 20.8695 29.7799C20.7895 29.7299 20.7095 29.6699 20.6395 29.6099C20.4995 29.5099 20.3797 29.3999 20.2697 29.2799C20.1997 29.2199 20.1395 29.1499 20.0895 29.0799C20.0295 29.0099 19.9796 28.9399 19.9296 28.8599C19.8896 28.8099 19.8595 28.7499 19.8395 28.6899C19.7995 28.6199 19.7596 28.5499 19.7396 28.4699C19.6996 28.3799 19.6796 28.2799 19.6596 28.1899C19.6396 28.0899 19.6295 27.9899 19.6295 27.8899C19.6295 27.5399 19.7296 27.2099 19.9296 26.8999C20.0996 26.6299 20.3496 26.3699 20.6696 26.1299C20.8296 25.9999 21.0196 25.8799 21.2196 25.7599L29.8095 20.7999L19.9296 15.0999L11.3495 20.0599C10.2895 20.6699 9.05956 20.9799 7.65956 20.9799C6.26956 20.9699 5.03962 20.6599 3.96962 20.0499C2.89962 19.4299 2.35951 18.7199 2.35951 17.9099C2.34951 17.1099 2.87959 16.3999 3.93959 15.7799L26.0197 3.03992C27.0797 2.42992 28.3096 2.11987 29.6996 2.11987C31.0996 2.12987 32.3296 2.43987 33.3996 3.04987C34.4696 3.66987 35.0097 4.37988 35.0097 5.18988V5.2099C35.0097 5.9999 34.4796 6.70988 33.4196 7.30988L27.2897 10.8599L35.0097 15.3199L37.1596 16.5599L43.2995 13.0099C44.3595 12.3999 45.5896 12.0999 46.9796 12.0999C48.3696 12.0999 49.6096 12.4099 50.6796 13.0299C51.7496 13.6499 52.2797 14.3599 52.2897 15.1599Z" stroke="#229EFF" stroke-linejoin="round"/><path d="M19.9294 15.0999V26.8998C19.7294 27.2098 19.6294 27.5398 19.6294 27.8898V35.2698L11.3494 40.0598C10.2894 40.6698 9.05942 40.9798 7.65942 40.9798C6.26942 40.9698 5.03948 40.6598 3.96948 40.0498C2.89948 39.4298 2.35938 38.7199 2.35938 37.9099V17.9099C2.35938 18.7199 2.89948 19.4298 3.96948 20.0498C5.03948 20.6598 6.26942 20.9698 7.65942 20.9798C9.05942 20.9798 10.2894 20.6698 11.3494 20.0598L19.9294 15.0999Z" stroke="#229EFF" stroke-linejoin="round"/><path d="M35.01 5.20996V15.3199L27.29 10.8599L33.4199 7.30994C34.4799 6.70994 35.01 5.99996 35.01 5.20996Z" stroke="#229EFF" stroke-linejoin="round"/><path d="M101.319 50.7598C100.669 51.1398 100.339 51.6098 100.349 52.1798V56.2098C100.009 55.7798 99.5192 55.3898 98.8792 55.0198L91.4492 50.7298V45.0598L101.319 50.7598Z" stroke="#229EFF" stroke-linejoin="round"/><path d="M91.45 45.0598V50.7298L86.54 47.8998L91.45 45.0598Z" stroke="#229EFF" stroke-linejoin="round"/><path d="M77.7095 52.1399V54.1299L77.0593 53.7499L76.7295 53.5599C76.8495 53.4899 76.9593 53.4199 77.0593 53.3399C77.4993 52.9999 77.7095 52.6099 77.7095 52.1399Z" stroke="#229EFF" stroke-linejoin="round"/><path d="M29.8096 20.7998L21.2197 25.7598C21.0197 25.8798 20.8297 25.9998 20.6697 26.1298C20.3497 26.3698 20.0997 26.6298 19.9297 26.8998V15.0999L29.8096 20.7998Z" stroke="#229EFF" stroke-linejoin="round"/></svg>