<svg width="48" height="48" viewBox="0 0 99 79" fill="none" xmlns="http://www.w3.org/2000/svg" stroke-width="1px" stroke-linecap="round" stroke-linejoin="round"><path d="M86.0209 25.3385V25.3586C86.0209 27.3186 84.8409 28.9886 82.4609 30.3486L78.8009 32.4585L73.8109 35.3385L60.7809 42.8686C59.5609 43.5786 58.1109 43.9286 56.4409 43.9286C54.7709 43.9286 53.3209 43.5686 52.0909 42.8486L47.7208 40.3385L21.7109 55.3486C21.3309 55.5686 20.9208 55.7586 20.4908 55.9086C19.5508 56.2486 18.5108 56.4186 17.3708 56.4086C15.7008 56.4086 14.2509 56.0485 13.0109 55.3385L4.28088 50.2986C3.05088 49.5886 2.4309 48.7486 2.4209 47.7886C2.4209 46.8186 3.03086 45.9885 4.26086 45.2785L24.0509 33.8486L30.2709 30.2586L25.9109 27.7386C24.6709 27.0286 24.0509 26.1886 24.0509 25.2286C24.0409 24.2586 24.6509 23.4286 25.8809 22.7186L47.5609 10.1986C49.9409 8.82859 52.8409 8.13854 56.2509 8.14854C59.6509 8.14854 62.5609 8.84856 64.9609 10.2286L76.8909 17.1186L82.4109 20.3086C83.3709 20.8586 84.1309 21.4586 84.7109 22.1086C85.5809 23.0786 86.0109 24.1585 86.0209 25.3385Z" stroke="#229EFF" stroke-linejoin="round"/><path d="M96.4905 9.66855V9.90854C96.4905 10.9185 95.9205 11.7585 94.7605 12.4185C93.6005 13.0885 92.1605 13.4185 90.4205 13.4185H83.0205C81.2805 13.3985 79.8305 13.0686 78.6705 12.3886C77.5005 11.7186 76.9205 10.8786 76.9105 9.87857V7.65854L76.9005 6.88858V5.60855C76.8905 4.60855 77.4605 3.76854 78.6205 3.09854C79.7705 2.43854 81.2206 2.09855 82.9606 2.10855H90.3505C92.0905 2.10855 93.5506 2.45857 94.7106 3.12857C95.8706 3.79857 96.4606 4.63853 96.4606 5.64853L96.4905 9.66855Z" stroke="#229EFF" stroke-linejoin="round"/><path d="M47.7208 40.3386V60.3386L21.7109 75.3486C20.4809 76.0586 19.0308 76.4186 17.3708 76.4086C15.7008 76.4086 14.2509 76.0486 13.0109 75.3386L4.28088 70.2986C3.05088 69.5886 2.4309 68.7486 2.4209 67.7886V47.7886C2.4309 48.7486 3.05088 49.5886 4.28088 50.2986L13.0109 55.3386C14.2509 56.0486 15.7008 56.4086 17.3708 56.4086C18.5108 56.4186 19.5508 56.2486 20.4908 55.9086C20.9208 55.7586 21.3309 55.5686 21.7109 55.3486L47.7208 40.3386Z" stroke="#229EFF" stroke-linejoin="round"/><path d="M86.0208 25.3586V45.3386C86.0308 47.3086 84.8508 48.9786 82.4608 50.3486L60.7808 62.8686C59.5608 63.5786 58.1108 63.9286 56.4408 63.9286C54.7708 63.9286 53.3208 63.5686 52.0908 62.8486L47.7207 60.3386V40.3386L52.0908 42.8486C53.3208 43.5686 54.7708 43.9286 56.4408 43.9286C58.1108 43.9286 59.5608 43.5786 60.7808 42.8686L73.8108 35.3386L78.8008 32.4586L82.4608 30.3486C84.8408 28.9886 86.0208 27.3186 86.0208 25.3586Z" stroke="#229EFF" stroke-linejoin="round"/><path d="M96.4806 28.7586V29.9086C96.4906 30.9186 95.9206 31.7586 94.7606 32.4186C93.6006 33.0886 92.1607 33.4186 90.4207 33.4186H86.0206V25.3386C86.0106 24.1586 85.5807 23.0786 84.7107 22.1086C84.1307 21.4586 83.3706 20.8586 82.4106 20.3086L76.8906 17.1186V7.65857L76.9106 9.8786C76.9206 10.8786 77.5007 11.7186 78.6707 12.3886C79.8307 13.0686 81.2806 13.3986 83.0206 13.4086H90.4207C92.1607 13.4186 93.6006 13.0886 94.7606 12.4186C95.9206 11.7586 96.4906 10.9186 96.4906 9.90857V28.5086L96.4806 28.7586Z" stroke="#229EFF" stroke-linejoin="round"/><path d="M30.2708 30.2586L24.0508 33.8486V25.2286C24.0508 26.1886 24.6708 27.0286 25.9108 27.7386L30.2708 30.2586Z" stroke="#229EFF" stroke-linejoin="round"/></svg>