<svg width="48" height="48" viewBox="0 0 99 79" fill="none" xmlns="http://www.w3.org/2000/svg" stroke-width="1px"
     stroke-linecap="round" stroke-linejoin="round">
    <path d="M43.0299 40.2725V60.2724L17.2099 75.1725C15.9899 75.8825 14.5499 76.2325 12.8999 76.2325C11.2399 76.2225 9.79995 75.8725 8.56995 75.1625L4.23993 72.6625C3.01993 71.9525 2.3999 71.1225 2.3999 70.1625V50.1625C2.3999 51.1225 3.01993 51.9525 4.23993 52.6625L8.56995 55.1625C9.79995 55.8725 11.2399 56.2225 12.8999 56.2325C14.5499 56.2325 15.9899 55.8825 17.2099 55.1725L25.7 50.2725L43.0299 40.2725Z" stroke="currentColor" stroke-linejoin="round"/>
    <path d="M83.2003 26.6826V46.6326C83.2203 48.5926 82.0403 50.2426 79.6703 51.6126L58.1603 64.0326C56.9403 64.7426 55.5003 65.0926 53.8403 65.0826C52.1903 65.0826 50.7503 64.7326 49.5203 64.0226L43.0303 60.2726V40.2726L49.5203 44.0226C50.7503 44.7326 52.1903 45.0826 53.8403 45.0826C55.5003 45.0926 56.9403 44.7426 58.1603 44.0326L70.9603 36.6426L75.2603 34.1626L79.6703 31.6126C82.0203 30.2526 83.2003 28.6226 83.2003 26.6826Z" stroke="currentColor" stroke-linejoin="round"/>
    <path d="M83.2001 26.6324V26.6824C83.2001 28.6224 82.02 30.2524 79.67 31.6124L75.2601 34.1624L70.96 36.6424L58.16 44.0324C56.94 44.7424 55.5 45.0924 53.84 45.0824C52.19 45.0824 50.75 44.7324 49.52 44.0224L43.03 40.2724L25.7001 50.2724L17.21 55.1724C15.99 55.8824 14.55 56.2324 12.9 56.2324C11.24 56.2224 9.80007 55.8724 8.57007 55.1624L4.24005 52.6624C3.02005 51.9524 2.40002 51.1224 2.40002 50.1624C2.39002 49.2124 3.00003 48.3824 4.22003 47.6724L21.6901 37.5924L30.04 32.7724L23.54 29.0224C22.31 28.3124 21.7001 27.4824 21.6901 26.5224C21.6901 25.5724 22.2901 24.7424 23.5101 24.0324L45.03 11.6124C47.4 10.2424 50.27 9.56237 53.65 9.57237C57.03 9.58237 59.91 10.2724 62.3 11.6424L71.67 17.0524L79.6201 21.6424C80.0201 21.8724 80.39 22.1124 80.72 22.3724C82.37 23.5924 83.1901 25.0124 83.2001 26.6324Z" stroke="currentColor" stroke-linejoin="round"/>
    <path d="M96.06 9.21245V9.23244C96.06 11.1724 94.88 12.8324 92.53 14.1924C90.16 15.5624 87.29 16.2424 83.9 16.2324C80.52 16.2224 77.64 15.5324 75.26 14.1624C72.88 12.7824 71.68 11.1224 71.67 9.17244C71.66 7.22244 72.84 5.56245 75.21 4.19245C77.57 2.82245 80.45 2.14245 83.83 2.15245C87.21 2.16245 90.09 2.85244 92.47 4.22244C94.85 5.60244 96.05 7.26245 96.06 9.21245Z" stroke="currentColor" stroke-linejoin="round"/>
    <path d="M96.0599 9.23236V29.2124C96.0699 31.1624 94.8899 32.8224 92.5299 34.1924C90.1599 35.5624 87.2899 36.2424 83.8999 36.2324C83.6599 36.2324 83.43 36.2324 83.2 36.2124V26.6324C83.19 25.0124 82.3699 23.5924 80.7199 22.3724C80.3899 22.1124 80.0199 21.8724 79.6199 21.6424L71.6699 17.0524V9.17236C71.6699 11.1224 72.8799 12.7824 75.2599 14.1624C77.6399 15.5324 80.5199 16.2224 83.8999 16.2324C87.2899 16.2324 90.1599 15.5624 92.5299 14.1924C94.8799 12.8324 96.0599 11.1724 96.0599 9.23236Z" stroke="currentColor" stroke-linejoin="round"/>
    <path d="M30.0399 32.7725L21.6899 37.5925V26.5225C21.6999 27.4825 22.3099 28.3125 23.5399 29.0225L30.0399 32.7725Z" stroke="currentColor" stroke-linejoin="round"/>
</svg>