<svg width="48" height="48" viewBox="0 0 125 95" fill="none" xmlns="http://www.w3.org/2000/svg" stroke-width="1px" stroke-linecap="round" stroke-linejoin="round"><path d="M123 44.79V44.81C123 45.72 122.41 46.53 121.24 47.21C120.05 47.89 118.66 48.23 117.06 48.22C115.46 48.22 114.06 47.88 112.88 47.19L45.79 8.45998C44.6 7.76998 44 6.95998 44 6.03998C44 5.10998 44.5799 4.29998 45.7599 3.62998C46.9399 2.94998 48.33 2.60999 49.93 2.60999C51.53 2.60999 52.93 2.95998 54.12 3.64998L121.21 42.38C122.4 43.06 122.99 43.87 123 44.79Z" stroke="#229EFF" stroke-linejoin="round"/><path d="M102.16 56.83C102.16 57.76 101.57 58.56 100.4 59.23C100.17 59.36 99.9399 59.48 99.6999 59.58C98.6799 60.04 97.5199 60.26 96.2199 60.26C94.6199 60.25 93.2299 59.91 92.0399 59.22L24.9499 20.49C23.7599 19.8 23.1699 18.99 23.1599 18.07C23.1599 17.14 23.7399 16.34 24.9199 15.66C26.0999 14.98 27.4999 14.64 29.0999 14.64C30.6999 14.65 32.0999 14.99 33.2799 15.67L43.9999 21.86L46.4599 23.28L100.37 54.41C101.56 55.1 102.16 55.9 102.16 56.83Z" stroke="#229EFF" stroke-linejoin="round"/><path d="M44 6.02999V5.48999" stroke="#229EFF" stroke-linejoin="round"/><path d="M102.16 56.84V76.84C102.16 77.76 101.57 78.56 100.4 79.23C99.2199 79.92 97.8299 80.26 96.2199 80.26C94.6199 80.25 93.2299 79.91 92.0399 79.22L81.3299 73.04V68.85C81.3199 67.93 80.7299 67.12 79.5399 66.44L25.6299 35.31L23.1599 33.88V18.07C23.1699 18.99 23.7599 19.8 24.9499 20.49L92.0399 59.22C93.2299 59.91 94.6199 60.25 96.2199 60.26C97.5199 60.26 98.6799 60.04 99.6999 59.58C99.9399 59.48 100.17 59.36 100.4 59.23C101.57 58.56 102.16 57.76 102.16 56.84Z" stroke="#229EFF" stroke-linejoin="round"/><path d="M81.3301 68.87V88.87C81.3301 89.78 80.7401 90.59 79.5701 91.27C78.3901 91.95 76.9901 92.28 75.3901 92.28C73.7901 92.28 72.3901 91.93 71.2001 91.25L4.12012 52.51C2.92012 51.83 2.33008 51.02 2.33008 50.1V30.1C2.33008 31.02 2.92012 31.83 4.12012 32.51L71.2001 71.25C72.3901 71.93 73.7801 72.28 75.3901 72.28C76.6901 72.28 77.8501 72.06 78.8701 71.62C79.1101 71.52 79.3501 71.4 79.5701 71.27C80.7401 70.59 81.3301 69.78 81.3301 68.87Z" stroke="#229EFF" stroke-linejoin="round"/><path d="M81.33 68.85V68.87C81.33 69.78 80.7399 70.59 79.5699 71.27C79.3499 71.4 79.11 71.52 78.87 71.62C77.85 72.06 76.69 72.28 75.39 72.28C73.78 72.28 72.39 71.93 71.2 71.25L4.12 32.51C2.92 31.83 2.32996 31.02 2.32996 30.1C2.31996 29.17 2.90997 28.37 4.08997 27.69C5.26997 27 6.65995 26.67 8.25995 26.67C9.85995 26.67 11.26 27.02 12.45 27.7L23.16 33.88L25.6299 35.31L79.54 66.44C80.73 67.12 81.32 67.93 81.33 68.85Z" stroke="#229EFF" stroke-linejoin="round"/><path d="M123 44.81V64.81C123 65.72 122.41 66.53 121.24 67.21C120.05 67.89 118.66 68.23 117.06 68.22C115.46 68.22 114.06 67.88 112.88 67.19L102.16 61V56.83C102.16 55.9 101.56 55.1 100.37 54.41L46.46 23.28L44 21.86V6.03998C44 6.95998 44.6 7.76998 45.79 8.45998L112.88 47.19C114.06 47.88 115.46 48.22 117.06 48.22C118.66 48.23 120.05 47.89 121.24 47.21C122.41 46.53 123 45.72 123 44.81Z" stroke="#229EFF" stroke-linejoin="round"/></svg>