<svg width="48" height="48" viewBox="0 0 100 98" fill="none" xmlns="http://www.w3.org/2000/svg" stroke-width="1px"
     stroke-linecap="round" stroke-linejoin="round">
    <path d="M88.4604 28.26C88.4504 30.39 87.1205 32.22 84.4705 33.74L81.2305 35.61L78.1204 37.41L73.9404 35L72.6104 34.23C71.8604 33.8 71.0705 33.55 70.2205 33.49C69.3705 33.42 68.5204 33.48 67.6704 33.67C66.8204 33.85 66.1404 34.13 65.6404 34.51C65.1404 34.9 64.8904 35.39 64.8904 36.01V37.6901L64.9104 38.8401C64.8204 38.6501 64.7803 38.46 64.7803 38.26V18.26C64.7803 18.66 64.9503 19.0501 65.2803 19.4501C65.8203 20.1301 66.6703 20.61 67.8403 20.88C69.0103 21.16 70.2305 21.1501 71.5005 20.8501C73.5705 20.3301 75.7904 20.2501 78.1504 20.6001C80.5104 20.9601 82.6305 21.68 84.4905 22.75C87.1605 24.29 88.4804 26.13 88.4604 28.26Z" stroke="currentColor" stroke-linejoin="round"/>
    <path d="M90.3601 46.63V66.63C90.3601 68.07 89.4902 69.29 87.7502 70.3L72.7402 78.9601C72.0002 79.3901 71.2101 79.6401 70.3601 79.7001C69.5101 79.7601 68.6601 79.7 67.8101 79.51C66.9601 79.32 66.28 79.04 65.77 78.65C65.27 78.27 65.0103 77.77 65.0103 77.16L64.8901 56.4V56L64.9102 38.8501L65.0002 55.37V57.16C65.0002 57.77 65.27 58.27 65.77 58.65C66.28 59.04 66.9601 59.32 67.8101 59.51C68.6601 59.69 69.5101 59.7601 70.3601 59.7001C71.2101 59.6401 72.0002 59.3901 72.7402 58.9601L76.77 56.63L87.7502 50.3C87.8702 50.23 87.9901 50.1601 88.1001 50.0901C89.6101 49.1201 90.3601 47.97 90.3601 46.63Z" stroke="currentColor" stroke-linejoin="round"/>
    <path d="M56.02 93.05C56.02 93.72 55.5702 94.3201 54.6702 94.8401C53.7702 95.3601 52.7401 95.62 51.5701 95.62C50.4001 95.61 49.3702 95.3501 48.4602 94.8301C47.5602 94.3101 47.1001 93.71 47.1001 93.03L47.0801 89.91V69.91L47.1001 73.03C47.1001 73.71 47.5602 74.3101 48.4602 74.8301C49.3702 75.3501 50.4001 75.61 51.5701 75.62C52.7401 75.62 53.7702 75.3601 54.6702 74.8401C55.3202 74.4701 55.7302 74.0501 55.9102 73.6001L56.02 93.05Z" stroke="currentColor" stroke-linejoin="round"/>
    <path d="M47.0801 69.91V89.91C46.3401 89.78 45.66 89.62 45.05 89.42C44.43 89.22 43.8402 88.95 43.2502 88.61L4.90015 66.4701C3.15015 65.4601 2.26025 64.23 2.26025 62.79V42.79C2.26025 44.23 3.15015 45.4601 4.90015 46.4701L15.8301 52.78L37.9502 65.55L43.2502 68.61C43.8402 68.95 44.43 69.22 45.05 69.42C45.44 69.55 45.85 69.66 46.29 69.75C46.54 69.81 46.8101 69.86 47.0801 69.91Z" stroke="currentColor" stroke-linejoin="round"/>
    <path d="M97.4604 28.27C97.4604 31.84 95.2604 34.9001 90.8604 37.4301L89.3604 38.3001L84.5105 41.1001L87.7104 42.9401C89.4704 43.9601 90.3504 45.19 90.3604 46.63C90.3604 47.97 89.6103 49.1201 88.1003 50.0901C87.9903 50.1601 87.8705 50.2301 87.7505 50.3001L76.7703 56.63L72.7405 58.9601C72.0005 59.3901 71.2104 59.6401 70.3604 59.7001C69.5104 59.7601 68.6603 59.7 67.8103 59.51C66.9603 59.32 66.2803 59.0401 65.7703 58.6501C65.2703 58.2701 65.0105 57.7701 65.0105 57.1601V55.37L64.9104 38.8501L64.9004 37.6901V36.01C64.8904 35.39 65.1404 34.9 65.6404 34.51C66.1404 34.13 66.8204 33.8501 67.6704 33.6701C68.5204 33.4801 69.3705 33.42 70.2205 33.49C71.0705 33.55 71.8604 33.8 72.6104 34.23L73.9404 35L78.1204 37.4101L81.2305 35.61L84.4705 33.74C87.1205 32.22 88.4504 30.39 88.4604 28.26C88.4804 26.13 87.1605 24.29 84.4905 22.75C82.6305 21.68 80.5104 20.9601 78.1504 20.6001C75.7904 20.2501 73.5705 20.3301 71.5005 20.8501C70.2305 21.1501 69.0103 21.16 67.8403 20.88C66.6703 20.61 65.8203 20.1301 65.2803 19.4501C64.9503 19.0501 64.7803 18.66 64.7803 18.26V18.2001C64.7903 17.9201 64.8903 17.64 65.0703 17.36C65.5203 16.67 66.3305 16.18 67.4905 15.87C71.2605 14.93 75.2505 14.7401 79.4805 15.3201C83.7005 15.8901 87.4903 17.1501 90.8403 19.0901C95.2603 21.6401 97.4704 24.7 97.4604 28.27Z" stroke="currentColor" stroke-linejoin="round"/>
    <path d="M56.02 73.0501C56.02 73.2401 55.9802 73.4201 55.9102 73.6001C55.7302 74.0501 55.3202 74.4701 54.6702 74.8401C53.7702 75.3601 52.7401 75.62 51.5701 75.62C50.4001 75.61 49.3702 75.3501 48.4602 74.8301C47.5602 74.3101 47.1001 73.7101 47.1001 73.0301L47.0801 69.9101C46.8101 69.8601 46.54 69.81 46.29 69.75C45.85 69.66 45.44 69.5501 45.05 69.4201C44.43 69.2201 43.8402 68.95 43.2502 68.61L37.9502 65.5501L15.8301 52.7801L4.90015 46.4701C3.15015 45.4601 2.26025 44.2301 2.26025 42.7901C2.26025 41.3501 3.12011 40.12 4.86011 39.12L36.6201 20.7801C38.0001 19.9901 39.6102 19.5001 41.4702 19.3201C43.3302 19.1401 45.1101 19.2701 46.8101 19.7001L46.7302 5.35013C46.7302 4.68013 47.1701 4.08009 48.0701 3.56009C48.9701 3.04009 50.0102 2.78007 51.1802 2.79007C52.3402 2.79007 53.38 3.0501 54.29 3.5701C55.19 4.1001 55.6501 4.69003 55.6501 5.37003L56.02 73.0501Z" stroke="currentColor" stroke-linejoin="round"/>
    <path d="M64.7803 38.4V38.26" stroke="currentColor" stroke-linejoin="round"/>
    <path d="M97.4602 28.27V48.27C97.4602 51.84 95.2601 54.9001 90.8601 57.4301L90.3601 57.7201V46.63C90.3501 45.19 89.4702 43.9601 87.7102 42.9401L84.5103 41.1001L89.3601 38.3L90.8601 37.4301C95.2601 34.9001 97.4602 31.84 97.4602 28.27Z" stroke="currentColor" stroke-linejoin="round"/>
    <path d="M64.9102 38.8501V38.8401" stroke="currentColor" stroke-linejoin="round"/>
</svg>