<svg viewBox="0 0 113 67" fill="none" xmlns="http://www.w3.org/2000/svg" height="24" width="24" stroke-width="1px" stroke-linecap="round" stroke-linejoin="round">
    <path d="M110.53 23.8799C110.53 24.7299 109.99 25.4699 108.9 26.0999L95.42 33.8799L87.74 38.3199L83.59 40.7198L78.16 43.8499C77.07 44.4799 75.79 44.7899 74.31 44.7899C72.83 44.7899 71.55 44.4698 70.45 43.8398C69.36 43.1998 68.81 42.4599 68.8 41.6099C68.8 41.2899 68.88 40.9799 69.04 40.6899C69.29 40.2099 69.75 39.7698 70.43 39.3898L80.01 33.8599L87.69 29.4199L91.95 26.9598L83.41 26.9399L68.85 26.9199L7.90997 26.8099C6.49997 26.8099 5.25002 26.4899 4.15002 25.8599C3.06002 25.2299 2.51 24.4999 2.5 23.6799C2.5 22.8699 3.04 22.1498 4.13 21.5198C5.22 20.8898 6.47 20.5798 7.88 20.5798L68.61 20.6899L91.91 20.7299L70.26 8.22986C69.16 7.59986 68.61 6.84988 68.61 5.99988C68.6 5.14988 69.15 4.40985 70.24 3.77985C71.32 3.14985 72.61 2.83984 74.08 2.83984C75.55 2.83984 76.85 3.15986 77.94 3.78986L108.88 21.6498C109.97 22.2798 110.52 23.0299 110.53 23.8799Z" stroke="currentColor" stroke-linejoin="round"/>
    <path d="M110.53 23.8799V43.8799C110.53 44.7299 109.99 45.4699 108.9 46.0999L78.1598 63.8499C77.0698 64.4799 75.7898 64.7899 74.3098 64.7899C72.8298 64.7899 71.5498 64.4698 70.4498 63.8398C69.3598 63.1998 68.8098 62.4599 68.7998 61.6099V41.6099C68.8098 42.4599 69.3598 43.1998 70.4498 43.8398C71.5498 44.4698 72.8298 44.7899 74.3098 44.7899C75.7898 44.7899 77.0698 44.4799 78.1598 43.8499L83.5898 40.7198L87.7398 38.3199L95.4198 33.8799L108.9 26.0999C109.99 25.4699 110.53 24.7299 110.53 23.8799Z" stroke="currentColor" stroke-linejoin="round"/>
    <path d="M91.9103 20.73L68.6104 20.69V6C68.6104 6.85 69.1604 7.59998 70.2604 8.22998L91.9103 20.73Z" stroke="currentColor" stroke-linejoin="round"/>
    <path d="M91.95 26.9599L87.69 29.4199L80.01 33.8599L70.43 39.3899C69.75 39.7699 69.29 40.2099 69.04 40.6899C68.88 40.9799 68.8 41.2899 68.8 41.6099V46.9199L7.90997 46.8099C6.49997 46.8099 5.25002 46.4899 4.15002 45.8599C3.06002 45.2299 2.51 44.4999 2.5 43.6799V23.6799C2.51 24.4999 3.06002 25.2299 4.15002 25.8599C5.25002 26.4899 6.49997 26.8099 7.90997 26.8099L68.85 26.9199L83.41 26.9399L91.95 26.9599Z" stroke="currentColor" stroke-linejoin="round"/>
</svg>