<svg width="48" height="48" viewBox="0 0 114 87" fill="none" xmlns="http://www.w3.org/2000/svg" stroke-width="1px"
     stroke-linecap="round" stroke-linejoin="round">
    <path d="M61.9495 84.2898V67.7098M40.7695 47.8298V48.0898C40.8795 48.0598 40.9995 48.0398 41.1095 48.0198L40.7695 47.8298ZM56.9095 22.2798L57.1595 22.4297V22.2798H56.9095ZM66.0995 47.5898V47.7198H66.3195L66.0995 47.5898Z" stroke="currentColor" stroke-linejoin="round"/>
    <path d="M111.559 33.75V53.73C111.569 55.19 110.689 56.43 108.919 57.45L89.209 68.83V48.83L98.0291 43.74L108.919 37.45C110.679 36.44 111.559 35.2 111.559 33.75Z" stroke="currentColor" stroke-linejoin="round"/>
    <path d="M53.1888 42.4298V62.4298L52.8989 62.2598L52.8589 54.8098L52.8188 47.6898H45.3889C43.8789 47.6798 42.4489 47.7898 41.1089 48.0198L40.7689 47.8298V42.6898L31.4189 37.2899V29.8599L35.7789 32.3798L44.2889 37.2899L53.1888 42.4298Z" stroke="currentColor" stroke-linejoin="round"/>
    <path d="M25.469 48.7098V68.7098L5.63904 57.2598C3.85904 56.2398 2.96898 54.9898 2.95898 53.5298V33.5298C2.95898 34.9898 3.85904 36.2398 5.63904 37.2598L16.489 43.5198L25.469 48.7098Z" stroke="currentColor" stroke-linejoin="round"/>
    <path d="M40.7688 42.6899V48.09C38.7188 48.47 36.8788 49.13 35.2388 50.08C34.6488 50.42 34.1188 50.78 33.6588 51.15C31.9188 52.54 31.0587 54.1399 31.0787 55.9399V65.17C28.8387 66.12 26.9688 67.3 25.4688 68.71V48.71C27.0388 47.23 29.0188 46.01 31.4188 45.03C31.6288 44.94 31.8487 44.85 32.0687 44.77C34.7487 43.75 37.6488 43.0499 40.7688 42.6899Z" stroke="currentColor" stroke-linejoin="round"/>
    <path d="M108.879 29.9999L96.5991 22.9099L95.2791 22.1499C96.0591 21.1899 96.4991 20.1899 96.5991 19.1799C96.6491 18.5999 96.599 18.0099 96.429 17.4199C95.959 15.7899 94.6991 14.3799 92.6491 13.1999C90.5991 12.0099 88.1591 11.2899 85.3391 11.0199C82.5091 10.7499 79.7791 10.9699 77.1491 11.6799L63.549 3.82992C61.769 2.79992 59.6191 2.27993 57.0891 2.27993C54.5591 2.26993 52.4091 2.77995 50.6391 3.79995L5.59908 29.8099C3.82908 30.8299 2.94907 32.0699 2.95907 33.5299C2.95907 34.9899 3.85912 36.2399 5.63912 37.2599L16.4891 43.5199L25.4691 48.7099C27.0391 47.2299 29.0192 46.0099 31.4192 45.0299C31.6292 44.9399 31.8491 44.8499 32.0691 44.7699C34.7491 43.7499 37.6491 43.0499 40.7691 42.6899L31.4192 37.2899L29.3491 36.0899L24.9891 33.5699L31.4192 29.8599L35.7791 32.3799L44.2891 37.2899L53.189 42.4299H57.179L66.0991 42.4499L55.179 36.1399L44.2891 29.8599L42.2191 28.6599L37.8491 26.1399L44.2891 22.4299L48.6491 24.9499L57.1591 29.8599L76.6692 41.1199L73.8491 42.7499C76.9691 43.1199 79.8791 43.8299 82.5791 44.8599C85.2691 45.8899 87.4791 47.2099 89.2091 48.8299L98.0291 43.7399L108.919 37.4499C110.679 36.4399 111.559 35.1999 111.559 33.7499V33.7299C111.559 32.2699 110.659 31.0299 108.879 29.9999ZM82.179 16.4399C82.879 16.0399 83.6791 15.8399 84.5991 15.8399C85.5191 15.8399 86.3191 16.0399 87.0191 16.4499C87.7191 16.8499 88.0791 17.3199 88.0791 17.8499C88.0791 18.3799 87.7291 18.8399 87.0391 19.2399C86.3391 19.6499 85.5291 19.8499 84.6191 19.8399C83.7091 19.8399 82.8991 19.6399 82.1991 19.2299C81.4891 18.8299 81.1391 18.3599 81.1391 17.8399C81.1391 17.3199 81.479 16.8399 82.179 16.4399ZM85.6291 35.9399L83.0991 37.3999L81.8291 36.6699L57.1591 22.4299L56.9091 22.2799L50.7191 18.7099L57.1591 14.9999L84.8591 30.9899L89.5391 33.6899L85.6291 35.9399Z" stroke="currentColor" stroke-linejoin="round"/>
    <path d="M88.0786 17.8499C88.0786 18.3799 87.7287 18.8398 87.0387 19.2398C86.3387 19.6498 85.5287 19.8498 84.6187 19.8398C83.7087 19.8398 82.8986 19.6399 82.1986 19.2299C81.4886 18.8299 81.1387 18.3598 81.1387 17.8398C81.1387 17.3198 81.4786 16.8398 82.1786 16.4398C82.8786 16.0398 83.6786 15.8398 84.5986 15.8398C85.5186 15.8398 86.3187 16.0398 87.0187 16.4498C87.7187 16.8498 88.0786 17.3199 88.0786 17.8499Z" stroke="currentColor" stroke-linejoin="round"/>
    <path d="M52.9095 64.2797L45.4795 64.2597C42.7395 64.2597 40.2895 63.8697 38.1095 63.0897C37.1195 62.7497 36.1894 62.3297 35.3094 61.8197C33.0194 60.4997 31.6595 58.9497 31.2395 57.1797C31.1295 56.7797 31.0794 56.3597 31.0794 55.9397C31.0594 54.1397 31.9195 52.5397 33.6595 51.1497C34.1195 50.7797 34.6495 50.4197 35.2395 50.0797C36.8795 49.1297 38.7195 48.4697 40.7695 48.0897C40.8795 48.0597 40.9995 48.0397 41.1095 48.0197C42.4495 47.7897 43.8795 47.6797 45.3895 47.6797H52.8194L52.8595 54.8097L52.8995 62.2597V64.2797H52.9095Z" stroke="currentColor" stroke-linejoin="round"/>
    <path d="M83.6893 56.04V56.0599C83.6893 56.4299 83.6493 56.7799 83.5793 57.1299C83.2093 58.9699 81.8594 60.56 79.5194 61.9C78.6194 62.42 77.6694 62.8499 76.6494 63.1899C74.4994 63.9399 72.0694 64.3099 69.3694 64.3099L61.9493 64.29V62.4399L61.9293 60.04L61.8894 52.59L61.8594 47.71H66.0994L69.2794 47.72C70.8994 47.72 72.4294 47.86 73.8494 48.14C75.9294 48.53 77.7994 49.2 79.4594 50.16C82.2594 51.78 83.6693 53.74 83.6893 56.04Z" stroke="currentColor" stroke-linejoin="round"/>
    <path d="M89.2096 48.83V68.83C87.7196 67.44 85.8796 66.27 83.6896 65.31V56.04C83.6696 53.74 82.2596 51.78 79.4596 50.16C77.7996 49.2 75.9296 48.53 73.8496 48.14V42.75C76.9696 43.12 79.8796 43.83 82.5796 44.86C85.2696 45.89 87.4796 47.21 89.2096 48.83Z" stroke="currentColor" stroke-linejoin="round"/>
    <path d="M44.2897 22.4297V29.8597L42.2196 28.6597L37.8496 26.1397L44.2897 22.4297Z" stroke="currentColor" stroke-linejoin="round"/>
    <path d="M57.1588 15V22.28H56.9088L50.7188 18.71L57.1588 15Z" stroke="currentColor" stroke-linejoin="round"/>
    <path d="M89.5392 33.69L85.6292 35.94L83.0991 37.4L81.8291 36.67L57.1592 22.43V15L84.8591 30.99L89.5392 33.69Z" stroke="currentColor" stroke-linejoin="round"/>
    <path d="M52.9092 64.2798V84.2798L45.4791 84.2598C41.4991 84.2598 38.1091 83.4398 35.3091 81.8198C32.4991 80.1998 31.0891 78.2398 31.0791 75.9398V57.0898L31.2391 57.1798C31.6591 58.9498 33.0191 60.4998 35.3091 61.8198C36.1891 62.3298 37.1191 62.7498 38.1091 63.0898C40.2891 63.8698 42.7391 64.2598 45.4791 64.2598L52.9092 64.2798Z" stroke="currentColor" stroke-linejoin="round"/>
    <path d="M83.6892 57.0601V76.0401C83.6992 78.3401 82.3093 80.2901 79.5193 81.9001C76.7293 83.5101 73.3493 84.3101 69.3693 84.3101L61.9492 84.2901V64.2901L69.3693 64.3101C72.0693 64.3101 74.4993 63.9401 76.6493 63.1901C77.6693 62.8501 78.6193 62.4201 79.5193 61.9001C81.8593 60.5601 83.2092 58.9701 83.5792 57.1301L83.6892 57.0601Z" stroke="currentColor" stroke-linejoin="round"/>
    <path d="M96.5992 19.1797V22.9097L95.2793 22.1497C96.0593 21.1897 96.4992 20.1897 96.5992 19.1797Z" stroke="currentColor" stroke-linejoin="round"/>
    <path d="M96.5996 19.1798V18.5698" stroke="currentColor" stroke-linejoin="round"/>
    <path d="M31.4193 29.8599V37.2899L29.3492 36.0898L24.9893 33.5698L31.4193 29.8599Z" stroke="currentColor" stroke-linejoin="round"/>
    <path d="M76.6691 41.1197L73.849 42.7497V48.1397C72.429 47.8597 70.8991 47.7197 69.2791 47.7197H66.319L66.099 47.5897V42.4497L55.179 36.1397L44.2891 29.8597V22.4297L48.649 24.9497L57.1591 29.8597L76.6691 41.1197Z" stroke="currentColor" stroke-linejoin="round"/>
    <path d="M66.0995 42.4497V47.7197L61.8595 47.7097L61.8895 52.5897L61.9294 60.0397L61.9395 62.4397L53.1895 62.4297V42.4297L57.1794 42.4397L66.0995 42.4497Z" stroke="currentColor" stroke-linejoin="round"/>
</svg>