<svg viewBox="0 0 117 90" fill="none" xmlns="http://www.w3.org/2000/svg" height="48" width="48" stroke-width="1px"
     stroke-linecap="round" stroke-linejoin="round">
    <path d="M20.1899 36.5742L20.3199 36.6542V36.5742H20.1899Z" stroke="currentColor" stroke-linejoin="round"/>
    <path d="M114.55 25.7043C113.52 20.0143 109.03 14.8644 101.07 10.2744C93.12 5.68435 84.2099 3.09435 74.3499 2.49435C64.4799 1.90435 55.7699 3.78435 48.2199 8.14435L25.3899 21.3243C21.9899 23.2843 20.3 25.6544 20.32 28.4344C20.33 31.2144 22.0499 33.5944 25.4699 35.5644L27.2299 36.5844H20.32V36.6544L26.9 40.4543L50.2499 53.9243L55.53 56.9744L55.5099 52.9143L57.27 53.9344C59.41 55.1644 61.83 56.0143 64.52 56.4843C66.12 56.7643 67.8299 56.8944 69.6199 56.9044C74.4299 56.9144 78.54 55.9344 81.93 53.9744L83.93 52.8243L94.4599 46.7343L104.76 40.7943C106.82 39.6043 108.55 38.3744 109.97 37.0844C112.98 34.3744 114.56 31.4344 114.72 28.2744C114.76 27.4344 114.71 26.5743 114.55 25.7043ZM62.4799 38.6844C61.9399 38.9944 61.3699 39.2444 60.7499 39.4344C59.6899 39.7744 58.5 39.9443 57.2 39.9443C55.14 39.9443 53.38 39.5143 51.91 38.6643C50.43 37.8143 49.69 36.7943 49.69 35.6143C49.68 34.4243 50.4099 33.4044 51.8699 32.5644C53.3099 31.7244 55.04 31.3044 57.05 31.3044H57.15C59.21 31.3044 60.97 31.7344 62.44 32.5844C63.91 33.4344 64.65 34.4543 64.66 35.6343C64.67 36.8243 63.9399 37.8344 62.4799 38.6844ZM101.03 34.3344C100.15 35.1444 99.04 35.9344 97.7 36.7144L94.18 38.7444L66.2 22.5844L63.81 21.2043L51.77 14.2544L55.29 12.2244C56.63 11.4544 58.01 10.8044 59.41 10.3044C60.82 9.79435 62.29 9.37434 63.81 9.04434L96.42 27.8643L103.22 31.7943C102.63 32.6743 101.91 33.5144 101.03 34.3344Z" stroke="currentColor" stroke-linejoin="round"/>
    <path d="M64.66 35.6347C64.67 36.8247 63.94 37.8347 62.48 38.6847C61.94 38.9947 61.37 39.2447 60.75 39.4347C59.69 39.7747 58.5001 39.9447 57.2001 39.9447C55.1401 39.9447 53.38 39.5147 51.91 38.6647C50.43 37.8147 49.69 36.7947 49.69 35.6147C49.68 34.4247 50.41 33.4047 51.87 32.5647C53.31 31.7247 55.04 31.3047 57.05 31.3047H57.15C59.21 31.3047 60.97 31.7347 62.44 32.5847C63.91 33.4347 64.65 34.4547 64.66 35.6347Z" stroke="currentColor" stroke-linejoin="round"/>
    <path d="M63.8101 9.04395V21.2039L51.77 14.254L55.29 12.224C56.63 11.454 58.01 10.804 59.41 10.304C60.82 9.79396 62.2901 9.37395 63.8101 9.04395Z" stroke="currentColor" stroke-linejoin="round"/>
    <path d="M103.22 31.7939C102.63 32.6739 101.91 33.514 101.03 34.334C100.15 35.144 99.0401 35.934 97.7001 36.714L94.1801 38.744L66.2001 22.584L63.8101 21.2039V9.04395L96.42 27.864L103.22 31.7939Z" stroke="currentColor" stroke-linejoin="round"/>
    <path d="M114.73 47.2244V47.8944C114.66 52.7044 111.33 56.9944 104.76 60.7944L81.9301 73.9744C78.5401 75.9344 74.43 76.9144 69.62 76.9044C64.81 76.9044 60.69 75.9044 57.27 73.9344L55.5801 72.9544V65.7244L55.55 61.0444H55.53V56.9744L55.51 52.9144L57.27 53.9344C59.41 55.1644 61.83 56.0144 64.52 56.4844C66.12 56.7644 67.83 56.8944 69.62 56.9044C74.43 56.9144 78.5401 55.9344 81.9301 53.9744L83.9301 52.8244L94.46 46.7344L104.76 40.7944C106.82 39.6044 108.55 38.3744 109.97 37.0844C112.98 34.3744 114.56 31.4344 114.72 28.2744V47.2244H114.73Z" stroke="currentColor" stroke-linejoin="round"/>
    <path d="M27.23 36.5846H20.3201V28.4346C20.3301 31.2146 22.05 33.5946 25.47 35.5646L27.23 36.5846Z" stroke="currentColor" stroke-linejoin="round"/>
    <path d="M2.46997 38.0939V38.0039" stroke="currentColor" stroke-linejoin="round"/>
    <path d="M55.58 65.724C55.58 65.824 55.57 65.914 55.55 65.994C55.54 66.024 55.54 66.044 55.53 66.064C55.38 66.554 54.8999 66.894 54.0899 67.094C53.0899 67.334 52.1799 67.2139 51.3499 66.7339L20.3399 48.8239L20.19 48.744L3.28999 38.9839C2.79999 38.7039 2.52992 38.404 2.46992 38.094C2.42992 37.874 2.48999 37.644 2.65999 37.404C3.06999 36.834 3.85999 36.5439 5.03999 36.5439L13.14 36.564L20.19 40.6339L20.32 40.7039L23.54 42.564L55.53 61.034H55.55L55.58 65.724Z" stroke="currentColor" stroke-linejoin="round"/>
    <path d="M55.5299 56.9742V61.0342L23.5399 42.5642L20.3199 40.7042L20.1899 40.6342V36.5742L20.3199 36.6542L26.8999 40.4542L50.2499 53.9242L55.5299 56.9742Z" stroke="currentColor" stroke-linejoin="round"/>
    <path d="M55.5801 65.7247V85.7247C55.5801 86.4047 55.08 86.8547 54.09 87.0947C53.09 87.3347 52.18 87.2147 51.35 86.7347L3.29004 58.9847C2.74004 58.6747 2.46996 58.3347 2.45996 57.9847V38.0947C2.52996 38.4047 2.80004 38.7047 3.29004 38.9847L20.1901 48.7447L20.34 48.8247L51.35 66.7347C52.18 67.2147 53.09 67.3347 54.09 67.0947C54.9 66.8947 55.38 66.5547 55.53 66.0647C55.54 66.0447 55.54 66.0247 55.55 65.9947C55.57 65.9147 55.5801 65.8247 55.5801 65.7247Z" stroke="currentColor" stroke-linejoin="round"/>
</svg>