<svg width="24" height="24" viewBox="0 0 121 92" fill="none" xmlns="http://www.w3.org/2000/svg" stroke-width="1px" stroke-linecap="round" stroke-linejoin="round">
    <path d="M70.1701 43.64C70.0101 42.85 69.4002 42.15 68.3502 41.55V46.61L68.3801 46.59C69.4101 46 70.0201 45.3 70.1701 44.52C70.2101 44.38 70.2202 44.2301 70.2202 44.0701C70.2202 43.9201 70.2201 43.78 70.1701 43.64ZM46.4301 30.34C44.7601 30.34 43.3001 30.69 42.0701 31.4L29.0001 38.9501C27.7601 39.6701 27.1501 40.51 27.1501 41.47C27.1601 42.44 27.7801 43.28 29.0201 44L41.9501 51.47L42.0701 51.4C43.3001 50.69 44.7601 50.34 46.4301 50.34C48.1001 50.34 49.5701 50.7 50.8101 51.42V31.42C49.5701 30.7 48.1101 30.34 46.4301 30.34Z" stroke="currentColor" stroke-linejoin="round"/>
    <path d="M118.29 60.13C118.29 60.53 118.24 60.94 118.13 61.35C117.73 62.8 116.63 64.05 114.81 65.1L94.2202 76.99C84.0602 82.86 71.6402 86.65 56.9702 88.37C42.3002 90.09 28.3902 89.05 15.2602 85.24C14.6802 85.07 14.1302 84.88 13.6202 84.67C13.1102 84.46 12.5902 84.2 12.0802 83.91C11.5702 83.61 11.1302 83.32 10.7702 83.02C10.4002 82.73 10.0702 82.4101 9.78021 82.0701C5.23021 76.8501 2.96021 71.41 2.96021 65.77V45.77C2.96021 49.09 3.7502 52.34 5.3302 55.52C6.4202 57.74 7.91021 59.9201 9.78021 62.0701C10.0702 62.4101 10.4002 62.73 10.7702 63.02C11.1302 63.32 11.5702 63.61 12.0802 63.91C12.5902 64.2 13.1102 64.46 13.6202 64.67C14.1302 64.88 14.6802 65.07 15.2602 65.24C22.5002 67.34 29.9702 68.6 37.6902 69.01C43.9602 69.36 50.3902 69.14 56.9702 68.37C61.0102 67.9 64.8702 67.27 68.5702 66.47C78.3002 64.41 86.8602 61.25 94.2202 56.99L109.88 47.9501L114.81 45.1C116.63 44.05 117.73 42.8 118.13 41.35C118.2 41.08 118.25 40.81 118.27 40.55L118.29 60.13Z" stroke="currentColor" stroke-linejoin="round"/>
    <path d="M117.17 37.16L100.67 16.31C100.01 15.51 99.1702 14.81 98.1402 14.22C97.1202 13.63 95.9202 13.14 94.5302 12.76L58.4202 3.22996C56.0802 2.63996 53.6602 2.46003 51.1502 2.68003C48.6302 2.91003 46.4702 3.54996 44.6502 4.59996L24.0702 16.48C13.9002 22.35 7.32022 29.52 4.35022 37.99C3.42022 40.62 2.96021 43.22 2.96021 45.77C2.96021 49.09 3.7502 52.34 5.3302 55.52C6.4202 57.74 7.91021 59.92 9.78021 62.07C10.0702 62.41 10.4002 62.73 10.7702 63.02C11.1302 63.32 11.5702 63.61 12.0802 63.91C12.5902 64.2 13.1102 64.46 13.6202 64.67C14.1302 64.88 14.6802 65.07 15.2602 65.24C22.5002 67.34 29.9702 68.6 37.6902 69.01C43.9602 69.36 50.3902 69.14 56.9702 68.37C61.0102 67.9 64.8702 67.27 68.5702 66.47C78.3002 64.41 86.8602 61.25 94.2202 56.99L109.88 47.9501L114.81 45.1C116.63 44.05 117.73 42.8 118.13 41.35C118.2 41.08 118.25 40.81 118.27 40.55V39.8301C118.2 38.9201 117.84 38.02 117.17 37.16ZM72.7102 39.03L70.1702 40.5L68.3502 41.55C69.4002 42.15 70.0102 42.85 70.1702 43.64C70.2102 43.78 70.2202 43.92 70.2202 44.07C70.2202 44.23 70.2202 44.38 70.1702 44.52C70.0202 45.3 69.4102 45.9999 68.3802 46.5899L68.3502 46.61L67.4502 47.13L63.9702 49.14L61.1802 50.75L55.4102 54.07L55.3002 54.14C54.0702 54.86 52.6202 55.2099 50.9402 55.2099C49.2602 55.1999 47.8002 54.84 46.5602 54.13L41.9502 51.47L29.0202 44C27.7802 43.28 27.1602 42.44 27.1502 41.47C27.1502 40.51 27.7602 39.6701 29.0002 38.9501L42.0702 31.4C43.3002 30.69 44.7602 30.3399 46.4302 30.3399C48.1002 30.3399 49.5702 30.7 50.8102 31.42L55.1702 28.9C57.5602 27.52 60.4802 26.8299 63.9002 26.8399C67.3202 26.8399 70.2402 27.54 72.6502 28.94C75.0602 30.33 76.2802 32.01 76.2902 33.99C76.3002 35.97 75.1002 37.65 72.7102 39.03Z" stroke="currentColor" stroke-linejoin="round"/>
    <path d="M70.1702 33.98C70.1702 34.95 69.5602 35.79 68.3202 36.5L63.9702 39.02L55.2002 33.9501L59.5502 31.4401C60.7902 30.7201 62.2402 30.37 63.9202 30.37C65.6002 30.37 67.0502 30.7401 68.3002 31.4501C69.5402 32.1701 70.1602 33.01 70.1702 33.98Z" stroke="currentColor" stroke-linejoin="round"/>
    <path d="M63.9702 39.02V49.14L61.1802 50.75L55.4102 54.0701L55.3002 54.14V53.89L55.2702 48.85L55.2002 33.9501L63.9702 39.02Z" stroke="currentColor" stroke-linejoin="round"/>
    <path d="M70.1702 33.98V40.5L68.3502 41.55V46.61L67.4502 47.13L63.9702 49.14V39.02L68.3202 36.5C69.5602 35.79 70.1702 34.95 70.1702 33.98Z" stroke="currentColor" stroke-linejoin="round"/>
    <path d="M76.29 33.99C76.3 35.97 75.1001 37.65 72.7101 39.03L70.17 40.5V33.98C70.16 33.01 69.54 32.1701 68.3 31.4501C67.05 30.7401 65.59 30.37 63.92 30.37C62.25 30.37 60.79 30.72 59.55 31.44L55.2001 33.9501L55.2701 48.85C55.2701 48.85 55.2 48.88 55.17 48.9L50.8101 51.42V31.42L55.17 28.9C57.56 27.52 60.4801 26.83 63.9001 26.84C67.3201 26.84 70.2401 27.54 72.6501 28.94C75.0601 30.33 76.28 32.01 76.29 33.99Z" stroke="currentColor" stroke-linejoin="round"/>
    <path d="M70.1702 44.52V43.64" stroke="currentColor" stroke-linejoin="round"/>
    <path d="M2.96021 66.52V65.77" stroke="currentColor" stroke-linejoin="round"/>
    <path d="M2.96021 45.77V44.05" stroke="currentColor" stroke-linejoin="round"/>
</svg>