<svg width="48" height="48" viewBox="0 0 115 87" fill="none" xmlns="http://www.w3.org/2000/svg" stroke-width="1px"
     stroke-linecap="round" stroke-linejoin="round">
    <path d="M78.7099 22.1202C77.6999 21.5402 76.5198 21.2502 75.1598 21.2402C73.7998 21.2402 72.6098 21.5302 71.6098 22.1102C70.6098 22.6902 70.1098 23.3703 70.1098 24.1603C70.1198 24.9403 70.6198 25.6302 71.6298 26.2102C72.6398 26.7902 73.8298 27.0802 75.1898 27.0802C76.5498 27.0802 77.7299 26.8002 78.7299 26.2202C79.7399 25.6402 80.2299 24.9602 80.2299 24.1702C80.2299 23.3802 79.7199 22.7002 78.7099 22.1202ZM62.6898 12.8702C61.6798 12.2902 60.4898 11.9902 59.1298 11.9902C57.7698 11.9902 56.5897 12.2802 55.5897 12.8602C54.5797 13.4402 54.0797 14.1203 54.0897 14.9003C54.0897 15.6903 54.5998 16.3702 55.6098 16.9602C56.6198 17.5402 57.7998 17.8302 59.1598 17.8302C60.5198 17.8302 61.7099 17.5502 62.7099 16.9702C63.7099 16.3902 64.2099 15.7102 64.2099 14.9202C64.1999 14.1402 63.6998 13.4502 62.6898 12.8702ZM46.6598 3.62024C45.6498 3.04024 44.4698 2.74023 43.1098 2.74023C41.7498 2.74023 40.5697 3.03023 39.5597 3.61023C38.5597 4.18023 38.0597 4.87027 38.0697 5.65027C38.0697 6.44027 38.5797 7.1202 39.5797 7.7002C40.5897 8.2902 41.7798 8.5802 43.1398 8.5802C44.4998 8.5802 45.6798 8.30021 46.6798 7.72021C47.6798 7.15021 48.1798 6.47019 48.1798 5.69019V5.67017C48.1798 4.88017 47.6698 4.20024 46.6598 3.62024ZM18.3498 19.9602C17.3398 19.3802 16.1597 19.0902 14.7997 19.0902C13.4397 19.0902 12.2599 19.3702 11.2499 19.9502C10.2499 20.5302 9.74991 21.2102 9.75991 22.0002C9.75991 22.7802 10.2697 23.4702 11.2797 24.0502C12.2797 24.6302 13.4697 24.9202 14.8297 24.9302C16.1897 24.9302 17.3698 24.6402 18.3798 24.0602C19.3698 23.4902 19.8698 22.8102 19.8698 22.0402V22.0203C19.8698 21.2303 19.3598 20.5502 18.3498 19.9602Z" stroke="currentColor" stroke-linejoin="round"/>
    <path d="M96.2499 33.4302V33.4502C96.2499 34.2202 95.7499 34.9002 94.7599 35.4702C93.7499 36.0502 92.5699 36.3402 91.2099 36.3402C89.8499 36.3402 88.6698 36.0402 87.6598 35.4602C86.6498 34.8802 86.1398 34.1903 86.1398 33.4103C86.1298 32.6203 86.6298 31.9402 87.6298 31.3602C88.6398 30.7802 89.8198 30.4903 91.1798 30.5003C92.5398 30.5003 93.7299 30.7902 94.7299 31.3702C95.7399 31.9602 96.2499 32.6402 96.2499 33.4302Z" stroke="currentColor" stroke-linejoin="round"/>
    <path d="M51.9199 40.5199V40.5398C51.9199 41.3098 51.4199 41.9998 50.4199 42.5598C49.4699 43.1098 48.3498 43.3998 47.0598 43.4298H46.8799C45.5199 43.4298 44.3298 43.1298 43.3198 42.5498C42.3098 41.9698 41.8098 41.2899 41.7998 40.4999C41.7998 39.7099 42.2998 39.0298 43.2998 38.4498C44.2998 37.8698 45.4899 37.5898 46.8499 37.5898H47.0598C48.3298 37.6198 49.4399 37.9098 50.3999 38.4698C51.4099 39.0498 51.9199 39.7299 51.9199 40.5199Z" stroke="currentColor" stroke-linejoin="round"/>
    <path d="M112.28 42.6802C112.28 43.4602 111.78 44.1402 110.78 44.7202C109.78 45.3002 108.6 45.5902 107.24 45.5902C105.88 45.5902 104.69 45.2902 103.68 44.7102C102.67 44.1302 102.17 43.4403 102.16 42.6603C102.16 41.8703 102.66 41.1902 103.66 40.6102C104.66 40.0302 105.84 39.7403 107.2 39.7503C108.56 39.7503 109.75 40.0402 110.76 40.6202C111.77 41.2102 112.27 41.8902 112.28 42.6802Z" stroke="currentColor" stroke-linejoin="round"/>
    <path d="M89.2197 45.7102V45.7302C89.2197 46.5002 88.7197 47.1903 87.7197 47.7603C87.2297 48.0403 86.7096 48.2503 86.1396 48.3903C85.5296 48.5403 84.8797 48.6202 84.1797 48.6202C82.8197 48.6202 81.6296 48.3302 80.6196 47.7402C79.7396 47.2302 79.2396 46.6402 79.1296 45.9602C79.1096 45.8702 79.0996 45.7802 79.0996 45.6902C79.0996 45.0202 79.4697 44.4203 80.2097 43.8903C80.2097 43.8903 80.2097 43.8802 80.2297 43.8802C80.3397 43.8002 80.4696 43.7203 80.5996 43.6403C81.5996 43.0703 82.7897 42.7803 84.1497 42.7803C84.8597 42.7803 85.5196 42.8603 86.1396 43.0203C86.6996 43.1703 87.2197 43.3803 87.6997 43.6603C88.7097 44.2403 89.2197 44.9202 89.2197 45.7102Z" stroke="currentColor" stroke-linejoin="round"/>
    <path d="M18.75 43.5305V43.8204C18.75 43.8204 18.7598 43.8204 18.7698 43.8104C18.7598 43.7204 18.75 43.6305 18.75 43.5305ZM34.7698 52.7805V53.0804L34.7998 53.0504C34.7798 52.9604 34.7698 52.8705 34.7698 52.7805ZM50.7998 62.0404V62.3204L50.8198 62.3104C50.8098 62.2204 50.7998 62.1304 50.7998 62.0404ZM47.0598 27.1904V27.4805C47.0598 27.4805 47.0798 27.4704 47.0798 27.4604C47.0698 27.3704 47.0598 27.2804 47.0598 27.1904ZM63.0798 36.4404V36.7405L63.0999 36.7205C63.0899 36.6305 63.0798 36.5304 63.0798 36.4404ZM79.0999 45.6904V45.9905C79.0999 45.9905 79.1199 45.9704 79.1299 45.9604C79.1099 45.8704 79.0999 45.7804 79.0999 45.6904Z" stroke="currentColor" stroke-linejoin="round"/>
    <path d="M112.28 42.6801V62.6801C112.28 63.4601 111.78 64.1401 110.78 64.7201C109.78 65.3001 108.6 65.5901 107.24 65.5901C105.88 65.5901 104.69 65.2901 103.68 64.7101C102.67 64.1301 102.17 63.4402 102.16 62.6602V42.6602C102.17 43.4402 102.67 44.1301 103.68 44.7101C104.69 45.2901 105.88 45.5901 107.24 45.5901C108.6 45.5901 109.78 45.3001 110.78 44.7201C111.78 44.1401 112.28 43.4601 112.28 42.6801Z" stroke="currentColor" stroke-linejoin="round"/>
    <path d="M96.2498 33.4501V53.4301C96.2598 54.2101 95.7598 54.8901 94.7598 55.4701C93.7498 56.0501 92.5697 56.3401 91.2097 56.3401C90.4997 56.3401 89.8397 56.2501 89.2197 56.0901V45.7101C89.2197 44.9201 88.7097 44.2402 87.6997 43.6602C87.2197 43.3802 86.6996 43.1701 86.1396 43.0201V33.4102C86.1396 34.1902 86.6497 34.8801 87.6597 35.4601C88.6697 36.0401 89.8497 36.3301 91.2097 36.3401C92.5697 36.3401 93.7498 36.0501 94.7598 35.4701C95.7498 34.9001 96.2498 34.2201 96.2498 33.4501Z" stroke="currentColor" stroke-linejoin="round"/>
    <path d="M83.9697 59.0199C83.9697 59.8099 83.4697 60.4898 82.4697 61.0698C81.5097 61.6298 80.3896 61.9098 79.0996 61.9298H78.9297C77.5697 61.9298 76.3796 61.6398 75.3696 61.0598C74.3596 60.4698 73.8596 59.7899 73.8496 58.9999C73.8496 58.2199 74.3496 57.5298 75.3496 56.9598C76.3496 56.3798 77.5296 56.0898 78.8896 56.0898H79.0996C80.3796 56.1198 81.4897 56.4198 82.4497 56.9698C83.4597 57.5498 83.9597 58.2399 83.9697 59.0199Z" stroke="currentColor" stroke-linejoin="round"/>
    <path d="M89.2197 45.7305V65.7104C89.2297 66.4904 88.7297 67.1805 87.7197 67.7605C86.7197 68.3305 85.5397 68.6205 84.1797 68.6205H83.9697V59.0205C83.9697 58.2405 83.4597 57.5505 82.4497 56.9705C81.4897 56.4205 80.3796 56.1205 79.0996 56.0905V45.9905C79.0996 45.9905 79.1196 45.9704 79.1296 45.9604C79.2396 46.6404 79.7396 47.2305 80.6196 47.7405C81.6296 48.3305 82.8197 48.6205 84.1797 48.6205C84.8797 48.6205 85.5296 48.5405 86.1396 48.3905C86.7096 48.2505 87.2297 48.0405 87.7197 47.7605C88.7197 47.1905 89.2197 46.5005 89.2197 45.7305Z" stroke="currentColor" stroke-linejoin="round"/>
    <path d="M83.9697 59.02V79.02C83.9697 79.81 83.4697 80.4899 82.4697 81.0699C81.4697 81.6499 80.2897 81.9299 78.9297 81.9299C77.5697 81.9299 76.3796 81.6399 75.3696 81.0599C74.3596 80.4699 73.8596 79.79 73.8496 79V59C73.8596 59.79 74.3596 60.4699 75.3696 61.0599C76.3796 61.6399 77.5697 61.9299 78.9297 61.9299H79.0996C80.3896 61.9099 81.5097 61.6299 82.4697 61.0699C83.4697 60.4899 83.9697 59.81 83.9697 59.02Z" stroke="currentColor" stroke-linejoin="round"/>
    <path d="M60.9091 62.05V62.0701C60.9091 62.8501 60.4091 63.5301 59.4091 64.1001C58.9291 64.3801 58.3991 64.5901 57.8291 64.7301C57.2191 64.8901 56.5691 64.9701 55.8691 64.9601C54.5091 64.9601 53.319 64.6701 52.309 64.0901C51.429 63.5801 50.929 62.9801 50.819 62.3101C50.809 62.2201 50.799 62.13 50.799 62.04C50.789 61.36 51.1591 60.7601 51.8991 60.2401C51.8991 60.2401 51.9058 60.2368 51.9191 60.2301C52.0291 60.1401 52.159 60.0701 52.289 59.9901C53.299 59.4101 54.4791 59.1201 55.8391 59.1201C56.5491 59.1301 57.2091 59.2101 57.8291 59.3701C58.3891 59.5101 58.9091 59.7201 59.3891 60.0001C60.3991 60.5801 60.9091 61.27 60.9091 62.05Z" stroke="currentColor" stroke-linejoin="round"/>
    <path d="M60.9099 62.0703V82.0503C60.9199 82.8403 60.4199 83.5203 59.4099 84.1003C58.4099 84.6803 57.2299 84.9703 55.8699 84.9603C54.5099 84.9603 53.3198 84.6703 52.3098 84.0903C51.3098 83.5103 50.7998 82.8203 50.7998 82.0403V62.3203L50.8198 62.3103C50.9298 62.9803 51.4298 63.5803 52.3098 64.0903C53.3198 64.6703 54.5099 64.9603 55.8699 64.9603C56.5699 64.9603 57.2198 64.8903 57.8298 64.7303C58.3998 64.5903 58.9299 64.3803 59.4099 64.1003C60.4099 63.5303 60.9099 62.8503 60.9099 62.0703Z" stroke="currentColor" stroke-linejoin="round"/>
    <path d="M12.8396 34.3C12.8396 35.08 12.3396 35.7701 11.3396 36.3501C10.8496 36.6301 10.3298 36.8401 9.75977 36.9801C9.14977 37.1301 8.49956 37.2101 7.79956 37.2101C6.43956 37.2101 5.24975 36.9201 4.23975 36.3301C3.22975 35.7501 2.72973 35.0702 2.71973 34.2802C2.71973 33.5002 3.21973 32.8101 4.21973 32.2301C5.21973 31.6601 6.39953 31.3701 7.76953 31.3701C8.47953 31.3701 9.13977 31.4501 9.75977 31.6101C10.3198 31.7601 10.8396 31.9701 11.3196 32.2501C12.3296 32.8301 12.8396 33.51 12.8396 34.3Z" stroke="currentColor" stroke-linejoin="round"/>
    <path d="M12.8396 34.3002V54.3002C12.8396 55.0802 12.3396 55.7702 11.3396 56.3502C10.3396 56.9202 9.15956 57.2102 7.79956 57.2102C6.43956 57.2102 5.24975 56.9202 4.23975 56.3302C3.22975 55.7502 2.72973 55.0703 2.71973 54.2803V34.2803C2.72973 35.0703 3.22975 35.7502 4.23975 36.3302C5.24975 36.9202 6.43956 37.2102 7.79956 37.2102C8.49956 37.2102 9.14977 37.1302 9.75977 36.9802C10.3298 36.8402 10.8496 36.6302 11.3396 36.3502C12.3396 35.7702 12.8396 35.0802 12.8396 34.3002Z" stroke="currentColor" stroke-linejoin="round"/>
    <path d="M19.8696 22.0399V41.72L19.8496 41.74C19.1096 42.26 18.7398 42.86 18.7498 43.53V43.8199C18.6398 43.9099 18.5096 43.9799 18.3796 44.0599C17.3696 44.6399 16.1896 44.9299 14.8296 44.9299C14.1196 44.9199 13.4496 44.8399 12.8396 44.6799V34.2999C12.8396 33.5099 12.3296 32.83 11.3196 32.25C10.8396 31.97 10.3198 31.76 9.75977 31.61V22C9.75977 22.78 10.2695 23.4699 11.2795 24.0499C12.2795 24.6299 13.4696 24.9199 14.8296 24.9299C16.1896 24.9299 17.3696 24.6399 18.3796 24.0599C19.3696 23.4899 19.8696 22.8099 19.8696 22.0399Z" stroke="currentColor" stroke-linejoin="round"/>
    <path d="M19.8691 22.0404V22.0205" stroke="currentColor" stroke-linejoin="round"/>
    <path d="M44.8896 52.8C44.8896 53.59 44.3896 54.2701 43.3896 54.8501C42.8996 55.1301 42.3696 55.3501 41.7996 55.4901C41.1896 55.6401 40.5496 55.7201 39.8496 55.7101C38.4796 55.7101 37.2996 55.4201 36.2896 54.8401C35.3996 54.3201 34.8996 53.73 34.7996 53.05C34.7796 52.96 34.7695 52.8702 34.7695 52.7802C34.7695 52.1102 35.1396 51.5201 35.8696 51.0001C35.8796 50.9901 35.8897 50.9801 35.8997 50.9701C36.0097 50.9001 36.1395 50.8201 36.2695 50.7401C37.2695 50.1601 38.4496 49.8701 39.8096 49.8701C40.5196 49.8701 41.1896 49.9501 41.7996 50.1101C42.3596 50.2601 42.8896 50.4701 43.3696 50.7501C44.3796 51.3301 44.8796 52.02 44.8896 52.8Z" stroke="currentColor" stroke-linejoin="round"/>
    <path d="M28.8601 43.55V43.5701C28.8601 44.3501 28.3601 45.0301 27.3701 45.6001C26.8801 45.8801 26.35 46.0901 25.78 46.2401C25.17 46.3901 24.52 46.4601 23.82 46.4601C22.46 46.4601 21.28 46.1701 20.27 45.5801C19.38 45.0701 18.88 44.4801 18.77 43.8101C18.76 43.7201 18.7502 43.6302 18.7502 43.5302C18.7402 42.8602 19.1101 42.2601 19.8501 41.7401L19.8701 41.7201C19.9801 41.6401 20.1102 41.5601 20.2402 41.4901C21.2502 40.9101 22.43 40.6201 23.79 40.6201C24.5 40.6201 25.17 40.7001 25.78 40.8601C26.34 41.0101 26.86 41.2201 27.34 41.5001C28.35 42.0801 28.8601 42.76 28.8601 43.55Z" stroke="currentColor" stroke-linejoin="round"/>
    <path d="M35.8994 31.2701C35.8994 32.0501 35.3994 32.7301 34.3994 33.3101C33.4494 33.8601 32.3193 34.1501 31.0293 34.1801H30.8494C29.4894 34.1801 28.3093 33.8801 27.2993 33.3001C26.2893 32.7201 25.7793 32.0301 25.7793 31.2501C25.7793 30.4701 26.2693 29.7801 27.2793 29.2001C28.2793 28.6201 29.4593 28.3301 30.8193 28.3401H31.0293C32.2993 28.3701 33.4194 28.6601 34.3794 29.2101C35.3894 29.8001 35.8894 30.4801 35.8994 31.2701Z" stroke="currentColor" stroke-linejoin="round"/>
    <path d="M28.8599 43.5703V63.5503C28.8699 64.3403 28.3699 65.0203 27.3699 65.6003C26.3599 66.1803 25.1798 66.4603 23.8198 66.4603C22.4598 66.4603 21.2798 66.1703 20.2698 65.5803C19.2598 65.0003 18.75 64.3204 18.75 63.5304V43.8203C18.75 43.8203 18.7598 43.8203 18.7698 43.8103C18.8798 44.4803 19.3798 45.0703 20.2698 45.5803C21.2798 46.1703 22.4598 46.4603 23.8198 46.4603C24.5198 46.4603 25.1698 46.3904 25.7798 46.2404C26.3498 46.0904 26.8799 45.8803 27.3699 45.6003C28.3599 45.0303 28.8599 44.3503 28.8599 43.5703Z" stroke="currentColor" stroke-linejoin="round"/>
    <path d="M35.8994 31.27V50.97C35.8994 50.97 35.8794 50.99 35.8694 51C35.1394 51.52 34.7693 52.11 34.7693 52.78V53.08C34.6593 53.15 34.5294 53.2299 34.3994 53.3099C33.3994 53.8899 32.2094 54.1799 30.8494 54.1799C30.1394 54.1799 29.4794 54.0999 28.8594 53.9399V43.5499C28.8594 42.7599 28.3494 42.08 27.3394 41.5C26.8594 41.22 26.3393 41.01 25.7793 40.86V31.25C25.7793 32.03 26.2893 32.7199 27.2993 33.2999C28.3093 33.8799 29.4894 34.1799 30.8494 34.1799H31.0293C32.3193 34.1499 33.4494 33.8599 34.3994 33.3099C35.3994 32.7299 35.8994 32.05 35.8994 31.27Z" stroke="currentColor" stroke-linejoin="round"/>
    <path d="M41.1494 17.9504V37.9504C41.1494 38.7404 40.6494 39.4205 39.6494 40.0005C38.6494 40.5805 37.4694 40.8705 36.1094 40.8705C36.0394 40.8705 35.9694 40.8705 35.8994 40.8605V31.2705C35.8994 30.4805 35.3894 29.8004 34.3794 29.2104C33.4194 28.6604 32.2993 28.3705 31.0293 28.3405V17.9404C31.0393 18.7204 31.5393 19.4105 32.5493 19.9905C33.5593 20.5705 34.7494 20.8605 36.1094 20.8705C36.8094 20.8705 37.4593 20.7905 38.0693 20.6305C38.6393 20.4905 39.1694 20.2805 39.6494 20.0005C40.6494 19.4205 41.1494 18.7404 41.1494 17.9504Z" stroke="currentColor" stroke-linejoin="round"/>
    <path d="M41.1494 17.9504C41.1494 18.7404 40.6494 19.4205 39.6494 20.0005C39.1694 20.2805 38.6393 20.4905 38.0693 20.6305C37.4593 20.7905 36.8094 20.8705 36.1094 20.8705C34.7494 20.8605 33.5593 20.5705 32.5493 19.9905C31.5393 19.4105 31.0393 18.7204 31.0293 17.9404C31.0293 17.1504 31.5293 16.4705 32.5293 15.8905C33.5293 15.3105 34.7093 15.0205 36.0693 15.0205C36.7893 15.0205 37.4493 15.1105 38.0693 15.2705C38.6293 15.4105 39.1494 15.6205 39.6294 15.9005C40.6394 16.4805 41.1394 17.1704 41.1494 17.9504Z" stroke="currentColor" stroke-linejoin="round"/>
    <path d="M48.1794 5.69031V25.3804C48.1794 25.3804 48.1694 25.3804 48.1594 25.3904C47.4194 25.9104 47.0493 26.5103 47.0593 27.1903V27.4803C46.9393 27.5603 46.8194 27.6403 46.6794 27.7203C45.6794 28.3003 44.4994 28.5803 43.1394 28.5803C42.4294 28.5803 41.7594 28.5003 41.1494 28.3403V17.9503C41.1494 17.1703 40.6394 16.4804 39.6294 15.9004C39.1494 15.6204 38.6293 15.4104 38.0693 15.2704V5.65039C38.0693 6.44039 38.5793 7.12032 39.5793 7.70032C40.5893 8.29032 41.7794 8.58032 43.1394 8.58032C44.4994 8.58032 45.6794 8.30034 46.6794 7.72034C47.6794 7.15034 48.1794 6.47031 48.1794 5.69031Z" stroke="currentColor" stroke-linejoin="round"/>
    <path d="M48.1797 5.68994V5.66992" stroke="currentColor" stroke-linejoin="round"/>
    <path d="M57.1699 27.2105V27.2305C57.1699 28.0005 56.6699 28.6805 55.6799 29.2505C55.1899 29.5305 54.6598 29.7405 54.0898 29.8905C53.4798 30.0405 52.8298 30.1205 52.1298 30.1205C50.7698 30.1205 49.5898 29.8205 48.5798 29.2405C47.6898 28.7305 47.1898 28.1305 47.0798 27.4605C47.0698 27.3705 47.0598 27.2804 47.0598 27.1904C47.0498 26.5104 47.4199 25.9105 48.1599 25.3905C48.1599 25.3905 48.1666 25.3872 48.1799 25.3805C48.2899 25.2905 48.4198 25.2205 48.5498 25.1405C49.5598 24.5605 50.7398 24.2705 52.0998 24.2805C52.8098 24.2805 53.4698 24.3605 54.0898 24.5205C54.6498 24.6605 55.1699 24.8705 55.6499 25.1505C56.6599 25.7405 57.1699 26.4205 57.1699 27.2105Z" stroke="currentColor" stroke-linejoin="round"/>
    <path d="M64.21 14.9203V34.6204C64.21 34.6204 64.1899 34.6404 64.1799 34.6504C63.4499 35.1704 63.0798 35.7603 63.0798 36.4403V36.7404C62.9698 36.8104 62.84 36.8903 62.71 36.9703C61.71 37.5503 60.5199 37.8403 59.1599 37.8303C58.4499 37.8303 57.7899 37.7503 57.1699 37.5903V27.2103C57.1699 26.4203 56.6599 25.7404 55.6499 25.1504C55.1699 24.8704 54.6498 24.6604 54.0898 24.5204V14.9004C54.0898 15.6904 54.5999 16.3703 55.6099 16.9603C56.6199 17.5403 57.7999 17.8303 59.1599 17.8303C60.5199 17.8303 61.71 17.5503 62.71 16.9703C63.71 16.3903 64.21 15.7103 64.21 14.9203Z" stroke="currentColor" stroke-linejoin="round"/>
    <path d="M44.8896 52.7998V72.7998C44.8896 73.5898 44.3896 74.2699 43.3896 74.8499C42.3896 75.4299 41.2096 75.7198 39.8496 75.7098C38.4796 75.7098 37.2996 75.4198 36.2896 74.8398C35.2796 74.2498 34.7795 73.5699 34.7695 72.7799V53.0798L34.7996 53.0498C34.8996 53.7298 35.3996 54.3198 36.2896 54.8398C37.2996 55.4198 38.4796 55.7098 39.8496 55.7098C40.5496 55.7098 41.1896 55.6399 41.7996 55.4899C42.3696 55.3499 42.8996 55.1299 43.3896 54.8499C44.3896 54.2699 44.8896 53.5898 44.8896 52.7998Z" stroke="currentColor" stroke-linejoin="round"/>
    <path d="M51.9199 40.5399V60.23C51.9199 60.23 51.9099 60.23 51.8999 60.24C51.1599 60.76 50.7898 61.3599 50.7998 62.0399V62.3199C50.6798 62.3999 50.5599 62.4799 50.4199 62.5599C49.4199 63.1399 48.2399 63.4299 46.8799 63.4299C46.1699 63.4299 45.4999 63.3499 44.8899 63.1899V52.7999C44.8799 52.0199 44.3799 51.33 43.3699 50.75C42.8899 50.47 42.3598 50.26 41.7998 50.11V40.5C41.8098 41.29 42.3098 41.9699 43.3198 42.5499C44.3298 43.1299 45.5199 43.4299 46.8799 43.4299H47.0598C48.3498 43.3999 49.4699 43.1099 50.4199 42.5599C51.4199 41.9999 51.9199 41.3099 51.9199 40.5399Z" stroke="currentColor" stroke-linejoin="round"/>
    <path d="M57.1697 27.2305V47.2104C57.1797 47.9904 56.6797 48.6705 55.6797 49.2505C54.6697 49.8305 53.4896 50.1205 52.1296 50.1205H51.9197V40.5205C51.9197 39.7305 51.4097 39.0505 50.3997 38.4705C49.4397 37.9105 48.3296 37.6205 47.0596 37.5905V27.4805C47.0596 27.4805 47.0796 27.4704 47.0796 27.4604C47.1896 28.1304 47.6896 28.7305 48.5796 29.2405C49.5896 29.8205 50.7696 30.1205 52.1296 30.1205C52.8296 30.1205 53.4796 30.0405 54.0896 29.8905C54.6596 29.7405 55.1897 29.5305 55.6797 29.2505C56.6697 28.6805 57.1697 28.0005 57.1697 27.2305Z" stroke="currentColor" stroke-linejoin="round"/>
    <path d="M73.2002 36.4602C73.2002 37.2402 72.7002 37.9302 71.7002 38.5002C71.2102 38.7802 70.6901 39.0003 70.1101 39.1403C69.5101 39.2903 68.8501 39.3702 68.1501 39.3702C66.7901 39.3702 65.6101 39.0702 64.6001 38.4902C63.7101 37.9802 63.2101 37.3802 63.1001 36.7202C63.0901 36.6302 63.0801 36.5302 63.0801 36.4402C63.0801 35.7602 63.4502 35.1703 64.1802 34.6503C64.1902 34.6503 64.2002 34.6302 64.2102 34.6202C64.3202 34.5502 64.4501 34.4703 64.5801 34.3903C65.5801 33.8103 66.7601 33.5303 68.1201 33.5303C68.8301 33.5303 69.5001 33.6103 70.1101 33.7703C70.6701 33.9203 71.2002 34.1303 71.6802 34.4103C72.6902 34.9903 73.1902 35.6702 73.2002 36.4602Z" stroke="currentColor" stroke-linejoin="round"/>
    <path d="M80.2295 24.17V43.8801L80.2095 43.8901C79.4695 44.4201 79.0994 45.0201 79.0994 45.6901V45.9901C78.9894 46.0701 78.8595 46.1401 78.7295 46.2201C77.7295 46.8001 76.5495 47.0901 75.1895 47.0801C74.4795 47.0801 73.8095 47.0001 73.1995 46.8401V36.4601C73.1895 35.6701 72.6894 34.9902 71.6794 34.4102C71.1994 34.1302 70.6694 33.9201 70.1094 33.7701V24.1602C70.1194 24.9402 70.6194 25.6301 71.6294 26.2101C72.6394 26.7901 73.8295 27.0801 75.1895 27.0801C76.5495 27.0801 77.7295 26.8001 78.7295 26.2201C79.7395 25.6401 80.2295 24.96 80.2295 24.17Z" stroke="currentColor" stroke-linejoin="round"/>
    <path d="M67.9402 49.7899V69.77C67.9502 70.56 67.4502 71.2399 66.4502 71.8199C65.4402 72.3999 64.2601 72.6799 62.9001 72.6799C62.1901 72.6799 61.5302 72.5999 60.9102 72.4399V62.0499C60.9102 61.2699 60.4001 60.58 59.3901 60C58.9101 59.72 58.3901 59.51 57.8301 59.37V49.75C57.8301 50.54 58.3401 51.2199 59.3501 51.7999C60.3601 52.3899 61.5401 52.6799 62.9001 52.6799H63.0801C64.3701 52.6499 65.4902 52.3699 66.4502 51.8199C67.4402 51.2499 67.9402 50.5699 67.9402 49.7899Z" stroke="currentColor" stroke-linejoin="round"/>
    <path d="M67.9394 49.7699V49.7898C67.9394 50.5698 67.4394 51.2498 66.4494 51.8198C65.4894 52.3698 64.3692 52.6498 63.0792 52.6798H62.8993C61.5393 52.6798 60.3593 52.3898 59.3493 51.7998C58.3393 51.2198 57.8292 50.5399 57.8292 49.7499C57.8192 48.9699 58.3192 48.2798 59.3292 47.6998C60.3292 47.1298 61.5093 46.8398 62.8693 46.8398H63.0792C64.3492 46.8698 65.4693 47.1598 66.4293 47.7198C67.4293 48.2998 67.9394 48.9799 67.9394 49.7699Z" stroke="currentColor" stroke-linejoin="round"/>
    <path d="M73.2002 36.46V56.46C73.2002 57.24 72.7002 57.93 71.7002 58.5C70.7002 59.08 69.5201 59.37 68.1501 59.37H67.9402V49.77C67.9402 48.98 67.4302 48.3 66.4302 47.72C65.4702 47.16 64.3501 46.87 63.0801 46.84V36.74L63.1001 36.72C63.2101 37.38 63.7101 37.98 64.6001 38.49C65.6101 39.07 66.7901 39.37 68.1501 39.37C68.8501 39.37 69.5101 39.29 70.1101 39.14C70.6901 39 71.2102 38.78 71.7002 38.5C72.7002 37.93 73.2002 37.24 73.2002 36.46Z" stroke="currentColor" stroke-linejoin="round"/>
</svg>