<svg width="24" height="24" viewBox="0 0 84 93" fill="none" xmlns="http://www.w3.org/2000/svg" stroke-width="1px" stroke-linecap="round" stroke-linejoin="round">
    <path d="M20.1768 61.7427C20.1768 61.7427 20.1967 61.7327 20.2167 61.7227V61.3926C20.2167 61.5126 20.2068 61.6227 20.1768 61.7427ZM30.6467 78.6326V81.0826L30.6667 78.4827C30.6567 78.5327 30.6467 78.5826 30.6467 78.6326Z" stroke="currentColor" stroke-linejoin="round"/>
    <path d="M71.5563 67.5428V87.5428C71.5563 88.3728 71.0662 89.0728 70.0862 89.6428C69.0962 90.2128 67.8862 90.4929 66.4462 90.4929L35.8362 90.4429C34.3962 90.4329 33.1862 90.1429 32.1862 89.5729C31.1962 89.0029 30.6962 88.3029 30.6962 87.4629L30.6562 81.5128V78.4829L30.6962 67.4629C30.6962 68.3029 31.1962 69.0029 32.1862 69.5729C33.1862 70.1429 34.3962 70.4329 35.8362 70.4429L66.4462 70.4929C67.8862 70.4929 69.0962 70.2128 70.0862 69.6428C71.0662 69.0728 71.5563 68.3728 71.5563 67.5428Z" stroke="currentColor" stroke-linejoin="round"/>
    <path d="M71.5565 67.5424C71.5565 68.3724 71.0664 69.0723 70.0864 69.6423C69.0964 70.2123 67.8864 70.4924 66.4464 70.4924L35.8364 70.4424C34.3964 70.4324 33.1864 70.1424 32.1864 69.5724C31.1964 69.0024 30.6964 68.3024 30.6964 67.4624L30.6665 62.8923L30.6465 58.6323C30.6965 57.9423 31.0964 57.3324 31.8364 56.8124C31.9564 56.7324 32.0764 56.6624 32.2064 56.5824C33.1964 56.0124 34.4064 55.7324 35.8464 55.7324C37.2864 55.7324 38.4964 56.0124 39.4564 56.5724C40.0764 56.9224 40.4964 57.3424 40.7164 57.8124C40.8464 58.0724 40.9065 58.3523 40.9065 58.6523L40.9364 63.7524V64.5724H66.4065C67.8465 64.5724 69.0665 64.8624 70.0565 65.4324C71.0565 66.0024 71.5565 66.7124 71.5565 67.5424Z" stroke="currentColor" stroke-linejoin="round"/>
    <path d="M20.2165 61.722V81.3721C20.2265 82.1621 19.7165 82.852 18.7065 83.442C17.6865 84.032 16.4865 84.322 15.1065 84.322C13.7265 84.322 12.5265 84.022 11.5065 83.432C5.65655 80.052 2.77654 76.0321 2.87654 71.3521V51.582C2.87654 55.132 4.60648 58.302 8.06648 61.082C9.06648 61.912 10.2165 62.682 11.5065 63.432C12.5265 64.022 13.7265 64.322 15.1065 64.322C15.7265 64.322 16.3165 64.262 16.8665 64.142C17.5365 64.002 18.1465 63.762 18.7065 63.442C19.5565 62.952 20.0466 62.3821 20.1766 61.7421C20.1866 61.7421 20.1965 61.732 20.2165 61.722Z" stroke="currentColor" stroke-linejoin="round"/>
    <path d="M22.4466 40.4326V60.4326L20.3866 61.6227C20.3266 61.6527 20.2666 61.6927 20.2166 61.7227V61.3727C20.2166 60.5727 19.7067 59.8826 18.6767 59.2826C17.1367 58.3926 15.9066 57.4326 15.0066 56.3926C14.7566 56.1026 14.5366 55.8126 14.3366 55.5126C13.3166 53.9926 12.9266 52.3326 13.1866 50.5226C13.6766 47.0726 16.0766 44.1127 20.3866 41.6227L21.7566 40.8326L22.4466 40.4326Z" stroke="currentColor" stroke-linejoin="round"/>
    <path d="M15.2263 36.2625L13.3663 37.3325L13.1564 37.4525C11.7864 38.2425 10.5463 39.0725 9.44629 39.9325V26.0625C9.44629 29.6725 11.2563 32.9725 14.8763 35.9725C14.9863 36.0725 15.1063 36.1725 15.2263 36.2625Z" stroke="currentColor" stroke-linejoin="round"/>
    <path d="M81.2363 26.1426V46.1426C81.2363 46.9426 80.7263 47.6327 79.7163 48.2227L61.7664 58.5826C56.3864 61.6826 49.9863 63.4026 42.5763 63.7126C42.0263 63.7426 41.4763 63.7527 40.9363 63.7527L40.9064 58.6526C40.9064 58.3526 40.8463 58.0726 40.7163 57.8126C40.4963 57.3426 40.0763 56.9226 39.4563 56.5726C38.4963 56.0126 37.2863 55.7327 35.8463 55.7327C34.4063 55.7327 33.1963 56.0126 32.2063 56.5826C32.0763 56.6626 31.9563 56.7326 31.8363 56.8126C31.0963 57.3326 30.6964 57.9426 30.6464 58.6326L30.6664 62.8926C27.7964 62.3326 25.0563 61.5126 22.4463 60.4326V40.4326C28.4663 42.9326 35.1763 44.0326 42.5763 43.7126C47.7163 43.4926 52.3764 42.6026 56.5464 41.0326C56.6564 40.9926 56.7663 40.9526 56.8763 40.9026C58.5863 40.2426 60.2264 39.4726 61.7664 38.5826L68.2163 34.8627L73.9863 31.5326L79.7163 28.2227C80.7263 27.6327 81.2363 26.9426 81.2363 26.1426Z" stroke="currentColor" stroke-linejoin="round"/>
    <path d="M73.9863 20.7725V17.8125" stroke="currentColor" stroke-linejoin="round"/>
    <path d="M81.2369 26.1422C81.2369 26.9422 80.7269 27.6323 79.7169 28.2223L73.9869 31.5322L68.2169 34.8623L61.767 38.5823C60.227 39.4723 58.587 40.2422 56.877 40.9022C56.767 40.9522 56.657 40.9922 56.547 41.0322C52.377 42.6022 47.7169 43.4923 42.5769 43.7123C35.1769 44.0323 28.4669 42.9323 22.4469 40.4323L21.757 40.8323L20.387 41.6223C16.077 44.1123 13.6769 47.0722 13.1869 50.5222C12.9269 52.3322 13.3169 53.9922 14.3369 55.5122C14.5369 55.8122 14.757 56.1022 15.007 56.3922C15.907 57.4322 17.137 58.3922 18.677 59.2822C19.707 59.8822 20.2169 60.5723 20.2169 61.3723V61.3922C20.2169 61.5122 20.207 61.6223 20.177 61.7423C20.047 62.3823 19.5569 62.9523 18.7069 63.4423C18.1469 63.7623 17.5369 64.0022 16.8669 64.1422C16.3169 64.2622 15.7269 64.3223 15.1069 64.3223C13.7269 64.3223 12.527 64.0223 11.507 63.4323C10.217 62.6823 9.06689 61.9123 8.06689 61.0823C4.60689 58.3023 2.87695 55.1323 2.87695 51.5823V51.4122C2.87695 51.1122 2.897 50.8023 2.927 50.5023C3.307 46.5523 5.4769 43.0323 9.4469 39.9323C10.5469 39.0723 11.787 38.2423 13.157 37.4523L13.3669 37.3323L15.2269 36.2622C15.1069 36.1722 14.987 36.0723 14.877 35.9723C11.257 32.9723 9.4469 29.6723 9.4469 26.0623V26.0222C9.4469 25.5622 9.47699 25.1022 9.53699 24.6322C10.087 20.3622 13.0469 16.6623 18.4369 13.5623L36.377 3.20227C37.397 2.61227 38.5969 2.32227 39.9769 2.32227C41.3569 2.32227 42.5569 2.62228 43.5769 3.21228L50.797 7.3822C51.817 6.7922 53.017 6.50232 54.397 6.50232C55.777 6.50232 56.9769 6.80221 57.9969 7.39221C59.0269 7.98221 59.537 8.68229 59.537 9.47229V9.49231C59.537 10.2823 59.027 10.9722 58.027 11.5522L50.8469 15.6923C49.8269 16.2823 48.6269 16.5723 47.2469 16.5723C45.8669 16.5723 44.667 16.2723 43.647 15.6823C42.617 15.0923 42.1069 14.4023 42.1069 13.6023C42.0969 12.8023 42.607 12.1122 43.627 11.5222L40.007 9.44226L25.657 17.7323C21.707 20.0123 19.747 22.7722 19.757 26.0322C19.767 28.0322 20.527 29.8523 22.027 31.4823C22.977 32.5123 24.2169 33.4723 25.7469 34.3523C26.7369 34.9323 27.787 35.4323 28.887 35.8623C32.177 37.1623 35.937 37.8023 40.167 37.8123C45.807 37.8223 50.597 36.6922 54.547 34.4122L56.547 33.2622L68.907 26.1223L65.287 24.0322C64.277 24.6222 63.0769 24.9122 61.6969 24.9122C60.9169 24.9122 60.197 24.8222 59.537 24.6322C59.017 24.4822 58.5369 24.2822 58.0869 24.0222C57.0669 23.4322 56.557 22.7423 56.547 21.9423C56.547 21.1423 57.0469 20.4523 58.0669 19.8623L59.537 19.0122L65.2469 15.7223C66.2669 15.1323 67.4569 14.8423 68.8369 14.8423C70.2169 14.8523 71.4269 15.1423 72.4469 15.7323C73.4669 16.3223 73.9869 17.0223 73.9869 17.8123C73.9869 18.6023 73.4869 19.3022 72.4669 19.8922L73.9869 20.7722L79.6869 24.0623C80.7169 24.6523 81.2269 25.3422 81.2369 26.1422Z" stroke="currentColor" stroke-linejoin="round"/>
    <path d="M59.5365 9.49219V19.0121L58.0664 19.8622C57.0464 20.4522 56.5465 21.1421 56.5465 21.9421V32.4021L50.8464 35.6921C49.8264 36.2821 48.6265 36.5721 47.2465 36.5721C45.8665 36.5721 44.6665 36.2721 43.6465 35.6821C42.6165 35.0921 42.1064 34.4022 42.1064 33.6022V13.6022C42.1064 14.4022 42.6165 15.0921 43.6465 15.6821C44.6665 16.2721 45.8665 16.5721 47.2465 16.5721C48.6265 16.5721 49.8264 16.2821 50.8464 15.6921L58.0265 11.5521C59.0265 10.9721 59.5365 10.2822 59.5365 9.49219Z" stroke="currentColor" stroke-linejoin="round"/>
    <path d="M68.9069 26.1224L56.5469 33.2623V21.9424C56.5569 22.7424 57.0668 23.4323 58.0868 24.0223C58.5368 24.2823 59.0169 24.4823 59.5369 24.6323C60.1969 24.8223 60.9168 24.9124 61.6968 24.9124C63.0768 24.9124 64.2769 24.6223 65.2869 24.0323L68.9069 26.1224Z" stroke="currentColor" stroke-linejoin="round"/>
    <path d="M40.0069 9.44238V29.4424L28.8869 35.8624C27.7869 35.4324 26.7369 34.9324 25.7469 34.3524C24.2169 33.4724 22.9769 32.5124 22.0269 31.4824C20.5269 29.8524 19.7669 28.0323 19.7569 26.0323C19.7469 22.7723 21.7069 20.0124 25.6569 17.7324L40.0069 9.44238Z" stroke="currentColor" stroke-linejoin="round"/>
    <path d="M43.6268 11.5223C42.6068 12.1123 42.0968 12.8024 42.1068 13.6024V30.6523L40.0068 29.4424V9.44238L43.6268 11.5223Z" stroke="currentColor" stroke-linejoin="round"/>
    <path d="M30.6565 81.5117L30.6465 86.3118" stroke="currentColor" stroke-linejoin="round"/>
</svg>