<svg width="48" height="48" viewBox="0 0 102 93" fill="none" xmlns="http://www.w3.org/2000/svg" stroke-width="1px" stroke-linecap="round" stroke-linejoin="round"><path d="M38.74 29.053V49.033C38.75 49.993 38.1101 50.833 36.8401 51.573C35.5701 52.303 34.1 52.673 32.45 52.673L8.97998 52.623C8.07998 52.623 7.27006 52.523 6.56006 52.333C5.84006 52.133 5.18008 51.8631 4.58008 51.5131C3.98008 51.1631 3.50016 50.783 3.16016 50.373C2.82016 49.953 2.65015 49.493 2.65015 48.973L2.58008 35.423V15.423L2.65015 28.973C2.65015 29.493 2.82016 29.953 3.16016 30.373C3.50016 30.783 3.98008 31.1631 4.58008 31.5131C5.04008 31.7831 5.54008 32.003 6.08008 32.193C6.24008 32.243 6.40006 32.283 6.56006 32.333C7.27006 32.523 8.07998 32.623 8.97998 32.623H12.76L28.1702 32.663H32.45C34.1 32.663 35.5701 32.303 36.8401 31.573C38.1001 30.843 38.74 30.003 38.74 29.053Z" stroke="#229EFF" stroke-linejoin="round"/><path d="M99.6302 24.973V25.043C99.6302 28.693 98.2802 32.023 95.5702 35.033C93.7802 37.023 91.4001 38.873 88.4401 40.583L86.2301 41.853L38.9601 69.153C37.6901 69.883 36.1801 70.2531 34.4601 70.2531C32.7301 70.2431 31.2201 69.8731 29.9401 69.1331C28.6601 68.3931 28.0101 67.523 28.0101 66.523C28.0001 65.523 28.6303 64.663 29.9103 63.923L79.3802 35.3631C79.6002 35.2331 79.8201 35.103 80.0301 34.973C83.2301 33.003 85.2901 30.743 86.2101 28.213C86.5901 27.173 86.7801 26.083 86.7701 24.953C86.7501 20.873 84.2501 17.393 79.2701 14.523C74.2901 11.643 68.2701 10.203 61.2001 10.193C54.1301 10.173 48.12 11.603 43.18 14.453L24.2902 25.3631H32.4103C34.0603 25.3831 35.5302 25.7531 36.8102 26.4931C37.2502 26.7431 37.6103 27.013 37.9003 27.303C38.4603 27.823 38.7401 28.403 38.7401 29.033V29.053C38.7401 30.003 38.1002 30.843 36.8402 31.573C35.5702 32.303 34.1001 32.673 32.4501 32.673H28.1703L12.7601 32.6331H8.9801C8.0801 32.6231 7.27018 32.523 6.56018 32.333C6.40018 32.283 6.2402 32.243 6.0802 32.193C5.5402 32.003 5.0402 31.7831 4.5802 31.5131C3.9802 31.1631 3.50027 30.7831 3.16027 30.3731C2.82027 29.9531 2.65026 29.493 2.65026 28.973L2.5802 15.423C2.5702 14.473 3.2001 13.6231 4.4801 12.8831C5.7501 12.1531 7.22023 11.783 8.87023 11.783C10.5302 11.793 11.9901 12.163 13.2801 12.903C14.5601 13.643 15.2001 14.493 15.2101 15.443L15.2301 20.1331L34.1202 9.23305C41.6202 4.90305 50.6303 2.74308 61.1603 2.76308C71.6903 2.78308 80.7201 4.97301 88.2701 9.32301C95.8101 13.683 99.6002 18.903 99.6302 24.973Z" stroke="#229EFF" stroke-linejoin="round"/><path d="M99.6299 25.043V44.973C99.6599 51.053 95.9297 56.253 88.4397 60.583L38.9597 89.153C37.6897 89.883 36.1797 90.2531 34.4597 90.2531C32.7297 90.2431 31.2197 89.8731 29.9397 89.1331C28.6597 88.3931 28.0098 87.5229 28.0098 86.5229V66.5229C28.0098 67.5229 28.6597 68.3931 29.9397 69.1331C31.2197 69.8731 32.7297 70.2431 34.4597 70.2531C36.1797 70.2531 37.6897 69.883 38.9597 69.153L86.2297 41.853L88.4397 40.583C91.3997 38.873 93.7798 37.023 95.5698 35.033C98.2798 32.023 99.6299 28.693 99.6299 25.043Z" stroke="#229EFF" stroke-linejoin="round"/><path d="M86.77 24.953C86.78 26.083 86.59 27.173 86.21 28.213C85.29 30.743 83.23 33.003 80.03 34.973C79.78 34.823 79.53 34.6729 79.27 34.5229C74.29 31.6429 68.27 30.203 61.2 30.193C54.13 30.173 48.1199 31.603 43.1799 34.453L38.74 37.013V29.0329C38.74 28.4029 38.4601 27.8229 37.9001 27.3029C37.6101 27.0129 37.2501 26.743 36.8101 26.493C35.5301 25.753 34.0602 25.383 32.4102 25.373H24.29L43.1799 14.453C48.1199 11.603 54.13 10.173 61.2 10.193C68.27 10.203 74.29 11.6429 79.27 14.5229C84.25 17.3929 86.75 20.873 86.77 24.953Z" stroke="#229EFF" stroke-linejoin="round"/></svg>