<svg width="24" height="24" viewBox="0 0 122 93" fill="none" xmlns="http://www.w3.org/2000/svg" stroke-width="1px" stroke-linecap="round" stroke-linejoin="round">
    <path d="M49.7099 84.8799V86.2399C49.7299 87.3599 48.9799 88.3399 47.4899 89.1999C46.0099 90.0599 44.2899 90.4899 42.3599 90.4899C40.4299 90.4899 38.7099 90.0499 37.2099 89.1899C35.7099 88.3199 34.9599 87.3299 34.9599 86.2099L34.8799 71.5999V51.5999L34.9399 63.0799L34.9599 66.2099C34.9599 67.3299 35.7099 68.3199 37.2099 69.1899C38.7099 70.0499 40.4299 70.4899 42.3599 70.4899C44.2899 70.4899 46.0099 70.0599 47.4899 69.1999C48.6199 68.5499 49.3199 67.8299 49.5899 67.0299C49.6799 66.7799 49.7199 66.5099 49.7199 66.2399V84.3999L49.7099 84.8799Z" stroke="currentColor" stroke-linejoin="round"/>
    <path d="M49.7197 66.2398C49.7197 66.5098 49.6797 66.7798 49.5897 67.0298C49.3197 67.8298 48.6197 68.5498 47.4897 69.1998C46.0097 70.0598 44.2897 70.4898 42.3597 70.4898C40.4297 70.4898 38.7097 70.0498 37.2097 69.1898C35.7097 68.3198 34.9597 67.3298 34.9597 66.2098L34.9396 63.0798L34.8796 51.5998L9.56964 51.5598C7.63964 51.5498 5.91968 51.1198 4.41968 50.2498C2.91968 49.3898 2.16967 48.3998 2.15967 47.2798C2.15967 46.1698 2.89965 45.1798 4.38965 44.3198C5.87965 43.4598 7.58965 43.0298 9.51965 43.0298L42.2097 43.0898C43.2697 43.0898 44.2097 43.2098 45.0497 43.4398C45.8797 43.6698 46.6497 43.9898 47.3597 44.3998C48.0697 44.7998 48.6196 45.2498 49.0096 45.7298C49.4096 46.2098 49.6097 46.7598 49.6197 47.3698L49.7197 66.2398Z" stroke="currentColor" stroke-linejoin="round"/>
    <path d="M119.1 26.1799C119.1 27.2999 118.36 28.2899 116.87 29.1499C115.38 30.0099 113.67 30.4399 111.74 30.4299L86.3295 30.3799H79.0496C77.9996 30.3699 77.0495 30.2599 76.2095 30.0299C75.3795 29.7999 74.6095 29.4799 73.8995 29.0699C73.1995 28.6599 72.6495 28.2199 72.2495 27.7399C71.9195 27.3399 71.7296 26.8999 71.6796 26.4199C71.6596 26.3099 71.6495 26.2099 71.6495 26.0999L71.5396 7.22991C71.5396 6.10991 72.2795 5.11991 73.7695 4.25991C75.2595 3.39991 76.9695 2.96991 78.8995 2.97991C80.8295 2.97991 82.5496 3.41991 84.0496 4.27991C85.5496 5.14991 86.2995 6.13991 86.3095 7.24991L86.3895 21.8599L111.69 21.9099C113.63 21.9099 115.34 22.3499 116.84 23.2099C118.34 24.0799 119.09 25.0699 119.1 26.1799Z" stroke="currentColor" stroke-linejoin="round"/>
    <path d="M34.8796 51.5998V71.5998L9.56964 71.5598C7.63964 71.5498 5.91968 71.1198 4.41968 70.2498C2.91968 69.3898 2.16967 68.3998 2.15967 67.2798V47.2798C2.15967 48.3998 2.91968 49.3898 4.41968 50.2498C5.91968 51.1198 7.63964 51.5498 9.56964 51.5598L34.8796 51.5998Z" stroke="currentColor" stroke-linejoin="round"/>
    <path d="M119.1 26.18V46.18C119.1 47.3 118.36 48.29 116.87 49.15C115.38 50.01 113.67 50.44 111.74 50.43L79.0496 50.37C77.9996 50.37 77.0495 50.26 76.2095 50.03C75.3795 49.8 74.6095 49.48 73.8995 49.07C73.1995 48.66 72.6495 48.22 72.2495 47.74C71.8495 47.25 71.6495 46.71 71.6495 46.1L71.5396 27.23V7.22998L71.6495 26.1C71.6495 26.21 71.6596 26.31 71.6796 26.41C71.7296 26.9 71.9195 27.34 72.2495 27.74C72.6495 28.22 73.1995 28.66 73.8995 29.07C74.6095 29.48 75.3795 29.8 76.2095 30.03C77.0495 30.26 77.9996 30.37 79.0496 30.37H86.3295L111.74 30.43C113.67 30.44 115.38 30.01 116.87 29.15C118.36 28.29 119.1 27.3 119.1 26.18Z" stroke="currentColor" stroke-linejoin="round"/>
</svg>