<svg width="24" height="24" viewBox="0 0 24 24" fill="none" xmlns="http://www.w3.org/2000/svg">
<path opacity="0.4" d="M2 12C2 7.75736 2 5.63604 3.46447 4.31802C4.92893 3 7.28595 3 12 3C16.714 3 19.0711 3 20.5355 4.31802C22 5.63604 22 7.75736 22 12C22 16.2426 22 18.364 20.5355 19.682C19.0711 21 16.714 21 12 21C7.28595 21 4.92893 21 3.46447 19.682C2 18.364 2 16.2426 2 12Z" fill="#141B34"/>
<path d="M2 12C2 8.25027 2 6.3754 2.95491 5.06107C3.26331 4.6366 3.6366 4.26331 4.06107 3.95491C5.3754 3 7.25027 3 11 3H13C16.7497 3 18.6246 3 19.9389 3.95491C20.3634 4.26331 20.7367 4.6366 21.0451 5.06107C22 6.3754 22 8.25027 22 12C22 15.7497 22 17.6246 21.0451 18.9389C20.7367 19.3634 20.3634 19.7367 19.9389 20.0451C18.6246 21 16.7497 21 13 21H11C7.25027 21 5.3754 21 4.06107 20.0451C3.6366 19.7367 3.26331 19.3634 2.95491 18.9389C2 17.6246 2 15.7497 2 12Z" stroke="#141B34" stroke-width="1.5" stroke-linecap="round"/>
<path d="M10.6364 9V12M10.6364 12V15M10.6364 12H8.81818C7.96108 12 7.53253 12 7.26627 11.7071C7 11.4142 7 10.9428 7 10V9M13.3636 15V12M13.3636 12V9M13.3636 12L17 9M13.3636 12L17 15" stroke="#141B34" stroke-width="1.5" stroke-linecap="round"/>
</svg>
