<svg width="24" height="24" viewBox="0 0 24 24" fill="none" xmlns="http://www.w3.org/2000/svg">
<path opacity="0.4" d="M19.1914 12.334C19.1914 16.2 16.0574 19.334 12.1914 19.334C8.32542 19.334 5.19141 16.2 5.19141 12.334C5.19141 8.46799 8.32542 5.33398 12.1914 5.33398C16.0574 5.33398 19.1914 8.46799 19.1914 12.334Z" fill="#141B34"/>
<path d="M12.1054 9.65186C11.0008 9.65186 10.1914 10.294 10.1914 11.0393C10.1914 11.7845 10.7133 12.2505 12.1914 12.2505C13.8196 12.2505 14.1914 12.9929 14.1914 13.7381C14.1914 14.4834 13.4797 15.072 12.1054 15.072M12.1054 9.65186C12.9762 9.65186 13.4365 9.95672 13.8 10.3671M12.1054 9.65186V8.80762M12.1054 15.072C11.2346 15.072 10.896 14.9 10.4164 14.466M12.1054 15.072V15.8594" stroke="#141B34" stroke-width="1.5" stroke-linecap="round"/>
<path d="M22.1558 4.84013C22.1558 4.84013 22.3319 3.0554 21.9009 2.62446M21.9009 2.62446C21.4674 2.19097 19.6855 2.37108 19.6855 2.37108M21.9009 2.62446L19.1914 5.33395" stroke="#141B34" stroke-width="1.5" stroke-linecap="round" stroke-linejoin="round"/>
<path d="M22.1558 19.8278C22.1558 19.8278 22.3319 21.6125 21.9009 22.0435M21.9009 22.0435C21.4674 22.477 19.6855 22.2969 19.6855 22.2969M21.9009 22.0435L19.1914 19.334" stroke="#141B34" stroke-width="1.5" stroke-linecap="round" stroke-linejoin="round"/>
<path d="M2.48188 2.62445L5.1914 5.33395M2.48188 2.62445C2.91537 2.19097 4.69733 2.37108 4.69733 2.37108M2.48188 2.62445C2.05093 3.0554 2.22701 4.84012 2.22701 4.84012" stroke="#141B34" stroke-width="1.5" stroke-linecap="round" stroke-linejoin="round"/>
<path d="M2.48188 22.0435L5.1914 19.334M2.48188 22.0435C2.91537 22.477 4.69733 22.2969 4.69733 22.2969M2.48188 22.0435C2.05093 21.6126 2.22701 19.8279 2.22701 19.8279" stroke="#141B34" stroke-width="1.5" stroke-linecap="round" stroke-linejoin="round"/>
<path d="M19.1914 12.334C19.1914 16.2 16.0574 19.334 12.1914 19.334C8.32542 19.334 5.19141 16.2 5.19141 12.334C5.19141 8.46799 8.32542 5.33398 12.1914 5.33398C16.0574 5.33398 19.1914 8.46799 19.1914 12.334Z" stroke="#141B34" stroke-width="1.5"/>
</svg>
