<svg width="24" height="24" viewBox="0 0 24 24" fill="none" xmlns="http://www.w3.org/2000/svg">
<path opacity="0.4" d="M9.10112 3.03657C11.0422 2.98779 12.9642 2.98779 14.9054 3.03658C18.0549 3.11573 19.6296 3.15531 20.7611 4.29143C21.8926 5.42755 21.9253 6.96125 21.9907 10.0286C21.996 10.2766 21.9986 11.0302 21.9996 12.0198C22.0021 14.521 22.0037 16.1906 21.659 17.3738L21.303 17.2421C20.389 16.9039 19.932 16.7347 19.5986 16.4014C19.2652 16.068 19.0961 15.611 18.7579 14.697L18.5 14L18.2421 14.697C17.9039 15.611 17.7348 16.068 17.4014 16.4014C17.068 16.7347 16.611 16.9039 15.697 17.2421L15 17.5L15.697 17.7579C16.611 18.0961 17.068 18.2652 17.4014 18.5986C17.6811 18.8783 17.8452 19.2451 18.0906 19.8959C17.0456 20.0049 15.721 20.0023 14.006 19.9988C11.6734 19.9942 9.60915 19.9865 9.10113 19.9737C5.95161 19.8946 4.37685 19.855 3.24536 18.7189C2.11387 17.5827 2.08117 16.0491 2.01577 12.9817C1.99474 11.9954 1.99474 11.0149 2.01577 10.0286C2.08116 6.96123 2.11386 5.42754 3.24536 4.29141C4.37685 3.15529 5.95161 3.11572 9.10112 3.03657Z" fill="#141B34"/>
<path d="M2 5.49998L8.91302 9.41695C11.4616 10.861 12.5384 10.861 15.087 9.41695L22 5.49998" stroke="#141B34" stroke-width="1.5" stroke-linejoin="round"/>
<path d="M21.9842 12.9756C22.0053 11.9899 22.0053 11.0101 21.9842 10.0244C21.9189 6.95885 21.8862 5.42608 20.7551 4.29065C19.6239 3.15522 18.0497 3.11566 14.9012 3.03655C12.9607 2.9878 11.0393 2.9878 9.09882 3.03655C5.95033 3.11565 4.37608 3.1552 3.24495 4.29063C2.11382 5.42606 2.08114 6.95883 2.01576 10.0244C1.99474 11.0101 1.99475 11.9899 2.01577 12.9756C2.08114 16.0411 2.11383 17.5739 3.24496 18.7093C4.37608 19.8448 5.95033 19.8843 9.09883 19.9634C10.404 19.9962 11.7005 20.007 13 19.9956" stroke="#141B34" stroke-width="1.5" stroke-linecap="round" stroke-linejoin="round"/>
<path d="M18.5 14L18.7579 14.697C19.0961 15.611 19.2652 16.068 19.5986 16.4014C19.932 16.7347 20.389 16.9039 21.303 17.2421L22 17.5L21.303 17.7579C20.389 18.0961 19.932 18.2652 19.5986 18.5986C19.2652 18.932 19.0961 19.389 18.7579 20.303L18.5 21L18.2421 20.303C17.9039 19.389 17.7348 18.932 17.4014 18.5986C17.068 18.2652 16.611 18.0961 15.697 17.7579L15 17.5L15.697 17.2421C16.611 16.9039 17.068 16.7347 17.4014 16.4014C17.7348 16.068 17.9039 15.611 18.2421 14.697L18.5 14Z" stroke="#141B34" stroke-width="1.5" stroke-linejoin="round"/>
</svg>
