<svg width="24" height="24" viewBox="0 0 24 24" fill="none" xmlns="http://www.w3.org/2000/svg">
<path opacity="0.4" d="M11.5997 4.48521C9.91124 3.38637 7.16691 4.34907 5.84289 5.43959C5.67582 5.5772 5.50237 5.70635 5.32532 5.83086C3.52246 7.09882 2 10.6199 2 13C2 14.7573 2.00012 17.6339 5.6 19.4092C9.19988 21.1845 14 18.7942 14 14.4435C14 11.6318 10.8001 10.9288 9.20016 10.9288C12.8 10.3431 14.9486 6.66473 11.5997 4.48521Z" fill="#141B34"/>
<path d="M5.59988 5.65676C6.79984 4.48521 9.79974 3.3138 11.5997 4.48521C14.9486 6.66473 12.8 10.3431 9.20016 10.9288C10.8001 10.9288 14 11.6318 14 14.4435C14 18.7942 9.19988 21.1845 5.6 19.4092C2.00012 17.6339 2 14.7573 2 13" stroke="#141B34" stroke-width="1.5" stroke-linecap="round" stroke-linejoin="round"/>
<path d="M19.0006 10C18.052 13.7503 14.9728 13.2464 13.1992 12.3941" stroke="#141B34" stroke-width="1.5" stroke-linejoin="round"/>
<path d="M19 5L19 20" stroke="#141B34" stroke-width="1.5" stroke-linecap="round" stroke-linejoin="round"/>
<path d="M16 4C17.5 4.43301 19.5 4.86603 22 4" stroke="#141B34" stroke-width="1.5" stroke-linecap="round" stroke-linejoin="round"/>
</svg>
