<svg width="24" height="24" viewBox="0 0 24 24" fill="none" xmlns="http://www.w3.org/2000/svg">
<path opacity="0.4" d="M13.5 17.5V7.5C13.5 6.08579 13.5 5.37868 13.0607 4.93934C12.6213 4.5 11.9142 4.5 10.5 4.5H5C3.58579 4.5 2.87868 4.5 2.43934 4.93934C2 5.37868 2 6.08579 2 7.5V14.5C2 15.9142 2 16.6213 2.43934 17.0607C2.87868 17.5 3.58579 17.5 5 17.5C5 16.3954 5.89543 15.5 7 15.5C8.10457 15.5 9 16.3954 9 17.5H13.5Z" fill="#141B34"/>
<path d="M11 17.5H15M13.5 7.5H14.4429C15.7533 7.5 16.4086 7.5 16.9641 7.81452C17.5196 8.12904 17.89 8.70972 18.6308 9.87107C19.1502 10.6854 19.6955 11.2765 20.4622 11.8024C21.2341 12.3318 21.6012 12.5906 21.8049 13.006C22 13.4038 22 13.875 22 14.8173C22 16.0596 22 16.6808 21.651 17.0755C21.636 17.0925 21.6207 17.109 21.6049 17.125C21.2375 17.5 20.6594 17.5 19.503 17.5H19" stroke="#141B34" stroke-width="1.5" stroke-linecap="round" stroke-linejoin="round"/>
<path d="M5 17.5C3.58579 17.5 2.87868 17.5 2.43934 17.0607C2 16.6213 2 15.9142 2 14.5V7.5C2 6.08579 2 5.37868 2.43934 4.93934C2.87868 4.5 3.58579 4.5 5 4.5H10.5C11.9142 4.5 12.6213 4.5 13.0607 4.93934C13.5 5.37868 13.5 6.08579 13.5 7.5V17.5H9" stroke="#141B34" stroke-width="1.5" stroke-linecap="round" stroke-linejoin="round"/>
<path d="M22 14.5H21" stroke="#141B34" stroke-width="1.5" stroke-linecap="round" stroke-linejoin="round"/>
<path d="M8 8.5V12.5M10 10.5L6 10.5" stroke="#141B34" stroke-width="1.5" stroke-linecap="round" stroke-linejoin="round"/>
<circle cx="17" cy="17.5" r="2" stroke="#141B34" stroke-width="1.5"/>
<circle cx="7" cy="17.5" r="2" stroke="#141B34" stroke-width="1.5"/>
</svg>
