<svg width="24" height="24" viewBox="0 0 24 24" fill="none" xmlns="http://www.w3.org/2000/svg">
<path opacity="0.4" d="M12.0139 22H11.0156C7.25085 22 5.36844 22 4.19887 20.9263C3.0293 19.8528 3.0293 18.1249 3.0293 14.6691V6.53357C3.18519 7.30876 4.00925 8.25466 6.52332 8.25466C8.7002 8.25466 12.7004 8.27493 16.0285 8.29474C17.9009 8.30589 18.8371 8.31146 19.4187 8.89784C20.0003 9.48422 20.0003 10.4233 20.0003 12.3017V13.0224C19.5382 13.1793 18.9473 13.762 18.0131 14.6833C17.3512 15.3359 16.9665 15.4763 16.0422 15.4763C15.2229 15.4763 14.8133 15.4763 14.5189 15.6703C13.9808 16.0249 13.9901 16.6859 13.9984 17.2777C13.9994 17.3497 14.0004 17.4205 14.0004 17.4898C14.0004 17.559 13.9994 17.6299 13.9984 17.7019C13.9901 18.2937 13.9808 18.9547 14.5189 19.3093C14.8133 19.5032 15.2229 19.5032 16.0422 19.5032C16.9665 19.5032 17.3512 19.6436 18.0131 20.2963C18.2822 20.5617 18.5229 20.799 18.7402 21.0062C17.5643 22 15.6831 22 12.0139 22Z" fill="#141B34"/>
<path d="M3.02917 5.95544C2.99373 6.11773 2.98697 6.31459 3.02917 6.52394V5.95544Z" fill="#141B34"/>
<path d="M7 4.9613H15.5001C16.3285 4.9613 17.0001 5.63439 17.0001 6.46469V7.96809" stroke="#141B34" stroke-width="1.5" stroke-linecap="round" stroke-linejoin="round"/>
<path d="M18.0364 2.00012L5.83885 2.00014C5.34155 2.00014 4.83292 2.0729 4.43094 2.3671C3.15636 3.29992 2.17412 5.38037 4.15769 7.25864C4.71463 7.78603 5.49312 7.97722 6.25838 7.97722H17.8227C18.6168 7.97722 20.0407 8.09052 20.0407 10.5078M3.0354 5.15925L3.06892 18.0346C3.1956 20.4004 4.79935 21.9543 7.00442 21.9543H11.9643" stroke="#141B34" stroke-width="1.5" stroke-linecap="round"/>
<path d="M21.0003 19.076V15.9036C21.0003 14.1304 21.0003 13.2438 20.4602 13.0232C19.92 12.8025 19.2843 13.4294 18.0128 14.6833C17.3509 15.3359 16.9662 15.4763 16.0419 15.4763C15.2226 15.4763 14.813 15.4763 14.5187 15.6703C13.9152 16.068 14.0002 16.851 14.0002 17.4898C14.0002 18.1285 13.9152 18.9116 14.5187 19.3093C14.813 19.5032 15.2226 19.5032 16.0419 19.5032C16.9662 19.5032 17.3509 19.6436 18.0128 20.2963C19.2843 21.5501 19.92 22.1771 20.4602 21.9564C21.0003 21.7358 21.0003 20.8492 21.0003 19.076Z" stroke="#141B34" stroke-width="1.5" stroke-linecap="round" stroke-linejoin="round"/>
</svg>
