<svg width="24" height="24" viewBox="0 0 24 24" fill="none" xmlns="http://www.w3.org/2000/svg">
<path opacity="0.4" d="M6.00195 13H4.00195C3.05914 13 2.58774 13 2.29484 13.2929C2.00195 13.5858 2.00195 14.0572 2.00195 15V20C2.00195 20.9428 2.00195 21.4142 2.29484 21.7071C2.58774 22 3.05914 22 4.00195 22H6.00195C6.94476 22 7.41616 22 7.70906 21.7071C8.00195 21.4142 8.00195 20.9428 8.00195 20V15C8.00195 14.0572 8.00195 13.5858 7.70906 13.2929C7.41616 13 6.94476 13 6.00195 13Z" fill="#141B34"/>
<path d="M12.502 2L10.002 6H14.002L11.502 10" stroke="#141B34" stroke-width="1.5" stroke-linecap="round" stroke-linejoin="round"/>
<path d="M17.002 6C17.9448 6 18.4162 6 18.7091 6.29289C19.002 6.58579 19.002 7.05719 19.002 8V10.5M7.00195 6C6.05914 6 5.58774 6 5.29484 6.29289C5.00195 6.58579 5.00195 7.05719 5.00195 8V10.5" stroke="#141B34" stroke-width="1.5" stroke-linecap="round" stroke-linejoin="round"/>
<path opacity="0.4" d="M20.002 13H18.002C17.0592 13 16.5878 13 16.2949 13.2929C16.002 13.5858 16.002 14.0572 16.002 15V20C16.002 20.9428 16.002 21.4142 16.2949 21.7071C16.5878 22 17.0592 22 18.002 22H20.002C20.9448 22 21.4162 22 21.7091 21.7071C22.002 21.4142 22.002 20.9428 22.002 20V15C22.002 14.0572 22.002 13.5858 21.7091 13.2929C21.4162 13 20.9448 13 20.002 13Z" fill="#141B34"/>
<path d="M20.001 13H18.001C17.0582 13 16.5868 13 16.2939 13.2929C16.001 13.5858 16.001 14.0572 16.001 15V20C16.001 20.9428 16.001 21.4142 16.2939 21.7071C16.5868 22 17.0582 22 18.001 22H20.001C20.9438 22 21.4152 22 21.7081 21.7071C22.001 21.4142 22.001 20.9428 22.001 20V15C22.001 14.0572 22.001 13.5858 21.7081 13.2929C21.4152 13 20.9438 13 20.001 13Z" stroke="#141B34" stroke-width="1.5" stroke-linecap="round" stroke-linejoin="round"/>
<path d="M16.001 19H22.001" stroke="#141B34" stroke-width="1.5" stroke-linecap="round" stroke-linejoin="round"/>
<path d="M16.001 16H22.001" stroke="#141B34" stroke-width="1.5" stroke-linecap="round" stroke-linejoin="round"/>
<path d="M6.00195 13H4.00195C3.05914 13 2.58774 13 2.29484 13.2929C2.00195 13.5858 2.00195 14.0572 2.00195 15V20C2.00195 20.9428 2.00195 21.4142 2.29484 21.7071C2.58774 22 3.05914 22 4.00195 22H6.00195C6.94476 22 7.41616 22 7.70906 21.7071C8.00195 21.4142 8.00195 20.9428 8.00195 20V15C8.00195 14.0572 8.00195 13.5858 7.70906 13.2929C7.41616 13 6.94476 13 6.00195 13Z" stroke="#141B34" stroke-width="1.5" stroke-linecap="round" stroke-linejoin="round"/>
<path d="M2.00195 19H8.00195" stroke="#141B34" stroke-width="1.5" stroke-linecap="round" stroke-linejoin="round"/>
<path d="M2.00195 16H8.00195" stroke="#141B34" stroke-width="1.5" stroke-linecap="round" stroke-linejoin="round"/>
</svg>
