<svg width="24" height="24" viewBox="0 0 24 24" fill="none" xmlns="http://www.w3.org/2000/svg">
<path opacity="0.4" d="M16.641 7.74552C13.8975 3.89572 7.69133 2.31359 5 2L4 12C5 13.7264 8.16439 14.5959 12 13.7264C11.4138 14.0677 10.4128 14.6835 9.31529 15.9511C8.75631 16.5968 8.51776 17.4954 8.47884 18.4026C8.42682 19.615 8.24695 20.9338 7.625 22H15.0969L19.4439 13.82C19.7639 13.218 19.9238 12.9169 19.9759 12.5901C20.112 11.7364 19.6838 10.8944 19.4519 10.0961C19.2341 9.36245 18.6342 8.87638 17.9095 8.69637C17.3301 8.54976 16.9767 8.21643 16.641 7.74552Z" fill="#141B34"/>
<path d="M5.00183 2C7.69316 2.31359 13.8994 3.89572 16.6428 7.74552C16.9785 8.21643 17.3319 8.54976 17.9113 8.69637C18.6361 8.87638 19.2359 9.36245 19.4537 10.0961C19.6856 10.8944 20.1138 11.7364 19.9778 12.5901C19.9257 12.9169 19.7657 13.218 19.4457 13.82L15.0988 22" stroke="#141B34" stroke-width="1.5" stroke-linecap="round" stroke-linejoin="round"/>
<path d="M4.00183 12C5.00183 13.7264 8.16622 14.5959 12.0018 13.7264C11.4156 14.0677 10.4146 14.6835 9.31712 15.9511C8.75814 16.5968 8.51959 17.4954 8.48067 18.4026C8.42865 19.615 8.24879 20.9338 7.62683 22" stroke="#141B34" stroke-width="1.5" stroke-linecap="round" stroke-linejoin="round"/>
<path d="M5.00183 7C5.00183 7 6.9608 7.28919 8.50183 8.5C9.50183 9.28571 11.4185 9.80952 12.0018 10" stroke="#141B34" stroke-width="1.5" stroke-linecap="round" stroke-linejoin="round"/>
</svg>
