<svg width="24" height="24" viewBox="0 0 24 24" fill="none" xmlns="http://www.w3.org/2000/svg">
<path opacity="0.4" d="M3.02775 7H18.9723C19 7.77051 19 8.66411 19 9.70753V17.9808C19 20.2867 19 21.4396 18.2272 21.8523C17.0846 22.4624 15.178 21.0527 13.7467 19.9944C13.3032 19.6665 12.9054 19.3723 12.59 19.1824C11.8168 18.7168 11.4302 18.484 11 18.484C10.5698 18.484 10.1832 18.7168 9.41 19.1824C9.09462 19.3723 8.69675 19.6665 8.25325 19.9944C6.82195 21.0527 4.91543 22.4624 3.77285 21.8523C3 21.4396 3 20.2867 3 17.9808V9.70753C3 8.66411 3 7.77051 3.02775 7Z" fill="#141B34"/>
<path d="M11 2C7.22876 2 5.34315 2 4.17157 3.12874C3 4.25748 3 6.07416 3 9.70753V17.9808C3 20.2867 3 21.4396 3.77285 21.8523C5.26947 22.6514 8.0768 19.9852 9.41 19.1824C10.1832 18.7168 10.5698 18.484 11 18.484C11.4302 18.484 11.8168 18.7168 12.59 19.1824C13.9232 19.9852 16.7305 22.6514 18.2272 21.8523C19 21.4396 19 20.2867 19 17.9808V12.5" stroke="#141B34" stroke-width="1.5" stroke-linecap="round" stroke-linejoin="round"/>
<path d="M3.5 7.00005H10" stroke="#141B34" stroke-width="1.5" stroke-linecap="round"/>
<path d="M17 10L17 2M13 6H21" stroke="#141B34" stroke-width="1.5" stroke-linecap="round"/>
</svg>
