<svg width="24" height="24" viewBox="0 0 24 24" fill="none" xmlns="http://www.w3.org/2000/svg">
<path d="M12 22.0002C7.75736 22.0002 5.63604 22.0002 4.31802 20.5358C3 19.0713 3 16.7143 3 12.0002C3 7.28617 3 4.92915 4.31802 3.46468C5.63604 2.00022 7.75736 2.00022 12 2.00022C16.2426 2.00022 18.364 2.00022 19.682 3.46468C21 4.92915 21 7.28617 21 12.0002C21 16.7143 21 19.0713 19.682 20.5358C18.364 22.0002 16.2426 22.0002 12 22.0002Z" stroke="#141B34" stroke-width="1.5" stroke-linecap="round" stroke-linejoin="round"/>
<path opacity="0.4" d="M8 2.08133V9.82642C8 11.0735 8 11.6971 8.38642 11.9203C8.95772 12.2503 9.91098 11.4879 10.6266 10.9155C10.8484 10.7381 11.0473 10.579 11.205 10.4763C11.5916 10.2245 11.7849 10.0986 12 10.0986C12.2151 10.0986 12.4084 10.2245 12.795 10.4763C12.9527 10.579 13.1516 10.7381 13.3734 10.9155C14.089 11.4879 15.0423 12.2503 15.6136 11.9203C16 11.6971 16 11.0735 16 9.82642V2.08133C17.7432 2.21301 18.8664 2.55845 19.682 3.46468C21 4.92915 21 7.28617 21 12.0002C21 16.7142 21 19.0713 19.682 20.5358C18.364 22.0002 16.2426 22.0002 12 22.0002C7.75737 22.0002 5.63604 22.0002 4.31802 20.5358C3 19.0713 3 16.7143 3 12.0002C3 7.28617 3 4.92915 4.31802 3.46468C5.13363 2.55845 6.25685 2.21301 8 2.08133Z" fill="#141B34"/>
<path d="M8 2.5V9.82621C8 11.0733 8 11.6969 8.38642 11.9201C9.13473 12.3523 10.5384 10.9103 11.205 10.4761C11.5916 10.2243 11.7849 10.0984 12 10.0984C12.2151 10.0984 12.4084 10.2243 12.795 10.4761C13.4616 10.9103 14.8653 12.3523 15.6136 11.9201C16 11.6969 16 11.0733 16 9.82621V2.5" stroke="#141B34" stroke-width="1.5" stroke-linecap="round" stroke-linejoin="round"/>
</svg>
