<svg width="24" height="24" viewBox="0 0 24 24" fill="none" xmlns="http://www.w3.org/2000/svg">
<path opacity="0.4" d="M9 2H15C18.3093 2 19 2.69067 19 6V22H13C13.9428 22 14.4142 22 14.7071 21.7071C15 21.4142 15 20.9428 15 20V19C15 17.3453 14.6547 17 13 17H11C9.34533 17 9 17.3453 9 19V20C9 20.9428 9 21.4142 9.29289 21.7071C9.58579 22 10.0572 22 11 22H5V6C5 2.69067 5.69067 2 9 2Z" fill="#141B34"/>
<path d="M15 2H9C5.69067 2 5 2.69067 5 6V22H19V6C19 2.69067 18.3093 2 15 2Z" stroke="#141B34" stroke-width="1.5" stroke-linejoin="round"/>
<path d="M3 22H21" stroke="#141B34" stroke-width="1.5" stroke-linecap="round" stroke-linejoin="round"/>
<path d="M15 22V19C15 17.3453 14.6547 17 13 17H11C9.34533 17 9 17.3453 9 19V22" stroke="#141B34" stroke-width="1.5" stroke-linejoin="round"/>
<path d="M13.5 6H10.5M13.5 9.5H10.5M13.5 13H10.5" stroke="#141B34" stroke-width="1.5" stroke-linecap="round"/>
</svg>
