<svg width="24" height="24" viewBox="0 0 24 24" fill="none" xmlns="http://www.w3.org/2000/svg">
<path opacity="0.4" fill-rule="evenodd" clip-rule="evenodd" d="M21.5 12.5782V13.0918C21.5 17.4491 21.5 19.6277 20.2479 20.9814C18.9958 22.335 16.9805 22.335 12.95 22.335H11.05C7.01949 22.335 5.00424 22.335 3.75212 20.9814C2.5 19.6277 2.5 17.4491 2.5 13.0918V12.5782C2.5 10.8488 2.5 9.4626 2.57828 8.33496H21.4217C21.5 9.4626 21.5 10.8488 21.5 12.5782ZM10.3985 14.6475L10.3984 13.335C10.3984 12.5066 11.1147 11.835 11.9983 11.835C12.8819 11.835 13.5982 12.5065 13.5983 13.3348V14.6475H12.0628C12.6324 14.6484 13.1527 14.6606 13.6651 14.6832C14.2965 14.7111 14.8152 15.183 14.8996 15.7852C14.9546 16.1783 15 16.581 15 16.9912C15 17.4015 14.9546 17.8042 14.8996 18.1973C14.8152 18.7995 14.2965 19.2714 13.6651 19.2993C13.1339 19.3228 12.5943 19.335 12 19.335C11.4057 19.335 10.8661 19.3228 10.3349 19.2993C9.70355 19.2714 9.18476 18.7995 9.10043 18.1973C9.04539 17.8042 9 17.4015 9 16.9912C9 16.581 9.04539 16.1783 9.10043 15.7852C9.18476 15.183 9.70355 14.7111 10.3349 14.6832C10.8473 14.6606 11.3676 14.6484 11.9372 14.6475H10.3985Z" fill="#141B34"/>
<path d="M18 2.33496V4.33496M6 2.33496V4.33496" stroke="#141B34" stroke-width="1.5" stroke-linecap="round" stroke-linejoin="round"/>
<path d="M3 8.33496H21" stroke="#141B34" stroke-width="1.5" stroke-linecap="round" stroke-linejoin="round"/>
<path d="M2.5 12.5782C2.5 8.2209 2.5 6.04224 3.75212 4.6886C5.00424 3.33496 7.01949 3.33496 11.05 3.33496H12.95C16.9805 3.33496 18.9958 3.33496 20.2479 4.6886C21.5 6.04224 21.5 8.2209 21.5 12.5782V13.0918C21.5 17.4491 21.5 19.6277 20.2479 20.9814C18.9958 22.335 16.9805 22.335 12.95 22.335H11.05C7.01949 22.335 5.00424 22.335 3.75212 20.9814C2.5 19.6277 2.5 17.4491 2.5 13.0918V12.5782Z" stroke="#141B34" stroke-width="1.5" stroke-linecap="round" stroke-linejoin="round"/>
<path d="M10.3851 14.6571V13.4238C10.3851 13.2291 10.3937 13.032 10.4671 12.8501C10.6625 12.3661 11.0373 11.8155 11.9796 11.8155C12.922 11.8155 13.3211 12.3661 13.5165 12.8501C13.5899 13.032 13.5985 13.2291 13.5985 13.4238V14.6571M10.3851 19.3313H13.2934C13.6038 19.3313 13.9198 19.2976 14.196 19.1559C14.2787 19.1134 14.3513 19.0694 14.4152 19.0242C15.0193 18.5967 14.9957 17.7152 14.9957 16.9752V16.3497C14.9202 15.3681 14.702 14.915 13.6875 14.6571H10.3108C9.6446 14.7669 9.35045 15.0471 9.16641 15.5772C9.0524 15.9055 9.03214 16.2573 9.03214 16.605V17.2694C9.03214 17.7422 9.02335 18.2417 9.27407 18.6426C9.4769 18.9669 9.82076 19.2491 10.3851 19.3313Z" stroke="#141B34" stroke-width="1.5" stroke-linecap="round" stroke-linejoin="round"/>
</svg>
