<svg width="24" height="24" viewBox="0 0 24 24" fill="none" xmlns="http://www.w3.org/2000/svg">
<path opacity="0.4" d="M21.5 12.2432V12.7568C21.5 16.9852 21.5 19.1619 20.3557 20.524C20.7615 19.9526 21 19.2542 21 18.5C21 16.567 19.433 15 17.5 15C15.567 15 14 16.567 14 18.5C14 20.1824 15.187 21.5875 16.7692 21.9236C15.7456 22 14.496 22 12.95 22H11.05C7.01949 22 5.00424 22 3.75212 20.6464C2.5 19.2927 2.5 17.1141 2.5 12.7568V12.2432C2.5 10.5138 2.5 9.12764 2.57828 8H21.4217C21.5 9.12764 21.5 10.5138 21.5 12.2432Z" fill="#141B34"/>
<path d="M11.5 22H11.05C7.01949 22 5.00424 22 3.75212 20.6464C2.5 19.2927 2.5 17.1141 2.5 12.7568V12.2432C2.5 7.88594 2.5 5.70728 3.75212 4.35364C5.00424 3 7.01949 3 11.05 3H12.95C16.9805 3 18.9958 3 20.2479 4.35364C21.5 5.70728 21.5 7.88594 21.5 12.2432C21.5 12.6622 21.4997 13 21.4997 13" stroke="#141B34" stroke-width="1.5" stroke-linecap="round" stroke-linejoin="round"/>
<path d="M15.0251 20.9749L19.9749 16.0251M21 18.5C21 20.433 19.433 22 17.5 22C15.567 22 14 20.433 14 18.5C14 16.567 15.567 15 17.5 15C19.433 15 21 16.567 21 18.5Z" stroke="#141B34" stroke-width="1.5" stroke-linejoin="round"/>
<path d="M18 2V4M6 2V4" stroke="#141B34" stroke-width="1.5" stroke-linecap="round" stroke-linejoin="round"/>
<path d="M3 8H21" stroke="#141B34" stroke-width="1.5" stroke-linecap="round" stroke-linejoin="round"/>
</svg>
