<svg width="24" height="24" viewBox="0 0 24 24" fill="none" xmlns="http://www.w3.org/2000/svg">
<path opacity="0.4" fill-rule="evenodd" clip-rule="evenodd" d="M2.90796 3.55992C2 4.74003 2 6.49335 2 10C2 13.5066 2 15.26 2.90796 16.4401C3.07418 16.6561 3.25989 16.8542 3.46243 17.0315C4.56877 18 6.21251 18 9.49998 18H14.5C17.7875 18 19.4312 18 20.5376 17.0315C20.7401 16.8542 20.9258 16.6561 21.092 16.4401C22 15.26 22 13.5066 22 10C22 6.49335 22 4.74003 21.092 3.55992C20.9258 3.34388 20.7401 3.14579 20.5376 2.96849C19.4312 2 17.7875 2 14.5 2H9.5C6.21252 2 4.56878 2 3.46243 2.96849C3.25989 3.14579 3.07418 3.34388 2.90796 3.55992ZM12 13C13.6569 13 15 11.6569 15 10C15 8.34315 13.6569 7 12 7C10.3431 7 9 8.34315 9 10C9 11.6569 10.3431 13 12 13Z" fill="#141B34"/>
<path d="M2 10C2 6.49335 2 4.74003 2.90796 3.55992C3.07418 3.34388 3.25989 3.14579 3.46243 2.96849C4.56878 2 6.21252 2 9.5 2H14.5C17.7875 2 19.4312 2 20.5376 2.96849C20.7401 3.14579 20.9258 3.34388 21.092 3.55992C22 4.74003 22 6.49335 22 10C22 13.5066 22 15.26 21.092 16.4401C20.9258 16.6561 20.7401 16.8542 20.5376 17.0315C19.4312 18 17.7875 18 14.5 18H9.5C6.21252 18 4.56878 18 3.46243 17.0315C3.25989 16.8542 3.07418 16.6561 2.90796 16.4401C2 15.26 2 13.5066 2 10Z" stroke="#141B34" stroke-width="1.5"/>
<path d="M17 22L12.8333 18M7 22L11.1667 18" stroke="#141B34" stroke-width="1.5" stroke-linecap="round" stroke-linejoin="round"/>
<path d="M12 18L12 23" stroke="#141B34" stroke-width="1.5" stroke-linecap="round" stroke-linejoin="round"/>
<circle cx="12" cy="10" r="3" stroke="#141B34" stroke-width="1.5"/>
</svg>
