<svg width="24" height="24" viewBox="0 0 24 24" fill="none" xmlns="http://www.w3.org/2000/svg">
<path opacity="0.4" fill-rule="evenodd" clip-rule="evenodd" d="M2 11.5V16C2 18.8284 2 20.2426 2.87868 21.1213C3.75736 22 5.17157 22 8 22H16C18.8284 22 20.2426 22 21.1213 21.1213C22 20.2426 22 18.8284 22 16V11.5C22 9.15442 22 7.98164 21.3801 7.17372C21.2205 6.96572 21.0343 6.77954 20.8263 6.61994C20.0184 6 19.3456 6 17 6H16.6L16.1142 4.78543C16.0754 4.68856 16.0372 4.59037 15.9987 4.49162C15.6579 3.61633 15.2998 2.69677 14.4166 2.25955C13.8924 2 13.2616 2 12 2C10.7384 2 10.1076 2 9.58335 2.25955C8.70024 2.69677 8.34214 3.61633 8.00127 4.49162C7.96281 4.59037 7.92458 4.68856 7.88583 4.78543L7.4 6H7C4.65442 6 3.98164 6 3.17372 6.61994C2.96572 6.77954 2.77954 6.96572 2.61994 7.17372C2 7.98164 2 9.15442 2 11.5ZM12 17.5C13.933 17.5 15.5 15.933 15.5 14C15.5 12.067 13.933 10.5 12 10.5C10.067 10.5 8.5 12.067 8.5 14C8.5 15.933 10.067 17.5 12 17.5Z" fill="#141B34"/>
<path d="M17 6C19.3456 6 20.0184 6 20.8263 6.61994C21.0343 6.77954 21.2205 6.96572 21.3801 7.17372C22 7.98164 22 9.15442 22 11.5V16C22 18.8284 22 20.2426 21.1213 21.1213C20.2426 22 18.8284 22 16 22H8C5.17157 22 3.75736 22 2.87868 21.1213C2 20.2426 2 18.8284 2 16V11.5C2 9.15442 2 7.98164 2.61994 7.17372C2.77954 6.96572 2.96572 6.77954 3.17372 6.61994C3.98164 6 4.65442 6 7 6" stroke="#141B34" stroke-width="1.5" stroke-linecap="round"/>
<path d="M17 7L16.1142 4.78543C15.732 3.82996 15.3994 2.7461 14.4166 2.25955C13.8924 2 13.2616 2 12 2C10.7384 2 10.1076 2 9.58335 2.25955C8.6006 2.7461 8.26801 3.82996 7.88583 4.78543L7 7" stroke="#141B34" stroke-width="1.5" stroke-linecap="round" stroke-linejoin="round"/>
<path d="M15.5 14C15.5 15.933 13.933 17.5 12 17.5C10.067 17.5 8.5 15.933 8.5 14C8.5 12.067 10.067 10.5 12 10.5C13.933 10.5 15.5 12.067 15.5 14Z" stroke="#141B34" stroke-width="1.5"/>
<path d="M11.9998 6H12.0088" stroke="#141B34" stroke-width="2" stroke-linecap="round" stroke-linejoin="round"/>
</svg>
