<svg width="24" height="24" viewBox="0 0 24 24" fill="none" xmlns="http://www.w3.org/2000/svg">
<path opacity="0.4" d="M22 5.5H11V6.5C11 8.48984 11 9.48475 11.579 10.149C11.6717 10.2552 11.7737 10.3535 11.8841 10.4426C12.5742 11 13.6078 11 15.675 11H17.325C19.3922 11 20.4258 11 21.1159 10.4426C21.2263 10.3535 21.3283 10.2552 21.421 10.149C22 9.48475 22 8.48984 22 6.5V5.5Z" fill="#141B34"/>
<path opacity="0.4" d="M13 16.5H2V17.5C2 19.4898 2 20.4848 2.57904 21.149C2.67165 21.2552 2.77373 21.3535 2.8841 21.4426C3.57417 22 4.60778 22 6.675 22H8.325C10.3922 22 11.4258 22 12.1159 21.4426C12.2263 21.3535 12.3283 21.2552 12.421 21.149C13 20.4848 13 19.4898 13 17.5V16.5Z" fill="#141B34"/>
<path d="M10.9658 5.52369H21.7723M13.4658 10.9939H19.4999C20.8806 10.9939 21.9999 9.87536 21.9999 8.49558V4.49637C21.9999 3.11658 20.8806 1.99805 19.4999 1.99805H13.4658C12.0851 1.99805 10.9658 3.11658 10.9658 4.49637V8.49558C10.9658 9.87536 12.0851 10.9939 13.4658 10.9939Z" stroke="#141B34" stroke-width="1.5" stroke-linecap="round" stroke-linejoin="round"/>
<path d="M2 16.5315H12.8065M4.5 22.0017H10.5341C11.9148 22.0017 13.0341 20.8832 13.0341 19.5034V15.5042C13.0341 14.1244 11.9148 13.0059 10.5341 13.0059H4.5C3.11929 13.0059 2 14.1244 2 15.5042V19.5034C2 20.8832 3.11929 22.0017 4.5 22.0017Z" stroke="#141B34" stroke-width="1.5" stroke-linecap="round" stroke-linejoin="round"/>
<path d="M2 16.5315H12.8065M4.5 22.0017H10.5341C11.9148 22.0017 13.0341 20.8832 13.0341 19.5034V15.5042C13.0341 14.1244 11.9148 13.0059 10.5341 13.0059H4.5C3.11929 13.0059 2 14.1244 2 15.5042V19.5034C2 20.8832 3.11929 22.0017 4.5 22.0017Z" stroke="#141B34" stroke-width="1.5" stroke-linecap="round" stroke-linejoin="round"/>
<path d="M2 16.5315H12.8065M4.5 22.0017H10.5341C11.9148 22.0017 13.0341 20.8832 13.0341 19.5034V15.5042C13.0341 14.1244 11.9148 13.0059 10.5341 13.0059H4.5C3.11929 13.0059 2 14.1244 2 15.5042V19.5034C2 20.8832 3.11929 22.0017 4.5 22.0017Z" stroke="#141B34" stroke-width="1.5" stroke-linecap="round" stroke-linejoin="round"/>
<path d="M2 10C2 6.68286 4.68286 4 8 4L7.14286 5.71429" stroke="#141B34" stroke-width="1.5" stroke-linecap="round" stroke-linejoin="round"/>
<path d="M22 14C22 17.3171 19.3171 20 16 20L16.8571 18.2857" stroke="#141B34" stroke-width="1.5" stroke-linecap="round" stroke-linejoin="round"/>
</svg>
