<svg width="24" height="24" viewBox="0 0 24 24" fill="none" xmlns="http://www.w3.org/2000/svg">
<path opacity="0.4" d="M12 22C17.5228 22 22 17.5228 22 12C22 6.47715 17.5228 2 12 2C6.47715 2 2 6.47715 2 12C2 17.5228 6.47715 22 12 22Z" fill="#141B34"/>
<path d="M12 22C17.5228 22 22 17.5228 22 12C22 6.47715 17.5228 2 12 2C6.47715 2 2 6.47715 2 12C2 17.5228 6.47715 22 12 22Z" stroke="#141B34" stroke-width="1.5"/>
<path d="M11.4726 9.49623C12.0162 10.0222 14.0052 11.298 14.0004 12.0433C13.9255 12.7818 12.0137 13.9754 11.5074 14.4998M7 12.0164L13.9898 11.9678M17.0277 15.9616L16.9721 7.96973" stroke="#141B34" stroke-width="1.5" stroke-linecap="round" stroke-linejoin="round"/>
</svg>
