<svg width="24" height="24" viewBox="0 0 24 24" fill="none" xmlns="http://www.w3.org/2000/svg">
<path d="M4.5 10C4.5 6.22876 4.5 4.34315 5.67157 3.17157C6.84315 2 8.72876 2 12.5 2H14C17.7712 2 19.6569 2 20.8284 3.17157C22 4.34315 22 6.22876 22 10V14C22 17.7712 22 19.6569 20.8284 20.8284C19.6569 22 17.7712 22 14 22H12.5C8.72876 22 6.84315 22 5.67157 20.8284C4.5 19.6569 4.5 17.7712 4.5 14V10Z" stroke="#141B34" stroke-width="1.5"/>
<path opacity="0.4" fill-rule="evenodd" clip-rule="evenodd" d="M5.67157 3.17157C4.5 4.34315 4.5 6.22876 4.5 10V14C4.5 17.7712 4.5 19.6569 5.67157 20.8284C6.84315 22 8.72876 22 12.5 22H14C17.7712 22 19.6569 22 20.8284 20.8284C22 19.6569 22 17.7712 22 14V10C22 6.22876 22 4.34315 20.8284 3.17157C19.6569 2 17.7712 2 14 2H12.5C8.72876 2 6.84315 2 5.67157 3.17157ZM13.25 10.5C14.3546 10.5 15.25 9.60457 15.25 8.5C15.25 7.39543 14.3546 6.5 13.25 6.5C12.1454 6.5 11.25 7.39543 11.25 8.5C11.25 9.60457 12.1454 10.5 13.25 10.5ZM10.6259 14.3792C10.7048 14.3289 10.7776 14.2826 10.84 14.2408C12.3145 13.2531 14.1855 13.2531 15.66 14.2408C15.7225 14.2827 15.7951 14.3289 15.8742 14.3793C16.5905 14.8352 17.8375 15.6291 16.9333 16.5983C16.4428 17.124 15.8964 17.5 15.2096 17.5H11.2904C10.6036 17.5 10.0572 17.124 9.56674 16.5983C8.66248 15.6291 9.90963 14.8352 10.6259 14.3792Z" fill="#141B34"/>
<path d="M15.2743 8.4931C15.2743 9.59763 14.3789 10.4931 13.2743 10.4931C12.1698 10.4931 11.2744 9.59763 11.2744 8.4931C11.2744 7.38856 12.1698 6.49316 13.2743 6.49316C14.3789 6.49316 15.2743 7.38856 15.2743 8.4931Z" stroke="#141B34" stroke-width="1.5" stroke-linecap="round" stroke-linejoin="round"/>
<path d="M9.31982 15.7162C10.3782 14.0869 12.0589 13.4763 13.2749 13.4775C14.491 13.4788 16.1224 14.0869 17.1808 15.7162C17.2492 15.8216 17.268 15.9513 17.2063 16.0608C16.9588 16.4997 16.1903 17.3706 15.6352 17.4297C14.9975 17.4975 13.3291 17.507 13.2762 17.5073C13.2232 17.507 11.5034 17.4975 10.8654 17.4297C10.3103 17.3706 9.5418 16.4997 9.29429 16.0608C9.23253 15.9513 9.25139 15.8216 9.31982 15.7162Z" stroke="#141B34" stroke-width="1.5" stroke-linecap="round" stroke-linejoin="round"/>
<path d="M4.5 6H2M4.5 12H2M4.5 18H2" stroke="#141B34" stroke-width="1.5" stroke-linecap="round" stroke-linejoin="round"/>
</svg>
