<svg width="24" height="24" viewBox="0 0 24 24" fill="none" xmlns="http://www.w3.org/2000/svg">
<path opacity="0.4" d="M10 2H14C17.7712 2 19.6569 2 20.8284 3.17157C22 4.34315 22 6.22876 22 10C22 13.7712 22 15.6569 20.8284 16.8284C20.2627 17.3941 19.5306 17.6867 18.5 17.838L15.2232 17.8742C14.7724 16.6658 14.5 15.502 14.5 15L14.451 14.9951C14.4831 14.8351 14.5 14.6695 14.5 14.5C14.5 13.1193 13.3807 12 12 12C10.6193 12 9.5 13.1193 9.5 14.5C9.5 15.8242 9.68267 16.9616 9.9559 17.9324L7 17.965C5.1277 17.8873 3.97975 17.6366 3.17157 16.8284C2 15.6569 2 13.7712 2 10C2 6.22876 2 4.34315 3.17157 3.17157C4.34315 2 6.22876 2 10 2Z" fill="#141B34"/>
<path d="M18.5 17.838C19.5305 17.6867 20.2627 17.3941 20.8284 16.8284C22 15.6569 22 13.7712 22 10C22 6.22876 22 4.34315 20.8284 3.17157C19.6569 2 17.7712 2 14 2H10C6.22876 2 4.34315 2 3.17157 3.17157C2 4.34315 2 6.22876 2 10C2 13.7712 2 15.6569 3.17157 16.8284C3.97975 17.6366 5.1277 17.8873 7 17.965" stroke="#141B34" stroke-width="1.5" stroke-linecap="round"/>
<path d="M17 7L7 7" stroke="#141B34" stroke-width="1.5" stroke-linecap="round" stroke-linejoin="round"/>
<path d="M14.5 14.5C14.5 15.8807 13.3807 17 12 17C10.6193 17 9.5 15.8807 9.5 14.5C9.5 13.1193 10.6193 12 12 12C13.3807 12 14.5 13.1193 14.5 14.5Z" stroke="#141B34" stroke-width="1.5"/>
<path d="M9.5 14.5C9.5 18.5659 11.2222 20.8706 12 22L13.5 19L15.25 20L17 21C16.2653 20.2888 15.5058 18.0471 15.5058 18.0471" stroke="#141B34" stroke-width="1.5" stroke-linecap="round" stroke-linejoin="round"/>
</svg>
