<svg width="24" height="24" viewBox="0 0 24 24" fill="none" xmlns="http://www.w3.org/2000/svg">
<path opacity="0.4" d="M3.62127 19.4851L3 17H21L20.3787 19.4851C20.1561 20.3754 19.3562 21 18.4384 21H5.56155C4.64382 21 3.84385 20.3754 3.62127 19.4851Z" fill="#141B34"/>
<path opacity="0.4" d="M20.5 14.5C20.0017 10.2768 16.3861 7 12 7C7.61386 7 3.99834 10.2768 3.5 14.5H20.5Z" fill="#141B34"/>
<path d="M2 17H22" stroke="#141B34" stroke-width="1.5" stroke-linecap="round"/>
<path d="M12 7C12 7 13.5 5.96638 13.5 4.69135C13.5 2.43622 10.5 2.43622 10.5 4.69135C10.5 5.96638 12 7 12 7Z" stroke="#141B34" stroke-width="1.5" stroke-linejoin="round"/>
<path d="M3 17L3.62127 19.4851C3.84385 20.3754 4.64382 21 5.56155 21H18.4384C19.3562 21 20.1561 20.3754 20.3787 19.4851L21 17" stroke="#141B34" stroke-width="1.5" stroke-linecap="round"/>
<path d="M20.5 14.5C20.0017 10.2768 16.3861 7 12 7C7.61386 7 3.99834 10.2768 3.5 14.5" stroke="#141B34" stroke-width="1.5" stroke-linecap="round"/>
</svg>
