<svg width="24" height="24" viewBox="0 0 24 24" fill="none" xmlns="http://www.w3.org/2000/svg">
<path opacity="0.4" d="M17.0785 13.8038C17.4119 13.4704 17.5785 13.3038 17.7519 13.2036C18.2225 12.932 18.8022 12.932 19.2727 13.2036C19.4461 13.3038 19.6128 13.4704 19.9461 13.8038C20.2795 14.1371 20.4461 14.3038 20.5463 14.4772C20.8179 14.9477 20.8179 15.5274 20.5463 15.998C20.4461 16.1714 20.2795 16.338 19.9461 16.6714L16.6383 19.9792C15.9774 20.6401 14.9801 20.667 14.0977 20.8556C13.4078 21.0031 13.0628 21.0769 12.8679 20.882C12.673 20.6871 12.7468 20.3421 12.8943 19.6522C13.0829 18.7698 13.1098 17.7725 13.7707 17.1116L17.0785 13.8038Z" fill="#141B34"/>
<path d="M3.25 2.99991V20.9999" stroke="#141B34" stroke-width="1.5" stroke-linecap="round" stroke-linejoin="round"/>
<path d="M16.25 2.99991V10.4999" stroke="#141B34" stroke-width="1.5" stroke-linecap="round" stroke-linejoin="round"/>
<path d="M9.75 2.99991V6.99991" stroke="#141B34" stroke-width="1.5" stroke-linecap="round" stroke-linejoin="round"/>
<path d="M9.75 9.99991V13.9999" stroke="#141B34" stroke-width="1.5" stroke-linecap="round" stroke-linejoin="round"/>
<path d="M9.75 16.9999V20.9999" stroke="#141B34" stroke-width="1.5" stroke-linecap="round" stroke-linejoin="round"/>
<path d="M19.6055 13.4392L20.2998 14.1316C20.8872 14.7174 20.8872 15.6671 20.2998 16.2529L16.6623 19.9486C16.3762 20.2339 16.0102 20.4263 15.6124 20.5004L13.358 20.9884C13.0021 21.0655 12.6851 20.7503 12.7614 20.3951L13.2412 18.1598C13.3155 17.7631 13.5084 17.3981 13.7946 17.1128L17.4783 13.4392C18.0657 12.8535 19.0181 12.8535 19.6055 13.4392Z" stroke="#141B34" stroke-width="1.5" stroke-linecap="round" stroke-linejoin="round"/>
</svg>
