<svg width="24" height="24" viewBox="0 0 24 24" fill="none" xmlns="http://www.w3.org/2000/svg">
<path d="M18 3V8M6 3V8" stroke="#141B34" stroke-width="1.5" stroke-linecap="round" stroke-linejoin="round"/>
<path d="M20.5 4V5.5M20.5 5.5V7M20.5 5.5H22M3.5 4V5.5M3.5 5.5V7M3.5 5.5H2" stroke="#141B34" stroke-width="1.5" stroke-linecap="round" stroke-linejoin="round"/>
<path d="M18 5.5L6 5.5" stroke="#141B34" stroke-width="1.5" stroke-linecap="round" stroke-linejoin="round"/>
<path d="M10 5.5V10M14 5.5V10" stroke="#141B34" stroke-width="1.5" stroke-linecap="round" stroke-linejoin="round"/>
<path opacity="0.4" d="M10.2066 10H14.2556C15.3409 10 15.725 10.1518 16.2591 11.1056L18.7957 15.6351C18.9432 15.8986 19 16.1018 19 16.4079C19 18.6165 18.1334 19 16.0969 19H7.8469C5.87314 19 5 18.6114 5 16.4581C5 16.1138 5.07336 15.8877 5.25854 15.6043L8.27172 10.9923C8.82575 10.1443 9.19904 10 10.2066 10Z" fill="#141B34"/>
<path d="M18.9517 16H5.06243M14.2556 10H10.2066C9.19904 10 8.82575 10.1443 8.27172 10.9923L5.25854 15.6043C5.07336 15.8877 5 16.1138 5 16.4581C5 18.6114 5.87314 19 7.8469 19H16.0969C18.1334 19 19 18.6165 19 16.4079C19 16.1018 18.9432 15.8986 18.7957 15.6351L16.2591 11.1056C15.725 10.1518 15.3409 10 14.2556 10Z" stroke="#141B34" stroke-width="1.5" stroke-linecap="round" stroke-linejoin="round"/>
<path d="M16.0969 19H7.8469C5.87314 19 5 18.6114 5 16.4581C5 16.2989 5.01568 16.165 5.05085 16.039C5.05772 16.0159 5.07897 16 5.10309 16H18.9183C18.938 16 18.9551 16.0133 18.96 16.0323C18.9878 16.1462 19 16.266 19 16.4079C19 18.6165 18.1334 19 16.0969 19Z" stroke="#141B34" stroke-width="1.5" stroke-linecap="round" stroke-linejoin="round"/>
<path d="M16 19V21M8 19V21" stroke="#141B34" stroke-width="1.5" stroke-linecap="round" stroke-linejoin="round"/>
</svg>
