<svg width="24" height="24" viewBox="0 0 24 24" fill="none" xmlns="http://www.w3.org/2000/svg">
<path d="M11.3889 16.4961C11.6468 16.28 11.9421 16.1105 12.256 16.0063C14.2866 15.3711 13.1598 13.8525 15.0015 13.2535C16.4228 12.7913 15.9869 12.0115 16.5404 11.3532M10.1011 13.9246C10.2996 13.7677 10.5368 13.6562 10.7983 13.6042C11.8756 13.3993 11.712 11.7573 12.856 11.5382C13.6432 11.3793 13.5552 10.5838 13.9646 10.0675M7.52539 12.639C7.63045 12.2129 8.07855 12.2533 8.39242 12.1492C10.3426 11.4336 9.2157 9.74609 11.1379 9.39636C12.5963 9.18359 12.0329 8.05859 12.6769 7.49609" stroke="#141B34" stroke-width="1.5" stroke-linecap="round"/>
<path opacity="0.4" d="M3.03566 15.6438C2.84098 15.8382 2.84098 16.1533 3.03566 16.3477L7.67288 20.9772C7.86755 21.1715 8.18319 21.1715 8.37787 20.9772C9.18108 20.1753 9.58268 19.7744 9.70597 19.253C9.82924 18.7317 9.64962 18.1938 9.29042 17.1179C8.99734 16.2401 8.85078 15.8012 8.53551 15.4865C8.22023 15.1717 7.78058 15.0254 6.90131 14.7328C5.82369 14.3742 5.28488 14.1949 4.76268 14.318C4.24047 14.441 3.83887 14.842 3.03566 15.6438Z" fill="#141B34"/>
<path opacity="0.4" d="M15.6871 3.01491C15.8818 2.82055 16.1974 2.82055 16.3921 3.01491L21.0294 7.64442C21.224 7.83877 21.224 8.15388 21.0294 8.34824C20.2261 9.15012 19.8246 9.55105 19.3023 9.67413C18.7801 9.7972 18.2413 9.61789 17.1636 9.25928C16.2844 8.96668 15.8447 8.82037 15.5295 8.50562C15.2142 8.19086 15.0676 7.75195 14.7746 6.87414C14.4154 5.79831 14.2358 5.26039 14.3591 4.73906C14.4823 4.21772 14.8839 3.81678 15.6871 3.01491Z" fill="#141B34"/>
<path d="M2.0166 15.3299L8.68599 21.9974M2.85525 15.7906L3.53472 15.1543C3.94976 14.7656 4.38912 14.3212 4.95637 14.2806C5.47913 14.2433 6.18755 14.5218 8.13303 15.2059C8.77863 15.4329 9.57779 17.4624 9.69746 18.8043C9.75519 19.4516 9.36665 20.0039 8.91555 20.4725L8.3699 21.0393" stroke="#141B34" stroke-width="1.5" stroke-linecap="round" stroke-linejoin="round"/>
<path d="M15.3803 2L22.0167 8.70042M15.837 2.84068L15.1971 3.51681C14.8063 3.9298 14.3597 4.36683 14.3163 4.9337C14.2763 5.45612 14.5514 6.16572 15.226 8.114C15.4498 8.7602 17.4739 9.56866 18.8156 9.69558C19.4642 9.75694 20.0195 9.37078 20.4908 8.92173L21.0599 8.37967" stroke="#141B34" stroke-width="1.5" stroke-linecap="round" stroke-linejoin="round"/>
</svg>
