<svg width="24" height="24" viewBox="0 0 24 24" fill="none" xmlns="http://www.w3.org/2000/svg">
<path d="M4 11.0004L4 14.5446C4 17.7896 4 19.4121 4.88607 20.5111C5.06508 20.7331 5.26731 20.9354 5.48933 21.1144C6.58831 22.0004 8.21082 22.0004 11.4558 22.0004C12.1614 22.0004 12.5141 22.0004 12.8372 21.8864C12.9044 21.8627 12.9702 21.8354 13.0345 21.8047C13.3436 21.6569 13.593 21.4074 14.0919 20.9085L18.8284 16.172C19.4065 15.5939 19.6955 15.3049 19.8478 14.9374C20 14.5698 20 14.1611 20 13.3436V10.0004C20 6.22919 20 4.34358 18.8284 3.172C17.7693 2.11284 16.1265 2.01122 13.0345 2.00146M13 21.5004V21.0004C13 18.172 13 16.7578 13.8787 15.8791C14.7574 15.0004 16.1716 15.0004 19 15.0004H19.5" stroke="#141B34" stroke-width="1.5" stroke-linecap="round" stroke-linejoin="round"/>
<path d="M9.97487 7.97438C10.6082 7.34101 11 6.46601 11 5.49951C11 3.56651 9.433 1.99951 7.5 1.99951C6.5335 1.99951 5.6585 2.39126 5.02513 3.02464M9.97487 7.97438C9.3415 8.60776 8.4665 8.99951 7.5 8.99951C5.567 8.99951 4 7.43251 4 5.49951C4 4.53301 4.39175 3.65801 5.02513 3.02464M9.97487 7.97438L5.02513 3.02464" stroke="#141B34" stroke-width="1.5" stroke-linecap="round" stroke-linejoin="round"/>
<path opacity="0.4" d="M20 13.3427V9.99951C20 6.22828 20 4.34266 18.8284 3.17109C17.6569 1.99951 15.7712 1.99951 12 1.99951C10.4611 1.99951 9.23621 1.99951 8.24568 2.07912C9.82044 2.42083 11 3.82241 11 5.49951C11 6.46601 10.6082 7.34101 9.97487 7.97438C9.3415 8.60776 8.4665 8.99951 7.5 8.99951C5.8229 8.99951 4.42131 7.81995 4.0796 6.24519C4 7.23572 4 8.46063 4 9.99951V14.5437C4 17.7887 4 19.4112 4.88607 20.5102C5.06508 20.7322 5.26731 20.9344 5.48933 21.1134C6.58831 21.9995 8.21082 21.9995 11.4558 21.9995C12.1614 21.9995 12.5141 21.9995 12.8372 21.8855L13 20.9995C13 18.1711 13 16.7569 13.8787 15.8782C14.7574 14.9995 16.1716 14.9995 19 14.9995L19.8478 14.9365C20 14.5689 20 14.1602 20 13.3427Z" fill="#141B34"/>
</svg>
