<svg width="24" height="24" viewBox="0 0 24 24" fill="none" xmlns="http://www.w3.org/2000/svg">
<path opacity="0.4" d="M20 9.99951V13.3427C20 14.1602 20 14.5689 19.8478 14.9365L19 14.9995C16.1716 14.9995 14.7574 14.9995 13.8787 15.8782C13 16.7569 13 18.1711 13 20.9995L12.8372 21.8855C12.5141 21.9995 12.1614 21.9995 11.4558 21.9995C8.21082 21.9995 6.58831 21.9995 5.48933 21.1134C5.26731 20.9344 5.06508 20.7322 4.88607 20.5102C4 19.4112 4 17.7887 4 14.5437V9.99951C4 6.22827 4 4.34266 5.17157 3.17108C6.34315 1.99951 8.22877 1.99951 12 1.99951C15.7712 1.99951 17.6569 1.99951 18.8284 3.17109C20 4.34266 20 6.22828 20 9.99951Z" fill="#141B34"/>
<path d="M4 12.0004L4 14.5446C4 17.7896 4 19.4121 4.88607 20.5111C5.06508 20.7331 5.26731 20.9354 5.48933 21.1144C6.58831 22.0004 8.21082 22.0004 11.4558 22.0004C12.1614 22.0004 12.5141 22.0004 12.8372 21.8864C12.9044 21.8627 12.9702 21.8354 13.0345 21.8047C13.3436 21.6569 13.593 21.4074 14.0919 20.9085L18.8284 16.172C19.4065 15.5939 19.6955 15.3049 19.8478 14.9374C20 14.5698 20 14.1611 20 13.3436V10.0004C20 6.22919 20 4.34358 18.8284 3.172C17.7693 2.11284 16.1265 2.01122 13.0345 2.00146M13 21.5004V21.0004C13 18.172 13 16.7578 13.8787 15.8791C14.7574 15.0004 16.1716 15.0004 19 15.0004H19.5" stroke="#141B34" stroke-width="1.5" stroke-linecap="round" stroke-linejoin="round"/>
<path d="M4 8.23028V5.46105C4 3.54929 5.567 1.99951 7.5 1.99951C9.433 1.99951 11 3.54929 11 5.46105V9.26874C11 10.2246 10.2165 10.9995 9.25 10.9995C8.2835 10.9995 7.5 10.2246 7.5 9.26874V5.46105" stroke="#141B34" stroke-width="1.5" stroke-linecap="round" stroke-linejoin="round"/>
</svg>
