<svg width="24" height="24" viewBox="0 0 24 24" fill="none" xmlns="http://www.w3.org/2000/svg">
<path opacity="0.4" d="M20 9.99988V13.343C20 14.1605 20 14.5693 19.8478 14.9368L19 14.9999C16.1716 14.9999 14.7574 14.9999 13.8787 15.8786C13 16.7572 13 18.1715 13 20.9999L12.8372 21.8859C12.5141 21.9999 12.1614 21.9999 11.4558 21.9999C8.21082 21.9999 6.58831 21.9999 5.48933 21.1138C5.26731 20.9348 5.06508 20.7326 4.88607 20.5105C4 19.4116 4 17.7891 4 14.544V9.99988C4 6.22864 4 4.34302 5.17157 3.17145C6.34315 1.99988 8.22877 1.99988 12 1.99988C15.7712 1.99988 17.6569 1.99988 18.8284 3.17145C20 4.34302 20 6.22864 20 9.99988Z" fill="#141B34"/>
<path d="M13 21.4999V20.9999C13 18.1715 13 16.7572 13.8787 15.8786C14.7574 14.9999 16.1716 14.9999 19 14.9999H19.5M20 13.343V9.99988C20 6.22864 20 4.34302 18.8284 3.17145C17.6569 1.99988 15.7712 1.99988 12 1.99988C8.22877 1.99988 6.34315 1.99988 5.17157 3.17145C4 4.34302 4 6.22864 4 9.99988L4 14.544C4 17.7891 4 19.4116 4.88607 20.5105C5.06508 20.7326 5.26731 20.9348 5.48933 21.1138C6.58831 21.9999 8.21082 21.9999 11.4558 21.9999C12.1614 21.9999 12.5141 21.9999 12.8372 21.8859C12.9044 21.8622 12.9702 21.8349 13.0345 21.8041C13.3436 21.6563 13.593 21.4069 14.0919 20.908L18.8284 16.1715C19.4065 15.5934 19.6955 15.3044 19.8478 14.9368C20 14.5693 20 14.1605 20 13.343Z" stroke="#141B34" stroke-width="1.5" stroke-linecap="round" stroke-linejoin="round"/>
</svg>
