<svg width="24" height="24" viewBox="0 0 24 24" fill="none" xmlns="http://www.w3.org/2000/svg">
<path opacity="0.4" fill-rule="evenodd" clip-rule="evenodd" d="M19.5 14.5C19.5 18.6421 16.1421 22 12 22C7.85786 22 4.5 18.6421 4.5 14.5C4.5 11.3634 6.13976 9.45653 7.70483 7.63655C9.13353 5.97515 10.5 4.38613 10.5 2C13.8638 3.43796 13.9346 6.11931 13.9913 8.26738C14.0333 9.85832 14.0675 11.1567 15.4262 11.4408C17.4004 11.8536 17.5 9 17.5 9C19.5 11.5 19.5 13.5 19.5 14.5ZM15.5 14.5012C15.5 16.9864 13.933 19.0011 12 19.0011C10.067 19.0011 8.5 17.4853 8.5 15C8.5 13.8256 9.55426 11.5532 11 11C11.1667 12.9379 12.3 15.7011 15.5 14.5012Z" fill="#141B34"/>
<path d="M12 22C16.1421 22 19.5 18.6421 19.5 14.5C19.5 13.5 19.5 11.5 17.5 9C17.5 9 17.4004 11.8536 15.4262 11.4408C12.2331 10.7732 16.3551 4.50296 10.5 2C10.5 7 4.5 8.5 4.5 14.5C4.5 18.6421 7.85786 22 12 22Z" stroke="#141B34" stroke-width="1.5" stroke-linejoin="round"/>
<path d="M12 19.0011C13.933 19.0011 15.5 16.9864 15.5 14.5011C12.3 15.7011 11.1667 12.9379 11 11C9.55426 11.5532 8.5 13.8256 8.5 15C8.5 17.4853 10.067 19.0011 12 19.0011Z" stroke="#141B34" stroke-width="1.5" stroke-linejoin="round"/>
</svg>
