<svg width="24" height="24" viewBox="0 0 24 24" fill="none" xmlns="http://www.w3.org/2000/svg">
<path opacity="0.4" d="M3 4.00003V21.0001L9 21C9 18.5 8.5 15 12 15C15.5 15 15 18 15 21L21 21.0001V4.00003C21 3.52865 21 3.29296 20.8536 3.14651C20.7071 3.00007 20.4714 3.00005 20 3.00003L19.3123 3C19.0123 2.99999 18.997 3.01195 18.9242 3.30299L18.5757 4.697C18.503 4.98802 18.4877 4.99999 18.1877 4.99999H16.8123C16.5123 4.99999 16.497 4.98803 16.4243 4.697L16.0757 3.30306C16.003 3.01204 15.9877 3.00008 15.6877 3.00008L15 3.00008C14.5286 3.00008 14.2929 3.00008 14.1464 3.14653C14 3.29297 14 3.52867 14 4.00008V8.00008C14 8.47148 14 8.70719 13.8536 8.85363C13.7071 9.00008 13.4714 9.00008 13 9.00008H11C10.5286 9.00008 10.2929 9.00008 10.1464 8.85363C10 8.70719 10 8.47148 10 8.00008V4.00008C10 3.52867 10 3.29297 9.85355 3.14653C9.70711 3.00008 9.4714 3.00008 9 3.00008L8.31231 3.00008C8.01233 3.00008 7.99701 3.01204 7.92425 3.30306L7.57575 4.697C7.50299 4.98802 7.48767 4.99999 7.18769 4.99999H5.81231C5.51233 4.99999 5.49701 4.98802 5.42425 4.697L5.07575 3.30299C5.00299 3.01195 4.98767 2.99999 4.68767 3L3.99995 3.00003C3.52857 3.00005 3.29288 3.00007 3.14644 3.14651C3 3.29296 3 3.52865 3 4.00003Z" fill="#141B34"/>
<path d="M2 20.9999H8C8.4714 20.9999 8.70711 20.9999 8.85355 20.8535C9 20.707 9 20.4713 9 19.9999V17.9999C9 16.3431 10.3431 14.9999 12 14.9999C13.6569 14.9999 15 16.3431 15 17.9999V19.9999C15 20.4713 15 20.707 15.1464 20.8535C15.2929 20.9999 15.5286 20.9999 16 20.9999H22" stroke="#141B34" stroke-width="1.5" stroke-linecap="round"/>
<path d="M3 21V3.99997C3 3.52859 3 3.2929 3.14644 3.14645C3.29288 3 3.52857 2.99999 3.99995 2.99997L4.68767 2.99994C4.98767 2.99992 5.00299 3.01189 5.07575 3.30292L5.42425 4.69694C5.49701 4.98796 5.51233 4.99992 5.81231 4.99992H7.18769C7.48767 4.99992 7.50299 4.98796 7.57575 4.69694L7.92425 3.303C7.99701 3.01198 8.01233 3.00002 8.31231 3.00002L9 3.00002C9.4714 3.00002 9.70711 3.00002 9.85355 3.14646C10 3.29291 10 3.52861 10 4.00002V8.00002C10 8.47142 10 8.70712 10.1464 8.85357C10.2929 9.00002 10.5286 9.00002 11 9.00002H13C13.4714 9.00002 13.7071 9.00002 13.8536 8.85357C14 8.70712 14 8.47142 14 8.00002V4.00002C14 3.52861 14 3.29291 14.1464 3.14646C14.2929 3.00002 14.5286 3.00002 15 3.00002L15.6877 3.00002C15.9877 3.00002 16.003 3.01198 16.0757 3.303L16.4243 4.69694C16.497 4.98796 16.5123 4.99992 16.8123 4.99992H18.1877C18.4877 4.99992 18.503 4.98796 18.5757 4.69694L18.9242 3.30292C18.997 3.01189 19.0123 2.99992 19.3123 2.99994L20 2.99997C20.4714 2.99999 20.7071 3 20.8536 3.14645C21 3.2929 21 3.52859 21 3.99997V21" stroke="#141B34" stroke-width="1.5" stroke-linecap="round" stroke-linejoin="round"/>
<path d="M7 8.99994H6" stroke="#141B34" stroke-width="1.5" stroke-linecap="round" stroke-linejoin="round"/>
<path d="M12.5 11.9999H11.5" stroke="#141B34" stroke-width="1.5" stroke-linecap="round" stroke-linejoin="round"/>
<path d="M18 8.99994H17" stroke="#141B34" stroke-width="1.5" stroke-linecap="round" stroke-linejoin="round"/>
</svg>
