<svg width="24" height="24" viewBox="0 0 24 24" fill="none" xmlns="http://www.w3.org/2000/svg">
<path opacity="0.4" fill-rule="evenodd" clip-rule="evenodd" d="M14.5 17C18.6421 17 22 13.6421 22 9.5C22 5.35786 18.6421 2 14.5 2C10.3579 2 7 5.35786 7 9.5C7 13.6421 10.3579 17 14.5 17ZM15 13C17.2091 13 19 11.2091 19 9C19 6.79086 17.2091 5 15 5C12.7909 5 11 6.79086 11 9C11 11.2091 12.7909 13 15 13Z" fill="#141B34"/>
<path d="M22 9.5C22 13.6421 18.6421 17 14.5 17C10.3579 17 7 13.6421 7 9.5C7 5.35786 10.3579 2 14.5 2C18.6421 2 22 5.35786 22 9.5Z" stroke="#141B34" stroke-width="1.5"/>
<path d="M19 9C19 11.2091 17.2091 13 15 13C12.7909 13 11 11.2091 11 9C11 6.79086 12.7909 5 15 5C17.2091 5 19 6.79086 19 9Z" stroke="#141B34" stroke-width="1.5"/>
<path d="M15.0078 9L14.9988 9" stroke="#141B34" stroke-width="2" stroke-linecap="round" stroke-linejoin="round"/>
<path d="M2 22L9 15" stroke="#141B34" stroke-width="1.5" stroke-linecap="round" stroke-linejoin="round"/>
</svg>
