<svg width="24" height="24" viewBox="0 0 24 24" fill="none" xmlns="http://www.w3.org/2000/svg">
<path d="M15.5 21C16.8956 21 17.5933 21 18.1611 20.8278C19.4395 20.44 20.44 19.4395 20.8278 18.1611C21 17.5933 21 16.8956 21 15.5M21 8.5C21 7.10444 21 6.40666 20.8278 5.83886C20.44 4.56046 19.4395 3.56004 18.1611 3.17224C17.5933 3 16.8956 3 15.5 3M8.5 21C7.10444 21 6.40666 21 5.83886 20.8278C4.56046 20.44 3.56004 19.4395 3.17224 18.1611C3 17.5933 3 16.8956 3 15.5M3 8.5C3 7.10444 3 6.40666 3.17224 5.83886C3.56004 4.56046 4.56046 3.56004 5.83886 3.17224C6.40666 3 7.10444 3 8.5 3" stroke="#141B34" stroke-width="1.5" stroke-linecap="round" stroke-linejoin="round"/>
<path opacity="0.4" d="M3 13V11C3 7.22876 3 5.34315 4.17157 4.17157C5.34315 3 7.22876 3 11 3H13C16.7712 3 18.6569 3 19.8284 4.17157C21 5.34315 21 7.22876 21 11V13C21 16.7712 21 18.6569 19.8284 19.8284C18.6569 21 16.7712 21 13 21H11C7.22876 21 5.34315 21 4.17157 19.8284C3 18.6569 3 16.7712 3 13Z" fill="#141B34"/>
</svg>
