<svg width="24" height="24" viewBox="0 0 24 24" fill="none" xmlns="http://www.w3.org/2000/svg">
<path d="M12 5L10.8961 3.45459C10.4851 2.87911 10.2795 2.59137 10.4093 2.32411C10.5391 2.05684 10.8689 2.04153 11.5286 2.01092C11.6848 2.00367 11.842 2 12 2C17.5228 2 22 6.47715 22 12C22 17.5228 17.5228 22 12 22C6.47715 22 2 17.5228 2 12C2 8.72836 3.57111 5.82368 6 3.99927" stroke="#141B34" stroke-width="1.5" stroke-linecap="round" stroke-linejoin="round"/>
<path opacity="0.4" d="M12 22C6.47715 22 2 17.5228 2 12C2 8.72836 3.57111 5.82368 6 3.99927C8.64715 2.01092 10.8689 2.04153 11.5286 2.01092C11.6848 2.00367 11.842 2 12 2C17.5228 2 22 6.47715 22 12C22 17.5228 17.5228 22 12 22Z" fill="#141B34"/>
<path d="M12 5L10.8961 3.45459C10.4851 2.87911 10.2795 2.59137 10.4093 2.32411C10.5391 2.05684 10.8689 2.04153 11.5286 2.01092C11.6848 2.00367 11.842 2 12 2C17.5228 2 22 6.47715 22 12C22 17.5228 17.5228 22 12 22C6.47715 22 2 17.5228 2 12C2 8.72836 3.57111 5.82368 6 3.99927" stroke="#141B34" stroke-width="1.5" stroke-linecap="round" stroke-linejoin="round"/>
<path d="M7.5 14.3636V12.1818C7.5 11.1533 7.5 10.639 7.74136 10.3195C7.98271 10 8.37117 10 9.14809 10C9.9915 10 10.7632 10.0201 10.7632 11M8.6772 16H9.61897C9.83777 16 9.94716 16 10.0381 15.979C10.4117 15.893 10.7038 15.5547 10.7781 15.1219C10.8284 14.8291 10.8284 14.4436 10.7781 14.1508C10.7038 13.7181 10.4117 13.3798 10.0381 13.2937C9.94716 13.2727 9.83777 13.2727 9.61897 13.2727H8.6772C8.45841 13.2727 8.34901 13.2727 8.25803 13.2937C7.88445 13.3798 7.59241 13.7181 7.5181 14.1508C7.5 14.2562 7.5 14.3829 7.5 14.6364C7.5 14.8898 7.5 15.0165 7.5181 15.1219C7.59241 15.5547 7.88445 15.893 8.25803 15.979C8.34901 16 8.45841 16 8.6772 16ZM14.8421 16C14.1768 16 13.8442 16 13.6052 15.8315C13.5018 15.7585 13.413 15.6648 13.3439 15.5556C13.1842 15.3033 13.1842 14.9522 13.1842 14.25V11.75C13.1842 11.0478 13.1842 10.6967 13.3439 10.4444C13.413 10.3352 13.5018 10.2415 13.6052 10.1685C13.8442 10 14.1768 10 14.8421 10C15.5074 10 15.84 10 16.079 10.1685C16.1824 10.2415 16.2712 10.3352 16.3403 10.4444C16.5 10.6967 16.5 11.0478 16.5 11.75V14.25C16.5 14.9522 16.5 15.3033 16.3403 15.5556C16.2712 15.6648 16.1824 15.7585 16.079 15.8315C15.84 16 15.5074 16 14.8421 16Z" stroke="#141B34" stroke-width="1.3" stroke-linecap="round" stroke-linejoin="round"/>
</svg>
