<svg width="24" height="24" viewBox="0 0 24 24" fill="none" xmlns="http://www.w3.org/2000/svg">
<path d="M12 5L13.1039 3.45459C13.5149 2.87911 13.7205 2.59137 13.5907 2.32411C13.4609 2.05684 13.1311 2.04153 12.4714 2.01092C12.3152 2.00367 12.158 2 12 2C6.47715 2 2 6.47715 2 12C2 17.5228 6.47715 22 12 22C17.5228 22 22 17.5228 22 12C22 8.72836 20.4289 5.82368 18 3.99927" stroke="#141B34" stroke-width="1.5" stroke-linecap="round" stroke-linejoin="round"/>
<path opacity="0.4" d="M12 22C6.47715 22 2 17.5228 2 12C2 8.72836 3.57111 5.82368 6 3.99927C8.64715 2.01092 10.8689 2.04153 11.5286 2.01092C11.6848 2.00367 11.842 2 12 2C17.5228 2 22 6.47715 22 12C22 17.5228 17.5228 22 12 22Z" fill="#141B34"/>
<path d="M12 5L13.1039 3.45459C13.5149 2.87911 13.7205 2.59137 13.5907 2.32411C13.4609 2.05684 13.1311 2.04153 12.4714 2.01092C12.3152 2.00367 12.158 2 12 2C6.47715 2 2 6.47715 2 12C2 17.5228 6.47715 22 12 22C17.5228 22 22 17.5228 22 12C22 8.72836 20.4289 5.82368 18 3.99927" stroke="#141B34" stroke-width="1.5" stroke-linecap="round" stroke-linejoin="round"/>
<path d="M7.99121 10.9967C8.51921 10.5767 8.99921 9.88415 9.29921 10.0127C9.59921 10.1412 9.50321 10.5647 9.50321 11.2247C9.50321 11.8847 9.50321 14.6774 9.50321 16.0007" stroke="#141B34" stroke-width="1.5" stroke-linecap="round"/>
<path d="M16.0012 12.5931C16.0012 11.2131 16.0672 10.8411 15.8032 10.3971C15.5392 9.95302 14.8792 9.99142 14.2192 9.99142C13.5592 9.99142 13.0792 9.95302 12.7612 10.3131C12.3712 10.7331 12.5392 11.5131 12.4912 12.5931C12.5992 14.0331 12.3052 15.1731 12.7552 15.6531C13.0792 16.0491 13.6543 15.9891 14.3392 16.0011C15.0191 15.9928 15.4312 16.0251 15.7672 15.6411C16.1392 15.3051 15.9592 13.9731 16.0012 12.5931Z" stroke="#141B34" stroke-width="1.5" stroke-linecap="round"/>
</svg>
