<svg width="24" height="24" viewBox="0 0 24 24" fill="none" xmlns="http://www.w3.org/2000/svg">
<path opacity="0.4" d="M11.5239 22C15.6787 22 19.0468 20.8807 19.0468 19.5C19.0468 18.1193 15.6787 17 11.5239 17C7.36911 17 4.00098 18.1193 4.00098 19.5C4.00098 20.8807 7.36911 22 11.5239 22Z" fill="#141B34"/>
<path d="M11.0026 19.0277C11.0857 11.8535 10.8044 5.13766 11.174 2.8883C11.4546 2.09147 11.9475 1.29448 15.1838 3.06291L17.3711 4.1315C18.717 4.78904 20.5903 5.83737 19.8196 7.11896C19.4688 7.7022 18.6703 8.35379 17.1111 9.01623L11.0006 11.9835" stroke="#141B34" stroke-width="1.5" stroke-linecap="round" stroke-linejoin="round"/>
<path d="M8.51473 17C5.85778 17.3971 4.00098 18.3716 4.00098 19.4268C4.00098 20.8479 7.3691 22 11.5239 22C15.6787 22 19.0468 20.8479 19.0468 19.4268C19.0468 18.3064 16.9534 17.3532 14.0315 17" stroke="#141B34" stroke-width="1.5" stroke-linecap="round"/>
</svg>
