<svg width="24" height="24" viewBox="0 0 24 24" fill="none" xmlns="http://www.w3.org/2000/svg">
<path opacity="0.4" d="M12.3057 19.75H12.3077C13.2845 19.7491 14.1179 19.0425 14.2785 18.0788L14.5 16.75H13.5C14.6046 16.75 15.5 15.8546 15.5 14.75V13.75H14.5C15.6046 13.75 16.5 12.8546 16.5 11.75V10.75H20C20.8284 10.75 21.5 10.0784 21.5 9.25C21.5 8.42157 20.8284 7.75 20 7.75H14.5L13.1253 6.2843C11.79 5.07555 11.1224 4.47118 10.3244 4.30904C10.0738 4.25813 9.81789 4.24003 9.56279 4.25519C8.75046 4.30345 8.00724 4.80806 6.5208 5.81729L5.69069 6.3809C4.75168 7.01844 4.28217 7.33722 3.91042 7.72767C3.25974 8.41108 2.81019 9.26656 2.61279 10.197C2.5 10.7286 2.5 11.3033 2.5 12.4527C2.5 14.5057 2.5 15.5323 2.78643 16.3566C3.28992 17.8056 4.40918 18.9455 5.832 19.4583C6.64141 19.75 7.64936 19.75 9.66527 19.75H11.5H12.3057Z" fill="#141B34"/>
<path d="M13.485 10.7552H16.4892M16.4892 10.7552H19.9954C20.8264 10.7552 21.5 10.0828 21.5 9.25337C21.5 8.42397 20.8264 7.7516 19.9954 7.7516H14.531M16.4892 10.7552L16.4624 11.8096C16.4443 12.5206 16.056 13.1372 15.4844 13.4775M14.531 7.7516H9.9681M14.531 7.7516L11.7712 5.15816C9.9036 3.5857 8.5422 4.41202 7.7858 4.99227L5.3484 6.60715C3.2809 7.83196 2.5 9.24932 2.5 10.4416V15.3224C2.5 17.5884 4.8823 19.7015 7.0658 19.7015L12.2657 19.7495C13.2759 19.7589 14.135 19.0162 14.27 18.0169L14.4593 16.4765M15.4844 13.4775C15.1842 13.6562 14.8335 13.7587 14.4593 13.7587H13.4552M15.4844 13.4775L15.4297 14.8131C15.4021 15.8975 14.5134 16.7623 13.4266 16.7623H12.4226" stroke="#141B34" stroke-width="1.5" stroke-linecap="round" stroke-linejoin="round"/>
</svg>
