<svg width="24" height="24" viewBox="0 0 24 24" fill="none" xmlns="http://www.w3.org/2000/svg">
<path opacity="0.4" d="M2 19.5001C2 18.3215 2 17.7323 2.43934 17.3662C2.87868 17.0001 3.58579 17.0001 5 17.0001C6.41421 17.0001 7.12132 17.0001 7.56066 17.3662C8 17.7323 8 18.3215 8 19.5001C8 20.6786 8 21.2678 7.56066 21.6339C7.12132 22.0001 6.41421 22.0001 5 22.0001C3.58579 22.0001 2.87868 22.0001 2.43934 21.6339C2 21.2678 2 20.6786 2 19.5001Z" fill="#141B34"/>
<path opacity="0.4" d="M16 19.5001C16 18.3215 16 17.7323 16.4393 17.3662C16.8787 17.0001 17.5858 17.0001 19 17.0001C20.4142 17.0001 21.1213 17.0001 21.5607 17.3662C22 17.7323 22 18.3215 22 19.5001C22 20.6786 22 21.2678 21.5607 21.6339C21.1213 22.0001 20.4142 22.0001 19 22.0001C17.5858 22.0001 16.8787 22.0001 16.4393 21.6339C16 21.2678 16 20.6786 16 19.5001Z" fill="#141B34"/>
<path opacity="0.4" d="M9.89128 8.06716C9.34109 8.44625 7.89853 9.2203 8.77715 10.1889C9.20634 10.6621 9.68436 11.0005 10.2853 11.0005H13.7147C14.3156 11.0005 14.7937 10.6621 15.2229 10.1889C16.1015 9.2203 14.6589 8.44625 14.1087 8.06716C12.8185 7.17821 11.1815 7.17821 9.89128 8.06716Z" fill="#141B34"/>
<path d="M2 19.5C2 18.3215 2 17.7322 2.43934 17.3661C2.87868 17 3.58579 17 5 17C6.41421 17 7.12132 17 7.56066 17.3661C8 17.7322 8 18.3215 8 19.5C8 20.6785 8 21.2678 7.56066 21.6339C7.12132 22 6.41421 22 5 22C3.58579 22 2.87868 22 2.43934 21.6339C2 21.2678 2 20.6785 2 19.5Z" stroke="#141B34" stroke-width="1.5"/>
<path d="M16 19.5C16 18.3215 16 17.7322 16.4393 17.3661C16.8787 17 17.5858 17 19 17C20.4142 17 21.1213 17 21.5607 17.3661C22 17.7322 22 18.3215 22 19.5C22 20.6785 22 21.2678 21.5607 21.6339C21.1213 22 20.4142 22 19 22C17.5858 22 16.8787 22 16.4393 21.6339C16 21.2678 16 20.6785 16 19.5Z" stroke="#141B34" stroke-width="1.5"/>
<path d="M19 17C19 14.518 18.2562 14 14.6923 14H9.30769C5.74379 14 5 14.518 5 17" stroke="#141B34" stroke-width="1.5" stroke-linecap="round" stroke-linejoin="round"/>
<path d="M9.89128 8.06716C9.34109 8.44625 7.89853 9.2203 8.77715 10.1889C9.20634 10.6621 9.68436 11.0005 10.2853 11.0005H13.7147C14.3156 11.0005 14.7937 10.6621 15.2229 10.1889C16.1015 9.2203 14.6589 8.44625 14.1087 8.06716C12.8185 7.17821 11.1815 7.17821 9.89128 8.06716Z" stroke="#141B34" stroke-width="1.5"/>
<path d="M13.75 3.75006C13.75 4.71656 12.9665 5.50006 12 5.50006C11.0335 5.50006 10.25 4.71656 10.25 3.75006C10.25 2.78356 11.0335 2.00006 12 2.00006C12.9665 2.00006 13.75 2.78356 13.75 3.75006Z" stroke="#141B34" stroke-width="1.5"/>
</svg>
