<svg width="24" height="24" viewBox="0 0 24 24" fill="none" xmlns="http://www.w3.org/2000/svg">
<path opacity="0.4" d="M20.5013 12.5V11.5V8C20.5013 7.17157 19.8298 6.5 19.0013 6.5C18.1729 6.5 17.5013 7.17157 17.5013 8V6C17.5013 5.17157 16.8298 4.5 16.0013 4.5C15.1729 4.5 14.5013 5.17157 14.5013 6V4C14.5013 3.17157 13.8298 2.5 13.0013 2.5C12.1729 2.5 11.5013 3.17157 11.5013 4V6C11.5013 5.17157 10.8298 4.5 10.0013 4.5C9.17291 4.5 8.50133 5.17157 8.50133 6V14L6.66197 12.5252C6.06894 12.0497 5.26705 11.7649 4.64417 12.2006C4.62314 12.2153 4.60215 12.2305 4.58125 12.2463C3.94649 12.7247 4.07183 13.6407 4.44518 14.3424C4.4959 14.4377 4.55146 14.5292 4.61264 14.6182C4.88722 15.0174 5.7377 16.2554 6.56862 17.4792L7.13223 18.3093C7.76978 19.2483 8.08856 19.7178 8.479 20.0896C9.16241 20.7403 10.0179 21.1898 10.9484 21.3872C11.4799 21.5 12.0546 21.5 13.204 21.5C15.2571 21.5 16.2836 21.5 17.1079 21.2136C18.557 20.7101 19.6969 19.5908 20.2096 18.168C20.5013 17.3586 20.5013 16.3506 20.5013 14.3347V12.5Z" fill="#141B34"/>
<path d="M20.5 9.5V14.1667C20.5 16.34 20.5 17.4267 20.1689 18.2918C19.6627 19.6148 18.6207 20.6601 17.3019 21.1679C16.4395 21.5 15.3562 21.5 13.1896 21.5C12.0534 21.5 11.4853 21.5 10.9566 21.3834C10.1499 21.2056 9.40001 20.8294 8.77419 20.2888C8.36398 19.9344 8.02311 19.4785 7.34137 18.5667L4.33738 14.5487C3.8758 13.9314 3.88907 13.0789 4.36965 12.4763C4.99772 11.6888 6.16877 11.6237 6.8797 12.3369L8.5011 13.9634V10.5V6C8.5011 5.17157 9.17267 4.5 10.0011 4.5C10.8295 4.5 11.5011 5.17157 11.5011 6M11.5011 6V4C11.5011 3.17157 12.1727 2.5 13.0011 2.5C13.8295 2.5 14.5011 3.17157 14.5011 4V6M11.5011 6V10.5M14.5011 6C14.5011 5.17157 15.1727 4.5 16.0011 4.5C16.8295 4.5 17.5011 5.17157 17.5011 6V8M14.5011 6V10.5M20.5011 10.5V8C20.5011 7.17157 19.8295 6.5 19.0011 6.5C18.1727 6.5 17.5011 7.17157 17.5011 8M17.5011 8V10.5" stroke="#141B34" stroke-width="1.5" stroke-linecap="round" stroke-linejoin="round"/>
</svg>
