<svg width="24" height="24" viewBox="0 0 24 24" fill="none" xmlns="http://www.w3.org/2000/svg">
<path opacity="0.4" fill-rule="evenodd" clip-rule="evenodd" d="M6.08847 5.54298L7.08848 4.76243C9.44787 2.92081 10.6276 2 12 2C13.3724 2 14.5521 2.92081 16.9115 4.76243L17.9115 5.54298C19.4282 6.72681 20.1865 7.31873 20.5933 8.15333C21 8.98792 21 9.95205 21 11.8803V13.9715C21 17.7562 21 19.6485 19.8284 20.8243C18.6569 22 16.7712 22 13 22H11C7.22876 22 5.34315 22 4.17157 20.8243C3 19.6485 3 17.7562 3 13.9715V11.8803C3 9.95205 3 8.98792 3.40674 8.15333C3.81348 7.31873 4.57182 6.72681 6.08847 5.54298ZM12 18C13.3807 18 14.5 16.8807 14.5 15.5C14.5 14.1193 13.3807 13 12 13C10.6193 13 9.5 14.1193 9.5 15.5C9.5 16.8807 10.6193 18 12 18Z" fill="#141B34"/>
<path d="M7.08848 4.76243L6.08847 5.54298C4.57181 6.72681 3.81348 7.31873 3.40674 8.15333C3 8.98792 3 9.95205 3 11.8803V13.9715C3 17.7562 3 19.6485 4.17157 20.8243C5.34315 22 7.22876 22 11 22H13C16.7712 22 18.6569 22 19.8284 20.8243C21 19.6485 21 17.7562 21 13.9715V11.8803C21 9.95205 21 8.98792 20.5933 8.15333C20.1865 7.31873 19.4282 6.72681 17.9115 5.54298L16.9115 4.76243C14.5521 2.92081 13.3724 2 12 2C10.6276 2 9.44787 2.92081 7.08848 4.76243Z" stroke="#141B34" stroke-width="1.5" stroke-linejoin="round"/>
<circle cx="12" cy="15.5" r="2.5" stroke="#141B34" stroke-width="1.5" stroke-linecap="round" stroke-linejoin="round"/>
</svg>
