<svg width="24" height="24" viewBox="0 0 24 24" fill="none" xmlns="http://www.w3.org/2000/svg">
<path opacity="0.4" d="M17.0002 3L16.0002 6L16.887 6.90803C17.5002 7.5 18.1705 8.49976 18.3324 9.53566C18.4693 10.4119 18.8595 11.2207 19.4484 11.8489L20.7296 13.2155C21.0625 13.5705 21.0918 14.1358 20.7978 14.5278L19.4708 16.1301C19.182 16.5153 18.6707 16.6133 18.2742 16.3595L16.5 15C16.5 15 13.4238 15.4634 12.5 13C12.5 13 9.5 16 14.0002 21H3C3 9.53566 7.5 5.5 13.5002 5C14.424 3.02925 17.0002 3 17.0002 3Z" fill="#141B34"/>
<path d="M14.0002 21C9.5 16 12.5 13 12.5 13C13.4238 15.4634 16.5 15 16.5 15L18.2742 16.3595C18.6707 16.6133 19.182 16.5153 19.4708 16.1301L20.7978 14.5278C21.0918 14.1358 21.0625 13.5705 20.7296 13.2155L19.4484 11.8489C18.8595 11.2207 18.4693 10.4119 18.3324 9.53566C18.1705 8.49976 17.5002 7.5 16.887 6.90803L16.0002 6L17.0002 3C17.0002 3 14.424 3.02925 13.5002 5C7.5 5.5 3 9.53566 3 21" stroke="#141B34" stroke-width="1.5" stroke-linecap="round" stroke-linejoin="round"/>
</svg>
