<svg width="24" height="24" viewBox="0 0 24 24" fill="none" xmlns="http://www.w3.org/2000/svg">
<path opacity="0.4" d="M8 6C8 5.63226 8 5.30037 8.00435 5H8C6.58055 5.08679 5.67665 5.32493 5.02513 5.97836C4 7.00649 4 8.66123 4 11.9707V22H9.5V19.5C9.5 18.5654 9.5 18.0981 9.70096 17.75C9.83261 17.522 10.022 17.3326 10.25 17.201C10.5981 17 11.0654 17 12 17C12.9346 17 13.4019 17 13.75 17.201C13.978 17.3326 14.1674 17.522 14.299 17.75C14.5 18.0981 14.5 18.5654 14.5 19.5V22H20V11.9707C20 8.66123 20 7.00649 18.9749 5.97836C18.3233 5.32493 17.4194 5.08679 16 5H15.9957C16 5.30037 16 5.63226 16 6C16 7.88562 16 8.82843 15.4142 9.41421C14.8284 10 13.8856 10 12 10C10.1144 10 9.17157 10 8.58579 9.41421C8 8.82843 8 7.88562 8 6Z" fill="#141B34"/>
<path d="M8 5C6.58055 5.08679 5.67665 5.32493 5.02513 5.97836C4 7.00649 4 8.66123 4 11.9707V22H20V11.9707C20 8.66123 20 7.00649 18.9749 5.97836C18.3233 5.32493 17.4194 5.08679 16 5" stroke="#141B34" stroke-width="1.5" stroke-linecap="round" stroke-linejoin="round"/>
<path d="M3 22H21" stroke="#141B34" stroke-width="1.5" stroke-linecap="round" stroke-linejoin="round"/>
<path d="M9.5 19.5V22H14.5V19.5C14.5 18.5654 14.5 18.0981 14.299 17.75C14.1674 17.522 13.978 17.3326 13.75 17.201C13.4019 17 12.9346 17 12 17C11.0654 17 10.5981 17 10.25 17.201C10.022 17.3326 9.83261 17.522 9.70096 17.75C9.5 18.0981 9.5 18.5654 9.5 19.5Z" stroke="#141B34" stroke-width="1.5" stroke-linecap="round"/>
<path d="M8.00896 13H8M12 13H11.991M16.0011 13H15.9922" stroke="#141B34" stroke-width="2" stroke-linecap="round" stroke-linejoin="round"/>
<path d="M8.58579 2.58579C8 3.17157 8 4.11438 8 6C8 7.88562 8 8.82843 8.58579 9.41421C9.17157 10 10.1144 10 12 10C13.8856 10 14.8284 10 15.4142 9.41421C16 8.82843 16 7.88562 16 6C16 4.11438 16 3.17157 15.4142 2.58579C14.8284 2 13.8856 2 12 2C10.1144 2 9.17157 2 8.58579 2.58579Z" stroke="#141B34" stroke-width="1.5" stroke-linecap="round" stroke-linejoin="round"/>
<path d="M12 4.5V6M12 6V7.5M12 6H13.5M12 6H10.5" stroke="#141B34" stroke-width="1.5" stroke-linecap="round"/>
</svg>
