<svg width="24" height="24" viewBox="0 0 24 24" fill="none" xmlns="http://www.w3.org/2000/svg">
<path opacity="0.4" d="M13.501 3.5C13.501 4.32843 12.8294 5 12.001 5C11.1726 5 10.501 4.32843 10.501 3.5C10.501 2.67157 11.1726 2 12.001 2C12.8294 2 13.501 2.67157 13.501 3.5Z" fill="#141B34"/>
<path opacity="0.4" d="M12.001 12.1534C14.4278 12.1534 16.7104 11.8086 18.7004 11.202C19.3283 11.0106 19.6422 10.9149 19.8489 11.0982C20.0556 11.2815 20.0162 11.5735 19.9373 12.1577C19.4249 15.9501 16.0426 19 12.001 19C7.95934 19 4.57705 15.9501 4.06471 12.1577C3.9858 11.5735 3.94634 11.2815 4.15306 11.0982C4.35977 10.9149 4.67369 11.0106 5.30153 11.202C7.2916 11.8086 9.57421 12.1534 12.001 12.1534Z" fill="#141B34"/>
<path d="M12.001 12.1534C14.4278 12.1534 16.7104 11.8086 18.7004 11.202C19.3283 11.0106 19.6422 10.9149 19.8489 11.0982C20.0556 11.2815 20.0162 11.5735 19.9373 12.1577C19.4249 15.9501 16.0426 19 12.001 19C7.95934 19 4.57705 15.9501 4.06471 12.1577C3.9858 11.5735 3.94634 11.2815 4.15306 11.0982C4.35977 10.9149 4.67369 11.0106 5.30153 11.202C7.2916 11.8086 9.57421 12.1534 12.001 12.1534Z" stroke="#141B34" stroke-width="1.5" stroke-linejoin="round"/>
<path d="M13.501 3.5C13.501 4.32843 12.8294 5 12.001 5C11.1726 5 10.501 4.32843 10.501 3.5C10.501 2.67157 11.1726 2 12.001 2C12.8294 2 13.501 2.67157 13.501 3.5Z" stroke="#141B34" stroke-width="1.5"/>
<path d="M4.99707 9.0296C5.29676 7.27432 6.75238 3.89219 10.4984 2.99316" stroke="#141B34" stroke-width="1.5" stroke-linecap="round" stroke-linejoin="round"/>
<path d="M19.024 9.00083C18.6989 7.50088 17.2526 3.87634 13.541 3.01172" stroke="#141B34" stroke-width="1.5" stroke-linecap="round" stroke-linejoin="round"/>
<path d="M12.001 19V21C12.001 21.5523 11.5533 22 11.001 22H9.00098H15.001" stroke="#141B34" stroke-width="1.5" stroke-linecap="round" stroke-linejoin="round"/>
<path d="M7.08868 5C6.61753 6.46159 8.10522 7.61154 10.0977 7.22833C11.8224 6.89661 11.4104 7.44878 13.5472 7.89178C16.0486 8.41038 17.001 6.94879 17.001 5.97439" stroke="#141B34" stroke-width="1.5" stroke-linecap="round" stroke-linejoin="round"/>
</svg>
