<svg width="24" height="24" viewBox="0 0 24 24" fill="none" xmlns="http://www.w3.org/2000/svg">
<path opacity="0.4" d="M3.39076 4.39319C1.99991 5.78444 1.99991 8.02361 1.99991 12.502C1.99991 16.9803 1.99991 19.2195 3.39076 20.6108L4.58284 21.4011C4.84366 21.0885 5.10641 20.7704 5.37146 20.4496C9.52685 15.419 14.2469 9.70465 20.992 14.0558C20.9946 13.57 20.9946 13.053 20.9946 12.502C20.9946 8.02361 20.9946 5.78444 19.6038 4.39319C18.2129 3.00195 15.9743 3.00195 11.4973 3.00195C7.02017 3.00195 4.78162 3.00195 3.39076 4.39319Z" fill="#141B34"/>
<path d="M11.4973 3.00195C7.02017 3.00195 4.78162 3.00195 3.39076 4.39319C1.99991 5.78444 1.99991 8.02361 1.99991 12.502C1.99991 16.9803 1.99991 19.2195 3.39076 20.6108C4.78162 22.002 7.02017 22.002 11.4973 22.002C15.9743 22.002 18.2129 22.002 19.6038 20.6108C20.9946 19.2195 20.9946 16.9803 20.9946 12.502V12.002" stroke="#141B34" stroke-width="1.5" stroke-linecap="round"/>
<path d="M4.99893 21.0019C9.20774 16.2506 13.9376 9.94941 20.9945 14.6753" stroke="#141B34" stroke-width="1.5"/>
<path d="M17.9956 1.99805V10.0062M22.0001 5.97704L13.9911 5.99193" stroke="#141B34" stroke-width="1.5" stroke-linecap="round" stroke-linejoin="round"/>
</svg>
