<svg width="24" height="24" viewBox="0 0 24 24" fill="none" xmlns="http://www.w3.org/2000/svg">
<path opacity="0.4" fill-rule="evenodd" clip-rule="evenodd" d="M20.9012 12.0333C20.8024 12.1661 20.5394 12.2452 20.0135 12.4033C18.3509 12.9029 17.3102 14.6276 17.684 16.2962C17.8073 16.8466 17.869 17.1218 17.8018 17.2728C17.7347 17.4239 17.5472 17.5297 17.1722 17.7414L15.7965 18.5179C15.4307 18.7244 15.2478 18.8276 15.0851 18.8081C14.9225 18.7886 14.7258 18.6045 14.3323 18.2361C13.0357 17.022 10.9657 17.0221 9.66911 18.2361C9.27566 18.6045 9.07893 18.7887 8.91629 18.8082C8.75364 18.8277 8.57072 18.7245 8.20487 18.518L6.82921 17.7415C6.45425 17.5298 6.26677 17.424 6.19961 17.273C6.13246 17.1219 6.19408 16.8467 6.31731 16.2963C6.69091 14.6276 5.64944 12.9029 3.98655 12.4032C3.46057 12.2452 3.19758 12.1662 3.09879 12.0333C3 11.9005 3 11.6869 3 11.2598V9.74027C3 9.31313 3 9.09956 3.0988 8.96672C3.1976 8.83388 3.46058 8.75488 3.98655 8.59687C5.64975 8.09724 6.69204 6.37248 6.31867 4.70376C6.1955 4.15327 6.13392 3.87802 6.20108 3.727C6.26823 3.57597 6.4557 3.47015 6.83064 3.25852L8.2063 2.48203C8.57212 2.27554 8.75503 2.1723 8.91765 2.19178C9.08028 2.21127 9.27705 2.39545 9.67058 2.76382C10.9665 3.97684 13.0349 3.9769 14.3308 2.76391C14.7244 2.39554 14.9212 2.21136 15.0838 2.19187C15.2464 2.17239 15.4293 2.27563 15.7951 2.48211L17.1708 3.2586C17.5457 3.47025 17.7332 3.57608 17.8004 3.72713C17.8675 3.87818 17.8059 4.15339 17.6827 4.70382C17.3091 6.37249 18.3506 8.0972 20.0135 8.59685C20.5394 8.75489 20.8024 8.83391 20.9012 8.96675C21 9.09959 21 9.31315 21 9.74027V11.2598C21 11.6869 21 11.9005 20.9012 12.0333ZM12 13.5C13.6569 13.5 15 12.1569 15 10.5C15 8.84315 13.6569 7.5 12 7.5C10.3431 7.5 9 8.84315 9 10.5C9 12.1569 10.3431 13.5 12 13.5Z" fill="#141B34"/>
<path d="M20.0135 12.4033C20.5394 12.2452 20.8024 12.1661 20.9012 12.0333C21 11.9005 21 11.6869 21 11.2598V9.74026C21 9.31314 21 9.09958 20.9012 8.96675C20.8024 8.83391 20.5394 8.75489 20.0135 8.59685C18.3506 8.09719 17.3091 6.37249 17.6827 4.70382C17.8059 4.15339 17.8675 3.87817 17.8004 3.72712C17.7332 3.57607 17.5457 3.47025 17.1708 3.2586L15.7951 2.48211C15.4293 2.27562 15.2464 2.17238 15.0838 2.19187C14.9212 2.21135 14.7244 2.39553 14.3308 2.7639C13.0349 3.97689 10.9665 3.97684 9.67058 2.76382C9.27705 2.39545 9.08028 2.21127 8.91765 2.19178C8.75503 2.17229 8.57212 2.27554 8.2063 2.48202L6.83064 3.25851C6.4557 3.47015 6.26823 3.57596 6.20108 3.72699C6.13392 3.87802 6.1955 4.15326 6.31867 4.70375C6.69204 6.37248 5.64975 8.09724 3.98655 8.59687C3.46058 8.75487 3.1976 8.83387 3.0988 8.96671C3 9.09955 3 9.31312 3 9.74026V11.2598C3 11.6869 3 11.9005 3.09879 12.0333C3.19758 12.1662 3.46057 12.2452 3.98655 12.4032C5.64944 12.9029 6.69091 14.6276 6.31731 16.2963C6.19408 16.8467 6.13246 17.1219 6.19961 17.273C6.26677 17.424 6.45425 17.5298 6.82921 17.7415L8.20487 18.518C8.57072 18.7245 8.75364 18.8277 8.91629 18.8082C9.07893 18.7887 9.27566 18.6045 9.66911 18.2361C10.9657 17.0221 13.0357 17.022 14.3323 18.2361C14.7258 18.6044 14.9225 18.7886 15.0851 18.8081C15.2478 18.8276 15.4307 18.7244 15.7965 18.5179L17.1722 17.7414C17.5472 17.5297 17.7347 17.4239 17.8018 17.2728C17.869 17.1218 17.8073 16.8466 17.684 16.2962C17.3102 14.6276 18.3509 12.9029 20.0135 12.4033Z" stroke="#141B34" stroke-width="1.5" stroke-linecap="round"/>
<path d="M15 10.5C15 12.1569 13.6569 13.5 12 13.5C10.3431 13.5 9 12.1569 9 10.5C9 8.84315 10.3431 7.5 12 7.5C13.6569 7.5 15 8.84315 15 10.5Z" stroke="#141B34" stroke-width="1.5"/>
<path d="M22 18C22 18.93 22 19.395 21.8978 19.7765C21.6204 20.8117 20.8117 21.6204 19.7765 21.8978C19.395 22 18.93 22 18 22H6C5.07003 22 4.60504 22 4.22354 21.8978C3.18827 21.6204 2.37962 20.8117 2.10222 19.7765C2 19.395 2 18.93 2 18" stroke="#141B34" stroke-width="1.5" stroke-linecap="round"/>
</svg>
