<svg width="24" height="24" viewBox="0 0 24 24" fill="none" xmlns="http://www.w3.org/2000/svg">
<path d="M19 9.5V8.3C18.992 5.49713 18.9051 4.0112 17.967 3.05442C16.9332 2 15.2694 2 11.9416 2L10.0592 2C6.73147 2 5.0676 2 4.0338 3.05442C3 4.10883 3 5.80589 3 9.2L3 13.8C3 17.1941 3 18.8912 4.0338 19.9456C4.95155 20.8816 6.36586 20.9867 9 20.9985" stroke="#141B34" stroke-width="1.5" stroke-linecap="round"/>
<path opacity="0.4" d="M3.96482 3.02507C3 4.05019 3 5.70011 3 8.99994V13.9999C3 17.2998 3 18.9497 3.96482 19.9748C4.92965 20.9999 6.48251 20.9999 9.58823 20.9999H12.4118C13.4055 20.9999 14.2402 20.9999 14.9475 20.9664C12.7229 20.694 11 18.7982 11 16.4999C11 14.0147 13.0147 11.9999 15.5 11.9999C16.9136 11.9999 18.175 12.6518 19 13.6713V8.99994C19 5.70011 19 4.05019 18.0352 3.02507C17.0704 1.99994 15.5175 1.99994 12.4118 1.99994H9.58824C6.48251 1.99994 4.92965 1.99994 3.96482 3.02507Z" fill="#141B34"/>
<path d="M18.6753 19.6886L21 22M20 16.5C20 14.0147 17.9853 12 15.5 12C13.0147 12 11 14.0147 11 16.5C11 18.9853 13.0147 21 15.5 21C17.9853 21 20 18.9853 20 16.5Z" stroke="#141B34" stroke-width="1.5" stroke-linecap="round" stroke-linejoin="round"/>
<path d="M7 7H15" stroke="#141B34" stroke-width="1.5" stroke-linecap="round"/>
<path d="M7 11H10" stroke="#141B34" stroke-width="1.5" stroke-linecap="round"/>
</svg>
