<svg width="24" height="24" viewBox="0 0 24 24" fill="none" xmlns="http://www.w3.org/2000/svg">
<path opacity="0.4" d="M18.8631 15.3898C18.5458 13.8594 17.7088 13.3973 16.6506 11.4256C15.8715 9.97409 16.905 8.62079 18.3104 8.06911C18.1145 7.75988 18.001 7.39319 18.001 7C18.001 6.63571 18.0984 6.29417 18.2686 6H18.1849C11.9988 7.42525 10.2865 13.9978 11.2527 17.998C13.1636 18.0251 15.0777 17.7788 17.4145 17.3246C18.341 17.1445 19.0547 16.314 18.8631 15.3898Z" fill="#141B34"/>
<path d="M4.00098 7C5.10555 7 6.00098 6.10457 6.00098 5C6.00098 3.89543 5.10555 3 4.00098 3C2.89641 3 2.00098 3.89543 2.00098 5C2.00098 6.10457 2.89641 7 4.00098 7Z" stroke="#141B34" stroke-width="1.5"/>
<path d="M20.001 9C21.1055 9 22.001 8.10457 22.001 7C22.001 5.89543 21.1055 5 20.001 5C18.8964 5 18.001 5.89543 18.001 7C18.001 8.10457 18.8964 9 20.001 9Z" stroke="#141B34" stroke-width="1.5"/>
<path d="M18.0309 6.04492C15.666 6.47929 10.2122 9.78535 11.0519 17.2385M18.2531 8.0892C17.0381 8.66181 15.1272 9.88778 17.6003 12.9129C18.3807 13.8676 19.2878 15.88 18.953 16.8691" stroke="#141B34" stroke-width="1.5" stroke-linecap="round" stroke-linejoin="round"/>
<path d="M4.96794 17C1.44424 11.5 8.99087 11 4.96022 7M6.37963 5C7.48371 5 10.001 6 10.001 8" stroke="#141B34" stroke-width="1.5" stroke-linecap="round"/>
<path d="M5.00098 17C10.2182 18.4523 13.3294 18.2088 19.001 17" stroke="#141B34" stroke-width="1.5" stroke-linecap="round" stroke-linejoin="round"/>
<path d="M4.00098 20C9.96354 21.4523 13.5192 21.2088 20.001 20" stroke="#141B34" stroke-width="1.5" stroke-linecap="round" stroke-linejoin="round"/>
</svg>
