<svg width="25" height="24" viewBox="0 0 25 24" fill="none" xmlns="http://www.w3.org/2000/svg">
<path opacity="0.4" d="M3.5 9.99303V22H21.5V9.99303C21.5 9.44337 21.5 9.16855 21.2961 8.96696C21.0923 8.76537 20.7399 8.69181 20.0353 8.5447L13.0353 7.0833C12.7693 7.02777 12.6363 7 12.5 7C12.3637 7 12.2307 7.02777 11.9647 7.0833L4.96471 8.5447C4.26006 8.69181 3.90774 8.76537 3.70387 8.96696C3.5 9.16855 3.5 9.44337 3.5 9.99303Z" fill="#141B34"/>
<path d="M3.5 22V5.9907C3.5 5.25783 3.5 4.8914 3.70387 4.62261C3.90774 4.35383 4.26006 4.25575 4.96471 4.0596L11.9647 2.11106C12.2307 2.03702 12.3637 2 12.5 2C12.6363 2 12.7693 2.03702 13.0353 2.11106L20.0353 4.0596C20.7399 4.25575 21.0923 4.35383 21.2961 4.62261C21.5 4.8914 21.5 5.25783 21.5 5.9907V22" stroke="#141B34" stroke-width="1.5"/>
<path d="M2.5 22H22.5" stroke="#141B34" stroke-width="1.5" stroke-linecap="round"/>
<path d="M3.5 9L12.0661 7.04882C12.3519 6.98373 12.6481 6.98373 12.9339 7.04882L21.5 9" stroke="#141B34" stroke-width="1.5"/>
<path d="M20.15 12.7L21.5 13M16.1 11.8L17 12M13.4 11.2L12.5 11L11.6 11.2M4.85 12.7L3.5 13M8.9 11.8L8 12" stroke="#141B34" stroke-width="1.5" stroke-linecap="round"/>
<path d="M12.5 7V22" stroke="#141B34" stroke-width="1.5"/>
</svg>
