<svg width="24" height="24" viewBox="0 0 24 24" fill="none" xmlns="http://www.w3.org/2000/svg">
<path opacity="0.4" d="M10.2247 22H13.7869C14.5053 22 15.138 21.5763 15.3411 20.9591C15.7228 19.7991 15.3711 18.5704 14.7712 17.487C14.1962 16.4482 13.9731 14.8764 14.9984 14H9.04299C9.9953 14.8804 9.76585 16.427 9.21486 17.4437C8.61255 18.555 8.26479 19.8152 8.68423 20.9921C8.89821 21.5925 9.52108 22 10.2247 22Z" fill="#141B34"/>
<path d="M10.2249 22H13.7871C14.5055 22 15.1382 21.5763 15.3413 20.9591C15.723 19.7991 15.3713 18.5704 14.7714 17.487C14.1964 16.4482 13.9733 14.8764 14.9986 14H9.04318C9.99549 14.8804 9.76605 16.427 9.21506 17.4437C8.61274 18.555 8.26498 19.8152 8.68443 20.9921C8.89841 21.5925 9.52128 22 10.2249 22Z" stroke="#141B34" stroke-width="1.5" stroke-linecap="round" stroke-linejoin="round"/>
<path d="M8.5002 14H15.5002" stroke="#141B34" stroke-width="1.5" stroke-linecap="round" stroke-linejoin="round"/>
<path d="M14.5936 10H9.40637C7.51043 10 6.56247 10 6.16052 9.45157C5.75858 8.90313 6.14759 8.14046 6.92562 6.61512L8.31723 3.88683C8.78446 2.97081 9.01808 2.5128 9.46755 2.2564C9.91703 2 10.4863 2 11.6249 2H12.3751C13.5137 2 14.083 2 14.5324 2.2564C14.9819 2.5128 15.2155 2.97081 15.6828 3.88683L17.0744 6.61512C17.8524 8.14046 18.2414 8.90313 17.8395 9.45157C17.4375 10 16.4896 10 14.5936 10Z" stroke="#141B34" stroke-width="1.5" stroke-linecap="round" stroke-linejoin="round"/>
<path d="M12.0002 10L12.0002 14" stroke="#141B34" stroke-width="1.5" stroke-linecap="round" stroke-linejoin="round"/>
<path d="M9.0002 19H15.0002" stroke="#141B34" stroke-width="1.5" stroke-linecap="round" stroke-linejoin="round"/>
</svg>
