<svg width="24" height="24" viewBox="0 0 24 24" fill="none" xmlns="http://www.w3.org/2000/svg">
    <path class="pr-icon-duotone-secondary" d="M12 7C8.68629 7 6 9.68629 6 13L18 13C18 9.68629 15.3137 7 12 7Z"/>
    <path d="M12 7C8.68629 7 6 9.68629 6 13L18 13C18 9.68629 15.3137 7 12 7Z" stroke="currentColor" stroke-width="1.5" stroke-linejoin="round"/>
    <path d="M12 16C10.3431 16 9 14.6569 9 13H15C15 14.6569 13.6569 16 12 16Z" stroke="currentColor" stroke-width="1.5" stroke-linejoin="round"/>
    <path d="M5 13H19" stroke="currentColor" stroke-width="1.5" stroke-linecap="round" stroke-linejoin="round"/>
    <path d="M12 7V2" stroke="currentColor" stroke-width="1.5" stroke-linecap="round" stroke-linejoin="round"/>
    <path d="M12.0002 20V22M15 19L17 20.4999M9 19L7 20.5" stroke="currentColor" stroke-width="1.5" stroke-linecap="round" stroke-linejoin="round"/>
</svg>
