<svg width="24" height="24" viewBox="0 0 24 24" fill="none" xmlns="http://www.w3.org/2000/svg">
<path opacity="0.4" fill-rule="evenodd" clip-rule="evenodd" d="M2.75098 7.9397C2.85504 5.83998 3.16635 4.53085 4.09762 3.59957C5.0289 2.6683 6.33803 2.35699 8.43775 2.25293H16.0642C18.1639 2.35699 19.4731 2.6683 20.4044 3.59957C21.3356 4.53085 21.6469 5.83998 21.751 7.9397V15.5661C21.6469 17.6658 21.3356 18.975 20.4044 19.9063C19.4731 20.8375 18.1639 21.1488 16.0642 21.2529H8.43774C6.33803 21.1488 5.0289 20.8375 4.09762 19.9063C3.16635 18.975 2.85504 17.6658 2.75098 15.5661V7.9397ZM9.75329 17.1995C8.8063 17.1579 8.02812 16.4533 7.90162 15.5539C7.81907 14.967 7.75098 14.3655 7.75098 13.7529C7.75098 13.1403 7.81907 12.5388 7.90162 11.9519C8.02812 11.0525 8.8063 10.3479 9.75329 10.3063C10.5502 10.2712 11.3596 10.2529 12.251 10.2529C13.1424 10.2529 13.9518 10.2712 14.7487 10.3063C15.6957 10.3479 16.4739 11.0525 16.6004 11.9519C16.6829 12.5388 16.751 13.1403 16.751 13.7529C16.751 14.3655 16.6829 14.967 16.6004 15.5539C16.4739 16.4533 15.6957 17.1579 14.7487 17.1995C13.9518 17.2346 13.1424 17.2529 12.251 17.2529C11.3596 17.2529 10.5502 17.2346 9.75329 17.1995Z" fill="#141B34"/>
<path d="M2.75098 7.9397C2.85504 5.83998 3.16635 4.53085 4.09762 3.59957C5.0289 2.6683 6.33803 2.35699 8.43775 2.25293M21.751 7.9397C21.6469 5.83998 21.3356 4.53085 20.4044 3.59957C19.4731 2.6683 18.1639 2.35699 16.0642 2.25293M16.0642 21.2529C18.1639 21.1488 19.4731 20.8375 20.4044 19.9063C21.3356 18.975 21.6469 17.6658 21.751 15.5661M8.43774 21.2529C6.33803 21.1488 5.0289 20.8375 4.09762 19.9063C3.16635 18.975 2.85504 17.6658 2.75098 15.5661" stroke="#141B34" stroke-width="1.5" stroke-linecap="round" stroke-linejoin="round"/>
<path d="M9.75094 10.3121C9.75094 9.47049 9.61875 8.17106 10.127 7.41338C11.2494 5.73986 13.6309 5.96216 14.4709 7.59566C14.8832 8.39738 14.7278 9.51824 14.7469 10.3121M9.75094 10.3121C8.45361 10.3121 8.18937 11.0548 7.99096 11.6374C7.80781 12.2927 7.62136 13.8574 7.90696 15.5719C8.12063 16.6641 8.95573 17.1444 9.67391 17.2054C10.3607 17.2636 13.2606 17.2414 14.1001 17.2414C15.401 17.2414 16.2133 16.9554 16.5949 15.6447C16.7781 14.6253 16.8282 12.8024 16.5229 11.6374C16.1185 10.4723 15.3032 10.3121 14.7469 10.3121M9.75094 10.3121C11.1245 10.2577 13.9616 10.2684 14.7469 10.3121" stroke="#141B34" stroke-width="1.5" stroke-linecap="round"/>
</svg>
