<svg width="24" height="24" viewBox="0 0 24 24" fill="none" xmlns="http://www.w3.org/2000/svg">
<path opacity="0.4" d="M14.0809 19.9819C12.4202 20.0108 10.7695 20.0051 9.10469 19.9647C5.95619 19.8883 4.38194 19.8501 3.25082 18.7539C2.11969 17.6576 2.087 16.1777 2.02163 13.2178C2.00061 12.2661 2.0006 11.3201 2.02162 10.3684C2.06666 8.32941 2.09618 6.99275 2.47997 6L12.0059 10.8276L21.5318 6C21.9156 6.99275 21.9451 8.32941 21.9901 10.3684C22.0112 11.3201 22.0112 12.2661 21.9901 13.2178C21.9771 13.806 21.9654 14.3357 21.9462 14.8155C21.9124 14.6988 21.8644 14.5852 21.8022 14.4773C21.702 14.3039 21.5354 14.1372 21.202 13.8039C20.8687 13.4705 20.702 13.3039 20.5286 13.2037C20.0581 12.9321 19.4784 12.9321 19.0078 13.2037C18.8344 13.3039 18.6678 13.4705 18.3344 13.8039L15.0266 17.1117C14.5031 17.6352 14.3774 18.3698 14.254 19.0912C14.2216 19.2805 14.1894 19.4689 14.1502 19.6523C14.1245 19.7722 14.1011 19.8818 14.0809 19.9819Z" fill="#141B34"/>
<path d="M2.00586 5.5L8.91888 9.41697C11.4675 10.861 12.5443 10.861 15.0929 9.41697L22.0059 5.5" stroke="#141B34" stroke-width="1.5" stroke-linejoin="round"/>
<path d="M22.0012 10.0284C21.9358 6.96114 21.9031 5.42749 20.7714 4.29141C19.6396 3.15532 18.0645 3.11574 14.9142 3.03659C12.9727 2.98781 11.0502 2.9878 9.10862 3.03658C5.95838 3.11573 4.38326 3.1553 3.2515 4.29139C2.11975 5.42748 2.08704 6.96113 2.02163 10.0284C2.0006 11.0147 2.0006 11.9951 2.02163 12.9814C2.08705 16.0487 2.11975 17.5823 3.25151 18.7184C4.38326 19.8545 5.95838 19.8941 9.10863 19.9732C9.57688 19.985 10.0441 19.9939 10.5106 20" stroke="#141B34" stroke-width="1.5" stroke-linecap="round" stroke-linejoin="round"/>
<path d="M20.8583 13.4393L21.5506 14.1317C22.1364 14.7175 22.1364 15.6672 21.5506 16.253L17.9232 19.9487C17.6379 20.234 17.2729 20.4264 16.8762 20.5005L14.6281 20.9885C14.2731 21.0656 13.957 20.7504 14.0331 20.3953L14.5116 18.1599C14.5857 17.7632 14.778 17.3982 15.0634 17.1129L18.737 13.4393C19.3227 12.8536 20.2725 12.8536 20.8583 13.4393Z" stroke="#141B34" stroke-width="1.5" stroke-linecap="round" stroke-linejoin="round"/>
</svg>
