<svg width="24" height="24" viewBox="0 0 24 24" fill="none" xmlns="http://www.w3.org/2000/svg">
<path opacity="0.4" d="M14.9012 19.9647C12.9607 20.0118 11.0393 20.0118 9.09883 19.9647C5.95033 19.8883 4.37608 19.8501 3.24496 18.7539C2.11383 17.6576 2.08114 16.1777 2.01577 13.2178C1.99475 12.2661 1.99474 11.3201 2.01576 10.3684C2.0608 8.32941 2.09032 6.99275 2.47411 6L12 10.8276L21.5259 6C21.9097 6.99275 21.9392 8.32941 21.9842 10.3684C22.0053 11.3201 22.0053 12.2661 21.9842 13.2178C21.9552 14.5322 21.9326 15.5547 21.8174 16.3814C21.3508 14.997 20.0418 14 18.5 14C17.5463 14 16.6818 14.3814 16.0505 15C15.4022 15.6353 15 16.5207 15 17.5C15 18.4471 15.3762 19.3063 15.9872 19.9364C15.6474 19.9466 15.286 19.9554 14.9012 19.9647Z" fill="#141B34"/>
<path d="M21.9928 11.5C22.0047 10.6743 22.0019 10.8514 21.9842 10.0244C21.9189 6.95886 21.8862 5.42609 20.7551 4.29066C19.6239 3.15523 18.0497 3.11568 14.9012 3.03657C12.9607 2.98781 11.0393 2.98781 9.09882 3.03656C5.95033 3.11566 4.37608 3.15521 3.24495 4.29065C2.11382 5.42608 2.08114 6.95885 2.01576 10.0244C1.99474 11.0101 1.99475 11.9899 2.01577 12.9756C2.08114 16.0412 2.11383 17.5739 3.24496 18.7094C4.37608 19.8448 5.95033 19.8843 9.09883 19.9634C10.0691 19.9878 11.0345 20 12 20" stroke="#141B34" stroke-width="1.5" stroke-linecap="round" stroke-linejoin="round"/>
<path d="M2 5.5L8.91302 9.42462C11.4387 10.8585 12.5613 10.8585 15.087 9.42462L22 5.5" stroke="#141B34" stroke-width="1.5" stroke-linejoin="round"/>
<path d="M16.0505 15C15.4022 15.6353 15 16.5207 15 17.5C15 19.433 16.567 21 18.5 21C19.4793 21 20.3647 20.5978 21 19.9495M16.0505 15C16.6818 14.3814 17.5463 14 18.5 14C20.433 14 22 15.567 22 17.5C22 18.4537 21.6186 19.3182 21 19.9495M16.0505 15L21 19.9495" stroke="#141B34" stroke-width="1.5"/>
</svg>
