<svg width="24" height="24" viewBox="0 0 24 24" fill="none" xmlns="http://www.w3.org/2000/svg">
<path opacity="0.4" d="M4.02558 3.93995L5.25345 3.22309C6.59128 2.44204 7.26392 2.04934 8 2.0212L8.01238 2.02076C8.75332 1.99657 9.44884 2.34462 10.8399 3.04072L14.1715 4.70792C14.9964 5.12074 15.004 5.12252 15.9214 5.12252H18C19.8856 5.12252 20.8284 5.12252 21.4142 5.72508C22 6.32765 22 7.29745 22 9.23707V17.3816C22 18.0374 21.581 18.5889 21.0037 18.795C21.1309 18.4267 21.2 18.0312 21.2 17.6196C21.2 15.6314 19.5882 14.0196 17.6 14.0196C15.6118 14.0196 14 15.6314 14 17.6196C14 17.8796 14.0276 18.1331 14.0799 18.3775L11 18.1334C10.8135 18.0401 10.6253 17.9377 10.4349 17.8342C9.81874 17.4991 9.18005 17.1518 8.50487 17.059C7.49945 16.9208 6.68141 17.4001 5.84342 17.891L5.71987 17.9633C4.42151 18.7214 3.77226 19.1004 3.242 19.0052C2.88916 18.9418 2.57001 18.7506 2.34226 18.4663C2 18.0389 2 17.271 2 15.7353V7.51831C2 6.34951 2 5.76511 2.27164 5.28522C2.54329 4.80534 3.03739 4.51687 4.02558 3.93995Z" fill="#141B34"/>
<path d="M22 12.0838V9.23707C22 7.29745 22 6.32765 21.4142 5.72508C20.8284 5.12252 19.8856 5.12252 18 5.12252H15.9214C15.004 5.12252 14.9964 5.12074 14.1715 4.70792L10.8399 3.04072C9.44884 2.34462 8.75332 1.99657 8.01238 2.02076C7.27143 2.04495 6.59877 2.43766 5.25345 3.22309L4.02558 3.93995C3.03739 4.51687 2.54329 4.80534 2.27164 5.28522C2 5.76511 2 6.34951 2 7.51831V15.7353C2 17.271 2 18.0389 2.34226 18.4663C2.57001 18.7506 2.88916 18.9418 3.242 19.0052C3.77226 19.1004 4.42148 18.7214 5.71987 17.9633C6.60156 17.4486 7.45011 16.914 8.50487 17.059C9.38869 17.1804 10.21 17.7381 11 18.1334" stroke="#141B34" stroke-width="1.5" stroke-linecap="round" stroke-linejoin="round"/>
<path d="M8 2.01958V17.0196" stroke="#141B34" stroke-width="1.5" stroke-linejoin="round"/>
<path d="M15 5.01958V11.0196" stroke="#141B34" stroke-width="1.5" stroke-linecap="round" stroke-linejoin="round"/>
<path d="M20.105 20.1569L21.9502 21.9799M21.1672 17.6196C21.1672 19.5863 19.5733 21.1806 17.6071 21.1806C15.6409 21.1806 14.0469 19.5863 14.0469 17.6196C14.0469 15.6529 15.6409 14.0586 17.6071 14.0586C19.5733 14.0586 21.1672 15.6529 21.1672 17.6196Z" stroke="#141B34" stroke-width="1.5" stroke-linecap="round"/>
</svg>
