<svg width="24" height="24" viewBox="0 0 24 24" fill="none" xmlns="http://www.w3.org/2000/svg">
<path d="M22 10V9.21749C22 7.27787 22 6.30807 21.4142 5.7055C20.8284 5.10294 19.8856 5.10294 18 5.10294H15.9214C15.004 5.10294 14.9964 5.10116 14.1715 4.68834L10.8399 3.02114C9.44884 2.32504 8.75332 1.97699 8.01238 2.00118C7.27143 2.02537 6.59877 2.41808 5.25345 3.20351L4.02558 3.92037C3.03739 4.49729 2.54329 4.78576 2.27164 5.26564C2 5.74553 2 6.32993 2 7.49873V15.7157C2 17.2514 2 18.0193 2.34226 18.4467C2.57001 18.731 2.88916 18.9222 3.242 18.9856C3.77226 19.0808 4.42148 18.7018 5.71987 17.9437C6.60156 17.429 7.45011 16.8944 8.50487 17.0394C9.38869 17.1608 10.21 17.7185 11 18.1138" stroke="#141B34" stroke-width="1.5" stroke-linecap="round" stroke-linejoin="round"/>
<path d="M8 2L8 17" stroke="#141B34" stroke-width="1.5" stroke-linejoin="round"/>
<path d="M15 5V9.5" stroke="#141B34" stroke-width="1.5" stroke-linecap="round" stroke-linejoin="round"/>
<path opacity="0.4" d="M4.02558 3.92037L5.25345 3.20351C6.59128 2.42246 7.26392 2.02976 8 2.00162L8.01238 2.00118C8.75332 1.97699 9.44884 2.32504 10.8399 3.02114L14.1715 4.68834C14.5766 4.89106 14.7846 4.99467 15 5.04761C15.2232 5.10248 15.4545 5.10294 15.9214 5.10294H18C19.8856 5.10294 20.8284 5.10294 21.4142 5.7055C22 6.30807 22 7.27787 22 9.21749V15.4853L21.9284 15.5534C21.8729 15.274 21.7839 14.9864 21.6571 14.6898C20.9555 13.0496 19.2713 12 17.5001 12C15.7289 12 14.0447 13.0496 13.3431 14.6898C12.7754 16.0171 12.9654 17.1637 13.5251 18.1902L11 18.1138C10.8135 18.0205 10.6253 17.9181 10.4349 17.8146C9.81874 17.4795 9.18005 17.1322 8.50487 17.0394C7.49945 16.9012 6.68141 17.3805 5.84342 17.8714C5.8023 17.8955 5.76112 17.9197 5.71987 17.9437C4.42151 18.7018 3.77226 19.0808 3.242 18.9856C2.88916 18.9222 2.57001 18.731 2.34226 18.4467C2 18.0193 2 17.2514 2 15.7157V7.49873C2 6.32993 2 5.74553 2.27164 5.26564C2.54329 4.78576 3.03739 4.49729 4.02558 3.92037Z" fill="#141B34"/>
<path d="M18.3083 21.6835C18.0915 21.8865 17.8017 22 17.5001 22C17.1985 22 16.9087 21.8865 16.6919 21.6835C14.7063 19.813 12.0455 17.7235 13.3431 14.6898C14.0447 13.0496 15.7289 12 17.5001 12C19.2713 12 20.9555 13.0496 21.6571 14.6898C22.9531 17.7196 20.2988 19.8194 18.3083 21.6835Z" stroke="#141B34" stroke-width="1.5"/>
<path d="M17.5 16.5H17.509" stroke="#141B34" stroke-width="2" stroke-linecap="round" stroke-linejoin="round"/>
</svg>
