<svg width="24" height="24" viewBox="0 0 24 24" fill="none" xmlns="http://www.w3.org/2000/svg">
<path opacity="0.4" d="M3.16288 13.9796C4.32772 13.7566 6.47575 11.8124 5.99853 8C7.46442 7.38677 9.60915 7 11.9985 7C14.3879 7 16.5326 7.38677 17.9985 8C17.9985 10.5417 18.601 12.1083 19.3257 13.0006C18.7761 13.0158 18.3079 13.2193 17.964 13.4744C17.7046 13.6668 17.5749 13.763 17.4985 13.763C17.4222 13.763 17.2925 13.6668 17.0331 13.4744C16.4004 13.0051 15.3471 12.7105 14.1404 13.4416C12.8415 14.2285 12.3668 16.4992 14.2536 18.7638C13.5275 18.9185 12.7729 19 11.9985 19C8.21408 19 4.90219 17.0526 3.08563 14.1422C3.04565 14.0781 3.08872 13.9938 3.16288 13.9796Z" fill="#141B34"/>
<path d="M14.1419 13.4419C15.3487 12.7108 16.4019 13.0054 17.0346 13.4747C17.2941 13.6671 17.4238 13.7633 17.5001 13.7633C17.5764 13.7633 17.7061 13.6671 17.9656 13.4747C18.5983 13.0054 19.6515 12.7108 20.8583 13.4419C22.442 14.4013 22.8003 17.5666 19.1473 20.2371C18.4515 20.7457 18.1036 21 17.5001 21C16.8966 21 16.5487 20.7457 15.8529 20.2371C12.1999 17.5666 12.5582 14.4013 14.1419 13.4419Z" stroke="#141B34" stroke-width="1.5" stroke-linecap="round"/>
<path d="M6.00006 8C7.46595 7.38677 9.61067 7 12.0001 7C14.3895 7 16.5342 7.38677 18.0001 8" stroke="#141B34" stroke-width="1.5" stroke-linecap="round"/>
<path d="M6.00006 9C6.00006 12.2571 4.16886 13.9419 3.05737 13.9985C3.02159 14.0003 2.98897 13.9808 2.97145 13.9496C2.15662 12.4966 2.00006 10.7879 2.00006 9C2.00006 5.68629 2.89549 3 4.00006 3C5.10463 3 6.00006 5.68629 6.00006 9Z" stroke="#141B34" stroke-width="1.5" stroke-linecap="round" stroke-linejoin="round"/>
<path d="M18.0601 10.02C18.0095 9.66713 18.0001 9.40053 18.0001 9C18.0001 5.68629 18.8955 3 20.0001 3C21.1047 3 22.0001 5.68629 22.0001 9C22.0001 9.38088 22.0001 10.14 21.9481 10.52" stroke="#141B34" stroke-width="1.5" stroke-linecap="round" stroke-linejoin="round"/>
<path d="M11.0001 19C8.04006 18.78 4.74006 17.04 3.00006 14" stroke="#141B34" stroke-width="1.5" stroke-linecap="round"/>
</svg>
