<svg width="24" height="24" viewBox="0 0 24 24" fill="none" xmlns="http://www.w3.org/2000/svg">
<path opacity="0.4" fill-rule="evenodd" clip-rule="evenodd" d="M3.89124 3.89124C2.5 5.28249 2.5 7.52166 2.5 12C2.5 16.4783 2.5 18.7175 3.89124 20.1088C5.28249 21.5 7.52166 21.5 12 21.5C16.4783 21.5 18.7175 21.5 20.1088 20.1088C21.5 18.7175 21.5 16.4783 21.5 12C21.5 7.52166 21.5 5.28249 20.1088 3.89124C18.7175 2.5 16.4783 2.5 12 2.5C7.52166 2.5 5.28249 2.5 3.89124 3.89124ZM18 15C18.5523 15 19 13.8807 19 12.5C19 11.1193 18.5523 10 18 10C17.4477 10 17 11.1193 17 12.5C17 13.8807 17.4477 15 18 15ZM15 12.5C15 13.8807 14.3284 15 13.5 15C12.6716 15 12 13.8807 12 12.5C12 11.1193 12.6716 10 13.5 10C14.3284 10 15 11.1193 15 12.5ZM7.5 15C8.88071 15 10 13.8807 10 12.5C10 11.1193 8.88071 10 7.5 10C6.11929 10 5 11.1193 5 12.5C5 13.8807 6.11929 15 7.5 15Z" fill="#141B34"/>
<circle cx="7.5" cy="12.5" r="2.5" stroke="#141B34" stroke-width="1.5"/>
<ellipse cx="13.5" cy="12.5" rx="1.5" ry="2.5" stroke="#141B34" stroke-width="1.5"/>
<ellipse cx="18" cy="12.5" rx="1" ry="2.5" stroke="#141B34" stroke-width="1.5"/>
<path d="M2.5 12C2.5 7.52166 2.5 5.28249 3.89124 3.89124C5.28249 2.5 7.52166 2.5 12 2.5C16.4783 2.5 18.7175 2.5 20.1088 3.89124C21.5 5.28249 21.5 7.52166 21.5 12C21.5 16.4783 21.5 18.7175 20.1088 20.1088C18.7175 21.5 16.4783 21.5 12 21.5C7.52166 21.5 5.28249 21.5 3.89124 20.1088C2.5 18.7175 2.5 16.4783 2.5 12Z" stroke="#141B34" stroke-width="1.5" stroke-linejoin="round"/>
</svg>
