<svg width="24" height="24" viewBox="0 0 24 24" fill="none" xmlns="http://www.w3.org/2000/svg">
<path opacity="0.4" d="M14.1706 21.3905C18.3536 21.1125 21.6856 17.7332 21.9598 13.4909C22.0134 12.6607 22.0134 11.8009 21.9598 10.9707C21.6856 6.72836 18.3536 3.34912 14.1706 3.07106C12.7435 2.9762 11.2536 2.97639 9.8294 3.07106C5.64639 3.34912 2.31441 6.72836 2.04024 10.9707C1.98659 11.8009 1.98659 12.6607 2.04024 13.4909C2.1401 15.036 2.82343 16.4666 3.62791 17.6746C4.09501 18.5203 3.78674 19.5758 3.30021 20.4978C2.94941 21.1626 2.77401 21.495 2.91484 21.7351C3.05568 21.9752 3.37026 21.9829 3.99943 21.9982C5.24367 22.0285 6.08268 21.6757 6.74868 21.1846C7.1264 20.9061 7.31527 20.7668 7.44544 20.7508C7.5756 20.7348 7.83177 20.8403 8.34401 21.0513C8.8044 21.2409 9.33896 21.3579 9.8294 21.3905C11.2536 21.4852 12.7435 21.4854 14.1706 21.3905Z" fill="#141B34"/>
<path d="M11.5 2.99998C10.9383 3.00835 10.3789 3.03081 9.8294 3.06734C5.64639 3.3454 2.31441 6.72464 2.04024 10.967C1.98659 11.7972 1.98659 12.6569 2.04024 13.4871C2.1401 15.0323 2.82343 16.4629 3.62791 17.6709C4.09501 18.5166 3.78674 19.5721 3.30021 20.4941C2.94941 21.1589 2.77401 21.4912 2.91484 21.7314C3.05568 21.9715 3.37026 21.9791 3.99943 21.9945C5.24367 22.0247 6.08268 21.672 6.74868 21.1809C7.1264 20.9024 7.31527 20.7631 7.44544 20.7471C7.5756 20.7311 7.83177 20.8366 8.34401 21.0475C8.8044 21.2372 9.33896 21.3542 9.8294 21.3868C11.2536 21.4815 12.7435 21.4817 14.1706 21.3868C18.3536 21.1087 21.6856 17.7295 21.9598 13.4871C22.0134 12.6569 22.0134 11.7972 21.9598 10.967C21.9038 10.1011 21.7205 9.2712 21.4285 8.49626" stroke="#141B34" stroke-width="1.5" stroke-linecap="round" stroke-linejoin="round"/>
<path d="M14 5.99998C14 5.99998 15 5.99998 16 7.99998C16 7.99998 19.1765 2.99998 22 1.99998" stroke="#141B34" stroke-width="1.5" stroke-linecap="round" stroke-linejoin="round"/>
<path d="M11.9953 12.5H12.0043M15.9908 12.5H15.9998M7.99982 12.5H8.00879" stroke="#141B34" stroke-width="2" stroke-linecap="round" stroke-linejoin="round"/>
</svg>
