<svg width="24" height="24" viewBox="0 0 24 24" fill="none" xmlns="http://www.w3.org/2000/svg">
<path opacity="0.4" d="M7 15V7C7 4.23858 9.23858 2 12 2C14.7614 2 17 4.23858 17 7V15C17 16.6547 16.6547 17 15 17H9C7.34533 17 7 16.6547 7 15Z" fill="#141B34"/>
<path d="M20 8V12M20 22V20M4 8V12M4 22V20M4 12V20M4 12H7M20 12V20M20 12H17M20 20H4" stroke="#141B34" stroke-width="1.5" stroke-linecap="round" stroke-linejoin="round"/>
<path d="M7 15V7C7 4.23858 9.23858 2 12 2C14.7614 2 17 4.23858 17 7V15C17 16.6547 16.6547 17 15 17H9C7.34533 17 7 16.6547 7 15Z" stroke="#141B34" stroke-width="1.5" stroke-linecap="round" stroke-linejoin="round"/>
<path d="M10 6L11 5" stroke="#141B34" stroke-width="1.5" stroke-linecap="round" stroke-linejoin="round"/>
<path d="M11 8.5L13 6.5" stroke="#141B34" stroke-width="1.5" stroke-linecap="round" stroke-linejoin="round"/>
<path d="M4 20H20" stroke="#141B34" stroke-width="1.5" stroke-linecap="round" stroke-linejoin="round"/>
<path d="M4 12H7M17 12H20" stroke="#141B34" stroke-width="1.5" stroke-linecap="round" stroke-linejoin="round"/>
</svg>
