<svg width="24" height="24" viewBox="0 0 24 24" fill="none" xmlns="http://www.w3.org/2000/svg">
<path opacity="0.4" fill-rule="evenodd" clip-rule="evenodd" d="M3.0528 7.5129C2 8.69377 2 10.4625 2 14C2 17.5375 2 19.3062 3.0528 20.4871C3.22119 20.676 3.40678 20.8506 3.60746 21.0091C4.86213 22 6.74142 22 10.5 22H13.5C17.2586 22 19.1379 22 20.3925 21.0091C20.5932 20.8506 20.7788 20.676 20.9472 20.4871C22 19.3062 22 17.5375 22 14C22 10.4625 22 8.69377 20.9472 7.5129C20.7788 7.32403 20.5932 7.14935 20.3925 6.99087C19.1379 6 17.2586 6 13.5 6H10.5C6.74142 6 4.86213 6 3.60746 6.99087C3.40678 7.14935 3.22119 7.32403 3.0528 7.5129ZM12 16.5C13.3807 16.5 14.5 15.3807 14.5 14C14.5 12.6193 13.3807 11.5 12 11.5C10.6193 11.5 9.5 12.6193 9.5 14C9.5 15.3807 10.6193 16.5 12 16.5Z" fill="#141B34"/>
<path d="M18 6C19.3001 6.1287 20.1752 6.41956 20.8284 7.07691C22 8.25596 22 10.1536 22 13.9489C22 17.7442 22 19.6419 20.8284 20.8209C19.6569 22 17.7712 22 14 22H10C6.22876 22 4.34315 22 3.17157 20.8209C2 19.6419 2 17.7442 2 13.9489C2 10.1536 2 8.25596 3.17157 7.07691C3.82475 6.41956 4.69989 6.1287 6 6" stroke="#141B34" stroke-width="1.5" stroke-linecap="round"/>
<path d="M18.5078 14H18.4988" stroke="#141B34" stroke-width="2" stroke-linecap="round" stroke-linejoin="round"/>
<path d="M5.50781 14H5.49883" stroke="#141B34" stroke-width="2" stroke-linecap="round" stroke-linejoin="round"/>
<path d="M14.5 14C14.5 15.3807 13.3807 16.5 12 16.5C10.6193 16.5 9.5 15.3807 9.5 14C9.5 12.6193 10.6193 11.5 12 11.5C13.3807 11.5 14.5 12.6193 14.5 14Z" stroke="#141B34" stroke-width="1.5"/>
<path d="M9.5 4.5C9.99153 3.9943 11.2998 2 12 2M14.5 4.5C14.0085 3.9943 12.7002 2 12 2M12 2V8" stroke="#141B34" stroke-width="1.5" stroke-linecap="round" stroke-linejoin="round"/>
</svg>
