<svg width="24" height="24" viewBox="0 0 24 24" fill="none" xmlns="http://www.w3.org/2000/svg">
<path opacity="0.4" d="M9.00216 14.3868C9 14.7315 9 15.1016 9 15.5C9 18.3165 9 19.7247 9.76359 20.6822C9.92699 20.8871 10.1129 21.073 10.3178 21.2364C11.2753 22 12.6835 22 15.5 22C18.3165 22 19.7247 22 20.6822 21.2364C20.8871 21.073 21.073 20.8871 21.2364 20.6822C22 19.7247 22 18.3165 22 15.5C22 12.6835 22 11.2753 21.2364 10.3178C21.073 10.1129 20.8871 9.92699 20.6822 9.76359C19.7247 9 18.3165 9 15.5 9C15.1016 9 14.7315 9 14.3867 9.00216C14.6149 9.00983 14.7564 9.04099 14.8577 9.14231C15.007 9.29159 15.0039 9.52792 14.9979 10.0006C14.9743 11.8517 14.8538 12.9135 14.2393 13.684C14.0757 13.8892 13.8896 14.0753 13.6845 14.2389C12.914 14.8534 11.8519 14.9742 10.0006 14.9979C9.52793 15.004 9.29161 15.007 9.14232 14.8577C9.04099 14.7564 9.00983 14.615 9.00216 14.3868Z" fill="#141B34"/>
<path opacity="0.4" d="M2.76359 3.31779C2 4.2753 2 5.68353 2 8.5C2 11.3165 2 12.7247 2.76359 13.6822C2.92699 13.8871 3.11289 14.073 3.31779 14.2364C4.2753 15 5.68353 15 8.5 15C8.89831 15 9.26846 15 9.61315 14.9978C9.38502 14.9902 9.24363 14.959 9.14232 14.8577C8.99303 14.7084 8.99606 14.4721 9.0021 13.9994C9.02577 12.1482 9.14637 11.0862 9.76082 10.3157C9.92442 10.1105 10.1105 9.92442 10.3157 9.76082C11.0862 9.14637 12.1482 9.02577 13.9994 9.0021C14.4721 8.99606 14.7084 8.99303 14.8577 9.14231C14.959 9.24364 14.9902 9.38508 14.9978 9.61332C15 9.26858 15 8.89838 15 8.5C15 5.68353 15 4.2753 14.2364 3.31779C14.073 3.11289 13.8871 2.92699 13.6822 2.76359C12.7247 2 11.3165 2 8.5 2C5.68353 2 4.2753 2 3.31779 2.76359C3.11289 2.92699 2.92699 3.11289 2.76359 3.31779Z" fill="#141B34"/>
<path d="M9.76082 10.3157C9.92442 10.1105 10.1105 9.92442 10.3157 9.76082C11.0862 9.14637 12.1482 9.02577 13.9994 9.0021C14.4721 8.99606 14.7084 8.99303 14.8577 9.14231C15.007 9.29159 15.0039 9.52792 14.9979 10.0006C14.9743 11.8517 14.8538 12.9135 14.2393 13.684C14.0757 13.8892 13.8896 14.0753 13.6845 14.2389C12.914 14.8534 11.8519 14.9742 10.0006 14.9979C9.52793 15.004 9.29161 15.007 9.14232 14.8577C8.99303 14.7084 8.99606 14.4721 9.0021 13.9994C9.02577 12.1482 9.14637 11.0862 9.76082 10.3157Z" stroke="#141B34" stroke-width="1.5" stroke-linecap="round" stroke-linejoin="round"/>
<path d="M9 17.4947C9.04098 19.0437 9.19209 19.982 9.74923 20.6807C9.91282 20.8858 10.0989 21.0719 10.3041 21.2355C11.2627 22 12.6726 22 15.4924 22C18.3121 22 19.722 22 20.6807 21.2355C20.8858 21.0719 21.0719 20.8858 21.2355 20.6807C22 19.722 22 18.3121 22 15.4924C22 12.6726 22 11.2627 21.2355 10.3041C21.0719 10.0989 20.8858 9.91283 20.6807 9.74923C19.982 9.19209 19.0437 9.04098 17.4947 9" stroke="#141B34" stroke-width="1.5" stroke-linecap="round"/>
<path d="M2 12C2.06547 12.8804 2.22182 13.4751 2.59527 13.9421C2.73274 14.114 2.88914 14.27 3.06153 14.4071C3.52821 14.7782 4.12216 14.9343 5 15H5.5M2 5C2.06568 4.12216 2.22181 3.52821 2.59294 3.06153C2.73003 2.88914 2.88599 2.73274 3.0579 2.59527C3.52488 2.22182 4.11965 2.06547 5 2M12 2C12.8778 2.06568 13.4718 2.22181 13.9385 2.59294C14.1109 2.73003 14.2673 2.88599 14.4047 3.0579C14.7782 3.52488 14.9345 4.11965 15 5V5.5M2 7.5L2 9.5M9.5 2L7.5 2" stroke="#141B34" stroke-width="1.5" stroke-linecap="round"/>
</svg>
