<svg width="24" height="24" viewBox="0 0 24 24" fill="none" xmlns="http://www.w3.org/2000/svg">
<g opacity="0.4">
<path d="M5 15V22H9.5V15H5Z" fill="#141B34"/>
<path d="M14.5 15V22H19V15H14.5Z" fill="#141B34"/>
</g>
<path opacity="0.4" d="M9 2.77893C7.43867 3.6533 6.30807 5.18913 6 7.00001H12H18C17.6919 5.18913 16.5613 3.6533 15 2.77893L12 7.00001L9 2.77893Z" fill="#141B34"/>
<path d="M22 16C21.6936 15.3871 21.0672 15 20.382 15H3.61803C2.93283 15 2.30643 15.3871 2 16" stroke="#141B34" stroke-width="1.5" stroke-linecap="round"/>
<path d="M3 22H21" stroke="#141B34" stroke-width="1.5" stroke-linecap="round"/>
<path d="M5 15V22M9.5 15V22M14.5 15V22M19 15V22" stroke="#141B34" stroke-width="1.5" stroke-linecap="round"/>
<path d="M12 7L15 3M12 7H6.5M12 7H17.5M12 7L9 3" stroke="#141B34" stroke-width="1.5" stroke-linecap="round"/>
<path d="M6 8C6 4.68629 8.68629 2 12 2C15.3137 2 18 4.68629 18 8V15H6V8Z" stroke="#141B34" stroke-width="1.5" stroke-linecap="round" stroke-linejoin="round"/>
</svg>
