<svg width="24" height="24" viewBox="0 0 24 24" fill="none" xmlns="http://www.w3.org/2000/svg">
<path opacity="0.4" d="M12.9819 17H10.9851C10.8015 17 10.6359 17 10.4859 17.0022C9.86707 17.0111 9.5162 17.0571 9.28081 17.2929C8.9884 17.5858 8.9884 18.0572 8.9884 19C8.9884 19.9428 8.9884 20.4142 9.28081 20.7071C9.57323 21 10.0439 21 10.9851 21H12.9819C13.9231 21 14.3937 21 14.6862 20.7071C14.9786 20.4142 14.9786 19.9428 14.9786 19C14.9786 18.0572 14.9786 17.5858 14.6862 17.2929C14.4508 17.0571 14.0999 17.0111 13.481 17.0022C13.3311 17 13.1655 17 12.9819 17Z" fill="#141B34"/>
<path opacity="0.4" d="M5.49474 3C4.66766 3 3.99719 3.67157 3.99719 4.5C3.99719 5.32843 4.66766 6 5.49474 6C6.32181 6 6.99229 5.32843 6.99229 4.5C6.99229 3.67157 6.32181 3 5.49474 3Z" fill="#141B34"/>
<path opacity="0.4" d="M18.4733 3C17.6462 3 16.9757 3.67157 16.9757 4.5C16.9757 5.32843 17.6462 6 18.4733 6C19.3003 6 19.9708 5.32843 19.9708 4.5C19.9708 3.67157 19.3003 3 18.4733 3Z" fill="#141B34"/>
<path opacity="0.4" d="M3.38912 9.05559C2.83983 9.3715 1.39963 10.0165 2.27682 10.8237C2.70531 11.218 3.18254 11.5 3.78254 11.5H7.20625C7.80625 11.5 8.28349 11.218 8.71197 10.8237C9.58916 10.0165 8.14896 9.3715 7.59967 9.05559C6.3116 8.3148 4.67719 8.3148 3.38912 9.05559Z" fill="#141B34"/>
<path opacity="0.4" d="M16.3677 9.05559C15.8184 9.3715 14.3782 10.0165 15.2553 10.8237C15.6838 11.218 16.1611 11.5 16.761 11.5H20.1848C20.7848 11.5 21.2621 11.218 21.6906 10.8237C22.5677 10.0165 21.1275 9.3715 20.5782 9.05559C19.2901 8.3148 17.6558 8.3148 16.3677 9.05559Z" fill="#141B34"/>
<path d="M5.49474 3C4.66766 3 3.99719 3.67157 3.99719 4.5C3.99719 5.32843 4.66766 6 5.49474 6C6.32181 6 6.99229 5.32843 6.99229 4.5C6.99229 3.67157 6.32181 3 5.49474 3Z" stroke="#141B34" stroke-width="1.5" stroke-linecap="round" stroke-linejoin="round"/>
<path d="M18.4733 3C17.6462 3 16.9757 3.67157 16.9757 4.5C16.9757 5.32843 17.6462 6 18.4733 6C19.3003 6 19.9708 5.32843 19.9708 4.5C19.9708 3.67157 19.3003 3 18.4733 3Z" stroke="#141B34" stroke-width="1.5" stroke-linecap="round" stroke-linejoin="round"/>
<path d="M9.98743 6H10.4851" stroke="#141B34" stroke-width="1.5" stroke-linecap="round"/>
<path d="M13.4816 6H13.9793" stroke="#141B34" stroke-width="1.5" stroke-linecap="round"/>
<path d="M20.4694 14V17C20.4694 17.4647 20.4694 17.697 20.431 17.8902C20.2735 18.6836 19.6543 19.3038 18.8622 19.4616C18.6693 19.5 18.4374 19.5 17.9735 19.5M3.49719 14V17C3.49719 17.4647 3.49719 17.697 3.53556 17.8902C3.69311 18.6836 4.3123 19.3038 5.10438 19.4616C5.29726 19.5 5.5292 19.5 5.9931 19.5" stroke="#141B34" stroke-width="1.5" stroke-linecap="round" stroke-linejoin="round"/>
<path d="M5.50922 11.4895H3.73377C3.52757 11.4895 3.3205 11.4592 3.13111 11.3744C2.51461 11.0984 2.20182 10.7338 2.05605 10.5058C1.97311 10.376 1.98492 10.2107 2.07491 10.0861C2.78918 9.09731 4.44526 8.50005 5.50922 8.5M5.51226 11.4895H7.28771C7.49391 11.4895 7.70098 11.4592 7.89037 11.3744C8.50687 11.0984 8.81966 10.7338 8.96543 10.5058C9.04838 10.376 9.03657 10.2107 8.94657 10.0861C8.2323 9.09731 6.57623 8.50005 5.51226 8.5" stroke="#141B34" stroke-width="1.5" stroke-linecap="round" stroke-linejoin="round"/>
<path d="M18.4877 11.4895H16.7123C16.506 11.4895 16.299 11.4593 16.1096 11.3745C15.4931 11.0984 15.1803 10.7338 15.0346 10.5058C14.9516 10.376 14.9635 10.2107 15.0534 10.0862C15.7677 9.0974 17.4237 8.5001 18.4877 8.5M18.4908 11.4895H20.2662C20.4724 11.4895 20.6795 11.4593 20.8689 11.3745C21.4854 11.0984 21.7982 10.7338 21.9439 10.5058C22.0269 10.376 22.0151 10.2107 21.9251 10.0862C21.2108 9.0974 19.5548 8.5001 18.4908 8.5" stroke="#141B34" stroke-width="1.5" stroke-linecap="round" stroke-linejoin="round"/>
<path d="M10.4859 17.0022C10.6359 17 10.8015 17 10.9851 17H12.9819C13.1655 17 13.3311 17 13.481 17.0022M10.4859 17.0022C9.86707 17.0111 9.5162 17.0571 9.28081 17.2929C8.9884 17.5858 8.9884 18.0572 8.9884 19C8.9884 19.9428 8.9884 20.4142 9.28081 20.7071C9.57323 21 10.0439 21 10.9851 21H12.9819C13.9231 21 14.3937 21 14.6862 20.7071C14.9786 20.4142 14.9786 19.9428 14.9786 19C14.9786 18.0572 14.9786 17.5858 14.6862 17.2929C14.4508 17.0571 14.0999 17.0111 13.481 17.0022M10.4859 17.0022V15.5C10.4859 14.6716 11.1565 14 11.9835 14C12.8105 14 13.481 14.6716 13.481 15.5V17.0022" stroke="#141B34" stroke-width="1.5" stroke-linecap="round"/>
</svg>
