<svg width="24" height="24" viewBox="0 0 24 24" fill="none" xmlns="http://www.w3.org/2000/svg">
<path opacity="0.4" d="M18 21C19.2322 21 20.231 19.8487 20.231 18.4286C20.231 16.1808 20.1312 14.6865 21.6733 12.9091C22.1089 12.407 22.1089 11.593 21.6733 11.0909C20.1312 9.31354 20.231 7.81916 20.231 5.57143C20.231 4.15127 19.2322 3 18 3M6 21C4.76784 21 3.76897 19.8487 3.76897 18.4286C3.76897 16.1808 3.86877 14.6865 2.32673 12.9091C1.89109 12.407 1.89109 11.593 2.32673 11.0909C3.83496 9.35251 3.76897 7.83992 3.76897 5.57143C3.76897 4.15127 4.76784 3 6 3" stroke="#141B34" stroke-width="1.5" stroke-linecap="round" stroke-linejoin="round"/>
<path d="M18 7.99023H12.5167C11.7 7.99023 11.46 8.03023 11.299 8.85428L9.95406 14.4595C9.62198 15.7876 9.45066 15.9836 9.12 16.0102C8.76 15.8902 8.58977 15.5825 7.98 14.3302L7.63508 13.5702C7.37243 13.0308 7.28553 12.8032 7.02 12.7302C6.62037 12.6202 6.30716 12.931 6 13.1302" stroke="#141B34" stroke-width="1.5" stroke-linecap="round" stroke-linejoin="round"/>
<path d="M13.1035 11.4224C13.5235 11.4085 13.9795 11.3904 14.2291 11.8064C14.5724 12.4988 15.1156 13.9176 15.3175 14.3677C15.4185 14.5408 15.4795 14.6904 15.8395 14.8104C16.1088 14.845 16.4995 14.8544 16.4995 14.8544" stroke="#141B34" stroke-width="1.5" stroke-linecap="round"/>
<path d="M16.7407 11.4102C15.8945 11.4102 15.3905 12.3562 14.9167 12.949C14.3074 13.8557 13.6807 14.8702 12.8887 14.8422" stroke="#141B34" stroke-width="1.5" stroke-linecap="round"/>
</svg>
