<svg width="24" height="24" viewBox="0 0 24 24" fill="none" xmlns="http://www.w3.org/2000/svg">
<path opacity="0.4" d="M7.73223 16.2678C7 15.5355 7 14.357 7 12V7H11C13.8284 7 15.2426 7 16.1213 7.87868C17 8.75736 17 10.1716 17 13V17H12C9.64298 17 8.46447 17 7.73223 16.2678Z" fill="#141B34"/>
<path d="M2 15C2 18.87 5.13 22 9 22L7.95001 20.25" stroke="#141B34" stroke-width="1.5" stroke-linecap="round" stroke-linejoin="round"/>
<path d="M22 9C22 5.13 18.87 2 15 2L16.05 3.75" stroke="#141B34" stroke-width="1.5" stroke-linecap="round" stroke-linejoin="round"/>
<path d="M7 5V12C7 14.357 7 15.5355 7.73223 16.2678C8.46447 17 9.64298 17 12 17H19" stroke="#141B34" stroke-width="1.5" stroke-linecap="round" stroke-linejoin="round"/>
<path d="M17 19L17 12C17 9.64298 17 8.46447 16.2678 7.73223C15.5355 7 14.357 7 12 7L5 7" stroke="#141B34" stroke-width="1.5" stroke-linecap="round" stroke-linejoin="round"/>
</svg>
