<svg width="24" height="24" viewBox="0 0 24 24" fill="none" xmlns="http://www.w3.org/2000/svg">
<path opacity="0.4" d="M8.64298 3.0853C10.2952 2.36177 11.1214 2 12 2C12.8786 2 13.7048 2.36177 15.357 3.0853L17.0618 3.83185C19.6873 4.98154 21 5.55639 21 6.5C21 7.44361 19.6873 8.01846 17.0618 9.16815L15.357 9.9147C13.7048 10.6382 12.8786 11 12 11C11.1214 11 10.2952 10.6382 8.64298 9.9147L6.93817 9.16815C4.31272 8.01846 3 7.44361 3 6.5C3 5.55639 4.31272 4.98154 6.93816 3.83185L8.64298 3.0853Z" fill="#141B34"/>
<path d="M8.64298 3.0853C10.2952 2.36177 11.1214 2 12 2C12.8786 2 13.7048 2.36177 15.357 3.0853L17.0618 3.83185C19.6873 4.98154 21 5.55639 21 6.5C21 7.44361 19.6873 8.01846 17.0618 9.16815L15.357 9.9147C13.7048 10.6382 12.8786 11 12 11C11.1214 11 10.2952 10.6382 8.64298 9.9147L6.93817 9.16815C4.31272 8.01846 3 7.44361 3 6.5C3 5.55639 4.31272 4.98154 6.93816 3.83185L8.64298 3.0853Z" stroke="#141B34" stroke-width="1.5" stroke-linecap="round" stroke-linejoin="round"/>
<path d="M21 6.5V17.5C21 18.4436 19.6873 19.0185 17.0618 20.1682L15.357 20.9147C13.7048 21.6382 12.8786 22 12 22C11.1214 22 10.2952 21.6382 8.64298 20.9147L6.93817 20.1682C4.31272 19.0185 3 18.4436 3 17.5V6.5" stroke="#141B34" stroke-width="1.5" stroke-linecap="round" stroke-linejoin="round"/>
<path d="M21 12.5L12 17L3 13" stroke="#141B34" stroke-width="1.5" stroke-linecap="round" stroke-linejoin="round"/>
<path d="M12 22V11" stroke="#141B34" stroke-width="1.5" stroke-linecap="round" stroke-linejoin="round"/>
<path d="M16.5 20V9L7 4" stroke="#141B34" stroke-width="1.5" stroke-linecap="round" stroke-linejoin="round"/>
<path d="M7.5 20V9L17 4" stroke="#141B34" stroke-width="1.5" stroke-linecap="round" stroke-linejoin="round"/>
</svg>
