<svg width="24" height="24" viewBox="0 0 24 24" fill="none" xmlns="http://www.w3.org/2000/svg">
<path opacity="0.4" d="M4.85288 19.0408C5.20558 20.2004 6.33546 21 7.62123 21C9.21113 21 10.5 19.7913 10.5 18.3002V10.5C9.7 8.9 7.5 8.5 6.5 8.5C4.1 9.3 3.07561 11.5 2.86342 12.5L4.85288 19.0408Z" fill="#141B34"/>
<path opacity="0.4" d="M19.1491 19.0408C18.7964 20.2004 17.6665 21 16.3807 21C14.7908 21 13.5019 19.7913 13.5019 18.3002V10.5C14.1686 9.83333 15.9019 8.5 17.5019 8.5C18.1673 8.58901 19.8484 9.44033 21.25 12.1335L19.1491 19.0408Z" fill="#141B34"/>
<path d="M10.5 18.3002V5.81444C10.5 4.22713 10.0436 2.92085 8.11708 3.00374C6.50864 3.07294 5.00141 3.89684 3.80452 4.89375C1.66292 6.67753 1.72577 8.75973 2.46872 11.2023L4.85288 19.0408C5.20558 20.2004 6.33546 21 7.62123 21C9.21113 21 10.5 19.7913 10.5 18.3002Z" stroke="#141B34" stroke-width="1.5" stroke-linecap="round" stroke-linejoin="round"/>
<path d="M13.5 18.3002V5.81444C13.5 4.22713 13.9564 2.92085 15.8829 3.00374C17.4914 3.07294 18.9986 3.89684 20.1955 4.89375C22.3371 6.67753 22.2742 8.75973 21.5313 11.2023L19.1471 19.0408C18.7944 20.2004 17.6645 21 16.3788 21C14.7889 21 13.5 19.7913 13.5 18.3002Z" stroke="#141B34" stroke-width="1.5" stroke-linecap="round" stroke-linejoin="round"/>
<path d="M3 13C3 12 3.7 9.3 6.5 8.5M6.5 8.5C9 9 10 10 10.5 10.5M6.5 8.5V7" stroke="#141B34" stroke-width="1.5" stroke-linecap="round" stroke-linejoin="round"/>
<path d="M21 13C21 12 20.3 9.3 17.5 8.5M17.5 8.5C15 9 14 10 13.5 10.5M17.5 8.5V7" stroke="#141B34" stroke-width="1.5" stroke-linecap="round" stroke-linejoin="round"/>
</svg>
