<svg width="24" height="24" viewBox="0 0 24 24" fill="none" xmlns="http://www.w3.org/2000/svg">
<path opacity="0.4" fill-rule="evenodd" clip-rule="evenodd" d="M22 12C22 11.2366 21.5969 10.5418 20.7906 9.15201L18.8669 5.83622C18.0638 4.45197 17.6623 3.75984 17.0019 3.37992C16.3416 3 15.5402 3 13.9373 3H10.0627C8.45982 3 7.6584 3 6.99807 3.37992C6.33774 3.75984 5.93619 4.45196 5.13311 5.83621L3.20942 9.152C2.40314 10.5418 2 11.2366 2 12C2 12.7634 2.40314 13.4582 3.20942 14.848L5.13311 18.1638C5.93619 19.548 6.33774 20.2402 6.99807 20.6201C7.6584 21 8.45982 21 10.0627 21L13.9373 21C15.5402 21 16.3416 21 17.0019 20.6201C17.6623 20.2402 18.0638 19.548 18.8669 18.1638L20.7906 14.848C21.5969 13.4582 22 12.7634 22 12ZM12 15.5C13.933 15.5 15.5 13.933 15.5 12C15.5 10.067 13.933 8.5 12 8.5C10.067 8.5 8.5 10.067 8.5 12C8.5 13.933 10.067 15.5 12 15.5Z" fill="#141B34"/>
<path d="M20.7906 9.15201C21.5969 10.5418 22 11.2366 22 12C22 12.7634 21.5969 13.4582 20.7906 14.848L18.8669 18.1638C18.0638 19.548 17.6623 20.2402 17.0019 20.6201C16.3416 21 15.5402 21 13.9373 21L10.0627 21C8.45982 21 7.6584 21 6.99807 20.6201C6.33774 20.2402 5.93619 19.548 5.13311 18.1638L3.20942 14.848C2.40314 13.4582 2 12.7634 2 12C2 11.2366 2.40314 10.5418 3.20942 9.152L5.13311 5.83621C5.93619 4.45196 6.33774 3.75984 6.99807 3.37992C7.6584 3 8.45982 3 10.0627 3L13.9373 3C15.5402 3 16.3416 3 17.0019 3.37992C17.6623 3.75984 18.0638 4.45197 18.8669 5.83622L20.7906 9.15201Z" stroke="#141B34" stroke-width="1.5"/>
<path d="M15.5 12C15.5 13.933 13.933 15.5 12 15.5C10.067 15.5 8.5 13.933 8.5 12C8.5 10.067 10.067 8.5 12 8.5C13.933 8.5 15.5 10.067 15.5 12Z" stroke="#141B34" stroke-width="1.5"/>
</svg>
