<svg width="24" height="24" viewBox="0 0 24 24" fill="none" xmlns="http://www.w3.org/2000/svg">
<path opacity="0.4" d="M6.45189 3.02518C5.49998 4.0503 5.49998 5.70022 5.49998 9.00005V15.0001C5.49998 18.2999 5.49998 19.9498 6.45189 20.9749C7.40379 22.0001 8.93586 22.0001 12 22.0001C15.0641 22.0001 16.5962 22.0001 17.5481 20.9749C18.5 19.9498 18.5 18.2999 18.5 15.0001V9.00005C18.5 5.70022 18.5 4.0503 17.5481 3.02518C16.9748 2.40783 16.1912 2.16226 14.9892 2.06458L14.911 2.53407C14.7181 3.69134 14.6217 4.26998 14.2248 4.62209C13.8108 4.98939 13.2238 5.00005 12 5.00005C10.7761 5.00005 10.1892 4.98939 9.77517 4.62209C9.37831 4.26998 9.28187 3.69134 9.08899 2.53407L9.01074 2.06458C7.80879 2.16226 7.02514 2.40783 6.45189 3.02518Z" fill="#141B34"/>
<path d="M18.5 6C18.4191 4.58055 18.197 3.67665 17.5877 3.02513C16.629 2 15.086 2 12 2C8.91399 2 7.37099 2 6.41229 3.02513C5.80299 3.67665 5.58093 4.58055 5.5 6M18.5 18C18.4191 19.4194 18.197 20.3233 17.5877 20.9749C16.629 22 15.086 22 12 22C8.91399 22 7.37099 22 6.41229 20.9749C5.80298 20.3233 5.58093 19.4194 5.5 18" stroke="#141B34" stroke-width="1.5" stroke-linecap="round"/>
<path d="M9 2L9.089 2.53402C9.28188 3.69129 9.37832 4.26993 9.77519 4.62204C10.1892 4.98934 10.7761 5 12 5C13.2239 5 13.8108 4.98934 14.2248 4.62204C14.6217 4.26993 14.7181 3.69129 14.911 2.53402L15 2" stroke="#141B34" stroke-width="1.5" stroke-linejoin="round"/>
<path d="M11 19H13" stroke="#141B34" stroke-width="1.5" stroke-linecap="round" stroke-linejoin="round"/>
<path d="M3.99999 8.5C3.99999 8.5 4.99999 8.846 4.99999 9.8125C4.99999 10.779 3.99999 11.0335 3.99999 12C3.99999 12.9665 4.99999 13.221 4.99999 14.1875C4.99999 15.154 3.99999 15.5 3.99999 15.5" stroke="#141B34" stroke-width="1.5" stroke-linecap="round" stroke-linejoin="round"/>
<path d="M20 8.5C20 8.5 19 8.846 19 9.8125C19 10.779 20 11.0335 20 12C20 12.9665 19 13.221 19 14.1875C19 15.154 20 15.5 20 15.5" stroke="#141B34" stroke-width="1.5" stroke-linecap="round" stroke-linejoin="round"/>
</svg>
