<svg width="24" height="24" viewBox="0 0 24 24" fill="none" xmlns="http://www.w3.org/2000/svg">
<path opacity="0.4" d="M5.27577 5.27577C4.3935 6.15803 4.09859 7.39826 4 9.38747V16.6125C4.09859 18.6017 4.39351 19.842 5.27577 20.7242C6.15803 21.6065 7.39826 21.9014 9.38746 22H16.6125C18.6017 21.9014 19.842 21.6065 20.7242 20.7242C21.6065 19.842 21.9014 18.6017 22 16.6125V9.38747C21.9014 7.39826 21.6065 6.15803 20.7242 5.27577C19.842 4.39351 18.6017 4.09859 16.6125 4H9.38747C7.39826 4.09859 6.15803 4.39351 5.27577 5.27577Z" fill="#141B34"/>
<path d="M16 17H10" stroke="#141B34" stroke-width="1.5" stroke-linecap="round"/>
<path d="M8 4V8M5 2V10M2 5L2 7M11 5V7" stroke="#141B34" stroke-width="1.5" stroke-linecap="round"/>
<path d="M4.00006 13C4.00172 17.1517 4.04756 19.2749 5.31802 20.6124C6.63604 22 8.75736 22 13 22H13.45C17.2568 22 19.1601 22 20.4225 20.8649C20.6018 20.7038 20.7687 20.528 20.9218 20.3393C22 19.0103 22 17.0065 22 12.9989C22 8.99125 22 6.98744 20.9218 5.65845C20.7687 5.46974 20.6018 5.29398 20.4225 5.1328C19.3191 4.14066 17.7259 4.01573 14.8 4H14" stroke="#141B34" stroke-width="1.5" stroke-linecap="round"/>
</svg>
