<svg width="24" height="24" viewBox="0 0 24 24" fill="none" xmlns="http://www.w3.org/2000/svg">
<path opacity="0.4" d="M2.5 12C2.5 7.52166 2.5 5.28249 3.89124 3.89124C5.28249 2.5 7.52166 2.5 12 2.5C16.4783 2.5 18.7175 2.5 20.1088 3.89124C21.5 5.28249 21.5 7.52166 21.5 12C21.5 16.4783 21.5 18.7175 20.1088 20.1088C18.7175 21.5 16.4783 21.5 12 21.5C7.52166 21.5 5.28249 21.5 3.89124 20.1088C2.5 18.7175 2.5 16.4783 2.5 12Z" fill="#141B34"/>
<path d="M2.5 12C2.5 7.52166 2.5 5.28249 3.89124 3.89124C5.28249 2.5 7.52166 2.5 12 2.5C16.4783 2.5 18.7175 2.5 20.1088 3.89124C21.5 5.28249 21.5 7.52166 21.5 12C21.5 16.4783 21.5 18.7175 20.1088 20.1088C18.7175 21.5 16.4783 21.5 12 21.5C7.52166 21.5 5.28249 21.5 3.89124 20.1088C2.5 18.7175 2.5 16.4783 2.5 12Z" stroke="#141B34" stroke-width="1.5"/>
<path d="M11.5502 15.1002C10.779 15.7702 9.68628 17.1002 9.23288 16.9602M9.23288 16.9602C8.70468 16.9602 7.69748 15.6502 6.95898 15.1002M9.23288 16.9602C9.38658 14.5702 8.91378 11.4902 9.92138 10.2402C11.0396 8.92023 14.2191 9.40026 17.0334 9.27026M17.0334 9.27026C17.0925 9.93026 15.7916 10.7903 15.1182 11.5503M17.0334 9.27026C17.1564 8.82026 15.7632 7.69027 15.121 7.03027" stroke="#141B34" stroke-width="1.5" stroke-linecap="round" stroke-linejoin="round"/>
</svg>
