<svg width="24" height="24" viewBox="0 0 24 24" fill="none" xmlns="http://www.w3.org/2000/svg">
<path opacity="0.4" d="M12 3C9.79086 3 8 4.81884 8 7.0625C8 8.03146 8.33401 8.92119 8.89147 9.6194C9.50515 10.388 10.0632 11.296 9.96621 12.2807L9.88298 12.9447H14.117L14.0338 12.2807C13.9368 11.296 14.4948 10.388 15.1085 9.6194C15.666 8.92119 16 8.03146 16 7.0625C16 4.81884 14.2091 3 12 3Z" fill="#141B34"/>
<path opacity="0.4" d="M17.6667 21H6.33333C6.02334 21 5.86835 21 5.74118 20.9574C5.39609 20.8418 5.12654 20.5049 5.03407 20.0735C5 19.9146 5 19.7208 5 19.3333C5 18.5584 5 18.1709 5.06815 17.853C5.25308 16.9902 5.79218 16.3164 6.48236 16.0852C6.7367 16 7.04669 16 7.66667 16H16.3333C16.9533 16 17.2633 16 17.5176 16.0852C18.2078 16.3164 18.7469 16.9902 18.9319 17.853C19 18.1709 19 18.5584 19 19.3333C19 19.7208 19 19.9146 18.9659 20.0735C18.8735 20.5049 18.6039 20.8418 18.2588 20.9574C18.1317 21 17.9767 21 17.6667 21Z" fill="#141B34"/>
<path d="M17.6667 21H6.33333C6.02334 21 5.86835 21 5.74118 20.9574C5.39609 20.8418 5.12654 20.5049 5.03407 20.0735C5 19.9146 5 19.7208 5 19.3333C5 18.5584 5 18.1709 5.06815 17.853C5.25308 16.9902 5.79218 16.3164 6.48236 16.0852C6.7367 16 7.04669 16 7.66667 16H16.3333C16.9533 16 17.2633 16 17.5176 16.0852C18.2078 16.3164 18.7469 16.9902 18.9319 17.853C19 18.1709 19 18.5584 19 19.3333C19 19.7208 19 19.9146 18.9659 20.0735C18.8735 20.5049 18.6039 20.8418 18.2588 20.9574C18.1317 21 17.9767 21 17.6667 21Z" stroke="#141B34" stroke-width="1.5" stroke-miterlimit="10" stroke-linecap="round" stroke-linejoin="round"/>
<path d="M9.49849 16C10.0131 13.4523 10.0825 11.9663 9.75436 11.0497C9.68308 10.8507 9.56168 10.6749 9.43844 10.5034C8.6252 9.37155 8.2558 8.48762 8.11551 7.94129C8.03332 7.62119 8.00775 7.28611 8.02252 6.95595C8.04935 6.35609 8.24425 5.4471 8.87687 4.56208C9.72694 3.37285 11.3109 3.007 11.9984 3C12.686 3.007 14.3113 3.37285 15.1614 4.56208C15.794 5.4471 15.9889 6.35609 16.0157 6.95595C16.0305 7.28611 16.0049 7.62119 15.9227 7.94129C15.7825 8.48762 15.4131 9.37155 14.5998 10.5034C14.4766 10.6749 14.3552 10.8507 14.2839 11.0497C13.9557 11.9663 13.9838 13.4523 14.4984 16" stroke="#141B34" stroke-width="1.5" stroke-linecap="round" stroke-linejoin="round"/>
<path d="M14 13H10" stroke="#141B34" stroke-width="1.5" stroke-linecap="round"/>
</svg>
