<svg width="24" height="24" viewBox="0 0 24 24" fill="none" xmlns="http://www.w3.org/2000/svg">
<path opacity="0.4" d="M3.49781 10.4971H3.19043V15.4985C3.19043 18.3277 3.19043 19.7423 4.06911 20.6213C4.94779 21.5003 6.362 21.5003 9.19043 21.5003H15.1904C18.0188 21.5003 19.433 21.5003 20.3117 20.6213C21.1904 19.7423 21.1904 18.3277 21.1904 15.4985V10.4971H20.883C20.0425 11.1197 18.9667 11.4974 17.9451 11.4974C16.9235 11.4974 15.9907 11.1197 15.2806 10.4971H14.8919C14.4689 10.9166 13.5519 11.4974 12.1897 11.4974C11.1681 11.4974 10.2353 11.1197 9.52522 10.4971H9.08706C8.04196 11.3626 6.90186 11.5285 6.43573 11.4974C5.41411 11.4974 4.33829 11.1197 3.49781 10.4971Z" fill="#141B34"/>
<path d="M10.2942 8.4197C10.0122 9.4384 8.98671 11.1956 7.0382 11.4503C5.31776 11.6752 4.01289 10.9239 3.67959 10.6099C3.31211 10.3552 2.47459 9.54027 2.26949 9.03092C2.06438 8.52157 2.30367 7.41799 2.47459 6.96806L3.15786 4.98911C3.32466 4.49205 3.71513 3.31641 4.11544 2.91876C4.51576 2.52112 5.32624 2.50381 5.65983 2.50381H12.6653C14.4685 2.5293 18.4113 2.48773 19.1907 2.50382C19.9701 2.51991 20.4385 3.17344 20.5752 3.45358C21.7381 6.27121 22.1904 7.88489 22.1904 8.57251C22.0386 9.30604 21.4104 10.6892 19.1907 11.2976C16.8837 11.9297 15.5758 10.7 15.1655 10.2278M9.34565 10.2278C9.6704 10.6269 10.6891 11.43 12.1658 11.4503C13.6426 11.4707 14.9177 10.4401 15.3706 9.92228C15.4988 9.76947 15.7757 9.31615 16.0629 8.4197" stroke="#141B34" stroke-width="1.5" stroke-linecap="round" stroke-linejoin="round"/>
<path d="M3.19043 10.4971V15.4985C3.19043 18.3277 3.19043 19.7423 4.06911 20.6213C4.94779 21.5003 6.362 21.5003 9.19043 21.5003H15.1904C18.0188 21.5003 19.433 21.5003 20.3117 20.6213C21.1904 19.7423 21.1904 18.3277 21.1904 15.4985V10.4971" stroke="#141B34" stroke-width="1.5"/>
<path d="M7.19043 17.999H11.1904" stroke="#141B34" stroke-width="1.5" stroke-linecap="round"/>
</svg>
