<svg width="24" height="24" viewBox="0 0 24 24" fill="none" xmlns="http://www.w3.org/2000/svg">
<path d="M3.84563 13.5H20.1544C21.6152 13.5 22.1108 13.1856 21.9799 11.6907C21.5401 6.67031 17.2341 2.5 12 2.5C6.76593 2.5 2.45986 6.67031 2.02015 11.6907C1.88922 13.1856 2.38484 13.5 3.84563 13.5Z" stroke="#141B34" stroke-width="1.5" stroke-linejoin="round"/>
<path opacity="0.4" d="M18.7943 13.5C17.4924 11.1073 17.8258 8.02819 19.5379 5.99163C17.7008 3.87293 15.0031 2.5 12 2.5C8.9968 2.5 6.29914 3.87293 4.46204 5.99163C6.17412 8.02819 6.5075 11.1073 5.20567 13.5H18.7943Z" fill="#141B34"/>
<path d="M4 5.5C4.16371 5.65578 4.31778 5.82 4.46207 5.99163M20 5.5C19.8363 5.65578 19.6822 5.82 19.5379 5.99163M4.46207 5.99163C6.17415 8.02819 6.50753 11.1073 5.2057 13.5H5.30488H3.84563C2.38484 13.5 1.88922 13.1856 2.02015 11.6907C2.20757 9.55089 3.09738 7.5655 4.46207 5.99163ZM19.5379 5.99163C17.8259 8.02819 17.4925 11.1073 18.7943 13.5H18.6928H20.1544C21.6152 13.5 22.1108 13.1856 21.9799 11.6907C21.7924 9.55089 20.9026 7.5655 19.5379 5.99163Z" stroke="#141B34" stroke-width="1.5" stroke-linejoin="round"/>
<g opacity="0.4">
<path d="M7.23329 21.3312C6.1186 20.8857 4 20.5366 4 19C4 17.4634 6.1186 17.1143 7.23329 16.6688C8.80778 16.0396 10.5 17.2472 10.5 19C10.5 20.7528 8.80778 21.9604 7.23329 21.3312Z" fill="#141B34"/>
<path d="M16.7667 21.3312C17.8814 20.8857 20 20.5366 20 19C20 17.4634 17.8814 17.1143 16.7667 16.6688C15.1922 16.0396 13.5 17.2472 13.5 19C13.5 20.7528 15.1922 21.9604 16.7667 21.3312Z" fill="#141B34"/>
</g>
<path d="M4 19C4 17.4634 6.1186 17.1143 7.23329 16.6688C8.80778 16.0396 10.5 17.2472 10.5 19C10.5 20.7528 8.80778 21.9604 7.23329 21.3312C6.1186 20.8857 4 20.5366 4 19ZM4 19L2 19M20 19C20 17.4634 17.8814 17.1143 16.7667 16.6688C15.1922 16.0396 13.5 17.2472 13.5 19C13.5 20.7528 15.1922 21.9604 16.7667 21.3312C17.8814 20.8857 20 20.5366 20 19ZM20 19L22 19M10.5 18.5C10.7994 17.9022 11.359 17.5 12 17.5C12.641 17.5 13.2006 17.9022 13.5 18.5" stroke="#141B34" stroke-width="1.5" stroke-linecap="round"/>
</svg>
