<svg width="24" height="24" viewBox="0 0 24 24" fill="none" xmlns="http://www.w3.org/2000/svg">
<path opacity="0.4" d="M17.5077 12.181V12.179C17.5068 11.2036 16.8014 10.3715 15.8393 10.2111L14.5127 9.9899V10.9885C14.5127 9.88548 13.6187 8.99135 12.516 8.99135H11.5176V9.9899C11.5176 8.88693 10.6237 7.99279 9.52088 7.99279H8.52253V4.49784C8.52253 3.6706 7.85206 3 7.02499 3C6.19792 3 5.52745 3.6706 5.52745 4.49784V9.9899L4.06416 11.3626C2.8574 12.696 2.25402 13.3626 2.09214 14.1595C2.04132 14.4097 2.02325 14.6652 2.03838 14.92C2.08656 15.7311 2.59035 16.4733 3.59792 17.9576L4.1606 18.7865C4.79709 19.7241 5.11535 20.193 5.50516 20.5642C6.18745 21.214 7.04152 21.6628 7.97046 21.86C8.50118 21.9726 9.07492 21.9726 10.2224 21.9726C12.2721 21.9726 13.297 21.9726 14.1199 21.6866C15.5665 21.1838 16.7046 20.0661 17.2165 18.6454C17.5077 17.8372 17.5077 16.8306 17.5077 14.8176V12.9856V12.181Z" fill="#141B34"/>
<path d="M19.5037 2V7.99135M19.5037 2C18.8047 2 17.4985 3.99142 17.0078 4.49639M19.5037 2C20.2028 2 21.5089 3.99142 21.9996 4.49639" stroke="#141B34" stroke-width="1.5" stroke-linecap="round" stroke-linejoin="round"/>
<path d="M5.53125 14.4572V9.99422M5.53125 9.99422V4.47991C5.53125 3.66044 6.21483 3 7.03511 3C7.8554 3 8.50177 3.66044 8.50177 4.47991V8.47527M5.53125 9.99422C4.216 11.1849 2.80068 12.689 2.61009 13.0743C1.72325 14.4229 1.81621 15.0758 2.80452 16.7259C3.64393 18.1275 4.77284 19.6829 4.83874 19.7575C5.50946 20.5169 5.37611 20.517 6.34826 21.2301C7.21638 21.832 9.01705 22.2514 13.2385 21.832C16.6774 21.3013 17.5014 18.3024 17.4834 16.8693V13.3301C17.6977 10.3885 16.4669 10.2557 14.2322 9.96618M8.50177 8.47527V10.9985M8.50177 8.47527C9.05947 7.56671 11.0849 7.93388 11.4797 9.64956M11.4797 9.64956C11.4814 9.65678 11.483 9.66402 11.4846 9.67129C11.491 9.70008 11.4962 9.72909 11.5003 9.75825M11.4797 9.64956C11.4838 9.68452 11.4906 9.72075 11.5003 9.75825M11.4797 9.64956C11.3395 8.45373 14.3726 8.74525 14.4961 10.8483V11.9912M11.5153 10.9945V9.99422C11.5153 9.91536 11.5114 9.83625 11.5003 9.75825" stroke="#141B34" stroke-width="1.5" stroke-linecap="round"/>
</svg>
