<svg width="24" height="24" viewBox="0 0 24 24" fill="none" xmlns="http://www.w3.org/2000/svg">
<path opacity="0.4" d="M6.56349 19.4746L4.56826 16.9774C3.55904 15.491 3.05442 14.7477 3.00616 13.9354C2.991 13.6803 3.0091 13.4244 3.06001 13.1738C3.22215 12.3758 3.82652 11.7082 5.03527 10.3729L6.50097 8.99817V3.49817C6.50097 2.66974 7.17254 1.99817 8.00097 1.99817C8.8294 1.99817 9.50097 2.66974 9.50097 3.49817V7.99817H10.501C11.6056 7.99817 12.501 8.8936 12.501 9.99817V8.99817H13.501C14.6056 8.99817 15.501 9.8936 15.501 10.9982V9.99817L16.8298 10.2197C17.7935 10.3803 18.5001 11.2137 18.501 12.1905V13.8329C18.501 15.8488 18.501 16.8568 18.2093 17.6662C17.9832 18.2935 17.6352 18.8619 17.1926 19.3444C16.7591 19.817 16.4314 20.4018 16.4314 21.0431V21.9982H7.00097V20.723C7.00097 20.2693 6.8467 19.8291 6.56349 19.4746Z" fill="#141B34"/>
<path d="M15.001 4.49817H21.001M15.001 4.49817C15.001 3.79794 16.9953 2.4897 17.501 1.99817M15.001 4.49817C15.001 5.1984 16.9953 6.50664 17.501 6.99817" stroke="#141B34" stroke-width="1.5" stroke-linecap="round" stroke-linejoin="round"/>
<path d="M6.51184 13.5149V3.48587C6.51184 2.66424 7.17868 1.99817 8.00127 1.99817C8.82386 1.99817 9.4907 2.66424 9.4907 3.48587V8.68796M9.4907 8.68796V11.0116M9.4907 8.68796C10.2956 7.56953 12.0982 7.94205 12.4819 9.68092C12.4882 9.70978 12.4934 9.73886 12.4976 9.7681M12.4976 9.7681C12.5088 9.84632 12.5127 9.92563 12.5127 10.0047V11.0076M12.4976 9.7681C12.9908 8.41774 15.2553 8.93273 15.5019 10.861M15.5019 10.861V12.007M15.5019 10.861C15.9058 9.37047 18.5576 10.4122 18.5002 12.1546V15.3331C18.4972 17.0591 18.2091 18.3107 17.183 19.3401C16.235 20.4719 16.458 21.1055 16.4344 22.0018M6.51184 8.99063C5.19291 10.1845 3.69593 11.8161 3.50481 12.2024C2.61549 13.5546 2.93178 14.6154 4.1956 16.4176C5.13614 17.7588 6.39761 19.2535 6.46369 19.3283C7.1363 20.0897 7.00448 20.6959 7.00448 21.9908" stroke="#141B34" stroke-width="1.5" stroke-linecap="round"/>
</svg>
