<svg width="24" height="24" viewBox="0 0 24 24" fill="none" xmlns="http://www.w3.org/2000/svg">
<path opacity="0.4" d="M6.56349 19.4746L4.56826 16.9774C3.55904 15.491 3.05442 14.7477 3.00616 13.9354C2.991 13.6803 3.0091 13.4244 3.06001 13.1738C3.22215 12.3758 3.82652 11.7082 5.03527 10.3729L6.50097 8.9982V3.4982C6.50097 2.66977 7.17254 1.9982 8.00097 1.9982C8.8294 1.9982 9.50097 2.66977 9.50097 3.4982V7.9982H10.501C11.6056 7.9982 12.501 8.89363 12.501 9.9982V8.9982H13.501C14.6056 8.9982 15.501 9.89363 15.501 10.9982V9.9982L16.8298 10.2197C17.7935 10.3803 18.5001 11.2137 18.501 12.1905V13.8329C18.501 15.8488 18.501 16.8568 18.2093 17.6662C17.9832 18.2935 17.6352 18.8619 17.1926 19.3444C16.7591 19.817 16.4314 20.4018 16.4314 21.0431V21.9982H7.00097V20.723C7.00097 20.2693 6.8467 19.8291 6.56349 19.4746Z" fill="#141B34"/>
<path d="M21.001 4.4982H15.001M21.001 4.4982C21.001 3.79797 19.0067 2.48973 18.501 1.9982M21.001 4.4982C21.001 5.19843 19.0067 6.50667 18.501 6.9982" stroke="#141B34" stroke-width="1.5" stroke-linecap="round" stroke-linejoin="round"/>
<path d="M6.51184 13.5149V3.4859C6.51184 2.66427 7.17868 1.9982 8.00127 1.9982C8.82386 1.9982 9.4907 2.66427 9.4907 3.4859V8.68799M9.4907 8.68799V11.0116M9.4907 8.68799C10.2956 7.56956 12.0982 7.94208 12.4819 9.68095C12.4882 9.70981 12.4934 9.73889 12.4976 9.76813M12.4976 9.76813C12.5088 9.84635 12.5127 9.92566 12.5127 10.0047V11.0076M12.4976 9.76813C12.9908 8.41777 15.2553 8.93276 15.5019 10.861M15.5019 10.861V12.007M15.5019 10.861C15.9058 9.3705 18.5576 10.4122 18.5002 12.1546V15.3331C18.4972 17.0591 18.2091 18.3107 17.183 19.3401C16.235 20.4719 16.458 21.1055 16.4344 22.0018M6.51184 8.99066C5.19291 10.1845 3.69593 11.8161 3.50481 12.2024C2.61549 13.5546 2.93178 14.6154 4.1956 16.4176C5.13614 17.7588 6.39761 19.2535 6.46369 19.3283C7.1363 20.0897 7.00448 20.6959 7.00448 21.9908" stroke="#141B34" stroke-width="1.5" stroke-linecap="round"/>
</svg>
