<svg width="24" height="24" viewBox="0 0 24 24" fill="none" xmlns="http://www.w3.org/2000/svg">
<path opacity="0.4" d="M18.5 12.1942V12.1922C18.4991 11.2154 17.7925 10.382 16.8288 10.2214L15.5 9.99991V10.9999C15.5 9.89534 14.6046 8.99991 13.5 8.99991H12.5V9.99991C12.5 8.89534 11.6046 7.99991 10.5 7.99991H9.5V4.49991C9.5 3.67148 8.82843 2.99991 8 2.99991C7.17157 2.99991 6.5 3.67148 6.5 4.49991V9.99991L5.0343 11.3746C3.82555 12.7099 3.22118 13.3775 3.05904 14.1755C3.00813 14.4261 2.99003 14.682 3.00519 14.9371C3.05345 15.7494 3.55807 16.4927 4.56729 17.9791L5.1309 18.8092C5.76844 19.7482 6.08722 20.2177 6.47767 20.5895C7.16108 21.2402 8.01656 21.6897 8.94702 21.8871C9.47862 21.9999 10.0533 21.9999 11.2027 21.9999C13.2557 21.9999 14.2823 21.9999 15.1066 21.7135C16.5556 21.21 17.6955 20.0907 18.2083 18.6679C18.5 17.8585 18.5 16.8505 18.5 14.8346V12.9999V12.1942Z" fill="#141B34"/>
<path d="M15 4.49991H21M15 4.49991C15 3.79968 16.9943 2.49144 17.5 1.99991M15 4.49991C15 5.20014 16.9943 6.50838 17.5 6.99991" stroke="#141B34" stroke-width="1.5" stroke-linecap="round" stroke-linejoin="round"/>
<path d="M6.53548 14.4434V9.97357M6.53548 9.97357V4.45084C6.53548 3.63011 7.21987 2.96866 8.04114 2.96866C8.86241 2.96866 9.50956 3.63011 9.50956 4.45084V8.45231M6.53548 9.97357C5.21866 11.1661 3.80164 12.6725 3.61082 13.0584C2.72293 14.4091 2.81599 15.0629 3.80548 16.7156C4.64591 18.1193 5.77616 19.6771 5.84214 19.7518C6.51366 20.5124 6.38014 20.5125 7.35347 21.2267C8.22262 21.8295 10.0254 22.2495 14.2519 21.8295C17.6949 21.298 18.5198 18.2945 18.5019 16.8591V13.3146C18.7164 10.3685 17.4842 10.2355 15.2467 9.94549M9.50956 8.45231V10.9794M9.50956 8.45231C10.0679 7.54236 12.0957 7.91009 12.491 9.62839M12.491 9.62839C12.4927 9.63562 12.4943 9.64288 12.4959 9.65016C12.5023 9.67899 12.5074 9.70804 12.5116 9.73725M12.491 9.62839C12.4951 9.66341 12.5019 9.69969 12.5116 9.73725M12.491 9.62839C12.3506 8.43074 15.3874 8.72269 15.511 10.829V11.9737M12.5267 10.9754V9.97357C12.5267 9.8946 12.5228 9.81538 12.5116 9.73725" stroke="#141B34" stroke-width="1.5" stroke-linecap="round"/>
</svg>
