<svg width="24" height="24" viewBox="0 0 24 24" fill="none" xmlns="http://www.w3.org/2000/svg">
<path opacity="0.4" fill-rule="evenodd" clip-rule="evenodd" d="M10.6914 3.11133H12.6914C16.934 3.11133 19.0554 3.11133 20.3734 4.42935C21.6914 5.74737 21.6914 7.86869 21.6914 12.1113C21.6914 16.3539 21.6914 18.4753 20.3734 19.7933C19.0554 21.1113 16.934 21.1113 12.6914 21.1113H10.6914C8.81415 21.1113 7.35221 21.1113 6.19141 20.9971V3.22551C7.35221 3.11133 8.81415 3.11133 10.6914 3.11133ZM14.4788 9.31472L11.5845 12.2091C11.1264 12.6671 11.0165 13.3099 10.9085 13.9411C10.8802 14.1067 10.852 14.2716 10.8176 14.432C10.6886 15.0357 10.624 15.3376 10.7946 15.5081C10.9651 15.6787 11.267 15.6141 11.8707 15.4851C12.0311 15.4507 12.196 15.4225 12.3616 15.3942C12.9928 15.2862 13.6356 15.1763 14.0936 14.7182L16.988 11.8239C17.2797 11.5322 17.4255 11.3863 17.5131 11.2346C17.7508 10.8229 17.7508 10.3156 17.5131 9.90396C17.4255 9.75225 17.2797 9.60641 16.988 9.31474C16.6963 9.02306 16.5505 8.8772 16.3988 8.78961C15.9871 8.5519 15.4798 8.5519 15.0681 8.78961C14.9164 8.8772 14.7705 9.02305 14.4788 9.31472Z" fill="#141B34"/>
<path d="M1.69141 12.1113C1.69141 7.86869 1.69141 5.74737 3.00943 4.42935C4.32745 3.11133 6.44877 3.11133 10.6914 3.11133H12.6914C16.934 3.11133 19.0554 3.11133 20.3734 4.42935C21.6914 5.74737 21.6914 7.86869 21.6914 12.1113C21.6914 16.3539 21.6914 18.4753 20.3734 19.7933C19.0554 21.1113 16.934 21.1113 12.6914 21.1113H10.6914C6.44877 21.1113 4.32745 21.1113 3.00943 19.7933C1.69141 18.4753 1.69141 16.3539 1.69141 12.1113Z" stroke="#141B34" stroke-width="1.5"/>
<path d="M16.7542 8.95807L17.3774 9.57223C17.9048 10.0918 17.9048 10.9343 17.3774 11.4539L14.1119 14.7321C13.8551 14.9852 13.5265 15.1558 13.1694 15.2216L11.1455 15.6544C10.8259 15.7228 10.5414 15.4433 10.6099 15.1282L11.0407 13.1454C11.1074 12.7935 11.2805 12.4698 11.5374 12.2166L14.8445 8.95807C15.3718 8.43846 16.2268 8.43846 16.7542 8.95807Z" stroke="#141B34" stroke-width="1.5" stroke-linecap="round" stroke-linejoin="round"/>
<path d="M6.19141 3.11133V21.1113" stroke="#141B34" stroke-width="1.5" stroke-linejoin="round"/>
</svg>
