<svg width="24" height="24" viewBox="0 0 24 24" fill="none" xmlns="http://www.w3.org/2000/svg">
<path opacity="0.4" d="M3.52513 3.07908C2.5 4.15816 2.5 5.89491 2.5 9.36842V14.6316C2.5 18.1051 2.5 19.8418 3.52513 20.9209C4.55025 22 6.20016 22 9.49998 22H12.5C15.7998 22 17.4497 22 18.4749 20.9209C19.5 19.8418 19.5 18.1051 19.5 14.6316V9.36842C19.5 5.89491 19.5 4.15816 18.4749 3.07908C17.6968 2.26008 16.5589 2.06268 14.6128 2.01511C14.816 2.07093 14.9544 2.2737 14.9178 2.4932C14.7183 3.69043 14.6185 4.28906 14.1989 4.64453C13.7793 5 13.1724 5 11.9586 5H10.0414C8.82762 5 8.22075 5 7.80113 4.64453C7.38151 4.28906 7.28174 3.69044 7.0822 2.4932C7.04562 2.27369 7.18405 2.07093 7.38721 2.01511C5.44114 2.06268 4.30318 2.26008 3.52513 3.07908Z" fill="#141B34"/>
<path d="M12.5 22H9.5C6.20017 22 4.55025 22 3.52513 20.9209C2.5 19.8418 2.5 18.1051 2.5 14.6316V9.36842C2.5 5.89491 2.5 4.15816 3.52513 3.07908C4.55025 2 6.20017 2 9.5 2H12.5C15.7998 2 17.4497 2 18.4749 3.07908C19.5 4.15816 19.5 5.89491 19.5 9.36842V11" stroke="#141B34" stroke-width="1.5" stroke-linecap="round" stroke-linejoin="round"/>
<path d="M18 15L18 22M21.5 18.5L14.5 18.5" stroke="#141B34" stroke-width="1.5" stroke-linecap="round"/>
<path d="M7 2L7.0822 2.4932C7.28174 3.69044 7.38151 4.28906 7.80113 4.64453C8.22075 5 8.82762 5 10.0414 5H11.9586C13.1724 5 13.7793 5 14.1989 4.64453C14.6185 4.28906 14.7183 3.69044 14.9178 2.4932L15 2" stroke="#141B34" stroke-width="1.5" stroke-linecap="round" stroke-linejoin="round"/>
<path d="M7 16H11M7 11H15" stroke="#141B34" stroke-width="1.5" stroke-linecap="round"/>
</svg>
