<svg width="24" height="24" viewBox="0 0 24 24" fill="none" xmlns="http://www.w3.org/2000/svg">
<path opacity="0.4" d="M4.32238 9.34852L7.54206 11.3236C7.86181 11.5197 8.02169 11.6178 8.17825 11.6093C8.3348 11.6008 8.50785 11.467 8.85394 11.1994C10.304 10.0784 12.3419 9.70517 14.3926 9.70517C17.754 9.70517 21.0808 10.7081 21.8412 14.3631C22.1111 15.6607 21.9575 17.0652 21.9575 18.3854C21.9575 19.4853 21.9529 20.6406 20.7121 21.132C17.7218 22.3164 10.9257 22.2619 8.07299 21.132C6.83228 20.6406 6.82768 19.4853 6.82768 18.3854C6.82768 18.1193 6.81876 17.8498 6.80854 17.5784C6.79528 17.2266 6.78865 17.0508 6.73007 16.8944C6.67149 16.738 6.56249 16.6033 6.34449 16.3339L2.45085 11.5224C2.2412 11.2633 2.13637 11.1338 2.07937 10.996C1.97653 10.7473 1.97481 10.4678 2.07461 10.2179C2.12991 10.0793 2.23314 9.94851 2.43961 9.68683C2.66319 9.40346 2.77499 9.26177 2.90573 9.17332C3.1418 9.01362 3.43337 8.96123 3.70949 9.0289C3.86242 9.06637 4.01574 9.16042 4.32238 9.34852Z" fill="#141B34"/>
<path d="M19.001 10V6.5C19.001 4.01472 16.9863 2 14.501 2C12.0157 2 10.001 4.01472 10.001 6.5V10" stroke="#141B34" stroke-width="1.5" stroke-linecap="round"/>
<path d="M2.17081 11.1286L6.6536 16.903C6.69205 16.9526 6.71398 17.0128 6.71634 17.0754L6.80614 19.4597C6.83735 20.2885 7.41355 20.9975 8.22076 21.2003L8.46831 21.2625C12.45 22.2629 16.621 22.2421 20.5924 21.2021C21.3698 20.9985 21.9177 20.3062 21.935 19.5055L21.9954 16.714C22.0809 12.7815 20.8077 11.9343 20.1848 11.3633C18.7434 10.0417 16.5981 9.72394 14.5382 9.72394C10.9657 9.72394 9.24583 10.7395 8.44738 11.4301C8.27207 11.5818 8.01912 11.6181 7.8193 11.5004L3.84499 9.15839C3.49941 8.95474 3.05599 9.03661 2.8066 9.35011L2.17668 10.1419C1.94723 10.4303 1.9448 10.8375 2.17081 11.1286Z" stroke="#141B34" stroke-width="1.5" stroke-linecap="round" stroke-linejoin="round"/>
<path d="M14.501 9V7.5" stroke="#141B34" stroke-width="1.5" stroke-linecap="round"/>
</svg>
