<svg width="24" height="24" viewBox="0 0 24 24" fill="none" xmlns="http://www.w3.org/2000/svg">
<path opacity="0.4" d="M17 17L17.5 6H20.5L21 22H19V19.5C19 17.4317 18.6547 17 17 17Z" fill="#141B34"/>
<path opacity="0.4" d="M16.9992 17C16.9992 11 13 8.5 11.0006 8C9 8.5 5 11 5 17H16.9992Z" fill="#141B34"/>
<path d="M3 22V19.5C3 17.4317 3.34533 17 5 17H17C18.6547 17 19 17.4317 19 19.5V22H3Z" stroke="#141B34" stroke-width="1.5" stroke-linecap="round" stroke-linejoin="round"/>
<path d="M2 22H22" stroke="#141B34" stroke-width="1.5" stroke-linecap="round" stroke-linejoin="round"/>
<path d="M17.5125 6C15.9698 4 18.3389 3 19 2C19.6611 3 22.0302 4 20.4875 6H17.5125Z" stroke="#141B34" stroke-width="1.5" stroke-linecap="round" stroke-linejoin="round"/>
<path d="M17.5 6L17 17M17 22H21L20.5 6" stroke="#141B34" stroke-width="1.5" stroke-linecap="round" stroke-linejoin="round"/>
<path d="M11.0006 8C12.984 10.25 16.9992 11 16.9992 17H5C5 11 9.01516 10.25 10.9986 8" stroke="#141B34" stroke-width="1.5" stroke-linecap="round" stroke-linejoin="round"/>
</svg>
