<svg width="24" height="24" viewBox="0 0 24 24" fill="none" xmlns="http://www.w3.org/2000/svg">
<path opacity="0.4" fill-rule="evenodd" clip-rule="evenodd" d="M12 22C17.5228 22 22 17.5228 22 12C22 6.47715 17.5228 2 12 2C6.47715 2 2 6.47715 2 12C2 17.5228 6.47715 22 12 22ZM15.7297 15.8205C15.1098 14.4559 13.6732 13.5 12 13.5C10.3268 13.5 8.89021 14.4559 8.27026 15.8205C8.01978 16.3718 7.89454 16.6475 8.11112 16.8748C8.32771 17.1022 8.70933 16.9913 9.47257 16.7696C10.1961 16.5595 11.0981 16.3703 12 16.3703C12.9019 16.3703 13.8039 16.5595 14.5274 16.7696C15.2907 16.9913 15.6723 17.1022 15.8889 16.8748C16.1055 16.6475 15.9802 16.3718 15.7297 15.8205Z" fill="#141B34"/>
<circle cx="12" cy="12" r="10" stroke="#141B34" stroke-width="1.5" stroke-linecap="round" stroke-linejoin="round"/>
<path d="M7 8C7.20949 8.5826 7.77476 9 8.43922 9C9.10367 9 9.66894 8.5826 9.87843 8M14.1216 8C14.3311 8.5826 14.8963 9 15.5608 9C16.2252 9 16.7905 8.5826 17 8" stroke="#141B34" stroke-width="1.5" stroke-linecap="round" stroke-linejoin="round"/>
<path d="M12 13.5C13.6732 13.5 15.1098 14.4559 15.7297 15.8205C15.9802 16.3718 16.1055 16.6475 15.8889 16.8748C15.6723 17.1022 15.2907 16.9913 14.5274 16.7696C13.8039 16.5595 12.9019 16.3703 12 16.3703C11.0981 16.3703 10.1961 16.5595 9.47257 16.7696C8.70933 16.9913 8.32771 17.1022 8.11112 16.8748C7.89454 16.6475 8.01978 16.3718 8.27026 15.8205C8.89021 14.4559 10.3268 13.5 12 13.5Z" stroke="#141B34" stroke-width="1.5" stroke-linecap="round" stroke-linejoin="round"/>
</svg>
