<svg width="24" height="24" viewBox="0 0 24 24" fill="none" xmlns="http://www.w3.org/2000/svg">
<path opacity="0.4" d="M2.25098 8.75293V12.7529C2.25098 15.1099 2.25098 16.2884 2.98321 17.0207C3.47008 17.5075 4.15426 17.6707 5.25098 17.7253C5.26572 16.6335 6.15561 15.7529 7.25098 15.7529C8.35555 15.7529 9.25098 16.6483 9.25098 17.7529H15.251C15.251 16.6483 16.1464 15.7529 17.251 15.7529C18.3464 15.7529 19.2361 16.6335 19.2508 17.7254C20.3475 17.6707 21.0319 17.5075 21.5188 17.0207C22.251 16.2884 22.251 15.1099 22.251 12.7529V10.7529L19.251 5.82588H14.6042C14.3074 4.91257 13.5914 4.19651 12.6781 3.89976C12.2262 3.75293 11.6678 3.75293 10.551 3.75293H7.25098C4.89396 3.75293 3.71545 3.75293 2.98321 4.48516C2.25098 5.2174 2.25098 6.39591 2.25098 8.75293Z" fill="#141B34"/>
<path d="M19.251 10.7529H22.251V12.7529C22.251 15.1099 22.251 16.2884 21.5188 17.0207C21.0319 17.5075 20.3477 17.6707 19.251 17.7253M5.25098 17.7253C4.15426 17.6707 3.47008 17.5075 2.98321 17.0207C2.25098 16.2884 2.25098 15.1099 2.25098 12.7529V8.75293C2.25098 6.39591 2.25098 5.2174 2.98321 4.48516C3.71545 3.75293 4.89396 3.75293 7.25098 3.75293H10.551C11.6678 3.75293 12.2262 3.75293 12.6781 3.89976C13.5914 4.19651 14.3074 4.91257 14.6042 5.82588C14.751 6.27778 14.751 6.83616 14.751 7.95293C14.751 9.17372 14.751 9.78413 14.4167 10.1969C14.3508 10.2783 14.2764 10.3527 14.195 10.4186C13.7822 10.7529 13.1718 10.7529 11.951 10.7529H8.25098M15.251 17.7529H9.25098" stroke="#141B34" stroke-width="1.5" stroke-linecap="round" stroke-linejoin="round"/>
<path d="M17.251 19.7529C18.3555 19.7529 19.251 18.8575 19.251 17.7529C19.251 16.6484 18.3555 15.7529 17.251 15.7529C16.1464 15.7529 15.251 16.6484 15.251 17.7529C15.251 18.8575 16.1464 19.7529 17.251 19.7529Z" stroke="#141B34" stroke-width="1.5"/>
<path d="M7.25098 19.7529C8.35555 19.7529 9.25098 18.8575 9.25098 17.7529C9.25098 16.6484 8.35555 15.7529 7.25098 15.7529C6.14641 15.7529 5.25098 16.6484 5.25098 17.7529C5.25098 18.8575 6.14641 19.7529 7.25098 19.7529Z" stroke="#141B34" stroke-width="1.5"/>
<path d="M14.751 5.75293H16.5722C18.0276 5.75293 18.7552 5.75293 19.3474 6.10664C19.9396 6.46035 20.2846 7.10104 20.9746 8.38243L22.251 10.7529" stroke="#141B34" stroke-width="1.5" stroke-linecap="round" stroke-linejoin="round"/>
<path d="M10.251 12.753C10.251 12.753 9.57888 12.1966 8.98827 11.6691C8.57073 11.3333 8.25098 11.0456 8.25098 10.7578C8.25098 10.5028 8.50047 10.2658 8.90678 9.89446C9.48286 9.41483 10.251 8.75296 10.251 8.75296" stroke="#141B34" stroke-width="1.5" stroke-linecap="round" stroke-linejoin="round"/>
</svg>
