<svg width="24" height="24" viewBox="0 0 24 24" fill="none" xmlns="http://www.w3.org/2000/svg">
<path opacity="0.4" d="M5.57757 15.4816C4.1628 16.324 0.453365 18.0441 2.71266 20.1966C3.81631 21.248 5.04549 22 6.59087 22H15.4091C16.9545 22 18.1837 21.248 19.2873 20.1966C21.5466 18.0441 17.8372 16.324 16.4224 15.4816C13.1048 13.5061 8.89519 13.5061 5.57757 15.4816Z" fill="#141B34"/>
<path d="M12.5 22H6.59087C5.04549 22 3.81631 21.248 2.71266 20.1966C0.453365 18.0441 4.1628 16.324 5.57757 15.4816C7.67837 14.2307 10.1368 13.7719 12.5 14.1052C13.3575 14.2261 14.1926 14.4514 15 14.7809" stroke="#141B34" stroke-width="1.5" stroke-linecap="round" stroke-linejoin="round"/>
<path d="M15.5 6.5C15.5 8.98528 13.4853 11 11 11C8.51472 11 6.5 8.98528 6.5 6.5C6.5 4.01472 8.51472 2 11 2C13.4853 2 15.5 4.01472 15.5 6.5Z" stroke="#141B34" stroke-width="1.5"/>
<path d="M15 18.5H22" stroke="#141B34" stroke-width="1.5" stroke-linecap="round"/>
</svg>
