<svg width="24" height="24" viewBox="0 0 24 24" fill="none" xmlns="http://www.w3.org/2000/svg">
<path opacity="0.4" d="M5.34646 16.0505C5.52444 15.9498 5.68784 15.8574 5.82855 15.7736C8.76427 14.0255 12.3985 13.8243 15.495 15.1699C14.733 15.83 14.251 16.8047 14.251 17.892C14.251 19.8802 15.8628 21.492 17.851 21.492C18.0131 21.492 18.1728 21.4813 18.3293 21.4605C17.5385 21.9732 16.6663 22.292 15.6601 22.292H6.84185C5.29647 22.292 4.06729 21.54 2.96364 20.4886C0.929046 18.5502 3.73496 16.9624 5.34646 16.0505Z" fill="#141B34"/>
<path d="M13.251 22.292H6.84185C5.29647 22.292 4.06729 21.54 2.96364 20.4886C0.704343 18.3361 4.41378 16.616 5.82855 15.7736C7.78156 14.6107 10.0437 14.1324 12.251 14.3386" stroke="#141B34" stroke-width="1.5" stroke-linecap="round" stroke-linejoin="round"/>
<path d="M15.751 6.79199C15.751 9.27727 13.7363 11.292 11.251 11.292C8.7657 11.292 6.75098 9.27727 6.75098 6.79199C6.75098 4.30671 8.7657 2.29199 11.251 2.29199C13.7363 2.29199 15.751 4.30671 15.751 6.79199Z" stroke="#141B34" stroke-width="1.5"/>
<path d="M20.651 20.692L22.251 22.292M21.451 17.892C21.451 15.9038 19.8392 14.292 17.851 14.292C15.8628 14.292 14.251 15.9038 14.251 17.892C14.251 19.8802 15.8628 21.492 17.851 21.492C19.8392 21.492 21.451 19.8802 21.451 17.892Z" stroke="#141B34" stroke-width="1.5" stroke-linecap="round" stroke-linejoin="round"/>
</svg>
