<svg width="24" height="24" viewBox="0 0 24 24" fill="none" xmlns="http://www.w3.org/2000/svg">
<path opacity="0.4" fill-rule="evenodd" clip-rule="evenodd" d="M22 12C22 14.837 20.8186 17.398 18.921 19.218C18.6043 18.4167 17.4037 17.7616 16.5924 17.3189C16.454 17.2434 16.3268 17.174 16.2174 17.1112C13.6371 15.6296 10.3629 15.6296 7.78256 17.1112C7.67312 17.174 7.54602 17.2434 7.40759 17.3189C6.59628 17.7616 5.39574 18.4167 5.07897 19.218C3.18136 17.398 2 14.837 2 12C2 6.47715 6.47715 2 12 2C17.5228 2 22 6.47715 22 12ZM12 13.5C13.933 13.5 15.5 11.933 15.5 10C15.5 8.067 13.933 6.5 12 6.5C10.067 6.5 8.5 8.067 8.5 10C8.5 11.933 10.067 13.5 12 13.5Z" fill="#141B34"/>
<path d="M7.78256 17.1112C6.68218 17.743 3.79706 19.0331 5.55429 20.6474C6.41269 21.436 7.36872 22 8.57068 22H15.4293C16.6313 22 17.5873 21.436 18.4457 20.6474C20.2029 19.0331 17.3178 17.743 16.2174 17.1112C13.6371 15.6296 10.3629 15.6296 7.78256 17.1112Z" stroke="#141B34" stroke-width="1.5" stroke-linecap="round" stroke-linejoin="round"/>
<path d="M15.5 10C15.5 11.933 13.933 13.5 12 13.5C10.067 13.5 8.5 11.933 8.5 10C8.5 8.067 10.067 6.5 12 6.5C13.933 6.5 15.5 8.067 15.5 10Z" stroke="#141B34" stroke-width="1.5"/>
<path d="M2.854 16C2.30501 14.7664 2 13.401 2 11.9646C2 6.46129 6.47715 2 12 2C17.5228 2 22 6.46129 22 11.9646C22 13.401 21.695 14.7664 21.146 16" stroke="#141B34" stroke-width="1.5" stroke-linecap="round"/>
</svg>
