<svg width="24" height="24" viewBox="0 0 24 24" fill="none" xmlns="http://www.w3.org/2000/svg">
<path opacity="0.4" fill-rule="evenodd" clip-rule="evenodd" d="M13.6723 16.9638C12.8589 19.3131 10.6269 21 8.00098 21C4.68727 21 2.00098 18.3137 2.00098 15C2.00098 11.6863 4.68727 9 8.00098 9H10.9658C11.3002 9 11.6124 9.1671 11.7979 9.4453L12.3526 10.2774C12.4453 10.4164 12.6014 10.5 12.7686 10.5H14.9289C15.0957 10.5 15.2427 9.90409 15.3259 9.56731C15.3481 9.47738 15.3657 9.40593 15.3779 9.36924C15.4514 9.14873 15.6578 9 15.8902 9H20.4658C20.9648 9 21.2143 9 21.4091 9.08705C22.0015 9.35185 22.0013 9.94082 22.001 10.501C22.001 10.5124 22.001 10.5238 22.001 10.5352C22.001 11.3725 22.001 11.7912 21.8979 12.1743C21.6041 13.2655 20.7692 13.8217 19.8827 14.4122C19.8627 14.4255 19.8427 14.4389 19.8226 14.4523C19.2304 14.847 18.7385 15 18.0136 15H16.001C15.1634 15 14.7445 15 14.4842 15.1854C14.2238 15.3708 14.0399 15.9019 13.6723 16.9638ZM8.00098 17C9.10555 17 10.001 16.1046 10.001 15C10.001 13.8954 9.10555 13 8.00098 13C6.89641 13 6.00098 13.8954 6.00098 15C6.00098 16.1046 6.89641 17 8.00098 17Z" fill="#141B34"/>
<path d="M3.10457 11.5252C4.55306 9.4378 7.069 8.86485 8.53848 9.00054H11.0617C11.5895 9.09126 11.7348 9.30978 12.3887 10.3428C12.5076 10.6673 14.4429 10.4487 14.9515 10.5017C15.5099 9.96055 14.9515 8.85082 16.1919 9.00826C18.3203 9.00826 20.3598 8.91699 21.2934 9.0542C21.6789 9.11085 21.8642 9.45879 21.9198 9.84439C22.143 11.3942 21.8772 12.5285 21.6201 12.7882C20.9333 14.004 18.9511 15.1828 17.9685 14.9959C15.1339 14.9959 14.5209 14.9221 14.2751 15.3924L13.4109 17.6267C12.8338 18.8562 10.8106 21.283 7.41703 20.9705C4.02343 20.6581 2.54785 17.9449 2.24485 16.6574C1.94185 15.8329 1.65512 13.6141 3.10457 11.5252Z" stroke="#141B34" stroke-width="1.5" stroke-linecap="round" stroke-linejoin="round"/>
<path d="M8.00098 17C9.10555 17 10.001 16.1046 10.001 15C10.001 13.8954 9.10555 13 8.00098 13C6.89641 13 6.00098 13.8954 6.00098 15C6.00098 16.1046 6.89641 17 8.00098 17Z" stroke="#141B34" stroke-width="1.5" stroke-linejoin="round"/>
<path d="M13.501 5V3M11.001 6L10.001 5M16.001 6L17.001 5" stroke="#141B34" stroke-width="1.5" stroke-linecap="round" stroke-linejoin="round"/>
</svg>
