<svg width="24" height="24" viewBox="0 0 24 24" fill="none" xmlns="http://www.w3.org/2000/svg">
<path opacity="0.4" d="M3.0014 10.9896C3.34179 10.1536 4.90998 8.49792 8.49805 8.49792C8.79946 8.49792 9.59012 8.19468 9.5492 6.55168C9.53252 5.06667 10.0738 2.12886 12.3445 2.00216C12.7945 2 13.2836 2 13.8182 2C15.6173 2 16.5168 2 17.2352 2.2522C18.3902 2.65765 19.3012 3.5151 19.732 4.60214C20 5.27832 20 6.12494 20 7.81818V17C20 17.9293 20 18.394 19.9231 18.7804C19.6075 20.3671 18.3671 21.6075 16.7804 21.9231C16.394 22 15.9293 22 15 22H10.7273C7.46607 22 5.83546 22 4.70307 21.2022C4.37862 20.9736 4.09058 20.7025 3.8477 20.3971C3 19.3313 3 17.7966 3 14.7273V12.1818C3 11.7548 3 11.3586 3.0014 10.9896Z" fill="#141B34"/>
<path d="M7.00391 13L8.65097 15.5M8.65097 15.5L10.298 18M8.65097 15.5L10.298 13M8.65097 15.5L7.00391 18M21.0039 18H20.1804C19.4039 18 19.0157 18 18.7745 17.7559C18.5333 17.5118 18.5333 17.119 18.5333 16.3333V13M12.3568 17.9999L12.6985 13.8346C12.7275 13.4813 12.742 13.3046 12.8489 13.2716C12.9557 13.2386 13.0652 13.3771 13.284 13.6539L14.1568 14.7579C14.2755 14.9081 14.3349 14.9831 14.4141 14.9831C14.4932 14.9831 14.5526 14.9081 14.6713 14.7579L15.5446 13.6533C15.7633 13.3767 15.8726 13.2384 15.9794 13.2713C16.0863 13.3042 16.1009 13.4807 16.1301 13.8338L16.4745 17.9999" stroke="#141B34" stroke-width="1.5" stroke-linecap="round" stroke-linejoin="round"/>
<path d="M15 22H10.7273C7.46607 22 5.83546 22 4.70307 21.2022C4.37862 20.9736 4.09058 20.7025 3.8477 20.3971C3 19.3313 3 17.7966 3 14.7273V12.1818C3 9.21865 3 7.73706 3.46894 6.55375C4.22281 4.65142 5.81714 3.15088 7.83836 2.44135C9.09563 2 10.6698 2 13.8182 2C15.6173 2 16.5168 2 17.2352 2.2522C18.3902 2.65765 19.3012 3.5151 19.732 4.60214C20 5.27832 20 6.12494 20 7.81818V10" stroke="#141B34" stroke-width="1.5" stroke-linecap="round" stroke-linejoin="round"/>
<path d="M3 12C3 10.1591 4.49238 8.66667 6.33333 8.66667C6.99912 8.66667 7.78404 8.78333 8.43137 8.60988C9.00652 8.45576 9.45576 8.00652 9.60988 7.43136C9.78333 6.78404 9.66667 5.99912 9.66667 5.33333C9.66667 3.49238 11.1591 2 13 2" stroke="#141B34" stroke-width="1.5" stroke-linecap="round" stroke-linejoin="round"/>
</svg>
