<svg xmlns="http://www.w3.org/2000/svg" viewBox="0 0 512 512"><!--! Font Awesome Pro 6.7.2 by @fontawesome - https://fontawesome.com License - https://fontawesome.com/license (Commercial License) Copyright 2024 Fonticons, Inc. --><path d="M160.2 80l191.7 0c26.2 0 49 18.2 54.7 43.9l22.4 101c-4.2-.6-8.6-.9-12.9-.9l-22.4 0c-8.3-14.3-23.8-24-41.6-24l-32 0c-17.8 0-33.3 9.7-41.6 24l-44.8 0c-8.3-14.3-23.8-24-41.6-24l-32 0c-17.8 0-33.3 9.7-41.6 24L96 224c-4.4 0-8.7 .3-12.9 .9l22.4-101C111.2 98.2 133.9 80 160.2 80zM484.2 252.5l-30.9-139C442.8 65.9 400.6 32 351.8 32L160.2 32c-48.7 0-90.9 33.9-101.5 81.4l-30.9 139C10.6 269.8 0 293.7 0 320l0 64 0 16 0 32 0 24c0 13.3 10.7 24 24 24s24-10.7 24-24l0-24 416 0 0 24c0 13.3 10.7 24 24 24s24-10.7 24-24l0-24 0-32 0-16 0-64c0-26.3-10.6-50.2-27.8-67.5zM176 184a40 40 0 1 0 0-80 40 40 0 1 0 0 80zm160 0a40 40 0 1 0 0-80 40 40 0 1 0 0 80zM96 272l320 0c26.5 0 48 21.5 48 48l0 64L48 384l0-64c0-26.5 21.5-48 48-48zm48 56a32 32 0 1 0 -64 0 32 32 0 1 0 64 0zm256 32a32 32 0 1 0 0-64 32 32 0 1 0 0 64z"/></svg>