<svg xmlns="http://www.w3.org/2000/svg" width="24" height="24" viewBox="0 0 24 24">
<path d="M20.832 7.32c0.002-0.011 0.003-0.023 0.003-0.036s-0.001-0.025-0.004-0.037l0 0.001c-0.823-1.498-1.967-2.727-3.345-3.624l-0.039-0.024c-1.524-1.008-3.394-1.608-5.405-1.608-0.015 0-0.030 0-0.045 0h0.002c-0.557 0-1.008 0.451-1.008 1.008v0 18c0 0.557 0.451 1.008 1.008 1.008v0h0.288c5.397-0.167 9.708-4.582 9.708-10.004 0-1.714-0.431-3.327-1.19-4.738l0.026 0.053zM13.008 4.056c0.92 0.123 1.754 0.385 2.518 0.765l-0.046-0.021-2.472 4.32zM13.008 13.128l4.152-7.224c0.614 0.521 1.138 1.122 1.565 1.792l0.019 0.032-5.736 9.96zM14.16 19.68l5.592-9.672c0.152 0.597 0.24 1.282 0.24 1.988 0 0.001 0 0.003 0 0.004v-0c0 0.006 0 0.014 0 0.022 0 3.636-2.442 6.701-5.776 7.645l-0.056 0.014z"></path>
</svg>
