<svg xmlns="http://www.w3.org/2000/svg" width="24" height="24" viewBox="0 0 24 24">
<path d="M12 4.992c-0.557 0-1.008 0.451-1.008 1.008v0 12c0 0.557 0.451 1.008 1.008 1.008s1.008-0.451 1.008-1.008v0-12c0-0.557-0.451-1.008-1.008-1.008v0zM10.704 11.28l-2.496-2.496c-0.186-0.234-0.471-0.382-0.79-0.382-0.557 0-1.008 0.451-1.008 1.008 0 0.319 0.149 0.604 0.38 0.789l0.002 0.002 0.792 0.792h-4.584c-0.557 0-1.008 0.451-1.008 1.008s0.451 1.008 1.008 1.008v0h4.584l-0.792 0.792c-0.18 0.182-0.291 0.432-0.291 0.708s0.111 0.526 0.291 0.708l-0-0c0.182 0.18 0.432 0.291 0.708 0.291s0.526-0.111 0.708-0.291l2.496-2.496c0.091-0.094 0.164-0.205 0.214-0.329l0.002-0.007c0.052-0.113 0.082-0.245 0.082-0.384s-0.030-0.271-0.085-0.39l0.002 0.006c-0.052-0.131-0.125-0.242-0.216-0.336l0 0zM21 10.992h-4.584l0.792-0.792c0.136-0.17 0.218-0.388 0.218-0.626 0-0.557-0.451-1.008-1.008-1.008-0.237 0-0.456 0.082-0.628 0.219l0.002-0.002-2.496 2.496c-0.187 0.183-0.303 0.438-0.303 0.72s0.116 0.537 0.302 0.72l2.496 2.496c0.182 0.18 0.432 0.291 0.708 0.291s0.526-0.111 0.708-0.291l-0 0c0.18-0.182 0.291-0.432 0.291-0.708s-0.111-0.526-0.291-0.708l-0.792-0.792h4.584c0.557 0 1.008-0.451 1.008-1.008s-0.451-1.008-1.008-1.008v0z"></path>
</svg>
