<svg xmlns="http://www.w3.org/2000/svg" width="24" height="24" viewBox="0 0 24 24">
<path d="M21.912 6.624c-0.099-0.248-0.286-0.442-0.522-0.549l-0.006-0.003c-0.111-0.046-0.239-0.072-0.374-0.072-0.003 0-0.007 0-0.010 0h-4.991c-0.486 0.078-0.853 0.494-0.853 0.996s0.367 0.918 0.847 0.995l0.006 0.001h2.592l-5.592 5.592-3.288-3.288c-0.183-0.187-0.438-0.303-0.72-0.303s-0.537 0.116-0.72 0.302l-6 6c-0.18 0.182-0.291 0.432-0.291 0.708s0.111 0.526 0.291 0.708l-0-0c0.183 0.187 0.438 0.303 0.72 0.303s0.537-0.116 0.72-0.302l0-0 5.28-5.304 3.288 3.312c0.182 0.18 0.432 0.291 0.708 0.291s0.526-0.111 0.708-0.291l-0 0 6.288-6.312v2.592c0 0.557 0.451 1.008 1.008 1.008s1.008-0.451 1.008-1.008v0-4.992c-0.007-0.141-0.042-0.272-0.099-0.39l0.003 0.006z"></path>
</svg>
