<svg xmlns="http://www.w3.org/2000/svg" width="24" height="24" viewBox="0 0 24 24">
<path d="M18 1.992h-12c-0.557 0-1.008 0.451-1.008 1.008v0 18c0.002 0.555 0.453 1.004 1.008 1.004 0.247 0 0.474-0.089 0.65-0.237l-0.002 0.001 5.352-4.488 5.28 4.44c0.182 0.178 0.431 0.288 0.706 0.288 0.005 0 0.010-0 0.015-0h-0.001c0.141-0.001 0.273-0.036 0.389-0.098l-0.005 0.002c0.363-0.152 0.616-0.502 0.624-0.911l0-0.001v-18c0-0.557-0.451-1.008-1.008-1.008v0zM16.992 18.864l-4.344-3.672c-0.174-0.147-0.401-0.236-0.648-0.236s-0.474 0.089-0.649 0.237l0.002-0.001-4.344 3.672v-14.856h9.984z"></path>
</svg>
