<svg xmlns="http://www.w3.org/2000/svg" width="24" height="24" viewBox="0 0 24 24">
<path d="M19.008 4.008h-2.016v-1.008c-0.078-0.486-0.494-0.853-0.996-0.853s-0.918 0.367-0.995 0.847l-0.001 0.006v1.008h-6v-1.008c-0.078-0.486-0.494-0.853-0.996-0.853s-0.918 0.367-0.995 0.847l-0.001 0.006v1.008h-2.016c-1.657 0-3 1.343-3 3v0 12c0 1.657 1.343 3 3 3v0h14.016c1.657 0 3-1.343 3-3v0-12c0-1.657-1.343-3-3-3v0zM19.992 19.008c-0.013 0.538-0.446 0.971-0.983 0.984l-0.001 0h-14.016c-0.538-0.013-0.971-0.446-0.984-0.983l-0-0.001v-7.008h15.984zM19.992 10.008h-15.984v-3c0-0 0-0 0-0 0-0.548 0.438-0.994 0.983-1.008l0.001-0h2.016v1.008c0.078 0.486 0.494 0.853 0.996 0.853s0.918-0.367 0.995-0.847l0.001-0.006v-1.008h6v1.008c0.078 0.486 0.494 0.853 0.996 0.853s0.918-0.367 0.995-0.847l0.001-0.006v-1.008h2.016c0.546 0.013 0.984 0.459 0.984 1.008 0 0 0 0 0 0v-0z"></path>
</svg>
