<svg xmlns="http://www.w3.org/2000/svg" width="24" height="24" viewBox="0 0 24 24">
<path d="M15 1.992c-3.419 0.002-6.266 2.452-6.881 5.692l-0.007 0.044c-1.717 0.94-2.91 2.651-3.118 4.654l-0.002 0.026c-1.751 0.801-2.945 2.538-2.945 4.553 0 2.757 2.235 4.992 4.992 4.992 2.015 0 3.752-1.194 4.54-2.914l0.013-0.031c2.025-0.204 3.734-1.389 4.664-3.065l0.016-0.031c3.345-0.571 5.858-3.449 5.858-6.913 0-3.87-3.138-7.008-7.008-7.008-0.043 0-0.086 0-0.129 0.001l0.006-0zM10.008 17.424c0 0.096 0 0.216-0.072 0.312-0.342 1.309-1.513 2.259-2.907 2.259-1.657 0-3-1.343-3-3 0-1.394 0.95-2.565 2.238-2.902l0.021-0.005 0.288-0.096c0.168-0.034 0.36-0.054 0.558-0.054 1.617 0 2.928 1.311 2.928 2.928 0 0.197-0.020 0.39-0.057 0.576l0.003-0.019zM15 13.752c-0.015 0.077-0.032 0.142-0.051 0.205l0.003-0.013c-0.048 0.215-0.106 0.4-0.177 0.577l0.009-0.025c-0.477 1.18-1.466 2.067-2.684 2.394l-0.028 0.006c0-0.192 0-0.36-0.048-0.528s0-0.288 0-0.408-0.12-0.384-0.192-0.576-0.072-0.24-0.12-0.36c-0.093-0.215-0.19-0.397-0.298-0.569l0.010 0.017c0-0.072-0.096-0.192-0.144-0.264-0.187-0.278-0.384-0.521-0.601-0.745l0.001 0.001-0.216-0.168c-0.16-0.148-0.332-0.29-0.512-0.421l-0.016-0.011c-0.095-0.064-0.205-0.128-0.319-0.184l-0.017-0.008c-0.141-0.089-0.307-0.177-0.479-0.254l-0.026-0.010c-0.115-0.047-0.252-0.089-0.393-0.117l-0.015-0.003c-0.141-0.063-0.309-0.12-0.483-0.163l-0.021-0.005c-0.144 0-0.288 0-0.456-0.048l-0.6-0.072c0.333-1.246 1.22-2.235 2.373-2.702l0.027-0.010c0.148-0.063 0.324-0.121 0.506-0.164l0.022-0.004 0.192-0.048c0.22-0.046 0.472-0.072 0.731-0.072 0.005 0 0.009 0 0.014 0h-0.001c2.214 0 4.008 1.794 4.008 4.008v0c0 0.001 0 0.003 0 0.004 0 0.262-0.026 0.518-0.076 0.765l0.004-0.025zM16.992 13.608v-0.6c0-3.314-2.686-6-6-6v0h-0.6c0.801-1.751 2.538-2.945 4.553-2.945 2.757 0 4.992 2.235 4.992 4.992 0 2.015-1.194 3.752-2.914 4.54l-0.031 0.013z"></path>
</svg>
