<svg xmlns="http://www.w3.org/2000/svg" width="24" height="24" viewBox="0 0 24 24">
<path d="M12 6c-0.557 0-1.008 0.451-1.008 1.008v0 3.264l-1.080-0.648c-0.145-0.085-0.318-0.135-0.504-0.135-0.558 0-1.011 0.452-1.011 1.011 0 0.373 0.202 0.698 0.502 0.873l0.005 0.003 2.592 1.488c0.145 0.085 0.318 0.135 0.504 0.135 0.554 0 1.003-0.446 1.008-0.999v-4.992c0-0.557-0.451-1.008-1.008-1.008v0zM12 1.992c-5.527 0-10.008 4.481-10.008 10.008s4.481 10.008 10.008 10.008c5.527 0 10.008-4.481 10.008-10.008v0c0-5.527-4.481-10.008-10.008-10.008v0zM12 19.992c-4.414 0-7.992-3.578-7.992-7.992s3.578-7.992 7.992-7.992c4.414 0 7.992 3.578 7.992 7.992v0c-0.014 4.408-3.584 7.978-7.991 7.992h-0.001z"></path>
</svg>
