<svg xmlns="http://www.w3.org/2000/svg" width="24" height="24" viewBox="0 0 24 24">
<path d="M12 6c-0.557 0-1.008 0.451-1.008 1.008v0 4.368l-2.424 1.224c-0.331 0.17-0.553 0.509-0.553 0.9 0 0.557 0.452 1.009 1.009 1.009 0.166 0 0.323-0.040 0.462-0.112l-0.006 0.003 2.976-1.512c0.327-0.168 0.548-0.502 0.552-0.887v-4.993c0-0.557-0.451-1.008-1.008-1.008v0zM12 1.992c-5.527 0-10.008 4.481-10.008 10.008s4.481 10.008 10.008 10.008c5.527 0 10.008-4.481 10.008-10.008v0c0-5.527-4.481-10.008-10.008-10.008v0zM12 19.992c-4.414 0-7.992-3.578-7.992-7.992s3.578-7.992 7.992-7.992c4.414 0 7.992 3.578 7.992 7.992v0c-0.014 4.408-3.584 7.978-7.991 7.992h-0.001z"></path>
</svg>
