<svg xmlns="http://www.w3.org/2000/svg" width="24" height="24" viewBox="0 0 24 24">
<path d="M19.008 1.992h-14.016c-1.657 0-3 1.343-3 3v0 10.008c0 1.657 1.343 3 3 3v0h11.592l3.696 3.72c0.182 0.178 0.431 0.288 0.706 0.288 0.005 0 0.010-0 0.015-0h-0.001c0.141-0.001 0.273-0.036 0.389-0.098l-0.005 0.002c0.363-0.152 0.616-0.502 0.624-0.911l0-0.001v-16.008c0-1.657-1.343-3-3-3v0zM5.76 16.008h-0.768c-0.546-0.013-0.984-0.459-0.984-1.008 0-0 0-0 0-0v0-0.432l3.288-3.288c0.182-0.18 0.432-0.291 0.708-0.291s0.526 0.111 0.708 0.291l-0-0 0.864 0.888zM19.992 18.6l-2.28-2.304c-0.182-0.178-0.431-0.288-0.706-0.288-0.005 0-0.010 0-0.015 0h-8.399l6.72-6.72c0.181-0.173 0.426-0.279 0.696-0.279s0.515 0.106 0.696 0.279l-0-0 3.288 3.288zM19.992 9.768l-1.872-1.872c-0.543-0.544-1.294-0.881-2.124-0.881s-1.581 0.337-2.124 0.881l-0 0-2.88 2.856-0.864-0.864c-0.551-0.528-1.299-0.853-2.124-0.853s-1.573 0.325-2.125 0.854l0.001-0.001-1.872 1.872v-6.768c0.013-0.538 0.446-0.971 0.983-0.984l0.001-0h14.016c0.538 0.013 0.971 0.446 0.984 0.983l0 0.001z"></path>
</svg>
