<svg xmlns="http://www.w3.org/2000/svg" width="24" height="24" viewBox="0 0 24 24">
<path d="M14.688 6.624h-7.008l2.928-2.904c0.187-0.183 0.303-0.438 0.303-0.72s-0.116-0.537-0.302-0.72l-0-0c-0.182-0.18-0.432-0.291-0.708-0.291s-0.526 0.111-0.708 0.291l0-0-4.584 4.632c-0.091 0.094-0.164 0.205-0.214 0.329l-0.002 0.007c-0.048 0.114-0.076 0.245-0.076 0.384s0.028 0.27 0.078 0.391l-0.002-0.007c0.058 0.12 0.13 0.223 0.216 0.312l-0-0 4.632 4.68c0.179 0.176 0.425 0.285 0.695 0.288h0.001c0.553-0.005 0.999-0.454 0.999-1.008 0-0.27-0.106-0.515-0.279-0.696l0 0-2.928-2.952h7.008c1.657 0 3 1.343 3 3v0 9.36c0.078 0.486 0.494 0.853 0.996 0.853s0.918-0.367 0.995-0.847l0.001-0.006v-9.36c0-0.007 0-0.016 0-0.024 0-2.757-2.235-4.992-4.992-4.992-0.017 0-0.034 0-0.051 0l0.003-0z"></path>
</svg>
