<svg xmlns="http://www.w3.org/2000/svg" width="24" height="24" viewBox="0 0 24 24">
<path d="M12 1.992c-5.527 0-10.008 4.481-10.008 10.008s4.481 10.008 10.008 10.008c5.527 0 10.008-4.481 10.008-10.008v0c0-5.527-4.481-10.008-10.008-10.008v0zM12 4.008c0.007-0 0.016-0 0.024-0 2.134 0 4.071 0.841 5.499 2.211l-0.003-0.003c-1.386 0.829-2.989 1.568-4.672 2.133l-0.176 0.051c-0.902-1.546-1.846-2.88-2.892-4.124l0.036 0.044c0.654-0.196 1.405-0.31 2.183-0.312h0.001zM7.896 5.16c0.999 1.136 1.925 2.391 2.74 3.721l0.068 0.119c-1.8 0.467-3.867 0.738-5.996 0.744h-0.364c0.591-1.955 1.855-3.554 3.517-4.564l0.035-0.020zM6 17.304c-1.237-1.388-1.992-3.227-1.992-5.243 0-0.021 0-0.043 0-0.064l-0 0.003v-0.288h0.672c2.505-0.025 4.914-0.391 7.196-1.055l-0.188 0.047c0.312 0.624 0.624 1.248 0.912 1.896-1.648 0.586-3.073 1.4-4.322 2.42l0.026-0.020-0.312 0.24c-0.711 0.644-1.362 1.318-1.966 2.033l-0.026 0.031zM12 19.992c-0.004 0-0.009 0-0.015 0-1.661 0-3.203-0.511-4.476-1.385l0.027 0.017c0.495-0.568 1.005-1.085 1.544-1.57l0.016-0.014 0.312-0.264c1.136-0.954 2.467-1.72 3.919-2.229l0.088-0.027c0.535 1.391 1.016 3.065 1.358 4.788l0.034 0.204c-0.817 0.304-1.761 0.48-2.745 0.48-0.022 0-0.044-0-0.066-0l0.003 0zM16.632 18.504c-0.38-1.763-0.818-3.257-1.35-4.706l0.078 0.242h0.336c0.018-0.005 0.039-0.008 0.060-0.008s0.042 0.003 0.062 0.008l-0.002-0h0.672c1.11 0.002 2.174 0.195 3.162 0.549l-0.066-0.021c-0.566 1.627-1.594 2.974-2.927 3.919l-0.025 0.017zM16.512 12h-0.624c-0.061-0.009-0.132-0.013-0.204-0.013s-0.143 0.005-0.212 0.014l0.008-0.001c-0.295 0.018-0.567 0.052-0.833 0.102l0.041-0.006h-0.096c-0.312-0.672-0.6-1.32-0.936-1.992 1.969-0.683 3.666-1.494 5.252-2.466l-0.116 0.066c0.753 1.197 1.2 2.653 1.2 4.213 0 0.029-0 0.059-0 0.088l0-0.004v0.504c-1.006-0.32-2.164-0.505-3.365-0.505-0.040 0-0.081 0-0.121 0.001l0.006-0z"></path>
</svg>
