<svg xmlns="http://www.w3.org/2000/svg" width="24" height="24" viewBox="0 0 24 24">
<path d="M21.624 5.112c-0.17-0.134-0.387-0.216-0.623-0.216-0.077 0-0.152 0.009-0.224 0.025l0.007-0.001c-0.175 0.040-0.375 0.062-0.581 0.062-0.602 0-1.159-0.194-1.61-0.524l0.008 0.005c-0.165-0.124-0.374-0.198-0.6-0.198s-0.435 0.074-0.603 0.2l0.003-0.002c-0.444 0.324-1.001 0.518-1.603 0.518-0.206 0-0.407-0.023-0.6-0.066l0.018 0.003c-0.065-0.015-0.139-0.023-0.216-0.023-0.556 0-1.008 0.451-1.008 1.007v3.312c0.002 1.506 0.722 2.843 1.836 3.688l0.012 0.008 1.56 1.152c0.165 0.124 0.374 0.198 0.6 0.198s0.435-0.074 0.603-0.2l-0.003 0.002 1.56-1.152c1.126-0.853 1.846-2.19 1.848-3.696v-3.312c0-0 0-0 0-0 0-0.32-0.149-0.605-0.382-0.79l-0.002-0.002zM19.992 9.216c0 0.013 0 0.028 0 0.043 0 0.825-0.382 1.561-0.979 2.041l-0.005 0.004-1.008 0.696-1.008-0.72c-0.602-0.483-0.984-1.219-0.984-2.045 0-0.015 0-0.030 0-0.045l-0 0.002v-2.184c0.735-0.036 1.416-0.236 2.016-0.564l-0.024 0.012c0.576 0.316 1.257 0.516 1.981 0.552l0.011 0zM21 15.216c-0 0-0 0-0 0-0.548 0-0.994 0.438-1.008 0.983l-0 0.001v3c0 0 0 0 0 0 0 0.548-0.438 0.994-0.983 1.008l-0.001 0h-14.016c-0.546-0.013-0.984-0.459-0.984-1.008 0-0 0-0 0-0v0-9.528l5.88 5.88c0.54 0.544 1.286 0.883 2.111 0.888h0.001c0.838-0.005 1.594-0.353 2.135-0.911l0.001-0.001-0.696-0.72-0.744-0.672c-0.181 0.173-0.426 0.279-0.696 0.279s-0.515-0.106-0.696-0.279l0 0-5.904-5.88h5.592c0.486-0.078 0.853-0.494 0.853-0.996s-0.367-0.918-0.847-0.995l-0.006-0.001h-6c-1.657 0-3 1.343-3 3v0 9.984c-0 0.007-0 0.016-0 0.024 0 1.657 1.343 3 3 3 0 0 0 0 0 0h14.016c0 0 0 0 0 0 1.657 0 3-1.343 3-3 0-0.008-0-0.017-0-0.025v0.001-3c-0.013-0.546-0.459-0.984-1.008-0.984-0 0-0 0-0 0h0z"></path>
</svg>
