<svg xmlns="http://www.w3.org/2000/svg" width="24" height="24" viewBox="0 0 24 24">
<path d="M20.448 9.048c-0.313-1.69-1.088-3.162-2.188-4.324l0.004 0.004c-0.472-0.515-0.999-0.967-1.577-1.349l-0.031-0.019c-1.038-0.677-2.277-1.139-3.609-1.292l-0.039-0.004c-0.183-0.017-0.347-0.042-0.507-0.077l0.027 0.005h-1.128c-0.024 0.048-0.048 0.024-0.072 0.024-0.334 0.030-0.63 0.072-0.92 0.129l0.056-0.009c-2.115 0.379-3.919 1.5-5.171 3.078l-0.013 0.018c-1.039 1.284-1.707 2.906-1.823 4.679l-0.001 0.025c-0.019 0.213-0.030 0.461-0.030 0.712 0 0.649 0.072 1.281 0.208 1.889l-0.011-0.057c0.154 0.675 0.369 1.267 0.645 1.823l-0.021-0.047 0.072 0.144c0.476 0.93 1.078 1.724 1.795 2.396l0.005 0.004c1.498 1.43 3.522 2.32 5.754 2.352l0.006 0c0.096 0 0.12 0.024 0.12 0.12 0 0.864 0 1.752 0 2.616 0 0.048 0 0.072 0 0.12l0.072-0.024c1.72-0.81 3.199-1.805 4.503-2.989l-0.015 0.013q0.408-0.36 0.768-0.768c0.096-0.096 0.216-0.216 0.312-0.336 0.168-0.168 0.312-0.36 0.456-0.552 0.163-0.196 0.328-0.415 0.484-0.641l0.020-0.031c0.318-0.448 0.622-0.959 0.883-1.495l0.029-0.065c0.144-0.288 0.264-0.576 0.36-0.864 0.004 0 0.008 0.001 0.012 0.001s0.008-0 0.012-0.001l-0 0c0.28-0.711 0.491-1.538 0.595-2.399l0.005-0.049c0.024-0.288 0.048-0.576 0.072-0.864 0.008-0.131 0.012-0.284 0.012-0.438 0-0.516-0.048-1.020-0.14-1.509l0.008 0.050zM11.256 11.88c0 0.001 0 0.003 0 0.004 0 0.742-0.324 1.408-0.837 1.865l-0.003 0.002-0.096 0.072c-0.258 0.209-0.562 0.373-0.893 0.475l-0.019 0.005c-0.124 0.036-0.278 0.070-0.435 0.093l-0.021 0.003c-0.011 0.002-0.023 0.003-0.035 0.003-0.095 0-0.175-0.061-0.204-0.145l-0-0.002v-0.984c0-0.096-0.024-0.192 0.048-0.264 0.035-0.046 0.085-0.080 0.142-0.096l0.002-0c0.181-0.036 0.341-0.094 0.49-0.173l-0.010 0.005c0.273-0.152 0.474-0.408 0.55-0.712l0.002-0.008 0.024-0.168h-2.040c-0.060-0.001-0.118-0.009-0.173-0.025l0.005 0.001c-0.176-0.044-0.306-0.198-0.312-0.383l-0-0.001q0-1.536 0-3.072c-0.009-0.033-0.014-0.072-0.014-0.111 0-0.138 0.061-0.261 0.157-0.344l0.001-0c0.067-0.060 0.156-0.096 0.254-0.096 0.003 0 0.007 0 0.010 0h2.999c0.223 0.003 0.402 0.185 0.402 0.408 0 0.043-0.007 0.084-0.019 0.123l0.001-0.003c0.016 0.041 0.025 0.088 0.025 0.137 0 0.011-0 0.022-0.001 0.032l0-0.001c0 1.104 0 2.232 0 3.36zM16.56 11.88c-0.014 1.041-0.645 1.93-1.543 2.322l-0.017 0.006c-0.024 0-0.048 0.024-0.072 0.024l-0.024 0.024h-0.024c-0.164 0.054-0.366 0.104-0.573 0.14l-0.027 0.004c-0.014 0.003-0.031 0.005-0.048 0.005-0.119 0-0.216-0.097-0.216-0.216 0-0.002 0-0.004 0-0.006v0-0.912c0-0.048 0-0.072 0-0.12 0-0.144 0.048-0.216 0.24-0.264 0.241-0.042 0.452-0.144 0.626-0.29l-0.002 0.002c0.202-0.192 0.341-0.449 0.383-0.737l0.001-0.007h-2.088c-0.007 0-0.016 0.001-0.025 0.001-0.225 0-0.408-0.183-0.408-0.408 0-0.009 0-0.017 0.001-0.026l-0 0.001q0-1.536 0-3.048v-0.048c-0.004-0.021-0.006-0.045-0.006-0.069 0-0.151 0.078-0.285 0.196-0.362l0.002-0.001c0.060-0.044 0.135-0.070 0.216-0.072h3c0.223 0.003 0.402 0.185 0.402 0.408 0 0.043-0.007 0.084-0.019 0.123l0.001-0.003c0.016 0.041 0.025 0.088 0.025 0.137 0 0.011-0 0.022-0.001 0.032l0-0.001v3.36z"></path>
</svg>
