<svg xmlns="http://www.w3.org/2000/svg" width="24" height="24" viewBox="0 0 24 24">
<path d="M19.008 13.008c-0 0-0 0-0 0-0.548 0-0.994 0.438-1.008 0.983l-0 0.001v0.384l-1.488-1.488c-0.503-0.496-1.193-0.803-1.956-0.803s-1.453 0.307-1.956 0.803l-0.72 0.72-2.472-2.496c-0.511-0.487-1.205-0.786-1.968-0.786s-1.457 0.299-1.969 0.787l0.001-0.001-1.464 1.488v-5.592c0-0 0-0 0-0 0-0.548 0.438-0.994 0.983-1.008l0.001-0h7.008c0.486-0.078 0.853-0.494 0.853-0.996s-0.367-0.918-0.847-0.995l-0.006-0.001h-7.008c-1.657 0-3 1.343-3 3v0 12c0 1.657 1.343 3 3 3v0h12c1.657 0 3-1.343 3-3v0-5.016c-0.013-0.538-0.446-0.971-0.983-0.984l-0.001-0zM4.992 19.992c-0.538-0.013-0.971-0.446-0.984-0.983l-0-0.001v-3.576l2.904-2.904c0.141-0.132 0.331-0.213 0.54-0.213s0.399 0.081 0.54 0.213l-0-0 7.464 7.464zM18 19.008c0 0.002 0 0.005 0 0.008 0 0.195-0.063 0.376-0.17 0.522l0.002-0.003-4.512-4.536 0.696-0.696c0.14-0.144 0.335-0.234 0.552-0.234s0.412 0.090 0.552 0.234l0 0 2.88 2.904zM22.704 4.296l-3-3c-0.087-0.089-0.191-0.162-0.306-0.213l-0.006-0.003c-0.114-0.048-0.245-0.076-0.384-0.076s-0.27 0.028-0.391 0.078l0.007-0.002c-0.131 0.052-0.242 0.125-0.336 0.216l-3 3c-0.136 0.17-0.218 0.388-0.218 0.626 0 0.557 0.451 1.008 1.008 1.008 0.237 0 0.456-0.082 0.628-0.219l-0.002 0.002 1.296-1.296v5.592c0.078 0.486 0.494 0.853 0.996 0.853s0.918-0.367 0.995-0.847l0.001-0.006v-5.592l1.296 1.296c0.182 0.18 0.432 0.291 0.708 0.291s0.526-0.111 0.708-0.291l-0 0c0.18-0.182 0.291-0.432 0.291-0.708s-0.111-0.526-0.291-0.708l0 0z"></path>
</svg>
