<svg xmlns="http://www.w3.org/2000/svg" width="24" height="24" viewBox="0 0 24 24">
<path d="M21.504 1.488c-0.557 0-1.008 0.451-1.008 1.008v0c-0.822-0.618-1.859-0.99-2.983-0.99-2.757 0-4.992 2.235-4.992 4.992s2.235 4.992 4.992 4.992c1.266 0 2.421-0.471 3.301-1.247l-0.005 0.005c0.171-0.18 0.277-0.425 0.277-0.694 0-0.557-0.451-1.008-1.008-1.008-0.221 0-0.426 0.071-0.592 0.192l0.003-0.002c-0.527 0.47-1.226 0.757-1.992 0.757-1.657 0-3-1.343-3-3s1.343-3 3-3c0.885 0 1.68 0.383 2.229 0.993l0.002 0.003h-1.224c-0.486 0.078-0.853 0.494-0.853 0.996s0.367 0.918 0.847 0.995l0.006 0.001h3c0.538-0.013 0.971-0.446 0.984-0.983l0-0.001v-3c0-0 0-0 0-0 0-0.548-0.438-0.994-0.983-1.008l-0.001-0zM18.504 13.488c-0.557 0-1.008 0.451-1.008 1.008v0 0.384l-1.488-1.464c-0.501-0.509-1.198-0.825-1.968-0.825s-1.467 0.316-1.968 0.825l-0.696 0.696-2.472-2.496c-0.504-0.503-1.2-0.815-1.968-0.815s-1.464 0.311-1.968 0.815v0l-1.464 1.488v-5.616c0.013-0.538 0.446-0.971 0.983-0.984l0.001-0h5.016c0.557 0 1.008-0.451 1.008-1.008s-0.451-1.008-1.008-1.008v0h-5.016c-1.657 0-3 1.343-3 3v0 12c-0 0.007-0 0.016-0 0.024 0 1.657 1.343 3 3 3 0 0 0 0 0 0h12.024c0 0 0 0 0 0 1.657 0 3-1.343 3-3 0-0.008-0-0.017-0-0.025v0.001-4.992c-0.013-0.546-0.459-0.984-1.008-0.984-0 0-0 0-0 0h0zM4.512 20.496c-0.557 0-1.008-0.451-1.008-1.008v0-3.552l2.904-2.928c0.141-0.132 0.331-0.213 0.54-0.213s0.399 0.081 0.54 0.213l-0-0 3.168 3.168 4.344 4.32zM17.496 19.488c-0.001 0.206-0.064 0.397-0.17 0.556l0.002-0.004-4.512-4.512 0.696-0.696c0.142-0.139 0.337-0.224 0.552-0.224s0.41 0.085 0.552 0.224l2.88 2.88z"></path>
</svg>
