<svg xmlns="http://www.w3.org/2000/svg" width="24" height="24" viewBox="0 0 24 24">
<path d="M19.512 4.008h-9.504c-0.486 0.078-0.853 0.494-0.853 0.996s0.367 0.918 0.847 0.995l0.006 0.001h9.504c0.546 0.013 0.984 0.459 0.984 1.008 0 0 0 0 0 0v-0 6.744l-1.872-1.872c-0.315-0.316-0.701-0.563-1.131-0.714l-0.021-0.006c-0.093-0.031-0.2-0.049-0.312-0.049-0.557 0-1.009 0.452-1.009 1.009 0 0.446 0.289 0.824 0.69 0.958l0.007 0.002c0.142 0.042 0.263 0.117 0.36 0.216l0 0 3.312 3.288c-0.002 0.022-0.004 0.047-0.004 0.072s0.001 0.050 0.004 0.075l-0-0.003c-0.003 0.025-0.004 0.054-0.004 0.084s0.002 0.059 0.005 0.088l-0-0.004c0.038 0.064 0.077 0.118 0.121 0.17l-0.001-0.002c0.026 0.046 0.058 0.086 0.096 0.12l0 0c0.056 0.055 0.119 0.103 0.188 0.142l0.005 0.002c0.034 0.019 0.074 0.035 0.116 0.047l0.004 0.001c0.105 0.054 0.228 0.089 0.358 0.096l0.002 0c0.557 0 1.008-0.451 1.008-1.008v0-9.456c0-0 0-0.001 0-0.001 0-1.632-1.302-2.959-2.924-2.999l-0.004-0zM3.216 2.28c-0.182-0.179-0.432-0.29-0.708-0.29-0.558 0-1.010 0.452-1.010 1.010 0 0.282 0.115 0.537 0.302 0.72l0 0 1.392 1.368c-0.433 0.516-0.696 1.187-0.696 1.92v9.984c0 1.657 1.343 3 3 3v0h12.6l1.704 1.728c0.182 0.18 0.432 0.291 0.708 0.291s0.526-0.111 0.708-0.291l-0 0c0.187-0.183 0.303-0.438 0.303-0.72s-0.116-0.537-0.302-0.72l-0-0zM4.512 7.008c0-0.001 0-0.002 0-0.003 0-0.175 0.044-0.339 0.123-0.482l-0.003 0.005 2.712 2.712c-0.392 0.155-0.727 0.374-1.009 0.649l0.001-0.001-1.824 1.872zM5.496 18c-0.546-0.013-0.984-0.459-0.984-1.008 0-0 0-0 0-0v0-2.424l3.288-3.288c0.181-0.173 0.426-0.279 0.696-0.279s0.515 0.106 0.696 0.279l-0-0 6.72 6.72z"></path>
</svg>
