<svg xmlns="http://www.w3.org/2000/svg" width="24" height="24" viewBox="0 0 24 24">
<path d="M12 1.992c-5.527 0-10.008 4.481-10.008 10.008s4.481 10.008 10.008 10.008c5.527 0 10.008-4.481 10.008-10.008v0c0-5.527-4.481-10.008-10.008-10.008v0zM12 19.992c-4.414 0-7.992-3.578-7.992-7.992s3.578-7.992 7.992-7.992c4.414 0 7.992 3.578 7.992 7.992v0c0 4.414-3.578 7.992-7.992 7.992v0zM16.008 10.992h-8.016c-0.557 0-1.008 0.451-1.008 1.008s0.451 1.008 1.008 1.008v0h8.016c0.557 0 1.008-0.451 1.008-1.008s-0.451-1.008-1.008-1.008v0z"></path>
</svg>
