<svg xmlns="http://www.w3.org/2000/svg" width="24" height="24" viewBox="0 0 24 24">
<path d="M10.008 7.008c-0 0-0 0-0 0-0.548 0-0.994 0.438-1.008 0.983l-0 0.001v8.016c0.078 0.486 0.494 0.853 0.996 0.853s0.918-0.367 0.995-0.847l0.001-0.006v-8.016c-0.013-0.538-0.446-0.971-0.983-0.984l-0.001-0zM12 1.992c-5.527 0-10.008 4.481-10.008 10.008s4.481 10.008 10.008 10.008c5.527 0 10.008-4.481 10.008-10.008v0c0-5.527-4.481-10.008-10.008-10.008v0zM12 19.992c-4.414 0-7.992-3.578-7.992-7.992s3.578-7.992 7.992-7.992c4.414 0 7.992 3.578 7.992 7.992v0c0 4.414-3.578 7.992-7.992 7.992v0zM13.992 7.008c-0.538 0.013-0.971 0.446-0.984 0.983l-0 0.001v8.016c0.078 0.486 0.494 0.853 0.996 0.853s0.918-0.367 0.995-0.847l0.001-0.006v-8.016c-0.013-0.546-0.459-0.984-1.008-0.984-0 0-0 0-0 0h0z"></path>
</svg>
