<svg xmlns="http://www.w3.org/2000/svg" width="24" height="24" viewBox="0 0 24 24">
<path d="M16.848 11.64c0.009 0 0.019 0 0.029 0 0.833 0 1.587-0.34 2.131-0.888l2.832-2.832c0.18-0.182 0.291-0.432 0.291-0.708s-0.111-0.526-0.291-0.708l0 0c-0.183-0.187-0.438-0.303-0.72-0.303s-0.537 0.116-0.72 0.302l-0 0-2.856 2.832c-0.182 0.18-0.432 0.291-0.708 0.291s-0.526-0.111-0.708-0.291l0 0 3.552-3.528c0.184-0.184 0.298-0.439 0.298-0.72 0-0.562-0.456-1.018-1.018-1.018-0.281 0-0.536 0.114-0.72 0.298v0l-3.528 3.552c-0.18-0.182-0.291-0.432-0.291-0.708s0.111-0.526 0.291-0.708l2.832-2.832c0.234-0.186 0.382-0.471 0.382-0.79 0-0.557-0.451-1.008-1.008-1.008-0.319 0-0.604 0.148-0.789 0.38l-0.002 0.002-2.832 2.832c-0.544 0.543-0.881 1.294-0.881 2.124s0.337 1.581 0.881 2.124l0 0-1.296 1.272-8.28-8.28-0.096-0.072c-0.048-0.037-0.104-0.070-0.163-0.094l-0.005-0.002-0.168-0.072-0.12-0.096h-0.288c-0.025-0.004-0.054-0.006-0.084-0.006s-0.059 0.002-0.087 0.007l0.003-0c-0.064 0.026-0.12 0.058-0.17 0.097l0.002-0.001-0.168 0.096h-0.072l-0.048 0.096c-0.044 0.049-0.083 0.104-0.117 0.163l-0.003 0.005c-0.027 0.054-0.052 0.118-0.070 0.184l-0.002 0.008v0.12c-0.070 0.467-0.11 1.005-0.11 1.553 0 3.041 1.235 5.793 3.23 7.783l0 0 2.64 2.64-5.424 5.4c-0.18 0.182-0.291 0.432-0.291 0.708s0.111 0.526 0.291 0.708l-0-0c0.182 0.178 0.431 0.288 0.706 0.288 0.005 0 0.010-0 0.015-0h-0.001c0.004 0 0.009 0 0.014 0 0.275 0 0.524-0.11 0.706-0.288l-0 0 6.072-5.976 2.808-2.832 2.016-1.992c0.54 0.544 1.286 0.883 2.111 0.888h0.001zM9.192 13.44l-2.64-2.64c-1.387-1.413-2.315-3.281-2.54-5.36l-0.004-0.040 6.6 6.6zM15.432 14.016c-0.183-0.186-0.438-0.302-0.72-0.302-0.558 0-1.010 0.452-1.010 1.010 0 0.276 0.111 0.526 0.29 0.708l6.312 6.312c0.179 0.164 0.418 0.264 0.68 0.264 0.006 0 0.011-0 0.017-0h-0.001c0.004 0 0.009 0 0.014 0 0.275 0 0.524-0.11 0.706-0.288l-0 0c0.187-0.183 0.303-0.438 0.303-0.72s-0.116-0.537-0.302-0.72l-0-0z"></path>
</svg>
