<svg xmlns="http://www.w3.org/2000/svg" width="24" height="24" viewBox="0 0 24 24">
<path d="M4.008 12c0 0 0 0 0 0 0 0.548 0.438 0.994 0.983 1.008l0.001 0h7.608l-2.304 2.28c-0.18 0.182-0.291 0.432-0.291 0.708s0.111 0.526 0.291 0.708l-0-0c0.182 0.18 0.432 0.291 0.708 0.291s0.526-0.111 0.708-0.291l-0 0 4.008-3.984c0.082-0.095 0.147-0.206 0.19-0.329l0.002-0.007c0.048-0.114 0.076-0.245 0.076-0.384s-0.028-0.27-0.078-0.391l0.002 0.007c-0.045-0.13-0.11-0.241-0.193-0.337l0.001 0.001-4.008-3.984c-0.186-0.234-0.471-0.382-0.79-0.382-0.557 0-1.008 0.451-1.008 1.008 0 0.319 0.149 0.604 0.38 0.789l0.002 0.002 2.304 2.28h-7.608c-0.546 0.013-0.984 0.459-0.984 1.008 0 0 0 0 0 0v-0zM16.992 1.992h-9.984c-1.657 0-3 1.343-3 3v0 3c0.078 0.486 0.494 0.853 0.996 0.853s0.918-0.367 0.995-0.847l0.001-0.006v-3c0.013-0.546 0.459-0.984 1.008-0.984 0 0 0 0 0 0h9.984c0 0 0 0 0 0 0.548 0 0.994 0.438 1.008 0.983l0 0.001v14.016c-0.013 0.546-0.459 0.984-1.008 0.984-0 0-0 0-0 0h-9.984c-0 0-0 0-0 0-0.548 0-0.994-0.438-1.008-0.983l-0-0.001v-3c-0.078-0.486-0.494-0.853-0.996-0.853s-0.918 0.367-0.995 0.847l-0.001 0.006v3c0 1.657 1.343 3 3 3v0h9.984c1.657 0 3-1.343 3-3v0-14.016c0-1.657-1.343-3-3-3v0z"></path>
</svg>
