<svg xmlns="http://www.w3.org/2000/svg" width="24" height="24" viewBox="0 0 24 24">
<path d="M7.008 6v4.992c0 0 0 0 0 0 0 0.548 0.438 0.994 0.983 1.008l0.001 0h3v7.992h-1.992c-0.557 0-1.008 0.451-1.008 1.008s0.451 1.008 1.008 1.008v0h6c0.557 0 1.008-0.451 1.008-1.008s-0.451-1.008-1.008-1.008v0h-1.992v-7.992h4.992c0.006 0 0.013 0 0.020 0 0.309 0 0.586-0.139 0.771-0.359l0.001-0.002 1.992-2.52c0.135-0.17 0.216-0.387 0.216-0.624s-0.081-0.454-0.218-0.626l0.002 0.002-1.992-2.496c-0.186-0.235-0.472-0.384-0.792-0.384-0 0-0 0-0 0h-4.992v-1.992c0-0.557-0.451-1.008-1.008-1.008s-1.008 0.451-1.008 1.008v0 1.992h-3c-0.546 0.013-0.984 0.459-0.984 1.008 0 0 0 0 0 0v-0zM9 7.008h8.52l1.2 1.488-1.2 1.512h-8.52z"></path>
</svg>
