<svg xmlns="http://www.w3.org/2000/svg" width="24" height="24" viewBox="0 0 24 24">
<path d="M17.664 8.328c0.271-0.003 0.517-0.112 0.696-0.288l-0 0 0.72-0.696c0.234-0.186 0.382-0.471 0.382-0.79 0-0.557-0.451-1.008-1.008-1.008-0.319 0-0.604 0.149-0.789 0.38l-0.002 0.002-0.672 0.72c-0.173 0.181-0.279 0.426-0.279 0.696s0.106 0.515 0.279 0.696l-0-0c0.174 0.171 0.409 0.279 0.67 0.288l0.002 0zM12 6c0.557 0 1.008-0.451 1.008-1.008v0-0.984c0-0.557-0.451-1.008-1.008-1.008s-1.008 0.451-1.008 1.008v0 0.984c0 0.557 0.451 1.008 1.008 1.008v0zM4.008 12h-1.008c-0.486 0.078-0.853 0.494-0.853 0.996s0.367 0.918 0.847 0.995l0.006 0.001h1.008c0.486-0.078 0.853-0.494 0.853-0.996s-0.367-0.918-0.847-0.995l-0.006-0.001zM5.64 8.040c0.179 0.176 0.425 0.285 0.695 0.288h0.001c0.004 0 0.009 0 0.014 0 0.275 0 0.524-0.11 0.706-0.288l-0 0c0.173-0.181 0.279-0.426 0.279-0.696s-0.106-0.515-0.279-0.696l0 0-0.72-0.72c-0.17-0.136-0.388-0.218-0.626-0.218-0.557 0-1.008 0.451-1.008 1.008 0 0.237 0.082 0.456 0.219 0.628l-0.002-0.002zM21 12h-1.008c-0.486 0.078-0.853 0.494-0.853 0.996s0.367 0.918 0.847 0.995l0.006 0.001h1.008c0.486-0.078 0.853-0.494 0.853-0.996s-0.367-0.918-0.847-0.995l-0.006-0.001zM10.992 19.008h-3c-0.486 0.078-0.853 0.494-0.853 0.996s0.367 0.918 0.847 0.995l0.006 0.001h3c0.486-0.078 0.853-0.494 0.853-0.996s-0.367-0.918-0.847-0.995l-0.006-0.001zM18 15h-0.888c0.242-0.59 0.383-1.274 0.384-1.992v-0c0-3.035-2.461-5.496-5.496-5.496s-5.496 2.461-5.496 5.496v0c0.001 0.718 0.142 1.402 0.397 2.028l-0.013-0.036h-0.888c-0.486 0.078-0.853 0.494-0.853 0.996s0.367 0.918 0.847 0.995l0.006 0.001h12c0.486-0.078 0.853-0.494 0.853-0.996s-0.367-0.918-0.847-0.995l-0.006-0.001zM14.856 15h-5.712c-0.402-0.552-0.645-1.244-0.648-1.991v-0.001c0-1.935 1.569-3.504 3.504-3.504s3.504 1.569 3.504 3.504v0c-0.003 0.748-0.246 1.44-0.655 2.002l0.007-0.010zM16.008 19.008h-1.008c-0.486 0.078-0.853 0.494-0.853 0.996s0.367 0.918 0.847 0.995l0.006 0.001h1.008c0.486-0.078 0.853-0.494 0.853-0.996s-0.367-0.918-0.847-0.995l-0.006-0.001z"></path>
</svg>
