<svg xmlns="http://www.w3.org/2000/svg" width="24" height="24" viewBox="0 0 24 24">
<path d="M19.992 6h-3.984v-1.008c0-1.657-1.343-3-3-3v0h-2.016c-1.657 0-3 1.343-3 3v0 1.008h-3.984c-0.486 0.078-0.853 0.494-0.853 0.996s0.367 0.918 0.847 0.995l0.006 0.001h0.984v11.016c0 1.657 1.343 3 3 3v0h8.016c1.657 0 3-1.343 3-3v0-11.016h0.984c0.486-0.078 0.853-0.494 0.853-0.996s-0.367-0.918-0.847-0.995l-0.006-0.001zM10.008 4.992c0.013-0.538 0.446-0.971 0.983-0.984l0.001-0h2.016c0.538 0.013 0.971 0.446 0.984 0.983l0 0.001v1.008h-3.984zM16.992 19.008c-0.013 0.538-0.446 0.971-0.983 0.984l-0.001 0h-8.016c-0.538-0.013-0.971-0.446-0.984-0.983l-0-0.001v-11.016h9.984z"></path>
</svg>
