<svg xmlns="http://www.w3.org/2000/svg" width="24" height="24" viewBox="0 0 24 24">
<path d="M21.12 2.88c-0.551-0.528-1.299-0.853-2.124-0.853s-1.573 0.325-2.125 0.854l0.001-0.001-2.4 2.4c-0.538 0.542-0.87 1.289-0.87 2.113 0 0.471 0.109 0.917 0.302 1.313l-0.008-0.018-2.16 2.16-1.992-1.992c-0.545-0.557-1.305-0.903-2.145-0.903-1.319 0-2.439 0.851-2.841 2.033l-0.006 0.021-2.664 8.016c-0.099 0.285-0.156 0.612-0.156 0.954 0 0.827 0.335 1.576 0.876 2.118l-0-0c0.546 0.563 1.309 0.912 2.154 0.912 0.010 0 0.021-0 0.031-0l-0.002 0c0.011 0 0.025 0 0.038 0 0.348 0 0.681-0.062 0.99-0.175l-0.020 0.006 7.992-2.664c1.213-0.403 2.072-1.528 2.072-2.853 0-0.837-0.343-1.594-0.896-2.139l-0-0-1.992-2.016 2.136-2.136c0.379 0.186 0.824 0.294 1.295 0.294 0.824 0 1.571-0.332 2.113-0.87l2.424-2.424c0.509-0.537 0.822-1.263 0.822-2.063 0-0.812-0.323-1.549-0.847-2.089l0.001 0.001zM13.704 15.624c0.175 0.181 0.282 0.428 0.282 0.699 0 0.443-0.286 0.819-0.683 0.954l-0.007 0.002-7.968 2.712c-0.091 0.030-0.195 0.047-0.304 0.047-0.274 0-0.523-0.109-0.704-0.287l0 0c-0.177-0.182-0.287-0.43-0.287-0.704 0-0.108 0.017-0.213 0.049-0.311l-0.002 0.007 2.664-7.992c0.083-0.358 0.347-0.638 0.689-0.742l0.007-0.002c0.036-0.004 0.078-0.007 0.12-0.007s0.084 0.002 0.125 0.007l-0.005-0c0.271 0.003 0.517 0.112 0.696 0.288l1.992 1.992-0.864 0.864c-0.18 0.182-0.291 0.432-0.291 0.708s0.111 0.526 0.291 0.708l-0-0c0.182 0.18 0.432 0.291 0.708 0.291s0.526-0.111 0.708-0.291l0.864-0.864zM19.704 5.712l-2.424 2.4c-0.178 0.16-0.414 0.258-0.673 0.258-0.538 0-0.977-0.421-1.006-0.951l-0-0.003c0.003-0.271 0.112-0.517 0.288-0.696l-0 0 2.4-2.424c0.182-0.18 0.432-0.291 0.708-0.291s0.526 0.111 0.708 0.291l-0-0c0.18 0.182 0.291 0.432 0.291 0.708s-0.111 0.526-0.291 0.708l0-0z"></path>
</svg>
