<svg xmlns="http://www.w3.org/2000/svg" width="24" height="24" viewBox="0 0 24 24">
<path d="M19.008 7.008h-1.008v-1.008c0-1.657-1.343-3-3-3v0h-10.008c-1.657 0-3 1.343-3 3v0 12c0 1.657 1.343 3 3 3v0h14.016c1.657 0 3-1.343 3-3v0-7.992c0-1.657-1.343-3-3-3v0zM4.992 4.992h10.008c0.557 0 1.008 0.451 1.008 1.008v0 1.008h-11.016c-0.557 0-1.008-0.451-1.008-1.008s0.451-1.008 1.008-1.008v0zM19.992 15h-0.984c-0.486-0.078-0.853-0.494-0.853-0.996s0.367-0.918 0.847-0.995l0.006-0.001h0.984zM19.992 10.992h-0.984c-1.657 0-3 1.343-3 3s1.343 3 3 3v0h0.984v1.008c0 0 0 0 0 0 0 0.548-0.438 0.994-0.983 1.008l-0.001 0h-14.016c-0.546-0.013-0.984-0.459-0.984-1.008 0-0 0-0 0-0v0-9.168c0.293 0.106 0.631 0.167 0.984 0.168h14.016c0.546 0.013 0.984 0.459 0.984 1.008 0 0 0 0 0 0v-0z"></path>
</svg>
