<svg xmlns="http://www.w3.org/2000/svg" width="24" height="24" viewBox="0 0 24 24">
<path d="M12 19.008h-4.992c-0.486 0.078-0.853 0.494-0.853 0.996s0.367 0.918 0.847 0.995l0.006 0.001h4.992c0.557 0 1.008 0.451 1.008 1.008v0c0.078 0.486 0.494 0.853 0.996 0.853s0.918-0.367 0.995-0.847l0.001-0.006c0-1.657-1.343-3-3-3v0zM13.992 9c0.007 0 0.016 0 0.024 0 0.557 0 1.008-0.451 1.008-1.008s-0.451-1.008-1.008-1.008c-0.557 0-1.008 0.451-1.008 1.008v0c0 0 0 0 0 0 0 0.548 0.438 0.994 0.983 1.008l0.001 0zM18 9h1.992c1.657 0 3-1.343 3-3v0c-0.078-0.486-0.494-0.853-0.996-0.853s-0.918 0.367-0.995 0.847l-0.001 0.006c0 0.557-0.451 1.008-1.008 1.008v0h-1.992c-0.486 0.078-0.853 0.494-0.853 0.996s0.367 0.918 0.847 0.995l0.006 0.001zM19.992 15h-2.16c0.549-0.844 0.952-1.837 1.145-2.903l0.007-0.049c0.006-0.042 0.010-0.091 0.010-0.141 0-0.557-0.451-1.008-1.008-1.008-0.106 0-0.209 0.016-0.305 0.047l0.007-0.002c-0.568 0.198-1.224 0.312-1.906 0.312-0.005 0-0.010 0-0.015-0h0.001c-0 0-0 0-0 0-3.345 0-6.058-2.705-6.072-6.047v-0.001c0.006-0.378 0.041-0.743 0.102-1.098l-0.006 0.042c0.006-0.042 0.010-0.091 0.010-0.141 0-0.557-0.451-1.008-1.008-1.008-0.106 0-0.209 0.016-0.305 0.047l0.007-0.002c-3.217 1.1-5.488 4.097-5.488 7.624 0 1.607 0.471 3.103 1.283 4.359l-0.019-0.032h-1.272c-0.486 0.078-0.853 0.494-0.853 0.996s0.367 0.918 0.847 0.995l0.006 0.001h4.992c0.486-0.078 0.853-0.494 0.853-0.996s-0.367-0.918-0.847-0.995l-0.006-0.001h-1.152c-1.135-1.097-1.84-2.633-1.84-4.334 0-2.091 1.065-3.932 2.682-5.013l0.022-0.014c0.248 4.253 3.758 7.608 8.051 7.608 0.005 0 0.009 0 0.014 0h-0.001c0.283-0.003 0.558-0.020 0.828-0.051l-0.036 0.003c-0.326 0.699-0.753 1.295-1.271 1.799l-0.001 0.001h-3.288c-0.486 0.078-0.853 0.494-0.853 0.996s0.367 0.918 0.847 0.995l0.006 0.001h7.992c0.557 0 1.008 0.451 1.008 1.008s-0.451 1.008-1.008 1.008v0c-0.486 0.078-0.853 0.494-0.853 0.996s0.367 0.918 0.847 0.995l0.006 0.001c1.657 0 3-1.343 3-3s-1.343-3-3-3v0zM2.616 19.080c-0.13 0.055-0.241 0.128-0.337 0.217l0.001-0.001c-0.174 0.181-0.283 0.425-0.288 0.695l-0 0.001c-0.001 0.012-0.001 0.027-0.001 0.041 0 0.543 0.441 0.984 0.984 0.984 0.148 0 0.289-0.033 0.415-0.091l-0.006 0.003c0.13-0.055 0.241-0.128 0.337-0.217l-0.001 0.001c0.178-0.178 0.288-0.424 0.288-0.696 0-0.008-0-0.017-0-0.025l0 0.001c-0.008-0.27-0.116-0.514-0.288-0.696l0 0c-0.182-0.182-0.434-0.295-0.713-0.295-0.141 0-0.276 0.029-0.398 0.082l0.007-0.003z"></path>
</svg>
