<svg width="48" height="48" viewBox="0 0 102 107" fill="#229EFF" xmlns="http://www.w3.org/2000/svg" stroke-width="1px" stroke-linecap="round" stroke-linejoin="round"><path d="M73.861 86.9373C73.861 88.0473 73.511 88.8073 72.801 89.2073L63.751 94.3672L63.521 94.4773L43.751 104.367L52.801 99.2073C53.511 98.8073 53.861 98.0473 53.861 96.9373C53.861 95.8273 53.511 94.6673 52.801 93.4573C52.101 92.3173 51.271 91.4573 50.301 90.9073C49.431 90.4073 48.691 90.2673 48.081 90.5173L55.971 86.5773L64.811 82.1573L67.721 80.6973H67.731L72.921 83.6973C72.921 83.6973 72.931 83.7073 72.941 83.7073C73.561 84.8273 73.861 85.9073 73.861 86.9373Z" stroke="white" stroke-linejoin="round"/><path d="M79.9506 59.5372V79.6972C79.9506 81.9172 79.2606 83.4172 77.8806 84.1972C76.5106 84.9872 74.8606 84.8172 72.9406 83.7072C72.9306 83.7072 72.9306 83.6972 72.9206 83.6972L67.7306 80.6972H67.7206L64.8106 79.0172L57.7806 74.9572L54.7806 73.2272L51.8406 71.5272C50.8806 70.9772 49.9906 70.6572 49.1706 70.5772C49.0506 70.5572 48.9406 70.5472 48.8306 70.5572H48.8206C48.1106 70.5272 47.4706 70.6972 46.8706 71.0372C46.3906 71.3072 46.0006 71.6672 45.6906 72.1172C45.1006 72.9572 44.8106 74.0972 44.8106 75.5372V92.3672L47.8806 90.6172L48.0806 90.5172C48.6906 90.2672 49.4306 90.4072 50.3006 90.9072C51.2706 91.4572 52.1006 92.3172 52.8006 93.4572C53.5106 94.6672 53.8606 95.8272 53.8606 96.9372C53.8606 98.0472 53.5106 98.8072 52.8006 99.2072L43.7506 104.367C43.0506 104.767 42.2306 104.697 41.3006 104.147C40.3606 103.607 39.5406 102.737 38.8406 101.527L29.7006 85.7672C29.0506 84.6572 28.7206 83.5372 28.6906 82.4072C28.6606 81.2872 29.0006 80.5172 29.7006 80.1172L29.8906 80.0272C30.5006 79.7772 31.2606 79.9172 32.1606 80.4272C33.1506 81.0072 33.9706 81.8472 34.6206 82.9572L37.7806 88.3172V71.4772C37.7806 69.2572 37.0906 66.9672 35.7206 64.5872C34.3406 62.2172 32.6906 60.4772 30.7506 59.3572L9.67059 47.1872C7.74059 46.0672 6.08063 44.3272 4.71063 41.9472C3.33063 39.5772 2.64062 37.2772 2.64062 35.0672V14.8972C2.64062 13.7572 2.98063 12.9972 3.65063 12.6072L3.8606 12.5072C4.5006 12.2472 5.26064 12.3872 6.16064 12.8972C7.15064 13.4772 7.99064 14.3372 8.66064 15.5072C9.33064 16.6672 9.67059 17.8172 9.67059 18.9572V39.1172L30.7506 51.2972C32.8606 52.5072 34.8206 54.1272 36.6406 56.1472C38.4506 58.1772 40.0106 60.3972 41.3006 62.8172C41.7306 62.5072 42.1806 62.2572 42.6706 62.0572L42.7406 62.0272C43.7006 61.6472 44.7706 61.4772 45.9506 61.5272C47.7706 61.5972 49.7306 62.2472 51.8406 63.4672L57.7806 66.8972L64.8106 70.9572L72.9206 75.6372V55.4772C72.9206 54.9872 72.9806 54.5572 73.1106 54.2072C73.2806 53.7472 73.5506 53.4072 73.9306 53.1872L74.1406 53.0872C74.7706 52.8272 75.5406 52.9572 76.4306 53.4772C77.4306 54.0472 78.2606 54.9172 78.9406 56.0772C79.3206 56.7372 79.5906 57.3872 79.7606 58.0372C79.8906 58.5372 79.9506 59.0372 79.9506 59.5372Z" stroke="white" stroke-linejoin="round"/><path d="M61.2599 52.7472L42.7399 62.0272L42.6699 62.0572C42.1799 62.2572 41.7299 62.5072 41.2999 62.8172C40.0099 60.3972 38.45 58.1772 36.64 56.1472C34.82 54.1272 32.8599 52.5072 30.7499 51.2972L9.66992 39.1172L24.5599 31.6772L29.6699 29.1172L50.7499 41.2972C52.8599 42.5072 54.82 44.1272 56.64 46.1472C58.43 48.1572 59.9799 50.3572 61.2599 52.7472Z" stroke="white" stroke-linejoin="round"/><path d="M29.6703 8.95709V29.1171L24.5604 31.6771L9.67035 39.1171V18.9571C9.67035 17.8171 9.3304 16.6671 8.6604 15.5071C7.9904 14.3371 7.1504 13.4771 6.1604 12.8971C5.2604 12.3871 4.50035 12.2471 3.86035 12.5071L23.6504 2.60712C24.3304 2.22712 25.1604 2.32709 26.1604 2.89709C27.1504 3.47709 27.9904 4.33708 28.6604 5.50708C29.3304 6.66708 29.6703 7.81709 29.6703 8.95709Z" stroke="white" stroke-linejoin="round"/><path d="M64.8105 79.0172V82.1572L55.9706 86.5772L48.0806 90.5172L47.8806 90.6171L44.8105 92.3671V75.5372C44.8105 74.0972 45.1006 72.9571 45.6906 72.1271C46.0006 71.6671 46.3905 71.3072 46.8705 71.0372C47.4705 70.6972 48.1106 70.5271 48.8206 70.5571H48.8306C48.9406 70.5471 49.0505 70.5572 49.1705 70.5772C49.9905 70.6572 50.8806 70.9772 51.8406 71.5272L54.7806 73.2272L57.7806 74.9572L64.8105 79.0172Z" stroke="white" stroke-linejoin="round"/><path d="M37.7806 76.0771V88.3171L34.6206 82.9572C33.9706 81.8472 33.1506 81.0071 32.1606 80.4271C31.2606 79.9171 30.5006 79.7772 29.8906 80.0272L37.7806 76.0771Z" stroke="white" stroke-linejoin="round"/><path d="M99.9506 49.5372V69.6971C99.9506 71.9171 99.2606 73.4171 97.8806 74.1971L77.8806 84.1971C79.2606 83.4171 79.9506 81.9171 79.9506 79.6971V59.5372C79.9506 59.0372 79.8906 58.5372 79.7606 58.0372C79.5906 57.3872 79.3206 56.7371 78.9406 56.0771C78.2606 54.9171 77.4306 54.0472 76.4306 53.4772C75.5406 52.9572 74.7706 52.8271 74.1406 53.0871L93.9306 43.1871C94.6006 42.8071 95.4406 42.8972 96.4306 43.4772C97.4306 44.0472 98.2606 44.9171 98.9406 46.0771C99.6106 47.2371 99.9506 48.3872 99.9506 49.5372Z" stroke="white" stroke-linejoin="round"/><path d="M73.1102 54.2072C72.9802 54.5572 72.9202 54.9872 72.9202 55.4772V75.6372L64.8102 70.9572L57.7803 66.8972L51.8403 63.4672C49.7303 62.2472 47.7703 61.5972 45.9503 61.5272C44.7703 61.4772 43.7002 61.6472 42.7402 62.0272L61.2603 52.7472L62.1603 52.2972L62.4302 52.1572C63.4602 51.6872 64.6403 51.4772 65.9503 51.5272C67.7703 51.5972 69.7303 52.2472 71.8403 53.4672L73.1102 54.2072Z" stroke="white" stroke-linejoin="round"/></svg>