<svg width="48" height="48" viewBox="0 0 114 94" xmlns="http://www.w3.org/2000/svg" stroke-width="1px"
     stroke-linecap="round" stroke-linejoin="round">
    <path d="M56.731 45.9246C56.731 47.0346 56.4108 47.7746 55.7808 48.1346C55.1508 48.4946 54.3509 48.3947 53.3809 47.8347L46.6909 43.9745V63.1646C46.6909 64.2746 46.381 65.0146 45.741 65.3746C45.111 65.7346 44.3108 65.6346 43.3508 65.0746C42.3808 64.5146 41.5809 63.6946 40.9509 62.6046C40.3209 61.5146 40.001 60.4146 40.001 59.3046V40.1046L38.9109 39.4745L33.3108 36.2446C32.3408 35.6846 31.5409 34.8646 30.9109 33.7746C30.2809 32.6846 29.9609 31.5845 29.9609 30.4745C29.9609 29.5545 30.1808 28.8946 30.6108 28.4946C30.7008 28.4046 30.8009 28.3246 30.9109 28.2646L31.1008 28.1746C31.7008 27.9246 32.4308 28.0546 33.3108 28.5646L44.9409 35.2846L53.3809 40.1546C54.3509 40.7146 55.1508 41.5346 55.7808 42.6246C56.4108 43.7146 56.731 44.8146 56.731 45.9246Z" class="pr-icon-iso-solid-stroke" stroke-linejoin="round"/>
    <path d="M91.8611 67.4942V89.2442C91.8611 90.3542 91.5511 91.0943 90.9211 91.4543C90.2811 91.8143 89.4912 91.7143 88.5212 91.1543C87.5512 90.5943 86.7511 89.7743 86.1211 88.6843C85.4911 87.5943 85.1711 86.4943 85.1711 85.3843V66.1843L83.5112 65.2342L80.7112 63.6142V77.6843C80.7112 78.7943 80.4012 79.5343 79.7612 79.8943C79.1312 80.2543 78.3311 80.1542 77.3611 79.5942C76.4011 79.0342 75.6012 78.2142 74.9712 77.1242C74.6912 76.6542 74.4811 76.1842 74.3311 75.7142C74.1211 75.0842 74.0212 74.4543 74.0212 73.8243V59.7442L69.561 57.1743V76.3642C69.561 77.4742 69.2411 78.2143 68.6111 78.5743C67.9811 78.9343 67.1812 78.8343 66.2112 78.2743C65.2412 77.7143 64.451 76.8943 63.811 75.8043C63.181 74.7143 62.8711 73.6142 62.8711 72.5042V50.7442C62.8711 49.2942 63.2911 48.3242 64.1511 47.8442L64.4111 47.7142C65.0611 47.4442 65.8212 47.5043 66.6912 47.8843C66.9012 47.9643 67.1111 48.0743 67.3311 48.2043L82.8711 57.1743L87.4011 59.7943C88.2011 60.2543 88.921 60.8642 89.561 61.6242C89.931 62.0642 90.2711 62.5642 90.5811 63.1042C91.4411 64.5742 91.8611 66.0442 91.8611 67.4942Z" class="pr-icon-iso-solid-stroke" stroke-linejoin="round"/>
    <path d="M85.1716 66.1843V77.1943L79.7617 79.8943C80.4017 79.5343 80.7117 78.7943 80.7117 77.6843V63.6143L83.5117 65.2343L85.1716 66.1843Z" class="pr-icon-iso-solid-stroke" stroke-linejoin="round"/>
    <path d="M111.86 57.4945V79.2445C111.86 80.3545 111.55 81.0946 110.92 81.4546L110.73 81.5446L90.9202 91.4546C91.5502 91.0946 91.8601 90.3545 91.8601 89.2445V67.4945C91.8601 66.0445 91.4401 64.5745 90.5801 63.1045C90.2701 62.5645 89.9301 62.0645 89.5601 61.6245C88.9201 60.8645 88.2001 60.2546 87.4001 59.7946L82.8701 57.1746L67.3301 48.2046C67.1101 48.0746 66.9002 47.9645 66.6902 47.8845C65.8202 47.5045 65.0602 47.4445 64.4102 47.7145L66.6902 46.5746L84.1501 37.8445C85.0001 37.3545 86.0601 37.4746 87.3301 38.2046L107.4 49.7946C108.67 50.5246 109.73 51.6245 110.58 53.1045C111.44 54.5745 111.86 56.0445 111.86 57.4945Z" class="pr-icon-iso-solid-stroke" stroke-linejoin="round"/>
    <path d="M66.6902 42.6846V46.5746L64.4102 47.7145L64.1501 47.8445C63.2901 48.3245 62.8701 49.2945 62.8701 50.7445V56.8146L45.7402 65.3745C46.3802 65.0145 46.6902 64.2746 46.6902 63.1646V43.9745L53.3801 47.8346C54.3501 48.3946 55.15 48.4945 55.78 48.1345L60.0002 46.0245L66.6902 42.6846Z" class="pr-icon-iso-solid-stroke" stroke-linejoin="round"/>
    <path d="M30.6116 28.5043C30.1816 28.9043 29.9617 29.5643 29.9617 30.4843C29.9617 31.5943 30.2816 32.6944 30.9116 33.7844C31.5416 34.8744 32.3415 35.6943 33.3115 36.2543L38.9116 39.4843L40.0017 40.1143V44.8244L23.9917 52.8244C24.6317 52.4644 24.9417 51.7343 24.9417 50.6243V28.8643C24.9417 27.4143 24.5116 25.9543 23.6616 24.4743C23.4216 24.0543 23.1616 23.6744 22.8816 23.3144C22.8016 23.2044 22.7216 23.1043 22.6316 23.0043C21.9916 22.2443 21.2817 21.6244 20.4817 21.1644L7.10156 13.4444C5.96156 12.7844 4.98164 12.6144 4.18164 12.9444L23.9216 3.07441C24.7716 2.58441 25.8316 2.7144 27.1016 3.4444L40.4817 11.1644C41.7417 11.8944 42.8016 13.0043 43.6616 14.4743C44.5116 15.9543 44.9417 17.4143 44.9417 18.8643V21.2643L38.2517 24.6043L37.6716 24.8944L31.1016 28.1844L30.9116 28.2744C30.8016 28.3344 30.7016 28.4143 30.6116 28.5043Z" class="pr-icon-iso-solid-stroke" stroke-linejoin="round"/>
    <path d="M23.6609 24.4744C23.4209 24.0544 23.1609 23.6745 22.8809 23.3145C22.8009 23.2045 22.7209 23.1044 22.6309 23.0044C21.9909 22.2444 21.281 21.6244 20.481 21.1644L7.10083 13.4445C5.96083 12.7845 4.98091 12.6145 4.18091 12.9445L3.9209 13.0745C3.0609 13.5645 2.63086 14.5344 2.63086 15.9844V37.7444C2.63086 38.8544 2.95081 39.9544 3.58081 41.0444C4.22081 42.1344 5.01096 42.9544 5.98096 43.5144C6.95096 44.0744 7.75086 44.1745 8.38086 43.8145C9.01086 43.4545 9.33081 42.7144 9.33081 41.6044V37.7644L14.501 40.7544L18.251 42.9144V46.7544C18.251 47.8644 18.5709 48.9645 19.2009 50.0545C19.8309 51.1445 20.6308 51.9744 21.6008 52.5244C22.5608 53.0844 23.361 53.1845 23.991 52.8245C24.631 52.4645 24.9409 51.7344 24.9409 50.6244V28.8644C24.9409 27.4144 24.5109 25.9544 23.6609 24.4744ZM18.251 35.2344L9.33081 30.0845V22.4044L16.4609 26.5244L18.251 27.5545V35.2344Z" class="pr-icon-iso-solid-stroke" stroke-linejoin="round"/>
    <path d="M18.2502 27.5544V35.2344L9.33008 30.0845L16.4602 26.5244L18.2502 27.5544Z" class="pr-icon-iso-solid-stroke" stroke-linejoin="round"/>
    <path d="M16.4602 26.5243L9.33008 30.0844V22.4043L16.4602 26.5243Z" class="pr-icon-iso-solid-stroke" stroke-linejoin="round"/>
    <path d="M74.3313 75.7142L68.6113 78.5743C69.2413 78.2143 69.5613 77.4743 69.5613 76.3643V57.1743L74.0215 59.7443V73.8243C74.0215 74.4543 74.1213 75.0842 74.3313 75.7142Z" class="pr-icon-iso-solid-stroke" stroke-linejoin="round"/>
    <path d="M76.7317 35.9245C76.7317 37.0345 76.4115 37.7745 75.7815 38.1345L75.5916 38.2245L66.6917 42.6846L60.0017 46.0245L55.7815 48.1345C56.4115 47.7745 56.7317 47.0345 56.7317 45.9245C56.7317 44.8145 56.4115 43.7145 55.7815 42.6245C55.1515 41.5345 54.3516 40.7145 53.3816 40.1545L44.9417 35.2845L33.3115 28.5646C32.4315 28.0546 31.7016 27.9245 31.1016 28.1745L37.6716 24.8845L38.2517 24.5945L44.9417 21.2545L50.9116 18.2645C51.5416 17.9045 52.3415 18.0046 53.3115 18.5646L73.3816 30.1545C74.3516 30.7145 75.1515 31.5345 75.7815 32.6245C76.4115 33.7145 76.7317 34.8145 76.7317 35.9245Z" class="pr-icon-iso-solid-stroke" stroke-linejoin="round"/>
    <path d="M14.501 40.7544L8.38086 43.8145C9.01086 43.4545 9.33081 42.7144 9.33081 41.6044V37.7644L14.501 40.7544Z" class="pr-icon-iso-solid-stroke" stroke-linejoin="round"/>
</svg>