<svg width="48" height="48" viewBox="0 0 96 133" fill="#229EFF" xmlns="http://www.w3.org/2000/svg" stroke-width="1px" stroke-linecap="round" stroke-linejoin="round"><path d="M45.9296 90.1462C45.4296 90.4962 44.8095 90.4763 44.0895 90.0863C43.3595 89.7063 42.7095 89.0263 42.1495 88.0563L38.7395 82.1663L30.4795 67.9263L32.4695 66.9263L42.5995 84.3962L45.9296 90.1462Z" stroke="white" stroke-linejoin="round"/><path d="M72.5496 125.076L52.1796 89.9264L37.4095 64.4564L30.3295 52.2465L8.7395 15.0064C8.0595 13.8464 7.26948 12.9964 6.33948 12.4664C5.52948 11.9964 4.80945 11.8765 4.18945 12.1165L3.94946 12.2365C3.27946 12.6265 2.93945 13.3464 2.93945 14.4064C2.93945 15.4664 3.27946 16.5765 3.94946 17.7365L10.3295 28.7365V79.6165C10.3295 81.7265 10.9896 83.9264 12.2996 86.1964C13.6196 88.4664 15.1996 90.1264 17.0496 91.1964L61.3795 116.796L67.7595 127.706C68.4395 128.866 69.2295 129.706 70.1595 130.246C71.0795 130.776 71.8796 130.846 72.5496 130.466C73.2196 130.086 73.5594 129.376 73.5594 128.356C73.5594 127.336 73.2196 126.226 72.5496 125.076ZM44.0895 90.0864C43.3595 89.7064 42.7095 89.0264 42.1495 88.0564L38.7395 82.1664L30.4795 67.9264L30.3295 68.0164L22.8395 72.2864C22.0595 72.7364 21.2195 72.6464 20.3195 72.0364C19.4295 71.4264 18.6694 70.5864 18.0594 69.5264C17.4394 68.4564 17.0895 67.3964 17.0095 66.3164C16.9195 65.2364 17.2694 64.4764 18.0594 64.0264L27.6295 58.5764L30.3295 63.2365L32.4695 66.9264L42.5995 84.3964L45.9296 90.1464C45.4296 90.4964 44.8095 90.4764 44.0895 90.0864Z" stroke="white" stroke-linejoin="round"/><path d="M32.4694 66.9261L30.4794 67.9261L30.3294 68.0161L22.8394 72.2861C22.0594 72.7361 21.2194 72.6461 20.3194 72.0361C19.4294 71.4261 18.6693 70.5861 18.0593 69.5261C17.4393 68.4561 17.0894 67.3962 17.0094 66.3162C16.9194 65.2362 17.2693 64.4761 18.0593 64.0261L27.6294 58.5762L30.3294 63.2362L32.4694 66.9261Z" stroke="white" stroke-linejoin="round"/><path d="M61.0594 69.766L60.1696 70.216L58.1796 71.206L50.0496 75.276L57.4695 69.9861L58.1895 69.476C58.6195 69.196 59.0695 69.0761 59.5295 69.1061C59.8995 69.1261 60.2796 69.266 60.6696 69.506C60.7996 69.586 60.9294 69.676 61.0594 69.766Z" stroke="white" stroke-linejoin="round"/><path d="M93.5594 118.356C93.5594 119.376 93.2196 120.086 92.5496 120.466L72.5496 130.466C73.2196 130.086 73.5594 129.376 73.5594 128.356C73.5594 127.336 73.2196 126.226 72.5496 125.076L52.1796 89.9261L37.4095 64.4561L30.3295 52.2462L8.7395 15.006C8.0595 13.846 7.26948 12.9961 6.33948 12.4661C5.52948 11.9961 4.80945 11.8762 4.18945 12.1162L23.9495 2.23615C24.6195 1.85615 25.4195 1.93613 26.3395 2.46613C27.2695 2.99613 28.0595 3.84605 28.7395 5.00605L38.3795 21.6461L30.3295 25.6661L25.8995 27.8861L25.8595 27.9061C25.5395 28.0861 25.2795 28.3861 25.0695 28.8161C24.4795 30.0461 24.7195 31.5861 25.7795 33.4161L30.3295 41.2661L37.8195 54.1761L42.3495 61.9962L42.5895 62.4061L50.0496 75.2761L58.1796 71.2061L60.1696 70.2161L61.0594 69.7661C61.7594 70.2861 62.3695 70.9961 62.8895 71.8961C63.5095 72.9661 63.8995 74.0361 64.0695 75.1361C64.1695 75.7561 64.1196 76.2661 63.9196 76.6861C63.7796 77.0061 63.5495 77.2762 63.2295 77.4862L62.2395 78.1961L54.8295 83.5261L61.7495 95.4661L65.0795 101.196C66.1395 103.036 67.3595 104.006 68.7295 104.126C69.1995 104.176 69.6095 104.106 69.9095 103.896L69.9995 103.846L73.3595 102.166L82.4296 97.626L92.5496 115.076C93.2196 116.226 93.5594 117.326 93.5594 118.356Z" stroke="white" stroke-linejoin="round"/><path d="M70.7895 60.556V101.696C70.7895 102.776 70.5294 103.496 69.9994 103.846L69.9095 103.896C69.6095 104.106 69.1994 104.176 68.7294 104.126C67.3594 104.006 66.1394 103.036 65.0794 101.196L61.7494 95.4661L54.8294 83.526L62.2394 78.196L63.2294 77.4861C63.5494 77.2761 63.7795 77.006 63.9195 76.686C64.1195 76.266 64.1694 75.756 64.0694 75.136C63.8994 74.036 63.5094 72.966 62.8894 71.896C62.3694 70.996 61.7594 70.286 61.0594 69.766C60.9294 69.676 60.7995 69.586 60.6695 69.506C60.2795 69.266 59.8995 69.1261 59.5295 69.1061C59.0695 69.0761 58.6194 69.1961 58.1894 69.4761L57.4694 69.9861L50.0495 75.276L42.5894 62.406L42.3494 61.9961L37.8194 54.176L30.3294 41.266L25.7795 33.416C24.7195 31.586 24.4794 30.046 25.0694 28.816C25.2794 28.386 25.5394 28.086 25.8594 27.906L25.8994 27.886C26.4894 27.586 27.2594 27.716 28.2194 28.276L30.3294 29.4961L49.2795 40.436L58.8494 45.9661L64.0694 48.9761C65.9194 50.0361 67.4994 51.7061 68.8094 53.9761C70.1294 56.2461 70.7895 58.436 70.7895 60.556Z" stroke="white" stroke-linejoin="round"/><path d="M69.9095 103.896L69.7295 103.986" stroke="white" stroke-linejoin="round"/><path d="M90.7894 50.5561V91.6961C90.7894 93.0561 90.3694 93.8461 89.5294 94.0661L82.4294 97.626L73.3594 102.166L69.9994 103.846C70.5294 103.496 70.7894 102.776 70.7894 101.696V60.5561C70.7894 58.4361 70.1293 56.2461 68.8093 53.9761C67.4993 51.7061 65.9193 50.0361 64.0693 48.9761L58.8494 45.9661L49.2794 40.4361L30.3293 29.4961L28.2194 28.276C27.2594 27.716 26.4894 27.586 25.8994 27.886L30.3293 25.666L38.3794 21.646L45.8994 17.886H45.9094C46.4994 17.596 47.2594 17.726 48.2194 18.276L84.0693 38.9761C85.9193 40.0361 87.4993 41.7061 88.8093 43.9761C90.1293 46.2461 90.7894 48.4361 90.7894 50.5561Z" stroke="white" stroke-linejoin="round"/></svg>