<svg width="48" height="48" viewBox="0 0 75 117" fill="#229EFF" xmlns="http://www.w3.org/2000/svg" stroke-width="1px" stroke-linecap="round" stroke-linejoin="round"><path d="M72.9592 98.64C72.9592 101.17 72.2392 102.84 70.8192 103.65L70.3893 103.86L50.8192 113.65C52.2392 112.84 52.9592 111.17 52.9592 108.64C52.9592 106.11 52.2392 103.63 50.8192 101.17L20.5293 48.9199L29.3092 44.5299L40.5293 38.9199L70.8192 91.1699C72.2392 93.6299 72.9592 96.12 72.9592 98.64Z" stroke="white" stroke-linejoin="round"/><path d="M72.9592 16.6498C72.9592 19.1698 72.2392 20.8398 70.8192 21.6498L40.5293 38.9198L29.3092 44.5298L20.5293 48.9198L29.0493 44.0598L50.8192 31.6498C52.2392 30.8398 52.9592 29.1698 52.9592 26.6498C52.9592 24.1298 52.2392 21.6298 50.8192 19.1698C49.3992 16.7198 47.5793 14.8599 45.3793 13.5799C44.5193 13.0899 43.7293 12.7499 42.9893 12.5699C42.0193 12.3299 41.1493 12.3698 40.3793 12.6898L59.9492 2.89981C61.3692 2.07981 63.1793 2.30986 65.3793 3.57986C67.5793 4.85986 69.3992 6.71983 70.8192 9.16983C72.2392 11.6298 72.9592 14.1198 72.9592 16.6498Z" stroke="white" stroke-linejoin="round"/><path d="M50.8201 101.17C52.2401 103.63 52.9601 106.12 52.9601 108.64C52.9601 111.16 52.2401 112.84 50.8201 113.65C49.4001 114.46 47.5801 114.23 45.3801 112.96C43.1801 111.69 41.3701 109.83 39.9501 107.37L4.22009 45.7399C3.44009 44.4099 2.89007 43.1198 2.57007 41.8998C2.24007 40.6698 2.08008 39.4599 2.08008 38.2699C2.08008 37.0799 2.24007 36.0598 2.57007 35.2098C2.89007 34.3598 3.44009 33.7099 4.22009 33.2699L39.9501 12.8998L40.3801 12.6898C41.1501 12.3698 42.0201 12.3298 42.9901 12.5698C43.7301 12.7498 44.5201 13.0898 45.3801 13.5798C47.5801 14.8598 49.4001 16.7198 50.8201 19.1698C52.2401 21.6298 52.9601 24.1198 52.9601 26.6498C52.9601 29.1798 52.2401 30.8398 50.8201 31.6498L29.0502 44.0598L20.5302 48.9198L50.8201 101.17Z" stroke="white" stroke-linejoin="round"/></svg>