<svg width="48" height="48" viewBox="0 0 100 125" xmlns="http://www.w3.org/2000/svg" stroke-width="1px"
     stroke-linecap="round" stroke-linejoin="round">
    <path d="M74.8899 63.9449C74.3099 62.0449 73.6599 60.1649 72.9299 58.3049C72.9199 58.2649 72.9099 58.2249 72.8899 58.1849C71.6199 54.9049 70.16 51.7049 68.5 48.5749C68.49 48.5449 68.4699 48.5149 68.4399 48.4949C68.0199 47.6549 67.5598 46.8249 67.0798 45.9949C67.0098 45.8749 66.9299 45.7449 66.8699 45.6249C66.0199 44.1549 65.1199 42.7149 64.1799 41.3049C61.4399 37.1149 58.3699 33.1949 54.9399 29.5349C50.3699 24.6349 45.5 20.6849 40.3 17.6849C35.37 14.8349 30.7199 13.1749 26.3699 12.6849C26.1199 12.6549 25.8899 12.6349 25.6599 12.6149C21.7699 12.3049 18.31 12.8149 15.29 14.1649L13.72 14.9449C10.35 16.8749 7.66994 19.8849 5.68994 23.9949C3.71994 28.0949 2.75 33.1349 2.75 39.0949C2.75 41.6049 2.96994 44.4849 3.43994 47.7449C3.90994 50.9949 4.58996 54.0549 5.45996 56.9349L22.8398 47.0249C23.4698 46.6649 24.2199 46.6949 25.0999 47.1149C25.1699 47.1449 25.2498 47.1849 25.3298 47.2249C26.2998 47.7549 27.1599 48.5849 27.9099 49.7449L31.2 54.8149L31.6799 55.5649L37.6599 64.7549L49.96 57.7349L47.8101 56.4949C46.7501 55.8749 45.8499 54.9449 45.1399 53.7049C44.4099 52.4649 44.0601 51.2349 44.0601 50.0149C44.0601 49.3149 44.1699 48.7349 44.4199 48.3049C44.4299 48.2549 44.46 48.2149 44.5 48.1749C44.65 47.9049 44.8599 47.7149 45.1299 47.5649C45.8399 47.1549 46.74 47.2549 47.8 47.8749L56.4099 52.8449L57.95 53.7349L58.6899 54.1649L59.0701 54.3749C60.1301 54.9949 61.02 55.9249 61.74 57.1649C62.45 58.4049 62.8201 59.6349 62.8201 60.8549V73.7849C62.8201 75.0049 62.45 75.8249 61.74 76.2349C61.02 76.6449 60.1301 76.5349 59.0701 75.9249C58.0001 75.3149 57.1099 74.3849 56.3799 73.1449C55.6599 71.8949 55.3101 70.6649 55.3101 69.4449V66.9649L40.48 75.3149C40.36 75.3849 40.2499 75.4349 40.1299 75.4749C39.5199 75.6849 38.8 75.5849 37.99 75.1749C37.02 74.6849 36.1499 73.8349 35.3999 72.6049L25.74 57.5449L9.20996 66.9649C12.4 74.4049 16.7701 81.4949 22.3101 88.2049C27.8401 94.9249 33.84 100.145 40.29 103.865L70.3298 121.215C72.3998 122.405 74.1599 122.585 75.6299 121.745C77.1099 120.905 77.8398 119.305 77.8398 116.935V82.4549C77.8398 76.4949 76.8599 70.3249 74.8799 63.9449H74.8899ZM71.1399 113.975C70.4099 114.385 69.53 114.275 68.46 113.665C67.39 113.055 66.51 112.125 65.79 110.885C65.07 109.635 64.7 108.405 64.7 107.185C64.7 105.965 65.07 105.155 65.79 104.745C66.51 104.335 67.39 104.435 68.46 105.045C69.53 105.665 70.4099 106.585 71.1399 107.835C71.8499 109.075 72.21 110.305 72.21 111.525C72.21 112.745 71.8499 113.565 71.1399 113.975Z" class="pr-icon-iso-solid-stroke" stroke-linejoin="round"/>
    <path d="M72.2102 111.525C72.2102 112.745 71.8501 113.565 71.1401 113.975C70.4101 114.385 69.5302 114.275 68.4602 113.665C67.3902 113.055 66.5103 112.125 65.7903 110.885C65.0703 109.635 64.7002 108.405 64.7002 107.185C64.7002 105.965 65.0703 105.155 65.7903 104.745C66.5103 104.335 67.3902 104.435 68.4602 105.045C69.5302 105.665 70.4101 106.585 71.1401 107.835C71.8501 109.075 72.2102 110.305 72.2102 111.525Z" class="pr-icon-iso-solid-stroke" stroke-linejoin="round"/>
    <path d="M58.7002 54.1649L57.6602 54.7549L37.6602 64.7549L49.9602 57.7349L51.7202 56.8549L57.2302 54.0949L57.9602 53.7349L58.7002 54.1649Z" class="pr-icon-iso-solid-stroke" stroke-linejoin="round"/>
    <path d="M57.9607 53.7349L57.2307 54.0949L51.7207 56.8549L49.9607 57.7349L47.8008 56.4949C46.7408 55.8749 45.8506 54.9449 45.1306 53.7049C44.4106 52.4649 44.0508 51.2349 44.0508 50.0149C44.0508 49.3149 44.1707 48.7349 44.4207 48.3049C44.4307 48.2549 44.4607 48.2149 44.4907 48.1749H44.5007C44.6607 47.9049 44.8706 47.7149 45.1306 47.5649C45.8506 47.1549 46.7408 47.2549 47.8008 47.8749L56.4207 52.8449L57.9607 53.7349Z" class="pr-icon-iso-solid-stroke" stroke-linejoin="round"/>
    <path d="M97.8501 72.4549V106.935C97.8501 109.305 97.1101 110.905 95.6401 111.745L95.1702 111.975L75.6401 121.745C77.1101 120.905 77.8501 119.305 77.8501 116.935V82.4549C77.8501 76.4949 76.8601 70.3249 74.8901 63.9449C74.3001 62.0449 73.6502 60.1649 72.9302 58.3049C72.9202 58.2649 72.9101 58.2249 72.8801 58.1849C71.6201 54.9049 70.1602 51.7049 68.4902 48.5749C68.4802 48.5449 68.4702 48.5149 68.4402 48.4949C68.0102 47.6549 67.5503 46.8249 67.0703 45.9949C67.0003 45.8749 66.9301 45.7449 66.8601 45.6249C66.0101 44.1549 65.1202 42.7149 64.1802 41.3049C61.4402 37.1149 58.3602 33.1949 54.9402 29.5349C50.3702 24.6349 45.4903 20.6849 40.2903 17.6849C35.3703 14.8349 30.7201 13.1749 26.3601 12.6849C26.1201 12.6549 25.8901 12.6349 25.6501 12.6149C21.7601 12.3049 18.3003 12.8149 15.2803 14.1649L33.7202 4.94488C37.1002 3.01488 41.0801 2.24488 45.6501 2.61488C50.2101 2.99488 55.1003 4.68488 60.2903 7.68488C65.4903 10.6849 70.3702 14.6349 74.9402 19.5349C79.5102 24.4349 83.4801 29.7949 86.8601 35.6249C90.2401 41.4549 92.9201 47.5649 94.8901 53.9449C96.8601 60.3249 97.8501 66.4949 97.8501 72.4549Z" class="pr-icon-iso-solid-stroke" stroke-linejoin="round"/>
    <path d="M62.8301 63.2149V73.7849C62.8301 75.0049 62.4702 75.8249 61.7502 76.2349C61.0302 76.6449 60.1401 76.5349 59.0801 75.9249C58.0101 75.3149 57.1201 74.3849 56.4001 73.1449C55.6801 71.8949 55.3203 70.6649 55.3203 69.4449V66.9649L58.4802 65.3849L62.8301 63.2149Z" class="pr-icon-iso-solid-stroke" stroke-linejoin="round"/>
    <path d="M58.4702 65.3849L55.3103 66.9649L40.4802 75.3149C40.3702 75.3849 40.2501 75.4349 40.1301 75.4749C39.5201 75.6849 38.8002 75.5849 37.9902 75.1749C37.0202 74.6849 36.1602 73.8349 35.4102 72.6049L25.7402 57.5449L31.2002 54.8149L31.6802 55.5649L37.6602 64.7549L52.1401 57.5149L55.4102 62.6049C56.1602 63.8349 57.0202 64.6849 57.9902 65.1749C58.1502 65.2549 58.3102 65.3249 58.4702 65.3849Z" class="pr-icon-iso-solid-stroke" stroke-linejoin="round"/>
    <path d="M25.0999 47.1149L5.45996 56.9349L22.8298 47.0249C23.4698 46.6649 24.2199 46.6949 25.0999 47.1149Z" class="pr-icon-iso-solid-stroke" stroke-linejoin="round"/>
</svg>