<svg width="48" height="48" viewBox="0 0 88 117" xmlns="http://www.w3.org/2000/svg" stroke-width="1px"
     stroke-linecap="round" stroke-linejoin="round">
    <path d="M63.5396 46.6299C62.1696 44.2699 60.5196 42.5299 58.5896 41.4199L57.5896 40.8399L50.5996 36.8099L36.5996 28.7199L22.5996 20.6399L9.59958 13.1299C7.86958 12.1299 6.35962 11.8899 5.07962 12.4199L4.64963 12.6299C3.27963 13.4099 2.59961 14.9099 2.59961 17.1199V73.3399C2.59961 75.5499 3.27963 77.8399 4.64963 80.1999C6.01963 82.5699 7.66958 84.2999 9.59958 85.4199L58.5896 113.7C60.5196 114.82 62.1696 114.98 63.5396 114.2C64.9096 113.42 65.5896 111.92 65.5896 109.71V53.4899C65.5896 51.2799 64.9096 48.9899 63.5396 46.6299ZM30.5996 77.4599C30.5996 78.5999 30.2596 79.3599 29.5896 79.7399C28.9196 80.1199 28.0896 80.0299 27.0996 79.4499L20.0996 75.4099C19.0996 74.8399 18.2696 73.9799 17.5996 72.8199C16.9296 71.6599 16.5996 70.5099 16.5996 69.3799V61.3399C16.5996 60.2099 16.9296 59.4499 17.5996 59.0599C18.2696 58.6799 19.0996 58.7799 20.0996 59.3499L22.5996 60.7899L27.0996 63.3899C28.0896 63.9599 28.9196 64.8299 29.5896 65.9899C30.2596 67.1399 30.5996 68.2899 30.5996 69.4299V77.4599ZM30.5996 53.3599C30.5996 54.4999 30.2596 55.2599 29.5896 55.6399C28.9196 56.0299 28.0896 55.9299 27.0996 55.3599L22.5996 52.7599L20.0996 51.3199C19.0996 50.7399 18.2696 49.8799 17.5996 48.7199C16.9296 47.5699 16.5996 46.4199 16.5996 45.2799V37.2499C16.5996 36.1099 16.9296 35.3499 17.5996 34.9699C18.2696 34.5899 19.0996 34.6799 20.0996 35.2499L22.5996 36.6899L27.0996 39.2899C28.0896 39.8699 28.9196 40.7299 29.5896 41.8899C30.2596 43.0499 30.5996 44.1899 30.5996 45.3299V53.3599ZM51.5896 89.5799C51.5896 90.7199 51.2596 91.4799 50.5896 91.8599C49.9196 92.2499 49.0896 92.1499 48.0896 91.5799L41.0896 87.5399C40.0996 86.9599 39.2696 86.0999 38.5996 84.9399C37.9296 83.7899 37.5896 82.6399 37.5896 81.4999V73.4699C37.5896 72.3299 37.9296 71.5699 38.5996 71.1899C39.2696 70.8099 40.0996 70.8999 41.0896 71.4699L48.0896 75.5099C49.0896 76.0899 49.9196 76.9499 50.5896 78.1099C51.2596 79.2699 51.5896 80.4099 51.5896 81.5499V89.5799ZM51.5896 65.4899C51.5896 66.6199 51.2596 67.3899 50.5896 67.7699C49.9196 68.1499 49.0996 68.0499 48.0996 67.4799L41.0996 63.4399C40.1096 62.8699 39.2796 61.9999 38.6096 60.8499C37.9396 59.6899 37.5996 58.5399 37.5996 57.3999V49.3699C37.5996 49.2599 37.5996 49.1599 37.6096 49.0599C37.6596 48.0899 37.9896 47.4299 38.5996 47.0899C39.2696 46.7099 40.0996 46.7999 41.0896 47.3799L48.0896 51.4199C49.0896 51.9899 49.9196 52.8599 50.5896 54.0099C51.2596 55.1699 51.5896 56.3199 51.5896 57.4499V65.4899Z" class="pr-icon-iso-solid-stroke" stroke-linejoin="round"/>
    <path d="M51.5897 57.4499V65.4899C51.5897 66.6199 51.2597 67.3899 50.5897 67.7699C49.9197 68.1499 49.0996 68.0499 48.0996 67.4799L41.0996 63.4399C40.1096 62.8699 39.2796 61.9999 38.6096 60.8499C37.9396 59.6899 37.5996 58.5399 37.5996 57.3999V49.3699C37.5996 49.2599 37.5996 49.1599 37.6096 49.0599C37.6596 48.0899 37.9896 47.4299 38.5996 47.0899C39.2696 46.7099 40.0997 46.7999 41.0897 47.3799L48.0897 51.4199C49.0897 51.9899 49.9197 52.8599 50.5897 54.0099C51.2597 55.1699 51.5897 56.3199 51.5897 57.4499Z" class="pr-icon-iso-solid-stroke" stroke-linejoin="round"/>
    <path d="M51.5898 81.5499V89.5799C51.5898 90.7199 51.2598 91.4799 50.5898 91.8599C49.9198 92.2499 49.0898 92.1499 48.0898 91.5799L41.0898 87.5399C40.0998 86.9599 39.2698 86.0999 38.5998 84.9399C37.9298 83.7899 37.5898 82.6399 37.5898 81.4999V73.4699C37.5898 72.3299 37.9298 71.5699 38.5998 71.1899C39.2698 70.8099 40.0998 70.8999 41.0898 71.4699L48.0898 75.5099C49.0898 76.0899 49.9198 76.9499 50.5898 78.1099C51.2598 79.2699 51.5898 80.4099 51.5898 81.5499Z" class="pr-icon-iso-solid-stroke" stroke-linejoin="round"/>
    <path d="M30.5996 69.4299V77.4599C30.5996 78.5999 30.2597 79.3599 29.5897 79.7399C28.9197 80.1199 28.0896 80.0299 27.0996 79.4499L20.0996 75.4099C19.0996 74.8399 18.2696 73.9799 17.5996 72.8199C16.9296 71.6599 16.5996 70.5099 16.5996 69.3799V61.3399C16.5996 60.2099 16.9296 59.4499 17.5996 59.0599C18.2696 58.6799 19.0996 58.7799 20.0996 59.3499L22.5996 60.7899L27.0996 63.3899C28.0896 63.9599 28.9197 64.8299 29.5897 65.9899C30.2597 67.1399 30.5996 68.2899 30.5996 69.4299Z" class="pr-icon-iso-solid-stroke" stroke-linejoin="round"/>
    <path d="M30.5996 45.3299V53.3599C30.5996 54.4999 30.2597 55.2599 29.5897 55.6399C28.9197 56.0299 28.0896 55.9299 27.0996 55.3599L22.5996 52.7599L20.0996 51.3199C19.0996 50.7399 18.2696 49.8799 17.5996 48.7199C16.9296 47.5699 16.5996 46.4199 16.5996 45.2799V37.2499C16.5996 36.1099 16.9296 35.3499 17.5996 34.9699C18.2696 34.5899 19.0996 34.6799 20.0996 35.2499L22.5996 36.6899L27.0996 39.2899C28.0896 39.8699 28.9197 40.7299 29.5897 41.8899C30.2597 43.0499 30.5996 44.1899 30.5996 45.3299Z" class="pr-icon-iso-solid-stroke" stroke-linejoin="round"/>
    <path d="M85.5896 43.4899V99.7099C85.5896 101.92 84.9096 103.42 83.5396 104.2L63.5396 114.2C64.9096 113.42 65.5896 111.92 65.5896 109.71V53.4899C65.5896 51.2799 64.9096 48.9899 63.5396 46.6299C62.1696 44.2699 60.5196 42.5299 58.5896 41.4199L57.5896 40.8399L50.5995 36.8099L36.5995 28.7199L22.5995 20.6399L9.59955 13.1299C7.86955 12.1299 6.35959 11.8899 5.07959 12.4199L24.6496 2.62994C26.0196 1.84994 27.6695 2.01994 29.5995 3.12994L78.5896 31.4199C80.5196 32.5299 82.1696 34.2699 83.5396 36.6299C84.9096 38.9899 85.5896 41.2799 85.5896 43.4899Z" class="pr-icon-iso-solid-stroke" stroke-linejoin="round"/>
</svg>