<svg width="48" height="48" viewBox="0 0 86 114" fill="#229EFF" xmlns="http://www.w3.org/2000/svg" stroke-width="1px" stroke-linecap="round" stroke-linejoin="round"><path d="M61.8098 45.4609C60.4798 43.1709 58.8798 41.4809 57.0098 40.4009L40.0298 30.6009L22.6797 20.5809L9.46973 12.9509C7.59973 11.8709 5.99992 11.7109 4.66992 12.4709C3.33992 13.2309 2.67969 14.6809 2.67969 16.8309V71.3809C2.67969 73.5309 3.33992 75.7509 4.66992 78.0409C5.99992 80.3309 7.59973 82.0209 9.46973 83.1009L57.0098 110.551C58.8798 111.631 60.4798 111.791 61.8098 111.031C63.1398 110.271 63.8098 108.821 63.8098 106.681V52.1209C63.8098 49.9809 63.1398 47.7609 61.8098 45.4609ZM46.8298 81.2909C46.8298 81.9709 46.7097 82.5109 46.4597 82.9109C46.2997 83.1609 46.0999 83.3609 45.8499 83.5009C45.1999 83.8709 44.3897 83.7809 43.4297 83.2209L23.0498 71.4609C22.0898 70.9009 21.2799 70.0609 20.6299 68.9409C19.9799 67.8209 19.6599 66.7009 19.6599 65.6009V42.2209C19.6599 41.1109 19.9799 40.3809 20.6299 40.0009C21.1899 39.6809 21.8797 39.7108 22.6797 40.0908C22.7997 40.1408 22.9198 40.2109 23.0498 40.2809L39.6599 49.8709L43.4297 52.0509C44.3897 52.6009 45.1999 53.4409 45.8499 54.5609C46.4999 55.6909 46.8298 56.8009 46.8298 57.9009V81.2909Z" stroke="white" stroke-linejoin="round"/><path d="M46.8301 63.6409V81.2909C46.8301 81.9709 46.71 82.5109 46.46 82.9109C46.3 83.1609 46.1001 83.3609 45.8501 83.5009C45.2001 83.8709 44.3899 83.7808 43.4299 83.2208L23.05 71.4609C22.09 70.9009 21.2801 70.0609 20.6301 68.9409C19.9801 67.8209 19.6602 66.7009 19.6602 65.6009V42.2208C19.6602 41.1108 19.9801 40.3809 20.6301 40.0009C21.1901 39.6809 21.8799 39.7108 22.6799 40.0908C22.7999 40.1408 22.92 40.2108 23.05 40.2808L39.6602 49.8709V55.6009C39.6602 56.7009 39.9801 57.8209 40.6301 58.9409C41.2801 60.0609 42.09 60.9009 43.05 61.4609L46.8301 63.6409Z" stroke="white" stroke-linejoin="round"/><path d="M83.8098 42.1209V96.6809C83.8098 98.8209 83.1398 100.271 81.8098 101.031L61.8098 111.031C63.1398 110.271 63.8098 108.821 63.8098 106.681V52.1209C63.8098 49.9809 63.1398 47.7609 61.8098 45.4609C60.4798 43.1709 58.8798 41.4809 57.0098 40.4009L40.0298 30.6009L22.6797 20.5809L9.46973 12.9509C7.59973 11.8709 5.99992 11.7109 4.66992 12.4709L24.6699 2.47085C25.9999 1.71085 27.5997 1.8709 29.4697 2.9509L77.0098 30.4009C78.8798 31.4809 80.4798 33.1709 81.8098 35.4609C83.1398 37.7609 83.8098 39.9809 83.8098 42.1209Z" stroke="white" stroke-linejoin="round"/></svg>