<svg width="48" height="48" viewBox="0 0 94 120" xmlns="http://www.w3.org/2000/svg" stroke-width="1px"
     stroke-linecap="round" stroke-linejoin="round">
    <path d="M22.7603 49.084C22.5803 49.154 22.4005 49.2541 22.2305 49.3641L22.7603 49.1041L22.9104 49.024C22.8604 49.034 22.8103 49.054 22.7603 49.084Z" class="pr-icon-iso-solid-stroke" stroke-linejoin="round"/>
    <path d="M35.9099 98.124L6.21997 80.9841C5.23997 80.4141 4.42 79.5641 3.75 78.4241C3.09 77.2741 2.75977 76.144 2.75977 75.024V43.324C2.75977 41.144 3.42 39.664 4.75 38.874L5.23999 38.634C6.46999 38.134 7.93992 38.394 9.66992 39.384L15.45 42.724C14.7 43.684 14.13 44.8541 13.73 46.2341C13.32 47.6241 13.1199 49.1441 13.1199 50.7941C13.1199 54.7541 14.0898 59.0241 16.0098 63.6041C17.9398 68.1841 22.0398 75.584 28.3098 85.814L35.9099 98.124Z" class="pr-icon-iso-solid-stroke" stroke-linejoin="round"/>
    <path d="M23.48 31.514C23.48 33.154 23.2398 34.524 22.7598 35.624C22.2598 36.794 21.49 37.6641 20.46 38.2341C18.44 39.3541 15.9999 39.084 13.1199 37.414C12.3199 36.954 11.5598 36.424 10.8298 35.834C8.87983 34.264 7.18999 32.2341 5.73999 29.7441C3.74999 26.3141 2.75977 22.9141 2.75977 19.5541C2.75977 16.1941 3.74999 14.014 5.73999 12.854L6.35986 12.5441C8.23986 11.7541 10.4899 12.124 13.1199 13.644C15.9999 15.304 18.44 17.874 20.46 21.344C22.08 24.144 23.0499 26.884 23.3599 29.564C23.3899 29.804 23.4099 30.034 23.4299 30.264C23.4599 30.684 23.48 31.094 23.48 31.514Z" class="pr-icon-iso-solid-stroke" stroke-linejoin="round"/>
    <path d="M61.4199 77.5541L59.95 78.2941C60.46 78.0541 60.9499 77.814 61.4299 77.584C61.4299 77.574 61.4299 77.5641 61.4199 77.5541ZM22.7598 49.084V49.1041L22.9099 49.024C22.8599 49.034 22.8098 49.054 22.7598 49.084Z" class="pr-icon-iso-solid-stroke" stroke-linejoin="round"/>
    <path d="M49.3796 40.524C49.3796 40.644 49.3796 40.764 49.3796 40.884C49.3196 44.574 48.1396 47.064 45.8496 48.334C44.3296 49.174 42.6197 49.3441 40.6897 48.8541C39.6297 48.5841 38.4996 48.0941 37.2996 47.4141C35.9096 46.6141 34.6097 45.6341 33.3997 44.4841C33.2397 44.3341 33.0797 44.184 32.9197 44.024C31.3597 42.464 29.9597 40.604 28.7097 38.444C28.3497 37.824 28.0197 37.204 27.7197 36.594C27.4497 36.054 27.1997 35.5141 26.9897 34.9741C26.0897 32.8341 25.5396 30.7041 25.3196 28.6041C25.2596 27.9241 25.2197 27.244 25.2197 26.564C25.2197 24.244 25.6498 22.374 26.4998 20.954C27.0598 20.034 27.7897 19.314 28.7097 18.774L29.4797 18.394C31.6597 17.494 34.2796 17.9241 37.2996 19.6741C39.4296 20.9041 41.3696 22.5741 43.0996 24.6841C44.0796 25.8741 44.9996 27.2041 45.8496 28.6741C48.2096 32.7441 49.3896 36.694 49.3896 40.524H49.3796Z" class="pr-icon-iso-solid-stroke" stroke-linejoin="round"/>
    <path d="M71.8198 83.0941V114.884C71.8198 116.004 71.4898 116.754 70.8298 117.134C70.1698 117.514 69.3499 117.424 68.3699 116.854L38.6699 99.7141L46.1799 96.124C52.3399 93.074 56.4299 90.3941 58.4399 88.0941C60.4599 85.7841 61.46 82.654 61.46 78.694C61.46 78.324 61.4499 77.944 61.4299 77.574C61.4299 77.564 61.4299 77.5541 61.4199 77.5441C61.3599 76.2041 61.1699 74.8541 60.8599 73.4941C60.4599 71.7341 59.8498 69.874 59.0498 67.884L64.9199 71.274C66.0799 71.944 67.1298 72.8341 68.0798 73.9641C68.6898 74.6841 69.2598 75.5041 69.7898 76.4141C71.1298 78.7241 71.7998 80.9441 71.8198 83.0941Z" class="pr-icon-iso-solid-stroke" stroke-linejoin="round"/>
    <path d="M55.9102 88.124L35.9102 98.124L28.3101 85.814C22.0401 75.584 17.94 68.1841 16.01 63.6041C14.09 59.0241 13.1201 54.7541 13.1201 50.7941C13.1201 49.1441 13.3202 47.6241 13.7302 46.2341C14.1302 44.8541 14.7002 43.6841 15.4502 42.7241L22.76 39.074L27.7102 36.5941C28.0102 37.2041 28.3402 37.824 28.7002 38.444C29.9502 40.604 31.3502 42.464 32.9102 44.024L22.9102 49.024C22.8602 49.034 22.81 49.054 22.76 49.084C22.58 49.154 22.4002 49.2541 22.2302 49.3641C20.7602 50.3341 20.03 52.134 20.03 54.774C20.03 57.184 20.94 60.3841 22.76 64.3641C22.99 64.8641 23.2302 65.364 23.4802 65.884C24.1602 67.284 25.0501 68.9641 26.1401 70.9341C28.7101 75.5641 32.4002 81.774 37.2102 89.564C39.9702 88.314 42.3601 87.154 44.3901 86.074L48.6602 83.9341L52.2302 82.1541L55.9102 88.124Z" class="pr-icon-iso-solid-stroke" stroke-linejoin="round"/>
    <path d="M27.7102 36.5941L22.76 39.074L15.4502 42.7241L9.67017 39.384C7.94017 38.394 6.47023 38.134 5.24023 38.634L10.8301 35.834C11.5601 36.424 12.3201 36.9541 13.1201 37.4141C16.0001 39.0841 18.4402 39.3541 20.4602 38.2341L22.76 37.084L26.9802 34.9741C27.1902 35.5141 27.4402 36.0541 27.7102 36.5941Z" class="pr-icon-iso-solid-stroke" stroke-linejoin="round"/>
    <path d="M41.1294 12.5641L29.4695 18.3941L28.6995 18.7741C27.7795 19.3141 27.0495 20.0341 26.4895 20.9541C25.6395 22.3741 25.2095 24.2441 25.2095 26.5641C25.2095 27.2441 25.2493 27.9241 25.3093 28.6041C25.5293 30.7041 26.0795 32.8341 26.9795 34.9741L22.7593 37.0841L20.4595 38.2341C21.4895 37.6641 22.2593 36.7941 22.7593 35.6241C23.2393 34.5241 23.4795 33.1541 23.4795 31.5141C23.4795 31.0941 23.4594 30.6841 23.4294 30.2641C23.4094 30.0341 23.3894 29.8041 23.3594 29.5641C23.0494 26.8841 22.0795 24.1441 20.4595 21.3441C18.4395 17.8741 15.9994 15.3041 13.1194 13.6441C10.4894 12.1241 8.23937 11.7541 6.35938 12.5441L25.7395 2.85409C27.7295 1.68409 30.1894 1.95407 33.1194 3.64407C35.9994 5.30407 38.4395 7.87408 40.4595 11.3441C40.6995 11.7541 40.9194 12.1641 41.1294 12.5641Z" class="pr-icon-iso-solid-stroke" stroke-linejoin="round"/>
    <path d="M69.3799 30.5241C69.3799 31.5041 69.3099 32.4041 69.1599 33.2241L59.0398 38.2841L54.7 40.4541L54.0798 40.7641C53.0798 41.3541 52.3198 42.2141 51.8298 43.3641C51.5398 44.0241 51.33 44.7941 51.22 45.6441L45.8398 48.3341C48.1298 47.0641 49.3099 44.5741 49.3699 40.8841C49.3699 40.7641 49.3699 40.6441 49.3699 40.5241C49.3699 36.6941 48.1898 32.7441 45.8298 28.6741C44.9798 27.2041 44.0598 25.8741 43.0798 24.6841C41.3498 22.5741 39.4098 20.9041 37.2798 19.6741C34.2598 17.9241 31.64 17.4941 29.46 18.3941L41.1199 12.564L48.6899 8.77407C51.0199 7.41407 53.8898 7.71409 57.2798 9.67409C60.6198 11.6041 63.4698 14.6041 65.8298 18.6741C68.1898 22.7441 69.3699 26.6941 69.3699 30.5241H69.3799Z" class="pr-icon-iso-solid-stroke" stroke-linejoin="round"/>
    <path d="M71.8196 59.4241C71.8196 60.2841 71.7496 61.0841 71.6196 61.8041C71.2396 63.8741 70.2996 65.3241 68.7996 66.1441C67.1796 67.0441 65.2896 67.0441 63.1096 66.1441H63.0996C62.5696 65.9341 62.0197 65.6541 61.4597 65.3341C58.5297 63.6341 56.0696 61.0741 54.0796 57.6541C53.4296 56.5341 52.8897 55.424 52.4597 54.314C51.5497 52.014 51.0996 49.7341 51.0996 47.4641C51.0996 46.8141 51.1397 46.2141 51.2197 45.6441C51.3297 44.7941 51.5396 44.0241 51.8296 43.3641C52.3196 42.2141 53.0796 41.3541 54.0796 40.7641L54.6997 40.4541C56.3297 39.7641 58.2497 39.9641 60.4597 41.0241C60.7897 41.1841 61.1197 41.3541 61.4597 41.5541C64.3397 43.2141 66.7896 45.784 68.7996 49.254C69.9696 51.264 70.7996 53.2541 71.2896 55.2041C71.6396 56.6241 71.8196 58.0341 71.8196 59.4241Z" class="pr-icon-iso-solid-stroke" stroke-linejoin="round"/>
    <path d="M91.8201 49.4241C91.8201 52.7941 90.82 55.0341 88.8 56.1441L88.3901 56.3541L81.9502 59.564L80.02 60.5341L74.4702 63.3041L68.8 66.1441C70.3 65.3241 71.2401 63.8741 71.6201 61.8041C71.7501 61.0841 71.8201 60.2841 71.8201 59.4241C71.8201 58.0341 71.64 56.624 71.29 55.204C70.8 53.254 69.97 51.264 68.8 49.254C66.79 45.784 64.3402 43.2141 61.4602 41.5541C61.1202 41.3541 60.7902 41.1841 60.4602 41.0241C58.2502 39.9641 56.3302 39.764 54.7002 40.454L59.04 38.2841L69.1602 33.2241L74.0801 30.764C76.0701 29.594 78.5302 29.8641 81.4602 31.5541C84.3402 33.2141 86.79 35.784 88.8 39.254C90.82 42.734 91.8201 46.1241 91.8201 49.4241Z" class="pr-icon-iso-solid-stroke" stroke-linejoin="round"/>
    <path d="M91.8198 73.194V104.894C91.8198 106.014 91.4898 106.764 90.8298 107.144L90.6199 107.244L70.8298 117.144C71.4898 116.764 71.8198 116.014 71.8198 114.894V83.1041C71.7998 80.9541 71.1298 78.7341 69.7898 76.4241C69.2598 75.5141 68.6898 74.6941 68.0798 73.9741C67.1298 72.8441 66.0799 71.9541 64.9199 71.2841L59.0498 67.894C59.1698 67.964 60.0399 67.6041 61.3699 66.9841C61.5499 66.8941 61.75 66.804 61.95 66.704L62.0098 66.6741C62.3398 66.5141 62.6998 66.3441 63.0698 66.1641C63.0798 66.1641 63.0899 66.164 63.0999 66.144H63.1099C65.2899 67.044 67.1798 67.044 68.7998 66.144L74.47 63.3041L80.0198 60.5341L81.95 59.564L84.9199 61.2841C86.8199 62.3841 88.4398 64.0941 89.7898 66.4241C91.1498 68.7641 91.8198 71.014 91.8198 73.194Z" class="pr-icon-iso-solid-stroke" stroke-linejoin="round"/>
    <path d="M54.5593 74.7141C54.5593 74.8841 54.5593 75.0541 54.5493 75.2241C54.4193 77.5041 53.4594 79.5141 51.6794 81.2641C51.4594 81.4841 51.2295 81.6941 50.9795 81.9041C50.2995 82.4841 49.4294 83.1141 48.3794 83.7841C47.2594 84.4941 45.9294 85.2641 44.3894 86.0741C42.3594 87.1541 39.9695 88.314 37.2095 89.564C32.3995 81.774 28.7094 75.5641 26.1394 70.9341C25.0494 68.9641 24.1595 67.284 23.4795 65.884C23.2295 65.364 22.9893 64.8641 22.7593 64.3641C20.9393 60.3841 20.0293 57.1841 20.0293 54.7741C20.0293 52.1341 20.7595 50.3341 22.2295 49.3641L22.7593 49.1041L22.9094 49.0241C24.2694 48.4741 25.9595 48.7941 27.9695 49.9541C29.5195 50.8541 30.8194 51.994 31.8494 53.384C32.8894 54.774 33.8094 56.1941 34.6194 57.6541L37.2095 62.2241L39.5493 60.7941L39.8794 60.5941C40.2094 60.3841 40.5494 60.214 40.9094 60.074H40.9395C41.5395 59.834 42.1894 59.7041 42.8994 59.6641C43.8094 59.6141 44.7693 59.8241 45.7893 60.2941C46.0593 60.4141 46.3394 60.5541 46.6194 60.7141C48.7994 61.9841 50.6695 63.9741 52.2295 66.6841C53.7795 69.3941 54.5593 72.0741 54.5593 74.7141Z" class="pr-icon-iso-solid-stroke" stroke-linejoin="round"/>
    <path d="M52.4602 54.314L44.6602 58.204L40.9402 60.064H40.9102C40.5502 60.214 40.2101 60.3841 39.8801 60.5941L39.55 60.7941L37.2102 62.2241L34.6201 57.6541C33.8101 56.1941 32.8901 54.774 31.8501 53.384C30.8201 51.994 29.5202 50.854 27.9702 49.954C25.9602 48.794 24.2702 48.474 22.9102 49.024L32.9102 44.024C33.0702 44.184 33.2301 44.3341 33.3901 44.4841C34.6001 45.6341 35.9 46.6141 37.29 47.4141C38.49 48.0941 39.6202 48.5841 40.6802 48.8541C42.6102 49.3441 44.3201 49.174 45.8401 48.334L51.2202 45.644C51.1402 46.214 51.1001 46.8141 51.1001 47.4641C51.1001 49.7341 51.5502 52.014 52.4602 54.314Z" class="pr-icon-iso-solid-stroke" stroke-linejoin="round"/>
    <path d="M63.0994 66.144C63.0994 66.144 63.0793 66.1541 63.0693 66.1641C62.6993 66.3441 62.3393 66.5141 62.0093 66.6741L61.9495 66.704C61.7495 66.804 61.5494 66.8941 61.3694 66.9841C60.0394 67.6041 59.1693 67.964 59.0493 67.894C59.8493 69.884 60.4594 71.744 60.8594 73.504C61.1694 74.864 61.3594 76.2141 61.4194 77.5541L59.9495 78.2941L59.6594 78.4341L52.2295 82.1541L48.6594 83.9341L44.3894 86.074C45.9294 85.264 47.2594 84.4941 48.3794 83.7841C49.4294 83.1141 50.2995 82.4841 50.9795 81.9041C51.2295 81.6941 51.4594 81.484 51.6794 81.264C53.4594 79.514 54.4193 77.5041 54.5493 75.2341C54.5593 75.0541 54.5593 74.8841 54.5593 74.7141C54.5593 72.0741 53.7795 69.3941 52.2295 66.6841C50.6695 63.9741 48.7994 61.9841 46.6194 60.7141C46.3394 60.5541 46.0593 60.4141 45.7893 60.2941C44.7693 59.8241 43.8094 59.6141 42.8994 59.6641C42.1894 59.7041 41.5395 59.834 40.9395 60.064L44.6594 58.204L52.4595 54.314C52.8895 55.424 53.4293 56.5341 54.0793 57.6541C56.0693 61.0741 58.5295 63.634 61.4595 65.334C62.0195 65.654 62.5694 65.934 63.0994 66.144Z" class="pr-icon-iso-solid-stroke" stroke-linejoin="round"/>
    <path d="M44.3899 86.074L42.5898 86.9741" class="pr-icon-iso-solid-stroke" stroke-linejoin="round"/>
</svg>