<svg width="48" height="48" viewBox="0 0 82 129" fill="#229EFF" xmlns="http://www.w3.org/2000/svg" stroke-width="1px" stroke-linecap="round" stroke-linejoin="round"><path d="M40.9607 27.0173C40.9607 29.5573 40.1707 31.2873 38.5907 32.1873C37.9107 32.5673 37.1706 32.7573 36.3806 32.7373C35.3306 32.7173 34.1706 32.3473 32.9006 31.6173C32.8806 31.6073 32.8706 31.5973 32.8506 31.5873C30.6606 30.3073 28.7807 28.3173 27.2107 25.6173C26.3907 24.2073 25.7906 22.8173 25.4006 21.4573C25.0306 20.1873 24.8506 18.9373 24.8506 17.7173C24.8506 15.1773 25.6307 13.4573 27.2107 12.5573C28.7907 11.6573 30.6906 11.8473 32.9006 13.1273C35.1206 14.4073 37.0107 16.4073 38.5907 19.1273C38.8607 19.5873 39.1007 20.0473 39.3207 20.4973C40.4107 22.7373 40.9607 24.9073 40.9607 27.0173Z" stroke="white" stroke-linejoin="round"/><path d="M38.4404 64.6873L34.7803 66.5173L30.9903 68.4073C30.8503 65.5573 31.0104 62.6973 31.4404 59.8273C31.8804 56.9673 32.4704 54.6673 33.2004 52.9373C33.7004 54.4173 34.2203 55.8373 34.7803 57.1873C35.8903 59.9573 37.1204 62.4573 38.4404 64.6873Z" stroke="white" stroke-linejoin="round"/><path d="M30.8903 88.2273V88.6473L12.5703 97.8373C12.7803 97.7373 12.9803 97.5973 13.1603 97.4073L22.1302 88.9473C22.6602 87.8673 22.9303 87.1773 22.9303 86.8673L23.7402 72.3174L26.4802 78.4174L30.7003 87.8074L30.8903 88.2273Z" stroke="white" stroke-linejoin="round"/><path d="M59.0804 79.0873V125.307C59.0804 125.917 58.8803 126.347 58.4803 126.577C58.0803 126.807 57.6104 126.767 57.0704 126.457C56.5304 126.147 56.0604 125.637 55.6604 124.947C55.2604 124.247 55.0604 123.597 55.0604 122.977V76.7573C55.0604 76.1373 54.8504 75.4873 54.4504 74.7873C54.0504 74.0973 53.5804 73.5973 53.0404 73.2873C52.5104 72.9773 52.0404 72.9373 51.6304 73.1673C51.2304 73.3973 51.0304 73.8173 51.0304 74.4373V80.2073C51.0304 80.5073 50.9804 80.7573 50.8904 80.9573C50.7904 81.1873 50.6304 81.3573 50.4204 81.4773C50.0204 81.7073 49.5504 81.6673 49.0104 81.3573C48.4804 81.0473 48.0103 80.5473 47.6003 79.8473C47.2003 79.1573 47.0004 78.4973 47.0004 77.8873V75.6873C45.6304 74.2273 44.3803 72.8073 43.2303 71.4173C41.3603 69.1373 39.8004 66.9473 38.5404 64.8573C38.5104 64.7973 38.4704 64.7473 38.4404 64.6873C37.1204 62.4573 35.8904 59.9573 34.7804 57.1873C34.2204 55.8373 33.7004 54.4173 33.2004 52.9373C32.4704 54.6673 31.8804 56.9673 31.4404 59.8273C31.0104 62.6973 30.8504 65.5573 30.9904 68.4073L32.7804 72.3473L37.6804 83.1473L38.2404 84.3773C38.5104 84.9273 38.6904 85.4573 38.7904 85.9773C38.8904 86.4973 38.9404 86.9873 38.9404 87.4473V111.367C38.9404 112.677 38.5604 113.547 37.7904 113.987C37.0104 114.427 36.0604 114.317 34.9204 113.667C33.7704 113.007 32.8204 112.007 32.0504 110.677C31.2704 109.347 30.8904 108.027 30.8904 106.717V88.2273L30.7004 87.8073L26.4803 78.4173L23.7404 72.3173L22.9304 86.8673C22.9304 87.1773 22.6604 87.8673 22.1304 88.9473L13.1604 97.4073C12.9804 97.5973 12.7804 97.7373 12.5704 97.8373C12.0004 98.1173 11.3304 98.0773 10.5504 97.7473C9.47041 97.2773 8.4704 96.3873 7.5304 95.0773C6.5904 93.7673 6.0504 92.4473 5.9104 91.1373C5.7804 89.8273 6.05034 88.8273 6.72034 88.1373L14.7804 80.4273V55.8173C14.7804 55.0573 14.8004 54.2873 14.8304 53.4973C14.9004 51.8273 15.0504 50.0973 15.2804 48.3073C15.6204 45.6873 16.1204 43.3773 16.7904 41.3773L10.7504 41.6973V53.4873C10.7504 54.7973 10.3605 55.6773 9.59045 56.1173C8.82045 56.5573 7.86034 56.4473 6.72034 55.7873C5.58034 55.1273 4.62034 54.1273 3.85034 52.7973C3.08034 51.4673 2.69043 50.1473 2.69043 48.8373V34.3973C2.69043 33.5473 2.86044 32.8573 3.20044 32.3173C3.36044 32.0473 3.57043 31.8473 3.82043 31.7073C4.08043 31.5773 4.37045 31.5073 4.71045 31.5073L20.4204 30.4173C21.2204 30.3673 21.9804 30.3373 22.6904 30.3473C23.4504 30.3473 24.1504 30.3773 24.8004 30.4573C26.0404 30.5973 27.2004 30.9773 28.2704 31.5973C29.1404 32.0973 29.9704 32.7973 30.7504 33.6973C31.4904 34.5273 32.1903 35.5473 32.8503 36.7273C33.5203 37.9173 34.2304 39.3473 34.9904 41.0273C35.8204 42.8273 36.7004 44.9173 37.6404 47.2873C39.7804 52.6873 41.7303 56.9273 43.4803 60.0173C43.8003 60.5873 44.1304 61.1373 44.4604 61.6773C45.9204 64.0773 47.4704 66.1773 49.1204 68.0173C49.8504 67.8273 50.4904 67.7673 51.0304 67.8473C51.5704 67.9273 52.2004 68.1773 52.9404 68.6073C54.6204 69.5773 56.0604 71.0973 57.2704 73.1873C58.0904 74.5873 58.6304 75.9473 58.8904 77.2473C58.9104 77.3373 58.9304 77.4373 58.9404 77.5273C59.0304 78.0573 59.0804 78.5773 59.0804 79.0873Z" stroke="white" stroke-linejoin="round"/><path d="M60.9604 17.0173C60.9604 19.5573 60.1705 21.2873 58.5905 22.1873L52.0704 25.4473L38.5905 32.1873C40.1705 31.2873 40.9604 29.5573 40.9604 27.0173C40.9604 24.9073 40.4104 22.7373 39.3204 20.4973C39.1004 20.0473 38.8605 19.5873 38.5905 19.1273C37.0105 16.4073 35.1204 14.4073 32.9004 13.1273C30.6904 11.8473 28.7904 11.6573 27.2104 12.5573L47.2104 2.55734C48.7904 1.65734 50.6904 1.84734 52.9004 3.12734C55.1204 4.40734 57.0105 6.40734 58.5905 9.12734C60.1705 11.8473 60.9604 14.4773 60.9604 17.0173Z" stroke="white" stroke-linejoin="round"/><path d="M69.1202 58.0173L49.1202 68.0173C47.4702 66.1773 45.9203 64.0773 44.4603 61.6773C44.1303 61.1373 43.8002 60.5873 43.4802 60.0173C41.7302 56.9273 39.7803 52.6873 37.6403 47.2873C36.7003 44.9173 35.8202 42.8273 34.9902 41.0273C34.2302 39.3473 33.5202 37.9173 32.8502 36.7273C32.1902 35.5473 31.4902 34.5273 30.7502 33.6973C29.9702 32.7973 29.1403 32.0973 28.2703 31.5973C27.2003 30.9773 26.0403 30.5973 24.8003 30.4573C24.1503 30.3773 23.4503 30.3473 22.6903 30.3473C21.9803 30.3373 21.2203 30.3673 20.4203 30.4173L4.71033 31.5073C4.37033 31.5073 4.08031 31.5773 3.82031 31.7073L23.7903 21.7273H23.8103C24.0703 21.5773 24.3703 21.5073 24.7103 21.5073L25.4003 21.4573C25.7903 22.8173 26.3903 24.2073 27.2103 25.6173C28.7803 28.3173 30.6602 30.3073 32.8502 31.5873C32.8702 31.5973 32.8803 31.6073 32.9003 31.6173C34.1703 32.3473 35.3302 32.7173 36.3802 32.7373C37.1702 32.7573 37.9103 32.5673 38.5903 32.1873L52.0703 25.4473C52.3403 25.8473 52.6002 26.2773 52.8502 26.7273C54.2302 29.1773 55.8203 32.6973 57.6403 37.2873C59.7803 42.6873 61.7302 46.9273 63.4802 50.0173C65.2202 53.1073 67.1002 55.7673 69.1202 58.0173Z" stroke="white" stroke-linejoin="round"/><path d="M79.0802 69.0873V115.307C79.0802 115.917 78.8801 116.347 78.4801 116.577L58.4801 126.577C58.8801 126.347 59.0802 125.917 59.0802 125.307V79.0873C59.0802 78.5773 59.0302 78.0573 58.9402 77.5273C58.9302 77.4373 58.9101 77.3373 58.8901 77.2473C58.6301 75.9473 58.0901 74.5873 57.2701 73.1873C56.0601 71.0973 54.6202 69.5773 52.9402 68.6073C52.2002 68.1773 51.5702 67.9273 51.0302 67.8473C50.4902 67.7673 49.8501 67.8273 49.1201 68.0173L69.1201 58.0173C69.8501 57.8273 70.4902 57.7673 71.0302 57.8473C71.5702 57.9273 72.2002 58.1773 72.9402 58.6073C74.6202 59.5773 76.0601 61.0973 77.2701 63.1873C78.4801 65.2673 79.0802 67.2373 79.0802 69.0873Z" stroke="white" stroke-linejoin="round"/><path d="M16.7903 41.3773C16.1203 43.3773 15.6203 45.6874 15.2803 48.3074C15.0503 50.0974 14.9003 51.8273 14.8303 53.4973L9.59033 56.1173C10.3603 55.6773 10.7502 54.7974 10.7502 53.4874V41.6973L16.7903 41.3773Z" stroke="white" stroke-linejoin="round"/><path d="M55.0603 79.1573V105.357L37.7903 113.987C38.5603 113.547 38.9403 112.677 38.9403 111.367V87.4473C38.9403 86.9873 38.8903 86.4973 38.7903 85.9773C38.6903 85.4573 38.5102 84.9273 38.2402 84.3773L37.6803 83.1473L32.7803 72.3474L30.9902 68.4073L34.7803 66.5173L38.4403 64.6873C38.4703 64.7473 38.5103 64.7973 38.5403 64.8573C39.8003 66.9473 41.3602 69.1374 43.2302 71.4174C44.3802 72.8074 45.6302 74.2273 47.0002 75.6873V77.8874C47.0002 78.4974 47.2002 79.1574 47.6002 79.8474C48.0102 80.5474 48.4803 81.0473 49.0103 81.3573C49.5503 81.6673 50.0203 81.7073 50.4203 81.4773L50.8903 81.2473L55.0603 79.1573Z" stroke="white" stroke-linejoin="round"/><path d="M55.0604 76.7573V79.1573L50.8904 81.2473L50.4204 81.4773C50.6304 81.3573 50.7904 81.1873 50.8904 80.9573C50.9804 80.7573 51.0304 80.5073 51.0304 80.2073V74.4373C51.0304 73.8173 51.2304 73.3973 51.6304 73.1673C52.0404 72.9373 52.5104 72.9773 53.0404 73.2873C53.5804 73.5973 54.0504 74.0973 54.4504 74.7873C54.8504 75.4873 55.0604 76.1373 55.0604 76.7573Z" stroke="white" stroke-linejoin="round"/></svg>