<svg width="48" height="48" viewBox="0 0 123 107" fill="#229EFF" xmlns="http://www.w3.org/2000/svg" stroke-width="1px" stroke-linecap="round" stroke-linejoin="round"><path d="M100.13 98.0364C100.13 100.896 99.3196 102.776 97.7096 103.696C96.1096 104.606 94.0596 104.356 91.5696 102.916C89.0896 101.486 87.0396 99.3764 85.4296 96.6064L51.8296 38.6364L51.2195 37.5864L33.8096 47.5164L16.9996 57.0964C15.3896 58.0164 13.3496 57.7564 10.8596 56.3164C8.37956 54.8864 6.32957 52.7764 4.71957 50.0064C3.10957 47.2264 2.30957 44.4164 2.30957 41.5664C2.30957 38.7164 3.10957 36.8264 4.71957 35.9064L45.0796 12.8964L45.6496 12.6164C46.5296 12.2564 47.4696 12.1664 48.4896 12.3564C49.3496 12.5164 50.2595 12.8664 51.2195 13.4264C53.5595 14.7764 55.5996 16.9664 57.3596 19.9964L64.1096 31.6364L97.7096 89.5964C99.3196 92.3764 100.13 95.1864 100.13 98.0364Z" stroke="white" stroke-linejoin="round"/><path d="M51.83 38.6364L37 47.0964L36.52 47.3364L17 57.0964L33.81 47.5164L51.22 37.5864L51.83 38.6364Z" stroke="white" stroke-linejoin="round"/><path d="M120.129 88.0364C120.129 90.8964 119.319 92.7764 117.709 93.6964L97.7094 103.696C99.3194 102.776 100.129 100.896 100.129 98.0364C100.129 95.1764 99.3194 92.3764 97.7094 89.5964L64.1094 31.6364L57.3594 19.9964C55.5994 16.9664 53.5594 14.7764 51.2194 13.4264C50.2594 12.8664 49.3494 12.5164 48.4894 12.3564C47.4694 12.1664 46.5294 12.2564 45.6494 12.6164L65.0794 2.89637C66.8294 1.89637 68.8794 2.07637 71.2194 3.42637C73.5594 4.77637 75.5994 6.96637 77.3594 9.99637L117.709 79.5964C119.319 82.3764 120.129 85.1864 120.129 88.0364Z" stroke="white" stroke-linejoin="round"/></svg>