<svg width="48" height="48" viewBox="0 0 91 120" fill="#229EFF" xmlns="http://www.w3.org/2000/svg" stroke-width="1px" stroke-linecap="round" stroke-linejoin="round"><path d="M88.0598 41.52V103.92C88.0598 105.69 87.5298 106.87 86.4898 107.46L86.1698 107.62L66.4998 117.47C67.5398 116.87 68.0598 115.69 68.0598 113.92V51.53C68.0598 49.76 67.5398 47.98 66.4998 46.18C65.4498 44.38 64.1598 43.04 62.6198 42.15C61.2298 41.35 60.0498 41.15 59.0698 41.54L78.7398 31.7C79.7898 31.11 81.0798 31.25 82.6198 32.14C84.1598 33.03 85.4498 34.38 86.4898 36.17C87.5298 37.97 88.0598 39.76 88.0598 41.52Z" stroke="white" stroke-linejoin="round"/><path d="M68.0597 51.53V113.92C68.0597 115.69 67.5397 116.87 66.4997 117.47C65.4497 118.06 64.1597 117.91 62.6197 117.02C61.0797 116.13 59.7897 114.79 58.7497 112.99C57.7097 111.2 57.1797 109.41 57.1797 107.64V45.25C57.1797 43.48 57.7097 42.3 58.7497 41.7L59.0697 41.54C60.0497 41.15 61.2297 41.35 62.6197 42.15C64.1597 43.04 65.4497 44.38 66.4997 46.18C67.5397 47.98 68.0597 49.76 68.0597 51.53Z" stroke="white" stroke-linejoin="round"/><path d="M38.5599 65.69C38.5599 66.53 38.4499 67.24 38.2199 67.84C37.9899 68.43 37.6099 68.89 37.0599 69.2L29.46 73.53H29.45L12.0499 83.46C11.0499 84.03 9.78993 83.87 8.23993 82.98C6.69993 82.09 5.43994 80.78 4.43994 79.06C3.43994 77.34 2.93994 75.6 2.93994 73.83C2.93994 72.06 3.43994 70.9 4.43994 70.33L25.65 58.24L4.43994 21.66C3.43994 19.94 2.93994 18.19 2.93994 16.43C2.93994 14.67 3.43994 13.49 4.43994 12.92C5.43994 12.35 6.69993 12.51 8.23993 13.4C9.78993 14.29 11.0499 15.6 12.0499 17.32L33.8599 54.95L37.0599 60.46C37.6099 61.4 37.9899 62.3 38.2199 63.16C38.4499 64.02 38.5599 64.86 38.5599 65.69Z" stroke="white" stroke-linejoin="round"/><path d="M57.1799 50.68V59.11C57.1799 59.11 57.0999 59.17 57.0599 59.19L32.0499 73.46L12.0499 83.46L29.45 73.53H29.46L37.0599 69.2C37.6099 68.89 37.9899 68.43 38.2199 67.84C38.4499 67.24 38.5599 66.53 38.5599 65.69C38.5599 64.85 38.4499 64.02 38.2199 63.16C37.9899 62.3 37.6099 61.4 37.0599 60.46L33.8599 54.95L12.0499 17.32C11.0499 15.6 9.78993 14.29 8.23993 13.4C6.69993 12.51 5.43994 12.35 4.43994 12.92L24.4 2.93998L24.4399 2.91998C25.4399 2.34998 26.7099 2.50998 28.2399 3.39998C29.7799 4.28998 31.0499 5.59998 32.0499 7.30998L57.0599 50.46C57.0999 50.53 57.1399 50.61 57.1799 50.68Z" stroke="white" stroke-linejoin="round"/></svg>