<svg width="48" height="48" viewBox="0 0 107 119" xmlns="http://www.w3.org/2000/svg" stroke-width="1px"
     stroke-linecap="round" stroke-linejoin="round">
    <path d="M84.6495 91.274C84.5195 90.764 84.3295 90.264 84.0795 89.764L83.0895 87.684L77.1795 75.234L75.8195 72.384C75.1295 70.904 74.2495 69.554 73.1895 68.334C72.1195 67.104 70.9994 66.154 69.8094 65.464L62.2995 61.124V52.504C62.2995 50.134 61.5595 47.684 60.0895 45.144C58.6195 42.604 56.8495 40.734 54.7795 39.544L22.1895 20.734L9.69946 13.524C7.84946 12.444 6.23945 12.204 4.86945 12.764L4.39948 12.994C2.92948 13.824 2.18945 15.434 2.18945 17.804V60.914C2.18945 62.134 2.54947 63.364 3.26947 64.604C3.98947 65.844 4.87946 66.774 5.94946 67.384L9.69946 69.554C9.69946 73.154 10.7995 76.834 12.9895 80.614C15.1795 84.394 17.8395 87.184 20.9695 88.994C24.0995 90.804 26.7695 91.084 28.9595 89.834C31.1495 88.584 32.2395 86.164 32.2395 82.574L37.4595 85.584L54.7795 95.584C54.7795 99.174 55.8795 102.864 58.0695 106.644C60.2595 110.424 62.9195 113.214 66.0495 115.024C69.1795 116.824 71.8395 117.104 74.0295 115.854C76.2295 114.604 77.3195 112.184 77.3195 108.594L81.0795 110.764C81.8795 111.224 82.5695 111.394 83.1695 111.284H83.1795C83.3795 111.244 83.5695 111.174 83.7495 111.074C83.8695 111.004 83.9795 110.924 84.0795 110.834H84.0895C84.5795 110.374 84.8295 109.634 84.8295 108.624V92.784C84.8295 92.274 84.7695 91.774 84.6495 91.274ZM23.6495 80.684C22.9295 81.094 22.0395 80.984 20.9695 80.374C19.9095 79.764 19.0195 78.834 18.2995 77.594C17.5795 76.344 17.2195 75.114 17.2195 73.894C17.2195 72.674 17.5795 71.854 18.2995 71.444C19.0195 71.034 19.9095 71.134 20.9695 71.754C22.0395 72.364 22.9295 73.294 23.6495 74.534C24.3695 75.784 24.7295 77.014 24.7295 78.234C24.7295 79.454 24.3695 80.274 23.6495 80.684ZM68.7295 106.704C68.0095 107.114 67.1195 107.014 66.0495 106.404C64.9895 105.784 64.0995 104.854 63.3795 103.614C62.6595 102.374 62.2995 101.144 62.2995 99.924C62.2995 98.704 62.6595 97.884 63.3795 97.474C64.0995 97.064 64.9895 97.164 66.0495 97.774C67.1195 98.394 68.0095 99.324 68.7295 100.564C69.4495 101.804 69.8094 103.034 69.8094 104.254C69.8094 105.474 69.4495 106.294 68.7295 106.704ZM75.3795 90.234L62.2995 82.674V69.744L69.8094 74.084L71.6595 77.994L78.2595 91.894L75.3795 90.234Z" class="pr-icon-iso-solid-stroke" stroke-linejoin="round"/>
    <path d="M37.459 85.584L28.959 89.834C31.149 88.584 32.239 86.164 32.239 82.574L37.459 85.584Z" class="pr-icon-iso-solid-stroke" stroke-linejoin="round"/>
    <path d="M24.7297 78.2341C24.7297 79.4541 24.3697 80.2741 23.6497 80.6841C22.9297 81.0941 22.0397 80.9841 20.9697 80.3741C19.9097 79.7641 19.0197 78.8341 18.2997 77.5941C17.5797 76.3441 17.2197 75.1141 17.2197 73.8941C17.2197 72.6741 17.5797 71.8541 18.2997 71.4441C19.0197 71.0341 19.9097 71.1341 20.9697 71.7541C22.0397 72.3641 22.9297 73.2941 23.6497 74.5341C24.3697 75.7841 24.7297 77.0141 24.7297 78.2341Z" class="pr-icon-iso-solid-stroke" stroke-linejoin="round"/>
    <path d="M69.8098 104.254C69.8098 105.484 69.4498 106.294 68.7298 106.704C68.0098 107.114 67.1198 107.014 66.0498 106.404C64.9898 105.784 64.0998 104.854 63.3798 103.614C62.6598 102.374 62.2998 101.144 62.2998 99.924C62.2998 98.704 62.6598 97.884 63.3798 97.474C64.0998 97.064 64.9898 97.164 66.0498 97.774C67.1198 98.394 68.0098 99.324 68.7298 100.564C69.4498 101.804 69.8098 103.034 69.8098 104.254Z" class="pr-icon-iso-solid-stroke" stroke-linejoin="round"/>
    <path d="M104.829 82.784V98.624C104.829 99.844 104.469 100.664 103.749 101.074L103.529 101.184L83.7488 111.074C83.8688 111.004 83.9788 110.924 84.0788 110.834H84.0888C84.5788 110.374 84.8288 109.634 84.8288 108.624V92.784C84.8288 92.274 84.7688 91.774 84.6488 91.274C84.5188 90.764 84.3288 90.264 84.0788 89.764L83.0888 87.684L77.1788 75.234L75.8188 72.384C75.1288 70.904 74.2488 69.554 73.1888 68.334C72.1188 67.104 70.9988 66.154 69.8088 65.464L62.2988 61.124L82.2988 51.124L89.8088 55.464C90.9988 56.154 92.1188 57.104 93.1888 58.334C94.2488 59.554 95.1288 60.904 95.8188 62.384L104.079 79.764C104.329 80.264 104.519 80.764 104.649 81.274C104.769 81.774 104.829 82.274 104.829 82.784Z" class="pr-icon-iso-solid-stroke" stroke-linejoin="round"/>
    <path d="M71.6588 77.9939L66.2888 80.6839L62.2988 82.6739V69.7439L69.8088 74.0839L71.6588 77.9939Z" class="pr-icon-iso-solid-stroke" stroke-linejoin="round"/>
    <path d="M78.2588 91.8939L75.3788 90.2339L62.2988 82.6739L66.2888 80.6839L71.6588 77.9939L78.2588 91.8939Z" class="pr-icon-iso-solid-stroke" stroke-linejoin="round"/>
    <path d="M82.2992 42.504V51.124L62.2992 61.124V52.504C62.2992 50.134 61.5592 47.684 60.0892 45.144C58.6192 42.604 56.8492 40.734 54.7792 39.544L22.1891 20.734L9.69916 13.524C7.84916 12.444 6.23914 12.204 4.86914 12.764L24.3992 2.99397C25.8692 2.15397 27.6392 2.32397 29.6992 3.52397L74.7792 29.544C76.8492 30.734 78.6192 32.604 80.0892 35.144C81.5592 37.684 82.2992 40.134 82.2992 42.504Z" class="pr-icon-iso-solid-stroke" stroke-linejoin="round"/>
    <path d="M83.1693 111.284L74.0293 115.854C76.2293 114.604 77.3193 112.184 77.3193 108.594L81.0793 110.764C81.8793 111.224 82.5693 111.394 83.1693 111.284Z" class="pr-icon-iso-solid-stroke" stroke-linejoin="round"/>
</svg>