<svg width="48" height="48" viewBox="0 0 112 106" xmlns="http://www.w3.org/2000/svg" stroke-width="1px"
     stroke-linecap="round" stroke-linejoin="round">
    <path d="M84.4606 94.5204C84.8406 94.3804 85.2006 94.1905 85.5506 93.9805L84.4606 94.5204ZM75.1006 103.02C75.3706 102.92 75.6306 102.8 75.8706 102.64L75.1006 103.02Z" class="pr-icon-iso-solid-stroke" stroke-linejoin="round"/>
    <path d="M86.6602 70.96C86.5002 70.63 86.3302 70.3001 86.1502 69.9701C84.5702 66.9501 82.6802 64.2601 80.4802 61.9101C79.7202 61.0901 78.9202 60.3101 78.0802 59.5701V54.34C78.0802 53.59 78.0102 52.84 77.8702 52.08C77.5502 50.28 76.8502 48.44 75.7502 46.56C74.2002 43.88 72.3302 41.91 70.1502 40.65C68.2302 39.54 66.3302 38.6501 64.4502 37.9801C62.5602 37.3101 60.6602 36.5001 58.7402 35.5401C56.6302 34.5501 54.5602 33.51 52.5402 32.42C50.5602 31.35 48.5302 30.2201 46.4502 29.0101C46.4102 28.9901 46.3802 28.9701 46.3402 28.9501C44.2302 27.7301 42.1602 26.5001 40.1402 25.2601C38.1302 24.0201 36.0602 22.6801 33.9502 21.2301C32.0302 19.9701 30.0902 18.57 28.1402 17.02C27.2402 16.31 26.3402 15.64 25.4402 15.02C25.2802 14.9 25.1102 14.79 24.9502 14.68C24.0802 14.09 23.2102 13.55 22.3402 13.05C20.4502 11.95 18.8002 11.7101 17.3802 12.3201C17.1802 12.4201 17.0102 12.5001 16.8802 12.5701C15.3602 13.4801 14.6002 15.1801 14.6002 17.6901V22.92C12.1602 22.25 10.0202 22.3 8.21021 23.06C7.42021 23.39 6.69017 23.8501 6.02017 24.4501C3.81017 26.4401 2.7002 29.48 2.7002 33.58C2.7002 37.68 3.81017 42.11 6.02017 46.65C8.24017 51.19 11.1002 55.01 14.6002 58.09V61.05C14.6002 63.25 15.2302 65.57 16.4902 68C17.7402 70.43 19.3302 72.3901 21.2502 73.8801C25.4202 76.9701 29.5802 79.92 33.7502 82.75C37.9102 85.57 42.1102 88.2 46.3402 90.64C50.5102 93.05 54.6802 95.2701 58.8402 97.2901C63.0102 99.3201 67.1702 101.15 71.3402 102.8C72.7702 103.34 74.0202 103.42 75.1002 103.02L75.8702 102.64L75.8902 102.62C75.9802 102.57 76.0702 102.51 76.1502 102.45C77.4402 101.48 78.0802 99.86 78.0802 97.59V94.6301C80.5102 95.3001 82.6302 95.26 84.4402 94.53H84.4602L85.5502 93.9801C85.9302 93.7401 86.3102 93.46 86.6602 93.15C87.2102 92.67 87.7002 92.11 88.1102 91.49C89.3602 89.61 89.9902 87.11 89.9902 83.97C89.9902 79.8 88.8802 75.46 86.6602 70.96ZM14.6002 48.3C13.3502 46.74 12.3702 45.08 11.6802 43.31C10.9802 41.55 10.6402 39.8301 10.6402 38.1601C10.6402 36.4901 10.9802 35.2901 11.6802 34.3201C12.3702 33.3601 13.3502 32.82 14.6002 32.71V48.3ZM26.4902 37.5701C26.5202 37.4201 26.5602 37.2701 26.6102 37.1301C26.9402 36.0401 27.5602 35.4501 28.4902 35.3801C29.4202 35.3001 30.4102 35.76 31.4702 36.75C33.9102 38.93 36.3802 40.88 38.8602 42.61C41.3402 44.35 43.8302 45.94 46.3402 47.39C46.4002 47.43 46.4702 47.46 46.5302 47.5C48.9902 48.9 51.4002 50.1501 53.7802 51.2301C56.2302 52.3401 58.6802 53.2201 61.1202 53.8801C62.1802 54.1101 63.1702 54.81 64.1002 55.99C65.0202 57.17 65.6502 58.46 65.9802 59.87C66.3102 61.27 66.2202 62.36 65.6902 63.11C65.4602 63.44 65.1702 63.68 64.8202 63.81C64.3802 63.98 63.8402 63.99 63.2102 63.84C60.4302 63.07 57.6402 62.07 54.8202 60.83C52.0102 59.58 49.1902 58.14 46.3402 56.5C43.4302 54.82 40.5702 52.9801 37.7602 50.9801C36.7002 50.2201 35.6502 49.44 34.6002 48.61C32.8502 47.27 31.1102 45.8401 29.3802 44.3201C28.2602 43.2901 27.4302 42.0901 26.9002 40.7201C26.4402 39.5401 26.3102 38.5001 26.4902 37.5701ZM66.0602 80.4801C65.9902 80.8001 65.8602 81.0801 65.6902 81.3201C65.1602 82.0801 64.3302 82.32 63.2102 82.05C60.4302 81.29 57.6402 80.2801 54.8202 79.0401C52.0102 77.7901 49.1902 76.35 46.3402 74.71C43.4302 73.03 40.5702 71.21 37.7602 69.24C34.9502 67.28 32.1602 65.0001 29.3802 62.4101C28.3202 61.4201 27.5102 60.2301 26.9502 58.8501C26.3902 57.4601 26.2702 56.2601 26.6102 55.2301C26.9402 54.2101 27.5602 53.66 28.4902 53.59C29.4202 53.52 30.4102 53.9701 31.4702 54.9701C33.5402 56.8701 35.6302 58.58 37.7302 60.08C38.1102 60.36 38.4802 60.6201 38.8602 60.8801C41.3402 62.5801 43.8302 64.1501 46.3402 65.6001C48.8602 67.0501 51.3402 68.3301 53.7802 69.4401C56.2302 70.5501 58.6802 71.43 61.1202 72.09C62.1802 72.32 63.1702 73.0201 64.1002 74.2001C65.0202 75.3801 65.6502 76.68 65.9802 78.08C66.2002 79.03 66.2302 79.8301 66.0602 80.4801ZM80.9602 83.31C80.2302 84.26 79.2802 84.8101 78.0802 84.9501V69.36C78.4302 69.8 78.7602 70.2601 79.0602 70.7301C79.8202 71.8601 80.4402 73.0601 80.9602 74.3201C81.6902 76.1101 82.0502 77.8 82.0502 79.39C82.0502 81.06 81.6902 82.37 80.9602 83.31Z" class="pr-icon-iso-solid-stroke" stroke-linejoin="round"/>
    <path d="M82.05 79.3904C82.05 81.0604 81.6901 82.3704 80.9601 83.3104C80.2301 84.2604 79.2801 84.8104 78.0801 84.9504V69.3604C78.4301 69.8004 78.7601 70.2604 79.0601 70.7304C79.8201 71.8604 80.4401 73.0604 80.9601 74.3204C81.6901 76.1104 82.05 77.8004 82.05 79.3904Z" class="pr-icon-iso-solid-stroke" stroke-linejoin="round"/>
    <path d="M14.6006 32.71V48.3C13.3506 46.74 12.3706 45.08 11.6806 43.31C10.9806 41.55 10.6406 39.83 10.6406 38.16C10.6406 36.49 10.9806 35.29 11.6806 34.32C12.3706 33.36 13.3506 32.82 14.6006 32.71Z" class="pr-icon-iso-solid-stroke" stroke-linejoin="round"/>
    <path d="M65.69 63.11C65.46 63.44 65.17 63.68 64.82 63.81C64.38 63.98 63.84 63.99 63.21 63.84C60.43 63.07 57.64 62.07 54.82 60.83C52.01 59.58 49.19 58.14 46.34 56.5C43.43 54.82 40.57 52.98 37.76 50.98C36.7 50.22 35.65 49.44 34.6 48.61C32.85 47.27 31.11 45.84 29.38 44.32C28.26 43.29 27.43 42.09 26.9 40.72C26.44 39.54 26.31 38.5 26.49 37.57C26.52 37.42 26.56 37.27 26.61 37.13C26.94 36.04 27.56 35.45 28.49 35.38C29.42 35.3 30.41 35.76 31.47 36.75C33.91 38.93 36.38 40.88 38.86 42.61C41.34 44.35 43.83 45.94 46.34 47.39C46.4 47.43 46.47 47.46 46.53 47.5C48.99 48.9 51.4 50.15 53.78 51.23C56.23 52.34 58.68 53.22 61.12 53.88C62.18 54.11 63.17 54.81 64.1 55.99C65.02 57.17 65.65 58.46 65.98 59.87C66.31 61.27 66.22 62.36 65.69 63.11Z" class="pr-icon-iso-solid-stroke" stroke-linejoin="round"/>
    <path d="M66.0594 80.4801C65.9894 80.8001 65.8594 81.0801 65.6894 81.3201C65.1594 82.0801 64.3294 82.3201 63.2094 82.0501C60.4294 81.2901 57.6394 80.2801 54.8194 79.0401C52.0094 77.7901 49.1895 76.3501 46.3395 74.7101C43.4295 73.0301 40.5694 71.2101 37.7594 69.2401C34.9494 67.2801 32.1594 65.0001 29.3794 62.4101C28.3194 61.4201 27.5094 60.2301 26.9494 58.8501C26.3894 57.4601 26.2694 56.2601 26.6094 55.2301C26.9394 54.2101 27.5594 53.6601 28.4894 53.5901C29.4194 53.5201 30.4094 53.9701 31.4694 54.9701C33.5394 56.8701 35.6294 58.5801 37.7294 60.0801C38.1094 60.3601 38.4794 60.6201 38.8594 60.8801C41.3394 62.5801 43.8295 64.1501 46.3395 65.6001C48.8595 67.0501 51.3395 68.3301 53.7795 69.4401C56.2295 70.5501 58.6794 71.4301 61.1194 72.0901C62.1794 72.3201 63.1694 73.0201 64.0994 74.2001C65.0194 75.3801 65.6494 76.6801 65.9794 78.0801C66.1994 79.0301 66.2294 79.8301 66.0594 80.4801Z" class="pr-icon-iso-solid-stroke" stroke-linejoin="round"/>
    <path d="M98.0696 87.7305C98.0496 89.9305 97.4097 91.5005 96.1497 92.4505C95.9297 92.6205 95.6896 92.7705 95.4296 92.8705L95.2296 92.9705L75.8896 102.62C75.9796 102.57 76.0697 102.51 76.1497 102.45C77.4397 101.48 78.0797 99.8605 78.0797 97.5905V94.6305C80.5097 95.3005 82.6296 95.2605 84.4396 94.5305H84.4597C84.8397 94.3805 85.1996 94.1905 85.5496 93.9805L89.4496 92.0305L98.0696 87.7305Z" class="pr-icon-iso-solid-stroke" stroke-linejoin="round"/>
    <path d="M98.0799 44.3404V49.5704L78.0799 59.5704V54.3404C78.0799 53.5904 78.0099 52.8404 77.8699 52.0804C77.5499 50.2804 76.8499 48.4404 75.7499 46.5604C74.1999 43.8804 72.3299 41.9104 70.1499 40.6504C68.2299 39.5404 66.3299 38.6504 64.4499 37.9804C62.5599 37.3104 60.6599 36.5004 58.7399 35.5404C56.6299 34.5504 54.5599 33.5104 52.5399 32.4204C50.5599 31.3504 48.5299 30.2204 46.4499 29.0104C46.4099 28.9904 46.3799 28.9704 46.3399 28.9504C44.2299 27.7304 42.1599 26.5004 40.1399 25.2604C38.1299 24.0204 36.0599 22.6804 33.9499 21.2304C32.0299 19.9704 30.0899 18.5704 28.1399 17.0204C27.2399 16.3104 26.3399 15.6404 25.4399 15.0204C25.2799 14.9004 25.1099 14.7904 24.9499 14.6804C24.0799 14.0904 23.2099 13.5504 22.3399 13.0504C20.4499 11.9504 18.7999 11.7104 17.3799 12.3204C21.1599 10.4104 36.1199 2.95036 36.8499 2.58036C36.8699 2.57036 36.8799 2.57038 36.8799 2.57038C38.4099 1.67038 40.2199 1.82036 42.3399 3.05036C44.2599 4.15036 46.1899 5.48036 48.1399 7.02036C50.0899 8.57036 52.0299 9.97038 53.9499 11.2304C56.0599 12.6804 58.1299 14.0204 60.1399 15.2604C62.1599 16.5004 64.2299 17.7304 66.3399 18.9504C68.4599 20.1804 70.5299 21.3304 72.5399 22.4204C74.5599 23.5104 76.6299 24.5504 78.7399 25.5404C80.6599 26.5004 82.5599 27.3104 84.4499 27.9804C86.3299 28.6504 88.2299 29.5404 90.1499 30.6504C92.3299 31.9104 94.1999 33.8804 95.7499 36.5604C97.3099 39.2404 98.0799 41.8304 98.0799 44.3404Z" class="pr-icon-iso-solid-stroke" stroke-linejoin="round"/>
    <path d="M109.99 73.9703C109.99 78.1503 108.88 81.2103 106.66 83.1503C106.1 83.6403 105.5 84.0403 104.86 84.3503L104.81 84.3703L98.0701 87.7303L89.4501 92.0303L85.55 93.9803C85.93 93.7403 86.31 93.4603 86.66 93.1503C87.21 92.6703 87.7 92.1103 88.11 91.4903C89.36 89.6103 89.9901 87.1103 89.9901 83.9703C89.9901 79.8003 88.88 75.4603 86.66 70.9603C86.5 70.6303 86.3301 70.3003 86.1501 69.9703C84.5701 66.9503 82.68 64.2603 80.48 61.9103C79.72 61.0903 78.9201 60.3103 78.0801 59.5703L98.0801 49.5703C101.59 52.6603 104.45 56.4503 106.66 60.9603C108.88 65.4603 109.99 69.8003 109.99 73.9703Z" class="pr-icon-iso-solid-stroke" stroke-linejoin="round"/>
    <path d="M14.5999 19.8604V22.9203C12.1599 22.2503 10.02 22.3004 8.20996 23.0604L14.5999 19.8604Z" class="pr-icon-iso-solid-stroke" stroke-linejoin="round"/>
</svg>