<svg width="48" height="48" viewBox="0 0 112 127" xmlns="http://www.w3.org/2000/svg" stroke-width="1px"
     stroke-linecap="round" stroke-linejoin="round">
    <path d="M89.3501 121.48C89.3501 123.05 88.8901 124.09 87.9701 124.61C87.0501 125.14 85.9001 125.01 84.5401 124.23L7.62006 79.81C6.25006 79.03 5.11006 77.84 4.19006 76.25C3.26006 74.65 2.81006 73.08 2.81006 71.52C2.81006 69.96 3.26006 68.91 4.19006 68.39L4.47006 68.25C5.34006 67.89 6.38006 68.07 7.62006 68.78L84.5401 113.19C85.9001 113.97 87.0501 115.17 87.9701 116.75C88.8901 118.34 89.3501 119.92 89.3501 121.48Z" class="pr-icon-iso-solid-stroke" stroke-linejoin="round"/>
    <path d="M89.3501 93.9C89.3501 94.08 89.34 94.25 89.33 94.41C89.24 95.69 88.7901 96.57 87.9701 97.03C87.0501 97.56 85.9001 97.43 84.5401 96.64L22.83 61L21.0401 59.97L7.62006 52.22C6.25006 51.44 5.11006 50.25 4.19006 48.66C3.26006 47.07 2.81006 45.49 2.81006 43.94C2.81006 42.39 3.26006 41.32 4.19006 40.8L4.47006 40.66C5.34006 40.3 6.38006 40.48 7.62006 41.19L84.5401 85.61C85.9001 86.39 87.0501 87.58 87.9701 89.17C88.8901 90.76 89.3501 92.34 89.3501 93.9Z" class="pr-icon-iso-solid-stroke" stroke-linejoin="round"/>
    <path d="M109.35 111.48C109.35 113.05 108.89 114.09 107.97 114.61L87.97 124.61C88.89 124.09 89.35 123.05 89.35 121.48C89.35 119.91 88.89 118.34 87.97 116.75C87.05 115.17 85.9 113.97 84.54 113.19L7.61996 68.78C6.37996 68.07 5.33997 67.89 4.46997 68.25L21.04 59.97L22.83 61L84.54 96.64C85.9 97.43 87.05 97.56 87.97 97.03L91.1299 95.45L104.54 103.19C105.9 103.97 107.05 105.17 107.97 106.75C108.89 108.34 109.35 109.92 109.35 111.48Z" class="pr-icon-iso-solid-stroke" stroke-linejoin="round"/>
    <path d="M89.3501 66.31C89.3501 66.49 89.34 66.66 89.33 66.83C89.24 68.11 88.7801 68.98 87.9701 69.44C87.0501 69.97 85.9001 69.84 84.5401 69.05L22.83 33.42L21.0301 32.38L7.62006 24.64C6.25006 23.86 5.11006 22.66 4.19006 21.08C3.26006 19.49 2.81006 17.91 2.81006 16.35C2.81006 14.79 3.26006 13.74 4.19006 13.22L4.48007 13.08C5.34007 12.72 6.39006 12.9 7.62006 13.6L84.5401 58.02C85.9001 58.81 87.0501 59.99 87.9701 61.58C88.8901 63.18 89.3501 64.75 89.3501 66.31Z" class="pr-icon-iso-solid-stroke" stroke-linejoin="round"/>
    <path d="M109.35 83.9C109.35 85.46 108.89 86.51 107.97 87.03L107.69 87.17L91.1299 95.45L87.97 97.03C88.79 96.57 89.24 95.69 89.33 94.41C89.34 94.25 89.35 94.08 89.35 93.9C89.35 92.34 88.89 90.76 87.97 89.17C87.05 87.58 85.9 86.39 84.54 85.61L7.61996 41.19C6.37996 40.48 5.33997 40.3 4.46997 40.66L21.03 32.38L22.83 33.42L84.54 69.05C85.9 69.84 87.05 69.97 87.97 69.44L91.12 67.86L104.54 75.61C105.9 76.39 107.05 77.58 107.97 79.17C108.89 80.76 109.35 82.34 109.35 83.9Z" class="pr-icon-iso-solid-stroke" stroke-linejoin="round"/>
    <path d="M109.35 56.31C109.35 57.88 108.89 58.92 107.97 59.44L107.69 59.58L91.12 67.86L87.97 69.44C88.78 68.98 89.24 68.11 89.33 66.83C89.34 66.66 89.35 66.49 89.35 66.31C89.35 64.75 88.89 63.18 87.97 61.58C87.05 59.99 85.9 58.81 84.54 58.02L7.61996 13.6C6.38996 12.9 5.33998 12.72 4.47998 13.08L24.1899 3.22004L24.48 3.08004C25.34 2.72004 26.39 2.90004 27.62 3.60004L104.54 48.02C105.9 48.81 107.05 49.99 107.97 51.58C108.89 53.18 109.35 54.75 109.35 56.31Z" class="pr-icon-iso-solid-stroke" stroke-linejoin="round"/>
</svg>