<svg width="24" height="24" viewBox="0 0 69 119" xmlns="http://www.w3.org/2000/svg" stroke-width="1px" stroke-linecap="round" stroke-linejoin="round">
    <path d="M8.72827 32.1499C8.02827 30.9399 7.15817 30.0399 6.12817 29.4499C5.19817 28.9099 4.40829 28.7799 3.74829 29.0399L3.52832 29.1499C2.83832 29.5499 2.48828 30.3399 2.48828 31.5299C2.48828 32.7199 2.83832 33.9099 3.52832 35.1099C4.22832 36.3099 5.09817 37.2199 6.12817 37.8099C7.15817 38.4099 8.02827 38.5099 8.72827 38.1099C9.41827 37.7099 9.76831 36.9198 9.76831 35.7298C9.76831 34.5398 9.41827 33.3499 8.72827 32.1499ZM45.1682 36.4598C44.4682 35.2598 43.5981 34.3599 42.5681 33.7599C41.5381 33.1599 40.6683 33.0698 39.9683 33.4598C39.2783 33.8598 38.9282 34.6498 38.9282 35.8398C38.9282 37.0298 39.2783 38.2199 39.9683 39.4199C40.6683 40.6299 41.5381 41.5299 42.5681 42.1199C43.5981 42.7199 44.4682 42.8199 45.1682 42.4199C45.8682 42.0199 46.2083 41.2299 46.2083 40.0499C46.2083 38.8699 45.8682 37.6698 45.1682 36.4598Z" class="pr-icon-iso-solid-stroke" stroke-linejoin="round"/>
    <path d="M46.2083 77.6801V111.13C46.2083 113.43 45.4981 114.99 44.0681 115.8C42.6481 116.62 40.9282 116.44 38.9282 115.29L9.76831 98.46C7.76831 97.3 6.04817 95.4901 4.62817 93.0301C3.19817 90.5701 2.48828 88.19 2.48828 85.89V52.4301C2.48828 50.1301 3.19817 48.58 4.62817 47.76L5.07812 47.5401C6.40813 47.0001 7.97831 47.2401 9.76831 48.2801L22.4883 55.62L38.9282 65.11C40.9282 66.27 42.6481 68.0801 44.0681 70.5401C45.4981 73.0001 46.2083 75.3801 46.2083 77.6801Z" class="pr-icon-iso-solid-stroke" stroke-linejoin="round"/>
    <path d="M9.76831 19.01C9.76831 20.19 9.41827 20.98 8.72827 21.38C8.02827 21.78 7.15817 21.68 6.12817 21.09C5.09817 20.49 4.22832 19.59 3.52832 18.38C2.83832 17.18 2.48828 15.9801 2.48828 14.8001C2.48828 13.6201 2.83832 12.8201 3.52832 12.4301L3.74829 12.3201C4.40829 12.0601 5.19817 12.19 6.12817 12.72C7.15817 13.32 8.02827 14.2201 8.72827 15.4201C9.41827 16.6301 9.76831 17.82 9.76831 19.01Z" class="pr-icon-iso-solid-stroke" stroke-linejoin="round"/>
    <path d="M66.2083 67.6802V101.13C66.2083 103.43 65.4981 104.99 64.0681 105.8L63.6182 106.02L44.0681 115.8C45.4981 114.99 46.2083 113.43 46.2083 111.13V77.6802C46.2083 75.3802 45.4981 73.0002 44.0681 70.5402C42.6481 68.0802 40.9282 66.2702 38.9282 65.1102L22.4883 55.6202L9.76831 48.2802C7.97831 47.2402 6.40813 47.0002 5.07812 47.5402L24.6282 37.7602C26.0482 36.9502 27.7683 37.1202 29.7683 38.2802L45.5583 47.3902L40.1882 50.0801L39.9683 50.1902C39.2783 50.5902 38.9282 51.3802 38.9282 52.5602C38.9282 53.7402 39.2783 54.9402 39.9683 56.1502C40.6683 57.3502 41.5381 58.2502 42.5681 58.8502C43.5981 59.4502 44.4682 59.5502 45.1682 59.1502L56.2883 53.5902L58.9282 55.1102C60.9282 56.2702 62.6481 58.0802 64.0681 60.5402C65.4981 63.0002 66.2083 65.3802 66.2083 67.6802Z" class="pr-icon-iso-solid-stroke" stroke-linejoin="round"/>
    <path d="M29.7681 9.01008C29.7681 10.1901 29.418 10.9801 28.728 11.3801L8.72803 21.3801C9.41803 20.9801 9.76807 20.1901 9.76807 19.0101C9.76807 17.8301 9.41803 16.6301 8.72803 15.4201C8.02803 14.2201 7.15793 13.32 6.12793 12.72C5.19793 12.19 4.40805 12.0601 3.74805 12.3201L23.5281 2.43013C24.2281 2.03013 25.0979 2.13004 26.1279 2.72004C27.1579 3.32004 28.028 4.22012 28.728 5.42012C29.418 6.63012 29.7681 7.82008 29.7681 9.01008Z" class="pr-icon-iso-solid-stroke" stroke-linejoin="round"/>
    <path d="M21.748 28.9001C22.188 29.6701 22.7081 30.3101 23.2881 30.8301L8.72803 38.1101C9.41803 37.7101 9.76807 36.9201 9.76807 35.7301C9.76807 34.5401 9.41803 33.3501 8.72803 32.1501C8.02803 30.9401 7.15793 30.0402 6.12793 29.4502C5.19793 28.9102 4.40805 28.7802 3.74805 29.0402L23.5281 19.1501C24.2281 18.7501 25.0979 18.8502 26.1279 19.4502C26.5079 19.6602 26.858 19.9201 27.188 20.2201L22.5779 22.5301L21.958 22.8401L21.748 22.9402C21.058 23.3402 20.708 24.1302 20.708 25.3202C20.708 26.5102 21.058 27.7001 21.748 28.9001Z" class="pr-icon-iso-solid-stroke" stroke-linejoin="round"/>
    <path d="M47.9871 19.5303C47.9871 20.7103 47.637 21.5003 46.947 21.9003L26.947 31.9003C27.637 31.5003 27.9871 30.7103 27.9871 29.5303C27.9871 29.2003 27.957 28.8603 27.897 28.5303C27.897 28.4703 27.8869 28.4103 27.8669 28.3503C27.7169 27.5503 27.407 26.7504 26.947 25.9404C26.247 24.7404 25.3769 23.8403 24.3469 23.2403C23.7069 22.8703 23.1169 22.6902 22.6069 22.7102C22.3769 22.7102 22.167 22.7603 21.957 22.8403L22.5769 22.5303L27.187 20.2203L41.7471 12.9404C42.4471 12.5504 43.3169 12.6503 44.3469 13.2403C45.3769 13.8403 46.247 14.7404 46.947 15.9404C47.637 17.1504 47.9871 18.3403 47.9871 19.5303Z" class="pr-icon-iso-solid-stroke" stroke-linejoin="round"/>
    <path d="M66.2087 30.0501C66.2087 31.2301 65.8687 32.0201 65.1687 32.4201L45.1687 42.4201C45.8687 42.0201 46.2087 41.2301 46.2087 40.0501C46.2087 38.8701 45.8687 37.67 45.1687 36.46C44.4687 35.26 43.5986 34.3601 42.5686 33.7601C41.5386 33.1601 40.6687 33.07 39.9688 33.46L59.9688 23.46C60.6687 23.07 61.5386 23.1601 62.5686 23.7601C63.5986 24.3601 64.4687 25.26 65.1687 26.46C65.8687 27.67 66.2087 28.8601 66.2087 30.0501Z" class="pr-icon-iso-solid-stroke" stroke-linejoin="round"/>
    <path d="M46.2078 56.77C46.2078 57.96 45.8677 58.75 45.1677 59.15C44.4677 59.55 43.5976 59.45 42.5676 58.85C41.5376 58.25 40.6678 57.35 39.9678 56.15C39.2778 54.94 38.9277 53.75 38.9277 52.56C38.9277 51.37 39.2778 50.5901 39.9678 50.1901L40.1877 50.0799C40.8477 49.8199 41.6376 49.95 42.5676 50.49C43.5976 51.08 44.4677 51.9801 45.1677 53.1901C45.8677 54.3901 46.2078 55.59 46.2078 56.77Z" class="pr-icon-iso-solid-stroke" stroke-linejoin="round"/>
    <path d="M66.2075 46.7702C66.2075 47.9602 65.8675 48.7502 65.1675 49.1502L64.9475 49.2602L56.2876 53.5901L45.1675 59.1502C45.8675 58.7502 46.2075 57.9602 46.2075 56.7702C46.2075 55.5802 45.8675 54.3902 45.1675 53.1902C44.4675 51.9802 43.5974 51.0801 42.5674 50.4901C41.6374 49.9501 40.8475 49.8201 40.1875 50.0801L45.5576 47.3902L59.9675 40.1902C60.6675 39.7902 61.5374 39.8901 62.5674 40.4901C63.5974 41.0801 64.4675 41.9802 65.1675 43.1902C65.8675 44.3902 66.2075 45.5902 66.2075 46.7702Z" class="pr-icon-iso-solid-stroke" stroke-linejoin="round"/>
    <path d="M27.989 29.5301C27.989 30.7101 27.639 31.5001 26.949 31.9001C26.249 32.3001 25.3789 32.2 24.3489 31.6C23.9689 31.39 23.6191 31.13 23.2891 30.83C22.7091 30.31 22.189 29.6701 21.749 28.9001C21.059 27.7001 20.709 26.5001 20.709 25.3201C20.709 24.1401 21.059 23.3401 21.749 22.9401L21.959 22.84C22.169 22.76 22.3789 22.72 22.6089 22.71C23.1189 22.69 23.7089 22.87 24.3489 23.24C25.3789 23.84 26.249 24.7401 26.949 25.9401C27.409 26.7501 27.7189 27.55 27.8689 28.35C27.8889 28.41 27.8989 28.4701 27.8989 28.5301C27.9589 28.8601 27.989 29.2001 27.989 29.5301Z" class="pr-icon-iso-solid-stroke" stroke-linejoin="round"/>
    <path d="M3.74731 29.04L3.52734 29.15" class="pr-icon-iso-solid-stroke" stroke-linejoin="round"/>
</svg>