<svg width="24" height="24" viewBox="0 0 88 105" xmlns="http://www.w3.org/2000/svg" stroke-width="1px" stroke-linecap="round" stroke-linejoin="round">
    <path d="M53.2999 100.67C53.2999 101.7 52.9899 102.39 52.3899 102.73C51.7799 103.08 51.0299 102.99 50.1299 102.47L8.95996 78.7105C7.21996 77.7005 5.72987 76.1305 4.48987 73.9905C3.24987 71.8505 2.62988 69.7805 2.62988 67.7805V20.5405C2.62988 19.5105 2.92992 18.8305 3.53992 18.4805L3.72998 18.3905C4.29998 18.1505 4.98993 18.2705 5.79993 18.7405C6.68993 19.2605 7.44993 20.0405 8.04993 21.0905C8.65993 22.1305 8.95996 23.1705 8.95996 24.2005V71.4404L50.1299 95.2105C51.0299 95.7205 51.7799 96.5104 52.3899 97.5504C52.9899 98.6004 53.2999 99.6404 53.2999 100.67Z" class="pr-icon-iso-solid-stroke" stroke-linejoin="round"/>
    <path d="M65.9598 46.2104V89.8104C65.9598 89.8904 65.9598 89.9804 65.9498 90.0604C65.9098 91.9204 65.2899 93.1904 64.0999 93.8704C62.8599 94.5804 61.3698 94.4304 59.6298 93.4204L21.6298 71.4804C20.0098 70.5504 18.6098 69.1304 17.4298 67.2104C17.3398 67.0704 17.2498 66.9205 17.1598 66.7705C15.9198 64.6305 15.2998 62.5604 15.2998 60.5604V56.9304C15.2998 55.9004 15.5998 55.2104 16.2098 54.8604L16.3998 54.7705C16.9598 54.5405 17.6598 54.6504 18.4598 55.1204C19.3598 55.6404 20.1098 56.4204 20.7198 57.4704C21.3298 58.5204 21.6298 59.5504 21.6298 60.5804V64.2204L22.4498 64.6904L27.2598 67.4704L59.6298 86.1605V49.8204L40.9799 39.0504L37.2498 36.9005C37.2498 36.9005 37.2299 36.8904 37.2299 36.8804L30.6698 33.1004L28.9598 32.1104L26.4998 30.6904L22.6298 28.4604L21.6298 27.8804V31.5104C21.6298 32.5404 21.3298 33.2304 20.7198 33.5804C20.1098 33.9204 19.3598 33.8404 18.4598 33.3204C17.5698 32.8004 16.8098 32.0204 16.2098 30.9704C15.5998 29.9204 15.2998 28.8904 15.2998 27.8604V16.9604C15.2998 14.9604 15.9198 13.6005 17.1598 12.9005L17.5498 12.7104C18.7098 12.2304 20.0698 12.4404 21.6298 13.3404L22.6298 13.9204L28.9598 17.5704L37.2299 22.3404C37.2299 22.3404 37.2398 22.3604 37.2498 22.3604L39.6898 23.7705L39.9897 23.9404L54.4799 32.3104L54.6898 32.4304L59.6298 35.2805C59.9098 35.4405 60.1898 35.6204 60.4598 35.8304C61.8498 36.8204 63.0599 38.2104 64.0999 40.0004C65.1299 41.7804 65.7398 43.5204 65.8998 45.2104C65.9398 45.5404 65.9598 45.8804 65.9598 46.2104Z" class="pr-icon-iso-solid-stroke" stroke-linejoin="round"/>
    <path d="M40.4006 68.0504L39.6807 68.4604L40.4507 68.0704L40.4006 68.0504Z" class="pr-icon-iso-solid-stroke" stroke-linejoin="round"/>
    <path d="M73.3009 90.6704C73.3009 91.7004 72.9909 92.3905 72.3909 92.7305L72.2009 92.8204L52.3909 102.73C52.9909 102.39 53.3009 101.7 53.3009 100.67C53.3009 99.6404 52.9909 98.6004 52.3909 97.5504C51.7809 96.5104 51.0309 95.7204 50.1309 95.2104L8.96094 71.4404L17.4309 67.2104C18.6109 69.1304 20.0109 70.5505 21.6309 71.4805L59.6309 93.4204C61.3709 94.4304 62.861 94.5805 64.101 93.8705L68.6309 91.6005L73.1309 89.3505C73.2409 89.7905 73.3009 90.2304 73.3009 90.6704Z" class="pr-icon-iso-solid-stroke" stroke-linejoin="round"/>
    <path d="M15.3004 42.3906C15.3004 43.4206 15.6004 44.4606 16.2104 45.5106C16.8104 46.5506 17.5704 47.3405 18.4604 47.8505L22.6304 50.2606L23.9204 51.0005L22.6304 51.6506L16.4004 54.7706L16.2104 54.8605C15.6004 55.2105 15.3004 55.9005 15.3004 56.9305V60.5605C15.3004 62.5605 15.9204 64.6306 17.1604 66.7706C17.2504 66.9206 17.3404 67.0705 17.4304 67.2105L8.96045 71.4405V24.2005C8.96045 23.1705 8.66042 22.1305 8.05042 21.0905C7.45042 20.0405 6.69042 19.2605 5.80042 18.7405C4.99042 18.2705 4.30047 18.1506 3.73047 18.3906L23.5404 8.48052C24.1104 8.15052 24.8104 8.21057 25.6404 8.66057L22.6404 10.1606L17.5504 12.7105L17.1604 12.9006C15.9204 13.6006 15.3004 14.9605 15.3004 16.9605V27.8605C15.3004 28.8905 15.6004 29.9205 16.2104 30.9705C16.8104 32.0205 17.5704 32.8005 18.4604 33.3205C19.3604 33.8405 20.1105 33.9205 20.7205 33.5805L22.6304 32.6305L26.5004 30.6905L28.9604 32.1105V33.9605L22.6304 37.1205L16.3904 40.2405L16.2104 40.3305C15.6004 40.6705 15.3004 41.3606 15.3004 42.3906Z" class="pr-icon-iso-solid-stroke" stroke-linejoin="round"/>
    <path d="M34.2997 43.9604C34.2997 44.5304 34.3897 45.1004 34.5897 45.6704C34.7197 46.1004 34.9197 46.5304 35.1697 46.9604L35.2997 47.1804L38.0197 51.8805L35.2997 50.3104L30.6597 47.6305L28.9597 46.6505L22.6296 43.0005L18.4597 40.5905C17.6597 40.1205 16.9596 40.0005 16.3896 40.2405L22.6296 37.1205L28.9597 33.9604L30.6697 33.1005L37.2297 36.8805C37.2297 36.8805 37.2396 36.8905 37.2496 36.9005L40.9797 39.0504L40.7496 39.1704L35.2496 41.9204C34.6096 42.2804 34.2997 42.9604 34.2997 43.9604Z" class="pr-icon-iso-solid-stroke" stroke-linejoin="round"/>
    <path d="M59.63 49.8204V58.4905L59.5 58.5504L53.9401 61.3304L47.2001 64.7004L40.4501 68.0704L40.4 68.0504L46.75 64.4304L47.91 63.7705C48.55 63.4105 48.86 62.7405 48.86 61.7705C48.86 60.8005 48.55 59.7704 47.91 58.6804L47.1801 57.4304L39.6801 44.4805C39.1001 43.4805 38.3601 42.7204 37.4601 42.2004C36.5701 41.6804 35.83 41.5904 35.25 41.9204L40.75 39.1704L40.9801 39.0504L59.63 49.8204Z" class="pr-icon-iso-solid-stroke" stroke-linejoin="round"/>
    <path d="M85.9598 36.2105V79.8105C85.9598 81.8105 85.3399 83.1605 84.0999 83.8705L83.7098 84.0605L73.1298 89.3505L68.6298 91.6005L64.0999 93.8705C65.2899 93.1905 65.9098 91.9205 65.9498 90.0605C65.9598 89.9805 65.9598 89.8905 65.9598 89.8105V46.2105C65.9598 45.8805 65.9398 45.5405 65.8998 45.2105C65.7398 43.5205 65.1299 41.7805 64.0999 40.0005C63.0599 38.2105 61.8498 36.8205 60.4598 35.8305C60.1898 35.6205 59.9098 35.4406 59.6298 35.2806L54.6898 32.4305L54.4799 32.3105L39.9897 23.9405L39.6898 23.7705L37.2498 22.3605C37.2498 22.3605 37.2299 22.3505 37.2299 22.3405L28.9598 17.5705L22.6298 13.9205L21.6298 13.3405C20.0698 12.4405 18.7098 12.2305 17.5498 12.7105L22.6398 10.1606L25.6398 8.66056L37.1598 2.90055C38.3998 2.19055 39.8898 2.3405 41.6298 3.3405L79.6298 25.2806C81.3698 26.2906 82.8599 27.8605 84.0999 30.0005C85.3399 32.1405 85.9598 34.2105 85.9598 36.2105Z" class="pr-icon-iso-solid-stroke" stroke-linejoin="round"/>
    <path d="M26.4996 30.6904L22.6296 32.6305L20.7197 33.5804C21.3297 33.2304 21.6296 32.5405 21.6296 31.5105V27.8805L22.6296 28.4604L26.4996 30.6904Z" class="pr-icon-iso-solid-stroke" stroke-linejoin="round"/>
    <path d="M48.8597 61.7705C48.8597 62.7405 48.5498 63.4105 47.9098 63.7705L46.7498 64.4304L40.3998 68.0504L39.6798 68.4605C39.0998 68.7905 38.3698 68.7205 37.4998 68.2505C36.6298 67.7805 35.8798 66.9905 35.2498 65.9005C35.0298 65.5205 34.8598 65.1505 34.7198 64.7705C34.4898 64.1305 34.3798 63.4905 34.3798 62.8605C34.3798 61.8305 34.6698 61.1504 35.2498 60.8104L38.0198 59.1405L35.2998 57.5705L28.9598 53.9105L23.9198 51.0005L22.6298 50.2605L18.4598 47.8505C17.5698 47.3405 16.8098 46.5505 16.2098 45.5105C15.5998 44.4605 15.2998 43.4205 15.2998 42.3905C15.2998 41.3605 15.5998 40.6705 16.2098 40.3305L16.3898 40.2405C16.9598 40.0005 17.6598 40.1205 18.4598 40.5905L22.6298 43.0005L28.9598 46.6505L30.6598 47.6305L35.2998 50.3104L38.0198 51.8805L35.2998 47.1804L35.1698 46.9605C34.9198 46.5305 34.7198 46.1004 34.5898 45.6704C34.3898 45.1004 34.2998 44.5305 34.2998 43.9605C34.2998 42.9605 34.6098 42.2804 35.2498 41.9204C35.8298 41.5904 36.5698 41.6805 37.4598 42.2005C38.3598 42.7205 39.0998 43.4805 39.6798 44.4805L47.1798 57.4304L47.9098 58.6804C48.5498 59.7704 48.8597 60.8005 48.8597 61.7705Z" class="pr-icon-iso-solid-stroke" stroke-linejoin="round"/>
    <path d="M35.3004 57.5704L28.9604 60.6605L24.0004 63.0704L21.6304 64.2205V60.5804C21.6304 59.5504 21.3305 58.5205 20.7205 57.4705C20.1105 56.4205 19.3604 55.6405 18.4604 55.1205C17.6604 54.6505 16.9604 54.5405 16.4004 54.7705L22.6304 51.6505L23.9204 51.0005L28.9604 53.9105L35.3004 57.5704Z" class="pr-icon-iso-solid-stroke" stroke-linejoin="round"/>
    <path d="M59.6299 64.6105V86.1605L27.2599 67.4705L22.45 64.6904L21.6299 64.2205L23.9999 63.0704L28.96 60.6605L35.2999 57.5704L38.0199 59.1405L35.2499 60.8104C34.6699 61.1504 34.3799 61.8305 34.3799 62.8605C34.3799 63.4905 34.49 64.1305 34.72 64.7605C34.86 65.1505 35.0299 65.5205 35.2499 65.9005C35.8799 66.9905 36.6299 67.7805 37.4999 68.2505C38.3699 68.7205 39.0999 68.7904 39.6799 68.4604L40.45 68.0704L47.2 64.7004L53.9399 61.3304L59.6299 64.6105Z" class="pr-icon-iso-solid-stroke" stroke-linejoin="round"/>
</svg>