<svg viewBox="0 0 96 115" xmlns="http://www.w3.org/2000/svg" height="48" width="48" stroke-width="1px"
     stroke-linecap="round" stroke-linejoin="round">
    <path d="M73.3229 107.121C73.1029 107.431 72.8629 107.681 72.5829 107.841L72.2129 108.031C71.4529 108.311 70.5229 108.121 69.4029 107.481L62.8329 103.681L46.8429 94.4511V109.461C46.8429 110.881 46.4229 111.831 45.5929 112.301C44.7529 112.781 43.7229 112.661 42.4829 111.951L34.2029 107.161C32.9629 106.451 31.9329 105.371 31.0929 103.931C30.2629 102.491 29.8429 101.061 29.8429 99.6511V84.6412L7.28287 71.6112C5.53287 70.6112 4.23294 68.9711 3.35294 66.7211C2.48294 64.4711 2.55291 62.8011 3.57291 61.7211L16.5429 46.9512L16.2129 46.7612C14.4729 45.7512 13.1829 44.1112 12.3529 41.8312C11.5129 39.5612 11.603 37.8811 12.623 36.8011L34.743 13.3111C34.883 13.1711 35.0429 13.0611 35.2129 12.9711L35.4629 12.8511C35.7429 12.7411 36.0428 12.6811 36.3828 12.6911C37.0328 12.6911 37.6929 12.8811 38.3429 13.2611C38.9929 13.6311 39.6529 14.2012 40.3029 14.9512C40.8729 15.6012 41.363 16.3211 41.753 17.1011C41.823 17.2211 41.8829 17.3411 41.9429 17.4611L64.0629 66.5011C65.0829 68.7611 65.1729 70.5411 64.3329 71.8511C64.1029 72.2111 63.8429 72.4811 63.5529 72.6611L63.3929 72.7411C62.6329 73.1411 61.6529 72.9911 60.4629 72.3011L60.1429 72.1211L66.8429 87.4811L73.1129 101.861C74.1229 104.121 74.2029 105.871 73.3229 107.121Z" class="pr-icon-iso-solid-stroke" stroke-linejoin="round"/>
    <path d="M84.3329 61.8511C84.1129 62.1911 83.8729 62.4511 83.5929 62.6411L83.2429 62.8111L80.9429 63.9611L63.5529 72.6611C63.8429 72.4811 64.1029 72.2111 64.3329 71.8511C65.1729 70.5411 65.0829 68.7611 64.0629 66.5011L41.9429 17.4611C41.8829 17.3411 41.8229 17.2211 41.7529 17.1011C41.3629 16.3211 40.8729 15.6011 40.3029 14.9511C39.6529 14.2011 38.9929 13.6311 38.3429 13.2611C37.6929 12.8811 37.0328 12.6911 36.3828 12.6911C36.0428 12.6811 35.7429 12.7411 35.4629 12.8511L55.0829 3.04113L55.3629 2.90111C55.6629 2.75111 56.0028 2.68112 56.3828 2.69112C57.0328 2.69112 57.6929 2.88113 58.3429 3.26113C58.9929 3.63113 59.6529 4.20113 60.3029 4.95113C60.9629 5.70113 61.5029 6.54111 61.9429 7.46111L84.0629 56.5011C85.0829 58.7611 85.1729 60.5411 84.3329 61.8511Z" class="pr-icon-iso-solid-stroke" stroke-linejoin="round"/>
    <path d="M93.3226 97.1212C93.0526 97.5112 92.7326 97.7912 92.3826 97.9612H92.3527L72.5826 107.841C72.8626 107.681 73.1026 107.431 73.3226 107.121C74.2026 105.871 74.1227 104.121 73.1127 101.861L66.8427 87.4812L60.1426 72.1212L60.4626 72.3012C61.6526 72.9912 62.6326 73.1412 63.3926 72.7412L63.5526 72.6612L80.9426 63.9612L93.1127 91.8612C94.1227 94.1212 94.2026 95.8712 93.3226 97.1212Z" class="pr-icon-iso-solid-stroke" stroke-linejoin="round"/>
    <path d="M62.8328 103.681L45.5928 112.301C46.4228 111.831 46.8428 110.881 46.8428 109.461V94.4512L62.8328 103.681Z" class="pr-icon-iso-solid-stroke" stroke-linejoin="round"/>
</svg>