<svg viewBox="0 0 80 122" fill="#229EFF" xmlns="http://www.w3.org/2000/svg" height="48" width="48" stroke-width="1px" stroke-linecap="round" stroke-linejoin="round"><path d="M10.4111 14.0184L12.2311 13.1084C11.6011 13.3584 11.0011 13.6584 10.4111 14.0184Z" stroke="white" stroke-linejoin="round"/><path d="M57.4208 117.198C57.4208 118.468 57.0408 119.318 56.3008 119.748C55.5508 120.168 54.6208 120.068 53.5208 119.428L6.70074 92.3984C5.60074 91.7584 4.67078 90.7984 3.92078 89.5084C3.18078 88.2184 2.80078 86.9384 2.80078 85.6684C2.80078 84.3984 3.18078 83.5484 3.92078 83.1284L4.15076 83.0184C4.86076 82.7284 5.71074 82.8684 6.70074 83.4484L53.5208 110.468C54.6208 111.108 55.5508 112.078 56.3008 113.368C57.0408 114.658 57.4208 115.938 57.4208 117.198Z" stroke="white" stroke-linejoin="round"/><path d="M54.6808 47.6084C53.4708 43.9584 51.8507 40.3484 49.8107 36.7684C48.1007 33.7684 46.2408 31.0084 44.1808 28.4884C40.1608 23.5084 35.4608 19.4684 30.1108 16.3784C27.9208 15.1184 25.8407 14.1384 23.8707 13.4484C19.4307 11.8784 15.5508 11.7684 12.2308 13.1084L10.4108 14.0184C5.34077 17.0884 2.80078 23.2984 2.80078 32.6184C2.80078 39.0384 4.69075 46.6684 8.46075 55.5284C11.0508 61.6084 14.5608 68.2984 18.9908 75.5984C21.0108 78.9284 23.2207 82.3884 25.6207 85.9784C26.2707 86.9484 26.9908 87.8084 27.7708 88.5584C28.5508 89.3084 29.3308 89.9084 30.1108 90.3584C30.8908 90.8084 31.6707 91.1084 32.4507 91.2584C33.2307 91.4084 33.9508 91.3784 34.6008 91.1584C36.1308 90.6384 37.5908 90.0884 38.9708 89.4784C39.3008 89.3484 39.6207 89.1984 39.9407 89.0584L39.9808 89.0384C40.8808 88.6284 41.7407 88.1984 42.5707 87.7484L42.6407 87.7084C44.1607 86.8884 45.5608 86.0184 46.8408 85.0684C48.5708 83.8184 50.0907 82.4384 51.3907 80.9584C51.5107 80.8184 51.6407 80.6784 51.7607 80.5284C55.5307 76.0284 57.4208 70.5684 57.4208 64.1584C57.4208 58.5684 56.5108 53.0584 54.6808 47.6084ZM35.6207 57.2184C35.2407 57.4384 34.8308 57.5884 34.4108 57.6684C33.1508 57.9284 31.7208 57.5984 30.1108 56.6684C27.9608 55.4284 26.1308 53.4884 24.6008 50.8584C23.0708 48.2184 22.3107 45.6784 22.3107 43.2084C22.3107 40.7384 23.0708 39.0784 24.6008 38.2084C24.9108 38.0284 25.2307 37.8984 25.5607 37.8184C26.8807 37.4584 28.3908 37.7784 30.1108 38.7584C32.2608 39.9984 34.0907 41.9384 35.6207 44.5784C37.1507 47.2084 37.9108 49.7584 37.9108 52.2184C37.9108 54.6784 37.1507 56.3484 35.6207 57.2184Z" stroke="white" stroke-linejoin="round"/><path d="M77.4204 107.199C77.4204 108.469 77.0404 109.319 76.3004 109.749L76.0704 109.859L56.3004 119.749C57.0404 119.319 57.4204 118.469 57.4204 117.199C57.4204 115.929 57.0404 114.659 56.3004 113.369C55.5504 112.079 54.6204 111.109 53.5204 110.469L6.70038 83.4486C5.71038 82.8686 4.86039 82.7286 4.15039 83.0186L18.9904 75.5986C21.0104 78.9286 23.2204 82.3886 25.6204 85.9786C26.2704 86.9486 26.9904 87.8086 27.7704 88.5586C28.5504 89.3086 29.3304 89.9086 30.1104 90.3586C30.8904 90.8086 31.6704 91.1086 32.4504 91.2586C33.2304 91.4086 33.9504 91.3786 34.6004 91.1586C36.1304 90.6386 37.5904 90.0886 38.9704 89.4786C39.3004 89.3486 39.6204 89.1986 39.9404 89.0586L39.9804 89.0386C40.8804 88.6286 41.7404 88.1986 42.5704 87.7486L42.6404 87.7086L47.3404 85.3586L73.5204 100.469C74.6204 101.109 75.5504 102.079 76.3004 103.369C77.0404 104.659 77.4204 105.939 77.4204 107.199Z" stroke="white" stroke-linejoin="round"/><path d="M37.9106 52.2186C37.9106 54.6786 37.1505 56.3486 35.6205 57.2186C35.2405 57.4386 34.8306 57.5886 34.4106 57.6686C33.1506 57.9286 31.7206 57.5986 30.1106 56.6686C27.9606 55.4286 26.1306 53.4886 24.6006 50.8586C23.0706 48.2186 22.3105 45.6786 22.3105 43.2086C22.3105 40.7386 23.0706 39.0786 24.6006 38.2086C24.9106 38.0286 25.2305 37.8986 25.5605 37.8186C26.8805 37.4586 28.3906 37.7786 30.1106 38.7586C32.2606 39.9986 34.0905 41.9386 35.6205 44.5786C37.1505 47.2086 37.9106 49.7586 37.9106 52.2186Z" stroke="white" stroke-linejoin="round"/><path d="M77.4205 54.1585C77.4205 60.5685 75.5304 66.0285 71.7604 70.5285C68.9904 73.8285 65.1705 76.6185 60.3005 78.8885L47.3405 85.3585L42.6404 87.7085C44.1604 86.8885 45.5605 86.0185 46.8405 85.0685C48.5705 83.8185 50.0904 82.4385 51.3904 80.9585C51.5104 80.8185 51.6404 80.6785 51.7604 80.5285C55.5304 76.0285 57.4205 70.5685 57.4205 64.1585C57.4205 58.5685 56.5105 53.0585 54.6805 47.6085C53.4705 43.9585 51.8504 40.3485 49.8104 36.7685C48.1004 33.7685 46.2405 31.0085 44.1805 28.4885C40.1605 23.5085 35.4605 19.4685 30.1105 16.3785C27.9205 15.1185 25.8404 14.1385 23.8704 13.4485C19.4304 11.8785 15.5505 11.7685 12.2305 13.1085L30.4105 4.01852C35.4805 0.938524 42.0505 1.72852 50.1105 6.37852C58.1705 11.0385 64.7404 17.8285 69.8104 26.7685C74.8804 35.6985 77.4205 44.8285 77.4205 54.1585Z" stroke="white" stroke-linejoin="round"/></svg>