<svg width="48" height="48" viewBox="0 0 85 106" xmlns="http://www.w3.org/2000/svg" stroke-width="1px"
     stroke-linecap="round" stroke-linejoin="round">
    <path d="M47.9502 101.613C48.4702 101.393 48.9802 101.133 49.4702 100.853L47.9502 101.613Z" class="pr-icon-iso-solid-stroke" stroke-linejoin="round"/>
    <path d="M60.9601 46.6534C60.0601 44.6934 58.8901 42.9734 57.4501 41.5034L52.0901 36.0934L49.9601 33.9534C49.9601 33.9534 49.9401 33.9334 49.9401 33.9234L34.9601 18.8334C34.0801 17.9734 33.2101 17.2834 32.3301 16.7834C31.4601 16.2734 30.5801 15.9534 29.7101 15.8034L22.3401 14.7234L7.21008 12.4934C6.24008 12.3734 5.38009 12.5034 4.65009 12.8834C4.30009 13.0634 3.99007 13.2934 3.70007 13.5834C2.79007 14.4934 2.34009 15.8534 2.34009 17.6434V37.9734C2.34009 48.0034 4.84009 58.8234 9.84009 70.4234C14.8401 82.0234 21.5501 91.8634 29.9901 99.9634C30.3601 100.323 30.74 100.643 31.11 100.933C31.49 101.223 31.8901 101.493 32.3301 101.743C32.7701 102.003 33.17 102.203 33.55 102.343C33.92 102.483 34.3001 102.593 34.6701 102.673C39.7101 103.653 44.1401 103.303 47.9501 101.613L49.4701 100.853C51.4401 99.7534 53.2201 98.2734 54.8301 96.3934C55.7301 95.3534 56.5401 94.2434 57.2701 93.0634C60.6401 87.6634 62.3201 80.8434 62.3201 72.6034V52.2734C62.3201 50.4834 61.8701 48.6034 60.9601 46.6534ZM36.0801 78.5334C36.0801 79.7534 35.7201 80.5634 35.0001 80.9734C34.2801 81.3834 33.3901 81.2834 32.3301 80.6634C31.2701 80.0534 30.3801 79.1234 29.6601 77.8934C28.9401 76.6534 28.5801 75.4234 28.5801 74.2034V56.9934C28.5801 55.7734 28.9401 54.9634 29.6601 54.5534C30.3801 54.1434 31.2701 54.2434 32.3301 54.8534C33.3901 55.4734 34.2801 56.3934 35.0001 57.6334C35.7201 58.8734 36.0801 60.1033 36.0801 61.3233V78.5334ZM35.0001 46.5534C34.2801 46.9634 33.3901 46.8634 32.3301 46.2534C31.2701 45.6334 30.3801 44.7134 29.6601 43.4734C28.9401 42.2334 28.5801 41.0034 28.5801 39.7834C28.5801 38.5634 28.9401 37.7534 29.6601 37.3434C30.3801 36.9334 31.2701 37.0334 32.3301 37.6434C33.3901 38.2634 34.2801 39.1834 35.0001 40.4234C35.7201 41.6634 36.0801 42.8934 36.0801 44.1134C36.0801 45.3334 35.7201 46.1434 35.0001 46.5534Z" class="pr-icon-iso-solid-stroke" stroke-linejoin="round"/>
    <path d="M36.0801 44.1134C36.0801 45.3334 35.7201 46.1434 35.0001 46.5534C34.2801 46.9634 33.3901 46.8634 32.3301 46.2534C31.2701 45.6334 30.3801 44.7134 29.6601 43.4734C28.9401 42.2334 28.5801 41.0034 28.5801 39.7834C28.5801 38.5634 28.9401 37.7534 29.6601 37.3434C30.3801 36.9334 31.2701 37.0334 32.3301 37.6434C33.3901 38.2634 34.2801 39.1834 35.0001 40.4234C35.7201 41.6634 36.0801 42.8934 36.0801 44.1134Z" class="pr-icon-iso-solid-stroke" stroke-linejoin="round"/>
    <path d="M36.0801 61.3233V78.5333C36.0801 79.7533 35.7201 80.5633 35.0001 80.9733C34.2801 81.3833 33.3901 81.2833 32.3301 80.6633C31.2701 80.0533 30.3801 79.1233 29.6601 77.8933C28.9401 76.6533 28.5801 75.4233 28.5801 74.2033V56.9934C28.5801 55.7734 28.9401 54.9634 29.6601 54.5534C30.3801 54.1434 31.2701 54.2434 32.3301 54.8534C33.3901 55.4734 34.2801 56.3934 35.0001 57.6334C35.7201 58.8734 36.0801 60.1033 36.0801 61.3233Z" class="pr-icon-iso-solid-stroke" stroke-linejoin="round"/>
    <path d="M82.3201 42.2733V62.6033C82.3201 72.6433 79.8201 80.5733 74.8301 86.3933C72.7201 88.8533 70.3001 90.6533 67.5701 91.7733L67.5201 91.8033L49.4702 100.853C51.4402 99.7533 53.2201 98.2733 54.8301 96.3933C55.7301 95.3533 56.5401 94.2433 57.2701 93.0633C60.6401 87.6633 62.3201 80.8433 62.3201 72.6033V52.2733C62.3201 50.4833 61.8701 48.6033 60.9601 46.6533C60.0601 44.6933 58.8901 42.9733 57.4501 41.5033L52.0901 36.0933L49.9601 33.9533C49.9601 33.9533 49.9401 33.9333 49.9401 33.9233L34.9601 18.8333C34.0801 17.9733 33.2101 17.2833 32.3301 16.7833C31.4601 16.2733 30.5801 15.9533 29.7101 15.8033L22.3401 14.7233L7.21014 12.4933C6.24014 12.3733 5.38015 12.5034 4.65015 12.8834L24.5001 2.96331L24.9702 2.73333C25.6302 2.46333 26.3801 2.39334 27.2101 2.49334L49.7101 5.80333C50.5801 5.95333 51.4601 6.27331 52.3301 6.78331C53.2101 7.28331 54.0801 7.9733 54.9601 8.8333L77.4501 31.5033C78.8901 32.9733 80.0601 34.6933 80.9601 36.6533C81.8701 38.6033 82.3201 40.4833 82.3201 42.2733Z" class="pr-icon-iso-solid-stroke" stroke-linejoin="round"/>
</svg>