<svg width="48" height="48" viewBox="0 0 91 110" xmlns="http://www.w3.org/2000/svg" stroke-width="1px"
     stroke-linecap="round" stroke-linejoin="round">
    <path d="M42.3193 107.879C42.7093 107.909 43.0694 107.839 43.4094 107.639L46.6494 105.779L42.3193 107.879Z" class="pr-icon-iso-solid-stroke" stroke-linejoin="round"/>
    <path d="M68.9199 58.2692C68.9199 60.8392 68.2798 62.7392 67.0098 63.9592C66.7098 64.2592 66.3698 64.5093 65.9898 64.7293C65.4398 65.0493 64.8499 65.2593 64.2299 65.3493C62.6699 65.5993 60.8798 65.1393 58.8798 63.9893C56.0898 62.3793 53.7198 59.8892 51.7698 56.5192C49.8198 53.1592 48.8398 49.8793 48.8398 46.6793C48.8398 45.5793 48.9498 44.5993 49.1898 43.7393C49.4998 42.5793 50.0198 41.6592 50.7598 40.9692C51.0598 40.6792 51.3998 40.4192 51.7698 40.2092L52.3798 39.9092C53.5998 39.4092 54.9698 39.3993 56.4998 39.8793C57.2498 40.1093 58.0498 40.4692 58.8798 40.9492C61.6698 42.5592 64.0398 45.0493 65.9898 48.4193C67.9398 51.7793 68.9199 55.0692 68.9199 58.2692Z" class="pr-icon-iso-solid-stroke" stroke-linejoin="round"/>
    <path d="M33.6201 51.5192L35.3901 50.6392V50.5093L33.6201 51.5192Z" class="pr-icon-iso-solid-stroke" stroke-linejoin="round"/>
    <path d="M64.1594 33.9692V34.0192L52.3794 39.9092L51.7694 40.2092C51.3994 40.4192 51.0594 40.6792 50.7594 40.9692C50.0194 41.6592 49.4994 42.5792 49.1894 43.7292L35.3894 50.6392V50.5093L43.1594 46.0792C43.8294 45.6992 44.1594 44.9992 44.1594 43.9692C44.1594 42.9392 43.8294 41.8592 43.1594 40.7092L36.4094 29.0592L35.9594 28.2892L33.7094 24.4092C33.0994 23.3492 32.3694 22.5492 31.5494 22.0192C31.4694 21.9692 31.3994 21.9193 31.3194 21.8793C30.4994 21.3993 29.7794 21.2892 29.1494 21.5492L41.0394 15.5992L48.9394 11.6492C49.6094 11.2692 50.3994 11.3493 51.3194 11.8793C52.2394 12.4093 53.0394 13.2492 53.7094 14.4092L63.1594 30.7092C63.8294 31.8592 64.1594 32.9492 64.1594 33.9692Z" class="pr-icon-iso-solid-stroke" stroke-linejoin="round"/>
    <path d="M35.3896 50.6392V60.2592L22.3696 66.7692L15.3896 70.2592V38.2092C15.8296 38.2892 16.2497 38.3292 16.6497 38.3292C16.8397 38.3292 17.0297 38.3292 17.2097 38.2992C17.3997 38.2792 17.5796 38.2592 17.7496 38.2192C17.9296 38.1792 18.0996 38.1392 18.2596 38.0792C18.3396 38.0492 18.4296 38.0292 18.5096 37.9892C18.5896 37.9692 18.6696 37.9292 18.7496 37.8892C18.8896 37.8392 19.0197 37.7692 19.1497 37.6892L23.1597 35.6892L28.6996 38.8892L32.6996 41.1992L28.9396 43.3392C28.8596 43.3892 28.7796 43.4392 28.6996 43.4992C28.1896 43.9092 27.9396 44.5692 27.9396 45.4992C27.9396 46.4292 28.1896 47.3792 28.6996 48.3792C28.7796 48.5192 28.8596 48.6692 28.9396 48.8092C29.6096 49.9692 30.3897 50.7992 31.2797 51.3192C32.1697 51.8292 32.9496 51.8992 33.6196 51.5192L35.3896 50.6392Z" class="pr-icon-iso-solid-stroke" stroke-linejoin="round"/>
    <path d="M23.1594 35.6893L19.1494 37.6893C20.2094 37.0893 20.9894 36.0992 21.4994 34.7292L23.1594 35.6893Z" class="pr-icon-iso-solid-stroke" stroke-linejoin="round"/>
    <path d="M44.1598 43.9693C44.1598 44.9993 43.8298 45.6993 43.1598 46.0793L35.3898 50.5093L33.6198 51.5193C32.9498 51.8993 32.1698 51.8293 31.2798 51.3193C30.3898 50.7993 29.6098 49.9693 28.9398 48.8093C28.8598 48.6693 28.7798 48.5193 28.6998 48.3793C28.1898 47.3793 27.9398 46.4193 27.9398 45.4993C27.9398 44.5793 28.1898 43.9093 28.6998 43.4993C28.7798 43.4393 28.8598 43.3893 28.9398 43.3393L32.6998 41.1993L28.6998 38.8893L23.1598 35.6893L21.4998 34.7293C20.9898 36.0993 20.2098 37.0893 19.1498 37.6893L18.7498 37.8893C18.6698 37.9293 18.5898 37.9593 18.5098 37.9893C18.4298 38.0293 18.3398 38.0493 18.2598 38.0793C18.0998 38.1393 17.9298 38.1793 17.7498 38.2193C17.5798 38.2593 17.3998 38.2793 17.2098 38.2993C17.0298 38.3193 16.8398 38.3293 16.6498 38.3293C16.2498 38.3293 15.8298 38.2893 15.3898 38.2093V70.2593C17.3398 72.2193 18.9498 74.5393 20.1998 77.2093C21.4498 79.8893 22.0798 82.4693 22.0798 84.9693C22.0798 88.1693 21.1098 90.3193 19.1498 91.4293C17.1998 92.5493 14.8297 92.2993 12.0497 90.6893C9.25974 89.0793 6.88976 86.5893 4.93976 83.2293C2.98976 79.8593 2.00977 76.5793 2.00977 73.3793C2.00977 70.8793 2.63977 69.0393 3.88977 67.8393C4.26977 67.4793 4.67976 67.1793 5.12976 66.9693L5.34979 66.8593C6.31979 66.4193 7.43977 66.2993 8.69977 66.4893V34.3393C6.74977 32.3893 5.14977 30.0693 3.88977 27.3893C2.63977 24.7193 2.00977 22.1293 2.00977 19.6393C2.00977 16.4393 2.98976 14.2793 4.93976 13.1693L5.54974 12.8693C7.37974 12.1293 9.53974 12.4693 12.0497 13.9193C14.2197 15.1693 16.1597 17.0093 17.8597 19.4293C19.5597 21.8493 20.7698 24.3893 21.4998 27.0493L28.6998 31.2093L30.2798 32.1193L32.6998 33.5193L31.5298 31.4993L28.9398 27.0293C28.8598 26.8893 28.7798 26.7393 28.6998 26.5993C28.2098 25.6193 27.9498 24.6993 27.9398 23.8293V23.7593C27.9398 23.6893 27.9398 23.6193 27.9498 23.5493C27.9898 22.6393 28.3198 21.9993 28.9398 21.6493L29.1498 21.5493C29.7798 21.2893 30.4998 21.3993 31.3198 21.8793C31.3998 21.9193 31.4697 21.9693 31.5497 22.0193C32.3697 22.5493 33.0998 23.3493 33.7098 24.4093L35.9598 28.2893L36.4098 29.0593L43.1598 40.7093C43.8298 41.8593 44.1598 42.9493 44.1598 43.9693Z" class="pr-icon-iso-solid-stroke" stroke-linejoin="round"/>
    <path d="M68.4095 86.8093C68.0795 85.6893 67.6095 84.5692 66.9895 83.4492L62.8895 76.2892C62.2295 75.1292 61.4895 74.1292 60.6795 73.2792C59.8695 72.4292 59.0195 71.7392 58.1295 71.2292C57.4895 70.8492 56.8695 70.5992 56.2695 70.4592C56.0295 70.3992 55.8095 70.3592 55.5795 70.3292C54.7695 70.2492 54.0295 70.3992 53.3595 70.7792L41.8795 77.2792L34.1295 81.6592L29.7795 84.1293C29.4395 84.3193 29.1895 84.5893 29.0195 84.9393C28.8595 85.2993 28.7695 85.7293 28.7695 86.2393V96.5093C28.7695 97.5993 29.0896 98.6892 29.7296 99.7992C30.3796 100.899 31.1695 101.729 32.1195 102.279L41.0695 107.439C41.5095 107.699 41.9295 107.849 42.3195 107.879L46.6495 105.779L46.6795 105.759L61.1295 97.4692L66.9095 94.1492C67.5195 93.7392 68.0095 93.1692 68.3695 92.4492C68.7295 91.7292 68.9196 90.8893 68.9196 89.9293C68.9196 88.9693 68.7495 87.9293 68.4095 86.8093ZM57.9595 88.5992L53.7795 81.3892L58.1295 78.9092L62.2296 86.0693L57.9595 88.5992Z" class="pr-icon-iso-solid-stroke" stroke-linejoin="round"/>
    <path d="M62.2293 86.0692L57.9593 88.5992L53.7793 81.3892L58.1293 78.9092L62.2293 86.0692Z" class="pr-icon-iso-solid-stroke" stroke-linejoin="round"/>
    <path d="M88.9197 79.9292C88.9197 80.8892 88.7297 81.7291 88.3697 82.4491C88.0097 83.1691 87.5197 83.7391 86.9097 84.1491L63.4097 97.6391L63.1497 97.7691L46.6797 105.759L61.1297 97.4692L66.9097 94.1491C67.5197 93.7391 68.0097 93.1691 68.3697 92.4491C68.7297 91.7291 68.9197 90.8892 68.9197 89.9292C68.9197 88.9692 68.7497 87.9292 68.4097 86.8092C68.0797 85.6892 67.6097 84.5691 66.9897 83.4491L62.8897 76.2892C62.2297 75.1292 61.4897 74.1292 60.6797 73.2792C59.8697 72.4292 59.0197 71.7392 58.1297 71.2292C57.4897 70.8492 56.8697 70.5991 56.2697 70.4591C56.0297 70.3991 55.8097 70.3591 55.5797 70.3291C54.7697 70.2491 54.0297 70.3992 53.3597 70.7792L64.2297 65.3492C64.8497 65.2592 65.4397 65.0492 65.9897 64.7292L69.3497 63.0492L74.7797 60.3291H74.7897C75.0497 60.2991 75.3097 60.2991 75.5797 60.3291C76.3897 60.4191 77.2397 60.7092 78.1297 61.2292C79.0197 61.7392 79.8697 62.4292 80.6797 63.2792C81.4897 64.1292 82.2297 65.1292 82.8897 66.2892L86.9897 73.4491C87.6097 74.5691 88.0797 75.6892 88.4097 76.8092C88.7497 77.9292 88.9197 78.9692 88.9197 79.9292Z" class="pr-icon-iso-solid-stroke" stroke-linejoin="round"/>
    <path d="M32.7 33.5191L30.28 32.1191L28.7 31.2091L21.5 27.0491L27.94 23.8291C27.95 24.6991 28.21 25.6191 28.7 26.5991C28.78 26.7391 28.86 26.8891 28.94 27.0291L31.53 31.4991L32.7 33.5191Z" class="pr-icon-iso-solid-stroke" stroke-linejoin="round"/>
    <path d="M41.0399 15.5992L29.1498 21.5492L28.9398 21.6492C28.3198 21.9992 27.9898 22.6392 27.9498 23.5492C27.9398 23.6192 27.9398 23.6892 27.9398 23.7592V23.8292L21.4998 27.0492C20.7698 24.3892 19.5598 21.8492 17.8598 19.4292C16.1598 17.0092 14.2198 15.1692 12.0498 13.9192C9.5398 12.4692 7.3798 12.1292 5.5498 12.8692L24.9398 3.16921C26.8898 2.05921 29.2598 2.30921 32.0498 3.91921C34.2198 5.16921 36.1598 7.00922 37.8598 9.42922C39.2498 11.4092 40.3099 13.4592 41.0399 15.5992Z" class="pr-icon-iso-solid-stroke" stroke-linejoin="round"/>
    <path d="M8.69958 65.1892V66.4892C7.43958 66.2992 6.31961 66.4192 5.34961 66.8592L8.69958 65.1892Z" class="pr-icon-iso-solid-stroke" stroke-linejoin="round"/>
    <path d="M42.0797 74.9692C42.0797 75.8092 42.0096 76.5792 41.8796 77.2792L34.1296 81.6592L29.7797 84.1293C29.4397 84.3193 29.1897 84.5893 29.0197 84.9393C28.8597 85.2993 28.7697 85.7293 28.7697 86.2393V86.6193L19.1497 91.4293C21.1097 90.3193 22.0797 88.1692 22.0797 84.9692C22.0797 82.4692 21.4496 79.8892 20.1996 77.2092C18.9496 74.5392 17.3396 72.2193 15.3896 70.2593L22.3696 66.7692L35.3896 60.2593C37.3396 62.2193 38.9496 64.5392 40.1996 67.2092C41.4496 69.8892 42.0797 72.4692 42.0797 74.9692Z" class="pr-icon-iso-solid-stroke" stroke-linejoin="round"/>
    <path d="M88.9199 48.2692C88.9199 51.4592 87.9399 53.6192 85.9899 54.7292L85.3799 55.0292L74.7899 60.3292H74.7799L69.3499 63.0492L65.9899 64.7292C66.3699 64.5092 66.7099 64.2592 67.0099 63.9592C68.2799 62.7392 68.9199 60.8392 68.9199 58.2692C68.9199 55.0692 67.9399 51.7792 65.9899 48.4192C64.0399 45.0492 61.6699 42.5592 58.8799 40.9492C58.0499 40.4692 57.2499 40.1092 56.4999 39.8792C54.9699 39.3992 53.5999 39.4092 52.3799 39.9092L64.1599 34.0192L71.7699 30.2092C73.7199 29.0992 76.0899 29.3492 78.8799 30.9492C81.6699 32.5592 84.0399 35.0492 85.9899 38.4192C87.9399 41.7792 88.9199 45.0692 88.9199 48.2692Z" class="pr-icon-iso-solid-stroke" stroke-linejoin="round"/>
</svg>