<svg width="48" height="48" viewBox="0 0 89 117" fill="#229EFF" xmlns="http://www.w3.org/2000/svg" stroke-width="1px" stroke-linecap="round" stroke-linejoin="round"><path d="M13.9802 23.0919C13.3602 22.0319 12.6004 21.2419 11.7004 20.7119C10.7904 20.1919 10.0304 20.1019 9.42041 20.4519C8.80041 20.8019 8.49023 21.5019 8.49023 22.5419C8.49023 23.5819 8.80041 24.6319 9.42041 25.6919C10.0304 26.7519 10.7904 27.5419 11.7004 28.0619C12.6004 28.5819 13.3602 28.6719 13.9802 28.3219C14.5902 27.9719 14.9004 27.2819 14.9004 26.2419C14.9004 25.2019 14.5902 24.1419 13.9802 23.0919Z" stroke="white" stroke-linejoin="round"/><path d="M34.9905 79.252H34.9805L34.2207 77.932L32.4307 74.8419C31.8407 73.8319 31.1606 73.0719 30.3706 72.5719C30.3706 72.5619 30.3606 72.562 30.3606 72.562C30.2906 72.512 30.2206 72.472 30.1506 72.432C29.3606 71.972 28.6706 71.8719 28.0706 72.1119L27.8706 72.2119C27.5706 72.4119 27.3507 72.6819 27.2107 73.0419C27.0707 73.3719 27.0005 73.772 26.9905 74.242V74.3219C26.9905 75.3319 27.2806 76.3419 27.8706 77.3519L30.3206 81.5819L31.4707 83.5719L29.1006 82.2019H29.0906L20.7505 77.382H20.7405C20.2605 75.512 19.5105 73.7019 18.5005 71.9519C17.4905 70.2019 16.2906 68.6519 14.9006 67.3019V36.622C16.2906 36.872 17.4905 36.702 18.5005 36.122C19.5105 35.542 20.2605 34.6019 20.7405 33.2819L22.3406 34.2019H22.3506L28.4905 37.7619L31.4707 39.4819L28.4905 41.182L27.8706 41.5319C27.2306 41.9019 26.9207 42.5819 26.9507 43.5719C26.9707 44.5719 27.2806 45.6019 27.8706 46.6719C28.0606 47.0119 28.2705 47.3119 28.4905 47.5919C28.6405 47.7819 28.7907 47.962 28.9507 48.122C29.3507 48.542 29.7506 48.8819 30.1506 49.1419C30.5506 49.4019 30.9405 49.5519 31.3105 49.5819C31.6505 49.6119 31.9705 49.5519 32.2605 49.4019L32.3506 49.3519L34.9006 47.9019L41.4805 44.1519C42.1205 43.7919 42.4407 43.112 42.4407 42.132C42.4407 41.152 42.1205 40.1119 41.4805 39.0119L35.0205 27.872L34.9106 27.6719L32.4407 23.4119C31.8607 22.4019 31.1706 21.632 30.3806 21.132C30.3106 21.082 30.2406 21.032 30.1606 20.992C29.3706 20.532 28.6806 20.4319 28.0806 20.6719L27.8806 20.7719C27.6006 20.9619 27.3905 21.2219 27.2505 21.5419C27.0905 21.8819 27.0105 22.312 27.0005 22.812V22.882C27.0005 23.892 27.2906 24.9019 27.8806 25.9119L30.3606 30.192H30.3706L31.4805 32.132L29.1707 30.8019H29.1606L28.5005 30.4119L20.7505 25.942C20.0605 23.392 18.9005 20.9619 17.2705 18.6419C15.6405 16.3319 13.7907 14.5719 11.7107 13.3619C9.21069 11.9219 7.07051 11.6319 5.27051 12.4719L4.90063 12.6519C3.03063 13.7219 2.10059 15.7819 2.10059 18.8419C2.10059 21.2319 2.70063 23.7019 3.90063 26.2619C5.10063 28.8319 6.64049 31.0419 8.50049 32.9219V63.6019C7.26049 63.4119 6.1707 63.552 5.2207 64.002C4.7407 64.232 4.30063 64.552 3.90063 64.942C2.70063 66.112 2.10059 67.8919 2.10059 70.2819C2.10059 73.3419 3.03063 76.4819 4.90063 79.7119C6.77063 82.9319 9.04069 85.3119 11.7107 86.8519C13.7907 88.0519 15.6405 88.432 17.2705 87.992C17.6805 87.882 18.0606 87.7319 18.4006 87.5419C19.4506 86.9719 20.2305 86.0319 20.7505 84.7219L22.2805 85.6019H22.2905L31.4805 90.9219L27.8806 92.9719C27.2406 93.3419 26.9307 94.0219 26.9607 95.0119C26.9807 96.0119 27.2906 97.0419 27.8806 98.1119C28.2006 98.6719 28.5607 99.152 28.9607 99.562C29.3607 99.982 29.7606 100.322 30.1606 100.582C30.5606 100.842 30.9506 100.992 31.3206 101.022C31.6406 101.052 31.9505 101.002 32.2405 100.862C32.2805 100.832 32.3206 100.812 32.3606 100.792L41.4905 95.5919C42.1305 95.2319 42.4507 94.5519 42.4507 93.5719C42.4507 92.5919 42.1305 91.5519 41.4905 90.4519L35.0005 79.252H34.9905ZM9.42065 20.4519C10.0307 20.1019 10.7907 20.1919 11.7007 20.7119C12.6007 21.2419 13.3605 22.0319 13.9805 23.0919C14.5905 24.1419 14.9006 25.192 14.9006 26.242C14.9006 27.2919 14.5905 27.9719 13.9805 28.3219C13.3605 28.6719 12.6007 28.582 11.7007 28.062C10.7907 27.542 10.0307 26.752 9.42065 25.692C8.80065 24.632 8.49048 23.5819 8.49048 22.5419C8.49048 21.5019 8.80065 20.8019 9.42065 20.4519ZM13.9805 79.7619C13.3605 80.1119 12.6007 80.022 11.7007 79.502C10.7907 78.982 10.0307 78.192 9.42065 77.132C8.80065 76.072 8.49048 75.0219 8.49048 73.9819C8.49048 72.9419 8.80065 72.2419 9.42065 71.8919C10.0307 71.5419 10.7907 71.6319 11.7007 72.1519C12.6007 72.6819 13.3605 73.4719 13.9805 74.5319C14.5905 75.5819 14.9006 76.632 14.9006 77.682C14.9006 78.732 14.5905 79.4119 13.9805 79.7619Z" stroke="white" stroke-linejoin="round"/><path d="M14.9004 77.6821C14.9004 78.7221 14.5902 79.412 13.9802 79.762C13.3602 80.112 12.6004 80.0221 11.7004 79.5021C10.7904 78.9821 10.0304 78.1921 9.42041 77.1321C8.80041 76.0721 8.49023 75.0221 8.49023 73.9821C8.49023 72.9421 8.80041 72.2421 9.42041 71.8921C10.0304 71.5421 10.7904 71.6321 11.7004 72.1521C12.6004 72.6821 13.3602 73.4721 13.9802 74.5321C14.5902 75.5821 14.9004 76.6321 14.9004 77.6821Z" stroke="white" stroke-linejoin="round"/><path d="M49.4902 90.0818C49.4902 90.0818 49.5003 90.0919 49.5103 90.0919C49.6203 90.0219 49.7403 89.9619 49.8503 89.9019L49.4902 90.0818Z" stroke="white" stroke-linejoin="round"/><path d="M40.3303 65.982L34.7402 68.772L32.5503 69.872L28.0703 72.112L27.8704 72.212C27.5704 72.412 27.3504 72.682 27.2104 73.042C27.0704 73.372 27.0002 73.772 26.9902 74.242V74.262L20.7502 77.382H20.7402C20.2602 75.512 19.5102 73.702 18.5002 71.952C17.4902 70.202 16.2904 68.652 14.9004 67.302L22.4304 63.532L34.9004 57.302C36.2904 58.652 37.4902 60.202 38.5002 61.952C39.2602 63.262 39.8703 64.612 40.3303 65.982Z" stroke="white" stroke-linejoin="round"/><path d="M62.4402 32.132V32.172L50.1101 38.3419L49.7202 38.5319C49.6502 38.5719 49.58 38.612 49.51 38.662C48.4 39.362 47.65 40.4319 47.26 41.8919V41.912L34.9001 48.0919L32.3501 49.352L34.9001 47.9019L41.48 44.1519C42.12 43.7919 42.4402 43.112 42.4402 42.132C42.4402 41.152 42.12 40.1119 41.48 39.0119L35.02 27.872L34.9102 27.672L32.4402 23.412C31.8602 22.402 31.1701 21.632 30.3801 21.132C30.3101 21.082 30.2402 21.032 30.1602 20.992C29.3702 20.532 28.6801 20.432 28.0801 20.672L32.5601 18.432L34.75 17.3419L40.3201 14.552L47.8801 10.7719C48.5201 10.4119 49.2802 10.482 50.1602 10.992C51.0402 11.492 51.8002 12.302 52.4402 13.412L61.49 29.0119C62.13 30.1119 62.4502 31.152 62.4502 32.132H62.4402Z" stroke="white" stroke-linejoin="round"/><path d="M22.3501 34.212L18.5 36.122C19.51 35.542 20.26 34.602 20.74 33.282L22.3401 34.202H22.3501V34.212Z" stroke="white" stroke-linejoin="round"/><path d="M34.9004 48.0919V57.3019L22.4304 63.5319L14.9004 67.3019V36.6219C16.2904 36.8719 17.4902 36.7019 18.5002 36.1219L22.3503 34.2119L28.4902 37.7619L31.4705 39.4819L28.4902 41.1819L27.8704 41.5319C27.2304 41.9019 26.9204 42.5819 26.9504 43.5719C26.9704 44.5719 27.2804 45.6019 27.8704 46.6719C28.0604 47.0119 28.2702 47.3119 28.4902 47.5919C28.6402 47.7819 28.7904 47.9619 28.9504 48.1219C29.3504 48.5419 29.7504 48.8819 30.1504 49.1419C30.5504 49.4019 30.9403 49.5519 31.3103 49.5819C31.6503 49.6119 31.9703 49.5519 32.2603 49.4019L32.3503 49.3519L34.9004 48.0919Z" stroke="white" stroke-linejoin="round"/><path d="M59.7297 93.1821V62.5021C60.8397 62.7021 61.84 62.632 62.72 62.292C62.76 62.282 62.7998 62.2621 62.8298 62.2421L63.5098 61.902L63.5898 61.852C63.8498 61.682 64.0998 61.4821 64.3298 61.2521C65.5298 60.0821 66.1299 58.2621 66.1299 55.8121C66.1299 52.7521 65.1998 49.612 63.3298 46.392C61.4598 43.172 59.1898 40.7921 56.5198 39.2521C55.7498 38.8021 55.0198 38.4621 54.3098 38.2421C52.7498 37.7321 51.3499 37.762 50.1099 38.342L49.72 38.532C49.65 38.572 49.5798 38.612 49.5098 38.662C48.3998 39.362 47.6498 40.432 47.2598 41.892V41.912C47.0298 42.732 46.9199 43.662 46.9199 44.722C46.9199 47.172 47.52 49.6821 48.72 52.2421C49.92 54.8021 51.4498 56.992 53.3198 58.802V89.482C52.1698 89.272 51.1598 89.342 50.2598 89.702L49.8499 89.902C49.7399 89.962 49.6198 90.022 49.5098 90.092C49.2298 90.272 48.97 90.492 48.72 90.732C48.04 91.392 47.5598 92.262 47.2698 93.332C47.0298 94.162 46.9199 95.092 46.9199 96.162C46.9199 99.222 47.85 102.372 49.72 105.592C51.59 108.812 53.8598 111.192 56.5198 112.732C59.1898 114.272 61.4598 114.512 63.3298 113.442C65.1998 112.382 66.1299 110.322 66.1299 107.252C66.1299 104.872 65.5298 102.392 64.3298 99.832C63.1298 97.272 61.5897 95.0521 59.7297 93.1821ZM54.2397 46.332C54.8597 45.982 55.6198 46.072 56.5198 46.592C57.4298 47.122 58.1898 47.912 58.8098 48.972C59.4198 50.032 59.7297 51.0821 59.7297 52.1221C59.7297 53.1621 59.4198 53.852 58.8098 54.202C58.1898 54.552 57.4298 54.4721 56.5198 53.9421C55.6198 53.4221 54.8597 52.632 54.2397 51.572C53.6297 50.512 53.3198 49.462 53.3198 48.422C53.3198 47.382 53.6297 46.682 54.2397 46.332ZM58.8098 105.642C58.1898 105.992 57.4298 105.912 56.5198 105.382C55.6198 104.862 54.8597 104.072 54.2397 103.012C53.6297 101.952 53.3198 100.902 53.3198 99.862C53.3198 98.822 53.6297 98.122 54.2397 97.772C54.8597 97.422 55.6198 97.512 56.5198 98.032C57.4298 98.562 58.1898 99.352 58.8098 100.412C59.4198 101.472 59.7297 102.522 59.7297 103.562C59.7297 104.602 59.4198 105.292 58.8098 105.642Z" stroke="white" stroke-linejoin="round"/><path d="M59.7302 103.562C59.7302 104.602 59.4203 105.292 58.8103 105.642C58.1903 105.992 57.4303 105.912 56.5203 105.382C55.6203 104.862 54.8602 104.072 54.2402 103.012C53.6302 101.952 53.3203 100.902 53.3203 99.862C53.3203 98.822 53.6302 98.1219 54.2402 97.7719C54.8602 97.4219 55.6203 97.5119 56.5203 98.0319C57.4303 98.5619 58.1903 99.352 58.8103 100.412C59.4203 101.472 59.7302 102.522 59.7302 103.562Z" stroke="white" stroke-linejoin="round"/><path d="M59.7302 52.122C59.7302 53.162 59.4203 53.852 58.8103 54.202C58.1903 54.552 57.4303 54.472 56.5203 53.942C55.6203 53.422 54.8602 52.632 54.2402 51.572C53.6302 50.512 53.3203 49.462 53.3203 48.422C53.3203 47.382 53.6302 46.682 54.2402 46.332C54.8602 45.982 55.6203 46.072 56.5203 46.592C57.4303 47.122 58.1903 47.912 58.8103 48.972C59.4203 50.032 59.7302 51.082 59.7302 52.122Z" stroke="white" stroke-linejoin="round"/><path d="M86.1304 45.8121C86.1304 48.2621 85.5303 50.0821 84.3303 51.2521C83.9703 51.6021 83.5704 51.892 83.1504 52.102L83.0903 52.1321L79.7302 53.8121L73.3203 57.012L63.5103 61.902L63.5903 61.852C63.8503 61.682 64.1003 61.4821 64.3303 61.2521C65.5303 60.0821 66.1304 58.2621 66.1304 55.8121C66.1304 52.7521 65.2003 49.612 63.3303 46.392C61.4603 43.172 59.1903 40.7921 56.5203 39.2521C55.7503 38.8021 55.0203 38.4621 54.3103 38.2421C52.7503 37.7321 51.3504 37.762 50.1104 38.342L62.4404 32.1721L69.7205 28.532C71.5905 27.472 73.8603 27.7021 76.5203 29.2521C79.1903 30.7921 81.4603 33.172 83.3303 36.392C85.2003 39.612 86.1304 42.7521 86.1304 45.8121Z" stroke="white" stroke-linejoin="round"/><path d="M79.7305 53.812V83.182L67.2605 89.412L59.7305 93.182V62.502C60.8405 62.702 61.8407 62.632 62.7207 62.292C62.7607 62.282 62.8006 62.262 62.8306 62.242L63.5105 61.902L73.3206 57.012L79.7305 53.812Z" stroke="white" stroke-linejoin="round"/><path d="M62.8306 62.2419L62.7207 62.3019" stroke="white" stroke-linejoin="round"/><path d="M53.3203 66.3819V88.1719L50.2603 89.7019L49.8503 89.9019L49.4902 90.0819C49.4902 90.0819 49.5003 90.0919 49.5103 90.0919C49.2303 90.2719 48.9705 90.4919 48.7205 90.7319C48.0405 91.3919 47.5603 92.2619 47.2703 93.3319L32.2302 100.862C32.2702 100.832 32.3103 100.812 32.3503 100.792L41.4802 95.5919C42.1202 95.2319 42.4404 94.5519 42.4404 93.5719C42.4404 92.5919 42.1202 91.5519 41.4802 90.4519L34.9902 79.2519H34.9802L34.2205 77.9319L32.4304 74.8419C31.8404 73.8319 31.1604 73.0719 30.3704 72.5719C30.3704 72.5619 30.3604 72.5619 30.3604 72.5619C30.2904 72.5119 30.2204 72.4719 30.1504 72.4319C29.3604 71.9719 28.6703 71.8719 28.0703 72.1119L32.5503 69.8719L34.7402 68.7819L40.3303 65.9819L47.8704 62.2119C48.5104 61.8519 49.2704 61.9219 50.1504 62.4319C51.0304 62.9319 51.7904 63.7419 52.4304 64.8419L53.3203 66.3819Z" stroke="white" stroke-linejoin="round"/><path d="M53.3208 88.1719V89.4819C52.1708 89.2719 51.1607 89.3418 50.2607 89.7018L53.3208 88.1719Z" stroke="white" stroke-linejoin="round"/><path d="M31.4702 83.5717L29.1001 82.2017H29.0901L20.75 77.3818L26.99 74.2617V74.3217C26.99 75.3317 27.2801 76.3417 27.8701 77.3517L30.3201 81.5817L31.4702 83.5717Z" stroke="white" stroke-linejoin="round"/><path d="M22.2805 85.6118L18.1807 87.6618" stroke="white" stroke-linejoin="round"/><path d="M40.3108 14.5519L34.7407 17.3319L32.5508 18.4319L28.0708 20.6719L27.8708 20.7719C27.5908 20.9619 27.3807 21.2219 27.2407 21.5419C27.0807 21.8819 27.0007 22.3119 26.9907 22.8119L20.7407 25.9419C20.0507 23.3919 18.8907 20.9619 17.2607 18.6419C15.6307 16.3319 13.7809 14.5719 11.7009 13.3619C9.20093 11.9219 7.06074 11.6319 5.26074 12.4719L24.8909 2.65187C26.7609 1.59187 29.0309 1.82189 31.7009 3.36189C33.7809 4.57189 35.6307 6.33186 37.2607 8.64186C38.5907 10.5319 39.6108 12.5019 40.3108 14.5519Z" stroke="white" stroke-linejoin="round"/><path d="M31.4705 32.1318L29.1604 30.8018H29.1504L28.4902 30.4118L20.7402 25.9418L26.9902 22.8218V22.8818C26.9902 23.8918 27.2804 24.9018 27.8704 25.9118L30.3503 30.1918H30.3604L31.4705 32.1318Z" stroke="white" stroke-linejoin="round"/><path d="M18.5002 36.1218L18.1904 36.2818" stroke="white" stroke-linejoin="round"/><path d="M86.1306 97.2519C86.1306 100.322 85.2006 102.382 83.3306 103.442L82.7505 103.732L63.3306 113.442C65.2006 112.382 66.1306 110.322 66.1306 107.252C66.1306 104.872 65.5306 102.392 64.3306 99.8318C63.1306 97.2718 61.5905 95.0519 59.7305 93.1819L67.2605 89.4119L79.7305 83.1819C81.5905 85.0519 83.1306 87.2718 84.3306 89.8318C85.5306 92.3918 86.1306 94.8719 86.1306 97.2519Z" stroke="white" stroke-linejoin="round"/><path d="M8.49072 62.3618V63.6018C7.25072 63.4118 6.16094 63.5518 5.21094 64.0018L8.49072 62.3618Z" stroke="white" stroke-linejoin="round"/></svg>