<svg width="24" height="24" viewBox="0 0 94 107" xmlns="http://www.w3.org/2000/svg" stroke-width="1px" stroke-linecap="round" stroke-linejoin="round">
    <path d="M57.8899 79.3506V97.8906C57.8899 100.981 56.9501 103.061 55.0701 104.131C53.1801 105.211 50.89 104.971 48.2 103.411L15.8899 84.7606C14.9699 84.2306 14.1998 83.4306 13.5798 82.3606C12.9598 81.2906 12.6499 80.2406 12.6499 79.1806C12.6499 78.1206 12.9598 77.4306 13.5798 77.0806L13.77 76.9906C14.36 76.7506 15.0599 76.8606 15.8899 77.3406L28.8101 84.8006V81.1006L18.01 74.8606L9.41992 69.9006C8.50992 69.3706 7.73987 68.5806 7.11987 67.5106C6.49987 66.4406 6.18994 65.3806 6.18994 64.3306C6.18994 63.2806 6.49987 62.5806 7.11987 62.2206L7.31006 62.1306C7.89006 61.8906 8.59992 62.0106 9.41992 62.4906L24.8999 71.4206L28.8101 73.6806V69.9706L28.3398 69.7006L11.55 60.0006L6.18994 56.9106C5.27994 56.3806 4.50989 55.5906 3.88989 54.5206C3.26989 53.4506 2.95996 52.3906 2.95996 51.3406C2.95996 50.2906 3.26989 49.5906 3.88989 49.2306L4.07983 49.1406C4.65983 48.9006 5.36994 49.0206 6.18994 49.5006L18.4299 56.5706L28.8101 62.5606V58.8506L27.49 58.0906L21.8699 54.8406L12.6499 49.5206C11.7399 48.9906 10.9699 48.1906 10.3499 47.1306C10.1799 46.8306 10.0299 46.5306 9.8999 46.2306C9.5799 45.4606 9.41992 44.7006 9.41992 43.9506C9.41992 42.9006 9.72985 42.1906 10.3499 41.8406L10.54 41.7506C11.13 41.5106 11.8299 41.6306 12.6499 42.1006L15.2 43.5706L32.3699 53.4806L30.8799 49.6206L29.6199 46.3406C28.9699 44.6706 28.7199 43.1406 28.8499 41.7706C28.8699 41.5306 28.91 41.3106 28.96 41.1006C29.01 40.8506 29.0799 40.6206 29.1699 40.4006C29.4399 39.7406 29.8599 39.2506 30.4299 38.9206L30.75 38.8306C30.97 38.7006 31.22 38.6206 31.47 38.6006C31.78 38.5706 32.1 38.6306 32.45 38.7606C32.56 38.8006 32.68 38.8506 32.8 38.9106C33.56 39.2906 34.2499 39.9306 34.8899 40.8206C34.9099 40.8406 34.9199 40.8706 34.9399 40.8906L39.23 47.0306L47.8899 59.4506L48.8 60.7506L54.01 68.2106C55.24 69.9806 56.1999 71.8206 56.8699 73.7606C57.5499 75.6906 57.8799 77.5606 57.8799 79.3506H57.8899Z" class="pr-icon-iso-solid-stroke" stroke-linejoin="round"/>
    <path d="M85.1401 68.0508C85.3201 68.0208 85.4801 67.9308 85.6501 67.8008L85.1401 68.0508Z" class="pr-icon-iso-solid-stroke" stroke-linejoin="round"/>
    <path d="M28.8103 58.8507V62.5607L18.4302 56.5707L6.19019 49.5007C5.37019 49.0207 4.66008 48.9007 4.08008 49.1407L9.90015 46.2307C10.0301 46.5307 10.1801 46.8307 10.3501 47.1307C10.9701 48.1907 11.7401 48.9907 12.6501 49.5207L21.8701 54.8407L27.4902 58.0907L28.8103 58.8507Z" class="pr-icon-iso-solid-stroke" stroke-linejoin="round"/>
    <path d="M77.8904 71.6807V87.8907C77.8904 90.9807 76.9506 93.0607 75.0706 94.1307L74.4805 94.4207L55.0706 104.131C56.9506 103.061 57.8904 100.981 57.8904 97.8907V79.3507C57.8904 77.5607 57.5604 75.6907 56.8804 73.7607C56.2104 71.8207 55.2505 69.9807 54.0205 68.2107L48.8105 60.7507L47.9004 59.4507L39.2405 47.0307L34.9504 40.8907C34.9504 40.8907 34.9204 40.8407 34.9004 40.8207C34.2604 39.9307 33.5705 39.2907 32.8105 38.9107C32.6905 38.8507 32.5704 38.8007 32.4604 38.7607C32.1104 38.6307 31.7905 38.5707 31.4805 38.6007C31.2305 38.6207 30.9805 38.7007 30.7605 38.8307L30.4404 38.9207L31.3503 38.4607L36.3704 35.9507L36.8105 36.5907L42.0706 44.1607L43.0005 45.4907L47.3403 51.7007L56.9304 65.4407C57.9004 66.8607 58.7705 68.3207 59.5205 69.8107C60.2705 71.2907 60.8904 72.7907 61.3804 74.3107C61.5904 75.1107 61.9203 75.8107 62.3503 76.4007C62.7803 76.9907 63.2605 77.4407 63.8005 77.7507C64.1805 77.9607 64.5105 78.0807 64.8105 78.1007C65.1105 78.1107 65.3904 78.0107 65.6604 77.8007L77.9004 71.6807H77.8904Z" class="pr-icon-iso-solid-stroke" stroke-linejoin="round"/>
    <path d="M71.3 70.4007C71.03 71.9807 70.44 73.2107 69.53 74.1107L65.6498 77.8007C65.3798 78.0107 65.1 78.1107 64.8 78.1007C64.5 78.0807 64.17 77.9607 63.79 77.7507C63.25 77.4407 62.7698 76.9907 62.3398 76.4007C61.9098 75.8107 61.5798 75.1107 61.3698 74.3107C60.8798 72.7907 60.2599 71.2907 59.5099 69.8107C58.7599 68.3207 57.8899 66.8607 56.9199 65.4407L47.3298 51.7007L42.9899 45.4907L42.06 44.1607L36.8 36.5907L36.3598 35.9507L34.3798 33.1007L32.7699 30.7807L31.6799 29.2207L25.1198 19.7707L25.06 19.6807L24.2099 18.4607C23.4499 17.4107 23.0198 16.3607 22.9098 15.3007C22.8098 14.2507 23.02 13.4507 23.56 12.9007C23.7 12.7607 23.8599 12.6407 24.0199 12.5607C24.1899 12.4707 24.36 12.4207 24.55 12.4007H24.57C24.9 12.3607 25.2598 12.4207 25.6598 12.5807C26.5198 12.9207 27.3298 13.6207 28.0798 14.6707L29.9399 17.3507L36.4899 26.8107L37.5798 28.3807L41.1598 33.5507L41.5998 34.1807L45.1598 39.3207L46.1799 40.7907L48.1198 38.8507L44.05 33.0007L44.03 32.9707L43.5898 32.3407L39.9999 27.1707L39.2299 26.0707L38.9098 25.6107L35.1899 20.2607C34.4399 19.2107 33.9998 18.1507 33.8598 17.0807C33.7698 16.3807 33.83 15.8007 34.04 15.3107C34.15 15.0607 34.2899 14.8407 34.4699 14.6507C34.5799 14.5407 34.6998 14.4407 34.8398 14.3607L34.8998 14.3307C35.0598 14.2507 35.2198 14.2007 35.3998 14.1807H35.4199C35.6499 14.1407 35.8999 14.1707 36.1699 14.2407C36.2999 14.2707 36.43 14.3207 36.57 14.3807C37.43 14.7507 38.2399 15.4707 38.9899 16.5207L44.7599 24.7907L48.3698 29.9507L49.0099 30.8807L54.82 39.2007L55.55 33.2207C55.6 32.8107 55.67 32.4407 55.79 32.1007C56.04 31.2907 56.4798 30.7007 57.0898 30.3107L57.5998 30.0507C58.0498 29.8707 58.5598 29.8207 59.0998 29.8907C59.4598 29.9307 59.8399 30.0307 60.2399 30.1807L60.7199 30.3707C61.5299 30.7107 62.2598 31.3107 62.8998 32.1807C63.5498 33.0507 64.01 33.9907 64.28 35.0107L65.05 38.4407L67.3498 48.6507L71.06 65.1707C71.49 67.0807 71.57 68.8307 71.3 70.4007Z" class="pr-icon-iso-solid-stroke" stroke-linejoin="round"/>
    <path d="M34.0405 15.3107C33.8305 15.8007 33.7704 16.3807 33.8604 17.0807C34.0004 18.1507 34.4404 19.2107 35.1904 20.2607L38.9104 25.6107L39.2305 26.0707L40.0005 27.1707L43.5903 32.3407L44.0305 32.9707L44.0505 33.0007L48.1204 38.8507L46.1804 40.7907L45.1604 39.3207L41.6003 34.1807L41.1604 33.5507L37.5803 28.3807L36.4905 26.8107L29.9404 17.3507L28.0803 14.6707C27.3303 13.6207 26.5204 12.9207 25.6604 12.5807C25.2604 12.4207 24.9006 12.3607 24.5706 12.4007H24.5505C24.3605 12.4207 24.1905 12.4707 24.0205 12.5607L43.8105 2.68071H43.8206C44.3206 2.32071 44.9304 2.29071 45.6604 2.58071C46.5204 2.92071 47.3303 3.62071 48.0803 4.67071L49.6404 6.93071L34.9004 14.3307L34.8403 14.3607C34.7003 14.4407 34.5805 14.5407 34.4705 14.6507C34.2905 14.8407 34.1505 15.0607 34.0405 15.3007V15.3107Z" class="pr-icon-iso-solid-stroke" stroke-linejoin="round"/>
    <path d="M91.2998 60.4008C91.0298 61.9808 90.4398 63.2108 89.5298 64.1108L85.6497 67.8008L85.1396 68.0508L77.8896 71.6808L65.6497 77.8008L69.5298 74.1108C70.4398 73.2108 71.0298 71.9808 71.2998 70.4008C71.5698 68.8308 71.4898 67.0808 71.0598 65.1708L67.3496 48.6508L65.0498 38.4408L64.2798 35.0108C64.0098 33.9908 63.5497 33.0508 62.8997 32.1808C62.2597 31.3108 61.5297 30.7108 60.7197 30.3708L60.2397 30.1808C59.8397 30.0308 59.4596 29.9308 59.0996 29.8908C58.5596 29.8208 58.0496 29.8708 57.5996 30.0508L58.7898 29.4608L63.5896 27.0608L66.0298 25.8408L70.8098 23.4508L77.0896 20.3108C77.9496 19.7508 78.9997 19.7108 80.2397 20.1808L80.7197 20.3708C81.5297 20.7108 82.2597 21.3108 82.8997 22.1808C83.5497 23.0508 84.0098 23.9908 84.2798 25.0108L91.0598 55.1708C91.4898 57.0808 91.5698 58.8308 91.2998 60.4008Z" class="pr-icon-iso-solid-stroke" stroke-linejoin="round"/>
    <path d="M28.8101 81.1006V84.8006L15.8899 77.3406C15.0599 76.8606 14.36 76.7506 13.77 76.9906L18.01 74.8606L28.8101 81.1006Z" class="pr-icon-iso-solid-stroke" stroke-linejoin="round"/>
    <path d="M28.8101 69.9707V73.6807L24.8999 71.4207L9.41992 62.4907C8.59992 62.0107 7.89006 61.8907 7.31006 62.1307L11.55 60.0007L28.3398 69.7007L28.8101 69.9707Z" class="pr-icon-iso-solid-stroke" stroke-linejoin="round"/>
    <path d="M24.9298 42.5207C24.4798 42.9907 23.8998 43.1407 23.1998 42.9507C23.0798 42.9307 22.9597 42.8907 22.8297 42.8407C22.0197 42.5107 21.2499 41.8807 20.5299 40.9107C20.4899 40.8607 20.4498 40.8007 20.4098 40.7407C19.6598 39.6907 19.2198 38.6407 19.1198 37.5907C19.1198 37.5507 19.1098 37.5007 19.1098 37.4607C19.0298 36.4607 19.2399 35.7107 19.7599 35.1807C19.8999 35.0407 20.0499 34.9207 20.2199 34.8407C20.3799 34.7607 20.5499 34.7107 20.7299 34.6907H20.7499C21.0699 34.6507 21.43 34.7207 21.82 34.8807C22.19 35.0407 22.5498 35.2607 22.8998 35.5607C23.3498 35.9307 23.7799 36.4107 24.2099 37.0007C24.7199 37.7107 25.0799 38.4207 25.3099 39.1207C25.4199 39.4607 25.4899 39.8007 25.5399 40.1307C25.6699 41.1707 25.4698 41.9707 24.9298 42.5207Z" class="pr-icon-iso-solid-stroke" stroke-linejoin="round"/>
    <path d="M28.6899 31.0608C28.7099 31.8308 28.5599 32.4508 28.2299 32.9008C28.1599 33.0008 28.09 33.0908 28 33.1708C27.67 33.4908 27.25 33.6408 26.76 33.6408H26.75C26.53 33.6408 26.31 33.6008 26.06 33.5308C25.61 33.4108 25.1599 33.1408 24.6999 32.7108C24.6699 32.6908 24.6498 32.6608 24.6198 32.6308C24.2898 32.3308 23.9599 31.9408 23.6399 31.4808L20.9799 27.7208C20.2199 26.6708 19.7899 25.6108 19.6799 24.5608C19.5699 23.5108 19.7898 22.7108 20.3298 22.1608C20.4298 22.0508 20.5399 21.9608 20.6599 21.8908L20.82 21.8108C20.96 21.7408 21.12 21.7008 21.28 21.6808H21.3C21.64 21.6308 22.0099 21.7008 22.4299 21.8808C23.2899 22.2608 24.0998 22.9708 24.8498 24.0308L27.4399 27.8408C28.1599 28.9008 28.5599 29.8708 28.6599 30.7308C28.6799 30.8408 28.6899 30.9508 28.6899 31.0608Z" class="pr-icon-iso-solid-stroke" stroke-linejoin="round"/>
    <path d="M70.8101 23.4507L66.03 25.8407L63.5898 27.0607L58.79 29.4607L57.5999 30.0507L57.0898 30.3107C56.4798 30.7007 56.04 31.2907 55.79 32.1007C55.67 32.4407 55.6 32.8107 55.55 33.2207L54.8201 39.2007L49.01 30.8807L48.3699 29.9507L44.76 24.7907L38.99 16.5207C38.24 15.4707 37.4301 14.7507 36.5701 14.3807C36.4301 14.3207 36.2999 14.2707 36.1699 14.2407C35.8999 14.1707 35.6499 14.1407 35.4199 14.1807H35.3999C35.2199 14.2007 35.0599 14.2507 34.8999 14.3307L49.6399 6.94069L54.72 4.43069L54.8298 4.37068L55.04 4.26069H55.05C55.48 4.09069 55.9901 4.13068 56.5701 4.38068C57.4301 4.75068 58.24 5.47069 58.99 6.52069L70.8101 23.4507Z" class="pr-icon-iso-solid-stroke" stroke-linejoin="round"/>
    <path d="M34.8999 14.3308L34.8398 14.3608" class="pr-icon-iso-solid-stroke" stroke-linejoin="round"/>
    <path d="M24.0203 12.5608L23.8701 12.6308" class="pr-icon-iso-solid-stroke" stroke-linejoin="round"/>
    <path d="M43.9102 2.63062L43.8203 2.67062" class="pr-icon-iso-solid-stroke" stroke-linejoin="round"/>
    <path d="M32.7703 30.7807L31.0801 31.6307H31.0703L29.9001 32.2207L28.0002 33.1707C28.0902 33.0907 28.1602 33.0007 28.2302 32.9007C28.5602 32.4507 28.7102 31.8307 28.6902 31.0607C28.6902 30.9507 28.6802 30.8407 28.6602 30.7307C28.5602 29.8707 28.1602 28.9007 27.4402 27.8407L24.8501 24.0307C24.1001 22.9707 23.2902 22.2607 22.4302 21.8807C22.0102 21.7007 21.6403 21.6307 21.3003 21.6807H21.2803C21.1203 21.7007 20.9603 21.7407 20.8203 21.8107L25.0603 19.6807L25.1201 19.7707L31.6802 29.2207L32.7703 30.7807Z" class="pr-icon-iso-solid-stroke" stroke-linejoin="round"/>
    <path d="M32.3699 53.4807L15.2 43.5707L12.6499 42.1007C11.8299 41.6307 11.13 41.5107 10.54 41.7507L19.1099 37.4607C19.1099 37.4607 19.1199 37.5507 19.1199 37.5907C19.2199 38.6407 19.6599 39.6907 20.4099 40.7407C20.4499 40.8007 20.49 40.8607 20.53 40.9107C21.25 41.8807 22.0198 42.5107 22.8298 42.8407C22.9598 42.8907 23.08 42.9307 23.2 42.9507C23.9 43.1407 24.4799 42.9907 24.9299 42.5207L28.4099 40.7807L29.1699 40.4007C29.0799 40.6207 29.01 40.8507 28.96 41.1007C28.91 41.3107 28.8699 41.5307 28.8499 41.7707C28.7199 43.1407 28.9699 44.6707 29.6199 46.3407L30.8799 49.6207L32.3699 53.4807Z" class="pr-icon-iso-solid-stroke" stroke-linejoin="round"/>
    <path d="M36.3596 35.9508L31.3396 38.4608L30.4297 38.9208C29.8597 39.2508 29.4397 39.7408 29.1697 40.4008L28.4097 40.7808L24.9297 42.5208C25.4697 41.9708 25.6698 41.1708 25.5398 40.1308C25.4898 39.8008 25.4198 39.4608 25.3098 39.1208C25.0798 38.4208 24.7197 37.7108 24.2097 37.0008C23.7797 36.4108 23.3497 35.9308 22.8997 35.5608C22.5497 35.2608 22.1898 35.0408 21.8198 34.8808C21.4298 34.7208 21.0698 34.6508 20.7498 34.6908H20.7297C20.5497 34.7108 20.3797 34.7608 20.2197 34.8408L24.6196 32.6308C24.6196 32.6308 24.6697 32.6908 24.6997 32.7108C25.1597 33.1408 25.6098 33.4108 26.0598 33.5308C26.3098 33.6008 26.5298 33.6408 26.7498 33.6408H26.7598C27.2498 33.6408 27.6698 33.4908 27.9998 33.1708L29.8997 32.2208L31.0698 31.6308H31.0796L32.7698 30.7808L34.3796 33.1008L36.3596 35.9508Z" class="pr-icon-iso-solid-stroke" stroke-linejoin="round"/>
</svg>