<svg width="48" height="48" viewBox="0 0 128 112" xmlns="http://www.w3.org/2000/svg" stroke-width="1px"
     stroke-linecap="round" stroke-linejoin="round">
    <path d="M105.59 102.77C105.67 105.73 104.79 107.73 102.94 108.79C101.24 109.75 99.0905 109.48 96.4705 107.97C93.8505 106.46 91.6905 104.24 90.0005 101.32L54.5105 40.3604L53.9604 39.4204L34.7505 50.2304L17.9204 59.7004C16.2304 60.6704 14.1103 60.4604 11.5703 59.0804C9.03031 57.7004 6.83047 55.4204 4.98047 52.2304C3.29047 49.3104 2.44043 46.3504 2.44043 43.3404C2.44043 40.3304 3.29047 38.3504 4.98047 37.3904L47.4905 13.1504L48.0205 12.8904C48.8005 12.5804 49.6205 12.4804 50.4905 12.6304C50.5805 12.6504 50.6705 12.6604 50.7705 12.6804C51.7705 12.8904 52.8304 13.3204 53.9604 13.9704C55.1904 14.6804 56.3504 15.5704 57.4304 16.6304C58.5004 17.7004 59.5004 19.0304 60.4304 20.6204L67.6104 33.0004L102.94 93.9404C104.63 96.8604 105.52 99.8104 105.59 102.77Z" class="pr-icon-iso-solid-stroke" stroke-linejoin="round"/>
    <path d="M54.51 40.3604L37.9199 49.7004L17.9199 59.7004L34.75 50.2304L53.96 39.4204L54.51 40.3604Z" class="pr-icon-iso-solid-stroke" stroke-linejoin="round"/>
    <path d="M125.589 92.7703C125.669 95.7303 124.789 97.7303 122.939 98.7903L102.939 108.79C104.789 107.73 105.669 105.73 105.589 102.77C105.519 99.8103 104.629 96.8603 102.939 93.9403L67.6094 33.0003L60.4294 20.6203C59.4994 19.0303 58.4994 17.7003 57.4294 16.6303C56.3494 15.5703 55.1895 14.6803 53.9595 13.9703C52.8295 13.3203 51.7695 12.8903 50.7695 12.6803C50.6695 12.6603 50.5795 12.6503 50.4895 12.6303C49.6195 12.4803 48.7995 12.5803 48.0195 12.8903L67.4895 3.15032C68.4195 2.63032 69.4195 2.45032 70.4895 2.63032C71.5695 2.81032 72.7295 3.26031 73.9595 3.97031C75.1895 4.68031 76.3494 5.57032 77.4294 6.63032C78.4994 7.70032 79.4994 9.03032 80.4294 10.6203L122.939 83.9403C124.629 86.8603 125.519 89.8103 125.589 92.7703Z" class="pr-icon-iso-solid-stroke" stroke-linejoin="round"/>
</svg>