<svg width="24" height="24" viewBox="0 0 95 117" xmlns="http://www.w3.org/2000/svg" stroke-width="1px" stroke-linecap="round" stroke-linejoin="round">
    <path d="M72.6609 87.0696L69.821 69.1196L68.8609 63.0497C68.6609 61.9197 68.221 60.8196 67.521 59.7696C66.831 58.7096 66.031 57.9297 65.151 57.4097L23.711 33.4897L10.5609 25.8996C9.67095 25.3796 8.88094 25.2496 8.18094 25.5096C7.48094 25.7596 7.04096 26.3396 6.85096 27.2496L3.05094 46.8796C2.79094 48.1096 3.05095 49.4797 3.81095 50.9697C4.57095 52.4697 5.55095 53.5596 6.75095 54.2596L7.42096 54.6396V76.4697C7.42096 77.6997 7.78096 78.9496 8.51096 80.2096C9.24096 81.4596 10.151 82.3997 11.221 83.0297L41.6609 100.6C42.7309 101.22 43.6409 101.32 44.3709 100.91C45.1009 100.49 45.461 99.6697 45.461 98.4297V76.5997L60.6809 85.3896V107.21C60.6809 108.45 61.041 109.7 61.771 110.95C62.501 112.21 63.4009 113.15 64.4809 113.77C65.5609 114.4 66.461 114.5 67.191 114.08C67.921 113.67 68.281 112.84 68.281 111.61V89.7797L68.951 90.1597C70.151 90.8597 71.141 90.8997 71.901 90.2797C72.661 89.6697 72.9109 88.5996 72.6609 87.0696ZM37.8509 89.6697L15.031 76.4897V59.0297L27.4209 66.1896L31.2309 68.3896L37.8509 72.2096V89.6697Z" class="pr-icon-iso-solid-stroke" stroke-linejoin="round"/>
    <path d="M68.2809 50.4897C68.2809 51.7297 67.9209 52.5597 67.1909 52.9697C66.4609 53.3897 65.5609 53.2897 64.4809 52.6597L24.4709 29.5697L13.1409 23.0297L11.2209 21.9197C10.1509 21.2897 9.24089 20.3497 8.51089 19.0997C7.78089 17.8397 7.4209 16.5897 7.4209 15.3497C7.4209 14.1097 7.78089 13.2897 8.51089 12.8797L8.7309 12.7697C9.4209 12.4897 10.2609 12.6197 11.2209 13.1897L21.2509 18.9797L25.9909 21.7097L64.4809 43.9297C65.5609 44.5597 66.4609 45.4997 67.1909 46.7497C67.9209 48.0097 68.2809 49.2597 68.2809 50.4897Z" class="pr-icon-iso-solid-stroke" stroke-linejoin="round"/>
    <path d="M91.1514 80.6598C91.4214 80.5898 91.6714 80.4698 91.9014 80.2798L91.1514 80.6598Z" class="pr-icon-iso-solid-stroke" stroke-linejoin="round"/>
    <path d="M31.2312 68.3898L28.3112 69.8498L15.0312 76.4898V59.0298L27.4212 66.1898L31.2312 68.3898Z" class="pr-icon-iso-solid-stroke" stroke-linejoin="round"/>
    <path d="M37.8512 72.2097V89.6697L15.0312 76.4897L28.3112 69.8497L31.2312 68.3896L37.8512 72.2097Z" class="pr-icon-iso-solid-stroke" stroke-linejoin="round"/>
    <path d="M88.2814 82.0898V101.61C88.2814 102.84 87.9214 103.67 87.1914 104.08L86.9714 104.19L67.1914 114.08C67.9214 113.67 68.2814 112.84 68.2814 111.61V89.7798L68.9514 90.1599C70.1514 90.8599 71.1414 90.8998 71.9014 90.2798L80.6814 85.8898L88.2814 82.0898Z" class="pr-icon-iso-solid-stroke" stroke-linejoin="round"/>
    <path d="M88.2805 40.4898C88.2805 41.7298 87.9205 42.5598 87.1905 42.9698L86.9704 43.0798L81.9804 45.5798L67.1905 52.9698C67.9205 52.5598 68.2805 51.7298 68.2805 50.4898C68.2805 49.2498 67.9205 48.0097 67.1905 46.7497C66.4605 45.4997 65.5604 44.5598 64.4804 43.9298L25.9904 21.7098L21.2505 18.9798L11.2205 13.1897C10.2605 12.6197 9.42047 12.4898 8.73047 12.7698L28.5105 2.87975C29.2405 2.45975 30.1504 2.55974 31.2204 3.18974L84.4804 33.9298C85.5604 34.5598 86.4605 35.4997 87.1905 36.7497C87.9205 38.0097 88.2805 39.2598 88.2805 40.4898Z" class="pr-icon-iso-solid-stroke" stroke-linejoin="round"/>
    <path d="M91.9007 80.2798L91.1507 80.6598H91.1307L88.2807 82.0898L80.6807 85.8898L71.9007 90.2798C72.6607 89.6698 72.9106 88.5998 72.6606 87.0698L69.8207 69.1198L68.8607 63.0498C68.6607 61.9198 68.2207 60.8198 67.5207 59.7698C66.8307 58.7098 66.0307 57.9298 65.1507 57.4098L23.7107 33.4898L10.5607 25.8998C9.67067 25.3798 8.88066 25.2498 8.18066 25.5098L13.1407 23.0298L24.4706 29.5698L64.4807 52.6598C65.5607 53.2898 66.4607 53.3898 67.1907 52.9698L81.9807 45.5798L85.1507 47.4098C86.0307 47.9298 86.8307 48.7098 87.5207 49.7698C88.2207 50.8198 88.6607 51.9198 88.8607 53.0498L92.6606 77.0698C92.9106 78.5998 92.6607 79.6698 91.9007 80.2798Z" class="pr-icon-iso-solid-stroke" stroke-linejoin="round"/>
    <path d="M60.6811 85.3898V92.7598L44.3711 100.91C45.1011 100.49 45.4611 99.6699 45.4611 98.4299V76.5999L60.6811 85.3898Z" class="pr-icon-iso-solid-stroke" stroke-linejoin="round"/>
</svg>