<svg width="48" height="48" viewBox="0 0 90 102" xmlns="http://www.w3.org/2000/svg" stroke-width="1px"
     stroke-linecap="round" stroke-linejoin="round">
    <path d="M52.3601 48.2148C52.0401 47.6548 51.65 47.2448 51.22 46.9948C50.78 46.7448 50.4001 46.7148 50.0701 46.8948C49.7501 47.0848 49.5801 47.4248 49.5801 47.9248C49.5801 48.4248 49.7501 48.9648 50.0701 49.5248C50.4001 50.0848 50.78 50.4948 51.22 50.7448C51.65 50.9948 52.0401 51.0348 52.3601 50.8448C52.6901 50.6548 52.8501 50.3148 52.8501 49.8148C52.8501 49.3148 52.6901 48.7848 52.3601 48.2148Z" class="pr-icon-iso-solid-stroke" stroke-linejoin="round"/>
    <path d="M36.7795 5.85486L26.9495 10.7649L22.9294 12.7849L22.7395 12.8749C22.1095 13.2349 21.7996 13.9449 21.7996 15.0049V18.7549L13.6196 14.0349C12.5896 13.4349 11.6496 13.2349 10.7996 13.4349C10.7296 13.4549 10.6596 13.4749 10.5996 13.4949L29.9495 3.82486C30.1995 3.63486 30.4796 3.50486 30.7896 3.43486C31.6396 3.23486 32.5796 3.43486 33.6096 4.03486L36.7695 5.85486H36.7795Z" class="pr-icon-iso-solid-stroke" stroke-linejoin="round"/>
    <path d="M67.3201 45.4949C66.7801 41.3849 65.27 37.1849 62.78 32.9049C60.55 29.0549 57.9901 25.9049 55.1001 23.4749C53.8701 22.4349 52.57 21.5249 51.22 20.7349C49.68 19.8549 48.2301 19.2149 46.8601 18.8549C46.7501 18.8149 46.64 18.7849 46.53 18.7649C46.39 18.7249 46.2501 18.6849 46.1201 18.6749C46.1101 18.6749 46.1001 18.6749 46.0901 18.6649C44.0901 18.2249 42.2601 18.3649 40.6101 19.0649L39.6101 19.5649C37.8801 20.5849 36.6301 22.0949 35.8501 24.0849C35.8001 24.1949 35.76 24.3149 35.73 24.4249C35.16 26.0049 34.8701 27.8849 34.8701 30.0549C34.8701 31.7949 35.0499 33.5549 35.4199 35.3249C36.1199 38.8449 37.5399 42.4249 39.6499 46.0849C39.9199 46.5549 40.2 47.0149 40.5 47.4649C43.51 52.2649 47.09 55.8549 51.22 58.2549C55.11 60.5049 58.5099 61.1049 61.4099 60.0649C61.7399 59.9549 62.0701 59.8149 62.3801 59.6549C62.5201 59.5849 62.65 59.5149 62.78 59.4449C62.95 59.3449 63.11 59.2449 63.27 59.1349C65.16 57.8949 66.4301 55.9849 67.0601 53.4149C67.1001 53.2749 67.1299 53.1349 67.1599 52.9949C67.4299 51.7749 67.5601 50.4249 67.5601 48.9349C67.5601 47.7949 67.4801 46.6449 67.3201 45.4949ZM52.3601 50.8449C52.0401 51.0349 51.65 50.9949 51.22 50.7449C50.78 50.4949 50.4001 50.0849 50.0701 49.5249C49.7501 48.9649 49.5801 48.4249 49.5801 47.9249C49.5801 47.4249 49.7501 47.0849 50.0701 46.8949C50.4001 46.7149 50.78 46.7449 51.22 46.9949C51.65 47.2449 52.0401 47.6549 52.3601 48.2149C52.6901 48.7849 52.8501 49.3149 52.8501 49.8149C52.8501 50.3149 52.6901 50.6549 52.3601 50.8449ZM52.8501 42.3149C52.8501 42.8149 52.6901 43.1549 52.3601 43.3449C52.0401 43.5249 51.65 43.4949 51.22 43.2449C50.78 42.9949 50.4001 42.5849 50.0701 42.0249C49.7501 41.4549 49.5801 40.9249 49.5801 40.4249V29.1749C49.5801 28.6749 49.7501 28.3249 50.0701 28.1449C50.4001 27.9549 50.78 27.9849 51.22 28.2349C51.65 28.4949 52.0401 28.8949 52.3601 29.4649C52.6901 30.0249 52.8501 30.5549 52.8501 31.0549V42.3149Z" class="pr-icon-iso-solid-stroke" stroke-linejoin="round"/>
    <path d="M49.2297 9.67485C48.9597 10.7648 48.7398 11.8748 48.5798 12.9948C48.4798 13.7048 48.4099 14.4348 48.3699 15.1848L43.8499 17.4448L39.6099 19.5648C37.8799 20.5848 36.6299 22.0948 35.8499 24.0848C35.7999 24.1948 35.7597 24.3148 35.7297 24.4248L27.5198 28.5248C28.0598 28.1548 28.3298 27.5048 28.3298 26.5648C28.3298 25.3148 28.4198 24.1248 28.5798 22.9948C28.5898 22.9448 28.5999 22.8848 28.5999 22.8348C28.7599 21.7648 28.9697 20.7148 29.2297 19.6748C29.5097 18.8248 29.3997 17.8248 28.9097 16.6748C28.4197 15.5148 27.7098 14.6648 26.7798 14.1348L25.8899 13.6148L25.0598 13.1348C24.2298 12.6548 23.5197 12.5348 22.9297 12.7848L26.9497 10.7748L36.7798 5.85485L42.7397 2.87485C43.3597 2.51485 44.1398 2.60485 45.0598 3.13485L46.7798 4.13485C47.7098 4.66485 48.4197 5.51485 48.9097 6.67485C49.3997 7.82485 49.5097 8.82485 49.2297 9.67485Z" class="pr-icon-iso-solid-stroke" stroke-linejoin="round"/>
    <path d="M51.2202 71.3849C51.2202 72.9449 50.7403 73.9949 49.7903 74.5449C48.8303 75.0849 47.6803 74.9649 46.3103 74.1749C44.9503 73.3949 43.7903 72.1749 42.8403 70.5249C41.8903 68.8849 41.4102 67.2849 41.4102 65.7149C41.4102 64.1449 41.8903 63.1049 42.8403 62.5549C43.0703 62.4249 43.3003 62.3349 43.5503 62.2849C44.3503 62.1049 45.2703 62.3249 46.3103 62.9249C47.3603 63.5249 48.2703 64.3749 49.0803 65.4749C49.3303 65.8149 49.5603 66.1749 49.7903 66.5649C50.7403 68.2149 51.2202 69.8149 51.2202 71.3849Z" class="pr-icon-iso-solid-stroke" stroke-linejoin="round"/>
    <path d="M60.8298 72.2648C60.6298 71.6148 60.2898 70.9548 59.7998 70.2848C58.9798 69.1548 58.1097 68.4848 57.1797 68.2648C56.1997 68.0048 55.2197 67.6748 54.2397 67.2648C53.2597 66.8548 52.2497 66.3548 51.2197 65.7548C47.7297 63.7448 44.4499 60.9848 41.3699 57.4848C38.2899 53.9948 35.6597 50.0848 33.4797 45.7648C33.1597 45.0748 32.7598 44.4648 32.2998 43.9548C31.8298 43.4348 31.3599 43.0348 30.8699 42.7448L22.1797 37.7348L11.3298 31.4748L14.7698 22.1948L21.7798 26.2548L22.1797 26.4848L25.4697 28.3848C26.2897 28.8548 26.9698 28.9048 27.5198 28.5248C28.0598 28.1548 28.3298 27.5048 28.3298 26.5648C28.3298 25.3148 28.4198 24.1248 28.5798 22.9948C28.5898 22.9448 28.5999 22.8848 28.5999 22.8348C28.7599 21.7648 28.9697 20.7148 29.2297 19.6748C29.5097 18.8248 29.3997 17.8248 28.9097 16.6748C28.4197 15.5148 27.7098 14.6648 26.7798 14.1348L25.8899 13.6148L25.0598 13.1348C24.2298 12.6548 23.5197 12.5348 22.9297 12.7848L22.7397 12.8748C22.1097 13.2348 21.7998 13.9448 21.7998 15.0048V18.7548L13.6199 14.0348C12.5899 13.4348 11.6498 13.2348 10.7998 13.4348C10.7298 13.4548 10.6599 13.4748 10.5999 13.4948L9.99976 13.7948C9.56976 14.0848 9.2598 14.5348 9.0498 15.1448L2.50977 32.6548C2.39977 32.9748 2.31977 33.3348 2.25977 33.7348C2.20977 34.1448 2.17969 34.5648 2.17969 35.0048V61.8248C2.17969 63.3848 2.65986 64.9948 3.60986 66.6348C4.55986 68.2848 5.71983 69.4948 7.07983 70.2848C8.44983 71.0748 9.59981 71.1948 10.5598 70.6448C11.5098 70.1048 11.9897 69.0548 11.9897 67.4848V65.6148L15.9998 67.9248L51.2197 88.2648V90.1348C51.2197 91.7048 51.6997 93.3048 52.6497 94.9448C53.5997 96.5948 54.7599 97.8048 56.1199 98.5948C57.4799 99.3848 58.6399 99.5048 59.5999 98.9648C60.5499 98.4148 61.0298 97.3648 61.0298 95.8048V73.5748C61.0298 73.1448 60.9598 72.7048 60.8298 72.2648ZM20.3699 57.5548C19.4099 58.0948 18.2499 57.9748 16.8899 57.1848C15.5299 56.4048 14.3697 55.1848 13.4197 53.5448C12.4597 51.8948 11.9897 50.2948 11.9897 48.7348C11.9897 47.1748 12.4597 46.1148 13.4197 45.5748C14.3697 45.0248 15.5299 45.1448 16.8899 45.9348C18.2499 46.7248 19.4099 47.9348 20.3699 49.5848C21.3199 51.2248 21.7998 52.8348 21.7998 54.3948C21.7998 55.9548 21.3199 57.0048 20.3699 57.5548ZM49.7898 74.5448C48.8298 75.0848 47.6798 74.9648 46.3098 74.1748C44.9498 73.3948 43.7898 72.1748 42.8398 70.5248C41.8898 68.8848 41.4097 67.2848 41.4097 65.7148C41.4097 64.1448 41.8898 63.1048 42.8398 62.5548C43.0698 62.4248 43.2998 62.3348 43.5498 62.2848C44.3498 62.1048 45.2698 62.3248 46.3098 62.9248C47.3598 63.5248 48.2698 64.3748 49.0798 65.4748C49.3298 65.8148 49.5598 66.1748 49.7898 66.5648C50.7398 68.2148 51.2197 69.8148 51.2197 71.3848C51.2197 72.9548 50.7398 73.9948 49.7898 74.5448Z" class="pr-icon-iso-solid-stroke" stroke-linejoin="round"/>
    <path d="M21.8003 54.3948C21.8003 55.9548 21.3204 57.0048 20.3704 57.5548C19.4104 58.0948 18.2504 57.9748 16.8904 57.1848C15.5304 56.4048 14.3702 55.1848 13.4202 53.5448C12.4602 51.8948 11.9902 50.2948 11.9902 48.7348C11.9902 47.1748 12.4602 46.1148 13.4202 45.5748C14.3702 45.0248 15.5304 45.1448 16.8904 45.9348C18.2504 46.7248 19.4104 47.9348 20.3704 49.5848C21.3204 51.2248 21.8003 52.8348 21.8003 54.3948Z" class="pr-icon-iso-solid-stroke" stroke-linejoin="round"/>
    <path d="M21.78 26.2548L11.3301 31.4748L14.77 22.1948L21.78 26.2548Z" class="pr-icon-iso-solid-stroke" stroke-linejoin="round"/>
    <path d="M81.03 63.5748V85.8048C81.03 87.3648 80.5501 88.4148 79.6001 88.9648L59.6001 98.9648C60.5501 98.4148 61.03 97.3648 61.03 95.8048V73.5748C61.03 73.1448 60.9601 72.7048 60.8301 72.2648C60.6301 71.6148 60.29 70.9548 59.8 70.2848C58.98 69.1548 58.1099 68.4848 57.1799 68.2648C56.1999 68.0048 55.22 67.6748 54.24 67.2648C53.26 66.8548 52.25 66.3548 51.22 65.7548C47.73 63.7448 44.4501 60.9848 41.3701 57.4848C38.2901 53.9948 35.66 50.0848 33.48 45.7648C33.16 45.0748 32.76 44.4648 32.3 43.9548C31.83 43.4348 31.3601 43.0348 30.8701 42.7448L22.1799 37.7348L11.3301 31.4748L21.78 26.2548L22.1799 26.4848L25.47 28.3848C26.29 28.8548 26.97 28.9048 27.52 28.5248L35.73 24.4248C35.16 26.0048 34.8701 27.8848 34.8701 30.0548C34.8701 31.7948 35.0499 33.5548 35.4199 35.3248C36.1199 38.8448 37.5399 42.4248 39.6499 46.0848C39.9199 46.5548 40.2 47.0148 40.5 47.4648C43.51 52.2648 47.09 55.8548 51.22 58.2548C55.11 60.5048 58.5099 61.1048 61.4099 60.0648C61.7399 59.9548 62.0701 59.8148 62.3801 59.6548L70.75 55.4648C70.91 55.5748 71.06 55.6648 71.22 55.7548C72.25 56.3548 73.26 56.8548 74.24 57.2648C75.22 57.6748 76.1999 58.0048 77.1799 58.2648C78.1099 58.4848 78.98 59.1548 79.8 60.2848C80.62 61.4148 81.03 62.5148 81.03 63.5748Z" class="pr-icon-iso-solid-stroke" stroke-linejoin="round"/>
    <path d="M29.99 3.80481L29.96 3.81481" class="pr-icon-iso-solid-stroke" stroke-linejoin="round"/>
    <path d="M15.9995 67.9249L10.5596 70.6449C11.5096 70.1049 11.9895 69.0549 11.9895 67.4849V65.6149L15.9995 67.9249Z" class="pr-icon-iso-solid-stroke" stroke-linejoin="round"/>
    <path d="M52.8501 31.0548V42.3148C52.8501 42.8148 52.6901 43.1548 52.3601 43.3448C52.0401 43.5248 51.65 43.4948 51.22 43.2448C50.78 42.9948 50.4001 42.5848 50.0701 42.0248C49.7501 41.4548 49.5801 40.9248 49.5801 40.4248V29.1748C49.5801 28.6748 49.7501 28.3248 50.0701 28.1448C50.4001 27.9548 50.78 27.9848 51.22 28.2348C51.65 28.4948 52.0401 28.8948 52.3601 29.4648C52.6901 30.0248 52.8501 30.5548 52.8501 31.0548Z" class="pr-icon-iso-solid-stroke" stroke-linejoin="round"/>
    <path d="M87.5593 38.9348C87.5593 44.1248 85.9693 47.6248 82.7793 49.4448L81.9692 49.8448L81.7793 49.9348L70.7493 55.4648L62.3794 59.6548C62.5194 59.5848 62.6493 59.5148 62.7793 59.4448C62.9493 59.3448 63.1093 59.2448 63.2693 59.1348C65.1593 57.8948 66.4293 55.9848 67.0593 53.4148C67.0993 53.2748 67.1292 53.1348 67.1592 52.9948C67.4292 51.7748 67.5593 50.4248 67.5593 48.9348C67.5593 47.7948 67.4793 46.6448 67.3193 45.4948C66.7793 41.3848 65.2693 37.1848 62.7793 32.9048C60.5493 29.0548 57.9894 25.9048 55.0994 23.4748C53.8694 22.4348 52.5692 21.5248 51.2192 20.7348C49.6792 19.8548 48.2294 19.2148 46.8594 18.8548C46.7494 18.8148 46.6393 18.7848 46.5293 18.7648C46.3893 18.7248 46.2494 18.6848 46.1194 18.6748C46.1094 18.6748 46.0994 18.6748 46.0894 18.6648C44.0894 18.2248 42.2594 18.3648 40.6094 19.0648L43.8494 17.4448L48.3694 15.1848L59.6094 9.56482C62.7694 7.70482 66.6392 8.09482 71.2192 10.7348C75.7392 13.3448 79.5993 17.4048 82.7793 22.9048C85.9693 28.3948 87.5593 33.7448 87.5593 38.9348Z" class="pr-icon-iso-solid-stroke" stroke-linejoin="round"/>
    <path d="M62.3796 59.6548L62.2295 59.7348" class="pr-icon-iso-solid-stroke" stroke-linejoin="round"/>
</svg>