<svg width="24" height="24" viewBox="0 0 99 91" xmlns="http://www.w3.org/2000/svg" stroke-width="1px" stroke-linecap="round" stroke-linejoin="round">
    <path d="M42.7197 37.7372C42.7197 41.9472 41.4098 44.7872 38.7998 46.2772C36.1898 47.7672 33.0499 47.4572 29.3799 45.3372C26.9299 43.9172 24.7097 41.9672 22.7297 39.4772C21.8897 38.4272 21.0898 37.2672 20.3298 36.0172C20.2098 35.8172 20.0897 35.6172 19.9697 35.4072C17.3597 30.9072 16.0498 26.5472 16.0498 22.3372C16.0498 18.1272 17.3597 15.2872 19.9697 13.7972L20.7998 13.3872C23.2298 12.3872 26.0999 12.8372 29.3799 14.7372C33.0499 16.8572 36.1898 20.1672 38.7998 24.6672C41.0098 28.4872 42.2899 32.1872 42.6199 35.7872C42.6899 36.4372 42.7197 37.0872 42.7197 37.7372Z" class="pr-icon-iso-solid-stroke" stroke-linejoin="round"/>
    <path d="M76.0496 71.3572V73.6872C76.0496 75.7872 75.3996 77.2072 74.0896 77.9572L73.6794 78.1572L54.0896 87.9572C55.3996 87.2072 56.0496 85.7872 56.0496 83.6872V80.6272C56.0496 78.5172 55.5796 76.2672 54.6296 73.8772C53.6896 71.4872 52.3795 69.3272 50.7195 67.4072C50.3095 66.9372 49.8895 66.4572 49.4695 65.9872C46.9495 63.1772 44.1796 60.4072 41.1296 57.6672C37.5796 54.4672 33.6596 51.6372 29.3796 49.1672C27.2296 47.9172 25.1595 46.8772 23.1895 46.0272C21.2495 45.1872 19.3896 44.5472 17.6296 44.0972C14.0796 43.1972 10.8796 42.7572 8.04956 42.7772C7.27956 42.7772 6.58949 42.9072 5.97949 43.1872L20.3296 36.0172C21.0896 37.2672 21.8895 38.4272 22.7295 39.4772C24.7095 41.9672 26.9296 43.9172 29.3796 45.3372C33.0496 47.4572 36.1896 47.7672 38.7996 46.2772L49.3896 40.9872C49.3796 41.1872 49.3796 41.3872 49.3796 41.5872C49.3796 46.7472 50.2996 52.1572 52.1296 57.8072C53.5796 62.2572 55.4194 66.5672 57.6694 70.7272C58.2594 71.8372 58.8896 72.9472 59.5496 74.0372C59.8796 74.6172 60.2695 75.1372 60.7195 75.6172C61.1595 76.0972 61.6296 76.4872 62.1296 76.7772C63.1296 77.3472 63.9995 77.4372 64.7195 77.0172L66.7795 75.9872L76.0496 71.3572Z" class="pr-icon-iso-solid-stroke" stroke-linejoin="round"/>
    <path d="M56.0498 80.6273V83.6873C56.0498 85.7873 55.3998 87.2073 54.0898 87.9573C52.7898 88.6973 51.2199 88.5473 49.3799 87.4873L9.37988 64.3873C7.54988 63.3373 5.97969 61.6773 4.67969 59.4273C3.36969 57.1773 2.71973 54.9973 2.71973 52.8873V49.8273C2.71973 47.7273 3.18988 46.0273 4.12988 44.7173C4.63988 44.0173 5.25974 43.5073 5.97974 43.1873C6.58974 42.9073 7.2798 42.7773 8.0498 42.7773C10.8798 42.7573 14.0799 43.1973 17.6299 44.0973C19.3899 44.5473 21.2497 45.1873 23.1897 46.0273C25.1597 46.8773 27.2299 47.9173 29.3799 49.1673C33.6599 51.6373 37.5799 54.4673 41.1299 57.6673C44.1799 60.4073 46.9497 63.1773 49.4697 65.9873C49.8897 66.4573 50.3097 66.9373 50.7197 67.4073C52.3797 69.3273 53.6899 71.4873 54.6299 73.8773C55.5799 76.2673 56.0498 78.5173 56.0498 80.6273Z" class="pr-icon-iso-solid-stroke" stroke-linejoin="round"/>
    <path d="M61.2898 19.9973L59.5498 20.8673C56.4398 22.4573 53.9699 25.0073 52.1299 28.5473C51.0599 30.6173 50.2999 32.9673 49.8599 35.5973C49.6599 36.7473 49.5197 37.9473 49.4497 39.2073C49.4097 39.7873 49.3899 40.3673 49.3899 40.9773L38.7998 46.2773C41.4098 44.7873 42.7197 41.9473 42.7197 37.7373C42.7197 37.0873 42.6899 36.4373 42.6199 35.7873C42.2899 32.1873 41.0098 28.4873 38.7998 24.6673C36.1898 20.1673 33.0499 16.8573 29.3799 14.7373C26.0999 12.8373 23.2298 12.3873 20.7998 13.3873L39.9697 3.79726C42.5797 2.30726 45.7199 2.61725 49.3799 4.73725C53.0499 6.85725 56.1898 10.1673 58.7998 14.6673C59.8398 16.4673 60.6798 18.2373 61.2898 19.9973Z" class="pr-icon-iso-solid-stroke" stroke-linejoin="round"/>
    <path d="M83.2097 67.2073L85.5698 66.0273C85.3898 66.4673 85.1097 66.7973 84.7197 67.0173L84.4597 67.1473L76.0498 71.3573L66.7798 75.9873L64.7197 77.0173C65.2797 76.6973 65.6197 76.1573 65.7397 75.3873C65.7797 75.1773 65.7998 74.9373 65.7998 74.6873C65.7998 74.0473 65.6897 73.3873 65.4697 72.7173C65.2497 72.0473 64.9398 71.4073 64.5498 70.8073C62.1598 66.8173 60.2897 62.6673 58.9297 58.3773C57.5597 54.0873 56.8799 49.9273 56.8799 45.9173C56.8799 45.3273 56.8997 44.7473 56.9297 44.1873C57.0897 41.1173 57.7098 38.4873 58.7798 36.2873C58.8298 36.1573 58.8997 36.0173 58.9697 35.8873C59.8597 34.1773 60.9497 32.7673 62.2397 31.6573C62.9697 31.0073 63.7699 30.4673 64.6299 30.0173C65.0199 29.8673 65.3298 29.5773 65.5498 29.1673C65.7698 28.7473 65.8799 28.2273 65.8799 27.5873C65.8799 26.3773 65.5198 25.1473 64.7998 23.9073C64.0798 22.6573 63.1899 21.7273 62.1299 21.1173C61.9499 21.0073 61.7698 20.9173 61.5898 20.8573C61.2898 20.7273 60.9997 20.6573 60.7197 20.6373C60.3697 20.6173 60.0498 20.6473 59.7698 20.7573L79.5498 10.8673C79.8798 10.6773 80.2697 10.6073 80.7197 10.6373C81.1597 10.6673 81.6299 10.8273 82.1299 11.1173C83.1899 11.7273 84.0798 12.6573 84.7998 13.9073C85.5198 15.1473 85.8799 16.3773 85.8799 17.5873C85.8799 18.2273 85.7698 18.7473 85.5498 19.1673C85.3298 19.5773 85.0199 19.8673 84.6299 20.0173C82.2499 21.2573 80.3597 23.2073 78.9697 25.8873C77.5797 28.5573 76.8799 31.8973 76.8799 35.9173V35.9373L70.4197 39.1673L70.2197 39.2673C70.1597 39.2973 70.0998 39.3273 70.0398 39.3573C68.3398 40.1773 67.0198 41.5073 66.0498 43.3173C65.0498 45.1973 64.5498 47.5373 64.5498 50.3373C64.5498 50.5173 64.5498 50.6973 64.5498 50.8773C64.6098 53.5173 65.0998 56.2573 66.0398 59.0973C67.0398 62.1273 68.4297 65.0773 70.2097 67.9573C70.5397 68.5273 70.9397 69.0673 71.4197 69.5673C71.8897 70.0573 72.3699 70.4473 72.8699 70.7373C73.9299 71.3473 74.8198 71.4473 75.5398 71.0373L76.0398 70.7873L83.1997 67.2073H83.2097Z" class="pr-icon-iso-solid-stroke" stroke-linejoin="round"/>
    <path d="M65.4697 72.7172C65.6897 73.3872 65.7998 74.0472 65.7998 74.6872C65.7998 74.9372 65.7797 75.1772 65.7397 75.3872C65.6197 76.1572 65.2797 76.6973 64.7197 77.0173C63.9997 77.4373 63.1299 77.3472 62.1299 76.7772C61.6299 76.4872 61.1597 76.0973 60.7197 75.6173C60.2697 75.1373 59.8798 74.6172 59.5498 74.0372C58.8898 72.9472 58.2597 71.8372 57.6697 70.7272C55.4197 66.5672 53.5799 62.2572 52.1299 57.8072C50.2999 52.1572 49.3799 46.7472 49.3799 41.5872C49.3799 41.3872 49.3799 41.1872 49.3899 40.9872C49.3899 40.3672 49.4097 39.7872 49.4497 39.2072C49.5197 37.9472 49.6599 36.7472 49.8599 35.5972C50.2999 32.9672 51.0599 30.6173 52.1299 28.5473C53.9699 25.0073 56.4398 22.4572 59.5498 20.8672L59.7698 20.7572C60.0498 20.6472 60.3697 20.6172 60.7197 20.6372C60.9997 20.6572 61.2898 20.7273 61.5898 20.8573C61.7698 20.9173 61.9499 21.0072 62.1299 21.1172C63.1899 21.7272 64.0798 22.6573 64.7998 23.9073C65.5198 25.1473 65.8799 26.3772 65.8799 27.5872C65.8799 28.2272 65.7698 28.7472 65.5498 29.1672C65.3298 29.5772 65.0199 29.8673 64.6299 30.0173C63.7699 30.4673 62.9697 31.0073 62.2397 31.6573C60.9497 32.7673 59.8597 34.1772 58.9697 35.8872C58.8997 36.0172 58.8298 36.1572 58.7798 36.2872C57.7098 38.4872 57.0897 41.1173 56.9297 44.1873C56.8997 44.7473 56.8799 45.3272 56.8799 45.9172C56.8799 49.9272 57.5597 54.0872 58.9297 58.3772C60.2897 62.6672 62.1598 66.8172 64.5498 70.8072C64.9398 71.4072 65.2497 72.0472 65.4697 72.7172Z" class="pr-icon-iso-solid-stroke" stroke-linejoin="round"/>
    <path d="M76.3396 66.6673C76.5396 67.3173 76.6296 67.9673 76.6296 68.5973C76.6296 69.4873 76.4396 70.1573 76.0496 70.6173C75.9096 70.7873 75.7396 70.9273 75.5496 71.0373C74.8296 71.4473 73.9396 71.3473 72.8796 70.7373C72.3796 70.4473 71.8994 70.0573 71.4294 69.5673C70.9494 69.0673 70.5495 68.5273 70.2195 67.9573C68.4395 65.0773 67.0496 62.1273 66.0496 59.0973C65.1096 56.2573 64.6196 53.5173 64.5596 50.8773C64.5596 50.6973 64.5596 50.5173 64.5596 50.3373C64.5596 47.5373 65.0596 45.1973 66.0596 43.3173C67.0296 41.5073 68.3496 40.1773 70.0496 39.3573C70.1096 39.3273 70.1695 39.2973 70.2295 39.2673L70.4294 39.1673C70.7194 39.0573 71.0595 39.0173 71.4395 39.0573C71.9095 39.1073 72.3896 39.2773 72.8896 39.5673C73.9496 40.1773 74.8396 41.1073 75.5596 42.3473C76.2796 43.5973 76.6396 44.8273 76.6396 46.0373C76.6396 46.6073 76.5496 47.1073 76.3496 47.5373C76.1596 47.9673 75.8896 48.2773 75.5596 48.4673C74.5696 49.0273 73.7797 49.7773 73.1597 50.7273C73.1497 50.7273 73.1496 50.7473 73.1396 50.7573C72.5296 51.7073 72.2295 53.0473 72.2295 54.7673C72.2295 56.3573 72.5196 57.9973 73.0996 59.6673C73.6896 61.3473 74.4496 62.9973 75.3896 64.6273C75.8396 65.3273 76.1596 66.0073 76.3496 66.6673H76.3396Z" class="pr-icon-iso-solid-stroke" stroke-linejoin="round"/>
    <path d="M96.3401 56.6673C96.5401 57.3173 96.6301 57.9672 96.6301 58.5972C96.6301 59.8172 96.27 60.6272 95.55 61.0372L95.3301 61.1472L83.21 67.2072L76.05 70.7872L75.55 71.0372C75.74 70.9272 75.91 70.7872 76.05 70.6272C76.44 70.1572 76.6301 69.4872 76.6301 68.5972C76.6301 67.9672 76.5401 67.3173 76.3401 66.6673C76.1501 66.0073 75.8301 65.3272 75.3801 64.6272C74.4401 62.9972 73.6801 61.3473 73.0901 59.6673C72.5101 57.9973 72.22 56.3573 72.22 54.7673C72.22 53.0473 72.5201 51.7072 73.1301 50.7572C73.1401 50.7472 73.1401 50.7372 73.1501 50.7272C73.7701 49.7772 74.56 49.0273 75.55 48.4673C75.88 48.2773 76.1501 47.9672 76.3401 47.5372C76.5401 47.1072 76.6301 46.6072 76.6301 46.0372C76.6301 44.8272 76.27 43.5972 75.55 42.3472C74.83 41.1072 73.9401 40.1772 72.8801 39.5672C72.3801 39.2772 71.8999 39.1073 71.4299 39.0573C71.0499 39.0173 70.7099 39.0573 70.4199 39.1673L76.8801 35.9373L89.5701 29.5972L90.22 29.2673C90.55 29.0773 90.9499 29.0073 91.4299 29.0573C91.8999 29.1073 92.3801 29.2772 92.8801 29.5672C93.9401 30.1772 94.83 31.1072 95.55 32.3472C96.27 33.5972 96.6301 34.8272 96.6301 36.0372C96.6301 36.6072 96.5401 37.1072 96.3401 37.5372C96.1501 37.9672 95.88 38.2773 95.55 38.4673C94.55 39.0373 93.7501 39.7972 93.1301 40.7572C92.5201 41.7072 92.22 43.0473 92.22 44.7673C92.22 46.3573 92.5101 47.9973 93.0901 49.6673C93.6801 51.3473 94.4401 52.9972 95.3801 54.6272C95.8301 55.3272 96.1501 56.0073 96.3401 56.6673Z" class="pr-icon-iso-solid-stroke" stroke-linejoin="round"/>
</svg>