<svg width="24" height="24" viewBox="0 0 119 105" xmlns="http://www.w3.org/2000/svg" stroke-width="1px" stroke-linecap="round" stroke-linejoin="round">
    <path d="M44.7797 16.5801L43.1797 17.3801C43.8897 17.0901 44.7297 17.23 45.7197 17.8L45.7597 17.8201L44.7797 16.5801Z" class="pr-icon-iso-solid-stroke" stroke-linejoin="round"/>
    <path d="M40.4194 11.06L33.5494 14.5L20.4194 21.06L5.81943 12.6401C5.05943 12.2001 4.41941 12.08 3.89941 12.3L23.7294 2.38005C24.2794 2.06005 24.9794 2.15006 25.8194 2.64006L40.4194 11.06Z" class="pr-icon-iso-solid-stroke" stroke-linejoin="round"/>
    <path d="M83.8293 30.32L63.8293 40.32L57.9893 28.35C57.2693 26.89 56.3793 25.54 55.3093 24.29C55.2493 24.23 55.1993 24.16 55.1393 24.1C54.1193 22.94 53.0293 22.0201 51.8493 21.3401L45.7593 17.82L44.7793 16.58L62.9493 7.49002C63.6993 7.06002 64.6193 7.17001 65.7193 7.80001L71.8493 11.3401C73.0893 12.0601 74.2393 13.04 75.3093 14.29C76.3793 15.54 77.2693 16.89 77.9893 18.35L83.8293 30.32Z" class="pr-icon-iso-solid-stroke" stroke-linejoin="round"/>
    <path d="M96.8691 33.9401V41.42C96.8691 42.01 96.6691 42.4201 96.2791 42.6501L76.2791 52.6501C76.6691 52.4201 76.8691 52.01 76.8691 51.42V43.9401C76.8691 43.1201 76.5591 42.3101 75.9391 41.5001C75.3291 40.7001 74.6891 40.3 74.0391 40.3L63.8291 40.3201L83.8291 30.3201L94.0391 30.3C94.6891 30.3 95.3291 30.7001 95.9391 31.5001C96.5591 32.3101 96.8691 33.1201 96.8691 33.9401Z" class="pr-icon-iso-solid-stroke" stroke-linejoin="round"/>
    <path d="M94.7292 52.69L87.0592 56.53L77.5592 61.28L74.7292 62.69L67.9092 48.48L74.9192 52.53C75.4392 52.83 75.8892 52.87 76.2792 52.65L91.1392 45.22L94.7292 52.69Z" class="pr-icon-iso-solid-stroke" stroke-linejoin="round"/>
    <path d="M88.5397 87.2001C88.5397 89.6501 87.7798 91.3201 86.2598 92.1901C84.7298 93.0601 82.8998 92.8701 80.7598 91.6401C78.6198 90.4001 76.7898 88.4701 75.2598 85.8401C73.7398 83.2101 72.9697 80.6601 72.9697 78.2101C72.9697 75.7601 73.7398 74.0901 75.2598 73.2201C76.7898 72.3501 78.6198 72.5301 80.7598 73.7701C82.8998 75.0001 84.7298 76.9401 86.2598 79.5701C87.7798 82.2001 88.5397 84.7401 88.5397 87.2001Z" class="pr-icon-iso-solid-stroke" stroke-linejoin="round"/>
    <path d="M57.9894 42.7501L47.1794 36.5201C46.6594 36.2201 46.1794 35.9901 45.7194 35.8401C45.4794 35.7601 45.2394 35.6801 44.9894 35.6201C44.7794 35.5501 44.5694 35.5001 44.3594 35.4401L30.7595 33.47L30.1494 33.3801L30.7294 33.0901L39.6794 28.6201L44.7794 26.0701C45.0694 26.3301 45.3894 26.5501 45.7194 26.7401L51.9495 30.3301L57.9894 42.7501Z" class="pr-icon-iso-solid-stroke" stroke-linejoin="round"/>
    <path d="M44.7789 26.0701L39.679 28.6201L30.7289 33.0901L30.1489 33.3801L23.1689 24.54L20.569 21.2501L20.4189 21.0601L33.549 14.5001L40.4189 11.0601L44.7789 16.5801L43.179 17.3801L42.949 17.4901C42.199 17.9101 41.829 18.7601 41.829 20.0201C41.829 21.2801 42.199 22.57 42.949 23.85C43.469 24.75 44.0789 25.4901 44.7789 26.0701Z" class="pr-icon-iso-solid-stroke" stroke-linejoin="round"/>
    <path d="M68.6898 64.57C67.5898 65.57 66.7297 66.84 66.1097 68.38C66.0197 68.6 65.9398 68.81 65.8798 69.04L54.2598 74.95C54.4098 74.85 54.5497 74.73 54.6797 74.57L66.0297 61.58L66.7397 60.76L67.6298 62.51L68.6898 64.57Z" class="pr-icon-iso-solid-stroke" stroke-linejoin="round"/>
    <path d="M37.1991 61.8201L29.0791 65.8801C32.0691 64.3601 33.7191 61.3501 34.0391 56.8501L37.1991 61.8201Z" class="pr-icon-iso-solid-stroke" stroke-linejoin="round"/>
    <path d="M116.33 81.6899C116.33 86.6099 114.81 89.9299 111.76 91.6699L91.7595 101.67C94.8095 99.9299 96.3295 96.6099 96.3295 91.6899C96.3295 90.0999 96.1695 88.4999 95.8495 86.8699C95.1895 83.4699 93.8195 79.9899 91.7595 76.4299C89.9495 73.3099 87.9195 70.6799 85.6795 68.5499C84.1395 67.0799 82.4995 65.84 80.7595 64.83C79.7195 64.24 78.6995 63.76 77.6895 63.4C77.1595 63.21 76.6295 63.0499 76.0995 62.9399C75.6395 62.8299 75.1795 62.7499 74.7295 62.6899L77.5595 61.2799L87.0595 56.5299L94.7295 52.6899C95.6995 52.8099 96.6895 53.04 97.6895 53.4C98.6995 53.76 99.7195 54.24 100.76 54.83C105.04 57.31 108.71 61.1699 111.76 66.4299C114.81 71.6899 116.33 76.7799 116.33 81.6899Z" class="pr-icon-iso-solid-stroke" stroke-linejoin="round"/>
    <path d="M95.8494 86.8701C95.1894 83.4701 93.8194 79.9901 91.7594 76.4301C89.9494 73.3101 87.9194 70.6801 85.6794 68.5501C84.1394 67.0801 82.4994 65.8401 80.7594 64.8301C79.7194 64.2401 78.6994 63.7601 77.6894 63.4001C77.1594 63.2101 76.6294 63.0501 76.0994 62.9401C75.6394 62.8301 75.1794 62.7501 74.7294 62.6901L67.9094 48.4801L74.9194 52.5301C75.4394 52.8301 75.8894 52.8701 76.2794 52.6501C76.6694 52.4201 76.8694 52.0101 76.8694 51.4201V43.9401C76.8694 43.1201 76.5594 42.3101 75.9394 41.5001C75.3294 40.7001 74.6894 40.3001 74.0394 40.3001L63.8294 40.3201L57.9894 28.3501C57.2694 26.8901 56.3794 25.5401 55.3094 24.2901C55.2494 24.2301 55.1994 24.1601 55.1394 24.1001C54.1194 22.9401 53.0294 22.0201 51.8494 21.3401L45.7594 17.8201L45.7194 17.8001C44.7294 17.2301 43.8894 17.0901 43.1794 17.3801L42.9494 17.4901C42.1994 17.9101 41.8294 18.7601 41.8294 20.0201C41.8294 21.2801 42.1994 22.5701 42.9494 23.8501C43.4694 24.7501 44.0794 25.4901 44.7794 26.0701C45.0694 26.3301 45.3894 26.5501 45.7194 26.7401L51.9494 30.3301L57.9894 42.7501L47.1794 36.5201C46.6594 36.2201 46.1794 35.9901 45.7194 35.8401C45.4794 35.7601 45.2394 35.6801 44.9894 35.6201C44.7794 35.5501 44.5694 35.5001 44.3594 35.4401L30.7594 33.4701L30.1494 33.3801L23.1694 24.5401L20.5694 21.2501L20.4194 21.0601L5.81943 12.6401C5.05943 12.2001 4.41941 12.0801 3.89941 12.3001L3.7294 12.3801C3.1794 12.6901 2.89941 13.3301 2.89941 14.3001C2.89941 15.2701 3.1794 16.2301 3.7294 17.1801C4.2794 18.1301 4.97943 18.8501 5.81943 19.3401L12.8294 23.3801L13.6794 24.7101L15.5494 27.6301C12.6894 26.6101 10.2194 26.5601 8.14941 27.4801L7.46942 27.8201C7.11942 28.0201 6.7794 28.2601 6.4494 28.5201C4.0894 30.4301 2.89941 33.5101 2.89941 37.7501C2.89941 42.6701 4.4294 47.7501 7.4794 53.0101C10.5294 58.2701 14.1894 62.1401 18.4694 64.6101C22.5594 66.9701 26.0994 67.3901 29.0794 65.8801C32.0694 64.3601 33.7194 61.3501 34.0394 56.8501L37.1994 61.8201L40.7594 67.4301C41.0794 67.9901 41.4594 68.4801 41.8794 68.9101C42.2994 69.3401 42.7694 69.7001 43.2894 70.0001L51.4694 74.7201C52.1094 75.1001 52.7294 75.2701 53.3094 75.2301C53.6094 75.2201 53.8694 75.1501 54.0894 75.0401L54.2594 74.9501C54.4094 74.8501 54.5494 74.7301 54.6794 74.5701L66.0294 61.5801L66.7394 60.7601L67.6294 62.5101L68.6894 64.5701C67.5894 65.5701 66.7294 66.8401 66.1094 68.3801C66.0194 68.6001 65.9394 68.8101 65.8794 69.0401C65.4194 70.4401 65.1894 71.9801 65.1894 73.7101C65.1894 78.6301 66.7094 83.7101 69.7594 88.9701C72.8094 94.2301 76.4794 98.1001 80.7594 100.57C85.0394 103.04 88.7094 103.41 91.7594 101.67C94.8094 99.9301 96.3294 96.6101 96.3294 91.6901C96.3294 90.1001 96.1694 88.5001 95.8494 86.8701ZM23.9694 56.2301C22.4494 57.1001 20.6094 56.9101 18.4694 55.6801C16.3294 54.4401 14.4994 52.5101 12.9694 49.8801C11.4494 47.2501 10.6894 44.7001 10.6894 42.2501C10.6894 39.8001 11.4494 38.1301 12.9694 37.2601C14.4994 36.3901 16.3294 36.5701 18.4694 37.8101C20.6094 39.0401 22.4494 40.9801 23.9694 43.6101C25.4994 46.2401 26.2594 48.7801 26.2594 51.2401C26.2594 53.7001 25.4994 55.3601 23.9694 56.2301ZM86.2594 92.1901C84.7294 93.0601 82.8994 92.8701 80.7594 91.6401C78.6194 90.4001 76.7894 88.4701 75.2594 85.8401C73.7394 83.2101 72.9694 80.6601 72.9694 78.2101C72.9694 75.7601 73.7394 74.0901 75.2594 73.2201C76.7894 72.3501 78.6194 72.5301 80.7594 73.7701C82.8994 75.0001 84.7294 76.9401 86.2594 79.5701C87.7794 82.2001 88.5394 84.7401 88.5394 87.2001C88.5394 89.6601 87.7794 91.3201 86.2594 92.1901Z" class="pr-icon-iso-solid-stroke" stroke-linejoin="round"/>
    <path d="M26.2595 51.2401C26.2595 53.6901 25.4994 55.3601 23.9694 56.2301C22.4494 57.1001 20.6094 56.9101 18.4694 55.6801C16.3294 54.4401 14.4995 52.5101 12.9695 49.8801C11.4495 47.2501 10.6895 44.7001 10.6895 42.2501C10.6895 39.8001 11.4495 38.1302 12.9695 37.2602C14.4995 36.3902 16.3294 36.5701 18.4694 37.8101C20.6094 39.0401 22.4494 40.9801 23.9694 43.6101C25.4994 46.2401 26.2595 48.7801 26.2595 51.2401Z" class="pr-icon-iso-solid-stroke" stroke-linejoin="round"/>
    <path d="M15.5494 27.6299C12.6894 26.6099 10.2194 26.5599 8.14941 27.4799L13.6794 24.71L15.5494 27.6299Z" class="pr-icon-iso-solid-stroke" stroke-linejoin="round"/>
</svg>