<svg width="48" height="48" viewBox="0 0 102 115" fill="#229EFF" xmlns="http://www.w3.org/2000/svg" stroke-width="1px" stroke-linecap="round" stroke-linejoin="round"><path d="M60.6713 64.7403C60.6713 66.5903 60.2413 67.9803 59.3613 68.9203C59.0913 69.2103 58.7713 69.4603 58.4113 69.6703C56.9013 70.5303 55.0913 70.3503 52.9713 69.1303C50.8613 67.9103 49.0513 66.0003 47.5413 63.4003C46.0313 60.8003 45.2812 58.2803 45.2812 55.8603C45.2812 54.4503 45.5313 53.3003 46.0513 52.4203C46.4113 51.7803 46.9113 51.2803 47.5413 50.9203C48.2513 50.5103 49.0412 50.3403 49.8812 50.4103C50.8312 50.4703 51.8613 50.8304 52.9713 51.4704C55.0913 52.6904 56.9013 54.6004 58.4113 57.2004C59.0713 58.3404 59.5912 59.4604 59.9512 60.5604C60.4312 61.9804 60.6713 63.3703 60.6713 64.7403Z" stroke="white" stroke-linejoin="round"/><path d="M79.3612 58.9204C78.9812 57.6604 78.4112 56.3705 77.6512 55.0605C76.1412 52.4605 74.3312 50.5505 72.2112 49.3305L65.3012 45.3405L40.2712 30.8904L38.7212 29.9904L34.4912 27.5504L22.9512 20.8804L10.6512 13.7804C8.53118 12.5604 6.72118 12.3804 5.21118 13.2404C3.70118 14.1004 2.95117 15.7404 2.95117 18.1704V62.3305C2.95117 64.7505 3.70118 67.2704 5.21118 69.8704C6.72118 72.4704 8.53118 74.3805 10.6512 75.6005L72.2112 111.15C74.3312 112.37 76.1412 112.55 77.6512 111.69C79.1612 110.83 79.9112 109.19 79.9112 106.76V62.6005C79.9112 61.3905 79.7312 60.1704 79.3612 58.9204ZM22.9612 44.0705L26.0512 45.8505C27.1412 46.4805 28.0512 47.4305 28.7912 48.7005C28.8412 48.7905 28.8912 48.8705 28.9312 48.9605C29.4512 49.9205 29.7612 50.8705 29.8612 51.8105C29.8912 52.0405 29.9012 52.2604 29.9012 52.4904V60.2205C29.9012 61.4705 29.5312 62.3005 28.7912 62.7205C28.3912 62.9505 27.9412 63.0205 27.4412 62.9405C27.0112 62.8805 26.5512 62.7004 26.0512 62.4104L17.3912 57.4104C16.5612 56.9304 15.8712 56.2204 15.3212 55.2804C14.7812 54.3404 14.5012 53.3904 14.5012 52.4304C14.5012 51.4704 14.7812 50.8404 15.3212 50.5304C15.8712 50.2204 16.5612 50.3104 17.3912 50.7904L23.0912 54.0905L24.1212 54.6804V51.3604L22.9612 50.6905L17.3912 47.4805C16.5612 46.9905 15.8712 46.2805 15.3212 45.3405C14.7812 44.4005 14.5012 43.4504 14.5012 42.5004V32.5604C14.5012 31.6104 14.7812 30.9704 15.3212 30.6604C15.8712 30.3504 16.5612 30.4404 17.3912 30.9204L22.9612 34.1304L26.4312 36.1404L27.0112 36.4705C27.8412 36.9505 28.5312 37.6605 29.0812 38.6005C29.6212 39.5405 29.9012 40.4905 29.9012 41.4505C29.9012 42.4105 29.6212 43.0405 29.0812 43.3505C28.5312 43.6605 27.8412 43.5805 27.0112 43.0905L22.9612 40.7604L20.2812 39.2105V42.5204L22.9612 44.0705ZM46.0512 52.4204C46.4112 51.7804 46.9112 51.2804 47.5412 50.9204C48.2512 50.5104 49.0412 50.3404 49.8812 50.4104C50.8312 50.4704 51.8612 50.8305 52.9712 51.4705C55.0912 52.6905 56.9012 54.6005 58.4112 57.2005C59.0712 58.3405 59.5912 59.4605 59.9512 60.5605C60.4312 61.9805 60.6712 63.3704 60.6712 64.7404C60.6712 66.5904 60.2412 67.9804 59.3612 68.9204C59.0912 69.2104 58.7712 69.4604 58.4112 69.6704C56.9012 70.5304 55.0912 70.3504 52.9712 69.1304C50.8612 67.9104 49.0512 66.0004 47.5412 63.4004C46.0312 60.8004 45.2812 58.2804 45.2812 55.8604C45.2812 54.4504 45.5312 53.3004 46.0512 52.4204ZM68.3812 93.4705C68.3812 94.0605 68.1812 94.4604 67.8012 94.6804C67.4112 94.9004 66.9612 94.8605 66.4512 94.5705L39.5212 79.0204C39.0012 78.7204 38.5512 78.2405 38.1712 77.5805C37.7812 76.9105 37.5912 76.2905 37.5912 75.7005V75.4805C37.5912 73.1905 38.2612 71.6204 39.6012 70.7604C40.2012 70.3704 40.9412 70.1304 41.8212 70.0304C44.6512 69.7104 48.3712 70.8804 52.9812 73.5504C57.6012 76.2104 61.3212 79.3304 64.1412 82.9104C65.0212 84.0304 65.7612 85.1305 66.3612 86.2205C67.7112 88.6305 68.3812 90.9704 68.3812 93.2504V93.4705Z" stroke="white" stroke-linejoin="round"/><path d="M29.9012 52.4903V60.2204C29.9012 61.4704 29.5313 62.3004 28.7913 62.7204C28.3913 62.9504 27.9412 63.0204 27.4412 62.9404C27.0112 62.8804 26.5513 62.7004 26.0513 62.4104L17.3912 57.4104C16.5612 56.9304 15.8712 56.2204 15.3212 55.2804C14.7812 54.3404 14.5012 53.3904 14.5012 52.4304C14.5012 51.4704 14.7812 50.8404 15.3212 50.5304C15.8712 50.2204 16.5612 50.3104 17.3912 50.7904L23.0912 54.0904L24.1212 54.6804L29.8613 51.8104C29.8913 52.0404 29.9012 52.2603 29.9012 52.4903Z" stroke="white" stroke-linejoin="round"/><path d="M29.8513 51.8104L24.1113 54.6804V51.3604L28.9213 48.9604C29.4413 49.9204 29.7513 50.8704 29.8513 51.8104Z" stroke="white" stroke-linejoin="round"/><path d="M28.9212 48.9603L24.1112 51.3602L22.9512 50.6903L17.3812 47.4803C16.5512 46.9903 15.8612 46.2803 15.3112 45.3403C14.7712 44.4003 14.4912 43.4502 14.4912 42.5002V32.5603C14.4912 31.6103 14.7712 30.9703 15.3112 30.6603C15.8612 30.3503 16.5512 30.4403 17.3812 30.9203L22.9512 34.1302L26.4212 36.1402L22.9512 37.8702L20.2712 39.2103V42.5202L22.9512 44.0703L26.0412 45.8503C27.1312 46.4803 28.0412 47.4303 28.7812 48.7003C28.8312 48.7903 28.8812 48.8703 28.9212 48.9603Z" stroke="white" stroke-linejoin="round"/><path d="M29.9012 41.4507C29.9012 42.4107 29.6212 43.0407 29.0812 43.3507C28.5312 43.6607 27.8412 43.5807 27.0112 43.0907L22.9612 40.7606L20.2812 39.2107L22.9612 37.8706L26.4312 36.1406L27.0112 36.4707C27.8412 36.9507 28.5312 37.6607 29.0812 38.6007C29.6212 39.5407 29.9012 40.4907 29.9012 41.4507Z" stroke="white" stroke-linejoin="round"/><path d="M68.3813 93.2505V93.4706C68.3813 94.0606 68.1813 94.4606 67.8013 94.6806C67.4113 94.9006 66.9613 94.8606 66.4513 94.5706L39.5213 79.0205C39.0013 78.7205 38.5513 78.2406 38.1713 77.5806C37.7813 76.9106 37.5913 76.2906 37.5913 75.7006V75.4806C37.5913 73.1906 38.2613 71.6205 39.6013 70.7605C40.2013 70.3705 40.9413 70.1305 41.8213 70.0305C44.6513 69.7105 48.3713 70.8806 52.9813 73.5506C57.6013 76.2106 61.3213 79.3305 64.1413 82.9105C65.0213 84.0305 65.7613 85.1306 66.3613 86.2206C67.7113 88.6306 68.3813 90.9705 68.3813 93.2505Z" stroke="white" stroke-linejoin="round"/><path d="M99.9212 52.6005V96.7604C99.9212 99.1904 99.1712 100.83 97.6612 101.69L77.6612 111.69C79.1712 110.83 79.9212 109.19 79.9212 106.76V62.6005C79.9212 61.3905 79.7412 60.1704 79.3712 58.9204C78.9912 57.6604 78.4212 56.3705 77.6612 55.0605C76.1512 52.4605 74.3412 50.5505 72.2212 49.3305L65.3112 45.3405L40.2812 30.8904L38.7312 29.9904L34.5012 27.5504L22.9612 20.8804L10.6612 13.7804C8.54119 12.5604 6.73119 12.3804 5.22119 13.2404L25.2212 3.24038C26.7312 2.38038 28.5412 2.56042 30.6612 3.78042L92.2212 39.3305C94.3412 40.5505 96.1512 42.4605 97.6612 45.0605C99.1712 47.6605 99.9212 50.1705 99.9212 52.6005Z" stroke="white" stroke-linejoin="round"/></svg>