<svg width="48" height="48" viewBox="0 0 88 118" fill="#229EFF" xmlns="http://www.w3.org/2000/svg" stroke-width="1px" stroke-linecap="round" stroke-linejoin="round"><path d="M44.5696 69.9201C44.5696 71.0601 44.2396 71.8201 43.5696 72.2001C42.8996 72.5901 42.0596 72.4901 41.0696 71.9201L27.0696 63.8301C26.0696 63.2601 25.2396 62.3901 24.5696 61.2401C23.8996 60.0801 23.5596 58.9301 23.5596 57.7901C23.5596 56.6501 23.8996 55.8901 24.5696 55.5101C25.2396 55.1301 26.0696 55.2201 27.0696 55.8001L33.2696 59.3801L41.0696 63.8801C42.0596 64.4501 42.8996 65.3201 43.5696 66.4801C43.9296 67.1001 44.1996 67.7201 44.3596 68.3401C44.4996 68.8701 44.5696 69.4001 44.5696 69.9201Z" stroke="white" stroke-linejoin="round"/><path d="M63.6898 47.3501C63.6398 47.2601 63.5898 47.1601 63.5298 47.0601C62.1498 44.7001 60.5098 42.9601 58.5798 41.8501L54.2898 39.3701L22.5498 21.0401L9.55981 13.5401C7.62981 12.4301 5.9798 12.2701 4.6098 13.0501C3.2398 13.8301 2.5498 15.3301 2.5498 17.5301V73.7901C2.5498 76.0001 3.2398 78.2901 4.6098 80.6501C5.9798 83.0201 7.62981 84.7601 9.55981 85.8701L58.5798 114.17C60.5098 115.28 62.1498 115.45 63.5298 114.67C64.8998 113.88 65.5798 112.39 65.5798 110.18V53.9201C65.5798 51.8001 64.9498 49.6201 63.6898 47.3501ZM33.0598 82.2101C32.3898 82.5901 31.5598 82.5001 30.5698 81.9301L16.5598 73.8401C15.5698 73.2701 14.7398 72.4001 14.0698 71.2401C13.3898 70.0901 13.0598 68.9401 13.0598 67.8001C13.0598 66.6601 13.3898 65.9001 14.0698 65.5201C14.7398 65.1301 15.5698 65.2301 16.5598 65.8001L24.4498 70.3601L30.5698 73.8901C31.5598 74.4601 32.3898 75.3301 33.0598 76.4801C33.4198 77.1101 33.6898 77.7301 33.8598 78.3501C33.9998 78.8801 34.0698 79.4101 34.0698 79.9301C34.0698 81.0701 33.7298 81.8301 33.0598 82.2101ZM43.5698 72.2001C42.8998 72.5901 42.0598 72.4901 41.0698 71.9201L27.0698 63.8301C26.0698 63.2601 25.2398 62.3901 24.5698 61.2401C23.8998 60.0801 23.5598 58.9301 23.5598 57.7901C23.5598 56.6501 23.8998 55.8901 24.5698 55.5101C25.2398 55.1301 26.0698 55.2201 27.0698 55.8001L33.2698 59.3801L41.0698 63.8801C42.0598 64.4501 42.8998 65.3201 43.5698 66.4801C43.9298 67.1001 44.1998 67.7201 44.3598 68.3401C44.4998 68.8701 44.5698 69.4001 44.5698 69.9201C44.5698 71.0601 44.2398 71.8201 43.5698 72.2001ZM54.0698 62.2001C53.3998 62.5801 52.5698 62.4801 51.5798 61.9101L37.5698 53.8201C36.5798 53.2501 35.7498 52.3901 35.0798 51.2301C34.3998 50.0701 34.0698 48.9201 34.0698 47.7801C34.0698 46.6401 34.3998 45.8901 35.0798 45.5001C35.7498 45.1201 36.5798 45.2101 37.5698 45.7901L43.7698 49.3701L51.5798 53.8701C52.5698 54.4501 53.3998 55.3101 54.0698 56.4701C54.4298 57.0901 54.6998 57.7101 54.8598 58.3301C55.0098 58.8601 55.0798 59.3901 55.0798 59.9101C55.0798 61.0501 54.7398 61.8101 54.0698 62.2001Z" stroke="white" stroke-linejoin="round"/><path d="M55.0798 59.9101C55.0798 61.0501 54.7398 61.8101 54.0698 62.2001C53.3998 62.5801 52.5698 62.4801 51.5798 61.9101L37.5698 53.8201C36.5798 53.2501 35.7498 52.3901 35.0798 51.2301C34.3998 50.0701 34.0698 48.9201 34.0698 47.7801C34.0698 46.6401 34.3998 45.8901 35.0798 45.5001C35.7498 45.1201 36.5798 45.2101 37.5698 45.7901L43.7698 49.3701L51.5798 53.8701C52.5698 54.4501 53.3998 55.3101 54.0698 56.4701C54.4298 57.0901 54.6998 57.7101 54.8598 58.3301C55.0098 58.8601 55.0798 59.3901 55.0798 59.9101Z" stroke="white" stroke-linejoin="round"/><path d="M34.0696 79.9301C34.0696 81.0701 33.7296 81.8301 33.0596 82.2101C32.3896 82.5901 31.5596 82.5001 30.5696 81.9301L16.5596 73.8401C15.5696 73.2701 14.7396 72.4001 14.0696 71.2401C13.3896 70.0901 13.0596 68.9401 13.0596 67.8001C13.0596 66.6601 13.3896 65.9001 14.0696 65.5201C14.7396 65.1301 15.5696 65.2301 16.5596 65.8001L24.4496 70.3601L30.5696 73.8901C31.5596 74.4601 32.3896 75.3301 33.0596 76.4801C33.4196 77.1101 33.6896 77.7301 33.8596 78.3501C33.9996 78.8801 34.0696 79.4101 34.0696 79.9301Z" stroke="white" stroke-linejoin="round"/><path d="M85.5799 43.9201V100.18C85.5799 102.39 84.8999 103.88 83.5299 104.67L63.5299 114.67C64.8999 113.88 65.5799 112.39 65.5799 110.18V53.9201C65.5799 51.8001 64.9499 49.6201 63.6899 47.3501C63.6399 47.2601 63.5899 47.1601 63.5299 47.0601C62.1499 44.7001 60.5099 42.9601 58.5799 41.8501L54.2899 39.3701L22.5499 21.0401L9.55988 13.5401C7.62988 12.4301 5.97986 12.2701 4.60986 13.0501L24.6099 3.05014C25.9799 2.27014 27.6299 2.43014 29.5599 3.54014L78.5799 31.8501C80.5099 32.9601 82.1499 34.7001 83.5299 37.0601C84.8999 39.4301 85.5799 41.7101 85.5799 43.9201Z" stroke="white" stroke-linejoin="round"/></svg>