<svg width="48" height="48" viewBox="0 0 95 99" fill="#229EFF" xmlns="http://www.w3.org/2000/svg" stroke-width="1px" stroke-linecap="round" stroke-linejoin="round"><path d="M14.2292 45.7645V59.0844C14.2292 60.9344 13.6691 62.1844 12.5391 62.8244C11.4091 63.4744 10.0392 63.3243 8.4292 62.3943C6.8092 61.4643 5.43908 60.0244 4.30908 58.0844C3.18908 56.1344 2.61914 54.2344 2.61914 52.3844V39.0644C2.61914 37.2144 3.18908 35.9644 4.30908 35.3244L4.68921 35.1344C5.74921 34.7144 6.9892 34.9244 8.4292 35.7544C10.0392 36.6844 11.4091 38.1244 12.5391 40.0744C13.6691 42.0144 14.2292 43.9145 14.2292 45.7645Z" stroke="white" stroke-linejoin="round"/><path d="M52.9285 23.7044V32.5844C52.9285 34.4344 52.3685 35.6844 51.2385 36.3244C50.1085 36.9644 48.7384 36.8243 47.1284 35.8943C45.8084 35.1343 44.6584 34.0444 43.6584 32.6044C43.6484 32.5844 43.6384 32.5643 43.6284 32.5443C43.4084 32.2343 43.2083 31.9144 43.0083 31.5744C41.8883 29.6244 41.3184 27.7344 41.3184 25.8844V16.9944C41.3184 16.3844 41.3783 15.8544 41.5083 15.3744C41.7583 14.3944 42.2583 13.6944 43.0083 13.2544L43.3584 13.0844C44.4184 12.6544 45.6784 12.8544 47.1284 13.6844C48.7384 14.6244 50.1085 16.0544 51.2385 18.0044C51.2485 18.0244 51.2683 18.0544 51.2783 18.0744C52.3783 20.0044 52.9285 21.8744 52.9285 23.7044Z" stroke="white" stroke-linejoin="round"/><path d="M34.2295 46.1846V49.0846C34.2295 50.9346 33.6693 52.1846 32.5393 52.8246L12.5393 62.8246C13.6693 62.1846 14.2295 60.9346 14.2295 59.0846V45.7646C14.2295 43.9146 13.6693 42.0146 12.5393 40.0746C11.4093 38.1246 10.0394 36.6846 8.42944 35.7546C6.98944 34.9246 5.74945 34.7146 4.68945 35.1346L22.1694 26.3945C22.0294 26.8745 21.9695 27.4245 21.9695 28.0345V36.9146C21.9695 38.0646 22.1894 39.2245 22.6194 40.4045C22.8894 41.1345 23.2294 41.8646 23.6594 42.6046C24.7894 44.5546 26.1593 45.9946 27.7793 46.9246C29.3893 47.8546 30.7594 48.0046 31.8894 47.3546L34.2295 46.1846Z" stroke="white" stroke-linejoin="round"/><path d="M33.5786 34.7344V43.6144C33.5786 45.4644 33.0187 46.7144 31.8887 47.3544C30.7587 48.0044 29.3886 47.8544 27.7786 46.9244C26.1586 45.9944 24.7887 44.5544 23.6587 42.6044C23.2287 41.8644 22.8887 41.1343 22.6187 40.4043C22.1887 39.2243 21.9688 38.0644 21.9688 36.9144V28.0343C21.9688 27.4243 22.0287 26.8743 22.1687 26.3943C22.4087 25.4243 22.9087 24.7244 23.6587 24.2944L24.0386 24.1044C25.0986 23.6844 26.3386 23.8944 27.7786 24.7244C29.3886 25.6544 30.7587 27.0943 31.8887 29.0343C31.9087 29.0743 31.9287 29.1043 31.9487 29.1443C33.0387 31.0543 33.5786 32.9144 33.5786 34.7344Z" stroke="white" stroke-linejoin="round"/><path d="M53.3792 35.2545C53.1492 36.2245 52.6492 36.9245 51.8892 37.3545L51.509 37.5444L34.2292 46.1844L31.8892 47.3545C33.0192 46.7145 33.5791 45.4645 33.5791 43.6145V34.7345C33.5791 32.9145 33.0392 31.0544 31.9492 29.1444C31.9292 29.1044 31.9092 29.0744 31.8892 29.0344C30.7592 27.0944 29.3891 25.6545 27.7791 24.7245C26.3391 23.8945 25.0991 23.6845 24.0391 24.1045L41.509 15.3745C41.379 15.8545 41.3191 16.3845 41.3191 16.9945V25.8845C41.3191 27.7345 41.889 29.6245 43.009 31.5745C43.209 31.9145 43.4092 32.2344 43.6292 32.5444C43.6392 32.5644 43.6492 32.5845 43.6592 32.6045C44.6592 34.0445 45.8092 35.1344 47.1292 35.8944C48.7392 36.8244 50.1093 36.9645 51.2393 36.3245L53.3792 35.2545Z" stroke="white" stroke-linejoin="round"/><path d="M72.9294 13.7045V19.1444L64.2993 23.4545L62.7095 24.2545L62.3594 24.4244C61.2394 25.0744 60.6694 26.3244 60.6694 28.1744V31.6145L53.3794 35.2545L51.2395 36.3245C52.3695 35.6845 52.9294 34.4345 52.9294 32.5845V23.7045C52.9294 21.8745 52.3793 20.0045 51.2793 18.0745C51.2693 18.0545 51.2495 18.0245 51.2395 18.0045C50.1095 16.0545 48.7394 14.6244 47.1294 13.6844C45.6794 12.8544 44.4194 12.6545 43.3594 13.0845L63.0093 3.25451C64.1393 2.61451 65.5094 2.75444 67.1294 3.68444C68.7394 4.62444 70.1095 6.05451 71.2395 8.00451C72.3695 9.95451 72.9294 11.8545 72.9294 13.7045Z" stroke="white" stroke-linejoin="round"/><path d="M92.2788 24.8745V82.6045C92.2788 84.4545 91.7189 85.7045 90.5889 86.3445L90.239 86.5145L70.5889 96.3445C71.7189 95.7045 72.2788 94.4545 72.2788 92.6045V34.8745C72.2788 33.0245 71.7189 31.1244 70.5889 29.1744C70.1889 28.4844 69.7488 27.8544 69.2888 27.2944C69.0788 27.0344 68.8489 26.7844 68.6289 26.5544C67.9689 25.8744 67.249 25.3145 66.479 24.8645C65.959 24.5645 65.459 24.3445 64.989 24.2145C64.149 23.9645 63.389 23.9745 62.709 24.2545L64.2988 23.4544L72.929 19.1444L82.3589 14.4244C83.4889 13.7844 84.859 13.9345 86.479 14.8645C88.089 15.7945 89.4589 17.2344 90.5889 19.1744C91.7189 21.1244 92.2788 23.0245 92.2788 24.8745Z" stroke="white" stroke-linejoin="round"/><path d="M72.2798 34.8744V92.6043C72.2798 94.4543 71.7198 95.7043 70.5898 96.3443C69.4598 96.9843 68.09 96.8443 66.48 95.9143C64.86 94.9843 63.4899 93.5443 62.3599 91.5943C61.2399 89.6543 60.6699 87.7543 60.6699 85.9043V28.1743C60.6699 26.3243 61.2399 25.0743 62.3599 24.4243L62.71 24.2544C63.39 23.9744 64.15 23.9643 64.99 24.2143C65.46 24.3443 65.96 24.5644 66.48 24.8644C67.25 25.3144 67.9699 25.8743 68.6299 26.5543C68.8499 26.7843 69.0798 27.0343 69.2898 27.2943C69.7498 27.8543 70.1898 28.4843 70.5898 29.1743C71.7198 31.1243 72.2798 33.0244 72.2798 34.8744Z" stroke="white" stroke-linejoin="round"/></svg>