<svg width="48" height="48" viewBox="0 0 104 126" xmlns="http://www.w3.org/2000/svg" stroke-width="1px"
     stroke-linecap="round" stroke-linejoin="round">
    <path d="M40.7404 27.0106L32.8004 22.4307V30.9806L47.7104 39.5906V31.0406L40.7404 27.0106Z" class="pr-icon-iso-solid-stroke" stroke-linejoin="round"/>
    <path d="M78.8004 98.1503C78.3804 97.0603 77.8905 95.9702 77.3405 94.8702C76.8805 93.9202 76.3604 92.9702 75.8104 92.0102C72.4904 86.3002 68.5605 81.9602 63.9805 78.9802C63.5305 78.6802 63.0804 78.4102 62.6204 78.1402C60.4704 76.8902 58.4504 76.1002 56.5604 75.7402C54.3204 75.3002 52.2604 75.4903 50.3804 76.3103L49.4304 76.7803C47.7404 77.7403 46.4304 79.1303 45.5304 80.9503C44.5004 83.0103 43.9805 85.6203 43.9805 88.7703C43.9805 89.9403 44.0504 91.1203 44.2004 92.3103C44.7704 97.1003 46.5204 102.02 49.4304 107.04C53.0704 113.31 57.4604 117.94 62.6204 120.91C67.7804 123.89 72.1704 124.34 75.8104 122.27C79.4404 120.2 81.2604 116.2 81.2604 110.29V110.07C81.2304 106.17 80.4104 102.2 78.8004 98.1503ZM72.5004 106.73L65.2305 110.87C64.4805 111.3 63.6104 111.22 62.6204 110.65C61.6304 110.07 60.7604 109.14 60.0104 107.86L52.7404 95.3203C52.3704 94.6803 52.1804 94.0702 52.1804 93.5002C52.1804 92.9302 52.3704 92.5402 52.7404 92.3302C53.1204 92.1102 53.5504 92.1503 54.0504 92.4403C54.5404 92.7203 54.9805 93.1902 55.3505 93.8302L60.7604 103.16V87.7602C60.7604 87.1902 60.9404 86.8002 61.3204 86.5802C61.6904 86.3702 62.1204 86.4103 62.6204 86.6903C63.1204 86.9803 63.5504 87.4502 63.9304 88.0902C64.3004 88.7302 64.4805 89.3403 64.4805 89.9103V105.31L69.8904 102.23C70.1604 102.07 70.4604 102.05 70.7904 102.15H70.8004C70.9304 102.2 71.0504 102.26 71.1904 102.34C71.6904 102.62 72.1304 103.09 72.5004 103.73C72.8704 104.38 73.0604 104.98 73.0604 105.55C73.0604 106.12 72.8704 106.51 72.5004 106.73Z" class="pr-icon-iso-solid-stroke" stroke-linejoin="round"/>
    <path d="M73.0604 105.55C73.0604 106.12 72.8704 106.51 72.5004 106.73L65.2305 110.87C64.4805 111.3 63.6104 111.22 62.6204 110.65C61.6304 110.07 60.7604 109.14 60.0104 107.86L52.7404 95.3204C52.3704 94.6804 52.1804 94.0703 52.1804 93.5003C52.1804 92.9303 52.3704 92.5403 52.7404 92.3303C53.1204 92.1103 53.5504 92.1504 54.0504 92.4404C54.5404 92.7204 54.9805 93.1903 55.3505 93.8303L60.7604 103.16L64.4805 101.3V105.31L70.7904 102.15H70.8004C70.9304 102.2 71.0504 102.26 71.1904 102.34C71.6904 102.62 72.1304 103.09 72.5004 103.73C72.8704 104.38 73.0604 104.98 73.0604 105.55Z" class="pr-icon-iso-solid-stroke" stroke-linejoin="round"/>
    <path d="M64.4805 89.9104V101.3L60.7604 103.16V87.7603C60.7604 87.1903 60.9404 86.8003 61.3204 86.5803C61.6904 86.3703 62.1204 86.4104 62.6204 86.6904C63.1204 86.9804 63.5504 87.4503 63.9304 88.0903C64.3004 88.7303 64.4805 89.3404 64.4805 89.9104Z" class="pr-icon-iso-solid-stroke" stroke-linejoin="round"/>
    <path d="M33.9904 10.1205L28.0004 13.1205L27.5404 13.3505C26.0804 14.1805 25.3505 15.7705 25.3505 18.1205V26.6806L22.9805 25.3106L10.4404 18.0706C8.39043 16.8906 6.63041 16.7106 5.17041 17.5406L25.1704 7.54056C26.6304 6.71056 28.3904 6.89059 30.4404 8.07059L33.9904 10.1205Z" class="pr-icon-iso-solid-stroke" stroke-linejoin="round"/>
    <path d="M75.3405 58.0605C74.9605 57.4005 74.5604 56.7904 74.1304 56.2204C72.9404 54.6204 71.5904 53.3805 70.0804 52.5005L55.1704 43.8905V35.3404C55.1704 32.9904 54.4405 30.5505 52.9805 28.0305C51.7405 25.9005 50.2804 24.2405 48.6204 23.0705C48.3204 22.8505 48.0204 22.6604 47.7104 22.4804L32.8004 13.8704C30.9604 12.8104 29.3604 12.5604 28.0004 13.1204L27.5404 13.3504C26.0804 14.1804 25.3505 15.7704 25.3505 18.1204V26.6805L22.9805 25.3105L10.4404 18.0705C8.39043 16.8905 6.63041 16.7105 5.17041 17.5405C3.71041 18.3805 2.98047 19.9705 2.98047 22.3205V69.3704C2.98047 71.7204 3.71041 74.1605 5.17041 76.6805C6.63041 79.1905 8.39043 81.0504 10.4404 82.2304L34.3804 96.0605C35.4404 96.6705 36.3004 96.6205 36.9504 95.9305C37.6004 95.2405 37.7704 94.2005 37.4604 92.8105C37.1504 91.3405 36.9204 89.9105 36.7604 88.5005C36.6104 87.0905 36.5304 85.7404 36.5304 84.4604C36.5304 81.3904 36.8805 78.6904 37.5905 76.3604C38.7705 72.4104 40.9704 69.5305 44.1704 67.7005C47.9804 65.5305 52.3804 65.3304 57.3804 67.1104C59.0604 67.7104 60.8004 68.5404 62.6204 69.5904C62.8004 69.6904 62.9804 69.8005 63.1604 69.9205C63.8904 70.3505 64.6205 70.8205 65.3405 71.3205C66.2205 71.9405 67.1005 72.6005 67.9805 73.3205C69.7505 74.7705 71.4404 76.3905 73.0604 78.1805C74.1104 79.3605 75.1205 79.9005 76.0905 79.8205C76.2905 79.8005 76.4704 79.7605 76.6204 79.6905L76.6804 79.6605C76.8504 79.5805 77.0005 79.4605 77.1105 79.3105C77.3905 78.9705 77.5304 78.4505 77.5304 77.7705V65.3604C77.5304 63.0104 76.8005 60.5705 75.3405 58.0605ZM47.7104 39.5904L32.8004 30.9804V22.4305L40.7404 27.0105L47.7104 31.0405V39.5904Z" class="pr-icon-iso-solid-stroke" stroke-linejoin="round"/>
    <path d="M75.1704 25.3403V33.8903L55.1704 43.8903V35.3403C55.1704 32.9903 54.4405 30.5504 52.9805 28.0304C51.7405 25.9004 50.2804 24.2404 48.6204 23.0704C48.3204 22.8504 48.0204 22.6603 47.7104 22.4803L32.8004 13.8703C30.9604 12.8103 29.3604 12.5603 28.0004 13.1203L33.9904 10.1203L47.5404 3.3503C49.0004 2.5103 50.7504 2.69032 52.8004 3.87032L67.7104 12.4803C69.7604 13.6703 71.5205 15.5204 72.9805 18.0304C74.4405 20.5504 75.1704 22.9903 75.1704 25.3403Z" class="pr-icon-iso-solid-stroke" stroke-linejoin="round"/>
    <path d="M40.7404 27.0103L32.8004 30.9802" class="pr-icon-iso-solid-stroke" stroke-linejoin="round"/>
    <path d="M57.3804 67.1102C56.9004 68.9302 56.6204 70.9702 56.5504 73.2202L50.3804 76.3103L49.4304 76.7802C47.7404 77.7402 46.4304 79.1303 45.5304 80.9503C44.5004 83.0103 43.9805 85.6202 43.9805 88.7702C43.9805 89.9402 44.0504 91.1203 44.2004 92.3103L36.9504 95.9303C37.6004 95.2403 37.7704 94.2003 37.4604 92.8103C37.1504 91.3403 36.9204 89.9102 36.7604 88.5002C36.6104 87.0902 36.5304 85.7402 36.5304 84.4602C36.5304 81.3902 36.8805 78.6902 37.5905 76.3602C38.7705 72.4102 40.9704 69.5303 44.1704 67.7003C47.9804 65.5303 52.3804 65.3302 57.3804 67.1102Z" class="pr-icon-iso-solid-stroke" stroke-linejoin="round"/>
    <path d="M97.5304 55.3606V67.7706C97.5304 68.7706 97.2304 69.4107 96.6404 69.6807L96.1604 69.9207L89.3004 73.3606L82.6304 76.7007L80.7704 77.6306L76.6804 79.6606C76.8504 79.5806 77.0005 79.4607 77.1105 79.3107C77.3905 78.9707 77.5304 78.4506 77.5304 77.7706V65.3606C77.5304 63.0106 76.8005 60.5707 75.3405 58.0607C74.9605 57.4007 74.5604 56.7906 74.1304 56.2206C72.9404 54.6206 71.5904 53.3806 70.0804 52.5006L55.1704 43.8906L75.1704 33.8906L90.0804 42.5006C92.1304 43.6906 93.8805 45.5407 95.3405 48.0607C96.8005 50.5707 97.5304 53.0106 97.5304 55.3606Z" class="pr-icon-iso-solid-stroke" stroke-linejoin="round"/>
    <path d="M101.26 100.29C101.26 106.2 99.4404 110.2 95.8104 112.27L94.8605 112.74L75.8104 122.27C79.4404 120.2 81.2604 116.2 81.2604 110.29V110.07C81.2304 106.17 80.4104 102.2 78.8004 98.1504C78.3804 97.0604 77.8905 95.9704 77.3405 94.8704C76.8805 93.9204 76.3604 92.9704 75.8104 92.0104C72.4904 86.3004 68.5605 81.9603 63.9805 78.9803C63.5305 78.6803 63.0804 78.4104 62.6204 78.1404C60.4704 76.8904 58.4504 76.1004 56.5604 75.7404C54.3204 75.3004 52.2604 75.4904 50.3804 76.3104L56.5504 73.2203L63.1604 69.9204C63.8904 70.3504 64.6205 70.8204 65.3405 71.3204C66.2205 71.9404 67.1005 72.6004 67.9805 73.3204C69.7505 74.7704 71.4404 76.3904 73.0604 78.1804C74.1104 79.3604 75.1205 79.9004 76.0905 79.8204C76.2905 79.8004 76.4704 79.7604 76.6204 79.6904L76.6804 79.6604L80.7704 77.6304L82.6304 76.7004L89.3004 73.3604C91.7004 75.7704 93.8604 78.6604 95.8104 82.0104C99.4404 88.2804 101.26 94.3704 101.26 100.29Z" class="pr-icon-iso-solid-stroke" stroke-linejoin="round"/>
</svg>