<svg width="24" height="24" viewBox="0 0 24 24" fill="none" xmlns="http://www.w3.org/2000/svg">
<path d="M2.5 12C2.5 7.52167 2.5 5.2825 3.89124 3.89126C5.28249 2.50002 7.52166 2.50002 12 2.50002C16.4783 2.50002 18.7175 2.50002 20.1088 3.89126C21.5 5.2825 21.5 7.52167 21.5 12C21.5 16.4784 21.5 18.7175 20.1088 20.1088C18.7175 21.5 16.4783 21.5 12 21.5C7.52166 21.5 5.28249 21.5 3.89124 20.1088C2.5 18.7175 2.5 16.4784 2.5 12Z" stroke="#141B34" stroke-width="1.5"/>
<path d="M2.5 9.00002H21.5" stroke="#141B34" stroke-width="1.5" stroke-linejoin="round"/>
<path d="M6.99981 6.00002H7.00879" stroke="#141B34" stroke-width="2" stroke-linecap="round" stroke-linejoin="round"/>
<path d="M10.9998 6.00002H11.0088" stroke="#141B34" stroke-width="2" stroke-linecap="round" stroke-linejoin="round"/>
<path d="M17 17C17 14.2386 14.7614 12 12 12C9.23858 12 7 14.2386 7 17" stroke="#141B34" stroke-width="1.5" stroke-linecap="round"/>
<path d="M12.707 15.293L11.2928 16.7072" stroke="#141B34" stroke-width="1.5" stroke-linecap="round" stroke-linejoin="round"/>
</svg>
