<svg xmlns="http://www.w3.org/2000/svg" viewBox="0 0 640 512"><!--! Font Awesome Pro 6.7.2 by @fontawesome - https://fontawesome.com License - https://fontawesome.com/license (Commercial License) Copyright 2024 Fonticons, Inc. --><defs><style>.fa-secondary{opacity:.4}</style></defs><path class="fa-secondary" d="M48 133c44.8 35.3 89.5 70.7 134.3 106L129.9 352l17.6 0 29.7-64 67.2 0C318.6 346.7 393 405.3 467.3 464L48 464l0-331zM172.7 48L592 48l0 331c-31.2-24.6-62.4-49.2-93.5-73.8C507.1 290.8 512 274 512 256c0-53-43-96-96-96l-64 0-8 0 0 8 0 15.2C286.9 138.1 229.8 93.1 172.7 48zm11.9 224l10.6-22.8c9.6 7.6 19.3 15.2 28.9 22.8l-39.5 0zM360 176l56 0c44.2 0 80 35.8 80 80c0 14.2-3.7 27.6-10.2 39.1C443.9 262 401.9 228.9 360 195.8l0-19.8z"/><path class="fa-primary" d="M16.2 5L9.9 0 0 12.5l6.3 5L623.8 507l6.3 5 9.9-12.5-6.3-5L16.2 5zM487.5 480l-20.3-16L48 464l0-331L32 120.4 32 464l0 16 16 0 439.5 0zM152.5 32l20.3 16L592 48l0 331 16 12.6L608 48l0-16-16 0L152.5 32zM344 183.2l16 12.6 0-19.8 56 0c44.2 0 80 35.8 80 80c0 14.2-3.7 27.6-10.2 39.1l12.7 10C507.1 290.8 512 274 512 256c0-53-43-96-96-96l-64 0-8 0 0 8 0 15.2zM182.3 239L129.9 352l17.6 0 29.7-64 67.2 0-20.3-16-39.5 0 10.6-22.8L182.3 239z"/></svg>