<svg xmlns="http://www.w3.org/2000/svg" viewBox="0 0 448 512"><!--! Font Awesome Pro 6.7.2 by @fontawesome - https://fontawesome.com License - https://fontawesome.com/license (Commercial License) Copyright 2024 Fonticons, Inc. --><defs><style>.fa-secondary{opacity:.4}</style></defs><path class="fa-secondary" d="M16 48l96 0 0 80-96 0 0-80zm0 96l200 0 0 104L16 248l0-104zm0 120l96 0 0 104-96 0 0-104zm0 120l96 0 16 0 88 0 0 80L16 464l0-80zM128 48l192 0 0 80-88 0-16 0-88 0 0-80zm0 216l192 0 0 104-192 0 0-104zM232 144l200 0 0 104-200 0 0-104zm0 240l88 0 16 0 96 0 0 80-200 0 0-80zM336 48l96 0 0 80-96 0 0-80zm0 216l96 0 0 104-96 0 0-104z"/><path class="fa-primary" d="M128 48l0 80 88 0 16 0 88 0 0-80L128 48zm-16 80l0-80L16 48l0 80 96 0zM16 144l0 104 200 0 0-104L16 144zm0 224l96 0 0-104-96 0 0 104zm0 16l0 80 200 0 0-80-88 0-16 0-96 0zm112-16l192 0 0-104-192 0 0 104zm208 0l96 0 0-104-96 0 0 104zm96 16l-96 0-16 0-88 0 0 80 200 0 0-80zm0-240l-200 0 0 104 200 0 0-104zm0-16l0-80-96 0 0 80 96 0zM0 32l16 0 416 0 16 0 0 16 0 416 0 16-16 0L16 480 0 480l0-16L0 48 0 32z"/></svg>