<svg xmlns="http://www.w3.org/2000/svg" viewBox="0 0 448 512"><!--! Font Awesome Pro 6.7.2 by @fontawesome - https://fontawesome.com License - https://fontawesome.com/license (Commercial License) Copyright 2024 Fonticons, Inc. --><defs><style>.fa-secondary{opacity:.4}</style></defs><path class="fa-secondary" d="M32 80l16 0 0-16 64 0 0 16 32 0 0-16 64 0 0 16 32 0 0-16 64 0 0 16 32 0 0-16 96 0 0 384-96 0 0-16-32 0 0 16-64 0 0-16-32 0 0 16-64 0 0-16-32 0 0 16-64 0 0-16-16 0 0-64 16 0 0-32-16 0 0-64 16 0 0-32-16 0 0-64 16 0 0-32-16 0 0-64zm80 160l0 32 32 0 0-32-32 0zm96-96l0 32 32 0 0-32-32 0zm0 96l0 32 32 0 0-32-32 0zm0 96l0 32 32 0 0-32-32 0zm96-96l0 32 32 0 0-32-32 0z"/><path class="fa-primary" d="M448 32l0 448-16 0 0-448 16 0zM336 48l0 32-32 0 0-32 32 0zm0 416l-32 0 0-32 32 0 0 32zm0-224l0 32-32 0 0-32 32 0zM144 80l-32 0 0-32 32 0 0 32zm0 352l0 32-32 0 0-32 32 0zm0-160l-32 0 0-32 32 0 0 32zM240 48l0 32-32 0 0-32 32 0zm0 416l-32 0 0-32 32 0 0 32zm0-224l0 32-32 0 0-32 32 0zM48 80L16 80l0-32 32 0 0 32zm0 352l0 32-32 0 0-32 32 0zm0-160l-32 0 0-32 32 0 0 32zM240 144l0 32-32 0 0-32 32 0zM48 176l-32 0 0-32 32 0 0 32zm0 160l0 32-32 0 0-32 32 0zm192 32l-32 0 0-32 32 0 0 32z"/></svg>