<svg xmlns="http://www.w3.org/2000/svg" viewBox="0 0 512 512"><!--! Font Awesome Pro 6.7.2 by @fontawesome - https://fontawesome.com License - https://fontawesome.com/license (Commercial License) Copyright 2024 Fonticons, Inc. --><defs><style>.fa-secondary{opacity:.4}</style></defs><path class="fa-secondary" d="M16 48l0 80 16 0 16 0 416 0 16 0 16 0 0-80L16 48zM48 176l0 288 416 0 0-288L48 176zm112 48l8 0 176 0 8 0 0 16-8 0-176 0-8 0 0-16z"/><path class="fa-primary" d="M496 48L16 48l0 80 16 0 16 0 416 0 16 0 16 0 0-80zm-16 96l-16 0L48 144l-16 0-16 0L0 144l0-16L0 48 0 32l16 0 480 0 16 0 0 16 0 80 0 16-16 0-16 0zM160 224l8 0 176 0 8 0 0 16-8 0-176 0-8 0 0-16zm304-48l16 0 0 288 0 16-16 0L48 480l-16 0 0-16 0-288 16 0 0 288 416 0 0-288z"/></svg>