<svg xmlns="http://www.w3.org/2000/svg" viewBox="0 0 640 512"><!--! Font Awesome Pro 6.7.2 by @fontawesome - https://fontawesome.com License - https://fontawesome.com/license (Commercial License) Copyright 2024 Fonticons, Inc. --><defs><style>.fa-secondary{opacity:.4}</style></defs><path class="fa-secondary" d="M52.1 176.1L78.7 496 272 496l0 8.2c0-13.4 0-26.7 0-40l-16 0 0-160 16 0 0-4.8c2.8-9 6.2-17.6 10.5-26c6-11.7 15.6-27.3 30-42.9c9.6-10.4 21.2-20.7 35.1-29.8l2.1-24.6-297.6 0zM304 351.8l0 64 8 0 304 0 8 0 0-64-16 0-288 0-16 0zm16-45.3l0 29.3 288 0 0-29.3c-.2-.6-.4-.9-.5-1.3c-1-2.4-2.5-6-4.7-10.4c-4.5-8.8-11.7-20.5-22.5-32.2C558.9 239.6 523 215.8 464 215.8s-94.9 23.7-116.2 46.9c-10.8 11.7-18 23.4-22.5 32.2c-2.2 4.4-3.8 7.9-4.7 10.4c-.2 .5-.4 .9-.5 1.3zm0 125.3l0 64 288 0 0-64-288 0zm74-168a10 10 0 1 1 -20 0 10 10 0 1 1 20 0zm80-16a10 10 0 1 1 -20 0 10 10 0 1 1 20 0zm80 16a10 10 0 1 1 -20 0 10 10 0 1 1 20 0z"/><path class="fa-primary" d="M217.8 0L224 0l56 0 8 0 0 16-8 0-49.8 0-28 112L376 128l8 0 0 16-8 0L8 144l-8 0 0-16 8 0 177.8 0L216.2 6.1 217.8 0zM64 512L36 176l16.1 0L78.7 496 272 496l0 8.2c0 2.7 .3 5.3 .8 7.8L64 512zM304 303.8s32-104 160-104s160 104 160 104l0 32 16 0 0 16 0 64 0 16-16 0 0 72c0 4.4-3.6 8-8 8l-304 0c-4.4 0-8-3.6-8-8l0-72-16 0 0-16 0-64 0-16 16 0 0-32zm304 2.7c0-.1-.1-.2-.1-.3c-.1-.3-.2-.6-.4-1c-1-2.4-2.5-6-4.7-10.4c-4.5-8.8-11.7-20.5-22.5-32.2C558.9 239.6 523 215.8 464 215.8s-94.9 23.7-116.2 46.9c-10.8 11.7-18 23.4-22.5 32.2c-2.2 4.4-3.8 7.9-4.7 10.4c-.2 .5-.4 .9-.5 1.3l0 29.3 288 0 0-29.3zM304 415.8l8 0 304 0 8 0 0-64-16 0-288 0-16 0 0 64zm16 16l0 64 288 0 0-64-288 0zm74-168a10 10 0 1 1 -20 0 10 10 0 1 1 20 0zm70-6a10 10 0 1 1 0-20 10 10 0 1 1 0 20zm90 6a10 10 0 1 1 -20 0 10 10 0 1 1 20 0z"/></svg>