<svg xmlns="http://www.w3.org/2000/svg" width="24" height="24" viewBox="0 0 640 512">
    <path class="pr-icon-duotone-secondary" d="M80 80l384 0 0 208L80 288 80 80zm400 0l80 0 0 208-80 0 0-208z"/>
    <path class="pr-icon-duotone-primary" d="M480 80l0 208-16 0 0-208L80 80l0 208-16 0L64 80l0-16 16 0 384 0 8 0 8 0 80 0 16 0 0 16 0 208-16 0 0-208-80 0zM0 320l8 0 24 0 16 0 544 0 16 0 24 0 8 0 0 16-8 0-24 0 0 96 0 16-16 0L48 448l-16 0 0-16 0-96L8 336l-8 0 0-16zm48 16l0 96 544 0 0-96L48 336z"/>
</svg>