<svg xmlns="http://www.w3.org/2000/svg" viewBox="0 0 512 512"><!--! Font Awesome Pro 6.7.2 by @fontawesome - https://fontawesome.com License - https://fontawesome.com/license (Commercial License) Copyright 2024 Fonticons, Inc. --><defs><style>.fa-secondary{opacity:.4}</style></defs><path class="fa-secondary" d="M16 320l80 0 0 16 8 0 64 0 5.5 0 2-5.2 81.3-214.4 56 118.9 2.2 4.6 5.1 0 76 0 68 90.7L464 464 16 464l0-32 0-112z"/><path class="fa-primary" d="M16 40l0-8L0 32l0 8L0 472l0 8 8 0 496 0 8 0 0-16-8 0L16 464 16 40zM263.2 92.6l-8-17.1-6.7 17.6L162.5 320 104 320l-8 0 0 16 8 0 64 0 5.5 0 2-5.2 81.3-214.4 56 118.9 2.2 4.6 5.1 0 76 0 69.6 92.8 4.8 6.4 12.8-9.6-4.8-6.4-72-96L404 224l-4 0-74.9 0L263.2 92.6z"/></svg>