<svg xmlns="http://www.w3.org/2000/svg" viewBox="0 0 512 512"><!--! Font Awesome Pro 6.7.2 by @fontawesome - https://fontawesome.com License - https://fontawesome.com/license (Commercial License) Copyright 2024 Fonticons, Inc. --><defs><style>.fa-secondary{opacity:.4}</style></defs><path class="fa-secondary" d="M16 256a240 240 0 1 0 480 0A240 240 0 1 0 16 256zm128 73.2c0-23.4 11.4-45.3 30.5-58.8l39.3-27.7-22.2-23.1c-10-10.4-15.6-24.3-15.6-38.8l0-44.7 0-8 8 0 104 0 8 0 0 8 0 43.3c0 15.6-7.6 30.2-20.3 39.2l-37.5 26.4 69.6 72.5 45.9-58.4 4.9-6.3 12.6 9.9-4.9 6.3L319 329.1 371.7 384l-22.2 0L309 341.8l-30.7 39.1-2.4 3.1-3.9 0-16 0-104 0-8 0 0-8 0-46.8zm16 0l0 38.8 108.1 0 29.7-37.8L225 254.3l-41.3 29.1C168.8 293.9 160 311 160 329.2zM192 144l0 36.7c0 10.3 4 20.2 11.1 27.7L227 233.3l39.4-27.8c8.5-6 13.5-15.7 13.5-26.1l0-35.3-88 0z"/><path class="fa-primary" d="M256 16a240 240 0 1 1 0 480 240 240 0 1 1 0-480zm0 496A256 256 0 1 0 256 0a256 256 0 1 0 0 512zM176 128l0 8 0 44.7c0 14.5 5.6 28.3 15.6 38.8l22.2 23.1-39.3 27.7c-19.1 13.5-30.5 35.4-30.5 58.8l0 46.8 0 8 8 0 104 0 16 0 3.9 0 2.4-3.1L309 341.8 349.5 384l22.2 0L319 329.1l47.3-60.2 4.9-6.3-12.6-9.9-4.9 6.3-45.9 58.4-69.6-72.5 37.5-26.4c12.7-9 20.3-23.6 20.3-39.2l0-43.3 0-8-8 0-104 0-8 0zm51 105.3l-23.9-24.9C196 200.9 192 191 192 180.7l0-36.7 88 0 0 35.3c0 10.4-5.1 20.1-13.5 26.1L227 233.3zm-2 21l72.8 75.9L268.1 368 160 368l0-38.8c0-18.2 8.8-35.3 23.7-45.7L225 254.3z"/></svg>