<svg xmlns="http://www.w3.org/2000/svg" viewBox="0 0 512 512"><!--! Font Awesome Pro 6.7.2 by @fontawesome - https://fontawesome.com License - https://fontawesome.com/license (Commercial License) Copyright 2024 Fonticons, Inc. --><defs><style>.fa-secondary{opacity:.4}</style></defs><path class="fa-secondary" d="M16 256a240 240 0 1 0 480 0A240 240 0 1 0 16 256zM141.6 128l20.6 0L256 243.3 349.8 128l20.6 0L266.3 256 370.4 384l-20.6 0L256 268.7 162.2 384l-20.6 0L245.7 256 141.6 128z"/><path class="fa-primary" d="M256 16a240 240 0 1 1 0 480 240 240 0 1 1 0-480zm0 496A256 256 0 1 0 256 0a256 256 0 1 0 0 512zM141.6 128L245.7 256 141.6 384l20.6 0L256 268.7 349.8 384l20.6 0L266.3 256 370.4 128l-20.6 0L256 243.3 162.2 128l-20.6 0z"/></svg>