<svg xmlns="http://www.w3.org/2000/svg" viewBox="0 0 512 512"><!--! Font Awesome Pro 6.7.2 by @fontawesome - https://fontawesome.com License - https://fontawesome.com/license (Commercial License) Copyright 2024 Fonticons, Inc. --><defs><style>.fa-secondary{opacity:.4}</style></defs><path class="fa-secondary" d="M16 256a240 240 0 1 0 480 0A240 240 0 1 0 16 256zm120-56l11.3-11.3 41.4-41.4L200 136l11.3 11.3 73.4 73.4L296 232l11.3-11.3 25.4-25.4L344 184l11.3 11.3L368 208l0 144 0 16-16 0-144 0-12.7-12.7L184 344l11.3-11.3 25.4-25.4L232 296l-11.3-11.3-73.4-73.4L136 200z"/><path class="fa-primary" d="M256 496a240 240 0 1 1 0-480 240 240 0 1 1 0 480zM256 0a256 256 0 1 0 0 512A256 256 0 1 0 256 0zM195.3 332.7L184 344l11.3 11.3L208 368l144 0 16 0 0-16 0-144-12.7-12.7L344 184l-11.3 11.3-25.4 25.4L296 232l-11.3-11.3-73.4-73.4L200 136l-11.3 11.3-41.4 41.4L136 200l11.3 11.3 73.4 73.4L232 296l-11.3 11.3-25.4 25.4zm48-48L158.6 200 200 158.6l84.7 84.7L296 254.6l11.3-11.3L344 206.6l8 8L352 352l-137.4 0-8-8 36.7-36.7L254.6 296l-11.3-11.3z"/></svg>