<svg xmlns="http://www.w3.org/2000/svg" viewBox="0 0 512 512"><path class="pr-icon-duotone-secondary" d="M16 256a240 240 0 1 0 480 0A240 240 0 1 0 16 256zm108.7 40l5.7-5.7 120-120 5.7-5.7 5.7 5.7 120 120 5.7 5.7L376 307.3l-5.7-5.7L256 187.3 141.7 301.7l-5.7 5.7L124.7 296z"/><path class="pr-icon-duotone-primary" d="M256 16a240 240 0 1 1 0 480 240 240 0 1 1 0-480zm0 496A256 256 0 1 0 256 0a256 256 0 1 0 0 512zm5.7-341.7l-5.7-5.7-5.7 5.7-120 120-5.7 5.7L136 307.3l5.7-5.7L256 187.3 370.3 301.7l5.7 5.7L387.3 296l-5.7-5.7-120-120z"/></svg>