<svg xmlns="http://www.w3.org/2000/svg" viewBox="0 0 512 512"><!--! Font Awesome Pro 6.7.2 by @fontawesome - https://fontawesome.com License - https://fontawesome.com/license (Commercial License) Copyright 2024 Fonticons, Inc. --><defs><style>.fa-secondary{opacity:.4}</style></defs><path class="fa-secondary" d="M16 256a240 240 0 1 0 480 0A240 240 0 1 0 16 256zm132.9-61.8l8.9-13.3 6.7 4.4 96 64 3.6 2.4 0 4.3 0 152 0 8-16 0 0-8 0-147.7-92.4-61.6-6.7-4.4z"/><path class="fa-primary" d="M16 256a240 240 0 1 1 480 0A240 240 0 1 1 16 256zm496 0A256 256 0 1 0 0 256a256 256 0 1 0 512 0zM264 408l0-152 0-4.3-3.6-2.4-96-64-6.7-4.4-8.9 13.3 6.7 4.4L248 260.3 248 408l0 8 16 0 0-8z"/></svg>