<svg xmlns="http://www.w3.org/2000/svg" width="24" height="24" viewBox="0 0 512 512">
    <path class="pr-icon-duotone-secondary" d="M496 256A240 240 0 1 1 16 256a240 240 0 1 1 480 0zM148.9 194.2l6.7 4.4 96 64 12.4 8.3 0-14.9 0-152 0-8-16 0 0 8 0 137.1-83.6-55.7-6.7-4.4-8.9 13.3z"/>
    <path class="pr-icon-duotone-primary" d="M496 256A240 240 0 1 1 16 256a240 240 0 1 1 480 0zM0 256a256 256 0 1 0 512 0A256 256 0 1 0 0 256zM248 104l0 137.1-83.6-55.7-6.7-4.4-8.9 13.3 6.7 4.4 96 64 12.4 8.3 0-14.9 0-152 0-8-16 0 0 8z"/>
</svg>