<svg xmlns="http://www.w3.org/2000/svg" width="24" height="24" viewBox="0 0 512 512">
    <path class="pr-icon-duotone-secondary" d="M16 256a240 240 0 1 0 480 0A240 240 0 1 0 16 256zm432 0A192 192 0 1 1 64 256a192 192 0 1 1 384 0zM80 256a176 176 0 1 0 352 0A176 176 0 1 0 80 256zm168-96l16 0 0 8 0 176 0 8-16 0 0-8 0-176 0-8z"/>
    <path class="pr-icon-duotone-primary" d="M256 16a240 240 0 1 1 0 480 240 240 0 1 1 0-480zm0 496A256 256 0 1 0 256 0a256 256 0 1 0 0 512zm0-432a176 176 0 1 1 0 352 176 176 0 1 1 0-352zm0 368a192 192 0 1 0 0-384 192 192 0 1 0 0 384zm8-280l0-8-16 0 0 8 0 176 0 8 16 0 0-8 0-176z"/>
</svg>