<svg xmlns="http://www.w3.org/2000/svg" viewBox="0 0 512 512"><!--! Font Awesome Pro 6.7.2 by @fontawesome - https://fontawesome.com License - https://fontawesome.com/license (Commercial License) Copyright 2024 Fonticons, Inc. --><defs><style>.fa-secondary{opacity:.4}</style></defs><path class="fa-secondary" d="M16 240c0 44.7 19.2 86.3 52.3 119.5l7.3 7.3-3.6 9.6-29.6 79 119.5-35.8 4.6-1.4 4.6 1.4c26.4 8 55 12.4 85 12.4c135.8 0 240-88.9 240-192S391.8 48 256 48S16 136.9 16 240zm152-72c0-30.9 25.1-56 56-56l56.2 0c35.2 0 63.8 28.6 63.8 63.8c0 21.4-10.8 41.5-28.7 53.3L264 262.9l0 25.1 0 8-16 0 0-8 0-29.5 0-4.3 3.6-2.4 54.9-36.2c13.4-8.8 21.5-23.8 21.5-39.9c0-26.4-21.4-47.8-47.8-47.8L224 128c-22.1 0-40 17.9-40 40l0 6.5-16 0 0-6.5zm72 152l32 0 0 32-32 0 0-32z"/><path class="fa-primary" d="M71.9 376.4l3.6-9.6-7.3-7.3C35.2 326.3 16 284.7 16 240C16 136.9 120.2 48 256 48s240 88.9 240 192s-104.2 192-240 192c-30 0-58.6-4.4-85-12.4l-4.6-1.4-4.6 1.4L42.3 455.4l29.6-79zM16 480l19.3-5.8 131.1-39.3c27.9 8.5 58.1 13.1 89.6 13.1c141.4 0 256-93.1 256-208S397.4 32 256 32S0 125.1 0 240c0 49.6 21.3 95.1 56.9 130.8L23.1 461.2 16 480zM168 168l0 6.5 16 0 0-6.5c0-22.1 17.9-40 40-40l56.2 0c26.4 0 47.8 21.4 47.8 47.8c0 16.1-8.1 31.1-21.5 39.9l-54.9 36.2-3.6 2.4 0 4.3 0 29.5 0 8 16 0 0-8 0-25.1L315.3 229c17.9-11.8 28.7-31.8 28.7-53.3c0-35.2-28.6-63.8-63.8-63.8L224 112c-30.9 0-56 25.1-56 56zm72 184l32 0 0-32-32 0 0 32z"/></svg>