<svg xmlns="http://www.w3.org/2000/svg" width="24" height="24" viewBox="0 0 448 512"><path class="pr-icon-duotone-secondary" d="M0 192L0 320l8 0 144 0 8 0 0 8 0 144 0 8 128 0 0-8 0-144 0-8 8 0 144 0 8 0 0-128-8 0-144 0-8 0 0-8 0-144 0-8L160 32l0 8 0 144 0 8-8 0L8 192l-8 0z"/><path class="pr-icon-duotone-primary" d="M160 32l0 8 0 144 0 8-8 0L8 192l-8 0 0-16 8 0 136 0 0-136 0-8 16 0zm144 0l0 8 0 136 136 0 8 0 0 16-8 0-144 0-8 0 0-8 0-144 0-8 16 0zM0 320l8 0 144 0 8 0 0 8 0 144 0 8-16 0 0-8 0-136L8 336l-8 0 0-16zm288 0l8 0 144 0 8 0 0 16-8 0-136 0 0 136 0 8-16 0 0-8 0-144 0-8z"/></svg>