<svg xmlns="http://www.w3.org/2000/svg" viewBox="0 0 512 512"><!--! Font Awesome Pro 6.7.2 by @fontawesome - https://fontawesome.com License - https://fontawesome.com/license (Commercial License) Copyright 2024 Fonticons, Inc. --><defs><style>.fa-secondary{opacity:.4}</style></defs><path class="fa-secondary" d="M16 336l143.4 0-16-16 45.3 0 61.7 61.7 5.7 5.7 5.7-5.7L323.3 320l45.3 0-16 16L496 336l0 160L16 496l0-160zm195.3-16l36.7 0 0 36.7L211.3 320zm52.7 0l36.7 0L264 356.7l0-36.7zm136 96a32 32 0 1 0 64 0 32 32 0 1 0 -64 0z"/><path class="fa-primary" d="M264 8l0-8L248 0l0 8 0 348.7L133.7 242.3l-5.7-5.7L116.7 248l5.7 5.7 128 128 5.7 5.7 5.7-5.7 128-128 5.7-5.7L384 236.7l-5.7 5.7L264 356.7 264 8zM143.4 320L16 320 0 320l0 16L0 496l0 16 16 0 480 0 16 0 0-16 0-160 0-16-16 0-127.4 0-16 16L496 336l0 160L16 496l0-160 143.4 0-16-16zM432 432a16 16 0 1 1 0-32 16 16 0 1 1 0 32zm-32-16a32 32 0 1 0 64 0 32 32 0 1 0 -64 0z"/></svg>