<svg xmlns="http://www.w3.org/2000/svg" viewBox="0 0 512 512"><!--! Font Awesome Pro 6.7.2 by @fontawesome - https://fontawesome.com License - https://fontawesome.com/license (Commercial License) Copyright 2024 Fonticons, Inc. --><defs><style>.fa-secondary{opacity:.4}</style></defs><path class="fa-secondary" d="M16 80l0 87.6 240 165 240-165L496 80 16 80zm0 107l0 245 480 0 0-245L256 352 16 187z"/><path class="fa-primary" d="M16 167.6l240 165 240-165L496 80 16 80l0 87.6zM496 187L256 352 16 187l0 245 480 0 0-245zM0 432L0 176 0 80 0 64l16 0 480 0 16 0 0 16 0 96 0 256 0 16-16 0L16 448 0 448l0-16z"/></svg>