<svg xmlns="http://www.w3.org/2000/svg" viewBox="0 0 512 512"><!--! Font Awesome Pro 6.7.2 by @fontawesome - https://fontawesome.com License - https://fontawesome.com/license (Commercial License) Copyright 2024 Fonticons, Inc. --><defs><style>.fa-secondary{opacity:.4}</style></defs><path class="fa-secondary" d="M0 192L0 320l16 0 0 8 0 104 104 0 8 0 0 16 256 0 0-16 8 0 104 0 0-104 0-8 16 0 0-128-16 0 0-8 0-104L392 80l-8 0 0-16L128 64l0 16-8 0L16 80l0 104 0 8L0 192z"/><path class="fa-primary" d="M120 64l8 0 0 16-8 0L16 80l0 104 0 8L0 192l0-8L0 72l0-8 8 0 112 0zM0 328l0-8 16 0 0 8 0 104 104 0 8 0 0 16-8 0L8 448l-8 0 0-8L0 328zM392 64l112 0 8 0 0 8 0 112 0 8-16 0 0-8 0-104L392 80l-8 0 0-16 8 0zM512 328l0 112 0 8-8 0-112 0-8 0 0-16 8 0 104 0 0-104 0-8 16 0 0 8z"/></svg>