<svg xmlns="http://www.w3.org/2000/svg" viewBox="0 0 512 512"><!--! Font Awesome Pro 6.7.2 by @fontawesome - https://fontawesome.com License - https://fontawesome.com/license (Commercial License) Copyright 2024 Fonticons, Inc. --><defs><style>.fa-secondary{opacity:.4}</style></defs><path class="fa-secondary" d="M16 256a240 240 0 1 0 480 0A240 240 0 1 0 16 256zm121.4-76.6c22.4-32 61.9-67.4 118.6-67.4s96.1 35.4 118.6 67.4l-13.1 9.2C340.6 158.8 305.4 128 256 128s-84.6 30.8-105.4 60.6l-13.1-9.2zM192.4 304a16 16 0 1 1 -32 0 16 16 0 1 1 32 0zm160 0a16 16 0 1 1 -32 0 16 16 0 1 1 32 0z"/><path class="fa-primary" d="M16 256a240 240 0 1 1 480 0A240 240 0 1 1 16 256zm496 0A256 256 0 1 0 0 256a256 256 0 1 0 512 0zM137.4 179.4l13.1 9.2C171.4 158.8 206.6 128 256 128s84.6 30.8 105.4 60.6l13.1-9.2C352.1 147.4 312.7 112 256 112s-96.1 35.4-118.6 67.4zM192.4 304a16 16 0 1 0 -32 0 16 16 0 1 0 32 0zm144-16a16 16 0 1 0 0 32 16 16 0 1 0 0-32z"/></svg>