<svg xmlns="http://www.w3.org/2000/svg" viewBox="0 0 576 512"><!--! Font Awesome Pro 6.7.2 by @fontawesome - https://fontawesome.com License - https://fontawesome.com/license (Commercial License) Copyright 2024 Fonticons, Inc. --><defs><style>.fa-secondary{opacity:.4}</style></defs><path class="fa-secondary" d="M17.9 360l12.5 24.7 1.8 3.5-.1 4-.5 27.6 22.1 16.9 3.1 2.4 1.7 3.6 11.6 25.2 27.3 5.7 3.9 .8 3 2.5 21.5 17.7 27.1-6.7 3.8-.9 3.8 .9 27.1 6.7 21.5-17.7 3-2.5 3.9-.8 27.3-5.7 11.6-25.2 1.7-3.6 3.1-2.4 3.1-2.3c.2-11.8 .4-23.5 .6-35.3L244.4 360l19.2-39.1c-.2-11.7-.4-23.5-.6-35.3l-3.1-2.3-3.1-2.4-1.7-3.6-11.6-25.2-27.3-5.7-3.9-.8-3-2.5-21.5-17.7-27.1 6.7-3.8 .9-3.8-.9-27.1-6.7-21.5 17.7-3 2.5-3.9 .8-27.3 5.7L58.5 277.3l-1.7 3.6-3.1 2.4L31.7 300.2l.5 27.6 .1 4-1.8 3.5L17.9 360zM96 368a16 16 0 1 1 -32 0 16 16 0 1 1 32 0zm32 64a16 16 0 1 1 -32 0 16 16 0 1 1 32 0zm32-64a16 16 0 1 1 -32 0 16 16 0 1 1 32 0zm9.8-216l11.8 24.1c4.1-1 8.2-2.1 12.3-3.1l33.3 28.2 42.1 9.1 18 40.1L292 254l4.7-3.7 18-40.1 42.1-9.1 33.3-28.2c11.4 2.9 22.8 5.8 34.2 8.7l0-1.3 1.7-3.5L438.2 152 426 127.1l-1.7-3.5 .1-3.9 .5-27.8L403.4 75.1l-3.1-2.4-1.6-3.6L387.5 44l-26.2-5.6-3.9-.8L354.3 35 333.8 17.5l-25.8 6.5-3.9 1-3.9-1-25.8-6.5L253.7 35l-3.1 2.6-3.9 .8L220.5 44 209.3 69.1l-1.6 3.6-3.1 2.4L183.2 92l.5 27.8 .1 3.9-1.7 3.5L169.8 152zm86.2-8a16 16 0 1 1 -32 0 16 16 0 1 1 32 0zm41.8 216L310 384.9l1.7 3.5-.1 3.9-.5 27.8 21.4 16.9 3.1 2.4 1.6 3.6L348.5 468l26.2 5.6 3.9 .8 3.1 2.6 20.6 17.4 25.8-6.5 3.9-1 3.9 1 25.8 6.5L482.3 477l3.1-2.6 3.9-.8 26.2-5.6 11.2-25.1 1.6-3.6 3.1-2.4L552.8 420l-.5-27.8c0-.3 0-.4 0-.5l.2-11.6c-11.6 5.1-25.7 4.9-39.7 1.1c-19.3-5.3-40.1-17.7-58.2-35.8s-30.5-38.9-35.8-58.2c-4.9-18.1-3.9-36.4 7-49.2l-25-11.3L381.7 243l-3.1 2.6-3.9 .8L348.5 252l-11.2 25.1-1.6 3.6-3.1 2.4L311.2 300l.5 27.8 .1 3.9-1.7 3.5L297.8 360zm86.2 8a16 16 0 1 1 -32 0 16 16 0 1 1 32 0zm32 64a16 16 0 1 1 -32 0 16 16 0 1 1 32 0z"/><path class="fa-primary" d="M167.7 120.1L152 152l13.8 28.1L178 177l3.7-.9L169.8 152 182 127.1l1.7-3.5-.1-3.9L183.2 92l21.4-16.9 3.1-2.4 1.6-3.6L220.5 44l26.2-5.6 3.9-.8 3.1-2.6 20.6-17.4 25.8 6.5 3.9 1 3.9-1 25.8-6.5L354.3 35l3.1 2.6 3.9 .8L387.5 44l11.2 25.1 1.6 3.6 3.1 2.4L424.8 92l-.5 27.8-.1 3.9 1.7 3.5L438.2 152 426 176.9l-1.7 3.5 0 1.3 7.7 2 9.7-2.5L456 152l-15.7-31.9 .6-35.7L413.3 62.6 398.8 30.1l-34.1-7.3L337.8 0 304 8.6 270.2 0 243.3 22.8l-34.1 7.3L194.7 62.6 167.1 84.4l.6 35.7zm102.6 151l-.7-.6-15-32.5-35.2-7.3L191.7 208l-34.9 8.6L121.9 208 94.2 230.8 59 238.1 44 270.6 15.5 292.4l.6 35.7L0 360l16.2 31.9-.6 35.7L44 449.4l15 32.5 35.2 7.3L121.9 512l34.9-8.6 34.9 8.6 27.7-22.8 35.2-7.3 15-32.5 .7-.6-7.5-5.9 .1-8.6-3.1 2.3-3.1 2.4-1.7 3.6-11.6 25.2-27.3 5.7-3.9 .8-3 2.5-21.5 17.7-27.1-6.7-3.8-.9-3.8 .9-27.1 6.7-21.5-17.7-3-2.5-3.9-.8-27.3-5.7L58.5 442.7l-1.7-3.6-3.1-2.4L31.7 419.8l.5-27.6 .1-4-1.8-3.5L17.9 360l12.5-24.7 1.8-3.5-.1-4-.5-27.6 22.1-16.9 3.1-2.4 1.7-3.6 11.6-25.2 27.3-5.7 3.9-.8 3-2.5 21.5-17.7 27.1 6.7 3.8 .9 3.8-.9 27.1-6.7 21.5 17.7 3 2.5 3.9 .8 27.3 5.7 11.6 25.2 1.7 3.6 3.1 2.4 3.1 2.3-.1-8.6 7.5-5.9zm25.4 57L280 360l15.7 31.9-.6 35.7 27.6 21.8 14.6 32.5 34.1 7.3L398.2 512l33.8-8.6 33.8 8.6 26.9-22.8 34.1-7.3 14.6-32.5 27.6-21.8-.6-35.7 .4-25.2c8.5-12.5 9-29.3 4.5-45.9c-5.3-19.3-17.7-40.1-35.8-58.2s-38.9-30.5-58.2-35.8c-13.3-3.6-26.9-4-38.2 .4L398.2 208l-26.9 22.8-34.1 7.3-14.6 32.5-27.6 21.8 .6 35.7zM425.9 238c-10.9 12.7-11.9 31.1-7 49.2c5.3 19.3 17.7 40.1 35.8 58.2s38.9 30.5 58.2 35.8c13.9 3.8 28.1 4.1 39.7-1.1l-.2 11.6 0 .2 0 .2 .5 27.8-21.4 16.9-3.1 2.4-1.6 3.6L515.5 468l-26.2 5.6-3.9 .8-3.1 2.6-20.6 17.4-25.8-6.5-3.9-1-3.9 1-25.8 6.5L381.7 477l-3.1-2.6-3.9-.8L348.5 468l-11.2-25.1-1.6-3.6-3.1-2.4L311.2 420l.5-27.8 .1-3.9-1.7-3.5L297.8 360 310 335.1l1.7-3.5-.1-3.9-.5-27.8 21.4-16.9 3.1-2.4 1.6-3.6L348.5 252l26.2-5.6 3.9-.8 3.1-2.6 19.2-16.2 25 11.3zM240 160a16 16 0 1 0 0-32 16 16 0 1 0 0 32zM80 384a16 16 0 1 0 0-32 16 16 0 1 0 0 32zm32 64a16 16 0 1 0 0-32 16 16 0 1 0 0 32zm48-80a16 16 0 1 0 -32 0 16 16 0 1 0 32 0zm224 0a16 16 0 1 0 -32 0 16 16 0 1 0 32 0zm16 80a16 16 0 1 0 0-32 16 16 0 1 0 0 32zm39.2-200.8c7-7 19.3-9.4 35.8-4.9c16.2 4.4 34.6 15.2 51.1 31.7s27.3 34.9 31.7 51.1c4.5 16.5 2.1 28.8-4.9 35.8s-19.3 9.4-35.8 4.9c-16.2-4.4-34.6-15.2-51.1-31.7s-27.3-34.9-31.7-51.1c-4.5-16.5-2.1-28.8 4.9-35.8z"/></svg>