<svg xmlns="http://www.w3.org/2000/svg" viewBox="0 0 576 512"><!--! Font Awesome Pro 6.7.2 by @fontawesome - https://fontawesome.com License - https://fontawesome.com/license (Commercial License) Copyright 2024 Fonticons, Inc. --><defs><style>.fa-secondary{opacity:.4}</style></defs><path class="fa-secondary" d="M0 400l0 96 8 0 383.5 0L545.4 390.2l-27.2-39.6-116.3 80-2 1.4-2.5 0L248 432l-8 0 0-8 0-40 0-8 8 0 120 0 0-40-213.6 0L76.6 398.2 74.4 400l-2.8 0L8 400l-8 0z"/><path class="fa-primary" d="M250.7-1.3l-8 0 0 8 0 76-76 0-8 0 0 8 0 74.7 0 8 8 0 76 0 0 76 0 8 8 0 74.7 0 8 0 0-8 0-76 76 0 8 0 0-8 0-74.7 0-8-8 0-76 0 0-76 0-8-8 0-74.7 0zm8 92l0-76 58.7 0 0 76 0 8 8 0 76 0 0 58.7-76 0-8 0 0 8 0 76-58.7 0 0-76 0-8-8 0-76 0 0-58.7 76 0 8 0 0-8zM151.6 320l-2.8 0-2.2 1.8L68.8 384 8 384l-8 0 0 16 8 0 63.6 0 2.8 0 2.2-1.8L154.4 336 368 336l0 40-120 0-8 0 0 8 0 40 0 8 8 0 149.3 0 2.5 0 2-1.4 116.3-80 27.2 39.6L391.5 496 8 496l-8 0 0 16 8 0 385.9 0 2.5 0 2-1.4L561 398.8l6.6-4.5-4.5-6.6L526.8 335l-4.5-6.6-6.6 4.5L394.8 416 256 416l0-24 120 0 8 0 0-8 0-56 0-8-8 0-224.4 0z"/></svg>