<svg xmlns="http://www.w3.org/2000/svg" viewBox="0 0 512 512"><!--! Font Awesome Pro 6.7.2 by @fontawesome - https://fontawesome.com License - https://fontawesome.com/license (Commercial License) Copyright 2024 Fonticons, Inc. --><defs><style>.fa-secondary{opacity:.4}</style></defs><path class="fa-secondary" d="M16 224c0 55.7 22.7 108.1 61.7 147.9l2.3 2.3 0 3.3L80 504l0 8 224 0 0-8 0-64 0-8 8 0 120 0 0-104 0-8 8 0 56 0 0-64-69.3-61.6-2.6-2.3-.1-3.4C420.5 93.9 343.7 16 248 16l-24 0C109.1 16 16 109.1 16 224zm336-16a16 16 0 1 1 -32 0 16 16 0 1 1 32 0z"/><path class="fa-primary" d="M16 224C16 109.1 109.1 16 224 16l24 0c95.7 0 172.5 77.9 176 172.7l.1 3.4 2.6 2.3L496 256l0 64-56 0-8 0 0 8 0 104-120 0-8 0 0 8 0 64 0 8 16 0 0-8 0-56 120 0 8 0 0-8 0-104 56 0 8 0 0-8 0-75.6 0-3.6-2.7-2.4-69.5-61.8C434.3 83.3 351.6 0 248 0L224 0C100.3 0 0 100.3 0 224c0 59.1 23.7 114.5 64 156.7L64 504l0 8 16 0 0-8 0-126.5 0-3.3-2.3-2.3C38.7 332.1 16 279.7 16 224zm320 0a16 16 0 1 0 0-32 16 16 0 1 0 0 32z"/></svg>