<svg xmlns="http://www.w3.org/2000/svg" width="24" height="24" viewBox="0 0 512 512"><path class="pr-icon-duotone-secondary" d="M16 122.5L16 144l480 0 0-21.5L256 17.5 16 122.5zM80 192l0 8 0 168 104 0 0-168 0-8L80 192zm120 0l0 8 0 168 112 0 0-168 0-8-112 0zm128 0l0 8 0 168 104 0 0-168 0-8-104 0z"/><path class="pr-icon-duotone-primary" d="M16 144l480 0 0-21.5L256 17.5 16 122.5 16 144zM0 112L256 0 512 112l0 32 0 16-16 0L16 160 0 160l0-16 0-32zm80 88l0 168 104 0 0-168 0-8 16 0 0 8 0 168 112 0 0-168 0-8 16 0 0 8 0 168 104 0 0-168 0-8 16 0 0 8 0 176 0 8-8 0-112 0-16 0-112 0-16 0L72 384l-8 0 0-8 0-176 0-8 16 0 0 8zM40 432l432 0 8 0 0 16-8 0L40 448l-8 0 0-16 8 0zM8 496l496 0 8 0 0 16-8 0L8 512l-8 0 0-16 8 0z"/></svg>