<svg xmlns="http://www.w3.org/2000/svg" viewBox="0 0 640 512"><!--! Font Awesome Pro 6.7.2 by @fontawesome - https://fontawesome.com License - https://fontawesome.com/license (Commercial License) Copyright 2024 Fonticons, Inc. --><defs><style>.fa-secondary{opacity:.4}</style></defs><path class="fa-secondary" d="M16 304l0 25.4L54.6 368 352 368l0-64L80 304l-16 0-48 0zM80 16l0 272 272 0 0-192 144 0 0-80L80 16z"/><path class="fa-primary" d="M80 16l416 0 0 80 16 0 0-80 0-16L496 0 80 0 64 0l0 16 0 272-48 0L0 288l0 16 0 32 48 48 304 0 0-16L54.6 368 16 329.4 16 304l48 0 16 0 272 0 0-16L80 288 80 16zM624 144l0 352-224 0 0-352 224 0zM384 512l16 0 224 0 16 0 0-16 0-352 0-16-16 0-224 0-16 0 0 16 0 352 0 16z"/></svg>