<svg xmlns="http://www.w3.org/2000/svg" viewBox="0 0 576 512"><!--! Font Awesome Pro 6.7.2 by @fontawesome - https://fontawesome.com License - https://fontawesome.com/license (Commercial License) Copyright 2024 Fonticons, Inc. --><defs><style>.fa-secondary{opacity:.4}</style></defs><path class="fa-secondary" d="M16 203.4l126.9-44.1c4.1 12.5 9.5 24.7 15.3 36.1c12.3 24.1 28.4 48.4 43.9 69.7c15.6 21.4 31.1 40.5 42.7 54.2c5.8 6.9 10.7 12.4 14.1 16.3c1.7 1.9 3.1 3.4 4 4.5l1.1 1.2c.1 .1 .2 .2 .4 .5L288 367.2c7.8-8.5 15.7-17 23.6-25.6l.3-.3 1.1-1.2c.9-1 2.3-2.6 4-4.5c3.4-3.9 8.3-9.4 14.1-16.3c11.6-13.7 27.1-32.8 42.7-54.2c14.3-19.7 29-41.8 40.9-64.1L560 150.5l0 286.1L400 492.3 400 288l-16 0 0 204.8L192 433.7 192 288l-16 0 0 145.8L16 489.5l0-286.1zM320 112a32 32 0 1 1 -64 0 32 32 0 1 1 64 0z"/><path class="fa-primary" d="M375 173.5c10.9-21.4 17-39.9 17-53.5c0-57.4-46.6-104-104-104s-104 46.6-104 104c0 13.6 6.1 32.1 17 53.5c10.7 21 25.2 43.1 39.9 63.3c14.7 20.2 29.4 38.3 40.5 51.4c2.4 2.8 4.6 5.3 6.5 7.6c2-2.3 4.2-4.8 6.5-7.6c11.1-13.1 25.8-31.2 40.5-51.4c14.7-20.3 29.2-42.3 39.9-63.3zM298.7 308c-6.6 7.6-10.7 12-10.7 12s-4.1-4.4-10.7-12C247.9 274.2 168 177.1 168 120C168 53.7 221.7 0 288 0s120 53.7 120 120c0 57.1-79.9 154.2-109.3 188zM560 150.5L414.8 201c1-1.9 2-3.8 3-5.7c2.4-4.8 4.8-9.7 7.1-14.7l135.2-47 16-5.6 0 16.9L576 448 392 512 184 448 16 506.4 0 512l0-16.9L0 192l138.7-48.2c1.1 5.2 2.5 10.3 4.2 15.5L16 203.4l0 286.1 160-55.7L176 288l16 0 0 145.7 192 59.1L384 288l16 0 0 204.3 160-55.7 0-286.1zM320 112a32 32 0 1 0 -64 0 32 32 0 1 0 64 0zm-80 0a48 48 0 1 1 96 0 48 48 0 1 1 -96 0z"/></svg>