<svg xmlns="http://www.w3.org/2000/svg" viewBox="0 0 512 512"><!--! Font Awesome Pro 6.7.2 by @fontawesome - https://fontawesome.com License - https://fontawesome.com/license (Commercial License) Copyright 2024 Fonticons, Inc. --><defs><style>.fa-secondary{opacity:.4}</style></defs><path class="fa-secondary" d="M16 256a240 240 0 1 0 480 0A240 240 0 1 0 16 256zM128 128l16 0 32 0 16 0 0 16 0 64 0 16-16 0-32 0-16 0 0-16 0-64 0-16zm96 0l16 0 32 0 16 0 0 16 0 64 0 16-16 0-32 0-16 0 0-16 0-64 0-16zm96 0l16 0 32 0 16 0 0 16 0 64 0 16-16 0-32 0-16 0 0-16 0-64 0-16z"/><path class="fa-primary" d="M496 256A240 240 0 1 0 16 256a240 240 0 1 0 480 0zM0 256a256 256 0 1 1 512 0A256 256 0 1 1 0 256zM144 144l0 64 32 0 0-64-32 0zm-16-16l16 0 32 0 16 0 0 16 0 64 0 16-16 0-32 0-16 0 0-16 0-64 0-16zm112 16l0 64 32 0 0-64-32 0zm0-16l32 0 16 0 0 16 0 64 0 16-16 0-32 0-16 0 0-16 0-64 0-16 16 0zm96 16l0 64 32 0 0-64-32 0zm-16-16l16 0 32 0 16 0 0 16 0 64 0 16-16 0-32 0-16 0 0-16 0-64 0-16z"/></svg>