<svg xmlns="http://www.w3.org/2000/svg" viewBox="0 0 576 512"><!--! Font Awesome Pro 6.7.2 by @fontawesome - https://fontawesome.com License - https://fontawesome.com/license (Commercial License) Copyright 2024 Fonticons, Inc. --><defs><style>.fa-secondary{opacity:.4}</style></defs><path class="fa-secondary" d="M16 80l544 0 0 352L16 432 16 80zm16 88l0 16 8 0 8 0c39.8 0 72-32.2 72-72l0-8 0-8-16 0 0 8 0 8c0 30.9-25.1 56-56 56l-8 0-8 0zm0 160l0 16 8 0 8 0c30.9 0 56 25.1 56 56l0 8 0 8 16 0 0-8 0-8c0-39.8-32.2-72-72-72l-8 0-8 0zm160-72a96 96 0 1 0 192 0 96 96 0 1 0 -192 0zM456 96l0 8 0 8c0 39.8 32.2 72 72 72l8 0 8 0 0-16-8 0-8 0c-30.9 0-56-25.1-56-56l0-8 0-8-16 0zm0 304l0 8 0 8 16 0 0-8 0-8c0-30.9 25.1-56 56-56l8 0 8 0 0-16-8 0-8 0c-39.8 0-72 32.2-72 72z"/><path class="fa-primary" d="M16 80l0 352 544 0 0-352L16 80zM0 64l16 0 544 0 16 0 0 16 0 352 0 16-16 0L16 448 0 448l0-16L0 80 0 64zM536 184l-8 0c-39.8 0-72-32.2-72-72l0-8 0-8 16 0 0 8 0 8c0 30.9 25.1 56 56 56l8 0 8 0 0 16-8 0zM32 184l0-16 8 0 8 0c30.9 0 56-25.1 56-56l0-8 0-8 16 0 0 8 0 8c0 39.8-32.2 72-72 72l-8 0-8 0zM536 328l8 0 0 16-8 0-8 0c-30.9 0-56 25.1-56 56l0 8 0 8-16 0 0-8 0-8c0-39.8 32.2-72 72-72l8 0zM32 328l8 0 8 0c39.8 0 72 32.2 72 72l0 8 0 8-16 0 0-8 0-8c0-30.9-25.1-56-56-56l-8 0-8 0 0-16zm336-72a80 80 0 1 0 -160 0 80 80 0 1 0 160 0zm-176 0a96 96 0 1 1 192 0 96 96 0 1 1 -192 0z"/></svg>