<svg xmlns="http://www.w3.org/2000/svg" viewBox="0 0 448 512"><!--! Font Awesome Pro 6.7.2 by @fontawesome - https://fontawesome.com License - https://fontawesome.com/license (Commercial License) Copyright 2024 Fonticons, Inc. --><defs><style>.fa-secondary{opacity:.4}</style></defs><path class="fa-secondary" d="M26.7 256L112 320l0-128L26.7 256z"/><path class="fa-primary" d="M0 56L0 72l8 0 432 0 8 0 0-16-8 0L8 56 0 56zM192 184l0 16 8 0 240 0 8 0 0-16-8 0-240 0-8 0zm8 128l-8 0 0 16 8 0 240 0 8 0 0-16-8 0-240 0zM0 440l0 16 8 0 432 0 8 0 0-16-8 0L8 440l-8 0zM13.3 246L0 256l13.3 10L112 340l16 12 0-20 0-152 0-20-16 12L13.3 246zM112 192l0 128L26.7 256 112 192z"/></svg>