<svg xmlns="http://www.w3.org/2000/svg" viewBox="0 0 640 512"><!--! Font Awesome Pro 6.7.2 by @fontawesome - https://fontawesome.com License - https://fontawesome.com/license (Commercial License) Copyright 2024 Fonticons, Inc. --><defs><style>.fa-secondary{opacity:.4}</style></defs><path class="fa-secondary" d="M67.1 368l52.5-157.5 2.5-7.6-15.1-5L125.1 144l69.2 0c6.2 18 12.4 35.9 18.8 53.9l-15.2 5.1 2.5 7.6L252.9 368 232 368l-16 0-32 0-16 0-16 0-16 0-32 0-16 0-20.9 0zM104 384l32 0 0 112-32 0 0-112zM200 56a40 40 0 1 1 -80 0 40 40 0 1 1 80 0zM184 384l32 0 0 112-32 0 0-112zm203.1-16l52.5-157.5 2.5-7.6-15.1-5L445.1 144l69.2 0c6.2 18 12.4 35.9 18.8 53.9l-15.2 5.1 2.5 7.6L572.9 368 552 368l-16 0-32 0-16 0-16 0-16 0-32 0-16 0-20.9 0zM424 384l32 0 0 112-32 0 0-112zM520 56a40 40 0 1 1 -80 0 40 40 0 1 1 80 0zM504 384l32 0 0 112-32 0 0-112zm31.5-178.9c.2 .6 .4 1.2 .6 1.9l-.5-1.5-.1-.3z"/><path class="fa-primary" d="M120 56a40 40 0 1 1 80 0 40 40 0 1 1 -80 0zm96 0A56 56 0 1 0 104 56a56 56 0 1 0 112 0zM119.6 210.5l2.5-7.6-15.2-5.1-2.5 7.6-56 168L44.9 384 56 384l32 0 0 120 0 8 8 0 48 0 8 0 0-8 0-120 16 0 0 120 0 8 8 0 48 0 8 0 0-8 0-120 32 0 11.1 0-3.5-10.5-56-168-2.5-7.6-15.2 5.1 2.5 7.6L252.9 368 232 368l-16 0-32 0-16 0-16 0-16 0-32 0-16 0-20.9 0 52.5-157.5zM104 496l0-112 32 0 0 112-32 0zm80-112l32 0 0 112-32 0 0-112zM95.9 128l-2.2 4.5L8.8 308.5l-3.5 7.2 14.4 7 3.5-7.2L105.9 144l108.1 0 82.7 171.5 3.5 7.2 14.4-7-3.5-7.2-84.9-176-2.2-4.5-5 0-118.2 0-5 0zM440 56a40 40 0 1 1 80 0 40 40 0 1 1 -80 0zm96 0A56 56 0 1 0 424 56a56 56 0 1 0 112 0zM439.6 210.5l2.5-7.6-15.2-5.1-2.5 7.6-56 168L364.9 384l11.1 0 32 0 0 120 0 8 8 0 48 0 8 0 0-8 0-120 16 0 0 120 0 8 8 0 48 0 8 0 0-8 0-120 32 0 11.1 0-3.5-10.5-56-168-2.5-7.6-15.2 5.1 2.5 7.6L572.9 368 552 368l-16 0-32 0-16 0-16 0-16 0-32 0-16 0-20.9 0 52.5-157.5zM424 496l0-112 32 0 0 112-32 0zm80-112l32 0 0 112-32 0 0-112zM415.9 128l-2.2 4.5-84.9 176-3.5 7.2 14.4 7 3.5-7.2L425.9 144l108.1 0 82.7 171.5 3.5 7.2 14.4-7-3.5-7.2-84.9-176-2.2-4.5-5 0-118.2 0-5 0z"/></svg>