<svg xmlns="http://www.w3.org/2000/svg" viewBox="0 0 512 512"><!--! Font Awesome Pro 6.7.2 by @fontawesome - https://fontawesome.com License - https://fontawesome.com/license (Commercial License) Copyright 2024 Fonticons, Inc. --><defs><style>.fa-secondary{opacity:.4}</style></defs><path class="fa-secondary" d="M16 216l0 80 304 0 16 0 0 16 0 88 9.4 0 144-144-144-144-9.4 0 0 88 0 16-16 0L16 216z"/><path class="fa-primary" d="M336 216l-16 0L16 216l0 80 304 0 16 0 0 16 0 88 9.4 0 144-144-144-144-9.4 0 0 88 0 16zM352 96L500.7 244.7 512 256l-11.3 11.3L352 416l-16 0-16 0 0-16 0-72 0-16-16 0L16 312 0 312l0-16 0-80 0-16 16 0 288 0 16 0 0-16 0-72 0-16 16 0 16 0z"/></svg>