<svg xmlns="http://www.w3.org/2000/svg" viewBox="0 0 512 512"><!--! Font Awesome Pro 6.7.2 by @fontawesome - https://fontawesome.com License - https://fontawesome.com/license (Commercial License) Copyright 2024 Fonticons, Inc. --><defs><style>.fa-secondary{opacity:.4}</style></defs><path class="fa-secondary" d="M32 256.6c0-23.3 3.6-45.8 10-67l15.3 4.7C83.5 109.6 162.6 48 256 48c65.3 0 123.6 30.1 161.7 77.2L456 176l-80 0-8 0 0 16 8 0 95.8 0c6.1 20.5 9.4 42.2 9.4 64.6c0 22.9-3.4 44.9-9.6 65.7l-15.3-4.7C430.1 402.4 351 464 257.6 464c-65.3 0-123.6-30.1-161.7-77.2L57.7 336l78.3 0 8 0 0-16-8 0-94.9 0c-5.9-20.1-9.1-41.4-9.1-63.4zM240 336l0 32 32 0 0-32-32 0zm8-208l0 8 0 160 0 8 16 0 0-8 0-160 0-8-16 0z"/><path class="fa-primary" d="M256 48c65.3 0 123.6 30.1 161.7 77.2L456 176l-80 0-8 0 0 16 8 0 96 0 8 0 0-8 0-96 0-8-16 0 0 8 0 72.1-33.6-44.6s0 0 0 0l-.2-.2C389.2 64.5 326.4 32 256 32C155.4 32 70.3 98.3 42 189.6l15.3 4.7C83.5 109.6 162.6 48 256 48zm8 88l0-8-16 0 0 8 0 160 0 8 16 0 0-8 0-160zm8 200l-32 0 0 32 32 0 0-32zM32 424l0 8 16 0 0-8 0-74.2 35.2 46.8s0 0 0 0l.2 .2C124.4 447.5 187.2 480 257.6 480c100.6 0 185.7-66.3 214-157.6l-15.3-4.7C430.1 402.4 351 464 257.6 464c-65.3 0-123.6-30.1-161.7-77.2L57.7 336l78.3 0 8 0 0-16-8 0-96 0-8 0 0 8 0 96z"/></svg>