<svg xmlns="http://www.w3.org/2000/svg" viewBox="0 0 448 512"><!--! Font Awesome Pro 6.7.2 by @fontawesome - https://fontawesome.com License - https://fontawesome.com/license (Commercial License) Copyright 2024 Fonticons, Inc. --><defs><style>.fa-secondary{opacity:.4}</style></defs><path class="fa-secondary" d="M16 416a48 48 0 1 0 96 0 48 48 0 1 0 -96 0z"/><path class="fa-primary" d="M0 32c-4.4 0-8 3.6-8 8s3.6 8 8 8c238.6 0 432 193.4 432 432c0 4.4 3.6 8 8 8s8-3.6 8-8C448 232.6 247.4 32 0 32zM0 176c-4.4 0-8 3.6-8 8s3.6 8 8 8c159.1 0 288 128.9 288 288c0 4.4 3.6 8 8 8s8-3.6 8-8C304 312.1 167.9 176 0 176zM16 416a48 48 0 1 1 96 0 48 48 0 1 1 -96 0zm112 0A64 64 0 1 0 0 416a64 64 0 1 0 128 0z"/></svg>