<svg xmlns="http://www.w3.org/2000/svg" width="24" height="24" viewBox="0 0 512 512"><path class="pr-icon-duotone-secondary" d="M16 16l320 0 0 112-48 0 0-48 0-16-16 0L80 64 64 64l0 16 0 192 0 16 16 0 48 0 0 48L16 336 16 16zM80 80l192 0 0 48-144 0 0 144-48 0L80 80z"/><path class="pr-icon-duotone-primary" d="M336 16L16 16l0 320 112 0 0 16L16 352 0 352l0-16L0 16 0 0 16 0 336 0l16 0 0 16 0 112-16 0 0-112zM288 128l-16 0 0-48L80 80l0 192 48 0 0 16-48 0-16 0 0-16L64 80l0-16 16 0 192 0 16 0 0 16 0 48zM160 160l16 0 320 0 16 0 0 16 0 320 0 16-16 0-320 0-16 0 0-16 0-320 0-16zm16 16l0 320 320 0 0-320-320 0z"/></svg>