<svg xmlns="http://www.w3.org/2000/svg" viewBox="0 0 640 512"><!--! Font Awesome Pro 6.7.2 by @fontawesome - https://fontawesome.com License - https://fontawesome.com/license (Commercial License) Copyright 2024 Fonticons, Inc. --><defs><style>.fa-secondary{opacity:.4}</style></defs><path class="fa-secondary" d="M48 400l64 0 0 96-64 0 0-96zM208 272l64 0 0 224-64 0 0-224zM368 144l64 0 0 352-64 0 0-352zM528 16l64 0 0 480-64 0 0-480z"/><path class="fa-primary" d="M528 16l0 480 64 0 0-480-64 0zM512 0l16 0 64 0 16 0 0 16 0 480 0 16-16 0-64 0-16 0 0-16 0-480 0-16zM432 144l-64 0 0 352 64 0 0-352zm-64-16l64 0 16 0 0 16 0 352 0 16-16 0-64 0-16 0 0-16 0-352 0-16 16 0zM208 272l0 224 64 0 0-224-64 0zm-16-16l16 0 64 0 16 0 0 16 0 224 0 16-16 0-64 0-16 0 0-16 0-224 0-16zM48 400l0 96 64 0 0-96-64 0zM32 384l16 0 64 0 16 0 0 16 0 96 0 16-16 0-64 0-16 0 0-16 0-96 0-16z"/></svg>