<svg xmlns="http://www.w3.org/2000/svg" viewBox="0 0 448 512"><!--! Font Awesome Pro 6.7.2 by @fontawesome - https://fontawesome.com License - https://fontawesome.com/license (Commercial License) Copyright 2024 Fonticons, Inc. --><defs><style>.fa-secondary{opacity:.4}</style></defs><path class="fa-secondary" d="M16 48l0 416 416 0 0-416L16 48zM92.7 160.5l10.9-11.8 5.9 5.4 104 96 6.4 5.9-6.4 5.9-104 96-5.9 5.4L92.7 351.5l5.9-5.4L196.2 256 98.6 165.9l-5.9-5.4zM192 368l8 0 176 0 8 0 0 16-8 0-176 0-8 0 0-16z"/><path class="fa-primary" d="M432 48l0 416L16 464 16 48l416 0zM16 32L0 32 0 48 0 464l0 16 16 0 416 0 16 0 0-16 0-416 0-16-16 0L16 32zM92.7 160.5l5.9 5.4L196.2 256 98.6 346.1l-5.9 5.4 10.9 11.8 5.9-5.4 104-96 6.4-5.9-6.4-5.9-104-96-5.9-5.4L92.7 160.5zM200 368l-8 0 0 16 8 0 176 0 8 0 0-16-8 0-176 0z"/></svg>