<svg xmlns="http://www.w3.org/2000/svg" width="24" height="24" viewBox="0 0 448 512"><path class="pr-icon-duotone-secondary" d="M16 48l416 0 0 416L16 464 16 48zm104 80l0 16 8 0 175.4 0L121.8 371l-1.8 2.2 0 10.8 8 0 192 0 8 0 0-16-8 0-175.4 0L326.2 141l1.8-2.2 0-10.8-8 0-192 0-8 0z"/><path class="pr-icon-duotone-primary" d="M16 48l0 416 416 0 0-416L16 48zM0 32l16 0 416 0 16 0 0 16 0 416 0 16-16 0L16 480 0 480l0-16L0 48 0 32zm320 96l8 0 0 10.8-1.8 2.2L144.6 368 320 368l8 0 0 16-8 0-192 0-8 0 0-10.8 1.8-2.2L303.4 144 128 144l-8 0 0-16 8 0 192 0z"/></svg>