<svg xmlns="http://www.w3.org/2000/svg" viewBox="0 0 448 512"><path class="pr-icon-duotone-secondary" d="M16 48l416 0 0 416L16 464 16 48zM96 224l0 16 0 16 0 96 0 16 0 16 16 0 32 0 16 0 0-16 0-16 0-96 0-16 0-16-16 0-32 0-16 0zm96-96l0 16 0 16 0 192 0 16 0 16 16 0 32 0 16 0 0-16 0-16 0-192 0-16 0-16-16 0-32 0-16 0zm96 160l0 16 0 16 0 32 0 16 0 16 16 0 32 0 16 0 0-16 0-16 0-32 0-16 0-16-16 0-32 0-16 0z"/><path class="pr-icon-duotone-primary" d="M16 48l0 416 416 0 0-416L16 48zM0 32l16 0 416 0 16 0 0 16 0 416 0 16-16 0L16 480 0 480l0-16L0 48 0 32zM112 368l32 0 0-16 0-96 0-16-32 0 0 16 0 96 0 16zm48-144l0 16 0 16 0 96 0 16 0 16-16 0-32 0-16 0 0-16 0-16 0-96 0-16 0-16 16 0 32 0 16 0zm48 144l32 0 0-16 0-192 0-16-32 0 0 16 0 192 0 16zm96 0l32 0 0-16 0-32 0-16-32 0 0 16 0 32 0 16zM192 352l0-192 0-16 0-16 16 0 32 0 16 0 0 16 0 16 0 192 0 16 0 16-16 0-32 0-16 0 0-16 0-16zm96 0l0-32 0-16 0-16 16 0 32 0 16 0 0 16 0 16 0 32 0 16 0 16-16 0-32 0-16 0 0-16 0-16z"/></svg>