<svg xmlns="http://www.w3.org/2000/svg" viewBox="0 0 448 512"><!--! Font Awesome Pro 6.7.2 by @fontawesome - https://fontawesome.com License - https://fontawesome.com/license (Commercial License) Copyright 2024 Fonticons, Inc. --><defs><style>.fa-secondary{opacity:.4}</style></defs><path class="fa-secondary" d="M16 48l416 0 0 416L16 464 16 48zM128 272l0 8 0 16c0 48.6 39.4 88 88 88l8 0 0-.4c44.9-4 80-41.7 80-87.6l0-160 0-8-16 0 0 8 0 160c0 39.8-32.2 72-72 72s-72-32.2-72-72l0-16 0-8-16 0z"/><path class="fa-primary" d="M16 48l0 416 416 0 0-416L16 48zM0 32l16 0 416 0 16 0 0 16 0 416 0 16-16 0L16 480 0 480l0-16L0 48 0 32zM304 136l0 160c0 45.9-35.1 83.6-80 87.6l0 .4-8 0c-48.6 0-88-39.4-88-88l0-16 0-8 16 0 0 8 0 16c0 39.8 32.2 72 72 72s72-32.2 72-72l0-160 0-8 16 0 0 8z"/></svg>