<svg xmlns="http://www.w3.org/2000/svg" viewBox="0 0 448 512"><!--! Font Awesome Pro 6.7.2 by @fontawesome - https://fontawesome.com License - https://fontawesome.com/license (Commercial License) Copyright 2024 Fonticons, Inc. --><defs><style>.fa-secondary{opacity:.4}</style></defs><path class="fa-secondary" d="M16 48l416 0 0 416L16 464 16 48zm112 80l0 8 0 240 0 8 8 0 88 0c70.7 0 128-57.3 128-128s-57.3-128-128-128l-88 0-8 0zm16 16l80 0c61.9 0 112 50.1 112 112s-50.1 112-112 112l-80 0 0-224z"/><path class="fa-primary" d="M16 48l0 416 416 0 0-416L16 48zM0 32l16 0 416 0 16 0 0 16 0 416 0 16-16 0L16 480 0 480l0-16L0 48 0 32zm136 96l88 0c70.7 0 128 57.3 128 128s-57.3 128-128 128l-88 0-8 0 0-8 0-240 0-8 8 0zm8 240l80 0c61.9 0 112-50.1 112-112s-50.1-112-112-112l-80 0 0 224z"/></svg>