<svg xmlns="http://www.w3.org/2000/svg" viewBox="0 0 448 512"><!--! Font Awesome Pro 6.7.2 by @fontawesome - https://fontawesome.com License - https://fontawesome.com/license (Commercial License) Copyright 2024 Fonticons, Inc. --><defs><style>.fa-secondary{opacity:.4}</style></defs><path class="fa-secondary" d="M16 48l0 416 416 0 0-416L16 48zm96 64l8 0 96 0 8 0 0 8 0 112 0 8-8 0-96 0-8 0 0-8 0-112 0-8zm16 16l0 96 80 0 0-96-80 0zm0 152l8 0 32 0 8 0 0 8 0 112 0 8-16 0 0-8 0-104-24 0-8 0 0-16zm96 0l8 0 96 0 8 0 0 8 0 112 0 8-8 0-96 0-8 0 0-8 0-112 0-8zm16 16l0 96 80 0 0-96-80 0zm16-184l8 0 32 0 8 0 0 8 0 112 0 8-16 0 0-8 0-104-24 0-8 0 0-16z"/><path class="fa-primary" d="M432 48l0 416L16 464 16 48l416 0zM16 32L0 32 0 48 0 464l0 16 16 0 416 0 16 0 0-16 0-416 0-16-16 0L16 32zm96 80l0 8 0 112 0 8 8 0 96 0 8 0 0-8 0-112 0-8-8 0-96 0-8 0zm16 16l80 0 0 96-80 0 0-96zM232 280l-8 0 0 8 0 112 0 8 8 0 96 0 8 0 0-8 0-112 0-8-8 0-96 0zm8 112l0-96 80 0 0 96-80 0zM128 280l0 16 8 0 24 0 0 104 0 8 16 0 0-8 0-112 0-8-8 0-32 0-8 0zM264 112l-8 0 0 16 8 0 24 0 0 104 0 8 16 0 0-8 0-112 0-8-8 0-32 0z"/></svg>