<svg xmlns="http://www.w3.org/2000/svg" width="24" height="24" viewBox="0 0 448 512">
    <path class="pr-icon-duotone-secondary" d="M16 48l416 0 0 416L16 464 16 48zM96 232l0 8 0 16 16 0 48 0 16 0 0 16 0 96 0 16 16 0 64 0 16 0 0-16 0-96 0-16 16 0 48 0 16 0 0-16 0-8L235.3 115.3 224 104l-11.3 11.3L96 232z"/>
    <path class="pr-icon-duotone-primary" d="M16 48l0 416 416 0 0-416L16 48zM0 32l16 0 416 0 16 0 0 16 0 416 0 16-16 0L16 480 0 480l0-16L0 48 0 32zM192 256l0 112 64 0 0-112 0-16 16 0 64 0 0-1.4-112-112-112 112 0 1.4 64 0 16 0 0 16zm20.7-140.7L224 104l11.3 11.3L352 232l0 8 0 16-16 0-48 0-16 0 0 16 0 96 0 16-16 0-64 0-16 0 0-16 0-96 0-16-16 0-48 0-16 0 0-16 0-8L212.7 115.3z"/>
</svg>