<svg xmlns="http://www.w3.org/2000/svg" viewBox="0 0 512 512"><!--! Font Awesome Pro 6.7.2 by @fontawesome - https://fontawesome.com License - https://fontawesome.com/license (Commercial License) Copyright 2024 Fonticons, Inc. --><defs><style>.fa-secondary{opacity:.4}</style></defs><path class="fa-secondary" d="M16 48l0 112 480 0 0-112L16 48zm0 128l0 288 128 0 0-288L16 176zm144 0l0 288 336 0 0-288-336 0z"/><path class="fa-primary" d="M16 48l480 0 0 112L16 160 16 48zm0 416l0-288 128 0 0 288L16 464zm144 0l0-288 336 0 0 288-336 0zM0 464l0 16 16 0 480 0 16 0 0-16 0-416 0-16-16 0L16 32 0 32 0 48 0 464z"/></svg>