<svg xmlns="http://www.w3.org/2000/svg" viewBox="0 0 448 512"><!--! Font Awesome Pro 6.7.2 by @fontawesome - https://fontawesome.com License - https://fontawesome.com/license (Commercial License) Copyright 2024 Fonticons, Inc. --><defs><style>.fa-secondary{opacity:.4}</style></defs><path class="fa-secondary" d="M40 112L79.2 496l289.5 0L408 112 40 112zm88 168l8 0 80 0 0-80 0-8 16 0 0 8 0 80 80 0 8 0 0 16-8 0-80 0 0 80 0 8-16 0 0-8 0-80-80 0-8 0 0-16zm6.4-216l179.1 0-30-48L164.4 16l-30 48z"/><path class="fa-primary" d="M160 0l-4.4 0-2.4 3.8L115.6 64 0 64 0 80l448 0 0-16L332.4 64 294.8 3.8 292.4 0 288 0 160 0zM313.6 64L134.4 64l30-48 119.1 0 30 48zM24 112l.1 .8 40 392 .7 7.2 7.2 0 304 0 7.2 0 .7-7.2 40-392 .1-.8L408 112 368.8 496 79.2 496 40 112 24 112zm208 80l-16 0 0 8 0 80-80 0-8 0 0 16 8 0 80 0 0 80 0 8 16 0 0-8 0-80 80 0 8 0 0-16-8 0-80 0 0-80 0-8z"/></svg>