<svg xmlns="http://www.w3.org/2000/svg" viewBox="0 0 448 512"><!--! Font Awesome Pro 6.7.2 by @fontawesome - https://fontawesome.com License - https://fontawesome.com/license (Commercial License) Copyright 2024 Fonticons, Inc. --><defs><style>.fa-secondary{opacity:.4}</style></defs><path class="fa-secondary" d="M21.7 496l404.7 0L372.2 320 330 320l-14.1 0c-.6-4.7-1.2-9.3-1.8-14c-.9-7.3-1.8-14.5-2.7-21.8c-.4-2.9-.7-5.7-1.1-8.6c2.2-1.9 4.4-3.7 6.6-5.6c31.3-26.4 51.1-65.9 51.1-110c0-79.5-64.5-144-144-144c-39.8 0-75.8 16.1-101.8 42.2c-13 13-23.6 28.5-30.9 45.8c-3.6 8.6-6.5 17.7-8.4 27c-1 4.7-1.7 9.5-2.2 14.3c-.2 2.4-.4 4.9-.6 7.3c-.1 1.2-.1 2.4-.1 3.7c0 1.2 0 2.5 0 3.7c0 1.4 0 2.8 .1 4.2c0 1.4 .1 2.7 .2 4.1c.2 2.7 .4 5.4 .7 8.1c.6 5.3 1.5 10.6 2.7 15.8c2.3 10.3 5.8 20.2 10.2 29.5c8.9 18.7 21.6 35.2 37.2 48.4c2.2 1.9 4.4 3.7 6.6 5.6c-.4 2.9-.7 5.7-1.1 8.6c-.9 7.3-1.8 14.5-2.7 21.8c-.6 4.7-1.2 9.3-1.8 14L118 320l-42.2 0C57.8 378.7 39.7 437.3 21.7 496zM128.1 152.5c.1-1.6 .2-3.2 .4-4.7c.3-3.1 .8-6.2 1.5-9.3c1.3-6.1 3.2-11.9 5.6-17.5c4.9-11.2 11.9-21.2 20.6-29.7C173.5 74.4 197.5 64 224 64c53 0 96 41.8 96 93.3c0 37.3-24 70-48 93.3c-12 11.7-24 21-33 27.4c-4.5 3.2-8.2 5.7-10.9 7.4c-2.6 1.7-4.1 2.5-4.1 2.6c0 0-24-14-48-37.3c-12-11.7-24-25.7-33-41.4c-4.5-7.9-8.2-16.2-10.9-24.9c-1.3-4.3-2.3-8.8-3-13.3c-.4-2.3-.6-4.5-.8-6.8c-.1-1.1-.2-2.3-.2-3.4c0-1.2-.1-2.3-.1-3.5c0-1.6 0-3.2 .1-4.8zM144 368l16 0c0 2.7 0 5.3 0 8c0 21.3 0 42.7 0 64c0 2.7 0 5.3 0 8l-16 0c0-2.7 0-5.3 0-8c0-21.3 0-42.7 0-64c0-2.7 0-5.3 0-8zm144 0l16 0c0 2.7 0 5.3 0 8c0 21.3 0 42.7 0 64c0 2.7 0 5.3 0 8l-16 0c0-2.7 0-5.3 0-8c0-21.3 0-42.7 0-64c0-2.7 0-5.3 0-8z"/><path class="fa-primary" d="M310.3 275.6l6.6-5.6c31.3-26.4 51.1-65.9 51.1-110c0-79.5-64.5-144-144-144S80 80.5 80 160c0 44.1 19.8 83.6 51.1 110l6.6 5.6-1.1 8.6L133.9 306l-1.8 14L118 320l-42.2 0L21.7 496l404.7 0L372.2 320 330 320l-14.1 0-1.8-14-2.7-21.8-1.1-8.6zM384 304l59.1 192 4.9 16-16.7 0L16.7 512 0 512l4.9-16L64 304l54 0 2.7-21.8C86 252.9 64 209 64 160C64 71.6 135.6 0 224 0s160 71.6 160 160c0 49-22 92.9-56.7 122.2L330 304l54 0zM224 80c-44.6 0-80 35-80 77.3c0 30.6 20 59.3 43.2 81.9c11.3 11 22.6 19.8 31.1 25.9c2.1 1.5 4 2.8 5.7 4c1.7-1.1 3.6-2.5 5.7-4c8.5-6.1 19.9-14.9 31.1-25.9C284 216.7 304 188 304 157.3C304 115 268.6 80 224 80zm0 208s-96-56-96-130.7c0-51.5 43-93.3 96-93.3s96 41.8 96 93.3C320 232 224 288 224 288zm-64 88l0 64 0 8-16 0 0-8 0-64 0-8 16 0 0 8zm144 0l0 64 0 8-16 0 0-8 0-64 0-8 16 0 0 8z"/></svg>