<svg xmlns="http://www.w3.org/2000/svg" viewBox="0 0 640 512"><!--! Font Awesome Pro 6.7.2 by @fontawesome - https://fontawesome.com License - https://fontawesome.com/license (Commercial License) Copyright 2024 Fonticons, Inc. --><defs><style>.fa-secondary{opacity:.4}</style></defs><path class="fa-secondary" d="M21.7 496l384.5 0c-51.6-46.3-79.4-113.3-85.1-176L75.8 320 21.7 496zM112 128a112 112 0 1 0 224 0 112 112 0 1 0 -224 0z"/><path class="fa-primary" d="M112 128a112 112 0 1 1 224 0 112 112 0 1 1 -224 0zm240 0A128 128 0 1 0 96 128a128 128 0 1 0 256 0zM21.7 496L75.8 320l245.3 0c-.5-5.4-.8-10.7-1-16L64 304 4.9 496 0 512l16.7 0 409.4 0c-7-5-13.7-10.3-19.9-16L21.7 496zM624 290.7l0 5.3c0 76.9-40.9 162.4-120 195.9l0-247.6 120 46.5zm-256 0l120-46.5 0 247.6c-79.1-33.5-120-119-120-195.9l0-5.3zM496 512c96-32 144-130.2 144-216l0-16.2L496 224 352 279.8l0 16.2c0 85.8 48 184 144 216z"/></svg>