<svg xmlns="http://www.w3.org/2000/svg" viewBox="0 0 576 512"><!--! Font Awesome Pro 6.7.2 by @fontawesome - https://fontawesome.com License - https://fontawesome.com/license (Commercial License) Copyright 2024 Fonticons, Inc. --><defs><style>.fa-secondary{opacity:.4}</style></defs><path class="fa-secondary" d="M48 208l0 208c0 8.8 7.2 16 16 16l204 0c-7.8-19.8-12-41.4-12-64c0-71 42-132.2 102.6-160L48 208zm11.6-48L200 160l0-80-94.4 0c-6.3 0-12.1 3.7-14.6 9.5L59.6 160zM248 80l0 80 140.4 0L357 89.5c-2.6-5.8-8.3-9.5-14.6-9.5L248 80z"/><path class="fa-primary" d="M342.4 80c6.3 0 12.1 3.7 14.6 9.5L388.4 160 248 160l0-80 94.4 0zM48 208l310.6 0c22.3-10.3 47.2-16 73.4-16c5.4 0 10.7 .2 16 .7l0-3.1c0-9-1.9-17.8-5.5-26L400.9 70c-10.3-23.1-33.2-38-58.5-38L105.6 32C80.3 32 57.4 46.9 47.1 70L5.5 163.6c-3.6 8.2-5.5 17-5.5 26L0 416c0 35.3 28.7 64 64 64l232.2 0c-11.8-14.3-21.4-30.5-28.2-48L64 432c-8.8 0-16-7.2-16-16l0-208zm11.6-48L91 89.5c2.6-5.8 8.3-9.5 14.6-9.5L200 80l0 80L59.6 160zM576 368a144 144 0 1 0 -288 0 144 144 0 1 0 288 0zm-76.7-43.3c6.2 6.2 6.2 16.4 0 22.6l-72 72c-6.2 6.2-16.4 6.2-22.6 0l-40-40c-6.2-6.2-6.2-16.4 0-22.6s16.4-6.2 22.6 0L416 385.4l60.7-60.7c6.2-6.2 16.4-6.2 22.6 0z"/></svg>