<svg xmlns="http://www.w3.org/2000/svg" viewBox="0 0 576 512"><!--! Font Awesome Pro 6.7.2 by @fontawesome - https://fontawesome.com License - https://fontawesome.com/license (Commercial License) Copyright 2024 Fonticons, Inc. --><defs><style>.fa-secondary{opacity:.4}</style></defs><path class="fa-secondary" d="M92.9 384.5c8.9-.4 18 1 26.4 4.3c-8.5-3.3-17.5-4.7-26.4-4.3zM112 352l352 0c0 13-2.6 25.3-7.4 36.9c-4.7 1.8-9.2 4.3-13.5 7.3c-18 12.4-40.1 20.3-59.2 20.3c-19.6 0-40.8-7.7-59.2-20.3c-22.1-15.5-51.6-15.5-73.7 0c-17.1 11.8-38 20.3-59.2 20.3c-19 0-41.2-7.9-59.2-20.3c-4.3-3-8.8-5.4-13.5-7.3C114.6 377.4 112 365 112 352zm344.6 36.9c8.9-3.5 18.4-4.9 27.8-4.3c-9.4-.7-18.9 .7-27.8 4.3z"/><path class="fa-primary" d="M184 0c-13.3 0-24 10.7-24 24s10.7 24 24 24l12.1 0L142.2 304 96 304c-17.7 0-32 14.3-32 32l0 16c0 13.3 1.8 26.1 5.2 38.3c15.8-7.3 33.9-7.9 50.2-1.5c-4.7-11.3-7.3-23.8-7.3-36.8l352 0c0 13.1-2.6 25.5-7.3 36.9c16.2-6.4 34.4-5.8 50.2 1.5c3.4-12.2 5.2-25.1 5.2-38.3l0-16c0-17.7-14.3-32-32-32l-46.2 0L379.9 48 392 48c13.3 0 24-10.7 24-24s-10.7-24-24-24L184 0zM330.8 48l11.9 56.6L288 168.5l-54.8-63.9L245.2 48l85.7 0zM220.8 163.8l35.6 41.5-58.8 68.6 23.2-110.1zM288 242.2L341 304 235 304l53-61.8zm90.4 31.7l-58.8-68.6 35.6-41.5 23.2 110.1zM111.9 430.1c-9.1-8.1-22.8-8.1-31.9 0C62.8 445 41 456.8 18.8 461.8C5.9 464.7-2.3 477.5 .6 490.5s15.7 21.1 28.7 18.2C58 502.2 81.6 488.2 96 478.2c28.1 19.5 61.4 33.8 96 33.8s67.9-14.3 96-33.8c28.1 19.5 61.4 33.8 96 33.8s67.9-14.3 96-33.8c14.4 10 38 24 66.7 30.4c12.9 2.9 25.8-5.2 28.7-18.2s-5.2-25.8-18.2-28.7c-22-4.9-44.3-16.7-61.3-31.8c-9.1-8.1-22.8-8.1-31.9 0c-21.6 18.6-51.2 33.9-80 33.9s-58.5-15.3-80-33.9c-9.1-8.1-22.8-8.1-31.9 0c-21.5 18.6-51.2 33.9-80 33.9s-58.5-15.3-80-33.9z"/></svg>