<svg xmlns="http://www.w3.org/2000/svg" viewBox="0 0 640 512"><!--! Font Awesome Pro 6.7.2 by @fontawesome - https://fontawesome.com License - https://fontawesome.com/license (Commercial License) Copyright 2024 Fonticons, Inc. --><defs><style>.fa-secondary{opacity:.4}</style></defs><path class="fa-secondary" d="M50.7 464c9.5-36.8 42.9-64 82.6-64l53.3 0c39.8 0 73.2 27.2 82.6 64L50.7 464zM208 224a48 48 0 1 1 -96 0 48 48 0 1 1 96 0zm0-160c0-8.8 7.2-16 16-16l352 0c8.8 0 16 7.2 16 16l0 288c0 8.8-7.2 16-16 16l-32 0 0-40c0-30.9-25.1-56-56-56l-64 0c-30.9 0-56 25.1-56 56l0 40-64.9 0c-18.7-18.6-41.8-32.7-67.6-40.7C267.3 304.1 288 266.4 288 224c0-53.7-33.1-99.7-80-118.7L208 64z"/><path class="fa-primary" d="M576 48L224 48c-8.8 0-16 7.2-16 16l0 41.3c-14.8-6-31-9.3-48-9.3l0-32c0-35.3 28.7-64 64-64L576 0c35.3 0 64 28.7 64 64l0 288c0 35.3-28.7 64-64 64l-32 0-24 0-128 0-24 0-31.2 0c-8.3-18-19.8-34.2-33.7-48l64.9 0 0-40c0-30.9 25.1-56 56-56l64 0c30.9 0 56 25.1 56 56l0 40 32 0c8.8 0 16-7.2 16-16l0-288c0-8.8-7.2-16-16-16zM496 368l0-40c0-4.4-3.6-8-8-8l-64 0c-4.4 0-8 3.6-8 8l0 40 80 0zM208 224a48 48 0 1 0 -96 0 48 48 0 1 0 96 0zM64 224a96 96 0 1 1 192 0A96 96 0 1 1 64 224zM50.7 464l218.6 0c-9.5-36.8-42.9-64-82.6-64l-53.3 0c-39.8 0-73.2 27.2-82.6 64zM0 485.3C0 411.7 59.7 352 133.3 352l53.3 0C260.3 352 320 411.7 320 485.3c0 14.7-11.9 26.7-26.7 26.7L26.7 512C11.9 512 0 500.1 0 485.3z"/></svg>