<svg xmlns="http://www.w3.org/2000/svg" viewBox="0 0 320 512"><!--! Font Awesome Pro 6.7.2 by @fontawesome - https://fontawesome.com License - https://fontawesome.com/license (Commercial License) Copyright 2024 Fonticons, Inc. --><defs><style>.fa-secondary{opacity:.4}</style></defs><path class="fa-secondary" d="M77.1 208c-7.5 50.6 31.7 96 82.9 96c47.7 0 84.7-41.7 78.9-89.1L234.2 176 81.9 176l-4.7 32z"/><path class="fa-primary" d="M80 0C68.1 0 58 8.7 56.3 20.5L29.7 201C19.1 272.5 67.8 337.3 136 349.8L136 464l-64 0c-13.3 0-24 10.7-24 24s10.7 24 24 24l88 0 88 0c13.3 0 24-10.7 24-24s-10.7-24-24-24l-64 0 0-114.2c64.4-12.2 110.8-72.8 102.6-140.6l-22.8-188C262.4 9.1 252.1 0 240 0L80 0zM238.9 214.9c5.7 47.4-31.2 89.1-78.9 89.1c-51.1 0-90.3-45.4-82.9-96l4.7-32 152.4 0 4.7 38.9zM228.4 128L88.9 128l11.8-80 118 0 9.7 80z"/></svg>