<svg xmlns="http://www.w3.org/2000/svg" viewBox="0 0 448 512"><!--! Font Awesome Pro 6.7.2 by @fontawesome - https://fontawesome.com License - https://fontawesome.com/license (Commercial License) Copyright 2024 Fonticons, Inc. --><defs><style>.fa-secondary{opacity:.4}</style></defs><path class="fa-secondary" d="M48 80l0 96 352 0 0-96L48 80zm8 408l208 0c-13.3 0-24-10.7-24-24l0-80-56 0L80 384l0 80c0 13.3-10.7 24-24 24zM80 224l0 112 80 0 0-112-80 0zm128 0l0 112 56 0 104 0 0-112-160 0zm56 264l128 0c-13.3 0-24-10.7-24-24l0-80-80 0 0 80c0 13.3-10.7 24-24 24z"/><path class="fa-primary" d="M48 176l352 0 0-96L48 80l0 96zM0 64C0 46.3 14.3 32 32 32l384 0c17.7 0 32 14.3 32 32l0 128c0 17.7-14.3 32-32 32l0 136 0 104c0 13.3-10.7 24-24 24s-24-10.7-24-24l0-80-80 0 0 80c0 13.3-10.7 24-24 24s-24-10.7-24-24l0-80-56 0L80 384l0 80c0 13.3-10.7 24-24 24s-24-10.7-24-24l0-104 0-136c-17.7 0-32-14.3-32-32L0 64zM80 224l0 112 80 0 0-112-80 0zm128 0l0 112 56 0 104 0 0-112-160 0z"/></svg>