<svg xmlns="http://www.w3.org/2000/svg" viewBox="0 0 512 512"><!--! Font Awesome Pro 6.7.2 by @fontawesome - https://fontawesome.com License - https://fontawesome.com/license (Commercial License) Copyright 2024 Fonticons, Inc. --><defs><style>.fa-secondary{opacity:.4}</style></defs><path class="fa-secondary" d="M48 256a208 208 0 1 0 416 0A208 208 0 1 0 48 256zM161.7 368.8c-3.6-9.2-1.3-19.6 5.9-26.3L276.3 240.6c7.5-7 11.7-16.8 11.7-27.1c0-20.3-16.3-36.8-36.6-37.1l-3.4-.1c-9.1-.1-18 2.8-25.3 8.3l-24.2 18.4c-10.5 8-25.6 6-33.6-4.5s-6-25.6 4.5-33.6l24.2-18.4c15.8-12 35.2-18.4 55.1-18.1l3.4 .1c46.5 .7 83.8 38.6 83.8 85.1c0 23.5-9.7 46-26.9 62.1L244.7 336l83.3 0c13.3 0 24 10.7 24 24s-10.7 24-24 24l-144 0c-9.8 0-18.7-6-22.3-15.2z"/><path class="fa-primary" d="M256 48a208 208 0 1 1 0 416 208 208 0 1 1 0-416zm0 464A256 256 0 1 0 256 0a256 256 0 1 0 0 512zM222.7 184.7c7.2-5.5 16.1-8.4 25.3-8.3l3.4 .1c20.3 .3 36.6 16.8 36.6 37.1c0 10.3-4.2 20.1-11.7 27.1L167.6 342.5c-7.2 6.7-9.5 17.2-5.9 26.3S174.2 384 184 384l144 0c13.3 0 24-10.7 24-24s-10.7-24-24-24l-83.3 0 64.4-60.4C326.3 259.5 336 237 336 213.5c0-46.5-37.3-84.4-83.8-85.1l-3.4-.1c-19.9-.3-39.3 6.1-55.1 18.1l-24.2 18.4c-10.5 8-12.6 23.1-4.5 33.6s23.1 12.6 33.6 4.5l24.2-18.4z"/></svg>