<svg xmlns="http://www.w3.org/2000/svg" viewBox="0 0 512 512"><!--! Font Awesome Pro 6.7.2 by @fontawesome - https://fontawesome.com License - https://fontawesome.com/license (Commercial License) Copyright 2024 Fonticons, Inc. --><defs><style>.fa-secondary{opacity:.4}</style></defs><path class="fa-secondary" d="M48 256a208 208 0 1 0 416 0A208 208 0 1 0 48 256zm57.1-72.7c-4-12.6 2.9-26.1 15.5-30.2s26.1 2.9 30.2 15.5L192 297.3l41.1-128.6c3.2-9.9 12.4-16.7 22.9-16.7s19.7 6.7 22.9 16.7L320 297.3l41.1-128.6c4-12.6 17.5-19.6 30.2-15.5s19.6 17.5 15.5 30.2l-64 200c-3.2 9.9-12.4 16.7-22.9 16.7s-19.7-6.7-22.9-16.7L256 254.7 214.9 383.3c-3.2 9.9-12.4 16.7-22.9 16.7s-19.7-6.7-22.9-16.7l-64-200z"/><path class="fa-primary" d="M256 48a208 208 0 1 1 0 416 208 208 0 1 1 0-416zm0 464A256 256 0 1 0 256 0a256 256 0 1 0 0 512zM150.9 168.7c-4-12.6-17.5-19.6-30.2-15.5s-19.6 17.5-15.5 30.2l64 200c3.2 9.9 12.4 16.7 22.9 16.7s19.7-6.7 22.9-16.7L256 254.7l41.1 128.6c3.2 9.9 12.4 16.7 22.9 16.7s19.7-6.7 22.9-16.7l64-200c4-12.6-2.9-26.1-15.5-30.2s-26.1 2.9-30.2 15.5L320 297.3 278.9 168.7c-3.2-9.9-12.4-16.7-22.9-16.7s-19.7 6.7-22.9 16.7L192 297.3 150.9 168.7z"/></svg>