<svg xmlns="http://www.w3.org/2000/svg" viewBox="0 0 512 512"><!--! Font Awesome Pro 6.7.2 by @fontawesome - https://fontawesome.com License - https://fontawesome.com/license (Commercial License) Copyright 2024 Fonticons, Inc. --><defs><style>.fa-secondary{opacity:.4}</style></defs><path class="fa-secondary" d="M464 256A208 208 0 1 1 48 256a208 208 0 1 1 416 0zM172 173.3l60 90L232 392c0 13.3 10.7 24 24 24s24-10.7 24-24l0-136c0-4.7-1.4-9.4-4-13.3l-64-96c-7.4-11-22.3-14-33.3-6.7s-14 22.3-6.7 33.3z"/><path class="fa-primary" d="M48 256a208 208 0 1 0 416 0A208 208 0 1 0 48 256zm464 0A256 256 0 1 1 0 256a256 256 0 1 1 512 0zM232 392l0-128.7-60-90c-7.4-11-4.4-25.9 6.7-33.3s25.9-4.4 33.3 6.7l64 96c2.6 3.9 4 8.6 4 13.3l0 136c0 13.3-10.7 24-24 24s-24-10.7-24-24z"/></svg>