<svg xmlns="http://www.w3.org/2000/svg" viewBox="0 0 512 512"><!--! Font Awesome Pro 6.7.2 by @fontawesome - https://fontawesome.com License - https://fontawesome.com/license (Commercial License) Copyright 2024 Fonticons, Inc. --><defs><style>.fa-secondary{opacity:.4}</style></defs><path class="fa-secondary" d="M464 256A208 208 0 1 1 48 256a208 208 0 1 1 416 0zm-232 0l0 136c0 13.3 10.7 24 24 24s24-10.7 24-24l0-123.2L365.3 212c11-7.4 14-22.3 6.7-33.3s-22.3-14-33.3-6.7l-96 64C236 240.5 232 248 232 256z"/><path class="fa-primary" d="M48 256a208 208 0 1 0 416 0A208 208 0 1 0 48 256zm464 0A256 256 0 1 1 0 256a256 256 0 1 1 512 0zM232 392l0-136c0-8 4-15.5 10.7-20l96-64c11-7.4 25.9-4.4 33.3 6.7s4.4 25.9-6.7 33.3L280 268.8 280 392c0 13.3-10.7 24-24 24s-24-10.7-24-24z"/></svg>