<svg xmlns="http://www.w3.org/2000/svg" viewBox="0 0 640 512"><!--! Font Awesome Pro 6.7.2 by @fontawesome - https://fontawesome.com License - https://fontawesome.com/license (Commercial License) Copyright 2024 Fonticons, Inc. --><defs><style>.fa-secondary{opacity:.4}</style></defs><path class="fa-secondary" d="M48 176c0 28 11.4 54.9 32.7 77.2c14.3 15 17.3 37.6 7.5 55.8c-1.1 2-2.2 4-3.2 5.9c-2.5 4.5-5.2 9-7.9 13.6c17.1-4.5 33.9-10.7 49.9-18c4.3-1.9 8.5-3.9 12.6-6c9.5-4.8 20.3-6.2 30.7-4.2c12.1 2.4 24.8 3.6 37.8 3.6c96.2 0 160-64.5 160-128s-63.8-128-160-128S48 112.5 48 176zm99.9-63.9c5.5-15.4 20.1-25.7 36.4-25.7l41.3 0c24.2 0 43.7 19.6 43.7 43.7c0 15.7-8.4 30.1-22 37.9c-7.8 4.5-15.6 8.9-23.4 13.7c0 8.8-7.2 16-16 16s-16-7.2-16-16l0-9.5c0-5.7 3.1-11 8-13.9l31.4-18c3.6-2.1 5.9-6 5.9-10.2c0-6.5-5.3-11.7-11.7-11.7l-41.3 0c-2.8 0-5.3 1.8-6.3 4.4l-.3 .9c-3 8.3-12.1 12.7-20.4 9.7s-12.7-12.1-9.7-20.4l.3-.9zM230.7 244a22.7 22.7 0 1 1 -45.3 0 22.7 22.7 0 1 1 45.3 0zm64.5 125.7C322 405.5 370.3 432 432 432c13.1 0 25.8-1.3 37.8-3.6c10.4-2 21.2-.6 30.7 4.2c4.1 2.1 8.3 4.1 12.6 6c16 7.2 32.9 13.5 49.9 18c-2.8-4.6-5.4-9.1-7.9-13.6c-1.1-1.9-2.2-3.9-3.2-5.9c-9.8-18.3-6.8-40.8 7.5-55.8C580.6 358.9 592 332 592 304c0-59.9-56.8-120.7-144-127.4c-.2 49.2-19.4 93.1-50.8 127.6c5-.9 10.2 .6 14.1 4.4L442.7 340l74-74c6.2-6.2 16.4-6.2 22.6 0s6.2 16.4 0 22.6L454 374c-6.2 6.2-16.4 6.2-22.6 0l-42.7-42.7c-3.8-3.8-5.3-9-4.5-13.9c-24.7 23-55.2 40.9-89 52.3z"/><path class="fa-primary" d="M88.2 309.1c9.8-18.3 6.8-40.8-7.5-55.8C59.4 230.9 48 204 48 176c0-63.5 63.8-128 160-128s160 64.5 160 128s-63.8 128-160 128c-13.1 0-25.8-1.3-37.8-3.6c-10.4-2-21.2-.6-30.7 4.2c-4.1 2.1-8.3 4.1-12.6 6c-16 7.2-32.9 13.5-49.9 18c2.8-4.6 5.4-9.1 7.9-13.6c1.1-1.9 2.2-3.9 3.2-5.9zM208 352c114.9 0 208-78.8 208-176S322.9 0 208 0S0 78.8 0 176c0 41.8 17.2 80.1 45.9 110.3c-.9 1.7-1.9 3.5-2.8 5.1c-10.3 18.4-22.3 36.5-36.6 52.1c-6.6 7-8.3 17.2-4.6 25.9C5.8 378.3 14.4 384 24 384c43 0 86.5-13.3 122.7-29.7c4.8-2.2 9.6-4.5 14.2-6.8c15.1 3 30.9 4.5 47.1 4.5zM432 480c16.2 0 31.9-1.6 47.1-4.5c4.6 2.3 9.4 4.6 14.2 6.8C529.5 498.7 573 512 616 512c9.6 0 18.2-5.7 22-14.5c3.8-8.8 2-19-4.6-25.9c-14.2-15.6-26.2-33.7-36.6-52.1c-.9-1.7-1.9-3.4-2.8-5.1C622.8 384.1 640 345.8 640 304c0-94.4-87.9-171.5-198.2-175.8c4.1 15.2 6.2 31.2 6.2 47.8l0 .6c87.2 6.7 144 67.5 144 127.4c0 28-11.4 54.9-32.7 77.2c-14.3 15-17.3 37.6-7.5 55.8c1.1 2 2.2 4 3.2 5.9c2.5 4.5 5.2 9 7.9 13.6c-17-4.5-33.9-10.7-49.9-18c-4.3-1.9-8.5-3.9-12.6-6c-9.5-4.8-20.3-6.2-30.7-4.2c-12.1 2.4-24.8 3.6-37.8 3.6c-61.7 0-110-26.5-136.8-62.3c-16 5.4-32.8 9.4-50 11.8C279 439.8 350 480 432 480zM184.3 86.3c-16.4 0-31 10.3-36.4 25.7l-.3 .9c-3 8.3 1.4 17.5 9.7 20.4s17.5-1.4 20.4-9.7l.3-.9c.9-2.7 3.5-4.4 6.3-4.4l41.3 0c6.5 0 11.7 5.3 11.7 11.7c0 4.2-2.2 8.1-5.9 10.2l-31.4 18c-5 2.9-8 8.1-8 13.9l0 9.5c0 8.8 7.2 16 16 16s16-7.2 16-16l0-.3L247.4 168c13.6-7.8 22-22.3 22-37.9c0-24.2-19.6-43.7-43.7-43.7l-41.3 0zM208 266.7a22.7 22.7 0 1 0 0-45.3 22.7 22.7 0 1 0 0 45.3zm331.3 22c6.2-6.2 6.2-16.4 0-22.6s-16.4-6.2-22.6 0l-74 74-31.4-31.4c-6.2-6.2-16.4-6.2-22.6 0s-6.2 16.4 0 22.6L431.4 374c6.2 6.2 16.4 6.2 22.6 0l85.3-85.3z"/></svg>