<svg xmlns="http://www.w3.org/2000/svg" viewBox="0 0 576 512"><!--! Font Awesome Pro 6.7.2 by @fontawesome - https://fontawesome.com License - https://fontawesome.com/license (Commercial License) Copyright 2024 Fonticons, Inc. --><defs><style>.fa-secondary{opacity:.4}</style></defs><path class="fa-secondary" d="M206.1 224L544 224c17.7 0 32-14.3 32-32l0-136c0 13.3-10.7 24-24 24L329.9 80c-2.8 0-5.4 1.5-6.8 3.8L253.8 197.2c-10.2 16.6-28.3 26.8-47.8 26.8zm-.1 96l61.7 108c1.4 2.5 4.1 4 6.9 4L552 432c13.3 0 24 10.7 24 24l0-160c0 13.3-10.7 24-24 24l-346.1 0z"/><path class="fa-primary" d="M329.9 80c-2.8 0-5.4 1.5-6.8 3.8L253.8 197.2c-10.2 16.6-28.3 26.8-47.8 26.8L24 224c-13.3 0-24-10.7-24-24s10.7-24 24-24l182.1 0c2.8 0 5.4-1.5 6.8-3.8L282.2 58.8C292.3 42.2 310.4 32 329.9 32L552 32c13.3 0 24 10.7 24 24s-10.7 24-24 24L329.9 80zm-124 240l61.7 108c1.4 2.5 4.1 4 6.9 4L552 432c13.3 0 24 10.7 24 24s-10.7 24-24 24l-277.4 0c-20.1 0-38.7-10.8-48.6-28.2L150.6 320 24 320c-13.3 0-24-10.7-24-24s10.7-24 24-24l528 0c13.3 0 24 10.7 24 24s-10.7 24-24 24l-346.1 0z"/></svg>