<svg xmlns="http://www.w3.org/2000/svg" viewBox="0 0 512 512"><!--! Font Awesome Pro 6.7.2 by @fontawesome - https://fontawesome.com License - https://fontawesome.com/license (Commercial License) Copyright 2024 Fonticons, Inc. --><defs><style>.fa-secondary{opacity:.4}</style></defs><path class="fa-secondary" d="M48 256c0 114.9 93.1 208 208 208c105.5 0 192.7-78.6 206.2-180.5L433 276.3c-10.6-2.7-19.1-10.5-22.6-20.9l-16.9-50.7c-5.4-16.1 2.7-33.5 18.5-39.8l25.6-10.2c-34-60.7-97.6-102.7-171.2-106.3l2.4 4.2c6.7 11.7 5.3 26.4-3.5 36.7l-15.7 18.3c-10.2 11.9-10.3 29.3-.3 41.3L262.9 165c5.4 6.5 5.9 15.8 1.2 22.8c-4.8 7.2-13.8 10.2-21.9 7.5L219 187.7c-7-2.3-14.7-1.8-21.3 1.5l-5.9 3c-9 4.5-13.3 15-10.2 24.5c1.6 4.7 4.8 8.7 9.2 11.2l34.5 19.7c9.7 5.5 20.6 8.4 31.8 8.4l43.1 0c12.7 0 24.9 5.1 33.9 14.1l3.9 3.9c9 9 14.1 21.2 14.1 33.9l0 8.3c0 17.2-9.2 33.1-24.2 41.7l-9.2 5.3c-14.5 8.3-25.2 21.9-29.8 38l-1.5 5.4c-4.5 15.9-16.9 28.3-32.8 32.8c-15.3 4.4-30.5-7.1-30.5-23l0-30.4c0-11-6.2-21-16-25.9s-16-14.9-16-25.9l0-39.9c0-17.9-11.8-33.6-29-38.5l-57.9-16.6c-16.1-4.6-29.7-15.3-38-29.8L57.7 193c-6.3 19.9-9.7 41-9.7 63z"/><path class="fa-primary" d="M256 464C141.1 464 48 370.9 48 256c0-22 3.4-43.1 9.7-63l9.4 16.4c8.3 14.5 21.9 25.2 38 29.8L163 255.7c17.2 4.9 29 20.6 29 38.5l0 39.9c0 11 6.2 21 16 25.9s16 14.9 16 25.9l0 30.4c0 15.9 15.2 27.3 30.5 23c15.9-4.5 28.3-17 32.8-32.8l1.5-5.4c4.6-16.1 15.3-29.7 29.8-38l9.2-5.3c15-8.5 24.2-24.5 24.2-41.7l0-8.3c0-12.7-5.1-24.9-14.1-33.9l-3.9-3.9c-9-9-21.2-14.1-33.9-14.1L257 256c-11.1 0-22.1-2.9-31.8-8.4l-34.5-19.7c-4.3-2.5-7.6-6.5-9.2-11.2c-3.2-9.6 1.1-20 10.2-24.5l5.9-3c6.6-3.3 14.3-3.9 21.3-1.5l23.2 7.7c8.2 2.7 17.2-.4 21.9-7.5c4.7-7 4.2-16.3-1.2-22.8l-13.6-16.3c-10-12-9.9-29.5 .3-41.3l15.7-18.3c8.8-10.3 10.2-25 3.5-36.7l-2.4-4.2c73.6 3.6 137.2 45.6 171.2 106.3L412 164.8c-15.7 6.3-23.8 23.8-18.5 39.8l16.9 50.7c3.5 10.4 12 18.3 22.6 20.9l29.1 7.3C448.7 385.4 361.5 464 256 464zm0 48A256 256 0 1 0 256 0a256 256 0 1 0 0 512z"/></svg>