<svg xmlns="http://www.w3.org/2000/svg" viewBox="0 0 512 512"><!--! Font Awesome Pro 6.7.2 by @fontawesome - https://fontawesome.com License - https://fontawesome.com/license (Commercial License) Copyright 2024 Fonticons, Inc. --><defs><style>.fa-secondary{opacity:.4}</style></defs><path class="fa-secondary" d="M48 256C48 141.1 141.1 48 256 48s208 93.1 208 208c0 27.2-5.2 53.1-14.7 76.9c-2.9-1.5-5.8-2.9-8.7-4.4c-18.5-9.2-40.8-5.6-55.4 9l-15.7 15.7c-14.6 14.6-18.2 36.9-9 55.4c3.5 6.9 6.9 13.8 10.4 20.8C338 451.3 298.5 464 256 464C141.1 464 48 370.9 48 256zm80 80l0 32c0 8.8 7.2 16 16 16s16-7.2 16-16l0-32c0-8.8-7.2-16-16-16s-16 7.2-16 16zm16.4-128a32 32 0 1 0 64 0 32 32 0 1 0 -64 0zM192 336l0 32c0 8.8 7.2 16 16 16s16-7.2 16-16l0-32c0-8.8-7.2-16-16-16s-16 7.2-16 16zm64 0l0 32c0 8.8 7.2 16 16 16s16-7.2 16-16l0-32c0-8.8-7.2-16-16-16s-16 7.2-16 16zm48.4-128a32 32 0 1 0 64 0 32 32 0 1 0 -64 0zM320 336l0 32c0 8.8 7.2 16 16 16s16-7.2 16-16l0-32c0-8.8-7.2-16-16-16s-16 7.2-16 16z"/><path class="fa-primary" d="M389.2 394.3l29.1 58.1c14.7 29.3 53.7 35.6 76.9 12.5l1.8-1.8c23.2-23.2 16.8-62.2-12.5-76.9l-58.1-29.1c-6.2-3.1-13.6-1.9-18.5 3l-15.7 15.7c-4.9 4.9-6.1 12.3-3 18.5zm91.3 38.2l-16 16c-4.7 4.7-12.3 4.7-17 0s-4.7-12.3 0-17l16-16c4.7-4.7 12.3-4.7 17 0s4.7 12.3 0 17zM256 48C141.1 48 48 141.1 48 256s93.1 208 208 208c42.5 0 82-12.7 114.9-34.6l18.7 37.3c1 2 2 3.9 3.1 5.7C353.2 497.5 306.3 512 256 512C114.6 512 0 397.4 0 256S114.6 0 256 0S512 114.6 512 256c0 34.9-7 68.1-19.6 98.4l-43.1-21.5c9.5-23.8 14.7-49.7 14.7-76.9c0-114.9-93.1-208-208-208zM144.4 208a32 32 0 1 1 64 0 32 32 0 1 1 -64 0zm192-32a32 32 0 1 1 0 64 32 32 0 1 1 0-64zM208 320c8.8 0 16 7.2 16 16l0 32c0 8.8-7.2 16-16 16s-16-7.2-16-16l0-32c0-8.8 7.2-16 16-16zm80 16l0 32c0 8.8-7.2 16-16 16s-16-7.2-16-16l0-32c0-8.8 7.2-16 16-16s16 7.2 16 16zm48-16c8.8 0 16 7.2 16 16l0 32c0 8.8-7.2 16-16 16s-16-7.2-16-16l0-32c0-8.8 7.2-16 16-16zM160 336l0 32c0 8.8-7.2 16-16 16s-16-7.2-16-16l0-32c0-8.8 7.2-16 16-16s16 7.2 16 16z"/></svg>