<svg xmlns="http://www.w3.org/2000/svg" viewBox="0 0 448 512"><!--! Font Awesome Pro 6.7.2 by @fontawesome - https://fontawesome.com License - https://fontawesome.com/license (Commercial License) Copyright 2024 Fonticons, Inc. --><defs><style>.fa-secondary{opacity:.4}</style></defs><path class="fa-secondary" d="M43.2 148a24 24 0 1 0 41.6 24A24 24 0 1 0 43.2 148zm0 216a24 24 0 1 0 41.6-24A24 24 0 1 0 43.2 364zM200 64a24 24 0 1 0 48 0 24 24 0 1 0 -48 0zm0 192a24 24 0 1 0 48 0 24 24 0 1 0 -48 0zm0 192a24 24 0 1 0 48 0 24 24 0 1 0 -48 0zM363.2 172a24 24 0 1 0 41.6-24 24 24 0 1 0 -41.6 24zm0 168a24 24 0 1 0 41.6 24 24 24 0 1 0 -41.6-24z"/><path class="fa-primary" d="M224 88a24 24 0 1 0 0-48 24 24 0 1 0 0 48zm64-24c0 26.9-16.5 49.9-40 59.3l0 73.3c23.5 9.5 40 32.5 40 59.3c0 3.4-.3 6.7-.8 10l58.2 34.9c4.5-3.4 9.4-6.1 14.5-8.2l0-73.3c-5.2-2.1-10-4.8-14.5-8.2l-29.4 17.6c-4.7-15.8-13.3-29.9-24.7-41.1l29.4-17.6c-4-25.4 7.7-51.7 31.2-65.4c30.6-17.7 69.8-7.2 87.4 23.4s7.2 69.8-23.4 87.4c-2.6 1.5-5.3 2.8-8 3.9l0 73.3c2.7 1.1 5.4 2.4 8 3.9c30.6 17.7 41.1 56.8 23.4 87.4s-56.8 41.1-87.4 23.4c-23.6-13.6-35.2-40-31.2-65.4l-58.2-34.9c-4.4 3.3-9.3 6.1-14.5 8.2l0 73.3c23.5 9.5 40 32.5 40 59.3c0 35.3-28.7 64-64 64s-64-28.7-64-64c0-26.9 16.5-49.9 40-59.3l0-73.3c-23.5-9.5-40-32.5-40-59.3c0-3.4 .3-6.7 .8-10l-58.2-34.9c-4.5 3.4-9.4 6.1-14.6 8.2l0 73.3c5.1 2.1 10 4.8 14.5 8.2l29.4-17.6c4.7 15.8 13.3 29.9 24.7 41.1L127.2 342c4 25.4-7.6 51.8-31.2 65.4C65.4 425.1 26.3 414.6 8.6 384S1.4 314.3 32 296.6c2.6-1.5 5.3-2.8 8-3.9l0-73.3c-2.7-1.1-5.4-2.4-8-3.9C1.4 197.8-9.1 158.6 8.6 128S65.4 86.9 96 104.6c23.6 13.6 35.2 40 31.2 65.4l58.2 34.9c4.4-3.3 9.3-6.1 14.5-8.2l0-73.3c-23.5-9.5-40-32.5-40-59.3c0-35.3 28.7-64 64-64s64 28.7 64 64zM224 280a24 24 0 1 0 0-48 24 24 0 1 0 0 48zm172-99.2a24 24 0 1 0 -24-41.6 24 24 0 1 0 24 41.6zM84.8 172A24 24 0 1 0 43.2 148a24 24 0 1 0 41.6 24zM248 448a24 24 0 1 0 -48 0 24 24 0 1 0 48 0zM43.2 364a24 24 0 1 0 41.6-24A24 24 0 1 0 43.2 364zM396 331.2a24 24 0 1 0 -24 41.6 24 24 0 1 0 24-41.6z"/></svg>