<svg xmlns="http://www.w3.org/2000/svg" viewBox="0 0 640 512"><!--! Font Awesome Pro 6.7.2 by @fontawesome - https://fontawesome.com License - https://fontawesome.com/license (Commercial License) Copyright 2024 Fonticons, Inc. --><defs><style>.fa-secondary{opacity:.4}</style></defs><path class="fa-secondary" d="M112 316.7L112 440c0 13.3 10.7 24 24 24l221.4 0c5.8 0 10.6-4.7 10.6-10.6c0-4.2-1.2-8.3-3.5-11.9l-43.4-68.2c-36.3 3.8-73.6-10-98.6-40l-25-30c-8.5-10.2-7.1-25.3 3.1-33.8s25.3-7.1 33.8 3.1l25 30c22.4 26.9 62.1 31.2 89.7 9.7c12.4-9.6 30.1-7.9 40.4 3.9l26.2 30C427.9 360 445.5 368 463.9 368l7.4 0c14.6 0 28.5-5.8 38.8-16.1c16.9-16.9 20.9-42.9 9.9-64.2L471.8 195c-14.6-28-41.9-47.1-73.3-51l-1.5-.2c-9.5-1.2-17.4-7.9-20.1-17.1s.3-19.1 7.7-25.2L418.9 73c3.2-2.7 5.1-6.7 5.1-10.9c0-9.8-9.7-16.7-18.9-13.4L266.3 98.1C173.8 131 112 218.5 112 316.7zM384 200a24 24 0 1 1 -48 0 24 24 0 1 1 48 0z"/><path class="fa-primary" d="M405.1 48.7c9.2-3.3 18.9 3.6 18.9 13.4c0 4.2-1.9 8.2-5.1 10.9l-34.3 28.5c-7.3 6.1-10.4 16-7.7 25.2s10.6 15.9 20.1 17.1l1.5 .2c31.3 3.9 58.7 23 73.3 51L520 287.8c11 21.3 7 47.2-9.9 64.2c-10.3 10.3-24.3 16.1-38.8 16.1l-7.4 0c-18.5 0-36-8-48.2-21.9l-26.2-30c-10.3-11.8-28-13.5-40.4-3.9c-27.6 21.5-67.3 17.2-89.7-9.7l-25-30c-8.5-10.2-23.6-11.6-33.8-3.1s-11.6 23.6-3.1 33.8l25 30c25 30 62.3 43.8 98.6 40l43.4 68.2c2.3 3.5 3.5 7.7 3.5 11.9c0 5.8-4.7 10.6-10.6 10.6L136 464c-13.3 0-24-10.7-24-24l0-123.3c0-98.2 61.8-185.7 154.3-218.6L405.1 48.7zm44.6 61.1C463.8 98 472 80.5 472 62.1c0-43-42.5-73-83-58.6L250.2 52.9C138.6 92.5 64 198.2 64 316.7L64 440c0 39.8 32.2 72 72 72l221.4 0c32.4 0 58.6-26.2 58.6-58.6c0-13.3-3.8-26.4-11-37.6l-21.5-33.8c21 21.7 50 34.1 80.4 34.1l7.4 0c27.3 0 53.5-10.8 72.8-30.1c31.7-31.7 39.2-80.4 18.5-120.2l-48.3-92.8c-14.4-27.8-37.3-49.6-64.7-63zM360 224a24 24 0 1 0 0-48 24 24 0 1 0 0 48z"/></svg>