<svg xmlns="http://www.w3.org/2000/svg" viewBox="0 0 640 512"><!--! Font Awesome Pro 6.7.2 by @fontawesome - https://fontawesome.com License - https://fontawesome.com/license (Commercial License) Copyright 2024 Fonticons, Inc. --><defs><style>.fa-secondary{opacity:.4}</style></defs><path class="fa-secondary" d="M112 159.3L240 55l120.8 98.4c-11.7 14.9-20.6 32.2-26.1 51.2l-8.6 30.1-21.7 21.7c-21.9 21.9-21.9 57.3 0 79.2c14 14 33.6 19.1 51.7 15.1c-3.8 5.3-7 11.1-9.2 17.3L120 368c-4.4 0-8-3.6-8-8l0-200.7zM160 208l0 64c0 8.8 7.2 16 16 16l64 0c8.8 0 16-7.2 16-16l0-64c0-8.8-7.2-16-16-16l-64 0c-8.8 0-16 7.2-16 16zm286.6-24.2c6.7-3.5 14-5.9 21.7-7.1l29.9 89.8c1.1 3.2 0 6.6-2.5 8.7l-16.3 13.3L446.9 184.8c-.1-.3-.2-.7-.3-1z"/><path class="fa-primary" d="M393.6 118.2l2.9 2.4c-13.5 8.9-25.6 20-35.7 32.8L240 55 112 159.3 112 360c0 4.4 3.6 8 8 8l226.8 0c-1.1 2.9-1.9 5.8-2.6 8.8L335.1 416 120 416c-30.9 0-56-25.1-56-56l0-161.6L39.2 218.6c-10.3 8.4-25.4 6.8-33.8-3.4s-6.8-25.4 3.4-33.8l216-176c8.8-7.2 21.5-7.2 30.3 0L371.1 99.8c6.3 7.4 14 13.7 22.6 18.4zM160 208c0-8.8 7.2-16 16-16l64 0c8.8 0 16 7.2 16 16l0 64c0 8.8-7.2 16-16 16l-64 0c-8.8 0-16-7.2-16-16l0-64zM432 0a48 48 0 1 1 0 96 48 48 0 1 1 0-96zm66.2 266.6l-29.9-89.8c-7.7 1.2-15 3.6-21.7 7.1c.1 .3 .2 .7 .3 1l32.4 103.8 16.3-13.3c2.6-2.1 3.6-5.6 2.5-8.7zm-59 54.6l-28.5-91.3-10.5 36.7c-1.9 6.5-5.4 12.5-10.2 17.3L361 313c-9.4 9.4-24.6 9.4-33.9 0s-9.4-24.6 0-33.9l27.6-27.6 10.9-38.1c14.4-50.5 60.6-85.4 113.2-85.4l4.9 0c16.1 0 32.1 2.6 47.4 7.7c39.9 13.3 72.4 42.8 89.5 81.3l9.5 21.3c5.4 12.1-.1 26.3-12.2 31.7s-26.3-.1-31.7-12.2l-9.5-21.3c-10.9-24.4-30.9-43.5-55.6-53.3l22.8 68.3c7.4 22.1 .3 46.5-17.8 61.2L421.5 397.4l-22.1 96c-3 12.9-15.9 21-28.8 18s-21-15.9-18-28.8L375.4 384c2-8.7 6.8-16.4 13.8-22.1l50.1-40.7zm101.1 21l24.1 60.4L633 471c9.4 9.4 9.4 24.6 0 33.9s-24.6 9.4-33.9 0l-69.7-69.7c-3.8-3.8-6.8-8.4-8.9-13.4l-19.2-48 39-31.7z"/></svg>