<svg xmlns="http://www.w3.org/2000/svg" viewBox="0 0 320 512"><!--! Font Awesome Pro 6.7.2 by @fontawesome - https://fontawesome.com License - https://fontawesome.com/license (Commercial License) Copyright 2024 Fonticons, Inc. --><defs><style>.fa-secondary{opacity:.4}</style></defs><path class="fa-secondary" d="M8 56.6c0 1.7 .3 3.5 .7 5.2C11.9 74.7 25 82.5 37.8 79.3l128-32c10.8-2.7 18-12.3 18.2-22.9l0 64.8L26.2 128.7C15.5 131.4 8.3 140.9 8 151.4L8 56.6zm0 96c0 1.7 .3 3.5 .7 5.2c3.2 12.9 16.2 20.7 29.1 17.5l256-64c10.8-2.7 18-12.3 18.2-22.9l0 95.3c0-1.8-.3-3.6-.7-5.4c-3.2-12.9-16.2-20.7-29.1-17.5l-256 64C15.5 227.4 8.3 236.8 8 247.3l0-94.7zM96 256.7l197.8-49.5c10.8-2.7 18-12.3 18.2-22.9l0 87.4-1.3 .4c-4-11.7-16.3-18.5-28.5-15.5l-64 16-16 4c-2.7 .7-5.3 1.3-8 2c-11.1 2.8-18.5 12.9-18.2 23.9l0 81.4 25.6 0L144 384l0-89.8-48 12 0-49.5z"/><path class="fa-primary" d="M165.8 47.3l-128 32C25 82.5 11.9 74.7 8.7 61.8S13.3 35.9 26.2 32.7l128-32c12.9-3.2 25.9 4.6 29.1 17.5s-4.6 25.9-17.5 29.1zM311.3 82.2c3.2 12.9-4.6 25.9-17.5 29.1l-256 64c-12.9 3.2-25.9-4.6-29.1-17.5s4.6-25.9 17.5-29.1l256-64c12.9-3.2 25.9 4.6 29.1 17.5zm0 96c3.2 12.9-4.6 25.9-17.5 29.1l-256 64c-12.9 3.2-25.9-4.6-29.1-17.5s4.6-25.9 17.5-29.1l256-64c12.9-3.2 25.9 4.6 29.1 17.5zM144 384l80 0c17.7 0 32 14.3 32 32l0 32c0 17.7-14.3 32-32 32l-40 0 0 8c0 13.3-10.7 24-24 24s-24-10.7-24-24l0-8-40 0c-17.7 0-32-14.3-32-32l0-32c0-17.7 14.3-32 32-32l0-77.8 48-12 0 89.8zM311.3 274.2c3.2 12.9-4.6 25.9-17.5 29.1l-64 16-5.8 1.5 0 63.3-48 0 0-81.4c-.3-11 7.1-21.1 18.2-23.9l8-2s0 0 0 0l16-4 64-16c12.9-3.2 25.9 4.6 29.1 17.5z"/></svg>