<svg xmlns="http://www.w3.org/2000/svg" viewBox="0 0 576 512"><!--! Font Awesome Pro 6.7.2 by @fontawesome - https://fontawesome.com License - https://fontawesome.com/license (Commercial License) Copyright 2024 Fonticons, Inc. --><defs><style>.fa-secondary{opacity:.4}</style></defs><path class="fa-secondary" d="M.2 344c.1 .8 .2 1.7 .4 2.5c2.9 12.9 15.7 21.1 28.7 18.2C58 358.2 81.6 344.2 96 334.2c28.1 19.5 61.4 33.8 96 33.8c1.4 0 2.7 0 4.1-.1C216.3 397 249.9 416 288 416s71.7-19 92-48.1c1.3 0 2.7 .1 4 .1c34.6 0 67.9-14.3 96-33.8c14.4 10 38 24 66.7 30.4c12.9 2.9 25.8-5.2 28.7-18.2c.2-.8 .3-1.7 .6-2.5c0 48 0 96-.2 144c1.4-12.1-6.5-23.5-18.6-26.2c-22-4.9-44.3-16.7-61.3-31.8c-9.1-8.1-22.8-8.1-31.9 0c-21.5 18.6-51.2 33.9-80 33.9s-58.5-15.3-80-33.9c-9.1-8.1-22.8-8.1-31.9 0c-21.5 18.6-51.2 33.9-80 33.9s-58.5-15.3-80-33.9c-9.1-8.1-22.8-8.1-31.9 0C62.8 445 41 456.8 18.8 461.8C6.7 464.5-1.2 475.9 0 488c0-48 0-96 .2-144zM320 304a32 32 0 1 1 -64 0 32 32 0 1 1 64 0z"/><path class="fa-primary" d="M264 24c0-13.3 10.7-24 24-24l72 0c13.3 0 24 10.7 24 24s-10.7 24-24 24l-48 0 0 48 48 0c13.3 0 24 10.7 24 24s-10.7 24-24 24l-48 0 0 83.7c32.5 10.2 56 40.5 56 76.3c0 44.2-35.8 80-80 80s-80-35.8-80-80c0-35.8 23.5-66.1 56-76.3L264 120l0-96zm24 312a32 32 0 1 0 0-64 32 32 0 1 0 0 64zM111.9 286.1c17.8 15.4 41.2 28.5 65 32.6c2.4 18.1 9.1 34.9 19.1 49.3c-1.3 0-2.7 .1-4.1 .1c-34.6 0-67.9-14.3-96-33.8c-14.4 10-38 24-66.7 30.4c-12.9 2.9-25.8-5.2-28.7-18.2s5.2-25.8 18.2-28.7c22.2-5 44-16.8 61.2-31.7c9.1-8.1 22.8-8.1 31.9 0zM384 368c-1.3 0-2.7 0-4-.1c10-14.3 16.7-31.1 19.1-49.3c23.8-4.1 47.2-17.2 65-32.6c9.1-8.1 22.8-8.1 31.9 0c16.9 15.1 39.3 26.8 61.3 31.8c12.9 2.9 21.1 15.7 18.2 28.7s-15.7 21.1-28.7 18.2c-28.7-6.4-52.3-20.5-66.7-30.4c-28.1 19.5-61.4 33.8-96 33.8zm-272 62.1c21.5 18.6 51.2 33.9 80 33.9s58.5-15.3 80-33.9c9.1-8.1 22.8-8.1 31.9 0c21.6 18.6 51.2 33.9 80 33.9s58.5-15.3 80-33.9c9.1-8.1 22.8-8.1 31.9 0c16.9 15.1 39.3 26.8 61.3 31.8c12.9 2.9 21.1 15.7 18.2 28.7s-15.7 21.1-28.7 18.2c-28.7-6.4-52.3-20.5-66.7-30.4c-28.1 19.5-61.4 33.8-96 33.8s-67.9-14.3-96-33.8c-28.1 19.5-61.4 33.8-96 33.8s-67.9-14.3-96-33.8c-14.4 10-38 24-66.7 30.4c-12.9 2.9-25.8-5.2-28.7-18.2s5.2-25.8 18.2-28.7c22.2-5 44-16.8 61.2-31.7c9.1-8.1 22.8-8.1 31.9 0z"/></svg>