<svg xmlns="http://www.w3.org/2000/svg" viewBox="0 0 640 512"><!--! Font Awesome Pro 6.7.2 by @fontawesome - https://fontawesome.com License - https://fontawesome.com/license (Commercial License) Copyright 2024 Fonticons, Inc. --><defs><style>.fa-secondary{opacity:.4}</style></defs><path class="fa-secondary" d="M48.1 94.8l.2 86.6c0 2.3 1 4.5 2.8 6.1l87.7 75c.9 .8 2 1.4 3.2 1.7l325.5 84.7c27 7 55.4 6.1 81.9-2.6c5.5-1.8 7.1-9 2.8-12.9L520.5 304c-12.4-11.4-27.4-19.7-43.7-24l-113-30.1c-6.2-1.7-11.6-5.8-14.7-11.4L242 48l-25.7 0 40.6 135.5c2.5 8.3 .3 17.4-5.8 23.6s-15 8.7-23.4 6.5L113.8 183.2c-7.3-2-13.3-7.2-16.1-14.3L71.8 104.1c-1-2.4-3-4.2-5.5-4.8L48.1 94.8z"/><path class="fa-primary" d="M552.2 333.2c4.3 4 2.8 11.1-2.8 12.9c-26.5 8.8-54.9 9.7-81.9 2.6L141.9 264c-1.2-.3-2.3-.9-3.2-1.7l-87.7-75c-1.8-1.5-2.8-3.7-2.8-6.1l-.2-86.6 18.2 4.6c2.5 .6 4.5 2.4 5.5 4.8l25.9 64.8c2.8 7 8.8 12.3 16.1 14.3l113.9 30.4c8.4 2.2 17.4-.2 23.4-6.5s8.3-15.3 5.8-23.6L216.3 48 242 48 349.1 238.4c3.2 5.6 8.5 9.8 14.7 11.4l113 30.1c16.3 4.3 31.3 12.6 43.7 24l31.6 29.2zm12.3 58.5c40.3-13.3 51.5-65 20.3-93.8l-31.6-29.2c-18.1-16.7-40-28.8-63.8-35.1L386 206.1 281.5 20.4C274.4 7.8 261.1 0 246.6 0L205.5 0c-26.8 0-46 25.8-38.3 51.5l31.4 104.6-60.8-16.2L116.4 86.3c-6.7-16.7-21-29.2-38.4-33.5L49.7 45.7C24.5 39.4 0 58.5 0 84.6l.2 96.8s0 0 0 0c0 16.3 7.2 31.8 19.6 42.4l87.7 75c6.4 5.5 14.1 9.5 22.3 11.6l325.5 84.7c35.9 9.4 73.8 8.1 109.1-3.5zM24 464c-13.3 0-24 10.7-24 24s10.7 24 24 24l592 0c13.3 0 24-10.7 24-24s-10.7-24-24-24L24 464zm168-96a32 32 0 1 0 -64 0 32 32 0 1 0 64 0zm64 64a32 32 0 1 0 0-64 32 32 0 1 0 0 64z"/></svg>