<svg xmlns="http://www.w3.org/2000/svg" viewBox="0 0 512 512"><!--! Font Awesome Pro 6.7.2 by @fontawesome - https://fontawesome.com License - https://fontawesome.com/license (Commercial License) Copyright 2024 Fonticons, Inc. --><defs><style>.fa-secondary{opacity:.4}</style></defs><path class="fa-secondary" d="M56 262c0-63.4 30.7-119.7 78.2-154.7c10.7-7.9 12.9-22.9 5.1-33.6c-7.5-10.1-21.4-12.7-31.9-6.2C142.9 41.9 185.7 25.6 232 22.6c0 .4 0 .9 0 1.4l0 240c0 13.3 10.7 24 24 24s24-10.7 24-24l0-240c40.2 5.5 77.2 20.8 108.6 43.5c-10.5-6.5-24.4-3.9-31.9 6.2c-7.9 10.7-5.6 25.7 5.1 33.6c47.5 35 78.2 91.2 78.2 154.7c0 106-86 192-192 192S56 368 56 262z"/><path class="fa-primary" d="M280 24c0-13.3-10.7-24-24-24s-24 10.7-24 24l0 240c0 13.3 10.7 24 24 24s24-10.7 24-24l0-240zM134.2 107.3c10.7-7.9 12.9-22.9 5.1-33.6s-22.9-12.9-33.6-5.1C46.5 112.3 8 182.7 8 262C8 394.6 115.5 502 248 502s240-107.5 240-240c0-79.3-38.5-149.7-97.8-193.3c-10.7-7.9-25.7-5.6-33.6 5.1s-5.6 25.7 5.1 33.6c47.5 35 78.2 91.2 78.2 154.7c0 106-86 192-192 192S56 368 56 262c0-63.4 30.7-119.7 78.2-154.7z"/></svg>