<svg xmlns="http://www.w3.org/2000/svg" viewBox="0 0 512 512"><!--! Font Awesome Pro 6.7.2 by @fontawesome - https://fontawesome.com License - https://fontawesome.com/license (Commercial License) Copyright 2024 Fonticons, Inc. --><defs><style>.fa-secondary{opacity:.4}</style></defs><path class="fa-secondary" d="M57.9 384L128 454.1l0-140.1L57.9 384zM384 57.9l0 140.1L454.1 128 384 57.9z"/><path class="fa-primary" d="M336 215c0 22.6 18.3 41 41 41c10.9 0 21.3-4.3 29-12l99-99c4.5-4.5 7-10.6 7-17s-2.5-12.5-7-17l-99-99c-7.7-7.7-18.1-12-29-12c-22.6 0-41 18.3-41 41l0 63L24 104c-13.3 0-24 10.7-24 24s10.7 24 24 24l312 0 0 63zm118.1-87L384 198.1l0-140.1L454.1 128zM135 256c-10.9 0-21.3 4.3-29 12L7 367c-4.5 4.5-7 10.6-7 17s2.5 12.5 7 17l99 99c7.7 7.7 18.1 12 29 12c22.6 0 41-18.3 41-41l0-63 312 0c13.3 0 24-10.7 24-24s-10.7-24-24-24l-312 0 0-63c0-22.6-18.3-41-41-41zm-7 57.9l0 140.1L57.9 384 128 313.9z"/></svg>