<svg xmlns="http://www.w3.org/2000/svg" viewBox="0 0 640 512"><!--! Font Awesome Pro 6.7.2 by @fontawesome - https://fontawesome.com License - https://fontawesome.com/license (Commercial License) Copyright 2024 Fonticons, Inc. --><defs><style>.fa-secondary{opacity:.4}</style></defs><path class="fa-secondary" d="M64 448a16 16 0 1 0 32 0 16 16 0 1 0 -32 0zM224 320l0 128c0 8.8 7.2 16 16 16s16-7.2 16-16l0-128c0-8.8-7.2-16-16-16s-16 7.2-16 16zM384 192l0 83.7 32 25.1L416 192c0-8.8-7.2-16-16-16s-16 7.2-16 16zm0 206.5l0 49.5c0 8.8 7.2 16 16 16s16-7.2 16-16l0-24.2c-10.7-8.4-21.3-16.8-32-25.2zM544 64l0 337.1 32 25.1L576 64c0-8.8-7.2-16-16-16s-16 7.2-16 16z"/><path class="fa-primary" d="M38.8 5.1C28.4-3.1 13.3-1.2 5.1 9.2S-1.2 34.7 9.2 42.9l592 464c10.4 8.2 25.5 6.3 33.7-4.1s6.3-25.5-4.1-33.7l-8.5-6.6c1.1-4.7 1.6-9.5 1.6-14.5l0-384c0-35.3-28.7-64-64-64s-64 28.7-64 64l0 299.5-32-25.1L464 192c0-35.3-28.7-64-64-64s-64 28.7-64 64l0 46L38.8 5.1zM384 275.7l0-83.7c0-8.8 7.2-16 16-16s16 7.2 16 16l0 108.8-32-25.1zM544 401.1L544 64c0-8.8 7.2-16 16-16s16 7.2 16 16l0 362.2-32-25.1zM559.6 512l.4 0 .4 0-.8 0zM336 360.7l0 87.3c0 35.3 28.7 64 64 64c31 0 56.9-22.1 62.8-51.4L416 423.8l0 24.2c0 8.8-7.2 16-16 16s-16-7.2-16-16l0-49.5-48-37.8zM211.5 262.7C190.5 273.1 176 294.9 176 320l0 128c0 35.3 28.7 64 64 64s64-28.7 64-64l0-112.5-92.5-72.9zM256 448c0 8.8-7.2 16-16 16s-16-7.2-16-16l0-128c0-8.8 7.2-16 16-16s16 7.2 16 16l0 128zM96 448a16 16 0 1 1 -32 0 16 16 0 1 1 32 0zM80 384a64 64 0 1 0 0 128 64 64 0 1 0 0-128z"/></svg>