<svg xmlns="http://www.w3.org/2000/svg" viewBox="0 0 576 512"><!--! Font Awesome Pro 6.7.2 by @fontawesome - https://fontawesome.com License - https://fontawesome.com/license (Commercial License) Copyright 2024 Fonticons, Inc. --><defs><style>.fa-secondary{opacity:.4}</style></defs><path class="fa-secondary" d="M152.1 480c13.1 0 23.9-10.7 23.9-24l0-104 104 0c13.3 0 24-10.7 24-24l0-104 104 0c13.3 0 24-10.7 24-24l0-120 120 0c13.1 0 23.7-10.4 24-23.4L576 416c0 35.3-28.7 64-64 64c-119.9 0-239.9 0-359.9 0z"/><path class="fa-primary" d="M384 56c0-13.3 10.7-24 24-24l144 0c13.3 0 24 10.7 24 24s-10.7 24-24 24L432 80l0 120c0 13.3-10.7 24-24 24l-104 0 0 104c0 13.3-10.7 24-24 24l-104 0 0 104c0 13.3-10.7 24-24 24L24 480c-13.3 0-24-10.7-24-24s10.7-24 24-24l104 0 0-104c0-13.3 10.7-24 24-24l104 0 0-104c0-13.3 10.7-24 24-24l104 0 0-120z"/></svg>