<svg xmlns="http://www.w3.org/2000/svg" width="24" height="24" viewBox="0 0 24 24">
<path d="M19.512 13.488h-3c-0.288 0-0.504 0.24-0.504 0.504s0.216 0.504 0.504 0.504h2.472c-0.24 3.48-3 6.24-6.48 6.48 0 0 0 0 0 0v-9.984h1.992c0.288 0 0.504-0.216 0.504-0.504s-0.216-0.48-0.504-0.48h-1.992v-2.064c1.416-0.24 2.496-1.464 2.496-2.952 0-1.656-1.344-3-3-3s-3 1.344-3 3c0 1.488 1.080 2.712 2.496 2.952v2.064h-1.992c-0.288 0-0.504 0.216-0.504 0.48s0.216 0.504 0.504 0.504h1.992v9.984c-3.408-0.24-6.216-2.952-6.48-6.48h2.496c0.264 0 0.48-0.216 0.48-0.504s-0.216-0.504-0.48-0.504h-3c-0.024 0-0.024 0-0.024 0-0.264 0.024-0.48 0.24-0.48 0.504 0 4.416 3.576 7.992 7.992 8.016 4.416-0.024 7.992-3.6 7.992-8.016 0 0 0 0 0 0 0-0.264-0.216-0.504-0.48-0.504zM10.008 4.992c0-1.104 0.888-1.992 1.992-1.992s1.992 0.888 1.992 1.992c0 1.104-0.888 2.016-1.992 2.016s-1.992-0.912-1.992-2.016z"></path>
</svg>
