<svg xmlns="http://www.w3.org/2000/svg" width="24" height="24" viewBox="0 0 24 24">
<path d="M11.64 10.848c0.096 0.096 0.216 0.144 0.36 0.144s0.264-0.048 0.36-0.144l3.504-3.504c0.168-0.192 0.168-0.48 0-0.696-0.192-0.192-0.528-0.192-0.72 0l-3.144 3.144-3.144-3.144c-0.192-0.192-0.504-0.192-0.696 0s-0.216 0.504-0.024 0.696l3.504 3.504zM15.144 12.648l-3.144 3.144-3.144-3.144c-0.192-0.192-0.504-0.192-0.696 0s-0.216 0.504-0.024 0.696l3.504 3.504c0.096 0.096 0.216 0.144 0.36 0.144s0.264-0.048 0.36-0.144l3.504-3.504c0.168-0.192 0.168-0.48 0-0.696-0.192-0.192-0.528-0.192-0.72 0z"></path>
</svg>
