<svg xmlns="http://www.w3.org/2000/svg" width="24" height="24" viewBox="0 0 24 24">
<path d="M22.512 21h-1.512v-13.992h1.512c0.264 0 0.48-0.24 0.48-0.504s-0.216-0.504-0.48-0.504h-1.512v-3.504c0-0.264-0.216-0.504-0.504-0.504h-16.992c-0.288 0-0.504 0.24-0.504 0.504v3.504h-1.488c-0.288 0-0.504 0.216-0.504 0.504s0.216 0.504 0.504 0.504h1.488v13.992h-1.488c-0.288 0-0.504 0.216-0.504 0.504s0.216 0.504 0.504 0.504h21c0.264 0 0.48-0.24 0.48-0.504s-0.216-0.504-0.48-0.504zM16.008 21h-8.016v-4.584c0-2.712 1.56-5.184 4.008-6.36 2.448 1.176 4.008 3.648 4.008 6.36v4.584zM19.992 21h-3v-4.584c0-3.192-1.872-6.072-4.8-7.368-0.12-0.072-0.264-0.072-0.384 0-2.928 1.296-4.8 4.176-4.8 7.368v4.584h-3v-13.992h15.984v13.992zM19.992 6h-15.984v-3h15.984v3z"></path>
</svg>
