<svg xmlns="http://www.w3.org/2000/svg" width="24" height="24" viewBox="0 0 24 24">
<path d="M2.496 6c-0.264 0-0.504 0.216-0.504 0.504v10.992c0 0.288 0.24 0.504 0.504 0.504v0c0.288 0 0.504-0.216 0.504-0.504v-10.992c0-0.288-0.216-0.504-0.504-0.504zM14.856 8.64c-0.192-0.192-0.504-0.192-0.696 0s-0.216 0.504-0.024 0.72l2.16 2.136h-8.592l2.16-2.136c0.168-0.192 0.168-0.504 0-0.696-0.192-0.192-0.528-0.216-0.72-0.024l-3 3c0 0 0 0 0 0-0.192 0.192-0.192 0.528 0 0.72l3 3c0.096 0.096 0.216 0.144 0.36 0.144 0.12 0 0.264-0.048 0.36-0.144 0.192-0.192 0.192-0.528 0-0.72l-2.16-2.136h8.592l-2.16 2.136c-0.072 0.096-0.144 0.216-0.144 0.36 0 0.288 0.24 0.504 0.504 0.504 0.144 0 0.264-0.048 0.36-0.144l3-3c0 0 0 0 0 0 0.192-0.192 0.192-0.528 0-0.72l-3-3zM21.504 6c-0.288 0-0.504 0.216-0.504 0.504v10.992c0 0.288 0.216 0.504 0.504 0.504v0c0.264 0 0.504-0.216 0.504-0.504v-10.992c0-0.288-0.24-0.504-0.504-0.504z"></path>
</svg>
