<svg xmlns="http://www.w3.org/2000/svg" width="24" height="24" viewBox="0 0 24 24">
<path d="M10.512 11.496h-6.816l2.16-2.136c0.192-0.192 0.192-0.504 0-0.696s-0.504-0.216-0.72-0.024l-3 3c0 0 0 0 0 0-0.192 0.192-0.192 0.528 0 0.72l3 3c0.096 0.096 0.24 0.144 0.36 0.144 0.144 0 0.264-0.048 0.36-0.144 0.192-0.192 0.192-0.528 0-0.72l-2.16-2.136h6.816c0.264 0 0.48-0.216 0.48-0.504s-0.216-0.504-0.48-0.504zM21.864 11.64l-3-3c-0.216-0.192-0.504-0.192-0.696 0-0.216 0.192-0.216 0.504-0.024 0.72l2.16 2.136h-6.792c-0.288 0-0.504 0.216-0.504 0.504s0.216 0.504 0.504 0.504h6.792l-2.16 2.136c-0.096 0.096-0.144 0.216-0.144 0.36 0 0.288 0.216 0.504 0.504 0.504 0.12 0 0.264-0.048 0.36-0.144l3-3c0 0 0 0 0 0 0.192-0.192 0.192-0.528 0-0.72z"></path>
</svg>
