<svg xmlns="http://www.w3.org/2000/svg" width="24" height="24" viewBox="0 0 24 24">
<path d="M21.216 7.080c-0.6-1.056-1.92-1.392-2.976-0.792l-4.728 2.736v-0.864c-0.024-0.384-0.12-0.768-0.312-1.104-0.6-1.032-1.92-1.368-2.952-0.792l-6.672 3.864c-0.312 0.192-0.6 0.456-0.792 0.792-0.6 1.032-0.24 2.352 0.792 2.952l6.672 3.864c0.336 0.192 0.696 0.288 1.080 0.288 1.2 0 2.16-0.984 2.184-2.184v-0.864l4.728 2.736c0.336 0.192 0.72 0.312 1.104 0.312 0.36 0 0.744-0.12 1.080-0.312 0.672-0.384 1.080-1.080 1.080-1.872v-7.68c0-0.384-0.096-0.768-0.288-1.080zM12.504 15.84c0 0.216-0.048 0.408-0.168 0.6-0.312 0.552-1.032 0.744-1.584 0.432l-6.672-3.864c-0.168-0.096-0.312-0.24-0.432-0.432-0.312-0.552-0.12-1.272 0.432-1.584l6.672-3.864c0.168-0.096 0.384-0.144 0.576-0.144 0.648 0 1.176 0.528 1.176 1.176v7.68zM20.496 15.84c0 0.216-0.048 0.408-0.144 0.6-0.336 0.552-1.032 0.744-1.608 0.408l-5.232-3.024v-3.648l5.232-3.024c0.192-0.12 0.384-0.168 0.576-0.168 0.648 0 1.176 0.528 1.176 1.176v7.68z"></path>
</svg>
