<svg xmlns="http://www.w3.org/2000/svg" width="24" height="24" viewBox="0 0 24 24">
<path d="M16.008 1.992h-8.016c-1.656 0-3 1.344-3 3v16.512c0 0.072 0.024 0.168 0.072 0.24 0.144 0.24 0.456 0.336 0.696 0.192l6.24-3.6 6.24 3.6c0.096 0.048 0.168 0.072 0.264 0.072 0.264 0 0.504-0.24 0.504-0.504v-16.512c0-1.656-1.344-3-3-3zM18 20.64l-5.76-3.312c-0.072-0.048-0.144-0.072-0.24-0.072s-0.168 0.024-0.24 0.072l-5.76 3.312v-15.648c0-1.104 0.888-1.992 1.992-1.992h8.016c1.104 0 1.992 0.888 1.992 1.992v15.648z"></path>
</svg>
