<svg xmlns="http://www.w3.org/2000/svg" width="24" height="24" viewBox="0 0 24 24">
<path d="M22.224 20.088l-4.416-16.44c-0.072-0.264-0.336-0.408-0.6-0.336l-4.224 1.128c-0.024-0.24-0.24-0.432-0.48-0.432h-10.008c-0.264 0-0.504 0.216-0.504 0.48v17.016c0 0.264 0.24 0.504 0.504 0.504h10.008c0.264 0 0.504-0.24 0.504-0.504v-12.624l3.408 12.744c0.072 0.216 0.264 0.384 0.48 0.384 0.048 0 0.096-0.024 0.144-0.024l4.824-1.296c0.264-0.072 0.432-0.336 0.36-0.6zM7.008 21h-4.008v-3h4.008v3zM7.008 16.992h-4.008v-7.992h4.008v7.992zM7.008 7.992h-4.008v-3h4.008v3zM12 21h-4.008v-3h4.008v3zM12 16.992h-4.008v-7.992h4.008v7.992zM12 7.992h-4.008v-3h4.008v3zM13.104 5.424l3.864-1.032 0.792 2.904-3.864 1.032-0.792-2.904zM16.224 17.016l-2.088-7.728 3.864-1.032 2.088 7.728-3.864 1.032zM17.256 20.88l-0.768-2.88 3.864-1.056 0.768 2.904-3.864 1.032z"></path>
</svg>
