<svg xmlns="http://www.w3.org/2000/svg" width="24" height="24" viewBox="0 0 24 24">
<path d="M4.008 6c-0.84 0-1.512 0.672-1.512 1.488s0.672 1.512 1.512 1.512c0.816 0 1.488-0.672 1.488-1.512 0-0.816-0.672-1.488-1.488-1.488zM4.008 7.992c-0.288 0-0.504-0.216-0.504-0.504s0.216-0.48 0.504-0.48c0.264 0 0.48 0.216 0.504 0.48 0 0.288-0.24 0.504-0.504 0.504zM3 4.008h18c0.288 0 0.504-0.24 0.504-0.504s-0.216-0.504-0.504-0.504h-18c-0.288 0-0.504 0.216-0.504 0.504s0.216 0.504 0.504 0.504zM7.992 18c-0.816 0-1.488 0.672-1.488 1.488s0.672 1.512 1.488 1.512c0.84 0 1.512-0.672 1.512-1.512 0-0.816-0.672-1.488-1.512-1.488zM7.992 19.992c-0.264 0-0.48-0.216-0.48-0.504s0.216-0.48 0.48-0.48c0.288 0 0.504 0.216 0.504 0.48 0 0.288-0.216 0.504-0.504 0.504zM4.008 10.008c-0.84 0-1.512 0.672-1.512 1.488s0.672 1.512 1.512 1.512c0.816 0 1.488-0.672 1.488-1.512 0-0.816-0.672-1.488-1.488-1.488zM4.008 12c-0.288 0-0.504-0.216-0.504-0.504s0.216-0.504 0.504-0.504c0.264 0 0.48 0.24 0.504 0.504 0 0.288-0.24 0.504-0.504 0.504zM4.008 13.992c-0.84 0-1.512 0.672-1.512 1.512s0.672 1.488 1.512 1.488c0.816 0 1.488-0.672 1.488-1.488 0-0.84-0.672-1.512-1.488-1.512zM4.008 16.008c-0.288 0-0.504-0.24-0.504-0.504s0.216-0.504 0.504-0.504c0.264 0 0.48 0.216 0.504 0.504 0 0.264-0.24 0.504-0.504 0.504zM4.008 18c-0.84 0-1.512 0.672-1.512 1.488s0.672 1.512 1.512 1.512c0.816 0 1.488-0.672 1.488-1.512 0-0.816-0.672-1.488-1.488-1.488zM4.008 19.992c-0.288 0-0.504-0.216-0.504-0.504s0.216-0.48 0.504-0.48c0.264 0 0.48 0.216 0.504 0.48 0 0.288-0.24 0.504-0.504 0.504zM19.992 10.008c-0.816 0-1.488 0.672-1.488 1.488s0.672 1.512 1.488 1.512c0.84 0 1.512-0.672 1.512-1.512 0-0.816-0.672-1.488-1.512-1.488zM19.992 12c-0.264 0-0.504-0.216-0.504-0.504s0.24-0.504 0.504-0.504c0.288 0 0.504 0.24 0.504 0.504 0 0.288-0.216 0.504-0.504 0.504zM16.008 18c-0.84 0-1.512 0.672-1.512 1.488s0.672 1.512 1.512 1.512c0.816 0 1.488-0.672 1.488-1.512 0-0.816-0.672-1.488-1.488-1.488zM16.008 19.992c-0.288 0-0.504-0.216-0.504-0.504s0.216-0.48 0.504-0.48c0.264 0 0.48 0.216 0.504 0.48 0 0.288-0.24 0.504-0.504 0.504zM16.008 10.008c-0.84 0-1.512 0.672-1.512 1.488s0.672 1.512 1.512 1.512c0.816 0 1.488-0.672 1.488-1.512 0-0.816-0.672-1.488-1.488-1.488zM16.008 12c-0.288 0-0.504-0.216-0.504-0.504s0.216-0.504 0.504-0.504c0.264 0 0.48 0.24 0.504 0.504 0 0.288-0.24 0.504-0.504 0.504zM19.992 18c-0.816 0-1.488 0.672-1.488 1.488s0.672 1.512 1.488 1.512c0.84 0 1.512-0.672 1.512-1.512 0-0.816-0.672-1.488-1.512-1.488zM19.992 19.992c-0.264 0-0.504-0.216-0.504-0.504s0.24-0.48 0.504-0.48c0.288 0 0.504 0.216 0.504 0.48 0 0.288-0.216 0.504-0.504 0.504zM19.992 13.992c-0.816 0-1.488 0.672-1.488 1.512s0.672 1.488 1.488 1.488c0.84 0 1.512-0.672 1.512-1.488 0-0.84-0.672-1.512-1.512-1.512zM19.992 16.008c-0.264 0-0.504-0.24-0.504-0.504s0.24-0.504 0.504-0.504c0.288 0 0.504 0.216 0.504 0.504 0 0.264-0.216 0.504-0.504 0.504zM19.992 6c-0.816 0-1.488 0.672-1.488 1.488s0.672 1.512 1.488 1.512c0.84 0 1.512-0.672 1.512-1.512 0-0.816-0.672-1.488-1.512-1.488zM19.992 7.992c-0.264 0-0.504-0.216-0.504-0.504s0.24-0.48 0.504-0.48c0.288 0 0.504 0.216 0.504 0.48 0 0.288-0.216 0.504-0.504 0.504zM12 13.992c-0.84 0-1.488 0.672-1.488 1.512s0.648 1.488 1.488 1.488c0.84 0 1.488-0.672 1.512-1.488 0-0.84-0.672-1.512-1.512-1.512zM12 16.008c-0.288 0-0.504-0.24-0.504-0.504s0.216-0.504 0.504-0.504c0.264 0 0.504 0.216 0.504 0.504 0 0.264-0.216 0.504-0.504 0.504zM12 18c-0.84 0-1.488 0.672-1.488 1.488s0.648 1.512 1.488 1.512c0.84 0 1.488-0.672 1.512-1.512 0-0.816-0.672-1.488-1.512-1.488zM12 19.992c-0.288 0-0.504-0.216-0.504-0.504s0.216-0.48 0.504-0.48c0.264 0 0.504 0.216 0.504 0.48 0 0.288-0.216 0.504-0.504 0.504zM7.992 10.008c-0.816 0-1.488 0.672-1.488 1.488s0.672 1.512 1.488 1.512c0.84 0 1.512-0.672 1.512-1.512 0-0.816-0.672-1.488-1.512-1.488zM7.992 12c-0.264 0-0.48-0.216-0.48-0.504s0.216-0.504 0.48-0.504c0.288 0 0.504 0.24 0.504 0.504 0 0.288-0.216 0.504-0.504 0.504zM12 10.008c-0.84 0-1.488 0.672-1.488 1.488s0.648 1.512 1.488 1.512c0.84 0 1.488-0.672 1.512-1.512 0-0.816-0.672-1.488-1.512-1.488zM12 12c-0.288 0-0.504-0.216-0.504-0.504s0.216-0.504 0.504-0.504c0.264 0 0.504 0.24 0.504 0.504 0 0.288-0.216 0.504-0.504 0.504zM12 6c-0.84 0-1.488 0.672-1.488 1.488s0.648 1.512 1.488 1.512c0.84 0 1.488-0.672 1.512-1.512 0-0.816-0.672-1.488-1.512-1.488zM12 7.992c-0.288 0-0.504-0.216-0.504-0.504s0.216-0.48 0.504-0.48c0.264 0 0.504 0.216 0.504 0.48 0 0.288-0.216 0.504-0.504 0.504z"></path>
</svg>
