<svg xmlns="http://www.w3.org/2000/svg" width="24" height="24" viewBox="0 0 24 24">
<path d="M12 3.624c0.336 0 0.624-0.288 0.624-0.624s-0.288-0.624-0.624-0.624-0.624 0.288-0.624 0.624 0.288 0.624 0.624 0.624zM5.64 17.736c-0.36 0-0.624 0.288-0.624 0.624 0 0.36 0.264 0.624 0.624 0.624 0.336 0 0.624-0.264 0.624-0.624 0-0.336-0.288-0.624-0.624-0.624zM5.64 6.264c0.336 0 0.624-0.288 0.624-0.624 0-0.36-0.288-0.624-0.624-0.624-0.36 0-0.624 0.264-0.624 0.624 0 0.336 0.264 0.624 0.624 0.624zM3 11.376c-0.336 0-0.624 0.288-0.624 0.624s0.288 0.624 0.624 0.624 0.624-0.288 0.624-0.624-0.288-0.624-0.624-0.624zM12 6c-3.312 0-6 2.688-6 6s2.688 6 6 6c3.312 0 6-2.688 6-6s-2.688-6-6-6zM12 16.992c-2.76 0-4.992-2.232-4.992-4.992s2.232-4.992 4.992-4.992c2.76 0 4.992 2.232 4.992 4.992s-2.232 4.992-4.992 4.992zM18.36 5.016c-0.336 0-0.624 0.264-0.624 0.624 0 0.336 0.288 0.624 0.624 0.624 0.36 0 0.624-0.288 0.624-0.624 0-0.36-0.264-0.624-0.624-0.624zM21 11.376c-0.336 0-0.624 0.288-0.624 0.624s0.288 0.624 0.624 0.624 0.624-0.288 0.624-0.624-0.288-0.624-0.624-0.624zM12 20.376c-0.336 0-0.624 0.288-0.624 0.624s0.288 0.624 0.624 0.624 0.624-0.288 0.624-0.624-0.288-0.624-0.624-0.624zM18.36 17.736c-0.336 0-0.624 0.288-0.624 0.624 0 0.36 0.288 0.624 0.624 0.624 0.36 0 0.624-0.264 0.624-0.624 0-0.336-0.264-0.624-0.624-0.624z"></path>
</svg>
