<svg xmlns="http://www.w3.org/2000/svg" width="24" height="24" viewBox="0 0 24 24">
<path d="M19.992 16.008c-0.792 0-1.584 0.288-2.088 0.888l-2.208-1.296c0.216-0.504 0.312-1.008 0.312-1.608 0-1.992-1.512-3.696-3.504-3.888v-2.208c1.392-0.192 2.496-1.392 2.496-2.904 0-1.704-1.296-3-3-3s-3 1.296-3 3c0 1.512 1.104 2.712 2.496 2.904v2.112c-1.992 0.288-3.504 1.992-3.504 3.984 0 0.6 0.12 1.104 0.312 1.608l-2.208 1.296c-0.504-0.6-1.296-0.888-2.088-0.888-1.704 0-3 1.296-3 3s1.296 3 3 3c1.704 0 3-1.296 3-3 0-0.504-0.12-0.912-0.312-1.32l2.208-1.296c0.696 1.008 1.8 1.608 3.096 1.608s2.4-0.6 3.096-1.608l2.208 1.296c-0.192 0.408-0.312 0.816-0.312 1.32 0 1.704 1.296 3 3 3s3-1.296 3-3c0-1.704-1.296-3-3-3zM4.008 21c-1.104 0-2.016-0.912-2.016-1.992s0.912-2.016 2.016-2.016c1.104 0 1.992 0.912 1.992 2.016 0 1.080-0.912 1.992-1.992 1.992zM10.008 4.992c0-1.104 0.888-1.992 1.992-1.992s1.992 0.888 1.992 1.992c0 1.104-0.888 2.016-1.992 2.016s-1.992-0.912-1.992-2.016zM12 16.992c-1.704 0-3-1.296-3-3s1.296-3 3-3c1.704 0 3 1.296 3 3s-1.296 3-3 3zM19.992 21c-1.104 0-1.992-0.912-1.992-1.992s0.888-2.016 1.992-2.016c1.104 0 2.016 0.912 2.016 2.016 0 1.080-0.912 1.992-2.016 1.992zM18 6.504h1.512v1.488c0 0 0 0 0 0 0 0.312 0.192 0.504 0.48 0.504 0 0 0 0 0 0 0.312 0 0.504-0.192 0.504-0.504v-1.488h1.512c0.288 0 0.504-0.216 0.504-0.504s-0.216-0.504-0.504-0.504h-1.512v-1.488c0-0.312-0.192-0.504-0.504-0.504s-0.48 0.192-0.48 0.504v1.488h-1.512c-0.288 0-0.504 0.192-0.504 0.504s0.192 0.504 0.504 0.504z"></path>
</svg>
