<svg xmlns="http://www.w3.org/2000/svg" width="24" height="24" viewBox="0 0 24 24">
<path d="M15.504 13.992h-7.008c-0.264 0-0.504 0.24-0.504 0.504s0.24 0.504 0.504 0.504h7.008c0.264 0 0.504-0.216 0.504-0.504s-0.24-0.504-0.504-0.504zM15.504 10.008h-5.016c-0.264 0-0.48 0.216-0.48 0.48s0.216 0.504 0.48 0.504h5.016c0.264 0 0.504-0.216 0.504-0.504s-0.24-0.48-0.504-0.48zM17.496 4.008h-1.536c-0.24-1.152-1.248-2.016-2.448-2.016h-3c-1.224 0-2.232 0.864-2.472 2.016h-1.536c-1.392 0-2.496 1.104-2.496 2.496v12.984c0 1.392 1.104 2.52 2.496 2.52h10.992c1.392 0 2.496-1.128 2.496-2.52v-12.984c0-1.392-1.104-2.496-2.496-2.496zM9 4.488c0-0.816 0.672-1.488 1.512-1.488h3c0.816 0 1.488 0.672 1.488 1.488v1.512h-6v-1.512zM19.008 19.488c0 0.84-0.672 1.512-1.512 1.512h-10.992c-0.84 0-1.512-0.672-1.512-1.512v-12.984c0-0.84 0.672-1.512 1.512-1.512h1.488v1.512c0 0 0 0 0 0 0 0.264 0.24 0.504 0.504 0.504h7.008c0 0 0 0 0 0 0.264 0 0.504-0.24 0.504-0.504v-1.512h1.488c0.84 0 1.512 0.672 1.512 1.512v12.984z"></path>
</svg>
