<svg xmlns="http://www.w3.org/2000/svg" width="24" height="24" viewBox="0 0 24 24">
<path d="M13.512 16.488h-3v-1.488c0-0.84 0.648-1.488 1.488-1.512 0.408 0 0.792 0.168 1.080 0.48 0.072 0.072 0.168 0.168 0.216 0.288 0.144 0.24 0.456 0.312 0.696 0.168s0.312-0.456 0.168-0.672c-0.096-0.192-0.24-0.36-0.384-0.504-0.48-0.48-1.104-0.744-1.776-0.744-1.392 0-2.496 1.104-2.496 2.496v1.68c-1.176 0.408-1.992 1.512-1.992 2.808 0 1.68 1.32 3 3 3h3c1.656 0 3-1.32 3-3s-1.344-3-3-3zM13.512 21.504h-3c-1.128 0-2.016-0.888-2.016-2.016s0.888-1.992 2.016-1.992h3c1.104 0 1.992 0.888 1.992 1.992s-0.888 2.016-1.992 2.016zM18.408 8.208c-0.984-2.256-3.096-3.84-5.544-4.152-3.84-0.48-7.32 2.232-7.8 6.072-1.608 0.384-2.784 1.704-3.024 3.312-0.312 2.184 1.2 4.2 3.384 4.512 0.024 0 0.048 0 0.072 0 0.264 0 0.456-0.168 0.504-0.432 0.024-0.264-0.168-0.528-0.432-0.552-1.32-0.192-2.352-1.224-2.544-2.568-0.216-1.632 0.936-3.144 2.568-3.36 0.24-0.024 0.408-0.216 0.432-0.456 0.144-2.328 1.632-4.344 3.792-5.184 3.096-1.2 6.576 0.336 7.776 3.432 0.048 0.144 0.192 0.264 0.336 0.288 1.32 0.312 2.4 1.272 2.856 2.568 0.72 2.064-0.36 4.344-2.448 5.088-0.264 0.072-0.408 0.36-0.312 0.624s0.384 0.408 0.648 0.312c1.512-0.528 2.664-1.752 3.12-3.312 0.792-2.64-0.72-5.4-3.384-6.192z"></path>
</svg>
