<svg xmlns="http://www.w3.org/2000/svg" width="24" height="24" viewBox="0 0 24 24">
<path d="M12 14.016c-1.104-0.792-2.616-0.648-3.6 0.288 0 0.024-0.024 0.024-0.048 0.048-1.032 1.080-1.008 2.784 0.048 3.84l3.24 3.168c0.096 0.096 0.24 0.144 0.36 0.144s0.264-0.048 0.36-0.144l3.24-3.168c0-0.024 0.024-0.048 0.048-0.072 1.032-1.056 1.008-2.784-0.048-3.816-0.984-0.936-2.496-1.080-3.6-0.288zM14.88 17.472l-2.88 2.832-2.88-2.832c-0.024-0.024-0.048-0.024-0.048-0.048-0.672-0.672-0.648-1.752 0.048-2.4 0.336-0.336 0.792-0.528 1.248-0.528 0.48 0 0.936 0.192 1.272 0.528 0.216 0.192 0.504 0.192 0.72 0 0.696-0.696 1.824-0.696 2.52 0 0.024 0 0.048 0.024 0.048 0.024 0.672 0.696 0.648 1.776-0.048 2.424zM18.408 8.208c-0.984-2.256-3.096-3.84-5.544-4.152-3.84-0.48-7.32 2.232-7.8 6.072-1.608 0.384-2.784 1.704-3.024 3.312-0.312 2.184 1.2 4.2 3.384 4.512 0.024 0 0.048 0 0.072 0 0.264 0 0.456-0.168 0.504-0.432 0.024-0.264-0.168-0.528-0.432-0.552-1.32-0.192-2.352-1.224-2.544-2.568-0.216-1.632 0.936-3.144 2.568-3.36 0.24-0.024 0.408-0.216 0.432-0.456 0.144-2.328 1.632-4.344 3.792-5.184 3.096-1.2 6.576 0.336 7.776 3.432 0.048 0.144 0.192 0.264 0.336 0.288 1.32 0.312 2.4 1.272 2.856 2.568 0.72 2.064-0.36 4.344-2.448 5.088-0.264 0.072-0.408 0.36-0.312 0.624s0.384 0.408 0.648 0.312c1.512-0.528 2.664-1.752 3.12-3.312 0.792-2.64-0.72-5.4-3.384-6.192z"></path>
</svg>
