<svg xmlns="http://www.w3.org/2000/svg" width="24" height="24" viewBox="0 0 24 24">
<path d="M15.504 13.008c-0.288 0-0.504 0.216-0.504 0.48v0.888c-0.744-0.864-1.824-1.368-3-1.368-2.208 0-4.008 1.776-4.008 3.984s1.8 4.008 4.008 4.008c0.96 0 1.92-0.36 2.64-1.008 0.216-0.168 0.216-0.48 0.048-0.696-0.192-0.216-0.504-0.24-0.696-0.048-0.36 0.312-0.792 0.528-1.248 0.648-1.608 0.432-3.24-0.552-3.648-2.16-0.432-1.608 0.552-3.24 2.16-3.648 1.512-0.384 3.048 0.456 3.552 1.92h-2.304c-0.288 0-0.504 0.216-0.504 0.48s0.216 0.504 0.504 0.504h3c0.264 0 0.504-0.216 0.504-0.504v-3c0-0.264-0.24-0.48-0.504-0.48zM18.408 8.208c-0.984-2.256-3.096-3.84-5.544-4.152-3.84-0.48-7.32 2.232-7.8 6.072-1.608 0.384-2.784 1.704-3.024 3.312-0.312 2.184 1.2 4.2 3.384 4.512 0.024 0 0.048 0 0.072 0 0.264 0 0.456-0.168 0.504-0.432 0.024-0.264-0.168-0.528-0.432-0.552-1.32-0.192-2.352-1.224-2.544-2.568-0.216-1.632 0.936-3.144 2.568-3.36 0.24-0.024 0.408-0.216 0.432-0.456 0.144-2.328 1.632-4.344 3.792-5.184 3.096-1.2 6.576 0.336 7.776 3.432 0.048 0.144 0.192 0.264 0.336 0.288 1.32 0.312 2.4 1.272 2.856 2.568 0.72 2.064-0.36 4.344-2.448 5.088-0.264 0.072-0.408 0.36-0.312 0.624s0.384 0.408 0.648 0.312c1.512-0.528 2.664-1.752 3.12-3.312 0.792-2.64-0.72-5.4-3.384-6.192z"></path>
</svg>
