<svg xmlns="http://www.w3.org/2000/svg" width="24" height="24" viewBox="0 0 24 24">
<path d="M15.36 12.864c0.192-0.216 0.192-0.528 0-0.72l-3-3c0 0 0 0 0 0-0.192-0.192-0.528-0.192-0.72 0l-3 3c-0.192 0.192-0.192 0.504 0 0.696s0.504 0.216 0.72 0.024l2.136-2.16v9.792c0 0.288 0.216 0.504 0.504 0.504v0c0.288 0 0.504-0.216 0.504-0.504v-9.792l2.136 2.16c0.096 0.072 0.216 0.144 0.36 0.144s0.264-0.072 0.36-0.144zM18.408 7.224c-0.984-2.28-3.096-3.864-5.544-4.176-3.84-0.48-7.32 2.256-7.8 6.072-1.8 0.432-3.072 2.040-3.072 3.888 0.024 2.208 1.8 4.008 4.008 3.984h2.496c0.288 0 0.504-0.216 0.504-0.504s-0.216-0.48-0.504-0.48h-2.496c-1.512 0-2.784-1.104-2.976-2.592-0.216-1.656 0.936-3.144 2.568-3.384 0.24-0.024 0.408-0.216 0.432-0.456 0.168-2.304 1.632-4.32 3.792-5.16 3.096-1.2 6.576 0.312 7.776 3.408 0.048 0.144 0.192 0.264 0.336 0.288 1.8 0.432 3.072 2.040 3.072 3.912 0 2.184-1.8 3.984-4.008 3.984h-1.488c-0.288 0-0.504 0.216-0.504 0.48s0.216 0.504 0.504 0.504h1.488c2.232 0 4.176-1.44 4.8-3.576 0.792-2.64-0.72-5.424-3.384-6.192z"></path>
</svg>
