<svg xmlns="http://www.w3.org/2000/svg" width="24" height="24" viewBox="0 0 24 24">
<path d="M19.008 6h-4.512c-0.264 0-0.504 0.216-0.504 0.504s0.24 0.504 0.504 0.504h4.512c1.104 0 1.992 0.888 1.992 1.992v11.352l-2.4-2.208c-0.096-0.096-0.216-0.144-0.36-0.144h-9.24c-1.104 0-1.992-0.888-1.992-1.992v-1.512c0-0.264-0.24-0.504-0.504-0.504s-0.504 0.24-0.504 0.504v1.512c0 1.656 1.344 3 3 3h9.048l3.12 2.856c0.096 0.096 0.216 0.144 0.336 0.144 0.264 0 0.504-0.24 0.504-0.504v-12.504c0-1.656-1.344-3-3-3zM10.752 9.504c0 0 0 0 0-0.024 0.144-0.216 0.096-0.528-0.144-0.672-0.24-0.168-0.552-0.096-0.696 0.144-0.648 0.96-1.728 1.56-2.904 1.536-1.176 0-2.256-0.576-2.904-1.536-0.408-0.576-0.6-1.248-0.6-1.944 0-1.8 1.344-3.288 3.12-3.48 1.704-0.192 3.264 0.864 3.744 2.472h-2.376c-0.264 0-0.48 0.216-0.48 0.504s0.216 0.504 0.48 0.504h3c0.288 0 0.504-0.24 0.504-0.504v-3c0-0.288-0.216-0.504-0.504-0.504s-0.48 0.216-0.48 0.504v0.672c-1.464-1.776-4.032-2.208-6-0.912-2.064 1.368-2.616 4.176-1.248 6.24 0.84 1.248 2.232 1.992 3.744 1.992s2.904-0.744 3.744-1.992z"></path>
</svg>
