<svg xmlns="http://www.w3.org/2000/svg" width="24" height="24" viewBox="0 0 24 24">
<path d="M19.512 13.008c-0.024 0-0.024 0-0.024 0-0.264-0.024-0.504 0.192-0.504 0.456-0.264 4.224-3.744 7.536-7.992 7.536h-7.296l1.656-1.632c0.192-0.192 0.192-0.504 0-0.72-1.176-1.152-1.944-2.64-2.232-4.248-0.768-4.344 2.112-8.496 6.456-9.264 0.024 0 0.024 0 0.024 0 0.264-0.048 0.456-0.312 0.408-0.6-0.072-0.264-0.336-0.432-0.6-0.384-1.632 0.288-3.168 1.032-4.416 2.16-3.696 3.312-4.008 8.976-0.696 12.696l-2.16 2.136c-0.072 0.096-0.144 0.216-0.144 0.36 0 0.264 0.24 0.504 0.504 0.504h8.496c4.776-0.024 8.712-3.72 8.976-8.472 0 0 0 0 0 0 0.024-0.288-0.192-0.528-0.456-0.528zM19.008 7.008c-0.648 0-1.2 0.288-1.56 0.744l-1.536-0.696c0.048-0.168 0.096-0.36 0.096-0.552 0-0.144-0.024-0.288-0.048-0.408l1.584-0.744c0.36 0.408 0.888 0.648 1.464 0.648 1.104 0 1.992-0.888 1.992-1.992s-0.888-2.016-1.992-2.016-2.016 0.912-2.016 2.016c0 0.168 0.024 0.312 0.072 0.456l-1.56 0.744c-0.36-0.432-0.888-0.72-1.512-0.72-1.104 0-1.992 0.912-1.992 2.016s0.888 1.992 1.992 1.992c0.552 0 1.056-0.216 1.416-0.576l1.632 0.768c-0.024 0.096-0.048 0.192-0.048 0.312 0 1.104 0.912 1.992 2.016 1.992s1.992-0.888 1.992-1.992c0-1.104-0.888-1.992-1.992-1.992zM19.008 3c0.552 0 0.984 0.456 0.984 1.008s-0.432 0.984-0.984 0.984-1.008-0.432-1.008-0.984 0.456-1.008 1.008-1.008zM13.992 7.488c-0.552 0-0.984-0.432-0.984-0.984s0.432-1.008 0.984-1.008c0.552 0 1.008 0.456 1.008 1.008s-0.456 0.984-1.008 0.984zM19.008 10.008c-0.552 0-1.008-0.456-1.008-1.008 0-0.144 0.024-0.264 0.072-0.384 0 0 0 0 0 0 0.024 0 0.024-0.024 0.024-0.024 0.144-0.336 0.504-0.6 0.912-0.6 0.552 0 0.984 0.456 0.984 1.008s-0.432 1.008-0.984 1.008z"></path>
</svg>
