<svg xmlns="http://www.w3.org/2000/svg" width="24" height="24" viewBox="0 0 24 24">
<path d="M9 8.496c-0.84 0-1.488 0.672-1.488 1.512s0.648 1.488 1.488 1.488c0.84 0 1.488-0.672 1.512-1.488 0-0.84-0.672-1.512-1.512-1.512zM9 10.488c-0.288 0-0.504-0.216-0.504-0.48s0.216-0.504 0.504-0.504c0.264 0 0.504 0.216 0.504 0.504 0 0.264-0.216 0.48-0.504 0.48zM14.832 14.040l-4.2 1.488c-0.192 0.072-0.336 0.264-0.336 0.48 0 0.264 0.24 0.48 0.504 0.48 0.072 0 0.12 0 0.168-0.024l4.2-1.488c0.264-0.096 0.384-0.384 0.312-0.648-0.096-0.264-0.384-0.384-0.648-0.288zM12 1.992c-5.52 0-10.008 4.488-10.008 10.008s4.488 10.008 10.008 10.008c5.52-0.024 9.984-4.488 10.008-10.008 0-5.52-4.488-10.008-10.008-10.008zM12 21c-4.968 0-9-4.032-9-9s4.032-9 9-9c4.968 0 9 4.032 9 9s-4.032 9-9 9zM15 8.496c-0.84 0-1.488 0.672-1.488 1.512s0.648 1.488 1.488 1.488c0.84 0 1.488-0.672 1.512-1.488 0-0.84-0.672-1.512-1.512-1.512zM15 10.488c-0.288 0-0.504-0.216-0.504-0.48s0.216-0.504 0.504-0.504c0.264 0 0.504 0.216 0.504 0.504 0 0.264-0.216 0.48-0.504 0.48z"></path>
</svg>
