<svg xmlns="http://www.w3.org/2000/svg" width="24" height="24" viewBox="0 0 24 24">
<path d="M19.512 16.992h-1.512v-10.488c0-0.288-0.216-0.504-0.504-0.504h-10.488v-1.512c0-0.264-0.24-0.48-0.504-0.48s-0.504 0.216-0.504 0.48v1.512h-1.488c-0.288 0-0.504 0.216-0.504 0.504s0.216 0.504 0.504 0.504h1.488v10.488c0 0.288 0.216 0.504 0.504 0.504h10.488v1.512c0 0.264 0.24 0.48 0.504 0.48v0c0.288 0 0.504-0.216 0.504-0.504v-1.488h1.512c0.264 0 0.48-0.216 0.48-0.504s-0.216-0.504-0.48-0.504zM16.992 16.992h-9.984v-9.984h9.984v9.984z"></path>
</svg>
