<svg xmlns="http://www.w3.org/2000/svg" width="24" height="24" viewBox="0 0 24 24">
<path d="M21.504 12c-0.264 0-0.504 0.216-0.504 0.504v4.992c0 0.84-0.672 1.512-1.488 1.512h-15c-0.84 0-1.512-0.672-1.512-1.512v-10.992c0-0.24 0.072-0.456 0.168-0.672l7.080 7.080c0.456 0.48 1.104 0.744 1.752 0.744 0.672 0 1.296-0.264 1.776-0.744l1.632-1.632c0.192-0.192 0.192-0.504 0-0.696s-0.504-0.216-0.696-0.024l-1.656 1.656c-0.576 0.576-1.512 0.576-2.112 0l-7.056-7.080c0.192-0.072 0.384-0.144 0.624-0.144h7.992c0.288 0 0.504-0.216 0.504-0.504s-0.216-0.48-0.504-0.48h-7.992c-1.392 0-2.496 1.104-2.496 2.496v10.992c0 1.392 1.104 2.496 2.496 2.496h15c1.368 0 2.496-1.104 2.496-2.496v-4.992c0-0.288-0.216-0.504-0.504-0.504zM22.872 3.144l-3-3c0 0 0 0 0 0-0.216-0.192-0.528-0.192-0.72 0l-3 3c-0.192 0.192-0.192 0.504 0 0.696s0.504 0.216 0.72 0.024l2.136-2.16v6.792c0 0.288 0.216 0.504 0.504 0.504v0c0.264 0 0.504-0.216 0.504-0.504v-6.792l2.136 2.16c0.096 0.072 0.216 0.144 0.36 0.144 0.12 0 0.264-0.072 0.36-0.144 0.192-0.216 0.192-0.528 0-0.72z"></path>
</svg>
