<svg xmlns="http://www.w3.org/2000/svg" width="24" height="24" viewBox="0 0 24 24">
<path d="M9.864 5.424l1.632-1.704v4.752c0 0.288 0.24 0.504 0.504 0.504v0c0.288 0 0.504-0.216 0.504-0.504v-4.752l1.632 1.704c0.096 0.096 0.24 0.144 0.36 0.144 0.144 0 0.264-0.048 0.36-0.144 0.192-0.192 0.192-0.504 0.024-0.696l-2.52-2.592c-0.192-0.216-0.504-0.216-0.72 0l-2.496 2.592c-0.192 0.192-0.192 0.504 0.024 0.696s0.504 0.192 0.696 0zM16.512 10.968h-9c-1.392 0-2.496 1.128-2.496 2.496v6c0 1.392 1.104 2.52 2.496 2.52h9c1.368 0 2.496-1.128 2.496-2.52v-6c0-1.368-1.128-2.496-2.496-2.496zM7.512 11.976h9c0.216 0 0.432 0.048 0.648 0.144l-4.104 4.080c-0.264 0.288-0.648 0.456-1.056 0.456-0.384 0-0.768-0.168-1.056-0.456l-4.080-4.080c0.192-0.096 0.408-0.144 0.648-0.144zM18 19.464c0 0.84-0.672 1.512-1.488 1.512h-9c-0.84 0-1.512-0.672-1.512-1.512v-6c0-0.216 0.072-0.432 0.168-0.624l4.080 4.056c0.456 0.48 1.104 0.744 1.752 0.744v0c0.672 0 1.296-0.264 1.776-0.744l4.080-4.056c0.096 0.192 0.144 0.408 0.144 0.624v6z"></path>
</svg>
