<svg xmlns="http://www.w3.org/2000/svg" width="24" height="24" viewBox="0 0 24 24">
<path d="M20.256 9c-0.024 0-0.024 0-0.024 0l-6.552-6.336c-0.936-0.888-2.4-0.888-3.336 0l-6.552 6.336c-0.024 0-0.024 0-0.024 0-0.456 0.408-0.696 1.008-0.696 1.632v9.048c0.024 1.296 1.080 2.328 2.376 2.304h13.128c1.296 0.024 2.352-1.008 2.376-2.304v-9.048c0-0.624-0.264-1.2-0.696-1.632zM11.040 3.384c0.528-0.504 1.392-0.504 1.944 0l6.36 6.12-6.336 6.096c-0.552 0.528-1.44 0.528-2.016 0l-6.312-6.096 6.36-6.12zM19.944 19.68c-0.024 0.744-0.624 1.32-1.368 1.32h-13.128c-0.744 0-1.368-0.576-1.392-1.32v-9.048c0-0.096 0.048-0.192 0.072-0.264l5.352 5.16-1.728 1.656c-0.12 0.096-0.168 0.216-0.168 0.36 0 0.288 0.216 0.504 0.504 0.504 0.12 0 0.264-0.048 0.336-0.144l1.776-1.704 0.096 0.12c0.456 0.432 1.080 0.672 1.704 0.672 0.648 0 1.248-0.24 1.704-0.672l0.12-0.12 1.752 1.704c0.192 0.192 0.528 0.192 0.72-0.024s0.168-0.504-0.024-0.696l-1.728-1.68 5.352-5.136c0.024 0.072 0.048 0.168 0.048 0.264v9.048z"></path>
</svg>
