<svg xmlns="http://www.w3.org/2000/svg" width="24" height="24" viewBox="0 0 24 24">
<path d="M21.504 9.984c-0.264 0-0.504 0.216-0.504 0.48v7.008c0 0.84-0.672 1.512-1.488 1.512h-15c-0.84 0-1.512-0.672-1.512-1.512v-10.992c0-0.24 0.072-0.48 0.168-0.672 0.024 0.048 0.048 0.072 0.072 0.12l7.008 6.984c0.456 0.48 1.104 0.744 1.752 0.744 0.672 0 1.296-0.264 1.776-0.744l2.472-2.472c0.192-0.192 0.192-0.504 0-0.696s-0.528-0.192-0.72 0l-2.472 2.472c-0.576 0.576-1.512 0.576-2.112 0l-6.984-7.008c-0.048-0.024-0.072-0.048-0.12-0.072 0.192-0.096 0.432-0.168 0.672-0.168h9c0.264 0 0.504-0.216 0.504-0.504s-0.24-0.48-0.504-0.48h-9c-1.392 0-2.496 1.104-2.496 2.496v10.992c0 1.392 1.104 2.496 2.496 2.496h15c1.368 0 2.496-1.104 2.496-2.496v-7.008c0-0.264-0.216-0.48-0.504-0.48zM17.496 4.968h1.512v1.512c0 0 0 0 0 0 0 0.264 0.216 0.504 0.504 0.504 0 0 0 0 0 0 0.264 0 0.504-0.24 0.504-0.504v-1.512h1.488c0.288 0 0.504-0.216 0.504-0.504s-0.216-0.48-0.504-0.48h-1.488v-1.512c0-0.264-0.24-0.504-0.504-0.504s-0.504 0.24-0.504 0.504v1.512h-1.512c-0.264 0-0.48 0.216-0.48 0.48s0.216 0.504 0.48 0.504z"></path>
</svg>
