<svg xmlns="http://www.w3.org/2000/svg" width="24" height="24" viewBox="0 0 24 24">
<path d="M17.496 13.008h-15c-0.12 0-0.264 0.048-0.36 0.144-0.192 0.192-0.192 0.504 0 0.696l4.512 4.512c0.096 0.096 0.216 0.144 0.36 0.144 0.12 0 0.24-0.048 0.336-0.144 0.216-0.192 0.216-0.528 0-0.72l-3.624-3.648h13.776c0.288 0 0.504-0.216 0.504-0.504s-0.216-0.48-0.504-0.48zM21.864 10.152l-4.512-4.512c-0.192-0.192-0.504-0.192-0.696 0s-0.192 0.504 0 0.72l3.648 3.648h-13.8c-0.288 0-0.504 0.216-0.504 0.48s0.216 0.504 0.504 0.504h15c0.12 0 0.264-0.048 0.36-0.144 0.192-0.192 0.192-0.504 0-0.696z"></path>
</svg>
