<svg xmlns="http://www.w3.org/2000/svg" width="24" height="24" viewBox="0 0 24 24">
<path d="M21.504 1.992h-4.992c-0.288 0-0.504 0.24-0.504 0.504s0.216 0.504 0.504 0.504h3.792l-8.304 8.304-8.304-8.304h3.816c0.264 0 0.48-0.216 0.48-0.504s-0.216-0.504-0.48-0.504h-5.016c-0.264 0-0.504 0.24-0.504 0.504v5.016c0 0.264 0.24 0.48 0.504 0.48v0c0.288 0 0.504-0.216 0.504-0.504v-3.792l8.304 8.304-8.304 8.304v-3.816c0-0.264-0.216-0.48-0.504-0.48s-0.504 0.216-0.504 0.48v5.016c0 0.264 0.24 0.504 0.504 0.504h5.016c0.264 0 0.48-0.24 0.48-0.504s-0.216-0.504-0.48-0.504h-3.816l8.304-8.304 8.304 8.304h-3.792c-0.288 0-0.504 0.216-0.504 0.504s0.216 0.504 0.504 0.504h4.992c0.264 0 0.504-0.24 0.504-0.504v-5.016c0-0.264-0.24-0.48-0.504-0.48s-0.504 0.216-0.504 0.48v3.816l-8.304-8.304 8.304-8.304v3.816c0 0.264 0.216 0.48 0.504 0.48v0c0.264 0 0.504-0.216 0.504-0.504v-4.992c0-0.264-0.24-0.504-0.504-0.504z"></path>
</svg>
