<svg xmlns="http://www.w3.org/2000/svg" width="24" height="24" viewBox="0 0 24 24">
<path d="M13.512 16.992c0.264 0 0.48-0.216 0.48-0.504s-0.216-0.48-0.48-0.48h-5.016c-0.264 0-0.504 0.216-0.504 0.48s0.24 0.504 0.504 0.504h5.016zM15.504 12h-7.008c-0.264 0-0.504 0.216-0.504 0.504s0.24 0.504 0.504 0.504h7.008c0.264 0 0.504-0.24 0.504-0.504s-0.24-0.504-0.504-0.504zM8.496 7.992c-0.264 0-0.504 0.24-0.504 0.504s0.24 0.504 0.504 0.504h1.992c0.288 0 0.504-0.216 0.504-0.504s-0.216-0.504-0.48-0.504h-2.016zM15.504 21h-8.496c-1.104 0-2.016-0.888-2.016-1.992v-14.016c0-1.104 0.912-1.992 2.016-1.992h6v3.672c0 1.272 1.032 2.328 2.328 2.328h3.672v4.488c0 0.288 0.216 0.504 0.504 0.504s0.48-0.216 0.48-0.504v-4.992c0-0.12-0.048-0.264-0.144-0.36l-6-6c-0.096-0.072-0.216-0.144-0.336-0.144h-6.504c-1.656 0-3 1.344-3 3v14.016c0 1.656 1.344 3 3 3h8.496c0.264 0 0.504-0.24 0.504-0.504s-0.24-0.504-0.504-0.504zM13.992 3.696l4.296 4.296h-2.952c-0.744 0-1.344-0.6-1.344-1.32v-2.976zM21.864 19.152c-0.192-0.192-0.528-0.192-0.72 0l-1.152 1.152v-3.816c0-0.264-0.216-0.48-0.504-0.48s-0.48 0.216-0.48 0.48v3.816l-1.152-1.152c-0.192-0.192-0.504-0.192-0.696 0s-0.216 0.504-0.024 0.696l2.016 2.016c0.096 0.072 0.216 0.144 0.36 0.144 0.12 0 0.24-0.072 0.336-0.144l2.016-2.016c0.168-0.192 0.168-0.504 0-0.696z"></path>
</svg>
