<svg xmlns="http://www.w3.org/2000/svg" width="24" height="24" viewBox="0 0 24 24">
<path d="M8.496 7.992c-0.264 0-0.504 0.24-0.504 0.504s0.24 0.504 0.504 0.504h1.992c0.288 0 0.504-0.216 0.504-0.504s-0.216-0.504-0.48-0.504h-2.016zM14.496 21h-7.488c-1.104 0-2.016-0.888-2.016-1.992v-14.016c0-1.104 0.912-1.992 2.016-1.992h6v3.672c0 1.272 1.032 2.328 2.328 2.328h3.672v3.504c0 0.264 0.216 0.504 0.504 0.504s0.48-0.24 0.48-0.504v-4.008c0-0.072 0-0.12-0.024-0.192-0.024-0.048-0.072-0.12-0.12-0.168l-6-6c-0.048-0.024-0.096-0.072-0.144-0.096-0.072-0.024-0.144-0.048-0.192-0.048h-6.504c-1.656 0-3 1.344-3 3v14.016c0 1.656 1.344 3 3 3h7.488c0.288 0 0.504-0.24 0.504-0.504s-0.216-0.504-0.504-0.504zM13.992 3.696l4.296 4.296h-2.952c-0.744 0-1.344-0.6-1.344-1.32v-2.976zM21.984 16.032c-1.392-1.32-3.576-1.32-4.968 0-0.648 0.648-1.008 1.536-1.008 2.472 0 1.92 1.56 3.504 3.504 3.504 0.912 0 1.8-0.384 2.472-1.032v0c1.368-1.368 1.368-3.576 0-4.944zM16.992 18.504c0-1.392 1.128-2.496 2.52-2.496 0.48 0 0.96 0.144 1.368 0.408l-3.456 3.456c-0.288-0.408-0.432-0.888-0.432-1.368zM21.264 20.256c-0.864 0.84-2.16 0.936-3.144 0.312l3.456-3.456c0.648 0.984 0.552 2.304-0.312 3.144zM15.504 12h-7.008c-0.264 0-0.504 0.216-0.504 0.504s0.24 0.504 0.504 0.504h7.008c0.264 0 0.504-0.24 0.504-0.504s-0.24-0.504-0.504-0.504zM13.512 16.992c0.264 0 0.48-0.216 0.48-0.504s-0.216-0.48-0.48-0.48h-5.016c-0.264 0-0.504 0.216-0.504 0.48s0.24 0.504 0.504 0.504h5.016z"></path>
</svg>
