<svg xmlns="http://www.w3.org/2000/svg" width="24" height="24" viewBox="0 0 24 24">
<path d="M16.392 15.696c0 0 0 0 0 0s0 0 0 0l-5.496-5.496c0 0 0 0 0 0l-3.984-4.008c0 0 0 0 0 0l-4.008-3.984c-0.192-0.216-0.504-0.216-0.696-0.12-0.216 0.216-0.216 0.6-0.096 0.816l3.384 3.384c-0.888 0.312-1.488 1.2-1.488 2.208v1.608c0 0.696 0.288 1.392 0.792 1.8l5.208 4.8v4.8c0 0.288 0.192 0.504 0.48 0.504 0.12 0 0.12 0 0.216 0l4.992-2.016c0.192-0.096 0.312-0.288 0.312-0.504v-2.784l5.088 5.088c0.096 0.096 0.192 0.096 0.408 0.096 0.096 0 0.288-0.096 0.384-0.096 0.216-0.192 0.216-0.504 0-0.696l-5.496-5.4zM4.992 8.496c0-0.792 0.6-1.392 1.32-1.488l3 3h-4.32v-1.512zM15.192 16.104c-0.096 0.096-0.192 0.192-0.192 0.384v2.712l-4.008 1.608v-4.32c0-0.096-0.096-0.288-0.192-0.384l-5.4-4.896c-0.096-0.096-0.096-0.096-0.192-0.216h4.992l4.992 5.016v0.096zM19.512 6h-8.712c-0.288 0-0.504 0.192-0.504 0.504s0.216 0.504 0.504 0.504h8.712c0.792 0 1.488 0.696 1.488 1.488v1.512h-6.288c-0.312 0-0.504 0.192-0.504 0.48s0.192 0.504 0.504 0.504h6c-0.12 0.096-0.12 0.216-0.216 0.216l-2.592 2.4c-0.096 0.096-0.216 0.192-0.216 0.384 0 0.312 0.216 0.504 0.504 0.504 0.096 0 0.216 0 0.312-0.096l2.592-2.4c0.504-0.504 0.816-1.104 0.816-1.8v-1.704c0.096-1.392-1.008-2.496-2.4-2.496z"></path>
</svg>
