<svg xmlns="http://www.w3.org/2000/svg" width="24" height="24" viewBox="0 0 24 24">
<path d="M20.424 10.128l-6.672-3.864c-0.336-0.168-0.696-0.288-1.080-0.288-1.2 0-2.16 0.984-2.16 2.184v0.864l-4.752-2.736c-0.336-0.192-0.72-0.312-1.080-0.312-1.2 0-2.184 0.984-2.184 2.184v7.68c0 0.792 0.408 1.488 1.080 1.872 0.336 0.192 0.72 0.312 1.080 0.312 0.384 0 0.768-0.12 1.104-0.312l4.752-2.736v0.864c0 1.2 0.96 2.184 2.16 2.184 0.384 0 0.744-0.096 1.080-0.288l6.672-3.864c0.312-0.192 0.6-0.456 0.792-0.792 0.6-1.032 0.24-2.352-0.792-2.952zM10.512 13.824l-5.256 3.024c-0.192 0.12-0.384 0.168-0.576 0.168-0.648 0-1.176-0.528-1.176-1.176v-7.68c0-0.216 0.048-0.408 0.144-0.6 0.336-0.552 1.032-0.744 1.608-0.408l5.256 3.024v3.648zM19.92 13.008l-6.672 3.864c-0.168 0.096-0.384 0.144-0.576 0.144-0.648 0-1.176-0.528-1.176-1.176v-7.68c0-0.648 0.528-1.176 1.176-1.176 0.192 0 0.408 0.048 0.576 0.144l6.672 3.864c0.168 0.096 0.312 0.24 0.432 0.432 0.312 0.552 0.12 1.272-0.432 1.584z"></path>
</svg>
