<svg xmlns="http://www.w3.org/2000/svg" width="24" height="24" viewBox="0 0 24 24">
<path d="M21.888 2.808c0.072-0.096 0.12-0.192 0.12-0.312 0-0.264-0.24-0.504-0.504-0.504h-19.008c-0.12 0-0.216 0.048-0.312 0.12-0.216 0.168-0.24 0.48-0.072 0.696l9.384 11.856v6.336h-6c-0.264 0-0.504 0.216-0.504 0.504s0.24 0.504 0.504 0.504h13.008c0.264 0 0.504-0.24 0.504-0.504s-0.24-0.504-0.504-0.504h-6v-6.336l9.384-11.856zM3.528 3h16.944l-3.576 4.488h-9.792l-3.576-4.488zM12 13.704l-4.104-5.208h8.208l-4.104 5.208z"></path>
</svg>
