<svg xmlns="http://www.w3.org/2000/svg" width="24" height="24" viewBox="0 0 24 24">
<path d="M20.904 11.088c-0.408-0.192-4.008-2.28-4.008-2.28v0l-12.288-7.104c-0.216-0.216-0.6-0.216-0.912-0.096 0 0 0 0 0 0s-0.096 0-0.096 0.096c-0.408 0.096-0.6 0.504-0.6 0.888v19.008c0 0.312 0.192 0.696 0.408 0.792 0 0 0.096 0 0.096 0s0 0 0 0c0.096 0 0.192 0.12 0.288 0.12 0.216 0 0.408-0.12 0.6-0.216 0.408-0.192 12.408-7.2 12.408-7.2l4.008-2.304c0.384-0.192 0.6-0.504 0.6-0.888 0.096-0.312-0.096-0.696-0.504-0.816zM15.792 9.288l-1.992 2.016-7.392-7.512 9.384 5.496zM4.008 21v-18.096l9.192 9.096-9.192 9zM6.408 19.992l7.392-7.392 1.992 1.896c-1.584 1.104-6.384 3.792-9.384 5.496zM20.4 12l-3.696 2.088-2.112-2.088 2.208-2.112c0.792 0.408 3 1.704 3.6 2.112v0z"></path>
</svg>
