<svg xmlns="http://www.w3.org/2000/svg" width="24" height="24" viewBox="0 0 24 24">
<path d="M12 3c-5.52 0-10.008 4.488-10.008 10.008v7.488c0 0.288 0.24 0.504 0.504 0.504h3c1.392 0 2.496-1.128 2.496-2.496v-2.016c0-1.368-1.104-2.496-2.496-2.496h-2.496v-0.984c0-4.968 4.032-9 9-9s9 4.032 9 9v0.984h-2.496c-1.392 0-2.496 1.128-2.496 2.496v2.016c0 1.368 1.104 2.496 2.496 2.496h3c0.264 0 0.504-0.216 0.504-0.504v-7.488c0-5.52-4.488-10.008-10.008-10.008zM5.496 15c0.84 0 1.512 0.672 1.512 1.488v2.016c0 0.816-0.672 1.488-1.512 1.488h-2.496v-4.992h2.496zM21 19.992h-2.496c-0.84 0-1.512-0.672-1.512-1.488v-2.016c0-0.816 0.672-1.488 1.512-1.488h2.496v4.992z"></path>
</svg>
