<svg xmlns="http://www.w3.org/2000/svg" width="24" height="24" viewBox="0 0 24 24">
<path d="M12 8.376c-0.336 0-0.624 0.288-0.624 0.624s0.288 0.624 0.624 0.624 0.624-0.288 0.624-0.624-0.288-0.624-0.624-0.624zM12 10.488c-0.288 0-0.504 0.24-0.504 0.504v4.008c0 0.288 0.216 0.504 0.504 0.504v0c0.288 0 0.504-0.216 0.504-0.504v-4.008c0-0.264-0.216-0.504-0.504-0.504zM12 1.992c-5.52 0-10.008 4.488-10.008 10.008s4.488 10.008 10.008 10.008c5.52-0.024 9.984-4.488 10.008-10.008 0-5.52-4.488-10.008-10.008-10.008zM12 21c-4.968 0-9-4.032-9-9s4.032-9 9-9c4.968 0 9 4.032 9 9s-4.032 9-9 9z"></path>
</svg>
