<svg xmlns="http://www.w3.org/2000/svg" width="24" height="24" viewBox="0 0 24 24">
<path d="M10.008 14.496v0c0.264 0 0.48-0.216 0.48-0.504v-7.992c0-0.288-0.216-0.504-0.48-0.504s-0.504 0.216-0.504 0.504v7.992c0 0.288 0.216 0.504 0.504 0.504zM13.992 14.496v0c0.288 0 0.504-0.216 0.504-0.504v-7.992c0-0.288-0.216-0.504-0.504-0.504s-0.48 0.216-0.48 0.504v7.992c-0.024 0.288 0.216 0.504 0.48 0.504zM19.992 1.008h-15.984c-1.656 0-3 1.344-3 3v15.984c0 1.656 1.344 3 3 3h15.984c1.656 0 3-1.344 3-3v-15.984c0-1.656-1.344-3-3-3zM22.008 19.992c0 1.104-0.912 2.016-2.016 2.016h-15.984c-1.104 0-2.016-0.912-2.016-2.016v-15.984c0-1.104 0.912-2.016 2.016-2.016h15.984c1.104 0 2.016 0.912 2.016 2.016v15.984zM6 12.504v0c0.288 0 0.504-0.216 0.504-0.504v-4.008c0-0.264-0.216-0.504-0.504-0.504s-0.504 0.24-0.504 0.504v4.008c0 0.288 0.216 0.504 0.504 0.504zM18 7.488v0c-0.288 0-0.504 0.24-0.504 0.504v4.008c0 0.288 0.216 0.504 0.504 0.504s0.504-0.216 0.504-0.504v-4.008c0-0.264-0.216-0.48-0.504-0.504zM17.688 15.792c-1.68 1.152-3.672 1.752-5.688 1.704-2.016 0.048-4.008-0.552-5.688-1.704-0.192-0.168-0.528-0.144-0.696 0.072-0.168 0.192-0.144 0.504 0.072 0.696 1.824 1.32 4.056 2.016 6.312 1.944 2.256 0.072 4.488-0.624 6.312-1.944 0.216-0.168 0.24-0.504 0.072-0.696s-0.504-0.24-0.696-0.072z"></path>
</svg>
