<svg xmlns="http://www.w3.org/2000/svg" width="24" height="24" viewBox="0 0 24 24">
<path d="M21.192 14.592l-1.392 0.816c-0.192 0.096-0.192 0.288-0.192 0.384 0 0.312 0.192 0.504 0.48 0.504 0.12 0 0.216 0 0.216-0.096l1.392-0.792c0.216-0.12 0.312-0.408 0.216-0.72s-0.408-0.288-0.72-0.096zM10.2 6.096l1.8-1.008 8.496 4.92-3.792 2.184c-0.216 0.096-0.216 0.312-0.216 0.408 0 0.288 0.216 0.504 0.504 0.504 0.096 0 0.216 0 0.216-0.096l4.584-2.712c0.096 0 0.096-0.096 0.216-0.192 0.096-0.192 0.096-0.504-0.216-0.696l-9.48-5.496c-0.216-0.12-0.312-0.12-0.504 0l-2.016 1.2c-0.288 0.288-0.384 0.576-0.288 0.792 0.192 0.288 0.504 0.384 0.696 0.192zM21.888 21.096l-7.2-7.2c0 0 0 0 0 0s0 0 0 0l-7.080-7.008c0 0 0 0-0.12-0.096l-4.584-4.704c-0.192-0.096-0.504-0.096-0.696 0-0.216 0.216-0.216 0.6-0.096 0.816l4.296 4.296-4.2 2.304c-0.096 0-0.096 0.096-0.216 0.192-0.096 0.312 0 0.6 0.216 0.696l9.504 5.496c0.096 0 0.192 0.12 0.288 0.12s0.192 0 0.192-0.12l1.92-1.080 2.4 2.4-4.512 2.688-9.192-5.4c-0.216-0.096-0.504-0.096-0.696 0.192-0.216 0.312-0.12 0.6 0.096 0.72l9.504 5.496c0.096 0 0.192 0.096 0.288 0.096s0.192 0 0.312-0.096l4.992-2.904 3.792 3.792c0.096 0.096 0.192 0.096 0.408 0.096 0.096 0 0.288-0.096 0.384-0.096 0.12-0.096 0.12-0.48 0-0.696zM12 14.904l-8.496-4.896 3.696-2.112 6.192 6.192-1.392 0.816z"></path>
</svg>
