<svg xmlns="http://www.w3.org/2000/svg" width="24" height="24" viewBox="0 0 24 24">
<path d="M2.496 10.488h11.016c0.264 0 0.48-0.216 0.48-0.48s-0.216-0.504-0.48-0.504h-11.016c-0.264 0-0.504 0.216-0.504 0.504s0.24 0.48 0.504 0.48zM2.496 6.504h19.008c0.264 0 0.504-0.216 0.504-0.504s-0.24-0.504-0.504-0.504h-19.008c-0.264 0-0.504 0.216-0.504 0.504s0.24 0.504 0.504 0.504zM21.84 9.36c-0.24-0.288-0.648-0.336-0.936-0.096l-2.664 2.232c-0.024 0.024-0.072 0.048-0.096 0.072-0.216 0.288-0.192 0.72 0.096 0.936l2.664 2.232c0.12 0.096 0.264 0.144 0.432 0.144 0.192 0 0.384-0.072 0.504-0.24 0.24-0.264 0.192-0.696-0.072-0.936l-2.064-1.704 2.064-1.704c0.264-0.24 0.312-0.672 0.072-0.936zM2.496 14.496h11.016c0.264 0 0.48-0.216 0.48-0.504s-0.216-0.504-0.48-0.504h-11.016c-0.264 0-0.504 0.24-0.504 0.504s0.24 0.504 0.504 0.504zM21.504 17.496h-19.008c-0.264 0-0.504 0.216-0.504 0.504s0.24 0.504 0.504 0.504h19.008c0.264 0 0.504-0.216 0.504-0.504s-0.24-0.504-0.504-0.504z"></path>
</svg>
