<svg xmlns="http://www.w3.org/2000/svg" width="24" height="24" viewBox="0 0 24 24">
<path d="M19.512 7.008h-1.848c0 0 0 0 0 0h-1.656v-1.512c0-1.368-1.128-2.496-2.496-2.496h-3c-1.392 0-2.52 1.128-2.52 2.496v1.512h-3.48c-1.392 0-2.52 1.104-2.52 2.496v1.824c0 0 0 0 0 0.024v7.152c0 1.368 1.128 2.496 2.52 2.496h15c1.368 0 2.496-1.128 2.496-2.496v-1.824c0-0.024 0-0.024 0-0.024v-5.328c0 0 0 0 0 0v-1.824c0-1.392-1.128-2.496-2.496-2.496zM9 5.496c0-0.816 0.672-1.488 1.512-1.488h3c0.816 0 1.488 0.672 1.488 1.488v1.512h-6v-1.512zM3 9.504c0-0.84 0.672-1.512 1.512-1.512h1.44c0.024 0.168 0.048 0.336 0.048 0.504 0 1.392-1.128 2.496-2.496 2.496-0.168 0-0.336-0.024-0.504-0.048v-1.44zM5.952 19.992h-1.44c-0.84 0-1.512-0.672-1.512-1.488v-1.44c0.168-0.048 0.336-0.072 0.504-0.072 1.368 0 2.496 1.128 2.496 2.496 0 0.192-0.024 0.336-0.048 0.504zM21 18.504c0 0.816-0.672 1.488-1.488 1.488h-1.464c-0.024-0.168-0.048-0.312-0.048-0.504 0-1.368 1.128-2.496 2.496-2.496 0.168 0 0.336 0.024 0.504 0.072v1.44zM21 16.032c-0.168-0.024-0.336-0.024-0.504-0.024-1.92 0-3.504 1.56-3.504 3.48 0 0.168 0.024 0.336 0.048 0.504h-10.080c0.024-0.168 0.048-0.336 0.048-0.504 0-1.92-1.584-3.48-3.504-3.48-0.168 0-0.336 0-0.504 0.024v-4.080c0.168 0.024 0.336 0.048 0.504 0.048 1.92 0 3.504-1.56 3.504-3.504 0-0.168-0.024-0.336-0.048-0.504h10.080c-0.024 0.168-0.048 0.336-0.048 0.504 0 1.944 1.584 3.504 3.504 3.504 0.168 0 0.336-0.024 0.504-0.048v4.080zM21 10.944c-0.168 0.024-0.336 0.048-0.504 0.048-1.368 0-2.496-1.104-2.496-2.496 0-0.168 0.024-0.336 0.048-0.504h1.464c0.816 0 1.488 0.672 1.488 1.512v1.44zM12 10.992c-1.656 0-3 1.344-3 3s1.344 3 3 3c1.656 0 3-1.344 3-3s-1.344-3-3-3zM12 16.008c-1.104 0-1.992-0.912-1.992-2.016s0.888-1.992 1.992-1.992c1.104 0 1.992 0.888 1.992 1.992s-0.888 2.016-1.992 2.016z"></path>
</svg>
