<svg xmlns="http://www.w3.org/2000/svg" width="24" height="24" viewBox="0 0 24 24">
<path d="M21 19.080v-14.184c0.576-0.192 1.008-0.744 1.008-1.392 0-0.84-0.672-1.512-1.512-1.512-0.648 0-1.2 0.432-1.416 1.008h-14.16c-0.216-0.576-0.768-1.008-1.416-1.008-0.84 0-1.512 0.672-1.512 1.512 0 0.648 0.432 1.2 1.008 1.416v14.16c-0.576 0.216-1.008 0.768-1.008 1.416 0 0.84 0.672 1.512 1.512 1.512 0.648 0 1.2-0.432 1.392-1.008h14.184c0.216 0.576 0.768 1.008 1.416 1.008 0.84 0 1.512-0.672 1.512-1.512 0-0.648-0.432-1.2-1.008-1.416zM20.496 3c0.288 0 0.504 0.216 0.504 0.504 0 0.264-0.216 0.504-0.504 0.504s-0.504-0.24-0.504-0.504 0.24-0.504 0.504-0.504zM3.504 3c0.264 0 0.504 0.216 0.504 0.504 0 0.264-0.24 0.504-0.504 0.504s-0.504-0.24-0.504-0.504 0.216-0.504 0.504-0.504zM3.504 21c-0.288 0-0.504-0.216-0.504-0.504s0.216-0.504 0.504-0.504c0.264 0 0.504 0.24 0.504 0.504 0 0.288-0.24 0.504-0.504 0.504zM19.080 20.016c0 0 0-0.024 0-0.024h-14.16c0 0 0 0.024 0 0.024-0.168-0.432-0.504-0.768-0.936-0.936 0 0 0.024 0 0.024 0v-14.16c0 0-0.024 0-0.024 0 0.432-0.168 0.768-0.504 0.936-0.936 0 0 0 0.024 0 0.024h14.16c0 0 0-0.024 0-0.024 0.168 0.432 0.504 0.768 0.936 0.936 0 0-0.024 0-0.024 0v14.16c0 0 0.024 0 0.024 0-0.432 0.168-0.768 0.504-0.936 0.936zM20.496 21c-0.264 0-0.504-0.216-0.504-0.504s0.24-0.504 0.504-0.504c0.288 0 0.504 0.24 0.504 0.504 0 0.288-0.216 0.504-0.504 0.504zM16.512 10.008h-2.52v-2.52c0 0 0 0 0 0 0-0.264-0.216-0.48-0.48-0.48h-6c-0.024 0-0.024 0-0.024 0-0.264 0-0.48 0.216-0.48 0.48v6c0 0.024 0 0.024 0 0.024 0 0.264 0.216 0.48 0.504 0.48h2.496v2.496c0 0.024 0 0.024 0 0.024 0 0.264 0.216 0.48 0.504 0.48h6c0 0 0 0 0 0 0.264 0 0.48-0.216 0.48-0.504v-6c0 0 0 0 0 0 0-0.264-0.216-0.48-0.48-0.48zM10.488 10.008c-0.264 0-0.48 0.216-0.48 0.48v2.52h-2.016v-5.016h5.016v2.016h-2.496c-0.024 0-0.024 0-0.024 0zM16.008 16.008h-5.016v-5.016h5.016v5.016z"></path>
</svg>
