<svg xmlns="http://www.w3.org/2000/svg" width="24" height="24" viewBox="0 0 24 24">
<path d="M7.008 9.504c-0.84 0-1.512 0.672-1.512 1.488s0.672 1.512 1.512 1.512c0.816 0 1.488-0.672 1.488-1.512 0-0.816-0.672-1.488-1.488-1.488zM7.008 11.496c-0.288 0-0.504-0.216-0.504-0.504s0.216-0.504 0.504-0.504c0.264 0.024 0.48 0.24 0.48 0.504 0.024 0.288-0.216 0.504-0.48 0.504zM19.512 6h-1.512v-3.504c0 0 0 0 0 0 0-0.264-0.216-0.504-0.504-0.504h-10.992c0 0 0 0 0 0-0.288 0-0.504 0.24-0.504 0.504v3.504h-1.488c-1.392 0-2.52 1.128-2.52 2.496v6.504c0 1.656 1.344 3 3 3h1.008v3.504c0 0 0 0 0 0 0 0.264 0.216 0.504 0.504 0.504h10.992c0 0 0 0 0 0 0.288 0 0.504-0.24 0.504-0.504v-3.504h1.008c1.656 0 3-1.344 3-3v-6.504c0-1.368-1.128-2.496-2.496-2.496zM7.008 3h9.984v3h-9.984v-3zM16.992 21h-9.984v-6h9.984v6zM21 15c0 1.104-0.888 1.992-1.992 1.992h-1.008v-2.496c0 0 0 0 0 0 0-0.264-0.216-0.504-0.504-0.504h-10.992c0 0 0 0 0 0-0.288 0-0.504 0.24-0.504 0.504v2.496h-1.008c-1.104 0-1.992-0.888-1.992-1.992v-6.504c0-0.816 0.672-1.488 1.512-1.488h15c0.816 0 1.488 0.672 1.488 1.488v6.504z"></path>
</svg>
