<svg xmlns="http://www.w3.org/2000/svg" width="24" height="24" viewBox="0 0 24 24">
<path d="M12.6 8.112c-1.344-0.36-2.712 0.456-3.048 1.776-0.072 0.288 0.096 0.552 0.36 0.624s0.528-0.096 0.6-0.36c0.144-0.504 0.504-0.888 0.984-1.056 0.792-0.264 1.632 0.168 1.896 0.96 0.264 0.768-0.168 1.632-0.936 1.896-0.624 0.216-1.008 0.792-0.984 1.44v0.624c0 0.288 0.216 0.504 0.504 0.504v0c0.264 0 0.48-0.216 0.48-0.504v-0.624c0-0.216 0.12-0.408 0.312-0.504 0.792-0.264 1.416-0.912 1.608-1.728 0.36-1.344-0.456-2.712-1.776-3.048zM11.976 15.408c-0.36 0-0.648 0.264-0.648 0.624s0.288 0.624 0.648 0.624c0.336 0 0.624-0.288 0.624-0.624s-0.288-0.624-0.624-0.624zM12 1.992c-5.52 0-10.008 4.488-10.008 10.008s4.488 10.008 10.008 10.008c5.52-0.024 9.984-4.488 10.008-10.008 0-5.52-4.488-10.008-10.008-10.008zM12 21c-4.968 0-9-4.032-9-9s4.032-9 9-9c4.968 0 9 4.032 9 9s-4.032 9-9 9z"></path>
</svg>
