<svg xmlns="http://www.w3.org/2000/svg" width="24" height="24" viewBox="0 0 24 24">
<path d="M21.504 1.992h-19.008c-0.264 0-0.504 0.24-0.504 0.504v19.008c0 0.264 0.24 0.504 0.504 0.504h7.008c0.264 0 0.504-0.24 0.504-0.504v-11.496h11.496c0.264 0 0.504-0.24 0.504-0.504v-7.008c0-0.264-0.24-0.504-0.504-0.504zM21 9h-3.504v-2.496c0-0.288-0.216-0.504-0.504-0.504s-0.504 0.216-0.504 0.504v2.496h-3v-2.496c0.024-0.288-0.216-0.504-0.48-0.504s-0.504 0.216-0.504 0.504v2.496h-2.496v-2.496c0-0.288-0.24-0.504-0.504-0.504s-0.504 0.216-0.504 0.504v2.496h-2.496c-0.288 0-0.504 0.216-0.504 0.504s0.216 0.504 0.504 0.504h2.496v2.496h-2.496c-0.288 0-0.504 0.216-0.504 0.504s0.216 0.48 0.504 0.48h2.496v3h-2.496c-0.288 0-0.504 0.24-0.504 0.504s0.216 0.504 0.504 0.504h2.496v3.504h-6v-18h18v6z"></path>
</svg>
