<svg xmlns="http://www.w3.org/2000/svg" width="24" height="24" viewBox="0 0 24 24">
<path d="M20.496 7.488c-0.144 0-0.264 0.072-0.36 0.168l-3.144 3.144-3.144-3.144c-0.096-0.096-0.216-0.168-0.336-0.168-0.288 0-0.504 0.24-0.504 0.504v8.016c0 0 0 0 0 0 0 0.264 0.216 0.504 0.504 0.48 0 0 0 0 0 0 0.264 0 0.48-0.216 0.48-0.48v-6.792l2.664 2.64c0.096 0.096 0.216 0.144 0.336 0.144 0.144 0 0.264-0.048 0.36-0.144l2.64-2.64v6.792c0 0 0 0 0 0 0 0.264 0.24 0.504 0.504 0.48 0 0 0 0 0 0 0.288 0 0.504-0.216 0.504-0.48v-8.016c0-0.264-0.216-0.504-0.504-0.504zM5.496 8.496h4.008c0.264 0 0.504-0.216 0.504-0.504s-0.24-0.504-0.504-0.504h-4.008c-1.368 0-2.496 1.128-2.496 2.52s1.128 2.496 2.496 2.496h2.016c0.816 0 1.488 0.672 1.488 1.488s-0.672 1.512-1.488 1.512h-4.008c-0.288 0-0.504 0.216-0.504 0.504s0.216 0.48 0.504 0.48h4.008c1.368 0 2.496-1.104 2.496-2.496s-1.128-2.496-2.496-2.496h-2.016c-0.816 0-1.488-0.672-1.488-1.488s0.672-1.512 1.488-1.512z"></path>
</svg>
