<svg xmlns="http://www.w3.org/2000/svg" width="24" height="24" viewBox="0 0 24 24">
<path d="M3.504 1.992h16.992c0.288 0 0.504-0.216 0.504-0.504s-0.216-0.48-0.504-0.48h-16.992c-0.288 0-0.504 0.216-0.504 0.48s0.216 0.504 0.504 0.504zM22.008 4.992h-20.016c0 0 0 0 0 0-0.264 0-0.504 0.24-0.48 0.504v4.008c0 1.032 0.6 1.896 1.488 2.28v10.728c0 0 0 0 0 0 0 0.264 0.216 0.48 0.504 0.48h16.992c0 0 0 0 0 0 0.288 0 0.504-0.216 0.504-0.48v-10.728c0.888-0.384 1.488-1.248 1.512-2.28v-4.008c0 0 0 0 0 0-0.024-0.264-0.24-0.504-0.504-0.504zM14.496 6h3v3.504c0 0.816-0.672 1.488-1.488 1.488s-1.512-0.672-1.512-1.488v-3.504zM10.512 6h3v3.504c0 0.816-0.672 1.488-1.512 1.488s-1.488-0.672-1.488-1.488v-3.504zM6.504 6h3v3.504c0 0.816-0.672 1.488-1.512 1.488s-1.488-0.672-1.488-1.488v-3.504zM2.496 9.504v-3.504h3v3.504c0 0.816-0.672 1.488-1.488 1.488s-1.512-0.672-1.512-1.488zM15 22.008h-6v-3c0-1.656 1.344-3 3-3s3 1.344 3 3v3zM19.992 22.008h-3.984v-3c0-2.208-1.8-4.008-4.008-4.008s-4.008 1.8-4.008 4.008v3h-3.984v-10.008c0.816 0 1.536-0.408 1.992-1.008 0.456 0.6 1.176 1.008 1.992 1.008 0.84 0 1.56-0.408 2.016-1.008 0.456 0.6 1.176 1.008 1.992 1.008s1.536-0.408 1.992-1.008c0.456 0.6 1.176 1.008 2.016 1.008 0.816 0 1.536-0.408 1.992-1.008 0.456 0.6 1.176 1.008 1.992 1.008v10.008zM21.504 9.504c0 0.816-0.672 1.488-1.512 1.488s-1.488-0.672-1.488-1.488v-3.504h3v3.504z"></path>
</svg>
