<svg xmlns="http://www.w3.org/2000/svg" width="24" height="24" viewBox="0 0 24 24">
<path d="M2.496 10.008c0 0 0 0 0 0 0.288 0 0.504-0.24 0.504-0.504v-5.808l6.144 6.168c0.192 0.192 0.504 0.192 0.696 0 0.216-0.192 0.216-0.504 0.024-0.72l-6.168-6.144h5.808c0.264 0 0.504-0.216 0.504-0.504s-0.24-0.504-0.504-0.504h-7.008c0 0 0 0 0 0-0.264 0-0.504 0.24-0.504 0.504v7.008c0 0 0 0 0 0 0 0.264 0.24 0.504 0.504 0.504zM21.864 21.144l-7.008-7.008c-0.192-0.168-0.504-0.168-0.696 0-0.192 0.192-0.216 0.528-0.024 0.72l7.008 7.008c0.096 0.072 0.216 0.144 0.36 0.144 0.12 0 0.264-0.072 0.36-0.144 0.192-0.216 0.192-0.528 0-0.72zM9.504 21h-5.808l18.168-18.144c0.168-0.192 0.168-0.504 0-0.696-0.192-0.192-0.528-0.216-0.72-0.024l-18.144 18.168v-5.808c0-0.264-0.216-0.504-0.504-0.504s-0.504 0.24-0.504 0.504v7.008c0 0 0 0 0 0 0 0.264 0.24 0.504 0.504 0.504h7.008c0.264 0 0.504-0.24 0.504-0.504s-0.24-0.504-0.504-0.504z"></path>
</svg>
