<svg xmlns="http://www.w3.org/2000/svg" width="24" height="24" viewBox="0 0 24 24">
<path d="M5.496 18c-0.264 0-0.504 0.216-0.504 0.504v3c0 0.264 0.24 0.504 0.504 0.504v0c0.288 0 0.504-0.24 0.504-0.504v-3c0-0.288-0.216-0.504-0.504-0.504zM10.512 13.992c-0.288 0-0.504 0.24-0.504 0.504v7.008c0 0.264 0.216 0.504 0.504 0.504v0c0.264 0 0.48-0.24 0.48-0.504v-7.008c0-0.264-0.216-0.504-0.48-0.504zM20.496 1.992c-0.264 0-0.504 0.24-0.504 0.504v19.008c0 0.264 0.24 0.504 0.504 0.504v0c0.288 0 0.504-0.24 0.504-0.504v-19.008c0-0.264-0.216-0.504-0.504-0.504zM15.504 9c-0.288 0-0.504 0.216-0.504 0.504v12c0 0.264 0.216 0.504 0.504 0.504v0c0.264 0 0.504-0.24 0.504-0.504v-12c0-0.288-0.24-0.504-0.504-0.504z"></path>
</svg>
