<svg xmlns="http://www.w3.org/2000/svg" width="24" height="24" viewBox="0 0 24 24">
<path d="M16.968 4.008h-9.96c-1.656 0-3 1.344-3 3v9.96c0 1.68 1.344 3.024 3.024 3.024h9.96c1.656 0 3-1.344 3-3v-9.96c0-1.68-1.344-3.024-3.024-3.024zM10.008 4.992h3.984v4.008h-3.984v-4.008zM9 19.008h-1.968c-1.128 0-2.040-0.912-2.040-2.040v-1.968h4.008v4.008zM13.992 19.008h-3.984v-4.008h3.984v4.008zM19.008 16.992c0 1.104-0.912 2.016-2.016 2.016h-1.992v-4.008h4.008v1.992zM19.008 13.992h-14.016v-6.984c0-1.104 0.912-2.016 2.016-2.016h1.992v4.512c0 0 0 0 0 0 0 0.264 0.216 0.504 0.504 0.504v0h9.504v3.984zM19.008 9h-4.008v-4.008h1.968c1.128 0 2.040 0.912 2.040 2.040v1.968z"></path>
</svg>
