<svg xmlns="http://www.w3.org/2000/svg" width="24" height="24" viewBox="0 0 24 24">
<path d="M10.512 10.008c0-0.84-0.672-1.512-1.512-1.512s-1.488 0.672-1.488 1.512 0.648 1.488 1.488 1.488c0.84 0 1.488-0.672 1.512-1.488zM8.496 10.008c0-0.288 0.216-0.504 0.504-0.504 0.264 0 0.504 0.216 0.504 0.504 0 0.264-0.216 0.48-0.504 0.48s-0.504-0.216-0.504-0.48zM15 8.496c-0.84 0-1.488 0.672-1.488 1.512s0.648 1.488 1.488 1.488c0.84 0 1.488-0.672 1.512-1.488 0-0.84-0.672-1.512-1.512-1.512zM15 10.488c-0.288 0-0.504-0.216-0.504-0.48s0.216-0.504 0.504-0.504c0.264 0 0.504 0.216 0.504 0.504 0 0.264-0.216 0.48-0.504 0.48zM12 1.992c-5.52 0-10.008 4.488-10.008 10.008s4.488 10.008 10.008 10.008c5.52-0.024 9.984-4.488 10.008-10.008 0-5.52-4.488-10.008-10.008-10.008zM12 21c-4.968 0-9-4.032-9-9s4.032-9 9-9c4.968 0 9 4.032 9 9s-4.032 9-9 9zM15.144 14.688c-0.024 0-0.024 0.024-0.048 0.048-1.728 1.704-4.536 1.68-6.24-0.048-0.192-0.192-0.504-0.192-0.696 0s-0.216 0.504-0.024 0.696c1.032 1.032 2.424 1.608 3.864 1.608s2.832-0.576 3.864-1.608c0.168-0.192 0.168-0.504 0-0.696-0.192-0.192-0.528-0.192-0.72 0z"></path>
</svg>
