<svg xmlns="http://www.w3.org/2000/svg" width="24" height="24" viewBox="0 0 24 24">
<path d="M21.912 10.128c0.096-0.552-0.288-1.056-0.84-1.128l-5.64-0.84-2.544-5.136c-0.072-0.168-0.216-0.288-0.36-0.384-0.504-0.288-1.128-0.12-1.416 0.384l-2.544 5.136-5.64 0.84c-0.216 0.024-0.408 0.12-0.576 0.288-0.384 0.384-0.384 1.032 0.024 1.416l4.080 4.008-0.96 5.664c0 0.048-0.024 0.096-0.024 0.168 0 0.552 0.456 0.984 1.008 1.008 0.168 0 0.336-0.048 0.48-0.12l5.040-2.688 5.040 2.688c0.192 0.096 0.432 0.12 0.648 0.096 0.552-0.096 0.912-0.6 0.816-1.152l-0.96-5.664 4.080-4.008c0.168-0.168 0.264-0.36 0.288-0.576zM11.496 17.88l-5.016 2.664 1.008-5.928c0.024-0.168-0.024-0.336-0.144-0.432l-4.272-4.2 5.904-0.864c0.168-0.024 0.312-0.12 0.384-0.288l2.136-4.344v13.392zM16.656 14.184c-0.12 0.096-0.168 0.264-0.144 0.432l1.008 5.928-5.016-2.664v-13.392l2.136 4.344c0.072 0.168 0.216 0.264 0.384 0.288l5.904 0.864-4.272 4.2z"></path>
</svg>
