<svg xmlns="http://www.w3.org/2000/svg" width="24" height="24" viewBox="0 0 24 24">
<path d="M22.008 1.992h-20.016c-0.264 0-0.504 0.24-0.48 0.504v4.008c0 1.032 0.624 1.92 1.536 2.304-0.024 0.048-0.048 0.12-0.048 0.192v12.504c0 0.264 0.216 0.504 0.504 0.504h16.992c0.288 0 0.504-0.24 0.504-0.504v-12.504c0-0.072-0.024-0.144-0.048-0.192 0.912-0.384 1.536-1.272 1.56-2.304v-4.008c-0.024-0.264-0.24-0.504-0.504-0.504zM14.496 3h3v3.504c0 0.816-0.672 1.488-1.488 1.488s-1.512-0.672-1.512-1.488v-3.504zM10.512 3h3v3.504c0 0.816-0.672 1.488-1.512 1.488s-1.488-0.672-1.488-1.488v-3.504zM6.504 3h3v3.504c0 0.816-0.672 1.488-1.512 1.488s-1.488-0.672-1.488-1.488v-3.504zM2.496 6.504v-3.504h3v3.504c0 0.816-0.672 1.488-1.488 1.488s-1.512-0.672-1.512-1.488zM15 21h-6v-4.992c0-1.656 1.344-3 3-3s3 1.344 3 3v4.992zM19.992 21h-3.984v-4.992c0-2.208-1.8-4.008-4.008-4.008s-4.008 1.8-4.008 4.008v4.992h-3.984v-12c0.816 0 1.536-0.408 1.992-1.008 0.456 0.6 1.176 1.008 1.992 1.008 0.84 0 1.56-0.408 2.016-1.008 0.456 0.6 1.176 1.008 1.992 1.008s1.536-0.408 1.992-1.008c0.456 0.6 1.176 1.008 2.016 1.008 0.816 0 1.536-0.408 1.992-1.008 0.456 0.6 1.176 1.008 1.992 1.008v12zM21.504 6.504c0 0.816-0.672 1.488-1.512 1.488s-1.488-0.672-1.488-1.488v-3.504h3v3.504z"></path>
</svg>
