<svg xmlns="http://www.w3.org/2000/svg" width="24" height="24" viewBox="0 0 24 24">
<path d="M7.8 4.008h10.896l1.8 4.584c0 1.296-1.104 2.4-2.496 2.4s-2.496-1.104-2.496-2.496c0-0.288-0.192-0.504-0.504-0.504s-0.504 0.216-0.504 0.504c0 0.504-0.192 1.008-0.384 1.392-0.12 0.12-0.12 0.216-0.12 0.312 0 0.288 0.216 0.504 0.504 0.504 0.216 0 0.312-0.096 0.408-0.216 0.096-0.096 0.096-0.096 0.096-0.192 0.6 1.008 1.704 1.704 3 1.704 0.288 0 0.696-0.096 1.008-0.192v3.384c0 0 0 0 0 0 0 0.312 0.192 0.504 0.48 0.504 0 0 0 0 0 0 0.312 0 0.504-0.192 0.504-0.504v-3.888c0.912-0.6 1.512-1.704 1.512-2.904 0 0 0 0 0 0s0 0 0 0 0-0.096 0-0.096c0 0 0 0 0-0.096v0c0 0 0 0 0 0l-2.016-5.016c-0.096-0.096-0.288-0.192-0.48-0.192h-11.208c-0.288 0-0.6 0.192-0.6 0.504s0.312 0.504 0.6 0.504zM22.896 22.104l-3-3c0 0 0 0 0 0l-4.992-5.016c0 0 0 0 0 0l-13.008-12.984c-0.192-0.096-0.504-0.096-0.696 0-0.192 0.192-0.192 0.6-0.096 0.792l2.904 2.808-1.512 3.6c0 0.096 0 0.096 0 0.192 0 0 0 0 0 0s0 0 0 0c0 1.2 0.6 2.208 1.512 2.904v10.104c0 0 0 0 0 0 0 0.288 0.192 0.504 0.504 0.504h15c0 0 0 0 0 0 0.288 0 0.48-0.216 0.48-0.504v-0.816l2.112 2.112c0.096 0.096 0.192 0.096 0.408 0.096 0.096 0 0.288-0.096 0.384-0.096 0.096-0.096 0.096-0.504 0-0.696zM3.504 8.592l1.2-3.096 3.696 3.696c-0.312 1.008-1.296 1.8-2.4 1.8-1.392 0-2.496-1.104-2.496-2.4zM9.504 13.992c-0.312 0-0.504 0.216-0.504 0.504v6.504h-4.008v-9.192c0.312 0.096 0.72 0.192 1.008 0.192 1.296 0 2.4-0.696 3-1.704 0.504 0.792 1.296 1.392 2.208 1.608l2.088 2.088h-3.792c0 0 0 0 0 0zM13.992 21h-3.984v-6h3.984v6zM19.008 21h-4.008v-5.304l4.008 4.008v1.296z"></path>
</svg>
