<svg xmlns="http://www.w3.org/2000/svg" width="24" height="24" viewBox="0 0 24 24">
<path d="M20.496 6h-4.488v-1.512c0-1.368-1.128-2.496-2.496-2.496h-3c-1.392 0-2.52 1.128-2.52 2.496v1.512h-2.496c0 0 0 0 0 0h-1.992c-0.288 0-0.504 0.216-0.504 0.504s0.216 0.504 0.504 0.504h1.488v12.48c0 1.392 1.128 2.52 2.52 2.52h9c1.368 0 2.496-1.128 2.496-2.52v-12.48h1.488c0.288 0 0.504-0.24 0.504-0.504s-0.216-0.504-0.504-0.504zM9 4.488c0-0.816 0.672-1.488 1.512-1.488h3c0.816 0 1.488 0.672 1.488 1.488v1.512h-6v-1.512zM18 19.488c0 0.84-0.672 1.512-1.488 1.512h-9c-0.84 0-1.512-0.672-1.512-1.512v-12.48h12v12.48z"></path>
</svg>
