<svg xmlns="http://www.w3.org/2000/svg" width="24" height="24" viewBox="0 0 24 24">
<path d="M12.504 3v-0.504c0-0.264-0.216-0.504-0.504-0.504s-0.504 0.24-0.504 0.504v0.504c-4.608 0.144-8.352 3.84-8.496 8.496v0c0 0.288 0.216 0.504 0.504 0.504h5.016c0 0 0.024 0 0.024 0s0 0 0 0h2.952v7.248c0 0.96-0.768 1.752-1.752 1.752s-1.752-0.792-1.752-1.752c0-0.264-0.216-0.504-0.48-0.504s-0.504 0.24-0.504 0.504c0 1.512 1.224 2.76 2.736 2.76 1.536 0 2.76-1.248 2.76-2.76v-7.248h7.992c0.288 0 0.504-0.216 0.504-0.504-0.144-4.656-3.888-8.352-8.496-8.496zM8.040 10.992h-4.032c0.36-3.36 2.832-6.048 6-6.792-1.104 1.488-1.776 4.128-1.968 6.792zM9.048 10.992c0.288-4.32 1.728-6.984 2.952-6.984s2.664 2.664 2.952 6.984h-5.904zM15.96 10.992c-0.192-2.664-0.864-5.304-1.968-6.792 3.168 0.744 5.64 3.432 6 6.792h-4.032z"></path>
</svg>
