<svg xmlns="http://www.w3.org/2000/svg" width="24" height="24" viewBox="0 0 24 24">
<path d="M15.6 14.688c0 0 0 0 0 0-0.288-0.096-0.6-0.192-0.888-0.288 2.496-1.296 3.888-4.2 3.096-7.008l0.384-1.992c0 0 0 0 0 0 0.216-1.392-0.696-2.712-1.992-2.904l-1.008-0.192c-2.088-0.408-4.2-0.408-6.288 0l-1.008 0.192c0 0 0 0 0 0-1.488 0.192-2.304 1.512-2.088 2.904l0.384 1.992c-0.096 0.504-0.192 1.104-0.192 1.608 0 2.4 1.392 4.392 3.312 5.4-0.312 0.096-0.6 0.192-0.912 0.288 0 0 0 0 0 0-3.192 1.2-5.688 4.104-6.288 7.824 0 0.288 0.096 0.48 0.384 0.6 0.312 0 0.504-0.12 0.6-0.408 0.504-3.096 2.616-5.712 5.4-6.912l3.096 3.096c0.096 0.12 0.216 0.12 0.408 0.12 0.096 0 0.288-0.12 0.408-0.12l3.096-3.096c2.784 1.2 4.896 3.696 5.4 6.912 0 0.192 0.192 0.408 0.504 0.408 0 0 0.096 0 0.096 0 0.288 0 0.504-0.312 0.384-0.6-0.576-3.72-3-6.624-6.288-7.824zM6.792 5.208c-0.096-0.816 0.408-1.608 1.2-1.8l1.008-0.216c1.896-0.384 3.912-0.384 5.904 0l1.008 0.216c0 0 0 0 0 0 0.792 0.192 1.296 0.888 1.2 1.8l-0.312 1.8h-9.6l-0.408-1.8c0 0 0 0 0 0zM7.104 7.992h9.792c0.216 0.816 0.096 1.608-0.096 2.4-0.792 2.616-3.6 4.2-6.192 3.408-2.52-0.792-4.008-3.312-3.504-5.808zM12 17.808l-2.4-2.4c0.312-0.12 0.696-0.216 1.008-0.216 1.296-0.192 2.688-0.096 3.888 0.216l-2.496 2.4z"></path>
</svg>
