<svg xmlns="http://www.w3.org/2000/svg" width="24" height="24" viewBox="0 0 24 24">
<path d="M17.376 13.368c1.56-0.84 2.616-2.472 2.616-4.368 0-2.76-2.232-4.992-4.992-4.992-0.144 0-0.288 0-0.408 0.024l-0.144 0.024c0 0 0 0 0 0-0.288 0.024-0.48 0.288-0.456 0.552 0.048 0.264 0.288 0.48 0.552 0.432l0.168-0.024c0.096 0 0.192-0.024 0.288-0.024 2.208 0 4.008 1.8 4.008 4.008s-1.8 4.008-4.008 4.008c-0.288 0-0.504 0.216-0.504 0.48s0.216 0.504 0.504 0.504c3.672 0.024 6.72 2.88 6.984 6.552 0 0.24 0.216 0.456 0.48 0.456 0.024 0 0.024 0 0.048 0 0.264-0.024 0.48-0.264 0.456-0.528-0.216-3.384-2.52-6.144-5.592-7.104zM11.376 13.368c1.56-0.84 2.616-2.472 2.616-4.368 0-2.76-2.232-4.992-4.992-4.992s-4.992 2.232-4.992 4.992c0 1.896 1.056 3.528 2.616 4.368-3.072 0.96-5.376 3.72-5.592 7.104-0.024 0.264 0.192 0.504 0.456 0.528 0 0 0.024 0 0.024 0 0.264 0.024 0.504-0.192 0.504-0.456 0.24-3.504 3.024-6.288 6.528-6.528 3.84-0.264 7.176 2.664 7.44 6.528 0 0.24 0.216 0.456 0.48 0.456 0.024 0 0.024 0 0.048 0 0.264-0.024 0.48-0.264 0.456-0.528-0.216-3.36-2.496-6.144-5.592-7.104zM9 13.008c-2.208 0-4.008-1.8-4.008-4.008s1.8-4.008 4.008-4.008c2.208 0 4.008 1.8 4.008 4.008s-1.8 4.008-4.008 4.008z"></path>
</svg>
