<svg xmlns="http://www.w3.org/2000/svg" width="24" height="24" viewBox="0 0 24 24">
<path d="M15 10.416c0.456 0.456 1.104 0.72 1.752 0.72 0.672 0 1.296-0.264 1.776-0.72l2.832-2.832c0 0 0 0 0 0 0.192-0.216 0.192-0.528 0-0.72s-0.528-0.192-0.72 0l-2.832 2.832c-0.576 0.6-1.536 0.6-2.112 0l-0.36-0.336 3.888-3.912c0 0 0.024 0 0.024 0 0.192-0.192 0.192-0.504-0.024-0.696-0.192-0.192-0.504-0.192-0.696 0l-3.888 3.888-0.36-0.36c-0.576-0.576-0.576-1.536 0-2.112l2.832-2.832c0 0 0 0 0 0 0.192-0.192 0.192-0.528 0-0.72s-0.504-0.192-0.696 0.024l-2.832 2.808c-0.984 0.984-0.984 2.568 0 3.552l0.336 0.36-1.944 1.944-2.184-2.208c1.032-1.44 0.864-3.432-0.456-4.68-1.272-1.296-4.704-2.784-6.216-1.272s0 4.944 1.272 6.216c0.696 0.696 1.608 1.104 2.568 1.128 0.048 0 0.072 0 0.12 0 0.72 0 1.44-0.24 2.016-0.672l2.184 2.184-8.64 8.64c-0.096 0.096-0.144 0.216-0.144 0.336 0 0.288 0.216 0.504 0.504 0.504 0.144 0 0.264-0.048 0.36-0.144l8.952-8.952c0-0.024 0.024-0.024 0.024-0.024 0.024 0 0.024-0.024 0.024-0.024l2.28-2.28 0.36 0.36zM8.784 8.808c-0.48 0.456-1.128 0.72-1.8 0.672-0.696-0.024-1.392-0.312-1.872-0.816-1.128-1.128-2.184-3.912-1.272-4.824 0.288-0.24 0.648-0.36 1.032-0.336 1.392 0.12 2.736 0.672 3.768 1.608 1.056 0.984 1.104 2.64 0.144 3.696zM15.168 14.472c-0.192-0.192-0.504-0.192-0.696 0s-0.192 0.528 0 0.72l6.168 6.168c0.096 0.096 0.216 0.144 0.36 0.144s0.264-0.048 0.36-0.144c0.192-0.192 0.192-0.504 0-0.696l-6.192-6.192z"></path>
</svg>
