<svg xmlns="http://www.w3.org/2000/svg" width="24" height="24" viewBox="0 0 24 24">
<path d="M15.408 15.408c0.192-0.216 0.192-0.504 0-0.72l-2.712-2.688 2.616-2.592c0.192-0.216 0.192-0.504 0-0.72-0.216-0.192-0.504-0.192-0.72 0l-2.592 2.616-2.592-2.712c-0.216-0.192-0.504-0.192-0.696 0-0.216 0.216-0.216 0.504 0 0.696l2.592 2.616-2.592 2.592c-0.12 0.096-0.12 0.192-0.12 0.408 0 0.288 0.216 0.504 0.504 0.504 0.096 0 0.312-0.12 0.408-0.12l2.592-2.592 2.616 2.592c0.096 0.12 0.192 0.12 0.384 0.12 0 0.096 0.216 0 0.312 0zM8.496 19.992h-0.504c-2.184 0-3.984-1.8-3.984-3.984v-8.016c0-2.184 1.8-3.984 3.984-3.984h0.504c0.312 0 0.504-0.216 0.504-0.504s-0.192-0.504-0.504-0.504h-0.504c-2.784 0-4.992 2.208-4.992 4.992v8.016c0 2.784 2.208 4.992 4.992 4.992h0.504c0.312 0 0.504-0.192 0.504-0.504s-0.192-0.504-0.504-0.504zM16.008 3h-0.504c-0.312 0-0.504 0.192-0.504 0.504s0.192 0.504 0.504 0.504h0.504c2.184 0 3.984 1.8 3.984 3.984v8.016c0 2.184-1.8 3.984-3.984 3.984h-0.504c-0.312 0-0.504 0.216-0.504 0.504s0.192 0.504 0.504 0.504h0.504c2.784 0 4.992-2.208 4.992-4.992v-8.016c0-2.784-2.208-4.992-4.992-4.992z"></path>
</svg>
