<svg xmlns="http://www.w3.org/2000/svg" width="24" height="24" viewBox="0 0 24 24">
<path d="M15.936 6.576c-0.216-0.144-0.528-0.096-0.696 0.144l-3 4.512h-0.48l-3-4.512c-0.024 0-0.024 0-0.024 0-0.144-0.24-0.456-0.288-0.696-0.144-0.216 0.168-0.288 0.48-0.12 0.696l2.616 3.96h-1.536c-0.288 0-0.504 0.216-0.504 0.48s0.216 0.504 0.504 0.504h2.208l0.288 0.432v1.584h-2.496c-0.288 0-0.504 0.216-0.504 0.48s0.216 0.504 0.504 0.504h2.496v2.784c0 0.288 0.216 0.504 0.504 0.504v0c0.288 0 0.504-0.216 0.504-0.504v-2.784h2.496c0.288 0 0.504-0.216 0.504-0.504s-0.216-0.48-0.504-0.48h-2.496v-1.584l0.288-0.432h2.208c0.288 0 0.504-0.216 0.504-0.504s-0.216-0.48-0.504-0.48h-1.536l2.616-3.96c0 0 0 0 0 0 0.168-0.24 0.096-0.552-0.144-0.696zM12 1.008c-6.072 0-10.992 4.92-10.992 10.992s4.92 10.992 10.992 10.992c6.072 0 10.992-4.92 10.992-10.992s-4.92-10.992-10.992-10.992zM12 22.008c-5.52 0-10.008-4.488-10.008-10.008s4.488-10.008 10.008-10.008c5.52 0.024 9.984 4.488 10.008 10.008 0 5.52-4.488 10.008-10.008 10.008z"></path>
</svg>
