<svg width="48" height="48" viewBox="0 0 108 85" xmlns="http://www.w3.org/2000/svg" stroke-width="1px"  stroke-linecap="round" stroke-linejoin="round"> <path d="M76.2099 25.2314L105.26 8.46143L95.6399 2.91138L66.5899 19.6814C58.6599 16.3814 49.7399 14.9414 39.8299 15.3414C29.9199 15.7314 21.3799 18.0014 14.2099 22.1414C6.23989 26.7414 2.26987 32.2715 2.30987 38.7415C2.32987 42.3415 3.57989 45.6514 6.07989 48.6814C8.06989 51.0914 10.8399 53.3115 14.3899 55.3715C14.9999 55.7315 15.6299 56.0714 16.2599 56.3914C22.9599 59.8614 30.6899 61.8213 39.4699 62.2513C40.6899 62.3213 41.9399 62.3514 43.1999 62.3514C47.9699 62.3614 52.4499 61.9515 56.6299 61.1115C61.4399 60.1615 65.8599 58.6514 69.8899 56.5814C70.5799 56.2414 71.2699 55.8714 71.9399 55.4814C75.3899 53.4914 78.0899 51.3114 80.0499 48.9514C82.1299 46.4614 83.3699 43.7715 83.7599 40.8715C83.7799 40.8215 83.7798 40.7714 83.7898 40.7214C84.2298 37.2914 83.4899 34.0614 81.5699 31.0314C80.2999 29.0114 78.5199 27.0814 76.2099 25.2314ZM45.0599 54.4314C43.3699 54.4914 41.6299 54.4614 39.8599 54.3414C33.7399 53.9414 28.4399 52.4414 23.9499 49.8514C22.2399 48.8614 20.7998 47.8114 19.6498 46.6914C17.8698 44.9714 16.7299 43.0914 16.2599 41.0414C16.2199 40.9114 16.1999 40.7914 16.1699 40.6614C15.4699 37.1314 16.6298 33.8514 19.6498 30.8114L29.5399 36.5214L41.0999 43.1914L56.9399 52.3314C53.1899 53.5814 49.2299 54.2714 45.0599 54.4314ZM66.4999 46.8114L46.6799 35.3715L29.2099 25.2814C34.4799 23.5414 40.1698 22.8714 46.2898 23.2714C52.3998 23.6814 57.7099 25.1714 62.1999 27.7714C66.6899 30.3614 69.2799 33.4214 69.9799 36.9514C70.0299 37.1914 70.0699 37.4314 70.0999 37.6614C70.5199 40.9314 69.3199 43.9714 66.4999 46.8114Z" class="pr-icon-iso-solid-stroke" stroke-linejoin="round"/> <path d="M19.6502 30.8114V46.6914C17.8702 44.9714 16.7303 43.0914 16.2603 41.0414C16.2203 40.9114 16.2002 40.7914 16.1702 40.6614C15.4702 37.1314 16.6302 33.8514 19.6502 30.8114Z" class="pr-icon-iso-solid-stroke" stroke-linejoin="round"/> <path d="M56.9395 52.3314C53.1895 53.5814 49.2294 54.2714 45.0594 54.4314C43.3694 54.4914 41.6295 54.4614 39.8595 54.3414C33.7395 53.9414 28.4395 52.4414 23.9495 49.8514C22.2395 48.8614 20.7994 47.8114 19.6494 46.6914V30.8114L29.5394 36.5214L41.0995 43.1914L56.9395 52.3314Z" class="pr-icon-iso-solid-stroke" stroke-linejoin="round"/> <path d="M66.5 46.8114L46.6799 35.3714L29.21 25.2813C34.48 23.5413 40.1699 22.8713 46.2899 23.2713C52.3999 23.6813 57.71 25.1713 62.2 27.7713C66.69 30.3613 69.28 33.4214 69.98 36.9514C70.03 37.1914 70.07 37.4313 70.1 37.6613C70.52 40.9313 69.32 43.9714 66.5 46.8114Z" class="pr-icon-iso-solid-stroke" stroke-linejoin="round"/> <path d="M105.26 8.46143V28.4614L83.9203 40.7814L83.8804 57.8615C83.9504 58.8015 83.9203 59.7514 83.8003 60.7214C83.0703 66.4214 79.1203 71.3314 71.9503 75.4814C63.9803 80.0814 54.4003 82.3714 43.2103 82.3514C32.0203 82.3314 22.4203 80.0015 14.4003 75.3715C6.38027 70.7415 2.35031 65.2015 2.32031 58.7415V38.7415C2.34031 42.3415 3.59033 45.6514 6.09033 48.6814C8.08033 51.0914 10.8503 53.3115 14.4003 55.3715C15.0103 55.7315 15.6404 56.0714 16.2704 56.3914C22.9704 59.8614 30.7003 61.8213 39.4803 62.2513C40.7003 62.3213 41.9503 62.3514 43.2103 62.3514C47.9803 62.3614 52.4604 61.9515 56.6404 61.1115C61.4504 60.1615 65.8703 58.6514 69.9003 56.5814C70.5903 56.2414 71.2803 55.8714 71.9503 55.4814C75.4003 53.4914 78.1003 51.3114 80.0603 48.9514C82.1403 46.4614 83.3804 43.7715 83.7704 40.8715C83.7904 40.8215 83.7903 40.7714 83.8003 40.7214C84.2403 37.2914 83.5003 34.0614 81.5803 31.0314C80.3103 29.0114 78.5303 27.0814 76.2203 25.2314L105.27 8.46143H105.26Z" class="pr-icon-iso-solid-stroke" stroke-linejoin="round"/> <path d="M83.9202 38.2914L83.9102 40.7814" class="pr-icon-iso-solid-stroke" stroke-linejoin="round"/>
</svg>