<svg width="24" height="24" viewBox="0 0 118 90" xmlns="http://www.w3.org/2000/svg" stroke-width="1px"  stroke-linecap="round" stroke-linejoin="round"> <path d="M111.17 23.2582C108.39 19.2482 104.23 15.6382 98.6897 12.4482C93.1597 9.24825 86.9097 6.84816 79.9497 5.23816C72.9997 3.63816 65.9297 2.82824 58.7497 2.81824C51.5697 2.79824 44.5096 3.58822 37.5696 5.16822C30.6296 6.74822 24.4096 9.12822 18.9096 12.2982C13.4096 15.4782 9.28954 19.0683 6.54954 23.0783C3.80954 27.0783 2.45971 31.1582 2.47971 35.2982C2.49971 38.6382 3.40971 41.9382 5.22971 45.1982C5.65971 45.9882 6.14967 46.7682 6.68967 47.5482C8.45967 50.0982 10.7796 52.4882 13.6596 54.6982C13.9296 54.9082 14.1997 55.1182 14.4797 55.3182C15.9097 56.3682 17.4696 57.3782 19.1596 58.3582C24.6996 61.5582 30.9396 63.9582 37.8996 65.5682C44.8496 67.1682 51.9196 67.9782 59.0996 67.9882C66.2796 68.0082 73.3398 67.2182 80.2798 65.6382C87.2198 64.0582 93.4397 61.6782 98.9397 58.5082C104.44 55.3282 108.56 51.7382 111.3 47.7282C111.79 47.0182 112.23 46.3081 112.63 45.5981C114.46 42.3081 115.37 38.9781 115.37 35.5981V35.5082C115.35 31.3582 113.95 27.2782 111.17 23.2582ZM77.4597 24.7083L68.5198 29.8582L58.9297 35.3982L29.8596 35.3481L14.2698 35.3182H13.6496C13.6296 31.8682 14.7796 28.5482 17.0896 25.3682C19.3996 22.1882 22.6696 19.3682 26.9096 16.9182C35.7896 11.7882 46.4198 9.23818 58.7798 9.25818C71.1498 9.28818 81.7997 11.8782 90.7397 17.0382L77.4597 24.7083Z" class="pr-icon-iso-solid-stroke" stroke-linejoin="round"/> <path d="M90.7398 17.0382L77.4597 24.7082L68.5198 29.8581C65.3998 29.4681 62.1498 29.2682 58.7798 29.2582C47.7598 29.2382 38.1096 31.2681 29.8596 35.3481L14.2698 35.3182H13.6497C13.6297 31.8682 14.7796 28.5482 17.0896 25.3682C19.3996 22.1882 22.6697 19.3682 26.9097 16.9182C35.7897 11.7882 46.4198 9.23817 58.7798 9.25817C71.1498 9.28817 81.7998 11.8782 90.7398 17.0382Z" class="pr-icon-iso-solid-stroke" stroke-linejoin="round"/> <path d="M115.369 35.5983V55.5083C115.389 59.6483 114.039 63.7283 111.299 67.7283C108.559 71.7383 104.439 75.3283 98.9395 78.5083C93.4395 81.6783 87.2195 84.0583 80.2795 85.6383C73.3395 87.2183 66.2794 88.0083 59.0994 87.9883C51.9194 87.9783 44.8494 87.1684 37.8994 85.5684C30.9394 83.9584 24.6994 81.5583 19.1594 78.3583C13.6194 75.1683 9.46945 71.5583 6.68945 67.5483C3.89945 63.5283 2.49949 59.4483 2.47949 55.2983V35.2983C2.49949 38.6383 3.40949 41.9384 5.22949 45.1984C5.65949 45.9884 6.14945 46.7683 6.68945 47.5483C8.45945 50.0983 10.7794 52.4884 13.6594 54.6984C13.9294 54.9084 14.1995 55.1184 14.4795 55.3184C15.9095 56.3684 17.4694 57.3783 19.1594 58.3583C24.6994 61.5583 30.9394 63.9584 37.8994 65.5684C44.8494 67.1684 51.9194 67.9783 59.0994 67.9883C66.2794 68.0083 73.3395 67.2183 80.2795 65.6383C87.2195 64.0583 93.4395 61.6783 98.9395 58.5083C104.439 55.3283 108.559 51.7383 111.299 47.7283C111.789 47.0183 112.229 46.3083 112.629 45.5983C114.459 42.3083 115.369 38.9783 115.369 35.5983Z" class="pr-icon-iso-solid-stroke" stroke-linejoin="round"/>
</svg>