<svg width="24" height="24" viewBox="0 0 123 55" xmlns="http://www.w3.org/2000/svg" stroke-width="1px"  stroke-linecap="round" stroke-linejoin="round"> <path d="M2.29001 20.15V40.15L2.26001 35V15L2.29001 20.15Z" class="pr-icon-iso-solid-stroke" stroke-linejoin="round"/> <path d="M61.4901 17.6802V37.6802L36.1001 52.3402V32.3402L37.8201 31.3502L44.1701 27.6802L61.4901 17.6802Z" class="pr-icon-iso-solid-stroke" stroke-linejoin="round"/> <path d="M44.31 20.2204L37.78 23.9904L31.43 27.6604L29.72 28.6504V40.2004L2.29004 40.1504V20.1504L29.6 20.2004L44.31 20.2204Z" class="pr-icon-iso-solid-stroke" stroke-linejoin="round"/> <path d="M87.04 32.4302V52.4302L61.49 37.6802V17.6802L78.81 27.6802L85.2 31.3702L87.04 32.4302Z" class="pr-icon-iso-solid-stroke" stroke-linejoin="round"/> <path d="M120.72 20.36V40.36L93.39 40.31V28.77L91.5499 27.71L85.1499 24.02L78.7 20.29L93.2699 20.31L120.72 20.36Z" class="pr-icon-iso-solid-stroke" stroke-linejoin="round"/> <path d="M61.49 17.6802L44.17 27.6802L37.82 31.3502L36.1 32.3402L29.72 28.6502L31.43 27.6602L37.78 23.9902L44.31 20.2202L29.6 20.2002L2.29001 20.1502L2.26001 15.0002L29.6 15.0502L44.29 15.0802L29.6 6.60017L35.94 2.93018L61.49 17.6802Z" class="pr-icon-iso-solid-stroke" stroke-linejoin="round"/> <path d="M91.55 27.71L93.39 28.77L87.04 32.43L85.2 31.37L78.81 27.68L61.49 17.68L86.88 3.02002L93.27 6.71002L78.67 15.14L93.27 15.16L120.69 15.21L120.72 20.36L93.27 20.31L78.7 20.29L85.15 24.02L91.55 27.71Z" class="pr-icon-iso-solid-stroke" stroke-linejoin="round"/> <path d="M93.39 28.77V48.77L87.04 52.43V32.43L93.39 28.77Z" class="pr-icon-iso-solid-stroke" stroke-linejoin="round"/> <path d="M93.2699 6.70996V15.16L78.6699 15.14L93.2699 6.70996Z" class="pr-icon-iso-solid-stroke" stroke-linejoin="round"/> <path d="M36.1 32.3404V52.3404L29.72 48.6504V28.6504L36.1 32.3404Z" class="pr-icon-iso-solid-stroke" stroke-linejoin="round"/> <path d="M44.2901 15.0801L29.6001 15.0501V6.6001L44.2901 15.0801Z" class="pr-icon-iso-solid-stroke" stroke-linejoin="round"/>
</svg>