<svg width="24" height="24" viewBox="0 0 121 99" xmlns="http://www.w3.org/2000/svg" stroke-width="1px"  stroke-linecap="round" stroke-linejoin="round"> <path d="M69.7002 71.36V91.36L69.4102 64.77V50L69.4702 50.03L69.6302 64.9L69.7002 71.36Z" class="pr-icon-iso-solid-stroke" stroke-linejoin="round"/> <path d="M98.8903 46.7999L94.3702 49.4399L86.1003 54.2799L69.4102 44.7699L69.4702 50.0299L69.4102 49.9999L69.2402 49.8999V29.8999L98.8903 46.7999Z" class="pr-icon-iso-solid-stroke" stroke-linejoin="round"/> <path d="M69.0801 35.0298L69.2401 35.1198V49.8998L69.0801 35.0298Z" class="pr-icon-iso-solid-stroke" stroke-linejoin="round"/> <path d="M60.5804 76.23V96.23L51.4004 96.27V76.27L60.3604 76.23H60.5804Z" class="pr-icon-iso-solid-stroke" stroke-linejoin="round"/> <path d="M118.17 42.9998L100.85 53.1298L88.0501 60.6198L75.2701 68.1097L69.7001 71.3597L69.6301 64.8998L69.4701 50.0298L69.4101 44.7698L86.1001 54.2798L94.3701 49.4398L98.8901 46.7998L69.2401 29.8998L69.0801 15.0298L118.17 42.9998Z" class="pr-icon-iso-solid-stroke" stroke-linejoin="round"/> <path d="M59.9199 17.2L59.8399 9.75989L59.7599 2.60986L50.5899 2.63989L50.6399 7.65991L50.5899 7.68994L2.16992 36.0199L19.4899 45.8899L51.2699 63.9999L51.3999 76.2699L60.3599 76.2299H60.5799L59.9199 17.2ZM47.0399 32.0299L45.0799 30.9099L34.2399 24.7399L47.0399 17.2499L50.5899 19.2799L50.7699 19.3799L50.8099 22.6399L50.9299 34.2499L47.0399 32.0299Z" class="pr-icon-iso-solid-stroke" stroke-linejoin="round"/> <path d="M50.929 34.25L47.0391 32.03V17.25L50.5891 19.28L50.7791 19.38L50.8091 22.64L50.929 34.25Z" class="pr-icon-iso-solid-stroke" stroke-linejoin="round"/> <path d="M47.0403 17.25V32.03L45.0802 30.91L34.2402 24.74L47.0403 17.25Z" class="pr-icon-iso-solid-stroke" stroke-linejoin="round"/> <path d="M118.169 43V63L69.6992 91.36V71.36L75.2692 68.11L88.0492 60.62L100.849 53.13L118.169 43Z" class="pr-icon-iso-solid-stroke" stroke-linejoin="round"/> <path d="M69.0801 15.0298V35.0298" class="pr-icon-iso-solid-stroke" stroke-linejoin="round"/> <path d="M51.2799 64V84L2.16992 56.02V36.02L19.4899 45.89L51.2799 64Z" class="pr-icon-iso-solid-stroke" stroke-linejoin="round"/> <path d="M50.5898 7.68994V2.63989" class="pr-icon-iso-solid-stroke" stroke-linejoin="round"/> <path d="M51.3993 76.27V96.27L51.2793 84V64L51.3993 76.27Z" class="pr-icon-iso-solid-stroke" stroke-linejoin="round"/> <path d="M69.4102 50V44.77" class="pr-icon-iso-solid-stroke" stroke-linejoin="round"/>
</svg>