<svg width="48" height="48" viewBox="0 0 108 81" fill="#229EFF" xmlns="http://www.w3.org/2000/svg" stroke-width="1px" stroke-linecap="round" stroke-linejoin="round"><path d="M61.6499 77.0049C57.3499 78.6549 52.6498 79.2249 47.5498 78.7249C42.4498 78.2249 38.01 76.8849 34.21 74.6849L2.75977 56.5349V36.5349L29.1099 51.7449L34.21 54.6849C35.33 55.3349 36.5 55.9049 37.73 56.4049C40.68 57.6049 43.9498 58.3749 47.5498 58.7249C51.8098 59.1449 55.7998 58.8149 59.4998 57.7249C60.1998 57.5249 60.8798 57.295 61.5498 57.045V58.9049H61.5598L61.6499 77.0049Z" stroke="white" stroke-linejoin="round"/><path d="M61.5498 57.045L61.5598 58.895L61.5498 58.9049V57.045Z" stroke="white" stroke-linejoin="round"/><path d="M61.6499 57.0049C61.6499 57.0049 61.5798 57.035 61.5498 57.045V56.835L61.6499 57.0049Z" stroke="white" stroke-linejoin="round"/><path d="M105.7 19.9349V39.545L105.69 40.075C105.63 42.395 104.77 44.6449 103.12 46.8149V26.8149C104.84 24.6249 105.7 22.2849 105.7 19.9349Z" stroke="white" stroke-linejoin="round"/><path d="M61.6499 57.0049C61.6499 57.0049 61.5798 57.035 61.5498 57.045V56.835L61.6499 57.0049Z" stroke="white" stroke-linejoin="round"/><path d="M103.12 26.8149V46.8149L92.8203 44.365V24.365L103.12 26.8149Z" stroke="white" stroke-linejoin="round"/><path d="M105.7 19.725V19.9349C105.7 22.2849 104.84 24.625 103.12 26.815L92.8198 24.365C94.4398 22.295 94.9198 20.105 94.2498 17.805C93.5898 15.505 91.7898 13.505 88.8298 11.805C85.0398 9.60497 80.4599 8.50495 75.0999 8.49495C69.7499 8.49495 65.1799 9.57496 61.3999 11.755C58.2899 13.555 56.46 15.515 55.95 17.625C55.44 19.735 54.44 22.165 52.95 24.915L55.2998 26.275L63.2 30.835L69.3599 34.395L61.5498 38.9049L56.5898 36.045L48.23 31.2149L47.8899 31.015C47.4399 31.425 46.8998 31.835 46.2898 32.225C45.6598 32.625 44.9998 33.025 44.2898 33.445C42.2898 34.585 40.2098 35.545 38.0398 36.295C37.8498 36.365 37.6697 36.435 37.4897 36.485C36.2897 36.895 35.0398 37.245 33.7698 37.525C32.5398 37.805 31.3199 38.0449 30.0999 38.2449C27.6199 38.6649 25.1698 38.935 22.7598 39.055L38.0098 47.865L42.0198 50.175C43.5198 51.045 45.0398 51.665 46.5698 52.025C47.7198 52.315 48.8898 52.455 50.0598 52.455H50.3799C53.0199 52.425 55.6099 51.955 58.1899 51.055L61.5498 56.835V57.045C60.8798 57.295 60.1998 57.525 59.4998 57.725C55.7998 58.815 51.8098 59.145 47.5498 58.725C43.9498 58.375 40.68 57.6049 37.73 56.4049C36.5 55.9049 35.33 55.3349 34.21 54.6849L29.1099 51.7449L2.75977 36.535L10.5698 32.025L13.1699 32.395C14.8999 32.645 17.0398 32.765 19.5898 32.775C22.1298 32.775 24.93 32.5049 27.96 31.9649C28.69 31.8349 29.3999 31.675 30.0999 31.485C32.3299 30.905 34.4399 30.045 36.4199 28.905C37.1299 28.485 37.7698 28.065 38.3198 27.635C38.8698 27.195 39.3798 26.775 39.8298 26.365L30.0999 20.7449L37.9199 16.235L43.8098 19.635C44.5798 17.605 45.5199 15.535 46.6199 13.425C47.7199 11.315 50.0398 9.24495 53.5398 7.21495C59.5398 3.75495 66.7098 2.03497 75.0698 2.04497C83.4298 2.06497 90.6199 3.81497 96.6499 7.29497C101.3 9.97497 104.16 13.095 105.22 16.635C105.54 17.705 105.7 18.685 105.7 19.725Z" stroke="white" stroke-linejoin="round"/><path d="M92.8201 24.365V35.0949C91.8901 33.8949 90.5501 32.795 88.8301 31.805C85.0301 29.605 80.4601 28.5049 75.1001 28.4949C70.5701 28.4849 66.6002 29.265 63.2002 30.835L55.3 26.275L52.9502 24.915C54.4402 22.165 55.4402 19.7349 55.9502 17.6249C56.4602 15.5149 58.2801 13.555 61.4001 11.755C65.1801 9.57495 69.7501 8.48494 75.1001 8.49494C80.4601 8.50494 85.0301 9.60497 88.8301 11.805C91.7801 13.505 93.59 15.505 94.25 17.805C94.92 20.105 94.4401 22.295 92.8201 24.365Z" stroke="white" stroke-linejoin="round"/><path d="M105.7 19.7249V18.9449" stroke="white" stroke-linejoin="round"/><path d="M69.3599 34.395V54.395L61.5598 58.895V57.045C61.5598 57.045 61.6199 57.0149 61.6499 57.0049L61.5498 56.835V38.9049L69.3599 34.395Z" stroke="white" stroke-linejoin="round"/><path d="M61.5496 38.9049V56.835L58.1897 51.055C55.6097 51.955 53.0196 52.425 50.3796 52.455L47.8896 51.015L48.2297 31.2149L56.5896 36.045L61.5496 38.9049Z" stroke="white" stroke-linejoin="round"/><path d="M39.8296 26.365C39.3796 26.775 38.8696 27.1949 38.3196 27.6349C37.7696 28.0649 37.1297 28.4849 36.4197 28.9049C34.4397 30.0449 32.3296 30.905 30.0996 31.485V20.7449L39.8296 26.365Z" stroke="white" stroke-linejoin="round"/><path d="M48.23 31.2149L47.8899 51.015C47.5099 51.355 47.0698 51.705 46.5698 52.025C45.0298 51.665 43.5198 51.045 42.0198 50.175L38.0098 47.865L22.7598 39.055C25.1698 38.935 27.6199 38.6649 30.0999 38.2449C31.3199 38.0449 32.5398 37.805 33.7698 37.525C35.0398 37.245 36.2797 36.895 37.4897 36.485C37.6697 36.435 37.8498 36.365 38.0298 36.295C40.2098 35.545 42.2898 34.5849 44.2798 33.4449C44.9998 33.0249 45.6598 32.6249 46.2798 32.2249C46.8998 31.8349 47.4399 31.425 47.8899 31.015L48.23 31.2149Z" stroke="white" stroke-linejoin="round"/></svg>