<svg width="48" height="48" viewBox="0 0 122 74" fill="#229EFF" xmlns="http://www.w3.org/2000/svg" stroke-width="1px" stroke-linecap="round" stroke-linejoin="round"><path d="M111.85 33.38V53.38L75.3301 32.3V12.3L111.85 33.38Z" stroke="white" stroke-linejoin="round"/><path d="M75.5303 49.6599V69.6599L47.2102 53.3099V47.2799L43.0703 44.8899V30.9199L52.2803 36.2399L60.4001 40.9199L75.5303 49.6599Z" stroke="white" stroke-linejoin="round"/><path d="M39.1401 51.9301V71.9301L22.9102 62.5601V42.5601L32.1201 47.88L39.1401 51.9301Z" stroke="white" stroke-linejoin="round"/><path d="M75.3286 12.3V32.3L68.4587 36.27L60.3386 31.58L51.1387 26.27L75.3286 12.3Z" stroke="white" stroke-linejoin="round"/><path d="M43.0686 30.9199V44.8899L40.1785 43.2198L30.9785 37.9099L43.0686 30.9199Z" stroke="white" stroke-linejoin="round"/><path d="M119.91 28.73V48.73L111.85 53.38V33.38L119.91 28.73Z" stroke="white" stroke-linejoin="round"/><path d="M83.5991 45.01V65.01L75.5293 69.66V49.66L83.5991 45.01Z" stroke="white" stroke-linejoin="round"/><path d="M47.2087 47.28V67.28L39.1387 71.9301V51.9301L43.0688 49.67L47.2087 47.28Z" stroke="white" stroke-linejoin="round"/><path d="M75.3291 12.3L51.1392 26.27L60.3391 31.58L68.4592 36.27L83.5991 45.01L75.5293 49.66L60.3992 40.92L52.2793 36.24L43.0693 30.92L30.9792 37.91L40.1792 43.22L43.0693 44.89L47.2092 47.28L43.0693 49.67L39.1392 51.9301L32.1191 47.88L22.9092 42.5601L10.8093 49.55L6.6792 47.16L2.69922 44.86L6.6792 42.5601L14.7993 37.88L6.6792 33.1899L14.7493 28.54L22.8591 33.22L75.2793 2.95996L119.909 28.73L111.849 33.38L75.3291 12.3Z" stroke="white" stroke-linejoin="round"/><path d="M22.9084 42.5601V62.5601L10.8086 69.55V49.55L22.9084 42.5601Z" stroke="white" stroke-linejoin="round"/><path d="M10.8093 49.5499V69.5499L2.69922 64.8599V44.8599L6.6792 47.1599L10.8093 49.5499Z" stroke="white" stroke-linejoin="round"/><path d="M14.7998 37.88L6.67969 42.5601V33.1899L14.7998 37.88Z" stroke="white" stroke-linejoin="round"/></svg>