<svg width="48" height="48" viewBox="0 0 101 81" xmlns="http://www.w3.org/2000/svg" stroke-width="1px"  stroke-linecap="round" stroke-linejoin="round"> <path d="M42.1799 38.6902L42.3401 38.6603V38.6002L42.1799 38.6902Z" class="pr-icon-iso-solid-stroke" stroke-linejoin="round"/> <path d="M61.8301 36.5002V43.1503L57.6001 40.7102L51.1101 36.9702L48.1401 35.2502L42.3401 38.6002V31.9003L40.1799 30.6503V24.0002L59.75 35.3003L61.8301 36.5002Z" class="pr-icon-iso-solid-stroke" stroke-linejoin="round"/> <path d="M88.23 51.7402V71.7402L81.5 67.8602V54.5103L74.01 50.1902L68.22 46.8402V40.1902L70.3501 41.4203L76.9099 45.2002L88.23 51.7402Z" class="pr-icon-iso-solid-stroke" stroke-linejoin="round"/> <path d="M42.1799 38.6902L42.3401 38.6603V38.6002L42.1799 38.6902ZM42.1799 38.6902L42.3401 38.6603V38.6002L42.1799 38.6902ZM42.1799 38.6902L42.3401 38.6603V38.6002L42.1799 38.6902ZM42.1799 38.6902L42.3401 38.6603V38.6002L42.1799 38.6902ZM44.1101 2.97021L13.78 8.76025L33.8 20.3102L64.03 14.4702L44.1101 2.97021Z" class="pr-icon-iso-solid-stroke" stroke-linejoin="round"/> <path d="M42.3401 31.9003L40.1799 33.1503L33.8 36.8302L30.78 38.5702L25.01 41.9003L5.89014 52.9502L2.56006 54.8702L8.97998 12.6403L13.77 15.4103L31.1599 25.4402L33.8 26.9702L40.1799 30.6503L42.3401 31.9003Z" class="pr-icon-iso-solid-stroke" stroke-linejoin="round"/> <path d="M71.75 18.9303L64.02 32.6102L63.24 34.0103L62.8501 34.7002L61.8301 36.5002L59.75 35.3003L40.1799 24.0002L44.49 23.1902L64.02 19.5002L70.6001 18.2603L71.75 18.9303Z" class="pr-icon-iso-solid-stroke" stroke-linejoin="round"/> <path d="M98.25 34.2302L89.6501 49.2603L88.23 51.7402L76.9099 45.2002L70.3501 41.4203L68.22 40.1902L69.1799 38.5303L71.75 34.0802L78.3401 22.7302L98.25 34.2302Z" class="pr-icon-iso-solid-stroke" stroke-linejoin="round"/> <path d="M98.25 34.2302V54.2302L88.23 71.7402V51.7402L89.6501 49.2603L98.25 34.2302Z" class="pr-icon-iso-solid-stroke" stroke-linejoin="round"/> <path d="M81.5 54.5103V74.5103L8.36011 78.2202V58.2202L33.6101 56.9402L46.3301 56.2903L49.6599 56.1302L60.25 55.5902L61.8301 55.5103L62.4099 55.4802L68.22 55.1803L71.21 55.0303L81.5 54.5103Z" class="pr-icon-iso-solid-stroke" stroke-linejoin="round"/> <path d="M42.3401 31.9003V38.6002L42.1799 38.6902L40.1799 39.8502L30.8201 45.2502L8.36011 58.2202V71.5203L2.56006 74.8702V54.8702L5.89014 52.9502L25.01 41.9003L30.78 38.5702L33.8 36.8302L40.1799 33.1503L42.3401 31.9003Z" class="pr-icon-iso-solid-stroke" stroke-linejoin="round"/> <path d="M81.5 54.5103L71.21 55.0303L68.22 55.1803L62.4099 55.4802L61.8301 55.5103L60.25 55.5902L49.6599 56.1302L46.3301 56.2903L33.6101 56.9402L8.36011 58.2202L30.8201 45.2502L40.1799 39.8502L42.1799 38.6902L42.3401 38.6603V38.6002L48.1401 35.2502L51.1101 36.9702L57.6001 40.7102L61.8301 43.1503L67.51 46.4402L68.22 46.8402L74.01 50.1902L81.5 54.5103Z" class="pr-icon-iso-solid-stroke" stroke-linejoin="round"/> <path d="M71.75 18.9303V34.0802L69.1799 38.5303L68.22 40.1902V45.1902L67.51 46.4402L61.8301 43.1503V36.5002L62.8501 34.7002L63.24 34.0103L64.02 32.6102L71.75 18.9303Z" class="pr-icon-iso-solid-stroke" stroke-linejoin="round"/> <path d="M33.8 20.3102V26.9702L31.1599 25.4402L13.77 15.4103V8.76025L33.8 20.3102Z" class="pr-icon-iso-solid-stroke" stroke-linejoin="round"/> <path d="M64.02 14.4702V19.5002L44.49 23.1902L40.1799 24.0002V30.6503L33.8 26.9702V20.3102L64.02 14.4702Z" class="pr-icon-iso-solid-stroke" stroke-linejoin="round"/>
</svg>