<svg width="48" height="48" viewBox="0 0 104 83" xmlns="http://www.w3.org/2000/svg" stroke-width="1px"  stroke-linecap="round" stroke-linejoin="round"> <path d="M65.7297 23.4001L73.5498 18.8801C67.5798 15.4401 60.3797 13.7102 51.9397 13.6902C43.5097 13.6802 36.3196 15.3802 30.3896 18.8102C27.3896 20.5402 25.1597 22.4902 23.6997 24.6602C22.9297 25.8002 22.3698 26.9501 22.0098 28.1201C21.6798 29.1701 21.5298 30.2402 21.5298 31.3102L16.5398 30.8901L2.09961 29.6902C2.39961 26.2502 3.77972 22.9001 6.20972 19.6401C8.64972 16.3801 12.1096 13.4502 16.6096 10.8502C26.3896 5.20021 38.1496 2.39016 51.8796 2.42016C65.6196 2.44016 77.3998 5.30022 87.2498 10.9802L95.0698 6.4602L100.08 26.2902L65.7297 23.4001Z" class="pr-icon-iso-solid-stroke" stroke-linejoin="round"/> <path d="M101.98 32.9303C101.78 35.1303 101.15 37.2903 100.08 39.4203C99.7298 40.1303 99.3199 40.8303 98.8699 41.5203C98.5599 42.0103 98.2299 42.4903 97.8699 42.9703C97.1199 43.9703 96.2701 44.9503 95.3201 45.8903C93.2101 47.9903 90.62 49.9303 87.54 51.7203C87.52 51.7303 87.49 51.7503 87.47 51.7603C85.73 52.7603 83.9301 53.6802 82.0701 54.4902C73.4501 58.3202 63.49 60.2103 52.2 60.1903C47.34 60.1803 42.7199 59.8203 38.3499 59.0903C30.3599 57.7903 23.1898 55.3002 16.8298 51.6302L9.01001 56.1503L7.48999 50.1403L5.20996 41.0903L4 36.3203L8.76001 36.7203L21.53 37.7903L30.8101 38.5803L38.3499 39.2103L30.52 43.7303C32.92 45.1203 35.5399 46.2303 38.3499 47.0603C42.5099 48.2903 47.0999 48.9103 52.1299 48.9203C60.3799 48.9403 67.43 47.3103 73.28 44.0403C73.42 43.9603 73.5599 43.8903 73.6899 43.8103C76.6899 42.0703 78.9199 40.1203 80.3799 37.9603C81.8399 35.7903 82.56 33.5703 82.55 31.3003L96.5898 32.4803L100.08 32.7703L101.98 32.9303Z" class="pr-icon-iso-solid-stroke" stroke-linejoin="round"/> <path d="M101.98 32.9302V52.9302C101.67 56.3602 100.3 59.7102 97.8701 62.9702C95.4301 66.2302 91.9702 69.1601 87.4702 71.7601C77.6902 77.4101 65.9302 80.2202 52.2002 80.1902C38.4602 80.1702 26.6701 77.3101 16.8301 71.6301V51.6301C23.1901 55.3001 30.3601 57.7902 38.3501 59.0902C42.7201 59.8202 47.3402 60.1802 52.2002 60.1902C63.4902 60.2102 73.4503 58.3201 82.0703 54.4901C83.9303 53.6801 85.7302 52.7601 87.4702 51.7601C87.4902 51.7601 87.5203 51.7302 87.5403 51.7202C90.6203 49.9302 93.2103 47.9901 95.3203 45.8901C96.2703 44.9501 97.1201 43.9702 97.8701 42.9702C98.2301 42.4902 98.5601 42.0101 98.8701 41.5201C99.3201 40.8301 99.7301 40.1302 100.08 39.4202C101.15 37.2902 101.78 35.1302 101.98 32.9302Z" class="pr-icon-iso-solid-stroke" stroke-linejoin="round"/> <path d="M100.079 26.2902V32.7701L96.5894 32.4802L82.5496 31.3002C82.5596 33.5702 81.8394 35.7902 80.3794 37.9602C78.9194 40.1202 76.6895 42.0702 73.6895 43.8102C73.5595 43.8902 73.4195 43.9602 73.2795 44.0402L65.7295 43.4001V23.4001L100.079 26.2902Z" class="pr-icon-iso-solid-stroke" stroke-linejoin="round"/> <path d="M73.5493 18.8802L65.7292 23.4002V35.5602C61.5792 34.3202 56.9792 33.7002 51.9392 33.6902C43.7092 33.6802 36.6593 35.3002 30.8093 38.5802L21.5293 37.7902V31.3102C21.5293 30.2402 21.6793 29.1702 22.0093 28.1202C22.3693 26.9502 22.9292 25.8002 23.6992 24.6602C25.1592 22.4902 27.3892 20.5402 30.3892 18.8102C36.3192 15.3802 43.5092 13.6802 51.9392 13.6902C60.3792 13.7102 67.5793 15.4402 73.5493 18.8802Z" class="pr-icon-iso-solid-stroke" stroke-linejoin="round"/> <path d="M21.5298 31.3102V37.7902L8.75977 36.7202L3.99976 36.3202V49.8502L2.09961 49.6902V29.6902L16.5398 30.8901L21.5298 31.3102Z" class="pr-icon-iso-solid-stroke" stroke-linejoin="round"/> <path d="M38.3494 39.2102V47.0602C35.5394 46.2302 32.9195 45.1202 30.5195 43.7302L38.3494 39.2102Z" class="pr-icon-iso-solid-stroke" stroke-linejoin="round"/> <path d="M16.8296 51.6301V71.6301L9.00977 76.1501V56.1501L16.8296 51.6301Z" class="pr-icon-iso-solid-stroke" stroke-linejoin="round"/> <path d="M9.01001 56.1503V76.1503L4 56.3203V36.3203L5.20996 41.0903L7.48999 50.1403L9.01001 56.1503Z" class="pr-icon-iso-solid-stroke" stroke-linejoin="round"/>
</svg>