<svg width="24" height="24" viewBox="0 0 116 81" xmlns="http://www.w3.org/2000/svg" stroke-width="1px"  stroke-linecap="round" stroke-linejoin="round"> <path d="M77.6587 35.2396C77.6587 35.2396 77.7087 35.2696 77.7387 35.2896C77.7687 35.3096 77.7887 35.3196 77.8187 35.3396V29.1196L77.6587 35.2396Z" class="pr-icon-iso-solid-stroke" stroke-linejoin="round"/> <path d="M28.3587 58.7996V78.7996L2.38867 63.8096V43.8096L28.3587 58.7996Z" class="pr-icon-iso-solid-stroke" stroke-linejoin="round"/> <path d="M113.969 9.12976C112.009 7.33976 109.279 6.2797 105.749 5.9397C102.219 5.5997 98.8487 5.94974 95.6087 6.97974L83.3387 11.0697C80.0887 9.4397 76.4187 8.55969 72.3187 8.42969C68.2187 8.29969 64.4087 8.90966 60.8887 10.2797L37.3287 2.13965C36.1987 3.26965 35.6887 4.42975 35.8187 5.61975V5.64966C35.8987 6.32966 36.1787 7.00972 36.6587 7.70972C37.9987 9.63972 40.2587 11.1997 43.4287 12.3597L53.7987 15.8698C53.1587 17.1598 52.8987 18.4496 53.0187 19.7596C53.1287 21.0696 53.6987 22.3497 54.7087 23.5997L53.0187 24.5797L49.7787 26.4397L41.1887 31.3997L23.9487 41.3497C21.2787 40.2297 18.3087 39.6098 15.0387 39.4998C11.7687 39.3898 8.97866 39.9997 6.68866 41.3197L2.38867 43.8097L28.3587 58.7997L32.6587 56.3197L33.0187 56.1097C34.7387 55.0197 35.6787 53.7597 35.8187 52.3297V51.4998C35.6287 49.6098 34.5587 47.8897 32.6087 46.3497L51.8787 35.2197L53.0187 34.5697L60.6087 30.1797L63.3687 28.5897C63.7987 28.6797 64.1987 28.7597 64.5587 28.8497C64.8487 28.9097 65.1587 28.9497 65.4987 28.9597C65.5787 28.9697 65.6587 28.9697 65.7387 28.9697L65.7687 34.7797L65.8187 43.2297V43.9197C66.4187 43.9197 66.9887 43.8997 67.5487 43.8397C70.2287 43.6197 72.4687 42.8297 74.2787 41.4797C76.4587 39.8397 77.5887 37.9597 77.6487 35.8497L77.6687 35.2397L77.8287 29.1198V28.9897C78.9687 28.6597 80.1087 28.2997 81.2187 27.9097C82.3287 27.5197 83.3487 27.0496 84.2787 26.5096C86.4387 25.2696 87.9587 23.8297 88.8487 22.1897C89.2787 21.3997 89.5287 20.5997 89.5987 19.7897V19.7097C89.6587 18.8797 89.5187 18.0297 89.1987 17.1797L113.969 9.12976ZM77.7887 22.7697C75.9987 23.7997 73.8387 24.3197 71.3287 24.3097C68.8087 24.3097 66.6487 23.7797 64.8487 22.7397C63.0387 21.6997 62.1387 20.4498 62.1287 18.9998C62.1187 17.5498 63.0087 16.2997 64.8087 15.2697C66.5987 14.2297 68.7487 13.7197 71.2687 13.7197C73.7887 13.7297 75.9487 14.2497 77.7487 15.2897C79.5487 16.3297 80.4587 17.5797 80.4687 19.0297C80.4787 20.4897 79.5787 21.7297 77.7887 22.7697Z" class="pr-icon-iso-solid-stroke" stroke-linejoin="round"/> <path d="M80.4686 19.0297C80.4786 20.4897 79.5786 21.7297 77.7886 22.7697C75.9986 23.7997 73.8386 24.3197 71.3286 24.3097C68.8086 24.3097 66.6486 23.7797 64.8486 22.7397C63.0386 21.6997 62.1386 20.4498 62.1286 18.9998C62.1186 17.5498 63.0086 16.2997 64.8086 15.2697C66.5986 14.2297 68.7486 13.7197 71.2686 13.7197C73.7886 13.7297 75.9486 14.2497 77.7486 15.2897C79.5486 16.3297 80.4586 17.5797 80.4686 19.0297Z" class="pr-icon-iso-solid-stroke" stroke-linejoin="round"/> <path d="M65.8186 43.2299V63.9198L65.7386 48.9698C65.3086 48.9698 64.9187 48.9299 64.5587 48.8499C64.1987 48.7599 63.7987 48.6798 63.3687 48.5898V28.5898C63.7987 28.6798 64.1987 28.7599 64.5587 28.8499C64.8487 28.9099 65.1586 28.9498 65.4986 28.9598C65.5786 28.9698 65.6586 28.9698 65.7386 28.9698L65.7686 34.7798L65.8186 43.2299Z" class="pr-icon-iso-solid-stroke" stroke-linejoin="round"/> <path d="M77.8286 35.3397V48.9897L77.6486 55.8497C77.5886 57.9597 76.4586 59.8397 74.2786 61.4797C72.0886 63.1097 69.2786 63.9297 65.8186 63.9197V43.9197C66.4186 43.9197 66.9886 43.8997 67.5486 43.8397C70.2286 43.6197 72.4686 42.8297 74.2786 41.4797C76.4586 39.8397 77.5886 37.9597 77.6486 35.8497L77.6686 35.2397C77.6686 35.2397 77.7186 35.2697 77.7486 35.2897C77.7786 35.3097 77.7986 35.3197 77.8286 35.3397Z" class="pr-icon-iso-solid-stroke" stroke-linejoin="round"/> <path d="M89.5986 19.7896V39.7096C89.5386 40.5496 89.2886 41.3696 88.8486 42.1896C87.9586 43.8296 86.4386 45.2695 84.2786 46.5095C83.3486 47.0495 82.3286 47.5195 81.2186 47.9095C80.1086 48.2995 78.9686 48.6596 77.8286 48.9896V28.9896C78.9686 28.6596 80.1086 28.2995 81.2186 27.9095C82.3286 27.5195 83.3486 27.0495 84.2786 26.5095C86.4386 25.2695 87.9586 23.8296 88.8486 22.1896C89.2786 21.3996 89.5286 20.5996 89.5986 19.7896Z" class="pr-icon-iso-solid-stroke" stroke-linejoin="round"/> <path d="M113.969 9.12988V29.1299L89.5987 37.0498V19.7098C89.6587 18.8798 89.5187 18.0298 89.1987 17.1798L113.969 9.12988Z" class="pr-icon-iso-solid-stroke" stroke-linejoin="round"/> <path d="M54.7087 23.5999L53.0187 24.5798V19.7598C53.1287 21.0698 53.6987 22.3499 54.7087 23.5999Z" class="pr-icon-iso-solid-stroke" stroke-linejoin="round"/> <path d="M53.0186 19.7594V24.5795L49.7786 26.4395L41.1886 31.3994C39.1686 30.3794 37.6586 29.1495 36.6586 27.7095C36.1786 26.9995 35.8886 26.3095 35.8186 25.6295V5.64941C35.8986 6.32941 36.1786 7.00947 36.6586 7.70947C37.9986 9.63947 40.2586 11.1995 43.4286 12.3595L53.7986 15.8695C53.1586 17.1595 52.8986 18.4494 53.0186 19.7594Z" class="pr-icon-iso-solid-stroke" stroke-linejoin="round"/> <path d="M32.6586 76.3196L28.3586 78.7996V58.7996L32.6586 56.3196L33.0186 56.1096C34.7386 55.0196 35.6786 53.7596 35.8186 52.3296V71.4996C36.0086 73.3896 34.9586 74.9896 32.6586 76.3196Z" class="pr-icon-iso-solid-stroke" stroke-linejoin="round"/> <path d="M63.3687 28.5898V48.5898L35.8186 64.4999V52.3298C35.8486 52.0598 35.8486 51.7799 35.8186 51.4999C35.6286 49.6099 34.5586 47.8899 32.6086 46.3499L51.8786 35.2198L53.0186 34.5698L60.6086 30.1798L63.3687 28.5898Z" class="pr-icon-iso-solid-stroke" stroke-linejoin="round"/>
</svg>