<svg width="48" height="48" viewBox="0 0 117 89" fill="#229EFF" xmlns="http://www.w3.org/2000/svg" stroke-width="1px" stroke-linecap="round" stroke-linejoin="round"><path d="M60.5901 66.8874V86.8874L2.91016 53.5874V33.5874L20.2302 43.5874L45.4702 58.1574L52.6802 62.3174L60.5901 66.8874Z" stroke="white" stroke-linejoin="round"/><path d="M106.98 6.80734C101.99 3.92734 96.0002 2.47734 88.9902 2.46734C81.9802 2.45734 76 3.87734 71.04 6.73734L63.8801 10.8773L53.0601 4.62734L2.91016 33.5873L20.2302 43.5873L45.4702 58.1573L52.6802 62.3173L60.5901 66.8873L64.7603 64.4773L71.9302 60.3473L110.74 37.9373L102.88 33.3873L99.9302 31.6873L100.5 31.3573L107.09 27.5573C107.29 27.4473 107.48 27.3273 107.66 27.2173C112.21 24.4373 114.49 21.1173 114.49 17.2573V17.1873C114.47 13.1473 111.97 9.68734 106.98 6.80734ZM68.2502 45.8173L67.6602 46.1573L66.9602 45.7473L64.0103 44.0473L56.8501 39.9073L56.8 39.9373L49.6401 44.0773L46.6902 45.7773L46.1001 46.1173L45.4001 45.7073L38.8901 41.9573L46.0601 37.8173L49.6401 35.7473L46.03 33.6673L41.7202 31.1773L38.8201 29.5073L45.9902 25.3673L48.8801 27.0373L56.8 31.6073L60.9802 29.1973L67.55 25.4073L70.4502 27.0773L74.7603 29.5673L67.5901 33.7073L64.0103 35.7773L67.6201 37.8573L74.8301 42.0173L68.2502 45.8173ZM99.8801 23.3873L99.3201 23.7073L92.7202 27.5273L84.3501 22.6873L71.0901 15.0373L78.2502 10.8973C81.2402 9.17734 84.83 8.31734 89.02 8.32734C93.21 8.33734 96.8101 9.20734 99.8201 10.9373C102.82 12.6773 104.33 14.7573 104.34 17.1773C104.36 19.5973 102.87 21.6673 99.8801 23.3873Z" stroke="white" stroke-linejoin="round"/><path d="M74.8301 42.0173L68.2502 45.8173L67.6602 46.1573L66.9602 45.7473L64.0103 44.0473V35.7773L67.6201 37.8573L74.8301 42.0173Z" stroke="white" stroke-linejoin="round"/><path d="M74.76 29.5672L67.5898 33.7072L67.5698 28.7472L67.5498 25.4072L70.45 27.0772L74.76 29.5672Z" stroke="white" stroke-linejoin="round"/><path d="M67.5898 33.7072L64.01 35.7772V44.0472L56.8499 39.9072L56.7998 39.9372V31.6072L60.98 29.1972L67.5498 25.4072L67.5698 28.7472L67.5898 33.7072Z" stroke="white" stroke-linejoin="round"/><path d="M46.0303 33.6674L41.7205 31.1774L38.8203 29.5074L45.9905 25.3674L46.0105 28.6974L46.0303 33.6674Z" stroke="white" stroke-linejoin="round"/><path d="M56.8 31.6074V39.9374L49.6401 44.0774V35.7474L46.03 33.6674L46.0103 28.6974L45.9902 25.3674L48.8801 27.0374L56.8 31.6074Z" stroke="white" stroke-linejoin="round"/><path d="M49.6401 35.7473V44.0773L46.6902 45.7773L46.1001 46.1173L45.4001 45.7073L38.8901 41.9573L46.0601 37.8173L49.6401 35.7473Z" stroke="white" stroke-linejoin="round"/><path d="M114.49 17.2573V37.1873C114.51 40.0773 113.26 42.6573 110.74 44.9373V37.9373L102.88 33.3873L99.9302 31.6873L100.5 31.3573L107.09 27.5573C107.29 27.4473 107.48 27.3273 107.66 27.2173C112.21 24.4373 114.49 21.1173 114.49 17.2573Z" stroke="white" stroke-linejoin="round"/><path d="M110.74 37.9373V57.9373L60.5898 86.8873V66.8873L64.76 64.4773L71.9299 60.3473L110.74 37.9373Z" stroke="white" stroke-linejoin="round"/><path d="M104.34 17.1772C104.36 19.5972 102.87 21.6672 99.8799 23.3872L99.3198 23.7072L92.72 27.5272L84.3499 22.6872L71.0898 15.0372L78.25 10.8972C81.24 9.17723 84.8298 8.31723 89.0198 8.32723C93.2098 8.33723 96.8098 9.20724 99.8198 10.9372C102.82 12.6772 104.33 14.7572 104.34 17.1772Z" stroke="white" stroke-linejoin="round"/></svg>