<svg width="48" height="48" viewBox="0 0 110 86" xmlns="http://www.w3.org/2000/svg" stroke-width="1px"  stroke-linecap="round" stroke-linejoin="round"> <path d="M103.679 21.4943C101.079 17.7343 97.1993 14.3643 92.0293 11.3843C86.8493 8.39428 81.0193 6.15424 74.5193 4.65424C68.0193 3.15424 61.4092 2.39428 54.6992 2.38428C47.9992 2.38428 41.3992 3.10423 34.9192 4.58423C28.4292 6.05423 22.6192 8.28426 17.4792 11.2443C12.3392 14.2143 8.48919 17.5743 5.92919 21.3143C3.37919 25.0543 2.10914 28.8643 2.12914 32.7343C2.14914 36.0843 3.12933 39.3843 5.07933 42.6443C5.37933 43.1543 5.70931 43.6643 6.05931 44.1743C8.65931 47.9343 12.5392 51.3042 17.7092 54.2842C22.8892 57.2742 28.7192 59.5143 35.2192 61.0143C41.6092 62.4843 48.1092 63.2442 54.6892 63.2742C54.7992 63.2842 54.9193 63.2842 55.0293 63.2842C61.7393 63.2942 68.3393 62.5642 74.8193 61.0842C77.2493 60.5342 79.5893 59.8743 81.8293 59.1143C85.5693 57.8343 89.0493 56.2743 92.2593 54.4243C97.3993 51.4543 101.249 48.0942 103.799 44.3542C104.109 43.9042 104.389 43.4643 104.659 43.0143C106.629 39.7343 107.609 36.4042 107.609 33.0242V32.9343C107.589 29.0543 106.279 25.2443 103.679 21.4943ZM81.1692 42.7643L66.7292 44.0143L56.7493 44.8743L54.2593 45.0842H54.1892L55.4392 40.5143L56.7493 35.7443L52.9892 36.0743L42.9192 36.9443L40.4492 37.1642L42.9192 27.7543L28.5693 29.0242L27.9092 26.5543L26.9592 23.0443L55.4592 20.5143L54.9692 22.3843L52.9892 29.9243L69.1992 28.4443L66.7292 37.8542L81.1692 36.6443L82.7793 42.6243L81.1692 42.7643Z" class="pr-icon-iso-solid-stroke" stroke-linejoin="round"/> <path d="M82.78 42.6243L81.1699 42.7643V36.6443L82.78 42.6243Z" class="pr-icon-iso-solid-stroke" stroke-linejoin="round"/> <path d="M42.9192 27.7543V36.9443L40.4492 37.1642L42.9192 27.7543Z" class="pr-icon-iso-solid-stroke" stroke-linejoin="round"/> <path d="M81.1685 36.6443V42.7643L66.7285 44.0143V37.8542L81.1685 36.6443Z" class="pr-icon-iso-solid-stroke" stroke-linejoin="round"/> <path d="M69.1982 28.4443L66.7283 37.8543V44.0143L56.7483 44.8743V35.7443L52.9883 36.0743V29.9243L69.1982 28.4443Z" class="pr-icon-iso-solid-stroke" stroke-linejoin="round"/> <path d="M56.7498 35.7443V44.8743L54.2598 45.0842L55.4597 40.5143H55.4397L56.7498 35.7443Z" class="pr-icon-iso-solid-stroke" stroke-linejoin="round"/> <path d="M55.459 20.5143L54.969 22.3843L52.989 29.9243V36.0743L42.9189 36.9443V27.7543L28.5691 29.0242L27.9089 26.5543L26.959 23.0443L55.459 20.5143Z" class="pr-icon-iso-solid-stroke" stroke-linejoin="round"/> <path d="M107.609 33.0242V52.9343C107.629 56.8043 106.359 60.6142 103.799 64.3542C101.249 68.0942 97.399 71.4543 92.259 74.4243C87.119 77.3843 81.3091 79.6142 74.8191 81.0842C68.3391 82.5642 61.7391 83.2942 55.0291 83.2842C48.3291 83.2742 41.719 82.5143 35.219 81.0143C28.719 79.5143 22.889 77.2742 17.709 74.2842C12.539 71.3042 8.65908 67.9343 6.05908 64.1743C3.45908 60.4243 2.14891 56.6143 2.12891 52.7343V32.7343C2.14891 36.0843 3.1291 39.3843 5.0791 42.6443C5.3791 43.1543 5.70908 43.6643 6.05908 44.1743C8.65908 47.9343 12.539 51.3042 17.709 54.2842C22.889 57.2742 28.719 59.5143 35.219 61.0143C41.609 62.4843 48.109 63.2442 54.689 63.2742C54.799 63.2842 54.9191 63.2842 55.0291 63.2842C61.7391 63.2942 68.3391 62.5642 74.8191 61.0842C77.2491 60.5342 79.5891 59.8743 81.8291 59.1143C85.5691 57.8343 89.049 56.2743 92.259 54.4243C97.399 51.4543 101.249 48.0942 103.799 44.3542C104.109 43.9042 104.389 43.4643 104.659 43.0143C106.629 39.7343 107.609 36.4042 107.609 33.0242Z" class="pr-icon-iso-solid-stroke" stroke-linejoin="round"/>
</svg>