<svg width="48" height="48" viewBox="0 0 108 85" fill="#229EFF" xmlns="http://www.w3.org/2000/svg" stroke-width="1px" stroke-linecap="round" stroke-linejoin="round"><path d="M55.869 62.3713V82.3713C50.199 82.1813 44.6889 81.4213 39.3289 80.0813C33.9689 78.7413 29.1389 76.8313 24.8289 74.3413C17.4689 70.0913 12.989 65.1013 11.409 59.3913C10.969 57.7913 10.7491 56.2213 10.7591 54.6713V34.7513C10.7591 36.2713 10.969 37.8213 11.409 39.3913C11.569 39.9813 11.7691 40.5713 12.0091 41.1513C12.4991 42.4313 13.1591 43.6813 13.9791 44.8913C15.7791 47.5613 18.329 50.0413 21.639 52.3213C22.639 53.0213 23.6989 53.6913 24.8289 54.3413C29.1389 56.8313 33.9689 58.7413 39.3289 60.0813C44.6889 61.4213 50.199 62.1813 55.869 62.3713Z" stroke="white" stroke-linejoin="round"/><path d="M54.6089 37.1514V56.2214C53.9889 56.1814 53.369 56.1414 52.749 56.0814C50.859 55.9114 48.9989 55.6514 47.1689 55.3114V41.4514L52.179 38.5614L54.6089 37.1514Z" stroke="white" stroke-linejoin="round"/><path d="M23.4788 27.7714V42.1214C22.9388 41.2514 22.5188 40.3614 22.1888 39.4414C21.9488 38.7614 21.7587 38.0814 21.6287 37.4114C21.1187 34.8814 21.3687 32.3914 22.3787 29.9514C22.6787 29.2214 23.0388 28.4914 23.4788 27.7714Z" stroke="white" stroke-linejoin="round"/><path d="M47.1685 41.4514V55.3114C45.8485 55.0714 44.5586 54.7814 43.2686 54.4514C39.2486 53.4214 35.5886 51.9514 32.2786 50.0414C28.1886 47.6814 25.2585 45.0414 23.4785 42.1214V27.7714L47.1685 41.4514Z" stroke="white" stroke-linejoin="round"/><path d="M69.499 28.5614V48.5614L62.0488 52.8514V32.8514L69.499 28.5614Z" stroke="white" stroke-linejoin="round"/><path d="M105.739 33.5813L95.1887 33.5113C94.8587 31.0313 93.8088 28.6313 92.0188 26.3113C90.2388 23.9913 87.6887 21.8713 84.3787 19.9613C79.0787 16.9013 72.9488 14.9613 66.0088 14.1313C59.0688 13.3113 52.3286 13.5613 45.8086 14.8813L68.9688 28.2513L69.4988 28.5613L62.0486 32.8513L53.0886 27.6813L36.1187 17.8813C34.1887 18.7013 32.6287 19.5013 31.4187 20.2713C30.2087 21.0413 29.2887 21.6813 28.6687 22.1813L41.0786 29.3413L49.5786 34.2513L54.6086 37.1513L52.1787 38.5613L47.1687 41.4513L23.4788 27.7713C23.0388 28.4913 22.6787 29.2213 22.3787 29.9513C21.3687 32.3913 21.1187 34.8813 21.6287 37.4113C21.7587 38.0813 21.9487 38.7613 22.1887 39.4413C22.5187 40.3613 22.9388 41.2513 23.4788 42.1213C25.2588 45.0413 28.1888 47.6813 32.2788 50.0413C35.5888 51.9513 39.2488 53.4213 43.2688 54.4513C44.5588 54.7813 45.8487 55.0713 47.1687 55.3113C48.9987 55.6513 50.8588 55.9113 52.7488 56.0813C53.3688 56.1413 53.9886 56.1813 54.6086 56.2213C54.9886 56.2413 55.3588 56.2613 55.7388 56.2813L55.8687 62.3713C50.1987 62.1813 44.6886 61.4213 39.3286 60.0813C33.9686 58.7413 29.1386 56.8313 24.8286 54.3413C23.6986 53.6913 22.6387 53.0213 21.6387 52.3213C18.3287 50.0413 15.7788 47.5613 13.9788 44.8913C13.1588 43.6813 12.4988 42.4313 12.0088 41.1513C11.7688 40.5713 11.5687 39.9813 11.4087 39.3913C10.9687 37.8213 10.7588 36.2713 10.7588 34.7513C10.7588 33.8213 10.8388 32.8913 11.0088 31.9713C11.5488 28.9113 12.9886 25.9413 15.3286 23.0713L2.21875 15.5013L9.6687 11.2013L17.1086 15.5013L21.0886 17.8013C22.3886 16.8313 23.6888 15.9913 24.9988 15.2713C26.2988 14.5613 27.4788 13.9713 28.5288 13.5013L17.1086 6.91133L24.5486 2.61133L37.6587 10.1813C46.6087 7.75133 56.0287 6.99133 65.9287 7.91133C75.8287 8.83133 84.4586 11.4113 91.8286 15.6613C96.1286 18.1513 99.4488 20.9413 101.759 24.0313C104.079 27.1313 105.409 30.3113 105.739 33.5813Z" stroke="white" stroke-linejoin="round"/><path d="M105.739 33.5814V53.5814L95.1885 53.5114V33.5114L105.739 33.5814Z" stroke="white" stroke-linejoin="round"/><path d="M95.1887 33.5113V53.5113C94.8587 51.0313 93.8088 48.6313 92.0188 46.3113C90.2388 43.9913 87.6887 41.8713 84.3787 39.9613C79.9887 37.4213 75.0188 35.6613 69.4988 34.6513V28.5613L68.9688 28.2513L45.8086 14.8813C52.3286 13.5613 59.0688 13.3113 66.0088 14.1313C72.9488 14.9613 79.0787 16.9013 84.3787 19.9613C87.6887 21.8713 90.2388 23.9913 92.0188 26.3113C93.8088 28.6313 94.8587 31.0313 95.1887 33.5113Z" stroke="white" stroke-linejoin="round"/><path d="M28.5286 13.5014C27.4786 13.9714 26.2985 14.5614 24.9985 15.2714C23.6885 15.9914 22.3884 16.8314 21.0884 17.8014L17.1084 15.5014V6.91138L28.5286 13.5014Z" stroke="white" stroke-linejoin="round"/><path d="M15.3286 23.0713C12.9886 25.9413 11.5488 28.9113 11.0088 31.9713C10.8388 32.8913 10.7588 33.8213 10.7588 34.7513V40.4313L2.21875 35.5013V15.5013L15.3286 23.0713Z" stroke="white" stroke-linejoin="round"/><path d="M10.7588 34.7514V34.5314" stroke="white" stroke-linejoin="round"/><path d="M62.0488 32.8513V52.8513L54.6089 48.5513V37.1514L49.5789 34.2513L41.0789 29.3413L28.6689 22.1813C29.2889 21.6813 30.2089 21.0413 31.4189 20.2713C32.6289 19.5013 34.1889 18.7013 36.1189 17.8813L53.0889 27.6813L62.0488 32.8513Z" stroke="white" stroke-linejoin="round"/></svg>