<svg width="48" height="48" viewBox="0 0 125 77" fill="#229EFF" xmlns="http://www.w3.org/2000/svg" stroke-width="1px" stroke-linecap="round" stroke-linejoin="round"><path d="M96.6289 54.5802V74.5802L89.1289 70.2502V50.2502L91.4289 51.5802L95.1789 53.7502L96.6289 54.5802Z" stroke="white" stroke-linejoin="round"/><path d="M62.2695 46.7404H62.4695V46.6304L62.2695 46.7404Z" stroke="white" stroke-linejoin="round"/><path d="M115.289 43.8202L97.9594 53.8202L96.6295 54.5801L95.1895 53.7501L91.4395 51.5801L89.1295 50.2501L95.0995 46.8002L89.0594 46.7902L84.9395 46.7802L77.2295 46.7701L62.4695 46.7401V46.6301L62.2694 46.7401H60.4995L51.2394 46.7201L43.4495 46.7101L43.4195 46.4102L42.0894 36.7201L41.4995 32.4502L34.5194 32.4402L27.0095 32.4202L13.4495 32.4001L12.0795 31.6101L2.93945 26.3301L12.0795 26.3501L34.5194 26.3901H37.4594L49.3094 26.4202H51.1995L51.2295 26.6201L51.8495 31.0901L52.9495 39.1301L53.1595 40.6802L60.1595 40.6902H60.5695L62.4695 40.7002L72.7094 40.7101L84.9395 40.7301L87.6895 40.7401H89.0594L95.0695 40.7501L91.3595 38.6201L89.0594 37.2902L96.5095 32.9801L98.8195 34.3102L110.089 40.8202L115.289 43.8202Z" stroke="white" stroke-linejoin="round"/><path d="M55.4103 9.03027L34.5203 21.0902L12.0703 21.0503L44.1503 2.53027L55.4103 9.03027Z" stroke="white" stroke-linejoin="round"/><path d="M43.45 46.7101V66.7101L41.5 52.4502V32.4502L42.09 36.7201L43.42 46.4102L43.45 46.7101Z" stroke="white" stroke-linejoin="round"/><path d="M89.1088 11.2502L60.5588 27.7302L60.1488 21.4602L55.4088 21.3602L49.2988 21.2302L55.4088 17.7003L77.8388 4.75024L89.1088 11.2502Z" stroke="white" stroke-linejoin="round"/><path d="M122.789 13.4802L84.9287 35.3402L82.0287 35.3302L62.4688 35.2903L79.2787 25.5802L89.1088 19.9203L111.529 6.97021L122.789 13.4802Z" stroke="white" stroke-linejoin="round"/><path d="M122.79 13.4802V33.4802L110.08 40.8203L98.8097 34.3103L96.5097 32.9802L89.0497 37.2903V40.7402H87.6797L84.9297 40.7302V35.3402L122.79 13.4802Z" stroke="white" stroke-linejoin="round"/><path d="M115.279 43.8203V63.8203L96.6289 74.5802V54.5802L97.9589 53.8203L115.279 43.8203Z" stroke="white" stroke-linejoin="round"/><path d="M95.0992 46.8003L89.1292 50.2502V66.7903L43.4492 66.7102V46.7102L51.2392 46.7202L60.4992 46.7402H62.4692L77.2292 46.7703L84.9392 46.7803L89.0592 46.7903L95.0992 46.8003Z" stroke="white" stroke-linejoin="round"/><path d="M95.0588 40.7502L89.0488 40.7402V37.2903L91.3588 38.6202L95.0588 40.7502Z" stroke="white" stroke-linejoin="round"/><path d="M41.4992 32.4504V52.4504L13.4492 52.4004V32.4004L27.0092 32.4204L34.5192 32.4404L41.4992 32.4504Z" stroke="white" stroke-linejoin="round"/><path d="M13.4397 32.4001V52.4001L2.92969 46.3301V26.3301L12.0697 31.6101L13.4397 32.4001Z" stroke="white" stroke-linejoin="round"/><path d="M34.5203 21.0902V26.3903L12.0703 26.3502V21.0503L34.5203 21.0902Z" stroke="white" stroke-linejoin="round"/><path d="M55.4095 9.03027V17.7003L49.2996 21.2302V26.4203L37.4595 26.3903H34.5195V21.0902L55.4095 9.03027Z" stroke="white" stroke-linejoin="round"/><path d="M84.9287 35.3402V40.7302L72.7087 40.7102L62.4688 40.7003V35.2903L82.0287 35.3302L84.9287 35.3402Z" stroke="white" stroke-linejoin="round"/><path d="M89.1106 11.2502V19.9203L79.2805 25.5802L62.4706 35.2903V40.7003L60.5605 40.6903V27.7302L89.1106 11.2502Z" stroke="white" stroke-linejoin="round"/><path d="M60.5604 27.7302V40.6903H60.1504V21.4602L60.5604 27.7302Z" stroke="white" stroke-linejoin="round"/><path d="M60.1488 21.4602V40.6903L53.1488 40.6803L52.9388 39.1302L51.8388 31.0902L51.2288 26.6202L51.1988 26.4203H49.2988V21.2302L55.4088 21.3602L60.1488 21.4602Z" stroke="white" stroke-linejoin="round"/></svg>