<svg width="48" height="48" viewBox="0 0 134 93" xmlns="http://www.w3.org/2000/svg" stroke-width="1px"  stroke-linecap="round" stroke-linejoin="round"> <path d="M88.0901 53.2095V57.8895L89.6301 56.9995C88.6001 55.7995 88.0901 54.5295 88.0901 53.2095ZM107.07 51.1295C106.04 50.5395 104.83 50.2395 103.44 50.2395C102.05 50.2295 100.85 50.5295 99.8301 51.1195C98.8001 51.7095 98.29 52.3995 98.3 53.2095C98.3 54.0095 98.8201 54.6995 99.8501 55.2995C100.88 55.8895 102.09 56.1895 103.47 56.1895C104.86 56.1995 106.07 55.8995 107.09 55.3095C108.11 54.7195 108.62 54.0295 108.62 53.2195C108.61 52.4195 108.1 51.7295 107.07 51.1295Z" class="pr-icon-iso-solid-stroke" stroke-linejoin="round"/> <path d="M63.55 38.5098V46.8998L59.9502 48.9798V40.5998L63.55 38.5098Z" class="pr-icon-iso-solid-stroke" stroke-linejoin="round"/> <path d="M79.53 47.7397V56.0698L73.6602 52.6797L63.6001 46.8698L63.55 46.8998V38.5098L79.53 47.7397Z" class="pr-icon-iso-solid-stroke" stroke-linejoin="round"/> <path d="M85.4402 67.8094V87.8094L63.6401 75.2295V55.2295L79.53 64.3995L81.4502 65.5095L85.4402 67.8094Z" class="pr-icon-iso-solid-stroke" stroke-linejoin="round"/> <path d="M50.7401 61.4798C50.7401 62.0798 50.45 62.6197 49.88 63.1097C49.69 63.2697 49.4701 63.4198 49.2101 63.5698C49.1801 63.5898 49.15 63.5998 49.12 63.6198C48.12 64.1798 46.94 64.4498 45.59 64.4498C44.24 64.4498 43.0001 64.1498 41.9701 63.5598C40.9401 62.9598 40.4201 62.2598 40.4201 61.4598C40.4101 60.6598 40.9201 59.9698 41.9501 59.3698C42.2001 59.2298 42.4601 59.0997 42.7301 58.9897C43.5701 58.6597 44.51 58.4897 45.56 58.4897C46.92 58.4997 48.11 58.7798 49.12 59.3498C49.14 59.3598 49.1701 59.3798 49.1901 59.3898C50.2101 59.9798 50.7301 60.6798 50.7401 61.4798Z" class="pr-icon-iso-solid-stroke" stroke-linejoin="round"/> <path d="M27.4202 50.9896V70.9896L2 56.3096V36.3096L19.3201 46.3096L27.4202 50.9896Z" class="pr-icon-iso-solid-stroke" stroke-linejoin="round"/> <path d="M132.01 44.6997V64.6997L127.05 67.5597V47.5597L132.01 44.6997Z" class="pr-icon-iso-solid-stroke" stroke-linejoin="round"/> <path d="M114.29 46.9596C111.26 45.2196 107.63 44.3396 103.41 44.3296C101.39 44.3296 99.5001 44.5196 97.7601 44.9196C95.8601 45.3496 94.1301 46.0196 92.5601 46.9196C90.2201 48.2796 88.7901 49.8896 88.2901 51.7496C88.1701 52.2196 88.1001 52.6896 88.0901 53.1496V53.2096C88.0901 54.5296 88.6002 55.7996 89.6302 56.9996L88.0901 57.8896L85.3902 59.4496L79.5301 56.0696L73.6602 52.6796L63.6001 46.8696L63.5501 46.8996L59.9502 48.9796L57.1102 50.6196L52.7303 53.1496L52.1402 53.4896C51.1602 53.2096 50.1502 52.9996 49.1202 52.8496C48.1402 52.7096 47.1402 52.6296 46.1102 52.6096C45.1102 52.5796 44.0901 52.6196 43.0401 52.7096C40.1501 52.9696 37.6102 53.6596 35.4302 54.7796C35.1702 54.8996 34.9202 55.0396 34.6802 55.1796C31.6702 56.9196 30.1802 59.0096 30.1902 61.4396C30.2002 63.8796 31.7201 65.9796 34.7501 67.7196C34.8501 67.7796 34.9501 67.8396 35.0601 67.8896C38.0201 69.5296 41.5402 70.3496 45.6302 70.3596C49.8502 70.3596 53.4603 69.4996 56.4703 67.7596C58.8203 66.4096 60.24 64.7996 60.75 62.9396C60.85 62.5696 60.9102 62.2096 60.9402 61.8496V61.7196C60.9702 61.1796 60.9001 60.6496 60.7601 60.1296C60.6001 59.5396 60.3302 58.9696 59.9502 58.4096C59.7902 58.1596 59.6002 57.9196 59.4002 57.6796L59.9502 57.3596L63.5501 55.2796L63.6402 55.2296L79.5301 64.3996L81.4502 65.5096L85.4402 67.8096L88.0901 66.2796L96.8902 61.1996C99.7302 61.9996 102.77 62.2596 105.99 61.9696C109.04 61.6996 111.69 60.9496 113.95 59.7196C114.08 59.6596 114.22 59.5896 114.35 59.5096C115.92 58.6096 117.07 57.6096 117.82 56.5096C118.51 55.5096 118.85 54.4196 118.85 53.2596V53.2396C118.83 50.7996 117.31 48.7096 114.29 46.9596ZM49.8802 63.1096C49.6902 63.2696 49.4703 63.4196 49.2103 63.5696C49.1803 63.5896 49.1502 63.5996 49.1202 63.6196C48.1202 64.1796 46.9401 64.4496 45.5901 64.4496C44.2401 64.4496 43.0003 64.1496 41.9703 63.5596C40.9403 62.9596 40.4202 62.2596 40.4202 61.4596C40.4102 60.6596 40.9202 59.9696 41.9502 59.3696C42.2002 59.2296 42.4603 59.0996 42.7303 58.9896C43.5703 58.6596 44.5101 58.4896 45.5601 58.4896C46.9201 58.4996 48.1102 58.7796 49.1202 59.3496C49.1402 59.3596 49.1702 59.3796 49.1902 59.3896C50.2102 59.9796 50.7303 60.6796 50.7403 61.4796C50.7403 62.0796 50.4502 62.6196 49.8802 63.1096ZM107.09 55.3096C106.07 55.8996 104.86 56.1996 103.47 56.1896C102.09 56.1896 100.88 55.8896 99.8502 55.2996C98.8202 54.6996 98.3001 54.0096 98.3001 53.2096C98.2901 52.3996 98.8001 51.7096 99.8301 51.1196C100.85 50.5296 102.05 50.2296 103.44 50.2396C104.83 50.2396 106.04 50.5396 107.07 51.1296C108.1 51.7296 108.61 52.4196 108.62 53.2196C108.62 54.0296 108.11 54.7196 107.09 55.3096Z" class="pr-icon-iso-solid-stroke" stroke-linejoin="round"/> <path d="M74.3801 32.2598L67.1602 36.4297L56.2202 30.1097V21.7798L59.01 23.3898L74.3801 32.2598Z" class="pr-icon-iso-solid-stroke" stroke-linejoin="round"/> <path d="M56.2202 21.7798V30.1097L51.8 27.5598L49 25.9398L56.2202 21.7798Z" class="pr-icon-iso-solid-stroke" stroke-linejoin="round"/> <path d="M118.85 53.2598V73.2397C118.86 75.6797 117.36 77.7698 114.35 79.5098C112.01 80.8598 109.22 81.6798 105.99 81.9698C102.77 82.2598 99.7301 81.9998 96.8901 81.1998V61.1998C99.7301 61.9998 102.77 62.2598 105.99 61.9698C109.04 61.6998 111.69 60.9498 113.95 59.7198C114.08 59.6598 114.22 59.5898 114.35 59.5098C115.92 58.6098 117.07 57.6098 117.82 56.5098C118.51 55.5098 118.85 54.4198 118.85 53.2598Z" class="pr-icon-iso-solid-stroke" stroke-linejoin="round"/> <path d="M96.8901 61.1997V81.1997L85.4402 87.8097V67.8097L88.0901 66.2797L96.8901 61.1997Z" class="pr-icon-iso-solid-stroke" stroke-linejoin="round"/> <path d="M63.6401 55.2295V75.2295L60.9302 76.7994V68.3995L60.9402 61.7195C60.9702 61.1795 60.9 60.6495 60.76 60.1295C60.6 59.5395 60.3302 58.9695 59.9502 58.4095C59.7902 58.1595 59.6001 57.9194 59.4001 57.6794L59.9502 57.3594L63.55 55.2795L63.6401 55.2295Z" class="pr-icon-iso-solid-stroke" stroke-linejoin="round"/> <path d="M59.7402 2.96973L2 36.3097L19.3201 46.3097L27.4202 50.9897C30.4302 49.2497 33.8101 48.0297 37.5801 47.3197C38.9701 47.0597 40.37 46.8697 41.79 46.7597C44.2 46.5697 46.6401 46.5997 49.1201 46.8497L49.8501 46.4297L52.7302 44.7597L51.8901 44.2797L41.79 38.4497L37.3601 35.8897L34.5701 34.2797L41.79 30.1097L44.5801 31.7197L56.2202 38.4497L59.9502 40.5997L63.55 38.5097L79.53 47.7397C80.13 46.8297 80.9101 45.9597 81.8701 45.1297C82.8301 44.2897 83.98 43.4997 85.3 42.7297C86.81 41.8597 88.4201 41.1197 90.1301 40.5197C94.0401 39.1097 98.4601 38.4197 103.38 38.4297C110.44 38.4397 116.48 39.8997 121.5 42.7997C122.71 43.4997 123.8 44.2497 124.77 45.0497C125.74 45.8497 126.5 46.6897 127.05 47.5597L132.01 44.6997L59.7402 2.96973ZM67.1602 36.4297L56.2202 30.1097L51.8 27.5597L49 25.9397L56.2202 21.7797L59.01 23.3897L74.3801 32.2597L67.1602 36.4297Z" class="pr-icon-iso-solid-stroke" stroke-linejoin="round"/> <path d="M41.79 30.1099V38.4499L37.3601 35.8899L34.5701 34.2799L41.79 30.1099Z" class="pr-icon-iso-solid-stroke" stroke-linejoin="round"/> <path d="M59.9502 40.5999V48.9799L57.1101 50.6199L52.7302 53.1499V44.7599L51.8901 44.2799L41.79 38.4499V30.1099L44.5801 31.7199L56.2202 38.4499L59.9502 40.5999Z" class="pr-icon-iso-solid-stroke" stroke-linejoin="round"/> <path d="M49.1201 46.8498V52.8498C48.1401 52.7098 47.1401 52.6298 46.1101 52.6098C45.1101 52.5798 44.09 52.6198 43.04 52.7098C40.15 52.9698 37.6102 53.6598 35.4302 54.7798C35.1702 54.8998 34.9202 55.0398 34.6802 55.1798C31.6702 56.9198 30.1802 59.0098 30.1902 61.4398V69.5898C29.2302 70.0098 28.3102 70.4798 27.4202 70.9898V50.9898C30.4302 49.2498 33.8101 48.0298 37.5801 47.3198C38.9701 47.0598 40.37 46.8698 41.79 46.7598C44.2 46.5698 46.6401 46.5998 49.1201 46.8498Z" class="pr-icon-iso-solid-stroke" stroke-linejoin="round"/> <path d="M52.7302 44.7598V53.1498L52.1401 53.4897C51.1601 53.2097 50.1501 52.9998 49.1201 52.8498V46.8498L49.8501 46.4297L52.7302 44.7598Z" class="pr-icon-iso-solid-stroke" stroke-linejoin="round"/> <path d="M60.9402 61.8495V76.7994L60.9302 80.9894C60.9902 81.6294 60.93 82.2795 60.75 82.9395C60.24 84.7995 58.8202 86.4095 56.4702 87.7595C53.4602 89.4995 49.8501 90.3594 45.6301 90.3594C41.4001 90.3494 37.78 89.4695 34.75 87.7195C31.72 85.9795 30.2002 83.8795 30.1902 81.4395V61.4395C30.2002 63.8795 31.72 65.9795 34.75 67.7195C34.85 67.7795 34.9501 67.8395 35.0601 67.8895C38.0201 69.5295 41.5401 70.3494 45.6301 70.3594C49.8501 70.3594 53.4602 69.4995 56.4702 67.7595C58.8202 66.4095 60.24 64.7995 60.75 62.9395C60.85 62.5695 60.9102 62.2095 60.9402 61.8495Z" class="pr-icon-iso-solid-stroke" stroke-linejoin="round"/> <path d="M60.9302 81.1998V80.9897" class="pr-icon-iso-solid-stroke" stroke-linejoin="round"/> <path d="M127.05 47.5598V67.5598C126.5 66.6898 125.74 65.8498 124.77 65.0498C123.8 64.2498 122.71 63.4998 121.5 62.7998C120.65 62.3098 119.76 61.8598 118.85 61.4498V53.2398C118.83 50.7998 117.31 48.7098 114.29 46.9598C111.26 45.2198 107.63 44.3398 103.41 44.3298C101.39 44.3298 99.5 44.5198 97.76 44.9198C95.86 45.3498 94.1301 46.0198 92.5601 46.9198C90.2201 48.2798 88.79 49.8898 88.29 51.7498C88.17 52.2198 88.1001 52.6898 88.0901 53.1498V57.8898L85.3901 59.4498L79.53 56.0698V47.7398C80.13 46.8298 80.9101 45.9598 81.8701 45.1298C82.8301 44.2898 83.98 43.4998 85.3 42.7298C86.81 41.8598 88.4201 41.1198 90.1301 40.5198C94.0401 39.1098 98.4601 38.4198 103.38 38.4298C110.44 38.4398 116.48 39.8998 121.5 42.7998C122.71 43.4998 123.8 44.2498 124.77 45.0498C125.74 45.8498 126.5 46.6898 127.05 47.5598Z" class="pr-icon-iso-solid-stroke" stroke-linejoin="round"/>
</svg>