<svg width="48" height="48" viewBox="0 0 80 101" xmlns="http://www.w3.org/2000/svg" stroke-width="1px"  stroke-linecap="round" stroke-linejoin="round"> <path d="M37.6799 78.52V98.52L2.37988 78.14V58.14L4.72989 59.5L37.6799 78.52Z" class="pr-icon-iso-solid-stroke" stroke-linejoin="round"/> <path d="M44.92 2.18005L44.12 8.79004C43.69 12.35 43.17 14.7301 42.56 15.9301C41.94 17.1301 40.72 18.2601 38.87 19.3301C35.68 21.1701 31.8 22.08 27.23 22.05C22.65 22.03 18.73 21.0701 15.47 19.1901C12.15 17.2701 10.48 15 10.46 12.37C10.45 9.75 12.04 7.52004 15.23 5.67004C17.13 4.58004 19.16 3.83997 21.32 3.46997C23.48 3.10997 27.56 2.80998 33.56 2.59998L44.92 2.18005Z" class="pr-icon-iso-solid-stroke" stroke-linejoin="round"/> <path d="M77.9599 55.27L72.8499 58.22L67.3599 61.39L37.6799 78.52L4.72989 59.5L2.37988 58.14L6.08987 28.7001L10.4599 29.0701L11.3699 29.14L20.2399 29.89L23.3999 38.01L44.4799 25.84L59.2299 17.3201L65.9899 21.22L43.1199 34.42L32.4199 40.6L33.7199 41.35L37.4899 43.53L57.6299 31.9L64.3799 35.8L60.4899 38.05L44.2399 47.4301L49.3099 50.35L64.3799 41.65L65.5499 40.97L65.9899 40.72L66.0899 40.66L72.8499 44.5601L64.3799 49.4501L58.8799 52.62L56.0599 54.25L61.1299 57.1801L63.9499 55.55L64.3799 55.3L71.1999 51.37L72.8499 52.3201L77.9599 55.27Z" class="pr-icon-iso-solid-stroke" stroke-linejoin="round"/> <path d="M77.9597 55.27V75.27L37.6797 98.52V78.52L67.3597 61.39L72.8497 58.22L77.9597 55.27Z" class="pr-icon-iso-solid-stroke" stroke-linejoin="round"/> <path d="M72.8496 44.5601V52.3201L71.1996 51.37L64.3796 55.3L63.9496 55.55L61.1296 57.1801L56.0596 54.25L58.8796 52.62L64.3796 49.4501L72.8496 44.5601Z" class="pr-icon-iso-solid-stroke" stroke-linejoin="round"/> <path d="M65.9899 21.22V40.72L65.5499 40.97L64.3799 41.65V35.8L57.6299 31.9L37.4899 43.53L33.7199 41.35L32.4199 40.6L43.1199 34.42L65.9899 21.22Z" class="pr-icon-iso-solid-stroke" stroke-linejoin="round"/> <path d="M64.3802 35.8V41.65L49.3102 50.35L44.2402 47.4301L60.4902 38.05L64.3802 35.8Z" class="pr-icon-iso-solid-stroke" stroke-linejoin="round"/> <path d="M44.92 2.18005V22.1801L44.48 25.84L23.4 38.01L20.24 29.89L11.37 29.14L10.46 29.0701V12.37C10.48 15 12.15 17.2701 15.47 19.1901C18.73 21.0701 22.65 22.03 27.23 22.05C31.8 22.08 35.68 21.1701 38.87 19.3301C40.72 18.2601 41.94 17.1301 42.56 15.9301C43.17 14.7301 43.69 12.35 44.12 8.79004L44.92 2.18005Z" class="pr-icon-iso-solid-stroke" stroke-linejoin="round"/>
</svg>