<svg width="48" height="48" viewBox="0 0 91 96" fill="#229EFF" xmlns="http://www.w3.org/2000/svg" stroke-width="1px" stroke-linecap="round" stroke-linejoin="round"><path d="M45.9697 79.2849V84.2949L46.0198 93.5149V79.2949C46.0198 79.2949 45.9897 79.2949 45.9697 79.2849ZM45.9697 64.2949V68.1049C45.9697 68.1049 45.9797 68.0949 45.9897 68.0949L45.9697 64.2949Z" stroke="white" stroke-linejoin="round"/><path d="M70.6702 36.6651V56.6651L68.9202 55.6551V53.7451C68.9002 51.1651 67.5102 48.8951 64.7402 46.9351V33.2351L70.6702 36.6651Z" stroke="white" stroke-linejoin="round"/><path d="M44.1304 38.3651V43.325C41.3804 43.825 38.9103 44.7151 36.7003 45.9951C36.3503 46.1951 36.0203 46.3951 35.7103 46.6151V40.315L35.1504 39.9951V33.1851L40.9904 36.5551L44.1304 38.3651Z" stroke="white" stroke-linejoin="round"/><path d="M35.7103 40.3149V46.615C35.5203 46.735 35.3304 46.8649 35.1504 47.0049C32.5004 48.9149 31.1803 51.135 31.1903 53.675V62.3149C30.5403 62.6749 29.9404 63.055 29.3604 63.465V43.465C30.2504 42.835 31.2204 42.265 32.2704 41.735C33.1704 41.295 34.1304 40.895 35.1504 40.515C35.3304 40.445 35.5203 40.3849 35.7103 40.3149Z" stroke="white" stroke-linejoin="round"/><path d="M25.2397 47.125V67.125C24.6497 67.925 24.1598 68.725 23.7698 69.515C23.3798 70.315 23.1197 71.155 22.9697 72.035V52.035C23.0597 51.525 23.1797 51.025 23.3497 50.545C23.4697 50.195 23.6098 49.855 23.7698 49.515C23.7798 49.495 23.7897 49.475 23.7997 49.455C24.1797 48.685 24.6697 47.905 25.2397 47.125Z" stroke="white" stroke-linejoin="round"/><path d="M22.97 52.0351V72.0351C20.36 72.0051 17.82 71.7051 15.35 71.1251C12.88 70.5551 10.63 69.6751 8.59998 68.5051C4.49998 66.1351 2.42992 63.2851 2.41992 59.9551V39.9551C2.42992 43.2851 4.49998 46.1351 8.59998 48.5051C9.45998 48.9951 10.35 49.4451 11.29 49.8251C12.57 50.3651 13.92 50.7951 15.35 51.1251C16.76 51.4551 18.2 51.6951 19.66 51.8451C20.75 51.9551 21.85 52.0251 22.97 52.0351Z" stroke="white" stroke-linejoin="round"/><path d="M88.3701 26.4451L71.0501 36.4451L70.6701 36.6651L64.7401 33.2351L55.8201 38.3851C53.8901 38.1251 51.9401 37.9951 49.9701 37.9951C48.0001 37.9851 46.0501 38.1151 44.1301 38.3651L40.9901 36.5551L35.1502 33.1851L40.9901 29.8051L41.0501 29.7751L49.9501 34.9151L58.8001 29.8051L46.4401 22.6751L40.9901 19.5251L29.1201 26.3851L14.4501 34.8551C11.9901 36.2751 10.7602 37.9751 10.7802 39.9751C10.7902 41.9651 12.0301 43.6751 14.5001 45.1051C15.3801 45.6051 16.3101 46.0151 17.3101 46.3451C18.0101 46.5651 18.7401 46.7451 19.5001 46.8851C20.7601 47.1051 22.0401 47.2151 23.3501 47.2151C23.9801 47.2151 24.6001 47.1851 25.2401 47.1251C24.6701 47.9051 24.1801 48.6851 23.8001 49.4551C23.7901 49.4751 23.7802 49.4951 23.7702 49.5151C23.6102 49.8551 23.4701 50.1951 23.3501 50.5451C23.1801 51.0251 23.0601 51.5251 22.9701 52.0351C21.8501 52.0251 20.7502 51.9551 19.6602 51.8451C18.2002 51.6951 16.7601 51.4551 15.3501 51.1251C13.9201 50.7951 12.5702 50.3651 11.2902 49.8251C10.3502 49.4451 9.46012 48.9951 8.60012 48.5051C4.50012 46.1351 2.43007 43.2851 2.42007 39.9551C2.40007 36.6251 4.43016 33.7851 8.51016 31.4251L29.1201 19.5251L35.0601 16.0951L29.1201 12.6751L46.8201 2.45508L88.3701 26.4451Z" stroke="white" stroke-linejoin="round"/><path d="M35.7096 40.3149C35.5196 40.3849 35.3297 40.445 35.1497 40.515C34.1297 40.895 33.1697 41.295 32.2697 41.735C31.2197 42.265 30.2496 42.835 29.3596 43.465L25.8296 41.425L23.3496 39.995L29.2496 36.585L31.7296 38.015L35.1497 39.995L35.7096 40.3149Z" stroke="white" stroke-linejoin="round"/><path d="M29.3596 43.4651V63.4651L25.2396 61.0851V47.1251C24.5996 47.1851 23.9796 47.2151 23.3496 47.2151V39.9951L25.8296 41.4251L29.3596 43.4651Z" stroke="white" stroke-linejoin="round"/><path d="M58.8002 29.8051L49.9502 34.9151L41.0502 29.7751L40.9902 29.8051V19.5251L46.4402 22.6751L58.8002 29.8051Z" stroke="white" stroke-linejoin="round"/><path d="M40.9905 19.5251V29.8051L35.1505 33.1852V39.9951L31.7305 38.0151L29.2505 36.5851L23.3505 39.9951V47.2151C22.0405 47.2151 20.7605 47.1051 19.5005 46.8851C18.7405 46.7451 18.0104 46.5651 17.3104 46.3451C16.3104 46.0151 15.3805 45.6051 14.5005 45.1051C12.0305 43.6751 10.7905 41.9651 10.7805 39.9751C10.7605 37.9751 11.9904 36.2751 14.4504 34.8551L29.1205 26.3851L40.9905 19.5251Z" stroke="white" stroke-linejoin="round"/><path d="M35.0601 16.095L29.1201 19.5251V12.675L35.0601 16.095Z" stroke="white" stroke-linejoin="round"/><path d="M88.37 26.4451V46.4451L70.6699 56.6651V36.6651L71.0499 36.4451L88.37 26.4451Z" stroke="white" stroke-linejoin="round"/><path d="M64.7405 46.935C64.3105 46.635 63.8405 46.335 63.3305 46.045C61.0905 44.755 58.5905 43.855 55.8205 43.335C54.0005 42.995 52.0605 42.8149 50.0005 42.8149C48.9405 42.8149 47.9106 42.8549 46.9106 42.9449C45.9506 43.0249 45.0205 43.155 44.1305 43.325C41.3805 43.825 38.9105 44.715 36.7005 45.995C36.3505 46.195 36.0205 46.395 35.7105 46.615C35.5205 46.735 35.3306 46.8649 35.1506 47.0049C32.5006 48.9149 31.1805 51.135 31.1905 53.675C31.2005 55.725 32.0805 57.5749 33.8205 59.2249C34.2705 59.6449 34.7805 60.055 35.3405 60.455C35.7805 60.775 36.2606 61.075 36.7806 61.375C38.0706 62.115 39.4806 62.725 41.0106 63.215C41.5306 63.385 42.0605 63.535 42.6005 63.655C43.6705 63.935 44.7905 64.145 45.9705 64.295L45.9905 68.0949L46.0206 73.515L54.3105 73.5349L54.2806 68.1649L54.2606 64.305C55.3906 64.165 56.4806 63.965 57.5106 63.715C58.0906 63.575 58.6605 63.425 59.2105 63.245C60.7305 62.765 62.1306 62.155 63.4106 61.425C66.3406 59.735 68.1005 57.765 68.6905 55.525C68.8405 54.955 68.9205 54.365 68.9205 53.765V53.745C68.9005 51.165 67.5105 48.895 64.7405 46.935ZM59.7205 56.1349C59.2105 56.8049 58.4605 57.435 57.4805 57.995C55.4105 59.185 52.9505 59.775 50.0905 59.775C47.2305 59.765 44.7605 59.165 42.6805 57.965C41.8105 57.465 41.1105 56.915 40.6105 56.335C39.9105 55.525 39.5605 54.645 39.5505 53.685C39.5405 52.335 40.2305 51.1349 41.6105 50.0949C41.9205 49.8649 42.2605 49.635 42.6305 49.425C43.1105 49.145 43.6105 48.9049 44.1305 48.6949C45.8605 47.9949 47.8206 47.635 50.0206 47.645C52.1706 47.645 54.1105 47.995 55.8205 48.675C56.3805 48.895 56.9205 49.155 57.4305 49.455C57.7705 49.655 58.0805 49.855 58.3605 50.055C59.8205 51.125 60.5505 52.3449 60.5605 53.7249C60.5705 54.5849 60.2805 55.3949 59.7205 56.1349Z" stroke="white" stroke-linejoin="round"/><path d="M68.9197 53.7651V73.7451C68.9297 76.7351 67.0998 79.2951 63.4098 81.4251C62.1298 82.1551 60.7297 82.7651 59.2097 83.2451C57.6897 83.7351 56.0597 84.0751 54.3097 84.2951V73.5351L54.2798 68.1651L54.2598 64.3051C55.3898 64.1651 56.4798 63.9651 57.5098 63.7151C58.0898 63.5751 58.6597 63.4251 59.2097 63.2451C60.7297 62.7651 62.1298 62.1551 63.4098 61.4251C66.3398 59.7351 68.0997 57.7651 68.6897 55.5251C68.8397 54.9551 68.9197 54.3651 68.9197 53.7651Z" stroke="white" stroke-linejoin="round"/><path d="M60.5599 53.725C60.5699 54.585 60.28 55.395 59.72 56.135C59.21 56.805 58.46 57.435 57.48 57.995C55.41 59.185 52.95 59.775 50.09 59.775C47.23 59.765 44.7599 59.165 42.6799 57.965C41.8099 57.465 41.11 56.915 40.61 56.335C39.91 55.525 39.5599 54.645 39.5499 53.685C39.5399 52.335 40.23 51.135 41.61 50.095C41.92 49.865 42.26 49.635 42.63 49.425C43.11 49.145 43.61 48.905 44.13 48.695C45.86 47.995 47.82 47.635 50.02 47.645C52.17 47.645 54.1099 47.995 55.8199 48.675C56.3799 48.895 56.9199 49.155 57.4299 49.455C57.7699 49.655 58.08 49.855 58.36 50.055C59.82 51.125 60.5499 52.345 60.5599 53.725Z" stroke="white" stroke-linejoin="round"/><path d="M54.3104 84.2951C54.3104 84.2951 54.2805 84.2951 54.2605 84.2951L54.3104 93.5251L46.0205 93.5051V73.5051L54.3104 73.5251V84.2851V84.2951Z" stroke="white" stroke-linejoin="round"/><path d="M54.3105 93.5352V84.2952" stroke="white" stroke-linejoin="round"/><path d="M45.9705 64.295V84.295C44.1905 84.065 42.5405 83.7051 41.0105 83.2151C39.4805 82.7251 38.0705 82.1151 36.7805 81.3751C33.0705 79.2351 31.2104 76.665 31.1904 73.675V53.675C31.2004 55.725 32.0804 57.575 33.8204 59.225C34.2704 59.645 34.7805 60.055 35.3405 60.455C35.7805 60.775 36.2605 61.0751 36.7805 61.3751C38.0705 62.1151 39.4805 62.7251 41.0105 63.2151C41.5305 63.3851 42.0605 63.5351 42.6005 63.6551C43.6705 63.9351 44.7905 64.145 45.9705 64.295Z" stroke="white" stroke-linejoin="round"/><path d="M55.8198 38.3851V43.3352C53.9998 42.9952 52.0599 42.8151 49.9999 42.8151C48.9399 42.8151 47.9099 42.8551 46.9099 42.9451C45.9499 43.0251 45.0199 43.1552 44.1299 43.3252V38.3652C46.0499 38.1152 47.9998 37.9852 49.9698 37.9952C51.9398 37.9952 53.8898 38.1251 55.8198 38.3851Z" stroke="white" stroke-linejoin="round"/><path d="M64.7404 33.2351V46.9351C64.3104 46.6351 63.8403 46.3351 63.3303 46.0451C61.0903 44.7551 58.5903 43.8551 55.8203 43.3351V38.3851L64.7404 33.2351Z" stroke="white" stroke-linejoin="round"/></svg>