<svg width="48" height="48" viewBox="0 0 113 100" fill="#229EFF" xmlns="http://www.w3.org/2000/svg" stroke-width="1px" stroke-linecap="round" stroke-linejoin="round"><path d="M88.3 49.6943L77.1 56.1643L88.3 62.6343L93.06 65.3843L95.81 54.0343L88.3 49.6943ZM69.66 64.7943C68.59 64.1843 67.34 63.8743 65.91 63.8743C64.48 63.8743 63.23 64.1743 62.17 64.7843C61.11 65.3943 60.58 66.1143 60.59 66.9443C60.59 67.7743 61.13 68.4943 62.19 69.1043C63.26 69.7243 64.51 70.0343 65.94 70.0343C67.37 70.0343 68.62 69.7343 69.68 69.1243C70.74 68.5143 71.27 67.7943 71.26 66.9643C71.26 66.1343 70.72 65.4143 69.66 64.7943Z" stroke="white" stroke-linejoin="round"/><path d="M110.7 36.7642V56.7642L107.03 58.8842V51.8942L95.7695 45.3842L110.7 36.7642Z" stroke="white" stroke-linejoin="round"/><path d="M32.1197 47.434V67.434C29.0097 69.234 25.2697 70.124 20.8997 70.114C16.5297 70.104 12.7797 69.204 9.64969 67.394C6.51969 65.584 4.94969 63.424 4.92969 60.894V40.894C4.94969 43.024 6.05968 44.884 8.26968 46.494C8.68968 46.804 9.14969 47.104 9.64969 47.394C12.7797 49.204 16.5297 50.104 20.8997 50.114C25.2697 50.114 29.0097 49.234 32.1197 47.434Z" stroke="white" stroke-linejoin="round"/><path d="M54.6501 60.4441C51.5401 62.2441 50.0001 64.4041 50.0101 66.9241V77.7641L32.1201 67.4341V47.4341L54.6501 60.4441Z" stroke="white" stroke-linejoin="round"/><path d="M77.1898 76.1143L77.0998 76.1643L77.1898 76.2143V93.4643C74.0798 95.2543 70.3398 96.1543 65.9698 96.1443C61.6098 96.1343 57.8598 95.2243 54.7298 93.4143C51.5898 91.6143 50.0198 89.4443 50.0098 86.9243V66.9243C50.0198 69.4443 51.5898 71.6143 54.7298 73.4143C57.8598 75.2243 61.6098 76.1343 65.9698 76.1443C70.3398 76.1543 74.0798 75.2543 77.1898 73.4643V76.1143Z" stroke="white" stroke-linejoin="round"/><path d="M110.7 36.764L50.5896 2.06396L2.05957 30.084L9.57956 34.424C6.46956 36.214 4.91957 38.374 4.92957 40.894C4.94957 43.024 6.05956 44.884 8.26956 46.494C8.68956 46.804 9.14957 47.104 9.64957 47.394C12.7796 49.204 16.5296 50.104 20.8996 50.114C25.2696 50.114 29.0096 49.234 32.1196 47.434L54.6496 60.444C51.5396 62.244 49.9996 64.404 50.0096 66.924C50.0196 69.444 51.5896 71.614 54.7296 73.414C57.8596 75.224 61.6096 76.134 65.9696 76.144C70.3396 76.154 74.0796 75.254 77.1896 73.464L79.4896 74.784L84.7096 77.794L93.5196 72.714L100.99 68.404L103.37 67.024L105.06 60.014L106.45 54.304L107.03 51.894L95.7696 45.384L110.7 36.764ZM24.5996 43.094C23.5496 43.704 22.2996 44.014 20.8596 44.004C19.4296 44.004 18.1796 43.694 17.1096 43.084C16.5796 42.774 16.1896 42.444 15.9196 42.084C15.6496 41.714 15.5196 41.324 15.5096 40.914C15.5096 40.094 16.0296 39.374 17.0896 38.754C18.1496 38.144 19.3896 37.844 20.8296 37.844C21.5496 37.844 22.2196 37.924 22.8496 38.084C23.4696 38.234 24.0496 38.464 24.5796 38.774C25.6396 39.384 26.1796 40.104 26.1796 40.934C26.1896 41.764 25.6596 42.484 24.5996 43.094ZM69.6796 69.124C68.6196 69.734 67.3796 70.034 65.9396 70.034C64.4996 70.034 63.2596 69.724 62.1896 69.104C61.1296 68.494 60.5896 67.774 60.5896 66.944C60.5896 66.114 61.1096 65.394 62.1696 64.784C63.2296 64.174 64.4696 63.874 65.9096 63.874C67.3496 63.874 68.5896 64.184 69.6596 64.794C70.7196 65.414 71.2596 66.134 71.2596 66.964C71.2696 67.794 70.7396 68.514 69.6796 69.124ZM95.8096 54.034L93.0596 65.384L88.2996 62.634L77.0996 56.164L88.2996 49.694L95.8096 54.034Z" stroke="white" stroke-linejoin="round"/><path d="M26.1798 40.9338C26.1898 41.7638 25.6598 42.4837 24.5998 43.0938C23.5498 43.7038 22.2998 44.0137 20.8598 44.0037C19.4298 44.0037 18.1798 43.6938 17.1098 43.0838C16.5798 42.7738 16.1898 42.4438 15.9198 42.0838C15.6498 41.7138 15.5198 41.3237 15.5098 40.9137C15.5098 40.0937 16.0298 39.3737 17.0898 38.7537C18.1498 38.1437 19.3898 37.8438 20.8298 37.8438C21.5498 37.8438 22.2198 37.9238 22.8498 38.0838C23.4698 38.2338 24.0498 38.4638 24.5798 38.7738C25.6398 39.3838 26.1798 40.1038 26.1798 40.9338Z" stroke="white" stroke-linejoin="round"/><path d="M107.029 51.894V71.894L103.369 87.024V67.024L105.059 60.014L106.449 54.304L107.029 51.894Z" stroke="white" stroke-linejoin="round"/><path d="M103.37 67.0239V87.0239L84.71 97.7939V77.7939L93.52 72.7139L100.99 68.4039L103.37 67.0239Z" stroke="white" stroke-linejoin="round"/><path d="M84.7094 77.7939V97.7939L77.1895 93.4639V73.4639L79.4894 74.7839L84.7094 77.7939Z" stroke="white" stroke-linejoin="round"/><path d="M88.2998 62.6338V49.6938" stroke="white" stroke-linejoin="round"/><path d="M9.57956 34.424C6.46956 36.214 4.91957 38.374 4.92957 40.894V51.744L2.05957 50.084V30.084L9.57956 34.424Z" stroke="white" stroke-linejoin="round"/></svg>