<svg viewBox="0 0 113 98" fill="#229EFF" xmlns="http://www.w3.org/2000/svg" height="48" width="48" stroke-width="1px" stroke-linecap="round" stroke-linejoin="round"><path d="M82.7605 49.185V57.635L72.7605 63.405L67.3005 66.555L62.8305 69.135L61.8805 68.585L55.5205 64.915L66.3505 58.665L82.7605 49.185Z" stroke="white" stroke-linejoin="round"/><path d="M39.1 61.735V81.735L2.54004 60.625V40.625L19.86 50.625L39.1 61.735Z" stroke="white" stroke-linejoin="round"/><path d="M110.17 29.355H104.49L102.51 29.345L102.56 38.175C100.13 37.545 97.6101 37.365 95.0001 37.635C94.5801 37.675 94.1801 37.735 93.7801 37.805C91.6701 38.145 89.8001 38.795 88.1801 39.735C87.1901 40.305 86.39 40.915 85.79 41.575C84.84 42.605 84.37 43.735 84.38 44.985C84.38 45.655 84.5201 46.295 84.8101 46.905C85.3801 48.145 86.52 49.265 88.23 50.255C88.9 50.635 89.59 50.985 90.29 51.275C90.6 51.405 90.92 51.525 91.26 51.625C91.69 51.755 92.1401 51.865 92.6201 51.945L84.38 56.695L82.76 57.635L72.76 63.405L67.3 66.555L62.83 69.135L61.88 68.585L55.5201 64.915L66.35 58.665L82.76 49.185L81.8101 48.635L71.8 42.855L79.9001 38.175L87.17 33.985L104.49 23.985L67.9301 2.875L2.54004 40.625L19.86 50.625L39.1 61.735L61.7401 48.665L66.35 46.005L71.83 49.165L67.2201 51.825L66.35 52.325L44.58 64.895L56.42 71.735L61.9001 74.895L62.86 75.455L78.2401 66.575L82.76 63.965L84.38 63.025L84.98 62.685L93.2701 57.895L102.53 52.545L106.45 50.285C106.96 49.995 107.42 49.685 107.85 49.355C108.49 48.855 109.04 48.315 109.49 47.735C110.25 46.775 110.62 45.765 110.62 44.715L110.17 29.355ZM67.14 31.785L59.82 27.555L49.82 21.775L67.98 11.295L89.91 23.955L79.86 29.765L72.5901 33.955L71.7501 34.445L67.14 31.785ZM102.5 45.135C102.46 45.895 101.95 46.555 100.97 47.115C99.9901 47.685 98.8501 47.975 97.5301 48.005H97.33C95.94 48.005 94.7201 47.705 93.6801 47.105C92.6501 46.505 92.1301 45.805 92.1201 44.995C92.1201 44.195 92.63 43.495 93.66 42.895C94.69 42.305 95.9 42.005 97.3 42.005C98.7 42.015 99.91 42.315 100.95 42.905C101.98 43.505 102.5 44.205 102.51 45.015C102.51 45.055 102.51 45.095 102.5 45.135Z" stroke="white" stroke-linejoin="round"/><path d="M67.9803 11.295V31.295L67.1403 31.785L59.8203 27.555L49.8203 21.775L67.9803 11.295Z" stroke="white" stroke-linejoin="round"/><path d="M89.9105 23.955L79.8605 29.765L72.5905 33.955L67.9805 31.295V11.295L89.9105 23.955Z" stroke="white" stroke-linejoin="round"/><path d="M102.51 45.015C102.51 45.015 102.51 45.095 102.5 45.135C102.46 45.895 101.95 46.555 100.97 47.115C99.9901 47.685 98.8501 47.975 97.5301 48.005H97.3301C95.9401 48.005 94.7201 47.705 93.6801 47.105C92.6501 46.505 92.1301 45.805 92.1201 44.995C92.1201 44.195 92.6301 43.495 93.6601 42.895C94.6901 42.305 95.9001 42.005 97.3001 42.005C98.7001 42.015 99.9101 42.315 100.95 42.905C101.98 43.505 102.5 44.205 102.51 45.015Z" stroke="white" stroke-linejoin="round"/><path d="M66.3496 46.005V52.325L44.5796 64.895V78.575L39.0996 81.735V61.735L61.7396 48.665L66.3496 46.005Z" stroke="white" stroke-linejoin="round"/><path d="M71.8296 49.165L67.2196 51.825L66.3496 52.325V46.005L71.8296 49.165Z" stroke="white" stroke-linejoin="round"/><path d="M62.8601 75.455V95.455L44.5801 84.895V64.895L56.4201 71.735L61.9001 74.895L62.8601 75.455Z" stroke="white" stroke-linejoin="round"/><path d="M110.62 44.715V64.715C110.62 65.765 110.25 66.775 109.49 67.735C108.74 68.705 107.73 69.545 106.45 70.285L62.8604 95.455V75.455L78.2404 66.575L82.7603 63.965L84.3803 63.025L84.9803 62.685L93.2704 57.895L102.53 52.545L106.45 50.285C106.96 49.995 107.42 49.685 107.85 49.355C108.49 48.855 109.04 48.315 109.49 47.735C110.25 46.775 110.62 45.765 110.62 44.715Z" stroke="white" stroke-linejoin="round"/><path d="M92.6199 51.945L84.3799 56.695V44.985C84.3799 45.655 84.5199 46.295 84.8099 46.905C85.3799 48.145 86.5199 49.265 88.2299 50.255C88.8999 50.635 89.5899 50.985 90.2899 51.275C90.5999 51.405 90.9199 51.525 91.2599 51.625C91.6899 51.755 92.1399 51.865 92.6199 51.945Z" stroke="white" stroke-linejoin="round"/><path d="M104.49 29.345H102.51L102.56 38.175C100.13 37.545 97.6098 37.365 94.9998 37.635C94.5798 37.675 94.1798 37.735 93.7798 37.805C91.6698 38.145 89.7998 38.795 88.1798 39.735C87.1898 40.305 86.3898 40.915 85.7898 41.575C84.8398 42.605 84.3698 43.735 84.3798 44.985V55.595L82.7598 56.525V49.185L81.8098 48.635L71.7998 42.855L79.8998 38.175L87.1698 33.985L104.49 23.985V29.345Z" stroke="white" stroke-linejoin="round"/></svg>