<svg viewBox="0 0 110 86" xmlns="http://www.w3.org/2000/svg" height="48" width="48" stroke-width="1px"  stroke-linecap="round" stroke-linejoin="round"> <path d="M22.5698 51.5779V71.5779C22.2998 66.6779 20.43 61.9679 16.95 57.4479C13.47 52.9279 8.62992 48.8779 2.41992 45.2979V25.2979C8.45992 28.7779 13.1999 32.7079 16.6499 37.0779C16.7599 37.1979 16.85 37.3279 16.95 37.4479C20.43 41.9679 22.2998 46.6779 22.5698 51.5779Z" class="pr-icon-iso-solid-stroke" stroke-linejoin="round"/> <path d="M68.0903 63.2078V83.2078C61.8303 79.5878 54.8005 76.7879 47.0005 74.7979C39.2005 72.8079 31.0603 71.7279 22.5703 71.5779V51.5779C31.0603 51.7279 39.2005 52.8079 47.0005 54.7979C54.8005 56.7879 61.8303 59.5878 68.0903 63.2078Z" class="pr-icon-iso-solid-stroke" stroke-linejoin="round"/> <path d="M106.56 14.9779V15.0279C106.56 18.2979 104.58 21.0779 100.61 23.3679C99.5298 23.9979 98.3898 24.5279 97.1798 24.9879C93.9398 26.2079 90.2397 26.8179 86.0797 26.8079C81.8797 26.7979 78.1398 26.1679 74.8598 24.9079C73.6898 24.4579 72.5699 23.9279 71.5099 23.3179C67.4999 20.9979 65.4799 18.1979 65.4699 14.9079C65.4499 11.6179 67.4298 8.81789 71.4198 6.51789C75.4098 4.21789 80.2499 3.06795 85.9499 3.07795C91.6499 3.08795 96.4999 4.25794 100.52 6.56794C104.53 8.88794 106.55 11.6979 106.56 14.9779Z" class="pr-icon-iso-solid-stroke" stroke-linejoin="round"/> <path d="M107.97 40.1779L87.48 52.0079L68.0898 63.2078C61.8298 59.5878 54.8 56.7879 47 54.7979C39.2 52.8079 31.0598 51.7279 22.5698 51.5779C22.2998 46.6779 20.43 41.9679 16.95 37.4479C16.85 37.3279 16.7599 37.1979 16.6499 37.0779C13.1999 32.7079 8.45992 28.7779 2.41992 25.2979L42.3 2.26782C48.45 5.81782 53.2399 9.85783 56.6899 14.3978C60.1399 18.9278 62 23.6878 62.27 28.6578C63.34 28.6778 64.41 28.7079 65.47 28.7579C66.38 28.7979 67.2699 28.8478 68.1699 28.9178C74.6599 29.3578 80.92 30.3479 86.97 31.8779C93.81 33.6079 99.99 35.9278 105.53 38.8378C106.36 39.2678 107.17 39.7179 107.97 40.1779Z" class="pr-icon-iso-solid-stroke" stroke-linejoin="round"/> <path d="M107.97 40.1777V60.1777L68.0898 83.2077V63.2077L87.48 52.0078L107.97 40.1777Z" class="pr-icon-iso-solid-stroke" stroke-linejoin="round"/> <path d="M106.56 15.0277V34.9777C106.57 36.3477 106.23 37.6377 105.53 38.8377C99.9898 35.9277 93.8097 33.6077 86.9697 31.8777C80.9197 30.3477 74.6597 29.3577 68.1697 28.9177C67.2697 28.8477 66.3797 28.7978 65.4697 28.7578V14.9077C65.4797 18.1977 67.4998 20.9977 71.5098 23.3177C72.5698 23.9277 73.6896 24.4577 74.8596 24.9077C78.1396 26.1677 81.8796 26.7977 86.0796 26.8077C90.2396 26.8177 93.9397 26.2077 97.1797 24.9877C98.3897 24.5277 99.5296 23.9977 100.61 23.3677C104.58 21.0777 106.56 18.2977 106.56 15.0277Z" class="pr-icon-iso-solid-stroke" stroke-linejoin="round"/>
</svg>