<svg width="24" height="24" viewBox="0 0 101 80" xmlns="http://www.w3.org/2000/svg" stroke-width="1px"  stroke-linecap="round" stroke-linejoin="round"> <path d="M15.8401 57.502V77.502L2.8501 70.002V50.002L15.8401 57.502Z" class="pr-icon-iso-solid-stroke" stroke-linejoin="round"/> <path d="M56.78 46.3623V66.3623L45.96 60.1123V40.1123L56.78 46.3623Z" class="pr-icon-iso-solid-stroke" stroke-linejoin="round"/> <path d="M98.9902 9.06218V9.08218C98.9902 11.0222 97.8202 12.6822 95.4602 14.0322C93.0902 15.4022 90.2202 16.0822 86.8402 16.0722C83.4602 16.0722 80.5702 15.3822 78.1902 14.0022C75.8102 12.6322 74.6102 10.9622 74.6002 9.01219C74.5902 7.06219 75.7702 5.40218 78.1402 4.03218C80.5002 2.67218 83.3802 1.99219 86.7602 1.99219C90.1402 2.00219 93.0202 2.69218 95.4002 4.06218C97.7902 5.44218 98.9802 7.10218 98.9902 9.06218Z" class="pr-icon-iso-solid-stroke" stroke-linejoin="round"/> <path d="M91.2101 26.4922L78.1901 34.0022L73.8901 36.4922L56.7801 46.3622L45.9601 40.1122L28.6401 50.1122L15.8401 57.5022L2.8501 50.0022L22.1401 38.8622L32.9701 32.6122L22.1401 26.3622L56.5701 6.49219L74.6001 16.9022L83.7701 22.2022L91.2101 26.4922Z" class="pr-icon-iso-solid-stroke" stroke-linejoin="round"/> <path d="M91.2103 26.4922V46.4922L56.7803 66.3622V46.3622L73.8903 36.4922L78.1902 34.0022L91.2103 26.4922Z" class="pr-icon-iso-solid-stroke" stroke-linejoin="round"/> <path d="M98.9901 9.0822V29.0622C99.0001 31.0122 97.8301 32.6722 95.4601 34.0322C94.1901 34.7622 92.7801 35.3022 91.2101 35.6322V26.4922L83.7701 22.2022L74.6001 16.9022V9.01221C74.6101 10.9622 75.8101 12.6322 78.1901 14.0022C80.5701 15.3822 83.4601 16.0722 86.8401 16.0722C90.2201 16.0822 93.0901 15.4022 95.4601 14.0322C97.8201 12.6822 98.9901 11.0222 98.9901 9.0822Z" class="pr-icon-iso-solid-stroke" stroke-linejoin="round"/> <path d="M45.9603 40.1123V60.1123L15.8403 77.5023V57.5023L28.6403 50.1123L45.9603 40.1123Z" class="pr-icon-iso-solid-stroke" stroke-linejoin="round"/> <path d="M32.9701 32.6123L22.1401 38.8623V26.3623L32.9701 32.6123Z" class="pr-icon-iso-solid-stroke" stroke-linejoin="round"/>
</svg>