<svg width="48" height="48" viewBox="0 0 120 92" fill="#229EFF" xmlns="http://www.w3.org/2000/svg" stroke-width="1px" stroke-linecap="round" stroke-linejoin="round"><path d="M74.2495 63.4805V83.4805L64.4795 89.1205V69.1205L67.6695 67.2805L74.2495 63.4805Z" stroke="white" stroke-linejoin="round"/><path d="M117.07 38.7505C111.05 36.2405 105.23 33.6306 99.6197 30.9106C94.0197 28.2006 88.5897 25.3206 83.3297 22.2906C78.0797 19.2606 73.0997 16.1206 68.3997 12.8806C63.6897 9.65055 59.1597 6.29055 54.8097 2.81055L41.7597 10.3405C37.4197 8.88055 32.7797 8.32053 27.8397 8.67053C22.8897 9.01053 18.6797 10.1906 15.1997 12.2006C11.6597 14.2506 9.58972 16.7005 8.98972 19.5505C8.86972 20.1005 8.81973 20.6405 8.81973 21.1805C8.81973 23.4405 9.83974 25.5705 11.8897 27.5905L8.81973 29.3605L2.21973 33.1705C4.37973 34.8905 6.57973 36.5905 8.81973 38.2505C8.95973 38.3605 9.10974 38.4706 9.25974 38.5706C11.3997 40.1606 13.5897 41.7205 15.8097 43.2505C20.1897 46.2605 24.8197 49.2005 29.6797 52.0305C30.0297 52.2405 30.3897 52.4505 30.7397 52.6505C35.9997 55.6805 41.4297 58.5605 47.0297 61.2805C52.6397 63.9905 58.4597 66.6105 64.4797 69.1205L67.6697 67.2805L74.2497 63.4806C76.3697 64.2006 78.5697 64.7005 80.8297 64.9905C80.8697 64.9905 80.9097 65.0005 80.9597 65.0005C83.2697 65.2905 85.6597 65.3506 88.1197 65.1906C93.0397 64.8606 97.2597 63.6705 100.81 61.6205C104.33 59.5905 106.39 57.1706 106.96 54.3506C106.96 54.3306 106.97 54.3205 106.97 54.3005C107.04 53.9505 107.09 53.5806 107.12 53.2306V52.3705C107.01 50.2405 105.97 48.2206 104.02 46.2906L117.07 38.7505ZM20.1397 19.5205C20.6197 18.4505 21.5697 17.5106 22.9797 16.6906C24.3397 15.9106 25.9297 15.3805 27.7797 15.1105C29.6197 14.8305 31.5097 14.8405 33.4497 15.1405L20.2097 22.7906C19.6797 21.6706 19.6597 20.5805 20.1397 19.5205ZM68.8497 52.0005L65.4697 53.9506C61.5797 52.6006 57.8897 51.1705 54.3897 49.6705C51.5197 48.4405 48.7897 47.1105 46.1797 45.6805C45.5997 45.3705 45.0297 45.0506 44.4697 44.7306C41.6297 43.0906 39.0097 41.3606 36.6197 39.5406C36.3897 39.3706 36.1697 39.2005 35.9497 39.0305C34.6497 38.0205 33.3797 36.9705 32.1397 35.9005C31.7797 35.5705 31.4097 35.2505 31.0497 34.9205C30.2197 34.1905 29.3997 33.4306 28.5997 32.6606L35.1997 28.8506L36.6197 28.0305C37.0497 28.4605 37.4797 28.8805 37.9197 29.3005C39.7997 31.1205 41.7497 32.8506 43.7897 34.5106C45.9997 36.3206 48.4497 38.0205 51.1497 39.6405C51.4897 39.8505 51.8497 40.0506 52.1997 40.2606C53.0397 40.7506 53.8997 41.2205 54.7697 41.6805C57.1397 42.9305 59.6197 44.0805 62.2197 45.1505C65.7797 46.6105 69.5397 48.0005 73.4897 49.3105L68.8497 52.0005ZM80.9297 45.0205C77.0497 43.6705 73.3597 42.2405 69.8597 40.7405C66.3597 39.2405 63.0497 37.5905 59.9397 35.8005C57.0997 34.1605 54.4797 32.4305 52.0897 30.6105C51.8597 30.4405 51.6397 30.2706 51.4197 30.1006C50.1297 29.0906 48.8597 28.0405 47.6197 26.9605C46.4097 25.9205 45.2297 24.8406 44.0697 23.7306L52.0897 19.1006C54.3597 21.3806 56.7497 23.5405 59.2497 25.5805C61.7497 27.6205 64.5597 29.5305 67.6697 31.3305C70.7897 33.1305 74.1197 34.7606 77.6897 36.2206C81.2497 37.6806 85.0097 39.0706 88.9597 40.3806L84.5097 42.9506L80.9297 45.0205ZM95.7297 54.3405C95.2797 55.4205 94.3797 56.3506 93.0297 57.1306C91.6097 57.9506 89.9797 58.5005 88.1397 58.7705C87.0697 58.9305 85.9697 59.0005 84.8597 58.9605C84.0697 58.9405 83.2697 58.8705 82.4597 58.7405L83.1397 58.3506L95.7097 51.0905C96.1697 52.1705 96.1697 53.2605 95.7297 54.3405Z" stroke="white" stroke-linejoin="round"/><path d="M33.4494 15.141L20.2094 22.791C19.6794 21.671 19.6594 20.581 20.1394 19.521C20.6194 18.451 21.5694 17.511 22.9794 16.691C24.3394 15.911 25.9294 15.381 27.7794 15.111C29.6194 14.831 31.5094 14.841 33.4494 15.141Z" stroke="white" stroke-linejoin="round"/><path d="M95.73 54.3408C95.28 55.4208 94.38 56.3508 93.03 57.1308C91.61 57.9508 89.98 58.5008 88.14 58.7708C87.07 58.9308 85.97 59.0008 84.86 58.9608C84.07 58.9408 83.27 58.8708 82.46 58.7408L83.14 58.3508L95.71 51.0908C96.17 52.1708 96.17 53.2608 95.73 54.3408Z" stroke="white" stroke-linejoin="round"/><path d="M73.4901 49.3103L68.8501 52.0003L65.4701 53.9503C61.5801 52.6003 57.8901 51.1703 54.3901 49.6703C51.5201 48.4403 48.7901 47.1103 46.1801 45.6803C45.6001 45.3703 45.0301 45.0503 44.4701 44.7303C41.6301 43.0903 39.0101 41.3603 36.6201 39.5403V28.0303C37.0501 28.4603 37.4801 28.8803 37.9201 29.3003C39.8001 31.1203 41.7501 32.8503 43.7901 34.5103C46.0001 36.3203 48.4501 38.0203 51.1501 39.6403C51.4901 39.8503 51.8501 40.0503 52.2001 40.2603C53.0401 40.7503 53.9001 41.2203 54.7701 41.6803C57.1401 42.9303 59.6201 44.0803 62.2201 45.1503C65.7801 46.6103 69.5401 48.0003 73.4901 49.3103Z" stroke="white" stroke-linejoin="round"/><path d="M36.6196 28.0303V39.5403C36.3896 39.3703 36.1696 39.2003 35.9496 39.0303C34.6496 38.0203 33.3796 36.9703 32.1396 35.9003C31.7796 35.5703 31.4096 35.2503 31.0496 34.9203C30.2196 34.1903 29.3996 33.4303 28.5996 32.6603L35.1996 28.8503L36.6196 28.0303Z" stroke="white" stroke-linejoin="round"/><path d="M52.0893 19.1006V30.6106C51.8593 30.4406 51.6393 30.2706 51.4193 30.1006C50.1293 29.0906 48.8593 28.0406 47.6193 26.9606C46.4093 25.9206 45.2293 24.8406 44.0693 23.7306L52.0893 19.1006Z" stroke="white" stroke-linejoin="round"/><path d="M88.9598 40.3806L84.5099 42.9506L80.9298 45.0206C77.0498 43.6706 73.3598 42.2406 69.8598 40.7406C66.3598 39.2406 63.0498 37.5906 59.9398 35.8006C57.0998 34.1606 54.4798 32.4306 52.0898 30.6106V19.1006C54.3598 21.3806 56.7498 23.5406 59.2498 25.5806C61.7498 27.6206 64.5599 29.5306 67.6699 31.3306C70.7899 33.1306 74.1198 34.7606 77.6898 36.2206C81.2498 37.6806 85.0098 39.0706 88.9598 40.3806Z" stroke="white" stroke-linejoin="round"/><path d="M106.97 74.3004C106.41 77.1404 104.35 79.5805 100.81 81.6205C97.26 83.6705 93.04 84.8605 88.12 85.1905C83.21 85.5105 78.59 84.9405 74.25 83.4805V63.4805C76.37 64.2005 78.57 64.7004 80.83 64.9904C80.86 65.0004 80.9 65.0104 80.93 65.0204L80.96 65.0005C83.27 65.2905 85.66 65.3505 88.12 65.1905C93.04 64.8605 97.26 63.6705 100.81 61.6205C104.33 59.5905 106.39 57.1705 106.96 54.3505C106.96 54.3305 106.97 54.3204 106.97 54.3004C107.04 53.9504 107.09 53.5805 107.12 53.2305V54.4204L107.08 64.5204L107.06 71.7704C107.17 72.6004 107.14 73.4404 106.97 74.3004Z" stroke="white" stroke-linejoin="round"/><path d="M117.07 38.751V58.751L107.08 64.521L107.11 54.421V53.231V52.371C107 50.241 105.96 48.221 104.01 46.291L117.06 38.751H117.07Z" stroke="white" stroke-linejoin="round"/><path d="M64.4797 69.1209V89.1209C58.4597 86.6109 52.6397 83.9909 47.0297 81.2809C41.4297 78.5609 35.9997 75.6809 30.7397 72.6509C25.4897 69.6209 20.5097 66.4809 15.8097 63.2509C11.0997 60.0109 6.56973 56.6509 2.21973 53.1709V33.1709C4.37973 34.8909 6.57973 36.5909 8.81973 38.2509C8.95973 38.3609 9.10974 38.4709 9.25974 38.5709C11.3997 40.1609 13.5897 41.7209 15.8097 43.2509C20.1897 46.2609 24.8197 49.2009 29.6797 52.0309C30.0297 52.2409 30.3897 52.4509 30.7397 52.6509C35.9997 55.6809 41.4297 58.5609 47.0297 61.2809C52.6397 63.9909 58.4597 66.6109 64.4797 69.1209Z" stroke="white" stroke-linejoin="round"/><path d="M11.8893 27.5907L8.81934 29.3607V21.1807C8.81934 23.4407 9.83934 25.5707 11.8893 27.5907Z" stroke="white" stroke-linejoin="round"/></svg>