<svg width="24" height="24" viewBox="0 0 120 92" xmlns="http://www.w3.org/2000/svg" stroke-width="1px"  stroke-linecap="round" stroke-linejoin="round"> <path d="M117.5 71.99V73.49C117.54 72.98 117.54 72.49 117.5 71.99Z" class="pr-icon-iso-solid-stroke" stroke-linejoin="round"/> <path d="M117.5 53.4899V73.4899C117.18 77.7699 114.38 81.4299 109.1 84.4799C103.48 87.7199 96.7001 89.3398 88.7501 89.3198C80.8001 89.3098 74.0001 87.6699 68.3501 84.4099C62.6901 81.1399 59.8501 77.2099 59.8301 72.6299V52.6299C59.8401 54.3299 60.2301 55.9298 61.0101 57.4498C61.9601 59.2998 63.4901 61.0099 65.5901 62.5999C66.4201 63.2199 67.3401 63.8199 68.3501 64.4099C70.1901 65.4699 72.1601 66.3698 74.2501 67.0798C78.5601 68.5698 83.4001 69.3098 88.7501 69.3198C94.0501 69.3298 98.8201 68.6199 103.08 67.1799C105.22 66.4599 107.22 65.5599 109.1 64.4799C110.01 63.9499 110.85 63.4098 111.61 62.8398C115.27 60.1498 117.24 57.0299 117.5 53.4899Z" class="pr-icon-iso-solid-stroke" stroke-linejoin="round"/> <path d="M54.1404 37.4401V57.4401L47.4004 53.54V33.54L54.1404 37.4401Z" class="pr-icon-iso-solid-stroke" stroke-linejoin="round"/> <path d="M76.5606 37.4799C74.9306 37.8699 73.4406 38.3599 72.0806 38.9399C71.8406 39.0399 71.6106 39.1499 71.3806 39.2499C70.2806 39.7599 69.2306 40.2899 68.2206 40.8799C62.6006 44.1199 59.8006 48.0399 59.8306 52.6299V57.4498H54.1406V37.4399L68.2906 37.4698H76.5606V37.4799Z" class="pr-icon-iso-solid-stroke" stroke-linejoin="round"/> <path d="M110.61 42.1299L110.51 23.0699L92.5199 12.69L84.39 17.3799L99.1099 25.8699L99.16 35.29L84.39 26.7599L51.7399 7.90997C46.0799 4.63997 39.28 2.99993 31.34 2.98993C23.39 2.96993 16.6099 4.5899 10.9899 7.8299C5.36994 11.0799 2.56995 14.9899 2.58995 19.5799C2.60995 23.3499 4.53994 26.68 8.35994 29.56C9.18994 30.18 10.0999 30.7799 11.1099 31.3599C12.9499 32.4199 14.9199 33.31 17.0199 34.03C20.1699 35.11 23.6199 35.8099 27.3599 36.1299C27.7899 36.1599 28.22 36.1899 28.66 36.2199C34.83 36.5799 40.53 35.8799 45.79 34.1199C46.33 33.9399 46.8699 33.74 47.3999 33.54L54.14 37.44L68.29 37.4699H76.56C74.93 37.8699 73.4399 38.36 72.0799 38.94C71.8399 39.04 71.61 39.1499 71.38 39.2499C70.28 39.7599 69.23 40.2899 68.22 40.8799C62.6 44.1199 59.7999 48.0399 59.8299 52.6299C59.8399 54.3299 60.23 55.9299 61.01 57.4499C61.96 59.2999 63.49 61.0099 65.59 62.5999C66.42 63.2199 67.34 63.82 68.35 64.41C70.19 65.47 72.16 66.3699 74.25 67.0799C78.56 68.5699 83.4 69.3099 88.75 69.3199C94.05 69.3299 98.8199 68.62 103.08 67.18C105.22 66.46 107.22 65.5599 109.1 64.4799C110.01 63.9499 110.85 63.4099 111.61 62.8399C115.27 60.1499 117.24 57.0299 117.5 53.4899C117.81 49.2199 115.52 45.4299 110.61 42.1299ZM46.94 23.9L35.4899 17.29L27.3599 21.9799L29.1799 23.03L38.81 28.5899C35.49 29.4799 32.04 29.76 28.47 29.42C28.09 29.38 27.7199 29.34 27.3599 29.29C24.2699 28.88 21.5599 28.01 19.2399 26.67C18.3899 26.18 17.64 25.6699 17 25.1299C15.08 23.4999 14.1199 21.6599 14.1099 19.5999C14.0899 16.8599 15.78 14.51 19.16 12.55C22.55 10.6 26.6199 9.62994 31.3699 9.62994C36.1299 9.63994 40.2099 10.6299 43.6099 12.5999C46.1999 14.0899 47.79 15.87 48.38 17.93C48.97 19.99 48.49 21.98 46.94 23.9ZM100.92 59.7599C97.56 61.6999 93.51 62.68 88.78 62.68H88.54C83.86 62.65 79.84 61.6599 76.47 59.7099C75.61 59.2099 74.85 58.69 74.2 58.15C73.95 57.92 73.7 57.6899 73.48 57.4699C72.06 56.0199 71.35 54.42 71.34 52.65C71.33 49.9 73.0099 47.5499 76.3999 45.5999C77.4399 44.9899 78.55 44.4799 79.73 44.0699C82.36 43.1299 85.3199 42.67 88.6099 42.68C90.7599 42.68 92.77 42.89 94.64 43.29C96.91 43.78 98.98 44.56 100.85 45.64C104.25 47.61 105.97 49.9599 105.98 52.7099C105.99 55.4499 104.31 57.7999 100.92 59.7599Z" class="pr-icon-iso-solid-stroke" stroke-linejoin="round"/> <path d="M105.98 52.7098C105.99 55.4498 104.31 57.7998 100.92 59.7598C97.5599 61.6998 93.5099 62.6798 88.7799 62.6798H88.5399C83.8599 62.6498 79.8399 61.6598 76.4699 59.7098C75.6099 59.2098 74.8499 58.6898 74.1999 58.1498C73.9499 57.9198 73.6999 57.6898 73.4799 57.4698C72.0599 56.0198 71.3499 54.4198 71.3399 52.6498C71.3299 49.8998 73.0099 47.5498 76.3999 45.5998C77.4399 44.9898 78.5499 44.4797 79.7299 44.0697C82.3599 43.1297 85.3199 42.6698 88.6099 42.6798C90.7599 42.6798 92.7699 42.8898 94.6399 43.2898C96.9099 43.7798 98.9799 44.5598 100.85 45.6398C104.25 47.6098 105.97 49.9598 105.98 52.7098Z" class="pr-icon-iso-solid-stroke" stroke-linejoin="round"/> <path d="M38.8104 28.59C35.4904 29.48 32.0404 29.76 28.4704 29.42C28.0904 29.38 27.7204 29.34 27.3604 29.29V21.98L29.1804 23.03L38.8104 28.59Z" class="pr-icon-iso-solid-stroke" stroke-linejoin="round"/> <path d="M46.9396 23.8999L35.4896 17.2899L27.3596 21.9799V29.2899C24.2696 28.8799 21.5596 28.0099 19.2396 26.6699C18.3896 26.1799 17.6396 25.6699 16.9996 25.1299C15.0796 23.4999 14.1196 21.6599 14.1096 19.5999C14.0896 16.8599 15.7796 14.5099 19.1596 12.5499C22.5496 10.5999 26.6196 9.62988 31.3696 9.62988C36.1296 9.63988 40.2096 10.6299 43.6096 12.5999C46.1996 14.0899 47.7896 15.8699 48.3796 17.9299C48.9696 19.9899 48.4896 21.9799 46.9396 23.8999Z" class="pr-icon-iso-solid-stroke" stroke-linejoin="round"/> <path d="M99.1596 35.2899L84.3896 26.7599V17.3799L99.1096 25.8699L99.1596 35.2899Z" class="pr-icon-iso-solid-stroke" stroke-linejoin="round"/> <path d="M47.3998 33.5399V53.5399C41.6998 55.7299 35.4599 56.6198 28.6599 56.2198C21.8699 55.8098 16.0198 54.1899 11.1098 51.3599C5.45983 48.0999 2.61984 44.1698 2.58984 39.5798V19.5798C2.60984 23.3498 4.53983 26.6799 8.35983 29.5599C9.18983 30.1799 10.0998 30.7799 11.1098 31.3599C12.9498 32.4199 14.9198 33.3099 17.0198 34.0299C20.1698 35.1099 23.6198 35.8099 27.3598 36.1299C27.7898 36.1599 28.2199 36.1898 28.6599 36.2198C34.8299 36.5798 40.5299 35.8799 45.7899 34.1199C46.3299 33.9399 46.8698 33.7399 47.3998 33.5399Z" class="pr-icon-iso-solid-stroke" stroke-linejoin="round"/>
</svg>