<svg width="24" height="24" viewBox="0 0 101 96" xmlns="http://www.w3.org/2000/svg" stroke-width="1px"  stroke-linecap="round" stroke-linejoin="round"> <path d="M98.7802 67.4181C92.0802 70.0981 84.9802 71.9281 77.5002 72.8781C71.3702 73.6681 64.9902 73.8781 58.3502 73.5081C43.5902 72.6981 30.9502 69.2481 20.4102 63.1581C14.3502 59.6581 9.81019 55.7181 6.80019 51.3281C6.01019 50.1781 5.32019 49.0181 4.74019 47.8481C3.10019 44.5881 2.2702 41.2981 2.2502 37.9581C2.2302 33.4281 3.7002 28.9781 6.6602 24.5981C9.6202 20.2281 14.1102 16.2981 20.1402 12.8181C30.6102 6.77809 43.2002 3.3781 57.9102 2.6381C72.6202 1.8981 86.1302 3.96809 98.4602 8.84809C90.0602 12.1981 83.5202 16.4381 78.8402 21.5581C78.2902 22.1581 77.7802 22.7581 77.2902 23.3681C73.6402 27.9681 71.8302 32.8781 71.8602 38.0881C71.8802 41.5181 72.6902 44.8081 74.3102 47.9881C75.4702 50.2681 77.0402 52.4881 79.0202 54.6381C83.7602 59.7781 90.3502 64.0381 98.7802 67.4181Z" class="pr-icon-iso-solid-stroke" stroke-linejoin="round"/> <path d="M98.78 67.4181V87.4181C86.58 92.2981 73.1 94.3281 58.35 93.5081C43.59 92.6981 30.95 89.2481 20.41 83.1581C14.35 79.6581 9.80999 75.7181 6.79999 71.3281C3.79999 66.9481 2.28 62.4881 2.25 57.9581V37.9581C2.27 41.2981 3.09999 44.5881 4.73999 47.8481C5.31999 49.0181 6.00999 50.1781 6.79999 51.3281C9.80999 55.7181 14.35 59.6581 20.41 63.1581C30.95 69.2481 43.59 72.6981 58.35 73.5081C64.99 73.8781 71.37 73.6681 77.5 72.8781C84.98 71.9281 92.08 70.0981 98.78 67.4181Z" class="pr-icon-iso-solid-stroke" stroke-linejoin="round"/> <path d="M98.4602 8.84808V28.8481C90.0602 32.1981 83.5202 36.4381 78.8402 41.5581C76.9402 43.6381 75.4202 45.7781 74.3102 47.9881C72.6902 44.8081 71.8802 41.5181 71.8602 38.0881C71.8302 32.8781 73.6403 27.9681 77.2903 23.3681C77.7803 22.7581 78.2902 22.1581 78.8402 21.5581C83.5202 16.4381 90.0602 12.1981 98.4602 8.84808Z" class="pr-icon-iso-solid-stroke" stroke-linejoin="round"/>
</svg>