<svg width="24" height="24" viewBox="0 0 134 99" xmlns="http://www.w3.org/2000/svg" stroke-width="1px"  stroke-linecap="round" stroke-linejoin="round"> <path d="M65.4494 24.0995L65.5794 24.1696V24.0195L65.4494 24.0995ZM51.5394 32.1296L51.6794 32.2095V32.0496L51.5394 32.1296ZM37.6394 40.1495L37.7694 40.2296V40.0795L37.6394 40.1495ZM34.4294 58.2996V58.3696H34.5594L34.4294 58.2996Z" class="pr-icon-iso-solid-stroke" stroke-linejoin="round"/> <path d="M13.4395 46.2495V66.2495L13.3994 60.2094L2.93945 60.1895V40.1895L13.3994 40.2094L13.4395 46.2495Z" class="pr-icon-iso-solid-stroke" stroke-linejoin="round"/> <path d="M101.809 55.8195V75.8195C100.989 74.4095 99.8695 73.0794 98.4695 71.8394C97.1595 70.6794 95.6695 69.5994 93.9995 68.6194V62.4995C93.9995 61.7895 93.9094 61.0994 93.7594 60.4294C93.0194 57.3894 90.6794 54.7094 86.7094 52.4194C82.7494 50.1294 78.1194 48.7794 72.8394 48.3594C71.7794 48.2694 70.6794 48.2194 69.5594 48.2094V42.5294L62.0394 38.1895L51.6794 32.2094V24.1694L58.4995 28.1094L65.5794 32.1995L93.6595 48.4094C95.4695 49.4494 97.0695 50.5994 98.4695 51.8394C99.8695 53.0794 100.989 54.4095 101.809 55.8195Z" class="pr-icon-iso-solid-stroke" stroke-linejoin="round"/> <path d="M34.4294 58.2998V58.3698H34.5594L34.4294 58.2998Z" class="pr-icon-iso-solid-stroke" stroke-linejoin="round"/> <path d="M93.7595 60.43C93.0195 57.39 90.6795 54.71 86.7095 52.42C82.7495 50.13 78.1196 48.78 72.8396 48.36C71.7796 48.27 70.6796 48.22 69.5596 48.21H69.2496C66.0396 48.21 63.0496 48.51 60.2796 49.13C59.3696 49.33 58.4896 49.56 57.6296 49.83C55.5796 50.47 53.6695 51.3 51.8895 52.33L51.8295 52.36C50.5795 53.08 49.4895 53.84 48.5695 54.65C47.6595 55.43 46.8996 56.26 46.3096 57.13C45.1896 58.75 44.6395 60.52 44.6495 62.41C44.6495 63.06 44.7195 63.7 44.8595 64.33C45.1095 65.45 45.5695 66.52 46.2595 67.53C47.4295 69.31 49.2695 70.93 51.7695 72.4C51.8195 72.43 51.8796 72.47 51.9396 72.5C56.0396 74.86 60.8396 76.23 66.3496 76.6C67.3396 76.67 68.3595 76.71 69.3995 76.71C76.1995 76.72 82.0095 75.34 86.8195 72.56C86.8395 72.55 86.8596 72.54 86.8796 72.52C89.3796 71.07 91.2295 69.45 92.3995 67.68C93.4695 66.1 93.9996 64.39 93.9996 62.55V62.5C93.9996 61.79 93.9095 61.1 93.7595 60.43ZM66.3496 65.54L58.9595 65.51V63.41L58.9195 57.36H60.5896L66.3295 57.32L66.3496 60.68V61.25H67.3595L69.5596 61.27L81.4595 61.37H83.0896L83.0996 62.31L83.1195 65.61L66.3496 65.54Z" class="pr-icon-iso-solid-stroke" stroke-linejoin="round"/> <path d="M83.1194 65.61L66.3494 65.54V61.25L67.3593 61.26L69.5594 61.27L81.4594 61.37L83.0894 61.38L83.0994 62.31L83.1194 65.61Z" class="pr-icon-iso-solid-stroke" stroke-linejoin="round"/> <path d="M66.3495 60.6798V65.5398L58.9594 65.5098L58.9494 63.4098L58.9194 57.3598L60.5894 57.3498L66.3294 57.3198L66.3495 60.6798Z" class="pr-icon-iso-solid-stroke" stroke-linejoin="round"/> <path d="M68.9995 2.0498L2.93945 40.1898L13.3994 40.2098L13.4395 46.2498L23.8994 46.2698V48.0798L23.9294 52.3098L34.3894 52.3298V54.1398L34.4294 58.2998L34.5594 58.3698H35.4695C36.1595 56.4298 37.2794 54.6198 38.8394 52.9398L38.9194 52.8598C40.4594 51.2198 42.4394 49.7098 44.8294 48.3198C44.8494 48.3098 44.8694 48.2998 44.8894 48.2898C45.5094 47.9298 46.0995 47.6098 46.6595 47.3198C47.2395 47.0198 47.8794 46.7298 48.5694 46.4698L48.1295 46.2198L37.7694 40.2298L37.6394 40.1498L30.8194 36.2098L37.7694 32.1998L44.5995 36.1398L51.6794 40.2298L57.6295 43.6598C59.4895 43.2798 61.3595 42.9998 63.2495 42.8298C63.3595 42.8098 63.4794 42.7998 63.5894 42.7898C65.5994 42.6098 67.5894 42.5198 69.5594 42.5298L62.0394 38.1898L51.6794 32.2098L51.5394 32.1298L44.7195 28.1898L51.6794 24.1698L58.4995 28.1098L65.5794 32.1998L93.6595 48.4098C95.4695 49.4498 97.0695 50.5998 98.4695 51.8398C99.8695 53.0798 100.989 54.4098 101.809 55.8198L114.649 48.4098L131.969 38.4098L68.9995 2.0498ZM104.149 42.3498L100.609 44.3898L65.5794 24.1698L65.4494 24.0998L58.6295 20.1598L65.5794 16.1398L107.569 40.3798L104.149 42.3498Z" class="pr-icon-iso-solid-stroke" stroke-linejoin="round"/> <path d="M65.5794 16.1396V24.0197L65.4494 24.0997L58.6294 20.1597L65.5794 16.1396Z" class="pr-icon-iso-solid-stroke" stroke-linejoin="round"/> <path d="M51.6795 24.1699V32.0499L51.5395 32.1299L44.7195 28.1899L51.6795 24.1699Z" class="pr-icon-iso-solid-stroke" stroke-linejoin="round"/> <path d="M107.569 40.3797L104.149 42.3497L100.609 44.3896L65.5793 24.1697V16.1396L107.569 40.3797Z" class="pr-icon-iso-solid-stroke" stroke-linejoin="round"/> <path d="M131.97 38.4097V58.4097L101.81 75.8197V55.8197L114.65 48.4097L131.97 38.4097Z" class="pr-icon-iso-solid-stroke" stroke-linejoin="round"/> <path d="M93.9994 62.5498V82.4998C94.0194 86.4298 91.6194 89.7798 86.8194 92.5598C82.0094 95.3398 76.1994 96.7198 69.3994 96.7098C62.5994 96.6898 56.7794 95.2898 51.9394 92.4998C47.0994 89.6998 44.6694 86.3398 44.6494 82.4098V64.1998L44.8594 64.3298C45.1094 65.4498 45.5694 66.5198 46.2594 67.5298C47.4294 69.3098 49.2694 70.9298 51.7694 72.3998C51.8194 72.4298 51.8794 72.4698 51.9394 72.4998C56.0394 74.8598 60.8394 76.2298 66.3494 76.5998C67.3394 76.6698 68.3594 76.7098 69.3994 76.7098C76.1994 76.7198 82.0094 75.3398 86.8194 72.5598C86.8394 72.5498 86.8594 72.5398 86.8794 72.5198C89.3794 71.0698 91.2294 69.4498 92.3994 67.6798C93.4694 66.0998 93.9994 64.3898 93.9994 62.5498Z" class="pr-icon-iso-solid-stroke" stroke-linejoin="round"/> <path d="M23.9294 52.31V72.31L23.8994 66.27L13.4395 66.25V46.25L23.8994 46.27L23.9095 48.08L23.9294 52.31Z" class="pr-icon-iso-solid-stroke" stroke-linejoin="round"/> <path d="M34.4294 58.2996V78.3696L34.3894 72.3295L23.9294 72.3096V52.3096L34.3894 52.3295L34.3994 54.1395L34.4294 58.2996Z" class="pr-icon-iso-solid-stroke" stroke-linejoin="round"/> <path d="M35.4695 58.3696H34.4294V78.3696H35.4695V58.3696Z" class="pr-icon-iso-solid-stroke" stroke-linejoin="round"/> <path d="M48.5695 46.4697V54.6497C47.6595 55.4297 46.8995 56.2598 46.3095 57.1298C45.1895 58.7498 44.6395 60.5197 44.6495 62.4097V68.4297C42.2995 69.8097 40.3595 71.3098 38.8395 72.9398C37.2795 74.6198 36.1595 76.4298 35.4695 78.3698V58.3698C36.1595 56.4298 37.2795 54.6198 38.8395 52.9398L38.9195 52.8597C40.4595 51.2197 42.4395 49.7098 44.8295 48.3198C44.8495 48.3098 44.8695 48.2997 44.8895 48.2897C45.5095 47.9297 46.0995 47.6098 46.6595 47.3198C47.2395 47.0198 47.8795 46.7297 48.5695 46.4697Z" class="pr-icon-iso-solid-stroke" stroke-linejoin="round"/> <path d="M69.5594 42.53V48.21H69.2494C66.0394 48.21 63.0494 48.5101 60.2794 49.1301C59.3694 49.3301 58.4894 49.56 57.6294 49.83V43.6601C59.4894 43.2801 61.3594 43 63.2494 42.83C63.3594 42.81 63.4794 42.8001 63.5894 42.7901C65.5994 42.6101 67.5894 42.52 69.5594 42.53Z" class="pr-icon-iso-solid-stroke" stroke-linejoin="round"/> <path d="M37.7693 32.1997V40.0797L37.6393 40.1497L30.8193 36.2097L37.7693 32.1997Z" class="pr-icon-iso-solid-stroke" stroke-linejoin="round"/> <path d="M57.6295 43.6597V49.8297C55.5795 50.4697 53.6695 51.2997 51.8895 52.3297L51.8295 52.3597C50.5795 53.0797 49.4895 53.8397 48.5695 54.6497V46.4697L48.1295 46.2197L37.7695 40.2297V32.1997L44.5995 36.1396L51.6795 40.2297L57.6295 43.6597Z" class="pr-icon-iso-solid-stroke" stroke-linejoin="round"/>
</svg>