<svg width="24" height="24" viewBox="0 0 124 78" xmlns="http://www.w3.org/2000/svg" stroke-width="1px"  stroke-linecap="round" stroke-linejoin="round"> <path d="M74.6301 45.92C74.6301 45.92 74.6201 45.94 74.6201 45.95H75.0601V43.85C75.0601 44.53 74.9201 45.22 74.6301 45.92ZM85.7 52.97L85.77 53.01V52.93L85.7 52.97Z" class="pr-icon-iso-solid-stroke" stroke-linejoin="round"/> <path d="M122 45.59V65.59L114.78 69.76V49.76L115.52 49.33L121.93 45.63L122 45.59Z" class="pr-icon-iso-solid-stroke" stroke-linejoin="round"/> <path d="M93.03 49.72V69.72L85.77 65.53V45.53L92.1899 49.23L93.03 49.72Z" class="pr-icon-iso-solid-stroke" stroke-linejoin="round"/> <path d="M75.05 45.95V63.85C75.05 64.53 74.9101 65.22 74.6201 65.92C73.9701 67.53 72.6201 68.92 70.5701 70.1L60.46 75.94V55.94L67.04 52.14L70.5701 50.1C72.6101 48.93 73.9501 47.55 74.6101 45.95H75.05Z" class="pr-icon-iso-solid-stroke" stroke-linejoin="round"/> <path d="M121.93 45.55V45.63L122 45.59L121.93 45.55Z" class="pr-icon-iso-solid-stroke" stroke-linejoin="round"/> <path d="M111.09 39.3L121.93 45.55V45.63L115.52 49.33L114.78 49.76L113.93 49.27L103.88 43.47L93.78 49.29L93.03 49.72L92.1899 49.23L85.77 45.53L96.6101 39.27L94.24 37.9L85.7 32.97L92.9299 28.8L93.1201 28.91L95.2 30.11L103.82 35.1L114.67 28.84L121.93 33.04L111.09 39.3Z" class="pr-icon-iso-solid-stroke" stroke-linejoin="round"/> <path d="M95.1999 14.17V14.22C95.1999 17.47 93.2199 20.24 89.2699 22.52C88.1599 23.16 86.9799 23.72 85.7399 24.17C82.5299 25.37 78.88 25.96 74.8 25.95C70.66 25.94 66.9699 25.33 63.7299 24.09C62.5199 23.64 61.3799 23.09 60.2899 22.47C56.2899 20.16 54.2799 17.37 54.2599 14.09C54.2399 10.81 56.2199 8.03001 60.1999 5.74001C64.1699 3.44001 68.9898 2.3 74.6698 2.31C80.3398 2.32 85.1798 3.48001 89.1798 5.79001C93.1798 8.10001 95.1899 10.89 95.1999 14.17Z" class="pr-icon-iso-solid-stroke" stroke-linejoin="round"/> <path d="M75.05 43.85C75.05 44.53 74.9101 45.22 74.6201 45.92C74.6201 45.93 74.6101 45.94 74.6101 45.95C73.9501 47.55 72.6101 48.93 70.5701 50.1L67.04 52.14L60.46 55.94L22.4001 33.96L2.31006 22.36L12.4199 16.53C14.4699 15.34 16.8801 14.56 19.6501 14.19C22.4301 13.81 25.1501 13.86 27.8101 14.36C33.4301 15.45 38.64 16.84 43.45 18.54C47.31 19.9 50.91 21.47 54.25 23.23C55.07 23.65 55.8699 24.1 56.6599 24.55C57.5999 25.09 58.5101 25.65 59.3901 26.22C62.2601 28.07 64.8201 30.06 67.0801 32.18C70.0201 34.96 72.4401 37.97 74.3301 41.22C74.8101 42.08 75.05 42.96 75.05 43.85Z" class="pr-icon-iso-solid-stroke" stroke-linejoin="round"/> <path d="M60.46 55.94V75.94L2.31006 42.36V22.36L22.4099 33.96L60.46 55.94Z" class="pr-icon-iso-solid-stroke" stroke-linejoin="round"/> <path d="M75.0601 43.85V43.5" class="pr-icon-iso-solid-stroke" stroke-linejoin="round"/> <path d="M75.0601 63.96V63.85" class="pr-icon-iso-solid-stroke" stroke-linejoin="round"/> <path d="M95.2 14.22V30.11L93.1201 28.91L92.9299 28.8L85.7 32.97V44.19C82.57 45.35 79.0201 45.93 75.0601 45.95V43.85C75.0601 42.96 74.8201 42.08 74.3401 41.22C72.4501 37.97 70.0301 34.96 67.0901 32.18C64.8301 30.06 62.2701 28.07 59.4001 26.22C58.5201 25.65 57.6099 25.09 56.6699 24.55C55.8799 24.1 55.08 23.65 54.26 23.23V14.09C54.28 17.37 56.29 20.16 60.29 22.47C61.38 23.09 62.52 23.64 63.73 24.09C66.97 25.33 70.66 25.94 74.8 25.95C78.88 25.95 82.53 25.37 85.74 24.17C86.98 23.72 88.16 23.16 89.27 22.52C93.22 20.24 95.2 17.47 95.2 14.22Z" class="pr-icon-iso-solid-stroke" stroke-linejoin="round"/> <path d="M96.6101 39.27L85.77 45.53V52.93L85.7 52.97V32.97L94.24 37.9L96.6101 39.27Z" class="pr-icon-iso-solid-stroke" stroke-linejoin="round"/> <path d="M103.88 43.47V63.47L93.03 69.72V49.72L93.78 49.29L103.88 43.47Z" class="pr-icon-iso-solid-stroke" stroke-linejoin="round"/> <path d="M114.78 49.76V69.76L103.88 63.47V43.47L113.93 49.27L114.78 49.76Z" class="pr-icon-iso-solid-stroke" stroke-linejoin="round"/> <path d="M121.93 33.04V45.55L111.09 39.3L121.93 33.04Z" class="pr-icon-iso-solid-stroke" stroke-linejoin="round"/>
</svg>