<svg width="24" height="24" viewBox="0 0 118 90" xmlns="http://www.w3.org/2000/svg" stroke-width="1px"  stroke-linecap="round" stroke-linejoin="round"> <path d="M77.42 35.4781V55.4781C77.42 55.8681 77.3901 56.2581 77.3401 56.6481C77.1001 58.8281 76.5 60.9681 75.54 63.0881C74.57 65.2081 74.0001 67.3781 73.8301 69.5881C73.6501 72.2381 73.46 74.9081 73.26 77.6081C73.05 80.3081 71.32 82.6081 68.07 84.4881C65.12 86.1781 61.61 87.0981 57.53 87.2381C53.45 87.3781 49.99 86.6281 47.15 84.9881C43.75 83.0281 40.66 80.9181 37.88 78.6581C35.11 76.4081 32.02 74.2981 28.62 72.3381C25.21 70.3681 21.56 68.5881 17.66 66.9881C13.75 65.3781 10.1 63.5981 6.70005 61.6381C3.86005 59.9981 2.56002 57.9981 2.80002 55.6381V36.6781C2.98002 38.5881 4.29005 40.2481 6.70005 41.6381C9.91005 43.4881 13.34 45.1781 17 46.7081C17.22 46.8081 17.44 46.8981 17.66 46.9881C21.56 48.5881 25.21 50.3681 28.62 52.3381C32.02 54.2981 35.11 56.4081 37.88 58.6581C40.66 60.9181 43.75 63.0281 47.15 64.9881C49.99 66.6281 53.45 67.3781 57.53 67.2381C61.61 67.0981 65.12 66.1781 68.07 64.4881C71.32 62.6081 73.05 60.3081 73.26 57.6081C73.46 54.9081 73.6501 52.2381 73.8301 49.5881C73.8601 49.2581 73.89 48.9281 73.93 48.5981C74.18 46.7281 74.71 44.8881 75.54 43.0881C76.2 41.6281 76.69 40.1581 77.01 38.6781C77.16 38.0081 77.2701 37.3281 77.3401 36.6481C77.3901 36.2581 77.42 35.8681 77.42 35.4781Z" class="pr-icon-iso-solid-stroke" stroke-linejoin="round"/> <path d="M115.62 42.5881V42.638C115.62 44.668 114.38 46.418 111.91 47.898C111.84 47.948 111.77 47.9881 111.7 48.0281C109.07 49.5481 105.93 50.2981 102.29 50.2881C98.64 50.2881 95.5 49.5181 92.85 47.9881C90.21 46.4581 88.88 44.6481 88.87 42.5481C88.86 41.1481 89.4301 39.888 90.5801 38.748C91.1701 38.168 91.9 37.6181 92.79 37.1081C95.42 35.5881 98.5601 34.8381 102.2 34.8481C105.85 34.8481 108.99 35.618 111.64 37.148C112.42 37.608 113.09 38.0881 113.64 38.5881C114.95 39.7781 115.61 41.1081 115.62 42.5881Z" class="pr-icon-iso-solid-stroke" stroke-linejoin="round"/> <path d="M77.42 35.248V35.4781C77.42 35.8681 77.3901 36.258 77.3401 36.648C77.2701 37.328 77.16 38.0081 77.01 38.6781C76.69 40.1581 76.2 41.6281 75.54 43.0881C74.71 44.8881 74.1801 46.7281 73.9301 48.5981C73.8901 48.9281 73.8601 49.2581 73.8301 49.5881C73.6501 52.2381 73.46 54.9081 73.26 57.6081C73.05 60.3081 71.3201 62.6081 68.0701 64.4881C65.1201 66.1781 61.61 67.0981 57.53 67.2381C53.45 67.3781 49.99 66.6281 47.15 64.9881C43.75 63.0281 40.66 60.9181 37.88 58.6581C35.11 56.4081 32.02 54.2981 28.62 52.3381C25.21 50.3681 21.56 48.5881 17.66 46.9881C17.44 46.8981 17.22 46.808 17 46.708C13.34 45.178 9.91007 43.488 6.70007 41.638C4.29007 40.248 2.98005 38.5881 2.80005 36.6781V35.638C3.04005 33.288 4.63008 31.258 7.58008 29.558C10.8301 27.678 14.8 26.678 19.48 26.558C23.74 26.448 27.97 26.358 32.15 26.258C32.56 26.248 32.96 26.2381 33.37 26.2281C33.47 26.2281 33.56 26.2281 33.66 26.2181C37.33 26.1481 40.9201 25.8481 44.4401 25.2981C47.8001 24.7881 51.2601 24.4681 54.8101 24.3481C55.0701 24.3281 55.34 24.328 55.6 24.318C56.71 24.268 57.82 24.2581 58.91 24.2881C60.7 24.3281 62.4601 24.4781 64.2001 24.7381C64.2901 24.7381 64.3701 24.758 64.4601 24.768C65.7201 24.958 66.91 25.228 68.03 25.578C69.48 26.018 70.8 26.5881 72.01 27.2781C74.15 28.5181 75.6401 29.9581 76.4601 31.5881C77.0601 32.7781 77.38 33.998 77.42 35.248Z" class="pr-icon-iso-solid-stroke" stroke-linejoin="round"/> <path d="M2.80002 36.6781V35.6381C2.76002 35.9881 2.76002 36.3381 2.80002 36.6781Z" class="pr-icon-iso-solid-stroke" stroke-linejoin="round"/> <path d="M113.64 24.0881V24.1081C113.64 26.2081 112.33 28.0181 109.71 29.5281C107.08 31.0481 103.95 31.7981 100.3 31.7981C96.7001 31.7881 93.5801 31.0381 90.9601 29.5381C90.9301 29.5181 90.9001 29.5081 90.8701 29.4881C90.8001 29.4481 90.7301 29.4081 90.6601 29.3581C88.8401 28.2781 87.6801 27.0481 87.1801 25.6781C86.9801 25.1581 86.8901 24.6081 86.8801 24.0481C86.8701 21.9381 88.1801 20.1281 90.8101 18.6081C90.8601 18.5781 90.9101 18.5481 90.9601 18.5281C93.5601 17.0681 96.6402 16.3381 100.22 16.3481C103.86 16.3481 107.01 17.1181 109.65 18.6481C112.3 20.1781 113.63 21.9881 113.64 24.0881Z" class="pr-icon-iso-solid-stroke" stroke-linejoin="round"/> <path d="M90.9601 10.998V11.018C90.9601 13.108 89.65 14.9181 87.03 16.4281C84.4 17.9481 81.26 18.708 77.62 18.698C73.97 18.688 70.83 17.918 68.18 16.398C65.54 14.868 64.2101 13.048 64.2001 10.948C64.1801 8.84803 65.49 7.03804 68.12 5.51804C70.75 3.99804 73.89 3.23802 77.53 3.24802C81.18 3.25802 84.3201 4.01807 86.9701 5.54807C89.6201 7.07807 90.9401 8.88802 90.9601 10.998Z" class="pr-icon-iso-solid-stroke" stroke-linejoin="round"/> <path d="M58.9101 9.84808V9.89807C58.9101 11.9881 57.6 13.7781 54.99 15.2881C52.36 16.7981 49.2201 17.5581 45.5801 17.5481C41.9301 17.5481 38.7901 16.778 36.1401 15.248C33.4901 13.718 32.1701 11.9081 32.1501 9.7981C32.1401 7.6981 33.4501 5.88804 36.0801 4.36804C38.7101 2.84804 41.85 2.09808 45.49 2.09808C49.14 2.10808 52.2801 2.87808 54.9301 4.40808C57.5701 5.92808 58.9001 7.74808 58.9101 9.84808Z" class="pr-icon-iso-solid-stroke" stroke-linejoin="round"/> <path d="M58.91 9.89807V24.2881C57.82 24.2581 56.71 24.2681 55.6 24.3181C55.34 24.3281 55.0701 24.3281 54.8101 24.3481C51.2601 24.4681 47.8001 24.7881 44.4401 25.2981C40.9201 25.8481 37.33 26.1481 33.66 26.2181C33.56 26.2281 33.47 26.2281 33.37 26.2281C32.96 26.2381 32.56 26.2481 32.15 26.2581V9.7981C32.17 11.9081 33.49 13.718 36.14 15.248C38.79 16.778 41.9301 17.5481 45.5801 17.5481C49.2201 17.5581 52.36 16.7981 54.99 15.2881C57.6 13.7781 58.91 11.9881 58.91 9.89807Z" class="pr-icon-iso-solid-stroke" stroke-linejoin="round"/> <path d="M90.9601 11.0181V18.5281C90.9101 18.5481 90.8601 18.5781 90.8101 18.6081C88.1801 20.1281 86.87 21.9381 86.88 24.0481V36.5081C84.28 37.9781 81.19 38.7081 77.62 38.6981C77.55 38.6981 77.48 38.698 77.42 38.688V35.248C77.38 33.998 77.0601 32.7781 76.4601 31.5881C75.6401 29.9581 74.15 28.5181 72.01 27.2781C70.8 26.5881 69.48 26.0181 68.03 25.5781C66.91 25.2281 65.7201 24.9581 64.4601 24.7681C64.3701 24.7581 64.2901 24.7381 64.2001 24.7381V10.9481C64.2101 13.0481 65.5401 14.8681 68.1801 16.3981C70.8301 17.9181 73.97 18.6881 77.62 18.6981C81.26 18.7081 84.4 17.9481 87.03 16.4281C89.65 14.9181 90.9601 13.1081 90.9601 11.0181Z" class="pr-icon-iso-solid-stroke" stroke-linejoin="round"/> <path d="M113.64 24.1081V38.5881C113.09 38.0881 112.42 37.6081 111.64 37.1481C108.99 35.6181 105.85 34.8481 102.2 34.8481C98.5601 34.8381 95.42 35.5881 92.79 37.1081C91.9 37.6181 91.1701 38.168 90.5801 38.748C89.4301 39.888 88.86 41.1481 88.87 42.5481V48.0681C87.55 46.8681 86.89 45.5281 86.88 44.0481V25.498C86.88 25.498 86.9401 25.5281 86.9701 25.5481C87.0401 25.5881 87.1101 25.6281 87.1801 25.6781C87.6801 27.0481 88.84 28.2781 90.66 29.3581C90.73 29.4081 90.8 29.4481 90.87 29.4881C90.9 29.5081 90.9301 29.5181 90.9601 29.5381C93.5801 31.0381 96.7 31.7881 100.3 31.7981C103.95 31.7981 107.08 31.0481 109.71 29.5281C112.33 28.0181 113.64 26.2081 113.64 24.1081Z" class="pr-icon-iso-solid-stroke" stroke-linejoin="round"/> <path d="M115.62 42.6381V62.5881C115.64 64.6981 114.33 66.5081 111.7 68.0281C109.07 69.5481 105.93 70.2981 102.29 70.2881C98.64 70.2881 95.5 69.5181 92.85 67.9881C90.21 66.4581 88.88 64.6481 88.87 62.5481V42.5481C88.88 44.6481 90.21 46.4581 92.85 47.9881C95.5 49.5181 98.64 50.2881 102.29 50.2881C105.93 50.2981 109.07 49.5481 111.7 48.0281C111.77 47.9881 111.84 47.9481 111.91 47.8981C114.38 46.4181 115.62 44.6681 115.62 42.6381Z" class="pr-icon-iso-solid-stroke" stroke-linejoin="round"/>
</svg>