<svg width="48" height="48" viewBox="0 0 91 96" fill="#229EFF" xmlns="http://www.w3.org/2000/svg" stroke-width="1px" stroke-linecap="round" stroke-linejoin="round"><path d="M88.4608 73.4061H88.3508L73.5708 73.3761H64.1808L43.2208 73.3261L25.5608 73.2961L25.6508 64.7461H28.3708L49.3308 64.7861L63.1208 64.8161L17.9108 38.7161L12.2508 35.4461C10.2508 34.2861 8.55079 33.0661 7.16079 31.7661C3.97079 28.8161 2.37079 25.4961 2.35079 21.8061C2.32079 16.5161 5.57079 11.9761 12.1008 8.20609C18.6408 4.43609 26.4908 2.55609 35.6608 2.57609C44.8308 2.59609 52.7108 4.49609 59.2808 8.29609L61.9108 9.81611L51.4608 15.8461L48.8308 14.3261C45.1508 12.2061 40.7708 11.1361 35.7108 11.1261C30.6408 11.1161 26.2808 12.1661 22.6208 14.2761C18.9608 16.3961 17.1408 18.9061 17.1608 21.8361C17.1608 23.0961 17.5108 24.2861 18.1908 25.3861C19.1008 26.8561 20.6008 28.2061 22.7008 29.4161L27.5308 32.2061L73.5708 58.7861L73.5908 37.0661L88.2608 37.0961L88.4608 73.4061Z" stroke="white" stroke-linejoin="round"/><path d="M61.9109 9.8161V29.8161L51.4609 35.8461V15.8461L61.9109 9.8161Z" stroke="white" stroke-linejoin="round"/><path d="M51.4603 15.8461V35.8461L48.8303 34.3261C45.1503 32.2061 40.7703 31.1361 35.7103 31.1261C32.7403 31.1161 30.0103 31.4761 27.5303 32.2061L22.7003 29.4161C20.6003 28.2061 19.1003 26.8561 18.1903 25.3861C17.5103 24.2861 17.1603 23.0961 17.1603 21.8361C17.1403 18.9061 18.9603 16.3961 22.6203 14.2761C26.2803 12.1661 30.6403 11.1161 35.7103 11.1261C40.7703 11.1261 45.1503 12.2061 48.8303 14.3261L51.4603 15.8461Z" stroke="white" stroke-linejoin="round"/><path d="M63.1206 64.8161L49.3306 64.7861L28.3706 64.7561L12.2506 55.4461C5.68058 51.6461 2.38059 47.1061 2.35059 41.8061V21.8061C2.37059 25.4961 3.97058 28.8161 7.16058 31.7661C8.55058 33.0661 10.2506 34.2861 12.2506 35.4461L17.9106 38.7161L63.1206 64.8161Z" stroke="white" stroke-linejoin="round"/><path d="M88.4606 73.4061V93.4061L25.5605 93.2961V73.2961L43.2206 73.3261L64.1806 73.3661L73.5706 73.3761L88.3506 73.4061H88.4606Z" stroke="white" stroke-linejoin="round"/></svg>