<svg width="48" height="48" viewBox="0 0 125 82" xmlns="http://www.w3.org/2000/svg" stroke-width="1px"  stroke-linecap="round" stroke-linejoin="round"> <path d="M122.19 36.9892V37.0092C122.19 39.1992 120.84 41.0792 118.13 42.6392C115.42 44.2092 112.16 44.9892 108.34 44.9792C104.53 44.9792 101.26 44.1792 98.5302 42.6092C96.9702 41.7092 95.8502 40.7092 95.1902 39.6092C95.1602 39.5792 95.1502 39.5492 95.1302 39.5192C94.6502 38.7092 94.4102 37.8492 94.4102 36.9392C94.4102 36.0292 94.6402 35.1692 95.1102 34.3592C95.1302 34.3092 95.1602 34.2692 95.1902 34.2192C95.8502 33.1392 96.9402 32.1592 98.4602 31.2792C101.18 29.7192 104.44 28.9392 108.26 28.9392C112.07 28.9492 115.34 29.7392 118.07 31.3192C120.81 32.8992 122.18 34.7892 122.19 36.9892Z" class="pr-icon-iso-solid-stroke" stroke-linejoin="round"/> <path d="M95.1902 29.3891V34.2191C95.1602 34.2691 95.1302 34.3091 95.1102 34.3591C94.6402 35.1691 94.4102 36.0291 94.4102 36.9391V49.3891H93.9602V44.3891L67.4602 44.2991H67.4102V29.3391H68.4102L76.0802 29.3591L95.1902 29.3891Z" class="pr-icon-iso-solid-stroke" stroke-linejoin="round"/> <path d="M122.19 37.0092V56.9892C122.2 59.1892 120.85 61.0692 118.13 62.6392C115.42 64.2092 112.16 64.9892 108.34 64.9792C104.53 64.9792 101.26 64.1792 98.5302 62.6092C95.7902 61.0292 94.4202 59.1392 94.4102 56.9392V36.9392C94.4102 37.8492 94.6502 38.7092 95.1302 39.5192C95.1502 39.5492 95.1602 39.5792 95.1902 39.6092C95.8502 40.7092 96.9702 41.7092 98.5302 42.6092C101.26 44.1792 104.53 44.9792 108.34 44.9792C112.16 44.9892 115.42 44.2092 118.13 42.6392C120.84 41.0792 122.19 39.1992 122.19 37.0092Z" class="pr-icon-iso-solid-stroke" stroke-linejoin="round"/> <path d="M67.4602 44.2992H67.4102L45.1402 44.2192L36.7702 44.1892L30.6002 47.7492L23.4102 51.8992L30.5402 56.0192L30.6002 56.0492L36.8502 59.6592L93.9602 59.7192V44.3892L67.4602 44.2992ZM84.7002 54.3692L76.2802 54.4092L76.2602 49.6892H84.7602L84.7002 54.3692Z" class="pr-icon-iso-solid-stroke" stroke-linejoin="round"/> <path d="M84.7607 49.6992L84.7007 54.3692L76.2808 54.4092L76.2607 49.6892L84.7607 49.6992Z" class="pr-icon-iso-solid-stroke" stroke-linejoin="round"/> <path d="M30.6004 37.1691V47.7491L23.4104 51.899V63.889C21.4404 64.509 19.2504 64.8191 16.8304 64.8191C13.0204 64.8091 9.75039 64.0191 7.02039 62.4391C4.29039 60.8591 2.91039 58.969 2.90039 56.769V36.769C2.91039 38.969 4.29039 40.8591 7.02039 42.4391C9.75039 44.0191 13.0204 44.8091 16.8304 44.8191C20.6504 44.8191 23.9104 44.0391 26.6304 42.4791C28.7404 41.2491 30.0204 39.809 30.4404 38.139C30.5204 37.809 30.5804 37.4891 30.6004 37.1691Z" class="pr-icon-iso-solid-stroke" stroke-linejoin="round"/> <path d="M36.8502 59.6592V79.6592L23.4102 71.8992V51.8992L30.5402 56.0192L30.6002 56.0492L36.8502 59.6592Z" class="pr-icon-iso-solid-stroke" stroke-linejoin="round"/> <path d="M95.1904 29.3892L76.0804 29.3592L68.4104 29.3392H67.4104L67.4604 24.0092H70.5704L79.3904 24.0292L76.2104 22.1892L68.4104 17.6892C66.5004 18.2192 64.5204 18.4892 62.4504 18.4792C60.3804 18.4792 58.3904 18.2092 56.4804 17.6692L48.5804 22.2292L29.2704 33.3792C30.1204 34.4292 30.5604 35.5292 30.6004 36.6592C30.6004 36.6992 30.6104 36.7392 30.6004 36.7692V37.0392C30.6004 37.0392 30.6104 37.1292 30.6004 37.1692C30.5804 37.4892 30.5204 37.8092 30.4404 38.1392C30.0204 39.8092 28.7404 41.2492 26.6304 42.4792C23.9104 44.0392 20.6504 44.8192 16.8304 44.8192C13.0204 44.8092 9.75039 44.0192 7.02039 42.4392C4.29039 40.8592 2.91039 38.9692 2.90039 36.7692C2.90039 34.5692 4.24039 32.6892 6.96039 31.1192C9.07039 29.8992 11.5604 29.1692 14.4204 28.9392C17.2804 28.7092 20.0204 28.9392 22.6304 29.6392L48.5804 14.6492L49.9204 13.8792C49.0304 12.7692 48.5804 11.6092 48.5804 10.4092C48.5804 9.98918 48.6404 9.5592 48.7504 9.1192C49.1804 7.4492 50.4504 6.00918 52.5704 4.78918C55.2804 3.21918 58.5504 2.43921 62.3604 2.43921C66.1704 2.44921 69.4404 3.23921 72.1804 4.81921C74.3104 6.04921 75.5904 7.49919 76.0404 9.16919C76.1304 9.50919 76.1904 9.8492 76.2104 10.1792V10.7292C76.1604 11.8292 75.7404 12.8992 74.9204 13.9292L76.2104 14.6692L85.9004 20.2692L85.8704 13.3792L95.1004 13.3492L95.1904 29.3892Z" class="pr-icon-iso-solid-stroke" stroke-linejoin="round"/> <path d="M79.3902 24.0292L70.5702 24.0192L68.4102 24.0092V17.6892L76.2102 22.1892L79.3902 24.0292Z" class="pr-icon-iso-solid-stroke" stroke-linejoin="round"/> <path d="M68.4105 17.6892V24.0092H67.4605L67.4105 29.3392V37.9392C65.8105 38.3092 64.1605 38.4892 62.4505 38.4792C60.3805 38.4792 58.3905 38.2092 56.4805 37.6692V17.6692C58.3905 18.2092 60.3805 18.4792 62.4505 18.4792C64.5205 18.4892 66.5005 18.2192 68.4105 17.6892Z" class="pr-icon-iso-solid-stroke" stroke-linejoin="round"/> <path d="M56.4805 17.6692V37.6692L45.1405 44.2192L36.7705 44.1892L30.6005 47.7492V37.1692C30.6005 37.1692 30.6105 37.0892 30.6005 37.0392C30.6105 36.9492 30.6105 36.8592 30.6005 36.7692C30.6105 36.7392 30.6005 36.6992 30.6005 36.6592C30.5605 35.5292 30.1205 34.4292 29.2705 33.3792L48.5805 22.2292L56.4805 17.6692Z" class="pr-icon-iso-solid-stroke" stroke-linejoin="round"/> <path d="M48.5801 14.6492V10.4092V10.2292" class="pr-icon-iso-solid-stroke" stroke-linejoin="round"/> <path d="M93.9606 59.7192V79.7192L36.8506 79.6592V59.6592L93.9606 59.7192Z" class="pr-icon-iso-solid-stroke" stroke-linejoin="round"/> <path d="M76.2099 10.7292V14.6693L74.9199 13.9293C75.7399 12.8993 76.1599 11.8292 76.2099 10.7292Z" class="pr-icon-iso-solid-stroke" stroke-linejoin="round"/>
</svg>