<svg width="48" height="48" viewBox="0 0 112 87" xmlns="http://www.w3.org/2000/svg" stroke-width="1px"  stroke-linecap="round" stroke-linejoin="round"> <path d="M49.3698 69.5423V67.0623C49.3298 67.9123 49.3298 68.7423 49.3698 69.5423Z" class="pr-icon-iso-solid-stroke" stroke-linejoin="round"/> <path d="M64.7102 54.2023V58.4223C64.5702 58.4023 64.4402 58.3823 64.3102 58.3623C64.1702 58.3323 64.0402 58.3023 63.9102 58.2823V49.8723C63.9802 50.7723 64.0702 51.5823 64.1902 52.3123C64.2202 52.5323 64.2602 52.7323 64.3102 52.9323C64.3702 53.2023 64.4401 53.4623 64.5201 53.7023C64.5801 53.8823 64.6402 54.0423 64.7102 54.2023Z" class="pr-icon-iso-solid-stroke" stroke-linejoin="round"/> <path d="M89.3599 51.0323V69.6423C89.3999 70.3023 89.2099 70.9423 88.7899 71.5623C88.2799 72.3223 87.51 72.9923 86.48 73.5923C85.45 74.1823 84.28 74.6123 82.96 74.8723C81.64 75.1423 80.27 75.2223 78.83 75.1123L77.48 75.0222V59.6323C77.47 58.8723 76.9799 58.2123 75.9999 57.6423C75.0299 57.0823 73.8799 56.8023 72.5599 56.7923C71.2399 56.7923 70.0899 57.0723 69.1199 57.6323C68.1499 58.1923 66.9999 58.4723 65.6799 58.4723C65.3499 58.4723 65.02 58.4523 64.71 58.4223V54.2023L78.83 55.1123C80.27 55.2223 81.64 55.1423 82.96 54.8723C82.98 54.8723 82.9899 54.8723 83.0099 54.8723C84.3099 54.6123 85.46 54.1823 86.48 53.6023C87.51 53.0023 88.2799 52.3323 88.7899 51.5723C88.9099 51.3923 89.01 51.2123 89.1 51.0323H89.3599Z" class="pr-icon-iso-solid-stroke" stroke-linejoin="round"/> <path d="M65.5389 7.02225C64.8789 6.57225 64.059 6.33225 63.089 6.30225C61.589 6.23225 60.1589 6.33226 58.7789 6.59226C57.4089 6.85226 56.179 7.30228 55.089 7.92228C54.059 8.52228 53.2889 9.23225 52.7789 10.0523C52.3989 10.6723 52.209 11.2823 52.209 11.9023C52.209 12.1123 52.2289 12.3323 52.2789 12.5423L54.7589 25.5623C55.4389 25.3023 56.1189 25.0223 56.7789 24.7423C57.4289 24.4623 58.0489 24.1623 58.6189 23.8323L61.449 22.1923L59.589 12.1023C59.869 11.4123 60.069 11.0323 60.189 10.9623C60.529 10.7623 60.9289 10.6323 61.3889 10.5723C61.8489 10.5023 62.1889 10.4723 62.4189 10.4723C63.4489 10.5423 64.339 10.3923 65.089 10.0323C65.829 9.66226 66.2589 9.18226 66.3689 8.59226C66.3889 8.51226 66.3889 8.42226 66.3889 8.34226C66.3889 7.84226 66.1089 7.41225 65.5389 7.02225ZM61.1589 26.3123C61.2489 26.3023 61.349 26.3023 61.449 26.3023V26.1623C61.359 26.2123 61.2589 26.2623 61.1589 26.3123Z" class="pr-icon-iso-solid-stroke" stroke-linejoin="round"/> <path d="M109.719 19.9523C109.719 21.4723 108.809 22.7623 106.979 23.8223C106.009 24.3823 104.879 24.8023 103.589 25.0823C102.849 25.2423 102.089 25.3323 101.309 25.3623C100.729 25.3923 100.129 25.3823 99.5189 25.3423H99.4989L88.1489 24.7423L87.0189 24.6823L84.959 24.5723L85.9989 23.9723L88.1489 22.7323L91.6489 20.7123L99.5189 21.1323L100.169 21.1723C100.459 21.2023 100.729 21.2023 100.989 21.1523C101.099 21.1323 101.209 21.1023 101.309 21.0623C101.449 21.0223 101.589 20.9523 101.719 20.8723C102.169 20.6123 102.419 20.3023 102.439 19.9623C102.469 19.6123 102.249 19.3023 101.789 19.0423C101.619 18.9423 101.459 18.8423 101.309 18.7523C100.619 18.3023 100.099 17.8323 99.719 17.3423C99.589 17.1723 99.5189 17.0023 99.5189 16.8223C99.5189 16.3923 99.9289 15.9323 100.739 15.4623C100.929 15.3523 101.119 15.2523 101.309 15.1723C102.249 14.7523 103.139 14.6423 104.009 14.8723C105.039 15.1323 106.019 15.5323 106.939 16.0623C108.779 17.1323 109.709 18.4223 109.719 19.9523Z" class="pr-icon-iso-solid-stroke" stroke-linejoin="round"/> <path d="M96.1896 39.7423V39.9023C96.1796 40.2523 96.1096 40.5923 95.9596 40.9423C95.8796 41.1523 95.7595 41.3723 95.6195 41.5823C95.1095 42.3823 94.3396 43.0723 93.3096 43.6623C92.4096 44.1823 91.3796 44.5823 90.1996 44.8523C90.0196 44.9023 89.8395 44.9323 89.6595 44.9723C88.2595 45.2523 86.8395 45.3423 85.3995 45.2423L77.7495 44.7423L69.4196 44.1923L65.3396 43.9323L64.3096 43.8623C64.4796 43.1623 64.6795 42.4723 64.8995 41.7723C65.1295 41.0823 65.3796 40.3823 65.6696 39.6923L69.4196 39.9323L71.9696 40.1023L84.3895 40.9123L84.9496 40.9423L86.1495 41.0223C86.4395 41.0523 87.0696 40.9223 88.0496 40.6223C88.1596 40.5623 88.4196 40.2123 88.8096 39.5823C88.6996 38.9923 88.9695 38.4623 89.6195 38.0223C90.2795 37.5723 91.1295 37.3223 92.1595 37.2523C93.1895 37.1923 94.0796 37.3423 94.8296 37.7023C95.5796 38.0723 96.0095 38.5523 96.1295 39.1523C96.1695 39.3523 96.1896 39.5423 96.1896 39.7423Z" class="pr-icon-iso-solid-stroke" stroke-linejoin="round"/> <path d="M89.3591 49.6723V49.9123C89.3491 50.2823 89.2592 50.6622 89.0992 51.0222C89.0092 51.2022 88.9092 51.3822 88.7892 51.5622C88.2792 52.3222 87.5092 52.9922 86.4792 53.5922C85.4592 54.1722 84.3092 54.6023 83.0092 54.8623C82.9892 54.8623 82.9792 54.8623 82.9592 54.8623C81.6392 55.1323 80.2692 55.2123 78.8292 55.1023L64.7092 54.1923C64.6392 54.0323 64.5792 53.8723 64.5192 53.6923C64.4392 53.4523 64.3692 53.1923 64.3092 52.9223C64.2592 52.7223 64.2192 52.5222 64.1892 52.3022C64.0692 51.5722 63.9792 50.7623 63.9092 49.8623L64.3092 49.8923L68.3892 50.1723L69.4192 50.2422L74.5092 50.5922L79.4991 50.9322C79.7791 50.9722 80.3892 50.8522 81.2992 50.5922C81.3292 50.5722 81.3592 50.5623 81.3792 50.5423C81.6292 50.3823 81.7992 50.2223 81.8992 50.0423C82.0092 49.8423 82.0692 49.6822 82.0692 49.5522C81.9492 48.9522 82.2192 48.4323 82.8792 47.9823C83.5392 47.5423 84.3792 47.2823 85.4092 47.2223C86.4492 47.1523 87.3192 47.3123 88.0392 47.6923C88.7592 48.0823 89.1792 48.5723 89.2992 49.1623C89.3292 49.3323 89.3591 49.4923 89.3591 49.6623V49.6723Z" class="pr-icon-iso-solid-stroke" stroke-linejoin="round"/> <path d="M88.1493 6.12225C88.1493 6.55225 87.7393 7.01227 86.9293 7.48227C85.7893 8.14227 84.6993 8.34227 83.6593 8.07227C82.6293 7.81227 81.6494 7.41226 80.7294 6.88226C80.2694 6.61226 79.7194 6.49226 79.0894 6.53226C78.4594 6.56226 77.9493 6.69227 77.5493 6.92227C77.3193 7.05227 77.1593 7.19225 77.0793 7.34225C76.9893 7.49225 76.9793 7.65226 77.0393 7.81226L77.8394 12.7323L71.1393 16.6023L69.8093 8.20227C69.7593 7.98227 69.7393 7.76227 69.7393 7.54227C69.7393 6.95227 69.9193 6.38225 70.2693 5.84225C70.7493 5.09225 71.4793 4.44226 72.4493 3.88226C74.2793 2.82226 76.5193 2.30225 79.1593 2.30225C81.7993 2.31225 84.0393 2.84225 85.8793 3.90225C86.7993 4.44225 87.4893 5.00226 87.9493 5.60226C88.0793 5.77226 88.1493 5.94225 88.1493 6.12225Z" class="pr-icon-iso-solid-stroke" stroke-linejoin="round"/> <path d="M49.1095 12.1923V12.2323C49.1095 12.3123 49.1096 12.3923 49.0896 12.4823C48.9796 13.0823 48.5496 13.5623 47.8096 13.9223C47.0696 14.2823 46.1795 14.4323 45.1395 14.3623C44.8595 14.3323 44.5095 14.3622 44.1095 14.4622C43.7095 14.5622 43.3696 14.6923 43.0796 14.8623C42.8496 14.9923 42.6796 15.1422 42.5696 15.3022C42.4496 15.4722 42.4295 15.6722 42.4895 15.9022L44.8695 27.7823C43.6695 27.9423 42.4796 28.0823 41.2996 28.1923C40.1296 28.3123 38.9396 28.4123 37.7296 28.5123L35.3496 16.3323C35.2996 16.1023 35.2695 15.8623 35.2695 15.6323C35.2695 15.0323 35.4395 14.4722 35.7595 13.9022C36.2195 13.1122 36.9595 12.4123 37.9895 11.8223C39.0195 11.2223 40.2096 10.7722 41.5496 10.4622C42.8996 10.1422 44.2896 10.0423 45.7196 10.1423C46.7596 10.2123 47.5995 10.4723 48.2695 10.9223C48.8095 11.2923 49.0895 11.7223 49.1095 12.1923Z" class="pr-icon-iso-solid-stroke" stroke-linejoin="round"/> <path d="M31.899 16.3323C31.789 16.9223 31.359 17.4223 30.619 17.8123C29.879 18.2123 28.9891 18.3823 27.9591 18.3123C27.7291 18.3123 27.4191 18.3323 27.0491 18.3823C26.6791 18.4323 26.3491 18.5423 26.0591 18.7023C25.8391 18.8323 25.6591 18.9822 25.5491 19.1522C25.4391 19.3122 25.4091 19.5122 25.4691 19.7422L27.3191 28.7422C25.7691 28.7022 24.369 28.6523 23.109 28.5823C21.839 28.5123 20.7491 28.4123 19.8291 28.2823L18.3291 20.1822C18.2791 19.9422 18.249 19.7022 18.249 19.4622C18.249 18.8822 18.3991 18.3222 18.6991 17.7722C19.1291 16.9922 19.859 16.3122 20.879 15.7122C21.909 15.1222 23.0891 14.6723 24.4091 14.3823C25.7191 14.0823 27.0991 13.9823 28.5291 14.0823C29.5691 14.1523 30.4191 14.3923 31.0791 14.8123C31.7391 15.2323 32.009 15.7323 31.899 16.3323Z" class="pr-icon-iso-solid-stroke" stroke-linejoin="round"/> <path d="M101.299 9.99225V10.0123C101.299 10.7723 100.809 11.4323 99.8494 11.9823L88.1394 18.7422L81.6494 22.4922L77.8294 24.6923L71.1294 28.5623L69.9594 29.2422L68.9694 29.8123C66.6194 31.1623 64.6594 33.1623 63.0594 35.8123C62.4594 36.8123 61.9194 37.8323 61.4394 38.8723C61.2894 39.2023 61.1494 39.5323 61.0094 39.8623C60.5694 40.9223 60.1893 42.0023 59.8693 43.1023C59.7693 43.4623 59.6694 43.8323 59.5794 44.2023C59.3494 45.2423 59.1594 46.2423 59.0394 47.2223C58.9894 47.6323 58.9494 48.0223 58.9194 48.4223C58.8094 49.7823 58.8394 51.0722 59.0194 52.3022C59.1994 53.5222 59.5693 54.5923 60.1193 55.5023C60.6393 56.3723 61.2894 57.0423 62.0994 57.5323C62.1494 57.5623 62.1893 57.5923 62.2393 57.6223C62.7493 57.9123 63.2994 58.1323 63.9094 58.2823C64.0394 58.3023 64.1694 58.3323 64.3094 58.3623C64.4394 58.3823 64.5694 58.4023 64.7094 58.4223C65.0194 58.4523 65.3494 58.4723 65.6794 58.4723C66.9994 58.4723 68.1493 58.1923 69.1193 57.6323C70.0893 57.0723 71.2394 56.7923 72.5594 56.7923C73.8794 56.8023 75.0294 57.0823 75.9994 57.6423C76.9794 58.2123 77.4695 58.8723 77.4795 59.6323C77.4795 59.9223 77.4094 60.1923 77.2794 60.4423C77.0594 60.8723 76.6394 61.2723 76.0294 61.6223C73.5094 63.0723 70.5393 63.8823 67.1193 64.0423C66.6593 64.0723 66.1894 64.0823 65.7094 64.0823C65.3694 64.0823 65.0394 64.0722 64.7094 64.0522C64.4394 64.0522 64.1694 64.0423 63.9094 64.0123C62.4594 63.9223 61.0894 63.7123 59.7994 63.3623C58.1994 62.9623 56.7193 62.3623 55.3693 61.5823C53.9893 60.7823 52.8193 59.6523 51.8693 58.1723C50.9093 56.7023 50.2294 55.0123 49.8194 53.1223C49.5794 52.0223 49.4193 50.8623 49.3593 49.6623V47.0623C49.4593 44.9123 49.8194 42.7223 50.4394 40.5123C50.7794 39.3123 50.9193 38.4523 50.8593 37.9223C50.7993 37.3923 50.5394 37.0023 50.0694 36.7323C49.6094 36.4623 48.9294 36.3123 48.0094 36.2823C47.2994 36.2523 46.2493 36.2923 44.8593 36.4023C44.4493 36.4323 44.0094 36.4722 43.5294 36.5222C43.2294 36.5522 42.9193 36.5823 42.6193 36.6023C40.9793 36.7523 39.3394 36.8623 37.7194 36.9523C36.9694 36.9923 36.2195 37.0322 35.4795 37.0522C34.3695 37.1022 33.2694 37.1323 32.1794 37.1423C31.9394 37.1423 31.7095 37.1523 31.4795 37.1523C30.0495 37.1723 28.6594 37.1623 27.3094 37.1323C25.5794 37.0923 23.8994 37.0223 22.2794 36.9223C22.0794 36.9123 21.8794 36.8923 21.6794 36.8823C21.0494 36.8323 20.4294 36.7823 19.8194 36.7223C19.7194 36.7123 19.6294 36.7023 19.5394 36.6923C19.0994 36.6523 18.6694 36.6022 18.2494 36.5522C17.2294 36.4322 16.2494 36.3023 15.3194 36.1423C14.4894 36.0123 13.6994 35.8523 12.9394 35.6923C10.3794 35.1423 8.40938 34.4723 7.02938 33.6723C4.14938 32.0123 2.70943 30.0223 2.69943 27.7023C2.67943 25.3823 4.10945 23.4023 6.96945 21.7523C7.93945 21.1923 9.07938 20.9123 10.3994 20.9123C11.7194 20.9123 12.8695 21.1923 13.8495 21.7623C14.8295 22.3223 15.3194 22.9923 15.3194 23.7523V23.7722C15.3194 24.5222 14.8293 25.1823 13.8693 25.7323C12.8993 26.3023 12.4194 26.9623 12.4194 27.7223C12.4194 28.4823 12.9194 29.1422 13.8894 29.7122C14.2894 29.9422 14.7694 30.1523 15.3194 30.3423C15.9594 30.5723 16.7094 30.7623 17.5594 30.9323C17.7794 30.9823 18.0094 31.0222 18.2494 31.0522C18.7494 31.1522 19.2694 31.2223 19.8194 31.2923C20.8294 31.4123 21.9293 31.5023 23.1093 31.5623C24.4693 31.6323 25.8694 31.6623 27.3094 31.6623C28.1294 31.6623 28.9694 31.6523 29.8194 31.6323C30.5094 31.6123 31.2094 31.5822 31.9094 31.5522C33.0094 31.5122 34.1294 31.4523 35.2594 31.3823C35.8794 31.3423 36.5094 31.2922 37.1394 31.2422C37.3294 31.2222 37.5294 31.2123 37.7194 31.1923C38.3994 31.1323 39.0695 31.0723 39.7295 31.0023C41.4695 30.8323 43.1793 30.6223 44.8593 30.3823C45.2893 30.3223 45.7294 30.2623 46.1594 30.1923C47.1594 30.0523 48.1393 29.8822 49.1093 29.7122C49.9693 29.5622 50.8294 29.4023 51.6694 29.2323C51.8494 29.1923 52.0294 29.1623 52.1994 29.1223C52.7894 29.0023 53.3594 28.8722 53.9094 28.7422C54.1894 28.6822 54.4694 28.6123 54.7494 28.5423C57.3394 27.8823 59.4794 27.1423 61.1494 26.3123C61.2394 26.3123 61.3394 26.3123 61.4394 26.3123V26.1723C61.6594 26.0623 61.8594 25.9523 62.0594 25.8323L66.3794 23.3423L69.7295 21.4023L71.1294 20.5923L77.8294 16.7323L88.1394 10.7823L92.9494 8.00226C93.9194 7.44226 95.0594 7.16226 96.3794 7.16226C97.6994 7.17226 98.8494 7.45227 99.8294 8.01227C100.809 8.58227 101.299 9.24226 101.299 10.0023V9.99225Z" class="pr-icon-iso-solid-stroke" stroke-linejoin="round"/> <path d="M89.3691 69.8423V69.6423" class="pr-icon-iso-solid-stroke" stroke-linejoin="round"/> <path d="M27.3191 28.7422V31.6623C25.8791 31.6623 24.479 31.6323 23.119 31.5623C21.939 31.5023 20.8391 31.4123 19.8291 31.2923V28.2823C20.7491 28.4123 21.839 28.5123 23.109 28.5823C24.369 28.6523 25.7691 28.7022 27.3191 28.7422Z" class="pr-icon-iso-solid-stroke" stroke-linejoin="round"/> <path d="M31.9198 31.5522C31.2198 31.5822 30.5198 31.6123 29.8298 31.6323C28.9798 31.6523 28.1398 31.6623 27.3198 31.6623V28.7422L25.4698 19.7422C25.4098 19.5122 25.4398 19.3123 25.5498 19.1523C25.6598 18.9823 25.8398 18.8323 26.0598 18.7023C26.3498 18.5423 26.6798 18.4323 27.0498 18.3823C27.4198 18.3323 27.7298 18.3123 27.9598 18.3123C28.9898 18.3823 29.8797 18.2123 30.6197 17.8123C31.3597 17.4223 31.7898 16.9223 31.8998 16.3323L31.9198 31.5522Z" class="pr-icon-iso-solid-stroke" stroke-linejoin="round"/> <path d="M19.8298 28.2823V31.2923C19.2798 31.2223 18.7597 31.1522 18.2597 31.0522V19.4622C18.2497 19.7022 18.2798 19.9423 18.3298 20.1823L19.8298 28.2823Z" class="pr-icon-iso-solid-stroke" stroke-linejoin="round"/> <path d="M37.7296 28.5123V31.1923C37.5396 31.2123 37.3395 31.2222 37.1495 31.2422C36.5195 31.2922 35.8895 31.3423 35.2695 31.3823V15.6323C35.2695 15.8623 35.2996 16.1023 35.3496 16.3323L37.7296 28.5123Z" class="pr-icon-iso-solid-stroke" stroke-linejoin="round"/> <path d="M44.8694 27.7823V30.3823C43.1894 30.6223 41.4794 30.8323 39.7394 31.0023C39.0794 31.0723 38.4095 31.1323 37.7295 31.1923V28.5123C38.9395 28.4123 40.1294 28.3123 41.2994 28.1923C42.4794 28.0823 43.6694 27.9423 44.8694 27.7823Z" class="pr-icon-iso-solid-stroke" stroke-linejoin="round"/> <path d="M49.1198 29.7122C48.1498 29.8822 47.1698 30.0523 46.1698 30.1923C45.7398 30.2623 45.2998 30.3223 44.8698 30.3823V27.7823L42.4898 15.9023C42.4298 15.6723 42.4498 15.4722 42.5698 15.3022C42.6798 15.1422 42.8499 14.9923 43.0799 14.8623C43.3699 14.6923 43.7098 14.5622 44.1098 14.4622C44.5098 14.3622 44.8598 14.3323 45.1398 14.3623C46.1798 14.4323 47.0698 14.2823 47.8098 13.9223C48.5498 13.5623 48.9799 13.0823 49.0899 12.4823C49.1099 12.3923 49.1098 12.3123 49.1098 12.2323V29.7122H49.1198Z" class="pr-icon-iso-solid-stroke" stroke-linejoin="round"/> <path d="M54.7589 25.5623V28.5423C54.4789 28.6123 54.1989 28.6822 53.9189 28.7422C53.3689 28.8722 52.799 29.0023 52.209 29.1223V11.9023C52.209 12.1123 52.2289 12.3323 52.2789 12.5423L54.7589 25.5623Z" class="pr-icon-iso-solid-stroke" stroke-linejoin="round"/> <path d="M61.4498 22.1923V26.1623C61.3598 26.2123 61.2598 26.2623 61.1598 26.3123C59.4898 27.1423 57.3498 27.8823 54.7598 28.5423V25.5623C55.4398 25.3023 56.1198 25.0222 56.7798 24.7422C57.4298 24.4622 58.0498 24.1623 58.6198 23.8323L61.4498 22.1923Z" class="pr-icon-iso-solid-stroke" stroke-linejoin="round"/> <path d="M66.3898 8.34225V23.3323L62.0698 25.8223C61.8698 25.9423 61.6698 26.0523 61.4498 26.1623V22.1923L59.5898 12.1023C59.8698 11.4123 60.0698 11.0322 60.1898 10.9622C60.5298 10.7622 60.9298 10.6323 61.3898 10.5723C61.8498 10.5023 62.1898 10.4723 62.4198 10.4723C63.4498 10.5423 64.3398 10.3923 65.0898 10.0323C65.8298 9.66226 66.2598 9.18225 66.3698 8.59225C66.3898 8.51225 66.3898 8.42225 66.3898 8.34225Z" class="pr-icon-iso-solid-stroke" stroke-linejoin="round"/> <path d="M66.3896 8.34225V8.23227" class="pr-icon-iso-solid-stroke" stroke-linejoin="round"/> <path d="M52.209 11.9023V11.6923" class="pr-icon-iso-solid-stroke" stroke-linejoin="round"/> <path d="M77.8397 12.7323V16.7223L71.1396 20.5823V16.6023L77.8397 12.7323Z" class="pr-icon-iso-solid-stroke" stroke-linejoin="round"/> <path d="M71.1393 16.6023V20.5823L69.7393 21.3923V7.54227C69.7393 7.76227 69.7593 7.98227 69.8093 8.20227L71.1393 16.6023Z" class="pr-icon-iso-solid-stroke" stroke-linejoin="round"/> <path d="M69.7393 7.54227V7.42227" class="pr-icon-iso-solid-stroke" stroke-linejoin="round"/> <path d="M88.1497 6.12225V10.7722L77.8398 16.7223V12.7323L77.0398 7.81226C76.9798 7.65226 76.9898 7.49225 77.0798 7.34225C77.1598 7.19225 77.3198 7.05227 77.5498 6.92227C77.9498 6.69227 78.4598 6.56226 79.0898 6.53226C79.7198 6.49226 80.2698 6.61226 80.7298 6.88226C81.6498 7.41226 82.6298 7.81227 83.6598 8.07227C84.6998 8.34227 85.7898 8.14227 86.9298 7.48227C87.7398 7.01227 88.1497 6.55225 88.1497 6.12225Z" class="pr-icon-iso-solid-stroke" stroke-linejoin="round"/> <path d="M88.1494 6.12225V5.99225" class="pr-icon-iso-solid-stroke" stroke-linejoin="round"/> <path d="M101.3 10.0123V15.1723C101.11 15.2523 100.92 15.3522 100.73 15.4622C99.9198 15.9322 99.5097 16.3923 99.5097 16.8223V21.1323L91.6397 20.7122L88.1397 22.7323L85.9897 23.9723L84.9497 24.5723V30.7623L77.8297 30.3323L77.4397 30.3022L75.2497 30.1723L72.4197 31.8022C71.9597 32.0622 71.5297 32.3523 71.1297 32.6623C71.0297 32.7223 70.9297 32.7923 70.8397 32.8723C70.7497 32.9423 70.6597 33.0123 70.5697 33.0823C70.1697 33.4023 69.7897 33.7123 69.4197 34.0323V39.9323L65.6697 39.6923C65.3797 40.3823 65.1297 41.0822 64.8997 41.7722C64.6797 42.4722 64.4797 43.1623 64.3097 43.8623V49.9023L63.9097 49.8723V54.5323C63.6097 54.9423 63.3297 55.3723 63.0597 55.8123C62.7197 56.3823 62.3998 56.9523 62.0998 57.5323C61.2898 57.0423 60.6397 56.3723 60.1197 55.5023C59.5697 54.5923 59.1997 53.5222 59.0197 52.3022C58.8397 51.0722 58.8097 49.7823 58.9197 48.4223C58.9497 48.0223 58.9897 47.6323 59.0397 47.2223C59.1597 46.2423 59.3497 45.2423 59.5797 44.2023C59.6697 43.8323 59.7697 43.4623 59.8697 43.1023C60.1897 42.0023 60.5697 40.9223 61.0097 39.8623C61.1497 39.5323 61.2897 39.2023 61.4397 38.8723C61.9197 37.8323 62.4597 36.8123 63.0597 35.8123C64.6597 33.1623 66.6198 31.1623 68.9698 29.8123L69.9597 29.2422L71.1297 28.5623L77.8297 24.6923L81.6497 22.4922L88.1397 18.7422L99.8498 11.9823C100.81 11.4323 101.3 10.7723 101.3 10.0123Z" class="pr-icon-iso-solid-stroke" stroke-linejoin="round"/> <path d="M102.44 19.9622C102.42 20.3022 102.17 20.6123 101.72 20.8723C101.59 20.9523 101.45 21.0223 101.31 21.0623C101.21 21.1023 101.1 21.1323 100.99 21.1523C100.73 21.2023 100.46 21.2023 100.17 21.1723L99.5195 21.1323V16.8223C99.5195 17.0023 99.5896 17.1723 99.7196 17.3423C100.1 17.8323 100.62 18.3023 101.31 18.7523C101.46 18.8423 101.62 18.9423 101.79 19.0423C102.25 19.3023 102.47 19.6122 102.44 19.9622Z" class="pr-icon-iso-solid-stroke" stroke-linejoin="round"/> <path d="M50.449 40.5123C49.829 42.7223 49.4689 44.9123 49.3689 47.0623V56.4622C48.9989 56.3522 48.5489 56.3023 48.0189 56.2823C47.0989 56.2423 45.6089 56.3222 43.5389 56.5222C39.6989 56.8822 35.919 57.0923 32.189 57.1423C28.459 57.2023 24.959 57.1123 21.689 56.8823C18.419 56.6423 15.499 56.2423 12.949 55.6923C10.389 55.1423 8.41894 54.4723 7.03894 53.6723C4.15894 52.0123 2.71898 50.0223 2.70898 47.7023V27.7023C2.71898 30.0223 4.15894 32.0123 7.03894 33.6723C8.41894 34.4723 10.389 35.1423 12.949 35.6923C13.709 35.8523 14.499 36.0123 15.329 36.1423C16.259 36.3023 17.2389 36.4322 18.2589 36.5522C18.6789 36.6022 19.109 36.6523 19.549 36.6923C19.639 36.7023 19.729 36.7123 19.829 36.7223C20.439 36.7823 21.059 36.8323 21.689 36.8823C21.889 36.8923 22.0889 36.9123 22.2889 36.9223C23.9089 37.0223 25.589 37.0923 27.319 37.1323C28.669 37.1623 30.0589 37.1723 31.4889 37.1523C31.7189 37.1523 31.949 37.1523 32.189 37.1523C33.279 37.1423 34.3789 37.1123 35.4889 37.0623C36.2289 37.0423 36.979 37.0022 37.729 36.9622C39.349 36.8722 40.9889 36.7623 42.6289 36.6123C42.9289 36.5923 43.2389 36.5623 43.5389 36.5323C44.0189 36.4823 44.4589 36.4423 44.8689 36.4123C46.2589 36.3023 47.3089 36.2623 48.0189 36.2923C48.9389 36.3223 49.619 36.4722 50.079 36.7422C50.549 37.0122 50.8089 37.4023 50.8689 37.9323C50.9289 38.4623 50.789 39.3222 50.449 40.5222V40.5123Z" class="pr-icon-iso-solid-stroke" stroke-linejoin="round"/> <path d="M77.4795 60.4622V79.6323C77.4795 80.4023 76.9994 81.0623 76.0294 81.6223C73.1694 83.2723 69.7295 84.0923 65.7095 84.0823C61.6995 84.0823 58.2494 83.2423 55.3694 81.5823C53.9894 80.7823 52.8194 79.6523 51.8694 78.1723C50.9094 76.7023 50.2295 75.0123 49.8195 73.1223C49.5695 71.9823 49.4094 70.7823 49.3594 69.5423V49.6623C49.4194 50.8623 49.5795 52.0223 49.8195 53.1223C50.2295 55.0123 50.9094 56.7023 51.8694 58.1723C52.8194 59.6523 53.9894 60.7823 55.3694 61.5823C56.7194 62.3623 58.1994 62.9623 59.7994 63.3623C61.0894 63.7123 62.4594 63.9223 63.9094 64.0123C64.1694 64.0423 64.4395 64.0522 64.7095 64.0522C65.0395 64.0722 65.3695 64.0823 65.7095 64.0823C66.1895 64.0823 66.6594 64.0723 67.1194 64.0423C70.5394 63.8823 73.5094 63.0723 76.0294 61.6223C76.6394 61.2723 77.0594 60.8723 77.2794 60.4423L77.4795 60.4622Z" class="pr-icon-iso-solid-stroke" stroke-linejoin="round"/> <path d="M102.9 29.7123C102.9 29.8623 102.89 29.9923 102.87 30.1323C102.81 30.6923 102.61 31.2323 102.28 31.7623C101.77 32.5523 101 33.2423 99.97 33.8423C99.82 33.9323 99.6699 34.0123 99.5099 34.0723C98.5799 34.5523 97.5199 34.9123 96.3199 35.1523C95.5099 35.3123 94.68 35.4123 93.85 35.4423C93.26 35.4723 92.6599 35.4623 92.0599 35.4123L84.95 34.9823L81.2399 34.7523L74.9899 34.3723L71.1299 34.1323L70.7399 34.1123L69.4199 34.0323C69.7899 33.7123 70.1699 33.4023 70.5699 33.0823C70.6599 33.0123 70.75 32.9423 70.84 32.8723C70.93 32.7923 71.0299 32.7223 71.1299 32.6623C71.5299 32.3523 71.9599 32.0622 72.4199 31.8022L75.2499 30.1723L77.4399 30.3022L77.83 30.3323L84.95 30.7623L87.84 30.9423L92.73 31.2423C93.13 31.2823 93.79 31.1623 94.71 30.9023C95.05 30.7023 95.2799 30.4723 95.3899 30.2023C95.4999 29.9423 95.5599 29.7423 95.5599 29.6123C95.4399 29.0123 95.6999 28.5023 96.3199 28.0723C96.8399 27.7223 97.4899 27.4823 98.2899 27.3923C98.4599 27.3623 98.6399 27.3423 98.8199 27.3323C99.0599 27.3123 99.2899 27.3123 99.5099 27.3223C100.16 27.3423 100.76 27.4723 101.3 27.7123C101.38 27.7423 101.46 27.7723 101.53 27.8123C102.31 28.1923 102.75 28.6823 102.87 29.2723C102.89 29.4223 102.9 29.5723 102.9 29.7123Z" class="pr-icon-iso-solid-stroke" stroke-linejoin="round"/> <path d="M109.709 19.9523V39.9523C109.709 41.4723 108.799 42.7623 106.969 43.8223C105.999 44.3823 104.869 44.8023 103.579 45.0823C103.349 45.1323 103.129 45.1723 102.899 45.2023V29.7122C102.899 29.5722 102.889 29.4222 102.869 29.2722C102.749 28.6822 102.309 28.1923 101.529 27.8123C101.459 27.7723 101.379 27.7422 101.299 27.7122C100.759 27.4722 100.159 27.3423 99.5092 27.3223C99.2892 27.3123 99.0592 27.3123 98.8192 27.3323C98.6392 27.3423 98.4592 27.3623 98.2892 27.3923C97.4892 27.4823 96.8392 27.7223 96.3192 28.0723C95.6992 28.5023 95.4392 29.0123 95.5592 29.6123C95.5592 29.7423 95.4992 29.9423 95.3892 30.2023C95.2792 30.4723 95.0492 30.7023 94.7092 30.9023C93.7892 31.1623 93.1292 31.2822 92.7292 31.2422L87.8392 30.9423L84.9492 30.7623V24.5723L87.0092 24.6823L88.1392 24.7422L99.4891 25.3423H99.5092C100.119 25.3823 100.719 25.3923 101.299 25.3623C102.079 25.3323 102.839 25.2423 103.579 25.0823C104.869 24.8023 105.999 24.3823 106.969 23.8223C108.799 22.7623 109.709 21.4723 109.709 19.9523Z" class="pr-icon-iso-solid-stroke" stroke-linejoin="round"/> <path d="M99.5195 16.8223V16.7623" class="pr-icon-iso-solid-stroke" stroke-linejoin="round"/> <path d="M96.1896 39.9023V59.8523C96.1896 60.4423 95.9995 61.0123 95.6195 61.5823C95.1095 62.3823 94.3396 63.0723 93.3096 63.6623C92.2796 64.2623 91.0695 64.7023 89.6595 64.9723C89.5595 64.9923 89.4595 65.0122 89.3595 65.0222V49.6723C89.3595 49.5023 89.3296 49.3423 89.2996 49.1723C89.1796 48.5823 88.7596 48.0923 88.0396 47.7023C87.3196 47.3223 86.4495 47.1623 85.4095 47.2323C84.3795 47.2923 83.5395 47.5522 82.8795 47.9922C82.2195 48.4422 81.9496 48.9623 82.0696 49.5623C82.0696 49.6923 82.0095 49.8522 81.8995 50.0522C81.7995 50.2322 81.6295 50.3922 81.3795 50.5522C81.3595 50.5722 81.3296 50.5823 81.2996 50.6023C80.3896 50.8623 79.7795 50.9823 79.4995 50.9423L74.5095 50.6023L69.4196 50.2523L68.3895 50.1823L64.3096 49.9023V43.8623L65.3396 43.9323L69.4196 44.1923L77.7495 44.7422L85.3995 45.2422C86.8395 45.3422 88.2595 45.2423 89.6595 44.9723C89.8395 44.9323 90.0196 44.9023 90.1996 44.8523C91.3796 44.5823 92.4096 44.1823 93.3096 43.6623C94.3396 43.0723 95.1095 42.3823 95.6195 41.5823C95.7595 41.3723 95.8796 41.1523 95.9596 40.9423C96.1096 40.5923 96.1796 40.2523 96.1896 39.9023Z" class="pr-icon-iso-solid-stroke" stroke-linejoin="round"/> <path d="M15.3297 23.7722V30.3423C14.7797 30.1523 14.2997 29.9422 13.8997 29.7122C12.9297 29.1422 12.4297 28.4823 12.4297 27.7223C12.4297 26.9623 12.9096 26.3023 13.8796 25.7323C14.8396 25.1823 15.3297 24.5222 15.3297 23.7722Z" class="pr-icon-iso-solid-stroke" stroke-linejoin="round"/> <path d="M102.9 29.7122V49.7923C102.89 50.4723 102.68 51.1223 102.28 51.7623C101.77 52.5523 101 53.2423 99.97 53.8423C98.94 54.4323 97.7199 54.8723 96.3199 55.1523C96.2799 55.1623 96.2299 55.1723 96.1899 55.1723V39.7422C96.1899 39.5422 96.1699 39.3523 96.1299 39.1523C96.0099 38.5523 95.58 38.0723 94.83 37.7023C94.08 37.3423 93.1899 37.1923 92.1599 37.2523C91.1299 37.3223 90.2799 37.5722 89.6199 38.0222C88.9699 38.4622 88.6999 38.9923 88.8099 39.5823C88.4199 40.2123 88.1599 40.5623 88.0499 40.6223C87.0699 40.9223 86.4399 41.0522 86.1499 41.0222L84.95 40.9423L84.3899 40.9123L71.97 40.1023L69.4199 39.9323V34.0323L70.7399 34.1123L71.1299 34.1323L74.9899 34.3723L81.2399 34.7523L84.95 34.9823L92.0599 35.4123C92.6599 35.4623 93.26 35.4723 93.85 35.4423C94.68 35.4123 95.5099 35.3123 96.3199 35.1523C97.5199 34.9123 98.5799 34.5523 99.5099 34.0723C99.6699 34.0123 99.82 33.9323 99.97 33.8423C101 33.2423 101.77 32.5523 102.28 31.7623C102.61 31.2323 102.81 30.6923 102.87 30.1323C102.89 29.9923 102.9 29.8622 102.9 29.7122Z" class="pr-icon-iso-solid-stroke" stroke-linejoin="round"/>
</svg>