<svg width="48" height="48" viewBox="0 0 75 93" xmlns="http://www.w3.org/2000/svg" stroke-width="1px"  stroke-linecap="round" stroke-linejoin="round"> <path d="M43.2796 70.4499V90.4499L32.5796 90.4299V70.4299L43.1596 70.4499H43.2796Z" class="pr-icon-iso-solid-stroke" stroke-linejoin="round"/> <path d="M32.4297 42.65V62.65C28.9997 62.43 25.5897 61.85 22.2097 60.93C18.8297 60 15.7397 58.73 12.9297 57.11C5.96969 53.09 2.47971 48.31 2.44971 42.76V22.76C2.46971 26.41 3.98969 29.73 6.99969 32.71C8.56969 34.27 10.5497 35.73 12.9297 37.11C13.4997 37.44 14.0797 37.75 14.6697 38.04C15.9197 38.68 17.2297 39.25 18.5897 39.76C19.7597 40.2 20.9597 40.59 22.2097 40.93C24.0997 41.45 26.0097 41.85 27.9197 42.15C29.3297 42.37 30.7397 42.53 32.1497 42.63C32.2397 42.64 32.3397 42.64 32.4297 42.65Z" class="pr-icon-iso-solid-stroke" stroke-linejoin="round"/> <path d="M32.5797 70.4299V90.4299L32.4297 62.6499V42.6499L32.4597 47.3699L32.5097 56.5499L32.5797 70.4299Z" class="pr-icon-iso-solid-stroke" stroke-linejoin="round"/> <path d="M62.4099 8.54002C55.4499 4.52002 47.1699 2.50002 37.5599 2.48002C27.9499 2.47002 19.6899 4.45002 12.7699 8.45002C5.85988 12.44 2.4199 17.21 2.4499 22.76C2.4699 26.41 3.98989 29.73 6.99989 32.71C8.56989 34.27 10.5499 35.73 12.9299 37.11C13.4999 37.44 14.0799 37.75 14.6699 38.04C15.9199 38.68 17.2299 39.25 18.5899 39.76C19.7599 40.2 20.9599 40.59 22.2099 40.93C24.0999 41.45 26.0099 41.85 27.9199 42.15C29.3299 42.37 30.7399 42.53 32.1499 42.63C32.2399 42.64 32.3399 42.64 32.4299 42.65L32.4599 47.37L32.5099 56.55L32.5799 70.43L43.1599 70.45H43.2799L43.2399 62.66L43.1999 56.55L43.1399 46.97L43.1199 42.67C43.7899 42.63 44.4599 42.57 45.1199 42.5C47.8799 42.23 50.6099 41.71 53.3299 40.98C53.5999 40.91 53.8599 40.83 54.1199 40.75C56.4499 40.08 58.6299 39.24 60.6699 38.22C61.3199 37.9 61.9499 37.56 62.5699 37.2C64.8799 35.86 66.8099 34.44 68.3399 32.93C71.3799 29.94 72.8999 26.62 72.8999 22.95V22.88C72.8699 17.34 69.3699 12.55 62.4099 8.54002ZM60.6699 27.6C59.5099 29.5 57.5899 31.23 54.9099 32.77C54.8399 32.81 54.7799 32.85 54.7099 32.88C54.5199 32.99 54.3199 33.1 54.1199 33.21C53.1199 33.74 52.0699 34.22 50.9899 34.63C47.7999 35.87 44.2599 36.59 40.3699 36.81C39.5199 36.85 38.6399 36.87 37.7499 36.87C36.8599 36.87 36.0499 36.84 35.2299 36.8C34.7799 36.77 34.3399 36.74 33.9099 36.7C33.3099 36.65 32.7299 36.59 32.1499 36.51C31.3399 36.4 30.5399 36.27 29.7699 36.12C29.5899 36.08 29.3999 36.04 29.2199 36C28.9399 35.94 28.6699 35.88 28.3899 35.81C28.1099 35.74 27.8299 35.67 27.5599 35.59C27.4299 35.56 27.2999 35.53 27.1799 35.49C26.8799 35.41 26.5899 35.32 26.2999 35.22C26.2199 35.2 26.1399 35.18 26.0499 35.15C25.7099 35.04 25.3699 34.92 25.0299 34.79C24.9999 34.79 24.9699 34.78 24.9499 34.76C24.5699 34.63 24.1999 34.48 23.8399 34.33C23.4699 34.18 23.0999 34.02 22.7399 33.85C22.3899 33.69 22.0399 33.52 21.6999 33.35C21.3399 33.16 20.9799 32.96 20.6299 32.76C20.5999 32.74 20.5699 32.73 20.5399 32.71C19.8399 32.31 19.1899 31.89 18.5899 31.45C16.8499 30.22 15.5399 28.87 14.6799 27.43C13.7899 25.98 13.3399 24.42 13.3299 22.78C13.3099 18.92 15.6799 15.62 20.4299 12.87C25.1899 10.12 30.9099 8.75002 37.5899 8.77002C44.2799 8.77002 50.0099 10.17 54.7999 12.93C59.5899 15.7 61.9899 19.01 62.0099 22.86C62.0199 24.55 61.5699 26.13 60.6699 27.6Z" class="pr-icon-iso-solid-stroke" stroke-linejoin="round"/> <path d="M33.9099 33.84V36.7C33.3099 36.65 32.7299 36.59 32.1499 36.51V26.01L32.8299 29.01L33.9099 33.84Z" class="pr-icon-iso-solid-stroke" stroke-linejoin="round"/> <path d="M40.3697 26.79V36.81C39.5197 36.85 38.6397 36.87 37.7497 36.87C36.8597 36.87 36.0497 36.84 35.2297 36.8C34.7797 36.77 34.3397 36.74 33.9097 36.7V33.84L38.5397 28.79L40.3697 26.79Z" class="pr-icon-iso-solid-stroke" stroke-linejoin="round"/> <path d="M54.1201 27.7V33.21C53.1201 33.74 52.0701 34.22 50.9901 34.63C47.8001 35.87 44.2601 36.59 40.3701 36.81V26.79L50.9901 27.49L54.1201 27.7Z" class="pr-icon-iso-solid-stroke" stroke-linejoin="round"/> <path d="M50.99 15.1301V25.8901L46.1 23.0701L44.73 22.2801L50.99 15.1301Z" class="pr-icon-iso-solid-stroke" stroke-linejoin="round"/> <path d="M54.1198 27.7001L50.9898 27.4901L40.3698 26.7901L38.5399 28.7901L33.9099 33.8401L32.8298 29.0101L32.1498 26.0101L29.2198 25.7901L20.1999 25.1101L18.5898 24.9901L29.2198 21.7501L30.7899 21.2701L29.2198 13.3301L38.5999 18.7401L50.9898 15.1301L44.7299 22.2801L46.0999 23.0701L50.9898 25.8901L54.1198 27.7001Z" class="pr-icon-iso-solid-stroke" stroke-linejoin="round"/> <path d="M32.1498 26.01V36.51C31.3398 36.4 30.5398 36.27 29.7698 36.12C29.5898 36.08 29.3998 36.04 29.2198 36C28.9398 35.94 28.6699 35.88 28.3899 35.81C28.1099 35.74 27.8298 35.67 27.5598 35.59C27.4298 35.56 27.2998 35.53 27.1798 35.49C26.8798 35.41 26.5898 35.32 26.2998 35.22C26.2198 35.2 26.1398 35.18 26.0498 35.15C25.7098 35.04 25.3698 34.92 25.0298 34.79C24.9998 34.79 24.9699 34.78 24.9499 34.76C24.5699 34.63 24.1998 34.48 23.8398 34.33C23.4698 34.18 23.0998 34.02 22.7398 33.85C22.3898 33.69 22.0399 33.52 21.6999 33.35C21.3399 33.16 20.9799 32.96 20.6299 32.76C20.5999 32.74 20.5699 32.73 20.5399 32.71C19.8399 32.31 19.1898 31.89 18.5898 31.45V24.99L20.1999 25.11L29.2198 25.79L32.1498 26.01Z" class="pr-icon-iso-solid-stroke" stroke-linejoin="round"/> <path d="M62.0097 22.86C62.0197 24.55 61.5697 26.13 60.6697 27.6C59.5097 29.5 57.5897 31.23 54.9097 32.77C54.8397 32.81 54.7797 32.85 54.7097 32.88C54.5197 32.99 54.3197 33.1 54.1197 33.21V27.7L50.9897 25.89V15.13L38.5997 18.74L29.2197 13.33V21.75L18.5897 24.99V31.45C16.8497 30.22 15.5397 28.87 14.6797 27.43C13.7897 25.98 13.3397 24.42 13.3297 22.78C13.3097 18.92 15.6797 15.62 20.4297 12.87C25.1897 10.12 30.9097 8.74999 37.5897 8.76999C44.2797 8.76999 50.0097 10.17 54.7997 12.93C59.5897 15.7 61.9897 19.01 62.0097 22.86Z" class="pr-icon-iso-solid-stroke" stroke-linejoin="round"/> <path d="M72.9001 22.95V42.88C72.9301 48.43 69.4801 53.2 62.5701 57.2C59.7801 58.81 56.7001 60.0699 53.3301 60.9799C50.0001 61.8799 46.6401 62.45 43.2401 62.66L43.2001 56.5499L43.1401 46.97L43.1201 42.67C43.7901 42.63 44.4601 42.57 45.1201 42.5C47.8801 42.23 50.6101 41.71 53.3301 40.98C53.6001 40.91 53.8601 40.83 54.1201 40.75C56.4501 40.08 58.6301 39.24 60.6701 38.22C61.3201 37.9 61.9501 37.56 62.5701 37.2C64.8801 35.86 66.8101 34.44 68.3401 32.93C71.3801 29.94 72.9001 26.62 72.9001 22.95Z" class="pr-icon-iso-solid-stroke" stroke-linejoin="round"/> <path d="M30.7902 21.2701L29.2202 21.7501V13.3301L30.7902 21.2701Z" class="pr-icon-iso-solid-stroke" stroke-linejoin="round"/>
</svg>