<svg width="48" height="48" viewBox="0 0 121 57" xmlns="http://www.w3.org/2000/svg" stroke-width="1px"
     stroke-linecap="round" stroke-linejoin="round">
    <path d="M41.1011 22.6501H41.0811V28.2401H41.1311L41.1011 22.6501Z" class="pr-icon-iso-solid-stroke" stroke-linejoin="round"/>
    <path d="M41.0808 19.4001V39.4001L2.38086 39.3301V19.3301L21.6709 19.3601L41.0808 19.4001Z" class="pr-icon-iso-solid-stroke" stroke-linejoin="round"/>
    <path d="M118.811 21.2201L70.0107 22.8401L60.4507 23.1601V22.6801L60.3706 8.27011L21.6707 8.2001L21.6406 2.61011L70.0107 2.7001L70.0906 17.5901L118.781 16.0001L118.811 21.2201Z" class="pr-icon-iso-solid-stroke" stroke-linejoin="round"/>
    <path d="M41.1602 33.8101V54.3001L41.0801 39.4001V28.2401H41.1301L41.1602 33.8101Z" class="pr-icon-iso-solid-stroke" stroke-linejoin="round"/>
    <path d="M99.5208 32.3601L70.0706 33.3401L60.4507 33.6601H60.4006L50.7207 33.9801L41.1606 34.3001V33.8101L41.1306 28.2401L41.1006 22.6501L41.0806 19.4001L21.6707 19.3601L2.38062 19.3301L2.35059 13.7501L21.6707 13.7801L50.7207 13.8301L50.7708 22.6601L50.8005 28.2501V28.7301L60.3706 28.4201L60.4507 28.4101L70.0408 28.1001L99.4907 27.1401L99.5208 32.3601Z" class="pr-icon-iso-solid-stroke" stroke-linejoin="round"/>
    <path d="M118.811 21.2201V41.2201L99.5212 41.8601V32.3601L99.4912 27.1401L70.0413 28.1001L60.4512 28.4101V23.1601L70.0112 22.8401L118.811 21.2201Z" class="pr-icon-iso-solid-stroke" stroke-linejoin="round"/>
    <path d="M60.4509 22.6801V28.4101L60.3708 28.4201V28.2701L50.8008 28.2501L50.771 22.6601L50.7209 13.8301L21.6709 13.7801V8.2001L60.3708 8.27011L60.4509 22.6801Z" class="pr-icon-iso-solid-stroke" stroke-linejoin="round"/>
    <path d="M99.5203 32.3601V52.3601L41.1602 54.3001V34.3001L50.7202 33.9801L60.4001 33.6601H60.4502L70.0701 33.3401L99.5203 32.3601Z" class="pr-icon-iso-solid-stroke" stroke-linejoin="round"/>
</svg>