<svg width="48" height="48" viewBox="0 0 112 87" xmlns="http://www.w3.org/2000/svg" stroke-width="1px"  stroke-linecap="round" stroke-linejoin="round"> <path d="M70.3408 25.502V30.042H70.3809L70.3408 25.502Z" class="pr-icon-iso-solid-stroke" stroke-linejoin="round"/> <path d="M43.9607 64.4418V84.4418L43.7207 60.8618V40.8618L43.7708 45.4118L43.8507 53.6118L43.9607 64.4418Z" class="pr-icon-iso-solid-stroke" stroke-linejoin="round"/> <path d="M56.4209 64.4619V84.4619L43.9609 84.4419V64.4419L56.3109 64.4619H56.4209Z" class="pr-icon-iso-solid-stroke" stroke-linejoin="round"/> <path d="M83.0304 49.0918V69.0918L70.5703 69.0718V49.0718L82.9303 49.0918H83.0304Z" class="pr-icon-iso-solid-stroke" stroke-linejoin="round"/> <path d="M70.3407 25.5018V45.5018L56.3207 45.4518L56.2808 38.2118L56.2507 33.6318L29.5107 33.5818V25.3618L56.0907 25.4518H56.1207L70.3407 25.5018Z" class="pr-icon-iso-solid-stroke" stroke-linejoin="round"/> <path d="M109.651 33.7317V53.7317H109.641L97.1904 53.7017V33.7017L109.541 33.7317H109.651Z" class="pr-icon-iso-solid-stroke" stroke-linejoin="round"/> <path d="M109.651 33.7318H109.541L97.191 33.7018L97.0811 22.8718L96.951 10.1318L56.1211 9.99176L56.0811 2.80176L109.481 2.89175L109.651 33.7318Z" class="pr-icon-iso-solid-stroke" stroke-linejoin="round"/> <path d="M97.1902 33.7018V53.7018L96.9502 30.1318V10.1318L97.0802 22.8718L97.1902 33.7018Z" class="pr-icon-iso-solid-stroke" stroke-linejoin="round"/> <path d="M96.951 10.1317V30.1317L82.931 30.0817L82.8911 22.8517L82.8711 18.2617L56.1211 18.2117V9.9917L96.951 10.1317Z" class="pr-icon-iso-solid-stroke" stroke-linejoin="round"/> <path d="M43.7206 40.8619V60.8619L2.89062 60.7319V40.7319L29.4806 40.8119H29.5106L43.7206 40.8619Z" class="pr-icon-iso-solid-stroke" stroke-linejoin="round"/> <path d="M56.4205 64.4617H56.3105L43.9606 64.4417L43.8506 53.6117L43.7706 45.4117L43.7206 40.8617L29.5106 40.8117H29.4806L2.89062 40.7317L2.85059 33.5317L29.4706 33.5817H29.5106L56.2506 33.6317L56.2806 38.2117L56.3206 45.4517L56.4205 64.4617Z" class="pr-icon-iso-solid-stroke" stroke-linejoin="round"/> <path d="M29.4707 33.5816V18.1616" class="pr-icon-iso-solid-stroke" stroke-linejoin="round"/> <path d="M70.5708 49.072V69.072L70.3408 45.502V30.042H70.3809L70.4608 38.242L70.5708 49.072Z" class="pr-icon-iso-solid-stroke" stroke-linejoin="round"/> <path d="M83.0308 49.0916H82.9307L70.5707 49.0716L70.4607 38.2416L70.3807 30.0416L70.3407 25.5016L56.1207 25.4516H56.0907L29.5107 25.3616L29.4707 18.1616L56.0807 18.2116H56.1207L82.8707 18.2616L82.8907 22.8516L82.9307 30.0816L83.0308 49.0916Z" class="pr-icon-iso-solid-stroke" stroke-linejoin="round"/> <path d="M56.0801 18.2118V2.80176" class="pr-icon-iso-solid-stroke" stroke-linejoin="round"/>
</svg>