<svg width="48" height="48" viewBox="0 0 94 97" fill="#229EFF" xmlns="http://www.w3.org/2000/svg" stroke-width="1px" stroke-linecap="round" stroke-linejoin="round"><path d="M86.4198 28.73V48.73L84.7898 49.6702C82.0098 48.4402 78.7998 47.8201 75.1798 47.8101C73.4998 47.8101 71.9098 47.9402 70.4198 48.2002C67.9798 48.6302 65.7897 49.4 63.8497 50.52C61.3997 51.94 59.9098 53.6201 59.3898 55.5601C59.3898 55.5601 59.3864 55.5667 59.3798 55.5801C59.2298 56.1501 59.1598 56.71 59.1898 57.26V61.97L54.4797 64.6902C53.3897 65.3202 52.2398 65.8801 51.0398 66.3601C48.6998 66.8001 46.2298 67.0702 43.6498 67.1802C35.8698 67.5202 28.8198 66.37 22.5098 63.73V43.73C28.8198 46.37 35.8698 47.5202 43.6498 47.1802C48.5298 46.9702 52.9998 46.1901 57.0398 44.8201C59.4098 44.0301 61.6497 43.0301 63.7297 41.8301C63.7597 41.8201 63.7798 41.81 63.8098 41.79L72.8698 36.5601L78.8098 33.1201L85.7598 29.1101L86.4198 28.73Z" stroke="white" stroke-linejoin="round"/><path d="M60.7894 61.05L59.1895 61.97V57.26C59.2295 58.58 59.7594 59.84 60.7894 61.05Z" stroke="white" stroke-linejoin="round"/><path d="M91.2999 57.1401V77.1201C91.3099 79.6701 89.7499 81.8502 86.6099 83.6602C84.1599 85.0802 81.2499 85.93 77.8799 86.24C74.5099 86.54 71.3399 86.2702 68.3799 85.4302V65.4302C71.3399 66.2702 74.5099 66.54 77.8799 66.24C81.2499 65.93 84.1599 65.0802 86.6099 63.6602C89.7399 61.8602 91.2999 59.6801 91.2999 57.1401Z" stroke="white" stroke-linejoin="round"/><path d="M22.5099 43.73V63.73L20.71 64.77C20.62 64.73 20.54 64.6801 20.45 64.6301C17.78 63.0901 15.8499 61.38 14.6799 59.49C14.5399 59.28 14.4199 59.0701 14.3099 58.8501C13.6399 57.5801 13.3099 56.23 13.2999 54.8C13.2799 50.98 15.6298 47.71 20.3398 44.99L20.6299 44.8201L22.5099 43.73Z" stroke="white" stroke-linejoin="round"/><path d="M91.3003 57.1201V57.1401C91.3003 59.6801 89.7403 61.8602 86.6103 63.6602C84.1603 65.0802 81.2503 65.93 77.8803 66.24C74.5103 66.54 71.3403 66.2702 68.3803 65.4302L62.0603 69.0701C61.1303 69.6101 60.1703 70.1101 59.1803 70.5701C53.0003 73.4901 45.7803 74.9402 37.5203 74.9202C28.7703 74.9102 21.1802 73.26 14.7202 69.97C14.1102 69.66 13.5003 69.33 12.9103 68.99C10.6103 67.66 8.70031 66.24 7.17031 64.74C4.16031 61.76 2.64026 58.45 2.62026 54.78C2.60026 50.46 4.65031 46.63 8.79031 43.3C9.52031 42.7 10.3203 42.1301 11.1803 41.5801C11.6803 41.2401 12.2003 40.9201 12.7503 40.6101L14.9203 39.3501C14.5903 39.0901 14.2702 38.82 13.9702 38.55C11.0002 35.94 9.32031 33.1101 8.92031 30.0601V29.9302C8.82031 29.0202 8.83034 28.1001 8.95034 27.1501C9.52034 22.6501 12.6403 18.78 18.2903 15.51L40.9103 2.4502L52.2803 9.02002L56.0503 6.8501L63.6403 11.23L48.5603 19.9302L40.9802 15.55L44.7503 13.3801L40.9503 11.1902L25.8803 19.8901C21.7303 22.2901 19.6703 25.1901 19.6803 28.6101C19.6903 30.4401 20.3003 32.1202 21.5003 33.6602C22.5403 35.0002 24.0302 36.2301 25.9702 37.3601C26.7102 37.7801 27.4703 38.17 28.2603 38.51C31.9503 40.15 36.2303 40.97 41.1103 40.98C47.0103 41 52.0103 39.8102 56.1503 37.4502C56.1703 37.4402 56.2002 37.4202 56.2202 37.4102L63.7302 33.0801L67.5003 30.9001L71.3003 28.7102L67.5003 26.52L63.7302 28.6902L63.6403 28.6401L56.1503 24.3101L63.6403 19.99L71.2302 15.6101L78.8103 19.99L75.0403 22.1602L78.8103 24.3401L86.4203 28.73L85.7603 29.1101L78.8103 33.1201L72.8703 36.5601L63.8103 41.79C63.8103 41.79 63.7602 41.8201 63.7302 41.8301C61.6502 43.0301 59.4103 44.0301 57.0403 44.8201C53.0003 46.1901 48.5303 46.9702 43.6503 47.1802C35.8703 47.5202 28.8203 46.37 22.5103 43.73L20.6303 44.8201L20.3402 44.99C15.6302 47.71 13.2803 50.98 13.3003 54.8C13.3103 56.23 13.6403 57.5801 14.3103 58.8501C14.4203 59.0701 14.5403 59.28 14.6803 59.49C15.8503 61.38 17.7803 63.0901 20.4503 64.6301C20.5403 64.6801 20.6204 64.73 20.7104 64.77C25.4004 67.42 30.9902 68.75 37.4802 68.76C42.5602 68.76 47.0903 67.9701 51.0403 66.3601C52.2403 65.8801 53.3902 65.3202 54.4802 64.6902L59.1903 61.97L60.7903 61.05C59.7603 59.84 59.2303 58.58 59.1903 57.26C59.1603 56.71 59.2303 56.1501 59.3803 55.5801C59.3803 55.5801 59.3836 55.5734 59.3903 55.5601C59.9103 53.6201 61.4002 51.94 63.8502 50.52C65.7902 49.4 67.9803 48.6302 70.4203 48.2002C71.9103 47.9402 73.5003 47.8101 75.1803 47.8101C78.8003 47.8201 82.0103 48.4402 84.7903 49.6702C85.3903 49.9402 85.9803 50.2301 86.5403 50.5601C89.7003 52.3901 91.2903 54.5701 91.3003 57.1201Z" stroke="white" stroke-linejoin="round"/><path d="M63.6405 11.23V19.99L56.1505 24.3101V35.55L48.5605 39.9302V19.9302L63.6405 11.23Z" stroke="white" stroke-linejoin="round"/><path d="M67.5005 26.52V30.9001L63.7305 33.0801V28.6902L67.5005 26.52Z" stroke="white" stroke-linejoin="round"/><path d="M71.3 28.7102L67.5 30.9001V26.52L71.3 28.7102Z" stroke="white" stroke-linejoin="round"/><path d="M63.7303 28.6902V33.0801L56.2203 37.4102C56.2203 37.4102 56.1704 37.4402 56.1504 37.4502V24.3101L63.6404 28.6401L63.7303 28.6902Z" stroke="white" stroke-linejoin="round"/><path d="M48.5605 19.9302V39.9302L40.9805 35.55V15.55L48.5605 19.9302Z" stroke="white" stroke-linejoin="round"/><path d="M44.7501 13.3801L40.9801 15.55V31.2102L40.9502 31.1902V11.1902L44.7501 13.3801Z" stroke="white" stroke-linejoin="round"/><path d="M40.9507 11.1902V31.1902L28.2607 38.51C27.4707 38.17 26.7106 37.7801 25.9706 37.3601C24.0306 36.2301 22.5406 35.0002 21.5006 33.6602C20.3006 32.1202 19.6907 30.4401 19.6807 28.6101C19.6707 25.1901 21.7307 22.2901 25.8807 19.8901L40.9507 11.1902Z" stroke="white" stroke-linejoin="round"/><path d="M14.92 39.3501L12.75 40.6101C12.2 40.9201 11.6801 41.2401 11.1801 41.5801C10.3201 42.1301 9.52004 42.7 8.79004 43.3L8.92004 30.0601C9.32004 33.1101 11 35.94 13.97 38.55C14.27 38.82 14.59 39.0901 14.92 39.3501Z" stroke="white" stroke-linejoin="round"/><path d="M68.3801 65.4302V85.4302L62.0602 89.0701C55.2802 92.9901 47.1001 94.9402 37.5201 94.9202C27.9401 94.9102 19.7402 92.93 12.9102 88.99C6.08016 85.04 2.65012 80.31 2.62012 74.78V54.78C2.64012 58.45 4.16017 61.76 7.17017 64.74C8.70017 66.24 10.6102 67.66 12.9102 68.99C13.5002 69.33 14.1101 69.66 14.7201 69.97C21.1801 73.26 28.7701 74.9102 37.5201 74.9202C45.7801 74.9402 53.0002 73.4901 59.1802 70.5701C60.1702 70.1101 61.1302 69.6101 62.0602 69.0701L68.3801 65.4302Z" stroke="white" stroke-linejoin="round"/><path d="M59.1904 57.26V57.02" stroke="white" stroke-linejoin="round"/></svg>