<svg width="48" height="48" viewBox="0 0 125 68" xmlns="http://www.w3.org/2000/svg" stroke-width="1px"
     stroke-linecap="round" stroke-linejoin="round">
    <path d="M122.81 13.3819V33.3819L67.3301 65.4219V45.4219L122.81 13.3819Z" class="pr-icon-iso-solid-stroke" stroke-linejoin="round"/>
    <path d="M67.33 45.4219V65.4219L15.5599 35.5319V34.6119L15.4199 22.4719L15.3398 15.4019L27.6299 22.5019L40.7799 30.0919L67.33 45.4219Z" class="pr-icon-iso-solid-stroke" stroke-linejoin="round"/>
    <path d="M15.55 34.6119V54.6119L2.33008 54.5919V34.5919L15.55 34.6119Z" class="pr-icon-iso-solid-stroke" stroke-linejoin="round"/>
    <path d="M122.8 13.3819L67.3202 45.4219L40.7701 30.0919L27.6201 22.5019L15.3302 15.4019L15.4202 22.4719L15.5502 34.6119L2.3302 34.5919L2.26013 22.4519L2.16016 2.4519L58.0402 2.55191L57.9701 10.1219L24.5702 10.0619L46.1802 22.5319L57.9701 29.3419H57.9801L67.2601 34.7019L113.49 8.01192L122.8 13.3819Z" class="pr-icon-iso-solid-stroke" stroke-linejoin="round"/>
    <path d="M57.9702 10.1219V29.3419L46.1803 22.5319L24.5703 10.0619L57.9702 10.1219Z" class="pr-icon-iso-solid-stroke" stroke-linejoin="round"/>
    <path d="M58.0398 2.55188V22.5519L57.9797 29.3419H57.9697V10.1219L58.0398 2.55188Z" class="pr-icon-iso-solid-stroke" stroke-linejoin="round"/>
    <path d="M2.3302 34.5919V54.5919L2.16016 22.4519V2.4519L2.26013 22.4519L2.3302 34.5919Z" class="pr-icon-iso-solid-stroke" stroke-linejoin="round"/>
</svg>