<svg width="24" height="24" viewBox="0 0 117 59" xmlns="http://www.w3.org/2000/svg" stroke-width="1px"  stroke-linecap="round" stroke-linejoin="round"> <path d="M114.21 36.9003H114.11L101.98 36.8803L88.0601 36.8503L71.2801 36.8203L71.3501 29.8203L75.9001 29.8303L93.4601 29.8603L62.5601 12.0203L71.1201 7.07031L102.02 24.9103L101.95 12.1503L114.08 12.1103L114.21 36.9003Z" class="pr-icon-iso-solid-stroke" stroke-miterlimit="10" stroke-linejoin="round"/> <path d="M14.67 26.7402V46.7402L2.54004 46.7802V26.7802L14.67 26.7402Z" class="pr-icon-iso-solid-stroke" stroke-miterlimit="10" stroke-linejoin="round"/> <path d="M54.05 26.8702L45.5 31.8102L40.74 29.0602L28.58 22.0402L14.6 13.9702L14.64 22.0102L14.67 26.7402L2.54004 26.7802L2.51004 21.9902L2.40002 1.99023L45.33 2.07023L45.26 9.07023L23.16 9.03023L45.26 21.7902L45.33 21.8302L54.05 26.8702Z" class="pr-icon-iso-solid-stroke" stroke-miterlimit="10" stroke-linejoin="round"/> <path d="M45.26 9.07027V21.7903L23.16 9.03027L45.26 9.07027Z" class="pr-icon-iso-solid-stroke" stroke-miterlimit="10" stroke-linejoin="round"/> <path d="M45.5001 31.8102V51.8102L14.6701 34.0102V26.7402L14.6401 22.0102L14.6001 13.9702L28.5801 22.0402L40.7401 29.0602L45.5001 31.8102Z" class="pr-icon-iso-solid-stroke" stroke-miterlimit="10" stroke-linejoin="round"/> <path d="M2.54004 26.7802V46.7802L2.40002 21.9902V1.99023L2.51004 21.9902L2.54004 26.7802Z" class="pr-icon-iso-solid-stroke" stroke-miterlimit="10" stroke-linejoin="round"/> <path d="M45.33 2.07031V21.8303L45.26 21.7903V9.07031L45.33 2.07031Z" class="pr-icon-iso-solid-stroke" stroke-miterlimit="10" stroke-linejoin="round"/> <path d="M54.05 26.8701V46.8701L45.5 51.8101V31.8101L54.05 26.8701Z" class="pr-icon-iso-solid-stroke" stroke-miterlimit="10" stroke-linejoin="round"/> <path d="M93.4601 29.86L75.9001 29.83L71.3501 29.82L71.2801 36.82V37.05L62.5601 32.02V12.02L93.4601 29.86Z" class="pr-icon-iso-solid-stroke" stroke-miterlimit="10" stroke-linejoin="round"/> <path d="M114.21 36.9003V56.9003L71.28 56.8203V36.8203L88.06 36.8503L101.98 36.8803L114.11 36.9003H114.21Z" class="pr-icon-iso-solid-stroke" stroke-miterlimit="10" stroke-linejoin="round"/>
</svg>