<svg width="48" height="48" viewBox="0 0 118 90" xmlns="http://www.w3.org/2000/svg" stroke-width="1px"  stroke-linecap="round" stroke-linejoin="round"> <path d="M115.141 45.0961V64.9961C115.181 71.3161 111.331 76.6961 103.601 81.1661C95.8711 85.6261 86.5311 87.8461 75.6011 87.8261C64.6711 87.8061 55.3113 85.5561 47.5413 81.0661C40.6913 77.1161 36.8412 72.4361 35.9712 67.0461C35.8612 66.3561 35.8012 65.6761 35.7812 64.9961V48.4661L36.3811 48.8061C36.9911 50.9461 38.1112 52.9561 39.7412 54.8561C41.6412 57.0961 44.2413 59.1561 47.5413 61.0661C55.3113 65.5561 64.6711 67.8061 75.6011 67.8261C86.5311 67.8461 95.8711 65.6261 103.601 61.1661C106.841 59.2861 109.401 57.2561 111.271 55.0561C113.851 52.0461 115.141 48.7261 115.141 45.0961Z" class="pr-icon-iso-solid-stroke" stroke-linejoin="round"/> <path d="M18.2117 28.6461V48.6461L2.51172 48.6161V28.6161L18.2117 28.6461Z" class="pr-icon-iso-solid-stroke" stroke-linejoin="round"/> <path d="M2.51123 28.6161V48.6161L2.37109 22.7161H2.4812L2.51123 28.6161Z" class="pr-icon-iso-solid-stroke" stroke-linejoin="round"/> <path d="M18.291 22.7461V38.3661L18.2109 48.6461V28.6461L18.261 22.7461H18.291Z" class="pr-icon-iso-solid-stroke" stroke-linejoin="round"/> <path d="M115.141 44.9961V45.0961C115.141 48.7261 113.851 52.0461 111.271 55.0561C109.401 57.2561 106.841 59.2861 103.601 61.1661C95.8711 65.6261 86.5311 67.8461 75.6011 67.8261C64.6711 67.8061 55.3113 65.5561 47.5413 61.0661C44.2413 59.1561 41.6412 57.0961 39.7412 54.8561C38.1112 52.9561 36.9911 50.9461 36.3811 48.8061C36.2011 48.2261 36.0712 47.6461 35.9712 47.0461C35.3912 43.4761 36.1312 40.1061 38.1812 36.9461C39.2112 35.3261 40.6013 33.7561 42.3313 32.2461L41.7913 31.9361L25.9011 22.7561L18.2913 18.3661L18.2612 22.7461L18.2112 28.6461L2.51123 28.6161L2.4812 22.7161L2.37109 2.71606L47.2212 2.79606L47.4111 11.9461L29.4712 11.9161L47.4111 22.2761L53.5112 25.7961C61.2512 22.8361 69.7911 21.6161 79.1411 22.1161C88.4811 22.6161 96.5811 24.8461 103.421 28.7961C111.201 33.2861 115.111 38.6861 115.141 44.9961Z" class="pr-icon-iso-solid-stroke" stroke-linejoin="round"/> <path d="M35.7812 48.4661V45.0261" class="pr-icon-iso-solid-stroke" stroke-linejoin="round"/> <path d="M2.37109 2.72607V22.7261" class="pr-icon-iso-solid-stroke" stroke-linejoin="round"/> <path d="M42.3311 32.2461C40.6011 33.7561 39.2109 35.3261 38.1809 36.9461C36.1309 40.1061 35.3909 43.4761 35.9709 47.0461C36.0709 47.6461 36.2009 48.2261 36.3809 48.8061L35.781 48.4661L18.291 38.3661V18.3661L25.9009 22.7561L41.791 31.9361L42.3311 32.2461Z" class="pr-icon-iso-solid-stroke" stroke-linejoin="round"/> <path d="M47.4106 11.946V22.276L29.4707 11.916L47.4106 11.946Z" class="pr-icon-iso-solid-stroke" stroke-linejoin="round"/>
</svg>