<svg width="48" height="48" viewBox="0 0 125 94" fill="#229EFF" xmlns="http://www.w3.org/2000/svg" stroke-width="1px" stroke-linecap="round" stroke-linejoin="round"><path d="M113.659 51.92V71.92L105.109 66.99V46.99L105.329 47.12L113.549 51.86L113.659 51.92Z" stroke="white" stroke-linejoin="round"/><path d="M122.15 47.02V67.02L113.66 71.92V51.92L121.82 47.21L122.04 47.08L122.15 47.02Z" stroke="white" stroke-linejoin="round"/><path d="M88.1797 66.63V86.63L79.6797 91.53V71.53L88.1797 66.63Z" stroke="white" stroke-linejoin="round"/><path d="M11.3094 32.06V41.93L2.86951 46.8V47.19L2.76953 47.13V27.13L11.3094 32.06Z" stroke="white" stroke-linejoin="round"/><path d="M45.2302 2.60999L36.7402 7.51001L45.2903 12.45L53.7803 7.54001L45.2302 2.60999ZM79.3102 2.67001L70.8202 7.57001L79.3602 12.51L87.8602 7.60001L79.3102 2.67001Z" stroke="white" stroke-linejoin="round"/><path d="M122.04 27.34L113.55 32.24L105 27.31L113.5 22.41L122.04 27.34Z" stroke="white" stroke-linejoin="round"/><path d="M88.1786 66.6299L79.6786 71.5299L71.1387 66.5999L79.6287 61.7L88.1786 66.6299Z" stroke="white" stroke-linejoin="round"/><path d="M54.0986 66.57L45.6086 71.47L37.0586 66.54L45.5487 61.64L54.0986 66.57Z" stroke="white" stroke-linejoin="round"/><path d="M19.8094 27.16L11.3094 32.06L2.76953 27.13L11.2595 22.22L19.8094 27.16Z" stroke="white" stroke-linejoin="round"/><path d="M104.999 37.12V37.18L87.7394 47.15L62.5894 61.67L37.1793 46.99L19.8594 36.99L36.7394 27.25L45.2894 22.31L53.7794 17.41L62.3193 12.48L70.8193 17.39L79.3594 22.32L87.8594 27.22L104.999 37.12Z" stroke="white" stroke-linejoin="round"/><path d="M53.7791 7.54004V17.41L45.2891 22.31V12.45L53.7791 7.54004Z" stroke="white" stroke-linejoin="round"/><path d="M45.2903 12.45V22.31L36.7402 27.25V7.51001L45.2903 12.45Z" stroke="white" stroke-linejoin="round"/><path d="M87.8594 7.59998V27.22L79.3594 22.32V12.51L87.8594 7.59998Z" stroke="white" stroke-linejoin="round"/><path d="M79.3604 12.51V22.32L70.8203 17.39V7.57001L79.3604 12.51Z" stroke="white" stroke-linejoin="round"/><path d="M88.1798 66.8999V66.6299L79.6299 61.7L71.1399 66.5999V76.7299L62.5898 81.67V61.67L87.7399 47.1499L105 37.1799V47.3099L105.03 47.3299L105.06 57.1499L88.1798 66.8999Z" stroke="white" stroke-linejoin="round"/><path d="M113.55 32.24V42.11L105.11 46.99V47.37L105.03 47.33L105 47.31V27.31L113.55 32.24Z" stroke="white" stroke-linejoin="round"/><path d="M122.149 47.02L122.039 47.08L121.819 47.21L113.659 51.92L113.549 51.86L105.329 47.12L105.109 46.99L113.549 42.11L113.599 42.08L122.039 46.96L122.149 47.02Z" stroke="white" stroke-linejoin="round"/><path d="M122.039 27.34V46.96L113.599 42.08L113.549 42.11V32.24L122.039 27.34Z" stroke="white" stroke-linejoin="round"/><path d="M79.6786 71.53V91.53L71.1387 86.6V66.6L79.6786 71.53Z" stroke="white" stroke-linejoin="round"/><path d="M54.0994 66.5701V86.5701L45.6094 91.4701V71.4701L54.0994 66.5701Z" stroke="white" stroke-linejoin="round"/><path d="M45.6086 71.47V91.47L37.0586 86.54V66.54L45.6086 71.47Z" stroke="white" stroke-linejoin="round"/><path d="M62.5894 61.67V81.67L54.0994 76.77V66.57L45.5494 61.64L37.0593 66.54V66.92L19.9094 57.02V46.83L19.8594 46.8V36.99L37.1793 46.99L62.5894 61.67Z" stroke="white" stroke-linejoin="round"/><path d="M19.9099 46.83V66.83L11.4199 71.74V51.74L19.5698 47.02L19.8098 46.89L19.8599 46.86L19.9099 46.83Z" stroke="white" stroke-linejoin="round"/><path d="M11.4192 51.7401V71.7401L2.86914 66.8V46.8L3.10913 46.9401L11.3091 51.6801L11.4192 51.7401Z" stroke="white" stroke-linejoin="round"/><path d="M19.9092 46.83L19.8591 46.86L19.8091 46.89L19.5691 47.02L11.4192 51.74L11.3091 51.68L3.10913 46.94L2.86914 46.8L11.3091 41.93L11.3691 41.9L19.8091 46.77L19.8591 46.8L19.9092 46.83Z" stroke="white" stroke-linejoin="round"/><path d="M19.8086 27.16V46.77L11.3687 41.9L11.3086 41.93V32.06L19.8086 27.16Z" stroke="white" stroke-linejoin="round"/></svg>