<svg width="24" height="24" viewBox="0 0 131 98" xmlns="http://www.w3.org/2000/svg" stroke-width="1px"  stroke-linecap="round" stroke-linejoin="round"> <path d="M108.761 60.73L108.801 60.75V60.71L108.761 60.73ZM62.1406 59.88V59.92L62.1806 59.9L62.1406 59.88Z" class="pr-icon-iso-solid-stroke" stroke-linejoin="round"/> <path d="M55.5304 76.02L55.4904 76.04L55.5304 76.06V83.74L42.1504 76.01V56.01L52.0804 61.75L55.5304 63.74V76.02Z" class="pr-icon-iso-solid-stroke" stroke-linejoin="round"/> <path d="M62.1406 59.88V59.92L62.1806 59.9L62.1406 59.88Z" class="pr-icon-iso-solid-stroke" stroke-linejoin="round"/> <path d="M88.9007 67.65L75.6007 75.33L68.8307 71.42L68.8007 71.4L62.2207 67.6L68.1707 64.17L68.8307 63.78L68.8707 63.76L75.5607 67.63L81.5107 64.19L82.2107 63.79L86.0407 66L88.9007 67.65Z" class="pr-icon-iso-solid-stroke" stroke-linejoin="round"/> <path d="M55.4904 56.04L62.1404 59.88V59.92L61.4804 60.31L55.5304 63.74L52.0804 61.75L42.1504 56.01L48.1004 52.58L52.0804 50.28L54.7504 48.74L55.4504 48.34L62.1404 52.2L61.4404 52.6L55.4904 56.04Z" class="pr-icon-iso-solid-stroke" stroke-linejoin="round"/> <path d="M48.6097 17.52L28.6598 29.04L35.9398 33.24L41.9998 36.74L45.9798 39.04L52.0797 42.56L41.9998 48.38L35.4597 52.15L29.3698 48.63L19.3297 42.84L2.00977 32.84L55.1898 2.13L88.6497 21.44L72.0197 31.04L48.6097 17.52Z" class="pr-icon-iso-solid-stroke" stroke-linejoin="round"/> <path d="M108.719 33.03L102.069 36.87L95.3791 33.01L88.7291 36.85L88.649 36.8L82.0391 32.98L88.649 29.17L95.3391 25.31L108.719 33.03Z" class="pr-icon-iso-solid-stroke" stroke-linejoin="round"/> <path d="M128.79 44.62L115.49 52.3L108.8 48.43L115.45 44.6L108.76 40.73L115.41 36.89L128.79 44.62Z" class="pr-icon-iso-solid-stroke" stroke-linejoin="round"/> <path d="M95.5 56.11L90.03 56.1H88.73L87.42 56.09L68.83 56.06L68.8 50.67L71.37 50.66H72.68L79.38 50.64L76.05 48.72L72.02 46.39L48.61 32.88L42.59 29.4L42 29.06L48.61 25.24L48.65 25.22L49.24 25.56L72.02 38.71L82.04 44.5L82.7 44.88L86.03 46.8L86.06 42.93L86.08 40.69H87.36L88.65 40.7H88.73L95.38 40.71H95.42L95.44 45.37L95.48 53.07L95.5 56.11Z" class="pr-icon-iso-solid-stroke" stroke-linejoin="round"/> <path d="M128.79 44.62V64.62L115.49 72.3V52.3L128.79 44.62Z" class="pr-icon-iso-solid-stroke" stroke-linejoin="round"/> <path d="M115.489 52.3V72.3L108.799 68.43V48.43L115.489 52.3Z" class="pr-icon-iso-solid-stroke" stroke-linejoin="round"/> <path d="M115.45 44.6L108.8 48.43V60.71L108.76 60.73V40.73L115.45 44.6Z" class="pr-icon-iso-solid-stroke" stroke-linejoin="round"/> <path d="M108.72 33.03V53.03L102.07 56.87V36.87L108.72 33.03Z" class="pr-icon-iso-solid-stroke" stroke-linejoin="round"/> <path d="M88.8996 67.65V87.65L75.5996 95.33V75.33L88.8996 67.65Z" class="pr-icon-iso-solid-stroke" stroke-linejoin="round"/> <path d="M75.6007 75.33V95.33L62.2207 87.6V67.6L68.8007 71.4L68.8307 71.42L75.6007 75.33Z" class="pr-icon-iso-solid-stroke" stroke-linejoin="round"/> <path d="M62.1793 59.9V79.9L55.5293 83.74V63.74L61.4793 60.31L62.1393 59.92L62.1793 59.9Z" class="pr-icon-iso-solid-stroke" stroke-linejoin="round"/> <path d="M35.4597 52.15V72.15L2.00977 52.84V32.84L19.3297 42.84L29.3698 48.63L35.4597 52.15Z" class="pr-icon-iso-solid-stroke" stroke-linejoin="round"/> <path d="M72.0194 31.04V38.71L49.2394 25.56L48.6494 25.22L48.6094 25.24V17.52L72.0194 31.04Z" class="pr-icon-iso-solid-stroke" stroke-linejoin="round"/> <path d="M88.6495 21.44V29.17L82.0396 32.98V44.5L72.0195 38.71V31.04L88.6495 21.44Z" class="pr-icon-iso-solid-stroke" stroke-linejoin="round"/> <path d="M88.7291 36.85V40.7H88.649L87.359 40.69H86.079L86.0591 42.93L86.0291 46.8L82.6991 44.88L82.0391 44.5V32.98L88.649 36.8L88.7291 36.85Z" class="pr-icon-iso-solid-stroke" stroke-linejoin="round"/> <path d="M95.3805 33.01V40.71L88.7305 40.7V36.85L95.3805 33.01Z" class="pr-icon-iso-solid-stroke" stroke-linejoin="round"/> <path d="M102.069 36.87V56.87L95.4789 53.07L95.4389 45.37L95.4189 40.71H95.3789V33.01L102.069 36.87Z" class="pr-icon-iso-solid-stroke" stroke-linejoin="round"/> <path d="M95.5001 56.11V76.11L88.9001 76.1V67.65L86.0401 66L82.2101 63.79L81.5101 64.19L75.5601 67.63L68.8701 63.76L68.8301 63.78V56.06L87.4201 56.09L88.7301 56.1H90.0301L95.5001 56.11Z" class="pr-icon-iso-solid-stroke" stroke-linejoin="round"/> <path d="M48.6101 17.52V25.24L42.0002 29.06V36.74L35.9402 33.24L28.6602 29.04L48.6101 17.52Z" class="pr-icon-iso-solid-stroke" stroke-linejoin="round"/> <path d="M62.1403 52.2V59.88L55.4902 56.04L61.4402 52.6L62.1403 52.2Z" class="pr-icon-iso-solid-stroke" stroke-linejoin="round"/> <path d="M79.38 50.64L72.68 50.66H71.37L68.8 50.67L68.83 56.06V63.78L68.17 64.17L62.18 60.71V59.9L62.14 59.88V52.2L55.45 48.34L54.75 48.74L52.08 50.28V42.56L45.98 39.04L42 36.74V29.06L42.59 29.4L48.61 32.88L72.02 46.39L76.05 48.72L79.38 50.64Z" class="pr-icon-iso-solid-stroke" stroke-linejoin="round"/> <path d="M52.079 42.56V50.28L48.099 52.58L42.149 56.01V68.29L35.459 72.15V52.15L41.999 48.38L52.079 42.56Z" class="pr-icon-iso-solid-stroke" stroke-linejoin="round"/>
</svg>