<svg width="24" height="24" viewBox="0 0 136 79" xmlns="http://www.w3.org/2000/svg" stroke-width="1px"  stroke-linecap="round" stroke-linejoin="round"> <path d="M86.1252 5.60016L78.1052 10.2402C71.8252 8.53016 65.2852 8.01016 58.4852 8.68016C51.6852 9.35016 45.8252 11.1002 40.9152 13.9302C38.0552 15.5902 35.8052 17.5102 34.1952 19.7102C32.5752 21.9002 31.7752 24.3202 31.7852 26.9802V28.0902L41.1552 22.6802L44.6452 24.6902L48.8552 27.1202L25.9152 40.3702L23.1252 38.7602L2.8252 27.0402L10.4752 22.6202L21.0552 28.7302L20.8552 27.0702C20.8352 23.4502 21.9352 20.1702 24.1552 17.2202C26.3752 14.2802 29.4052 11.7002 33.2252 9.49016C40.2952 5.41016 48.7252 3.00016 58.4952 2.28016C68.2752 1.56016 77.4852 2.67016 86.1252 5.60016Z" class="pr-icon-iso-solid-stroke" stroke-linejoin="round"/> <path d="M115.225 31.7703V51.6703C115.245 55.2903 114.145 58.5703 111.925 61.5203C109.705 64.4703 106.685 67.0403 102.855 69.2503C95.7851 73.3403 87.3651 75.7403 77.5851 76.4603C67.8051 77.1803 58.5951 76.0703 49.9551 73.1403V53.1403C52.6551 54.0503 55.4051 54.7903 58.2151 55.3503C64.4051 56.5803 70.8551 56.9603 77.5851 56.4603C82.5551 56.0903 87.1751 55.2903 91.4451 54.0603C92.6351 53.7203 93.7951 53.3403 94.9251 52.9203C97.7351 51.9103 100.375 50.6803 102.855 49.2503C106.685 47.0403 109.705 44.4703 111.925 41.5203C112.305 41.0203 112.645 40.5103 112.955 39.9903C114.465 37.4803 115.225 34.7403 115.225 31.7703Z" class="pr-icon-iso-solid-stroke" stroke-linejoin="round"/> <path d="M91.005 20.5601L86.125 23.3801L83.635 24.8101L78.105 28.0101L75.375 29.5801L68.065 33.8001L60.375 29.3601L61.955 28.4501L72.215 22.5201L78.105 19.1201L83.315 16.1101L86.125 17.7401L91.005 20.5601Z" class="pr-icon-iso-solid-stroke" stroke-linejoin="round"/> <path d="M25.9152 40.3703V60.3703L2.8252 47.0403V27.0403L23.1252 38.7603L25.9152 40.3703Z" class="pr-icon-iso-solid-stroke" stroke-linejoin="round"/> <path d="M86.125 5.6001V17.7401L83.315 16.1101L78.105 19.1201V10.2401L86.125 5.6001Z" class="pr-icon-iso-solid-stroke" stroke-linejoin="round"/> <path d="M58.2153 38.2103C58.2153 39.0603 57.6753 39.8003 56.5953 40.4203C55.5153 41.0503 54.2353 41.3603 52.7653 41.3603C51.2953 41.3503 50.0153 41.0403 48.9253 40.4103C48.8953 40.4003 48.8753 40.3803 48.8553 40.3703C47.8053 39.7503 47.2853 39.0203 47.2853 38.1903C47.2753 37.3503 47.7953 36.6203 48.8553 36.0103C48.8653 36.0103 48.8853 35.9903 48.9053 35.9803C49.9853 35.3503 51.2653 35.0403 52.7353 35.0503C54.2053 35.0503 55.4853 35.3603 56.5753 35.9903C57.6653 36.6203 58.2053 37.3603 58.2153 38.2103Z" class="pr-icon-iso-solid-stroke" stroke-linejoin="round"/> <path d="M78.1053 10.2401V19.1201L72.2153 22.5201L61.9553 28.4501C60.8053 28.4901 59.6453 28.5601 58.4853 28.6801C55.0353 29.0201 51.8153 29.6401 48.8553 30.5301V27.1201L44.6453 24.6901L41.1553 22.6801L31.7953 28.0901V26.9801C31.7753 24.3201 32.5753 21.9001 34.1953 19.7101C35.8053 17.5101 38.0553 15.5901 40.9153 13.9301C45.8253 11.1001 51.6853 9.35014 58.4853 8.68014C65.2853 8.01014 71.8253 8.53014 78.1053 10.2401Z" class="pr-icon-iso-solid-stroke" stroke-linejoin="round"/> <path d="M48.855 27.1201V36.0101C47.795 36.6201 47.275 37.3501 47.285 38.1901V48.0301L25.915 60.3701V40.3701L48.855 27.1201Z" class="pr-icon-iso-solid-stroke" stroke-linejoin="round"/> <path d="M58.2152 38.2102V48.5702C58.1352 48.5502 58.0652 48.5302 57.9852 48.5102L49.9552 53.1402V60.8802C49.5952 60.7602 49.2552 60.6002 48.9252 60.4102C47.8352 59.7802 47.2852 59.0402 47.2852 58.1902V38.1902C47.2852 39.0202 47.8052 39.7502 48.8552 40.3702C48.8752 40.3802 48.8952 40.4002 48.9252 40.4102C50.0152 41.0402 51.2952 41.3502 52.7652 41.3602C54.2352 41.3602 55.5152 41.0502 56.5952 40.4202C57.6752 39.8002 58.2152 39.0602 58.2152 38.2102Z" class="pr-icon-iso-solid-stroke" stroke-linejoin="round"/> <path d="M125.605 36.1203V56.1203L115.225 50.1303V31.6703L115.025 30.0103L125.605 36.1203Z" class="pr-icon-iso-solid-stroke" stroke-linejoin="round"/> <path d="M133.255 31.7002V51.7002L125.605 56.1202V36.1202L133.255 31.7002Z" class="pr-icon-iso-solid-stroke" stroke-linejoin="round"/> <path d="M104.295 30.6501V31.7601C104.315 34.4201 103.505 36.8401 101.895 39.0401C100.275 41.2301 98.0353 43.1501 95.1653 44.8101C95.0853 44.8601 95.0053 44.9001 94.9253 44.9401V36.0601L104.295 30.6501Z" class="pr-icon-iso-solid-stroke" stroke-linejoin="round"/> <path d="M68.065 33.8001V50.2101C65.575 50.0401 63.125 49.6901 60.715 49.1601C60.595 49.1501 60.485 49.1301 60.375 49.0901V29.3601L68.065 33.8001Z" class="pr-icon-iso-solid-stroke" stroke-linejoin="round"/> <path d="M91.0054 20.5601V29.4401L87.2254 31.6201V42.7401L74.1454 50.2901C72.0954 50.3801 70.0654 50.3501 68.0654 50.2101V33.8001L75.3755 29.5801L78.1054 28.0101L83.6354 24.8101L86.1255 23.3801L91.0054 20.5601Z" class="pr-icon-iso-solid-stroke" stroke-linejoin="round"/> <path d="M125.605 36.1201L115.025 30.0101L115.225 31.6701V31.7701C115.225 34.7401 114.465 37.4801 112.955 39.9901C112.645 40.5101 112.305 41.0201 111.925 41.5201C109.705 44.4701 106.685 47.0401 102.855 49.2501C100.375 50.6801 97.7351 51.9101 94.9251 52.9201C93.7951 53.3401 92.6351 53.7201 91.4451 54.0601C87.1751 55.2901 82.5551 56.0901 77.5851 56.4601C70.8551 56.9601 64.4051 56.5801 58.2151 55.3501C55.4051 54.7901 52.6551 54.0501 49.9551 53.1401L57.9851 48.5101C58.0651 48.5301 58.1351 48.5501 58.2151 48.5701C58.9251 48.7601 59.6451 48.9401 60.3751 49.0901C60.4851 49.1301 60.5951 49.1501 60.7151 49.1601C63.1251 49.6901 65.5751 50.0401 68.0651 50.2101C70.0651 50.3501 72.0951 50.3801 74.1451 50.2901C75.2851 50.2501 76.4351 50.1701 77.5951 50.0601C81.0551 49.7201 84.2651 49.1001 87.2251 48.2101C90.0051 47.3601 92.5751 46.2801 94.9251 44.9401C95.0051 44.9001 95.0851 44.8601 95.1651 44.8101C98.0351 43.1501 100.275 41.2301 101.895 39.0401C103.505 36.8401 104.315 34.4201 104.295 31.7601V30.6501L94.9251 36.0601L91.0051 33.8001L87.2251 31.6201L91.0051 29.4401L110.165 18.3801L133.255 31.7001L125.605 36.1201Z" class="pr-icon-iso-solid-stroke" stroke-linejoin="round"/> <path d="M94.9251 36.0601V44.9401C92.5751 46.2801 90.0051 47.3601 87.2251 48.2101V31.6201L91.0051 33.8001L94.9251 36.0601Z" class="pr-icon-iso-solid-stroke" stroke-linejoin="round"/>
</svg>