<svg width="48" height="48" viewBox="0 0 130 97" xmlns="http://www.w3.org/2000/svg" stroke-width="1px"  stroke-linecap="round" stroke-linejoin="round"> <path d="M58.0801 2.02002L2.58008 34.07L19.9001 44.07L72.3901 74.37L89.7501 64.35L103.63 56.34L110.57 52.33L127.89 42.33L58.0801 2.02002ZM103.6 48.3L100.1 50.32L89.5402 44.22L75.6602 36.21L79.1602 34.19L89.5402 28.2L113.97 42.31L103.6 48.3Z" class="pr-icon-iso-solid-stroke" stroke-linejoin="round"/> <path d="M89.5402 28.2V44.22L75.6602 36.21L79.1602 34.19L89.5402 28.2Z" class="pr-icon-iso-solid-stroke" stroke-linejoin="round"/> <path d="M113.97 42.31L103.6 48.3L100.1 50.32L89.54 44.22V28.2L113.97 42.31Z" class="pr-icon-iso-solid-stroke" stroke-linejoin="round"/> <path d="M127.891 42.33V62.33L72.3906 94.37V74.37L89.7506 64.35L103.631 56.34L110.571 52.33L127.891 42.33Z" class="pr-icon-iso-solid-stroke" stroke-linejoin="round"/> <path d="M72.3901 74.37V94.37L2.58008 54.07V34.07L19.9001 44.07L72.3901 74.37Z" class="pr-icon-iso-solid-stroke" stroke-linejoin="round"/>
</svg>