<svg width="48" height="48" viewBox="0 0 136 100" fill="#229EFF" xmlns="http://www.w3.org/2000/svg" stroke-width="1px" stroke-linecap="round" stroke-linejoin="round"><path d="M67.6316 2.1001L2.18164 39.89L19.5017 49.89L26.8218 54.1101L68.0417 77.91L83.4517 69.02L97.9917 60.6201L105.272 56.42L116.182 50.1201L133.502 40.1201L67.6316 2.1001ZM90.6716 56.39L76.1316 64.79L68.0017 69.4901L34.1016 49.91L26.7817 45.6901L16.7717 39.91L42.2317 25.2201L52.2317 30.9901L85.1616 50.01L93.4517 54.79L90.6716 56.39ZM105.202 43.78L104.342 44.28L89.6616 35.8101L82.3816 31.6101L83.2417 31.1101L89.6616 27.41L111.612 40.0801L105.202 43.78Z" stroke="white" stroke-linejoin="round"/><path d="M89.6609 27.41V35.8101L82.3809 31.6101L83.241 31.1101L89.6609 27.41Z" stroke="white" stroke-linejoin="round"/><path d="M111.612 40.0801L105.202 43.78L104.342 44.28L89.6621 35.8101V27.41L111.612 40.0801Z" stroke="white" stroke-linejoin="round"/><path d="M133.501 40.1201V60.1201L68.041 97.91V77.91L83.4509 69.02L97.991 60.6201L105.271 56.42L116.181 50.1201L133.501 40.1201Z" stroke="white" stroke-linejoin="round"/><path d="M68.0417 77.91V97.91L2.18164 59.89V39.89L19.5017 49.89L26.8218 54.1101L68.0417 77.91Z" stroke="white" stroke-linejoin="round"/><path d="M93.4524 54.79L90.6724 56.39L76.1323 64.79L42.2324 45.2201V25.2201L52.2324 30.9901L85.1624 50.01L93.4524 54.79Z" stroke="white" stroke-linejoin="round"/><path d="M42.2314 25.2201V45.2201L34.1013 49.91L26.7815 45.6901L16.7715 39.91L42.2314 25.2201Z" stroke="white" stroke-linejoin="round"/></svg>