<svg width="48" height="48" viewBox="0 0 93 96" xmlns="http://www.w3.org/2000/svg" stroke-width="1px"  stroke-linecap="round" stroke-linejoin="round"> <path d="M27.4004 42.6448V42.8649L27.7004 42.7848C27.6004 42.7348 27.5004 42.6948 27.4004 42.6448Z" class="pr-icon-iso-solid-stroke" stroke-linejoin="round"/> <path d="M63.2002 28.1748V43.9949C62.2802 44.3149 61.3402 44.5948 60.3802 44.8448V39.8148L57.4902 38.1448L61.6802 30.8248L63.2002 28.1748Z" class="pr-icon-iso-solid-stroke" stroke-linejoin="round"/> <path d="M54.6397 43.1348V45.9648C54.0697 46.0448 53.4997 46.1048 52.9197 46.1648C51.3897 46.3148 49.8097 46.4048 48.1797 46.4348V39.4048L49.4697 40.1548L54.6397 43.1348Z" class="pr-icon-iso-solid-stroke" stroke-linejoin="round"/> <path d="M33.0904 37.325V44.6749C31.2104 44.1549 29.4104 43.5249 27.7004 42.7849C27.6004 42.7349 27.5004 42.6949 27.4004 42.6449V34.0449L31.6404 36.485L33.0904 37.325Z" class="pr-icon-iso-solid-stroke" stroke-linejoin="round"/> <path d="M52.5002 73.3047V93.3047L41.7402 93.2847V73.2847L52.3802 73.3047H52.5002Z" class="pr-icon-iso-solid-stroke" stroke-linejoin="round"/> <path d="M27.4004 42.6448V42.8649L27.7004 42.7848C27.6004 42.7348 27.5004 42.6948 27.4004 42.6448Z" class="pr-icon-iso-solid-stroke" stroke-linejoin="round"/> <path d="M25.7491 13.1848V18.1249L23.7691 18.6748L18.0391 15.3649V8.73486L25.7491 13.1848Z" class="pr-icon-iso-solid-stroke" stroke-linejoin="round"/> <path d="M61.6796 30.825L57.4896 38.1449L60.3796 39.8149L54.6396 43.1349L49.4696 40.1549L48.1796 39.4049L51.4696 33.6649L52.6496 31.595L49.4896 32.5249L33.0896 37.325L31.6396 36.485L27.3996 34.0449L29.7396 31.5149L37.6196 22.985L41.2496 19.0449L25.7496 23.325L22.0696 24.335L18.0396 22.0049L2.59961 13.095L8.34961 9.7749L18.0396 15.365L23.7696 18.6749L25.7496 18.125L48.3196 11.845L54.0996 15.1849L47.3196 22.475L41.2096 29.0249L40.4396 29.855L43.8796 28.835L54.0996 25.8149L57.4196 24.835L63.1996 28.1749L61.6796 30.825Z" class="pr-icon-iso-solid-stroke" stroke-linejoin="round"/> <path d="M52.6498 31.5947L51.4698 33.6647L48.1798 39.4047V46.4347C47.7798 46.4447 47.3798 46.4447 46.9698 46.4447C45.8598 46.4447 44.7698 46.4147 43.6998 46.3547C40.8298 46.2047 38.0998 45.8346 35.5098 45.2646C34.6898 45.0946 33.8798 44.8947 33.0898 44.6747V37.3247L49.4898 32.5247L52.6498 31.5947Z" class="pr-icon-iso-solid-stroke" stroke-linejoin="round"/> <path d="M90.4795 27.6748C90.4795 27.9848 90.4695 28.2948 90.4595 28.6048C90.2895 31.8748 89.1195 34.9248 86.9495 37.7348C85.0795 40.1748 82.4695 42.4448 79.0995 44.5548C78.6495 44.8348 78.1795 45.1148 77.6995 45.3948C74.1295 47.4548 70.1795 49.0648 65.8695 50.2248C64.4095 50.6148 62.9395 50.9547 61.4395 51.2547C61.0895 51.3247 60.7295 51.3948 60.3795 51.4548C58.4995 51.7948 56.5895 52.0647 54.6395 52.2547C53.8895 52.3347 53.1395 52.3948 52.3795 52.4448L52.4295 61.8648L52.4595 66.2048L52.4895 72.4348V73.3048H52.3795L41.7395 73.2848L41.6995 66.2048L41.6295 54.8248V52.4248C38.7095 52.2148 35.8695 51.8448 33.0895 51.3148C32.1995 51.1348 31.3195 50.9448 30.4495 50.7348C29.6595 50.5648 28.8895 50.3648 28.1195 50.1548C27.8795 50.0848 27.6395 50.0248 27.3995 49.9448C23.3495 48.8048 19.6195 47.2448 16.2295 45.2848C10.7695 42.1348 7.06952 38.5548 5.11952 34.5448C4.99952 34.3048 4.87953 34.0648 4.77953 33.8148C4.54953 33.2648 4.33951 32.7248 4.16951 32.1848C3.68951 30.6748 3.4295 29.1748 3.4095 27.6748C3.3795 25.4448 3.86951 23.2248 4.85951 21.0248L14.2995 26.4748C14.1195 29.1048 14.8095 31.6547 16.3595 34.1347C16.4495 34.2747 16.5395 34.4148 16.6395 34.5548C17.8895 36.4148 19.6995 38.1448 22.0695 39.7348C22.6495 40.1148 23.2495 40.4948 23.8895 40.8648C25.0195 41.5148 26.1895 42.1148 27.3995 42.6448V42.8648L27.6995 42.7848C29.4095 43.5248 31.2095 44.1548 33.0895 44.6748C33.8795 44.8948 34.6895 45.0947 35.5095 45.2647C38.0995 45.8347 40.8295 46.2048 43.6995 46.3548C44.7695 46.4148 45.8595 46.4448 46.9695 46.4448C47.3795 46.4448 47.7795 46.4448 48.1795 46.4348C49.8095 46.4048 51.3895 46.3148 52.9195 46.1648C53.4995 46.1048 54.0695 46.0448 54.6395 45.9648C55.8895 45.8048 57.1095 45.5948 58.2995 45.3448C58.9995 45.1948 59.6995 45.0248 60.3795 44.8448C61.3395 44.5948 62.2795 44.3149 63.1995 43.9949C65.6095 43.1849 67.8695 42.1648 69.9895 40.9448C71.7595 39.9248 73.2895 38.8348 74.5695 37.6948C76.9195 35.6148 78.4295 33.3348 79.0995 30.8548C79.3995 29.8248 79.5395 28.7548 79.5295 27.6548C79.4995 22.4748 76.2695 18.0348 69.8495 14.3248C63.8095 10.8348 56.5695 8.99478 48.1095 8.79478C39.6595 8.59478 32.1995 10.0548 25.7495 13.1848L18.0395 8.73484C26.6695 4.35484 36.6795 2.26483 48.0795 2.47483C59.4795 2.67483 69.2895 5.15476 77.5095 9.90476C85.8295 14.7048 90.1495 20.4049 90.4595 26.9949V27.0348C90.4695 27.2448 90.4795 27.4648 90.4795 27.6748Z" class="pr-icon-iso-solid-stroke" stroke-linejoin="round"/> <path d="M22.0696 24.3347V39.7347C19.6996 38.1447 17.8896 36.4147 16.6396 34.5547C16.5396 34.4147 16.4496 34.2746 16.3596 34.1346C14.8096 31.6546 14.1196 29.1047 14.2996 26.4747L4.85962 21.0247C3.86962 23.2247 3.37961 25.4447 3.40961 27.6747V33.5647L2.59961 33.0947V13.0947L18.0396 22.0046L22.0696 24.3347Z" class="pr-icon-iso-solid-stroke" stroke-linejoin="round"/> <path d="M41.7402 73.2848V93.2848L41.6202 72.4248C36.9502 72.0848 32.4402 71.3348 28.1202 70.1548C23.7902 68.9848 19.8202 67.3648 16.2302 65.2848C10.4402 61.9448 6.63018 58.1248 4.78018 53.8148C3.90018 51.7548 3.44016 49.7048 3.41016 47.6748V27.6748C3.43016 29.1748 3.69017 30.6748 4.17017 32.1848C4.34017 32.7248 4.55018 33.2648 4.78018 33.8148C4.88018 34.0648 5.00018 34.3048 5.12018 34.5448C7.07018 38.5548 10.7702 42.1348 16.2302 45.2848C19.6202 47.2448 23.3502 48.8048 27.4002 49.9448C27.6402 50.0248 27.8802 50.0848 28.1202 50.1548C28.8902 50.3648 29.6602 50.5649 30.4502 50.7349C31.3202 50.9449 32.2002 51.1348 33.0902 51.3148C35.8702 51.8448 38.7102 52.2148 41.6202 52.4248V54.8248L41.7002 66.2048L41.7402 73.2848Z" class="pr-icon-iso-solid-stroke" stroke-linejoin="round"/> <path d="M41.2503 19.0449L37.6203 22.985L29.7403 31.5149L27.4003 34.0449V42.6449C26.1903 42.1149 25.0203 41.515 23.8903 40.865C23.2503 40.495 22.6503 40.115 22.0703 39.735V24.335L25.7503 23.325L41.2503 19.0449Z" class="pr-icon-iso-solid-stroke" stroke-linejoin="round"/> <path d="M90.4789 47.6749C90.4789 47.9649 90.4789 48.2549 90.4589 48.5449C90.1489 55.0349 85.8989 60.6649 77.6989 65.3949C74.1289 67.4549 70.1789 69.065 65.8689 70.225C61.5789 71.375 57.1289 72.1149 52.4889 72.4349L52.4589 66.205L52.4289 61.865L52.3789 52.4449C53.1389 52.3949 53.8889 52.3349 54.6389 52.2549C56.5889 52.0649 58.4989 51.795 60.3789 51.455C60.7289 51.395 61.0889 51.3249 61.4389 51.2549C62.9389 50.9549 64.4089 50.615 65.8689 50.225C70.1789 49.065 74.1289 47.4549 77.6989 45.3949C78.1789 45.1149 78.6489 44.8349 79.0989 44.5549C82.4689 42.4449 85.0789 40.175 86.9489 37.735C89.1189 34.925 90.2889 31.875 90.4589 28.605V47.0049C90.4689 47.2249 90.4789 47.4549 90.4789 47.6749Z" class="pr-icon-iso-solid-stroke" stroke-linejoin="round"/> <path d="M60.3787 39.8149V44.845C59.6987 45.025 58.9987 45.195 58.2987 45.345C57.1087 45.595 55.8887 45.805 54.6387 45.965V43.1349L60.3787 39.8149Z" class="pr-icon-iso-solid-stroke" stroke-linejoin="round"/> <path d="M54.0995 15.1848V25.8148L43.8795 28.8348L40.4395 29.8549L41.2095 29.0248L47.3195 22.4749L54.0995 15.1848Z" class="pr-icon-iso-solid-stroke" stroke-linejoin="round"/> <path d="M79.53 27.6549C79.54 28.7549 79.4 29.825 79.1 30.855C78.43 33.335 76.92 35.615 74.57 37.695C73.26 36.505 71.68 35.385 69.85 34.325C67.78 33.125 65.56 32.1249 63.2 31.3149V28.1749L57.42 24.835L54.1 25.8149V15.1849L48.32 11.845L25.75 18.125V13.1849C32.2 10.0549 39.66 8.59493 48.11 8.79493C56.57 8.99493 63.81 10.835 69.85 14.325C76.27 18.035 79.5 22.4749 79.53 27.6549Z" class="pr-icon-iso-solid-stroke" stroke-linejoin="round"/>
</svg>