<svg width="24" height="24" viewBox="0 0 113 77" xmlns="http://www.w3.org/2000/svg" stroke-width="1px"  stroke-linecap="round" stroke-linejoin="round"> <path d="M91.6605 43.1696V63.1696L81.9905 57.5897V44.8896L77.1905 42.1096L75.4705 41.1197C74.9905 41.5197 74.5505 41.8696 74.1305 42.1696C73.7005 42.4796 73.2005 42.7997 72.6205 43.1297C72.6005 43.1397 72.5805 43.1497 72.5605 43.1597V32.1396L83.5105 38.4697L91.6605 43.1696Z" class="pr-icon-iso-solid-stroke" stroke-linejoin="round"/> <path d="M110.06 26.7297V46.7097C110.06 48.1397 109.21 49.3597 107.48 50.3597V34.0397L104.3 32.1997L107.46 30.3697C109.19 29.3797 110.06 28.1597 110.06 26.7297Z" class="pr-icon-iso-solid-stroke" stroke-linejoin="round"/> <path d="M56.7103 33.9397V48.4097C54.1503 48.7997 51.5403 49.0497 48.8603 49.1397L47.2403 43.0897L44.0503 41.2497L45.7103 40.2897L50.3003 37.6397L56.7103 33.9397Z" class="pr-icon-iso-solid-stroke" stroke-linejoin="round"/> <path d="M107.42 23.0398C105.67 22.0298 103.55 21.5198 101.07 21.5198C98.59 21.5198 96.47 22.0198 94.73 23.0198L91.5601 24.8498L88.38 23.0098L86.92 23.8498L77.35 29.3698L72.5601 32.1398L83.51 38.4698L91.66 43.1698L107.48 34.0398L104.3 32.1998L107.46 30.3698C109.19 29.3798 110.06 28.1598 110.06 26.7298V26.7098C110.05 25.2798 109.17 24.0498 107.42 23.0398ZM104.28 28.5298L101.11 30.3598L94.75 26.6798L97.91 24.8598C98.81 24.3398 99.86 24.0798 101.08 24.0798C102.3 24.0798 103.36 24.3498 104.26 24.8698C105.16 25.3898 105.61 25.9998 105.62 26.6998C105.62 27.4098 105.17 28.0198 104.28 28.5298Z" class="pr-icon-iso-solid-stroke" stroke-linejoin="round"/> <path d="M105.62 26.6996C105.62 27.4096 105.17 28.0196 104.28 28.5296L101.11 30.3596L94.75 26.6796L97.91 24.8596C98.81 24.3396 99.86 24.0796 101.08 24.0796C102.3 24.0796 103.36 24.3496 104.26 24.8696C105.16 25.3896 105.61 25.9996 105.62 26.6996Z" class="pr-icon-iso-solid-stroke" stroke-linejoin="round"/> <path d="M75.4701 41.1197C74.9901 41.5197 74.5501 41.8697 74.1301 42.1697C73.7001 42.4797 73.2002 42.7997 72.6202 43.1297C72.6002 43.1397 72.5802 43.1497 72.5602 43.1597C72.5502 43.1697 72.5301 43.1797 72.5201 43.1897C72.0501 43.4597 71.5601 43.7197 71.0701 43.9697C68.1601 45.4797 64.9901 46.6397 61.5401 47.4597C59.9501 47.8397 58.3402 48.1497 56.7102 48.4097C54.1502 48.7997 51.5401 49.0497 48.8601 49.1397L47.2402 43.0897L44.0501 41.2497L45.7102 40.2897L50.3001 37.6397L56.7102 33.9397L50.3001 30.2397L40.7501 24.7297L37.8801 23.0797L34.4201 21.0797L40.7501 17.4297L49.7201 22.6097L50.3001 22.9397L50.7901 22.6597L59.7901 17.4597L72.5201 24.8097L86.9201 16.4997C85.8501 15.3397 84.6601 14.2397 83.3301 13.1997C82.0001 12.1597 80.4901 11.1497 78.7901 10.1697C74.4401 7.64967 69.5002 5.7597 63.9602 4.4797C58.4302 3.2097 52.7801 2.55968 47.0201 2.54968C41.2501 2.53968 35.6201 3.15969 30.1301 4.39969C24.6401 5.63969 19.7001 7.52968 15.3301 10.0497C11.0001 12.5497 7.75014 15.3897 5.57014 18.5797C3.40014 21.7597 2.32015 25.0197 2.33015 28.3497C2.35015 31.6797 3.47015 34.9397 5.68015 38.1297C5.71015 38.1797 5.75014 38.2297 5.79014 38.2797C7.30014 40.4397 9.31016 42.4297 11.8102 44.2697C12.9402 45.1097 14.1801 45.9097 15.5201 46.6897C18.4301 48.3697 21.5701 49.7697 24.9501 50.8797C26.7001 51.4697 28.5101 51.9697 30.3901 52.3997C35.9001 53.6597 41.5301 54.2997 47.3001 54.3097C50.3801 54.3197 53.4202 54.1397 56.4302 53.7797C56.5302 53.7797 56.6202 53.7597 56.7102 53.7397C59.2402 53.4397 61.7401 53.0097 64.2201 52.4397C67.1701 51.7697 69.9502 50.9197 72.5602 49.8897C74.8402 48.9997 76.9802 47.9697 78.9902 46.8097L80.5701 45.8997C81.0501 45.6197 81.5202 45.2897 81.9902 44.8897L77.1901 42.1097L75.4701 41.1197ZM24.9602 32.1097L24.9902 37.5497L18.8301 41.1097C17.6101 40.1997 16.5301 39.2697 15.6001 38.2997C13.7701 36.4097 12.5001 34.4197 11.8201 32.3197C11.2601 30.6697 11.0602 28.9497 11.2102 27.1697C11.6602 21.9797 15.1501 17.4997 21.6901 13.7297C22.6401 13.1797 23.6602 12.6697 24.7402 12.1997C25.8202 11.7297 26.9101 11.2597 28.0201 10.8097L28.1001 24.8997L28.1202 28.3997L24.9501 30.2197V32.1097H24.9602Z" class="pr-icon-iso-solid-stroke" stroke-linejoin="round"/> <path d="M81.9901 44.8896V64.8896C81.5201 65.2896 81.0501 65.6196 80.5701 65.8996L78.9901 66.8096C74.6701 69.2996 69.7401 71.1796 64.2201 72.4396C58.7101 73.6996 53.0601 74.3196 47.3001 74.3096C41.5301 74.2996 35.9001 73.6596 30.3901 72.3996C24.8801 71.1396 19.9301 69.2396 15.5201 66.6896C11.1701 64.1796 7.89008 61.3296 5.68008 58.1296C3.47008 54.9396 2.35008 51.6796 2.33008 48.3496V28.3496C2.35008 31.6796 3.47008 34.9396 5.68008 38.1296C5.71008 38.1796 5.75007 38.2296 5.79007 38.2796C7.30007 40.4396 9.31009 42.4296 11.8101 44.2696C12.9401 45.1096 14.1801 45.9096 15.5201 46.6896C18.4301 48.3696 21.5701 49.7696 24.9501 50.8796C26.7001 51.4696 28.5101 51.9696 30.3901 52.3996C35.9001 53.6596 41.5301 54.2996 47.3001 54.3096C50.3801 54.3196 53.4201 54.1396 56.4301 53.7796L56.7101 53.9396V53.7396C59.2401 53.4396 61.7401 53.0096 64.2201 52.4396C67.1701 51.7696 69.9501 50.9196 72.5601 49.8896C74.8401 48.9996 76.9801 47.9696 78.9901 46.8096L80.5701 45.8996C81.0501 45.6196 81.5201 45.2896 81.9901 44.8896Z" class="pr-icon-iso-solid-stroke" stroke-linejoin="round"/> <path d="M24.9502 30.2196V32.1096C24.8902 32.1396 24.8102 32.1696 24.7402 32.1996C23.6602 32.6696 22.6402 33.1796 21.6902 33.7296C19.2202 35.1496 17.1902 36.6796 15.6002 38.2996C13.7702 36.4096 12.5002 34.4196 11.8202 32.3196C11.2602 30.6696 11.0602 28.9496 11.2102 27.1696C11.6602 21.9796 15.1502 17.4996 21.6902 13.7296C22.6402 13.1796 23.6602 12.6696 24.7402 12.1996C25.8202 11.7296 26.9102 11.2596 28.0202 10.8096L28.1002 24.8996L28.1202 28.3996L24.9502 30.2196Z" class="pr-icon-iso-solid-stroke" stroke-linejoin="round"/> <path d="M107.48 34.0398V54.0398L91.6602 63.1698V43.1698L107.48 34.0398Z" class="pr-icon-iso-solid-stroke" stroke-linejoin="round"/> <path d="M50.3 22.9397V30.2397L40.75 24.7297V17.4297L49.72 22.6097L50.3 22.9397Z" class="pr-icon-iso-solid-stroke" stroke-linejoin="round"/> <path d="M40.7499 17.4297V24.7297L37.8799 23.0797L34.4199 21.0797L40.7499 17.4297Z" class="pr-icon-iso-solid-stroke" stroke-linejoin="round"/> <path d="M59.7903 17.4597V37.4597L56.7103 39.2397V33.9397L50.3003 30.2397V22.9397L50.7903 22.6597L59.7903 17.4597Z" class="pr-icon-iso-solid-stroke" stroke-linejoin="round"/> <path d="M72.5201 24.8097V43.1897C72.0501 43.4597 71.56 43.7197 71.07 43.9697L59.79 37.4597V17.4597L72.5201 24.8097Z" class="pr-icon-iso-solid-stroke" stroke-linejoin="round"/> <path d="M86.92 16.4998V23.8498L77.35 29.3698L72.56 32.1397V43.1598C72.56 43.1598 72.53 43.1798 72.52 43.1898V24.8098L86.92 16.4998Z" class="pr-icon-iso-solid-stroke" stroke-linejoin="round"/>
</svg>