<svg width="48" height="48" viewBox="0 0 88 91" xmlns="http://www.w3.org/2000/svg" stroke-width="1px"  stroke-linecap="round" stroke-linejoin="round"> <path d="M58.5104 53.0725L65.5404 57.1226V49.0127L58.5104 53.0725ZM42.6504 55.8025V56.1125L42.9204 55.9526L42.6504 55.8025Z" class="pr-icon-iso-solid-stroke" stroke-linejoin="round"/> <path d="M38.9808 25.5625V33.7227L17.9408 45.8726V57.7126L11.0508 61.6926V41.6926L38.9808 25.5625Z" class="pr-icon-iso-solid-stroke" stroke-linejoin="round"/> <path d="M30.2711 44.8828V64.8828L23.2412 68.9429V48.9429L30.2711 44.8828Z" class="pr-icon-iso-solid-stroke" stroke-linejoin="round"/> <path d="M42.6505 52.0229V56.1128L39.1605 58.1228V70.0129L30.2705 64.8828V44.8828L35.2206 47.7329L42.6505 52.0229Z" class="pr-icon-iso-solid-stroke" stroke-linejoin="round"/> <path d="M53.241 56.1123V64.2825L51.5309 65.2725V77.1023L44.4609 81.1824V61.1824L48.2209 59.0125L53.241 56.1123Z" class="pr-icon-iso-solid-stroke" stroke-linejoin="round"/> <path d="M56.8313 68.3323V88.3323L51.5312 85.2725V65.2725L52.9413 66.0823L53.2413 66.2625L56.4713 68.1223L56.8313 68.3323Z" class="pr-icon-iso-solid-stroke" stroke-linejoin="round"/> <path d="M77.9202 56.1621L70.8002 60.2722L67.6301 62.1021L65.5402 63.302L60.6002 66.1621L56.8302 68.332L56.4702 68.1221L53.2402 66.2622L52.9402 66.082L51.5302 65.2722L53.2402 64.2822L55.2902 63.1021L56.7002 62.2822L60.3202 60.1921L56.7002 58.1021L53.2402 56.1121L48.2202 59.0122L44.4602 61.1821L42.6501 60.1321L39.1602 58.1221L42.6501 56.1121L42.9202 55.9521L49.9502 51.8921L56.7002 47.9922L60.2402 45.9521L65.5402 49.0122L58.5101 53.072L65.5402 57.1221L65.5902 57.1521L70.8002 54.1421L72.6102 53.092L77.9202 56.1621Z" class="pr-icon-iso-solid-stroke" stroke-linejoin="round"/> <path d="M85.5304 16.4121V16.5122C85.4404 19.1122 85.1904 21.552 84.7604 23.832C84.4504 25.452 84.0605 26.9822 83.5805 28.4422C81.3905 35.1222 77.3604 40.1522 71.5004 43.5322L70.8004 43.9321L38.9805 25.562L11.0504 41.6922C9.23043 40.3722 7.69045 38.992 6.45045 37.582C3.83045 34.612 2.48041 31.442 2.41041 28.062C2.39041 27.422 2.41038 26.7721 2.50038 26.1121C3.18038 20.3421 7.32043 15.2621 14.9304 10.8721C20.7904 7.48208 29.5004 5.1621 41.0604 3.8921C52.6304 2.6221 67.1704 2.41222 84.6804 3.26222C85.3704 8.03222 85.6504 12.4121 85.5304 16.4121Z" class="pr-icon-iso-solid-stroke" stroke-linejoin="round"/> <path d="M11.0508 41.6926V61.6926C5.25081 57.4726 2.36079 52.7926 2.41079 47.6326V28.0625C2.48079 31.4425 3.83083 34.6125 6.45083 37.5825C7.69083 38.9925 9.23081 40.3726 11.0508 41.6926Z" class="pr-icon-iso-solid-stroke" stroke-linejoin="round"/> <path d="M2.41016 28.0618V27.6318" class="pr-icon-iso-solid-stroke" stroke-linejoin="round"/> <path d="M83.5808 48.4417C82.3108 52.3117 80.4208 55.6316 77.9208 58.3916V56.1616L72.6108 53.0916L70.8008 54.1416V43.9316L71.5007 43.5317C77.3607 40.1517 81.3908 35.1217 83.5808 28.4417C84.0608 26.9817 84.4507 25.4515 84.7607 23.8315C85.1907 21.5515 85.4408 19.1117 85.5308 16.5117V32.7117C85.7008 38.7217 85.0508 43.9717 83.5808 48.4417Z" class="pr-icon-iso-solid-stroke" stroke-linejoin="round"/> <path d="M85.5303 36.1118V32.7119" class="pr-icon-iso-solid-stroke" stroke-linejoin="round"/> <path d="M77.92 56.1621V76.1621L56.8301 88.332V68.332L60.6001 66.1621L65.54 63.302L67.63 62.1021L70.8 60.2722L77.92 56.1621Z" class="pr-icon-iso-solid-stroke" stroke-linejoin="round"/> <path d="M44.4602 61.1821V81.1821L39.1602 78.1221V58.1221L42.6501 60.1321L44.4602 61.1821Z" class="pr-icon-iso-solid-stroke" stroke-linejoin="round"/> <path d="M60.3202 60.1924L56.7002 62.2825L55.2902 63.1023L53.2402 64.2825V56.1123L56.7002 58.1023L60.3202 60.1924Z" class="pr-icon-iso-solid-stroke" stroke-linejoin="round"/> <path d="M23.2405 48.9421V68.9421L17.9404 65.8721V45.8721L23.2405 48.9421Z" class="pr-icon-iso-solid-stroke" stroke-linejoin="round"/> <path d="M56.7004 43.9121V47.9922L49.9504 51.8921L42.9204 55.9521L42.6504 55.802V52.0222L46.4104 49.8521L56.7004 43.9121Z" class="pr-icon-iso-solid-stroke" stroke-linejoin="round"/> <path d="M39.0204 33.7021L38.9805 33.7222L17.9404 45.8721L23.2405 48.9421L30.2704 44.8821L35.2205 47.7322L42.6504 52.0222L46.4104 49.8521L56.7004 43.9121L39.0204 33.7021ZM42.6105 45.9221L38.9805 43.832L35.5404 41.842L38.9805 39.8621L39.0604 39.812L46.1304 43.8921L42.6105 45.9221Z" class="pr-icon-iso-solid-stroke" stroke-linejoin="round"/> <path d="M38.9801 39.8623V43.8323L35.54 41.8423L38.9801 39.8623Z" class="pr-icon-iso-solid-stroke" stroke-linejoin="round"/> <path d="M46.1304 43.8926L42.6105 45.9226L38.9805 43.8325V39.8625L39.0604 39.8125L46.1304 43.8926Z" class="pr-icon-iso-solid-stroke" stroke-linejoin="round"/> <path d="M70.8004 43.9326V54.1426L65.5905 57.1526L65.5404 57.1226V49.0127L60.2405 45.9526L56.7004 47.9927V43.9126L39.0204 33.7026L38.9805 33.7227V25.5625L70.8004 43.9326Z" class="pr-icon-iso-solid-stroke" stroke-linejoin="round"/>
</svg>