<svg width="48" height="48" viewBox="0 0 138 102" fill="#229EFF" xmlns="http://www.w3.org/2000/svg" stroke-width="1px" stroke-linecap="round" stroke-linejoin="round"><path d="M121.17 45.1299L111.23 50.8699L106.33 53.6999V36.5599L121.17 45.1299Z" stroke="white" stroke-linejoin="round"/><path d="M61.75 2.29993L2.75 36.3699L20.0701 46.3699L27.49 50.6499L42.3401 59.2299L72.03 76.3699L76.97 79.2199L111.27 59.4099L118.65 55.1499L135.97 45.1499L61.75 2.29993ZM32.3899 44.9699L27.4399 42.1099L17.54 36.3999L61.8 10.8499L76.6399 19.4199L66.7 25.1599L61.8 27.9899L32.3899 44.9699ZM111.23 50.8699L106.33 53.6999L76.9199 70.6799L62.0801 62.1099L96.3899 42.2999L106.33 36.5599L121.17 45.1299L111.23 50.8699Z" stroke="white" stroke-linejoin="round"/><path d="M76.97 79.2199V99.2199L2.75 56.3699V36.3699L20.0701 46.3699L27.49 50.6499L42.3401 59.2299L72.03 76.3699L76.97 79.2199Z" stroke="white" stroke-linejoin="round"/><path d="M76.6396 19.42L66.6997 25.16L61.7998 27.99V10.85L76.6396 19.42Z" stroke="white" stroke-linejoin="round"/><path d="M61.8 10.85V27.99L32.3899 44.97L27.4399 42.11L17.54 36.4L61.8 10.85Z" stroke="white" stroke-linejoin="round"/><path d="M106.33 36.5599V53.6999L76.9199 70.6799L62.0801 62.1099L96.3899 42.2999L106.33 36.5599Z" stroke="white" stroke-linejoin="round"/><path d="M135.97 45.1499V65.1499L76.9697 99.2199V79.2199L111.27 59.4099L118.65 55.1499L135.97 45.1499Z" stroke="white" stroke-linejoin="round"/></svg>