<svg width="48" height="48" viewBox="0 0 110 86" fill="#229EFF" xmlns="http://www.w3.org/2000/svg" stroke-width="1px" stroke-linecap="round" stroke-linejoin="round"><path d="M58.7 28.9896V29.1796C58.94 29.1296 59.1799 29.0896 59.4199 29.0396L58.7 28.9896Z" stroke="white" stroke-linejoin="round"/><path d="M44.1899 63.4396V83.4396L30.21 67.3696V47.3696L44.1899 63.4396Z" stroke="white" stroke-linejoin="round"/><path d="M96.02 9.37965C88.23 4.87965 78.9599 2.62963 68.1799 2.60963C57.4099 2.58963 48.1599 4.80964 40.4199 9.27964C36.8999 11.3096 34.19 13.5796 32.3 16.0796C30.4 18.5896 29.3399 21.1697 29.1199 23.8497L2.36987 39.2996L25.4299 45.9797L30.21 47.3696L44.1899 63.4396L51.3999 59.2796L62.48 52.8896L63.51 52.2897L70.3298 48.3596L70.95 47.9996C73.55 47.9296 76.0999 47.6997 78.6099 47.3197C80.5699 47.0297 82.4999 46.6496 84.3999 46.1696C84.5499 46.1296 84.6998 46.0896 84.8398 46.0496C89.0098 44.9596 92.7899 43.4396 96.1899 41.4696C96.4299 41.3296 96.6599 41.1996 96.8899 41.0496H96.8999C99.7499 39.3296 102.05 37.4797 103.78 35.5097C106.42 32.4797 107.74 29.1596 107.74 25.5496V25.4497C107.71 19.2297 103.8 13.8697 96.02 9.37965ZM96.8899 29.8896C95.9899 31.8996 94.43 33.7496 92.22 35.4596C91.33 36.1496 90.33 36.8097 89.22 37.4497C87.83 38.2497 86.3698 38.9597 84.8398 39.5697C82.7398 40.4097 80.5099 41.0596 78.1499 41.5296C75.6899 42.0196 73.0798 42.3096 70.3298 42.3996C69.6998 42.4196 69.0499 42.4296 68.3999 42.4296C66.7199 42.4296 65.09 42.3497 63.51 42.1997C62.88 42.1397 62.2499 42.0696 61.6399 41.9896C61.0299 41.9096 60.4298 41.8196 59.8398 41.7096C55.2798 40.9296 51.18 39.4796 47.53 37.3696C47.48 37.3396 47.4299 37.3097 47.3899 37.2897C46.2799 36.6397 45.2899 35.9797 44.3999 35.2897C42.1999 33.5797 40.64 31.7197 39.73 29.6997C39.1 28.3097 38.78 26.8497 38.77 25.3197C38.75 20.6397 41.6199 16.6296 47.3999 13.2996C53.1699 9.96963 60.11 8.30965 68.22 8.31965C76.32 8.33965 83.2798 10.0197 89.0898 13.3797C94.8998 16.7297 97.8198 20.7496 97.8398 25.4296C97.8398 26.9896 97.5399 28.4796 96.8899 29.8896Z" stroke="white" stroke-linejoin="round"/><path d="M61.6399 29.2196V41.9896C61.0299 41.9096 60.4298 41.8196 59.8398 41.7096C55.2798 40.9296 51.18 39.4796 47.53 37.3696C47.48 37.3396 47.4299 37.3096 47.3899 37.2896V28.0896L58.7 28.9896V29.1796C58.94 29.1296 59.1799 29.0896 59.4199 29.0396L61.6399 29.2196Z" stroke="white" stroke-linejoin="round"/><path d="M70.3298 29.9396V42.3996C69.6998 42.4196 69.0499 42.4296 68.3999 42.4296C66.7199 42.4296 65.09 42.3496 63.51 42.1996V37.3996L70.3298 29.9396Z" stroke="white" stroke-linejoin="round"/><path d="M63.51 37.3996V42.1996C62.88 42.1396 62.2499 42.0696 61.6399 41.9896V29.2196L63.51 37.3996Z" stroke="white" stroke-linejoin="round"/><path d="M60.3098 24.1596L58.7 24.6496V15.8296L60.0999 23.0496L60.3098 24.1596Z" stroke="white" stroke-linejoin="round"/><path d="M84.8398 30.9196V39.5696C82.7398 40.4096 80.5099 41.0596 78.1499 41.5296C75.6899 42.0196 73.0798 42.3096 70.3298 42.3996V29.9396L81.47 30.6896L83.6199 30.8396L84.8398 30.9196Z" stroke="white" stroke-linejoin="round"/><path d="M84.8398 30.9196L83.6199 30.8396L81.47 30.6896L70.3298 29.9396L63.51 37.3996L61.6399 29.2196L59.4199 29.0396L58.7 28.9896L47.3899 28.0896L58.7 24.6496L60.3098 24.1596L60.0999 23.0496L58.7 15.8296L68.6299 21.5596L81.47 17.7796L76.73 23.1396L74.9099 25.1896L81.47 28.9796L84.8398 30.9196Z" stroke="white" stroke-linejoin="round"/><path d="M81.47 17.7796V28.9796L74.9099 25.1896L76.73 23.1396L81.47 17.7796Z" stroke="white" stroke-linejoin="round"/><path d="M107.74 25.5496V45.4496C107.78 51.6596 103.93 57.0096 96.1899 61.4696C92.6699 63.5096 88.7399 65.0696 84.3999 66.1696C80.0699 67.2596 75.58 67.8696 70.95 67.9996V47.9996C73.55 47.9296 76.0999 47.6996 78.6099 47.3196C80.5699 47.0296 82.4999 46.6496 84.3999 46.1696C84.5499 46.1296 84.6998 46.0896 84.8398 46.0496C89.0098 44.9596 92.7899 43.4396 96.1899 41.4696C96.4299 41.3296 96.6599 41.1996 96.8899 41.0496H96.8999C99.7499 39.3296 102.05 37.4796 103.78 35.5096C106.42 32.4796 107.74 29.1596 107.74 25.5496Z" stroke="white" stroke-linejoin="round"/><path d="M70.95 47.9996V67.9996L44.1899 83.4396V63.4396L51.3999 59.2796L62.48 52.8896L63.51 52.2896L70.3298 48.3596L70.95 47.9996Z" stroke="white" stroke-linejoin="round"/><path d="M97.8399 25.4296C97.8399 26.9896 97.54 28.4796 96.89 29.8896C95.99 31.8996 94.4301 33.7496 92.2201 35.4596C91.2901 34.7396 90.2499 34.0497 89.0899 33.3797C87.7399 32.5997 86.3199 31.9096 84.8399 31.3096V30.9196L81.4701 28.9797V17.7796L68.63 21.5596L58.7001 15.8296V24.6496L47.39 28.0896V33.3096C46.29 33.9396 45.29 34.5997 44.4 35.2897C42.2 33.5797 40.6401 31.7197 39.7301 29.6997C39.1001 28.3097 38.7801 26.8497 38.7701 25.3197C38.7501 20.6397 41.62 16.6296 47.4 13.2996C53.17 9.96964 60.1101 8.30966 68.2201 8.31966C76.3201 8.33966 83.2799 10.0197 89.0899 13.3797C94.8999 16.7297 97.8199 20.7496 97.8399 25.4296Z" stroke="white" stroke-linejoin="round"/><path d="M30.21 47.3696V67.3696L2.36987 59.2996V39.2996L25.4299 45.9796L30.21 47.3696Z" stroke="white" stroke-linejoin="round"/></svg>