<svg xmlns="http://www.w3.org/2000/svg" viewBox="0 0 640 512"><!--! Font Awesome Pro 6.7.2 by @fontawesome - https://fontawesome.com License - https://fontawesome.com/license (Commercial License) Copyright 2024 Fonticons, Inc. --><path d="M469.3 0L464 0 432 0c-44.2 0-80 35.8-80 80l0 48 0 16 0 3.6c0 33.4-27.1 60.4-60.4 60.4l-13 0c-44.4 0-85.1 25.1-104.9 64.8L160.1 300c-6.1 12.3-18.7 20-32.4 20c-28.7 0-46-31.7-30.5-55.9l20.2-31.5 8.5-13.2-13.1-8.7-24-16L78 187.4l-9.3 9.3L37.8 227.5C13.6 251.8 0 284.6 0 318.9C0 390.2 57.8 448 129.1 448l30.9 0 0 48 0 16 16 0 80 0 12.5 0 3-12.1 13-51.9 39 0 13 51.9 3 12.1 12.5 0 80 0 16 0 0-16 0-48c53 0 96-43 96-96l0-48 80 0 16 0 0-16 0-48 0-8-6.4-4.8-64-48-4.3-3.2-5.3 0-32 0c-8.5 0-16.8 1.3-24.5 3.8c-.7 3.1-.7 6.4-.1 9.8l.6 3.1c1.3 6.7 2.2 13.4 2.9 20.1c6.4-3.1 13.5-4.9 21.1-4.9l26.7 0L608 248l0 24-80 0-16 0 0 16 0 64c0 35.3-28.7 64-64 64l-16 0-16 0 0 16 0 48-51.5 0-13-51.9-3-12.1L336 416l-64 0-12.5 0-3 12.1-13 51.9L192 480l0-48 0-16-16 0-46.9 0C75.5 416 32 372.5 32 318.9c0-25.8 10.2-50.5 28.5-68.7L82 228.6 70.3 246.8C41.1 292.3 73.7 352 127.7 352c25.9 0 49.5-14.6 61-37.7l13.6-27.1c14.5-28.9 44-47.2 76.3-47.2l13 0c51 0 92.4-41.4 92.4-92.4l0-3.6 0-16 0-48c0-26.5 21.5-48 48-48l26.7 0L512 72l0 24-72 0-19.3 0 3.6 18.9 23.4 125-15.4 77-3.1 15.7 31.4 6.3 3.1-15.7 16-80 .6-3-.6-3L459.3 128l68.7 0 16 0 0-16 0-48 0-8-6.4-4.8-64-48L469.3 0zM288 176l3.6 0c.6 0 1.1 0 1.7-.1l2.4-13 3.6-18.9L280 144l-72 0 0-24 53.3-40L288 80c12.3 0 23.5 4.6 32 12.2l0-4.2c0-10.9 1.4-21.4 4.1-31.4C313.3 51.1 301 48 288 48l-32 0-5.3 0-4.3 3.2-64 48L176 104l0 8 0 48 0 16 16 0 32 0 36.7 0 17.9 0 9.4 0z"/></svg>