<svg xmlns="http://www.w3.org/2000/svg" width="24" height="24" viewBox="0 0 24 24">
    <path d="M21.5,10v7.62c0,2.538-1.342,3.88-3.88,3.88H6.38c-2.538,0-3.88-1.342-3.88-3.88V6.37C2.5,3.838,3.842,2.5,6.38,2.5H14a.5.5,0,0,1,0,1H6.38c-1.992,0-2.88.885-2.88,2.87V17.62c0,1.992.888,2.88,2.88,2.88H17.62c1.992,0,2.88-.888,2.88-2.88V10a.5.5,0,0,1,1,0Zm-8.354,2.44-1.588-1.585a1.5,1.5,0,0,0-2.121,0l-2.791,2.79a.5.5,0,0,0,.708.708l2.79-2.791a.5.5,0,0,1,.707,0l1.589,1.585a1.5,1.5,0,0,0,2.12,0l2.794-2.793a.5.5,0,0,0-.708-.708L13.853,12.44A.5.5,0,0,1,13.146,12.44ZM22.5,4A2.5,2.5,0,1,1,20,1.5,2.5,2.5,0,0,1,22.5,4Zm-1,0A1.5,1.5,0,1,0,20,5.5,1.5,1.5,0,0,0,21.5,4Z"/>
</svg>