<svg xmlns="http://www.w3.org/2000/svg" width="24" height="24" viewBox="0 0 24 24">
    <path d="M21,14.5H19.5v-5H21a.5.5,0,0,0,0-1H19.5V6c0-2.29-1.21-3.5-3.5-3.5H6C3.71,2.5,2.5,3.71,2.5,6V18c0,2.29,1.21,3.5,3.5,3.5H16c2.29,0,3.5-1.21,3.5-3.5V15.5H21a.5.5,0,0,0,0-1ZM18.5,18c0,1.729-.771,2.5-2.5,2.5H6c-1.729,0-2.5-.771-2.5-2.5V6c0-1.729.771-2.5,2.5-2.5H16c1.729,0,2.5.771,2.5,2.5ZM11,11.5A2.5,2.5,0,1,0,8.5,9,2.5,2.5,0,0,0,11,11.5Zm0-4A1.5,1.5,0,1,1,9.5,9,1.5,1.5,0,0,1,11,7.5Zm4.5,8.86V17a.5.5,0,0,1-1,0v-.64A2.4,2.4,0,0,0,11.86,14H10.14A2.4,2.4,0,0,0,7.5,16.36V17a.5.5,0,0,1-1,0v-.64A3.388,3.388,0,0,1,10.14,13h1.72A3.388,3.388,0,0,1,15.5,16.36Z"/>
</svg>