<svg xmlns="http://www.w3.org/2000/svg" width="24" height="24" viewBox="0 0 24 24">
    <path d="M13.2,15.1a1.541,1.541,0,0,0-2.4,0l-3,3.986A1.507,1.507,0,0,0,9,21.5H15a1.507,1.507,0,0,0,1.2-2.414Zm2.246,5.122A.493.493,0,0,1,15,20.5H9a.493.493,0,0,1-.448-.278.5.5,0,0,1,.048-.535l3-3.987a.5.5,0,0,1,.8,0l3,3.987A.5.5,0,0,1,15.444,20.222Zm-1.012-7.608A2.879,2.879,0,0,0,14.5,12a2.5,2.5,0,0,0-5,0,2.879,2.879,0,0,0,.068.614.5.5,0,1,1-.976.212A3.829,3.829,0,0,1,8.5,12a3.5,3.5,0,0,1,7,0,3.829,3.829,0,0,1-.092.826.5.5,0,0,1-.488.394.49.49,0,0,1-.106-.011A.5.5,0,0,1,14.432,12.614ZM18.5,12a6.485,6.485,0,0,1-1.148,3.7.5.5,0,0,1-.412.216.5.5,0,0,1-.411-.784,5.5,5.5,0,1,0-9.058,0,.5.5,0,1,1-.823.568A6.5,6.5,0,1,1,18.5,12Zm3,0a9.436,9.436,0,0,1-2.323,6.208.5.5,0,0,1-.754-.657A8.5,8.5,0,1,0,3.5,12a8.434,8.434,0,0,0,2.077,5.551.5.5,0,0,1-.754.657A9.5,9.5,0,1,1,21.5,12Z"/>
</svg>