<svg xmlns="http://www.w3.org/2000/svg" width="24" height="24" viewBox="0 0 24 24">
    <path d="M18.72,7.615,18.4,7.3a.579.579,0,0,1-.171-.412V6.436a2.667,2.667,0,0,0-2.665-2.665h-.448A.591.591,0,0,1,14.7,3.6l-.318-.319a2.67,2.67,0,0,0-3.77,0L10.3,3.6a.591.591,0,0,1-.413.171H9.436A2.667,2.667,0,0,0,6.771,6.436v.448A.579.579,0,0,1,6.6,7.3l-.32.319a2.671,2.671,0,0,0,0,3.77l.32.319a.579.579,0,0,1,.171.412v.448A2.66,2.66,0,0,0,8.662,15.1L7.02,20.863a.5.5,0,0,0,.666.6l2.769-1.11a5.512,5.512,0,0,1,4.09,0l2.769,1.11a.5.5,0,0,0,.666-.6L16.338,15.1a2.66,2.66,0,0,0,1.891-2.538v-.448A.579.579,0,0,1,18.4,11.7l.32-.319h0A2.671,2.671,0,0,0,18.72,7.615Zm-3.8,11.811a6.5,6.5,0,0,0-4.832,0l-1.823.731,1.4-4.928h.219a.591.591,0,0,1,.413.171l.318.319a2.668,2.668,0,0,0,3.77,0L14.7,15.4a.591.591,0,0,1,.413-.171h.219l1.4,4.928Zm3.1-8.748-.32.319a1.574,1.574,0,0,0-.464,1.119v.448a1.667,1.667,0,0,1-1.665,1.665h-.448a1.594,1.594,0,0,0-1.12.464l-.318.319a1.667,1.667,0,0,1-2.356,0L11,14.693a1.594,1.594,0,0,0-1.12-.464H9.436a1.667,1.667,0,0,1-1.665-1.665v-.448A1.578,1.578,0,0,0,7.307,11l-.32-.318a1.669,1.669,0,0,1,0-2.355L7.307,8a1.574,1.574,0,0,0,.464-1.119V6.436A1.667,1.667,0,0,1,9.436,4.771h.448A1.594,1.594,0,0,0,11,4.307l.318-.319a1.667,1.667,0,0,1,2.356,0L14,4.307a1.594,1.594,0,0,0,1.12.464h.448a1.667,1.667,0,0,1,1.665,1.665v.448A1.578,1.578,0,0,0,17.693,8l.32.318A1.671,1.671,0,0,1,18.013,10.678ZM14.854,7.813a.5.5,0,0,1,0,.707l-2.667,2.667a.5.5,0,0,1-.708,0L10.146,9.854a.5.5,0,0,1,.708-.708l.979.98,2.313-2.313A.5.5,0,0,1,14.854,7.813Z"/>
</svg>