<svg xmlns="http://www.w3.org/2000/svg" width="24" height="24" viewBox="0 0 24 24">
    <path d="m19.444,19.396c1.887-1.899,3.056-4.513,3.056-7.396s-1.169-5.496-3.056-7.396c-.008-.009-.011-.021-.019-.029s-.02-.011-.029-.019c-1.899-1.887-4.513-3.056-7.396-3.056s-5.496,1.169-7.396,3.056c-.009.008-.021.011-.029.019s-.011.02-.019.029c-1.887,1.899-3.056,4.513-3.056,7.396s1.169,5.496,3.056,7.396c.008.009.011.021.019.029s.02.011.029.019c1.899,1.887,4.513,3.056,7.396,3.056s5.496-1.169,7.396-3.056c.009-.008.021-.011.029-.019s.011-.02.019-.029ZM2.527,12.527c2.231.123,4.256,1.016,5.817,2.422l-3.395,3.395c-1.406-1.561-2.299-3.586-2.422-5.817Zm2.422-6.871l6.344,6.344-2.242,2.242c-1.744-1.587-4.019-2.591-6.527-2.716.112-2.252,1.008-4.297,2.425-5.871Zm16.524,5.817c-2.231-.123-4.256-1.016-5.817-2.422l3.395-3.395c1.406,1.561,2.299,3.586,2.422,5.817Zm-6.524-3.129c-1.406-1.561-2.299-3.586-2.422-5.817,2.231.123,4.256,1.016,5.817,2.422l-3.395,3.395Zm-.707.707l-2.242,2.242-6.344-6.344c1.574-1.417,3.618-2.313,5.871-2.425.125,2.508,1.129,4.782,2.716,6.527Zm-5.191,6.605c1.406,1.561,2.299,3.586,2.422,5.817-2.231-.123-4.256-1.016-5.817-2.422l3.395-3.395Zm.707-.707l2.242-2.242,6.344,6.344c-1.574,1.417-3.618,2.313-5.871,2.425-.125-2.508-1.129-4.782-2.716-6.527Zm2.949-2.949l2.242-2.242c1.744,1.587,4.019,2.591,6.527,2.716-.112,2.252-1.008,4.297-2.425,5.871l-6.344-6.344Z"/>
</svg>