<svg xmlns="http://www.w3.org/2000/svg" width="24" height="24" viewBox="0 0 24 24">
    <path d="M21.5,11v3a.5.5,0,0,1-1,0V11a.5.5,0,0,1,1,0ZM6,10a.5.5,0,0,0-.5.5v4a.5.5,0,0,0,1,0v-4A.5.5,0,0,0,6,10Zm2.5,0a.5.5,0,0,0-.5.5v4a.5.5,0,0,0,1,0v-4A.5.5,0,0,0,8.5,10ZM11,10a.5.5,0,0,0-.5.5v4a.5.5,0,0,0,1,0v-4A.5.5,0,0,0,11,10Zm2.5,0a.5.5,0,0,0-.5.5v4a.5.5,0,0,0,1,0v-4A.5.5,0,0,0,13.5,10ZM16,10a.5.5,0,0,0-.5.5v4a.5.5,0,0,0,1,0v-4A.5.5,0,0,0,16,10Zm3.5-.5v6a1.821,1.821,0,0,1-2,2H4.5a1.821,1.821,0,0,1-2-2v-6a1.821,1.821,0,0,1,2-2h13A1.821,1.821,0,0,1,19.5,9.5Zm-1,0c0-.72-.28-1-1-1H4.5c-.72,0-1,.28-1,1v6c0,.72.28,1,1,1h13c.72,0,1-.28,1-1Z"/>
</svg>