<svg xmlns="http://www.w3.org/2000/svg" width="24" height="24" viewBox="0 0 24 24">
    <path d="m21.5,16.998v-2.998c0-1.208-.346-2.105-1-2.693v-5.307c0-2.29-1.21-3.5-3.5-3.5H7c-2.29,0-3.5,1.21-3.5,3.5v5.306c-.654.588-1,1.486-1,2.694v3s0,.001,0,.002v2.495s0,.001,0,.002,0,.001,0,.002v1.498c0,.276.224.5.5.5s.5-.224.5-.5v-1h17v1c0,.276.224.5.5.5s.5-.224.5-.5v-4s0-.001,0-.002ZM4.5,6c0-1.729.771-2.5,2.5-2.5h10c1.729,0,2.5.771,2.5,2.5v4.722c-.298-.101-.639-.155-1-.187v-2.685c0-1.02-.897-1.85-2-1.85h-3c-.6,0-1.133.251-1.5.639-.367-.388-.9-.639-1.5-.639h-3c-1.103,0-2,.83-2,1.85v2.685c-.361.032-.702.086-1,.187v-4.722Zm8,4.5v-2.65c0-.469.449-.85,1-.85h3c.551,0,1,.381,1,.85v2.65h-5Zm-6,0v-2.65c0-.469.449-.85,1-.85h3c.551,0,1,.381,1,.85v2.65h-5Zm-3,3.5c0-1.729.771-2.5,2.5-2.5h12c1.729,0,2.5.771,2.5,2.5v2.5H3.5v-2.5Zm0,5v-1.5h17v1.5H3.5Z"/>
</svg>