<svg xmlns="http://www.w3.org/2000/svg" width="24" height="24" viewBox="0 0 24 24">
    <path d="M17.43,1.5H10.57A2.769,2.769,0,0,0,7.5,4.57V5.5H6.571A2.77,2.77,0,0,0,3.5,8.571V22a.5.5,0,0,0,.249.433.5.5,0,0,0,.5,0L10,19.147l5.752,3.287A.5.5,0,0,0,16.5,22V16.572l3.252,1.862a.5.5,0,0,0,.5,0A.5.5,0,0,0,20.5,18V4.57A2.769,2.769,0,0,0,17.43,1.5ZM15.5,21.138l-5.252-3a.5.5,0,0,0-.5,0l-5.252,3V8.571C4.5,7.139,5.139,6.5,6.571,6.5h6.858c1.432,0,2.071.639,2.071,2.071Zm4-4-3-1.718V8.571A2.77,2.77,0,0,0,13.429,5.5H8.5V4.57c0-1.432.639-2.07,2.07-2.07h6.86c1.431,0,2.07.638,2.07,2.07ZM10,12.3a1.9,1.9,0,1,0-1.9-1.9A1.9,1.9,0,0,0,10,12.3Zm0-2.8a.9.9,0,1,1-.9.9A.9.9,0,0,1,10,9.5Zm3.02,6.246V16a.5.5,0,0,1-1,0v-.254A1.354,1.354,0,0,0,10.539,14.4H9.461A1.354,1.354,0,0,0,7.98,15.746V16a.5.5,0,0,1-1,0v-.254A2.336,2.336,0,0,1,9.461,13.4h1.078A2.336,2.336,0,0,1,13.02,15.746Z"/>
</svg>