<svg xmlns="http://www.w3.org/2000/svg" width="24" height="24" viewBox="0 0 24 24">
    <path d="M21.206,9.792A.992.992,0,0,0,20.5,9.5h0a19.079,19.079,0,0,0-5.822.668A4.523,4.523,0,0,0,12,12.409a4.523,4.523,0,0,0-2.676-2.241A19.079,19.079,0,0,0,3.5,9.5h0a1,1,0,0,0-1,1v8a1,1,0,0,0,.99,1c4.2.019,6.946.642,8.156,1.853a.5.5,0,0,0,.159.105l0,0h0a.494.494,0,0,0,.38,0h0l0,0a.5.5,0,0,0,.159-.105c1.21-1.211,3.955-1.834,8.157-1.853a1,1,0,0,0,.989-1v-8A.993.993,0,0,0,21.206,9.792ZM3.5,10.5a18.243,18.243,0,0,1,5.524.623A3.5,3.5,0,0,1,11.5,14.474v5.513c-2.4-1.462-6.532-1.48-8-1.486Zm9,9.487V14.474a3.5,3.5,0,0,1,2.475-3.351A18.218,18.218,0,0,1,20.5,10.5l.006,8C19.033,18.507,14.9,18.525,12.5,19.987ZM12,8.5a3,3,0,1,0-3-3A3,3,0,0,0,12,8.5Zm0-5a2,2,0,1,1-2,2A2,2,0,0,1,12,3.5Z"/>
</svg>