<svg xmlns="http://www.w3.org/2000/svg" width="24" height="24" viewBox="0 0 24 24">
    <path d="m12,1.5C6.21,1.5,1.5,6.21,1.5,12s4.71,10.5,10.5,10.5,10.5-4.71,10.5-10.5S17.79,1.5,12,1.5Zm0,20c-5.238,0-9.5-4.262-9.5-9.5S6.762,2.5,12,2.5s9.5,4.262,9.5,9.5-4.262,9.5-9.5,9.5Zm2.02-14.5c0,.552-.448,1-1,1s-1.005-.448-1.005-1,.442-1,.995-1h.01c.552,0,1,.448,1,1Zm3,3c0,.552-.448,1-1,1s-1.005-.448-1.005-1,.442-1,.995-1h.01c.552,0,1,.448,1,1Zm-4,1c0,.552-.448,1-1,1s-1.005-.448-1.005-1,.442-1,.995-1h.01c.552,0,1,.448,1,1Z"/>
</svg>