<svg xmlns="http://www.w3.org/2000/svg" width="24" height="24" viewBox="0 0 24 24">
    <path d="M18,5.5H16.5V4A1.5,1.5,0,0,0,15,2.5H9A1.5,1.5,0,0,0,7.5,4V5.5H6C3.71,5.5,2.5,6.71,2.5,9v9c0,2.29,1.21,3.5,3.5,3.5h9a.5.5,0,0,0,0-1H6c-1.729,0-2.5-.771-2.5-2.5V12.963a2.106,2.106,0,0,0,.187.118A22.879,22.879,0,0,0,8.392,14.53a1.524,1.524,0,0,0,1.563-.676A2.5,2.5,0,0,1,12,12.679a2.5,2.5,0,0,1,2.045,1.175,1.548,1.548,0,0,0,1.276.705,1.463,1.463,0,0,0,.287-.029,22.879,22.879,0,0,0,4.7-1.449,2.106,2.106,0,0,0,.187-.118V15a.5.5,0,0,0,1,0V9C21.5,6.71,20.29,5.5,18,5.5ZM8.5,4A.5.5,0,0,1,9,3.5h6a.5.5,0,0,1,.5.5V5.5h-7Zm11.406,8.168a21.888,21.888,0,0,1-4.5,1.382.529.529,0,0,1-.532-.253A3.5,3.5,0,0,0,12,11.679,3.5,3.5,0,0,0,9.124,13.3a.53.53,0,0,1-.532.252,21.888,21.888,0,0,1-4.5-1.382,1,1,0,0,1-.594-.915V9c0-1.729.771-2.5,2.5-2.5H18c1.729,0,2.5.771,2.5,2.5v2.253A1,1,0,0,1,19.906,12.168ZM12,14.25a.746.746,0,1,1-.016,0Zm9.35,3.73a.5.5,0,0,1,0,.707l-2.667,2.667a.5.5,0,0,1-.707,0L16.646,20.02a.5.5,0,0,1,.708-.707l.979.98,2.313-2.313A.5.5,0,0,1,21.354,17.98Z"/>
</svg>