<svg xmlns="http://www.w3.org/2000/svg" width="24" height="24" viewBox="0 0 24 24">
    <path d="M18,4H16.5V3a.5.5,0,0,0-1,0V4h-7V3a.5.5,0,0,0-1,0V4H6C3.71,4,2.5,5.21,2.5,7.5V18c0,2.29,1.21,3.5,3.5,3.5H18c2.29,0,3.5-1.21,3.5-3.5V7.5C21.5,5.21,20.29,4,18,4ZM6,5H7.5V6a.5.5,0,0,0,1,0V5h7V6a.5.5,0,0,0,1,0V5H18c1.729,0,2.5.771,2.5,2.5v1H3.5v-1C3.5,5.771,4.271,5,6,5ZM18,20.5H6c-1.729,0-2.5-.771-2.5-2.5V9.5h17V18C20.5,19.729,19.729,20.5,18,20.5Zm-3.849-4.056a3.385,3.385,0,0,0,.682-2.027,3.417,3.417,0,1,0-3.416,3.416,3.383,3.383,0,0,0,2.027-.682l1.7,1.7a.5.5,0,0,0,.708-.708ZM9,14.417a2.417,2.417,0,1,1,2.417,2.416A2.419,2.419,0,0,1,9,14.417Z"/>
</svg>