<svg xmlns="http://www.w3.org/2000/svg" width="24" height="24" viewBox="0 0 24 24">
    <path d="M18,4H16.5V3a.5.5,0,0,0-1,0V4h-7V3a.5.5,0,0,0-1,0V4H6C3.71,4,2.5,5.21,2.5,7.5V18c0,2.29,1.21,3.5,3.5,3.5H18c2.29,0,3.5-1.21,3.5-3.5V7.5C21.5,5.21,20.29,4,18,4ZM6,5H7.5V6a.5.5,0,0,0,1,0V5h7V6a.5.5,0,0,0,1,0V5H18c1.729,0,2.5.771,2.5,2.5v1H3.5v-1C3.5,5.771,4.271,5,6,5ZM18,20.5H6c-1.729,0-2.5-.771-2.5-2.5V9.5h17V18C20.5,19.729,19.729,20.5,18,20.5Zm-4-6.4V13a2,2,0,0,0-4,0v1.1a1.446,1.446,0,0,0-1,1.526v1.75A1.479,1.479,0,0,0,10.625,19h2.75A1.479,1.479,0,0,0,15,17.375v-1.75A1.446,1.446,0,0,0,14,14.1ZM12,12a1,1,0,0,1,1,1v1H11V13A1,1,0,0,1,12,12Zm2,5.375c0,.473-.152.625-.625.625h-2.75c-.473,0-.625-.152-.625-.625v-1.75c0-.473.152-.625.625-.625h2.75c.473,0,.625.152.625.625Z"/>
</svg>