<svg xmlns="http://www.w3.org/2000/svg" width="24" height="24" viewBox="0 0 24 24">
    <path d="M21.5,21a.5.5,0,0,1-.5.5H3a.5.5,0,0,1,0-1H21A.5.5,0,0,1,21.5,21Zm-12-4.5V4.5a1.821,1.821,0,0,1,2-2h1a1.821,1.821,0,0,1,2,2v12a1.821,1.821,0,0,1-2,2h-1A1.821,1.821,0,0,1,9.5,16.5Zm1,0c0,.72.28,1,1,1h1c.72,0,1-.28,1-1V4.5c0-.72-.28-1-1-1h-1c-.72,0-1,.28-1,1Zm11-8v8a1.821,1.821,0,0,1-2,2h-1a1.821,1.821,0,0,1-2-2v-8a1.821,1.821,0,0,1,2-2h1A1.821,1.821,0,0,1,21.5,8.5Zm-1,0c0-.72-.28-1-1-1h-1c-.72,0-1,.28-1,1v8c0,.72.28,1,1,1h1c.72,0,1-.28,1-1Zm-18,8v-5a1.821,1.821,0,0,1,2-2h1a1.821,1.821,0,0,1,2,2v5a1.821,1.821,0,0,1-2,2h-1A1.821,1.821,0,0,1,2.5,16.5Zm1,0c0,.72.28,1,1,1h1c.72,0,1-.28,1-1v-5c0-.72-.28-1-1-1h-1c-.72,0-1,.28-1,1Z"/>
</svg>