<svg xmlns="http://www.w3.org/2000/svg" width="24" height="24" viewBox="0 0 24 24">
    <path d="M21.485,9.8A8.589,8.589,0,0,0,14.2,2.515a1.477,1.477,0,0,0-1.179.352A1.5,1.5,0,0,0,12.5,4v6.008A1.493,1.493,0,0,0,13.992,11.5H20a1.5,1.5,0,0,0,1.133-.517A1.483,1.483,0,0,0,21.485,9.8Zm-1.106.523A.5.5,0,0,1,20,10.5H13.992a.493.493,0,0,1-.492-.492V4a.5.5,0,0,1,.174-.379A.483.483,0,0,1,13.99,3.5a.415.415,0,0,1,.069,0A7.587,7.587,0,0,1,20.5,9.942.481.481,0,0,1,20.379,10.326Zm-2.335,2.581H12.093a1,1,0,0,1-1-1V5.956a1.458,1.458,0,0,0-.537-1.131,1.42,1.42,0,0,0-1.18-.3,8.574,8.574,0,0,0-.14,16.781,9,9,0,0,0,1.83.19,8.517,8.517,0,0,0,4.715-1.413,8.628,8.628,0,0,0,3.691-5.461,1.417,1.417,0,0,0-.3-1.181A1.458,1.458,0,0,0,18.044,12.907ZM15.23,19.252A7.569,7.569,0,1,1,9.573,5.508.406.406,0,0,1,9.655,5.5a.426.426,0,0,1,.268.1.462.462,0,0,1,.17.357v5.951a2,2,0,0,0,2,2h5.951a.46.46,0,0,1,.357.17.418.418,0,0,1,.09.35A7.623,7.623,0,0,1,15.23,19.252Z"/>
</svg>