<svg xmlns="http://www.w3.org/2000/svg" width="24" height="24" viewBox="0 0 24 24">
    <path d="M17.5,2.5H6.25c-2.535,0-3.875,1.34-3.875,3.875v11.25c0,2.535,1.34,3.875,3.875,3.875H17.5c2.535,0,3.875-1.34,3.875-3.875V6.375C21.375,3.84,20.035,2.5,17.5,2.5Zm2.875,15.125c0,1.961-.913,2.875-2.875,2.875H6.25c-1.962,0-2.875-.914-2.875-2.875V6.375c0-1.961.913-2.875,2.875-2.875H17.5c1.962,0,2.875.914,2.875,2.875ZM15.625,5.5h-7.5a2.481,2.481,0,0,0-2.75,2.75v7.5a2.481,2.481,0,0,0,2.75,2.75h7.5a2.481,2.481,0,0,0,2.75-2.75V8.25A2.481,2.481,0,0,0,15.625,5.5Zm1.75,10.25c0,1.227-.523,1.75-1.75,1.75h-7.5c-1.227,0-1.75-.523-1.75-1.75V8.25c0-1.227.523-1.75,1.75-1.75h7.5c1.227,0,1.75.523,1.75,1.75Z"/>
</svg>