<svg xmlns="http://www.w3.org/2000/svg" width="24" height="24" viewBox="0 0 24 24">
    <path d="M21.5,11a5.509,5.509,0,0,1-4.4,5.39.492.492,0,0,1-.1.01.5.5,0,0,1-.1-.99A4.5,4.5,0,0,0,16,6.5a4.67,4.67,0,0,0-.877.082.5.5,0,0,1-.519-.229,6.193,6.193,0,0,0-1.148-1.361A6,6,0,1,0,7.192,15.039a.5.5,0,1,1-.384.922A7,7,0,1,1,14.122,4.246a7.338,7.338,0,0,1,1.149,1.3A5.7,5.7,0,0,1,16,5.5,5.506,5.506,0,0,1,21.5,11Zm-7.854,7.646L12.5,19.793V11a.5.5,0,0,0-1,0v8.793l-1.146-1.147a.5.5,0,0,0-.708.708l2,2a.5.5,0,0,0,.163.108.487.487,0,0,0,.382,0,.5.5,0,0,0,.163-.108l2-2a.5.5,0,0,0-.708-.708Z"/>
</svg>