<svg xmlns="http://www.w3.org/2000/svg" width="24" height="24" viewBox="0 0 24 24">
    <path d="M3.5,11.1a.5.5,0,0,1-.5.446l-.054,0A.5.5,0,0,1,2.5,11,9.383,9.383,0,0,1,7.72,3.551.5.5,0,0,1,8.44,4V7.05a.5.5,0,0,1-1,0v-2.2A8.388,8.388,0,0,0,3.5,11.1Zm17.558,1.349a.5.5,0,0,0-.552.443,8.388,8.388,0,0,1-3.943,6.258v-2.2a.5.5,0,1,0-1,0V20a.5.5,0,0,0,.72.449A9.385,9.385,0,0,0,21.5,13,.5.5,0,0,0,21.055,12.453ZM16,11.5A4.5,4.5,0,1,1,20.5,7,4.505,4.505,0,0,1,16,11.5Zm0-1A3.5,3.5,0,1,0,12.5,7,3.5,3.5,0,0,0,16,10.5ZM12.5,17A4.5,4.5,0,1,1,8,12.5,4.505,4.505,0,0,1,12.5,17Zm-1,0A3.5,3.5,0,1,0,8,20.5,3.5,3.5,0,0,0,11.5,17Z"/>
</svg>