<svg xmlns="http://www.w3.org/2000/svg" width="24" height="24" viewBox="0 0 24 24">
    <path d="M12,3.5C6.406,3.5,2.5,7,2.5,12a8.038,8.038,0,0,0,1.913,5.36,4.323,4.323,0,0,1-1.566,2.41.972.972,0,0,0-.287,1.074.961.961,0,0,0,.882.648c.135.005.274.007.416.007a6.883,6.883,0,0,0,4.687-1.507A11.542,11.542,0,0,0,12,20.5c5.594,0,9.5-3.5,9.5-8.5S17.594,3.5,12,3.5Zm0,16a10.469,10.469,0,0,1-3.427-.553.5.5,0,0,0-.528.131C6.871,20.334,4.928,20.542,3.5,20.542H3.484a5.278,5.278,0,0,0,1.96-3.252.5.5,0,0,0-.127-.417A7.036,7.036,0,0,1,3.5,12C3.5,7.584,7,4.5,12,4.5s8.5,3.084,8.5,7.5S17.005,19.5,12,19.5Zm3.1-11.6a1.384,1.384,0,0,0-.982-.407h0a1.375,1.375,0,0,0-.982.409L7.646,13.425a.5.5,0,0,0-.146.353V16a.5.5,0,0,0,.5.5h2.223a.5.5,0,0,0,.352-.146l5.516-5.49a1.389,1.389,0,0,0,0-1.967ZM10.017,15.5H8.5V13.984l3.831-3.848,1.533,1.534Zm5.369-5.345-.813.809L13.036,9.427l.81-.813A.387.387,0,0,1,14.12,8.5h0a.389.389,0,0,1,.275.114l.99.99a.391.391,0,0,1,.114.276A.387.387,0,0,1,15.386,10.155Z"/>
</svg>