<svg xmlns="http://www.w3.org/2000/svg" width="24" height="24" viewBox="0 0 24 24">
    <path d="M12,11.25a.747.747,0,1,1-.015,0ZM16.75,12A.748.748,0,0,0,16,11.25h-.015a.742.742,0,0,0-.739.75.75.75,0,1,0,1.5,0Zm-8.761-.75A.742.742,0,0,0,7.25,12,.75.75,0,1,0,8,11.25Zm4.966,8.215a10.7,10.7,0,0,1-4.382-.515.5.5,0,0,0-.528.131C6.871,20.334,4.928,20.542,3.5,20.542H3.484a5.278,5.278,0,0,0,1.96-3.252.5.5,0,0,0-.127-.417A7.036,7.036,0,0,1,3.5,12C3.5,7.584,7,4.5,12,4.5s8.5,3.084,8.5,7.5a.5.5,0,0,0,1,0c0-5-3.906-8.5-9.5-8.5S2.5,7,2.5,12a8.038,8.038,0,0,0,1.913,5.36,4.323,4.323,0,0,1-1.566,2.41.972.972,0,0,0-.287,1.074.961.961,0,0,0,.882.648c.135.005.274.007.416.007a6.883,6.883,0,0,0,4.687-1.507,11.783,11.783,0,0,0,4.5.468.5.5,0,0,0-.09-1Zm8.4-3.819a.5.5,0,0,0-.708,0L19,17.293l-1.646-1.647a.5.5,0,0,0-.708.708L18.293,18l-1.647,1.646a.5.5,0,0,0,.708.708L19,18.707l1.646,1.647a.5.5,0,0,0,.708-.708L19.707,18l1.647-1.646A.5.5,0,0,0,21.354,15.646Z"/>
</svg>