<svg xmlns="http://www.w3.org/2000/svg" width="24" height="24" viewBox="0 0 24 24">
    <path d="M20.827,3.189a2.279,2.279,0,0,0-2.478-.527l-8.736,3.4a6.135,6.135,0,0,0-3.475,3.46L2.665,18.339A2.316,2.316,0,0,0,4.8,21.5a2.353,2.353,0,0,0,.88-.173l8.782-3.555a6.151,6.151,0,0,0,3.387-3.4l3.48-8.7A2.28,2.28,0,0,0,20.827,3.189ZM20.4,5.3,16.921,14a5.143,5.143,0,0,1-2.833,2.844L5.306,20.4A1.31,1.31,0,0,1,3.6,18.706L7.069,9.888A5.136,5.136,0,0,1,9.976,6.993l8.735-3.4a1.287,1.287,0,0,1,1.405.3A1.273,1.273,0,0,1,20.4,5.3ZM13,12a1,1,0,1,1-1-1A1,1,0,0,1,13,12Z"/>
</svg>