<svg xmlns="http://www.w3.org/2000/svg" width="24" height="24" viewBox="0 0 24 24">
    <path d="M18.375,6.5H9.625A2.819,2.819,0,0,0,6.5,9.625v8.75A2.819,2.819,0,0,0,9.625,21.5h8.75A2.819,2.819,0,0,0,21.5,18.375V9.625A2.819,2.819,0,0,0,18.375,6.5ZM20.5,18.375c0,1.47-.655,2.125-2.125,2.125H9.625c-1.47,0-2.125-.655-2.125-2.125V9.625c0-1.47.655-2.125,2.125-2.125h8.75c1.47,0,2.125.655,2.125,2.125ZM15,3.5H5.625C4.155,3.5,3.5,4.155,3.5,5.625V15a.5.5,0,0,1-1,0V5.625A2.819,2.819,0,0,1,5.625,2.5H15a.5.5,0,0,1,0,1Z"/>
</svg>