<svg xmlns="http://www.w3.org/2000/svg" width="24" height="24" viewBox="0 0 24 24">
    <path d="M21,10.5h.5V7c0-2.29-1.21-3.5-3.5-3.5H6C3.71,3.5,2.5,4.71,2.5,7v3.5H3a1.5,1.5,0,0,1,0,3H2.5V17c0,2.29,1.21,3.5,3.5,3.5H18c2.29,0,3.5-1.21,3.5-3.5V13.5H21a1.5,1.5,0,0,1,0-3Zm-.5,3.95V17c0,1.729-.771,2.5-2.5,2.5H6c-1.729,0-2.5-.771-2.5-2.5V14.45a2.5,2.5,0,0,0,0-4.9V7c0-1.729.771-2.5,2.5-2.5H18c1.729,0,2.5.771,2.5,2.5V9.55a2.5,2.5,0,0,0,0,4.9Zm-6.73-6.7h-.012A2.215,2.215,0,0,0,12,8.589a2.237,2.237,0,0,0-1.771-.839,2.565,2.565,0,0,0-2.047.926,3.617,3.617,0,0,0-.6,2.963c.565,2.89,4.062,4.5,4.21,4.567a.5.5,0,0,0,.412,0c.148-.067,3.645-1.677,4.21-4.567h0a3.621,3.621,0,0,0-.6-2.964A2.568,2.568,0,0,0,13.77,7.75Zm1.664,3.7c-.395,2.021-2.722,3.374-3.434,3.744-.712-.37-3.039-1.723-3.435-3.744a2.624,2.624,0,0,1,.39-2.138,1.58,1.58,0,0,1,1.278-.56h.007a1.457,1.457,0,0,1,1.286.977.5.5,0,0,0,.471.34h0a.5.5,0,0,0,.472-.337,1.457,1.457,0,0,1,1.286-.98h.007a1.581,1.581,0,0,1,1.279.559A2.625,2.625,0,0,1,15.434,11.448Z"/>
</svg>