<svg xmlns="http://www.w3.org/2000/svg" width="24" height="24" viewBox="0 0 24 24">
    <path d="M21,14.5H19.5v-5H21a.5.5,0,0,0,0-1H19.5V8c0-2.29-1.21-3.5-3.5-3.5h-.5V3a.5.5,0,0,0-1,0V4.5h-5V3a.5.5,0,0,0-1,0V4.5H8C5.71,4.5,4.5,5.71,4.5,8v.5H3a.5.5,0,0,0,0,1H4.5v5H3a.5.5,0,0,0,0,1H4.5V16c0,2.29,1.21,3.5,3.5,3.5h.5V21a.5.5,0,0,0,1,0V19.5h5V21a.5.5,0,0,0,1,0V19.5H16c2.29,0,3.5-1.21,3.5-3.5v-.5H21a.5.5,0,0,0,0-1ZM18.5,16c0,1.729-.771,2.5-2.5,2.5H8c-1.729,0-2.5-.771-2.5-2.5V8c0-1.729.771-2.5,2.5-2.5h8c1.729,0,2.5.771,2.5,2.5ZM14,8H10a1.821,1.821,0,0,0-2,2v4a1.821,1.821,0,0,0,2,2h4a1.821,1.821,0,0,0,2-2V10A1.821,1.821,0,0,0,14,8Zm1,6c0,.72-.28,1-1,1H10c-.72,0-1-.28-1-1V10c0-.72.28-1,1-1h4c.72,0,1,.28,1,1Z"/>
</svg>