<svg xmlns="http://www.w3.org/2000/svg" width="24" height="24" viewBox="0 0 24 24">
    <path d="M21.4,6.981A4.7,4.7,0,0,1,21.5,8v8c0,2.29-1.21,3.5-3.5,3.5H9a.5.5,0,0,1,0-1h9c1.729,0,2.5-.771,2.5-2.5V10.5H18a.5.5,0,0,1,0-1h2.5V8a3.793,3.793,0,0,0-.078-.8.5.5,0,0,1,.976-.217ZM9.353,15.354l-6,6a.5.5,0,0,1-.708-.708L4.163,19.13A3.1,3.1,0,0,1,2.5,16V8C2.5,5.71,3.71,4.5,6,4.5H18a4.975,4.975,0,0,1,.736.057l1.91-1.911a.5.5,0,0,1,.708.708l-7,7h0l-5,5ZM3.5,8V9.5H13.793l4-4H6C4.271,5.5,3.5,6.271,3.5,8ZM4.934,18.359,7.793,15.5H7a.5.5,0,0,1,0-1H8.793l4-4H3.5V16C3.5,17.665,4.258,18.168,4.934,18.359Z"/>
</svg>