<svg xmlns="http://www.w3.org/2000/svg" width="24" height="24" viewBox="0 0 24 24">
    <path d="m21.145,13.282c.235-.912.355-1.848.355-2.782,0-2.74-1.016-5.367-2.862-7.398-.541-.59-1.358-.766-2.087-.441-.743.33-1.175,1.07-1.099,1.884.028.315.048.631.048.956,0,1.294-.251,2.537-.746,3.752-.734-.082-1.486.159-2.042.712l-2.75,2.75c-.554.554-.794,1.306-.712,2.04-1.475.607-3.122.845-4.705.699-.819-.07-1.557.356-1.886,1.1-.322.727-.148,1.546.443,2.088,2.03,1.844,4.657,2.86,7.396,2.86.928,0,1.859-.119,2.78-.356.299.178.634.299.992.34.096.011.191.016.287.016.659,0,1.29-.259,1.764-.732l4.444-4.445c.542-.542.803-1.289.716-2.05-.04-.357-.161-.691-.338-.991Zm-4.645-7.782c0-.355-.021-.7-.052-1.046-.043-.463.234-.757.508-.879.129-.056.569-.206.943.202,1.677,1.845,2.601,4.233,2.601,6.724,0,.63-.083,1.267-.209,1.915l-4.485-2.803c-.031-.02-.065-.032-.098-.05.518-1.281.792-2.642.792-4.061ZM3.777,17.901c-.41-.376-.259-.818-.203-.944.122-.274.412-.547.88-.509,1.713.157,3.477-.095,5.103-.747.02.035.033.071.054.105l2.805,4.489c-3.09.591-6.321-.287-8.639-2.393Zm16.283-2.286l-4.444,4.445c-.326.325-.776.483-1.23.43-.457-.052-.858-.306-1.103-.695l-2.824-4.519c-.372-.596-.286-1.359.211-1.856l2.75-2.75c.291-.291.674-.441,1.06-.441.274,0,.55.075.797.229l4.519,2.824c.183.115.333.267.45.441.001.001.002.003.004.004.129.195.215.418.242.658.052.457-.104.905-.43,1.23Z"/>
</svg>