<svg xmlns="http://www.w3.org/2000/svg" width="24" height="24" viewBox="0 0 24 24">
    <path d="M9.721,12.809c.35,1.988,1.412,2.991,3.162,2.991a5.569,5.569,0,0,0,.978-.092l3.634-.641a3.6,3.6,0,0,0,2.479-1.35,3.6,3.6,0,0,0,.421-2.791l-.641-3.634A3.6,3.6,0,0,0,18.4,4.814a3.6,3.6,0,0,0-2.79-.421l-3.634.641A3.6,3.6,0,0,0,9.5,6.384,3.6,3.6,0,0,0,9.08,9.175Zm.6-5.851a2.678,2.678,0,0,1,1.833-.939l3.634-.641A4.7,4.7,0,0,1,16.6,5.3a2.093,2.093,0,0,1,1.232.334,2.68,2.68,0,0,1,.94,1.832l.64,3.634a2.681,2.681,0,0,1-.256,2.044,2.679,2.679,0,0,1-1.833.939l-3.633.641c-1.775.313-2.668-.312-2.983-2.089L10.064,9A2.678,2.678,0,0,1,10.32,6.958Zm10.593,9.33L10.341,18.149a2.5,2.5,0,0,0-1.832-1.6L6.4,4.563a2.5,2.5,0,0,0-2.9-2.026l-.59.1a.5.5,0,0,0,.168.986l.592-.1A1.505,1.505,0,0,1,5.418,4.736L7.494,16.552a2.5,2.5,0,1,0,2.992,2.587l10.6-1.867a.5.5,0,0,0-.174-.984ZM8,20.5A1.5,1.5,0,1,1,9.5,19,1.5,1.5,0,0,1,8,20.5Z"/>
</svg>