<svg xmlns="http://www.w3.org/2000/svg" width="24" height="24" viewBox="0 0 24 24">
    <path d="M16.646,4.354a.5.5,0,0,1,0-.708l2-2a.5.5,0,0,1,.708,0l2,2a.5.5,0,0,1-.708.708L19.5,3.207V7a.5.5,0,0,1-1,0V3.207L17.354,4.354A.5.5,0,0,1,16.646,4.354Zm-5,4.257h.7a1.373,1.373,0,0,1,1.364,1.222.506.506,0,0,0,.553.442.5.5,0,0,0,.441-.553,2.366,2.366,0,0,0-2.236-2.1V7a.5.5,0,0,0-1,0v.629a2.366,2.366,0,0,0-.4,4.656l1.609.4a1.37,1.37,0,0,1,.636,2.3,1.359,1.359,0,0,1-.969.4h-.7a1.373,1.373,0,0,1-1.364-1.222.5.5,0,1,0-.994.111,2.367,2.367,0,0,0,2.186,2.1V17a.5.5,0,0,0,1,0v-.624a2.361,2.361,0,0,0,2.244-2.359,2.374,2.374,0,0,0-1.8-2.3l-1.609-.4a1.388,1.388,0,0,1-.753-.492A1.373,1.373,0,0,1,11.65,8.611ZM21,9.5a.5.5,0,0,0-.5.5v7.62c0,1.965-.915,2.88-2.88,2.88H6.38c-1.992,0-2.88-.888-2.88-2.88V6.37c0-1.985.888-2.87,2.88-2.87H14a.5.5,0,0,0,0-1H6.38C3.842,2.5,2.5,3.838,2.5,6.37V17.62c0,2.538,1.342,3.88,3.88,3.88H17.62c2.5,0,3.88-1.378,3.88-3.88V10A.5.5,0,0,0,21,9.5Z"/>
</svg>