<svg xmlns="http://www.w3.org/2000/svg" width="24" height="24" viewBox="0 0 24 24">
    <path d="M20.393,9.439A1.482,1.482,0,0,0,19.008,8.5H16.915V4a1.5,1.5,0,0,0-1.5-1.5h-6A1.5,1.5,0,0,0,7.915,4V8.5H5.992a1.489,1.489,0,0,0-1.023,2.573L11.243,17a1.83,1.83,0,0,0,2.514,0l6.273-5.927A1.482,1.482,0,0,0,20.393,9.439Zm-1.049.906-6.275,5.928a.828.828,0,0,1-1.138,0L5.655,10.345A.49.49,0,0,1,5.992,9.5H8.415a.5.5,0,0,0,.5-.5V4a.5.5,0,0,1,.5-.5h6a.5.5,0,0,1,.5.5V9a.5.5,0,0,0,.5.5h2.593a.489.489,0,0,1,.336.845ZM20,21a.5.5,0,0,1-.5.5H5.5a.5.5,0,0,1,0-1h14A.5.5,0,0,1,20,21Z"/>
</svg>