<svg xmlns="http://www.w3.org/2000/svg" width="24" height="24" viewBox="0 0 24 24">
    <path d="M12.5,19a.5.5,0,0,1-.5.5H5c-2.29,0-3.5-1.21-3.5-3.5V7C1.5,4.71,2.71,3.5,5,3.5H17c2.29,0,3.5,1.21,3.5,3.5v4a.5.5,0,0,1-1,0V7c0-1.729-.771-2.5-2.5-2.5H5c-1.729,0-2.5.771-2.5,2.5v9c0,1.729.771,2.5,2.5,2.5h7A.5.5,0,0,1,12.5,19ZM16.206,7.6l-4.912,3.572a.5.5,0,0,1-.588,0L5.794,7.6a.5.5,0,0,0-.588.808l4.912,3.573a1.495,1.495,0,0,0,1.764,0L16.794,8.4a.5.5,0,0,0-.588-.808ZM22.5,17.5a4,4,0,1,1-4-4A4,4,0,0,1,22.5,17.5Zm-7,0a2.97,2.97,0,0,0,.56,1.733l4.173-4.173A2.972,2.972,0,0,0,18.5,14.5,3,3,0,0,0,15.5,17.5Zm6,0a2.97,2.97,0,0,0-.56-1.733L16.767,19.94a2.972,2.972,0,0,0,1.733.56A3,3,0,0,0,21.5,17.5Z"/>
</svg>