<svg xmlns="http://www.w3.org/2000/svg" width="24" height="24" viewBox="0 0 24 24">
    <path d="M13.5,19a.5.5,0,0,1-.5.5H5c-2.29,0-3.5-1.21-3.5-3.5V7C1.5,4.71,2.71,3.5,5,3.5H17c2.29,0,3.5,1.21,3.5,3.5v4a.5.5,0,0,1-1,0V7c0-1.729-.771-2.5-2.5-2.5H5c-1.729,0-2.5.771-2.5,2.5v9c0,1.729.771,2.5,2.5,2.5h8A.5.5,0,0,1,13.5,19ZM16.206,7.6l-4.912,3.572a.5.5,0,0,1-.588,0L5.794,7.6a.5.5,0,0,0-.588.808l4.912,3.573a1.495,1.495,0,0,0,1.764,0L16.794,8.4a.5.5,0,0,0-.588-.808Zm6.294,7.52v2a4.658,4.658,0,0,1-3.337,4.362.506.506,0,0,1-.326,0A4.658,4.658,0,0,1,15.5,17.111V15.167a.5.5,0,0,1,.359-.48,14.9,14.9,0,0,0,2.918-1.131.5.5,0,0,1,.46,0,12.082,12.082,0,0,0,2.889,1.075A.5.5,0,0,1,22.5,15.116Zm-1,.384a12.624,12.624,0,0,1-2.5-.938,15.245,15.245,0,0,1-2.5.977v1.572A3.7,3.7,0,0,0,19,20.466a3.7,3.7,0,0,0,2.5-3.355Z"/>
</svg>