<svg xmlns="http://www.w3.org/2000/svg" width="24" height="24" viewBox="0 0 24 24">
    <path d="m12.02,22.5c-5.79,0-10.5-4.71-10.5-10.5S6.229,1.5,12.02,1.5s10.5,4.71,10.5,10.5-4.71,10.5-10.5,10.5Zm0-20C6.781,2.5,2.52,6.762,2.52,12s4.262,9.5,9.5,9.5,9.5-4.262,9.5-9.5S17.258,2.5,12.02,2.5Zm3.98,7.5c0-.869-.421-1.5-1-1.5s-1,.631-1,1.5.421,1.5,1,1.5,1-.631,1-1.5Zm-6,0c0-.869-.421-1.5-1-1.5s-1,.631-1,1.5.421,1.5,1,1.5,1-.631,1-1.5Zm2,8.5c-1.379,0-2.5-1.122-2.5-2.5s1.121-2.5,2.5-2.5,2.5,1.122,2.5,2.5-1.121,2.5-2.5,2.5Zm0-4c-.827,0-1.5.673-1.5,1.5s.673,1.5,1.5,1.5,1.5-.673,1.5-1.5-.673-1.5-1.5-1.5Z"/>
</svg>