<svg xmlns="http://www.w3.org/2000/svg" width="24" height="24" viewBox="0 0 24 24">
    <path d="M11,19.5H6c-1.729,0-2.5-.771-2.5-2.5V5c0-1.729.771-2.5,2.5-2.5h5.5V5c0,2.29,1.21,3.5,3.5,3.5h2.5V11a.5.5,0,0,0,1,0V8a.5.5,0,0,0-.146-.354l-6-6A.5.5,0,0,0,12,1.5H6C3.71,1.5,2.5,2.71,2.5,5V17c0,2.29,1.21,3.5,3.5,3.5h5a.5.5,0,0,0,0-1ZM12.5,5V3.207L16.793,7.5H15C13.271,7.5,12.5,6.729,12.5,5ZM14,10.5a.5.5,0,0,1,0,1H7a.5.5,0,0,1,0-1ZM11.5,15a.5.5,0,0,1-.5.5H7a.5.5,0,0,1,0-1h4A.5.5,0,0,1,11.5,15ZM18,13.5A4.5,4.5,0,1,0,22.5,18,4.505,4.505,0,0,0,18,13.5Zm0,8A3.5,3.5,0,1,1,21.5,18,3.5,3.5,0,0,1,18,21.5Zm1.6-4.687a.5.5,0,0,1,0,.707l-1.667,1.667a.5.5,0,0,1-.708,0l-.833-.833a.5.5,0,0,1,.708-.708l.479.48L18.9,16.813A.5.5,0,0,1,19.6,16.813Z"/>
</svg>