<svg xmlns="http://www.w3.org/2000/svg" width="24" height="24" viewBox="0 0 24 24">
    <path d="M17.057,19.7A2.369,2.369,0,0,1,15,20.5H6c-1.729,0-2.5-.771-2.5-2.5V6c0-1.729.771-2.5,2.5-2.5h5.5V6c0,2.29,1.21,3.5,3.5,3.5h2.5V12a.5.5,0,0,0,1,0V9a.5.5,0,0,0-.146-.354l-6-6A.5.5,0,0,0,12,2.5H6C3.71,2.5,2.5,3.71,2.5,6V18c0,2.29,1.21,3.5,3.5,3.5h9a3.322,3.322,0,0,0,2.863-1.2.5.5,0,0,0-.806-.59ZM12.5,6V4.207L16.793,8.5H15C13.271,8.5,12.5,7.729,12.5,6Zm10,10a.5.5,0,0,1-.5.5H14.207l1.147,1.146a.5.5,0,0,1-.708.708l-2-2a.5.5,0,0,1,0-.708l2-2a.5.5,0,0,1,.708.708L14.207,15.5H22A.5.5,0,0,1,22.5,16Z"/>
</svg>