<svg xmlns="http://www.w3.org/2000/svg" width="24" height="24" viewBox="0 0 24 24">
    <path d="M20.354,8.646l-6-6A.5.5,0,0,0,14,2.5H8C5.71,2.5,4.5,3.71,4.5,6V18c0,2.29,1.21,3.5,3.5,3.5h9c2.29,0,3.5-1.21,3.5-3.5V9A.5.5,0,0,0,20.354,8.646ZM14.5,4.207,18.793,8.5H17c-1.729,0-2.5-.771-2.5-2.5ZM17,20.5H8c-1.729,0-2.5-.771-2.5-2.5V6c0-1.729.771-2.5,2.5-2.5h5.5V6c0,2.29,1.21,3.5,3.5,3.5h2.5V18C19.5,19.729,18.729,20.5,17,20.5Zm-1.374-8.868a12.082,12.082,0,0,1-2.889-1.075.5.5,0,0,0-.46,0,14.9,14.9,0,0,1-2.918,1.131.5.5,0,0,0-.359.48v1.944a4.658,4.658,0,0,0,3.337,4.362.506.506,0,0,0,.326,0A4.658,4.658,0,0,0,16,14.111v-2A.5.5,0,0,0,15.626,11.632ZM15,14.111a3.7,3.7,0,0,1-2.5,3.355A3.7,3.7,0,0,1,10,14.111V12.539a15.245,15.245,0,0,0,2.5-.977A12.624,12.624,0,0,0,15,12.5Z"/>
</svg>