<svg xmlns="http://www.w3.org/2000/svg" width="24" height="24" viewBox="0 0 24 24">
    <path d="M21.126,15.632a12.082,12.082,0,0,1-2.889-1.075.5.5,0,0,0-.46,0,14.767,14.767,0,0,1-2.918,1.132.5.5,0,0,0-.359.48v1.944a4.659,4.659,0,0,0,3.337,4.362.506.506,0,0,0,.326,0A4.659,4.659,0,0,0,21.5,18.111v-2A.5.5,0,0,0,21.126,15.632ZM20.5,18.111A3.7,3.7,0,0,1,18,21.466a3.7,3.7,0,0,1-2.5-3.355V16.539a15.146,15.146,0,0,0,2.5-.978,12.556,12.556,0,0,0,2.5.939ZM13,20.5H6c-1.729,0-2.5-.771-2.5-2.5V6c0-1.729.771-2.5,2.5-2.5h5.5V6c0,2.29,1.21,3.5,3.5,3.5h2.5V12a.5.5,0,0,0,1,0V9a.5.5,0,0,0-.146-.354l-6-6A.5.5,0,0,0,12,2.5H6C3.71,2.5,2.5,3.71,2.5,6V18c0,2.29,1.21,3.5,3.5,3.5h7a.5.5,0,0,0,0-1ZM12.5,6V4.207L16.793,8.5H15C13.271,8.5,12.5,7.729,12.5,6Zm2,6a.5.5,0,0,1-.5.5H7a.5.5,0,0,1,0-1h7A.5.5,0,0,1,14.5,12ZM7,16.5a.5.5,0,0,1,0-1h4a.5.5,0,0,1,0,1Z"/>
</svg>