<svg xmlns="http://www.w3.org/2000/svg" width="24" height="24" viewBox="0 0 24 24">
    <path d="M18,6.5H13.207L10.354,3.646A.5.5,0,0,0,10,3.5H6C3.71,3.5,2.5,4.71,2.5,7V17c0,2.29,1.21,3.5,3.5,3.5H18c2.29,0,3.5-1.21,3.5-3.5V10C21.5,7.71,20.29,6.5,18,6.5ZM20.5,17c0,1.729-.771,2.5-2.5,2.5H6c-1.729,0-2.5-.771-2.5-2.5V7c0-1.729.771-2.5,2.5-2.5H9.793l2.853,2.854A.5.5,0,0,0,13,7.5h5c1.729,0,2.5.771,2.5,2.5ZM14,12.6V11.5a2,2,0,0,0-4,0v1.1a1.446,1.446,0,0,0-1,1.526v1.75A1.479,1.479,0,0,0,10.625,17.5h2.75A1.479,1.479,0,0,0,15,15.875v-1.75A1.446,1.446,0,0,0,14,12.6Zm-2-2.1a1,1,0,0,1,1,1v1H11v-1A1,1,0,0,1,12,10.5Zm2,5.375c0,.473-.152.625-.625.625h-2.75c-.473,0-.625-.152-.625-.625v-1.75c0-.473.152-.625.625-.625h2.75c.473,0,.625.152.625.625Z"/>
</svg>