<svg xmlns="http://www.w3.org/2000/svg" width="24" height="24" viewBox="0 0 24 24">
    <path d="M17,3.5H12.207L10.354,1.646A.5.5,0,0,0,10,1.5H7C4.71,1.5,3.5,2.71,3.5,5v7c0,2.29,1.21,3.5,3.5,3.5h4.5v2.051A2.505,2.505,0,0,0,9.551,19.5H5a.5.5,0,0,0,0,1H9.551a2.5,2.5,0,0,0,4.9,0H19a.5.5,0,0,0,0-1H14.449A2.505,2.505,0,0,0,12.5,17.551V15.5H17c2.29,0,3.5-1.21,3.5-3.5V7C20.5,4.71,19.29,3.5,17,3.5ZM13.5,20A1.5,1.5,0,1,1,12,18.5,1.5,1.5,0,0,1,13.5,20Zm6-8c0,1.729-.771,2.5-2.5,2.5H7c-1.729,0-2.5-.771-2.5-2.5V5c0-1.729.771-2.5,2.5-2.5H9.793l1.853,1.854A.5.5,0,0,0,12,4.5h5c1.729,0,2.5.771,2.5,2.5Z"/>
</svg>