<svg xmlns="http://www.w3.org/2000/svg" width="24" height="24" viewBox="0 0 24 24">
    <path d="M18,6.5H13.207L10.354,3.646A.5.5,0,0,0,10,3.5H6C3.71,3.5,2.5,4.71,2.5,7V17c0,2.29,1.21,3.5,3.5,3.5H18c2.29,0,3.5-1.21,3.5-3.5V10C21.5,7.71,20.29,6.5,18,6.5ZM20.5,17c0,1.729-.771,2.5-2.5,2.5H6c-1.729,0-2.5-.771-2.5-2.5V7c0-1.729.771-2.5,2.5-2.5H9.793l2.853,2.854A.5.5,0,0,0,13,7.5h5c1.729,0,2.5.771,2.5,2.5Zm-5.374-6.368a12.082,12.082,0,0,1-2.889-1.075.5.5,0,0,0-.46,0,14.767,14.767,0,0,1-2.918,1.132.5.5,0,0,0-.359.48v1.944a4.659,4.659,0,0,0,3.337,4.362.506.506,0,0,0,.326,0A4.659,4.659,0,0,0,15.5,13.111v-2A.5.5,0,0,0,15.126,10.632ZM14.5,13.111A3.7,3.7,0,0,1,12,16.466a3.7,3.7,0,0,1-2.5-3.355V11.539a15.146,15.146,0,0,0,2.5-.978,12.556,12.556,0,0,0,2.5.939Z"/>
</svg>