<svg xmlns="http://www.w3.org/2000/svg" width="24" height="24" viewBox="0 0 24 24">
    <path d="m20.381,18.298c1.324-1.757,2.119-3.934,2.119-6.298,0-2.309-.758-4.44-2.027-6.175-.021-.031-.039-.064-.068-.09-1.916-2.564-4.966-4.234-8.406-4.234S5.504,3.174,3.588,5.743c-.046.042-.082.092-.109.146-1.24,1.724-1.979,3.831-1.979,6.111,0,2.364.795,4.541,2.119,6.298.016.02.027.043.046.061,1.92,2.511,4.938,4.141,8.336,4.141s6.415-1.63,8.336-4.141c.018-.018.03-.041.046-.061Zm-4.113-.798l-1.062-1.597,1.211-4.845,2.16-.72,2.896,2.198c-.104,1.844-.73,3.547-1.741,4.964h-3.463Zm-8.536,0h-3.463c-1.013-1.42-1.64-3.126-1.742-4.974l2.885-2.188,2.171.721,1.211,4.844-1.062,1.597ZM3.808,7.213l.914,2.393-2.184,1.656c.114-1.469.562-2.842,1.27-4.049Zm5.916,8.287l-1.153-4.613,3.418-2.278s.008.002.012.002.008-.002.012-.002l3.418,2.278-1.153,4.613h-4.553Zm11.74-4.227l-2.196-1.667.916-2.407c.715,1.213,1.167,2.595,1.28,4.074Zm-1.965-5.085l-1.216,3.194-2.205.735-3.577-2.385v-2.149l3.147-2.353c1.528.638,2.849,1.668,3.851,2.958Zm-5.003-3.345l-2.495,1.865-2.495-1.865c.797-.217,1.631-.344,2.495-.344s1.698.126,2.495.344Zm-6.142.387l3.147,2.353v2.149l-3.577,2.385-2.216-.736-1.214-3.18c1.003-1.296,2.328-2.331,3.861-2.971Zm-3.262,15.269h2.521l.561,2.188c-1.172-.518-2.216-1.268-3.082-2.188Zm4.222,2.607l-.773-3.015,1.059-1.592h4.804l1.059,1.592-.773,3.015c-.853.252-1.753.393-2.687.393s-1.834-.141-2.687-.393Zm6.514-.419l.561-2.188h2.521c-.867.921-1.911,1.67-3.082,2.188Z"/>
</svg>