<svg xmlns="http://www.w3.org/2000/svg" width="24" height="24" viewBox="0 0 24 24">
    <path d="M19.5,6.5H17.987A2.471,2.471,0,0,0,18.5,5a2.5,2.5,0,0,0-4.431-1.582c-.029.037-1.378,1.831-2.069,2.75-.691-.919-2.041-2.714-2.074-2.756A2.493,2.493,0,0,0,6.013,6.5H4.5a2,2,0,0,0-2,2V12a.5.5,0,0,0,.5.5h.5V18c0,2.29,1.21,3.5,3.5,3.5H17c2.29,0,3.5-1.21,3.5-3.5V12.5H21a.5.5,0,0,0,.5-.5V8.5A2,2,0,0,0,19.5,6.5ZM14.846,4.048A1.5,1.5,0,1,1,16,6.5H13C13.709,5.558,14.8,4.113,14.846,4.048ZM6.5,5A1.5,1.5,0,0,1,8,3.5a1.487,1.487,0,0,1,1.146.538C9.2,4.11,10.29,5.558,11,6.5H8A1.5,1.5,0,0,1,6.5,5Zm-3,3.5a1,1,0,0,1,1-1h7v4h-8Zm1,9.5V12.5h7v8H7C5.271,20.5,4.5,19.729,4.5,18Zm15,0c0,1.729-.771,2.5-2.5,2.5H12.5v-8h7Zm1-6.5h-8v-4h7a1,1,0,0,1,1,1Z"/>
</svg>