<svg xmlns="http://www.w3.org/2000/svg" width="24" height="24" viewBox="0 0 24 24">
    <path d="M20.569,14.761a1.811,1.811,0,0,0-1.848.024l-2.254,1.352A2,2,0,0,0,14.5,14.5H9a2.491,2.491,0,0,0-1.733.705A1.5,1.5,0,0,0,6,14.5H4A1.5,1.5,0,0,0,2.5,16v4A1.5,1.5,0,0,0,4,21.5H6a1.5,1.5,0,0,0,1.267-.7A2.491,2.491,0,0,0,9,21.5h5.6a4.515,4.515,0,0,0,2.811-.986l3.4-2.723a1.836,1.836,0,0,0-.243-3.03ZM6.5,20a.5.5,0,0,1-.5.5H4a.5.5,0,0,1-.5-.5V16a.5.5,0,0,1,.5-.5H6a.5.5,0,0,1,.5.5v4Zm13.687-2.99-3.4,2.723A3.51,3.51,0,0,1,14.6,20.5H9A1.5,1.5,0,0,1,7.5,19V17A1.5,1.5,0,0,1,9,15.5h5.5a1,1,0,0,1,0,2H11a.5.5,0,0,0,0,1h3.5a2,2,0,0,0,1.777-1.083l2.958-1.775a.835.835,0,0,1,.952,1.368ZM9.96,7.027a2.177,2.177,0,0,1,1.52-3.506V3a.5.5,0,0,1,1,0v.515a2.18,2.18,0,0,1,2.007,1.929.5.5,0,0,1-.994.112A1.185,1.185,0,0,0,12.315,4.5h-.63A1.187,1.187,0,0,0,10.5,5.685a1.174,1.174,0,0,0,.248.726,1.2,1.2,0,0,0,.649.424l1.449.36a2.183,2.183,0,0,1,1.012,3.664,2.16,2.16,0,0,1-1.378.625V12a.5.5,0,0,1-1,0v-.519A2.18,2.18,0,0,1,9.513,9.556a.5.5,0,1,1,.994-.112A1.185,1.185,0,0,0,11.685,10.5h.63A1.192,1.192,0,0,0,13.5,9.315a1.186,1.186,0,0,0-.9-1.15l-1.449-.36A2.2,2.2,0,0,1,9.96,7.027Z"/>
</svg>