<svg xmlns="http://www.w3.org/2000/svg" width="24" height="24" viewBox="0 0 24 24">
    <path d="M20.916,16.578A19.336,19.336,0,0,0,21.5,12a9.5,9.5,0,0,0-19,0,19.351,19.351,0,0,0,.584,4.579c.006.031.006.062.014.093.017.07.04.134.058.2.023.086.039.174.063.259a.5.5,0,0,0,.026.052c.094.343.184.691.292,1.017l.473,1.533A2.5,2.5,0,0,0,7.13,21.39l.964-.3a1.5,1.5,0,0,0,1-1.872L7.606,14.367a1.5,1.5,0,0,0-1.875-1l-.942.289a2.467,2.467,0,0,0-1.12.724A17.553,17.553,0,0,1,3.5,12a8.5,8.5,0,0,1,17,0,17.553,17.553,0,0,1-.169,2.385,2.467,2.467,0,0,0-1.12-.724l-.942-.289a1.5,1.5,0,0,0-1.875,1L14.91,19.222a1.5,1.5,0,0,0,.995,1.873l.965.3a2.5,2.5,0,0,0,3.12-1.654l.472-1.528c.112-.341.205-.694.3-1.046,0-.011.016-.016.019-.028.024-.084.04-.17.062-.255s.042-.136.059-.207C20.91,16.641,20.91,16.61,20.916,16.578ZM5.082,14.617l.942-.289a.507.507,0,0,1,.148-.023.5.5,0,0,1,.477.354l1.486,4.856A.5.5,0,0,1,8.1,19.9a.494.494,0,0,1-.3.243l-.965.3a1.5,1.5,0,0,1-1.872-.993L4.489,17.9c-.137-.414-.255-.841-.366-1.272-.024-.093-.044-.187-.067-.28A1.51,1.51,0,0,1,5.082,14.617Zm14.426,3.291-.473,1.533a1.5,1.5,0,0,1-1.872.993l-.966-.3a.5.5,0,0,1-.331-.624l1.485-4.855a.5.5,0,0,1,.477-.355.507.507,0,0,1,.148.023l.942.289a1.511,1.511,0,0,1,1.027,1.728c-.023.094-.044.188-.068.281-.111.431-.229.858-.366,1.272Z"/>
</svg>