<svg xmlns="http://www.w3.org/2000/svg" width="24" height="24" viewBox="0 0 24 24">
    <path d="M21.317,9.278l-7.412-6.1a3,3,0,0,0-3.81,0l-7.412,6.1a.5.5,0,1,0,.634.772L4.5,9.078V18c0,2.29,1.21,3.5,3.5,3.5h8c2.29,0,3.5-1.21,3.5-3.5V9.078l1.183.972a.5.5,0,0,0,.7-.069A.5.5,0,0,0,21.317,9.278ZM18.5,18c0,1.729-.771,2.5-2.5,2.5H8c-1.729,0-2.5-.771-2.5-2.5V8.255l5.229-4.3a2.01,2.01,0,0,1,2.542,0l5.229,4.3ZM8,12.917a3.42,3.42,0,0,0,3.417,3.416,3.383,3.383,0,0,0,2.027-.682l1.7,1.7a.5.5,0,0,0,.708-.708l-1.7-1.7a3.385,3.385,0,0,0,.682-2.027,3.417,3.417,0,1,0-6.833,0Zm5.833,0A2.417,2.417,0,1,1,11.417,10.5,2.419,2.419,0,0,1,13.833,12.917Z"/>
</svg>