<svg xmlns="http://www.w3.org/2000/svg" width="24" height="24" viewBox="0 0 24 24">
    <path d="M21.317,9.278l-7.412-6.1a3,3,0,0,0-3.81,0l-7.412,6.1a.5.5,0,1,0,.634.772L4.5,9.078V18c0,2.29,1.21,3.5,3.5,3.5h8c2.29,0,3.5-1.21,3.5-3.5V9.078l1.183.972a.5.5,0,0,0,.7-.069A.5.5,0,0,0,21.317,9.278ZM18.5,18c0,1.729-.771,2.5-2.5,2.5H8c-1.729,0-2.5-.771-2.5-2.5V8.255l5.229-4.3a2.01,2.01,0,0,1,2.542,0l5.229,4.3Zm-5-6.5H16a.487.487,0,0,1,.191.039A.5.5,0,0,1,16.5,12v2.5a.5.5,0,0,1-1,0V13.207l-1.985,1.985a1.22,1.22,0,0,1-1.685,0l-1.179-1.179a.162.162,0,0,0-.27,0L8.354,16.04a.5.5,0,0,1-.708-.707l2.028-2.027a1.218,1.218,0,0,1,1.684,0l1.179,1.179a.217.217,0,0,0,.271,0L14.793,12.5H13.5a.5.5,0,0,1,0-1Z"/>
</svg>