<svg xmlns="http://www.w3.org/2000/svg" width="24" height="24" viewBox="0 0 24 24">
    <path d="M21.317,9.278l-7.412-6.1a3,3,0,0,0-3.81,0l-7.412,6.1a.5.5,0,1,0,.634.772L4.5,9.078V18c0,2.29,1.21,3.5,3.5,3.5h8c2.29,0,3.5-1.21,3.5-3.5V9.078l1.183.972a.5.5,0,0,0,.7-.069A.5.5,0,0,0,21.317,9.278ZM18.5,18c0,1.729-.771,2.5-2.5,2.5H8c-1.729,0-2.5-.771-2.5-2.5V8.255l5.229-4.3a2.01,2.01,0,0,1,2.542,0l5.229,4.3ZM13.515,12.5,15.5,14.48V13.187a.5.5,0,1,1,1,0v2.5a.5.5,0,0,1-.5.5H13.5a.5.5,0,0,1,0-1h1.293L12.808,13.2a.215.215,0,0,0-.271,0l-1.179,1.179a1.217,1.217,0,0,1-1.684,0L7.646,12.354a.5.5,0,0,1,.708-.708l2.027,2.028a.161.161,0,0,0,.27,0L11.83,12.5A1.218,1.218,0,0,1,13.515,12.5Z"/>
</svg>