<svg xmlns="http://www.w3.org/2000/svg" width="24" height="24" viewBox="0 0 24 24">
    <path d="M20.588,8.676,13.906,3.183a3.006,3.006,0,0,0-3.812,0L3.412,8.676a2.5,2.5,0,0,0-.872,2.38L4,19.038A3,3,0,0,0,6.947,21.5H17.053a3,3,0,0,0,2.952-2.462l1.455-7.983A2.5,2.5,0,0,0,20.588,8.676Zm-.112,2.2-1.455,7.983A2,2,0,0,1,17.053,20.5H6.947a2,2,0,0,1-1.968-1.642L3.524,10.876a1.5,1.5,0,0,1,.523-1.427l6.682-5.493a2,2,0,0,1,2.542,0l6.682,5.493A1.5,1.5,0,0,1,20.476,10.875ZM12,12.8a2.15,2.15,0,1,0-2.15-2.15A2.152,2.152,0,0,0,12,12.8Zm0-3.3a1.15,1.15,0,1,1-1.15,1.15A1.151,1.151,0,0,1,12,9.5Zm3.5,7.2V17a.5.5,0,0,1-1,0v-.3A1.7,1.7,0,0,0,12.642,15H11.358A1.7,1.7,0,0,0,9.5,16.7V17a.5.5,0,0,1-1,0v-.3A2.687,2.687,0,0,1,11.358,14h1.284A2.687,2.687,0,0,1,15.5,16.7Z"/>
</svg>