<svg xmlns="http://www.w3.org/2000/svg" width="24" height="24" viewBox="0 0 24 24">
    <path d="M18,6.5H12.5V6a1,1,0,0,1,1-1h1a2,2,0,0,0,2-2,.5.5,0,0,0-1,0,1,1,0,0,1-1,1h-1a2,2,0,0,0-2,2v.5H6C3.71,6.5,2.5,7.71,2.5,10v7c0,2.29,1.21,3.5,3.5,3.5H18c2.29,0,3.5-1.21,3.5-3.5V10C21.5,7.71,20.29,6.5,18,6.5ZM20.5,17c0,1.729-.771,2.5-2.5,2.5H6c-1.729,0-2.5-.771-2.5-2.5V10c0-1.729.771-2.5,2.5-2.5H18c1.729,0,2.5.771,2.5,2.5Zm-1.75-6a.5.5,0,0,1-.5.5H16.5a.5.5,0,0,1,0-1h1.75A.5.5,0,0,1,18.75,11ZM17.5,14a.5.5,0,0,1-.5.5H15.5a.5.5,0,0,1,0-1H17A.5.5,0,0,1,17.5,14Zm-5.25-3a.75.75,0,1,1,.75.75A.75.75,0,0,1,12.25,11Zm-3.5,0a.75.75,0,1,1,.75.75A.75.75,0,0,1,8.75,11Zm-2,0A.75.75,0,1,1,6,10.25.75.75,0,0,1,6.75,11ZM8.5,14.75A.75.75,0,1,1,9.25,14,.75.75,0,0,1,8.5,14.75ZM11.25,14a.75.75,0,1,1,.75.75A.75.75,0,0,1,11.25,14Zm4.25,3a.5.5,0,0,1-.5.5H9a.5.5,0,0,1,0-1h6A.5.5,0,0,1,15.5,17Z"/>
</svg>