<svg xmlns="http://www.w3.org/2000/svg" width="24" height="24" viewBox="0 0 24 24">
    <path d="M12.5,1.5a2,2,0,1,0,2,2A2,2,0,0,0,12.5,1.5Zm0,3a1,1,0,1,1,1-1A1,1,0,0,1,12.5,4.5Zm6,1a2,2,0,1,0-2-2A2,2,0,0,0,18.5,5.5Zm0-3a1,1,0,1,1-1,1A1,1,0,0,1,18.5,2.5Zm-12-1a2,2,0,1,0,2,2A2,2,0,0,0,6.5,1.5Zm0,3a1,1,0,1,1,1-1A1,1,0,0,1,6.5,4.5Zm6,2.667a2,2,0,1,0,2,2A2,2,0,0,0,12.5,7.167Zm0,3a1,1,0,1,1,1-1A1,1,0,0,1,12.5,10.167Zm6-3a2,2,0,1,0,2,2A2,2,0,0,0,18.5,7.167Zm0,3a1,1,0,1,1,1-1A1,1,0,0,1,18.5,10.167Zm-12-3a2,2,0,1,0,2,2A2,2,0,0,0,6.5,7.167Zm0,3a1,1,0,1,1,1-1A1,1,0,0,1,6.5,10.167Zm6,2.666a2,2,0,1,0,2,2A2,2,0,0,0,12.5,12.833Zm0,3a1,1,0,1,1,1-1A1,1,0,0,1,12.5,15.833Zm6-3a2,2,0,1,0,2,2A2,2,0,0,0,18.5,12.833Zm0,3a1,1,0,1,1,1-1A1,1,0,0,1,18.5,15.833Zm-12-3a2,2,0,1,0,2,2A2,2,0,0,0,6.5,12.833Zm0,3a1,1,0,1,1,1-1A1,1,0,0,1,6.5,15.833Zm6,2.667a2,2,0,1,0,2,2A2,2,0,0,0,12.5,18.5Zm0,3a1,1,0,1,1,1-1A1,1,0,0,1,12.5,21.5Z"/>
</svg>