<svg xmlns="http://www.w3.org/2000/svg" width="24" height="24" viewBox="0 0 24 24">
    <path d="M17.625,2.5H6.375C3.84,2.5,2.5,3.84,2.5,6.375v11.25C2.5,20.16,3.84,21.5,6.375,21.5h11.25c2.535,0,3.875-1.34,3.875-3.875V6.375C21.5,3.84,20.16,2.5,17.625,2.5ZM20.5,17.625c0,1.961-.913,2.875-2.875,2.875H6.375c-1.962,0-2.875-.914-2.875-2.875V6.375C3.5,4.414,4.413,3.5,6.375,3.5h11.25c1.962,0,2.875.914,2.875,2.875ZM15.115,9.417h-1.56V8.208a2.078,2.078,0,0,0-.928-1.733,1.337,1.337,0,0,0-2,.663l-1.1,3.334H8.042A1.293,1.293,0,0,0,6.75,11.764v3.694A1.293,1.293,0,0,0,8.042,16.75h6.019a1.786,1.786,0,0,0,1.976-1.424l1.056-3.168a2.165,2.165,0,0,0-.166-1.982A2.076,2.076,0,0,0,15.115,9.417ZM7.75,15.458V11.764a.292.292,0,0,1,.292-.292H9V15.75H8.042A.292.292,0,0,1,7.75,15.458Zm8.394-3.616-1.056,3.167c-.17.509-.247.741-1.027.741H10V11.436a.483.483,0,0,0,.363-.308l1.205-3.659a.339.339,0,0,1,.5-.162,1.081,1.081,0,0,1,.483.9V9.917a.5.5,0,0,0,.5.5h2.06a1.247,1.247,0,0,1,1,.344A1.239,1.239,0,0,1,16.144,11.842Z"/>
</svg>