<svg xmlns="http://www.w3.org/2000/svg" width="24" height="24" viewBox="0 0 24 24">
    <path d="M20.5,7.5H19.279a2.419,2.419,0,0,0-1.525-1.371C17.6,6.063,14.083,4.5,12,4.5S6.4,6.063,6.312,6.105A2.5,2.5,0,0,0,4.723,7.5H3.5a2,2,0,0,0-2,2V13A4.505,4.505,0,0,0,6,17.5h.022a7.448,7.448,0,0,0,11.956,0H18A4.505,4.505,0,0,0,22.5,13V9.5A2,2,0,0,0,20.5,7.5ZM2.5,13V9.5a1,1,0,0,1,1-1h1V13a7.474,7.474,0,0,0,.847,3.434A3.5,3.5,0,0,1,2.5,13Zm12.061,5.975A6.5,6.5,0,0,1,5.5,13V8.509A1.541,1.541,0,0,1,6.654,7.042C6.688,7.026,10.131,5.5,12,5.5s5.312,1.526,5.412,1.566A1.508,1.508,0,0,1,18.5,8.509V13A6.493,6.493,0,0,1,14.561,18.975ZM21.5,13a3.5,3.5,0,0,1-2.847,3.434A7.474,7.474,0,0,0,19.5,13V8.5h1a1,1,0,0,1,1,1Zm-5-1.5a.5.5,0,0,1-.5.5H8a.5.5,0,0,1,0-1h8A.5.5,0,0,1,16.5,11.5Zm-1,3a.5.5,0,0,1-.5.5H9a.5.5,0,0,1,0-1h6A.5.5,0,0,1,15.5,14.5Z"/>
</svg>