<svg xmlns="http://www.w3.org/2000/svg" width="24" height="24" viewBox="0 0 24 24">
    <path d="m8.864,13.56l1.212-1.938c.132-.212.34-.235.424-.235s.292.023.424.235l1.211,1.938c.368.588,1.001.94,1.696.94h3.168c.827,0,1.5-.673,1.5-1.5v-4c0-2.29-1.21-3.5-3.5-3.5H6c-2.29,0-3.5,1.21-3.5,3.5v4c0,.827.673,1.5,1.5,1.5h3.168c.694,0,1.328-.352,1.696-.94Zm-1.696-.06h-3.168c-.276,0-.5-.224-.5-.5v-4c0-1.729.771-2.5,2.5-2.5h9c1.729,0,2.5.771,2.5,2.5v4c0,.276-.224.5-.5.5h-3.168c-.347,0-.664-.176-.848-.47l-1.211-1.938c-.276-.442-.751-.706-1.272-.706s-.997.264-1.272.705l-1.211,1.938c-.184.294-.501.47-.848.47ZM21.5,3v15c0,2.29-1.21,3.5-3.5,3.5h-4.5c-2.29,0-3.5-1.21-3.5-3.5v-.5h-1.5c-.276,0-.5-.224-.5-.5s.224-.5.5-.5h4c.276,0,.5.224.5.5s-.224.5-.5.5h-1.5v.5c0,1.729.771,2.5,2.5,2.5h4.5c1.729,0,2.5-.771,2.5-2.5V3c0-.276.224-.5.5-.5s.5.224.5.5Z"/>
</svg>