<svg xmlns="http://www.w3.org/2000/svg" width="24" height="24" viewBox="0 0 24 24">
    <path d="M18,2.5H6C3.71,2.5,2.5,3.71,2.5,6V21a.5.5,0,0,0,.309.462A.489.489,0,0,0,3,21.5a.5.5,0,0,0,.354-.146L6.207,18.5H18c2.29,0,3.5-1.21,3.5-3.5V6C21.5,3.71,20.29,2.5,18,2.5ZM20.5,15c0,1.729-.771,2.5-2.5,2.5H6a.5.5,0,0,0-.354.146L3.5,19.793V6c0-1.729.771-2.5,2.5-2.5H18c1.729,0,2.5.771,2.5,2.5ZM14.338,8.448a2.31,2.31,0,0,1-1.132,2.395c-.58.386-.7.613-.732.692a.5.5,0,0,1-.948-.32,2.732,2.732,0,0,1,1.126-1.2,1.316,1.316,0,0,0,.7-1.388,1.376,1.376,0,0,0-2.729.253.5.5,0,0,1-1,0,2.369,2.369,0,0,1,.849-1.819,2.374,2.374,0,0,1,3.864,1.392ZM12.75,14a.75.75,0,1,1-.761-.75H12A.748.748,0,0,1,12.75,14Z"/>
</svg>