<svg xmlns="http://www.w3.org/2000/svg" width="24" height="24" viewBox="0 0 24 24">
    <path d="M18,2.5H6C3.71,2.5,2.5,3.71,2.5,6V21a.5.5,0,0,0,.309.462A.489.489,0,0,0,3,21.5a.5.5,0,0,0,.354-.146L6.207,18.5H18c2.29,0,3.5-1.21,3.5-3.5V6C21.5,3.71,20.29,2.5,18,2.5ZM20.5,15c0,1.729-.771,2.5-2.5,2.5H6a.5.5,0,0,0-.354.146L3.5,19.793V6c0-1.729.771-2.5,2.5-2.5H18c1.729,0,2.5.771,2.5,2.5ZM13.77,6.5A2.3,2.3,0,0,0,12,7.339,2.12,2.12,0,0,0,10.229,6.5a2.565,2.565,0,0,0-2.047.926,3.617,3.617,0,0,0-.6,2.963c.565,2.889,4.062,4.5,4.21,4.567a.5.5,0,0,0,.412,0c.148-.067,3.645-1.678,4.21-4.567a3.617,3.617,0,0,0-.6-2.964A2.565,2.565,0,0,0,13.77,6.5Zm1.664,3.7c-.395,2.021-2.722,3.373-3.434,3.744-.712-.371-3.039-1.723-3.435-3.745A2.619,2.619,0,0,1,8.956,8.06a1.574,1.574,0,0,1,1.277-.56h.007a1.456,1.456,0,0,1,1.286.978A.5.5,0,0,0,12,8.817a.522.522,0,0,0,.476-.337,1.457,1.457,0,0,1,1.286-.98h.007a1.577,1.577,0,0,1,1.279.559A2.625,2.625,0,0,1,15.434,10.2Z"/>
</svg>