<svg xmlns="http://www.w3.org/2000/svg" width="24" height="24" viewBox="0 0 24 24">
    <path d="m16.5,9.5H4.5c-.552,0-1,.449-1,1v7.5c0,2.29,1.21,3.5,3.5,3.5h6c2.29,0,3.5-1.21,3.5-3.5v-.5c2.206,0,4-1.794,4-4s-1.794-4-4-4Zm-1,8.5c0,1.729-.771,2.5-2.5,2.5h-6c-1.729,0-2.5-.771-2.5-2.5v-7.5h11v7.5Zm1-1.5v-6c1.654,0,3,1.346,3,3s-1.346,3-3,3Zm-4.505-11.299c-.658-.663-.658-1.74,0-2.402l.15-.151c.193-.195.51-.198.707-.002.195.194.197.511.002.707l-.15.151c-.271.273-.271.719,0,.992l.301.303c.658.663.658,1.74,0,2.402l-.15.151c-.098.098-.226.147-.354.147-.127,0-.255-.048-.353-.146-.195-.194-.197-.511-.002-.707l.15-.151c.271-.273.271-.719,0-.992l-.301-.303Zm-5,0c-.658-.663-.658-1.74,0-2.402l.15-.151c.193-.195.51-.198.707-.002.195.194.197.511.002.707l-.15.151c-.271.273-.271.719,0,.992l.301.303c.658.663.658,1.74,0,2.402l-.15.151c-.098.098-.226.147-.354.147-.127,0-.255-.048-.353-.146-.195-.194-.197-.511-.002-.707l.15-.151c.271-.273.271-.719,0-.992l-.301-.303Z"/>
</svg>