<svg xmlns="http://www.w3.org/2000/svg" width="24" height="24" viewBox="0 0 24 24">
    <path d="M17.625,2.5H6.375C3.84,2.5,2.5,3.84,2.5,6.375v11.25C2.5,20.16,3.84,21.5,6.375,21.5h11.25c2.535,0,3.875-1.34,3.875-3.875V6.375C21.5,3.84,20.16,2.5,17.625,2.5ZM20.5,17.625c0,1.961-.913,2.875-2.875,2.875H6.375c-1.961,0-2.875-.914-2.875-2.875V6.375C3.5,4.414,4.414,3.5,6.375,3.5h11.25c1.962,0,2.875.914,2.875,2.875ZM13,7.5H10a.5.5,0,0,0-.5.5v8a.5.5,0,0,0,1,0V12.5H13a2.5,2.5,0,0,0,0-5Zm0,4H10.5v-3H13a1.5,1.5,0,0,1,0,3Z"/>
</svg>