<svg xmlns="http://www.w3.org/2000/svg" width="24" height="24" viewBox="0 0 24 24">
    <path d="M21.5,7.231a2.49,2.49,0,0,0-.732-1.771L18.54,3.232A2.488,2.488,0,0,0,16.771,2.5h0A2.484,2.484,0,0,0,15,3.236L2.646,15.647A.5.5,0,0,0,2.5,16v5a.5.5,0,0,0,.5.5H8a.5.5,0,0,0,.353-.146L20.764,9A2.484,2.484,0,0,0,21.5,7.231ZM7.794,20.5H3.5V16.207l9.242-9.285,4.337,4.335ZM20.059,8.291l-2.271,2.261-4.34-4.339,2.261-2.272A1.487,1.487,0,0,1,16.77,3.5h0a1.491,1.491,0,0,1,1.062.439l2.228,2.228a1.5,1.5,0,0,1,0,2.124ZM21.5,21a.5.5,0,0,1-.5.5H14a.5.5,0,0,1,0-1h7A.5.5,0,0,1,21.5,21Z"/>
</svg>