<svg xmlns="http://www.w3.org/2000/svg" width="24" height="24" viewBox="0 0 24 24">
    <path d="m19,16.5c-1.378,0-2.5,1.122-2.5,2.5s1.122,2.5,2.5,2.5,2.5-1.122,2.5-2.5-1.122-2.5-2.5-2.5Zm0,4c-.827,0-1.5-.673-1.5-1.5s.673-1.5,1.5-1.5,1.5.673,1.5,1.5-.673,1.5-1.5,1.5Zm-4.845-3.948c.967-.081,1.895-.426,3.339-1.87l.977-.964c1.377-1.377,2.079-3.017,2.027-4.742-.048-1.608-.768-3.187-2.027-4.446-1.259-1.26-2.838-1.979-4.446-2.027-1.73-.043-3.365.649-4.744,2.03l-.959.972c-1.911,1.911-1.905,2.915-1.897,4.305v.283c0,.581.081,1.167.24,1.744.242.862.03,1.76-.553,2.343l-3.326,3.326c-.378.378-.379.995,0,1.375l1.336,1.336c.189.189.438.284.687.284s.498-.095.688-.284l3.326-3.326c.583-.583,1.481-.794,2.345-.553.575.158,1.161.238,1.742.238h.283c.337.002.652.003.963-.023,0,0,0,0,0,0,0,0,0,0,0,0Zm-5.125-10.343l.959-.972c1.138-1.139,2.47-1.737,3.861-1.737.048,0,.096,0,.144.002,1.352.04,2.69.656,3.769,1.735s1.695,2.417,1.735,3.769c.042,1.442-.557,2.827-1.732,4.002l-.977.964c-1.086,1.087-1.745,1.437-2.457,1.55l-6.852-6.852c.113-.714.461-1.371,1.551-2.461Zm2.403,9.165c-1.207-.338-2.481-.03-3.32.809l-3.287,3.326-1.335-1.296,3.326-3.326c.838-.838,1.148-2.11.81-3.317-.134-.489-.202-.985-.202-1.477v-.063s5.546,5.546,5.546,5.546h-.063c-.492,0-.989-.068-1.475-.202Z"/>
</svg>