<svg xmlns="http://www.w3.org/2000/svg" width="24" height="24" viewBox="0 0 24 24">
    <path d="M18,6.5H10.081l6.077-2.026a.5.5,0,1,0-.316-.948L6.919,6.5H6C3.71,6.5,2.5,7.71,2.5,10v7c0,2.29,1.21,3.5,3.5,3.5H18c2.29,0,3.5-1.21,3.5-3.5V10C21.5,7.71,20.29,6.5,18,6.5ZM20.5,17c0,1.729-.771,2.5-2.5,2.5H6c-1.729,0-2.5-.771-2.5-2.5V10c0-1.729.771-2.5,2.5-2.5H18c1.729,0,2.5.771,2.5,2.5Zm-12-6.5a3,3,0,1,0,3,3A3,3,0,0,0,8.5,10.5Zm0,5a2,2,0,1,1,2-2A2,2,0,0,1,8.5,15.5Zm10-3.5a.5.5,0,0,1-.5.5H14a.5.5,0,0,1,0-1h4A.5.5,0,0,1,18.5,12Zm0,3a.5.5,0,0,1-.5.5H14a.5.5,0,0,1,0-1h4A.5.5,0,0,1,18.5,15Z"/>
</svg>