<svg xmlns="http://www.w3.org/2000/svg" width="24" height="24" viewBox="0 0 24 24">
    <path d="M17,2.5H7C4.71,2.5,3.5,3.71,3.5,6V18.621a1.5,1.5,0,0,0,2.4,1.2L7.259,18.8a1,1,0,0,1,1.307.093l2.02,2.019a2,2,0,0,0,2.828,0l2.02-2.019a1.006,1.006,0,0,1,1.307-.093l1.36,1.019a1.5,1.5,0,0,0,2.4-1.2V6C20.5,3.71,19.29,2.5,17,2.5Zm2.5,16.121a.5.5,0,0,1-.8.4L17.341,18a2.01,2.01,0,0,0-2.614.186h0l-2.02,2.019a1.023,1.023,0,0,1-1.414,0l-2.02-2.019A2.009,2.009,0,0,0,6.659,18L5.3,19.021a.5.5,0,0,1-.8-.4V6c0-1.729.771-2.5,2.5-2.5H17c1.729,0,2.5.771,2.5,2.5Z"/>
</svg>