<svg xmlns="http://www.w3.org/2000/svg" width="24" height="24" viewBox="0 0 24 24">
    <path d="M7.5,15A2.5,2.5,0,0,0,10,17.5h2a.5.5,0,0,1,0,1H10a3.5,3.5,0,0,1,0-7h4a2.5,2.5,0,0,0,0-5H12a.5.5,0,0,1,0-1h2a3.5,3.5,0,0,1,0,7H10A2.5,2.5,0,0,0,7.5,15ZM6.475,10.035l-.2.131a.5.5,0,0,1-.554,0l-.2-.131C4.32,9.239,2.5,8.037,2.5,6a3.5,3.5,0,0,1,7,0C9.5,8.037,7.68,9.239,6.475,10.035ZM8.5,6a2.5,2.5,0,0,0-5,0C3.5,7.464,4.921,8.437,6,9.15,7.079,8.437,8.5,7.464,8.5,6ZM6,5.25H5.988A.741.741,0,0,0,5.25,6,.75.75,0,1,0,6,5.25Zm15.5,12c0,2.037-1.82,3.239-3.025,4.035l-.2.131a.5.5,0,0,1-.554,0l-.2-.131c-1.2-.8-3.025-2-3.025-4.035a3.5,3.5,0,0,1,7,0Zm-1,0a2.5,2.5,0,0,0-5,0c0,1.464,1.421,2.437,2.5,3.15C19.079,19.687,20.5,18.714,20.5,17.25ZM18,16.5h-.016a.741.741,0,0,0-.738.75A.75.75,0,1,0,18,16.5Z"/>
</svg>