<svg xmlns="http://www.w3.org/2000/svg" width="24" height="24" viewBox="0 0 24 24">
    <path d="M21.5,9A2.5,2.5,0,0,0,19,6.5H16.815L14.58,2.744a.5.5,0,1,0-.859.512L15.651,6.5H8.617l1.961-3.241a.5.5,0,1,0-.855-.518L7.449,6.5H5a2.5,2.5,0,0,0-.953,4.81l.7,7.039C4.886,19.7,5.394,21.5,8.233,21.5H15.8a3.106,3.106,0,0,0,3.482-3.151l.7-7.056A2.5,2.5,0,0,0,21.5,9ZM15.8,20.5H8.233c-1.883,0-2.348-.861-2.488-2.251L5.071,11.5h13.9l-.675,6.749C18.156,19.6,17.682,20.5,15.8,20.5Zm3.2-10H5a1.5,1.5,0,0,1,0-3H19a1.5,1.5,0,0,1,0,3Zm-5.671,2.167A1.9,1.9,0,0,0,12,13.233a1.785,1.785,0,0,0-1.318-.566h-.01a2.042,2.042,0,0,0-1.627.738,2.827,2.827,0,0,0-.48,2.345c.435,2.244,3.114,3.486,3.228,3.538a.5.5,0,0,0,.414,0c.114-.052,2.793-1.294,3.228-3.538a2.829,2.829,0,0,0-.479-2.345A2.039,2.039,0,0,0,13.329,12.667Zm1.123,2.893h0c-.275,1.424-1.875,2.4-2.452,2.712-.577-.31-2.177-1.288-2.452-2.712a1.871,1.871,0,0,1,.269-1.52,1.061,1.061,0,0,1,.86-.373h0a.954.954,0,0,1,.844.653.521.521,0,0,0,.95,0,.965.965,0,0,1,.844-.653h0a1.061,1.061,0,0,1,.86.373A1.873,1.873,0,0,1,14.452,15.56Z"/>
</svg>