<svg xmlns="http://www.w3.org/2000/svg" width="24" height="24" viewBox="0 0 24 24">
    <path d="M10.02,21a1,1,0,1,1-1.015-1h.019A1,1,0,0,1,10.02,21Zm7-1h-.019a.989.989,0,0,0-.985,1,1,1,0,1,0,1-1ZM21.459,8.447l-1.015,6.171C20.186,16.047,19.574,17.5,17,17.5H8.734A2.512,2.512,0,0,1,6.26,15.354L4.75,4.788A1.507,1.507,0,0,0,3.266,3.5H3a.5.5,0,0,1,0-1h.266A2.512,2.512,0,0,1,5.74,4.646l.122.854H19a2.5,2.5,0,0,1,2.46,2.947ZM20.151,7.039A1.5,1.5,0,0,0,19,6.5H6.005L7.25,15.212A1.507,1.507,0,0,0,8.734,16.5H17c1.754,0,2.218-.722,2.459-2.053l1.015-6.171A1.5,1.5,0,0,0,20.151,7.039ZM15.1,9.646a.5.5,0,0,0-.708,0L13.25,10.793,12.1,9.646a.5.5,0,0,0-.708.708L12.543,11.5,11.4,12.646a.5.5,0,0,0,.708.708l1.146-1.147L14.4,13.354a.5.5,0,0,0,.708-.708L13.957,11.5,15.1,10.354A.5.5,0,0,0,15.1,9.646Z"/>
</svg>