<svg xmlns="http://www.w3.org/2000/svg" width="24" height="24" viewBox="0 0 24 24">
    <path d="M21.5,9A2.5,2.5,0,0,0,19,6.5H16.794L14.56,2.744a.5.5,0,0,0-.86.512L15.63,6.5H8.6l1.961-3.241A.5.5,0,1,0,9.7,2.741L7.428,6.5H5a2.5,2.5,0,0,0-.953,4.81l.7,7.039C4.886,19.7,5.394,21.5,8.233,21.5H15.8a3.106,3.106,0,0,0,3.482-3.151l.7-7.056A2.5,2.5,0,0,0,21.5,9ZM15.8,20.5H8.233c-1.883,0-2.348-.861-2.488-2.251L5.071,11.5h13.9l-.675,6.749C18.156,19.6,17.682,20.5,15.8,20.5Zm3.2-10H5a1.5,1.5,0,0,1,0-3H19a1.5,1.5,0,0,1,0,3Zm-4.215,3.908-1.408-.2-.608-1.226a.891.891,0,0,0-1.538,0L10.623,14.2l-1.408.2a.833.833,0,0,0-.462,1.422l1.018.987-.232,1.345a.856.856,0,0,0,1.242.905L12,18.43l1.219.638a.852.852,0,0,0,.9-.067.851.851,0,0,0,.339-.837l-.233-1.347,1.018-.987a.833.833,0,0,0-.462-1.422ZM13.471,16.16a.831.831,0,0,0-.242.739l.2,1.149L12.386,17.5a.838.838,0,0,0-.773,0l-1.04.544.2-1.149a.833.833,0,0,0-.241-.739l-.837-.811,1.16-.167a.839.839,0,0,0,.627-.455L12,13.678l.521,1.049a.835.835,0,0,0,.627.455l1.159.167Z"/>
</svg>