<svg xmlns="http://www.w3.org/2000/svg" width="24" height="24" viewBox="0 0 24 24">
    <path d="M21.5,9A2.5,2.5,0,0,0,19,6.5H16.744L14.5,2.744a.5.5,0,1,0-.859.512L15.578,6.5H8.546L10.5,3.258a.5.5,0,0,0-.857-.516L7.377,6.5H5a2.5,2.5,0,0,0-.953,4.81l.7,7.039C4.886,19.7,5.394,21.5,8.233,21.5H15.8a3.106,3.106,0,0,0,3.482-3.151l.7-7.056A2.5,2.5,0,0,0,21.5,9ZM15.8,20.5H8.233c-1.883,0-2.348-.861-2.488-2.251L5.071,11.5h13.9l-.675,6.749C18.156,19.6,17.682,20.5,15.8,20.5Zm3.2-10H5a1.5,1.5,0,0,1,0-3H19a1.5,1.5,0,0,1,0,3ZM14.5,16a.5.5,0,0,1-.5.5H10a.5.5,0,0,1,0-1h4A.5.5,0,0,1,14.5,16Z"/>
</svg>