<svg xmlns="http://www.w3.org/2000/svg" width="24" height="24" viewBox="0 0 24 24">
    <path d="M21.462,17.191a.518.518,0,0,1-.109.163l-2,2a.5.5,0,0,1-.708-.708L19.793,17.5H17.441a3.484,3.484,0,0,1-2.732-1.313L8.51,8.438A2.487,2.487,0,0,0,6.559,7.5H3a.5.5,0,0,1,0-1H6.559A3.484,3.484,0,0,1,9.291,7.813l6.2,7.749a2.487,2.487,0,0,0,1.951.938h2.352l-1.147-1.146a.5.5,0,0,1,.708-.708l2,2a.518.518,0,0,1,.109.163A.505.505,0,0,1,21.462,17.191ZM14,10a.5.5,0,0,0,.391-.187l1.1-1.375A2.487,2.487,0,0,1,17.441,7.5h2.352L18.646,8.646a.5.5,0,0,0,.708.708l2-2a.518.518,0,0,0,.109-.163.505.505,0,0,0,0-.382.518.518,0,0,0-.109-.163l-2-2a.5.5,0,0,0-.708.708L19.793,6.5H17.441a3.484,3.484,0,0,0-2.732,1.313l-1.1,1.375A.5.5,0,0,0,14,10ZM9.609,14.188l-1.1,1.374a2.487,2.487,0,0,1-1.951.938H3a.5.5,0,0,0,0,1H6.559a3.484,3.484,0,0,0,2.732-1.313l1.1-1.374a.5.5,0,0,0-.782-.625Z"/>
</svg>