<svg xmlns="http://www.w3.org/2000/svg" width="24" height="24" viewBox="0 0 24 24">
    <path d="M7.239,10.833h8.522a1.728,1.728,0,0,0,1.33-2.841L13.076,3.231a2.131,2.131,0,0,0-3.152,0L5.909,7.992a1.728,1.728,0,0,0,1.33,2.841Zm-.566-2.2,4.015-4.761h0a1.064,1.064,0,0,1,1.623,0l4.015,4.761a.707.707,0,0,1,.1.772.721.721,0,0,1-.67.424H7.239a.721.721,0,0,1-.67-.424A.707.707,0,0,1,6.673,8.637Zm9.088,4.53H7.239a1.728,1.728,0,0,0-1.33,2.841l4.015,4.761a2.064,2.064,0,0,0,3.152,0l4.015-4.761a1.728,1.728,0,0,0-1.33-2.841Zm.566,2.2-4.015,4.761h0a1.1,1.1,0,0,1-1.623,0L6.673,15.363a.707.707,0,0,1-.1-.772.721.721,0,0,1,.67-.424h8.522a.721.721,0,0,1,.67.424A.707.707,0,0,1,16.327,15.363Z"/>
</svg>