<svg xmlns="http://www.w3.org/2000/svg" width="24" height="24" viewBox="0 0 24 24">
    <path d="M21.044,11.772a1.5,1.5,0,0,0-.832-2.559l-4.483-.649a.494.494,0,0,1-.376-.273L13.41,4.374a1.574,1.574,0,0,0-2.82,0L8.647,8.292a.5.5,0,0,1-.376.272l-4.483.649a1.5,1.5,0,0,0-.832,2.559L6.2,14.917a.5.5,0,0,1,.144.442l-.741,4.3a1.573,1.573,0,0,0,2.281,1.657l3.885-2.033a.509.509,0,0,1,.468,0l3.888,2.035a1.578,1.578,0,0,0,.731.181A1.573,1.573,0,0,0,18.4,19.663l-.741-4.3a.5.5,0,0,1,.145-.442Zm-4.371,3.757.741,4.3a.556.556,0,0,1-.226.555.563.563,0,0,1-.6.044L12.7,18.4a1.506,1.506,0,0,0-1.394,0L7.418,20.431a.566.566,0,0,1-.605-.045.558.558,0,0,1-.227-.557l.741-4.3A1.5,1.5,0,0,0,6.894,14.2L3.652,11.054a.5.5,0,0,1,.279-.851l4.482-.649a1.5,1.5,0,0,0,1.131-.819l1.942-3.917a.592.592,0,0,1,1.028,0h0l1.942,3.917a1.5,1.5,0,0,0,1.131.819l4.482.649a.5.5,0,0,1,.278.851L17.107,14.2A1.5,1.5,0,0,0,16.673,15.529Z"/>
</svg>