<svg xmlns="http://www.w3.org/2000/svg" width="24" height="24" viewBox="0 0 24 24">
    <path d="M11.5,20.912a.5.5,0,0,1-.437.555,4.776,4.776,0,0,1-.559.033,8,8,0,1,1,5-14.209l1.144-1.145a.5.5,0,0,1,.708.708l-1.11,1.109a7.9,7.9,0,0,1,1.787,2.871.5.5,0,1,1-.943.332A7,7,0,1,0,10.5,20.5a3.836,3.836,0,0,0,.441-.026A.5.5,0,0,1,11.5,20.912ZM10,10v3.5a.5.5,0,0,0,1,0V10a.5.5,0,0,0-1,0ZM8,3.5h5a.5.5,0,0,0,0-1H8a.5.5,0,0,0,0,1ZM22.5,17v2c0,2.29-1.21,3.5-3.5,3.5H17c-2.29,0-3.5-1.21-3.5-3.5V17c0-2.29,1.21-3.5,3.5-3.5h2C21.29,13.5,22.5,14.71,22.5,17Zm-1,0c0-1.729-.771-2.5-2.5-2.5H17c-1.729,0-2.5.771-2.5,2.5v2c0,1.729.771,2.5,2.5,2.5h2c1.729,0,2.5-.771,2.5-2.5Zm-2.146-.354a.5.5,0,0,0-.708,0L18,17.293l-.646-.647a.5.5,0,0,0-.708.708l.647.646-.647.646a.5.5,0,0,0,.708.708L18,18.707l.646.647a.5.5,0,0,0,.708-.708L18.707,18l.647-.646A.5.5,0,0,0,19.354,16.646Z"/>
</svg>