<svg xmlns="http://www.w3.org/2000/svg" width="24" height="24" viewBox="0 0 24 24">
    <path d="M17.625,2.5H6.375C3.84,2.5,2.5,3.84,2.5,6.375v11.25C2.5,20.16,3.84,21.5,6.375,21.5h11.25c2.535,0,3.875-1.34,3.875-3.875V6.375C21.5,3.84,20.16,2.5,17.625,2.5ZM20.5,17.625c0,1.961-.914,2.875-2.875,2.875H6.375c-1.961,0-2.875-.914-2.875-2.875V6.375C3.5,4.414,4.414,3.5,6.375,3.5h11.25c1.961,0,2.875.914,2.875,2.875ZM15.354,9.354,12.707,12l2.647,2.646a.5.5,0,0,1-.708.708L12,12.707,9.354,15.354a.5.5,0,0,1-.708-.708L11.293,12,8.646,9.354a.5.5,0,0,1,.708-.708L12,11.293l2.646-2.647a.5.5,0,0,1,.708.708Z"/>
</svg>