<svg xmlns="http://www.w3.org/2000/svg" width="24" height="24" viewBox="0 0 24 24">
    <path d="M14,16.5a.5.5,0,0,1-.5-.5V14a.5.5,0,0,1,1,0v2A.5.5,0,0,1,14,16.5Zm4.823-7.789a.5.5,0,0,0-.532.466l-.6,8.988a2.219,2.219,0,0,1-2.5,2.335H8.81a2.912,2.912,0,0,1-1.291-.25.5.5,0,0,0-.438.9A3.872,3.872,0,0,0,8.81,21.5h6.38a3.224,3.224,0,0,0,3.5-3.267l.6-8.99A.5.5,0,0,0,18.823,8.711Zm2.531-5.357-3,3h0l-8,8h0l-7,7a.5.5,0,0,1-.708-.708L5.3,18,4.532,6.5H3a.5.5,0,0,1,0-1H6.56c1.075,0,1.162-.257,1.422-1.019l.2-.609A1.981,1.981,0,0,1,10.08,2.5h3.84a1.983,1.983,0,0,1,1.9,1.377l.2.6c.264.771.351,1.028,1.426,1.028h.353l2.853-2.854a.5.5,0,0,1,.708.708ZM8.934,4.788a4.871,4.871,0,0,1-.29.712h6.711a4.779,4.779,0,0,1-.284-.7l-.205-.617A.989.989,0,0,0,13.92,3.5H10.08a.986.986,0,0,0-.944.684Zm-2.7,12.269L9.5,13.793V11a.5.5,0,0,1,1,0v1.793L16.793,6.5H7a.524.524,0,0,1-.106-.021c-.11.007-.21.021-.334.021H5.534Z"/>
</svg>