<svg xmlns="http://www.w3.org/2000/svg" width="24" height="24" viewBox="0 0 24 24">
    <path d="M21.447,13.014l0-.014c0-.013-.006-.025-.007-.038-.006-.034-.014-.067-.021-.1a.675.675,0,0,0-.019-.068,3.755,3.755,0,0,0-.149-.521L20.215,9.706C19.747,8.522,19.344,7.5,16.97,7.5H14.5v-2a2,2,0,0,0-2-2h-8a2,2,0,0,0-2,2v11a2,2,0,0,0,2,2h.051a2.5,2.5,0,1,0,4.9,0h5.1a2.5,2.5,0,1,0,4.9,0H19.5a2,2,0,0,0,2-2V13.58A3.568,3.568,0,0,0,21.447,13.014ZM16.97,8.5c1.693,0,1.888.493,2.316,1.577l.981,2.423H14.5v-4ZM7,20.5A1.5,1.5,0,1,1,8.5,19,1.5,1.5,0,0,1,7,20.5Zm10,0A1.5,1.5,0,1,1,18.5,19,1.5,1.5,0,0,1,17,20.5Zm3.5-4a1,1,0,0,1-1,1h-.513a2.474,2.474,0,0,0-3.974,0H8.987a2.474,2.474,0,0,0-3.974,0H4.5a1,1,0,0,1-1-1v-3H10a.5.5,0,0,0,0-1H3.5v-7a1,1,0,0,1,1-1h8a1,1,0,0,1,1,1v8h6.993c0,.027.007.053.007.08Z"/>
</svg>