<svg xmlns="http://www.w3.org/2000/svg" width="24" height="24" viewBox="0 0 24 24">
    <path d="m17.5,14.502h-1.965c-.502,0-.969.25-1.248.668l-.555.832h-5.464l-.555-.833c-.279-.418-.746-.668-1.249-.668h-1.964c-1.103,0-2,.897-2,2v3c0,1.103.897,2,2,2h1.965c.502,0,.969-.25,1.248-.668l.555-.832h5.464l.555.832c.279.418.746.668,1.248.668h1.965c1.103,0,2-.897,2-2v-2.998c0-1.103-.897-2-2-2Zm1,4.998c0,.551-.448,1-1,1h-1.965c-.167,0-.323-.083-.416-.223l-.614-.92c-.149-.223-.397-.356-.666-.356h-5.679c-.268,0-.517.133-.666.356l-.614.92c-.093.14-.249.223-.416.223h-1.965c-.551,0-1-.449-1-1v-3c0-.551.449-1,1-1h1.964c.167,0,.323.083.417.223l.614.922c.149.223.397.356.666.356h5.679c.268,0,.517-.133.666-.356l.614-.92c.093-.14.249-.223.416-.223h1.965c.551,0,1,.449,1,1v2.998Zm2.895-12.8l-.96-2.84c-.171-.506-.529-.915-1.008-1.152-.479-.237-1.021-.273-1.527-.102l-1.861.629c-.476.161-.838.546-.969,1.032l-.259.965-5.177,1.75-.792-.612c-.399-.308-.92-.396-1.397-.234l-1.861.629c-.506.171-.916.529-1.152,1.007-.237.479-.273,1.021-.102,1.527l.96,2.842c.282.833,1.062,1.36,1.896,1.36.212,0,.427-.034.639-.105l1.862-.629c.477-.161.838-.547.968-1.032l.259-.966,5.178-1.75.792.61c.396.306.917.394,1.396.233l1.862-.629c1.043-.353,1.606-1.49,1.254-2.534Zm-1.574,1.587l-1.862.629c-.159.054-.333.025-.466-.078l-.877-.677c-.212-.163-.491-.208-.744-.123l-5.38,1.818c-.255.086-.448.292-.517.55l-.287,1.069c-.043.162-.164.29-.323.344l-1.862.629c-.525.175-1.092-.106-1.267-.627l-.96-2.842c-.085-.253-.067-.524.051-.763.118-.239.323-.418.576-.504l1.861-.629c.052-.018.106-.026.16-.026.108,0,.216.036.305.104l.876.676c.213.165.491.211.747.126l5.38-1.818c.253-.085.446-.291.517-.551l.287-1.068c.043-.162.164-.291.323-.344l1.861-.629c.254-.086.524-.068.764.051.239.119.418.323.504.576l.96,2.84c.176.522-.105,1.091-.627,1.267Z"/>
</svg>