<svg xmlns="http://www.w3.org/2000/svg" width="24" height="24" viewBox="0 0 24 24">
    <path d="M10.009,10.5a4,4,0,1,0-4-4A4,4,0,0,0,10.009,10.5Zm0-7a3,3,0,1,1-3,3A3,3,0,0,1,10.009,3.5ZM3.5,18.02c0,1.715.771,2.48,2.5,2.48h5a.5.5,0,0,1,0,1H6a3.148,3.148,0,0,1-3.5-3.48c0-2.546,1.44-5.52,5.5-5.52h4a6.2,6.2,0,0,1,2.176.352.5.5,0,1,1-.352.936A5.219,5.219,0,0,0,12,13.5H8A4.19,4.19,0,0,0,3.5,18.02Zm18.955-.876a.933.933,0,0,0-.767-.645l-1.951-.252-.863-1.712a1.019,1.019,0,0,0-1.748,0L16.3,16.216l-1.992.283a.935.935,0,0,0-.522,1.6l1.422,1.313-.329,1.879a.954.954,0,0,0,.379.942.978.978,0,0,0,1.033.083l1.684-.889,1.727.89a1,1,0,0,0,.451.11.974.974,0,0,0,.581-.193.954.954,0,0,0,.38-.941l-.347-1.82L22.209,18.1A.924.924,0,0,0,22.455,17.144ZM20.08,18.751a.932.932,0,0,0-.276.836l.359,1.843-1.727-.889a.952.952,0,0,0-.872,0l-1.7.925.33-1.881a.935.935,0,0,0-.276-.834l-1.342-1.28,1.865-.265a.939.939,0,0,0,.711-.509l.839-1.686.85,1.685a.941.941,0,0,0,.712.51l1.865.265Z"/>
</svg>