<svg xmlns="http://www.w3.org/2000/svg" width="24" height="24" viewBox="0 0 24 24">
    <path d="M10.009,10.5a4,4,0,1,0-4-4A4,4,0,0,0,10.009,10.5Zm0-7a3,3,0,1,1-3,3A3,3,0,0,1,10.009,3.5Zm3.484,9.649a.5.5,0,0,1-.572.414A5.91,5.91,0,0,0,12,13.5H8a4.19,4.19,0,0,0-4.5,4.52c0,1.715.771,2.48,2.5,2.48h5a.5.5,0,0,1,0,1H6a3.148,3.148,0,0,1-3.5-3.48c0-2.546,1.44-5.52,5.5-5.52h4a6.805,6.805,0,0,1,1.079.076A.5.5,0,0,1,13.493,13.149Zm8.861,8.5-1.991-1.99a3.89,3.89,0,1,0-.708.706l1.991,1.992a.5.5,0,0,0,.708-.708ZM14.5,17.333a2.834,2.834,0,1,1,2.833,2.834A2.836,2.836,0,0,1,14.5,17.333Z"/>
</svg>