<svg xmlns="http://www.w3.org/2000/svg" width="24" height="24" viewBox="0 0 24 24">
    <path d="M10.009,10.5a4,4,0,1,0-4-4A4,4,0,0,0,10.009,10.5Zm0-7a3,3,0,1,1-3,3A3,3,0,0,1,10.009,3.5ZM3.5,18.02c0,1.715.771,2.48,2.5,2.48h4a.5.5,0,0,1,0,1H6a3.148,3.148,0,0,1-3.5-3.48c0-2.546,1.44-5.52,5.5-5.52h4a6.2,6.2,0,0,1,2.176.352.5.5,0,1,1-.352.936A5.219,5.219,0,0,0,12,13.5H8A4.19,4.19,0,0,0,3.5,18.02Zm18.561-3.967-1.115-1.114a1.489,1.489,0,0,0-1.06-.439h0a1.486,1.486,0,0,0-1.061.442l-6.177,6.2a.5.5,0,0,0-.146.353V22a.5.5,0,0,0,.5.5h2.5a.5.5,0,0,0,.353-.146l6.205-6.177a1.5,1.5,0,0,0,0-2.124ZM15.294,21.5H13.5V19.707l4.372-4.392,1.813,1.813Zm6.059-6.032-.959.955-1.817-1.817.955-.959a.494.494,0,0,1,.353-.147h0a.5.5,0,0,1,.353.146l1.115,1.114h0a.5.5,0,0,1,0,.707Z"/>
</svg>