<svg xmlns="http://www.w3.org/2000/svg" width="24" height="24" viewBox="0 0 24 24">
    <path d="M10.009,2.5a4,4,0,1,0,4,4A4,4,0,0,0,10.009,2.5Zm0,7a3,3,0,1,1,3-3A3,3,0,0,1,10.009,9.5Zm3.484,3.649a.5.5,0,0,1-.572.414A5.91,5.91,0,0,0,12,13.5H8a4.19,4.19,0,0,0-4.5,4.52c0,1.715.771,2.48,2.5,2.48h6a.5.5,0,0,1,0,1H6a3.148,3.148,0,0,1-3.5-3.48c0-2.546,1.44-5.52,5.5-5.52h4a6.805,6.805,0,0,1,1.079.076A.5.5,0,0,1,13.493,13.149Zm8.489,1.643a13.864,13.864,0,0,1-3.315-1.235.5.5,0,0,0-.46,0,16.87,16.87,0,0,1-3.348,1.3.5.5,0,0,0-.359.479v2.223a5.252,5.252,0,0,0,3.766,4.917.5.5,0,0,0,.163.027.507.507,0,0,0,.163-.027,5.254,5.254,0,0,0,3.765-4.917V15.275A.5.5,0,0,0,21.982,14.792Zm-.625,2.764a4.307,4.307,0,0,1-2.928,3.911A4.306,4.306,0,0,1,15.5,17.556v-1.85a17.458,17.458,0,0,0,2.934-1.144,14.4,14.4,0,0,0,2.923,1.1Z"/>
</svg>