<svg xmlns="http://www.w3.org/2000/svg" width="24" height="24" viewBox="0 0 24 24">
    <path d="M14.242,2.7a2.148,2.148,0,0,0-2.314.314L8.236,6.145a1.5,1.5,0,0,1-.969.355H5.5a2,2,0,0,0-2,2v7a2,2,0,0,0,2,2H7.267a1.5,1.5,0,0,1,.969.355l3.691,3.128A2.171,2.171,0,0,0,15.5,19.327V4.673A2.149,2.149,0,0,0,14.242,2.7ZM14.5,19.327a1.171,1.171,0,0,1-1.927.893l-3.69-3.128A2.505,2.505,0,0,0,7.267,16.5H5.5a1,1,0,0,1-1-1v-7a1,1,0,0,1,1-1H7.267a2.505,2.505,0,0,0,1.616-.592L12.574,3.78a1.17,1.17,0,0,1,1.926.893ZM20.5,12A6.442,6.442,0,0,1,18.59,16.6a.5.5,0,1,1-.7-.709,5.483,5.483,0,0,0,0-7.772.5.5,0,0,1,.7-.709A6.442,6.442,0,0,1,20.5,12Z"/>
</svg>