<svg xmlns="http://www.w3.org/2000/svg" width="24" height="24" viewBox="0 0 24 24">
    <path class="pr-icon-tertiary" d="M18,13.18463V10c0-3.31372-2.68628-6-6-6s-6,2.68628-6,6v3.18463C4.83832,13.59863,4.00146,14.69641,4,16v2c0,0.00037,0,0.00073,0,0.00116C4.00031,18.5531,4.44806,19.00031,5,19h14c0.00037,0,0.00073,0,0.00116,0C19.5531,18.99969,20.00031,18.55194,20,18v-2C19.99854,14.69641,19.16168,13.59863,18,13.18463z"></path>
    <path class="pr-icon-primary" d="M12 4c.34149 0 .67413.03516 1 .08997V3c0-.55231-.44769-1-1-1s-1 .44769-1 1v1.08997C11.32587 4.03516 11.65851 4 12 4zM8.14233 19c.4472 1.72119 1.99689 2.99817 3.85767 3 1.86078-.00183 3.41046-1.27881 3.85767-3H8.14233zM21 22c-.26527.0003-.51971-.10515-.707-.293l-18-18C1.90605 3.31302 1.91175 2.67995 2.30573 2.293c.38897-.38203 1.0123-.38203 1.40127 0l18 18c.39046.39058.39037 1.02375-.00021 1.41421C21.51931 21.89463 21.26509 21.99994 21 22z"></path>
</svg>
