<svg xmlns="http://www.w3.org/2000/svg" width="24" height="24" viewBox="0 0 24 24">
    <path class="pr-icon-primary" d="M18,12a.99974.99974,0,0,0-1,1,7.00818,7.00818,0,0,1-7,7V11.13538l5.2168-1.15931a.99986.99986,0,1,0-.4336-1.95214L10,9.08685V7.13538l5.2168-1.15931a.99986.99986,0,1,0-.4336-1.95214L10,5.08685V3A1,1,0,0,0,8,3V5.53131l-2.2168.49262a.99986.99986,0,1,0,.4336,1.95214L8,7.57983V9.53131l-2.2168.49262a.99986.99986,0,1,0,.4336,1.95214L8,11.57983V21a.99974.99974,0,0,0,1,1h1a9.01016,9.01016,0,0,0,9-9A.99974.99974,0,0,0,18,12Z"></path>
</svg>
