<svg viewBox="0 0 80 110" xmlns="http://www.w3.org/2000/svg" height="24" width="24" stroke-width="1px" stroke-linecap="round" stroke-linejoin="round">
    <path d="M75.2004 12.5885L74.7703 12.3785C73.5103 11.8585 72.0303 12.0885 70.3303 13.0785L57.2202 20.6485L28.9702 36.9585C27.0702 38.0485 25.4503 39.7685 24.1003 42.0985C22.7503 44.4185 22.0703 46.6785 22.0703 48.8485V96.3185C22.0703 97.5685 22.3203 98.6085 22.8003 99.4485C23.1503 100.049 23.6004 100.499 24.1504 100.789L24.2104 100.819C24.4004 100.919 24.6103 100.989 24.8303 101.049L45.5103 106.909C46.1403 107.069 46.8002 107.089 47.4902 106.949C48.1802 106.819 48.9004 106.539 49.6504 106.109C50.3904 105.669 51.1103 105.129 51.8003 104.469C52.4903 103.799 53.1503 103.029 53.7803 102.139L74.4702 72.3985C75.3302 71.1685 76.0002 69.8585 76.4902 68.4585C76.9802 67.0485 77.2202 65.7285 77.2202 64.4685V17.0085C77.2202 14.8285 76.5504 13.3585 75.2004 12.5885ZM63.0903 49.0985L48.4404 74.3685C47.7504 75.5585 46.9503 76.4185 46.0303 76.9485C45.3103 77.3585 44.6603 77.4985 44.0803 77.3385H44.0703C43.9203 77.2985 43.7704 77.2385 43.6204 77.1485L36.2903 72.9785C35.6003 72.5785 35.2703 71.8385 35.3003 70.7285C35.3303 69.6285 35.6904 68.4785 36.3804 67.2885C37.0704 66.1685 37.8703 65.3185 38.7903 64.7585C39.7103 64.1985 40.5104 64.1085 41.2004 64.5085L46.0303 67.2585L57.2202 47.9585L58.1804 46.2985C58.8704 45.1085 59.6904 44.2585 60.6304 43.7385C61.5804 43.2285 62.4003 43.1685 63.0903 43.5585C63.7203 43.9885 64.0503 44.7185 64.0803 45.7585C64.1103 46.7985 63.7803 47.9085 63.0903 49.0985Z" class="pr-icon-iso-solid-stroke" stroke-linejoin="round"/>
    <path d="M64.0807 45.7586C64.1107 46.7986 63.7807 47.9086 63.0907 49.0986L48.4408 74.3686C47.7508 75.5586 46.9507 76.4186 46.0307 76.9486C45.3107 77.3586 44.6607 77.4986 44.0807 77.3386H44.0707C43.9207 77.2986 43.7708 77.2385 43.6208 77.1485L36.2907 72.9786C35.6007 72.5786 35.2707 71.8386 35.3007 70.7286C35.3307 69.6286 35.6908 68.4785 36.3808 67.2885C37.0708 66.1685 37.8707 65.3186 38.7907 64.7586C39.7107 64.1986 40.5108 64.1086 41.2008 64.5086L46.0307 67.2586L57.2206 47.9586L58.1808 46.2986C58.8708 45.1086 59.6908 44.2586 60.6308 43.7386C61.5808 43.2286 62.4007 43.1686 63.0907 43.5586C63.7207 43.9886 64.0507 44.7186 64.0807 45.7586Z" class="pr-icon-iso-solid-stroke" stroke-linejoin="round"/>
    <path d="M74.7703 12.3785C73.5103 11.8585 72.0303 12.0885 70.3303 13.0785L57.2202 20.6485L28.9702 36.9585C27.0702 38.0485 25.4503 39.7685 24.1003 42.0985C22.7503 44.4185 22.0703 46.6785 22.0703 48.8485V96.3185C22.0703 97.5685 22.3203 98.6085 22.8003 99.4485C23.1503 100.049 23.6004 100.499 24.1504 100.789L4.27026 90.8485L4.21045 90.8185C3.64045 90.5385 3.17029 90.0785 2.80029 89.4485C2.32029 88.6085 2.07031 87.5685 2.07031 86.3185V38.8485C2.07031 36.6785 2.75034 34.4185 4.10034 32.0985C5.45034 29.7685 7.07021 28.0485 8.97021 26.9585L50.3303 3.07852C52.2303 1.97852 53.8504 1.81852 55.2004 2.58852L74.7703 12.3785Z" class="pr-icon-iso-solid-stroke" stroke-linejoin="round"/>
</svg>