<svg width="48" height="48" viewBox="0 0 111 124" fill="#229EFF" xmlns="http://www.w3.org/2000/svg" stroke-width="1px" stroke-linecap="round" stroke-linejoin="round"><path d="M85.5703 17.3229C85.5703 19.5829 84.8704 21.9329 83.4604 24.3529C82.0604 26.7729 80.3704 28.5529 78.4004 29.6929C77.2704 30.3529 76.2403 30.6829 75.3003 30.6929H75.2903C74.5903 30.7029 73.9403 30.5429 73.3403 30.1929C72.8603 29.9229 72.4604 29.5629 72.1604 29.1229C71.5304 28.2629 71.2305 27.0929 71.2305 25.6029C71.2305 23.3429 71.9303 21.0029 73.3403 18.5729C74.7403 16.1529 76.4304 14.3729 78.4004 13.2329C80.1704 12.2229 81.7103 11.9829 83.0203 12.5129L83.4604 12.7329C84.8704 13.5329 85.5703 15.0629 85.5703 17.3229Z" stroke="white" stroke-linejoin="round"/><path d="M103.631 47.8829L102.531 47.3329C99.2205 45.9729 95.3907 46.6629 90.9507 49.1829C90.2307 49.5929 89.5306 50.0429 88.8506 50.5329C85.9806 52.5329 83.3805 55.1129 81.0505 58.2729C80.0805 59.5929 79.1505 61.0029 78.2705 62.5229C77.1005 64.5429 76.1206 66.5529 75.3406 68.5329C73.9406 72.0829 73.1805 75.5629 73.0405 78.9829C73.0305 79.3529 73.0205 79.7329 73.0205 80.1029C73.0205 85.7929 74.7705 89.6329 78.2705 91.6229C81.7605 93.6229 85.9907 93.1829 90.9507 90.3229C95.9107 87.4629 100.131 83.0129 103.631 76.9829C107.121 70.9529 108.871 65.0929 108.871 59.4029C108.871 53.7129 107.121 49.8729 103.631 47.8829ZM98.5605 74.0929C96.4705 77.7029 93.9307 80.3729 90.9507 82.0929C87.9607 83.8229 85.4206 84.0829 83.3306 82.8929C81.2406 81.7029 80.1907 79.3929 80.1907 75.9629C80.1907 74.4129 80.4006 72.8329 80.8406 71.2429C81.3606 69.3229 82.1906 67.3829 83.3306 65.4129C84.3106 63.7329 85.3805 62.2429 86.5505 60.9729C87.8905 59.5129 89.3607 58.3329 90.9507 57.4129C93.9307 55.6929 96.4705 55.4229 98.5605 56.6129C100.661 57.8029 101.701 60.1129 101.701 63.5429C101.701 66.9729 100.661 70.4929 98.5605 74.0929Z" stroke="white" stroke-linejoin="round"/><path d="M91.1304 41.1629C91.1104 41.3129 91.0803 41.4629 91.0503 41.6129C90.8303 42.7129 90.3804 43.7429 89.6904 44.7129C89.3504 45.1929 88.9904 45.6029 88.6104 45.9429C88.1104 46.3929 87.5802 46.7228 87.0002 46.9328C84.7102 47.7928 82.5305 48.2828 80.4705 48.4028C80.1205 48.4228 79.7704 48.4328 79.4304 48.4328C77.0704 48.4328 74.9303 47.8729 73.0203 46.7829L72.6504 46.5728L70.1504 45.1429L67.1104 50.3829L61.5503 59.9829L67.4705 63.6729C68.1205 64.0429 68.6204 64.6129 68.9404 65.3829C69.2704 66.1529 69.4404 67.0928 69.4404 68.1828V86.2829C69.4404 86.5829 69.4204 86.8729 69.3704 87.1729C69.2404 88.0429 68.9204 88.9229 68.4104 89.8129C67.7204 90.9929 66.8703 91.8828 65.8503 92.4728C64.8403 93.0528 63.9903 93.1528 63.3003 92.7628C62.6103 92.3728 62.2703 91.5929 62.2703 90.4229V73.9729L53.0203 70.0229L50.8003 69.0728C50.2403 68.8128 49.7904 68.4128 49.4404 67.8728C49.3504 67.7228 49.2604 67.5529 49.1804 67.3829C48.8204 66.5929 48.6504 65.6529 48.6504 64.5629C48.6504 63.4729 48.8405 62.3029 49.2305 61.0829C49.2905 60.8829 49.3604 60.6829 49.4404 60.4829C49.8004 59.4829 50.2503 58.5029 50.8003 57.5529L60.8303 40.2429C61.2503 39.5129 61.7104 38.8429 62.2004 38.2229H62.2104C62.5504 37.7829 62.9103 37.3629 63.3003 36.9729C64.2203 36.0229 65.2004 35.2529 66.2104 34.6729C67.2304 34.0829 68.2004 33.7329 69.1204 33.6029C69.5504 33.5429 69.9703 33.5429 70.3503 33.6029C70.8003 33.6629 71.2103 33.8029 71.5903 34.0229L76.6204 36.8929L78.4004 37.9129C79.7704 38.6929 81.2804 39.1028 82.9304 39.1528C83.6604 39.1728 84.4104 39.1129 85.1804 38.9829C85.3204 38.9529 85.4604 38.9228 85.6104 38.9028H85.6204C86.4504 38.7228 87.3004 38.4729 88.1704 38.1329C88.8804 37.8629 89.4805 37.8329 89.9805 38.0329L90.1304 38.1029C90.2804 38.1829 90.4203 38.2828 90.5403 38.4028C91.1103 38.9728 91.3104 39.8828 91.1304 41.1528V41.1629Z" stroke="white" stroke-linejoin="round"/><path d="M101.7 63.5429C101.7 66.9729 100.66 70.4929 98.5603 74.0929C96.4703 77.7029 93.9304 80.3729 90.9504 82.0929C87.9604 83.8229 85.4203 84.0829 83.3303 82.8929C81.2403 81.7029 80.1904 79.3929 80.1904 75.9629C80.1904 74.4129 80.4003 72.8329 80.8403 71.2429C81.3603 69.3229 82.1903 67.3829 83.3303 65.4129C84.3103 63.7329 85.3803 62.2429 86.5503 60.9729C87.8903 59.5129 89.3604 58.3329 90.9504 57.4129C93.9304 55.6929 96.4703 55.4229 98.5603 56.6129C100.66 57.8029 101.7 60.1129 101.7 63.5429Z" stroke="white" stroke-linejoin="round"/><path d="M102.53 47.333C99.2198 45.973 95.39 46.663 90.95 49.183C90.23 49.593 89.5299 50.043 88.8499 50.533C85.9799 52.533 83.3798 55.113 81.0498 58.273C80.0798 59.593 79.1498 61.003 78.2698 62.523C77.0998 64.543 76.1198 66.553 75.3398 68.533C73.9398 72.083 73.1798 75.563 73.0398 78.983C73.0298 79.353 73.0198 79.733 73.0198 80.103C73.0198 85.793 74.7698 89.633 78.2698 91.623L69.3699 87.173C69.4199 86.873 69.4399 86.5831 69.4399 86.2831V68.183C69.4399 67.093 69.2699 66.153 68.9399 65.383C68.6199 64.613 68.12 64.043 67.47 63.673L61.5498 59.983L67.1099 50.383L70.1499 45.143L72.6499 46.573L73.0198 46.783C74.9298 47.873 77.0699 48.423 79.4299 48.433C79.7699 48.433 80.12 48.433 80.47 48.403C82.53 48.283 84.7098 47.793 86.9998 46.933C87.5798 46.723 88.1099 46.393 88.6099 45.943C88.9899 45.603 89.3499 45.193 89.6899 44.713C90.3799 43.743 90.8298 42.713 91.0498 41.613L102.53 47.333Z" stroke="white" stroke-linejoin="round"/><path d="M89.9805 38.0429C89.4805 37.8429 88.8804 37.8729 88.1704 38.1429C87.3004 38.4829 86.4504 38.733 85.6204 38.913H85.6104C85.4604 38.933 85.3204 38.963 85.1804 38.993C84.4104 39.123 83.6604 39.183 82.9304 39.163C81.2804 39.113 79.7704 38.7029 78.4004 37.9229L76.6204 36.9029L71.5903 34.0329C71.2103 33.8129 70.8003 33.673 70.3503 33.613C69.9703 33.543 69.5504 33.543 69.1204 33.613C68.2004 33.743 67.2304 34.0929 66.2104 34.6829C65.2004 35.2629 64.2203 36.0329 63.3003 36.9829C62.9103 37.3729 62.5504 37.7929 62.2104 38.2329H62.2004C61.7104 38.8529 61.2503 39.523 60.8303 40.253L50.8003 57.5629C50.2503 58.5129 49.8004 59.493 49.4404 60.493C49.3604 60.693 49.2905 60.8929 49.2305 61.0929C48.8405 62.3129 48.6504 63.4729 48.6504 64.5729C48.6504 65.6729 48.8204 66.6029 49.1804 67.3929C49.2604 67.5629 49.3504 67.733 49.4404 67.883V68.4029L42.2703 64.8229L30.8003 59.083C30.0803 58.743 29.5404 58.1829 29.1804 57.3929C28.8204 56.6029 28.6504 55.6629 28.6504 54.5729C28.6504 53.4829 28.8405 52.3129 29.2305 51.0929C29.6205 49.8729 30.1403 48.7029 30.8003 47.5629L40.8303 30.2529C41.5503 29.0129 42.3703 27.9229 43.3003 26.9829C44.2203 26.0329 45.2004 25.2629 46.2104 24.6829C47.2304 24.0929 48.2004 23.743 49.1204 23.613C50.0504 23.493 50.8703 23.6329 51.5903 24.0429L58.4004 27.9329C59.7704 28.7129 61.2804 29.1229 62.9304 29.1729C64.5704 29.2129 66.3204 28.8729 68.1704 28.1529C68.4104 28.0629 68.6404 28.003 68.8604 27.963L70.9304 28.993L73.3403 30.2029C73.9403 30.5529 74.5903 30.7129 75.2903 30.7029H75.3003L89.9805 38.053V38.0429Z" stroke="white" stroke-linejoin="round"/><path d="M57.2202 80.9228C56.5502 79.5428 55.6302 78.4228 54.4802 77.5528C54.1502 77.2928 53.8102 77.0628 53.4402 76.8528L52.49 76.3728C51.53 75.9628 50.5202 75.7228 49.4402 75.6528C47.2702 75.5028 44.88 76.0728 42.27 77.3628C41.77 77.6028 41.27 77.8728 40.76 78.1628C40.04 78.5728 39.3402 79.0228 38.6602 79.5128C35.7902 81.5028 33.1901 84.0828 30.8601 87.2528C29.8801 88.5728 28.9601 89.9828 28.0801 91.5028C26.9101 93.5228 25.9301 95.5328 25.1501 97.5128C23.7501 101.063 22.9901 104.543 22.8501 107.963C22.8401 108.333 22.8301 108.713 22.8301 109.083C22.8301 114.773 24.5801 118.613 28.0801 120.603C31.5701 122.593 35.8 122.163 40.76 119.303C45.72 116.433 49.9402 111.993 53.4402 105.963C56.5202 100.653 58.2401 95.4628 58.6101 90.4128C58.6601 89.7328 58.6802 89.0628 58.6802 88.3828C58.6802 85.3828 58.2002 82.8928 57.2202 80.9228ZM48.3801 103.073C46.2901 106.683 43.75 109.343 40.76 111.073C37.77 112.793 35.2301 113.063 33.1401 111.873C31.0501 110.673 30 108.363 30 104.943C30 103.393 30.2101 101.813 30.6501 100.223C31.1701 98.3028 32.0001 96.3528 33.1401 94.3828C34.1101 92.6928 35.1901 91.2128 36.3701 89.9428C37.7101 88.4928 39.17 87.3028 40.76 86.3928C43.75 84.6628 46.2901 84.4028 48.3801 85.5928C50.4701 86.7828 51.51 89.0928 51.51 92.5228C51.51 95.9528 50.4701 99.4628 48.3801 103.073Z" stroke="white" stroke-linejoin="round"/><path d="M51.51 92.5229C51.51 95.9529 50.4701 99.4629 48.3801 103.073C46.2901 106.683 43.75 109.343 40.76 111.073C37.77 112.793 35.2301 113.063 33.1401 111.873C31.0501 110.673 30 108.363 30 104.943C30 103.393 30.2101 101.813 30.6501 100.223C31.1701 98.3029 32.0001 96.3529 33.1401 94.3829C34.1101 92.6929 35.1901 91.2129 36.3701 89.9429C37.7101 88.4929 39.17 87.3029 40.76 86.3929C43.75 84.6629 46.2901 84.4029 48.3801 85.5929C50.4701 86.7829 51.51 89.0929 51.51 92.5229Z" stroke="white" stroke-linejoin="round"/><path d="M83.0203 12.5129C81.7103 11.9829 80.1704 12.2229 78.4004 13.2329C76.4304 14.3729 74.7403 16.1528 73.3403 18.5728C71.9303 21.0028 71.2305 23.3429 71.2305 25.6029C71.2305 27.0929 71.5304 28.2629 72.1604 29.1229C72.4604 29.5629 72.8603 29.9229 73.3403 30.1929L70.9304 28.9929L68.8604 27.9529L53.7803 20.4129L53.3403 20.1929C51.9303 19.3929 51.2305 17.8629 51.2305 15.6029C51.2305 13.3429 51.9303 11.0028 53.3403 8.57285C54.7403 6.15285 56.4304 4.37285 58.4004 3.23285C60.3704 2.10285 62.0604 1.93285 63.4604 2.73285L83.0203 12.5129Z" stroke="white" stroke-linejoin="round"/><path d="M58.6096 90.4127C58.6596 89.7327 58.6797 89.0627 58.6797 88.3827C58.6797 85.3827 58.1997 82.8927 57.2197 80.9227C56.5497 79.5427 55.6297 78.4227 54.4797 77.5527C54.1497 77.2927 53.8097 77.0628 53.4397 76.8528L52.4895 76.3727L49.4397 74.8528L42.2695 71.2728V64.8127L49.4397 68.3927L50.7996 69.0727L53.0195 70.0228L62.2695 73.9727V90.4227C62.2695 91.5927 62.6096 92.3727 63.2996 92.7627L58.6096 90.4127Z" stroke="white" stroke-linejoin="round"/><path d="M52.49 76.3728C51.53 75.9628 50.5202 75.7228 49.4402 75.6528C47.2702 75.5028 44.88 76.0728 42.27 77.3628C41.77 77.6028 41.27 77.8728 40.76 78.1628C40.04 78.5728 39.3402 79.0228 38.6602 79.5128C35.7902 81.5028 33.1901 84.0828 30.8601 87.2528C29.8801 88.5728 28.9601 89.9828 28.0801 91.5028C26.9101 93.5228 25.9301 95.5328 25.1501 97.5128C23.7501 101.063 22.9901 104.543 22.8501 107.963C22.8401 108.333 22.8301 108.713 22.8301 109.083C22.8301 114.773 24.5801 118.613 28.0801 120.603L8.98999 111.063L8.08008 110.603C4.58008 108.613 2.83008 104.773 2.83008 99.0828C2.83008 93.3928 4.58008 87.5328 8.08008 81.5028C11.5701 75.4728 15.8 71.0228 20.76 68.1628C25.72 65.3028 29.9402 64.8628 33.4402 66.8528L42.27 71.2728L49.4402 74.8528L52.49 76.3728Z" stroke="white" stroke-linejoin="round"/></svg>