<svg width="48" height="48" viewBox="0 0 100 122" xmlns="http://www.w3.org/2000/svg" stroke-width="1px"
     stroke-linecap="round" stroke-linejoin="round">
    <path d="M71.7817 51.4498L71.7217 51.4799L72.1116 51.6798C71.9916 51.6198 71.8817 51.5398 71.7817 51.4498ZM62.2817 3.08984L63.3218 3.60986C63.0118 3.36986 62.6617 3.19984 62.2817 3.08984Z" class="pr-icon-iso-solid-stroke" stroke-linejoin="round"/>
    <path d="M59.9917 73.4497C59.7817 73.3497 59.5217 73.2997 59.2417 73.2997H58.6917L56.3516 73.3597L52.2117 71.2897L47.5718 68.9697L41.4617 65.9197V64.1797L47.9517 67.4297L53.8218 70.3597L58.6917 72.7997L59.9917 73.4497Z" class="pr-icon-iso-solid-stroke" stroke-linejoin="round"/>
    <path d="M89.4417 19.4395C89.1617 18.6795 88.7416 18.0596 88.1816 17.5996L83.5317 13.7795C83.2317 13.5095 82.9017 13.3095 82.5317 13.1795L82.4917 13.1595C82.0417 12.9895 81.5317 12.9296 80.9717 12.9596C79.9517 13.0096 78.8817 13.3695 77.7617 14.0095L69.8616 18.5695L69.0317 19.0495L51.2517 29.3195L34.9517 38.7296C33.8317 39.3696 32.7617 40.2596 31.7417 41.3796C30.7117 42.5096 29.8616 43.7695 29.1816 45.1595L24.5317 54.3596C23.9717 55.4596 23.5517 56.5595 23.2717 57.6495C22.9917 58.7295 22.8516 59.7795 22.8516 60.7695V114.06C22.8516 116.41 23.5817 118 25.0417 118.83C26.5017 119.67 28.2518 119.49 30.3018 118.31L60.4517 100.9C61.5017 100.29 62.2817 99.2895 62.7817 97.8995C63.2717 96.5095 63.2416 95.3696 62.6816 94.4796C61.8116 93.1296 61.1617 91.5496 60.7317 89.7396C60.2917 87.9196 60.0815 85.9795 60.0815 83.9195C60.0815 82.7795 60.1217 81.6296 60.2217 80.4696C60.2617 79.9296 60.3316 79.3896 60.4216 78.8496C60.4216 78.8196 60.4317 78.7796 60.4417 78.7496C60.4717 78.5496 60.5118 78.3396 60.5618 78.1296C60.6318 77.7496 60.7218 77.3596 60.8218 76.9696C61.0718 75.9096 61.0517 75.0296 60.7817 74.3296C60.6317 73.9596 60.4016 73.6795 60.1116 73.5095L59.9917 73.4496C59.7817 73.3496 59.5217 73.2995 59.2417 73.2995H58.6917L56.3516 73.3596L54.7317 75.2196L46.8616 84.2895C45.6216 85.7195 44.4117 86.3596 43.2317 86.2196C43.2017 86.2196 43.1616 86.2196 43.1316 86.1996C42.0216 86.0296 41.4617 85.1495 41.4617 83.5595V56.3296L60.0017 45.6196L61.2617 44.8995L63.5618 43.5695L71.2517 39.1296V49.8095C71.2517 50.5595 71.4317 51.1096 71.7817 51.4496C71.8817 51.5396 71.9916 51.6195 72.1116 51.6795H72.1316C72.2816 51.7595 72.4516 51.8096 72.6416 51.8396C73.5716 51.9696 74.5716 51.5596 75.6216 50.5996C75.8116 50.4196 76.0017 50.2496 76.1917 50.0796C76.3717 49.9096 76.5617 49.7396 76.7517 49.5796C77.9617 48.5196 79.2117 47.5596 80.5117 46.7096C82.2117 45.5796 83.8717 44.7295 85.4917 44.1495C86.6017 43.7895 87.6117 42.9595 88.5117 41.6595C89.4117 40.3595 89.8616 39.0595 89.8616 37.7795V22.0796C89.8616 21.0896 89.7217 20.2095 89.4417 19.4395ZM67.7617 32.5996L64.0815 34.7196L59.8018 37.1996L52.0815 41.6495L31.7817 53.3696L34.9517 47.2695L51.2517 37.8596L69.8616 27.1096L76.9617 23.0095L77.7617 22.5495L80.9316 24.9996L67.7617 32.5996Z" class="pr-icon-iso-solid-stroke" stroke-linejoin="round"/>
    <path d="M80.9316 24.9999L67.7617 32.5999L64.0815 34.7198L59.8018 37.1998L52.0815 41.6498V41.6598L31.7817 53.3699L34.9517 47.2698L51.2517 37.8599L69.8616 27.1099L76.9617 23.0098L80.9316 24.9999Z" class="pr-icon-iso-solid-stroke" stroke-linejoin="round"/>
    <path d="M82.4917 13.16C82.0417 12.99 81.5317 12.93 80.9717 12.96C79.9517 13.01 78.8817 13.37 77.7617 14.01L69.8616 18.57L69.0317 19.05L51.2517 29.32L34.9517 38.7301C33.8317 39.3701 32.7617 40.2601 31.7417 41.3801C30.7117 42.5101 29.8616 43.77 29.1816 45.16L24.5317 54.3601C23.9717 55.4601 23.5517 56.56 23.2717 57.65C22.9917 58.73 22.8516 59.78 22.8516 60.77V114.06C22.8516 116.41 23.5817 118 25.0417 118.83L5.50171 109.06L5.04175 108.83C3.58175 108 2.85156 106.41 2.85156 104.06V50.77C2.85156 49.78 2.99173 48.73 3.27173 47.65C3.55173 46.56 3.97174 45.4601 4.53174 44.3601L9.18164 35.16C9.86164 33.77 10.7117 32.5101 11.7417 31.3801C12.7617 30.2601 13.8317 29.3701 14.9517 28.7301L57.7617 4.00997C58.8817 3.36997 59.9517 3.01004 60.9717 2.96004C61.4317 2.93004 61.8617 2.96003 62.2517 3.08003H62.2817L63.3218 3.61006L82.4917 13.16Z" class="pr-icon-iso-solid-stroke" stroke-linejoin="round"/>
    <path d="M56.3516 73.36L54.7317 75.22L46.8616 84.2899C45.6216 85.7199 44.4117 86.36 43.2317 86.22C43.2017 86.22 43.1616 86.22 43.1316 86.2C42.0216 86.03 41.4617 85.1499 41.4617 83.5599V65.9199L47.5718 68.97L52.2117 71.2899L56.3516 73.36Z" class="pr-icon-iso-solid-stroke" stroke-linejoin="round"/>
    <path d="M79.7617 88.5198L60.4216 78.8499C60.4216 78.8499 60.4317 78.7799 60.4417 78.7499C60.4717 78.5499 60.5118 78.3399 60.5618 78.1299L61.5317 78.6199L68.5916 82.1498C69.3116 82.5598 70.1917 82.4599 71.2517 81.8499L78.6917 77.5498V86.0999C78.6917 87.3099 79.0517 88.1098 79.7617 88.5198Z" class="pr-icon-iso-solid-stroke" stroke-linejoin="round"/>
    <path d="M84.8516 53.6301C84.3916 53.4501 83.8818 53.45 83.3018 53.64H83.2917C83.0117 53.73 82.7216 53.86 82.4116 54.04C81.3616 54.65 80.4817 55.57 79.7617 56.8C79.0517 58.03 78.6917 59.2501 78.6917 60.4601V69.01L66.6216 62.9701L58.6917 59.01V50.4601C58.6917 49.2501 59.0517 48.03 59.7617 46.8C59.9617 46.45 60.1816 46.1301 60.4216 45.8301L66.1416 48.6901L71.7217 51.4801L72.1116 51.6801H72.1316C72.2816 51.7601 72.4516 51.8101 72.6416 51.8401C73.5716 51.9701 74.5716 51.5601 75.6216 50.6001C75.8116 50.4201 76.0017 50.2501 76.1917 50.0801C76.3717 49.9101 76.5617 49.7401 76.7517 49.5801L84.8516 53.6301Z" class="pr-icon-iso-solid-stroke" stroke-linejoin="round"/>
    <path d="M71.7817 51.4498L71.7217 51.4799L66.1416 48.6898L60.4216 45.8298L60.0017 45.6199L61.2617 44.8998L63.5618 43.5698L71.2517 39.1299V49.8098C71.2517 50.5598 71.4317 51.1098 71.7817 51.4498Z" class="pr-icon-iso-solid-stroke" stroke-linejoin="round"/>
    <path d="M78.6917 69.0098L71.2517 73.3098C70.1917 73.9198 69.3116 74.8398 68.5916 76.0698C67.8816 77.2998 67.5217 78.5199 67.5217 79.7299C67.5217 80.9399 67.8816 81.7498 68.5916 82.1498L61.5317 78.6199L60.5618 78.1299C60.6318 77.7499 60.7218 77.3598 60.8218 76.9698C61.0718 75.9098 61.0517 75.0298 60.7817 74.3298C60.6317 73.9598 60.4016 73.6798 60.1116 73.5098L59.9917 73.4498L58.6917 72.7998L53.8218 70.3599L47.9517 67.4298C48.1117 66.9798 48.3316 66.5198 48.5916 66.0698C49.3116 64.8398 50.1917 63.9198 51.2517 63.3098L58.6917 59.0098L66.6216 62.9698L78.6917 69.0098Z" class="pr-icon-iso-solid-stroke" stroke-linejoin="round"/>
    <path d="M97.3118 62.5298C97.3118 63.7398 96.9517 64.9599 96.2417 66.1899C95.5217 67.4299 94.6415 68.3399 93.5815 68.9499L86.1416 73.2499V81.7998C86.1416 83.0098 85.7818 84.2299 85.0718 85.4599C84.3518 86.6899 83.4716 87.6099 82.4116 88.2199C81.3616 88.8299 80.4817 88.9298 79.7617 88.5198C79.0517 88.1098 78.6917 87.3099 78.6917 86.0999V77.5498L71.2517 81.8499C70.1917 82.4599 69.3116 82.5598 68.5916 82.1498C67.8816 81.7498 67.5217 80.9399 67.5217 79.7299C67.5217 78.5199 67.8816 77.2999 68.5916 76.0699C69.3116 74.8399 70.1917 73.9199 71.2517 73.3099L78.6917 69.0098V60.4599C78.6917 59.2499 79.0517 58.0298 79.7617 56.7998C80.4817 55.5698 81.3616 54.6498 82.4116 54.0398C82.7216 53.8598 83.0117 53.7298 83.2917 53.6398H83.3018C83.8818 53.4498 84.3916 53.4499 84.8516 53.6299L85.0718 53.7399C85.5218 53.9999 85.8317 54.3999 85.9917 54.9799C86.0917 55.3299 86.1416 55.7198 86.1416 56.1698V64.7099L93.5815 60.4098C94.5315 59.8598 95.3417 59.7299 96.0217 59.9999L96.2417 60.1099C96.9517 60.5099 97.3118 61.3198 97.3118 62.5298Z" class="pr-icon-iso-solid-stroke" stroke-linejoin="round"/>
    <path d="M96.0217 60.0002C95.3417 59.7302 94.5315 59.8602 93.5815 60.4102L86.1416 64.7102V56.1702C86.1416 55.7202 86.0917 55.3302 85.9917 54.9902L96.0217 60.0002Z" class="pr-icon-iso-solid-stroke" stroke-linejoin="round"/>
</svg>