<svg width="48" height="48" viewBox="0 0 108 122" xmlns="http://www.w3.org/2000/svg" stroke-width="1px"
     stroke-linecap="round" stroke-linejoin="round">
    <path d="M102.25 25.4298C100.07 20.8998 97.1101 17.5598 93.3801 15.4398C93.2201 15.3498 93.0601 15.2598 92.9001 15.1698L92.1801 14.8098C89.0301 13.2898 85.4301 12.6198 81.4001 12.7898C81.2101 12.7898 81.0201 12.8098 80.8301 12.8298C80.6301 12.8398 80.4201 12.8498 80.2101 12.8698C75.1701 13.2798 69.7801 15.1498 64.0401 18.4598C58.3101 21.7698 52.9101 26.1398 47.8701 31.5498C42.8201 36.9598 38.4301 42.8798 34.7001 49.3198C32.2001 53.6198 30.0601 58.0598 28.2801 62.6298C28.1801 62.8598 28.1001 63.0798 28.0101 63.3098C27.2101 65.3598 26.4901 67.4398 25.8401 69.5498C25.4301 70.8898 25.0501 72.2098 24.7201 73.5398C24.7201 73.5398 24.7101 73.5698 24.7101 73.5798C23.2801 79.1998 22.5701 84.6598 22.5701 89.9898C22.5701 96.5798 23.6501 102.13 25.8401 106.66C26.2801 107.58 26.7501 108.45 27.2501 109.27C27.3401 109.43 27.4301 109.58 27.5301 109.73C29.4801 112.74 31.8601 115.04 34.7001 116.65C38.4301 118.79 42.8201 119.64 47.8701 119.23C52.9101 118.82 58.3101 116.95 64.0401 113.64C69.7801 110.32 75.1701 105.97 80.2101 100.55C85.2601 95.1398 89.6501 89.2098 93.3801 82.7798C97.1101 76.3398 100.07 69.5998 102.25 62.5498C104.42 55.4998 105.51 48.6898 105.51 42.0998C105.51 35.5098 104.42 29.9698 102.25 25.4298ZM85.1901 44.5598C85.0301 44.9998 84.8201 45.4298 84.5701 45.8698L83.6201 47.5098L61.1401 86.2798C60.3101 87.7198 59.3401 88.7498 58.2401 89.3898C57.1301 90.0298 56.1601 90.1098 55.3301 89.6398L43.5101 82.8998C42.7501 82.4598 42.3701 81.5698 42.3701 80.2198C42.3701 78.8698 42.7501 77.5498 43.5101 76.2398C44.2801 74.9198 45.2401 73.9298 46.4101 73.2498C47.5901 72.5698 48.5601 72.4498 49.3201 72.8798L58.2401 77.9698L78.7601 42.5598C79.5201 41.2498 80.4901 40.2498 81.6701 39.5698C82.8401 38.8898 83.8101 38.7698 84.5701 39.2098C84.7501 39.3098 84.9101 39.4398 85.0501 39.5898C85.4501 40.0298 85.6601 40.6998 85.7001 41.5698C85.7101 41.6698 85.7101 41.7798 85.7101 41.8798C85.7101 42.7798 85.5401 43.6698 85.1901 44.5598Z" class="pr-icon-iso-solid-stroke" stroke-linejoin="round"/>
    <path d="M92.1801 14.8098C89.0301 13.2898 85.4301 12.6198 81.4001 12.7898C81.2101 12.7898 81.0201 12.8098 80.8301 12.8298C80.6301 12.8398 80.4201 12.8498 80.2101 12.8698C75.1701 13.2798 69.7801 15.1498 64.0401 18.4598C58.3101 21.7698 52.9101 26.1398 47.8701 31.5498C42.8201 36.9598 38.4301 42.8798 34.7001 49.3198C32.2001 53.6198 30.0601 58.0598 28.2801 62.6298C28.1801 62.8598 28.1001 63.0798 28.0101 63.3098C27.2101 65.3598 26.4901 67.4398 25.8401 69.5498C25.4301 70.8898 25.0501 72.2098 24.7201 73.5398C24.7201 73.5398 24.7101 73.5698 24.7101 73.5798C23.2801 79.1998 22.5701 84.6598 22.5701 89.9898C22.5701 96.5798 23.6501 102.13 25.8401 106.66C26.2801 107.58 26.7501 108.45 27.2501 109.27C27.3401 109.43 27.4301 109.58 27.5301 109.73C29.4801 112.74 31.8601 115.04 34.7001 116.65L16.6601 107.63L16.6101 107.61L14.7001 106.65C11.8601 105.04 9.48009 102.74 7.53009 99.7298C6.93009 98.7798 6.36009 97.7598 5.84009 96.6598C3.65009 92.1298 2.57007 86.5798 2.57007 79.9898C2.57007 74.6498 3.28009 69.1698 4.72009 63.5398C5.05009 62.2098 5.43009 60.8898 5.84009 59.5498C6.49009 57.4398 7.21007 55.3598 8.01007 53.3098C9.85007 48.4998 12.0801 43.8298 14.7001 39.3198C18.4301 32.8798 22.8201 26.9598 27.8701 21.5498C32.9101 16.1398 38.3101 11.7698 44.0401 8.45983C49.7801 5.14983 55.1701 3.27983 60.2101 2.86983C60.6101 2.83983 61.0101 2.80983 61.4001 2.78983C65.4301 2.61983 69.0301 3.28983 72.1801 4.80983L72.8701 5.15983L92.1801 14.8098Z" class="pr-icon-iso-solid-stroke" stroke-linejoin="round"/>
    <path d="M14.7002 106.65C15.3202 107.01 15.9602 107.32 16.6102 107.61L14.7002 106.65Z" class="pr-icon-iso-solid-stroke" stroke-linejoin="round"/>
    <path d="M85.7101 41.8798C85.7101 42.7798 85.5401 43.6698 85.1901 44.5598C85.0301 44.9998 84.8201 45.4298 84.5701 45.8698L83.6201 47.5098L61.1401 86.2798C60.3101 87.7198 59.3401 88.7498 58.2401 89.3898C57.1301 90.0298 56.1601 90.1098 55.3301 89.6398L43.5101 82.8998C42.7501 82.4598 42.3701 81.5698 42.3701 80.2198C42.3701 78.8698 42.7501 77.5498 43.5101 76.2398C44.2801 74.9198 45.2401 73.9298 46.4101 73.2498C47.5901 72.5698 48.5601 72.4498 49.3201 72.8798L58.2401 77.9698L78.7601 42.5598C79.5201 41.2498 80.4901 40.2498 81.6701 39.5698C82.8401 38.8898 83.8101 38.7698 84.5701 39.2098C84.7501 39.3098 84.9101 39.4398 85.0501 39.5898C85.4501 40.0298 85.6601 40.6998 85.7001 41.5698C85.7101 41.6698 85.7101 41.7798 85.7101 41.8798Z" class="pr-icon-iso-solid-stroke" stroke-linejoin="round"/>
</svg>