<svg width="48" height="48" viewBox="0 0 76 117" fill="#229EFF" xmlns="http://www.w3.org/2000/svg" stroke-width="1px" stroke-linecap="round" stroke-linejoin="round"><path d="M73.7511 38.3002C73.7511 39.4802 73.5811 40.6902 73.2611 41.9202C72.9411 43.1502 72.3911 44.4302 71.6111 45.7702L35.8811 107.39C34.4611 109.85 32.6411 111.71 30.4411 112.98C28.2411 114.25 26.4311 114.48 25.0111 113.67C23.5811 112.86 22.8711 111.19 22.8711 108.67C22.8711 106.15 23.5811 103.65 25.0111 101.19L55.3011 48.9502L46.7811 44.0902L25.0111 31.6802C23.5811 30.8602 22.8711 29.2002 22.8711 26.6702C22.8711 24.1402 23.5811 21.6502 25.0111 19.2002C26.4311 16.7402 28.2411 14.8801 30.4411 13.6101C31.3011 13.1101 32.1011 12.7701 32.8511 12.6001C33.8211 12.3601 34.6911 12.4002 35.4511 12.7102L35.8811 12.9202L71.6111 33.2902C72.3911 33.7302 72.9411 34.3801 73.2611 35.2301C73.5811 36.0901 73.7511 37.1102 73.7511 38.3002Z" stroke="white" stroke-linejoin="round"/><path d="M25.0111 101.19C23.5811 103.65 22.8711 106.14 22.8711 108.67C22.8711 111.2 23.5811 112.86 25.0111 113.67L5.4411 103.88L5.01111 103.67C3.58111 102.86 2.87109 101.19 2.87109 98.6702C2.87109 96.1502 3.58111 93.6502 5.01111 91.1902L35.3011 38.9502L46.5111 44.5602L55.3011 48.9502L25.0111 101.19Z" stroke="white" stroke-linejoin="round"/><path d="M55.3011 48.9502L46.5111 44.5602L35.3011 38.9502L5.01111 21.6802C3.58111 20.8602 2.87109 19.2002 2.87109 16.6702C2.87109 14.1402 3.58111 11.6502 5.01111 9.20022C6.43111 6.74022 8.2411 4.88013 10.4411 3.61013C12.6411 2.34013 14.4611 2.11019 15.8811 2.92019L35.4511 12.7102C34.6911 12.4002 33.8211 12.3601 32.8511 12.6001C32.1011 12.7701 31.3011 13.1101 30.4411 13.6101C28.2411 14.8801 26.4311 16.7402 25.0111 19.2002C23.5811 21.6502 22.8711 24.1502 22.8711 26.6702C22.8711 29.1902 23.5811 30.8602 25.0111 31.6802L46.7811 44.0902L55.3011 48.9502Z" stroke="white" stroke-linejoin="round"/></svg>