<svg width="48" height="48" viewBox="0 0 112 126" fill="#229EFF" xmlns="http://www.w3.org/2000/svg" stroke-width="1px" stroke-linecap="round" stroke-linejoin="round"><path d="M94.4915 14.2783L96.3815 15.2284C95.7715 14.8784 95.1415 14.5683 94.4915 14.2783Z" stroke="white" stroke-linejoin="round"/><path d="M105.631 25.6583C103.361 20.9283 100.271 17.4483 96.3814 15.2283L94.4914 14.2783L94.4314 14.2583C91.3014 12.8883 87.7714 12.2883 83.8514 12.4583C83.4414 12.4783 83.0414 12.5083 82.6314 12.5383C77.3614 12.9783 71.7314 14.9184 65.7414 18.3784C63.0114 19.9484 60.3714 21.7483 57.7914 23.7783C54.7114 26.1983 51.7214 28.9583 48.8514 32.0383C46.5314 34.5283 44.3514 37.1183 42.3114 39.8083C40.0514 42.7483 37.9714 45.8084 36.0514 48.9984C35.7314 49.5284 35.4114 50.0583 35.1014 50.5983C33.7914 52.8583 32.5714 55.1584 31.4514 57.4984C29.2214 62.0984 27.3614 66.8383 25.8514 71.7183C23.5814 79.0783 22.4414 86.1983 22.4414 93.0683C22.4414 99.9383 23.5814 105.748 25.8514 110.478C26.3914 111.608 26.9914 112.678 27.6214 113.668C29.6514 116.808 32.1514 119.218 35.1014 120.908C39.0014 123.128 43.5814 124.028 48.8514 123.588C54.1214 123.158 59.7514 121.218 65.7414 117.758C71.7314 114.298 77.3614 109.738 82.6314 104.088C87.9014 98.4383 92.4814 92.2583 96.3814 85.5383C100.271 78.8083 103.361 71.7683 105.631 64.4183C107.901 57.0583 109.041 49.9383 109.041 43.0683C109.041 36.1983 107.901 30.3883 105.631 25.6583ZM78.1414 42.7083C78.6814 43.5183 79.0614 44.4783 79.2714 45.5983L81.2214 44.4683C81.9414 44.0583 82.5414 43.9784 83.0114 44.2484C83.4814 44.5184 83.7114 45.0583 83.7114 45.8883C83.7114 46.7183 83.4814 47.5583 83.0114 48.4083C82.5414 49.2583 81.9414 49.8983 81.2214 50.3083L79.3814 51.3684C78.8014 55.3484 77.2314 59.4483 74.6714 63.6583C72.1114 67.8683 68.8814 71.0983 64.9814 73.3483L63.9014 73.9783L63.7914 74.4083L73.3514 80.4483L75.8114 82.0083C76.6014 82.4583 76.9614 83.3284 76.8914 84.6084C76.8214 85.8984 76.3814 87.1783 75.5914 88.4683C74.8014 89.7483 73.8614 90.7083 72.7814 91.3283C71.6914 91.9583 70.7914 92.0283 70.0714 91.5283L66.8014 89.3183L53.8614 80.5483L53.8314 80.5283C53.1814 80.0783 52.7914 79.4183 52.6414 78.5483C52.5014 77.6783 52.6114 76.6883 52.9714 75.5683C53.3314 74.4483 53.8514 73.4383 54.5414 72.5483C54.7814 72.2383 55.0314 71.9483 55.3014 71.6883C55.6514 71.3283 56.0314 71.0084 56.4514 70.7384C56.5814 70.6384 56.7214 70.5483 56.8714 70.4583C56.9014 70.4383 56.9414 70.4183 56.9714 70.3983L64.3314 66.1483C66.4314 64.9383 68.0914 63.3783 69.3114 61.4683C70.5414 59.5583 71.3714 57.6584 71.8014 55.7484L51.2214 67.6383L50.7714 67.8983L50.2614 68.1883C50.1714 68.2383 50.0814 68.2883 49.9914 68.3283C49.3914 68.6083 48.8814 68.6483 48.4714 68.4083C48.0314 68.1583 47.8014 67.6683 47.7814 66.9283C47.7714 66.8783 47.7714 66.8283 47.7714 66.7683C47.7714 66.6483 47.7714 66.5283 47.7914 66.4083C47.8014 66.2583 47.8214 66.0983 47.8514 65.9483C47.9514 65.3883 48.1514 64.8184 48.4714 64.2484C48.9414 63.3984 49.5414 62.7683 50.2614 62.3483L66.3814 53.0383L71.6914 49.9683C71.3314 48.8683 70.7114 48.0883 69.8214 47.6383L69.6414 47.5483C69.5214 47.4883 69.3914 47.4383 69.2614 47.3983C68.0714 47.0183 66.5314 47.3583 64.6614 48.4483L61.2014 50.4483L54.1214 54.5283L50.9114 56.3784C50.0414 56.8784 49.3014 56.9783 48.6914 56.6683C48.0814 56.3583 47.7714 55.7083 47.7714 54.7183C47.7714 54.2083 47.8514 53.6983 48.0114 53.1783C48.1614 52.6783 48.3914 52.1583 48.6914 51.6383C49.1614 50.8183 49.7114 50.1683 50.3414 49.6883C50.5214 49.5383 50.7114 49.4083 50.9114 49.2983L54.6214 47.1583L58.6314 44.8383L61.2314 43.3383L67.5114 39.7183L70.7114 37.8684L81.2214 31.7983C81.9414 31.3883 82.5414 31.3083 83.0114 31.5783C83.4814 31.8483 83.7114 32.3883 83.7114 33.2183C83.7114 34.0483 83.4814 34.8884 83.0114 35.7384C82.5414 36.5884 81.9414 37.2183 81.2214 37.6383L76.1314 40.5783C76.9314 41.1983 77.5914 41.9083 78.1414 42.7083Z" stroke="white" stroke-linejoin="round"/><path d="M83.7114 33.2183C83.7114 34.0483 83.4814 34.8883 83.0114 35.7383C82.5414 36.5883 81.9414 37.2182 81.2214 37.6382L76.1314 40.5783L70.7114 37.8683L81.2214 31.7983C81.9414 31.3883 82.5414 31.3083 83.0114 31.5783C83.4814 31.8483 83.7114 32.3883 83.7114 33.2183Z" stroke="white" stroke-linejoin="round"/><path d="M79.2715 45.5981L67.5115 39.7181L70.7115 37.8682L76.1315 40.5781C76.9315 41.1981 77.5915 41.9081 78.1415 42.7081C78.6815 43.5181 79.0615 44.4781 79.2715 45.5981Z" stroke="white" stroke-linejoin="round"/><path d="M83.7114 45.8882C83.7114 46.7182 83.4814 47.5582 83.0114 48.4082C82.5414 49.2582 81.9413 49.8982 81.2213 50.3082L79.3813 51.3683C78.8013 55.3483 77.2313 59.4482 74.6713 63.6582C72.1113 67.8682 68.8813 71.0983 64.9813 73.3483L63.9014 73.9783L56.8713 70.4583C56.8713 70.4583 56.9413 70.4182 56.9713 70.3982L64.3314 66.1482C66.4314 64.9382 68.0913 63.3783 69.3113 61.4683C70.5413 59.5583 71.3713 57.6583 71.8013 55.7483L66.3813 53.0382L71.6913 49.9683C71.3313 48.8683 70.7114 48.0882 69.8214 47.6382L69.6414 47.5482L61.2313 43.3383L67.5114 39.7183L79.2714 45.5983L81.2213 44.4683C81.9413 44.0583 82.5414 43.9783 83.0114 44.2483C83.4814 44.5183 83.7114 45.0582 83.7114 45.8882Z" stroke="white" stroke-linejoin="round"/><path d="M63.9014 73.9785L63.7914 74.4084L56.4514 70.7385C56.5814 70.6385 56.7214 70.5485 56.8714 70.4585L63.9014 73.9785Z" stroke="white" stroke-linejoin="round"/><path d="M76.8914 84.6083C76.8214 85.8983 76.3814 87.1783 75.5914 88.4683C74.8014 89.7483 73.8614 90.7082 72.7814 91.3282C71.6914 91.9582 70.7914 92.0282 70.0714 91.5282L66.8013 89.3182L53.8613 80.5482C54.5013 79.9982 55.0814 79.2983 55.5914 78.4683C56.3814 77.1783 56.8214 75.8983 56.8914 74.6083C56.9614 73.3283 56.6013 72.4582 55.8113 72.0082L55.3013 71.6882C55.6513 71.3282 56.0314 71.0083 56.4514 70.7383L63.7913 74.4082L73.3513 80.4482L75.8113 82.0082C76.6013 82.4582 76.9614 83.3283 76.8914 84.6083Z" stroke="white" stroke-linejoin="round"/><path d="M71.8015 55.7482L51.2214 67.6381L50.7715 67.8981L50.2615 68.1881C50.1715 68.2381 50.0815 68.2881 49.9915 68.3281C49.3915 68.6081 48.8814 68.6481 48.4714 68.4081C48.0314 68.1581 47.8015 67.6681 47.7815 66.9281C47.7715 66.8781 47.7715 66.8281 47.7715 66.7681C47.7715 66.6481 47.7714 66.5281 47.7914 66.4081C47.8014 66.2581 47.8214 66.0981 47.8514 65.9481C47.9514 65.3881 48.1514 64.8182 48.4714 64.2482C48.9414 63.3982 49.5415 62.7681 50.2615 62.3481L66.3815 53.0381L71.8015 55.7482Z" stroke="white" stroke-linejoin="round"/><path d="M69.6415 47.5483C69.5215 47.4883 69.3915 47.4383 69.2615 47.3983C68.0715 47.0183 66.5314 47.3584 64.6614 48.4484L61.2015 50.4484L54.1215 54.5283L50.9114 56.3784C50.0414 56.8784 49.3015 56.9783 48.6915 56.6683C48.0815 56.3583 47.7715 55.7084 47.7715 54.7184C47.7715 54.2084 47.8515 53.6983 48.0115 53.1783C48.1615 52.6783 48.3915 52.1583 48.6915 51.6383C49.1615 50.8183 49.7115 50.1684 50.3415 49.6884C50.5215 49.5384 50.7114 49.4083 50.9114 49.2983L54.6215 47.1583L58.6315 44.8384L61.2314 43.3384L69.6415 47.5483Z" stroke="white" stroke-linejoin="round"/><path d="M94.4314 14.2584C91.3014 12.8884 87.7714 12.2884 83.8514 12.4584C83.4414 12.4784 83.0414 12.5084 82.6314 12.5384C77.3614 12.9784 71.7314 14.9185 65.7414 18.3785C63.0114 19.9485 60.3714 21.7484 57.7914 23.7784C54.7114 26.1984 51.7214 28.9584 48.8514 32.0384C46.5314 34.5284 44.3514 37.1184 42.3114 39.8084C40.0514 42.7484 37.9714 45.8085 36.0514 48.9985C35.7314 49.5285 35.4114 50.0584 35.1014 50.5984C33.7914 52.8584 32.5714 55.1585 31.4514 57.4985C29.2214 62.0985 27.3614 66.8384 25.8514 71.7184C23.5814 79.0784 22.4414 86.1984 22.4414 93.0684C22.4414 99.9384 23.5814 105.748 25.8514 110.478C26.3914 111.608 26.9914 112.678 27.6214 113.668C29.6514 116.808 32.1514 119.218 35.1014 120.908L17.1014 111.908C16.4214 111.608 15.7514 111.278 15.1014 110.908C11.2114 108.688 8.12138 105.208 5.85138 100.478C3.58138 95.7484 2.44141 89.9384 2.44141 83.0684C2.44141 76.1984 3.58138 69.0784 5.85138 61.7184C8.12138 54.3584 11.2114 47.3184 15.1014 40.5984C19.0014 33.8784 23.5814 27.6884 28.8514 22.0384C34.1214 16.3884 39.7514 11.8385 45.7414 8.37847C51.7314 4.91847 57.3614 2.97839 62.6314 2.53839C67.9014 2.10839 72.4814 3.00845 76.3814 5.22845L94.4314 14.2584Z" stroke="white" stroke-linejoin="round"/></svg>