<svg width="48" height="48" viewBox="0 0 88 118" xmlns="http://www.w3.org/2000/svg" stroke-width="1px"
     stroke-linecap="round" stroke-linejoin="round">
    <path d="M83.2896 13.0897C81.9196 12.3097 80.2696 12.4697 78.3496 13.5797L65.3496 21.0897L51.3496 29.1697L37.3496 37.2497L30.3496 41.2897L29.3496 41.8697C27.4296 42.9797 25.7797 44.7197 24.4097 47.0797C23.0397 49.4497 22.3496 51.7397 22.3496 53.9397V110.17C22.3496 112.38 23.0397 113.87 24.4097 114.65C25.7797 115.44 27.4296 115.27 29.3496 114.16L78.3496 85.8697C80.2696 84.7597 81.9196 83.0197 83.2896 80.6597C84.6596 78.2897 85.3496 76.0097 85.3496 73.7997V17.5697C85.3496 15.3597 84.6596 13.8697 83.2896 13.0897ZM50.3496 81.9597C50.3496 83.0897 50.0097 84.2397 49.3397 85.3997C48.6697 86.5597 47.8396 87.4197 46.8496 87.9897L39.8496 92.0297C38.8596 92.6097 38.0296 92.6997 37.3596 92.3197C36.6896 91.9397 36.3496 91.1797 36.3496 90.0397V82.0097C36.3496 80.8697 36.6896 79.7197 37.3596 78.5597C38.0296 77.4097 38.8596 76.5397 39.8496 75.9697L46.8496 71.9297C47.8396 71.3597 48.6697 71.2597 49.3397 71.6397C50.0097 72.0297 50.3496 72.7897 50.3496 73.9197V81.9597ZM50.3496 57.8597C50.3496 58.9997 50.0097 60.1397 49.3397 61.2997C48.6697 62.4597 47.8396 63.3197 46.8496 63.8997L39.8496 67.9397C38.8596 68.5097 38.0396 68.6097 37.3696 68.2197H37.3596C36.6896 67.8397 36.3496 67.0797 36.3496 65.9397V57.9097C36.3496 56.7697 36.6896 55.6197 37.3596 54.4697C38.0296 53.3097 38.8596 52.4497 39.8496 51.8697L46.8496 47.8297C47.8396 47.2597 48.6697 47.1597 49.3397 47.5497C49.9497 47.8897 50.2797 48.5497 50.3297 49.5197H50.3397C50.3397 49.6197 50.3397 49.7197 50.3397 49.8297V57.8597H50.3496ZM71.3496 69.8297C71.3496 70.9697 71.0097 72.1197 70.3397 73.2697C69.6697 74.4297 68.8396 75.2997 67.8496 75.8697L60.8496 79.9097C59.8596 80.4797 59.0296 80.5797 58.3496 80.1997C57.6796 79.8097 57.3496 79.0497 57.3496 77.9097V69.8797C57.3496 68.7397 57.6796 67.5997 58.3496 66.4397C59.0296 65.2797 59.8596 64.4197 60.8496 63.8497L65.3496 61.2497L67.8496 59.7997C68.8396 59.2297 69.6697 59.1397 70.3397 59.5197C71.0097 59.8997 71.3496 60.6597 71.3496 61.7997V69.8297ZM71.3496 45.7397C71.3496 46.8697 71.0097 48.0197 70.3397 49.1797C69.6697 50.3397 68.8396 51.1997 67.8496 51.7697L65.3496 53.2097L60.8496 55.8097C59.8596 56.3897 59.0296 56.4797 58.3496 56.0997C57.6796 55.7197 57.3496 54.9597 57.3496 53.8197V45.7897C57.3496 44.6497 57.6796 43.4997 58.3496 42.3397C59.0296 41.1897 59.8596 40.3197 60.8496 39.7497L65.3496 37.1497L67.8496 35.7097C68.8396 35.1397 69.6697 35.0397 70.3397 35.4197C71.0097 35.8097 71.3496 36.5697 71.3496 37.6997V45.7397Z" class="pr-icon-iso-solid-stroke" stroke-linejoin="round"/>
    <path d="M71.3496 61.7997V69.8297C71.3496 70.9697 71.0097 72.1197 70.3397 73.2697C69.6697 74.4297 68.8396 75.2997 67.8496 75.8697L60.8496 79.9097C59.8596 80.4797 59.0296 80.5797 58.3496 80.1997C57.6796 79.8097 57.3496 79.0497 57.3496 77.9097V69.8797C57.3496 68.7397 57.6796 67.5997 58.3496 66.4397C59.0296 65.2797 59.8596 64.4197 60.8496 63.8497L65.3496 61.2497L67.8496 59.7997C68.8396 59.2297 69.6697 59.1397 70.3397 59.5197C71.0097 59.8997 71.3496 60.6597 71.3496 61.7997Z" class="pr-icon-iso-solid-stroke" stroke-linejoin="round"/>
    <path d="M71.3496 37.6997V45.7397C71.3496 46.8697 71.0097 48.0197 70.3397 49.1797C69.6697 50.3397 68.8396 51.1997 67.8496 51.7697L65.3496 53.2097L60.8496 55.8097C59.8596 56.3897 59.0296 56.4797 58.3496 56.0997C57.6796 55.7197 57.3496 54.9597 57.3496 53.8197V45.7897C57.3496 44.6497 57.6796 43.4997 58.3496 42.3397C59.0296 41.1897 59.8596 40.3197 60.8496 39.7497L65.3496 37.1497L67.8496 35.7097C68.8396 35.1397 69.6697 35.0397 70.3397 35.4197C71.0097 35.8097 71.3496 36.5697 71.3496 37.6997Z" class="pr-icon-iso-solid-stroke" stroke-linejoin="round"/>
    <path d="M50.3496 49.8297V57.8597C50.3496 58.9997 50.0097 60.1397 49.3397 61.2997C48.6697 62.4597 47.8396 63.3197 46.8496 63.8997L39.8496 67.9397C38.8596 68.5097 38.0396 68.6097 37.3696 68.2197H37.3596C36.6896 67.8397 36.3496 67.0797 36.3496 65.9397V57.9097C36.3496 56.7697 36.6896 55.6197 37.3596 54.4697C38.0296 53.3097 38.8596 52.4497 39.8496 51.8697L46.8496 47.8297C47.8396 47.2597 48.6697 47.1597 49.3397 47.5497C49.9497 47.8897 50.2797 48.5497 50.3297 49.5197H50.3397C50.3397 49.6197 50.3397 49.7197 50.3397 49.8297H50.3496Z" class="pr-icon-iso-solid-stroke" stroke-linejoin="round"/>
    <path d="M50.3496 73.9197V81.9597C50.3496 83.0897 50.0097 84.2397 49.3397 85.3997C48.6697 86.5597 47.8396 87.4197 46.8496 87.9897L39.8496 92.0297C38.8596 92.6097 38.0296 92.6997 37.3596 92.3197C36.6896 91.9397 36.3496 91.1797 36.3496 90.0397V82.0097C36.3496 80.8697 36.6896 79.7197 37.3596 78.5597C38.0296 77.4097 38.8596 76.5397 39.8496 75.9697L46.8496 71.9297C47.8396 71.3597 48.6697 71.2597 49.3397 71.6397C50.0097 72.0297 50.3496 72.7897 50.3496 73.9197Z" class="pr-icon-iso-solid-stroke" stroke-linejoin="round"/>
    <path d="M83.2896 13.0897C81.9196 12.3097 80.2696 12.4697 78.3496 13.5797L65.3496 21.0897L51.3496 29.1697L37.3496 37.2497L30.3496 41.2897L29.3496 41.8697C27.4296 42.9797 25.7797 44.7197 24.4097 47.0797C23.0397 49.4497 22.3496 51.7397 22.3496 53.9397V110.17C22.3496 112.38 23.0397 113.87 24.4097 114.65L4.84961 104.87L4.40967 104.65C3.03967 103.87 2.34961 102.38 2.34961 100.17V43.9397C2.34961 41.7397 3.03967 39.4497 4.40967 37.0797C5.77967 34.7197 7.42961 32.9797 9.34961 31.8697L58.3496 3.57969C60.2696 2.46969 61.9196 2.30969 63.2896 3.08969L83.2896 13.0897Z" class="pr-icon-iso-solid-stroke" stroke-linejoin="round"/>
</svg>