<svg width="24" height="24" viewBox="0 0 98 125" xmlns="http://www.w3.org/2000/svg" stroke-width="1px" stroke-linecap="round" stroke-linejoin="round">
    <path d="M70.7704 91.5362C70.7704 92.8462 70.3804 94.1762 69.6104 95.5162C68.8304 96.8562 67.8704 97.8562 66.7204 98.5162L26.2404 121.896C25.0904 122.556 24.1304 122.666 23.3504 122.226C22.5704 121.776 22.1904 120.896 22.1904 119.586C22.1904 118.276 22.5704 116.936 23.3504 115.606C24.1304 114.266 25.0904 113.266 26.2404 112.596L66.7204 89.2261C67.7504 88.6361 68.6404 88.4862 69.3704 88.7762L69.6104 88.8962C70.3804 89.3362 70.7704 90.2162 70.7704 91.5362Z" class="pr-icon-iso-solid-stroke" stroke-linejoin="round"/>
    <path d="M62.3704 77.796C62.3704 79.036 62.0004 80.336 61.2604 81.696C60.7904 82.556 60.2304 83.2861 59.5704 83.8761C59.1904 84.2261 58.7704 84.5261 58.3204 84.7861L26.2404 103.306C25.0904 103.976 24.1304 104.086 23.3504 103.636C22.9304 103.396 22.6304 103.036 22.4404 102.536C22.2704 102.116 22.1904 101.606 22.1904 100.996C22.1904 99.686 22.5704 98.3561 23.3504 97.0161C24.1304 95.6761 25.0904 94.6761 26.2404 94.0161L50.5204 79.9961L51.1204 79.6561L58.3204 75.4961C59.3504 74.8961 60.2404 74.746 60.9704 75.046L61.2104 75.1661C61.9804 75.6061 62.3704 76.486 62.3704 77.796Z" class="pr-icon-iso-solid-stroke" stroke-linejoin="round"/>
    <path d="M49.2104 66.8159C49.2104 67.5159 49.0904 68.236 48.8404 68.976C48.6504 69.546 48.3904 70.136 48.0504 70.736C47.2704 72.116 46.3104 73.1359 45.1604 73.7959L26.2404 84.726C25.0904 85.386 24.1304 85.4959 23.3504 85.0559C22.9304 84.8159 22.6304 84.456 22.4404 83.956C22.2704 83.536 22.1904 83.026 22.1904 82.416C22.1904 81.096 22.5704 79.7759 23.3504 78.4359C24.1304 77.0959 25.0904 76.0959 26.2404 75.4359L42.1204 66.266L42.7104 65.916L45.1604 64.506C46.1904 63.916 47.0804 63.7659 47.8104 64.0559L48.0504 64.1759C48.8204 64.6159 49.2104 65.4959 49.2104 66.8159Z" class="pr-icon-iso-solid-stroke" stroke-linejoin="round"/>
    <path d="M89.1401 13.386L88.1501 12.896C84.4601 11.256 80.0701 11.876 75.0201 14.746C74.9501 14.776 74.8901 14.8159 74.8201 14.8559C69.2201 18.0959 64.4501 23.1159 60.5001 29.9259C59.0001 32.5259 57.7901 35.086 56.8501 37.616C56.4001 38.836 56.0201 40.056 55.7001 41.266C54.9501 44.136 54.5801 46.976 54.5801 49.776C54.5801 50.346 54.6001 50.8959 54.6301 51.4259C54.9401 56.9559 56.9001 60.7459 60.5001 62.7959C64.4501 65.0459 69.2201 64.5559 74.8201 61.3159C80.4201 58.0859 85.2001 53.066 89.1401 46.256C93.0901 39.446 95.0701 32.826 95.0701 26.406C95.0701 19.986 93.0901 15.636 89.1401 13.386ZM76.8501 48.536C76.8501 49.156 76.6401 49.816 76.2401 50.516C75.8301 51.216 75.3601 51.716 74.8201 52.026C74.2801 52.336 73.8101 52.376 73.4001 52.146C73.0001 51.916 72.8001 51.496 72.8001 50.876V36.9359C72.8001 36.3159 73.0001 35.6559 73.4001 34.9559C73.8101 34.2559 74.2801 33.7559 74.8201 33.4459C75.3601 33.1359 75.8301 33.0959 76.2401 33.3259C76.6401 33.5559 76.8501 33.9759 76.8501 34.5959V48.536ZM76.2401 27.286C75.8301 27.986 75.3601 28.4859 74.8201 28.7959C74.2801 29.1059 73.8101 29.146 73.4001 28.916C73.1501 28.776 72.9801 28.556 72.9001 28.266C72.8301 28.086 72.8001 27.886 72.8001 27.646C72.8001 27.026 73.0001 26.366 73.4001 25.666C73.5701 25.386 73.7401 25.136 73.9401 24.916C74.2001 24.596 74.5001 24.336 74.8201 24.156C75.3601 23.836 75.8301 23.796 76.2401 24.026C76.6401 24.266 76.8501 24.6859 76.8501 25.3059C76.8501 25.9259 76.6401 26.586 76.2401 27.286Z" class="pr-icon-iso-solid-stroke" stroke-linejoin="round"/>
    <path d="M76.8508 34.5957V48.5357C76.8508 49.1557 76.6408 49.8157 76.2408 50.5157C75.8308 51.2157 75.3608 51.7157 74.8208 52.0257C74.2808 52.3357 73.8108 52.3757 73.4008 52.1457C73.0008 51.9157 72.8008 51.4957 72.8008 50.8757V36.9356C72.8008 36.3156 73.0008 35.6557 73.4008 34.9557C73.8108 34.2557 74.2808 33.7557 74.8208 33.4457C75.3608 33.1357 75.8308 33.0957 76.2408 33.3257C76.6408 33.5557 76.8508 33.9757 76.8508 34.5957Z" class="pr-icon-iso-solid-stroke" stroke-linejoin="round"/>
    <path d="M76.8508 25.306C76.8508 25.926 76.6408 26.5861 76.2408 27.2861C75.8308 27.9861 75.3608 28.486 74.8208 28.796C74.2808 29.106 73.8108 29.1461 73.4008 28.9161C73.1508 28.7761 72.9808 28.5561 72.9008 28.2661C72.8308 28.0861 72.8008 27.8861 72.8008 27.6461C72.8008 27.0261 73.0008 26.3661 73.4008 25.6661C73.5708 25.3861 73.7408 25.1361 73.9408 24.9161C74.2008 24.5961 74.5008 24.3361 74.8208 24.1561C75.3608 23.8361 75.8308 23.7961 76.2408 24.0261C76.6408 24.2661 76.8508 24.686 76.8508 25.306Z" class="pr-icon-iso-solid-stroke" stroke-linejoin="round"/>
    <path d="M69.3704 88.776C68.6404 88.486 67.7504 88.636 66.7204 89.226L26.2404 112.596C25.0904 113.266 24.1304 114.266 23.3504 115.606C22.5704 116.936 22.1904 118.266 22.1904 119.586C22.1904 120.906 22.5704 121.776 23.3504 122.226L3.3504 112.226C2.5704 111.776 2.19043 110.896 2.19043 109.586C2.19043 108.276 2.5704 106.936 3.3504 105.606C4.1304 104.266 5.09042 103.266 6.24042 102.596L13.2204 98.5659L21.8404 102.886L23.3504 103.636C24.1304 104.086 25.0904 103.976 26.2404 103.306L58.3204 84.786C58.7704 84.526 59.1904 84.226 59.5704 83.876L69.3704 88.776Z" class="pr-icon-iso-solid-stroke" stroke-linejoin="round"/>
    <path d="M60.9704 75.0455C60.2404 74.7455 59.3504 74.8956 58.3204 75.4956L51.1204 79.6556L50.5204 79.9956L26.2404 94.0156C25.0904 94.6756 24.1304 95.6756 23.3504 97.0156C22.5704 98.3556 22.1904 99.6856 22.1904 100.996C22.1904 101.606 22.2704 102.116 22.4404 102.536C22.6304 103.036 22.9304 103.396 23.3504 103.636L21.8404 102.886L13.2204 98.5656L3.59039 93.7556L3.3504 93.6356C2.5704 93.1956 2.19043 92.3156 2.19043 90.9956C2.19043 89.6756 2.5704 88.3556 3.3504 87.0156C4.1304 85.6756 5.09042 84.6756 6.24042 84.0156L13.2204 79.9856L21.8404 84.2955L23.3504 85.0555C24.1304 85.4955 25.0904 85.3856 26.2404 84.7256L45.1604 73.7955C46.3104 73.1355 47.2704 72.1156 48.0504 70.7356C48.3904 70.1356 48.6504 69.5456 48.8404 68.9756L60.9704 75.0455Z" class="pr-icon-iso-solid-stroke" stroke-linejoin="round"/>
    <path d="M47.8104 64.0556C47.0804 63.7656 46.1904 63.9157 45.1604 64.5057L42.7104 65.9157L42.1204 66.2657L26.2404 75.4356C25.0904 76.0956 24.1304 77.0956 23.3504 78.4356C22.5704 79.7756 22.1904 81.0957 22.1904 82.4157C22.1904 83.0257 22.2704 83.5356 22.4404 83.9556C22.6304 84.4556 22.9304 84.8156 23.3504 85.0556L21.8404 84.2956L13.2204 79.9857L3.59039 75.1756L3.3504 75.0556C2.5704 74.6156 2.19043 73.7357 2.19043 72.4157C2.19043 71.0957 2.5704 69.7756 3.3504 68.4356C4.1304 67.0956 5.09042 66.0956 6.24042 65.4356L25.1604 54.5057C26.3104 53.8457 27.2704 53.7356 28.0504 54.1756L47.8104 64.0556Z" class="pr-icon-iso-solid-stroke" stroke-linejoin="round"/>
    <path d="M88.1501 12.8957C84.4601 11.2557 80.0701 11.8757 75.0201 14.7457C74.9501 14.7757 74.8901 14.8157 74.8201 14.8557C69.2201 18.0957 64.4501 23.1156 60.5001 29.9256C59.0001 32.5256 57.7901 35.0857 56.8501 37.6157C56.4001 38.8357 56.0201 40.0557 55.7001 41.2657C54.9501 44.1357 54.5801 46.9757 54.5801 49.7757C54.5801 50.3457 54.6001 50.8956 54.6301 51.4256C54.9401 56.9556 56.9001 60.7456 60.5001 62.7956L41.4901 53.2858L40.5001 52.7956C36.5501 50.5456 34.5801 46.2057 34.5801 39.7757C34.5801 33.3457 36.5501 26.7356 40.5001 19.9256C44.4501 13.1156 49.2201 8.0957 54.8201 4.8557C60.4201 1.6257 65.2001 1.13573 69.1401 3.38573L88.1501 12.8957Z" class="pr-icon-iso-solid-stroke" stroke-linejoin="round"/>
</svg>