<svg width="48" height="48" viewBox="0 0 87 122" xmlns="http://www.w3.org/2000/svg" stroke-width="1px"
     stroke-linecap="round" stroke-linejoin="round">
    <path d="M64.0703 38.1411L64.1403 38.1811V38.1011L64.0703 38.1411Z" class="pr-icon-iso-solid-stroke" stroke-linejoin="round"/>
    <path d="M80.23 13.2511L80.1 13.1811C79.22 12.8011 78.1801 12.6111 76.9901 12.6111C73.9701 12.6211 69.6901 13.9111 64.1401 16.4811C60.9301 17.9711 57.29 19.8811 53.23 22.2311C49.16 24.5811 45.52 26.8911 42.29 29.1711C37.01 32.8811 32.8401 36.5111 29.7601 40.0411C25.9001 44.4911 23.5501 49.0611 22.7001 53.7711C22.4501 55.1011 22.3301 56.4511 22.3301 57.8011V99.9211C22.3301 100.901 22.4 101.811 22.54 102.641C22.98 105.521 24.2201 107.541 26.2401 108.691C28.8501 110.181 32.05 109.821 35.85 107.631L29.5701 116.021C28.8001 117.061 28.54 118.041 28.8 118.961C28.9 119.301 29.04 119.541 29.23 119.671L29.42 119.771C29.73 119.881 30.1301 119.801 30.6301 119.511L75.8301 93.4111C76.8001 92.8511 77.41 91.9611 77.67 90.7411C77.87 89.7911 77.7601 89.1711 77.3401 88.8811L77.1 88.7511H77.0801C77.0301 88.7311 76.9701 88.7111 76.9001 88.7011L70.6201 87.5511C71.2301 87.2011 71.8201 86.8211 72.4001 86.4111C75.4301 84.2611 78.04 81.3011 80.23 77.5211C82.84 73.0211 84.1401 68.5911 84.1401 64.2311V22.1211C84.1401 17.4211 82.84 14.4611 80.23 13.2511ZM57.6801 79.3411C57.5801 79.5611 57.4601 79.7711 57.3401 79.9811C56.2101 81.9311 54.84 83.3611 53.23 84.2911C51.62 85.2211 50.2601 85.3611 49.1301 84.7211C48.0001 84.0811 47.4401 82.8411 47.4401 80.9911C47.4401 79.1411 48.0001 77.2511 49.1301 75.3011C50.2601 73.3611 51.62 71.9211 53.23 70.9911C54.84 70.0611 56.2101 69.9211 57.3401 70.5611C57.5501 70.6811 57.75 70.8311 57.92 71.0011C58.66 71.7011 59.03 72.8011 59.03 74.3011C59.03 75.9411 58.5801 77.6211 57.6801 79.3411ZM76.41 44.3111L64.1401 51.4011L38.86 65.9911L30.05 71.0811V57.7811L64.0701 38.1411L64.1401 38.1011L76.41 31.0111V44.3111Z" class="pr-icon-iso-solid-stroke" stroke-linejoin="round"/>
    <path d="M59.0294 74.3011C59.0294 75.9411 58.5794 77.6211 57.6794 79.3411C57.5794 79.5611 57.4595 79.7711 57.3395 79.9811C56.2095 81.9311 54.8394 83.3611 53.2294 84.2911C51.6194 85.2211 50.2595 85.3611 49.1295 84.7211C47.9995 84.0811 47.4395 82.8411 47.4395 80.9911C47.4395 79.1411 47.9995 77.2511 49.1295 75.3011C50.2595 73.3611 51.6194 71.9211 53.2294 70.9911C54.8394 70.0611 56.2095 69.9211 57.3395 70.5611C57.5495 70.6811 57.7494 70.8311 57.9194 71.0011C58.6594 71.7011 59.0294 72.8011 59.0294 74.3011Z" class="pr-icon-iso-solid-stroke" stroke-linejoin="round"/>
    <path d="M76.4098 44.3111L64.1398 51.4011L38.8598 65.9911L30.0498 71.0811V57.7811L64.0698 38.1411L64.1398 38.1811L76.4098 44.3111Z" class="pr-icon-iso-solid-stroke" stroke-linejoin="round"/>
    <path d="M76.4096 31.0111V44.3111L64.1396 38.1811V38.1011L76.4096 31.0111Z" class="pr-icon-iso-solid-stroke" stroke-linejoin="round"/>
    <path d="M29.5698 116.021C28.7998 117.061 28.5398 118.041 28.7998 118.961C28.8998 119.301 29.0398 119.541 29.2298 119.671L9.49981 109.801C9.16981 109.721 8.9298 109.441 8.7998 108.961C8.5398 108.041 8.79982 107.061 9.56982 106.021L12.6598 101.901L26.2398 108.691C28.8498 110.181 32.0498 109.821 35.8498 107.631L29.5698 116.021Z" class="pr-icon-iso-solid-stroke" stroke-linejoin="round"/>
    <path d="M80.1 13.1811C79.22 12.8011 78.1801 12.6111 76.9901 12.6111C73.9701 12.6211 69.6901 13.9111 64.1401 16.4811C60.9301 17.9711 57.29 19.8811 53.23 22.2311C49.16 24.5811 45.52 26.8911 42.29 29.1711C37.01 32.8811 32.8401 36.5111 29.7601 40.0411C25.9001 44.4911 23.5501 49.0611 22.7001 53.7711C22.4501 55.1011 22.3301 56.4511 22.3301 57.8011V99.9211C22.3301 100.901 22.4 101.811 22.54 102.641C22.98 105.521 24.2201 107.541 26.2401 108.691L12.66 101.901L6.80005 98.9711L6.24005 98.6911C3.63005 97.2011 2.33008 94.2811 2.33008 89.9211V47.8011C2.33008 41.6711 4.81007 35.7511 9.76007 30.0411C14.7201 24.3411 22.54 18.4011 33.23 12.2311C44.31 5.83109 52.2301 2.63109 56.9901 2.61109C58.4301 2.60109 59.6501 2.89109 60.6501 3.47109L60.78 3.54109L80.1 13.1811Z" class="pr-icon-iso-solid-stroke" stroke-linejoin="round"/>
    <path d="M77.0801 88.7511C77.0301 88.7311 76.9701 88.7111 76.9001 88.7011L70.6201 87.5511C71.2301 87.2011 71.8201 86.8211 72.4001 86.4111L77.0801 88.7511Z" class="pr-icon-iso-solid-stroke" stroke-linejoin="round"/>
    <path d="M77.0801 88.7511H77.1L77.3401 88.8811" class="pr-icon-iso-solid-stroke" stroke-linejoin="round"/>
</svg>