<svg width="48" height="48" viewBox="0 0 95 131" fill="#229EFF" xmlns="http://www.w3.org/2000/svg" stroke-width="1px" stroke-linecap="round" stroke-linejoin="round"><path d="M89.17 88.37C89.17 89.84 88.7401 91.33 87.8701 92.82C87.0101 94.32 85.9301 95.44 84.6501 96.18L30.35 127.52C29.07 128.26 28.0001 128.39 27.1301 127.89C26.2601 127.4 25.8301 126.41 25.8301 124.94C25.8301 123.47 26.2601 121.99 27.1301 120.49C28.0001 119 29.07 117.88 30.35 117.14L84.6501 85.79C85.8001 85.12 86.79 84.96 87.61 85.29L87.8701 85.4199C88.7401 85.9199 89.17 86.9 89.17 88.37Z" stroke="white" stroke-linejoin="round"/><path d="M87.61 85.2901C86.79 84.9601 85.8001 85.1201 84.6501 85.7901L30.35 117.14C29.07 117.88 28.0001 119 27.1301 120.49C26.2601 121.99 25.8301 123.47 25.8301 124.94C25.8301 126.41 26.2601 127.4 27.1301 127.89L7.40009 118.02L7.13007 117.89C6.26007 117.4 5.83008 116.41 5.83008 114.94C5.83008 113.47 6.26007 111.99 7.13007 110.49C8.00007 109 9.07004 107.88 10.35 107.14L36.2601 92.18L43.2501 95.68C44.1501 96.19 45.21 96.1001 46.42 95.4001C47.62 94.7101 48.6801 93.58 49.5801 92.02L56.1401 80.7L64.6501 75.7901C65.9301 75.0501 67.0101 74.93 67.8701 75.42L87.61 85.2901Z" stroke="white" stroke-linejoin="round"/><path d="M92.45 15.93C92.45 17.36 92 18.85 91.1 20.41L56.14 80.7L49.58 92.02C48.68 93.58 47.62 94.71 46.42 95.4C45.21 96.1 44.15 96.19 43.25 95.68L36.68 91.94L25.77 85.71L23.91 84.65C23 84.13 22.57 83.15 22.61 81.7C22.64 80.25 23.11 78.74 24.02 77.18C24.92 75.62 26 74.48 27.24 73.77C28.36 73.12 29.34 72.98 30.18 73.32L30.47 73.46L33.52 75.22L46.42 82.68L84.65 16.74C85.55 15.18 86.63 14.04 87.87 13.32C88.99 12.68 89.96 12.53 90.81 12.88L91.1 13.02C92 13.53 92.45 14.5 92.45 15.93Z" stroke="white" stroke-linejoin="round"/><path d="M90.81 12.88C89.96 12.53 88.99 12.68 87.87 13.32C86.63 14.04 85.55 15.18 84.65 16.74L46.42 82.68L33.52 75.22L30.47 73.46L30.18 73.32L26.98 71.71L64.65 6.73997C65.55 5.17997 66.63 4.03997 67.87 3.31997C69.12 2.59997 70.19 2.49997 71.1 3.01997L90.81 12.88Z" stroke="white" stroke-linejoin="round"/><path d="M43.25 95.6799L36.26 92.1799L23.54 85.8199L23.25 85.6799L3.90996 74.6499C2.99996 74.1299 2.56997 73.1499 2.60997 71.6999C2.63997 70.2499 3.11001 68.7399 4.02001 67.1799C4.92001 65.6199 5.99998 64.4799 7.23998 63.7699C8.48998 63.0499 9.55996 62.9499 10.47 63.4599L26.98 71.7099L30.18 73.3199C29.34 72.9799 28.36 73.1199 27.24 73.7699C26 74.4799 24.92 75.6199 24.02 77.1799C23.11 78.7399 22.64 80.2499 22.61 81.6999C22.57 83.1499 23 84.1299 23.91 84.6499L25.77 85.7099L36.68 91.9399L43.25 95.6799Z" stroke="white" stroke-linejoin="round"/></svg>