<svg width="48" height="48" viewBox="0 0 106 103" fill="#229EFF" xmlns="http://www.w3.org/2000/svg" stroke-width="1px" stroke-linecap="round" stroke-linejoin="round"><path d="M100.155 35.1769C98.135 32.8669 95.1149 30.5669 91.0849 28.2769C90.1449 27.7369 89.2748 27.0669 88.4748 26.2569C87.6648 25.4569 86.8549 24.5169 86.0549 23.4369C84.5749 21.5969 83.015 19.7069 81.375 17.7669C80.005 16.1769 78.4149 14.8869 76.5649 13.9269L75.865 13.5769C75.685 13.4969 75.5149 13.4069 75.3249 13.3369C72.9449 12.3269 70.1049 11.9769 66.8149 12.2969C66.3349 12.3469 65.8349 12.4169 65.3149 12.5269C62.3249 13.0969 58.8048 14.5569 54.7348 16.9069C44.5248 22.7969 36.585 31.5069 30.915 43.0169C25.245 54.5369 22.475 66.6969 22.605 79.4869C22.645 83.5269 23.1249 86.9269 24.0449 89.6569C24.5649 91.2069 25.2249 92.5569 26.0349 93.6869C27.5249 95.7769 29.2548 97.3669 31.2148 98.4369L32.0749 98.8669C32.7649 99.1869 33.4848 99.4369 34.2348 99.6369C37.4948 100.487 40.975 100.447 44.665 99.5069C48.355 98.5769 51.7148 97.2269 54.7348 95.4869C56.5448 94.4369 58.0448 94.1569 59.2148 94.6369C60.3948 95.1069 61.615 95.7469 62.895 96.5569C64.505 97.5469 66.4649 98.2469 68.7849 98.6469C71.0949 99.0369 74.5049 97.9369 79.0049 95.3469C85.1149 91.8169 90.665 85.5469 95.675 76.5369C100.675 67.5169 103.175 58.3869 103.175 49.1469C103.175 42.1369 102.165 37.4769 100.155 35.1769ZM72.865 64.1069C70.105 68.8569 66.785 72.3469 62.895 74.5969C58.995 76.8469 55.675 77.1869 52.925 75.6169C50.165 74.0469 48.7949 71.0269 48.7949 66.5569C48.7949 63.6269 49.3849 60.6369 50.5749 57.5869C51.1949 55.9869 51.975 54.3669 52.925 52.7369C53.655 51.4869 54.4148 50.3169 55.2148 49.2369C57.4648 46.2269 60.025 43.8969 62.895 42.2469C66.785 39.9969 70.105 39.6569 72.865 41.2269C75.615 42.7969 76.9949 45.8169 76.9949 50.2769C76.9949 54.7369 75.615 59.3569 72.865 64.1069Z" stroke="white" stroke-linejoin="round"/><path d="M76.9949 50.2769C76.9949 54.7469 75.615 59.3569 72.865 64.1069C70.105 68.8569 66.785 72.3469 62.895 74.5969C58.995 76.8469 55.675 77.1869 52.925 75.6169C50.165 74.0469 48.7949 71.0269 48.7949 66.5569C48.7949 63.6269 49.385 60.6369 50.575 57.5869C51.375 56.5169 52.145 55.3569 52.865 54.1069C53.815 52.4669 54.6048 50.8469 55.2148 49.2369C57.4648 46.2269 60.025 43.8969 62.895 42.2469C66.785 39.9969 70.105 39.6569 72.865 41.2269C75.615 42.7969 76.9949 45.8169 76.9949 50.2769Z" stroke="white" stroke-linejoin="round"/><path d="M78.085 14.687L76.5649 13.927" stroke="white" stroke-linejoin="round"/><path d="M32.5552 99.107L32.0752 98.8669" stroke="white" stroke-linejoin="round"/><path d="M75.865 13.5769C75.685 13.4969 75.5149 13.4069 75.3249 13.3369C72.9449 12.3269 70.1049 11.9769 66.8149 12.2969C66.3349 12.3469 65.8349 12.4169 65.3149 12.5269C62.3249 13.0969 58.8048 14.5569 54.7348 16.9069C44.5248 22.7969 36.585 31.5069 30.915 43.0169C25.245 54.5369 22.475 66.6969 22.605 79.4869C22.645 83.5269 23.1249 86.9269 24.0449 89.6569C24.5649 91.2069 25.2249 92.5569 26.0349 93.6869C27.5249 95.7769 29.2548 97.3669 31.2148 98.4369L12.0849 88.8669L11.8349 88.7469C9.60494 87.6769 7.67489 85.9969 6.03489 83.6869C3.81489 80.5769 2.67496 75.8369 2.60496 69.4869C2.47496 56.6969 5.24502 44.5369 10.915 33.0169C16.585 21.5069 24.5248 12.7969 34.7348 6.90689C39.5048 4.15689 43.5249 2.61689 46.8149 2.29689C50.1049 1.97689 52.9449 2.32689 55.3249 3.33689C55.3649 3.35689 55.4148 3.37688 55.4648 3.39688L57.0449 4.18689L75.865 13.5769Z" stroke="white" stroke-linejoin="round"/></svg>