<svg width="48" height="48" viewBox="0 0 92 104" fill="#229EFF" xmlns="http://www.w3.org/2000/svg" stroke-width="1px" stroke-linecap="round" stroke-linejoin="round"><path d="M89.4607 36.1606C89.4607 38.7706 88.6707 41.4206 87.1007 44.1206C85.5407 46.8206 83.6207 48.8306 81.3507 50.1406V58.1406L61.3507 46.7406L38.7207 33.8406L45.7007 29.8106C45.7007 27.2106 46.4807 24.5606 48.0507 21.8506C49.6107 19.1506 51.5307 17.1406 53.8007 15.8306C55.8307 14.6506 57.5907 14.3606 59.0607 14.9706L59.5507 15.2106C60.3607 15.6706 60.9607 16.3606 61.3507 17.2706C61.7207 18.1306 61.9107 19.2006 61.9107 20.4606L74.8707 12.9706C76.4707 12.0506 77.8607 11.8306 79.0507 12.3106L79.4507 12.5106C80.7207 13.2406 81.3507 14.6206 81.3507 16.6706V31.5506C83.3907 30.3706 85.1507 30.0806 86.6207 30.6806L87.1007 30.9206C88.6707 31.8106 89.4607 33.5606 89.4607 36.1606Z" stroke="white" stroke-linejoin="round"/><path d="M83.9403 71.7006C83.9403 72.7006 83.6204 73.7506 82.9704 74.8706C82.3204 75.9906 81.5504 76.8106 80.6604 77.3206C79.7704 77.8406 79.0004 77.9106 78.3504 77.5406L75.4104 75.8606C75.2304 75.9906 75.0503 76.0906 74.8703 76.2006L62.5503 83.3206C62.5503 80.3406 61.7304 78.2106 60.0804 76.9306C58.4404 75.6506 56.3403 75.7406 53.8003 77.2106C53.2903 77.5006 52.7903 77.8306 52.3203 78.2006C50.4303 79.6406 48.8404 81.6406 47.5204 84.1806C45.8704 87.3706 45.0503 90.4406 45.0503 93.4206L32.7303 100.531C30.9503 101.561 29.4204 101.711 28.1504 100.991C26.8804 100.271 26.2403 98.8806 26.2403 96.8406V82.7006C28.8403 81.2006 31.1103 78.9506 33.0503 75.9306C35.0003 72.9206 35.9704 69.9606 35.9704 67.0506C35.9704 66.7806 35.9603 66.5206 35.9403 66.2706C35.7803 63.8006 34.8203 62.2206 33.0503 61.5206C31.1103 60.7506 28.8403 61.1206 26.2403 62.6106V48.4806C26.2403 48.3006 26.2404 48.1206 26.2704 47.9306L23.2503 46.2106C22.6003 45.8406 22.2903 45.1406 22.3203 44.1006C22.3503 43.0706 22.6804 41.9806 23.3304 40.8706C23.9804 39.7506 24.7504 38.9306 25.6404 38.4206C25.6704 38.4006 25.7103 38.3806 25.7403 38.3706C26.5003 37.9506 27.1603 37.8606 27.7403 38.1006L27.9503 38.2006L82.9704 69.6606C83.6204 70.0406 83.9403 70.7106 83.9403 71.7006Z" stroke="white" stroke-linejoin="round"/><path d="M59.0602 14.9707C57.5902 14.3607 55.8302 14.6507 53.8002 15.8307C51.5302 17.1407 49.6102 19.1507 48.0502 21.8507C46.4802 24.5607 45.7002 27.2107 45.7002 29.8107L25.7002 19.8107C25.7002 17.2107 26.4802 14.5607 28.0502 11.8507C29.6102 9.15069 31.5302 7.14068 33.8002 5.83068C36.0602 4.52068 37.9902 4.31069 39.5502 5.21069L45.6902 8.28068L59.0602 14.9707Z" stroke="white" stroke-linejoin="round"/><path d="M45.7007 29.8107L38.7207 33.8407L18.7207 23.8407L25.7007 19.8107L45.7007 29.8107Z" stroke="white" stroke-linejoin="round"/><path d="M28.1503 100.991L8.15027 90.9907C6.88027 90.2707 6.24023 88.8807 6.24023 86.8407V72.7007L25.1102 82.1307L26.2402 82.7007V96.8407C26.2402 98.8807 26.8803 100.271 28.1503 100.991Z" stroke="white" stroke-linejoin="round"/><path d="M26.2703 47.9307C26.2503 48.1207 26.2402 48.3007 26.2402 48.4807V62.6107L6.24023 52.6107V38.4807C6.24023 38.3007 6.24026 38.1207 6.27026 37.9307L26.2703 47.9307Z" stroke="white" stroke-linejoin="round"/><path d="M79.0504 12.3106C77.8604 11.8306 76.4704 12.0506 74.8704 12.9706L61.9105 20.4606C61.9105 19.2006 61.7205 18.1306 61.3505 17.2706C60.9605 16.3606 60.3604 15.6706 59.5504 15.2106L59.0604 14.9706L45.6904 8.28064L54.8704 2.97064C56.6504 1.94064 58.1804 1.79065 59.4504 2.51065L79.0504 12.3106Z" stroke="white" stroke-linejoin="round"/><path d="M86.6205 30.6807C85.1505 30.0807 83.3906 30.3707 81.3506 31.5507V28.0507L86.6205 30.6807Z" stroke="white" stroke-linejoin="round"/><path d="M81.3507 58.1406L61.3507 48.1406L18.7207 23.8406L38.7207 33.8406L61.3507 46.7406L81.3507 58.1406Z" stroke="white" stroke-linejoin="round"/><path d="M23.3304 40.8706C22.6804 41.9806 22.3503 43.0706 22.3203 44.1006C22.2903 45.1406 22.6003 45.8406 23.2503 46.2106L26.2704 47.9306L6.27036 37.9306L3.25034 36.2106C2.60034 35.8406 2.29034 35.1406 2.32034 34.1006C2.35034 33.0706 2.68035 31.9806 3.33035 30.8706C3.98035 29.7506 4.75035 28.9306 5.64035 28.4206C6.53035 27.9006 7.30035 27.8306 7.95035 28.2006L27.7403 38.1006C27.1603 37.8606 26.5003 37.9506 25.7403 38.3706C25.7103 38.3806 25.6704 38.4006 25.6404 38.4206C24.7504 38.9306 23.9804 39.7506 23.3304 40.8706Z" stroke="white" stroke-linejoin="round"/><path d="M35.9703 67.0507C35.9703 69.9607 35.0002 72.9207 33.0502 75.9307C31.1102 78.9507 28.8402 81.2007 26.2402 82.7007L25.1102 82.1307L6.24023 72.7007C8.84023 71.2007 11.1102 68.9507 13.0502 65.9307C14.9102 63.0707 15.8703 60.2507 15.9603 57.4707L26.2402 62.6107C28.8402 61.1207 31.1102 60.7507 33.0502 61.5207C34.8202 62.2207 35.7802 63.8007 35.9402 66.2707C35.9602 66.5207 35.9703 66.7807 35.9703 67.0507Z" stroke="white" stroke-linejoin="round"/><path d="M62.5503 83.3206L52.3203 78.2006C52.7903 77.8306 53.2903 77.5006 53.8003 77.2106C56.3403 75.7406 58.4403 75.6506 60.0803 76.9306C61.7303 78.2106 62.5503 80.3406 62.5503 83.3206Z" stroke="white" stroke-linejoin="round"/></svg>