<svg width="24" height="24" viewBox="0 0 122 107" xmlns="http://www.w3.org/2000/svg" stroke-width="1px" stroke-linecap="round" stroke-linejoin="round">
    <path d="M117.95 12.7379L117.69 12.6079C116.9 12.2879 115.94 12.4479 114.82 13.0879L93.5701 25.3579L90.5601 27.0979C88.4601 28.3179 86.4699 29.8479 84.5999 31.7079C83.5999 32.6879 82.64 33.7579 81.72 34.9179C79.05 38.2679 76.9399 41.9379 75.4099 45.9279L66.51 51.0678C65.55 49.6778 64.37 48.6679 62.97 48.0479L62.8301 47.9779C62.5101 47.8579 62.1999 47.7479 61.8499 47.6479C61.3299 47.4979 60.78 47.3979 60.2 47.3379C57.53 47.0779 54.5799 47.8779 51.3599 49.7379L40.52 55.9979L26.98 63.808C25.74 64.528 24.6999 65.608 23.8499 67.058C23.0099 68.518 22.5898 69.9579 22.5898 71.3779C22.5898 72.7979 23.0099 73.7679 23.8499 74.2479C24.6999 74.7279 25.74 74.6079 26.98 73.8879L27.9299 82.0279L29.04 91.4579L29.29 93.5979C29.83 98.3279 31.6099 101.558 34.6599 103.278L35.5999 103.748C39.2299 105.308 43.45 104.698 48.29 101.908C52.46 99.4979 56.21 95.9479 59.54 91.2479C62.87 86.5579 65.19 81.5579 66.51 76.2679L67.75 71.2079L68.1599 69.5179C68.2699 69.0179 68.38 68.4979 68.49 67.9779C68.52 67.7979 68.5599 67.618 68.5999 67.438C68.7499 66.718 68.89 65.8179 69.04 64.7279L72.77 62.5678C72.92 63.6578 73.06 64.4779 73.21 65.0279C73.29 65.2979 73.3599 65.5679 73.4299 65.8379C73.4999 66.0979 73.5799 66.3479 73.6499 66.5979L75.3 71.3178C76.27 74.1278 77.8099 76.1179 79.9099 77.2779L80.25 77.4478C80.87 77.7678 81.55 78.018 82.27 78.188C85.6 78.998 89.35 78.1979 93.52 75.7879C98.35 72.9979 102.58 68.7279 106.21 62.9879C109.83 57.2379 111.93 51.4279 112.52 45.5479L114.82 23.1679C116.07 22.4579 117.11 21.3679 117.95 19.9179C118.8 18.4679 119.22 17.0279 119.22 15.5979C119.22 14.1679 118.8 13.2179 117.95 12.7379ZM60.45 67.558C60.35 68.678 60.1301 69.888 59.8101 71.188L58.1699 77.9279C57.4399 80.7879 56.1699 83.4979 54.3799 86.0379C52.5899 88.5879 50.55 90.5179 48.29 91.8279C45.65 93.3479 43.3599 93.6579 41.4199 92.7679C39.4799 91.8679 38.33 90.0579 37.96 87.3279L37.5701 83.8279L36.3301 72.7779L35.8799 68.7479L38.3101 67.3479L47.55 62.0179L51.3599 59.8178C52.4399 59.1878 53.4399 58.7979 54.3599 58.6379C56.2299 58.3079 57.7599 58.9379 58.9399 60.5379C60.2099 62.2679 60.71 64.608 60.45 67.558ZM103.84 49.2879C103.48 52.4479 102.33 55.5879 100.39 58.7279C98.4499 61.8579 96.16 64.1879 93.52 65.7079C91.25 67.0179 89.2199 67.4379 87.4299 66.9579C85.6399 66.4879 84.3699 65.2379 83.6399 63.2279L82.1299 58.5279L82.0999 58.438C80.9299 55.088 81.23 51.1779 82.98 46.7179C84.74 42.2679 87.2601 39.0879 90.5601 37.1779L92.46 36.0879L105.93 28.308L103.84 49.2879Z" class="pr-icon-iso-solid-stroke" stroke-linejoin="round"/>
    <path d="M105.93 28.308L103.84 49.288C103.48 52.448 102.33 55.5879 100.39 58.7279C98.4501 61.8579 96.1602 64.1879 93.5202 65.7079C91.2502 67.0179 89.2201 67.4379 87.4301 66.9579C85.6401 66.4879 84.3701 65.2379 83.6401 63.2279L82.1301 58.528L82.1 58.438C80.93 55.088 81.2302 51.1779 82.9802 46.7179C84.7402 42.2679 87.2602 39.088 90.5602 37.178L92.4601 36.0879L105.93 28.308Z" class="pr-icon-iso-solid-stroke" stroke-linejoin="round"/>
    <path d="M79.9099 77.278L67.75 71.2079L68.1599 69.5179C68.2699 69.0179 68.38 68.4979 68.49 67.9779C68.52 67.7979 68.5599 67.618 68.5999 67.438C68.7499 66.718 68.89 65.8179 69.04 64.7279L72.77 62.5679C72.92 63.6579 73.06 64.478 73.21 65.028C73.29 65.298 73.3599 65.5679 73.4299 65.8379C73.4999 66.0979 73.5799 66.3479 73.6499 66.5979L75.3 71.3179C76.27 74.1279 77.8099 76.118 79.9099 77.278Z" class="pr-icon-iso-solid-stroke" stroke-linejoin="round"/>
    <path d="M60.45 67.5579C60.35 68.6779 60.1301 69.8879 59.8101 71.1879L58.1699 77.9279C57.4399 80.7879 56.1699 83.4979 54.3799 86.0379C52.5899 88.5879 50.55 90.5178 48.29 91.8278C45.65 93.3478 43.3599 93.6579 41.4199 92.7679C39.4799 91.8679 38.33 90.0578 37.96 87.3278L37.5701 83.8278L36.3301 72.7779C37.1301 71.2179 37.7399 69.5979 38.1699 67.9279L38.3101 67.3478L47.55 62.0179L51.3599 59.8178C52.4399 59.1878 53.4399 58.7979 54.3599 58.6379C56.2299 58.3079 57.7599 58.9379 58.9399 60.5379C60.2099 62.2679 60.71 64.6079 60.45 67.5579Z" class="pr-icon-iso-solid-stroke" stroke-linejoin="round"/>
    <path d="M75.4099 45.928L66.51 51.0679C65.55 49.6779 64.37 48.668 62.97 48.048L62.8301 47.9779L61.8 47.4679L47.6699 40.3979L55.4099 35.928L62.1199 39.288L75.4099 45.928Z" class="pr-icon-iso-solid-stroke" stroke-linejoin="round"/>
    <path d="M61.8499 47.6479C61.3299 47.4979 60.78 47.3979 60.2 47.3379C57.53 47.0779 54.5799 47.8779 51.3599 49.7379L40.52 55.9979L26.98 63.808C25.74 64.528 24.6999 65.608 23.8499 67.058C23.0099 68.518 22.5898 69.9579 22.5898 71.3779C22.5898 72.7979 23.0099 73.7679 23.8499 74.2479L17.25 70.9479L7.21997 65.938L4.10986 64.3779L3.84985 64.2479C3.00985 63.7679 2.58984 62.8079 2.58984 61.3779C2.58984 59.9479 3.00985 58.518 3.84985 57.058C4.69985 55.608 5.73998 54.528 6.97998 53.808L31.3599 39.7379C34.5799 37.8779 37.53 37.0779 40.2 37.3379C41.22 37.4379 42.16 37.6778 43.01 38.0678L43.48 38.308L47.6699 40.3979L61.8 47.4679C61.82 47.5279 61.8399 47.5879 61.8499 47.6479Z" class="pr-icon-iso-solid-stroke" stroke-linejoin="round"/>
    <path d="M117.69 12.6079C116.9 12.2879 115.94 12.4478 114.82 13.0878L93.5703 25.3579L90.5603 27.0979C88.4603 28.3179 86.4701 29.8478 84.6001 31.7078C83.6001 32.6878 82.6402 33.7579 81.7202 34.9179C79.0502 38.2679 76.9402 41.9379 75.4102 45.9279L62.1201 39.2879L55.4102 35.9279C56.9402 31.9379 59.0502 28.2679 61.7202 24.9179C64.3902 21.5679 67.3403 18.9579 70.5603 17.0979L94.8203 3.08785C96.0703 2.37785 97.1102 2.25787 97.9502 2.73787L117.69 12.6079Z" class="pr-icon-iso-solid-stroke" stroke-linejoin="round"/>
    <path d="M63.3396 48.2379L62.9697 48.048" class="pr-icon-iso-solid-stroke" stroke-linejoin="round"/>
    <path d="M34.6597 103.278L15.5996 93.7479C11.9796 92.1879 9.87979 88.7979 9.28979 83.5979L7.21973 65.938L17.2498 70.9479L23.8496 74.2479C24.6996 74.7279 25.7397 74.6079 26.9797 73.8879L27.9297 82.028L29.0398 91.4579L29.2898 93.5979C29.8298 98.3279 31.6097 101.558 34.6597 103.278Z" class="pr-icon-iso-solid-stroke" stroke-linejoin="round"/>
</svg>