<svg width="24" height="24" viewBox="0 0 84 111" xmlns="http://www.w3.org/2000/svg" stroke-width="1px" stroke-linecap="round" stroke-linejoin="round">
    <path d="M32.2596 42.0798V98.7798C32.2596 100.39 31.7797 102.01 30.8397 103.64C29.8897 105.27 28.7196 106.49 27.3196 107.3C25.9196 108.11 24.7396 108.25 23.7896 107.71C22.8496 107.17 22.3696 106.09 22.3696 104.49V47.7798C22.3696 46.1798 22.8496 44.5598 23.7896 42.9198C24.7396 41.2898 25.9196 40.0698 27.3196 39.2598C28.5796 38.5298 29.6496 38.3498 30.5496 38.7198L30.8397 38.8598C31.7797 39.3998 32.2596 40.4698 32.2596 42.0798Z" class="pr-icon-iso-solid-stroke" stroke-linejoin="round"/>
    <path d="M81.5497 68.0498C81.5497 69.6598 81.0997 71.2398 80.1897 72.8098C79.2797 74.3698 78.1297 75.5498 76.7297 76.3598C75.3297 77.1698 74.1797 77.3198 73.2697 76.7998L55.7697 66.8198L50.5397 63.8398C50.0497 63.5598 49.6997 63.1498 49.4897 62.5998C49.2797 62.0598 49.1797 61.4098 49.1797 60.6598C49.1797 59.9098 49.2797 59.1298 49.4897 58.3498C49.6997 57.5698 50.0497 56.7498 50.5397 55.8998L53.3897 50.9898L73.2697 16.6998C74.1797 15.1298 75.3297 13.9498 76.7297 13.1398C77.9897 12.4098 79.0497 12.2198 79.9197 12.5698L80.1897 12.6998C81.0997 13.2198 81.5497 14.2798 81.5497 15.8898C81.5497 17.4998 81.0997 19.0798 80.1897 20.6398L60.9197 53.8798L80.1897 64.8698C81.0997 65.3798 81.5497 66.4498 81.5497 68.0498Z" class="pr-icon-iso-solid-stroke" stroke-linejoin="round"/>
    <path d="M79.9197 12.5698C79.0497 12.2198 77.9897 12.4098 76.7297 13.1398C75.3297 13.9498 74.1798 15.1298 73.2698 16.6998L53.3898 50.9898L50.5397 55.8998C50.0497 56.7498 49.6997 57.5698 49.4897 58.3498C49.2797 59.1298 49.1797 59.8998 49.1797 60.6598C49.1797 61.4198 49.2797 62.0598 49.4897 62.5998C49.6997 63.1498 50.0497 63.5598 50.5397 63.8398L55.7698 66.8198L73.2698 76.7998L53.5397 66.9298L53.2698 66.7998L32.2598 54.8198V42.9298L53.2698 6.69976C54.1798 5.12976 55.3297 3.94976 56.7297 3.13976C58.1297 2.32976 59.2798 2.17976 60.1898 2.69976L79.9197 12.5698Z" class="pr-icon-iso-solid-stroke" stroke-linejoin="round"/>
    <path d="M30.5496 38.7197C29.6496 38.3497 28.5796 38.5297 27.3196 39.2597C25.9196 40.0697 24.7396 41.2897 23.7896 42.9197C22.8496 44.5597 22.3696 46.1797 22.3696 47.7797V104.49C22.3696 106.09 22.8496 107.17 23.7896 107.71L4.07965 97.8497L3.78961 97.7097C2.84961 97.1697 2.36963 96.0897 2.36963 94.4897V37.7797C2.36963 36.1797 2.84961 34.5597 3.78961 32.9197C4.73961 31.2897 5.91964 30.0697 7.31964 29.2597C8.71964 28.4497 9.88966 28.3197 10.8397 28.8597L30.5496 38.7197Z" class="pr-icon-iso-solid-stroke" stroke-linejoin="round"/>
</svg>