<svg width="24" height="24" viewBox="0 0 94 118" xmlns="http://www.w3.org/2000/svg" stroke-width="1px" stroke-linecap="round" stroke-linejoin="round">
    <path d="M90.0901 70.5198L89.8701 70.4098C89.1801 70.1298 88.3401 70.2598 87.3701 70.8298L26.1501 106.17C25.0701 106.8 24.1601 107.74 23.4301 109.01C22.6901 110.27 22.3301 111.53 22.3301 112.77C22.3301 114.01 22.6901 114.84 23.4301 115.26C24.1601 115.68 25.0701 115.58 26.1501 114.95L87.3701 79.6098C88.4501 78.9798 89.3601 78.0398 90.0901 76.7698C90.8301 75.5098 91.1901 74.2498 91.1901 73.0098C91.1901 71.7698 90.8301 70.9298 90.0901 70.5198Z" class="pr-icon-iso-solid-stroke" stroke-linejoin="round"/>
    <path d="M91.1901 46.7799C91.1901 49.3399 90.2901 52.1099 88.4701 55.0999C86.6501 58.0899 84.4401 59.9399 81.8201 60.6399L74.1801 62.5599L71.1801 63.3199L56.7601 66.9499L27.8801 74.2299C26.8101 74.4699 25.8801 74.4299 25.0701 74.1199L24.4201 73.7899C24.2201 73.6699 24.0401 73.5199 23.8601 73.3599C22.8401 72.4099 22.3301 70.9499 22.3301 68.9799V49.5499C22.3301 48.0899 22.8401 46.6199 23.8601 45.1499C24.8801 43.6899 26.0301 42.7699 27.3001 42.3999L29.5001 41.7899C30.1401 41.6399 30.7001 41.6599 31.1801 41.8599C31.6501 42.0599 31.9901 42.4699 32.1801 43.0899L36.1001 53.8899L49.3001 50.5499L47.4201 30.8199L46.6201 22.3499C46.4301 20.5599 46.9901 18.6799 48.3001 16.7199C49.6001 14.7599 51.0501 13.6099 52.6501 13.2799L54.6601 12.7799C55.2401 12.6199 55.7601 12.6399 56.2401 12.8199L56.5201 12.9599C57.0601 13.2699 57.4601 13.7499 57.7201 14.4099L64.1501 31.9099L68.8001 44.5499L69.2001 45.6499L85.6501 41.5299C86.7901 41.2899 87.7901 41.3699 88.6501 41.7799C89.0001 41.9399 89.3201 42.1599 89.6201 42.4199C90.6701 43.3499 91.1901 44.7999 91.1901 46.7799Z" class="pr-icon-iso-solid-stroke" stroke-linejoin="round"/>
    <path d="M31.1801 41.8601C30.7001 41.6601 30.1401 41.6401 29.5001 41.7901L27.3001 42.4001C26.0301 42.7701 24.8801 43.6901 23.8601 45.1501C22.8401 46.6201 22.3301 48.0901 22.3301 49.5501V68.9801C22.3301 70.9501 22.8401 72.4101 23.8601 73.3601C24.0401 73.5201 24.2201 73.6701 24.4201 73.7901L4.86011 64.0301L4.68011 63.94C4.39011 63.79 4.11011 63.6001 3.86011 63.3601C2.84011 62.4101 2.33008 60.9501 2.33008 58.9801V39.5501C2.33008 38.0901 2.84011 36.6201 3.86011 35.1501C4.88011 33.6901 6.03011 32.7701 7.30011 32.4001L9.50006 31.7901C10.1401 31.6401 10.7001 31.6601 11.1801 31.8601L28.8001 40.6701H28.8101L31.1801 41.8601Z" class="pr-icon-iso-solid-stroke" stroke-linejoin="round"/>
    <path d="M49.3005 50.55L36.1005 53.89L32.1805 43.09C31.9905 42.47 31.6505 42.06 31.1805 41.86L28.8105 40.67L29.3005 40.55L49.3005 50.55Z" class="pr-icon-iso-solid-stroke" stroke-linejoin="round"/>
    <path d="M88.6504 41.78C87.7904 41.37 86.7904 41.29 85.6504 41.53L69.2004 45.65L68.8004 44.5501L64.1504 31.91L65.6504 31.53C66.8504 31.27 67.8904 31.38 68.7804 31.85L69.0104 31.97L88.6504 41.78Z" class="pr-icon-iso-solid-stroke" stroke-linejoin="round"/>
    <path d="M56.2401 12.8199C55.7601 12.6399 55.2401 12.6199 54.6601 12.7799L52.6501 13.2799C51.0501 13.6099 49.6001 14.7599 48.3001 16.7199C46.9901 18.6799 46.4301 20.5599 46.6201 22.3499L47.4201 30.8199L49.3001 50.55L29.3001 40.55L26.6201 12.3499C26.4301 10.5599 26.9901 8.67994 28.3001 6.71994C29.6001 4.75994 31.0501 3.60993 32.6501 3.27993L34.6601 2.77993C35.3601 2.58993 35.98 2.64993 36.52 2.95993L56.2401 12.8199Z" class="pr-icon-iso-solid-stroke" stroke-linejoin="round"/>
    <path d="M90.0901 70.5199L89.8701 70.4099" class="pr-icon-iso-solid-stroke" stroke-linejoin="round"/>
    <path d="M89.8701 70.41C89.1801 70.13 88.3401 70.26 87.3701 70.83L26.1501 106.17C25.0701 106.8 24.1601 107.74 23.4301 109.01C22.6901 110.27 22.3301 111.53 22.3301 112.77C22.3301 114.01 22.6901 114.84 23.4301 115.26L3.65009 105.37L3.43011 105.26C2.69011 104.84 2.33008 104.01 2.33008 102.77C2.33008 101.53 2.69011 100.27 3.43011 99.01C4.16011 97.74 5.07009 96.8 6.15009 96.17L56.7601 66.95L71.1801 63.32L74.1801 62.5601L89.8701 70.41Z" class="pr-icon-iso-solid-stroke" stroke-linejoin="round"/>
</svg>