<svg width="24" height="24" viewBox="0 0 89 115" xmlns="http://www.w3.org/2000/svg" stroke-width="1px" stroke-linecap="round" stroke-linejoin="round">
    <path d="M86.1401 40.0402V53.9102C86.1401 64.0002 83.0802 74.3402 76.9402 84.9202C70.8102 95.5102 63.34 103.34 54.54 108.42C45.74 113.5 38.2701 114.29 32.1401 110.79C28.8701 108.92 26.4702 106.12 24.9602 102.38C23.6102 99.1002 22.9402 95.1102 22.9402 90.4002V49.8702C22.9402 48.6602 23.29 47.4403 24.01 46.2103C24.38 45.5703 24.79 45.0202 25.25 44.5502C25.68 44.1102 26.1401 43.7403 26.6501 43.4503C27.6001 42.9103 28.4101 42.7702 29.0801 43.0402L29.3 43.1502C30.02 43.5602 30.3701 44.3702 30.3701 45.5702V71.1702L32.25 70.0803L37.8101 66.8802V32.7502C37.8101 31.5402 38.1701 30.3203 38.8801 29.0903C39.2501 28.4503 39.6601 27.9002 40.1201 27.4302C40.5501 26.9902 41.02 26.6203 41.53 26.3303C42.47 25.7903 43.2802 25.6602 43.9602 25.9202L44.1802 26.0302C44.8902 26.4402 45.25 27.2503 45.25 28.4503V62.5903L52.6802 58.2902V19.8902C52.6802 18.6902 53.04 17.4702 53.75 16.2402C54.12 15.6102 54.53 15.0603 54.99 14.5903C55.42 14.1503 55.8901 13.7802 56.4001 13.4802C57.3401 12.9302 58.1601 12.8002 58.8301 13.0702L59.05 13.1802C59.76 13.5902 60.1201 14.3902 60.1201 15.6002V54.0002L65.6602 50.8002L67.55 49.7103V19.8403C67.55 18.6303 67.9101 17.4102 68.6201 16.1802C69.3301 14.9602 70.22 14.0402 71.27 13.4302C72.21 12.8802 73.0302 12.7502 73.7002 13.0202L73.9202 13.1302C74.6302 13.5302 74.99 14.3402 74.99 15.5502V40.0803C73.19 42.6103 71.8101 45.2902 70.8501 48.1202C69.8901 50.9502 69.4102 53.6102 69.4102 56.1002V61.4302L64.76 64.1202C63.47 64.8602 62.2501 65.7402 61.0901 66.7502C58.7401 68.7802 56.6701 71.3603 54.8701 74.4703C53.1301 77.4603 51.9601 80.4103 51.3401 83.3303C50.9901 84.9503 50.8201 86.5602 50.8201 88.1602V93.5002C50.8201 94.4202 51.0901 95.0303 51.6101 95.3303C52.1401 95.6303 52.8101 95.5503 53.6101 95.0903C54.4201 94.6203 55.0801 93.9402 55.6101 93.0302C56.1401 92.1202 56.4001 91.2002 56.4001 90.2802V84.9402C56.4001 82.2402 57.2001 79.5003 58.8201 76.7203C60.4301 73.9403 62.41 71.8702 64.76 70.5202L71.27 66.7602C72.32 66.1502 73.2102 65.2302 73.9202 64.0002C74.6302 62.7702 74.99 61.5502 74.99 60.3502V52.8802C74.99 50.1802 75.8002 47.4402 77.4102 44.6602C79.0202 41.8802 81.0001 39.8103 83.3601 38.4503C84.0801 38.0303 84.7002 37.9202 85.1902 38.1202L85.3501 38.2003C85.8801 38.5003 86.1401 39.1202 86.1401 40.0402Z" class="pr-icon-iso-solid-stroke" stroke-linejoin="round"/>
    <path d="M58.8301 13.0701C58.1601 12.8001 57.3401 12.93 56.4001 13.48C55.8901 13.78 55.42 14.1501 54.99 14.5901C54.53 15.0601 54.12 15.61 53.75 16.24C53.04 17.47 52.6802 18.6901 52.6802 19.8901V58.2901L50.5 57.2001L45.25 54.5801V28.4501C45.25 27.2501 44.8902 26.4401 44.1802 26.0301L43.9602 25.9201L40.1201 24L32.6802 20.2801V9.89005C32.6802 8.69005 33.04 7.47003 33.75 6.24003C34.46 5.01003 35.3501 4.09002 36.4001 3.48002C37.4501 2.87002 38.34 2.77009 39.05 3.18009L47.9502 7.63004L54.99 11.1501L58.8301 13.0701Z" class="pr-icon-iso-solid-stroke" stroke-linejoin="round"/>
    <path d="M52.6802 58.29L45.25 62.5901V54.5801L50.5 57.2001L52.6802 58.29Z" class="pr-icon-iso-solid-stroke" stroke-linejoin="round"/>
    <path d="M67.55 49.7101L65.6602 50.8L60.1201 54V46L65.8901 48.88L67.55 49.7101Z" class="pr-icon-iso-solid-stroke" stroke-linejoin="round"/>
    <path d="M85.1902 38.12C84.7002 37.92 84.0801 38.0301 83.3601 38.4501C81.0001 39.8101 79.0202 41.88 77.4102 44.66C75.8002 47.44 74.99 50.18 74.99 52.88V60.35C74.99 61.55 74.6302 62.77 73.9202 64C73.2102 65.23 72.32 66.15 71.27 66.76L64.76 70.52C62.41 71.87 60.4301 73.9401 58.8201 76.7201C57.2001 79.5001 56.4001 82.2401 56.4001 84.9401V90.28C56.4001 91.2 56.1401 92.12 55.6101 93.03C55.0801 93.94 54.4201 94.6201 53.6101 95.0901C52.8101 95.5501 52.1401 95.6301 51.6101 95.3301C51.0901 95.0301 50.8201 94.42 50.8201 93.5V88.16C50.8201 86.56 50.9901 84.9501 51.3401 83.3301C51.9601 80.4101 53.1301 77.4601 54.8701 74.4701C56.6701 71.3601 58.7401 68.78 61.0901 66.75C62.2501 65.74 63.47 64.86 64.76 64.12L69.4102 61.4301V56.1C69.4102 53.61 69.8901 50.95 70.8501 48.12C71.8101 45.29 73.19 42.6101 74.99 40.0801V33.02L85.1902 38.12Z" class="pr-icon-iso-solid-stroke" stroke-linejoin="round"/>
    <path d="M73.7002 13.02C73.0302 12.75 72.21 12.88 71.27 13.43C70.22 14.04 69.3301 14.96 68.6201 16.18C67.9101 17.41 67.55 18.6301 67.55 19.8401V49.7101L65.8901 48.88L60.1201 46V15.6C60.1201 14.39 59.76 13.59 59.05 13.18L58.8301 13.0701L54.99 11.15L47.9502 7.63C48.1102 7.15 48.3401 6.66005 48.6201 6.18005C49.3301 4.96005 50.22 4.04005 51.27 3.43005C52.32 2.82005 53.2102 2.72 53.9202 3.13L73.7002 13.02Z" class="pr-icon-iso-solid-stroke" stroke-linejoin="round"/>
    <path d="M37.8101 66.8801L32.25 70.0802L30.3701 71.1702V63.1602L34.4602 65.2002L37.8101 66.8801Z" class="pr-icon-iso-solid-stroke" stroke-linejoin="round"/>
    <path d="M43.9602 25.92C43.2802 25.66 42.47 25.7901 41.53 26.3301C41.02 26.6201 40.5501 26.99 40.1201 27.43C39.6601 27.9 39.2501 28.4501 38.8801 29.0901C38.1701 30.3201 37.8101 31.54 37.8101 32.75V66.88L34.4602 65.2001L30.3701 63.16V45.5701C30.3701 44.3701 30.02 43.56 29.3 43.15L29.0801 43.04L25.25 41.13L17.8101 37.41V22.75C17.8101 21.54 18.1701 20.3201 18.8801 19.0901C19.5901 17.8601 20.47 16.9401 21.53 16.3301C22.58 15.7301 23.4602 15.63 24.1802 16.03L32.6802 20.28L40.1201 24L43.9602 25.92Z" class="pr-icon-iso-solid-stroke" stroke-linejoin="round"/>
    <path d="M32.1401 110.79L13.6301 101.53C13.1201 101.32 12.6301 101.07 12.1401 100.79C6.00014 97.2901 2.94019 90.5001 2.94019 80.4001V39.87C2.94019 38.66 3.29001 37.4401 4.01001 36.2101C4.72001 34.9801 5.60015 34.0601 6.65015 33.4501C7.71015 32.8501 8.59005 32.7401 9.30005 33.1501L17.8101 37.4101L25.25 41.13L29.0801 43.0401C28.4101 42.7701 27.6001 42.9101 26.6501 43.4501C26.1401 43.7401 25.68 44.1101 25.25 44.5501C24.79 45.0201 24.38 45.5701 24.01 46.2101C23.29 47.4401 22.9402 48.66 22.9402 49.87V90.4001C22.9402 95.1101 23.6102 99.1001 24.9602 102.38C26.4702 106.12 28.8701 108.92 32.1401 110.79Z" class="pr-icon-iso-solid-stroke" stroke-linejoin="round"/>
</svg>