<svg width="48" height="48" viewBox="0 0 96 106" fill="#229EFF" xmlns="http://www.w3.org/2000/svg" stroke-width="1px" stroke-linecap="round" stroke-linejoin="round"><path d="M82.1113 14.3085L83.4813 14.9985C83.0313 14.7485 82.5813 14.5085 82.1113 14.3085Z" stroke="white" stroke-linejoin="round"/><path d="M91.0609 23.5384C89.2009 19.6684 86.6709 16.8185 83.4809 14.9985L82.1109 14.3085L82.0409 14.2784C79.1809 12.9784 75.9109 12.4885 72.2209 12.7985C71.7409 12.8385 71.2609 12.8884 70.7709 12.9684C66.8709 13.5184 62.7409 15.0584 58.3909 17.5784C53.4809 20.4084 48.8709 24.1384 44.5509 28.7684C40.6009 33.0184 37.1209 37.6285 34.1109 42.6085C33.8209 43.0585 33.5609 43.5084 33.2909 43.9684C33.1009 44.2984 32.9109 44.6284 32.7309 44.9584C31.0509 47.9384 29.5709 50.9985 28.2809 54.1285C27.3109 56.4685 26.4609 58.8484 25.7109 61.2684C23.8509 67.2984 22.9209 73.1285 22.9209 78.7585C22.9209 84.3885 23.8509 89.1384 25.7109 93.0184C25.8009 93.2084 25.9009 93.3984 26.0009 93.5884C27.8209 97.1684 30.2609 99.8285 33.2909 101.558C36.4909 103.378 40.2409 104.118 44.5509 103.758C48.8709 103.408 53.4809 101.808 58.3909 98.9785C63.2909 96.1485 67.9009 92.4185 72.2209 87.7885C76.5409 83.1585 80.2909 78.0884 83.4809 72.5884C86.6709 67.0784 89.2009 61.3084 91.0609 55.2884C92.9209 49.2584 93.8609 43.4285 93.8609 37.7985C93.8609 32.1685 92.9209 27.4184 91.0609 23.5384ZM78.5209 69.7585C73.0209 79.2385 66.3109 86.2684 58.3909 90.8384C57.1509 91.5584 55.9509 92.1584 54.8009 92.6584C53.6409 93.1484 52.4809 93.5685 51.2909 93.9185V82.7285L61.9309 76.5784V72.5085C61.9309 70.2385 61.5709 68.3385 60.8609 66.8085C60.1709 65.3185 59.1409 64.1985 57.7709 63.4185L57.1109 63.0884C56.9409 63.0084 56.7709 62.9385 56.6009 62.8785C54.0709 61.9685 51.1209 62.4785 47.7509 64.4185L31.2909 73.9185L30.0109 74.6584C30.0109 67.4084 31.7609 60.0384 35.2609 52.5384C36.0309 50.8684 36.9009 49.1984 37.8509 47.5184C37.9809 47.2784 38.1209 47.0385 38.2609 46.7985C40.4709 42.9985 42.8709 39.5785 45.4809 36.5685C49.3409 32.0685 53.6509 28.4584 58.3909 25.7184C59.6909 24.9684 60.9409 24.3484 62.1609 23.8484C63.3709 23.3484 64.5609 22.9284 65.7509 22.5884C64.6809 23.9484 63.7809 25.4385 63.0409 27.0485C62.3009 28.6685 61.9309 30.2485 61.9309 31.8085L58.3909 33.8585C56.4409 34.9885 54.7709 36.7484 53.3809 39.1384C52.2709 41.0584 51.6009 42.9285 51.3809 44.7385C51.3209 45.1985 51.2909 45.6484 51.2909 46.0984V54.2385L58.4509 50.0984L64.3909 46.6685L65.4809 46.0384V50.1085C65.4809 52.3385 66.1709 53.8484 67.5409 54.6384C67.5509 54.6484 67.5509 54.6584 67.5609 54.6584C68.9509 55.4484 70.6209 55.2884 72.5709 54.1584L79.6709 50.0585C81.4409 49.0385 82.9809 47.5084 84.2809 45.4684C85.5809 43.4284 86.3809 41.3384 86.6709 39.1984C86.6709 39.5384 86.6909 39.9584 86.7209 40.4484C86.7509 40.9384 86.7609 41.4184 86.7609 41.8984C86.7609 50.9884 84.0109 60.2685 78.5209 69.7585Z" stroke="white" stroke-linejoin="round"/><path d="M56.6206 62.8484C56.6206 62.8484 56.6106 62.8685 56.6006 62.8785C56.7706 62.9385 56.9406 63.0084 57.1106 63.0884L56.6206 62.8484Z" stroke="white" stroke-linejoin="round"/><path d="M82.0409 14.2785C79.1809 12.9785 75.9109 12.4885 72.2209 12.7985C71.7409 12.8385 71.2609 12.8885 70.7709 12.9685C66.8709 13.5185 62.7409 15.0584 58.3909 17.5784C53.4809 20.4084 48.8709 24.1384 44.5509 28.7684C40.6009 33.0184 37.1209 37.6285 34.1109 42.6085C33.8209 43.0585 33.5609 43.5085 33.2909 43.9685C33.1009 44.2985 32.9109 44.6284 32.7309 44.9584C31.0509 47.9384 29.5709 50.9985 28.2809 54.1285C27.3109 56.4685 26.4609 58.8484 25.7109 61.2684C23.8509 67.2984 22.9209 73.1285 22.9209 78.7585C22.9209 84.3885 23.8509 89.1384 25.7109 93.0184C25.8009 93.2084 25.9009 93.3984 26.0009 93.5884C27.8209 97.1684 30.2609 99.8285 33.2909 101.558L14.7209 92.2684L13.2909 91.5585C10.1009 89.7385 7.57088 86.8884 5.71088 83.0184C3.85088 79.1384 2.9209 74.3885 2.9209 68.7585C2.9209 63.1285 3.85088 57.2984 5.71088 51.2684C7.57088 45.2484 10.1009 39.4785 13.2909 33.9685C16.4909 28.4685 20.2409 23.3984 24.5509 18.7684C28.8709 14.1384 33.4809 10.4084 38.3909 7.57844C43.2909 4.74844 47.9009 3.14847 52.2209 2.79847C56.5409 2.43847 60.2909 3.17848 63.4809 4.99848L82.0409 14.2785Z" stroke="white" stroke-linejoin="round"/><path d="M67.541 54.6384V54.6484L62.3909 52.0685L58.4609 50.0984L64.4009 46.6685L65.491 46.0385V50.1085C65.491 52.3385 66.181 53.8484 67.551 54.6384H67.541Z" stroke="white" stroke-linejoin="round"/><path d="M86.761 41.8984C86.761 50.9884 84.011 60.2685 78.521 69.7585C73.021 79.2385 66.311 86.2684 58.391 90.8384C57.151 91.5584 55.951 92.1584 54.801 92.6584C53.641 93.1484 52.481 93.5685 51.291 93.9185V82.7285L61.931 76.5784V72.5085C61.931 70.2385 61.571 68.3385 60.861 66.8085C60.171 65.3185 59.141 64.1985 57.771 63.4185L57.111 63.0884L56.621 62.8484C57.271 61.8484 57.901 60.8185 58.521 59.7585C60.011 57.1785 61.301 54.6185 62.381 52.0685L67.531 54.6484H67.561C68.951 55.4484 70.621 55.2884 72.571 54.1584L79.671 50.0585C81.441 49.0385 82.981 47.5084 84.281 45.4684C85.581 43.4284 86.381 41.3384 86.671 39.1984C86.671 39.5384 86.691 39.9584 86.721 40.4484C86.751 40.9384 86.761 41.4184 86.761 41.8984Z" stroke="white" stroke-linejoin="round"/><path d="M56.6208 62.8484C56.6208 62.8484 56.6108 62.8685 56.6008 62.8785C54.0708 61.9685 51.1208 62.4785 47.7508 64.4185L31.2908 73.9185L30.0107 74.6584C30.0107 67.4084 31.7607 60.0385 35.2607 52.5385C36.1407 52.6785 36.9808 52.9685 37.7708 53.4185L56.6208 62.8484Z" stroke="white" stroke-linejoin="round"/><path d="M65.7506 22.5884C64.6806 23.9484 63.7806 25.4385 63.0406 27.0485C62.3006 28.6685 61.9306 30.2485 61.9306 31.8085L58.3906 33.8585C56.4406 34.9885 54.7706 36.7484 53.3806 39.1384C52.2706 41.0584 51.6006 42.9285 51.3806 44.7385C51.3206 45.1985 51.2906 45.6484 51.2906 46.0984V54.2385L37.8506 47.5184C37.9806 47.2784 38.1206 47.0385 38.2606 46.7985C40.4706 42.9985 42.8706 39.5785 45.4806 36.5685C49.3406 32.0685 53.6506 28.4584 58.3906 25.7184C59.6906 24.9684 60.9406 24.3484 62.1606 23.8484C63.3706 23.3484 64.5606 22.9284 65.7506 22.5884Z" stroke="white" stroke-linejoin="round"/></svg>