<svg viewBox="0 0 96 122" xmlns="http://www.w3.org/2000/svg" height="24" width="24" stroke-width="1px" stroke-linecap="round" stroke-linejoin="round">
    <path d="M92.6699 13.06L92.5601 13.01C92.5601 13.01 92.4799 12.96 92.4299 12.95C92.3899 12.93 92.34 12.92 92.3 12.91C91.46 12.68 90.5598 13 89.5798 13.87L77.3398 24.84C77.2298 23.48 76.71 22.58 75.76 22.13C74.81 21.68 73.72 21.82 72.48 22.54C71.12 23.32 69.98 24.52 69.03 26.15C68.08 27.79 67.6099 29.38 67.6099 30.93C67.6099 31.36 67.65 31.76 67.73 32.11C67.81 32.47 67.9399 32.79 68.0999 33.06L61.04 39.28C60.83 38.6 60.4399 38.17 59.8699 38C59.2999 37.83 58.6399 37.97 57.8799 38.4C57.0399 38.89 56.32 39.6 55.74 40.54C55.68 40.63 55.6201 40.72 55.5701 40.81C54.9501 41.88 54.6399 42.94 54.6399 44V45.02L48.0701 50.86C47.9601 49.5 47.45 48.61 46.53 48.21C45.61 47.81 44.53 47.97 43.29 48.69C41.94 49.47 40.7898 50.68 39.8398 52.31C39.3798 53.11 39.02 53.91 38.79 54.69C38.54 55.5 38.4199 56.3 38.4199 57.08C38.4199 57.36 38.44 57.61 38.47 57.84C38.49 57.97 38.52 58.1 38.55 58.22C38.63 58.55 38.7198 58.83 38.8298 59.08L32.45 64.75L25.96 70.52L24.48 71.83C23.78 72.49 23.2201 73.24 22.8201 74.09C22.4101 74.95 22.21 75.78 22.21 76.58C22.21 77.51 22.4399 78.15 22.8999 78.51H22.9099L23.46 78.79C24.24 79 25.07 78.74 25.96 78.01C26.03 77.96 26.1099 77.9 26.1799 77.83L32.45 72.24L43.23 62.63L47.3499 58.96L49.8 56.77L54.6399 52.46V62.61L49.8 65.41L43.23 69.2L41.6699 70.1C40.1599 70.96 38.7599 72.03 37.4399 73.32C35.6199 75.07 33.98 77.22 32.5 79.76C31.97 80.68 31.4898 81.59 31.0798 82.5C29.4798 85.91 28.6899 89.24 28.6899 92.47V114.8C28.6899 116.85 29.3299 118.23 30.5999 118.96C31.8699 119.68 33.3999 119.53 35.1799 118.5L80.5798 92.28C82.3698 91.25 83.8899 89.64 85.1599 87.45C86.4299 85.26 87.0701 83.14 87.0701 81.1V58.77C87.0701 54.67 85.8 51.9 83.26 50.45L82.6599 50.15C80.2399 49.07 77.3799 49.47 74.0999 51.37L67.0701 55.43L61.1299 58.86V46.67L65.6099 42.69L66.3799 42.01L91.29 19.86C91.99 19.21 92.54 18.46 92.95 17.6C93.35 16.75 93.5601 15.92 93.5601 15.11C93.5601 14.07 93.2599 13.38 92.6699 13.06ZM45.96 89.94L35.1799 96.17V88.73C35.1799 87.48 35.4199 86.21 35.8899 84.91C36.1899 84.08 36.5898 83.23 37.0898 82.37C38.3598 80.18 39.8799 78.57 41.6699 77.54L45.96 75.06V89.94ZM69.8 61.3L74.0999 58.81C75.8799 57.78 77.4099 57.63 78.6799 58.36C79.9499 59.08 80.5798 60.47 80.5798 62.51V69.95L69.8 76.18V61.3ZM63.23 65.09V79.97L52.45 86.2V71.31L63.23 65.09Z" class="pr-icon-iso-solid-stroke" stroke-linejoin="round"/>
    <path d="M80.5798 62.5104V69.9504L69.8 64.5604V61.3004L74.0999 58.8104C75.8799 57.7804 77.4099 57.6304 78.6799 58.3604C79.9499 59.0804 80.5798 60.4704 80.5798 62.5104Z" class="pr-icon-iso-solid-stroke" stroke-linejoin="round"/>
    <path d="M80.5798 69.9496L69.8 76.1796V64.5596L80.5798 69.9496Z" class="pr-icon-iso-solid-stroke" stroke-linejoin="round"/>
    <path d="M45.96 89.9392L35.1799 96.1692V88.7292C35.1799 87.4792 35.4199 86.2092 35.8899 84.9092L45.96 89.9392Z" class="pr-icon-iso-solid-stroke" stroke-linejoin="round"/>
    <path d="M45.96 75.0596V89.9396L35.8899 84.9096C36.1899 84.0796 36.5898 83.2296 37.0898 82.3696C38.3598 80.1796 39.8799 78.5696 41.6699 77.5396L45.96 75.0596Z" class="pr-icon-iso-solid-stroke" stroke-linejoin="round"/>
    <path d="M63.23 79.9691L52.45 86.1991V74.5791L63.23 79.9691Z" class="pr-icon-iso-solid-stroke" stroke-linejoin="round"/>
    <path d="M63.23 65.0898V79.9698L52.45 74.5798V71.3098L63.23 65.0898Z" class="pr-icon-iso-solid-stroke" stroke-linejoin="round"/>
    <path d="M68.0999 33.0596L61.04 39.2796C60.83 38.5996 60.4399 38.1696 59.8699 37.9996L46.9199 31.5196L41.54 28.8396L48.0999 23.0596L68.0999 33.0596Z" class="pr-icon-iso-solid-stroke" stroke-linejoin="round"/>
    <path d="M59.8699 38C59.2999 37.83 58.6399 37.97 57.8799 38.4C57.0399 38.89 56.32 39.6 55.74 40.54C55.68 40.63 55.6201 40.72 55.5701 40.81C54.9501 41.88 54.6399 42.94 54.6399 44V45.02L50.96 43.18L41.1299 38.27L34.6399 35.02V34C34.6399 32.94 34.9501 31.88 35.5701 30.81C36.1901 29.74 36.9599 28.94 37.8799 28.4C38.6399 27.97 39.2999 27.83 39.8699 28L40.3499 28.24L41.54 28.84L46.9199 31.52L59.8699 38Z" class="pr-icon-iso-solid-stroke" stroke-linejoin="round"/>
    <path d="M54.6399 45.0195L48.0701 50.8595C47.9601 49.4995 47.45 48.6095 46.53 48.2095L44.24 47.0595L41.1299 45.5095L29.4199 39.6595L34.6399 35.0195L41.1299 38.2695L50.96 43.1795L54.6399 45.0195Z" class="pr-icon-iso-solid-stroke" stroke-linejoin="round"/>
    <path d="M92.4299 12.95C92.4299 12.95 92.34 12.92 92.3 12.91C91.46 12.68 90.5598 13 89.5798 13.87L77.3398 24.84C77.2298 23.48 76.71 22.58 75.76 22.13L64.0601 16.28L58.72 13.61L69.5798 3.87003C70.5598 3.00003 71.46 2.68003 72.3 2.91003C72.39 2.93003 72.47 2.96003 72.55 3.00003L72.6699 3.06003L92.4299 12.95Z" class="pr-icon-iso-solid-stroke" stroke-linejoin="round"/>
    <path d="M75.76 22.13C74.81 21.68 73.72 21.82 72.48 22.54C71.12 23.32 69.98 24.52 69.03 26.15C68.08 27.79 67.6099 29.38 67.6099 30.93C67.6099 31.36 67.65 31.76 67.73 32.11C67.81 32.47 67.9399 32.79 68.0999 33.06L48.0999 23.06C47.9399 22.79 47.81 22.47 47.73 22.11C47.65 21.76 47.6099 21.36 47.6099 20.93C47.6099 19.38 48.08 17.79 49.03 16.15C49.98 14.52 51.12 13.32 52.48 12.54C53.72 11.82 54.81 11.68 55.76 12.13L58.72 13.61L64.0601 16.28L75.76 22.13Z" class="pr-icon-iso-solid-stroke" stroke-linejoin="round"/>
    <path d="M46.53 48.2104C45.61 47.8104 44.53 47.9704 43.29 48.6904C41.94 49.4704 40.7898 50.6804 39.8398 52.3104C39.3798 53.1104 39.02 53.9104 38.79 54.6904C38.54 55.5004 38.4199 56.3004 38.4199 57.0804C38.4199 57.3604 38.44 57.6104 38.47 57.8404C38.49 57.9704 38.52 58.1004 38.55 58.2204C38.63 58.5504 38.7198 58.8304 38.8298 59.0804L37.48 58.4104L30.5798 54.9504L24.2 51.7704L18.8298 49.0804C18.7198 48.8304 18.63 48.5504 18.55 48.2204C18.46 47.9004 18.4199 47.5204 18.4199 47.0804C18.4199 45.5304 18.8998 43.9404 19.8398 42.3104C20.7898 40.6804 21.94 39.4704 23.29 38.6904C24.53 37.9704 25.61 37.8104 26.53 38.2104L26.8599 38.3804L29.4199 39.6604L41.1299 45.5104L44.24 47.0604L46.53 48.2104Z" class="pr-icon-iso-solid-stroke" stroke-linejoin="round"/>
    <path d="M38.8298 59.0801L32.45 64.7501L25.96 70.5201L24.48 71.8301C23.78 72.4901 23.2201 73.2401 22.8201 74.0901C22.4101 74.9501 22.21 75.7801 22.21 76.5801C22.21 77.5101 22.4399 78.1501 22.8999 78.5101L15.8699 74.9901L11.04 72.5801L3.45996 68.7901C2.62996 68.5601 2.20996 67.8301 2.20996 66.5801C2.20996 65.7801 2.41007 64.9501 2.82007 64.0901C3.22007 63.2401 3.77998 62.4901 4.47998 61.8301L18.8298 49.0801L24.2 51.7701L30.5798 54.9501L37.48 58.4101L38.8298 59.0801Z" class="pr-icon-iso-solid-stroke" stroke-linejoin="round"/>
    <path d="M82.6599 50.1498C80.2399 49.0698 77.3799 49.4698 74.0999 51.3698L67.0701 55.4298L61.1299 58.8598V46.6698L65.6099 42.6898L66.3799 42.0098L82.6599 50.1498Z" class="pr-icon-iso-solid-stroke" stroke-linejoin="round"/>
    <path d="M54.6399 52.46V62.61L49.8 60.19L47.3499 58.96L49.8 56.77L54.6399 52.46Z" class="pr-icon-iso-solid-stroke" stroke-linejoin="round"/>
    <path d="M54.6399 62.61L49.8 65.41L43.23 69.2L41.6699 70.1C40.1599 70.96 38.7599 72.03 37.4399 73.32C35.6199 75.07 33.98 77.22 32.5 79.76C31.97 80.68 31.4898 81.59 31.0798 82.5C29.4798 85.91 28.6899 89.24 28.6899 92.47V114.8C28.6899 116.85 29.3299 118.23 30.5999 118.96L11 109.16L10.5999 108.96C9.32985 108.23 8.68994 106.85 8.68994 104.8V82.47C8.68994 79.26 9.47004 75.97 11.04 72.58L15.8699 74.99L22.8999 78.51H22.9099L23.46 78.79C24.24 79 25.07 78.74 25.96 78.01C26.03 77.96 26.1099 77.9 26.1799 77.83L32.45 72.24L43.23 62.63L47.3499 58.96L49.8 60.19L54.6399 62.61Z" class="pr-icon-iso-solid-stroke" stroke-linejoin="round"/>
</svg>