<svg width="48" height="48" viewBox="0 0 60 118" fill="#229EFF" xmlns="http://www.w3.org/2000/svg" stroke-width="1px" stroke-linecap="round" stroke-linejoin="round"><path d="M48.7399 18.6924C48.7399 21.4224 47.89 24.2524 46.2 27.1824C45.97 27.5724 45.7399 27.9424 45.5099 28.3024C43.9499 30.6624 42.1399 32.4324 40.0799 33.6324C39.1299 34.1724 38.2399 34.5424 37.3999 34.7124C36.1299 34.9824 34.9799 34.8224 33.9599 34.2424C32.2699 33.2724 31.4199 31.4224 31.4199 28.6924C31.4199 26.6524 31.8899 24.5624 32.8399 22.4124C33.1599 21.6824 33.5299 20.9424 33.9599 20.2024C35.6599 17.2824 37.6999 15.1324 40.0799 13.7524C42.4599 12.3824 44.5 12.1724 46.2 13.1424C47.89 14.1124 48.7399 15.9624 48.7399 18.6924Z" stroke="white" stroke-linejoin="round"/><path d="M57.3997 38.5321V63.3822C57.3997 64.7922 56.9897 66.2121 56.1597 67.6421C55.3297 69.0721 54.2998 70.1422 53.0698 70.8522L46.5797 74.6022V104.412C46.5797 105.822 46.1597 107.242 45.3297 108.672C44.4997 110.102 43.4698 111.172 42.2498 111.882L37.9097 114.382C36.6897 115.092 35.6597 115.202 34.8297 114.732C33.9997 114.262 33.5797 113.322 33.5797 111.912V82.1022L27.0897 85.8522C26.9197 85.9522 26.7497 86.0422 26.5797 86.1122C25.5697 86.5822 24.7098 86.6022 23.9998 86.2022C23.1698 85.7322 22.7598 84.7922 22.7598 83.3822V58.5321C22.7598 55.8021 23.6097 52.9722 25.2997 50.0522C26.9997 47.1222 29.0397 44.9722 31.4197 43.6022L37.3997 40.1522L48.7397 33.6022C51.1197 32.2222 53.1597 32.0221 54.8597 32.9821C56.5497 33.9521 57.3997 35.8021 57.3997 38.5321Z" stroke="white" stroke-linejoin="round"/><path d="M54.8597 32.9823C53.1597 32.0223 51.1197 32.2223 48.7397 33.6023L37.3997 40.1523L31.4197 43.6023C29.0397 44.9723 26.9997 47.1223 25.2997 50.0523C23.6097 52.9723 22.7598 55.8023 22.7598 58.5323V83.3823C22.7598 84.7923 23.1698 85.7323 23.9998 86.2023L13.5797 80.9923L4.24976 76.3223L3.99976 76.2023C3.16976 75.7323 2.75977 74.7923 2.75977 73.3823V48.5323C2.75977 45.8023 3.60974 42.9723 5.29974 40.0523C6.99974 37.1223 9.03974 34.9723 11.4197 33.6023L21.2897 27.9023L33.9597 34.2423C34.9797 34.8223 36.1297 34.9823 37.3997 34.7123C38.2397 34.5423 39.1297 34.1723 40.0797 33.6323C42.1397 32.4323 43.9498 30.6623 45.5098 28.3023L54.8597 32.9823Z" stroke="white" stroke-linejoin="round"/><path d="M46.2 13.1424C44.5 12.1724 42.4599 12.3824 40.0799 13.7524C37.6999 15.1324 35.6599 17.2824 33.9599 20.2024C33.5299 20.9424 33.1599 21.6824 32.8399 22.4124C31.8899 24.5624 31.4199 26.6524 31.4199 28.6924C31.4199 31.4224 32.2699 33.2724 33.9599 34.2424L21.2899 27.9024L13.9599 24.2424C12.2699 23.2724 11.4199 21.4224 11.4199 18.6924C11.4199 15.9624 12.2699 13.1324 13.9599 10.2024C15.6599 7.28239 17.6999 5.13239 20.0799 3.75239C22.4599 2.38239 24.5 2.17239 26.2 3.14239L46.2 13.1424Z" stroke="white" stroke-linejoin="round"/><path d="M34.8296 114.732L15.0796 104.852L14.8296 104.732C13.9996 104.262 13.5796 103.322 13.5796 101.912V80.9922L23.9996 86.2022C24.7096 86.6022 25.5696 86.5822 26.5796 86.1122C26.7496 86.0422 26.9196 85.9522 27.0896 85.8522L33.5796 82.1022V111.912C33.5796 113.322 33.9996 114.262 34.8296 114.732Z" stroke="white" stroke-linejoin="round"/></svg>