<svg width="24" height="24" viewBox="0 0 47 118" xmlns="http://www.w3.org/2000/svg" stroke-width="1px" stroke-linecap="round" stroke-linejoin="round">
    <path d="M40.2548 87.83C38.2748 87.02 35.9548 87.38 33.2848 88.92C30.3048 90.64 27.7548 93.33 25.6348 96.98C23.5148 100.64 22.4548 104.18 22.4548 107.59C22.4548 111 23.5148 113.32 25.6348 114.53L6.30481 104.86L5.63483 104.53C3.51483 103.32 2.45483 101.01 2.45483 97.59C2.45483 94.17 3.51483 90.64 5.63483 86.98C7.75483 83.33 10.3048 80.64 13.2848 78.92C16.0248 77.34 18.4048 77 20.4148 77.9H20.4248L20.8148 78.1L20.9248 78.16L40.2548 87.83Z" class="pr-icon-iso-solid-stroke" stroke-linejoin="round"/>
    <path d="M44.1048 95.09C44.1048 98.51 43.0448 102.04 40.9248 105.7C38.8048 109.36 36.2648 112.05 33.2848 113.76C30.3048 115.48 27.7548 115.74 25.6348 114.53C23.5148 113.32 22.4548 111.01 22.4548 107.59C22.4548 104.17 23.5148 100.64 25.6348 96.98C27.7548 93.33 30.3048 90.64 33.2848 88.92C35.9548 87.38 38.2748 87.02 40.2548 87.83L40.9248 88.16C43.0448 89.36 44.1048 91.68 44.1048 95.09Z" class="pr-icon-iso-solid-stroke" stroke-linejoin="round"/>
    <path d="M44.1048 57.83C44.1048 61.24 43.0448 64.78 40.9248 68.44C38.8048 72.09 36.2648 74.78 33.2848 76.5C30.3048 78.22 27.7548 78.47 25.6348 77.26C23.5148 76.05 22.4548 73.74 22.4548 70.33C22.4548 66.92 23.5148 63.37 25.6348 59.72C27.7548 56.06 30.3048 53.37 33.2848 51.65C35.9548 50.12 38.2748 49.75 40.2548 50.56L40.9248 50.89C43.0448 52.1 44.1048 54.41 44.1048 57.83Z" class="pr-icon-iso-solid-stroke" stroke-linejoin="round"/>
    <path d="M44.1048 20.56C44.1048 23.98 43.0448 27.51 40.9248 31.17C38.8048 34.83 36.2648 37.51 33.2848 39.23C30.3048 40.95 27.7548 41.21 25.6348 40C23.5148 38.79 22.4548 36.48 22.4548 33.06C22.4548 29.64 23.5148 26.11 25.6348 22.45C27.7548 18.8 30.3048 16.11 33.2848 14.39C35.9548 12.85 38.2748 12.48 40.2548 13.29L40.3448 13.33L40.9248 13.62C43.0448 14.83 44.1048 17.14 44.1048 20.56Z" class="pr-icon-iso-solid-stroke" stroke-linejoin="round"/>
    <path d="M40.2548 13.29C38.2748 12.48 35.9548 12.85 33.2848 14.39C30.3048 16.11 27.7548 18.8 25.6348 22.45C23.5148 26.11 22.4548 29.64 22.4548 33.06C22.4548 36.48 23.5148 38.79 25.6348 40L6.30481 30.33L6.22479 30.29L5.63483 30C3.51483 28.79 2.45483 26.48 2.45483 23.06C2.45483 19.64 3.51483 16.11 5.63483 12.45C7.75483 8.8 10.3048 6.11 13.2848 4.39C16.2648 2.67 18.8048 2.41 20.9248 3.62L40.2548 13.29Z" class="pr-icon-iso-solid-stroke" stroke-linejoin="round"/>
    <path d="M40.2548 50.56C38.2748 49.75 35.9548 50.12 33.2848 51.65C30.3048 53.37 27.7548 56.06 25.6348 59.72C23.5148 63.37 22.4548 66.91 22.4548 70.33C22.4548 73.75 23.5148 76.05 25.6348 77.26L6.30481 67.59L5.63483 67.26C3.51483 66.05 2.45483 63.74 2.45483 60.33C2.45483 56.92 3.51483 53.37 5.63483 49.72C7.75483 46.06 10.3048 43.37 13.2848 41.65C16.2648 39.94 18.8048 39.68 20.9248 40.89L40.2548 50.56Z" class="pr-icon-iso-solid-stroke" stroke-linejoin="round"/>
</svg>