<svg width="48" height="48" viewBox="0 0 94 111" fill="#229EFF" xmlns="http://www.w3.org/2000/svg" stroke-width="1px" stroke-linecap="round" stroke-linejoin="round"><path d="M79.6311 36.5297L72.3511 40.7297C71.4011 41.2797 70.6109 42.1097 69.9709 43.2097C69.3309 44.3197 69.011 45.4198 69.011 46.4998C69.011 46.7498 69.031 46.9697 69.061 47.1797C69.171 47.9097 69.4809 48.3997 69.9709 48.6797L65.6611 46.5297V29.4697L67.991 30.6297L78.3711 35.8197L79.6311 36.5297Z" stroke="white" stroke-linejoin="round"/><path d="M91.0908 33.7599C91.0908 34.7799 90.7508 35.87 90.0808 37.02L83.0608 49.1399C82.3908 50.2899 81.6107 51.1299 80.7207 51.6399C79.8207 52.1599 79.0408 52.23 78.3708 51.84C77.7108 51.46 77.3708 50.7399 77.3708 49.6899C77.3708 48.6399 77.7108 47.53 78.3708 46.37L79.6309 44.21L72.3508 48.41C72.2108 48.49 72.0807 48.56 71.9407 48.62H71.9309C71.1609 48.98 70.5207 49 69.9707 48.68C69.4807 48.4 69.1708 47.9099 69.0608 47.1899C69.0308 46.9699 69.0107 46.75 69.0107 46.5C69.0107 45.42 69.3307 44.32 69.9707 43.21C70.6107 42.11 71.4008 41.28 72.3508 40.73L79.6309 36.53L78.3708 35.8199C77.7108 35.4399 77.3708 34.72 77.3708 33.66C77.3708 32.6 77.7108 31.5 78.3708 30.35C79.0408 29.19 79.8207 28.36 80.7207 27.84C81.5207 27.38 82.2208 27.28 82.8408 27.53L83.0608 27.6399L90.0808 31.65C90.7508 32.03 91.0908 32.7299 91.0908 33.7599Z" stroke="white" stroke-linejoin="round"/><path d="M63.2908 13.2399C62.0608 12.7299 60.6207 12.9599 58.9707 13.9099L45.6609 21.5899L38.9707 25.4499L35.8608 27.2499L30.3008 30.4599L28.8608 31.2899C27.0208 32.3499 25.4509 34.0199 24.1409 36.2799C23.3809 37.5899 22.8408 38.8599 22.5308 40.1199C22.4008 40.5799 22.3207 41.0399 22.2607 41.4899C22.2007 41.9399 22.1709 42.3899 22.1709 42.8299V104.26C22.1709 106.37 22.8309 107.8 24.1409 108.54L4.55078 98.7399L4.14087 98.5399C2.83087 97.7999 2.1709 96.3699 2.1709 94.2599V32.8299C2.1709 30.7199 2.83087 28.5399 4.14087 26.2799C5.45087 24.0199 7.02084 22.3499 8.86084 21.2899L38.9707 3.90991C40.8107 2.84991 42.3907 2.68988 43.7007 3.43988L63.2908 13.2399Z" stroke="white" stroke-linejoin="round"/><path d="M63.7007 13.44L63.2908 13.24C62.0608 12.73 60.6207 12.96 58.9707 13.91L45.6609 21.59L38.9707 25.45L35.8608 27.25L30.3008 30.46L28.8608 31.29C27.0208 32.35 25.4509 34.02 24.1409 36.28C23.3809 37.59 22.8408 38.86 22.5308 40.12C22.4008 40.58 22.3207 41.04 22.2607 41.49C22.2007 41.94 22.1709 42.39 22.1709 42.83V104.26C22.1709 106.37 22.8309 107.8 24.1409 108.54C25.4509 109.29 27.0208 109.13 28.8608 108.07L58.9707 90.69C60.8107 89.62 62.3907 87.96 63.7007 85.7C65.0107 83.44 65.6609 81.26 65.6609 79.15V17.72C65.6609 15.61 65.0107 14.18 63.7007 13.44ZM52.9907 73.84C52.3507 74.95 51.5608 75.77 50.6108 76.32L47.2607 78.25V82.09C47.2607 83.18 46.9408 84.28 46.3008 85.38C45.6608 86.49 44.8609 87.31 43.9209 87.86C42.9709 88.41 42.1708 88.5 41.5308 88.13C40.8908 87.77 40.5708 87.04 40.5708 85.95V82.12L37.2307 84.05C36.2807 84.59 35.4808 84.69 34.8408 84.32C34.5208 84.13 34.2808 83.86 34.1208 83.49C33.9608 83.13 33.8809 82.68 33.8809 82.14C33.8809 81.15 34.1409 80.17 34.6709 79.17C34.7209 79.06 34.7808 78.96 34.8408 78.85C35.4808 77.74 36.2807 76.92 37.2307 76.37L40.1409 74.69L40.5708 74.44V70.6C40.5708 69.61 40.8308 68.62 41.3608 67.62C41.4108 67.52 41.4708 67.41 41.5308 67.31C42.1708 66.2 42.9709 65.38 43.9209 64.83C44.5709 64.45 45.1509 64.29 45.6609 64.35C45.8909 64.38 46.1008 64.44 46.3008 64.56C46.9408 64.92 47.2607 65.65 47.2607 66.74V70.57L50.6108 68.64C51.5608 68.1 52.3507 68.01 52.9907 68.37C53.6307 68.74 53.9507 69.46 53.9507 70.55C53.9507 71.64 53.6307 72.74 52.9907 73.84ZM58.9707 46.64C57.9707 46.51 56.9108 46.61 55.7908 46.93C54.6808 47.26 53.5108 47.77 52.2808 48.48L45.6609 52.3L35.5508 58.14C34.9408 58.5 34.3407 58.88 33.7507 59.31C33.1707 59.72 32.6008 60.17 32.0408 60.65C31.4908 61.12 30.9607 61.63 30.4507 62.17C29.9107 62.75 29.3808 63.36 28.8608 64.02V38.97L38.9707 33.13L42.9907 30.81L45.6609 29.27L57.5208 22.43L58.9707 21.59V46.64Z" stroke="white" stroke-linejoin="round"/><path d="M40.5708 82.1199L37.2307 84.0499C36.2807 84.5899 35.4808 84.6899 34.8408 84.3199C34.5208 84.1299 34.2808 83.8599 34.1208 83.4899C33.9608 83.1299 33.8809 82.6799 33.8809 82.1399C33.8809 81.1499 34.1409 80.1699 34.6709 79.1699L38.3909 81.0299L40.5708 82.1199Z" stroke="white" stroke-linejoin="round"/><path d="M47.2607 78.2495V82.0895C47.2607 83.1795 46.9408 84.2795 46.3008 85.3795C45.6608 86.4895 44.8609 87.3095 43.9209 87.8595C42.9709 88.4095 42.1708 88.4995 41.5308 88.1295C40.8908 87.7695 40.5708 87.0395 40.5708 85.9495V82.1195L38.3909 81.0295L34.6709 79.1695C34.7209 79.0595 34.7808 78.9595 34.8408 78.8495C35.4808 77.7395 36.2807 76.9195 37.2307 76.3695L40.1409 74.6895L43.3408 76.2895L47.2607 78.2495Z" stroke="white" stroke-linejoin="round"/><path d="M53.9504 70.5501C53.9504 71.6401 53.6305 72.7401 52.9905 73.8401C52.3505 74.9501 51.5606 75.7701 50.6106 76.3201L47.2605 78.2501L43.3406 76.2901L40.1406 74.6901L40.5706 74.4401V70.6001C40.5706 69.6101 40.8306 68.6201 41.3606 67.6201L45.6406 69.7601L47.2605 70.5701L50.6106 68.6401C51.5606 68.1001 52.3505 68.0101 52.9905 68.3701C53.6305 68.7401 53.9504 69.4601 53.9504 70.5501Z" stroke="white" stroke-linejoin="round"/><path d="M47.2612 66.7402V70.5701L45.6414 69.7601L41.3613 67.6202C41.4113 67.5202 41.4713 67.4102 41.5312 67.3102C42.1712 66.2002 42.9714 65.3801 43.9214 64.8301C44.5714 64.4501 45.1514 64.2902 45.6614 64.3502C45.8914 64.3802 46.1013 64.4402 46.3013 64.5602C46.9413 64.9202 47.2612 65.6502 47.2612 66.7402Z" stroke="white" stroke-linejoin="round"/><path d="M50.6106 37.9303C50.6106 38.2503 50.6005 38.5603 50.5605 38.8803C50.5605 38.9103 50.5605 38.9403 50.5505 38.9703C50.4505 39.9803 50.2105 41.0103 49.8105 42.0603C49.5105 42.8603 49.1206 43.6703 48.6406 44.4903C47.7606 46.0003 46.7706 47.2403 45.6606 48.2103C45.1106 48.7003 44.5307 49.1203 43.9207 49.4703C42.0807 50.5403 40.5004 50.6903 39.1904 49.9503C37.8804 49.2003 37.2305 47.7703 37.2305 45.6603C37.2305 43.5503 37.8804 41.3603 39.1904 39.1003C39.5604 38.4703 39.9506 37.8803 40.3606 37.3403C41.4106 35.9603 42.6007 34.8803 43.9207 34.1203C44.5307 33.7703 45.1106 33.5203 45.6606 33.3603C46.6006 33.1003 47.4605 33.1303 48.2305 33.4403L48.6406 33.6403C48.9506 33.8203 49.2204 34.0303 49.4504 34.2903C50.2204 35.1003 50.6106 36.3103 50.6106 37.9303Z" stroke="white" stroke-linejoin="round"/><path d="M48.2312 33.4395C47.4612 33.1295 46.6014 33.0996 45.6614 33.3596C45.1114 33.5196 44.5314 33.7696 43.9214 34.1196C42.6014 34.8796 41.4113 35.9595 40.3613 37.3395C39.9513 37.8795 39.5612 38.4695 39.1912 39.0995C37.8812 41.3595 37.2312 43.5495 37.2312 45.6595C37.2312 47.7695 37.8812 49.1995 39.1912 49.9495L28.8613 44.7896V38.9695L38.9712 33.1295L42.9912 30.8096L45.6614 32.1495L48.2312 33.4395Z" stroke="white" stroke-linejoin="round"/><path d="M58.9702 21.5898V46.6398L49.8103 42.0599C50.2103 41.0099 50.4503 39.9798 50.5503 38.9698C50.5603 38.9398 50.5603 38.9098 50.5603 38.8798C50.6003 38.5598 50.6104 38.2499 50.6104 37.9299C50.6104 36.3099 50.2202 35.0999 49.4502 34.2899C49.2202 34.0299 48.9504 33.8198 48.6404 33.6398L48.2302 33.4398L45.6604 32.1498L42.9902 30.8099L45.6604 29.2698L57.5203 22.4299L58.9702 21.5898Z" stroke="white" stroke-linejoin="round"/><path d="M58.9712 46.6395C57.9712 46.5095 56.9113 46.6096 55.7913 46.9296C54.6813 47.2596 53.5113 47.7696 52.2812 48.4796L45.6614 52.2996L35.5513 58.1395C34.9413 58.4995 34.3412 58.8796 33.7512 59.3096C33.1712 59.7196 32.6013 60.1695 32.0413 60.6495C31.4913 61.1195 30.9612 61.6296 30.4512 62.1696C29.9112 62.7496 29.3813 63.3595 28.8613 64.0195V44.7896L39.1912 49.9495C40.5012 50.6895 42.0814 50.5395 43.9214 49.4695C44.5314 49.1195 45.1114 48.6995 45.6614 48.2095C46.7714 47.2395 47.7614 45.9996 48.6414 44.4896C49.1214 43.6696 49.5113 42.8596 49.8113 42.0596L58.9712 46.6395Z" stroke="white" stroke-linejoin="round"/><path d="M82.8411 27.5295C82.2211 27.2795 81.5209 27.3795 80.7209 27.8395C79.8209 28.3595 79.0411 29.1895 78.3711 30.3495C77.7111 31.4995 77.3711 32.6095 77.3711 33.6595C77.3711 34.7095 77.7111 35.4395 78.3711 35.8195L67.991 30.6295L65.6611 29.4695V18.9395L82.8411 27.5295Z" stroke="white" stroke-linejoin="round"/><path d="M78.3706 46.37C77.7106 47.53 77.3706 48.6299 77.3706 49.6899C77.3706 50.7499 77.7106 51.46 78.3706 51.84L71.9404 48.62C72.0804 48.56 72.2106 48.49 72.3506 48.41L79.6306 44.21L78.3706 46.37Z" stroke="white" stroke-linejoin="round"/></svg>