<svg width="24" height="24" viewBox="0 0 99 117" xmlns="http://www.w3.org/2000/svg" stroke-width="1px" stroke-linecap="round" stroke-linejoin="round">
    <path d="M92.9116 54.3521L92.2717 54.0321C89.8717 52.9621 87.0217 53.3821 83.7317 55.2821C82.6217 55.9321 81.5517 56.7021 80.5317 57.6121C79.5117 58.5221 78.5416 59.5221 77.6116 60.6321L75.6016 59.5021L69.2217 55.9121L64.6716 53.3421L63.3315 52.5921V40.8821C66.0515 38.3921 68.2717 35.3521 70.0017 31.7621C71.7317 28.1721 72.6016 24.6721 72.6016 21.2721C72.6016 17.1521 71.3315 14.3721 68.8015 12.9221L68.1616 12.6021C65.7516 11.5421 62.9016 11.9621 59.6216 13.8621C56.0316 15.9321 52.9716 19.1521 50.4316 23.5321C47.9016 27.9021 46.6316 32.1421 46.6316 36.2621C46.6316 39.6721 47.5017 42.1621 49.2317 43.7521C49.6417 44.1321 50.0815 44.4421 50.5515 44.6821L50.9016 44.8621C52.3216 45.5221 53.9916 45.6221 55.9116 45.1721V56.8721L53.8616 60.4121L50.8716 65.5521L41.7117 81.3521C40.7917 81.3221 39.8017 81.4521 38.7517 81.7321C37.7017 82.0221 36.6117 82.4921 35.5017 83.1321C31.9117 85.2021 28.8515 88.4221 26.3215 92.7921C23.7815 97.1721 22.5117 101.412 22.5117 105.532C22.5117 109.652 23.7815 112.422 26.3215 113.872C28.8515 115.312 31.9117 115.002 35.5017 112.932C39.0917 110.862 42.1516 107.642 44.6816 103.272C47.2216 98.8921 48.4917 94.6521 48.4917 90.5321C48.4917 89.2621 48.3515 88.0921 48.0715 87.0521C47.7915 86.0021 47.4016 85.0921 46.9116 84.3121L52.6516 74.4121L58.2915 64.6921L59.2217 63.0921L59.6216 62.3921L65.1516 65.5521L70.7217 68.7321L72.3215 69.6421C71.8315 70.9921 71.4416 72.3521 71.1616 73.7121C70.8816 75.0821 70.7517 76.4021 70.7517 77.6821C70.7517 81.8021 72.0115 84.5821 74.5515 86.0221C77.0815 87.4721 80.1417 87.1521 83.7317 85.0821C87.3217 83.0121 90.3816 79.7921 92.9116 75.4221C95.4516 71.0521 96.7217 66.8021 96.7217 62.6921C96.7217 58.5821 95.4516 55.7921 92.9116 54.3521ZM39.4417 100.282C38.3617 102.142 37.0517 103.522 35.5017 104.422C33.9517 105.312 32.6415 105.452 31.5615 104.832C30.4815 104.212 29.9316 103.022 29.9316 101.242C29.9316 99.4621 30.4815 97.6521 31.5615 95.7821C32.6415 93.9221 33.9517 92.5421 35.5017 91.6421C37.0517 90.7521 38.3617 90.6121 39.4417 91.2321C40.5217 91.8521 41.0715 93.0421 41.0715 94.8221C41.0715 96.6021 40.5217 98.4121 39.4417 100.282ZM59.6216 35.1521C58.0716 36.0421 56.7616 36.1821 55.6716 35.5621C54.5916 34.9421 54.0515 33.7521 54.0515 31.9821C54.0515 30.2121 54.5916 28.3821 55.6716 26.5221C56.7616 24.6521 58.0716 23.2721 59.6216 22.3821C61.1616 21.4821 62.4815 21.3521 63.5615 21.9621C64.6415 22.5821 65.1816 23.7821 65.1816 25.5521C65.1816 27.3221 64.6415 29.1421 63.5615 31.0121C62.4815 32.8821 61.1616 34.2621 59.6216 35.1521ZM87.6716 72.4321C86.5916 74.3021 85.2817 75.6821 83.7317 76.5721C82.1817 77.4621 80.8715 77.6021 79.7915 76.9821C78.7115 76.3721 78.1716 75.1721 78.1716 73.4021C78.1716 71.6321 78.7115 69.8021 79.7915 67.9421C80.8715 66.0721 82.1817 64.6921 83.7317 63.8021C85.2817 62.9121 86.5916 62.7721 87.6716 63.3821C88.7516 64.0021 89.3015 65.2021 89.3015 66.9721C89.3015 68.7421 88.7516 70.5621 87.6716 72.4321Z" class="pr-icon-iso-solid-stroke" stroke-linejoin="round"/>
    <path d="M41.0715 94.8221C41.0715 96.5921 40.5217 98.4121 39.4417 100.282C38.3617 102.142 37.0517 103.522 35.5017 104.422C33.9517 105.312 32.6415 105.452 31.5615 104.832C30.4815 104.212 29.9316 103.022 29.9316 101.242C29.9316 99.4621 30.4815 97.6521 31.5615 95.7821C32.6415 93.9221 33.9517 92.5421 35.5017 91.6421C37.0517 90.7521 38.3617 90.6121 39.4417 91.2321C40.5217 91.8521 41.0715 93.0421 41.0715 94.8221Z" class="pr-icon-iso-solid-stroke" stroke-linejoin="round"/>
    <path d="M89.3015 66.9719C89.3015 68.7419 88.7516 70.5619 87.6716 72.4319C86.5916 74.3019 85.2817 75.6819 83.7317 76.5719C82.1817 77.4619 80.8715 77.6019 79.7915 76.9819C78.7115 76.3719 78.1716 75.1719 78.1716 73.4019C78.1716 71.6319 78.7115 69.8019 79.7915 67.9419C80.8715 66.0719 82.1817 64.6919 83.7317 63.8019C85.2817 62.9119 86.5916 62.7719 87.6716 63.3819C88.7516 64.0019 89.3015 65.2019 89.3015 66.9719Z" class="pr-icon-iso-solid-stroke" stroke-linejoin="round"/>
    <path d="M65.1816 25.552C65.1816 27.322 64.6415 29.142 63.5615 31.012C62.4815 32.882 61.1616 34.262 59.6216 35.152C58.0716 36.042 56.7616 36.182 55.6716 35.562C54.5916 34.942 54.0515 33.752 54.0515 31.982C54.0515 30.212 54.5916 28.382 55.6716 26.522C56.7616 24.652 58.0716 23.272 59.6216 22.382C61.1616 21.482 62.4815 21.352 63.5615 21.962C64.6415 22.582 65.1816 23.782 65.1816 25.552Z" class="pr-icon-iso-solid-stroke" stroke-linejoin="round"/>
    <path d="M92.2717 54.032C89.8717 52.962 87.0217 53.382 83.7317 55.282C82.6217 55.932 81.5517 56.702 80.5317 57.612C79.5117 58.522 78.5416 59.522 77.6116 60.632L75.6016 59.502L69.2217 55.912L64.6716 53.342L63.3315 52.592V45.532C63.4615 45.442 63.5917 45.362 63.7317 45.282C67.3217 43.212 70.3816 42.902 72.9116 44.352L92.2717 54.032Z" class="pr-icon-iso-solid-stroke" stroke-linejoin="round"/>
    <path d="M68.1616 12.6022C65.7516 11.5422 62.9016 11.9622 59.6216 13.8622C56.0316 15.9322 52.9716 19.1522 50.4316 23.5322C47.9016 27.9022 46.6316 32.1422 46.6316 36.2622C46.6316 39.6722 47.5017 42.1622 49.2317 43.7522C49.6417 44.1322 50.0815 44.4422 50.5515 44.6822L43.3315 41.0822L35.9116 37.3722L30.9016 34.8622L30.5515 34.6822C30.0815 34.4422 29.6417 34.1322 29.2317 33.7522C27.5017 32.1622 26.6316 29.6722 26.6316 26.2622C26.6316 22.1422 27.9016 17.9022 30.4316 13.5322C32.9716 9.15219 36.0316 5.93217 39.6216 3.86217C43.2016 1.79217 46.2615 1.48217 48.8015 2.92217L68.1616 12.6022Z" class="pr-icon-iso-solid-stroke" stroke-linejoin="round"/>
    <path d="M51.1216 44.9723L50.9016 44.8623" class="pr-icon-iso-solid-stroke" stroke-linejoin="round"/>
    <path d="M30.5515 34.682L30.3015 34.562" class="pr-icon-iso-solid-stroke" stroke-linejoin="round"/>
    <path d="M55.9116 45.1721V56.8721L35.9116 46.8721V37.3721L43.3315 41.0821L50.5515 44.6821L50.9016 44.8621C52.3216 45.5221 53.9916 45.6221 55.9116 45.1721Z" class="pr-icon-iso-solid-stroke" stroke-linejoin="round"/>
    <path d="M55.9116 56.8721L53.8616 60.4121L50.8716 65.5521L41.7117 81.3521L21.7117 71.3521L35.9116 46.8721L55.9116 56.8721Z" class="pr-icon-iso-solid-stroke" stroke-linejoin="round"/>
    <path d="M41.7117 81.3524C40.7917 81.3224 39.8017 81.4524 38.7517 81.7324C37.7017 82.0224 36.6117 82.4924 35.5017 83.1324C31.9117 85.2024 28.8515 88.4224 26.3215 92.7924C23.7815 97.1724 22.5117 101.412 22.5117 105.532C22.5117 109.652 23.7815 112.422 26.3215 113.872L6.32153 103.872C3.78153 102.422 2.51172 99.6424 2.51172 95.5324C2.51172 91.4224 3.78153 87.1724 6.32153 82.7924C8.85153 78.4224 11.9117 75.2024 15.5017 73.1324C16.6117 72.4924 17.7017 72.0224 18.7517 71.7324C19.8017 71.4524 20.7917 71.3224 21.7117 71.3524L41.7117 81.3524Z" class="pr-icon-iso-solid-stroke" stroke-linejoin="round"/>
    <path d="M72.3215 69.6421L70.6616 68.8121L64.7717 65.8721L59.2217 63.0921L59.6216 62.3921L65.1516 65.5521L70.7217 68.7321L72.3215 69.6421Z" class="pr-icon-iso-solid-stroke" stroke-linejoin="round"/>
    <path d="M74.5515 86.0223L54.5515 76.0223C53.8115 75.6023 53.1716 75.0623 52.6516 74.4123L58.2915 64.6923L59.2217 63.0923L64.7717 65.8723L70.6616 68.8123L72.3215 69.6423C71.8315 70.9923 71.4416 72.3523 71.1616 73.7123C70.8816 75.0823 70.7517 76.4023 70.7517 77.6823C70.7517 81.8023 72.0115 84.5823 74.5515 86.0223Z" class="pr-icon-iso-solid-stroke" stroke-linejoin="round"/>
</svg>