<svg width="48" height="48" viewBox="0 0 93 111" xmlns="http://www.w3.org/2000/svg" stroke-width="1px"
     stroke-linecap="round" stroke-linejoin="round">
    <path d="M42.7708 40.75L39.8606 42.4301L30.3606 47.91L29.1807 48.5901C27.3107 49.6701 25.7106 51.36 24.3806 53.66C23.0506 55.95 22.3906 58.1701 22.3906 60.3201V103.21C22.3906 105.35 23.0506 106.8 24.3806 107.56L4.38062 97.5601C3.05062 96.8001 2.39062 95.3501 2.39062 93.2101V50.3201C2.39062 48.1701 3.05062 45.95 4.38062 43.66C5.71062 41.36 7.31066 39.6701 9.18066 38.5901L22.7708 30.75L42.7708 40.75Z" class="pr-icon-iso-solid-stroke" stroke-linejoin="round"/>
    <path d="M88.3506 16.73C87.0206 15.97 85.4208 16.1301 83.5508 17.2101L70.3406 24.8301L69.9607 25.0501V17.2501C69.9607 15.1101 69.2907 13.6601 67.9607 12.9001C66.6307 12.1401 65.0306 12.3001 63.1606 13.3801L49.5706 21.23C49.2906 21.39 49.0107 21.5701 48.7407 21.7701C47.2207 22.8301 45.9008 24.3401 44.7708 26.2901C43.4408 28.5801 42.7708 30.8001 42.7708 32.9501V40.7501L39.8606 42.4301L30.3606 47.9101L29.1807 48.5901C27.3107 49.6701 25.7106 51.3601 24.3806 53.6601C23.0506 55.9501 22.3906 58.1701 22.3906 60.3201V103.21C22.3906 105.35 23.0506 106.8 24.3806 107.56C25.7106 108.32 27.3107 108.16 29.1807 107.08L83.5508 75.6901C85.4208 74.6101 87.0206 72.9301 88.3506 70.6301C89.6806 68.3301 90.3406 66.11 90.3406 63.97V21.0801C90.3406 18.9401 89.6806 17.48 88.3506 16.73ZM49.5706 29.0301L55.9207 25.36L63.1606 21.1801V28.98L49.5706 36.8201V29.0301ZM64.1807 60.36L59.8606 67.8201L55.3506 75.6C54.7206 76.67 53.9307 77.4901 52.9707 78.0401C52.0107 78.6001 51.2106 78.7 50.5906 78.35C49.9706 77.99 49.6606 77.2601 49.6606 76.1601C49.6606 75.1901 49.9006 74.2401 50.3606 73.3001C50.4406 73.1601 50.5106 73.0301 50.5906 72.8901L57.0508 61.7501L50.5906 58.0701C49.9706 57.7101 49.6606 56.9801 49.6606 55.8801C49.6606 54.7801 49.9706 53.69 50.5906 52.61C51.2106 51.54 52.0107 50.7201 52.9707 50.1701C53.9307 49.6101 54.7206 49.51 55.3506 49.86L64.1807 54.9001C64.8607 55.2901 65.2007 56.0001 65.2007 57.0401C65.2007 58.0801 64.8607 59.19 64.1807 60.36Z" class="pr-icon-iso-solid-stroke" stroke-linejoin="round"/>
    <path d="M65.2002 57.0399C65.2002 58.0799 64.8602 59.1898 64.1802 60.3598L59.8601 67.8199L55.3501 75.5998C54.7201 76.6698 53.9302 77.4899 52.9702 78.0399C52.0102 78.5999 51.2101 78.6998 50.5901 78.3498C49.9701 77.9898 49.6602 77.2599 49.6602 76.1599C49.6602 75.1899 49.9001 74.2399 50.3601 73.2999C50.4401 73.1599 50.5101 73.0298 50.5901 72.8898L57.0503 61.7498L50.5901 58.0699C49.9701 57.7099 49.6602 56.9798 49.6602 55.8798C49.6602 54.7798 49.9701 53.6898 50.5901 52.6098C51.2101 51.5398 52.0102 50.7199 52.9702 50.1699C53.9302 49.6099 54.7201 49.5098 55.3501 49.8598L64.1802 54.8999C64.8602 55.2899 65.2002 55.9999 65.2002 57.0399Z" class="pr-icon-iso-solid-stroke" stroke-linejoin="round"/>
    <path d="M63.1604 28.9799L49.5703 36.8199V29.0299L55.9204 25.3599L63.1604 28.9799Z" class="pr-icon-iso-solid-stroke" stroke-linejoin="round"/>
    <path d="M63.1599 21.1802V28.9801L55.9199 25.3601L63.1599 21.1802Z" class="pr-icon-iso-solid-stroke" stroke-linejoin="round"/>
    <path d="M88.3506 16.7301C87.0206 15.9701 85.4208 16.1302 83.5508 17.2102L70.3406 24.8302L69.9607 25.0502V17.2501C69.9607 15.1101 69.2907 13.6602 67.9607 12.9002L60.3105 9.08021L63.5508 7.21021C65.4208 6.13021 67.0206 5.97011 68.3506 6.73011L88.3506 16.7301Z" class="pr-icon-iso-solid-stroke" stroke-linejoin="round"/>
    <path d="M67.9614 12.9001C66.6314 12.1401 65.0314 12.3001 63.1614 13.3801L49.5713 21.23C49.2913 21.39 49.0115 21.5701 48.7415 21.7701C47.2215 22.8301 45.9015 24.3401 44.7715 26.2901C43.4415 28.5801 42.7715 30.8001 42.7715 32.9501V40.7501L22.7715 30.7501V22.9501C22.7715 20.8001 23.4415 18.5801 24.7715 16.2901C26.1015 13.9901 27.7013 12.31 29.5713 11.23L43.1614 3.38006C45.0314 2.30006 46.6314 2.14008 47.9614 2.90008L60.3113 9.08013L67.9614 12.9001Z" class="pr-icon-iso-solid-stroke" stroke-linejoin="round"/>
</svg>