<svg width="48" height="48" viewBox="0 0 90 111" fill="#229EFF" xmlns="http://www.w3.org/2000/svg" stroke-width="1px" stroke-linecap="round" stroke-linejoin="round"><path d="M74.8552 79.9607L63.2252 74.1407L60.7852 72.9307L61.6451 72.4307L64.1251 73.8507L74.8552 79.9607Z" stroke="white" stroke-linejoin="round"/><path d="M87.8953 77.75C87.8953 78.8 87.5552 79.92 86.8652 81.1C86.1752 82.28 85.3653 83.15 84.4253 83.69C83.4753 84.24 82.6653 84.32 81.9753 83.92L78.2552 81.87C78.2552 81.87 78.2452 81.89 78.2452 81.9C77.8752 82.54 77.4053 83.02 76.8353 83.35C76.2553 83.68 75.7853 83.74 75.4153 83.53C75.0453 83.32 74.8553 82.88 74.8553 82.23V79.96L64.1252 73.85L61.6453 72.43L60.7853 72.93L60.4853 73.1L57.7353 74.69L57.4753 74.84L54.2753 76.69C52.3353 77.8 50.7453 78 49.4853 77.27L49.3353 77.19C49.0153 76.98 48.7152 76.7 48.4352 76.37C47.2052 74.87 46.9453 72.72 47.6453 69.93C47.7253 69.61 47.8153 69.28 47.9253 68.94L48.7353 66.47L49.1252 65.29L23.6453 50.77C22.9653 50.38 22.6152 49.64 22.6152 48.56C22.6152 47.48 22.9653 46.34 23.6453 45.16C24.3353 43.97 25.1453 43.11 26.0953 42.56C26.1653 42.52 26.2353 42.48 26.2953 42.46C27.0553 42.06 27.7352 41.98 28.3152 42.22L28.5353 42.33L86.8652 75.59C87.5552 75.98 87.8953 76.7 87.8953 77.75Z" stroke="white" stroke-linejoin="round"/><path d="M81.715 58.8704V61.4304L72.625 56.2504L74.855 54.9604C76.545 53.9804 78.015 53.7504 79.275 54.2704L79.705 54.4804C81.045 55.2404 81.715 56.7104 81.715 58.8704Z" stroke="white" stroke-linejoin="round"/><path d="M70.7452 42.9707L68.7752 49.0207L67.3952 53.2707L61.7152 50.0307L53.8552 45.5407L50.3252 43.5307L64.3952 35.4107C66.1952 34.3707 67.7052 34.0907 68.9052 34.5907L69.2952 34.7807C69.6452 34.9807 69.9752 35.2607 70.2652 35.6107C71.6152 37.2307 71.7652 39.6807 70.7452 42.9707Z" stroke="white" stroke-linejoin="round"/><path d="M31.9752 79.4404C31.7552 79.8704 31.5151 80.3004 31.2651 80.7304C31.1751 80.8804 31.0851 81.0304 30.9951 81.1804C31.2651 80.6704 31.5452 80.1604 31.8452 79.6504C31.8852 79.5804 31.9252 79.5104 31.9752 79.4404Z" stroke="white" stroke-linejoin="round"/><path d="M75.8455 12.9402C74.5955 12.4202 73.1255 12.6602 71.4255 13.6402C69.5355 14.7202 67.9254 16.4302 66.5754 18.7502C65.2354 21.0602 64.5654 23.3102 64.5654 25.4702C64.5654 27.6302 65.2354 29.1002 66.5754 29.8702L46.5754 19.8702C45.2354 19.1002 44.5654 17.6402 44.5654 15.4702C44.5654 13.3002 45.2354 11.0602 46.5754 8.75022C47.9254 6.43022 49.5355 4.72022 51.4255 3.64022C53.3155 2.55022 54.9255 2.38022 56.2755 3.15022L75.8455 12.9402Z" stroke="white" stroke-linejoin="round"/><path d="M78.2855 17.5505C78.2855 19.7105 77.6155 21.9505 76.2755 24.2705C74.9255 26.5905 73.3155 28.2905 71.4255 29.3805C69.5355 30.4705 67.9254 30.6305 66.5754 29.8705C65.2354 29.1005 64.5654 27.6405 64.5654 25.4705C64.5654 23.3005 65.2354 21.0605 66.5754 18.7505C67.9254 16.4305 69.5355 14.7205 71.4255 13.6405C73.1255 12.6605 74.5955 12.4205 75.8455 12.9405L76.2755 13.1505C77.6155 13.9205 78.2855 15.3805 78.2855 17.5505Z" stroke="white" stroke-linejoin="round"/><path d="M43.9753 74.52V66.89L38.5853 64.2L27.9453 58.88L29.1253 55.29L49.1253 65.29L48.7354 66.47L47.9254 68.94C47.8154 69.28 47.7253 69.61 47.6453 69.93C46.9453 72.72 47.2053 74.87 48.4353 76.37C48.7153 76.7 49.0153 76.98 49.3353 77.19L43.9753 74.52Z" stroke="white" stroke-linejoin="round"/><path d="M43.9752 66.8896C43.6152 67.0996 43.2552 67.3197 42.8952 67.5497C42.2652 67.9497 41.6452 68.3896 41.0452 68.8496C39.9852 69.6496 38.9652 70.5396 37.9852 71.5196C37.7652 71.7296 37.5552 71.9496 37.3552 72.1696C35.4052 74.2196 33.6252 76.6097 32.0152 79.3697C31.9952 79.3897 31.9852 79.4097 31.9752 79.4397C31.9252 79.5097 31.8852 79.5797 31.8452 79.6497C31.5452 80.1597 31.2652 80.6696 30.9952 81.1796C30.9652 81.2396 30.9252 81.2997 30.8852 81.3697C28.5752 85.7797 27.2552 90.0797 26.9152 94.2997C26.8552 95.0297 26.8252 95.7597 26.8252 96.4797C26.8252 101.92 28.4952 105.6 31.8452 107.51L12.6452 97.9097L11.8452 97.5097C8.49521 95.5997 6.8252 91.9197 6.8252 86.4797C6.8252 81.0397 8.49521 75.4197 11.8452 69.6497C15.1852 63.8797 19.2352 59.6296 23.9752 56.8896L27.9452 58.8796L38.5852 64.1996L43.9752 66.8896Z" stroke="white" stroke-linejoin="round"/><path d="M81.715 61.43L61.715 51.43L52.625 46.25L61.715 50.8L72.625 56.25L81.715 61.43Z" stroke="white" stroke-linejoin="round"/><path d="M37.0453 81.7998C36.7553 82.3598 36.4453 82.9198 36.1153 83.4898C36.0753 83.5598 36.0354 83.6298 35.9854 83.6998C36.2054 83.2698 36.4353 82.8398 36.6853 82.4098C36.8053 82.1998 36.9253 81.9998 37.0453 81.7998Z" stroke="white" stroke-linejoin="round"/><path d="M76.2757 13.1504L75.8457 12.9404" stroke="white" stroke-linejoin="round"/><path d="M68.9052 34.5899C67.7052 34.0899 66.1952 34.3699 64.3952 35.4099L50.3252 43.5299L47.7352 42.2299L30.3252 33.5299L44.3952 25.4099C46.3152 24.3099 47.8852 24.0599 49.1152 24.6799L49.2152 24.7299L68.9052 34.5899Z" stroke="white" stroke-linejoin="round"/><path d="M49.2153 24.7307L49.1152 24.6807" stroke="white" stroke-linejoin="round"/><path d="M67.3952 53.2703L61.7152 50.4303L52.9652 46.0503L47.3952 43.2703L30.3252 33.5303L47.7352 42.2303L50.3252 43.5303L53.8552 45.5403L61.7152 50.0303L67.3952 53.2703Z" stroke="white" stroke-linejoin="round"/><path d="M79.275 54.2698C78.015 53.7498 76.545 53.9798 74.855 54.9598L72.625 56.2498L61.715 50.7998L52.625 46.2498L52.965 46.0498L61.715 50.4298L67.395 53.2698L68.775 49.0198L79.275 54.2698Z" stroke="white" stroke-linejoin="round"/><path d="M49.1252 65.2903L29.1252 55.2903L3.64526 40.7703C2.96526 40.3803 2.61523 39.6403 2.61523 38.5603C2.61523 37.4803 2.96526 36.3403 3.64526 35.1603C4.33526 33.9703 5.14528 33.1103 6.09528 32.5603C7.03528 32.0203 7.85528 31.9403 8.53528 32.3303L28.3152 42.2203C27.7352 41.9803 27.0553 42.0603 26.2953 42.4603C26.2353 42.4803 26.1653 42.5203 26.0953 42.5603C25.1453 43.1103 24.3353 43.9703 23.6453 45.1603C22.9653 46.3403 22.6152 47.4703 22.6152 48.5603C22.6152 49.6503 22.9653 50.3803 23.6453 50.7703L49.1252 65.2903Z" stroke="white" stroke-linejoin="round"/><path d="M75.4153 83.5307L57.7354 74.6907L60.4854 73.1007L60.7853 72.9307L63.2253 74.1407L74.8553 79.9607V82.2307C74.8553 82.8807 75.0453 83.3207 75.4153 83.5307Z" stroke="white" stroke-linejoin="round"/><path d="M61.1352 76.6706C61.1352 82.1106 59.4652 87.7206 56.1152 93.4906C52.7752 99.2606 48.7252 103.521 43.9752 106.261C39.2352 109.001 35.1852 109.411 31.8452 107.511C28.4952 105.601 26.8252 101.921 26.8252 96.4806C26.8252 95.7606 26.8552 95.0306 26.9152 94.3006C27.2552 90.0806 28.5752 85.7806 30.8852 81.3706C30.9252 81.3006 30.9652 81.2406 30.9952 81.1806C31.0852 81.0306 31.1752 80.8806 31.2652 80.7306C31.5152 80.3006 31.7552 79.8706 31.9752 79.4406C31.9852 79.4106 31.9952 79.3906 32.0152 79.3706C33.6252 76.6106 35.4052 74.2206 37.3552 72.1706C37.5552 71.9506 37.7652 71.7306 37.9852 71.5206C38.9652 70.5406 39.9852 69.6506 41.0452 68.8506C41.6452 68.3906 42.2652 67.9506 42.8952 67.5506C43.2552 67.3206 43.6152 67.1006 43.9752 66.8906V74.7606C43.7552 74.8906 43.5352 75.0206 43.3252 75.1606C40.9152 76.7006 38.8352 78.9006 37.0652 81.7706C37.0652 81.7806 37.0552 81.7906 37.0452 81.8006C36.9252 82.0006 36.8052 82.2006 36.6852 82.4106C36.4352 82.8406 36.2052 83.2706 35.9852 83.7006C35.9652 83.7406 35.9452 83.7806 35.9252 83.8206C34.4252 86.7806 33.6852 89.6806 33.6852 92.5106C33.6852 95.7906 34.6852 98.0106 36.6852 99.1506C38.6852 100.291 41.1152 100.031 43.9752 98.3806C46.8352 96.7306 49.2652 94.1806 51.2652 90.7306C53.2752 87.2806 54.2752 83.9106 54.2752 80.6306L61.1352 76.6706Z" stroke="white" stroke-linejoin="round"/><path d="M61.1352 76.6705L54.2752 80.6305L43.3252 75.1605C43.5352 75.0205 43.7552 74.8905 43.9752 74.7605V74.5205L49.3352 77.1905L49.4852 77.2705C50.7452 78.0005 52.3352 77.8005 54.2752 76.6905L57.4752 74.8405L61.1352 76.6705Z" stroke="white" stroke-linejoin="round"/><path d="M61.1348 77.2699V76.6699" stroke="white" stroke-linejoin="round"/><path d="M54.2756 80.6301C54.2756 83.9101 53.2756 87.2802 51.2656 90.7302C49.2656 94.1802 46.8356 96.7301 43.9756 98.3801C41.1156 100.03 38.6855 100.29 36.6855 99.1502C34.6855 98.0102 33.6855 95.7902 33.6855 92.5102C33.6855 89.6802 34.4256 86.7802 35.9256 83.8202C35.9456 83.7802 35.9656 83.7401 35.9856 83.7001C36.0356 83.6301 36.0755 83.5602 36.1155 83.4902C36.4455 82.9202 36.7556 82.3602 37.0456 81.8002C37.0456 81.7902 37.0656 81.7801 37.0656 81.7701C38.8356 78.9001 40.9156 76.7002 43.3256 75.1602L54.2756 80.6301Z" stroke="white" stroke-linejoin="round"/></svg>