<svg width="24" height="24" viewBox="0 0 95 123" xmlns="http://www.w3.org/2000/svg" stroke-width="1px" stroke-linecap="round" stroke-linejoin="round">
    <path d="M91.0999 50.6965L90.8899 50.5965C90.2299 50.3265 89.44 50.4665 88.51 50.9965C87.48 51.5865 86.6199 52.4865 85.9199 53.6865C85.2299 54.8865 84.8799 56.0765 84.8799 57.2565V69.6565C84.8799 70.8765 85.17 71.6665 85.75 72.0465L86.01 72.1765C86.77 72.4665 87.6 72.3565 88.51 71.8265C89.42 71.3065 90.25 70.4765 91.01 69.3465C91.76 68.2165 92.1399 66.9565 92.1399 65.5665V53.0665C92.1399 51.8865 91.7899 51.0965 91.0999 50.6965Z" class="pr-icon-iso-solid-stroke" stroke-linejoin="round"/>
    <path d="M59.46 34.4364C59.46 35.6164 59.1099 36.8064 58.4199 38.0064C57.7199 39.2064 56.8598 40.1064 55.8298 40.6964L51.1899 43.3764L44.9399 46.9864C44.4999 47.2364 44.1 47.4164 43.74 47.4964C43.11 47.6664 42.6 47.5864 42.21 47.2564C41.61 46.7364 41.2998 45.9564 41.2998 44.9164C41.2998 43.8764 41.61 42.7464 42.21 41.5264C42.82 40.3064 43.7299 39.3464 44.9399 38.6564L48.27 36.7364L55.8298 32.3664C56.5998 31.9164 57.2799 31.7464 57.8599 31.8664C57.9599 31.8864 58.0599 31.9064 58.1499 31.9364L58.4199 32.0664C59.1099 32.4664 59.46 33.2564 59.46 34.4364Z" class="pr-icon-iso-solid-stroke" stroke-linejoin="round"/>
    <path d="M22.21 37.2563C22.38 37.3963 22.57 37.4963 22.78 37.5463L22.21 37.2563Z" class="pr-icon-iso-solid-stroke" stroke-linejoin="round"/>
    <path d="M28.9102 120.456L9.36011 110.676L8.91016 110.456C7.49016 109.646 6.78027 108.096 6.78027 105.806V51.0063L26.7803 61.0063V115.806C26.7803 118.096 27.4902 119.646 28.9102 120.456Z" class="pr-icon-iso-solid-stroke" stroke-linejoin="round"/>
    <path d="M23.4202 53.1562C22.6902 54.4062 22.3301 55.6062 22.3301 56.7562C22.3301 57.9062 22.6902 58.6762 23.4202 59.0962L26.7803 61.0062L6.78027 51.0062L3.42017 49.0962C2.69017 48.6762 2.33008 47.8962 2.33008 46.7562C2.33008 45.6162 2.69017 44.4062 3.42017 43.1562C4.15017 41.9062 5.01025 40.9862 6.01025 40.4162C7.01025 39.8362 7.8701 39.7562 8.6001 40.1662L28.3701 50.0562C27.7701 49.8062 27.0801 49.8762 26.3101 50.2662C26.2101 50.3062 26.1103 50.3562 26.0103 50.4162C25.0103 50.9862 24.1502 51.9062 23.4202 53.1562Z" class="pr-icon-iso-solid-stroke" stroke-linejoin="round"/>
    <path d="M79.8 26.8563L73.9402 36.9663L71.6201 40.9563L71.55 41.0663L64.8801 52.5763L64.6301 53.0063C63.9701 54.1563 63.6401 55.3263 63.6401 56.5063C63.6401 57.6863 63.9701 58.4663 64.6301 58.8463L44.8301 48.9463L44.6301 48.8463C44.1801 48.5863 43.8802 48.1363 43.7402 47.4963C44.1002 47.4163 44.5002 47.2363 44.9402 46.9863L51.1902 43.3763L55.8301 40.6963C56.8601 40.1063 57.7202 39.2063 58.4202 38.0063C59.1102 36.8063 59.4602 35.6163 59.4602 34.4363C59.4602 33.2563 59.1102 32.4663 58.4202 32.0663L58.1501 31.9363L57.9001 31.8063L52.6501 29.1863L54.5103 25.9763L59.7502 28.5963L64.9202 31.1863L67.7703 32.6063C67.9303 32.6963 68.0903 32.7563 68.2603 32.7963C68.8503 32.9363 69.5601 32.7763 70.3501 32.3063L79.8 26.8563Z" class="pr-icon-iso-solid-stroke" stroke-linejoin="round"/>
    <path d="M92.1406 15.5663V36.3963C92.1406 37.5763 91.7906 38.7663 91.1006 39.9663C90.4006 41.1663 89.5407 42.0663 88.5107 42.6663C87.5807 43.1963 86.7906 43.3263 86.1406 43.0663L85.9207 42.9563C85.2307 42.5563 84.8806 41.7763 84.8806 40.5963V29.7563L79.1807 39.5863L76.8706 43.5763L72.1406 51.7363L69.7207 55.9063C69.0507 57.0563 68.2107 57.9263 67.1807 58.5163C66.2707 59.0463 65.5106 59.1963 64.8806 58.9663C64.7906 58.9363 64.7106 58.8963 64.6306 58.8463C63.9706 58.4663 63.6406 57.6863 63.6406 56.5063C63.6406 55.3263 63.9706 54.1563 64.6306 53.0063L64.8806 52.5763L71.5505 41.0663L71.6206 40.9563L73.9407 36.9663L79.8005 26.8563L70.3506 32.3063C69.5606 32.7763 68.8507 32.9363 68.2607 32.7963C68.0907 32.7563 67.9308 32.6963 67.7708 32.6063C67.0708 32.2063 66.7207 31.4163 66.7207 30.2363C66.7207 29.0563 67.0708 27.8663 67.7708 26.6663C68.4608 25.4663 69.3306 24.5663 70.3506 23.9763L72.1406 22.9463L88.5107 13.4963C89.4407 12.9563 90.2306 12.8263 90.8806 13.0863L91.1006 13.1963C91.7906 13.5963 92.1406 14.3863 92.1406 15.5663Z" class="pr-icon-iso-solid-stroke" stroke-linejoin="round"/>
    <path d="M90.8806 13.0864C90.2306 12.8264 89.4407 12.9564 88.5107 13.4964L72.1406 22.9464L70.3506 23.9764C69.3306 24.5664 68.4608 25.4664 67.7708 26.6664C67.0708 27.8664 66.7207 29.0564 66.7207 30.2364C66.7207 31.4164 67.0708 32.2064 67.7708 32.6064L64.9207 31.1864L59.7507 28.5964L54.5107 25.9764L47.9807 22.7064L47.7708 22.6064C47.0708 22.2064 46.7207 21.4164 46.7207 20.2364C46.7207 19.0564 47.0708 17.8664 47.7708 16.6664C48.4608 15.4664 49.3306 14.5664 50.3506 13.9764L68.5107 3.49638C69.5407 2.89638 70.4006 2.80637 71.1006 3.19637L90.8806 13.0864Z" class="pr-icon-iso-solid-stroke" stroke-linejoin="round"/>
    <path d="M85.9197 42.9563L79.1797 39.5863L84.8796 29.7563V40.5963C84.8796 41.7763 85.2297 42.5563 85.9197 42.9563Z" class="pr-icon-iso-solid-stroke" stroke-linejoin="round"/>
    <path d="M79.1799 39.5864L79.1299 39.5564" class="pr-icon-iso-solid-stroke" stroke-linejoin="round"/>
    <path d="M90.8899 50.5964C90.2299 50.3264 89.44 50.4664 88.51 50.9964C87.48 51.5864 86.6199 52.4864 85.9199 53.6864C85.2299 54.8864 84.8799 56.0764 84.8799 57.2564V69.6564C84.8799 70.8764 85.17 71.6664 85.75 72.0464L66.01 62.1764C65.26 61.8864 64.8799 61.0464 64.8799 59.6564V58.9664C65.5099 59.1964 66.2699 59.0464 67.1799 58.5164C68.2099 57.9264 69.05 57.0564 69.72 55.9064L72.1399 51.7364L76.8699 43.5764L90.8899 50.5964Z" class="pr-icon-iso-solid-stroke" stroke-linejoin="round"/>
    <path d="M91.1006 50.6964L90.8906 50.5964" class="pr-icon-iso-solid-stroke" stroke-linejoin="round"/>
    <path d="M86.01 72.1764L85.75 72.0464" class="pr-icon-iso-solid-stroke" stroke-linejoin="round"/>
    <path d="M57.8999 31.8064L57.8599 31.8664C57.2799 31.7464 56.5998 31.9164 55.8298 32.3664L48.27 36.7364L44.9399 38.6564C43.7299 39.3464 42.82 40.3064 42.21 41.5264C41.61 42.7464 41.2998 43.8764 41.2998 44.9164C41.2998 45.9564 41.61 46.7364 42.21 47.2564L22.7998 37.5464H22.78L22.21 37.2564C21.61 36.7364 21.2998 35.9564 21.2998 34.9164C21.2998 33.8764 21.61 32.7464 22.21 31.5264C22.82 30.3064 23.7299 29.3464 24.9399 28.6564L35.8298 22.3664C36.8598 21.7664 37.7199 21.6664 38.4199 22.0664L52.6499 29.1864L57.8999 31.8064Z" class="pr-icon-iso-solid-stroke" stroke-linejoin="round"/>
    <path d="M90.3301 85.3664L28.6001 50.1664L28.3701 50.0564C27.7701 49.8064 27.0801 49.8764 26.3101 50.2664C26.2101 50.3064 26.1103 50.3564 26.0103 50.4164C25.0103 50.9864 24.1502 51.9064 23.4202 53.1564C22.6902 54.4064 22.3301 55.6064 22.3301 56.7564C22.3301 57.9064 22.6902 58.6764 23.4202 59.0964L26.7803 61.0064V115.806C26.7803 118.096 27.4902 119.646 28.9102 120.456C30.3402 121.266 32.04 121.096 34.04 119.946L81.6702 92.4464L81.79 92.3764L85.1501 94.1864C85.8801 94.5964 86.7402 94.5164 87.7402 93.9464C88.7402 93.3664 89.6001 92.4464 90.3301 91.1964C91.0501 89.9464 91.4102 88.7664 91.4102 87.6564C91.4102 86.5464 91.0501 85.7764 90.3301 85.3664ZM73.9402 88.5764L34.04 111.606V65.1464L51.7402 75.2464L51.1301 76.2964L48.5701 80.7264C48.3201 81.1564 48.1202 81.5864 47.9602 82.0264C47.7002 82.7464 47.5701 83.4764 47.5701 84.2164C47.5701 85.3964 47.9001 86.1764 48.5701 86.5564C49.2301 86.9364 50.0801 86.8264 51.1101 86.2364C52.1401 85.6464 52.9801 84.7664 53.6501 83.6264L56.8301 78.1464L67.3501 84.1464L74.5303 88.2364L73.9402 88.5764Z" class="pr-icon-iso-solid-stroke" stroke-linejoin="round"/>
    <path d="M74.5303 88.2365L73.9402 88.5765L34.04 111.606V90.0665L44.04 84.2865L48.5701 86.5565C49.2301 86.9365 50.0801 86.8265 51.1101 86.2365C52.1401 85.6465 52.9801 84.7665 53.6501 83.6265L56.8301 78.1465L67.3501 84.1465L74.5303 88.2365Z" class="pr-icon-iso-solid-stroke" stroke-linejoin="round"/>
    <path d="M51.7402 75.2465L51.1301 76.2965L48.5701 80.7265C48.3201 81.1565 48.1202 81.5865 47.9602 82.0265C47.7002 82.7465 47.5701 83.4765 47.5701 84.2165C47.5701 85.3965 47.9001 86.1765 48.5701 86.5565L44.04 84.2865L34.04 79.2965V65.1465L51.7402 75.2465Z" class="pr-icon-iso-solid-stroke" stroke-linejoin="round"/>
    <path d="M85.1499 94.1863L81.6699 92.4463" class="pr-icon-iso-solid-stroke" stroke-linejoin="round"/>
</svg>