<svg width="24" height="24" viewBox="0 0 88 121" xmlns="http://www.w3.org/2000/svg" stroke-width="1px" stroke-linecap="round" stroke-linejoin="round">
    <path d="M85.8 14.5598V38.9398C85.8 40.0898 85.4601 41.2498 84.7801 42.4198C84.1001 43.5898 83.2601 44.4598 82.2601 45.0398C81.2601 45.6198 80.4101 45.7198 79.7401 45.3298C79.0601 44.9398 78.72 44.1798 78.72 43.0198V28.3998L71.3401 41.1298L40.97 93.5098L34.1 105.35L46.85 97.9898C47.75 97.4798 48.52 97.3398 49.16 97.6098L49.3701 97.7098C50.0501 98.0898 50.3901 98.8598 50.3901 100.01C50.3901 101.16 50.0501 102.33 49.3701 103.5C48.6901 104.67 47.85 105.54 46.85 106.12L25.6 118.39C24.6 118.97 23.7601 119.06 23.0801 118.68C22.4001 118.29 22.0601 117.52 22.0601 116.37V91.9898C22.0601 91.5498 22.1101 91.1098 22.2001 90.6698C22.3701 89.9598 22.6601 89.2298 23.0801 88.5098C23.7601 87.3398 24.6 86.4598 25.6 85.8798C26.5 85.3598 27.28 85.2298 27.91 85.4898L28.1201 85.5898C28.7401 85.9498 29.0801 86.6198 29.1301 87.5998C29.1401 87.6998 29.1401 87.7998 29.1401 87.8998V102.53L35.85 90.9498L66.22 38.5698L73.7601 25.5698L65.66 30.2398L61.0101 32.9298C60.1201 33.4398 59.36 33.5798 58.73 33.3298C58.65 33.2998 58.5701 33.2698 58.4901 33.2198C58.2301 33.0698 58.02 32.8598 57.86 32.5998C57.6 32.1798 57.47 31.6198 57.47 30.9098C57.47 29.7598 57.8101 28.5998 58.4901 27.4298C58.5701 27.2998 58.64 27.1798 58.72 27.0498C59.36 26.0698 60.1201 25.3198 61.0101 24.7998L65.8 22.0398L82.2601 12.5398C83.1601 12.0198 83.9301 11.8798 84.5701 12.1498L84.7801 12.2498C85.4601 12.6298 85.8 13.3998 85.8 14.5598Z" class="pr-icon-iso-solid-stroke" stroke-miterlimit="10" stroke-linejoin="round"/>
    <path d="M84.57 12.1498C83.93 11.8798 83.16 12.0198 82.26 12.5398L65.8 22.0398L61.01 24.7998C60.12 25.3198 59.36 26.0698 58.72 27.0498C58.64 27.1798 58.57 27.2998 58.49 27.4298C57.81 28.5998 57.47 29.7598 57.47 30.9098C57.47 31.6198 57.6 32.1798 57.86 32.5998C58.02 32.8598 58.23 33.0698 58.49 33.2198L46.89 27.4198L38.7 23.3198L38.49 23.2198C37.81 22.8298 37.47 22.0598 37.47 20.9098C37.47 19.7598 37.81 18.5998 38.49 17.4298C39.17 16.2598 40.01 15.3798 41.01 14.7998L62.26 2.5398C63.26 1.9598 64.1 1.8598 64.78 2.2498L84.57 12.1498Z" class="pr-icon-iso-solid-stroke" stroke-miterlimit="10" stroke-linejoin="round"/>
    <path d="M79.7401 45.3299L71.3401 41.1299L78.72 28.3999V43.0199C78.72 44.1799 79.0601 44.9399 79.7401 45.3299Z" class="pr-icon-iso-solid-stroke" stroke-miterlimit="10" stroke-linejoin="round"/>
    <path d="M27.91 85.4897C27.28 85.2297 26.5 85.3597 25.6 85.8797C24.6 86.4597 23.7601 87.3397 23.0801 88.5097C22.6601 89.2297 22.3701 89.9597 22.2001 90.6697C22.1101 91.1097 22.0601 91.5497 22.0601 91.9897V116.37C22.0601 117.52 22.4001 118.29 23.0801 118.68L3.29004 108.78L3.08008 108.68C2.40008 108.29 2.06006 107.52 2.06006 106.37V81.9897C2.06006 80.8397 2.40008 79.6797 3.08008 78.5097C3.76008 77.3397 4.60004 76.4597 5.60004 75.8797C6.60004 75.2997 7.45006 75.2097 8.12006 75.5897L21.6401 82.3497L27.91 85.4897Z" class="pr-icon-iso-solid-stroke" stroke-miterlimit="10" stroke-linejoin="round"/>
    <path d="M73.76 25.5698L66.22 38.5698L35.85 90.9498L29.14 102.53V87.8998C29.14 87.7998 29.14 87.6998 29.13 87.5998C29.08 86.6198 28.74 85.9498 28.12 85.5898L27.91 85.4898L21.64 82.3498L16.52 79.7898L46.89 27.4198L58.49 33.2198C58.57 33.2698 58.65 33.2998 58.73 33.3298C59.36 33.5798 60.12 33.4398 61.01 32.9298L65.66 30.2498L73.76 25.5698Z" class="pr-icon-iso-solid-stroke" stroke-miterlimit="10" stroke-linejoin="round"/>
    <path d="M49.1601 97.6098C48.5201 97.3398 47.7501 97.4798 46.8501 97.9898L34.1001 105.35L40.9701 93.5098L49.1601 97.6098Z" class="pr-icon-iso-solid-stroke" stroke-miterlimit="10" stroke-linejoin="round"/>
</svg>