<svg width="24" height="24" viewBox="0 0 92 110" xmlns="http://www.w3.org/2000/svg" stroke-width="1px" stroke-linecap="round" stroke-linejoin="round">
    <path d="M43.9598 54.12C44.0198 54.16 44.0899 54.2 44.1599 54.24C44.5399 54.46 44.9199 54.64 45.3199 54.79L43.9598 54.12Z" class="pr-icon-iso-solid-stroke" stroke-linejoin="round"/>
    <path d="M89.7499 58.73V62.6C89.7499 65.26 88.9198 68.01 87.2798 70.85C85.6298 73.7 83.6399 75.79 81.3299 77.13L30.7798 106.31C28.4698 107.65 26.4799 107.84 24.8299 106.9C23.1799 105.96 22.3599 104.16 22.3599 101.51V97.64C22.3599 94.9 22.9699 92.03 24.1999 89.02C24.2799 88.81 24.3698 88.61 24.4598 88.41C25.6598 85.65 27.1999 83.16 29.0999 80.94C33.4499 75.93 37.8699 71.51 42.3699 67.66C46.8599 63.82 51.4199 60.56 56.0499 57.89C60.6899 55.21 65.2499 53.2 69.7399 51.86H69.7499C74.2499 50.51 78.6599 49.83 83.0099 49.82C84.0299 49.83 84.9399 50.04 85.7499 50.44C86.5699 50.85 87.2899 51.45 87.9099 52.24C89.1399 53.83 89.7499 55.99 89.7499 58.73Z" class="pr-icon-iso-solid-stroke" stroke-linejoin="round"/>
    <path d="M43.9598 54.12C44.0198 54.16 44.0899 54.2 44.1599 54.24C44.5399 54.46 44.9199 54.64 45.3199 54.79L43.9598 54.12Z" class="pr-icon-iso-solid-stroke" stroke-linejoin="round"/>
    <path d="M72.8998 23.99C72.8998 29.31 71.2499 34.81 67.9499 40.51C67.7899 40.78 67.6298 41.05 67.4698 41.31C67.4198 41.4 67.3699 41.48 67.3099 41.57C64.1499 46.72 60.3999 50.55 56.0499 53.05C51.9599 55.41 48.3999 56 45.3499 54.81L45.3199 54.79L43.9598 54.12C41.3598 52.55 39.8299 49.87 39.3599 46.09C39.2599 45.27 39.2098 44.38 39.2098 43.45C39.2098 42.57 39.2499 41.69 39.3499 40.8C39.7999 36.31 41.4099 31.69 44.1599 26.94C46.6499 22.65 49.5199 19.21 52.7599 16.63C53.8199 15.79 54.9099 15.05 56.0499 14.39C60.3299 11.92 64.0299 11.39 67.1699 12.81L67.9499 13.2C71.2499 15.08 72.8998 18.68 72.8998 23.99Z" class="pr-icon-iso-solid-stroke" stroke-linejoin="round"/>
    <path d="M85.7499 50.44C84.9399 50.04 84.0299 49.83 83.0099 49.82C78.6599 49.83 74.2499 50.51 69.7499 51.86H69.7399C65.2499 53.2 60.6899 55.21 56.0499 57.89C51.4199 60.56 46.8599 63.82 42.3699 67.66C37.8699 71.51 33.4499 75.93 29.0999 80.94C27.1999 83.16 25.6598 85.65 24.4598 88.41C24.3698 88.61 24.2799 88.81 24.1999 89.02C22.9699 92.03 22.3599 94.9 22.3599 97.64V101.51C22.3599 104.16 23.1799 105.96 24.8299 106.9L4.8299 96.9C3.1799 95.96 2.35986 94.16 2.35986 91.51V87.64C2.35986 84.9 2.96989 82.03 4.19989 79.02C5.42989 76.02 7.05985 73.32 9.09985 70.94C13.4499 65.93 17.8699 61.51 22.3699 57.66C26.1899 54.4 30.0498 51.55 33.9698 49.14L43.9598 54.12C44.0198 54.16 44.0899 54.2 44.1599 54.24C44.5399 54.46 44.9199 54.64 45.3199 54.79L45.3499 54.81C48.3999 56 51.9599 55.41 56.0499 53.05C60.3999 50.55 64.1499 46.72 67.3099 41.57C67.3699 41.48 67.4198 41.4 67.4698 41.31L85.7499 50.44Z" class="pr-icon-iso-solid-stroke" stroke-linejoin="round"/>
    <path d="M67.1699 12.81C64.0299 11.39 60.3299 11.92 56.0499 14.39C54.9099 15.05 53.8199 15.79 52.7599 16.63C49.5199 19.21 46.6499 22.65 44.1599 26.94C41.4099 31.69 39.7999 36.31 39.3499 40.8C39.2499 41.69 39.2098 42.57 39.2098 43.45C39.2098 44.38 39.2599 45.27 39.3599 46.09C39.8299 49.87 41.3598 52.55 43.9598 54.12L33.9698 49.14L24.9598 44.64L24.1599 44.24C20.8599 42.36 19.2098 38.76 19.2098 33.45C19.2098 28.14 20.8599 22.63 24.1599 16.94C27.4599 11.25 31.4199 7.06 36.0499 4.39C40.6899 1.71 44.6499 1.32 47.9499 3.2L67.1699 12.81Z" class="pr-icon-iso-solid-stroke" stroke-linejoin="round"/>
</svg>