<svg width="48" height="48" viewBox="0 0 96 114" fill="#229EFF" xmlns="http://www.w3.org/2000/svg" stroke-width="1px" stroke-linecap="round" stroke-linejoin="round"><path d="M91.171 12.7101C89.791 11.9301 88.1409 12.0901 86.2009 13.2101L73.241 20.6901L58.021 29.4801C57.021 30.0601 56.181 30.9301 55.511 32.0901C55.111 32.7701 54.831 33.4501 54.671 34.1301C54.551 34.6101 54.491 35.0801 54.491 35.5601V51.7301C54.491 53.5901 54.001 55.5101 53.031 57.4901C52.961 57.6401 52.881 57.78 52.811 57.93C52.681 58.16 52.561 58.4001 52.421 58.6301C51.041 61.0101 49.3909 62.7601 47.4509 63.8801L26.311 76.0801C25.311 76.6601 24.481 77.5301 23.801 78.6901C23.131 79.8601 22.791 81.01 22.791 82.16V106.41C22.791 108.64 23.481 110.14 24.861 110.93L4.86096 100.93C3.48096 100.14 2.79102 98.64 2.79102 96.41V72.16C2.79102 71.01 3.13103 69.8601 3.80103 68.6901C4.48103 67.5301 5.31104 66.6601 6.31104 66.0801L12.381 62.5801L23.801 68.29C24.481 68.67 25.311 68.5701 26.311 68.0001L38.021 61.2401L43.931 57.8301C44.331 57.5901 44.711 57.3101 45.061 56.9801C45.581 56.5001 46.0409 55.9101 46.4409 55.2201C46.5809 54.9801 46.701 54.7401 46.811 54.5101C46.821 54.4701 46.841 54.44 46.851 54.41C47.251 53.52 47.4509 52.6301 47.4509 51.7501V39.6301C47.4509 39.1501 47.391 38.7401 47.271 38.3901C47.111 37.9101 46.8309 37.5601 46.4409 37.3301L46.231 37.2301L34.491 31.3601V25.5601C34.491 24.4101 34.831 23.2601 35.511 22.0901C36.181 20.9301 37.021 20.0601 38.021 19.4801L66.2009 3.21008C68.1409 2.09008 69.791 1.93008 71.171 2.71008L91.171 12.7101Z" stroke="white" stroke-linejoin="round"/><path d="M91.171 12.7101C89.791 11.9301 88.1409 12.0901 86.2009 13.2101L73.241 20.6901L58.021 29.4801C57.021 30.0601 56.181 30.9301 55.511 32.0901C55.111 32.7701 54.831 33.4501 54.671 34.1301C54.551 34.6101 54.491 35.0801 54.491 35.5601V51.7301C54.491 53.5901 54.001 55.5101 53.031 57.4901C52.961 57.6401 52.881 57.78 52.811 57.93C52.681 58.16 52.561 58.4001 52.421 58.6301C51.041 61.0101 49.3909 62.7601 47.4509 63.8801L26.311 76.0801C25.311 76.6601 24.481 77.5301 23.801 78.6901C23.131 79.8601 22.791 81.01 22.791 82.16V106.41C22.791 108.64 23.481 110.14 24.861 110.93C26.241 111.71 27.9009 111.55 29.8309 110.43L86.2009 77.8901C88.1409 76.7701 89.791 75.0201 91.171 72.6401C92.551 70.2601 93.241 67.9601 93.241 65.7401V17.2301C93.241 15.0101 92.551 13.5001 91.171 12.7101ZM78.361 65.4401C77.661 66.6501 76.831 67.5301 75.891 68.0701C74.951 68.6101 74.131 68.68 73.431 68.28L68.921 65.7101L65.061 63.5101V69.8801C65.061 71.0201 64.721 72.1801 64.051 73.3401C63.371 74.5101 62.541 75.3801 61.541 75.9601C60.541 76.5301 59.701 76.6301 59.031 76.2401C58.351 75.8601 58.021 75.0901 58.021 73.9501V57.78C58.021 56.63 58.351 55.4801 59.031 54.3101C59.701 53.1501 60.541 52.2801 61.541 51.7001L62.481 51.16L73.241 44.9501L75.631 43.5701C76.631 42.9901 77.461 42.9 78.141 43.28C78.811 43.67 79.151 44.4301 79.151 45.5801C79.151 46.7301 78.811 47.88 78.141 49.04C77.461 50.2 76.631 51.0801 75.631 51.6501L73.241 53.03L69.991 54.91L73.1909 56.7301L78.361 59.68C79.061 60.08 79.421 60.8301 79.421 61.9501C79.421 63.0701 79.061 64.2201 78.361 65.4401Z" stroke="white" stroke-linejoin="round"/><path d="M79.1505 45.5801C79.1505 46.7201 78.8105 47.88 78.1405 49.04C77.4605 50.2 76.6305 51.0801 75.6305 51.6501L73.2405 53.03L69.9905 54.91L62.4805 51.16L73.2405 44.9501L75.6305 43.57C76.6305 42.99 77.4605 42.9 78.1405 43.28C78.8105 43.67 79.1505 44.4301 79.1505 45.5801Z" stroke="white" stroke-linejoin="round"/><path d="M79.4215 61.9501C79.4215 63.0601 79.0615 64.2201 78.3615 65.4401C77.6615 66.6501 76.8315 67.5301 75.8915 68.0701C74.9515 68.6101 74.1315 68.68 73.4315 68.28L68.9215 65.7101L65.0615 63.5101L58.0215 59.9901V57.78C58.0215 56.63 58.3515 55.4801 59.0315 54.3101C59.7015 53.1501 60.5415 52.2801 61.5415 51.7001L62.4814 51.16L69.9915 54.91L73.1914 56.7301L78.3615 59.6801C79.0615 60.0801 79.4215 60.8301 79.4215 61.9501Z" stroke="white" stroke-linejoin="round"/><path d="M65.0615 63.5101V69.8801C65.0615 71.0201 64.7215 72.1801 64.0515 73.3401C63.3715 74.5101 62.5415 75.3801 61.5415 75.9601C60.5415 76.5301 59.7015 76.6301 59.0315 76.2401C58.3515 75.8601 58.0215 75.0901 58.0215 73.9501V59.9901L65.0615 63.5101Z" stroke="white" stroke-linejoin="round"/><path d="M47.4509 39.6301V51.7501C47.4509 52.6301 47.251 53.52 46.851 54.41C46.851 54.44 46.821 54.4701 46.811 54.5101C46.701 54.7401 46.5809 54.9801 46.4409 55.2201C46.0409 55.9101 45.581 56.5001 45.061 56.9801C44.711 57.3101 44.331 57.5901 43.931 57.8301L38.021 61.2401L26.311 68.0001C25.311 68.5701 24.481 68.67 23.801 68.29C23.131 67.9 22.791 67.1401 22.791 65.9901V53.8601C22.791 52.7201 23.131 51.5601 23.801 50.4001C24.481 49.2301 25.311 48.36 26.311 47.79L34.391 43.1201L43.931 37.6201C44.821 37.1001 45.591 36.9701 46.231 37.2301L46.4409 37.3301C46.8309 37.5601 47.111 37.9101 47.271 38.3901C47.391 38.7401 47.4509 39.1501 47.4509 39.6301Z" stroke="white" stroke-linejoin="round"/><path d="M46.231 37.2301C45.591 36.9701 44.821 37.1001 43.931 37.6201L34.391 43.1201L26.311 47.79C25.311 48.36 24.481 49.2301 23.801 50.4001C23.131 51.5601 22.791 52.7201 22.791 53.8601V65.9901C22.791 67.1401 23.131 67.9 23.801 68.29L12.381 62.5801L4.01099 58.3901L3.80103 58.29C3.13103 57.9 2.79102 57.1401 2.79102 55.9901V43.8601C2.79102 42.7201 3.13103 41.5601 3.80103 40.4001C4.48103 39.2301 5.31104 38.36 6.31104 37.79L23.931 27.6201C24.921 27.0401 25.7609 26.9501 26.4409 27.3301L34.491 31.3601L46.231 37.2301Z" stroke="white" stroke-linejoin="round"/></svg>