<svg width="48" height="48" viewBox="0 0 95 88" fill="#229EFF" xmlns="http://www.w3.org/2000/svg" stroke-width="1px" stroke-linecap="round" stroke-linejoin="round"><path d="M91.8098 33.2401L91.5798 33.1301C90.8298 32.8301 89.9098 32.9901 88.8298 33.6201C87.6298 34.3101 86.6299 35.3301 85.8499 36.6801L64.8098 72.9801L55.6697 67.7701L55.4097 67.6401C54.6697 67.3601 53.7697 67.5301 52.6897 68.1401C51.4897 68.8401 50.4897 69.8601 49.7097 71.2001C48.9397 72.5501 48.5498 73.9101 48.5498 75.2901C48.5498 76.6701 48.9397 77.5901 49.7097 78.0301L61.8298 84.9401C62.6798 85.4301 63.6698 85.3401 64.8098 84.6901C65.9398 84.0301 66.9298 82.9701 67.7798 81.5101L91.8098 40.0701C92.5898 38.7301 92.9797 37.3601 92.9797 35.9801C92.9797 34.6001 92.5898 33.6901 91.8098 33.2401Z" stroke="white" stroke-miterlimit="10" stroke-linecap="round" stroke-linejoin="round"/><path d="M52.27 35.3401V54.8501C52.27 56.2301 51.86 57.6301 51.04 59.0301C50.23 60.4401 49.22 61.4901 48.01 62.1801L46.3799 63.1201L41.6399 65.8701C41.6399 67.2501 41.2299 68.6401 40.4099 70.0501C39.7499 71.1901 38.96 72.1001 38.03 72.7701C37.83 72.9301 37.6099 73.0701 37.3899 73.2001C36.1799 73.8901 35.1701 74.0101 34.3601 73.5501C33.5401 73.0801 33.1299 72.1601 33.1299 70.7801L31.1299 71.9401L26.76 74.4601C25.55 75.1501 24.54 75.2701 23.73 74.8001C22.91 74.3401 22.5 73.4201 22.5 72.0301C22.5 70.7501 22.8501 69.4601 23.5601 68.1501C23.6201 68.0501 23.67 67.9501 23.73 67.8501C24.54 66.4501 25.55 65.4001 26.76 64.7001L28.76 63.5401L37.22 58.6601L37.3201 58.6001L43.76 54.8801V45.1201L34.7 50.3501L26.76 54.9401C25.55 55.6401 24.54 55.7501 23.73 55.2901C23.56 55.1901 23.4 55.0701 23.27 54.9301C22.76 54.4101 22.5 53.6101 22.5 52.5201V33.0001C22.5 31.6201 22.91 30.2301 23.73 28.8201C24.54 27.4201 25.55 26.3701 26.76 25.6701L31.51 22.9301L31.6299 22.8601L33.1299 21.9901C33.1299 20.6101 33.5401 19.2101 34.3601 17.8101C35.1701 16.4001 36.1799 15.3501 37.3899 14.6501C38.4699 14.0301 39.3999 13.8701 40.1599 14.1901L40.4099 14.3101C41.2299 14.7701 41.6399 15.7001 41.6399 17.0801L48.01 13.4001C49.1 12.7701 50.03 12.6201 50.79 12.9301L51.04 13.0501C51.86 13.5101 52.27 14.4401 52.27 15.8201C52.27 17.2001 51.86 18.6001 51.04 20.0001C50.23 21.4101 49.22 22.4601 48.01 23.1501L40.6799 27.3801L32.27 32.2401L31.01 32.9701V42.7301L32.27 42.0001L48.01 32.9101C49.1 32.2901 50.03 32.1301 50.79 32.4401L51.04 32.5601C51.86 33.0301 52.27 33.9501 52.27 35.3401Z" stroke="white" stroke-miterlimit="10" stroke-linecap="round" stroke-linejoin="round"/><path d="M33.1299 21.9901L31.6299 22.86L31.51 22.9301L26.76 25.67C25.55 26.37 24.54 27.4201 23.73 28.8201C22.91 30.2301 22.5 31.62 22.5 33V52.5201C22.5 53.6101 22.76 54.4101 23.27 54.9301L23.1499 55L14.0901 50.47L3.97998 45.41L3.72998 45.2901C2.90998 44.8201 2.5 43.9001 2.5 42.5201V23C2.5 21.62 2.90998 20.2301 3.72998 18.8201C4.53998 17.4201 5.55001 16.37 6.76001 15.67L13.1299 11.9901L22.1799 16.5201L33.1299 21.9901Z" stroke="white" stroke-miterlimit="10" stroke-linecap="round" stroke-linejoin="round"/><path d="M91.5801 33.1301C90.8301 32.8301 89.9101 32.9901 88.8301 33.6201C87.6301 34.3101 86.6301 35.3301 85.8501 36.6801L64.8101 72.9801L55.6699 67.7701L55.4099 67.6401L51.23 65.5501L46.3799 63.1201L48.01 62.1801C49.22 61.4901 50.23 60.4401 51.04 59.0301C51.86 57.6301 52.27 56.2301 52.27 54.8501V50.1101L65.8501 26.6801C66.6301 25.3301 67.6301 24.3101 68.8301 23.6201C70.0301 22.9201 71.0301 22.8001 71.8101 23.2401L91.5801 33.1301Z" stroke="white" stroke-miterlimit="10" stroke-linecap="round" stroke-linejoin="round"/><path d="M91.8101 33.2401L91.5801 33.1301" stroke="white" stroke-miterlimit="10" stroke-linecap="round" stroke-linejoin="round"/><path d="M61.8303 84.9401L42.1104 75.08L41.8303 74.94L38.0303 72.7701C38.9603 72.1001 39.7502 71.19 40.4102 70.05C41.2302 68.64 41.6401 67.2501 41.6401 65.8701L46.3801 63.1201L51.2302 65.55L55.4102 67.64C54.6702 67.36 53.7702 67.53 52.6902 68.14C51.4902 68.84 50.4902 69.86 49.7102 71.2C48.9402 72.55 48.5503 73.9101 48.5503 75.2901C48.5503 76.6701 48.9402 77.59 49.7102 78.03L61.8303 84.9401Z" stroke="white" stroke-miterlimit="10" stroke-linecap="round" stroke-linejoin="round"/><path d="M43.76 54.8801L37.3201 58.6001L37.22 58.6601L28.76 63.5401L26.76 64.7001C25.55 65.4001 24.54 66.4501 23.73 67.8501C23.67 67.9501 23.6201 68.0501 23.5601 68.1501C22.8501 69.4601 22.5 70.7501 22.5 72.0301C22.5 73.4201 22.91 74.3401 23.73 74.8001L3.97998 64.9201L3.72998 64.8001C2.90998 64.3401 2.5 63.4201 2.5 62.0301C2.5 60.6401 2.90998 59.2601 3.72998 57.8501C4.53998 56.4501 5.55001 55.4001 6.76001 54.7001L14.0901 50.4701L23.1499 55.0001L23.73 55.2901C24.54 55.7501 25.55 55.6401 26.76 54.9401L34.7 50.3501L43.76 54.8801Z" stroke="white" stroke-miterlimit="10" stroke-linecap="round" stroke-linejoin="round"/><path d="M34.3601 73.5501L31.1299 71.9401" stroke="white" stroke-miterlimit="10" stroke-linecap="round" stroke-linejoin="round"/><path d="M50.7898 32.4401C50.0298 32.1301 49.0998 32.2901 48.0098 32.9101L32.2698 42.0001L31.0098 42.7301V32.9701L32.2698 32.2401L40.6797 27.3801L50.7898 32.4401Z" stroke="white" stroke-miterlimit="10" stroke-linecap="round" stroke-linejoin="round"/><path d="M40.1599 14.19C39.3999 13.87 38.4699 14.03 37.3899 14.65C36.1799 15.35 35.1701 16.4 34.3601 17.81C33.5401 19.21 33.1299 20.61 33.1299 21.99L22.1799 16.52L13.1299 11.99C13.1299 10.61 13.5401 9.21003 14.3601 7.81003C15.1701 6.40003 16.1799 5.35004 17.3899 4.65004C18.5899 3.96004 19.5999 3.84003 20.4099 4.31003L23.6399 5.92003L31.2 9.71004L40.1599 14.19Z" stroke="white" stroke-miterlimit="10" stroke-linecap="round" stroke-linejoin="round"/><path d="M50.7898 12.9301C50.0298 12.6201 49.0998 12.7701 48.0098 13.4001L41.6396 17.0801C41.6396 15.7001 41.2297 14.7701 40.4097 14.3101L40.1597 14.1901L31.1997 9.71007L23.6396 5.92006L28.0098 3.40007C29.2198 2.70007 30.2298 2.59007 31.0398 3.05007L50.7898 12.9301Z" stroke="white" stroke-miterlimit="10" stroke-linecap="round" stroke-linejoin="round"/></svg>