<svg width="48" height="48" viewBox="0 0 85 106" xmlns="http://www.w3.org/2000/svg" stroke-width="1px"
     stroke-linecap="round" stroke-linejoin="round">
    <path d="M35.4099 101.283C35.9999 101.633 36.5999 101.933 37.2299 102.193L35.4099 101.283Z" class="pr-icon-iso-solid-stroke" stroke-linejoin="round"/>
    <path d="M81.35 14.1134C80.97 13.7334 80.5499 13.4534 80.0699 13.2634C79.4199 12.9934 78.67 12.9234 77.83 13.0234L62.71 15.2534L55.34 16.3334C54.46 16.4834 53.59 16.8034 52.71 17.3134C51.84 17.8134 50.96 18.5034 50.09 19.3634L35.1099 34.4534L35.1 34.4634L32.96 36.6234L27.59 42.0334C26.16 43.5034 24.99 45.2234 24.08 47.1734C23.17 49.1334 22.72 51.0134 22.72 52.8034V73.1334C22.72 81.3634 24.4 88.1934 27.78 93.5834C28.51 94.7634 29.32 95.8834 30.22 96.9234C31.78 98.7434 33.51 100.203 35.41 101.283L37.23 102.193C41.01 103.833 45.3899 104.163 50.3699 103.193C50.7399 103.123 51.1199 103.013 51.4899 102.873C51.8699 102.723 52.28 102.523 52.71 102.273C53.15 102.023 53.5599 101.753 53.9299 101.463C54.3099 101.173 54.6799 100.853 55.0599 100.493C63.4899 92.3934 70.21 82.5534 75.21 70.9534C80.21 59.3534 82.71 48.5334 82.71 38.4934V18.1734C82.71 16.3734 82.25 15.0234 81.35 14.1134ZM56.46 74.7334C56.46 75.9434 56.0999 77.1734 55.3799 78.4134C54.6699 79.6534 53.78 80.5834 52.71 81.1934C51.65 81.8134 50.76 81.9134 50.04 81.5034C49.32 81.0934 48.96 80.2734 48.96 79.0534V61.8534C48.96 60.6334 49.32 59.4034 50.04 58.1634C50.76 56.9234 51.65 55.9934 52.71 55.3834C53.78 54.7734 54.6699 54.6634 55.3799 55.0734C56.0999 55.4834 56.46 56.3034 56.46 57.5234V74.7334ZM55.3799 44.0034C54.6699 45.2434 53.78 46.1634 52.71 46.7834C51.65 47.3934 50.76 47.4934 50.04 47.0834C49.32 46.6734 48.96 45.8634 48.96 44.6434C48.96 43.4234 49.32 42.1934 50.04 40.9534C50.76 39.7134 51.65 38.7934 52.71 38.1734C53.78 37.5634 54.6699 37.4634 55.3799 37.8734C56.0999 38.2834 56.46 39.0934 56.46 40.3134C56.46 41.5334 56.0999 42.7634 55.3799 44.0034Z" class="pr-icon-iso-solid-stroke" stroke-linejoin="round"/>
    <path d="M56.46 40.3134C56.46 41.5334 56.0999 42.7634 55.3799 44.0034C54.6699 45.2434 53.78 46.1634 52.71 46.7834C51.65 47.3934 50.76 47.4934 50.04 47.0834C49.32 46.6734 48.96 45.8634 48.96 44.6434C48.96 43.4234 49.32 42.1934 50.04 40.9534C50.76 39.7134 51.65 38.7934 52.71 38.1734C53.78 37.5634 54.6699 37.4634 55.3799 37.8734C56.0999 38.2834 56.46 39.0934 56.46 40.3134Z" class="pr-icon-iso-solid-stroke" stroke-linejoin="round"/>
    <path d="M56.46 57.5233V74.7333C56.46 75.9433 56.0999 77.1733 55.3799 78.4133C54.6699 79.6533 53.78 80.5833 52.71 81.1933C51.65 81.8133 50.76 81.9133 50.04 81.5033C49.32 81.0933 48.96 80.2733 48.96 79.0533V61.8533C48.96 60.6333 49.32 59.4033 50.04 58.1633C50.76 56.9233 51.65 55.9933 52.71 55.3833C53.78 54.7733 54.6699 54.6633 55.3799 55.0733C56.0999 55.4833 56.46 56.3033 56.46 57.5233Z" class="pr-icon-iso-solid-stroke" stroke-linejoin="round"/>
    <path d="M80.0699 13.2633C79.4199 12.9933 78.67 12.9233 77.83 13.0233L62.71 15.2534L55.34 16.3333C54.46 16.4833 53.59 16.8034 52.71 17.3134C51.84 17.8134 50.96 18.5034 50.09 19.3634L35.1099 34.4533L35.1 34.4633L32.96 36.6234L27.59 42.0333C26.16 43.5033 24.99 45.2234 24.08 47.1734C23.17 49.1334 22.72 51.0134 22.72 52.8034V73.1334C22.72 81.3634 24.4 88.1933 27.78 93.5833C28.51 94.7633 29.32 95.8834 30.22 96.9234C31.78 98.7434 33.51 100.203 35.41 101.283L16.9899 92.0933L16.91 92.0534C14.41 90.9234 12.19 89.2134 10.22 86.9234C5.21997 81.1034 2.71997 73.1634 2.71997 63.1334V42.8034C2.71997 41.0134 3.16996 39.1334 4.07996 37.1734C4.98996 35.2234 6.15997 33.5033 7.58997 32.0333L30.09 9.36336C30.96 8.50336 31.84 7.81337 32.71 7.31337C33.59 6.80337 34.46 6.48333 35.34 6.33333L57.83 3.02333C58.89 2.89333 59.7999 3.05332 60.5699 3.51332L60.6199 3.53334L80.0699 13.2633Z" class="pr-icon-iso-solid-stroke" stroke-linejoin="round"/>
    <path d="M80.3898 13.4232L80.0698 13.2632" class="pr-icon-iso-solid-stroke" stroke-linejoin="round"/>
</svg>