<svg width="48" height="48" viewBox="0 0 100 112" xmlns="http://www.w3.org/2000/svg" stroke-width="1px"
     stroke-linecap="round" stroke-linejoin="round">
    <path d="M92.0608 55.1562L90.7107 59.0562L93.7107 57.3262C94.4407 56.8962 95.0508 56.7563 95.5608 56.9163H95.5708C95.9108 57.0163 96.2007 57.2362 96.4407 57.5862C97.0507 58.4662 97.0707 59.6862 96.4907 61.2462L84.1707 93.2162C83.8807 93.9562 83.4707 94.3962 82.9307 94.5462C82.7307 94.5962 82.5707 94.5963 82.4407 94.5363L82.4006 94.5162C82.2206 94.4062 82.1306 94.1562 82.1306 93.7762V73.8463L77.8408 76.3262C76.6308 77.0262 75.6108 77.1462 74.7808 76.6762C73.9608 76.2062 73.5508 75.2763 73.5508 73.8763V54.1963C73.5508 52.8063 73.9608 51.3963 74.7808 49.9763C75.2908 49.0963 75.8808 48.3563 76.5408 47.7563C76.6308 47.6763 76.7208 47.5962 76.8108 47.5162C77.1308 47.2462 77.4808 47.0062 77.8408 46.7962L94.0308 37.4562C94.9008 36.9462 95.6307 36.8263 96.2107 37.0963H96.2207C96.4407 37.1963 96.6408 37.3563 96.8208 37.5663C97.4608 38.3463 97.5007 39.5063 96.9207 41.0663L92.0608 55.1562Z" class="pr-icon-iso-solid-stroke" stroke-linejoin="round"/>
    <path d="M64.9807 59.5163V83.7563C64.9807 84.3963 64.8907 85.0363 64.7107 85.6763C64.5107 86.4363 64.1807 87.2063 63.7407 87.9663C62.9207 89.3863 61.9007 90.4463 60.6907 91.1463L30.6707 108.476C28.3107 109.836 26.2908 110.046 24.6108 109.086C22.9308 108.126 22.0908 106.296 22.0908 103.586V99.6563C22.0908 96.8663 22.7207 93.9363 23.9707 90.8763C23.9807 90.8463 24.0008 90.8063 24.0208 90.7763C25.2608 87.7663 26.9007 85.0463 28.9507 82.6463C33.3807 77.5463 37.8907 73.0463 42.4607 69.1363C43.3007 68.4163 44.1407 67.7263 44.9807 67.0563C47.8107 64.7763 50.6708 62.7263 53.5508 60.9063C54.5008 60.2963 55.4506 59.7263 56.4006 59.1763C57.1806 58.7263 57.9507 58.3063 58.7007 57.9063C59.4507 57.5163 60.2207 57.1363 61.0107 56.7663C61.9107 56.3663 62.7008 56.2963 63.3608 56.5463L63.8508 56.7863C64.6008 57.2963 64.9807 58.2063 64.9807 59.5163Z" class="pr-icon-iso-solid-stroke" stroke-linejoin="round"/>
    <path d="M73.551 24.6662C73.551 25.7162 73.4911 26.7762 73.3611 27.8462C72.8311 32.2662 71.221 36.8062 68.511 41.4762C65.411 46.8262 61.741 50.8662 57.481 53.5962C57.121 53.8262 56.7609 54.0462 56.4009 54.2562C55.4209 54.8262 54.471 55.2862 53.551 55.6462C50.331 56.9262 47.481 56.9862 44.981 55.8262C44.741 55.7162 44.511 55.5962 44.281 55.4662C41.591 53.9362 39.9909 51.2862 39.4609 47.5162C39.3209 46.5762 39.251 45.5562 39.251 44.4762C39.251 43.7562 39.2811 43.0262 39.3411 42.2862C39.7311 37.5562 41.371 32.6762 44.281 27.6662C46.921 23.1262 49.9709 19.5262 53.4509 16.8662C54.4009 16.1362 55.3809 15.4762 56.4009 14.8862C60.8309 12.3362 64.6411 11.8262 67.8711 13.3462L68.031 13.4262C68.191 13.5062 68.351 13.5862 68.511 13.6762C71.871 15.5962 73.551 19.2562 73.551 24.6662Z" class="pr-icon-iso-solid-stroke" stroke-linejoin="round"/>
    <path d="M96.2104 37.0961C95.6304 36.8261 94.9005 36.9461 94.0305 37.4561L77.8406 46.7961C77.4806 47.0061 77.1305 47.2461 76.8105 47.5161C76.7205 47.5961 76.6305 47.6762 76.5405 47.7562C75.8805 48.3562 75.2905 49.0962 74.7805 49.9762C73.9605 51.3962 73.5505 52.8062 73.5505 54.1962V73.8761C73.5505 75.2761 73.9605 76.2061 74.7805 76.6761L68.0005 73.2862L64.9805 71.7761V59.5161C64.9805 58.2061 64.6006 57.2961 63.8506 56.7861L63.3606 56.5461L57.4805 53.5961C61.7405 50.8661 65.4105 46.8262 68.5105 41.4762C71.2205 36.8062 72.8306 32.2661 73.3606 27.8461L74.0305 27.4561C74.8405 26.9861 75.5206 26.8462 76.0706 27.0362L76.4204 27.2161L96.2104 37.0961Z" class="pr-icon-iso-solid-stroke" stroke-linejoin="round"/>
    <path d="M95.8604 57.066L95.5703 56.916" class="pr-icon-iso-solid-stroke" stroke-linejoin="round"/>
    <path d="M95.561 56.9163C95.051 56.7563 94.4409 56.8962 93.7109 57.3262L90.7109 59.0562L92.061 55.1562L95.561 56.9163Z" class="pr-icon-iso-solid-stroke" stroke-linejoin="round"/>
    <path d="M63.3608 56.5461C62.7008 56.2961 61.9107 56.3661 61.0107 56.7661C60.2207 57.1361 59.4507 57.5161 58.7007 57.9061C57.9507 58.3061 57.1806 58.7261 56.4006 59.1761C55.4506 59.7261 54.5008 60.2961 53.5508 60.9061C50.6708 62.7261 47.8107 64.7761 44.9807 67.0561C44.1407 67.7261 43.3007 68.4161 42.4607 69.1361C37.8907 73.0461 33.3807 77.5461 28.9507 82.6461C26.9007 85.0461 25.2608 87.7661 24.0208 90.7761C24.0008 90.8061 23.9807 90.8461 23.9707 90.8761C22.7207 93.9361 22.0908 96.8661 22.0908 99.6561V103.586C22.0908 106.296 22.9308 108.126 24.6108 109.086L5.14062 99.3461L4.61084 99.0861C2.93084 98.1261 2.09082 96.2961 2.09082 93.5861V89.6561C2.09082 86.8661 2.7207 83.9361 3.9707 80.8761C5.2207 77.8261 6.88068 75.0761 8.95068 72.6461C13.3807 67.5461 17.8907 63.0461 22.4607 59.1361C26.3507 55.8061 30.2807 52.9261 34.2607 50.4561L44.2808 55.4661C44.5108 55.5961 44.7407 55.716 44.9807 55.826C47.4807 56.986 50.3308 56.9261 53.5508 55.6461C54.4708 55.2861 55.4206 54.8261 56.4006 54.2561C56.7606 54.0461 57.1207 53.8261 57.4807 53.5961L63.3608 56.5461Z" class="pr-icon-iso-solid-stroke" stroke-linejoin="round"/>
    <path d="M67.8711 13.3459C64.6411 11.8259 60.8309 12.3359 56.4009 14.8859C55.3809 15.4759 54.4009 16.1359 53.4509 16.8659C49.9709 19.5259 46.921 23.1259 44.281 27.6659C41.371 32.6759 39.7311 37.5559 39.3411 42.2859C39.2811 43.0259 39.251 43.7559 39.251 44.4759C39.251 45.5559 39.3209 46.5759 39.4609 47.5159C39.9909 51.2859 41.591 53.9359 44.281 55.4659L34.261 50.4559L25.1309 45.8859L24.281 45.4659C20.921 43.5559 19.251 39.8859 19.251 34.4759C19.251 29.0659 20.921 23.4559 24.281 17.6659C27.641 11.8759 31.6809 7.61594 36.4009 4.88594C41.1209 2.16594 45.151 1.76592 48.511 3.67592L67.8711 13.3459Z" class="pr-icon-iso-solid-stroke" stroke-linejoin="round"/>
    <path d="M82.4009 94.5161L64.7109 85.6761C64.8909 85.0361 64.981 84.3961 64.981 83.7561V81.1161L68.001 73.2861L74.781 76.6761C75.611 77.1461 76.6311 77.0261 77.8411 76.3261L82.1309 73.8461V93.7761C82.1309 94.1561 82.2209 94.4061 82.4009 94.5161Z" class="pr-icon-iso-solid-stroke" stroke-linejoin="round"/>
</svg>