<svg width="48" height="48" viewBox="0 0 125 105" xmlns="http://www.w3.org/2000/svg" stroke-width="1px"
     stroke-linecap="round" stroke-linejoin="round">
    <path d="M122.61 41.7254V44.7354L86.1396 65.7854V62.7854C86.1396 60.6854 86.6296 58.4854 87.6196 56.1754C88.6096 53.8554 89.9796 51.7554 91.7196 49.8754C93.6996 47.7754 95.7296 45.8654 97.8196 44.1354C99.9096 42.4054 102.1 40.8854 104.38 39.5654C106.65 38.2454 108.84 37.2454 110.93 36.5654C113.02 35.8854 115.05 35.4454 117.03 35.2654C117.91 35.1954 118.7 35.2954 119.39 35.5754L120.1 35.9254C120.48 36.1654 120.82 36.4654 121.13 36.8254C122.12 37.9954 122.61 39.6254 122.61 41.7254Z" class="pr-icon-iso-solid-stroke" stroke-linejoin="round"/>
    <path d="M58.7795 78.5754V81.5854L56.0396 83.1654L22.3096 102.635V99.6354C22.3096 97.5354 22.7996 95.3354 23.7896 93.0254C24.7796 90.7054 26.1495 88.6054 27.8995 86.7254C29.8695 84.6254 31.8995 82.7154 33.9895 80.9854C36.0795 79.2554 38.2696 77.7354 40.5496 76.4154C42.8296 75.0954 45.0095 74.1054 47.0995 73.4154C47.3695 73.3254 47.6295 73.2454 47.8995 73.1654C49.7095 72.6254 51.4695 72.2854 53.1995 72.1154C54.1595 72.0454 55.0095 72.1654 55.7395 72.4954L56.0795 72.6654C56.3495 72.8154 56.5995 72.9854 56.8295 73.1954C56.9995 73.3454 57.1496 73.5054 57.2996 73.6754C58.2896 74.8454 58.7795 76.4854 58.7795 78.5754Z" class="pr-icon-iso-solid-stroke" stroke-linejoin="round"/>
    <path d="M49.6697 55.4554C49.6697 57.7954 49.0797 60.2054 47.8997 62.6754C47.6297 63.2454 47.3196 63.8154 46.9896 64.3954C46.3996 65.4054 45.7796 66.3253 45.0996 67.1653C43.7496 68.8753 42.2297 70.2153 40.5497 71.1853C39.4297 71.8353 38.3797 72.2353 37.3997 72.3853H37.3896C36.1796 72.5753 35.0896 72.3853 34.1096 71.8253C32.3196 70.8153 31.4297 68.8653 31.4297 65.9853C31.4297 64.7653 31.5897 63.5353 31.9097 62.2753C32.3397 60.5653 33.0796 58.8253 34.1096 57.0453C35.8896 53.9653 38.0397 51.7053 40.5497 50.2553C42.7897 48.9653 44.7497 48.6553 46.4197 49.3353L46.9896 49.6154C47.3196 49.8054 47.6297 50.0253 47.8997 50.2853C49.0797 51.3953 49.6697 53.1154 49.6697 55.4554Z" class="pr-icon-iso-solid-stroke" stroke-linejoin="round"/>
    <path d="M75.4395 15.6354C74.6195 15.2954 73.6194 15.4654 72.4594 16.1354C71.1694 16.8854 70.0894 18.0054 69.2094 19.5154C68.3394 21.0254 67.8994 22.5154 67.8994 24.0054V86.7854C67.8994 88.2654 68.3394 89.2554 69.2094 89.7554L56.0394 83.1654L58.7794 81.5854V78.5754C58.7794 76.4854 58.2894 74.8454 57.2994 73.6754C57.1494 73.5054 56.9993 73.3454 56.8293 73.1954C56.5993 72.9854 56.3493 72.8154 56.0793 72.6654L55.7394 72.4954L47.8994 68.5754V62.6754C49.0794 60.2054 49.6694 57.7954 49.6694 55.4554C49.6694 53.1154 49.0794 51.3954 47.8994 50.2854V14.0054C47.8994 12.5154 48.3394 11.0254 49.2094 9.51544C50.0894 8.00544 51.1694 6.88543 52.4594 6.13543C53.7494 5.39543 54.8394 5.26544 55.7094 5.76544L75.4395 15.6354Z" class="pr-icon-iso-solid-stroke" stroke-linejoin="round"/>
    <path d="M77.0194 18.7355V81.5155C77.0194 82.9955 76.5794 84.4955 75.7094 86.0055C74.8394 87.5055 73.7494 88.6355 72.4594 89.3855C71.1694 90.1255 70.0894 90.2455 69.2094 89.7555C68.3394 89.2555 67.8994 88.2655 67.8994 86.7855V24.0055C67.8994 22.5155 68.3394 21.0255 69.2094 19.5155C70.0894 18.0055 71.1694 16.8855 72.4594 16.1355C73.6194 15.4655 74.6195 15.2955 75.4395 15.6355L75.6694 15.7454L75.7094 15.7655C76.5794 16.2655 77.0194 17.2555 77.0194 18.7355Z" class="pr-icon-iso-solid-stroke" stroke-linejoin="round"/>
    <path d="M113.49 18.6054C113.49 21.4854 112.6 24.4654 110.81 27.5454C110.22 28.5654 109.6 29.4854 108.92 30.3254C107.57 32.0254 106.06 33.3654 104.38 34.3354C103.26 34.9854 102.209 35.3854 101.229 35.5354C100.019 35.7254 98.9295 35.5354 97.9495 34.9754C96.1595 33.9554 95.2695 32.0154 95.2695 29.1354C95.2695 27.9154 95.4295 26.6754 95.7495 25.4154C96.1895 23.7054 96.9195 21.9654 97.9495 20.1954C99.7295 17.1154 101.88 14.8554 104.39 13.4054C106.63 12.1054 108.59 11.8054 110.25 12.4854L110.819 12.7654C112.609 13.7854 113.5 15.7254 113.5 18.6054H113.49Z" class="pr-icon-iso-solid-stroke" stroke-linejoin="round"/>
    <path d="M120.16 35.9555L120.1 35.9255" class="pr-icon-iso-solid-stroke" stroke-linejoin="round"/>
    <path d="M119.39 35.5755C118.7 35.2955 117.91 35.1955 117.03 35.2655C115.05 35.4455 113.02 35.8855 110.93 36.5655C108.84 37.2455 106.65 38.2455 104.38 39.5655C102.1 40.8855 99.9095 42.4055 97.8195 44.1355C95.7295 45.8655 93.6995 47.7755 91.7195 49.8755C89.9795 51.7555 88.6095 53.8555 87.6195 56.1755C86.6295 58.4855 86.1395 60.6855 86.1395 62.7855V65.7855L77.0195 61.2255V34.8155C77.2895 34.5855 77.5495 34.3555 77.8195 34.1355C79.9095 32.4055 82.0995 30.8855 84.3795 29.5655C84.8195 29.3155 85.2496 29.0755 85.6796 28.8455L97.9396 34.9755C98.9196 35.5355 100.009 35.7255 101.219 35.5355C102.199 35.3855 103.25 34.9854 104.37 34.3354C106.05 33.3654 107.56 32.0255 108.91 30.3255L119.38 35.5755H119.39Z" class="pr-icon-iso-solid-stroke" stroke-linejoin="round"/>
    <path d="M110.239 12.4855C108.579 11.8055 106.619 12.1055 104.379 13.4055C101.869 14.8555 99.7195 17.1155 97.9395 20.1955C96.9095 21.9655 96.1794 23.7055 95.7394 25.4155C95.4194 26.6755 95.2594 27.9155 95.2594 29.1355C95.2594 32.0155 96.1495 33.9555 97.9395 34.9755L85.6794 28.8455L78.5094 25.2555L77.9395 24.9755C77.5995 24.7855 77.2894 24.5555 77.0194 24.2955V18.7355C77.0194 17.2555 76.5794 16.2655 75.7094 15.7655L75.6694 15.7455C76.0794 13.9355 76.8395 12.0855 77.9395 10.1955C79.7195 7.11551 81.8694 4.85551 84.3794 3.40551C86.8794 1.95551 89.0294 1.74552 90.8094 2.76552L110.239 12.4855Z" class="pr-icon-iso-solid-stroke" stroke-linejoin="round"/>
    <path d="M55.7395 72.4953C55.0095 72.1653 54.1595 72.0453 53.1995 72.1153C51.4695 72.2853 49.7095 72.6253 47.8995 73.1653C47.6295 73.2453 47.3695 73.3253 47.0995 73.4153C45.0095 74.1053 42.8296 75.0953 40.5496 76.4153C38.2696 77.7353 36.0795 79.2553 33.9895 80.9853C31.8995 82.7153 29.8695 84.6253 27.8995 86.7253C26.1495 88.6053 24.7796 90.7053 23.7896 93.0253C22.7996 95.3353 22.3096 97.5353 22.3096 99.6353V102.635L2.30957 92.6353V89.6353C2.30957 87.5353 2.79955 85.3353 3.78955 83.0253C4.77955 80.7053 6.14954 78.6053 7.89954 76.7253C9.86954 74.6253 11.8995 72.7153 13.9895 70.9853C16.0795 69.2553 18.2696 67.7353 20.5496 66.4153C20.9896 66.1653 21.4195 65.9253 21.8495 65.6953L34.1095 71.8253C35.0895 72.3853 36.1795 72.5753 37.3895 72.3853H37.3995C38.3795 72.2353 39.4296 71.8353 40.5496 71.1853C42.2296 70.2153 43.7495 68.8753 45.0995 67.1653L47.8995 68.5753L55.7395 72.4953Z" class="pr-icon-iso-solid-stroke" stroke-linejoin="round"/>
    <path d="M46.4197 49.3355C44.7497 48.6555 42.7897 48.9655 40.5497 50.2555C38.0397 51.7055 35.8896 53.9655 34.1096 57.0455C33.0796 58.8255 32.3397 60.5655 31.9097 62.2755C31.5897 63.5355 31.4297 64.7655 31.4297 65.9855C31.4297 68.8655 32.3196 70.8155 34.1096 71.8255L21.8496 65.6955L14.6797 62.1055L14.1096 61.8255C12.3196 60.8155 11.4297 58.8655 11.4297 55.9855C11.4297 53.1055 12.3196 50.1255 14.1096 47.0455C15.8896 43.9655 18.0397 41.7055 20.5497 40.2555C23.0497 38.8155 25.1996 38.5955 26.9896 39.6155L46.4197 49.3355Z" class="pr-icon-iso-solid-stroke" stroke-linejoin="round"/>
</svg>