<svg width="48" height="48" viewBox="0 0 99 121" fill="#229EFF" xmlns="http://www.w3.org/2000/svg" stroke-width="1px" stroke-linecap="round" stroke-linejoin="round"><path d="M95.6609 26.6059L95.4409 26.4959C94.7709 26.2259 93.951 26.3559 93.001 26.9059L88.6208 29.4359L80.1309 24.6059C80.2609 23.6059 80.4309 22.6459 80.6509 21.7359C80.8309 20.9659 81.031 20.1859 81.241 19.3959C81.271 19.2559 81.3108 19.1159 81.3508 18.9759C81.4708 18.5459 81.5809 18.0959 81.6709 17.6159C81.7709 17.1359 81.8108 16.6759 81.8108 16.2459C81.8108 14.4659 81.2709 13.2659 80.1809 12.6459C79.0909 12.0259 77.7709 12.1659 76.2209 13.0559C73.4409 14.6659 70.871 16.7659 68.521 19.3759C68.241 19.6859 67.9609 20.0059 67.6809 20.3359C65.1009 23.3959 62.9708 26.6959 61.2908 30.2359L55.3608 33.6559L53.3308 34.8359L42.6409 41.0059C36.9209 44.3059 32.0708 49.3859 28.0908 56.2559C24.1208 63.1159 22.1309 69.8259 22.1309 76.3959C22.1309 78.7459 22.251 81.1359 22.501 83.5559C22.751 85.9859 23.171 88.6859 23.761 91.6659C24.341 94.5759 25.1108 97.8959 26.0808 101.606L26.1409 101.846C27.1309 105.656 28.4109 110.116 29.9609 115.206C30.2809 116.246 30.8609 117.006 31.7009 117.476C31.9809 117.626 32.2908 117.756 32.6208 117.846C33.9508 118.216 35.341 117.996 36.771 117.166L44.511 112.696C46.561 111.516 48.321 109.656 49.781 107.136C51.241 104.616 51.9709 102.186 51.9709 99.8259L56.001 97.4959L59.4309 95.5159C59.4309 97.8759 60.1608 99.4659 61.6208 100.306C63.0808 101.136 64.8409 100.956 66.8909 99.7759L74.3508 95.4659C76.0308 94.4959 77.5208 93.0859 78.8308 91.2259C80.1308 89.3659 81.031 87.3659 81.531 85.2159L86.1909 64.6559L94.1208 57.0859C94.9308 56.2559 95.571 55.3559 96.031 54.3759C96.501 53.3959 96.731 52.4359 96.731 51.5059V29.0359C96.731 27.8259 96.3809 27.0159 95.6609 26.6059ZM62.0908 49.9459C61.3708 51.1859 60.4909 52.1059 59.4309 52.7159L48.241 59.1759C47.181 59.7859 46.3008 59.8859 45.5808 59.4759C44.8708 59.0759 44.511 58.2659 44.511 57.0459C44.511 55.8259 44.8708 54.6159 45.5808 53.3759C46.3008 52.1459 47.181 51.2259 48.241 50.6159L59.4309 44.1559C60.4909 43.5459 61.3708 43.4459 62.0908 43.8459C62.8008 44.2559 63.1609 45.0659 63.1609 46.2759C63.1609 47.4859 62.8008 48.7159 62.0908 49.9459ZM77.011 49.8959C76.291 51.1259 75.4108 52.0459 74.3508 52.6559C73.2908 53.2659 72.4109 53.3759 71.6909 52.9659C70.9809 52.5559 70.6208 51.7459 70.6208 50.5359C70.6208 50.4959 70.6209 50.4659 70.6309 50.4259C70.6409 49.2459 71.0009 48.0559 71.6909 46.8659C72.4109 45.6359 73.2908 44.7059 74.3508 44.0959C75.1108 43.6559 75.7708 43.4859 76.3608 43.5759C76.5908 43.6059 76.801 43.6859 77.011 43.7959C77.721 44.2059 78.0808 45.0159 78.0808 46.2259C78.0808 47.4359 77.721 48.6659 77.011 49.8959Z" stroke="white" stroke-linejoin="round"/><path d="M62.0906 43.8458C61.3706 43.4458 60.4907 43.5458 59.4307 44.1558L48.2407 50.6158C47.1807 51.2258 46.3006 52.1458 45.5806 53.3758C44.8706 54.6158 44.5107 55.8358 44.5107 57.0458C44.5107 58.2558 44.8706 59.0758 45.5806 59.4758C46.3006 59.8858 47.1807 59.7858 48.2407 59.1758L59.4307 52.7158C60.4907 52.1058 61.3706 51.1858 62.0906 49.9458C62.8006 48.7158 63.1606 47.4958 63.1606 46.2758C63.1606 45.0558 62.8006 44.2558 62.0906 43.8458Z" stroke="white" stroke-linejoin="round"/><path d="M61.2908 30.2358L55.3608 33.6559C55.0408 33.7459 54.7108 33.8959 54.3508 34.0959C53.9908 34.3059 53.6508 34.5459 53.3308 34.8359L42.6409 41.0059C36.9209 44.3059 32.0708 49.3859 28.0908 56.2559C24.1208 63.1159 22.1309 69.8259 22.1309 76.3959C22.1309 78.7459 22.251 81.1358 22.501 83.5558C22.751 85.9858 23.171 88.6859 23.761 91.6659C24.341 94.5759 25.1108 97.8959 26.0808 101.606L26.1409 101.846C27.1309 105.656 28.4109 110.116 29.9609 115.206C30.2809 116.246 30.8609 117.006 31.7009 117.476L12.1409 107.686L11.5608 107.396C10.8008 106.916 10.2609 106.186 9.96094 105.206C8.41094 100.116 7.13087 95.6559 6.14087 91.8459C5.14087 88.0359 4.35099 84.6359 3.76099 81.6659C3.17099 78.6859 2.75098 75.9858 2.50098 73.5558C2.25098 71.1358 2.13086 68.7459 2.13086 66.3959C2.13086 59.8259 4.12082 53.1159 8.09082 46.2559C12.0708 39.3859 16.9209 34.3059 22.6409 31.0059L41.2908 20.2358L61.2908 30.2358Z" stroke="white" stroke-linejoin="round"/><path d="M78.0811 46.2258C78.0811 47.4358 77.7212 48.6658 77.0112 49.8958C76.2912 51.1258 75.4111 52.0458 74.3511 52.6558C73.2911 53.2658 72.4112 53.3758 71.6912 52.9658C70.9812 52.5558 70.6211 51.7458 70.6211 50.5358C70.6211 50.4958 70.6211 50.4658 70.6311 50.4258C70.6411 49.2458 71.0012 48.0558 71.6912 46.8658C72.4112 45.6358 73.2911 44.7058 74.3511 44.0958C75.1111 43.6558 75.7711 43.4858 76.3611 43.5758C76.5911 43.6058 76.8012 43.6858 77.0112 43.7958C77.7212 44.2058 78.0811 45.0158 78.0811 46.2258Z" stroke="white" stroke-linejoin="round"/><path d="M61.6208 100.306L56.001 97.4958L59.4309 95.5159C59.4309 97.8759 60.1608 99.4658 61.6208 100.306Z" stroke="white" stroke-linejoin="round"/><path d="M80.1812 12.6459C79.0912 12.0259 77.7712 12.1659 76.2212 13.0559C73.4412 14.6659 70.8712 16.7659 68.5212 19.3759C68.2412 19.6859 67.9612 20.0059 67.6812 20.3359C65.1012 23.3959 62.971 26.6959 61.291 30.2359L41.291 20.2359C42.971 16.6959 45.1012 13.3959 47.6812 10.3359C50.2612 7.27591 53.1112 4.85588 56.2212 3.05588C57.7712 2.16588 59.0912 2.0259 60.1812 2.6459L80.1812 12.6459Z" stroke="white" stroke-linejoin="round"/><path d="M95.4409 26.496C94.7709 26.226 93.951 26.356 93.001 26.906L88.6208 29.436L80.1309 24.606C80.2609 23.606 80.4309 22.646 80.6509 21.736C80.8309 20.966 81.031 20.186 81.241 19.396L95.4409 26.496Z" stroke="white" stroke-linejoin="round"/></svg>