<svg width="48" height="48" viewBox="0 0 95 94" fill="#229EFF" xmlns="http://www.w3.org/2000/svg" stroke-width="1px" stroke-linecap="round" stroke-linejoin="round"><path d="M42.1006 34.411C41.0806 33.831 39.8306 33.961 38.3706 34.801C36.9106 35.651 35.6606 36.951 34.6406 38.721C33.6106 40.491 33.1006 42.211 33.1006 43.891C33.1006 45.571 33.6106 46.701 34.6406 47.281C35.6606 47.871 36.9106 47.731 38.3706 46.891C39.8306 46.051 41.0806 44.741 42.1006 42.971C43.1206 41.211 43.6406 39.491 43.6406 37.811C43.6406 36.131 43.1206 35.001 42.1006 34.411Z" stroke="white" stroke-linejoin="round"/><path d="M92.2205 32.3211C91.8905 31.5011 91.3804 30.8911 90.6804 30.4911L59.7803 12.7711L59.3704 12.5711C58.8204 12.3511 58.2002 12.2711 57.5002 12.3311C57.2302 12.3511 56.9604 12.3911 56.6904 12.4711C56.0704 12.6111 55.4303 12.8611 54.7803 13.2411L29.5903 27.791C27.6603 28.901 26.0104 30.6411 24.6304 33.0211C23.2604 35.3911 22.5703 37.6811 22.5703 39.9011V68.8011C22.5703 69.8811 22.7503 70.8011 23.1003 71.5711C23.4503 72.3411 23.9503 72.9111 24.5903 73.2811L38.6003 81.271L55.5703 90.9411C56.2703 91.3411 57.0604 91.491 57.9404 91.391C58.8204 91.281 59.7003 90.9811 60.5703 90.4711C61.4503 89.9611 62.3304 89.2611 63.2104 88.3511C64.0904 87.4411 64.8803 86.3811 65.5803 85.1611L90.6804 41.8711C91.3804 40.6611 91.8905 39.4711 92.2205 38.3111C92.5405 37.1511 92.7004 36.0711 92.7004 35.0611C92.7004 34.0511 92.5405 33.1411 92.2205 32.3211ZM42.1003 42.9711C41.0803 44.7411 39.8304 46.051 38.3704 46.891C36.9104 47.731 35.6604 47.8711 34.6404 47.2811C33.6104 46.7011 33.1003 45.571 33.1003 43.891C33.1003 42.211 33.6104 40.4911 34.6404 38.7211C35.6604 36.9511 36.9104 35.6511 38.3704 34.8011C39.8304 33.9611 41.0803 33.8311 42.1003 34.4111C43.1203 35.0011 43.6404 36.1311 43.6404 37.8111C43.6404 39.4911 43.1203 41.2111 42.1003 42.9711Z" stroke="white" stroke-linejoin="round"/><path d="M59.3704 12.5711C58.8204 12.3511 58.2002 12.2711 57.5002 12.3311C57.2302 12.3511 56.9604 12.3911 56.6904 12.4711C56.0704 12.6111 55.4303 12.8611 54.7803 13.2411L29.5903 27.7911C27.6603 28.9011 26.0104 30.6411 24.6304 33.0211C23.2604 35.3911 22.5703 37.6811 22.5703 39.9011V68.8011C22.5703 69.8811 22.7503 70.8012 23.1003 71.5712C23.4503 72.3412 23.9503 72.9111 24.5903 73.2811L38.6003 81.2711L55.5703 90.9411L36.0002 81.1511L35.5703 80.9411L4.59033 63.2811C3.95033 62.9111 3.45034 62.3411 3.10034 61.5711C2.75034 60.8011 2.57031 59.8811 2.57031 58.8011V29.9011C2.57031 27.6811 3.26037 25.3911 4.63037 23.0211C6.01037 20.6411 7.66033 18.9011 9.59033 17.7911L34.7803 3.24113C35.7203 2.70113 36.6202 2.40113 37.5002 2.33113C38.3802 2.26113 39.1403 2.40113 39.7803 2.77113L59.3704 12.5711Z" stroke="white" stroke-linejoin="round"/></svg>