<svg width="48" height="48" viewBox="0 0 95 121" xmlns="http://www.w3.org/2000/svg" stroke-width="1px"
     stroke-linecap="round" stroke-linejoin="round">
    <path d="M63.6702 46.01C61.9502 45.03 59.8902 45.24 57.4702 46.63C56.5802 47.14 55.7502 47.76 54.9602 48.48L60.6002 51.3001C61.4402 51.7801 61.8602 52.7401 61.8602 54.1601V54.47L66.2402 56.6601V51.63C66.2402 48.86 65.3902 46.99 63.6702 46.01Z" class="pr-icon-iso-solid-stroke" stroke-linejoin="round"/>
    <path d="M90.9601 13.4599C90.5601 13.0599 90.1201 12.75 89.6301 12.53L89.4801 12.4599C88.7001 12.1499 87.8302 12.06 86.8502 12.18L72.5501 14.28L60.5401 16.05C59.5201 16.22 58.5002 16.6 57.4702 17.19C56.4502 17.79 55.4301 18.5899 54.4001 19.5999L37.5501 36.5899L31.7001 42.4799L28.1002 46.1099C26.4102 47.8299 25.0401 49.84 23.9801 52.13C22.9201 54.42 22.3901 56.6099 22.3901 58.7099V82.4799C22.3901 93.0799 24.7801 101.67 29.5501 108.25C30.0501 108.96 30.5902 109.65 31.1602 110.31C33.1602 112.64 35.3902 114.45 37.8502 115.76L38.1701 115.92C42.8601 118.31 48.3801 118.89 54.7301 117.65C55.1701 117.56 55.6101 117.44 56.0501 117.27C56.4901 117.1 56.9602 116.87 57.4702 116.57C57.9902 116.28 58.4601 115.96 58.9001 115.62C59.3401 115.28 59.7801 114.91 60.2101 114.49C70.0801 105.02 77.9402 93.5 83.7802 79.93C89.6302 66.37 92.5501 53.7199 92.5501 41.9799V18.2C92.5501 16.1 92.0201 14.5199 90.9601 13.4599ZM70.6301 74.26C70.6301 75.68 70.2101 77.12 69.3701 78.57C68.5301 80.02 67.4901 81.1 66.2401 81.82L53.0101 89.4599L48.7001 91.95C47.4601 92.66 46.4201 92.78 45.5801 92.3C44.7401 91.82 44.3201 90.87 44.3201 89.45V74.3499C44.3201 73.8499 44.3701 73.3499 44.4801 72.8399C44.6701 71.9199 45.0401 70.98 45.5801 70.04C46.4201 68.59 47.4601 67.51 48.7001 66.79V61.76C48.7001 59.37 49.3401 56.8999 50.6301 54.3699C50.8301 53.9699 51.0502 53.56 51.2802 53.16C51.9202 52.07 52.6001 51.08 53.3301 50.2C53.8501 49.57 54.3901 48.9999 54.9601 48.4799C55.7501 47.7599 56.5802 47.14 57.4702 46.63C59.8902 45.24 61.9501 45.03 63.6701 46.01C65.3901 46.99 66.2401 48.86 66.2401 51.63V56.66C67.2301 56.09 68.0901 55.8999 68.8201 56.0899C69.0101 56.1299 69.1901 56.2 69.3701 56.3C70.2101 56.78 70.6301 57.74 70.6301 59.16V74.26Z" class="pr-icon-iso-solid-stroke" stroke-linejoin="round"/>
    <path d="M60.6002 51.3C59.7602 50.83 58.7202 50.94 57.4702 51.66C57.2902 51.77 57.1102 51.88 56.9302 52.01C55.9302 52.71 55.0702 53.67 54.3502 54.91C53.5102 56.36 53.0902 57.8 53.0902 59.23V64.26L50.6302 63.03L48.7002 62.0701V61.76C48.7002 59.37 49.3402 56.9 50.6302 54.37C50.8302 53.97 51.0502 53.56 51.2802 53.16C51.9202 52.07 52.6002 51.0801 53.3302 50.2001C53.8502 49.5701 54.3902 49 54.9602 48.48L60.6002 51.3Z" class="pr-icon-iso-solid-stroke" stroke-linejoin="round"/>
    <path d="M70.6301 59.16V74.26C70.6301 75.68 70.2101 77.1201 69.3701 78.5701C68.5301 80.0201 67.4901 81.1001 66.2401 81.8201L53.0101 89.46L48.7001 91.9501C47.4601 92.6601 46.4201 92.78 45.5801 92.3C44.7401 91.82 44.3201 90.8701 44.3201 89.4501V74.35C44.3201 73.85 44.37 73.35 44.48 72.84L46.2401 71.8201C47.4901 71.1001 48.5301 70.0201 49.3701 68.5701C50.2101 67.1201 50.6301 65.68 50.6301 64.26V63.03L53.0901 64.26L61.86 59.1901V54.47L66.2401 56.66C67.2301 56.09 68.0901 55.9 68.8201 56.09C69.0101 56.13 69.1901 56.2 69.3701 56.3C70.2101 56.78 70.6301 57.74 70.6301 59.16Z" class="pr-icon-iso-solid-stroke" stroke-linejoin="round"/>
    <path d="M61.86 54.16V59.1901L53.0901 64.26V59.23C53.0901 57.8 53.5101 56.36 54.3501 54.91C55.0701 53.67 55.9301 52.71 56.9301 52.01C57.1101 51.88 57.2901 51.77 57.4701 51.66C58.7201 50.94 59.7601 50.83 60.6001 51.3C61.4401 51.78 61.86 52.74 61.86 54.16Z" class="pr-icon-iso-solid-stroke" stroke-linejoin="round"/>
    <path d="M89.4801 12.46C88.7001 12.15 87.8302 12.0601 86.8502 12.1801L72.5501 14.2801L60.5401 16.0501C59.5201 16.2201 58.5002 16.6001 57.4702 17.1901C56.4502 17.7901 55.4301 18.59 54.4001 19.6L37.5501 36.59L31.7001 42.48L28.1002 46.11C26.4102 47.83 25.0401 49.8401 23.9801 52.1301C22.9201 54.4201 22.3901 56.61 22.3901 58.71V82.48C22.3901 93.08 24.7801 101.67 29.5501 108.25C30.0501 108.96 30.5902 109.65 31.1602 110.31C33.1602 112.64 35.3902 114.45 37.8502 115.76L18.9001 106.28L17.8401 105.75C15.3801 104.45 13.1502 102.63 11.1602 100.31C5.32016 93.5001 2.39014 84.22 2.39014 72.48V48.71C2.39014 46.61 2.9201 44.4201 3.9801 42.1301C5.0401 39.8401 6.41016 37.83 8.10016 36.11L34.4001 9.60002C35.4301 8.59002 36.4502 7.79011 37.4702 7.19011C38.5002 6.60011 39.5201 6.22009 40.5401 6.05009L66.8502 2.1801C68.2002 2.0101 69.3401 2.25008 70.2901 2.91008H70.3001L89.4801 12.46Z" class="pr-icon-iso-solid-stroke" stroke-linejoin="round"/>
</svg>