<svg width="48" height="48" viewBox="0 0 114 111" fill="#229EFF" xmlns="http://www.w3.org/2000/svg" stroke-width="1px" stroke-linecap="round" stroke-linejoin="round"><path d="M111.65 27.6599C111.65 28.3599 111.55 29.0699 111.36 29.7899C111.17 30.5099 110.85 31.2599 110.39 32.0499L89.4399 68.1899C88.5999 69.6399 87.5599 70.7199 86.2999 71.4399C85.0499 72.1599 83.9699 72.3099 83.0599 71.8799C82.1499 71.3599 81.6899 70.3799 81.6899 68.9399C81.6899 67.4999 82.1499 65.9999 83.0599 64.4299L96.1599 41.8299L70.2499 56.7899L62.4 61.3199L45.2399 71.2299C43.9499 71.9699 42.8699 72.0999 41.9999 71.5999C41.1199 71.0999 40.6899 70.1099 40.6899 68.6299C40.6899 67.1499 41.1199 65.6599 41.9999 64.1499C42.8699 62.6399 43.9499 61.5199 45.2399 60.7699L66.4999 48.4999L79.3599 41.0799L96.1599 31.3799L87.7899 26.5299L83.0599 23.7799C82.2199 23.2999 81.7899 22.3599 81.7499 20.9399C81.7099 19.5299 82.1499 18.0299 83.0599 16.4599C83.8899 15.0199 84.9599 13.9299 86.2499 13.1799C86.5099 13.0299 86.7699 12.8999 87.0099 12.7999C87.8499 12.4599 88.5699 12.4099 89.1899 12.6599L89.4399 12.7799L110.39 24.7299C110.85 24.9899 111.17 25.3699 111.36 25.8699C111.55 26.3699 111.65 26.9699 111.65 27.6599Z" stroke="white" stroke-linejoin="round"/><path d="M31.58 47.7499V100.03C31.58 101.51 31.14 103.01 30.27 104.51C29.39 106.02 28.31 107.15 27.02 107.89C25.73 108.64 24.65 108.76 23.77 108.26C22.9 107.76 22.46 106.77 22.46 105.29V53.0099C22.46 51.5299 22.9 50.0399 23.77 48.5299C24.65 47.0299 25.73 45.8999 27.02 45.1499C28.18 44.4799 29.1699 44.3199 29.9999 44.6499L30.27 44.7799C31.01 45.2099 31.4399 45.9899 31.5499 47.1299C31.5699 47.3199 31.58 47.5299 31.58 47.7499Z" stroke="white" stroke-linejoin="round"/><path d="M83.0599 64.4299C82.1499 65.9999 81.6899 67.4999 81.6899 68.9399C81.6899 70.3799 82.1499 71.3599 83.0599 71.8799L63.0599 61.8799C62.7999 61.7299 62.5799 61.5399 62.3999 61.3199L70.2499 56.7899L96.1599 41.8299L83.0599 64.4299Z" stroke="white" stroke-linejoin="round"/><path d="M29.9999 44.6499C29.1699 44.3199 28.18 44.4799 27.02 45.1499C25.73 45.8999 24.65 47.0299 23.77 48.5299C22.9 50.0399 22.46 51.5299 22.46 53.0099V105.29C22.46 106.77 22.9 107.76 23.77 108.26L4.03992 98.3899L3.76996 98.2599C2.89996 97.7599 2.45996 96.7699 2.45996 95.2899V43.0099C2.45996 41.5299 2.89996 40.0399 3.76996 38.5299C4.64996 37.0299 5.72996 35.8999 7.01996 35.1499C8.30996 34.4099 9.38996 34.2899 10.27 34.7799L29.9999 44.6499Z" stroke="white" stroke-linejoin="round"/><path d="M96.16 31.3799L87.49 27.0499L76.16 21.3799L63.0601 13.7799C62.2201 13.2999 61.7901 12.3599 61.7501 10.9399C61.7101 9.52988 62.1501 8.02988 63.0601 6.45988C63.8901 5.01988 64.9601 3.92988 66.2501 3.17988C67.5401 2.43988 68.6001 2.29988 69.4401 2.77988L89.1901 12.6599C88.5701 12.4099 87.8501 12.4599 87.0101 12.7999C86.7701 12.8999 86.5101 13.0299 86.2501 13.1799C84.9601 13.9299 83.8901 15.0199 83.0601 16.4599C82.1501 18.0299 81.7101 19.5299 81.7501 20.9399C81.7901 22.3599 82.2201 23.2999 83.0601 23.7799L87.79 26.5299L96.16 31.3799Z" stroke="white" stroke-linejoin="round"/><path d="M96.1598 31.3799L79.3598 41.0799L66.4998 48.4999L45.2398 60.7699C43.9498 61.5199 42.8698 62.6399 41.9998 64.1499C41.1198 65.6599 40.6898 67.1499 40.6898 68.6299C40.6898 70.1099 41.1198 71.0999 41.9998 71.5999L31.5798 66.3899V47.7499C31.5798 47.5299 31.5698 47.3199 31.5498 47.1299L76.1598 21.3799L87.4898 27.0499L96.1598 31.3799Z" stroke="white" stroke-linejoin="round"/></svg>