<svg width="48" height="48" viewBox="0 0 112 118" xmlns="http://www.w3.org/2000/svg" stroke-width="1px"
     stroke-linecap="round" stroke-linejoin="round">
    <path d="M109.21 38.985C109.21 40.995 108.86 43.205 108.16 45.625C107.46 48.045 106.4 50.465 105 52.875L75.9004 103.075C74.5004 105.495 72.9204 107.615 71.1704 109.425C69.4104 111.245 67.6604 112.655 65.9104 113.675C64.1604 114.685 62.4004 115.295 60.6504 115.505C58.9004 115.705 57.3204 115.415 55.9204 114.615L40.0304 105.555L26.8104 98.025C25.4104 97.225 24.3604 96.015 23.6604 94.415C22.9604 92.805 22.6104 90.995 22.6104 88.985C22.6104 86.975 22.9604 84.755 23.6604 82.345C24.3604 79.925 25.4104 77.505 26.8104 75.085L55.9204 24.895C57.3204 22.475 58.9004 20.355 60.6504 18.535C62.4004 16.725 64.1604 15.305 65.9104 14.295C67.6604 13.285 69.4104 12.675 71.1704 12.465C71.3804 12.445 71.5904 12.425 71.7904 12.415C73.0704 12.345 74.2403 12.565 75.3203 13.065L75.9004 13.355L105 29.945C106.4 30.745 107.46 31.945 108.16 33.555C108.86 35.165 109.21 36.975 109.21 38.985Z" class="pr-icon-iso-solid-stroke" stroke-linejoin="round"/>
    <path d="M75.3203 13.065C74.2403 12.565 73.0704 12.345 71.7904 12.415C71.5904 12.425 71.3804 12.445 71.1704 12.465C69.4104 12.675 67.6604 13.285 65.9104 14.295C64.1604 15.305 62.4004 16.725 60.6504 18.535C58.9004 20.355 57.3204 22.475 55.9204 24.895L26.8104 75.085C25.4104 77.505 24.3604 79.925 23.6604 82.345C22.9604 84.755 22.6104 86.975 22.6104 88.985C22.6104 90.995 22.9604 92.805 23.6604 94.415C24.3604 96.015 25.4104 97.225 26.8104 98.025L40.0304 105.555L55.9204 114.615L36.5504 104.935L35.9204 104.615L6.81042 88.025C5.41042 87.225 4.3604 86.015 3.6604 84.415C2.9604 82.805 2.61035 80.995 2.61035 78.985C2.61035 76.975 2.9604 74.755 3.6604 72.345C4.3604 69.925 5.41042 67.505 6.81042 65.085L35.9204 14.895C37.3204 12.475 38.9004 10.355 40.6504 8.53499C42.4004 6.72499 44.1604 5.305 45.9104 4.295C47.6604 3.285 49.4104 2.67498 51.1704 2.46498C52.7804 2.27498 54.2404 2.50499 55.5504 3.16499L75.3203 13.065Z" class="pr-icon-iso-solid-stroke" stroke-linejoin="round"/>
</svg>