<svg width="48" height="48" viewBox="0 0 101 101" xmlns="http://www.w3.org/2000/svg" stroke-width="1px"
     stroke-linecap="round" stroke-linejoin="round">
    <path d="M48.9202 96.8201L28.9202 86.8201C24.9002 84.5301 22.5602 80.4601 21.9102 74.6101L29.0901 78.1702L29.2301 78.24C32.6401 80.31 36.8102 80.3702 41.7102 78.4602V80.9602C41.7102 83.1902 41.9002 85.21 42.3002 87.02C43.2702 91.59 45.4802 94.8601 48.9202 96.8201Z" class="pr-icon-iso-solid-stroke" stroke-linejoin="round"/>
    <path d="M60.6801 24.3101V41.72C60.6801 46.51 59.19 51.4701 56.22 56.5901C53.25 61.7201 49.68 65.4801 45.51 67.8901C41.33 70.3001 37.76 70.6602 34.79 68.9602C32.67 67.7502 31.3001 65.7502 30.7001 62.9602C30.4501 61.8502 30.3301 60.61 30.3301 59.24V54.25C32.5001 52.17 34.47 49.6201 36.22 46.5901C37.28 44.7601 38.1501 42.9502 38.8301 41.1602C39.5101 40.6002 40.11 39.87 40.62 38.99C41.35 37.74 41.7101 36.5 41.7101 35.26V29.02L47.9401 32.1301L50.39 33.3601C51.12 33.7701 52.02 33.67 53.09 33.05C54.17 32.43 55.07 31.49 55.79 30.23C55.84 30.14 55.8901 30.06 55.9301 29.97C56.5701 28.81 56.88 27.65 56.88 26.5L60.6801 24.3101Z" class="pr-icon-iso-solid-stroke" stroke-linejoin="round"/>
    <path d="M66.9502 13C66.6302 12.87 66.2802 12.8301 65.9102 12.8901C66.0202 12.8001 66.1401 12.7201 66.2601 12.6501L66.9502 13Z" class="pr-icon-iso-solid-stroke" stroke-linejoin="round"/>
    <path d="M83.4298 49.5801V56.8701C83.4298 62.3201 81.7798 67.9001 78.4598 73.6201C75.1398 79.3501 71.1098 83.5801 66.3698 86.3201C61.6298 89.0501 57.5998 89.4701 54.2798 87.5801C52.3598 86.4901 50.9898 84.8 50.1898 82.51C49.5998 80.85 49.2998 78.8701 49.2998 76.5801V74.3601C51.0598 73.0301 52.6997 71.4702 54.2197 69.6702C57.5297 66.2502 60.3997 62.19 62.8597 57.49C65.3897 52.64 67.0298 47.88 67.7798 43.22L70.9398 44.8101L79.2998 48.98L79.3597 49.01C80.5297 49.63 81.8798 49.8201 83.4298 49.5801Z" class="pr-icon-iso-solid-stroke" stroke-linejoin="round"/>
    <path d="M94.5997 20.8602C92.5197 20.0102 90.0697 20.4101 87.2297 22.0401C84.0697 23.8701 81.3798 26.69 79.1698 30.5C76.9598 34.32 75.8497 38.0402 75.8497 41.6702C75.8497 44.5002 76.5597 46.61 77.9797 48C78.3897 48.4 78.8298 48.73 79.2998 48.98L70.9398 44.8101L67.7798 43.22C68.0998 41.24 68.2598 39.2801 68.2598 37.3401V15.5801C68.2598 14.3501 67.8998 13.5202 67.1698 13.1102L66.9498 13L66.2598 12.6502C66.5798 12.4302 66.8997 12.2301 67.2297 12.0401C70.3897 10.2201 73.0798 9.94024 75.2898 11.2002L94.5997 20.8602Z" class="pr-icon-iso-solid-stroke" stroke-linejoin="round"/>
    <path d="M55.5698 15.2199C54.8898 14.9399 54.0597 15.08 53.0897 15.64C52.0197 16.26 51.1198 17.1901 50.3898 18.4501C49.6598 19.7001 49.2998 20.9501 49.2998 22.1801V30.88C49.2998 32.12 49.6598 32.94 50.3898 33.36L47.9398 32.13L41.7098 29.0199V26.5599C41.7098 25.3699 41.3698 24.55 40.6798 24.13C40.6598 24.11 40.6398 24.1 40.6198 24.09L40.3998 23.9799L35.0598 21.3099L29.2998 18.4301V12.1801C29.2998 10.9501 29.6598 9.70008 30.3898 8.45008C31.1198 7.19008 32.0197 6.26002 33.0897 5.64002C34.1697 5.02002 35.0698 4.90996 35.7898 5.32996L38.6698 6.7699L48.2598 11.57L55.5698 15.2199Z" class="pr-icon-iso-solid-stroke" stroke-linejoin="round"/>
    <path d="M98.61 28.53C98.61 31.36 97.9 34.29 96.47 37.32C95.05 40.36 93.23 42.9802 91.02 45.2002V52.5C91.02 60.33 88.6201 68.3901 83.8101 76.6801C79.0101 84.9601 73.19 91.08 66.37 95.02C59.54 98.96 53.72 99.56 48.92 96.82C45.48 94.86 43.27 91.59 42.3 87.02C41.9 85.21 41.7101 83.1902 41.7101 80.9602V78.4602C36.8101 80.3702 32.64 80.31 29.23 78.24L29.09 78.1701C28.76 77.9801 28.46 77.76 28.15 77.53C24.55 74.79 22.75 70.1501 22.75 63.6201V41.8601C22.75 40.6301 23.11 39.3801 23.84 38.1301C24.11 37.6601 24.41 37.2401 24.73 36.8601C25.26 36.2201 25.87 35.71 26.54 35.32L34.13 30.9401C34.13 29.7101 34.49 28.4602 35.22 27.2102C35.44 26.8202 35.6801 26.4701 35.9401 26.1401C36.5101 25.4101 37.17 24.8301 37.92 24.4001C38.88 23.8401 39.71 23.6999 40.4 23.9799L40.62 24.0901C40.62 24.0901 40.6601 24.1101 40.6801 24.1301C41.3701 24.5501 41.7101 25.37 41.7101 26.56V35.26C41.7101 36.5 41.35 37.74 40.62 38.99C40.11 39.87 39.5101 40.6001 38.8301 41.1601C38.5401 41.4101 38.24 41.62 37.92 41.81C36.84 42.43 35.94 42.5301 35.22 42.1101C34.49 41.7001 34.13 40.8801 34.13 39.6401L32.34 40.6701L30.3301 41.83V59.24C30.3301 60.61 30.4501 61.8502 30.7001 62.9602C31.3001 65.7502 32.67 67.7502 34.79 68.9602C37.76 70.6602 41.33 70.3001 45.51 67.8901C49.68 65.4801 53.25 61.72 56.22 56.59C59.19 51.47 60.6801 46.5099 60.6801 41.7199V24.31L56.88 26.5C56.88 27.65 56.5701 28.8099 55.9301 29.9699C55.8901 30.0599 55.84 30.1399 55.79 30.2299C55.07 31.4899 54.17 32.43 53.09 33.05C52.02 33.67 51.12 33.7701 50.39 33.3601C49.66 32.9401 49.3 32.1201 49.3 30.8801V22.1801C49.3 20.9501 49.66 19.7002 50.39 18.4502C51.12 17.1902 52.02 16.2601 53.09 15.6401C54.06 15.0801 54.8901 14.9399 55.5701 15.2199L55.79 15.33C56.52 15.74 56.88 16.57 56.88 17.8L64.47 13.4201C64.99 13.1201 65.47 12.9401 65.91 12.8901C66.28 12.8301 66.6301 12.87 66.9501 13L67.17 13.1101C67.9 13.5201 68.26 14.35 68.26 15.58V37.3401C68.26 39.2801 68.1 41.2399 67.78 43.2199C67.03 47.8799 65.39 52.64 62.86 57.49C60.4 62.19 57.53 66.2501 54.22 69.6701C52.68 71.2801 51.04 72.75 49.3 74.08V76.58C49.3 78.87 49.6001 80.85 50.1901 82.51C50.9901 84.8 52.36 86.49 54.28 87.58C57.6 89.47 61.63 89.05 66.37 86.32C71.11 83.58 75.1401 79.3501 78.4601 73.6201C81.7801 67.9001 83.4301 62.3201 83.4301 56.8701V49.58C81.8801 49.82 80.53 49.63 79.36 49.01L79.3 48.9799C78.83 48.7299 78.39 48.4 77.98 48C76.56 46.61 75.85 44.5001 75.85 41.6701C75.85 38.0401 76.96 34.32 79.17 30.5C81.38 26.69 84.07 23.87 87.23 22.04C90.07 20.41 92.52 20.0101 94.6 20.8601L94.72 20.9101L95.29 21.2002C97.5 22.4602 98.61 24.9 98.61 28.53Z" class="pr-icon-iso-solid-stroke" stroke-linejoin="round"/>
    <path d="M66.2599 12.6501C66.1399 12.7201 66.0199 12.8001 65.9099 12.8901C65.4699 12.9401 64.9898 13.1201 64.4698 13.4201L56.8799 17.8C56.8799 16.57 56.5199 15.74 55.7899 15.33L55.5699 15.2199L48.2599 11.57L38.6699 6.76998L44.4698 3.42012C45.5398 2.80012 46.4499 2.70006 47.1699 3.11006L66.2599 12.6501Z" class="pr-icon-iso-solid-stroke" stroke-linejoin="round"/>
    <path d="M40.3999 23.9799C39.7099 23.6999 38.8799 23.84 37.9199 24.4C37.1699 24.83 36.5099 25.41 35.9399 26.14C35.6799 26.47 35.4398 26.8201 35.2198 27.2101C34.4898 28.4601 34.1299 29.7101 34.1299 30.9401L21.71 24.7299L14.1299 20.9401C14.1299 19.7101 14.4898 18.4601 15.2198 17.2101C15.9398 15.9501 16.8399 15.02 17.9199 14.4C18.9899 13.78 19.8899 13.67 20.6199 14.09L29.2999 18.4301L35.0599 21.3099L40.3999 23.9799Z" class="pr-icon-iso-solid-stroke" stroke-linejoin="round"/>
    <path d="M35.2198 42.1101L32.3398 40.6702L34.1299 39.6401C34.1299 40.8801 34.4898 41.7001 35.2198 42.1101Z" class="pr-icon-iso-solid-stroke" stroke-linejoin="round"/>
    <path d="M28.15 77.53C28.46 77.76 28.76 77.9802 29.09 78.1702L21.91 74.6101L10.64 68.97C9.77001 68.61 8.94002 68.13 8.15002 67.53C4.55002 64.79 2.75 60.1501 2.75 53.6201V31.8601C2.75 30.6301 3.10997 29.3801 3.83997 28.1301C4.55997 26.8801 5.47004 25.9401 6.54004 25.3201L14.13 20.9402L21.7101 24.73L34.13 30.9402L26.54 35.3201C25.87 35.7101 25.26 36.2201 24.73 36.8601C24.41 37.2401 24.11 37.6601 23.84 38.1301C23.11 39.3801 22.75 40.6301 22.75 41.8601V63.6201C22.75 70.1501 24.55 74.79 28.15 77.53Z" class="pr-icon-iso-solid-stroke" stroke-linejoin="round"/>
    <path d="M10.6396 68.97L9.67969 68.49" class="pr-icon-iso-solid-stroke" stroke-linejoin="round"/>
</svg>