<svg width="48" height="48" viewBox="0 0 107 115" xmlns="http://www.w3.org/2000/svg" stroke-width="1px"
     stroke-linecap="round" stroke-linejoin="round">
    <path d="M78.7698 34.7401L79.6399 35.1801C79.3499 35.0201 79.0698 34.8601 78.7698 34.7401Z" class="pr-icon-iso-solid-stroke" stroke-linejoin="round"/>
    <path d="M104.74 38.83C104.74 40.03 104.38 41.25 103.67 42.48C102.96 43.71 102.07 44.63 101.02 45.24L93.5798 49.53C92.5298 50.14 91.6499 50.24 90.9399 49.83C90.2199 49.43 89.8699 48.62 89.8699 47.41C89.8699 46.2 90.2199 44.98 90.9399 43.76C91.6499 42.53 92.5298 41.61 93.5798 41L101.02 36.71C102.07 36.1 102.96 36 103.67 36.4C104.38 36.81 104.74 37.62 104.74 38.83Z" class="pr-icon-iso-solid-stroke" stroke-linejoin="round"/>
    <path d="M93.8198 75.2101C93.7898 76.4301 93.43 77.6701 92.75 78.9201C92 80.2001 91.1098 81.15 90.0498 81.75C88.9998 82.36 88.13 82.4401 87.45 81.9801L82.25 78.9001C81.56 78.4401 81.22 77.63 81.22 76.45C81.22 75.27 81.56 74.1101 82.25 72.9301C82.93 71.7501 83.7798 70.8701 84.7998 70.2801C85.8198 69.6901 86.71 69.5701 87.45 69.9301L92.75 72.8401C93.49 73.1901 93.8498 73.9801 93.8198 75.2101Z" class="pr-icon-iso-solid-stroke" stroke-linejoin="round"/>
    <path d="M67.5598 94.4201V102.95C67.5598 104.16 67.2 105.38 66.49 106.61C65.78 107.84 64.8998 108.76 63.8398 109.37C62.7898 109.97 61.9099 110.07 61.1899 109.67C60.4799 109.26 60.1199 108.45 60.1199 107.25V98.7101C60.1199 97.5001 60.4799 96.2901 61.1899 95.0601C61.9099 93.8301 62.7898 92.9101 63.8398 92.3001C64.7898 91.7501 65.5998 91.6201 66.2698 91.8901L66.49 92.0001C67.2 92.4001 67.5598 93.2101 67.5598 94.4201Z" class="pr-icon-iso-solid-stroke" stroke-linejoin="round"/>
    <path d="M93.7698 14.9701C93.7698 16.1801 93.43 17.3801 92.75 18.5501L87.45 27.6901C87.36 27.8501 87.2599 28.0001 87.1699 28.1501C86.5299 29.1001 85.7599 29.8401 84.8499 30.3701C84.7299 30.4401 84.61 30.5001 84.49 30.5501C83.59 30.9901 82.85 31.0301 82.25 30.6901C81.56 30.3101 81.22 29.5301 81.22 28.3501C81.22 27.7301 81.31 27.1001 81.51 26.4601C81.68 25.8901 81.92 25.3101 82.25 24.7201L87.45 15.6401C88.19 14.3601 89.0799 13.4201 90.0999 12.8301C91.0099 12.3001 91.82 12.1701 92.51 12.4601L92.75 12.5801C93.43 12.9701 93.7698 13.7701 93.7698 14.9701Z" class="pr-icon-iso-solid-stroke" stroke-linejoin="round"/>
    <path d="M78.7698 34.74L79.6399 35.18C79.3499 35.02 79.0698 34.86 78.7698 34.74Z" class="pr-icon-iso-solid-stroke" stroke-linejoin="round"/>
    <path d="M78.6699 34.7C76.3099 33.61 73.6898 33.39 70.7998 34.01C69.2498 34.34 67.6199 34.9201 65.9099 35.7401C65.2299 36.0701 64.5398 36.43 63.8398 36.84C57.6498 40.42 52.3798 45.9501 48.0398 53.4301C43.6998 60.9101 41.5298 68.21 41.5298 75.32C41.5298 76.67 41.6098 77.94 41.7698 79.13C41.9598 80.59 42.27 81.93 42.72 83.13C43.7 85.89 45.3198 87.98 47.5598 89.39V89.45L40.7 86.02L35.0498 83.2C35.6998 82.65 36.27 81.96 36.75 81.12C36.8 81.03 36.8499 80.95 36.8899 80.86C37.5099 79.72 37.8198 78.58 37.8198 77.46C37.8198 76.25 37.46 75.45 36.75 75.04L36.5298 74.9301L21.6099 67.47C21.5499 66.78 21.5298 66.06 21.5298 65.32C21.5298 59.58 22.9498 53.71 25.7798 47.73L40.23 54.95C40.98 55.3 41.8398 55.19 42.8398 54.62C43.8298 54.05 44.6899 53.16 45.4399 51.95C46.1199 50.77 46.46 49.58 46.46 48.37C46.46 47.16 46.1199 46.36 45.4399 45.97L40.1399 42.95L39.9299 42.85L31.25 38.5C34.9 33.47 39.0998 29.58 43.8398 26.84C44.7198 26.33 45.5899 25.88 46.4299 25.5L61.1899 32.88C61.9099 33.28 62.7898 33.18 63.8398 32.57C64.2398 32.34 64.62 32.07 64.97 31.75C65.54 31.23 66.05 30.58 66.49 29.82C66.68 29.5 66.84 29.17 66.98 28.85L72.6399 31.6801L78.6699 34.7Z" class="pr-icon-iso-solid-stroke" stroke-linejoin="round"/>
    <path d="M86.1499 49.5599C86.1499 55.2999 84.7299 61.1599 81.8999 67.1499C81.2299 68.5699 80.4799 70.0099 79.6399 71.4499C78.6099 73.2299 77.5299 74.8899 76.3799 76.4499C72.7499 81.4499 68.5698 85.31 63.8398 88.03C62.9598 88.54 62.09 88.9899 61.25 89.3799C56.17 91.7099 51.7598 91.8099 48.0398 89.6899C47.8798 89.5999 47.7198 89.4999 47.5598 89.3899C45.3198 87.9799 43.7 85.8899 42.72 83.1299C42.27 81.9299 41.9598 80.5899 41.7698 79.1299C41.6098 77.9399 41.5298 76.6699 41.5298 75.3199C41.5298 68.2099 43.6998 60.91 48.0398 53.43C52.3798 45.95 57.6498 40.42 63.8398 36.84C64.5398 36.43 65.2299 36.07 65.9099 35.74C67.6199 34.92 69.2498 34.3399 70.7998 34.0099C73.6898 33.3899 76.3099 33.6099 78.6699 34.6999L78.7698 34.74L79.6399 35.18C79.8799 35.32 80.1199 35.4699 80.3499 35.6199C83.7899 37.9199 85.6998 41.8399 86.0698 47.3899C86.1298 48.0899 86.1499 48.8099 86.1499 49.5599Z" class="pr-icon-iso-solid-stroke" stroke-linejoin="round"/>
    <path d="M46.5498 96.5101V96.5801C46.5498 97.7501 46.1799 98.9801 45.4399 100.26L44.75 101.45L40.23 109.24C39.49 110.52 38.5898 111.47 37.5398 112.07C36.4798 112.68 35.6199 112.76 34.9399 112.3C34.2499 111.91 33.9099 111.11 33.9099 109.9C33.9099 108.69 34.2499 107.5 34.9399 106.32L40.1299 97.37L40.23 97.1901C40.92 96.0101 41.7698 95.1301 42.7898 94.5401C43.8098 93.9501 44.6899 93.8301 45.4399 94.1801C46.1599 94.5901 46.5298 95.3701 46.5498 96.5101Z" class="pr-icon-iso-solid-stroke" stroke-linejoin="round"/>
    <path d="M45.4399 94.1801C44.6899 93.8301 43.8098 93.9501 42.7898 94.5401C41.7698 95.1301 40.92 96.0101 40.23 97.1901L40.1299 97.3701L34.9399 106.32C34.2499 107.5 33.9099 108.69 33.9099 109.9C33.9099 111.11 34.2499 111.91 34.9399 112.3L14.9399 102.3C14.2499 101.91 13.9099 101.11 13.9099 99.9001C13.9099 98.6901 14.2499 97.5001 14.9399 96.3201L20.23 87.1901C20.32 87.0301 20.4198 86.8801 20.5198 86.7301L24.01 88.4701C24.64 88.8301 25.3898 88.8001 26.2698 88.3801C26.3998 88.3101 26.5299 88.2501 26.6599 88.1701L29.7998 86.3601L40.1199 91.5201L45.4399 94.1801Z" class="pr-icon-iso-solid-stroke" stroke-linejoin="round"/>
    <path d="M37.8198 77.46C37.8198 78.58 37.5099 79.72 36.8899 80.86C36.8499 80.95 36.8 81.0299 36.75 81.1199C36.27 81.9599 35.6998 82.65 35.0498 83.2C34.7498 83.46 34.4299 83.6899 34.0999 83.8799L29.7998 86.36L26.6599 88.17C26.5299 88.25 26.3998 88.3099 26.2698 88.3699C25.3898 88.7999 24.64 88.83 24.01 88.47C23.3 88.07 22.95 87.26 22.95 86.05C22.95 85.48 23.0299 84.91 23.1799 84.34C23.3599 83.69 23.63 83.04 24.01 82.39C24.73 81.16 25.6099 80.24 26.6599 79.64L27.3298 79.2499L34.0999 75.34C35.1499 74.74 36.04 74.63 36.75 75.04C37.46 75.45 37.8198 76.25 37.8198 77.46Z" class="pr-icon-iso-solid-stroke" stroke-linejoin="round"/>
    <path d="M36.75 75.04C36.04 74.63 35.1499 74.74 34.0999 75.34L27.3298 79.2499L26.6599 79.64C25.6099 80.24 24.73 81.16 24.01 82.39C23.63 83.04 23.3599 83.69 23.1799 84.34C23.0299 84.91 22.95 85.48 22.95 86.05C22.95 87.26 23.3 88.07 24.01 88.47L20.5198 86.73L4.22998 78.58L4.01001 78.47C3.30001 78.07 2.94995 77.26 2.94995 76.05C2.94995 74.84 3.30001 73.62 4.01001 72.39C4.73001 71.16 5.60991 70.24 6.65991 69.64L14.0999 65.34C15.1499 64.74 16.04 64.63 16.75 65.04L21.6099 67.47L36.75 75.04Z" class="pr-icon-iso-solid-stroke" stroke-linejoin="round"/>
    <path d="M67.5598 17.63V26.16C67.5598 27.05 67.36 27.95 66.98 28.85C66.84 29.17 66.68 29.5 66.49 29.82C66.05 30.58 65.54 31.23 64.97 31.75C64.62 32.07 64.2398 32.34 63.8398 32.57C62.7898 33.18 61.9099 33.28 61.1899 32.88C60.4799 32.47 60.1199 31.66 60.1199 30.45V21.9201C60.1199 20.7101 60.4799 19.49 61.1899 18.27C61.1999 18.25 61.21 18.23 61.23 18.21C61.94 17.01 62.8098 16.11 63.8398 15.51C64.7898 14.96 65.5998 14.83 66.2698 15.1L66.49 15.21C67.18 15.6 67.5398 16.37 67.5498 17.51C67.5598 17.55 67.5598 17.59 67.5598 17.63Z" class="pr-icon-iso-solid-stroke" stroke-linejoin="round"/>
    <path d="M66.2698 15.1001C65.5998 14.8301 64.7898 14.9601 63.8398 15.5101C62.8098 16.1101 61.94 17.0101 61.23 18.2101C61.21 18.2301 61.1999 18.2501 61.1899 18.2701C60.4799 19.4901 60.1199 20.7101 60.1199 21.9201V30.4501C60.1199 31.6601 60.4799 32.4701 61.1899 32.8801L41.1899 22.8801C40.4799 22.4701 40.1199 21.6601 40.1199 20.4501V11.9201C40.1199 10.7101 40.4799 9.4901 41.1899 8.2701C41.9099 7.0401 42.7898 6.12009 43.8398 5.51009C44.8998 4.90009 45.78 4.8001 46.49 5.2101L62.98 13.4501L66.2698 15.1001Z" class="pr-icon-iso-solid-stroke" stroke-linejoin="round"/>
    <path d="M92.51 12.46C91.82 12.17 91.0099 12.3 90.0999 12.83C89.0799 13.42 88.19 14.36 87.45 15.64L82.25 24.72C81.92 25.31 81.68 25.89 81.51 26.46C81.31 27.1 81.22 27.73 81.22 28.35C81.22 29.53 81.56 30.31 82.25 30.69L77.8899 28.51L67.5598 23.35V17.63C67.5598 17.63 67.5598 17.55 67.5498 17.51C67.5398 16.37 67.18 15.6 66.49 15.21L66.2698 15.1L62.98 13.45L67.45 5.64C68.19 4.36 69.0799 3.42 70.0999 2.83C71.1199 2.24 72 2.15 72.75 2.58L92.51 12.46Z" class="pr-icon-iso-solid-stroke" stroke-linejoin="round"/>
    <path d="M103.67 36.4C102.96 36 102.07 36.1 101.02 36.71L93.5798 41C92.5298 41.61 91.6499 42.53 90.9399 43.76C90.2199 44.98 89.8699 46.2 89.8699 47.41C89.8699 48.62 90.2199 49.43 90.9399 49.83L86.0698 47.4C85.6998 41.84 83.7899 37.92 80.3499 35.62C80.1199 35.47 79.8799 35.3201 79.6399 35.1801C79.3499 35.0201 79.0698 34.8601 78.7698 34.7401L78.6699 34.7L72.6399 31.6801C72.9399 31.4101 73.2498 31.19 73.5798 31L77.8899 28.51L82.25 30.69C82.85 31.03 83.59 30.99 84.49 30.55C84.61 30.5 84.7299 30.44 84.8499 30.37C85.7599 29.84 86.5299 29.1 87.1699 28.15L103.67 36.4Z" class="pr-icon-iso-solid-stroke" stroke-linejoin="round"/>
    <path d="M82.25 78.9L87.45 81.98L76.3799 76.45C77.5299 74.89 78.6099 73.23 79.6399 71.45C80.4799 70.01 81.2299 68.57 81.8999 67.15L87.45 69.9301C86.71 69.5701 85.8198 69.69 84.7998 70.28C83.7798 70.87 82.93 71.7501 82.25 72.9301C81.56 74.1101 81.22 75.28 81.22 76.45C81.22 77.62 81.56 78.44 82.25 78.9Z" class="pr-icon-iso-solid-stroke" stroke-linejoin="round"/>
    <path d="M66.2698 91.89C65.5998 91.62 64.7898 91.75 63.8398 92.3C62.7898 92.91 61.9099 93.83 61.1899 95.06C60.4799 96.29 60.1199 97.5 60.1199 98.71V107.25C60.1199 108.45 60.4799 109.26 61.1899 109.67L44.75 101.45L45.4399 100.26C46.1799 98.98 46.5498 97.75 46.5498 96.58V96.51C46.5298 95.37 46.1599 94.5901 45.4399 94.1801L40.1199 91.52V88.71C40.1199 87.82 40.32 86.92 40.7 86.02L47.5598 89.45L48.0398 89.69C51.7598 91.81 56.17 91.71 61.25 89.38L66.2698 91.89Z" class="pr-icon-iso-solid-stroke" stroke-linejoin="round"/>
    <path d="M46.46 48.37C46.46 49.58 46.1199 50.77 45.4399 51.95C44.6899 53.16 43.8298 54.05 42.8398 54.62C41.8398 55.19 40.98 55.3 40.23 54.95L34.9399 52.04C34.1899 51.61 33.8198 50.8 33.8198 49.59C33.8198 48.38 34.1899 47.17 34.9399 45.96C35.6199 44.78 36.4798 43.89 37.5398 43.28C38.4898 42.73 39.2899 42.59 39.9299 42.85L40.1399 42.95L45.4399 45.97C46.1199 46.36 46.46 47.16 46.46 48.37Z" class="pr-icon-iso-solid-stroke" stroke-linejoin="round"/>
    <path d="M40.23 54.9501L25.7798 47.7301L20.23 44.9501L14.9399 42.0401C14.1899 41.6101 13.8198 40.8001 13.8198 39.5901C13.8198 38.3801 14.1899 37.1701 14.9399 35.9601C15.6199 34.7801 16.4798 33.8901 17.5398 33.2801C18.5898 32.6701 19.4599 32.5601 20.1399 32.9501L31.25 38.5001L39.9299 42.8501C39.2899 42.5901 38.4898 42.7301 37.5398 43.2801C36.4798 43.8901 35.6199 44.7801 34.9399 45.9601C34.1899 47.1701 33.8198 48.3801 33.8198 49.5901C33.8198 50.8001 34.1899 51.6101 34.9399 52.0401L40.23 54.9501Z" class="pr-icon-iso-solid-stroke" stroke-linejoin="round"/>
</svg>