<svg width="24" height="24" viewBox="0 0 109 81" xmlns="http://www.w3.org/2000/svg" stroke-width="1px" stroke-linecap="round" stroke-linejoin="round">
    <path d="M47.1599 19.3702C47.1599 20.2602 46.8698 21.2102 46.2898 22.2102C45.7098 23.2102 45.03 23.9202 44.25 24.3302C43.48 24.7402 42.8 24.8201 42.22 24.5601L42.0999 24.4902L37.95 22.2402C37.5 24.3602 37.17 26.4103 36.98 28.4203C36.79 30.4203 36.6899 32.3902 36.6899 34.3202C36.6899 35.1102 36.71 35.8802 36.75 36.6402C36.9 40.3802 37.4699 43.7802 38.4299 46.8302C38.8499 48.1502 39.3399 49.3902 39.8899 50.5702C40.8699 52.6702 42.07 54.5502 43.48 56.2102C43.99 56.7302 44.2199 57.4902 44.1599 58.4902C44.0899 59.4902 43.7699 60.4902 43.1899 61.4902C42.5999 62.5002 41.9299 63.1902 41.1499 63.5602C40.5899 63.8302 40.0999 63.8603 39.6799 63.6703C39.5099 63.5903 39.35 63.4802 39.21 63.3402C36.98 60.9702 35.1898 58.1002 33.8398 54.7202C33.5398 53.9902 33.26 53.2402 33.01 52.4602C31.58 48.0902 30.8699 43.1603 30.8699 37.6703C30.8699 35.6703 30.9699 33.6102 31.1599 31.5002C31.3599 29.3802 31.6498 27.2102 32.0398 24.9902L27.28 33.1803C26.7 34.1803 26.02 34.9102 25.25 35.3602C24.47 35.8102 23.79 35.8602 23.21 35.5302C22.63 35.2002 22.3398 34.5902 22.3398 33.7002C22.3398 32.8102 22.63 31.8602 23.21 30.8602L32.0398 15.6402C32.8098 14.3002 33.72 13.3402 34.75 12.7402C35.66 12.2102 36.4699 12.0902 37.1899 12.3702L37.47 12.5102L46.2898 17.5403C46.4498 17.6303 46.58 17.7402 46.7 17.8702H46.71C47.01 18.2302 47.1599 18.7302 47.1599 19.3702Z" class="pr-icon-iso-solid-stroke" stroke-linejoin="round"/>
    <path d="M39.6799 63.6703L30.2998 58.9902L19.7 53.6803C19.52 53.6003 19.36 53.4902 19.21 53.3402C16.5 50.4602 14.43 46.8302 13.01 42.4602C11.73 38.5502 11.0299 34.1902 10.8999 29.3802L17.3999 32.6202L23.21 35.5303C23.79 35.8603 24.47 35.8102 25.25 35.3602C26.02 34.9102 26.7 34.1803 27.28 33.1803L32.0398 24.9902C31.6498 27.2102 31.3599 29.3802 31.1599 31.5002C30.9699 33.6102 30.8699 35.6703 30.8699 37.6703C30.8699 43.1603 31.58 48.0902 33.01 52.4602C33.26 53.2402 33.5398 53.9902 33.8398 54.7202C35.1898 58.1002 36.98 60.9702 39.21 63.3402C39.35 63.4802 39.5099 63.5903 39.6799 63.6703Z" class="pr-icon-iso-solid-stroke" stroke-linejoin="round"/>
    <path d="M61.6997 59.3701L55.1096 63.7301C53.8196 64.6101 52.6295 65.7602 51.5495 67.1602C51.4395 67.2902 51.3397 67.4401 51.2297 67.5801C50.0697 69.1801 49.1597 70.9101 48.5197 72.7701L48.3195 73.3301C47.8695 74.7001 47.8397 75.8501 48.2297 76.7701C48.4497 77.3101 48.7696 77.6801 49.1896 77.8901L29.2297 67.9102H29.2097C28.7797 67.6902 28.4597 67.3201 28.2297 66.7701C27.8397 65.8501 27.8695 64.7001 28.3195 63.3301L28.5197 62.7701C28.9797 61.4501 29.5695 60.1901 30.2995 58.9901L39.6796 63.6702C40.0996 63.8602 40.5896 63.8301 41.1496 63.5601C41.9296 63.1901 42.5996 62.5001 43.1896 61.4901C43.7696 60.4901 44.0896 59.4901 44.1596 58.4901C44.2196 57.4901 43.9897 56.7301 43.4797 56.2101C42.0697 54.5501 40.8696 52.6701 39.8896 50.5701L41.6997 49.3701L61.6997 59.3701Z" class="pr-icon-iso-solid-stroke" stroke-linejoin="round"/>
    <path d="M81.9702 33.6501L78.3801 37.2802L75.7803 30.5601L81.9702 33.6501Z" class="pr-icon-iso-solid-stroke" stroke-linejoin="round"/>
    <path d="M85.1798 18.2601C85.0098 18.2201 84.8297 18.2 84.6297 18.21C84.4197 18.21 84.2098 18.2401 83.9998 18.3001C83.2598 18.4901 82.4798 18.9901 81.6798 19.8001C80.6398 20.8401 79.8998 22.0301 79.4498 23.3701C78.9898 24.7101 78.9597 25.86 79.3497 26.82L81.9698 33.6501L75.7798 30.56L74.4097 27.0001C74.1797 26.4401 73.8698 26.05 73.4498 25.82L73.3897 25.7901L60.2798 19.2401L59.3497 16.82C58.9597 15.86 58.9898 14.7101 59.4498 13.3701C59.8998 12.0301 60.6398 10.8401 61.6798 9.80014C62.7098 8.76014 63.6997 8.23005 64.6297 8.21005C64.9997 8.20005 65.3297 8.26012 65.6097 8.41012L72.7098 11.94L85.1197 18.1201L85.1798 18.2601Z" class="pr-icon-iso-solid-stroke" stroke-linejoin="round"/>
    <path d="M37.1899 12.37C36.4699 12.09 35.66 12.21 34.75 12.74C33.72 13.34 32.8098 14.3 32.0398 15.64L23.21 30.86C22.63 31.86 22.3398 32.8099 22.3398 33.6999C22.3398 34.5899 22.63 35.2 23.21 35.53L17.3999 32.63L10.8999 29.38L3.3999 25.62L3.20996 25.53C2.62996 25.2 2.33984 24.5899 2.33984 23.6999C2.33984 22.8099 2.62996 21.86 3.20996 20.86L12.0398 5.64C12.8098 4.3 13.72 3.33997 14.75 2.73997C15.78 2.13997 16.69 2.05999 17.47 2.50999L37.1899 12.37Z" class="pr-icon-iso-solid-stroke" stroke-linejoin="round"/>
    <path d="M92.9202 22.7601L89.2402 26.4501L86.6201 19.6201L92.9202 22.7601Z" class="pr-icon-iso-solid-stroke" stroke-linejoin="round"/>
    <path d="M99.1299 14.3299C98.8599 14.1999 98.55 14.14 98.21 14.15C97.27 14.17 96.2901 14.71 95.2501 15.75C94.2201 16.79 93.4701 17.9799 93.0201 19.3199C92.5701 20.6499 92.54 21.8 92.92 22.76L86.6199 19.62H86.6099C86.3099 18.85 85.83 18.4 85.18 18.26L85.1199 18.13L72.71 11.9399C72.59 11.1699 72.6901 10.2899 73.0201 9.31992C73.4701 7.97992 74.2201 6.78997 75.2501 5.74997C76.2901 4.70997 77.27 4.16999 78.21 4.14999C78.56 4.13999 78.88 4.19994 79.15 4.33994L99.1299 14.3299Z" class="pr-icon-iso-solid-stroke" stroke-linejoin="round"/>
    <path d="M65.6096 8.40991L65.5596 8.37988" class="pr-icon-iso-solid-stroke" stroke-linejoin="round"/>
    <path d="M85.5303 18.3298L85.1201 18.1299" class="pr-icon-iso-solid-stroke" stroke-linejoin="round"/>
    <path d="M67.2297 30.76C66.7797 32.09 66.7496 33.2399 67.1296 34.2099L71.1096 44.48L64.7397 41.3L59.0298 26.62L58.1196 24.28C57.8896 23.71 57.5596 23.3099 57.1296 23.0899L57.0496 23.05L56.6697 22.86L48.2598 18.66C48.5998 18.14 48.9997 17.6499 49.4597 17.1899C50.4897 16.1499 51.4797 15.6099 52.4197 15.5899C52.7497 15.5799 53.0496 15.64 53.3096 15.76L53.4897 15.85L60.2798 19.24L73.3896 25.79C73.1096 25.65 72.7797 25.5799 72.4197 25.5899C71.4797 25.6099 70.4897 26.1499 69.4597 27.1899C69.4097 27.2399 69.3696 27.2799 69.3296 27.3299C68.3596 28.3299 67.6597 29.48 67.2297 30.76Z" class="pr-icon-iso-solid-stroke" stroke-linejoin="round"/>
    <path d="M61.7 59.3699L41.7 49.3699L36.75 36.6399C36.71 35.8799 36.6899 35.1098 36.6899 34.3198C36.6899 32.3898 36.79 30.4199 36.98 28.4199C37.17 26.4099 37.5 24.3599 37.95 22.2399L42.0999 24.4899L42.22 24.5598C42.8 24.8198 43.48 24.7398 44.25 24.3298C45.03 23.9198 45.7098 23.2098 46.2898 22.2098C46.8698 21.2098 47.1599 20.2599 47.1599 19.3699C47.1599 18.7299 47.01 18.2299 46.71 17.8799L48.26 18.6599L56.6699 22.8599L56.7 22.9299C56.52 22.8799 56.3299 22.8699 56.1299 22.8699C55.1899 22.8899 54.2099 23.4198 53.1699 24.4698C52.1399 25.5098 51.3899 26.6999 50.9399 28.0299C50.4899 29.3699 50.4599 30.5199 50.8499 31.4799L52.24 35.0399L61.7 59.3699Z" class="pr-icon-iso-solid-stroke" stroke-linejoin="round"/>
    <path d="M105.09 43.05C103.31 48.49 100.39 53.24 96.3195 57.3L81.0996 72.43C79.6096 73.88 78.1095 75.03 76.5895 75.87C75.0695 76.71 73.5996 77.13 72.1796 77.13L50.2597 78.0999C49.8497 78.1199 49.4996 78.05 49.1896 77.89C48.7696 77.68 48.4497 77.31 48.2297 76.77C47.8397 75.85 47.8695 74.6999 48.3195 73.3299L48.5197 72.77C49.1597 70.91 50.0697 69.1799 51.2297 67.5799C51.3397 67.4399 51.4395 67.29 51.5495 67.16C52.6295 65.76 53.8196 64.61 55.1096 63.73L61.6997 59.37L52.2397 35.04L50.8496 31.48C50.4596 30.52 50.4896 29.37 50.9396 28.03C51.3896 26.7 52.1396 25.5099 53.1696 24.4699C54.2096 23.4199 55.1896 22.89 56.1296 22.87C56.3296 22.87 56.5197 22.87 56.6997 22.93C56.8297 22.96 56.9395 22.99 57.0495 23.05L57.1296 23.0899C57.5596 23.3099 57.8896 23.71 58.1196 24.28L59.0297 26.62L64.7397 41.3L67.4196 48.17L71.1096 44.48L67.1296 34.2099C66.7496 33.2399 66.7797 32.09 67.2297 30.76C67.6597 29.48 68.3595 28.3299 69.3295 27.3299C69.3695 27.2799 69.4097 27.2399 69.4597 27.1899C70.4897 26.1499 71.4796 25.6099 72.4196 25.5899C72.7796 25.5799 73.1096 25.65 73.3896 25.79L73.4497 25.8199C73.8697 26.0499 74.1796 26.44 74.4096 27L75.7797 30.5599L78.3796 37.28L81.9697 33.65L79.3496 26.8199C78.9596 25.8599 78.9897 24.71 79.4497 23.37C79.8997 22.03 80.6396 20.84 81.6796 19.8C82.4796 18.99 83.2597 18.49 83.9997 18.3C84.2097 18.24 84.4196 18.2099 84.6296 18.2099C84.8296 18.1999 85.0096 18.22 85.1796 18.26C85.8296 18.4 86.3096 18.85 86.6096 19.61H86.6196L89.2397 26.4499L92.9196 22.76C92.5396 21.8 92.5697 20.6499 93.0197 19.3199C93.4697 17.9799 94.2197 16.79 95.2497 15.75C96.2897 14.71 97.2697 14.17 98.2097 14.15C98.5497 14.14 98.8596 14.1999 99.1296 14.3299C99.5996 14.5399 99.9497 14.9499 100.2 15.5599L105.53 29.17C107.02 32.99 106.87 37.61 105.09 43.05Z" class="pr-icon-iso-solid-stroke" stroke-linejoin="round"/>
    <path d="M71.1101 44.48L67.4202 48.17L64.7402 41.3L71.1101 44.48Z" class="pr-icon-iso-solid-stroke" stroke-linejoin="round"/>
    <path d="M19.7 53.6802L19.5698 53.6201" class="pr-icon-iso-solid-stroke" stroke-linejoin="round"/>
</svg>