<svg width="48" height="48" viewBox="0 0 96 80" xmlns="http://www.w3.org/2000/svg" stroke-width="1px"
     stroke-linecap="round" stroke-linejoin="round">
    <path d="M93.4298 66.9806C93.1098 68.0406 92.5099 68.8306 91.6199 69.3406L87.7098 71.6006C86.9498 72.0406 86.1998 72.2906 85.4698 72.3506C84.7398 72.4006 84.1199 72.2905 83.6099 72.0005L72.7299 65.8005L72.3899 66.3905L70.0598 70.5105C68.5998 73.0405 66.7998 74.9105 64.6698 76.1405C62.5398 77.3705 60.7499 77.5706 59.2799 76.7406L42.3699 67.0906L31.1499 60.6906L30.5398 61.7505L28.5698 65.1405C27.8098 66.3805 26.8999 67.3005 25.8499 67.9105C24.8099 68.5105 23.8999 68.6405 23.1399 68.2705C22.4399 67.8005 22.0898 66.9605 22.0898 65.7605C22.0898 64.5605 22.4399 63.3205 23.1399 62.0405L25.0999 58.6505L33.8198 43.6106L30.0898 41.4806L29.7198 41.2705L29.4799 41.6906L28.5698 43.2505C27.8098 44.5605 26.8999 45.5205 25.8499 46.1305C24.8099 46.7305 23.8999 46.8205 23.1399 46.3805C22.4399 45.9105 22.0898 45.0806 22.0898 43.8706C22.0898 42.6606 22.4399 41.4605 23.1399 40.2605L30.7699 27.0906C31.5299 25.7806 32.4399 24.8206 33.4799 24.2106C33.8599 23.9906 34.2098 23.8405 34.5498 23.7605C35.0598 23.6405 35.5298 23.6606 35.9598 23.8406L36.1998 23.9606C36.9698 24.3206 37.3499 25.1206 37.3499 26.3606C37.3499 27.6006 36.9698 28.8406 36.1998 30.0806L35.0598 32.0606L36.4498 32.8506L39.1599 34.4005L46.7299 21.3506L46.7898 21.2306L49.8398 15.9706C50.6098 14.6606 51.5098 13.6906 52.5598 13.0906C53.4998 12.5406 54.3298 12.4206 55.0398 12.7106L55.2799 12.8306C56.0399 13.2706 56.4198 14.0905 56.4198 15.2905C56.4198 16.4905 56.0399 17.7606 55.2799 19.0706L52.6998 23.4005L58.6199 26.7805L58.4498 27.0706L58.0999 27.6705L58.0099 27.8306L47.8398 45.2605C47.1398 46.5405 46.7898 47.7806 46.7898 48.9806C46.7898 50.1806 47.1398 51.0206 47.8398 51.4906C48.5998 51.9306 49.5098 51.8406 50.5598 51.2406C51.6098 50.6306 52.5099 49.6706 53.2799 48.3606L62.7198 31.9706L63.6099 30.4306L63.9598 29.8206L69.7799 33.0305L69.5598 33.4005L61.0199 48.1305L58.9999 51.6206C58.2399 52.9306 57.8499 54.1905 57.8499 55.4005C57.8499 56.6105 58.2399 57.4206 58.9999 57.8606C59.6999 58.2606 60.5699 58.1306 61.6199 57.4906C62.6699 56.8506 63.5798 55.9105 64.3398 54.6605L66.3699 51.1405L75.0199 36.1305L80.8398 39.4506C82.2998 40.2806 83.0299 41.9206 83.0299 44.3606C83.0299 46.8006 82.2998 49.2906 80.8398 51.8106L78.1698 56.5305L92.9498 64.8506C93.5898 65.2106 93.7498 65.9206 93.4298 66.9806Z" class="pr-icon-iso-solid-stroke" stroke-linejoin="round"/>
    <path d="M33.8198 43.6115L25.0999 58.6514L23.1399 62.0414C22.4399 63.3214 22.0898 64.5614 22.0898 65.7614C22.0898 66.9614 22.4399 67.8014 23.1399 68.2714L3.13989 58.2714C2.43989 57.8014 2.08984 56.9614 2.08984 55.7614C2.08984 54.5614 2.43989 53.3214 3.13989 52.0414L10.1798 39.9014L23.1399 46.3813C23.8999 46.8213 24.8099 46.7313 25.8499 46.1313C26.8999 45.5213 27.8098 44.5613 28.5698 43.2513L29.4799 41.6914L29.7198 41.2714L30.0898 41.4814L33.8198 43.6115Z" class="pr-icon-iso-solid-stroke" stroke-linejoin="round"/>
    <path d="M59.2802 76.7415L39.7301 66.9614L39.2802 66.7415L30.54 61.7513L31.1501 60.6914L42.3701 67.0914L59.2802 76.7415Z" class="pr-icon-iso-solid-stroke" stroke-linejoin="round"/>
    <path d="M63.9601 29.8213L63.6101 30.4313L62.7201 31.9713L53.2802 48.3613C52.5102 49.6713 51.6101 50.6313 50.5601 51.2413C49.5101 51.8413 48.6001 51.9313 47.8401 51.4913C47.1401 51.0213 46.79 50.1913 46.79 48.9813C46.79 47.7713 47.1401 46.5412 47.8401 45.2612L58.0101 27.8313L58.1001 27.6713L58.4501 27.0713L63.9601 29.8213Z" class="pr-icon-iso-solid-stroke" stroke-linejoin="round"/>
    <path d="M34.8298 23.2809L34.5498 23.7609C34.2098 23.8409 33.8599 23.991 33.4799 24.211C32.4399 24.821 31.5299 25.781 30.7699 27.091L23.1399 40.2609C22.4399 41.4609 22.0898 42.671 22.0898 43.871C22.0898 45.071 22.4399 45.9109 23.1399 46.3809L10.1798 39.9009L3.37988 36.5009L3.13989 36.3809C2.43989 35.9109 2.08984 35.081 2.08984 33.871C2.08984 32.661 2.43989 31.4609 3.13989 30.2609L10.7699 17.091C11.5299 15.781 12.4399 14.821 13.4799 14.211C14.5299 13.611 15.4398 13.521 16.1998 13.961L23.1898 17.4509L34.8298 23.2809Z" class="pr-icon-iso-solid-stroke" stroke-linejoin="round"/>
    <path d="M55.0399 12.711C54.3299 12.421 53.4999 12.541 52.5599 13.091C51.5099 13.691 50.61 14.661 49.84 15.971L46.7899 21.231L46.73 21.351L39.16 34.4009L36.45 32.851L35.0599 32.061L36.2 30.081C36.97 28.841 37.35 27.601 37.35 26.361C37.35 25.121 36.97 24.321 36.2 23.961L35.96 23.841L34.83 23.2809L23.1899 17.451L29.84 5.97099C30.61 4.66099 31.5099 3.69098 32.5599 3.09098C33.6099 2.48098 34.52 2.40097 35.28 2.83097L55.0399 12.711Z" class="pr-icon-iso-solid-stroke" stroke-linejoin="round"/>
    <path d="M83.6096 72.0006L72.3896 66.3906" class="pr-icon-iso-solid-stroke" stroke-linejoin="round"/>
    <path d="M75.0197 36.1304L66.3696 51.1404L64.3396 54.6604C63.5796 55.9104 62.6696 56.8505 61.6196 57.4905C60.5696 58.1305 59.6996 58.2605 58.9996 57.8605C58.2396 57.4205 57.8496 56.6004 57.8496 55.4004C57.8496 54.2004 58.2396 52.9305 58.9996 51.6205L61.0197 48.1304L69.5596 33.4004L75.0197 36.1304Z" class="pr-icon-iso-solid-stroke" stroke-linejoin="round"/>
</svg>