<svg width="48" height="48" viewBox="0 0 114 120" xmlns="http://www.w3.org/2000/svg" stroke-width="1px"
     stroke-linecap="round" stroke-linejoin="round">
    <path d="M70.75 91.3499V100.46C70.75 101.75 71.1301 102.61 71.8901 103.05C72.6501 103.48 73.6 103.37 74.72 102.72L82.6602 98.1399C83.7802 97.4899 84.73 96.5098 85.49 95.1998C86.25 93.8898 86.6301 92.5799 86.6301 91.2899V82.1899L70.75 91.3499Z" class="pr-icon-iso-solid-stroke" stroke-linejoin="round"/>
    <path d="M110.64 61.3798C109.91 63.3898 108.75 64.8598 107.17 65.7698L95.5601 72.4798L83.3501 57.9798L82.6602 57.1498C84.2502 56.2398 85.4202 54.7398 86.1802 52.6698C86.9402 50.5998 86.8602 49.0698 85.9302 48.0898L69.26 30.3898L75.28 16.8898L75.4202 16.5898C75.8102 15.7498 76.3101 14.9898 76.9001 14.3098C77.5001 13.6198 78.0902 13.1098 78.6902 12.7598C79.2802 12.4198 79.88 12.2498 80.48 12.2498C80.78 12.2398 81.0601 12.2898 81.3101 12.3898C81.5501 12.4898 81.77 12.6298 81.96 12.8098L102.3 34.3098C103.23 35.2898 103.31 36.7798 102.55 38.7798C101.79 40.7698 100.65 42.2098 99.1301 43.0898L110.44 56.8197C111.3 57.8497 111.37 59.3598 110.64 61.3798Z" class="pr-icon-iso-solid-stroke" stroke-linejoin="round"/>
    <path d="M86.1802 52.6697C85.4202 54.7397 84.2502 56.2397 82.6602 57.1497L77.6501 54.6396C78.0801 54.0196 78.44 53.3197 78.74 52.5297C79.5 50.5297 79.42 49.0397 78.49 48.0597L58.1501 26.5597C58.0601 26.4697 57.9601 26.3896 57.8501 26.3196L57.46 26.1196L52.1802 23.4896H52.1702L52.1501 23.4496L49.26 20.3896L69.26 30.3896L85.9302 48.0896C86.8602 49.0696 86.9402 50.5997 86.1802 52.6697Z" class="pr-icon-iso-solid-stroke" stroke-linejoin="round"/>
    <path d="M23.1302 107.229C22.2702 109.249 22.2003 110.84 22.9303 112.02C23.1403 112.35 23.3702 112.6 23.6402 112.76L3.98006 102.92C3.56006 102.78 3.22026 102.48 2.93026 102.02C2.20026 100.84 2.27021 99.2495 3.13021 97.2295L13.8602 71.8096L31.7501 80.7896L31.8902 80.8595C32.5702 81.1695 33.4203 81.0296 34.4403 80.4396L26.9403 98.2095L23.1302 107.229Z" class="pr-icon-iso-solid-stroke" stroke-linejoin="round"/>
    <path d="M95.5601 72.4796L83.22 66.3097L78.5701 60.7396L75.3201 56.8396C76.2401 56.3096 77.0101 55.5796 77.6501 54.6396L82.6602 57.1497L83.3501 57.9796L95.5601 72.4796Z" class="pr-icon-iso-solid-stroke" stroke-linejoin="round"/>
    <path d="M86.6301 82.1899L70.75 91.3499L66.52 89.2399L82.3901 80.0698L86.6301 82.1899Z" class="pr-icon-iso-solid-stroke" stroke-linejoin="round"/>
    <path d="M86.9202 75.0697C86.2002 77.0797 85.0403 78.5497 83.4503 79.4597L82.3902 80.0697L66.5201 89.2397L62.8101 91.3798V105.04C62.8101 106.33 62.4302 107.63 61.6702 108.95C60.9102 110.26 59.9702 111.24 58.8502 111.89L50.9102 116.47C49.7802 117.12 48.8402 117.23 48.0802 116.79C47.3202 116.36 46.9403 115.5 46.9403 114.21V100.55L32.3902 108.94L26.4002 112.4C25.3302 113.02 24.4601 113.16 23.7801 112.83L23.6402 112.76C23.3702 112.6 23.1403 112.35 22.9303 112.02C22.2003 110.84 22.2702 109.25 23.1302 107.23L26.9403 98.2097L34.4403 80.4398C33.4203 81.0298 32.5702 81.1697 31.8902 80.8597L31.7501 80.7898C31.4801 80.6298 31.2401 80.3897 31.0201 80.0797C30.2501 78.9597 30.3401 77.3797 31.2601 75.3297L51.4701 30.6398L51.6002 30.3397C52.0002 29.4997 52.5002 28.7398 53.0902 28.0598C53.6902 27.3698 54.2802 26.8598 54.8802 26.5098C54.9102 26.4898 54.9501 26.4697 54.9801 26.4597C55.5401 26.1497 56.1002 25.9997 56.6602 25.9897C56.9502 25.9897 57.22 26.0398 57.46 26.1198L57.8502 26.3197C57.9602 26.3897 58.0602 26.4698 58.1502 26.5598L78.4901 48.0598C79.4201 49.0398 79.5001 50.5298 78.7401 52.5298C78.4401 53.3198 78.0802 54.0198 77.6502 54.6398C77.0102 55.5798 76.2401 56.3097 75.3201 56.8397L78.5701 60.7397L83.2201 66.3098L86.7301 70.5198C87.5901 71.5398 87.6502 73.0597 86.9202 75.0697Z" class="pr-icon-iso-solid-stroke" stroke-linejoin="round"/>
    <path d="M71.8901 103.05L62.8101 98.5098V91.3798L66.52 89.2397L70.75 91.3497V100.46C70.75 101.75 71.1301 102.61 71.8901 103.05Z" class="pr-icon-iso-solid-stroke" stroke-linejoin="round"/>
    <path d="M3.97998 102.92L3.63013 102.74" class="pr-icon-iso-solid-stroke" stroke-linejoin="round"/>
    <path d="M48.0801 116.79L32.3901 108.94L46.9402 100.55V114.21C46.9402 115.5 47.3201 116.36 48.0801 116.79Z" class="pr-icon-iso-solid-stroke" stroke-linejoin="round"/>
    <path d="M57.46 26.1198C57.22 26.0398 56.9502 25.9897 56.6602 25.9897C56.1002 25.9997 55.54 26.1497 54.98 26.4597C54.95 26.4697 54.9101 26.4898 54.8801 26.5098C54.2801 26.8598 53.6901 27.3698 53.0901 28.0598C52.5001 28.7398 52.0001 29.4997 51.6001 30.3397L51.47 30.6398L31.26 75.3297C30.34 77.3797 30.25 78.9597 31.02 80.0797C31.24 80.3897 31.48 80.6298 31.75 80.7898L13.8601 71.8098L12.1802 70.9597L12.1301 70.9398C11.7001 70.8198 11.33 70.5297 11.02 70.0797C10.25 68.9597 10.34 67.3797 11.26 65.3297L31.6001 20.3397C32.0001 19.4997 32.5001 18.7398 33.0901 18.0598C33.6901 17.3698 34.2801 16.8598 34.8801 16.5098C35.4701 16.1698 36.0702 15.9997 36.6602 15.9897C36.9802 15.9897 37.27 16.0398 37.52 16.1498L37.6902 16.2297L52.1702 23.4797H52.1802L57.46 26.1198Z" class="pr-icon-iso-solid-stroke" stroke-linejoin="round"/>
    <path d="M81.3101 12.3898C81.0601 12.2898 80.78 12.2398 80.48 12.2498C79.88 12.2498 79.2802 12.4198 78.6902 12.7598C78.0902 13.1098 77.5001 13.6198 76.9001 14.3098C76.3101 14.9898 75.8102 15.7498 75.4202 16.5898L75.28 16.8898L69.26 30.3898L49.26 20.3898L55.4202 6.58976C55.8102 5.74976 56.3101 4.98985 56.9001 4.30985C57.5001 3.61985 58.0902 3.1098 58.6902 2.7598C59.2802 2.4198 59.88 2.24979 60.48 2.24979C60.78 2.23979 61.0601 2.28981 61.3101 2.38981L81.3101 12.3898Z" class="pr-icon-iso-solid-stroke" stroke-linejoin="round"/>
</svg>