<svg width="48" height="48" viewBox="0 0 92 102" fill="#229EFF" xmlns="http://www.w3.org/2000/svg" stroke-width="1px" stroke-linecap="round" stroke-linejoin="round"><path d="M62.8998 47.241V68.381L48.5898 61.231V48.031L51.6398 41.551L62.6698 47.001L62.8998 47.241Z" stroke="white" stroke-linejoin="round"/><path d="M51.1693 29.021C49.5593 28.111 47.5993 28.321 45.2793 29.661V26.0811L51.1693 29.021Z" stroke="white" stroke-linejoin="round"/><path d="M53.3401 73.731C53.5001 74.351 53.5701 75.0211 53.5701 75.7111C53.5701 77.5511 53.1601 79.481 52.3301 81.481C51.9101 82.501 51.4101 83.471 50.8401 84.381C50.2901 85.241 49.6801 86.061 49.0101 86.821L41.3801 95.511C40.7701 96.181 40.1501 96.781 39.5101 97.311C38.8701 97.831 38.2201 98.291 37.5601 98.671C35.0701 100.111 32.9701 100.351 31.2501 99.411C29.5401 98.461 28.6801 96.591 28.6801 93.801V59.141L22.8701 48.501C22.6001 48.031 22.3901 47.481 22.2501 46.861C22.1101 46.241 22.04 45.581 22.04 44.891C22.04 42.221 22.8501 39.521 24.4501 36.781C26.0501 34.051 28.0201 32.011 30.3401 30.671L32.61 29.361L36.2601 27.251L41.54 24.2111L45.2801 22.051V29.661C47.6001 28.321 49.56 28.111 51.17 29.021C52.77 29.941 53.5701 31.731 53.5701 34.391C53.5701 35.471 53.4301 36.551 53.1601 37.631C52.8801 38.711 52.4701 39.8311 51.9101 40.9711L51.6401 41.551L48.5901 48.031V67.071L52.1601 71.201C52.6001 71.771 52.9501 72.4411 53.2001 73.2211C53.2501 73.3911 53.3001 73.561 53.3401 73.731Z" stroke="white" stroke-linejoin="round"/><path d="M31.2497 99.411L11.2497 89.411C9.53969 88.461 8.67969 86.591 8.67969 83.801V49.141L28.6797 59.141V93.801C28.6797 96.591 29.5397 98.461 31.2497 99.411Z" stroke="white" stroke-linejoin="round"/><path d="M89.4498 65.7111C89.4498 68.8811 88.4797 72.141 86.5397 75.481C84.6097 78.821 82.2597 81.291 79.4897 82.881C78.2697 83.591 77.0998 84.001 75.9598 84.111C74.8298 84.231 73.8797 84.061 73.0997 83.621L72.7297 83.411L72.3497 83.2011L64.5598 87.7011C62.2298 89.0411 60.2698 89.2411 58.6598 88.2911C57.0598 87.3411 56.2598 85.541 56.2598 82.871C56.2598 81.411 56.5398 79.871 57.0898 78.251C57.6398 76.631 58.4698 74.9911 59.5798 73.3411L60.1697 72.4611L62.8998 68.381V47.241L62.6697 47.001L57.7498 41.8311C57.2498 41.3011 56.8798 40.6211 56.6298 39.8111C56.3798 39.0111 56.2598 38.161 56.2598 37.271C56.2598 34.601 57.0598 31.891 58.6598 29.121C60.1098 26.631 61.8297 24.721 63.8597 23.401C64.0897 23.241 64.3198 23.1011 64.5598 22.9611L81.1498 13.381C83.4698 12.041 85.4198 11.8211 86.9998 12.7111C88.5698 13.6111 89.3597 15.4011 89.3597 18.0611C89.3597 19.0111 89.2498 20.001 89.0298 21.011C88.8098 22.031 88.4498 23.0911 87.9498 24.2111L82.8098 35.751V57.0711L86.0397 58.9211C87.1497 59.5511 87.9898 60.4411 88.5698 61.6011C89.1598 62.7511 89.4498 64.1211 89.4498 65.7111Z" stroke="white" stroke-linejoin="round"/><path d="M45.2801 22.051L41.54 24.2111L36.2601 27.251L32.61 29.361L30.3401 30.671C28.0201 32.011 26.0501 34.051 24.4501 36.781C22.8501 39.521 22.04 42.221 22.04 44.891C22.04 45.581 22.1101 46.241 22.2501 46.861C22.3901 47.481 22.6001 48.031 22.8701 48.501L28.6801 59.141L8.68005 49.141L2.87006 38.501C2.60006 38.031 2.39006 37.481 2.25006 36.861C2.11006 36.241 2.04004 35.581 2.04004 34.891C2.04004 32.221 2.85007 29.521 4.45007 26.781C6.05007 24.051 8.02009 22.011 10.3401 20.671L25.2801 12.051L38.8401 18.8311L45.2801 22.051Z" stroke="white" stroke-linejoin="round"/><path d="M86.9998 12.7111C85.4198 11.8211 83.4698 12.041 81.1498 13.381L64.5598 22.9611C64.3198 23.1011 64.0898 23.241 63.8598 23.401C61.8298 24.721 60.1099 26.631 58.6599 29.121C57.0599 31.891 56.2598 34.601 56.2598 37.271C56.2598 38.161 56.3798 39.0111 56.6298 39.8111C56.8798 40.6211 57.2498 41.3011 57.7498 41.8311L62.6698 47.001L51.6398 41.5511L51.9099 40.9711C52.4699 39.8311 52.8799 38.711 53.1599 37.631C53.4299 36.551 53.5698 35.471 53.5698 34.391C53.5698 31.731 52.7698 29.941 51.1698 29.021L45.2798 26.0811V22.0511L38.8398 18.8311C40.4098 16.2111 42.3098 14.2511 44.5598 12.9611L61.1498 3.38102C63.4698 2.04102 65.4198 1.8211 66.9998 2.7111L86.9998 12.7111Z" stroke="white" stroke-linejoin="round"/><path d="M62.8998 68.381L60.1698 72.4611L59.5798 73.3411C58.4698 74.9911 57.6398 76.631 57.0898 78.251C56.5398 79.871 56.2598 81.411 56.2598 82.871C56.2598 85.541 57.0599 87.341 58.6599 88.291L50.8398 84.381C51.4098 83.471 51.9098 82.501 52.3298 81.481C53.1598 79.481 53.5698 77.5511 53.5698 75.7111C53.5698 75.0211 53.4998 74.351 53.3398 73.731C53.2998 73.561 53.2498 73.3911 53.1998 73.2211C52.9498 72.4411 52.5999 71.771 52.1599 71.201L48.5898 67.071V61.231L62.8998 68.381Z" stroke="white" stroke-linejoin="round"/></svg>