<svg width="48" height="48" viewBox="0 0 116 97" xmlns="http://www.w3.org/2000/svg" stroke-width="1px"
     stroke-linecap="round" stroke-linejoin="round">
    <path d="M113.14 48.4901C113.14 49.8201 112.75 51.1701 111.96 52.5301C111.17 53.8801 110.19 54.9 109.03 55.57C107.87 56.24 106.89 56.3501 106.1 55.9101C105.32 55.4601 104.92 54.5601 104.92 53.2301C104.92 51.9001 105.32 50.55 106.1 49.19C106.89 47.83 107.87 46.8201 109.03 46.1401C110.07 45.5401 110.97 45.39 111.71 45.69L111.96 45.81C112.75 46.26 113.14 47.1501 113.14 48.4901Z" class="pr-icon-iso-solid-stroke" stroke-linejoin="round"/>
    <path d="M113.14 15.4901V29.6301C113.14 30.9701 112.75 32.31 111.96 33.67C111.17 35.03 110.19 36.04 109.03 36.72C107.87 37.39 106.89 37.5 106.1 37.05C105.32 36.6 104.92 35.7101 104.92 34.3701V20.2301C104.92 18.9001 105.32 17.55 106.1 16.19C106.89 14.83 107.87 13.8201 109.03 13.1501C110.07 12.5401 110.97 12.39 111.72 12.69L111.96 12.81C112.75 13.26 113.14 14.1501 113.14 15.4901Z" class="pr-icon-iso-solid-stroke" stroke-linejoin="round"/>
    <path d="M55.6299 58.1201C55.6299 60.7101 54.8197 63.4001 53.2097 66.1701C51.5997 68.9501 49.6699 70.9901 47.4099 72.2901C45.1499 73.6001 43.2199 73.7901 41.6099 72.8701C40.6899 72.3501 40.0299 71.5501 39.6499 70.4701C39.5799 70.2901 39.5197 70.1102 39.4697 69.9102C39.4497 69.8502 39.4399 69.7901 39.4299 69.7301C39.3899 69.6201 39.3699 69.5002 39.3499 69.3802C39.3199 69.2702 39.2998 69.1601 39.2898 69.0401C39.2598 68.8601 39.2397 68.6902 39.2297 68.5002C39.2197 68.4302 39.2197 68.3601 39.2197 68.2901C39.1997 68.0701 39.1899 67.8401 39.1899 67.6101C39.1899 65.0101 39.9999 62.3301 41.6099 59.5601C41.8499 59.1401 42.0999 58.7301 42.3699 58.3501C42.4999 58.1501 42.6298 57.9502 42.7798 57.7602C42.9498 57.5102 43.1298 57.2801 43.3198 57.0501C43.4698 56.8601 43.6198 56.6802 43.7798 56.5002C43.9498 56.3002 44.1098 56.1201 44.2698 55.9501C44.4598 55.7501 44.6498 55.5602 44.8398 55.3802C44.9298 55.2902 45.0199 55.2001 45.1199 55.1201C45.3399 54.9201 45.5598 54.7301 45.7798 54.5501C45.9998 54.3801 46.2099 54.2101 46.4399 54.0601C46.7499 53.8401 47.0799 53.6301 47.4099 53.4401C48.1599 53.0101 48.8598 52.7002 49.5398 52.5202C50.9098 52.1302 52.1297 52.2401 53.2097 52.8601C54.8197 53.7701 55.6299 55.5301 55.6299 58.1201Z" class="pr-icon-iso-solid-stroke" stroke-linejoin="round"/>
    <path d="M95.5298 27.0101L95.2898 26.8901C94.5398 26.5901 93.6399 26.7401 92.5999 27.3501L89.8599 28.93L76.7097 36.5201L70.6199 40.04C69.3299 36.5 67.2499 34.0001 64.3899 32.5201L64.0398 32.3501C63.3798 32.0301 62.6799 31.76 61.9399 31.55C59.2699 30.79 56.3098 30.9401 53.0598 32.0001C51.2598 32.5801 49.3799 33.4401 47.4099 34.5801C42.8799 37.1901 38.7999 40.7501 35.1699 45.2601C33.3099 47.5601 31.5697 50.1101 29.9497 52.9101C27.9397 56.3901 26.3499 59.8301 25.1799 63.2401C23.5699 67.9201 22.7598 72.5401 22.7598 77.0901C22.7598 79.3201 22.9498 81.3401 23.3398 83.1501C24.3098 87.7501 26.5197 91.0201 29.9497 92.9801C34.7397 95.7101 40.5599 95.1001 47.4099 91.1501C52.9599 87.9501 57.7999 83.3601 61.9399 77.4001C66.0799 71.4301 68.9799 65.2601 70.6199 58.8901L73.4299 57.2701L88.4897 48.5701V62.7201C88.4897 64.0501 88.8799 64.9401 89.6699 65.3901C90.4599 65.8401 91.4299 65.73 92.5999 65.06C93.7599 64.39 94.7398 63.3701 95.5298 62.0101C96.3098 60.6501 96.7097 59.3101 96.7097 57.9701V29.69C96.7097 28.35 96.3098 27.4601 95.5298 27.0101ZM53.2097 66.17C51.5997 68.95 49.6699 70.99 47.4099 72.29C45.1499 73.6 43.2199 73.7901 41.6099 72.8701C40.6899 72.3501 40.0299 71.5501 39.6499 70.4701C39.5799 70.2901 39.5197 70.1101 39.4697 69.9101C39.4497 69.8501 39.4399 69.7901 39.4299 69.7301C39.3899 69.6201 39.3699 69.5001 39.3499 69.3801C39.3199 69.2701 39.2998 69.16 39.2898 69.04C39.2598 68.86 39.2397 68.6901 39.2297 68.5001C39.2197 68.4301 39.2197 68.36 39.2197 68.29C39.1997 68.07 39.1899 67.8401 39.1899 67.6101C39.1899 65.0101 39.9999 62.33 41.6099 59.56C41.8499 59.14 42.0999 58.7301 42.3699 58.3501C42.4999 58.1501 42.6298 57.9501 42.7798 57.7601C42.9498 57.5101 43.1298 57.28 43.3198 57.05C43.4598 56.86 43.6098 56.6801 43.7798 56.5001C43.9498 56.3001 44.1098 56.1201 44.2698 55.9501C44.4598 55.7501 44.6498 55.5601 44.8398 55.3801C44.9298 55.2901 45.0199 55.2001 45.1199 55.1201C45.3399 54.9201 45.5598 54.73 45.7798 54.55C45.9998 54.38 46.2099 54.21 46.4399 54.06C46.7499 53.84 47.0799 53.63 47.4099 53.44C48.1599 53.01 48.8598 52.7001 49.5398 52.5201C50.9098 52.1301 52.1297 52.2401 53.2097 52.8601C54.8197 53.7701 55.6299 55.5301 55.6299 58.1201C55.6299 60.7101 54.8197 63.4 53.2097 66.17Z" class="pr-icon-iso-solid-stroke" stroke-linejoin="round"/>
    <path d="M111.72 12.6901C110.97 12.3901 110.07 12.5402 109.03 13.1502C107.87 13.8202 106.89 14.8301 106.1 16.1901C105.32 17.5501 104.92 18.9001 104.92 20.2301V34.3701C104.92 35.7101 105.32 36.6001 106.1 37.0501L96.7097 32.3601V29.6901C96.7097 28.3501 96.3098 27.4602 95.5298 27.0102L91.1699 24.8301L84.9199 21.7101V10.2301C84.9199 8.90012 85.3199 7.55008 86.0999 6.19008C86.8899 4.83008 87.8698 3.82017 89.0298 3.15017C90.1898 2.47017 91.1697 2.36008 91.9597 2.81008L111.72 12.6901Z" class="pr-icon-iso-solid-stroke" stroke-linejoin="round"/>
    <path d="M111.71 45.6901C110.97 45.3901 110.07 45.5401 109.03 46.1401C107.87 46.8201 106.89 47.8301 106.1 49.1901C105.32 50.5501 104.92 51.8901 104.92 53.2301C104.92 54.5701 105.32 55.4602 106.1 55.9102L96.71 51.2201V38.1901L111.71 45.6901Z" class="pr-icon-iso-solid-stroke" stroke-linejoin="round"/>
    <path d="M95.2898 26.8901C94.5398 26.5901 93.6399 26.74 92.5999 27.35L89.8599 28.93L76.7097 36.5201L70.6199 40.04C69.3299 36.5 67.2499 34.0001 64.3899 32.5201L64.0398 32.35L54.6997 27.68L72.5999 17.35C73.7599 16.67 74.7398 16.5601 75.5298 17.0101L84.9199 21.71L91.1699 24.83L95.2898 26.8901Z" class="pr-icon-iso-solid-stroke" stroke-linejoin="round"/>
    <path d="M89.6697 65.3901L73.4297 57.2701L88.4895 48.5701V62.7201C88.4895 64.0501 88.8797 64.9401 89.6697 65.3901Z" class="pr-icon-iso-solid-stroke" stroke-linejoin="round"/>
    <path d="M64.0398 32.3501C63.3798 32.0301 62.6799 31.7601 61.9399 31.5501C59.2699 30.7901 56.3098 30.9402 53.0598 32.0002C51.2598 32.5802 49.3799 33.4401 47.4099 34.5801C42.8799 37.1901 38.7999 40.7502 35.1699 45.2602C33.3099 47.5602 31.5697 50.1102 29.9497 52.9102C27.9397 56.3902 26.3499 59.8302 25.1799 63.2402C23.5699 67.9202 22.7598 72.5401 22.7598 77.0901C22.7598 79.3201 22.9498 81.3402 23.3398 83.1502C24.3098 87.7502 26.5197 91.0201 29.9497 92.9801L9.94971 82.9801C5.15971 80.2501 2.75977 74.9501 2.75977 67.0901C2.75977 59.2301 5.15971 51.1802 9.94971 42.9102C14.7397 34.6402 20.5599 28.5301 27.4099 24.5801C32.9599 21.3801 37.7999 20.3701 41.9399 21.5501C42.6099 21.7501 43.2398 21.9702 43.8398 22.2502L43.9797 22.3201L44.4099 22.5302L54.6997 27.6801L64.0398 32.3501Z" class="pr-icon-iso-solid-stroke" stroke-linejoin="round"/>
</svg>