<svg viewBox="0 0 110 85" xmlns="http://www.w3.org/2000/svg" height="24" width="24" stroke-width="1px" stroke-linecap="round" stroke-linejoin="round">
    <path d="M107.809 16.0097C107.809 17.4197 107.389 18.8497 106.559 20.2797C105.719 21.7197 104.689 22.7997 103.459 23.5097L37.4394 61.6197L54.2994 71.2296C55.1694 71.7296 55.6094 72.6597 55.6094 74.0397C55.6094 75.4197 55.1694 76.8497 54.2994 78.3497C53.4294 79.7697 52.3994 80.8197 51.1994 81.5097C49.9994 82.1997 49.0094 82.3197 48.2094 81.8597L30.5894 71.8097L23.8494 67.9697C23.4094 67.7297 23.0994 67.3597 22.9194 66.8897C22.7394 66.4097 22.6494 65.8397 22.6494 65.1697C22.6494 64.4997 22.7394 63.8297 22.9194 63.1397C23.0994 62.4497 23.4094 61.7397 23.8494 60.9897L26.3394 56.6897L35.2394 41.3497L43.9294 26.3497L48.2094 18.9697C49.0094 17.5897 50.0194 16.5497 51.2494 15.8297C52.3694 15.1897 53.2994 15.0197 54.0594 15.3297L54.2994 15.4497C55.1694 15.9497 55.5894 16.8897 55.5494 18.2797C55.5394 18.7697 55.4794 19.2497 55.3694 19.7397C55.1794 20.6397 54.8194 21.5397 54.2994 22.4397L47.4594 34.2897L37.4394 51.6397L103.459 13.5297C104.689 12.8097 105.719 12.6997 106.559 13.1697C107.389 13.6497 107.809 14.5897 107.809 16.0097Z" class="pr-icon-iso-solid-stroke" stroke-linejoin="round"/>
    <path d="M106.559 13.1697C105.719 12.6997 104.689 12.8097 103.459 13.5297L37.4395 51.6397L47.4595 34.2897L54.2994 22.4397C54.8194 21.5397 55.1794 20.6397 55.3694 19.7397L83.4595 3.5297C84.6895 2.8097 85.7194 2.69965 86.5594 3.16965L106.559 13.1697Z" class="pr-icon-iso-solid-stroke" stroke-linejoin="round"/>
    <path d="M54.0594 15.3298C53.2994 15.0198 52.3694 15.1898 51.2494 15.8298C50.0194 16.5498 49.0094 17.5898 48.2094 18.9698L43.9294 26.3498L35.2394 41.3498L26.3394 56.6897L23.8494 60.9897C23.4094 61.7397 23.0994 62.4498 22.9194 63.1398C22.7394 63.8298 22.6494 64.5097 22.6494 65.1697C22.6494 65.8297 22.7394 66.4098 22.9194 66.8898C23.0994 67.3598 23.4094 67.7298 23.8494 67.9698L30.5894 71.8097L48.2094 81.8597L28.4594 71.9797L28.2094 71.8597L3.84937 57.9698C3.40937 57.7298 3.09937 57.3598 2.91937 56.8898C2.73937 56.4098 2.64941 55.8397 2.64941 55.1697C2.64941 54.4997 2.73937 53.8298 2.91937 53.1398C3.09937 52.4498 3.40937 51.7397 3.84937 50.9897L28.2094 8.96977C29.0094 7.58977 30.0194 6.54976 31.2494 5.82976C32.4894 5.11976 33.4994 4.98975 34.2994 5.44975L54.0594 15.3298Z" class="pr-icon-iso-solid-stroke" stroke-linejoin="round"/>
</svg>