<svg width="24" height="24" viewBox="0 0 99 113" xmlns="http://www.w3.org/2000/svg" stroke-width="1px" stroke-linecap="round" stroke-linejoin="round">
    <path d="M91.0899 48.2001L90.0199 47.6701C86.8299 46.3601 83.05 46.97 78.7 49.47C77.83 49.97 76.9799 50.5301 76.1499 51.1401C72.3899 53.8901 69.1199 57.6701 66.3199 62.5001C63.2499 67.7901 61.5499 72.95 61.2499 77.98C61.2099 78.54 61.1899 79.1101 61.1899 79.6701C61.1899 85.2301 62.8999 88.9801 66.3199 90.9301C69.7299 92.8801 73.86 92.4501 78.7 89.6501C83.55 86.8601 87.6799 82.5201 91.0899 76.6301C94.5099 70.7401 96.2099 65.0101 96.2099 59.4501C96.2099 53.8901 94.5099 50.1401 91.0899 48.2001ZM79.9299 80.3101C79.5799 80.9101 79.17 81.3501 78.7 81.6201C78.24 81.8901 77.8299 81.92 77.4799 81.72C77.1299 81.52 76.95 81.1601 76.95 80.6201C76.95 80.0801 77.1299 79.5101 77.4799 78.9101C77.8299 78.3101 78.24 77.87 78.7 77.6C79.17 77.33 79.5799 77.3001 79.9299 77.5001C80.2799 77.6901 80.45 78.06 80.45 78.6C80.45 79.14 80.2799 79.7001 79.9299 80.3101ZM80.45 70.5601C80.45 71.1001 80.2799 71.6701 79.9299 72.2701C79.5799 72.8801 79.17 73.31 78.7 73.58C78.24 73.85 77.8299 73.8901 77.4799 73.6901C77.1299 73.4901 76.95 73.12 76.95 72.58V60.5301C76.95 59.9901 77.1299 59.4201 77.4799 58.8201C77.8299 58.2101 78.24 57.7801 78.7 57.5101C79.17 57.2401 79.5799 57.2001 79.9299 57.4001C80.2799 57.6001 80.45 57.9701 80.45 58.5101V70.5601Z" class="pr-icon-iso-solid-stroke" stroke-linejoin="round"/>
    <path d="M80.45 78.5997C80.45 79.1297 80.2799 79.6998 79.9299 80.3098C79.5799 80.9098 79.17 81.3497 78.7 81.6197C78.24 81.8897 77.8299 81.9197 77.4799 81.7197C77.1299 81.5197 76.95 81.1597 76.95 80.6197C76.95 80.0797 77.1299 79.5098 77.4799 78.9098C77.8299 78.3098 78.24 77.8697 78.7 77.5997C79.17 77.3297 79.5799 77.2998 79.9299 77.4998C80.2799 77.6898 80.45 78.0597 80.45 78.5997Z" class="pr-icon-iso-solid-stroke" stroke-linejoin="round"/>
    <path d="M80.45 58.5101V70.5602C80.45 71.1002 80.2799 71.6701 79.9299 72.2701C79.5799 72.8801 79.17 73.3101 78.7 73.5801C78.24 73.8501 77.8299 73.8902 77.4799 73.6902C77.1299 73.4902 76.95 73.1201 76.95 72.5801V60.5302C76.95 59.9902 77.1299 59.4202 77.4799 58.8202C77.8299 58.2102 78.24 57.7801 78.7 57.5101C79.17 57.2401 79.5799 57.2002 79.9299 57.4002C80.2799 57.6002 80.45 57.9701 80.45 58.5101Z" class="pr-icon-iso-solid-stroke" stroke-linejoin="round"/>
    <path d="M64.7 29.4298L50.7199 37.4998L50.6899 37.5198V29.4797L57.1299 25.7598L63.9399 29.0598L64.7 29.4298Z" class="pr-icon-iso-solid-stroke" stroke-linejoin="round"/>
    <path d="M90.6499 16.81L90.2099 16.5899C88.9399 16.0699 87.4299 16.3 85.7099 17.3L72.2099 25.1L71.7 25.39V17.35C71.7 15.14 71.01 13.64 69.64 12.86L69.2099 12.65C67.9299 12.12 66.42 12.36 64.7 13.36L50.6899 21.44C50.3899 21.62 50.0899 21.81 49.7999 22.03C48.2499 23.12 46.8899 24.67 45.7399 26.66C44.3699 29.03 43.6899 31.32 43.6899 33.53V41.56L29.6799 49.65C27.7499 50.76 26.0999 52.5 24.7299 54.87C23.3599 57.23 22.6699 59.52 22.6699 61.73V105.93C22.6699 108.14 23.3599 109.64 24.7299 110.42C26.0999 111.2 27.7499 111.03 29.6799 109.92L52.1799 96.93C53.1699 96.36 53.97 95.39 54.58 94.04C55.2 92.68 55.3599 91.51 55.0699 90.54C54.7699 89.51 54.5599 88.41 54.4099 87.26C54.3099 86.47 54.2399 85.68 54.2099 84.88C54.1999 84.48 54.1899 84.1099 54.1899 83.7199C54.1899 83.0199 54.2099 82.32 54.2599 81.61C54.6399 74.5 57.0099 67.2 61.3699 59.68C65.3599 52.82 70.0199 47.45 75.3699 43.6C76.2899 42.93 77.2299 42.31 78.1899 41.75C78.3599 41.64 78.53 41.54 78.7 41.44C80.4 40.46 82.0699 39.69 83.7399 39.13C85.3999 38.57 86.9899 38.26 88.5099 38.19C89.4999 38.15 90.4499 37.57 91.3499 36.44C92.2599 35.32 92.7099 34.15 92.7099 32.95V21.29C92.7099 19.08 92.0199 17.59 90.6499 16.81ZM64.7 29.43L50.7199 37.5L50.6899 37.52V29.48L57.1299 25.76L64.7 21.39V29.43Z" class="pr-icon-iso-solid-stroke" stroke-linejoin="round"/>
    <path d="M64.6999 21.3896V29.4297L63.9399 29.0597L57.1299 25.7596L64.6999 21.3896Z" class="pr-icon-iso-solid-stroke" stroke-linejoin="round"/>
    <path d="M69.2099 12.65C67.9299 12.12 66.42 12.3599 64.7 13.3599L50.6899 21.44C50.3899 21.62 50.0899 21.81 49.7999 22.03C48.2499 23.12 46.8899 24.67 45.7399 26.66C44.3699 29.03 43.6899 31.32 43.6899 33.53V41.56L23.6899 31.56V23.53C23.6899 21.32 24.3699 19.03 25.7399 16.66C27.1099 14.3 28.7599 12.56 30.6899 11.44L44.7 3.35992C46.62 2.24992 48.27 2.07992 49.64 2.85992L62.3699 9.22991L69.2099 12.65Z" class="pr-icon-iso-solid-stroke" stroke-linejoin="round"/>
    <path d="M90.2098 16.5897C88.9398 16.0697 87.4298 16.2998 85.7098 17.2998L72.2098 25.0997L71.6999 25.3897V17.3497C71.6999 15.1397 71.0099 13.6397 69.6399 12.8597L69.2098 12.6498L62.3699 9.22971L65.7098 7.29978C67.6298 6.18977 69.2798 6.01978 70.6498 6.80978L90.2098 16.5897Z" class="pr-icon-iso-solid-stroke" stroke-linejoin="round"/>
    <path d="M43.6899 41.5601L29.6799 49.65C27.7499 50.76 26.0999 52.5 24.7299 54.87C23.3599 57.23 22.6699 59.52 22.6699 61.73V105.93C22.6699 108.14 23.3599 109.64 24.7299 110.42L5.15991 100.63L4.72992 100.42C3.35992 99.64 2.66992 98.1401 2.66992 95.9301V51.73C2.66992 49.52 3.35992 47.23 4.72992 44.87C6.09992 42.5 7.74993 40.76 9.67993 39.65L23.6899 31.5601L43.6899 41.5601Z" class="pr-icon-iso-solid-stroke" stroke-linejoin="round"/>
    <path d="M90.0199 47.67C86.8299 46.36 83.05 46.97 78.7 49.47C77.83 49.97 76.9799 50.53 76.1499 51.14C72.3899 53.89 69.1199 57.67 66.3199 62.5C63.2499 67.79 61.5499 72.95 61.2499 77.98C61.2099 78.54 61.1899 79.11 61.1899 79.67C61.1899 85.23 62.8999 88.9801 66.3199 90.9301L54.2099 84.88C54.1999 84.48 54.1899 84.11 54.1899 83.72C54.1899 83.02 54.2099 82.32 54.2599 81.61C54.6399 74.5 57.0099 67.2001 61.3699 59.6801C65.3599 52.8201 70.0199 47.45 75.3699 43.6C76.2899 42.93 77.2299 42.31 78.1899 41.75L90.0199 47.67Z" class="pr-icon-iso-solid-stroke" stroke-linejoin="round"/>
</svg>