<svg xmlns="http://www.w3.org/2000/svg" width="24" height="24" viewBox="0 0 576 512">
    <path class="pr-icon-duotone-secondary" d="M48 240l0 224 352 0 0-224L48 240zm120 88l24 0 64 0 24 0 0 48-24 0-64 0-24 0 0-48z"/>
    <path class="pr-icon-duotone-primary" d="M432 48c-44.2 0-80 35.8-80 80l0 64 48 0 48 0 0 48 0 224 0 48-48 0L48 512 0 512l0-48L0 240l0-48 48 0 256 0 0-64C304 57.3 361.3 0 432 0l24 0 0 2.2C515.2 13.5 560 65.5 560 128l0 72 0 24-48 0 0-24 0-72c0-44.2-35.8-80-80-80zM400 240L48 240l0 224 352 0 0-224zM256 376l-64 0-24 0 0-48 24 0 64 0 24 0 0 48-24 0z"/>
</svg>