<svg xmlns="http://www.w3.org/2000/svg" width="24" height="24" viewBox="0 0 576 512">
    <path class="pr-icon-duotone-secondary" d="M48 130.6l0 282.8 120-40 0-282.8-120 40zm168-40l0 282.8 144 48 0-282.8-144-48zm192 48l0 282.8 120-40 0-282.8-120 40z"/>
    <path class="pr-icon-duotone-primary" d="M168 373.4l-120 40 0-282.8 120-40 0 282.8zm192 48l-144-48 0-282.8 144 48 0 282.8zm48 0l0-282.8 120-40 0 282.8-120 40zM0 480l48-16 144-48 192 64 192-64 0-333.4L576 32 528 48 384 96 192 32 0 96 0 429.4 0 480z"/>
</svg>