<svg xmlns="http://www.w3.org/2000/svg" width="24" height="24" viewBox="0 0 576 512">
    <path class="pr-icon-duotone-secondary" d="M48 176l0 160c35.3 0 64 28.7 64 64l352 0c0-35.3 28.7-64 64-64l0-160c-35.3 0-64-28.7-64-64l-352 0c0 35.3-28.7 64-64 64zm352 80a112 112 0 1 1 -224 0 112 112 0 1 1 224 0z"/>
    <path class="pr-icon-duotone-primary" d="M112 112c0 35.3-28.7 64-64 64l0 160c35.3 0 64 28.7 64 64l352 0c0-35.3 28.7-64 64-64l0-160c-35.3 0-64-28.7-64-64l-352 0zM0 64l48 0 480 0 48 0 0 48 0 288 0 48-48 0L48 448 0 448l0-48L0 112 0 64zM176 256a112 112 0 1 1 224 0 112 112 0 1 1 -224 0zm80-64l0 32 16 0 0 64-8 0-16 0 0 32 16 0 8 0 32 0 8 0 16 0 0-32-16 0-8 0 0-80 0-16-16 0-16 0-16 0z"/>
</svg>