<svg xmlns="http://www.w3.org/2000/svg" width="24" height="24" viewBox="0 0 384 512">
    <path class="pr-icon-duotone-secondary" d="M48 48l0 32 288 0 0-32L48 48zM80 160l0 304 224 0 0-304L80 160zm32 117.3l53.3 0 0-53.3 53.3 0 0 53.3 53.3 0 0 53.3-53.3 0 0 53.3-53.3 0 0-53.3-53.3 0 0-53.3z"/>
    <path class="pr-icon-duotone-primary" d="M336 48l0 32L48 80l0-32 288 0zM48 0L0 0 0 48 0 80l0 48 48 0 288 0 48 0 0-48 0-32 0-48L336 0 48 0zM32 160l0 304 0 48 48 0 224 0 48 0 0-48 0-304-48 0 0 304L80 464l0-304-48 0zm133.3 64l0 53.3-53.3 0 0 53.3 53.3 0 0 53.3 53.3 0 0-53.3 53.3 0 0-53.3-53.3 0 0-53.3-53.3 0z"/>
</svg>