<svg xmlns="http://www.w3.org/2000/svg" width="24" height="24" viewBox="0 0 640 512">
    <path class="pr-icon-duotone-secondary" d="M400 48l216 0 24 0 0 341.8-.5 0C634.4 332.7 586.4 288 528 288c-45.3 0-84.3 26.9-102 65.6c-8.7 2.2-17.4 4.5-26 6.7L400 48z"/>
    <path class="pr-icon-duotone-primary" d="M376 0L352 0l0 24 0 348.7L26 456.8l-23.2 6 12 46.5 23.2-6 378.2-97.5C419.1 464.9 468.1 512 528 512c61.9 0 112-50.1 112-112s-50.1-112-112-112c-45.3 0-84.3 26.9-102 65.6c0 0 0 0 0 0l-26 6.7L400 48l216 0 24 0 0-48L616 0 376 0zM528 336a64 64 0 1 1 0 128 64 64 0 1 1 0-128z"/>
</svg>