<svg xmlns="http://www.w3.org/2000/svg" width="24" height="24" viewBox="0 0 640 512">
    <path class="pr-icon-duotone-secondary" d="M65 464l318 0L348.5 352 99.5 352 65 464zm79-336a80 80 0 1 0 160 0 80 80 0 1 0 -160 0z"/>
    <path class="pr-icon-duotone-primary" d="M224 48a80 80 0 1 1 0 160 80 80 0 1 1 0-160zm0 208A128 128 0 1 0 224 0a128 128 0 1 0 0 256zM99.5 352l249.1 0L383 464 65 464 99.5 352zM384 304L64 304 14.8 464 0 512l50.2 0 347.6 0 50.2 0-14.8-48L384 304zm88-104l-24 0 0 48 24 0 144 0 24 0 0-48-24 0-144 0z"/>
</svg>