<svg width="24" height="24" viewBox="0 0 24 24" fill="none" xmlns="http://www.w3.org/2000/svg">
<path d="M24 0V24H0V0H24Z" fill="white" fill-opacity="0.01"/>
<path d="M10.0034 8.99693C11.3981 8.53613 12.68 8.44832 14.0317 8.73296C14.4806 8.8275 14.7051 8.87477 14.9153 9.085C15.1255 9.29523 15.1727 9.51973 15.2672 9.96873C15.5516 11.3204 15.4638 12.6023 15.0034 13.9969M14.5 9.5L8.99989 15M5.63604 18.364C2.12132 14.8492 2.12132 9.15076 5.63604 5.63604C9.15076 2.12132 14.8492 2.12132 18.364 5.63604C21.8787 9.15076 21.8787 14.8492 18.364 18.364C14.8492 21.8787 9.15076 21.8787 5.63604 18.364Z" stroke="#FFFFFF" stroke-width="1.5" stroke-linecap="round" stroke-linejoin="round"/>
</svg>
