<svg xmlns="http://www.w3.org/2000/svg" width="24" height="24" fill="none"><path fill="#fff" fill-opacity=".01" d="M24 0v24H0V0z"/><path stroke="#FFFFFF" stroke-linejoin="round" stroke-width="1.5" d="M15 10v9.5c0 .466 0 .699-.076.883a1 1 0 0 1-.541.54c-.184.077-.417.077-.883.077s-.699 0-.883-.076a1 1 0 0 1-.54-.541C12 20.199 12 19.966 12 19.5V10M6 7c0 1.03.134 1.977.304 2.763.199.917.298 1.376.69 1.596.391.22.966.023 2.115-.373 2.055-.707 4.544-.949 6.892-1.002C17.643 9.946 19 8.643 19 7s-1.357-2.946-3-2.984c-2.347-.053-4.836-.295-6.891-1.002-1.15-.396-1.724-.594-2.115-.373-.392.22-.491.679-.69 1.596C6.134 5.023 6 5.969 6 7Z"/></svg>