<svg xmlns="http://www.w3.org/2000/svg" width="24" height="24" fill="none"><path fill="#fff" fill-opacity=".01" d="M24 0v24H0V0z"/><path fill="#FFFFFF" d="m2 10.472.328-.675a.75.75 0 0 0-1.058.846zm9.495 2.05-.646-.38zM8.715 9l.467.586zm13.246 1.472.73.17a.75.75 0 0 0-1.058-.845zm-9.495 2.05.646-.38zM15.246 9l-.467.586zm-4.397 3.142c-.894 1.52-2.636 2.29-4.3 2.071C4.933 14 3.323 12.836 2.73 10.301l-1.46.342c.726 3.103 2.809 4.758 5.083 5.057 2.226.294 4.572-.73 5.789-2.798zm-9.177-.996c3.117 1.515 5.865-.248 7.51-1.56l-.935-1.173c-1.624 1.295-3.68 2.472-5.92 1.384zm7.51-1.56c.454-.362.808-.426 1.042-.399.237.028.47.164.662.428.397.545.533 1.557-.037 2.527l1.293.76c.846-1.44.735-3.1-.042-4.169-.395-.543-.98-.95-1.7-1.035-.722-.086-1.465.166-2.153.715zm2.637 3.316c1.217 2.069 3.563 3.092 5.79 2.798 2.273-.3 4.356-1.954 5.082-5.057l-1.46-.342c-.593 2.535-2.203 3.7-3.819 3.912-1.664.22-3.406-.552-4.3-2.071zm9.814-3.105c-2.24 1.088-4.295-.09-5.919-1.384l-.935 1.173c1.645 1.312 4.393 3.075 7.51 1.56zm-5.919-1.384c-.688-.549-1.43-.8-2.153-.715-.72.085-1.305.492-1.7 1.035-.777 1.07-.888 2.73-.042 4.17l1.293-.761c-.57-.97-.434-1.982-.037-2.527.192-.264.425-.4.662-.428.235-.027.588.037 1.042.4z"/></svg>