<svg xmlns="http://www.w3.org/2000/svg" width="24" height="24" fill="none"><path fill="#fff" fill-opacity=".01" d="M24 0v24H0V0z"/><path stroke="#FFFFFF" stroke-linecap="round" stroke-linejoin="round" stroke-width="1.5" d="m3.603 8.433-.139-1.592c-.203-2.337 2.257-3.982 4.041-2.46C9.495 6.078 10.747 7.995 12 10.5c1.253-2.505 2.505-4.422 4.495-6.119 1.784-1.522 4.244.123 4.04 2.46l-.138 1.592A5 5 0 0 1 15.416 13H15l2.054.822c1.6.64 2.356 2.512 1.406 3.95-.31.47-.64.908-.96 1.228a8.038 8.038 0 0 1-.49.447c-1.442 1.22-3.566.384-4.164-1.408L12 15.5l-.846 2.539c-.598 1.792-2.722 2.628-4.165 1.408A8.026 8.026 0 0 1 6.5 19c-.32-.32-.65-.759-.96-1.228-.95-1.438-.194-3.31 1.406-3.95L9 13h-.416a5 5 0 0 1-4.981-4.567"/></svg>