<svg xmlns="http://www.w3.org/2000/svg" width="24" height="24" fill="none"><path fill="#fff" fill-opacity=".01" d="M24 0v24H0V0z"/><path fill="#FFFFFF" d="M7.74 2.877a.75.75 0 0 0-1.48.246zM5.5 12l-.685-.305zm.908 9.46a.75.75 0 0 0 1.184-.92zM17.743 3.124a.75.75 0 1 0-1.48-.246zm.76 8.877.685-.305zm-2.092 8.54a.75.75 0 0 0 1.184.92zM12 21l-.748.048a.75.75 0 0 0 1.496 0zm-6.362-8.95a.75.75 0 0 0-.276 1.474zm13 1.474a.75.75 0 0 0-.276-1.474zM12 8.25a.75.75 0 0 0 0 1.5zm.002 1.5a.75.75 0 0 0 0-1.5zM6.26 3.123c.468 2.805-.189 5.746-1.445 8.572l1.37.61C7.511 9.322 8.272 6.072 7.74 2.877zm-1.445 8.572c-1.11 2.497-.68 4.966-.018 6.753a12.951 12.951 0 0 0 1.441 2.778 7.657 7.657 0 0 0 .155.214l.01.014.003.004.001.001v.001L7 21l.592-.46-.004-.006-.023-.031a9.774 9.774 0 0 1-.438-.664 11.45 11.45 0 0 1-.924-1.912c-.588-1.588-.908-3.62-.018-5.622zm11.448-8.818c-.533 3.195.229 6.445 1.554 9.428l1.371-.61c-1.256-2.826-1.913-5.767-1.445-8.572zm1.554 9.428c.89 2.003.57 4.034-.018 5.622a11.45 11.45 0 0 1-1.265 2.442 6.2 6.2 0 0 1-.119.165l-.004.006s-.001 0 0 0l.592.46.592.46.002-.002.003-.004.01-.014.035-.046a11.166 11.166 0 0 0 .516-.78c.314-.522.712-1.268 1.045-2.166.662-1.787 1.092-4.256-.018-6.753zm-5.068 8.647c-.136-2.115-.525-4.098-1.608-5.684-1.104-1.618-2.858-2.722-5.503-3.218l-.276 1.474c2.345.44 3.708 1.37 4.54 2.59.854 1.25 1.22 2.906 1.35 4.934zm0 .096c.13-2.027.495-3.683 1.349-4.934.832-1.22 2.195-2.15 4.54-2.59l-.276-1.474c-2.645.495-4.399 1.6-5.503 3.218-1.083 1.586-1.472 3.569-1.607 5.684zM12 9.75h.002v-1.5H12z"/></svg>