<svg xmlns="http://www.w3.org/2000/svg" width="24" height="24" fill="none"><path fill="#fff" fill-opacity=".01" d="M24 0v24H0V0z"/><path fill="#FFFFFF" d="M8.189 11.303a.75.75 0 1 0-.863 1.227zm2.397 3.442-.614.431a.75.75 0 0 0 1.272-.071zm6.016-4.999a.75.75 0 0 0-.72-1.316zM20.25 12A8.25 8.25 0 0 1 12 20.25v1.5c5.385 0 9.75-4.365 9.75-9.75zM12 20.25A8.25 8.25 0 0 1 3.75 12h-1.5c0 5.385 4.365 9.75 9.75 9.75zM3.75 12A8.25 8.25 0 0 1 12 3.75v-1.5c-5.385 0-9.75 4.365-9.75 9.75zM12 3.75A8.25 8.25 0 0 1 20.25 12h1.5c0-5.385-4.365-9.75-9.75-9.75zm-4.674 8.78a10.638 10.638 0 0 1 2.646 2.646l1.227-.862a12.137 12.137 0 0 0-3.01-3.01zm3.918 2.575c1.305-2.388 2.97-4.053 5.358-5.359l-.72-1.316c-2.639 1.443-4.512 3.315-5.954 5.955z"/></svg>