<svg xmlns="http://www.w3.org/2000/svg" width="24" height="24" fill="none"><path fill="#fff" fill-opacity=".01" d="M24 0v24H0V0z"/><path stroke="#FFFFFF" stroke-linecap="round" stroke-linejoin="round" stroke-width="1.5" d="M12.5 7.5 10 7H6.414s0 0 0 0a1 1 0 0 0-.707.293s0 0 0 0v0s0 0 0 0a1 1 0 0 0 0 1.414s0 0 0 0l.387.387c.315.315.473.473.654.59a2 2 0 0 0 .654.27c.21.046.434.046.88.046H10v9m2.5-11.5L15 7h3.586s0 0 0 0a1 1 0 0 1 .707.293s0 0 0 0v0s0 0 0 0a1 1 0 0 1 0 1.414s0 0 0 0l-.387.387c-.315.315-.473.473-.654.59a2 2 0 0 1-.654.27c-.21.046-.434.046-.88.046H15v9M12.5 7.5 14 6V4.5A1.5 1.5 0 0 0 12.5 3v0A1.5 1.5 0 0 0 11 4.5V6zM10 13l5 3m-8 6h11-1l-.088-.265c-.44-1.32-.66-1.98-1.184-2.357C15.204 19 14.508 19 13.117 19h-1.234c-1.391 0-2.087 0-2.61.378-.525.377-.745 1.037-1.185 2.357L8 22z"/></svg>