<svg xmlns="http://www.w3.org/2000/svg" width="24" height="24" fill="none"><path fill="#fff" fill-opacity=".01" d="M24 0v24H0V0z"/><path stroke="#FFFFFF" stroke-linecap="round" stroke-linejoin="round" stroke-width="1.5" d="m11.995 5.995 6.01 6.01m-12.36 8.348h.694c1.636 0 2.453.001 3.189-.303.735-.305 1.314-.883 2.47-2.04l6.497-6.497c.822-.822 1.234-1.233 1.453-1.677a3 3 0 0 0 0-2.655c-.22-.444-.63-.855-1.453-1.677v0c-.822-.823-1.233-1.234-1.677-1.453a3 3 0 0 0-2.655 0c-.444.22-.855.63-1.677 1.453L5.988 12c-1.156 1.157-1.734 1.735-2.039 2.47-.304.735-.304 1.553-.304 3.188v.695c0 .942 0 1.413.293 1.706.293.293.764.293 1.707.293"/></svg>