<svg xmlns="http://www.w3.org/2000/svg" width="24" height="24" fill="none"><path fill="#fff" fill-opacity=".01" d="M24 0v24H0V0z"/><path stroke="#FFFFFF" stroke-linecap="round" stroke-linejoin="round" stroke-width="1.5" d="M5 14v7m0-6V5.3c0-.797.45-1.525 1.162-1.881v0a5.78 5.78 0 0 1 5.559.213 5.78 5.78 0 0 0 4.8.527v0c1.369-.456 2.053-.684 2.463-.403a1 1 0 0 1 .26.26c.28.41.053 1.094-.403 2.462l-.61 1.827c-.114.344-.171.516-.166.693.005.177.072.346.207.682l.94 2.35c.37.924.554 1.386.373 1.777-.182.392-.654.55-1.597.864l-1.466.488a5.78 5.78 0 0 1-4.801-.527 5.78 5.78 0 0 0-5.559-.213z"/></svg>