<svg xmlns="http://www.w3.org/2000/svg" width="24" height="24" fill="none"><path fill="#fff" fill-opacity=".01" d="M24 0v24H0V0z"/><path stroke="#FFFFFF" stroke-linecap="round" stroke-linejoin="round" stroke-width="1.5" d="m8.087 15.166-2.78-1.438c-1.447-.748-2.17-1.123-2.387-2.004-.217-.882.15-1.405.883-2.453A9.988 9.988 0 0 1 12 5a9.988 9.988 0 0 1 8.198 4.271c.733 1.047 1.1 1.571.883 2.453-.217.881-.941 1.255-2.389 2.004l-2.78 1.438m-7.825 0a4.001 4.001 0 0 1 7.826 0m-7.826 0L14 18.224m1.913-3.058L10 18.224"/></svg>