<svg xmlns="http://www.w3.org/2000/svg" width="24" height="24" fill="none"><path fill="#fff" fill-opacity=".01" d="M24 0v24H0V0z"/><path fill="#FFFFFF" d="M9.75 7a.75.75 0 0 0-1.5 0zm-1.5 2a.75.75 0 0 0 1.5 0zm1.5 6a.75.75 0 0 0-1.5 0zm-1.5 2a.75.75 0 0 0 1.5 0zm-1.871 3.621-.53.53zm11.242 0-.53-.53zm0-17.242-.53.53zM11.5 3.25h1v-1.5h-1zm6.25 5.25v7h1.5v-7zM12.5 20.75h-1v1.5h1zM6.25 15.5v-7h-1.5v7zm-.75-2.75h13v-1.5h-13zM8.25 7v2h1.5V7zm0 8v2h1.5v-2zm3.25 5.75c-1.435 0-2.437-.002-3.192-.103-.734-.099-1.122-.28-1.399-.556l-1.06 1.06c.601.603 1.36.861 2.26.983.878.118 1.998.116 3.391.116zM4.75 15.5c0 1.393-.002 2.513.117 3.392.12.9.38 1.658.981 2.26L6.91 20.09c-.277-.277-.457-.665-.556-1.4-.101-.755-.103-1.756-.103-3.191zm13 0c0 1.435-.002 2.436-.103 3.192-.099.734-.28 1.122-.556 1.399l1.06 1.06c.603-.601.861-1.36.983-2.26.118-.878.116-1.998.116-3.391zm-5.25 6.75c1.393 0 2.513.002 3.392-.116.9-.122 1.658-.38 2.26-.982L17.09 20.09c-.277.277-.665.457-1.4.556-.755.101-1.756.103-3.191.103zm0-19c1.435 0 2.437.002 3.192.103.734.099 1.122.28 1.399.556l1.06-1.06c-.601-.603-1.36-.861-2.26-.982-.878-.119-1.998-.117-3.391-.117zm6.75 5.25c0-1.393.002-2.513-.116-3.392-.122-.9-.38-1.658-.982-2.26L17.09 3.91c.277.277.457.665.556 1.4.101.754.103 1.756.103 3.191zM11.5 1.75c-1.393 0-2.513-.002-3.392.117-.9.12-1.658.38-2.26.981L6.91 3.91c.277-.277.665-.457 1.4-.556.754-.101 1.756-.103 3.191-.103zM6.25 8.5c0-1.435.002-2.437.103-3.192.099-.734.28-1.122.556-1.399l-1.06-1.06c-.603.601-.861 1.36-.982 2.26-.119.878-.117 1.998-.117 3.391z"/></svg>