<svg xmlns="http://www.w3.org/2000/svg" width="24" height="24" fill="none"><path fill="#fff" fill-opacity=".01" d="M24 0v24H0V0z"/><path stroke="#FFFFFF" stroke-linecap="round" stroke-linejoin="round" stroke-width="1.5" d="M4 12h.522c1.186 0 1.778 0 2.194-.344.416-.343.528-.926.753-2.092v0c.782-4.07 1.173-6.105 2.004-6.1.832.005 1.198 2.04 1.93 6.11l.947 5.26c.646 3.586.968 5.378 1.776 5.405.807.027 1.25-1.74 2.133-5.274l.173-.693c.273-1.09.41-1.637.816-1.954.407-.318.97-.318 2.094-.318H20"/></svg>