<svg xmlns="http://www.w3.org/2000/svg" width="24" height="24" fill="none"><path fill="#fff" fill-opacity=".01" d="M24 0v24H0V0z"/><path fill="#FFFFFF" d="M12 7.25a.75.75 0 0 0 0 1.5zm.002 1.5a.75.75 0 0 0 0-1.5zM11 10.25a.75.75 0 0 0 0 1.5zm1.5 7.5a.75.75 0 0 0 0-1.5zM20.25 12A8.25 8.25 0 0 1 12 20.25v1.5c5.385 0 9.75-4.365 9.75-9.75zM12 20.25A8.25 8.25 0 0 1 3.75 12h-1.5c0 5.385 4.365 9.75 9.75 9.75zM3.75 12A8.25 8.25 0 0 1 12 3.75v-1.5c-5.385 0-9.75 4.365-9.75 9.75zM12 3.75A8.25 8.25 0 0 1 20.25 12h1.5c0-5.385-4.365-9.75-9.75-9.75zm0 5h.002v-1.5H12zm-.75 2.75v5h1.5v-5zm.25-1.25H11v1.5h.5zm-.25 6.25c0 .69.56 1.25 1.25 1.25v-1.5a.25.25 0 0 1 .25.25zm1.5-5c0-.69-.56-1.25-1.25-1.25v1.5a.25.25 0 0 1-.25-.25z"/></svg>