<svg xmlns="http://www.w3.org/2000/svg" width="24" height="24" fill="none"><path fill="#fff" fill-opacity=".01" d="M24 0v24H0V0z"/><path stroke="#FFFFFF" stroke-linecap="round" stroke-linejoin="round" stroke-width="1.5" d="M7 9h1m3.5 0h1M16 9h1M7 12h1m3.5 0h1m3.5 0h1M7 15h10m-7 4.5h4c3.288 0 4.931 0 6.038-.908.202-.166.388-.352.554-.554.908-1.107.908-2.75.908-6.038v0c0-3.287 0-4.931-.908-6.038a4 4 0 0 0-.554-.554C18.93 4.5 17.288 4.5 14 4.5h-4c-3.287 0-4.931 0-6.038.908a4 4 0 0 0-.554.554C2.5 7.07 2.5 8.712 2.5 12v0c0 3.287 0 4.931.908 6.038a4 4 0 0 0 .554.554c1.107.908 2.75.908 6.038.908"/></svg>