<svg xmlns="http://www.w3.org/2000/svg" width="24" height="24" fill="none"><path fill="#fff" fill-opacity=".01" d="M24 0v24H0V0z"/><path stroke="#FFFFFF" stroke-linecap="round" stroke-linejoin="round" stroke-width="1.5" d="M7 13h.712c.574 0 .861 0 1.092.132.05.029.097.061.14.098.206.17.307.438.508.976v0c.394 1.05.59 1.574.891 1.611a.5.5 0 0 0 .178-.01c.295-.07.43-.615.703-1.702l.943-3.774c.338-1.353.508-2.03.882-2.044.375-.014.596.648 1.037 1.97l.458 1.376c.22.66.33.99.592 1.178.262.189.61.189 1.306.189H17m-5.5 7.5h1c3.771 0 5.657 0 6.828-1.172C20.5 18.157 20.5 16.271 20.5 12.5v-1c0-3.771 0-5.657-1.172-6.828C18.157 3.5 16.271 3.5 12.5 3.5h-1c-3.771 0-5.657 0-6.828 1.172C3.5 5.843 3.5 7.729 3.5 11.5v1c0 3.771 0 5.657 1.172 6.828C5.843 20.5 7.729 20.5 11.5 20.5"/></svg>