<svg xmlns="http://www.w3.org/2000/svg" width="24" height="24" fill="none"><path fill="#fff" fill-opacity=".01" d="M24 0v24H0V0z"/><path fill="#FFFFFF" d="m13.843 19.214.477-.579a.75.75 0 0 0-.982.024zm-3.687 0 .505-.555a.75.75 0 0 0-.981-.024zm-1.44.68.13.738zM3.067 13.78l-.738.13zm3.216-7.675-.13-.738zm3.32 1.29-.532.529A.75.75 0 0 0 10.2 7.85zm4.792 0-.596.454a.75.75 0 0 0 1.127.075zm3.32-1.29-.13.739zm3.215 7.675.74.13zm-5.647 6.113.13-.739zM14 3.75a.75.75 0 0 0 0-1.5zm-2 17c.892 0 1.691-.383 2.348-.981l-1.01-1.11c-.446.407-.9.591-1.338.591zm-2.348-.981c.656.598 1.456.981 2.348.981v-1.5c-.438 0-.892-.184-1.339-.59zm-.806.863a3.852 3.852 0 0 0 1.787-.84l-.953-1.157c-.336.276-.702.45-1.095.52zm-6.516-6.72c.356 2.023 1.211 3.797 2.345 5.024 1.127 1.22 2.61 1.971 4.17 1.696l-.26-1.477c-.887.156-1.891-.244-2.808-1.237-.911-.985-1.656-2.483-1.97-4.267zm3.824-8.544c-1.56.275-2.697 1.489-3.34 3.02-.645 1.54-.841 3.5-.484 5.524l1.477-.26c-.315-1.784-.127-3.447.391-4.684C4.721 7.72 5.528 7 6.414 6.845zm3.98 1.497c-1.098-1.1-2.506-1.757-3.98-1.497l.26 1.477c.84-.148 1.78.201 2.658 1.08zM12 5.25c-1.211 0-2.239.7-2.993 1.69l1.193.91c.58-.763 1.213-1.1 1.8-1.1zm2.993 1.69C14.238 5.95 13.21 5.25 12 5.25v1.5c.587 0 1.219.337 1.8 1.1zm-.066.985c.878-.879 1.819-1.228 2.658-1.08l.26-1.477c-1.473-.26-2.881.397-3.98 1.497zm2.658-1.08c.887.156 1.694.876 2.216 2.123.519 1.237.706 2.9.392 4.683l1.477.26c.357-2.023.16-3.983-.485-5.523-.642-1.531-1.78-2.745-3.34-3.02zm2.608 6.806c-.315 1.784-1.06 3.282-1.97 4.267-.917.993-1.921 1.393-2.808 1.237l-.26 1.477c1.56.275 3.043-.476 4.17-1.696 1.133-1.227 1.988-3 2.345-5.024zm-4.779 5.504a2.352 2.352 0 0 1-1.094-.52l-.954 1.158a3.85 3.85 0 0 0 1.788.84zM8.75 13c0-1.384.244-2.653.648-3.684.408-1.04.959-1.787 1.535-2.195l-.867-1.224c-.89.63-1.589 1.66-2.064 2.871C7.522 9.99 7.25 11.446 7.25 13zm4.316-5.88c.576.409 1.127 1.156 1.535 2.196.405 1.03.649 2.3.649 3.684h1.5c0-1.554-.273-3.01-.752-4.232-.476-1.212-1.175-2.241-2.065-2.871zm-2.133 11.76c-.576-.41-1.127-1.156-1.535-2.196-.404-1.03-.648-2.3-.648-3.684h-1.5c0 1.553.273 3.01.752 4.232.475 1.212 1.175 2.241 2.064 2.871zM15.25 13c0 1.384-.244 2.653-.649 3.684-.408 1.04-.959 1.787-1.535 2.195l.867 1.224c.89-.63 1.59-1.66 2.065-2.871.479-1.221.752-2.678.752-4.232zm-2.5-7c0-.316.183-.93.518-1.49.161-.268.332-.48.489-.615a.81.81 0 0 1 .183-.126.255.255 0 0 1 .06-.019v-1.5c-.502 0-.921.247-1.226.511-.312.271-.578.622-.792.978-.415.692-.732 1.577-.732 2.261z"/></svg>