<svg xmlns="http://www.w3.org/2000/svg" width="24" height="24" fill="none"><path fill="#fff" fill-opacity=".01" d="M24 0v24H0V0z"/><path fill="#FFFFFF" d="M7.2 12a.5.5 0 1 1-1 0 .5.5 0 0 1 1 0M17.8 12a.5.5 0 1 1-1 0 .5.5 0 0 1 1 0"/><path stroke="#FFFFFF" stroke-linecap="round" stroke-width="1.5" d="M10 13h.002M14 13h.002M15 7h.002M12 21a9 9 0 1 1 0-18 9 9 0 0 1 0 18Zm5-7.5c0 1.933-2.239 3.5-5 3.5s-5-1.567-5-3.5S9.239 10 12 10s5 1.567 5 3.5ZM7.2 12a.5.5 0 1 1-1 0 .5.5 0 0 1 1 0Zm10.6 0a.5.5 0 1 1-1 0 .5.5 0 0 1 1 0Z"/><path stroke="#FFFFFF" stroke-linecap="round" stroke-linejoin="round" d="m12 10 .35-2.454a1 1 0 0 1 1.187-.839L15 7"/></svg>