<svg xmlns="http://www.w3.org/2000/svg" width="24" height="24" fill="none"><path fill="#fff" fill-opacity=".01" d="M24 0v24H0V0z"/><path stroke="#FFFFFF" stroke-linecap="round" stroke-linejoin="round" stroke-width="1.5" d="M2 18h20M7 18s.831-4.156-.188-8.137c-.531-2.077-.797-3.115-.373-3.52.424-.403 1.214-.16 2.795.325C17.528 9.216 16 18 16 18M4 18s.176-1.404-.201-3.173c-.422-1.979-.633-2.968-.082-3.346.55-.38 1.136.002 2.308.763C6.65 12.65 7 13 7 13m8.5-1s.934-.748 2.575-1.329c1.363-.482 2.045-.724 2.489-.308.444.415.183 1.343-.338 3.198C19.519 16.075 20 18 20 18"/></svg>