<svg xmlns="http://www.w3.org/2000/svg" width="24" height="24" fill="none"><path fill="#fff" fill-opacity=".01" d="M24 0v24H0V0z"/><path stroke="#FFFFFF" stroke-linecap="round" stroke-width="1.5" d="m10 21 3-7 3 7M11.549 8.585l-3.897 2.25a2.5 2.5 0 0 0-.915 3.415v0a2.5 2.5 0 0 0 3.415.915l3.897-2.25zM5.987 12.95 3.822 14.2a1.5 1.5 0 0 0-.55 2.049v0a1.5 1.5 0 0 0 2.05.549l2.165-1.25zm11.593-.92.866-.5c.402-.232.603-.348.76-.468a3 3 0 0 0 .945-3.528c-.076-.182-.192-.383-.424-.785v0c-.232-.402-.348-.603-.468-.76a3 3 0 0 0-3.528-.945c-.182.075-.383.192-.785.424l-.866.5c-.402.232-.603.348-.76.468a3 3 0 0 0-.945 3.528c.075.181.192.383.424.785v0c.232.402.348.603.468.76a3 3 0 0 0 3.528.944c.182-.075.383-.19.785-.423Z"/></svg>