<svg xmlns="http://www.w3.org/2000/svg" width="24" height="24" fill="none"><path fill="#fff" fill-opacity=".01" d="M24 0v24H0V0z"/><path stroke="#FFFFFF" stroke-linejoin="round" stroke-width="1.5" d="M12 17a2 2 0 1 0 0 4 2 2 0 0 0 0-4Zm0 0V5.5M12 17c0-.37 0-.555-.058-.718a.999.999 0 0 0-.22-.357c-.12-.124-.286-.207-.616-.372l-1.87-.935c-.558-.279-.837-.419-1.067-.596a3 3 0 0 1-1.113-1.801C7 11.936 7 11.624 7 11m5 6c0-.624 0-.936.056-1.22a3 3 0 0 1 1.113-1.802c.23-.177.509-.317 1.067-.596l.975-.488c.126-.063.19-.094.246-.126a3 3 0 0 0 1.54-2.492C17 10.212 17 10.142 17 10M7 11a1 1 0 1 0 0-2 1 1 0 0 0 0 2Zm5-8a9.845 9.845 0 0 0-2 2.5c1.36.28 2.64.28 4 0A9.845 9.845 0 0 0 12 3Zm5 7c.471 0 .707 0 .854-.146C18 9.707 18 9.47 18 9s0-.707-.146-.854C17.707 8 17.47 8 17 8s-.707 0-.854.146C16 8.293 16 8.53 16 9s0 .707.146.854c.147.146.383.146.854.146Z"/></svg>