<svg xmlns="http://www.w3.org/2000/svg" viewBox="0 0 448 512"><!--! Font Awesome Pro 6.7.2 by @fontawesome - https://fontawesome.com License - https://fontawesome.com/license (Commercial License) Copyright 2024 Fonticons, Inc. --><defs><style>.fa-secondary{opacity:.4}</style></defs><path class="fa-secondary" d="M32 160l0 320 384 0 0-320-96 0-32 0-128 0-32 0-96 0zm96 144l16 0 64 0 0-64 0-16 32 0 0 16 0 64 64 0 16 0 0 32-16 0-64 0 0 64 0 16-32 0 0-16 0-64-64 0-16 0 0-32z"/><path class="fa-primary" d="M160 96l0 32 128 0 0-32c0-35.3-28.7-64-64-64s-64 28.7-64 64zm-32 32l0-32c0-53 43-96 96-96s96 43 96 96l0 32 96 0 32 0 0 32 0 320 0 32-32 0L32 512 0 512l0-32L0 160l0-32 32 0 96 0zm0 32l-96 0 0 320 384 0 0-320-96 0-32 0-128 0-32 0zm0 144l16 0 64 0 0-64 0-16 32 0 0 16 0 64 64 0 16 0 0 32-16 0-64 0 0 64 0 16-32 0 0-16 0-64-64 0-16 0 0-32z"/></svg>