<svg xmlns="http://www.w3.org/2000/svg" viewBox="0 0 512 512"><!--! Font Awesome Pro 6.7.2 by @fontawesome - https://fontawesome.com License - https://fontawesome.com/license (Commercial License) Copyright 2024 Fonticons, Inc. --><defs><style>.fa-secondary{opacity:.4}</style></defs><path class="fa-secondary" d="M32 32l448 0 0 32L32 64l0-32zm9 160l16-64 39 0 0 64-55 0zm0 96l8-32 31 0c-7 9.3-12 20.2-14.4 32L41 288zm0 96l8-32 31 0c14.6 19.4 37.8 32 64 32L41 384zm0 96l8-32 414 0 8 32L41 480zM160 304a16 16 0 1 1 -32 0 16 16 0 1 1 32 0zm-16 80c26.2 0 49.4-12.6 64-32l255 0 8 32-327 0zm48-256l263 0 16 64-279 0 0-64zm16 128l255 0 8 32-248.6 0c-2.4-11.8-7.4-22.7-14.4-32z"/><path class="fa-primary" d="M0 0L16 0 496 0l16 0 0 16 0 64 0 16-16 0L160 96l0 162.7c18.6 6.6 32 24.4 32 45.3c0 26.5-21.5 48-48 48s-48-21.5-48-48c0-20.9 13.4-38.7 32-45.3L128 96 16 96 0 96 0 80 0 16 0 0zM32 32l0 32 448 0 0-32L32 32zM96 192l0 32-63 0L0 224l8-32 16-64 33 0L41 192l55 0zm96 32l0-32 279 0-16-64 33 0 16 64 8 32-33 0-287 0zM65.6 288c-1 5.2-1.6 10.5-1.6 16s.6 10.8 1.6 16L33 320 0 320l8-32 8-32 33 0-8 32 24.6 0zm156.8 32c1-5.2 1.6-10.5 1.6-16s-.6-10.8-1.6-16L471 288l-8-32 33 0 8 32 8 32-33 0-256.6 0zM144 384l327 0-8-32 33 0 8 32 8 32-33 0L33 416 0 416l8-32 8-32 33 0-8 32 103 0zM512 512l-33 0L33 512 0 512l8-32 8-32 33 0-8 32 430 0-8-32 33 0 8 32 8 32zM144 320a16 16 0 1 0 0-32 16 16 0 1 0 0 32z"/></svg>