<svg xmlns="http://www.w3.org/2000/svg" viewBox="0 0 448 512"><!--! Font Awesome Pro 6.7.2 by @fontawesome - https://fontawesome.com License - https://fontawesome.com/license (Commercial License) Copyright 2024 Fonticons, Inc. --><defs><style>.fa-secondary{opacity:.4}</style></defs><path class="fa-secondary" d="M32 64l384 0 0 384L32 448 32 64zm32 56a24 24 0 1 0 48 0 24 24 0 1 0 -48 0zm0 272a24 24 0 1 0 48 0 24 24 0 1 0 -48 0zm72-200l0 8 32 0 0-8c0-13.3 10.7-24 24-24l56 0c17.6 0 32 14.5 32 32.3c0 12.1-6.8 23.2-17.5 28.7l-45.8 23.4-8.7 4.5 0 9.8 0 13.5 0 16 32 0 0-16 0-3.7 37.1-18.9c21.5-11 34.9-33.2 34.9-57.2c0-35.2-28.5-64.3-64-64.3l-56 0c-30.9 0-56 25.1-56 56zm64 136l0 48 48 0 0-48-48 0zM336 120a24 24 0 1 0 48 0 24 24 0 1 0 -48 0zm0 272a24 24 0 1 0 48 0 24 24 0 1 0 -48 0z"/><path class="fa-primary" d="M32 64l0 384 384 0 0-384L32 64zM0 32l32 0 384 0 32 0 0 32 0 384 0 32-32 0L32 480 0 480l0-32L0 64 0 32zM88 96a24 24 0 1 1 0 48 24 24 0 1 1 0-48zm248 24a24 24 0 1 1 48 0 24 24 0 1 1 -48 0zM88 368a24 24 0 1 1 0 48 24 24 0 1 1 0-48zm248 24a24 24 0 1 1 48 0 24 24 0 1 1 -48 0zM136 192c0-30.9 25.1-56 56-56l56 0c35.5 0 64 29 64 64.3c0 24-13.4 46.2-34.9 57.2L240 276.3l0 3.7 0 16-32 0 0-16 0-13.5 0-9.8 8.7-4.5 45.8-23.4c10.7-5.4 17.5-16.6 17.5-28.7c0-17.8-14.4-32.3-32-32.3l-56 0c-13.3 0-24 10.7-24 24l0 8-32 0 0-8zm64 136l48 0 0 48-48 0 0-48z"/></svg>