<svg xmlns="http://www.w3.org/2000/svg" viewBox="0 0 384 512"><!--! Font Awesome Pro 6.7.2 by @fontawesome - https://fontawesome.com License - https://fontawesome.com/license (Commercial License) Copyright 2024 Fonticons, Inc. --><defs><style>.fa-secondary{opacity:.4}</style></defs><path class="fa-secondary" d="M35.8 256L176 256l39.6 0-8.3 38.7-21.1 98.5L352 196.3l0-4.3-128 0-39 0 7.7-38.3L217 32 60.6 32 35.8 256z"/><path class="fa-primary" d="M230.4 128l19.2-96L256 0 223.4 0 32 0 3.6 256 0 288l32.2 0 111.1 0 32.7 0-6.9 32L142.3 445.4 128 512l43.9-52.1L384 208l0-16 0-32-32 0-95.4 0L224 160l6.4-32zM352 192l0 4.3L186.2 393.2l21.1-98.5 8.3-38.7L176 256 35.8 256 60.6 32 217 32 192.6 153.7 185 192l39 0 128 0z"/></svg>