<svg xmlns="http://www.w3.org/2000/svg" viewBox="0 0 448 512"><!--! Font Awesome Pro 6.7.2 by @fontawesome - https://fontawesome.com License - https://fontawesome.com/license (Commercial License) Copyright 2024 Fonticons, Inc. --><defs><style>.fa-secondary{opacity:.4}</style></defs><path class="fa-secondary" d="M32 88l24 0 0-24 48 0 0 24 48 0 0-24 56 0 0 176L32 240l0-56 24 0 0-48-24 0 0-48zm0 184l176 0 0 176-56 0 0-24-48 0 0 24-48 0 0-24-24 0 0-48 24 0 0-48-24 0 0-56zM240 64l56 0 0 24 48 0 0-24 48 0 0 24 24 0 0 48-24 0 0 48 24 0 0 56-176 0 0-176zm0 208l176 0 0 56-24 0 0 48 24 0 0 48-24 0 0 24-48 0 0-24-48 0 0 24-56 0 0-176z"/><path class="fa-primary" d="M208 240l0-192 0-16 32 0 0 16 0 192 192 0 16 0 0 32-16 0-192 0 0 192 0 16-32 0 0-16 0-192L16 272 0 272l0-32 16 0 192 0zM8 472l0-48 48 0 0 48L8 472zm384 0l0-48 48 0 0 48-48 0zM8 376l0-48 48 0 0 48L8 376zm384 0l0-48 48 0 0 48-48 0zm48-192l-48 0 0-48 48 0 0 48zM8 184l0-48 48 0 0 48L8 184zM440 88l-48 0 0-48 48 0 0 48zM56 88L8 88 8 40l48 0 0 48zm288 0l-48 0 0-48 48 0 0 48zM296 472l0-48 48 0 0 48-48 0zM152 88l-48 0 0-48 48 0 0 48zM104 472l0-48 48 0 0 48-48 0z"/></svg>