<svg xmlns="http://www.w3.org/2000/svg" viewBox="0 0 640 512"><!--! Font Awesome Pro 6.7.2 by @fontawesome - https://fontawesome.com License - https://fontawesome.com/license (Commercial License) Copyright 2024 Fonticons, Inc. --><defs><style>.fa-secondary{opacity:.4}</style></defs><path class="fa-secondary" d="M32 32l320 0 0 32-64 0 0 32-48 0-16 0 0 16 0 64 0 16 16 0 48 0 0 32-48 0-16 0 0 16 0 64 0 16 16 0 48 0 0 160-32 0 0-80 0-32-32 0-64 0-32 0 0 32 0 80-96 0L32 32zM64 96l0 16 0 64 0 16 16 0 64 0 16 0 0-16 0-64 0-16-16 0L80 96 64 96zm0 128l0 16 0 64 0 16 16 0 64 0 16 0 0-16 0-64 0-16-16 0-64 0-16 0z"/><path class="fa-primary" d="M352 32L32 32l0 448 96 0 0-80 0-32 32 0 64 0 32 0 0 32 0 80 32 0 0 32-32 0-32 0-64 0-32 0-96 0L0 512l0-32L0 32 0 0 32 0 352 0l32 0 0 32 0 32-32 0 0-32zM288 96l0 32-32 0 0 32 32 0 0 32-48 0-16 0 0-16 0-64 0-16 16 0 48 0zm0 128l0 32-32 0 0 32 32 0 0 32-48 0-16 0 0-16 0-64 0-16 16 0 48 0zM224 480l0-80-64 0 0 80 64 0zM80 96l64 0 16 0 0 16 0 64 0 16-16 0-64 0-16 0 0-16 0-64 0-16 16 0zm16 64l32 0 0-32-32 0 0 32zM80 224l64 0 16 0 0 16 0 64 0 16-16 0-64 0-16 0 0-16 0-64 0-16 16 0zm16 64l32 0 0-32-32 0 0 32zM352 128l0 352 256 0 0-352-256 0zM320 96l32 0 256 0 32 0 0 32 0 352 0 32-32 0-256 0-32 0 0-32 0-352 0-32zm56 112a24 24 0 1 1 48 0 24 24 0 1 1 -48 0zm24 72a24 24 0 1 1 0 48 24 24 0 1 1 0-48zM376 400a24 24 0 1 1 48 0 24 24 0 1 1 -48 0zm88-208l96 0 16 0 0 32-16 0-96 0-16 0 0-32 16 0zm-16 96l16 0 96 0 16 0 0 32-16 0-96 0-16 0 0-32zm16 96l96 0 16 0 0 32-16 0-96 0-16 0 0-32 16 0z"/></svg>