<svg xmlns="http://www.w3.org/2000/svg" viewBox="0 0 640 512"><!--! Font Awesome Pro 6.7.2 by @fontawesome - https://fontawesome.com License - https://fontawesome.com/license (Commercial License) Copyright 2024 Fonticons, Inc. --><defs><style>.fa-secondary{opacity:.4}</style></defs><path class="fa-secondary" d="M35.4 256l16.2 4.7 51.8 15.2L65.2 314.1l-.7 .7 65.2-32.6c-1.2-8.6-1.8-17.3-1.8-26.2s.6-17.6 1.8-26.2L64.5 197.2l.7 .7 38.2 38.2L51.6 251.3 35.4 256zM160 256c0 69.2 43.9 128.1 105.3 150.4L166.9 209.5c-4.5 14.7-6.9 30.3-6.9 46.5zM263.1 106.4L405.5 391.3c20.5-13 37.9-30.5 50.6-51.2L334.4 96.6c-4.8-.4-9.6-.6-14.4-.6c-20 0-39.2 3.7-56.9 10.4zM510.2 229.8c1.2 8.6 1.8 17.3 1.8 26.2s-.6 17.6-1.8 26.2l65.2 32.6-.7-.7-38.2-38.2 51.8-15.2 16.2-4.7-16.2-4.7-51.8-15.2 38.2-38.2 .7-.7-65.2 32.6z"/><path class="fa-primary" d="M376.9 405.6C359.2 412.3 340 416 320 416c-4.9 0-9.7-.2-14.4-.6L183.8 171.9c12.8-20.7 30.1-38.2 50.6-51.2L376.9 405.6zm28.6-14.3L263.1 106.4C280.8 99.7 300 96 320 96c4.9 0 9.7 .2 14.4 .6L456.2 340.1c-12.8 20.7-30.1 38.2-50.6 51.2zm-3.2 38.3c6-2.9 11.9-6 17.6-9.5c0 0 0 0 0 0c20.3-12.4 38.2-28.5 52.6-47.3c0 0 0 0 0 0c7.6-9.9 14.3-20.6 19.8-31.9c0 0 0 0 0 0c4.2-8.5 7.8-17.3 10.7-26.5l101.8 50.9L633 327l-9.8-9.8-25.8-25.8 35-10.2L640 279l0-46-7.6-2.2-35-10.2 25.8-25.8L633 185l-28.2-38.2L503 197.7C481.8 131.1 425.3 80.3 355.5 67.3c0 0 0 0 0 0C344 65.1 332.1 64 320 64c0 0 0 0 0 0c-.6 0-1.3 0-1.9 0c-84.9 .8-156.6 56.7-181.1 133.7L35.2 146.8 7 185l9.8 9.8 25.8 25.8-35 10.2L0 233l0 46 7.6 2.2 35 10.2L16.8 317.2 7 327l28.2 38.2L137 314.3c21.2 66.5 77.7 117.3 147.5 130.4c11.5 2.2 23.4 3.3 35.5 3.3zm-137-23.1C203.9 384.1 160 325.2 160 256c0-16.2 2.4-31.8 6.9-46.5l98.5 196.9zM374.7 105.6C436.1 127.9 480 186.8 480 256c0 16.2-2.4 31.8-6.9 46.5L374.7 105.6zM320 448c.6 0 1.3 0 1.9 0c24.5-.2 47.9-5.1 69.4-13.7c3.7-1.5 7.4-3.1 11-4.8zM512 256c0-8.9-.6-17.6-1.8-26.2l65.2-32.6-.7 .7-38.2 38.2 51.8 15.2 16.2 4.7-16.2 4.7-51.8 15.2 38.2 38.2 .7 .7-65.2-32.6c1.2-8.6 1.8-17.3 1.8-26.2zM129.8 229.8c-1.2 8.6-1.8 17.3-1.8 26.2s.6 17.6 1.8 26.2L64.5 314.8l.7-.7 38.2-38.2L51.6 260.7 35.4 256l16.2-4.7 51.8-15.2L65.2 197.9l-.7-.7 65.2 32.6z"/></svg>