<svg xmlns="http://www.w3.org/2000/svg" width="24" height="24" viewBox="0 0 512 512"><path class="pr-icon-duotone-secondary" d="M32 32l0 16 0 400 464 0 16 0 0-416L32 32zM136 296l48 0 0 48-48 0 0-48zm32-160l48 0 0 48-48 0 0-48zm96 96l48 0 0 48-48 0 0-48zm96 64l48 0 0 48-48 0 0-48zm32-192l48 0 0 48-48 0 0-48z"/><path class="pr-icon-duotone-primary" d="M32 48l0-16L0 32 0 48 0 464l0 16 16 0 480 0 16 0 0-32-16 0L32 448 32 48zm184 88l-48 0 0 48 48 0 0-48zM136 296l0 48 48 0 0-48-48 0zm176-64l-48 0 0 48 48 0 0-48zm48 64l0 48 48 0 0-48-48 0zm80-192l-48 0 0 48 48 0 0-48z"/></svg>