<svg xmlns="http://www.w3.org/2000/svg" viewBox="0 0 512 512"><!--! Font Awesome Pro 6.7.2 by @fontawesome - https://fontawesome.com License - https://fontawesome.com/license (Commercial License) Copyright 2024 Fonticons, Inc. --><defs><style>.fa-secondary{opacity:.4}</style></defs><path class="fa-secondary" d="M32 329.4c19.1-19.1 38.2-38.2 57.4-57.4L112 294.6l11.3-11.3L208 198.6l68.7 68.7L288 278.6l11.3-11.3L342.6 224c11.1 11.1 22.2 22.2 33.4 33.4L353.4 280l11.3 11.3L425.4 352 368 352l-16 0 0 32 16 0 96 0 16 0 0 64L32 448l0-118.6z"/><path class="fa-primary" d="M32 48l0-16L0 32 0 48 0 464l0 16 16 0 480 0 16 0 0-32-16 0L32 448 32 48zM352 64l0 32 16 0 57.4 0L288 233.4l-68.7-68.7L208 153.4l-11.3 11.3-96 96L89.4 272 112 294.6l11.3-11.3L208 198.6l68.7 68.7L288 278.6l11.3-11.3L448 118.6l0 57.4 0 16 32 0 0-16 0-96 0-16-16 0-96 0-16 0zm0 320l16 0 96 0 16 0 0-16 0-96 0-16-32 0 0 16 0 57.4-60.7-60.7L376 257.4 353.4 280l11.3 11.3L425.4 352 368 352l-16 0 0 32z"/></svg>