<svg xmlns="http://www.w3.org/2000/svg" viewBox="0 0 512 512"><!--! Font Awesome Pro 6.7.2 by @fontawesome - https://fontawesome.com License - https://fontawesome.com/license (Commercial License) Copyright 2024 Fonticons, Inc. --><defs><style>.fa-secondary{opacity:.4}</style></defs><path class="fa-secondary" d="M32 32l0 16 0 400 464 0 16 0 0-416L32 32zM96 224L201.4 118.6 224 96l22.6 22.6 50.7 50.7L320 192l22.6-22.6 18.7-18.7L384 128l20.9 24.4L480 240l0 112 0 32-32 0-320 0-32 0 0-32 0-128z"/><path class="fa-primary" d="M32 48l0-16L0 32 0 48 0 464l0 16 16 0 480 0 16 0 0-32-16 0L32 448 32 48zm214.6 70.6L224 96l-22.6 22.6L96 224l0 128 0 32 32 0 320 0 32 0 0-32 0-112-75.1-87.6L384 128l-22.7 22.7-18.7 18.7L320 192l-22.6-22.6-50.7-50.7zm96 96l39.6-39.6L448 251.8 448 352l-320 0 0-114.7 96-96 73.4 73.4L320 237.3l22.6-22.6z"/></svg>