<svg xmlns="http://www.w3.org/2000/svg" viewBox="0 0 512 512"><!--! Font Awesome Pro 6.7.2 by @fontawesome - https://fontawesome.com License - https://fontawesome.com/license (Commercial License) Copyright 2024 Fonticons, Inc. --><defs><style>.fa-secondary{opacity:.4}</style></defs><path class="fa-secondary" d="M32 256a224 224 0 1 0 448 0A224 224 0 1 0 32 256zM156.9 361.2l9.6-30.5 15.3 4.8c15.2 4.8 42.2 12.6 56.4 14.8c23.4 3.4 43.6 1.8 57.9-3.8c13.9-5.4 21.2-13.8 23.1-24.4c1.6-8.5 .5-14.1-1.5-18.2c-2-4.2-5.7-8.3-11.7-12.3c-12.8-8.4-31.8-13.9-54.4-20.1l-1.5-.4c-20.7-5.7-44.5-12.3-62-23.8c-9.3-6.1-17.7-14.3-23-25.2c-5.3-11.1-6.6-23.8-4-37.7c4.5-24.3 21.6-40.2 43.1-48.5c21.1-8.1 47.2-9.5 74.1-5.6c8.4 1.2 25.9 5 34.1 7l15.5 3.9-7.8 31-15.5-3.9c-7.6-1.9-24-5.4-31-6.4c-23.4-3.5-43.6-1.8-57.9 3.8c-13.9 5.4-21.2 13.8-23.1 24.4c-1.5 8.5-.5 14.1 1.5 18.2c2 4.2 5.7 8.3 11.7 12.3c12.8 8.4 31.8 13.9 54.4 20.1l1.5 .4c20.7 5.7 44.5 12.3 62 23.8c9.3 6.1 17.7 14.3 23 25.2c5.3 11.1 6.6 23.8 4 37.7c-4.5 24.3-21.6 40.2-43.1 48.5c-21.1 8.1-47.2 9.5-74.2 5.5c-17-2.6-46.2-11.2-61.2-15.9l-15.3-4.8z"/><path class="fa-primary" d="M256 32a224 224 0 1 1 0 448 224 224 0 1 1 0-448zm0 480A256 256 0 1 0 256 0a256 256 0 1 0 0 512zM192.7 190c2-10.7 9.2-19.1 23.1-24.4c14.3-5.5 34.5-7.2 57.9-3.8c7 1 23.4 4.5 31 6.4l15.5 3.9 7.8-31-15.5-3.9c-8.2-2.1-25.7-5.8-34.1-7c-26.9-4-53.1-2.6-74.1 5.6c-21.5 8.3-38.6 24.2-43.1 48.5c-2.5 13.9-1.2 26.6 4 37.7c5.2 11 13.6 19.1 23 25.2c17.5 11.5 41.3 18.1 62 23.8c0 0 0 0 0 0l1.5 .4c22.6 6.3 41.6 11.7 54.4 20.1c6 4 9.7 8 11.7 12.3c1.9 4.1 3 9.7 1.5 18.2c-2 10.7-9.2 19.1-23.1 24.4c-14.3 5.5-34.5 7.2-57.9 3.8c-14.3-2.2-41.3-10-56.4-14.8l-15.3-4.8-9.6 30.5 15.3 4.8c15 4.7 44.2 13.3 61.2 15.9c0 0 0 0 0 0c0 0 .1 0 .1 0c26.9 4 53.1 2.6 74.1-5.6c21.5-8.3 38.6-24.2 43.1-48.5c2.5-13.9 1.2-26.6-4-37.7c-5.2-11-13.6-19.1-23-25.2c-17.5-11.5-41.3-18.1-62-23.8l-1.5-.4c-22.6-6.3-41.6-11.7-54.4-20.1c-6-4-9.7-8-11.7-12.3c-1.9-4.1-3-9.7-1.5-18.2z"/></svg>