<svg xmlns="http://www.w3.org/2000/svg" viewBox="0 0 640 512"><!--! Font Awesome Pro 6.7.2 by @fontawesome - https://fontawesome.com License - https://fontawesome.com/license (Commercial License) Copyright 2024 Fonticons, Inc. --><defs><style>.fa-secondary{opacity:.4}</style></defs><path class="fa-secondary" d="M32 256c0 123.7 100.3 224 224 224c66.3 0 125.9-28.8 167-74.7l23.8 21.3c27.3-30.5 47.3-67.5 57.6-108.4l-13.1 13.1L480 342.6l-11.3-11.3-72-72 22.6-22.6L480 297.4l31.8-31.8c.1-3.2 .2-6.4 .2-9.5c0-32.5-6-63.5-17.1-92.1l-29.9 11.5C432.7 91.5 351.3 32 256 32C132.3 32 32 132.3 32 256zm200 64l48 0 0 48-48 0 0-48zm8-192l32 0 0 16 0 128 0 16-32 0 0-16 0-128 0-16z"/><path class="fa-primary" d="M32 256C32 132.3 132.3 32 256 32c95.3 0 176.7 59.5 209.1 143.4l29.9-11.5C458 68 364.9 0 256 0C114.6 0 0 114.6 0 256S114.6 512 256 512c75.8 0 144-33 190.8-85.3L423 405.3c-41 45.9-100.6 74.7-167 74.7C132.3 480 32 379.7 32 256zM272 144l0-16-32 0 0 16 0 128 0 16 32 0 0-16 0-128zm8 224l0-48-48 0 0 48 48 0zM627.3 195.3l-22.6-22.6L480 297.4l-60.7-60.7-22.6 22.6 72 72L480 342.6l11.3-11.3 136-136z"/></svg>