<svg xmlns="http://www.w3.org/2000/svg" viewBox="0 0 512 512"><!--! Font Awesome Pro 6.7.2 by @fontawesome - https://fontawesome.com License - https://fontawesome.com/license (Commercial License) Copyright 2024 Fonticons, Inc. --><defs><style>.fa-secondary{opacity:.4}</style></defs><path class="fa-secondary" d="M32 256a224 224 0 1 0 448 0A224 224 0 1 0 32 256zm92.2-112l40.5 0L256 261.9 347.4 144l40.5 0L272 293.5l0 90.5 0 16-32 0 0-16 0-90.5L124.2 144z"/><path class="fa-primary" d="M256 32a224 224 0 1 1 0 448 224 224 0 1 1 0-448zm0 480A256 256 0 1 0 256 0a256 256 0 1 0 0 512zM240 293.5l0 90.5 0 16 32 0 0-16 0-90.5L387.8 144l-40.5 0L256 261.9 164.6 144l-40.5 0L240 293.5z"/></svg>