<svg xmlns="http://www.w3.org/2000/svg" viewBox="0 0 512 512"><!--! Font Awesome Pro 6.7.2 by @fontawesome - https://fontawesome.com License - https://fontawesome.com/license (Commercial License) Copyright 2024 Fonticons, Inc. --><defs><style>.fa-secondary{opacity:.4}</style></defs><path class="fa-secondary" d="M32 256a224 224 0 1 0 448 0A224 224 0 1 0 32 256zm104-24l48 0 0 48-48 0 0-48zm96 0l48 0 0 48-48 0 0-48zm96 0l48 0 0 48-48 0 0-48z"/><path class="fa-primary" d="M256 480a224 224 0 1 0 0-448 224 224 0 1 0 0 448zM256 0a256 256 0 1 1 0 512A256 256 0 1 1 256 0zM184 232l0 48-48 0 0-48 48 0zm192 0l0 48-48 0 0-48 48 0zm-144 0l48 0 0 48-48 0 0-48z"/></svg>