<svg xmlns="http://www.w3.org/2000/svg" viewBox="0 0 512 512"><!--! Font Awesome Pro 6.7.2 by @fontawesome - https://fontawesome.com License - https://fontawesome.com/license (Commercial License) Copyright 2024 Fonticons, Inc. --><defs><style>.fa-secondary{opacity:.4}</style></defs><path class="fa-secondary" d="M480 256A224 224 0 1 1 32 256a224 224 0 1 1 448 0zM240 240l0 16 0 144 0 16 32 0 0-16 0-128 96 0 16 0 0-32-16 0-112 0-16 0z"/><path class="fa-primary" d="M32 256a224 224 0 1 0 448 0A224 224 0 1 0 32 256zm480 0A256 256 0 1 1 0 256a256 256 0 1 1 512 0zM240 400l0-144 0-16 16 0 112 0 16 0 0 32-16 0-96 0 0 128 0 16-32 0 0-16z"/></svg>