<svg xmlns="http://www.w3.org/2000/svg" viewBox="0 0 640 512"><!--! Font Awesome Pro 6.7.2 by @fontawesome - https://fontawesome.com License - https://fontawesome.com/license (Commercial License) Copyright 2024 Fonticons, Inc. --><defs><style>.fa-secondary{opacity:.4}</style></defs><path class="fa-secondary" d="M96 256c0 35.9 8.4 69.8 23.4 99.8c14.8 29.8 10.1 67.6-1.3 95.4c-3.8 9.3-9.4 19.5-16.7 28.9l218.5 0 184.7 0c-5.4-9.4-8.6-20.3-8.6-32c0-30.8 21.7-56.5 50.7-62.6c-.6-.9-1.3-1.9-1.9-2.8c-11.6-18.2-16-41.9-9.5-64.6c5.6-19.6 8.7-40.4 8.7-62C544 132.3 443.7 32 320 32S96 132.3 96 256zm88.4 41.3l28.8-14c12 24.7 35.9 53.6 77.8 64.8s77.1-1.9 99.8-17.2l17.9 26.5c-28.1 19-72.8 35.9-126 21.7s-83.4-51.2-98.3-81.7zm94.2-102.1a24 24 0 1 1 -46.4-12.4 24 24 0 1 1 46.4 12.4zm154.5 41.4a24 24 0 1 1 -46.4-12.4 24 24 0 1 1 46.4 12.4z"/><path class="fa-primary" d="M535.3 318c-6.5 22.7-2.1 46.4 9.5 64.6c.6 .9 1.2 1.9 1.9 2.8c-29 6.1-50.7 31.8-50.7 62.6c0 11.7 3.1 22.6 8.6 32l-184.4 0c0 0 0 0-.1 0s0 0-.1 0s0 0-.1 0s0 0-.1 0l-218.5 0c7.3-9.4 12.9-19.6 16.7-28.9c11.5-27.7 16.2-65.6 1.3-95.4c-15-30-23.4-63.8-23.4-99.8C96 132.3 196.3 32 320 32s224 100.3 224 224c0 21.5-3 42.3-8.7 62zM604 384c-27.6 0-45.6-30.6-37.9-57.2c6.5-22.5 9.9-46.2 9.9-70.8C576 114.6 461.4 0 320 0S64 114.6 64 256c0 41 9.6 79.7 26.7 114c18.4 37-8 110-49.3 110L16 480 0 480l0 16 0 16 16 0 25.4 0L64 512l255.9 0 .1 0 .1 0L512 512l48 0 16 0 0-16 0-16-16 0c-17.7 0-32-14.3-32-32s14.3-32 32-32l16 0 28 0c0 0 0 0 0 0l19.9 0s0 0 0 0l16 0 0-15.9c0 0 0-.1 0-.1s0-.1 0-.1l0-15.9-16 0-19.9 0s0 0 0 0s0 0 0 0zM278.7 195.2a24 24 0 1 0 -46.4-12.4 24 24 0 1 0 46.4 12.4zm125.2 58.4a24 24 0 1 0 12.4-46.4 24 24 0 1 0 -12.4 46.4zM282.7 379.1c53.2 14.3 97.9-2.6 126-21.7l-17.9-26.5c-22.7 15.4-57.9 28.5-99.8 17.2s-65.8-40.2-77.8-64.8l-28.8 14c14.8 30.5 45.1 67.5 98.3 81.7z"/></svg>