<svg xmlns="http://www.w3.org/2000/svg" width="24" height="24" viewBox="0 0 512 512">
    <path class="pr-icon-duotone-secondary" d="M32 256a224 224 0 1 0 448 0A224 224 0 1 0 32 256zm80 32l32 0 224 0 32 0 0 32 0 48 0 32-32 0-224 0-32 0 0-32 0-48 0-32zm88.4-80a24 24 0 1 1 -48 0 24 24 0 1 1 48 0zm160 0a24 24 0 1 1 -48 0 24 24 0 1 1 48 0z"/>
    <path class="pr-icon-duotone-primary" d="M256 32a224 224 0 1 0 0 448 224 224 0 1 0 0-448zM512 256A256 256 0 1 1 0 256a256 256 0 1 1 512 0zM144 320l0 48 32 0 0-48-32 0zm64 0l0 48 32 0 0-48-32 0zm96 48l0-48-32 0 0 48 32 0zm32 0l32 0 0-48-32 0 0 48zM144 288l224 0 32 0 0 32 0 48 0 32-32 0-224 0-32 0 0-32 0-48 0-32 32 0zm8.4-80a24 24 0 1 1 48 0 24 24 0 1 1 -48 0zm184-24a24 24 0 1 1 0 48 24 24 0 1 1 0-48z"/>
</svg>