<svg xmlns="http://www.w3.org/2000/svg" viewBox="0 0 384 512"><!--! Font Awesome Pro 6.7.2 by @fontawesome - https://fontawesome.com License - https://fontawesome.com/license (Commercial License) Copyright 2024 Fonticons, Inc. --><defs><style>.fa-secondary{opacity:.4}</style></defs><path class="fa-secondary" d="M32 32l0 448 320 0 0-288-144 0-16 0 0-16 0-144L32 32zM89.4 320l11.3-11.3 80-80L192 217.4l11.3 11.3 80 80L294.6 320 272 342.6l-11.3-11.3L208 278.6 208 400l0 16-32 0 0-16 0-121.4-52.7 52.7L112 342.6 89.4 320z"/><path class="fa-primary" d="M352 480L32 480 32 32l160 0 0 144 0 16 16 0 144 0 0 288zM224 37.3L346.7 160 224 160l0-122.7zM232 0L32 0 0 0 0 32 0 480l0 32 32 0 320 0 32 0 0-32 0-328L232 0zM208 400l0-121.4 52.7 52.7L272 342.6 294.6 320l-11.3-11.3-80-80L192 217.4l-11.3 11.3-80 80L89.4 320 112 342.6l11.3-11.3L176 278.6 176 400l0 16 32 0 0-16z"/></svg>