<svg xmlns="http://www.w3.org/2000/svg" viewBox="0 0 640 512"><!--! Font Awesome Pro 6.7.2 by @fontawesome - https://fontawesome.com License - https://fontawesome.com/license (Commercial License) Copyright 2024 Fonticons, Inc. --><defs><style>.fa-secondary{opacity:.4}</style></defs><path class="fa-secondary" d="M128 186l0 294 224 0 0-117.2C277.3 303.9 202.7 244.9 128 186zm384-72.3l0 46.3c0 17.7 14.3 32 32 32l0-49-32-29.3z"/><path class="fa-primary" d="M352 362.8L352 480l-224 0 0-294L96 160.7 96 480l-32 0 0 32 32 0 32 0 224 0 32 0 32 0 0-32-32 0 0-91.9-32-25.3zM139.6 32L352 32l0 167.7L384 225l0-193 0-32L352 0 128 0 99 0l40.5 32zM576 136l0-7-5.2-4.8-96-88L463 25.4 441.4 49l11.8 10.8L480 84.4l0 75.6c0 35.3 28.7 64 64 64l0 127.3 32 25.3L576 136zm-64-22.3L544 143l0 49c-17.7 0-32-14.3-32-32l0-46.3zM40.4 18L27.8 8.1 8.1 33.4l12.6 9.8L599.8 494.3l12.6 9.8 19.7-25.2L619.5 469 40.4 18z"/></svg>