<svg xmlns="http://www.w3.org/2000/svg" viewBox="0 0 640 512"><!--! Font Awesome Pro 6.7.2 by @fontawesome - https://fontawesome.com License - https://fontawesome.com/license (Commercial License) Copyright 2024 Fonticons, Inc. --><defs><style>.fa-secondary{opacity:.4}</style></defs><path class="fa-secondary" d="M112 173.3L112 320l20.9 0 6.6 0 4.7 4.7 52 52.1 7 7 11.3 11.3 32.6 32.6 29-29 11.3-11.3 11.3 11.3 26.6 26.6 46.7-46.7C285.4 310.2 198.7 241.8 112 173.3zM221.9 97c13.1 10.4 26.3 20.7 39.4 31.1l63.5-59.8 4.6-4.4c-18.9 0-37.9 0-56.9 0l-32 32-17.5 0-1.2 1zm64.8 51.2c18.8 14.8 37.6 29.7 56.4 44.5l15.6-14.4 11.8-10.9 21.2 22.9L366.3 211c53.9 42.6 107.8 85.1 161.7 127.7L528 160l0-32-24.7 0c-2.4-2.1-4.9-4.1-7.3-6.2l0 38.2-4.3 0-4.5-3.8L415.5 96l-73.4 0-55.4 52.2z"/><path class="fa-primary" d="M40.4 18L27.8 8.1 8.1 33.4l12.6 9.8L599.8 494.3l12.6 9.8 19.7-25.2L619.5 469 40.4 18zM626 416l14 0 0-32 0-224 0-32-32 0-48 0-32 0 0 32 0 178.7 32 25.3L560 160l48 0 0 96 0 128 0 17.8L626 416zM372.1 378.6l-46.7 46.7-26.6-26.6-11.3-11.3-11.3 11.3-29 29-32.6-32.6-11.3-11.3-7-7-52-52.1-4.7-4.7-6.6 0L112 320l0-146.7L54.6 128 32 128 0 128l0 32L0 384l0 32 32 0 48 0 32 0 0-32 0-32 14.3 0 47.4 47.4 7 7L192 417.7l43.9 43.9 11.3 11.3 11.3-11.3 29-29 26.6 26.6 11.3 11.3 11.3-11.3 60.6-60.6-25.3-20zM261.3 128.1l25.4 20L342.1 96l73.4 0 71.7 60.2 4.5 3.8 4.3 0 0-38.2L431.6 67.7 427.2 64l-5.8 0-85.6 0-6.3 0-4.6 4.4-63.5 59.8zM221.9 97l1.2-1 17.5 0 32-32-55.3 0-5.8 0L207 67.7l-10.7 9L221.9 97zm121.2 95.7L366.3 211l25.4-20.6-21.2-22.9-11.8 10.9-15.6 14.4zM32 160l48 0 0 224-48 0 0-224z"/></svg>