<svg xmlns="http://www.w3.org/2000/svg" viewBox="0 0 384 512"><!--! Font Awesome Pro 6.7.2 by @fontawesome - https://fontawesome.com License - https://fontawesome.com/license (Commercial License) Copyright 2024 Fonticons, Inc. --><defs><style>.fa-secondary{opacity:.4}</style></defs><path class="fa-secondary" d="M32 256l0 224 320 0 0-320-224 0c-53 0-96 43-96 96zM128 32l0 32 64 0 0-32-64 0zm80 176l16 0 64 0 16 0 0 16 0 160 0 16-16 0-64 0-16 0 0-16 0-160 0-16z"/><path class="fa-primary" d="M128 32l64 0 0 32-64 0 0-32zM96 64L64 64l0 32 32 0 32 0 64 0 32 0 32 0 0-32-32 0 0-32 0-32L192 0 128 0 96 0l0 32 0 32zm256 96l0 320L32 480l0-224c0-53 43-96 96-96l224 0zM128 128C57.3 128 0 185.3 0 256L0 480l0 32 32 0 320 0 32 0 0-32 0-320 0-32-32 0-224 0zm96 80l-16 0 0 16 0 160 0 16 16 0 64 0 16 0 0-16 0-160 0-16-16 0-64 0zm16 160l0-128 32 0 0 128-32 0z"/></svg>