<svg xmlns="http://www.w3.org/2000/svg" viewBox="0 0 512 512"><!--! Font Awesome Pro 6.7.2 by @fontawesome - https://fontawesome.com License - https://fontawesome.com/license (Commercial License) Copyright 2024 Fonticons, Inc. --><defs><style>.fa-secondary{opacity:.4}</style></defs><path class="fa-secondary" d="M32 398.6L32 480l96 0 0-48 0-16 16 0 48 0 0-48 0-16 16 0 49.4 0 31.4-31.4 6.3-6.3 8.6 2c10.4 2.4 21.2 3.6 32.4 3.6c79.5 0 144-64.5 144-144s-64.5-144-144-144s-144 64.5-144 144c0 15.2 2.4 29.9 6.7 43.7l2.9 9.3-6.9 6.9L32 398.6zM392 144a24 24 0 1 1 -48 0 24 24 0 1 1 48 0z"/><path class="fa-primary" d="M192 176c0-79.5 64.5-144 144-144s144 64.5 144 144s-64.5 144-144 144c-11.1 0-22-1.3-32.4-3.6l-8.6-2-6.3 6.3L257.4 352 208 352l-16 0 0 16 0 48-48 0-16 0 0 16 0 48-96 0 0-81.4L194.8 235.8l6.9-6.9-2.9-9.3c-4.4-13.8-6.7-28.4-6.7-43.7zM336 0C238.8 0 160 78.8 160 176c0 15.1 1.9 29.8 5.5 43.9L4.7 380.7 0 385.4 0 392 0 496l0 16 16 0 128 0 16 0 0-16 0-48 48 0 16 0 0-16 0-48 40 0 6.6 0 4.7-4.7 30-30c10 1.8 20.2 2.7 30.7 2.7c97.2 0 176-78.8 176-176S433.2 0 336 0zm32 168a24 24 0 1 0 0-48 24 24 0 1 0 0 48z"/></svg>