<svg xmlns="http://www.w3.org/2000/svg" viewBox="0 0 640 512"><!--! Font Awesome Pro 6.7.2 by @fontawesome - https://fontawesome.com License - https://fontawesome.com/license (Commercial License) Copyright 2024 Fonticons, Inc. --><defs><style>.fa-secondary{opacity:.4}</style></defs><path class="fa-secondary" d="M32 416l576 0 0 2.7L578.7 448 61.3 448 32 418.7l0-2.7zM96 64l448 0 0 288L96 352 96 64z"/><path class="fa-primary" d="M544 64L96 64l0 288-32 0L64 64l0-32 32 0 448 0 32 0 0 32 0 288-32 0 0-288zM61.3 448l517.5 0L608 418.7l0-2.7L32 416l0 2.7L61.3 448zM640 384l0 32 0 16-48 48L48 480 0 432l0-16 0-32 32 0 576 0 32 0z"/></svg>