<svg xmlns="http://www.w3.org/2000/svg" viewBox="0 0 640 512"><!--! Font Awesome Pro 6.7.2 by @fontawesome - https://fontawesome.com License - https://fontawesome.com/license (Commercial License) Copyright 2024 Fonticons, Inc. --><defs><style>.fa-secondary{opacity:.4}</style></defs><path class="fa-secondary" d="M128 64l0 288 320 0 0-96 0-32 0-160-16 0-16 0L128 64z"/><path class="fa-primary" d="M416 64l16 0 16 0 0 160 0 32 0 96-320 0 0-288 288 0zm64 288l0-96 48 0c61.9 0 112-50.1 112-112l0-16-1.1 0C631.1 73.7 584.4 32 528 32l-48 0-32 0-16 0-16 0L128 32 96 32l0 32 0 288 0 32 32 0 320 0 32 0 0-32zm48-128l-48 0 0-160 48 0c44.2 0 80 35.8 80 80s-35.8 80-80 80zM16 448L0 448l0 32 16 0 544 0 16 0 0-32-16 0L16 448z"/></svg>