<svg xmlns="http://www.w3.org/2000/svg" viewBox="0 0 576 512"><!--! Font Awesome Pro 6.7.2 by @fontawesome - https://fontawesome.com License - https://fontawesome.com/license (Commercial License) Copyright 2024 Fonticons, Inc. --><defs><style>.fa-secondary{opacity:.4}</style></defs><path class="fa-secondary" d="M32 64l0 416 512 0 0-416-32 0 0 64 0 32-32 0-160 0-32 0 0-32 0-64-48 0 0 336 0 32-32 0-96 0-32 0 0-32L80 64 32 64zm80-32l0 368 96 0 0-368-96 0zM288 192l32 0 32 0 32 0 0 32 0 32 0 32-32 0-32 0-32 0 0-32 0-32 0-32zm0 128l32 0 32 0 32 0 0 32 0 32 0 32-32 0-32 0-32 0 0-32 0-32 0-32zM416 192l32 0 32 0 32 0 0 32 0 32 0 32-32 0-32 0-32 0 0-32 0-32 0-32zm0 128l32 0 32 0 32 0 0 32 0 32 0 32-32 0-32 0-32 0 0-32 0-32 0-32z"/><path class="fa-primary" d="M208 32l0 368-96 0 0-368 96 0zM112 0L80 0l0 32L32 32 0 32 0 64 0 480l0 32 32 0 512 0 32 0 0-32 0-416 0-32-32 0-32 0-32 0L320 32l-32 0-48 0 0-32L208 0 112 0zM288 64l0 64 0 32 32 0 160 0 32 0 0-32 0-64 32 0 0 416L32 480 32 64l48 0 0 336 0 32 32 0 96 0 32 0 0-32 0-336 48 0zm192 0l0 64-160 0 0-64 160 0zM352 224l0 32-32 0 0-32 32 0zm-32-32l-32 0 0 32 0 32 0 32 32 0 32 0 32 0 0-32 0-32 0-32-32 0-32 0zm0 160l32 0 0 32-32 0 0-32zm-32-32l0 32 0 32 0 32 32 0 32 0 32 0 0-32 0-32 0-32-32 0-32 0-32 0zm192-96l0 32-32 0 0-32 32 0zm-32-32l-32 0 0 32 0 32 0 32 32 0 32 0 32 0 0-32 0-32 0-32-32 0-32 0zm0 160l32 0 0 32-32 0 0-32zm-32-32l0 32 0 32 0 32 32 0 32 0 32 0 0-32 0-32 0-32-32 0-32 0-32 0z"/></svg>