<svg xmlns="http://www.w3.org/2000/svg" viewBox="0 0 640 512"><!--! Font Awesome Pro 6.7.2 by @fontawesome - https://fontawesome.com License - https://fontawesome.com/license (Commercial License) Copyright 2024 Fonticons, Inc. --><defs><style>.fa-secondary{opacity:.4}</style></defs><path class="fa-secondary" d="M70.6 336l128-128 25.4 0 0 64 144 0 0 128-144 0 0 64-25.4 0L70.6 336zM272 112l144 0 0-64 25.4 0 128 128-128 128L416 304l0-64-144 0c0-42.7 0-85.3 0-128z"/><path class="fa-primary" d="M185.4 496L25.4 336l160-160H256v64H416v64h25.4l128-128L441.4 48H416v64H272V80H384V16h70.6l160 160-160 160H384V272H224V208H198.6L70.6 336l128 128H224V400H368v32H256v64H185.4z"/></svg>