<svg xmlns="http://www.w3.org/2000/svg" width="24" height="24" viewBox="0 0 448 512">
    <path class="pr-icon-duotone-secondary" d="M32 64l384 0 0 384L32 448 32 64zm76.7 195.3l72 72L192 342.6l11.3-11.3 136-136-22.6-22.6L192 297.4l-60.7-60.7-22.6 22.6z"/>
    <path class="pr-icon-duotone-primary" d="M32 64l0 384 384 0 0-384L32 64zM0 32l32 0 384 0 32 0 0 32 0 384 0 32-32 0L32 480 0 480l0-32L0 64 0 32zM203.3 331.3L192 342.6l-11.3-11.3-72-72 22.6-22.6L192 297.4 316.7 172.7l22.6 22.6-136 136z"/>
</svg>