<svg xmlns="http://www.w3.org/2000/svg" width="24" height="24" viewBox="0 0 448 512">
    <path class="pr-icon-duotone-secondary" d="M32 64l384 0 0 384L32 448 32 64zm77 64l95.1 128L109 384l39.9 0L224 282.8 299.2 384l39.9 0L243.9 256 339 128l-39.9 0L224 229.2 148.8 128 109 128z"/>
    <path class="pr-icon-duotone-primary" d="M32 64l0 384 384 0 0-384L32 64zM0 32l32 0 384 0 32 0 0 32 0 384 0 32-32 0L32 480 0 480l0-32L0 64 0 32zm109 96l39.9 0L224 229.2 299.2 128l39.9 0L243.9 256 339 384l-39.9 0L224 282.8 148.8 384 109 384l95.1-128L109 128z"/>
</svg>