<svg xmlns="http://www.w3.org/2000/svg" viewBox="0 0 448 512"><!--! Font Awesome Pro 6.7.2 by @fontawesome - https://fontawesome.com License - https://fontawesome.com/license (Commercial License) Copyright 2024 Fonticons, Inc. --><defs><style>.fa-secondary{opacity:.4}</style></defs><path class="fa-secondary" d="M32 32l0 288 384 0 0-288L32 32z"/><path class="fa-primary" d="M416 32l0 288L32 320 32 32l384 0zm0 320l0 128L32 480l0-128 384 0zM32 0L0 0 0 32 0 480l0 32 32 0 384 0 32 0 0-32 0-448 0-32L416 0 32 0zM248 416a24 24 0 1 0 -48 0 24 24 0 1 0 48 0z"/></svg>