<svg xmlns="http://www.w3.org/2000/svg" viewBox="0 0 576 512"><!--! Font Awesome Pro 6.7.2 by @fontawesome - https://fontawesome.com License - https://fontawesome.com/license (Commercial License) Copyright 2024 Fonticons, Inc. --><defs><style>.fa-secondary{opacity:.4}</style></defs><path class="fa-secondary" d="M35 480l237 0 0-432.3L62.4 178.7 35 480zM304 49.8L304 220 441.6 480l99.2 0L513.6 193.9 304 49.8z"/><path class="fa-primary" d="M32.1 512L0 512l2.9-32L32 160 288 0 544 176l29 304 3 32-32.1 0L32.1 512zM272 480l0-432.3L62.4 178.7 35 480l237 0zm32 0l101.4 0L304 288.4 304 480zm137.6 0l99.2 0L513.6 193.9 304 49.8 304 220 441.6 480z"/></svg>