<svg xmlns="http://www.w3.org/2000/svg" viewBox="0 0 640 512"><!--! Font Awesome Pro 6.7.2 by @fontawesome - https://fontawesome.com License - https://fontawesome.com/license (Commercial License) Copyright 2024 Fonticons, Inc. --><defs><style>.fa-secondary{opacity:.4}</style></defs><path class="fa-secondary" d="M64 64l288 0 0 160 0 32 0 96-101.5 0c-13.2-37.3-48.7-64-90.5-64s-77.4 26.7-90.5 64L64 352l0-64 0-160 0-64zm32 64l0 16 0 64c0 26.5 21.5 48 48 48l16 0 0-2.7c18.6-6.6 32-24.4 32-45.3l0-64 0-16-32 0 0 16 0 64c0 8.8-7.2 16-16 16s-16-7.2-16-16l0-64 0-16-32 0zm128 0l0 16 0 96 0 16 32 0 0-16 0-44.2 25.7 51.4 4.4 8.8 9.9 0 8 0 16 0 0-16 0-96 0-16-32 0 0 16 0 44.2-25.7-51.4-4.4-8.8-9.9 0-8 0-16 0zM384 256l192 0 0 96-5.5 0c-13.2-37.3-48.7-64-90.5-64s-77.4 26.7-90.5 64l-5.5 0 0-96z"/><path class="fa-primary" d="M64 64l0 64 0 160 0 64 5.5 0c13.2-37.3 48.7-64 90.5-64s77.4 26.7 90.5 64L352 352l0-96 0-32 0-160L64 64zM32 352l0-64L0 288 0 128l32 0 0-64 0-32 32 0 288 0 32 0 0 32 0 32 72 0 9.1 0 4.7 7.8 72 120 .1 .2 34.1 0 32 0 0 32 0 96 16 0 16 0 0 32-16 0-16 0-32 0c0 53-43 96-96 96s-96-43-96-96l-32 0-96 0c0 53-43 96-96 96s-96-43-96-96l-32 0-16 0L0 384l0-32 16 0 16 0zM384 128l0 96 120.5 0-57.6-96L384 128zm0 128l0 96 5.5 0c13.2-37.3 48.7-64 90.5-64s77.4 26.7 90.5 64l5.5 0 0-96-192 0zM128 144l0 64c0 8.8 7.2 16 16 16s16-7.2 16-16l0-64 0-16 32 0 0 16 0 64c0 20.9-13.4 38.7-32 45.3l0 2.7-16 0c-26.5 0-48-21.5-48-48l0-64 0-16 32 0 0 16zm112-16l8 0 9.9 0 4.4 8.8L288 188.2l0-44.2 0-16 32 0 0 16 0 96 0 16-16 0-8 0-9.9 0-4.4-8.8L256 195.8l0 44.2 0 16-32 0 0-16 0-96 0-16 16 0zM224 384A64 64 0 1 0 96 384a64 64 0 1 0 128 0zm256 64a64 64 0 1 0 0-128 64 64 0 1 0 0 128z"/></svg>