<svg xmlns="http://www.w3.org/2000/svg" width="24" height="24" viewBox="0 0 448 512">
    <path class="pr-icon-duotone-secondary" d="M32 64l64 0 0 64-64 0 0-64zm0 320l64 0 0 64-64 0 0-64zM352 64l64 0 0 64-64 0 0-64zm0 320l64 0 0 64-64 0 0-64z"/>
    <path class="pr-icon-duotone-primary" d="M416 64l0 64-64 0 0-64 64 0zM352 32l-32 0 0 32 0 16L128 80l0-16 0-32L96 32 32 32 0 32 0 64l0 64 0 32 32 0 16 0 0 192-16 0L0 352l0 32 0 64 0 32 32 0 64 0 32 0 0-32 0-16 192 0 0 16 0 32 32 0 64 0 32 0 0-32 0-64 0-32-32 0-16 0 0-192 16 0 32 0 0-32 0-64 0-32-32 0-64 0zM80 352l0-192 16 0 32 0 0-32 0-16 192 0 0 16 0 32 32 0 16 0 0 192-16 0-32 0 0 32 0 16-192 0 0-16 0-32-32 0-16 0zM32 384l64 0 0 64-64 0 0-64zm320 0l64 0 0 64-64 0 0-64zM32 64l64 0 0 64-64 0 0-64z"/>
</svg>