<svg xmlns="http://www.w3.org/2000/svg" width="24" height="24" viewBox="0 0 24 24">
    <g fill="none" fill-rule="evenodd">
        <path fill="currentColor" d="M14.33 2.307a3 3 0 0 1 2.12 3.674l-1.035 3.864 1.358.363c1.654.444 2.51 2.12 2.278 3.656-.11.729-.154 1.446-.065 1.968.185 1.084.808 2.146 1.458 3.073l.354.492A1 1 0 0 1 20 21H5.5c-.32 0-.627-.158-.813-.418-.489-.684-.838-1.458-1.125-2.244-.5-1.364-.917-3.293-.548-5.502a11.633 11.633 0 0 1 1.428-3.994c.655-1.108 1.931-1.42 2.991-1.136l2.187.586 1.035-3.864a3 3 0 0 1 3.674-2.121ZM7.978 15a1 1 0 0 0-.993 1.007c.007 1.024.327 2.005.669 2.77l.102.223h2.277a8.944 8.944 0 0 1-.392-.699c-.31-.617-.583-1.348-.644-2.047l-.012-.261A1 1 0 0 0 7.979 15Zm4.608-10.054-1.294 4.83a1 1 0 0 1-1.225.706l-3.152-.844c-.383-.103-.646.043-.751.221a9.111 9.111 0 0 0-.703 1.494l11.51 3.053c.025-.293.061-.578.101-.842.105-.69-.297-1.284-.818-1.424l-2.323-.622a1 1 0 0 1-.707-1.225l1.294-4.83a1 1 0 0 0-1.932-.517"/>
    </g>
</svg>