<svg xmlns="http://www.w3.org/2000/svg" width="24" height="24" viewBox="0 0 24 24">
    <g fill="none" fill-rule="evenodd">
        <path fill="currentColor" d="M7 2h3c2.222 0 5.757 1.108 6.949 4.684.545 1.636.322 3.047.096 4.481-.02.12-.038.241-.057.362-.217 1.414-.43 3.078-.125 5.473H18a1 1 0 0 1 1 1v3a1 1 0 0 1-1 1H6a1 1 0 0 1-1-1v-3a1 1 0 0 1 1-1h1.106c.232-1.144.9-2.718 2.564-4.356.182-.18.29-.387.335-.592A25.191 25.191 0 0 1 6.7 13.79a1.484 1.484 0 0 1-1.64-.316l-1.477-1.477a1.5 1.5 0 0 1-.188-1.893l3.451-5.176-.74-1.48A1 1 0 0 1 7 2m2 7a1 1 0 1 0 0-2 1 1 0 0 0 0 2"/>
    </g>
</svg>