<svg xmlns="http://www.w3.org/2000/svg" width="24" height="24" viewBox="0 0 24 24">
    <g fill="none" fill-rule="evenodd">
        <path fill="currentColor" d="M11.25 1.701a1.5 1.5 0 0 1 1.5 0l2 1.155a1.5 1.5 0 0 1-1.25 2.713V6a1.5 1.5 0 0 1-3 0v-.43a1.5 1.5 0 0 1-1.25-2.714zM7.18 7.487a1.5 1.5 0 0 0-1.724-2.44l-2 1.154a1.5 1.5 0 0 0-.75 1.299v2.31a1.5 1.5 0 0 0 2.975.272A1.5 1.5 0 0 0 7.18 7.487m9.315-1.892a1.5 1.5 0 0 1 2.05-.549l2 1.155a1.5 1.5 0 0 1 .75 1.3v2.308a1.5 1.5 0 0 1-2.976.273 1.5 1.5 0 0 1-1.498-2.595 1.5 1.5 0 0 1-.326-1.892M8.536 10a1.5 1.5 0 0 1 2.05-.55l1.414.818 1.415-.817a1.5 1.5 0 1 1 1.5 2.598l-1.415.817V14.5a1.5 1.5 0 1 1-3 0v-1.634l-1.415-.817a1.5 1.5 0 0 1-.549-2.05Zm-2.855 3.916a1.5 1.5 0 0 0-2.975.275V16.5a1.5 1.5 0 0 0 .75 1.299l2 1.155a1.5 1.5 0 0 0 1.725-2.44l.373-.215a1.5 1.5 0 1 0-1.5-2.598zm14.113-1.225a1.5 1.5 0 0 1 1.5 1.5v2.31a1.5 1.5 0 0 1-.75 1.298l-2 1.155a1.5 1.5 0 0 1-1.725-2.44l-.373-.215a1.5 1.5 0 1 1 1.5-2.598l.373.215a1.5 1.5 0 0 1 1.475-1.225M12 17a1.5 1.5 0 0 1 1.499 1.431 1.5 1.5 0 0 1 1.251 2.713l-2 1.155a1.5 1.5 0 0 1-1.5 0l-2-1.155a1.5 1.5 0 0 1 1.252-2.713A1.5 1.5 0 0 1 12 17"/>
    </g>
</svg>