<svg xmlns="http://www.w3.org/2000/svg" width="24" height="24" viewBox="0 0 24 24">
    <g fill="none" fill-rule="evenodd">
        <path fill="currentColor" d="M12 2c5.523 0 10 4.477 10 10s-4.477 10-10 10S2 17.523 2 12 6.477 2 12 2Zm-1.707 14.293a1 1 0 0 0 0 1.414l1 1a1 1 0 0 0 1.414 0l1-1a1 1 0 0 0-1.414-1.414l-.293.293-.293-.293a1 1 0 0 0-1.414 0Zm-2.586-6a1 1 0 0 0-1.32-.083l-.094.083-1 1a1 1 0 0 0-.083 1.32l.083.094 1 1a1 1 0 0 0 1.497-1.32l-.083-.094L7.414 12l.293-.293a1 1 0 0 0 0-1.414Zm10 0a1 1 0 0 0-1.497 1.32l.083.094.293.293-.293.293a1 1 0 0 0 1.32 1.497l.094-.083 1-1a1 1 0 0 0 .083-1.32l-.083-.094-1-1Zm-5-5a1 1 0 0 0-1.32-.083l-.094.083-1 1a1 1 0 0 0 1.32 1.497l.094-.083.293-.293.293.293a1 1 0 0 0 1.497-1.32l-.083-.094-1-1Z"/>
    </g>
</svg>