<svg xmlns="http://www.w3.org/2000/svg" width="24" height="24" viewBox="0 0 24 24">
    <g fill="none" fill-rule="evenodd">
        <path fill="currentColor" fill-rule="nonzero" d="M14 3a2 2 0 0 1 2 2h3a2 2 0 0 1 2 2v2a2 2 0 0 1-1.51 1.94l2.43 5.666c.077.182.087.389.085.593L22 17.5a3.5 3.5 0 0 1-6.663 1.5H9.663a3.5 3.5 0 0 1-6.628-1H3a1 1 0 0 1-1-1V9a2 2 0 0 1 2-2h4a2 2 0 0 1 2 2v2a2 2 0 1 0 4 0V5h-2a1 1 0 1 1 0-2zM6.5 16a1.5 1.5 0 1 0 0 3 1.5 1.5 0 0 0 0-3m12 0a1.5 1.5 0 1 0 1.5 1.5c0-.796-.701-1.5-1.5-1.5M8 9H4v2h4zm11-2h-3v2h3z"/>
    </g>
</svg>