<svg xmlns="http://www.w3.org/2000/svg" width="24" height="24" viewBox="0 0 24 24">
    <g fill="none">
        <path fill="currentColor" d="M1.498 12.082c-.01-1.267 1.347-1.987 2.379-1.406l.113.07 2.678 1.804c1.424.96.538 3.145-1.099 2.915l-.138-.025-.108-.024a7.504 7.504 0 0 0 13.175.335 1.5 1.5 0 0 1 2.599 1.498c-2.317 4.019-7.119 6.152-11.815 4.893a10.502 10.502 0 0 1-7.784-10.06M12.53 6.5c1.323 0 2.463.677 3.25 1.66a1 1 0 0 1-1.56 1.25c-.487-.606-1.09-.91-1.69-.91-.945 0-1.993.845-2.377 2.29l-.05.21H13a1 1 0 0 1 .117 1.993L13 13h-2.898c.335 1.573 1.438 2.5 2.428 2.5.6 0 1.203-.304 1.69-.91a1 1 0 1 1 1.56 1.25c-.787.983-1.927 1.66-3.25 1.66-2.316 0-3.977-1.967-4.415-4.282L8.077 13H8a1 1 0 0 1-.117-1.993L8 11h.077c.372-2.408 2.065-4.5 4.453-4.5m-9.626.251C5.22 2.732 10.022.6 14.718 1.858a10.502 10.502 0 0 1 7.784 10.06c.01 1.267-1.347 1.987-2.379 1.407l-.113-.07-2.678-1.805c-1.424-.96-.538-3.145 1.099-2.914l.138.025.109.023A7.504 7.504 0 0 0 5.504 8.25a1.5 1.5 0 1 1-2.6-1.498"/>
    </g>
</svg>