<svg xmlns="http://www.w3.org/2000/svg" width="24" height="24" viewBox="0 0 24 24">
    <g fill="none" fill-rule="evenodd">
        <path fill="currentColor" d="M8 3.5c.95 0 1.79.613 2.081 1.517l4.347 13.524a1.5 1.5 0 0 1-2.856.918L10.299 15.5H5.701l-1.273 3.959a1.5 1.5 0 0 1-2.856-.918L5.919 5.017A2.186 2.186 0 0 1 7.999 3.5ZM20.5 12a1.5 1.5 0 0 1 1.5 1.5v5a1.5 1.5 0 0 1-2.427 1.179 4 4 0 1 1 0-7.358c.255-.201.577-.321.927-.321M18 15a1 1 0 1 0 0 2 1 1 0 0 0 0-2M8 8.346 6.665 12.5h2.67z"/>
    </g>
</svg>