<svg xmlns="http://www.w3.org/2000/svg" width="24" height="24" viewBox="0 0 24 24">
    <g fill="none">
        <path fill="currentColor" d="M6.57 5.563a1.2 1.2 0 0 0 0 1.874l4.48 3.584c.786.628 1.95.07 1.95-.937V7.083a6.007 6.007 0 0 1 4.811 4.417H17a1.5 1.5 0 0 0 0 3h.811a6.01 6.01 0 0 1-4.311 4.311V18a1.5 1.5 0 0 0-3 0v.811A6.01 6.01 0 0 1 6.189 14.5H7a1.5 1.5 0 0 0 0-3h-.811c.008-.034.017-.067.027-.1a1.5 1.5 0 0 0-2.892-.8A9 9 0 1 0 13 4.055V2.917c0-1.006-1.164-1.565-1.95-.937z"/>
    </g>
</svg>