<svg xmlns="http://www.w3.org/2000/svg" width="24" height="24" viewBox="0 0 24 24">
    <g fill="none" fill-rule="evenodd">
        <path fill="currentColor" d="M7.773 5.54c-.495.155-.835.319-1.04.46.205.141.545.305 1.04.46C8.81 6.784 10.305 7 12 7c1.695 0 3.19-.216 4.227-.54.495-.155.835-.319 1.04-.46-.204-.141-.545-.305-1.04-.46C15.19 5.216 13.695 5 12 5c-1.695 0-3.19.216-4.227.54M12 3c-1.84 0-3.545.232-4.824.631-.633.198-1.219.455-1.667.786l-.176.13A9.978 9.978 0 0 0 2 12c0 5.523 4.477 10 10 10s10-4.477 10-10a9.977 9.977 0 0 0-3.32-7.442l-.189-.14c-.448-.332-1.034-.589-1.667-.787C15.545 3.231 13.84 3 12 3"/>
    </g>
</svg>