<svg xmlns="http://www.w3.org/2000/svg" width="24" height="24" viewBox="0 0 24 24">
    <g fill="none" fill-rule="evenodd">
        <path fill="currentColor" d="M5.75 3.948a2.5 2.5 0 0 1 2.555.19l.146.111 4.525 3.702.27-.171.565-.372.94-.628.348-.228c1.215-.792 2.65-1.641 4.403-2.212.274-.09.576-.167.893-.236l.323-.066.565 2.947c-.36.069-.644.14-.852.207-1.381.45-2.558 1.133-3.695 1.873l-.407.27-.843.564c-.714.475-1.453.947-2.175 1.3-.7.342-1.576.563-2.378.74l-.639.134-1.268.258c-.208.043-.413.087-.615.132-.826.187-1.52.383-2.046.622-.25.113-.418.216-.53.3l-.11.093a.683.683 0 0 0-.065.072l-.032.048c-.246.48-.12 1.55.436 1.808.093.043.22.077.375.09l.121.004h3.277a3.5 3.5 0 0 1 6.237-.174l.09.174H21v3h-4.837a3.5 3.5 0 0 1-6.237.175l-.09-.175H6.56c-1.108 0-2.482-.423-3.249-1.692l-.133-.231a6.338 6.338 0 0 1-.067-.127l-.133-.271c-.456-.995-.792-2.44-.02-3.947.489-.957 1.379-1.522 2.169-1.88.813-.368 1.75-.618 2.623-.815l.644-.14 1.292-.261-2.884-2.36-1.131.566a1.5 1.5 0 0 1-1.468-2.613l.126-.07zM13 16.5a.5.5 0 1 0 0 1 .5.5 0 0 0 0-1"/>
    </g>
</svg>