<svg xmlns="http://www.w3.org/2000/svg" width="24" height="24" viewBox="0 0 24 24">
    <g fill="none" fill-rule="evenodd">
        <path fill="currentColor" fill-rule="nonzero" d="M18 3a3 3 0 0 1 3 3v12a3 3 0 0 1-3 3H6a3 3 0 0 1-3-3V6a3 3 0 0 1 3-3zm-2.707 13.708A2.99 2.99 0 0 1 14 17H5v1a1 1 0 0 0 1 1h11.586zM18 5h-1v9c0 .463-.105.902-.292 1.293L19 17.586V6a1 1 0 0 0-1-1M9 7a1 1 0 0 0-1 1v4a1 1 0 1 0 2 0v-.132l1.445.964a1 1 0 0 0 1.11-1.664l-1.377-.918 1.377-.918a1 1 0 0 0-1.11-1.664L10 8.63V8a1 1 0 0 0-1-1"/>
    </g>
</svg>