<svg xmlns="http://www.w3.org/2000/svg" width="24" height="24" viewBox="0 0 24 24">
    <g fill="none" fill-rule="evenodd">
        <path fill="currentColor" d="M8 21V9c0-2.205.687-4.12 1.436-5.482a9.25 9.25 0 0 1 1.136-1.65C10.939 1.454 11.408 1 12 1c.589 0 1.062.455 1.428.868.36.406.76.969 1.136 1.65C15.313 4.88 16 6.795 16 9v12a1 1 0 1 1 0 2H8a1 1 0 1 1 0-2m2-4.793a.5.5 0 0 0 .146.354l3.647 3.646c.082.082.207.014.207-.103v-2.311a.5.5 0 0 0-.146-.354l-2.086-2.085a.5.5 0 0 1 0-.707l2.086-2.086a.5.5 0 0 0 .146-.354V9.793a.5.5 0 0 0-.146-.354L11.06 6.646c-.262-.262-.707-.156-.795.204-.106.43-.186.885-.229 1.357a.485.485 0 0 0 .143.386l2.053 2.053a.5.5 0 0 1 0 .708l-2.086 2.085a.5.5 0 0 0-.146.354z"/>
    </g>
</svg>