<svg xmlns="http://www.w3.org/2000/svg" width="24" height="24" viewBox="0 0 24 24">
    <g fill="none">
        <path fill="currentColor" d="m7.06 2.94 2.122 2.12A1.5 1.5 0 0 1 7.5 7.488v9.026a1.5 1.5 0 0 1 1.682 2.426l-2.121 2.122a1.5 1.5 0 0 1-2.122 0L2.818 18.94A1.5 1.5 0 0 1 4.5 16.513V7.487a1.5 1.5 0 0 1-1.682-2.426l2.121-2.122a1.5 1.5 0 0 1 2.122 0ZM20 17.5a1.5 1.5 0 0 1 .144 2.993L20 20.5h-8a1.5 1.5 0 0 1-.144-2.993L12 17.5zm0-7a1.5 1.5 0 0 1 .144 2.993L20 13.5h-8a1.5 1.5 0 0 1-.144-2.993L12 10.5zm0-7a1.5 1.5 0 0 1 0 3h-8a1.5 1.5 0 0 1 0-3z"/>
    </g>
</svg>