<svg xmlns="http://www.w3.org/2000/svg" width="24" height="24" viewBox="0 0 24 24">
    <g fill="none" fill-rule="evenodd">
        <path fill="currentColor" d="M8.843 4.687A2.099 2.099 0 0 1 12 3.31a2.099 2.099 0 0 1 3.157 1.377l1.451 7.255a2 2 0 0 0 1.476 1.548l1.696.424a1.5 1.5 0 0 1 1.107 1.75l-.694 3.469a2 2 0 0 1-2.51 1.53l-3.057-.873A4.993 4.993 0 0 1 12 17.983a4.994 4.994 0 0 1-2.626 1.807l-3.057.874a2 2 0 0 1-2.51-1.531l-.694-3.47a1.5 1.5 0 0 1 1.107-1.749l1.696-.424a2 2 0 0 0 1.476-1.548zm-2.65 10.795-1.025.257.6 3.002 1.081-.31zm11.613 0-.655 2.95 1.081.309.6-3.002z"/>
    </g>
</svg>