<svg xmlns="http://www.w3.org/2000/svg" width="24" height="24" viewBox="0 0 24 24">
    <g fill="none">
        <path fill="currentColor" d="M12 2a6.285 6.285 0 0 0-6.276 5.937l-.146 2.63a28.04 28.04 0 0 0-.615 1.41c-1.24 3.073-1.728 5.773-1.088 6.032.335.135.913-.426 1.566-1.432a6.672 6.672 0 0 0 1.968 3.593c-1.027.35-1.91.828-1.91 1.33 0 .509 2.48.503 4.239.5h.001c.549-.002 1.01-.008 1.38-.057a6.742 6.742 0 0 0 1.76 0c.37.05.833.055 1.382.056 1.76.004 4.239.01 4.239-.499 0-.502-.883-.979-1.909-1.33a6.672 6.672 0 0 0 1.967-3.586c.65 1.002 1.227 1.56 1.56 1.425.64-.259.154-2.96-1.088-6.032a28.08 28.08 0 0 0-.607-1.395l-.147-2.645A6.285 6.285 0 0 0 12 2"/>
    </g>
</svg>