<svg xmlns="http://www.w3.org/2000/svg" width="24" height="24" viewBox="0 0 24 24">
    <g fill="none" fill-rule="evenodd">
        <path fill="currentColor" d="M19.264 3.364a1 1 0 0 1 1.221.15l.008.008a1 1 0 0 1 .148 1.225l-1.068 1.761a1 1 0 0 1-1.114.447l-3.63 3.63.414.415c.951.951.925 2.489-.01 3.423a2.382 2.382 0 0 1-1.679.698.37.37 0 0 0-.33.205l-.891 1.78a3 3 0 0 1-.562.78l-3.306 3.306a3 3 0 0 1-4.243 0l-1.414-1.414a3 3 0 0 1 0-4.243l3.306-3.306a3 3 0 0 1 .78-.562l1.78-.89a.37.37 0 0 0 .205-.331c0-.633.256-1.238.698-1.68.934-.934 2.472-.96 3.423-.009l.414.414 3.63-3.63a1 1 0 0 1 .452-1.116zM9.172 14.828a1 1 0 0 1 0 1.414L7.05 18.364a1 1 0 0 1-1.415-1.415l2.122-2.12a1 1 0 0 1 1.414 0"/>
    </g>
</svg>