<svg xmlns="http://www.w3.org/2000/svg" width="24" height="24" viewBox="0 0 24 24">
    <g fill="none" fill-rule="evenodd">
        <path fill="currentColor" d="M7.493 2.138a1 1 0 0 1 1.213.154 7.4 7.4 0 0 0 1.099.876C10.505 3.635 11.3 4 12 4c.7 0 1.495-.365 2.195-.832a8.35 8.35 0 0 0 1.086-.864c.328-.32.825-.402 1.226-.166a1 1 0 0 1 .454 1.137l-1.814 6.35c.65.572 1.191 1.293 1.638 2.043 1.051 1.765 1.735 3.8 2.101 5.818.109.598.295 1.388.008 1.961-.462.924-1.903 1.009-2.798 1.11-1.158.13-2.636.193-4.096.193s-2.938-.063-4.096-.194c-.9-.101-2.325-.162-2.798-1.109-.293-.585-.102-1.358.008-1.961.365-2.017 1.05-4.053 2.101-5.818.447-.75.988-1.47 1.638-2.043l-1.815-6.35a1 1 0 0 1 .455-1.137m3.163 6.519A5.7 5.7 0 0 1 12 8.5a5.7 5.7 0 0 1 1.344.157l.922-3.229C13.6 5.748 12.819 6 12 6c-.82 0-1.6-.252-2.266-.572z"/>
    </g>
</svg>