<svg xmlns="http://www.w3.org/2000/svg" width="24" height="24" viewBox="0 0 24 24">
    <g fill="none" fill-rule="evenodd">
        <path fill="currentColor" d="M19.778 4.222c.537.536.514 1.463.482 2.165-.038.834-.198 1.899-.513 3.069-.629 2.335-1.907 5.189-4.211 7.494-2.582 2.582-5.693 4.086-8.16 4.677a1.95 1.95 0 0 1-1.833-.528l-2.642-2.642a1.95 1.95 0 0 1-.529-1.832c.592-2.468 2.096-5.578 4.678-8.16 2.305-2.306 5.16-3.583 7.494-4.212 1.17-.316 2.235-.475 3.07-.513.701-.032 1.628-.055 2.164.482"/>
    </g>
</svg>