<svg xmlns="http://www.w3.org/2000/svg" width="24" height="24" viewBox="0 0 24 24">
    <g fill="none">
        <path fill="currentColor" d="M7.25 16.582c.327.678.937 1.201 1.582 1.56.99.55 2.288.858 3.668.858.693 0 1.365-.078 1.988-.225-.271.3-.61.526-.92.68C12.86 19.81 11.95 20 11 20s-1.86-.19-2.569-.545C7.782 19.131 7 18.497 7 17.5c0-.35.096-.655.25-.918m10.718-2.483c.02.13.032.263.032.401 0 1.218-.877 2.111-1.832 2.642-.99.55-2.288.858-3.668.858-1.38 0-2.679-.309-3.668-.858-.733-.408-1.42-1.029-1.7-1.847 1.237.451 2.756.705 4.368.705 1.906 0 3.68-.354 5.015-.97a5.82 5.82 0 0 0 1.453-.931m-13.946-3.43c.51.491 1.177.897 1.92 1.222C7.544 12.591 9.686 13 12 13c2.314 0 4.456-.408 6.058-1.109.318-.14.621-.293.905-.462-.214 1.223-1.325 2.082-2.448 2.6-1.335.617-3.109.971-5.015.971-1.906 0-3.68-.354-5.015-.97C5.235 13.451 4 12.453 4 11c0-.113.007-.223.022-.33ZM12 3c2.314 0 4.456.408 6.058 1.109.799.35 1.509.792 2.032 1.334.529.546.91 1.243.91 2.057 0 .814-.381 1.51-.91 2.057-.523.542-1.233.984-2.032 1.334C16.456 11.591 14.314 12 12 12c-2.314 0-4.456-.408-6.058-1.109-.799-.35-1.509-.792-2.032-1.334C3.38 9.011 3 8.314 3 7.5c0-.814.381-1.51.91-2.057.523-.542 1.233-.984 2.032-1.334C7.544 3.409 9.686 3 12 3"/>
    </g>
</svg>