<svg xmlns="http://www.w3.org/2000/svg" width="24" height="24" viewBox="0 0 24 24">
    <g fill="none">
        <path fill="currentColor" d="M17 10.5a1.5 1.5 0 0 1 1.493 1.356L18.5 12v.5h1a2 2 0 0 1 1.995 1.85l.005.15v3a2 2 0 0 1-1.85 1.995l-.15.005h-1v.5a1.5 1.5 0 0 1-2.993.144L15.5 20v-.5h-1a2 2 0 0 1-1.995-1.85l-.005-.15v-3a2 2 0 0 1 1.85-1.995l.15-.005h1V12a1.5 1.5 0 0 1 1.5-1.5m-12 4A1.5 1.5 0 0 1 6.5 16v1a.5.5 0 0 0 .5.5h3a1.5 1.5 0 0 1 0 3H7A3.5 3.5 0 0 1 3.5 17v-1A1.5 1.5 0 0 1 5 14.5m10.5.5h-1v2h1zm4 0h-1v2h1zM9.5 2.5a1.5 1.5 0 0 1 0 3h-4v1H9a1.5 1.5 0 1 1 0 3H5.5v1H10a1.5 1.5 0 0 1 0 3H4.1a1.6 1.6 0 0 1-1.6-1.6V4.1a1.6 1.6 0 0 1 1.6-1.6zm7.5 1A3.5 3.5 0 0 1 20.5 7v2a1.5 1.5 0 0 1-3 0V7a.5.5 0 0 0-.5-.5h-3a1.5 1.5 0 0 1 0-3z"/>
    </g>
</svg>