<svg xmlns="http://www.w3.org/2000/svg" width="24" height="24" viewBox="0 0 24 24">
    <g fill="none">
        <path fill="currentColor" d="M11.117 9.473a1.25 1.25 0 0 1 1.665-.09l.101.09 2.824 2.82a1 1 0 0 1-1.32 1.498l-.094-.083L13 12.416V21a1 1 0 0 1-1.993.117L11 21v-8.584l-1.293 1.292a1 1 0 0 1-1.497-1.321l.083-.095zM11.5 2c2.784 0 5.16 1.75 6.086 4.212a6 6 0 0 1-1.36 11.784L16 18h-1v-2a3 3 0 0 0 2.255-4.979l-.135-.144-2.824-2.819a3.25 3.25 0 0 0-4.448-.135l-.144.135-2.824 2.82a3 3 0 0 0 1.91 5.115L9 16v2H7a5 5 0 0 1-2-9.584A6.5 6.5 0 0 1 11.5 2"/>
    </g>
</svg>