<svg xmlns="http://www.w3.org/2000/svg" width="24" height="24" viewBox="0 0 24 24">
    <path d="M12.749,20.947a.75.75,0,0,1-.706.792c-.185.011-.358.011-.543.011A10.25,10.25,0,1,1,21.75,11.5c0,.185,0,.358-.011.543a.74.74,0,0,1-.792.706.75.75,0,0,1-.7-.792c.008-.155.008-.3.008-.457a8.75,8.75,0,1,0-8.75,8.75c.156,0,.3,0,.457-.008A.738.738,0,0,1,12.749,20.947ZM16.53,9.17a.749.749,0,0,0-1.06,0l-2.514,2.514a.152.152,0,0,1-.213,0l-1.43-1.427a1.653,1.653,0,0,0-2.332,0L6.47,12.77a.75.75,0,1,0,1.06,1.06l2.511-2.511a.151.151,0,0,1,.213,0l1.43,1.427a1.653,1.653,0,0,0,2.332,0L16.53,10.23A.749.749,0,0,0,16.53,9.17Zm6.14,9.33c-.526,2.663-3.728,4.124-3.864,4.185a.753.753,0,0,1-.612,0c-.136-.061-3.339-1.522-3.864-4.185a3.393,3.393,0,0,1,.581-2.823,2.551,2.551,0,0,1,2.038-.927,2.074,2.074,0,0,1,1.551.588,2.079,2.079,0,0,1,1.55-.588,2.553,2.553,0,0,1,2.039.926A3.4,3.4,0,0,1,22.67,18.5Zm-1.741-1.874a1.078,1.078,0,0,0-.886-.376h0a.946.946,0,0,0-.831.642.756.756,0,0,1-.716.5.748.748,0,0,1-.7-.505.948.948,0,0,0-.83-.633h0a1.076,1.076,0,0,0-.884.376,1.946,1.946,0,0,0-.27,1.583c.3,1.5,1.992,2.567,2.7,2.95.706-.383,2.4-1.446,2.7-2.95A1.948,1.948,0,0,0,20.929,16.626Z"/>
</svg>