<svg xmlns="http://www.w3.org/2000/svg" width="24" height="24" viewBox="0 0 24 24">
    <path d="M20.75,12A8.75,8.75,0,1,0,6.864,19.069l-1.395,1.4a.75.75,0,1,0,1.062,1.058l1.657-1.665a8.644,8.644,0,0,0,7.624,0l1.657,1.665a.75.75,0,1,0,1.062-1.058l-1.395-1.4A8.736,8.736,0,0,0,20.75,12Zm-16,0A7.25,7.25,0,1,1,12,19.25,7.258,7.258,0,0,1,4.75,12ZM21.536,5.525a.751.751,0,0,1-1.061.011l-2-1.96A.75.75,0,0,1,19.525,2.5l2,1.96A.752.752,0,0,1,21.536,5.525ZM3.53,5.53A.75.75,0,0,1,2.47,4.47l2-2A.75.75,0,0,1,5.53,3.53Z"/>
</svg>