<svg xmlns="http://www.w3.org/2000/svg" width="24" height="24" viewBox="0 0 24 24">
    <path d="M17.625,2.25H6.375c-2.66,0-4.125,1.465-4.125,4.125v11.25c0,2.66,1.465,4.125,4.125,4.125h11.25c2.66,0,4.125-1.465,4.125-4.125V6.375C21.75,3.715,20.285,2.25,17.625,2.25ZM20.25,17.625c0,1.84-.785,2.625-2.625,2.625H6.375c-1.84,0-2.625-.785-2.625-2.625V6.375c0-1.84.785-2.625,2.625-2.625h11.25c1.84,0,2.625.785,2.625,2.625ZM15.53,12.47a.75.75,0,1,1-1.06,1.06L12,11.061,9.53,13.53a.75.75,0,0,1-1.06-1.06l3-3a.749.749,0,0,1,1.06,0Z"/>
</svg>