<svg xmlns="http://www.w3.org/2000/svg" width="24" height="24" viewBox="0 0 24 24">
    <path d="m19.321,15.027c-1.985-.942-2.04-2.65-2.031-2.983,0-.007,0-.025,0-.032v-.004c-.007-1.2.513-2.078,1.635-2.765.176-.107.3-.283.343-.485.042-.202,0-.413-.118-.582-.879-1.266-2.202-1.977-3.933-2.112-.173-.013-.344.003-.516.012.058-.062.12-.108.177-.175l.003-.004c1.286-1.525,1.177-2.968,1.14-3.454-.032-.408-.39-.717-.791-.692-1.149.066-2.457.734-3.248,1.654-.838.949-1.241,2.059-1.209,3.22-.643-.234-1.441-.523-2.198-.523-2.646.043-5.325,2.153-5.325,6.103,0,1.13.207,2.31.615,3.508.5,1.447,2.471,5.537,4.929,5.537.023,0,.046,0,.069,0,.591-.014,1.07-.198,1.534-.375.463-.177.9-.344,1.469-.344.513,0,.9.151,1.349.325.475.185,1.013.394,1.707.394,2.51-.036,4.309-3.845,4.791-5.31.117-.359-.05-.75-.392-.912Zm-6.208-10.636c.339-.393.854-.738,1.373-.943-.084.419-.286.93-.749,1.48-.341.398-.832.843-1.433,1.03.104-.551.375-1.075.809-1.567Zm1.798,15.358c-.402,0-.733-.129-1.152-.292-.515-.2-1.099-.427-1.893-.427-.845,0-1.488.246-2.005.443-.376.144-.701.268-1.039.276-.009,0-.017,0-.025,0-1.19,0-2.872-2.669-3.513-4.524-.354-1.039-.534-2.055-.534-3.021,0-3.12,1.995-4.573,3.837-4.603.484,0,1.121.232,1.683.437.545.198.975.355,1.362.355.342,0,.709-.137,1.218-.327.675-.252,1.514-.567,2.25-.507.978.077,1.747.376,2.331.912-1.094.91-1.645,2.095-1.64,3.534-.013.462.054,2.658,2.281,4.047-.682,1.667-2.027,3.68-3.161,3.697Z"/>
</svg>