<svg xmlns="http://www.w3.org/2000/svg" width="24" height="24" viewBox="0 0 24 24">
    <path d="M19.5,2.25H4.5A2.067,2.067,0,0,0,2.25,4.5V8A.75.75,0,0,0,3,8.75h.25V18A3.383,3.383,0,0,0,7,21.75H17A3.383,3.383,0,0,0,20.75,18V8.75H21A.75.75,0,0,0,21.75,8V4.5A2.067,2.067,0,0,0,19.5,2.25ZM3.75,4.5c0-.589.161-.75.75-.75h15c.589,0,.75.161.75.75V7.25H3.75ZM19.25,18c0,1.577-.673,2.25-2.25,2.25H7c-1.577,0-2.25-.673-2.25-2.25V8.75h14.5Zm-10-6a.75.75,0,0,1,.75-.75h4a.75.75,0,0,1,0,1.5H10A.75.75,0,0,1,9.25,12Z"/>
</svg>