<svg xmlns="http://www.w3.org/2000/svg" width="24" height="24" viewBox="0 0 24 24">
    <path d="M17.25,12v1.5A2.253,2.253,0,0,1,15,15.75H9.311l.219.22a.75.75,0,1,1-1.06,1.06l-1.5-1.5a.751.751,0,0,1,0-1.06l1.5-1.5a.75.75,0,0,1,1.06,1.06l-.219.22H15a.751.751,0,0,0,.75-.75V12a.75.75,0,0,1,1.5,0Zm-.22-3.53-1.5-1.5a.75.75,0,0,0-1.06,1.06l.219.22H9A2.253,2.253,0,0,0,6.75,10.5V12a.75.75,0,0,0,1.5,0V10.5A.751.751,0,0,1,9,9.75h5.689l-.219.22a.75.75,0,1,0,1.06,1.06l1.5-1.5a.751.751,0,0,0,0-1.06ZM22.75,12A10.75,10.75,0,1,1,12,1.25,10.762,10.762,0,0,1,22.75,12Zm-1.5,0A9.25,9.25,0,1,0,12,21.25,9.26,9.26,0,0,0,21.25,12Z"/>
</svg>