<svg xmlns="http://www.w3.org/2000/svg" width="24" height="24" viewBox="0 0 24 24">
    <path d="M19.477,12a17.227,17.227,0,0,0,1.592-3.022c1-2.532.895-4.577-.288-5.759s-3.226-1.285-5.759-.289A17.3,17.3,0,0,0,12,4.523,17.3,17.3,0,0,0,8.978,2.93c-2.529-1-4.575-.895-5.759.289S1.934,6.446,2.931,8.978A17.227,17.227,0,0,0,4.523,12a17.227,17.227,0,0,0-1.592,3.022c-1,2.532-.895,4.577.288,5.76a3.6,3.6,0,0,0,2.639.968,8.7,8.7,0,0,0,3.12-.68A17.3,17.3,0,0,0,12,19.477a17.3,17.3,0,0,0,3.022,1.593,8.7,8.7,0,0,0,3.12.68,3.6,3.6,0,0,0,2.639-.968c1.183-1.183,1.285-3.228.288-5.76A17.227,17.227,0,0,0,19.477,12ZM15.572,4.326a7.236,7.236,0,0,1,2.566-.577,2.173,2.173,0,0,1,1.583.53c.723.724.707,2.236-.047,4.149a15.159,15.159,0,0,1-1.129,2.238,26.8,26.8,0,0,0-2.427-2.785,26.665,26.665,0,0,0-2.784-2.426A15.159,15.159,0,0,1,15.572,4.326ZM8.942,8.942A24.9,24.9,0,0,1,12,6.336a24.9,24.9,0,0,1,3.058,2.606A24.9,24.9,0,0,1,17.664,12a24.9,24.9,0,0,1-2.606,3.058A24.9,24.9,0,0,1,12,17.664a24.9,24.9,0,0,1-3.058-2.606A24.9,24.9,0,0,1,6.336,12,24.9,24.9,0,0,1,8.942,8.942ZM4.326,8.428C3.572,6.515,3.556,5,4.279,4.279a2.174,2.174,0,0,1,1.583-.53,7.236,7.236,0,0,1,2.566.577,15.159,15.159,0,0,1,2.238,1.129,26.944,26.944,0,0,0-5.211,5.211A15.159,15.159,0,0,1,4.326,8.428Zm4.1,11.246c-1.912.753-3.425.771-4.149.047s-.707-2.236.047-4.149a15.159,15.159,0,0,1,1.129-2.238,26.8,26.8,0,0,0,2.427,2.785,26.783,26.783,0,0,0,2.784,2.426A15.159,15.159,0,0,1,8.428,19.674Zm11.293.047c-.724.724-2.236.707-4.149-.047a15.159,15.159,0,0,1-2.238-1.129,26.783,26.783,0,0,0,2.784-2.426,26.8,26.8,0,0,0,2.427-2.785,15.159,15.159,0,0,1,1.129,2.238C20.428,17.485,20.444,19,19.721,19.721ZM10.765,12a1.246,1.246,0,0,1,1.245-1.25h.01A1.25,1.25,0,1,1,10.765,12Z"/>
</svg>