<svg xmlns="http://www.w3.org/2000/svg" width="24" height="24" viewBox="0 0 24 24">
    <path d="M18.9,7.438l-.319-.318a.336.336,0,0,1-.1-.236V6.436a2.917,2.917,0,0,0-2.915-2.915h-.448a.336.336,0,0,1-.236-.1L14.562,3.1a2.919,2.919,0,0,0-4.124,0l-.318.319a.336.336,0,0,1-.236.1H9.436A2.917,2.917,0,0,0,6.521,6.436v.448a.332.332,0,0,1-.1.235l-.319.32a2.92,2.92,0,0,0,0,4.123l.319.318a.336.336,0,0,1,.1.236v.448a2.916,2.916,0,0,0,1.833,2.7L6.778,20.794a.751.751,0,0,0,1,.9l2.768-1.109a5.248,5.248,0,0,1,3.9,0l2.77,1.11a.756.756,0,0,0,.279.054.751.751,0,0,0,.722-.956l-1.576-5.528a2.916,2.916,0,0,0,1.833-2.7v-.448a.332.332,0,0,1,.1-.235l.319-.319h0A2.92,2.92,0,0,0,18.9,7.438ZM15.008,19.193a6.753,6.753,0,0,0-5.018,0l-1.349.541,1.213-4.256h.03a.336.336,0,0,1,.236.1l.318.319a2.919,2.919,0,0,0,4.124,0l.318-.319a.336.336,0,0,1,.236-.1h.03l1.213,4.256ZM17.836,10.5l-.319.319a1.817,1.817,0,0,0-.538,1.3v.448a1.416,1.416,0,0,1-1.415,1.415h-.448a1.844,1.844,0,0,0-1.3.538l-.318.318a1.451,1.451,0,0,1-2,0l-.318-.319a1.844,1.844,0,0,0-1.3-.538H9.436a1.416,1.416,0,0,1-1.415-1.415v-.448a1.822,1.822,0,0,0-.538-1.3L7.164,10.5a1.418,1.418,0,0,1,0-2l.319-.32a1.817,1.817,0,0,0,.538-1.3V6.436A1.416,1.416,0,0,1,9.436,5.021h.448a1.844,1.844,0,0,0,1.3-.538l.318-.318a1.451,1.451,0,0,1,2,0l.318.319a1.844,1.844,0,0,0,1.3.538h.448a1.416,1.416,0,0,1,1.415,1.415v.448a1.822,1.822,0,0,0,.538,1.3l.319.318A1.419,1.419,0,0,1,17.836,10.5ZM15.321,7.827l-1.278-.185-.551-1.11a1.108,1.108,0,0,0-1.984,0l-.551,1.11-1.278.185a1.083,1.083,0,0,0-.6,1.849l.923.895-.21,1.215a1.108,1.108,0,0,0,1.605,1.17l1.1-.578,1.1.579a1.107,1.107,0,0,0,1.6-1.168L15,10.571l.924-.9a1.083,1.083,0,0,0-.6-1.848ZM13.8,9.647a1.083,1.083,0,0,0-.315.962l.113.649L13,10.948a1.074,1.074,0,0,0-.5-.122,1.094,1.094,0,0,0-.5.123l-.592.309.113-.65a1.081,1.081,0,0,0-.314-.96l-.472-.458.655-.094A1.084,1.084,0,0,0,12.2,8.5l.3-.6.3.595a1.079,1.079,0,0,0,.816.592l.656.095Z"/>
</svg>