<svg xmlns="http://www.w3.org/2000/svg" width="24" height="24" viewBox="0 0 24 24">
    <path d="M12,21.75a2.731,2.731,0,0,1-2.378-1.372.75.75,0,0,1,1.3-.756,1.287,1.287,0,0,0,2.164,0,.75.75,0,1,1,1.3.756A2.731,2.731,0,0,1,12,21.75Zm8.675-3.425a.751.751,0,0,0-.089-.793A9.219,9.219,0,0,1,18.745,12.5V8.995a6.745,6.745,0,0,0-13.49,0V12.5a9.219,9.219,0,0,1-1.841,5.032A.751.751,0,0,0,4,18.75H20A.75.75,0,0,0,20.675,18.325ZM6.755,12.5V8.995a5.245,5.245,0,0,1,10.49,0V12.5a9.908,9.908,0,0,0,1.368,4.75H5.387A9.908,9.908,0,0,0,6.755,12.5Zm8-1.5a.75.75,0,0,0-.75-.75H10a.75.75,0,0,0,0,1.5h4A.75.75,0,0,0,14.75,11Z"/>
</svg>