<svg xmlns="http://www.w3.org/2000/svg" width="24" height="24" viewBox="0 0 24 24">
    <path d="M14.378,20.378a2.747,2.747,0,0,1-4.756,0,.75.75,0,0,1,1.3-.756,1.287,1.287,0,0,0,2.164,0,.75.75,0,0,1,1.3.756ZM18.75,12.5V10a.75.75,0,0,0-1.5,0v2.5a9.917,9.917,0,0,0,1.365,4.75H10a.75.75,0,0,0,0,1.5H20a.75.75,0,0,0,.585-1.219A9.164,9.164,0,0,1,18.75,12.5Zm2.78-8.97-15,15h0l-3,3a.75.75,0,0,1-1.06-1.06l1.719-1.72H4a.751.751,0,0,1-.586-1.218A9.241,9.241,0,0,0,5.25,12.5V9A6.747,6.747,0,0,1,17.641,5.3L20.47,2.47a.75.75,0,0,1,1.06,1.06ZM16.545,6.4A5.242,5.242,0,0,0,6.75,9v3.5a9.917,9.917,0,0,1-1.365,4.75h.3Z"/>
</svg>