<svg xmlns="http://www.w3.org/2000/svg" width="24" height="24" viewBox="0 0 24 24">
    <path d="M21.036,4.182h0A9.529,9.529,0,0,0,18.8,3.466a.722.722,0,0,0-.2-.046,10.643,10.643,0,0,0-3.173-.082A4.749,4.749,0,0,0,12,5.512,4.749,4.749,0,0,0,8.575,3.338a10.043,10.043,0,0,0-5.609.843h0A1.265,1.265,0,0,0,2.25,5.32V18.326a1.232,1.232,0,0,0,.493.991,1.274,1.274,0,0,0,1.108.206,8.741,8.741,0,0,1,7.733,1.1c.01.007.022.009.032.015s.019.016.03.022.025,0,.036.009a.672.672,0,0,0,.636,0c.011-.005.025,0,.036-.009s.019-.015.03-.022.022-.008.032-.015a8.744,8.744,0,0,1,7.733-1.1,1.271,1.271,0,0,0,1.108-.2,1.232,1.232,0,0,0,.493-.991V5.32A1.265,1.265,0,0,0,21.036,4.182ZM17.75,4.8v3.91l-.377-.217a.752.752,0,0,0-.746,0l-.377.217V4.787c.2-.012.4-.038.593-.038A8.726,8.726,0,0,1,17.75,4.8ZM6.733,17.593A11.816,11.816,0,0,0,3.75,18V5.471a8.454,8.454,0,0,1,4.642-.644A3.26,3.26,0,0,1,11.25,8.06V18.69A9.788,9.788,0,0,0,6.733,17.593ZM20.25,18a10.22,10.22,0,0,0-7.5.694V8.06a3.252,3.252,0,0,1,2-2.991V10a.75.75,0,0,0,1.123.651L17,10l1.127.647A.75.75,0,0,0,19.25,10V5.1a8,8,0,0,1,1,.367Z"/>
</svg>