<svg xmlns="http://www.w3.org/2000/svg" width="24" height="24" viewBox="0 0 24 24">
    <path d="M17.43,1.25H10.57A3.022,3.022,0,0,0,7.25,4.57v.68H6.571A3,3,0,0,0,3.25,8.571V22a.75.75,0,0,0,1.122.651L10,19.435l5.628,3.216A.751.751,0,0,0,16.75,22V17l2.877,1.647A.75.75,0,0,0,20.75,18V4.57A3.022,3.022,0,0,0,17.43,1.25ZM15.25,20.707,10.372,17.92a.748.748,0,0,0-.744,0L4.75,20.708V8.571c0-1.293.527-1.821,1.821-1.821h6.858c1.294,0,1.821.528,1.821,1.821Zm4-4-2.5-1.432v-6.7A3,3,0,0,0,13.429,5.25H8.75V4.57c0-1.293.527-1.82,1.82-1.82h6.86c1.293,0,1.82.527,1.82,1.82Zm-6.2-5.957-1.417-.206-.61-1.231h0a1.139,1.139,0,0,0-2.04,0l-.61,1.231-1.417.206a1.11,1.11,0,0,0-.615,1.9l1.022.993-.232,1.349a1.137,1.137,0,0,0,1.648,1.2L10,15.548l1.225.641a1.136,1.136,0,0,0,1.647-1.2l-.232-1.351,1.021-.992a1.11,1.11,0,0,0-.614-1.9Zm-1.6,1.957a1.117,1.117,0,0,0-.319.983l.143.829-.753-.394a1.114,1.114,0,0,0-1.032,0l-.753.394.144-.832a1.118,1.118,0,0,0-.322-.982l-.6-.584L8.783,12a1.108,1.108,0,0,0,.84-.607l.377-.76.376.759a1.11,1.11,0,0,0,.838.608l.836.121Z"/>
</svg>