<svg xmlns="http://www.w3.org/2000/svg" width="24" height="24" viewBox="0 0 24 24">
    <path d="M17.43,1.25H10.57A3.022,3.022,0,0,0,7.25,4.57v.68H6.571A3,3,0,0,0,3.25,8.571V22a.75.75,0,0,0,1.122.651L10,19.435l5.628,3.216A.751.751,0,0,0,16.75,22V17l2.877,1.647A.75.75,0,0,0,20.75,18V4.57A3.022,3.022,0,0,0,17.43,1.25ZM15.25,20.707,10.372,17.92a.748.748,0,0,0-.744,0L4.75,20.708V8.571c0-1.293.527-1.821,1.821-1.821h6.858c1.294,0,1.821.528,1.821,1.821Zm4-4-2.5-1.432v-6.7A3,3,0,0,0,13.429,5.25H8.75V4.57c0-1.293.527-1.82,1.82-1.82h6.86c1.293,0,1.82.527,1.82,1.82ZM11.44,8.681h-.012A2.121,2.121,0,0,0,10,9.215a2.121,2.121,0,0,0-1.428-.534H8.56a2.415,2.415,0,0,0-1.923.877,3.265,3.265,0,0,0-.562,2.711c.491,2.535,3.487,3.925,3.614,3.983a.755.755,0,0,0,.622,0c.126-.058,3.122-1.448,3.614-3.982a3.272,3.272,0,0,0-.561-2.713A2.416,2.416,0,0,0,11.44,8.681Zm1.012,3.3c-.268,1.384-1.787,2.37-2.452,2.742-.665-.372-2.185-1.358-2.452-2.742A1.842,1.842,0,0,1,7.8,10.509a.936.936,0,0,1,.77-.328h0a.833.833,0,0,1,.717.566.751.751,0,0,0,.7.508H10a.758.758,0,0,0,.707-.5.836.836,0,0,1,.721-.575h0a.939.939,0,0,1,.771.327A1.844,1.844,0,0,1,12.452,11.983Z"/>
</svg>