<svg xmlns="http://www.w3.org/2000/svg" width="24" height="24" viewBox="0 0 24 24">
    <path d="M18.5,2.25H7A3.383,3.383,0,0,0,3.25,6V18A3.55,3.55,0,0,0,7,21.75H18.5a2.253,2.253,0,0,0,2.25-2.25V4.5A2.253,2.253,0,0,0,18.5,2.25ZM7,3.75H18.5a.751.751,0,0,1,.75.75v9a.751.751,0,0,1-.75.75H7a3.906,3.906,0,0,0-2.25.658V6C4.75,4.423,5.423,3.75,7,3.75Zm11.5,16.5H7A2.067,2.067,0,0,1,4.75,18,2.067,2.067,0,0,1,7,15.75H18.5a2.227,2.227,0,0,0,.75-.138V19.5A.751.751,0,0,1,18.5,20.25ZM9.25,7A.75.75,0,0,1,10,6.25h4a.75.75,0,0,1,0,1.5H10A.75.75,0,0,1,9.25,7Z"/>
</svg>