<svg xmlns="http://www.w3.org/2000/svg" width="24" height="24" viewBox="0 0 24 24">
    <path d="m16,2.25h-6c-2.068,0-3.75,1.682-3.75,3.75v.378c-.235-.083-.487-.128-.75-.128-1.241,0-2.25,1.009-2.25,2.25v3.603c0,1.257.625,2.423,1.67,3.12l.996.664c.209.14.334.373.334.624v2.989c0,1.241,1.009,2.25,2.25,2.25h9c1.241,0,2.25-1.009,2.25-2.25v-3.437c0-.116.027-.232.079-.335l.525-1.049c.259-.518.396-1.098.396-1.678v-6c0-2.619-2.131-4.75-4.75-4.75ZM5.752,13.975c-.627-.418-1.002-1.118-1.002-1.872v-3.603c0-.414.336-.75.75-.75s.75.336.75.75v3.5c0,.414.336.75.75.75s.75-.336.75-.75v-6c0-1.241,1.009-2.25,2.25-2.25h6c1.792,0,3.25,1.458,3.25,3.25v6c0,.348-.082.696-.238,1.006l-.525,1.05c-.155.311-.237.659-.237,1.006v.187H7.718c-.077-.651-.416-1.242-.97-1.611l-.996-.664Zm11.748,6.275h-9c-.414,0-.75-.336-.75-.75v-1.75h10.5v1.75c0,.414-.336.75-.75.75Z"/>
</svg>