<svg xmlns="http://www.w3.org/2000/svg" width="24" height="24" viewBox="0 0 24 24">
    <path d="M18,5.25H16.75V4A1.752,1.752,0,0,0,15,2.25H9A1.752,1.752,0,0,0,7.25,4V5.25H6A3.383,3.383,0,0,0,2.25,9v9A3.383,3.383,0,0,0,6,21.75H18A3.383,3.383,0,0,0,21.75,18V9A3.383,3.383,0,0,0,18,5.25ZM8.75,4A.25.25,0,0,1,9,3.75h6a.25.25,0,0,1,.25.25V5.25H8.75Zm11.5,14c0,1.577-.673,2.25-2.25,2.25H6c-1.577,0-2.25-.673-2.25-2.25V9c0-1.577.673-2.25,2.25-2.25H18c1.577,0,2.25.673,2.25,2.25ZM12,9.75a3.75,3.75,0,1,0,3.75,3.75A3.754,3.754,0,0,0,12,9.75Zm0,6a2.25,2.25,0,1,1,2.25-2.25A2.252,2.252,0,0,1,12,15.75ZM7,13.5a1,1,0,1,1-1-1A1,1,0,0,1,7,13.5Zm12,0a1,1,0,1,1-1-1A1,1,0,0,1,19,13.5Z"/>
</svg>