<svg xmlns="http://www.w3.org/2000/svg" width="24" height="24" viewBox="0 0 24 24">
    <path d="M18,3.75H16.75V3a.75.75,0,0,0-1.5,0v.75H8.75V3a.75.75,0,0,0-1.5,0v.75H6A3.383,3.383,0,0,0,2.25,7.5V18A3.383,3.383,0,0,0,6,21.75H18A3.383,3.383,0,0,0,21.75,18V7.5A3.383,3.383,0,0,0,18,3.75ZM6,5.25H7.25V6a.75.75,0,0,0,1.5,0V5.25h6.5V6a.75.75,0,0,0,1.5,0V5.25H18c1.577,0,2.25.673,2.25,2.25v.75H3.75V7.5C3.75,5.923,4.423,5.25,6,5.25Zm12,15H6c-1.577,0-2.25-.673-2.25-2.25V9.75h16.5V18C20.25,19.577,19.577,20.25,18,20.25ZM13.551,11h-.013A2.249,2.249,0,0,0,12,11.588,2.238,2.238,0,0,0,10.449,11a2.556,2.556,0,0,0-2.038.926A3.4,3.4,0,0,0,7.83,14.75c.525,2.663,3.728,4.124,3.863,4.185a.757.757,0,0,0,.614,0c.135-.061,3.338-1.522,3.862-4.185a3.394,3.394,0,0,0-.579-2.824A2.553,2.553,0,0,0,13.551,11ZM14.7,14.459h0c-.3,1.5-1.993,2.567-2.7,2.95-.7-.383-2.4-1.446-2.7-2.95a1.945,1.945,0,0,1,.27-1.583,1.077,1.077,0,0,1,.885-.376h0a.947.947,0,0,1,.829.633.748.748,0,0,0,.7.505H12a.757.757,0,0,0,.705-.5.95.95,0,0,1,.832-.642h0a1.076,1.076,0,0,1,.886.376A1.952,1.952,0,0,1,14.7,14.459Z"/>
</svg>