<svg xmlns="http://www.w3.org/2000/svg" width="24" height="24" viewBox="0 0 24 24">
    <path d="M18,6.25H16.54l-.486-1.461A2.249,2.249,0,0,0,13.919,3.25H10.081A2.249,2.249,0,0,0,7.946,4.789L7.46,6.25H6A3.383,3.383,0,0,0,2.25,10v8A3.383,3.383,0,0,0,6,21.75H18A3.383,3.383,0,0,0,21.75,18V10A3.383,3.383,0,0,0,18,6.25ZM20.25,18c0,1.577-.673,2.25-2.25,2.25H6c-1.577,0-2.25-.673-2.25-2.25V10c0-1.577.673-2.25,2.25-2.25H8a.752.752,0,0,0,.712-.513L9.37,5.263a.748.748,0,0,1,.711-.513h3.838a.748.748,0,0,1,.711.513l.658,1.974A.752.752,0,0,0,16,7.75h2c1.577,0,2.25.673,2.25,2.25Zm-4.437-2.19a4.193,4.193,0,0,1-6.323,1.6v.065a.75.75,0,0,1-1.5,0v-2.2c0-.007,0-.012,0-.018a.7.7,0,0,1,.033-.164.805.805,0,0,1,.03-.122,4.283,4.283,0,0,1,.163-.234.783.783,0,0,1,.106-.071.774.774,0,0,1,.14-.086c.006,0,.01-.008.016-.01a.783.783,0,0,1,.126-.019.734.734,0,0,1,.132-.026h2.193a.75.75,0,0,1,0,1.5h-.775a2.72,2.72,0,0,0,1.832.72,2.691,2.691,0,0,0,2.457-1.56.75.75,0,0,1,1.366.62Zm.177-5.288v2.2l0,.015a.729.729,0,0,1-.033.166.8.8,0,0,1-.028.12.835.835,0,0,1-.08.117.7.7,0,0,1-.082.117.729.729,0,0,1-.1.069.74.74,0,0,1-.144.09l-.012.008a.756.756,0,0,1-.266.048H13.048a.75.75,0,0,1,0-1.5h.775a2.707,2.707,0,0,0-4.293.845.75.75,0,1,1-1.361-.63,4.2,4.2,0,0,1,6.321-1.6v-.06a.75.75,0,0,1,1.5,0Z"/>
</svg>