<svg xmlns="http://www.w3.org/2000/svg" width="24" height="24" viewBox="0 0 24 24">
    <path d="M4.005,21.749a1.76,1.76,0,0,1-1.664-2.308l.841-2.5a1.181,1.181,0,0,0-.027-.858,9.77,9.77,0,1,1,4.771,4.767,1.19,1.19,0,0,0-.875-.026l-2.489.836A1.77,1.77,0,0,1,4.005,21.749Zm8-18A8.236,8.236,0,0,0,4.513,15.442a2.68,2.68,0,0,1,.094,1.963l-.843,2.512a.24.24,0,0,0,.064.255.244.244,0,0,0,.257.064l2.5-.839a2.679,2.679,0,0,1,1.982.094A8.246,8.246,0,1,0,12,3.75Zm-.448,10.78,4-4a.75.75,0,0,0-1.061-1.06l-3.47,3.469L9.553,11.47a.75.75,0,0,0-1.061,1.06l2,2a.75.75,0,0,0,1.061,0Z"/>
</svg>