<svg xmlns="http://www.w3.org/2000/svg" width="24" height="24" viewBox="0 0 24 24">
    <path d="M12,2.25A9.738,9.738,0,0,0,3.155,16.081a1.181,1.181,0,0,1,.027.858l-.841,2.5a1.76,1.76,0,0,0,1.664,2.308,1.77,1.77,0,0,0,.557-.091l2.489-.836a1.189,1.189,0,0,1,.875.026A9.746,9.746,0,1,0,12,2.25Zm0,18a8.214,8.214,0,0,1-3.436-.757A2.679,2.679,0,0,0,6.583,19.4l-2.5.839a.244.244,0,0,1-.257-.064.24.24,0,0,1-.064-.255l.843-2.512a2.68,2.68,0,0,0-.094-1.963A8.244,8.244,0,1,1,12,20.248ZM14.48,13.42a3.632,3.632,0,0,0,.6-2,3.68,3.68,0,1,0-1.663,3.064l1.55,1.549a.75.75,0,0,0,1.06-1.06Zm-5.23-2a2.167,2.167,0,1,1,2.167,2.166A2.169,2.169,0,0,1,9.25,11.417Z"/>
</svg>