<svg xmlns="http://www.w3.org/2000/svg" width="24" height="24" viewBox="0 0 24 24">
    <path d="M4.005,21.749a1.76,1.76,0,0,1-1.664-2.308l.841-2.5a1.181,1.181,0,0,0-.027-.858,9.77,9.77,0,1,1,4.771,4.767,1.19,1.19,0,0,0-.875-.026l-2.489.836A1.77,1.77,0,0,1,4.005,21.749Zm8-18A8.236,8.236,0,0,0,4.513,15.442a2.68,2.68,0,0,1,.094,1.963l-.843,2.512a.24.24,0,0,0,.064.255.244.244,0,0,0,.257.064l2.5-.839a2.679,2.679,0,0,1,1.982.094A8.246,8.246,0,1,0,12,3.75Zm.734,13H11.208a.9.9,0,0,1-.9-.9.58.58,0,0,0-.3-.5h0a.66.66,0,0,0-.643,0,.9.9,0,0,1-1.219-.324l-.765-1.282A.895.895,0,0,1,7.708,12.5a.568.568,0,0,0,0-1.007.893.893,0,0,1-.333-1.24l.764-1.282A.908.908,0,0,1,9.36,8.651a.66.66,0,0,0,.643,0,.584.584,0,0,0,.3-.5.9.9,0,0,1,.9-.9h1.524a.9.9,0,0,1,.9.9.583.583,0,0,0,.3.5.659.659,0,0,0,.644,0l.134-.074a.751.751,0,0,1,1.01.271l.916,1.538a.75.75,0,0,1-.277,1.037l-.133.075a.569.569,0,0,0,0,1.006.9.9,0,0,1,.337,1.233l-.768,1.29a.912.912,0,0,1-1.22.323.66.66,0,0,0-.643,0,.583.583,0,0,0-.3.5A.9.9,0,0,1,12.735,16.75Zm-1.02-1.5h.514a2.1,2.1,0,0,1,.976-1.206,2.167,2.167,0,0,1,1.566-.217l.238-.4a2.058,2.058,0,0,1,0-2.858l-.237-.4a2.168,2.168,0,0,1-1.567-.217,2.1,2.1,0,0,1-.976-1.206h-.514a2.093,2.093,0,0,1-.976,1.206,2.164,2.164,0,0,1-1.566.217l-.237.4a2.057,2.057,0,0,1,0,2.859l.237.4a2.16,2.16,0,0,1,1.566.217A2.093,2.093,0,0,1,11.715,15.25Zm3.6-1.211,0,0Zm-6.69-4.08,0,0ZM13.02,12a1,1,0,0,0-1-1h-.01a1,1,0,1,0,1.01,1Z"/>
</svg>