<svg xmlns="http://www.w3.org/2000/svg" width="24" height="24" viewBox="0 0 24 24">
    <path d="M12,2.25A9.738,9.738,0,0,0,3.155,16.081a1.181,1.181,0,0,1,.027.858l-.841,2.5a1.76,1.76,0,0,0,1.664,2.308,1.77,1.77,0,0,0,.557-.091l2.489-.836a1.189,1.189,0,0,1,.875.026A9.746,9.746,0,1,0,12,2.25Zm0,18a8.214,8.214,0,0,1-3.436-.757A2.679,2.679,0,0,0,6.583,19.4l-2.5.839a.244.244,0,0,1-.257-.064.24.24,0,0,1-.064-.255l.843-2.512a2.68,2.68,0,0,0-.094-1.963A8.244,8.244,0,1,1,12,20.248ZM14.584,9.9a2.546,2.546,0,0,1-1.239,2.646c-.556.369-.632.557-.635.564a.767.767,0,0,1-.713.5.723.723,0,0,1-.245-.043.739.739,0,0,1-.463-.934A2.938,2.938,0,0,1,12.515,11.3a1.056,1.056,0,0,0,.592-1.137,1.126,1.126,0,0,0-1.83-.652,1.123,1.123,0,0,0-.4.862.75.75,0,0,1-1.5,0,2.626,2.626,0,0,1,5.209-.47ZM13.02,15.5a1,1,0,1,1-1.01-1h.01A1,1,0,0,1,13.02,15.5Z"/>
</svg>