<svg xmlns="http://www.w3.org/2000/svg" width="24" height="24" viewBox="0 0 24 24">
    <path d="M12,2.25A9.738,9.738,0,0,0,3.155,16.081a1.181,1.181,0,0,1,.027.858l-.841,2.5a1.76,1.76,0,0,0,1.664,2.308,1.77,1.77,0,0,0,.557-.091l2.489-.836a1.189,1.189,0,0,1,.875.026A9.746,9.746,0,1,0,12,2.25Zm0,18a8.214,8.214,0,0,1-3.436-.757A2.679,2.679,0,0,0,6.583,19.4l-2.5.839a.244.244,0,0,1-.257-.064.24.24,0,0,1-.064-.255l.843-2.512a2.68,2.68,0,0,0-.094-1.963A8.244,8.244,0,1,1,12,20.248Zm3.684-11.7a14.036,14.036,0,0,1-3.336-1.216.754.754,0,0,0-.68,0A17.116,17.116,0,0,1,8.293,8.612a.752.752,0,0,0-.543.721v2.223a5.514,5.514,0,0,0,4.01,5.154.74.74,0,0,0,.48,0,5.514,5.514,0,0,0,4.01-5.154V9.275A.75.75,0,0,0,15.685,8.548Zm-.935,3.008A4.053,4.053,0,0,1,12,15.2a4.053,4.053,0,0,1-2.75-3.644V9.894a17.96,17.96,0,0,0,2.755-1.056A15.166,15.166,0,0,0,14.75,9.853Z"/>
</svg>