<svg xmlns="http://www.w3.org/2000/svg" width="24" height="24" viewBox="0 0 24 24">
    <path d="M3.13,20.87a.975.975,0,0,1-.7-.3.875.875,0,0,1-.22-.32,1,1,0,0,1-.08-.38,1.359,1.359,0,0,1,.019-.2.737.737,0,0,1,.061-.19.859.859,0,0,1,.09-.17,1.738,1.738,0,0,1,.13-.15,1.034,1.034,0,0,1,1.41,0,.981.981,0,0,1,0,1.41A1,1,0,0,1,3.13,20.87Zm3.6-.25a.75.75,0,0,0,.641-.845,4.793,4.793,0,0,0-1.38-2.762,4.8,4.8,0,0,0-2.761-1.379.757.757,0,0,0-.845.641.749.749,0,0,0,.641.845,3.319,3.319,0,0,1,1.905.954,3.313,3.313,0,0,1,.954,1.9.751.751,0,0,0,.742.648A.723.723,0,0,0,6.725,20.62Zm3.332.128a.749.749,0,0,0,.691-.8,8.357,8.357,0,0,0-7.691-7.692.75.75,0,0,0-.114,1.5,6.855,6.855,0,0,1,6.309,6.308A.75.75,0,0,0,10,20.75.562.562,0,0,0,10.057,20.748ZM21.75,17V8A3.383,3.383,0,0,0,18,4.25H6A3.383,3.383,0,0,0,2.25,8V9a.75.75,0,0,0,1.5,0V8c0-1.577.673-2.25,2.25-2.25H18c1.577,0,2.25.673,2.25,2.25v9c0,1.577-.673,2.25-2.25,2.25H14a.75.75,0,0,0,0,1.5h4A3.383,3.383,0,0,0,21.75,17Z"/>
</svg>