<svg xmlns="http://www.w3.org/2000/svg" width="24" height="24" viewBox="0 0 24 24">
    <path d="M22.75,13A5.756,5.756,0,0,1,17,18.75H11a.75.75,0,0,1,0-1.5h6a4.25,4.25,0,0,0,0-8.5,4.438,4.438,0,0,0-.831.077.745.745,0,0,1-.776-.343,6.043,6.043,0,0,0-1.1-1.306A5.738,5.738,0,0,0,5.662,8.4.75.75,0,0,1,4.4,7.6,7.238,7.238,0,0,1,15.287,6.059a7.631,7.631,0,0,1,1.1,1.222A5.843,5.843,0,0,1,17,7.25,5.756,5.756,0,0,1,22.75,13Zm-14,2.786v1.928A1.871,1.871,0,0,1,6.714,19.75H3.286A1.871,1.871,0,0,1,1.25,17.714V15.786A1.838,1.838,0,0,1,2.5,13.871V12.75a2.5,2.5,0,0,1,5,0v1.121A1.838,1.838,0,0,1,8.75,15.786ZM4,12.75v1H6v-1a1,1,0,0,0-2,0Zm3.25,3.036c0-.441-.095-.536-.536-.536H3.286c-.441,0-.536.1-.536.536v1.928c0,.441.1.536.536.536H6.714c.441,0,.536-.095.536-.536Z"/>
</svg>