<svg xmlns="http://www.w3.org/2000/svg" width="24" height="24" viewBox="0 0 24 24">
    <path d="m19.616,4.498s-.008-.009-.012-.013c-.015-.015-.027-.032-.042-.047-3.391-3.39-9.541-2.754-13.71,1.415-4.169,4.17-4.804,10.319-1.415,13.709,1.467,1.466,3.448,2.179,5.563,2.179,2.775,0,5.78-1.228,8.146-3.594,4.146-4.146,4.792-10.247,1.468-13.649Zm-12.703,2.415c2.078-2.079,4.698-3.165,7.081-3.165,1.66,0,3.201.534,4.366,1.623.147.617.045,1.265-.328,1.932-.952,1.699-3.445,3.298-6.202,3.979-3.201.791-6.014,2.634-7.164,4.697-.145.26-.26.523-.351.788-1.291-2.899-.337-6.916,2.598-9.853Zm10.174,10.173c-3.521,3.52-8.593,4.188-11.43,1.555-.149-.62-.051-1.268.319-1.932.943-1.69,3.44-3.287,6.214-3.972,3.184-.786,5.991-2.632,7.151-4.702.145-.26.26-.522.353-.786,1.28,2.898.323,6.905-2.606,9.836Z"/>
</svg>