<svg xmlns="http://www.w3.org/2000/svg" width="24" height="24" viewBox="0 0 24 24">
    <path d="M12.75,20a.75.75,0,0,1-.75.75,11.843,11.843,0,0,1-3.394-.48A7.225,7.225,0,0,1,3.857,21.75c-.144,0-.286,0-.423-.007a1.228,1.228,0,0,1-.749-2.162A4.124,4.124,0,0,0,4.14,17.426,8.3,8.3,0,0,1,2.25,12C2.25,6.849,6.26,3.25,12,3.25c5.272,0,9.165,3.081,9.686,7.667A8.878,8.878,0,0,1,21.75,12a.75.75,0,0,1-1.5,0A7.425,7.425,0,0,0,20.2,11.1C19.765,7.3,16.472,4.75,12,4.75,7.143,4.75,3.75,7.732,3.75,12A6.787,6.787,0,0,0,5.5,16.7a.749.749,0,0,1,.19.625,5.391,5.391,0,0,1-1.507,2.914A5.326,5.326,0,0,0,7.863,18.91a.749.749,0,0,1,.792-.2A10.208,10.208,0,0,0,12,19.253.75.75,0,0,1,12.75,20ZM21,16.75H16a.75.75,0,0,0,0,1.5h5a.75.75,0,0,0,0-1.5ZM8,9.25a.75.75,0,0,0,0,1.5h8a.75.75,0,0,0,0-1.5Zm5,4H8a.75.75,0,0,0,0,1.5h5a.75.75,0,0,0,0-1.5Z"/>
</svg>