<svg xmlns="http://www.w3.org/2000/svg" width="24" height="24" viewBox="0 0 24 24">
    <path d="M21.351,19.812a2.8,2.8,0,0,1-.946-1.346A6.2,6.2,0,0,0,21.749,14.5,6.125,6.125,0,0,0,18.721,9.1C18.436,5.039,15.14,2.25,10.5,2.25,5.643,2.25,2.25,5.3,2.25,9.669a7.055,7.055,0,0,0,1.562,4.552,3.33,3.33,0,0,1-1.156,1.671,1.148,1.148,0,0,0,.7,2.022c.117,0,.236.006.358.006a6.228,6.228,0,0,0,3.944-1.185c.93,2.621,3.542,4.3,6.84,4.3a8.7,8.7,0,0,0,2.4-.323,5.441,5.441,0,0,0,3.437,1.039c.113,0,.225,0,.332-.006a1.089,1.089,0,0,0,.682-1.932Zm-13.6-4.666a.749.749,0,0,0-.793.2A4.067,4.067,0,0,1,4.287,16.4a4.562,4.562,0,0,0,1.079-2.269.751.751,0,0,0-.19-.624A5.533,5.533,0,0,1,3.75,9.669C3.75,6.184,6.525,3.75,10.5,3.75s6.75,2.434,6.75,5.919-2.775,5.92-6.75,5.92A8.387,8.387,0,0,1,7.753,15.146Zm11.9,5.064a3.25,3.25,0,0,1-2.019-.86.75.75,0,0,0-.8-.193,6.98,6.98,0,0,1-2.339.377,5.7,5.7,0,0,1-5.062-2.517,10.289,10.289,0,0,0,1.062.072c4.394,0,7.581-2.5,8.15-6.212a4.626,4.626,0,0,1,1.6,3.625,4.686,4.686,0,0,1-1.211,3.252.752.752,0,0,0-.19.626A4.005,4.005,0,0,0,19.654,20.21Zm.962.036h0Z"/>
</svg>