<svg xmlns="http://www.w3.org/2000/svg" width="24" height="24" viewBox="0 0 24 24">
    <path d="M3.857,21.75c-.144,0-.286,0-.423-.007a1.228,1.228,0,0,1-.749-2.162A4.124,4.124,0,0,0,4.14,17.426,8.3,8.3,0,0,1,2.25,12C2.25,6.849,6.26,3.25,12,3.25s9.75,3.6,9.75,8.751S17.74,20.753,12,20.753a11.843,11.843,0,0,1-3.394-.48A7.225,7.225,0,0,1,3.857,21.75Zm-.379-1.507h0ZM12,4.75C7.143,4.75,3.75,7.732,3.75,12A6.787,6.787,0,0,0,5.5,16.7a.749.749,0,0,1,.19.625,5.391,5.391,0,0,1-1.507,2.914A5.326,5.326,0,0,0,7.863,18.91a.748.748,0,0,1,.792-.2A10.208,10.208,0,0,0,12,19.253c4.857,0,8.25-2.982,8.25-7.252S16.857,4.75,12,4.75Zm0,12a.756.756,0,0,1-.309-.066c-.153-.07-3.763-1.732-4.352-4.746a3.819,3.819,0,0,1,.649-3.17,2.808,2.808,0,0,1,2.24-1.018h.013A2.463,2.463,0,0,1,12,8.466a2.462,2.462,0,0,1,1.758-.716h.013a2.81,2.81,0,0,1,2.241,1.017,3.821,3.821,0,0,1,.649,3.17h0c-.589,3.014-4.2,4.676-4.352,4.746A.756.756,0,0,1,12,16.75Zm-1.76-7.5h-.005a1.343,1.343,0,0,0-1.087.468,2.375,2.375,0,0,0-.336,1.931c.355,1.819,2.4,3.084,3.188,3.51.788-.426,2.833-1.691,3.188-3.51a2.373,2.373,0,0,0-.336-1.931,1.342,1.342,0,0,0-1.088-.468h0a1.189,1.189,0,0,0-1.05.814.756.756,0,0,1-.708.5h-.008a.747.747,0,0,1-.7-.507A1.188,1.188,0,0,0,10.24,9.25Zm5.685,2.543h0Z"/>
</svg>