<svg xmlns="http://www.w3.org/2000/svg" width="24" height="24" viewBox="0 0 24 24">
    <path d="M12,3.25c-5.74,0-9.75,3.6-9.75,8.751a8.3,8.3,0,0,0,1.89,5.425,4.124,4.124,0,0,1-1.455,2.155,1.228,1.228,0,0,0,.749,2.162c.137.005.279.007.423.007a7.225,7.225,0,0,0,4.749-1.477,11.843,11.843,0,0,0,3.394.48c5.74,0,9.75-3.6,9.75-8.752S17.74,3.25,12,3.25Zm0,16a10.208,10.208,0,0,1-3.345-.539.748.748,0,0,0-.792.2,5.326,5.326,0,0,1-3.679,1.333,5.391,5.391,0,0,0,1.507-2.914A.749.749,0,0,0,5.5,16.7,6.787,6.787,0,0,1,3.75,12C3.75,7.732,7.143,4.75,12,4.75S20.25,7.732,20.25,12,16.857,19.253,12,19.253ZM15.75,12a.75.75,0,0,1-.75.75H12.75V15a.75.75,0,0,1-1.5,0V12.75H9a.75.75,0,0,1,0-1.5h2.25V9a.75.75,0,0,1,1.5,0v2.25H15A.75.75,0,0,1,15.75,12Z"/>
</svg>