<svg xmlns="http://www.w3.org/2000/svg" width="24" height="24" viewBox="0 0 24 24">
    <path d="M21.642,6.927A4.941,4.941,0,0,1,21.75,8v8A3.383,3.383,0,0,1,18,19.75H9a.75.75,0,0,1,0-1.5h9c1.577,0,2.25-.673,2.25-2.25V10.75H18a.75.75,0,0,1,0-1.5h2.25V8a3.548,3.548,0,0,0-.072-.748.75.75,0,0,1,1.464-.325ZM3.53,21.53a.75.75,0,0,1-1.06-1.06l1.282-1.282A3.506,3.506,0,0,1,2.25,16V8A3.383,3.383,0,0,1,6,4.25H18a5.354,5.354,0,0,1,.649.041L20.47,2.47a.75.75,0,0,1,1.06,1.06ZM3.75,8V9.25h9.939l3.5-3.5H6C4.423,5.75,3.75,6.423,3.75,8ZM4.868,18.072,7.189,15.75H7a.75.75,0,0,1,0-1.5H8.689l3.5-3.5H3.75V16C3.75,17.38,4.291,17.867,4.868,18.072Z"/>
</svg>