<svg xmlns="http://www.w3.org/2000/svg" width="24" height="24" viewBox="0 0 24 24">
    <path d="M21,6.95A1.728,1.728,0,0,0,19.1,6.886L16.606,8.394a.234.234,0,0,1-.317-.071l-2.84-4.294a1.737,1.737,0,0,0-2.9,0L7.713,8.32a.237.237,0,0,1-.322.072L4.9,6.886A1.746,1.746,0,0,0,2.288,8.737L3.912,16l-.554,3.292A1.251,1.251,0,0,0,4.591,20.75H19.409a1.251,1.251,0,0,0,1.233-1.458L20.088,16l1.624-7.264,0-.018A1.725,1.725,0,0,0,21,6.95ZM4.887,19.25l.42-2.5H18.693l.42,2.5Zm13.832-4H5.281L3.756,8.428a.246.246,0,0,1,.369-.258L6.614,9.676a1.734,1.734,0,0,0,2.35-.529L11.8,4.857c.123-.186.273-.186.4,0l2.84,4.293a1.729,1.729,0,0,0,2.344.528L19.875,8.17a.247.247,0,0,1,.371.252Z"/>
</svg>