<svg xmlns="http://www.w3.org/2000/svg" width="24" height="24" viewBox="0 0 24 24">
    <path d="M8.47,13.53a.75.75,0,0,1,1.06-1.06l1.72,1.719V3a.75.75,0,0,1,1.5,0V14.189l1.72-1.719a.75.75,0,0,1,1.06,1.06l-3,3a.751.751,0,0,1-1.06,0ZM18,9.25a.75.75,0,0,0,0,1.5c1.577,0,2.25.673,2.25,2.25v5c0,1.577-.673,2.25-2.25,2.25H6c-1.577,0-2.25-.673-2.25-2.25V13c0-1.577.673-2.25,2.25-2.25a.75.75,0,0,0,0-1.5A3.383,3.383,0,0,0,2.25,13v5A3.383,3.383,0,0,0,6,21.75H18A3.383,3.383,0,0,0,21.75,18V13A3.383,3.383,0,0,0,18,9.25Z"/>
</svg>