<svg xmlns="http://www.w3.org/2000/svg" width="24" height="24" viewBox="0 0 24 24">
    <path d="M11.072,17.182a2.082,2.082,0,0,0,2.856,0L20.2,11.254a1.739,1.739,0,0,0-1.194-3H17.165V4a1.752,1.752,0,0,0-1.75-1.75h-6A1.752,1.752,0,0,0,7.665,4V8.25H5.992a1.739,1.739,0,0,0-1.194,3ZM5.77,9.9a.223.223,0,0,1,.222-.151H8.415A.751.751,0,0,0,9.165,9V4a.25.25,0,0,1,.25-.25h6a.25.25,0,0,1,.25.25V9a.751.751,0,0,0,.75.75h2.593a.24.24,0,0,1,.165.414L12.9,16.092a.582.582,0,0,1-.8,0L5.827,10.164A.223.223,0,0,1,5.77,9.9ZM20.25,21a.75.75,0,0,1-.75.75H5.5a.75.75,0,0,1,0-1.5h14A.75.75,0,0,1,20.25,21Z"/>
</svg>