<svg xmlns="http://www.w3.org/2000/svg" width="24" height="24" viewBox="0 0 24 24">
    <path d="m12,2.25c-4.496,0-7.75,7.019-7.75,11.75,0,3.115,2.063,7.75,7.75,7.75s7.75-4.635,7.75-7.75c0-4.731-3.254-11.75-7.75-11.75Zm0,18c-4.586,0-6.25-3.738-6.25-6.25,0-4.048,2.8-10.25,6.25-10.25s6.25,6.202,6.25,10.25c0,2.512-1.664,6.25-6.25,6.25Zm-2.07-11.842c-.013.019-1.18,1.846-1.18,3.592,0,.414-.336.75-.75.75s-.75-.336-.75-.75c0-2.197,1.363-4.319,1.421-4.409.226-.347.688-.446,1.036-.22.348.225.446.689.223,1.037Z"/>
</svg>