<svg xmlns="http://www.w3.org/2000/svg" width="24" height="24" viewBox="0 0 24 24">
    <path d="M20,8.75A2.75,2.75,0,1,1,22.75,6,2.753,2.753,0,0,1,20,8.75Zm0-4A1.25,1.25,0,1,0,21.25,6,1.252,1.252,0,0,0,20,4.75ZM21.75,17V12a.75.75,0,0,0-1.5,0v5c0,1.577-.673,2.25-2.25,2.25H6c-1.577,0-2.25-.673-2.25-2.25V8c0-1.577.673-2.25,2.25-2.25h8a.75.75,0,0,0,0-1.5H6A3.383,3.383,0,0,0,2.25,8v9A3.383,3.383,0,0,0,6,20.75H18A3.383,3.383,0,0,0,21.75,17Zm-8.656-2.914,4.375-3.5a.751.751,0,1,0-.938-1.172l-4.375,3.5a.252.252,0,0,1-.312,0l-4.375-3.5a.751.751,0,0,0-.938,1.172l4.375,3.5a1.743,1.743,0,0,0,2.188,0Z"/>
</svg>