<svg xmlns="http://www.w3.org/2000/svg" width="24" height="24" viewBox="0 0 24 24">
    <path d="M12,19.75H5A3.383,3.383,0,0,1,1.25,16V7A3.383,3.383,0,0,1,5,3.25H17A3.383,3.383,0,0,1,20.75,7v4a.75.75,0,0,1-1.5,0V7c0-1.577-.673-2.25-2.25-2.25H5c-1.577,0-2.25.673-2.25,2.25v9c0,1.577.673,2.25,2.25,2.25h7a.75.75,0,0,1,0,1.5Zm.029-7.571,4.912-3.573a.749.749,0,1,0-.882-1.212l-4.913,3.572a.248.248,0,0,1-.292,0L5.941,7.394a.749.749,0,1,0-.882,1.212l4.912,3.573a1.748,1.748,0,0,0,2.058,0Zm8,8.69a.413.413,0,0,1,.219-.356.48.48,0,0,1,.47,0,.88.88,0,0,0,1.193-.317l.666-1.118a1,1,0,0,0,.1-.676.883.883,0,0,0-.42-.542l-.012-.007a.4.4,0,0,1,.01-.71l.116-.065a.75.75,0,0,0,.278-1.038l-.8-1.346a.75.75,0,0,0-1.011-.27l-.116.065a.484.484,0,0,1-.471,0,.414.414,0,0,1-.218-.356.883.883,0,0,0-.884-.881H17.809a.883.883,0,0,0-.885.881.415.415,0,0,1-.217.356.489.489,0,0,1-.472,0,.887.887,0,0,0-1.192.316l-.672,1.127a1.024,1.024,0,0,0-.091.673.887.887,0,0,0,.42.538.4.4,0,0,1,0,.718.883.883,0,0,0-.418.542,1.01,1.01,0,0,0,.1.67l.67,1.125a.882.882,0,0,0,1.192.315.48.48,0,0,1,.469,0h0a.413.413,0,0,1,.217.356.883.883,0,0,0,.885.881h1.336A.883.883,0,0,0,20.027,20.869Zm-2.585-1.663h0a1.985,1.985,0,0,0-1.37-.214l-.136-.229a1.89,1.89,0,0,0,0-2.525l.137-.231a1.99,1.99,0,0,0,1.371-.213,1.931,1.931,0,0,0,.875-1.044h.315a1.925,1.925,0,0,0,.875,1.043,1.987,1.987,0,0,0,1.372.214l.137.23a1.889,1.889,0,0,0,0,2.525l-.138.231a1.991,1.991,0,0,0-1.37.213,1.933,1.933,0,0,0-.876,1.044h-.315A1.929,1.929,0,0,0,17.442,19.206Zm4.008,0h0Zm-6.016-3.371,0,0ZM15.5,15.8l0,0Zm.832-.228,0,.008ZM19.52,17.5a1,1,0,0,0-1-1h-.01a1,1,0,1,0,1.01,1Z"/>
</svg>