<svg xmlns="http://www.w3.org/2000/svg" width="24" height="24" viewBox="0 0 24 24">
    <path d="M12,1.25A10.75,10.75,0,1,0,22.75,12,10.762,10.762,0,0,0,12,1.25Zm0,20A9.25,9.25,0,1,1,21.25,12,9.26,9.26,0,0,1,12,21.25Zm4.715-8.785c0-.009,0-.018,0-.027s-.016-.024-.021-.038a.914.914,0,0,0-.033-.087L13.136,5.921a1.3,1.3,0,0,0-2.272,0L7.343,12.313c-.015.028-.021.058-.033.086s-.017.024-.021.039,0,.018,0,.027a.749.749,0,0,0-.032.261c0,.012.006.023.007.035a.735.735,0,0,0,.06.214.58.58,0,0,0,.033.066.623.623,0,0,0,.032.063L10.936,18.2a1.3,1.3,0,0,0,2.128,0L16.615,13.1a.623.623,0,0,0,.032-.063.58.58,0,0,0,.033-.066.735.735,0,0,0,.06-.214c0-.012.006-.023.007-.035A.749.749,0,0,0,16.715,12.465ZM12,6.968l2.909,5.28L12,13.217l-2.909-.969ZM12,17.1l-2.091-3,1.854.617a.74.74,0,0,0,.474,0l1.854-.617Z"/>
</svg>