<svg xmlns="http://www.w3.org/2000/svg" width="24" height="24" viewBox="0 0 24 24">
    <path d="M21.229,13.868C19.913,16.063,16.961,19.75,12,19.75a9.343,9.343,0,0,1-2.826-.435.75.75,0,0,1,.453-1.43A7.856,7.856,0,0,0,12,18.25c4.222,0,6.79-3.23,7.944-5.156a2.105,2.105,0,0,0,0-2.186A13.488,13.488,0,0,0,18.721,9.18a.75.75,0,0,1,1.154-.959,15.163,15.163,0,0,1,1.358,1.916A3.6,3.6,0,0,1,21.229,13.868ZM10.063,15,3.53,21.53a.75.75,0,0,1-1.06-1.06L5.645,17.3a14.481,14.481,0,0,1-2.876-3.429,3.6,3.6,0,0,1,0-3.734C4.087,7.937,7.039,4.25,12,4.25a9.442,9.442,0,0,1,5.155,1.534L20.47,2.47a.75.75,0,0,1,1.06,1.06L10.065,15v0Zm-.454-1.667,3.722-3.723A2.705,2.705,0,0,0,12,9.25,2.752,2.752,0,0,0,9.251,12,2.705,2.705,0,0,0,9.609,13.331Zm-2.9,2.9,1.812-1.812A4.185,4.185,0,0,1,7.751,12,4.255,4.255,0,0,1,12,7.75a4.182,4.182,0,0,1,2.421.768l1.631-1.63A7.926,7.926,0,0,0,12,5.75c-4.222,0-6.79,3.23-7.944,5.156a2.105,2.105,0,0,0,0,2.186A12.847,12.847,0,0,0,6.707,16.233Zm8-3.8a2.746,2.746,0,0,1-2.272,2.274.75.75,0,1,0,.228,1.482,4.2,4.2,0,0,0,3.526-3.526.75.75,0,0,0-1.482-.23Z"/>
</svg>