<svg xmlns="http://www.w3.org/2000/svg" width="24" height="24" viewBox="0 0 24 24">
    <path d="m16.709,10.045c.135.391-.072.818-.464.954-.392.135-.818-.073-.954-.464-.125-.364-.754-.364-.879,0-.106.311-.397.506-.709.506-.081,0-.163-.013-.243-.041-.393-.135-.601-.561-.466-.953.271-.79,1.018-1.321,1.857-1.321s1.585.53,1.857,1.32Zm-8,.489c.125-.364.754-.364.879,0,.106.311.397.506.709.506.081,0,.163-.013.243-.041.393-.135.601-.561.466-.953-.271-.79-1.018-1.321-1.857-1.321s-1.585.53-1.857,1.32c-.135.391.072.818.464.954.395.136.819-.073.954-.464Zm13.374,5.049c-.365.365-.828.581-1.323.641-1.622,3.365-4.994,5.526-8.76,5.526s-7.139-2.161-8.76-5.526c-.494-.06-.958-.275-1.323-.641-.433-.433-.67-1-.667-1.597.003-.605.254-1.188.707-1.641.087-.088.193-.16.297-.234,0-.038-.004-.072-.004-.111C2.25,6.624,6.624,2.25,12,2.25s9.75,4.374,9.75,9.75c0,.039-.003.073-.004.111.104.074.209.147.297.234.453.453.704,1.035.707,1.64.003.597-.234,1.165-.667,1.597Zm-19.333-1.591c0,.194.08.383.228.53.146.147.334.228.526.228h.004c.209,0,.412-.093.586-.268.285-.286.478-.987.578-1.654-.477.072-.965.192-1.312.358-.01.005-.02.008-.031.012-.126.063-.235.131-.312.207-.174.174-.267.377-.268.586Zm16.51,1.881c-.146-.095-.287-.202-.415-.33-.98-.98-1.085-3.107-1.096-3.523-.005-.206.074-.404.22-.55s.344-.232.55-.219c.223.006.938.043,1.704.223-.274-4.303-3.852-7.723-8.223-7.723s-7.949,3.42-8.223,7.723c.766-.18,1.481-.217,1.704-.223.208-.012.404.074.55.219s.225.344.22.55c-.011.417-.115,2.543-1.096,3.523-.128.128-.268.235-.415.33,1.425,2.674,4.187,4.377,7.26,4.377s5.835-1.702,7.26-4.377Zm1.99-1.881c0-.209-.094-.412-.268-.585-.077-.077-.186-.145-.313-.208-.009-.004-.019-.007-.028-.011-.348-.167-.836-.287-1.313-.359.101.667.293,1.369.578,1.654.174.174.377.267.586.268h.004c.192,0,.38-.081.526-.228.147-.147.229-.336.228-.53Zm-5.694-.457c.32.275.459.699.364,1.108-.42,1.828-2.032,3.106-3.92,3.106s-3.5-1.278-3.92-3.108c-.095-.407.044-.831.364-1.106.335-.289.802-.367,1.215-.201,1.576.628,3.105.628,4.682,0,.413-.165.879-.087,1.215.201Zm-1.354,1.436c-1.463.442-2.939.442-4.404,0,.436.777,1.265,1.278,2.202,1.278s1.768-.501,2.202-1.279Z"/>
</svg>