<svg xmlns="http://www.w3.org/2000/svg" width="24" height="24" viewBox="0 0 24 24">
    <path d="m12,22.75c-5.928,0-10.75-4.822-10.75-10.75S6.072,1.25,12,1.25s10.75,4.822,10.75,10.75-4.822,10.75-10.75,10.75Zm0-20C6.899,2.75,2.75,6.899,2.75,12s4.149,9.25,9.25,9.25,9.25-4.149,9.25-9.25S17.101,2.75,12,2.75Zm4.25,7.25c0-1.014-.525-1.75-1.25-1.75s-1.25.736-1.25,1.75.525,1.75,1.25,1.75,1.25-.736,1.25-1.75Zm-6,0c0-1.014-.525-1.75-1.25-1.75s-1.25.736-1.25,1.75.525,1.75,1.25,1.75,1.25-.736,1.25-1.75Zm-.72,7.53c.418-.417,2.047-1.78,5.47-1.78.414,0,.75-.336.75-.75s-.336-.75-.75-.75c-3.891,0-5.863,1.552-6.53,2.22-.293.293-.293.768,0,1.061.146.146.338.22.53.22s.384-.073.53-.22Z"/>
</svg>