<svg xmlns="http://www.w3.org/2000/svg" width="24" height="24" viewBox="0 0 24 24">
    <path d="m15.579,6.744h1.421c.414,0,.75-.336.75-.75v-2.773c0-.366-.264-.678-.624-.739-.055-.009-1.366-.231-2.648-.231-3.088,0-5.007,1.968-5.007,5.135v1.732h-1.471c-.414,0-.75.336-.75.75v3.258c0,.414.336.75.75.75h1.471v7.125c0,.414.336.75.75.75h3.521c.414,0,.75-.336.75-.75v-7.125h1.876c.37,0,.686-.27.741-.636l.5-3.258c.033-.216-.029-.436-.172-.602s-.351-.262-.569-.262h-2.376v-1.364c0-.708.325-1.01,1.087-1.01Zm-1.837,3.874h2.252l-.27,1.758h-1.982c-.414,0-.75.336-.75.75v7.125h-2.021v-7.125c0-.414-.336-.75-.75-.75h-1.471v-1.758h1.471c.414,0,.75-.336.75-.75v-2.482c0-2.31,1.278-3.635,3.507-3.635.641,0,1.306.064,1.772.122v1.372h-.671c-1.596,0-2.587.962-2.587,2.51v2.114c0,.414.336.75.75.75Z"/>
</svg>