<svg xmlns="http://www.w3.org/2000/svg" width="24" height="24" viewBox="0 0 24 24">
    <path d="m16.454,13.403c.329.251.394.721.143,1.051-.253.333-.54.63-.847.895v2.651c0,.414-.336.75-.75.75s-.75-.336-.75-.75v-1.717c-.164.07-.33.133-.5.187v.53c0,.414-.336.75-.75.75s-.75-.336-.75-.75v-.264c-.083.004-.166.014-.25.014-1.791,0-3.507-.859-4.59-2.299-.249-.331-.183-.801.148-1.05.336-.251.803-.182,1.051.148.801,1.065,2.068,1.701,3.391,1.701,1.339,0,2.58-.621,3.403-1.704.251-.329.721-.394,1.051-.143Zm6.296-1.403c0,5.928-4.822,10.75-10.75,10.75S1.25,17.928,1.25,12,6.072,1.25,12,1.25s10.75,4.822,10.75,10.75Zm-1.5,0c0-5.101-4.149-9.25-9.25-9.25S2.75,6.899,2.75,12s4.149,9.25,9.25,9.25,9.25-4.149,9.25-9.25Zm-5.84-3.75c-.957,0-1.809.605-2.119,1.505-.135.392.073.818.464.954.392.137.819-.073.954-.464.101-.291.389-.495.701-.495s.601.204.701.495c.107.311.397.505.709.505.081,0,.164-.013.245-.041.391-.135.599-.562.464-.954-.311-.9-1.162-1.505-2.119-1.505Zm-7.521,1.995c.101-.291.389-.495.701-.495s.601.204.701.495c.107.311.397.505.709.505.081,0,.164-.013.245-.041.391-.135.599-.562.464-.954-.311-.9-1.162-1.505-2.119-1.505s-1.809.605-2.119,1.505c-.135.392.073.818.464.954.392.137.819-.073.954-.464Z"/>
</svg>