<svg xmlns="http://www.w3.org/2000/svg" width="24" height="24" viewBox="0 0 24 24">
    <path d="M21.09,15.676a2.553,2.553,0,0,0-2.039-.926h-.013a2.249,2.249,0,0,0-1.538.588,2.249,2.249,0,0,0-1.538-.588h-.013a2.556,2.556,0,0,0-2.038.926A3.4,3.4,0,0,0,13.33,18.5c.525,2.663,3.728,4.124,3.863,4.185a.757.757,0,0,0,.614,0c.135-.061,3.338-1.522,3.862-4.185A3.394,3.394,0,0,0,21.09,15.676ZM20.2,18.209h0c-.3,1.5-1.993,2.567-2.7,2.95-.7-.383-2.4-1.446-2.7-2.949a1.948,1.948,0,0,1,.27-1.584,1.077,1.077,0,0,1,.885-.376h0a.947.947,0,0,1,.829.633.748.748,0,0,0,.7.505h.01a.757.757,0,0,0,.705-.5.95.95,0,0,1,.832-.642h0a1.076,1.076,0,0,1,.886.376A1.952,1.952,0,0,1,20.2,18.209ZM11,20.25H6c-1.577,0-2.25-.673-2.25-2.25V6c0-1.577.673-2.25,2.25-2.25h5.25V6A3.383,3.383,0,0,0,15,9.75h2.25V12a.75.75,0,0,0,1.5,0V9a.747.747,0,0,0-.22-.53l-6-6A.747.747,0,0,0,12,2.25H6A3.383,3.383,0,0,0,2.25,6V18A3.383,3.383,0,0,0,6,21.75h5a.75.75,0,0,0,0-1.5ZM12.75,6V4.811L16.189,8.25H15C13.423,8.25,12.75,7.577,12.75,6ZM14,11.25a.75.75,0,0,1,0,1.5H7a.75.75,0,0,1,0-1.5ZM11.75,16a.75.75,0,0,1-.75.75H7a.75.75,0,0,1,0-1.5h4A.75.75,0,0,1,11.75,16Z"/>
</svg>