<svg xmlns="http://www.w3.org/2000/svg" width="24" height="24" viewBox="0 0 24 24">
    <path d="M20.53,8.47l-6-6A.747.747,0,0,0,14,2.25H8A3.383,3.383,0,0,0,4.25,6V18A3.383,3.383,0,0,0,8,21.75h9A3.383,3.383,0,0,0,20.75,18V9A.747.747,0,0,0,20.53,8.47ZM14.75,4.811,18.189,8.25H17c-1.577,0-2.25-.673-2.25-2.25ZM17,20.25H8c-1.577,0-2.25-.673-2.25-2.25V6c0-1.577.673-2.25,2.25-2.25h5.25V6A3.383,3.383,0,0,0,17,9.75h2.25V18C19.25,19.577,18.577,20.25,17,20.25Zm-2.25-6.823V12.5a2.25,2.25,0,0,0-4.5,0v.927a1.728,1.728,0,0,0-1,1.7v1.75a1.74,1.74,0,0,0,1.875,1.875h2.75a1.74,1.74,0,0,0,1.875-1.875v-1.75A1.728,1.728,0,0,0,14.75,13.427ZM12.5,11.75a.751.751,0,0,1,.75.75v.75h-1.5V12.5A.751.751,0,0,1,12.5,11.75Zm1.75,5.125c0,.336-.038.375-.375.375h-2.75c-.337,0-.375-.039-.375-.375v-1.75c0-.279.037-.35.239-.367l.011,0c.007,0,.013,0,.021,0,.034,0,.06-.006.1-.006h2.75c.044,0,.07,0,.1.006.008,0,.014,0,.021,0l.011,0c.2.017.239.088.239.367Z"/>
</svg>