<svg xmlns="http://www.w3.org/2000/svg" width="24" height="24" viewBox="0 0 24 24">
    <path d="M18,20.75H6A3.383,3.383,0,0,1,2.25,17V7A3.383,3.383,0,0,1,6,3.25h4a.747.747,0,0,1,.53.22l2.781,2.78H18A3.383,3.383,0,0,1,21.75,10v7A3.383,3.383,0,0,1,18,20.75ZM6,4.75c-1.577,0-2.25.673-2.25,2.25V17c0,1.577.673,2.25,2.25,2.25H18c1.577,0,2.25-.673,2.25-2.25V10c0-1.577-.673-2.25-2.25-2.25H13a.747.747,0,0,1-.53-.22L9.689,4.75ZM11.7,15.7l3.333-3.333A.75.75,0,0,0,13.97,11.3l-2.8,2.8L10.03,12.97a.75.75,0,0,0-1.06,1.06L10.637,15.7a.748.748,0,0,0,1.06,0Z"/>
</svg>