<svg xmlns="http://www.w3.org/2000/svg" width="24" height="24" viewBox="0 0 24 24">
    <path d="M15.343,10.693a.75.75,0,0,0-1.011-.27l-.116.065a.484.484,0,0,1-.471,0,.414.414,0,0,1-.218-.356.883.883,0,0,0-.884-.881H11.309a.883.883,0,0,0-.885.881.415.415,0,0,1-.217.356.489.489,0,0,1-.472,0,.888.888,0,0,0-1.192.316l-.672,1.127a1.024,1.024,0,0,0-.091.673.887.887,0,0,0,.42.538.4.4,0,0,1,0,.718.883.883,0,0,0-.418.542,1.01,1.01,0,0,0,.095.67l.67,1.125a.883.883,0,0,0,1.192.315.48.48,0,0,1,.469,0h0a.413.413,0,0,1,.217.356.883.883,0,0,0,.885.881h1.336a.883.883,0,0,0,.883-.881.414.414,0,0,1,.218-.356.487.487,0,0,1,.471,0,.881.881,0,0,0,1.193-.317l.666-1.118a1,1,0,0,0,.1-.676.883.883,0,0,0-.42-.542l-.012-.007a.4.4,0,0,1,.01-.71l.116-.065a.75.75,0,0,0,.278-1.038Zm-.826,4.069-.138.231a1.991,1.991,0,0,0-1.37.213,1.933,1.933,0,0,0-.876,1.044h-.315a1.929,1.929,0,0,0-.876-1.044,1.991,1.991,0,0,0-1.37-.214l-.136-.229a1.89,1.89,0,0,0,0-2.525l.137-.231a1.99,1.99,0,0,0,1.371-.213,1.931,1.931,0,0,0,.875-1.044h.315a1.923,1.923,0,0,0,.876,1.043,1.986,1.986,0,0,0,1.37.214l.138.23a1.889,1.889,0,0,0,0,2.525ZM13.02,13.5a1,1,0,1,1-1.01-1h.01A1,1,0,0,1,13.02,13.5ZM18,6.25H13.311L10.53,3.47A.747.747,0,0,0,10,3.25H6A3.383,3.383,0,0,0,2.25,7V17A3.383,3.383,0,0,0,6,20.75H18A3.383,3.383,0,0,0,21.75,17V10A3.383,3.383,0,0,0,18,6.25ZM20.25,17c0,1.577-.673,2.25-2.25,2.25H6c-1.577,0-2.25-.673-2.25-2.25V7c0-1.577.673-2.25,2.25-2.25H9.689L12.47,7.53a.747.747,0,0,0,.53.22h5c1.577,0,2.25.673,2.25,2.25Z"/>
</svg>