<svg xmlns="http://www.w3.org/2000/svg" width="24" height="24" viewBox="0 0 24 24">
    <path d="m21,16.25h-.348c.06-.417.098-.835.098-1.25,0-4.132-2.883-7.596-6.741-8.508.149-.301.241-.634.241-.992,0-1.241-1.01-2.25-2.25-2.25s-2.25,1.009-2.25,2.25c0,.358.092.691.241.992-3.858.911-6.741,4.376-6.741,8.508,0,.415.038.833.098,1.25h-.348c-.414,0-.75.336-.75.75v1.5c0,1.241,1.01,2.25,2.25,2.25h15c1.24,0,2.25-1.009,2.25-2.25v-1.5c0-.414-.336-.75-.75-.75ZM11.25,5.5c0-.414.337-.75.75-.75s.75.336.75.75-.337.75-.75.75-.75-.336-.75-.75Zm-6.5,9.5c0-3.998,3.252-7.25,7.25-7.25s7.25,3.252,7.25,7.25c0,.414-.049.833-.121,1.25H4.871c-.072-.417-.121-.836-.121-1.25Zm15.5,3.5c0,.414-.337.75-.75.75H4.5c-.413,0-.75-.336-.75-.75v-.75h16.5v.75Zm-3.542-6.896c.218.352.109.814-.242,1.033-.123.077-.26.113-.395.113-.251,0-.496-.125-.638-.354-.519-.834-1.501-1.469-2.564-1.657-.407-.072-.68-.461-.607-.869.071-.408.455-.68.869-.608,1.492.264,2.829,1.14,3.577,2.343Z"/>
</svg>