<svg xmlns="http://www.w3.org/2000/svg" width="24" height="24" viewBox="0 0 24 24">
    <path d="m21.503,13.444c-.157-.142-.367-.211-.578-.19l-4.848.486-1.251-3.335,4.297-.391c.386-.035.74-.251.949-.579.207-.325.251-.717.122-1.077-1.438-3.978-5.391-6.464-9.606-6.064C6.091,2.729,2.513,6.463,2.264,10.98c-.157,2.852.978,5.569,3.112,7.455h0c.23.204.528.315.838.315h1.865c.899,0,1.708.499,2.112,1.303.213.423.64.686,1.113.688l2.952.007h.003c.415,0,.801-.205,1.034-.547.234-.344.281-.78.127-1.167l-1.431-3.578,1.088-.109,1.489,3.97c.545,1.456,1.957,2.433,3.511,2.433h.921c.414,0,.75-.336.75-.75v-7c0-.212-.09-.414-.247-.556Zm-10.044,5.797c-.681-1.232-1.962-1.991-3.379-1.991h-1.779c-1.744-1.577-2.668-3.827-2.539-6.187.208-3.784,3.205-6.912,6.971-7.275,3.417-.329,6.632,1.616,7.928,4.762l-5.725.521c-.714.065-1.339.454-1.714,1.066-.375.612-.437,1.345-.17,2.011l2.84,7.1-2.432-.006Zm1.951-5.234l-.967-2.417c-.089-.222-.068-.466.057-.67s.333-.333.571-.355l.206-.019,1.256,3.349-1.123.113Zm6.839.822v1.491l-3.089.306-.538-1.434,3.627-.363Zm-.171,5.421c-.933,0-1.779-.586-2.106-1.46l-.266-.71,2.544-.252v2.422h-.171Zm-10.059-5.25c0,.552-.448,1-1,1s-1.005-.448-1.005-1,.442-1,.995-1h.01c.552,0,1,.448,1,1Z"/>
</svg>