<svg xmlns="http://www.w3.org/2000/svg" width="24" height="24" viewBox="0 0 24 24">
    <path d="m12.75,3v4c0,2.086-1.514,3.818-3.5,4.174v9.826c0,.414-.336.75-.75.75s-.75-.336-.75-.75v-9.826c-1.986-.356-3.5-2.088-3.5-4.174V3c0-.414.336-.75.75-.75s.75.336.75.75v4c0,1.517,1.233,2.75,2.75,2.75s2.75-1.233,2.75-2.75V3c0-.414.336-.75.75-.75s.75.336.75.75Zm-3.25,5.25c.414,0,.75-.336.75-.75V3c0-.414-.336-.75-.75-.75s-.75.336-.75.75v4.5c0,.414.336.75.75.75Zm-2,0c.414,0,.75-.336.75-.75V3c0-.414-.336-.75-.75-.75s-.75.336-.75.75v4.5c0,.414.336.75.75.75Zm12.25-5.25v18c0,.414-.336.75-.75.75s-.75-.336-.75-.75v-5.25h-3.25c-.689,0-1.25-.561-1.25-1.25v-5.5c0-6.673,5.197-6.75,5.25-6.75.414,0,.75.336.75.75Zm-1.5.863c-1.108.294-3,1.352-3,5.137v5.25h3V3.863Z"/>
</svg>