<svg xmlns="http://www.w3.org/2000/svg" width="24" height="24" viewBox="0 0 24 24">
    <path d="m18.409,3.644c-.235-.25-.568-.394-.912-.394H6.5c-.343,0-.675.144-.91.394s-.358.59-.337.935l.795,12.657c.132,2.102,1.721,3.515,3.952,3.515h4c2.231,0,3.82-1.413,3.952-3.515l.796-12.655c.021-.344-.103-.685-.339-.936Zm-1.175,1.106l-.234,3.725c-.636.189-2.173.455-4.82-.203-2.335-.581-4.164-.419-5.207-.22l-.207-3.302h10.468Zm-.778,12.391c-.064,1.02-.744,2.109-2.456,2.109h-4c-1.712,0-2.392-1.089-2.456-2.109l-.475-7.576c.808-.176,2.505-.396,4.75.162,1.405.349,2.552.469,3.462.469.663,0,1.198-.064,1.62-.148l-.446,7.092Z"/>
</svg>