<svg xmlns="http://www.w3.org/2000/svg" width="24" height="24" viewBox="0 0 24 24">
    <path d="M8.5,12.75h-3A2.067,2.067,0,0,1,3.25,10.5v-5A2.067,2.067,0,0,1,5.5,3.25h3A2.067,2.067,0,0,1,10.75,5.5v5A2.067,2.067,0,0,1,8.5,12.75Zm-3-8c-.589,0-.75.161-.75.75v5c0,.589.161.75.75.75h3c.589,0,.75-.161.75-.75v-5c0-.589-.161-.75-.75-.75Zm3,16h-3A2.067,2.067,0,0,1,3.25,18.5v-1A2.067,2.067,0,0,1,5.5,15.25h3a2.067,2.067,0,0,1,2.25,2.25v1A2.067,2.067,0,0,1,8.5,20.75Zm-3-4c-.589,0-.75.161-.75.75v1c0,.589.161.75.75.75h3c.589,0,.75-.161.75-.75v-1c0-.589-.161-.75-.75-.75Zm13,4h-3a2.067,2.067,0,0,1-2.25-2.25v-5a2.067,2.067,0,0,1,2.25-2.25h3a2.067,2.067,0,0,1,2.25,2.25v5A2.067,2.067,0,0,1,18.5,20.75Zm-3-8c-.589,0-.75.161-.75.75v5c0,.589.161.75.75.75h3c.589,0,.75-.161.75-.75v-5c0-.589-.161-.75-.75-.75Zm3-4h-3A2.067,2.067,0,0,1,13.25,6.5v-1A2.067,2.067,0,0,1,15.5,3.25h3A2.067,2.067,0,0,1,20.75,5.5v1A2.067,2.067,0,0,1,18.5,8.75Zm-3-4c-.589,0-.75.161-.75.75v1c0,.589.161.75.75.75h3c.589,0,.75-.161.75-.75v-1c0-.589-.161-.75-.75-.75Z"/>
</svg>