<svg xmlns="http://www.w3.org/2000/svg" width="24" height="24" viewBox="0 0 24 24">
    <path d="M18.5,10.75H5.5A2.067,2.067,0,0,1,3.25,8.5v-3A2.067,2.067,0,0,1,5.5,3.25h13A2.067,2.067,0,0,1,20.75,5.5v3A2.067,2.067,0,0,1,18.5,10.75Zm-13-6c-.589,0-.75.161-.75.75v3c0,.589.161.75.75.75h13c.589,0,.75-.161.75-.75v-3c0-.589-.161-.75-.75-.75Zm13,16H5.5A2.067,2.067,0,0,1,3.25,18.5v-3A2.067,2.067,0,0,1,5.5,13.25h13a2.067,2.067,0,0,1,2.25,2.25v3A2.067,2.067,0,0,1,18.5,20.75Zm-13-6c-.589,0-.75.161-.75.75v3c0,.589.161.75.75.75h13c.589,0,.75-.161.75-.75v-3c0-.589-.161-.75-.75-.75Z"/>
</svg>