<svg xmlns="http://www.w3.org/2000/svg" width="24" height="24" viewBox="0 0 24 24">
    <path d="M7,10.75A3.75,3.75,0,1,1,10.75,7,3.755,3.755,0,0,1,7,10.75Zm0-6A2.25,2.25,0,1,0,9.25,7,2.253,2.253,0,0,0,7,4.75Zm10,6A3.75,3.75,0,1,1,20.75,7,3.755,3.755,0,0,1,17,10.75Zm0-6A2.25,2.25,0,1,0,19.25,7,2.253,2.253,0,0,0,17,4.75Zm-10,16A3.75,3.75,0,1,1,10.75,17,3.755,3.755,0,0,1,7,20.75Zm0-6A2.25,2.25,0,1,0,9.25,17,2.253,2.253,0,0,0,7,14.75Zm10,6A3.75,3.75,0,1,1,20.75,17,3.755,3.755,0,0,1,17,20.75Zm0-6A2.25,2.25,0,1,0,19.25,17,2.253,2.253,0,0,0,17,14.75Z"/>
</svg>