<svg xmlns="http://www.w3.org/2000/svg" width="24" height="24" viewBox="0 0 24 24">
    <path d="M20.208,8.141,14.088,3.01a3.244,3.244,0,0,0-4.176,0L3.792,8.141C2.836,8.934,2.25,9.528,2.25,11.65V18A3.383,3.383,0,0,0,6,21.75H18A3.383,3.383,0,0,0,21.75,18V11.65C21.75,9.528,21.164,8.934,20.208,8.141ZM20.25,18c0,1.577-.673,2.25-2.25,2.25H6c-1.577,0-2.25-.673-2.25-2.25V11.65c0-1.525.252-1.734,1-2.355l6.126-5.136a1.752,1.752,0,0,1,2.25,0L19.251,9.3c.747.621,1,.83,1,2.355ZM14.7,13.664a.75.75,0,0,1-.908,1.194,3.043,3.043,0,0,0-3.592,0A.75.75,0,1,1,9.3,13.664,4.564,4.564,0,0,1,14.7,13.664ZM16.989,11.6a.75.75,0,1,1-.978,1.137,6.159,6.159,0,0,0-8.022,0A.75.75,0,0,1,7.011,11.6a7.658,7.658,0,0,1,9.978,0ZM13,16.5a1,1,0,1,1-1-1A1,1,0,0,1,13,16.5Z"/>
</svg>