<svg xmlns="http://www.w3.org/2000/svg" width="24" height="24" viewBox="0 0 24 24">
    <path d="M21.477,9.085l-7.413-6.1a3.258,3.258,0,0,0-4.128,0l-7.413,6.1a.75.75,0,1,0,.954,1.158l.773-.636V18A3.383,3.383,0,0,0,8,21.75h8A3.383,3.383,0,0,0,19.75,18V9.607l.773.636a.75.75,0,1,0,.954-1.158ZM18.25,18c0,1.577-.673,2.25-2.25,2.25H8c-1.577,0-2.25-.673-2.25-2.25V8.374l5.139-4.226a1.755,1.755,0,0,1,2.222,0L18.25,8.374Zm-5.5-8.3a2.235,2.235,0,0,1,1.736,1.945.75.75,0,0,1-.663.828A.758.758,0,0,1,13,11.805a.734.734,0,0,0-.721-.666h-.55a.737.737,0,0,0-.725.748.749.749,0,0,0,.152.459.733.733,0,0,0,.4.268l1.266.319A2.255,2.255,0,0,1,13.85,16.7a2.2,2.2,0,0,1-1.1.609V17.5a.75.75,0,0,1-1.5,0v-.2A2.235,2.235,0,0,1,9.514,15.36a.75.75,0,0,1,.663-.828A.758.758,0,0,1,11,15.2a.734.734,0,0,0,.721.666h.55a.7.7,0,0,0,.506-.215.756.756,0,0,0-.333-1.26l-1.266-.319a2.252,2.252,0,0,1,.068-4.374V9.5a.75.75,0,0,1,1.5,0Z"/>
</svg>