<svg xmlns="http://www.w3.org/2000/svg" width="24" height="24" viewBox="0 0 24 24">
    <path d="M20.208,8.141,14.088,3.01a3.244,3.244,0,0,0-4.176,0L3.792,8.141C2.836,8.934,2.25,9.528,2.25,11.65V18A3.383,3.383,0,0,0,6,21.75H18A3.383,3.383,0,0,0,21.75,18V11.65C21.75,9.528,21.164,8.934,20.208,8.141ZM20.25,18c0,1.577-.673,2.25-2.25,2.25H6c-1.577,0-2.25-.673-2.25-2.25V11.65c0-1.525.252-1.734,1-2.355l6.126-5.136a1.752,1.752,0,0,1,2.25,0L19.251,9.3c.747.621,1,.83,1,2.355Zm-3.558-5.973a.75.75,0,0,1,.058.286v2.5a.75.75,0,1,1-1.5,0v-.689l-1.559,1.558a1.477,1.477,0,0,1-2.038,0L10.475,14.5,8.53,16.53a.75.75,0,0,1-1.06-1.06L9.5,13.442a1.477,1.477,0,0,1,2.039,0l1.178,1.179,1.513-1.559H13.5a.75.75,0,0,1,0-1.5H16a.752.752,0,0,1,.692.464Z"/>
</svg>