<svg xmlns="http://www.w3.org/2000/svg" width="24" height="24" viewBox="0 0 24 24">
    <path d="M20.747,8.483,14.065,2.99a3.258,3.258,0,0,0-4.13,0L3.253,8.483A2.754,2.754,0,0,0,2.294,11.1l1.455,7.983a3.25,3.25,0,0,0,3.2,2.667H17.053a3.25,3.25,0,0,0,3.2-2.667L21.706,11.1A2.754,2.754,0,0,0,20.747,8.483Zm-.518,2.348-1.455,7.983a1.749,1.749,0,0,1-1.721,1.436H6.947a1.749,1.749,0,0,1-1.721-1.436L3.771,10.832a1.244,1.244,0,0,1,.435-1.19l6.682-5.494a1.754,1.754,0,0,1,2.224,0l6.682,5.493A1.248,1.248,0,0,1,20.229,10.831Zm-3.537.214a.751.751,0,0,1,.058.287v2.5a.75.75,0,0,1-1.5,0v-.69L13.691,14.7a1.477,1.477,0,0,1-2.038,0l-1.178-1.18L8.53,15.549a.75.75,0,0,1-1.06-1.061L9.5,12.461a1.478,1.478,0,0,1,2.039,0l1.178,1.179,1.513-1.558H13.5a.75.75,0,0,1,0-1.5H16a.769.769,0,0,1,.287.057A.756.756,0,0,1,16.692,11.045Z"/>
</svg>