<svg xmlns="http://www.w3.org/2000/svg" width="24" height="24" viewBox="0 0 24 24">
    <path d="M21.477,9.085l-7.413-6.1a3.258,3.258,0,0,0-4.128,0l-7.413,6.1a.75.75,0,1,0,.954,1.158l.773-.636V18A3.383,3.383,0,0,0,8,21.75h8A3.383,3.383,0,0,0,19.75,18V9.607l.773.636a.75.75,0,1,0,.954-1.158ZM18.25,18c0,1.577-.673,2.25-2.25,2.25H8c-1.577,0-2.25-.673-2.25-2.25V8.374l5.139-4.226a1.755,1.755,0,0,1,2.222,0L18.25,8.374ZM13,16.512a1,1,0,1,1-1-1A1,1,0,0,1,13,16.512Zm1.7-2.848a.75.75,0,0,1-.908,1.194,3.043,3.043,0,0,0-3.592,0A.75.75,0,1,1,9.3,13.664,4.564,4.564,0,0,1,14.7,13.664ZM12,9.75A7.648,7.648,0,0,1,16.989,11.6a.75.75,0,1,1-.978,1.137,6.159,6.159,0,0,0-8.022,0A.75.75,0,0,1,7.011,11.6,7.648,7.648,0,0,1,12,9.75Z"/>
</svg>