<svg xmlns="http://www.w3.org/2000/svg" width="24" height="24" viewBox="0 0 24 24">
    <path d="M20.747,8.483,14.065,2.99a3.258,3.258,0,0,0-4.13,0L3.253,8.483A2.754,2.754,0,0,0,2.294,11.1l1.455,7.983a3.25,3.25,0,0,0,3.2,2.667H17.053a3.25,3.25,0,0,0,3.2-2.667L21.706,11.1A2.754,2.754,0,0,0,20.747,8.483Zm-.518,2.348-1.455,7.983a1.749,1.749,0,0,1-1.721,1.436H6.947a1.749,1.749,0,0,1-1.721-1.436L3.771,10.832a1.244,1.244,0,0,1,.435-1.19l6.682-5.494a1.754,1.754,0,0,1,2.224,0l6.682,5.493A1.248,1.248,0,0,1,20.229,10.831ZM16.75,12.519v2.5a.753.753,0,0,1-.463.691.734.734,0,0,1-.287.059H13.5a.75.75,0,0,1,0-1.5h.689L12.631,12.71l-1.1,1.179a1.477,1.477,0,0,1-2.039,0L7.47,11.862A.75.75,0,0,1,8.53,10.8l2.028,2.028,1.1-1.179a1.476,1.476,0,0,1,2.039,0l1.558,1.558v-.689a.75.75,0,1,1,1.5,0Z"/>
</svg>