<svg xmlns="http://www.w3.org/2000/svg" width="24" height="24" viewBox="0 0 24 24">
    <path d="M19.75,6.262V4.5A2.253,2.253,0,0,0,17.5,2.25H6.5A2.253,2.253,0,0,0,4.25,4.5V6.256A3.091,3.091,0,0,0,6.144,9.515L10.507,12,6.144,14.485A3.091,3.091,0,0,0,4.25,17.744V19.5A2.253,2.253,0,0,0,6.5,21.75h11a2.253,2.253,0,0,0,2.25-2.25V17.738a3.089,3.089,0,0,0-1.885-3.253L13.53,12l4.335-2.485A3.089,3.089,0,0,0,19.75,6.262Zm-2.631,9.525c.869.5,1.131.648,1.131,1.951V19.5a.751.751,0,0,1-.75.75H6.5a.751.751,0,0,1-.75-.75V17.744c0-1.308.264-1.458,1.136-1.955l5.135-2.925Zm0-7.574-5.1,2.923L6.886,8.211c-.872-.5-1.136-.647-1.136-1.955V4.5a.751.751,0,0,1,.75-.75h11a.751.751,0,0,1,.75.75V6.262C18.25,7.565,17.988,7.715,17.119,8.213Z"/>
</svg>