<svg xmlns="http://www.w3.org/2000/svg" width="24" height="24" viewBox="0 0 24 24">
    <path d="M22.175,5.015a3.45,3.45,0,0,0-2.388-1.23L9.227,2.3A3.43,3.43,0,0,0,6.6,2.825,3.447,3.447,0,0,0,5.368,5.211L5.221,6.248H4.667A3.082,3.082,0,0,0,1.25,9.665v8.668A3.082,3.082,0,0,0,4.667,21.75H15.335c1.909,0,3.072-.914,3.35-2.59A3.014,3.014,0,0,0,21.5,16.223l1.2-8.58A3.427,3.427,0,0,0,22.175,5.015ZM4.667,7.748H15.335c1.362,0,1.918.555,1.918,1.917v5.079L13.83,11.321a1.644,1.644,0,0,0-2.323,0L7.334,15.494l-.616-.617a1.645,1.645,0,0,0-2.323,0L2.75,16.522V9.665C2.75,8.3,3.306,7.748,4.667,7.748Zm10.668,12.5H4.667c-1.256,0-1.82-.481-1.9-1.623l2.689-2.689a.147.147,0,0,1,.2,0l.836.836a1.191,1.191,0,0,0,1.683,0l4.391-4.392a.148.148,0,0,1,.2,0l4.483,4.483v1.468C17.253,19.7,16.7,20.25,15.335,20.25ZM21.21,7.434l-1.2,8.578c-.145,1.007-.526,1.514-1.258,1.638V9.665a3.082,3.082,0,0,0-3.418-3.417h-8.6l.118-.826a2.04,2.04,0,0,1,.648-1.4A2.02,2.02,0,0,1,9.017,3.79L19.578,5.27a2.048,2.048,0,0,1,1.4.647A2.028,2.028,0,0,1,21.21,7.434ZM5.517,11.5a1,1,0,0,1,.994-1h.008a1,1,0,1,1-1,1Z"/>
</svg>