<svg xmlns="http://www.w3.org/2000/svg" width="24" height="24" viewBox="0 0 24 24">
    <path d="M15,2.25A6.758,6.758,0,0,0,8.25,9a6.684,6.684,0,0,0,.173,1.517L2.47,16.47a.747.747,0,0,0-.22.53v4a.75.75,0,0,0,.75.75H7A.75.75,0,0,0,7.75,21V18.75H10a.747.747,0,0,0,.53-.22l2.953-2.953A6.678,6.678,0,0,0,15,15.75a6.75,6.75,0,0,0,0-13.5Zm0,12a5.118,5.118,0,0,1-1.519-.227.75.75,0,0,0-.752.187l-3.04,3.04H7a.75.75,0,0,0-.75.75v2.25H3.75V17.311l6.04-6.04a.752.752,0,0,0,.187-.752A5.118,5.118,0,0,1,9.75,9,5.25,5.25,0,1,1,15,14.25ZM17.27,8a1.253,1.253,0,1,1-1.26-1.25h.01A1.25,1.25,0,0,1,17.27,8Z"/>
</svg>