<svg xmlns="http://www.w3.org/2000/svg" width="24" height="24" viewBox="0 0 24 24">
    <path d="M12.5,1.25A2.25,2.25,0,1,0,14.75,3.5,2.253,2.253,0,0,0,12.5,1.25Zm0,3a.75.75,0,1,1,.75-.75A.751.751,0,0,1,12.5,4.25Zm6,1.5A2.25,2.25,0,1,0,16.25,3.5,2.253,2.253,0,0,0,18.5,5.75Zm0-3a.75.75,0,1,1-.75.75A.751.751,0,0,1,18.5,2.75Zm-12-1.5A2.25,2.25,0,1,0,8.75,3.5,2.253,2.253,0,0,0,6.5,1.25Zm0,3a.75.75,0,1,1,.75-.75A.751.751,0,0,1,6.5,4.25Zm6,2.667a2.25,2.25,0,1,0,2.25,2.25A2.253,2.253,0,0,0,12.5,6.917Zm0,3a.75.75,0,1,1,.75-.75A.752.752,0,0,1,12.5,9.917Zm6-3a2.25,2.25,0,1,0,2.25,2.25A2.253,2.253,0,0,0,18.5,6.917Zm0,3a.75.75,0,1,1,.75-.75A.752.752,0,0,1,18.5,9.917Zm-12-3a2.25,2.25,0,1,0,2.25,2.25A2.253,2.253,0,0,0,6.5,6.917Zm0,3a.75.75,0,1,1,.75-.75A.752.752,0,0,1,6.5,9.917Zm6,2.666a2.25,2.25,0,1,0,2.25,2.25A2.253,2.253,0,0,0,12.5,12.583Zm0,3a.75.75,0,1,1,.75-.75A.751.751,0,0,1,12.5,15.583Zm6-3a2.25,2.25,0,1,0,2.25,2.25A2.253,2.253,0,0,0,18.5,12.583Zm0,3a.75.75,0,1,1,.75-.75A.751.751,0,0,1,18.5,15.583Zm-12-3a2.25,2.25,0,1,0,2.25,2.25A2.253,2.253,0,0,0,6.5,12.583Zm0,3a.75.75,0,1,1,.75-.75A.751.751,0,0,1,6.5,15.583Zm6,2.667a2.25,2.25,0,1,0,2.25,2.25A2.253,2.253,0,0,0,12.5,18.25Zm0,3a.75.75,0,1,1,.75-.75A.751.751,0,0,1,12.5,21.25Z"/>
</svg>