<svg xmlns="http://www.w3.org/2000/svg" width="24" height="24" viewBox="0 0 24 24">
    <path d="m19.578,12.001c-.721-1.167-2.408-4.343-2.502-8.625-.015-.632-.517-1.126-1.144-1.126h-7.865c-.627,0-1.129.495-1.144,1.127-.094,4.281-1.781,7.458-2.503,8.626-.218.354-.227.797-.024,1.158.203.364.589.589,1.007.589h5.847v6.5h-1.75c-.414,0-.75.336-.75.75s.336.75.75.75h5c.414,0,.75-.336.75-.75s-.336-.75-.75-.75h-1.75v-6.5h2v2.25c0,.414.336.75.75.75s.75-.336.75-.75v-2.25h2.347c.418,0,.804-.226,1.007-.589.202-.361.193-.804-.025-1.159ZM8.413,3.75h7.174c.086,2.134.536,3.992,1.062,5.5H7.351c.527-1.509.976-3.367,1.062-5.5Zm-2.398,8.5c.223-.398.483-.905.748-1.5h10.476c.265.595.524,1.102.748,1.5H6.015Z"/>
</svg>