<svg xmlns="http://www.w3.org/2000/svg" width="24" height="24" viewBox="0 0 24 24">
    <path d="m21.432,6.28c.208-.394.318-.836.318-1.28,0-1.516-1.233-2.75-2.75-2.75-.442,0-.885.11-1.28.318-.267.142-.677.283-1.104.146-3.41-1.076-7.566.177-10.586,3.196-3.003,3.003-4.27,7.141-3.227,10.54.144.468-.017.89-.176,1.161-.247.419-.377.9-.377,1.389,0,1.517,1.233,2.75,2.75,2.75.489,0,.97-.13,1.39-.376.271-.159.69-.317,1.16-.176,3.398,1.045,7.537-.224,10.54-3.228,3.02-3.02,4.274-7.175,3.196-10.586-.135-.427.005-.836.146-1.104Zm-1.575,1.556c.91,2.884-.199,6.445-2.827,9.074-2.616,2.616-6.166,3.735-9.039,2.854-.773-.238-1.61-.125-2.36.316-.189.111-.407.17-.63.17-.689,0-1.25-.561-1.25-1.25,0-.222.059-.44.17-.629.44-.75.553-1.589.316-2.361-.882-2.875.238-6.423,2.854-9.04,2.018-2.018,4.586-3.14,6.976-3.14.723,0,1.429.103,2.099.314.72.227,1.521.139,2.256-.25.18-.095.38-.145.58-.145.689,0,1.25.561,1.25,1.25,0,.2-.05.4-.145.579,0,0,0,0,0,0-.387.736-.476,1.537-.248,2.256Zm-9.837,8.664c0,.552-.447,1-1,1s-1.005-.448-1.005-1,.443-1,.995-1h.01c.553,0,1,.448,1,1Zm4,0c0,.552-.447,1-1,1s-1.005-.448-1.005-1,.443-1,.995-1h.01c.553,0,1,.448,1,1Zm-2-3c0,.552-.447,1-1,1s-1.005-.448-1.005-1,.443-1,.995-1h.01c.553,0,1,.448,1,1Z"/>
</svg>