<svg xmlns="http://www.w3.org/2000/svg" width="24" height="24" viewBox="0 0 24 24">
    <path d="M17.625,2.25H6.375c-2.66,0-4.125,1.465-4.125,4.125v11.25c0,2.66,1.465,4.125,4.125,4.125h11.25c2.66,0,4.125-1.465,4.125-4.125V6.375C21.75,3.715,20.285,2.25,17.625,2.25ZM20.25,17.625c0,1.84-.785,2.625-2.625,2.625H6.375c-1.84,0-2.625-.785-2.625-2.625V6.375c0-1.84.785-2.625,2.625-2.625h11.25c1.84,0,2.625.785,2.625,2.625Zm-2.5-6.2V14.3a.753.753,0,0,1-.75.75H14.12a.75.75,0,0,1,0-1.5h1.069l-2.267-2.267a.115.115,0,0,0-.162,0L11.287,12.76A1.615,1.615,0,0,1,9,12.76L6.47,10.226a.75.75,0,0,1,1.06-1.06L10.064,11.7a.131.131,0,0,0,.162,0L11.7,10.226a1.655,1.655,0,0,1,2.282,0l2.268,2.268v-1.07a.75.75,0,0,1,1.5,0Z"/>
</svg>