<svg xmlns="http://www.w3.org/2000/svg" width="24" height="24" viewBox="0 0 24 24">
    <path d="M12,21.75a.749.749,0,0,1-.416-.126l-.529-.351C7.947,19.22,3.25,16.118,3.25,11a8.75,8.75,0,0,1,17.5,0c0,5.118-4.7,8.22-7.8,10.273l-.529.351A.749.749,0,0,1,12,21.75Zm0-18A7.258,7.258,0,0,0,4.75,11c0,4.311,4.122,7.034,7.131,9.021L12,20.1l.119-.079c3.009-1.987,7.131-4.71,7.131-9.021A7.258,7.258,0,0,0,12,3.75Zm-.3,9.78L15.03,10.2a.75.75,0,0,0-1.06-1.061l-2.8,2.8L10.03,10.8a.75.75,0,1,0-1.06,1.061l1.666,1.666a.75.75,0,0,0,1.061,0Z"/>
</svg>