<svg xmlns="http://www.w3.org/2000/svg" width="24" height="24" viewBox="0 0 24 24">
    <path d="M12.469,21.75c-.05,0-.1,0-.152-.006a1.808,1.808,0,0,1-1.606-1.316l-1.09-3.817a3.232,3.232,0,0,0-2.232-2.232l-3.817-1.09a1.823,1.823,0,0,1-.275-3.4L19.146,2.427h0a1.824,1.824,0,0,1,2.427,2.427L14.114,20.7A1.807,1.807,0,0,1,12.469,21.75ZM19.785,3.785,3.936,11.243a.324.324,0,0,0,.048.6L7.8,12.937A4.72,4.72,0,0,1,11.063,16.2l1.09,3.817a.307.307,0,0,0,.285.233.315.315,0,0,0,.319-.185L20.215,4.215a.323.323,0,0,0-.43-.43Z"/>
</svg>