<svg xmlns="http://www.w3.org/2000/svg" width="24" height="24" viewBox="0 0 24 24">
    <path d="M21.75,12a.75.75,0,0,1-.75.75H19.712a7.761,7.761,0,0,1-6.962,6.962V21a.75.75,0,0,1-1.5,0V19.713A7.764,7.764,0,0,1,9.2,19.229a.75.75,0,1,1,.539-1.4,6.256,6.256,0,0,0,8.09-8.09.75.75,0,0,1,1.4-.539,7.773,7.773,0,0,1,.484,2.049H21A.75.75,0,0,1,21.75,12ZM3.53,21.53a.75.75,0,0,1-1.06-1.06l3.545-3.546A7.679,7.679,0,0,1,4.286,12.75H3a.75.75,0,0,1,0-1.5H4.288A7.761,7.761,0,0,1,11.25,4.288V3a.75.75,0,0,1,1.5,0V4.286a7.679,7.679,0,0,1,4.174,1.729L20.47,2.47a.75.75,0,0,1,1.06,1.06Zm6.825-8.946,2.229-2.229a1.739,1.739,0,0,0-2.229,2.229Zm-3.27,3.271L9.238,13.7A3.242,3.242,0,0,1,13.7,9.238l2.153-2.153a6.246,6.246,0,0,0-8.77,8.77Z"/>
</svg>