<svg xmlns="http://www.w3.org/2000/svg" width="24" height="24" viewBox="0 0 24 24">
    <path d="M16.75,8.3V7a4.75,4.75,0,0,0-9.5,0V8.3c-1.938.258-3,1.543-3,3.7v6A3.383,3.383,0,0,0,8,21.75h8A3.383,3.383,0,0,0,19.75,18V12C19.75,9.847,18.688,8.562,16.75,8.3ZM12,3.75A3.254,3.254,0,0,1,15.25,7V8.25H8.75V7A3.254,3.254,0,0,1,12,3.75ZM18.25,18c0,1.577-.673,2.25-2.25,2.25H8c-1.577,0-2.25-.673-2.25-2.25V12c0-1.577.673-2.25,2.25-2.25h8c1.577,0,2.25.673,2.25,2.25Zm-4.98-4a1.226,1.226,0,0,1-.52.987V17a.75.75,0,0,1-1.5,0V14.962A1.226,1.226,0,0,1,10.765,14a1.246,1.246,0,0,1,1.245-1.25h.01A1.25,1.25,0,0,1,13.27,14Z"/>
</svg>