<svg xmlns="http://www.w3.org/2000/svg" width="24" height="24" viewBox="0 0 24 24">
    <path d="m16,1.25c-2.362,0-4.312,1.738-4.674,4h-7.326c-.284,0-.544.161-.671.415s-.1.558.071.786l5.85,7.799v4.528c-.243.345-.951,1.151-2.692,1.975-.446.211-.682.695-.574,1.177.108.482.529.82,1.023.82h5.986c.494,0,.915-.337,1.023-.82.107-.482-.128-.966-.574-1.177-1.739-.823-2.448-1.63-2.692-1.975v-4.529l3.036-4.048c.68.36,1.434.549,2.214.549,2.619,0,4.75-2.131,4.75-4.75s-2.131-4.75-4.75-4.75Zm-1.5,5.5l-4.5,6-4.5-6h9Zm-3.232,14.5h-2.535c.559-.373.969-.729,1.268-1.038.3.309.71.665,1.268,1.038Zm4.732-12c-.451,0-.885-.101-1.292-.279l1.891-2.521c.171-.228.198-.532.071-.786s-.387-.415-.671-.415h-3.154c.341-1.43,1.621-2.5,3.154-2.5,1.792,0,3.25,1.458,3.25,3.25s-1.458,3.25-3.25,3.25Z"/>
</svg>