<svg xmlns="http://www.w3.org/2000/svg" width="24" height="24" viewBox="0 0 24 24">
    <path d="M21.657,2.639A.75.75,0,0,0,21,2.25H16a.749.749,0,0,0-.633.348L12.4,7.27c-.132-.007-.263-.02-.4-.02s-.265.013-.4.02L8.633,2.6A.749.749,0,0,0,8,2.25H3A.75.75,0,0,0,2.367,3.4L6.456,9.838a7.25,7.25,0,1,0,11.088,0L21.633,3.4A.751.751,0,0,0,21.657,2.639ZM7.588,3.75,10,7.538A7.2,7.2,0,0,0,7.561,8.781L4.365,3.75ZM12,20.25a5.75,5.75,0,1,1,5.75-5.75A5.756,5.756,0,0,1,12,20.25ZM16.439,8.781A7.2,7.2,0,0,0,14,7.538L16.412,3.75h3.223Zm-1.618,4.046-1.278-.185-.55-1.109a1.108,1.108,0,0,0-1.985,0l-.551,1.11-1.278.185a1.084,1.084,0,0,0-.6,1.849l.923.895-.21,1.215a1.107,1.107,0,0,0,1.605,1.17l1.1-.577,1.1.577a1.107,1.107,0,0,0,1.605-1.167l-.21-1.218.923-.895a1.084,1.084,0,0,0-.6-1.849ZM11.648,12.2h0ZM13.3,14.647a1.083,1.083,0,0,0-.315.961l.113.651-.592-.31a1.087,1.087,0,0,0-1.006,0l-.592.31.113-.651a1.085,1.085,0,0,0-.314-.961l-.472-.457.655-.095A1.083,1.083,0,0,0,11.7,13.5l.3-.6.3.6a1.085,1.085,0,0,0,.816.59l.656.095Z"/>
</svg>