<svg xmlns="http://www.w3.org/2000/svg" width="24" height="24" viewBox="0 0 24 24">
    <path d="m20.107,6.939c-.693,0-1.106.719-1.344,1.729-.588-1.364-1.535-2.23-2.656-2.23-1.331,0-2.417,1.218-2.943,3.05-.934-1.914-2.895-3.239-5.165-3.239-3.171,0-5.75,2.58-5.75,5.75s2.579,5.75,5.75,5.75c2.27,0,4.23-1.325,5.165-3.239.525,1.833,1.612,3.05,2.943,3.05,1.121,0,2.068-.866,2.656-2.23.239,1.01.651,1.729,1.344,1.729,1.357,0,1.643-2.752,1.643-5.061s-.285-5.061-1.643-5.061Zm-12.107,9.311c-2.344,0-4.25-1.907-4.25-4.25s1.906-4.25,4.25-4.25,4.25,1.907,4.25,4.25-1.906,4.25-4.25,4.25Zm8.107-.188c-.844,0-1.788-1.737-1.788-4.062s.944-4.062,1.788-4.062,1.788,1.737,1.788,4.062-.944,4.062-1.788,4.062Zm4-1.779c-.082-.597-.143-1.365-.143-2.283s.061-1.686.143-2.283c.082.597.143,1.365.143,2.283s-.061,1.686-.143,2.283Z"/>
</svg>