<svg xmlns="http://www.w3.org/2000/svg" width="24" height="24" viewBox="0 0 24 24">
    <path d="M3,21.75A.75.75,0,0,1,2.25,21V6A3.383,3.383,0,0,1,6,2.25H18A3.383,3.383,0,0,1,21.75,6v9A3.383,3.383,0,0,1,18,18.75H6.311L3.53,21.53A.746.746,0,0,1,3,21.75Zm3-18c-1.577,0-2.25.673-2.25,2.25V19.189L5.47,17.47A.747.747,0,0,1,6,17.25H18c1.577,0,2.25-.673,2.25-2.25V6c0-1.577-.673-2.25-2.25-2.25Zm8.292,11.5a1.251,1.251,0,0,1-.583-.144L12,14.215l-1.708.89a1.255,1.255,0,0,1-1.82-1.324L8.8,11.905,7.372,10.527a1.219,1.219,0,0,1,.677-2.083l1.973-.285.852-1.713a1.259,1.259,0,0,1,2.252,0l.852,1.713,1.974.285a1.219,1.219,0,0,1,.676,2.083L15.2,11.9l.325,1.879a1.258,1.258,0,0,1-1.237,1.467ZM12,12.68a1.229,1.229,0,0,1,.566.138l1.4.731L13.7,12.013a1.219,1.219,0,0,1,.356-1.084l1.118-1.082L13.62,9.623a1.228,1.228,0,0,1-.92-.665L12,7.551l-.7,1.407a1.231,1.231,0,0,1-.92.665l-1.555.224,1.119,1.082a1.221,1.221,0,0,1,.355,1.084l-.266,1.535,1.4-.73A1.229,1.229,0,0,1,12,12.68Zm3.738-2.752h0ZM11.782,7.114h0Z"/>
</svg>