<svg xmlns="http://www.w3.org/2000/svg" width="24" height="24" viewBox="0 0 24 24">
    <path d="M3,21.75A.75.75,0,0,1,2.25,21V6A3.383,3.383,0,0,1,6,2.25H18A3.383,3.383,0,0,1,21.75,6v5a.75.75,0,0,1-1.5,0V6c0-1.577-.673-2.25-2.25-2.25H6c-1.577,0-2.25.673-2.25,2.25V19.189L5.47,17.47A.747.747,0,0,1,6,17.25h6a.75.75,0,0,1,0,1.5H6.311L3.53,21.53A.746.746,0,0,1,3,21.75Zm15.2-3.22L21.53,15.2a.75.75,0,0,0-1.06-1.061l-2.8,2.8L16.53,15.8a.75.75,0,1,0-1.06,1.061l1.667,1.666a.748.748,0,0,0,1.06,0Z"/>
</svg>