<svg xmlns="http://www.w3.org/2000/svg" width="24" height="24" viewBox="0 0 24 24">
    <path d="M12,8.25A3.75,3.75,0,1,0,15.75,12,3.754,3.754,0,0,0,12,8.25Zm0,6A2.25,2.25,0,1,1,14.25,12,2.252,2.252,0,0,1,12,14.25Zm6-10H6A3.383,3.383,0,0,0,2.25,8v8A3.383,3.383,0,0,0,6,19.75H18A3.383,3.383,0,0,0,21.75,16V8A3.383,3.383,0,0,0,18,4.25ZM20.25,16c0,1.577-.673,2.25-2.25,2.25H6c-1.577,0-2.25-.673-2.25-2.25V8c0-1.577.673-2.25,2.25-2.25H18c1.577,0,2.25.673,2.25,2.25ZM7,12a1,1,0,1,1-1-1A1,1,0,0,1,7,12Zm12,0a1,1,0,1,1-1-1A1,1,0,0,1,19,12Z"/>
</svg>