<svg xmlns="http://www.w3.org/2000/svg" width="24" height="24" viewBox="0 0 24 24">
    <path d="M11.75,18a.75.75,0,0,1-.75.75H5A3.383,3.383,0,0,1,1.25,15V7A3.383,3.383,0,0,1,5,3.25H17A3.383,3.383,0,0,1,20.75,7v3a.75.75,0,0,1-1.5,0V7c0-1.577-.673-2.25-2.25-2.25H5c-1.577,0-2.25.673-2.25,2.25v8c0,1.577.673,2.25,2.25,2.25h6A.75.75,0,0,1,11.75,18ZM4,11a1,1,0,1,0,1-1A1,1,0,0,0,4,11Zm7-3.75A3.75,3.75,0,1,1,7.25,11,3.754,3.754,0,0,1,11,7.25Zm0,1.5A2.25,2.25,0,1,0,13.25,11,2.252,2.252,0,0,0,11,8.75ZM22.75,17A4.75,4.75,0,1,1,18,12.25,4.756,4.756,0,0,1,22.75,17Zm-1.5,0A3.25,3.25,0,1,0,18,20.25,3.254,3.254,0,0,0,21.25,17Zm-2.53-1.364-1.137,1.137-.3-.3a.75.75,0,0,0-1.06,1.062l.833.833a.752.752,0,0,0,1.061,0L19.78,16.7a.75.75,0,0,0-1.06-1.061Z"/>
</svg>