<svg xmlns="http://www.w3.org/2000/svg" width="24" height="24" viewBox="0 0 24 24">
    <path d="M17,2.25H7A3.383,3.383,0,0,0,3.25,6V18A3.383,3.383,0,0,0,7,21.75H17A3.383,3.383,0,0,0,20.75,18V6A3.383,3.383,0,0,0,17,2.25ZM19.25,18c0,1.577-.673,2.25-2.25,2.25H7c-1.577,0-2.25-.673-2.25-2.25V6c0-1.577.673-2.25,2.25-2.25H17c1.577,0,2.25.673,2.25,2.25ZM8.75,8A.75.75,0,1,1,8,7.25.75.75,0,0,1,8.75,8Zm0,4A.75.75,0,1,1,8,11.25.75.75,0,0,1,8.75,12Zm0,4A.75.75,0,1,1,8,15.25.75.75,0,0,1,8.75,16Zm8-8a.75.75,0,0,1-.75.75H11a.75.75,0,0,1,0-1.5h5A.75.75,0,0,1,16.75,8Zm0,4a.75.75,0,0,1-.75.75H11a.75.75,0,0,1,0-1.5h5A.75.75,0,0,1,16.75,12Zm0,4a.75.75,0,0,1-.75.75H11a.75.75,0,0,1,0-1.5h5A.75.75,0,0,1,16.75,16Z"/>
</svg>