<svg xmlns="http://www.w3.org/2000/svg" width="24" height="24" viewBox="0 0 24 24">
    <path d="M17,2.25H7A3.383,3.383,0,0,0,3.25,6V18A3.383,3.383,0,0,0,7,21.75H17A3.383,3.383,0,0,0,20.75,18V6A3.383,3.383,0,0,0,17,2.25ZM19.25,18c0,1.577-.673,2.25-2.25,2.25H7c-1.577,0-2.25-.673-2.25-2.25V6c0-1.577.673-2.25,2.25-2.25H17c1.577,0,2.25.673,2.25,2.25Zm-2-10a.75.75,0,0,1-.75.75h-4a.75.75,0,0,1,0-1.5h4A.75.75,0,0,1,17.25,8Zm0,4a.75.75,0,0,1-.75.75h-4a.75.75,0,0,1,0-1.5h4A.75.75,0,0,1,17.25,12ZM10.03,6.8a.75.75,0,0,1,0,1.061L8.7,9.2a.748.748,0,0,1-1.06,0L6.97,8.531A.75.75,0,0,1,8.03,7.469l.137.137.8-.8A.749.749,0,0,1,10.03,6.8Zm0,4a.75.75,0,0,1,0,1.061L8.7,13.2a.748.748,0,0,1-1.06,0l-.667-.666a.75.75,0,0,1,1.06-1.062l.137.137.8-.8A.749.749,0,0,1,10.03,10.8ZM17.25,16a.75.75,0,0,1-.75.75h-4a.75.75,0,0,1,0-1.5h4A.75.75,0,0,1,17.25,16Zm-7.22-1.2a.75.75,0,0,1,0,1.061L8.7,17.2a.748.748,0,0,1-1.06,0l-.667-.666a.75.75,0,0,1,1.06-1.062l.137.137.8-.8A.749.749,0,0,1,10.03,14.8Z"/>
</svg>