<svg xmlns="http://www.w3.org/2000/svg" width="24" height="24" viewBox="0 0 24 24">
    <path d="M17.625,2.25H6.375c-2.66,0-4.125,1.465-4.125,4.125v11.25c0,2.66,1.465,4.125,4.125,4.125h11.25c2.66,0,4.125-1.465,4.125-4.125V6.375C21.75,3.715,20.285,2.25,17.625,2.25ZM20.25,17.625c0,1.84-.785,2.625-2.625,2.625H6.375c-1.84,0-2.625-.785-2.625-2.625V6.375c0-1.84.785-2.625,2.625-2.625h11.25c1.84,0,2.625.785,2.625,2.625Zm-3-8.125a.75.75,0,0,1-.75.75h-4a.75.75,0,0,1,0-1.5h4A.75.75,0,0,1,17.25,9.5Zm0,5a.75.75,0,0,1-.75.75h-4a.75.75,0,0,1,0-1.5h4A.75.75,0,0,1,17.25,14.5ZM10.03,8.3a.75.75,0,0,1,0,1.061L8.7,10.7a.748.748,0,0,1-1.06,0l-.667-.666A.75.75,0,0,1,8.03,8.969l.137.137.8-.8A.749.749,0,0,1,10.03,8.3Zm0,5a.75.75,0,0,1,0,1.061L8.7,15.7a.748.748,0,0,1-1.06,0l-.667-.666a.75.75,0,0,1,1.06-1.062l.137.137.8-.8A.749.749,0,0,1,10.03,13.3Z"/>
</svg>