<svg xmlns="http://www.w3.org/2000/svg" width="24" height="24" viewBox="0 0 24 24">
    <path d="M17,2.25H7.5A3.383,3.383,0,0,0,3.75,6V7.25H3a.75.75,0,0,0,0,1.5h.75v6.5H3a.75.75,0,0,0,0,1.5h.75V18A3.383,3.383,0,0,0,7.5,21.75H17A3.383,3.383,0,0,0,20.75,18V6A3.383,3.383,0,0,0,17,2.25ZM19.25,18c0,1.577-.673,2.25-2.25,2.25H7.5c-1.577,0-2.25-.673-2.25-2.25V16.75H6a.75.75,0,0,0,0-1.5H5.25V8.75H6a.75.75,0,0,0,0-1.5H5.25V6c0-1.577.673-2.25,2.25-2.25H17c1.577,0,2.25.673,2.25,2.25ZM15,6.25H10A1.624,1.624,0,0,0,8.25,8v3A1.624,1.624,0,0,0,10,12.75h5A1.624,1.624,0,0,0,16.75,11V8A1.624,1.624,0,0,0,15,6.25ZM15.25,11a.692.692,0,0,1-.027.217A.518.518,0,0,1,15,11.25H10a.661.661,0,0,1-.216-.027h0A.518.518,0,0,1,9.75,11V8a.692.692,0,0,1,.027-.217A.518.518,0,0,1,10,7.75h5a.466.466,0,0,1,.217.027A.518.518,0,0,1,15.25,8Z"/>
</svg>