<svg xmlns="http://www.w3.org/2000/svg" width="24" height="24" viewBox="0 0 24 24">
    <path d="M21.413,8.717,20.343,4.97c-.382-1.337-.778-2.72-3.606-2.72H7.263c-2.828,0-3.224,1.383-3.606,2.72L2.587,8.717a8.722,8.722,0,0,0-.337,2.4V18A3.383,3.383,0,0,0,6,21.75H18A3.383,3.383,0,0,0,21.75,18V11.12A8.722,8.722,0,0,0,21.413,8.717ZM18.9,5.382l1.071,3.746c.011.04.015.082.025.122H12.75V3.75h3.987C18.435,3.75,18.552,4.161,18.9,5.382Zm-13.8,0c.349-1.221.466-1.632,2.164-1.632H11.25v5.5H4c.01-.04.014-.082.025-.121ZM20.25,18c0,1.577-.673,2.25-2.25,2.25H6c-1.577,0-2.25-.673-2.25-2.25V11.12c0-.124.019-.246.026-.37H20.224c.007.124.026.246.026.37Zm-6-1.088a2.073,2.073,0,0,1-.581,1.446,1.986,1.986,0,0,1-.934.542V19a.75.75,0,0,1-1.5,0v-.108a2.042,2.042,0,0,1-1.473-1.756.75.75,0,0,1,1.492-.161.533.533,0,0,0,.51.5h.472a.493.493,0,0,0,.353-.155.585.585,0,0,0,.161-.405.555.555,0,0,0-.4-.547l-1.084-.279a2.02,2.02,0,0,1-1.105-.745,2.081,2.081,0,0,1-.415-1.253,2.049,2.049,0,0,1,1.485-1.979V12a.75.75,0,0,1,1.5,0v.1a2.041,2.041,0,0,1,1.5,1.764.75.75,0,0,1-1.492.161.533.533,0,0,0-.51-.5h-.472a.539.539,0,0,0-.514.56.58.58,0,0,0,.113.351.505.505,0,0,0,.283.2l1.084.28A2.054,2.054,0,0,1,14.25,16.912Z"/>
</svg>