<svg xmlns="http://www.w3.org/2000/svg" width="24" height="24" viewBox="0 0 24 24">
    <path d="M21.413,8.717,20.343,4.97c-.382-1.337-.778-2.72-3.606-2.72H7.263c-2.828,0-3.224,1.383-3.606,2.72L2.587,8.717a8.722,8.722,0,0,0-.337,2.4V18A3.383,3.383,0,0,0,6,21.75H18A3.383,3.383,0,0,0,21.75,18V11.12A8.722,8.722,0,0,0,21.413,8.717ZM18.9,5.382l1.071,3.746c.011.04.015.082.025.122H12.75V3.75h3.987C18.435,3.75,18.552,4.161,18.9,5.382Zm-13.8,0c.349-1.221.466-1.632,2.164-1.632H11.25v5.5H4c.01-.04.014-.082.025-.121ZM20.25,18c0,1.577-.673,2.25-2.25,2.25H6c-1.577,0-2.25-.673-2.25-2.25V11.12c0-.124.019-.246.026-.37H20.224c.007.124.026.246.026.37Zm-9.5-1a.75.75,0,0,1-.75.75H7a.75.75,0,0,1,0-1.5h3A.75.75,0,0,1,10.75,17Z"/>
</svg>