<svg xmlns="http://www.w3.org/2000/svg" width="24" height="24" viewBox="0 0 24 24">
    <path d="M21.413,8.717,20.343,4.97c-.382-1.337-.778-2.72-3.606-2.72H7.263c-2.828,0-3.224,1.383-3.606,2.72L2.587,8.717a8.722,8.722,0,0,0-.337,2.4V18A3.383,3.383,0,0,0,6,21.75H18A3.383,3.383,0,0,0,21.75,18V11.12A8.722,8.722,0,0,0,21.413,8.717ZM18.9,5.382l1.071,3.746c.011.04.015.082.025.122H12.75V3.75h3.987C18.435,3.75,18.552,4.161,18.9,5.382Zm-13.8,0c.349-1.221.466-1.632,2.164-1.632H11.25v5.5H4c.01-.04.014-.082.025-.121ZM20.25,18c0,1.577-.673,2.25-2.25,2.25H6c-1.577,0-2.25-.673-2.25-2.25V11.12c0-.124.019-.246.026-.37H20.224c.007.124.026.246.026.37Zm-6.7-6.5h-.013A2.247,2.247,0,0,0,12,12.088a2.247,2.247,0,0,0-1.538-.588h-.013a2.556,2.556,0,0,0-2.038.926A3.4,3.4,0,0,0,7.83,15.25c.525,2.663,3.728,4.124,3.863,4.185a.757.757,0,0,0,.614,0c.135-.061,3.338-1.522,3.862-4.185a3.394,3.394,0,0,0-.579-2.824A2.553,2.553,0,0,0,13.551,11.5ZM14.7,14.959h0c-.3,1.5-1.993,2.567-2.7,2.95-.7-.383-2.4-1.446-2.7-2.949a1.948,1.948,0,0,1,.27-1.584A1.077,1.077,0,0,1,10.457,13h0a.947.947,0,0,1,.829.633.748.748,0,0,0,.7.505.789.789,0,0,0,.715-.5A.95.95,0,0,1,13.539,13h0a1.076,1.076,0,0,1,.886.376A1.952,1.952,0,0,1,14.7,14.959Z"/>
</svg>