<svg xmlns="http://www.w3.org/2000/svg" width="24" height="24" viewBox="0 0 24 24">
    <path d="M20.651,15.106,18.009,13.53a2.8,2.8,0,0,0-3.763.847l-.762,1.137a10.932,10.932,0,0,1-5-5.009l1.131-.753a2.8,2.8,0,0,0,.86-3.758L8.915,3.354A2.258,2.258,0,0,0,6.519,2.3,5.345,5.345,0,0,0,3.031,4.725a5.154,5.154,0,0,0-.6,4.109A18.289,18.289,0,0,0,15.175,21.565a5.146,5.146,0,0,0,4.105-.6,5.343,5.343,0,0,0,2.426-3.487A2.251,2.251,0,0,0,20.651,15.106Zm-.416,2.08a3.832,3.832,0,0,1-1.743,2.5,3.66,3.66,0,0,1-2.921.427A16.777,16.777,0,0,1,3.883,8.436a3.659,3.659,0,0,1,.426-2.924A3.843,3.843,0,0,1,6.83,3.765a.743.743,0,0,1,.148-.015.751.751,0,0,1,.646.369L9.188,6.758a1.3,1.3,0,0,1-.4,1.745L7.128,9.608a.75.75,0,0,0-.277.913,12.414,12.414,0,0,0,6.614,6.63.752.752,0,0,0,.912-.275l1.115-1.664a1.3,1.3,0,0,1,1.749-.394l2.643,1.576A.752.752,0,0,1,20.235,17.186ZM15.47,7.47,16.939,6,15.47,4.53a.75.75,0,1,1,1.06-1.06L18,4.939,19.47,3.47a.75.75,0,1,1,1.06,1.06L19.061,6,20.53,7.47a.75.75,0,1,1-1.06,1.06L18,7.061,16.53,8.53a.75.75,0,1,1-1.06-1.06Z"/>
</svg>