<svg xmlns="http://www.w3.org/2000/svg" width="24" height="24" viewBox="0 0 24 24">
    <path d="M17.625,21.75H6.375c-2.66,0-4.125-1.465-4.125-4.125V6.375c0-2.66,1.465-4.125,4.125-4.125h11.25c2.66,0,4.125,1.465,4.125,4.125v11.25C21.75,20.285,20.285,21.75,17.625,21.75Zm-11.25-18c-1.84,0-2.625.785-2.625,2.625v11.25c0,1.84.785,2.625,2.625,2.625h11.25c1.84,0,2.625-.785,2.625-2.625V6.375c0-1.84-.785-2.625-2.625-2.625Zm3.908,13a2.089,2.089,0,0,1-1.023-.271,2.059,2.059,0,0,1-1.066-1.817V9.336A2.088,2.088,0,0,1,11.373,7.56L15.852,10.3a1.993,1.993,0,0,1,0,3.4L11.373,16.44A2.078,2.078,0,0,1,10.283,16.752Zm0-8a.6.6,0,0,0-.292.078.571.571,0,0,0-.3.508v5.328a.588.588,0,0,0,.9.5l4.478-2.74a.49.49,0,0,0,0-.841h0L10.59,8.839A.572.572,0,0,0,10.285,8.75Z"/>
</svg>