<svg xmlns="http://www.w3.org/2000/svg" width="24" height="24" viewBox="0 0 24 24">
    <path d="M14.463,14.621a.749.749,0,0,0-1.05-.267,2.764,2.764,0,0,1-2.826,0,.749.749,0,0,0-1.05.267L7.1,18.942a1.291,1.291,0,0,0-.114.993,1.224,1.224,0,0,0,.612.741,9.566,9.566,0,0,0,8.808,0h0a1.222,1.222,0,0,0,.611-.74,1.294,1.294,0,0,0-.114-.994ZM8.525,19.463l1.97-3.488a4.3,4.3,0,0,0,3.01,0l1.97,3.488A8.1,8.1,0,0,1,8.525,19.463Zm8.84-16.007a1.232,1.232,0,0,0-.967-.172,1.263,1.263,0,0,0-.8.606L12.968,8.53a.749.749,0,0,0,.3,1.033,2.714,2.714,0,0,1,1.47,2.258.77.77,0,0,0,.77.709h4.979a1.272,1.272,0,0,0,.926-.4,1.247,1.247,0,0,0,.333-.923A10.05,10.05,0,0,0,17.365,3.456ZM16.136,11.03a4.274,4.274,0,0,0-1.517-2.371l2.148-3.792a8.545,8.545,0,0,1,3.464,6.163Zm-6.876.791a2.714,2.714,0,0,1,1.47-2.258.749.749,0,0,0,.3-1.033L8.4,3.892a1.263,1.263,0,0,0-.8-.608,1.228,1.228,0,0,0-.969.174A10.04,10.04,0,0,0,2.253,11.2a1.236,1.236,0,0,0,.332.928,1.272,1.272,0,0,0,.926.4h5A.751.751,0,0,0,9.26,11.821ZM3.769,11.03A8.546,8.546,0,0,1,7.233,4.867L9.381,8.659A4.274,4.274,0,0,0,7.864,11.03ZM12,10.75A1.25,1.25,0,1,1,10.75,12,1.25,1.25,0,0,1,12,10.75Z"/>
</svg>