<svg xmlns="http://www.w3.org/2000/svg" width="24" height="24" viewBox="0 0 24 24">
    <path d="M19.5,15.25h-3a2.831,2.831,0,0,0-.75.1V12.5a2.067,2.067,0,0,0-2.25-2.25h-3A2.067,2.067,0,0,0,8.25,12.5v.853a2.831,2.831,0,0,0-.75-.1h-3A2.067,2.067,0,0,0,2.25,15.5V21a.75.75,0,0,0,.75.75H21a.75.75,0,0,0,.75-.75V17.5A2.067,2.067,0,0,0,19.5,15.25ZM3.75,15.5c0-.589.161-.75.75-.75h3c.589,0,.75.161.75.75v4.75H3.75Zm6,0v-3c0-.589.161-.75.75-.75h3c.589,0,.75.161.75.75v7.75H9.75Zm10.5,4.75h-4.5V17.5c0-.589.161-.75.75-.75h3c.589,0,.75.161.75.75ZM9.5,6.9,9.292,8.121A1.107,1.107,0,0,0,10.9,9.289L12,8.712l1.1.578a1.107,1.107,0,0,0,1.6-1.168L14.5,6.9l.922-.895a1.082,1.082,0,0,0-.6-1.848l-1.279-.185-.549-1.11a1.108,1.108,0,0,0-1.986,0l-.549,1.11-1.279.185a1.082,1.082,0,0,0-.6,1.848Zm1.386-1.475a1.083,1.083,0,0,0,.817-.592l.3-.6.3.6a1.084,1.084,0,0,0,.816.591l.655.094L13.3,5.98a1.08,1.08,0,0,0-.313.962l.112.65-.593-.31a1.088,1.088,0,0,0-1.005,0l-.592.31.112-.647a1.081,1.081,0,0,0-.313-.964l-.471-.458Z"/>
</svg>