<svg xmlns="http://www.w3.org/2000/svg" width="24" height="24" viewBox="0 0 24 24">
    <path d="M12,21.749a2.242,2.242,0,0,1-1.591-.658L8.39,19.072A.756.756,0,0,0,7.408,19L6.05,20.021a1.75,1.75,0,0,1-2.8-1.4V6A3.383,3.383,0,0,1,7,2.25H17A3.383,3.383,0,0,1,20.75,6V18.621a1.75,1.75,0,0,1-2.8,1.4L16.591,19a.754.754,0,0,0-.981.07l-2.019,2.019A2.242,2.242,0,0,1,12,21.749ZM7.856,17.356a2.247,2.247,0,0,1,1.594.655l2.02,2.019a.768.768,0,0,0,1.06,0l2.02-2.019h0a2.26,2.26,0,0,1,2.94-.209l1.361,1.019a.236.236,0,0,0,.261.024.241.241,0,0,0,.138-.224V6c0-1.577-.673-2.25-2.25-2.25H7c-1.577,0-2.25.673-2.25,2.25V18.621a.241.241,0,0,0,.138.224.236.236,0,0,0,.261-.024L6.509,17.8A2.243,2.243,0,0,1,7.856,17.356ZM12,15.722a.756.756,0,0,1-.309-.066c-.153-.07-3.763-1.732-4.352-4.746a3.819,3.819,0,0,1,.649-3.17,2.811,2.811,0,0,1,2.24-1.018h.013A2.463,2.463,0,0,1,12,7.438a2.64,2.64,0,0,1,1.771-.716,2.813,2.813,0,0,1,2.241,1.017,3.821,3.821,0,0,1,.649,3.17h0c-.589,3.014-4.2,4.676-4.352,4.746A.756.756,0,0,1,12,15.722Zm-1.76-7.5h-.005a1.338,1.338,0,0,0-1.086.468,2.372,2.372,0,0,0-.337,1.932c.355,1.818,2.4,3.083,3.188,3.509.788-.426,2.833-1.691,3.188-3.509a2.374,2.374,0,0,0-.336-1.932,1.342,1.342,0,0,0-1.088-.468h0a1.19,1.19,0,0,0-1.05.814.757.757,0,0,1-.708.5h-.008a.749.749,0,0,1-.7-.508A1.189,1.189,0,0,0,10.24,8.222Zm5.685,2.544h0Z"/>
</svg>