<svg xmlns="http://www.w3.org/2000/svg" width="24" height="24" viewBox="0 0 24 24">
    <path d="M15.03,10.03l-5,5a.75.75,0,0,1-1.06-1.06l5-5a.75.75,0,0,1,1.06,1.06Zm-5.51.47a1,1,0,0,0,0-2H9.51a1,1,0,0,0,.01,2Zm5,3h-.01a1.005,1.005,0,1,0,.01,0Zm6.23-8.121V18.621a1.75,1.75,0,0,1-2.8,1.4L16.591,19a.754.754,0,0,0-.981.07l-2.019,2.019a2.252,2.252,0,0,1-3.182,0L8.39,19.072A.756.756,0,0,0,7.408,19L6.05,20.021a1.75,1.75,0,0,1-2.8-1.4V5.379a1.75,1.75,0,0,1,2.8-1.4L7.409,5a.754.754,0,0,0,.981-.07l2.019-2.019a2.253,2.253,0,0,1,3.182,0L15.61,4.928a.756.756,0,0,0,.982.07L17.95,3.979a1.75,1.75,0,0,1,2.8,1.4Zm-1.5,0a.241.241,0,0,0-.138-.224.236.236,0,0,0-.261.024L17.491,6.2a2.262,2.262,0,0,1-2.941-.209l-2.02-2.02a.75.75,0,0,0-1.06,0L9.45,5.989A2.26,2.26,0,0,1,6.51,6.2L5.149,5.179a.236.236,0,0,0-.261-.024.241.241,0,0,0-.138.224V18.621a.241.241,0,0,0,.138.224.236.236,0,0,0,.261-.024L6.509,17.8a2.263,2.263,0,0,1,2.941.209l2.02,2.019a.768.768,0,0,0,1.06,0l2.02-2.019h0a2.26,2.26,0,0,1,2.94-.209l1.361,1.019a.236.236,0,0,0,.261.024.241.241,0,0,0,.138-.224Z"/>
</svg>