<svg xmlns="http://www.w3.org/2000/svg" width="24" height="24" viewBox="0 0 24 24">
    <path d="M16.321,6.425,17.236,4.9a1.75,1.75,0,0,0-1.5-2.65H8.265a1.75,1.75,0,0,0-1.5,2.65l.914,1.525C4.739,9.137,3.25,12.019,3.25,15c0,1.583.631,6.75,8.75,6.75s8.75-5.167,8.75-6.75C20.75,12.019,19.261,9.137,16.321,6.425ZM8.048,3.876a.244.244,0,0,1,.217-.126h7.47a.249.249,0,0,1,.214.378L14.935,5.82H9.065L8.051,4.128A.242.242,0,0,1,8.048,3.876ZM12,20.25c-6.543,0-7.25-3.671-7.25-5.25,0-2.618,1.415-5.2,4.185-7.68h6.13C17.835,9.8,19.25,12.382,19.25,15,19.25,16.579,18.543,20.25,12,20.25Zm.818-6.817-1.265-.319a.728.728,0,0,1-.4-.267.751.751,0,0,1-.153-.46.737.737,0,0,1,.725-.748h.55a.735.735,0,0,1,.721.666.75.75,0,0,0,1.491-.165A2.236,2.236,0,0,0,12.75,10.2V10a.75.75,0,0,0-1.5,0v.193a2.251,2.251,0,0,0-.068,4.374l1.265.319a.745.745,0,0,1,.553.727.753.753,0,0,1-.218.532.7.7,0,0,1-.507.216h-.55A.735.735,0,0,1,11,15.7a.75.75,0,1,0-1.491.165,2.236,2.236,0,0,0,1.737,1.945V18a.75.75,0,0,0,1.5,0v-.193a2.2,2.2,0,0,0,1.1-.61,2.255,2.255,0,0,0-1.033-3.764Z"/>
</svg>