<svg xmlns="http://www.w3.org/2000/svg" width="24" height="24" viewBox="0 0 24 24">
    <path d="M21.75,4.5V8a.75.75,0,0,1-1.5,0V4.5c0-.589-.161-.75-.75-.75H16a.75.75,0,0,1,0-1.5h3.5A2.067,2.067,0,0,1,21.75,4.5ZM3,8.75A.75.75,0,0,0,3.75,8V4.5c0-.589.161-.75.75-.75H8a.75.75,0,0,0,0-1.5H4.5A2.067,2.067,0,0,0,2.25,4.5V8A.75.75,0,0,0,3,8.75Zm5,11.5H4.5c-.589,0-.75-.161-.75-.75V16a.75.75,0,0,0-1.5,0v3.5A2.067,2.067,0,0,0,4.5,21.75H8a.75.75,0,0,0,0-1.5Zm13-5a.75.75,0,0,0-.75.75v3.5c0,.589-.161.75-.75.75H16a.75.75,0,0,0,0,1.5h3.5a2.067,2.067,0,0,0,2.25-2.25V16A.75.75,0,0,0,21,15.25ZM6.25,8.88V9a.75.75,0,0,0,1.5,0V8.88c0-.845.285-1.13,1.13-1.13h6.24c.845,0,1.13.285,1.13,1.13V9a.75.75,0,0,0,1.5,0V8.88a2.394,2.394,0,0,0-2.63-2.63H8.88A2.394,2.394,0,0,0,6.25,8.88Zm8.87,8.87H8.88a2.394,2.394,0,0,1-2.63-2.63V12.75H5a.75.75,0,0,1,0-1.5H19a.75.75,0,0,1,0,1.5H17.75v2.37A2.394,2.394,0,0,1,15.12,17.75Zm1.13-2.63V12.75H7.75v2.37c0,.845.285,1.13,1.13,1.13h6.24C15.965,16.25,16.25,15.965,16.25,15.12Z"/>
</svg>