<svg xmlns="http://www.w3.org/2000/svg" width="24" height="24" viewBox="0 0 24 24">
    <path d="M20.927,3.073a2.781,2.781,0,0,0-2.662-.737L5.151,5.614A3.83,3.83,0,0,0,5.2,13.058l4.646,1.094L10.941,18.8a3.775,3.775,0,0,0,3.7,2.953h.028a3.773,3.773,0,0,0,3.714-2.9L21.664,5.735A2.78,2.78,0,0,0,20.927,3.073Zm-.718,2.3L16.931,18.485a2.242,2.242,0,0,1-2.278,1.765,2.274,2.274,0,0,1-2.251-1.8l-1.1-4.692L15.53,9.53a.75.75,0,0,0-1.06-1.06L10.238,12.7,5.547,11.6a2.33,2.33,0,0,1-.032-4.529L18.628,3.791a1.313,1.313,0,0,1,.321-.04,1.305,1.305,0,0,1,1.26,1.621Z"/>
</svg>