<svg xmlns="http://www.w3.org/2000/svg" width="24" height="24" viewBox="0 0 24 24">
    <path d="M12,22.75a.74.74,0,0,1-.237-.039c-1.589-.529-9.513-3.588-9.513-11.822V5a.749.749,0,0,1,.6-.735,29.063,29.063,0,0,0,8.8-2.921.819.819,0,0,1,.7-.014,28.345,28.345,0,0,0,8.792,2.935.749.749,0,0,1,.6.735v5.889c0,8.234-7.924,11.293-9.513,11.822A.74.74,0,0,1,12,22.75ZM3.75,5.612v5.277c0,6.864,6.418,9.66,8.25,10.317,1.832-.657,8.25-3.453,8.25-10.317V5.612a28.925,28.925,0,0,1-8.235-2.774A29.308,29.308,0,0,1,3.75,5.612Zm8.96,7c.008-.02.088-.2.634-.565A2.546,2.546,0,0,0,14.584,9.4a2.626,2.626,0,0,0-5.209.47.75.75,0,0,0,1.5,0A1.126,1.126,0,0,1,12.21,8.769a1.136,1.136,0,0,1,.9.9,1.055,1.055,0,0,1-.594,1.137,2.955,2.955,0,0,0-1.224,1.333.739.739,0,0,0,.463.934.723.723,0,0,0,.245.043A.767.767,0,0,0,12.71,12.616ZM13.02,15a1,1,0,0,0-1-1h-.01a1,1,0,1,0,1.01,1Z"/>
</svg>