<svg xmlns="http://www.w3.org/2000/svg" width="24" height="24" viewBox="0 0 24 24">
    <path d="M21.147,4.265A28.345,28.345,0,0,1,12.355,1.33a.819.819,0,0,0-.7.014,29.063,29.063,0,0,1-8.8,2.921A.749.749,0,0,0,2.25,5v5.889c0,8.234,7.924,11.293,9.513,11.822a.74.74,0,0,0,.474,0c1.589-.529,9.513-3.588,9.513-11.822V5A.749.749,0,0,0,21.147,4.265Zm-.9,6.624c0,6.864-6.418,9.66-8.25,10.317-1.832-.657-8.25-3.453-8.25-10.317V5.612a29.308,29.308,0,0,0,8.265-2.774A28.925,28.925,0,0,0,20.25,5.612ZM8.994,11.25h6a.75.75,0,0,1,0,1.5h-6a.75.75,0,0,1,0-1.5Z"/>
</svg>