<svg xmlns="http://www.w3.org/2000/svg" width="24" height="24" viewBox="0 0 24 24">
    <path d="m20.598,3.901l-4.332-1.575h0c-.315-.114-.67-.097-.973.048-.302.145-.527.399-.633.715-.309.915-1.021,2.006-2.66,2.006s-2.351-1.091-2.66-2.007c-.106-.316-.332-.569-.633-.715-.302-.146-.658-.163-.974-.048l-4.332,1.575c-.689.251-1.152.912-1.152,1.645v3.129c0,.554.254,1.063.696,1.397.442.334,1.003.438,1.535.286l1.269-.363v9.506c0,1.241,1.009,2.25,2.25,2.25h8c1.241,0,2.25-1.009,2.25-2.25v-9.506l1.269.363c.532.152,1.093.048,1.535-.286.442-.333.696-.843.696-1.397v-3.129c0-.733-.463-1.394-1.152-1.645Zm-.348,4.773c0,.108-.063.172-.1.199-.037.028-.117.072-.219.041l-2.225-.636c-.226-.065-.47-.019-.658.122-.188.142-.298.364-.298.599v10.5c0,.414-.336.75-.75.75h-8c-.414,0-.75-.336-.75-.75v-10.5c0-.235-.11-.457-.298-.599-.132-.099-.291-.151-.452-.151-.069,0-.138.01-.206.029l-2.225.636c-.103.031-.182-.013-.219-.041-.037-.028-.1-.091-.1-.199v-3.129c0-.105.066-.199.165-.235l4.097-1.49c.396.998,1.458,2.775,3.988,2.775s3.592-1.777,3.988-2.775l4.097,1.49c.098.036.165.13.165.235v3.129Z"/>
</svg>