<svg xmlns="http://www.w3.org/2000/svg" width="24" height="24" viewBox="0 0 24 24">
    <path d="M18.154,4.25h-4.4V3a.75.75,0,0,0-1.5,0V4.25H8.207a2.235,2.235,0,0,0-1.591.659L3.763,7.763a1.752,1.752,0,0,0,0,2.474l2.853,2.854a2.235,2.235,0,0,0,1.591.659H12.25v6.5H10a.75.75,0,0,0,0,1.5h6a.75.75,0,0,0,0-1.5H13.75v-6.5h4.4a2.363,2.363,0,0,0,2.6-2.6V6.846A2.363,2.363,0,0,0,18.154,4.25Zm1.1,6.9c0,.82-.276,1.1-1.1,1.1H8.207a.743.743,0,0,1-.53-.22L4.823,9.177a.252.252,0,0,1,0-.354L7.677,5.97a.743.743,0,0,1,.53-.22h9.947c.82,0,1.1.276,1.1,1.1Z"/>
</svg>