<svg xmlns="http://www.w3.org/2000/svg" width="24" height="24" viewBox="0 0 24 24">
    <path d="M12,21.75a.75.75,0,0,1-.721-.544L10.5,18.479A7.208,7.208,0,0,0,5.521,13.5l-2.727-.779a.75.75,0,0,1,0-1.442L5.521,10.5A7.208,7.208,0,0,0,10.5,5.521l.779-2.727a.75.75,0,0,1,1.442,0L13.5,5.521A7.208,7.208,0,0,0,18.479,10.5l2.727.779a.75.75,0,0,1,0,1.442l-2.727.779A7.208,7.208,0,0,0,13.5,18.479l-.779,2.727A.75.75,0,0,1,12,21.75ZM5.73,12l.2.058a8.7,8.7,0,0,1,6.009,6.009l.058.2.058-.2a8.7,8.7,0,0,1,6.009-6.009l.2-.058-.2-.058a8.7,8.7,0,0,1-6.009-6.009L12,5.731l-.058.2a8.7,8.7,0,0,1-6.009,6.009Z"/>
</svg>