<svg xmlns="http://www.w3.org/2000/svg" width="24" height="24" viewBox="0 0 24 24">
    <path d="M12,1.25A10.75,10.75,0,1,0,22.75,12,10.762,10.762,0,0,0,12,1.25Zm0,20A9.25,9.25,0,1,1,21.25,12,9.26,9.26,0,0,1,12,21.25ZM14.779,7.8c-3.81,2.048-4.232,2.47-4.37,2.608a2.25,2.25,0,1,0,3.181,3.182c.139-.137.558-.556,2.609-4.37a1.048,1.048,0,0,0-1.42-1.42ZM12.53,12.53l.531.531-.531-.53a.767.767,0,0,1-1.06,0,.748.748,0,0,1,0-1.06,21.6,21.6,0,0,1,2.676-1.616A18.486,18.486,0,0,1,12.53,12.53ZM6.75,12a5.067,5.067,0,0,0,.706,2.618.75.75,0,0,1-1.291.764A6.643,6.643,0,0,1,5.25,12,6.758,6.758,0,0,1,12,5.25a6.91,6.91,0,0,1,1.457.156.75.75,0,0,1-.314,1.467A5.282,5.282,0,0,0,6.75,12Zm12,0a6.643,6.643,0,0,1-.915,3.382.75.75,0,1,1-1.291-.764A5.067,5.067,0,0,0,17.25,12a5.367,5.367,0,0,0-.124-1.142.75.75,0,0,1,1.467-.316A6.828,6.828,0,0,1,18.75,12Z"/>
</svg>