<svg xmlns="http://www.w3.org/2000/svg" width="24" height="24" viewBox="0 0 24 24">
    <path d="M12.368,20.75A1.766,1.766,0,0,1,10.921,20L8.5,16.571a.2.2,0,0,0-.176-.089l-4.339.066H3.96a1.709,1.709,0,0,1-1.367-2.735L5.2,10.325a.213.213,0,0,0,.031-.2L3.888,6.146A1.783,1.783,0,0,1,6.146,3.888l3.982,1.343a.211.211,0,0,0,.2-.032l3.488-2.606a1.711,1.711,0,0,1,2.735,1.394L16.48,8.328a.213.213,0,0,0,.089.175L20,10.924a1.779,1.779,0,0,1-.5,3.151l-4.026,1.26a.216.216,0,0,0-.141.141L14.074,19.5a1.787,1.787,0,0,1-1.706,1.251ZM8.329,14.982a1.711,1.711,0,0,1,1.4.724l2.418,3.426a.266.266,0,0,0,.271.114.273.273,0,0,0,.226-.2L13.9,15.028A1.719,1.719,0,0,1,15.026,13.9l4.027-1.26a.27.27,0,0,0,.193-.225.265.265,0,0,0-.113-.269h0L15.7,9.728a1.71,1.71,0,0,1-.724-1.423l.066-4.34a.2.2,0,0,0-.114-.19.2.2,0,0,0-.223.019L11.222,6.4a1.714,1.714,0,0,1-1.573.251L5.667,5.31a.282.282,0,0,0-.357.357L6.652,9.65A1.717,1.717,0,0,1,6.4,11.222L3.794,14.71a.2.2,0,0,0-.02.224.266.266,0,0,0,.19.114l4.34-.066Zm13.2,6.548a.749.749,0,0,0,0-1.06l-3-3a.75.75,0,0,0-1.06,1.06l3,3a.748.748,0,0,0,1.06,0Z"/>
</svg>