<svg xmlns="http://www.w3.org/2000/svg" width="24" height="24" viewBox="0 0 24 24">
    <path d="M21.53,2.47a.748.748,0,0,0-1.06,0L15.3,7.635l-1.67-3.364a1.818,1.818,0,0,0-3.266,0L8.429,8.175a.261.261,0,0,1-.2.142l-4.48.65a1.749,1.749,0,0,0-.974,2.98l3.243,3.142a.25.25,0,0,1,.07.221l-.32,1.856-3.3,3.3a.75.75,0,0,0,1.06,1.061l18-18A.749.749,0,0,0,21.53,2.47ZM7.071,14.019l-3.25-3.15a.226.226,0,0,1-.057-.244.242.242,0,0,1,.2-.174L8.452,9.8a1.767,1.767,0,0,0,1.319-.958l1.943-3.914a.318.318,0,0,1,.574,0l1.9,3.82-6.6,6.6A1.744,1.744,0,0,0,7.071,14.019Zm14.593-3.853a1.725,1.725,0,0,1-.442,1.782L17.972,15.1a.243.243,0,0,0-.065.2l.742,4.32a1.808,1.808,0,0,1-.721,1.775A1.819,1.819,0,0,1,16,21.542L12.121,19.5a.278.278,0,0,0-.255.007L8,21.531a1.8,1.8,0,0,1-1.1.2.75.75,0,0,1,.213-1.485A.325.325,0,0,0,7.3,20.2l3.88-2.03a1.789,1.789,0,0,1,1.623-.006L16.7,20.213a.325.325,0,0,0,.345-.029.307.307,0,0,0,.128-.31l-.74-4.31a1.731,1.731,0,0,1,.49-1.537l3.258-3.157a.227.227,0,0,0,.057-.245.242.242,0,0,0-.205-.174l-1.617-.23a.75.75,0,1,1,.211-1.485l1.62.23A1.743,1.743,0,0,1,21.664,10.166Z"/>
</svg>