<svg xmlns="http://www.w3.org/2000/svg" width="24" height="24" viewBox="0 0 24 24">
    <path d="m14,2.25c-4.418,0-7.75,3.332-7.75,7.75,0,1.801-.906,2.586-1.956,3.495-.958.83-2.044,1.77-2.044,3.505,0,3.757,3.761,4.75,5.75,4.75,10.148,0,13.75-6.061,13.75-11.25,0-5.012-3.042-8.25-7.75-8.25Zm-6,18c-.174,0-4.25-.037-4.25-3.25,0-1.001.552-1.527,1.526-2.371,1.102-.955,2.474-2.143,2.474-4.629,0-3.563,2.687-6.25,6.25-6.25,3.021,0,6.25,1.773,6.25,6.75,0,1.628-.591,9.75-12.25,9.75Zm6-15c-2.752,0-4.75,1.998-4.75,4.75,0,2.828-.937,3.608-2.021,4.512l-.422.356c-.344.289-1.392,1.168-1.038,2.494.299,1.126,1.407,1.525,2.266,1.525,10.414,0,10.715-7.529,10.715-8.388,0-3.336-1.731-5.25-4.75-5.25Zm-5.965,12.138c-.007,0-.708-.005-.816-.411-.09-.337.146-.617.554-.959.003-.002.073-.062.076-.064l.342-.289c1.2-1,2.56-2.134,2.56-5.664,0-1.944,1.306-3.25,3.25-3.25,2.187,0,3.25,1.227,3.25,3.75,0,1.15-.444,6.888-9.215,6.888Zm7.234-7.388c0,.69-.56,1.25-1.25,1.25s-1.255-.56-1.255-1.25.555-1.25,1.245-1.25h.01c.69,0,1.25.56,1.25,1.25Z"/>
</svg>