<svg xmlns="http://www.w3.org/2000/svg" width="24" height="24" viewBox="0 0 24 24">
    <path d="M21.545,7.871,20.506,4.8C20.017,3.354,19.412,2.25,16.5,2.25h-9c-2.912,0-3.517,1.1-4,2.548L2.454,7.871a3.734,3.734,0,0,0,.8,3.772V18A3.383,3.383,0,0,0,7,21.75H17A3.383,3.383,0,0,0,20.75,18V11.643A3.731,3.731,0,0,0,21.545,7.871Zm-17.67.481L4.916,5.279C5.26,4.261,5.433,3.75,7.5,3.75h9c2.067,0,2.24.511,2.585,1.529l1.039,3.073a2.162,2.162,0,0,1-.863,2.59,2.608,2.608,0,0,1-3.509-1.193.751.751,0,0,0-.707-.5h0a.75.75,0,0,0-.706.5,2.572,2.572,0,0,1-4.672,0,.75.75,0,0,0-.706-.5.843.843,0,0,0-.71.5A2.529,2.529,0,0,1,5.9,11.25a2.314,2.314,0,0,1-1.16-.308A2.164,2.164,0,0,1,3.875,8.352Zm9.4,11.9h-2.5V17.5a1.25,1.25,0,0,1,2.5,0Zm3.72,0H14.78V17.5a2.75,2.75,0,0,0-5.5,0v2.75H7c-1.577,0-2.25-.673-2.25-2.25V12.554a4.269,4.269,0,0,0,4.2-1.14,4.147,4.147,0,0,0,6.1,0A4.2,4.2,0,0,0,18.1,12.75a3.84,3.84,0,0,0,1.149-.183V18C19.25,19.577,18.577,20.25,17,20.25Z"/>
</svg>