<svg xmlns="http://www.w3.org/2000/svg" width="24" height="24" viewBox="0 0 24 24">
    <path d="m20.049,10.433l-.088-.683h1.038c.414,0,.75-.336.75-.75s-.336-.75-.75-.75h-1.23l-.111-.863c-.244-1.471-.52-3.137-3.701-3.137h-7.917c-3.181,0-3.457,1.667-3.705,3.165l-.107.835h-1.23c-.414,0-.75.336-.75.75s.336.75.75.75h1.038l-.087.683c-.492.172-.845.435-1.062.681-.502.569-.719,1.36-.611,2.227l.39,3.124c.143,1.144.544,2.578,2.083,3.084v1.451c0,.414.336.75.75.75s.75-.336.75-.75v-1.25h11.5v1.25c0,.414.336.75.75.75s.75-.336.75-.75v-1.451c1.538-.506,1.939-1.94,2.083-3.084l.39-3.124c.108-.867-.108-1.658-.611-2.228-.217-.246-.57-.508-1.062-.681Zm-12.008-4.683h7.917c1.909,0,1.988.474,2.217,1.855l.338,2.645H5.486l.334-2.617c.233-1.408.312-1.883,2.221-1.883Zm11.803,10.529c-.187,1.492-.635,1.971-1.844,1.971H6c-1.209,0-1.658-.479-1.844-1.971l-.39-3.124c-.054-.434.033-.806.247-1.048.208-.237.542-.356.992-.356h13.99c.45,0,.784.12.992.356.214.242.301.614.247,1.049l-.39,3.124ZM9.75,3c0-.414.336-.75.75-.75h3c.414,0,.75.336.75.75s-.336.75-.75.75h-3c-.414,0-.75-.336-.75-.75Zm8.28,11.47c.14.14.22.33.22.53,0,.1-.02.2-.06.29-.04.09-.09.17-.16.24-.14.14-.33.22-.53.22-.19,0-.39-.08-.53-.22-.07-.07-.12-.15-.16-.24-.04-.09-.06-.19-.06-.29,0-.2.08-.39.22-.53.28-.28.78-.28,1.06,0Zm-11,0c.14.14.22.33.22.53,0,.1-.02.19-.06.29-.04.09-.09.17-.16.24-.07.07-.15.12-.24.16-.09.04-.19.06-.29.06-.2,0-.39-.08-.53-.22-.07-.07-.12-.15-.16-.24-.04-.1-.06-.19-.06-.29s.02-.2.06-.29c.04-.09.09-.17.16-.24.07-.07.15-.12.24-.16.19-.08.39-.08.58,0,.09.03.17.09.24.16Zm8.22.53c0,.414-.336.75-.75.75h-5c-.414,0-.75-.336-.75-.75s.336-.75.75-.75h5c.414,0,.75.336.75.75Z"/>
</svg>