<svg xmlns="http://www.w3.org/2000/svg" width="24" height="24" viewBox="0 0 24 24">
    <path d="M17.625,2.25H6.375c-2.66,0-4.125,1.465-4.125,4.125v11.25c0,2.66,1.465,4.125,4.125,4.125h11.25c2.66,0,4.125-1.465,4.125-4.125V6.375C21.75,3.715,20.285,2.25,17.625,2.25ZM20.25,17.625c0,1.84-.785,2.625-2.625,2.625H6.375c-1.84,0-2.625-.785-2.625-2.625V6.375c0-1.84.785-2.625,2.625-2.625h11.25c1.84,0,2.625.785,2.625,2.625ZM12.75,14v3a.75.75,0,0,1-1.5,0V14a.75.75,0,0,1,1.5,0Zm-4-2v5a.75.75,0,0,1-1.5,0V12a.75.75,0,0,1,1.5,0Zm8,3.5V17a.75.75,0,0,1-1.5,0V15.5a.75.75,0,0,1,1.5,0Zm0-7.38v2.2a.28.28,0,0,1-.006.028.686.686,0,0,1-.2.476c-.007.008-.009.018-.017.025h0a.762.762,0,0,1-.531.22H13.8a.75.75,0,0,1,0-1.5h.385l-1.8-1.793L11.1,9.05a1.505,1.505,0,0,1-2.116-.006L7.47,7.53A.75.75,0,0,1,8.53,6.47l1.514,1.513L11.331,6.71a1.505,1.505,0,0,1,2.113,0l1.806,1.8V8.12a.75.75,0,0,1,1.5,0Z"/>
</svg>