<svg xmlns="http://www.w3.org/2000/svg" width="24" height="24" viewBox="0 0 24 24">
    <path d="m22.583,5.428c-.168-.207-.428-.304-.683-.271.1-.201.185-.41.254-.625.097-.296,0-.622-.243-.817-.243-.195-.581-.219-.851-.062-.61.36-1.292.635-1.989.805-.882-.772-2.035-1.208-3.227-1.208-2.674,0-4.849,2.148-4.849,4.788,0,.031,0,.062,0,.094-2.749-.364-5.271-1.746-7.022-3.872-.156-.188-.398-.291-.638-.271-.243.019-.463.156-.587.366-.439.743-.662,1.557-.662,2.419,0,.76.181,1.494.515,2.151-.06.02-.117.046-.172.078-.229.135-.368.405-.368.67,0,1.392.613,2.672,1.606,3.559-.164.198-.216.466-.136.711.423,1.3,1.378,2.327,2.587,2.877-1.247.564-2.674.775-4.035.621-.352-.041-.676.167-.792.496-.116.33.011.696.306.883,1.991,1.262,4.307,1.929,6.696,1.929,7.77,0,12.412-6.222,12.412-12.237v-.16c.729-.574,1.37-1.253,1.908-2.023.191-.274.178-.642-.032-.901Zm-3.076,1.951c-.212.152-.329.403-.311.663.012.157.011.314.011.471,0,5.278-4.082,10.737-10.912,10.737-1.119,0-2.22-.166-3.268-.488,1.271-.287,2.46-.846,3.51-1.656.252-.194.354-.526.254-.829-.099-.302-.378-.508-.696-.515-1.034-.021-1.976-.5-2.585-1.262.26-.026.519-.071.774-.137.34-.087.573-.396.564-.747-.01-.35-.26-.647-.604-.715-1.165-.233-2.09-1.053-2.481-2.127.287.063.58.101.873.112.381.017.641-.201.743-.521.103-.321-.021-.671-.304-.855-.932-.612-1.488-1.635-1.488-2.736,0-.22.021-.436.063-.646,2.157,2.134,5.068,3.424,8.158,3.583.231.009.457-.085.608-.262.151-.177.212-.414.163-.642-.057-.268-.085-.526-.085-.77,0-1.813,1.502-3.288,3.349-3.288.943,0,1.813.37,2.451,1.042.177.185.433.267.683.22.048-.009.095-.018.142-.028-.205.196-.284.497-.192.776.102.31.391.515.712.515h.008c-.047.035-.094.069-.141.104Z"/>
</svg>