<svg xmlns="http://www.w3.org/2000/svg" width="24" height="24" viewBox="0 0 24 24">
    <path d="M19.414,21.75h-14a.75.75,0,1,1,0-1.5h14a.75.75,0,0,1,0,1.5ZM17.335,16V11.75h1.673a1.739,1.739,0,0,0,1.194-3L13.928,2.818a2.082,2.082,0,0,0-2.856,0L4.8,8.746a1.739,1.739,0,0,0,1.194,3H7.835V16a1.752,1.752,0,0,0,1.75,1.75h6A1.752,1.752,0,0,0,17.335,16ZM5.992,10.25a.24.24,0,0,1-.165-.414L12.1,3.908a.582.582,0,0,1,.8,0l6.275,5.928a.24.24,0,0,1-.165.414H16.585a.751.751,0,0,0-.75.75v5a.25.25,0,0,1-.25.25h-6a.25.25,0,0,1-.25-.25V11a.751.751,0,0,0-.75-.75Z"/>
</svg>