<svg xmlns="http://www.w3.org/2000/svg" width="24" height="24" viewBox="0 0 24 24">
    <path d="M16.75,7.269V4A1.752,1.752,0,0,0,15,2.25H9A1.752,1.752,0,0,0,7.25,4V7.269a2.038,2.038,0,0,0-2,2.231V18A3.383,3.383,0,0,0,9,21.75h6A3.383,3.383,0,0,0,18.75,18V9.5A2.038,2.038,0,0,0,16.75,7.269ZM9,3.75h6a.25.25,0,0,1,.25.25V7.25H8.75V4A.25.25,0,0,1,9,3.75ZM17.25,18c0,1.577-.673,2.25-2.25,2.25H9c-1.577,0-2.25-.673-2.25-2.25V9.5c0-.589.161-.75.75-.75h9c.589,0,.75.161.75.75Zm-3-1a.75.75,0,0,1-.75.75h-3a.75.75,0,0,1,0-1.5h3A.75.75,0,0,1,14.25,17ZM9.75,5.5a.75.75,0,1,1,.75.75A.75.75,0,0,1,9.75,5.5Zm3,0a.75.75,0,1,1,.75.75A.75.75,0,0,1,12.75,5.5Z"/>
</svg>