<svg xmlns="http://www.w3.org/2000/svg" width="24" height="24" viewBox="0 0 24 24">
    <path d="M17.625,2.25H6.375c-2.66,0-4.125,1.465-4.125,4.125v11.25c0,2.66,1.465,4.125,4.125,4.125h11.25c2.66,0,4.125-1.465,4.125-4.125V6.375C21.75,3.715,20.285,2.25,17.625,2.25Zm-.375,18H6.75v-.38a3.293,3.293,0,0,1,3.54-3.55h3.42a3.293,3.293,0,0,1,3.54,3.55Zm3-2.625c0,1.406-.463,2.192-1.5,2.486V19.87a4.74,4.74,0,0,0-5.04-5.05H10.29a4.74,4.74,0,0,0-5.04,5.05v.241c-1.037-.294-1.5-1.08-1.5-2.486V6.375c0-1.84.785-2.625,2.625-2.625h11.25c1.84,0,2.625.785,2.625,2.625ZM12.008,6.25A3.75,3.75,0,1,0,15.758,10,3.754,3.754,0,0,0,12.008,6.25Zm0,6A2.25,2.25,0,1,1,14.258,10,2.253,2.253,0,0,1,12.008,12.25Z"/>
</svg>