<svg xmlns="http://www.w3.org/2000/svg" width="24" height="24" viewBox="0 0 24 24">
    <path d="M10.009,10.75A4.25,4.25,0,1,0,5.759,6.5,4.255,4.255,0,0,0,10.009,10.75Zm0-7A2.75,2.75,0,1,1,7.259,6.5,2.753,2.753,0,0,1,10.009,3.75ZM12,12.25H8c-4.244,0-5.75,3.107-5.75,5.769C2.25,20.425,3.583,21.75,6,21.75H14c2.42,0,3.753-1.325,3.753-3.731C17.75,15.357,16.244,12.25,12,12.25Zm2,8H6c-1.579,0-2.253-.667-2.253-2.231A3.958,3.958,0,0,1,8,13.75h4a3.958,3.958,0,0,1,4.25,4.269C16.25,19.583,15.576,20.25,14,20.25ZM21.53,11.5a.75.75,0,1,1-1.06,1.06L19,11.088l-1.47,1.47a.75.75,0,0,1-1.06-1.06l1.469-1.47L16.47,8.558A.75.75,0,0,1,17.53,7.5L19,8.967,20.47,7.5a.75.75,0,0,1,1.06,1.06l-1.469,1.47Z"/>
</svg>