<svg xmlns="http://www.w3.org/2000/svg" width="24" height="24" viewBox="0 0 24 24">
    <path d="M10.009,10.75a4.25,4.25,0,1,1,4.25-4.25A4.255,4.255,0,0,1,10.009,10.75Zm0-7a2.75,2.75,0,1,0,2.75,2.75A2.752,2.752,0,0,0,10.009,3.75ZM12,21.75H6c-2.418,0-3.75-1.325-3.75-3.73,0-2.662,1.506-5.77,5.75-5.77h4a6.957,6.957,0,0,1,1.119.08.75.75,0,1,1-.238,1.48A5.634,5.634,0,0,0,12,13.75H8a3.959,3.959,0,0,0-4.25,4.27c0,1.563.673,2.23,2.25,2.23h6a.75.75,0,0,1,0,1.5Zm6.429,1a.759.759,0,0,1-.245-.041,5.5,5.5,0,0,1-3.934-5.153V15.333a.75.75,0,0,1,.539-.719,16.646,16.646,0,0,0,3.3-1.281.75.75,0,0,1,.69,0,13.552,13.552,0,0,0,3.263,1.214.751.751,0,0,1,.561.726v2.281a5.5,5.5,0,0,1-3.933,5.153A.759.759,0,0,1,18.429,22.75ZM15.75,15.891v1.665A4.023,4.023,0,0,0,18.429,21.2a4.025,4.025,0,0,0,2.678-3.641V15.85a14.352,14.352,0,0,1-2.673-1.009A17.348,17.348,0,0,1,15.75,15.891Z"/>
</svg>