<svg xmlns="http://www.w3.org/2000/svg" width="24" height="24" viewBox="0 0 24 24">
    <path d="M10.009,10.75A4.25,4.25,0,1,0,5.759,6.5,4.255,4.255,0,0,0,10.009,10.75Zm0-7A2.75,2.75,0,1,1,7.259,6.5,2.753,2.753,0,0,1,10.009,3.75Zm2.872,10.06A5.634,5.634,0,0,0,12,13.75H8a3.959,3.959,0,0,0-4.25,4.27c0,1.563.673,2.23,2.25,2.23h5a.75.75,0,0,1,0,1.5H6c-2.418,0-3.75-1.325-3.75-3.73,0-2.662,1.506-5.77,5.75-5.77h4a6.957,6.957,0,0,1,1.119.08.75.75,0,1,1-.238,1.48Zm9.649,7.66L20.7,19.638A4.1,4.1,0,1,0,19.638,20.7L21.47,22.53a.75.75,0,0,0,1.06-1.06Zm-7.78-4.137a2.584,2.584,0,1,1,2.583,2.584A2.586,2.586,0,0,1,14.75,17.333Z"/>
</svg>