<svg xmlns="http://www.w3.org/2000/svg" width="24" height="24" viewBox="0 0 24 24">
    <path d="M17.667,12.444a.747.747,0,0,1-.53-.219L15.47,10.558A.75.75,0,1,1,16.53,9.5l1.137,1.136,2.8-2.8a.75.75,0,1,1,1.06,1.061L18.2,12.225A.747.747,0,0,1,17.667,12.444ZM14.259,6.5a4.25,4.25,0,1,0-4.25,4.25A4.255,4.255,0,0,0,14.259,6.5Zm-1.5,0a2.75,2.75,0,1,1-2.75-2.75A2.753,2.753,0,0,1,12.759,6.5ZM17.75,18.019c0-2.662-1.506-5.769-5.75-5.769H8c-4.244,0-5.75,3.107-5.75,5.769C2.25,20.425,3.583,21.75,6,21.75H14C16.417,21.75,17.75,20.425,17.75,18.019ZM12,13.75a3.958,3.958,0,0,1,4.25,4.269c0,1.564-.674,2.231-2.253,2.231H6c-1.579,0-2.253-.667-2.253-2.231A3.958,3.958,0,0,1,8,13.75Z"/>
</svg>