<svg xmlns="http://www.w3.org/2000/svg" width="24" height="24" viewBox="0 0 24 24">
    <path d="M11.009,10.75A4.25,4.25,0,1,0,6.759,6.5,4.255,4.255,0,0,0,11.009,10.75Zm0-7A2.75,2.75,0,1,1,8.259,6.5,2.753,2.753,0,0,1,11.009,3.75ZM4.75,18.02c0,1.563.673,2.23,2.25,2.23h7a.75.75,0,0,1,0,1.5H7c-2.418,0-3.75-1.325-3.75-3.73,0-2.662,1.506-5.77,5.75-5.77h4A5.306,5.306,0,0,1,17.791,14.6a.75.75,0,1,1-1.262.81A3.89,3.89,0,0,0,13,13.75H9A3.959,3.959,0,0,0,4.75,18.02Zm15.78,2.45a.75.75,0,1,1-1.06,1.06l-.97-.969-.97.969a.75.75,0,0,1-1.06-1.06l.969-.97-.969-.97a.75.75,0,0,1,1.06-1.06l.97.969.97-.969a.75.75,0,0,1,1.06,1.06l-.969.97Z"/>
</svg>