<svg xmlns="http://www.w3.org/2000/svg" width="24" height="24" viewBox="0 0 24 24">
    <path d="M21.75,5.5v-1A2.067,2.067,0,0,0,19.5,2.25h-1a2.038,2.038,0,0,0-2.231,2H7.731a2.038,2.038,0,0,0-2.231-2h-1A2.067,2.067,0,0,0,2.25,4.5v1a2.036,2.036,0,0,0,2,2.23v8.54a2.036,2.036,0,0,0-2,2.23v1A2.067,2.067,0,0,0,4.5,21.75h1a2.038,2.038,0,0,0,2.231-2h8.538a2.038,2.038,0,0,0,2.231,2h1a2.067,2.067,0,0,0,2.25-2.25v-1a2.036,2.036,0,0,0-2-2.23V7.73A2.036,2.036,0,0,0,21.75,5.5Zm-4-1c0-.589.161-.75.75-.75h1c.589,0,.75.161.75.75v1c0,.589-.161.75-.75.75h-1c-.589,0-.75-.161-.75-.75ZM16.269,18.25H7.731A2,2,0,0,0,5.75,16.27V7.73A2,2,0,0,0,7.731,5.75h8.538A2,2,0,0,0,18.25,7.73v8.54A2,2,0,0,0,16.269,18.25ZM3.75,5.5v-1c0-.589.161-.75.75-.75h1c.589,0,.75.161.75.75v1c0,.589-.161.75-.75.75h-1C3.911,6.25,3.75,6.089,3.75,5.5Zm2.5,14c0,.589-.161.75-.75.75h-1c-.589,0-.75-.161-.75-.75v-1c0-.589.161-.75.75-.75h1c.589,0,.75.161.75.75Zm14-1v1c0,.589-.161.75-.75.75h-1c-.589,0-.75-.161-.75-.75v-1c0-.589.161-.75.75-.75h1C20.089,17.75,20.25,17.911,20.25,18.5Z"/>
</svg>