<svg xmlns="http://www.w3.org/2000/svg" width="24" height="24" viewBox="0 0 24 24">
    <path d="M7.75,3a.75.75,0,0,1,.75-.75h6a.75.75,0,0,1,0,1.5h-6A.75.75,0,0,1,7.75,3ZM14.5,20.25h-6a.75.75,0,0,0,0,1.5h6a.75.75,0,0,0,0-1.5Zm5.25-8.5a.75.75,0,0,1-.75.75h-.25v3A3.383,3.383,0,0,1,15,19.25H8A3.383,3.383,0,0,1,4.25,15.5v-7A3.383,3.383,0,0,1,8,4.75h7A3.383,3.383,0,0,1,18.75,8.5V11H19A.75.75,0,0,1,19.75,11.75ZM17.25,8.5c0-1.577-.673-2.25-2.25-2.25H8c-1.577,0-2.25.673-2.25,2.25v7c0,1.577.673,2.25,2.25,2.25h7c1.577,0,2.25-.673,2.25-2.25Zm-5,3.125V8.5a.75.75,0,0,0-1.5,0V12a.75.75,0,0,0,.3.6l2,1.5a.75.75,0,0,0,.9-1.2Z"/>
</svg>