<svg xmlns="http://www.w3.org/2000/svg" width="24" height="24" fill="none"><path fill="#fff" fill-opacity=".01" d="M24 0v24H0V0z"/><path fill="#FFFFFF" fill-rule="evenodd" d="m17.913 5.998.442.44c.784.777 1.572 1.558 2.256 2.421.645.815 1.092 1.62 1.2 2.577a5 5 0 0 1 0 1.127c-.108.956-.555 1.762-1.2 2.576-.684.864-1.472 1.645-2.256 2.422l-.442.44c-1.1 1.099-1.986 1.985-2.773 2.61-.815.645-1.62 1.091-2.576 1.2a5 5 0 0 1-1.128 0c-.956-.109-1.761-.555-2.576-1.2-.787-.625-1.674-1.511-2.773-2.61l-.442-.44c-.784-.777-1.572-1.558-2.256-2.422-.646-.814-1.092-1.62-1.2-2.576a5 5 0 0 1 0-1.127c.108-.956.554-1.762 1.2-2.577.684-.863 1.472-1.644 2.255-2.42l.443-.44c1.1-1.1 1.986-1.986 2.773-2.61.815-.646 1.62-1.092 2.576-1.2a5.002 5.002 0 0 1 1.128 0c.955.108 1.761.554 2.576 1.2.787.624 1.674 1.51 2.773 2.61M10.57 9.62a1.441 1.441 0 1 1 2.86 0l-.437 3.504a1 1 0 0 1-1.985 0zM12 15a1 1 0 0 0 0 2h.003a1 1 0 1 0 0-2z" clip-rule="evenodd"/></svg>