<svg xmlns="http://www.w3.org/2000/svg" width="24" height="24" fill="none"><path fill="#fff" fill-opacity=".01" d="M24 0v24H0V0z"/><path fill="#FFFFFF" fill-rule="evenodd" d="M13.974 2.506a4 4 0 0 1 2.454 1.017c.502.45.892.977 1.639.977A4.433 4.433 0 0 1 22.5 8.934v4.13c0 1.59 0 2.871-.12 3.89-.125 1.055-.39 1.957-1.015 2.718-.208.253-.44.486-.693.693-.76.625-1.663.89-2.718 1.015-1.019.12-2.3.12-3.89.12H9.936c-1.59 0-2.872 0-3.891-.12-1.055-.125-1.957-.39-2.718-1.015a5 5 0 0 1-.693-.693c-.624-.76-.89-1.663-1.015-2.718-.12-1.019-.12-2.3-.12-3.89v-4.13A4.433 4.433 0 0 1 5.933 4.5c.747 0 1.137-.527 1.639-.977a4 4 0 0 1 2.454-1.017 36.73 36.73 0 0 1 3.948 0M12 9.5a3 3 0 1 0 0 6 3 3 0 0 0 0-6m-5 3a5 5 0 1 1 10 0 5 5 0 0 1-10 0" clip-rule="evenodd"/></svg>