<svg xmlns="http://www.w3.org/2000/svg" width="24" height="24" fill="none"><path fill="#fff" fill-opacity=".01" d="M24 0v24H0V0z"/><path fill="#FFFFFF" fill-rule="evenodd" d="M1.5 12c0-.94-.017-1.885.063-2.822.064-.759.2-1.424.527-2.035A5 5 0 0 1 4.143 5.09c.611-.327 1.277-.463 2.035-.528C6.915 4.5 7.826 4.5 8.955 4.5h6.09c1.13 0 2.04 0 2.777.062.759.065 1.424.201 2.035.528a5 5 0 0 1 2.053 2.053c.326.61.463 1.276.527 2.035.08.937.063 1.882.063 2.821 0 .94.017 1.885-.063 2.822-.064.759-.2 1.424-.527 2.036a5 5 0 0 1-2.053 2.052c-.611.327-1.276.463-2.035.528-.737.063-1.648.063-2.777.063h-6.09c-1.129 0-2.04 0-2.777-.063-.758-.065-1.424-.201-2.035-.528a5 5 0 0 1-2.053-2.052c-.326-.612-.463-1.277-.527-2.036C1.483 13.884 1.5 12.94 1.5 12m4 2.5a1 1 0 0 1-1-1v-3a1 1 0 0 1 2 0v3a1 1 0 0 1-1 1m12.5-1a1.5 1.5 0 1 1 0-3 1.5 1.5 0 0 1 0 3" clip-rule="evenodd"/></svg>