<svg xmlns="http://www.w3.org/2000/svg" width="24" height="24" fill="none"><path fill="#fff" fill-opacity=".01" d="M24 0v24H0V0z"/><path fill="#FFFFFF" fill-rule="evenodd" d="M19 15.575c0-.277.002-.541.042-.816.155-.254.348-.477.535-.707.316-.386.774-.94 1.39-1.683A4.5 4.5 0 0 0 17.5 5c-.694 0-1.138-.001-1.326-.008a45.269 45.269 0 0 1-.899-.77A4.985 4.985 0 0 0 12 3a4.985 4.985 0 0 0-3.275 1.222c-.465.403-.766.663-.9.77C7.639 4.999 7.196 5 6.5 5a4.5 4.5 0 0 0-3.467 7.369c.616.744 1.074 1.297 1.39 1.683.222.272.503.532.563.885.035.207.014.43.014.638 0 .646 0 1.188.03 1.629.03.456.094.878.258 1.286a4 4 0 0 0 2.222 2.222c.408.164.83.229 1.286.259.44.029.978.029 1.629.029h3.15c.651 0 1.189 0 1.629-.03.456-.03.878-.094 1.286-.258a4 4 0 0 0 2.222-2.222c.164-.408.229-.83.259-1.286.03-.442.029-.983.029-1.629M16.98 17H7.02c.023.395.068.606.124.745a2 2 0 0 0 1.11 1.111c.131.052.317.095.675.12.366.024.837.024 1.53.024h3.083c.692 0 1.163 0 1.53-.025.357-.024.543-.067.673-.119a2 2 0 0 0 1.111-1.11c.056-.14.101-.35.124-.746" clip-rule="evenodd"/></svg>