<svg xmlns="http://www.w3.org/2000/svg" width="24" height="24" fill="none"><path fill="#fff" fill-opacity=".01" d="M24 0v24H0V0z"/><path fill="#FFFFFF" fill-rule="evenodd" d="M9 2a1 1 0 0 1 1 1v.51c1.332-.023 2.668-.023 4 0V3a1 1 0 1 1 2 0v.626c1.035.127 1.922.394 2.672 1.009.253.208.485.44.693.693.615.75.882 1.637 1.01 2.672H21a1 1 0 1 1 0 2h-.51c.023 1.332.023 2.668 0 4H21a1 1 0 1 1 0 2h-.626c-.127 1.035-.394 1.922-1.009 2.672-.208.253-.44.485-.693.693-.75.615-1.637.882-2.672 1.01V21a1 1 0 1 1-2 0v-.51c-1.332.023-2.668.023-4 0V21a1 1 0 1 1-2 0v-.626c-1.035-.127-1.922-.394-2.672-1.009a5.005 5.005 0 0 1-.693-.693c-.615-.75-.882-1.637-1.01-2.672H3a1 1 0 1 1 0-2h.51a112.195 112.195 0 0 1 0-4H3a1 1 0 0 1 0-2h.626c.127-1.035.394-1.922 1.009-2.672a5 5 0 0 1 .693-.693c.75-.615 1.637-.882 2.672-1.01V3a1 1 0 0 1 1-1m5.148 6.228a3 3 0 0 1 1.624 1.624c.274.661.246 1.445.246 2.148 0 .703.027 1.487-.246 2.148a3 3 0 0 1-1.624 1.624c-.661.274-1.445.246-2.148.246-.703 0-1.487.027-2.148-.246a3 3 0 0 1-1.624-1.624 3.07 3.07 0 0 1-.207-.986A17.13 17.13 0 0 1 7.982 12c0-.703-.028-1.487.246-2.148a3 3 0 0 1 1.624-1.624c.661-.274 1.445-.246 2.148-.246.703 0 1.487-.028 2.148.246m-3.174 1.789c-.228.015-.315.042-.357.06a1 1 0 0 0-.54.54c-.018.042-.045.129-.06.357a15.13 15.13 0 0 0 0 2.052c.015.228.042.315.06.357a1 1 0 0 0 .54.54c.042.018.129.045.357.06a15.144 15.144 0 0 0 2.052 0c.228-.015.315-.042.357-.06a1 1 0 0 0 .54-.54c.018-.042.045-.129.06-.357a15.144 15.144 0 0 0 0-2.052c-.015-.228-.042-.315-.06-.357a1 1 0 0 0-.54-.54c-.042-.018-.129-.045-.357-.06a15.13 15.13 0 0 0-2.052 0" clip-rule="evenodd"/></svg>