<svg xmlns="http://www.w3.org/2000/svg" width="24" height="24" fill="none"><path fill="#fff" fill-opacity=".01" d="M24 0v24H0V0z"/><path fill="#FFFFFF" fill-rule="evenodd" d="M8 2.56c-.365.022-.705.053-1.022.095-1.2.162-2.211.507-3.014 1.31-.802.802-1.147 1.813-1.309 3.013C2.5 8.134 2.5 9.603 2.5 11.427v1.146c0 1.824 0 3.293.155 4.45.162 1.2.507 2.21 1.31 3.012.802.803 1.813 1.148 3.013 1.31.317.042.657.073 1.022.096zm2 18.937c.45.003.925.003 1.427.003h1.146c.502 0 .978 0 1.427-.003V2.503c-.45-.003-.925-.003-1.427-.003h-1.146c-.502 0-.978 0-1.427.003zm6-18.938v18.882c.365-.023.705-.054 1.022-.096 1.2-.162 2.211-.507 3.014-1.31.802-.802 1.147-1.812 1.309-3.013.155-1.156.155-2.625.155-4.449v-1.146c0-1.824 0-3.293-.155-4.45-.162-1.2-.507-2.21-1.31-3.013-.802-.802-1.812-1.147-3.013-1.309A14.293 14.293 0 0 0 16 2.56" clip-rule="evenodd"/></svg>