<svg xmlns="http://www.w3.org/2000/svg" width="24" height="24" fill="none"><path fill="#fff" fill-opacity=".01" d="M24 0v24H0V0z"/><path fill="#FFFFFF" fill-rule="evenodd" d="M12 2.5c.426 0 .756-.003 1.048.043a3.5 3.5 0 0 1 2.909 2.91c.043.274.043.581.043.971V7.43c0 .578-.007.571.572.571h1.004c.39 0 .697 0 .972.043a3.5 3.5 0 0 1 2.909 2.91c.046.291.043.62.043 1.047 0 .426.003.756-.043 1.048a3.5 3.5 0 0 1-2.91 2.909c-.274.043-.581.043-.971.043H16.57c-.584 0-.571 0-.571.572v1.004c0 .39 0 .697-.043.972a3.5 3.5 0 0 1-2.91 2.909c-.291.046-.62.043-1.047.043-.426 0-.756.003-1.047-.043a3.5 3.5 0 0 1-2.91-2.91C8 18.274 8 17.967 8 17.577V16.57c0-.57.013-.571-.571-.571H6.424c-.39 0-.697 0-.971-.043a3.5 3.5 0 0 1-2.91-2.91c-.046-.291-.043-.62-.043-1.047 0-.426-.003-.756.043-1.047a3.5 3.5 0 0 1 2.91-2.91C5.727 8 6.034 8 6.424 8H7.43C8.007 8 8 8.007 8 7.429V6.424c0-.39 0-.697.043-.971a3.5 3.5 0 0 1 2.91-2.91c.291-.046.62-.043 1.047-.043" clip-rule="evenodd"/></svg>