<svg xmlns="http://www.w3.org/2000/svg" width="24" height="24" fill="none"><path fill="#fff" fill-opacity=".01" d="M24 0v24H0V0z"/><path fill="#FFFFFF" fill-rule="evenodd" d="M2 12C2 6.477 6.477 2 12 2s10 4.477 10 10-4.477 10-10 10S2 17.523 2 12m10-6a1 1 0 0 1 1 1v.834c.546.037 1.093.097 1.643.176l.012.002C15.772 8.187 17 9.002 17 10.5a2.49 2.49 0 0 1-.5 1.5c.314.418.5.937.5 1.5 0 1.495-1.22 2.315-2.348 2.488-.555.086-1.104.146-1.652.182V17a1 1 0 1 1-2 0v-.806c-.85-.035-1.825-.02-2.455-.687C7.973 14.9 8 14.05 8 13.274v-2.567c0-.775-.024-1.618.546-2.222.63-.667 1.604-.652 2.454-.684V7a1 1 0 0 1 1-1m2.5 5a.5.5 0 0 0 .5-.5c0-.327-.38-.468-.65-.511a17.82 17.82 0 0 0-3.596-.174c-.37.021-.61.04-.73.062-.05.37-.024.751-.024 1.123zM10 13h4.5a.5.5 0 0 1 .5.5c0 .33-.38.47-.652.512a16.802 16.802 0 0 1-3.573.168 7.632 7.632 0 0 1-.75-.065C9.973 13.748 10 13.37 10 13" clip-rule="evenodd"/></svg>