<svg xmlns="http://www.w3.org/2000/svg" width="24" height="24" fill="none"><path fill="#fff" fill-opacity=".01" d="M24 0v24H0V0z"/><path fill="#FFFFFF" fill-rule="evenodd" d="M11 1.999a3 3 0 0 0-1.5 5.599v2.367l-.007.3c-.019.706-.037 1.427.024 2.127a4.5 4.5 0 0 0 4.09 4.09c.182.017.363.015.544.014.142 0 .284-.001.426.006.53.027.92.327 1.223.731l1.7 2.267.02.027c.09.126.381.534.836.762.454.227.956.215 1.11.211.122-.002.244-.002.365 0H20a1.5 1.5 0 0 0 0-3h-.25a65.64 65.64 0 0 1-.563-.766 30.847 30.847 0 0 0-1.23-1.616 4.5 4.5 0 0 0-3.61-1.615c-.16.003-.32.005-.478-.009-.725-.063-1.34-.676-1.366-1.412l.715.238c.368.123.719.18 1.107.18H16a1.5 1.5 0 0 0 0-3H14.243l-1.17-.39-.573-.191V7.598A3 3 0 0 0 11 1.999m-2.728 9.17a4.5 4.5 0 1 0 5.238 6.376l1.78.91a6.5 6.5 0 1 1-7.563-9.21z" clip-rule="evenodd"/></svg>