<svg xmlns="http://www.w3.org/2000/svg" width="24" height="24" fill="none"><path fill="#fff" fill-opacity=".01" d="M24 0v24H0V0z"/><path fill="#FFFFFF" fill-rule="evenodd" d="M17.557 2.608a1.5 1.5 0 0 1 .836 1.95l-.828 2.069A4.5 4.5 0 0 0 18 10.794l.498.748a7.5 7.5 0 0 1 .724 6.946l-.828 2.07a1.5 1.5 0 0 1-2.786-1.115l.828-2.07a4.5 4.5 0 0 0-.434-4.167l-.498-.747a7.5 7.5 0 0 1-.723-6.946l.827-2.07a1.5 1.5 0 0 1 1.95-.835" clip-rule="evenodd"/><path fill="#FFFFFF" fill-rule="evenodd" d="M12.557 2.608a1.5 1.5 0 0 1 .836 1.95l-.828 2.069A4.5 4.5 0 0 0 13 10.794l.498.748a7.5 7.5 0 0 1 .724 6.946l-.828 2.07a1.5 1.5 0 0 1-2.786-1.115l.828-2.07a4.5 4.5 0 0 0-.434-4.167l-.498-.747a7.5 7.5 0 0 1-.723-6.946l.827-2.07a1.5 1.5 0 0 1 1.95-.835" clip-rule="evenodd"/><path fill="#FFFFFF" fill-rule="evenodd" d="M7.557 2.608a1.5 1.5 0 0 1 .836 1.95l-.828 2.069A4.5 4.5 0 0 0 8 10.794l.499.748a7.5 7.5 0 0 1 .723 6.946l-.828 2.07a1.5 1.5 0 1 1-2.786-1.115l.828-2.07a4.5 4.5 0 0 0-.434-4.167l-.498-.747a7.5 7.5 0 0 1-.723-6.946l.827-2.07a1.5 1.5 0 0 1 1.95-.835" clip-rule="evenodd"/></svg>