<svg xmlns="http://www.w3.org/2000/svg" width="24" height="24" fill="none"><path fill="#fff" fill-opacity=".01" d="M24 0v24H0V0z"/><path fill="#FFFFFF" fill-rule="evenodd" d="M18.5 6.5a2 2 0 1 0 0-4 2 2 0 0 0 0 4M7.207 5.183A1.5 1.5 0 0 0 4.55 6.575c.588 1.122 1.378 1.963 2.468 2.596a1.957 1.957 0 0 0 1.965 0l-.753-1.297.753 1.297c1.09-.633 1.88-1.474 2.468-2.596a1.5 1.5 0 1 0-2.658-1.392A3.342 3.342 0 0 1 8 6.21a3.342 3.342 0 0 1-.793-1.026m10.934 2.394a1.5 1.5 0 0 0-1.897.949l-.528 1.581a3.5 3.5 0 0 1-3.32 2.393H9.854a4.5 4.5 0 0 0-4.025 2.488l-2.17 4.341a1.5 1.5 0 1 0 2.682 1.342l2.171-4.342a1.5 1.5 0 0 1 1.342-.829h2.542a6.5 6.5 0 0 0 6.166-4.444l.527-1.581a1.5 1.5 0 0 0-.948-1.898" clip-rule="evenodd"/></svg>