<svg xmlns="http://www.w3.org/2000/svg" width="24" height="24" fill="none"><path fill="#fff" fill-opacity=".01" d="M24 0v24H0V0z"/><path fill="#FFFFFF" fill-rule="evenodd" d="M8.222 1.547c.425-.031.851-.044 1.278-.048a3 3 0 0 1 3 3V5.946c0 .508-.001.946.102 1.331a3 3 0 0 0 2.121 2.122c.386.103.824.103 1.332.102H17.5a3 3 0 0 1 3 3v1.563c0 1.59 0 2.872-.12 3.891-.159 1.338-.656 2.547-1.708 3.411-.76.625-1.663.89-2.718 1.015-1.108.13-2.232.126-3.348.122h-.001L12 22.5c-.201 0-.403 0-.605.002-1.117.004-2.241.009-3.35-.122-1.054-.125-1.956-.39-2.717-1.015a4.995 4.995 0 0 1-.693-.693c-.624-.76-.89-1.663-1.015-2.718-.12-1.019-.12-2.3-.12-3.89V8.628c0-.978 0-1.767.047-2.407.049-.66.152-1.241.4-1.787a5 5 0 0 1 2.488-2.489c.546-.247 1.127-.35 1.787-.399m10.977 4.374a7 7 0 0 1 1.11 2.442A4.977 4.977 0 0 0 17.5 7.5h-1.333c-.685 0-.83-.009-.926-.034a1 1 0 0 1-.707-.707c-.025-.095-.034-.241-.034-.926V4.5a4.977 4.977 0 0 0-.863-2.81 7 7 0 0 1 2.442 1.11c.474.34.895.76 1.564 1.428l.064.065.064.064c.67.67 1.09 1.09 1.428 1.564m-8.235 8.845a1 1 0 0 0-.928-1.772c-.942.493-1.668 1.136-2.233 2.01a4.277 4.277 0 0 1-.025.039c-.106.158-.333.5-.333.959 0 .459.229.8.334.959l.025.037c.566.873 1.291 1.516 2.23 2.01a1 1 0 0 0 .931-1.77C10.344 16.91 9.9 16.52 9.542 16c.356-.52.8-.909 1.422-1.234m3-1.772a1 1 0 0 0-.928 1.772c.622.325 1.066.714 1.422 1.234-.357.52-.802.91-1.423 1.237a1 1 0 1 0 .93 1.77c.94-.493 1.665-1.136 2.231-2.009a3.96 3.96 0 0 1 .025-.037c.105-.158.334-.5.334-.96 0-.458-.227-.8-.333-.958l-.024-.038c-.566-.875-1.292-1.518-2.234-2.011" clip-rule="evenodd"/></svg>