<svg xmlns="http://www.w3.org/2000/svg" width="24" height="24" fill="none"><path fill="#fff" fill-opacity=".01" d="M24 0v24H0V0z"/><path fill="#FFFFFF" d="M11 3.5a1.5 1.5 0 1 1-3 0 1.5 1.5 0 0 1 3 0M16 3.5a1.5 1.5 0 1 1-3 0 1.5 1.5 0 0 1 3 0M18.5 6.5a1 1 0 1 0 0-2 1 1 0 0 0 0 2M7 5.5a2 2 0 1 1-4 0 2 2 0 0 1 4 0M13.208 6.138c-1.896-.392-3.851.072-5.248 1.12C6.54 8.32 5.647 10.045 6.132 12.05c.316 1.31 1.142 1.96 1.84 2.421.1.066.204.13.308.195.66.411 1.35.84 1.261 1.706-.033.32-.092.636-.15.949-.153.832-.304 1.649.022 2.496.717 1.857 3.003 2.599 4.763 1.873 2.942-1.214 4.876-4.966 4.823-8.013-.066-3.749-2.028-6.76-5.79-7.54"/></svg>