<svg width="24" height="24" viewBox="0 0 24 24" fill="none" xmlns="http://www.w3.org/2000/svg">
<path d="M24 0V24H0V0H24Z" fill="white" fill-opacity="0.01"/>
<path d="M13.0818 13.3095C12.3336 12.9538 12.0154 12.059 12.371 11.3108C12.7267 10.5626 13.6215 10.2444 14.3697 10.6L13.0818 13.3095ZM19.1832 7.22958C19.1049 6.40486 19.71 5.67281 20.5347 5.59451C21.3594 5.5162 22.0915 6.12128 22.1698 6.946L19.1832 7.22958ZM11.5002 6.99998L11.5002 8.49998L11.5002 6.99998ZM4.50017 15.5C4.50017 16.3284 3.8286 17 3.00017 17C2.17174 17 1.50017 16.3284 1.50017 15.5L4.50017 15.5ZM19.3571 13.0205L19.467 14.5165L19.3571 13.0205ZM14.3697 10.6C15.9807 11.3658 17.5019 11.6528 19.2472 11.5245L19.467 14.5165C17.1952 14.6834 15.1551 14.295 13.0818 13.3095L14.3697 10.6ZM18.391 12.1242C19.1066 10.5312 19.3521 9.00853 19.1832 7.22958L22.1698 6.946C22.3865 9.22805 22.062 11.2735 21.1275 13.3536L18.391 12.1242ZM11.5002 8.49998C7.63418 8.49998 4.50017 11.634 4.50017 15.5L1.50017 15.5C1.50017 9.97713 5.97732 5.49998 11.5002 5.49998L11.5002 8.49998ZM18.1927 13.4406C17.3132 10.5781 14.6474 8.49998 11.5002 8.49998L11.5002 5.49998C16.0017 5.49998 19.8048 8.47318 21.0604 12.5594L18.1927 13.4406ZM19.2472 11.5245C18.8734 11.552 18.5447 11.782 18.391 12.1242L21.1275 13.3536C20.8295 14.0168 20.1919 14.4632 19.467 14.5165L19.2472 11.5245Z" fill="#FFFFFF"/>
</svg>
