<svg xmlns="http://www.w3.org/2000/svg" width="24" height="24" fill="none"><path fill="#fff" fill-opacity=".01" d="M24 0v24H0V0z"/><path fill="#FFFFFF" d="M3.897 9.08c.616-.489 1.082-1.176 1.247-1.945A6.502 6.502 0 0 1 17.152 5.29a3.13 3.13 0 0 0 1.39 1.275 6 6 0 0 1 2.414 8.819c-.35.51-1.085.422-1.607.09a3.007 3.007 0 0 0-.726-.338 1.54 1.54 0 0 1-.587-.339 3.01 3.01 0 0 0-.59-.425 1.634 1.634 0 0 1-.791-1.047 1.442 1.442 0 0 1 0-.649 2.99 2.99 0 0 0-.325-2.175 2.99 2.99 0 0 0-1.707-1.365 1.54 1.54 0 0 1-.587-.339A2.99 2.99 0 0 0 12 8c-.786 0-1.5.302-2.036.796a1.54 1.54 0 0 1-.587.34A2.99 2.99 0 0 0 7.67 10.5a2.99 2.99 0 0 0-.325 2.175c.05.214.05.436 0 .65-.101.438-.397.829-.792 1.046-.213.118-.41.261-.589.425a1.538 1.538 0 0 1-.587.34A2.99 2.99 0 0 0 3.67 16.5c-.044.076-.147.094-.209.032A4.984 4.984 0 0 1 2 13a4.99 4.99 0 0 1 1.897-3.92"/><path fill="#FFFFFF" d="M13 11a1 1 0 1 0-2 0c0 .12-.129.194-.232.134a1 1 0 0 0-1 1.732.155.155 0 0 1 0 .268 1 1 0 1 0 1 1.732A.155.155 0 0 1 11 15a1 1 0 1 0 2 0c0-.12.129-.194.232-.134a1 1 0 1 0 1-1.732.155.155 0 0 1 0-.268 1 1 0 1 0-1-1.732A.155.155 0 0 1 13 11M9 17a1 1 0 1 0-2 0c0 .12-.129.194-.232.134a1 1 0 0 0-1 1.732.155.155 0 0 1 0 .268 1 1 0 1 0 1 1.732A.155.155 0 0 1 7 21a1 1 0 1 0 2 0c0-.12.129-.194.232-.134a1 1 0 1 0 1-1.732.155.155 0 0 1 0-.268 1 1 0 1 0-1-1.732A.155.155 0 0 1 9 17M17 17a1 1 0 1 0-2 0c0 .12-.129.194-.232.134a1 1 0 0 0-1 1.732.155.155 0 0 1 0 .268 1 1 0 1 0 1 1.732A.155.155 0 0 1 15 21a1 1 0 1 0 2 0c0-.12.129-.194.232-.134a1 1 0 1 0 1-1.732.155.155 0 0 1 0-.268 1 1 0 1 0-1-1.732A.155.155 0 0 1 17 17"/></svg>