<svg xmlns="http://www.w3.org/2000/svg" width="24" height="24" fill="none"><path fill="#fff" fill-opacity=".01" d="M24 0v24H0V0z"/><path fill="#FFFFFF" d="M12 2.36c-.764 0-1.424.264-2.08.66-.623.375-1.326.922-2.17 1.579L2.772 8.47c-.16.124-.35.273-.489.413l-.001.001c-.092.094-.567.576-.334 1.254.232.678.903.768 1.033.785h.003c.19.026.428.026.627.026v2.228c0 1.538 0 2.779.113 3.767.117 1.022.366 1.899.954 2.647.247.315.531.6.846.847.748.587 1.626.836 2.648.953.707.081 1.061.122 1.357-.063a1.06 1.06 0 0 0 .254-.226c.217-.273.217-.662.217-1.44V15a2 2 0 1 1 4 0v4.662c0 .778 0 1.167.217 1.44.067.084.162.17.254.226.296.185.65.144 1.357.063 1.022-.117 1.9-.366 2.648-.953.315-.247.599-.532.846-.847.587-.748.837-1.625.954-2.647.113-.988.113-2.229.113-3.767v-2.228c.2 0 .436 0 .627-.026h.002c.13-.017.801-.107 1.034-.785.233-.678-.242-1.16-.334-1.254l-.002-.001c-.138-.14-.329-.289-.488-.413L16.25 4.6c-.844-.657-1.547-1.204-2.17-1.579-.657-.396-1.316-.66-2.08-.66"/></svg>