<svg xmlns="http://www.w3.org/2000/svg" width="24" height="24" fill="none"><path fill="#fff" fill-opacity=".01" d="M24 0v24H0V0z"/><path fill="#FFFFFF" fill-rule="evenodd" d="M16 14c0 2.354-.084 4.785-.276 7H16a1 1 0 1 1 0 2H8a1 1 0 1 1 0-2h.276C8.084 18.785 8 16.354 8 14c0-3.6.196-6.458.703-8.44.253-.989.605-1.852 1.122-2.484C10.373 2.406 11.108 2 12 2c.892 0 1.627.406 2.175 1.076.517.632.87 1.495 1.122 2.484C15.804 7.542 16 10.4 16 14m-5.854 2.56a.5.5 0 0 1-.146-.353v-2.414a.5.5 0 0 1 .146-.354l2.086-2.085a.5.5 0 0 0 0-.707L10.18 8.593a.485.485 0 0 1-.143-.386c.043-.472.123-.926.229-1.357.088-.36.533-.466.795-.204l2.794 2.793a.5.5 0 0 1 .146.354v2.414a.5.5 0 0 1-.146.354l-2.086 2.085a.5.5 0 0 0 0 .708l2.086 2.085a.5.5 0 0 1 .146.354v2.311c0 .117-.125.185-.207.103z" clip-rule="evenodd"/></svg>