<svg width="24" height="24" viewBox="0 0 24 24" fill="none" xmlns="http://www.w3.org/2000/svg">
<path d="M24 0V24H0V0H24Z" fill="white" fill-opacity="0.01"/>
<path fill-rule="evenodd" clip-rule="evenodd" d="M1.99903 13.0539C1.99917 12.3525 1.99917 11.6481 1.99903 10.9451C1.99895 10.5211 1.99887 10.109 2.04457 9.76904C2.09609 9.38584 2.22161 8.94856 2.58483 8.58535C2.94804 8.22213 3.38532 8.09661 3.76852 8.04509C4.10843 7.99939 4.52056 7.99947 4.94463 7.99955C7.29609 8.00005 9.64756 7.99956 11.999 7.99956C11.999 7.43216 11.9992 6.86476 11.999 6.29736C11.9989 5.821 11.9987 5.34954 12.0586 4.97668C12.1253 4.56081 12.3094 3.99019 12.9107 3.67548C13.4991 3.36756 14.0597 3.52223 14.445 3.70398C14.7959 3.86946 15.1923 4.1485 15.5819 4.41878C17.6242 5.83546 19.2949 7.51584 20.6969 9.57843C21.2137 10.3387 21.7153 11.0184 21.7153 11.9997C21.7153 12.9811 21.2137 13.6608 20.6969 14.421C19.295 16.4836 17.6242 18.164 15.5817 19.5805C15.1921 19.8507 14.7957 20.1297 14.4449 20.2952C14.0596 20.4769 13.499 20.6315 12.9107 20.3236C12.3094 20.0089 12.1253 19.4383 12.0586 19.0224C11.9987 18.6496 11.9989 18.1782 11.999 17.7018C11.9992 17.1344 11.999 16.5669 11.999 15.9995C9.64756 15.9995 7.29609 15.999 4.94463 15.9995C4.52056 15.9996 4.10843 15.9997 3.76852 15.954C3.38532 15.9024 2.94804 15.7769 2.58482 15.4137C2.22161 15.0505 2.09609 14.6132 2.04457 14.23C1.99887 13.8901 1.99895 13.478 1.99903 13.0539Z" fill="#FFFFFF"/>
</svg>
