<svg xmlns="http://www.w3.org/2000/svg" width="24" height="24" fill="none"><path fill="#fff" fill-opacity=".01" d="M24 0v24H0V0z"/><path fill="#FFFFFF" fill-rule="evenodd" d="M7 5.121A3.121 3.121 0 0 1 10.121 2c.664 0 1.298.113 1.879.454.58-.34 1.215-.454 1.879-.454a3.121 3.121 0 0 1 2.207 5.328c-.826.826-1.683 1.847-2.828 2.226a4 4 0 0 1-2.516 0c-1.145-.379-2.002-1.4-2.828-2.226A3.121 3.121 0 0 1 7 5.121M18.879 7A3.121 3.121 0 0 1 22 10.121c0 .664-.113 1.298-.454 1.879.34.58.454 1.215.454 1.879A3.121 3.121 0 0 1 18.879 17c-.844 0-1.642-.35-2.236-.943-.816-.815-1.823-1.669-2.198-2.8a4 4 0 0 1 0-2.515c.375-1.13 1.382-1.984 2.198-2.799A3.167 3.167 0 0 1 18.879 7M2 10.121a3.121 3.121 0 0 1 5.328-2.207c.826.826 1.847 1.683 2.226 2.828a4 4 0 0 1 0 2.516c-.379 1.145-1.4 2.002-2.226 2.828A3.122 3.122 0 0 1 2 13.879c0-.664.113-1.298.454-1.879-.34-.58-.454-1.215-.454-1.879m8.742 4.324a4 4 0 0 1 2.516 0c1.145.38 2.002 1.4 2.828 2.227A3.121 3.121 0 0 1 13.879 22c-.664 0-1.298-.113-1.879-.454-.58.34-1.215.454-1.879.454a3.121 3.121 0 0 1-2.207-5.328c.826-.826 1.683-1.847 2.828-2.227" clip-rule="evenodd"/></svg>