<svg xmlns="http://www.w3.org/2000/svg" width="24" height="24" fill="none"><path fill="#fff" fill-opacity=".01" d="M24 0v24H0V0z"/><path fill="#FFFFFF" fill-rule="evenodd" d="M12 2.5c1.67 0 3.364-.068 5.022.155 1.2.162 2.21.507 3.013 1.31.803.802 1.148 1.812 1.31 3.013.223 1.658.155 3.352.155 5.022 0 1.67.067 3.364-.155 5.022-.162 1.2-.507 2.21-1.31 3.013-.802.803-1.813 1.148-3.013 1.31-1.658.223-3.352.155-5.022.155-1.67 0-3.364.067-5.022-.155-1.2-.162-2.211-.507-3.014-1.31-.802-.802-1.147-1.813-1.309-3.013C2.432 15.364 2.5 13.67 2.5 12c0-1.67-.068-3.364.155-5.022.162-1.2.507-2.211 1.31-3.014.802-.802 1.812-1.147 3.013-1.309C8.636 2.432 10.33 2.5 12 2.5M7 8a1 1 0 0 1 1-1h.002a1 1 0 1 1 0 2H8a1 1 0 0 1-1-1m7.502 3.191a1.9 1.9 0 0 0-1.306-.21c-.246.05-.567.253-.855.577a2.232 2.232 0 0 0-.297.418.938.938 0 0 0-.044.092V16a1 1 0 1 1-2 0v-6a1 1 0 0 1 1.812-.584c.296-.18.63-.324.992-.396a3.897 3.897 0 0 1 2.729.457C16.356 9.972 17 10.84 17 12v4a1 1 0 1 1-2 0v-4c0-.339-.166-.61-.498-.809M8 10a1 1 0 0 1 1 1v5a1 1 0 1 1-2 0v-5a1 1 0 0 1 1-1" clip-rule="evenodd"/></svg>