<svg xmlns="http://www.w3.org/2000/svg" width="24" height="24" fill="none"><path fill="#fff" fill-opacity=".01" d="M24 0v24H0V0z"/><path fill="#FFFFFF" fill-rule="evenodd" d="M7 7a5 5 0 1 1 6 4.9V17a1 1 0 1 1-2 0v-5.1A5.002 5.002 0 0 1 7 7m2.489 9.1a1 1 0 0 1-.838 1.14c-1.278.195-2.293.489-2.96.815-.335.164-.534.314-.637.422a.685.685 0 0 0-.021.024c.033.038.09.095.19.168.28.207.749.435 1.418.644C7.968 19.728 9.863 20 12 20s4.032-.272 5.359-.687c.67-.209 1.138-.437 1.418-.644.1-.073.157-.13.19-.168a.644.644 0 0 0-.021-.024c-.103-.108-.302-.258-.637-.422-.667-.326-1.682-.62-2.96-.815a1 1 0 0 1 .301-1.977c1.388.211 2.622.547 3.539.996.457.224.884.5 1.208.842.33.347.603.82.603 1.4 0 .81-.524 1.4-1.034 1.776-.53.392-1.233.702-2.01.945-1.57.49-3.674.778-5.956.778-2.282 0-4.387-.288-5.955-.778-.778-.243-1.48-.553-2.01-.945C3.524 19.902 3 19.313 3 18.5c0-.579.273-1.052.603-1.4.325-.342.751-.617 1.208-.84.917-.45 2.152-.786 3.538-.997a1 1 0 0 1 1.14.838" clip-rule="evenodd"/></svg>