<svg xmlns="http://www.w3.org/2000/svg" width="24" height="24" fill="none"><path fill="#fff" fill-opacity=".01" d="M24 0v24H0V0z"/><path fill="#FFFFFF" fill-rule="evenodd" d="M9.195 7.852c-.472.595-1.006 1.516-1.793 2.878-.194.336-.134.247.153.438l.75.5a.352.352 0 0 0 .39 0 2.352 2.352 0 0 1 2.61 0 .352.352 0 0 0 .39 0l.75-.5c.287-.19.347-.101.153-.437-.787-1.363-1.322-2.284-1.793-2.879-.467-.587-.69-.622-.805-.622-.114 0-.338.035-.805.622m5.85 3.117-.757-1.311c-.734-1.272-1.342-2.324-1.917-3.05C11.779 5.864 11.04 5.23 10 5.23c-1.04 0-1.779.633-2.37 1.379-.587.738-1.207 1.817-1.96 3.121L3.76 13.036c-.734 1.272-1.342 2.325-1.682 3.185-.35.886-.528 1.842-.008 2.743.52.901 1.437 1.224 2.38 1.364.915.136 2.13.136 3.598.136h3.902c1.944 0 3.886-.003 5.83-.003 1.107 0 2.049 0 2.764-.106.739-.11 1.534-.374 1.981-1.163.447-.789.264-1.607-.023-2.297-.276-.667-.761-1.475-1.33-2.424l-.784-1.305c-.54-.9-1.002-1.67-1.443-2.207-.46-.56-1.07-1.083-1.946-1.083-.875 0-1.487.524-1.947 1.083z" clip-rule="evenodd"/></svg>