<svg xmlns="http://www.w3.org/2000/svg" width="24" height="24" fill="none"><path fill="#fff" fill-opacity=".01" d="M24 0v24H0V0z"/><path fill="#FFFFFF" fill-rule="evenodd" d="M17.573 3.505a1 1 0 1 0-1.414 1.414l4.243 4.243a1 1 0 1 0 1.414-1.415zM15.37 5.824a5 5 0 0 0-2.613-.617c-.711.028-1.416.263-2.437.604a90.12 90.12 0 0 1-.305.101c-.878.29-1.763.582-2.541 1.09-.84.55-1.85 1.645-2.328 2.528-.43.795-.563 1.337-.77 2.19a32.108 32.108 0 0 0-.828 5.352l-.005.075c-.055.776-.104 1.48-.044 2.067.068.669.283 1.276.807 1.8s1.132.74 1.8.808c.62.063 1.247.016 1.867-.03l.275-.02a32.01 32.01 0 0 0 5.32-.82c.773-.188 1.518-.397 2.223-.778.883-.478 1.978-1.487 2.527-2.328.509-.778.8-1.663 1.09-2.54l.101-.305c.34-1.022.576-1.726.605-2.437a5 5 0 0 0-.617-2.614c-.344-.623-.87-1.148-1.631-1.91l-.586-.586c-.762-.761-1.287-1.287-1.91-1.63m-2.04 6.166a2 2 0 0 0-3.412 1.499c-.407.486-.835.983-1.26 1.465l-.013.015a77.679 77.679 0 0 0-1.22 1.408 6.139 6.139 0 0 0-.346.446 1.61 1.61 0 0 0-.155.28 1.104 1.104 0 0 0-.083.345 1.023 1.023 0 0 0 1.438 1.01c.121-.051.223-.118.28-.157.13-.088.285-.211.446-.345.327-.273.798-.689 1.402-1.222l.015-.013 1.492-1.316a2 2 0 0 0 1.416-3.414m-5.904 4.663.005-.003a.068.068 0 0 1-.005.003m1.303 1.301.004-.006z" clip-rule="evenodd"/></svg>