<svg xmlns="http://www.w3.org/2000/svg" width="24" height="24" fill="none"><path fill="#fff" fill-opacity=".01" d="M24 0v24H0V0z"/><path fill="#FFFFFF" fill-rule="evenodd" d="M8.843 4.687a2.099 2.099 0 0 1 3.16-1.375 2.094 2.094 0 0 1 3.153 1.37l1.452 7.26a2 2 0 0 0 1.476 1.548l.771.193a2.5 2.5 0 0 1 1.845 2.916l-.294 1.47a3 3 0 0 1-3.767 2.296l-2.004-.574a4.993 4.993 0 0 1-2.63-1.814 4.993 4.993 0 0 1-2.631 1.813l-2.014.576a3 3 0 0 1-3.766-2.296L3.3 16.599a2.5 2.5 0 0 1 1.845-2.916l.77-.193a2 2 0 0 0 1.477-1.548zM6.849 18.432l-.655-2.95-.564.141a.5.5 0 0 0-.369.583l.294 1.471a1 1 0 0 0 1.256.766zm10.957-2.95-.655 2.949.038.01a1 1 0 0 0 1.256-.764l.294-1.47a.5.5 0 0 0-.37-.584z" clip-rule="evenodd"/></svg>