<svg xmlns="http://www.w3.org/2000/svg" width="24" height="24" fill="none"><path fill="#fff" fill-opacity=".01" d="M24 0v24H0V0z"/><path fill="#FFFFFF" fill-rule="evenodd" d="M5.144 7.135c-.165.769-.63 1.456-1.247 1.944a5.002 5.002 0 0 0 1.512 8.662c.3.101.591-.137.591-.453V14.5a3.5 3.5 0 0 1 5.618-2.787c.223.17.541.17.764 0A3.5 3.5 0 0 1 18 14.5v2.452c0 .345.342.585.651.432a6 6 0 0 0-.108-10.82 3.13 3.13 0 0 1-1.39-1.275A6.502 6.502 0 0 0 5.143 7.136M9 13a1 1 0 0 1 1 1v1a1 1 0 1 1-2 0v-1a1 1 0 0 1 1-1m7 1a1 1 0 1 0-2 0v1a1 1 0 1 0 2 0zm-4 1a1 1 0 0 1 1 1v1a1 1 0 1 1-2 0v-1a1 1 0 0 1 1-1m0 4a1 1 0 0 1 1 1v1a1 1 0 1 1-2 0v-1a1 1 0 0 1 1-1m4-1a1 1 0 1 0-2 0v1a1 1 0 1 0 2 0zm-7-1a1 1 0 0 1 1 1v1a1 1 0 1 1-2 0v-1a1 1 0 0 1 1-1" clip-rule="evenodd"/></svg>