<svg xmlns="http://www.w3.org/2000/svg" width="24" height="24" fill="none"><path fill="#fff" fill-opacity=".01" d="M24 0v24H0V0z"/><path stroke="#FFFFFF" stroke-linecap="round" stroke-width="3" d="M4 13v0c0-3.287 0-4.931.908-6.038a4 4 0 0 1 .554-.554C6.57 5.5 8.212 5.5 11.5 5.5H17m3 5.5v0c0 3.287 0 4.931-.908 6.038a4.001 4.001 0 0 1-.554.554c-1.107.908-2.75.908-6.038.908H7"/><path fill="#FFFFFF" fill-rule="evenodd" d="M16.802 2.684c-.582-.305-1.274.146-1.33.865a25.53 25.53 0 0 0-.075 1.975c0 .865.041 1.57.08 2.042.054.671.684 1.056 1.26.755.38-.198.933-.506 1.591-.934.66-.428 1.173-.812 1.515-1.083.52-.411.539-1.216.05-1.606a19.787 19.787 0 0 0-1.533-1.1 19.337 19.337 0 0 0-1.558-.914M7.198 21.316c.582.305 1.275-.146 1.33-.865.038-.47.075-1.15.075-1.975 0-.865-.041-1.57-.08-2.041-.054-.672-.684-1.057-1.26-.756-.381.198-.932.506-1.591.934a20.08 20.08 0 0 0-1.515 1.083c-.52.411-.539 1.216-.05 1.606.343.272.865.665 1.533 1.1a19.35 19.35 0 0 0 1.558.914" clip-rule="evenodd"/></svg>