<svg xmlns="http://www.w3.org/2000/svg" width="24" height="24" fill="none"><path fill="#fff" fill-opacity=".01" d="M24 0v24H0V0z"/><path fill="#FFFFFF" d="M10 4.5a2 2 0 1 1-4 0 2 2 0 0 1 4 0M18 4.5a2 2 0 1 1-4 0 2 2 0 0 1 4 0M5.25 12.49a2.76 2.76 0 1 1 5.5 0l-.584 7.017c-.012.149-.018.223-.028.287a2 2 0 0 1-1.85 1.702c-.064.004-.138.004-.288.004-.15 0-.224 0-.289-.004a2 2 0 0 1-1.849-1.702c-.01-.064-.016-.138-.028-.287zM13.608 11.461a2.44 2.44 0 0 1 4.784 0l.5 2.5a.45.45 0 0 1-.441.539.45.45 0 0 0-.451.45v4.55a2 2 0 1 1-4 0v-4.55a.45.45 0 0 0-.45-.45.45.45 0 0 1-.442-.539z"/><path stroke="#FFFFFF" stroke-linejoin="round" stroke-width="2" d="M10 4.5a2 2 0 1 1-4 0 2 2 0 0 1 4 0ZM18 4.5a2 2 0 1 1-4 0 2 2 0 0 1 4 0ZM5.25 12.49a2.76 2.76 0 1 1 5.5 0l-.584 7.017c-.012.149-.018.223-.028.287a2 2 0 0 1-1.85 1.702c-.064.004-.138.004-.288.004-.15 0-.224 0-.289-.004a2 2 0 0 1-1.849-1.702c-.01-.064-.016-.138-.028-.287zM13.608 11.461a2.44 2.44 0 0 1 4.784 0l.5 2.5a.45.45 0 0 1-.441.539.45.45 0 0 0-.451.45v4.55a2 2 0 1 1-4 0v-4.55a.45.45 0 0 0-.45-.45.45.45 0 0 1-.442-.539z"/></svg>