<svg xmlns="http://www.w3.org/2000/svg" width="24" height="24" fill="none"><path fill="#fff" fill-opacity=".01" d="M24 0v24H0V0z"/><path fill="#FFFFFF" fill-rule="evenodd" d="M8 2.56V6.053c0 .424 0 .837.045 1.176.052.384.177.82.54 1.184.364.363.801.489 1.184.54.34.046.752.046 1.176.046h1.109c.424 0 .836 0 1.176-.046.384-.051.82-.177 1.184-.54.363-.363.489-.8.54-1.184C15 6.89 15 6.478 15 6.054V2.502c.513.006.94.034 1.354.151.97.277 1.655.941 2.353 1.64.698.698 1.363 1.383 1.64 2.353.154.54.153 1.107.153 1.855v4.072c0 1.824 0 3.293-.155 4.45-.162 1.2-.507 2.21-1.31 3.012-.802.803-1.813 1.148-3.013 1.31l-.022.003V16.45c0-.66 0-1.23-.047-1.695-.05-.494-.162-.979-.459-1.423a3 3 0 0 0-.827-.828c-.444-.296-.93-.408-1.423-.458C12.78 12 12.21 12 11.55 12h-.098c-.66 0-1.23 0-1.695.047-.494.05-.979.162-1.423.458a3 3 0 0 0-.828.828c-.296.444-.408.93-.458 1.423C7 15.22 7 15.79 7 16.45v4.897l-.022-.003c-1.2-.162-2.211-.507-3.014-1.31-.802-.802-1.147-1.812-1.309-3.013-.155-1.156-.155-2.625-.155-4.449 0-.397-.004-.796-.009-1.195-.015-1.47-.03-2.948.164-4.4.162-1.2.507-2.211 1.31-3.014.802-.802 1.812-1.147 3.013-1.309.317-.042.657-.073 1.022-.096m2-.057V6c0 .5.002.774.028.964v.007l.008.001c.19.026.464.028.964.028h1c.5 0 .774-.002.964-.028h.007l.001-.008C12.998 6.774 13 6.5 13 6V2.5h-1.573c-.502 0-.978 0-1.427.003m-1 18.99c.6.015 1.2.012 1.798.01l.702-.003.702.002a59.55 59.55 0 0 0 1.798-.01V16.5c0-.723-.001-1.19-.037-1.542-.034-.335-.091-.453-.132-.514a1 1 0 0 0-.276-.276c-.06-.04-.178-.097-.513-.131C12.69 14 12.222 14 11.5 14c-.723 0-1.19.001-1.542.037-.335.034-.453.091-.514.131-.109.073-.203.167-.276.276-.04.06-.097.179-.131.514C9 15.31 9 15.777 9 16.5z" clip-rule="evenodd"/></svg>