<svg xmlns="http://www.w3.org/2000/svg" width="24" height="24" fill="none"><path fill="#fff" fill-opacity=".01" d="M24 0v24H0V0z"/><path fill="#FFFFFF" fill-rule="evenodd" d="M12.862 2.5h-1.724c-.97 0-1.794 0-2.446.085-.687.09-1.355.291-1.877.832-.656.68-.832 1.595-.742 2.517-1.779.51-3.15 2.053-3.488 3.87-.085.455-.085.957-.085 1.69v1.861c0 1.452 0 2.623.102 3.56.104.966.327 1.801.854 2.526a5 5 0 0 0 1.103 1.103c.725.527 1.56.75 2.527.854.936.102 2.107.102 3.559.102h2.71c1.452 0 2.623 0 3.56-.102.966-.104 1.801-.327 2.526-.854.423-.308.795-.68 1.103-1.103.527-.725.75-1.56.855-2.527.101-.936.101-2.107.101-3.559v-1.861c0-.733 0-1.235-.084-1.69-.339-1.817-1.71-3.36-3.49-3.87.09-.922-.085-1.838-.741-2.517-.522-.54-1.19-.743-1.877-.832-.652-.085-1.476-.085-2.446-.085m3.076 2.678-2.385 2.98c.561.281 1.716 1.821 1.716 1.821.372-1.018.585-3.233.673-4.307a2.166 2.166 0 0 0-.004-.494M12.796 4.5c.429 0 .798 0 1.12.005L12 6.9l-1.915-2.394c.32-.005.69-.005 1.12-.005zm-4.735.678 2.385 2.98c-.56.281-1.715 1.821-1.715 1.821-.372-1.017-.586-3.233-.673-4.307a2.173 2.173 0 0 1 .003-.494M16 13.5a1 1 0 1 0 0 2h1a1 1 0 1 0 0-2z" clip-rule="evenodd"/></svg>