<svg xmlns="http://www.w3.org/2000/svg" width="24" height="24" fill="none"><path fill="#fff" fill-opacity=".01" d="M24 0v24H0V0z"/><path fill="#FFFFFF" fill-rule="evenodd" d="M12 2.19c-.842 0-1.495.413-2.059.938-.532.496-1.109 1.212-1.788 2.055-.07.087-.138.18-.207.274-.176.241-.358.49-.588.657-.23.167-.523.263-.807.356a7.41 7.41 0 0 0-.324.112c-1.012.386-1.872.713-2.507 1.066-.674.374-1.268.868-1.528 1.668-.26.8-.07 1.549.256 2.247.306.66.81 1.43 1.401 2.336.061.094.129.187.197.282.175.242.356.492.443.762.088.27.089.579.09.877 0 .117 0 .233.006.344.054 1.081.1 2 .24 2.714.147.756.432 1.473 1.113 1.968.68.494 1.451.544 2.216.451.722-.088 1.61-.328 2.655-.611.107-.03.217-.064.329-.1.284-.092.578-.186.862-.186.283 0 .577.094.861.186.112.036.222.07.329.1 1.045.283 1.933.523 2.655.611.765.093 1.535.043 2.216-.451.68-.495.967-1.212 1.114-1.968.14-.714.185-1.633.24-2.714a7.41 7.41 0 0 0 .006-.344c0-.298.001-.607.089-.877s.268-.52.443-.762c.069-.095.136-.188.197-.282.592-.906 1.095-1.676 1.402-2.336.325-.698.515-1.447.255-2.247-.26-.8-.854-1.294-1.527-1.668-.636-.353-1.495-.68-2.508-1.066-.103-.04-.213-.075-.324-.112-.284-.093-.577-.189-.807-.356-.23-.167-.411-.416-.588-.657-.069-.094-.137-.187-.207-.274-.679-.843-1.256-1.56-1.788-2.055-.564-.525-1.217-.938-2.058-.938m4.087 17.122c-.562-.069-1.31-.269-2.446-.576l-.294-.082c-.12-.035-.24-.07-.362-.101-.534-.14-.985-.6-.985-1.153V5.01c0-.452.364-.727.695-.418.414.386.902.987 1.64 1.904.064.078.127.158.19.239.283.361.57.728.94.997.371.27.81.43 1.24.587.096.035.192.07.286.106 1.1.42 1.823.697 2.318.972.471.262.56.427.596.537.036.11.061.297-.166.785-.24.514-.66 1.163-1.304 2.15-.055.084-.112.168-.17.253-.255.38-.515.768-.657 1.203-.142.436-.158.902-.175 1.36a23 23 0 0 1-.012.305c-.06 1.176-.1 1.949-.209 2.505-.103.529-.233.665-.326.733-.094.068-.263.15-.799.084" clip-rule="evenodd"/></svg>