<svg xmlns="http://www.w3.org/2000/svg" width="24" height="24" fill="none"><path fill="#fff" fill-opacity=".01" d="M24 0v24H0V0z"/><path fill="#FFFFFF" fill-rule="evenodd" d="M9.5 5.5a1 1 0 0 0-1 1v3h6v-3a4 4 0 1 1 8 0 1.5 1.5 0 0 1-3 0 1 1 0 0 0-2 0V15c0 .041.182-.067.205-.085l1.358-1.086a1.5 1.5 0 0 1 1.874 2.342l-1.358 1.087a3.5 3.5 0 0 1-4.128.179l-.566-.378a.5.5 0 0 0-.59.026c-1.307 1.045-3.142 1.159-4.481.087-.48-.384-.845-.015-1.265.265a3.5 3.5 0 0 1-4.128-.18l-1.358-1.086a1.5 1.5 0 1 1 1.874-2.342l.563.45V6.5a4 4 0 1 1 8 0 1.5 1.5 0 0 1-3 0 1 1 0 0 0-1-1m5 8.477V12.5h-6v1.59c1.139-.3 2.283.015 3.188.74a.5.5 0 0 0 .624 0c.633-.507 1.369-.828 2.188-.853" clip-rule="evenodd"/><path fill="#FFFFFF" d="M17.705 18.915a.5.5 0 0 1-.59.026l-.566-.378c-1.332-.888-3.015-.711-4.237.266a.5.5 0 0 1-.624 0c-1.222-.977-2.905-1.154-4.237-.266l-.566.378a.5.5 0 0 1-.59-.026L4.937 17.83a1.5 1.5 0 0 0-1.874 2.342l1.358 1.087c1.515 1.212 3.235.774 4.694-.199a.5.5 0 0 1 .59.026c1.371 1.097 3.23 1.089 4.59 0a.5.5 0 0 1 .59-.026c1.46.973 3.179 1.41 4.694.199l1.358-1.087a1.5 1.5 0 1 0-1.874-2.342z"/></svg>