<svg xmlns="http://www.w3.org/2000/svg" width="24" height="24" fill="none"><path fill="#fff" fill-opacity=".01" d="M24 0v24H0V0z"/><path fill="#FFFFFF" fill-rule="evenodd" d="M9.474 1.5h5.053c.895 0 1.73.165 2.21 1.01 1.888.095 3.483 1.6 3.729 3.468.034.261.034.556.034.953v4.619c0 1.827 0 3.266-.104 4.42-.107 1.178-.33 2.156-.834 3.03A7 7 0 0 1 17 21.562c-.874.505-1.852.727-3.03.833-1.263.115-2.536.11-3.805.107l-.71-.002c-.182 0-.367.003-.555.005-1.149.017-2.403.035-3.4-.54A4 4 0 0 1 4.036 20.5c-.575-.997-.558-2.251-.541-3.4.003-.188.005-.373.005-.554V6.931c0-.397 0-.692.034-.953C3.78 4.11 5.375 2.605 7.263 2.51c.48-.845 1.315-1.01 2.21-1.01m6.87 8.002a1 1 0 0 1-.228 1.395c-1.864 1.342-3.4 2.857-4.718 4.717a1 1 0 0 1-1.65-.025 6.59 6.59 0 0 0-1.85-1.848 1 1 0 0 1 1.124-1.654c.573.389 1.084.82 1.542 1.313 1.269-1.58 2.714-2.924 4.383-4.126a1 1 0 0 1 1.396.228M15 5.5a.5.5 0 0 1-.5.5h-5a.5.5 0 0 1-.5-.5v-1a.5.5 0 0 1 .5-.5h5a.5.5 0 0 1 .5.5z" clip-rule="evenodd"/></svg>