<svg xmlns="http://www.w3.org/2000/svg" width="24" height="24" fill="none"><path fill="#fff" fill-opacity=".01" d="M24 0v24H0V0z"/><path fill="#FFFFFF" fill-rule="evenodd" d="M5.509 4.393A9.978 9.978 0 0 0 2 12c0 2.176.695 4.19 1.875 5.83 1.707-3.651 3.781-7.03 6.667-9.965a27.892 27.892 0 0 0-5.033-3.472m1.85-1.253A29.472 29.472 0 0 1 12 6.483a29.47 29.47 0 0 1 4.641-3.343A9.957 9.957 0 0 0 12 2a9.957 9.957 0 0 0-4.641 1.14M18.49 4.393a27.895 27.895 0 0 0-5.033 3.472c2.886 2.934 4.96 6.314 6.667 9.966A9.955 9.955 0 0 0 22 12a9.978 9.978 0 0 0-3.509-7.607m.177 15.06C16.956 15.634 14.908 12.18 12 9.234c-2.907 2.946-4.956 6.4-6.668 10.217A9.963 9.963 0 0 0 12 22a9.963 9.963 0 0 0 6.668-2.548" clip-rule="evenodd"/></svg>