<svg xmlns="http://www.w3.org/2000/svg" width="24" height="24" fill="none"><path fill="#fff" fill-opacity=".01" d="M24 0v24H0V0z"/><path fill="#FFFFFF" fill-rule="evenodd" d="M11.95 3.429h.1c1.079 0 1.96 0 2.682.066.752.068 1.418.214 2.044.557.431.236.826.534 1.17.883.503.508.826 1.108 1.099 1.812.261.676.504 1.524.8 2.562l.666 2.332c.481 1.683.875 3.06 1.023 4.163.155 1.149.078 2.225-.618 3.148s-1.71 1.292-2.857 1.46c-1.102.16-2.534.16-4.284.16h-3.55c-1.75 0-3.183 0-4.285-.16-1.146-.168-2.16-.537-2.856-1.46-.697-.923-.773-2-.619-3.148.149-1.103.542-2.48 1.023-4.164l.666-2.33c.297-1.039.54-1.887.8-2.563.273-.704.597-1.304 1.099-1.812.345-.35.74-.647 1.17-.883.627-.343 1.292-.489 2.044-.557.722-.066 1.604-.066 2.683-.066" clip-rule="evenodd"/></svg>