<svg xmlns="http://www.w3.org/2000/svg" viewBox="0 0 640 512"><path d="M64 32l0 160 32 0L96 32 64 32zm0 288l0 160 32 0 0-160-32 0zm96 0l-32 0 0 160 32 0 0-160zM128 192l32 0 0-160-32 0 0 160zm64 288l32 0 0-160-32 0 0 160zm0-288l32 0 0-160-32 0 0 160zm96 288l32 0 0-160-32 0 0 160zm0-288l32 0 0-160-32 0 0 160zm64 288l32 0 0-160-32 0 0 160zm0-288l32 0 0-160-32 0 0 160zm96 288l32 0 0-160-32 0 0 160zm0-288l32 0 0-160-32 0 0 160zm96 288l32 0 0-160-32 0 0 160zm0-288l32 0 0-160-32 0 0 160zM0 240l0 32 640 0 0-32L0 240z"/></svg>