<svg xmlns="http://www.w3.org/2000/svg" viewBox="0 0 512 512"><!--! Font Awesome Pro 6.7.2 by @fontawesome - https://fontawesome.com License - https://fontawesome.com/license (Commercial License) Copyright 2024 Fonticons, Inc. --><path d="M64 64l0 64 384 0 0-64L64 64zM32 32l32 0 384 0 32 0 0 32 0 64 0 32-32 0-176 0 0 24 6.6 6.6 42.7 42.7L328 240l120 0 16 0 0 16 0 96 16 0 32 0 0 32 0 64 0 32-32 0-64 0-32 0 0-32 0-64 0-32 32 0 16 0 0-80-104 0-6.6 6.6-42.7 42.7L272 328l0 24 16 0 32 0 0 32 0 64 0 32-32 0-64 0-32 0 0-32 0-64 0-32 32 0 16 0 0-24-6.6-6.6-42.7-42.7L184 272 80 272l0 80 16 0 32 0 0 32 0 64 0 32-32 0-64 0L0 480l0-32 0-64 0-32 32 0 16 0 0-96 0-16 16 0 120 0 6.6-6.6 42.7-42.7L240 184l0-24L64 160l-32 0 0-32 0-64 0-32zM48 384l-16 0 0 64 64 0 0-64-16 0-32 0zm192 0l-16 0 0 64 64 0 0-64-16 0-32 0zm192 0l-16 0 0 64 64 0 0-64-16 0-32 0zM213.3 256L256 298.7 298.7 256 256 213.3 213.3 256z"/></svg>