<svg xmlns="http://www.w3.org/2000/svg" width="24" height="24" viewBox="0 0 24 24">
    <path class="pr-icon-primary" d="M11,4.5c-0.55197,0.00031-0.99969-0.44689-1-0.99886C10,3.50076,10,3.50038,10,3.5v-1c0-0.55228,0.44771-1,1-1s1,0.44772,1,1v1c0.00031,0.55197-0.44689,0.99969-0.99886,1C11.00076,4.5,11.00038,4.5,11,4.5z M3,12.5H2c-0.55228,0-1-0.44771-1-1s0.44772-1,1-1h1c0.55228,0,1,0.44771,1,1S3.55228,12.5,3,12.5z M16.65723,6.84277c-0.55228-0.00012-0.9999-0.44793-0.99979-1.00021c0.00006-0.26509,0.10537-0.51931,0.29279-0.70679l0.707-0.707c0.39048-0.39048,1.02358-0.39048,1.41406,0s0.39048,1.02358,0,1.41406l-0.707,0.707C17.17698,6.73768,16.92251,6.84311,16.65723,6.84277z M4.63574,18.86426c-0.55228-0.00012-0.9999-0.44793-0.99979-1.00021c0.00006-0.26509,0.10537-0.51931,0.29279-0.70679l0.707-0.707c0.38804-0.39291,1.02112-0.39685,1.41403-0.00881s0.39685,1.02112,0.00881,1.41403c-0.00291,0.00294-0.00583,0.00587-0.00878,0.00878l-0.707,0.707C5.1555,18.75913,4.90103,18.86458,4.63574,18.86426z M5.34277,6.84277c-0.26527,0.00031-0.51971-0.10514-0.707-0.293l-0.707-0.707C3.54075,5.44984,3.54472,4.81676,3.93765,4.42874c0.38943-0.38457,1.01567-0.38458,1.40512-0.00003l0.707,0.707c0.39047,0.39058,0.39037,1.02375-0.00021,1.41421c-0.18748,0.18742-0.4417,0.29273-0.70679,0.29279L5.34277,6.84277z"></path>
    <path class="pr-icon-primary" d="M16.65723,6.84277c-0.55228-0.00012-0.9999-0.44793-0.99979-1.00021c0.00006-0.26509,0.10537-0.51931,0.29279-0.70679l0.707-0.707c0.39048-0.39048,1.02358-0.39048,1.41406,0s0.39048,1.02358,0,1.41406l-0.707,0.707C17.17698,6.73768,16.92251,6.84311,16.65723,6.84277z"></path>
    <circle cx="9" cy="20" r="1" class="pr-icon-quaternary"></circle>
    <path class="pr-icon-quaternary" d="M17,23c-0.55197,0.00031-0.99969-0.44689-1-0.99886c0-0.00038,0-0.00076,0-0.00114c-0.00726-0.54925-0.45075-0.99274-1-1h-2c-0.55229,0-1-0.44772-1-1s0.44771-1,1-1h2c1.65611,0.00181,2.99819,1.34389,3,3c0.00031,0.55197-0.44689,0.99969-0.99886,1C17.00076,23,17.00038,23,17,23z M19,13h-5c-0.55229,0-1-0.44771-1-1s0.44771-1,1-1h5c0.54925-0.00726,0.99274-0.45075,1-1c0-0.55229,0.44772-1,1-1s1,0.44771,1,1C21.99819,11.65611,20.65611,12.99819,19,13z M20,21c-0.55228,0-1-0.44772-1-1s0.44772-1,1-1s1-0.44772,1-1s-0.44772-1-1-1h-5c-0.55229,0-1-0.44772-1-1c0-0.55229,0.44771-1,1-1h5c1.65685,0,3,1.34315,3,3S21.65685,21,20,21z"></path>
    <path class="pr-icon-tertiary" d="M14,16c0-0.55231,0.44769-1,1-1h0.24268c0.47784-0.57855,0.83484-1.25836,1.04492-2H14c-0.55231,0-1-0.44769-1-1s0.44769-1,1-1h2.47479C16.22186,8.19714,13.86871,6,11,6c-3.03754,0-5.5,2.46246-5.5,5.5S7.96246,17,11,17c1.11566,0,2.15216-0.33447,3.0191-0.90533C14.01587,16.06195,14,16.03357,14,16z"></path>
</svg>
