<svg xmlns="http://www.w3.org/2000/svg" width="24" height="24" viewBox="0 0 24 24">
<path d="M3 9c-0.557 0-1.008 0.451-1.008 1.008v0 3.984c0.078 0.486 0.494 0.853 0.996 0.853s0.918-0.367 0.995-0.847l0.001-0.006v-3.984c0-0 0-0 0-0 0-0.548-0.438-0.994-0.983-1.008l-0.001-0zM21 9c-0.557 0-1.008 0.451-1.008 1.008v0 3.984c0.078 0.486 0.494 0.853 0.996 0.853s0.918-0.367 0.995-0.847l0.001-0.006v-3.984c0-0 0-0 0-0 0-0.548-0.438-0.994-0.983-1.008l-0.001-0zM16.848 3.504c0.129-0.168 0.207-0.381 0.207-0.612 0-0.557-0.451-1.008-1.008-1.008-0.414 0-0.769 0.249-0.924 0.605l-0.003 0.006-0.6 1.056c-0.738-0.355-1.605-0.562-2.52-0.562s-1.782 0.207-2.556 0.578l0.036-0.015-0.624-1.056c-0.158-0.363-0.513-0.612-0.927-0.612-0.557 0-1.008 0.451-1.008 1.008 0 0.231 0.078 0.444 0.209 0.614l-0.002-0.002 0.696 1.2c-1.125 1.088-1.823 2.61-1.824 4.296v7.992c0 0 0 0 0 0 0 0.548 0.438 0.994 0.983 1.008l0.001 0h2.016v3c0.078 0.486 0.494 0.853 0.996 0.853s0.918-0.367 0.995-0.847l0.001-0.006v-3h1.992v3c0 0.557 0.451 1.008 1.008 1.008s1.008-0.451 1.008-1.008v0-3h1.992c0.557 0 1.008-0.451 1.008-1.008v0-7.992c-0.001-1.686-0.699-3.208-1.822-4.294l-0.002-0.002zM15.984 16.008h-7.992v-5.016h7.992zM7.992 9c0.166-2.076 1.892-3.698 3.996-3.698s3.83 1.622 3.995 3.684l0.001 0.014z"></path>
</svg>
