<svg xmlns="http://www.w3.org/2000/svg" width="24" height="24" viewBox="0 0 24 24">
<path d="M10.008 13.992h3.984c0.486-0.078 0.853-0.494 0.853-0.996s-0.367-0.918-0.847-0.995l-0.006-0.001h-3.984c-0.486 0.078-0.853 0.494-0.853 0.996s0.367 0.918 0.847 0.995l0.006 0.001zM19.008 3h-14.016c-1.657 0-3 1.343-3 3v0 3c0 0.557 0.451 1.008 1.008 1.008v0h1.008v7.992c0 1.657 1.343 3 3 3v0h9.984c1.657 0 3-1.343 3-3v0-7.992h1.008c0.557 0 1.008-0.451 1.008-1.008v0-3c0-1.657-1.343-3-3-3v0zM18 18c0 0.557-0.451 1.008-1.008 1.008v0h-9.984c-0.557 0-1.008-0.451-1.008-1.008v0-7.992h12zM19.992 7.992h-15.984v-1.992c0-0 0-0 0-0 0-0.548 0.438-0.994 0.983-1.008l0.001-0h14.016c0.546 0.013 0.984 0.459 0.984 1.008 0 0 0 0 0 0v-0z"></path>
</svg>
