<svg xmlns="http://www.w3.org/2000/svg" width="24" height="24" viewBox="0 0 24 24">
<path d="M18 10.008h-12c-0.486 0.078-0.853 0.494-0.853 0.996s0.367 0.918 0.847 0.995l0.006 0.001h1.008v9c0.078 0.486 0.494 0.853 0.996 0.853s0.918-0.367 0.995-0.847l0.001-0.006v-1.008h1.992v1.008c0 0.557 0.451 1.008 1.008 1.008s1.008-0.451 1.008-1.008v0-1.008h1.992v1.008c0.078 0.486 0.494 0.853 0.996 0.853s0.918-0.367 0.995-0.847l0.001-0.006v-9h1.008c0.486-0.078 0.853-0.494 0.853-0.996s-0.367-0.918-0.847-0.995l-0.006-0.001zM10.992 18h-1.992v-1.992h1.992zM10.992 13.992h-1.992v-1.992h1.992zM15 18h-1.992v-1.992h1.992zM15 13.992h-1.992v-1.992h1.992zM19.992 1.992h-15.984c-1.657 0-3 1.343-3 3v0 8.016c0 1.657 1.343 3 3 3v0c0.557 0 1.008-0.451 1.008-1.008s-0.451-1.008-1.008-1.008v0c-0 0-0 0-0 0-0.548 0-0.994-0.438-1.008-0.983l-0-0.001v-8.016c0.013-0.546 0.459-0.984 1.008-0.984 0 0 0 0 0 0h15.984c0 0 0 0 0 0 0.548 0 0.994 0.438 1.008 0.983l0 0.001v8.016c-0.013 0.546-0.459 0.984-1.008 0.984-0 0-0 0-0 0h0c-0.557 0-1.008 0.451-1.008 1.008s0.451 1.008 1.008 1.008v0c1.657 0 3-1.343 3-3v0-8.016c0-1.657-1.343-3-3-3v0zM13.992 7.992c0.486-0.078 0.853-0.494 0.853-0.996s-0.367-0.918-0.847-0.995l-0.006-0.001h-3.984c-0.486 0.078-0.853 0.494-0.853 0.996s0.367 0.918 0.847 0.995l0.006 0.001z"></path>
</svg>
