<svg xmlns="http://www.w3.org/2000/svg" width="24" height="24" viewBox="0 0 24 24">
<path d="M22.008 10.992c0-0.001 0-0.001 0-0.002 0-1.481-0.803-2.774-1.997-3.468l-0.019-0.010c0.007-0.075 0.011-0.163 0.011-0.252s-0.004-0.177-0.011-0.263l0.001 0.011c0-1.657-1.343-3-3-3v0h-0.168c-0.428-1.169-1.53-1.988-2.824-1.988-0.77 0-1.472 0.29-2.003 0.766l0.003-0.002c-0.528-0.474-1.23-0.764-2-0.764-1.294 0-2.396 0.819-2.817 1.967l-0.007 0.021h-0.168c-1.657 0-3 1.343-3 3v0c-0.007 0.075-0.011 0.163-0.011 0.252s0.004 0.177 0.011 0.263l-0.001-0.011c-1.223 0.702-2.034 2-2.034 3.488 0 1.253 0.575 2.371 1.475 3.106l0.007 0.006c-0.292 0.542-0.464 1.187-0.464 1.872 0 2.214 1.794 4.008 4.008 4.008 0.003 0 0.006 0 0.008 0h0.168c0.428 1.169 1.53 1.988 2.824 1.988 0.77 0 1.472-0.29 2.003-0.766l-0.003 0.002c0.528 0.474 1.23 0.764 2 0.764 1.294 0 2.396-0.819 2.817-1.967l0.007-0.021h0.168c2.196-0.023 3.968-1.808 3.968-4.008 0-0.685-0.172-1.33-0.475-1.894l0.011 0.021c0.921-0.737 1.507-1.86 1.512-3.119v-0.001zM10.992 8.544c-0.188-0.109-0.409-0.214-0.64-0.301l-0.032-0.011c-0.066-0.015-0.141-0.024-0.219-0.024-0.557 0-1.008 0.451-1.008 1.008 0 0.401 0.234 0.747 0.573 0.909l0.006 0.003c0.775 0.284 1.319 1.014 1.32 1.872v1.56c-0.189-0.117-0.41-0.229-0.641-0.325l-0.031-0.011c-0.066-0.015-0.141-0.024-0.219-0.024-0.557 0-1.008 0.451-1.008 1.008 0 0.401 0.234 0.747 0.573 0.909l0.006 0.003c0.775 0.284 1.319 1.014 1.32 1.872v2.016c-0.013 0.538-0.446 0.971-0.983 0.984l-0.001 0c-0.405-0.004-0.753-0.247-0.909-0.594l-0.003-0.006c0.184-0.103 0.341-0.206 0.49-0.319l-0.010 0.007c0.224-0.187 0.366-0.467 0.366-0.78 0-0.56-0.454-1.014-1.014-1.014-0.247 0-0.474 0.088-0.65 0.235l0.002-0.001c-0.34 0.293-0.784 0.474-1.271 0.48l-0.001 0c-0.007 0-0.016 0-0.024 0-1.1 0-1.992-0.892-1.992-1.992 0-0 0-0 0-0v0c0.006-0.403 0.13-0.776 0.34-1.087l-0.004 0.007c0.2 0.042 0.432 0.068 0.668 0.072l0.004 0c0.486-0.078 0.853-0.494 0.853-0.996s-0.367-0.918-0.847-0.995l-0.006-0.001c-0.252-0.003-0.491-0.055-0.708-0.149l0.012 0.005c-0.786-0.279-1.338-1.016-1.338-1.882 0-0.746 0.41-1.396 1.016-1.737l0.010-0.005c0.136 0.13 0.285 0.248 0.444 0.353l0.012 0.007c0.145 0.085 0.318 0.135 0.504 0.135 0.558 0 1.011-0.452 1.011-1.011 0-0.373-0.202-0.698-0.502-0.873l-0.005-0.003c-0.138-0.075-0.251-0.181-0.334-0.308l-0.002-0.004c-0.077-0.131-0.123-0.289-0.123-0.457 0-0.025 0.001-0.050 0.003-0.074l-0 0.003c0-0.557 0.451-1.008 1.008-1.008v0c0.029-0.004 0.062-0.006 0.096-0.006s0.067 0.002 0.1 0.006l-0.004-0c0.062 0.191 0.127 0.35 0.202 0.503l-0.010-0.023c0.179 0.297 0.5 0.493 0.867 0.493 0.184 0 0.357-0.050 0.506-0.136l-0.005 0.003c0.292-0.18 0.483-0.498 0.483-0.861 0-0.177-0.046-0.344-0.126-0.488l0.003 0.005c-0.076-0.142-0.12-0.31-0.12-0.489 0-0.005 0-0.010 0-0.016v0.001c0.078-0.486 0.494-0.853 0.996-0.853s0.918 0.367 0.995 0.847l0.001 0.006zM18.696 12.864c-0.205 0.089-0.444 0.141-0.695 0.144h-0.001c-0.486 0.078-0.853 0.494-0.853 0.996s0.367 0.918 0.847 0.995l0.006 0.001c0.24-0.004 0.472-0.030 0.697-0.076l-0.025 0.004c0.206 0.304 0.33 0.677 0.336 1.079l0 0.001c0 0 0 0 0 0 0 1.1-0.892 1.992-1.992 1.992-0.008 0-0.017-0-0.025-0l0.001 0c-0.488-0.006-0.932-0.187-1.275-0.482l0.003 0.002c-0.174-0.146-0.401-0.234-0.648-0.234-0.56 0-1.014 0.454-1.014 1.014 0 0.313 0.142 0.593 0.364 0.779l0.002 0.001c0.139 0.106 0.296 0.209 0.46 0.301l0.020 0.011c-0.159 0.353-0.507 0.596-0.911 0.6h-0.001c-0.538-0.013-0.971-0.446-0.984-0.983l-0-0.001v-2.016c0.001-0.858 0.545-1.588 1.306-1.868l0.014-0.004c0.345-0.165 0.579-0.511 0.579-0.912 0-0.557-0.451-1.008-1.008-1.008-0.078 0-0.153 0.009-0.225 0.025l0.007-0.001c-0.262 0.107-0.483 0.219-0.693 0.348l0.021-0.012v-1.56c0.001-0.858 0.545-1.588 1.306-1.868l0.014-0.004c0.345-0.165 0.579-0.511 0.579-0.912 0-0.557-0.451-1.008-1.008-1.008-0.078 0-0.153 0.009-0.225 0.025l0.007-0.001c-0.263 0.098-0.484 0.203-0.695 0.324l0.023-0.012v-3.552c0.078-0.486 0.494-0.853 0.996-0.853s0.918 0.367 0.995 0.847l0.001 0.006c0 0.004 0 0.010 0 0.015 0 0.179-0.044 0.347-0.123 0.495l0.003-0.006c-0.084 0.144-0.133 0.317-0.133 0.501 0 0.367 0.196 0.688 0.489 0.864l0.005 0.003c0.144 0.084 0.317 0.133 0.501 0.133 0.367 0 0.688-0.196 0.864-0.489l0.003-0.005c0.066-0.138 0.131-0.305 0.185-0.477l0.007-0.027c0.029-0.004 0.062-0.006 0.096-0.006s0.067 0.002 0.1 0.006l-0.004-0c0.557 0 1.008 0.451 1.008 1.008v0c-0.001 0.206-0.064 0.397-0.17 0.556l0.002-0.004c-0.087 0.121-0.2 0.219-0.331 0.286l-0.005 0.002c-0.305 0.178-0.507 0.503-0.507 0.876 0 0.558 0.452 1.011 1.011 1.011 0.186 0 0.359-0.050 0.509-0.137l-0.005 0.003c0.191-0.106 0.357-0.226 0.506-0.362l-0.002 0.002c0.622 0.345 1.036 0.998 1.036 1.747 0 0.861-0.546 1.594-1.31 1.872l-0.014 0.004z"></path>
</svg>
