<svg xmlns="http://www.w3.org/2000/svg" width="24" height="24" viewBox="0 0 24 24">
<path d="M18.432 8.208c-1.111-2.492-3.566-4.198-6.42-4.198-3.548 0-6.48 2.637-6.944 6.058l-0.004 0.036c-1.757 0.45-3.035 2.020-3.035 3.888 0 2.201 1.774 3.987 3.969 4.008l0.002 0c0.486-0.078 0.853-0.494 0.853-0.996s-0.367-0.918-0.847-0.995l-0.006-0.001c-1.107 0-2.004-0.897-2.004-2.004s0.897-2.004 2.004-2.004v0c0.557 0 1.008-0.451 1.008-1.008v0c0-0.002 0-0.004 0-0.006 0-2.757 2.235-4.992 4.992-4.992 2.184 0 4.040 1.402 4.717 3.355l0.011 0.035c0.121 0.35 0.42 0.609 0.786 0.671l0.006 0.001c1.392 0.279 2.426 1.491 2.426 2.945 0 1.367-0.914 2.52-2.165 2.882l-0.021 0.005c-0.386 0.147-0.654 0.514-0.654 0.944 0 0.557 0.451 1.008 1.008 1.008 0.045 0 0.088-0.003 0.132-0.009l-0.005 0.001c2.158-0.582 3.72-2.522 3.72-4.827 0-2.235-1.468-4.127-3.493-4.763l-0.035-0.010zM12.72 10.296c-0.094-0.091-0.205-0.164-0.329-0.214l-0.007-0.002c-0.114-0.048-0.245-0.076-0.384-0.076s-0.27 0.028-0.391 0.078l0.007-0.002c-0.131 0.052-0.242 0.125-0.336 0.216l-3 3c-0.179 0.182-0.29 0.432-0.29 0.708 0 0.558 0.452 1.010 1.010 1.010 0.282 0 0.537-0.115 0.72-0.302l1.272-1.296v5.592c0 0.557 0.451 1.008 1.008 1.008s1.008-0.451 1.008-1.008v0-5.592l1.272 1.296c0.183 0.187 0.438 0.303 0.72 0.303s0.537-0.116 0.72-0.302l0-0c0.18-0.182 0.291-0.432 0.291-0.708s-0.111-0.526-0.291-0.708l0 0z"></path>
</svg>
