<svg xmlns="http://www.w3.org/2000/svg" width="24" height="24" viewBox="0 0 24 24">
<path d="M12 16.992c-0.557 0-1.008 0.451-1.008 1.008s0.451 1.008 1.008 1.008c0.557 0 1.008-0.451 1.008-1.008v0c0-0.557-0.451-1.008-1.008-1.008v0zM7.992 10.992c-0.557 0-1.008 0.451-1.008 1.008s0.451 1.008 1.008 1.008c0.557 0 1.008-0.451 1.008-1.008v0c0-0.557-0.451-1.008-1.008-1.008v0zM12 13.008c-0.557 0-1.008 0.451-1.008 1.008s0.451 1.008 1.008 1.008 1.008-0.451 1.008-1.008c0-0.008-0-0.017-0-0.025l0 0.001c-0.013-0.546-0.459-0.984-1.008-0.984-0 0-0 0-0 0h0zM7.992 19.008c-0.557 0-1.008 0.451-1.008 1.008s0.451 1.008 1.008 1.008 1.008-0.451 1.008-1.008c0-0.008-0-0.017-0-0.025l0 0.001c-0.013-0.546-0.459-0.984-1.008-0.984-0 0-0 0-0 0h0zM7.992 15c-0.557 0-1.008 0.451-1.008 1.008s0.451 1.008 1.008 1.008c0.557 0 1.008-0.451 1.008-1.008v0c0-0.557-0.451-1.008-1.008-1.008v0zM16.008 15c-0.007-0-0.016-0-0.024-0-0.557 0-1.008 0.451-1.008 1.008s0.451 1.008 1.008 1.008c0.557 0 1.008-0.451 1.008-1.008v-0c0-0 0-0 0-0 0-0.548-0.438-0.994-0.983-1.008l-0.001-0zM12 9c-0.557 0-1.008 0.451-1.008 1.008s0.451 1.008 1.008 1.008c0.557 0 1.008-0.451 1.008-1.008v0c0-0.557-0.451-1.008-1.008-1.008v0zM16.008 10.992c-0.007-0-0.016-0-0.024-0-0.557 0-1.008 0.451-1.008 1.008s0.451 1.008 1.008 1.008c0.557 0 1.008-0.451 1.008-1.008v-0c0-0 0-0 0-0 0-0.548-0.438-0.994-0.983-1.008l-0.001-0zM18.432 6.216c-1.111-2.492-3.566-4.198-6.42-4.198-3.548 0-6.48 2.637-6.944 6.058l-0.004 0.036c-1.773 0.436-3.068 2.010-3.072 3.888v0c0 0.002 0 0.004 0 0.005 0 1.189 0.518 2.257 1.34 2.991l0.004 0.003c0.184 0.194 0.444 0.314 0.731 0.314 0.557 0 1.008-0.451 1.008-1.008 0-0.336-0.164-0.633-0.416-0.816l-0.003-0.002c-0.399-0.366-0.648-0.889-0.648-1.47 0-0.006 0-0.012 0-0.019v0.001c0-1.1 0.892-1.992 1.992-1.992v0c0.557 0 1.008-0.451 1.008-1.008v0c0-0.002 0-0.004 0-0.006 0-2.757 2.235-4.992 4.992-4.992 2.184 0 4.040 1.402 4.717 3.355l0.011 0.035c0.121 0.35 0.42 0.609 0.786 0.671l0.006 0.001c1.406 0.258 2.459 1.468 2.472 2.927v0.001c0.001 0.022 0.001 0.048 0.001 0.074 0 0.748-0.283 1.43-0.747 1.945l0.002-0.003c-0.097 0.152-0.155 0.338-0.155 0.537 0 0.557 0.451 1.008 1.008 1.008 0.242 0 0.463-0.085 0.637-0.227l-0.002 0.001c0.764-0.873 1.231-2.023 1.231-3.282 0-2.246-1.483-4.145-3.523-4.772l-0.035-0.009zM16.008 19.008c-0.007-0-0.015-0-0.024-0-0.557 0-1.008 0.451-1.008 1.008s0.451 1.008 1.008 1.008c0.557 0 1.008-0.451 1.008-1.008 0-0.008-0-0.017-0-0.025l0 0.001c-0.013-0.538-0.446-0.971-0.983-0.984l-0.001-0z"></path>
</svg>
