<svg xmlns="http://www.w3.org/2000/svg" width="24" height="24" viewBox="0 0 24 24">
<path d="M6.12 11.928c0.113 0.052 0.245 0.082 0.384 0.082s0.271-0.030 0.39-0.085l-0.006 0.002c0.121-0.054 0.225-0.127 0.312-0.216l0-0 3-3c0.234-0.186 0.382-0.471 0.382-0.79 0-0.557-0.451-1.008-1.008-1.008-0.319 0-0.604 0.149-0.789 0.38l-0.002 0.002-1.272 1.296v-5.592c0-0.557-0.451-1.008-1.008-1.008s-1.008 0.451-1.008 1.008v0 5.592l-1.296-1.296c-0.186-0.234-0.471-0.382-0.79-0.382-0.557 0-1.008 0.451-1.008 1.008 0 0.319 0.148 0.604 0.38 0.789l0.002 0.002 3 3c0.094 0.091 0.205 0.164 0.329 0.214l0.007 0.002zM18.504 6h-4.992c-0.486 0.078-0.853 0.494-0.853 0.996s0.367 0.918 0.847 0.995l0.006 0.001h4.992c0.546 0.013 0.984 0.459 0.984 1.008 0 0 0 0 0 0v-0 9.72l-1.56-1.44c-0.174-0.171-0.409-0.279-0.67-0.288l-0.002-0h-8.76c-0 0-0 0-0 0-0.548 0-0.994-0.438-1.008-0.983l-0-0.001v-1.008c-0.078-0.486-0.494-0.853-0.996-0.853s-0.918 0.367-0.995 0.847l-0.001 0.006v1.008c0 1.657 1.343 3 3 3v0h8.376l3 2.712c0.174 0.171 0.409 0.279 0.67 0.288l0.002 0c0.149-0.006 0.288-0.041 0.415-0.099l-0.007 0.003c0.353-0.159 0.596-0.507 0.6-0.911v-12.001c0-0 0-0 0-0 0-1.657-1.343-3-3-3-0.017 0-0.034 0-0.051 0l0.003-0z"></path>
</svg>
