<svg xmlns="http://www.w3.org/2000/svg" width="24" height="24" viewBox="0 0 24 24">
<path d="M12 8.352c-0.405-0.211-0.885-0.334-1.394-0.334-0.83 0-1.582 0.329-2.135 0.863l0.001-0.001c-0.544 0.543-0.881 1.294-0.881 2.124s0.337 1.581 0.881 2.124l0 0 2.808 2.88c0.183 0.187 0.438 0.303 0.72 0.303s0.537-0.116 0.72-0.302l0-0 2.808-2.832c0.544-0.543 0.881-1.294 0.881-2.124s-0.337-1.581-0.881-2.124l-0-0c-0.555-0.553-1.321-0.894-2.167-0.894-0.496 0-0.964 0.117-1.379 0.326l0.018-0.008zM14.112 11.712l-2.112 2.112-2.112-2.112c-0.18-0.182-0.291-0.432-0.291-0.708s0.111-0.526 0.291-0.708l-0 0c0.181-0.173 0.426-0.279 0.696-0.279s0.515 0.106 0.696 0.279l-0-0c0.183 0.187 0.438 0.303 0.72 0.303s0.537-0.116 0.72-0.302l0-0c0.181-0.173 0.426-0.279 0.696-0.279s0.515 0.106 0.696 0.279l-0-0c0.18 0.182 0.291 0.432 0.291 0.708s-0.111 0.526-0.291 0.708l0-0zM12 1.992c-5.527 0-10.008 4.481-10.008 10.008v0c-0 0.006-0 0.013-0 0.020 0 2.409 0.861 4.616 2.293 6.332l-0.013-0.016-2.016 1.992c-0.182 0.182-0.295 0.434-0.295 0.713 0 0.141 0.029 0.276 0.082 0.398l-0.003-0.007c0.165 0.344 0.511 0.577 0.911 0.577 0.017 0 0.034-0 0.051-0.001l-0.002 0h9c5.527 0 10.008-4.481 10.008-10.008s-4.481-10.008-10.008-10.008v0zM12 19.992h-6.6l0.936-0.912c0.18-0.182 0.291-0.432 0.291-0.708s-0.111-0.526-0.291-0.708l0 0c-1.454-1.448-2.354-3.451-2.354-5.664 0-4.414 3.578-7.992 7.992-7.992s7.992 3.578 7.992 7.992c0 4.405-3.564 7.977-7.965 7.992h-0.001z"></path>
</svg>
