<svg xmlns="http://www.w3.org/2000/svg" width="24" height="24" viewBox="0 0 24 24">
<path d="M20.496 7.44v-1.176c0-1.657-1.343-3-3-3s-3 1.343-3 3v0 1.176c-1.165 0.425-1.984 1.52-1.992 2.807v2.017c0 1.657 1.343 3 3 3v0h3.984c1.657 0 3-1.343 3-3v0-2.016c-0.008-1.288-0.827-2.383-1.971-2.801l-0.021-0.007zM16.512 6.264c-0.008-0.047-0.012-0.1-0.012-0.155 0-0.557 0.451-1.008 1.008-1.008s1.008 0.451 1.008 1.008c0 0.055-0.004 0.108-0.013 0.161l0.001-0.006v0.984h-1.992zM20.496 12.264c-0.013 0.538-0.446 0.971-0.983 0.984l-0.001 0h-4.008c-0 0-0 0-0 0-0.548 0-0.994-0.438-1.008-0.983l-0-0.001v-2.016c0.013-0.546 0.459-0.984 1.008-0.984 0 0 0 0 0 0h4.008c0.538 0.013 0.971 0.446 0.984 0.983l0 0.001zM20.496 17.256c-0.546 0.013-0.984 0.459-0.984 1.008 0 0 0 0 0 0v-0 0.984c0 0.557-0.451 1.008-1.008 1.008v0h-13.992c-0.557 0-1.008-0.451-1.008-1.008v0-9.576l5.88 5.88c0.17 0.136 0.388 0.218 0.626 0.218 0.557 0 1.008-0.451 1.008-1.008 0-0.237-0.082-0.456-0.219-0.628l0.002 0.002-5.88-5.88h5.592c0.486-0.078 0.853-0.494 0.853-0.996s-0.367-0.918-0.847-0.995l-0.006-0.001h-6c-1.657 0-3 1.343-3 3v0 9.984c-0 0.007-0 0.016-0 0.024 0 1.657 1.343 3 3 3 0 0 0 0 0 0h13.992c0 0 0 0 0 0 1.657 0 3-1.343 3-3 0-0.008-0-0.017-0-0.025v0.001-0.984c0-0.557-0.451-1.008-1.008-1.008v0z"></path>
</svg>
