<svg xmlns="http://www.w3.org/2000/svg" width="24" height="24" viewBox="0 0 24 24">
<path d="M19.008 4.008h-14.016c-1.657 0-3 1.343-3 3v0 9.984c0 1.657 1.343 3 3 3v0h14.016c1.657 0 3-1.343 3-3v0-9.984c0-1.657-1.343-3-3-3v0zM18.6 6l-5.88 5.88c-0.183 0.187-0.438 0.303-0.72 0.303s-0.537-0.116-0.72-0.302l-5.88-5.88zM19.992 16.992c0 0 0 0 0 0 0 0.548-0.438 0.994-0.983 1.008l-0.001 0h-14.016c-0.546-0.013-0.984-0.459-0.984-1.008 0-0 0-0 0-0v0-9.576l5.88 5.88c0.542 0.537 1.288 0.869 2.112 0.869s1.57-0.332 2.112-0.87l5.88-5.88z"></path>
</svg>
