<svg xmlns="http://www.w3.org/2000/svg" width="24" height="24" viewBox="0 0 24 24">
<path d="M10.944 6.072c0.3-0.046 0.646-0.072 0.998-0.072 0.020 0 0.040 0 0.061 0l-0.003-0c3.192 0 6.168 2.28 7.92 6-0.311 0.643-0.614 1.178-0.948 1.691l0.036-0.059c-0.104 0.155-0.167 0.346-0.168 0.552v0c0.008 0.55 0.456 0.993 1.008 0.993 0.365 0 0.685-0.194 0.862-0.485l0.003-0.004c0.42-0.654 0.822-1.411 1.161-2.201l0.039-0.103c0.051-0.117 0.081-0.253 0.081-0.396s-0.030-0.279-0.084-0.402l0.003 0.006c-2.016-4.68-5.808-7.584-9.912-7.584-0.009-0-0.020-0-0.031-0-0.481 0-0.952 0.044-1.409 0.127l0.048-0.007c-0.481 0.083-0.842 0.498-0.842 0.996 0 0.558 0.452 1.010 1.010 1.010 0.059 0 0.117-0.005 0.174-0.015l-0.006 0.001zM3.72 2.28c-0.184-0.184-0.439-0.298-0.72-0.298-0.562 0-1.018 0.456-1.018 1.018 0 0.281 0.114 0.536 0.298 0.72v0l3.12 3.072c-1.383 1.331-2.501 2.927-3.275 4.706l-0.037 0.094c-0.054 0.12-0.086 0.26-0.086 0.408s0.032 0.288 0.089 0.414l-0.003-0.006c2.016 4.68 5.808 7.584 9.912 7.584 1.879-0.014 3.621-0.586 5.074-1.557l-0.034 0.021 3.24 3.264c0.183 0.187 0.438 0.303 0.72 0.303s0.537-0.116 0.72-0.302l0-0c0.187-0.183 0.303-0.438 0.303-0.72s-0.116-0.537-0.302-0.72l-0-0zM10.080 11.472l2.448 2.448c-0.151 0.046-0.325 0.072-0.505 0.072-0.008 0-0.017-0-0.025-0l0.001 0c-1.1 0-1.992-0.892-1.992-1.992v0c-0-0.007-0-0.015-0-0.023 0-0.18 0.026-0.353 0.075-0.517l-0.003 0.013zM12 18c-3.168 0-6.168-2.28-7.896-6 0.675-1.478 1.58-2.736 2.683-3.787l0.005-0.005 1.776 1.8c-0.298 0.547-0.473 1.197-0.473 1.889 0 2.214 1.794 4.008 4.008 4.008 0.692 0 1.342-0.175 1.91-0.484l-0.021 0.010 1.608 1.56c-1.030 0.619-2.27 0.991-3.595 1.008l-0.005 0z"></path>
</svg>
