<svg xmlns="http://www.w3.org/2000/svg" width="24" height="24" viewBox="0 0 24 24">
<path d="M18 18c-0.557 0-1.008 0.451-1.008 1.008v0c-0.013 0.538-0.446 0.971-0.983 0.984l-0.001 0h-10.008c-0 0-0 0-0 0-0.548 0-0.994-0.438-1.008-0.983l-0-0.001v-14.016c0.013-0.546 0.459-0.984 1.008-0.984 0 0 0 0 0 0h4.992v3c0 1.657 1.343 3 3 3v0h3v0.984c0 0.557 0.451 1.008 1.008 1.008s1.008-0.451 1.008-1.008v0-2.064c-0.017-0.1-0.042-0.188-0.075-0.273l0.003 0.009c0.002-0.014 0.004-0.031 0.004-0.048s-0.001-0.034-0.004-0.050l0 0.002c-0.053-0.101-0.117-0.188-0.192-0.264l-6-6c-0.076-0.075-0.163-0.139-0.258-0.189l-0.006-0.003h-0.12c-0.083-0.050-0.179-0.091-0.28-0.118l-0.008-0.002h-6.072c-1.657 0-3 1.343-3 3v0 14.016c0 1.657 1.343 3 3 3v0h10.008c1.657 0 3-1.343 3-3v0c0-0.557-0.451-1.008-1.008-1.008v0zM13.008 5.4l2.592 2.592h-1.608c-0.538-0.013-0.971-0.446-0.984-0.983l-0-0.001zM19.992 13.992h-2.496c-0.271 0.003-0.517 0.112-0.696 0.288l-1.248 1.248-2.808-3.192c-0.186-0.209-0.455-0.34-0.755-0.34-0.277 0-0.527 0.111-0.709 0.292l0-0-1.68 1.704h-1.608c-0.557 0-1.008 0.451-1.008 1.008s0.451 1.008 1.008 1.008v0h2.016c0.271-0.003 0.517-0.112 0.696-0.288l-0 0 1.296-1.272 2.808 3.216c0.178 0.199 0.434 0.327 0.718 0.336l0.002 0c0.271-0.003 0.517-0.112 0.696-0.288l-0 0 1.68-1.704h2.088c0.557 0 1.008-0.451 1.008-1.008s-0.451-1.008-1.008-1.008v0z"></path>
</svg>
