<svg xmlns="http://www.w3.org/2000/svg" width="24" height="24" viewBox="0 0 24 24">
<path d="M13.080 12h-5.016c-0.486 0.078-0.853 0.494-0.853 0.996s0.367 0.918 0.847 0.995l0.006 0.001h5.016c0.486-0.078 0.853-0.494 0.853-0.996s-0.367-0.918-0.847-0.995l-0.006-0.001zM14.064 19.992h-7.992c-0 0-0 0-0 0-0.548 0-0.994-0.438-1.008-0.983l-0-0.001v-14.016c0.013-0.546 0.459-0.984 1.008-0.984 0 0 0 0 0 0h4.992v3c0 1.657 1.343 3 3 3v0h3v0.984c0 0.557 0.451 1.008 1.008 1.008s1.008-0.451 1.008-1.008v0-1.992c0.003-0.011 0.005-0.023 0.005-0.036s-0.002-0.025-0.005-0.037l0 0.001c-0.011-0.098-0.036-0.187-0.074-0.269l0.002 0.005v-0.096c-0.053-0.101-0.117-0.188-0.192-0.264l-6-6c-0.082-0.078-0.177-0.142-0.282-0.189l-0.006-0.003h-0.096c-0.089-0.057-0.194-0.098-0.307-0.119l-0.005-0.001h-6c-1.657 0-3 1.343-3 3v0 14.016c0 1.657 1.343 3 3 3v0h7.992c0.557 0 1.008-0.451 1.008-1.008s-0.451-1.008-1.008-1.008v0zM13.080 5.4l2.568 2.592h-1.584c-0.538-0.013-0.971-0.446-0.984-0.983l-0-0.001zM18.648 20.28c-0.049-0.041-0.104-0.080-0.161-0.116l-0.007-0.004c-0.103-0.066-0.224-0.116-0.353-0.143l-0.007-0.001c-0.057-0.011-0.122-0.018-0.189-0.018-0.272 0-0.518 0.107-0.699 0.282l0-0c-0.187 0.183-0.303 0.438-0.303 0.72s0.116 0.537 0.302 0.72l0 0c0.179 0.176 0.425 0.285 0.695 0.288h0.001c0.001 0 0.003 0 0.004 0 0.557 0 1.008-0.451 1.008-1.008 0-0.139-0.028-0.271-0.078-0.391l0.002 0.007c-0.056-0.129-0.129-0.24-0.217-0.337l0.001 0.001zM13.080 16.008h-5.016c-0.486 0.078-0.853 0.494-0.853 0.996s0.367 0.918 0.847 0.995l0.006 0.001h5.016c0.486-0.078 0.853-0.494 0.853-0.996s-0.367-0.918-0.847-0.995l-0.006-0.001zM17.928 13.008c-0 0-0.001 0-0.001 0-1.1 0-2.061 0.592-2.583 1.474l-0.008 0.014c-0.129 0.168-0.207 0.381-0.207 0.612 0 0.557 0.451 1.008 1.008 1.008 0.414 0 0.769-0.249 0.924-0.605l0.003-0.006c0.174-0.317 0.506-0.528 0.886-0.528 0.557 0 1.008 0.451 1.008 1.008s-0.451 1.008-1.008 1.008c-0.008 0-0.016-0-0.023-0l0.001 0c-0.557 0-1.008 0.451-1.008 1.008s0.451 1.008 1.008 1.008v0c1.657 0 3-1.343 3-3s-1.343-3-3-3v0zM8.064 10.008h1.008c0.557 0 1.008-0.451 1.008-1.008s-0.451-1.008-1.008-1.008v0h-1.008c-0.557 0-1.008 0.451-1.008 1.008s0.451 1.008 1.008 1.008v0z"></path>
</svg>
