<svg xmlns="http://www.w3.org/2000/svg" width="24" height="24" viewBox="0 0 24 24">
<path d="M19.080 5.928c-1.801-1.819-4.3-2.945-7.061-2.945-0.833 0-1.642 0.103-2.416 0.296l0.068-0.014c-0.38 0.15-0.645 0.514-0.645 0.94 0 0.557 0.451 1.008 1.008 1.008 0.033 0 0.065-0.002 0.097-0.005l-0.004 0c0.555-0.137 1.192-0.216 1.848-0.216 4.427 0 8.016 3.589 8.016 8.016v0h-0.336c-0.486 0.078-0.853 0.494-0.853 0.996s0.367 0.918 0.847 0.995l0.006 0.001h0.336v0.336c0 0.557 0.451 1.008 1.008 1.008s1.008-0.451 1.008-1.008v0-2.328c0-0.017 0-0.036 0-0.056 0-2.746-1.12-5.231-2.927-7.023l-0.001-0.001zM3.696 2.304c-0.153-0.099-0.341-0.158-0.542-0.158-0.557 0-1.008 0.451-1.008 1.008 0 0.201 0.059 0.389 0.161 0.546l-0.002-0.004 2.424 2.448c-1.694 1.782-2.736 4.198-2.736 6.857 0 0.003 0 0.005 0 0.008v-0 6.984c0 0.557 0.451 1.008 1.008 1.008v0h3c1.657 0 3-1.343 3-3v0-1.992c0-1.657-1.343-3-3-3v0h-1.992c-0-0.006-0-0.012-0-0.019 0-2.1 0.813-4.011 2.14-5.434l-0.004 0.005 8.856 8.856v1.584c0 1.657 1.343 3 3 3v0h1.584l0.72 0.696c0.153 0.099 0.341 0.158 0.542 0.158 0.557 0 1.008-0.451 1.008-1.008 0-0.201-0.059-0.389-0.161-0.546l0.002 0.004zM6 15c0.557 0 1.008 0.451 1.008 1.008v0 1.992c0 0.557-0.451 1.008-1.008 1.008v0h-1.992v-4.008z"></path>
</svg>
