<svg xmlns="http://www.w3.org/2000/svg" width="24" height="24" viewBox="0 0 24 24">
<path d="M19.008 10.008c-0 0-0 0-0 0-0.548 0-0.994 0.438-1.008 0.983l-0 0.001v3.384l-1.488-1.488c-0.503-0.496-1.193-0.803-1.956-0.803s-1.453 0.307-1.956 0.803l-0.72 0.72-2.472-2.496c-0.504-0.503-1.2-0.815-1.968-0.815s-1.464 0.311-1.968 0.815v0l-1.464 1.488v-5.592c0-0 0-0 0-0 0-0.548 0.438-0.994 0.983-1.008l0.001-0h8.016c0.486-0.078 0.853-0.494 0.853-0.996s-0.367-0.918-0.847-0.995l-0.006-0.001h-8.016c-1.657 0-3 1.343-3 3v0 12.216c0 1.538 1.246 2.784 2.784 2.784v0h12.432c0.291-0.001 0.572-0.045 0.836-0.125l-0.020 0.005c1.159-0.335 1.992-1.387 1.992-2.633 0-0.011-0-0.022-0-0.033l0 0.002v-8.232c-0.013-0.546-0.459-0.984-1.008-0.984-0 0-0 0-0 0h0zM4.992 19.992c-0.538-0.013-0.971-0.446-0.984-0.983l-0-0.001v-3.576l2.88-2.904c0.142-0.139 0.337-0.224 0.552-0.224s0.41 0.085 0.552 0.224l7.464 7.464zM18 19.008c-0.006 0.197-0.068 0.379-0.17 0.532l0.002-0.004-4.536-4.536 0.72-0.696c0.14-0.144 0.335-0.234 0.552-0.234s0.412 0.090 0.552 0.234l0 0 2.88 2.904zM21 4.008h-1.008v-1.008c-0.078-0.486-0.494-0.853-0.996-0.853s-0.918 0.367-0.995 0.847l-0.001 0.006v1.008h-1.008c-0.486 0.078-0.853 0.494-0.853 0.996s0.367 0.918 0.847 0.995l0.006 0.001h1.008v1.008c0.078 0.486 0.494 0.853 0.996 0.853s0.918-0.367 0.995-0.847l0.001-0.006v-1.008h1.008c0.486-0.078 0.853-0.494 0.853-0.996s-0.367-0.918-0.847-0.995l-0.006-0.001z"></path>
</svg>
