<svg xmlns="http://www.w3.org/2000/svg" width="24" height="24" viewBox="0 0 24 24">
<path d="M20.472 12c-0.87-1.318-2.335-2.183-4.004-2.208l-0.004-0c-0.009-0.37-0.052-0.726-0.127-1.069l0.007 0.037c-0.065-0.5-0.488-0.882-1-0.882-0.557 0-1.008 0.451-1.008 1.008 0 0.127 0.023 0.249 0.066 0.36l-0.002-0.007c0.039 0.177 0.064 0.383 0.072 0.594l0 0.006c-1.206 0.153-2.3 0.439-3.332 0.848l0.092-0.032c0-1.2 0.072-2.4 0.192-3.6l0.024-0.384c1.378-0.192 2.557-0.427 3.712-0.722l-0.232 0.050 0.12-0.024c0.5-0.065 0.882-0.488 0.882-1 0-0.557-0.451-1.008-1.008-1.008-0.127 0-0.249 0.023-0.36 0.066l0.007-0.002-0.12 0.024c-0.912 0.24-1.848 0.408-2.784 0.552l0.144-1.512c-0.014-0.546-0.46-0.983-1.008-0.983-0.48 0-0.881 0.335-0.983 0.784l-0.001 0.007-0.192 1.944c-0.936 0.096-1.872 0.144-2.808 0.144-0.557 0-1.008 0.451-1.008 1.008s0.451 1.008 1.008 1.008v0c0.864 0 1.752-0.048 2.616-0.12-0.138 1.346-0.216 2.909-0.216 4.489 0 0.075 0 0.151 0.001 0.226l-0-0.012c-0.12 0.072-0.264 0.144-0.408 0.216-0.744 0.425-1.379 0.854-1.98 1.323l0.036-0.027-0.024 0.024c-1.006 0.786-1.875 1.679-2.614 2.675l-0.026 0.037c-0.351 0.485-0.562 1.092-0.562 1.748 0 1.657 1.343 3 3 3 0.182 0 0.36-0.016 0.532-0.047l-0.018 0.003c1.065-0.206 2.014-0.555 2.882-1.033l-0.050 0.025c0.185 0.259 0.484 0.425 0.822 0.425 0.557 0 1.008-0.451 1.008-1.008 0-0.040-0.002-0.079-0.007-0.118l0 0.005c-0.024-0.144-0.048-0.288-0.072-0.432 0.483-0.38 0.914-0.765 1.319-1.175l0.001-0.001c0.801-0.79 1.501-1.681 2.079-2.651l0.033-0.061c0.024-0.048 0.024-0.096 0.048-0.12 0.12-0.216 0.24-0.432 0.336-0.648 0.072-0.096 0.12-0.216 0.168-0.336 0.090-0.198 0.196-0.468 0.29-0.743l0.022-0.073c0.048-0.096 0.072-0.192 0.096-0.288 0.048-0.168 0.096-0.336 0.144-0.504v-0.024c0.012-0 0.027-0 0.042-0 0.992 0 1.873 0.478 2.424 1.216l0.006 0.008c1.008 1.752-0.96 4.968-4.416 7.152-0.373 0.153-0.631 0.514-0.631 0.935 0 0.557 0.451 1.008 1.008 1.008 0.262 0 0.5-0.1 0.679-0.263l-0.001 0.001c4.512-2.832 6.696-7.056 5.088-9.84zM6.792 18.576c-0.044 0.007-0.096 0.011-0.148 0.011-0.557 0-1.008-0.451-1.008-1.008 0-0.21 0.064-0.405 0.174-0.566l-0.002 0.004c0.668-0.887 1.426-1.653 2.276-2.307l0.028-0.021 0.024-0.024c0.329-0.254 0.705-0.515 1.093-0.758l0.059-0.034c0.048 1.2 0.168 2.376 0.312 3.576-0.805 0.521-1.746 0.913-2.755 1.119l-0.053 0.009zM14.136 12c-0.119 0.315-0.232 0.568-0.357 0.814l0.021-0.046c-0.048 0.12-0.096 0.24-0.168 0.36q-0.144 0.288-0.312 0.552c-0.096 0.144-0.168 0.288-0.264 0.432-0.435 0.647-0.901 1.212-1.416 1.728l0-0c-0.072 0.048-0.144 0.12-0.216 0.192q-0.144-1.608-0.192-3.216c0.844-0.393 1.825-0.709 2.851-0.9l0.077-0.012-0.024 0.096z"></path>
</svg>
