<svg xmlns="http://www.w3.org/2000/svg" width="24" height="24" viewBox="0 0 24 24">
<path d="M13.776 9.456c-0.212 0-0.384 0.172-0.384 0.384v0 1.68l-1.392-1.872c-0.071-0.113-0.195-0.188-0.335-0.192h-0.001c-0.212 0-0.384 0.172-0.384 0.384v0 2.832c0 0.212 0.172 0.384 0.384 0.384v0c0.212 0 0.384-0.172 0.384-0.384v0-1.68l1.392 1.92c0.035 0.046 0.085 0.080 0.142 0.096l0.002 0c0.022 0.005 0.046 0.008 0.072 0.008s0.050-0.003 0.074-0.009l-0.002 0c0.039 0.017 0.084 0.027 0.132 0.027s0.093-0.010 0.134-0.028l-0.002 0.001 0.096-0.072c0.074-0.070 0.12-0.169 0.12-0.279 0-0.003-0-0.006-0-0.010v0-2.808c0-0.001 0-0.002 0-0.003 0-0.212-0.172-0.384-0.384-0.384-0.017 0-0.034 0.001-0.050 0.003l0.002-0zM9.192 12.264h-1.056v-2.424c0-0.212-0.172-0.384-0.384-0.384v0c-0.201 0.013-0.36 0.18-0.36 0.383 0 0 0 0.001 0 0.001v-0 2.832c0 0 0 0 0 0.001 0 0.204 0.159 0.37 0.359 0.383l0.001 0h1.44c0.007 0 0.016 0.001 0.024 0.001 0.212 0 0.384-0.172 0.384-0.384 0-0 0-0.001 0-0.001v0c0.001-0.007 0.001-0.016 0.001-0.025 0-0.212-0.172-0.384-0.384-0.384-0.009 0-0.017 0-0.026 0.001l0.001-0zM10.32 9.456c-0.007-0-0.016-0.001-0.024-0.001-0.212 0-0.384 0.172-0.384 0.384 0 0 0 0.001 0 0.001v-0 2.832c0 0 0 0 0 0.001 0 0.212 0.172 0.384 0.384 0.384 0.008 0 0.017-0 0.025-0.001l-0.001 0c0.201-0.013 0.36-0.18 0.36-0.383 0-0 0-0.001 0-0.001v0-2.832c0-0 0-0 0-0.001 0-0.204-0.159-0.37-0.359-0.383l-0.001-0zM17.904 1.992h-11.808c-2.267 0-4.104 1.837-4.104 4.104v0 11.808c0 2.267 1.837 4.104 4.104 4.104v0h11.808c2.267 0 4.104-1.837 4.104-4.104v0-11.808c0-2.267-1.837-4.104-4.104-4.104v0zM18.216 14.28c-0.040 0.064-0.079 0.119-0.122 0.171l0.002-0.003c-0.246 0.293-0.513 0.552-0.805 0.783l-0.011 0.009c-1.992 1.872-5.352 4.128-5.808 3.768s0.648-1.752-0.528-1.992c-0.036 0.005-0.078 0.007-0.12 0.007s-0.084-0.003-0.125-0.008l0.005 0c-3.432-0.48-6-2.904-6-5.784 0-3.264 3.288-5.88 7.344-5.88s7.344 2.616 7.344 5.88c-0.042 1.169-0.48 2.228-1.182 3.055l0.006-0.007zM16.512 9.48h-1.512c-0 0-0 0-0.001 0-0.204 0-0.37 0.159-0.383 0.359l-0 0.001v2.856c0 0.212 0.172 0.384 0.384 0.384v0h1.488c0.212 0 0.384-0.172 0.384-0.384v0c0-0.212-0.172-0.384-0.384-0.384v0h-1.032v-0.6h1.056c0.212 0 0.384-0.172 0.384-0.384v0c0-0.212-0.172-0.384-0.384-0.384v0h-1.056v-0.624h1.056c0 0 0 0 0.001 0 0.204 0 0.37-0.159 0.383-0.359l0-0.001c0.008-0.029 0.012-0.062 0.012-0.096 0-0.212-0.172-0.384-0.384-0.384-0.004 0-0.009 0-0.013 0l0.001-0z"></path>
</svg>
