<svg xmlns="http://www.w3.org/2000/svg" width="24" height="24" viewBox="0 0 24 24">
<path d="M11.112 10.44c-0.535 0.313-0.889 0.884-0.889 1.538 0 0.981 0.795 1.776 1.776 1.776s1.776-0.795 1.776-1.776c0-0.328-0.089-0.635-0.244-0.899l0.005 0.008c-0.313-0.533-0.884-0.886-1.537-0.886-0.327 0-0.633 0.088-0.896 0.242l0.008-0.005zM19.104 12.384q-0.168-0.216-0.36-0.408 0.12-0.144 0.264-0.288c1.608-1.8 2.28-3.624 1.656-4.704-0.6-1.032-2.4-1.344-4.632-0.912q-0.336 0.072-0.672 0.144-0.072-0.216-0.12-0.432c-0.768-2.304-1.992-3.792-3.264-3.792-1.2 0-2.352 1.416-3.096 3.576q-0.12 0.312-0.216 0.624-0.216-0.048-0.432-0.096c-2.376-0.48-4.272-0.168-4.896 0.936-0.6 1.032 0.024 2.736 1.512 4.464q0.24 0.264 0.48 0.504c-0.192 0.192-0.36 0.384-0.528 0.576-1.464 1.68-2.064 3.36-1.464 4.416 0.624 1.056 2.496 1.416 4.776 0.96q0.288-0.048 0.552-0.12 0.12 0.36 0.24 0.696c0.72 2.112 1.896 3.48 3.096 3.48 1.224 0 2.472-1.464 3.216-3.672 0.072-0.168 0.12-0.36 0.192-0.528q0.336 0.072 0.696 0.144c2.208 0.432 3.96 0.096 4.56-0.936 0.624-1.080-0.024-2.88-1.56-4.632zM4.080 7.44c0.384-0.648 1.944-0.912 3.984-0.504q0.192 0.048 0.384 0.096c-0.176 0.75-0.32 1.659-0.402 2.586l-0.006 0.078c-0.787 0.558-1.476 1.117-2.126 1.717l0.014-0.013q-0.216-0.216-0.432-0.456c-1.272-1.488-1.776-2.856-1.416-3.504zM7.968 13.176c-0.528-0.384-1.008-0.768-1.416-1.176 0.408-0.408 0.888-0.792 1.392-1.176q-0.024 0.576-0.024 1.176t0.048 1.176zM7.968 17.112c-0.474 0.111-1.019 0.174-1.579 0.174-0.374 0-0.742-0.028-1.101-0.083l0.040 0.005c-0.505-0.037-0.946-0.281-1.246-0.645l-0.002-0.003c-0.36-0.624 0.096-1.992 1.368-3.432q0.216-0.264 0.48-0.528c0.636 0.588 1.325 1.148 2.049 1.661l0.063 0.043c0.096 1.026 0.249 1.951 0.46 2.853l-0.028-0.141q-0.264 0.048-0.528 0.096zM15.048 9.072q-0.504-0.312-1.008-0.6t-1.032-0.576c0.6-0.24 1.176-0.456 1.752-0.624 0.109 0.482 0.21 1.095 0.28 1.717l0.008 0.083zM9.672 5.832c0.648-1.848 1.584-2.976 2.304-2.976 0.792 0 1.776 1.224 2.448 3.192q0.048 0.192 0.12 0.384c-1.004 0.319-1.838 0.652-2.643 1.037l0.123-0.053c-0.684-0.334-1.518-0.667-2.378-0.944l-0.142-0.040q0.072-0.312 0.168-0.6zM9.288 7.248c0.715 0.228 1.287 0.447 1.845 0.694l-0.117-0.046q-1.056 0.552-2.064 1.176c0.096-0.624 0.192-1.248 0.336-1.824zM8.952 14.928q0.504 0.312 1.032 0.6 0.504 0.312 1.056 0.576c-0.45 0.209-1.030 0.437-1.624 0.635l-0.128 0.037c-0.121-0.485-0.239-1.112-0.325-1.749l-0.011-0.099zM14.424 18.072c-0.29 0.893-0.715 1.667-1.259 2.342l0.011-0.014c-0.271 0.389-0.686 0.662-1.166 0.743l-0.010 0.001c-0.744 0-1.656-1.080-2.304-2.904q-0.096-0.312-0.192-0.648c1.001-0.326 1.835-0.667 2.639-1.060l-0.119 0.052c0.687 0.331 1.529 0.665 2.397 0.943l0.147 0.041q-0.072 0.24-0.144 0.504zM14.784 16.752c-0.576-0.192-1.152-0.408-1.776-0.648q0.528-0.288 1.032-0.576 0.528-0.312 1.032-0.624c-0.075 0.719-0.177 1.349-0.309 1.967l0.021-0.119zM15.24 12q0 0.912-0.072 1.824c-0.48 0.336-1.008 0.648-1.56 0.96-0.528 0.312-1.056 0.6-1.584 0.864q-0.84-0.408-1.632-0.864t-1.536-0.96q-0.072-0.912-0.072-1.824t0.072-1.824c0.897-0.625 1.927-1.232 3.002-1.761l0.142-0.063q0.816 0.408 1.608 0.864t1.56 0.96q0.072 0.912 0.072 1.824zM16.176 6.912c1.92-0.384 3.384-0.12 3.744 0.504 0.384 0.672-0.168 2.136-1.56 3.696q-0.12 0.144-0.24 0.264c-0.64-0.58-1.337-1.131-2.069-1.636l-0.067-0.044c-0.087-1.003-0.231-1.912-0.434-2.799l0.026 0.135q0.312-0.072 0.6-0.12zM16.056 10.8c0.548 0.397 1.025 0.783 1.481 1.191l-0.017-0.015c-0.442 0.404-0.919 0.797-1.415 1.165l-0.049 0.035q0.024-0.576 0.024-1.176t-0.024-1.2zM19.92 16.584c-0.36 0.624-1.776 0.888-3.648 0.528q-0.336-0.048-0.672-0.144c0.172-0.764 0.308-1.683 0.38-2.62l0.004-0.068c0.797-0.554 1.494-1.114 2.15-1.717l-0.014 0.013q0.192 0.192 0.336 0.36c0.587 0.629 1.065 1.369 1.399 2.184l0.017 0.048c0.109 0.223 0.172 0.486 0.172 0.763 0 0.235-0.046 0.459-0.129 0.665l0.004-0.012z"></path>
</svg>
