<svg xmlns="http://www.w3.org/2000/svg" width="24" height="24" viewBox="0 0 24 24">
<path d="M13.008 12c-1.657 0-3 1.343-3 3s1.343 3 3 3c1.657 0 3-1.343 3-3v0c0-1.657-1.343-3-3-3v0zM13.008 16.008c-0.007 0-0.016 0-0.024 0-0.557 0-1.008-0.451-1.008-1.008s0.451-1.008 1.008-1.008c0.557 0 1.008 0.451 1.008 1.008v0c0 0 0 0 0 0 0 0.548-0.438 0.994-0.983 1.008l-0.001 0zM18.792 7.608l-2.784-2.112v-2.496h0.984c0.486-0.078 0.853-0.494 0.853-0.996s-0.367-0.918-0.847-0.995l-0.006-0.001h-8.328c-0.009-0-0.020-0-0.030-0-1.376 0-2.622 0.56-3.522 1.464l-0.816 0.816c-0.234 0.186-0.382 0.471-0.382 0.79 0 0.557 0.451 1.008 1.008 1.008 0.319 0 0.604-0.149 0.789-0.38l0.002-0.002 0.816-0.816c0.546-0.548 1.301-0.887 2.136-0.888h1.344v2.496l-2.808 2.112c-0.729 0.555-1.196 1.423-1.2 2.399v12.001c0.013 0.546 0.459 0.984 1.008 0.984 0 0 0 0 0 0h12c0.538-0.013 0.971-0.446 0.984-0.983l0-0.001v-12c-0.004-0.977-0.471-1.845-1.193-2.395l-0.007-0.005zM12 3h1.992v1.992h-1.992zM18 21h-10.008v-10.992c0-0.002-0-0.004-0-0.006 0-0.331 0.159-0.624 0.405-0.808l0.003-0.002 2.928-2.184h3.336l2.928 2.184c0.249 0.186 0.408 0.479 0.408 0.81 0 0.002 0 0.004-0 0.006v-0z"></path>
</svg>
