<svg xmlns="http://www.w3.org/2000/svg" width="24" height="24" viewBox="0 0 24 24">
<path d="M19.008 1.992h-14.016c-1.657 0-3 1.343-3 3v0 14.016c0 1.657 1.343 3 3 3v0h14.016c0.171-0.002 0.337-0.020 0.498-0.051l-0.018 0.003 0.312-0.072h0.12l0.36-0.144 0.12-0.072c0.12-0.072 0.216-0.12 0.312-0.192 0.143-0.102 0.268-0.204 0.386-0.314l-0.002 0.002 0.072-0.096c0.093-0.095 0.18-0.196 0.259-0.304l0.005-0.008 0.096-0.12c0.068-0.103 0.133-0.221 0.186-0.345l0.006-0.015c0.017-0.040 0.034-0.088 0.046-0.137l0.002-0.007c0.072-0.12 0.096-0.264 0.12-0.384v-0.144c0.060-0.176 0.102-0.38 0.119-0.591l0.001-0.009v-14.016c0-1.657-1.343-3-3-3v0zM4.992 19.992c-0.538-0.013-0.971-0.446-0.984-0.983l-0-0.001v-4.32l3.288-3.288c0.182-0.18 0.432-0.291 0.708-0.291s0.526 0.111 0.708 0.291l8.592 8.592zM19.992 19.008c-0.002 0.13-0.028 0.254-0.074 0.367l0.002-0.007c-0.024 0.047-0.048 0.086-0.074 0.123l0.002-0.003c-0.030 0.045-0.062 0.084-0.096 0.12l0-0-5.352-5.328 0.888-0.888c0.182-0.18 0.432-0.291 0.708-0.291s0.526 0.111 0.708 0.291l3.288 3.288zM19.992 13.848l-1.872-1.848c-0.551-0.528-1.299-0.853-2.124-0.853s-1.573 0.325-2.125 0.854l0.001-0.001-0.864 0.888-2.88-2.88c-0.551-0.528-1.299-0.853-2.124-0.853s-1.573 0.325-2.125 0.854l0.001-0.001-1.872 1.848v-6.864c0.013-0.538 0.446-0.971 0.983-0.984l0.001-0h14.016c0.538 0.013 0.971 0.446 0.984 0.983l0 0.001zM13.512 6c-0.007-0-0.015-0-0.024-0-0.835 0-1.512 0.677-1.512 1.512s0.677 1.512 1.512 1.512c0.835 0 1.512-0.677 1.512-1.512 0-0.008-0-0.017-0-0.025l0 0.001c-0.013-0.816-0.672-1.475-1.487-1.488l-0.001-0z"></path>
</svg>
