<svg xmlns="http://www.w3.org/2000/svg" width="24" height="24" viewBox="0 0 24 24">
<path d="M5.088 16.008c-0.288-0.504-0.888-0.6-1.392-0.408-0.504 0.288-0.6 0.888-0.408 1.392 0.312 0.504 0.912 0.6 1.416 0.408 0.504-0.312 0.6-0.912 0.384-1.392zM4.704 6.6c-0.504-0.192-1.104-0.096-1.392 0.408-0.216 0.48-0.12 1.080 0.384 1.392 0.504 0.192 1.104 0.096 1.416-0.408 0.192-0.504 0.096-1.104-0.408-1.392zM20.304 8.4c0.504-0.312 0.6-0.912 0.384-1.392-0.288-0.504-0.888-0.6-1.392-0.408-0.504 0.288-0.6 0.888-0.408 1.392 0.312 0.504 0.912 0.6 1.416 0.408zM4.008 12c0-0.6-0.408-1.008-1.008-1.008s-1.008 0.408-1.008 1.008 0.408 1.008 1.008 1.008 1.008-0.408 1.008-1.008zM7.2 18.792c-0.504 0.096-0.888 0.696-0.696 1.2 0.096 0.504 0.696 0.912 1.2 0.696 0.504-0.096 0.888-0.696 0.696-1.2-0.096-0.48-0.6-0.792-1.2-0.696zM21 10.992c-0.6 0-1.008 0.408-1.008 1.008s0.408 1.008 1.008 1.008 1.008-0.408 1.008-1.008-0.408-1.008-1.008-1.008zM20.304 15.6c-0.504-0.312-1.104-0.096-1.392 0.408-0.312 0.48-0.12 1.080 0.384 1.392 0.504 0.288 1.104 0.096 1.416-0.408 0.192-0.504 0.096-1.104-0.408-1.392zM16.992 3.288c-0.504-0.288-1.104-0.096-1.392 0.408-0.312 0.504-0.096 1.104 0.408 1.392 0.48 0.312 1.080 0.12 1.392-0.384 0.192-0.504 0.096-1.104-0.408-1.416zM16.8 18.792c-0.504-0.096-1.104 0.216-1.2 0.696-0.096 0.504 0.192 1.104 0.696 1.2 0.504 0.12 1.104-0.192 1.2-0.696s-0.192-0.984-0.696-1.2zM12 19.992c-0.6 0-1.008 0.408-1.008 1.008s0.408 1.008 1.008 1.008 1.008-0.408 1.008-1.008-0.408-1.008-1.008-1.008zM12 1.992c-0.6 0-1.008 0.408-1.008 1.008s0.408 1.008 1.008 1.008 1.008-0.408 1.008-1.008-0.408-1.008-1.008-1.008z"></path>
</svg>
