<svg xmlns="http://www.w3.org/2000/svg" width="24" height="24" viewBox="0 0 24 24">
<path d="M22.704 21.288l-0.984-1.008-18-18-1.008-0.984c-0.17-0.136-0.388-0.218-0.626-0.218-0.557 0-1.008 0.451-1.008 1.008 0 0.237 0.082 0.456 0.219 0.628l-0.002-0.002 0.696 0.696v17.592c0 0.557 0.451 1.008 1.008 1.008v0h17.592l0.696 0.696c0.182 0.18 0.432 0.291 0.708 0.291s0.526-0.111 0.708-0.291l-0 0c0.18-0.182 0.291-0.432 0.291-0.708s-0.111-0.526-0.291-0.708l0 0zM4.008 5.4l2.592 2.592h-2.592zM7.992 19.992h-3.984v-3.984h3.984zM7.992 13.992h-3.984v-3.984h3.984zM10.008 11.4l2.592 2.592h-2.592zM13.992 19.992h-3.984v-3.984h3.984zM16.008 19.992v-2.592l2.592 2.592zM8.664 4.008h5.328v4.992c0 0.557 0.451 1.008 1.008 1.008v0h4.992v5.328c0 0.557 0.451 1.008 1.008 1.008s1.008-0.451 1.008-1.008v0-12.336c0-0.557-0.451-1.008-1.008-1.008v0h-12.336c-0.557 0-1.008 0.451-1.008 1.008s0.451 1.008 1.008 1.008v0zM16.008 4.008h3.984v3.984h-3.984z"></path>
</svg>
