<svg xmlns="http://www.w3.org/2000/svg" width="24" height="24" viewBox="0 0 24 24">
<path d="M15.72 8.28c-0.183-0.187-0.438-0.303-0.72-0.303s-0.537 0.116-0.72 0.302l-0 0-2.28 2.304-2.28-2.304c-0.184-0.184-0.439-0.298-0.72-0.298-0.562 0-1.018 0.456-1.018 1.018 0 0.281 0.114 0.536 0.298 0.72v0l2.304 2.28-2.304 2.28c-0.187 0.183-0.303 0.438-0.303 0.72s0.116 0.537 0.302 0.72l0 0c0.183 0.187 0.438 0.303 0.72 0.303s0.537-0.116 0.72-0.302l0-0 2.28-2.304 2.28 2.304c0.183 0.187 0.438 0.303 0.72 0.303s0.537-0.116 0.72-0.302l0-0c0.187-0.183 0.303-0.438 0.303-0.72s-0.116-0.537-0.302-0.72l-0-0-2.304-2.28 2.304-2.28c0.187-0.183 0.303-0.438 0.303-0.72s-0.116-0.537-0.302-0.72l-0-0zM19.080 4.92c-1.812-1.812-4.315-2.933-7.080-2.933-5.53 0-10.013 4.483-10.013 10.013 0 2.765 1.121 5.268 2.933 7.080v0c1.812 1.812 4.315 2.933 7.080 2.933 5.53 0 10.013-4.483 10.013-10.013 0-2.765-1.121-5.268-2.933-7.080v0zM17.664 17.664c-1.448 1.454-3.451 2.354-5.664 2.354-4.414 0-7.992-3.578-7.992-7.992s3.578-7.992 7.992-7.992c4.405 0 7.977 3.564 7.992 7.965v0.001c0 0.013 0 0.029 0 0.045 0 2.194-0.89 4.181-2.328 5.619l-0 0z"></path>
</svg>
