<svg xmlns="http://www.w3.org/2000/svg" width="24" height="24" viewBox="0 0 24 24">
<path d="M14.496 10.848c0.367-0.503 0.588-1.133 0.588-1.815 0-1.71-1.386-3.096-3.096-3.096s-3.096 1.386-3.096 3.096c0 0.682 0.22 1.312 0.594 1.824l-0.006-0.009c-0.427 0.282-0.791 0.616-1.097 0.999l-0.007 0.009c-0.136 0.174-0.219 0.395-0.219 0.636 0 0.571 0.463 1.035 1.035 1.035 0.331 0 0.625-0.155 0.814-0.396l0.002-0.002c0.478-0.61 1.213-1 2.039-1.008h0.001c0.827 0.008 1.562 0.398 2.036 1.002l0.004 0.006c0.186 0.221 0.463 0.36 0.772 0.36 0.007 0 0.014-0 0.021-0l-0.001 0c0.539-0.023 0.967-0.465 0.967-1.007 0-0.226-0.075-0.435-0.201-0.603l0.002 0.003c-0.325-0.404-0.705-0.746-1.133-1.021l-0.019-0.011zM12 10.128c-0.596-0.001-1.079-0.484-1.079-1.080s0.484-1.080 1.080-1.080c0.58 0 1.053 0.457 1.079 1.030l0 0.002c0.001 0.014 0.001 0.031 0.001 0.048 0 0.596-0.484 1.080-1.080 1.080-0 0-0.001 0-0.001 0h0zM20.472 9.624c-0.423-4.334-4.048-7.694-8.458-7.694-1.759 0-3.392 0.534-4.748 1.45l0.030-0.019c-2.077 1.401-3.495 3.643-3.765 6.227l-0.003 0.037c-0.025 0.246-0.040 0.531-0.040 0.819 0 2.355 0.96 4.485 2.511 6.020l5.305 5.305c0.182 0.18 0.432 0.291 0.708 0.291s0.526-0.111 0.708-0.291l-0 0 5.28-5.304c1.551-1.536 2.512-3.666 2.512-6.021 0-0.288-0.014-0.574-0.043-0.855l0.003 0.035zM16.608 15.048l-4.608 4.608-4.608-4.608c-1.175-1.173-1.902-2.795-1.902-4.586 0-0.219 0.011-0.436 0.032-0.649l-0.002 0.027c0.2-2.029 1.295-3.767 2.88-4.833l0.024-0.015c1.006-0.674 2.244-1.076 3.576-1.076s2.57 0.402 3.599 1.091l-0.023-0.015c1.603 1.076 2.697 2.804 2.902 4.796l0.002 0.028c0.020 0.193 0.032 0.417 0.032 0.644 0 1.792-0.728 3.415-1.904 4.588l-0 0z"></path>
</svg>
