<svg xmlns="http://www.w3.org/2000/svg" width="24" height="24" viewBox="0 0 24 24">
<path d="M13.296 12.216c1.045-0.907 1.703-2.236 1.704-3.72v-0c0-2.764-2.24-5.004-5.004-5.004s-5.004 2.24-5.004 5.004v0c0.001 1.484 0.659 2.813 1.698 3.715l0.006 0.005c-2.793 1.283-4.699 4.054-4.704 7.271v0.001c0 0.557 0.451 1.008 1.008 1.008s1.008-0.451 1.008-1.008v0c0-3.314 2.686-6 6-6s6 2.686 6 6v0c0.078 0.486 0.494 0.853 0.996 0.853s0.918-0.367 0.995-0.847l0.001-0.006c-0.005-3.218-1.911-5.989-4.654-7.252l-0.050-0.020zM10.008 11.496c-1.657 0-3-1.343-3-3s1.343-3 3-3c1.657 0 3 1.343 3 3v0c0 1.657-1.343 3-3 3v0zM21.72 9.12c-0.183-0.187-0.438-0.303-0.72-0.303s-0.537 0.116-0.72 0.302l-0 0-1.992 2.016-0.624-0.648c-0.182-0.18-0.432-0.291-0.708-0.291s-0.526 0.111-0.708 0.291l0-0c-0.18 0.182-0.291 0.432-0.291 0.708s0.111 0.526 0.291 0.708l1.344 1.344c0.182 0.18 0.432 0.291 0.708 0.291s0.526-0.111 0.708-0.291l2.664-2.664c0.209-0.186 0.34-0.455 0.34-0.755 0-0.277-0.111-0.527-0.292-0.709l0 0z"></path>
</svg>
