<svg xmlns="http://www.w3.org/2000/svg" width="24" height="24" viewBox="0 0 24 24">
<path d="M3 7.008h18c0.557 0 1.008-0.451 1.008-1.008s-0.451-1.008-1.008-1.008v0h-18c-0.557 0-1.008 0.451-1.008 1.008s0.451 1.008 1.008 1.008v0zM9 15h-6c-0.486 0.078-0.853 0.494-0.853 0.996s0.367 0.918 0.847 0.995l0.006 0.001h6c0.486-0.078 0.853-0.494 0.853-0.996s-0.367-0.918-0.847-0.995l-0.006-0.001zM18.504 10.008h-15.504c-0.486 0.078-0.853 0.494-0.853 0.996s0.367 0.918 0.847 0.995l0.006 0.001h15.504c0.749 0.098 1.322 0.732 1.322 1.5s-0.573 1.402-1.314 1.499l-0.008 0.001h-3.096l0.312-0.288c0.179-0.182 0.29-0.432 0.29-0.708 0-0.558-0.452-1.010-1.010-1.010-0.282 0-0.537 0.115-0.72 0.302l-1.992 1.992c-0.091 0.094-0.164 0.205-0.214 0.329l-0.002 0.007c-0.045 0.11-0.071 0.238-0.071 0.372s0.026 0.262 0.074 0.379l-0.002-0.007c0.052 0.131 0.125 0.242 0.216 0.336l-0-0 1.992 2.016c0.183 0.187 0.438 0.303 0.72 0.303s0.537-0.116 0.72-0.302l0-0c0.187-0.183 0.303-0.438 0.303-0.72s-0.116-0.537-0.302-0.72l-0-0-0.312-0.288h3.096c1.806-0.154 3.214-1.659 3.214-3.492s-1.408-3.338-3.201-3.491l-0.013-0.001z"></path>
</svg>
