<svg width="24" height="24" viewBox="0 0 124 97" fill="none" xmlns="http://www.w3.org/2000/svg" stroke-width="1px" stroke-linecap="round" stroke-linejoin="round">
    <path d="M64.5897 13.9862C64.6397 15.9662 64.0297 17.3062 62.7597 18.0362L44.6797 28.3462L28.8197 36.2762L24.6797 38.3462L28.6897 36.0562L42.7597 28.0362C44.0297 27.3062 44.6397 25.9662 44.5897 23.9862C44.5297 22.0162 43.9297 19.9662 42.7597 17.8462C41.4897 15.6562 39.9897 14.0262 38.2397 12.9562C37.6697 12.6062 37.1297 12.3462 36.6097 12.1962C35.6997 11.9162 34.8697 11.9362 34.1097 12.2462L53.7197 2.43621C54.9897 1.71621 56.4997 1.88617 58.2397 2.95617C59.9897 4.02617 61.4897 5.65618 62.7597 7.84618C63.9297 9.96618 64.5297 12.0162 64.5897 13.9862Z" stroke="currentColor" stroke-linejoin="round"/>
    <path d="M101.76 90.1261C101.76 92.1861 101.16 93.5661 99.9401 94.2561C98.7201 94.9561 97.22 94.7762 95.42 93.7462L63.3701 75.2462L45.3801 64.8562L24.6801 52.9062L42.7601 84.0862C44.0301 86.2762 44.64 88.3262 44.59 90.2362C44.53 92.1462 43.9301 93.4962 42.7601 94.2762C41.4901 95.0062 39.9901 94.8962 38.2401 93.9462C36.5001 92.9962 34.99 91.4362 33.72 89.2462L4.70007 39.1762C3.43007 36.9962 2.79004 34.9262 2.79004 32.9862C2.79004 31.0462 3.43007 29.7162 4.70007 28.9862L33.72 12.4362L34.11 12.2462C34.87 11.9362 35.7 11.9162 36.61 12.1962C37.13 12.3462 37.6701 12.6062 38.2401 12.9562C39.9901 14.0262 41.4901 15.6562 42.7601 17.8462C43.9301 19.9662 44.53 22.0162 44.59 23.9862C44.64 25.9662 44.0301 27.3062 42.7601 28.0362L28.6901 36.0562L24.6801 38.3462L32.7001 42.9762L50.77 53.4062L95.42 79.1862C97.22 80.2162 98.7201 81.7862 99.9401 83.8862C101.16 85.9862 101.76 88.0661 101.76 90.1261Z" stroke="currentColor" stroke-linejoin="round"/>
    <path d="M121.76 80.1262C121.76 82.1862 121.16 83.5662 119.94 84.2562L99.9397 94.2562C101.16 93.5662 101.76 92.1862 101.76 90.1262C101.76 88.0662 101.16 85.9862 99.9397 83.8862C98.7197 81.7862 97.2197 80.2162 95.4197 79.1862L50.7697 53.4062L32.6997 42.9762L24.6797 38.3462L28.8197 36.2762L44.6797 28.3462L115.42 69.1862C117.22 70.2162 118.72 71.7862 119.94 73.8862C121.16 75.9862 121.76 78.0662 121.76 80.1262Z" stroke="currentColor" stroke-linejoin="round"/>
    <path d="M64.5897 80.2362C64.5297 82.1462 63.9297 83.4962 62.7597 84.2762L62.3397 84.4862L42.7597 94.2762C43.9297 93.4962 44.5297 92.1462 44.5897 90.2362C44.6397 88.3262 44.0297 86.2762 42.7597 84.0862L24.6797 52.9062L45.3797 64.8562L63.3697 75.2462C64.2297 77.0062 64.6297 78.6662 64.5897 80.2362Z" stroke="currentColor" stroke-linejoin="round"/>
</svg>