<svg width="48" height="48" viewBox="0 0 91 111" fill="none" xmlns="http://www.w3.org/2000/svg" stroke-width="1px" stroke-linecap="round" stroke-linejoin="round"><path d="M19.1196 34.1199V76.8799C19.1196 78.2299 18.7297 79.1299 17.9297 79.5799C17.1397 80.0299 16.1497 79.9199 14.9797 79.2399L6.69971 74.4599C5.52971 73.7899 4.53976 72.7599 3.74976 71.3899C2.95976 70.0199 2.55957 68.6699 2.55957 67.3199V24.5499C2.55957 23.2099 2.95976 22.3099 3.74976 21.8599L3.99976 21.7399C4.73976 21.4299 5.64971 21.5899 6.69971 22.1899L14.9797 26.9799C16.1497 27.6499 17.1397 28.6799 17.9297 30.0399C18.7297 31.4099 19.1196 32.7699 19.1196 34.1199Z" stroke="#229EFF" stroke-linejoin="round"/><path d="M68.8098 81.8099V105.57C68.8098 106.92 68.4199 107.82 67.6199 108.27C66.8299 108.72 65.8499 108.61 64.6699 107.93L56.3899 103.15C55.2199 102.47 54.2299 101.45 53.4399 100.08C52.6499 98.7099 52.25 97.3599 52.25 96.0099V72.2499C52.25 70.8999 52.6499 70.0099 53.4399 69.5499L53.6799 69.4299C54.4299 69.1299 55.3399 69.2799 56.3899 69.8899L63.97 74.2699L64.6699 74.6699C65.8499 75.3499 66.8299 76.3699 67.6199 77.7399C68.4199 79.1099 68.8098 80.4699 68.8098 81.8099Z" stroke="#229EFF" stroke-linejoin="round"/><path d="M28.01 12.95C27.6 13.45 27.3999 14.18 27.3999 15.14V74.85L17.9299 79.58C18.7299 79.13 19.1199 78.23 19.1199 76.88V34.12C19.1199 32.77 18.7299 31.41 17.9299 30.04C17.1399 28.68 16.15 27.65 14.98 26.98L6.69995 22.19C5.64995 21.59 4.74 21.43 4 21.74L23.75 11.86C24.54 11.4 25.53 11.52 26.7 12.19L28.01 12.95Z" stroke="#229EFF" stroke-linejoin="round"/><path d="M43.9705 24.7V91.23C43.9705 92.57 43.5703 93.47 42.7803 93.93C41.9803 94.38 41.0003 94.27 39.8303 93.59L31.5503 88.81C30.3703 88.13 29.3903 87.11 28.5903 85.74C27.8003 84.37 27.4004 83.01 27.4004 81.66V15.14C27.4004 14.18 27.6005 13.45 28.0105 12.95C28.1605 12.74 28.3603 12.57 28.5903 12.44L28.8403 12.32C29.5903 12.02 30.4903 12.17 31.5503 12.78L39.8303 17.56C41.0003 18.24 41.9803 19.26 42.7803 20.63C43.5703 22 43.9705 23.36 43.9705 24.7Z" stroke="#229EFF" stroke-linejoin="round"/><path d="M63.97 14.7V64.29L53.6799 69.43L53.4399 69.55C52.6499 70.01 52.25 70.9 52.25 72.25V89.2L42.7798 93.93C43.5698 93.47 43.97 92.57 43.97 91.23V24.7C43.97 23.36 43.5698 22 42.7798 20.63C41.9798 19.26 40.9998 18.24 39.8298 17.56L31.5498 12.78C30.4898 12.17 29.5898 12.02 28.8398 12.32L48.5898 2.43999C49.3898 1.98999 50.3698 2.09999 51.5498 2.77999L59.8298 7.55999C60.9998 8.23999 61.9798 9.25999 62.7798 10.63C63.5698 12 63.97 13.36 63.97 14.7Z" stroke="#229EFF" stroke-linejoin="round"/><path d="M88.8096 71.8101V95.5701C88.8096 96.9201 88.4196 97.8201 87.6196 98.2701L67.6196 108.27C68.4196 107.82 68.8096 106.92 68.8096 105.57V81.8101C68.8096 80.4701 68.4196 79.1101 67.6196 77.7401C66.8296 76.3701 65.8497 75.3501 64.6697 74.6701L63.9697 74.2701L56.3896 69.8901C55.3396 69.2801 54.4297 69.1301 53.6797 69.4301L63.9697 64.2901L73.4397 59.5501C74.2297 59.1001 75.2196 59.2101 76.3896 59.8901L84.6697 64.6701C85.8497 65.3501 86.8296 66.3701 87.6196 67.7401C88.4196 69.1101 88.8096 70.4701 88.8096 71.8101Z" stroke="#229EFF" stroke-linejoin="round"/></svg>