<svg width="48" height="48" viewBox="0 0 88 117" fill="none" xmlns="http://www.w3.org/2000/svg" stroke-width="1px"
     stroke-linecap="round" stroke-linejoin="round">
    <path d="M63.5798 47.1699C62.2198 44.8199 60.5797 43.0899 58.6597 41.9799L57.3799 41.2399L51.1797 37.6599L51.1299 37.6299L29.8997 25.3799L22.9297 21.3499L9.89966 13.8299C8.17966 12.8299 6.67967 12.5999 5.40967 13.1199L4.97974 13.3299C3.60974 14.1099 2.92969 15.5999 2.92969 17.7999V73.7599C2.92969 75.9499 3.60974 78.2299 4.97974 80.5799C6.33974 82.9399 7.97966 84.6699 9.89966 85.7699L58.6597 113.93C60.5797 115.03 62.2198 115.2 63.5798 114.42C64.9498 113.64 65.6299 112.15 65.6299 109.95V53.9999C65.6299 51.7999 64.9498 49.5199 63.5798 47.1699ZM58.6597 85.9499L23.0598 65.3899L9.89966 57.7899V21.8199L22.9297 29.3399L29.8997 33.3699L43.7197 41.3399L44.2197 41.6299L58.6597 49.9699V85.9499Z" stroke="currentColor" stroke-linejoin="round"/>
    <path d="M45.6903 67.26C45.4003 67.9 44.8504 67.98 44.0304 67.51L24.5304 56.25C23.7704 55.81 23.2303 55.15 22.9303 54.27L22.8704 54.09C22.6604 53.4 22.6803 52.88 22.9303 52.51C23.0103 52.36 23.1404 52.24 23.3104 52.15L30.4203 48.09L31.8404 47.28L32.0704 47.17C32.7104 46.9 33.4504 47.01 34.2804 47.49C35.2104 48.02 36.0203 48.89 36.7203 50.1L38.1405 52.55L45.2503 64.82C45.8303 65.82 45.9803 66.63 45.6903 67.26Z" stroke="currentColor" stroke-linejoin="round"/>
    <path d="M58.6594 64.4V85.95L23.0596 65.39L9.89941 57.79L22.9294 51.28L29.8994 47.79L30.4194 48.09L23.3096 52.15C23.1396 52.24 23.0094 52.36 22.9294 52.51C22.6794 52.88 22.6596 53.4 22.8696 54.09L22.9294 54.27C23.2294 55.15 23.7695 55.81 24.5295 56.25L44.0295 67.51C44.8495 67.98 45.3995 67.9 45.6895 67.26L55.4094 62.52L58.6594 64.4Z" stroke="currentColor" stroke-linejoin="round"/>
    <path d="M29.8994 33.3701V47.7901L22.9294 51.2801L9.89941 57.7901V21.8201L22.9294 29.3401L29.8994 33.3701Z" stroke="currentColor" stroke-linejoin="round"/>
    <path d="M58.6592 49.9701V60.9401L55.4092 62.5201L45.6892 67.2601C45.9792 66.6301 45.8293 65.8201 45.2493 64.8201L38.1394 52.5501L36.7192 50.1001C36.0192 48.8901 35.2093 48.0201 34.2793 47.4901C33.4493 47.0101 32.7093 46.9001 32.0693 47.1701L43.7192 41.3401L44.2192 41.6301L58.6592 49.9701Z" stroke="currentColor" stroke-linejoin="round"/>
    <path d="M85.6304 44V99.95C85.6304 102.15 84.9503 103.64 83.5803 104.42L83.1501 104.63L63.5803 114.42C64.9503 113.64 65.6304 112.15 65.6304 109.95V54C65.6304 51.8 64.9503 49.52 63.5803 47.17C62.2203 44.82 60.5802 43.09 58.6602 41.98L57.3804 41.24L51.1802 37.66L51.1304 37.63L29.9001 25.38L22.9302 21.35L9.90015 13.83C8.18015 12.83 6.68016 12.6 5.41016 13.12L24.9802 3.33001C26.3402 2.56001 27.9801 2.72001 29.9001 3.83001L78.6602 31.98C80.5802 33.09 82.2203 34.82 83.5803 37.17C84.9503 39.52 85.6304 41.8 85.6304 44Z" stroke="currentColor" stroke-linejoin="round"/>
</svg>