<svg width="24" height="24" viewBox="0 0 73 131" fill="none" xmlns="http://www.w3.org/2000/svg" stroke-width="1px" stroke-linecap="round" stroke-linejoin="round">
    <path d="M50.1707 125.885C50.1707 127.265 49.7807 128.175 49.0107 128.615C48.2307 129.055 47.2408 128.935 46.0408 128.235C44.8408 127.545 43.8508 126.525 43.0808 125.185L27.0708 97.5853L26.5508 96.6853L10.0308 106.105C9.25076 106.555 8.26079 106.425 7.06079 105.735C5.86079 105.045 4.87083 104.025 4.10083 102.685C3.32083 101.345 2.93066 99.9853 2.93066 98.6053C2.93066 97.2253 3.32083 96.3253 4.10083 95.8753L20.5107 86.5153C21.4707 85.9753 22.5708 85.8253 23.8008 86.0953C24.6508 86.2653 25.5708 86.6353 26.5508 87.2053C28.9508 88.5953 30.9708 90.6853 32.5908 93.4853L33.1008 94.3553L49.0107 121.805C49.7807 123.145 50.1707 124.505 50.1707 125.885Z" stroke="currentColor" stroke-linejoin="round"/>
    <path d="M70.1707 115.885C70.1707 117.265 69.7807 118.175 69.0107 118.615L68.7808 118.725L49.0107 128.615C49.7807 128.175 50.1707 127.265 50.1707 125.885C50.1707 124.505 49.7807 123.145 49.0107 121.805L33.1008 94.3552L32.5908 93.4851C30.9708 90.6851 28.9508 88.5951 26.5508 87.2051C25.5708 86.6351 24.6508 86.2652 23.8008 86.0952C22.5708 85.8252 21.4707 85.9751 20.5107 86.5151L40.5107 76.5151C42.1407 75.5951 44.1508 75.8251 46.5508 77.2051C48.9508 78.5951 50.9708 80.6851 52.5908 83.4851L69.0107 111.805C69.7807 113.145 70.1707 114.505 70.1707 115.885Z" stroke="currentColor" stroke-linejoin="round"/>
    <path d="M50.1707 42.2652C50.1707 43.4552 49.8808 44.2852 49.3108 44.7752C49.2208 44.8652 49.1207 44.9353 49.0107 44.9953L32.5908 54.3553C30.9708 55.2753 28.9508 55.0453 26.5508 53.6653C24.1508 52.2753 22.1407 50.1853 20.5107 47.3853L4.10083 19.0653C3.32083 17.7253 2.93066 16.3652 2.93066 14.9852C2.93066 13.6052 3.32083 12.7053 4.10083 12.2553L4.33081 12.1452C5.06081 11.8452 5.98079 12.0153 7.06079 12.6353C8.26079 13.3253 9.25076 14.3453 10.0308 15.6853L26.5508 44.1853L40.0107 36.5152L43.0808 34.7652L43.3408 34.6353C44.0708 34.3553 44.9708 34.5253 46.0408 35.1353C47.2408 35.8353 48.2307 36.8453 49.0107 38.1853C49.7807 39.5253 50.1707 40.8852 50.1707 42.2652Z" stroke="currentColor" stroke-linejoin="round"/>
    <path d="M70.1707 32.2652C70.1707 33.6452 69.7807 34.5552 69.0107 34.9952L52.5908 44.3552L32.5908 54.3552L49.0107 44.9952C49.1207 44.9352 49.2208 44.8652 49.3108 44.7752C49.8808 44.2852 50.1707 43.4552 50.1707 42.2652C50.1707 40.8852 49.7807 39.5252 49.0107 38.1852C48.2307 36.8452 47.2408 35.8352 46.0408 35.1352C44.9708 34.5252 44.0708 34.3552 43.3408 34.6352L46.0308 33.2852L63.0808 24.7652C63.8508 24.3152 64.8408 24.4452 66.0408 25.1352C67.2408 25.8352 68.2307 26.8452 69.0107 28.1852C69.7807 29.5252 70.1707 30.8852 70.1707 32.2652Z" stroke="currentColor" stroke-linejoin="round"/>
    <path d="M27.0713 97.5853L10.0312 106.105L26.5513 96.6853L27.0713 97.5853Z" stroke="currentColor" stroke-linejoin="round"/>
    <path d="M46.031 33.2853L43.3411 34.6353L43.0811 34.7653L40.011 36.5153L26.551 44.1853L10.031 15.6853C9.25101 14.3453 8.26104 13.3253 7.06104 12.6353C5.98104 12.0153 5.06105 11.8453 4.33105 12.1453L24.1011 2.25531C24.8711 1.81531 25.861 1.94532 27.061 2.63532C28.261 3.32532 29.251 4.34531 30.031 5.68531L46.031 33.2853Z" stroke="currentColor" stroke-linejoin="round"/>
</svg>