<svg width="24" height="24" viewBox="0 0 94 127" fill="none" xmlns="http://www.w3.org/2000/svg" stroke-width="1px" stroke-linecap="round" stroke-linejoin="round">
    <path d="M35.5801 46.1476L34.9199 46.4776C34.7799 46.5476 34.65 46.6176 34.51 46.6976L35.8301 46.0376C35.7501 46.0676 35.6601 46.1076 35.5801 46.1476Z"      stroke="currentColor" stroke-linejoin="round"/>
    <path d="M71.3601 116.197V122.137C71.3601 123.257 71.0201 124.007 70.3601 124.387C69.7001 124.767 68.8799 124.667 67.8999 124.107L54.1001 116.137C53.1201 115.567 52.3002 114.717 51.6402 113.577C50.9802 112.437 50.6499 111.307 50.6499 110.177V105.227C48.3999 103.077 46.3901 100.607 44.6101 97.8273C42.8201 95.0573 41.4102 92.1473 40.3802 89.1073C39.9202 87.8473 39.9202 86.8573 40.3802 86.1373C40.5802 85.8173 40.8301 85.5673 41.1201 85.4073C41.1801 85.3773 41.2401 85.3573 41.3001 85.3273L41.42 85.2673C41.72 85.1573 42.07 85.1173 42.45 85.1473C43.25 85.2173 44.0601 85.7173 44.8601 86.6473C45.6701 87.5673 46.3 88.6274 46.76 89.8174C47.68 92.2674 48.9501 94.5174 50.5601 96.5674C52.1701 98.6174 53.9201 100.197 55.8201 101.287L66.18 107.267C67.62 108.097 68.8401 109.377 69.8501 111.117C70.8501 112.857 71.3601 114.547 71.3601 116.197Z"      stroke="currentColor" stroke-linejoin="round"/>
    <path d="M57.55 70.5978C57.55 71.7178 57.2201 72.4678 56.5601 72.8478C55.9001 73.2278 55.0801 73.1278 54.1001 72.5678C52.2001 71.4678 50.57 71.3078 49.22 72.0778C47.87 72.8478 47.1899 74.3278 47.1899 76.5078C47.1899 77.6278 46.86 78.3778 46.2 78.7478C45.54 79.1278 44.72 79.0378 43.74 78.4678C42.76 77.9078 41.94 77.0578 41.28 75.9078C40.62 74.7678 40.29 73.6378 40.29 72.5178C40.29 69.8378 40.8001 67.6778 41.8301 66.0678C42.4701 65.0478 43.3101 64.2578 44.3501 63.6678L45 63.3478C46.08 62.8578 47.24 62.6578 48.48 62.7378C50.19 62.8378 52.0701 63.4778 54.1001 64.6478C55.0801 65.2078 55.9001 66.0678 56.5601 67.2078C57.2201 68.3478 57.55 69.4778 57.55 70.5978Z"      stroke="currentColor" stroke-linejoin="round"/>
    <path d="M57.55 54.7575C57.55 55.8775 57.2201 56.6275 56.5601 57.0075C55.9001 57.3875 55.0801 57.2875 54.1001 56.7275L53.47 56.3675C50.98 55.0175 48.65 54.1875 46.49 53.8975C43.89 53.5475 41.5399 53.9775 39.4299 55.1875C35.3999 57.4775 33.3901 61.9275 33.3901 68.5275C33.3901 69.6575 33.0599 70.4075 32.3999 70.7775C31.7299 71.1575 30.9099 71.0675 29.9399 70.4975C28.9599 69.9375 28.14 69.0775 27.48 67.9375C26.82 66.7975 26.48 65.6675 26.48 64.5475C26.48 55.6975 29.16 49.7575 34.51 46.6975L35.8301 46.0375C39.2901 44.5075 43.2201 44.4376 47.6001 45.8476C49.6601 46.5076 51.8301 47.4975 54.1001 48.8075C54.4901 49.0275 54.86 49.2976 55.2 49.6276C55.71 50.0976 56.1601 50.6775 56.5601 51.3575C57.2201 52.5075 57.55 53.6375 57.55 54.7575Z"      stroke="currentColor" stroke-linejoin="round"/>
    <path d="M19.5801 24.9176C19.5801 27.0976 18.91 28.5676 17.55 29.3376C16.2 30.1076 14.5799 29.9476 12.6799 28.8476C11.6299 28.2476 10.66 27.4476 9.79004 26.4576C9.06004 25.6676 8.40005 24.7476 7.80005 23.7076C6.45005 21.3776 5.77002 19.1176 5.77002 16.9476C5.77002 14.7776 6.45005 13.2876 7.80005 12.5176L8.22998 12.3076C9.48998 11.7876 10.9799 12.0176 12.6799 13.0076C14.5799 14.1076 16.2 15.8176 17.55 18.1476C18.27 19.3776 18.8001 20.5976 19.1301 21.7876C19.4301 22.8476 19.5801 23.8876 19.5801 24.9176Z"      stroke="currentColor" stroke-linejoin="round"/>
    <path d="M91.3601 106.198V112.138C91.3601 113.258 91.0201 114.008 90.3601 114.388L90.1599 114.488L70.3601 124.388C71.0201 124.008 71.3601 123.258 71.3601 122.138V116.198C71.3601 114.548 70.8501 112.858 69.8501 111.118C68.8401 109.378 67.6199 108.098 66.1799 107.268L55.8201 101.288C53.9201 100.198 52.1701 98.6176 50.5601 96.5676C48.9501 94.5176 47.68 92.2676 46.76 89.8176C46.3 88.6276 45.6701 87.5676 44.8601 86.6476C44.0601 85.7176 43.25 85.2176 42.45 85.1476C42.07 85.1176 41.7199 85.1576 41.4199 85.2676L41.3 85.3276C41.24 85.3576 41.1801 85.3776 41.1201 85.4076L61.1499 75.3876L61.27 75.3276C61.61 75.1776 62 75.1176 62.45 75.1476C63.25 75.2176 64.0601 75.7176 64.8601 76.6476C65.4501 77.3176 65.9401 78.0676 66.3401 78.8776L61.25 81.4276L56.5601 83.7776L56.1301 83.9876C54.7701 84.7576 54.1001 86.2276 54.1001 88.4076C54.1001 90.5876 54.7701 92.8476 56.1301 95.1776C57.4801 97.5076 59.1 99.2176 61 100.318C62.9 101.418 64.5201 101.578 65.8801 100.808L70.6499 98.4276L80.04 93.7277L86.1799 97.2676C87.6199 98.0976 88.8401 99.3776 89.8501 101.118C90.8501 102.858 91.3601 104.548 91.3601 106.198Z"      stroke="currentColor" stroke-linejoin="round"/>
    <path d="M67.05 67.6074C66.9 68.1374 66.61 68.5174 66.2 68.7474L65.99 68.8474L46.2 78.7474C46.86 78.3774 47.1899 77.6274 47.1899 76.5074C47.1899 74.3274 47.87 72.8474 49.22 72.0774C50.57 71.3074 52.2001 71.4674 54.1001 72.5674C55.0801 73.1274 55.9001 73.2274 56.5601 72.8474L64.5601 68.8474H64.5701L67.05 67.6074Z"      stroke="currentColor" stroke-linejoin="round"/>
    <path d="M33.8201 40.9577C33.0401 42.6577 31.9701 43.9277 30.6101 44.7377L29.5 45.2977C27.61 46.0477 25.45 46.1877 23.03 45.7177V50.6677C23.03 51.7977 22.7 52.5477 22.04 52.9177C21.38 53.2977 20.5601 53.2077 19.5801 52.6377L5.77002 44.6677C4.80002 44.1077 3.98007 43.2477 3.32007 42.1077C2.65007 40.9677 2.32007 39.8377 2.32007 38.7177V32.7777C2.32007 31.1277 2.83008 30.0077 3.83008 29.4377C4.84008 28.8677 6.06 28.9877 7.5 29.8177L17.8601 35.7977C19.7501 36.8977 21.5101 37.3477 23.1201 37.1577C24.5801 36.9877 25.7601 36.3177 26.6401 35.1677C26.7401 35.0577 26.8299 34.9277 26.9199 34.7977C27.1499 34.4677 27.43 34.1977 27.75 34.0077L28.03 33.8677C28.27 33.7577 28.5301 33.6977 28.8101 33.6577C29.6201 33.5677 30.4501 33.9277 31.3201 34.7577C32.2901 35.6577 33.0401 36.7177 33.5601 37.9377C33.7801 38.4677 33.93 38.9577 33.99 39.4077C34.07 39.9877 34.0101 40.5077 33.8201 40.9577Z"      stroke="currentColor" stroke-linejoin="round"/>
    <path d="M41.51 27.1376L28.03 33.8676L27.75 34.0076C27.43 34.1976 27.1499 34.4676 26.9199 34.7976C26.8299 34.9276 26.7401 35.0576 26.6401 35.1676C25.7601 36.3176 24.5801 36.9876 23.1201 37.1576C21.5101 37.3476 19.7501 36.8976 17.8601 35.7976L7.5 29.8176C6.06 28.9876 4.84008 28.8676 3.83008 29.4376L9.79004 26.4576C10.66 27.4476 11.6299 28.2476 12.6799 28.8476C14.5799 29.9476 16.2 30.1076 17.55 29.3376L22.3201 26.9576L31.72 22.2576L37.8601 25.7976C39.1401 26.5476 40.36 26.9876 41.51 27.1376Z"      stroke="currentColor" stroke-linejoin="round"/>
    <path d="M67.8999 96.3773C67.8999 98.5573 67.2301 100.037 65.8801 100.807C64.5201 101.577 62.9 101.417 61 100.317C59.1 99.2173 57.4801 97.5073 56.1301 95.1773C54.7701 92.8473 54.1001 90.5873 54.1001 88.4073C54.1001 86.2273 54.7701 84.7573 56.1301 83.9873L56.5601 83.7773C57.8201 83.2573 59.3 83.4873 61 84.4773C62.23 85.1773 63.3301 86.1473 64.3201 87.3673C64.8801 88.0373 65.4001 88.7873 65.8801 89.6173C65.9501 89.7273 66.0101 89.8473 66.0601 89.9573C67.2901 92.1673 67.8999 94.3173 67.8999 96.3773Z"      stroke="currentColor" stroke-linejoin="round"/>
    <path d="M87.8999 86.3777C87.8999 88.5577 87.2301 90.0377 85.8801 90.8077L85.45 91.0177L80.04 93.7277L70.6499 98.4277L65.8801 100.808C67.2301 100.038 67.8999 98.5577 67.8999 96.3777C67.8999 94.3177 67.2901 92.1677 66.0601 89.9577C66.0101 89.8477 65.9501 89.7277 65.8801 89.6177C65.4001 88.7877 64.8801 88.0377 64.3201 87.3677C63.3301 86.1477 62.23 85.1777 61 84.4777C59.3 83.4877 57.8201 83.2577 56.5601 83.7777L61.25 81.4277L66.3401 78.8777L76.1301 73.9877C77.4801 73.2177 79.1 73.3777 81 74.4777C82.9 75.5677 84.5201 77.2877 85.8801 79.6177C87.2301 81.9477 87.8999 84.2077 87.8999 86.3777Z"      stroke="currentColor" stroke-linejoin="round"/>
    <path d="M77.55 60.5975C77.55 61.7175 77.2201 62.4675 76.5601 62.8475L76.3601 62.9475L67.05 67.5975L64.5701 68.8475H64.5601L56.5601 72.8475C57.2201 72.4675 57.55 71.7175 57.55 70.5975C57.55 69.4775 57.2201 68.3474 56.5601 67.2074C55.9001 66.0674 55.0801 65.2074 54.1001 64.6474C52.0701 63.4774 50.19 62.8375 48.48 62.7375C47.24 62.6575 46.08 62.8575 45 63.3475L50.3101 60.6875L53.3401 59.1774L64.3501 53.6675C67.0501 52.1275 70.3001 52.4574 74.1001 54.6474C75.0801 55.2074 75.9001 56.0674 76.5601 57.2074C77.2201 58.3474 77.55 59.4775 77.55 60.5975Z"      stroke="currentColor" stroke-linejoin="round"/>
    <path d="M53.47 56.3676C53.42 57.0576 53.3901 57.7776 53.3901 58.5276C53.3901 58.7576 53.3801 58.9676 53.3401 59.1676L50.3101 60.6876L45 63.3476L44.3501 63.6676C43.3101 64.2576 42.4701 65.0476 41.8301 66.0576L32.3999 70.7776C33.0599 70.4076 33.3901 69.6576 33.3901 68.5276C33.3901 61.9276 35.3999 57.4776 39.4299 55.1876C41.5399 53.9776 43.89 53.5476 46.49 53.8976C48.65 54.1876 50.98 55.0176 53.47 56.3676Z"      stroke="currentColor" stroke-linejoin="round"/>
    <path d="M77.55 44.7575C77.55 45.8775 77.2201 46.6275 76.5601 47.0075L76.3601 47.1075L56.5601 57.0075C57.2201 56.6275 57.55 55.8775 57.55 54.7575C57.55 53.6375 57.2201 52.5075 56.5601 51.3575C56.1601 50.6775 55.71 50.0975 55.2 49.6275C54.86 49.2975 54.4901 49.0275 54.1001 48.8075C51.8301 47.4975 49.6601 46.5075 47.6001 45.8475C43.2201 44.4375 39.2901 44.5075 35.8301 46.0375L54.51 36.6975C59.86 33.6475 66.3901 34.3475 74.1001 38.8075C75.0801 39.3675 75.9001 40.2175 76.5601 41.3575C77.2201 42.5075 77.55 43.6375 77.55 44.7575Z"      stroke="currentColor" stroke-linejoin="round"/>
    <path d="M43.03 38.5474V40.6674C43.03 41.7974 42.7 42.5474 42.04 42.9174L41.8301 43.0174L35.5801 46.1474L34.9199 46.4774L22.04 52.9174C22.7 52.5474 23.03 51.7974 23.03 50.6674V45.7174C25.45 46.1874 27.61 46.0474 29.5 45.2974L30.6101 44.7374L37.3801 41.3674L43.03 38.5474Z"      stroke="currentColor" stroke-linejoin="round"/>
    <path d="M53.8201 30.9575C52.9901 32.7775 51.8201 34.1075 50.3101 34.9175L49.74 35.1975L43.03 38.5475L37.3801 41.3675L30.6101 44.7375C31.9701 43.9275 33.0401 42.6575 33.8201 40.9575C34.0101 40.5075 34.07 39.9875 33.99 39.4075C33.93 38.9575 33.7801 38.4675 33.5601 37.9375C33.0401 36.7175 32.2901 35.6575 31.3201 34.7575C30.4501 33.9275 29.6201 33.5675 28.8101 33.6575C28.5301 33.6975 28.27 33.7575 28.03 33.8675L41.51 27.1375H41.52L47.6599 24.0675L47.6899 24.0475C48.0099 23.8375 48.3901 23.7075 48.8101 23.6575C49.6201 23.5675 50.4501 23.9275 51.3201 24.7575C52.2901 25.6575 53.0401 26.7175 53.5601 27.9375C54.0801 29.1575 54.1601 30.1675 53.8201 30.9575Z"      stroke="currentColor" stroke-linejoin="round"/>
    <path d="M50.4299 34.8574L50.3101 34.9174" stroke="currentColor" stroke-linejoin="round"/>
    <path d="M48 23.8975L47.6899 24.0475" stroke="currentColor" stroke-linejoin="round"/>
    <path d="M39.5801 14.9175C39.5801 17.0975 38.91 18.5675 37.55 19.3375L37.1201 19.5475L31.72 22.2575L22.3201 26.9575L17.55 29.3375C18.91 28.5675 19.5801 27.0975 19.5801 24.9175C19.5801 23.8875 19.4301 22.8475 19.1301 21.7875C18.8001 20.5975 18.27 19.3775 17.55 18.1475C16.2 15.8175 14.5799 14.1075 12.6799 13.0075C10.9799 12.0175 9.48998 11.7875 8.22998 12.3075L27.8 2.51748C29.15 1.74748 30.7799 1.90747 32.6799 3.00747C34.5799 4.10747 36.2 5.81747 37.55 8.14747C38.91 10.4775 39.5801 12.7375 39.5801 14.9175Z"      stroke="currentColor" stroke-linejoin="round"/>
</svg>