<svg width="48" height="48" viewBox="0 0 75 120" fill="none" xmlns="http://www.w3.org/2000/svg" stroke-width="1px" stroke-linecap="round" stroke-linejoin="round"><path d="M39.8496 117.26C39.6296 117.45 39.3796 117.57 39.0996 117.63L39.8496 117.26Z" stroke="#229EFF" stroke-linejoin="round"/><path d="M51.65 59.7399C52.46 61.1199 52.86 62.4999 52.86 63.8599C52.86 65.2199 52.46 66.1299 51.65 66.5899C50.85 67.0499 49.86 66.9299 48.67 66.2499L44.3801 63.7699C44.3201 64.5199 44.22 65.2499 44.1 65.9399C43.82 67.6599 43.3801 69.1999 42.7701 70.5499C41.7001 72.9899 40.12 74.8499 38.04 76.1099C37.88 76.2099 37.72 76.2999 37.55 76.3999L37.04 76.6599C32.71 78.7699 27.5101 78.0699 21.4401 74.5599L18.4 72.8099L39.7701 110.63C41.0201 112.87 41.29 114.77 40.55 116.31C40.36 116.72 40.12 117.04 39.85 117.26L39.1 117.63H39.0801C38.4401 117.77 37.65 117.57 36.73 117.04C36.17 116.72 35.63 116.29 35.11 115.75C34.58 115.2 34.1101 114.57 33.6901 113.85L7.93005 68.1999C7.58005 67.5999 7.30003 66.9399 7.09003 66.2199C6.88003 65.4999 6.77008 64.8199 6.77008 64.1699V61.2899C6.77008 59.9299 7.18004 59.0199 7.98004 58.5599L8.23004 58.4399C8.98004 58.1299 9.90002 58.2899 10.96 58.8999L21.4401 64.9499C25.1401 67.0799 28.3301 67.5499 31.0201 66.3299C31.4301 66.1499 31.81 65.9299 32.16 65.6899C34.17 64.3399 35.4101 62.0599 35.8901 58.8699L26.7701 53.6099L22.65 51.2299L6.77008 42.0599C5.59008 41.3699 4.59004 40.3399 3.79004 38.9499C2.99004 37.5699 2.58008 36.1999 2.58008 34.8299C2.58008 33.4599 2.99004 32.5599 3.79004 32.0999L4.04004 31.9799C4.79004 31.6799 5.71008 31.8299 6.77008 32.4399L34.6301 48.5299C33.4501 45.0399 31.68 41.7199 29.35 38.5699C27.01 35.4099 24.3701 32.9899 21.4401 31.2999L13.9901 26.9999L6.77008 22.8299C5.59008 22.1399 4.59004 21.1099 3.79004 19.7199C2.99004 18.3399 2.58008 16.9699 2.58008 15.5999C2.58008 14.2299 2.99004 13.3299 3.79004 12.8699L4.04004 12.7499C4.79004 12.4499 5.71008 12.5999 6.77008 13.2099L22.92 22.5299L23.16 22.6699L48.67 37.3999C49.86 38.0899 50.85 39.1199 51.65 40.5099C52.46 41.8899 52.86 43.2699 52.86 44.6299C52.86 45.5599 52.67 46.2799 52.29 46.7899C52.12 47.0199 51.91 47.2099 51.65 47.3599C50.85 47.8199 49.86 47.6999 48.67 47.0199L39.2401 41.5799C40.2201 43.4999 41.09 45.4899 41.86 47.5299C42.63 49.5799 43.2201 51.6499 43.6401 53.7299L48.67 56.6299C48.82 56.7199 48.96 56.8099 49.11 56.8999H49.1201C50.1101 57.5899 50.95 58.5299 51.65 59.7399Z" stroke="#229EFF" stroke-linejoin="round"/><path d="M62.48 61.1799C61.24 63.6799 59.43 65.4999 57.04 66.6599L44.2001 73.0799L38.0601 76.1499L38.04 76.1099C40.12 74.8499 41.7001 72.9899 42.7701 70.5499C43.3801 69.1999 43.82 67.6599 44.1 65.9399C44.22 65.2499 44.3201 64.5199 44.3801 63.7699L48.67 66.2499C49.86 66.9299 50.85 67.0499 51.65 66.5899L62.48 61.1799Z" stroke="#229EFF" stroke-linejoin="round"/><path d="M72.86 34.6299C72.86 35.9899 72.46 36.8999 71.65 37.3599L71.4 37.4799L52.5201 46.9199L52.29 46.7899C52.67 46.2799 52.86 45.5599 52.86 44.6299C52.86 43.2699 52.46 41.8899 51.65 40.5099C50.85 39.1199 49.86 38.0899 48.67 37.3999L23.16 22.6699L22.92 22.5299L6.77008 13.2099C5.71008 12.5999 4.79004 12.4499 4.04004 12.7499L23.79 2.86993C24.59 2.41993 25.5901 2.52992 26.7701 3.20992L68.67 27.3999C69.86 28.0899 70.85 29.1199 71.65 30.5099C72.46 31.8899 72.86 33.2699 72.86 34.6299Z" stroke="#229EFF" stroke-linejoin="round"/><path d="M35.8905 58.8699C35.4105 62.0599 34.1705 64.3399 32.1605 65.6899C31.8105 65.9299 31.4305 66.1499 31.0205 66.3299C28.3305 67.5499 25.1405 67.0799 21.4405 64.9499L10.9604 58.8999C9.90045 58.2899 8.98047 58.1299 8.23047 58.4399L22.6505 51.2299L26.7705 53.6099L35.8905 58.8699Z" stroke="#229EFF" stroke-linejoin="round"/><path d="M34.6301 48.5299L6.77008 32.4399C5.71008 31.8299 4.79004 31.6799 4.04004 31.9799L13.9901 26.9999L21.4401 31.2999C24.3701 32.9899 27.01 35.4099 29.35 38.5699C31.68 41.7199 33.4501 45.0399 34.6301 48.5299Z" stroke="#229EFF" stroke-linejoin="round"/><path d="M63.6403 43.73L54.7202 48.19L43.6403 53.73C43.2203 51.65 42.6302 49.58 41.8602 47.53C41.0902 45.49 40.2202 43.5 39.2402 41.58L48.6702 47.02C49.8602 47.7 50.8502 47.82 51.6502 47.36L52.5203 46.92L63.1403 41.61C63.3303 42.32 63.5003 43.02 63.6403 43.73Z" stroke="#229EFF" stroke-linejoin="round"/><path d="M72.8596 53.8599C72.8596 55.2199 72.4596 56.1299 71.6496 56.5899L71.3996 56.7099L62.4796 61.1699L51.6496 66.5899C52.4596 66.1299 52.8596 65.2199 52.8596 63.8599C52.8596 62.4999 52.4596 61.1199 51.6496 59.7399C50.9496 58.5299 50.1096 57.5899 49.1196 56.8999H49.1096C48.9596 56.8099 48.8196 56.7199 48.6696 56.6299L43.6396 53.7299L54.7196 48.1899L63.6396 43.7299L68.6696 46.6299C69.8596 47.3199 70.8496 48.3499 71.6496 49.7399C72.4596 51.1199 72.8596 52.4999 72.8596 53.8599Z" stroke="#229EFF" stroke-linejoin="round"/><path d="M60.5504 106.31C60.2704 106.91 59.9004 107.31 59.4504 107.52L39.8504 117.26C40.1204 117.04 40.3604 116.72 40.5504 116.31C41.2904 114.77 41.0204 112.87 39.7704 110.63L18.4004 72.8099L21.4404 74.5599C27.5104 78.0699 32.7104 78.7699 37.0404 76.6599L37.5504 76.3999L38.0604 76.1499L44.2004 73.0799L59.7704 100.63C61.0204 102.87 61.2904 104.77 60.5504 106.31Z" stroke="#229EFF" stroke-linejoin="round"/></svg>