<svg width="24" height="24" viewBox="0 0 92 119" fill="none" xmlns="http://www.w3.org/2000/svg" stroke-width="1px" stroke-linecap="round" stroke-linejoin="round">
    <path d="M24.5896 50.0827C23.7796 48.6927 22.7796 47.6527 21.5896 46.9627C20.5196 46.3527 19.5996 46.1927 18.8496 46.5027L18.5996 46.6227C17.7896 47.0827 17.3896 47.9927 17.3896 49.3627C17.3896 50.7327 17.7896 52.1027 18.5996 53.4927C19.3996 54.8827 20.3996 55.9227 21.5896 56.6127C22.7796 57.3027 23.7796 57.4127 24.5896 56.9527C25.3896 56.4927 25.7997 55.5827 25.7997 54.2127C25.7997 52.8427 25.3896 51.4727 24.5896 50.0827Z" stroke="currentColor" stroke-linejoin="round"/>
    <path d="M40.1602 58.4922L39.8701 58.6422C39.9701 58.6022 40.0801 58.5622 40.1901 58.5422C40.1901 58.5222 40.1802 58.5022 40.1602 58.4922Z" stroke="currentColor" stroke-linejoin="round"/>
    <path d="M60.4299 78.1029C60.1299 79.0229 59.7598 79.8929 59.3198 80.6929C59.0898 81.1229 58.8398 81.5229 58.5798 81.9129L55.5698 83.6329L35.5698 93.6329L39.2499 91.5329C40.0199 91.0129 40.4198 90.1029 40.4598 88.7929C40.4898 87.4829 40.0899 86.1029 39.2499 84.6529C38.4099 83.2029 37.4299 82.1629 36.3099 81.5129C35.2999 80.9329 34.4099 80.8029 33.6299 81.1329L53.3599 71.2629C54.1999 70.7829 55.1799 70.8629 56.3099 71.5129C57.4299 72.1629 58.4099 73.2029 59.2499 74.6529C59.9399 75.8529 60.3399 77.0029 60.4299 78.1029Z" stroke="currentColor" stroke-linejoin="round"/>
    <path d="M46.8201 66.3525C46.8201 67.7225 46.4101 68.6325 45.6101 69.0925C44.8001 69.5525 43.8001 69.4325 42.6101 68.7525C41.4201 68.0625 40.4201 67.0225 39.6201 65.6325C39.5001 65.4225 39.3802 65.2125 39.2902 65.0025C39.2702 64.9725 39.2501 64.9425 39.2401 64.9125C38.6801 63.7625 38.4102 62.6225 38.4102 61.5025C38.4102 60.1325 38.8101 59.2225 39.6201 58.7625L39.8701 58.6425C39.9701 58.6025 40.0801 58.5625 40.1901 58.5425C40.8801 58.3825 41.6901 58.5625 42.6101 59.1025C43.8001 59.7925 44.8001 60.8325 45.6101 62.2225C46.4101 63.6025 46.8201 64.9825 46.8201 66.3525Z" stroke="currentColor" stroke-linejoin="round"/>
    <path d="M42.9396 47.7727L36.1196 51.1927L29.9896 54.2527L24.5896 56.9527C25.3896 56.4927 25.7997 55.5827 25.7997 54.2127C25.7997 52.8427 25.3896 51.4727 24.5896 50.0827C23.7796 48.6927 22.7796 47.6527 21.5896 46.9627C20.5196 46.3527 19.5996 46.1927 18.8496 46.5027L25.4896 43.1827L26.3796 42.7327L26.5297 42.7627C28.7997 43.1427 30.9297 43.2027 32.9297 42.9327C34.6297 42.7127 36.2296 42.2527 37.7296 41.5427C38.2496 41.3227 38.7496 41.0527 39.2496 40.7627C40.2496 42.9027 41.3296 44.9927 42.4996 47.0327C42.6496 47.2827 42.7896 47.5227 42.9396 47.7727Z" stroke="currentColor" stroke-linejoin="round"/>
    <path d="M40.1602 58.4923L39.8701 58.6423L39.6201 58.7623C38.8101 59.2223 38.4102 60.1323 38.4102 61.5023C38.4102 62.6223 38.6801 63.7623 39.2401 64.9123C39.2401 64.9423 39.2702 64.9723 39.2902 65.0023L20.0101 74.6423C20.7901 74.2023 21.1901 73.3423 21.2201 72.0823C21.2601 70.8123 20.7902 69.4123 19.8002 67.8823C17.1402 63.6923 15.0201 59.2523 13.4501 54.5623C11.8701 49.8723 11.0801 45.3223 11.0801 40.8923C11.0801 40.0123 11.1201 39.1923 11.1901 38.4223C11.2601 37.6623 11.3601 36.8823 11.5001 36.0723C16.2401 39.4023 20.8402 41.5523 25.2802 42.5123C25.6502 42.6023 26.0101 42.6723 26.3801 42.7323L25.4901 43.1823L18.8501 46.5023L18.6001 46.6223C17.7901 47.0823 17.3901 47.9923 17.3901 49.3623C17.3901 50.7323 17.7901 52.1023 18.6001 53.4923C19.4001 54.8823 20.4001 55.9223 21.5901 56.6123C22.7801 57.3023 23.7801 57.4123 24.5901 56.9523L29.9901 54.2523L36.1201 51.1923C37.2001 53.4923 38.4302 55.7223 39.8002 57.8823C39.9302 58.0823 40.0602 58.2923 40.1602 58.4923Z" stroke="currentColor" stroke-linejoin="round"/>
    <path d="M69.9398 74.8828C69.9398 80.6628 68.9398 85.4128 66.9398 89.1328C66.7898 89.4028 66.6399 89.6728 66.4899 89.9328C64.9199 92.5928 62.9498 94.6628 60.5798 96.1628C60.2098 96.4028 59.8299 96.6228 59.4299 96.8328L58.7999 97.1528C58.5199 97.2728 58.2398 97.3528 57.9498 97.3928C57.1098 97.5028 56.2699 97.2628 55.4299 96.6528C54.3099 95.8428 53.3699 94.7828 52.5999 93.4528C51.8299 92.1228 51.4199 90.8028 51.3899 89.4928C51.3499 88.1928 51.8299 87.2928 52.8099 86.8128C54.2499 86.2028 55.5299 85.3528 56.6599 84.2628C57.3599 83.5728 57.9998 82.7928 58.5798 81.9128C58.8398 81.5228 59.0898 81.1228 59.3198 80.6928C59.7598 79.8928 60.1299 79.0228 60.4299 78.1028C61.2699 75.6428 61.6299 72.7528 61.5299 69.4228C59.4799 67.8328 57.4899 66.0728 55.5499 64.1228C53.3199 61.9128 51.1598 59.4728 49.0798 56.8028C48.5598 56.1428 48.0499 55.4628 47.5599 54.7928C45.8899 52.5228 44.3498 50.1828 42.9398 47.7728C42.7898 47.5228 42.6499 47.2828 42.4999 47.0328C41.3299 44.9928 40.2499 42.9028 39.2499 40.7628C38.7499 41.0528 38.2499 41.3228 37.7299 41.5428C36.2299 42.2528 34.6299 42.7128 32.9299 42.9328C30.9299 43.2028 28.7999 43.1428 26.5299 42.7628L26.3799 42.7328C26.0099 42.6728 25.6499 42.6028 25.2799 42.5128C20.8399 41.5528 16.2399 39.4028 11.4999 36.0728C11.3599 36.8828 11.2598 37.6628 11.1898 38.4228C11.1198 39.1928 11.0798 40.0128 11.0798 40.8928C11.0798 45.3228 11.8698 49.8728 13.4498 54.5628C15.0198 59.2528 17.1399 63.6928 19.7999 67.8828C20.7899 69.4128 21.2598 70.8128 21.2198 72.0828C21.1898 73.3428 20.7899 74.2028 20.0099 74.6428C19.2399 75.0728 18.2999 75.0528 17.1799 74.5628C16.0599 74.0828 14.9399 72.9528 13.8099 71.1828C10.3799 65.5828 7.66992 59.7728 5.66992 53.7528C3.66992 47.7328 2.66992 41.8328 2.66992 36.0428C2.66992 25.2728 5.92983 18.0228 12.4498 14.3128L14.0099 13.5328C17.3699 12.0228 21.0799 11.6628 25.1499 12.4428C28.6099 13.0928 32.3299 14.5728 36.3099 16.8728C42.9399 20.7028 48.8698 25.9928 54.0698 32.7428C56.2298 35.5328 58.2599 38.5728 60.1599 41.8628C61.9299 44.9128 63.4599 47.9428 64.7399 50.9528C65.5299 52.7828 66.2198 54.6028 66.8198 56.4128C68.8998 62.6428 69.9398 68.8028 69.9398 74.8828Z" stroke="currentColor" stroke-linejoin="round"/>
    <path d="M89.9397 64.8824C89.9397 70.6624 88.9397 75.4124 86.9397 79.1324C84.9497 82.8424 82.2298 85.5124 78.7998 87.1524L69.5697 91.7624L60.6598 96.2124L59.4298 96.8324C59.8298 96.6224 60.2097 96.4024 60.5797 96.1624C62.9497 94.6624 64.9197 92.5924 66.4897 89.9324C66.6397 89.6724 66.7897 89.4024 66.9397 89.1324C68.9397 85.4124 69.9397 80.6624 69.9397 74.8824C69.9397 68.8024 68.8997 62.6424 66.8197 56.4124C66.2197 54.6024 65.5297 52.7824 64.7397 50.9524C63.4597 47.9424 61.9298 44.9124 60.1598 41.8624C58.2598 38.5724 56.2297 35.5324 54.0697 32.7424C48.8697 25.9924 42.9398 20.7024 36.3098 16.8724C32.3298 14.5724 28.6098 13.0924 25.1498 12.4424C21.0798 11.6624 17.3698 12.0224 14.0098 13.5324L32.4497 4.31239C38.9597 0.592391 46.9198 1.44239 56.3098 6.87239C65.6898 12.2924 73.6498 20.6224 80.1598 31.8624C86.6798 43.1024 89.9397 54.1024 89.9397 64.8824Z" stroke="currentColor" stroke-linejoin="round"/>
    <path d="M73.1204 98.5828C73.1204 99.9528 72.7204 100.863 71.9104 101.323L71.6604 101.443L51.9104 111.323C52.5004 110.993 52.8704 110.423 53.0204 109.613C53.0904 109.303 53.1204 108.963 53.1204 108.583C53.1204 107.223 52.7204 105.843 51.9104 104.453C51.1104 103.063 50.1104 102.023 48.9204 101.333L35.5703 93.6328L55.5703 83.6328L56.6604 84.2628C55.5304 85.3528 54.2504 86.2028 52.8104 86.8128C51.8304 87.2928 51.3504 88.1928 51.3904 89.4928C51.4204 90.8028 51.8303 92.1228 52.6003 93.4528C53.3703 94.7828 54.3104 95.8428 55.4304 96.6528C56.2704 97.2628 57.1103 97.5028 57.9503 97.3928C58.2403 97.3528 58.5204 97.2728 58.8004 97.1528L59.4304 96.8328L60.6604 96.2128L69.5703 91.7628C70.4803 92.4228 71.2604 93.3228 71.9104 94.4528C72.7204 95.8428 73.1204 97.2228 73.1204 98.5828Z" stroke="currentColor" stroke-linejoin="round"/>
    <path d="M46.8201 66.352C46.8201 64.982 46.4101 63.602 45.6101 62.222C44.8001 60.832 43.8001 59.792 42.6101 59.102C41.6901 58.562 40.8801 58.382 40.1901 58.542C40.1901 58.522 40.1802 58.502 40.1602 58.492L47.5602 54.792C48.0502 55.462 48.5601 56.142 49.0801 56.802C51.1601 59.472 53.3202 61.912 55.5502 64.122L45.6101 69.092C46.4101 68.632 46.8201 67.722 46.8201 66.352Z" stroke="currentColor" stroke-linejoin="round"/>
    <path d="M53.1199 108.582C53.1199 108.962 53.0899 109.302 53.0199 109.602C52.8699 110.422 52.4999 110.992 51.9099 111.322C51.2699 111.692 50.5099 111.692 49.6099 111.312H49.5999C49.3799 111.232 49.1499 111.122 48.9199 110.982L35.5698 103.272L39.2499 109.622C40.0199 111.032 40.4198 112.412 40.4598 113.752C40.4898 115.102 40.0899 116.012 39.2499 116.492C38.4099 116.972 37.4299 116.892 36.3099 116.242C35.1799 115.592 34.1999 114.552 33.3599 113.102L22.4299 94.2421C21.5899 92.7921 21.1699 91.4221 21.1699 90.1421C21.1699 88.8621 21.5899 87.9721 22.4299 87.4921L33.3599 81.2621L33.6299 81.1321C34.4099 80.8021 35.2999 80.9321 36.3099 81.5121C37.4299 82.1621 38.4099 83.2021 39.2499 84.6521C40.0899 86.1021 40.4898 87.4821 40.4598 88.7921C40.4198 90.1021 40.0199 91.0121 39.2499 91.5321L35.5698 93.6321L48.9199 101.332C50.1099 102.022 51.1099 103.062 51.9099 104.452C52.7199 105.842 53.1199 107.222 53.1199 108.582Z" stroke="currentColor" stroke-linejoin="round"/>
    <path d="M40.4603 113.752C40.4203 112.412 40.0204 111.032 39.2504 109.622L35.5703 103.272L48.9204 110.982C49.1504 111.122 49.3803 111.232 49.6003 111.312L39.2504 116.492C40.0904 116.012 40.4903 115.102 40.4603 113.752Z" stroke="currentColor" stroke-linejoin="round"/>
</svg>