<svg width="24" height="24" viewBox="0 0 101 127" fill="none" xmlns="http://www.w3.org/2000/svg" stroke-width="1px" stroke-linecap="round" stroke-linejoin="round">
    <path d="M26.4602 39.1901C26.4602 42.9701 25.2702 45.5202 22.9102 46.8302C20.5402 48.1502 17.6802 47.8401 14.3302 45.9101C10.9202 43.9401 8.0502 40.9401 5.71021 36.9101C3.37021 32.8701 2.2002 28.9601 2.2002 25.1901C2.2002 22.9301 2.59018 21.2001 3.37018 20.0001C4.15018 18.7901 5.98018 17.1301 8.87018 15.0201L11.7302 12.9901C11.8202 12.9201 11.9202 12.8601 12.0202 12.8101C12.1102 12.7701 12.2102 12.7302 12.3102 12.7002C12.8902 12.5302 13.5602 12.6601 14.3302 13.1001C15.3702 13.7001 16.2402 14.6701 16.9302 15.9901L19.7902 21.4201C22.7302 27.0301 24.5802 30.8501 25.3302 32.8801C26.0802 34.9001 26.4602 37.0101 26.4602 39.1901Z" stroke="currentColor" stroke-linejoin="round"/>
    <path d="M48.7402 54.46L48.4502 54.6C48.5602 54.56 48.6702 54.5301 48.7902 54.5101C48.7802 54.4801 48.7602 54.47 48.7402 54.46Z" stroke="currentColor" stroke-linejoin="round"/>
    <path d="M62.05 28.0601V47.8001L55.1201 51.2701L48.7401 54.46L48.4501 54.6001L48.2501 54.7002C47.5801 55.0802 47.2501 55.84 47.2501 56.96V71.2401L42.05 73.84V38.0601C42.05 37.8001 42.0301 37.5501 42.0001 37.2901C42.0001 37.2801 42.0001 37.2601 41.9901 37.2501C41.8701 36.3901 41.5601 35.5201 41.0601 34.6501C40.3901 33.5001 39.5701 32.6502 38.5901 32.0802C37.7101 31.5702 36.9501 31.4402 36.3301 31.7002L46.29 26.71L56.1201 21.8001C56.7801 21.4201 57.6101 21.5102 58.5901 22.0802C59.5701 22.6502 60.3901 23.5001 61.0601 24.6501C61.7201 25.7901 62.05 26.9301 62.05 28.0601Z" stroke="currentColor" stroke-linejoin="round"/>
    <path d="M71.5106 85.2501V90.85L66.3105 87.85L71.5106 85.2501Z" stroke="currentColor" stroke-linejoin="round"/>
    <path d="M98.4399 76.9V104.74C98.4399 109.11 97.0799 112.07 94.3699 113.62L74.3699 123.62C77.0799 122.07 78.4399 119.11 78.4399 114.74V86.9C78.4399 85.77 78.1099 84.64 77.4399 83.49C77.2499 83.17 77.05 82.87 76.83 82.59C76.3 81.89 75.6799 81.33 74.9699 80.92C74.0899 80.42 73.34 80.28 72.71 80.54L86.3099 73.74L92.4999 70.64C93.1699 70.26 93.9899 70.36 94.9699 70.92C95.9599 71.49 96.7799 72.35 97.4399 73.49C98.1099 74.64 98.4399 75.77 98.4399 76.9Z" stroke="currentColor" stroke-linejoin="round"/>
    <path d="M59.3797 78.2501V83.85L54.1797 80.85L59.3797 78.2501Z" stroke="currentColor" stroke-linejoin="round"/>
    <path d="M74.1802 50.96V58.7801L67.2502 62.2501L62.9802 64.3801L60.5803 65.5802L60.3802 65.6801C59.7102 66.0601 59.3802 66.8202 59.3802 67.9402V78.2501L54.1802 80.8501V60.96C54.1802 59.84 53.8502 58.7001 53.1902 57.5601C52.5202 56.4101 51.7002 55.5501 50.7202 54.9901C49.9802 54.5701 49.3402 54.4101 48.7902 54.5101C48.7802 54.4801 48.7602 54.47 48.7402 54.46L55.1202 51.2701L62.0502 47.8001L68.2502 44.7002C68.9102 44.3302 69.7302 44.4201 70.7202 44.9901C71.7002 45.5501 72.5202 46.4101 73.1902 47.5601C73.8502 48.7001 74.1802 49.84 74.1802 50.96Z" stroke="currentColor" stroke-linejoin="round"/>
    <path d="M86.3101 61.9402V73.7401L72.7101 80.5401L72.5001 80.6401C71.8401 81.0201 71.5101 81.7701 71.5101 82.9001V85.2501L66.3101 87.8501V71.9402C66.3101 70.8202 65.9801 69.6801 65.3101 68.5401C64.6501 67.3901 63.8301 66.5301 62.8401 65.9701C61.9601 65.4601 61.2101 65.3302 60.5801 65.5802L62.98 64.3801L67.2501 62.2501L74.1801 58.7801L80.3801 55.6801C81.0401 55.3101 81.8601 55.4001 82.8401 55.9701C83.8301 56.5301 84.6501 57.3901 85.3101 58.5401C85.9801 59.6801 86.3101 60.8202 86.3101 61.9402Z" stroke="currentColor" stroke-linejoin="round"/>
    <path d="M78.4402 86.9001V114.74C78.4402 119.11 77.0802 122.07 74.3702 123.62C71.6502 125.17 68.3902 124.84 64.5802 122.64L48.6402 113.43C46.6202 112.27 44.6802 110.67 42.8302 108.64C40.9802 106.61 39.4002 104.32 38.0702 101.77L20.3902 67.9001C19.7602 66.6101 19.4802 65.4401 19.5702 64.3901C19.6302 63.7401 19.8202 63.2401 20.1502 62.9001C20.3502 62.6901 20.6101 62.5401 20.9101 62.4401L21.2201 62.36L22.4701 62.0401C23.6301 61.7201 24.9302 61.9401 26.3702 62.7001C27.8202 63.4701 29.1401 64.6701 30.3601 66.3001L35.1202 72.5301V34.0501C35.1202 32.9301 35.4502 32.1701 36.1202 31.8001L36.3302 31.7001C36.9502 31.4401 37.7102 31.5701 38.5902 32.0801C39.5702 32.6501 40.3902 33.5001 41.0602 34.6501C41.5602 35.5201 41.8701 36.3901 41.9901 37.2501C42.0001 37.2601 42.0002 37.2801 42.0002 37.2901C42.0302 37.5501 42.0501 37.8001 42.0501 38.0601V73.84L47.2502 76.85V71.2401L47.3302 71.2001L47.2502 71.0401V56.96C47.2502 55.84 47.5802 55.0801 48.2502 54.7001L48.4502 54.6C48.5602 54.56 48.6701 54.5301 48.7901 54.5101C49.3401 54.4101 49.9801 54.5701 50.7201 54.9901C51.7001 55.5501 52.5202 56.4101 53.1902 57.5601C53.8502 58.7001 54.1802 59.84 54.1802 60.96V80.85L59.3802 83.85V67.9401C59.3802 66.8201 59.7102 66.0601 60.3802 65.6801L60.5802 65.5801C61.2102 65.3301 61.9602 65.46 62.8402 65.97C63.8302 66.53 64.6502 67.3901 65.3102 68.5401C65.9802 69.6801 66.3102 70.8201 66.3102 71.9401V87.85L71.5102 90.85V82.9001C71.5102 81.7701 71.8402 81.0201 72.5002 80.6401L72.7102 80.5401C73.3402 80.2801 74.0901 80.4201 74.9701 80.9201C75.6801 81.3301 76.3002 81.89 76.8302 82.59C77.0502 82.87 77.2502 83.1701 77.4402 83.4901C78.1102 84.6401 78.4402 85.7701 78.4402 86.9001Z" stroke="currentColor" stroke-linejoin="round"/>
    <path d="M47.33 71.2001L47.25 71.2401V71.0401L47.33 71.2001Z" stroke="currentColor" stroke-linejoin="round"/>
    <path d="M47.2498 71.2401V76.85L42.0498 73.84L47.2498 71.2401Z" stroke="currentColor" stroke-linejoin="round"/>
    <path d="M35.1198 55.36V72.5301L30.3597 66.3001C29.1397 64.6701 27.8198 63.4701 26.3698 62.7001C24.9298 61.9401 23.6297 61.7201 22.4697 62.0401L21.2197 62.36L35.1198 55.36Z" stroke="currentColor" stroke-linejoin="round"/>
    <path d="M46.2905 26.71L36.3305 31.7001L36.1205 31.8001C35.4505 32.1701 35.1205 32.9301 35.1205 34.0501V40.73L22.9105 46.8301C25.2705 45.5201 26.4605 42.9701 26.4605 39.1901C26.4605 37.0101 26.0805 34.9001 25.3305 32.8801C24.5805 30.8501 22.7305 27.0301 19.7905 21.4201L16.9305 15.9901C16.2405 14.6701 15.3705 13.7 14.3305 13.1C13.5605 12.66 12.8905 12.5301 12.3105 12.7001C12.2105 12.7301 12.1105 12.7701 12.0205 12.8101L32.0005 2.82007C32.6405 2.49007 33.4205 2.5801 34.3305 3.1001C35.3705 3.7001 36.2405 4.67006 36.9305 5.99006L39.7905 11.4201C42.7305 17.0301 44.5805 20.8501 45.3305 22.8801C45.7905 24.1201 46.1105 25.4 46.2905 26.71Z" stroke="currentColor" stroke-linejoin="round"/>
</svg>