<svg width="24" height="24" viewBox="0 0 91 120" fill="none" xmlns="http://www.w3.org/2000/svg" stroke-width="1px" stroke-linecap="round" stroke-linejoin="round">
    <path d="M33.1202 75.5051C33.1202 76.4951 32.8302 77.1551 32.2502 77.4851C31.6702 77.8151 30.9502 77.7351 30.0902 77.2351L27.0602 75.4851C26.2002 74.9951 25.4803 74.2451 24.9003 73.2451C24.3203 72.2351 24.0303 71.2451 24.0303 70.2651C24.0303 69.2851 24.3203 68.6151 24.9003 68.2851L25.0802 68.1951C25.6302 67.9751 26.2902 68.0851 27.0602 68.5351L30.0902 70.2851C30.9502 70.7751 31.6702 71.5251 32.2502 72.5251C32.8302 73.5251 33.1202 74.5251 33.1202 75.5051Z" stroke="currentColor" stroke-linejoin="round"/>
    <path d="M67.3503 112.305L61.2904 101.855C62.0004 100.985 62.5304 99.9652 62.8804 98.7752C63.2404 97.5852 63.4104 96.2452 63.4104 94.7352C63.4104 90.3952 62.0903 85.9352 59.4403 81.3652C56.7903 76.7852 53.5704 73.4052 49.7804 71.2252C48.9004 70.7152 48.0503 70.3052 47.2303 69.9952C44.8803 69.1152 42.7903 69.0452 40.9503 69.7952L40.1204 70.2052C39.9804 70.2852 39.8403 70.3752 39.7103 70.4552C38.2603 71.4252 37.2503 72.8552 36.6903 74.7652C36.6303 74.9452 36.5804 75.1452 36.5404 75.3352C36.2804 76.4252 36.1504 77.6452 36.1504 78.9952C36.1504 82.4852 37.0003 86.0352 38.7103 89.6752C39.1303 90.5652 39.6004 91.4652 40.1204 92.3752C42.7704 96.9452 45.9904 100.325 49.7804 102.505C51.0904 103.265 52.3503 103.795 53.5703 104.085C54.7803 104.385 55.9403 104.445 57.0503 104.275L63.1104 114.725C63.6604 115.685 64.3703 116.405 65.2303 116.905C66.0903 117.405 66.8003 117.485 67.3503 117.175C67.9103 116.855 68.1803 116.205 68.1803 115.225C68.1803 114.245 67.9103 113.265 67.3503 112.305ZM55.1604 96.1452C53.6904 96.9752 51.9004 96.7852 49.7804 95.5552C47.6604 94.3352 45.8704 92.4552 44.4004 89.9352C43.9204 89.1052 43.5203 88.2752 43.2103 87.4552C42.5403 85.7852 42.2103 84.1252 42.2103 82.4952C42.2103 81.6052 42.3104 80.8252 42.5104 80.1552C42.8404 78.9752 43.4704 78.1252 44.4004 77.5952C45.8704 76.7552 47.6604 76.9552 49.7804 78.1752C51.0704 78.9152 52.2404 79.9052 53.2804 81.1352C53.9604 81.9252 54.5904 82.8152 55.1604 83.7952C56.6204 86.3252 57.3503 88.8052 57.3503 91.2352C57.3503 93.6652 56.6204 95.3052 55.1604 96.1452Z" stroke="currentColor" stroke-linejoin="round"/>
    <path d="M88.1799 105.225C88.1799 106.205 87.91 106.855 87.35 107.175L87.1799 107.255L67.35 117.175C67.91 116.855 68.1799 116.205 68.1799 115.225C68.1799 114.245 67.91 113.265 67.35 112.305L61.29 101.855L76.2999 94.345H76.3099L81.29 91.855L87.35 102.305C87.91 103.265 88.1799 104.235 88.1799 105.225Z" stroke="currentColor" stroke-linejoin="round"/>
    <path d="M57.35 91.2351C57.35 93.6751 56.62 95.3051 55.16 96.1451C53.69 96.9751 51.9 96.7851 49.78 95.5551C47.66 94.3351 45.87 92.4552 44.4 89.9352C43.92 89.1052 43.52 88.2751 43.21 87.4551C42.54 85.7851 42.21 84.1252 42.21 82.4952C42.21 81.6052 42.31 80.8252 42.51 80.1552C42.84 78.9752 43.47 78.1251 44.4 77.5951C45.87 76.7551 47.66 76.9551 49.78 78.1751C51.07 78.9151 52.24 79.9051 53.28 81.1351C53.96 81.9251 54.59 82.8151 55.16 83.7951C56.62 86.3251 57.35 88.8051 57.35 91.2351Z" stroke="currentColor" stroke-linejoin="round"/>
    <path d="M33.1904 91.6751C33.4004 90.8351 33.2704 89.8751 32.8104 88.8051C32.4104 87.7551 31.8304 86.9051 31.0704 86.2351C30.3204 85.5651 29.6104 85.2751 28.9504 85.3551C28.2504 85.4751 27.4805 85.4351 26.6405 85.2351C25.8105 85.0451 24.9405 84.6951 24.0305 84.1651C21.5005 82.7051 19.3605 80.4551 17.5905 77.4051C15.8205 74.3551 14.9404 71.3851 14.9404 68.4851V37.2051L28.8805 45.2451L33.1205 47.6951V50.2751L28.8805 52.3951L25.0804 54.2951L24.9005 54.3851C24.3205 54.7151 24.0305 55.3751 24.0305 56.3551C24.0305 57.3351 24.3205 58.3351 24.9005 59.3351C25.4805 60.3351 26.2004 61.0851 27.0604 61.5851L30.3705 63.4851L32.2805 64.5951L31.0305 65.2251L25.0804 68.1951L24.9005 68.2851C24.3205 68.6151 24.0305 69.2751 24.0305 70.2651C24.0305 71.2551 24.3205 72.2351 24.9005 73.2451C25.4805 74.2451 26.2004 74.9951 27.0604 75.4851L30.0905 77.2351C30.9505 77.7351 31.6705 77.8151 32.2505 77.4851L36.5405 75.3451C36.2805 76.4251 36.1505 77.6451 36.1505 78.9951C36.1505 82.4851 37.0004 86.0351 38.7104 89.6751L32.7405 92.6151C32.9505 92.3851 33.1004 92.0651 33.1904 91.6751Z" stroke="currentColor" stroke-linejoin="round"/>
    <path d="M52.8401 63.845L48.2201 66.1551L40.9501 69.795L40.1201 70.205C39.9801 70.285 39.8401 70.375 39.7101 70.455C38.2601 71.425 37.2501 72.855 36.6901 74.765C36.6301 74.945 36.5802 75.1451 36.5402 75.3351L32.2501 77.485C32.8301 77.155 33.1201 76.495 33.1201 75.505C33.1201 74.515 32.8301 73.5251 32.2501 72.5251C31.6701 71.5251 30.9501 70.775 30.0901 70.285L27.0601 68.535C26.2901 68.085 25.6301 67.975 25.0801 68.195L31.0302 65.225L32.2802 64.595L33.1201 65.075C34.4901 65.875 35.6901 66.105 36.7401 65.785C36.9701 65.715 37.1901 65.625 37.4001 65.505L44.3401 62.035L49.05 59.6851L50.0901 60.285C50.9501 60.775 51.6701 61.5251 52.2501 62.5251C52.5101 62.9651 52.7001 63.405 52.8401 63.845Z" stroke="currentColor" stroke-linejoin="round"/>
    <path d="M33.1201 50.2749V58.1249L28.9001 55.6849L27.0601 54.6249C26.2901 54.1849 25.6301 54.0749 25.0801 54.2949L28.8801 52.3949L33.1201 50.2749Z" stroke="currentColor" stroke-linejoin="round"/>
    <path d="M45.2404 40.7849V47.745C45.2404 48.415 45.1704 49.005 45.0204 49.525C44.7504 50.485 44.2303 51.185 43.4603 51.625C42.2703 52.305 40.8403 52.1549 39.1803 51.1949V61.625C39.1803 63.535 38.5804 64.8349 37.4004 65.5049C37.1904 65.6249 36.9704 65.7149 36.7404 65.7849C35.6904 66.1049 34.4904 65.875 33.1204 65.075L32.2804 64.5949L30.3704 63.485L27.0603 61.585C26.2003 61.085 25.4804 60.335 24.9004 59.335C24.3204 58.335 24.0304 57.3449 24.0304 56.3549C24.0304 55.3649 24.3204 54.7149 24.9004 54.3849L25.0803 54.295C25.6303 54.075 26.2903 54.185 27.0603 54.625L28.9004 55.685L33.1204 58.125V47.6949L28.8804 45.245L14.9403 37.205V68.485C14.9403 71.385 15.8203 74.355 17.5903 77.405C19.3603 80.455 21.5004 82.7049 24.0304 84.1649C24.9404 84.6949 25.8104 85.045 26.6404 85.235C27.4804 85.435 28.2503 85.4749 28.9503 85.3549C29.6103 85.2749 30.3203 85.565 31.0703 86.235C31.8303 86.905 32.4103 87.755 32.8103 88.805C33.2703 89.875 33.4003 90.835 33.1903 91.675C33.1003 92.065 32.9504 92.385 32.7404 92.615C32.5104 92.875 32.2103 93.0449 31.8303 93.1049C30.6703 93.2449 29.4404 93.1549 28.1604 92.8449C26.8704 92.5449 25.4904 91.965 24.0304 91.115C19.8404 88.695 16.2703 84.9449 13.3103 79.8449C10.3603 74.7549 8.88037 69.805 8.88037 64.995V33.705C7.22037 32.745 5.79034 31.2349 4.60034 29.1949C3.42034 27.1449 2.82031 25.1649 2.82031 23.2549V16.305C2.82031 14.385 3.42034 13.0949 4.60034 12.4149C5.79034 11.7449 7.22037 11.8849 8.88037 12.8449L28.8804 24.3849L34.9403 27.8849L39.1803 30.335C40.8403 31.295 42.2703 32.8049 43.4603 34.8549C44.6403 36.8949 45.2404 38.8749 45.2404 40.7849Z" stroke="currentColor" stroke-linejoin="round"/>
    <path d="M59.1803 43.7649V51.6249C59.1803 53.5349 58.5804 54.8349 57.4004 55.5049L49.0503 59.6849L44.3403 62.0349L37.4004 65.5049C38.5804 64.8349 39.1803 63.5349 39.1803 61.6249V51.1949C40.8403 52.1549 42.2703 52.3049 43.4603 51.6249L45.7303 50.4849L51.8904 47.4149L53.1204 46.7949L59.1803 43.7649Z" stroke="currentColor" stroke-linejoin="round"/>
    <path d="M83.4103 84.7351C83.4103 86.2451 83.2402 87.5851 82.8802 88.7751C82.5302 89.9651 82.0003 90.9851 81.2903 91.8551L76.3102 94.3451H76.3002L61.2903 101.855C62.0003 100.985 62.5302 99.9651 62.8802 98.7751C63.2402 97.5851 63.4103 96.2451 63.4103 94.7351C63.4103 90.3951 62.0902 85.9351 59.4402 81.3651C56.7902 76.7851 53.5703 73.4051 49.7803 71.2251C48.9003 70.7151 48.0502 70.3051 47.2302 69.9951C44.8802 69.1151 42.7902 69.0451 40.9502 69.7951L48.2202 66.1551L52.8402 63.8451L60.1202 60.2051C62.7702 58.6951 65.9903 59.0351 69.7803 61.2251C73.5703 63.4051 76.7902 66.7851 79.4402 71.3651C82.0902 75.9351 83.4103 80.3951 83.4103 84.7351Z" stroke="currentColor" stroke-linejoin="round"/>
    <path d="M32.7406 92.6147L32.6406 92.6647" stroke="currentColor" stroke-linejoin="round"/>
    <path d="M65.2406 30.7849V37.745C65.2406 39.655 64.6406 40.945 63.4606 41.625L59.1805 43.765L53.1206 46.795L51.8906 47.4149L45.7306 50.485L43.4606 51.625C44.2306 51.185 44.7506 50.485 45.0206 49.525C45.1706 49.005 45.2406 48.415 45.2406 47.745V40.7849C45.2406 38.8749 44.6406 36.8949 43.4606 34.8549C42.2706 32.8049 40.8405 31.295 39.1805 30.335L34.9406 27.8849L28.8806 24.3849L8.88062 12.8449C7.22062 11.8849 5.79059 11.7449 4.60059 12.4149L24.6006 2.41495C25.7906 1.74495 27.2206 1.88494 28.8806 2.84494L59.1805 20.335C60.8405 21.295 62.2706 22.8049 63.4606 24.8549C64.6406 26.8949 65.2406 28.8749 65.2406 30.7849Z" stroke="currentColor" stroke-linejoin="round"/>
</svg>