<svg viewBox="0 0 85 118" fill="none" xmlns="http://www.w3.org/2000/svg" height="48" width="48" stroke-width="1px"
     stroke-linecap="round" stroke-linejoin="round">
    <path d="M62.6801 66.5548C62.5701 65.9448 62.4301 65.3148 62.2501 64.6748C61.7901 63.0148 61.1101 61.3948 60.1901 59.8148L59.3101 58.3148L59.1701 58.0848L54.0901 49.4448L51.8201 45.6048L48.5901 40.1148C48.0401 39.2348 47.3801 38.5948 46.6201 38.1948C45.9401 37.8248 45.3701 37.7448 44.9001 37.9348L44.7501 38.0048C44.2001 38.3148 43.9301 38.8948 43.9301 39.7348C43.9301 40.2048 44.0101 40.6948 44.1901 41.1948C44.3201 41.5848 44.5101 41.9948 44.7501 42.4048L50.0101 51.4848L50.5101 52.3348C49.4701 52.1848 48.5501 52.2848 47.7501 52.6248L47.4501 52.7748C47.0101 53.0048 46.6201 53.3248 46.2601 53.7148C45.1901 54.8848 44.6601 56.5848 44.6601 58.8148C44.6601 60.8048 45.0701 62.8248 45.8801 64.8748C46.2601 65.8448 46.7401 66.8148 47.3101 67.7948C49.0701 70.8448 51.2401 73.1048 53.8001 74.5848C54.4701 74.9748 55.1101 75.2848 55.7101 75.5348C56.3201 75.7848 56.9001 75.8848 57.4501 75.8548V106.055C57.4501 107.245 57.1001 108.035 56.4001 108.435C55.7001 108.835 54.8301 108.735 53.8001 108.145C52.7601 107.545 51.8901 106.645 51.1901 105.435C50.4901 104.225 50.1401 103.025 50.1401 101.835V82.9548C50.1401 80.6548 49.4201 78.2648 47.9901 75.7948C46.5601 73.3248 44.8401 71.5048 42.8301 70.3448L39.1701 68.2348V38.8748C39.1701 38.6748 39.1701 38.4848 39.1501 38.2848C39.0401 36.1548 38.3401 33.9648 37.0301 31.7148C35.5901 29.2448 33.8701 27.4248 31.8601 26.2648L29.9301 25.1548L22.6201 20.9348L9.93011 13.6048C8.13011 12.5648 6.56012 12.3148 5.22012 12.8648L4.77011 13.0848C3.33011 13.9048 2.62012 15.4648 2.62012 17.7648V80.6948C2.62012 81.8748 2.9701 83.0748 3.6701 84.2848C4.3701 85.4948 5.24011 86.3948 6.27011 86.9948L35.5201 103.885C36.5501 104.475 37.4201 104.575 38.1201 104.175C38.8201 103.775 39.1701 102.985 39.1701 101.795V74.5348L44.6601 77.6948V98.6748C44.6601 99.3848 44.7101 100.105 44.8101 100.825C45.1401 103.065 45.9701 105.335 47.3101 107.645C49.0701 110.695 51.2401 112.955 53.8001 114.435C56.3501 115.915 58.5201 116.145 60.2801 115.135C62.0501 114.135 62.9301 112.155 62.9301 109.225V69.3748C62.9301 68.4748 62.8501 67.5348 62.6801 66.5548ZM31.8601 55.6248L22.6201 50.2948L9.93011 42.9648V21.9948L22.6201 29.3248L29.4001 33.2348L31.8601 34.6548V55.6248ZM56.4001 68.5848C55.7001 68.9848 54.8301 68.8848 53.8001 68.2948C52.7601 67.6948 51.8901 66.7848 51.1901 65.5848C50.6401 64.6248 50.3001 63.6748 50.1901 62.7248C50.1601 62.4748 50.1401 62.2348 50.1401 61.9848C50.1401 60.7948 50.4901 60.0048 51.1901 59.6048C51.8901 59.2048 52.7601 59.3048 53.8001 59.9048C54.1001 60.0748 54.3801 60.2748 54.6501 60.4948C55.3201 61.0448 55.9001 61.7548 56.4001 62.6148C57.1001 63.8148 57.4501 65.0148 57.4501 66.2048C57.4501 67.3948 57.1001 68.1848 56.4001 68.5848Z" stroke="currentColor" stroke-linejoin="round"/>
    <path d="M31.8597 34.6548V55.6248L22.6197 50.2948L9.92969 42.9648L22.6197 36.6248L29.3997 33.2348L31.8597 34.6548Z" stroke="currentColor" stroke-linejoin="round"/>
    <path d="M29.3997 33.2348L22.6197 36.6248L9.92969 42.9648V21.9948L22.6197 29.3248L29.3997 33.2348Z" stroke="currentColor" stroke-linejoin="round"/>
    <path d="M50.51 52.3348C49.47 52.1848 48.55 52.2848 47.75 52.6248L50.01 51.4848L50.51 52.3348Z" stroke="currentColor" stroke-linejoin="round"/>
    <path d="M44.8101 100.825L38.1201 104.175C38.8201 103.775 39.1701 102.985 39.1701 101.795V74.5348L44.6601 77.6948V98.6748C44.6601 99.3848 44.7101 100.105 44.8101 100.825Z" stroke="currentColor" stroke-linejoin="round"/>
    <path d="M82.9304 59.3748V99.2248C82.9304 102.155 82.0504 104.135 80.2804 105.135L79.7304 105.405L60.2804 115.135C62.0504 114.135 62.9304 112.155 62.9304 109.225V69.3748C62.9304 68.4748 62.8504 67.5348 62.6804 66.5548C62.5704 65.9448 62.4304 65.3148 62.2504 64.6748C61.7904 63.0148 61.1104 61.3948 60.1904 59.8148L59.3104 58.3148L59.1704 58.0848L54.0904 49.4448L51.8204 45.6048L48.5904 40.1148C48.0404 39.2348 47.3804 38.5948 46.6204 38.1948C45.9404 37.8248 45.3704 37.7448 44.9004 37.9348L51.8604 34.4548L59.1704 30.7948L64.7504 28.0048C65.2404 27.7248 65.8604 27.7848 66.6204 28.1948C67.3804 28.5948 68.0404 29.2348 68.5904 30.1148L80.1904 49.8148C81.1104 51.3948 81.7904 53.0148 82.2504 54.6748C82.7104 56.3348 82.9304 57.9048 82.9304 59.3748Z" stroke="currentColor" stroke-linejoin="round"/>
    <path d="M59.1697 28.8748V30.7948L51.8597 34.4548L44.8997 37.9348L44.7497 38.0048C44.1997 38.3148 43.9297 38.8948 43.9297 39.7348C43.9297 40.2048 44.0097 40.6948 44.1897 41.1948C44.3197 41.5848 44.5097 41.9948 44.7497 42.4048L50.0097 51.4848L47.7497 52.6248L47.4497 52.7748C47.0097 53.0048 46.6197 53.3248 46.2597 53.7148C45.1897 54.8848 44.6597 56.5848 44.6597 58.8148C44.6597 60.8048 45.0697 62.8248 45.8797 64.8748L39.1697 68.2348V38.8748C39.1697 38.6748 39.1697 38.4848 39.1497 38.2848C39.0397 36.1548 38.3397 33.9648 37.0297 31.7148C35.5897 29.2448 33.8697 27.4248 31.8597 26.2648L29.9297 25.1548L22.6198 20.9348L9.92972 13.6048C8.12972 12.5648 6.55973 12.3148 5.21973 12.8648L24.7697 3.08479C26.1997 2.26479 27.9197 2.44479 29.9297 3.60479L51.8597 16.2648C53.8697 17.4248 55.5897 19.2448 57.0297 21.7148C58.4597 24.1748 59.1697 26.5648 59.1697 28.8748Z" stroke="currentColor" stroke-linejoin="round"/>
    <path d="M57.4499 75.8548V106.055C57.4499 107.245 57.0999 108.035 56.3999 108.435C55.6999 108.835 54.8299 108.735 53.7999 108.145C52.7599 107.545 51.8899 106.645 51.1899 105.435C50.4899 104.225 50.1399 103.025 50.1399 101.835V82.9548C50.1399 80.6548 49.4199 78.2648 47.9899 75.7948C46.5599 73.3248 44.8399 71.5048 42.8299 70.3448L39.1699 68.2348L45.8799 64.8748C46.2599 65.8448 46.7399 66.8148 47.3099 67.7948C49.0699 70.8448 51.2399 73.1048 53.7999 74.5848C54.4699 74.9748 55.1099 75.2848 55.7099 75.5348C56.3199 75.7848 56.8999 75.8848 57.4499 75.8548Z" stroke="currentColor" stroke-linejoin="round"/>
    <path d="M57.4496 66.2048C57.4496 67.3948 57.0997 68.1848 56.3997 68.5848C55.6997 68.9848 54.8297 68.8848 53.7997 68.2948C52.7597 67.6948 51.8896 66.7848 51.1896 65.5848C50.6396 64.6248 50.2996 63.6748 50.1896 62.7248C50.1596 62.4748 50.1396 62.2348 50.1396 61.9848C50.1396 60.7948 50.4896 60.0048 51.1896 59.6048C51.8896 59.2048 52.7597 59.3048 53.7997 59.9048C54.0997 60.0748 54.3797 60.2748 54.6497 60.4948C55.3197 61.0448 55.8997 61.7548 56.3997 62.6148C57.0997 63.8148 57.4496 65.0148 57.4496 66.2048Z" stroke="currentColor" stroke-linejoin="round"/>
</svg>