<svg width="24" height="24" viewBox="0 0 96 116" fill="none" xmlns="http://www.w3.org/2000/svg" stroke-width="1px" stroke-linecap="round" stroke-linejoin="round">
    <path d="M71.8695 51.6297C70.4695 49.2097 68.7795 47.4297 66.7995 46.2897L47.2895 35.0297L33.0395 26.7897L22.2295 20.5497L9.40948 13.1497C7.62948 12.1297 6.09948 11.8897 4.77948 12.4197L4.33948 12.6397C2.93948 13.4397 2.22949 14.9797 2.22949 17.2397V66.6397C2.22949 68.8997 2.93948 71.2397 4.33948 73.6697C5.74948 76.0897 7.42948 77.8697 9.40948 79.0097L66.7995 112.15C68.7795 113.29 70.4695 113.46 71.8695 112.66C73.2795 111.86 73.9795 110.32 73.9795 108.06V58.6597C73.9795 56.3997 73.2795 54.0597 71.8695 51.6297ZM25.2395 48.6897C24.3495 49.1997 23.3395 49.3097 22.2295 49.0397C21.5795 48.8797 20.8895 48.5997 20.1695 48.1797C18.1995 47.0397 16.5095 45.2597 15.0995 42.8297C13.6995 40.4097 12.9895 38.0697 12.9895 35.7997C12.9895 33.5297 13.6995 32.0097 15.0995 31.2097C16.5095 30.3997 18.1995 30.5697 20.1695 31.7097C20.8895 32.1297 21.5795 32.6297 22.2295 33.2297C23.3395 34.2497 24.3495 35.5197 25.2395 37.0597C26.6395 39.4797 27.3395 41.8197 27.3395 44.0897C27.3395 46.3597 26.6395 47.8797 25.2395 48.6897Z" stroke="currentColor" stroke-linejoin="round"/>
    <path d="M27.3392 44.0899C27.3392 46.3499 26.6393 47.8798 25.2393 48.6898C24.3493 49.1998 23.3392 49.3099 22.2292 49.0399C21.5792 48.8799 20.8893 48.5998 20.1693 48.1798C18.1993 47.0398 16.5092 45.2599 15.0992 42.8299C13.6992 40.4099 12.9893 38.0698 12.9893 35.7998C12.9893 33.5298 13.6992 32.0099 15.0992 31.2099C16.5092 30.3999 18.1993 30.5699 20.1693 31.7099C20.8893 32.1299 21.5792 32.6299 22.2292 33.2299C23.3392 34.2499 24.3493 35.5198 25.2393 37.0598C26.6393 39.4798 27.3392 41.8199 27.3392 44.0899Z" stroke="currentColor" stroke-linejoin="round"/>
    <path d="M93.9793 48.6599V98.0598C93.9793 100.32 93.2793 101.86 91.8693 102.66L91.4293 102.88L71.8693 112.66C73.2793 111.86 73.9793 110.32 73.9793 108.06V58.6599C73.9793 56.3999 73.2793 54.0599 71.8693 51.6299C70.4693 49.2099 68.7793 47.4299 66.7993 46.2899L47.2893 35.0299L33.0393 26.7899L22.2293 20.5498L9.4093 13.1499C7.6293 12.1299 6.0993 11.8898 4.7793 12.4198L24.3393 2.63986C25.7493 1.83986 27.4293 2.00987 29.4093 3.14987L86.7993 36.2899C88.7793 37.4299 90.4693 39.2099 91.8693 41.6299C93.2793 44.0599 93.9793 46.3999 93.9793 48.6599Z" stroke="currentColor" stroke-linejoin="round"/>
</svg>