<svg width="48" height="48" viewBox="0 0 60 119" fill="none" xmlns="http://www.w3.org/2000/svg" stroke-width="1px" stroke-linecap="round" stroke-linejoin="round"><path d="M37.1602 58.9294V83.7794C37.1602 85.1794 36.7502 86.1194 35.9202 86.5994C35.0902 87.0694 34.0601 86.9493 32.8301 86.2493L31.1802 85.2994L28.5 83.7493V113.559C28.5 114.969 28.09 115.909 27.26 116.379C26.43 116.849 25.4002 116.739 24.1702 116.029L15.51 111.029C14.29 110.319 13.2602 109.249 12.4302 107.819C11.6002 106.389 11.1802 104.969 11.1802 103.559V73.7493L6.8501 71.2493C5.6301 70.5393 4.60002 69.4694 3.77002 68.0394C2.94002 66.5994 2.52002 65.1794 2.52002 63.7794V38.9294C2.52002 36.1994 3.37007 34.3493 5.07007 33.3793C6.76007 32.4193 8.80018 32.6193 11.1802 33.9893L22.52 40.5394L28.5 43.9893C30.88 45.3693 32.9201 47.5194 34.6201 50.4494C36.3201 53.3694 37.1602 56.1994 37.1602 58.9294Z" stroke="#229EFF" stroke-linejoin="round"/><path d="M48.5 80.3093V103.559C48.5 104.969 48.09 105.909 47.26 106.379L47.01 106.499L27.26 116.379C28.09 115.909 28.5 114.969 28.5 113.559V83.7493L31.1802 85.2993L32.8301 86.2493C34.0601 86.9493 35.0902 87.0694 35.9202 86.5994L48.5 80.3093Z" stroke="#229EFF" stroke-linejoin="round"/><path d="M57.1602 48.9293V73.7793C57.1602 75.1793 56.7502 76.1194 55.9202 76.5994L55.6702 76.7194L48.5 80.3093L35.9202 86.5994C36.7502 86.1194 37.1602 85.1793 37.1602 83.7793V58.9293C37.1602 56.1993 36.3201 53.3693 34.6201 50.4493C32.9201 47.5193 30.88 45.3693 28.5 43.9893L22.52 40.5393L11.1802 33.9893C8.80018 32.6193 6.76007 32.4193 5.07007 33.3793L14.4202 28.6993C15.9702 31.0593 17.7801 32.8293 19.8401 34.0293C20.7901 34.5693 21.68 34.9394 22.52 35.1094C23.79 35.3794 24.9402 35.2193 25.9602 34.6393L38.6401 28.2993L48.5 33.9893C50.88 35.3693 52.9201 37.5193 54.6201 40.4493C56.3201 43.3693 57.1602 46.1993 57.1602 48.9293Z" stroke="#229EFF" stroke-linejoin="round"/><path d="M48.5 19.0894C48.5 21.8194 47.6602 23.6693 45.9602 24.6393L38.6401 28.2994L25.9602 34.6393C27.6602 33.6693 28.5 31.8194 28.5 29.0894C28.5 27.0494 28.0301 24.9494 27.0801 22.7994C26.7601 22.0694 26.3902 21.3394 25.9602 20.5994C24.2602 17.6794 22.2201 15.5294 19.8401 14.1494C17.7101 12.9194 15.84 12.6294 14.26 13.2794L33.7302 3.53937C35.4202 2.56937 37.4601 2.77936 39.8401 4.14936C42.2201 5.52936 44.2602 7.67943 45.9602 10.5994C47.6602 13.5294 48.5 16.3594 48.5 19.0894Z" stroke="#229EFF" stroke-linejoin="round"/><path d="M28.5 29.0895C28.5 31.8195 27.6602 33.6695 25.9602 34.6395C24.9402 35.2195 23.79 35.3796 22.52 35.1096C21.68 34.9396 20.7901 34.5695 19.8401 34.0295C17.7801 32.8295 15.9702 31.0595 14.4202 28.6995C14.1802 28.3395 13.9502 27.9695 13.7302 27.5795C12.0302 24.6495 11.1802 21.8195 11.1802 19.0895C11.1802 16.3595 12.0302 14.5095 13.7302 13.5395L14.26 13.2795C15.84 12.6295 17.7101 12.9195 19.8401 14.1495C22.2201 15.5295 24.2602 17.6796 25.9602 20.5996C26.3902 21.3396 26.7601 22.0695 27.0801 22.7995C28.0301 24.9495 28.5 27.0495 28.5 29.0895Z" stroke="#229EFF" stroke-linejoin="round"/></svg>