<svg width="24" height="24" viewBox="0 0 100 112" fill="none" xmlns="http://www.w3.org/2000/svg" stroke-width="1px" stroke-linecap="round" stroke-linejoin="round">
    <path d="M38.1907 84.1399C38.1907 85.2899 37.8507 86.0599 37.1707 86.4499C36.5007 86.8399 35.6506 86.74 34.6506 86.16L27.5608 82.0699C20.6508 78.0799 14.7907 71.9299 9.98071 63.6299C5.17071 55.3299 2.76074 47.2199 2.76074 39.2899C2.76074 32.0399 4.84074 26.9199 9.01074 23.9399C9.56074 23.5499 10.1307 23.1999 10.7107 22.9099C10.7307 22.9099 10.7906 22.8699 10.9006 22.8199C10.9306 22.7999 10.9707 22.7899 11.0007 22.7699C14.4907 21.1299 18.6006 21.2599 23.3706 23.1199C23.7906 23.2899 24.2106 23.4699 24.6406 23.6599L23.6707 21.9299L21.4507 17.9599C21.3907 17.8499 21.3308 17.7399 21.2808 17.6299C20.7408 16.5599 20.4807 15.5299 20.4807 14.5499C20.4807 13.4699 20.8007 12.7399 21.4507 12.3699L21.6707 12.2599C22.3407 11.9799 23.1208 12.1099 24.0208 12.6299C24.9808 13.1899 25.7807 13.9899 26.4207 15.0499C26.4507 15.0899 26.4707 15.1399 26.5007 15.1799L26.8806 15.8399L32.0706 24.7999L35.7107 31.0699C36.4207 32.2899 36.7808 33.4499 36.7808 34.5299C36.7808 35.6099 36.4207 36.3599 35.7107 36.7599L30.5608 39.6999L26.5906 41.9699C26.0706 42.2599 25.4808 42.2999 24.8108 42.0699C24.5708 41.9999 24.3208 41.8799 24.0608 41.7299C23.0908 41.1599 22.2508 40.2699 21.5408 39.0499C20.8908 37.8599 20.5706 36.7099 20.5706 35.5899C20.5706 34.4699 20.8908 33.7299 21.5408 33.3599L22.9006 32.5799L24.2908 31.7899C23.7908 31.6099 23.3006 31.4599 22.8206 31.3399C19.2706 30.4299 16.3107 30.9199 13.9207 32.8199C11.2107 34.9799 9.85059 38.4999 9.85059 43.3799C9.85059 48.9999 11.5708 54.7899 15.0308 60.7499C18.4808 66.7099 22.6608 71.1099 27.5608 73.9399L34.6506 78.0299C35.6506 78.6099 36.5007 79.4799 37.1707 80.6499C37.8507 81.8299 38.1907 82.9899 38.1907 84.1399Z" stroke="currentColor" stroke-linejoin="round"/>
    <path d="M77.1707 49.7198V70.0498C77.1707 71.1998 76.8306 71.9698 76.1506 72.3598C75.4706 72.7498 74.6306 72.6498 73.6306 72.0698L72.3706 71.3398L65.2808 67.2498L54.9307 61.2798L48.8206 57.7498C47.8206 57.1698 46.9808 56.2898 46.3008 55.1198C45.6208 53.9498 45.2808 52.7898 45.2808 51.6398V31.3098C45.2808 30.1598 45.6208 29.3898 46.3008 28.9998L46.5107 28.8998C47.1507 28.6298 47.9206 28.7698 48.8206 29.2898L50.0408 29.9998L65.2808 38.7898L73.6306 43.6098C74.6306 44.1898 75.4706 45.0598 76.1506 46.2398C76.8306 47.4098 77.1707 48.5698 77.1707 49.7198Z" stroke="currentColor" stroke-linejoin="round"/>
    <path d="M97.1707 76.3098V96.6398C97.1707 97.7898 96.8306 98.5598 96.1506 98.9498L95.9407 99.0498L76.1506 108.95C76.8306 108.56 77.1707 107.79 77.1707 106.64V86.3098C77.1707 85.1598 76.8306 83.9998 76.1506 82.8298C75.4706 81.6598 74.6306 80.7798 73.6306 80.1998L71.2407 78.8198L65.2808 75.3798L57.2107 70.7198L48.8206 65.8798C47.9206 65.3598 47.1507 65.2298 46.5107 65.4898L48.5107 64.4898L54.9307 61.2798L65.2808 67.2498L72.3706 71.3398L73.6306 72.0698C74.6306 72.6498 75.4706 72.7498 76.1506 72.3598L79.9707 70.4498L87.5208 66.6698L93.6306 70.1998C94.6306 70.7798 95.4706 71.6598 96.1506 72.8298C96.8306 73.9998 97.1707 75.1598 97.1707 76.3098Z" stroke="currentColor" stroke-linejoin="round"/>
    <path d="M48.5107 64.49L46.5107 65.49L46.3008 65.59C45.6208 65.98 45.2808 66.75 45.2808 67.9V82.4L37.1707 86.45C37.8507 86.06 38.1907 85.29 38.1907 84.14C38.1907 82.99 37.8507 81.83 37.1707 80.65C36.5007 79.48 35.6506 78.61 34.6506 78.03L27.5608 73.94C22.6608 71.11 18.4808 66.71 15.0308 60.75C11.5708 54.79 9.85059 49 9.85059 43.38C9.85059 38.5 11.2107 34.98 13.9207 32.82C16.3107 30.92 19.2706 30.43 22.8206 31.34C23.3006 31.46 23.7908 31.61 24.2908 31.79L22.9006 32.58L21.5408 33.36C20.8908 33.73 20.5706 34.47 20.5706 35.59C20.5706 36.71 20.8908 37.86 21.5408 39.05C22.2508 40.27 23.0908 41.16 24.0608 41.73C24.3208 41.88 24.5708 42 24.8108 42.07C25.4808 42.3 26.0706 42.26 26.5906 41.97L30.6206 39.95C31.4306 43.49 32.9008 47.09 35.0308 50.75C38.4808 56.71 42.6608 61.11 47.5608 63.94L48.5107 64.49Z" stroke="currentColor" stroke-linejoin="round"/>
    <path d="M97.1707 39.72V60.05C97.1707 61.2 96.8306 61.97 96.1506 62.36L95.9407 62.46L87.5208 66.67L79.9707 70.45L76.1506 72.36C76.8306 71.97 77.1707 71.2 77.1707 70.05V49.72C77.1707 48.57 76.8306 47.41 76.1506 46.24C75.4706 45.06 74.6306 44.19 73.6306 43.61L65.2808 38.79L50.0408 30L48.8206 29.29C47.9206 28.77 47.1507 28.63 46.5107 28.9L56.7207 23.79L66.3008 19C66.9808 18.61 67.8206 18.71 68.8206 19.29L93.6306 33.61C94.6306 34.19 95.4706 35.06 96.1506 36.24C96.8306 37.41 97.1707 38.57 97.1707 39.72Z" stroke="currentColor" stroke-linejoin="round"/>
    <path d="M76.1506 82.8299C75.4706 81.6599 74.6306 80.7799 73.6306 80.1999L71.2407 78.8199L65.2808 75.3799L57.2107 70.7199L48.8206 65.8799C47.9206 65.3599 47.1507 65.2299 46.5107 65.4899L46.3008 65.5899C45.6208 65.9799 45.2808 66.7499 45.2808 67.8999V88.2299C45.2808 89.3799 45.6208 90.5399 46.3008 91.7199C46.9808 92.8899 47.8206 93.7599 48.8206 94.3399L73.6306 108.66C74.6306 109.24 75.4706 109.34 76.1506 108.95C76.8306 108.56 77.1707 107.79 77.1707 106.64V86.3099C77.1707 85.1599 76.8306 83.9999 76.1506 82.8299ZM70.0806 98.4799L52.3706 88.2599V76.0599L54.9607 77.5599L63.6907 82.5999L70.0806 86.2899V98.4799Z" stroke="currentColor" stroke-linejoin="round"/>
    <path d="M70.0806 86.2901V98.4801L52.3706 88.2601L63.6907 82.6001L70.0806 86.2901Z" stroke="currentColor" stroke-linejoin="round"/>
    <path d="M63.6907 82.6001L52.3706 88.2601V76.0601L54.9607 77.5601L63.6907 82.6001Z" stroke="currentColor" stroke-linejoin="round"/>
    <path d="M56.7209 23.79L46.511 28.9L46.301 29C45.621 29.39 45.281 30.16 45.281 31.31V32.63L30.6208 39.95L26.5908 41.97L30.561 39.7L35.7109 36.76C36.4209 36.36 36.781 35.62 36.781 34.53C36.781 33.44 36.4209 32.29 35.7109 31.07L32.0708 24.8L26.8809 15.84L26.501 15.18C26.501 15.18 26.4509 15.09 26.4209 15.05C25.7809 13.99 24.981 13.19 24.021 12.63C23.121 12.11 22.3409 11.98 21.6709 12.26L41.4509 2.37003C42.1609 1.96003 43.021 2.05003 44.021 2.63003C45.021 3.21003 45.851 4.06003 46.501 5.18003L55.7109 21.07C56.2609 22.01 56.6009 22.92 56.7209 23.79Z" stroke="currentColor" stroke-linejoin="round"/>
    <path d="M24.6409 23.6601C24.2109 23.4701 23.7908 23.2901 23.3708 23.1201C18.6008 21.2601 14.491 21.1301 11.001 22.7701C12.201 22.1701 16.801 19.8701 21.281 17.6301C21.331 17.7401 21.3909 17.8501 21.4509 17.9601L23.6709 21.9301L24.6409 23.6601Z" stroke="currentColor" stroke-linejoin="round"/>
</svg>