<svg width="24" height="24" viewBox="0 0 89 127" fill="none" xmlns="http://www.w3.org/2000/svg" stroke-width="1px" stroke-linecap="round" stroke-linejoin="round">
    <path d="M66.9495 121.734C66.9495 122.774 66.6395 123.474 66.0195 123.824C65.4095 124.174 64.6495 124.094 63.7395 123.564L5.97949 90.2138C5.06949 89.6938 4.29951 88.8938 3.68951 87.8338C3.06951 86.7738 2.76953 85.7238 2.76953 84.6838C2.76953 83.6438 3.06951 82.9438 3.68951 82.5938L3.87952 82.5038C4.45952 82.2638 5.15949 82.3738 5.97949 82.8538L63.7395 116.204C64.6495 116.724 65.4095 117.514 66.0195 118.574C66.6395 119.644 66.9495 120.694 66.9495 121.734Z" stroke="currentColor" stroke-linejoin="round"/>
    <path d="M47.6798 88.5238C47.6798 89.5638 47.3698 90.2638 46.7598 90.6138C46.1398 90.9638 45.3798 90.8838 44.4698 90.3538L34.8498 84.7938C33.9598 84.2738 33.1498 83.9938 32.3898 83.9138C31.8198 83.8638 31.2898 83.9338 30.7998 84.1538L31.8598 83.6138L38.6998 80.2038L39.1998 79.9438L44.4698 82.9938C45.1198 83.3638 45.6998 83.8738 46.1998 84.5338C46.3998 84.7938 46.5798 85.0738 46.7598 85.3738C47.3698 86.4338 47.6798 87.4838 47.6798 88.5238Z" stroke="currentColor" stroke-linejoin="round"/>
    <path d="M60.5294 95.3838V106.984C60.5294 108.024 60.2194 108.724 59.6094 109.074C58.9894 109.424 58.2295 109.334 57.3195 108.814L28.4395 92.1338V88.7338C28.4395 86.6438 29.0494 85.2038 30.2794 84.4138L30.8094 84.1538C31.2994 83.9338 31.8294 83.8638 32.3994 83.9138C33.1594 83.9938 33.9694 84.2738 34.8594 84.7938L44.4794 90.3538C45.3894 90.8838 46.1495 90.9638 46.7695 90.6138C47.3795 90.2638 47.6895 89.5638 47.6895 88.5238C47.6895 87.4838 47.3795 86.4338 46.7695 85.3738C46.5895 85.0738 46.4095 84.7938 46.2095 84.5338C45.7095 83.8738 45.1294 83.3638 44.4794 82.9938L39.2095 79.9438L39.1094 79.8938L34.8594 77.4338C33.5894 76.6938 32.3895 76.1938 31.2595 75.9038C29.1895 75.3938 27.3595 75.6138 25.7495 76.5938C25.0395 77.0238 24.4294 77.5638 23.9194 78.2138C22.6494 79.8138 22.0195 82.0838 22.0195 85.0238V88.4338L12.3895 82.8738C11.4795 82.3538 10.7194 81.5538 10.1094 80.4938C9.93944 80.1938 9.78942 79.8938 9.65942 79.6038C9.33942 78.8438 9.17944 78.0938 9.17944 77.3438V58.9238C7.41944 54.5938 6.05942 50.2938 5.08942 46.0238C4.12942 41.7538 3.64941 37.6938 3.64941 33.8238C3.64941 29.9538 4.05947 26.6338 4.88947 23.4938C5.71947 20.3538 6.69946 17.3538 7.81946 14.5038C8.13946 13.7438 8.58945 13.2038 9.18945 12.8838L9.22943 12.8638C9.43943 12.7538 9.66942 12.6738 9.90942 12.6238C10.8694 12.4138 11.9394 12.6538 13.1194 13.3338C14.7694 14.2838 16.1894 15.7538 17.3694 17.7138C18.5394 19.6838 19.0294 21.4938 18.8094 23.1538L17.9294 31.0238C17.6094 33.7838 17.8394 36.7038 18.6094 39.7938C19.3894 42.8738 20.5494 45.8638 22.0994 48.7538C23.6494 51.6438 25.5194 54.3238 27.7194 56.7838C28.1994 57.3238 28.6794 57.8338 29.1794 58.3238C30.9594 60.0938 32.8494 61.5438 34.8594 62.7038C37.7594 64.3738 40.6595 66.3738 43.5795 68.6838C43.8895 68.9238 44.2095 69.1738 44.5195 69.4338C46.5495 71.0938 48.4195 72.7738 50.1295 74.4938C50.1295 74.5038 50.1394 74.5038 50.1494 74.5138C51.1494 75.5238 52.0994 76.5538 52.9894 77.5938C55.3894 80.3938 57.2494 83.2638 58.5594 86.1938C58.8994 86.9438 59.1895 87.7138 59.4395 88.4838C59.8895 89.8638 60.1994 91.2738 60.3694 92.7138C60.4794 93.5938 60.5294 94.4838 60.5294 95.3838Z" stroke="currentColor" stroke-linejoin="round"/>
    <path d="M80.5295 85.3838V96.9838C80.5295 98.0238 80.2195 98.7238 79.6095 99.0738L79.4195 99.1638L75.2095 101.274L68.3695 104.694L59.6095 109.074C60.2195 108.724 60.5295 108.024 60.5295 106.984V95.3838C60.5295 94.4838 60.4795 93.5938 60.3695 92.7138C60.1995 91.2738 59.8895 89.8638 59.4395 88.4838C59.1895 87.7138 58.8995 86.9438 58.5595 86.1938C57.2495 83.2638 55.3895 80.3938 52.9895 77.5938C52.0995 76.5538 51.1495 75.5238 50.1495 74.5138C50.1395 74.5038 50.1295 74.5038 50.1295 74.4938C48.4195 72.7738 46.5495 71.0938 44.5195 69.4338C44.2095 69.1738 43.8895 68.9238 43.5795 68.6838C40.6595 66.3738 37.7595 64.3738 34.8595 62.7038C32.8495 61.5438 30.9595 60.0938 29.1795 58.3238C28.6795 57.8338 28.1995 57.3238 27.7195 56.7838C25.5195 54.3238 23.6495 51.6438 22.0995 48.7538C20.5495 45.8638 19.3895 42.8738 18.6095 39.7938C17.8395 36.7038 17.6095 33.7838 17.9295 31.0238L18.8095 23.1538C19.0295 21.4938 18.5395 19.6838 17.3695 17.7138C16.1895 15.7538 14.7695 14.2838 13.1195 13.3338C11.9395 12.6538 10.8695 12.4138 9.90948 12.6238C9.66948 12.6738 9.43949 12.7538 9.22949 12.8638L29.1895 2.88381C29.4095 2.76381 29.6495 2.6838 29.9095 2.6238C30.8695 2.4138 31.9395 2.65382 33.1195 3.33382C34.7695 4.28382 36.1895 5.75382 37.3695 7.71382C38.5395 9.68382 39.0295 11.4938 38.8095 13.1538L37.9295 21.0238C37.8695 21.5638 37.8295 22.0938 37.8195 22.6438L26.4295 28.3338C26.2095 28.4238 25.9995 28.5338 25.7895 28.6538C25.1195 29.0338 24.5395 29.5138 24.0495 30.0838C22.6995 31.6538 22.0195 33.9138 22.0195 36.8838C22.0195 40.9338 23.2795 45.1238 25.7895 49.4638C26.8295 51.2638 27.9595 52.8638 29.1795 54.2638C30.8995 56.2438 32.7995 57.8338 34.8595 59.0238C38.3895 61.0638 41.4095 61.3638 43.9195 59.9238L56.4495 53.6538C59.1295 55.3038 61.8195 57.2338 64.5195 59.4338C67.7595 62.0738 70.5795 64.7838 72.9895 67.5938C75.3895 70.3938 77.2495 73.2638 78.5595 76.1938C79.8695 79.1338 80.5295 82.1938 80.5295 85.3838Z" stroke="currentColor" stroke-linejoin="round"/>
    <path d="M47.6797 51.7038C47.6797 55.7538 46.4297 58.4938 43.9097 59.9238C41.3997 61.3638 38.3797 61.0638 34.8497 59.0238C32.7897 57.8338 30.8897 56.2438 29.1697 54.2638C27.9497 52.8638 26.8197 51.2638 25.7797 49.4638C23.2697 45.1238 22.0098 40.9338 22.0098 36.8838C22.0098 33.9138 22.6897 31.6538 24.0397 30.0838C24.5297 29.5138 25.1097 29.0338 25.7797 28.6538L26.4197 28.3338C28.7997 27.2838 31.6097 27.6938 34.8497 29.5638C36.5897 30.5738 38.2197 31.8738 39.7197 33.4438C41.2497 35.0438 42.6397 36.9338 43.9097 39.1238C45.2097 41.3638 46.1697 43.5638 46.7997 45.7238C47.3897 47.7438 47.6797 49.7438 47.6797 51.7038Z" stroke="currentColor" stroke-linejoin="round"/>
    <path d="M67.6799 41.7038C67.6799 45.7538 66.4299 48.4938 63.9099 49.9238L63.27 50.2438L56.4399 53.6538L43.9099 59.9238C46.4299 58.4938 47.6799 55.7538 47.6799 51.7038C47.6799 49.7438 47.3899 47.7438 46.7999 45.7238C46.1699 43.5638 45.2099 41.3638 43.9099 39.1238C42.6399 36.9338 41.2499 35.0438 39.7199 33.4438C38.2199 31.8738 36.5899 30.5738 34.8499 29.5638C31.6099 27.6938 28.7999 27.2838 26.4199 28.3338L37.8099 22.6438L45.7799 18.6538C48.2899 17.2238 51.3199 17.5238 54.8499 19.5638C58.3799 21.6038 61.3999 24.7838 63.9099 29.1238C66.4299 33.4638 67.6799 37.6538 67.6799 41.7038Z" stroke="currentColor" stroke-linejoin="round"/>
    <path d="M86.9499 111.734C86.9499 112.774 86.6399 113.474 86.0199 113.824L85.8299 113.914L66.0199 123.824C66.6399 123.474 66.9499 122.774 66.9499 121.734C66.9499 120.694 66.6399 119.644 66.0199 118.574C65.4099 117.514 64.6499 116.724 63.7399 116.204L5.97986 82.8538C5.15986 82.3738 4.45988 82.2638 3.87988 82.5038L9.65985 79.6038C9.78985 79.8938 9.93986 80.1938 10.1099 80.4938C10.7199 81.5538 11.4799 82.3538 12.3899 82.8738L22.0199 88.4338L31.7699 83.5538L38.5999 80.1438L39.1099 79.8938L39.2099 79.9438L38.7099 80.2038L31.8699 83.6138L30.8099 84.1538L30.2798 84.4138C29.0498 85.2038 28.4399 86.6438 28.4399 88.7338V92.1338L57.3199 108.814C58.2299 109.334 58.9899 109.424 59.6099 109.074L68.3699 104.694L75.2099 101.274L83.7399 106.204C84.6499 106.724 85.4099 107.514 86.0199 108.574C86.6399 109.644 86.9499 110.694 86.9499 111.734Z" stroke="currentColor" stroke-linejoin="round"/>
    <path d="M39.1095 79.8938L38.5995 80.1438L31.7695 83.5538L22.0195 88.4338V85.0238C22.0195 82.0838 22.6495 79.8138 23.9195 78.2138C24.4295 77.5638 25.0395 77.0238 25.7495 76.5938C27.3595 75.6138 29.1895 75.3938 31.2595 75.9038C32.3895 76.1938 33.5895 76.6938 34.8595 77.4338L39.1095 79.8938Z" stroke="currentColor" stroke-linejoin="round"/>
</svg>