<svg width="48" height="48" viewBox="0 0 121 135" fill="none" xmlns="http://www.w3.org/2000/svg" stroke-width="1px" stroke-linecap="round" stroke-linejoin="round"><path d="M53.9893 58.5101C54.1893 58.4401 54.3792 58.3601 54.5492 58.2301L53.9893 58.5101ZM30.7393 28.9901C30.6493 28.7501 30.5592 28.5101 30.4492 28.2801L34.0692 38.6801C34.1592 38.9201 34.2593 39.1601 34.3593 39.3901L30.7393 28.9901ZM21.8693 48.7101L11.0392 17.6101C10.4592 16.0401 9.61929 14.7001 8.49929 13.6001C7.37929 12.5001 6.27924 11.9601 5.19924 12.0001C4.81924 12.0101 4.47923 12.0901 4.18923 12.2301H4.16921C3.62921 12.4901 3.22927 12.9601 2.97927 13.6401C2.57927 14.6901 2.66929 16.0101 3.24929 17.5801L14.0692 48.6801C14.6492 50.2501 15.4993 51.5901 16.6193 52.6901C17.7293 53.7901 18.8392 54.3301 19.9192 54.2901C20.2192 54.2801 20.4893 54.2301 20.7393 54.1301C20.8993 54.0801 21.0492 54.0101 21.1892 53.9001C21.6092 53.6401 21.9193 53.2201 22.1393 52.6501C22.5293 51.6001 22.4393 50.2801 21.8693 48.7101Z" stroke="#229EFF" stroke-linejoin="round"/><path d="M37.2896 96.1801C37.0996 96.7001 36.8196 97.1001 36.4496 97.3701H36.4396C36.3496 97.4501 36.2497 97.5101 36.1497 97.5601C36.0297 97.6201 35.9097 97.6701 35.7697 97.7101C35.5597 97.7701 35.3196 97.8101 35.0696 97.8201C33.9896 97.8601 32.8897 97.3201 31.7697 96.2201C30.6497 95.1201 29.7996 93.7801 29.2296 92.2101L20.5696 67.3301C19.9896 65.7601 19.8996 64.4401 20.2996 63.3901C20.5396 62.7301 20.9196 62.2701 21.4296 62.0101H21.4396C21.7496 61.8501 22.1097 61.7701 22.5197 61.7501C23.5997 61.7101 24.6996 62.2501 25.8196 63.3501C26.9396 64.4501 27.7796 65.7901 28.3596 67.3601L37.0197 92.2401C37.5997 93.8101 37.6896 95.1301 37.2896 96.1801Z" stroke="#229EFF" stroke-linejoin="round"/><path d="M84.6692 37.3503L85.1692 37.1003C85.0092 37.1703 84.8292 37.2203 84.6692 37.3503ZM30.7393 28.9903C30.6493 28.7503 30.5592 28.5103 30.4492 28.2803L34.0692 38.6803C34.1592 38.9203 34.2593 39.1603 34.3593 39.3903L30.7393 28.9903Z" stroke="#229EFF" stroke-linejoin="round"/><path d="M117.909 121.18C117.629 121.95 117.16 122.44 116.51 122.67L116.439 122.7L96.8094 132.53C97.3094 132.28 97.6694 131.82 97.9094 131.18C98.3094 130.13 98.2195 128.81 97.6395 127.24L92.7595 113.22L91.1495 108.58C90.5695 107 89.7195 105.67 88.5995 104.56C87.4895 103.46 86.3794 102.93 85.2994 102.97C84.8994 102.99 84.5395 103.07 84.2295 103.23L88.4995 101.09L95.1295 97.7799L104.229 93.2299C104.539 93.0699 104.899 92.9899 105.299 92.9699C106.379 92.9299 107.489 93.4599 108.599 94.5599C109.719 95.6699 110.57 96.9999 111.15 98.5799L117.64 117.24C118.22 118.81 118.309 120.13 117.909 121.18Z" stroke="#229EFF" stroke-linejoin="round"/><path d="M65.7491 62.08L59.5092 65.18L55.9691 66.94L55.8291 67.01C55.3291 67.26 54.9591 67.72 54.7191 68.36C54.3191 69.41 54.4091 70.73 54.9891 72.3L55.1091 72.66L55.1392 72.72L55.1591 72.76L53.9391 73.37L47.3091 76.69L45.0092 77.84C45.1492 77.77 45.2791 77.69 45.4091 77.58C45.4591 77.54 45.5191 77.5 45.5691 77.44H45.5791C45.8191 77.18 46.0191 76.86 46.1691 76.46C46.4891 75.63 46.4991 74.63 46.1791 73.46C46.1191 73.16 46.0192 72.85 45.8992 72.52L40.2891 56.42L39.1591 53.16L36.7191 46.16L34.3591 39.39L30.7391 28.99C30.6491 28.75 30.5591 28.51 30.4491 28.28C29.8991 27 29.1491 25.9 28.1991 24.97C27.0791 23.87 25.9792 23.34 24.8992 23.38C24.5792 23.39 24.2991 23.44 24.0391 23.54L28.0991 21.52L34.7291 18.2L43.6191 13.76L44.0791 13.53C44.3291 13.44 44.5992 13.39 44.8992 13.38C45.9792 13.34 47.0791 13.87 48.1991 14.97C49.3191 16.07 50.1691 17.41 50.7391 18.99L54.5991 30.06L47.9691 33.38L44.1191 35.3L44.0391 35.34C43.5391 35.6 43.1591 36.06 42.9191 36.7C42.5191 37.76 42.6091 39.07 43.1891 40.65L47.4091 53.02C47.9891 54.6 48.8391 55.93 49.9591 57.04C51.0791 58.14 52.1792 58.67 53.2592 58.63C53.5192 58.62 53.7591 58.58 53.9891 58.51C54.1891 58.44 54.3791 58.36 54.5491 58.23L54.6191 58.19L56.3091 57.35L62.9391 54.03L65.7491 62.08Z" stroke="#229EFF" stroke-linejoin="round"/><path d="M55.7188 55.6398C55.7188 56.1298 55.6288 56.5798 55.4788 56.9898C55.2788 57.5198 54.9988 57.9198 54.6188 58.1898L54.5487 58.2298L53.9888 58.5098C53.7588 58.5798 53.5188 58.6198 53.2588 58.6298C52.1788 58.6698 51.0788 58.1398 49.9588 57.0398C48.8388 55.9298 47.9887 54.5998 47.4087 53.0198L43.1887 40.6498C42.6087 39.0698 42.5187 37.7598 42.9187 36.6998C43.1587 36.0598 43.5387 35.5998 44.0387 35.3398L44.1188 35.2998C44.4188 35.1498 44.7588 35.0698 45.1388 35.0598C46.2188 35.0298 47.3088 35.5498 48.3888 36.6298C48.8488 37.0898 49.2588 37.5898 49.6288 38.1398C50.1288 38.8798 50.5488 39.6998 50.8788 40.6098L55.2088 53.0498C55.5588 54.0098 55.7388 54.8698 55.7188 55.6398Z" stroke="#229EFF" stroke-linejoin="round"/><path d="M74.9191 42.2198L68.5991 45.3898L65.1791 47.0998H65.1691C64.4291 47.2898 63.9091 47.8098 63.5991 48.6398C63.1991 49.6898 63.2891 51.0098 63.8691 52.5798L64.1591 53.4098L62.9391 54.0298L56.3091 57.3498L54.6191 58.1898C54.9991 57.9198 55.2791 57.5198 55.4791 56.9898C55.6291 56.5798 55.7091 56.1298 55.7191 55.6398C55.7391 54.8698 55.5591 54.0098 55.2091 53.0498L50.8792 40.6098C50.5492 39.6998 50.1292 38.8798 49.6292 38.1398C49.2592 37.5898 48.8492 37.0898 48.3892 36.6298C47.3092 35.5498 46.2192 35.0298 45.1392 35.0598C44.7592 35.0698 44.4191 35.1498 44.1191 35.2998L47.9691 33.3798L54.5991 30.0598L63.9891 25.3698C64.3191 25.1798 64.6992 25.0798 65.1392 25.0598C66.2192 25.0298 67.3092 25.5498 68.3892 26.6298C69.4692 27.7098 70.2992 29.0398 70.8792 30.6098L74.9191 42.2198Z" stroke="#229EFF" stroke-linejoin="round"/><path d="M83.0787 104.61C82.6887 105.66 82.7788 106.98 83.3488 108.55L86.1288 116.53L77.3588 120.9C77.7188 120.63 78.0087 120.25 78.2087 119.74C78.6087 118.73 78.5187 117.44 77.9387 115.86L72.9187 101.44L71.2388 96.6197L65.1687 79.1697L64.5687 77.4497L62.7887 72.3297C62.4287 71.3397 61.9588 70.4497 61.3788 69.6497C61.3688 69.6497 61.3588 69.6197 61.3488 69.6097C61.3488 69.5997 61.3387 69.5997 61.3387 69.5897C61.0087 69.1397 60.6388 68.7097 60.2388 68.3197C59.1188 67.2097 58.0187 66.6797 56.9387 66.7197C56.5687 66.7297 56.2587 66.7997 55.9688 66.9397L59.5088 65.1797L65.7488 62.0797L66.9587 61.4697L76.8588 89.8997C77.4388 91.4697 78.2788 92.8097 79.3988 93.9097C80.5188 95.0097 81.6187 95.5397 82.6987 95.5097C82.9287 95.4997 83.1488 95.4697 83.3488 95.4097H83.3688C83.4988 95.3697 83.6288 95.3197 83.7488 95.2597H83.7688L92.6987 90.7797L95.1288 97.7797L88.4988 101.09L84.2288 103.23C83.7088 103.49 83.3287 103.95 83.0787 104.61Z" stroke="#229EFF" stroke-linejoin="round"/><path d="M22.9495 28.9601L30.0895 49.4701L21.1895 53.9001C21.6095 53.6401 21.9195 53.2201 22.1395 52.6501C22.5295 51.6001 22.4395 50.2801 21.8695 48.7101L11.0394 17.6101C10.4594 16.0401 9.61951 14.7001 8.49951 13.6001C7.37951 12.5001 6.27946 11.9601 5.19946 12.0001C4.81946 12.0101 4.47945 12.0901 4.18945 12.2301L24.1195 2.26012H24.1295C24.4395 2.10012 24.7995 2.01012 25.1995 2.00012C26.2795 1.96012 27.3795 2.50012 28.4995 3.60012C29.6195 4.70012 30.4594 6.04012 31.0394 7.61012L34.7295 18.2001L28.0995 21.5201L24.0394 23.5401L24.0095 23.5601C23.3995 23.7901 22.9594 24.2801 22.6794 25.0101C22.2794 26.0701 22.3695 27.3801 22.9495 28.9601Z" stroke="#229EFF" stroke-linejoin="round"/><path d="M4.18896 12.2305L4.16895 12.2405" stroke="#229EFF" stroke-linejoin="round"/><path d="M46.1695 76.46C46.0195 76.86 45.8195 77.18 45.5795 77.43H45.5695C45.5195 77.5 45.4594 77.54 45.4094 77.58C45.2794 77.69 45.1495 77.77 45.0095 77.84L44.9795 77.86C44.8495 77.92 44.6995 77.97 44.5495 78.01C44.3595 78.06 44.1595 78.09 43.9495 78.1C42.8695 78.14 41.7696 77.61 40.6496 76.5C39.5296 75.4 38.6795 74.07 38.0995 72.49L32.5195 56.47L30.0895 49.47L22.9495 28.96C22.3695 27.38 22.2795 26.07 22.6795 25.01C22.9595 24.28 23.3995 23.79 24.0095 23.56L24.0394 23.54C24.2994 23.44 24.5796 23.39 24.8996 23.38C25.9796 23.34 27.0795 23.87 28.1995 24.97C29.1495 25.9 29.8995 27 30.4495 28.28L34.0695 38.68C34.1595 38.92 34.2595 39.16 34.3595 39.39L36.7195 46.16L39.1594 53.15L40.2894 56.42L45.8996 72.52C46.0196 72.85 46.1195 73.16 46.1795 73.46C46.4995 74.63 46.4895 75.63 46.1695 76.46Z" stroke="#229EFF" stroke-linejoin="round"/><path d="M21.1892 53.9004L20.7393 54.1304" stroke="#229EFF" stroke-linejoin="round"/><path d="M84.9193 93.8701C84.7293 94.3701 84.4794 94.7501 84.1294 95.0201H84.1194C84.0094 95.1101 83.8894 95.1901 83.7694 95.2501H83.7494C83.6294 95.3201 83.4994 95.3701 83.3694 95.4001H83.3494C83.1494 95.4701 82.9294 95.5001 82.6994 95.5101C81.6194 95.5401 80.5194 95.0101 79.3994 93.9101C78.2794 92.8101 77.4394 91.4701 76.8594 89.9001L66.9594 61.4701L64.1593 53.4101L63.8694 52.5801C63.2894 51.0101 63.1994 49.6901 63.5994 48.6401C63.9094 47.8101 64.4293 47.2901 65.1693 47.1001H65.1793C65.3793 47.0401 65.5894 47.0101 65.8194 47.0001C66.8994 46.9601 67.9994 47.5001 69.1194 48.6001C69.6294 49.1001 70.0794 49.6501 70.4694 50.2501C70.9494 50.9601 71.3393 51.7501 71.6593 52.6101L73.5994 58.1701L74.6994 61.3601L84.6494 89.9201C84.7594 90.2301 84.8493 90.5201 84.9193 90.8101C85.2493 92.0001 85.2393 93.0201 84.9193 93.8701Z" stroke="#229EFF" stroke-linejoin="round"/><path d="M58.079 108.121C57.879 108.631 57.599 109.011 57.219 109.271L56.669 109.551C56.429 109.641 56.159 109.681 55.859 109.691C54.779 109.731 53.669 109.221 52.559 108.161C51.439 107.101 50.5891 105.781 50.0091 104.211L45.979 92.6306V92.6006L45.679 91.7706C45.099 90.2006 45.009 88.8806 45.409 87.8306C45.669 87.1306 46.079 86.6606 46.629 86.4106C46.709 86.3706 46.799 86.3406 46.879 86.3106C47.109 86.2406 47.359 86.2006 47.629 86.1906C48.709 86.1506 49.809 86.6806 50.929 87.7806C51.439 88.2906 51.899 88.8406 52.289 89.4406C52.769 90.1606 53.159 90.9406 53.479 91.8006L57.809 104.241C58.379 105.811 58.469 107.111 58.079 108.121Z" stroke="#229EFF" stroke-linejoin="round"/><path d="M58.0789 108.12C58.4689 107.11 58.3788 105.81 57.8088 104.24L53.4789 91.8C53.1589 90.94 52.7688 90.16 52.2888 89.44C51.8988 88.84 51.4388 88.29 50.9288 87.78C49.8088 86.68 48.7089 86.15 47.6289 86.19C47.3589 86.2 47.1089 86.24 46.8789 86.31C46.7989 86.34 46.7089 86.37 46.6289 86.41L56.7089 81.36L57.9288 80.75V80.77L66.2888 104.75L57.2189 109.27C57.5989 109.01 57.8789 108.63 58.0789 108.12Z" stroke="#229EFF" stroke-linejoin="round"/><path d="M45.4094 87.8297C45.0094 88.8797 45.0994 90.1997 45.6794 91.7697L45.9695 92.5997V92.6297L36.1495 97.5597C36.2495 97.5097 36.3495 97.4497 36.4395 97.3797H36.4495C36.8195 97.0997 37.0994 96.6997 37.2894 96.1797C37.6894 95.1297 37.5995 93.8097 37.0195 92.2397L28.3595 67.3597C27.7795 65.7897 26.9395 64.4497 25.8195 63.3497C24.6995 62.2497 23.5995 61.7097 22.5195 61.7497C22.1095 61.7697 21.7495 61.8497 21.4395 62.0097L32.5195 56.4697L38.0995 72.4897C38.6795 74.0697 39.5295 75.3997 40.6495 76.4997C41.7695 77.6097 42.8695 78.1397 43.9495 78.0997C44.1595 78.0897 44.3594 78.0597 44.5494 78.0097C44.6994 77.9697 44.8495 77.9197 44.9795 77.8597L45.0095 77.8397L47.3094 76.6897L53.9395 73.3797L56.7095 81.3597L46.6295 86.4097C46.0795 86.6597 45.6694 87.1297 45.4094 87.8297Z" stroke="#229EFF" stroke-linejoin="round"/><path d="M104.92 83.8701C104.66 84.5701 104.24 85.0501 103.67 85.3001L98.5198 87.8601L98.3798 87.9301L92.6997 90.7801L83.7698 95.2501C83.8898 95.1901 84.0098 95.1101 84.1198 95.0301H84.1298C84.4798 94.7501 84.7297 94.3701 84.9197 93.8701C85.2397 93.0201 85.2497 92.0001 84.9197 90.8101C84.8497 90.5201 84.7598 90.2301 84.6498 89.9201L74.6997 61.3601L73.5997 58.1701L71.6597 52.6101C71.3397 51.7501 70.9497 50.9601 70.4697 50.2501C70.0797 49.6501 69.6298 49.1001 69.1198 48.6001C67.9998 47.5001 66.8997 46.9601 65.8197 47.0001C65.5897 47.0101 65.3797 47.0401 65.1797 47.1001L68.5997 45.3901L74.9197 42.2201L84.3998 37.4901L84.6697 37.3501L85.1697 37.1001C85.3697 37.0401 85.5897 37.0101 85.8197 37.0001C86.8997 36.9601 87.9998 37.5001 89.1198 38.6001C90.2398 39.7001 91.0797 41.0401 91.6597 42.6101L104.65 79.9201C105.23 81.5001 105.32 82.8101 104.92 83.8701Z" stroke="#229EFF" stroke-linejoin="round"/><path d="M55.8287 67.0098L55.7188 67.0598" stroke="#229EFF" stroke-linejoin="round"/><path d="M78.2095 119.74C78.0095 120.25 77.7195 120.63 77.3595 120.9L76.8695 121.15C76.6095 121.25 76.3095 121.31 75.9895 121.32C74.9095 121.36 73.8095 120.85 72.6895 119.79C71.5695 118.73 70.7196 117.41 70.1496 115.83L66.2894 104.75L57.9395 80.7699V80.7499L55.1594 72.7599L55.1395 72.7199L55.1095 72.6599L54.9895 72.2999C54.4095 70.7299 54.3195 69.4099 54.7195 68.3599C54.9595 67.7199 55.3295 67.2599 55.8295 67.0099L55.9695 66.9399C56.2595 66.7999 56.5695 66.7299 56.9395 66.7199C58.0195 66.6799 59.1195 67.2099 60.2395 68.3199C60.6395 68.7099 61.0095 69.1399 61.3395 69.5899C61.3395 69.5999 61.3495 69.5999 61.3495 69.6099C61.3595 69.6199 61.3695 69.6399 61.3795 69.6499C61.9595 70.4499 62.4294 71.3399 62.7894 72.3299L64.5695 77.4499L65.1695 79.1699L71.2395 96.6199L72.9195 101.44L77.9395 115.86C78.5195 117.44 78.6095 118.73 78.2095 119.74Z" stroke="#229EFF" stroke-linejoin="round"/><path d="M97.9094 131.18C97.6694 131.82 97.3094 132.28 96.8094 132.53L96.6395 132.62C96.3595 132.74 96.0494 132.81 95.6894 132.82C94.6094 132.86 93.5095 132.32 92.3895 131.22C91.2695 130.12 90.4295 128.78 89.8495 127.21L86.1295 116.53L83.3495 108.55C82.7795 106.98 82.6894 105.66 83.0794 104.61C83.3294 103.95 83.7095 103.49 84.2295 103.23C84.5395 103.07 84.8994 102.99 85.2994 102.97C86.3794 102.93 87.4895 103.46 88.5995 104.56C89.7195 105.67 90.5695 107 91.1495 108.58L92.7595 113.22L97.6395 127.24C98.2195 128.81 98.3094 130.13 97.9094 131.18Z" stroke="#229EFF" stroke-linejoin="round"/><path d="M97.1096 111.05L97.0596 111.07" stroke="#229EFF" stroke-linejoin="round"/><path d="M104.409 93.1396L104.229 93.2297" stroke="#229EFF" stroke-linejoin="round"/><path d="M84.2294 103.23L84.1494 103.27" stroke="#229EFF" stroke-linejoin="round"/><path d="M46.6295 86.4102L46.5195 86.4602" stroke="#229EFF" stroke-linejoin="round"/></svg>