<svg width="24" height="24" viewBox="0 0 96 113" fill="none" xmlns="http://www.w3.org/2000/svg" stroke-width="1px" stroke-linecap="round" stroke-linejoin="round">
    <path d="M54.21 110.563C54.54 110.483 54.8499 110.353 55.1399 110.193L56.3098 109.523L54.21 110.563Z" stroke="currentColor" stroke-linejoin="round"/>
    <path d="M73.1602 65.2634C72.7602 63.9234 72.1902 62.6334 71.4602 61.3734L61.9102 44.8934L55.1401 33.2134C54.7701 32.5734 54.3702 31.9734 53.9402 31.3934C53.5202 30.8334 53.0801 30.3134 52.6001 29.8134C51.6401 28.7934 50.6301 27.9834 49.5701 27.3734L26.28 13.9234C25.46 13.4534 24.6601 13.1334 23.9001 12.9734C23.6801 12.9234 23.4602 12.8834 23.2502 12.8634C22.2802 12.7634 21.4402 12.9234 20.7102 13.3334L4.39014 22.6434C3.66014 23.0534 3.09019 23.7034 2.69019 24.5734C2.30019 25.4534 2.1001 26.4934 2.1001 27.7134V54.4434C2.1001 55.6534 2.30019 56.9334 2.69019 58.2634C3.09019 59.6034 3.66014 60.8934 4.39014 62.1534L20.7102 90.3134C21.4402 91.5634 22.2802 92.7034 23.2502 93.7134C24.2102 94.7234 25.22 95.5434 26.28 96.1534L49.5701 109.593C50.6301 110.213 51.6401 110.563 52.6001 110.663C53.1801 110.723 53.7102 110.693 54.2002 110.563H54.2102L56.3101 109.523L56.3901 109.473L71.4602 100.883C71.6302 100.783 71.7902 100.683 71.9402 100.553C72.4402 100.153 72.8502 99.6234 73.1602 98.9434C73.5502 98.0734 73.7502 97.0234 73.7502 95.8134V69.0834C73.7502 67.8734 73.5502 66.5934 73.1602 65.2634ZM40.7603 84.9234C40.0003 85.3634 39.0502 85.2534 37.9202 84.6034C36.8002 83.9534 35.8501 82.9734 35.0901 81.6534C34.3301 80.3334 33.9402 79.0334 33.9402 77.7334C33.9402 76.4334 34.3301 75.5734 35.0901 75.1434C35.8401 74.7034 36.7801 74.8134 37.8901 75.4434C37.9001 75.4534 37.9102 75.4534 37.9202 75.4634C39.0502 76.1134 40.0003 77.1034 40.7603 78.4134C41.4803 79.6534 41.8601 80.8934 41.9001 82.1134C41.9101 82.1834 41.9102 82.2634 41.9102 82.3334C41.9102 83.6234 41.5203 84.4934 40.7603 84.9234ZM41.9102 64.0634C41.9102 65.3534 41.5203 66.2234 40.7603 66.6534C40.0003 67.0934 39.0502 66.9834 37.9202 66.3334C36.8002 65.6834 35.8501 64.6934 35.0901 63.3834C34.3301 62.0634 33.9402 60.7634 33.9402 59.4634V41.1934C33.9402 39.8934 34.3301 39.0334 35.0901 38.5934C35.8501 38.1634 36.8002 38.2734 37.9202 38.9234C39.0502 39.5734 40.0003 40.5534 40.7603 41.8734C41.5203 43.1934 41.9102 44.4934 41.9102 45.7934V64.0634Z" stroke="currentColor" stroke-linejoin="round"/>
    <path d="M40.76 41.8735C40 40.5535 39.0499 39.5735 37.9199 38.9235C36.7999 38.2735 35.8498 38.1635 35.0898 38.5935C34.3298 39.0335 33.9399 39.8935 33.9399 41.1935V59.4635C33.9399 60.7635 34.3298 62.0635 35.0898 63.3835C35.8498 64.6935 36.7999 65.6835 37.9199 66.3335C39.0499 66.9835 40 67.0935 40.76 66.6535C41.52 66.2235 41.9099 65.3535 41.9099 64.0635V45.7935C41.9099 44.4935 41.52 43.1935 40.76 41.8735Z" stroke="currentColor" stroke-linejoin="round"/>
    <path d="M41.9099 82.3334C41.9099 83.6234 41.52 84.4934 40.76 84.9234C40 85.3634 39.0499 85.2534 37.9199 84.6034C36.7999 83.9534 35.8498 82.9734 35.0898 81.6534C34.3298 80.3334 33.9399 79.0334 33.9399 77.7334C33.9399 76.4334 34.3298 75.5734 35.0898 75.1434C35.8398 74.7034 36.7799 74.8134 37.8899 75.4434C37.8999 75.4534 37.9099 75.4534 37.9199 75.4634C39.0499 76.1134 40 77.1034 40.76 78.4134C41.48 79.6534 41.8599 80.8934 41.8999 82.1134C41.9099 82.1834 41.9099 82.2634 41.9099 82.3334Z" stroke="currentColor" stroke-linejoin="round"/>
    <path d="M93.75 59.0834V85.8134C93.75 87.0234 93.5499 88.0734 93.1599 88.9434C92.7599 89.8234 92.19 90.4634 91.46 90.8834L75.1399 100.193L56.3899 109.473L71.46 100.883C71.63 100.783 71.7899 100.683 71.9399 100.553C72.4399 100.153 72.8499 99.6234 73.1599 98.9434C73.5499 98.0734 73.75 97.0234 73.75 95.8134V69.0834C73.75 67.8734 73.5499 66.5934 73.1599 65.2634C72.7599 63.9234 72.19 62.6334 71.46 61.3734L61.9099 44.8934L55.1399 33.2134C54.7699 32.5734 54.3699 31.9734 53.9399 31.3934C53.5199 30.8334 53.0799 30.3134 52.5999 29.8134C51.6399 28.7934 50.6298 27.9834 49.5698 27.3734L26.2798 13.9234C25.4598 13.4534 24.6599 13.1334 23.8999 12.9734C23.6799 12.9234 23.46 12.8834 23.25 12.8634C22.28 12.7634 21.44 12.9234 20.71 13.3334L40.71 3.33336C41.44 2.92336 42.28 2.76339 43.25 2.86339C44.21 2.96339 45.2198 3.31339 46.2798 3.92339L69.5698 17.3734C70.6298 17.9834 71.6399 18.7934 72.5999 19.8134C73.5699 20.8234 74.4099 21.9634 75.1399 23.2134L91.46 51.3734C92.19 52.6334 92.7599 53.9234 93.1599 55.2634C93.5499 56.5934 93.75 57.8734 93.75 59.0834Z" stroke="currentColor" stroke-linejoin="round"/>
</svg>