<svg viewBox="0 0 76 120" fill="none" xmlns="http://www.w3.org/2000/svg" height="24" width="24" stroke-width="1px" stroke-linecap="round" stroke-linejoin="round">
    <path d="M29.75 30.3262V53.9162C29.75 57.5862 28.76 60.2362 26.79 61.8462C26.38 62.1762 25.96 62.4662 25.51 62.6962C23.79 63.5862 21.7802 63.7262 19.4602 63.1262V95.1762C19.4602 96.2962 19.13 97.0362 18.48 97.4162C17.82 97.7862 17.01 97.6962 16.04 97.1362C15.06 96.5762 14.2501 95.7262 13.5901 94.5962C12.9401 93.4562 12.6101 92.3362 12.6101 91.2262V59.1662C9.70011 56.5662 7.25003 53.3262 5.28003 49.4362C3.31003 45.5362 2.33008 41.7562 2.33008 38.0862V14.4862C2.33008 13.3762 2.65006 12.6362 3.31006 12.2562L3.51001 12.1562C4.13001 11.9062 4.88 12.0362 5.75 12.5362C6.72 13.0962 7.5402 13.9462 8.2002 15.0762C8.8502 16.2062 9.18018 17.3362 9.18018 18.4462V42.0462L12.6101 44.0262V20.4262C12.6101 19.3162 12.9401 18.5662 13.5901 18.1962L13.79 18.0962C14.41 17.8362 15.16 17.9762 16.04 18.4762C17.01 19.0362 17.82 19.8762 18.48 21.0162C19.13 22.1462 19.4602 23.2662 19.4602 24.3862V47.9862L22.8901 49.9662V26.3662C22.8901 25.2462 23.2201 24.5062 23.8801 24.1262L24.0801 24.0262C24.7001 23.7762 25.4501 23.9062 26.3201 24.4062C27.2901 24.9662 28.1 25.8162 28.76 26.9462C28.92 27.2262 29.0602 27.5062 29.1802 27.7762C29.5602 28.6362 29.75 29.4762 29.75 30.3262Z" stroke="currentColor" stroke-linejoin="round"/>
    <path d="M53.7395 44.8663V114.966C53.7395 116.086 53.4095 116.826 52.7495 117.206C52.0995 117.576 51.2796 117.486 50.3096 116.926C49.3396 116.366 48.5296 115.516 47.8696 114.386C47.2096 113.246 46.8796 112.126 46.8796 111.016V83.4763L40.0295 79.5263C39.8295 79.4163 39.6397 79.2863 39.4597 79.1563C38.7397 78.6063 38.1096 77.8863 37.5896 76.9863C36.9296 75.8463 36.5996 74.7263 36.5996 73.6063V50.0163C36.5996 45.4263 38.0695 41.8463 41.0095 39.2863C41.1095 39.2063 41.1996 39.1263 41.2996 39.0463C41.8296 38.6163 42.3596 38.2463 42.8896 37.9663C42.9696 37.9163 43.0396 37.8763 43.1196 37.8363L43.5095 37.6463C45.5495 36.7463 47.6295 36.8363 49.7495 37.9563C49.8795 38.0163 50.0096 38.0963 50.1396 38.1663C51.1696 38.7563 52.0197 39.7063 52.7097 41.0263C53.3997 42.3363 53.7395 43.6163 53.7395 44.8663Z" stroke="currentColor" stroke-linejoin="round"/>
    <path d="M49.75 20.3264V34.5264L43.51 37.6464L43.1201 37.8364C43.0401 37.8764 42.9701 37.9164 42.8901 37.9664C42.3601 38.2464 41.83 38.6164 41.3 39.0464C41.2 39.1264 41.11 39.2064 41.01 39.2864C38.07 41.8464 36.6001 45.4264 36.6001 50.0164V57.1564L32.6101 59.1464L25.51 62.6964C25.96 62.4664 26.38 62.1764 26.79 61.8464C28.76 60.2364 29.75 57.5864 29.75 53.9164V30.3264C29.75 29.4764 29.5602 28.6364 29.1802 27.7764C29.0602 27.5064 28.92 27.2264 28.76 26.9464C28.1 25.8164 27.2901 24.9664 26.3201 24.4064C25.4501 23.9064 24.7001 23.7764 24.0801 24.0264L29.1802 21.4764L32.6101 19.7664L39.4602 16.3364L43.8801 14.1264C44.5301 13.7564 45.3501 13.8464 46.3201 14.4064C47.2901 14.9664 48.1 15.8164 48.76 16.9464C49.42 18.0864 49.75 19.2064 49.75 20.3264Z" stroke="currentColor" stroke-linejoin="round"/>
    <path d="M12.6096 40.3362V44.0262L9.17969 42.0462L12.6096 40.3362Z" stroke="currentColor" stroke-linejoin="round"/>
    <path d="M29.1799 8.44625V10.4062L22.3298 13.8263L13.7898 18.0962L13.5898 18.1963C12.9398 18.5663 12.6099 19.3162 12.6099 20.4262V40.3362L9.17993 42.0462V18.4463C9.17993 17.3363 8.84995 16.2063 8.19995 15.0763C7.53995 13.9463 6.71976 13.0963 5.74976 12.5363C4.87976 12.0363 4.12977 11.9062 3.50977 12.1562L23.3098 2.25625C23.9698 1.88625 24.7798 1.97625 25.7498 2.53625C26.7198 3.09625 27.54 3.94626 28.2 5.07626C28.85 6.20626 29.1799 7.33625 29.1799 8.44625Z" stroke="currentColor" stroke-linejoin="round"/>
    <path d="M39.4597 79.1562V85.1762C39.4597 86.2962 39.1295 87.0363 38.4795 87.4163L38.2795 87.5162L18.4795 97.4163C19.1295 97.0363 19.4597 96.2962 19.4597 95.1762V63.1263C21.7797 63.7263 23.7895 63.5863 25.5095 62.6963L32.6096 59.1462L36.5996 57.1562V73.6063C36.5996 74.7263 36.9296 75.8462 37.5896 76.9862C38.1096 77.8862 38.7397 78.6062 39.4597 79.1562Z" stroke="currentColor" stroke-linejoin="round"/>
    <path d="M73.7397 34.8662V104.966C73.7397 106.086 73.4098 106.826 72.7498 107.206L72.5498 107.306L52.7498 117.206C53.4098 116.826 53.7397 116.086 53.7397 114.966V44.8662C53.7397 43.6162 53.4 42.3362 52.71 41.0262C52.02 39.7062 51.1699 38.7562 50.1399 38.1662C50.0099 38.0962 49.8798 38.0162 49.7498 37.9562C47.6298 36.8362 45.5498 36.7462 43.5098 37.6462L62.97 27.9162L62.9998 27.8962C65.3198 26.6662 67.6999 26.7562 70.1399 28.1662C71.1699 28.7562 72.02 29.7062 72.71 31.0262C73.4 32.3362 73.7397 33.6162 73.7397 34.8662Z" stroke="currentColor" stroke-linejoin="round"/>
    <path d="M22.8899 46.2764V49.9664L19.46 47.9864L22.8899 46.2764Z" stroke="currentColor" stroke-linejoin="round"/>
    <path d="M39.4602 14.3864V16.3363L32.6101 19.7663L29.1802 21.4764L24.0801 24.0264L23.8801 24.1264C23.2201 24.5064 22.8901 25.2463 22.8901 26.3663V46.2764L19.4602 47.9863V24.3864C19.4602 23.2664 19.13 22.1463 18.48 21.0163C17.82 19.8763 17.01 19.0364 16.04 18.4764C15.16 17.9764 14.41 17.8364 13.79 18.0964L22.3301 13.8264L29.1802 10.4064L33.5901 8.19636C34.2501 7.81636 35.06 7.91636 36.04 8.47636C37.01 9.03636 37.82 9.87634 38.48 11.0163C39.13 12.1463 39.4602 13.2664 39.4602 14.3864Z" stroke="currentColor" stroke-linejoin="round"/>
</svg>