<svg width="24" height="24" viewBox="0 0 86 81" fill="none" xmlns="http://www.w3.org/2000/svg" stroke-width="1px" stroke-linecap="round" stroke-linejoin="round">
    <path d="M52.8799 67.03L52.1099 61.99C49.2899 63.07 46.3299 63.79 43.2199 64.14C40.1199 64.5 36.8499 64.45 33.4199 64L36.4899 73.98C36.8999 75.4 37.6499 76.53 38.7199 77.39C39.7999 78.25 40.7199 78.46 41.4899 78.02L51.1899 72.49C51.8999 72.08 52.4199 71.39 52.7199 70.42C53.0299 69.45 53.0799 68.32 52.8799 67.03Z" stroke="currentColor" stroke-linejoin="round"/>
    <path d="M25.9499 16.97C23.5899 18.78 21.4799 20.95 19.6099 23.45C17.7399 25.96 16.1299 28.77 14.7999 31.89L7.6499 24.23C6.6199 23.16 6.0199 21.96 5.8399 20.62C5.6599 19.28 5.94991 18.4 6.71991 17.96L16.4099 12.43L16.7799 12.25C17.4099 12 18.1399 11.95 18.9499 12.13C19.9299 12.34 20.9299 12.86 21.9499 13.69L25.9499 16.97Z" stroke="currentColor" stroke-linejoin="round"/>
    <path d="M24.1799 58.49C24.1799 61.44 23.2899 63.42 21.4899 64.44C19.0299 65.85 16.1199 65.84 12.7599 64.43C9.39989 63.02 6.0299 61.61 2.6499 60.18C3.1099 56.56 3.57995 52.97 4.06995 49.39C4.55995 45.82 5.99991 43.35 8.40991 41.97L8.97992 41.69C10.6699 41.01 12.6499 41.31 14.9499 42.61C17.5199 44.07 19.6999 46.34 21.4899 49.44C23.2899 52.53 24.1799 55.55 24.1799 58.49Z" stroke="currentColor" stroke-linejoin="round"/>
    <path d="M45.9499 6.97001L28.8499 15.52L25.9499 16.97L21.9499 13.69C20.9299 12.86 19.9299 12.34 18.9499 12.13C18.1399 11.95 17.4099 12 16.7799 12.25L36.4099 2.43C37.1299 2.02 37.9799 1.92001 38.9499 2.13001C39.9299 2.34001 40.9299 2.86001 41.9499 3.69001L45.9499 6.97001Z" stroke="currentColor" stroke-linejoin="round"/>
    <path d="M45.9499 6.97C43.5899 8.78 41.4799 10.95 39.6099 13.45C38.3399 15.15 37.1999 16.99 36.1699 18.97L33.5199 20.3L33.4199 20.35C33.4199 20.35 33.3899 20.35 33.3799 20.37C32.7099 20.66 32.0599 20.99 31.4199 21.36C28.9499 22.76 26.7899 24.57 24.9199 26.78C24.8999 26.81 24.8799 26.83 24.8499 26.86L14.7999 31.89C16.1299 28.77 17.7399 25.96 19.6099 23.45C21.4799 20.95 23.5899 18.78 25.9499 16.97L28.8499 15.52L45.9499 6.97Z" stroke="currentColor" stroke-linejoin="round"/>
    <path d="M63.4199 29.42C63.4199 28.95 63.3099 28.42 63.1099 27.83C62.8999 27.24 62.6499 26.68 62.3399 26.15C62.0299 25.62 61.6699 25.11 61.2599 24.64C60.8499 24.17 60.4399 23.81 60.0299 23.58C59.5899 23.3 59.1599 23.04 58.7299 22.79C53.7699 19.87 49.0399 18.36 44.5299 18.25C44.2699 18.24 44.0099 18.24 43.7599 18.24C40.9899 18.24 38.3899 18.62 35.9699 19.37C35.1299 19.64 34.3099 19.94 33.5199 20.3L33.4199 20.35C33.4199 20.35 33.3899 20.35 33.3799 20.37C32.7099 20.66 32.0599 20.99 31.4199 21.36C28.9499 22.76 26.7899 24.57 24.9199 26.78C24.8999 26.81 24.8799 26.83 24.8499 26.86C22.9999 29.06 21.3999 31.56 20.0299 34.38C19.7899 34.96 19.6699 35.61 19.6599 36.35C19.6499 36.4 19.6499 36.45 19.6499 36.5C19.6499 37.29 19.8999 38.13 20.4199 39.02L23.4299 44.21L28.2599 52.54L30.0299 55.6C30.5399 56.49 31.1499 57.13 31.8399 57.53C32.5199 57.93 33.1999 58.17 33.8599 58.26H33.8799C37.0599 58.51 40.0799 58.39 42.9499 57.9C44.6399 57.61 46.2499 57.17 47.7899 56.56H47.7999C48.8799 56.14 49.9299 55.64 50.9499 55.06C51.2099 54.91 51.4699 54.76 51.7199 54.6C54.2899 53.01 56.4999 50.93 58.3599 48.36C59.0399 47.43 59.6699 46.44 60.2599 45.38C62.2699 41.75 63.3399 37.34 63.4499 32.17C63.4699 31.28 63.4599 30.36 63.4199 29.42ZM49.1899 43.62C49.1099 43.66 49.0299 43.7 48.9499 43.74C47.8199 44.27 46.4499 44.07 44.8399 43.14C43.9699 42.64 43.1699 42.01 42.4399 41.24C41.7299 40.49 41.0799 39.61 40.4899 38.6C40.0899 37.91 39.7599 37.22 39.4999 36.54C38.9799 35.21 38.7199 33.89 38.7199 32.59C38.7199 30.74 39.2399 29.46 40.2799 28.77C40.3499 28.71 40.4199 28.67 40.4899 28.63C41.6699 27.95 43.1199 28.11 44.8399 29.11C46.5599 30.1 48.0099 31.61 49.1899 33.65C50.3699 35.68 50.9499 37.68 50.9499 39.65C50.9499 41.62 50.3699 42.95 49.1899 43.62Z" stroke="currentColor" stroke-linejoin="round"/>
    <path d="M50.9499 39.65C50.9499 41.63 50.3699 42.95 49.1899 43.62C49.1099 43.66 49.0299 43.7 48.9499 43.74C47.8199 44.27 46.4499 44.07 44.8399 43.14C43.9699 42.64 43.1699 42.01 42.4399 41.24C41.7299 40.49 41.0799 39.61 40.4899 38.6C40.0899 37.91 39.7599 37.22 39.4999 36.54C38.9799 35.21 38.7199 33.89 38.7199 32.59C38.7199 30.74 39.2399 29.46 40.2799 28.77C40.3499 28.71 40.4199 28.67 40.4899 28.63C41.6699 27.95 43.1199 28.11 44.8399 29.11C46.5599 30.1 48.0099 31.61 49.1899 33.65C50.3699 35.68 50.9499 37.68 50.9499 39.65Z" stroke="currentColor" stroke-linejoin="round"/>
    <path d="M80.2599 35.38C77.8999 39.64 74.7999 42.87 70.9499 45.06C70.0099 45.6 69.0299 46.07 68.0299 46.47L51.7199 54.6C54.2899 53.01 56.4999 50.93 58.3599 48.36C59.0399 47.43 59.6699 46.44 60.2599 45.38C62.2699 41.75 63.3399 37.34 63.4499 32.17C63.4699 31.28 63.4599 30.36 63.4199 29.42C63.4199 28.95 63.3099 28.42 63.1099 27.83C62.8999 27.24 62.6499 26.68 62.3399 26.15C62.0299 25.62 61.6699 25.11 61.2599 24.64C60.8499 24.17 60.4399 23.81 60.0299 23.58C59.5899 23.3 59.1599 23.04 58.7299 22.79C53.7699 19.87 49.0399 18.36 44.5299 18.25C44.2699 18.24 44.0099 18.24 43.7599 18.24C40.9899 18.24 38.3899 18.62 35.9699 19.37C35.1299 19.64 34.3099 19.94 33.5199 20.3L36.1699 18.98L51.6199 11.25L53.4199 10.35C56.7599 8.84 60.4599 8.15 64.5299 8.25C69.4299 8.37 74.5999 10.15 80.0299 13.58C80.4399 13.81 80.8499 14.17 81.2599 14.64C81.6699 15.11 82.0299 15.62 82.3399 16.15C82.6499 16.68 82.8999 17.24 83.1099 17.83C83.3099 18.42 83.4199 18.95 83.4199 19.42C83.6699 25.8 82.6199 31.12 80.2599 35.38Z" stroke="currentColor" stroke-linejoin="round"/>
    <path d="M24.1799 58.49C24.1799 55.55 23.2899 52.53 21.4899 49.44C19.6999 46.34 17.5199 44.07 14.9499 42.61C12.6499 41.31 10.6699 41.01 8.97992 41.69L19.6599 36.35C19.6599 36.35 19.6499 36.45 19.6499 36.5C19.6499 37.29 19.8999 38.13 20.4199 39.02L23.4299 44.21L28.2599 52.54L30.0299 55.6C30.5399 56.49 31.1499 57.13 31.8399 57.53C32.5199 57.93 33.1999 58.17 33.8599 58.26L21.4899 64.44C23.2899 63.42 24.1799 61.44 24.1799 58.49Z" stroke="currentColor" stroke-linejoin="round"/>
    <path d="M72.1099 51.99L55.3799 60.36L52.1099 61.99C49.2899 63.07 46.3299 63.79 43.2199 64.14C40.1199 64.5 36.8499 64.45 33.4199 64L53.4199 54C56.8499 54.45 60.1199 54.5 63.2199 54.14C66.3299 53.79 69.2899 53.07 72.1099 51.99Z" stroke="currentColor" stroke-linejoin="round"/>
    <path d="M72.7199 60.42C72.4199 61.39 71.8999 62.08 71.1899 62.49L61.4899 68.02L61.2899 68.12L41.4899 78.02L51.1899 72.49C51.8999 72.08 52.4199 71.39 52.7199 70.42C53.0299 69.45 53.0799 68.32 52.8799 67.03L52.1099 61.99L55.3799 60.36L72.1099 51.99L72.8799 57.03C73.0799 58.32 73.0299 59.45 72.7199 60.42Z" stroke="currentColor" stroke-linejoin="round"/>
</svg>