<svg width="24" height="24" viewBox="0 0 92 123" fill="none" xmlns="http://www.w3.org/2000/svg" stroke-width="1px" stroke-linecap="round" stroke-linejoin="round">
    <path d="M40.0703 41.3435V44.9135L22.4001 53.7535L20.0703 54.9135V45.8835L22.0303 47.0235C22.1403 47.0835 22.2501 47.1435 22.3501 47.2035C24.3801 48.2935 26.1301 48.4135 27.6001 47.5735L40.0703 41.3435Z" stroke="currentColor" stroke-linejoin="round"/>
    <path d="M49.9102 59.6335L32.1902 68.4935L29.9102 69.6334C29.9102 68.3634 29.7103 67.0635 29.3003 65.7435C28.9203 64.4935 28.3501 63.2135 27.6001 61.9235C26.2801 59.6535 24.7302 57.8935 22.9602 56.6535C22.6602 56.4335 22.3503 56.2335 22.0303 56.0535L20.0703 54.9135L22.4001 53.7535L40.0703 44.9135L42.0303 46.0535C44.2003 47.3035 46.0501 49.2635 47.6001 51.9235C49.1401 54.5735 49.9102 57.1535 49.9102 59.6335Z" stroke="currentColor" stroke-linejoin="round"/>
    <path d="M58.1101 64.3635L44.5103 71.1635L44.0303 71.4035C43.2703 71.8435 42.6903 72.4735 42.3103 73.3035C41.9203 74.1435 41.7202 75.1935 41.7202 76.4535L40.0703 75.5035L32.1902 70.9535L29.9102 69.6335L32.1902 68.4935L49.9102 59.6335L58.1101 64.3635Z" stroke="currentColor" stroke-linejoin="round"/>
    <path d="M33.5208 80.7534L27.6006 83.7134C29.1406 82.8334 29.9106 81.1535 29.9106 78.6635L33.5208 80.7534Z" stroke="currentColor" stroke-linejoin="round"/>
    <path d="M89.2708 82.3635V91.3935C89.2708 93.8835 88.5007 95.5635 86.9607 96.4435L66.9607 106.443C68.5007 105.563 69.2708 103.883 69.2708 101.393V92.3635C69.2708 91.0835 69.0706 89.7835 68.6606 88.4635C68.2806 87.2135 67.7107 85.9435 66.9607 84.6435C65.6507 82.3735 64.1006 80.6235 62.3306 79.3835C62.0306 79.1635 61.7206 78.9635 61.4006 78.7835L49.5906 71.9635C49.5006 71.9135 49.4108 71.8635 49.3208 71.8135C47.4908 70.8235 45.8907 70.6035 44.5107 71.1635L58.1106 64.3635L64.0308 61.4035C65.5708 60.5235 67.4306 60.7135 69.5906 61.9635L81.4006 68.7835C83.5606 70.0335 85.4207 71.9835 86.9607 74.6435C88.5007 77.3035 89.2708 79.8735 89.2708 82.3635Z" stroke="currentColor" stroke-linejoin="round"/>
    <path d="M69.2708 92.3635V101.393C69.2708 103.883 68.5007 105.563 66.9607 106.443C65.4207 107.323 63.5606 107.133 61.4006 105.883L49.9106 99.2435L49.5906 99.0635C47.4306 97.8135 45.5708 95.8635 44.0308 93.2035C42.4908 90.5435 41.7207 87.9735 41.7207 85.4835L36.8406 82.6635L33.5208 80.7535L29.9106 78.6635C29.9106 81.1535 29.1406 82.8335 27.6006 83.7135C26.1306 84.5535 24.3806 84.4235 22.3506 83.3335C22.2506 83.2735 22.1408 83.2135 22.0308 83.1535L20.0708 82.0235V91.0535L22.0308 92.1935C22.3508 92.3735 22.6607 92.5735 22.9607 92.7935C24.7307 94.0235 26.2806 95.7835 27.6006 98.0535C28.3506 99.3535 28.9208 100.623 29.3008 101.873C29.7108 103.193 29.9106 104.493 29.9106 105.773V114.803C29.9106 117.293 29.1406 118.973 27.6006 119.853C26.0506 120.733 24.2008 120.543 22.0308 119.293L10.2307 112.473C8.06071 111.223 6.21065 109.273 4.67065 106.613C3.12065 103.953 2.35059 101.383 2.35059 98.8935V89.8635C2.35059 87.3735 3.12065 85.6935 4.67065 84.8135L5.15063 84.5735C6.59063 83.9835 8.28071 84.2535 10.2307 85.3735L12.1907 86.5135V77.4735L10.2307 76.3435C8.06071 75.0935 6.21065 73.1335 4.67065 70.4735C3.12065 67.8135 2.35059 65.2435 2.35059 62.7635V53.7235C2.35059 51.2435 3.12065 49.5635 4.67065 48.6835L5.16064 48.4435C6.60064 47.8535 8.28071 48.1135 10.2307 49.2335L12.1907 50.3735V41.3435L10.2307 40.2035C8.06071 38.9535 6.21065 36.9935 4.67065 34.3335C3.12065 31.6835 2.35059 29.1035 2.35059 26.6235V17.5835C2.35059 15.1035 3.12065 13.4235 4.67065 12.5435L5.15063 12.3035C6.59063 11.7135 8.28071 11.9835 10.2307 13.1035L22.0308 19.9135C22.3508 20.0935 22.6607 20.2935 22.9607 20.5135C24.7307 21.7535 26.2806 23.5135 27.6006 25.7835C28.3506 27.0835 28.9208 28.3535 29.3008 29.6035C29.7108 30.9235 29.9106 32.2235 29.9106 33.4935V42.5335C29.9106 45.0135 29.1406 46.6935 27.6006 47.5735C26.1306 48.4135 24.3806 48.2935 22.3506 47.2035C22.2506 47.1435 22.1408 47.0835 22.0308 47.0235L20.0708 45.8835V54.9135L22.0308 56.0535C22.3508 56.2335 22.6607 56.4335 22.9607 56.6535C24.7307 57.8935 26.2806 59.6535 27.6006 61.9235C28.3506 63.2135 28.9208 64.4935 29.3008 65.7435C29.7108 67.0635 29.9106 68.3635 29.9106 69.6335L32.1907 70.9535L40.0708 75.5035L41.7207 76.4535C41.7207 75.1935 41.9208 74.1435 42.3108 73.3035C42.6908 72.4735 43.2708 71.8435 44.0308 71.4035L44.5107 71.1635C45.8907 70.6035 47.4908 70.8235 49.3208 71.8135C49.4108 71.8635 49.5006 71.9135 49.5906 71.9635L61.4006 78.7835C61.7206 78.9635 62.0306 79.1635 62.3306 79.3835C64.1006 80.6235 65.6507 82.3735 66.9607 84.6435C67.7107 85.9435 68.2806 87.2135 68.6606 88.4635C69.0706 89.7835 69.2708 91.0835 69.2708 92.3635Z" stroke="currentColor" stroke-linejoin="round"/>
    <path d="M49.9104 23.4935V32.5335C49.9104 35.0135 49.1403 36.6935 47.6003 37.5735L47.1104 37.8135L40.0706 41.3435L27.6003 47.5735C29.1403 46.6935 29.9104 45.0135 29.9104 42.5335V33.4935C29.9104 32.2235 29.7105 30.9235 29.3005 29.6035C28.9205 28.3535 28.3503 27.0835 27.6003 25.7835C26.2803 23.5135 24.7304 21.7535 22.9604 20.5135C22.6604 20.2935 22.3505 20.0935 22.0305 19.9135L10.2305 13.1035C8.28047 11.9835 6.59039 11.7135 5.15039 12.3035L24.6704 2.5435C26.2104 1.6635 28.0605 1.8535 30.2305 3.1035L42.0305 9.9135C44.2005 11.1635 46.0503 13.1235 47.6003 15.7835C49.1403 18.4435 49.9104 21.0135 49.9104 23.4935Z" stroke="currentColor" stroke-linejoin="round"/>
    <path d="M12.1902 44.9235V50.3735L10.2302 49.2335C8.28022 48.1135 6.60016 47.8535 5.16016 48.4435L12.1902 44.9235Z" stroke="currentColor" stroke-linejoin="round"/>
    <path d="M12.1904 81.0535V86.5135L10.2305 85.3735C8.28047 84.2535 6.59039 83.9835 5.15039 84.5735L12.1904 81.0535Z" stroke="currentColor" stroke-linejoin="round"/>
    <path d="M36.8401 82.6635L22.4001 89.8935L20.0703 91.0535V82.0235L22.0303 83.1535C22.1403 83.2135 22.2501 83.2735 22.3501 83.3335C24.3801 84.4235 26.1301 84.5535 27.6001 83.7135L33.5203 80.7535L36.8401 82.6635Z" stroke="currentColor" stroke-linejoin="round"/>
    <path d="M49.9102 99.2434V104.803C49.9102 107.293 49.1401 108.973 47.6001 109.853L47.1101 110.093L27.6001 119.853C29.1401 118.973 29.9102 117.293 29.9102 114.803V105.773C29.9102 104.493 29.7103 103.193 29.3003 101.873C28.9203 100.623 28.3501 99.3535 27.6001 98.0535C26.2801 95.7835 24.7302 94.0234 22.9602 92.7934C22.6602 92.5734 22.3503 92.3735 22.0303 92.1935L20.0703 91.0535L22.4001 89.8934L36.8401 82.6635L41.7202 85.4835C41.7202 87.9735 42.4903 90.5434 44.0303 93.2034C45.5703 95.8634 47.4301 97.8134 49.5901 99.0634L49.9102 99.2434Z" stroke="currentColor" stroke-linejoin="round"/>
</svg>