<svg width="48" height="48" viewBox="0 0 92 119" fill="none" xmlns="http://www.w3.org/2000/svg" stroke-width="1px" stroke-linecap="round" stroke-linejoin="round"><path d="M66.6501 85.2698V111.81C66.6501 114.05 65.9501 115.57 64.5601 116.37C63.1601 117.16 61.4901 116.99 59.5301 115.86L9.72009 87.0998C7.76009 85.9698 6.08006 84.2098 4.69006 81.7998C3.30006 79.3998 2.6001 77.0698 2.6001 74.8298V17.6698C2.6001 15.4198 3.30006 13.8998 4.69006 13.1098L5.13007 12.8898C6.43007 12.3598 7.96009 12.5998 9.72009 13.6098L22.6001 21.0498L29.7201 25.1598L54.1001 39.2398C55.1101 39.8198 55.9601 40.6998 56.6401 41.8698C57.3201 43.0498 57.6601 44.2198 57.6601 45.3698C57.6601 46.5198 57.3201 47.2998 56.6401 47.6898C55.9601 48.0798 55.1101 47.9798 54.1001 47.3998L29.7201 33.3198L22.6001 29.2098L9.72009 21.7698V78.9398L59.5301 107.7V81.1598C59.5301 79.9998 59.8701 79.2298 60.5501 78.8398L60.7601 78.7398C61.4001 78.4698 62.1801 78.6098 63.0901 79.1298C64.1001 79.7098 64.9401 80.5898 65.6201 81.7698C66.3101 82.9398 66.6501 84.1098 66.6501 85.2698Z" stroke="#229EFF" stroke-linejoin="round"/><path d="M89.1401 51.7997C89.1401 52.9497 88.7801 53.7397 88.0701 54.1397L55.4202 72.7497L55.1602 72.8797L45.1802 77.8697L37.6102 81.6597L35.4202 82.7497L37.4802 81.5797L44.5901 77.5197L53.1401 72.6497L68.0701 64.1397C68.7801 63.7397 69.1401 62.9497 69.1401 61.7997C69.1401 60.6497 68.7801 59.4797 68.0701 58.3197C67.3601 57.1597 66.5301 56.3097 65.5801 55.7597C65.5101 55.7197 65.4402 55.6797 65.3702 55.6497C64.6002 55.2497 63.9401 55.1697 63.3801 55.3997L83.1802 45.4997C83.8302 45.1297 84.6301 45.2097 85.5801 45.7597C86.5301 46.3097 87.3601 47.1597 88.0701 48.3197C88.7801 49.4797 89.1401 50.6397 89.1401 51.7997Z" stroke="#229EFF" stroke-linejoin="round"/><path d="M69.1401 61.7996C69.1401 62.9496 68.7801 63.7396 68.0701 64.1396L53.1401 72.6496L44.5901 77.5196L37.4801 81.5796L35.4201 82.7496C34.7101 83.1596 33.8801 83.0896 32.9301 82.5396C31.9801 81.9896 31.1501 81.1096 30.4401 79.8796L28.2301 76.0696L25.3601 71.1196L22.7401 66.5996L15.3201 53.7896C14.6701 52.6696 14.3401 51.5296 14.3401 50.3696C14.3401 49.2096 14.6701 48.4496 15.3201 48.0796L15.5401 47.9696C16.1601 47.7396 16.9101 47.8696 17.8101 48.3896C18.8201 48.9796 19.6501 49.8296 20.3001 50.9496L22.6001 54.9196L29.7201 67.1996L31.2301 69.8096L32.9301 72.7396L34.6301 71.7696L47.3401 64.5296L52.3201 61.6896L63.1801 55.4996L63.3801 55.3996C63.9401 55.1696 64.6001 55.2496 65.3701 55.6496C65.4401 55.6796 65.5101 55.7196 65.5801 55.7596C66.5301 56.3096 67.3601 57.1596 68.0701 58.3196C68.7801 59.4796 69.1401 60.6396 69.1401 61.7996Z" stroke="#229EFF" stroke-linejoin="round"/><path d="M59.5301 86.1496V107.7L9.72009 78.9396L24.5401 71.5296L25.3601 71.1196L28.2301 76.0696L30.4401 79.8796C31.1501 81.1096 31.9801 81.9896 32.9301 82.5396C33.8801 83.0896 34.7101 83.1596 35.4201 82.7496L37.6101 81.6596L45.1801 77.8696L59.5301 86.1496Z" stroke="#229EFF" stroke-linejoin="round"/><path d="M14.3401 50.37C14.3401 51.53 14.6701 52.67 15.3201 53.79L22.7401 66.6L25.3601 71.12L24.5401 71.53L9.72009 78.94V21.77L22.6001 29.21L29.7201 33.32V40.88L15.3201 48.08C14.6701 48.45 14.3401 49.21 14.3401 50.37Z" stroke="#229EFF" stroke-linejoin="round"/><path d="M52.32 61.6897L47.34 64.5297L34.63 71.7697L32.9301 72.7397L31.23 69.8097L29.72 67.1997L22.6 54.9197L20.3 50.9497C19.65 49.8297 18.8201 48.9797 17.8101 48.3897C16.9101 47.8697 16.16 47.7397 15.54 47.9697L35.32 38.0797C35.97 37.7097 36.8001 37.8097 37.8101 38.3897C38.8201 38.9797 39.65 39.8297 40.3 40.9497L52.32 61.6897Z" stroke="#229EFF" stroke-linejoin="round"/><path d="M77.6602 35.3698C77.6602 36.5298 77.3201 37.2998 76.6401 37.6898L76.4302 37.7898L56.6401 47.6898C57.3201 47.2998 57.6602 46.5298 57.6602 45.3698C57.6602 44.2098 57.3201 43.0498 56.6401 41.8698C55.9601 40.6998 55.1102 39.8198 54.1002 39.2398L29.7202 25.1598L22.6002 21.0498L9.72015 13.6098C7.96015 12.5998 6.43013 12.3598 5.13013 12.8898L24.6901 3.10981C26.0801 2.30981 27.7602 2.47981 29.7202 3.60981L74.1002 29.2398C75.1102 29.8198 75.9601 30.6998 76.6401 31.8698C77.3201 33.0498 77.6602 34.2198 77.6602 35.3698Z" stroke="#229EFF" stroke-linejoin="round"/><path d="M86.65 75.2699V101.81C86.65 104.05 85.9501 105.57 84.5601 106.37L84.1201 106.59L64.5601 116.37C65.9501 115.57 66.65 114.05 66.65 111.81V85.2699C66.65 84.1099 66.3101 82.9399 65.6201 81.7699C64.9401 80.5899 64.1 79.7099 63.09 79.1299C62.18 78.6099 61.4 78.4699 60.76 78.7399L80.55 68.8399C81.23 68.4499 82.08 68.5499 83.09 69.1299C84.1 69.7099 84.9401 70.5899 85.6201 71.7699C86.3101 72.9399 86.65 74.1099 86.65 75.2699Z" stroke="#229EFF" stroke-linejoin="round"/></svg>