<svg width="48" height="48" viewBox="0 0 104 117" fill="none" xmlns="http://www.w3.org/2000/svg" stroke-width="1px" stroke-linecap="round" stroke-linejoin="round"><path d="M78.7095 66.6676C78.2195 65.0676 77.6795 63.4876 77.0995 61.9276C76.0595 59.0976 74.8895 56.3176 73.5595 53.5976C72.5295 51.4276 71.3995 49.2976 70.1795 47.1976C69.9695 46.8476 69.7695 46.4876 69.5495 46.1376C66.0995 40.3576 62.0795 34.9976 57.5095 30.0876C52.6495 24.8876 47.4595 20.6876 41.9395 17.4976C36.4095 14.3076 31.2295 12.5176 26.3695 12.1176C26.3395 12.1176 26.3095 12.1176 26.2795 12.1176C22.2195 11.7976 18.6095 12.3276 15.4295 13.7276L13.6895 14.5976C10.0995 16.6476 7.25952 19.8576 5.15952 24.2176C3.06952 28.5776 2.01953 33.9276 2.01953 40.2676C2.01953 46.6076 3.06952 53.1676 5.15952 59.9476C7.25952 66.7276 10.0995 73.2176 13.6895 79.4176C17.2895 85.6176 21.5095 91.3176 26.3695 96.5276C31.2295 101.738 36.4095 105.928 41.9395 109.118C47.4595 112.308 52.6495 114.108 57.5095 114.498C62.3595 114.898 66.5895 114.078 70.1795 112.028C73.1695 110.318 75.6395 107.818 77.5895 104.508C77.9795 103.838 78.3595 103.138 78.7095 102.408C80.6595 98.3576 81.6995 93.4576 81.8395 87.7076C81.8495 87.5476 81.8495 87.3776 81.8495 87.2176C81.8595 86.9376 81.8595 86.6476 81.8595 86.3576C81.8595 80.0276 80.8095 73.4676 78.7095 66.6776V66.6676ZM46.6795 57.0476C46.7795 56.5376 47.0895 56.2776 47.6295 56.2776L48.7395 56.1976L56.6395 55.6276L58.1995 55.5176C58.7395 55.4476 59.2395 55.6176 59.6995 56.0376C59.8195 56.1376 59.9295 56.2576 60.0395 56.3876C60.2195 56.5976 60.3895 56.8476 60.5395 57.1276C60.6695 57.3576 60.7895 57.6076 60.8995 57.8776C61.2195 58.6376 61.3195 59.2776 61.2095 59.7676C61.2095 59.7676 61.1995 59.8076 61.1995 59.8276C61.0695 60.3176 60.7295 60.6076 60.1995 60.6776L59.2995 60.7276C60.0995 61.8076 60.7295 62.9876 61.1995 64.2876C61.6595 65.5876 61.8995 66.8076 61.8995 67.9576C61.8995 69.8676 61.3095 71.1476 60.1495 71.8176C58.9895 72.4776 57.5695 72.3276 55.9095 71.3676C54.3095 70.4476 52.9495 69.0476 51.8195 67.1776C50.6895 65.2976 50.0495 63.4076 49.9195 61.4976H49.7195C49.1895 61.5776 48.6695 61.3676 48.1695 60.8876C47.6795 60.4176 47.2595 59.7776 46.9295 58.9676C46.7295 58.3976 46.6295 57.8976 46.6395 57.4676C46.6395 57.3176 46.6495 57.1776 46.6795 57.0476ZM23.6695 39.5876C23.1395 38.8976 22.8095 38.2476 22.6795 37.6376C22.5395 37.0276 22.6395 36.5176 22.9795 36.0976C23.3095 35.6776 23.7095 35.5276 24.1695 35.6376C24.6395 35.7576 25.1395 36.1176 25.6695 36.7376L27.6295 39.1476L36.1495 49.6576C36.2495 49.7776 36.3295 49.9076 36.4095 50.0276C36.5395 50.2076 36.6395 50.3876 36.7295 50.5676C36.7795 50.6576 36.8195 50.7376 36.8595 50.8276C36.9095 50.9176 36.9495 51.0076 36.9795 51.0976C37.0495 51.2876 37.1095 51.4776 37.1495 51.6676C37.2795 52.3076 37.2095 52.8676 36.9495 53.3176C36.6095 53.7376 36.1995 53.8876 35.6995 53.7476C35.1995 53.6076 34.6895 53.1976 34.1495 52.5076L33.9495 52.2776C33.8195 54.0376 33.1895 55.1976 32.0595 55.7676C30.9295 56.3376 29.5595 56.1576 27.9695 55.2376C27.4995 54.9676 27.0595 54.6576 26.6295 54.2976C25.5295 53.4076 24.5595 52.2276 23.7195 50.7876C22.5595 48.7776 21.9795 46.8176 21.9795 44.9076C21.9795 43.7676 22.2095 42.8076 22.6795 42.0476C22.7995 41.8476 22.9395 41.6676 23.0795 41.5076C23.4895 41.0676 23.9795 40.7876 24.5695 40.6776L23.6695 39.5876ZM52.1495 92.0976L21.8795 74.6276C23.3395 70.2076 25.8695 67.2876 29.4595 65.8876C30.1095 65.6376 30.7795 65.4476 31.4695 65.3376C33.6595 64.9576 36.0295 65.2676 38.5995 66.2676C39.6795 66.6776 40.7895 67.2276 41.9395 67.8876C46.6595 70.6076 50.8195 74.7476 54.4095 80.2976C57.9995 85.8476 60.5295 91.6776 61.9995 97.7876L52.1495 92.0976Z" stroke="#229EFF" stroke-linejoin="round"/><path d="M61.2094 59.7776C61.2094 59.7776 61.1993 59.8076 61.1993 59.8276C61.0693 60.3176 60.7293 60.6076 60.1993 60.6776L59.2993 60.7276L61.2094 59.7776Z" stroke="#229EFF" stroke-linejoin="round"/><path d="M61.8992 67.9576C61.8992 69.8676 61.3092 71.1476 60.1492 71.8176C58.9892 72.4776 57.5692 72.3276 55.9092 71.3676C54.3092 70.4476 52.9492 69.0476 51.8192 67.1776C50.6892 65.2976 50.0492 63.4076 49.9192 61.4976H49.7192L59.5192 56.6476L60.0392 56.3876C60.2192 56.5976 60.3892 56.8476 60.5392 57.1276C60.6692 57.3576 60.7892 57.6076 60.8992 57.8776C61.2192 58.6376 61.3192 59.2776 61.2092 59.7676L59.2992 60.7276C60.0992 61.8076 60.7292 62.9876 61.1992 64.2876C61.6592 65.5876 61.8992 66.8076 61.8992 67.9576Z" stroke="#229EFF" stroke-linejoin="round"/><path d="M60.0393 56.3876L59.5194 56.6476L49.7194 61.4976C49.1894 61.5776 48.6693 61.3676 48.1693 60.8876C47.6793 60.4176 47.2593 59.7776 46.9293 58.9676C46.7293 58.3976 46.6294 57.8976 46.6394 57.4676C46.6394 57.3176 46.6493 57.1776 46.6793 57.0476C46.7793 56.5376 47.0893 56.2776 47.6293 56.2776L48.7393 56.1976L56.6394 55.6276L58.1994 55.5176C58.7394 55.4476 59.2394 55.6176 59.6994 56.0376C59.8194 56.1376 59.9293 56.2576 60.0393 56.3876Z" stroke="#229EFF" stroke-linejoin="round"/><path d="M36.9492 53.3176C36.6092 53.7376 36.1992 53.8876 35.6992 53.7476C35.1992 53.6076 34.6892 53.1976 34.1492 52.5076L33.9492 52.2776L36.8592 50.8276C36.9092 50.9176 36.9492 51.0076 36.9792 51.0976C37.0492 51.2876 37.1092 51.4776 37.1492 51.6676C37.2792 52.3076 37.2092 52.8676 36.9492 53.3176Z" stroke="#229EFF" stroke-linejoin="round"/><path d="M38.5994 66.2676L33.3894 68.8676L21.8794 74.6276C23.3394 70.2076 25.8694 67.2876 29.4594 65.8876C30.1094 65.6376 30.7794 65.4476 31.4694 65.3376C33.6594 64.9576 36.0294 65.2676 38.5994 66.2676Z" stroke="#229EFF" stroke-linejoin="round"/><path d="M61.9994 97.7876L52.1494 92.0976L21.8794 74.6276L33.3894 68.8676L38.5994 66.2676C39.6794 66.6776 40.7894 67.2276 41.9394 67.8876C46.6594 70.6076 50.8194 74.7476 54.4094 80.2976C57.9994 85.8476 60.5294 91.6776 61.9994 97.7876Z" stroke="#229EFF" stroke-linejoin="round"/><path d="M27.6294 39.1476L24.5694 40.6776L23.6694 39.5876C23.1394 38.8976 22.8094 38.2476 22.6794 37.6376C22.5394 37.0276 22.6394 36.5176 22.9794 36.0976C23.3094 35.6776 23.7094 35.5276 24.1694 35.6376C24.6394 35.7576 25.1394 36.1176 25.6694 36.7376L27.6294 39.1476Z" stroke="#229EFF" stroke-linejoin="round"/><path d="M36.8595 50.8276L33.9495 52.2776C33.8195 54.0376 33.1895 55.1976 32.0595 55.7676C30.9295 56.3376 29.5595 56.1576 27.9695 55.2376C27.4995 54.9676 27.0595 54.6576 26.6295 54.2976C25.5295 53.4076 24.5595 52.2276 23.7195 50.7876C22.5595 48.7776 21.9795 46.8176 21.9795 44.9076C21.9795 43.7676 22.2095 42.8076 22.6795 42.0476C22.7995 41.8476 22.9395 41.6676 23.0795 41.5076C23.4895 41.0676 23.9795 40.7876 24.5695 40.6776L27.6295 39.1476L36.1495 49.6576C36.2395 49.7776 36.3295 49.8976 36.4095 50.0276C36.5395 50.2076 36.6395 50.3876 36.7295 50.5676C36.7795 50.6576 36.8195 50.7376 36.8595 50.8276Z" stroke="#229EFF" stroke-linejoin="round"/><path d="M33.9492 52.2776L33.9292 52.2876" stroke="#229EFF" stroke-linejoin="round"/><path d="M101.86 76.3476C101.86 82.6876 100.81 88.0376 98.7097 92.3976C96.6197 96.7676 93.7697 99.9676 90.1797 102.018L88.4497 102.888L88.3897 102.918L70.1797 112.018C73.1697 110.308 75.6397 107.808 77.5897 104.498C77.9797 103.828 78.3597 103.128 78.7097 102.398C80.6597 98.3476 81.6997 93.4476 81.8397 87.6976C81.8497 87.5376 81.8497 87.3676 81.8497 87.2076C81.8597 86.9276 81.8597 86.6376 81.8597 86.3476C81.8597 80.0176 80.8097 73.4576 78.7097 66.6676C78.2197 65.0676 77.6797 63.4876 77.0997 61.9276C76.0597 59.0976 74.8897 56.3176 73.5597 53.5976C72.5297 51.4276 71.3997 49.2976 70.1797 47.1976C69.9697 46.8476 69.7697 46.4876 69.5497 46.1376C66.0997 40.3576 62.0797 34.9976 57.5097 30.0876C52.6497 24.8876 47.4597 20.6876 41.9397 17.4976C36.4097 14.3076 31.2297 12.5176 26.3697 12.1176C26.3397 12.1176 26.3097 12.1176 26.2797 12.1176C22.2197 11.7976 18.6097 12.3276 15.4297 13.7276L33.6897 4.59758C37.2897 2.54758 41.5097 1.72758 46.3697 2.12758C51.2297 2.52758 56.4097 4.31759 61.9397 7.50759C67.4597 10.6976 72.6497 14.8976 77.5097 20.0976C82.3597 25.3076 86.5897 31.0176 90.1797 37.2076C93.7697 43.4076 96.6197 49.8976 98.7097 56.6776C100.81 63.4676 101.86 70.0276 101.86 76.3576V76.3476Z" stroke="#229EFF" stroke-linejoin="round"/></svg>