<svg width="48" height="48" viewBox="0 0 102 114" fill="none" xmlns="http://www.w3.org/2000/svg" stroke-width="1px" stroke-linecap="round" stroke-linejoin="round"><path d="M97.9399 91.8968L93.0999 98.5768C92.7299 99.0668 92.3099 99.4268 91.8199 99.6768L91.7699 99.7067L71.8199 109.677C72.3099 109.427 72.7299 109.067 73.0999 108.577L77.9399 101.897C78.8799 100.667 79.1499 98.9267 78.7399 96.6967C78.3899 94.7867 77.6799 92.9167 76.6099 91.0967L76.3699 90.7067C76.2599 90.5167 76.1399 90.3367 76.0199 90.1567L70.6799 82.4467L90.6799 72.4467L96.0199 80.1567C96.2199 80.4567 96.4199 80.7767 96.6099 81.0967C97.6799 82.9167 98.3899 84.7867 98.7399 86.6967C99.1499 88.9267 98.8799 90.6668 97.9399 91.8968Z" stroke="#229EFF" stroke-linejoin="round"/><path d="M90.8799 67.8767V71.0067C90.8799 71.5067 90.8199 71.9867 90.6799 72.4467L70.6799 82.4467C70.8199 81.9867 70.8799 81.5067 70.8799 81.0067V77.8767C70.8799 77.3867 70.8399 76.8467 70.7799 76.2567L76.1199 74.7267C76.3499 74.6367 76.5699 74.5467 76.7699 74.4267L90.8599 67.3767C90.8799 67.5467 90.8799 67.7167 90.8799 67.8767Z" stroke="#229EFF" stroke-linejoin="round"/><path d="M98.8398 61.3167C98.7498 61.7067 98.6299 62.0667 98.4899 62.4067C98.1099 63.3167 97.5398 63.9967 96.7698 64.4267L96.3998 64.6067L90.8599 67.3767L76.7698 74.4267C77.5398 73.9967 78.1099 73.3167 78.4899 72.4067C78.6299 72.0667 78.7498 71.7067 78.8398 71.3167C79.2398 69.5467 78.9799 67.5067 78.0399 65.1967L74.6298 56.4067L73.2999 52.9767C72.3599 50.6767 71.0598 48.6967 69.3898 47.0267C69.3898 47.0267 69.3799 47.0267 69.3699 47.0067C67.6899 45.3467 66.0098 44.4567 64.3298 44.3367L58.0898 43.7367L65.8798 39.8367L78.0898 33.7367L84.3298 34.3367C86.0098 34.4567 87.6899 35.3467 89.3699 37.0067C89.3799 37.0167 89.3898 37.0167 89.3898 37.0267C91.0598 38.6967 92.3599 40.6767 93.2999 42.9767L98.0399 55.1967C98.9799 57.5067 99.2398 59.5467 98.8398 61.3167Z" stroke="#229EFF" stroke-linejoin="round"/><path d="M73.3499 27.8767L59.0898 35.0067H59.0798L53.3499 37.8767L52.9899 34.5967L52.9299 34.0667L52.4498 29.7267C52.1798 27.5667 51.3798 25.4167 50.0798 23.2667C48.7698 21.1267 47.2098 19.5367 45.3898 18.4867L35.9299 13.0167C34.1099 11.9667 32.5499 11.7667 31.2399 12.3967L51.2399 2.39674C52.5499 1.76674 54.1099 1.96674 55.9299 3.01674L65.3898 8.48674C67.2098 9.53674 68.7698 11.1267 70.0798 13.2667C71.3798 15.4167 72.1798 17.5667 72.4498 19.7267L72.9899 24.5967L73.3499 27.8767Z" stroke="#229EFF" stroke-linejoin="round"/><path d="M38.5999 8.71674L31.2399 12.3967C29.9199 13.0167 29.1399 14.2667 28.8699 16.1067L27.9599 23.2167C27.1599 23.1367 26.3499 23.1367 25.5499 23.2067C25.3299 23.2267 25.0999 23.2567 24.8899 23.2867C24.3299 23.3667 23.7899 23.4667 23.2699 23.6067H23.2299L16.9799 16.9967C15.2999 15.1767 13.6299 14.1267 11.9399 13.8567C10.9699 13.6967 10.1299 13.7867 9.3999 14.1267L29.3999 4.12674C30.1299 3.78674 30.9699 3.69674 31.9399 3.85674C33.6299 4.12674 35.2999 5.17674 36.9799 6.99674L38.5999 8.71674Z" stroke="#229EFF" stroke-linejoin="round"/><path d="M78.0898 33.7367L65.8798 39.8367L58.0898 43.7367C57.3498 42.6867 56.5998 41.6767 55.8198 40.6867C55.0498 39.7067 54.2199 38.7667 53.3499 37.8767L59.0798 35.0067H59.0898L73.3499 27.8767C74.2199 28.7667 75.0498 29.7067 75.8198 30.6867C76.5998 31.6767 77.3498 32.6867 78.0898 33.7367Z" stroke="#229EFF" stroke-linejoin="round"/><path d="M76.6099 91.0967L76.3699 90.7067C76.2599 90.5167 76.1399 90.3367 76.0199 90.1567L70.6799 82.4467C70.8199 81.9867 70.8798 81.5067 70.8798 81.0067V77.8767C70.8798 77.3867 70.8399 76.8467 70.7799 76.2567L76.1199 74.7267C76.3499 74.6367 76.5699 74.5467 76.7699 74.4267C77.5399 73.9967 78.1099 73.3167 78.4899 72.4067C78.6299 72.0667 78.7499 71.7067 78.8399 71.3167C79.2399 69.5467 78.9799 67.5067 78.0399 65.1967L74.6298 56.4067L73.2999 52.9767C72.3599 50.6767 71.0598 48.6967 69.3898 47.0267C69.3898 47.0267 69.3799 47.0267 69.3699 47.0067C67.6899 45.3467 66.0098 44.4567 64.3298 44.3367L58.0899 43.7367C57.3499 42.6867 56.5998 41.6767 55.8198 40.6867C55.0498 39.7067 54.2199 38.7667 53.3499 37.8767L52.9899 34.5967L52.9299 34.0667L52.4498 29.7267C52.1798 27.5667 51.3798 25.4167 50.0798 23.2667C48.7698 21.1267 47.2098 19.5367 45.3898 18.4867L35.9299 13.0167C34.1099 11.9667 32.5499 11.7667 31.2399 12.3967C29.9199 13.0167 29.1399 14.2667 28.8699 16.1067L27.9599 23.2167C27.1599 23.1367 26.3499 23.1367 25.5499 23.2067C25.3299 23.2267 25.0998 23.2567 24.8898 23.2867C24.3298 23.3667 23.7898 23.4667 23.2698 23.6067H23.2299L16.9799 16.9967C15.2999 15.1767 13.6298 14.1267 11.9398 13.8567C10.9698 13.6967 10.1299 13.7867 9.39985 14.1267C8.86985 14.3767 8.40985 14.7567 8.01985 15.2867L3.27986 22.0267C2.33986 23.2567 2.06987 24.9967 2.47987 27.2267C2.87987 29.4667 3.77987 31.6567 5.19987 33.7767L10.5399 41.4767C10.4599 41.9867 10.4399 42.4867 10.4399 42.9767V46.1067C10.4399 46.2667 10.4399 46.4267 10.4499 46.5967C10.4499 46.9567 10.4899 47.3367 10.5399 47.7267L5.19987 49.2567C5.01987 49.3267 4.84986 49.3967 4.68986 49.4767H4.66987C3.55987 50.0667 2.81987 51.1167 2.47987 52.6667C2.06987 54.4367 2.33986 56.4867 3.27986 58.7867L8.01985 71.0067C8.95985 73.3267 10.2698 75.3067 11.9398 76.9767C13.6298 78.6367 15.2999 79.5367 16.9799 79.6567L23.2299 80.2467C23.9699 81.2967 24.7199 82.3067 25.4899 83.2967C26.2699 84.2767 27.0899 85.2167 27.9599 86.1067L28.8699 94.2667C29.1399 96.4267 29.9199 98.5767 31.2399 100.717C32.5499 102.857 34.1099 104.457 35.9299 105.497L45.3898 110.977C47.2098 112.017 48.7698 112.227 50.0798 111.597C51.3798 110.967 52.1798 109.727 52.4498 107.877L53.3499 100.767C54.1599 100.847 54.9698 100.847 55.7698 100.767C56.5798 100.687 57.3499 100.557 58.0899 100.367L62.6599 105.297L64.1298 106.867C65.8098 108.687 67.4899 109.727 69.1699 110.007C70.1699 110.167 71.0299 110.067 71.7699 109.697L71.8198 109.667C72.3098 109.417 72.7299 109.057 73.0999 108.567L77.9398 101.887C78.8798 100.657 79.1499 98.9167 78.7399 96.6867C78.3899 94.7767 77.6799 92.9067 76.6099 91.0867V91.0967ZM50.8399 79.3067C50.0699 79.7467 49.2599 80.0367 48.4099 80.1667C47.9399 80.2467 47.4599 80.2767 46.9599 80.2667C45.1099 80.2367 43.0799 79.5767 40.8599 78.2967C36.9899 76.0667 33.7199 72.6667 31.0399 68.1167C30.9699 68.0067 30.8999 67.8867 30.8399 67.7667C29.2399 64.9767 28.0998 62.2367 27.4498 59.5367C26.9798 57.6567 26.7499 55.7967 26.7499 53.9667C26.7499 49.5067 28.1199 46.4667 30.8399 44.8767C33.5499 43.2867 36.8899 43.6367 40.8599 45.9267C42.6999 46.9767 44.4099 48.3267 45.9899 49.9467C46.8699 50.8467 47.7098 51.8267 48.5098 52.8967C49.3298 53.9867 50.0999 55.1567 50.8399 56.4267C51.8099 58.1067 52.6099 59.7667 53.2299 61.4067C53.6999 62.6167 54.0699 63.8167 54.3499 65.0067C54.7599 66.7867 54.9699 68.5267 54.9699 70.2567C54.9699 74.7267 53.5899 77.7367 50.8399 79.3067Z" stroke="#229EFF" stroke-linejoin="round"/><path d="M54.9698 70.2567C54.9698 74.7267 53.5898 77.7367 50.8398 79.3067C50.0698 79.7467 49.2599 80.0367 48.4099 80.1667C47.9399 80.2467 47.4598 80.2767 46.9598 80.2667C45.1098 80.2367 43.0799 79.5767 40.8599 78.2967C36.9899 76.0667 33.7199 72.6667 31.0399 68.1167C30.9699 68.0067 30.8998 67.8867 30.8398 67.7667C29.2398 64.9767 28.0998 62.2367 27.4498 59.5367C26.9798 57.6567 26.7499 55.7967 26.7499 53.9667C26.7499 49.5067 28.1198 46.4667 30.8398 44.8767C33.5498 43.2867 36.8899 43.6367 40.8599 45.9267C42.6999 46.9767 44.4099 48.3267 45.9899 49.9467C46.8699 50.8467 47.7098 51.8267 48.5098 52.8967C49.1198 54.5067 49.8998 56.1267 50.8398 57.7667C50.8998 57.8867 50.9699 58.0067 51.0399 58.1167C51.7299 59.2967 52.4599 60.3867 53.2299 61.4067C53.6999 62.6167 54.0699 63.8167 54.3499 65.0067C54.7599 66.7867 54.9698 68.5267 54.9698 70.2567Z" stroke="#229EFF" stroke-linejoin="round"/><path d="M62.6599 105.307L50.0798 111.597C51.3798 110.967 52.1798 109.727 52.4498 107.877L53.3499 100.767C54.1599 100.847 54.9698 100.847 55.7698 100.767C56.5798 100.687 57.3498 100.557 58.0898 100.367L62.6599 105.297V105.307Z" stroke="#229EFF" stroke-linejoin="round"/></svg>