<svg width="24" height="24" viewBox="0 0 92 117" fill="none" xmlns="http://www.w3.org/2000/svg" stroke-width="1px" stroke-linecap="round" stroke-linejoin="round">
    <path d="M12.3604 59.66C11.2404 57.73 9.86023 56.29 8.24023 55.35C6.70023 54.46 5.34018 54.32 4.18018 54.94C3.03018 55.56 2.4502 56.8 2.4502 58.66C2.4502 60.52 3.03018 62.32 4.18018 64.32C5.34018 66.32 6.70023 67.76 8.24023 68.66C9.86023 69.59 11.2404 69.72 12.3604 69.04C13.4804 68.35 14.0403 67.12 14.0403 65.35C14.0403 63.49 13.4804 61.59 12.3604 59.66ZM12.3604 17.1C11.2404 15.16 9.86023 13.73 8.24023 12.79C6.70023 11.9 5.34018 11.76 4.18018 12.38C3.03018 12.99 2.4502 14.23 2.4502 16.1C2.4502 17.87 3.03018 19.76 4.18018 21.76C5.34018 23.75 6.70023 25.2 8.24023 26.09C9.86023 27.03 11.2404 27.16 12.3604 26.47C13.4804 25.79 14.0403 24.56 14.0403 22.79C14.0403 20.93 13.4804 19.03 12.3604 17.1ZM26.2703 88.97C25.1503 87.04 23.7701 85.6 22.1501 84.67C20.6101 83.77 19.2503 83.64 18.0903 84.25C16.9303 84.87 16.3604 86.11 16.3604 87.97C16.3604 89.83 16.9303 91.63 18.0903 93.63C19.2503 95.63 20.6101 97.08 22.1501 97.97C23.7701 98.9 25.1503 99.03 26.2703 98.35C27.3903 97.67 27.9502 96.44 27.9502 94.66C27.9502 92.88 27.3903 90.9 26.2703 88.97ZM54.0803 105.03C52.9603 103.1 51.5902 101.67 49.9702 100.73C48.4202 99.84 47.0702 99.7 45.9102 100.31C44.7502 100.93 44.1702 102.17 44.1702 104.03C44.1702 105.89 44.7502 107.69 45.9102 109.69C47.0702 111.69 48.4202 113.14 49.9702 114.03C51.5902 114.97 52.9603 115.09 54.0803 114.41C55.2103 113.73 55.7703 112.5 55.7703 110.72C55.7703 108.94 55.2103 106.97 54.0803 105.03Z" stroke="currentColor" stroke-linejoin="round"/>
    <path d="M69.6799 54.9101C69.6799 56.6801 69.11 57.9101 67.99 58.6001C67.72 58.7601 67.4399 58.8801 67.1399 58.9401C66.1999 59.1701 65.1101 58.9301 63.8801 58.2201C62.3301 57.3201 60.9801 55.8801 59.8201 53.8801C59.3201 53.0301 58.9299 52.1901 58.6599 51.3801C58.2699 50.2901 58.0801 49.2301 58.0801 48.2201C58.0801 46.3601 58.6601 45.1201 59.8201 44.5001C60.9801 43.8801 62.3301 44.0201 63.8801 44.9101C64.9601 45.5301 65.92 46.3801 66.77 47.4401C67.21 47.9801 67.61 48.5701 67.99 49.2201C69.11 51.1501 69.6799 53.0501 69.6799 54.9101Z" stroke="currentColor" stroke-linejoin="round"/>
    <path d="M41.8604 38.8501C41.8604 40.6201 41.3002 41.8501 40.1802 42.5301C39.9102 42.6901 39.6203 42.8101 39.3203 42.8801C38.3803 43.1101 37.2903 42.8601 36.0603 42.1501C34.5103 41.2601 33.1602 39.8201 32.0002 37.8201C31.5002 36.9701 31.1103 36.1301 30.8403 35.3201C30.4503 34.2301 30.2603 33.1701 30.2603 32.1601C30.2603 30.3001 30.8402 29.0601 32.0002 28.4401C33.1602 27.8201 34.5103 27.9601 36.0603 28.8501C37.1403 29.4701 38.1002 30.3101 38.9602 31.3801C39.3902 31.9101 39.8002 32.5101 40.1802 33.1601C41.3002 35.0901 41.8604 36.9901 41.8604 38.8501Z" stroke="currentColor" stroke-linejoin="round"/>
    <path d="M47.9502 84.6599C47.9502 86.4399 47.3903 87.6699 46.2703 88.3499L45.8503 88.5599L26.2703 98.3499C27.3903 97.6699 27.9502 96.4399 27.9502 94.6599C27.9502 92.8799 27.3903 90.8999 26.2703 88.9699C25.1503 87.0399 23.7701 85.5999 22.1501 84.6699C20.6101 83.7699 19.2503 83.6399 18.0903 84.2499L30.8403 77.8799C31.1103 78.6899 31.5002 79.5299 32.0002 80.3799C33.1602 82.3799 34.5103 83.8199 36.0603 84.7199C37.2903 85.4199 38.3703 85.6699 39.3203 85.4399C39.6203 85.3799 39.9002 85.2699 40.1802 85.0999L47.4102 81.4899C47.7702 82.5599 47.9502 83.6199 47.9502 84.6599Z" stroke="currentColor" stroke-linejoin="round"/>
    <path d="M75.7703 100.72C75.7703 102.5 75.2103 103.73 74.0803 104.41L73.6602 104.62L54.0803 114.41C55.2103 113.73 55.7703 112.5 55.7703 110.72C55.7703 108.94 55.2103 106.97 54.0803 105.03C52.9603 103.1 51.5902 101.67 49.9702 100.73C48.4202 99.8399 47.0702 99.6999 45.9102 100.31L58.6602 93.9399C58.9302 94.7499 59.3203 95.5799 59.8203 96.4399C60.9803 98.4399 62.3304 99.8899 63.8804 100.78C65.1104 101.49 66.2001 101.73 67.1401 101.5C67.4401 101.44 67.7202 101.32 67.9902 101.16L75.2302 97.5399C75.5902 98.6099 75.7703 99.6699 75.7703 100.72Z" stroke="currentColor" stroke-linejoin="round"/>
    <path d="M69.6799 97.4701C69.6799 99.2501 69.11 100.48 67.99 101.16C67.72 101.32 67.4399 101.44 67.1399 101.5C66.1999 101.73 65.1101 101.49 63.8801 100.78C62.3301 99.8901 60.9801 98.4401 59.8201 96.4401C59.3201 95.5801 58.9299 94.7501 58.6599 93.9401C58.2699 92.8501 58.0801 91.8001 58.0801 90.7801C58.0801 88.9201 58.6601 87.6801 59.8201 87.0601C60.9801 86.4501 62.3301 86.5901 63.8801 87.4801C64.9601 88.1001 65.93 88.9401 66.77 90.0101C67.21 90.5401 67.62 91.1401 67.99 91.7801C69.11 93.7101 69.6799 95.6101 69.6799 97.4701Z" stroke="currentColor" stroke-linejoin="round"/>
    <path d="M34.0403 55.3501C34.0403 57.1201 33.4804 58.3501 32.3604 59.0401L31.9402 59.2501L12.3604 69.0401C13.4804 68.3501 14.0403 67.1201 14.0403 65.3501C14.0403 63.4901 13.4804 61.5901 12.3604 59.6601C11.2404 57.7301 9.86023 56.2901 8.24023 55.3501C6.70023 54.4601 5.34018 54.3201 4.18018 54.9401L16.9302 48.5701C17.2102 49.3801 17.5903 50.2201 18.0903 51.0701C19.2503 53.0701 20.6101 54.5101 22.1501 55.4001C23.3801 56.1101 24.4702 56.3601 25.4102 56.1301C25.7102 56.0701 26.0003 55.9601 26.2703 55.7901L33.5002 52.1801C33.8602 53.2501 34.0403 54.3101 34.0403 55.3501Z" stroke="currentColor" stroke-linejoin="round"/>
    <path d="M41.8604 81.41C41.8604 83.19 41.3002 84.41 40.1802 85.1C39.9002 85.27 39.6203 85.38 39.3203 85.44C38.3703 85.67 37.2903 85.42 36.0603 84.72C34.5103 83.82 33.1602 82.38 32.0002 80.38C31.5002 79.53 31.1103 78.69 30.8403 77.88C30.4503 76.79 30.2603 75.73 30.2603 74.72C30.2603 72.86 30.8402 71.6201 32.0002 71.0001C33.1602 70.3901 34.5103 70.5201 36.0603 71.4201C37.1403 72.0401 38.1002 72.88 38.9602 73.94C39.3902 74.48 39.8002 75.07 40.1802 75.72C41.3002 77.65 41.8604 79.55 41.8604 81.41Z" stroke="currentColor" stroke-linejoin="round"/>
    <path d="M61.8601 71.4099C61.8601 73.1899 61.2999 74.4099 60.1799 75.0999L59.78 75.2999L47.4099 81.4899L40.1799 85.0999C41.2999 84.4099 41.8601 83.1899 41.8601 81.4099C41.8601 79.6299 41.2999 77.6499 40.1799 75.7199C39.7999 75.0699 39.39 74.4799 38.96 73.9399C38.1 72.8799 37.1401 72.0399 36.0601 71.4199C34.5101 70.5199 33.16 70.3899 32 70.9999L44.74 64.6299C45.02 65.4399 45.4099 66.2799 45.9099 67.1299C47.0699 69.1299 48.42 70.5699 49.97 71.4699C51.2 72.1799 52.29 72.4199 53.23 72.1899C53.53 72.1299 53.8101 72.0099 54.0801 71.8499L61.3201 68.2299C61.6801 69.2999 61.8601 70.3599 61.8601 71.4099Z" stroke="currentColor" stroke-linejoin="round"/>
    <path d="M55.77 68.16C55.77 69.94 55.2101 71.16 54.0801 71.85C53.8101 72.01 53.53 72.13 53.23 72.19C52.29 72.42 51.2 72.18 49.97 71.47C48.42 70.57 47.0699 69.13 45.9099 67.13C45.4099 66.28 45.02 65.44 44.74 64.63C44.36 63.54 44.1699 62.48 44.1699 61.47C44.1699 59.61 44.7499 58.3701 45.9099 57.7501C47.0699 57.1401 48.42 57.2701 49.97 58.1701C51.05 58.7901 52.0101 59.63 52.8601 60.69C53.3001 61.23 53.7001 61.82 54.0801 62.47C55.2101 64.4 55.77 66.3 55.77 68.16Z" stroke="currentColor" stroke-linejoin="round"/>
    <path d="M75.7703 58.1601C75.7703 59.9401 75.2103 61.1601 74.0803 61.8501L73.6602 62.0601L61.3203 68.2301L54.0803 71.8501C55.2103 71.1601 55.7703 69.9401 55.7703 68.1601C55.7703 66.3801 55.2103 64.4001 54.0803 62.4701C53.7003 61.8201 53.3004 61.2301 52.8604 60.6901C52.0104 59.6301 51.0502 58.7901 49.9702 58.1701C48.4202 57.2701 47.0702 57.1401 45.9102 57.7501L58.6602 51.3801C58.9302 52.1901 59.3203 53.0301 59.8203 53.8801C60.9803 55.8801 62.3304 57.3201 63.8804 58.2201C65.1104 58.9301 66.2001 59.1701 67.1401 58.9401C67.4401 58.8801 67.7202 58.7601 67.9902 58.6001L75.2302 54.9801C75.5902 56.0501 75.7703 57.1101 75.7703 58.1601Z" stroke="currentColor" stroke-linejoin="round"/>
    <path d="M89.6802 44.9101C89.6802 46.6801 89.1102 47.9101 87.9902 48.6001L87.5703 48.8101L75.2302 54.9801L67.9902 58.6001C69.1102 57.9101 69.6802 56.6801 69.6802 54.9101C69.6802 53.0501 69.1102 51.1501 67.9902 49.2201C67.6102 48.5701 67.2103 47.9801 66.7703 47.4401C65.9203 46.3801 64.9604 45.5301 63.8804 44.9101C62.3304 44.0201 60.9803 43.8801 59.8203 44.5001L79.8203 34.5001C80.9803 33.8801 82.3304 34.0201 83.8804 34.9101C85.5004 35.8501 86.8702 37.2901 87.9902 39.2201C89.1102 41.1501 89.6802 43.0501 89.6802 44.9101Z" stroke="currentColor" stroke-linejoin="round"/>
    <path d="M27.9502 52.1001C27.9502 53.8701 27.3903 55.1001 26.2703 55.7901C26.0003 55.9601 25.7102 56.0701 25.4102 56.1301C24.4702 56.3601 23.3801 56.1101 22.1501 55.4001C20.6101 54.5101 19.2503 53.0701 18.0903 51.0701C17.5903 50.2201 17.2102 49.3801 16.9302 48.5701C16.5502 47.4801 16.3604 46.4201 16.3604 45.4101C16.3604 43.5501 16.9303 42.3101 18.0903 41.6901C19.2503 41.0701 20.6101 41.2101 22.1501 42.1001C23.2301 42.7201 24.2003 43.5701 25.0503 44.6301C25.4903 45.1701 25.8903 45.7601 26.2703 46.4101C27.3903 48.3401 27.9502 50.2401 27.9502 52.1001Z" stroke="currentColor" stroke-linejoin="round"/>
    <path d="M47.9502 42.1001C47.9502 43.8701 47.3903 45.1001 46.2703 45.7901L45.8503 46.0001L33.5002 52.1801L26.2703 55.7901C27.3903 55.1001 27.9502 53.8701 27.9502 52.1001C27.9502 50.2401 27.3903 48.3401 26.2703 46.4101C25.8903 45.7601 25.4903 45.1701 25.0503 44.6301C24.2003 43.5701 23.2301 42.7201 22.1501 42.1001C20.6101 41.2101 19.2503 41.0701 18.0903 41.6901L30.8403 35.3201C31.1103 36.1301 31.5002 36.9701 32.0002 37.8201C33.1602 39.8201 34.5103 41.2601 36.0603 42.1501C37.2903 42.8601 38.3803 43.1101 39.3203 42.8801C39.6203 42.8101 39.9102 42.6901 40.1802 42.5301L47.4102 38.9201C47.7702 39.9901 47.9502 41.0501 47.9502 42.1001Z" stroke="currentColor" stroke-linejoin="round"/>
    <path d="M34.0403 12.79C34.0403 14.56 33.4804 15.79 32.3604 16.47L31.9202 16.69L12.3604 26.47C13.4804 25.79 14.0403 24.56 14.0403 22.79C14.0403 20.93 13.4804 19.03 12.3604 17.1C11.2404 15.16 9.86023 13.73 8.24023 12.79C6.70023 11.9 5.34018 11.76 4.18018 12.38L24.1802 2.38002C25.3402 1.76002 26.7002 1.90003 28.2402 2.79003C29.8602 3.73003 31.2404 5.16002 32.3604 7.10002C33.4804 9.03002 34.0403 10.93 34.0403 12.79Z" stroke="currentColor" stroke-linejoin="round"/>
    <path d="M61.8601 28.8501C61.8601 30.6201 61.2999 31.8501 60.1799 32.5301L59.77 32.7301L47.4099 38.9201L40.1799 42.5301C41.2999 41.8501 41.8601 40.6201 41.8601 38.8501C41.8601 36.9901 41.2999 35.0901 40.1799 33.1601C39.7999 32.5101 39.39 31.9101 38.96 31.3801C38.1 30.3101 37.1401 29.4701 36.0601 28.8501C34.5101 27.9601 33.16 27.8201 32 28.4401L52 18.4401C53.16 17.8201 54.5101 17.9601 56.0601 18.8501C57.6801 19.7901 59.0499 21.2201 60.1799 23.1601C61.2999 25.0901 61.8601 26.9901 61.8601 28.8501Z" stroke="currentColor" stroke-linejoin="round"/>
    <path d="M89.6802 87.4701C89.6802 89.2501 89.1102 90.4801 87.9902 91.1601L87.5703 91.3701L75.2302 97.5401L67.9902 101.16C69.1102 100.48 69.6802 99.2501 69.6802 97.4701C69.6802 95.6901 69.1102 93.7101 67.9902 91.7801C67.6202 91.1401 67.2103 90.5401 66.7703 90.0101C65.9303 88.9401 64.9604 88.1001 63.8804 87.4801C62.3304 86.5901 60.9803 86.4501 59.8203 87.0601L79.8203 77.0601C80.9803 76.4501 82.3304 76.5901 83.8804 77.4801C85.5004 78.4101 86.8702 79.8501 87.9902 81.7801C89.1102 83.7101 89.6802 85.6101 89.6802 87.4701Z" stroke="currentColor" stroke-linejoin="round"/>
</svg>