<svg width="48" height="48" viewBox="0 0 105 125" fill="none" xmlns="http://www.w3.org/2000/svg" stroke-width="1px" stroke-linecap="round" stroke-linejoin="round"><path d="M80.8998 113.467C80.8998 114.687 80.4998 115.527 79.6998 115.977L69.3298 121.887C68.5998 122.307 67.6699 122.187 66.5399 121.537C65.4099 120.887 64.4798 119.927 63.7498 118.667C63.0198 117.407 62.6498 116.127 62.6498 114.827C62.6498 113.527 63.0198 112.677 63.7498 112.257L67.3398 110.207L31.2399 89.367L17.8798 81.657L21.4698 87.847C22.1998 89.107 22.5698 90.387 22.5698 91.687C22.5698 92.987 22.1998 93.837 21.4698 94.257C20.7398 94.677 19.8099 94.557 18.6799 93.907C17.5499 93.247 16.6198 92.297 15.8898 91.037L5.51984 73.147C4.71984 71.767 4.31982 70.477 4.31982 69.257C4.31982 68.037 4.71984 67.197 5.51984 66.737L15.8898 60.827L16.1099 60.717C16.7999 60.437 17.6599 60.587 18.6799 61.177C19.8099 61.837 20.7398 62.787 21.4698 64.047C22.1998 65.317 22.5698 66.587 22.5698 67.887C22.5698 69.187 22.1998 70.037 21.4698 70.457L17.8798 72.507L39.7399 85.127L67.3398 101.057L63.7498 94.867C63.0198 93.607 62.6498 92.327 62.6498 91.027C62.6498 89.727 63.0198 88.877 63.7498 88.457C64.4798 88.047 65.4099 88.157 66.5399 88.817C67.6699 89.467 68.5998 90.427 69.3298 91.687L79.6998 109.567C80.4998 110.947 80.8998 112.247 80.8998 113.467Z" stroke="#229EFF" stroke-linejoin="round"/><path d="M82.4998 84.2971V86.9271L75.2198 82.7271L50.5898 68.5071V65.8771C50.5898 64.0371 51.0198 62.6171 51.8798 61.5871C52.3798 60.9971 52.9699 60.6071 53.6799 60.3871H53.6898C54.2298 60.2271 54.8098 60.1771 55.4698 60.2271C57.1998 60.3871 58.9799 60.7671 60.8099 61.3571C62.6399 61.9571 64.5499 62.8371 66.5399 63.9871C68.5399 65.1371 70.4498 66.4671 72.2698 67.9771C74.0998 69.4971 75.8799 71.1671 77.6099 73.0071C79.1399 74.6471 80.3298 76.4871 81.1998 78.5071C81.3498 78.8571 81.4799 79.1971 81.5999 79.5371C82.1999 81.1971 82.4998 82.7771 82.4998 84.2971Z" stroke="#229EFF" stroke-linejoin="round"/><path d="M74.52 54.8571C74.52 57.1271 73.89 58.7371 72.61 59.6771C72.47 59.7871 72.32 59.8771 72.17 59.9671C70.61 60.8671 68.73 60.6771 66.54 59.4071C65.08 58.5571 63.75 57.3871 62.57 55.9071C61.98 55.1671 61.43 54.3571 60.91 53.4671C59.35 50.7671 58.5601 48.1671 58.5601 45.6471C58.5601 43.1271 59.35 41.4271 60.91 40.5371L61.4 40.2971C62.86 39.6971 64.58 39.9671 66.54 41.0971C68.73 42.3671 70.61 44.3471 72.17 47.0471C72.83 48.1771 73.35 49.2871 73.72 50.3771C74.26 51.9071 74.52 53.3971 74.52 54.8571Z" stroke="#229EFF" stroke-linejoin="round"/><path d="M100.9 103.467C100.9 104.687 100.5 105.527 99.7 105.977L89.33 111.887L89.11 111.997L69.33 121.887L79.7 115.977C80.5 115.527 80.9 114.687 80.9 113.467C80.9 112.247 80.5 110.947 79.7 109.567L69.33 91.6871C68.6 90.4271 67.67 89.4671 66.54 88.8171C65.41 88.1571 64.48 88.0471 63.75 88.4571L65.48 87.5871L73.98 83.3471L75.22 82.7271L82.5 86.9271L84.4 85.9771L90.15 83.0971L99.7 99.5671C100.5 100.947 100.9 102.247 100.9 103.467Z" stroke="#229EFF" stroke-linejoin="round"/><path d="M34.6299 56.6571V59.2971L27.8799 55.3971L27.36 55.0971L2.72998 40.8671V38.2371C2.72998 36.4071 3.15996 34.9771 4.01996 33.9571C4.35996 33.5571 4.74994 33.2371 5.18994 33.0171L5.41998 32.9071C6.04998 32.6371 6.77999 32.5371 7.60999 32.5971C9.33999 32.7571 11.12 33.1271 12.95 33.7271C14.77 34.3271 16.69 35.1971 18.68 36.3471C20.67 37.5071 22.59 38.8371 24.41 40.3471C26.24 41.8571 28.0199 43.5371 29.7499 45.3771C31.2799 47.0171 32.47 48.8571 33.34 50.8771C33.49 51.2271 33.62 51.5671 33.73 51.9071C33.76 51.9471 33.77 51.9871 33.78 52.0271C34.35 53.6371 34.6299 55.1771 34.6299 56.6571Z" stroke="#229EFF" stroke-linejoin="round"/><path d="M54.6299 46.657V49.297L42.1599 55.537L34.6299 59.297V56.657C34.6299 55.177 34.3499 53.637 33.7799 52.027C33.7699 51.987 33.7599 51.947 33.7299 51.907C33.6199 51.567 33.4899 51.227 33.3399 50.877C32.4699 48.857 31.2799 47.017 29.7499 45.377C28.0199 43.537 26.2399 41.857 24.4099 40.347C22.5899 38.837 20.6699 37.507 18.6799 36.347C16.6899 35.197 14.7699 34.327 12.9499 33.727C11.1199 33.127 9.33992 32.757 7.60992 32.597C6.77992 32.537 6.04992 32.637 5.41992 32.907L14.6999 28.257C15.8799 29.747 17.2099 30.927 18.6799 31.777C20.8699 33.037 22.7499 33.227 24.3099 32.337L37.5499 25.717C37.9199 25.917 38.2999 26.127 38.6799 26.347C40.6699 27.507 42.5899 28.837 44.4099 30.347C46.2399 31.857 48.0199 33.537 49.7499 35.377C51.2799 37.017 52.4699 38.857 53.3399 40.877C54.1999 42.907 54.6299 44.827 54.6299 46.657Z" stroke="#229EFF" stroke-linejoin="round"/><path d="M26.6602 27.2271C26.6602 29.4971 26.0302 31.0971 24.7602 32.0371C24.6202 32.1471 24.4702 32.2471 24.3102 32.3371C22.7502 33.2271 20.8702 33.0371 18.6802 31.7771C17.2102 30.927 15.8802 29.7471 14.7002 28.2571C14.1102 27.5271 13.5602 26.7171 13.0502 25.8371C11.4802 23.1371 10.7002 20.5371 10.7002 18.0171C10.7002 15.4971 11.4802 13.7971 13.0502 12.9071C14.6102 12.0171 16.4902 12.1971 18.6802 13.4671C20.8702 14.7371 22.7502 16.7171 24.3102 19.4071C24.9702 20.5371 25.4902 21.6471 25.8602 22.7471C26.4002 24.2671 26.6602 25.7571 26.6602 27.2271Z" stroke="#229EFF" stroke-linejoin="round"/><path d="M46.6598 17.2271C46.6598 19.7471 45.8798 21.4471 44.3098 22.3371L43.8198 22.5771L37.5498 25.7171L24.8298 32.0771L24.7598 32.0371C26.0298 31.0971 26.6598 29.4971 26.6598 27.2271C26.6598 25.7571 26.3998 24.2671 25.8598 22.7471C25.4898 21.6471 24.9698 20.5371 24.3098 19.4071C22.7498 16.7171 20.8698 14.7371 18.6798 13.4671C16.4898 12.1971 14.6098 12.0171 13.0498 12.9071L33.0498 2.90705C34.6098 2.01705 36.4898 2.19705 38.6798 3.46705C40.8698 4.73705 42.7498 6.71705 44.3098 9.40705C45.8798 12.1071 46.6598 14.7071 46.6598 17.2271Z" stroke="#229EFF" stroke-linejoin="round"/><path d="M94.5199 44.8571C94.5199 47.3771 93.7399 49.0771 92.1699 49.9671L85.3999 53.3571L72.6799 59.7171L72.6099 59.6771C73.8899 58.7371 74.5199 57.1271 74.5199 54.8571C74.5199 53.3971 74.2599 51.9071 73.7199 50.3771C73.3499 49.2871 72.8299 48.1771 72.1699 47.0471C70.6099 44.3471 68.7299 42.3671 66.5399 41.0971C64.5799 39.9671 62.8599 39.6971 61.3999 40.2971L80.9099 30.5371C82.4699 29.6471 84.3499 29.8371 86.5399 31.0971C88.7299 32.3671 90.6099 34.3471 92.1699 37.0471C93.7399 39.7371 94.5199 42.3471 94.5199 44.8571Z" stroke="#229EFF" stroke-linejoin="round"/><path d="M102.5 74.2969V76.9269L90.15 83.0969L84.4 85.9769L82.4999 86.9269V84.2969C82.4999 82.7769 82.2 81.1969 81.6 79.5369C81.48 79.1969 81.35 78.8569 81.2 78.5069C80.33 76.4869 79.14 74.6469 77.61 73.0069C75.88 71.1669 74.1 69.4969 72.27 67.9769C70.45 66.4669 68.54 65.1369 66.54 63.9869C64.55 62.8369 62.64 61.9569 60.81 61.3569C58.98 60.7669 57.2 60.3869 55.47 60.2269C54.81 60.1769 54.2299 60.2269 53.6899 60.3869L62.5699 55.9069C63.7499 57.3869 65.08 58.5569 66.54 59.4069C68.73 60.6769 70.61 60.8669 72.17 59.9669L72.68 59.7169L85.4 53.3569C85.78 53.5569 86.16 53.7669 86.54 53.9869C88.54 55.1369 90.45 56.4669 92.27 57.9769C94.1 59.4969 95.88 61.1669 97.61 63.0069C99.14 64.6469 100.33 66.4869 101.2 68.5069C102.06 70.5369 102.5 72.4669 102.5 74.2969Z" stroke="#229EFF" stroke-linejoin="round"/><path d="M53.6801 60.387L52.8501 60.807" stroke="#229EFF" stroke-linejoin="round"/><path d="M42.5698 57.8872C42.5698 59.1872 42.1998 60.0372 41.4698 60.4572L37.8798 62.5072L28.0098 67.4472L17.8798 72.5072L21.4698 70.4572C22.1998 70.0372 22.5698 69.1872 22.5698 67.8872C22.5698 66.5872 22.1998 65.3172 21.4698 64.0472C20.7398 62.7872 19.8099 61.8372 18.6799 61.1772C17.6599 60.5872 16.7999 60.4372 16.1099 60.7172L27.3599 55.0972L27.8798 55.3972L34.6298 59.2972L42.1599 55.5372C42.4299 56.3172 42.5698 57.0972 42.5698 57.8872Z" stroke="#229EFF" stroke-linejoin="round"/><path d="M22.5699 91.687C22.5699 90.387 22.1999 89.107 21.4699 87.847L17.8799 81.657L31.2399 89.367L21.4699 94.257C22.1999 93.837 22.5699 92.987 22.5699 91.687Z" stroke="#229EFF" stroke-linejoin="round"/><path d="M63.7499 94.8671L67.3399 101.057L39.7399 85.1271L17.8799 72.5071L28.0099 67.4471L37.8799 62.5071L73.9799 83.3471L65.4799 87.5871L63.7499 88.4571C63.0199 88.8771 62.6499 89.7371 62.6499 91.0271C62.6499 92.3171 63.0199 93.6071 63.7499 94.8671Z" stroke="#229EFF" stroke-linejoin="round"/></svg>