<svg width="24" height="24" viewBox="0 0 131 99" fill="none" xmlns="http://www.w3.org/2000/svg" stroke-width="1px" stroke-linecap="round" stroke-linejoin="round">
    <path d="M34.3997 38.02C33.7897 34.29 32.3596 30.49 30.1196 26.62C28.1296 23.19 25.8596 20.33 23.3196 18.06C21.9196 16.8 20.4296 15.72 18.8596 14.81C14.7696 12.44 11.2396 11.94 8.28955 13.29L7.60962 13.63C4.51962 15.39 2.96973 18.8 2.96973 23.87C2.96973 28.94 4.51962 34.13 7.60962 39.46C10.6996 44.79 14.4496 48.73 18.8596 51.27C23.2796 53.82 27.0296 54.22 30.1196 52.45C33.2096 50.69 34.7498 47.28 34.7498 42.21C34.7498 40.82 34.6397 39.43 34.3997 38.02ZM22.6396 39.55C21.6196 40.13 20.3596 39.98 18.8596 39.12C17.3596 38.25 16.0996 36.94 15.0896 35.19C14.0696 33.44 13.5696 31.7 13.5696 29.98C13.5696 28.26 14.0696 27.11 15.0896 26.53C16.0996 25.95 17.3596 26.1 18.8596 26.96C20.3596 27.83 21.6196 29.14 22.6396 30.89C23.6496 32.64 24.1597 34.38 24.1597 36.1C24.1597 37.82 23.6496 38.97 22.6396 39.55Z" stroke="currentColor" stroke-linejoin="round"/>
    <path d="M24.1594 36.1001C24.1594 37.8201 23.6494 38.97 22.6394 39.55C21.6194 40.13 20.3594 39.98 18.8594 39.12C17.3594 38.25 16.0994 36.94 15.0894 35.19C14.0694 33.44 13.5693 31.7001 13.5693 29.9801C13.5693 28.2601 14.0694 27.11 15.0894 26.53C16.0994 25.95 17.3594 26.1 18.8594 26.96C20.3594 27.83 21.6194 29.14 22.6394 30.89C23.6494 32.64 24.1594 34.3801 24.1594 36.1001Z" stroke="currentColor" stroke-linejoin="round"/>
    <path d="M108.9 85.03C108.9 90.09 107.36 93.5 104.27 95.27C101.18 97.03 97.43 96.63 93.01 94.09C88.6 91.54 84.85 87.6 81.76 82.27C79.11 77.7 77.5902 73.23 77.2202 68.85C77.1502 68.13 77.1201 67.4 77.1201 66.68C77.1201 65.51 77.2001 64.43 77.3701 63.44C77.9201 60.12 79.38 57.79 81.76 56.44L82.4402 56.1C85.0402 54.91 88.0901 55.16 91.5801 56.86C92.0501 57.08 92.52 57.34 93.01 57.62C94.58 58.52 96.0702 59.61 97.4702 60.88C100.01 63.15 102.28 66.01 104.27 69.44C106.51 73.3 107.94 77.09 108.55 80.82C108.78 82.23 108.9 83.63 108.9 85.03Z" stroke="currentColor" stroke-linejoin="round"/>
    <path d="M71.48 59.4201C70.86 55.6901 69.4299 51.9001 67.1899 48.0301C65.1999 44.6001 62.9399 41.7401 60.3999 39.4701C58.9999 38.2001 57.5099 37.1201 55.9399 36.2101C55.4499 35.9301 54.97 35.67 54.5 35.45C51 33.75 47.9599 33.5 45.3599 34.69L44.6799 35.0301C42.2999 36.3801 40.8398 38.7201 40.2998 42.0301C40.1298 43.0201 40.0498 44.1 40.0498 45.27C40.0498 45.99 40.0799 46.71 40.1399 47.44C40.5199 51.82 42.0299 56.29 44.6799 60.86C47.7699 66.19 51.5199 70.13 55.9399 72.68C60.3499 75.23 64.0999 75.62 67.1899 73.86C70.2799 72.1 71.8298 68.69 71.8298 63.62C71.8298 62.23 71.71 60.8301 71.48 59.4201ZM59.71 60.9601C58.7 61.5301 57.4399 61.39 55.9399 60.52C54.4399 59.66 53.1799 58.3501 52.1599 56.6001C51.1499 54.8501 50.6399 53.11 50.6399 51.39C50.6399 49.67 51.1499 48.52 52.1599 47.94C53.1799 47.36 54.4399 47.5 55.9399 48.37C57.4399 49.24 58.7 50.54 59.71 52.3C60.73 54.05 61.24 55.78 61.24 57.5C61.24 59.22 60.73 60.3801 59.71 60.9601Z" stroke="currentColor" stroke-linejoin="round"/>
    <path d="M61.2397 57.5C61.2397 59.23 60.7297 60.38 59.7097 60.96C58.6997 61.53 57.4397 61.39 55.9397 60.52C54.4397 59.66 53.1797 58.35 52.1597 56.6C51.1497 54.85 50.6396 53.11 50.6396 51.39C50.6396 49.67 51.1497 48.52 52.1597 47.94C53.1797 47.36 54.4397 47.5 55.9397 48.37C57.4397 49.24 58.6997 50.54 59.7097 52.3C60.7297 54.05 61.2397 55.78 61.2397 57.5Z" stroke="currentColor" stroke-linejoin="round"/>
    <path d="M54.6492 30.04L45.3591 34.69L44.6792 35.03C42.2992 36.38 40.8391 38.72 40.2991 42.03C40.1291 43.02 40.0491 44.1 40.0491 45.27C40.0491 45.99 40.0792 46.71 40.1392 47.44L30.1191 52.45C33.2091 50.69 34.7493 47.28 34.7493 42.21C34.7493 40.82 34.6392 39.43 34.3992 38.02C33.7892 34.29 32.3591 30.49 30.1191 26.62C28.1291 23.19 25.8591 20.33 23.3191 18.06C21.9191 16.8 20.4291 15.72 18.8591 14.81C14.7691 12.44 11.2391 11.94 8.28906 13.29L27.6091 3.62999C30.6991 1.86999 34.4491 2.25998 38.8591 4.80998C43.2791 7.35998 47.0291 11.29 50.1191 16.62C52.7691 21.19 54.2792 25.66 54.6492 30.04Z" stroke="currentColor" stroke-linejoin="round"/>
    <path d="M91.7295 51.45L82.4395 56.1L81.7593 56.44C79.3793 57.79 77.9194 60.12 77.3694 63.44C77.1994 64.43 77.1194 65.51 77.1194 66.68C77.1194 67.4 77.1495 68.13 77.2195 68.85L67.1895 73.86C70.2795 72.1 71.8293 68.69 71.8293 63.62C71.8293 62.23 71.7095 60.83 71.4795 59.42C70.8595 55.69 69.4295 51.9 67.1895 48.03C65.1995 44.6 62.9394 41.74 60.3994 39.47C58.9994 38.2 57.5095 37.12 55.9395 36.21C55.4495 35.93 54.9695 35.67 54.4995 35.45C50.9995 33.75 47.9594 33.5 45.3594 34.69L54.6494 30.04L64.6794 25.03C67.7694 23.27 71.5195 23.66 75.9395 26.21C80.3495 28.76 84.0995 32.7 87.1895 38.03C89.8395 42.6 91.3595 47.07 91.7295 51.45Z" stroke="currentColor" stroke-linejoin="round"/>
    <path d="M128.899 75.03C128.899 80.09 127.359 83.5 124.269 85.27L123.589 85.61L104.269 95.27C107.359 93.5 108.899 90.09 108.899 85.03C108.899 83.63 108.779 82.23 108.549 80.82C107.939 77.09 106.509 73.3 104.269 69.44C102.279 66.01 100.009 63.15 97.4695 60.88C96.0695 59.61 94.5793 58.52 93.0093 57.62C92.5193 57.34 92.0493 57.08 91.5793 56.86C88.0893 55.16 85.0395 54.91 82.4395 56.1L91.7295 51.45L101.759 46.44C104.849 44.68 108.599 45.07 113.009 47.62C117.429 50.17 121.179 54.11 124.269 59.44C127.359 64.76 128.899 69.96 128.899 75.03Z" stroke="currentColor" stroke-linejoin="round"/>
</svg>