<svg width="48" height="48" viewBox="0 0 88 125" fill="none" xmlns="http://www.w3.org/2000/svg" stroke-width="1px" stroke-linecap="round" stroke-linejoin="round"><path d="M65.4503 55.1728C64.7203 50.0228 62.3703 45.1529 58.4003 40.5929C58.2903 40.4629 58.1803 40.3429 58.0603 40.2129C55.9903 37.8829 53.3603 35.4629 50.1703 32.9829C49.7803 32.6729 49.3703 32.3628 48.9603 32.0528C44.8603 28.9528 39.9103 25.7229 34.1103 22.3829C29.7903 19.8829 25.9303 17.8829 22.5303 16.3829C17.3303 14.0629 13.1903 12.9028 10.1303 12.8928C8.82031 12.8828 7.69028 13.0929 6.72028 13.5029L6.3103 13.7029C3.7903 14.9829 2.53027 17.8429 2.53027 22.2629V65.3028C2.53027 69.7628 3.86026 74.2829 6.52026 78.8829C8.76026 82.7429 11.4203 85.7729 14.5203 87.9629C15.1103 88.3929 15.7203 88.7828 16.3503 89.1428L9.9303 90.3128C9.8603 90.3228 9.78028 90.3429 9.72028 90.3629L9.54028 90.4529C9.06028 90.7329 8.93032 91.3828 9.14032 92.4028C9.40032 93.6428 10.0303 94.5529 11.0203 95.1229L57.2103 121.793C57.7403 122.103 58.1703 122.193 58.4903 122.063L58.6203 121.993C58.8303 121.853 58.9803 121.603 59.0903 121.233C59.3503 120.293 59.0903 119.293 58.3003 118.233L51.8803 109.663C55.7603 111.903 59.0403 112.263 61.7003 110.743C63.6703 109.623 64.9103 107.703 65.4203 104.983C65.6103 104.013 65.7003 102.953 65.7003 101.783V58.7329C65.7003 57.5329 65.6203 56.3428 65.4503 55.1728ZM24.4903 78.2728C23.3403 78.9228 21.9403 78.7829 20.2903 77.8329C18.6503 76.8829 17.2503 75.4128 16.1003 73.4228C14.9503 71.4428 14.3703 69.5029 14.3703 67.6129C14.3703 65.7229 14.9503 64.4528 16.1003 63.7928C17.2503 63.1428 18.6503 63.2829 20.2903 64.2329C21.9403 65.1829 23.3403 66.6528 24.4903 68.6428C25.6403 70.6228 26.2203 72.5629 26.2203 74.4529C26.2203 76.3429 25.6403 77.6128 24.4903 78.2728ZM30.1703 56.3429L22.5303 51.9328L10.4203 44.9428V31.3529L22.5303 38.3429L23.0303 38.6329L30.1703 42.7529V56.3429ZM52.1303 94.2229C50.9803 94.8829 49.5803 94.7328 47.9303 93.7828C46.2903 92.8328 44.8903 91.3729 43.7403 89.3829C42.5903 87.3929 42.0103 85.4629 42.0103 83.5729C42.0103 81.6829 42.5903 80.4129 43.7403 79.7529C44.8903 79.0929 46.2903 79.2428 47.9303 80.1928C49.5803 81.1428 50.9803 82.6129 52.1303 84.6029C53.2803 86.5829 53.8603 88.5228 53.8603 90.4128C53.8603 92.3028 53.2803 93.5729 52.1303 94.2229ZM57.8003 72.3028L46.1303 65.5628L38.0603 60.9028V47.3128L50.6603 54.5929L57.8003 58.7129V72.3028Z" stroke="#229EFF" stroke-linejoin="round"/><path d="M26.2201 74.4529C26.2201 76.3429 25.6401 77.6129 24.4901 78.2729C23.3401 78.9229 21.9401 78.7829 20.2901 77.8329C18.6501 76.8829 17.2501 75.4129 16.1001 73.4229C14.9501 71.4429 14.3701 69.503 14.3701 67.613C14.3701 65.723 14.9501 64.4529 16.1001 63.7929C17.2501 63.1429 18.6501 63.283 20.2901 64.233C21.9401 65.183 23.3401 66.6529 24.4901 68.6429C25.6401 70.6229 26.2201 72.5629 26.2201 74.4529Z" stroke="#229EFF" stroke-linejoin="round"/><path d="M52.1307 84.6029C50.9807 82.6129 49.5807 81.1429 47.9307 80.1929C46.2907 79.2429 44.8907 79.0929 43.7407 79.7529C42.5907 80.4129 42.0107 81.6829 42.0107 83.5729C42.0107 85.4629 42.5907 87.3929 43.7407 89.3829C44.8907 91.3729 46.2907 92.8328 47.9307 93.7828C49.5807 94.7328 50.9807 94.8829 52.1307 94.2229C53.2807 93.5729 53.8607 92.2928 53.8607 90.4128C53.8607 88.5328 53.2807 86.5829 52.1307 84.6029Z" stroke="#229EFF" stroke-linejoin="round"/><path d="M23.0309 38.6329L10.4209 44.9429V31.3529L22.5309 38.3429L23.0309 38.6329Z" stroke="#229EFF" stroke-linejoin="round"/><path d="M30.1709 42.7529V56.3429L22.5309 51.9329L10.4209 44.9429L23.0309 38.6329L30.1709 42.7529Z" stroke="#229EFF" stroke-linejoin="round"/><path d="M50.6605 54.5929L38.0605 60.8928V47.3129L50.6605 54.5929Z" stroke="#229EFF" stroke-linejoin="round"/><path d="M57.8005 58.7129V72.3029L46.1306 65.5629L38.0605 60.9028V60.8928L50.6605 54.5929L57.8005 58.7129Z" stroke="#229EFF" stroke-linejoin="round"/><path d="M85.7007 48.7329V91.7828C85.7007 96.2328 84.3707 99.2229 81.7007 100.743L81.1907 101.003L75.1407 104.023L69.0407 107.073L61.7007 110.743C63.6707 109.623 64.9107 107.703 65.4207 104.983C65.6107 104.013 65.7007 102.953 65.7007 101.783V58.7329C65.7007 57.5329 65.6207 56.3429 65.4507 55.1729C64.7207 50.0229 62.3707 45.1529 58.4007 40.5929C58.2907 40.4629 58.1807 40.3429 58.0607 40.2129C55.9907 37.8829 53.3607 35.4629 50.1707 32.9829C49.7807 32.6729 49.3707 32.3629 48.9607 32.0529C44.8607 28.9529 39.9107 25.7229 34.1107 22.3829C29.7907 19.8829 25.9307 17.8829 22.5307 16.3829C17.3307 14.0629 13.1907 12.9028 10.1307 12.8928C8.82074 12.8828 7.6907 13.0929 6.7207 13.5029L26.1007 3.80286L26.2207 3.74293C27.2907 3.17293 28.5907 2.88283 30.1307 2.89283C35.1907 2.91283 43.1907 6.07294 54.1107 12.3829C65.4307 18.9129 73.5307 24.9829 78.4007 30.5929C83.2707 36.1929 85.7007 42.2429 85.7007 48.7329Z" stroke="#229EFF" stroke-linejoin="round"/><path d="M79.0898 111.233C78.9698 111.653 78.7798 111.923 78.5198 112.043L58.6199 121.993C58.8299 121.853 58.9798 121.603 59.0898 121.233C59.3498 120.293 59.0899 119.293 58.2999 118.233L51.8799 109.663C55.7599 111.903 59.0399 112.263 61.6999 110.743L69.0399 107.073L75.1399 104.023L78.2999 108.233C79.0899 109.293 79.3498 110.293 79.0898 111.233Z" stroke="#229EFF" stroke-linejoin="round"/><path d="M16.3507 89.1428L9.93073 90.3129C9.86073 90.3229 9.7807 90.3429 9.7207 90.3629L14.5207 87.9629C15.1107 88.3929 15.7207 88.7828 16.3507 89.1428Z" stroke="#229EFF" stroke-linejoin="round"/><path d="M9.72003 90.3629L9.54004 90.4529" stroke="#229EFF" stroke-linejoin="round"/></svg>