<svg viewBox="0 0 87 118" fill="none" xmlns="http://www.w3.org/2000/svg" height="48" width="48" stroke-width="1px"
     stroke-linecap="round" stroke-linejoin="round">
    <path d="M14.9397 84.4403C13.9297 83.1003 12.6998 82.0103 11.2598 81.1703C9.80977 80.3403 8.58959 80.0103 7.57959 80.1903C7.35959 80.2303 7.16976 80.2903 6.99976 80.3803L6.86963 80.4403C6.32963 80.7603 6.05981 81.3303 6.05981 82.1503C6.05981 83.1403 6.56959 84.0203 7.57959 84.7603C8.58959 85.5103 9.80977 86.3003 11.2598 87.1403C12.6998 87.9703 13.9297 88.6003 14.9397 89.0103C15.4897 89.2403 15.8896 89.2603 16.1396 89.0603H16.1597C16.3497 88.8903 16.4497 88.5903 16.4497 88.1503C16.4497 87.0203 15.9497 85.7903 14.9397 84.4403Z" stroke="currentColor" stroke-linejoin="round"/>
    <path d="M61.4897 114.15C61.4897 114.65 61.3596 114.97 61.1096 115.11L61.0796 115.13C60.8296 115.26 60.4597 115.22 59.9797 115.02C58.9697 114.6 57.7398 113.97 56.2998 113.14C54.8498 112.31 53.6296 111.52 52.6196 110.77C51.5996 110.02 51.0996 109.15 51.0996 108.15C51.0996 107.29 51.3897 106.7 51.9897 106.4C52.1697 106.31 52.3796 106.24 52.6196 106.2C53.6296 106.02 54.8498 106.34 56.2998 107.18C57.7398 108.01 58.9697 109.1 59.9797 110.45C60.9897 111.79 61.4897 113.03 61.4897 114.15Z" stroke="currentColor" stroke-linejoin="round"/>
    <path d="M44.1697 104.15C44.1697 104.67 44.0298 104.99 43.7598 105.13C43.5098 105.25 43.1397 105.22 42.6497 105.02C41.6397 104.6 40.4197 103.97 38.9697 103.14C37.5297 102.31 36.2998 101.52 35.2898 100.77C34.6098 100.26 34.1597 99.7001 33.9397 99.0801C33.8297 98.7801 33.7798 98.4701 33.7798 98.1501C33.7798 97.2801 34.0797 96.6801 34.6997 96.3901L34.8198 96.3301C34.9598 96.2601 35.1198 96.2201 35.2898 96.1901C36.1598 96.0401 37.1896 96.2601 38.3796 96.8601C38.5696 96.9501 38.7697 97.0601 38.9697 97.1801C40.4197 98.0101 41.6397 99.1001 42.6497 100.44C43.6697 101.79 44.1697 103.03 44.1697 104.15Z" stroke="currentColor" stroke-linejoin="round"/>
    <path d="M30.3098 100.131C30.3098 100.631 30.1797 100.951 29.9297 101.081L29.8997 101.101C29.6497 101.231 29.2798 101.191 28.7998 100.991C27.7898 100.571 26.5596 99.9507 25.1196 99.1107C23.6696 98.2807 22.4497 97.4907 21.4297 96.7407C20.4197 95.9907 19.9197 95.1207 19.9197 94.1307C19.9197 93.4207 20.1198 92.9007 20.5098 92.5707C20.6098 92.4907 20.7296 92.4107 20.8596 92.3607L20.9597 92.3107C21.0197 92.2807 21.0796 92.2607 21.1396 92.2507H21.1797C21.2597 92.2007 21.3397 92.1907 21.4297 92.1707C22.4497 91.9907 23.6696 92.3207 25.1196 93.1507C26.5596 93.9807 27.7898 95.0707 28.7998 96.4207C29.8098 97.7607 30.3098 99.0007 30.3098 100.131Z" stroke="currentColor" stroke-linejoin="round"/>
    <path d="M55.2598 56.8808L42.2998 49.4008L34.0698 44.6508L22.5996 38.0308L12.2998 32.0808L22.5996 26.9308L23.3696 26.5508L51.6196 42.8608L55.2598 56.8808Z" stroke="currentColor" stroke-linejoin="round"/>
    <path d="M81.4897 104.151C81.4897 104.661 81.3596 104.991 81.0896 105.131H81.0698L61.1096 115.111C61.3596 114.971 61.4897 114.651 61.4897 114.151C61.4897 113.031 60.9897 111.791 59.9797 110.451C58.9697 109.101 57.7398 108.011 56.2998 107.181C54.8498 106.341 53.6296 106.021 52.6196 106.201C52.3796 106.241 52.1697 106.311 51.9897 106.401L59.1497 102.821C59.3497 102.961 59.5498 103.091 59.7598 103.211C61.1998 104.051 62.4297 104.181 63.4397 103.601L71.4897 99.5709L76.2898 97.1709V97.1809C77.7298 98.0109 78.9597 99.1009 79.9697 100.451C80.9797 101.791 81.4797 103.031 81.4797 104.151H81.4897Z" stroke="currentColor" stroke-linejoin="round"/>
    <path d="M64.7798 70.3904C64.6698 69.6904 64.5196 68.9604 64.3496 68.2004L57.6797 42.3804C57.3397 40.9904 56.7198 39.6704 55.8198 38.4204C54.9298 37.1804 53.9296 36.2404 52.8296 35.6104L30.7498 22.8604L24.5298 19.2704L14.7197 13.6004C13.6197 12.9704 12.6297 12.7604 11.7297 12.9704C11.5097 13.0204 11.2996 13.1004 11.1096 13.2004C10.5496 13.5104 10.1296 14.0404 9.86963 14.7804L3.19971 32.8904C3.02971 33.4604 2.87978 34.0204 2.76978 34.5804C2.64978 35.1404 2.59961 35.7604 2.59961 36.4204V64.2504C2.59961 65.9004 3.09962 67.6003 4.10962 69.3503C5.11962 71.0903 6.34979 72.3804 7.78979 73.2104C9.23979 74.0404 10.4597 74.1703 11.4697 73.6003C12.4797 73.0203 12.9897 71.9004 12.9897 70.2504V68.2604L17.2397 70.7104L21.4697 73.1604L31.3997 78.8904L31.4297 78.9104L33.7397 80.2404L38.9998 83.2803L39.9397 83.8204L43.7097 86.0004L49.1797 89.1504L50.2898 89.8004L54.5598 92.2604V94.2504C54.5598 95.8104 55.0097 97.4104 55.9097 99.0404C55.9597 99.1404 56.0196 99.2503 56.0796 99.3503C56.9396 100.84 57.9697 102 59.1497 102.82C59.3497 102.96 59.5498 103.09 59.7598 103.21C61.1998 104.05 62.4297 104.18 63.4397 103.6C64.4497 103.02 64.9597 101.91 64.9597 100.25V72.4204C64.9597 71.7604 64.8998 71.0804 64.7798 70.3904ZM23.2698 57.6003C23.0698 58.6003 22.5996 59.3004 21.8696 59.7204C20.8596 60.3004 19.6297 60.1704 18.1897 59.3304C16.7397 58.5004 15.5198 57.2104 14.5098 55.4704C13.4998 53.7304 12.9897 52.0304 12.9897 50.3704C12.9897 48.7104 13.4998 47.6004 14.5098 47.0204C15.5198 46.4504 16.7397 46.5704 18.1897 47.4104C19.6297 48.2404 20.8596 49.5304 21.8696 51.2704C22.1596 51.7704 22.3996 52.2604 22.5996 52.7504C23.1196 53.9804 23.3796 55.1804 23.3796 56.3704C23.3796 56.8204 23.3398 57.2303 23.2698 57.6003ZM53.0498 77.7204C52.0398 78.3004 50.8096 78.1704 49.3696 77.3404C47.9196 76.5004 46.6997 75.2104 45.6897 73.4704C45.4497 73.0504 45.2298 72.6404 45.0498 72.2204C44.4598 70.9204 44.1697 69.6304 44.1697 68.3704C44.1697 66.9804 44.5298 65.9704 45.2498 65.3404C45.3798 65.2204 45.5297 65.1104 45.6897 65.0204C46.6997 64.4504 47.9196 64.5804 49.3696 65.4104C50.8096 66.2404 52.0398 67.5304 53.0498 69.2704C53.2098 69.5504 53.3597 69.8204 53.4797 70.0904C54.2097 71.5504 54.5598 72.9804 54.5598 74.3704C54.5598 76.0304 54.0598 77.1504 53.0498 77.7204ZM42.2998 49.4004L34.0698 44.6504L22.5996 38.0304L12.2998 32.0804L15.9297 22.2504L22.6096 26.1104L23.3696 26.5504L51.6196 42.8604L55.2598 56.8804L42.2998 49.4004Z" stroke="currentColor" stroke-linejoin="round"/>
    <path d="M23.3796 56.37C23.3796 56.82 23.3398 57.23 23.2698 57.6C23.0698 58.6 22.5996 59.3 21.8696 59.72C20.8596 60.3 19.6297 60.17 18.1897 59.33C16.7397 58.5 15.5198 57.21 14.5098 55.47C13.4998 53.73 12.9897 52.03 12.9897 50.37C12.9897 48.71 13.4998 47.6 14.5098 47.02C15.5198 46.45 16.7397 46.57 18.1897 47.41C19.6297 48.24 20.8596 49.53 21.8696 51.27C22.1596 51.77 22.3996 52.26 22.5996 52.75C23.1196 53.98 23.3796 55.18 23.3796 56.37Z" stroke="currentColor" stroke-linejoin="round"/>
    <path d="M54.5598 74.37C54.5598 76.03 54.0598 77.15 53.0498 77.72C52.0398 78.3 50.8096 78.17 49.3696 77.34C47.9196 76.5 46.6997 75.21 45.6897 73.47C45.4497 73.05 45.2298 72.64 45.0498 72.22C44.4598 70.92 44.1697 69.63 44.1697 68.37C44.1697 66.98 44.5298 65.97 45.2498 65.34C45.3798 65.22 45.5297 65.11 45.6897 65.02C46.6997 64.45 47.9196 64.58 49.3696 65.41C50.8096 66.24 52.0398 67.53 53.0498 69.27C53.2098 69.55 53.3597 69.82 53.4797 70.09C54.2097 71.55 54.5598 72.98 54.5598 74.37Z" stroke="currentColor" stroke-linejoin="round"/>
    <path d="M23.3696 26.55L22.5996 26.93L12.2998 32.08L15.9297 22.25L22.6096 26.11L23.3696 26.55Z" stroke="currentColor" stroke-linejoin="round"/>
    <path d="M44.1697 104.15C44.1697 103.03 43.6697 101.79 42.6497 100.44C41.6397 99.1004 40.4197 98.0104 38.9697 97.1804C38.7697 97.0604 38.5696 96.9504 38.3796 96.8604C37.1896 96.2604 36.1598 96.0404 35.2898 96.1904C35.1198 96.2204 34.9598 96.2604 34.8198 96.3304L47.0896 90.1904H47.0996L49.1797 89.1504L50.2898 89.8004L54.5598 92.2604V94.2504C54.5598 95.8104 55.0097 97.4104 55.9097 99.0404L43.7598 105.13C44.0298 104.99 44.1697 104.67 44.1697 104.15Z" stroke="currentColor" stroke-linejoin="round"/>
    <path d="M43.7097 86.0006L41.7498 86.9706L33.5298 91.0506C33.6998 90.8806 33.7798 90.6006 33.7798 90.2006C33.7798 89.1106 33.2996 87.9206 32.3496 86.6206C32.3296 86.5806 32.2898 86.5306 32.2598 86.4906C31.2498 85.1506 30.0196 84.0606 28.5796 83.2206C28.4496 83.1506 28.3297 83.0806 28.2097 83.0206H28.1997C26.9197 82.3406 25.8197 82.0806 24.8997 82.2406C24.7997 82.2606 24.7096 82.2806 24.6196 82.3106C24.5596 82.3206 24.5097 82.3406 24.4597 82.3606L31.3997 78.8906L31.4297 78.9106L33.7397 80.2406L38.9998 83.2806L39.9397 83.8206L43.7097 86.0006Z" stroke="currentColor" stroke-linejoin="round"/>
    <path d="M49.1797 89.15L47.0996 90.19H47.0896L34.8198 96.33L34.6997 96.39C34.0797 96.68 33.7798 97.28 33.7798 98.15C33.7798 98.47 33.8297 98.78 33.9397 99.08L29.9297 101.08C30.1797 100.95 30.3098 100.63 30.3098 100.13C30.3098 99 29.8098 97.76 28.7998 96.42C27.7898 95.07 26.5596 93.98 25.1196 93.15C23.6696 92.32 22.4497 91.99 21.4297 92.17C21.3397 92.19 21.2597 92.2 21.1797 92.24H21.1396C21.0796 92.26 21.0197 92.28 20.9597 92.31L27.8997 88.79C27.8997 88.79 27.9397 88.82 27.9597 88.83C28.1597 88.94 28.3696 89.07 28.5796 89.19C30.0196 90.02 31.2498 90.65 32.2598 91.07C32.8598 91.32 33.2898 91.31 33.5298 91.05L41.7498 86.97L43.7097 86L49.1797 89.15Z" stroke="currentColor" stroke-linejoin="round"/>
    <path d="M17.2397 70.7107L11.4697 73.6007C12.4797 73.0207 12.9897 71.9007 12.9897 70.2507V68.2607L17.2397 70.7107Z" stroke="currentColor" stroke-linejoin="round"/>
    <path d="M84.9597 62.4204V90.2504C84.9597 91.9104 84.4497 93.0203 83.4397 93.6003L83.1196 93.7604L76.2898 97.1704L71.4897 99.5704L63.4397 103.6C64.4497 103.02 64.9597 101.91 64.9597 100.25V72.4204C64.9597 71.7604 64.8998 71.0804 64.7798 70.3904C64.6698 69.6904 64.5196 68.9604 64.3496 68.2004L57.6797 42.3804C57.3397 40.9904 56.7198 39.6704 55.8198 38.4204C54.9298 37.1804 53.9296 36.2404 52.8296 35.6104L30.7498 22.8603L24.5298 19.2703L14.7197 13.6004C13.6197 12.9704 12.6297 12.7604 11.7297 12.9704C11.5097 13.0204 11.2996 13.1004 11.1096 13.2004L31.0298 3.25035L31.2598 3.14035H31.2698C31.4098 3.06035 31.5697 3.01035 31.7297 2.97035C32.6297 2.76035 33.6197 2.97035 34.7197 3.60035L72.8296 25.6103C73.9296 26.2403 74.9298 27.1804 75.8198 28.4204C76.7198 29.6704 77.3397 30.9904 77.6797 32.3804L84.3496 58.2004C84.5196 58.9604 84.6698 59.6904 84.7798 60.3904C84.8998 61.0804 84.9597 61.7604 84.9597 62.4204Z" stroke="currentColor" stroke-linejoin="round"/>
    <path d="M33.7798 90.2C33.7798 90.6 33.6998 90.88 33.5298 91.05C33.2898 91.31 32.8598 91.32 32.2598 91.07C31.2498 90.65 30.0196 90.02 28.5796 89.19C28.3696 89.07 28.1597 88.94 27.9597 88.83C27.9397 88.83 27.9197 88.81 27.8997 88.79C26.7397 88.1 25.7397 87.4401 24.8997 86.8101C24.2897 86.3601 23.8596 85.86 23.6096 85.32C23.4596 84.96 23.3796 84.59 23.3796 84.2C23.3796 83.46 23.5998 82.92 24.0398 82.6C24.1198 82.54 24.2098 82.48 24.3098 82.43L24.4597 82.36C24.5097 82.34 24.5596 82.3201 24.6196 82.3101C24.7096 82.2801 24.7997 82.2601 24.8997 82.2401C25.8197 82.0801 26.9197 82.34 28.1997 83.02H28.2097C28.3297 83.08 28.4496 83.15 28.5796 83.22C30.0196 84.06 31.2498 85.1501 32.2598 86.4901C32.2898 86.5301 32.3296 86.58 32.3496 86.62C33.2996 87.92 33.7798 89.11 33.7798 90.2Z" stroke="currentColor" stroke-linejoin="round"/>
    <path d="M31.3997 78.8902L24.4597 82.3602L24.3098 82.4302C24.2098 82.4802 24.1198 82.5402 24.0398 82.6002C23.5998 82.9202 23.3796 83.4602 23.3796 84.2002C23.3796 84.5902 23.4596 84.9602 23.6096 85.3202L16.1597 89.0502C16.3497 88.8902 16.4497 88.5902 16.4497 88.1502C16.4497 87.0202 15.9497 85.7902 14.9397 84.4402C13.9297 83.1002 12.6998 82.0102 11.2598 81.1702C9.80977 80.3402 8.58959 80.0102 7.57959 80.1902C7.35959 80.2302 7.16976 80.2902 6.99976 80.3802L21.4697 73.1602L31.3997 78.8902Z" stroke="currentColor" stroke-linejoin="round"/>
    <path d="M16.1597 89.0508L16.1396 89.0608" stroke="currentColor" stroke-linejoin="round"/>
    <path d="M24.3098 82.4307L24.2598 82.4507" stroke="currentColor" stroke-linejoin="round"/>
</svg>