<svg xmlns="http://www.w3.org/2000/svg" viewBox="0 0 448 512"><!--! Font Awesome Pro 6.7.2 by @fontawesome - https://fontawesome.com License - https://fontawesome.com/license (Commercial License) Copyright 2024 Fonticons, Inc. --><defs><style>.fa-secondary{opacity:.4}</style></defs><path class="fa-secondary" d="M32 80c0 21.3 0 42.7 0 64c8.8 0 16 7.2 16 16s-7.2 16-16 16c0 21.3 0 42.7 0 64c8.8 0 16 7.2 16 16s-7.2 16-16 16c0 21.3 0 42.7 0 64c8.8 0 16 7.2 16 16s-7.2 16-16 16c0 32 0 64 0 96c120 0 240 0 360 0c22.1 0 40-17.9 40-40l0-360-96 0c0 8.8-7.2 16-16 16s-16-7.2-16-16l-64 0c0 8.8-7.2 16-16 16s-16-7.2-16-16l-64 0c0 8.8-7.2 16-16 16s-16-7.2-16-16L48 64c0 8.8-7.2 16-16 16z"/><path class="fa-primary" d="M448 56c0-4.4-3.6-8-8-8s-8 3.6-8 8l0 368c0 22.1-17.9 40-40 40L24 464c-4.4 0-8 3.6-8 8s3.6 8 8 8l368 0c30.9 0 56-25.1 56-56l0-368zM320 80a16 16 0 1 0 0-32 16 16 0 1 0 0 32zM128 80a16 16 0 1 0 0-32 16 16 0 1 0 0 32zm96-32a16 16 0 1 0 0 32 16 16 0 1 0 0-32zM32 80a16 16 0 1 0 0-32 16 16 0 1 0 0 32zm0 160a16 16 0 1 0 0 32 16 16 0 1 0 0-32zm0-64a16 16 0 1 0 0-32 16 16 0 1 0 0 32zm0 160a16 16 0 1 0 0 32 16 16 0 1 0 0-32z"/></svg>