<svg xmlns="http://www.w3.org/2000/svg" viewBox="0 0 512 512"><!--! Font Awesome Pro 6.7.2 by @fontawesome - https://fontawesome.com License - https://fontawesome.com/license (Commercial License) Copyright 2024 Fonticons, Inc. --><defs><style>.fa-secondary{opacity:.4}</style></defs><path class="fa-secondary" d="M16 256a240 240 0 1 0 480 0A240 240 0 1 0 16 256zm145.4 92.5c-2.5-3.7-1.5-8.6 2.2-11.1s8.6-1.5 11.1 2.2c11.9 17.7 31.9 28.5 53.2 28.5l53.1 0c30.4 0 55.1-24.7 55.1-55.1c0-28.5-21.7-52.3-50.1-54.9L175.3 248c-2.3-.2-4.4-1.4-5.8-3.3s-1.8-4.2-1.3-6.5l24-104c.8-3.6 4.1-6.2 7.8-6.2l128 0c4.4 0 8 3.6 8 8s-3.6 8-8 8l-121.6 0-20.5 88.9 101.5 9.3c36.6 3.3 64.6 34 64.6 70.8c0 39.3-31.8 71.1-71.1 71.1l-53.1 0c-26.7 0-51.7-13.4-66.5-35.5z"/><path class="fa-primary" d="M256 16a240 240 0 1 1 0 480 240 240 0 1 1 0-480zm0 496A256 256 0 1 0 256 0a256 256 0 1 0 0 512zM200 128c-3.7 0-7 2.6-7.8 6.2l-24 104c-.5 2.3 0 4.6 1.3 6.5s3.5 3.1 5.8 3.3l110.7 10.1c28.4 2.6 50.1 26.4 50.1 54.9c0 30.4-24.7 55.1-55.1 55.1l-53.1 0c-21.3 0-41.3-10.7-53.2-28.5c-2.5-3.7-7.4-4.6-11.1-2.2s-4.6 7.4-2.2 11.1c14.8 22.1 39.8 35.5 66.5 35.5l53.1 0c39.3 0 71.1-31.8 71.1-71.1c0-36.8-28-67.4-64.6-70.8l-101.5-9.3L206.4 144 328 144c4.4 0 8-3.6 8-8s-3.6-8-8-8l-128 0z"/></svg>