<svg xmlns="http://www.w3.org/2000/svg" width="24" height="24" viewBox="0 0 512 512">
    <path class="pr-icon-duotone-secondary" d="M16 256a240 240 0 1 0 480 0A240 240 0 1 0 16 256zm130.3 10.3c3.1-3.1 8.2-3.1 11.3 0L248 356.7 248 136c0-4.4 3.6-8 8-8s8 3.6 8 8l0 220.7 90.3-90.3c3.1-3.1 8.2-3.1 11.3 0s3.1 8.2 0 11.3l-104 104c-3.1 3.1-8.2 3.1-11.3 0l-104-104c-3.1-3.1-3.1-8.2 0-11.3z"/>
    <path class="pr-icon-duotone-primary" d="M256 16a240 240 0 1 0 0 480 240 240 0 1 0 0-480zm0 496A256 256 0 1 1 256 0a256 256 0 1 1 0 512zM365.7 277.7l-104 104c-3.1 3.1-8.2 3.1-11.3 0l-104-104c-3.1-3.1-3.1-8.2 0-11.3s8.2-3.1 11.3 0L248 356.7 248 136c0-4.4 3.6-8 8-8s8 3.6 8 8l0 220.7 90.3-90.3c3.1-3.1 8.2-3.1 11.3 0s3.1 8.2 0 11.3z"/>
</svg>