<svg xmlns="http://www.w3.org/2000/svg" width="24" height="24" viewBox="0 0 512 512">
    <path class="pr-icon-duotone-secondary" d="M16 256a240 240 0 1 0 480 0A240 240 0 1 0 16 256zm176-88c0-4.4 3.6-8 8-8s8 3.6 8 8l0 176c0 4.4-3.6 8-8 8s-8-3.6-8-8l0-176zm112 0c0-4.4 3.6-8 8-8s8 3.6 8 8l0 176c0 4.4-3.6 8-8 8s-8-3.6-8-8l0-176z"/>
    <path class="pr-icon-duotone-primary" d="M496 256A240 240 0 1 0 16 256a240 240 0 1 0 480 0zM0 256a256 256 0 1 1 512 0A256 256 0 1 1 0 256zm208-88l0 176c0 4.4-3.6 8-8 8s-8-3.6-8-8l0-176c0-4.4 3.6-8 8-8s8 3.6 8 8zm112 0l0 176c0 4.4-3.6 8-8 8s-8-3.6-8-8l0-176c0-4.4 3.6-8 8-8s8 3.6 8 8z"/>
</svg>