<svg xmlns="http://www.w3.org/2000/svg" width="24" height="24" viewBox="0 0 512 512">
    <path class="pr-icon-duotone-secondary" d="M23 239c-9.4 9.4-9.4 24.6 0 33.9L239 489c9.4 9.4 24.6 9.4 33.9 0L489 273c9.4-9.4 9.4-24.6 0-33.9L273 23c-9.4-9.4-24.6-9.4-33.9 0L23 239z"/>
    <path class="pr-icon-duotone-primary" d="M239 23c9.4-9.4 24.6-9.4 33.9 0L489 239c9.4 9.4 9.4 24.6 0 33.9L273 489c-9.4 9.4-24.6 9.4-33.9 0L23 273c-9.4-9.4-9.4-24.6 0-33.9L239 23zm45.3-11.3c-15.6-15.6-40.9-15.6-56.6 0l-216 216c-15.6 15.6-15.6 40.9 0 56.6l216 216c15.6 15.6 40.9 15.6 56.6 0l216-216c15.6-15.6 15.6-40.9 0-56.6l-216-216z"/>
</svg>