<svg xmlns="http://www.w3.org/2000/svg" viewBox="0 0 512 512"><!--! Font Awesome Pro 6.7.2 by @fontawesome - https://fontawesome.com License - https://fontawesome.com/license (Commercial License) Copyright 2024 Fonticons, Inc. --><defs><style>.fa-secondary{opacity:.4}</style></defs><path class="fa-secondary" d="M16 256a240 240 0 1 0 480 0A240 240 0 1 0 16 256zM137.4 387.4c22.4-32 61.9-67.4 118.6-67.4s96.1 35.4 118.6 67.4c2.5 3.6 1.7 8.6-2 11.1s-8.6 1.7-11.1-2C340.6 366.8 305.4 336 256 336s-84.6 30.8-105.4 60.6c-2.5 3.6-7.5 4.5-11.1 2s-4.5-7.5-2-11.1zM192.4 208a16 16 0 1 1 -32 0 16 16 0 1 1 32 0zm160 0a16 16 0 1 1 -32 0 16 16 0 1 1 32 0z"/><path class="fa-primary" d="M496 256A240 240 0 1 0 16 256a240 240 0 1 0 480 0zM0 256a256 256 0 1 1 512 0A256 256 0 1 1 0 256zM361.4 396.6C340.6 366.8 305.4 336 256 336s-84.6 30.8-105.4 60.6c-2.5 3.6-7.5 4.5-11.1 2s-4.5-7.5-2-11.1c22.4-32 61.9-67.4 118.6-67.4s96.1 35.4 118.6 67.4c2.5 3.6 1.7 8.6-2 11.1s-8.6 1.7-11.1-2zM160.4 208a16 16 0 1 1 32 0 16 16 0 1 1 -32 0zm176-16a16 16 0 1 1 0 32 16 16 0 1 1 0-32z"/></svg>