<svg xmlns="http://www.w3.org/2000/svg" viewBox="0 0 512 512"><!--! Font Awesome Pro 6.7.2 by @fontawesome - https://fontawesome.com License - https://fontawesome.com/license (Commercial License) Copyright 2024 Fonticons, Inc. --><defs><style>.fa-secondary{opacity:.4}</style></defs><path class="fa-secondary" d="M16 256c0 132.5 107.5 240 240 240c70.1 0 133.2-30.1 177.1-78c-.7-5.3-1.1-10.7-1.1-16.1l0-129.9c-15.7 37.5-52.8 63.9-96 63.9c-57.4 0-104-46.6-104-104s46.6-104 104-104c54.7 0 99.6 42.3 103.7 96c4.7 0 8.3 3.6 8.3 8l0 168c30.1-40.1 48-90 48-144C496 123.5 388.5 16 256 16S16 123.5 16 256zm144.4-80a16 16 0 1 1 -32 0 16 16 0 1 1 32 0zM160 360c0-4.4 3.6-8 8-8c16.8 0 43.4 3.3 69.3 13.3c25.8 10 51.8 27 65.9 55.1c2 4 .4 8.8-3.6 10.7s-8.8 .4-10.7-3.6c-11.6-23.1-33.5-38.1-57.3-47.3C207.8 371.1 183.2 368 168 368c-4.4 0-8-3.6-8-8zM265.8 117c-2.8-3.4-2.2-8.5 1.2-11.2l23.2-18.6C302.5 77.3 317.8 72 333.5 72c13.7 0 27 4 38.4 11.6l8.6 5.7c3.7 2.5 4.7 7.4 2.2 11.1s-7.4 4.7-11.1 2.2L363 96.9c-8.7-5.8-19-8.9-29.5-8.9c-12.1 0-23.8 4.1-33.2 11.7L277 118.2c-3.4 2.8-8.5 2.2-11.2-1.2z"/><path class="fa-primary" d="M448 400l0-168c0-4.4-3.6-8-8-8l-.3 0c-4.1-53.7-48.9-96-103.7-96c-57.4 0-104 46.6-104 104s46.6 104 104 104c43.2 0 80.3-26.4 96-63.9l0 129.9c0 5.4 .4 10.8 1.1 16.1c-43.9 47.9-107 78-177.1 78C123.5 496 16 388.5 16 256S123.5 16 256 16s240 107.5 240 240c0 54-17.9 103.9-48 144zm2.1 22.9C488.7 378.1 512 319.8 512 256C512 114.6 397.4 0 256 0S0 114.6 0 256S114.6 512 256 512c70.8 0 134.9-28.7 181.2-75.2c8.3 27.4 26.3 51.3 51.2 66.8l11.4 7.1c3.7 2.3 8.7 1.2 11-2.5s1.2-8.7-2.5-11l-11.4-7.1c-24.4-15.2-41.1-39.7-46.7-67.2zM160.4 176a16 16 0 1 0 -32 0 16 16 0 1 0 32 0zm144 48a16 16 0 1 0 0-32 16 16 0 1 0 0 32zM336 144a88 88 0 1 1 0 176 88 88 0 1 1 0-176zM160 360c0 4.4 3.6 8 8 8c15.2 0 39.8 3.1 63.5 12.3c23.8 9.2 45.8 24.2 57.3 47.3c2 4 6.8 5.6 10.7 3.6s5.6-6.8 3.6-10.7c-14-28.1-40.1-45.1-65.9-55.1c-25.8-10-52.4-13.3-69.3-13.3c-4.4 0-8 3.6-8 8zM300.2 99.7c9.4-7.5 21.2-11.7 33.2-11.7c10.5 0 20.8 3.1 29.5 8.9l8.6 5.7c3.7 2.5 8.6 1.5 11.1-2.2s1.5-8.6-2.2-11.1l-8.6-5.7C360.5 76 347.1 72 333.5 72c-15.7 0-31 5.3-43.2 15.2L267 105.8c-3.5 2.8-4 7.8-1.2 11.2s7.8 4 11.2 1.2l23.2-18.6z"/></svg>