<svg xmlns="http://www.w3.org/2000/svg" viewBox="0 0 384 512"><!--! Font Awesome Pro 6.7.2 by @fontawesome - https://fontawesome.com License - https://fontawesome.com/license (Commercial License) Copyright 2024 Fonticons, Inc. --><defs><style>.fa-secondary{opacity:.4}</style></defs><path class="fa-secondary" d="M16 64l0 384c0 26.5 21.5 48 48 48l256 0c26.5 0 48-21.5 48-48l0-268.1c0-1.3-.1-2.6-.2-3.9L248 176c-22.1 0-40-17.9-40-40l0-119.8c-1.3-.2-2.6-.2-3.9-.2L64 16C37.5 16 16 37.5 16 64zM96 232c0-4.4 3.6-8 8-8l72 0c26.5 0 48 21.5 48 48c0 23-16.2 42.2-37.8 46.9L240 372.7l42.3-42.3c3.1-3.1 8.2-3.1 11.3 0s3.1 8.2 0 11.3L251.3 384l42.3 42.3c3.1 3.1 3.1 8.2 0 11.3s-8.2 3.1-11.3 0L240 395.3l-42.3 42.3c-3.1 3.1-8.2 3.1-11.3 0s-3.1-8.2 0-11.3L228.7 384l-64-64L112 320l0 72c0 4.4-3.6 8-8 8s-8-3.6-8-8l0-80 0-80zm16 8l0 64 56 0 8 0c17.7 0 32-14.3 32-32s-14.3-32-32-32l-64 0z"/><path class="fa-primary" d="M64 496c-26.5 0-48-21.5-48-48L16 64c0-26.5 21.5-48 48-48l140.1 0c1.3 0 2.6 .1 3.9 .2L208 136c0 22.1 17.9 40 40 40l119.8 0c.2 1.3 .2 2.6 .2 3.9L368 448c0 26.5-21.5 48-48 48L64 496zM358.6 157.3c.9 .9 1.7 1.8 2.4 2.7L248 160c-13.3 0-24-10.7-24-24l0-113.1c1 .8 1.9 1.6 2.7 2.4L358.6 157.3zM64 0C28.7 0 0 28.7 0 64L0 448c0 35.3 28.7 64 64 64l256 0c35.3 0 64-28.7 64-64l0-268.1c0-12.7-5.1-24.9-14.1-33.9L238.1 14.1c-9-9-21.2-14.1-33.9-14.1L64 0zm40 224c-4.4 0-8 3.6-8 8l0 80 0 80c0 4.4 3.6 8 8 8s8-3.6 8-8l0-72 52.7 0 64 64-42.3 42.3c-3.1 3.1-3.1 8.2 0 11.3s8.2 3.1 11.3 0L240 395.3l42.3 42.3c3.1 3.1 8.2 3.1 11.3 0s3.1-8.2 0-11.3L251.3 384l42.3-42.3c3.1-3.1 3.1-8.2 0-11.3s-8.2-3.1-11.3 0L240 372.7l-53.8-53.8C207.8 314.2 224 295 224 272c0-26.5-21.5-48-48-48l-72 0zm64 80s0 0 0 0l-56 0 0-64 64 0c17.7 0 32 14.3 32 32s-14.3 32-32 32l-8 0z"/></svg>