<svg xmlns="http://www.w3.org/2000/svg" viewBox="0 0 512 512"><!--! Font Awesome Pro 6.7.2 by @fontawesome - https://fontawesome.com License - https://fontawesome.com/license (Commercial License) Copyright 2024 Fonticons, Inc. --><defs><style>.fa-secondary{opacity:.4}</style></defs><path class="fa-secondary" d="M146.4 322.8c-1 5.9 3.9 13.2 13.6 13.2l320 0c9.7 0 14.6-7.4 13.6-13.2C479.7 239.5 407.2 176 320 176s-159.7 63.5-173.6 146.8zM258 384c7.1 27.6 32.2 48 62 48s54.9-20.4 62-48l-124 0z"/><path class="fa-primary" d="M16 164C16 82.3 82.3 16 164 16l4 0c79.5 0 144 64.5 144 144l0 .2c-91.6 3.8-166.6 71.7-181.4 160C127.7 337.6 142.3 352 160 352l320 0c17.7 0 32.3-14.4 29.4-31.9c-14.8-88.3-89.8-156.2-181.4-160c0-.1 0-.1 0-.2C328 71.6 256.4 0 168 0l-4 0C73.4 0 0 73.4 0 164L0 504c0 4.4 3.6 8 8 8s8-3.6 8-8l0-340zm304 12c87.2 0 159.7 63.5 173.6 146.8c1 5.9-3.9 13.2-13.6 13.2l-320 0c-9.7 0-14.6-7.4-13.6-13.2C160.3 239.5 232.8 176 320 176zM241.6 384c7.4 36.5 39.7 64 78.4 64s71-27.5 78.4-64L382 384c-7.1 27.6-32.2 48-62 48s-54.9-20.4-62-48l-16.4 0z"/></svg>