<svg xmlns="http://www.w3.org/2000/svg" viewBox="0 0 576 512"><!--! Font Awesome Pro 6.7.2 by @fontawesome - https://fontawesome.com License - https://fontawesome.com/license (Commercial License) Copyright 2024 Fonticons, Inc. --><defs><style>.fa-secondary{opacity:.4}</style></defs><path class="fa-secondary" d="M48 256c0 1.8 1 3.4 2.6 4.1L276.1 365.4c3.7 1.7 7.8 2.6 11.9 2.6s8.2-.9 11.9-2.6L525.4 260.1c1.6-.7 2.6-2.4 2.6-4.1s-1-3.4-2.6-4.1L299.9 146.6c-3.7-1.7-7.8-2.6-11.9-2.6s-8.2 .9-11.9 2.6L50.6 251.9c-1.6 .7-2.6 2.4-2.6 4.1zm0 128c0 1.8 1 3.4 2.6 4.1L276.1 493.4c3.7 1.7 7.8 2.6 11.9 2.6s8.2-.9 11.9-2.6L525.4 388.1c1.6-.7 2.6-2.4 2.6-4.1s-1-3.4-2.6-4.1l-71.5-33.4c-44.6 20.8-89.1 41.6-133.7 62.4c-10.1 4.7-21.1 7.1-32.2 7.1s-22.1-2.4-32.2-7.1c-44.6-20.8-89.1-41.6-133.7-62.4L50.6 379.9c-1.6 .7-2.6 2.4-2.6 4.1z"/><path class="fa-primary" d="M472 24c0-4.4-3.6-8-8-8s-8 3.6-8 8l0 48-48 0c-4.4 0-8 3.6-8 8s3.6 8 8 8l48 0 0 48c0 4.4 3.6 8 8 8s8-3.6 8-8l0-48 48 0c4.4 0 8-3.6 8-8s-3.6-8-8-8l-48 0 0-48zM288 128c-6.4 0-12.8 1.4-18.6 4.1L43.9 237.4C36.6 240.7 32 248 32 256s4.6 15.3 11.9 18.6L269.4 379.9c5.8 2.7 12.2 4.1 18.6 4.1s12.8-1.4 18.6-4.1L532.1 274.6C539.4 271.3 544 264 544 256s-4.6-15.3-11.9-18.6L306.6 132.1c-5.8-2.7-12.2-4.1-18.6-4.1zm-11.9 18.6c3.7-1.7 7.8-2.6 11.9-2.6s8.2 .9 11.9 2.6L525.4 251.9c1.6 .7 2.6 2.4 2.6 4.1s-1 3.4-2.6 4.1L299.9 365.4c-3.7 1.7-7.8 2.6-11.9 2.6s-8.2-.9-11.9-2.6L50.6 260.1c-1.6-.7-2.6-2.4-2.6-4.1s1-3.4 2.6-4.1L276.1 146.6zm-172.9 191L43.9 365.4C36.6 368.7 32 376 32 384s4.6 15.3 11.9 18.6L269.4 507.9c5.8 2.7 12.2 4.1 18.6 4.1s12.8-1.4 18.6-4.1L532.1 402.6C539.4 399.3 544 392 544 384s-4.6-15.3-11.9-18.6l-59.4-27.7-18.9 8.8 71.5 33.4c1.6 .7 2.6 2.4 2.6 4.1s-1 3.4-2.6 4.1L299.9 493.4c-3.7 1.7-7.8 2.6-11.9 2.6s-8.2-.9-11.9-2.6L50.6 388.1c-1.6-.7-2.6-2.4-2.6-4.1s1-3.4 2.6-4.1l71.5-33.4-18.9-8.8z"/></svg>