<svg xmlns="http://www.w3.org/2000/svg" viewBox="0 0 640 512"><!--! Font Awesome Pro 6.7.2 by @fontawesome - https://fontawesome.com License - https://fontawesome.com/license (Commercial License) Copyright 2024 Fonticons, Inc. --><defs><style>.fa-secondary{opacity:.4}</style></defs><path class="fa-secondary" d="M16.2 169c-.2 11.5-.2 23.1-.2 34.7C16 298.9 93.1 376 188.3 376c41.7 0 82-15.1 113.4-42.6l13-11.4c3-2.6 7.5-2.6 10.5 0l13 11.4C369.7 360.9 410 376 451.7 376C546.9 376 624 298.9 624 203.7l0-34.9c-45.5 37.2-112.3 31.9-151.9-11C454.6 139 429.9 128 404.2 128c-21.5 0-42.4 7.5-58.9 21.3l-20.2 16.8c-3 2.5-7.3 2.5-10.2 0l-20.2-16.8c-16.5-13.8-37.4-21.3-58.9-21.3c-25.7 0-50.4 11-67.8 29.9C128.3 200.8 61.5 206.1 16.2 169z"/><path class="fa-primary" d="M235.8 112c-30.2 0-59.2 12.9-79.6 35c-34 36.8-91.2 41.3-129.9 9.6L13.1 145.8c-3.4-2.8-8.5-2.3-11.3 1.1C.6 148.4 0 150.2 0 152c0 0 0 0 0 0l0 8 0 43.7C0 307.7 84.3 392 188.3 392c45.6 0 89.7-16.6 124-46.6l7.8-6.8 7.8 6.8c34.3 30 78.4 46.6 124 46.6c104 0 188.3-84.3 188.3-188.3l0-43.7 0-8s0 0 0 0c0-1.8-.6-3.6-1.8-5.1c-2.8-3.4-7.8-3.9-11.3-1.1l-13.2 10.8c-38.7 31.6-95.9 27.2-129.9-9.6c-20.4-22.1-49.4-35-79.6-35c-25.3 0-49.7 8.9-69.2 25L320 149.6 304.9 137c-19.4-16.2-43.9-25-69.2-25zM624 168.9l0 34.9C624 298.9 546.9 376 451.7 376c-41.7 0-82-15.1-113.4-42.6l-13-11.4c-3-2.6-7.5-2.6-10.5 0l-13 11.4C270.3 360.9 230 376 188.3 376C93.1 376 16 298.9 16 203.7l0-34.9 .2 .1c45.3 37.1 112.2 31.8 151.8-11.1C185.4 139 210.1 128 235.8 128c21.5 0 42.4 7.5 58.9 21.3l20.2 16.8c3 2.5 7.3 2.5 10.2 0l20.2-16.8c16.5-13.8 37.4-21.3 58.9-21.3c25.7 0 50.4 11 67.8 29.9c39.6 42.9 106.4 48.2 151.8 11.1l.2-.1z"/></svg>