<svg xmlns="http://www.w3.org/2000/svg" width="24" height="24" viewBox="0 0 640 512"><path class="pr-icon-duotone-secondary" d="M48 432l0 32c0 17.7 14.3 32 32 32s32-14.3 32-32l0-32c0-17.7-14.3-32-32-32s-32 14.3-32 32zM208 304l0 160c0 17.7 14.3 32 32 32s32-14.3 32-32l0-160c0-17.7-14.3-32-32-32s-32 14.3-32 32zM368 176l0 288c0 17.7 14.3 32 32 32s32-14.3 32-32l0-288c0-17.7-14.3-32-32-32s-32 14.3-32 32zM528 48l0 416c0 17.7 14.3 32 32 32s32-14.3 32-32l0-416c0-17.7-14.3-32-32-32s-32 14.3-32 32z"/><path class="pr-icon-duotone-primary" d="M560 16c-17.7 0-32 14.3-32 32l0 416c0 17.7 14.3 32 32 32s32-14.3 32-32l0-416c0-17.7-14.3-32-32-32zM512 48c0-26.5 21.5-48 48-48s48 21.5 48 48l0 416c0 26.5-21.5 48-48 48s-48-21.5-48-48l0-416zM432 464l0-288c0-17.7-14.3-32-32-32s-32 14.3-32 32l0 288c0 17.7 14.3 32 32 32s32-14.3 32-32zM400 128c26.5 0 48 21.5 48 48l0 288c0 26.5-21.5 48-48 48s-48-21.5-48-48l0-288c0-26.5 21.5-48 48-48zM240 272c-17.7 0-32 14.3-32 32l0 160c0 17.7 14.3 32 32 32s32-14.3 32-32l0-160c0-17.7-14.3-32-32-32zm-48 32c0-26.5 21.5-48 48-48s48 21.5 48 48l0 160c0 26.5-21.5 48-48 48s-48-21.5-48-48l0-160zM112 432c0-17.7-14.3-32-32-32s-32 14.3-32 32l0 32c0 17.7 14.3 32 32 32s32-14.3 32-32l0-32zm-80 0c0-26.5 21.5-48 48-48s48 21.5 48 48l0 32c0 26.5-21.5 48-48 48s-48-21.5-48-48l0-32z"/></svg>