<svg xmlns="http://www.w3.org/2000/svg" viewBox="0 0 448 512"><!--! Font Awesome Pro 6.7.2 by @fontawesome - https://fontawesome.com License - https://fontawesome.com/license (Commercial License) Copyright 2024 Fonticons, Inc. --><defs><style>.fa-secondary{opacity:.4}</style></defs><path class="fa-secondary" d="M16 96l0 320c0 26.5 21.5 48 48 48l320 0c26.5 0 48-21.5 48-48l0-320c0-26.5-21.5-48-48-48L64 48C37.5 48 16 69.5 16 96zM384 256A160 160 0 1 1 64 256a160 160 0 1 1 320 0zM80 256a144 144 0 1 0 288 0A144 144 0 1 0 80 256zm240 0a96 96 0 1 1 -192 0 96 96 0 1 1 192 0z"/><path class="fa-primary" d="M384 48c26.5 0 48 21.5 48 48l0 320c0 26.5-21.5 48-48 48L64 464c-26.5 0-48-21.5-48-48L16 96c0-26.5 21.5-48 48-48l320 0zM64 32C28.7 32 0 60.7 0 96L0 416c0 35.3 28.7 64 64 64l320 0c35.3 0 64-28.7 64-64l0-320c0-35.3-28.7-64-64-64L64 32zm160 80a144 144 0 1 1 0 288 144 144 0 1 1 0-288zm0 304a160 160 0 1 0 0-320 160 160 0 1 0 0 320zM144 256a80 80 0 1 1 160 0 80 80 0 1 1 -160 0zm176 0a96 96 0 1 0 -192 0 96 96 0 1 0 192 0z"/></svg>