<svg width="48" height="48" viewBox="0 0 84 110" fill="none" xmlns="http://www.w3.org/2000/svg" stroke-width="1px" stroke-linecap="round" stroke-linejoin="round"><path d="M80.5706 35.7901C79.9406 35.4301 79.1605 35.52 78.2205 36.06L65.0605 43.6601C63.7405 44.4301 62.5605 44.7101 61.5105 44.5201C61.1205 44.4601 60.7606 44.33 60.4106 44.13C59.1206 43.39 58.4705 41.9801 58.4705 39.9101V24.8C58.4705 24.73 58.4704 24.6601 58.4604 24.5901C58.4304 23.6401 58.1205 22.9901 57.5305 22.6501L57.3406 22.56C56.7906 22.34 56.1406 22.42 55.3706 22.82C55.3106 22.85 55.2407 22.8801 55.1807 22.9201L54.0205 23.5901L49.6904 26.0901L49.2705 26.3401L38.8906 32.3301L35.1807 34.4701L28.8506 38.13C28.7706 38.18 28.6806 38.2301 28.6006 38.2901C26.9006 39.3201 25.4304 40.9001 24.2004 43.0301C22.9104 45.2501 22.2705 47.4001 22.2705 49.4801V102.36C22.2705 104.43 22.9104 105.84 24.2004 106.58C25.4904 107.31 27.0406 107.16 28.8506 106.11L74.9307 79.51C76.7407 78.46 78.2906 76.8301 79.5806 74.6001C80.8706 72.3801 81.5105 70.2301 81.5105 68.1501V37.94C81.5105 36.87 81.2006 36.1501 80.5706 35.7901ZM42.0205 79.62C42.0205 80.69 41.7006 81.77 41.0706 82.86C40.4406 83.95 39.6605 84.76 38.7305 85.3C37.7905 85.84 37.0106 85.93 36.3806 85.57C35.7506 85.21 35.4307 84.4901 35.4307 83.4201V64.5401C35.4307 63.4701 35.7506 62.39 36.3806 61.3C37.0106 60.21 37.7905 59.4 38.7305 58.86C39.6605 58.32 40.4406 58.2301 41.0706 58.5901C41.7006 58.9501 42.0205 59.67 42.0205 60.74V79.62ZM55.1807 72.0201C55.1807 73.0901 54.8705 74.17 54.2405 75.26C53.6105 76.35 52.8206 77.16 51.8906 77.7C50.9606 78.24 50.1805 78.3301 49.5505 77.9701C48.9205 77.6101 48.6006 76.89 48.6006 75.82V45.61C48.6006 44.54 48.9205 43.46 49.5505 42.37C50.1805 41.28 50.9606 40.47 51.8906 39.93C52.8206 39.39 53.6105 39.3001 54.2405 39.6601C54.8705 40.0201 55.1807 40.74 55.1807 41.81V72.0201ZM68.3506 64.4201C68.3506 65.4901 68.0306 66.5701 67.4006 67.6601C66.7706 68.7501 65.9905 69.5601 65.0605 70.1001C64.1205 70.6401 63.3404 70.73 62.7104 70.37C62.0804 70.01 61.7705 69.2901 61.7705 68.2201V60.6701C61.7705 59.6001 62.0804 58.52 62.7104 57.43C63.3404 56.34 64.1205 55.53 65.0605 54.99C65.9905 54.45 66.7706 54.3601 67.4006 54.7201C68.0306 55.0801 68.3506 55.8 68.3506 56.87V64.4201Z" stroke="#229EFF" stroke-linejoin="round"/><path d="M68.3506 56.8701V64.4201C68.3506 65.4901 68.0306 66.5701 67.4006 67.6601C66.7706 68.7501 65.9905 69.5601 65.0605 70.1001C64.1205 70.6401 63.3404 70.7301 62.7104 70.3701C62.0804 70.0101 61.7705 69.2901 61.7705 68.2201V60.6701C61.7705 59.6001 62.0804 58.5201 62.7104 57.4301C63.3404 56.3401 64.1205 55.5301 65.0605 54.9901C65.9905 54.4501 66.7706 54.3601 67.4006 54.7201C68.0306 55.0801 68.3506 55.8001 68.3506 56.8701Z" stroke="#229EFF" stroke-linejoin="round"/><path d="M42.0205 60.7401V79.6201C42.0205 80.6901 41.7006 81.7701 41.0706 82.8601C40.4406 83.9501 39.6605 84.7601 38.7305 85.3001C37.7905 85.8401 37.0106 85.9301 36.3806 85.5701C35.7506 85.2101 35.4307 84.4901 35.4307 83.4201V64.5401C35.4307 63.4701 35.7506 62.3901 36.3806 61.3001C37.0106 60.2101 37.7905 59.4001 38.7305 58.8601C39.6605 58.3201 40.4406 58.2301 41.0706 58.5901C41.7006 58.9501 42.0205 59.6701 42.0205 60.7401Z" stroke="#229EFF" stroke-linejoin="round"/><path d="M55.1807 41.8101V72.0201C55.1807 73.0901 54.8705 74.1701 54.2405 75.2601C53.6105 76.3501 52.8206 77.1601 51.8906 77.7001C50.9606 78.2401 50.1805 78.3301 49.5505 77.9701C48.9205 77.6101 48.6006 76.8901 48.6006 75.8201V45.6101C48.6006 44.5401 48.9205 43.4601 49.5505 42.3701C50.1805 41.2801 50.9606 40.4701 51.8906 39.9301C52.8206 39.3901 53.6105 39.3001 54.2405 39.6601C54.8705 40.0201 55.1807 40.7401 55.1807 41.8101Z" stroke="#229EFF" stroke-linejoin="round"/><path d="M80.5708 35.7901C79.9408 35.4301 79.1607 35.5201 78.2207 36.0601L65.0608 43.6601C63.7408 44.4301 62.5607 44.7101 61.5107 44.5201C61.1207 44.4601 60.7609 44.3301 60.4109 44.1301C59.1209 43.3901 58.4707 41.9801 58.4707 39.9101V30.9401L61.5107 32.4601L69.2908 36.3501C69.9308 36.7101 70.7109 36.6201 71.6409 36.0801C72.5709 35.5401 73.3507 34.7301 73.9907 33.6401C74.2407 33.2101 74.4308 32.7901 74.5808 32.3701L80.5708 35.7901Z" stroke="#229EFF" stroke-linejoin="round"/><path d="M73.8005 13.06C73.4705 12.92 73.1205 12.9001 72.7205 12.9801C72.3905 13.0501 72.0306 13.2001 71.6406 13.4201C70.7106 13.9601 69.9305 14.77 69.2905 15.86C68.6605 16.95 68.3506 18.0301 68.3506 19.1001V22.8801L55.3606 16.3801L48.3506 12.8801V9.10009C48.3506 8.03009 48.6605 6.95004 49.2905 5.86004C49.9305 4.77004 50.7106 3.96009 51.6406 3.42009C52.5706 2.88009 53.3505 2.79008 53.9905 3.15008L73.8005 13.06Z" stroke="#229EFF" stroke-linejoin="round"/><path d="M81.5105 19.05C81.5105 20.12 81.2006 21.2001 80.5706 22.2901C79.9406 23.3801 79.1605 24.1901 78.2205 24.7301L74.9307 26.6301V30.4101C74.9307 31.0601 74.8106 31.71 74.5806 32.37C74.4306 32.79 74.2405 33.2101 73.9905 33.6401C73.3505 34.7301 72.5706 35.5401 71.6406 36.0801C70.7106 36.6201 69.9305 36.7101 69.2905 36.3501C68.6605 35.9901 68.3506 35.2801 68.3506 34.2101V30.43L65.0605 32.3301C64.1205 32.8701 63.3404 32.9601 62.7104 32.6001C62.0804 32.2401 61.7705 31.5201 61.7705 30.4501C61.7705 29.3801 62.0804 28.3001 62.7104 27.2201C62.9604 26.7901 63.2305 26.4101 63.5205 26.0701C63.9705 25.5301 64.4905 25.1001 65.0605 24.7801L68.3506 22.8801V19.1001C68.3506 18.0301 68.6605 16.95 69.2905 15.86C69.9305 14.77 70.7106 13.9601 71.6406 13.4201C72.0306 13.2001 72.3905 13.0501 72.7205 12.9801C73.1205 12.9001 73.4705 12.9201 73.8005 13.0601C73.8605 13.0801 73.9305 13.1201 73.9905 13.1501C74.3105 13.3301 74.5504 13.6101 74.7104 13.9801C74.8604 14.3301 74.9307 14.77 74.9307 15.3V19.0701L78.2205 17.1701C79.0705 16.6901 79.7806 16.5701 80.3806 16.8201L80.5706 16.9101C81.2006 17.2701 81.5105 17.98 81.5105 19.05Z" stroke="#229EFF" stroke-linejoin="round"/><path d="M80.3811 16.8201L74.7109 13.9801" stroke="#229EFF" stroke-linejoin="round"/><path d="M69.2908 36.3501L61.5107 32.4601L58.4707 30.9401V30.4801L61.5107 32.0001L62.7107 32.6001C63.3407 32.9601 64.1208 32.8701 65.0608 32.3301L68.3508 30.4301V34.2101C68.3508 35.2801 68.6608 35.9901 69.2908 36.3501Z" stroke="#229EFF" stroke-linejoin="round"/><path d="M68.3511 22.8801L65.061 24.7801C64.491 25.1001 63.971 25.5301 63.521 26.0701C63.231 26.4101 62.9609 26.7901 62.7109 27.2201C62.0809 28.3001 61.771 29.3801 61.771 30.4501C61.771 31.5201 62.0809 32.2401 62.7109 32.6001L61.511 32.0001L58.4709 30.4801V24.8C58.4709 24.73 58.4709 24.6601 58.4609 24.5901C58.4309 23.6401 58.121 22.9901 57.531 22.6501L57.3411 22.5601L54.8511 21.3101L43.791 15.7801C44.171 15.3701 44.601 15.0401 45.061 14.7801L48.3511 12.8801L55.3611 16.3801L68.3511 22.8801Z" stroke="#229EFF" stroke-linejoin="round"/><path d="M57.3406 22.56C56.7906 22.34 56.1406 22.4201 55.3706 22.8201C55.3106 22.8501 55.2407 22.8801 55.1807 22.9201L54.0205 23.5901L49.6904 26.0901L49.2705 26.3401L38.8906 32.3301L35.1807 34.4701L28.8506 38.1301C28.7706 38.1801 28.6806 38.2301 28.6006 38.2901C26.9006 39.3201 25.4304 40.9001 24.2004 43.0301C22.9104 45.2501 22.2705 47.4001 22.2705 49.4801V102.36C22.2705 104.43 22.9104 105.84 24.2004 106.58L4.6106 96.7801L4.20044 96.5801C2.91044 95.8401 2.27051 94.43 2.27051 92.36V39.4801C2.27051 37.4001 2.91044 35.2501 4.20044 33.0301C5.49044 30.8001 7.04059 29.1701 8.85059 28.1301L35.1807 12.9201C36.1207 12.3801 36.9005 12.2901 37.5305 12.6501L43.7905 15.7801L54.8506 21.31L57.3406 22.56Z" stroke="#229EFF" stroke-linejoin="round"/></svg>