<svg width="48" height="48" viewBox="0 0 101 116" fill="none" xmlns="http://www.w3.org/2000/svg" stroke-width="1px" stroke-linecap="round" stroke-linejoin="round"><path d="M98.9701 46.73C98.9701 48.97 98.3401 51.17 97.0801 53.35L65.4601 107.88C64.0901 110.25 62.4801 111.97 60.6501 113.02C58.8201 114.08 57.2101 114.22 55.8401 113.44L38.8901 103.77L24.2201 95.41C22.9601 94.69 22.3301 93.22 22.3301 90.98C22.3301 88.74 22.9601 86.54 24.2201 84.37C25.4801 82.19 27.0902 80.55 29.0302 79.42C29.7202 79.03 30.3701 78.74 30.9701 78.58C32.0401 78.28 32.9802 78.34 33.7802 78.78L33.8501 78.81L50.8801 88.53L53.7802 90.18V25.5001C53.7802 23.2701 54.4401 21.02 55.7501 18.74C57.0701 16.47 58.7001 14.77 60.6501 13.65C62.4001 12.63 63.9001 12.3901 65.1401 12.8901L65.55 13.09C66.87 13.84 67.5201 15.33 67.5201 17.57V82.24L87.4601 47.86C88.7201 45.69 90.3201 44.04 92.2701 42.91C94.2101 41.79 95.8201 41.59 97.0801 42.3C98.3401 43.02 98.9701 44.5 98.9701 46.73Z" stroke="#229EFF" stroke-linejoin="round"/><path d="M65.1403 12.8901C63.9003 12.3901 62.4003 12.63 60.6503 13.65C58.7003 14.77 57.0702 16.4701 55.7502 18.7401C54.4402 21.0201 53.7803 23.2701 53.7803 25.5001V90.18L50.8802 88.53L33.8502 78.81L33.7803 78.78V15.5001C33.7803 13.2701 34.4402 11.0201 35.7502 8.74007C37.0702 6.47007 38.7003 4.76998 40.6503 3.64998C42.6003 2.51998 44.2302 2.34004 45.5502 3.09004L65.1403 12.8901Z" stroke="#229EFF" stroke-linejoin="round"/><path d="M97.0804 42.3001C95.8204 41.5901 94.2105 41.7901 92.2705 42.9101C90.3205 44.0401 88.7204 45.6902 87.4604 47.8602L67.5205 82.2402V37.7602C68.7705 35.6402 70.3505 34.0201 72.2705 32.9101C74.2105 31.7901 75.8204 31.5901 77.0804 32.3001L97.0804 42.3001Z" stroke="#229EFF" stroke-linejoin="round"/><path d="M55.8401 113.44L36.2802 103.66L35.8401 103.44L4.22009 85.4101C2.96009 84.6901 2.33008 83.2202 2.33008 80.9802C2.33008 78.7402 2.96009 76.5402 4.22009 74.3702C5.48009 72.1902 7.09015 70.5501 9.03015 69.4201C10.9802 68.3001 12.5801 68.0901 13.8501 68.8101L33.7802 78.7801C32.9802 78.3401 32.0401 78.2801 30.9701 78.5801C30.3701 78.7401 29.7202 79.0301 29.0302 79.4201C27.0902 80.5501 25.4801 82.1902 24.2201 84.3702C22.9601 86.5402 22.3301 88.7502 22.3301 90.9802C22.3301 93.2102 22.9601 94.6901 24.2201 95.4101L38.8901 103.77L55.8401 113.44Z" stroke="#229EFF" stroke-linejoin="round"/></svg>