<svg width="48" height="48" viewBox="0 0 96 113" fill="none" xmlns="http://www.w3.org/2000/svg" stroke-width="1px" stroke-linecap="round" stroke-linejoin="round"><path d="M90.2716 16.8858V58.0259C90.2716 59.7559 89.5915 61.3559 88.2115 62.8259C86.8415 64.2959 85.6315 64.7259 84.5615 64.1159L74.3215 58.2759L82.7215 42.5359C83.4415 41.2159 83.7216 40.1159 83.5516 39.2159C83.3916 38.3159 82.9916 37.6859 82.3816 37.3359C81.7616 36.9859 81.0216 37.0458 80.1516 37.5158C79.2916 37.9858 78.4616 38.9259 77.6816 40.3459L69.5316 55.5459L66.8215 53.9959L54.8916 47.2059L50.1116 44.4759L45.2716 41.7159C44.2016 41.1059 43.9616 39.8459 44.5516 37.9359C45.1416 36.0159 46.1915 34.6258 47.7015 33.7558L70.2716 20.7259L83.5516 13.0559C85.2116 12.0959 86.6516 11.8658 87.8916 12.3758L88.3016 12.5759C89.6116 13.3259 90.2716 14.7658 90.2716 16.8858Z" stroke="#229EFF" stroke-linejoin="round"/><path d="M92.0416 79.3559L28.2216 42.9759L27.9816 42.8559C27.4116 42.6359 26.7516 42.7159 26.0116 43.1159C25.9516 43.1359 25.8915 43.1758 25.8315 43.2058C24.9015 43.7358 24.1115 44.5859 23.4415 45.7359C22.7615 46.8959 22.4316 48.0058 22.4316 49.0658C22.4316 50.1258 22.7615 50.8459 23.4415 51.2359L29.8215 54.8659V105.746C29.8215 107.866 30.4716 109.296 31.7916 110.046C33.1116 110.796 34.6916 110.636 36.5316 109.576L80.8716 83.9759L87.2516 87.5158C87.9216 87.9058 88.7216 87.8258 89.6416 87.2958C90.5716 86.7558 91.3616 85.9158 92.0416 84.7558C92.7116 83.5958 93.0416 82.5059 93.0416 81.4759C93.0416 80.4459 92.7116 79.7459 92.0416 79.3559ZM64.7916 76.1458C64.4316 76.6058 64.0315 76.9659 63.5815 77.2459C62.8515 77.6959 62.2116 77.7658 61.6516 77.4458L58.2416 75.5058L49.9816 70.7958L42.3416 83.9759C42.0916 84.4159 41.8315 84.7958 41.5615 85.1358C41.0015 85.8458 40.4215 86.3458 39.8215 86.6258C39.2815 86.8758 38.8016 86.9959 38.3716 86.9759C38.0816 86.9559 37.8016 86.8759 37.5516 86.7359C36.9416 86.3859 36.5916 85.7159 36.5016 84.7359C36.4216 83.7559 36.7716 82.5959 37.5516 81.2459L45.0416 68.3258L47.1216 64.7359L65.4316 75.1658C65.2316 75.5358 65.0216 75.8558 64.7916 76.1458Z" stroke="#229EFF" stroke-linejoin="round"/><path d="M65.4218 75.1658C65.2218 75.5358 65.0117 75.8558 64.7817 76.1458C64.4217 76.6058 64.0217 76.9658 63.5717 77.2458C62.8417 77.6958 62.2017 77.7658 61.6417 77.4458L58.2317 75.5057L49.9717 70.7958L45.0317 68.3258L47.1117 64.7358L65.4218 75.1658Z" stroke="#229EFF" stroke-linejoin="round"/><path d="M49.9816 70.7957L42.3416 83.9757C42.0916 84.4157 41.8316 84.7956 41.5616 85.1356C41.0016 85.8456 40.4216 86.3456 39.8216 86.6256C39.2816 86.8756 38.8016 86.9957 38.3716 86.9757C38.0816 86.9557 37.8017 86.8757 37.5517 86.7357C36.9417 86.3857 36.5916 85.7157 36.5016 84.7357C36.4216 83.7557 36.7717 82.5957 37.5517 81.2457L45.0417 68.3257L49.9816 70.7957Z" stroke="#229EFF" stroke-linejoin="round"/><path d="M31.7916 110.046L11.7916 100.046C10.4716 99.2957 9.82153 97.8657 9.82153 95.7457V44.8657L29.8215 54.8657V105.746C29.8215 107.866 30.4716 109.296 31.7916 110.046Z" stroke="#229EFF" stroke-linejoin="round"/><path d="M87.8916 12.3758C86.6516 11.8658 85.2116 12.0959 83.5516 13.0559L70.2716 20.7259L47.7015 33.7558C46.1915 34.6258 45.1416 36.0159 44.5516 37.9359C43.9616 39.8459 44.2016 41.1059 45.2716 41.7159L50.1116 44.4759L54.8916 47.2059L66.8215 53.996L69.5316 55.5459L66.6316 54.0959L54.4615 48.0159L49.5316 45.5459L25.2716 31.7159C24.2016 31.1059 23.9616 29.8459 24.5516 27.9359C25.1416 26.0159 26.1915 24.6258 27.7015 23.7558L63.5516 3.05589C65.4016 1.98589 66.9816 1.82591 68.3016 2.57591L87.8916 12.3758Z" stroke="#229EFF" stroke-linejoin="round"/><path d="M82.7316 42.5359L74.3315 58.2759L66.2716 54.246L54.3315 48.2759L54.4716 48.0159L66.6416 54.0959L69.5416 55.5459L77.6915 40.3459C78.4715 38.9259 79.3016 37.9859 80.1616 37.5159C81.0316 37.0459 81.7716 36.9859 82.3916 37.3359C83.0016 37.6859 83.4015 38.3159 83.5615 39.2159C83.7315 40.1159 83.4516 41.2159 82.7316 42.5359Z" stroke="#229EFF" stroke-linejoin="round"/><path d="M84.5615 64.116L64.5615 54.116L54.3215 48.2759L66.2716 54.246L74.3215 58.2759L84.5615 64.116Z" stroke="#229EFF" stroke-linejoin="round"/><path d="M29.8215 54.866L9.82153 44.866L3.44153 41.236C2.76153 40.846 2.43164 40.126 2.43164 39.066C2.43164 38.006 2.76153 36.896 3.44153 35.736C4.11153 34.586 4.90154 33.736 5.83154 33.206C6.75154 32.666 7.55156 32.596 8.22156 32.976L27.9816 42.856C27.4116 42.636 26.7516 42.716 26.0116 43.116C25.9516 43.136 25.8915 43.176 25.8315 43.206C24.9015 43.736 24.1115 44.586 23.4415 45.736C22.7615 46.896 22.4316 48.006 22.4316 49.066C22.4316 50.126 22.7615 50.846 23.4415 51.236L29.8215 54.866Z" stroke="#229EFF" stroke-linejoin="round"/></svg>