<svg viewBox="0 0 92 114" fill="none" xmlns="http://www.w3.org/2000/svg" height="24" width="24" stroke-width="1px" stroke-linecap="round" stroke-linejoin="round">
    <path d="M89.1001 67.0552C88.8001 66.6752 88.43 66.4552 87.97 66.3752C87.71 66.3352 87.4101 66.3352 87.0901 66.3852L73.8101 69.7652L72.6001 58.6352L68.1001 17.1452C67.8601 15.1452 67.0299 13.8152 65.6299 13.1552C64.2199 12.4952 62.5601 12.7252 60.6201 13.8452L51.55 19.0852C50.85 19.4852 50.18 19.9752 49.55 20.5352C48.44 21.5052 47.44 22.7252 46.55 24.1752C45.14 26.4452 44.3201 28.7352 44.0701 31.0252L40.4099 68.9352L39.1599 81.9552L38.3601 90.2252L24.99 102.345C24.12 103.135 23.4801 104.095 23.0701 105.225C22.6701 106.355 22.46 107.455 22.46 108.525C22.46 109.745 22.79 110.635 23.45 111.185C23.53 111.255 23.6099 111.305 23.6899 111.355L23.79 111.405C24.39 111.705 25.13 111.605 26.02 111.095L86.0601 76.4252C87.1201 75.8152 88.01 74.8352 88.73 73.4952C89.44 72.1452 89.8 70.8352 89.8 69.5452C89.8 68.4752 89.5701 67.6452 89.1001 67.0552ZM59.8701 78.6652L52.3899 82.9852V31.4752C52.3899 30.2552 52.75 29.0352 53.47 27.7952C54.19 26.5552 55.0699 25.6352 56.1299 25.0252C57.1899 24.4052 58.08 24.3052 58.8 24.7152C59.52 25.1252 59.8701 25.9352 59.8701 27.1552V78.6652Z" stroke="currentColor" stroke-linejoin="round"/>
    <path d="M59.8701 78.6648L52.3899 82.9848V74.9248L59.8701 78.6648Z" stroke="currentColor" stroke-linejoin="round"/>
    <path d="M59.8701 27.1553V78.6653L52.3899 74.9253V31.4753C52.3899 30.2553 52.75 29.0353 53.47 27.7953C54.19 26.5553 55.0699 25.6353 56.1299 25.0253C57.1899 24.4053 58.08 24.3053 58.8 24.7153C59.52 25.1253 59.8701 25.9353 59.8701 27.1553Z" stroke="currentColor" stroke-linejoin="round"/>
    <path d="M65.6299 13.1552C64.2199 12.4952 62.5601 12.7252 60.6201 13.8452L51.55 19.0852C50.85 19.4852 50.18 19.9752 49.55 20.5352C48.44 21.5052 47.44 22.7252 46.55 24.1752C45.14 26.4452 44.3201 28.7352 44.0701 31.0252L40.4099 68.9352L39.1599 81.9552L38.3601 90.2252L18.3601 80.2252L24.0701 21.0252C24.3201 18.7352 25.14 16.4452 26.55 14.1752C27.95 11.8952 29.62 10.1952 31.55 9.08516L40.6201 3.84517C42.5601 2.72517 44.2199 2.49516 45.6299 3.15516L65.6299 13.1552Z" stroke="currentColor" stroke-linejoin="round"/>
    <path d="M87.97 66.3748C87.71 66.3348 87.4101 66.3348 87.0901 66.3848L73.8101 69.7648L72.6001 58.6348L87.97 66.3748Z" stroke="currentColor" stroke-linejoin="round"/>
    <path d="M23.0701 105.226C22.6701 106.356 22.46 107.456 22.46 108.526C22.46 109.746 22.79 110.636 23.45 111.186C23.53 111.256 23.6099 111.306 23.6899 111.356L3.70996 101.366C3.61996 101.316 3.52995 101.256 3.44995 101.186C2.78995 100.636 2.45996 99.7456 2.45996 98.5256C2.45996 97.4556 2.67007 96.3556 3.07007 95.2256C3.48007 94.0956 4.11999 93.1356 4.98999 92.3456L18.3601 80.2256L38.3601 90.2256L24.99 102.346C24.12 103.136 23.4801 104.096 23.0701 105.226Z" stroke="currentColor" stroke-linejoin="round"/>
</svg>