<svg width="48" height="48" viewBox="0 0 127 114" fill="none" xmlns="http://www.w3.org/2000/svg" stroke-width="1px" stroke-linecap="round" stroke-linejoin="round"><path d="M88.3502 92.9702C87.8302 94.7002 86.8901 96.1902 85.5201 97.4402C83.6701 99.2402 81.7902 100.86 79.8602 102.3C77.9302 103.73 76.0001 105.01 74.0801 106.12C63.7001 112.11 54.8301 113.26 47.4401 109.56L47.1901 109.43C46.9901 109.33 46.8002 109.23 46.6102 109.12C43.4002 107.33 40.8701 104.8 39.0201 101.54C37.0101 97.9902 35.8102 93.5602 35.4302 88.2502C35.3302 86.9802 35.2802 85.6602 35.2802 84.2802V83.3102L33.0801 87.1102L30.9401 90.7902C30.0601 92.3202 28.9401 93.4702 27.5701 94.2602C26.2001 95.0502 25.0801 95.1902 24.2001 94.6902C23.3101 94.1802 22.8701 93.1502 22.8701 91.5802C22.8701 90.0102 23.3101 88.4702 24.2001 86.9502L27.5201 81.2302L32.8502 72.0202L36.7302 65.3302C37.6902 63.6702 38.8202 62.4702 40.1002 61.7302C41.2502 61.0702 42.2702 60.9202 43.1602 61.2902L43.4702 61.4402L56.0001 68.5802C56.8901 69.0902 57.3301 70.1202 57.3301 71.6902C57.3301 73.2602 56.8901 74.8002 56.0001 76.3202C55.1201 77.8502 54.0001 79.0002 52.6301 79.7902C51.2601 80.5802 50.1401 80.7202 49.2601 80.2202L44.9202 77.7502V78.7202C44.9202 82.4502 45.3901 85.7002 46.3301 88.4502C47.5901 92.1802 49.7201 95.0002 52.7101 96.8802C52.9401 97.0402 53.1702 97.1802 53.4102 97.3102C59.0802 100.5 65.9601 99.7502 74.0801 95.0602C75.3601 94.3202 76.6301 93.5002 77.8701 92.5902C79.1201 91.6902 80.3402 90.6602 81.5502 89.5002C82.9102 88.2602 84.2001 87.5602 85.4001 87.4202C85.9501 87.3502 86.4401 87.4202 86.8701 87.5802L87.0402 87.6602C87.4802 87.8802 87.8602 88.2302 88.1702 88.7202C88.8102 89.8202 88.8702 91.2402 88.3502 92.9702Z" stroke="#229EFF" stroke-linejoin="round"/><path d="M102.75 45.3304V46.2904L98.4101 43.8204L98.1501 43.6904L82.7501 35.9904V35.3304C82.7501 31.5904 82.2801 28.3504 81.3501 25.6004C85.3501 24.4804 88.9801 24.5404 92.2401 25.7904C92.9301 26.0504 93.6001 26.3604 94.2601 26.7304C94.3701 26.7904 94.4801 26.8604 94.5901 26.9304C96.9701 28.3304 98.8201 30.3004 100.15 32.8204C101.89 36.0704 102.75 40.2404 102.75 45.3304Z" stroke="#229EFF" stroke-linejoin="round"/><path d="M124.8 32.4602C124.8 34.0302 124.36 35.5702 123.47 37.1002L110.94 58.7102C109.98 60.3702 108.85 61.5702 107.57 62.3102C106.28 63.0602 105.16 63.1502 104.2 62.6002L91.6701 55.4602C90.7801 54.9602 90.3401 53.9202 90.3401 52.3502C90.3401 50.7802 90.7801 49.2402 91.6701 47.7202C92.5501 46.1902 93.6701 45.0402 95.0401 44.2502C96.2701 43.5402 97.3101 43.3502 98.1501 43.6902L98.4101 43.8202L102.75 46.2902V45.3302C102.75 40.2402 101.89 36.0702 100.15 32.8202C98.8201 30.3002 96.9701 28.3302 94.5901 26.9302C94.4801 26.8602 94.3701 26.7902 94.2601 26.7302C93.6001 26.3602 92.9301 26.0502 92.2401 25.7902C88.9801 24.5402 85.3501 24.4802 81.3501 25.6002C78.9001 26.2802 76.3101 27.4102 73.5901 28.9802C72.3101 29.7202 71.0401 30.5402 69.8001 31.4502C68.5501 32.3502 67.3301 33.3802 66.1201 34.5402C64.7601 35.7902 63.4501 36.4902 62.2101 36.6602C61.5301 36.7502 60.9401 36.6602 60.4401 36.4102L60.3701 36.3702C59.9901 36.1502 59.6501 35.8202 59.3801 35.3902C58.7301 34.3802 58.6701 33.0102 59.2001 31.2802C59.7201 29.5502 60.6201 28.0802 61.9101 26.8802C63.8301 25.0302 65.7601 23.3602 67.6901 21.8802C69.6201 20.4002 71.5901 19.0802 73.5901 17.9202C74.0501 17.6602 74.5101 17.4002 74.9601 17.1602C79.8701 14.4902 84.4301 12.9402 88.6501 12.5102C92.6701 12.0802 96.3801 12.6702 99.7801 14.2602L100.12 14.4302C100.43 14.5802 100.75 14.7502 101.06 14.9202C104 16.5602 106.37 18.8202 108.17 21.7002C110.98 26.2002 112.39 32.2202 112.39 39.7602V40.7302L116.73 33.2502C117.61 31.7202 118.73 30.5702 120.1 29.7802C121.33 29.0702 122.37 28.8802 123.21 29.2202L123.47 29.3502C124.36 29.8602 124.8 30.8902 124.8 32.4602Z" stroke="#229EFF" stroke-linejoin="round"/><path d="M123.21 29.2202C122.37 28.8802 121.33 29.0702 120.1 29.7802C118.73 30.5702 117.61 31.7202 116.73 33.2502L112.39 40.7302V39.7602C112.39 32.2202 110.98 26.2002 108.17 21.7002L123.21 29.2202Z" stroke="#229EFF" stroke-linejoin="round"/><path d="M104.2 62.6002L84.5101 52.7502L84.2001 52.6002L71.6701 45.4602C70.7801 44.9602 70.3401 43.9202 70.3401 42.3502C70.3401 40.7802 70.7801 39.2402 71.6701 37.7202C72.5501 36.1902 73.6701 35.0402 75.0401 34.2502C76.4001 33.4602 77.5301 33.3202 78.4101 33.8202L82.7501 35.9902L98.1501 43.6902C97.3101 43.3502 96.2701 43.5402 95.0401 44.2502C93.6701 45.0402 92.5501 46.1902 91.6701 47.7202C90.7801 49.2402 90.3401 50.7902 90.3401 52.3502C90.3401 53.9102 90.7801 54.9602 91.6701 55.4602L104.2 62.6002Z" stroke="#229EFF" stroke-linejoin="round"/><path d="M86.8701 87.5801C86.4401 87.4101 85.9501 87.3501 85.4001 87.4201C84.2001 87.5601 82.9101 88.2601 81.5501 89.5001C80.3401 90.6601 79.1201 91.6901 77.8701 92.5901C76.6301 93.5001 75.3601 94.3201 74.0801 95.0601C65.9601 99.7501 59.0801 100.5 53.4101 97.3101C53.1701 97.1801 52.9401 97.0401 52.7101 96.8801C49.7201 95.0001 47.5901 92.1801 46.3301 88.4501C48.7801 87.7601 51.3601 86.6301 54.0801 85.0601C55.3601 84.3201 56.6301 83.5001 57.8701 82.5901C59.1201 81.6901 60.3401 80.6601 61.5501 79.5001C62.9101 78.2601 64.2001 77.5601 65.4001 77.4201C66.0201 77.3401 66.5701 77.4201 67.0401 77.6601L67.2001 77.7401L86.8701 87.5801Z" stroke="#229EFF" stroke-linejoin="round"/><path d="M47.19 109.43L28.15 99.8901L26.61 99.1201C23.66 97.4801 21.29 95.2201 19.5 92.3401L24.2 94.6901C25.08 95.1901 26.2 95.0501 27.57 94.2601C28.94 93.4701 30.06 92.3201 30.94 90.7901L33.08 87.1101L35.28 83.3101V84.2801C35.28 85.6601 35.3301 86.9801 35.4301 88.2501C35.8101 93.5601 37.01 97.9901 39.02 101.54C40.87 104.8 43.4 107.33 46.61 109.12C46.8 109.23 46.99 109.33 47.19 109.43Z" stroke="#229EFF" stroke-linejoin="round"/><path d="M43.1602 61.2901C42.2702 60.9201 41.2502 61.0701 40.1002 61.7301C38.8202 62.4701 37.6902 63.6701 36.7302 65.3301L32.8502 72.0201L27.5201 81.2301L24.2001 86.9501C23.3101 88.4701 22.8701 90.0201 22.8701 91.5801C22.8701 93.1401 23.3101 94.1801 24.2001 94.6901L19.5001 92.3401L4.46014 84.8201L4.20013 84.6901C3.31013 84.1801 2.87012 83.1501 2.87012 81.5801C2.87012 80.0101 3.31013 78.4701 4.20013 76.9501L16.7302 55.3301C17.6902 53.6701 18.8202 52.4701 20.1002 51.7301C21.3902 50.9901 22.5102 50.8901 23.4702 51.4401L43.1602 61.2901Z" stroke="#229EFF" stroke-linejoin="round"/><path d="M49.2601 80.2205L44.9202 78.0505V77.7505L49.2601 80.2205Z" stroke="#229EFF" stroke-linejoin="round"/><path d="M81.0002 4.89035L79.9402 4.36035" stroke="#229EFF" stroke-linejoin="round"/><path d="M99.7801 14.2603C96.3801 12.6703 92.6701 12.0803 88.6501 12.5103C84.4301 12.9403 79.8701 14.4903 74.9601 17.1603C74.5101 17.4003 74.0501 17.6603 73.5901 17.9203C71.5901 19.0803 69.6201 20.4003 67.6901 21.8803C65.7601 23.3603 63.8301 25.0303 61.9101 26.8803C60.6201 28.0803 59.7201 29.5503 59.2001 31.2803C58.6701 33.0103 58.7301 34.3803 59.3801 35.3903C59.6501 35.8203 59.9901 36.1503 60.3701 36.3703L40.4501 26.4103C40.0301 26.2003 39.6701 25.8503 39.3801 25.3903C38.7301 24.3803 38.6701 23.0103 39.2001 21.2803C39.7201 19.5503 40.6201 18.0803 41.9101 16.8803C43.8301 15.0303 45.7601 13.3603 47.6901 11.8803C49.6201 10.4003 51.5901 9.08026 53.5901 7.92026C64.3301 1.73026 73.4601 0.720256 81.0001 4.89026L81.0601 4.92026L99.7801 14.2603Z" stroke="#229EFF" stroke-linejoin="round"/></svg>