<svg width="24" height="24" viewBox="0 0 94 116" fill="none" xmlns="http://www.w3.org/2000/svg" stroke-width="1px" stroke-linecap="round" stroke-linejoin="round">
    <path d="M82.0596 77.92C82.0596 78.94 81.7595 79.97 81.1595 81.01C80.5495 82.05 79.8095 82.83 78.9095 83.34L28.5996 112.39C26.8696 113.39 25.3897 113.54 24.1497 112.84C22.9197 112.13 22.3096 110.79 22.3096 108.81V72.72C22.3096 71.7 22.6096 70.66 23.2096 69.63C23.8096 68.59 24.5596 67.81 25.4496 67.29C26.2496 66.83 26.9396 66.71 27.4996 66.95L27.6896 67.04C28.2996 67.38 28.5996 68.06 28.5996 69.09V105.17L78.9095 76.12C79.7195 75.66 80.3996 75.54 80.9696 75.78L81.1595 75.87C81.7595 76.21 82.0596 76.89 82.0596 77.92Z" stroke="currentColor" stroke-linejoin="round"/>
    <path d="M50.6096 38.33L38.0295 45.6C37.1395 46.11 36.3896 46.89 35.7896 47.93C35.1896 48.97 34.8896 50 34.8896 51.02V87.21C34.9096 89.14 35.5196 90.45 36.7296 91.14L32.0996 88.82L28.5996 87.08V69.09C28.5996 68.06 28.2996 67.38 27.6896 67.04L27.4996 66.95L14.8896 60.64V41.02C14.8896 40 15.1896 38.97 15.7896 37.93C16.3896 36.89 17.1395 36.11 18.0295 35.6L30.6096 28.33L50.6096 38.33Z" stroke="currentColor" stroke-linejoin="round"/>
    <path d="M90.5896 16.29L90.3997 16.1999C89.8397 15.9699 89.1496 16.08 88.3496 16.55L75.7697 23.81V16.5899C75.7697 14.6099 75.1496 13.26 73.9196 12.56L73.5295 12.37C72.9095 12.12 72.2296 12.0599 71.4896 12.2099C70.8696 12.3299 70.1896 12.59 69.4796 13L56.8997 20.2699C56.6397 20.4199 56.3796 20.5899 56.1296 20.7699C54.7296 21.7599 53.4996 23.1499 52.4596 24.9499C51.2296 27.0799 50.6096 29.13 50.6096 31.12V38.3299L38.0295 45.6C37.1395 46.11 36.3896 46.89 35.7896 47.93C35.1896 48.97 34.8896 49.9999 34.8896 51.0199V87.2099C34.9096 89.1399 35.5196 90.4499 36.7296 91.1399C37.9696 91.8399 39.4496 91.69 41.1796 90.69L73.4896 72.03L85.1996 65.2699C86.9296 64.2799 88.4097 62.71 89.6497 60.59C90.8797 58.46 91.4896 56.41 91.4896 54.43V18.3399C91.4896 17.3199 91.1896 16.63 90.5896 16.29ZM69.4796 27.44L56.8997 34.6999V27.48L62.7795 24.0899L69.4796 20.22V27.44Z" stroke="currentColor" stroke-linejoin="round"/>
    <path d="M69.4794 27.44L56.8994 34.7V27.48L62.7793 24.09L69.4794 27.44Z" stroke="currentColor" stroke-linejoin="round"/>
    <path d="M69.4794 20.22V27.44L62.7793 24.09L69.4794 20.22Z" stroke="currentColor" stroke-linejoin="round"/>
    <path d="M90.3994 16.1999C89.8394 15.9699 89.1494 16.08 88.3494 16.55L75.7694 23.81V16.5899C75.7694 14.6099 75.1493 13.26 73.9193 12.56L73.5293 12.37L71.4894 11.35L65.3594 8.27995L68.3494 6.54997C69.2394 6.02997 69.9894 5.94996 70.5894 6.28996L90.3994 16.1999Z" stroke="currentColor" stroke-linejoin="round"/>
    <path d="M73.5293 12.37C72.9093 12.12 72.2294 12.06 71.4894 12.21C70.8694 12.33 70.1894 12.59 69.4794 13L56.8994 20.27C56.6394 20.42 56.3794 20.59 56.1294 20.77C54.7294 21.76 53.4994 23.15 52.4594 24.95C51.2294 27.08 50.6094 29.13 50.6094 31.12V38.33L30.6094 28.33V21.12C30.6094 19.13 31.2294 17.08 32.4594 14.95C33.6894 12.83 35.1694 11.27 36.8994 10.27L49.4794 3.00001C51.2094 2.01001 52.6893 1.86001 53.9193 2.56001L65.3594 8.27998L71.4894 11.35L73.5293 12.37Z" stroke="currentColor" stroke-linejoin="round"/>
    <path d="M80.9696 75.78C80.3996 75.54 79.7195 75.66 78.9095 76.12L28.5996 105.17V87.08L32.0996 88.82L36.7296 91.14C37.9696 91.84 39.4496 91.69 41.1796 90.69L73.4896 72.03L80.9696 75.78Z" stroke="currentColor" stroke-linejoin="round"/>
    <path d="M27.4996 66.95C26.9396 66.71 26.2496 66.83 25.4496 67.29C24.5596 67.81 23.8096 68.59 23.2096 69.63C22.6096 70.66 22.3096 71.7 22.3096 72.72V108.81C22.3096 110.79 22.9197 112.13 24.1497 112.84L4.53955 103.03L4.14966 102.84C2.91966 102.13 2.30957 100.79 2.30957 98.81V62.72C2.30957 61.7 2.60959 60.66 3.20959 59.63C3.80959 58.59 4.55958 57.81 5.44958 57.29C6.33958 56.78 7.08958 56.69 7.68958 57.04L14.8896 60.64L27.4996 66.95Z" stroke="currentColor" stroke-linejoin="round"/>
</svg>