<svg width="24" height="24" viewBox="0 0 101 120" fill="none" xmlns="http://www.w3.org/2000/svg" stroke-width="1px" stroke-linecap="round" stroke-linejoin="round">
    <path d="M96.5686 18.01V34.31C96.5686 35.52 96.2085 36.73 95.4985 37.96C94.7885 39.19 93.9086 40.11 92.8586 40.71C91.8086 41.32 90.9185 41.4201 90.2085 41.0201C89.4985 40.6101 89.1387 39.8 89.1387 38.6V30.82L80.1687 36L67.6487 43.23L65.8186 44.2801L56.8586 49.46L42.7786 57.58L39.8987 59.25L29.7285 65.12V82.1601L35.3486 78.9101L47.4187 71.95L50.2385 70.33L53.9287 68.2L57.5786 66.09C58.2086 65.72 58.7387 65.6201 59.1687 65.7901L59.3987 65.9001C59.5887 66.0201 59.7487 66.2 59.8987 66.45C60.3987 67.3 60.3087 68.4501 59.6187 69.9101C59.1387 71.0101 58.6986 72.11 58.3086 73.22C58.1886 73.54 58.0685 73.87 57.9585 74.19C57.4285 75.74 56.9786 77.3 56.5986 78.86C56.5486 79.04 56.5085 79.2201 56.4685 79.4001C56.3085 80.0701 56.1686 80.7401 56.0486 81.4001C55.5886 83.8901 55.3486 86.32 55.3486 88.68C55.3486 88.91 55.3486 89.14 55.3586 89.37C55.3786 90.46 55.4586 91.5201 55.5886 92.5401C55.7386 93.7601 55.9686 94.89 56.2786 95.92C56.5886 96.94 56.4186 98.18 55.7686 99.62C55.1186 101.06 54.2685 102.08 53.2185 102.69L29.7285 116.25C27.6885 117.43 25.9385 117.6 24.4885 116.77C23.0285 115.95 22.3086 114.36 22.3086 112.02V60.8901C22.3086 58.5401 23.0285 56.12 24.4885 53.61C25.9385 51.1 27.6885 49.26 29.7285 48.08L69.1387 25.33L76.5686 21.0401L89.1387 13.7801C91.1887 12.6001 92.9287 12.42 94.3887 13.25C95.8387 14.08 96.5686 15.67 96.5686 18.01Z" stroke="currentColor" stroke-linejoin="round"/>
    <path d="M96.3386 52.5701C96.0286 52.4301 95.6686 52.38 95.2686 52.42C94.5286 52.49 93.7487 52.9101 92.9487 53.6501L90.2585 56.17L85.7385 53.9102L85.6187 53.3101C85.4287 52.4201 85.0086 51.8501 84.3586 51.5801L77.8787 48.3401L71.3987 45.1001L72.9487 43.6501C73.7487 42.9101 74.5286 42.49 75.2686 42.42C75.7086 42.38 76.1087 42.4401 76.4387 42.6201L76.5486 42.6801L96.3386 52.5701Z" stroke="currentColor" stroke-linejoin="round"/>
    <path d="M72.4387 66.46L69.7385 67.0499C68.9385 67.2299 68.1687 67.72 67.4187 68.5C66.6787 69.28 66.0887 70.19 65.6587 71.22L64.8186 73.2999C64.3886 74.3999 64.2386 75.4 64.3586 76.29C64.4586 77.02 64.7585 77.54 65.2585 77.83L57.9585 74.1899C58.0685 73.8699 58.1886 73.54 58.3086 73.22C58.6986 72.11 59.1387 71.01 59.6187 69.91C60.3087 68.45 60.3987 67.3 59.8987 66.45C59.7487 66.2 59.5887 66.02 59.3987 65.9L59.1687 65.79L54.7385 63.5699L46.6086 59.5C46.8486 59.15 47.1187 58.81 47.4187 58.5C48.1687 57.72 48.9385 57.2299 49.7385 57.0499L52.4387 56.46L57.2786 58.88L67.8086 64.14L72.4387 66.46Z" stroke="currentColor" stroke-linejoin="round"/>
    <path d="M94.3887 13.25C92.9287 12.42 91.1887 12.6001 89.1387 13.7801L76.5686 21.0401L69.1387 25.33L29.7285 48.08C27.6885 49.26 25.9385 51.1 24.4885 53.61C23.0285 56.12 22.3086 58.5401 22.3086 60.8901V112.02C22.3086 114.36 23.0285 115.95 24.4885 116.77L4.48853 106.77C3.02853 105.95 2.30859 104.36 2.30859 102.02V50.8901C2.30859 48.5401 3.02853 46.12 4.48853 43.61C5.93853 41.1 7.68852 39.26 9.72852 38.08L69.1387 3.78007C71.1887 2.60007 72.9287 2.42004 74.3887 3.25004L94.3887 13.25Z" stroke="currentColor" stroke-linejoin="round"/>
    <path d="M90.2085 41.0199L80.1687 35.9999L89.1387 30.8198V38.5999C89.1387 39.7999 89.4985 40.6099 90.2085 41.0199Z" stroke="currentColor" stroke-linejoin="round"/>
    <path d="M97.1288 69.3497L95.0887 68.5098C95.2087 67.5098 95.2687 66.5498 95.2687 65.6298C95.2687 64.7098 95.2087 63.8197 95.0887 62.9697L97.1288 59.7598C97.8088 58.7298 98.2087 57.6798 98.3287 56.6198C98.4587 55.5498 98.2988 54.7198 97.8688 54.1198L97.0287 53.1097C96.8687 52.9097 96.6886 52.7498 96.4786 52.6398L96.3387 52.5697C96.0287 52.4297 95.6687 52.3797 95.2687 52.4197C94.5287 52.4897 93.7488 52.9098 92.9488 53.6498L90.2586 56.1697C89.5786 55.9897 88.9086 55.8998 88.2586 55.8798C87.6086 55.8698 86.9188 55.8997 86.1688 55.9697L85.7386 53.9098L85.6188 53.3097C85.4288 52.4197 85.0087 51.8497 84.3587 51.5797C83.7087 51.3197 82.9587 51.4397 82.0887 51.9397L81.9488 52.0198L80.5987 52.7898C79.7387 53.2898 78.9787 54.0298 78.3287 55.0098C77.6787 55.9898 77.2587 57.0298 77.0787 58.1298L76.8988 59.2498L76.5187 61.5398C75.7787 62.3298 75.0788 63.0998 74.4288 63.8698C73.7788 64.6298 73.1188 65.4997 72.4388 66.4597L69.7386 67.0497C68.9386 67.2297 68.1688 67.7198 67.4188 68.4998C66.6788 69.2798 66.0888 70.1897 65.6588 71.2197L64.8187 73.2997C64.3887 74.3997 64.2387 75.3998 64.3587 76.2898C64.4587 77.0198 64.7586 77.5397 65.2586 77.8297L65.5687 77.9897L65.7987 78.0897L67.6087 78.8297C67.4787 79.8297 67.4188 80.7797 67.4188 81.7097C67.4188 82.6397 67.4787 83.5198 67.6087 84.3698L65.5687 87.5697C65.2587 88.0497 64.9987 88.5198 64.8087 88.9998C64.5787 89.5698 64.4287 90.1397 64.3587 90.7197C64.2387 91.7897 64.3887 92.6197 64.8187 93.2197L65.5687 94.2798C65.7087 94.4498 65.8587 94.5897 66.0287 94.6997L66.1188 94.7498C66.4688 94.9398 66.8888 94.9997 67.3788 94.9397C68.1488 94.8497 68.9386 94.4297 69.7386 93.6797L71.2887 92.2397L72.4388 91.1697C73.1188 91.3497 73.7788 91.4397 74.4288 91.4597C75.0788 91.4697 75.7787 91.4398 76.5187 91.3698L77.0787 94.0298C77.2387 94.8098 77.5787 95.3398 78.0987 95.6398L78.3287 95.7598C78.9787 96.0198 79.7387 95.8998 80.5987 95.3998L82.0887 94.5398C82.9587 94.0398 83.7087 93.2997 84.3587 92.3297C85.0087 91.3497 85.4288 90.3097 85.6188 89.2097L86.1688 85.7898C86.9188 85.0098 87.6086 84.2397 88.2586 83.4697C88.9086 82.6997 89.5786 81.8398 90.2586 80.8798L92.9488 80.2798C93.7488 80.0998 94.5287 79.6197 95.2687 78.8397C96.0087 78.0497 96.5987 77.1498 97.0287 76.1198L97.8688 74.0398C98.2988 72.9298 98.4587 71.9397 98.3287 71.0497C98.2087 70.1597 97.8088 69.5997 97.1288 69.3497ZM86.5887 76.6598C85.1387 79.1698 83.3887 81.0097 81.3487 82.1897C79.2987 83.3697 77.5587 83.5397 76.0987 82.7197C74.6487 81.8897 73.9188 80.2997 73.9188 77.9597C73.9188 75.6197 74.6487 73.1897 76.0987 70.6797C77.5587 68.1697 79.2987 66.3298 81.3487 65.1498C83.3887 63.9698 85.1387 63.7898 86.5887 64.6198C88.0487 65.4498 88.7687 67.0398 88.7687 69.3798C88.7687 71.7198 88.0487 74.1498 86.5887 76.6598Z" stroke="currentColor" stroke-linejoin="round"/>
    <path d="M88.7686 69.3802C88.7686 71.7202 88.0486 74.1502 86.5886 76.6602C85.1386 79.1702 83.3886 81.0101 81.3486 82.1901C79.2986 83.3701 77.5586 83.5401 76.0986 82.7201C74.6486 81.8901 73.9187 80.3001 73.9187 77.9601C73.9187 75.6201 74.6486 73.1901 76.0986 70.6801C77.5586 68.1701 79.2986 66.3302 81.3486 65.1502C83.3886 63.9702 85.1386 63.7902 86.5886 64.6202C88.0486 65.4502 88.7686 67.0402 88.7686 69.3802Z" stroke="currentColor" stroke-linejoin="round"/>
    <path d="M90.2585 56.17C89.5785 55.99 88.9085 55.9001 88.2585 55.8801C87.6085 55.8701 86.9187 55.9001 86.1687 55.9701L85.7385 53.9102L90.2585 56.17Z" stroke="currentColor" stroke-linejoin="round"/>
    <path d="M84.3586 51.58C83.7086 51.32 82.9586 51.4399 82.0886 51.9399L81.9487 52.02L80.5986 52.79C79.7386 53.29 78.9786 54.03 78.3286 55.01C77.6786 55.99 77.2586 57.03 77.0786 58.13L76.8987 59.25L76.5186 61.54L68.5886 57.58L62.5586 54.5599L56.5186 51.54L56.8586 49.46L65.8186 44.28L67.6487 43.23L71.3987 45.1L77.8787 48.34L84.3586 51.58Z" stroke="currentColor" stroke-linejoin="round"/>
    <path d="M76.5186 61.54C75.7786 62.33 75.0787 63.1 74.4287 63.87C73.7787 64.63 73.1187 65.5 72.4387 66.46L67.8086 64.14L57.2786 58.88L52.4387 56.46C53.1187 55.5 53.7787 54.63 54.4287 53.87C55.0787 53.1 55.7786 52.33 56.5186 51.54L62.5586 54.5599L68.5886 57.5699L76.5186 61.54Z" stroke="currentColor" stroke-linejoin="round"/>
    <path d="M67.4187 81.71C67.4187 82.63 67.4786 83.52 67.6086 84.37L64.1387 82.64L56.5986 78.86C56.9786 77.3 57.4285 75.7399 57.9585 74.1899L65.2585 77.83L65.5686 77.99L65.7986 78.09L67.6086 78.83C67.4786 79.83 67.4187 80.78 67.4187 81.71Z" stroke="currentColor" stroke-linejoin="round"/>
    <path d="M65.5686 94.2799C65.7086 94.4499 65.8586 94.5898 66.0286 94.6998L55.3586 89.3699C55.3486 89.1399 55.3486 88.9098 55.3486 88.6798C55.3486 86.3198 55.5886 83.8899 56.0486 81.3999C56.1686 80.7399 56.3085 80.0699 56.4685 79.3999C56.5085 79.2199 56.5486 79.0399 56.5986 78.8599L64.1387 82.6399L67.6086 84.3699L65.5686 87.5698C65.2586 88.0498 64.9986 88.5199 64.8086 88.9999C64.5786 89.5699 64.4286 90.1398 64.3586 90.7198C64.2386 91.7898 64.3886 92.6198 64.8186 93.2198L65.5686 94.2799Z" stroke="currentColor" stroke-linejoin="round"/>
    <path d="M78.0986 95.64L71.2886 92.24L72.4387 91.1699C73.1187 91.3499 73.7787 91.44 74.4287 91.46C75.0787 91.47 75.7786 91.44 76.5186 91.37L77.0786 94.03C77.2386 94.81 77.5786 95.34 78.0986 95.64Z" stroke="currentColor" stroke-linejoin="round"/>
    <path d="M59.1687 65.7902C58.7387 65.6202 58.2086 65.7201 57.5786 66.0901L53.9287 68.2001L50.2385 70.3301L47.4187 71.9501L35.3486 78.9102L29.7285 82.1602V65.1201L39.8987 59.2501L42.7786 57.5801L46.6086 59.5001L54.7385 63.5701L59.1687 65.7902Z" stroke="currentColor" stroke-linejoin="round"/>
    <path d="M59.4387 65.9198L59.3987 65.8999" stroke="currentColor" stroke-linejoin="round"/>
</svg>