<svg width="48" height="48" viewBox="0 0 90 113" fill="none" xmlns="http://www.w3.org/2000/svg" stroke-width="1px"
     stroke-linecap="round" stroke-linejoin="round">
    <path d="M22.3809 96.6044V106.904C22.3809 108.624 22.9009 109.784 23.9509 110.374C24.9909 110.974 26.2709 110.844 27.7609 109.974L81.6309 78.8744C83.1309 78.0144 84.4009 76.6744 85.4509 74.8744C86.4909 73.0644 87.0209 71.3045 87.0209 69.5845V59.2844L22.3809 96.6044ZM32.1208 102.154C31.4308 103.344 30.5809 104.234 29.5609 104.814C28.5409 105.404 27.6909 105.504 27.0009 105.114C26.3109 104.714 25.9708 103.934 25.9708 102.774C25.9708 101.614 26.3109 100.424 27.0009 99.2444C27.6909 98.0544 28.5409 97.1645 29.5609 96.5745C30.5809 95.9945 31.4308 95.8944 32.1208 96.2844C32.8008 96.6744 33.1509 97.4544 33.1509 98.6244C33.1509 99.7944 32.8008 100.974 32.1208 102.154Z" stroke="currentColor" stroke-linejoin="round"/>
    <path d="M33.1508 98.6244C33.1508 99.7944 32.8007 100.974 32.1207 102.154C31.4307 103.344 30.5808 104.234 29.5608 104.814C28.5408 105.404 27.6907 105.504 27.0007 105.114C26.3107 104.714 25.9707 103.934 25.9707 102.774C25.9707 101.614 26.3107 100.424 27.0007 99.2444C27.6907 98.0544 28.5408 97.1645 29.5608 96.5745C30.5808 95.9945 31.4307 95.8945 32.1207 96.2845C32.8007 96.6745 33.1508 97.4544 33.1508 98.6244Z" stroke="currentColor" stroke-linejoin="round"/>
    <path d="M85.1208 12.3844C84.1408 11.9744 82.9809 12.1645 81.6309 12.9445L27.7609 44.0445C26.2709 44.9045 24.9909 46.2445 23.9509 48.0445C23.5809 48.6845 23.2809 49.3145 23.0409 49.9445C22.6009 51.0945 22.3809 52.2245 22.3809 53.3345V63.6344L10.0309 57.4545L2.38086 53.6344V43.3345C2.38086 41.6145 2.90093 39.8545 3.95093 38.0445C4.99093 36.2445 6.27086 34.9045 7.76086 34.0445L61.6309 2.94448C63.1309 2.07448 64.4009 1.94446 65.4509 2.54446L85.1208 12.3844Z" stroke="currentColor" stroke-linejoin="round"/>
    <path d="M85.4509 12.5444L85.1208 12.3843C84.1408 11.9743 82.9809 12.1644 81.6309 12.9444L27.7609 44.0444C26.2709 44.9044 24.9909 46.2444 23.9509 48.0444C23.5809 48.6844 23.2809 49.3144 23.0409 49.9444C22.6009 51.0944 22.3809 52.2244 22.3809 53.3344V63.6343L67.0209 37.8643L79.3708 30.7343L87.0209 26.3144V16.0143C87.0209 14.2943 86.4909 13.1444 85.4509 12.5444ZM32.1208 52.7044C31.4308 53.8944 30.5809 54.7843 29.5609 55.3643C28.5409 55.9543 27.6909 56.0544 27.0009 55.6644C26.3109 55.2644 25.9708 54.4844 25.9708 53.3244C25.9708 52.1644 26.3109 50.9744 27.0009 49.7844C27.6909 48.6044 28.5409 47.7143 29.5609 47.1243C30.5809 46.5443 31.4308 46.4444 32.1208 46.8344C32.8008 47.2244 33.1509 48.0044 33.1509 49.1744C33.1509 50.3444 32.8008 51.5244 32.1208 52.7044Z" stroke="currentColor" stroke-linejoin="round"/>
    <path d="M33.1508 49.1745C33.1508 50.3445 32.8007 51.5245 32.1207 52.7045C31.4307 53.8945 30.5808 54.7845 29.5608 55.3645C28.5408 55.9545 27.6907 56.0545 27.0007 55.6645C26.3107 55.2645 25.9707 54.4845 25.9707 53.3245C25.9707 52.1645 26.3107 50.9745 27.0007 49.7845C27.6907 48.6045 28.5408 47.7145 29.5608 47.1245C30.5808 46.5445 31.4307 46.4445 32.1207 46.8345C32.8007 47.2245 33.1508 48.0045 33.1508 49.1745Z" stroke="currentColor" stroke-linejoin="round"/>
    <path d="M22.3809 71.8744V88.3644L66.3508 62.9744L79.3708 55.4644L87.0209 51.0444V34.5544L22.3809 71.8744ZM32.1208 77.4344C31.4308 78.6144 30.5809 79.5044 29.5609 80.0944C28.5409 80.6844 27.6909 80.7744 27.0009 80.3844C26.3109 79.9944 25.9708 79.2144 25.9708 78.0444C25.9708 76.8744 26.3109 75.7044 27.0009 74.5144C27.6909 73.3244 28.5409 72.4444 29.5609 71.8544C30.5809 71.2644 31.4308 71.1645 32.1208 71.5645C32.8008 71.9545 33.1509 72.7344 33.1509 73.9044C33.1509 75.0744 32.8008 76.2444 32.1208 77.4344Z" stroke="currentColor" stroke-linejoin="round"/>
    <path d="M33.1508 73.9044C33.1508 75.0644 32.8007 76.2444 32.1207 77.4344C31.4307 78.6144 30.5808 79.5043 29.5608 80.0943C28.5408 80.6843 27.6907 80.7743 27.0007 80.3843C26.3107 79.9943 25.9707 79.2144 25.9707 78.0444C25.9707 76.8744 26.3107 75.7044 27.0007 74.5144C27.6907 73.3244 28.5408 72.4443 29.5608 71.8543C30.5808 71.2643 31.4307 71.1644 32.1207 71.5644C32.8007 71.9544 33.1508 72.7344 33.1508 73.9044Z" stroke="currentColor" stroke-linejoin="round"/>
    <path d="M87.0209 34.5544L22.3809 71.8744L17.6909 69.5244L12.4109 66.8844L7.16089 64.2644L2.38086 61.8744L10.0309 57.4545L22.3809 63.6344L67.0209 37.8644L79.3708 30.7344L87.0209 34.5544Z" stroke="currentColor" stroke-linejoin="round"/>
    <path d="M87.0209 59.2844L22.3809 96.6044L17.6709 94.2544L12.4109 91.6144L7.16089 88.9944L2.38086 86.6044L10.0309 82.1844L22.3809 88.3644L66.3508 62.9744L79.3708 55.4644L87.0209 59.2844Z" stroke="currentColor" stroke-linejoin="round"/>
    <path d="M22.3809 71.8745V88.3645L10.0309 82.1846L2.38086 78.3645V61.8745L7.16089 64.2645L12.4109 66.8845L17.6909 69.5245L22.3809 71.8745Z" stroke="currentColor" stroke-linejoin="round"/>
    <path d="M23.9509 110.375L4.28088 100.535L3.95093 100.375C2.90093 99.7845 2.38086 98.6245 2.38086 96.9045V86.6045L7.16089 88.9945L12.4109 91.6145L17.6709 94.2545L22.3809 96.6045V106.905C22.3809 108.625 22.9009 109.785 23.9509 110.375Z" stroke="currentColor" stroke-linejoin="round"/>
</svg>