<svg width="24" height="24" viewBox="0 0 92 94" fill="none" xmlns="http://www.w3.org/2000/svg" stroke-width="1px" stroke-linecap="round" stroke-linejoin="round">
    <path d="M84.9099 47.001L84.1399 46.621C81.0299 45.221 77.32 45.761 73.04 48.231C71.88 48.901 70.7599 49.661 69.6799 50.521C66.4499 53.081 63.6099 56.481 61.1599 60.721C58.4399 65.401 56.8499 69.981 56.3899 74.451C56.2999 75.361 56.25 76.271 56.25 77.171C56.25 82.501 57.8899 86.101 61.1599 87.971C64.4299 89.831 68.39 89.421 73.04 86.741C77.68 84.061 81.6399 79.901 84.9099 74.251C88.1799 68.611 89.8201 63.121 89.8201 57.801C89.8201 52.481 88.1799 48.871 84.9099 47.001ZM74.21 77.781C73.87 78.361 73.48 78.781 73.04 79.041C72.59 79.301 72.2001 79.331 71.8601 79.141C71.5201 78.951 71.3601 78.601 71.3601 78.081C71.3601 77.561 71.5201 77.021 71.8601 76.441C72.2001 75.871 72.59 75.451 73.04 75.191C73.48 74.931 73.87 74.901 74.21 75.091C74.55 75.281 74.71 75.631 74.71 76.151C74.71 76.671 74.55 77.211 74.21 77.781ZM74.71 68.441C74.71 68.961 74.55 69.501 74.21 70.081C73.87 70.661 73.48 71.081 73.04 71.341C72.59 71.601 72.2001 71.631 71.8601 71.441C71.5201 71.251 71.3601 70.891 71.3601 70.381V58.821C71.3601 58.311 71.5201 57.761 71.8601 57.191C72.2001 56.611 72.59 56.191 73.04 55.931C73.48 55.671 73.87 55.641 74.21 55.831C74.55 56.021 74.71 56.371 74.71 56.891V68.441Z" stroke="currentColor" stroke-linejoin="round"/>
    <path d="M74.7092 76.1509C74.7092 76.6609 74.5492 77.2109 74.2092 77.7809C73.8692 78.3609 73.4793 78.7809 73.0393 79.0409C72.5893 79.3009 72.1994 79.3309 71.8594 79.1409C71.5194 78.9509 71.3594 78.6009 71.3594 78.0809C71.3594 77.5609 71.5194 77.0209 71.8594 76.4409C72.1994 75.8709 72.5893 75.4509 73.0393 75.1909C73.4793 74.9309 73.8692 74.9009 74.2092 75.0909C74.5492 75.2809 74.7092 75.6309 74.7092 76.1509Z" stroke="currentColor" stroke-linejoin="round"/>
    <path d="M74.7092 56.8909V68.4409C74.7092 68.9609 74.5492 69.5009 74.2092 70.0809C73.8692 70.6609 73.4793 71.0809 73.0393 71.3409C72.5893 71.6009 72.1994 71.6309 71.8594 71.4409C71.5194 71.2509 71.3594 70.8909 71.3594 70.3809V58.8209C71.3594 58.3109 71.5194 57.7609 71.8594 57.1909C72.1994 56.6109 72.5893 56.1909 73.0393 55.9309C73.4793 55.6709 73.8692 55.6409 74.2092 55.8309C74.5492 56.0209 74.7092 56.3709 74.7092 56.8909Z" stroke="currentColor" stroke-linejoin="round"/>
    <path d="M82.2195 16.0609C81.9595 15.7009 81.6496 15.4009 81.2996 15.1909L80.7695 14.9309C80.4595 14.8009 80.1195 14.7209 79.7495 14.6909L63.0996 13.3209L56.2495 12.7609C55.7495 12.7209 55.2194 12.7709 54.6594 12.9109C54.0994 13.0409 53.5094 13.2809 52.8994 13.6309C52.2794 13.9909 51.7094 14.4209 51.1794 14.9209C50.6394 15.4209 50.0996 15.9909 49.5396 16.6309L32.5195 37.6909L26.0396 45.7009C25.9696 45.7909 25.8896 45.8909 25.8296 45.9809C24.8696 47.2209 24.1096 48.5309 23.5696 49.9209C22.9796 51.4209 22.6895 52.8709 22.6895 54.2809V84.9008C22.6895 86.3208 22.9796 87.4309 23.5696 88.2509C23.8596 88.6509 24.1996 88.9609 24.5996 89.1909C25.0196 89.4209 25.4996 89.5609 26.0396 89.6109L45.2595 91.2209C46.3795 91.2909 47.4495 90.5709 48.4895 89.0709C49.5195 87.5709 49.9295 86.0909 49.7095 84.6109C49.5895 84.1609 49.5396 83.6308 49.5396 83.0208V81.0509C49.5396 80.1509 49.5694 79.2409 49.6494 78.3309C49.8694 75.2009 50.4996 72.0309 51.5396 68.8109C51.8996 67.6609 52.3196 66.5109 52.7896 65.3609C53.7696 62.9309 54.9794 60.4809 56.4194 58.0109C60.0894 51.6809 64.3695 46.6908 69.2595 43.0208C70.3295 42.2208 71.4196 41.4909 72.5496 40.8209C72.7096 40.7109 72.8696 40.6208 73.0396 40.5208C74.0996 39.9108 75.1494 39.3809 76.1794 38.9509C77.2194 38.5109 78.2094 38.1809 79.1594 37.9509C80.1094 37.7209 81.0096 37.0409 81.8496 35.9209C82.6896 34.7909 83.0996 33.6509 83.0996 32.4909V19.4009C83.0996 17.9909 82.8095 16.8709 82.2195 16.0609ZM74.7996 28.1009C74.5696 29.2809 74.0696 30.3609 73.2896 31.3309L67.6194 38.3509L67.1895 38.8909L56.2495 52.4309C55.7695 53.0209 55.2495 53.5709 54.7095 54.0709C54.6895 54.0909 54.6794 54.1009 54.6594 54.1209C54.0994 54.6309 53.5094 55.0709 52.8994 55.4209C52.3594 55.7309 51.8496 55.9509 51.3596 56.0909C51.2796 56.1109 51.1994 56.1308 51.1294 56.1508C50.5694 56.2808 50.0396 56.3309 49.5396 56.3009L38.8196 55.3609L32.9995 54.8609L32.5896 54.8209C31.7996 54.7609 31.2896 54.2709 31.0396 53.3609C30.7796 52.4509 30.8796 51.4109 31.3296 50.2509C31.7796 49.1009 32.4496 48.1309 33.3396 47.3609C34.2396 46.5809 35.0796 46.2309 35.8596 46.2909L37.3694 46.4209L43.6096 46.9409L51.6394 47.6109L52.8994 47.7209L54.3396 45.9309L62.3296 36.0409L69.9294 26.6209C70.7094 25.6509 71.5495 25.0409 72.4495 24.7809C73.3395 24.5209 74.0095 24.7109 74.4595 25.3509C74.9095 25.9909 75.0196 26.9109 74.7996 28.1009Z" stroke="currentColor" stroke-linejoin="round"/>
    <path d="M80.7695 14.9309C80.4595 14.8009 80.1195 14.7209 79.7495 14.6909L63.0996 13.3209L56.2495 12.7609C55.7495 12.7209 55.2194 12.7709 54.6594 12.9109C54.0994 13.0409 53.5094 13.2809 52.8994 13.6309C52.2794 13.9909 51.7094 14.4209 51.1794 14.9209C50.6394 15.4209 50.0996 15.9909 49.5396 16.6309L32.5195 37.6909L26.0396 45.7009C25.9696 45.7909 25.8896 45.8909 25.8296 45.9809C24.8696 47.2209 24.1096 48.5309 23.5696 49.9209C22.9796 51.4209 22.6895 52.8709 22.6895 54.2809V84.9008C22.6895 86.3208 22.9796 87.4309 23.5696 88.2509C23.8596 88.6509 24.1996 88.9609 24.5996 89.1909L4.94946 79.3509L4.75952 79.2609C4.28952 79.0409 3.88958 78.7009 3.56958 78.2509C2.97958 77.4309 2.68945 76.3208 2.68945 74.9008V44.2809C2.68945 42.8709 2.97958 41.4209 3.56958 39.9209C4.14958 38.4309 4.97955 37.0209 6.03955 35.7009L29.5396 6.63089C30.0996 5.99089 30.6394 5.42087 31.1794 4.92087C31.7094 4.42087 32.2794 3.99089 32.8994 3.63089C33.5094 3.28089 34.0994 3.04086 34.6594 2.91086C35.2194 2.77086 35.7495 2.7209 36.2495 2.7609L59.7495 4.69089C60.2995 4.74089 60.7895 4.89089 61.2095 5.13089L80.7695 14.9309Z" stroke="currentColor" stroke-linejoin="round"/>
    <path d="M84.1389 46.6209C81.0289 45.2209 77.3191 45.7609 73.0391 48.2309C71.8791 48.9009 70.759 49.6609 69.679 50.5209C66.449 53.0809 63.6089 56.4809 61.1589 60.7209C58.4389 65.4009 56.8489 69.9809 56.3889 74.4509C56.2989 75.3609 56.249 76.2709 56.249 77.1709C56.249 82.5009 57.8889 86.1009 61.1589 87.9709L49.5391 82.1609V81.0509C49.5391 80.1509 49.5689 79.2409 49.6489 78.3309C49.8689 75.2009 50.4991 72.0309 51.5391 68.8109C51.8991 67.6609 52.3191 66.5109 52.7891 65.3609C53.7691 62.9309 54.9789 60.4809 56.4189 58.0109C60.0889 51.6809 64.369 46.6909 69.259 43.0209C70.329 42.2209 71.4191 41.4909 72.5491 40.8209L84.1389 46.6209Z" stroke="currentColor" stroke-linejoin="round"/>
    <path d="M74.7997 28.1009C74.5697 29.2809 74.0697 30.3609 73.2897 31.3309L67.6196 38.3509L67.1896 38.8909L56.2497 52.4309C55.7697 53.0209 55.2497 53.5709 54.7097 54.0709C54.6897 54.0909 54.6796 54.1009 54.6596 54.1209C54.0996 54.6309 53.5096 55.0709 52.8996 55.4209C52.3596 55.7309 51.8498 55.9509 51.3598 56.0909C51.2798 56.1109 51.1996 56.1309 51.1296 56.1509C50.5696 56.2809 50.0397 56.3309 49.5397 56.3009L38.8198 55.3609L32.9997 54.8609L32.5898 54.8209C31.7998 54.7609 31.2897 54.2709 31.0397 53.3609C30.7797 52.4509 30.8798 51.4109 31.3298 50.2509C31.7798 49.1009 32.4498 48.1309 33.3398 47.3609C34.2398 46.5809 35.0798 46.2309 35.8598 46.2909L37.3696 46.4209L43.6098 46.9409L51.6396 47.6109L52.8996 47.7209L54.3398 45.9309L62.3298 36.0409L69.9296 26.6209C70.7096 25.6509 71.5496 25.0409 72.4496 24.7809C73.3396 24.5209 74.0097 24.7109 74.4597 25.3509C74.9097 25.9909 75.0197 26.9109 74.7997 28.1009Z" stroke="currentColor" stroke-linejoin="round"/>
</svg>