<svg width="48" height="48" viewBox="0 0 76 119" fill="none" xmlns="http://www.w3.org/2000/svg" stroke-width="1px"
     stroke-linecap="round" stroke-linejoin="round">
    <path d="M24.7598 115.877C24.9698 116.067 25.2298 116.197 25.5398 116.267L24.7598 115.877Z" stroke="currentColor" stroke-linejoin="round"/>
    <path d="M56.5498 17.3473C56.5498 19.7073 55.8199 22.1473 54.3499 24.6773C52.8899 27.1973 51.1298 29.0473 49.0798 30.2373C47.0198 31.4273 45.2598 31.5972 43.7998 30.7672C42.3398 29.9372 41.5999 28.3373 41.5999 25.9773C41.5999 25.4073 41.7297 24.4772 41.9797 23.1872C41.5097 23.2172 41.0998 23.1273 40.7698 22.9173L40.6396 22.8473C40.5396 22.7673 40.4298 22.6772 40.3398 22.5772C39.9398 22.1372 39.7397 21.4872 39.7397 20.6272C39.7397 19.4172 40.0898 18.1872 40.8098 16.9572C41.5298 15.7172 42.4097 14.7972 43.4697 14.1872C44.2197 13.7472 44.8897 13.5973 45.4797 13.7173C45.5497 13.7373 45.6297 13.7572 45.6897 13.7772L45.7297 13.7973L46.1199 13.9873C46.4099 14.1773 46.6398 14.4572 46.8298 14.8172C47.2098 14.4572 47.5797 14.1373 47.9597 13.8473C48.3297 13.5573 48.6998 13.3072 49.0798 13.0872C50.9198 12.0272 52.5196 11.7772 53.8896 12.3372L54.3499 12.5672C55.8199 13.3972 56.5498 14.9973 56.5498 17.3473Z" stroke="currentColor" stroke-linejoin="round"/>
    <path d="M3.15967 91.4673C3.44967 91.7673 3.78968 91.9373 4.16968 91.9773L3.15967 91.4673Z" stroke="currentColor" stroke-linejoin="round"/>
    <path d="M73.3599 46.2275V89.0975C73.3599 89.6675 73.1698 90.2775 72.7998 90.9175C72.4198 91.5575 71.9897 92.0274 71.4897 92.3174C70.9897 92.5974 70.5597 92.6375 70.1797 92.4275C69.8097 92.2175 69.6199 91.8174 69.6199 91.2474V48.3874C69.6199 47.8074 69.4398 47.4174 69.0598 47.2074C68.6898 46.9974 68.2498 47.0274 67.7498 47.3174C67.2598 47.6074 66.8197 48.0675 66.4497 48.7175C66.0697 49.3575 65.8896 49.9675 65.8896 50.5375V55.8974C65.8896 56.4674 65.6998 57.0775 65.3298 57.7175C64.9498 58.3675 64.5198 58.8275 64.0198 59.1175C63.5198 59.4075 63.0797 59.4475 62.7097 59.2275C62.3397 59.0175 62.1497 58.6275 62.1497 58.0575V56.0174C59.7797 55.8874 57.3599 55.3374 54.8699 54.3874C54.6099 54.2874 54.3498 54.1675 54.0898 54.0575L53.7197 53.8675C53.5897 53.8075 53.4699 53.7475 53.3599 53.6775C51.7699 52.8175 50.5199 51.6274 49.6199 50.1274C49.5299 49.9874 49.4399 49.8374 49.3599 49.6874L49.0698 51.5575L48.9497 52.3475L47.2097 63.4675L49.6199 70.3374L53.1099 80.2774L54.6396 84.6575L54.6797 84.7674V102.017L47.2097 106.337V89.1874L39.7397 93.4974L36.2498 100.857L30.7698 112.397C30.1498 113.757 29.3398 114.797 28.3398 115.507C27.3498 116.227 26.4098 116.487 25.5398 116.267L24.7598 115.877C24.3598 115.547 24.1298 115.037 24.0498 114.347C23.9198 113.277 24.1698 112.057 24.7898 110.697L30.3997 98.8974L25.8198 101.537C24.6998 102.177 23.8097 102.157 23.1597 101.467C22.5097 100.767 22.1797 99.7075 22.1797 98.2775C22.1797 95.7775 22.5997 92.1274 23.4397 87.3174C23.7897 85.2974 24.2498 83.0575 24.8298 80.5575C25.6298 77.0875 26.6496 73.1475 27.8796 68.7375C28.5596 66.2775 29.2698 63.8875 30.0398 61.5475C31.6398 56.5975 33.4296 51.9274 35.3896 47.5174C35.7896 46.6274 36.1898 45.7875 36.5898 44.9875C38.4698 41.2675 40.4297 38.4574 42.4897 36.5674C43.2397 35.8774 44.0098 35.3075 44.7798 34.8575C45.2698 34.5775 45.7197 34.3475 46.1497 34.1775C47.2297 33.7475 48.1098 33.6574 48.7898 33.9374L48.9297 34.0074C49.1797 34.1374 49.3998 34.3175 49.5898 34.5475C50.4698 35.6475 51.7199 37.3075 53.3599 39.5575C53.3899 39.6075 53.4297 39.6574 53.4697 39.7074C54.2197 40.7274 54.9396 41.6274 55.6296 42.3974C56.7796 43.6874 57.8696 44.6374 58.8796 45.2574C60.4996 46.2574 62.2399 46.7174 64.1099 46.6374C64.7999 45.6674 65.3896 44.9375 65.8896 44.4275C66.3796 43.9275 66.9797 43.4774 67.6597 43.0874C69.0597 42.2774 70.2798 42.0974 71.3198 42.5174L71.6797 42.6974C72.7997 43.3374 73.3599 44.5075 73.3599 46.2275Z" stroke="currentColor" stroke-linejoin="round"/>
    <path d="M48.7898 33.9374C48.1098 33.6574 47.2297 33.7475 46.1497 34.1775C45.7197 34.3475 45.2698 34.5774 44.7798 34.8574C44.0098 35.3074 43.2397 35.8774 42.4897 36.5674C40.4297 38.4574 38.4698 41.2674 36.5898 44.9874C36.1898 45.7874 35.7896 46.6274 35.3896 47.5174C33.4296 51.9274 31.6398 56.5974 30.0398 61.5474C29.2698 63.8874 28.5596 66.2774 27.8796 68.7374C26.6496 73.1474 25.6298 77.0875 24.8298 80.5575C24.2498 83.0575 23.7897 85.2974 23.4397 87.3174C22.5997 92.1274 22.1797 95.7774 22.1797 98.2774C22.1797 99.7074 22.5097 100.767 23.1597 101.467L8.01978 93.8974L4.1897 91.9774H4.16968L3.15967 91.4674C2.50967 90.7674 2.17969 89.7074 2.17969 88.2774C2.17969 85.7774 2.5997 82.1274 3.4397 77.3174C4.2797 72.5074 5.75964 66.3174 7.87964 58.7374C9.98964 51.0774 12.4996 44.0074 15.3896 37.5174C18.2896 31.0174 21.4198 26.8074 24.7798 24.8574C26.5598 23.8274 27.9299 23.5374 28.8699 23.9774L29.0698 24.0774L47.3997 33.2474L48.7898 33.9374Z" stroke="currentColor" stroke-linejoin="round"/>
    <path d="M43.7996 30.7673L23.7996 20.7673C22.3396 19.9373 21.5996 18.3374 21.5996 15.9774C21.5996 15.4574 21.7094 14.6273 21.9194 13.4973L31.5696 18.3173L40.6394 22.8474L40.7695 22.9174C41.0995 23.1274 41.5095 23.2173 41.9795 23.1873C41.7295 24.4773 41.5996 25.4074 41.5996 25.9774C41.5996 28.3374 42.3396 29.9373 43.7996 30.7673Z" stroke="currentColor" stroke-linejoin="round"/>
    <path d="M64.1101 46.6375C62.2401 46.7175 60.4999 46.2574 58.8799 45.2574C57.8699 44.6374 56.7799 43.6875 55.6299 42.3975L64.1101 46.6375Z" stroke="currentColor" stroke-linejoin="round"/>
    <path d="M71.3196 42.5173C70.2796 42.0973 69.0594 42.2773 67.6594 43.0873C66.9794 43.4773 66.3794 43.9273 65.8894 44.4273C65.3894 44.9373 64.7996 45.6673 64.1096 46.6373L55.6294 42.3973C54.9394 41.6273 54.2195 40.7273 53.4695 39.7073C53.4295 39.6573 53.3896 39.6073 53.3596 39.5573C51.7196 37.3073 50.4696 35.6473 49.5896 34.5473C49.3996 34.3173 49.1794 34.1373 48.9294 34.0073L48.7896 33.9373L47.3994 33.2473C47.4894 33.1873 47.5694 33.1373 47.6594 33.0873C49.2194 32.1873 50.5594 32.0573 51.6794 32.6973L71.3196 42.5173Z" stroke="currentColor" stroke-linejoin="round"/>
    <path d="M53.7197 53.8673L53.1797 53.6073L49.0698 51.5573L49.3599 49.6873C49.4399 49.8373 49.5299 49.9873 49.6199 50.1273C50.5199 51.6273 51.7699 52.8173 53.3599 53.6773C53.4699 53.7473 53.5897 53.8073 53.7197 53.8673Z" stroke="currentColor" stroke-linejoin="round"/>
    <path d="M62.7097 59.2274L53.3599 54.5574L49.6199 52.6873L48.9497 52.3474L49.0698 51.5574L53.1797 53.6074L53.7197 53.8674L54.0898 54.0574C54.3498 54.1674 54.6099 54.2873 54.8699 54.3873C57.3599 55.3373 59.7797 55.8873 62.1497 56.0173V58.0574C62.1497 58.6274 62.3397 59.0174 62.7097 59.2274Z" stroke="currentColor" stroke-linejoin="round"/>
    <path d="M70.1799 92.4275L54.6399 84.6575L53.1101 80.2775L49.6201 70.3375V52.6875L53.3601 54.5575L62.71 59.2275C63.08 59.4475 63.52 59.4075 64.02 59.1175C64.52 58.8275 64.9501 58.3675 65.3301 57.7175C65.7001 57.0775 65.8899 56.4675 65.8899 55.8975V50.5375C65.8899 49.9675 66.07 49.3575 66.45 48.7175C66.82 48.0675 67.26 47.6075 67.75 47.3175C68.25 47.0275 68.6901 46.9975 69.0601 47.2075C69.4401 47.4175 69.6201 47.8075 69.6201 48.3875V91.2475C69.6201 91.8175 69.8099 92.2175 70.1799 92.4275Z" stroke="currentColor" stroke-linejoin="round"/>
    <path d="M24.79 110.697C24.17 112.057 23.92 113.277 24.05 114.347C24.13 115.037 24.36 115.547 24.76 115.877L5.54 106.267C4.67 106.057 4.17001 105.417 4.05001 104.347C3.92001 103.277 4.17 102.057 4.79 100.697L8.01998 93.8975L23.1599 101.467C23.8099 102.157 24.7 102.177 25.82 101.537L30.3999 98.8975L24.79 110.697Z" stroke="currentColor" stroke-linejoin="round"/>
    <path d="M47.21 89.1873V106.337L36.25 100.857L39.74 93.4973L47.21 89.1873Z" stroke="currentColor" stroke-linejoin="round"/>
    <path d="M20.76 12.9175L20.6699 12.8774" stroke="currentColor" stroke-linejoin="round"/>
    <path d="M46.22 14.0373L46.1201 13.9873" stroke="currentColor" stroke-linejoin="round"/>
    <path d="M45.6897 13.7773C45.6297 13.7573 45.5497 13.7373 45.4797 13.7173C44.8897 13.5973 44.2197 13.7472 43.4697 14.1872C42.4097 14.7972 41.5298 15.7173 40.8098 16.9573C40.0898 18.1873 39.7397 19.4173 39.7397 20.6273C39.7397 21.4873 39.9398 22.1373 40.3398 22.5773C40.4298 22.6773 40.5396 22.7673 40.6396 22.8473L31.5698 18.3173L21.9197 13.4972L20.9897 13.0373L20.7598 12.9173C20.6098 12.8373 20.4698 12.7173 20.3398 12.5773C19.9398 12.1373 19.7397 11.4873 19.7397 10.6273C19.7397 9.41725 20.0898 8.18727 20.8098 6.95727C21.5298 5.71727 22.4097 4.79725 23.4697 4.18725C24.2197 3.74725 24.8897 3.59728 25.4797 3.71728C25.6697 3.75728 25.8398 3.82729 25.9998 3.91729L26.0798 3.95727L27.1697 4.50726L36.4097 9.12725L45.6897 13.7773Z" stroke="currentColor" stroke-linejoin="round"/>
    <path d="M53.8899 12.3373C52.5199 11.7773 50.9201 12.0273 49.0801 13.0873C48.7001 13.3073 48.33 13.5573 47.96 13.8473C47.58 14.1373 47.2101 14.4573 46.8301 14.8173C46.6401 14.4573 46.4101 14.1774 46.1201 13.9874C46.0001 13.9074 45.87 13.8374 45.73 13.7974L45.6899 13.7773L36.4099 9.12732L27.1699 4.50732C27.4399 4.26732 27.7 4.04735 27.96 3.84735C28.33 3.55735 28.7001 3.30734 29.0801 3.08734C30.8801 2.04734 32.4701 1.78737 33.8201 2.30737L33.8601 2.32733L34.3799 2.58734L53.8899 12.3373Z" stroke="currentColor" stroke-linejoin="round"/>
    <path d="M33.8599 2.32733L33.8198 2.30737" stroke="currentColor" stroke-linejoin="round"/>
</svg>