<svg width="24" height="24" viewBox="0 0 81 127" fill="none" xmlns="http://www.w3.org/2000/svg" stroke-width="1px" stroke-linecap="round" stroke-linejoin="round">
    <path d="M34.5403 101.747V101.837L34.5103 101.907C34.5603 101.877 34.6203 101.847 34.6803 101.817L34.5403 101.747Z" stroke="currentColor" stroke-linejoin="round"/>
    <path d="M60.7203 18.1973C60.7203 20.7373 59.9303 23.3673 58.3503 26.0873C56.7803 28.8073 54.8804 30.8073 52.6604 32.0873C50.4504 33.3673 48.5503 33.5573 46.9703 32.6573C45.4003 31.7573 44.6104 30.0373 44.6104 27.4973C44.6104 24.9573 45.4003 22.3173 46.9703 19.5973C48.5503 16.8773 50.4504 14.8773 52.6604 13.5973C54.8804 12.3173 56.7803 12.1273 58.3503 13.0273C59.9303 13.9273 60.7203 15.6473 60.7203 18.1973Z" stroke="currentColor" stroke-linejoin="round"/>
    <path d="M78.8501 49.3273V95.5473C78.8501 96.1673 78.6401 96.8173 78.2401 97.5173C77.8401 98.2073 77.3702 98.7173 76.8302 99.0273C76.3002 99.3373 75.8302 99.3773 75.4202 99.1473C75.0202 98.9173 74.8202 98.4873 74.8202 97.8773V51.6573C74.8202 51.0373 74.6202 50.6173 74.2102 50.3873C73.8102 50.1573 73.3402 50.1973 72.8002 50.5073C72.2702 50.8173 71.8001 51.3173 71.3901 52.0073C70.9901 52.7073 70.7902 53.3673 70.7902 53.9773V59.7573C70.7902 60.3773 70.5902 61.0273 70.1902 61.7273C69.7802 62.4173 69.3102 62.9173 68.7802 63.2273C68.2402 63.5373 67.7701 63.5773 67.3701 63.3473C66.9601 63.1173 66.7601 62.6973 66.7601 62.0773V59.8873C63.4601 60.1773 60.8201 59.9073 58.8501 59.0773C58.7101 59.0173 58.5802 58.9573 58.4502 58.8873L57.9202 58.6173C56.8202 57.9773 55.7802 57.0573 54.8202 55.8673C54.1702 55.0573 53.5501 54.1273 52.9701 53.0573C52.7201 53.9273 52.4902 54.8373 52.2802 55.7973C51.8502 57.6873 51.4902 59.7573 51.2002 61.9973C50.7702 65.3673 50.6201 68.3973 50.7501 71.0973L54.8202 75.3673L58.0001 78.6973C58.2701 78.9273 58.4502 79.2473 58.5602 79.6473C58.6602 80.0473 58.7102 80.4873 58.7102 80.9473V104.867C58.7102 106.177 58.3202 107.497 57.5502 108.827C56.7802 110.157 55.8202 111.157 54.6802 111.817C53.5402 112.477 52.5802 112.577 51.8102 112.137C51.0402 111.697 50.6501 110.827 50.6501 109.517V91.0273L43.5001 83.3673L43.2902 87.3473L42.6902 98.8573C42.6902 99.1673 42.4301 100.167 41.8901 101.867L39.8501 106.157L32.9302 120.677C32.2602 122.137 31.3802 123.257 30.3102 124.037C29.2302 124.807 28.2302 125.077 27.2902 124.857C26.9602 124.777 26.6702 124.637 26.4402 124.437C26.0202 124.077 25.7602 123.527 25.6802 122.777C25.5402 121.627 25.8101 120.317 26.4801 118.847L33.9001 103.187L34.5101 101.907C34.5601 101.877 34.6202 101.847 34.6802 101.817L34.5402 101.747V77.2173C34.5402 74.8273 34.7102 72.1373 35.0402 69.1273C35.1602 68.0873 35.3002 67.0473 35.4602 66.0373C35.7502 64.1273 36.1102 62.2673 36.5502 60.4573L33.5702 64.0573L30.5101 67.7573V79.5473C30.5101 79.9473 30.4701 80.3573 30.4001 80.7573C30.2301 81.6673 29.8801 82.5873 29.3501 83.5073C28.5801 84.8373 27.6201 85.8373 26.4801 86.4973C25.3401 87.1473 24.3801 87.2573 23.6101 86.8173C23.2801 86.6273 23.0202 86.3673 22.8402 86.0173C22.5802 85.5573 22.4502 84.9473 22.4502 84.1973V69.7573C22.4502 68.9073 22.6202 68.0173 22.9602 67.0973C23.2902 66.1673 23.8001 65.3173 24.4701 64.5473L30.7701 56.8373L37.6301 48.4273L40.1802 45.3073C41.8602 43.2573 43.3202 41.5873 44.5602 40.2973C44.8902 39.9473 45.2202 39.6273 45.5302 39.3373C46.4102 38.5073 47.2502 37.8673 48.0302 37.4173C49.2602 36.7073 50.4201 36.4873 51.4801 36.7673C51.6701 36.8173 51.8502 36.8773 52.0402 36.9573L52.3302 37.0973C52.4202 37.1473 52.5201 37.1973 52.6101 37.2573C53.9901 38.1173 55.5801 39.7973 57.4001 42.2973C57.8901 42.9673 58.3801 43.5873 58.8501 44.1673C60.4301 46.0873 61.8901 47.4673 63.2401 48.2873C64.9801 49.3573 66.8601 49.8473 68.8801 49.7673C69.6201 48.7273 70.2502 47.9373 70.7902 47.3873C71.3302 46.8473 71.9702 46.3673 72.7002 45.9373C74.2102 45.0673 75.5301 44.8673 76.6501 45.3273L77.0302 45.5173C78.2402 46.2073 78.8501 47.4773 78.8501 49.3273Z" stroke="currentColor" stroke-linejoin="round"/>
    <path d="M58.4503 58.8874L58.8502 59.0874C58.7102 59.0174 58.5803 58.9574 58.4503 58.8874ZM34.5403 101.747V101.837L34.5103 101.907C34.5603 101.877 34.6203 101.847 34.6803 101.817L34.5403 101.747Z" stroke="currentColor" stroke-linejoin="round"/>
    <path d="M52.0402 36.9573C51.8502 36.8773 51.6701 36.8173 51.4801 36.7673C50.4201 36.4873 49.2602 36.7073 48.0302 37.4173C47.2502 37.8673 46.4102 38.5073 45.5302 39.3373C45.2202 39.6273 44.8902 39.9473 44.5602 40.2973C43.3202 41.5873 41.8602 43.2573 40.1802 45.3073L37.6301 48.4273L30.7701 56.8373L24.4701 64.5473C23.8001 65.3173 23.2902 66.1673 22.9602 67.0973C22.6202 68.0173 22.4502 68.9073 22.4502 69.7573V84.1973C22.4502 84.9473 22.5802 85.5573 22.8402 86.0173L22.8202 86.4173L14.5402 82.2873L3.8501 76.9373L3.61011 76.8173C2.84011 76.3773 2.4502 75.5073 2.4502 74.1973V59.7573C2.4502 58.9073 2.62021 58.0173 2.96021 57.0973C3.29021 56.1673 3.80009 55.3173 4.47009 54.5473L20.1802 35.3073C21.8602 33.2573 23.3202 31.5873 24.5602 30.2973C25.8002 28.9973 26.9602 28.0373 28.0302 27.4173C29.7102 26.4473 31.2401 26.3973 32.6101 27.2573L51.5602 36.7073L52.0402 36.9573Z" stroke="currentColor" stroke-linejoin="round"/>
    <path d="M76.65 45.3273C75.53 44.8673 74.2101 45.0673 72.7001 45.9373C71.9701 46.3673 71.33 46.8473 70.79 47.3873C70.25 47.9373 69.62 48.7273 68.88 49.7673C66.86 49.8473 64.98 49.3573 63.24 48.2873C61.89 47.4673 60.43 46.0873 58.85 44.1673C58.38 43.5873 57.89 42.9673 57.4 42.2973C55.58 39.7973 53.99 38.1173 52.61 37.2573C52.52 37.1973 52.4201 37.1473 52.3301 37.0973L52.04 36.9573L51.5601 36.7073C51.9101 36.4373 52.2901 36.1773 52.7001 35.9373C54.2701 35.0273 55.64 34.8473 56.79 35.3973L76.65 45.3273Z" stroke="currentColor" stroke-linejoin="round"/>
    <path d="M58.3503 13.0273C56.7803 12.1273 54.8804 12.3173 52.6604 13.5973C50.4504 14.8773 48.5503 16.8773 46.9703 19.5973C45.4003 22.3173 44.6104 24.9573 44.6104 27.4973C44.6104 30.0373 45.4003 31.7573 46.9703 32.6573L26.9703 22.6573C25.4003 21.7573 24.6104 20.0373 24.6104 17.4973C24.6104 14.9573 25.4003 12.3173 26.9703 9.59734C28.5503 6.87734 30.4504 4.87734 32.6604 3.59734C34.8804 2.31734 36.7803 2.12734 38.3503 3.02734L58.3503 13.0273Z" stroke="currentColor" stroke-linejoin="round"/>
    <path d="M34.5404 101.747V101.837L34.5104 101.907L33.9004 103.187L26.4804 118.847C25.8104 120.317 25.5404 121.627 25.6804 122.777C25.7604 123.527 26.0205 124.077 26.4405 124.437L6.97036 114.747L6.66042 114.597C6.11042 114.257 5.78044 113.647 5.68044 112.777C5.54044 111.627 5.81037 110.317 6.48037 108.847L14.5404 91.8373L20.5004 94.7873L30.6604 99.8273L34.5404 101.747Z" stroke="currentColor" stroke-linejoin="round"/>
    <path d="M51.8102 112.137L39.8501 106.157L41.8901 101.867C42.4301 100.167 42.6902 99.1673 42.6902 98.8573L43.2902 87.3474L50.6501 91.0274V109.517C50.6501 110.827 51.0402 111.697 51.8102 112.137Z" stroke="currentColor" stroke-linejoin="round"/>
    <path d="M67.3701 63.3473L58.8501 59.0873C60.8201 59.9073 63.4601 60.1773 66.7601 59.8873V62.0773C66.7601 62.6973 66.9601 63.1173 67.3701 63.3473Z" stroke="currentColor" stroke-linejoin="round"/>
    <path d="M58.7103 90.7973V80.9473C58.7103 80.4873 58.6603 80.0473 58.5603 79.6473C58.4503 79.2473 58.2702 78.9273 58.0002 78.6973L54.8203 75.3673V57.0773L57.9203 58.6173L58.4503 58.8873L58.8502 59.0873L67.3702 63.3473C67.7702 63.5773 68.2403 63.5373 68.7803 63.2273C69.3103 62.9173 69.7803 62.4173 70.1903 61.7273C70.5903 61.0273 70.7903 60.3773 70.7903 59.7573V53.9773C70.7903 53.3673 70.9903 52.7073 71.3903 52.0073C71.8003 51.3173 72.2703 50.8173 72.8003 50.5073C73.3403 50.1973 73.8103 50.1573 74.2103 50.3873C74.6203 50.6173 74.8203 51.0373 74.8203 51.6573V97.8773C74.8203 98.4873 75.0203 98.9173 75.4203 99.1473L58.7103 90.7973Z" stroke="currentColor" stroke-linejoin="round"/>
    <path d="M57.9203 58.6173L54.8203 57.0773L52.2803 55.7973C52.4903 54.8373 52.7202 53.9273 52.9702 53.0573C53.5502 54.1273 54.1703 55.0573 54.8203 55.8673C55.7803 57.0573 56.8203 57.9773 57.9203 58.6173Z" stroke="currentColor" stroke-linejoin="round"/>
    <path d="M36.55 60.4573C36.11 62.2673 35.7501 64.1273 35.4601 66.0373C35.3001 67.0473 35.16 68.0873 35.04 69.1273C34.71 72.1373 34.54 74.8273 34.54 77.2173V101.747L30.66 99.8273L20.5 94.7873L14.54 91.8373V82.2873L22.8201 86.4173L23.61 86.8173C24.38 87.2573 25.34 87.1473 26.48 86.4973C27.62 85.8373 28.58 84.8373 29.35 83.5073C29.88 82.5873 30.23 81.6673 30.4 80.7573C30.47 80.3573 30.51 79.9473 30.51 79.5473V67.7573L33.5701 64.0573L36.55 60.4573Z" stroke="currentColor" stroke-linejoin="round"/>
    <path d="M50.65 91.0273L43.29 87.3473L43.5 83.3673L50.65 91.0273Z" stroke="currentColor" stroke-linejoin="round"/>
</svg>