<svg width="48" height="48" viewBox="0 0 87 98" fill="none" xmlns="http://www.w3.org/2000/svg" stroke-width="1px"
     stroke-linecap="round" stroke-linejoin="round">
    <path d="M79.6504 44.3599L78.8503 43.96C75.6703 42.53 71.9003 43.0899 67.5203 45.6099C66.5103 46.1999 65.5303 46.85 64.5803 47.58C61.6903 49.77 59.0903 52.6199 56.8003 56.0999C56.3203 56.8199 55.8504 57.5799 55.4004 58.3599C55.2504 58.6099 55.1102 58.8699 54.9702 59.1199C54.4202 60.0999 53.9202 61.08 53.4702 62.06C51.7602 65.77 50.7602 69.4099 50.4702 72.9799C50.4102 73.7199 50.3804 74.45 50.3804 75.18C50.3804 80.62 52.0504 84.29 55.4004 86.2C58.7404 88.1 62.7803 87.69 67.5203 84.95C72.2703 82.21 76.3104 77.96 79.6504 72.19C83.0004 66.43 84.6702 60.8199 84.6702 55.3799C84.6702 49.9399 83.0004 46.2599 79.6504 44.3599ZM77.3003 61.0099C76.9503 61.5999 76.5503 62.0299 76.1003 62.2999L69.2402 66.2599V74.1199C69.2402 74.6499 69.0702 75.2099 68.7202 75.7999C68.3802 76.3899 67.9803 76.82 67.5203 77.08C67.0703 77.34 66.6703 77.38 66.3203 77.18C65.9803 76.99 65.8103 76.6299 65.8103 76.0999V68.2299L58.9502 72.19C58.5002 72.46 58.1002 72.4899 57.7502 72.2999C57.4102 72.0999 57.2402 71.7399 57.2402 71.2199C57.2402 70.6999 57.4102 70.1299 57.7502 69.5399C58.1002 68.9499 58.5002 68.5199 58.9502 68.2599L62.1602 66.4099L65.5803 64.43L65.8103 64.2999V56.43C65.8103 55.91 65.9803 55.3499 66.3203 54.7599C66.6703 54.1699 67.0703 53.7399 67.5203 53.4699C67.9803 53.2099 68.3802 53.1799 68.7202 53.3699C69.0702 53.5699 69.2402 53.93 69.2402 54.45V62.32L76.1003 58.3599C76.5503 58.0999 76.9503 58.0599 77.3003 58.2599C77.6403 58.4499 77.8103 58.81 77.8103 59.34C77.8103 59.87 77.6403 60.4199 77.3003 61.0099Z" stroke="currentColor" stroke-linejoin="round"/>
    <path d="M65.8103 68.2299L58.9502 72.1899C58.5002 72.4599 58.1002 72.4899 57.7502 72.2999C57.4102 72.0999 57.2402 71.7398 57.2402 71.2198C57.2402 70.6998 57.4102 70.1299 57.7502 69.5399C58.1002 68.9499 58.5002 68.5199 58.9502 68.2599L62.1602 66.4099L65.8103 68.2299Z" stroke="currentColor" stroke-linejoin="round"/>
    <path d="M69.2402 66.2599V74.1199C69.2402 74.6499 69.0702 75.2099 68.7202 75.7999C68.3802 76.3899 67.9803 76.82 67.5203 77.08C67.0703 77.34 66.6703 77.3799 66.3203 77.1799C65.9803 76.9899 65.8103 76.6299 65.8103 76.0999V68.2299L62.1602 66.4099L65.5803 64.4299L69.2402 66.2599Z" stroke="currentColor" stroke-linejoin="round"/>
    <path d="M77.8103 59.34C77.8103 59.86 77.6403 60.4199 77.3003 61.0099C76.9503 61.5999 76.5503 62.03 76.1003 62.3L69.2402 66.2599L65.5803 64.43L65.8103 64.3V60.6099L69.2402 62.32L76.1003 58.3599C76.5503 58.0999 76.9503 58.0599 77.3003 58.2599C77.6403 58.4499 77.8103 58.81 77.8103 59.34Z" stroke="currentColor" stroke-linejoin="round"/>
    <path d="M69.2402 54.4499V62.3199L65.8103 60.6098V56.4299C65.8103 55.9099 65.9803 55.3499 66.3203 54.7599C66.6703 54.1699 67.0703 53.7398 67.5203 53.4698C67.9803 53.2098 68.3802 53.1798 68.7202 53.3698C69.0702 53.5698 69.2402 53.9299 69.2402 54.4499Z" stroke="currentColor" stroke-linejoin="round"/>
    <path d="M75.4102 13.05C74.8102 12.81 74.1203 12.73 73.3503 12.83L57.8103 15.1199L52.7803 15.8599C51.9803 15.9899 51.1804 16.2899 50.3804 16.7499C49.5804 17.2099 48.7802 17.8399 47.9802 18.6299L36.3704 30.33L27.4102 39.3599C26.0902 40.7099 25.0202 42.28 24.1902 44.07C24.1402 44.17 24.1003 44.2799 24.0603 44.3799C23.3203 46.0599 22.9502 47.66 22.9502 49.21V67.8C22.9502 72.78 23.6403 77.1899 25.0103 81.0199C25.2503 81.6999 25.5103 82.3599 25.8003 82.9999C27.0803 85.9499 28.7302 88.43 30.7502 90.44C32.1002 91.84 33.6303 92.9999 35.3303 93.8899L16.0703 84.2599C14.0703 83.3199 12.2902 82.04 10.7502 80.44C8.29024 77.99 6.38025 74.8499 5.01025 71.0199C3.64025 67.1899 2.9502 62.78 2.9502 57.8V39.21C2.9502 37.57 3.37019 35.86 4.19019 34.07C5.02019 32.28 6.09016 30.7099 7.41016 29.3599L27.9802 8.62993C28.7802 7.83993 29.5804 7.20992 30.3804 6.74992C31.1804 6.28992 31.9803 5.98991 32.7803 5.85991L53.3503 2.83C54.1403 2.73 54.8402 2.80999 55.4602 3.06999L55.7202 3.19999L75.4102 13.05Z" stroke="currentColor" stroke-linejoin="round"/>
    <path d="M77.8103 17.5399V29.5399C77.8103 30.6499 77.3803 31.7999 76.5203 32.9799C75.6703 34.1699 74.7503 34.8799 73.7803 35.1099C72.7503 35.3699 71.7202 35.7199 70.7002 36.1499C69.6702 36.5799 68.6103 37.1099 67.5203 37.7399C67.3503 37.8399 67.1803 37.9399 67.0203 38.0399C65.9803 38.6499 64.9702 39.3299 63.9902 40.0599C61.4202 41.9399 59.0103 44.1799 56.7603 46.7899C56.9203 46.2799 57.0304 45.7799 57.1104 45.2699C57.2004 44.7299 57.2402 44.1999 57.2402 43.6799C57.2402 41.5099 56.5702 40.0499 55.2202 39.2799C53.8802 38.5199 52.2704 38.6799 50.3804 39.7699C49.3404 40.3799 48.3702 41.1699 47.5002 42.1499C46.7902 42.9399 46.1403 43.8399 45.5403 44.8699C44.1903 47.1899 43.5203 49.43 43.5203 51.59V51.71C43.5403 53.14 43.8602 54.2499 44.4902 55.0599C44.7602 55.4399 45.1203 55.7499 45.5403 55.9899C46.8803 56.7499 48.5004 56.5899 50.3804 55.4999L50.7202 55.3099C50.7202 55.3099 50.6704 55.3999 50.6404 55.4499C50.6104 55.4999 50.5803 55.5498 50.5503 55.5998C50.3503 55.9398 50.1602 56.2899 49.9702 56.6299C49.7102 57.0799 49.4702 57.5299 49.2402 57.9799C48.9602 58.4999 48.6902 59.0299 48.4402 59.5499C47.3902 61.6799 46.5103 63.7999 45.8103 65.8999C44.5603 69.5699 43.8303 73.1799 43.6003 76.7399C43.5503 77.5399 43.5203 78.3399 43.5203 79.1299C43.5203 79.5199 43.5303 79.8999 43.5403 80.2699C43.6103 81.9299 43.8202 83.4799 44.1702 84.9099C44.5902 86.6599 45.2103 88.3199 46.0103 89.8999C46.5203 90.8399 46.3703 92.0499 45.5403 93.5099C44.7103 94.9699 43.7502 95.7199 42.6702 95.7599C40.2702 95.6999 38.0703 95.1999 36.0703 94.2599L35.3303 93.8899C33.6303 92.9999 32.1002 91.8399 30.7502 90.4399C28.7302 88.4299 27.0803 85.9499 25.8003 82.9999C25.5103 82.3599 25.2503 81.6999 25.0103 81.0199C23.6403 77.1899 22.9502 72.7799 22.9502 67.7999V49.21C22.9502 47.66 23.3203 46.0599 24.0603 44.3799C24.1003 44.2799 24.1402 44.1699 24.1902 44.0699C25.0202 42.2799 26.0902 40.7099 27.4102 39.3599L36.3704 30.33L47.9802 18.6299C48.7802 17.8399 49.5804 17.2099 50.3804 16.7499C51.1804 16.2899 51.9803 15.9899 52.7803 15.8599L57.8103 15.1199L73.3503 12.83C74.1203 12.73 74.8102 12.8099 75.4102 13.0499L75.6802 13.1799C76.0002 13.3399 76.3003 13.56 76.5703 13.83C77.4003 14.66 77.8103 15.8999 77.8103 17.5399Z" stroke="currentColor" stroke-linejoin="round"/>
    <path d="M78.8503 43.96C75.6703 42.53 71.9003 43.0899 67.5203 45.6099C66.5103 46.1999 65.5303 46.85 64.5803 47.58C61.6903 49.77 59.0903 52.6199 56.8003 56.0999C56.3203 56.8199 55.8504 57.5799 55.4004 58.3599C55.2504 58.6099 55.1102 58.8699 54.9702 59.1199C54.4202 60.0999 53.9202 61.0799 53.4702 62.0599C51.7602 65.7699 50.7602 69.4099 50.4702 72.9799C50.4102 73.7199 50.3804 74.4499 50.3804 75.1799C50.3804 80.6199 52.0504 84.29 55.4004 86.2L43.5403 80.2699C43.5303 79.8999 43.5203 79.5199 43.5203 79.1299C43.5203 78.3399 43.5503 77.5399 43.6003 76.7399C43.8303 73.1799 44.5603 69.5699 45.8103 65.8999C46.5103 63.7999 47.3902 61.6799 48.4402 59.5499C48.6902 59.0299 48.9602 58.4999 49.2402 57.9799C49.4702 57.5299 49.7102 57.0799 49.9702 56.6299C50.1602 56.2899 50.3503 55.9399 50.5503 55.5999C50.5803 55.5499 50.6104 55.5 50.6404 55.45C50.6704 55.4 50.6902 55.3499 50.7202 55.3099L43.5203 51.71V51.59C43.5203 49.43 44.1903 47.1899 45.5403 44.8699C46.1403 43.8399 46.7902 42.9399 47.5002 42.1499L56.7603 46.7899C59.0103 44.1799 61.4202 41.9399 63.9902 40.0599C64.9702 39.3299 65.9803 38.6499 67.0203 38.0399L78.8503 43.96Z" stroke="currentColor" stroke-linejoin="round"/>
    <path d="M57.2402 43.6799C57.2402 44.1999 57.2004 44.7299 57.1104 45.2699C57.0304 45.7799 56.9203 46.2799 56.7603 46.7899L47.5002 42.1499C48.3702 41.1699 49.3404 40.3799 50.3804 39.7699C52.2704 38.6799 53.8802 38.5199 55.2202 39.2799C56.5702 40.0499 57.2402 41.5099 57.2402 43.6799Z" stroke="currentColor" stroke-linejoin="round"/>
    <path d="M50.7202 55.3099L50.3804 55.4999C48.5004 56.5899 46.8803 56.7499 45.5403 55.9899C45.1203 55.7499 44.7602 55.4399 44.4902 55.0599C43.8602 54.2499 43.5403 53.14 43.5203 51.71L50.7202 55.3099Z" stroke="currentColor" stroke-linejoin="round"/>
</svg>