<svg width="48" height="48" viewBox="0 0 92 121" fill="none" xmlns="http://www.w3.org/2000/svg" stroke-width="1px" stroke-linecap="round" stroke-linejoin="round"><path d="M86.6289 12.7098L86.3188 12.5498" stroke="#229EFF" stroke-linejoin="round"/><path d="M72.3688 53.0497V73.2596C72.3688 74.7096 72.1688 76.1797 71.7488 77.6797C71.2688 79.4297 70.5088 81.1998 69.4688 82.9898C67.5388 86.3198 65.1988 88.7798 62.4488 90.3698C61.1788 91.0998 59.9788 91.5297 58.8488 91.6397C57.7188 91.7597 56.7088 91.6196 55.8288 91.2496C54.9488 92.6396 53.9388 93.9396 52.8088 95.1296C51.6788 96.3196 50.4788 97.2796 49.2188 98.0096C46.4588 99.5996 44.1188 99.8496 42.1888 98.7496C40.2588 97.6496 39.2988 95.5097 39.2988 92.3497V72.1397C39.2988 71.1897 39.6088 70.2497 40.2488 69.3197C40.8788 68.3797 41.5788 67.8196 42.3488 67.6296L43.7588 67.1897C46.2988 66.4297 48.5988 66.3097 50.6588 66.8597C51.0688 66.9697 51.4788 67.0996 51.8588 67.2596C51.9988 67.3196 52.1488 67.3697 52.2888 67.4297L52.9188 67.7398C54.0188 68.3298 54.9888 69.1097 55.8288 70.0897C56.1788 69.2797 56.5488 68.4897 56.9388 67.6997C58.0988 65.3497 59.4488 63.0897 60.9988 60.8897C61.4688 60.2297 61.9388 59.5897 62.4388 58.9697C64.1188 56.8297 65.9388 54.9196 67.8988 53.2496L69.3088 52.0597C70.0788 51.3697 70.7788 51.1197 71.4188 51.3197C72.0488 51.5197 72.3688 52.0997 72.3688 53.0497Z" stroke="#229EFF" stroke-linejoin="round"/><path d="M88.8988 78.8898C88.6288 80.0598 88.1189 81.0998 87.3689 81.9998C86.6289 82.9098 85.8689 83.3599 85.0989 83.3599C83.2889 83.3099 81.7188 82.8499 80.3888 81.9799C79.5688 81.4399 78.8388 80.7498 78.1988 79.8998C76.5188 77.6798 75.6689 74.6398 75.6689 70.7799V37.7598C72.7489 41.6598 69.6289 45.1899 66.2889 48.3499C66.1889 48.4399 66.0989 48.5299 65.9989 48.6099C64.7889 49.7599 63.5489 50.8299 62.2889 51.8299C60.1889 53.4999 58.0388 54.9699 55.8288 56.2399C55.7788 56.2699 55.7189 56.2999 55.6689 56.3299C54.5589 56.9699 53.4589 57.5399 52.3689 58.0399C49.9589 59.1699 47.6088 59.9699 45.3288 60.4499C43.2688 60.8899 41.2889 61.0799 39.4189 61.0299C38.2389 61.0099 37.0889 60.8899 35.9889 60.6799V93.6899C35.9889 94.3199 35.9689 94.9599 35.9189 95.6099C35.6789 98.8799 34.8489 102.26 33.4289 105.75C31.7189 109.93 29.3989 113.75 26.4789 117.21C25.7089 118.1 24.9589 118.51 24.2489 118.45C24.0489 118.43 23.8688 118.39 23.6988 118.31C23.2688 118.1 22.9488 117.69 22.7588 117.08C22.4788 116.29 22.4788 115.34 22.7588 114.23C23.0288 113.12 23.5289 112.11 24.2489 111.19C25.8489 109.13 27.0988 106.89 28.0088 104.47C28.9188 102.04 29.3689 99.7198 29.3689 97.5098V57.8499C28.7889 57.4499 28.2288 57.0098 27.6988 56.5299C27.3188 56.1998 26.9589 55.8399 26.5989 55.4699C25.7489 54.5699 24.9589 53.5399 24.2489 52.3699C23.9789 51.9099 23.8988 51.3599 24.0088 50.6999C24.0488 50.4099 24.1289 50.0898 24.2489 49.7598C24.6289 48.6798 25.2388 47.7199 26.0688 46.8599C26.8888 45.9999 27.7189 45.4899 28.5489 45.3299C28.9589 45.2499 29.3288 45.2698 29.6388 45.3898L29.6988 45.4199L29.8988 45.5098H29.9089C30.1189 45.6498 30.2988 45.8199 30.4488 46.0399C30.9688 46.8099 31.5288 47.5098 32.1388 48.1498C34.2688 50.3998 36.8889 51.8099 39.9989 52.3599C40.3489 52.4299 40.7088 52.4798 41.0688 52.5198C44.5788 52.9198 48.3389 52.2199 52.3689 50.4199C53.4489 49.9399 54.5489 49.3799 55.6689 48.7399C55.7189 48.7099 55.7788 48.6798 55.8288 48.6498C57.3388 47.7798 58.8089 46.8099 60.2489 45.7299C60.9389 45.2199 61.6189 44.6799 62.2889 44.1099C65.0889 41.7699 67.7488 39.0199 70.2588 35.8599C74.6388 30.3599 78.1589 24.3099 80.7989 17.7299C81.3489 16.3899 82.0489 15.2099 82.9089 14.1799C83.7589 13.1499 84.6589 12.5899 85.5989 12.4899C85.8589 12.4699 86.0989 12.4899 86.2989 12.5499H86.3188C86.7988 12.6999 87.1388 13.0799 87.3288 13.6699C87.6088 14.5199 87.5288 15.5498 87.0788 16.7498C86.4188 18.5898 85.6888 20.3699 84.8888 22.0999C84.0888 23.8199 83.2289 25.5599 82.2889 27.2999V66.9599C82.2889 69.1699 82.7388 70.9499 83.6488 72.2899C83.8288 72.5499 84.0189 72.7998 84.2389 73.0198C85.0689 73.9298 86.1389 74.4999 87.4189 74.7199C87.5889 74.7399 87.7389 74.7799 87.8789 74.8399L88.0188 74.9099C88.4188 75.1199 88.7088 75.4999 88.8988 76.0399C89.1788 76.8299 89.1788 77.7798 88.8988 78.8898Z" stroke="#229EFF" stroke-linejoin="round"/><path d="M86.2991 12.5499C86.0991 12.4899 85.8591 12.47 85.5991 12.49C84.6591 12.59 83.7591 13.1499 82.9091 14.1799C82.0491 15.2099 81.3491 16.39 80.7991 17.73C78.1591 24.31 74.639 30.36 70.259 35.86C67.749 39.02 65.0891 41.77 62.2891 44.11C61.6191 44.68 60.9391 45.22 60.2491 45.73C58.8091 46.81 57.339 47.7799 55.829 48.6499C55.779 48.6799 55.7191 48.71 55.6691 48.74C54.5491 49.38 53.4491 49.9399 52.3691 50.4199C48.3391 52.2199 44.579 52.9199 41.069 52.5199C40.709 52.4799 40.3491 52.43 39.9991 52.36C36.8891 51.81 34.269 50.3999 32.139 48.1499C31.529 47.5099 30.969 46.8099 30.449 46.0399C30.299 45.8199 30.1191 45.6499 29.9091 45.5199H29.899L29.699 45.4199L29.639 45.3899L24.0591 42.59C27.7191 42.39 31.639 41.0699 35.829 38.6499C41.069 35.6299 45.879 31.36 50.259 25.86C54.639 20.36 58.1591 14.31 60.7991 7.72996C61.3491 6.38996 62.0491 5.20992 62.9091 4.17992C63.7591 3.14992 64.6591 2.58997 65.5991 2.48997C65.9791 2.45997 66.2991 2.5199 66.5591 2.6599L66.5891 2.67992L86.2991 12.5499Z" stroke="#229EFF" stroke-linejoin="round"/><path d="M27.699 56.5303C28.229 57.0103 28.789 57.4504 29.369 57.8504L26.819 56.5704H26.809L15.989 51.1603L9.36904 47.8504C8.37904 47.1604 7.45902 46.3704 6.59902 45.4704C5.74902 44.5704 4.95904 43.5404 4.24904 42.3704C3.85904 41.7104 3.85904 40.8403 4.24904 39.7603C4.62904 38.6803 5.23899 37.7204 6.06899 36.8604C6.88899 36.0004 7.71903 35.4904 8.54903 35.3304C9.00903 35.2404 9.40904 35.2803 9.74904 35.4403L9.89901 35.5103L24.059 42.5904L29.639 45.3903C29.329 45.2703 28.959 45.2504 28.549 45.3304C27.719 45.4904 26.889 46.0004 26.069 46.8604C25.239 47.7204 24.629 48.6803 24.249 49.7603C24.129 50.0903 24.049 50.4104 24.009 50.7004C23.899 51.3604 23.979 51.9104 24.249 52.3704C24.959 53.5404 25.749 54.5704 26.599 55.4704C26.959 55.8404 27.319 56.2003 27.699 56.5303Z" stroke="#229EFF" stroke-linejoin="round"/><path d="M29.3689 57.8496V97.5095C29.3689 99.7195 28.9188 102.04 28.0088 104.47C27.0988 106.89 25.8489 109.13 24.2489 111.19C23.5289 112.11 23.0288 113.12 22.7588 114.23C22.4788 115.34 22.4788 116.29 22.7588 117.08C22.9488 117.69 23.2688 118.1 23.6988 118.31C23.1888 118.17 6.03888 109.48 3.80888 108.35C3.64888 108.27 3.56883 108.23 3.56883 108.23C3.20883 108.02 2.92883 107.63 2.75883 107.08C2.47883 106.29 2.47883 105.34 2.75883 104.23C3.02883 103.12 3.52888 102.11 4.24888 101.19C5.84888 99.1296 7.09883 96.8896 8.00883 94.4696C8.91883 92.0396 9.36887 89.7195 9.36887 87.5095V47.8496L15.9889 51.1595L26.8089 56.5696H26.8188L29.3689 57.8496Z" stroke="#229EFF" stroke-linejoin="round"/><path d="M51.8687 67.2197C51.8687 67.2197 51.8687 67.2496 51.8687 67.2596C51.4887 67.0996 51.0787 66.9697 50.6687 66.8597C48.6087 66.3097 46.3087 66.4297 43.7687 67.1897L42.3587 67.6296C41.5887 67.8196 40.8887 68.3797 40.2587 69.3197C39.6187 70.2497 39.3087 71.1896 39.3087 72.1396V92.3497C39.3087 95.5097 40.2687 97.6496 42.1987 98.7496L35.9287 95.6097C35.9787 94.9597 35.9987 94.3197 35.9987 93.6897V60.6797C37.0987 60.8897 38.2487 61.0097 39.4287 61.0297L51.8787 67.2197H51.8687Z" stroke="#229EFF" stroke-linejoin="round"/><path d="M71.4189 51.3203C70.7789 51.1203 70.079 51.3703 69.309 52.0603L67.8989 53.2502C65.9389 54.9202 64.119 56.8303 62.439 58.9703C61.939 59.5903 61.469 60.2303 60.999 60.8903C59.449 63.0903 58.099 65.3503 56.939 67.7003C56.549 68.4903 56.1789 69.2803 55.8289 70.0903C54.9889 69.1103 54.0189 68.3304 52.9189 67.7404L52.2889 67.4303L51.869 67.2203L39.4189 61.0303C41.2889 61.0803 43.2689 60.8903 45.3289 60.4503C47.6089 59.9703 49.959 59.1703 52.369 58.0403C53.459 57.5403 54.5589 56.9703 55.6689 56.3303C55.7189 56.3003 55.7789 56.2704 55.8289 56.2404C58.0389 54.9704 60.1889 53.5003 62.2889 51.8303C63.5489 50.8303 64.789 49.7604 65.999 48.6104L71.4189 51.3203Z" stroke="#229EFF" stroke-linejoin="round"/><path d="M87.8788 74.8396L84.2388 73.0195" stroke="#229EFF" stroke-linejoin="round"/><path d="M72.369 73.2598V53.0498C72.369 52.0998 72.049 51.5198 71.419 51.3198L65.999 48.6099C66.099 48.5299 66.189 48.4399 66.289 48.3499C69.629 45.1899 72.749 41.6598 75.669 37.7598V70.7798C75.669 74.6398 76.519 77.6798 78.199 79.8998C78.839 80.7498 79.569 81.4399 80.389 81.9799L71.749 77.6798C72.169 76.1798 72.369 74.7098 72.369 73.2598Z" stroke="#229EFF" stroke-linejoin="round"/></svg>