<svg width="24" height="24" viewBox="0 0 83 118" fill="none" xmlns="http://www.w3.org/2000/svg" stroke-width="1px" stroke-linecap="round" stroke-linejoin="round">
    <path d="M77.9399 30.6373L77.5 30.4173C76.18 29.8773 74.6299 30.1173 72.8499 31.1473L69.25 33.2273V24.9473C69.25 19.2273 67.49 15.3673 63.97 13.3573L63.0898 12.9173C59.7598 11.4473 55.8 12.0373 51.22 14.6773C50.55 15.0673 49.9 15.4773 49.25 15.9173C46.62 17.7373 44.2198 20.0273 42.0398 22.7973C40.7798 24.3973 39.59 26.1673 38.47 28.0873C38.08 28.7573 37.7099 29.4273 37.3699 30.0873C34.6299 35.3673 33.24 40.5173 33.2 45.5373V54.0373L29.5898 56.1173C28.8998 56.5173 28.2399 56.9973 27.6199 57.5573C26.4599 58.5973 25.42 59.9073 24.5 61.4873C24.26 61.8973 24.0399 62.3073 23.8499 62.7173C22.8699 64.7173 22.3799 66.6673 22.3799 68.5573V109.927C22.3799 112.197 23.09 113.737 24.5 114.547C25.91 115.347 27.6098 115.177 29.5898 114.037L72.8499 89.0573C74.8299 87.9173 76.5299 86.1273 77.9399 83.6873C79.3599 81.2473 80.0598 78.8973 80.0598 76.6173V35.2573C80.0598 32.9773 79.3599 31.4373 77.9399 30.6373ZM40.4099 41.5973C40.4099 38.1573 41.4598 34.6173 43.5598 30.9873C43.9998 30.2273 44.4599 29.5173 44.9399 28.8373C46.7499 26.2873 48.85 24.3273 51.22 22.9473C54.23 21.2173 56.7799 20.9473 58.8799 22.1473C59.1399 22.2973 59.3899 22.4673 59.6199 22.6473H59.6299C61.2399 23.9573 62.0398 26.1073 62.0398 29.1173V37.3873L60.0598 38.5273L40.4099 49.8773V41.5973ZM64.6099 67.8073C63.9099 68.9973 63.0598 69.8873 62.0398 70.4773L58.5798 72.4773L54.8298 74.6473V82.9173C54.8298 84.0873 54.4798 85.2673 53.7898 86.4673C53.0998 87.6573 52.24 88.5473 51.22 89.1373C50.2 89.7273 49.3399 89.8273 48.6499 89.4273C47.9599 89.0373 47.6199 88.2473 47.6199 87.0773V78.8073L40.4099 82.9673C39.3899 83.5573 38.5298 83.6573 37.8398 83.2673C37.1498 82.8673 36.7998 82.0873 36.7998 80.9173C36.7998 79.7473 37.1498 78.5573 37.8398 77.3673C38.2898 76.5973 38.7999 75.9573 39.3899 75.4373C39.5799 75.2673 39.77 75.1173 39.97 74.9873C40.11 74.8773 40.2599 74.7873 40.4099 74.6973L47.1499 70.8073L47.6199 70.5373V62.2573C47.6199 61.0873 47.9599 59.9073 48.6499 58.7173C49.3399 57.5173 50.2 56.6273 51.22 56.0373C52.24 55.4473 53.0998 55.3573 53.7898 55.7473C54.4798 56.1373 54.8298 56.9273 54.8298 58.0973V66.3673L60.0598 63.3473L62.0398 62.2073C63.0598 61.6173 63.9099 61.5173 64.6099 61.9173C65.2999 62.3073 65.6399 63.0873 65.6399 64.2673C65.6399 65.4473 65.2999 66.6173 64.6099 67.8073Z" stroke="currentColor" stroke-linejoin="round"/>
    <path d="M62.04 37.3874L60.0601 38.5274L40.4102 49.8774V41.5974C40.4102 38.1574 41.4601 34.6174 43.5601 30.9874C44.0001 30.2274 44.4602 29.5174 44.9402 28.8374L60.0601 36.3974L62.04 37.3874Z" stroke="currentColor" stroke-linejoin="round"/>
    <path d="M62.0398 29.1172V37.3872L60.0598 36.3972L44.9399 28.8372C46.7499 26.2872 48.85 24.3272 51.22 22.9472C54.23 21.2172 56.7799 20.9472 58.8799 22.1472C59.1399 22.2972 59.3899 22.4672 59.6199 22.6472H59.6299C61.2399 23.9572 62.0398 26.1072 62.0398 29.1172Z" stroke="currentColor" stroke-linejoin="round"/>
    <path d="M54.8301 58.0973V66.3673L47.6201 62.7673V62.2573C47.6201 61.0873 47.9601 59.9073 48.6501 58.7173C49.3401 57.5173 50.2002 56.6273 51.2202 56.0373C52.2402 55.4473 53.1 55.3573 53.79 55.7473C54.48 56.1373 54.8301 56.9273 54.8301 58.0973Z" stroke="currentColor" stroke-linejoin="round"/>
    <path d="M65.6399 64.2674C65.6399 65.4374 65.2999 66.6174 64.6099 67.8074C63.9099 68.9974 63.0598 69.8874 62.0398 70.4774L58.5798 72.4774L54.8298 74.6474L47.1499 70.8074L47.6199 70.5374V62.7674L54.8298 66.3674L60.0598 63.3474L62.0398 62.2074C63.0598 61.6174 63.9099 61.5174 64.6099 61.9174C65.2999 62.3074 65.6399 63.0874 65.6399 64.2674Z" stroke="currentColor" stroke-linejoin="round"/>
    <path d="M54.8296 74.6474V82.9174C54.8296 84.0874 54.4796 85.2674 53.7896 86.4674C53.0996 87.6574 52.2397 88.5474 51.2197 89.1374C50.1997 89.7274 49.3397 89.8274 48.6497 89.4274C47.9597 89.0374 47.6196 88.2474 47.6196 87.0774V78.8074L39.9697 74.9874C40.1097 74.8774 40.2597 74.7874 40.4097 74.6974L47.1497 70.8074L54.8296 74.6474Z" stroke="currentColor" stroke-linejoin="round"/>
    <path d="M47.6199 78.8073L40.4099 82.9673C39.3899 83.5573 38.5298 83.6573 37.8398 83.2673C37.1498 82.8673 36.7998 82.0873 36.7998 80.9173C36.7998 79.7473 37.1498 78.5573 37.8398 77.3673C38.2898 76.5973 38.7999 75.9573 39.3899 75.4373C39.5799 75.2673 39.77 75.1173 39.97 74.9873L47.6199 78.8073Z" stroke="currentColor" stroke-linejoin="round"/>
    <path d="M33.2 54.0374L29.5898 56.1174C28.8998 56.5174 28.2399 56.9974 27.6199 57.5574C26.4599 58.5974 25.42 59.9074 24.5 61.4874C24.26 61.8974 24.0399 62.3074 23.8499 62.7174C22.8699 64.7174 22.3799 66.6674 22.3799 68.5574V109.927C22.3799 112.197 23.09 113.737 24.5 114.547L4.5 104.547C3.09 103.737 2.37988 102.197 2.37988 99.9274V58.5574C2.37988 56.2774 3.09 53.9274 4.5 51.4874C5.91 49.0574 7.60984 47.2674 9.58984 46.1174L13.2 44.0374L33.2 54.0374Z" stroke="currentColor" stroke-linejoin="round"/>
    <path d="M63.0901 12.9174C59.7601 11.4474 55.8002 12.0374 51.2202 14.6774C50.5502 15.0674 49.9002 15.4774 49.2502 15.9174C46.6202 17.7374 44.22 20.0274 42.04 22.7974C40.78 24.3974 39.5902 26.1674 38.4702 28.0874C38.0802 28.7574 37.7101 29.4274 37.3701 30.0874C34.6301 35.3674 33.2402 40.5174 33.2002 45.5374V54.0374L13.2002 44.0374V35.7674C13.2002 30.0474 14.9502 24.1474 18.4702 18.0874C21.9802 12.0274 26.2302 7.55744 31.2202 4.67744C36.2102 1.79744 40.4602 1.35744 43.9702 3.35744L63.0901 12.9174Z" stroke="currentColor" stroke-linejoin="round"/>
    <path d="M77.5 30.4174C76.18 29.8774 74.6299 30.1174 72.8499 31.1474L69.25 33.2274V26.2974L77.5 30.4174Z" stroke="currentColor" stroke-linejoin="round"/>
</svg>