<svg width="48" height="48" viewBox="0 0 78 117" fill="none" xmlns="http://www.w3.org/2000/svg" stroke-width="1px"
     stroke-linecap="round" stroke-linejoin="round">
    <path d="M75.4102 26.0904C75.3702 27.6104 74.8702 29.1804 73.9302 30.8204C72.9802 32.3604 71.8801 33.5204 70.6201 34.2904C69.3501 35.0604 68.2501 35.1804 67.3001 34.6404L49.8401 24.6804L49.0801 24.2503L48.6702 24.9704L48.5003 25.2404L30.8601 55.6804C29.9201 57.3104 28.8101 58.4704 27.5501 59.1504C26.2901 59.8404 25.1802 59.9503 24.2402 59.5003C23.2902 58.9703 22.8003 57.9604 22.7603 56.4904C22.7203 55.0204 23.1701 53.4704 24.1201 51.8304L41.7302 21.4604L42.3401 20.4104C44.1501 17.2804 46.4001 14.9404 49.0801 13.3904C50.2901 12.6904 51.4102 12.2604 52.4302 12.0904H52.4402C53.4702 11.9104 54.4203 12.0004 55.2803 12.3504L55.3301 12.3704C55.5001 12.4404 55.6701 12.5304 55.8301 12.6204L74.0501 23.0104C74.9901 23.5504 75.4502 24.5804 75.4102 26.0904Z" stroke="currentColor" stroke-linejoin="round"/>
    <path d="M55.2803 12.3503C54.4203 12.0003 53.4702 11.9103 52.4402 12.0903H52.4302C51.4102 12.2603 50.2901 12.6903 49.0801 13.3903C46.4001 14.9403 44.1501 17.2803 42.3401 20.4103L41.7302 21.4603L24.1201 51.8303C23.1701 53.4703 22.7203 55.0203 22.7603 56.4903C22.8003 57.9603 23.2902 58.9703 24.2402 59.5003L4.24024 49.5003C3.29024 48.9703 2.80026 47.9603 2.76026 46.4903C2.72026 45.0203 3.17012 43.4703 4.12012 41.8303L22.3401 10.4103C24.1501 7.28032 26.4001 4.9403 29.0801 3.3903C31.7601 1.8403 34.0101 1.59034 35.8301 2.62034L55.2803 12.3503Z" stroke="currentColor" stroke-linejoin="round"/>
    <path d="M42.3401 113.54L22.8901 103.81L22.3401 103.54L4.00025 93.0804C3.05025 92.5404 2.60014 91.5204 2.64014 90.0004C2.68014 88.4804 3.17012 86.9104 4.12012 85.2804C5.07012 83.6504 6.19024 82.4504 7.49024 81.7004C8.79024 80.9504 9.92011 80.8404 10.8601 81.3804L29.7202 90.8104L30.5601 91.2304C30.2501 91.1004 29.9301 91.0404 29.5901 91.0404H29.5801C29.1301 91.0404 28.6602 91.1504 28.1502 91.3704C27.9402 91.4604 27.7202 91.5704 27.4902 91.7004C26.1902 92.4504 25.0701 93.6504 24.1201 95.2804C23.1701 96.9104 22.6801 98.4804 22.6401 100C22.6001 101.52 23.0502 102.54 24.0002 103.08L25.7302 104.07L42.3401 113.54Z" stroke="currentColor" stroke-linejoin="round"/>
    <path d="M73.7407 66.3004C72.8707 65.9404 71.8707 66.0904 70.7307 66.7404C69.4707 67.4604 68.3707 68.6504 67.4207 70.2804L49.0806 101.91L36.4807 94.6304L30.8606 91.3804L30.5605 91.2304L29.7207 90.8104L47.4207 60.2804C48.3707 58.6504 49.4707 57.4604 50.7307 56.7404C52.0007 56.0104 53.1005 55.9104 54.0505 56.4504L73.7407 66.3004Z" stroke="currentColor" stroke-linejoin="round"/>
    <path d="M75.4702 69.5004C75.4702 71.0004 74.9901 72.5604 74.0501 74.1904L55.8301 105.75C54.0101 108.88 51.7601 111.22 49.0801 112.77C46.4001 114.32 44.1501 114.57 42.3401 113.54L25.7302 104.07L24.0003 103.08C23.0503 102.54 22.6001 101.52 22.6401 100C22.6801 98.4804 23.1701 96.9104 24.1201 95.2804C25.0701 93.6504 26.1902 92.4504 27.4902 91.7004C27.7202 91.5704 27.9402 91.4604 28.1502 91.3704C28.6602 91.1504 29.1301 91.0404 29.5801 91.0404H29.5901C29.9301 91.0404 30.2501 91.1004 30.5601 91.2304L30.8601 91.3804L36.4802 94.6304L49.0801 101.91L67.4202 70.2804C68.3702 68.6504 69.4702 67.4604 70.7302 66.7404C71.8702 66.0904 72.8702 65.9404 73.7402 66.3004L74.0501 66.4504C74.9901 66.9904 75.4702 68.0104 75.4702 69.5004Z" stroke="currentColor" stroke-linejoin="round"/>
    <path d="M67.2998 34.6403L48.5 25.2403L48.6699 24.9703L49.0798 24.2502L49.8398 24.6803L67.2998 34.6403Z" stroke="currentColor" stroke-linejoin="round"/>
    <path d="M55.3301 12.3704L55.2803 12.3503" stroke="currentColor" stroke-linejoin="round"/>
</svg>