<svg width="48" height="48" viewBox="0 0 101 112" fill="none" xmlns="http://www.w3.org/2000/svg" stroke-width="1px"
     stroke-linecap="round" stroke-linejoin="round">
    <path d="M86 13.6934L87.49 14.4334C87.01 14.1534 86.51 13.9034 86 13.6934Z" stroke="currentColor" stroke-linejoin="round"/>
    <path d="M95.5701 23.5434C93.5901 19.4134 90.89 16.3734 87.49 14.4334L86 13.6934C82.93 12.2934 79.42 11.7634 75.48 12.0934C75.27 12.1134 75.0601 12.1334 74.8501 12.1534C70.4301 12.6334 65.73 14.3134 60.74 17.1934C55.51 20.2134 50.59 24.1834 45.99 29.1234C44.29 30.9434 42.6701 32.8334 41.1301 34.7834C38.5101 38.1134 36.13 41.6234 33.99 45.3234C31.85 49.0134 29.9899 52.8134 28.4199 56.7134C27.4799 59.0334 26.6399 61.3834 25.8999 63.7734C25.6299 64.6434 25.3799 65.5034 25.1499 66.3634C23.6699 71.8634 22.9199 77.2134 22.9199 82.4134C22.9199 84.8334 23.0799 87.1034 23.4099 89.2134C23.8899 92.3434 24.7199 95.1434 25.8999 97.6134C26.1299 98.0934 26.3701 98.5534 26.6201 99.0034C28.5201 102.433 30.97 105.003 33.99 106.723C37.39 108.663 41.39 109.443 45.99 109.063C50.59 108.683 55.51 106.983 60.74 103.963C65.97 100.943 70.88 96.9734 75.48 92.0334C80.08 87.1034 84.09 81.7034 87.49 75.8334C90.89 69.9634 93.5901 63.8134 95.5701 57.3934C97.5601 50.9634 98.55 44.7534 98.55 38.7434C98.55 32.7334 97.5601 27.6734 95.5701 23.5434ZM82.2 72.8134C76.33 82.9234 69.18 90.4134 60.74 95.2934C52.29 100.163 45.14 100.933 39.28 97.5934C38.44 97.1134 37.67 96.5734 36.95 95.9534C34.84 94.1834 33.2499 91.8434 32.1699 88.9434C31.0499 85.9134 30.49 82.2834 30.49 78.0434V77.3934C32.22 75.6634 33.88 73.8534 35.45 71.9634C38.31 68.5534 40.92 64.8834 43.28 60.9434C43.38 60.7834 43.4801 60.6234 43.5801 60.4534C45.0701 57.9434 46.4201 55.3934 47.6301 52.8134C49.0801 49.7234 50.3399 46.5834 51.3999 43.3934C51.6899 42.5234 51.97 41.6434 52.23 40.7634C52.9 41.3234 53.6001 41.8234 54.3201 42.2734C54.9301 42.6434 55.5499 42.9834 56.1899 43.2834C57.0099 43.6634 57.87 43.9934 58.76 44.2434C60.77 44.8434 62.94 45.1034 65.27 45.0534C66.7 45.0234 68.1601 44.8534 69.6401 44.5634C72.0201 44.1134 74.46 43.3334 76.96 42.2234C78.46 41.5634 79.98 40.7934 81.53 39.8934C82.98 39.0534 84.3699 38.1634 85.6899 37.2234C87.0199 36.2734 88.3399 35.2434 89.6599 34.1134C90.1699 35.3434 90.51 36.7134 90.7 38.2334C90.89 39.7534 90.99 41.3734 90.99 43.1134C90.99 52.8034 88.06 62.7034 82.2 72.8134Z" stroke="currentColor" stroke-linejoin="round"/>
    <path d="M52.47 65.5434C51.61 65.1834 50.5901 65.3634 49.3901 66.0434C48.0701 66.8034 46.95 67.9734 46.04 69.5534C45.12 71.1334 44.6699 72.6734 44.6699 74.1934C44.6699 75.7134 45.12 76.7334 46.04 77.2534L35.45 71.9634C38.31 68.5534 40.92 64.8834 43.28 60.9434L52.47 65.5434Z" stroke="currentColor" stroke-linejoin="round"/>
    <path d="M54.1201 68.7333C54.1201 70.2533 53.66 71.8033 52.75 73.3833C51.84 74.9533 50.7201 76.1233 49.3901 76.8933C48.0701 77.6533 46.95 77.7733 46.04 77.2533C45.12 76.7333 44.6699 75.7133 44.6699 74.1933C44.6699 72.6733 45.12 71.1333 46.04 69.5533C46.95 67.9733 48.0701 66.8033 49.3901 66.0433C50.5901 65.3633 51.61 65.1833 52.47 65.5433L52.75 65.6833C53.66 66.2033 54.1201 67.2233 54.1201 68.7333Z" stroke="currentColor" stroke-linejoin="round"/>
    <path d="M90.99 43.1133C90.99 52.8033 88.06 62.7033 82.2 72.8133C76.33 82.9233 69.18 90.4133 60.74 95.2933C52.29 100.163 45.14 100.933 39.28 97.5933C38.44 97.1133 37.67 96.5733 36.95 95.9533C34.84 94.1833 33.2499 91.8433 32.1699 88.9433C34.8599 88.2533 37.72 87.0333 40.74 85.2933C49.18 80.4133 56.33 72.9233 62.2 62.8133C62.49 62.3133 62.77 61.8133 63.04 61.3133L68.5 64.0333L68.73 64.1533C69.64 64.6733 70.7601 64.5533 72.0801 63.7933C73.4001 63.0233 74.5199 61.8533 75.4399 60.2833C76.3499 58.7033 76.8101 57.1533 76.8101 55.6433C76.8101 54.1333 76.3499 53.1033 75.4399 52.5833L68.3999 49.0633C68.8899 47.5633 69.3001 46.0533 69.6401 44.5633C72.0201 44.1133 74.46 43.3333 76.96 42.2233C78.46 41.5633 79.98 40.7933 81.53 39.8933C82.98 39.0533 84.3699 38.1633 85.6899 37.2233C87.0199 36.2733 88.3399 35.2433 89.6599 34.1133C90.1699 35.3433 90.51 36.7133 90.7 38.2333C90.89 39.7533 90.99 41.3733 90.99 43.1133Z" stroke="currentColor" stroke-linejoin="round"/>
    <path d="M76.8101 55.6432C76.8101 57.1532 76.3499 58.7032 75.4399 60.2832C74.5199 61.8532 73.4001 63.0232 72.0801 63.7932C70.7601 64.5532 69.64 64.6732 68.73 64.1532C68.66 64.1132 68.59 64.0633 68.52 64.0033C67.74 63.4733 67.3501 62.4932 67.3501 61.0932C67.3501 59.5832 67.81 58.0332 68.73 56.4532C69.64 54.8832 70.7601 53.7132 72.0801 52.9432C72.7301 52.5632 73.3399 52.3432 73.8999 52.2832C74.3499 52.2332 74.7699 52.2832 75.1599 52.4432L75.4399 52.5832C76.3499 53.1032 76.8101 54.1232 76.8101 55.6432Z" stroke="currentColor" stroke-linejoin="round"/>
    <path d="M86 13.6934C82.93 12.2934 79.42 11.7634 75.48 12.0934C75.27 12.1134 75.0601 12.1334 74.8501 12.1534C70.4301 12.6334 65.73 14.3134 60.74 17.1934C55.51 20.2134 50.59 24.1834 45.99 29.1234C44.29 30.9434 42.6701 32.8334 41.1301 34.7834C38.5101 38.1134 36.13 41.6234 33.99 45.3234C31.85 49.0134 29.9899 52.8134 28.4199 56.7134C27.4799 59.0334 26.6399 61.3834 25.8999 63.7734C25.6299 64.6434 25.3799 65.5034 25.1499 66.3634C23.6699 71.8634 22.9199 77.2134 22.9199 82.4134C22.9199 84.8334 23.0799 87.1034 23.4099 89.2134C23.8899 92.3434 24.7199 95.1434 25.8999 97.6134C26.1299 98.0934 26.3701 98.5534 26.6201 99.0034C28.5201 102.433 30.97 105.003 33.99 106.723L15.54 97.4934L13.99 96.7234C10.58 94.7834 7.8899 91.7434 5.8999 87.6134C3.9199 83.4834 2.91992 78.4134 2.91992 72.4134C2.91992 66.4134 3.9199 60.1934 5.8999 53.7734C7.8899 47.3434 10.58 41.1934 13.99 35.3234C17.39 29.4534 21.39 24.0534 25.99 19.1234C30.59 14.1834 35.51 10.2134 40.74 7.19336C45.97 4.17336 50.88 2.47336 55.48 2.09336C60.08 1.71336 64.09 2.49336 67.49 4.43336L86 13.6934Z" stroke="currentColor" stroke-linejoin="round"/>
    <path d="M74.04 51.8832C74 52.0132 73.9499 52.1532 73.8999 52.2832C73.3399 52.3432 72.7301 52.5632 72.0801 52.9432C70.7601 53.7132 69.64 54.8832 68.73 56.4532C67.81 58.0332 67.3501 59.5832 67.3501 61.0932C67.3501 62.4932 67.74 63.4732 68.52 64.0032C68.52 64.0132 68.52 64.0232 68.5 64.0332L63.04 61.3132L49.01 54.2932L48.73 54.1532C48.22 53.8632 47.8501 53.4132 47.6301 52.8132C49.0801 49.7232 50.3399 46.5832 51.3999 43.3932C51.6199 43.2232 51.8501 43.0832 52.0801 42.9432C52.9101 42.4632 53.6501 42.2432 54.3201 42.2732C54.9301 42.6432 55.5499 42.9832 56.1899 43.2832C57.0099 43.6632 57.87 43.9932 58.76 44.2432L68.3999 49.0632L74.04 51.8832Z" stroke="currentColor" stroke-linejoin="round"/>
</svg>