<svg width="48" height="48" viewBox="0 0 90 102" fill="none" xmlns="http://www.w3.org/2000/svg" stroke-width="1px" stroke-linecap="round" stroke-linejoin="round"><path d="M37.9001 73.7599C37.4501 73.6499 36.9801 73.5999 36.4701 73.5999C35.0901 73.6099 33.6501 74.0399 32.1501 74.9099C29.3701 76.5099 27.0201 78.98 25.0701 82.33C23.1301 85.68 22.1602 88.9499 22.1602 92.1299C22.1602 95.3099 23.1301 97.4599 25.0701 98.5699L5.68018 88.8699L5.07007 88.5699C3.13007 87.4599 2.16016 85.3199 2.16016 82.1299C2.16016 78.9399 3.13007 75.68 5.07007 72.33C7.02007 68.98 9.37015 66.5099 12.1501 64.9099C13.5801 64.0799 14.9501 63.6499 16.2701 63.6099L24.6201 67.7799L25.0701 68.0099C25.9301 68.4999 26.8801 68.7299 27.9001 68.6799L37.9001 73.7599Z" stroke="#229EFF" stroke-linejoin="round"/><path d="M51.79 40.65L41.47 46.61C40.98 45.21 40.2 44.21 39.14 43.62L38.77 43.4401L37.13 42.63L31.58 39.89L30.2 39.2101L28 38.12C29.26 38.05 30.64 37.5801 32.15 36.7101C33.65 35.8401 35.09 34.61 36.47 33.02L36.49 33L38.88 34.1901L51.79 40.65Z" stroke="#229EFF" stroke-linejoin="round"/><path d="M76.0906 26.6199L58.6106 36.71C58.4306 35.06 58.1406 33.5198 57.7406 32.0898C57.1206 29.7898 56.2206 27.79 55.0406 26.08C54.8406 25.78 54.6307 25.4998 54.4207 25.2198C54.0607 24.7698 53.6906 24.3399 53.2906 23.9299C51.9806 22.5799 50.5106 21.5299 48.8906 20.7799L56.0906 16.6199L76.0906 26.6199Z" stroke="#229EFF" stroke-linejoin="round"/><path d="M73.0896 19.56C72.4796 20.62 72.1797 21.6799 72.1797 22.7699C72.1797 23.8599 72.4796 24.56 73.0896 24.91L76.0896 26.6199L56.0896 16.6199L53.0896 14.91C52.4796 14.56 52.1797 13.8499 52.1797 12.7699C52.1797 11.6899 52.4796 10.62 53.0896 9.55999C53.6996 8.50999 54.4797 7.70997 55.4197 7.16997C56.3697 6.61997 57.1396 6.51992 57.7496 6.86992L77.5696 16.78C76.9896 16.54 76.2797 16.67 75.4197 17.17C74.4797 17.71 73.6996 18.51 73.0896 19.56Z" stroke="#229EFF" stroke-linejoin="round"/><path d="M73.0895 39.4298C72.4795 40.4798 72.1796 41.5498 72.1796 42.6298C72.1796 43.7098 72.4795 44.4298 73.0895 44.7698L64.9395 40.6998L76.0895 34.2598L73.0895 39.4298Z" stroke="#229EFF" stroke-linejoin="round"/><path d="M38.7501 12.81C37.0801 12.04 35.1002 12.25 32.7902 13.44C32.5802 13.55 32.3601 13.67 32.1501 13.79C29.8101 15.14 27.7701 17.11 26.0201 19.71C25.6901 20.19 25.3801 20.6899 25.0701 21.2199C23.1301 24.5699 22.1602 27.83 22.1602 31.02C22.1602 32.92 22.5101 34.4499 23.2001 35.6099C23.2401 35.6799 23.2901 35.74 23.3301 35.81C23.7801 36.5 24.3601 37.05 25.0701 37.45L22.3601 36.0999L20.8901 35.3599L16.1702 32.9999H16.1602L5.68018 27.7499L5.07007 27.45C3.13007 26.34 2.16016 24.2 2.16016 21.02C2.16016 17.84 3.13007 14.5699 5.07007 11.2199C7.02007 7.86991 9.37015 5.38998 12.1501 3.78998C14.9201 2.18998 17.2501 1.92994 19.1401 2.99994L38.7501 12.81Z" stroke="#229EFF" stroke-linejoin="round"/><path d="M51.7903 40.6498L38.8802 34.1898L36.4902 32.9998C37.8702 31.4098 39.0302 29.6698 39.9702 27.7998C42.4202 27.9098 44.5403 28.6198 46.3003 29.9098C46.8903 30.3398 47.4502 30.8398 47.9602 31.3998C50.0102 33.6498 51.2903 36.7398 51.7903 40.6498Z" stroke="#229EFF" stroke-linejoin="round"/><path d="M38.7701 43.4401C38.5001 43.3001 38.2001 43.21 37.8901 43.13C37.6101 43.06 37.3202 43.02 37.0302 43.01C35.5402 42.88 33.9101 43.33 32.1501 44.35C31.5101 44.72 30.8902 45.13 30.3002 45.6C28.3102 47.14 26.5701 49.2 25.0701 51.78C23.1301 55.12 22.1602 58.3901 22.1602 61.5701C22.1602 61.7001 22.1602 61.8301 22.1702 61.9601C22.2102 63.7701 22.5902 65.23 23.3102 66.34C23.6702 66.9 24.1201 67.37 24.6501 67.74C24.6401 67.74 24.6301 67.77 24.6201 67.78L16.2701 63.61L5.68018 58.3101L5.07007 58.01C3.13007 56.9 2.16016 54.7601 2.16016 51.5701C2.16016 48.3801 3.13007 45.12 5.07007 41.78C7.02007 38.43 9.37015 35.95 12.1501 34.35C13.5701 33.52 14.9202 33.07 16.1602 33H16.1702L20.8901 35.36L22.3601 36.1L25.0701 37.4501C25.9601 37.9601 26.9301 38.18 27.9901 38.12H28.0001L30.2001 39.2101L31.5801 39.89L37.1301 42.63L38.7701 43.4401Z" stroke="#229EFF" stroke-linejoin="round"/><path d="M51.7904 48.29C51.2904 52.78 50.0103 57.3401 47.9603 61.9601C45.9103 66.5801 43.2403 70.86 39.9703 74.78C39.3703 74.28 38.6804 73.94 37.9004 73.76L27.9004 68.6801C29.1904 68.6301 30.6104 68.16 32.1504 67.27C34.2604 66.05 36.1704 64.25 37.8904 61.85C39.6104 59.46 40.8003 56.92 41.4703 54.25L51.7904 48.29Z" stroke="#229EFF" stroke-linejoin="round"/><path d="M87.3201 23.95C87.3201 24.46 87.2501 24.9799 87.1201 25.4999C86.9801 26.0299 86.7402 26.5799 86.4102 27.1499L77.7501 42.08C77.1401 43.14 76.3702 43.9299 75.4202 44.4799C74.4802 45.0199 73.7001 45.1199 73.0901 44.7699C72.4801 44.4299 72.1802 43.7099 72.1802 42.6299C72.1802 41.5499 72.4801 40.4799 73.0901 39.4299L76.0901 34.2599L64.9401 40.7L58.6101 44.3499C58.0001 50.5599 56.2501 56.8699 53.3701 63.2799C50.4801 69.6799 46.7401 75.5199 42.1301 80.7899C42.0201 84.0399 41.0201 87.2899 39.1401 90.5399C37.2501 93.7999 34.9201 96.23 32.1501 97.83C29.3701 99.43 27.0201 99.68 25.0701 98.57C23.1301 97.46 22.1602 95.3199 22.1602 92.1299C22.1602 88.9399 23.1301 85.68 25.0701 82.33C27.0201 78.98 29.3701 76.5099 32.1501 74.9099C33.6501 74.0399 35.0901 73.6099 36.4701 73.5999C36.9801 73.5999 37.4501 73.6499 37.9001 73.7599C38.6801 73.9399 39.3701 74.2799 39.9701 74.7799C43.2401 70.8599 45.9101 66.58 47.9601 61.96C50.0101 57.34 51.2902 52.7799 51.7902 48.2899L41.4701 54.2499C40.8001 56.9199 39.6101 59.4599 37.8901 61.8499C36.1701 64.2499 34.2601 66.0499 32.1501 67.2699C30.6101 68.1599 29.1901 68.6299 27.9001 68.6799C26.8801 68.7299 25.9301 68.4999 25.0701 68.0099C24.9201 67.9299 24.7801 67.8399 24.6501 67.7399C24.1201 67.3699 23.6702 66.8999 23.3102 66.3499C22.5902 65.2299 22.2102 63.77 22.1702 61.96C22.1602 61.83 22.1602 61.7 22.1602 61.57C22.1602 58.39 23.1301 55.1199 25.0701 51.7799C26.5701 49.1999 28.3102 47.1399 30.3002 45.5999C30.8902 45.1299 31.5101 44.7199 32.1501 44.3499C33.9101 43.3299 35.5402 42.8799 37.0302 43.0099C37.3202 43.0199 37.6101 43.0599 37.8901 43.1299C38.2001 43.2099 38.5001 43.3 38.7701 43.44L39.1401 43.6199C40.2001 44.2099 40.9801 45.2099 41.4701 46.6099L51.7902 40.6499C51.2902 36.7399 50.0101 33.6499 47.9601 31.3999C47.4501 30.8399 46.8902 30.3399 46.3002 29.9099C44.5402 28.6199 42.4201 27.9099 39.9701 27.7999C39.0301 29.6699 37.8701 31.4099 36.4901 32.9999L36.4701 33.0199C35.0901 34.6099 33.6501 35.84 32.1501 36.71C30.6401 37.58 29.2601 38.0499 28.0001 38.1199H27.9901C26.9301 38.1799 25.9601 37.96 25.0701 37.45C24.3601 37.05 23.7801 36.5 23.3301 35.82C23.2901 35.74 23.2401 35.6799 23.2001 35.6099C22.5101 34.4499 22.1602 32.9199 22.1602 31.0199C22.1602 27.8299 23.1301 24.5699 25.0701 21.2199C25.3801 20.6899 25.6901 20.19 26.0201 19.71C27.7701 17.11 29.8101 15.1399 32.1501 13.7899C32.3601 13.6699 32.5802 13.55 32.7902 13.44C35.1002 12.25 37.0801 12.0399 38.7501 12.8099L39.1401 12.9999C41.0201 14.0799 42.0201 16.1699 42.1301 19.2899C44.6201 19.3299 46.8801 19.8299 48.8901 20.7799C50.5101 21.5299 51.9802 22.5799 53.2902 23.9299C53.6902 24.3399 54.0602 24.7699 54.4202 25.2199C54.6302 25.4999 54.8402 25.78 55.0402 26.08C56.2202 27.79 57.1201 29.7899 57.7401 32.0899C58.1401 33.5199 58.4301 35.06 58.6101 36.71L76.0901 26.6199L73.0901 24.9099C72.4801 24.5599 72.1802 23.8499 72.1802 22.7699C72.1802 21.6899 72.4801 20.6199 73.0901 19.5599C73.7001 18.5099 74.4802 17.7099 75.4202 17.1699C76.2802 16.6699 76.9901 16.5399 77.5701 16.7799L77.7501 16.8699L86.4102 21.8099C86.7402 21.9999 86.9801 22.2699 87.1201 22.6399C87.2501 23.0099 87.3201 23.44 87.3201 23.95Z" stroke="#229EFF" stroke-linejoin="round"/></svg>