<svg viewBox="0 0 101 117" fill="none" xmlns="http://www.w3.org/2000/svg" height="48" width="48" stroke-width="1px" stroke-linecap="round" stroke-linejoin="round"><path d="M98.1194 17.0124L73.1492 108.582C72.7792 109.882 72.2192 111.022 71.4492 112.012C70.6892 113.002 69.8994 113.722 69.0994 114.192C68.2894 114.652 67.5093 114.852 66.7393 114.792C66.4793 114.772 66.2493 114.702 66.0293 114.592H66.0193C66.0193 114.592 65.9992 114.572 65.9792 114.562C65.5892 114.332 65.2793 113.942 65.0493 113.382L55.1792 91.1524L53.5493 87.4824L38.7292 89.1424L25.1892 90.6624C24.6492 90.7324 24.1893 90.6824 23.8093 90.5124L23.7192 90.4624C23.4792 90.3324 23.2794 90.1524 23.1094 89.9124C22.6694 89.2824 22.4492 88.5124 22.4492 87.5924C22.4492 86.6724 22.6892 85.6324 23.1592 84.4824C23.6292 83.3224 24.3493 82.2624 25.2993 81.3024L28.5493 78.0424L70.1294 36.3124L92.5293 13.8324C93.4093 12.9024 94.2493 12.3324 95.0493 12.1224C95.7293 11.9424 96.3294 11.9624 96.8594 12.1724L97.1294 12.3024C97.7194 12.6424 98.1194 13.2024 98.3394 14.0024C98.5494 14.7924 98.4794 15.8024 98.1194 17.0124Z" stroke="#229EFF" stroke-linejoin="round"/><path d="M65.9795 114.562C64.9295 114.032 48.4395 105.652 46.2695 104.692C46.1595 104.642 46.0896 104.612 46.0596 104.602C45.6296 104.382 45.2896 103.972 45.0496 103.382L38.7295 89.1424L53.5496 87.4824L55.1794 91.1524L65.0496 113.382C65.2796 113.942 65.5895 114.332 65.9795 114.562Z" stroke="#229EFF" stroke-linejoin="round"/><path d="M96.8594 12.1725C96.3294 11.9625 95.7293 11.9425 95.0493 12.1225C94.2493 12.3325 93.4093 12.9025 92.5293 13.8325L70.1294 36.3125L28.5493 78.0425L25.2993 81.3025C24.3493 82.2625 23.6292 83.3225 23.1592 84.4825C22.6892 85.6325 22.4492 86.6725 22.4492 87.5925C22.4492 88.5125 22.6694 89.2825 23.1094 89.9125C23.2794 90.1525 23.4792 90.3325 23.7192 90.4625L3.87939 80.5425C3.56939 80.4125 3.30938 80.2025 3.10938 79.9125C2.66938 79.2825 2.44922 78.5125 2.44922 77.5925C2.44922 76.6725 2.68918 75.6325 3.15918 74.4825C3.62918 73.3225 4.34932 72.2625 5.29932 71.3025L72.5293 3.83251C73.4093 2.90251 74.2493 2.3325 75.0493 2.1225C75.8493 1.9125 76.5494 1.9725 77.1294 2.3025L96.8594 12.1725Z" stroke="#229EFF" stroke-linejoin="round"/><path d="M66.0195 114.583C66.0195 114.583 65.9995 114.572 65.9795 114.562" stroke="#229EFF" stroke-linejoin="round"/></svg>