<svg width="48" height="48" viewBox="0 0 99 114" fill="none" xmlns="http://www.w3.org/2000/svg" stroke-width="1px" stroke-linecap="round" stroke-linejoin="round"><path d="M55.5699 23.0591C54.7499 23.1491 53.91 23.3191 53.05 23.5691C52.2 23.8291 51.32 24.2191 50.43 24.7291C48 26.1391 45.79 28.0692 43.8 30.5192C42.88 31.6492 42 32.8992 41.18 34.2592C38.58 38.5592 37.17 42.7692 36.96 46.8992L35.5699 46.2091L16.96 36.8992C17.17 32.7692 18.58 28.5592 21.18 24.2592C23.78 19.9692 26.87 16.7891 30.43 14.7291C31.32 14.2191 32.2 13.8291 33.05 13.5691C33.91 13.3191 34.7499 13.1491 35.5699 13.0591L43.8 17.1792L55.5699 23.0591Z" stroke="#229EFF" stroke-linejoin="round"/><path d="M36.9599 46.8992C36.4899 47.2492 36.0199 47.6091 35.5699 47.9891C32.1399 50.8191 29.2099 54.4791 26.7899 58.9691C24.0399 64.0591 22.6699 68.9992 22.6699 73.7892C22.6699 75.5192 22.8599 77.0692 23.2399 78.4192C23.6199 79.7792 24.1799 80.9392 24.9399 81.9192L4.93988 71.9192C4.17988 70.9392 3.61993 69.7792 3.23993 68.4192C2.85993 67.0692 2.66992 65.5192 2.66992 63.7892C2.66992 58.9992 4.03992 54.0591 6.78992 48.9691C9.52992 43.8891 12.9199 39.8692 16.9599 36.8992L35.5699 46.2091L36.9599 46.8992Z" stroke="#229EFF" stroke-linejoin="round"/><path d="M55.5699 23.0591V105.529C54.7499 106.389 53.9099 107.169 53.0499 107.869C52.1999 108.559 51.3199 109.159 50.4299 109.669C46.9399 111.689 43.9199 112.039 41.3899 110.709C38.8499 109.379 37.4099 106.849 37.0699 103.119C33.5599 104.599 30.5599 104.749 28.0599 103.549L27.5399 103.289C27.2899 103.139 27.0199 102.979 26.7899 102.799C26.2399 102.409 25.7499 101.969 25.3199 101.469C23.5499 99.4491 22.6699 96.5192 22.6699 92.6692C22.6699 91.0192 22.8599 89.2791 23.2399 87.4491C23.6199 85.6191 24.1799 83.7792 24.9399 81.9192C24.1799 80.9392 23.6199 79.7792 23.2399 78.4192C22.8599 77.0692 22.6699 75.5192 22.6699 73.7892C22.6699 68.9992 24.0399 64.0591 26.7899 58.9691C29.2099 54.4791 32.1399 50.8191 35.5699 47.9891C36.0199 47.6091 36.4899 47.2492 36.9599 46.8992C37.1699 42.7692 38.5799 38.5592 41.1799 34.2592C41.9999 32.8992 42.8799 31.6492 43.7999 30.5192C45.7899 28.0692 47.9999 26.1391 50.4299 24.7291C51.3199 24.2191 52.1999 23.8291 53.0499 23.5691C53.9099 23.3191 54.7499 23.1491 55.5699 23.0591Z" stroke="#229EFF" stroke-linejoin="round"/><path d="M63.7998 18.1991V100.779L55.5698 96.6692V23.0591L43.7998 17.1792V8.1991L63.7998 18.1991Z" stroke="#229EFF" stroke-linejoin="round"/><path d="M96.1298 45.3591C96.5098 46.7591 96.6998 48.2792 96.6998 49.9292C96.6998 54.8092 95.3098 59.7992 92.5298 64.8992C89.7598 69.9992 86.3098 74.0491 82.1998 77.0591C81.8598 81.1891 80.4398 85.3691 77.9298 89.6091C75.4298 93.8391 72.4298 96.9691 68.9398 98.9891C68.0498 99.4991 67.1698 99.9091 66.3198 100.209C65.4598 100.509 64.6198 100.699 63.7998 100.779V18.1991C64.6198 17.3291 65.4598 16.5491 66.3198 15.8591C67.1698 15.1691 68.0498 14.5592 68.9398 14.0492C70.7398 13.0092 72.4198 12.3891 73.9698 12.2091C74.3498 12.1591 74.7198 12.1392 75.0898 12.1392C76.1698 12.1592 77.1898 12.3991 78.1398 12.8691C79.1098 13.3491 79.9098 14.0191 80.5398 14.8691C81.5898 16.2791 82.1798 18.1891 82.2998 20.6091C85.5398 19.2391 88.3798 19.0392 90.7998 20.0092L90.8898 20.0492C91.4598 20.2792 92.0098 20.5791 92.5298 20.9491C95.3098 22.8891 96.6998 26.2591 96.6998 31.0591C96.6998 32.7891 96.5098 34.5491 96.1298 36.3391C95.7498 38.1291 95.1898 39.9492 94.4298 41.7992C95.1898 42.7792 95.7498 43.9691 96.1298 45.3591Z" stroke="#229EFF" stroke-linejoin="round"/><path d="M78.1398 12.8691C77.1898 12.3991 76.1698 12.1592 75.0898 12.1392C74.7198 12.1392 74.3498 12.1591 73.9698 12.2091C72.4198 12.3891 70.7398 13.0092 68.9398 14.0492C68.0498 14.5592 67.1698 15.1691 66.3198 15.8591C65.4598 16.5491 64.6198 17.3291 63.7998 18.1991L43.7998 8.19909C44.6198 7.32909 45.4598 6.54912 46.3198 5.85912C47.1698 5.16912 48.0498 4.55919 48.9398 4.04919C52.4998 1.98919 55.5698 1.59913 58.1398 2.86913L78.1398 12.8691Z" stroke="#229EFF" stroke-linejoin="round"/><path d="M27.5399 103.289L23.8899 101.459L19.4499 99.2391L8.49988 93.7491L8.34991 93.6792C7.80991 93.4492 7.28992 93.1592 6.78992 92.7992C4.03992 90.8392 2.66992 87.4692 2.66992 82.6692C2.66992 81.0192 2.85993 79.2791 3.23993 77.4491C3.61993 75.6191 4.17988 73.7792 4.93988 71.9192L24.9399 81.9192C24.1799 83.7792 23.6199 85.6191 23.2399 87.4491C22.8599 89.2791 22.6699 91.0192 22.6699 92.6692C22.6699 96.5192 23.5499 99.4491 25.3199 101.469C25.7499 101.969 26.2399 102.409 26.7899 102.799C27.0199 102.979 27.2899 103.139 27.5399 103.289Z" stroke="#229EFF" stroke-linejoin="round"/><path d="M41.3902 110.709L21.3902 100.709C20.6502 100.319 20.0102 99.8291 19.4502 99.2391L23.8902 101.459L27.5402 103.289L28.0602 103.549C30.5602 104.749 33.5602 104.599 37.0702 103.119C37.4102 106.849 38.8502 109.379 41.3902 110.709Z" stroke="#229EFF" stroke-linejoin="round"/><path d="M90.8 20.0092C88.38 19.0392 85.54 19.2391 82.3 20.6091C82.18 18.1891 81.59 16.2791 80.54 14.8691L90.8 20.0092Z" stroke="#229EFF" stroke-linejoin="round"/></svg>