<svg width="48" height="48" viewBox="0 0 92 113" fill="none" xmlns="http://www.w3.org/2000/svg" stroke-width="1px" stroke-linecap="round" stroke-linejoin="round"><path d="M88.9885 69.0501L82.6487 65.4301C83.2687 63.8901 83.7586 62.3401 84.0986 60.8001C84.4486 59.2601 84.6187 57.7301 84.6187 56.2201C84.6187 51.8901 83.2686 48.9601 80.5886 47.4301L79.9387 47.1101C77.3787 45.9701 74.3687 46.4001 70.8987 48.4001C67.9787 50.0901 65.3786 52.5201 63.1086 55.6901C62.4486 56.6101 61.8187 57.5801 61.2087 58.6201C60.1187 60.4801 59.2587 62.3301 58.6187 64.1501C57.6587 66.8401 57.1787 69.4801 57.1787 72.0601C57.1787 76.3901 58.5187 79.3201 61.2087 80.8601C63.8987 82.3901 67.1287 82.0701 70.8987 79.8901C72.2087 79.1301 73.4386 78.2401 74.5886 77.2201C75.6386 76.2801 76.6286 75.2201 77.5786 74.0301C77.6686 73.9201 77.7586 73.8201 77.8386 73.7101L84.1887 77.3301C84.8187 77.6901 85.6186 77.5901 86.5886 77.0301C87.5586 76.4701 88.3585 75.6401 88.9885 74.5601C89.6185 73.4701 89.9287 72.3701 89.9287 71.2601C89.9287 70.1501 89.6185 69.4101 88.9885 69.0501ZM75.7385 66.9101C74.6785 68.7401 73.4386 70.1901 72.0386 71.2501C71.6686 71.5401 71.2887 71.7901 70.8987 72.0201C69.0087 73.1001 67.3986 73.2701 66.0486 72.5001C64.7086 71.7301 64.0386 70.2701 64.0386 68.1001C64.0386 67.8201 64.0486 67.5401 64.0686 67.2601C64.2186 65.3601 64.8786 63.4001 66.0486 61.3801C66.6786 60.3001 67.3586 59.3601 68.1086 58.5501C68.9586 57.6101 69.8887 56.8501 70.8987 56.2701C72.7787 55.1801 74.3985 55.0201 75.7385 55.7901C77.0885 56.5501 77.7585 58.0201 77.7585 60.1801C77.7585 62.3401 77.0885 64.5901 75.7385 66.9101Z" stroke="#229EFF" stroke-linejoin="round"/><path d="M77.759 60.1797C77.759 62.3497 77.089 64.5896 75.739 66.9096C74.679 68.7396 73.4391 70.1897 72.0391 71.2497C71.6691 71.5397 71.2892 71.7897 70.8992 72.0197C69.0092 73.0997 67.3991 73.2697 66.0491 72.4997C64.7091 71.7297 64.0391 70.2697 64.0391 68.0997C64.0391 67.8197 64.0491 67.5397 64.0691 67.2597C64.2191 65.3597 64.8791 63.3997 66.0491 61.3797C66.6791 60.2997 67.3591 59.3597 68.1091 58.5497C68.9591 57.6097 69.8892 56.8497 70.8992 56.2697C72.7792 55.1797 74.399 55.0197 75.739 55.7897C77.089 56.5497 77.759 58.0197 77.759 60.1797Z" stroke="#229EFF" stroke-linejoin="round"/><path d="M84.6187 32.61V38.61C82.7287 37.8 80.6186 37.54 78.2686 37.85C75.9286 38.15 73.4687 39.0401 70.8987 40.5301C70.2787 40.8901 69.6686 41.27 69.0686 41.67C67.5086 42.71 66.0186 43.89 64.5886 45.23C61.5086 48.09 58.7586 51.6301 56.3186 55.8301C56.2986 55.8701 56.2886 55.9 56.2686 55.93C55.9886 56.4 55.7285 56.8701 55.4785 57.3401C53.1885 61.5901 51.6587 65.7701 50.8987 69.8901C50.5487 71.7501 50.3586 73.59 50.3286 75.42C50.3286 75.62 50.3286 75.8301 50.3286 76.0301C50.3286 77.4001 50.4287 78.6901 50.6287 79.8901C50.8287 81.0801 51.1286 82.1901 51.5286 83.2001L46.8987 85.8801C45.9287 86.4401 45.1087 87.29 44.4587 88.42C43.7987 89.55 43.4685 90.68 43.4685 91.79V95.73C43.4685 96.84 43.1385 97.97 42.4785 99.1C41.8285 100.24 41.0086 101.08 40.0386 101.64L26.3186 109.57C25.3486 110.13 24.5287 110.22 23.8787 109.84C23.2187 109.47 22.8887 108.73 22.8887 107.61V87.93C22.8887 86.49 23.0785 85.02 23.4685 83.55C23.9585 81.67 24.7687 79.7701 25.8887 77.8401C26.3387 77.0601 26.8186 76.3201 27.3086 75.6401C28.4386 74.0701 29.6686 72.75 31.0286 71.67C31.7086 71.11 32.4287 70.61 33.1787 70.18L38.1187 67.3301L40.0386 66.2201C41.9286 65.1301 43.6387 63.6401 45.1487 61.7601C45.9287 60.8001 46.6486 59.7301 47.3286 58.5701C49.3286 55.1201 50.3286 51.76 50.3286 48.48C50.3286 47.81 50.2085 47.2801 49.9685 46.8801C49.8185 46.6101 49.6086 46.39 49.3386 46.24C48.6886 45.87 47.8687 45.9601 46.8987 46.5201C45.0687 47.5801 43.4987 47.7601 42.1787 47.0601C42.1387 47.0401 42.0986 47.0201 42.0586 47.0001C40.7086 46.2401 40.0386 44.77 40.0386 42.61V26.8701C40.0386 25.7501 40.3686 24.63 41.0286 23.49C41.6786 22.36 42.4985 21.5101 43.4685 20.9501L57.1887 13.0301C58.0587 12.5301 58.8087 12.4001 59.4287 12.6501L59.6287 12.7501C60.2887 13.1201 60.6187 13.87 60.6187 14.98V18.92C61.8287 18.22 63.0087 17.6301 64.1487 17.1401C68.8087 15.1701 72.9185 14.9601 76.4685 16.5301L77.6387 17.11C82.2987 19.77 84.6287 24.93 84.6287 32.61H84.6187Z" stroke="#229EFF" stroke-linejoin="round"/><path d="M76.4592 16.5298C72.9092 14.9598 68.7992 15.1698 64.1392 17.1398C62.9992 17.6298 61.8191 18.2198 60.6091 18.9198V14.9798C60.6091 13.8698 60.2791 13.1198 59.6191 12.7498L59.4192 12.6498L46.6191 6.24977C50.0591 5.21977 53.1692 5.23978 55.9492 6.31978L57.999 7.3398L76.4592 16.5298Z" stroke="#229EFF" stroke-linejoin="round"/><path d="M59.4194 12.6499C58.7994 12.3999 58.0494 12.5299 57.1794 13.0299L43.4595 20.9499C42.4895 21.5099 41.6693 22.3599 41.0193 23.4899C40.3593 24.6299 40.0293 25.7499 40.0293 26.8699V42.6099C40.0293 44.7699 40.6993 46.2399 42.0493 46.9999L37.0994 44.5299L30.1194 41.0299L22.4692 37.2099L22.0493 36.9999C20.6993 36.2399 20.0293 34.7699 20.0293 32.6099V16.8699C20.0293 15.7499 20.3593 14.6299 21.0193 13.4899C21.6693 12.3599 22.4895 11.5099 23.4595 10.9499L37.1794 3.02992C38.1494 2.46992 38.9694 2.37989 39.6194 2.74989L46.6194 6.24989L59.4194 12.6499Z" stroke="#229EFF" stroke-linejoin="round"/><path d="M22.0488 79.4902L21.9688 79.4502" stroke="#229EFF" stroke-linejoin="round"/><path d="M79.9392 47.1099C77.3792 45.9699 74.3692 46.4 70.8992 48.4C67.9792 50.09 65.3791 52.5199 63.1091 55.6899C62.4491 56.6099 61.8192 57.5799 61.2092 58.6199C60.1192 60.4799 59.2591 62.33 58.6191 64.15C57.6591 66.84 57.1792 69.4799 57.1792 72.0599C57.1792 76.3899 58.5192 79.3199 61.2092 80.8599L50.3291 75.4199C50.3591 73.5899 50.5492 71.75 50.8992 69.89C51.6592 65.77 53.189 61.59 55.479 57.34C55.569 57.2 55.659 57.0599 55.739 56.9099C55.929 56.5799 56.109 56.2599 56.269 55.9299C56.289 55.8999 56.2991 55.87 56.3191 55.83C58.7591 51.63 61.5091 48.0899 64.5891 45.2299C66.0191 43.8899 67.5091 42.7099 69.0691 41.6699L79.9392 47.1099Z" stroke="#229EFF" stroke-linejoin="round"/><path d="M84.1892 77.33L77.5791 74.03C77.6691 73.92 77.7591 73.82 77.8391 73.71L84.1892 77.33Z" stroke="#229EFF" stroke-linejoin="round"/><path d="M50.3188 48.4802C50.3188 51.7602 49.3188 55.1203 47.3188 58.5703C46.6388 59.7303 45.9189 60.8003 45.1389 61.7603C43.6289 63.6403 41.9188 65.1303 40.0288 66.2203L38.1089 67.3303L33.1689 70.1802C32.4189 70.6102 31.6988 71.1102 31.0188 71.6702C29.6588 72.7502 28.4288 74.0703 27.2988 75.6403C26.8088 76.3203 26.3289 77.0603 25.8789 77.8403C24.7589 79.7703 23.949 81.6702 23.459 83.5502C23.069 85.0202 22.8789 86.4902 22.8789 87.9302V107.61C22.8789 108.73 23.2089 109.47 23.8689 109.84L4.06885 99.9402L3.8689 99.8403C3.2089 99.4703 2.87891 98.7302 2.87891 97.6102V77.9302C2.87891 74.6502 3.87891 71.2903 5.87891 67.8403C7.87891 64.3803 10.3089 61.8302 13.1689 60.1802L20.0288 56.2203C22.8888 54.5703 25.3188 52.0203 27.3188 48.5703C28.7988 46.0103 29.7389 43.5003 30.1189 41.0303L37.0989 44.5303L42.0488 47.0002C42.0488 47.0002 42.1289 47.0402 42.1689 47.0602C43.4889 47.7602 45.0589 47.5803 46.8889 46.5203C47.8589 45.9603 48.6789 45.8702 49.3289 46.2402C49.5989 46.3902 49.809 46.6102 49.959 46.8802C50.199 47.2802 50.3188 47.8102 50.3188 48.4802Z" stroke="#229EFF" stroke-linejoin="round"/></svg>