<svg width="48" height="48" viewBox="0 0 106 115" fill="none" xmlns="http://www.w3.org/2000/svg" stroke-width="1px"
     stroke-linecap="round" stroke-linejoin="round">
    <path d="M71.1304 15.4699C71.1304 16.6799 70.7703 17.8999 70.0603 19.1399C69.4403 20.1999 68.7003 21.0199 67.8403 21.6199C67.6903 21.7199 67.5504 21.8099 67.4004 21.8999L66.3604 22.4999L54.8604 29.1399L33.0305 41.7399L30.0903 43.4399C29.0303 44.0499 28.1404 44.1599 27.4304 43.7499C27.2304 43.6399 27.0604 43.4899 26.9304 43.3199C26.5404 42.8599 26.3604 42.1999 26.3604 41.3199C26.3604 40.0999 26.7104 38.8799 27.4304 37.6499C28.1404 36.4099 29.0303 35.4899 30.0903 34.8799L54.8604 20.5799L58.4104 18.5299L67.4004 13.3399C68.3404 12.7899 69.1603 12.6599 69.8403 12.9299L70.0603 13.0399C70.6903 13.3899 71.0404 14.0599 71.1104 15.0499C71.1204 15.1799 71.1304 15.3199 71.1304 15.4699Z" stroke="currentColor" stroke-linejoin="round"/>
    <path d="M72.6702 25.66L72.2102 25.43C70.8402 24.87 69.2401 25.12 67.4001 26.18L61.3101 29.7L54.8601 33.42L34.3401 45.28L30.0901 47.73C28.0301 48.91 26.2801 50.76 24.8201 53.28C23.3601 55.8 22.6201 58.24 22.6201 60.6V107.69C22.6201 110.05 23.3601 111.64 24.8201 112.47C26.2801 113.31 28.0301 113.13 30.0901 111.95L67.4001 90.4C69.4501 89.22 71.2102 87.37 72.6702 84.85C74.1302 82.33 74.8601 79.89 74.8601 77.53V30.44C74.8601 28.08 74.1302 26.49 72.6702 25.66ZM62.0303 65.94C60.9503 67.82 59.6201 69.2 58.0701 70.1L54.3401 72.26V76.54C54.3401 78.32 53.7902 80.15 52.7102 82.03C51.6202 83.91 50.3002 85.29 48.7402 86.19C47.1902 87.09 45.8703 87.23 44.7803 86.61C43.6903 85.99 43.1501 84.78 43.1501 83V78.72L39.4102 80.87C37.8602 81.77 36.5402 81.91 35.4502 81.29C34.3602 80.67 33.8201 79.46 33.8201 77.68C33.8201 76.59 34.0202 75.49 34.4302 74.36C34.6802 73.65 35.0302 72.92 35.4502 72.19C36.5402 70.31 37.8602 68.93 39.4102 68.03L42.4102 66.3L43.1501 65.87V61.59C43.1501 59.81 43.6903 57.98 44.7803 56.1C45.0103 55.71 45.2502 55.34 45.5002 54.99C46.4302 53.66 47.5102 52.65 48.7402 51.94C50.3002 51.04 51.6202 50.9 52.7102 51.52C53.7902 52.14 54.3401 53.35 54.3401 55.13V59.41L54.8601 59.11L58.0701 57.26C59.6201 56.36 60.9503 56.22 62.0303 56.84C63.1203 57.46 63.6702 58.66 63.6702 60.45C63.6702 62.24 63.1203 64.06 62.0303 65.94Z" stroke="currentColor" stroke-linejoin="round"/>
    <path d="M63.6702 60.4502C63.6702 62.2302 63.1203 64.0602 62.0303 65.9402C60.9503 67.8202 59.6201 69.2002 58.0701 70.1002L54.3401 72.2602L53.9902 72.0802L42.4102 66.3002L43.1501 65.8702V61.5902C43.1501 59.8102 43.6903 57.9802 44.7803 56.1002C45.0103 55.7102 45.2502 55.3402 45.5002 54.9902L54.3401 59.4102L54.8601 59.1102L58.0701 57.2602C59.6201 56.3602 60.9503 56.2202 62.0303 56.8402C63.1203 57.4602 63.6702 58.6602 63.6702 60.4502Z" stroke="currentColor" stroke-linejoin="round"/>
    <path d="M94.02 24.3607C93.32 24.0807 92.5199 24.2007 91.5999 24.7307C90.5799 25.3207 89.6899 26.2607 88.9399 27.5507C88.1999 28.8407 87.8198 30.0507 87.8198 31.1907C87.8198 32.3307 88.1999 33.1207 88.9399 33.5507L90.3398 34.3407L70.3398 24.3407L68.9399 23.5507C68.2999 23.1807 67.9298 22.5407 67.8398 21.6207C68.6998 21.0207 69.4398 20.2007 70.0598 19.1407C70.7698 17.9007 71.1299 16.6807 71.1299 15.4707C71.1299 15.3207 71.1199 15.1807 71.1099 15.0507C71.2699 14.9307 71.4299 14.8307 71.5999 14.7307C72.6299 14.1407 73.51 14.0607 74.26 14.4807L94.02 24.3607Z" stroke="currentColor" stroke-linejoin="round"/>
    <path d="M43.1504 78.7203L39.4104 80.8704C37.8604 81.7704 36.5404 81.9103 35.4504 81.2903C34.3604 80.6703 33.8203 79.4604 33.8203 77.6804C33.8203 76.5904 34.0204 75.4904 34.4304 74.3604L43.1504 78.7203Z" stroke="currentColor" stroke-linejoin="round"/>
    <path d="M54.3406 72.2608V76.5408C54.3406 78.3208 53.7907 80.1508 52.7107 82.0308C51.6207 83.9108 50.3007 85.2908 48.7407 86.1908C47.1907 87.0908 45.8708 87.2308 44.7808 86.6108C43.6908 85.9908 43.1506 84.7808 43.1506 83.0008V78.7208L34.4307 74.3608C34.6807 73.6508 35.0307 72.9208 35.4507 72.1908C36.5407 70.3108 37.8606 68.9308 39.4106 68.0308L42.4106 66.3008L53.9907 72.0808L54.3406 72.2608Z" stroke="currentColor" stroke-linejoin="round"/>
    <path d="M54.3398 55.1309V59.4109L45.5 54.9909C46.43 53.6609 47.51 52.6509 48.74 51.9409C50.3 51.0409 51.62 50.9009 52.71 51.5209C53.79 52.1409 54.3398 53.3509 54.3398 55.1309Z" stroke="currentColor" stroke-linejoin="round"/>
    <path d="M69.8403 12.9302C69.1603 12.6602 68.3404 12.7902 67.4004 13.3402L58.4104 18.5302L54.8604 20.5802L30.0903 34.8802C29.0303 35.4902 28.1404 36.4102 27.4304 37.6502C26.7104 38.8802 26.3604 40.1002 26.3604 41.3202C26.3604 42.2002 26.5404 42.8602 26.9304 43.3202C26.8904 43.3502 26.8503 43.3902 26.8103 43.4402L12.5503 36.3102L7.43042 33.7502C6.71042 33.3402 6.36035 32.5302 6.36035 31.3202C6.36035 30.1102 6.71042 28.8802 7.43042 27.6502C8.14042 26.4102 9.03033 25.4902 10.0903 24.8802L47.4004 3.34018C48.4504 2.73018 49.3403 2.63017 50.0603 3.04017L69.8403 12.9302Z" stroke="currentColor" stroke-linejoin="round"/>
    <path d="M72.2102 25.43C70.8402 24.87 69.2401 25.12 67.4001 26.18L61.3101 29.7L54.8601 33.42L34.3401 45.28L30.0901 47.73C28.0301 48.91 26.2801 50.76 24.8201 53.28C23.3601 55.8 22.6201 58.24 22.6201 60.6V107.69C22.6201 110.05 23.3601 111.64 24.8201 112.47L5.28027 102.7L4.82007 102.47C3.36007 101.64 2.62012 100.05 2.62012 97.69V50.6C2.62012 48.24 3.36007 45.8 4.82007 43.28C6.28007 40.76 8.03009 38.91 10.0901 37.73L12.55 36.31L26.8101 43.44L27.4302 43.75C28.1402 44.16 29.0301 44.05 30.0901 43.44L33.0303 41.74L54.8601 29.14L66.3601 22.5L70.2002 24.42L72.2102 25.43Z" stroke="currentColor" stroke-linejoin="round"/>
    <path d="M90.3401 34.3398L82.3201 38.9698C81.2601 39.5798 80.3802 40.5099 79.6602 41.7399C78.9502 42.9699 78.5901 44.1999 78.5901 45.4099C78.5901 45.7299 78.6202 46.0198 78.6702 46.2798C78.8102 47.0198 79.1402 47.5398 79.6602 47.8398L74.8601 45.4398V30.4398C74.8601 28.0798 74.1302 26.4899 72.6702 25.6599L72.2102 25.4298L70.2002 24.4198L70.3401 24.3398L90.3401 34.3398Z" stroke="currentColor" stroke-linejoin="round"/>
    <path d="M88.9399 45.3201C88.1999 46.6101 87.8198 47.8402 87.8198 49.0202C87.8198 50.2002 88.1999 50.9902 88.9399 51.4202L81.75 47.8201C81.93 47.7501 82.1198 47.6501 82.3198 47.5401L90.3398 42.9102L88.9399 45.3201Z" stroke="currentColor" stroke-linejoin="round"/>
    <path d="M103.22 31.1904C103.22 32.3304 102.84 33.5504 102.1 34.8404L94.26 48.3504C93.51 49.6404 92.6299 50.5804 91.5999 51.1704C90.5799 51.7604 89.6899 51.8504 88.9399 51.4204C88.1999 50.9904 87.8198 50.1904 87.8198 49.0204C87.8198 47.8504 88.1999 46.6104 88.9399 45.3204L90.3398 42.9104L82.3198 47.5404C82.1198 47.6504 81.93 47.7504 81.75 47.8204H81.74C80.93 48.1704 80.2499 48.1704 79.6599 47.8404C79.1399 47.5404 78.8099 47.0204 78.6699 46.2904C78.6199 46.0204 78.5898 45.7304 78.5898 45.4104C78.5898 44.2004 78.9499 42.9704 79.6599 41.7404C80.3799 40.5104 81.2598 39.5804 82.3198 38.9704L90.3398 34.3404L88.9399 33.5504C88.1999 33.1204 87.8198 32.3404 87.8198 31.1904C87.8198 30.0404 88.1999 28.8404 88.9399 27.5504C89.6899 26.2604 90.5799 25.3204 91.5999 24.7304C92.5199 24.2004 93.32 24.0804 94.02 24.3604L94.26 24.4804L102.1 28.8404C102.84 29.2704 103.22 30.0504 103.22 31.1904Z" stroke="currentColor" stroke-linejoin="round"/>
</svg>