<svg width="48" height="48" viewBox="0 0 96 116" fill="none" xmlns="http://www.w3.org/2000/svg" stroke-width="1px" stroke-linecap="round" stroke-linejoin="round"><path d="M69.9902 43.2129C69.9902 43.2129 70.0702 43.2629 70.1102 43.2929C70.1102 43.2829 70.1201 43.2829 70.1201 43.2729L69.9902 43.2129Z" stroke="#229EFF" stroke-linejoin="round"/><path d="M93.5603 61.6632V65.7432C93.5603 68.5432 92.7003 71.4432 90.9603 74.4332C89.2203 77.4332 87.1303 79.6432 84.6903 81.0432L75.8203 86.1732V53.5832C77.6603 53.1932 79.4802 52.8732 81.2502 52.6132C83.0302 52.3532 84.7603 52.2332 86.4603 52.2732C87.5303 52.2732 88.4803 52.4632 89.3303 52.8532L89.3903 52.8832C90.2803 53.2932 91.0403 53.9432 91.6803 54.8032C92.9403 56.4932 93.5603 58.7832 93.5603 61.6632Z" stroke="#229EFF" stroke-linejoin="round"/><path d="M49.1904 66.6631V83.7231L40.3204 79.2931V74.0831L34.0204 70.9331L29.1904 68.5231V56.6631L45.0204 64.5831L49.1904 66.6631Z" stroke="#229EFF" stroke-linejoin="round"/><path d="M66.9404 56.4135C65.4604 57.0135 63.9804 57.6835 62.5004 58.4035C61.0204 59.1335 59.5504 59.9235 58.0704 60.7735C57.3204 61.2135 56.5704 61.6535 55.8204 62.1235C55.0904 62.5735 54.3604 63.0435 53.6304 63.5335C52.1504 64.5135 50.6704 65.5535 49.1904 66.6635L45.0204 64.5835L29.1904 56.6635C30.6704 55.5535 32.1504 54.5135 33.6304 53.5335C34.3704 53.0335 35.1105 52.5635 35.8505 52.1035L45.5304 56.9435C45.9904 57.2035 46.4604 57.4235 46.9404 57.5935C49.5404 58.5635 52.5104 58.3035 55.8204 56.8335C56.5504 56.5135 57.3004 56.1235 58.0704 55.6835C59.1604 55.0535 60.2105 54.3435 61.2305 53.5535L66.9404 56.4135Z" stroke="#229EFF" stroke-linejoin="round"/><path d="M66.9404 56.4131V73.4731L59.2704 77.9031L49.1904 83.7231V66.6631C50.6704 65.5531 52.1504 64.5131 53.6304 63.5331C54.3604 63.0431 55.0904 62.5731 55.8204 62.1231C56.5704 61.6531 57.3204 61.2131 58.0704 60.7731C59.5504 59.9231 61.0204 59.1331 62.5004 58.4031C63.9804 57.6831 65.4604 57.0131 66.9404 56.4131Z" stroke="#229EFF" stroke-linejoin="round"/><path d="M75.8203 25.0732C75.8203 30.6732 74.0803 36.4732 70.6003 42.4632C70.4403 42.7332 70.2802 43.0032 70.1202 43.2732L69.9904 43.2132C69.9904 43.2132 70.0704 43.2632 70.1104 43.2932C68.8904 45.3132 67.5903 47.1332 66.2003 48.7732C64.6503 50.6032 62.9903 52.2032 61.2303 53.5532C60.2103 54.3432 59.1603 55.0532 58.0703 55.6832C57.3003 56.1232 56.5503 56.5132 55.8203 56.8332C52.5103 58.3032 49.5403 58.5632 46.9403 57.5932C46.4603 57.4232 45.9903 57.2032 45.5303 56.9432C42.9103 55.4432 41.2802 52.9132 40.6302 49.3632C40.4202 48.2032 40.3203 46.9432 40.3203 45.5632C40.3203 45.1132 40.3304 44.6532 40.3604 44.2032C40.6104 39.0232 42.3403 33.6832 45.5303 28.1732C48.4503 23.1332 51.8703 19.2232 55.7803 16.4332C56.5203 15.8932 57.2903 15.4032 58.0703 14.9532C62.5303 12.3732 66.4103 11.8032 69.6903 13.2332L70.6003 13.6932C74.0803 15.6832 75.8203 19.4732 75.8203 25.0732Z" stroke="#229EFF" stroke-linejoin="round"/><path d="M69.6903 13.2329C66.4103 11.8029 62.5303 12.3729 58.0703 14.9529C57.2903 15.4029 56.5203 15.8929 55.7803 16.4329C51.8703 19.2229 48.4503 23.1329 45.5303 28.1729C42.3403 33.6829 40.6104 39.0229 40.3604 44.2029C40.3304 44.6529 40.3203 45.1129 40.3203 45.5629C40.3203 46.9429 40.4202 48.2029 40.6302 49.3629C41.2802 52.9129 42.9103 55.4429 45.5303 56.9429L35.8503 52.1029L26.4103 47.3829L25.5303 46.9429C22.0603 44.9529 20.3203 41.1629 20.3203 35.5629C20.3203 29.9629 22.0603 24.1629 25.5303 18.1729C29.0103 12.1729 33.1903 7.77289 38.0703 4.95289C42.9503 2.13289 47.1303 1.7129 50.6003 3.6929L69.6903 13.2329Z" stroke="#229EFF" stroke-linejoin="round"/><path d="M40.3203 74.083V106.663L31.4403 111.793C29.0003 113.203 26.9103 113.403 25.1703 112.413C23.4403 111.423 22.5703 109.533 22.5703 106.733V102.653C22.5703 99.773 23.2003 96.753 24.4503 93.613C25.7103 90.463 27.4503 87.623 29.6703 85.063C31.3703 83.063 33.1102 81.173 34.8802 79.383C35.5102 78.753 36.1303 78.123 36.7703 77.513C37.9403 76.353 39.1203 75.213 40.3203 74.083Z" stroke="#229EFF" stroke-linejoin="round"/><path d="M89.3302 52.8525C88.4802 52.4625 87.5302 52.2725 86.4602 52.2725C84.7602 52.2325 83.0301 52.3525 81.2501 52.6125C79.4801 52.8725 77.6602 53.1925 75.8202 53.5825L73.5602 52.4525L66.2002 48.7725C67.5902 47.1325 68.8902 45.3125 70.1102 43.2925C70.1102 43.2825 70.1201 43.2825 70.1201 43.2725L89.3302 52.8525Z" stroke="#229EFF" stroke-linejoin="round"/><path d="M75.8206 53.5825V86.1725L59.2705 77.9025L66.9406 73.4725V56.4125L61.2306 53.5525C62.9906 52.2025 64.6506 50.6025 66.2006 48.7725L73.5605 52.4525L75.8206 53.5825Z" stroke="#229EFF" stroke-linejoin="round"/><path d="M40.3203 74.083C39.1203 75.213 37.9403 76.353 36.7703 77.513C36.1303 78.123 35.5102 78.753 34.8802 79.383C33.1102 81.173 31.3703 83.063 29.6703 85.063C27.4503 87.623 25.7103 90.463 24.4503 93.613C23.2003 96.753 22.5703 99.773 22.5703 102.653V106.733C22.5703 109.533 23.4403 111.423 25.1703 112.413L5.72034 102.683L5.17029 102.413C3.44029 101.423 2.57031 99.533 2.57031 96.733V92.653C2.57031 89.773 3.20032 86.753 4.45032 83.613C5.71032 80.463 7.45029 77.623 9.67029 75.063C11.3703 73.063 13.1102 71.173 14.8802 69.383C16.6602 67.593 18.4703 65.823 20.3203 64.083L29.1903 68.523L34.0203 70.933L40.3203 74.083Z" stroke="#229EFF" stroke-linejoin="round"/></svg>