<svg width="48" height="48" viewBox="0 0 105 122" fill="none" xmlns="http://www.w3.org/2000/svg" stroke-width="1px"
     stroke-linecap="round" stroke-linejoin="round">
    <path d="M85.3099 30.8298L78.0599 27.1998L65.3099 20.8298L55.5299 15.2498C54.5899 14.7098 54.1099 13.6098 54.1099 11.9298C54.1099 10.2498 54.5899 8.60978 55.5299 6.97978C56.4699 5.34978 57.6799 4.11978 59.1299 3.27978C60.5899 2.42978 61.7899 2.27978 62.7399 2.81978L82.4599 12.6798C81.7999 12.4198 81.0499 12.4498 80.1799 12.7698C79.8499 12.8998 79.4999 13.0698 79.1299 13.2798C77.6799 14.1198 76.4699 15.3498 75.5299 16.9798C74.5899 18.6098 74.1099 20.2598 74.1099 21.9298C74.1099 23.5998 74.5899 24.7098 75.5299 25.2498L78.2799 26.8198L85.3099 30.8298Z" stroke="currentColor" stroke-linejoin="round"/>
    <path d="M102.69 26.6998C102.69 27.4898 102.58 28.2898 102.36 29.0998C102.15 29.9198 101.78 30.7698 101.27 31.6598L82.7397 63.6198C81.7897 65.2498 80.5898 66.4798 79.1298 67.3298C77.6798 68.1698 76.4698 68.3198 75.5298 67.7798C74.5898 67.2398 74.1097 66.1398 74.1097 64.4598C74.1097 62.7798 74.5898 61.1398 75.5298 59.5098L85.3098 42.6398L57.4398 58.7398L52.8798 61.3698C47.4698 64.4898 42.7797 69.1698 38.7897 75.4098C34.9997 81.3398 32.9998 87.1298 32.8198 92.7598C32.7998 93.0498 32.7997 93.3398 32.7997 93.6298C32.7997 97.7598 33.7797 100.85 35.7297 102.88C36.5697 103.77 37.5897 104.46 38.7897 104.95C42.7797 106.58 47.4698 105.84 52.8798 102.72L84.2798 84.5898C85.5898 83.8298 86.7098 83.6398 87.6398 84.0198L87.9498 84.1698C88.9398 84.7298 89.4297 85.8498 89.4297 87.5198C89.4297 89.1898 88.9398 90.8798 87.9498 92.5898C86.9598 94.2898 85.7398 95.5598 84.2798 96.3998L52.8798 114.53C44.5598 119.34 37.4098 120.36 31.4498 117.6L30.6898 117.22C27.3198 115.42 24.9998 112.49 23.7098 108.42C22.9098 105.91 22.5098 102.96 22.5098 99.5798C22.5098 98.3198 22.5697 97.0498 22.6797 95.7798C23.3797 87.7398 26.2998 79.5498 31.4498 71.2298C37.4098 61.5798 44.5598 54.3598 52.8798 49.5498L56.8298 47.2698L71.2498 38.9498L85.3098 30.8298L78.2798 26.8198L75.5298 25.2498C74.5898 24.7098 74.1097 23.6098 74.1097 21.9298C74.1097 20.2498 74.5898 18.6098 75.5298 16.9798C76.4698 15.3498 77.6798 14.1198 79.1298 13.2798C79.4998 13.0698 79.8497 12.8998 80.1797 12.7698C81.0497 12.4498 81.7998 12.4198 82.4598 12.6798L82.7397 12.8198L101.27 23.3898C101.78 23.6798 102.15 24.1098 102.36 24.6698C102.58 25.2398 102.69 25.9198 102.69 26.6998Z" stroke="currentColor" stroke-linejoin="round"/>
    <path d="M85.3098 30.8298L71.2498 38.9498L56.8298 47.2698L52.8798 49.5498C44.5598 54.3598 37.4098 61.5798 31.4498 71.2298C26.2998 79.5498 23.3797 87.7398 22.6797 95.7798C22.5697 97.0498 22.5098 98.3198 22.5098 99.5798C22.5098 102.96 22.9098 105.91 23.7098 108.42C24.9998 112.49 27.3198 115.42 30.6898 117.22L11.4498 107.6C5.48977 104.84 2.50977 98.8298 2.50977 89.5798C2.50977 80.3298 5.48977 70.8698 11.4498 61.2298C17.4098 51.5798 24.5598 44.3598 32.8798 39.5498L65.3098 20.8298L78.0598 27.1998L85.3098 30.8298Z" stroke="currentColor" stroke-linejoin="round"/>
    <path d="M87.6398 84.0197C86.7098 83.6397 85.5898 83.8297 84.2798 84.5897L52.8798 102.72C47.4698 105.84 42.7798 106.58 38.7898 104.95C37.5898 104.46 36.5698 103.77 35.7298 102.88C33.7798 100.85 32.7998 97.7597 32.7998 93.6297C32.7998 93.3397 32.7998 93.0497 32.8198 92.7597C32.8398 92.7397 32.8598 92.7297 32.8798 92.7197L64.2798 74.5897C65.7398 73.7397 66.9598 73.5997 67.9498 74.1697L87.6398 84.0197Z" stroke="currentColor" stroke-linejoin="round"/>
    <path d="M75.53 59.5098C74.59 61.1398 74.1099 62.7898 74.1099 64.4598C74.1099 66.1298 74.59 67.2398 75.53 67.7798L57.4399 58.7398L85.3099 42.6398L75.53 59.5098Z" stroke="currentColor" stroke-linejoin="round"/>
</svg>