<svg width="24" height="24" viewBox="0 0 94 117" fill="none" xmlns="http://www.w3.org/2000/svg" stroke-width="1px" stroke-linecap="round" stroke-linejoin="round">
    <path d="M91.5698 61.0899C91.5698 67.1599 89.73 73.3699 86.05 79.7199C82.37 86.0699 77.8798 90.7699 72.5898 93.8299C72.0798 94.1299 71.54 94.4199 71 94.6999C70.45 94.9799 69.9199 95.2099 69.3999 95.3699C72.5599 91.1699 75.0398 86.6599 76.8198 81.8299C78.5998 77.0099 79.5 72.4199 79.5 68.0599C79.5 60.8699 77.32 56.0299 72.98 53.5599C72.5 53.2899 72.01 53.0499 71.51 52.8599C68 51.4599 63.91 51.8799 59.25 54.1099C58.53 54.4499 57.8001 54.84 57.0601 55.27C56.6701 55.49 56.2899 55.7299 55.9099 55.9599C54.6599 56.7499 53.45 57.61 52.29 58.55C49.06 61.15 46.14 64.37 43.52 68.18C42.9 69.07 42.3 69.9899 41.73 70.9499C41.6 71.1599 41.4699 71.3799 41.3499 71.5899C41.2799 71.7099 41.2099 71.8199 41.1399 71.9399C40.1999 73.5699 39.3499 75.1899 38.6199 76.8099C38.5699 76.8999 38.53 76.9899 38.5 77.0799C38.38 77.3299 38.2699 77.5799 38.1699 77.8299C36.3999 81.9099 35.2999 85.9499 34.8599 89.9399C34.6999 91.2899 34.6299 92.6299 34.6299 93.9699C34.6299 94.0799 34.6299 94.18 34.6299 94.28C34.6599 98.63 35.46 102.28 37.03 105.24C37.2 105.56 37.3798 105.86 37.5698 106.14C39.1898 108.56 41.5399 109.74 44.6299 109.67C44.1099 110.1 43.58 110.49 43.03 110.84C42.48 111.19 41.9499 111.51 41.4399 111.81C36.1999 114.83 31.7401 115.3 28.0601 113.2L28.02 113.18C24.39 111.08 22.56 107.07 22.54 101.14V101.04C22.54 100.53 22.5498 100.02 22.5898 99.51C22.7498 96.12 23.5099 92.67 24.8499 89.15C25.5699 87.27 26.45 85.3799 27.5 83.4699C29.14 80.4899 30.97 77.85 33 75.53C33.08 75.44 33.15 75.35 33.23 75.27C35.25 73 37.4699 71.0599 39.8799 69.4399L35.97 62.6899L32.4399 56.5999L29.3101 51.1999L28.49 49.78C27.92 48.79 27.9599 47.4799 28.6199 45.8399C29.2799 44.2099 30.2799 43.0099 31.5999 42.2399L45.9199 33.9799C47.2399 33.2099 48.44 32.9199 49.5 33.0999C49.77 33.1399 50.02 33.21 50.26 33.3L50.78 33.5599C51.27 33.8499 51.7 34.26 52.05 34.8L54.46 38.9399L54.6299 39.2299L57.05 43.39L58.99 37.8199L62.0601 29.02C62.6901 27.33 63.5399 25.79 64.5999 24.38C65.6699 22.97 66.8599 21.89 68.1799 21.12L82.51 12.8499C83.45 12.3099 84.2198 12.1799 84.8198 12.4699L84.9199 12.51C85.1299 12.63 85.32 12.8 85.48 13.02C86.14 13.89 86.1899 15.15 85.6099 16.8L74.3101 49.37C79.2001 47.07 83.2999 47.03 86.5999 49.25C89.9099 51.47 91.5601 55.4099 91.5601 61.0899H91.5698Z" stroke="currentColor" stroke-linejoin="round"/>
    <path d="M69.3003 62.9201C68.9203 62.5901 68.5103 62.3001 68.0603 62.0401L67.3501 61.69C65.0201 60.63 62.3202 60.77 59.2502 62.08C58.5402 62.39 57.8103 62.76 57.0603 63.19C55.3103 64.2 53.6501 65.4401 52.1101 66.9201C50.9001 68.0601 49.7602 69.34 48.6902 70.77C48.0402 71.62 47.4103 72.53 46.8103 73.49C46.5603 73.9 46.3103 74.31 46.0603 74.74C45.1003 76.39 44.3001 78.03 43.6501 79.65C43.5401 79.92 43.4301 80.2 43.3301 80.47C42.7501 82.02 42.3103 83.57 42.0103 85.1C41.6903 86.74 41.5303 88.37 41.5303 89.98C41.5303 94.93 43.0403 98.27 46.0603 99.99C49.0803 101.71 52.7503 101.33 57.0603 98.83C59.6903 97.32 62.0702 95.3 64.2102 92.78C65.5902 91.16 66.8803 89.3301 68.0603 87.2901C71.0803 82.0801 72.5901 77.0001 72.5901 72.0501C72.5901 67.8301 71.5003 64.7901 69.3003 62.9201ZM65.2603 74.7L61.0303 80.6L62.6702 85.7C62.7902 86.09 62.6701 86.54 62.3301 87.03C61.9801 87.53 61.6403 87.71 61.2903 87.58L57.0603 86.36L55.6001 88.47L52.8301 92.46C52.4901 92.99 52.1403 93.21 51.8003 93.11C51.4503 93.01 51.3402 92.7001 51.4502 92.1701L52.6602 87L53.0901 85.19C53.0901 85.19 53.0102 85.17 52.9402 85.15H52.9302L51.0303 84.69L50.0603 84.45L48.8701 84.16C48.5201 84.03 48.4103 83.72 48.5203 83.22C48.5303 83.18 48.5403 83.14 48.5603 83.1C48.5703 83.08 48.5701 83.0601 48.5801 83.0401C48.6701 82.7701 48.8203 82.54 49.0303 82.34C49.1303 82.24 49.2501 82.16 49.3801 82.08L52.9502 80.02L54.5603 79.09L54.9102 77.5401L55.4202 75.24L55.6401 74.24L56.2002 71.71C56.3102 71.18 56.6003 70.78 57.0603 70.52C57.1503 70.46 57.2401 70.42 57.3201 70.4C57.6301 70.29 57.8302 70.4 57.9202 70.71L59.5603 76.2L63.1902 74.11L64.7402 73.21C65.2002 72.95 65.4901 73 65.6001 73.36C65.7201 73.72 65.6003 74.17 65.2603 74.7Z" stroke="currentColor" stroke-linejoin="round"/>
    <path d="M53.0893 85.1899C53.0893 85.1899 53.0094 85.17 52.9394 85.15H52.9294L51.0295 84.6899L50.0595 84.45L48.8693 84.16C48.5193 84.03 48.4095 83.72 48.5195 83.22C48.5295 83.18 48.5395 83.14 48.5595 83.1C48.5695 83.08 48.5693 83.06 48.5793 83.04L53.0893 85.1899Z" stroke="currentColor" stroke-linejoin="round"/>
    <path d="M57.0603 86.36L55.6001 88.47L52.8301 92.46C52.4901 92.99 52.1403 93.21 51.8003 93.11C51.4503 93.01 51.3402 92.7 51.4502 92.17L52.6602 87L53.0901 85.1899L48.5801 83.04C48.6701 82.77 48.8203 82.54 49.0303 82.34L50.8901 83.27L52.3103 83.99L57.0603 86.36Z" stroke="currentColor" stroke-linejoin="round"/>
    <path d="M59.5598 76.1999L55.8098 74.3299L55.6396 74.2399L56.1997 71.7099C56.3097 71.1799 56.5998 70.78 57.0598 70.52C57.1498 70.46 57.2396 70.42 57.3196 70.4C57.6296 70.29 57.8297 70.3999 57.9197 70.7099L59.5598 76.1999Z" stroke="currentColor" stroke-linejoin="round"/>
    <path d="M65.2603 74.6999L61.0303 80.5999L58.5503 79.36L54.9102 77.54L55.4202 75.24C55.5602 74.94 55.6903 74.6399 55.8103 74.3299L59.5603 76.1999L63.1902 74.11L64.7402 73.2099C65.2002 72.9499 65.4901 73 65.6001 73.36C65.7201 73.72 65.6003 74.1699 65.2603 74.6999Z" stroke="currentColor" stroke-linejoin="round"/>
    <path d="M62.3301 87.03C61.9801 87.53 61.6403 87.71 61.2903 87.58L57.0603 86.36L52.3103 83.99L50.8901 83.27L49.0303 82.34C49.1303 82.24 49.2501 82.16 49.3801 82.08L52.9502 80.02L54.5603 79.09L54.9102 77.54L58.5503 79.36L61.0303 80.6L62.6702 85.7C62.7902 86.09 62.6701 86.54 62.3301 87.03Z" stroke="currentColor" stroke-linejoin="round"/>
    <path d="M50.2701 33.3C50.0301 33.21 49.7801 33.14 49.5101 33.1C48.4501 32.92 47.25 33.21 45.93 33.98L31.6099 42.24C30.2899 43.01 29.29 44.21 28.63 45.84C27.97 47.48 27.9301 48.79 28.5001 49.78L29.3199 51.1999L32.45 56.6L35.98 62.6899L39.89 69.4399L35.0201 67.01L27.0999 63.04L22.0101 60.5L19.89 59.4399L8.50007 39.78C7.93007 38.79 7.96995 37.48 8.62995 35.84C9.28995 34.21 10.2899 33.01 11.6099 32.24L25.93 23.98C27.25 23.21 28.4501 22.92 29.5101 23.1C29.7701 23.14 30.0101 23.2 30.2401 23.29H30.2701L30.88 23.61L30.95 23.65L39.0501 27.6899L50.2701 33.3Z" stroke="currentColor" stroke-linejoin="round"/>
    <path d="M84.8296 12.47C84.2296 12.18 83.4598 12.31 82.5198 12.85L68.1897 21.12C66.8697 21.89 65.6796 22.97 64.6096 24.38C63.5496 25.79 62.6996 27.33 62.0696 29.02L58.9998 37.82L57.0598 43.39L54.6396 39.23L54.4697 38.94L52.0598 34.8001C51.7098 34.2601 51.2798 33.8499 50.7898 33.5599C50.6298 33.4599 50.4498 33.3701 50.2698 33.3001L39.0498 27.69L42.0696 19.02C42.6996 17.33 43.5496 15.79 44.6096 14.38C45.6796 12.97 46.8697 11.89 48.1897 11.12L62.5198 2.84999C63.4698 2.29999 64.2396 2.17998 64.8496 2.46998L64.8896 2.49L84.8296 12.47Z" stroke="currentColor" stroke-linejoin="round"/>
    <path d="M85.0398 12.5699L84.9297 12.51" stroke="currentColor" stroke-linejoin="round"/>
    <path d="M30.2397 23.29L30.1396 23.24" stroke="currentColor" stroke-linejoin="round"/>
    <path d="M44.6401 109.67C41.5501 109.74 39.2001 108.56 37.5801 106.14L44.6401 109.67Z" stroke="currentColor" stroke-linejoin="round"/>
    <path d="M79.5 68.06C79.5 72.42 78.5998 77.01 76.8198 81.83C75.0398 86.66 72.5599 91.17 69.3999 95.37L64.21 92.7801C65.59 91.1601 66.8801 89.3301 68.0601 87.2901C71.0801 82.0801 72.5898 77.0001 72.5898 72.0501C72.5898 67.8301 71.5 64.7901 69.3 62.9201C68.92 62.5901 68.5101 62.3001 68.0601 62.0401L67.3499 61.69L59.49 57.76C59.49 56.45 59.4 55.25 59.25 54.11C63.91 51.88 68 51.46 71.51 52.86C72.01 53.05 72.5 53.29 72.98 53.56C77.32 56.03 79.5 60.87 79.5 68.06Z" stroke="currentColor" stroke-linejoin="round"/>
    <path d="M67.3496 61.6899C65.0196 60.6299 62.3198 60.77 59.2498 62.08C58.5398 62.39 57.8098 62.7599 57.0598 63.1899C55.3098 64.1999 53.6496 65.44 52.1096 66.92C50.8996 68.06 49.7597 69.34 48.6897 70.77C48.0397 71.62 47.4098 72.53 46.8098 73.49C46.5598 73.9 46.3098 74.31 46.0598 74.74C45.0998 76.39 44.2997 78.03 43.6497 79.65C43.5397 79.92 43.4296 80.2 43.3296 80.47C42.7496 82.02 42.3098 83.57 42.0098 85.1C41.6898 86.74 41.5298 88.37 41.5298 89.98C41.5298 94.93 43.0398 98.27 46.0598 99.99L34.6396 94.28C34.6396 94.18 34.6396 94.08 34.6396 93.97C34.6396 92.63 34.7096 91.2899 34.8696 89.9399C35.3096 85.9499 36.4097 81.91 38.1797 77.83C38.2797 77.58 38.3898 77.33 38.5098 77.08C38.5398 76.99 38.5796 76.8999 38.6296 76.8099C39.3596 75.1899 40.2097 73.5699 41.1497 71.9399C41.2197 71.8199 41.2896 71.71 41.3596 71.59C41.4796 71.38 41.6097 71.16 41.7397 70.95C42.3097 69.99 42.9098 69.0701 43.5298 68.1801C46.1498 64.3701 49.0698 61.15 52.2998 58.55C53.4598 57.61 54.6697 56.75 55.9197 55.96L59.4998 57.75L67.3596 61.6899H67.3496Z" stroke="currentColor" stroke-linejoin="round"/>
    <path d="M39.8896 69.4399C37.4796 71.0599 35.2597 73 33.2397 75.27C33.1597 75.35 33.0898 75.44 33.0098 75.53C30.9798 77.85 29.1498 80.49 27.5098 83.47C26.4598 85.38 25.5796 87.27 24.8596 89.15C23.5196 92.67 22.7596 96.12 22.5996 99.51C22.5596 100.02 22.5498 100.53 22.5498 101.04V101.14C22.5698 107.07 24.3998 111.08 28.0298 113.18L8.84961 103.59L8.06958 103.2C4.38958 101.1 2.5498 97.04 2.5498 91.04C2.5498 85.36 4.19977 79.51 7.50977 73.47C10.8198 67.44 14.9496 62.7599 19.8896 59.4399L22.0098 60.5L27.0996 63.04L35.0198 67.01L39.8896 69.4399Z" stroke="currentColor" stroke-linejoin="round"/>
</svg>