<svg width="48" height="48" viewBox="0 0 119 96" fill="none" xmlns="http://www.w3.org/2000/svg" stroke-width="1px" stroke-linecap="round" stroke-linejoin="round"><path d="M112.55 13.504L111.86 13.164C109.25 12.004 106.14 12.4739 102.54 14.5539L95.9302 18.364L83.3801 25.614L64.8501 36.3039C64.0801 35.6539 63.2601 35.114 62.3901 34.664L62.0203 34.474C60.4003 33.714 58.6202 33.2839 56.6602 33.1939C54.3502 33.0939 51.8301 33.6239 49.1201 34.8039C48.1101 35.2339 47.0703 35.764 46.0103 36.374C39.4903 40.134 33.9303 45.984 29.3403 53.904C24.7503 61.824 22.4502 69.524 22.4502 77.004C22.4502 78.824 22.5901 80.504 22.8601 82.034C23.7101 86.794 25.8703 90.174 29.3403 92.144C33.9303 94.764 39.4903 94.1939 46.0103 90.4339C49.9303 88.1639 53.4902 85.1239 56.6602 81.3039C59.8402 77.4839 62.5701 73.304 64.8501 68.744L102.54 46.984C106.46 44.714 109.8 41.214 112.55 36.474C115.3 31.734 116.67 27.114 116.67 22.604C116.67 18.094 115.3 15.064 112.55 13.504ZM105.89 32.6839C104.99 34.2339 103.87 35.4039 102.54 36.1739L69.0903 55.484C69.2503 54.584 69.3602 53.6139 69.4402 52.5739C69.5202 51.5439 69.5603 50.6139 69.5603 49.8039C69.5603 48.9939 69.5202 48.1139 69.4402 47.1739C69.3602 46.2539 69.2601 45.444 69.1001 44.744C69.1001 44.724 69.1003 44.6939 69.0903 44.6739L83.9302 36.104C83.9302 36.104 83.9702 36.0839 83.9802 36.0739L102.54 25.364C103.87 24.594 104.99 24.464 105.89 24.974C106.8 25.494 107.25 26.514 107.25 28.044C107.25 29.574 106.8 31.1239 105.89 32.6839Z" stroke="#229EFF" stroke-linejoin="round"/><path d="M107.25 28.0438C107.25 29.5738 106.8 31.1237 105.89 32.6837C104.99 34.2337 103.87 35.4037 102.54 36.1737L69.0898 55.4838C69.2498 54.5838 69.3597 53.6137 69.4397 52.5737C69.5197 51.5437 69.5598 50.6137 69.5598 49.8037C69.5598 48.9937 69.5197 48.1137 69.4397 47.1737C69.3597 46.2537 69.2596 45.4438 69.0996 44.7438C69.0996 44.7238 69.0998 44.6937 69.0898 44.6737L83.9297 36.1037C83.9297 36.1037 83.9697 36.0837 83.9797 36.0737L102.54 25.3638C103.87 24.5938 104.99 24.4637 105.89 24.9737C106.8 25.4937 107.25 26.5138 107.25 28.0438Z" stroke="#229EFF" stroke-linejoin="round"/><path d="M62.0203 34.4739C60.4003 33.7139 58.6202 33.2839 56.6602 33.1939C54.3502 33.0939 51.8301 33.6239 49.1201 34.8039C48.1101 35.2339 47.0703 35.7639 46.0103 36.3739C39.4903 40.1339 33.9303 45.984 29.3403 53.904C24.7503 61.824 22.4502 69.5239 22.4502 77.0039C22.4502 78.8239 22.5901 80.504 22.8601 82.034C23.7101 86.794 25.8703 90.174 29.3403 92.144L10.6201 82.784L9.34033 82.144C4.75033 79.534 2.4502 74.4839 2.4502 67.0039C2.4502 59.5239 4.75033 51.824 9.34033 43.904C13.9303 35.984 19.4903 30.1339 26.0103 26.3739C29.9303 24.1139 33.4902 23.0539 36.6602 23.1939C38.7702 23.2939 40.6801 23.784 42.4001 24.664L45.2302 26.0839L55.2703 31.1039L62.0203 34.4739Z" stroke="#229EFF" stroke-linejoin="round"/><path d="M111.86 13.1639C109.25 12.0039 106.141 12.4738 102.541 14.5538L95.9304 18.3639L83.3804 25.6139L64.8503 36.3038C64.0803 35.6538 63.2604 35.1139 62.3904 34.6639L62.0205 34.4739L55.2705 31.1039L45.2305 26.0839L82.5405 4.55382C86.4605 2.28382 89.8005 1.93389 92.5505 3.50389L111.86 13.1639Z" stroke="#229EFF" stroke-linejoin="round"/></svg>