<svg width="24" height="24" viewBox="0 0 92 124" fill="none" xmlns="http://www.w3.org/2000/svg" stroke-width="1px" stroke-linecap="round" stroke-linejoin="round">
    <path d="M89.0397 38.89V77.25C89.0397 79.59 88.3096 82.02 86.8496 84.53C85.3996 87.04 83.6496 88.8801 81.6096 90.0601L29.6096 120.08C27.5696 121.26 25.8196 121.44 24.3596 120.61C22.9096 119.78 22.1797 118.19 22.1797 115.85V77.4901L69.0397 50.44L89.0397 38.89Z" stroke="currentColor" stroke-linejoin="round"/>
    <path d="M24.3596 120.61L4.35962 110.61C2.90962 109.78 2.17969 108.19 2.17969 105.85V67.4901L22.1797 77.4901V115.85C22.1797 118.19 22.9096 119.78 24.3596 120.61Z" stroke="currentColor" stroke-linejoin="round"/>
    <path d="M86.8494 12.82C85.3994 11.99 83.6494 12.1601 81.6094 13.3401L29.6094 43.3701C27.5694 44.5501 25.8194 46.3901 24.3594 48.9001C22.9594 51.3201 22.2295 53.67 22.1895 55.94C22.1895 56.02 22.1895 56.1001 22.1895 56.1801V68.9701L10.0994 62.9201L2.18945 58.9701V46.1801C2.18945 43.8401 2.91938 41.4101 4.36938 38.9001C5.82938 36.3901 7.57938 34.5501 9.61938 33.3701L61.6194 3.34005C63.6594 2.16005 65.4094 1.99003 66.8594 2.82003L86.8594 12.82H86.8494Z" stroke="currentColor" stroke-linejoin="round"/>
    <path d="M89.0397 38.89L69.0397 50.44L22.1797 77.4901L2.17969 67.4901L10.0897 62.92L22.1797 68.97L69.0397 41.92L81.1296 34.94L89.0397 38.89Z" stroke="currentColor" stroke-linejoin="round"/>
    <path d="M89.0397 17.58V30.3701L81.1296 34.94L69.0397 41.9201L22.1797 68.9701V56.1801C22.1797 56.1001 22.1797 56.02 22.1797 55.94C22.2197 53.67 22.9496 51.3201 24.3496 48.9001C25.8096 46.3901 27.5596 44.5501 29.5996 43.3701L81.5996 13.3401C83.6396 12.1601 85.3897 11.99 86.8397 12.82C88.2997 13.65 89.0297 15.24 89.0297 17.58H89.0397Z" stroke="currentColor" stroke-linejoin="round"/>
</svg>