<svg width="48" height="48" viewBox="0 0 66 117" fill="none" xmlns="http://www.w3.org/2000/svg" stroke-width="1px" stroke-linecap="round" stroke-linejoin="round"><path d="M63.5099 15.5764V34.4664C63.5099 35.9264 63.0799 37.4064 62.2099 38.8964C61.3499 40.3864 60.2799 41.5064 58.9999 42.2364C57.7199 42.9764 56.6499 43.0964 55.7899 42.6064C54.9199 42.1164 54.4899 41.1364 54.4899 39.6664V33.2064L50.5599 39.9864L31.9399 72.0864V106.236C31.9399 107.706 31.5099 109.186 30.6499 110.676C29.7799 112.166 28.7099 113.276 27.4299 114.016C26.1599 114.756 25.0899 114.876 24.2199 114.386C23.3599 113.896 22.9199 112.916 22.9199 111.446V77.4264C22.9199 76.0464 23.1499 74.6064 23.5999 73.0864C24.0499 71.5764 24.6899 70.1164 25.5199 68.6864L44.0499 36.7364L48.1799 29.6064L42.5399 32.8564C41.2599 33.5964 40.1899 33.7164 39.3299 33.2264C39.0099 33.0464 38.7499 32.7964 38.5399 32.4764C38.1999 31.9464 38.0299 31.2064 38.0299 30.2864C38.0299 28.8164 38.4599 27.3464 39.3299 25.8464C40.1899 24.3564 41.2599 23.2464 42.5399 22.5064L43.5099 21.9464L58.9999 13.0064C60.1499 12.3364 61.13 12.1764 61.95 12.5064L62.2099 12.6364C63.0799 13.1364 63.5099 14.1064 63.5099 15.5764Z" stroke="#229EFF" stroke-linejoin="round"/><path d="M48.1702 29.6163L44.0402 36.7463L25.5102 68.6963C24.6802 70.1263 24.0401 71.5863 23.5901 73.0963C23.1401 74.6163 22.9102 76.0563 22.9102 77.4363V111.456C22.9102 112.926 23.3501 113.906 24.2101 114.396L4.48016 104.526L4.21014 104.396C3.35014 103.906 2.91016 102.926 2.91016 101.456V67.4363C2.91016 66.0563 3.14015 64.6163 3.59015 63.0963C4.04015 61.5863 4.68019 60.1263 5.51019 58.6963L24.5502 25.8563L31.0602 29.1063L34.6002 30.8763L38.1501 32.6463L39.3202 33.2363C40.1802 33.7263 41.2502 33.6063 42.5302 32.8663L48.1702 29.6163Z" stroke="#229EFF" stroke-linejoin="round"/><path d="M61.9406 12.5164C61.1206 12.1864 60.1405 12.3464 58.9905 13.0164L43.5005 21.9564L42.5305 22.5164C41.2505 23.2564 40.1806 24.3664 39.3206 25.8564C38.4506 27.3564 38.0205 28.8264 38.0205 30.2964C38.0205 31.2164 38.1905 31.9564 38.5305 32.4864C38.7405 32.8064 39.0006 33.0564 39.3206 33.2364L38.1505 32.6464L34.6005 30.8764L31.0605 29.1064L24.5505 25.8564L19.5805 23.3664L19.3206 23.2364C18.4506 22.7464 18.0205 21.7664 18.0205 20.2964C18.0205 18.8264 18.4506 17.3564 19.3206 15.8564C20.1806 14.3664 21.2505 13.2564 22.5305 12.5164L38.9905 3.01636C40.2705 2.27636 41.3406 2.15637 42.2006 2.64637L61.9406 12.5164Z" stroke="#229EFF" stroke-linejoin="round"/><path d="M55.7905 42.6063L50.5605 39.9863L54.4905 33.2063V39.6663C54.4905 41.1363 54.9205 42.1163 55.7905 42.6063Z" stroke="#229EFF" stroke-linejoin="round"/></svg>