<svg width="48" height="48" viewBox="0 0 107 105" fill="none" xmlns="http://www.w3.org/2000/svg" stroke-width="1px" stroke-linecap="round" stroke-linejoin="round"><path d="M99.8704 23.4093C99.1904 23.1393 98.3702 23.2693 97.4202 23.8193L88.7202 28.8393L84.4202 31.3193L71.2002 38.9593V32.5093L81.7302 26.4293L89.9302 21.6993C90.7902 21.1993 91.5502 20.4893 92.1802 19.5693L99.8704 23.4093Z" stroke="#229EFF" stroke-linejoin="round"/><path d="M104.92 38.8396C104.92 40.0596 104.56 41.2896 103.84 42.5296C103.12 43.7696 102.23 44.6896 101.17 45.2996L89.22 52.1996L71.2 62.6096V69.0596L93.6799 56.0796C94.6299 55.5296 95.4499 55.3896 96.1299 55.6596L96.3501 55.7696C97.0601 56.1796 97.4199 56.9996 97.4199 58.2096C97.4199 59.4196 97.0601 60.6596 96.3501 61.8996C95.6301 63.1396 94.7399 64.0596 93.6799 64.6796L64.1699 81.7096L64.74 82.6696C65.8 84.5696 66.13 86.9796 65.72 89.8996C65.31 92.8196 64.2701 95.7296 62.5801 98.6396C61.8301 99.8596 60.96 100.76 59.96 101.34C58.96 101.92 58.1199 102.01 57.4299 101.62L41.6001 92.5896L40.5701 93.1896L26.24 101.46C25.18 102.07 24.2901 102.17 23.5701 101.77C22.8501 101.36 22.5 100.54 22.5 99.3196V64.9296C22.5 63.7096 22.8501 62.4896 23.5701 61.2496C24.2901 60.0096 25.18 59.0796 26.24 58.4696L39.73 50.6796L43.8501 43.4696C44.9101 41.6396 46.13 39.9996 47.5 38.5596C48.88 37.1296 50.3101 35.9796 51.8101 35.1096L80.6699 18.4496L84.97 15.9596L89.9299 13.0996C90.8799 12.5496 91.6999 12.4196 92.3799 12.6896L92.6001 12.7996C93.3201 13.2096 93.6799 14.0196 93.6799 15.2396C93.6799 16.4596 93.3201 17.6796 92.6001 18.9196C92.4701 19.1496 92.3299 19.3696 92.1799 19.5696C91.5499 20.4896 90.7899 21.1996 89.9299 21.6996L81.73 26.4296L71.2 32.5096V38.9596L84.4199 31.3196L88.72 28.8396L97.4199 23.8196C98.3699 23.2696 99.1901 23.1396 99.8701 23.4096L100.09 23.5196C100.81 23.9296 101.17 24.7396 101.17 25.9596C101.17 27.1796 100.81 28.3996 100.09 29.6396C99.3701 30.8796 98.4799 31.8096 97.4199 32.4196L96.71 32.8296L74.24 45.8096L71.2 47.5596V54.0096L76.9199 50.7096L81.24 48.2096L101.17 36.7096C102.12 36.1496 102.94 36.0196 103.62 36.2896L103.84 36.3996C104.56 36.8096 104.92 37.6196 104.92 38.8396Z" stroke="#229EFF" stroke-linejoin="round"/><path d="M39.73 50.6797L26.24 58.4697C25.18 59.0797 24.2901 60.0097 23.5701 61.2497C22.8501 62.4897 22.5 63.7097 22.5 64.9297V99.3197C22.5 100.54 22.8501 101.36 23.5701 101.77L3.79004 91.8797L3.57007 91.7697C2.85007 91.3597 2.5 90.5397 2.5 89.3197V54.9297C2.5 53.7097 2.85007 52.4897 3.57007 51.2497C4.29007 50.0097 5.17999 49.0797 6.23999 48.4697L19.73 40.6797L39.73 50.6797Z" stroke="#229EFF" stroke-linejoin="round"/><path d="M92.3804 12.6899C91.7004 12.4199 90.8804 12.5499 89.9304 13.0999L84.9705 15.9599L80.6704 18.4499L51.8105 35.1099C50.3105 35.9799 48.8805 37.1299 47.5005 38.5599C46.1305 39.9999 44.9106 41.6399 43.8506 43.4699L39.7305 50.6799L19.7305 40.6799L23.8506 33.4699C24.9106 31.6399 26.1305 29.9999 27.5005 28.5599C28.8805 27.1299 30.3105 25.9799 31.8105 25.1099L69.9304 3.09994C70.9904 2.48994 71.8806 2.38994 72.6006 2.79994L92.3804 12.6899Z" stroke="#229EFF" stroke-linejoin="round"/><path d="M103.62 36.2901C102.94 36.0201 102.12 36.1501 101.17 36.7101L81.2402 48.2101L76.9202 50.7101L71.2002 54.0101V47.5601L74.2402 45.8101L96.7102 32.8301L103.62 36.2901Z" stroke="#229EFF" stroke-linejoin="round"/><path d="M96.1301 55.6602C95.4501 55.3902 94.6302 55.5302 93.6802 56.0802L71.2002 69.0602V62.6102L89.2202 52.2002L96.1301 55.6602Z" stroke="#229EFF" stroke-linejoin="round"/><path d="M57.4302 101.619L40.5703 93.1895" stroke="#229EFF" stroke-linejoin="round"/></svg>