<svg xmlns="http://www.w3.org/2000/svg" viewBox="0 0 512 512"><!--! Font Awesome Pro 6.7.2 by @fontawesome - https://fontawesome.com License - https://fontawesome.com/license (Commercial License) Copyright 2024 Fonticons, Inc. --><defs><style>.fa-secondary{opacity:.4}</style></defs><path class="fa-secondary" d="M32 256c0 123.7 100.3 224 224 224c56.1 0 107.4-20.6 146.7-54.7l-316-316C52.6 148.6 32 199.9 32 256zM109.3 86.7L176 153.4l0-9.4 0-16 16 0 96 0c53 0 96 43 96 96c0 37.2-21.1 69.4-52 85.4l93.3 93.3C459.4 363.4 480 312.1 480 256C480 132.3 379.7 32 256 32c-56.1 0-107.4 20.6-146.7 54.7zM176 257.9L238.1 320 208 320l0 48 0 16-32 0 0-16 0-64 0-46.1zM208 160l0 25.4L307.6 285c25.8-8.3 44.4-32.4 44.4-61c0-35.3-28.7-64-64-64l-80 0z"/><path class="fa-primary" d="M256 480C132.3 480 32 379.7 32 256c0-56.1 20.6-107.4 54.7-146.7l316 316C363.4 459.4 312.1 480 256 480zm76-170.6c30.9-16 52-48.2 52-85.4c0-53-43-96-96-96l-96 0-16 0 0 16 0 9.4L109.3 86.7C148.6 52.6 199.9 32 256 32c123.7 0 224 100.3 224 224c0 56.1-20.6 107.4-54.7 146.7L332 309.4zM307.6 285L208 185.4l0-25.4 80 0c35.3 0 64 28.7 64 64c0 28.5-18.7 52.7-44.4 61zM256 512A256 256 0 1 0 256 0a256 256 0 1 0 0 512zM176 257.9l0 46.1 0 64 0 16 32 0 0-16 0-48 30.1 0L176 257.9z"/></svg>