<svg xmlns="http://www.w3.org/2000/svg" viewBox="0 0 512 512"><!--! Font Awesome Pro 6.7.2 by @fontawesome - https://fontawesome.com License - https://fontawesome.com/license (Commercial License) Copyright 2024 Fonticons, Inc. --><defs><style>.fa-secondary{opacity:.4}</style></defs><path class="fa-secondary" d=""/><path class="fa-primary" d="M192 32c-8.8 0-16 7.2-16 16s7.2 16 16 16c141.4 0 256 114.6 256 256c0 8.8 7.2 16 16 16s16-7.2 16-16C480 160.9 351.1 32 192 32zm0 96c-8.8 0-16 7.2-16 16s7.2 16 16 16c88.4 0 160 71.6 160 160c0 8.8 7.2 16 16 16s16-7.2 16-16c0-106-86-192-192-192zM32 120l0-16L0 104l0 16L0 368c0 79.5 64.5 144 144 144l16 0 0-.9c72-8 128-69 128-143.1l0-16-.9 0c-8-72-69-128-143.1-128l-8 0-16 0 0 32 16 0 8 0c61.9 0 112 50.1 112 112s-50.1 112-112 112S32 429.9 32 368l0-248z"/></svg>