<svg xmlns="http://www.w3.org/2000/svg" viewBox="0 0 448 512"><!--! Font Awesome Pro 6.7.2 by @fontawesome - https://fontawesome.com License - https://fontawesome.com/license (Commercial License) Copyright 2024 Fonticons, Inc. --><defs><style>.fa-secondary{opacity:.4}</style></defs><path class="fa-secondary" d="M32 64l384 0 0 72-24 0 0 48 24 0 0 48-24 0 0 48 24 0 0 48-24 0 0 48 24 0 0 48-24 0 0 24-48 0 0-24-48 0 0 24-48 0 0-24-48 0 0 24-48 0 0-24-48 0 0 24-48 0 0-24-24 0 0-48 24 0 0-48-24 0 0-48 24 0 0-48-24 0 0-48 24 0 0-48-24 0 0-72zm72 168l0 48 48 0 0-48-48 0zm96-96l0 48 48 0 0-48-48 0zm0 96l0 48 48 0 0-48-48 0zm0 96l0 48 48 0 0-48-48 0zm96-96l0 48 48 0 0-48-48 0z"/><path class="fa-primary" d="M0 32l448 0 0 32L0 64 0 32zM8 136l48 0 0 48L8 184l0-48zm432 0l0 48-48 0 0-48 48 0zm-240 0l48 0 0 48-48 0 0-48zM56 328l0 48L8 376l0-48 48 0zm336 0l48 0 0 48-48 0 0-48zm-144 0l0 48-48 0 0-48 48 0zM8 232l48 0 0 48L8 280l0-48zm432 0l0 48-48 0 0-48 48 0zm-240 0l48 0 0 48-48 0 0-48zM56 424l0 48L8 472l0-48 48 0zm336 0l48 0 0 48-48 0 0-48zm-144 0l0 48-48 0 0-48 48 0zM104 232l48 0 0 48-48 0 0-48zm48 192l0 48-48 0 0-48 48 0zm144 0l48 0 0 48-48 0 0-48zm48-192l0 48-48 0 0-48 48 0z"/></svg>