<svg xmlns="http://www.w3.org/2000/svg" viewBox="0 0 448 512"><!--! Font Awesome Pro 6.7.2 by @fontawesome - https://fontawesome.com License - https://fontawesome.com/license (Commercial License) Copyright 2024 Fonticons, Inc. --><defs><style>.fa-secondary{opacity:.4}</style></defs><path class="fa-secondary" d="M32 192l0 256 384 0 0-256-176 0-32 0L32 192zm10.1-32L208 160l0-96L84.8 64 42.1 160zM240 64l0 96 165.9 0L363.2 64 240 64z"/><path class="fa-primary" d="M84.8 64L208 64l0 96L42.1 160 84.8 64zM240 192l176 0 0 256L32 448l0-256 176 0 32 0zm165.9-32L240 160l0-96 123.2 0 42.7 96zM384 32L64 32 0 176 0 448l0 32 32 0 384 0 32 0 0-32 0-272L384 32z"/></svg>