<svg xmlns="http://www.w3.org/2000/svg" viewBox="0 0 448 512"><!--! Font Awesome Pro 6.7.2 by @fontawesome - https://fontawesome.com License - https://fontawesome.com/license (Commercial License) Copyright 2024 Fonticons, Inc. --><defs><style>.fa-secondary{opacity:.4}</style></defs><path class="fa-secondary" d="M32 91.5L32 96l384 0 0-4.6C403.1 72.8 355.4 32 224 32C159.5 32 113.1 43.5 81.6 57.2C53.4 69.5 38.2 83.2 32 91.5zM32 288l0 128 271.2 0L416 416l0-128L32 288zm88 64a24 24 0 1 1 -48 0 24 24 0 1 1 48 0zm256 0a24 24 0 1 1 -48 0 24 24 0 1 1 48 0z"/><path class="fa-primary" d="M32 96l0-4.5c6.2-8.3 21.4-22 49.6-34.3C113.1 43.5 159.5 32 224 32c131.4 0 179.1 40.8 192 59.4l0 4.6L32 96zm0 32l384 0 0 128L32 256l0-128zM416 288l0 128-112.8 0L32 416l0-128 384 0zM224 0C155.8 0 104.8 12.1 68.8 27.9C33.3 43.4 11 63 2 79L0 82.6l0 4.2L0 432l0 16 16 0 16 0 0 48 0 16 32 0 0-16 0-48 239.2 0 80.8 0 0 48 0 16 32 0 0-16 0-48 16 0 16 0 0-16 0-345.2 0-4.2L446 79C428.8 48.3 369.6 0 224 0zM96 376a24 24 0 1 0 0-48 24 24 0 1 0 0 48zm280-24a24 24 0 1 0 -48 0 24 24 0 1 0 48 0z"/></svg>