<svg xmlns="http://www.w3.org/2000/svg" viewBox="0 0 512 512"><!--! Font Awesome Pro 6.7.2 by @fontawesome - https://fontawesome.com License - https://fontawesome.com/license (Commercial License) Copyright 2024 Fonticons, Inc. --><defs><style>.fa-secondary{opacity:.4}</style></defs><path class="fa-secondary" d="M32 200.4L32 224l32 0 96 0 32 0 128 0 32 0 96 0 32 0 0-23.6L256 39.4 32 200.4zM64 256l0 32 96 0 0-32-96 0zm0 64l0 32 96 0 0-32-96 0zm0 64l0 32 96 0 0-32-96 0zm0 64l0 32 96 0 0-32-96 0zM304 144a48 48 0 1 1 -96 0 48 48 0 1 1 96 0zm48 112l0 32 96 0 0-32-96 0zm0 64l0 32 96 0 0-32-96 0zm0 64l0 32 96 0 0-32-96 0zm0 64l0 32 96 0 0-32-96 0zM384 64l0 28 64 46 0-74-64 0z"/><path class="fa-primary" d="M32 224l32 0 96 0 32 0 128 0 32 0 96 0 32 0 0-23.6L256 39.4 32 200.4 32 224zm0 32L0 256l0-32 0-40L256 0l96 69 0-21 0-16 16 0 96 0 16 0 0 16 0 112-1.4 0L512 184l0 40 0 32-32 0 0 32 0 32 0 32 0 32 0 32 0 32 0 32 0 32-32 0-96 0-32 0 0-32 0-32 0-32 0-32 0-32 0-32 0-32 0-32-128 0 0 32 0 32 0 32 0 32 0 32 0 32 0 32 0 32-32 0-96 0-32 0 0-32 0-32 0-32 0-32 0-32 0-32 0-32 0-32zm128 0l-96 0 0 32 96 0 0-32zm192 0l0 32 96 0 0-32-96 0zm96-118l0-74-64 0 0 28 64 46zM256 128a16 16 0 1 0 0 32 16 16 0 1 0 0-32zm48 16a48 48 0 1 1 -96 0 48 48 0 1 1 96 0zM160 320l-96 0 0 32 96 0 0-32zm0 64l-96 0 0 32 96 0 0-32zM64 480l96 0 0-32-96 0 0 32zM448 320l-96 0 0 32 96 0 0-32zm0 64l-96 0 0 32 96 0 0-32zm-96 96l96 0 0-32-96 0 0 32z"/></svg>