<svg xmlns="http://www.w3.org/2000/svg" viewBox="0 0 512 512"><!--! Font Awesome Pro 6.7.2 by @fontawesome - https://fontawesome.com License - https://fontawesome.com/license (Commercial License) Copyright 2024 Fonticons, Inc. --><defs><style>.fa-secondary{opacity:.4}</style></defs><path class="fa-secondary" d="M32 224l0 160 448 0 0-160-96 0 0-32-37.8 0-28.4 27.5-82.7 80-11.5 11.1-22.3-23 11.5-11.1L267.1 224 208 224l-38.6 0 27.3-27.3 4.7-4.7L128 192l0 32-96 0zm96 72a24 24 0 1 1 -48 0 24 24 0 1 1 48 0zm304 0a24 24 0 1 1 -48 0 24 24 0 1 1 48 0z"/><path class="fa-primary" d="M112 32l-11.9 0L96.7 43.4 52.1 192 32 192 0 192l0 32L0 384l0 16 0 16 0 64 32 0 0-64 448 0 0 64 32 0 0-64 0-16 0-16 0-160 0-32-32 0-20.1 0L415.3 43.4 411.9 32 400 32 112 32zM384 192l0 32 96 0 0 160L32 384l0-160 96 0 0-32-42.5 0L123.9 64l264.2 0 38.4 128L384 192zM104 320a24 24 0 1 0 0-48 24 24 0 1 0 0 48zm328-24a24 24 0 1 0 -48 0 24 24 0 1 0 48 0zM299.3 139.3L310.6 128 288 105.4l-11.3 11.3-80 80L169.4 224l38.6 0 59.1 0-54.3 52.5-11.5 11.1 22.3 23 11.5-11.1 82.7-80L346.2 192l-39.5 0-60 0 52.7-52.7z"/></svg>