<svg xmlns="http://www.w3.org/2000/svg" viewBox="0 0 512 512"><!--! Font Awesome Pro 6.7.2 by @fontawesome - https://fontawesome.com License - https://fontawesome.com/license (Commercial License) Copyright 2024 Fonticons, Inc. --><defs><style>.fa-secondary{opacity:.4}</style></defs><path class="fa-secondary" d="M32 256a224 224 0 1 0 448 0A224 224 0 1 0 32 256zm94 112L241.5 121.2l4.3-9.2 20.4 0 4.3 9.2L386 368l-35.3 0-30-64-129.5 0-30 64L126 368zm80.3-96l99.5 0L256 165.7 206.2 272z"/><path class="fa-primary" d="M256 32a224 224 0 1 1 0 448 224 224 0 1 1 0-448zm0 480A256 256 0 1 0 256 0a256 256 0 1 0 0 512zM245.8 112l-4.3 9.2L126 368l35.3 0 30-64 129.5 0 30 64 35.3 0L270.5 121.2l-4.3-9.2-20.4 0zM256 165.7L305.8 272l-99.5 0L256 165.7z"/></svg>