<svg xmlns="http://www.w3.org/2000/svg" viewBox="0 0 512 512"><!--! Font Awesome Pro 6.7.2 by @fontawesome - https://fontawesome.com License - https://fontawesome.com/license (Commercial License) Copyright 2024 Fonticons, Inc. --><defs><style>.fa-secondary{opacity:.4}</style></defs><path class="fa-secondary" d="M32 256a224 224 0 1 0 448 0A224 224 0 1 0 32 256zm137.4-80l23.4-23.4c15.7-15.7 37.1-24.6 59.3-24.6l4.9 0c43.6 0 79 35.4 79 79l-1.6 16c-2.9 14.2-9.8 27.4-19.8 38.2L229 352l123 0 0 32-176 0 0-22.3L291.2 239.2C299.4 230.5 304 219 304 207c0-26-21-47-47-47l-4.9 0c-13.8 0-27 5.5-36.7 15.2L192 198.6 169.4 176z"/><path class="fa-primary" d="M256 32a224 224 0 1 1 0 448 224 224 0 1 1 0-448zm0 480A256 256 0 1 0 256 0a256 256 0 1 0 0 512zm-3.9-352l4.9 0c26 0 47 21 47 47c0 12-4.6 23.5-12.8 32.2L176 361.7l0 22.3 176 0 0-32-123 0 85.5-90.8c10.1-10.7 16.9-23.9 19.8-38.2l1.6-16c0-43.6-35.4-79-79-79l-4.9 0c-22.2 0-43.6 8.8-59.3 24.6L169.4 176 192 198.6l23.4-23.4c9.7-9.7 22.9-15.2 36.7-15.2z"/></svg>