<svg xmlns="http://www.w3.org/2000/svg" viewBox="0 0 512 512"><!--! Font Awesome Pro 6.7.2 by @fontawesome - https://fontawesome.com License - https://fontawesome.com/license (Commercial License) Copyright 2024 Fonticons, Inc. --><defs><style>.fa-secondary{opacity:.4}</style></defs><path class="fa-secondary" d="M32 256a224 224 0 1 0 448 0A224 224 0 1 0 32 256zm80-125.3l13.1-2.4 88-16 12.9-2.3 4.9 12.1 32 80 3.9 9.8-7.5 7.5L240.6 238c9.1 13 20.4 24.3 33.4 33.4l18.7-18.7 7.5-7.5 9.8 3.9 80 32 12.1 4.9-2.3 12.9-16 88L381.3 400 368 400l-16 0c-132.5 0-240-107.4-240-240l0-16 0-13.4z"/><path class="fa-primary" d="M256 32a224 224 0 1 1 0 448 224 224 0 1 1 0-448zm0 480A256 256 0 1 0 256 0a256 256 0 1 0 0 512zM230.8 122.1L226 109.9l-12.9 2.3-88 16L112 130.7l0 13.4 0 16c0 132.5 107.5 240 240 240l16 0 13.4 0 2.4-13.1 16-88 2.3-12.9-12.1-4.9-80-32-9.8-3.9-7.5 7.5L274 271.4c-13-9.1-24.3-20.4-33.4-33.4l18.7-18.7 7.5-7.5-3.9-9.8-32-80zM144 160l0-2.6 62-11.3 23.2 58.1-20.3 20.3-8.7 8.7 6.1 10.6c14.8 25.7 36.2 47.1 61.9 61.9l10.6 6.1 8.7-8.7 20.3-20.3L365.9 306l-11.3 62-2.6 0c-114.9 0-208-93.1-208-208z"/></svg>