<svg xmlns="http://www.w3.org/2000/svg" viewBox="0 0 512 512"><!--! Font Awesome Pro 6.7.2 by @fontawesome - https://fontawesome.com License - https://fontawesome.com/license (Commercial License) Copyright 2024 Fonticons, Inc. --><defs><style>.fa-secondary{opacity:.4}</style></defs><path class="fa-secondary" d="M32 240c0 39.9 17.1 77.6 47.6 108.2l14.5 14.6L86.9 382 68.6 430.8l88.5-26.6 9.3-2.8 9.2 2.8c24.9 7.6 51.9 11.7 80.3 11.7c130.2 0 224-84.7 224-176s-93.8-176-224-176S32 148.7 32 240zm136-72c0-30.9 25.1-56 56-56l56 0c35.5 0 64 29 64 64.3c0 24-13.4 46.2-34.9 57.2L272 252.3l0 3.7 0 16-32 0 0-16 0-13.5 0-9.8 8.7-4.5 45.8-23.4c10.7-5.4 17.5-16.6 17.5-28.7c0-17.8-14.4-32.3-32-32.3l-56 0c-13.3 0-24 10.7-24 24l0 8-32 0 0-8zm64 136l48 0 0 48-48 0 0-48z"/><path class="fa-primary" d="M86.9 382l7.2-19.3L79.6 348.2C49.1 317.6 32 279.9 32 240c0-91.3 93.8-176 224-176s224 84.7 224 176s-93.8 176-224 176c-28.4 0-55.5-4.2-80.3-11.7l-9.2-2.8-9.3 2.8L68.6 430.8 86.9 382zM16 480l38.5-11.6 111.9-33.6c27.9 8.5 58.1 13.1 89.6 13.1c141.4 0 256-93.1 256-208S397.4 32 256 32S0 125.1 0 240c0 49.6 21.3 95.1 56.9 130.8L30.1 442.4 16 480zM168 168l0 8 32 0 0-8c0-13.3 10.7-24 24-24l56 0c17.6 0 32 14.5 32 32.3c0 12.1-6.8 23.2-17.5 28.7l-45.8 23.4-8.7 4.5 0 9.8 0 13.5 0 16 32 0 0-16 0-3.7 37.1-18.9c21.5-11 34.9-33.2 34.9-57.2c0-35.2-28.5-64.3-64-64.3l-56 0c-30.9 0-56 25.1-56 56zm64 136l0 48 48 0 0-48-48 0z"/></svg>