<svg xmlns="http://www.w3.org/2000/svg" viewBox="0 0 512 512"><!--! Font Awesome Pro 6.7.2 by @fontawesome - https://fontawesome.com License - https://fontawesome.com/license (Commercial License) Copyright 2024 Fonticons, Inc. --><defs><style>.fa-secondary{opacity:.4}</style></defs><path class="fa-secondary" d="M45.6 314.2L240 460l0-388.8L45.6 314.2zM272 71.2L272 460 466.4 314.2 272 71.2z"/><path class="fa-primary" d="M235.5 25.6L20 295 0 320l25.6 19.2L240 500l16 12 16-12L486.4 339.2 512 320l-20-25L276.5 25.6 272 20 256 0 240 20l-4.5 5.6zM240 71.2L240 460 45.6 314.2 240 71.2zM272 460l0-388.8 194.4 243L272 460z"/></svg>