<svg xmlns="http://www.w3.org/2000/svg" viewBox="0 0 512 512"><!--! Font Awesome Pro 6.7.2 by @fontawesome - https://fontawesome.com License - https://fontawesome.com/license (Commercial License) Copyright 2024 Fonticons, Inc. --><defs><style>.fa-secondary{opacity:.4}</style></defs><path class="fa-secondary" d="M32 335.5c-.6-39.7 11.2-66.9 29.4-88.5c19.2-22.6 46.8-40.5 80.9-58.3c11.9-6.2 25.5-12.8 39.5-19.7c22.9-11.1 47.2-23 68.4-35.1c6-3.5 12-7.1 18-10.8c14.2 4.7 28.4 9.5 42.5 14.2l16 48 48 16 16.5 49.5c7.9 2 15.8 3.9 23.7 5.9c-16.2 37.4-36.9 75.6-61.6 109.8C303.6 434.9 243.1 480.1 176.4 480C98 479.9 33.1 413.9 32 335.5zM313 64l133.1 0 1.9 0 0 1.9L448 199l-7.2-1.8-10.4-31.3-5.1-15.2-15.2-5.1-32.8-10.9-10.9-32.8-5.1-15.2-15.2-5.1L314.8 71.2 313 64z"/><path class="fa-primary" d="M488.7 57.2L480 65.9 480 207l0 33-32-8-32-8-16-48-48-16-16-48L288 96l-8-32-8-32 33 0 141.1 0 8.7-8.7L477.4 .6l11.3 11.3 11.3 11.3 11.3 11.3L488.7 57.2zM448 65.9l0-1.9-1.9 0L313 64l1.8 7.2 31.3 10.4 15.2 5.1 5.1 15.2 10.9 32.8 32.8 10.9 15.2 5.1 5.1 15.2 10.4 31.3L448 199l0-133.1zM169.9 139.3c29.1-14.1 58.4-28.3 84.6-45.4l2.5 9.9 4.3 17 6.9 2.3c-5.9 3.8-11.9 7.4-18 10.8c-21.2 12.2-45.5 24-68.4 35.1c0 0 0 0 0 0s0 0 0 0s0 0 0 0s0 0 0 0c-14.1 6.8-27.6 13.4-39.5 19.7c-34 17.8-61.7 35.7-80.9 58.3c-18.2 21.5-30 48.8-29.4 88.5C33.1 413.9 98 479.9 176.4 480c66.7 .1 127.2-45.1 176.8-113.6c24.7-34.1 45.4-72.3 61.6-109.8l31.4 7.9C395.9 383.7 301.3 512.1 176.4 512C79.9 511.9 1.4 431.3 0 336C-1.6 222.5 83.4 181.3 169.9 139.3c0 0 0 0 0 0z"/></svg>