<svg xmlns="http://www.w3.org/2000/svg" viewBox="0 0 512 512"><!--! Font Awesome Pro 6.7.2 by @fontawesome - https://fontawesome.com License - https://fontawesome.com/license (Commercial License) Copyright 2024 Fonticons, Inc. --><defs><style>.fa-secondary{opacity:.4}</style></defs><path class="fa-secondary" d="M32 256a224 224 0 1 0 448 0A224 224 0 1 0 32 256zm97.7-71.2C142.3 159.7 184.4 112 256 112s113.7 47.7 126.3 72.8l-28.6 14.3C344.9 181.7 312.4 144 256 144s-88.9 37.7-97.7 55.2l-28.6-14.3zM200.4 304a24 24 0 1 1 -48 0 24 24 0 1 1 48 0zm160 0a24 24 0 1 1 -48 0 24 24 0 1 1 48 0z"/><path class="fa-primary" d="M32 256a224 224 0 1 1 448 0A224 224 0 1 1 32 256zm480 0A256 256 0 1 0 0 256a256 256 0 1 0 512 0zM129.7 184.8l28.6 14.3c8.7-17.5 41.3-55.2 97.7-55.2s88.9 37.7 97.7 55.2l28.6-14.3C369.7 159.7 327.6 112 256 112s-113.7 47.7-126.3 72.8zM200.4 304a24 24 0 1 0 -48 0 24 24 0 1 0 48 0zm136-24a24 24 0 1 0 0 48 24 24 0 1 0 0-48z"/></svg>