<svg xmlns="http://www.w3.org/2000/svg" viewBox="0 0 384 512"><!--! Font Awesome Pro 6.7.2 by @fontawesome - https://fontawesome.com License - https://fontawesome.com/license (Commercial License) Copyright 2024 Fonticons, Inc. --><defs><style>.fa-secondary{opacity:.4}</style></defs><path class="fa-secondary" d="M32 32l0 448 320 0 0-288-144 0-16 0 0-16 0-144L32 32zM80 224l64 0 0 32 96 0 0-32 64 0 0 64-32 0 0 96 32 0 0 64-64 0 0-32-96 0 0 32-64 0 0-64 32 0 0-96-32 0 0-64zm64 64l0 96 96 0 0-96-96 0z"/><path class="fa-primary" d="M352 480L32 480 32 32l160 0 0 144 0 16 16 0 144 0 0 288zM224 37.3L346.7 160 224 160l0-122.7zM232 0L32 0 0 0 0 32 0 480l0 32 32 0 320 0 32 0 0-32 0-328L232 0zm8 256l-96 0 0-32-64 0 0 64 32 0 0 96-32 0 0 64 64 0 0-32 96 0 0 32 64 0 0-64-32 0 0-96 32 0 0-64-64 0 0 32zm0 128l-96 0 0-96 96 0 0 96z"/></svg>