<svg xmlns="http://www.w3.org/2000/svg" viewBox="0 0 384 512"><!--! Font Awesome Pro 6.7.2 by @fontawesome - https://fontawesome.com License - https://fontawesome.com/license (Commercial License) Copyright 2024 Fonticons, Inc. --><defs><style>.fa-secondary{opacity:.4}</style></defs><path class="fa-secondary" d="M32 272l0 96 32 0 0-96-32 0zm64-64l0 48 0 128 0 96 192 0 0-96 0-128 0-48L96 208zm1.3-64l189.3 0c-7.6-45.4-47.1-80-94.7-80s-87.1 34.6-94.7 80zM256 320a64 64 0 1 1 -128 0 64 64 0 1 1 128 0zm-96 0a32 32 0 1 0 64 0 32 32 0 1 0 -64 0zm160-48l0 96 32 0 0-96-32 0z"/><path class="fa-primary" d="M208 0l0 16 0 17c57.9 7.2 103.8 53.1 111 111l17 0 16 0 0 32-16 0-32 0L80 176l-32 0-16 0 0-32 16 0 17 0C72.2 86.1 118.1 40.2 176 33l0-17 0-16 32 0zM192 64c-47.6 0-87.1 34.6-94.7 80l189.3 0c-7.6-45.4-47.1-80-94.7-80zM32 480l16 0 16 0 0-80-48 0L0 400l0-16L0 256l0-16 16 0 48 0 0-32 32 0 0 48 0 128 0 96 192 0 0-96 0-128 0-48 32 0 0 32 48 0 16 0 0 16 0 128 0 16-16 0-48 0 0 80 16 0 16 0 0 32-16 0-32 0L80 512l-32 0-16 0 0-32zM64 368l0-96-32 0 0 96 32 0zm160-48a32 32 0 1 0 -64 0 32 32 0 1 0 64 0zm128 48l0-96-32 0 0 96 32 0zM128 320a64 64 0 1 1 128 0 64 64 0 1 1 -128 0z"/></svg>