<svg xmlns="http://www.w3.org/2000/svg" viewBox="0 0 576 512"><!--! Font Awesome Pro 6.7.2 by @fontawesome - https://fontawesome.com License - https://fontawesome.com/license (Commercial License) Copyright 2024 Fonticons, Inc. --><defs><style>.fa-secondary{opacity:.4}</style></defs><path class="fa-secondary" d="M38.1 138.5L76.2 240 96 240l0-88.2c0 8.5 0 16.9 0 25.4L38.1 138.5zm0 234.9L96 334.9l0 24.7c0-29.2 0-58.4 0-87.6l-19.8 0-38 101.5zM448 160.2l0 79.8 0 32 0 79.8L533.2 256 448 160.2z"/><path class="fa-primary" d="M76.2 240l-38-101.5L96 177.1l0-38.5L32 96 0 128 48 256 0 384l32 32 64-42.7 0-38.5L38.1 373.5 76.2 272l67.8 0 0 80 0 16 32 0 0-16 0-80 64 0 0 80 0 16 32 0 0-16 0-80 64 0 0 80 0 16 32 0 0-16 0-80 48 0 0 96 0 32 32 0L576 256 448 112l-32 0 0 32 0 96-48 0 0-80 0-16-32 0 0 16 0 80-64 0 0-80 0-16-32 0 0 16 0 80-64 0 0-80 0-16-32 0 0 16 0 80-67.8 0zM448 351.8l0-79.8 0-32 0-79.8L533.2 256 448 351.8z"/></svg>