<svg xmlns="http://www.w3.org/2000/svg" viewBox="0 0 576 512"><!--! Font Awesome Pro 6.7.2 by @fontawesome - https://fontawesome.com License - https://fontawesome.com/license (Commercial License) Copyright 2024 Fonticons, Inc. --><defs><style>.fa-secondary{opacity:.4}</style></defs><path class="fa-secondary" d="M128 64l0 288 416 0 0-224-176 0-13.3 0-9.4-9.4L290.7 64 128 64z"/><path class="fa-primary" d="M304 32L128 32 96 32l0 32 0 288 0 32 32 0 416 0 32 0 0-32 0-224 0-32-32 0L368 96 304 32zm64 96l176 0 0 224-416 0 0-288 162.7 0 54.6 54.6 9.4 9.4 13.3 0zM32 112l0-16L0 96l0 16L0 464l0 16 16 0 448 0 16 0 0-32-16 0L32 448l0-336z"/></svg>