<svg xmlns="http://www.w3.org/2000/svg" viewBox="0 0 640 512"><!--! Font Awesome Pro 6.7.2 by @fontawesome - https://fontawesome.com License - https://fontawesome.com/license (Commercial License) Copyright 2024 Fonticons, Inc. --><defs><style>.fa-secondary{opacity:.4}</style></defs><path class="fa-secondary" d="M32 96l0 32 0 64 32 0 128 0 0-64 0-32-64 0L96 96 32 96zM64 224l0 256 96 0 0-256-96 0zm128 0l0 256 48 0 0-80c0-44.2 35.8-80 80-80s80 35.8 80 80l0 80 48 0 0-256-32 0-192 0-32 0zM448 96l0 32 0 64 128 0 32 0 0-64 0-32-64 0-32 0-64 0zm32 128l0 256 96 0 0-256-96 0z"/><path class="fa-primary" d="M128 96l64 0 0 32 0 64L64 192l-32 0 0-64 0-32 64 0 32 0zM0 224l32 0 0 256 0 32 32 0 176 0 32 0 96 0 32 0 176 0 32 0 0-32 0-256 32 0 0-32 0-64 0-32 0-32 0-32 0-32L608 0l0 32 0 32-32 0-32 0 0-32 0-32L512 0l0 32 0 32-32 0-32 0 0-32 0-32L416 0l0 32 0 32 0 32 0 32 0 64-192 0 0-64 0-32 0-32 0-32 0-32L192 0l0 32 0 32-32 0-32 0 0-32 0-32L96 0l0 32 0 32L64 64 32 64l0-32L32 0 0 0 0 32 0 64 0 96l0 32 0 64 0 32zM480 480l0-256 96 0 0 256-96 0zm-32 0l-48 0 0-80c0-44.2-35.8-80-80-80s-80 35.8-80 80l0 80-48 0 0-256 32 0 192 0 32 0 0 256zM64 224l96 0 0 256-96 0 0-256zM368 480l-96 0 0-80c0-26.5 21.5-48 48-48s48 21.5 48 48l0 80zM608 128l0 64-32 0-128 0 0-64 0-32 64 0 32 0 64 0 0 32z"/></svg>