<svg xmlns="http://www.w3.org/2000/svg" viewBox="0 0 576 512"><!--! Font Awesome Pro 6.7.2 by @fontawesome - https://fontawesome.com License - https://fontawesome.com/license (Commercial License) Copyright 2024 Fonticons, Inc. --><defs><style>.fa-secondary{opacity:.4}</style></defs><path class="fa-secondary" d="M32 64l384 0 0 192 0 32 0 160L32 448 32 64zM64 96l0 32 0 128 0 32 32 0 256 0 32 0 0-32 0-128 0-32-32 0L96 96 64 96zm0 256l0 32 16 0 16 0 0 16 0 16 32 0 0-16 0-16 16 0 16 0 0-32-16 0-16 0 0-16 0-16-32 0 0 16 0 16-16 0-16 0zm160 8a24 24 0 1 0 48 0 24 24 0 1 0 -48 0zm80 0a24 24 0 1 0 48 0 24 24 0 1 0 -48 0zM512 160l32 0 0 32-32 0 0-32z"/><path class="fa-primary" d="M32 64l0 384 384 0 0-160 0-32 0-192L32 64zm416 0l0 192 32 0 0-48 0-64 0-16 16 0 64 0 16 0 0 16 0 64 0 16-16 0-48 0 0 48 0 16-16 0-48 0 0 160 0 32-32 0L32 480 0 480l0-32L0 64 0 32l32 0 384 0 32 0 0 32zM96 128l0 128 256 0 0-128L96 128zM64 96l32 0 256 0 32 0 0 32 0 128 0 32-32 0L96 288l-32 0 0-32 0-128 0-32zm448 96l32 0 0-32-32 0 0 32zM128 336l0 16 16 0 16 0 0 32-16 0-16 0 0 16 0 16-32 0 0-16 0-16-16 0-16 0 0-32 16 0 16 0 0-16 0-16 32 0 0 16zm96 24a24 24 0 1 1 48 0 24 24 0 1 1 -48 0zm104-24a24 24 0 1 1 0 48 24 24 0 1 1 0-48z"/></svg>