<svg xmlns="http://www.w3.org/2000/svg" viewBox="0 0 640 512"><!--! Font Awesome Pro 6.7.2 by @fontawesome - https://fontawesome.com License - https://fontawesome.com/license (Commercial License) Copyright 2024 Fonticons, Inc. --><defs><style>.fa-secondary{opacity:.4}</style></defs><path class="fa-secondary" d="M32 96l64 0 0 192 0 6.6 1.4 1.4 3.3 3.3 8 8 72 72c5.3 5.3 10.7 10.7 16 16L208 406.6 230.6 384l-11.3-11.3-16-16c-20.2-20.2-40.5-40.5-60.7-60.7L176 262.6l128 128L304 496l0 15.9c-61.3-.4-122.7-.8-184-1.3L142.6 488l-11.3-11.3L32 377.4 32 96zM336 390.6l128-128L497.4 296l-60.7 60.7L425.4 368l-4.7 4.7L409.4 384 432 406.6l11.3-11.3 4.7-4.7 11.3-11.3 72-72 8-8 3.3-3.3 1.4-1.4 0-6.6 0-192 64 0 0 281.4-99.3 99.3L497.4 488c7.5 7.5 15.1 15.1 22.6 22.7c-61.3 .4-122.7 .8-184 1.3l0-16 0-105.4z"/><path class="fa-primary" d="M295 59.9l-9.3-11.6c-8.3-10.4-20.8-16.4-34.1-16.4c-24.1 0-43.6 19.5-43.6 43.6l0 3.6c0 12.5 5 24.5 13.8 33.4l24.8 24.8L320 210.7l73.4-73.4 24.8-24.8C427 103.6 432 91.6 432 79.1l0-3.6c0-24.1-19.5-43.6-43.6-43.6c-13.3 0-25.8 6-34.1 16.4L345 59.9 320 91.1 295 59.9zm121 100l-73.4 73.4L320 255.9l-22.6-22.6L224 159.9l-24.8-24.8c-14.9-14.9-23.2-35-23.2-56l0-3.6C176 33.8 209.9-.1 251.6-.1c17 0 33.4 5.7 46.6 16c4.6 3.6 8.8 7.7 12.5 12.4L320 39.9l9.3-11.6c3.7-4.6 7.9-8.8 12.5-12.4C355 5.6 371.3-.1 388.4-.1C430.1-.1 464 33.8 464 75.6l0 3.6c0 21-8.3 41.1-23.2 56L416 159.9zM112 64l16 0 0 16 0 185.4 36.7-36.7L176 217.4l11.3 11.3L320 361.4 452.7 228.7 464 217.4l11.3 11.3L512 265.4 512 80l0-16 16 0 96 0 16 0 0 16 0 304 0 6.6-4.7 4.7-104 104L520 510.6 497.4 488l11.3-11.3L608 377.4 608 96l-64 0 0 192 0 6.6-1.4 1.4-3.3 3.3-8 8-72 72L448 390.6l-4.7 4.7L432 406.6 409.4 384l11.3-11.3 4.7-4.7 11.3-11.3L497.4 296 464 262.6l-128 128L336 496l0 16-32 0 0-16 0-105.4-128-128L142.6 296l60.7 60.7s0 0 0 0l16 16L230.6 384 208 406.6l-11.3-11.3-16-16s0 0 0 0l-72-72-8-8L97.4 296 96 294.6l0-6.6L96 96 32 96l0 281.4 99.3 99.3L142.6 488 120 510.6l-11.3-11.3-104-104L0 390.6 0 384 0 80 0 64l16 0 96 0z"/></svg>