<svg xmlns="http://www.w3.org/2000/svg" viewBox="0 0 448 512"><!--! Font Awesome Pro 6.7.2 by @fontawesome - https://fontawesome.com License - https://fontawesome.com/license (Commercial License) Copyright 2024 Fonticons, Inc. --><defs><style>.fa-secondary{opacity:.4}</style></defs><path class="fa-secondary" d="M64 320l0 43.5c0 41.2 22.6 79.1 58.9 98.6c2.8 1.5 5.5 3 8.3 4.5c16.3 8.8 34.6 13.4 53.1 13.4L320 480c44.2 0 80-35.8 80-80l0-96 0-32-48 0-16 0 0-16 0-16-56 0-16 0 0-16 0-16-72 0-16 0 0-16 0-32c0 5.3 0 10.7 0 16l-16 0-32 0 0 72 0 16 0 1.7 0 9.5 0 68.7 0 16-32 0 0-16 0-48L64 320zM128 32l0 32 32 0 16 0 0 16c0-16 0-32 0-48l-48 0z"/><path class="fa-primary" d="M112 0L96 0l0 16 0 48L51.2 64 17.9 64 38.7 90l24 30-24 30L17.9 176l33.3 0L96 176l0 72 0 8.6c-3.2 2-6.4 4.2-9.5 6.5L38.4 299.2 32 304l0 8 0 51.5c0 53 29.1 101.7 75.7 126.8l8.3 4.5c21 11.3 44.4 17.2 68.3 17.2L320 512c61.9 0 112-50.1 112-112l0-96 0-48 0-16-16 0-48 0 0-16 0-16-16 0-56 0 0-16 0-16-16 0-72 0 0-160 0-16L192 0 112 0zm16 176l32 0 16 0 0-32-16 0-75.5 0 11.2-14 8-10-8-10L84.5 96 160 96l16 0 0-32-16 0-32 0 0-32 48 0 0 48 0 80 0 32 0 16 16 0 72 0 0 16 0 16 16 0 56 0 0 16 0 16 16 0 48 0 0 32 0 96c0 44.2-35.8 80-80 80l-135.7 0c-18.5 0-36.8-4.6-53.1-13.4l-7.6 14.1 7.6-14.1-8.3-4.5C86.6 442.6 64 404.7 64 363.5L64 320l32-24 0 48 0 16 32 0 0-16 0-68.7 0-9.5 0-1.7 0-16 0-72z"/></svg>