<svg xmlns="http://www.w3.org/2000/svg" viewBox="0 0 512 512"><!--! Font Awesome Pro 6.7.2 by @fontawesome - https://fontawesome.com License - https://fontawesome.com/license (Commercial License) Copyright 2024 Fonticons, Inc. --><defs><style>.fa-secondary{opacity:.4}</style></defs><path class="fa-secondary" d="M0 224c0 10.9 .8 21.5 2.3 32l32.4 0c7 41.6 27.3 78.6 56.4 106.5l4.9 4.7 0 6.8L96 496l0 16 192 0 0-16 0-64 0-16 16 0 112 0 0-96 0-16 16 0 48 0 0-16 32 0 0 16c0-16 0-32 0-48l-16 0-96 0-112 0c-28.4 0-54-12.4-71.6-32L16 224c-5.3 0-10.7 0-16 0zM80.9 96l135.6 0C234 76.4 259.6 64 288 64l56 0c-26.7-20.1-60-32-96-32l-24 0C167.1 32 116 56.7 80.9 96z"/><path class="fa-primary" d="M2.3 256C9.2 304.3 31.5 347.6 64 380.8L64 496l0 16 32 0 0-16 0-121.9 0-6.8-4.9-4.7c-29.1-28-49.5-65-56.4-106.5L2.3 256zM80.9 96C116 56.7 167.1 32 224 32l24 0c36 0 69.3 11.9 96 32l-56 0c-28.4 0-54 12.4-71.6 32L80.9 96zM40.1 96L16 96 0 96l0 16 0 96 0 16 16 0 200.4 0c17.6 19.6 43.1 32 71.6 32l112 0 96 0 16 0 0-16 0-160 0-16-16 0-96 0-8.9 0C356 24.7 304.9 0 248 0L224 0C147.9 0 80.6 38 40.1 96zm157.3 96L32 192l0-64 165.5 0c-3.5 10-5.5 20.8-5.5 32s1.9 22 5.5 32zM512 288l-32 0 0 16-48 0-16 0 0 16 0 96-112 0-16 0 0 16 0 64 0 16 32 0 0-16 0-48 112 0 16 0 0-16 0-96 48 0 16 0 0-16 0-32zM288 96l96 0 0 128-96 0c-35.3 0-64-28.7-64-64s28.7-64 64-64zM416 224l0-128 64 0 0 128-64 0z"/></svg>