<svg xmlns="http://www.w3.org/2000/svg" viewBox="0 0 640 512"><!--! Font Awesome Pro 6.7.2 by @fontawesome - https://fontawesome.com License - https://fontawesome.com/license (Commercial License) Copyright 2024 Fonticons, Inc. --><defs><style>.fa-secondary{opacity:.4}</style></defs><path class="fa-secondary" d="M32 224c0 30.8 6.8 64.6 21.5 89.6C67.4 337.2 87.5 352 118.3 352c42.9 0 77.9-37.3 74.3-73.3L185.4 206 184 192l9.3-10.5 39.2-44.1c10-11.2 15.5-25.7 15.5-40.6c0-21-11-40.1-30.7-53.2C207.8 37.2 188.4 31.3 164 32c-40.2 1.1-72.4 24.5-95.9 62.2C44.4 132.3 32 181.6 32 224zM392 96.7c0 15 5.5 29.4 15.5 40.6l39.2 44.1L456 192l-1.4 14-7.3 72.7c-3.6 36 31.5 73.3 74.3 73.3c30.9 0 50.9-14.8 64.8-38.4c14.8-25 21.5-58.9 21.5-89.6c0-42.4-12.4-91.7-36.1-129.8C548.3 56.5 516.1 33.1 476 32c-24.4-.7-43.8 5.2-53.3 11.6C403 56.7 392 75.7 392 96.7z"/><path class="fa-primary" d="M456 192l-9.3-10.5-39.2-44.1c-10-11.2-15.5-25.7-15.5-40.6c0-21 11-40.1 30.7-53.2c9.5-6.3 28.9-12.2 53.3-11.6c40.2 1.1 72.4 24.5 95.9 62.2C595.6 132.3 608 181.6 608 224c0 30.8-6.8 64.6-21.5 89.6c-13.9 23.5-33.9 38.4-64.8 38.4c-42.9 0-77.9-37.3-74.3-73.3l7.3-72.7 1.4-14zm-36.2 40l-4.4 43.5C409.7 333.6 463.3 384 521.7 384C610.2 384 640 293 640 224C640 128.4 585 3 476.8 0C448-.8 421.5 5.9 404.9 16.9C377.8 35 360 63.5 360 96.7c0 22.8 8.4 44.8 23.5 61.9l34.3 38.6-1 .5-56 28-8.8 4.4 0 9.9 0 256 0 16 32 0 0-16 0-246.1L419.8 232zM184 192l1.4 14 7.3 72.7c3.6 36-31.5 73.3-74.3 73.3c-30.9 0-50.9-14.8-64.8-38.4C38.8 288.6 32 254.8 32 224c0-42.4 12.4-91.7 36.1-129.8C91.7 56.5 123.9 33.1 164 32c24.4-.7 43.8 5.2 53.3 11.6C237 56.7 248 75.7 248 96.7c0 15-5.5 29.4-15.5 40.6l-39.2 44.1L184 192zm36.2 40L256 249.9 256 496l0 16 32 0 0-16 0-256 0-9.9-8.8-4.4-56-28-1-.5 34.3-38.6c15.2-17.1 23.5-39.1 23.5-61.9c0-33.3-17.8-61.7-44.9-79.8C218.5 5.9 192-.8 163.2 0C55 3 0 128.4 0 224c0 69 29.8 160 118.3 160c58.4 0 112-50.4 106.2-108.5L220.2 232z"/></svg>