<svg xmlns="http://www.w3.org/2000/svg" viewBox="0 0 640 512"><!--! Font Awesome Pro 6.7.2 by @fontawesome - https://fontawesome.com License - https://fontawesome.com/license (Commercial License) Copyright 2024 Fonticons, Inc. --><defs><style>.fa-secondary{opacity:.4}</style></defs><path class="fa-secondary" d=""/><path class="fa-primary" d="M40.4 18L27.8 8.1 8.1 33.4l12.6 9.8L599.8 494.3l12.6 9.8 19.7-25.2L619.5 469 40.4 18zM607.2 272l.8 0 0-16c0-88.4-71.6-160-160-160l-80 0-16 0 0 32 16 0 80 0c70.7 0 128 57.3 128 128c0 35.5-14.4 67.6-37.7 90.8l25.3 19.9c24.1-25.1 40.1-58.1 43.7-94.7zM456 272l16 0 0-32-16 0-53 0 40.5 32 12.4 0zM196.4 240L184 240l-16 0 0 32 16 0 53 0-40.5-32zm-94.7-74.8L76.5 145.3C48.9 174 32 213 32 256l0 16 .8 0c8 80.9 76.2 144 159.2 144l80 0 16 0 0-32-16 0-80 0c-70.7 0-128-57.3-128-128c0-35.5 14.4-67.6 37.7-90.8z"/></svg>