<svg xmlns="http://www.w3.org/2000/svg" viewBox="0 0 448 512"><!--! Font Awesome Pro 6.7.2 by @fontawesome - https://fontawesome.com License - https://fontawesome.com/license (Commercial License) Copyright 2024 Fonticons, Inc. --><defs><style>.fa-secondary{opacity:.4}</style></defs><path class="fa-secondary" d="M32 224l0 256 384 0 0-256L32 224zm94.2 224l1.2-2.6 82-180 4.3-9.4 20.6 0 4.3 9.4 82 180 1.2 2.6-35.2 0-21.9-48-81.5 0-21.9 48-35.2 0zm71.6-80l52.3 0L224 310.6 197.8 368z"/><path class="fa-primary" d="M128 128l0 64 192 0 0-64c0-53-43-96-96-96s-96 43-96 96zM96 192l0-64C96 57.3 153.3 0 224 0s128 57.3 128 128l0 64 64 0 32 0 0 32 0 256 0 32-32 0L32 512 0 512l0-32L0 224l0-32 32 0 64 0zM32 480l384 0 0-256L32 224l0 256zm232.7-80l-81.5 0-21.9 48-35.2 0 1.2-2.6 82-180 4.3-9.4 20.6 0 4.3 9.4 82 180 1.2 2.6-35.2 0-21.9-48zm-14.6-32L224 310.6 197.8 368l52.3 0z"/></svg>