<svg xmlns="http://www.w3.org/2000/svg" viewBox="0 0 576 512"><!--! Font Awesome Pro 6.7.2 by @fontawesome - https://fontawesome.com License - https://fontawesome.com/license (Commercial License) Copyright 2024 Fonticons, Inc. --><defs><style>.fa-secondary{opacity:.4}</style></defs><path class="fa-secondary" d="M32 96l512 0 0 320L32 416 32 96zM75.8 326.1l15.2 5.1c1.3 .4 2.8 1 4.6 1.6c8.9 3 23 7.9 32.4 9.6l0 9.6 0 16 32 0 0-16 0-8.9c6.3-.9 12.3-2.5 17.9-4.9c14.7-6.3 26.3-18.3 29.3-35.7c1.7-9.7 .9-18.9-2.7-27.2c-3.6-8.2-9.3-14.3-15.6-18.8c-11.6-8.4-27.2-13.1-39.5-16.9l-.6-.2c-13.9-4.2-24.3-7.4-31-12c-3-2-4.3-3.8-5-5.1c-.6-1.2-1.2-3.3-.5-7.4c.6-3.6 3.3-7.8 10.5-11c7.3-3.3 18-4.9 30.9-2.9c4.4 .7 18.1 3.4 22.1 4.4l15.5 4.1 8.2-30.9-15.5-4.1c-5.1-1.4-18.2-3.9-24.1-4.9l0-9.6 0-16-32 0 0 16 0 9.3c-6.5 1.1-12.7 2.9-18.3 5.4c-14.1 6.4-25.9 18.1-28.8 34.7c-1.6 9.5-.7 18.5 3.1 26.6c3.8 7.9 9.7 13.7 15.9 17.9c11.1 7.5 25.8 11.9 37.7 15.5l2 .6c13.8 4.2 23.9 7.5 30.5 12.3c2.9 2.1 4.3 4 5.1 5.7c.7 1.6 1.3 4.3 .5 9c-.9 5-3.8 9-10.3 11.8c-7 3-17.7 4.3-31 2.2c-6.4-1-17.6-4.8-27.1-8.1c-2.2-.7-4.2-1.4-6.2-2.1l-15.2-5.1L75.8 326.1zM256 192l0 32 224 0 0-32-224 0zm0 96l0 32 224 0 0-32-224 0z"/><path class="fa-primary" d="M32 96l0 320 512 0 0-320L32 96zM0 64l32 0 512 0 32 0 0 32 0 320 0 32-32 0L32 448 0 448l0-32L0 96 0 64zM480 288l0 32-224 0 0-32 224 0zM256 192l224 0 0 32-224 0 0-32zm-96-32l0 9.6c5.9 1 19 3.5 24.1 4.9l15.5 4.1-8.2 30.9-15.5-4.1c-4-1.1-17.7-3.7-22.1-4.4c-12.8-2-23.6-.4-30.9 2.9c-7.2 3.3-9.9 7.5-10.5 11c-.7 4.1-.1 6.2 .5 7.4c.6 1.4 2 3.1 5 5.1c6.7 4.6 17.1 7.8 31 12l.6 .2s0 0 0 0c12.3 3.7 27.9 8.4 39.5 16.9c6.3 4.5 12 10.6 15.6 18.8c3.6 8.3 4.4 17.4 2.7 27.2c-3 17.5-14.6 29.4-29.3 35.7c-5.6 2.4-11.6 4-17.9 4.9l0 8.9 0 16-32 0 0-16 0-9.6c-9.4-1.7-23.6-6.6-32.4-9.6c0 0 0 0 0 0s0 0 0 0s0 0 0 0c-1.8-.6-3.3-1.1-4.6-1.6l-15.2-5.1 10.1-30.4 15.2 5.1c1.9 .6 4 1.3 6.1 2.1c0 0 0 0 0 0s0 0 0 0c9.5 3.2 20.7 7 27.1 8.1c13.3 2.1 24 .8 31-2.2c6.5-2.8 9.5-6.7 10.3-11.8c.8-4.7 .2-7.3-.5-9c-.7-1.7-2.2-3.6-5.1-5.7c-6.5-4.8-16.7-8.1-30.5-12.3l-2-.6s0 0 0 0c-11.9-3.6-26.6-8-37.7-15.5c-6.2-4.2-12.2-10-15.9-17.9c-3.8-8.1-4.7-17.1-3.1-26.6c2.9-16.7 14.7-28.4 28.8-34.7c5.6-2.6 11.8-4.4 18.3-5.4l0-9.3 0-16 32 0 0 16z"/></svg>