<svg xmlns="http://www.w3.org/2000/svg" viewBox="0 0 576 512"><!--! Font Awesome Pro 6.7.2 by @fontawesome - https://fontawesome.com License - https://fontawesome.com/license (Commercial License) Copyright 2024 Fonticons, Inc. --><defs><style>.fa-secondary{opacity:.4}</style></defs><path class="fa-secondary" d="M218.5 378.3l19.6-132.1 96.3 22.2-11.6 92.5c-4.6-3.1-9.5-6.6-15-10.6L288 336l-18.6 13.4-1.1 .8c-13.9 10-23.6 17-35.5 22.5c-4.6 2.1-9.4 4-14.2 5.6zM352 128a32 32 0 1 1 -64 0 32 32 0 1 1 64 0z"/><path class="fa-primary" d="M128 208l0-160 32 0 0 147.3 191.7 44.2 172.1-46.9 8.4 30.9L366.5 268.6 353 376.7c-3.3-1.2-6.6-2.6-9.8-4c-7.2-3.3-13.6-7.1-20.5-11.8l11.6-92.5-96.3-22.2L218.5 378.3c-8.9 2.9-18.1 4.8-26.5 4.8c-2.1 0-4.3-.1-6.5-.3l21.3-143.8-66.4-15.3L128 220.7l0-12.7zm192-48a32 32 0 1 0 0-64 32 32 0 1 0 0 64zm0-96a64 64 0 1 1 0 128 64 64 0 1 1 0-128zM192 448c20.9 0 41.6-9.9 58.2-21.2c14.7-10 25.9-21.5 37.8-34.2c11.9 12.8 23.1 24.2 37.8 34.2C342.3 438.1 363.1 448 384 448s41.6-9.9 58.2-21.2c14.7-10 25.9-21.5 37.8-34.2c11.9 12.8 23.1 24.2 37.8 34.2C534.4 438.1 555.1 448 576 448l0 32c-30.3 0-57.6-14.1-76.2-26.8c-7.9-5.4-14.7-10.8-19.8-15.3c-5.1 4.5-11.9 9.9-19.8 15.3C441.5 465.9 414.3 480 384 480s-57.6-14.1-76.2-26.8c-7.9-5.4-14.7-10.8-19.8-15.3c-5.1 4.5-11.8 9.9-19.8 15.3C249.5 465.9 222.3 480 192 480s-57.6-14.1-76.2-26.8c-7.9-5.4-14.6-10.8-19.8-15.3c-5.1 4.5-11.8 9.8-19.8 15.3C57.6 465.9 30.3 480 0 480l0-32c20.9 0 41.6-9.9 58.2-21.2c14.7-10 25.9-21.5 37.8-34.2c11.9 12.7 23.2 24.3 37.8 34.2C150.3 438.1 171.1 448 192 448z"/></svg>