<svg xmlns="http://www.w3.org/2000/svg" viewBox="0 0 576 512"><!--! Font Awesome Pro 6.7.2 by @fontawesome - https://fontawesome.com License - https://fontawesome.com/license (Commercial License) Copyright 2024 Fonticons, Inc. --><defs><style>.fa-secondary{opacity:.4}</style></defs><path class="fa-secondary" d="M61.3 440l65.4-65.4 13.7-13.7-5.8-18.5L100.3 232.9l23-23 150.4 150c1.9-12.4 5.2-24.3 9.7-35.5L146 187.3l142-142L471.7 229c-12.7-3.2-26-5-39.7-5c-88.4 0-160 71.6-160 160c0 13 1.6 25.7 4.4 37.9l-90.9-28.4-18.5-5.8-13.7 13.7L88 466.7 61.3 440zm215.2-18.1c2 7.8 4.4 15.4 7.3 22.6c-3-7.3-5.4-14.8-7.3-22.6zM471.7 229c11.5 3 22.3 7.1 33.8 11.5l-1.1 .8c-10.3-5.2-21.2-9.4-32.7-12.3z"/><path class="fa-primary" d="M140.3 360.9l-13.7 13.7L61.3 440 88 466.7l65.4-65.4 13.7-13.7 18.5 5.8 90.9 28.4c3.3 13.4 8.2 26.2 14.6 38.1L176 424l-65.4 65.4L88 512 65.4 489.4 38.6 462.6 16 440l22.6-22.6L104 352 64 224 265.4 22.6 288 0l22.6 22.6L505.4 217.4 528 240l-9.5 9.5c-14.2-9.1-29.9-16.1-46.7-20.4L288 45.3l-142 142L283.5 324.3c-4.5 11.3-7.8 23.2-9.7 35.5l-150.4-150-23 23 34.2 109.5 5.8 18.5zM431.9 480.1a96 96 0 1 0 0-192 96 96 0 1 0 0 192zm0-224a128 128 0 1 1 0 256 128 128 0 1 1 0-256zm-64 128a16 16 0 1 1 0-32 16 16 0 1 1 0 32zm64 64a16 16 0 1 1 -32 0 16 16 0 1 1 32 0zm0-48a16 16 0 1 1 0-32 16 16 0 1 1 0 32zm80 0a16 16 0 1 1 -32 0 16 16 0 1 1 32 0zm-64-64a16 16 0 1 1 0-32 16 16 0 1 1 0 32z"/></svg>