<svg xmlns="http://www.w3.org/2000/svg" viewBox="0 0 640 512"><!--! Font Awesome Pro 6.7.2 by @fontawesome - https://fontawesome.com License - https://fontawesome.com/license (Commercial License) Copyright 2024 Fonticons, Inc. --><defs><style>.fa-secondary{opacity:.4}</style></defs><path class="fa-secondary" d="M64 156.4L64 320l96 0 0-10L64 156.4zm128 0l0 144.4 0 19.2 96 0 0-10L192 156.4zm128 0l0 144.4 0 19.2 96 0 0-10L320 156.4zm128 0l0 144.4 0 19.2 102.3 0L448 156.4z"/><path class="fa-primary" d="M64 156.4L160 310l0 10-96 0 0-163.6zm96 93.2L64 96 32 96l0 32 0 192 0 32 32 0 96 0 32 0 96 0 32 0 96 0 32 0 122.3 0 37.7 0-20-32L448 96l-32 0 0 32 0 121.6L320 96l-32 0 0 32 0 121.6L192 96l-32 0 0 32 0 121.6zM416 310l0 10-96 0 0-19.2 0-144.4L416 310zm32 10l0-19.2 0-144.4L550.3 320 448 320zM288 310l0 10-96 0 0-19.2 0-144.4L288 310zM0 416l0 32 16 0 608 0 16 0 0-32-16 0L16 416 0 416z"/></svg>