<svg xmlns="http://www.w3.org/2000/svg" viewBox="0 0 512 512"><!--! Font Awesome Pro 6.7.2 by @fontawesome - https://fontawesome.com License - https://fontawesome.com/license (Commercial License) Copyright 2024 Fonticons, Inc. --><defs><style>.fa-secondary{opacity:.4}</style></defs><path class="fa-secondary" d="M45.3 352L160 466.7 466.7 160 352 45.3 305.9 91.3l41.4 41.4L358.6 144 336 166.6l-11.3-11.3-41.4-41.4-41.4 41.4 41.4 41.4L294.6 208 272 230.6l-11.3-11.3-41.4-41.4-41.4 41.4 41.4 41.4L230.6 272 208 294.6l-11.3-11.3-41.4-41.4-41.4 41.4 41.4 41.4L166.6 336 144 358.6l-11.3-11.3L91.3 305.9 45.3 352z"/><path class="fa-primary" d="M512 160l-22.6-22.6L374.6 22.6 352 0 329.4 22.6 22.6 329.4 0 352l22.6 22.6L137.4 489.4 160 512l22.6-22.6L489.4 182.6 512 160zM352 45.3L466.7 160 160 466.7 45.3 352l46.1-46.1 41.4 41.4L144 358.6 166.6 336l-11.3-11.3-41.4-41.4 41.4-41.4 41.4 41.4L208 294.6 230.6 272l-11.3-11.3-41.4-41.4 41.4-41.4 41.4 41.4L272 230.6 294.6 208l-11.3-11.3-41.4-41.4 41.4-41.4 41.4 41.4L336 166.6 358.6 144l-11.3-11.3L305.9 91.3 352 45.3z"/></svg>