<svg xmlns="http://www.w3.org/2000/svg" viewBox="0 0 640 512"><!--! Font Awesome Pro 6.7.2 by @fontawesome - https://fontawesome.com License - https://fontawesome.com/license (Commercial License) Copyright 2024 Fonticons, Inc. --><defs><style>.fa-secondary{opacity:.4}</style></defs><path class="fa-secondary" d="M32 64l0 384 222.5 0C308.3 349.3 362.1 250.6 416 151.8L416 64 32 64zm64 64l32 0 0 16 0 128 0 16-32 0 0-16 0-128 0-16zm64 0l32 0 0 16 0 128 0 16-32 0 0-16 0-128 0-16z"/><path class="fa-primary" d="M32 64l384 0 0 87.8 32-58.7L448 64l0-32-32 0L32 32 0 32 0 64 0 448l0 32 32 0 205 0 17.5-32L32 448 32 64zm96 80l0-16-32 0 0 16 0 128 0 16 32 0 0-16 0-128zm64 0l0-16-32 0 0 16 0 128 0 16 32 0 0-16 0-128zm64 368l36.5 0 311.1 0 36.5 0-17.5-32L466.2 193.4 448 160l-18.2 33.4L273.5 480 256 512zm330.1-32l-276.2 0L448 226.8 586.1 480zM464 320l0-16-32 0 0 16 0 64 0 16 32 0 0-16 0-64zm-32 96l0 32 32 0 0-32-32 0z"/></svg>