<svg xmlns="http://www.w3.org/2000/svg" viewBox="0 0 640 512"><!--! Font Awesome Pro 6.7.2 by @fontawesome - https://fontawesome.com License - https://fontawesome.com/license (Commercial License) Copyright 2024 Fonticons, Inc. --><defs><style>.fa-secondary{opacity:.4}</style></defs><path class="fa-secondary" d="M32 184.2l0 7.8 32 0 32 0 39.6 0c-25.1-19.9-50.3-39.7-75.4-59.6L32 184.2zM96 384l0 96 256 0 0-96L96 384zM139.6 32c67.6 53.3 135.1 106.7 202.7 160L560 192l48 0 0-7.8L525 32 139.6 32z"/><path class="fa-primary" d="M608 224l32 0 0-32 0-16L544 0 99 0l40.5 32L525 32l83 152.2 0 7.8-48 0-217.8 0 40.5 32L544 224l0 127.3 32 25.3L576 224l32 0zM0 176l0 16 0 32 32 0 32 0 0 272 0 16 16 0 288 0 16 0 0-16 0-107.9L338.3 352 96 352l0-128 80.2 0-40.5-32L96 192l-32 0-32 0 0-7.8 28.2-51.7L34.7 112.3 0 176zM96 480l0-96 256 0 0 96L96 480zM40.4 18L27.8 8.1 8.1 33.4l12.6 9.8L599.8 494.3l12.6 9.8 19.7-25.2L619.5 469 40.4 18z"/></svg>