<svg xmlns="http://www.w3.org/2000/svg" viewBox="0 0 640 512"><!--! Font Awesome Pro 6.7.2 by @fontawesome - https://fontawesome.com License - https://fontawesome.com/license (Commercial License) Copyright 2024 Fonticons, Inc. --><defs><style>.fa-secondary{opacity:.4}</style></defs><path class="fa-secondary" d="M32 328l0 24 158.7 0 12.5-144L57.9 208 32 328zM64.9 176L206 176 218.4 32 96 32 64.9 176zm158 176l194.3 0L404.7 208l-169.4 0L222.8 352zm15.2-176l163.9 0L389.5 32 250.5 32 238.1 176zM421.6 32L434 176l141.1 0L544 32 421.6 32zm15.2 176l12.5 144L608 352l0-24L582.1 208l-145.2 0z"/><path class="fa-primary" d="M57.9 208l145.2 0L190.7 352 32 352l0-24L57.9 208zm6.9-32L96 32l122.4 0L206 176 64.9 176zM250.5 32l138.9 0 12.5 144-163.9 0L250.5 32zm171 0L544 32l31.1 144L434 176 421.6 32zM582.1 208L608 328l0 24-158.7 0L436.8 208l145.2 0zM417.2 352l-194.3 0 12.5-144 169.4 0 12.5 144zM569.8 0L70.2 0 0 324.6 0 352l0 32 32 0 272 0 0 96-96 0-16 0 0 32 16 0 96 0 32 0 96 0 16 0 0-32-16 0-96 0 0-96 272 0 32 0 0-32 0-27.4L569.8 0z"/></svg>