<svg xmlns="http://www.w3.org/2000/svg" viewBox="0 0 448 512"><!--! Font Awesome Pro 6.7.2 by @fontawesome - https://fontawesome.com License - https://fontawesome.com/license (Commercial License) Copyright 2024 Fonticons, Inc. --><defs><style>.fa-secondary{opacity:.4}</style></defs><path class="fa-secondary" d="M32 64l384 0 0 384L32 448 32 64zm48 66.7L80 144l0 16c0 132.5 107.5 240 240 240l16 0 13.4 0 2.4-13.1 16-88 2.3-12.9-12.1-4.9-80-32-9.8-3.9-7.5 7.5L242 271.4c-13-9.1-24.3-20.4-33.4-33.4l18.7-18.7 7.5-7.5-3.9-9.8-32-80L194 109.9l-12.9 2.3-88 16L80 130.7z"/><path class="fa-primary" d="M32 64l0 384 384 0 0-384L32 64zM0 32l32 0 384 0 32 0 0 32 0 384 0 32-32 0L32 480 0 480l0-32L0 64 0 32zm198.8 90.1l32 80 3.9 9.8-7.5 7.5L208.6 238c9.1 13 20.4 24.3 33.4 33.4l18.7-18.7 7.5-7.5 9.8 3.9 80 32 12.1 4.9-2.3 12.9-16 88L349.3 400 336 400l-16 0C187.4 400 80 292.5 80 160l0-16 0-13.4 13.1-2.4 88-16 12.9-2.3 4.9 12.1zM112 160c0 114.9 93.1 208 208 208l2.6 0 11.3-62-58.1-23.2-20.3 20.3-8.7 8.7-10.6-6.1c-25.7-14.8-47.1-36.2-61.9-61.9l-6.1-10.6 8.7-8.7 20.3-20.3L174 146.1l-62 11.3 0 2.6z"/></svg>