<svg xmlns="http://www.w3.org/2000/svg" viewBox="0 0 512 512"><!--! Font Awesome Pro 6.7.2 by @fontawesome - https://fontawesome.com License - https://fontawesome.com/license (Commercial License) Copyright 2024 Fonticons, Inc. --><defs><style>.fa-secondary{opacity:.4}</style></defs><path class="fa-secondary" d="M32 288l0 128c0 35.3 28.7 64 64 64s64-28.7 64-64l0-128L32 288zm88 128a24 24 0 1 1 -48 0 24 24 0 1 1 48 0zm51.7 64L480 480l0-128-180.3 0-128 128zM192 233.5l0 181L413.4 193.1l-90.5-90.5L192 233.5z"/><path class="fa-primary" d="M0 416c0 53 43 96 96 96l400 0 16 0 0-16 0-160 0-16-16 0-164.3 0L447.3 204.5l11.3-11.3-11.3-11.3L334.2 68.7 322.8 57.4 311.5 68.7 192 188.2 192 16l0-16L176 0 16 0 0 0 0 16 0 416zm480 64l-308.3 0 128-128L480 352l0 128zM413.4 193.1L192 414.5l0-181L322.8 102.6l90.5 90.5zM96 480c-35.3 0-64-28.7-64-64l0-128 128 0 0 128c0 35.3-28.7 64-64 64zM32 256l0-96 128 0 0 96L32 256zm0-128l0-96 128 0 0 96L32 128zM96 440a24 24 0 1 0 0-48 24 24 0 1 0 0 48z"/></svg>