<svg xmlns="http://www.w3.org/2000/svg" viewBox="0 0 640 512"><!--! Font Awesome Pro 6.7.2 by @fontawesome - https://fontawesome.com License - https://fontawesome.com/license (Commercial License) Copyright 2024 Fonticons, Inc. --><defs><style>.fa-secondary{opacity:.4}</style></defs><path class="fa-secondary" d=""/><path class="fa-primary" d="M40.4 18L27.8 8.1 8.1 33.4l12.6 9.8L599.8 494.3l12.6 9.8 19.7-25.2L619.5 469 40.4 18zM352.3 200L390.4 64l149.1 0-16 64 33 0 19-76.1 5-19.9L560 32 144 32l-4.4 0 40.5 32 177.1 0L325.1 178.5 352.3 200zM314.9 333.5L287.7 312 249.6 448 176 448l-16 0 0 32 16 0 160 0 16 0 0-32-16 0-53.1 0 32.1-114.5z"/></svg>