<svg xmlns="http://www.w3.org/2000/svg" viewBox="0 0 640 512"><!--! Font Awesome Pro 6.7.2 by @fontawesome - https://fontawesome.com License - https://fontawesome.com/license (Commercial License) Copyright 2024 Fonticons, Inc. --><defs><style>.fa-secondary{opacity:.4}</style></defs><path class="fa-secondary" d="M160 211.2c16 12.6 32 25.3 48 37.9L208 400l0 16 32 0 0-16 0-125.6c21.3 16.8 42.7 33.7 64 50.5l0 75.1 0 16 32 0 0-16 0-49.8c53.3 42.1 106.7 84.2 160 126.3l0 3.5-16 0-32 0-288 0 0-268.8zM220.6 96L480 96l0 204.8c-16-12.6-32-25.3-48-37.9l0-86.9 0-16-32 0 0 16 0 61.6C340.2 190.4 280.4 143.2 220.6 96zm24.2-32l20-32 110.3 0 20 32L244.9 64z"/><path class="fa-primary" d="M512 326l0-230 32 0 0-32-32 0-32 0-47.1 0L397.6 7.5 392.9 0 384 0 256 0l-8.9 0-4.7 7.5L207.1 64l-27 0 40.5 32L480 96l0 204.8L512 326zm0 163.1L500.4 480 480 480l-32 0-288 0 0-268.8L128 186l0 294 0 32 32 0 320 0 32 0 0-22.9zm-304-240L208 400l0 16 32 0 0-16 0-125.6-32-25.3zm96 75.8l0 75.1 0 16 32 0 0-16 0-49.8-32-25.3zm128-62l0-86.9 0-16-32 0 0 16 0 61.6 32 25.3zM244.9 64l20-32 110.3 0 20 32L244.9 64zM40.4 18L27.8 8.1 8.1 33.4l12.6 9.8L599.8 494.3l12.6 9.8 19.7-25.2L619.5 469 40.4 18z"/></svg>