<svg xmlns="http://www.w3.org/2000/svg" viewBox="0 0 448 512"><!--! Font Awesome Pro 6.7.2 by @fontawesome - https://fontawesome.com License - https://fontawesome.com/license (Commercial License) Copyright 2024 Fonticons, Inc. --><defs><style>.fa-secondary{opacity:.4}</style></defs><path class="fa-secondary" d="M44.4 480l359.2 0L360.9 352l-29.8 0-84.6 84.6L224 459.2l-22.6-22.6L116.8 352l-29.8 0L44.4 480zM128 76.9l0 67.1 192 0 0-67.1-96-42-96 42zm0 99.1c0 5.5 .5 10.8 1.3 16l76.8 0 8-16c-28.7 0-57.4 0-86.1 0zM184 72l16 0 8 0 0-8 0-16 32 0 0 16 0 8 8 0 16 0 0 32-16 0-8 0 0 8 0 16-32 0 0-16 0-8-8 0-16 0 0-32z"/><path class="fa-primary" d="M128 76.9l96-42 96 42 0 67.1-192 0 0-67.1zM96 56l0 88 0 16 0 16s0 0 0 0c0 70.7 57.3 128 128 128s128-57.3 128-128c0 0 0 0 0 0l0-16 0-16 0-88L224 0 96 56zm32 120s0 0 0 0l86.1 0-8 16-76.8 0c-.9-5.2-1.3-10.5-1.3-16zm102.3 39.2L249.9 176l70.1 0s0 0 0 0c0 53-43 96-96 96c-35.5 0-66.6-19.3-83.2-48l75.2 0 9.9 0 4.4-8.8zM201.4 436.6L224 459.2l22.6-22.6L331.2 352l29.8 0 42.7 128L44.4 480 87.1 352l29.8 0 84.6 84.6zM384 320l-66.1 0-71.3 71.3L224 413.9l-22.6-22.6L130.1 320 64 320 10.7 480 0 512l33.7 0 380.5 0 33.7 0-10.7-32L384 320zM240 48l-32 0 0 16 0 8-8 0-16 0 0 32 16 0 8 0 0 8 0 16 32 0 0-16 0-8 8 0 16 0 0-32-16 0-8 0 0-8 0-16z"/></svg>