<svg xmlns="http://www.w3.org/2000/svg" viewBox="0 0 640 512"><!--! Font Awesome Pro 6.7.2 by @fontawesome - https://fontawesome.com License - https://fontawesome.com/license (Commercial License) Copyright 2024 Fonticons, Inc. --><defs><style>.fa-secondary{opacity:.4}</style></defs><path class="fa-secondary" d="M44.4 448L87.1 320l145.9 0 42.7 128L44.4 448zM232 136A72 72 0 1 1 88 136a72 72 0 1 1 144 0zM364.4 320l231.2 0L552.9 448l-145.9 0L364.4 320zM552 136a72 72 0 1 1 -144 0 72 72 0 1 1 144 0z"/><path class="fa-primary" d="M88 136a72 72 0 1 1 144 0A72 72 0 1 1 88 136zm176 0A104 104 0 1 0 56 136a104 104 0 1 0 208 0zm144 0a72 72 0 1 1 144 0 72 72 0 1 1 -144 0zm176 0a104 104 0 1 0 -208 0 104 104 0 1 0 208 0zM87.1 320l145.9 0 42.7 128L44.4 448 87.1 320zM256 288L64 288 10.7 448 0 480l33.7 0 252.5 0 33.7 0-10.7-32L256 288zm108.4 32l231.2 0L552.9 448l-145.9 0L364.4 320zM384 480l192 0 53.3-160L640 288l-33.7 0-252.5 0L320 288l10.7 32L384 480z"/></svg>