<svg xmlns="http://www.w3.org/2000/svg" viewBox="0 0 640 512"><!--! Font Awesome Pro 6.7.2 by @fontawesome - https://fontawesome.com License - https://fontawesome.com/license (Commercial License) Copyright 2024 Fonticons, Inc. --><defs><style>.fa-secondary{opacity:.4}</style></defs><path class="fa-secondary" d="M129.3 187c15.6 12.3 31.3 24.7 46.9 37c-22.9 0-42-15.8-46.9-37zM148.4 39l6.5-39 13.9 0L168 15.2 166.1 53c-5.9-4.7-11.8-9.3-17.7-14zM197 77.3l3-60.5L200.8 0 208 0l7.2 0 .8 16.8L220 95.5c-7.7-6.1-15.3-12.1-23-18.2zM247.2 0l13.9 0 24.6 147.4c-10.8-8.5-21.6-17-32.4-25.5L248 15.2 247.2 0zM416 176c0-62.5 23.8-97.7 47-117.8c12-10.4 24.4-17.2 34.5-21.3c7.6-3.1 12.6-4.2 14.3-4.6c.2 95.9 .2 191.9 .2 287.8l-7.6 0c-29.4-23.2-58.9-46.5-88.4-69.8l0-74.2z"/><path class="fa-primary" d="M544 336l0-16 0-288 0-32L512 0C496 0 384 32 384 176l0 49 32 25.3 0-74.2c0-62.5 23.8-97.7 47-117.8c12-10.4 24.4-17.2 34.5-21.3c7.6-3.1 12.6-4.2 14.3-4.6l.2-.1L512 320l-7.6 0L544 351.3l0-15.3zM224 261.8L176.2 224l-.2 0c-22.7 0-41.8-15.8-46.7-37L96.1 160.8c-.1 1.5-.1 3-.1 4.5L96 176c0 44.2 35.8 80 80 80l16 0 0 240 0 16 32 0 0-16 0-234.2zM168 15.2L166.1 53 197 77.3l3-60.5L200.8 0l-32 0L168 15.2zm-48.3 1.1L148.4 39l6.5-39L122.4 0l-2.7 16.3zM320 165.3c0-4.4-.4-8.8-1.1-13.2L293.6 0 261.1 0l24.6 147.4L320 174.5l0-9.2zM248 15.2L247.2 0l-32 0 .8 16.8L220 95.5l33.4 26.3L248 15.2zM40.4 18L27.8 8.1 8.1 33.4l12.6 9.8L599.8 494.3l12.6 9.8 19.7-25.2L619.5 469 40.4 18z"/></svg>