<svg xmlns="http://www.w3.org/2000/svg" viewBox="0 0 640 512"><!--! Font Awesome Pro 6.7.2 by @fontawesome - https://fontawesome.com License - https://fontawesome.com/license (Commercial License) Copyright 2024 Fonticons, Inc. --><defs><style>.fa-secondary{opacity:.4}</style></defs><path class="fa-secondary" d="M32 154.9L320 41.2 608 154.9 608 496l0 16c-21.3 0-42.7 0-64 0l0-16 0-288 0-16-16 0-416 0-16 0 0 16 0 288 0 16c-21.3 0-42.7 0-64 0l0-16 0-341.1zM128 224l384 0 0 64-384 0 0-64zm0 96l384 0 0 64-384 0 0-64zm0 96l384 0 0 64-384 0 0-64z"/><path class="fa-primary" d="M320 6.8l5.9 2.3 304 120 10.1 4 0 10.9 0 352 0 16-32 0 0-16 0-341.1L320 41.2 32 154.9 32 496l0 16L0 512l0-16L0 144l0-10.9 10.1-4 304-120L320 6.8zM96 192l16 0 416 0 16 0 0 16 0 288 0 16-32 0s0 0 0 0l-384 0s0 0 0 0l-32 0 0-16 0-288 0-16zm32 288l384 0 0-64-384 0 0 64zM512 320l-384 0 0 64 384 0 0-64zm0-32l0-64-384 0 0 64 384 0z"/></svg>