<svg width="24" height="24" viewBox="0 0 85 119" fill="none" xmlns="http://www.w3.org/2000/svg" stroke-width="1px" stroke-linecap="round" stroke-linejoin="round">
    <path d="M82.8601 12L62.8601 23.55L22.21 47.02L2.20996 37.02L62.8601 2L82.8601 12Z" stroke="currentColor" stroke-linejoin="round"/>
    <path d="M62.8601 23.55L22.21 47.02V116.61L82.8601 81.59V12L62.8601 23.55ZM45.79 79.79L40.74 82.71V65.31L35.6899 68.23V62.43L37.96 61.12L43.3401 58.01L45.79 56.6V79.79ZM66.01 68.12L62.8601 69.94L50.8501 76.88V53.68L52.3101 52.84L57.3701 49.91L62.8601 46.74L66.01 44.92V68.12Z" stroke="currentColor" stroke-linejoin="round"/>
    <path d="M60.96 51.7102L55.8999 54.6301L52.3101 52.8401L57.3701 49.9102L60.96 51.7102Z" stroke="currentColor" stroke-linejoin="round"/>
    <path d="M55.8999 64.29V70.09L50.8501 67.57V61.77L55.8999 64.29Z" stroke="currentColor" stroke-linejoin="round"/>
    <path d="M55.8999 54.6298V60.4298L50.8501 57.9099V53.6798L52.3101 52.8398L55.8999 54.6298Z" stroke="currentColor" stroke-linejoin="round"/>
    <path d="M60.96 51.71V57.51L57.3799 59.58L55.8999 60.43V54.63L60.96 51.71Z" stroke="currentColor" stroke-linejoin="round"/>
    <path d="M60.96 61.3702L57.04 63.6301L55.8999 64.2902L50.8501 61.7701V57.9102L55.8999 60.4302L57.3799 59.5802L60.96 61.3702Z" stroke="currentColor" stroke-linejoin="round"/>
    <path d="M60.96 61.3701V67.1701L55.8999 70.0901V64.2901L57.04 63.6301L60.96 61.3701Z" stroke="currentColor" stroke-linejoin="round"/>
    <path d="M66.01 68.1201L62.8601 69.9401L50.8501 76.8801V67.5701L55.8999 70.0901L60.96 67.1701V65.6001L62.8601 66.5501L66.01 68.1201Z" stroke="currentColor" stroke-linejoin="round"/>
    <path d="M66.01 44.9199V68.1199L62.8601 66.5499L60.96 65.5999V61.3699L57.3799 59.5799L60.96 57.5099V51.7099L57.3701 49.9099L62.8601 46.7399L66.01 44.9199Z" stroke="currentColor" stroke-linejoin="round"/>
    <path d="M45.7903 79.79L40.7402 82.71V77.27L45.7903 79.79Z" stroke="currentColor" stroke-linejoin="round"/>
    <path d="M40.74 65.31L35.6899 68.23V62.79L36.8899 63.39L40.74 65.31Z" stroke="currentColor" stroke-linejoin="round"/>
    <path d="M45.79 56.6001V79.7901L40.74 77.2701V65.3101L36.8899 63.3901L35.6899 62.7901V62.4301L37.96 61.1201L43.3401 58.0101L45.79 56.6001Z" stroke="currentColor" stroke-linejoin="round"/>
    <path d="M22.21 47.02V116.61L2.20996 106.61V37.02L22.21 47.02Z" stroke="currentColor" stroke-linejoin="round"/>
</svg>