<svg width="24" height="24" viewBox="0 0 96 121" fill="none" xmlns="http://www.w3.org/2000/svg" stroke-width="1px" stroke-linecap="round" stroke-linejoin="round">
    <path d="M93.6801 12.5129L70.17 26.0829L61.79 30.9229L55.9301 44.0729L50.89 55.4028L35.7001 89.5129L22.79 118.513L83.05 83.7229L93.6901 12.5129H93.6801ZM73.39 61.9429C71.68 64.9029 69.5801 67.0928 67.1001 68.5228C65.8501 69.2528 64.7 69.6628 63.64 69.7728C62.6 69.8828 61.6601 69.6929 60.8101 69.2129C59.1001 68.2329 58.24 66.3229 58.24 63.4729C58.24 60.6229 59.1001 57.7228 60.8101 54.7728C62.4601 51.9228 64.4701 49.7829 66.8401 48.3529C66.9201 48.2929 67.0101 48.2429 67.1001 48.1929C69.5801 46.7529 71.68 46.5329 73.39 47.5029C75.11 48.4829 75.9601 50.3929 75.9601 53.2429C75.9601 56.0929 75.11 58.9929 73.39 61.9429Z" stroke="currentColor" stroke-linejoin="round"/>
    <path d="M75.9603 53.2429C75.9603 56.0929 75.1103 58.9928 73.3903 61.9428C71.6803 64.9028 69.5803 67.0928 67.1003 68.5228C65.8503 69.2528 64.7003 69.6628 63.6403 69.7728C62.6003 69.8828 61.6603 69.6928 60.8103 69.2128C59.1003 68.2328 58.2402 66.3228 58.2402 63.4728C58.2402 60.6228 59.1003 57.7228 60.8103 54.7728C62.4603 51.9228 64.4703 49.7829 66.8403 48.3529C66.9203 48.2929 67.0103 48.2428 67.1003 48.1928C69.5803 46.7528 71.6803 46.5329 73.3903 47.5029C75.1103 48.4829 75.9603 50.3929 75.9603 53.2429Z" stroke="currentColor" stroke-linejoin="round"/>
    <path d="M93.6801 12.5129L70.17 26.0829L61.79 30.9229L41.79 20.9229L73.6901 2.50293L93.6801 12.5129Z" stroke="currentColor" stroke-linejoin="round"/>
    <path d="M61.79 30.9229L55.9301 44.0729L50.89 55.4028L35.7001 89.5129L22.79 118.513L2.79004 108.513L41.79 20.9229L61.79 30.9229Z" stroke="currentColor" stroke-linejoin="round"/>
</svg>