<svg width="48" height="48" viewBox="0 0 70 120" fill="none" xmlns="http://www.w3.org/2000/svg" stroke-width="1px"
     stroke-linecap="round" stroke-linejoin="round">
    <path d="M40.71 17.99V29.59L37.9697 28.22L36.0798 27.28V27.27L31.1699 24.82L20.71 19.59V7.98999L30.3298 12.8L31.7598 13.52L40.71 17.99Z" stroke="currentColor" stroke-linejoin="round"/>
    <path d="M31.8101 86.8999L22.9102 96.1799L2.91016 86.1799L11.8101 76.8999L24.23 83.1099L31.8101 86.8999Z" stroke="currentColor" stroke-linejoin="round"/>
    <path d="M67.9001 68.8299C67.9001 75.3599 66.2101 81.2999 62.8401 86.6499C59.4801 91.9999 55.3101 96.5199 50.3301 100.22V111.81L40.7102 117.37V105.5C36.4602 106.85 32.7902 106.85 29.7102 105.51L28.9502 105.13C28.2702 104.75 27.63 104.28 27.04 103.71C25.27 102.03 23.9002 99.5199 22.9102 96.1799L31.8101 86.8999C32.0001 87.4899 32.2002 88.0399 32.4302 88.5599C33.5902 91.3199 35.1702 93.0999 37.1602 93.8799C39.5302 94.8199 42.64 94.18 46.49 91.95C49.77 90.06 52.5601 87.5999 54.8401 84.5699C57.1301 81.5499 58.27 78.2499 58.27 74.6599C58.27 71.4399 57.3901 69.3899 55.6301 68.5299C54.1701 67.8099 51.13 67.8399 46.5 68.5999C45.52 68.7699 44.4801 68.9599 43.3601 69.1899C41.1101 69.6799 39.1001 69.9799 37.3101 70.0999C34.0501 70.3199 31.5501 69.9299 29.8201 68.9099L29.74 68.8699C29.54 68.7499 29.3402 68.6199 29.1602 68.4799C26.7302 66.6099 25.4501 63.3799 25.3301 58.8099C25.3201 58.5699 25.3201 58.3299 25.3201 58.0799C25.3201 54.1399 26.05 50.3599 27.51 46.7399C28.27 44.8599 29.2201 43.0199 30.3701 41.2199C33.3801 36.5199 36.4401 32.9299 39.5801 30.4399C39.9601 30.1399 40.3302 29.8599 40.7102 29.5899V17.9899L43.9502 16.1199L44.8201 15.6199L50.3301 12.4399V24.0299C54.3401 22.4499 57.65 22.2199 60.26 23.3399C62.86 24.4599 64.77 26.5599 65.97 29.6399L57.0701 39.1899C56.1101 36.7999 54.74 35.3799 52.98 34.9299C51.95 34.6599 50.7 34.7699 49.23 35.2699C48.18 35.6199 47.03 36.1599 45.76 36.8899C42.24 38.9199 39.5502 41.3699 37.7002 44.2299C37.4902 44.5499 37.3001 44.8699 37.1201 45.1899C35.6701 47.7099 34.9402 50.1499 34.9402 52.5199C34.9402 55.5599 36.14 57.2499 38.55 57.6099C40.49 57.8999 43.5701 57.5899 47.8101 56.6799C48.8301 56.4599 49.9101 56.1999 51.0601 55.9099C55.6301 54.7899 59.28 54.9399 62.02 56.3599C62.6 56.6599 63.1401 57.0099 63.6301 57.4199C66.4701 59.7799 67.9001 63.5799 67.9001 68.8299Z" stroke="currentColor" stroke-linejoin="round"/>
    <path d="M28.9502 105.13L26.6101 103.96L20.7102 101.01L9.71021 95.5099C6.62021 94.1599 4.35016 91.0499 2.91016 86.1799L22.9102 96.1799C23.9002 99.5199 25.27 102.03 27.04 103.71C27.63 104.28 28.2702 104.75 28.9502 105.13Z" stroke="currentColor" stroke-linejoin="round"/>
    <path d="M40.71 105.5V117.37L20.71 107.37V101.01L26.6099 103.96L28.95 105.13L29.71 105.51C32.79 106.85 36.46 106.85 40.71 105.5Z" stroke="currentColor" stroke-linejoin="round"/>
    <path d="M62.0203 56.3599C59.2803 54.9399 55.6303 54.7899 51.0603 55.9099C49.9103 56.1999 48.8303 56.4599 47.8103 56.6799C43.5703 57.5899 40.4903 57.8999 38.5503 57.6099C36.1403 57.2499 34.9404 55.5599 34.9404 52.5199C34.9404 50.1499 35.6704 47.7099 37.1204 45.1899C39.0304 45.2399 40.7004 45.6499 42.1104 46.4099L42.1704 46.4399L62.0203 56.3599Z" stroke="currentColor" stroke-linejoin="round"/>
    <path d="M50.3298 12.4399L44.8198 15.6199L43.95 16.1199L40.71 17.9899L31.7598 13.5199L30.3298 12.7999L20.71 7.98993L30.3298 2.43994L50.3298 12.4399Z" stroke="currentColor" stroke-linejoin="round"/>
    <path d="M60.26 23.3399C57.65 22.2199 54.3401 22.4499 50.3301 24.0299V18.3799L60.26 23.3399Z" stroke="currentColor" stroke-linejoin="round"/>
    <path d="M57.0706 39.19L49.2305 35.27" stroke="currentColor" stroke-linejoin="round"/>
    <path d="M40.7104 29.5898C40.3304 29.8598 39.9603 30.1398 39.5803 30.4398C36.4403 32.9298 33.3804 36.5198 30.3704 41.2198C29.2204 43.0198 28.2703 44.8598 27.5103 46.7398C26.0503 50.3598 25.3203 54.1398 25.3203 58.0798C25.3203 58.3298 25.3203 58.5698 25.3303 58.8098C25.4503 63.3798 26.7304 66.6098 29.1604 68.4798C29.3404 68.6198 29.5402 68.7498 29.7402 68.8698L10.7302 59.3498L10.6404 59.3098C10.0804 59.0898 9.5904 58.8098 9.1604 58.4798C6.6004 56.5098 5.32031 53.0398 5.32031 48.0798C5.32031 42.0998 7.00036 36.4798 10.3704 31.2198C13.7404 25.9598 17.1804 22.0898 20.7104 19.5898L31.1704 24.8198L36.0803 27.2699L37.9702 28.2198L40.7104 29.5898Z" stroke="currentColor" stroke-linejoin="round"/>
    <path d="M58.2705 74.6599C58.2705 78.2499 57.1306 81.5499 54.8406 84.5699C52.5606 87.5999 49.7705 90.0599 46.4905 91.9499C42.6405 94.1799 39.5306 94.8199 37.1606 93.8799C35.1706 93.0999 33.5907 91.3199 32.4307 88.5599C32.2007 88.0399 32.0005 87.4899 31.8105 86.8999L24.2305 83.1099C24.9505 82.7899 25.7105 82.3999 26.4905 81.9499C29.7705 80.0599 32.5606 77.5999 34.8406 74.5699C35.9306 73.1399 36.7505 71.6499 37.3105 70.0999C39.1005 69.9799 41.1106 69.6799 43.3606 69.1899C44.4806 68.9599 45.5205 68.7699 46.5005 68.5999C51.1305 67.8399 54.1706 67.8099 55.6306 68.5299C57.3906 69.3899 58.2705 71.4399 58.2705 74.6599Z" stroke="currentColor" stroke-linejoin="round"/>
</svg>