<svg width="48" height="48" viewBox="0 0 107 126" fill="none" xmlns="http://www.w3.org/2000/svg" stroke-width="1px"
     stroke-linecap="round" stroke-linejoin="round">
    <path d="M28.3301 94.5652C28.4601 94.6552 28.5901 94.7352 28.7301 94.8152C29.2601 95.1152 29.8101 95.3752 30.3701 95.5852L28.3301 94.5652Z" stroke="currentColor" stroke-linejoin="round"/>
    <path d="M55.0703 115.635C55.0703 116.975 54.6803 118.325 53.8903 119.685C53.1003 121.055 52.1203 122.075 50.9503 122.745C49.7803 123.415 48.8003 123.535 48.0103 123.085C47.2203 122.635 46.8203 121.735 46.8203 120.395C46.8203 119.055 47.2203 117.705 48.0103 116.335C48.8003 114.975 49.7803 113.955 50.9503 113.285C52.0003 112.675 52.9003 112.525 53.6503 112.825L53.8903 112.945C54.6803 113.395 55.0703 114.295 55.0703 115.635Z" stroke="currentColor" stroke-linejoin="round"/>
    <path d="M79.8203 101.345C79.8203 102.685 79.4203 104.035 78.6303 105.405C77.8403 106.765 76.8603 107.785 75.6903 108.455C74.5203 109.135 73.5403 109.245 72.7503 108.795C71.9603 108.345 71.5703 107.445 71.5703 106.105C71.5703 104.765 71.9603 103.415 72.7503 102.055C73.5403 100.685 74.5203 99.6652 75.6903 98.9952C76.7403 98.3952 77.6403 98.2352 78.3903 98.5352L78.6303 98.6552C79.4203 99.1152 79.8203 100.005 79.8203 101.345Z" stroke="currentColor" stroke-linejoin="round"/>
    <path d="M92.1899 75.2752C92.1899 76.6152 91.7899 77.9652 90.9999 79.3352C90.2099 80.6952 89.2299 81.7152 88.0599 82.3852C86.8899 83.0652 85.9199 83.1752 85.1199 82.7252C84.3299 82.2752 83.9399 81.3752 83.9399 80.0352C83.9399 78.6952 84.3299 77.3452 85.1199 75.9852C85.9199 74.6152 86.8899 73.5952 88.0599 72.9252C89.1099 72.3152 90.0099 72.1652 90.7599 72.4652L90.9999 72.5852C91.7899 73.0352 92.1899 73.9352 92.1899 75.2752Z" stroke="currentColor" stroke-linejoin="round"/>
    <path d="M67.4402 89.5652C67.4402 90.6052 67.2002 91.6552 66.7302 92.7052C66.5902 93.0052 66.4402 93.3152 66.2602 93.6152C65.4702 94.9852 64.4902 95.9952 63.3202 96.6752C62.1502 97.3452 61.1702 97.4652 60.3802 97.0052C59.5902 96.5552 59.2002 95.6652 59.2002 94.3252V94.2452C59.2002 93.3052 59.4202 92.3552 59.8202 91.4052C59.9702 91.0152 60.1602 90.6452 60.3802 90.2652C60.4902 90.0652 60.6102 89.8852 60.7402 89.7052C61.4602 88.6152 62.3202 87.7852 63.3202 87.2052C64.3702 86.6052 65.2702 86.4552 66.0102 86.7552L66.2602 86.8752C67.0502 87.3252 67.4402 88.2152 67.4402 89.5652Z" stroke="currentColor" stroke-linejoin="round"/>
    <path d="M104.56 37.3752C104.56 43.2852 102.75 49.3552 99.1501 55.5852C95.5401 61.8052 91.1601 66.4052 86.0001 69.3852L85.3501 69.7652L73.2101 76.7652L60.6001 84.0452L48.4701 91.0552L44.7601 93.1952C39.2601 96.3752 34.4601 97.1752 30.3701 95.5852L28.3301 94.5652C25.0601 92.5452 23.0701 89.1652 22.3801 84.4352C22.1801 83.1452 22.0801 81.7452 22.0801 80.2552C22.0801 73.7152 23.9701 66.9052 27.7501 59.8352C31.5301 52.7552 36.2001 47.1852 41.7701 43.1052C43.9701 37.3352 46.9801 32.0652 50.7901 27.3052C54.6101 22.5352 58.7801 18.8452 63.3201 16.2252C64.7301 15.4152 66.1001 14.7352 67.4301 14.2152C71.9201 12.4152 75.9201 12.2452 79.4501 13.7152C79.5201 13.7452 79.5801 13.7752 79.6401 13.7952L79.8301 13.8852L80.7901 14.3652C82.5301 15.3252 83.9501 16.6552 85.0701 18.3552C86.3901 20.3552 87.2801 22.8752 87.7501 25.8952C91.8601 23.9352 95.3901 23.6352 98.3601 24.9852C98.8301 25.1952 99.2701 25.4452 99.7101 25.7352C102.94 27.8952 104.56 31.7752 104.56 37.3752Z" stroke="currentColor" stroke-linejoin="round"/>
    <path d="M59.45 3.71524L61.08 4.52524C60.57 4.21524 60.02 3.95524 59.45 3.71524ZM21.51 91.1552C21.36 91.0652 21.19 90.9952 21.02 90.9552L21.79 91.3452C21.7 91.2752 21.61 91.2152 21.51 91.1552Z" stroke="currentColor" stroke-linejoin="round"/>
    <path d="M41.2702 101.035C40.5202 100.735 39.6202 100.895 38.5802 101.495C37.5802 102.075 36.7102 102.905 35.9902 103.995C35.8702 104.175 35.7502 104.365 35.6402 104.555C35.4202 104.945 35.2202 105.325 35.0702 105.715C34.6602 106.675 34.4602 107.615 34.4502 108.555V108.605C34.4502 109.945 34.8502 110.845 35.6402 111.295L15.6402 101.295C14.8502 100.845 14.4502 99.9452 14.4502 98.6052C14.4502 97.2652 14.8502 95.9152 15.6402 94.5552C16.4302 93.1852 17.4102 92.1652 18.5802 91.4952C19.5002 90.9652 20.3102 90.7752 21.0002 90.9552H21.0202L21.7902 91.3452L28.7302 94.8152C29.2602 95.1152 29.8102 95.3752 30.3702 95.5852L41.2702 101.035Z" stroke="currentColor" stroke-linejoin="round"/>
    <path d="M27.7501 59.8352C23.9701 66.9052 22.0801 73.7152 22.0801 80.2552C22.0801 81.7452 22.1801 83.1452 22.3801 84.4352C23.0701 89.1652 25.0601 92.5452 28.3301 94.5652L21.5101 91.1552C21.3601 91.0652 21.1901 90.9952 21.0201 90.9552H21.0001L9.81007 85.3552L8.73007 84.8152C4.30007 82.2852 2.08008 77.4352 2.08008 70.2552C2.08008 63.7152 3.97008 56.9052 7.75008 49.8352C11.5301 42.7552 16.2001 37.1852 21.7701 33.1052L41.7701 43.1052C36.2001 47.1852 31.5301 52.7552 27.7501 59.8352Z" stroke="currentColor" stroke-linejoin="round"/>
    <path d="M79.64 13.7952C79.58 13.7752 79.52 13.7452 79.45 13.7152C75.92 12.2452 71.92 12.4152 67.43 14.2152C66.1 14.7352 64.73 15.4152 63.32 16.2252C58.78 18.8452 54.61 22.5352 50.79 27.3052C46.98 32.0652 43.97 37.3352 41.77 43.1052L21.77 33.1052C23.97 27.3352 26.98 22.0652 30.79 17.3052C34.61 12.5352 38.78 8.84524 43.32 6.22524C49.51 2.65524 54.88 1.81524 59.45 3.71524L61.08 4.52524L61.11 4.54524L79.64 13.7952Z" stroke="currentColor" stroke-linejoin="round"/>
    <path d="M98.3603 24.9852C95.3903 23.6352 91.8603 23.9352 87.7503 25.8952C87.2803 22.8752 86.3903 20.3552 85.0703 18.3552L98.3603 24.9852Z" stroke="currentColor" stroke-linejoin="round"/>
    <path d="M90.7599 72.4652C90.0099 72.1652 89.11 72.3152 88.06 72.9252C86.89 73.5952 85.9199 74.6152 85.1199 75.9852C84.3299 77.3452 83.94 78.6952 83.94 80.0352C83.94 81.3752 84.3299 82.2752 85.1199 82.7252L73.21 76.7652L85.35 69.7652L90.7599 72.4652Z" stroke="currentColor" stroke-linejoin="round"/>
    <path d="M66.0102 86.7552C65.2702 86.4552 64.3702 86.6052 63.3202 87.2052C62.3202 87.7852 61.4602 88.6152 60.7402 89.7052C60.6102 89.8852 60.4902 90.0652 60.3802 90.2652C60.1602 90.6452 59.9702 91.0152 59.8202 91.3952C59.4202 92.3552 59.2102 93.3052 59.2002 94.2452V94.3252C59.2002 95.6652 59.5902 96.5552 60.3802 97.0052L58.2802 95.9552L52.2902 92.9552L48.4702 91.0552L60.6002 84.0452L66.0102 86.7552Z" stroke="currentColor" stroke-linejoin="round"/>
    <path d="M78.3903 98.5352C77.6403 98.2352 76.7403 98.3952 75.6903 98.9952C74.5203 99.6652 73.5403 100.685 72.7503 102.055C71.9603 103.415 71.5703 104.765 71.5703 106.105C71.5703 107.445 71.9603 108.345 72.7503 108.795L52.7503 98.7952C51.9603 98.3452 51.5703 97.4452 51.5703 96.1052C51.5703 95.0652 51.8103 94.0152 52.2903 92.9552L58.2803 95.9552L60.3803 97.0052C61.1703 97.4652 62.1503 97.3452 63.3203 96.6752C64.4903 95.9952 65.4703 94.9852 66.2603 93.6152C66.4403 93.3152 66.5903 93.0052 66.7303 92.7052L78.3903 98.5352Z" stroke="currentColor" stroke-linejoin="round"/>
    <path d="M42.7002 103.845C42.7002 104.885 42.4602 105.935 41.9802 106.995C41.8402 107.295 41.6902 107.595 41.5102 107.905C40.7202 109.265 39.7402 110.285 38.5802 110.955C37.4102 111.635 36.4302 111.745 35.6402 111.295C34.8502 110.845 34.4502 109.945 34.4502 108.605V108.565C34.4502 107.615 34.6602 106.675 35.0702 105.725C35.2202 105.325 35.4202 104.945 35.6402 104.555C35.7502 104.365 35.8702 104.175 35.9902 103.995C36.7102 102.905 37.5802 102.075 38.5802 101.495C39.6202 100.895 40.5202 100.735 41.2702 101.035L41.5102 101.155C42.3002 101.605 42.7002 102.505 42.7002 103.845Z" stroke="currentColor" stroke-linejoin="round"/>
    <path d="M53.6503 112.825C52.9003 112.525 52.0003 112.675 50.9503 113.285C49.7803 113.955 48.8003 114.975 48.0103 116.335C47.2203 117.705 46.8203 119.055 46.8203 120.395C46.8203 121.735 47.2203 122.635 48.0103 123.085L28.2503 113.205L28.0103 113.085C27.2203 112.635 26.8203 111.735 26.8203 110.395C26.8203 109.355 27.0603 108.305 27.5403 107.245L35.6403 111.295C36.4303 111.745 37.4103 111.635 38.5803 110.955C39.7403 110.285 40.7203 109.265 41.5103 107.905C41.6903 107.595 41.8403 107.295 41.9803 106.995L53.6503 112.825Z" stroke="currentColor" stroke-linejoin="round"/>
</svg>