<svg width="48" height="48" viewBox="0 0 107 107" fill="none" xmlns="http://www.w3.org/2000/svg" stroke-width="1px"
     stroke-linecap="round" stroke-linejoin="round">
    <path d="M67.179 87.3599V91.7099L59.7891 95.9799V83.1499C60.7191 84.3099 61.809 85.2399 63.069 85.9199C64.339 86.6099 65.709 87.0899 67.179 87.3599Z" stroke="currentColor" stroke-linejoin="round"/>
    <path d="M89.3591 19.5299C85.7191 22.7599 82.0591 25.7799 78.3591 28.5899C78.0891 28.7899 77.8291 28.9899 77.5591 29.1899C76.9191 29.6799 76.2692 30.1599 75.6292 30.6399C73.0092 32.5599 70.3891 34.4199 67.7391 36.1999C67.5491 36.3299 67.3691 36.4499 67.1791 36.5799V40.9299C63.8591 45.3199 61.1792 50.1399 59.1492 55.3699C58.7792 56.3199 58.4492 57.2599 58.1392 58.1999C57.1192 61.3799 56.4791 64.4899 56.2291 67.5299C56.1391 68.5499 56.0991 69.5499 56.0991 70.5499V71.6099C56.0991 71.9599 56.1291 72.2999 56.1891 72.6099L52.3992 74.7999V100.25L45.0092 104.51V49.3799C44.7692 49.4899 44.5391 49.6099 44.2991 49.7099C41.8091 50.9099 39.3291 52.0299 36.8691 53.0599C35.8591 53.4899 34.8391 53.8999 33.8291 54.2999C30.8691 55.4699 27.9292 56.4799 25.0092 57.3299C24.2792 57.5499 23.5591 57.7499 22.8291 57.9399L24.6791 48.3899C24.7891 48.3599 24.8992 48.3299 25.0092 48.2999C30.0792 46.9499 35.1491 45.0999 40.2391 42.7499H40.2491C43.2791 41.3499 46.3392 39.8299 49.4192 38.1899C51.6292 37.0199 53.8591 35.7899 56.0991 34.4999C60.8691 31.7399 65.5691 28.7899 70.2191 25.6299C70.7891 25.2399 71.3691 24.8499 71.9391 24.4499C77.1491 20.8399 82.3392 16.7299 87.5092 12.1199L89.3591 19.5299Z" stroke="currentColor" stroke-linejoin="round"/>
    <path d="M94.1593 58.7499C95.0293 56.6899 95.6692 54.6899 96.0992 52.7499C96.5392 50.7999 96.7493 48.9099 96.7493 47.0699C96.7493 41.7699 95.1293 38.1999 91.8993 36.3599L90.8893 35.8599C87.8593 34.6199 84.2693 35.1998 80.1193 37.5898C78.8893 38.2998 77.6992 39.1099 76.5692 40.0299C73.4492 42.5599 70.7092 45.8699 68.3392 49.9599C65.7192 54.4899 64.1493 58.9399 63.6593 63.2799C63.5493 64.2899 63.4893 65.2899 63.4893 66.2799C63.4893 71.5799 65.1092 75.1499 68.3392 76.9999C71.5692 78.8399 75.4993 78.4298 80.1193 75.7598C81.7193 74.8398 83.2593 73.6999 84.7393 72.3499C86.0793 71.1299 87.3592 69.7398 88.5892 68.1698C88.7292 68.0098 88.8593 67.8398 88.9893 67.6698L98.9692 73.3599L104.139 64.4399L94.1593 58.7499ZM86.6792 60.4199C85.5492 62.3599 84.2692 63.9798 82.8292 65.2898C81.9792 66.0698 81.0793 66.7298 80.1193 67.2799C77.5293 68.7699 75.3492 69.0099 73.5592 67.9899C71.7692 66.9699 70.8793 64.9798 70.8793 62.0098C70.8793 60.9898 70.9792 59.9599 71.1992 58.9299C71.5992 56.9599 72.3892 54.9599 73.5592 52.9399C74.2592 51.7399 75.0092 50.6599 75.8292 49.6999C77.1092 48.1999 78.5393 46.9899 80.1193 46.0699C82.7093 44.5799 84.8892 44.3399 86.6792 45.3599C88.4692 46.3799 89.3593 48.3698 89.3593 51.3398C89.3593 54.3098 88.4692 57.3399 86.6792 60.4199Z" stroke="currentColor" stroke-linejoin="round"/>
    <path d="M89.3589 51.3399C89.3589 54.3099 88.4688 57.3399 86.6788 60.4199C85.5488 62.3599 84.2689 63.9799 82.8289 65.2899C81.9789 66.0699 81.0789 66.7299 80.1189 67.2799C77.5289 68.7699 75.3488 69.0099 73.5588 67.9899C71.7688 66.9699 70.8789 64.9799 70.8789 62.0099C70.8789 60.9899 70.9789 59.9599 71.1989 58.9299C71.5989 56.9599 72.3888 54.9599 73.5588 52.9399C74.2588 51.7399 75.0089 50.6599 75.8289 49.6999C77.1089 48.1999 78.5389 46.9899 80.1189 46.0699C82.7089 44.5799 84.8888 44.3399 86.6788 45.3599C88.4688 46.3799 89.3589 48.3699 89.3589 51.3399Z" stroke="currentColor" stroke-linejoin="round"/>
    <path d="M87.5093 12.1199C82.3393 16.7299 77.1492 20.8399 71.9392 24.4499C71.3692 24.8499 70.7892 25.2399 70.2192 25.6299C65.5692 28.7899 60.8692 31.7399 56.0992 34.4999C53.8592 35.7899 51.6293 37.0199 49.4193 38.1899C46.3393 39.8299 43.2793 41.3499 40.2493 42.7499H40.2393C35.1493 45.0999 30.0793 46.9499 25.0093 48.2999C24.8993 48.3299 24.7892 48.3599 24.6792 48.3899L4.6792 38.3899C9.8592 37.0299 15.0493 35.1499 20.2493 32.7499C25.4593 30.3399 30.7392 27.5899 36.0992 24.4999C36.4392 24.2999 36.7893 24.0999 37.1293 23.8999L47.1792 28.9299L50.8793 30.7799C52.3193 31.5999 54.0592 31.4299 56.0992 30.2599C56.6092 29.9599 57.0992 29.6299 57.5692 29.2499C57.5792 29.2499 57.5892 29.2499 57.5892 29.2499C58.9892 28.1199 60.2392 26.6299 61.3192 24.7599C62.7592 22.2599 63.4893 19.8499 63.4893 17.5199C63.4893 16.4999 63.3492 15.6199 63.0592 14.8899C62.7092 13.9499 62.1292 13.2499 61.3192 12.7799L57.1293 10.6899C60.5993 8.05988 64.0593 5.20988 67.5093 2.12988L87.5093 12.1299V12.1199Z" stroke="currentColor" stroke-linejoin="round"/>
    <path d="M63.4893 17.5099C63.4893 19.8399 62.7592 22.2499 61.3192 24.7499C60.2392 26.6199 58.9892 28.1099 57.5892 29.2399C57.5892 29.2399 57.5892 29.2399 57.5692 29.2399C57.0992 29.6199 56.6092 29.9499 56.0992 30.2499C54.0592 31.4199 52.3193 31.5899 50.8793 30.7699C49.4293 29.9399 48.6992 28.3699 48.6992 26.0299C48.6992 25.8599 48.6992 25.6899 48.7192 25.5199C48.8092 23.3499 49.5393 21.1099 50.8793 18.7899C52.3193 16.2899 54.0592 14.4599 56.0992 13.2799C58.1292 12.1099 59.8692 11.9399 61.3192 12.7599C62.1292 13.2299 62.7092 13.9299 63.0592 14.8699C63.3492 15.5999 63.4893 16.4799 63.4893 17.4999V17.5099Z" stroke="currentColor" stroke-linejoin="round"/>
    <path d="M61.3192 12.7699C59.8692 11.9499 58.1292 12.1199 56.0992 13.2899C54.0592 14.4699 52.3193 16.2999 50.8793 18.7999C49.5393 21.1199 48.8092 23.3599 48.7192 25.5299C48.6992 25.6999 48.6992 25.8699 48.6992 26.0399C48.6992 28.3799 49.4293 29.9499 50.8793 30.7799L47.1792 28.9299L37.1293 23.8999L30.8793 20.7799C29.4293 19.9499 28.6992 18.3799 28.6992 16.0399C28.6992 13.6999 29.4293 11.2999 30.8793 8.79992C32.3193 6.29992 34.0592 4.46991 36.0992 3.28991C38.1292 2.11991 39.8692 1.94992 41.3192 2.76992L57.1293 10.6799L61.3192 12.7699Z" stroke="currentColor" stroke-linejoin="round"/>
    <path d="M24.6791 48.3899L22.8291 57.9399L2.8291 47.9399L4.67908 38.3899L24.6791 48.3899Z" stroke="currentColor" stroke-linejoin="round"/>
    <path d="M45.0093 49.3799V104.51L25.0093 94.5099V57.3299C27.9293 56.4799 30.8692 55.4699 33.8292 54.2999C34.8392 53.8999 35.8593 53.4899 36.8693 53.0599C39.3293 52.0299 41.8092 50.9099 44.2992 49.7099C44.5392 49.6099 44.7693 49.4899 45.0093 49.3799Z" stroke="currentColor" stroke-linejoin="round"/>
    <path d="M59.7894 83.15V95.9799L52.3994 92.2899V79.46L59.7894 83.15Z" stroke="currentColor" stroke-linejoin="round"/>
    <path d="M90.8892 35.8599C87.8592 34.6199 84.2691 35.1999 80.1191 37.5899C78.8891 38.2999 77.6991 39.1099 76.5691 40.0299C73.4491 42.5599 70.7091 45.8699 68.3391 49.9599C65.7191 54.4899 64.1492 58.9399 63.6592 63.2799C63.5492 64.2899 63.4891 65.2899 63.4891 66.2799C63.4891 71.5799 65.1091 75.1499 68.3391 76.9999L56.0991 70.8799V70.5499C56.0991 69.5499 56.1391 68.5499 56.2291 67.5299C56.4791 64.4899 57.1192 61.3799 58.1392 58.1999C58.4492 57.2599 58.7792 56.3199 59.1492 55.3699C61.1792 50.1399 63.8591 45.3199 67.1791 40.9299V36.5799C67.3691 36.4499 67.5491 36.3299 67.7391 36.1999C70.3891 34.4199 73.0092 32.5599 75.6292 30.6399C76.2692 30.1599 76.9191 29.6799 77.5591 29.1899L90.8892 35.8599Z" stroke="currentColor" stroke-linejoin="round"/>
    <path d="M98.9689 73.3599L88.5889 68.1699C88.7289 68.0099 88.8589 67.8399 88.9889 67.6699L98.9689 73.3599Z" stroke="currentColor" stroke-linejoin="round"/>
</svg>