<svg width="24" height="24" viewBox="0 0 96 121" fill="none" xmlns="http://www.w3.org/2000/svg" stroke-width="1px" stroke-linecap="round" stroke-linejoin="round">
    <path d="M88.9496 53.6199L68.8896 88.2099L58.7796 82.6399L53.8096 91.2099L68.8896 99.8099L93.9096 56.6599L88.9496 53.6199Z" stroke="currentColor" stroke-linejoin="round"/>
    <path d="M93.9097 12.0598V44.6398L86.8197 48.7398V32.4498L71.6997 41.1798L69.1197 42.6698L59.6597 48.1298L30.0297 65.2298V81.5198L35.4397 78.3998L42.1697 74.5098L42.3297 74.4198L55.4897 66.8198L65.5997 60.9898L83.2797 50.7798L84.2397 50.2298L83.7697 51.0298L68.8897 76.6998L59.5697 71.3798L58.8697 70.9798L53.6097 80.0498L48.6397 88.6198L48.1797 89.4098L43.7797 96.9998L44.5797 97.5598V105.7L22.9297 118.2V53.0398L66.8197 27.6998L73.9097 23.6098L93.9097 12.0598Z" stroke="currentColor" stroke-linejoin="round"/>
    <path d="M68.8897 99.8099L48.8897 89.8099L48.1797 89.4099L48.6397 88.6199L49.3697 88.9899L53.8097 91.2099L68.8897 99.8099Z" stroke="currentColor" stroke-linejoin="round"/>
    <path d="M22.9297 53.0398V118.2L2.92969 108.2V43.0398L18.0497 50.5998L22.9297 53.0398Z" stroke="currentColor" stroke-linejoin="round"/>
    <path d="M93.9097 12.0598L73.9097 23.6098L66.8197 27.6998L22.9297 53.0398L18.0497 50.5998L2.92969 43.0398L73.9097 2.05981L93.9097 12.0598Z" stroke="currentColor" stroke-linejoin="round"/>
    <path d="M86.8192 32.4497V48.7397L71.6992 41.1797L86.8192 32.4497Z" stroke="currentColor" stroke-linejoin="round"/>
    <path d="M88.9498 53.6198L68.8898 88.2098L58.7798 82.6398L54.3398 80.4198L59.5698 71.3798L68.8898 76.6998L83.7698 51.0298L88.9498 53.6198Z" stroke="currentColor" stroke-linejoin="round"/>
    <path d="M58.7796 82.6398L53.8096 91.2098L49.3696 88.9898L48.6396 88.6198L53.6096 80.0498L54.3396 80.4198L58.7796 82.6398Z" stroke="currentColor" stroke-linejoin="round"/>
    <path d="M84.2393 50.2299L83.2793 50.7799L65.5993 60.9899L55.4893 66.8199L42.3293 74.4199L42.1693 74.5099L35.4393 78.3999L30.0293 81.5199V65.2299L59.6593 48.1299L69.1193 42.6699L84.2393 50.2299Z" stroke="currentColor" stroke-linejoin="round"/>
</svg>