<svg width="48" height="48" viewBox="0 0 97 121" fill="none" xmlns="http://www.w3.org/2000/svg" stroke-width="1px" stroke-linecap="round" stroke-linejoin="round"><path d="M67.0298 73.3298L67.0698 73.3098V73.2798C67.0698 73.2798 67.0498 73.3198 67.0298 73.3298Z" stroke="#229EFF" stroke-linejoin="round"/><path d="M64.03 24.4699L50.46 32.2999L36.9 40.1299L30.11 44.0499L22.98 48.1699V118.23L42.65 106.87C41.74 105.64 41.07 104.17 40.61 102.45C40.16 100.74 39.94 98.8399 39.94 96.7599C39.94 96.5599 39.94 96.3499 39.95 96.1599C39.95 95.6699 39.96 95.1999 39.98 94.7399C40.01 94.1099 40.08 93.4399 40.19 92.7199L36.89 94.6299L36.54 94.8299V79.2599L40.29 77.0899L45.84 73.8899L49.01 72.0599C50.65 69.8799 52.42 67.9099 54.31 66.1299C55.94 64.5999 57.65 63.2899 59.43 62.1799C59.57 62.0899 59.71 61.9999 59.85 61.9199C60 61.8299 60.14 61.7499 60.29 61.6599L60.64 61.4599L62.58 60.3399L66.63 57.9999L67.24 57.6399L74.13 53.6699L78.72 51.0199L80.64 49.9099C81.26 49.5499 81.84 49.2299 82.38 48.9499C82.92 48.6799 83.47 48.4399 84.03 48.2399V12.9199L64.03 24.4699ZM50.11 63.6399L36.54 71.4799V55.9099L50.11 48.0699V63.6399ZM70.46 51.8899L65.24 54.9099L63.02 56.1899L56.9 59.7299V44.1599L70.46 36.3199V51.8899Z" stroke="#229EFF" stroke-linejoin="round"/><path d="M94.2099 65.4297C94.2099 69.7097 92.8799 74.1397 90.2199 78.7297C87.5699 83.3097 84.3699 86.6797 80.6399 88.8297L73.8599 92.7497V84.9597L80.6399 81.0497C82.5099 79.9697 84.0999 78.2897 85.4299 75.9897C86.7599 73.6997 87.4199 71.4897 87.4199 69.3497C87.4199 67.2097 86.7599 65.7597 85.4299 64.9997C84.0999 64.2397 82.5099 64.3997 80.6399 65.4797L77.0299 67.5697L73.8599 69.3997V61.6097L80.6399 57.6897C84.0899 55.6997 87.0899 55.2597 89.6199 56.3897L90.2199 56.6897C92.8799 58.1697 94.2099 61.0797 94.2099 65.4297Z" stroke="#229EFF" stroke-linejoin="round"/><path d="M53.8604 74.9599V74.9799H53.8703C53.8703 74.9799 53.8903 74.9499 53.9003 74.9399L53.8604 74.9599Z" stroke="#229EFF" stroke-linejoin="round"/><path d="M80.6401 69.3698L63.0201 79.5398L60.2901 81.1198L58.3501 80.1498L57.3701 79.6598C58.0101 78.9198 58.7101 78.2898 59.4601 77.7598C59.7301 77.5698 60.0101 77.3898 60.2901 77.2298L67.0301 73.3298L67.0701 73.3098V66.0098L70.7201 67.8298L73.8601 69.3998L77.0301 67.5698L80.6401 69.3698Z" stroke="#229EFF" stroke-linejoin="round"/><path d="M67.0702 65.5298V73.2798C67.0702 73.2798 67.0502 73.3198 67.0302 73.3298L60.2902 77.2298C60.0102 77.3898 59.7302 77.5698 59.4602 77.7598C58.7102 78.2898 58.0102 78.9198 57.3702 79.6598C56.8602 80.2198 56.3902 80.8398 55.9602 81.5298C55.8002 81.7798 55.6502 82.0198 55.5002 82.2798C55.3802 82.4898 55.2602 82.7098 55.1502 82.9198C55.0802 83.0398 55.0102 83.1698 54.9602 83.2998C54.5402 84.1298 54.2102 84.9398 53.9802 85.7498C53.6602 86.8298 53.5002 87.8898 53.5002 88.9298C53.5002 91.0698 54.1702 92.5198 55.5002 93.2798C56.8202 94.0298 58.4202 93.8798 60.2902 92.7998L66.6302 89.1298L67.0702 88.8798V96.6698L60.2902 100.58C56.5602 102.74 53.3602 103.06 50.7102 101.54C48.0502 100.03 46.7202 97.1298 46.7202 92.8498C46.7202 89.7198 47.4302 86.4998 48.8602 83.1998C49.2502 82.2898 49.7002 81.3698 50.2102 80.4498C50.3702 80.1498 50.5402 79.8498 50.7102 79.5498C51.2102 78.6898 51.7202 77.8698 52.2602 77.0998C52.7702 76.3498 53.3102 75.6398 53.8602 74.9798H53.8702C53.8702 74.9798 53.8902 74.9498 53.9002 74.9398H53.9102C55.8302 72.6198 57.9502 70.7998 60.2902 69.4398L64.9602 66.7498H64.9702L66.6302 65.7798L67.0702 65.5298Z" stroke="#229EFF" stroke-linejoin="round"/><path d="M70.4604 51.8899L65.2404 54.9099L63.0204 56.1899L56.9004 59.7299V45.1099L61.3204 47.3199L70.4604 51.8899Z" stroke="#229EFF" stroke-linejoin="round"/><path d="M84.03 12.9199L64.03 24.4699L50.46 32.2999L36.9 40.1299L30.11 44.0499L22.98 48.1699L17.43 45.3999L2.97998 38.1699L64.03 2.91992L84.03 12.9199Z" stroke="#229EFF" stroke-linejoin="round"/><path d="M53.8699 74.97L53.8599 74.96" stroke="#229EFF" stroke-linejoin="round"/><path d="M87.42 69.3502C87.42 71.4902 86.76 73.7002 85.43 75.9902C84.1 78.2902 82.51 79.9702 80.64 81.0502L73.86 84.9602L70.25 83.1602L80.64 77.1602V69.3702L77.03 67.5702L80.64 65.4802C82.51 64.4002 84.1 64.2402 85.43 65.0002C86.76 65.7602 87.42 67.2102 87.42 69.3502Z" stroke="#229EFF" stroke-linejoin="round"/><path d="M80.64 69.3701V77.1601L70.25 83.1601L63.4601 87.0801L63.0201 87.3301L60.29 88.9101V81.1201L63.0201 79.5401L80.64 69.3701Z" stroke="#229EFF" stroke-linejoin="round"/><path d="M73.86 84.9602V92.7502L67.07 89.3602V88.8801L63.46 87.0802L70.25 83.1602L73.86 84.9602Z" stroke="#229EFF" stroke-linejoin="round"/><path d="M60.29 81.1202V88.9102L53.98 85.7502C54.21 84.9402 54.54 84.1302 54.96 83.3002C55.01 83.1702 55.08 83.0402 55.15 82.9202C55.26 82.7102 55.38 82.4902 55.5 82.2802C55.65 82.0202 55.8 81.7802 55.96 81.5402C56.39 80.8402 56.86 80.2202 57.37 79.6602L58.35 80.1502L60.29 81.1202Z" stroke="#229EFF" stroke-linejoin="round"/><path d="M67.07 88.88L66.63 89.13L60.29 92.8C58.42 93.88 56.82 94.03 55.5 93.28C54.17 92.52 53.5 91.07 53.5 88.93C53.5 87.89 53.66 86.83 53.98 85.75L60.29 88.91L63.02 87.33L63.46 87.08L67.07 88.88Z" stroke="#229EFF" stroke-linejoin="round"/><path d="M73.8601 61.61V69.4L70.7201 67.83L67.0701 66.01V65.53L65.9701 64.98L60.6401 62.32L59.8501 61.92C60.0001 61.83 60.1401 61.75 60.2901 61.66L60.6401 61.46L62.5801 60.34L66.6301 58L67.3601 58.36L73.3801 61.37L73.8601 61.61Z" stroke="#229EFF" stroke-linejoin="round"/><path d="M89.6199 56.39C87.0899 55.26 84.0899 55.7 80.6399 57.69L73.8599 61.61L73.3799 61.37L67.3599 58.36L66.6299 58L67.2399 57.64L74.1299 53.67L78.7199 51.02L89.6199 56.39Z" stroke="#229EFF" stroke-linejoin="round"/><path d="M67.0701 65.5299L66.6301 65.7799L64.97 66.7399H64.9601L60.29 69.4399C57.95 70.7999 55.83 72.6199 53.91 74.9299H53.9L53.86 74.9599V74.9799C53.31 75.6399 52.77 76.3499 52.26 77.0999C51.72 77.8699 51.2101 78.6899 50.7101 79.5499C50.5401 79.8499 50.3701 80.1499 50.2101 80.4499C49.7001 81.3699 49.25 82.2899 48.86 83.1999C47.43 86.4999 46.72 89.7199 46.72 92.8499C46.72 97.1299 48.0501 100.03 50.7101 101.54L39.95 96.1599C39.95 95.6699 39.96 95.1999 39.98 94.7399C40.01 94.1099 40.08 93.4399 40.19 92.7199L38.08 91.6599H38.0701L36.54 90.8999V79.2599L40.29 77.0899L45.84 73.8899L49.01 72.0599C50.65 69.8799 52.42 67.9099 54.31 66.1299C55.94 64.5999 57.65 63.2899 59.43 62.1799C59.57 62.0899 59.7101 61.9999 59.8501 61.9199L60.64 62.3199L65.97 64.9799L67.0701 65.5299Z" stroke="#229EFF" stroke-linejoin="round"/><path d="M40.19 92.7199L36.89 94.6299L36.54 94.8299V90.8999L38.0701 91.6599H38.08L40.19 92.7199Z" stroke="#229EFF" stroke-linejoin="round"/><path d="M22.98 48.1699V118.23L2.97998 108.23V38.1699L17.43 45.3999L22.98 48.1699Z" stroke="#229EFF" stroke-linejoin="round"/><path d="M50.11 63.6399L36.54 71.4799V56.8599L40.95 59.0599L47.0701 62.1199L50.11 63.6399Z" stroke="#229EFF" stroke-linejoin="round"/><path d="M50.11 48.0698V63.6398L47.0701 62.1198L40.95 59.0598L36.54 56.8598V55.9098L50.11 48.0698Z" stroke="#229EFF" stroke-linejoin="round"/><path d="M70.4599 36.3198V51.8898L61.3199 47.3198L56.8999 45.1098V44.1598L70.4599 36.3198Z" stroke="#229EFF" stroke-linejoin="round"/></svg>