<svg width="48" height="48" viewBox="0 0 98 110" fill="none" xmlns="http://www.w3.org/2000/svg" stroke-width="1px"
     stroke-linecap="round" stroke-linejoin="round">
    <path d="M81.4011 36.0942V43.9742L75.1311 47.5942L74.5312 47.9443V40.0643L75.1311 39.7142L81.4011 36.0942Z" stroke="currentColor" stroke-linejoin="round"/>
    <path d="M75.041 71.2843L60.791 79.5143V71.6343L67.071 68.0143L67.731 67.6343L70.3608 68.9443L75.041 71.2843Z" stroke="currentColor" stroke-linejoin="round"/>
    <path d="M74.5312 40.0643V47.9443L68.2612 44.8143L54.5312 37.9443V37.5443L54.9111 37.7242L60.2812 40.4143L67.2212 36.4043L68.2612 36.9343L74.5312 40.0643Z" stroke="currentColor" stroke-linejoin="round"/>
    <path d="M46.5398 32.5841L41.1697 29.9041L33.9297 26.2841L26.5398 22.5841L19.6797 18.6641L26.7397 22.1941L26.9897 22.3241L33.9297 25.7941L39.6797 28.6641L41.4998 29.7041L46.5398 32.5841Z" stroke="currentColor" stroke-linejoin="round"/>
    <path d="M60.7898 16.4741L39.6797 28.6642L33.9297 25.7942L26.9897 22.3242L26.7397 22.1942L19.6797 18.6642L40.7898 6.47412L55.4197 13.7842L60.7898 16.4741Z" stroke="currentColor" stroke-linejoin="round"/>
    <path d="M26.4602 43.3843L6.46021 33.3843L1.99023 30.8442L21.9902 40.8442L26.4602 43.3843Z" stroke="currentColor" stroke-linejoin="round"/>
    <path d="M26.8003 32.5542L26.1902 33.6041L21.9902 40.8441L26.4602 43.3842V107.214L81.9102 75.2042L89.9802 79.6041L94.7903 71.3142L26.8003 32.5542ZM40.1902 91.4042L33.3301 95.3741V87.4941L40.1902 83.5242V91.4042ZM40.1902 75.6442L39.3003 76.1642L33.3301 79.6141V71.7341L33.9302 71.3842L40.1902 67.7642V75.6442ZM40.1902 59.8842L39.3003 60.4042L33.3301 63.8541V55.9741L33.9302 55.6241L40.1902 52.0042V59.8842ZM53.9302 83.4741L47.0603 87.4442V79.5642L53.9302 75.5941V83.4741ZM53.9302 67.7141L47.0603 71.6842V63.8042L53.2202 60.2441L53.9302 59.8342V67.7141ZM60.7903 79.5142V71.6342L67.0703 68.0142L67.7302 67.6342L68.1802 67.3741L70.5002 68.7042L75.0403 71.2842L60.7903 79.5142Z" stroke="currentColor" stroke-linejoin="round"/>
    <path d="M40.1902 91.4042L33.3301 95.3741V87.9741L40.1902 91.4042Z" stroke="currentColor" stroke-linejoin="round"/>
    <path d="M75.0405 71.2841L70.3604 68.9441L67.7305 67.634L68.1804 67.374L70.5005 68.7041L75.0405 71.2841Z" stroke="currentColor" stroke-linejoin="round"/>
    <path d="M40.1902 83.5242V91.4042L33.3301 87.9741V87.4941L40.1902 83.5242Z" stroke="currentColor" stroke-linejoin="round"/>
    <path d="M53.9304 83.4741L47.0605 87.4442V80.0442L53.9304 83.4741Z" stroke="currentColor" stroke-linejoin="round"/>
    <path d="M53.9304 75.5942V83.4742L47.0605 80.0443V79.5643L53.9304 75.5942Z" stroke="currentColor" stroke-linejoin="round"/>
    <path d="M40.1902 75.6442L39.3003 76.1642L33.3301 79.6141V72.2141L33.9302 72.5142L40.1902 75.6442Z" stroke="currentColor" stroke-linejoin="round"/>
    <path d="M40.1902 67.7642V75.6442L33.9302 72.5142L33.3301 72.2141V71.7341L33.9302 71.3842L40.1902 67.7642Z" stroke="currentColor" stroke-linejoin="round"/>
    <path d="M40.1902 52.0042V59.8842L33.9302 56.7542L33.3301 56.4542V55.9741L33.9302 55.6241L40.1902 52.0042Z" stroke="currentColor" stroke-linejoin="round"/>
    <path d="M40.1902 59.884L39.3003 60.4041L33.3301 63.854V56.4541L33.9302 56.754L40.1902 59.884Z" stroke="currentColor" stroke-linejoin="round"/>
    <path d="M53.9304 67.7141L47.0605 71.6842V64.2842L48.5605 65.0242L53.9304 67.7141Z" stroke="currentColor" stroke-linejoin="round"/>
    <path d="M53.9304 59.8342V67.7141L48.5605 65.0242L47.0605 64.2842V63.8042L53.2205 60.2441L53.9304 59.8342Z" stroke="currentColor" stroke-linejoin="round"/>
    <path d="M95.1299 12.4043L75.1299 23.9543L68.26 27.9243L66.77 28.7843L61.3999 31.8843L60.79 32.2343V16.4742L55.4199 13.7843L75.1299 2.4043L95.1299 12.4043Z" stroke="currentColor" stroke-linejoin="round"/>
    <path d="M81.4006 36.0942L75.1306 39.7142L74.5308 40.0643L68.2607 36.9343L67.2207 36.4043L68.2607 35.8043L74.0906 32.4343L75.1306 32.9642L81.4006 36.0942Z" stroke="currentColor" stroke-linejoin="round"/>
    <path d="M95.1296 60.2843L75.1296 50.2843L68.2598 46.3643L75.1296 49.8043L88.2598 56.3643L95.1296 60.2843Z" stroke="currentColor" stroke-linejoin="round"/>
    <path d="M88.2598 24.2544V56.3644L75.1296 49.8044L68.2598 46.3644V44.8145L74.5298 47.9445L75.1296 47.5944L81.3997 43.9744V36.0944L75.1296 32.9644L74.0896 32.4344L75.1296 31.8345L88.2598 24.2544Z" stroke="currentColor" stroke-linejoin="round"/>
    <path d="M95.1296 12.4043V60.2843L88.2598 56.3643V24.2543L75.1296 31.8344L74.0896 32.4343L68.2598 35.8043L67.2197 36.4043L60.2798 40.4143L55.2397 37.5343L54.5298 37.1243L53.9297 36.7843V28.3143L46.5398 32.5844L41.4998 29.7043L39.6797 28.6643L60.7898 16.4742V32.2343L61.3997 31.8843L66.7698 28.7843L68.2598 27.9243L75.1296 23.9543L95.1296 12.4043Z" stroke="currentColor" stroke-linejoin="round"/>
    <path d="M60.2798 40.4142L54.9097 37.7241L54.5298 37.5442L40.2798 30.4142L33.9297 26.7842L40.6997 30.1742L53.9297 36.7842L54.5298 37.1241L55.2397 37.5342L60.2798 40.4142Z" stroke="currentColor" stroke-linejoin="round"/>
    <path d="M53.9297 28.3142V36.7842L40.6997 30.1742L33.9297 26.7842V26.2842L41.1697 29.9042L46.5398 32.5842L53.9297 28.3142Z" stroke="currentColor" stroke-linejoin="round"/>
    <path d="M26.8003 32.5542L26.1902 33.6041L21.9902 40.8441L1.99023 30.8441L6.80029 22.5542L26.8003 32.5542Z" stroke="currentColor" stroke-linejoin="round"/>
    <path d="M26.4609 43.3843V107.214L6.46094 97.2142V33.3843L26.4609 43.3843Z" stroke="currentColor" stroke-linejoin="round"/>
</svg>