<svg width="48" height="48" viewBox="0 0 103 124" fill="none" xmlns="http://www.w3.org/2000/svg" stroke-width="1px" stroke-linecap="round" stroke-linejoin="round"><path d="M81.1392 103.47L65.3992 112.56V121.6L41.7793 121.68L57.5193 112.59V103.56L81.1392 103.47Z" stroke="#229EFF" stroke-linejoin="round"/><path d="M100.82 65.0098C100.82 68.7698 99.6799 72.6298 97.3799 76.5998C95.0799 80.5598 92.3 83.4798 89.02 85.3798C85.74 87.2698 82.9499 87.5599 80.6499 86.2499C78.3499 84.9499 77.21 82.4098 77.21 78.6398C77.21 74.8698 78.3499 71.0198 80.6499 67.0598C82.9499 63.0998 85.74 60.1698 89.02 58.2698C92.05 56.5298 94.6498 56.1398 96.8398 57.1298L97.3799 57.3998C99.6799 58.7098 100.82 61.2398 100.82 65.0098Z" stroke="#229EFF" stroke-linejoin="round"/><path d="M91.9697 52.0499L89.5198 53.47L89.0198 53.7599C84.9698 56.0999 81.4698 59.67 78.5098 64.47C78.5098 64.48 78.5097 64.4899 78.4797 64.5099C78.2797 64.8299 78.0796 65.16 77.8896 65.49C77.4396 66.26 77.0297 67.0299 76.6597 67.7899C74.3997 72.2899 73.2698 76.6699 73.2698 80.9199V85.4299L59.3396 93.48L49.1396 99.37L44.9297 101.8C44.5997 103.1 44.1596 104.37 43.6096 105.63C42.8596 107.36 41.9097 109.06 40.7397 110.71C40.5197 111.02 40.2996 111.32 40.0696 111.62C38.2396 114.02 36.1797 115.88 33.8997 117.2C33.7197 117.3 33.5496 117.4 33.3796 117.48C30.3196 119.12 27.7196 119.31 25.5396 118.07C23.5396 116.93 22.4197 114.87 22.1597 111.87C22.1497 111.81 22.1496 111.74 22.1396 111.68C22.1396 111.62 22.1296 111.55 22.1296 111.48C22.1096 111.15 22.0996 110.81 22.0996 110.46C22.0996 106.7 23.2396 102.84 25.5396 98.87C27.8396 94.91 30.6197 91.99 33.8997 90.09C36.4597 88.62 38.7397 88.1499 40.7397 88.6799C40.9297 88.7299 41.1098 88.79 41.2798 88.86C41.4798 88.93 41.6696 89.01 41.8596 89.1L41.9297 89.1299C42.0897 89.2199 42.2396 89.3099 42.3896 89.4099C43.5296 90.1099 44.3797 91.2399 44.9297 92.7599L65.7896 80.72C65.8696 80.13 65.9596 79.54 66.0596 78.95C66.1996 78.14 66.3696 77.3299 66.5496 76.5199C67.5196 72.3799 69.1196 68.2299 71.3496 64.0699C73.8896 59.3499 76.8997 55.19 80.4197 51.59C80.9897 50.98 81.5997 50.3899 82.2197 49.8199C82.2497 49.7799 82.2896 49.75 82.3196 49.72L76.8096 24.6699L69.1096 29.12L61.4597 33.5299V24.5L67.3396 21.11L83.1096 12L91.9697 52.0499Z" stroke="#229EFF" stroke-linejoin="round"/><path d="M77.8901 65.4899C77.4401 66.2599 77.0302 67.0298 76.6602 67.7898C76.9002 67.3998 77.1401 67.0099 77.3801 66.5999C77.7901 65.8999 78.1602 65.1998 78.4802 64.5098C78.2802 64.8298 78.0801 65.1599 77.8901 65.4899Z" stroke="#229EFF" stroke-linejoin="round"/><path d="M61.46 24.5V33.5299L60.8999 33.25L41.46 23.5299V14.5L49.8398 18.6899L58.6599 23.1L61.46 24.5Z" stroke="#229EFF" stroke-linejoin="round"/><path d="M83.1099 12.0001L67.3398 21.11L61.46 24.5001L58.6599 23.1L49.8398 18.69L41.46 14.5001L63.1099 2L83.1099 12.0001Z" stroke="#229EFF" stroke-linejoin="round"/><path d="M82.3193 49.72L62.3193 39.72L60.8994 33.25L61.4595 33.5299L69.1094 29.12L76.8093 24.6699L82.3193 49.72Z" stroke="#229EFF" stroke-linejoin="round"/><path d="M57.52 112.59L41.78 121.68L33.3799 117.48C33.5499 117.4 33.7199 117.3 33.8999 117.2C36.1799 115.88 38.2398 114.02 40.0698 111.62C40.2998 111.32 40.52 111.02 40.74 110.71C41.91 109.06 42.8599 107.36 43.6099 105.63L45.3999 106.53L57.52 112.59Z" stroke="#229EFF" stroke-linejoin="round"/><path d="M57.5195 103.56V112.59L45.3994 106.53L43.6094 105.63C44.1594 104.37 44.5994 103.1 44.9294 101.8L49.1394 99.3701L50.0994 99.8501L57.5195 103.56Z" stroke="#229EFF" stroke-linejoin="round"/><path d="M81.1396 103.47L57.5198 103.56L50.0996 99.85L49.1396 99.37L59.3396 93.48L61.1396 93.47L81.1396 103.47Z" stroke="#229EFF" stroke-linejoin="round"/><path d="M96.8394 57.1299C94.6494 56.1399 92.0495 56.5299 89.0195 58.2699C85.7395 60.1699 82.9494 63.0999 80.6494 67.0599C78.3494 71.0199 77.2095 74.8799 77.2095 78.6399C77.2095 82.3999 78.3494 84.95 80.6494 86.25L73.2695 82.5599V80.9199C73.2695 76.6699 74.3994 72.2899 76.6594 67.7899C76.8994 67.3999 77.1394 67.01 77.3794 66.6C77.7894 65.9 78.1595 65.1999 78.4795 64.5099C78.4995 64.4899 78.4995 64.48 78.5095 64.47C81.4695 59.67 84.9695 56.0999 89.0195 53.7599L89.5195 53.47L96.8394 57.1299Z" stroke="#229EFF" stroke-linejoin="round"/><path d="M82.3191 49.72C82.3191 49.72 82.2492 49.7799 82.2192 49.8199C81.5992 50.3899 80.9892 50.98 80.4192 51.59C76.8992 55.19 73.8891 59.3499 71.3491 64.0699C69.1191 68.2299 67.5191 72.3799 66.5491 76.5199C66.3691 77.3299 66.1991 78.14 66.0591 78.95C65.9591 79.54 65.8691 80.13 65.7891 80.72L45.7891 70.72C46.5091 65.18 48.3691 59.6299 51.3491 54.0699C54.3391 48.5099 57.9891 43.72 62.3191 39.72L82.3191 49.72Z" stroke="#229EFF" stroke-linejoin="round"/><path d="M41.8596 89.1C41.6696 89.01 41.4798 88.93 41.2798 88.86C41.1098 88.79 40.9297 88.7299 40.7397 88.6799C38.7397 88.1499 36.4597 88.6199 33.8997 90.0899C30.6197 91.9899 27.8396 94.91 25.5396 98.87C23.2396 102.84 22.0996 106.7 22.0996 110.46C22.0996 110.81 22.1096 111.15 22.1296 111.48C22.1296 111.55 22.1396 111.62 22.1396 111.68C22.1496 111.74 22.1497 111.81 22.1597 111.87C22.4197 114.87 23.5396 116.93 25.5396 118.07L6.07959 108.34L5.53955 108.07C3.23955 106.76 2.09961 104.23 2.09961 100.46C2.09961 96.6899 3.23955 92.84 5.53955 88.87C7.83955 84.91 10.6197 81.9899 13.8997 80.0899C16.4597 78.6199 18.7397 78.1499 20.7397 78.6799C21.1097 78.7799 21.4498 78.9099 21.7798 79.0699L22.0198 79.1899L26.8896 81.62H26.8997L35.2896 85.8199L41.8596 89.1Z" stroke="#229EFF" stroke-linejoin="round"/><path d="M65.7893 80.72L44.9294 92.7599C44.3794 91.2399 43.5294 90.1099 42.3894 89.4099C42.2394 89.3099 42.0894 89.2199 41.9294 89.1299L41.8594 89.1L35.2893 85.8199L26.8994 81.62L45.7893 70.72L65.7893 80.72Z" stroke="#229EFF" stroke-linejoin="round"/></svg>