<svg width="24" height="24" viewBox="0 0 91 117" fill="none" xmlns="http://www.w3.org/2000/svg" stroke-width="1px" stroke-linecap="round" stroke-linejoin="round">
    <path d="M62.9799 18.66C62.9799 21.23 62.1798 23.9 60.5798 26.66C60.2898 27.16 59.9898 27.64 59.6698 28.1C59.5698 28.25 59.4699 28.4 59.3599 28.54C58.0299 30.36 56.5198 31.76 54.8198 32.74C52.5698 34.04 50.6498 34.23 49.0498 33.32C47.4498 32.41 46.6499 30.66 46.6499 28.09C46.6499 26.28 47.0398 24.43 47.8398 22.53C48.1598 21.72 48.5698 20.91 49.0498 20.08C50.6498 17.33 52.5698 15.3 54.8198 14C56.8298 12.84 58.5898 12.57 60.0798 13.18L60.5798 13.43C62.1798 14.34 62.9799 16.08 62.9799 18.66Z" stroke="currentColor" stroke-linejoin="round"/>
    <path d="M88.9 43.98L83.1899 53.83L67.0599 44.64V100.61L58.9 105.33V77.22L50.74 81.9399V110.04L42.5699 114.75V52.8099C38.2799 53.9899 34.58 53.84 31.48 52.35L30.9299 52.0699C29.7699 51.4399 28.7 50.63 27.72 49.61C24.06 45.82 22.1999 40.32 22.1599 33.1V32.86L30.33 28.14C30.33 28.77 30.35 29.39 30.39 29.98C30.7 35.48 32.5099 39.3399 35.7899 41.5599C38.8399 43.6299 42.5999 43.68 47.0599 41.73C47.9199 41.35 48.81 40.9 49.72 40.37L53.39 38.25L59.9199 34.48C61.9599 33.3 63.87 32.63 65.64 32.47C65.83 32.45 66.01 32.4399 66.2 32.4399C67.23 32.3899 68.2 32.53 69.11 32.85H69.12C69.57 33.01 70.0099 33.1999 70.4299 33.4399L88.9 43.98Z" stroke="currentColor" stroke-linejoin="round"/>
    <path d="M69.1101 32.85C68.2001 32.53 67.2301 32.3899 66.2001 32.4399C66.0101 32.4399 65.8301 32.45 65.6401 32.47C63.8701 32.63 61.96 33.3 59.92 34.48L53.3901 38.25L49.7201 40.37C48.8101 40.9 47.9201 41.35 47.0601 41.73C42.6001 43.68 38.84 43.6299 35.79 41.5599C32.51 39.3399 30.7001 35.48 30.3901 29.98L35.9501 26.7699L49.05 33.3199C50.65 34.2299 52.5701 34.04 54.8201 32.74C56.5201 31.76 58.0301 30.3599 59.3601 28.5399C59.4701 28.3999 59.57 28.25 59.67 28.1L69.1101 32.85Z" stroke="currentColor" stroke-linejoin="round"/>
    <path d="M42.5698 52.8099V114.75L22.5698 104.75V47.87L30.9298 52.0699L31.4799 52.35C34.5799 53.84 38.2798 53.9899 42.5698 52.8099Z" stroke="currentColor" stroke-linejoin="round"/>
    <path d="M30.9299 52.0699L22.5699 47.87L12.34 42.72H12.3099C10.6099 42.05 9.07997 41.02 7.71997 39.61C4.01997 35.78 2.15991 30.2 2.15991 22.86L22.1599 32.86V33.1C22.1999 40.32 24.06 45.82 27.72 49.61C28.7 50.63 29.7699 51.4399 30.9299 52.0699Z" stroke="currentColor" stroke-linejoin="round"/>
    <path d="M60.0798 13.1799C58.5898 12.5699 56.8298 12.84 54.8198 14C52.5698 15.3 50.6498 17.33 49.0498 20.08C48.5698 20.91 48.1598 21.7199 47.8398 22.5299C47.0398 24.4299 46.6499 26.28 46.6499 28.09C46.6499 30.66 47.4498 32.41 49.0498 33.32L35.9498 26.7699L29.5598 23.57L29.0498 23.32C27.4498 22.41 26.6499 20.66 26.6499 18.09C26.6499 15.52 27.4498 12.84 29.0498 10.08C30.6498 7.32997 32.5698 5.30001 34.8198 4.00001C37.0598 2.71001 38.9898 2.51994 40.5798 3.42994L60.0798 13.1799Z" stroke="currentColor" stroke-linejoin="round"/>
    <path d="M30.33 28.14L22.1599 32.86L2.15991 22.86L10.33 18.14L30.33 28.14Z" stroke="currentColor" stroke-linejoin="round"/>
    <path d="M12.3101 42.71L10.3301 41.71" stroke="currentColor" stroke-linejoin="round"/>
    <path d="M58.9 77.22V105.33L50.74 101.25V81.9399L58.9 77.22Z" stroke="currentColor" stroke-linejoin="round"/>
    <path d="M83.1901 53.83C82.5601 53.91 72.6901 48.81 67.0601 45.86V44.64L83.1901 53.83Z" stroke="currentColor" stroke-linejoin="round"/>
</svg>