<svg width="24" height="24" viewBox="0 0 97 101" fill="none" xmlns="http://www.w3.org/2000/svg" stroke-width="1px" stroke-linecap="round" stroke-linejoin="round">
    <path d="M94.7994 67.225L89.6294 76.145L80.0994 70.715L79.4794 71.075L32.3894 98.265V77.445L39.6494 73.255V85.745L71.7494 67.205L72.8494 66.575L70.2394 65.085L63.4994 61.245L63.2095 61.755L62.8894 62.305L61.4194 64.845L57.1594 62.415L49.8994 58.285L43.2694 54.505L44.7494 51.955L45.3594 50.905L22.8594 38.075L27.4194 30.215L28.0294 29.165L94.7994 67.225Z" stroke="currentColor" stroke-linejoin="round"/>
    <path d="M90.4395 43.925V52.875L83.1895 48.735V48.1151L90.4395 43.925Z" stroke="currentColor" stroke-linejoin="round"/>
    <path d="M79.5599 33.5551L77.34 37.3751L73.84 43.4151L70.4399 41.4751L68.6699 40.4651L70.4399 37.4151L72.0099 34.7151L74.4799 30.4551L79.5599 33.5551Z" stroke="currentColor" stroke-linejoin="round"/>
    <path d="M65.0391 12.7852V38.3952L63.869 37.7252L57.7891 34.2552V16.9752L65.0391 12.7852Z" stroke="currentColor" stroke-linejoin="round"/>
    <path d="M22.8594 38.0752L2.85938 28.0752L25.3594 40.9052L45.3594 50.9052L22.8594 38.0752Z" stroke="currentColor" stroke-linejoin="round"/>
    <path d="M72.8492 66.5751L71.7493 67.2051L39.6493 85.7451V73.2551L38.9694 72.9151L31.2393 69.0551L49.1493 58.7151L56.8793 62.5751L61.4193 64.8451L62.8893 62.3051L63.2094 61.7551L70.1593 65.2251L72.8492 66.5751Z" stroke="currentColor" stroke-linejoin="round"/>
    <path d="M45.3595 50.905L44.7495 51.955L43.2695 54.505L23.2695 44.505L25.3595 40.905L45.3595 50.905Z" stroke="currentColor" stroke-linejoin="round"/>
    <path d="M72.8489 66.5751L70.1589 65.2251L63.209 61.7551L63.4989 61.2451L70.2389 65.0851L72.8489 66.5751Z" stroke="currentColor" stroke-linejoin="round"/>
    <path d="M61.4196 64.8451L56.8795 62.5751L49.1495 58.7151L41.4196 54.8451L23.2695 44.5051L43.2695 54.5051L49.8995 58.2851L57.1595 62.4151L61.4196 64.8451Z" stroke="currentColor" stroke-linejoin="round"/>
    <path d="M32.3896 77.4451V98.2651L12.3896 88.2651V67.4451L19.6497 71.0751L23.9796 73.2451L31.7097 77.1051L32.3896 77.4451Z" stroke="currentColor" stroke-linejoin="round"/>
    <path d="M39.6497 73.2551L32.3896 77.4451L31.7097 77.1051L23.9796 73.2451L19.6497 71.0751L12.3896 67.4451L19.6497 63.2551L31.2396 69.0551L38.9697 72.9151L39.6497 73.2551Z" stroke="currentColor" stroke-linejoin="round"/>
    <path d="M74.4799 30.4551L72.0099 34.7151L70.4399 37.4151L68.6699 40.4651L63.5499 37.9051L53.9999 33.1351L48.6699 30.4651L48.7799 30.2651L54.1199 32.9351L63.7899 37.7651L65.0399 38.3951V25.7351L74.4799 30.4551Z" stroke="currentColor" stroke-linejoin="round"/>
    <path d="M65.0391 38.3951L63.7891 37.7651L54.119 32.9351L48.7791 30.2651L45.0391 28.3951L37.7891 24.2551L45.0391 27.8851L49.019 29.8651L54.349 32.5351L57.7891 34.2551L63.869 37.7251L65.0391 38.3951Z" stroke="currentColor" stroke-linejoin="round"/>
    <path d="M65.0391 12.7852L57.7891 16.9752L45.0391 10.6052L37.7891 6.97516L45.0391 2.78516L65.0391 12.7852Z" stroke="currentColor" stroke-linejoin="round"/>
    <path d="M57.7891 16.9751V34.2551L54.349 32.5351L49.019 29.8651L45.0391 27.8851L37.7891 24.2551V6.9751L45.0391 10.6051L57.7891 16.9751Z" stroke="currentColor" stroke-linejoin="round"/>
    <path d="M83.1895 48.1152V48.7352L70.4395 42.3652L63.1895 38.7352V38.1152L70.4395 41.7452L83.1895 48.1152Z" stroke="currentColor" stroke-linejoin="round"/>
    <path d="M73.84 43.4151L70.4399 41.7151L63.21 38.1051L53.84 33.4151L48.6699 30.4651L53.9999 33.1351L63.5499 37.9051L68.6699 40.4651L70.4399 41.4751L73.84 43.4151Z" stroke="currentColor" stroke-linejoin="round"/>
    <path d="M90.4395 43.9252L83.1895 48.1152L70.4395 41.7453L63.1895 38.1152L63.2095 38.1053L70.4395 41.7153L73.8395 43.4153L77.3395 37.3752L90.4395 43.9252Z" stroke="currentColor" stroke-linejoin="round"/>
    <path d="M90.4395 52.8751L70.4395 42.8751L63.1895 38.7351L70.4395 42.3651L83.1895 48.7351L90.4395 52.8751Z" stroke="currentColor" stroke-linejoin="round"/>
    <path d="M28.0294 29.165L27.4194 30.215L22.8594 38.075L2.85938 28.075L8.02942 19.165L28.0294 29.165Z" stroke="currentColor" stroke-linejoin="round"/>
    <path d="M89.6295 76.1451L79.4795 71.0751L80.0995 70.7151L89.6295 76.1451Z" stroke="currentColor" stroke-linejoin="round"/>
</svg>