<svg width="48" height="48" viewBox="0 0 86 114" fill="none" xmlns="http://www.w3.org/2000/svg" stroke-width="1px"
     stroke-linecap="round" stroke-linejoin="round">
    <path d="M76.7801 80.55L56.7801 70.55L32.3101 56.6V56.24L47.1301 63.64L57.3901 69.49L76.7801 80.55Z" stroke="currentColor" stroke-linejoin="round"/>
    <path d="M60.9699 55.65L83.6999 68.62L76.7799 80.55L57.3899 69.49L47.1299 63.64L53.4399 52.76L76.7799 12.5L83.6999 16.44L60.9699 55.65Z" stroke="currentColor" stroke-linejoin="round"/>
    <path d="M32.3099 38.1801V106.23L22.4199 111.93V43.8801L32.3099 38.1801Z" stroke="currentColor" stroke-linejoin="round"/>
    <path d="M32.3099 38.1801L22.4199 43.8801L12.3099 38.8301L2.41992 33.8801L12.3099 28.1801L32.3099 38.1801Z" stroke="currentColor" stroke-linejoin="round"/>
    <path d="M22.4199 43.88V111.93L2.41992 101.93V33.88L12.3099 38.83L22.4199 43.88Z" stroke="currentColor" stroke-linejoin="round"/>
    <path d="M76.7801 12.5L53.4401 52.76L47.1301 63.64L32.3101 56.24V44.71L56.7801 2.5L76.7801 12.5Z" stroke="currentColor" stroke-linejoin="round"/>
</svg>