<svg width="48" height="48" viewBox="0 0 75 122" fill="none" xmlns="http://www.w3.org/2000/svg" stroke-width="1px"
     stroke-linecap="round" stroke-linejoin="round">
    <path d="M60.8186 88.7996C62.8286 86.1796 64.6786 83.2896 66.3386 80.1296C70.4286 72.3896 72.4785 64.8896 72.4785 57.6196V12.3896L52.4785 23.9296L50.0486 25.3396L32.1187 35.6896L27.3887 38.4196L22.3086 41.3496V86.5896C22.3086 88.9396 22.5185 91.0796 22.9585 92.9896C23.1785 93.9996 23.4586 94.9396 23.8086 95.8196C24.8286 98.4296 26.3685 100.49 28.4385 102.02C28.8585 102.33 29.2785 102.6 29.7285 102.84L30.9985 103.48C31.6385 103.75 32.2885 103.96 32.9685 104.12C36.1385 104.85 39.7486 104.37 43.8086 102.65V119.41L72.4785 102.86V94.6296L50.9785 107.05V98.5197C54.6185 95.8397 57.8986 92.5996 60.8186 88.7996ZM49.3586 72.6096C48.9986 72.2796 48.5985 71.9896 48.1785 71.7596L47.7085 71.5197C47.1385 71.2697 46.5186 71.0997 45.8486 71.0297C45.5486 70.9797 45.2485 70.9596 44.9285 70.9596C43.1685 70.9596 41.2986 71.5097 39.3286 72.6497L29.4685 78.3396V45.4396L32.1187 43.9097L39.7585 39.4996L45.3086 36.2996L52.4785 32.1597L57.6785 29.1497L65.3086 24.7496V32.9696L52.4785 40.3796L50.0386 41.7897L47.3887 43.3196V51.5397L52.4685 48.6096L57.6785 45.5996L65.3086 41.1996V49.4196L51.2385 57.5496L50.9785 57.6996V65.9296L57.3186 62.2697L65.3086 57.6497V61.7596C65.3086 62.5196 65.2785 63.2396 65.2185 63.9196C65.1585 64.6096 65.0685 65.3296 64.9485 66.0796L53.6685 72.5996C52.8285 73.0796 52.0185 73.3196 51.2485 73.3296C50.4685 73.3296 49.8386 73.0896 49.3586 72.6096Z" stroke="currentColor" stroke-linejoin="round"/>
    <path d="M65.3083 57.6494V61.7594C65.3083 62.5194 65.2783 63.2393 65.2183 63.9193C65.1583 64.6093 65.0682 65.3293 64.9482 66.0793L57.3184 62.2694L65.3083 57.6494Z" stroke="currentColor" stroke-linejoin="round"/>
    <path d="M65.3088 24.75V32.97L57.6787 29.15L65.3088 24.75Z" stroke="currentColor" stroke-linejoin="round"/>
    <path d="M65.3088 32.9694L52.4788 40.3794L50.0388 41.7894L47.3889 43.3193L42.6587 40.9493L39.7588 39.4994L45.3088 36.2993L52.4788 32.1594L57.6787 29.1494L65.3088 32.9694Z" stroke="currentColor" stroke-linejoin="round"/>
    <path d="M65.3088 41.1992V49.4192L57.6787 45.5992L65.3088 41.1992Z" stroke="currentColor" stroke-linejoin="round"/>
    <path d="M50.9785 57.6992V65.9292L48.8186 64.8492L38.6086 59.7393L30.9785 55.9292V47.6992L38.6187 51.5193L45.1287 54.7793L50.9785 57.6992Z" stroke="currentColor" stroke-linejoin="round"/>
    <path d="M47.3887 43.3199V51.54L45.3086 50.5L42.6685 49.1799L35.0286 45.36L32.1187 43.91L39.7585 39.5L42.6584 40.95L47.3887 43.3199Z" stroke="currentColor" stroke-linejoin="round"/>
    <path d="M65.3086 49.4203L51.2385 57.5503L50.9785 57.7003L45.1287 54.7804L38.6187 51.5204L30.9785 47.7003L35.0286 45.3604L42.6685 49.1803L45.3086 50.5004L47.3887 51.5404L52.4685 48.6104L57.6785 45.6003L65.3086 49.4203Z" stroke="currentColor" stroke-linejoin="round"/>
    <path d="M47.7087 71.5204C47.1387 71.2704 46.5189 71.1004 45.8489 71.0304C45.5489 70.9804 45.2487 70.9603 44.9287 70.9603C43.1687 70.9603 41.2989 71.5104 39.3289 72.6504L29.4688 78.3403V62.4004L31.3188 63.3303H31.3289L46.0388 70.6903L47.7087 71.5204Z" stroke="currentColor" stroke-linejoin="round"/>
    <path d="M64.9485 66.0802L53.6685 72.6002C52.8285 73.0802 52.0185 73.3202 51.2485 73.3302C50.4685 73.3302 49.8386 73.0902 49.3586 72.6102C48.9986 72.2802 48.5985 71.9903 48.1785 71.7603L47.7085 71.5203L46.0386 70.6902L31.3286 63.3302C32.0786 63.3102 32.8585 63.0702 33.6685 62.6002L38.6086 59.7402L48.8186 64.8502L50.9785 65.9302L57.3186 62.2703L64.9485 66.0802Z" stroke="currentColor" stroke-linejoin="round"/>
    <path d="M43.8086 102.65V119.41L23.8086 109.41V99.8896L29.7285 102.84L30.9985 103.48C31.6385 103.75 32.2885 103.96 32.9685 104.12C36.1385 104.85 39.7486 104.37 43.8086 102.65Z" stroke="currentColor" stroke-linejoin="round"/>
    <path d="M72.4785 12.3896L52.4785 23.9296L50.0486 25.3396L32.1187 35.6896L27.3887 38.4196L22.3086 41.3496L9.93848 35.1696L2.30859 31.3496L52.4785 2.38965L72.4785 12.3896Z" stroke="currentColor" stroke-linejoin="round"/>
    <path d="M29.7285 102.84L23.8086 99.8896L10.4985 93.2496C9.78854 92.9196 9.09848 92.4997 8.43848 92.0197C4.34848 88.9997 2.30859 83.8596 2.30859 76.5896V31.3496L9.93848 35.1696L22.3086 41.3496V86.5896C22.3086 88.9396 22.5185 91.0796 22.9585 92.9896C23.1785 93.9996 23.4586 94.9396 23.8086 95.8196C24.8286 98.4296 26.3685 100.49 28.4385 102.02C28.8585 102.33 29.2785 102.6 29.7285 102.84Z" stroke="currentColor" stroke-linejoin="round"/>
    <path d="M72.4785 94.6299L50.9785 107.05V98.5199C54.6185 95.8399 57.8986 92.5998 60.8186 88.7998L72.4785 94.6299Z" stroke="currentColor" stroke-linejoin="round"/>
</svg>