<svg width="48" height="48" viewBox="0 0 119 102" fill="none" xmlns="http://www.w3.org/2000/svg" stroke-width="1px"
     stroke-linecap="round" stroke-linejoin="round">
    <path d="M116.83 37.5406V44.6406L99.1598 54.8406V47.5206C99.1598 45.5706 98.9497 43.8506 98.5197 42.3706C98.0997 40.8906 97.4597 39.6406 96.6097 38.6306C97.3297 38.0606 98.0598 37.5406 98.8198 37.0706C99.5698 36.6006 100.34 36.1406 101.12 35.6806C105.84 32.9606 109.63 31.7706 112.51 32.0906C113.14 32.1606 113.71 32.3106 114.2 32.5306L114.6 32.7306C116.09 33.5606 116.83 35.1706 116.83 37.5406Z" stroke="currentColor" stroke-linejoin="round"/>
    <path d="M108.98 17.6306C108.98 20.1106 108.22 22.6706 106.72 25.3006C106.17 26.2506 105.58 27.1106 104.94 27.8906C103.82 29.2606 102.54 30.3606 101.12 31.1806C99.5198 32.1106 98.0898 32.4506 96.8298 32.1906C96.3898 32.1106 95.9698 31.9506 95.5798 31.7306C94.0398 30.8606 93.2698 29.1806 93.2698 26.7006C93.2698 25.2906 93.5098 23.8606 93.9898 22.4306C94.3598 21.2706 94.8898 20.1106 95.5798 18.9506C97.1098 16.3306 98.9598 14.4006 101.12 13.1506C103.35 11.8706 105.21 11.6606 106.72 12.5106C108.22 13.3706 108.98 15.0806 108.98 17.6306Z" stroke="currentColor" stroke-linejoin="round"/>
    <path d="M77.4098 16.4706C76.1798 15.9806 74.8098 15.9106 73.2898 16.2706C72.1798 16.5406 70.9798 17.0406 69.7098 17.7706C66.4398 19.6606 63.6598 22.5606 61.3598 26.4806C59.8598 29.0406 58.8598 31.5706 58.3498 34.1006C58.0698 35.4306 57.9298 36.7706 57.9298 38.0906C57.9298 41.8506 59.0698 44.3806 61.3598 45.6806L48.1898 39.1006L41.8998 35.9506L41.3598 35.6806C39.0698 34.3806 37.9298 31.8506 37.9298 28.0906C37.9298 24.3306 39.0698 20.3906 41.3598 16.4806C43.6598 12.5606 46.4398 9.66058 49.7098 7.77058C53.0498 5.85058 55.8398 5.53057 58.0998 6.81057L73.4598 14.4906L77.4098 16.4706Z" stroke="currentColor" stroke-linejoin="round"/>
    <path d="M93.2698 50.9206V58.2406L46.1498 85.4506V78.1306C46.1498 75.7206 46.7198 73.2006 47.8698 70.5406C49.0098 67.8906 50.6298 65.2106 52.7298 62.5006C54.0498 60.7906 55.5298 59.1306 57.1798 57.5306C58.1398 56.6006 59.1598 55.6806 60.2398 54.7806C63.1498 52.3506 66.3098 50.1506 69.7098 48.1906C70.9298 47.4906 72.1198 46.8506 73.2698 46.2806C75.3498 45.2406 77.3098 44.4306 79.1598 43.8306C79.1998 43.8206 79.2398 43.8006 79.2798 43.7906C80.3498 43.4506 81.3698 43.1906 82.3298 43.0106C83.9798 42.7106 85.4698 42.6506 86.7898 42.8306C87.7998 42.9806 88.6998 43.2406 89.4798 43.6306C90.3198 44.0506 91.0298 44.6006 91.5998 45.2906C92.7098 46.6406 93.2698 48.5206 93.2698 50.9206Z" stroke="currentColor" stroke-linejoin="round"/>
    <path d="M89.4798 43.6306C88.6998 43.2406 87.7997 42.9806 86.7897 42.8306C85.4697 42.6506 83.9798 42.7106 82.3298 43.0106C81.3698 43.1906 80.3498 43.4506 79.2798 43.7906C79.2398 43.8006 79.1998 43.8206 79.1598 43.8306C77.3098 44.4306 75.3498 45.2406 73.2698 46.2806C72.1198 46.8506 70.9298 47.4906 69.7098 48.1906C66.3098 50.1506 63.1498 52.3506 60.2398 54.7806C59.1598 55.6806 58.1397 56.6006 57.1797 57.5306C55.5297 59.1306 54.0498 60.7906 52.7298 62.5006C50.6298 65.2106 49.0098 67.8906 47.8698 70.5406C46.7198 73.2006 46.1497 75.7206 46.1497 78.1306V85.4506L40.2598 82.5106V81.5306C40.2598 79.6506 40.4898 77.7106 40.9498 75.7206C41.3998 73.7306 42.0898 71.6806 43.0098 69.5806L39.4198 67.7906L38.4998 67.3206C40.6398 66.0406 42.4298 64.1306 43.8898 61.5706C45.3998 58.9406 46.1497 56.3806 46.1497 53.9106C46.1497 51.4406 45.3998 49.6506 43.8898 48.7906L38.6398 46.1706C39.1598 45.7006 39.6898 45.2406 40.2398 44.7806C42.7098 42.7206 45.3598 40.8206 48.1898 39.1006L61.3598 45.6806C63.6598 46.9906 66.4398 46.7006 69.7098 44.8106C70.9698 44.0806 72.1598 43.2006 73.2698 42.1806C74.7098 40.8706 76.0198 39.3006 77.1998 37.4906L79.1598 38.4706L85.0698 41.4306H85.0798L89.4798 43.6306Z" stroke="currentColor" stroke-linejoin="round"/>
    <path d="M43.8898 48.7906C42.3798 47.9306 40.5198 48.1406 38.2898 49.4306C36.1298 50.6806 34.2898 52.6106 32.7498 55.2206C31.2098 57.8406 30.4398 60.4206 30.4398 62.9706C30.4398 63.0806 30.4398 63.1906 30.4498 63.3006C30.5098 65.6006 31.2798 67.1706 32.7498 68.0106L21.8498 62.5606L19.3998 61.3306L13.2398 58.2506L12.7498 58.0106C11.2098 57.1306 10.4398 55.4506 10.4398 52.9706C10.4398 50.4906 11.2098 47.8406 12.7498 45.2206C14.2898 42.6106 16.1298 40.6806 18.2898 39.4306C20.5198 38.1406 22.3798 37.9306 23.8898 38.7906L38.6398 46.1706L43.8898 48.7906Z" stroke="currentColor" stroke-linejoin="round"/>
    <path d="M46.1498 53.9106C46.1498 56.3806 45.3998 58.9406 43.8898 61.5706C42.4298 64.1306 40.6398 66.0406 38.4998 67.3206C38.4298 67.3706 38.3598 67.4106 38.2898 67.4506C36.1298 68.7006 34.2898 68.8806 32.7498 68.0106C31.2798 67.1706 30.5098 65.6006 30.4498 63.3006C30.4398 63.1906 30.4398 63.0806 30.4398 62.9706C30.4398 60.4206 31.2098 57.8406 32.7498 55.2206C34.2898 52.6106 36.1298 50.6806 38.2898 49.4306C40.5198 48.1406 42.3798 47.9306 43.8898 48.7906C45.3998 49.6506 46.1498 51.3506 46.1498 53.9106Z" stroke="currentColor" stroke-linejoin="round"/>
    <path d="M106.72 12.5106C105.21 11.6606 103.35 11.8706 101.12 13.1506C98.9598 14.4006 97.1098 16.3306 95.5798 18.9506C94.8898 20.1106 94.3598 21.2706 93.9898 22.4306C93.5098 23.8606 93.2698 25.2906 93.2698 26.7006C93.2698 29.1806 94.0398 30.8606 95.5798 31.7306L82.2398 25.0606L81.4898 24.6806V24.4906C81.4898 23.2506 81.3698 22.1506 81.1298 21.1706C80.6398 19.1406 79.6298 17.6806 78.0998 16.8106L77.4098 16.4706L73.4598 14.4906C73.7798 12.6606 74.4798 10.8106 75.5798 8.95056C77.1098 6.33056 78.9598 4.40056 81.1198 3.15056C83.3498 1.87056 85.2098 1.66056 86.7198 2.51056L106.72 12.5106Z" stroke="currentColor" stroke-linejoin="round"/>
    <path d="M99.1598 47.5206V54.8406L93.2698 51.9006V50.9206C93.2698 48.5206 92.7098 46.6406 91.5998 45.2906C91.0298 44.6006 90.3198 44.0506 89.4798 43.6306L85.0798 41.4306H85.0698L79.1598 38.4706V37.5206C79.1598 36.4206 79.0898 35.3906 78.9498 34.4306C79.5998 33.1406 80.1298 31.8506 80.5198 30.5806L93.0198 36.8406L96.6098 38.6306C97.4598 39.6406 98.0998 40.8906 98.5198 42.3706C98.9498 43.8506 99.1598 45.5706 99.1598 47.5206Z" stroke="currentColor" stroke-linejoin="round"/>
    <path d="M43.0098 69.5806C42.0898 71.6806 41.3998 73.7306 40.9498 75.7206C40.4898 77.7106 40.2598 79.6506 40.2598 81.5306V88.8506L22.5898 99.0506V91.9506C22.5898 88.7206 24.0299 85.2606 26.9099 81.5706C27.9899 80.1906 29.1899 78.8706 30.5199 77.6306C32.7499 75.5506 35.3398 73.6606 38.2898 71.9606C39.1498 71.4706 39.9598 71.0106 40.7498 70.6006C41.5298 70.1806 42.2898 69.8406 43.0098 69.5806Z" stroke="currentColor" stroke-linejoin="round"/>
    <path d="M43.0098 69.5806C42.2898 69.8406 41.5298 70.1806 40.7498 70.6006C39.9598 71.0106 39.1498 71.4706 38.2898 71.9606C35.3398 73.6606 32.7499 75.5506 30.5199 77.6306C29.1899 78.8706 27.9899 80.1906 26.9099 81.5706C24.0299 85.2606 22.5898 88.7206 22.5898 91.9506V99.0506L2.58984 89.0506V81.9506C2.58984 78.7206 4.02985 75.2606 6.90985 71.5706C9.78985 67.8806 13.5798 64.6806 18.2898 61.9606C18.6698 61.7406 19.0398 61.5306 19.3998 61.3306L21.8499 62.5606L32.7498 68.0106C34.2898 68.8806 36.1298 68.7006 38.2898 67.4506C38.3598 67.4106 38.4298 67.3706 38.4998 67.3206L39.4198 67.7906L43.0098 69.5806Z" stroke="currentColor" stroke-linejoin="round"/>
    <path d="M114.2 32.5305C113.71 32.3105 113.14 32.1605 112.51 32.0905C109.63 31.7705 105.84 32.9605 101.12 35.6805C100.34 36.1405 99.5699 36.6005 98.8199 37.0705C98.0599 37.5405 97.3299 38.0606 96.6099 38.6306L93.0199 36.8405L80.5199 30.5806C81.0599 28.8706 81.3699 27.1706 81.4599 25.4906C81.7299 25.3406 81.9899 25.1905 82.2399 25.0605L95.5799 31.7305C95.9699 31.9505 96.3899 32.1106 96.8299 32.1906C98.0899 32.4506 99.5199 32.1105 101.12 31.1805C102.54 30.3605 103.82 29.2605 104.94 27.8905L114.2 32.5305Z" stroke="currentColor" stroke-linejoin="round"/>
    <path d="M81.4898 24.4906V24.6805C81.4898 24.9505 81.4798 25.2206 81.4598 25.4906C81.3698 27.1705 81.0598 28.8705 80.5198 30.5805C80.1298 31.8505 79.5998 33.1405 78.9498 34.4305C78.6898 34.9605 78.4098 35.4905 78.0998 36.0205C77.8098 36.5305 77.5098 37.0206 77.1998 37.4906C76.0198 39.3006 74.7098 40.8705 73.2698 42.1805C72.1598 43.2005 70.9698 44.0805 69.7098 44.8105C66.4398 46.7005 63.6598 46.9905 61.3598 45.6805C59.0698 44.3805 57.9298 41.8505 57.9298 38.0905C57.9298 36.7705 58.0698 35.4306 58.3498 34.1006C58.8598 31.5706 59.8598 29.0405 61.3598 26.4805C63.6598 22.5605 66.4398 19.6605 69.7098 17.7705C70.9798 17.0405 72.1798 16.5405 73.2898 16.2705C74.8098 15.9105 76.1798 15.9805 77.4098 16.4705L78.0998 16.8105C79.6298 17.6805 80.6398 19.1405 81.1298 21.1705C81.3698 22.1505 81.4898 23.2506 81.4898 24.4906Z" stroke="currentColor" stroke-linejoin="round"/>
</svg>