<svg width="48" height="48" viewBox="0 0 112 131" fill="none" xmlns="http://www.w3.org/2000/svg" stroke-width="1px" stroke-linecap="round" stroke-linejoin="round"><path d="M109.45 67.9999V79.0399L22.9099 129V117.96L109.45 67.9999Z" stroke="#229EFF" stroke-linejoin="round"/><path d="M109.45 12.83V23.86L94.0799 32.73L89.4499 35.41L22.9099 73.83V62.8L109.45 12.83Z" stroke="#229EFF" stroke-linejoin="round"/><path d="M109.45 67.9999L22.9099 117.96L13.1599 113.08L2.90991 107.96L18.2699 99.0899L22.9099 101.41L89.4499 62.9999L94.0899 60.3199L109.45 67.9999Z" stroke="#229EFF" stroke-linejoin="round"/><path d="M109.45 40.42L22.9099 90.38L2.90991 80.38L18.2699 71.5099L22.9099 73.8299L89.4499 35.41L94.0799 32.7299L109.45 40.42Z" stroke="#229EFF" stroke-linejoin="round"/><path d="M109.45 12.83L22.9099 62.8L2.90991 52.8L89.4499 2.82996L109.45 12.83Z" stroke="#229EFF" stroke-linejoin="round"/><path d="M22.9099 62.8V73.83L2.90991 63.83V52.8L22.9099 62.8Z" stroke="#229EFF" stroke-linejoin="round"/><path d="M22.9099 90.3799V101.41L2.90991 91.4099V80.3799L22.9099 90.3799Z" stroke="#229EFF" stroke-linejoin="round"/><path d="M109.45 40.42V51.45L94.0899 60.32L89.4499 63L22.9099 101.41V90.38L109.45 40.42Z" stroke="#229EFF" stroke-linejoin="round"/><path d="M22.9099 117.96V129L2.90991 119V107.96L13.1599 113.08L22.9099 117.96Z" stroke="#229EFF" stroke-linejoin="round"/></svg>