<svg width="48" height="48" viewBox="0 0 99 114" fill="none" xmlns="http://www.w3.org/2000/svg" stroke-width="1px" stroke-linecap="round" stroke-linejoin="round"><path d="M96.1396 45.4891C96.5196 46.8891 96.7096 48.4091 96.7096 50.0591C96.7096 54.9391 95.3196 59.9292 92.5396 65.0292C89.7696 70.1292 86.3196 74.1791 82.2096 77.1891C81.8696 81.3191 80.4496 85.4991 77.9396 89.7391C75.4396 93.9691 72.4396 97.0991 68.9496 99.1191C68.0596 99.6291 67.1796 100.039 66.3296 100.339C65.4696 100.639 64.6296 100.829 63.8096 100.909V18.3291C64.6296 17.4591 65.4696 16.6791 66.3296 15.9891C67.1796 15.2991 68.0596 14.6892 68.9496 14.1792C70.7496 13.1392 72.4296 12.5191 73.9796 12.3391C74.3696 12.2891 74.7496 12.2692 75.1296 12.2692C76.1996 12.2892 77.2096 12.5291 78.1496 12.9991C79.1196 13.4691 79.9196 14.1391 80.5496 14.9791C81.5996 16.3891 82.1896 18.3091 82.3096 20.7391C85.7596 19.2791 88.7496 19.1491 91.2696 20.3391C91.7096 20.5491 92.1296 20.7891 92.5396 21.0791C95.3196 23.0191 96.7096 26.3892 96.7096 31.1792C96.7096 32.9192 96.5196 34.6791 96.1396 36.4691C95.7596 38.2591 95.1996 40.0792 94.4396 41.9292C95.1996 42.9092 95.7596 44.0991 96.1396 45.4891Z" stroke="#229EFF" stroke-linejoin="round"/><path d="M41.3992 110.839L21.3992 100.839C20.6692 100.459 20.0293 99.9692 19.4893 99.3892L23.9093 101.589H23.9193L27.4492 103.349C30.0792 104.889 33.2793 104.849 37.0793 103.239C37.4193 106.979 38.8592 109.509 41.3992 110.839Z" stroke="#229EFF" stroke-linejoin="round"/><path d="M27.4497 103.349L23.9197 101.589H23.9097L19.4897 99.3892L8.5797 93.8992C7.9597 93.6492 7.3597 93.3292 6.7997 92.9292C4.0497 90.9692 2.67969 87.5892 2.67969 82.7992C2.67969 81.1492 2.86969 79.3991 3.24969 77.5691C3.62969 75.7391 4.18969 73.8992 4.94969 72.0492L24.9497 82.0492C24.1897 83.8992 23.6297 85.7391 23.2497 87.5691C22.8697 89.3991 22.6797 91.1492 22.6797 92.7992C22.6797 96.6392 23.5597 99.5791 25.3297 101.599C25.7597 102.099 26.2497 102.539 26.7997 102.929C27.0097 103.079 27.2297 103.219 27.4497 103.349Z" stroke="#229EFF" stroke-linejoin="round"/><path d="M55.5797 23.1891V105.659C54.7597 106.519 53.9197 107.299 53.0597 107.989C52.2097 108.689 51.3297 109.289 50.4397 109.799C46.9497 111.819 43.9297 112.169 41.3997 110.839C38.8597 109.509 37.4197 106.979 37.0797 103.239C33.2797 104.849 30.0797 104.889 27.4497 103.349C27.2297 103.219 27.0097 103.079 26.7997 102.929C26.2497 102.539 25.7597 102.099 25.3297 101.599C23.5597 99.5791 22.6797 96.6392 22.6797 92.7992C22.6797 91.1492 22.8697 89.3991 23.2497 87.5691C23.6297 85.7391 24.1897 83.8992 24.9497 82.0492C24.1897 81.0692 23.6297 79.9092 23.2497 78.5492C22.8697 77.1892 22.6797 75.6492 22.6797 73.9192C22.6797 69.1192 24.0497 64.1791 26.7997 59.0991C29.2197 54.6091 32.1497 50.9491 35.5797 48.1191C36.0297 47.7391 36.4997 47.3792 36.9697 47.0292C37.1797 42.8992 38.5897 38.6892 41.1897 34.3892C42.0097 33.0292 42.8897 31.7792 43.8097 30.6492C45.7997 28.1992 48.0097 26.2691 50.4397 24.8591C51.3297 24.3491 52.2097 23.9591 53.0597 23.6991C53.9197 23.4391 54.7597 23.2691 55.5797 23.1891Z" stroke="#229EFF" stroke-linejoin="round"/><path d="M63.8096 18.3291V100.909L55.5796 96.7992V23.1891L43.8096 17.3091V8.3291L63.8096 18.3291Z" stroke="#229EFF" stroke-linejoin="round"/><path d="M91.2698 20.3391C88.7498 19.1491 85.7598 19.2791 82.3098 20.7391C82.1898 18.3091 81.5998 16.3891 80.5498 14.9791L91.2698 20.3391Z" stroke="#229EFF" stroke-linejoin="round"/><path d="M78.1496 12.9992C77.2096 12.5292 76.1996 12.2892 75.1296 12.2692C74.7496 12.2692 74.3696 12.2892 73.9796 12.3392C72.4296 12.5192 70.7496 13.1393 68.9496 14.1793C68.0596 14.6893 67.1796 15.2992 66.3296 15.9892C65.4696 16.6792 64.6296 17.4592 63.8096 18.3292L43.8096 8.32916C44.6296 7.45916 45.4696 6.67919 46.3296 5.98919C47.1796 5.29919 48.0596 4.68926 48.9496 4.17926C52.4596 2.14926 55.4996 1.73915 58.0496 2.94915L58.1496 2.9992L78.1496 12.9992Z" stroke="#229EFF" stroke-linejoin="round"/><path d="M8.5793 93.8992L8.5293 93.8691" stroke="#229EFF" stroke-linejoin="round"/><path d="M36.9697 47.0292C36.4997 47.3792 36.0297 47.7391 35.5797 48.1191C32.1497 50.9491 29.2197 54.6091 26.7997 59.0991C24.0497 64.1791 22.6797 69.1192 22.6797 73.9192C22.6797 75.6492 22.8697 77.1892 23.2497 78.5492C23.6297 79.9092 24.1897 81.0692 24.9497 82.0492L4.94969 72.0492C4.18969 71.0692 3.62969 69.9092 3.24969 68.5492C2.86969 67.1892 2.67969 65.6492 2.67969 63.9192C2.67969 59.1192 4.0497 54.1791 6.7997 49.0991C9.5397 44.0191 12.9297 39.9992 16.9697 37.0292L35.5797 46.3391L36.9697 47.0292Z" stroke="#229EFF" stroke-linejoin="round"/><path d="M55.5797 23.1891C54.7597 23.2691 53.9197 23.4391 53.0597 23.6991C52.2097 23.9591 51.3297 24.3491 50.4397 24.8591C48.0097 26.2691 45.7997 28.1992 43.8097 30.6492C42.8897 31.7792 42.0097 33.0292 41.1897 34.3892C38.5897 38.6892 37.1797 42.8992 36.9697 47.0292L35.5797 46.3391L16.9697 37.0292C17.1797 32.8992 18.5897 28.6892 21.1897 24.3892C23.7897 20.0992 26.8797 16.9191 30.4397 14.8591C31.3297 14.3491 32.2097 13.9591 33.0597 13.6991C33.9197 13.4391 34.7597 13.2691 35.5797 13.1891L43.8097 17.3091L55.5797 23.1891Z" stroke="#229EFF" stroke-linejoin="round"/></svg>