<svg width="24" height="24" viewBox="0 0 93 124" fill="none" xmlns="http://www.w3.org/2000/svg" stroke-width="1px" stroke-linecap="round" stroke-linejoin="round">
    <path d="M27.0002 64.5409C25.7102 65.9309 24.7002 67.4909 23.9602 69.2109C23.6702 69.9009 23.4303 70.5809 23.2603 71.2409C23.7603 71.2909 24.2202 71.4409 24.6602 71.6909L28.0503 73.3809L35.2302 69.2409L27.0002 64.5409ZM32.7002 59.3309C32.7002 59.3309 32.6504 59.3709 32.6204 59.3909L34.3003 60.2309V58.1909C33.7603 58.5509 33.2302 58.9309 32.7002 59.3309Z" stroke="currentColor" stroke-linejoin="round"/>
    <path d="M43.2502 41.2009C43.2502 41.8509 43.1903 42.5009 43.0603 43.1609C42.7903 44.6909 42.1903 46.2609 41.2603 47.8609C40.9103 48.4709 40.5401 49.0309 40.1501 49.5509L39.4001 49.1809L36.4702 50.8709L34.3003 52.1309V53.7909C33.3203 53.9909 32.4401 53.8609 31.6501 53.4109C30.7201 52.8809 30.1103 52.0009 29.8503 50.7909C29.7203 50.2709 29.6602 49.6909 29.6602 49.0509C29.6602 48.5509 29.7003 48.0409 29.7703 47.5209C30.0103 45.8509 30.6301 44.1409 31.6501 42.3909C32.9801 40.0909 34.5902 38.4009 36.4602 37.3209C38.3202 36.2409 39.9303 36.0809 41.2603 36.8409C42.5903 37.6009 43.2502 39.0509 43.2502 41.2009Z" stroke="currentColor" stroke-linejoin="round"/>
    <path d="M53.4502 103.281V105.531L26.2603 121.231V118.981C26.2603 117.421 26.6304 115.781 27.3604 114.061C28.1004 112.331 29.1202 110.771 30.4202 109.361C31.8902 107.801 33.4102 106.371 34.9702 105.081C36.5302 103.791 38.1503 102.661 39.8503 101.671C41.5503 100.691 43.1802 99.9509 44.7402 99.4409C46.3002 98.9309 47.8103 98.6109 49.2903 98.4709C50.0103 98.4109 50.6402 98.5109 51.1902 98.7509L51.4202 98.8609C51.7702 99.0509 52.0803 99.3109 52.3503 99.6309C53.0803 100.511 53.4502 101.721 53.4502 103.281Z" stroke="currentColor" stroke-linejoin="round"/>
    <path d="M87.45 83.6609V85.9009L60.25 101.601V99.3609C60.25 97.8009 60.6201 96.1509 61.3601 94.4309C62.0901 92.7009 63.1099 91.1409 64.4199 89.7409C65.8899 88.1709 67.4 86.7409 68.96 85.4509C70.52 84.1609 72.1501 83.0309 73.8501 82.0509C75.5501 81.0709 77.18 80.3209 78.74 79.8109C80.29 79.3009 81.81 78.9809 83.28 78.8409C83.96 78.7909 84.5801 78.8709 85.1001 79.0909L85.3101 79.1909C85.7001 79.3809 86.0401 79.6509 86.3401 80.0009C87.0801 80.8809 87.45 82.1009 87.45 83.6609Z" stroke="currentColor" stroke-linejoin="round"/>
    <path d="M80.6501 66.4209C80.6501 68.5709 79.9801 70.7909 78.6501 73.0809C78.2101 73.8409 77.7502 74.5309 77.2402 75.1509C76.2402 76.4209 75.1103 77.4209 73.8503 78.1509C71.9803 79.2309 70.3803 79.3909 69.0503 78.6309C68.1203 78.1009 67.5102 77.2309 67.2402 76.0209C67.1102 75.5009 67.0503 74.9209 67.0503 74.2709C67.0503 73.5409 67.1303 72.8009 67.2903 72.0509C67.4003 71.5009 67.5502 70.9509 67.7502 70.4009C68.0702 69.4809 68.5003 68.5509 69.0503 67.6109C70.3803 65.3109 71.9803 63.6209 73.8503 62.5409C75.7203 61.4609 77.3201 61.3009 78.6501 62.0609C79.9801 62.8209 80.6501 64.2709 80.6501 66.4209Z" stroke="currentColor" stroke-linejoin="round"/>
    <path d="M90.8503 34.8809V37.1309L73.8503 46.9409V44.7009C73.8503 43.0709 73.5702 41.7109 73.0002 40.6009C72.4302 39.5009 71.6702 38.6809 70.7002 38.1309C71.7202 37.2109 72.7901 36.3409 73.8901 35.5109C75.0001 34.6709 76.1202 33.9309 77.2502 33.2809C78.9502 32.2909 80.5801 31.5509 82.1401 31.0409C83.6901 30.5309 85.2102 30.2109 86.6802 30.0709C87.4002 30.0109 88.0303 30.1109 88.5803 30.3509L88.7302 30.4209C89.1102 30.6209 89.4502 30.8909 89.7402 31.2309C90.4802 32.1109 90.8503 33.3209 90.8503 34.8809Z" stroke="currentColor" stroke-linejoin="round"/>
    <path d="M26.6504 64.3409L27.0005 64.5409L27.0205 64.5209L26.6504 64.3409ZM43.3306 81.0309C43.2806 81.1009 43.2204 81.1709 43.1804 81.2409C43.5804 81.2709 43.9505 81.3609 44.3105 81.5209L43.3306 81.0309Z" stroke="currentColor" stroke-linejoin="round"/>
    <path d="M41.2603 36.8409C39.9303 36.0809 38.3202 36.2409 36.4602 37.3209C34.5902 38.4009 32.9801 40.0909 31.6501 42.3909C30.6301 44.1409 30.0103 45.8509 29.7703 47.5209C29.7003 48.0409 29.6602 48.5509 29.6602 49.0509C29.6602 49.6909 29.7203 50.2709 29.8503 50.7909C30.1103 52.0009 30.7201 52.8809 31.6501 53.4109L28.2502 51.7109L23.6602 49.4209L21.0903 48.1309L17.4302 46.3009L11.6501 43.4109C10.3201 42.6509 9.66016 41.2009 9.66016 39.0509C9.66016 36.9009 10.3201 34.6809 11.6501 32.3909C12.9801 30.0909 14.5902 28.4009 16.4602 27.3209C18.3202 26.2409 19.9303 26.0809 21.2603 26.8409L37.2402 34.8309L41.2603 36.8409Z" stroke="currentColor" stroke-linejoin="round"/>
    <path d="M34.3003 53.7909V58.1909C33.7603 58.5509 33.2302 58.9309 32.7002 59.3309C32.6802 59.3509 32.6504 59.3709 32.6204 59.3909L30.2202 58.1909L26.6501 64.3409L27.0002 64.5409C25.7102 65.9309 24.7002 67.4909 23.9602 69.2109C23.6702 69.9009 23.4303 70.5809 23.2603 71.2409C22.2403 71.1309 21.1103 71.4409 19.8503 72.1709C19.0903 72.6109 18.3702 73.1509 17.7002 73.8009L2.86035 66.3809V64.1409C2.86035 62.5809 3.23021 60.9309 3.96021 59.2109C4.70021 57.4809 5.72026 55.9209 7.02026 54.5209C8.49026 52.9509 10.0103 51.5209 11.5703 50.2309C13.1303 48.9409 14.7602 47.8109 16.4602 46.8309C16.7802 46.6409 17.1002 46.4609 17.4302 46.3009L21.0903 48.1309L23.6602 49.4209L28.2502 51.7109L31.6501 53.4109C32.4401 53.8609 33.3203 53.9909 34.3003 53.7909Z" stroke="currentColor" stroke-linejoin="round"/>
    <path d="M46.6504 86.0509C46.6504 86.7009 46.5904 87.3509 46.4604 88.0109C46.1904 89.5409 45.5904 91.1009 44.6604 92.7109C44.4904 93.0009 44.3204 93.2809 44.1404 93.5509C43.8604 93.9909 43.5605 94.3909 43.2505 94.7709C42.2405 96.0509 41.1106 97.0409 39.8506 97.7709C37.9806 98.8509 36.3805 99.0109 35.0505 98.2509C34.1205 97.7309 33.5205 96.8609 33.2505 95.6509C33.1205 95.1309 33.0605 94.5509 33.0605 93.9009C33.0605 93.1709 33.1405 92.4409 33.2905 91.6909C33.4005 91.1409 33.5505 90.5909 33.7605 90.0209C34.0705 89.1109 34.5005 88.1709 35.0505 87.2309C36.3805 84.9409 37.9806 83.2509 39.8506 82.1709C41.0706 81.4609 42.1804 81.1509 43.1804 81.2409C43.5804 81.2709 43.9505 81.3609 44.3105 81.5209L44.6604 81.6909C45.9904 82.4509 46.6504 83.9009 46.6504 86.0509Z" stroke="currentColor" stroke-linejoin="round"/>
    <path d="M85.1001 79.0909C84.5801 78.8709 83.96 78.7909 83.28 78.8409C81.81 78.9809 80.29 79.3009 78.74 79.8109C77.18 80.3209 75.5501 81.0709 73.8501 82.0509C72.1501 83.0309 70.52 84.1609 68.96 85.4509C67.4 86.7409 65.8899 88.1709 64.4199 89.7409C63.1099 91.1409 62.0901 92.7009 61.3601 94.4309C60.6201 96.1509 60.25 97.8009 60.25 99.3609V101.601L44.1399 93.5509C44.3199 93.2809 44.4899 93.0009 44.6599 92.7109C45.5899 91.1009 46.19 89.5409 46.46 88.0109C46.59 87.3509 46.6499 86.7009 46.6499 86.0509C46.6499 83.9009 45.9899 82.4509 44.6599 81.6909L44.3101 81.5209L43.3301 81.0309C43.6701 80.5909 44.0299 80.1609 44.4199 79.7409C45.7099 78.3609 47.0299 77.0909 48.3899 75.9309L56.8501 80.1609L60.28 74.2409L65.6599 76.9309L69.05 78.6309C70.38 79.3909 71.9801 79.2309 73.8501 78.1509C75.1101 77.4209 76.24 76.4209 77.24 75.1509L85.1001 79.0909Z" stroke="currentColor" stroke-linejoin="round"/>
    <path d="M82.0503 13.2909C80.7203 12.5309 79.1202 12.6909 77.2502 13.7709C75.3802 14.8509 73.7802 16.5409 72.4502 18.8409C71.9002 19.7809 71.4701 20.7109 71.1501 21.6309C70.9501 22.1809 70.8002 22.7309 70.6902 23.2709C70.5302 24.0209 70.4502 24.7709 70.4502 25.5009C70.4502 26.1509 70.5101 26.7309 70.6401 27.2509C70.9101 28.4609 71.5202 29.3309 72.4502 29.8509L69.0703 28.1609L58.2202 22.7409L52.4502 19.8509C51.1202 19.1009 50.4502 17.6409 50.4502 15.5009C50.4502 13.3609 51.1202 11.1309 52.4502 8.84088C53.7802 6.54088 55.3802 4.85088 57.2502 3.77088C59.1202 2.69088 60.7203 2.53088 62.0503 3.29088L82.0503 13.2909Z" stroke="currentColor" stroke-linejoin="round"/>
    <path d="M70.45 46.6609V48.9009L62.04 53.7509L58.6499 52.0609C57.3199 51.3009 55.7201 51.4609 53.8501 52.5409C52.9701 53.0509 52.1499 53.6909 51.3899 54.4809L47.5801 52.5809C49.0001 51.0709 50.46 49.7109 51.97 48.4609C53.52 47.1709 55.1501 46.0309 56.8501 45.0509C58.5501 44.0709 60.18 43.3209 61.74 42.8109C62.6 42.5409 63.44 42.3109 64.27 42.1509C64.95 42.0109 65.62 41.9109 66.29 41.8509C66.95 41.8009 67.5401 41.8709 68.0601 42.0809L68.4099 42.2509C68.7599 42.4309 69.0701 42.6909 69.3401 43.0109C69.8201 43.5809 70.1501 44.3009 70.3101 45.1709C70.4101 45.6209 70.45 46.1209 70.45 46.6609Z" stroke="currentColor" stroke-linejoin="round"/>
    <path d="M73.8503 44.7009V46.9409L70.3103 45.1709C70.1503 44.3009 69.8203 43.5809 69.3403 43.0109C69.0703 42.6909 68.7602 42.4309 68.4102 42.2509L68.0603 42.0809L60.2402 38.1609C60.7402 37.5409 61.2101 36.8509 61.6501 36.0909C62.0401 35.4209 62.3701 34.7609 62.6401 34.1009L70.7002 38.1309C71.6702 38.6809 72.4302 39.5009 73.0002 40.6009C73.5702 41.7109 73.8503 43.0709 73.8503 44.7009Z" stroke="currentColor" stroke-linejoin="round"/>
    <path d="M84.0503 17.6509C84.0503 19.7909 83.3803 22.0109 82.0503 24.3109C81.6103 25.0709 81.1401 25.7609 80.6401 26.3809C79.6401 27.6509 78.5002 28.6509 77.2502 29.3709C75.3802 30.4509 73.7802 30.6109 72.4502 29.8509C71.5202 29.3309 70.9101 28.4609 70.6401 27.2509C70.5101 26.7309 70.4502 26.1509 70.4502 25.5009C70.4502 24.7709 70.5302 24.0209 70.6902 23.2709C70.8002 22.7309 70.9501 22.1809 71.1501 21.6309C71.4701 20.7109 71.9002 19.7809 72.4502 18.8409C73.7802 16.5409 75.3802 14.8509 77.2502 13.7709C79.1202 12.6909 80.7203 12.5309 82.0503 13.2909C83.3803 14.0509 84.0503 15.5009 84.0503 17.6509Z" stroke="currentColor" stroke-linejoin="round"/>
    <path d="M61.6501 25.0709C60.3201 24.3109 58.7203 24.4709 56.8503 25.5509C55.3703 26.4009 54.0602 27.6309 52.9302 29.2509C52.7902 29.4309 52.6603 29.6209 52.5303 29.8209C52.3703 30.0709 52.2103 30.3409 52.0503 30.6109C51.5003 31.5609 51.0702 32.4909 50.7502 33.4109C50.5502 33.9609 50.4003 34.5109 50.2903 35.0509C50.1303 35.8009 50.0503 36.5409 50.0503 37.2709C50.0503 37.9209 50.1102 38.5009 50.2402 39.0209C50.5102 40.2309 51.1203 41.1009 52.0503 41.6309L48.6602 39.9309L37.8203 34.5109L32.0503 31.6309C30.7203 30.8709 30.0503 29.4209 30.0503 27.2709C30.0503 25.1209 30.7203 22.9109 32.0503 20.6109C33.3803 18.3109 34.9803 16.6309 36.8503 15.5509C38.7203 14.4709 40.3201 14.3109 41.6501 15.0709L61.6501 25.0709Z" stroke="currentColor" stroke-linejoin="round"/>
    <path d="M63.6501 29.4209C63.6501 30.0709 63.5902 30.7309 63.4602 31.4009C63.3002 32.2809 63.0301 33.1809 62.6401 34.1009C62.3701 34.7609 62.0401 35.4209 61.6501 36.0909C61.2101 36.8509 60.7402 37.5409 60.2402 38.1609C59.8502 38.6609 59.4402 39.1109 59.0002 39.5209C58.3302 40.1709 57.6103 40.7109 56.8503 41.1509C54.9803 42.2309 53.3803 42.3909 52.0503 41.6309C51.1203 41.1009 50.5102 40.2309 50.2402 39.0209C50.1102 38.5009 50.0503 37.9209 50.0503 37.2709C50.0503 36.5409 50.1303 35.8009 50.2903 35.0509C50.4003 34.5109 50.5502 33.9609 50.7502 33.4109C51.0702 32.4909 51.5003 31.5609 52.0503 30.6109C52.2103 30.3409 52.3703 30.0709 52.5303 29.8209C52.6603 29.6209 52.7902 29.4309 52.9302 29.2509C54.0602 27.6309 55.3703 26.4009 56.8503 25.5509C58.7203 24.4709 60.3201 24.3109 61.6501 25.0709C62.9801 25.8309 63.6501 27.2809 63.6501 29.4209Z" stroke="currentColor" stroke-linejoin="round"/>
    <path d="M88.5803 30.3509C88.0303 30.1109 87.4002 30.0109 86.6802 30.0709C85.2102 30.2109 83.6901 30.5309 82.1401 31.0409C80.5801 31.5509 78.9502 32.2909 77.2502 33.2809C76.1202 33.9309 75.0001 34.6709 73.8901 35.5109C72.7901 36.3409 71.7202 37.2109 70.7002 38.1309L62.6401 34.1009C63.0301 33.1809 63.3002 32.2809 63.4602 31.4009C63.5902 30.7309 63.6501 30.0709 63.6501 29.4209C63.6501 27.2809 62.9801 25.8309 61.6501 25.0709L57.6304 23.0609C57.8304 22.9509 58.0302 22.8409 58.2202 22.7409L69.0703 28.1609L72.4502 29.8509C73.7802 30.6109 75.3802 30.4509 77.2502 29.3709C78.5002 28.6509 79.6401 27.6509 80.6401 26.3809L88.5803 30.3509Z" stroke="currentColor" stroke-linejoin="round"/>
    <path d="M34.3003 60.1309L32.7002 59.3309" stroke="currentColor" stroke-linejoin="round"/>
    <path d="M68.0603 42.0809C67.5403 41.8709 66.9503 41.8009 66.2903 41.8509C65.6203 41.9109 64.9503 42.0109 64.2703 42.1509C63.4403 42.3109 62.6002 42.5409 61.7402 42.8109C60.1802 43.3209 58.5503 44.0709 56.8503 45.0509C55.1503 46.0309 53.5202 47.1709 51.9702 48.4609C50.4602 49.7109 49.0003 51.0709 47.5803 52.5809L43.4802 50.5309L43.1702 51.0609L40.1501 49.5509C40.5401 49.0309 40.9103 48.4709 41.2603 47.8609C42.1903 46.2609 42.7903 44.6909 43.0603 43.1609C43.1903 42.5009 43.2502 41.8509 43.2502 41.2009C43.2502 39.0509 42.5903 37.6009 41.2603 36.8409L37.2402 34.8309C37.4402 34.7209 37.6303 34.6109 37.8203 34.5109L48.6602 39.9309L52.0503 41.6309C53.3803 42.3909 54.9803 42.2309 56.8503 41.1509C57.6103 40.7109 58.3302 40.1709 59.0002 39.5209C59.4402 39.1109 59.8502 38.6609 60.2402 38.1609L68.0603 42.0809Z" stroke="currentColor" stroke-linejoin="round"/>
    <path d="M54.3003 62.1309V70.4209L51.7102 69.0109L50.2202 68.1909L47.5002 66.8309L40.7402 63.4509L39.9102 63.0309L34.3003 60.2309V52.1309L36.1902 53.0709L39.4001 54.6809L40.1401 55.0509H40.1501L40.6702 55.3109L42.0203 55.9909L44.3804 57.1709L44.4602 57.2109L48.2803 59.1209L50.6702 60.3209L54.3003 62.1309Z" stroke="currentColor" stroke-linejoin="round"/>
    <path d="M50.2205 68.1909L49.7905 68.9409L49.7605 68.9809L46.6504 74.3409L35.7905 68.9109L27.0205 64.5209L26.6504 64.3409L30.2205 58.1909L32.6206 59.3909L34.3005 60.2309L39.9104 63.0309L40.7405 63.4509L47.5005 66.8309L50.2205 68.1909Z" stroke="currentColor" stroke-linejoin="round"/>
    <path d="M51.1902 98.7509C50.6402 98.5109 50.0103 98.4109 49.2903 98.4709C47.8103 98.6109 46.3002 98.9309 44.7402 99.4409C43.1802 99.9509 41.5503 100.691 39.8503 101.671C38.1503 102.661 36.5302 103.791 34.9702 105.081C33.4102 106.371 31.8902 107.801 30.4202 109.361C29.1202 110.771 28.1004 112.331 27.3604 114.061C26.6304 115.781 26.2603 117.421 26.2603 118.981V121.231L6.26025 111.231V108.981C6.26025 107.421 6.63035 105.781 7.36035 104.061C8.10035 102.331 9.12017 100.771 10.4202 99.3609C11.8902 97.8009 13.4102 96.3709 14.9702 95.0809C16.5302 93.7909 18.1503 92.6609 19.8503 91.6709C20.1803 91.4809 20.5003 91.3009 20.8203 91.1309L31.6702 96.5609L35.0503 98.2509C36.3803 99.0109 37.9803 98.8509 39.8503 97.7709C41.1103 97.0409 42.2402 96.0509 43.2502 94.7709L51.1902 98.7509Z" stroke="currentColor" stroke-linejoin="round"/>
    <path d="M43.3306 81.0309C43.2806 81.1009 43.2204 81.1709 43.1804 81.2409C42.1804 81.1509 41.0706 81.4609 39.8506 82.1709C37.9806 83.2509 36.3805 84.9409 35.0505 87.2309C34.5005 88.1709 34.0705 89.1109 33.7605 90.0209C33.5505 90.5909 33.4005 91.1409 33.2905 91.6909C33.1405 92.4409 33.0605 93.1709 33.0605 93.9009C33.0605 94.5509 33.1205 95.1309 33.2505 95.6509C33.5205 96.8609 34.1205 97.7309 35.0505 98.2509L31.6704 96.5609L20.8206 91.1309L15.0505 88.2509C13.7205 87.5009 13.0605 86.0409 13.0605 83.9009C13.0605 81.7609 13.7205 79.5309 15.0505 77.2309C15.8405 75.8709 16.7204 74.7309 17.7004 73.8009C18.3704 73.1509 19.0906 72.6109 19.8506 72.1709C21.1106 71.4409 22.2405 71.1309 23.2605 71.2409C23.7605 71.2909 24.2204 71.4409 24.6604 71.6909L28.0505 73.3809L43.3306 81.0309Z" stroke="currentColor" stroke-linejoin="round"/>
    <path d="M59.4001 59.1809L54.3003 62.1309L50.6702 60.3209L48.2803 59.1209L44.4602 57.2109L44.3804 57.1709L42.0203 55.9909L40.6702 55.3109L40.1501 55.0509H40.1401L39.4001 54.6809L36.1902 53.0709L34.3003 52.1309L36.4702 50.8709L39.4001 49.1809L40.1501 49.5509L43.1702 51.0609L46.8503 52.9109L47.1401 53.0509L50.9502 54.9609L55.7803 57.3709L59.4001 59.1809Z" stroke="currentColor" stroke-linejoin="round"/>
    <path d="M56.8501 80.1609L48.3899 75.9309L36.8501 70.1609L35.23 69.2409L27 64.5409L27.02 64.5209L35.79 68.9109L46.6499 74.3409L48.8101 75.5709L56.8501 80.1609Z" stroke="currentColor" stroke-linejoin="round"/>
    <path d="M67.0505 62.5709L63.4204 68.8309L60.2805 74.2409L56.8506 80.1609L48.8105 75.5709L46.6504 74.3409L49.7605 68.9809L49.7905 68.9409L50.2205 68.1909L51.7104 69.0109L54.3005 70.4209V62.1309L59.4004 59.1809V67.4709L63.4805 60.5309L67.0505 62.5709Z" stroke="currentColor" stroke-linejoin="round"/>
    <path d="M59.3999 67.4709V59.1809L55.78 57.3709L50.95 54.9609L47.1399 53.0509L46.8501 52.9109L43.1699 51.0609L43.48 50.5309L47.5801 52.5809L51.3899 54.4809L56.4199 57.0009L60.3501 58.9609L63.48 60.5309L59.3999 67.4709Z" stroke="currentColor" stroke-linejoin="round"/>
    <path d="M78.6501 62.0609C77.3201 61.3009 75.7203 61.4609 73.8503 62.5409C71.9803 63.6209 70.3803 65.3109 69.0503 67.6109C68.5003 68.5509 68.0702 69.4809 67.7502 70.4009C67.5502 70.9509 67.4003 71.5009 67.2903 72.0509C67.1303 72.8009 67.0503 73.5409 67.0503 74.2709C67.0503 74.9209 67.1102 75.5009 67.2402 76.0209C67.5102 77.2309 68.1203 78.1009 69.0503 78.6309L65.6602 76.9309L60.2803 74.2409L63.4202 68.8309L67.0503 62.5709L63.4802 60.5309L60.3503 58.9609L56.4202 57.0009L51.3901 54.4809C52.1501 53.6909 52.9703 53.0509 53.8503 52.5409C55.7203 51.4609 57.3201 51.3009 58.6501 52.0609L62.0403 53.7509L78.6501 62.0609Z" stroke="currentColor" stroke-linejoin="round"/>
</svg>