<svg width="48" height="48" viewBox="0 0 91 95" fill="none" xmlns="http://www.w3.org/2000/svg" stroke-width="1px" stroke-linecap="round" stroke-linejoin="round"><path d="M88.3301 71.0841L83.71 79.0541L72.98 72.9341C72.87 73.1341 72.7499 73.3341 72.6399 73.5241C70.6399 76.9741 68.43 80.1841 66.01 83.1641C63.45 86.3141 60.77 89.1441 57.96 91.6441C51.83 93.4141 46.5599 92.8741 42.1399 90.0141C41.0499 89.3041 40.01 88.4641 39.03 87.4741C37.52 85.9641 36.2299 84.2341 35.1899 82.2941C32.7699 77.8541 31.5601 72.2841 31.5601 65.6041V49.3241L22.98 44.4341L26.99 37.5141L27.5999 36.4641L88.3301 71.0841Z" stroke="#229EFF" stroke-linejoin="round"/><path d="M37.96 5.9043L20.8 23.1943L40.8 33.1943L57.96 15.9043L37.96 5.9043Z" stroke="#229EFF" stroke-linejoin="round"/><path d="M31.5601 49.3243L11.5601 39.3243L2.97998 34.4343L22.98 44.4343L31.5601 49.3243Z" stroke="#229EFF" stroke-linejoin="round"/><path d="M27.5999 36.4644L26.99 37.5143L22.98 44.4344L2.97998 34.4344L7.59985 26.4644L27.5999 36.4644Z" stroke="#229EFF" stroke-linejoin="round"/><path d="M42.1399 90.0142L24.1299 81.1143L23.4199 80.7642C21.8599 79.9342 20.39 78.8442 19.03 77.4742C14.05 72.4942 11.5601 65.2042 11.5601 55.6042V39.3242L31.5601 49.3242V65.6042C31.5601 72.2842 32.7699 77.8543 35.1899 82.2943C36.2299 84.2343 37.52 85.9642 39.03 87.4742C40.01 88.4642 41.0499 89.3042 42.1399 90.0142Z" stroke="#229EFF" stroke-linejoin="round"/><path d="M84.3699 12.0244V35.1245C84.3699 38.3445 84.0499 41.7144 83.4199 45.2344C82.7799 48.7544 81.8401 52.3645 80.5701 56.0645L60.99 44.8044L40.8 33.1944L57.96 15.9044L64.3699 14.9644L84.3699 12.0244Z" stroke="#229EFF" stroke-linejoin="round"/><path d="M84.3699 12.0242L64.3699 14.9642L57.96 15.9042L37.96 5.90417L64.3699 2.02417L84.3699 12.0242Z" stroke="#229EFF" stroke-linejoin="round"/><path d="M80.5701 56.0641L60.5701 46.0641L20.8 23.1941L40.8 33.1941L60.99 44.8041L80.5701 56.0641Z" stroke="#229EFF" stroke-linejoin="round"/><path d="M83.71 79.0542L72.6399 73.5242" stroke="#229EFF" stroke-linejoin="round"/></svg>