<svg width="48" height="48" viewBox="0 0 94 112" fill="none" xmlns="http://www.w3.org/2000/svg" stroke-width="1px"
     stroke-linecap="round" stroke-linejoin="round">
    <path d="M89.8906 49.5022C89.8906 50.6922 89.6706 51.9222 89.2406 53.1922C88.8106 54.4722 88.1906 55.7022 87.3906 56.8922L86.4807 58.2522L79.5306 68.6622C78.9506 68.5922 78.3206 68.4322 77.6306 68.1722C76.9406 67.9122 76.1906 67.5822 75.3906 67.1922L82.6807 56.3522L84.1106 54.2322C84.2806 54.0022 84.4807 53.4222 84.7107 52.4922C84.7107 52.1622 84.6506 51.9022 84.5406 51.7022C84.4206 51.5022 84.3107 51.3722 84.1907 51.3122C84.1407 51.2922 84.0906 51.2722 84.0406 51.2422L83.9407 51.1922C83.5207 50.9522 83.2906 50.4922 83.2406 49.8222C83.1806 49.0322 83.3907 48.1722 83.8507 47.2522C84.3107 46.3222 84.8807 45.6422 85.5707 45.2122C86.2607 44.7822 86.9007 44.6622 87.4707 44.8622C88.2807 45.1222 88.8806 45.6622 89.2906 46.4822C89.6906 47.3122 89.8906 48.3122 89.8906 49.5022Z" stroke="currentColor" stroke-linejoin="round"/>
    <path d="M84.7106 38.6222C84.7106 39.8122 84.4805 41.0922 84.0205 42.4422C83.9505 42.6422 83.8805 42.8322 83.8005 43.0222C83.3805 44.1622 82.8105 45.2422 82.1205 46.2622L80.1105 49.2722L77.2106 53.6122L70.3805 63.8422L68.5005 62.9022L63.4606 60.3822L62.2006 59.7522C61.8406 59.0022 61.5405 58.2622 61.3105 57.5122L64.2106 58.9622L67.4506 60.5822L71.5005 54.5022L73.3705 51.7022L76.2705 47.3522L78.8406 43.5022C79.0106 43.2722 79.2106 42.6622 79.4406 41.6622C79.4406 41.5422 79.3005 41.2022 79.0105 40.6322C78.9805 40.5822 78.9605 40.5322 78.9305 40.4822C78.8005 40.4422 78.6906 40.3822 78.5806 40.3022L78.5405 40.2822C78.2105 40.0222 78.0206 39.5922 77.9806 39.0022C77.9206 38.2022 78.1206 37.3422 78.5806 36.4222C79.0406 35.4922 79.6205 34.8022 80.3105 34.3322C81.0005 33.8722 81.6306 33.7322 82.2106 33.9322C83.0106 34.1922 83.6305 34.7422 84.0605 35.5822C84.4905 36.4222 84.7106 37.4422 84.7106 38.6222Z" stroke="currentColor" stroke-linejoin="round"/>
    <path d="M79.5303 27.9522C79.5303 29.1322 79.3003 30.4122 78.8403 31.7622C78.7903 31.9022 78.7503 32.0322 78.6903 32.1722C78.2503 33.3822 77.6703 34.5122 76.9403 35.5822L75.0002 38.5122L74.9403 38.6022L70.9203 44.6822L64.4203 54.5022C64.3103 53.9022 64.2102 53.3022 64.1202 52.6922C64.0902 52.4322 64.0603 52.1722 64.0403 51.9122C64.0103 51.5422 63.9902 51.1622 63.9902 50.7822V47.5222L67.1302 42.7822L69.8503 38.6722L71.1503 36.7022L71.2103 36.6222L73.6603 32.9222C73.8903 32.5922 74.1203 31.9622 74.3503 31.0322C74.3503 30.6422 74.2603 30.3222 74.0903 30.0922C73.9503 29.9022 73.8303 29.7722 73.7303 29.6922L73.4203 29.5322C72.9903 29.3022 72.7603 28.8722 72.7103 28.2222C72.6503 27.4622 72.8503 26.6222 73.3203 25.6922C73.7803 24.7622 74.3703 24.0622 75.0803 23.5822C75.8003 23.1022 76.4503 22.9522 77.0303 23.1522C77.8303 23.4822 78.4502 24.0622 78.8802 24.9022C79.3102 25.7422 79.5303 26.7622 79.5303 27.9522Z" stroke="currentColor" stroke-linejoin="round"/>
    <path d="M74.3503 16.8722C74.3503 17.9922 74.1502 19.1822 73.7502 20.4422C73.6502 20.7422 73.5403 21.0422 73.4203 21.3422C73.0403 22.2822 72.5403 23.2122 71.9303 24.1122L69.6302 27.6422L65.6202 33.8222L63.9902 36.3222V28.6022L64.6503 27.5922L65.8503 25.7522L68.6503 21.4522C68.8303 21.2122 68.9603 20.9822 69.0403 20.7322C69.1303 20.4822 69.1703 20.2222 69.1703 19.9622C69.1703 19.6022 69.1103 19.3322 68.9703 19.1222C68.9103 19.0222 68.8402 18.9422 68.7402 18.8722C68.5902 18.7722 68.4103 18.7322 68.2203 18.7522C68.0403 18.7722 67.8402 18.8522 67.6202 18.9722C66.7002 19.5122 65.8602 19.8222 65.1102 19.9222C64.8302 19.9622 64.6003 19.9022 64.4203 19.7322C64.1303 19.4622 63.9902 18.9222 63.9902 18.1022C63.9902 17.5922 64.0503 17.1322 64.1603 16.7122C64.3303 16.0222 64.6502 15.4422 65.1102 14.9722C65.8602 14.2122 66.7002 13.5622 67.6202 13.0322C69.2702 12.0822 70.7103 11.8522 71.9503 12.3622L72.3702 12.5722C73.6902 13.3222 74.3503 14.7622 74.3503 16.8722Z" stroke="currentColor" stroke-linejoin="round"/>
    <path d="M91.6205 62.5722C91.6205 65.8722 90.6106 69.2622 88.5906 72.7422C86.5806 76.2122 84.1305 78.7822 81.2605 80.4422C79.8805 81.2422 78.3105 81.6822 76.5505 81.7722C74.8005 81.8622 73.0005 81.6122 71.1605 81.0222C70.3805 80.7722 69.6106 80.4722 68.8306 80.1222C68.8306 80.1222 68.3105 79.8622 67.4305 79.4322C66.8505 79.1122 66.2605 78.7622 65.6805 78.3922C63.8605 77.2222 62.1505 75.8222 60.5405 74.1722C59.6805 73.2922 59.0005 72.7322 58.5105 72.5222C58.0205 72.3122 57.5506 72.3422 57.0906 72.6022C56.7206 72.8222 56.3406 73.1922 55.9506 73.7422C55.8506 73.8722 55.7605 74.0222 55.6605 74.1722C55.1705 74.9422 54.5005 76.2822 53.6305 78.1622C52.0205 81.6722 50.3105 85.0522 48.5005 88.3122C46.6805 91.5722 44.8605 94.5522 43.0205 97.2722C41.1705 99.9822 39.3805 102.312 37.6205 104.252C35.8605 106.182 34.3005 107.552 32.9205 108.352C30.0405 110.012 27.5906 110.272 25.5806 109.122C23.5606 107.972 22.5605 105.742 22.5605 102.442C22.5605 101.322 22.8905 100.192 23.5505 99.0522C24.2105 97.9022 25.0305 97.0522 26.0105 96.4922C26.8905 95.9822 27.6405 95.8522 28.2605 96.1122L28.4706 96.2122C29.1306 96.5822 29.4606 97.3322 29.4606 98.4622C29.4606 99.5922 29.7906 100.332 30.4606 100.712C31.1206 101.082 31.9405 100.992 32.9205 100.422C33.7805 99.9322 34.7405 99.0722 35.8105 97.8622C36.8705 96.6522 37.9805 95.1622 39.1305 93.3722C40.2805 91.5822 41.4205 89.6522 42.5405 87.5922C43.6605 85.5222 44.7705 83.3422 45.8605 81.0622C47.5005 77.6022 48.9405 74.2022 50.1805 70.8522C50.2005 70.8022 50.2205 70.7522 50.2405 70.7022C50.6405 69.6222 51.0305 68.5422 51.3905 67.4722C52.1105 65.3322 52.6605 63.3922 53.0305 61.6622C53.4305 59.7922 53.6305 58.1622 53.6305 56.7622V21.1022C53.6305 20.6522 53.6805 20.2022 53.7905 19.7522C53.9505 19.0722 54.2305 18.3922 54.6305 17.7122C55.1105 16.8922 55.6705 16.2122 56.3105 15.6922C56.5605 15.4822 56.8206 15.3122 57.0906 15.1522C57.7006 14.7922 58.2406 14.6322 58.7306 14.6422C58.9506 14.6522 59.1506 14.6922 59.3406 14.7722L59.5505 14.8722C60.2105 15.2422 60.5405 15.9922 60.5405 17.1222V52.7822C60.5405 54.0022 60.6905 55.2322 61.0105 56.4522C61.0905 56.8022 61.1905 57.1622 61.3105 57.5122C61.5405 58.2622 61.8406 59.0022 62.2006 59.7522C62.3706 60.1322 62.5705 60.5022 62.7805 60.8822C62.8205 60.9722 62.8705 61.0522 62.9105 61.1222C63.9105 62.8822 65.0506 64.5222 66.3406 66.0222C66.9606 66.7422 67.6205 67.4422 68.3105 68.1022C69.4005 69.1222 70.5105 70.0222 71.6305 70.7922C72.7505 71.5622 73.8905 72.1822 75.0405 72.6422C76.1905 73.0922 77.3005 73.3122 78.3705 73.2922C79.4305 73.2722 80.3905 73.0122 81.2605 72.5122C82.2405 71.9522 83.0606 71.1022 83.7206 69.9522C84.3806 68.8122 84.7106 67.6822 84.7106 66.5622C84.7106 65.4422 85.0406 64.3022 85.7006 63.1622C86.3606 62.0222 87.1805 61.1722 88.1605 60.6022C89.0405 60.1022 89.7905 59.9622 90.4205 60.2222L90.6205 60.3222C91.2805 60.7022 91.6205 61.4522 91.6205 62.5722Z" stroke="currentColor" stroke-linejoin="round"/>
    <path d="M38.7903 88.3222C37.9803 89.6422 37.2303 90.8322 36.5403 91.8922C35.8503 92.9522 35.2203 93.8522 34.6403 94.5722L26.8702 91.8322C26.5602 91.7322 26.2703 91.5922 26.0103 91.4022L25.9703 91.3822C25.5803 91.1122 25.2403 90.7522 24.9703 90.3022C24.5103 89.5422 24.2803 88.5722 24.2803 87.3822C24.2803 86.5922 24.3703 85.7722 24.5603 84.9322C24.6403 84.5122 24.7503 84.0922 24.8903 83.6622C25.0903 83.0122 25.3403 82.3822 25.6503 81.7522C25.9503 81.1422 26.3003 80.5322 26.7003 79.9422C27.2803 79.0822 27.9103 78.4722 28.6003 78.1022C28.6103 78.1022 28.6102 78.0922 28.6202 78.0922C29.1202 77.8322 29.5703 77.7722 29.9503 77.9222H29.9603C30.0903 77.9722 30.2103 78.0522 30.3303 78.1522C30.7903 78.5422 31.0003 79.1622 30.9703 80.0022C30.9403 80.8422 30.6403 81.6922 30.0703 82.5522C29.9503 82.7522 29.8203 83.0322 29.6803 83.3722C29.6303 83.4822 29.5903 83.5922 29.5603 83.7022C29.4903 83.9322 29.4603 84.1622 29.4603 84.3922C29.4603 84.6522 29.5103 84.8822 29.5903 85.0622C29.6803 85.2422 29.8403 85.3622 30.0703 85.4322L38.7903 88.3222Z" stroke="currentColor" stroke-linejoin="round"/>
    <path d="M49.7703 36.4122L50.1803 36.5722V44.3022L45.6903 42.5822L44.0403 41.9422L42.2402 41.2522C42.0002 41.1722 41.7803 41.0722 41.5803 40.9622C41.1503 40.6922 40.8003 40.3322 40.5403 39.8722C40.5003 39.8122 40.4603 39.7522 40.4303 39.6822C40.0203 38.8822 39.8203 37.9322 39.8203 36.8122C39.8203 35.5422 40.0603 34.2522 40.5403 32.9222C40.6503 32.5922 40.7803 32.2722 40.9303 31.9422C41.1803 31.3722 41.4703 30.7922 41.8103 30.2122C42.6403 28.7822 43.5703 27.5922 44.6003 26.6322C45.2103 26.0722 45.8603 25.5922 46.5503 25.1922C47.4803 24.6622 48.3103 24.3422 49.0603 24.2422C49.2003 24.2222 49.3303 24.2322 49.4403 24.2622L49.6503 24.3622C50.0003 24.5922 50.1803 25.1622 50.1803 26.0722C50.1803 27.2622 49.8803 28.2322 49.2603 28.9622C49.2003 29.0422 49.1303 29.1222 49.0603 29.1922C48.3103 29.9622 47.4803 30.6022 46.5503 31.1322C46.0903 31.4022 45.7203 31.8122 45.4303 32.3822C45.1403 32.9422 45.0002 33.4522 45.0002 33.9122V33.9822C45.0102 34.2222 45.0502 34.3922 45.1302 34.5322C45.2202 34.6822 45.3503 34.7722 45.5203 34.8022L45.7402 34.8822L49.7703 36.4122Z" stroke="currentColor" stroke-linejoin="round"/>
    <path d="M50.1807 55.4922V58.7622C50.1807 59.0622 50.1706 59.3722 50.1506 59.6922C50.1306 60.0522 50.1007 60.4322 50.0507 60.8122C49.9607 61.5222 49.8606 62.2422 49.7506 62.9722L37.2307 58.6122C37.0907 58.5722 36.9607 58.5122 36.8307 58.4522H36.8107C36.6807 58.3722 36.5507 58.2922 36.4307 58.2122L36.4006 58.1922C35.9806 57.8922 35.6207 57.4722 35.3307 56.9322C34.8707 56.0722 34.6406 55.0522 34.6406 53.8622C34.6406 52.6122 34.8707 51.3222 35.3307 50.0022C35.5207 49.4622 35.7406 48.9222 35.9906 48.3922C36.3406 47.6222 36.7607 46.8722 37.2307 46.1322C37.7507 45.3022 38.3707 44.7122 39.0907 44.3622C39.5207 44.1522 39.9106 44.0722 40.2506 44.1322L40.3107 44.1522C40.3607 44.1522 40.4107 44.1622 40.4607 44.1922L40.6306 44.2722C40.7106 44.3122 40.7906 44.3722 40.8606 44.4322C41.3206 44.8222 41.5207 45.4322 41.4607 46.2622C41.4307 46.6122 41.3606 46.9622 41.2506 47.3122C41.0906 47.8022 40.8506 48.2922 40.5106 48.7922C40.4006 48.9922 40.2507 49.3022 40.0807 49.7322C40.0007 49.9422 39.9306 50.1522 39.8906 50.3522C39.8406 50.5622 39.8207 50.7722 39.8207 50.9722C39.8207 51.1022 40.0506 51.4622 40.5106 52.0622L44.3507 53.4222L50.1807 55.4922Z" stroke="currentColor" stroke-linejoin="round"/>
    <path d="M64.42 54.5022L62.8401 53.7122L60.54 52.5622V45.8022L62.42 46.7422L63.99 47.5222V50.7822C63.99 51.1622 64.01 51.5422 64.04 51.9122C64.06 52.1722 64.09 52.4322 64.12 52.6922C64.21 53.3022 64.31 53.9022 64.42 54.5022Z" stroke="currentColor" stroke-linejoin="round"/>
    <path d="M69.17 19.9622C69.17 20.2222 69.13 20.4822 69.04 20.7322C68.96 20.9822 68.83 21.2122 68.65 21.4522L65.8501 25.7522L64.65 27.5922L63.99 28.6022L60.54 26.8822V17.8022L64.42 19.7322C64.6 19.9022 64.83 19.9622 65.11 19.9222C65.86 19.8222 66.7 19.5122 67.62 18.9722C67.84 18.8522 68.0401 18.7722 68.2201 18.7522C68.4101 18.7322 68.59 18.7722 68.74 18.8722C68.84 18.9422 68.9101 19.0222 68.9701 19.1222C69.1101 19.3322 69.17 19.6022 69.17 19.9622Z" stroke="currentColor" stroke-linejoin="round"/>
    <path d="M49.79 36.3822L49.77 36.4122L45.74 34.8822L45.52 34.8022C45.35 34.7722 45.22 34.6822 45.13 34.5322C45.05 34.3922 45.01 34.2222 45 33.9822L46 34.4822L49.79 36.3822Z" stroke="currentColor" stroke-linejoin="round"/>
    <path d="M28.2605 96.1122C27.6405 95.8522 26.8905 95.9822 26.0105 96.4922C25.0305 97.0522 24.2105 97.9022 23.5505 99.0522C22.8905 100.192 22.5605 101.322 22.5605 102.442C22.5605 105.742 23.5606 107.972 25.5806 109.122L6.21057 99.4322L5.58057 99.1222C3.56057 97.9722 2.56055 95.7422 2.56055 92.4422C2.56055 91.3222 2.89054 90.1922 3.55054 89.0522C4.21054 87.9022 5.0305 87.0522 6.0105 86.4922C6.9905 85.9222 7.81058 85.8322 8.47058 86.2122L14.4905 89.2222L19.6805 91.8122L28.2605 96.1122Z" stroke="currentColor" stroke-linejoin="round"/>
    <path d="M46.731 72.6422C46.271 73.7622 45.7909 74.8622 45.3009 75.9422C44.8109 77.0122 44.3109 78.1022 43.7909 79.1922L32.0509 75.1722C31.7509 75.0722 31.4709 74.9422 31.2209 74.7622L31.2009 74.7422C31.0009 74.6122 30.8209 74.4622 30.6509 74.2722C30.4709 74.0722 30.3009 73.8522 30.1509 73.5922C29.6909 72.8022 29.4609 71.8122 29.4609 70.6222C29.4609 69.4322 29.6609 68.1822 30.0709 66.8522C30.2909 66.1222 30.5709 65.4222 30.9209 64.7322C31.2009 64.1722 31.5209 63.6222 31.8809 63.0822C32.4609 62.2222 33.1009 61.6222 33.8209 61.2722C34.3509 61.0122 34.8109 60.9622 35.2009 61.1022L35.3708 61.1822C35.4508 61.2322 35.5209 61.2822 35.5909 61.3422C36.0509 61.7322 36.2509 62.3422 36.2009 63.1722C36.1909 63.2622 36.1809 63.3622 36.1709 63.4522C36.0609 64.1822 35.7609 64.9422 35.2509 65.7022C35.0709 65.9322 34.9309 66.2422 34.8109 66.6422C34.8109 66.6522 34.8009 66.6722 34.8009 66.6822C34.7009 67.0622 34.6409 67.4122 34.6409 67.7322C34.6409 67.9922 34.6909 68.2222 34.7709 68.4022C34.8609 68.5822 35.0209 68.7022 35.2509 68.7722L46.731 72.6422Z" stroke="currentColor" stroke-linejoin="round"/>
    <path d="M40.4607 44.1922C40.4107 44.1622 40.3607 44.1522 40.3107 44.1522L40.2506 44.1322C39.9106 44.0722 39.5207 44.1522 39.0907 44.3622C38.3707 44.7122 37.7507 45.3022 37.2307 46.1322C36.7607 46.8722 36.3406 47.6222 35.9906 48.3922C35.7406 48.9222 35.5207 49.4622 35.3307 50.0022C34.8707 51.3222 34.6406 52.6122 34.6406 53.8622C34.6406 55.1122 34.8707 56.0722 35.3307 56.9322C35.6207 57.4722 35.9806 57.8922 36.4006 58.1922L36.4307 58.2122C36.5507 58.2922 36.6807 58.3722 36.8107 58.4422L31.8806 55.9722L17.2307 48.6122L17.1306 48.5722C16.8906 48.4922 16.6707 48.3822 16.4607 48.2322H16.4407C16.0007 47.9122 15.6307 47.4822 15.3307 46.9322C14.8707 46.0722 14.6406 45.0522 14.6406 43.8622C14.6406 42.6122 14.8707 41.3222 15.3307 40.0022C15.7907 38.6722 16.4307 37.3822 17.2307 36.1322C17.7507 35.3022 18.3707 34.7122 19.0907 34.3622C19.6007 34.1122 20.0407 34.0522 20.4207 34.1822L20.7307 34.3422L33.6306 40.7822L40.4607 44.1922Z" stroke="currentColor" stroke-linejoin="round"/>
    <path d="M71.9503 12.3622C70.7103 11.8522 69.2702 12.0822 67.6202 13.0322C66.7002 13.5622 65.8602 14.2122 65.1102 14.9722C64.6502 15.4422 64.3303 16.0222 64.1603 16.7122C64.0503 17.1322 63.9902 17.5922 63.9902 18.1022C63.9902 18.9222 64.1303 19.4622 64.4203 19.7322L60.5403 17.8022V17.1222C60.5403 15.9922 60.2103 15.2422 59.5503 14.8722L59.3403 14.7722L58.5603 14.3722L56.0603 13.1222L53.2502 11.7222L49.1503 9.6722L47.6803 8.94219L44.0703 7.13219C44.2103 6.25219 44.5602 5.53219 45.1102 4.97219C45.8602 4.21219 46.7002 3.56219 47.6202 3.03219C49.4102 2.00219 50.9603 1.82218 52.2703 2.52218L52.3702 2.5722L71.9503 12.3622Z" stroke="currentColor" stroke-linejoin="round"/>
    <path d="M87.4705 44.8622C86.9005 44.6622 86.2604 44.7822 85.5704 45.2122C84.8804 45.6422 84.3105 46.3222 83.8505 47.2522C83.3905 48.1722 83.1804 49.0322 83.2404 49.8222C83.2904 50.4922 83.5204 50.9522 83.9404 51.1922L80.1104 49.2722L82.1204 46.2622C82.8104 45.2422 83.3804 44.1622 83.8004 43.0222L87.4705 44.8622Z" stroke="currentColor" stroke-linejoin="round"/>
    <path d="M82.2101 33.9322C81.6301 33.7322 81.0001 33.8722 80.3101 34.3322C79.6201 34.8022 79.0401 35.4922 78.5801 36.4222C78.1201 37.3422 77.9201 38.2022 77.9801 39.0022C78.0201 39.5922 78.21 40.0222 78.54 40.2822L75 38.5122L76.9401 35.5822C77.6701 34.5122 78.2501 33.3822 78.6901 32.1722L82.2101 33.9322Z" stroke="currentColor" stroke-linejoin="round"/>
    <path d="M46.7307 72.6422L35.2506 68.7722C35.0206 68.7022 34.8606 68.5822 34.7706 68.4022C34.6906 68.2222 34.6406 67.9922 34.6406 67.7322C34.6406 67.4122 34.7007 67.0622 34.8007 66.6822L46.7307 72.6422Z" stroke="currentColor" stroke-linejoin="round"/>
    <path d="M50.1803 55.4922L44.3503 53.4222L40.5103 52.0622C40.0503 51.4622 39.8203 51.1022 39.8203 50.9722C39.8203 50.7722 39.8403 50.5622 39.8903 50.3522L43.5303 52.1622L50.1803 55.4922Z" stroke="currentColor" stroke-linejoin="round"/>
    <path d="M49.4403 24.2622C49.3303 24.2322 49.2003 24.2222 49.0603 24.2422C48.3103 24.3422 47.4803 24.6622 46.5503 25.1922C45.8603 25.5922 45.2103 26.0722 44.6003 26.6322C43.5703 27.5922 42.6403 28.7822 41.8103 30.2122C41.4703 30.7922 41.1803 31.3722 40.9303 31.9422C40.7803 32.2722 40.6503 32.5922 40.5403 32.9222C40.0603 34.2522 39.8203 35.5422 39.8203 36.8122C39.8203 37.9322 40.0203 38.8822 40.4303 39.6822C40.4603 39.7522 40.5003 39.8122 40.5403 39.8722C40.8003 40.3322 41.1503 40.6922 41.5803 40.9622L40.5403 40.4422L33.6302 36.9722L22.2402 31.2522C21.4302 30.9922 20.8303 30.4722 20.4303 29.6822C20.0203 28.8822 19.8203 27.9322 19.8203 26.8122C19.8203 24.6922 20.4803 22.4922 21.8103 20.2122C23.1303 17.9322 24.7103 16.2522 26.5503 15.1922C27.4803 14.6622 28.3103 14.3422 29.0603 14.2422C29.2703 14.2122 29.4602 14.2422 29.6102 14.3422L29.6703 14.3722L33.6302 16.3522L40.5403 19.8122L43.9902 21.5322L46.3403 22.7122L49.4403 24.2622Z" stroke="currentColor" stroke-linejoin="round"/>
    <path d="M29.9503 77.9222C29.5703 77.7722 29.1202 77.8322 28.6202 78.0922C28.6202 78.0922 28.6203 78.1022 28.6003 78.1022C27.9103 78.4722 27.2803 79.0822 26.7003 79.9422C26.3003 80.5322 25.9503 81.1422 25.6503 81.7522C25.3403 82.3822 25.0903 83.0122 24.8903 83.6622C24.7503 84.0922 24.6403 84.5122 24.5603 84.9322C24.3703 85.7722 24.2803 86.5922 24.2803 87.3822C24.2803 88.5722 24.5103 89.5422 24.9703 90.3022C25.2403 90.7522 25.5803 91.1122 25.9703 91.3822L21.6503 89.2222L16.7203 86.7622L6.87024 81.8322C6.07024 81.5722 5.43034 81.0622 4.97034 80.3022C4.51034 79.5422 4.28027 78.5722 4.28027 77.3822C4.28027 76.1922 4.48026 74.9522 4.89026 73.6622C5.29026 72.3722 5.89032 71.1322 6.70032 69.9422C7.28032 69.0822 7.91034 68.4722 8.60034 68.1022C9.29034 67.7422 9.87032 67.7522 10.3303 68.1522L23.9403 74.9222L28.9803 77.4322L29.9503 77.9222Z" stroke="currentColor" stroke-linejoin="round"/>
    <path d="M38.7909 88.3222L30.0709 85.4322C29.8409 85.3622 29.6809 85.2422 29.5909 85.0622C29.5109 84.8822 29.4609 84.6522 29.4609 84.3922C29.4609 84.1622 29.4909 83.9322 29.5609 83.7022L38.7909 88.3222Z" stroke="currentColor" stroke-linejoin="round"/>
    <path d="M35.2009 61.1022C34.8109 60.9622 34.3509 61.0122 33.8209 61.2722C33.1009 61.6222 32.4609 62.2222 31.8809 63.0822C31.5209 63.6222 31.2009 64.1722 30.9209 64.7322C30.5709 65.4222 30.2909 66.1222 30.0709 66.8522C29.6609 68.1822 29.4609 69.4322 29.4609 70.6222C29.4609 71.8122 29.6909 72.8022 30.1509 73.5922C30.3009 73.8522 30.4709 74.0722 30.6509 74.2722C30.8209 74.4622 31.0009 74.6122 31.2009 74.7422L30.5709 74.4322L25.4609 71.8822L12.0509 65.1722C11.2509 64.9122 10.6109 64.3822 10.1509 63.5922C9.69088 62.8022 9.46094 61.8122 9.46094 60.6222C9.46094 59.4322 9.66092 58.1822 10.0709 56.8522C10.4709 55.5322 11.0709 54.2822 11.8809 53.0822C12.4609 52.2222 13.1009 51.6222 13.8209 51.2722C14.4209 50.9822 14.931 50.9422 15.351 51.1722L15.4009 51.2022L30.8809 58.9422L35.2009 61.1022Z" stroke="currentColor" stroke-linejoin="round"/>
    <path d="M59.3403 14.7722C59.1503 14.6922 58.9503 14.6522 58.7303 14.6422C58.2403 14.6422 57.7003 14.7922 57.0903 15.1522C56.8203 15.3122 56.5603 15.4822 56.3103 15.6922C55.6703 16.2122 55.1102 16.8922 54.6302 17.7122C54.2302 18.3922 53.9503 19.0722 53.7903 19.7522C53.6803 20.2022 53.6302 20.6522 53.6302 21.1022V56.7622C53.6302 58.1622 53.4303 59.7922 53.0303 61.6622C52.6603 63.3922 52.1103 65.3322 51.3903 67.4722C51.0303 68.5422 50.6402 69.6222 50.2402 70.7022C50.2202 70.7522 50.2003 70.8022 50.1803 70.8522C48.9403 74.2022 47.5002 77.6022 45.8602 81.0622C44.7702 83.3422 43.6603 85.5222 42.5403 87.5922C41.4203 89.6522 40.2802 91.5822 39.1302 93.3722C37.9802 95.1622 36.8703 96.6522 35.8103 97.8622C34.7403 99.0722 33.7803 99.9322 32.9203 100.422C31.9403 100.992 31.1203 101.082 30.4603 100.712C29.7903 100.332 29.4603 99.5822 29.4603 98.4622C29.4603 97.3422 29.1303 96.5822 28.4703 96.2122L28.2603 96.1122L19.6803 91.8122L14.4902 89.2222C14.9102 88.8422 15.3503 88.3822 15.8103 87.8622C16.1103 87.5222 16.4203 87.1522 16.7203 86.7622L21.6503 89.2222L25.9703 91.3822L26.0103 91.4022C26.2703 91.5922 26.5602 91.7322 26.8702 91.8322L34.6403 94.5722C35.2203 93.8522 35.8503 92.9522 36.5403 91.8922C37.2303 90.8322 37.9803 89.6422 38.7903 88.3222L29.5603 83.7022C29.5903 83.5922 29.6303 83.4822 29.6803 83.3722C29.8203 83.0322 29.9503 82.7522 30.0703 82.5522C30.6403 81.6922 30.9403 80.8422 30.9703 80.0022C31.0003 79.1622 30.7903 78.5422 30.3303 78.1522C30.2103 78.0522 30.0903 77.9722 29.9603 77.9222H29.9503L28.9803 77.4322L23.9403 74.9222C24.4603 73.9322 24.9603 72.9122 25.4603 71.8822L30.5703 74.4322L31.2003 74.7422L31.2203 74.7622C31.4703 74.9422 31.7503 75.0722 32.0503 75.1722L43.7903 79.1922C44.3103 78.1022 44.8103 77.0122 45.3003 75.9422C45.7903 74.8622 46.2703 73.7622 46.7303 72.6422L34.8003 66.6822C34.8003 66.6822 34.8103 66.6522 34.8103 66.6422C34.9303 66.2422 35.0702 65.9322 35.2502 65.7022C35.7602 64.9422 36.0603 64.1822 36.1703 63.4522C36.1803 63.3622 36.1903 63.2622 36.2003 63.1722C36.2503 62.3422 36.0503 61.7322 35.5903 61.3422C35.5203 61.2822 35.4502 61.2322 35.3702 61.1822L35.2003 61.1022L30.8802 58.9422C31.0602 58.4522 31.2203 57.9622 31.3903 57.4722C31.5703 56.9622 31.7202 56.4522 31.8802 55.9722L36.8103 58.4422H36.8303C36.9603 58.5122 37.0903 58.5722 37.2303 58.6122L49.7502 62.9722C49.8602 62.2422 49.9603 61.5222 50.0503 60.8122C50.1003 60.4322 50.1303 60.0522 50.1503 59.6922C50.1703 59.3722 50.1803 59.0622 50.1803 58.7622V55.4922L43.5303 52.1722L39.8903 50.3522C39.9303 50.1522 40.0003 49.9422 40.0803 49.7322C40.2503 49.3022 40.4003 48.9922 40.5103 48.7922C40.8503 48.2922 41.0902 47.8022 41.2502 47.3122C41.3602 46.9622 41.4303 46.6122 41.4603 46.2622C41.5203 45.4322 41.3202 44.8222 40.8602 44.4322C40.7902 44.3722 40.7102 44.3122 40.6302 44.2722L40.4603 44.1922L33.6302 40.7822V36.9722L40.5403 40.4422L41.5803 40.9622C41.7803 41.0722 42.0002 41.1722 42.2402 41.2522L44.0403 41.9422L45.6903 42.5822L50.1803 44.3022V36.5722L49.7903 36.3822L46.0002 34.4822L45.0002 33.9822V33.9122C45.0002 33.4522 45.1403 32.9422 45.4303 32.3822C45.7203 31.8122 46.0903 31.4022 46.5503 31.1322C47.4803 30.6022 48.3103 29.9622 49.0603 29.1922C49.1303 29.1222 49.2003 29.0422 49.2603 28.9622C49.8803 28.2322 50.1803 27.2622 50.1803 26.0722C50.1803 25.1622 50.0003 24.5922 49.6503 24.3622L49.4403 24.2622L46.3403 22.7122L43.9902 21.5322L40.5403 19.8122L33.6302 16.3522V11.1022C33.6302 9.98221 33.9602 8.85219 34.6302 7.71219C35.2902 6.57219 36.1103 5.71219 37.0903 5.15219C38.0603 4.58219 38.8803 4.4922 39.5503 4.8722L44.0703 7.1322L47.6803 8.9422L49.1503 9.67221L53.2502 11.7222L56.0603 13.1222L58.5603 14.3722L59.3403 14.7722Z" stroke="currentColor" stroke-linejoin="round"/>
    <path d="M77.0309 23.1522C76.4509 22.9522 75.8009 23.1022 75.0809 23.5822C74.3709 24.0622 73.7809 24.7622 73.3209 25.6922C72.8509 26.6222 72.6509 27.4622 72.7109 28.2222C72.7609 28.8722 72.9909 29.3022 73.4209 29.5322L69.6309 27.6422L71.9309 24.1122C72.5409 23.2122 73.0409 22.2822 73.4209 21.3422L77.0309 23.1522Z" stroke="currentColor" stroke-linejoin="round"/>
    <path d="M67.4302 79.4322C65.1002 78.2822 60.2802 75.8922 55.9502 73.7422C56.3402 73.1922 56.7202 72.8222 57.0902 72.6022C57.5502 72.3422 58.0201 72.3122 58.5101 72.5222C59.0001 72.7322 59.6802 73.2922 60.5402 74.1722C62.1502 75.8222 63.8602 77.2222 65.6802 78.3922C66.2602 78.7622 66.8502 79.1122 67.4302 79.4322Z" stroke="currentColor" stroke-linejoin="round"/>
    <path d="M63.991 28.6022V36.3222L62.541 35.5922L60.541 34.6022V26.8822L63.991 28.6022Z" stroke="currentColor" stroke-linejoin="round"/>
    <path d="M74.3511 31.0322C74.1211 31.9622 73.891 32.5922 73.661 32.9222L71.2111 36.6222L71.151 36.7022L69.8511 38.6722L67.131 42.7822L63.991 47.5222L62.421 46.7422L60.541 45.8022V34.6022L62.541 35.5922L63.991 36.3222L65.621 33.8222L69.631 27.6422L73.421 29.5322L73.7311 29.6922C73.8311 29.7722 73.9511 29.9022 74.0911 30.0922C74.2611 30.3222 74.3511 30.6422 74.3511 31.0322Z" stroke="currentColor" stroke-linejoin="round"/>
    <path d="M79.441 41.6622C79.211 42.6622 79.0111 43.2722 78.8411 43.5022L76.271 47.3522L73.371 51.7022L71.501 54.5022L67.451 60.5822L64.2111 58.9622L61.311 57.5122C61.191 57.1622 61.091 56.8022 61.011 56.4522C60.691 55.2322 60.541 54.0022 60.541 52.7822V52.5622L62.8411 53.7122L64.421 54.5022L70.921 44.6822L74.941 38.6022L75.001 38.5122L78.541 40.2822L78.5811 40.3022C78.6911 40.3822 78.801 40.4422 78.931 40.4822C78.961 40.5322 78.981 40.5822 79.011 40.6322C79.301 41.2022 79.441 41.5422 79.441 41.6622Z" stroke="currentColor" stroke-linejoin="round"/>
    <path d="M84.7102 52.4922C84.4802 53.4222 84.2801 54.0022 84.1101 54.2322L82.6802 56.3522L75.3901 67.1922L68.1002 63.5522L63.0101 61.0022L62.7802 60.8922C62.5702 60.5022 62.3702 60.1322 62.2002 59.7522L63.4602 60.3822L68.5001 62.9022L70.3801 63.8422L77.2102 53.6122L80.1101 49.2722L83.9402 51.1922L84.0402 51.2422C84.0902 51.2722 84.1402 51.2922 84.1902 51.3122C84.3102 51.3722 84.4202 51.5022 84.5402 51.7022C84.6502 51.9022 84.7102 52.1622 84.7102 52.4922Z" stroke="currentColor" stroke-linejoin="round"/>
    <path d="M90.4202 60.2222C89.7902 59.9622 89.0402 60.1022 88.1602 60.6022C87.1802 61.1722 86.3602 62.0222 85.7002 63.1622C85.0402 64.3022 84.7102 65.4422 84.7102 66.5622C84.7102 67.6822 84.3802 68.8122 83.7202 69.9522C83.0602 71.1022 82.2401 71.9522 81.2601 72.5122C80.3901 73.0122 79.4301 73.2722 78.3701 73.2922C77.3001 73.3122 76.1902 73.0922 75.0402 72.6422C73.8902 72.1822 72.7501 71.5622 71.6301 70.7922C70.5101 70.0222 69.4002 69.1222 68.3102 68.1022C67.6202 67.4422 66.9602 66.7422 66.3402 66.0222C65.0502 64.5222 63.9102 62.8822 62.9102 61.1222C62.9402 61.0822 62.9701 61.0422 63.0101 61.0022L68.1002 63.5522L75.3901 67.1922C76.1901 67.5822 76.9401 67.9122 77.6301 68.1722C78.3201 68.4322 78.9502 68.5922 79.5302 68.6622L86.4802 58.2522L90.4202 60.2222Z" stroke="currentColor" stroke-linejoin="round"/>
</svg>