<svg width="24" height="24" viewBox="0 0 88 124" fill="none" xmlns="http://www.w3.org/2000/svg" stroke-width="1px" stroke-linecap="round" stroke-linejoin="round">
    <path d="M65.7089 24.2517L58.7289 28.2817L38.6089 39.9017L22.8789 48.9817V121.082L85.7089 84.8017V12.7017L65.7089 24.2517ZM78.7389 46.5717C77.6889 47.9117 76.5689 49.1117 75.3789 50.1717C74.1889 51.2217 72.9789 52.1017 71.7589 52.8117C69.5689 54.0817 67.5489 54.7317 65.7189 54.7517C64.3389 54.7817 63.0689 54.4617 61.8989 53.7917C59.1589 52.2417 57.7889 49.2517 57.7889 44.8517C57.7889 43.4517 57.9489 41.9717 58.2689 40.4117C58.5089 39.2217 58.8489 38.0317 59.2889 36.8417C59.4189 36.4717 59.5589 36.1017 59.7089 35.7317L65.7189 32.2617L78.7389 24.7517V46.5717Z" stroke="currentColor" stroke-linejoin="round"/>
    <path d="M78.7391 46.5717C77.6891 47.9117 76.5691 49.1117 75.3791 50.1717C74.1891 51.2217 72.9791 52.1017 71.7591 52.8117C69.5691 54.0817 67.5491 54.7317 65.7191 54.7517C64.3391 54.7817 63.0691 54.4617 61.8991 53.7917C59.1591 52.2417 57.7891 49.2517 57.7891 44.8517C57.7891 43.4517 57.9491 41.9717 58.2691 40.4117C58.5091 39.2217 58.8491 38.0317 59.2891 36.8417L65.7191 40.0617L78.7391 46.5717Z" stroke="currentColor" stroke-linejoin="round"/>
    <path d="M78.7391 24.7517V46.5717L65.7191 40.0617L59.2891 36.8417C59.4191 36.4717 59.5591 36.1017 59.7091 35.7317L65.7191 32.2617L78.7391 24.7517Z" stroke="currentColor" stroke-linejoin="round"/>
    <path d="M22.8887 48.9817V121.082L2.88867 111.082V38.9817L22.8887 48.9817Z" stroke="currentColor" stroke-linejoin="round"/>
    <path d="M85.7087 12.7017L65.7087 24.2517L58.7387 28.2817L38.6187 39.9017L22.8887 48.9817L2.88867 38.9817L65.7087 2.70172L85.7087 12.7017Z" stroke="currentColor" stroke-linejoin="round"/>
</svg>