<svg width="24" height="24" viewBox="0 0 97 119" fill="none" xmlns="http://www.w3.org/2000/svg" stroke-width="1px" stroke-linecap="round" stroke-linejoin="round">
    <path d="M30.6599 71.75C30.1599 74.17 29.9099 76.54 29.9099 78.87C29.9099 78.97 29.9099 79.07 29.9199 79.16C29.9399 82.16 30.45 84.78 31.45 87.06C32.47 89.41 34.07 91.21 36.24 92.44L37.1499 92.96V82.78L41.3301 80.37L44.3899 78.61V103.53L22.6699 116.06V107.76L32.6199 102.01L31.6799 101.61H31.6499L29.6899 100.62C27.3299 99.21 25.6301 97.1 24.5701 94.3C24.4801 94.06 24.3901 93.82 24.3101 93.57C23.2101 90.41 22.6699 86.9 22.6699 83.04C22.6699 80.67 22.86 78.26 23.25 75.83C23.52 74.06 23.8999 72.27 24.3899 70.47C24.5299 69.93 24.6799 69.38 24.8499 68.84C25.8099 65.63 27.0899 62.37 28.6899 59.06C32.6999 50.76 37.9299 43.78 44.3899 38.11V46.83C40.0399 51.14 36.5399 56.22 33.8899 62.08C32.3899 65.39 31.3199 68.61 30.6599 71.75Z" stroke="currentColor" stroke-linejoin="round"/>
    <path d="M31.6494 101.6L31.1694 101.39C30.6494 101.16 30.1595 100.9 29.6895 100.62L31.6494 101.6Z" stroke="currentColor" stroke-linejoin="round"/>
    <path d="M90.3901 71.07C90.4801 70.27 90.5303 69.48 90.5303 68.68C90.5303 67.78 90.4701 66.95 90.3501 66.19L94.5103 59.63L90.9001 54.45L85.6501 59.56C84.9801 59.32 84.3402 59.17 83.7002 59.13C83.0702 59.08 82.3902 59.09 81.6702 59.16L80.5803 53.56L73.3401 57.73L72.6201 62.33L72.2603 64.59C71.5303 65.36 70.8502 66.11 70.2202 66.86C69.5902 67.6 68.9403 68.45 68.2703 69.38L63.0303 70.54L59.4102 79.69L61.3103 80.49L63.5703 81.44C63.4503 82.48 63.3901 83.42 63.3901 84.25C63.3901 85.08 63.4503 85.94 63.5703 86.84L59.9402 92.57L59.4102 93.4L63.0303 98.37L65.9902 95.6L68.2703 93.47C68.9403 93.64 69.5902 93.73 70.2202 93.75C70.8502 93.76 71.5303 93.75 72.2603 93.66L73.3401 99.27L80.5803 95.09L81.6702 88.23C82.3902 87.47 83.0702 86.71 83.7002 85.97C84.3402 85.22 84.9801 84.38 85.6501 83.44L90.9001 82.28L94.5103 73.13L90.3501 71.38C90.3601 71.28 90.3801 71.17 90.3901 71.07ZM82.0703 79.33C80.6603 81.77 78.9502 83.57 76.9602 84.72C74.9702 85.87 73.2701 86.04 71.8501 85.23C70.4301 84.42 69.7202 82.88 69.7202 80.59C69.7202 78.3 70.4301 75.94 71.8501 73.5C73.2701 71.05 74.9702 69.25 76.9602 68.1C78.9502 66.96 80.6603 66.79 82.0703 67.59C83.4903 68.4 84.2002 69.95 84.2002 72.23C84.2002 74.51 83.4903 76.88 82.0703 79.33Z" stroke="currentColor" stroke-linejoin="round"/>
    <path d="M84.1997 72.23C84.1997 74.52 83.4898 76.88 82.0698 79.33C80.6598 81.77 78.9497 83.57 76.9597 84.72C74.9697 85.87 73.2696 86.04 71.8496 85.23C70.4296 84.42 69.7197 82.88 69.7197 80.59C69.7197 78.3 70.4296 75.94 71.8496 73.5C73.2696 71.05 74.9697 69.25 76.9597 68.1C78.9497 66.96 80.6598 66.79 82.0698 67.59C83.4898 68.4 84.1997 69.95 84.1997 72.23Z" stroke="currentColor" stroke-linejoin="round"/>
    <path d="M65.8799 49.34L66.0999 49.45V49.12L65.8799 49.34Z" stroke="currentColor" stroke-linejoin="round"/>
    <path d="M22.6699 107.76V116.06L2.66992 106.06V97.76L10.3799 101.61L22.6699 107.76Z" stroke="currentColor" stroke-linejoin="round"/>
    <path d="M32.6199 102.01L22.6699 107.76L10.3799 101.61L2.66992 97.76L12.52 92.07L29.6899 100.62C30.1599 100.9 30.6499 101.16 31.1699 101.39L31.6499 101.6H31.6799L32.6199 102.01Z" stroke="currentColor" stroke-linejoin="round"/>
    <path d="M37.1499 82.78V92.96L36.24 92.44C34.07 91.21 32.47 89.41 31.45 87.06C30.45 84.78 29.9399 82.16 29.9199 79.17L37.1499 82.78Z" stroke="currentColor" stroke-linejoin="round"/>
    <path d="M44.3901 78.61L41.3303 80.37L37.1501 82.78L29.9202 79.17C29.9102 79.07 29.9102 78.97 29.9102 78.87C29.9102 76.54 30.1602 74.17 30.6602 71.75L42.9202 77.87L44.3901 78.61Z" stroke="currentColor" stroke-linejoin="round"/>
    <path d="M63.0298 98.37L44.3896 89.05V85.89L59.4097 93.4L63.0298 98.37Z" stroke="currentColor" stroke-linejoin="round"/>
    <path d="M63.5701 86.84L59.9399 92.57L59.4099 93.4L44.3899 85.89V78.61L42.9199 77.87L43.5701 76.84L60.3398 85.23L63.5701 86.84Z" stroke="currentColor" stroke-linejoin="round"/>
    <path d="M73.3396 57.73L72.6196 62.33L72.2598 64.59L52.2598 54.59L53.3396 47.73L70.3596 56.24L73.3396 57.73Z" stroke="currentColor" stroke-linejoin="round"/>
    <path d="M72.2595 64.59C71.5295 65.36 70.8495 66.11 70.2195 66.86C69.5895 67.6 68.9395 68.45 68.2695 69.38L63.2595 66.88L52.9995 61.74L48.2695 59.38C48.9395 58.45 49.5895 57.6 50.2195 56.86C50.8495 56.11 51.5295 55.36 52.2595 54.59L72.2595 64.59Z" stroke="currentColor" stroke-linejoin="round"/>
    <path d="M68.2703 69.38L63.0303 70.54L61.7302 69.89L51.2402 64.64L43.0303 60.54L48.2703 59.38L53.0002 61.74L63.2603 66.88L68.2703 69.38Z" stroke="currentColor" stroke-linejoin="round"/>
    <path d="M63.0303 70.54L59.4102 79.69L43.5403 71.75L39.4102 69.69L43.0303 60.54L51.2402 64.64L61.7302 69.89L63.0303 70.54Z" stroke="currentColor" stroke-linejoin="round"/>
    <path d="M87.8198 12L66.0996 24.53L46.0996 14.53L67.8198 2L87.8198 12Z" stroke="currentColor" stroke-linejoin="round"/>
    <path d="M80.22 45.46L73.3398 42.02V35.1L74.25 35.62C75.94 36.65 77.28 37.98 78.27 39.62C79.27 41.26 79.92 43.21 80.22 45.46Z" stroke="currentColor" stroke-linejoin="round"/>
    <path d="M23.25 75.83C22.86 78.26 22.6699 80.67 22.6699 83.04C22.6699 86.9 23.2101 90.41 24.3101 93.57C24.3901 93.82 24.4801 94.06 24.5701 94.3C25.6301 97.1 27.3299 99.21 29.6899 100.62L12.52 92.07L11.1699 91.39C8.03992 90.02 5.84007 87.66 4.57007 84.3C3.30007 80.95 2.66992 77.2 2.66992 73.04C2.66992 65.36 4.66994 57.37 8.68994 49.06C12.6999 40.76 17.9299 33.78 24.3899 28.11L44.3899 38.11C37.9299 43.78 32.6999 50.76 28.6899 59.06C27.0899 62.37 25.8099 65.63 24.8499 68.84C24.6799 69.38 24.5299 69.93 24.3899 70.47C23.8999 72.27 23.52 74.06 23.25 75.83Z" stroke="currentColor" stroke-linejoin="round"/>
    <path d="M90.8997 54.45L85.6497 59.56C84.9797 59.32 84.3397 59.17 83.6997 59.13C83.0697 59.08 82.3897 59.09 81.6697 59.16L80.5798 53.56L74.0798 50.31L69.0098 47.77L72.0098 46.05L72.9797 45.49L90.8997 54.45Z" stroke="currentColor" stroke-linejoin="round"/>
    <path d="M66.0996 24.53V49.12L65.8796 49.34L61.2498 47.03V47.02L57.6697 45.24L46.0996 39.45V14.53L66.0996 24.53Z" stroke="currentColor" stroke-linejoin="round"/>
    <path d="M87.8198 20.3L77.8696 26.05L79.3098 26.67C81.7898 28.15 83.6898 30.13 85.0098 32.62C86.3398 35.1 87.1898 37.97 87.5498 41.23L80.2197 45.46C79.9197 43.21 79.2698 41.26 78.2698 39.62C77.2798 37.98 75.9398 36.65 74.2498 35.62L73.3396 35.1V45.28L72.9797 45.49L72.0098 46.05L69.0098 47.77L66.0996 49.45V24.53L87.8198 12V20.3Z" stroke="currentColor" stroke-linejoin="round"/>
    <path d="M80.5801 53.56L73.3398 57.73L70.3599 56.24L53.3398 47.73L57.6699 45.24L61.25 47.02V47.03L65.8799 49.34L66.0999 49.45L69.01 47.77L74.0801 50.31L80.5801 53.56Z" stroke="currentColor" stroke-linejoin="round"/>
    <path d="M63.3896 84.25C63.3896 85.08 63.4498 85.94 63.5698 86.84L60.3396 85.23L43.5698 76.84C43.4498 75.94 43.3896 75.08 43.3896 74.25C43.3896 73.5 43.4398 72.67 43.5398 71.75L59.4097 79.69L61.3098 80.49L63.5698 81.44C63.4498 82.48 63.3896 83.42 63.3896 84.25Z" stroke="currentColor" stroke-linejoin="round"/>
    <path d="M73.3401 99.27L65.9902 95.6L68.2703 93.47C68.9403 93.64 69.5902 93.73 70.2202 93.75C70.8502 93.76 71.5303 93.75 72.2603 93.66L73.3401 99.27Z" stroke="currentColor" stroke-linejoin="round"/>
    <path d="M83.1101 85.99L78.9902 83.93" stroke="currentColor" stroke-linejoin="round"/>
</svg>