<svg width="48" height="48" viewBox="0 0 92 130" fill="none" xmlns="http://www.w3.org/2000/svg" stroke-width="1px"
     stroke-linecap="round" stroke-linejoin="round">
    <path d="M32.0706 85.7834V94.8134L29.7905 93.6734L23.6904 90.6235L29.7905 87.1034L32.0706 85.7834Z" stroke="currentColor" stroke-linejoin="round"/>
    <path d="M22.2305 100.503V127.603L2.23047 117.603V90.5034L22.2305 100.503Z" stroke="currentColor" stroke-linejoin="round"/>
    <path d="M49.7903 48.4534L41.6001 53.1834L39.9502 54.1334V45.1034L41.4102 44.2634L49.7903 48.4534Z" stroke="currentColor" stroke-linejoin="round"/>
    <path d="M49.7903 57.4835V48.4534L41.4102 44.2634L44.8301 42.2834L58.3701 49.0534L61.6001 50.6734L49.7903 57.4835Z" stroke="currentColor" stroke-linejoin="round"/>
    <path d="M89.1504 25.7235V52.8335L61.6003 68.7335V59.7035L53.2205 64.5435L49.7905 66.5235V75.5535L41.4004 80.3935L39.9504 81.2335V90.2735L49.7905 84.5935V111.693L22.2305 127.603V100.503L29.7905 96.1335L32.0706 94.8135V85.7835L29.7905 87.1035L23.6904 90.6235L22.2305 91.4635V64.3635L29.7905 60.0035L32.0706 58.6835V49.6435L23.6904 54.4935L22.2305 55.3335V28.2235L29.7905 23.8635L49.7905 12.3135V39.4235L44.8303 42.2835L41.4104 44.2635L39.9504 45.1035V54.1335L41.6003 53.1835L49.7905 48.4535V57.4835L61.6003 50.6735V41.6335L69.1504 37.2735L89.1504 25.7235Z" stroke="currentColor" stroke-linejoin="round"/>
    <path d="M49.7905 12.3135L29.7905 23.8635L22.2305 28.2235L2.23047 18.2235L29.7905 2.31348L49.7905 12.3135Z" stroke="currentColor" stroke-linejoin="round"/>
    <path d="M22.2305 28.2235V55.3335L2.23047 45.3335V18.2235L22.2305 28.2235Z" stroke="currentColor" stroke-linejoin="round"/>
    <path d="M32.0706 49.6434V58.6834L29.7905 57.5434L23.6904 54.4934L32.0706 49.6434Z" stroke="currentColor" stroke-linejoin="round"/>
    <path d="M32.0706 58.6834L29.7905 60.0034L22.2305 64.3634L2.23047 54.3634L10.6104 49.5234L22.2305 55.3334L23.6904 54.4934L29.7905 57.5434L32.0706 58.6834Z" stroke="currentColor" stroke-linejoin="round"/>
    <path d="M32.0706 94.8134L29.7905 96.1334L22.2305 100.503L2.23047 90.5034L10.6104 85.6534L22.2305 91.4634L23.6904 90.6234L29.7905 93.6734L32.0706 94.8134Z" stroke="currentColor" stroke-linejoin="round"/>
    <path d="M22.2305 64.3635V91.4635L10.6104 85.6535L2.23047 81.4635V54.3635L22.2305 64.3635Z" stroke="currentColor" stroke-linejoin="round"/>
    <path d="M49.7903 84.5934L39.9502 90.2734V81.2334L41.4001 80.3934L49.7903 84.5934Z" stroke="currentColor" stroke-linejoin="round"/>
    <path d="M89.1509 25.7235L69.1509 37.2735L61.6008 41.6335L49.791 35.7335V26.9035L69.1509 15.7235L89.1509 25.7235Z" stroke="currentColor" stroke-linejoin="round"/>
    <path d="M61.6001 41.6335V50.6735L58.3701 49.0535L44.8301 42.2835L49.7903 39.4235V35.7335L61.6001 41.6335Z" stroke="currentColor" stroke-linejoin="round"/>
    <path d="M61.6006 59.7035V68.7335L53.2207 64.5435L61.6006 59.7035Z" stroke="currentColor" stroke-linejoin="round"/>
</svg>