<svg width="48" height="48" viewBox="0 0 98 108" fill="none" xmlns="http://www.w3.org/2000/svg" stroke-width="1px"
     stroke-linecap="round" stroke-linejoin="round">
    <path d="M48.2607 51.2476L48.9108 51.5776C48.7008 51.4376 48.4807 51.3176 48.2607 51.2476Z" stroke="currentColor" stroke-linejoin="round"/>
    <path d="M92.3606 23.1977C90.4506 19.2277 87.8506 16.2977 84.5806 14.4277L83.1707 13.7177C80.2207 12.3777 76.8306 11.8677 73.0206 12.1777C72.6506 12.2077 72.2706 12.2477 71.9006 12.2977C67.8006 12.8177 63.4406 14.4177 58.8306 17.0877C57.5806 17.8077 56.3406 18.5877 55.1306 19.4177C51.4606 21.9477 47.9606 24.9977 44.6306 28.5677C44.5806 28.6177 44.5406 28.6677 44.5006 28.7177C41.3106 32.1477 38.4306 35.8177 35.8406 39.7177C35.4606 40.2777 35.0906 40.8577 34.7306 41.4377C34.2406 42.2077 33.7707 42.9877 33.3107 43.7777C33.2307 43.9077 33.1606 44.0377 33.0806 44.1677C31.2906 47.2477 29.7106 50.4177 28.3406 53.6577C28.0906 54.2077 27.8606 54.7577 27.6506 55.3077C26.7706 57.4777 25.9907 59.6777 25.3007 61.9177C24.9207 63.1477 24.5806 64.3777 24.2706 65.5877V65.6077C23.0406 70.4877 22.4307 75.2377 22.4307 79.8577C22.4307 85.6377 23.3907 90.5177 25.3007 94.4977C25.4507 94.8077 25.6006 95.1077 25.7606 95.3977C27.6206 98.9177 30.0506 101.538 33.0806 103.268C36.3506 105.128 40.2106 105.878 44.6306 105.518C49.0606 105.158 53.7906 103.518 58.8306 100.608C63.8606 97.7077 68.6006 93.8777 73.0206 89.1277C77.4506 84.3777 81.3006 79.1777 84.5806 73.5277C87.8506 67.8777 90.4506 61.9577 92.3606 55.7777C94.2706 49.5977 95.2306 43.6077 95.2306 37.8377C95.2306 32.0677 94.2706 27.1777 92.3606 23.1977ZM41.4507 60.2177L36.1707 61.7977C36.4207 60.4977 36.7406 59.2477 37.1206 58.0477C37.3806 57.1977 37.6806 56.3777 38.0206 55.5777C38.5706 54.2277 39.2107 52.9477 39.9507 51.7377C40.7307 50.4577 41.5507 49.3277 42.4407 48.3477C43.5507 47.0977 44.7506 46.0977 46.0306 45.3577C46.0506 45.3377 46.0706 45.3277 46.0906 45.3177C48.4006 43.9877 50.4406 43.7677 52.2306 44.6477C52.6406 44.8477 53.0306 45.1077 53.3906 45.4277C54.5806 46.4677 55.4506 48.1077 56.0106 50.3477L53.3906 52.5877L53.0106 52.9077L50.7306 54.8577C50.3706 53.2577 49.7606 52.1677 48.9106 51.5777L48.2606 51.2477H48.2406C48.1406 51.2077 48.0307 51.1877 47.9307 51.1677C47.3507 51.0677 46.7406 51.2077 46.0906 51.5877C45.0606 52.1777 44.1206 53.2577 43.2706 54.8277C42.4206 56.3977 41.8107 58.1977 41.4507 60.2177ZM73.3906 58.7977C73.3906 63.3877 71.9606 68.1477 69.1106 73.0677C66.2606 77.9777 62.8306 81.5977 58.8306 83.9077C54.8306 86.2177 51.4007 86.5577 48.5507 84.9377C48.2207 84.7477 47.9206 84.5477 47.6306 84.3177C45.3906 82.5777 44.2706 79.6777 44.2706 75.6077V67.2577L47.7306 65.2577L62.1206 56.9477L70.0106 52.3877L73.3906 50.4377V58.7977ZM76.2106 40.1477C75.8506 38.5977 75.2706 37.5177 74.4606 36.9277C74.4406 36.8977 74.4106 36.8877 74.3906 36.8677C74.2406 36.7577 74.0807 36.6777 73.9207 36.6077C73.8607 36.5877 73.8006 36.5577 73.7406 36.5377H73.7206C73.0506 36.3177 72.3407 36.4277 71.5707 36.8777C70.5407 37.4677 69.6006 38.5577 68.7506 40.1177C67.9006 41.6877 67.2907 43.4877 66.9307 45.5077L61.6506 47.0877C61.9006 45.7877 62.2206 44.5377 62.6006 43.3377C63.3106 41.0577 64.2607 38.9577 65.4307 37.0277C66.2107 35.7477 67.0307 34.6177 67.9207 33.6377C67.9307 33.6277 67.9407 33.6177 67.9407 33.6077C69.0507 32.3677 70.2406 31.3777 71.5106 30.6477C71.5306 30.6277 71.5507 30.6177 71.5707 30.6077C72.8607 29.8577 74.0707 29.4677 75.2007 29.4177C76.0907 29.3777 76.9206 29.5477 77.7106 29.9377C79.5006 30.8177 80.7606 32.7177 81.4906 35.6377L76.2106 40.1477Z" stroke="currentColor" stroke-linejoin="round"/>
    <path d="M52.3705 78.3477L44.2705 74.2877V67.6377L49.7305 70.3677V72.4577C49.7305 75.3777 50.6105 77.3377 52.3705 78.3477Z" stroke="currentColor" stroke-linejoin="round"/>
    <path d="M73.3905 50.4377V58.7977C73.3905 63.3877 71.9605 68.1477 69.1105 73.0677C66.2605 77.9777 62.8304 81.5977 58.8304 83.9077C54.8304 86.2177 51.4005 86.5577 48.5505 84.9377C48.2205 84.7477 47.9205 84.5477 47.6305 84.3177C45.3905 82.5777 44.2705 79.6778 44.2705 75.6077V74.2878L52.3705 78.3477L52.8505 78.5877C53.0105 78.6577 53.1805 78.7177 53.3505 78.7577C54.9105 79.2277 56.7404 78.8577 58.8304 77.6377C61.3804 76.1677 63.5305 73.9177 65.2905 70.8877C67.0505 67.8477 67.9305 64.8677 67.9305 61.9477V59.8577L66.8605 59.3277L62.1205 56.9477L70.0105 52.3877L73.3905 50.4377Z" stroke="currentColor" stroke-linejoin="round"/>
    <path d="M67.9305 59.8578L65.9905 60.9778L49.7305 70.3678L44.2705 67.6378V67.2578L47.7305 65.2578L62.1205 56.9478L66.8605 59.3278L67.9305 59.8578Z" stroke="currentColor" stroke-linejoin="round"/>
    <path d="M67.9305 59.8577V61.9477C67.9305 64.8677 67.0505 67.8477 65.2905 70.8877C63.5305 73.9177 61.3804 76.1677 58.8304 77.6377C56.7404 78.8577 54.9105 79.2277 53.3505 78.7577C53.1805 78.7177 53.0105 78.6577 52.8505 78.5877L52.3705 78.3477C50.6105 77.3377 49.7305 75.3777 49.7305 72.4577V70.3677L65.9905 60.9777L67.9305 59.8577Z" stroke="currentColor" stroke-linejoin="round"/>
    <path d="M81.4907 35.6376L71.5107 30.6476C71.5107 30.6476 71.5508 30.6176 71.5708 30.6076C72.8608 29.8576 74.0708 29.4676 75.2008 29.4176C76.0908 29.3776 76.9207 29.5476 77.7107 29.9376C79.5007 30.8176 80.7607 32.7176 81.4907 35.6376Z" stroke="currentColor" stroke-linejoin="round"/>
    <path d="M81.4904 35.6377L76.2103 40.1477C75.8503 38.5977 75.2703 37.5177 74.4603 36.9277C74.4403 36.8977 74.4104 36.8877 74.3904 36.8677C74.2404 36.7577 74.0804 36.6777 73.9204 36.6077L67.9404 33.6077C69.0504 32.3677 70.2404 31.3777 71.5104 30.6477L81.4904 35.6377Z" stroke="currentColor" stroke-linejoin="round"/>
    <path d="M56.0104 50.3477L53.3904 52.5877L53.0104 52.9077L50.7303 54.8577C50.3703 53.2577 49.7604 52.1677 48.9104 51.5777C48.7004 51.4377 48.4804 51.3177 48.2604 51.2477H48.2404L47.9304 51.0877L46.7904 50.5177L42.4404 48.3477C43.5504 47.0977 44.7504 46.0977 46.0304 45.3577L53.3804 49.0377L56.0104 50.3477Z" stroke="currentColor" stroke-linejoin="round"/>
    <path d="M41.4509 60.2176L36.1709 61.7976C36.4209 60.4976 36.7408 59.2476 37.1208 58.0476L41.4509 60.2176Z" stroke="currentColor" stroke-linejoin="round"/>
    <path d="M66.9304 45.5076L61.6504 47.0876C61.9004 45.7876 62.2203 44.5376 62.6003 43.3376L66.9304 45.5076Z" stroke="currentColor" stroke-linejoin="round"/>
    <path d="M56.0112 50.3477L53.3812 49.0377L46.0312 45.3577C46.0312 45.3577 46.0712 45.3277 46.0912 45.3177C48.4012 43.9877 50.4412 43.7677 52.2312 44.6477C52.6412 44.8477 53.0312 45.1077 53.3912 45.4277C54.5812 46.4677 55.4512 48.1077 56.0112 50.3477Z" stroke="currentColor" stroke-linejoin="round"/>
    <path d="M47.9312 51.0877V51.1677C47.3512 51.0677 46.7411 51.2077 46.0911 51.5877C45.0611 52.1777 44.1211 53.2577 43.2711 54.8277C42.4211 56.3977 41.8112 58.1977 41.4512 60.2177L37.1211 58.0477C37.3811 57.1977 37.6811 56.3777 38.0211 55.5777C38.5711 54.2277 39.2112 52.9477 39.9512 51.7377C40.7312 50.4577 41.5512 49.3277 42.4412 48.3477L46.7911 50.5177L47.9312 51.0877Z" stroke="currentColor" stroke-linejoin="round"/>
    <path d="M83.1707 13.7177C80.2207 12.3777 76.8306 11.8677 73.0206 12.1777C72.6506 12.2077 72.2706 12.2477 71.9006 12.2977C67.8006 12.8177 63.4406 14.4177 58.8306 17.0877C57.5806 17.8077 56.3406 18.5877 55.1306 19.4177C51.4606 21.9477 47.9606 24.9977 44.6306 28.5677C44.5806 28.6177 44.5406 28.6677 44.5006 28.7177C41.3106 32.1477 38.4306 35.8177 35.8406 39.7177C35.4606 40.2777 35.0906 40.8577 34.7306 41.4377C34.2406 42.2077 33.7707 42.9877 33.3107 43.7777C33.2307 43.9077 33.1606 44.0377 33.0806 44.1677C31.2906 47.2477 29.7106 50.4177 28.3406 53.6577C28.0906 54.2077 27.8606 54.7577 27.6506 55.3077C26.7706 57.4777 25.9907 59.6777 25.3007 61.9177C24.9207 63.1477 24.5806 64.3777 24.2706 65.5877V65.6077C23.0406 70.4877 22.4307 75.2377 22.4307 79.8577C22.4307 85.6377 23.3907 90.5177 25.3007 94.4977C25.4507 94.8077 25.6006 95.1077 25.7606 95.3977C27.6206 98.9177 30.0506 101.538 33.0806 103.268L14.5206 93.9877L13.0806 93.2677C9.80057 91.3977 7.21066 88.4677 5.30066 84.4977C3.39066 80.5177 2.43066 75.6377 2.43066 69.8577C2.43066 64.0777 3.39066 58.1077 5.30066 51.9177C7.21066 45.7377 9.80057 39.8177 13.0806 34.1677C16.3506 28.5177 20.2106 23.3177 24.6306 18.5677C29.0606 13.8177 33.7906 9.98766 38.8306 7.08766C43.8606 4.17766 48.6006 2.53766 53.0206 2.17766C57.4506 1.81766 61.3006 2.56766 64.5806 4.42766L83.1707 13.7177Z" stroke="currentColor" stroke-linejoin="round"/>
    <path d="M73.9207 36.6077C73.8607 36.5877 73.8006 36.5577 73.7406 36.5377H73.7206C73.0506 36.3177 72.3407 36.4277 71.5707 36.8777C70.5407 37.4677 69.6006 38.5577 68.7506 40.1177C67.9006 41.6877 67.2907 43.4877 66.9307 45.5077L62.6006 43.3377C63.3106 41.0577 64.2607 38.9577 65.4307 37.0277C66.2107 35.7477 67.0307 34.6177 67.9207 33.6377C67.9307 33.6277 67.9407 33.6177 67.9407 33.6077L73.9207 36.6077Z" stroke="currentColor" stroke-linejoin="round"/>
</svg>