<svg width="48" height="48" viewBox="0 0 107 119" fill="none" xmlns="http://www.w3.org/2000/svg" stroke-width="1px"
     stroke-linecap="round" stroke-linejoin="round">
    <path d="M100.9 24.8209C98.7701 20.3909 95.8801 17.1209 92.2201 15.0409C91.9101 14.8609 91.5901 14.6909 91.2601 14.5309L91.05 14.4309C87.74 12.8409 83.9401 12.1909 79.6501 12.5009C79.5401 12.5009 79.4401 12.5109 79.3301 12.5209C75.6701 12.8209 71.82 13.9009 67.8 15.7609C66.39 16.4109 64.9501 17.1509 63.4901 18.0009C57.8701 21.2409 52.5901 25.5109 47.6501 30.8109C47.4101 31.0709 47.1701 31.3209 46.9401 31.5809C42.2901 36.6709 38.2301 42.2209 34.7501 48.2209C33.5101 50.3609 32.35 52.5409 31.3 54.7509C29.22 59.0509 27.4801 63.4709 26.0701 68.0309C23.9401 74.9309 22.8701 81.6109 22.8701 88.0509C22.8701 90.7809 23.0601 93.3309 23.4401 95.7009C23.9701 98.9309 24.8401 101.821 26.0701 104.381C26.4601 105.201 26.8801 105.971 27.3301 106.711C29.2901 109.981 31.7601 112.471 34.7501 114.171C38.4101 116.251 42.7001 117.091 47.6501 116.691C52.5901 116.281 57.8701 114.451 63.4901 111.211C69.1001 107.971 74.3801 103.701 79.3301 98.4009C84.2701 93.1009 88.5701 87.2909 92.2201 80.9909C95.8801 74.6809 98.7701 68.0809 100.9 61.1809C103.04 54.2809 104.1 47.6009 104.1 41.1509C104.1 34.7009 103.04 29.2609 100.9 24.8209ZM40.4401 104.361C39.9701 104.091 39.5101 103.801 39.0801 103.491C36.5001 101.681 34.5501 99.2109 33.2001 96.0709C31.7301 92.6409 30.9901 88.4009 30.9901 83.3609C30.9901 78.7809 31.6701 74.0809 33.0201 69.2609C33.6201 67.1209 34.3301 65.0009 35.1301 62.9009C35.1501 62.8309 35.1801 62.7609 35.2101 62.7009C36.1901 60.1309 37.3301 57.5909 38.6101 55.0809L51.3 62.3209V66.9809C51.3 68.2709 51.5001 69.3409 51.9001 70.2109C52.3001 71.0809 52.9001 71.7309 53.6901 72.1809C55.2801 73.0909 57.19 72.9009 59.42 71.6109V97.7109C59.42 98.3309 59.5301 98.8609 59.7301 99.2809C59.9301 99.7109 60.2401 100.041 60.6401 100.271L63.4901 101.891C54.4201 107.131 46.7301 107.951 40.4401 104.361ZM87.8101 75.3809C82.3601 85.5209 75.6 93.5009 67.55 99.3109V90.2209L82.7802 55.2109C83.1202 54.4009 83.3702 53.6309 83.5402 52.9109C83.7102 52.1909 83.7902 51.4809 83.7902 50.7809V45.8909C83.7902 44.7109 83.4901 43.8909 82.8701 43.4109C82.7901 43.3409 82.7101 43.2909 82.6301 43.2409L82.3901 43.1209C81.6501 42.8309 80.7601 42.9809 79.7301 43.5709L74.9001 46.3609L73.6401 47.0909L67.9501 42.2209C67.7201 42.0109 67.4601 41.8409 67.1901 41.7009L67.0201 41.6209C66.4701 41.3709 65.8502 41.2509 65.1602 41.2709C64.7002 41.2809 64.2401 41.3409 63.7601 41.4709C63.0801 41.6409 62.3802 41.9409 61.6602 42.3609L47.2401 50.6809V41.7109C48.8701 39.7109 50.5801 37.8109 52.3801 36.0109C52.7601 35.6309 53.1502 35.2509 53.5402 34.8909C53.9902 34.4509 54.4502 34.0309 54.9102 33.6109C57.6502 31.1409 60.5101 29.0409 63.4901 27.3209C67.1201 25.2209 70.5301 23.8409 73.7301 23.1809C77.2701 22.4409 80.5402 22.5909 83.5402 23.6009C84.5502 23.9509 85.5401 24.3909 86.4901 24.9309C92.8101 28.5409 95.9801 35.5109 95.9801 45.8409C95.9801 55.4009 93.2501 65.2409 87.8101 75.3809Z" stroke="currentColor" stroke-linejoin="round"/>
    <path d="M53.6898 72.1811L51.5199 71.0911L39.4198 65.0511L35.1299 62.9011C35.1499 62.8311 35.1798 62.7611 35.2098 62.7011C36.1898 60.1311 37.3299 57.5911 38.6099 55.0811L51.2998 62.3211V66.9811C51.2998 68.2711 51.4999 69.3411 51.8999 70.2111C52.2999 71.0811 52.8998 71.7311 53.6898 72.1811Z" stroke="currentColor" stroke-linejoin="round"/>
    <path d="M67.0203 41.6209C66.4703 41.3709 65.8503 41.2509 65.1603 41.2709C64.7003 41.2809 64.2403 41.3409 63.7603 41.4709C63.0803 41.6409 62.3803 41.9409 61.6603 42.3609L47.2402 50.6809V41.7109C48.8702 39.7109 50.5802 37.8109 52.3802 36.0109C52.7602 35.6309 53.1503 35.2509 53.5403 34.8909L55.6403 35.9409L63.7903 40.0009L67.0203 41.6209Z" stroke="currentColor" stroke-linejoin="round"/>
    <path d="M63.49 101.891L43.49 91.891L40.64 90.271C40.24 90.041 39.93 89.711 39.73 89.281C39.53 88.861 39.4199 88.331 39.4199 87.711V65.051L51.52 71.091L53.6899 72.181C55.2799 73.091 57.1899 72.901 59.4199 71.611V97.711C59.4199 98.331 59.53 98.861 59.73 99.281C59.93 99.711 60.24 100.041 60.64 100.271L63.49 101.891Z" stroke="currentColor" stroke-linejoin="round"/>
    <path d="M82.3901 43.1208C81.6501 42.8308 80.7601 42.9808 79.7301 43.5708L74.9001 46.3608L73.6401 47.0908L67.9501 42.2208C67.7201 42.0108 67.4601 41.8408 67.1901 41.7008L67.0201 41.6208L63.7902 40.0008L55.6401 35.9408L59.7301 33.5708C60.8801 32.9108 61.8501 32.8008 62.6301 33.2408L75.8201 39.8308L82.3901 43.1208Z" stroke="currentColor" stroke-linejoin="round"/>
    <path d="M95.9803 45.8409C95.9803 55.4009 93.2503 65.2409 87.8103 75.3809C82.3603 85.5209 75.6003 93.5009 67.5503 99.3109V90.2209L82.7804 55.2109C83.1204 54.4009 83.3704 53.6309 83.5404 52.9109C83.7104 52.1909 83.7904 51.4809 83.7904 50.7809V45.8909C83.7904 44.7109 83.4904 43.8909 82.8704 43.4109C82.7904 43.3409 82.7104 43.2909 82.6304 43.2409L82.3904 43.1209L75.8203 39.8309C75.9303 38.4909 75.9803 37.1609 75.9803 35.8409C75.9803 30.8209 75.2403 26.6109 73.7303 23.1809C77.2703 22.4409 80.5404 22.5909 83.5404 23.6009C84.5504 23.9509 85.5404 24.3909 86.4904 24.9309C92.8104 28.5409 95.9803 35.5109 95.9803 45.8409Z" stroke="currentColor" stroke-linejoin="round"/>
    <path d="M63.4902 101.891C54.4202 107.131 46.7302 107.951 40.4402 104.361C39.9702 104.091 39.5102 103.801 39.0802 103.491C36.5002 101.681 34.5502 99.2109 33.2002 96.0709C36.4002 95.4009 39.8302 94.0009 43.4902 91.8909L63.4902 101.891Z" stroke="currentColor" stroke-linejoin="round"/>
    <path d="M91.05 14.431C87.74 12.841 83.9401 12.191 79.6501 12.501C79.5401 12.501 79.4401 12.511 79.3301 12.521C75.6701 12.821 71.82 13.901 67.8 15.761C66.39 16.411 64.9501 17.151 63.4901 18.001C57.8701 21.241 52.5901 25.511 47.6501 30.811C47.4101 31.071 47.1701 31.321 46.9401 31.581C42.2901 36.671 38.2301 42.221 34.7501 48.221C33.5101 50.361 32.35 52.541 31.3 54.751C29.22 59.051 27.4801 63.471 26.0701 68.031C23.9401 74.931 22.8701 81.611 22.8701 88.051C22.8701 90.781 23.0601 93.331 23.4401 95.701C23.9701 98.931 24.8401 101.821 26.0701 104.381C26.4601 105.201 26.8801 105.971 27.3301 106.711C29.2901 109.981 31.7601 112.471 34.7501 114.171L16.5701 105.081L16.5201 105.061C15.9201 104.791 15.3301 104.501 14.7501 104.171C11.0901 102.091 8.20007 98.821 6.07007 94.381C3.94007 89.941 2.87012 84.501 2.87012 78.051C2.87012 71.601 3.94007 64.931 6.07007 58.031C8.20007 51.131 11.0901 44.531 14.7501 38.221C18.4101 31.921 22.7001 26.111 27.6501 20.811C32.5901 15.511 37.8701 11.241 43.4901 8.00101C49.1001 4.75101 54.3801 2.93101 59.3301 2.52101C63.9201 2.15101 67.9502 2.85101 71.4102 4.62101L71.92 4.88101L91.05 14.431Z" stroke="currentColor" stroke-linejoin="round"/>
    <path d="M67.35 41.7809L67.1899 41.7009" stroke="currentColor" stroke-linejoin="round"/>
</svg>