<svg width="48" height="48" viewBox="0 0 104 120" fill="none" xmlns="http://www.w3.org/2000/svg" stroke-width="1px" stroke-linecap="round" stroke-linejoin="round"><path d="M76.8303 60.1599L86.0203 89.3299L61.6103 82.1099L37.1903 117.53L46.3803 77.7399L38.9703 75.9399L25.2603 72.5999L22.0703 71.8199L25.9603 69.5799L52.1203 54.4699L57.7503 29.6599L61.6103 12.6899L65.4603 25.2099L68.2303 34.2099L71.0903 43.5099L101.14 26.1599L76.8303 60.1599Z" stroke="#229EFF" stroke-linejoin="round"/><path d="M101.14 26.1599L71.09 43.5099L68.2299 34.2099L65.46 25.2099L81.14 16.1599L101.14 26.1599Z" stroke="#229EFF" stroke-linejoin="round"/><path d="M46.3804 77.7399L37.1904 117.53L17.1904 107.53L25.2604 72.5999L38.9704 75.9399L46.3804 77.7399Z" stroke="#229EFF" stroke-linejoin="round"/><path d="M52.1203 54.4699L25.9603 69.5799L22.0703 71.8199L2.07031 61.8199L32.1203 44.4699L52.1203 54.4699Z" stroke="#229EFF" stroke-linejoin="round"/><path d="M61.6101 12.6899L57.7501 29.6599L52.1201 54.4699L32.1201 44.4699L41.6101 2.68994L61.6101 12.6899Z" stroke="#229EFF" stroke-linejoin="round"/></svg>