<svg width="48" height="48" viewBox="0 0 80 122" fill="none" xmlns="http://www.w3.org/2000/svg" stroke-width="1px" stroke-linecap="round" stroke-linejoin="round"><path d="M29.6104 117.89V119.84L9.61035 109.84V107.89L11.4202 108.8L29.6104 117.89Z" stroke="#229EFF" stroke-linejoin="round"/><path d="M34.7202 109.09L29.6104 117.89L11.4202 108.8L9.61035 107.89L12.4004 103.09L16.7803 105.29L26.2502 110.02C28.5502 111.33 31.3702 111.02 34.7202 109.09Z" stroke="#229EFF" stroke-linejoin="round"/><path d="M33.0205 31.9902V37.8502L19.1306 30.9002L13.0205 27.8502V21.9902L18.4604 24.7102L24.0205 27.4902L33.0205 31.9902Z" stroke="#229EFF" stroke-linejoin="round"/><path d="M49.1804 28.5203L47.5105 33.3103L46.6206 35.8503L44.7405 34.9103L41.1904 33.1302L49.1804 28.5203Z" stroke="#229EFF" stroke-linejoin="round"/><path d="M67.0405 12.3501L57.9104 17.6201L56.4304 18.4801L35.7505 30.4101L33.0205 31.9901L24.0205 27.4901L18.4604 24.7101L13.0205 21.9901L47.0405 2.3501L67.0405 12.3501Z" stroke="#229EFF" stroke-linejoin="round"/><path d="M74.1804 25.7601L73.9204 25.6301C72.9504 25.2001 71.7906 25.0701 70.4006 25.3001C66.7206 25.8701 62.3305 27.4201 57.2405 29.9401C56.0105 30.5401 54.7404 31.2001 53.4304 31.9201L55.9805 24.5901L57.2405 23.8601L63.3506 20.3401L67.0405 18.2101V12.3501L57.9104 17.6201L56.4304 18.4801L35.7505 30.4101L33.0205 31.9901V37.8501L41.1904 33.1301L49.1804 28.5201L47.5105 33.3101L46.6206 35.8501C40.3906 39.6401 34.8605 43.9101 30.0405 48.6401C26.9505 51.6801 24.8505 55.0501 23.7505 58.7401C23.1205 60.7901 22.8105 62.9501 22.8105 65.2101V102.3C22.8105 106.14 23.9605 108.71 26.2505 110.02C28.5505 111.33 31.3705 111.02 34.7205 109.09L29.6106 117.89V119.84L36.4204 115.91L43.2205 104.18L56.3806 96.5801L56.8306 96.3201L63.6306 100.2L70.4404 96.2701V94.3201L65.3406 91.4101C68.6806 89.4801 71.5005 86.5301 73.8005 82.5701C76.0905 78.6101 77.2405 74.7101 77.2405 70.8701V33.7901C77.2405 29.5201 76.2204 26.8401 74.1804 25.7601ZM53.6406 84.7401C52.6506 86.4601 51.4405 87.7201 50.0305 88.5401C48.6105 89.3601 47.4004 89.4801 46.4104 88.9201C46.3204 88.8701 46.2306 88.8101 46.1506 88.7401C45.3306 88.1401 44.9204 87.1101 44.9204 85.6301C44.9204 84.3401 45.2306 83.0301 45.8506 81.7001C45.9906 81.4001 46.1405 81.1101 46.3105 80.8101C46.3405 80.7501 46.3704 80.6801 46.4104 80.6201C47.4004 78.9101 48.6105 77.6501 50.0305 76.8301C50.4605 76.5801 50.8705 76.3901 51.2605 76.2701C52.1505 76.0001 52.9506 76.0501 53.6406 76.4501C54.6306 77.0101 55.1306 78.1101 55.1306 79.7401C55.1306 81.3701 54.6306 83.0301 53.6406 84.7401ZM70.4404 53.3301L57.2405 60.9501L33.7705 74.5001L29.6106 76.9001V65.1901L57.2405 49.2401L59.5706 47.8901L70.4404 41.6201V53.3301Z" stroke="#229EFF" stroke-linejoin="round"/><path d="M70.4402 41.6201V53.3301L59.5703 47.8901L70.4402 41.6201Z" stroke="#229EFF" stroke-linejoin="round"/><path d="M55.1301 79.74C55.1301 81.36 54.6301 83.03 53.6401 84.74C52.6501 86.46 51.44 87.72 50.03 88.54C48.61 89.36 47.3999 89.48 46.4099 88.92C46.3199 88.87 46.2301 88.81 46.1501 88.74C45.3301 88.14 44.9199 87.11 44.9199 85.63C44.9199 84.34 45.2301 83.03 45.8501 81.7C45.9901 81.4 46.1401 81.11 46.3101 80.81C46.3401 80.75 46.3699 80.68 46.4099 80.62C47.3999 78.91 48.61 77.65 50.03 76.83C50.46 76.58 50.87 76.39 51.26 76.27C52.15 76 52.9501 76.05 53.6401 76.45C54.6301 77.01 55.1301 78.11 55.1301 79.74Z" stroke="#229EFF" stroke-linejoin="round"/><path d="M70.4402 53.3301L57.2402 60.9501L33.7703 74.5001L29.6104 76.9001V65.1901L57.2402 49.2402L59.5703 47.8901L70.4402 53.3301Z" stroke="#229EFF" stroke-linejoin="round"/><path d="M73.9207 25.6301C72.9507 25.2001 71.7909 25.0701 70.4009 25.3001C66.7209 25.8701 62.3307 27.4201 57.2407 29.9401C56.0107 30.5401 54.7407 31.2001 53.4307 31.9201L55.9807 24.5901L57.2407 23.8601L63.3508 20.3401L73.9207 25.6301Z" stroke="#229EFF" stroke-linejoin="round"/><path d="M74.3008 25.82L74.1807 25.76" stroke="#229EFF" stroke-linejoin="round"/><path d="M22.8105 65.2101V102.3C22.8105 106.14 23.9605 108.71 26.2505 110.02L16.7805 105.29L12.4006 103.09L6.96045 100.37L6.87061 100.33L6.25049 100.02C3.96049 98.7101 2.81055 96.1402 2.81055 92.3002V55.2101C2.81055 48.9001 5.22053 43.3801 10.0405 38.6401C12.8305 35.9001 15.8606 33.3101 19.1306 30.9001L33.0205 37.8502L41.1904 33.1301L44.7405 34.9102L46.6206 35.8502C40.3906 39.6402 34.8605 43.9101 30.0405 48.6401C26.9505 51.6801 24.8505 55.0502 23.7505 58.7402C23.1205 60.7902 22.8105 62.9501 22.8105 65.2101Z" stroke="#229EFF" stroke-linejoin="round"/><path d="M63.6309 100.2L56.3809 96.5801" stroke="#229EFF" stroke-linejoin="round"/></svg>