<svg width="24" height="24" viewBox="0 0 89 121" fill="none" xmlns="http://www.w3.org/2000/svg" stroke-width="1px" stroke-linecap="round" stroke-linejoin="round">
    <path d="M86.1794 43.0664L69.1895 72.3664L52.2095 62.6764L58.1494 52.4264L64.9495 56.2963V35.8364C64.9495 35.6264 64.9495 35.4164 64.9395 35.2064C64.9095 34.1264 64.8194 33.1264 64.6494 32.1964C64.6294 32.0764 64.5993 31.9564 64.5793 31.8464C63.9193 28.6264 62.3795 26.3364 59.9595 24.9564C58.0195 23.8464 55.8395 23.5264 53.4395 23.9864C51.7295 24.3064 49.8995 25.0364 47.9595 26.1564C46.9195 26.7564 45.9195 27.4263 44.9495 28.1863C41.5495 30.7963 38.5495 34.3464 35.9695 38.8064C32.6395 44.5364 30.9795 50.0864 30.9795 55.4464V113.916L22.4893 118.816V60.3563C22.4893 52.2363 24.9594 43.8963 29.9194 35.3563C33.8594 28.5563 38.4693 23.1764 43.7493 19.2064C45.1093 18.1764 46.5095 17.2464 47.9595 16.4064C49.6095 15.4564 51.1895 14.6964 52.7195 14.1264C57.2795 12.4064 61.3194 12.3463 64.8494 13.9363L66.0093 14.5164C70.9593 17.3464 73.4395 22.8163 73.4395 30.9363V51.3964L80.2295 39.6764L86.1794 43.0664Z" stroke="currentColor" stroke-linejoin="round"/>
    <path d="M64.9492 35.8364V56.2964L58.1492 52.4264L55.6692 51.1864L44.9492 45.8264V28.1864C45.9192 27.4264 46.9192 26.7564 47.9592 26.1564C49.8992 25.0364 51.7292 24.3064 53.4392 23.9864C55.8392 23.5264 58.0192 23.8464 59.9592 24.9564C62.3792 26.3364 63.9191 28.6264 64.5791 31.8464C64.5991 31.9564 64.6292 32.0764 64.6492 32.1964C64.8192 33.1264 64.9092 34.1264 64.9392 35.2064C64.9492 35.4164 64.9492 35.6264 64.9492 35.8364Z" stroke="currentColor" stroke-linejoin="round"/>
    <path d="M69.189 72.3664L49.189 62.3664L32.209 52.6764L52.209 62.6764L69.189 72.3664Z" stroke="currentColor" stroke-linejoin="round"/>
    <path d="M64.8494 13.9364C61.3194 12.3464 57.2795 12.4064 52.7195 14.1264C51.1895 14.6964 49.6095 15.4564 47.9595 16.4064C46.5095 17.2464 45.1093 18.1764 43.7493 19.2064C38.4693 23.1764 33.8594 28.5564 29.9194 35.3564C24.9594 43.8964 22.4893 52.2364 22.4893 60.3564V118.816L2.48926 108.816V50.3564C2.48926 42.2364 4.95943 33.8964 9.91943 25.3564C14.8694 16.8064 20.8895 10.4964 27.9595 6.40638C35.0395 2.32638 41.0593 1.69638 46.0093 4.51638L64.8494 13.9364Z" stroke="currentColor" stroke-linejoin="round"/>
    <path d="M58.1489 52.4264L52.209 62.6764L32.209 52.6764L38.1489 42.4264L44.949 45.8264L55.6689 51.1864L58.1489 52.4264Z" stroke="currentColor" stroke-miterlimit="10"/>
    <path d="M80.2295 39.6764L73.4395 51.3964V36.2864L80.2295 39.6764Z" stroke="currentColor" stroke-miterlimit="10"/>
</svg>