<svg width="24" height="24" viewBox="0 0 58 114" fill="none" xmlns="http://www.w3.org/2000/svg" stroke-width="1px" stroke-linecap="round" stroke-linejoin="round">
    <path d="M55.6899 83.4864L39.1799 111.956L22.6699 102.546L27.72 93.8264L39.1799 100.256L50.6301 80.4963L55.6899 83.4864Z" stroke="currentColor" stroke-linejoin="round"/>
    <path d="M55.6899 42.7964L50.54 51.6664L39.1799 45.0864L38.78 45.7864L35.1401 52.0563L34.97 52.3464L27.72 64.8464L23.3501 62.3564L22.5801 61.9164L33.47 43.1364L39.1799 33.2864L55.6899 42.7964Z" stroke="currentColor" stroke-linejoin="round"/>
    <path d="M55.6899 22.0963L50.54 30.9663L39.1799 24.3863L38.78 25.0863L35.1799 31.2863L34.6501 32.1963L29.51 41.0663L27.72 44.1463L22.5801 41.2163L24.3901 38.1063L29.52 29.2463L29.8701 28.6363L33.47 22.4263L39.1799 12.5763L55.6899 22.0963Z" stroke="currentColor" stroke-linejoin="round"/>
    <path d="M39.1799 111.956L19.1799 101.956L2.66992 92.5463L19.7 101.056L22.6699 102.546L39.1799 111.956Z" stroke="currentColor" stroke-linejoin="round"/>
    <path d="M50.6304 80.4963L39.1802 100.256L27.7202 93.8263L24.7502 92.3463L19.4902 89.7163L23.2202 83.2763L28.4902 85.9063L39.1802 91.2563L46.5903 78.4763L50.6304 80.4963Z" stroke="currentColor" stroke-linejoin="round"/>
    <path d="M27.72 73.1262L22.6699 81.8362L19.7 80.3563L2.66992 71.8362L7.71997 63.1262L19.49 69.0162L24.75 71.6462L27.72 73.1262Z" stroke="currentColor" stroke-linejoin="round"/>
    <path d="M27.72 44.1463L17.03 38.7963L11.72 36.1463L7.71997 34.1463L2.58008 31.2163L7.88013 33.8663L11.8801 35.8663L17.1899 38.5163L22.5801 41.2163L27.72 44.1463Z" stroke="currentColor" stroke-linejoin="round"/>
    <path d="M50.5403 30.9662L38.7803 25.0862L39.1802 24.3862L50.5403 30.9662Z" stroke="currentColor" stroke-linejoin="round"/>
    <path d="M39.1799 12.5763L33.47 22.4263L29.8701 28.6363L29.52 29.2463L24.3901 38.1063L22.5801 41.2163L17.1899 38.5163L11.8801 35.8663L7.88013 33.8663L2.58008 31.2163L19.1799 2.57629L39.1799 12.5763Z" stroke="currentColor" stroke-linejoin="round"/>
    <path d="M39.1799 33.2864L33.47 43.1364L22.5801 61.9164L7.88013 54.5663L2.58008 51.9164L11.72 36.1464L17.03 38.7964L27.72 44.1464L29.51 41.0663L34.6501 32.1964L35.1799 31.2864L39.1799 33.2864Z" stroke="currentColor" stroke-linejoin="round"/>
    <path d="M50.5403 51.6663L38.7803 45.7863L39.1802 45.0863L50.5403 51.6663Z" stroke="currentColor" stroke-linejoin="round"/>
    <path d="M27.72 64.8463L23.21 62.5963L7.71997 54.8463L2.58008 51.9163L7.88013 54.5662L22.5801 61.9163L23.3501 62.3563L27.72 64.8463Z" stroke="currentColor" stroke-linejoin="round"/>
    <path d="M55.6899 62.7764L46.5901 78.4764L39.1799 91.2563L28.8101 85.3464L23.71 82.4363L22.6699 81.8364L27.72 73.1263L28.77 73.7164L33.8901 76.5864L39.1799 79.5563L41.3301 75.8464L50.6301 59.7964L55.6899 62.7764Z" stroke="currentColor" stroke-linejoin="round"/>
    <path d="M39.1799 91.2563L28.49 85.9063L23.22 83.2763L19.1799 81.2563L2.66992 71.8363L19.7 80.3563L22.6699 81.8363L23.71 82.4363L28.8101 85.3463L39.1799 91.2563Z" stroke="currentColor" stroke-linejoin="round"/>
    <path d="M50.6304 59.7963L41.3303 75.8463L39.1802 79.5563L33.8904 76.5863L28.7703 73.7163L27.7202 73.1263L24.7502 71.6463L19.4902 69.0163L23.2102 62.5963L27.7202 64.8463L34.9702 52.3463L35.1404 52.0563L50.6304 59.7963Z" stroke="currentColor" stroke-linejoin="round"/>
    <path d="M27.72 93.8263L22.6699 102.546L19.7 101.056L2.66992 92.5463L7.71997 83.8263L19.49 89.7163L24.75 92.3463L27.72 93.8263Z" stroke="currentColor" stroke-linejoin="round"/>
</svg>