<svg width="48" height="48" viewBox="0 0 69 114" fill="none" xmlns="http://www.w3.org/2000/svg" stroke-width="1px"
     stroke-linecap="round" stroke-linejoin="round">
    <path d="M44.35 111.65L24.35 101.65L2.57001 89.23L22.57 99.23L24.96 100.59L44.35 111.65Z" stroke="currentColor" stroke-linejoin="round"/>
    <path d="M29.59 87.1299L22.57 99.2299L2.57001 89.2299L9.59 77.1299L24.82 84.7399L29.59 87.1299Z" stroke="currentColor" stroke-linejoin="round"/>
    <path d="M66.12 74.0898L44.35 111.65L24.96 100.59L22.57 99.2299L29.59 87.1298L31.98 88.4898L44.35 95.5499L59.1 70.0898L66.12 74.0898Z" stroke="currentColor" stroke-linejoin="round"/>
    <path d="M29.59 53.8198L9.59 43.8198L2.57001 39.8198L9.81 43.4398L22.57 49.8198L29.59 53.8198Z" stroke="currentColor" stroke-linejoin="round"/>
    <path d="M66.12 24.68L59.1 36.78L44.35 28.37L43.88 29.17L29.59 53.82L22.57 49.82L36.72 25.42L43.74 13.32L44.35 12.27L66.12 24.68Z" stroke="currentColor" stroke-linejoin="round"/>
    <path d="M44.35 12.27L43.74 13.32L36.72 25.42L22.57 49.82L9.81 43.44L2.57001 39.82L24.35 2.27002L44.35 12.27Z" stroke="currentColor" stroke-linejoin="round"/>
    <path d="M59.1 36.7801L43.88 29.1701L44.35 28.3701L59.1 36.7801Z" stroke="currentColor" stroke-linejoin="round"/>
    <path d="M59.1 70.0898L44.35 95.5498L31.98 88.4898L29.59 87.1298L24.82 84.7398L39.1 60.0898L59.1 70.0898Z" stroke="currentColor" stroke-linejoin="round"/>
</svg>