<svg width="48" height="48" viewBox="0 0 89 130" fill="none" xmlns="http://www.w3.org/2000/svg" stroke-width="1px" stroke-linecap="round" stroke-linejoin="round"><path d="M66.9805 23.6204L59.8304 27.7404L55.1405 30.4503L50.8304 32.9403L40.5205 38.8904V120.91L86.9805 94.0903V12.0703L66.9805 23.6204ZM74.4705 80.8103L67.3206 84.9303V93.1404L60.1705 97.2604V89.0603L59.7006 89.3303L53.0305 93.1903V84.9904L59.7104 81.1304L60.1705 80.8604V72.6604L66.9805 68.7303L67.3206 68.5304V76.7303L74.4705 72.6104V80.8103ZM79.8304 51.1604C78.7604 51.0304 77.6205 51.1303 76.4305 51.4803C75.2405 51.8203 73.9905 52.3804 72.6805 53.1304L66.9805 56.4203L54.8105 63.4503C54.7005 63.5203 54.5805 63.5804 54.4705 63.6604C53.2805 64.3704 52.1505 65.1904 51.0605 66.1304C50.4805 66.6304 49.9205 67.1704 49.3705 67.7504C48.7805 68.3704 48.2205 69.0303 47.6605 69.7303V42.9703L59.8304 35.9403L62.7505 34.2604L66.9805 31.8203L79.8304 24.4004V51.1604Z" stroke="#229EFF" stroke-linejoin="round"/><path d="M67.3199 68.5303V76.7302L66.9799 76.5602L60.1699 73.1603V72.6603L66.9799 68.7302L67.3199 68.5303Z" stroke="#229EFF" stroke-linejoin="round"/><path d="M74.4698 72.6104V80.8103L60.1699 73.6703V73.1604L66.9799 76.5603L67.3199 76.7303L74.4698 72.6104Z" stroke="#229EFF" stroke-linejoin="round"/><path d="M74.47 80.8099L67.3201 84.9299L66.36 84.45L59.71 81.13L60.17 80.86V73.6699L74.47 80.8099Z" stroke="#229EFF" stroke-linejoin="round"/><path d="M67.3199 93.1404L60.1699 97.2604V89.5703L67.3199 93.1404Z" stroke="#229EFF" stroke-linejoin="round"/><path d="M60.1703 89.0602L59.7003 89.3302L53.0303 93.1902V85.4902L59.2102 88.5802L60.1703 89.0602Z" stroke="#229EFF" stroke-linejoin="round"/><path d="M79.8301 51.1608C78.7601 51.0308 77.6202 51.1307 76.4302 51.4807C75.2402 51.8207 73.9902 52.3807 72.6802 53.1307L66.9801 56.4207L54.8102 63.4507C54.7002 63.5207 54.5801 63.5808 54.4701 63.6608C53.2801 64.3708 52.1502 65.1907 51.0602 66.1307C50.4802 66.6307 49.9201 67.1707 49.3701 67.7507C48.7801 68.3707 48.2202 69.0307 47.6602 69.7307V49.1707L58.7002 54.6907C60.1002 55.4907 61.7801 55.3207 63.7501 54.1907C64.9301 53.5007 66.0001 52.5907 66.9801 51.4507C67.6301 50.6907 68.2302 49.8307 68.7902 48.8707C69.3002 47.9907 69.7202 47.1207 70.0402 46.2607L79.8301 51.1608Z" stroke="#229EFF" stroke-linejoin="round"/><path d="M36.9404 40.96V122.98L29.8004 127.1V53.2899L27.6604 54.52L22.6504 57.41V49.21L27.6604 46.3199L36.6604 41.12L36.9404 40.96Z" stroke="#229EFF" stroke-linejoin="round"/><path d="M67.3203 84.9308V93.1409L60.1703 89.5708V89.0608L59.2102 88.5808L53.0303 85.4908V84.9908L59.7102 81.1309L66.3602 84.4508L67.3203 84.9308Z" stroke="#229EFF" stroke-linejoin="round"/><path d="M68.3501 37.0607C67.9201 36.8907 67.4601 36.8006 66.9801 36.7906C66.0001 36.7706 64.9301 37.1106 63.7501 37.7906C62.3401 38.6006 61.0701 39.7507 59.9601 41.2207C59.5101 41.8007 59.1002 42.4307 58.7002 43.1107C57.3002 45.5207 56.6001 47.8607 56.6001 50.1107C56.6001 52.3607 57.3002 53.9007 58.7002 54.6907L47.6602 49.1707V42.9707L59.8301 35.9407L62.7501 34.2607L66.9801 36.3807L68.3501 37.0607Z" stroke="#229EFF" stroke-linejoin="round"/><path d="M79.83 24.4004V51.1604L70.04 46.2604C70.61 44.7604 70.89 43.3004 70.89 41.8604C70.89 39.6104 70.19 38.0804 68.79 37.2804L68.35 37.0603L66.98 36.3804L62.75 34.2604L66.98 31.8203L79.83 24.4004Z" stroke="#229EFF" stroke-linejoin="round"/><path d="M70.8906 41.86C70.8906 43.3 70.6106 44.76 70.0406 46.26C69.7206 47.12 69.3006 47.99 68.7906 48.87C68.2306 49.83 67.6306 50.6899 66.9806 51.4499C66.0006 52.5899 64.9306 53.4999 63.7506 54.1899C61.7806 55.3199 60.1007 55.4899 58.7007 54.6899C57.3007 53.8999 56.6006 52.37 56.6006 50.11C56.6006 47.85 57.3007 45.52 58.7007 43.11C59.1007 42.43 59.5106 41.8 59.9606 41.22C61.0706 39.75 62.3406 38.5999 63.7506 37.7899C64.9306 37.1099 66.0006 36.7699 66.9806 36.7899C67.4606 36.7899 67.9206 36.8899 68.3506 37.0599L68.7906 37.28C70.1906 38.08 70.8906 39.61 70.8906 41.86Z" stroke="#229EFF" stroke-linejoin="round"/><path d="M22.6504 49.21V57.41L20.5204 56.35L16.9404 54.5599L9.80042 50.99L2.65039 47.41V39.21L16.9404 46.36L20.5204 48.15L22.6504 49.21Z" stroke="#229EFF" stroke-linejoin="round"/><path d="M36.9404 40.96L36.6604 41.12L27.6604 46.3199L22.6504 49.21L20.5204 48.15L16.9404 46.36L2.65039 39.21L16.9404 30.96L27.6604 36.3199L36.6304 40.7999V40.8099L36.9404 40.96Z" stroke="#229EFF" stroke-linejoin="round"/><path d="M40.5205 38.8906V120.911L36.9406 119.121V40.9606L36.6305 40.8105V40.8005L27.6605 36.3206L20.5205 32.7506V28.8906L28.1305 32.7006L37.0105 37.1306L40.5205 38.8906Z" stroke="#229EFF" stroke-linejoin="round"/><path d="M86.9805 12.0703L66.9805 23.6204L59.8304 27.7404L55.1405 30.4503L50.8304 32.9403L40.5205 38.8904L37.0105 37.1304L28.1305 32.7003L20.5205 28.8904L66.9805 2.07031L86.9805 12.0703Z" stroke="#229EFF" stroke-linejoin="round"/><path d="M29.8008 53.2902V127.1L9.80078 117.1V50.9902L16.9408 54.5602L20.5208 56.3502L22.6508 57.4103L27.6608 54.5203L29.8008 53.2902Z" stroke="#229EFF" stroke-linejoin="round"/></svg>