<svg width="24" height="24" viewBox="0 0 99 126" fill="none" xmlns="http://www.w3.org/2000/svg" stroke-width="1px" stroke-linecap="round" stroke-linejoin="round">
    <path d="M76.51 23.88L69.0901 28.16L54.25 36.7299L24.5601 53.87L22.29 55.18V123.31L96.51 80.46V12.33L76.51 23.88ZM44.5601 101.94L29.71 110.51V59.41L44.5601 50.84V101.94ZM89.0901 76.2299L74.25 84.8V33.7L76.51 32.39L89.0901 25.13V76.2299Z" stroke="currentColor" stroke-linejoin="round"/>
    <path d="M89.0901 25.13V76.23L76.51 69.94L74.25 68.81V33.7L76.51 32.39L89.0901 25.13Z" stroke="currentColor" stroke-linejoin="round"/>
    <path d="M89.0901 76.2299L74.25 84.7999V68.8099L76.51 69.9399L89.0901 76.2299Z" stroke="currentColor" stroke-linejoin="round"/>
    <path d="M44.5601 50.84V101.94L32.46 95.89L29.71 94.52V59.41L44.5601 50.84Z" stroke="currentColor" stroke-linejoin="round"/>
    <path d="M44.5601 101.94L29.71 110.51V94.52L32.46 95.89L44.5601 101.94Z" stroke="currentColor" stroke-linejoin="round"/>
    <path d="M96.51 12.33L76.51 23.88L69.0901 28.16L54.25 36.7299L24.5601 53.87L22.29 55.18L2.29004 45.18L76.51 2.32996L96.51 12.33Z" stroke="currentColor" stroke-linejoin="round"/>
    <path d="M22.29 55.1799V123.31L2.29004 113.31V45.1799L22.29 55.1799Z" stroke="currentColor" stroke-linejoin="round"/>
</svg>