<svg width="48" height="48" viewBox="0 0 106 89" fill="none" xmlns="http://www.w3.org/2000/svg" stroke-width="1px"
     stroke-linecap="round" stroke-linejoin="round">
    <path d="M100.19 14.6833L103.77 16.4733C102.62 15.7833 101.42 15.1933 100.19 14.6833Z" stroke="currentColor" stroke-linejoin="round"/>
    <path d="M89.3801 41.2832L87.9202 43.8032L86.3101 46.5832L83.77 50.9532L83.03 52.2332L82.27 53.5432C79.73 52.1032 76.8103 51.5332 73.5103 51.8532C73.0503 51.8932 72.5901 51.9632 72.1301 52.0432C71.5001 52.1432 70.8702 52.2832 70.2302 52.4532C69.1202 52.7432 67.9901 53.1332 66.8401 53.6132C65.6201 54.1232 64.3901 54.7432 63.1501 55.4632C61.8501 56.2132 60.5701 57.0432 59.3201 57.9832C57.0701 59.6332 54.9 61.5832 52.78 63.8232C49.48 67.3232 46.56 71.2533 44.02 75.6333L43.7603 75.4732L36.9102 71.3833C40.4102 65.3533 44.4102 59.9632 48.9302 55.2232C49.0402 55.1132 49.1503 54.9933 49.2603 54.8833C53.6703 50.3033 58.3001 46.6032 63.1501 43.8132C66.7901 41.7032 70.3102 40.2532 73.7302 39.4632C74.9702 39.1632 76.2002 38.9532 77.4102 38.8332C77.5602 38.8232 77.7101 38.8032 77.8501 38.8032C81.5201 38.4832 84.8202 39.0232 87.7502 40.4132L88.3 40.6832C88.66 40.8632 89.0201 41.0632 89.3801 41.2832Z" stroke="currentColor" stroke-linejoin="round"/>
    <path d="M74.2202 65.4334C72.8502 64.8534 71.3201 64.6534 69.6201 64.8334C67.6601 65.0434 65.6002 65.7434 63.4602 66.9434C63.3602 66.9934 63.2501 67.0534 63.1501 67.1134C60.8901 68.4234 58.7302 70.1534 56.6702 72.3134C54.6102 74.4734 52.7902 76.9134 51.2102 79.6334L31.2102 69.6334C31.2702 69.5334 31.3301 69.4234 31.4001 69.3234L43.7502 75.4934L44.02 75.6334C46.56 71.2534 49.48 67.3234 52.78 63.8234C54.9 61.5834 57.0701 59.6334 59.3201 57.9834L63.4602 60.0534L74.2202 65.4334Z" stroke="currentColor" stroke-linejoin="round"/>
    <path d="M63.1501 86.5333L43.1501 76.5333L31.2102 69.6333L51.2102 79.6333L63.1501 86.5333Z" stroke="currentColor" stroke-linejoin="round"/>
    <path d="M87.7502 40.4133C84.8202 39.0233 81.5201 38.4833 77.8501 38.8033C77.7101 38.8033 77.5602 38.8233 77.4102 38.8333C76.2002 38.9533 74.9702 39.1633 73.7302 39.4633C70.3102 40.2533 66.7901 41.7033 63.1501 43.8133C58.3001 46.6033 53.6703 50.3033 49.2603 54.8833C49.1503 54.9933 49.0402 55.1133 48.9302 55.2233C44.4102 59.9633 40.4102 65.3533 36.9102 71.3833L31.7102 68.7833L24.3401 65.1033L16.9102 61.3833C16.9602 61.3033 17 61.2232 17.05 61.1432L24.4802 64.8633L29.6301 67.4333C34.0901 59.7433 39.2102 52.8532 44.9902 46.7632C46.3002 45.3832 47.6302 44.0732 48.9702 42.8232C53.5302 38.5332 58.2601 34.9733 63.1501 32.1533C64.4501 31.3933 65.75 30.7133 67.03 30.0933C67.84 30.4233 68.6201 30.8233 69.3801 31.2833L87.7502 40.4133Z" stroke="currentColor" stroke-linejoin="round"/>
    <path d="M100.19 14.6833C95.7002 12.8433 90.7102 12.2133 85.1902 12.7733C83.3402 12.9633 81.4601 13.2833 79.5601 13.7333C76.8201 14.3833 74.0302 15.3033 71.1902 16.4933C68.5502 17.5933 65.8701 18.9233 63.1501 20.5033C58.0901 23.4233 53.1701 26.9833 48.4001 31.1933C45.9201 33.3633 43.4901 35.7133 41.1001 38.2333C34.0701 45.6233 27.88 54.0033 22.52 63.3733L17.29 60.7533L9.86011 57.0433L2.52002 53.3733C7.88002 44.0033 14.0701 35.6233 21.1001 28.2333C28.1201 20.8433 35.4701 14.9333 43.1501 10.5033C50.8201 6.07334 58.1702 3.4933 65.1902 2.7733C72.2202 2.0533 78.41 3.28331 83.77 6.47331L100.19 14.6833Z" stroke="currentColor" stroke-linejoin="round"/>
    <path d="M29.6301 67.4333L24.4802 64.8633L17.05 61.1432L9.63013 57.4333L2.52002 53.3733L9.86011 57.0433L17.29 60.7533L22.52 63.3733L24.6501 64.5833L29.6301 67.4333Z" stroke="currentColor" stroke-linejoin="round"/>
    <path d="M103.77 16.4733L96.6602 28.7333C92.2002 26.1933 87.08 25.2133 81.3 25.8033C76.71 26.2733 71.95 27.6933 67.03 30.0933C65.75 30.7133 64.4501 31.3933 63.1501 32.1533C58.2601 34.9733 53.5302 38.5333 48.9702 42.8233C47.6302 44.0733 46.3002 45.3833 44.9902 46.7633C39.2102 52.8533 34.0901 59.7433 29.6301 67.4333L24.6501 64.5833L22.52 63.3733C27.88 54.0033 34.0701 45.6233 41.1001 38.2333C43.4901 35.7133 45.9201 33.3634 48.4001 31.1934C53.1701 26.9834 58.0901 23.4234 63.1501 20.5034C65.8701 18.9234 68.5502 17.5933 71.1902 16.4933C74.0302 15.3033 76.8201 14.3833 79.5601 13.7333C81.4601 13.2833 83.3402 12.9633 85.1902 12.7733C90.7102 12.2133 95.7002 12.8433 100.19 14.6833L103.77 16.4733Z" stroke="currentColor" stroke-linejoin="round"/>
    <path d="M43.7603 75.4733L43.7502 75.4933L31.4001 69.3232L24.02 65.6333L16.9102 61.3833L24.3401 65.1033L31.7102 68.7833L36.9102 71.3833L43.7603 75.4733Z" stroke="currentColor" stroke-linejoin="round"/>
    <path d="M75.0798 65.8633L71.71 71.6933L67.73 78.5932L63.1499 86.5332L51.21 79.6333C52.79 76.9133 54.6099 74.4733 56.6699 72.3133C58.7299 70.1533 60.8899 68.4233 63.1499 67.1133C63.2499 67.0533 63.36 66.9933 63.46 66.9433C65.6 65.7433 67.6599 65.0432 69.6199 64.8332C71.3199 64.6532 72.85 64.8533 74.22 65.4333L75.0798 65.8633Z" stroke="currentColor" stroke-linejoin="round"/>
    <path d="M83.46 67.0435V86.4634L67.73 78.5934L71.71 71.6935L75.0798 65.8635L74.22 65.4335L63.46 60.0535V57.0435L81.48 66.0535L83.46 67.0435Z" stroke="currentColor" stroke-linejoin="round"/>
    <path d="M100.38 57.2732V53.3832C100.38 51.2532 99.7199 49.8032 98.3899 49.0432C97.0699 48.2932 95.4699 48.4532 93.6099 49.5232C93.3999 49.6432 93.19 49.7832 92.98 49.9232C91.39 50.9932 90.0098 52.5432 88.8298 54.5632C88.7398 54.7132 88.6598 54.8632 88.5898 55.0132C87.4298 57.1432 86.8398 59.2032 86.8398 61.2032V65.0832L83.46 67.0432V86.4632L103.77 74.7332V55.3132L100.38 57.2732ZM97 59.2232L90.23 63.1332V59.2532C90.23 58.2432 90.4898 57.2432 91.0298 56.2332C91.0798 56.1332 91.14 56.0232 91.2 55.9232C91.85 54.8032 92.6499 53.9632 93.6099 53.4132C94.5699 52.8532 95.3798 52.7632 96.0198 53.1332C96.6698 53.5032 97 54.2432 97 55.3432V59.2232Z" stroke="currentColor" stroke-linejoin="round"/>
    <path d="M97.0005 59.2234L90.2305 63.1334V59.2534C90.2305 58.2434 90.4903 57.2434 91.0303 56.2334L97.0005 59.2234Z" stroke="currentColor" stroke-linejoin="round"/>
    <path d="M86.8398 65.0833L83.46 67.0433L81.48 66.0533L63.46 57.0433L66.8398 55.0833L83.7698 63.5533L86.8398 65.0833Z" stroke="currentColor" stroke-linejoin="round"/>
    <path d="M98.3899 49.0432C97.0699 48.2932 95.4699 48.4532 93.6099 49.5232C93.3999 49.6432 93.19 49.7832 92.98 49.9232C91.39 50.9932 90.0098 52.5432 88.8298 54.5632C88.7398 54.7132 88.6598 54.8632 88.5898 55.0132C87.4298 57.1432 86.8398 59.2032 86.8398 61.2032V65.0832L83.7698 63.5532L66.8398 55.0832V53.6132C67.9898 53.1332 69.12 52.7432 70.23 52.4532C70.87 52.2832 71.4999 52.1432 72.1299 52.0432C72.5899 51.9632 73.05 51.8932 73.51 51.8532C76.81 51.5332 79.7298 52.1032 82.2698 53.5432L83.0298 52.2332L83.7698 50.9532L86.3098 46.5832L87.9199 43.8032L98.3899 49.0432Z" stroke="currentColor" stroke-linejoin="round"/>
    <path d="M103.77 55.3133L100.38 53.6233" stroke="currentColor" stroke-linejoin="round"/>
</svg>