<svg width="48" height="48" viewBox="0 0 103 126" fill="none" xmlns="http://www.w3.org/2000/svg" stroke-width="1px"
     stroke-linecap="round" stroke-linejoin="round">
    <path d="M76.8995 27.74L74.5295 29.11V12L51.1896 25.48L44.7096 29.22V46.33L22.3496 59.24V123.4L58.4095 102.58C57.5395 101.09 56.8995 99.3701 56.4995 97.4301C56.1795 95.8601 55.9796 94.2001 55.9296 92.4501C55.9096 92.0401 55.8995 91.6201 55.8995 91.2001C55.8995 90.7801 55.8996 90.35 55.9196 89.92C56.0596 85.65 56.8596 81.31 58.3596 76.9C59.5996 73.19 61.3296 69.43 63.5396 65.62C63.6396 65.45 63.7396 65.27 63.8496 65.1C68.2096 57.7 73.3495 51.9701 79.2595 47.9301C79.9695 47.4301 80.6996 46.97 81.4396 46.53C81.6196 46.41 81.8095 46.3101 81.9895 46.2001C84.6595 44.6501 87.2696 43.6101 89.8196 43.0701C92.3596 42.5201 94.7195 42.51 96.8995 43.04V16.2001L76.8995 27.74ZM67.0796 33.42L64.6896 34.8L59.1896 37.98L52.1696 42.03V33.47L59.1395 29.4501L67.0796 24.86V33.42Z" stroke="currentColor" stroke-linejoin="round"/>
    <path d="M59.1395 29.45L67.0796 33.4199V24.8599L59.1395 29.45ZM24.7096 36.3298L2.34961 49.2399L22.3496 59.2399L44.7096 46.3298L24.7096 36.3298Z" stroke="currentColor" stroke-linejoin="round"/>
    <path d="M67.0795 33.4202L64.6895 34.8002L59.1895 37.9801L52.1694 42.0302V33.4701L59.1394 29.4502L67.0795 33.4202Z" stroke="currentColor" stroke-linejoin="round"/>
    <path d="M95.1696 53.3903C94.7996 53.1803 94.4095 52.9903 94.0195 52.8403L93.9095 52.7903C90.5395 51.4503 86.5595 52.1103 81.9895 54.7503C81.5295 55.0203 81.0795 55.2903 80.6295 55.5903C76.0495 58.5703 72.1196 62.9103 68.7996 68.6203C68.2496 69.5803 67.7295 70.5303 67.2695 71.4803C64.6895 76.6703 63.3896 81.7303 63.3496 86.6803V86.9003C63.3496 92.8103 65.1696 96.8103 68.7996 98.8803C72.4396 100.95 76.8295 100.5 81.9895 97.5203C87.1395 94.5503 91.5396 89.9203 95.1696 83.6503C98.8096 77.3903 100.63 71.2903 100.63 65.3803C100.63 59.4703 98.8096 55.4703 95.1696 53.3903ZM81.9895 88.9703L70.8096 82.5903L73.4095 78.0903L80.1195 81.9203V64.3803L83.8496 62.2303V79.7703L90.5596 68.1903L93.1696 69.6803L81.9895 88.9703Z" stroke="currentColor" stroke-linejoin="round"/>
    <path d="M93.1696 69.6799L81.9895 88.9698L70.8096 82.5898L73.4095 78.0898L80.1195 81.9199V77.9099L83.8496 79.7699L90.5596 68.1899L93.1696 69.6799Z" stroke="currentColor" stroke-linejoin="round"/>
    <path d="M83.8497 62.23V79.77L80.1196 77.91V64.38L83.8497 62.23Z" stroke="currentColor" stroke-linejoin="round"/>
    <path d="M22.3496 59.2402V123.4L2.34961 113.4V49.2402L22.3496 59.2402Z" stroke="currentColor" stroke-linejoin="round"/>
    <path d="M74.5294 12L51.1895 25.48L44.7095 29.22L40.5995 27.16L32.6494 23.1901L24.7095 19.22L54.5294 2L70.4194 9.94006L74.5294 12Z" stroke="currentColor" stroke-linejoin="round"/>
    <path d="M96.8994 16.2002L76.8994 27.7401L74.5294 29.1101V12.0001L70.4194 9.94019L76.8994 6.2002L96.8994 16.2002Z" stroke="currentColor" stroke-linejoin="round"/>
    <path d="M44.7095 29.2197V46.3297L24.7095 36.3297V19.2197L32.6494 23.1898L40.5995 27.1598L44.7095 29.2197Z" stroke="currentColor" stroke-linejoin="round"/>
    <path d="M93.9094 52.7903C90.5394 51.4503 86.5594 52.1102 81.9894 54.7502C81.5294 55.0202 81.0794 55.2902 80.6294 55.5902C76.0494 58.5702 72.1194 62.9102 68.7994 68.6202C68.2494 69.5802 67.7294 70.5302 67.2694 71.4802C64.6894 76.6702 63.3895 81.7303 63.3495 86.6803V86.9003C63.3495 92.8103 65.1694 96.8102 68.7994 98.8802L55.9294 92.4503C55.9094 92.0403 55.8994 91.6203 55.8994 91.2003C55.8994 90.7803 55.8994 90.3503 55.9194 89.9203C56.0594 85.6503 56.8595 81.3103 58.3595 76.9003C59.5995 73.1903 61.3294 69.4302 63.5394 65.6202C63.6394 65.4502 63.7395 65.2702 63.8495 65.1002C68.2095 57.7002 73.3494 51.9703 79.2594 47.9303C79.9694 47.4303 80.6995 46.9703 81.4395 46.5303L93.9094 52.7903Z" stroke="currentColor" stroke-linejoin="round"/>
</svg>