<svg width="48" height="48" viewBox="0 0 86 113" fill="#c8e7ff" xmlns="http://www.w3.org/2000/svg" stroke-width="1px" stroke-linecap="round" stroke-linejoin="round"><path d="M41.0798 62.4395L38.5498 63.8995C37.8198 64.3195 37.2197 64.3995 36.7397 64.1195C36.2597 63.8495 36.0298 63.2995 36.0298 62.4595C36.0298 61.9995 36.0998 61.5395 36.2498 61.0895C36.3298 60.7895 36.4499 60.4995 36.6099 60.2095L37.2297 60.5195L41.0798 62.4395Z" stroke="#229EFF" stroke-linejoin="round"/><path d="M81.2197 12.5397L80.8098 12.3397C79.5698 11.8297 78.1197 12.0597 76.4597 13.0197L63.1997 20.6697L29.2898 40.2497C27.5598 41.2397 26.0698 42.7697 24.8198 44.7997C24.7198 44.9497 24.6198 45.1097 24.5298 45.2697C23.2098 47.5497 22.5498 49.7497 22.5498 51.8797V106C22.5498 108.13 23.2098 109.57 24.5298 110.32C25.8498 111.08 27.4298 110.92 29.2898 109.85L76.4597 82.6097C78.3097 81.5397 79.8997 79.8697 81.2197 77.5897C82.5397 75.3197 83.1997 73.1197 83.1997 70.9897V16.8597C83.1997 14.7297 82.5397 13.2897 81.2197 12.5397ZM46.1296 74.0197C46.1296 74.8597 45.8997 75.6897 45.4197 76.5097C44.9397 77.3397 44.3399 77.9597 43.6099 78.3797C42.8799 78.7997 42.2698 78.8797 41.7998 78.5997C41.3198 78.3297 41.0798 77.7797 41.0798 76.9397V62.4397L38.5498 63.8997C37.8198 64.3197 37.2197 64.3997 36.7397 64.1197C36.2597 63.8497 36.0298 63.2997 36.0298 62.4597C36.0298 61.9997 36.0998 61.5397 36.2498 61.0897C36.3298 60.7897 36.4499 60.4997 36.6099 60.2097C36.6499 60.1297 36.6897 60.0497 36.7397 59.9697C37.1697 59.2297 37.6898 58.6597 38.3198 58.2597C38.3998 58.1897 38.4698 58.1397 38.5498 58.0997L43.6099 55.1797C43.6099 55.1797 43.6597 55.1497 43.6897 55.1397C44.3097 54.7997 44.8298 54.7197 45.2598 54.8897C45.3198 54.9097 45.3697 54.9297 45.4197 54.9597C45.8497 55.1997 46.0799 55.6697 46.1199 56.3597C46.1299 56.4397 46.1296 56.5297 46.1296 56.6197V74.0197ZM66.3499 61.3797C66.3499 62.4797 66.0296 63.5797 65.3796 64.6997C64.7396 65.8097 63.9397 66.6397 62.9797 67.1997L60.6099 68.5697L54.5598 72.0597C53.5998 72.6097 52.7997 72.6997 52.1597 72.3297C51.5097 71.9597 51.1897 71.2297 51.1897 70.1397V54.6697C51.1897 54.2797 51.2298 53.8997 51.3198 53.5097C51.4598 52.7897 51.7397 52.0797 52.1597 51.3597C52.4197 50.9097 52.7098 50.4997 53.0198 50.1397C53.4798 49.6097 53.9898 49.1897 54.5598 48.8597L57.7097 47.0397L62.9797 43.9997C63.0597 43.9597 63.1297 43.9197 63.1997 43.8797C64.0697 43.4397 64.7896 43.3797 65.3796 43.7197C66.0296 44.0897 66.3499 44.8197 66.3499 45.9197V61.3797Z" stroke="#229EFF" stroke-linejoin="round"/><path d="M56.2395 61.4199V67.2199L51.1895 64.6999V58.8999L56.2395 61.4199Z" stroke="#229EFF" stroke-linejoin="round"/><path d="M61.2998 58.4995V64.2995L56.2397 67.2195V61.4195L61.2998 58.4995Z" stroke="#229EFF" stroke-linejoin="round"/><path d="M61.2996 48.8396L56.2395 51.7495L53.0195 50.1395C53.4795 49.6095 53.9896 49.1896 54.5596 48.8596L57.7095 47.0396L61.2996 48.8396Z" stroke="#229EFF" stroke-linejoin="round"/><path d="M56.2395 51.7496V57.5497L51.1895 55.0296V54.6696C51.1895 54.2796 51.2296 53.8997 51.3196 53.5097C51.4596 52.7897 51.7394 52.0796 52.1594 51.3596C52.4194 50.9096 52.7095 50.4996 53.0195 50.1396L56.2395 51.7496Z" stroke="#229EFF" stroke-linejoin="round"/><path d="M61.2996 58.4998L56.2395 61.4198L51.1895 58.8998V55.0298L56.2395 57.5498L57.7095 56.6998L61.2996 58.4998Z" stroke="#229EFF" stroke-linejoin="round"/><path d="M61.2998 48.8398V54.6398L57.7097 56.6998L56.2397 57.5498V51.7498L61.2998 48.8398Z" stroke="#229EFF" stroke-linejoin="round"/><path d="M66.3496 45.9198V61.3798C66.3496 62.4798 66.0294 63.5798 65.3794 64.6998C64.7394 65.8098 63.9395 66.6398 62.9795 67.1998L60.6096 68.5698L54.5596 72.0598C53.5996 72.6098 52.7994 72.6998 52.1594 72.3298C51.5094 71.9598 51.1895 71.2298 51.1895 70.1398V64.6998L56.2395 67.2198L61.2996 64.2998V58.4998L57.7095 56.6998L61.2996 54.6398V48.8398L57.7095 47.0398L62.9795 43.9998C63.0595 43.9598 63.1295 43.9198 63.1995 43.8798C64.0695 43.4398 64.7894 43.3798 65.3794 43.7198C66.0294 44.0898 66.3496 44.8198 66.3496 45.9198Z" stroke="#229EFF" stroke-linejoin="round"/><path d="M46.1296 56.6195V74.0195C46.1296 74.8595 45.8997 75.6895 45.4197 76.5095C44.9397 77.3395 44.3399 77.9595 43.6099 78.3795C42.8799 78.7995 42.2698 78.8795 41.7998 78.5995C41.3198 78.3295 41.0798 77.7795 41.0798 76.9395V62.4395L37.2297 60.5195L36.6099 60.2095C36.6499 60.1295 36.6897 60.0495 36.7397 59.9695C37.1697 59.2295 37.6898 58.6595 38.3198 58.2595C38.3998 58.1895 38.4698 58.1395 38.5498 58.0995L43.6099 55.1795C43.6099 55.1795 43.6597 55.1495 43.6897 55.1395C44.3097 54.7995 44.8298 54.7195 45.2598 54.8895C45.3198 54.9095 45.3697 54.9295 45.4197 54.9595C45.8497 55.1995 46.0799 55.6695 46.1199 56.3595C46.1299 56.4395 46.1296 56.5295 46.1296 56.6195Z" stroke="#229EFF" stroke-linejoin="round"/><path d="M80.8098 12.3398C79.5698 11.8298 78.1197 12.0598 76.4597 13.0198L63.1997 20.6698L29.2898 40.2498C27.5598 41.2398 26.0698 42.7698 24.8198 44.7998C24.7198 44.9498 24.6198 45.1098 24.5298 45.2698C23.2098 47.5498 22.5498 49.7498 22.5498 51.8798V106C22.5498 108.13 23.2098 109.57 24.5298 110.32L4.52979 100.32C3.20979 99.5698 2.5498 98.1298 2.5498 95.9998V41.8798C2.5498 39.7498 3.20979 37.5498 4.52979 35.2698C5.84979 32.9998 7.42979 31.3198 9.28979 30.2498L56.4597 3.01977C58.3097 1.94977 59.8997 1.78977 61.2197 2.53977L80.8098 12.3398Z" stroke="#229EFF" stroke-linejoin="round"/></svg>