<svg width="48" height="48" viewBox="0 0 121 103" class="pr-icon-iso-duotone-secondary"
     xmlns="http://www.w3.org/2000/svg" stroke-width="1px" stroke-linecap="round" stroke-linejoin="round">
    <path d="M47.7303 52.7101C47.6303 52.6501 47.5203 52.6001 47.4103 52.5601C46.4403 52.1701 45.2903 52.3601 43.9203 53.1401L37.2703 56.9801L29.2603 61.6101L27.9103 62.3901C26.8303 63.0101 25.8703 63.8701 25.0403 64.9601C24.7103 65.3901 24.4003 65.8501 24.1103 66.3501C23.0803 68.1101 22.5703 69.8601 22.5703 71.6001V97.6301C22.5703 98.9601 22.9503 99.8301 23.7103 100.27C24.4603 100.7 25.4203 100.58 26.5803 99.9101C27.7303 99.2401 28.6903 98.2601 29.4403 96.9501C30.2003 95.6501 30.5803 94.3301 30.5803 93.0101V88.4101L35.0703 85.8201L41.2503 82.2501V86.8401C41.2503 88.1701 41.6303 89.0501 42.3903 89.4801C43.1503 89.9101 44.1003 89.7901 45.2603 89.1201C46.4103 88.4601 47.3703 87.4701 48.1303 86.1701C48.8803 84.8601 49.2603 83.5501 49.2603 82.2201V56.0801C49.2403 54.4001 48.7303 53.2801 47.7303 52.7101ZM41.2503 73.0601L30.5803 79.2201V70.0401L32.7303 68.8001L37.2703 66.1701L41.2503 63.8701V73.0601Z" class="pr-icon-iso-duotone-primary-stroke" stroke-linejoin="round"/>
    <path d="M41.2501 73.0603L30.5801 79.2203V70.0403L32.73 68.8003L41.2501 73.0603Z" class="pr-icon-iso-duotone-primary-stroke" stroke-linejoin="round"/>
    <path d="M41.2505 63.8701V73.0601L32.7305 68.8001L37.2705 66.1701L41.2505 63.8701Z" class="pr-icon-iso-duotone-primary-stroke" stroke-linejoin="round"/>
    <path d="M82.4205 47.53C82.8005 46.88 83.1105 46.24 83.3405 45.59C83.7605 44.49 83.9605 43.38 83.9605 42.28V36.05C83.9405 34.37 83.4305 33.25 82.4205 32.68L82.0605 32.5C81.4505 32.27 80.7505 32.26 79.9705 32.5C79.5405 32.64 79.0905 32.84 78.6205 33.11L71.9605 36.96L63.3505 41.93L63.1605 42.04L59.9405 43.9C59.2305 44.31 58.6005 44.98 58.0705 45.9C57.5405 46.82 57.2705 47.69 57.2705 48.5V79.13C57.2705 79.94 57.5405 80.51 58.0705 80.81C58.6005 81.11 59.2305 81.06 59.9405 80.65L78.6205 69.86C80.1305 68.99 81.4005 67.67 82.4205 65.91C83.4505 64.14 83.9605 62.39 83.9605 60.66V54.53C83.9605 52.8 83.4505 51.64 82.4205 51.05C81.4005 50.47 80.1305 50.61 78.6205 51.49C80.1305 50.61 81.4005 49.3 82.4205 47.53ZM75.9505 62.22L65.2805 68.38V63.79L71.6805 60.09L75.9505 57.62V62.22ZM75.9505 48.43L73.8105 49.67L65.2805 54.6V50L71.6905 46.3L71.9605 46.14L75.9505 43.84V48.43Z" class="pr-icon-iso-duotone-primary-stroke" stroke-linejoin="round"/>
    <path d="M75.9503 62.2203L65.2803 68.3803V63.7903L71.6802 60.0903L75.9503 62.2203Z" class="pr-icon-iso-duotone-primary-stroke" stroke-linejoin="round"/>
    <path d="M75.9502 57.6201V62.2201L71.6802 60.0901L75.9502 57.6201Z" class="pr-icon-iso-duotone-primary-stroke" stroke-linejoin="round"/>
    <path d="M99.9704 48.3502L110.65 42.1802C110.65 40.8602 111.03 39.5402 111.78 38.2402C112.54 36.9302 113.49 35.9502 114.65 35.2802C115.7 34.6802 116.57 34.5202 117.29 34.8102L117.52 34.9202C118.28 35.3602 118.65 36.2302 118.65 37.5602V40.6202C118.65 42.3602 118.14 44.1102 117.12 45.8702C116.1 47.6402 114.83 48.9602 113.32 49.8302L97.3004 59.0802C95.7904 59.9502 94.5204 60.1002 93.5004 59.5102C92.4804 58.9302 91.9604 57.7702 91.9604 56.0302V31.5302C91.9604 29.8002 92.4804 28.0502 93.5004 26.2802C93.5704 26.1602 93.6404 26.0402 93.7104 25.9302C94.6904 24.3402 95.8904 23.1402 97.3004 22.3302L100.2 20.6602L113.32 13.0802C114.67 12.3002 115.82 12.1002 116.78 12.4802L117.12 12.6502C118.14 13.2302 118.65 14.3902 118.65 16.1202V19.1902C118.65 20.5102 118.28 21.8302 117.52 23.1302C116.76 24.4402 115.81 25.4202 114.65 26.0902C113.49 26.7602 112.54 26.8802 111.78 26.4502C111.03 26.0202 110.65 25.1402 110.65 23.8102L108.72 24.9202L103.52 27.9202L99.9704 29.9702V48.3502Z" class="pr-icon-iso-duotone-primary-stroke" stroke-linejoin="round"/>
    <path d="M75.9504 43.8398V48.4298L71.9704 46.4398L71.6904 46.2998L71.9604 46.1398L75.9504 43.8398Z" class="pr-icon-iso-duotone-primary-stroke" stroke-linejoin="round"/>
    <path d="M75.9503 48.4298L73.8102 49.6698L65.2803 54.5998V49.9998L71.6902 46.2998L71.9702 46.4398L75.9503 48.4298Z" class="pr-icon-iso-duotone-primary-stroke" stroke-linejoin="round"/>
    <path d="M116.78 12.48C115.82 12.1 114.67 12.3 113.32 13.08L100.2 20.66L97.3004 22.33C95.8904 23.14 94.6904 24.34 93.7104 25.93C93.6404 26.04 93.5704 26.16 93.5004 26.28C92.4804 28.05 91.9604 29.8 91.9604 31.53V56.03C91.9604 57.77 92.4804 58.93 93.5004 59.51L83.9604 54.74V54.53C83.9604 52.8 83.4504 51.64 82.4204 51.05C81.4004 50.47 80.1304 50.61 78.6204 51.49C80.1304 50.61 81.4004 49.3 82.4204 47.53C82.8004 46.88 83.1105 46.24 83.3405 45.59C83.7605 44.49 83.9604 43.38 83.9604 42.28V36.05C83.9404 34.37 83.4304 33.25 82.4204 32.68L82.0604 32.5L79.9704 31.46L71.9604 27.45V21.53C71.9604 19.8 72.4804 18.05 73.5004 16.28C74.5204 14.52 75.7904 13.2 77.3004 12.33L93.3204 3.07998C94.8304 2.20998 96.1004 2.05998 97.1204 2.64998L116.78 12.48Z" class="pr-icon-iso-duotone-primary-stroke" stroke-linejoin="round"/>
    <path d="M111.78 26.4499L108.72 24.9199" class="pr-icon-iso-duotone-primary-stroke" stroke-linejoin="round"/>
    <path d="M110.65 42.1798L99.9702 48.3498V36.8398L110.65 42.1798Z" class="pr-icon-iso-duotone-primary-stroke" stroke-linejoin="round"/>
    <path d="M117.29 34.8099C116.57 34.5199 115.7 34.6799 114.65 35.2799C113.49 35.9499 112.54 36.9299 111.78 38.2399C111.03 39.5399 110.65 40.8599 110.65 42.1799L99.9702 36.8399V29.9699L103.52 27.9199L117.29 34.8099Z" class="pr-icon-iso-duotone-primary-stroke" stroke-linejoin="round"/>
    <path d="M82.0605 32.4998C81.4505 32.2698 80.7505 32.2598 79.9705 32.4998C79.5405 32.6398 79.0905 32.8398 78.6205 33.1098L71.9605 36.9598L63.3505 41.9298L63.1605 42.0398L59.9405 43.8998C59.2305 44.3098 58.6005 44.9798 58.0705 45.8998C57.5405 46.8198 57.2705 47.6898 57.2705 48.4998V79.1298C57.2705 79.9398 57.5405 80.5098 58.0705 80.8098L49.2605 76.4098V56.0798C49.2405 54.3998 48.7305 53.2798 47.7305 52.7098L47.4205 52.5498L37.2705 47.4798V38.4998C37.2705 37.6898 37.5405 36.8198 38.0705 35.8998C38.6005 34.9798 39.2305 34.3098 39.9405 33.8998L58.6205 23.1098C60.1305 22.2398 61.4005 22.0898 62.4205 22.6798L71.9605 27.4498L79.9705 31.4598L82.0605 32.4998Z" class="pr-icon-iso-duotone-primary-stroke" stroke-linejoin="round"/>
    <path d="M47.4203 52.5501H47.4103C46.4403 52.1701 45.2903 52.3601 43.9203 53.1401L37.2703 56.9801L29.2603 61.6101L27.9103 62.3901C26.8303 63.0101 25.8703 63.8701 25.0403 64.9601C24.7103 65.3901 24.4003 65.8501 24.1103 66.3501C23.0803 68.1101 22.5703 69.8601 22.5703 71.6001V97.6301C22.5703 98.9601 22.9503 99.8301 23.7103 100.27L3.9303 90.3801L3.71033 90.2701C2.95033 89.8301 2.57031 88.9601 2.57031 87.6301V61.6001C2.57031 59.8601 3.08029 58.1101 4.11029 56.3501C5.13029 54.5801 6.40028 53.2601 7.91028 52.3901L23.9203 43.1401C25.4403 42.2701 26.7003 42.1301 27.7303 42.7101L37.2703 47.4801L47.4203 52.5501Z" class="pr-icon-iso-duotone-primary-stroke" stroke-linejoin="round"/>
    <path d="M42.3903 89.48L35.0703 85.82L41.2503 82.25V86.84C41.2503 88.17 41.6303 89.05 42.3903 89.48Z" class="pr-icon-iso-duotone-primary-stroke" stroke-linejoin="round"/>
</svg>