<svg width="24" height="24" viewBox="0 0 102 115" class="pr-icon-iso-duotone-secondary" xmlns="http://www.w3.org/2000/svg" stroke-width="1px" stroke-linecap="round" stroke-linejoin="round">
    <path d="M57.5701 90.8298C57.5701 91.9298 57.2203 93.0898 56.5203 94.2898L47.5203 109.83C46.8203 111.04 46.0001 111.91 45.0701 112.45C44.1401 112.99 43.3201 113.06 42.6201 112.66L33.5203 107.47C32.8803 107.11 32.5503 106.38 32.5203 105.29C32.4903 104.21 32.8203 103.06 33.5203 101.85C34.1703 100.75 34.9802 99.9098 35.9702 99.3298C36.8602 98.8198 37.6202 98.6797 38.2302 98.9297L38.4202 99.0198L41.5701 100.72V75.9297L36.7402 78.7198L31.3901 81.8097L29.3301 82.9998C29.0701 83.1498 28.8101 83.2797 28.5701 83.3997C26.9601 84.1397 25.5801 84.1798 24.3901 83.4998C23.0201 82.7098 22.3301 81.2198 22.3301 79.0098V58.9398C22.3301 58.4298 22.4003 57.9298 22.5303 57.4198C22.7003 56.7798 22.9701 56.1398 23.3401 55.4998C24.0101 54.3398 24.8401 53.4798 25.8301 52.9098C26.7201 52.3998 27.4801 52.2598 28.1101 52.5198L28.3201 52.6197C28.9901 52.9997 29.3301 53.7597 29.3301 54.8997V74.9698L41.5701 67.8997C43.4901 66.7897 45.1403 66.6298 46.5103 67.4098C47.6203 68.0398 48.2902 69.1398 48.4902 70.7198C48.5502 71.0798 48.5701 71.4698 48.5701 71.8898V96.6797L51.6301 91.3997C52.2701 90.2897 53.0703 89.4598 54.0303 88.9098C54.9903 88.3498 55.8303 88.2398 56.5203 88.5698C57.2203 88.9698 57.5701 89.7198 57.5701 90.8298Z" class="pr-icon-iso-duotone-primary-stroke" stroke-linejoin="round"/>
    <path d="M99.2897 14.5098V34.5798C99.2897 36.7898 98.6099 39.0698 97.2299 41.4398C95.8599 43.7998 94.2197 45.5397 92.2897 46.6497L80.0497 53.7198V78.5998L83.1097 73.2198C83.7497 72.0498 84.5499 71.1997 85.5199 70.6797C86.4799 70.1597 87.3099 70.0597 88.0099 70.3997C88.7099 70.7897 89.0597 71.5497 89.0597 72.6497C89.0597 73.7497 88.7099 74.9098 88.0099 76.1198L78.9999 91.6497C78.2999 92.8597 77.4797 93.7298 76.5497 94.2698C75.6197 94.8098 74.7997 94.8798 74.0997 94.4798L65.0099 89.2898C64.3699 88.9298 64.0299 88.1998 63.9999 87.1198C63.9699 86.0298 64.3099 84.8798 65.0099 83.6698C65.6499 82.5698 66.4698 81.7298 67.4598 81.1598C68.3498 80.6498 69.0998 80.5098 69.7198 80.7598L69.9098 80.8498L73.0497 82.5398V57.7498C73.0497 55.5498 73.7397 53.2597 75.1097 50.8997C76.4797 48.5297 78.1297 46.7998 80.0497 45.6898L92.2897 38.6198V18.5498C92.2897 17.4098 92.6297 16.2598 93.2997 15.1098C93.9697 13.9498 94.7997 13.0898 95.7897 12.5098C96.6797 11.9998 97.4397 11.8698 98.0697 12.1298L98.2799 12.2298C98.9499 12.6098 99.2897 13.3698 99.2897 14.5098Z" class="pr-icon-iso-duotone-primary-stroke" stroke-linejoin="round"/>
    <path d="M42.6193 112.66L22.8493 102.77L22.6193 102.66L13.5195 97.4698C12.8795 97.1098 12.5495 96.3798 12.5195 95.2898C12.4895 94.2098 12.8195 93.0598 13.5195 91.8498C14.1695 90.7498 14.9794 89.9098 15.9694 89.3298C16.9594 88.7598 17.7794 88.6598 18.4194 89.0198L21.5693 90.7198V90.5998L30.3293 94.9798L38.2294 98.9298C37.6194 98.6798 36.8594 98.8198 35.9694 99.3298C34.9794 99.9098 34.1695 100.75 33.5195 101.85C32.8195 103.06 32.4895 104.21 32.5195 105.29C32.5495 106.38 32.8795 107.11 33.5195 107.47L42.6193 112.66Z" class="pr-icon-iso-duotone-primary-stroke" stroke-linejoin="round"/>
    <path d="M21.5698 90.5998L18.4199 89.0198" class="pr-icon-iso-duotone-primary-stroke" stroke-linejoin="round"/>
    <path d="M28.1101 52.5198C27.4801 52.2598 26.7201 52.3998 25.8301 52.9098C24.8401 53.4798 24.0101 54.3398 23.3401 55.4998C22.9701 56.1398 22.7003 56.7798 22.5303 57.4198C22.4003 57.9298 22.3301 58.4298 22.3301 58.9398V79.0098C22.3301 81.2198 23.0201 82.7098 24.3901 83.4998L21.5701 82.0898L4.82007 73.7098L4.39014 73.4998C3.02014 72.7098 2.33008 71.2198 2.33008 69.0098V48.9398C2.33008 47.7998 2.67009 46.6598 3.34009 45.4998C4.01009 44.3398 4.84008 43.4798 5.83008 42.9098C6.82008 42.3398 7.65007 42.2398 8.32007 42.6198L28.1101 52.5198Z" class="pr-icon-iso-duotone-primary-stroke" stroke-linejoin="round"/>
    <path d="M46.5103 67.4098C45.1403 66.6298 43.4901 66.7898 41.5701 67.8998L29.3301 74.9698V58.8198L46.5103 67.4098Z" class="pr-icon-iso-duotone-primary-stroke" stroke-linejoin="round"/>
    <path d="M74.1001 94.4797L54.3301 84.5897L54.1001 84.4797L48.5701 81.3197V71.8897C48.5701 71.4697 48.5502 71.0797 48.4902 70.7197C49.0302 70.5697 49.5002 70.6197 49.9102 70.8497L53.05 72.4197L61.8101 76.7998L69.7202 80.7597C69.1002 80.5097 68.3502 80.6497 67.4602 81.1597C66.4702 81.7297 65.6503 82.5697 65.0103 83.6697C64.3103 84.8797 63.9702 86.0297 64.0002 87.1197C64.0302 88.1997 64.3703 88.9297 65.0103 89.2897L74.1001 94.4797Z" class="pr-icon-iso-duotone-primary-stroke" stroke-linejoin="round"/>
    <path d="M98.0691 12.1298C97.4391 11.8698 96.6791 11.9998 95.7891 12.5098C94.7991 13.0898 93.9691 13.9498 93.2991 15.1098C92.6291 16.2598 92.2891 17.4098 92.2891 18.5498V38.6198L77.3792 31.1698L72.2891 28.6198V8.54978C72.2891 7.40978 72.6291 6.25977 73.2991 5.10977C73.9691 3.94977 74.7991 3.08977 75.7891 2.50977C76.7791 1.93977 77.6093 1.84977 78.2793 2.22977L98.0691 12.1298Z" class="pr-icon-iso-duotone-primary-stroke" stroke-linejoin="round"/>
    <path d="M92.2908 38.6198L80.0508 45.6898C78.1308 46.7998 76.4808 48.5297 75.1108 50.8997C73.7408 53.2597 73.0508 55.5498 73.0508 57.7498V82.5398L69.9109 80.8498L69.7209 80.7598L61.8108 76.7998L53.0508 72.4198V47.7498C53.0508 45.5498 53.7408 43.2597 55.1108 40.8997C56.4808 38.5297 58.1308 36.7998 60.0508 35.6898L72.2908 28.6198L77.3809 31.1698L92.2908 38.6198Z" class="pr-icon-iso-duotone-primary-stroke" stroke-linejoin="round"/>
    <path d="M88.011 70.3998C87.311 70.0598 86.481 70.1598 85.521 70.6798C84.551 71.1998 83.7508 72.0498 83.1108 73.2198L80.0508 78.5998V66.4198L88.011 70.3998Z" class="pr-icon-iso-duotone-primary-stroke" stroke-linejoin="round"/>
    <path d="M41.5703 75.9297V100.72L38.4204 99.0197L38.2305 98.9297L30.3303 94.9797L21.5703 90.5997V82.0897L24.3904 83.4997C25.5804 84.1797 26.9603 84.1397 28.5703 83.3997C28.8103 83.2797 29.0703 83.1497 29.3303 82.9997L31.3904 81.8097L36.7405 78.7197L41.5703 75.9297Z" class="pr-icon-iso-duotone-primary-stroke" stroke-linejoin="round"/>
    <path d="M56.5205 88.5697C55.8305 88.2397 54.9905 88.3497 54.0305 88.9097C53.0705 89.4597 52.2704 90.2897 51.6304 91.3997L48.5703 96.6797V84.6097L56.5205 88.5697Z" class="pr-icon-iso-duotone-primary-stroke" stroke-linejoin="round"/>
</svg>