<svg width="48" height="48" viewBox="0 0 73 108" fill="#c8e7ff" xmlns="http://www.w3.org/2000/svg" stroke-width="1px" stroke-linecap="round" stroke-linejoin="round"><path d="M70.3701 15.5574V19.3674C70.3701 20.9474 69.8902 22.5774 68.9202 24.2474C67.9602 25.9174 66.7701 27.1574 65.3901 27.9474C64.0101 28.7474 62.8301 28.8674 61.8701 28.3174C60.8901 27.7674 60.4102 26.6974 60.4102 25.1174V21.3074C60.4102 19.7174 60.8901 18.0874 61.8701 16.4174C62.8301 14.7474 64.0101 13.5174 65.3901 12.7174C66.6301 11.9874 67.7201 11.8174 68.6201 12.1874L68.9202 12.3374C69.8902 12.8974 70.3701 13.9674 70.3701 15.5574Z" stroke="#229EFF" stroke-linejoin="round"/><path d="M67.0497 42.327C67.0497 45.247 66.3797 48.317 65.0197 51.547C63.6597 54.777 61.8196 57.697 59.4996 60.307C57.7296 62.277 56.3297 64.497 55.3097 66.967C54.2897 69.427 53.7697 71.767 53.7697 73.987V80.377C53.7697 84.627 52.4897 88.967 49.9197 93.407C47.3397 97.847 44.1996 101.137 40.4896 103.277C36.8396 105.377 33.7196 105.697 31.1196 104.217C28.5196 102.727 27.2197 99.887 27.2197 95.707V72.847C27.2197 66.497 29.1597 59.987 33.0297 53.307C36.5997 47.137 40.8996 42.447 45.8796 39.257C46.2896 38.987 46.7096 38.727 47.1296 38.487L53.1997 34.997C57.0197 32.787 60.2696 32.377 62.9896 33.767C65.6996 35.157 67.0497 38.007 67.0497 42.327Z" stroke="#229EFF" stroke-linejoin="round"/><path d="M37.1593 38.5272V40.4272C37.1593 41.5072 36.8494 42.5972 36.2094 43.6972C35.5794 44.7972 34.7894 45.6172 33.8394 46.1572C32.9094 46.6972 32.1192 46.7972 31.4792 46.4272C30.8492 46.0672 30.5293 45.3472 30.5293 44.2672V42.3672C30.5293 41.2772 30.8492 40.1972 31.4792 39.0972C32.1192 37.9972 32.9094 37.1772 33.8394 36.6372C34.6794 36.1472 35.3993 36.0272 35.9893 36.2572L36.2094 36.3672C36.8494 36.7272 37.1593 37.4472 37.1593 38.5272Z" stroke="#229EFF" stroke-linejoin="round"/><path d="M62.9896 33.7673C60.2696 32.3773 57.0197 32.7873 53.1997 34.9973L47.1296 38.4873C46.7096 38.7273 46.2896 38.9873 45.8796 39.2573C40.8996 42.4473 36.5997 47.1373 33.0297 53.3073C29.1597 59.9873 27.2197 66.4973 27.2197 72.8473V95.7073C27.2197 99.8873 28.5196 102.727 31.1196 104.217L11.6697 94.4873L11.1196 94.2173C8.51963 92.7273 7.21973 89.8873 7.21973 85.7073V62.8473C7.21973 59.2173 7.84963 55.5373 9.11963 51.8073L23.1897 58.8373C23.8297 59.1973 24.6197 59.1173 25.5597 58.5673C26.4897 58.0273 27.2797 57.2073 27.9197 56.1073C28.5597 55.0173 28.8796 53.9273 28.8796 52.8473C28.8796 51.7673 28.5597 51.0373 27.9197 50.6773L13.0597 43.2473C13.9997 41.6273 14.9897 40.1173 16.0297 38.6973L31.4896 46.4273C32.1296 46.7973 32.9197 46.6973 33.8497 46.1573C34.7997 45.6173 35.5897 44.7973 36.2197 43.6973C36.8597 42.5973 37.1697 41.5073 37.1697 40.4273V38.5273C37.1697 37.4473 36.8597 36.7273 36.2197 36.3673L24.2396 30.3773C24.8196 29.9473 25.4197 29.5473 26.0197 29.1573L41.4497 36.8773C42.0897 37.2373 42.8797 37.1373 43.8097 36.5973C44.7597 36.0573 45.5497 35.2373 46.1797 34.1373C46.6197 33.3773 46.9097 32.6173 47.0397 31.8673C47.0997 31.5273 47.1296 31.1973 47.1296 30.8673V28.9873L51.4097 31.1273C52.0497 31.4873 52.8397 31.3873 53.7697 30.8473C54.2497 30.5773 54.6797 30.2273 55.0797 29.8173L62.9896 33.7673Z" stroke="#229EFF" stroke-linejoin="round"/><path d="M28.8695 52.8469C28.8695 53.9269 28.5495 55.0169 27.9095 56.1069C27.2695 57.2069 26.4796 58.0269 25.5496 58.5669C24.6096 59.1169 23.8196 59.1969 23.1796 58.8369C22.5396 58.4769 22.2295 57.7569 22.2295 56.6769C22.2295 55.5969 22.5396 54.5069 23.1796 53.4069C23.8196 52.3169 24.6096 51.4969 25.5496 50.9469C26.4796 50.4069 27.2695 50.3169 27.9095 50.6769C28.5495 51.0369 28.8695 51.7569 28.8695 52.8469Z" stroke="#229EFF" stroke-linejoin="round"/><path d="M27.9095 50.6769C27.2695 50.3169 26.4796 50.4069 25.5496 50.9469C24.6096 51.4969 23.8196 52.3169 23.1796 53.4069C22.5396 54.5069 22.2295 55.5969 22.2295 56.6769C22.2295 57.7569 22.5396 58.4769 23.1796 58.8369L9.1095 51.8069L3.37952 48.9369L3.17957 48.8369C2.53957 48.4769 2.22949 47.7569 2.22949 46.6769C2.22949 45.5969 2.53957 44.5069 3.17957 43.4069C3.81957 42.3169 4.60956 41.4969 5.54956 40.9469C6.47956 40.4069 7.26955 40.3169 7.90955 40.6769L27.9095 50.6769Z" stroke="#229EFF" stroke-linejoin="round"/><path d="M35.999 36.2577C35.409 36.0277 34.6891 36.1477 33.8491 36.6377C32.9191 37.1777 32.129 37.9977 31.489 39.0977C30.859 40.1977 30.5391 41.2777 30.5391 42.3677V44.2677C30.5391 45.3477 30.859 46.0677 31.489 46.4277L16.0291 38.6977L11.6891 36.5277L11.489 36.4277C10.859 36.0677 10.5391 35.3477 10.5391 34.2677V32.3677C10.5391 31.2777 10.859 30.1977 11.489 29.0977C12.129 27.9977 12.9191 27.1777 13.8491 26.6377C14.7991 26.0877 15.5891 25.9977 16.2191 26.3677L35.999 36.2577Z" stroke="#229EFF" stroke-linejoin="round"/><path d="M45.8895 26.6772C45.3095 26.4772 44.6096 26.6072 43.7996 27.0772C43.7196 27.1172 43.6496 27.1672 43.5796 27.2172C42.7396 27.7472 42.0296 28.5272 41.4396 29.5372C40.8096 30.6372 40.4795 31.7172 40.4795 32.8072V34.7072C40.4795 35.7872 40.8096 36.5072 41.4396 36.8772L26.0095 29.1572L21.6295 26.9672L21.4396 26.8772C20.8096 26.5072 20.4795 25.7872 20.4795 24.7072V22.8072C20.4795 21.7172 20.8096 20.6372 21.4396 19.5372C22.0796 18.4372 22.8696 17.6172 23.7996 17.0772C24.7496 16.5272 25.5396 16.4372 26.1696 16.8072L30.4396 18.9472L33.9795 20.7072L38.5896 23.0172L45.8695 26.6572V26.6772H45.8895Z" stroke="#229EFF" stroke-linejoin="round"/><path d="M57.0795 21.307V25.117C57.0795 25.377 57.0594 25.637 57.0194 25.897C56.9094 26.727 56.6194 27.547 56.1294 28.387C55.8094 28.937 55.4595 29.407 55.0695 29.817C54.6695 30.227 54.2394 30.577 53.7594 30.847C52.8294 31.387 52.0394 31.487 51.3994 31.127C50.7594 30.757 50.4395 30.037 50.4395 28.957V25.147C50.4395 24.387 50.5994 23.617 50.9194 22.847C51.0494 22.527 51.2094 22.207 51.3994 21.887C52.0394 20.777 52.8294 19.957 53.7594 19.427C54.6194 18.927 55.3295 18.807 55.9395 19.057L56.1294 19.147C56.7694 19.517 57.0795 20.237 57.0795 21.307Z" stroke="#229EFF" stroke-linejoin="round"/><path d="M47.1195 28.9675V30.8675C47.1195 31.1975 47.0895 31.5275 47.0295 31.8575C46.8995 32.6175 46.6096 33.3775 46.1696 34.1375C45.5396 35.2375 44.7496 36.0575 43.7996 36.5975C42.8696 37.1375 42.0796 37.2375 41.4396 36.8775C40.8096 36.5075 40.4795 35.7875 40.4795 34.7075V32.8075C40.4795 31.7175 40.8096 30.6375 41.4396 29.5375C42.0296 28.5275 42.7396 27.7475 43.5796 27.2175C43.6496 27.1675 43.7196 27.1175 43.7996 27.0775C44.6096 26.6075 45.3095 26.4775 45.8895 26.6775L45.9496 26.6975L46.1696 26.8075C46.8096 27.1675 47.1195 27.8875 47.1195 28.9675Z" stroke="#229EFF" stroke-linejoin="round"/><path d="M55.9497 19.057C55.3397 18.807 54.6297 18.927 53.7697 19.427C52.8397 19.957 52.0497 20.777 51.4097 21.887C51.2197 22.207 51.0597 22.527 50.9297 22.847C50.6097 23.617 50.4497 24.387 50.4497 25.147V28.957C50.4497 30.037 50.7697 30.757 51.4097 31.127L47.1296 28.987V28.967C47.1296 27.887 46.8197 27.167 46.1797 26.807L45.9597 26.697L45.8997 26.677V26.657L38.6196 23.017L34.0096 20.707L30.4697 18.947V15.147C30.4697 14.067 30.7897 12.977 31.4297 11.887C32.0697 10.777 32.8597 9.95701 33.7897 9.42701C34.7397 8.87701 35.5197 8.787 36.1597 9.147L40.4297 11.287L55.9697 19.057H55.9497Z" stroke="#229EFF" stroke-linejoin="round"/><path d="M68.6191 12.1872C67.7191 11.8172 66.6292 11.9872 65.3892 12.7172C64.0092 13.5172 62.8291 14.7472 61.8691 16.4172C60.8891 18.0872 60.4092 19.7173 60.4092 21.3073V25.1172C60.4092 26.6972 60.8891 27.7672 61.8691 28.3172L57.0292 25.8973C57.0692 25.6373 57.0892 25.3772 57.0892 25.1172V21.3073C57.0892 20.2373 56.7792 19.5172 56.1392 19.1472L55.9492 19.0573L40.4092 11.2872C40.4092 9.70725 40.8891 8.07725 41.8691 6.41725C42.8291 4.74725 44.0092 3.51725 45.3892 2.71725C46.7692 1.90725 47.9592 1.78725 48.9192 2.33725L68.6191 12.1872Z" stroke="#229EFF" stroke-linejoin="round"/></svg>