<svg width="48" height="48" viewBox="0 0 91 123" class="pr-icon-iso-duotone-secondary"
     xmlns="http://www.w3.org/2000/svg" stroke-width="1px" stroke-linecap="round" stroke-linejoin="round">
    <path d="M88.2004 31.4047V58.2248C88.2004 59.7448 87.7504 61.2847 86.8604 62.8247C85.9604 64.3747 84.8504 65.5247 83.5304 66.2947L78.8503 68.9948V90.4447C78.8503 91.9647 78.4004 93.4947 77.5104 95.0447C76.6104 96.5947 75.5004 97.7448 74.1804 98.5148C72.8504 99.2748 71.7403 99.4047 70.8503 98.8947C69.9503 98.3847 69.5004 97.3647 69.5004 95.8447V74.3848L64.8304 77.0847C63.5004 77.8547 62.3904 77.9747 61.5004 77.4647C60.6004 76.9547 60.1504 75.9447 60.1504 74.4247V47.6048C60.1504 46.0848 60.6004 44.5548 61.5004 43.0048C62.3904 41.4548 63.5004 40.3047 64.8304 39.5347L68.2004 37.5947L69.5004 36.8447V20.7448C69.5004 20.4048 69.5204 20.0547 69.5704 19.7147C69.7304 18.5347 70.1503 17.3447 70.8503 16.1547C71.7403 14.6047 72.8504 13.4547 74.1804 12.6847C75.5004 11.9247 76.6104 11.7947 77.5104 12.3047C78.4004 12.8147 78.8503 13.8348 78.8503 15.3548V31.4447L83.5304 28.7448C84.7204 28.0548 85.7304 27.8848 86.5804 28.2248L86.8604 28.3648C87.7504 28.8748 88.2004 29.8847 88.2004 31.4047Z" class="pr-icon-iso-duotone-primary-stroke" stroke-linejoin="round"/>
    <path d="M33.4495 120.485L13.4495 110.485C12.9995 110.225 12.6595 109.845 12.4395 109.325L15.2394 110.725L24.0994 115.155C24.9994 115.665 26.1094 115.535 27.4294 114.775L32.1094 112.075V117.435C32.1094 118.955 32.5495 119.975 33.4495 120.485Z" class="pr-icon-iso-duotone-primary-stroke" stroke-linejoin="round"/>
    <path d="M50.7997 42.2747V95.9147C50.7997 97.4347 50.3598 98.9648 49.4598 100.515C48.5598 102.055 47.4498 103.215 46.1298 103.975L41.4498 106.675V112.035C41.4498 113.555 41.0097 115.095 40.1097 116.635C39.2097 118.185 38.0998 119.335 36.7798 120.105C35.4598 120.865 34.3498 120.995 33.4498 120.485C32.5498 119.975 32.1097 118.955 32.1097 117.435V112.075L27.4297 114.775C26.1097 115.535 24.9997 115.665 24.0997 115.155C23.1997 114.645 22.7598 113.625 22.7598 112.105V58.4648C22.7598 56.9448 23.1997 55.4148 24.0997 53.8648C24.9997 52.3248 26.1097 51.1647 27.4297 50.4047L30.7997 48.4648L32.1097 47.7048V42.3348C32.1097 40.8148 32.5498 39.2848 33.4498 37.7448C34.3498 36.1948 35.4598 35.0447 36.7798 34.2747C37.3298 33.9547 37.8398 33.7447 38.3198 33.6547C38.9898 33.5147 39.5797 33.5947 40.1097 33.8947C40.3797 34.0447 40.5998 34.2448 40.7798 34.4848C40.9198 34.6548 41.0298 34.8447 41.1198 35.0547C41.3398 35.5547 41.4498 36.1848 41.4498 36.9448V42.3047L46.1298 39.6048C47.4498 38.8448 48.5598 38.7148 49.4598 39.2248C50.3598 39.7348 50.7997 40.7547 50.7997 42.2747Z" class="pr-icon-iso-duotone-primary-stroke" stroke-linejoin="round"/>
    <path d="M69.4993 36.8447L68.1993 37.5947L64.8293 39.5347C63.4993 40.3047 62.3893 41.4548 61.4993 43.0048C60.5993 44.5548 60.1493 46.0847 60.1493 47.6047V74.4247C60.1493 75.9447 60.5993 76.9547 61.4993 77.4647L58.8492 76.1447L50.7993 72.1147V42.2747C50.7993 40.7547 50.3593 39.7347 49.4593 39.2247L41.1193 35.0547C41.0293 34.8447 40.9193 34.6547 40.7793 34.4847C40.9693 33.9947 41.2093 33.4948 41.4993 33.0048C42.3893 31.4548 43.4993 30.3047 44.8293 29.5347L49.4993 26.8447L68.1993 36.1947L69.4993 36.8447Z" class="pr-icon-iso-duotone-primary-stroke" stroke-linejoin="round"/>
    <path d="M86.5797 28.2247C85.7297 27.8847 84.7197 28.0548 83.5297 28.7448L78.8496 31.4447V24.3647L86.5797 28.2247Z" class="pr-icon-iso-duotone-primary-stroke" stroke-linejoin="round"/>
    <path d="M77.51 12.3046C76.61 11.7946 75.5 11.9246 74.18 12.6846C72.85 13.4546 71.74 14.6046 70.85 16.1546C70.15 17.3446 69.73 18.5346 69.57 19.7146C69.52 20.0546 69.5 20.4047 69.5 20.7447V36.8447L68.2 36.1946L49.5 26.8447V10.7447C49.5 9.22468 49.95 7.69465 50.85 6.15465C51.74 4.60465 52.85 3.45462 54.18 2.68462C55.42 1.96462 56.48 1.81466 57.35 2.22466L57.51 2.30461L77.51 12.3046Z" class="pr-icon-iso-duotone-primary-stroke" stroke-linejoin="round"/>
    <path d="M70.8488 98.8947L50.8488 88.8947C50.8488 88.8947 50.8188 88.8747 50.7988 88.8647V72.1147L58.8488 76.1447L61.4988 77.4647C62.3888 77.9747 63.4989 77.8547 64.8289 77.0847L69.4988 74.3848V95.8447C69.4988 97.3647 69.9488 98.3847 70.8488 98.8947Z" class="pr-icon-iso-duotone-primary-stroke" stroke-linejoin="round"/>
    <path d="M40.1094 33.8945C39.5794 33.5945 38.9894 33.5146 38.3194 33.6546C37.8394 33.7446 37.3294 33.9546 36.7794 34.2746C35.4594 35.0446 34.3494 36.1946 33.4494 37.7446C32.5494 39.2846 32.1094 40.8146 32.1094 42.3346V47.7046L30.7994 47.0546L12.1094 37.7046V32.3346C12.1094 30.8146 12.5494 29.2846 13.4494 27.7446C14.3494 26.1946 15.4594 25.0446 16.7794 24.2746C18.0994 23.5146 19.2094 23.3845 20.1094 23.8945L40.1094 33.8945Z" class="pr-icon-iso-duotone-primary-stroke" stroke-linejoin="round"/>
    <path d="M49.4592 39.2247C48.5592 38.7147 47.4492 38.8447 46.1292 39.6047L41.4492 42.3047V36.9447C41.4492 36.1847 41.3391 35.5547 41.1191 35.0547L49.4592 39.2247Z" class="pr-icon-iso-duotone-primary-stroke" stroke-linejoin="round"/>
    <path d="M32.1097 47.7046L30.7997 48.4646L27.4297 50.4045C26.1097 51.1645 24.9997 52.3246 24.0997 53.8646C23.1997 55.4146 22.7598 56.9446 22.7598 58.4646V112.105C22.7598 113.625 23.1997 114.645 24.0997 115.155L15.2397 110.725L12.4398 109.325L4.09973 105.155C3.19973 104.645 2.75977 103.625 2.75977 102.105V48.4646C2.75977 46.9446 3.19973 45.4146 4.09973 43.8646C4.99973 42.3246 6.10975 41.1645 7.42975 40.4045L12.1097 37.7046L30.7997 47.0546L32.1097 47.7046Z" class="pr-icon-iso-duotone-primary-stroke" stroke-linejoin="round"/>
</svg>