<svg width="48" height="48" viewBox="0 0 94 113" fill="#c8e7ff" xmlns="http://www.w3.org/2000/svg" stroke-width="1px" stroke-linecap="round" stroke-linejoin="round"><path d="M88.8495 50.7402L89.7595 51.2002C89.4795 51.0002 89.1695 50.8402 88.8495 50.7402Z" stroke="#229EFF" stroke-linejoin="round"/><path d="M91.7095 55.8001C91.7095 56.8001 91.5395 57.9001 91.1895 59.0901C90.8395 60.2901 90.3195 61.4901 89.6295 62.6901L79.8895 79.4801C79.5495 80.0801 79.1695 80.5801 78.7595 80.9801C78.3595 81.3801 77.9195 81.7101 77.4595 81.9801C76.9995 82.2501 76.5595 82.4101 76.1595 82.4801C75.7495 82.5501 75.3695 82.4802 75.0295 82.2902L65.2895 76.7402C64.5395 76.3102 64.0095 75.6902 63.6895 74.8702C63.3695 74.0602 63.2095 73.1602 63.2095 72.1602C63.2095 70.0302 63.8695 67.7501 65.2095 65.3201C66.5395 62.8901 68.2495 61.0702 70.3295 59.8702C71.9595 58.9302 73.2295 58.6301 74.1595 58.9601C74.3495 59.0301 74.5595 59.1101 74.7695 59.1901C75.5595 59.5201 76.4595 59.9602 77.4595 60.5402C78.6195 58.5402 79.6795 56.8001 80.6295 55.3201C81.5895 53.8401 82.9095 52.6102 84.5895 51.6402C86.2595 50.6702 87.6695 50.3702 88.8295 50.7402H88.8495L89.7595 51.2001C91.0595 52.1401 91.7095 53.6801 91.7095 55.8001Z" stroke="#229EFF" stroke-linejoin="round"/><path d="M91.7094 17.6101V32.8701C91.7094 34.0001 91.3794 35.1402 90.7094 36.2902C90.0494 37.4402 89.2194 38.2901 88.2294 38.8601C87.2494 39.4301 86.4195 39.5302 85.7595 39.1502C85.0895 38.7702 84.7595 38.0102 84.7595 36.8802V29.6001L76.3594 34.4501L41.3594 54.6602L36.6295 57.3902L29.1395 61.7101V77.6701L33.1694 75.3401L46.6794 67.5302L55.2094 62.6101C55.7694 62.3001 56.2395 62.1901 56.6295 62.3001L56.8394 62.4002C57.0494 62.5102 57.2395 62.7001 57.3895 62.9601C57.8495 63.7501 57.7595 64.8301 57.1295 66.2001C56.2595 68.2001 55.5294 70.2101 54.9294 72.2301C54.6394 73.1801 54.3894 74.1301 54.1694 75.0801C53.4794 78.0801 53.1295 80.9702 53.1295 83.7602C53.1295 85.0202 53.1994 86.2302 53.3494 87.3802C53.4894 88.5202 53.7095 89.5802 53.9995 90.5402C54.2895 91.5002 54.1294 92.6602 53.5194 94.0102C52.9094 95.3502 52.1095 96.3102 51.1295 96.8802L29.1395 109.57C27.2295 110.68 25.5994 110.84 24.2394 110.07C22.8694 109.29 22.1895 107.8 22.1895 105.61V57.7501C22.1895 55.5501 22.8694 53.2801 24.2394 50.9401C25.5994 48.5901 27.2295 46.8602 29.1395 45.7602L64.7595 25.2001L71.7094 21.1801L84.7595 13.6502C86.4695 12.6502 87.9694 12.4201 89.2394 12.9501L89.6694 13.1602C91.0294 13.9302 91.7094 15.4201 91.7094 17.6101Z" stroke="#229EFF" stroke-linejoin="round"/><path d="M88.8295 50.7401C87.6695 50.3701 86.2595 50.6702 84.5895 51.6402C82.9095 52.6102 81.5895 53.8401 80.6295 55.3201C79.6795 56.8001 78.6195 58.5402 77.4595 60.5402C76.4595 59.9602 75.5595 59.5201 74.7695 59.1901L57.4595 50.5302C58.6195 48.5302 59.6795 46.8001 60.6295 45.3201C61.5895 43.8401 62.9095 42.6102 64.5895 41.6402C66.7295 40.4002 68.4495 40.2501 69.7595 41.2001L88.8295 50.7401Z" stroke="#229EFF" stroke-linejoin="round"/><path d="M89.2394 12.9499C87.9694 12.4199 86.4695 12.65 84.7595 13.65L71.7094 21.1799L64.7595 25.1999L29.1395 45.76C27.2295 46.86 25.5994 48.5899 24.2394 50.9399C22.8694 53.2799 22.1895 55.55 22.1895 57.75V105.61C22.1895 107.8 22.8694 109.29 24.2394 110.07L4.66943 100.28L4.23944 100.07C2.86944 99.2899 2.18945 97.8 2.18945 95.61V47.75C2.18945 45.55 2.86944 43.2799 4.23944 40.9399C5.59944 38.5899 7.22947 36.86 9.13947 35.76L64.7595 3.65C66.6695 2.54 68.3094 2.38001 69.6694 3.16001L89.2394 12.9499Z" stroke="#229EFF" stroke-linejoin="round"/><path d="M85.7594 39.1501L76.3594 34.4501L84.7594 29.6001V36.8801C84.7594 38.0101 85.0894 38.7701 85.7594 39.1501Z" stroke="#229EFF" stroke-linejoin="round"/><path d="M56.6294 62.3C56.2394 62.19 55.7694 62.3001 55.2094 62.6101L46.6794 67.5302L33.1694 75.3401L29.1394 77.67V61.7101L36.6294 57.3901L41.3594 54.6602L44.6894 56.3201L56.6294 62.3Z" stroke="#229EFF" stroke-linejoin="round"/><path d="M75.0294 82.2901L55.2194 72.3801L55.0294 72.2901L54.9294 72.23C55.5294 70.21 56.2595 68.2 57.1295 66.2C57.7595 64.83 57.8495 63.75 57.3895 62.96C57.2395 62.7 57.0494 62.5101 56.8394 62.4001L56.6295 62.3L44.6895 56.32C44.8495 55.99 45.0194 55.66 45.2094 55.32C46.5394 52.89 48.2495 51.0701 50.3295 49.8701C51.9595 48.9301 53.2294 48.63 54.1594 48.96C55.0394 49.27 56.0794 49.76 57.2794 50.44L57.4594 50.5301L74.7694 59.19C74.5594 59.11 74.3494 59.03 74.1594 58.96C73.2294 58.63 71.9595 58.9301 70.3295 59.8701C68.2495 61.0701 66.5394 62.89 65.2094 65.32C63.8694 67.75 63.2094 70.0301 63.2094 72.1601C63.2094 73.1601 63.3695 74.0601 63.6895 74.8701C64.0095 75.6901 64.5394 76.3101 65.2894 76.7401L75.0294 82.2901Z" stroke="#229EFF" stroke-linejoin="round"/></svg>