<svg width="24" height="24" viewBox="0 0 78 117" class="pr-icon-iso-duotone-secondary" xmlns="http://www.w3.org/2000/svg" stroke-width="1px" stroke-linecap="round" stroke-linejoin="round">
    <path d="M62.5998 47.22L57.0898 60.34L70.0998 52.8201C71.1798 52.2001 72.0998 52.0501 72.8598 52.3601L73.1098 52.4801C73.9298 52.9401 74.3297 53.8601 74.3297 55.2401C74.3297 56.6201 73.9298 58 73.1098 59.4C72.2998 60.8 71.2998 61.84 70.0998 62.53L62.7997 66.7501L53.1698 72.3101V82.02L70.0998 72.2401C71.1798 71.6201 72.0998 71.47 72.8598 71.78L73.1098 71.9C73.9298 72.36 74.3297 73.28 74.3297 74.66C74.3297 76.04 73.9298 77.4201 73.1098 78.8201C72.2998 80.2201 71.2998 81.26 70.0998 81.96L53.1698 91.7301V106.29C53.1698 107.67 52.7699 109.06 51.9599 110.46C51.1499 111.86 50.1398 112.9 48.9398 113.59C47.7398 114.28 46.7398 114.4 45.9298 113.94C45.1198 113.48 44.7099 112.56 44.7099 111.18V96.6101L29.1999 105.58L27.7897 106.39C26.5897 107.08 25.5797 107.19 24.7697 106.73C23.9597 106.27 23.5497 105.35 23.5497 103.97C23.5497 102.59 23.9399 101.28 24.7099 99.9201C24.7299 99.8801 24.7497 99.8501 24.7697 99.8101C25.5797 98.4101 26.5897 97.3701 27.7897 96.6701L33.1698 93.5601L44.7099 86.9V77.1901L35.6999 82.39L33.1698 83.8501L27.7897 86.96C26.5897 87.66 25.5797 87.7701 24.7697 87.3101C24.7497 87.3001 24.7299 87.29 24.7099 87.27C24.5299 87.16 24.3697 87.0301 24.2397 86.8801C23.7797 86.3601 23.5497 85.5801 23.5497 84.5501C23.5497 83.1801 23.9597 81.79 24.7697 80.39C25.3497 79.4 26.0197 78.58 26.7997 77.95C27.1097 77.68 27.4397 77.4501 27.7897 77.2501L40.7997 69.7401L39.6298 68.2901L34.2697 61.6801L23.4499 48.3201C22.6599 47.3801 22.5097 46.05 23.0097 44.33C23.0897 44.06 23.1797 43.7801 23.2897 43.4901C24.0997 41.3701 25.3497 39.81 27.0497 38.84C27.8197 38.39 28.5298 38.18 29.1598 38.22C29.3698 38.22 29.5596 38.27 29.7296 38.34L29.7697 38.3601C30.1197 38.4801 30.4098 38.7201 30.6398 39.0701L32.9897 41.97L38.0097 48.16L38.9198 49.28L44.2797 55.89L48.9398 61.64L56.2897 44.0701L67.2397 17.9301C67.5997 17.0001 68.0896 16.1501 68.7196 15.3801C69.3596 14.6101 70.0598 14.0001 70.8398 13.5501C71.8798 12.9501 72.7596 12.7601 73.4696 13.0001C73.9096 13.1501 74.2798 13.4601 74.5998 13.9301C75.4098 15.1601 75.3498 16.8501 74.4398 19.0001L62.5998 47.22Z" class="pr-icon-iso-duotone-primary-stroke" stroke-linejoin="round"/>
    <path d="M40.7998 69.7401L27.7898 77.2501C27.4398 77.4501 27.1098 77.68 26.7998 77.95C26.0198 78.58 25.3498 79.4 24.7698 80.39C23.9598 81.79 23.5498 83.18 23.5498 84.55C23.5498 85.58 23.7797 86.3601 24.2397 86.8801C24.3697 87.0301 24.53 87.16 24.71 87.27L24.0898 86.97L15.0798 82.46L5.01978 77.4301L4.76978 77.3101C3.95978 76.8501 3.5498 75.93 3.5498 74.55C3.5498 73.17 3.95978 71.79 4.76978 70.39C5.57978 68.99 6.58979 67.9501 7.78979 67.2501L20.7998 59.7401L33.1699 65.9301L38.8298 68.7501L40.7998 69.7401Z" class="pr-icon-iso-duotone-primary-stroke" stroke-linejoin="round"/>
    <path d="M24.7798 87.3101L24.7197 87.28C24.7197 87.28 24.7598 87.3001 24.7798 87.3101Z" class="pr-icon-iso-duotone-primary-stroke" stroke-linejoin="round"/>
    <path d="M73.7195 13.1201L73.4795 13.0001" class="pr-icon-iso-duotone-primary-stroke" stroke-linejoin="round"/>
    <path d="M73.48 13C72.77 12.76 71.8901 12.95 70.8501 13.55C70.0701 14 69.37 14.61 68.73 15.38C68.1 16.15 67.61 17 67.25 17.93L56.3 44.07L48.9502 61.64L44.29 55.89L38.9302 49.28L38.02 48.16L33 41.97L47.25 7.93003C47.61 7.00003 48.1 6.15004 48.73 5.38004C49.37 4.61004 50.0701 4.00003 50.8501 3.55003C52.0201 2.87003 52.98 2.72003 53.73 3.12003L53.8201 3.16001L53.8601 3.18003L73.48 13Z" class="pr-icon-iso-duotone-primary-stroke" stroke-linejoin="round"/>
    <path d="M72.8696 52.36C72.1096 52.05 71.1896 52.2001 70.1096 52.8201L57.0996 60.34L62.6096 47.22L72.8696 52.36Z" class="pr-icon-iso-duotone-primary-stroke" stroke-linejoin="round"/>
    <path d="M72.8696 71.78C72.1096 71.47 71.1896 71.6201 70.1096 72.2401L53.1797 82.02V72.3101L62.8096 66.7501L72.8696 71.78Z" class="pr-icon-iso-duotone-primary-stroke" stroke-linejoin="round"/>
    <path d="M45.9399 113.94L29.21 105.58L44.7197 96.61V111.18C44.7197 112.56 45.1299 113.48 45.9399 113.94Z" class="pr-icon-iso-duotone-primary-stroke" stroke-linejoin="round"/>
    <path d="M44.7197 77.1901V86.9L35.71 82.39L44.7197 77.1901Z" class="pr-icon-iso-duotone-primary-stroke" stroke-linejoin="round"/>
    <path d="M44.7195 86.9L33.1797 93.5601L27.7996 96.67C26.5996 97.37 25.5895 98.4101 24.7795 99.8101C24.7595 99.8501 24.7395 99.88 24.7195 99.92C23.9495 101.28 23.5596 102.64 23.5596 103.97C23.5596 105.3 23.9695 106.27 24.7795 106.73L5.02954 96.85L4.77954 96.73C3.96954 96.27 3.55957 95.35 3.55957 93.97C3.55957 92.59 3.96954 91.2101 4.77954 89.8101C5.58954 88.4101 6.59956 87.37 7.79956 86.67L15.0896 82.46L24.0996 86.97L24.7195 87.28L24.7795 87.3101C25.5895 87.7701 26.5996 87.66 27.7996 86.96L33.1797 83.85L35.7097 82.39L44.7195 86.9Z" class="pr-icon-iso-duotone-primary-stroke" stroke-linejoin="round"/>
    <path d="M40.7998 69.74L38.8299 68.75L33.1699 65.93L20.7998 59.74L3.44998 38.3201C2.52998 37.2301 2.47982 35.62 3.28982 33.49C4.09982 31.37 5.34983 29.81 7.04983 28.84C7.81983 28.39 8.52994 28.18 9.15994 28.22C9.47994 28.24 9.75979 28.32 10.0098 28.46L29.7298 38.34C29.5598 38.27 29.3699 38.23 29.1599 38.22C28.5299 38.18 27.8198 38.39 27.0498 38.84C25.3498 39.81 24.0998 41.37 23.2898 43.49C23.1798 43.78 23.0898 44.06 23.0098 44.33C22.5098 46.05 22.66 47.3801 23.45 48.3201L34.2698 61.68L39.6299 68.29L40.7998 69.74Z" class="pr-icon-iso-duotone-primary-stroke" stroke-linejoin="round"/>
</svg>