<svg width="48" height="48" viewBox="0 0 94 119" fill="#c8e7ff" xmlns="http://www.w3.org/2000/svg" stroke-width="1px" stroke-linecap="round" stroke-linejoin="round"><path d="M85.9302 13.3166L84.7601 12.7367C81.2501 11.2967 77.1201 11.9567 72.3501 14.7167C72.0701 14.8767 71.8002 15.0366 71.5302 15.2066C66.5702 18.2766 62.3201 22.8667 58.7701 28.9967C55.0301 35.4467 53.1602 41.7266 53.1602 47.8166C53.1602 47.9666 53.1602 48.1166 53.1702 48.2666C53.2502 54.1166 55.1201 58.0766 58.7701 60.1566C62.5101 62.2966 67.0401 61.8266 72.3501 58.7666C77.6601 55.6966 82.1902 50.9367 85.9302 44.4767C89.6702 38.0267 91.5402 31.7466 91.5402 25.6566C91.5402 19.5666 89.6702 15.4466 85.9302 13.3166ZM73.6901 48.5166C73.3101 49.1766 72.8601 49.6566 72.3501 49.9566C71.8401 50.2466 71.3901 50.2866 71.0101 50.0666C70.6201 49.8466 70.4302 49.4467 70.4302 48.8567C70.4302 48.2667 70.6201 47.6467 71.0101 46.9867C71.3901 46.3267 71.8401 45.8466 72.3501 45.5466C72.8601 45.2566 73.3101 45.2166 73.6901 45.4366C74.0801 45.6466 74.2701 46.0566 74.2701 46.6466C74.2701 47.2366 74.0801 47.8566 73.6901 48.5166ZM74.2701 37.8366C74.2701 38.4166 74.0801 39.0466 73.6901 39.7066C73.3101 40.3666 72.8601 40.8466 72.3501 41.1466C71.8401 41.4366 71.3901 41.4767 71.0101 41.2567C70.6201 41.0367 70.4302 40.6366 70.4302 40.0466V26.8366C70.4302 26.2466 70.6201 25.6166 71.0101 24.9566C71.3901 24.2966 71.8401 23.8166 72.3501 23.5266C72.8601 23.2266 73.3101 23.1866 73.6901 23.4066C74.0801 23.6266 74.2701 24.0267 74.2701 24.6167V37.8366Z" stroke="#229EFF" stroke-linejoin="round"/><path d="M74.2706 46.6467C74.2706 47.2267 74.0806 47.8567 73.6906 48.5167C73.3106 49.1767 72.8606 49.6568 72.3506 49.9568C71.8406 50.2468 71.3906 50.2868 71.0106 50.0668C70.6206 49.8468 70.4307 49.4468 70.4307 48.8568C70.4307 48.2668 70.6206 47.6468 71.0106 46.9868C71.3906 46.3268 71.8406 45.8468 72.3506 45.5468C72.8606 45.2568 73.3106 45.2168 73.6906 45.4368C74.0806 45.6468 74.2706 46.0567 74.2706 46.6467Z" stroke="#229EFF" stroke-linejoin="round"/><path d="M74.2706 24.6168V37.8368C74.2706 38.4168 74.0806 39.0468 73.6906 39.7068C73.3106 40.3668 72.8606 40.8467 72.3506 41.1467C71.8406 41.4367 71.3906 41.4768 71.0106 41.2568C70.6206 41.0368 70.4307 40.6367 70.4307 40.0467V26.8368C70.4307 26.2468 70.6206 25.6168 71.0106 24.9568C71.3906 24.2968 71.8406 23.8167 72.3506 23.5267C72.8606 23.2267 73.3106 23.1867 73.6906 23.4067C74.0806 23.6267 74.2706 24.0268 74.2706 24.6168Z" stroke="#229EFF" stroke-linejoin="round"/><path d="M68.5105 87.4067C68.5105 88.6567 68.1405 89.9167 67.4105 91.1867C66.6705 92.4567 65.7605 93.4067 64.6705 94.0267L26.2805 116.197C25.2005 116.827 24.2805 116.927 23.5505 116.507C22.8105 116.087 22.4404 115.257 22.4404 114.007C22.4404 112.757 22.8105 111.497 23.5505 110.227C24.2805 108.957 25.2005 108.017 26.2805 107.387L64.6705 85.2168C65.6505 84.6568 66.4905 84.5167 67.1805 84.7967L67.4105 84.9067C68.1405 85.3267 68.5105 86.1667 68.5105 87.4067Z" stroke="#229EFF" stroke-linejoin="round"/><path d="M84.7601 12.7367C81.2501 11.2967 77.1201 11.9567 72.3501 14.7167C72.0701 14.8767 71.8002 15.0367 71.5302 15.2067C66.5702 18.2767 62.3201 22.8667 58.7701 28.9967C55.0301 35.4467 53.1602 41.7267 53.1602 47.8167C53.1602 47.9667 53.1602 48.1166 53.1702 48.2666C53.2502 54.1166 55.1201 58.0766 58.7701 60.1566L38.7701 50.1566C35.0301 48.0266 33.1602 43.9167 33.1602 37.8167C33.1602 31.7167 35.0301 25.4467 38.7701 18.9967C42.5101 12.5367 47.0401 7.77668 52.3501 4.71668C57.6601 1.64668 62.1902 1.17666 65.9302 3.31666L84.7601 12.7367Z" stroke="#229EFF" stroke-linejoin="round"/><path d="M59.2205 71.7764C58.5205 71.4964 57.6804 71.6364 56.7104 72.1964L49.8805 76.1365L48.4905 76.9464L26.2805 89.7664C25.2005 90.3964 24.2805 91.3364 23.5505 92.6064C22.8105 93.8764 22.4404 95.1365 22.4404 96.3865C22.4404 96.5465 22.4504 96.7064 22.4604 96.8564C22.5404 97.8464 22.9105 98.5265 23.5505 98.8865L21.0804 97.6464L12.9005 93.5664L3.77051 88.9965L3.55054 88.8865C2.81054 88.4665 2.44043 87.6365 2.44043 86.3865C2.44043 85.1365 2.81054 83.8764 3.55054 82.6064C4.28054 81.3364 5.20052 80.3964 6.28052 79.7664L12.9005 75.9464L21.0804 80.0264L23.5505 81.2664C24.2805 81.6864 25.2005 81.5864 26.2805 80.9564L44.2305 70.5964C45.3205 69.9664 46.2304 68.9964 46.9604 67.6964C47.2804 67.1264 47.5304 66.5664 47.7104 66.0264L59.2205 71.7764Z" stroke="#229EFF" stroke-linejoin="round"/><path d="M46.7405 61.3566C46.0505 61.0766 45.2105 61.2165 44.2305 61.7865L41.9105 63.1266L40.5305 63.9265L26.2805 72.1465C25.2005 72.7765 24.2805 73.7166 23.5505 74.9866C22.8105 76.2566 22.4404 77.5165 22.4404 78.7665C22.4404 78.9265 22.4504 79.0866 22.4604 79.2366C22.5404 80.2266 22.9105 80.9065 23.5505 81.2665L21.0804 80.0265L12.9005 75.9466L3.77051 71.3766L3.55054 71.2665C2.81054 70.8465 2.44043 70.0165 2.44043 68.7665C2.44043 67.5165 2.81054 66.2566 3.55054 64.9866C4.28054 63.7166 5.20052 62.7765 6.28052 62.1465L24.2305 51.7865C25.3205 51.1565 26.2304 51.0466 26.9604 51.4666L46.7405 61.3566Z" stroke="#229EFF" stroke-linejoin="round"/><path d="M67.1805 84.7965C66.4905 84.5165 65.6505 84.6566 64.6705 85.2166L26.2805 107.387C25.2005 108.017 24.2805 108.957 23.5505 110.227C22.8105 111.497 22.4404 112.757 22.4404 114.007C22.4404 115.257 22.8105 116.087 23.5505 116.507L3.77051 106.617L3.55054 106.507C2.81054 106.087 2.44043 105.257 2.44043 104.007C2.44043 102.757 2.81054 101.497 3.55054 100.227C4.28054 98.9566 5.20052 98.0166 6.28052 97.3866L12.9005 93.5665L21.0804 97.6465L23.5505 98.8866C24.2805 99.3066 25.2005 99.2065 26.2805 98.5765L56.7104 81.0066C57.1304 80.7666 57.5305 80.4765 57.8905 80.1465L67.1805 84.7965Z" stroke="#229EFF" stroke-linejoin="round"/><path d="M48.0704 63.9664C48.0704 64.6364 47.9504 65.3164 47.7104 66.0264C47.5304 66.5664 47.2804 67.1264 46.9604 67.6964C46.2304 68.9964 45.3205 69.9664 44.2305 70.5964L26.2805 80.9564C25.2005 81.5864 24.2805 81.6864 23.5505 81.2664C22.9105 80.9064 22.5404 80.2265 22.4604 79.2365C22.4504 79.0865 22.4404 78.9264 22.4404 78.7664C22.4404 77.5164 22.8105 76.2565 23.5505 74.9865C24.2805 73.7165 25.2005 72.7764 26.2805 72.1464L40.5305 63.9264L41.9105 63.1265L44.2305 61.7864C45.2105 61.2164 46.0505 61.0764 46.7405 61.3564L46.9604 61.4664C47.7004 61.8864 48.0704 62.7264 48.0704 63.9664Z" stroke="#229EFF" stroke-linejoin="round"/><path d="M60.5505 74.3868C60.5505 75.5668 60.1905 76.7968 59.4905 78.0768C59.0505 78.8868 58.5105 79.5867 57.8905 80.1467C57.5305 80.4767 57.1304 80.7668 56.7104 81.0068L26.2805 98.5768C25.2005 99.2068 24.2805 99.3068 23.5505 98.8868C22.9105 98.5268 22.5404 97.8468 22.4604 96.8568C22.4504 96.7068 22.4404 96.5468 22.4404 96.3868C22.4404 95.1368 22.8105 93.8768 23.5505 92.6068C24.2805 91.3368 25.2005 90.3967 26.2805 89.7667L48.4905 76.9468L49.8805 76.1368L56.7104 72.1968C57.6804 71.6368 58.5205 71.4967 59.2205 71.7767L59.4404 71.8868C60.1804 72.3068 60.5505 73.1368 60.5505 74.3868Z" stroke="#229EFF" stroke-linejoin="round"/></svg>