<svg width="48" height="48" viewBox="0 0 99 121" class="pr-icon-iso-duotone-secondary"
     xmlns="http://www.w3.org/2000/svg" stroke-width="1px" stroke-linecap="round" stroke-linejoin="round">
    <path d="M72.3405 12.2275L73.0105 12.5675C72.8005 12.4075 72.5805 12.2875 72.3405 12.2275ZM47.1005 60.9675L46.8905 60.8676C46.8905 60.8676 46.8105 60.8375 46.7705 60.8375L47.2805 61.0875C47.2205 61.0475 47.1605 61.0075 47.1005 60.9675Z" class="pr-icon-iso-duotone-primary-stroke" stroke-linejoin="round"/>
    <path d="M93.8709 35.2277C92.4209 34.4077 90.6909 34.5876 88.6609 35.7576L76.0309 43.0476L73.9309 44.2576C73.4409 44.5376 72.9709 44.9176 72.5109 45.3976C72.0509 45.8776 71.6509 46.4077 71.3109 46.9877C70.9709 47.5677 70.7109 48.1776 70.5309 48.8076C70.3409 49.4476 70.2509 50.0477 70.2509 50.6077V54.8377C70.2509 58.3577 69.1809 61.9676 67.0309 65.6776C64.8809 69.3776 62.2709 72.1176 59.2009 73.8876C56.1409 75.6576 53.5309 75.9377 51.3809 74.7077C49.2309 73.4877 48.1609 71.1177 48.1609 67.5877V63.3677C48.1609 62.7977 48.0609 62.3076 47.8809 61.8876C47.7309 61.5476 47.5309 61.2777 47.2809 61.0877L46.7709 60.8377H46.7509C46.4909 60.7477 46.2109 60.7276 45.9009 60.7576C45.4409 60.8176 44.9709 60.9876 44.4709 61.2676L29.7409 69.7676C27.7209 70.9376 25.9809 72.7676 24.5409 75.2576C23.2409 77.4976 22.5309 79.6676 22.4009 81.7776C22.3909 82.0176 22.3809 82.2477 22.3809 82.4777V116.278C22.3809 117.478 22.7309 118.278 23.4409 118.678C24.1409 119.078 25.0209 118.978 26.0609 118.378L92.3509 80.1077C93.3909 79.5077 94.2709 78.5977 94.9709 77.3777C95.6809 76.1577 96.0309 74.9576 96.0309 73.7576V39.9477C96.0309 37.6277 95.3109 36.0577 93.8709 35.2277ZM34.2109 89.5376C33.6909 89.2376 33.4309 88.6277 33.4309 87.7177C33.4309 86.8077 33.6909 85.8977 34.2109 84.9977C34.7309 84.0977 35.3909 83.4177 36.1909 82.9577C36.9909 82.4877 37.6509 82.4077 38.1709 82.7077C38.6909 83.0077 38.9509 83.6076 38.9509 84.5276C38.9509 85.4476 38.6909 86.3477 38.1709 87.2477C37.6509 88.1477 36.9909 88.8276 36.1909 89.2876C35.3909 89.7476 34.7309 89.8376 34.2109 89.5376ZM41.8509 95.6876C41.3309 96.5876 40.6709 97.2677 39.8709 97.7277C39.0709 98.1877 38.4109 98.2677 37.8909 97.9777C37.3709 97.6777 37.1109 97.0676 37.1109 96.1576C37.1109 95.2476 37.3709 94.3276 37.8909 93.4276C38.4109 92.5276 39.0709 91.8476 39.8709 91.3876C40.6709 90.9276 41.3309 90.8476 41.8509 91.1476C42.3709 91.4476 42.6309 92.0477 42.6309 92.9677C42.6309 93.8877 42.3709 94.7876 41.8509 95.6876ZM84.2009 60.6776C83.6809 61.5776 83.0209 62.2577 82.2209 62.7177C81.4209 63.1777 80.7609 63.2577 80.2409 62.9577C79.7209 62.6577 79.4609 62.0576 79.4609 61.1376C79.4609 60.2176 79.7209 59.3176 80.2409 58.4176C80.7609 57.5176 81.4209 56.8377 82.2209 56.3777C83.0209 55.9177 83.6809 55.8377 84.2009 56.1277C84.7209 56.4277 84.9809 57.0377 84.9809 57.9477C84.9809 58.8577 84.7209 59.7776 84.2009 60.6776Z" class="pr-icon-iso-duotone-primary-stroke" stroke-linejoin="round"/>
    <path d="M84.981 57.9469C84.981 58.8669 84.7209 59.7768 84.2009 60.6768C83.6809 61.5768 83.0209 62.2569 82.2209 62.7169C81.4209 63.1769 80.761 63.2569 80.241 62.9569C79.721 62.6569 79.4609 62.0568 79.4609 61.1368C79.4609 60.2168 79.721 59.3168 80.241 58.4168C80.761 57.5168 81.4209 56.8369 82.2209 56.3769C83.0209 55.9169 83.6809 55.8369 84.2009 56.1269C84.7209 56.4269 84.981 57.0369 84.981 57.9469Z" class="pr-icon-iso-duotone-primary-stroke" stroke-linejoin="round"/>
    <path d="M42.6313 92.9674C42.6313 93.8774 42.3713 94.7874 41.8513 95.6874C41.3313 96.5874 40.6713 97.2674 39.8713 97.7274C39.0713 98.1874 38.4113 98.2674 37.8913 97.9774C37.3713 97.6774 37.1113 97.0674 37.1113 96.1574C37.1113 95.2474 37.3713 94.3274 37.8913 93.4274C38.4113 92.5274 39.0713 91.8474 39.8713 91.3874C40.6713 90.9274 41.3313 90.8474 41.8513 91.1474C42.3713 91.4474 42.6313 92.0474 42.6313 92.9674Z" class="pr-icon-iso-duotone-primary-stroke" stroke-linejoin="round"/>
    <path d="M73.8905 15.1275C73.8005 16.3075 73.3505 17.5175 72.5505 18.7475C71.0505 21.0775 69.7405 23.4174 68.6405 25.7674C66.5705 30.1374 65.2005 34.5574 64.5005 39.0374C64.1305 41.3674 63.8305 43.6774 63.6005 45.9574C63.3805 48.0174 63.2105 50.0574 63.0905 52.0774C62.9605 54.4374 62.8905 56.7774 62.8905 59.0874C62.8905 60.2874 62.5305 61.4874 61.8305 62.7074C61.1205 63.9274 60.2505 64.8374 59.2005 65.4374C58.1605 66.0374 57.2905 66.1375 56.5805 65.7375C55.8705 65.3375 55.5205 64.5374 55.5205 63.3374C55.5205 55.6574 56.2905 47.6474 57.8205 39.2974C58.3505 36.4074 59.1005 33.5475 60.0705 30.7175C61.8905 25.3775 64.4905 20.1374 67.8605 15.0174C68.6605 13.7774 69.5505 12.9275 70.5305 12.4675C71.2105 12.1475 71.8105 12.0675 72.3405 12.2275L73.0105 12.5674C73.6905 13.0974 73.9805 13.9475 73.8905 15.1275Z" class="pr-icon-iso-duotone-primary-stroke" stroke-linejoin="round"/>
    <path d="M47.1005 60.9666L46.8904 60.8666L44.3005 59.5665V59.5865L46.7604 60.8265H46.7805L47.2905 61.0865C47.2305 61.0465 47.1705 61.0066 47.1105 60.9666H47.1005ZM36.5905 55.7166L36.4404 55.6465C36.4404 55.6465 36.5304 55.7066 36.5804 55.7366C36.6104 55.7466 36.6305 55.7665 36.6605 55.7765L36.7805 55.8365C36.7805 55.8365 36.8705 55.8666 36.9105 55.8766L36.5905 55.7166Z" class="pr-icon-iso-duotone-primary-stroke" stroke-linejoin="round"/>
    <path d="M38.9506 84.5272C38.9506 85.4472 38.6907 86.3473 38.1707 87.2473C37.6507 88.1473 36.9906 88.8273 36.1906 89.2873C35.3906 89.7473 34.7306 89.8373 34.2106 89.5373C33.6906 89.2373 33.4307 88.6273 33.4307 87.7173C33.4307 86.8073 33.6906 85.8973 34.2106 84.9973C34.7306 84.0973 35.3906 83.4173 36.1906 82.9573C36.9906 82.4873 37.6507 82.4073 38.1707 82.7073C38.6907 83.0073 38.9506 83.6072 38.9506 84.5272Z" class="pr-icon-iso-duotone-primary-stroke" stroke-linejoin="round"/>
    <path d="M93.8703 35.227C92.4203 34.407 90.6903 34.5869 88.6603 35.7569L76.0303 43.0469L73.9303 44.2569C73.4403 44.5369 72.9703 44.9169 72.5103 45.3969C72.0503 45.8769 71.6502 46.407 71.3102 46.987C70.9702 47.567 70.7103 48.1769 70.5303 48.8069C70.3403 49.4469 70.2502 50.047 70.2502 50.607V54.837C70.2502 58.357 69.1803 61.9669 67.0303 65.6769C64.8803 69.3769 62.2703 72.1169 59.2003 73.8869C56.1403 75.6569 53.5302 75.937 51.3802 74.707C49.2302 73.487 48.1603 71.117 48.1603 67.587V63.367C48.1603 62.797 48.0602 62.3069 47.8802 61.8869C47.7302 61.5469 47.5303 61.277 47.2803 61.087L56.5803 65.737C57.2903 66.137 58.1603 66.0369 59.2003 65.4369C60.2503 64.8369 61.1203 63.927 61.8303 62.707C62.5303 61.487 62.8903 60.287 62.8903 59.087C62.8903 56.777 62.9603 54.437 63.0903 52.077C63.2103 50.057 63.3803 48.017 63.6003 45.957C63.8303 43.677 64.1302 41.3669 64.5002 39.0369C65.2002 34.5569 66.5703 30.1369 68.6403 25.7669H68.6603C70.6903 24.5869 72.4203 24.407 73.8703 25.227L93.8703 35.227Z" class="pr-icon-iso-duotone-primary-stroke" stroke-linejoin="round"/>
    <path d="M46.7509 60.8279C46.4909 60.7479 46.2109 60.7278 45.9009 60.7578C45.4409 60.8178 44.9709 60.9878 44.4709 61.2678L29.7409 69.7678C27.7209 70.9378 25.9809 72.7678 24.5409 75.2578C23.2409 77.4978 22.5309 79.6678 22.4009 81.7778C22.3909 82.0178 22.3809 82.2479 22.3809 82.4779V116.278C22.3809 117.478 22.7309 118.278 23.4409 118.678L3.44086 108.678C2.73086 108.278 2.38086 107.478 2.38086 106.278V72.4779C2.38086 70.1479 3.10089 67.7478 4.54089 65.2578C5.98089 62.7678 7.72091 60.9378 9.74091 59.7678L24.4709 51.2678C24.9709 50.9878 25.4409 50.8178 25.9009 50.7578C26.3609 50.7078 26.7609 50.7779 27.1009 50.9679L36.4409 55.6478C36.4409 55.6478 36.5309 55.7079 36.5809 55.7379C36.6109 55.7479 36.6309 55.7678 36.6609 55.7778L36.7809 55.8379L44.2909 59.5879L46.7509 60.8279Z" class="pr-icon-iso-duotone-primary-stroke" stroke-linejoin="round"/>
    <path d="M72.3405 12.2274C71.8105 12.0674 71.2105 12.1474 70.5305 12.4674C69.5505 12.9274 68.6605 13.7773 67.8605 15.0173C64.4905 20.1373 61.8905 25.3774 60.0705 30.7174C59.1005 33.5474 58.3505 36.4073 57.8205 39.2973C56.2905 47.6473 55.5205 55.6574 55.5205 63.3374C55.5205 64.5374 55.8705 65.3374 56.5805 65.7374L47.2805 61.0874C47.2205 61.0474 47.1605 61.0074 47.1005 60.9674L46.8905 60.8674L44.3005 59.5674L36.9105 55.8774L36.5905 55.7174L36.4405 55.6473C35.8205 55.2273 35.5205 54.4574 35.5205 53.3374C35.5205 45.6574 36.2905 37.6474 37.8205 29.2973C39.3605 20.9473 42.7005 12.8473 47.8605 5.01732C48.6605 3.77732 49.5505 2.92739 50.5305 2.46739C51.5105 2.00739 52.3405 2.03737 53.0105 2.56737L72.3405 12.2274Z" class="pr-icon-iso-duotone-primary-stroke" stroke-linejoin="round"/>
</svg>