<svg width="24" height="24" viewBox="0 0 99 111" class="pr-icon-iso-duotone-secondary" xmlns="http://www.w3.org/2000/svg" stroke-width="1px" stroke-linecap="round" stroke-linejoin="round">
    <path d="M96.5895 48.9401C95.0295 58.0801 91.6495 67.0701 86.4695 75.9001C81.2895 84.7301 75.1096 92.0801 67.9296 97.9501C66.8696 98.8501 65.9096 99.1301 65.0696 98.7901L64.7695 98.6401C64.1295 98.2401 63.8096 97.4801 63.8096 96.3501V71.3101C63.8096 71.0201 63.8696 70.7401 63.9896 70.4501C64.1196 70.1601 64.3096 69.8701 64.5596 69.5901C65.7996 68.2201 66.9296 66.6801 67.9296 64.9501C68.9296 63.2301 69.7095 61.4901 70.2695 59.7301C70.3295 59.5501 70.6696 59.0701 71.2996 58.2801L93.0295 45.7301C93.7495 45.3101 94.3895 45.1601 94.9595 45.2801C95.0395 45.2901 95.1196 45.3201 95.1896 45.3401L95.2795 45.3801C95.4795 45.4501 95.6595 45.5701 95.8395 45.7201C96.5895 46.3601 96.8395 47.4401 96.5895 48.9401Z" class="pr-icon-iso-duotone-primary-stroke" stroke-linejoin="round"/>
    <path d="M95.9796 33.9801C95.2596 35.3601 94.2795 36.4101 93.0295 37.1401L86.4396 40.9401L86.3696 40.9801L74.4695 47.8501L71.3895 49.6301C71.1395 49.7701 70.9196 49.8201 70.7396 49.7901C70.6996 49.7801 70.6596 49.7701 70.6196 49.7501L70.5096 49.6901C70.4196 49.6301 70.3395 49.5401 70.2695 49.4201C69.7095 48.2401 68.9296 47.3401 67.9296 46.7401C66.9296 46.1301 65.7996 45.8701 64.5596 45.9401C64.3096 45.9401 64.1196 45.8901 63.9896 45.7801C63.9396 45.7401 63.8996 45.6701 63.8696 45.5901C63.8296 45.4901 63.8096 45.3501 63.8096 45.1901V20.6901C63.8096 19.2601 64.2795 17.8401 65.2095 16.4401C66.1495 15.0401 67.2095 14.1401 68.3995 13.7401C70.3395 13.1201 72.1996 12.7001 73.9896 12.4601C77.8596 11.9601 81.3796 12.3601 84.5396 13.6601L84.5895 13.6801C84.7795 13.7601 84.9695 13.8401 85.1495 13.9201L85.2695 13.9801C85.7895 14.2201 86.2996 14.4901 86.7996 14.7801C91.8896 17.7501 95.1796 22.9201 96.6796 30.3001C96.9296 31.3701 96.6996 32.6001 95.9796 33.9801Z" class="pr-icon-iso-duotone-primary-stroke" stroke-linejoin="round"/>
    <path d="M49.8496 71.8101C50.0896 72.2601 50.3696 72.6601 50.6896 73.0201C51.9396 74.4101 53.6296 75.0001 55.7496 74.7801C55.7796 74.7801 55.8196 74.7901 55.8596 74.8101L49.8496 71.8101Z" class="pr-icon-iso-duotone-primary-stroke" stroke-linejoin="round"/>
    <path d="M85.1495 13.9201C84.9695 13.8401 84.7795 13.7601 84.5895 13.6801L84.5396 13.6601C81.3796 12.3601 77.8596 11.9601 73.9896 12.4601C72.1996 12.7001 70.3395 13.1201 68.3995 13.7401C67.2095 14.1401 66.1495 15.0401 65.2095 16.4401C64.2795 17.8401 63.8096 19.2601 63.8096 20.6901V45.1901C63.8096 45.3501 63.8296 45.4901 63.8696 45.5901C63.8996 45.6701 63.9396 45.7401 63.9896 45.7801L59.4996 43.5401L56.3096 41.9401V25.4501C56.3096 23.9401 55.8096 22.9901 54.8196 22.6001L43.8096 17.1001V10.6901C43.8096 9.26006 44.2795 7.84006 45.2095 6.44006C46.1495 5.04006 47.2095 4.14006 48.3995 3.74006C55.0695 1.62006 60.8396 1.77006 65.6996 4.19006L85.1495 13.9201Z" class="pr-icon-iso-duotone-primary-stroke" stroke-linejoin="round"/>
    <path d="M65.6997 4.19006L65.3896 4.03006" class="pr-icon-iso-duotone-primary-stroke" stroke-linejoin="round"/>
    <path d="M54.8196 22.6001C53.8196 22.2101 52.6896 22.5601 51.4396 23.6401C48.7396 25.9401 46.1996 28.4301 43.8096 31.1101C38.7796 36.7401 34.4296 43.2401 30.7496 50.5801C30.1496 51.7801 29.5796 52.9801 29.0396 54.1801C24.7396 63.7501 22.5996 73.05 22.5996 82.1C22.5996 88.74 23.7496 94.1901 26.0796 98.4601C27.2996 100.73 28.8596 102.66 30.7496 104.26C31.6996 105.06 32.6896 105.76 33.7296 106.34L33.8096 106.38C38.6996 109.1 44.5796 109.39 51.4396 107.25C52.6896 106.89 53.8196 105.93 54.8196 104.39C55.8096 102.84 56.3096 101.32 56.3096 99.8101V75.3101C56.1196 75.0401 55.9696 74.8801 55.8596 74.8101C55.8196 74.7901 55.7796 74.7801 55.7496 74.7801C53.6296 75.0001 51.9396 74.4101 50.6896 73.0201C50.3696 72.6601 50.0896 72.2601 49.8496 71.8101C49.1696 70.5401 48.8196 68.9201 48.8196 66.9601C48.8196 64.3101 49.4496 61.5301 50.6896 58.6201C51.9396 55.7101 53.6296 53.1501 55.7496 50.9201C56.1296 50.2001 56.3096 49.8101 56.3096 49.7301V25.4501C56.3096 23.9401 55.8096 22.9901 54.8196 22.6001Z" class="pr-icon-iso-duotone-primary-stroke" stroke-linejoin="round"/>
    <path d="M54.8196 22.6001C53.8196 22.2101 52.6896 22.5601 51.4396 23.6401C48.7396 25.9401 46.1996 28.4301 43.8096 31.1101C38.7796 36.7401 34.4296 43.2401 30.7496 50.5801C30.1496 51.7801 29.5796 52.9801 29.0396 54.1801C24.7396 63.7501 22.5996 73.0501 22.5996 82.1001C22.5996 88.7401 23.7496 94.1901 26.0796 98.4601C27.2996 100.73 28.8596 102.66 30.7496 104.26C31.6996 105.06 32.6896 105.76 33.7296 106.34L15.2596 97.1101C13.6596 96.4001 12.1596 95.4501 10.7496 94.2601C5.30963 89.6601 2.59961 82.2701 2.59961 72.1001C2.59961 61.9301 5.30963 51.4201 10.7496 40.5801C16.1796 29.7401 23.0796 20.7601 31.4396 13.6401C32.6896 12.5601 33.8196 12.2101 34.8196 12.6001L35.2296 12.8001L43.8096 17.1001L54.8196 22.6001Z" class="pr-icon-iso-duotone-primary-stroke" stroke-linejoin="round"/>
    <path d="M95.1893 45.3401C95.1193 45.3201 95.0393 45.2901 94.9593 45.2801C94.3893 45.1601 93.7493 45.3101 93.0293 45.7301L71.2993 58.2801C70.6693 59.0701 70.3293 59.5501 70.2693 59.7301C69.7093 61.4901 68.9293 63.2301 67.9293 64.9501C66.9293 66.6801 65.7993 68.2201 64.5593 69.5901C64.3093 69.8701 64.1193 70.1601 63.9893 70.4501C63.8693 70.7401 63.8093 71.0201 63.8093 71.3101V96.3501C63.8093 97.4801 64.1293 98.2401 64.7693 98.6401L56.3093 94.41V75.3101C56.1193 75.0401 55.9693 74.8801 55.8593 74.8101L49.8493 71.8101C49.1693 70.5401 48.8193 68.9201 48.8193 66.9601C48.8193 64.3101 49.4493 61.5301 50.6893 58.6201C51.9393 55.7101 53.6293 53.1501 55.7493 50.9201C56.1293 50.2001 56.3093 49.8101 56.3093 49.7301V45.3901L58.8993 43.8901L70.5093 49.6901L70.6193 49.7501C70.6193 49.7501 70.6993 49.7801 70.7393 49.7901C70.9193 49.8201 71.1393 49.7701 71.3893 49.6301L74.4693 47.8501L86.3693 40.9801L86.4393 40.9401L95.1893 45.3401Z" class="pr-icon-iso-duotone-primary-stroke" stroke-linejoin="round"/>
    <path d="M70.5096 49.6901L58.8995 43.8901L56.3096 42.6001V41.9401L59.4996 43.5401L63.9896 45.7801C64.1196 45.8901 64.3096 45.9401 64.5596 45.9401C65.7996 45.8701 66.9296 46.1301 67.9296 46.7401C68.9296 47.3401 69.7095 48.2401 70.2695 49.4201C70.3395 49.5401 70.4196 49.6301 70.5096 49.6901Z" class="pr-icon-iso-duotone-primary-stroke" stroke-linejoin="round"/>
    <path d="M95.2794 45.3801L95.1895 45.3401" class="pr-icon-iso-duotone-primary-stroke" stroke-linejoin="round"/>
</svg>