<svg width="24" height="24" viewBox="0 0 111 116" class="pr-icon-iso-duotone-secondary" xmlns="http://www.w3.org/2000/svg" stroke-width="1px" stroke-linecap="round" stroke-linejoin="round">
    <path d="M108.85 37.8C108.85 38.49 108.76 39.2 108.57 39.91C108.38 40.62 108.06 41.37 107.61 42.15L94.72 64.38C93.82 65.94 92.7599 67.05 91.5599 67.7C90.3499 68.35 89.29 68.42 88.39 67.91C87.49 67.39 87.0299 66.42 87.0299 64.99C87.0299 63.56 87.49 62.07 88.39 60.51L93.36 51.93L76.22 61.83L70.0699 65.38V91.97L74.9399 83.46C75.8399 81.9 76.93 80.75 78.22 80.01C79.37 79.35 80.36 79.19 81.21 79.53L81.49 79.67C82.4 80.19 82.85 81.18 82.85 82.65C82.85 84.12 82.4 85.64 81.49 87.2L68.72 109.23C68.27 110.01 67.78 110.66 67.25 111.18C66.72 111.71 66.1599 112.14 65.5499 112.49C64.9499 112.84 64.38 113.05 63.86 113.14C63.33 113.23 62.84 113.15 62.39 112.89L49.5 105.54C48.59 105.02 48.16 104.04 48.2 102.59C48.24 101.14 48.71 99.64 49.61 98.08C50.52 96.52 51.59 95.38 52.83 94.66C53.95 94.02 54.93 93.87 55.77 94.22L56.0599 94.36L61.0299 97.33V70.6L54.38 74.44L50.0699 76.93L41.0299 82.14L37.85 83.98L41.0299 85.71L42.83 86.69C43.43 87.03 43.82 87.58 44.02 88.34C44.13 88.73 44.1799 89.17 44.1799 89.67C44.1799 91.14 43.73 92.65 42.83 94.21C41.92 95.77 40.8299 96.92 39.5499 97.66C38.2699 98.4 37.17 98.51 36.27 98L28.24 93.42L23.49 90.71C23.04 90.46 22.7199 90.08 22.5299 89.58C22.3499 89.09 22.25 88.49 22.25 87.8C22.25 87.11 22.3499 86.41 22.5299 85.69C22.7199 84.98 23.04 84.23 23.49 83.45L34.58 64.32L36.27 61.41C37.17 59.85 38.25 58.71 39.49 58C40.61 57.35 41.5899 57.21 42.4299 57.55L42.71 57.69C43.62 58.21 44.0699 59.18 44.0699 60.61C44.0699 62.04 43.62 63.53 42.71 65.09L41.0299 67.99L37.74 73.67L41.0299 71.77L50.0699 66.55L61.0299 60.22V33.5L56.51 41.28L55.9399 42.27C55.0399 43.83 53.9799 44.94 52.7799 45.59C51.5699 46.24 50.52 46.31 49.61 45.8C48.71 45.28 48.25 44.31 48.25 42.88C48.25 41.45 48.71 39.96 49.61 38.4L50.0699 37.61L62.39 16.37C62.84 15.59 63.33 14.94 63.86 14.42C64.38 13.89 64.9499 13.46 65.5499 13.11C66.1599 12.76 66.72 12.55 67.25 12.46C67.67 12.39 68.0699 12.42 68.4399 12.57L68.72 12.71L81.61 20.06C82.18 20.39 82.5699 20.89 82.7799 21.57C82.8399 21.77 82.8899 21.98 82.9099 22.21C82.9499 22.43 82.96 22.66 82.96 22.91C82.96 24.29 82.51 25.77 81.61 27.33C80.7 28.89 79.63 30.02 78.38 30.74C77.14 31.46 76.0699 31.56 75.1599 31.05L70.0699 28.27V55L76.52 51.28L93.25 41.62L88.2799 38.91C87.3699 38.4 86.9199 37.4 86.9199 35.93C86.9199 34.46 87.3699 32.95 88.2799 31.39C89.1799 29.83 90.2699 28.68 91.5599 27.94C92.7099 27.28 93.6999 27.12 94.5499 27.46L94.83 27.6L107.61 34.89C108.06 35.14 108.38 35.52 108.57 36.02C108.76 36.51 108.85 37.11 108.85 37.8Z" class="pr-icon-iso-duotone-primary-stroke" stroke-linejoin="round"/>
    <path d="M61.0303 33.5V60.22L50.6603 55.04L41.0303 50.22V41.51L49.6104 45.8C50.5204 46.31 51.5703 46.24 52.7803 45.59C53.9803 44.94 55.0403 43.83 55.9403 42.27L56.5104 41.28L61.0303 33.5Z" class="pr-icon-iso-duotone-primary-stroke" stroke-linejoin="round"/>
    <path d="M68.4399 12.57C68.0699 12.42 67.67 12.3901 67.25 12.4601C66.72 12.5501 66.1599 12.76 65.5499 13.11C64.9499 13.46 64.38 13.89 63.86 14.42C63.33 14.94 62.84 15.59 62.39 16.37L50.0699 37.61L49.61 38.4001C48.71 39.9601 48.25 41.46 48.25 42.88C48.25 44.3 48.71 45.28 49.61 45.8L41.0299 41.51L29.9199 35.95L29.61 35.8C28.71 35.28 28.25 34.31 28.25 32.88C28.25 31.45 28.71 29.9601 29.61 28.4001L42.39 6.37002C42.84 5.59002 43.33 4.94001 43.86 4.42001C44.38 3.89001 44.9499 3.46001 45.5499 3.11001C46.1599 2.76001 46.72 2.55005 47.25 2.46005C47.78 2.37005 48.27 2.45005 48.72 2.71005L68.4399 12.57Z" class="pr-icon-iso-duotone-primary-stroke" stroke-linejoin="round"/>
    <path d="M93.2504 41.62L76.5204 51.28L70.0703 55V33.46L73.2504 31.62L84.6204 37.31L93.2504 41.62Z" class="pr-icon-iso-duotone-primary-stroke" stroke-linejoin="round"/>
    <path d="M88.2803 31.39C87.3703 32.95 86.9203 34.46 86.9203 35.93C86.9203 37.4 87.3703 38.4 88.2803 38.91L93.2504 41.62L84.6204 37.31L73.2504 31.62L70.0703 29.89V28.27L75.1603 31.05C76.0703 31.56 77.1404 31.46 78.3804 30.74C79.6304 30.02 80.7004 28.89 81.6104 27.33C82.5104 25.77 82.9603 24.29 82.9603 22.91C82.9603 22.66 82.9503 22.43 82.9103 22.21C82.8903 21.98 82.8403 21.77 82.7803 21.57L94.5503 27.46C93.7003 27.12 92.7103 27.28 91.5603 27.94C90.2703 28.68 89.1803 29.83 88.2803 31.39Z" class="pr-icon-iso-duotone-primary-stroke" stroke-linejoin="round"/>
    <path d="M88.3898 60.51C87.4898 62.07 87.0297 63.57 87.0297 64.99C87.0297 66.41 87.4898 67.39 88.3898 67.91L76.2197 61.83L93.3597 51.93L88.3898 60.51Z" class="pr-icon-iso-duotone-primary-stroke" stroke-linejoin="round"/>
    <path d="M81.2103 79.53C80.3603 79.19 79.3703 79.35 78.2203 80.01C76.9303 80.75 75.8403 81.9 74.9403 83.46L70.0703 91.97V73.96L81.2103 79.53Z" class="pr-icon-iso-duotone-primary-stroke" stroke-linejoin="round"/>
    <path d="M62.3904 112.89L42.6703 103.03L42.3904 102.89L29.5004 95.54C28.9404 95.22 28.5604 94.72 28.3604 94.05L36.2704 98C37.1704 98.51 38.2703 98.4 39.5503 97.66C40.8303 96.92 41.9203 95.77 42.8303 94.21C43.7303 92.65 44.1803 91.14 44.1803 89.67C44.1803 89.17 44.1304 88.73 44.0204 88.34L52.5603 92.61L55.7704 94.22C54.9304 93.87 53.9503 94.02 52.8303 94.66C51.5903 95.38 50.5204 96.52 49.6104 98.08C48.7104 99.64 48.2403 101.14 48.2003 102.59C48.1603 104.04 48.5904 105.02 49.5004 105.54L62.3904 112.89Z" class="pr-icon-iso-duotone-primary-stroke" stroke-linejoin="round"/>
    <path d="M42.4299 57.55C41.5899 57.21 40.61 57.35 39.49 58C38.25 58.71 37.17 59.85 36.27 61.41L34.58 64.32L23.49 83.45C23.04 84.23 22.7199 84.98 22.5299 85.69C22.3499 86.41 22.25 87.11 22.25 87.8C22.25 88.49 22.3499 89.09 22.5299 89.58C22.7199 90.08 23.04 90.46 23.49 90.71L28.24 93.42L36.27 98L28.36 94.05L16.5499 88.14L16.27 88L3.48999 80.71C3.03999 80.46 2.71991 80.08 2.52991 79.58C2.34991 79.09 2.25 78.49 2.25 77.8C2.25 77.11 2.34991 76.41 2.52991 75.69C2.71991 74.98 3.03999 74.23 3.48999 73.45L16.27 51.41C17.17 49.85 18.25 48.71 19.49 48C20.74 47.28 21.81 47.18 22.71 47.69L34.88 53.77L42.4299 57.55Z" class="pr-icon-iso-duotone-primary-stroke" stroke-linejoin="round"/>
    <path d="M61.0298 60.22L50.0698 66.55L41.0298 71.77L37.7399 73.67L41.0298 67.99L42.7098 65.09C43.6198 63.53 44.0698 62.03 44.0698 60.61C44.0698 59.19 43.6198 58.21 42.7098 57.69L42.4298 57.55L34.8799 53.77L41.0298 50.22L50.6598 55.04L61.0298 60.22Z" class="pr-icon-iso-duotone-primary-stroke" stroke-linejoin="round"/>
    <path d="M61.0303 70.6V97.33L56.0603 94.36L55.7704 94.22L52.5603 92.61L44.0204 88.34C43.8204 87.58 43.4303 87.03 42.8303 86.69L41.0303 85.71V82.14L50.0703 76.93L54.3804 74.44L61.0303 70.6Z" class="pr-icon-iso-duotone-primary-stroke" stroke-linejoin="round"/>
</svg>