<svg width="24" height="24" viewBox="0 0 86 114" class="pr-icon-iso-duotone-secondary" xmlns="http://www.w3.org/2000/svg" stroke-width="1px" stroke-linecap="round" stroke-linejoin="round">
    <path d="M81.3203 12.9299C79.9903 12.1799 78.3903 12.3399 76.5303 13.4099L63.3103 21.0399L53.1301 26.9199L29.3801 40.6299L29.0203 40.8399C27.1603 41.9199 25.5602 43.5999 24.2302 45.8999C22.9002 48.1899 22.2402 50.3999 22.2402 52.5499V107.06C22.2402 109.2 22.9002 110.65 24.2302 111.4C25.5602 112.16 27.1603 112 29.0203 110.93L76.5303 83.4999C78.3903 82.4199 79.9903 80.7399 81.3203 78.4399C82.6503 76.1499 83.3103 73.9399 83.3103 71.7899V17.2799C83.3103 15.1399 82.6503 13.6899 81.3203 12.9299ZM73.1301 50.4199C73.1301 51.5199 72.8102 52.6299 72.1602 53.7499C71.5102 54.8799 70.7002 55.7099 69.7402 56.2699L63.3103 59.9799L52.7803 66.0599C51.8103 66.6199 51.0101 66.7099 50.3601 66.3399C49.7101 65.9699 49.3801 65.2299 49.3801 64.1299V44.6599C49.3801 43.5599 49.7101 42.4499 50.3601 41.3199C51.0101 40.1999 51.8103 39.3599 52.7803 38.8099L53.1301 38.6099L63.3103 32.7299L69.7402 29.0099C70.7002 28.4599 71.5102 28.3699 72.1602 28.7399C72.8102 29.1099 73.1301 29.8399 73.1301 30.9499V50.4199Z" class="pr-icon-iso-duotone-primary-stroke" stroke-linejoin="round"/>
    <path d="M73.1299 30.9498V50.4198C73.1299 51.5198 72.8099 52.6298 72.1599 53.7498C71.5099 54.8798 70.7 55.7098 69.74 56.2698L63.3101 59.9798L52.78 66.0598C51.81 66.6198 51.0099 66.7098 50.3599 66.3398C49.7099 65.9698 49.3799 65.2298 49.3799 64.1298V46.4798L49.74 46.2698C50.7 45.7098 51.5099 44.8798 52.1599 43.7498C52.8099 42.6298 53.1299 41.5198 53.1299 40.4198V38.6098L63.3101 32.7298L69.74 29.0098C70.7 28.4598 71.5099 28.3698 72.1599 28.7398C72.8099 29.1098 73.1299 29.8398 73.1299 30.9498Z" class="pr-icon-iso-duotone-primary-stroke" stroke-linejoin="round"/>
    <path d="M81.3203 12.9299C79.9903 12.1799 78.3903 12.3399 76.5303 13.4099L63.3103 21.0399L53.1301 26.9199L29.3801 40.6299L29.0203 40.8399C27.1603 41.9199 25.5602 43.5999 24.2302 45.8999C22.9002 48.1899 22.2402 50.3999 22.2402 52.5499V107.06C22.2402 109.2 22.9002 110.65 24.2302 111.4L4.23022 101.4C2.90022 100.65 2.24023 99.1999 2.24023 97.0599V42.5499C2.24023 40.3999 2.90022 38.1899 4.23022 35.8999C5.56022 33.5999 7.16026 31.9199 9.02026 30.8399L56.5303 3.4099C58.3903 2.3399 59.9903 2.17991 61.3203 2.92991L81.3203 12.9299Z" class="pr-icon-iso-duotone-primary-stroke" stroke-linejoin="round"/>
</svg>