<svg width="48" height="48" viewBox="0 0 90 118" class="pr-icon-iso-duotone-secondary"
     xmlns="http://www.w3.org/2000/svg" stroke-width="1px" stroke-linecap="round" stroke-linejoin="round">
    <path d="M87.6597 31.7299C87.4697 31.0999 87.1996 30.54 86.8296 30.05L74.3396 14.08C73.9796 13.61 73.5598 13.25 73.0698 13.02C72.9598 12.96 72.8397 12.9101 72.7197 12.8701H72.7097C72.3897 12.7601 72.0497 12.6899 71.6797 12.6699C70.5797 12.5999 69.3796 12.9399 68.0996 13.6799L63.7898 16.1699L55.1597 21.1398L49.0698 24.6598L44.6697 27.1999L42.3796 28.52C41.0996 29.27 39.8998 30.3098 38.7998 31.6498C37.6998 32.9798 36.8096 34.4801 36.1396 36.1301L30.6897 49.3998L30.5598 49.7199L26.6797 59.1498L26.5896 59.3801L23.6497 66.53C23.2797 67.44 23.0098 68.3198 22.8198 69.1598C22.6398 70.0098 22.5498 70.82 22.5498 71.59C22.5498 72.14 22.5997 72.6598 22.6897 73.1398C22.7297 73.3298 22.7698 73.5099 22.8198 73.6899C23.0098 74.3299 23.2797 74.8901 23.6497 75.3801L33.1997 87.6699V110.64C33.1997 113.1 33.9397 114.7 35.4097 115.43C36.8697 116.16 38.5898 115.96 40.5498 114.83C40.9198 114.62 41.2797 114.37 41.6497 114.09C42.0197 113.81 42.4096 113.47 42.8396 113.09L55.2397 101.19L67.6396 98.77C68.0696 98.66 68.4596 98.5398 68.8296 98.3998C69.1996 98.2598 69.5697 98.0801 69.9297 97.8701C71.8897 96.7401 73.6096 94.96 75.0796 92.53C76.5496 90.1 77.2798 87.6499 77.2798 85.1999V62.2199L86.8296 38.8998C87.1996 37.9898 87.4697 37.1099 87.6597 36.2599C87.8397 35.4199 87.9297 34.61 87.9297 33.84C87.9297 33.07 87.8397 32.3599 87.6597 31.7299ZM68.0996 68.4699L57.2798 74.7199L42.3796 83.32L30.7798 68.4699L29.8997 67.35L32.1096 61.9699L33.6997 58.08L36.1497 52.1301L42.3796 36.9499L47.7898 33.83L56.9497 28.54L59.7097 26.9499L67.7898 22.29L68.0996 22.11L80.5896 38.08L68.0996 68.4699Z" class="pr-icon-iso-duotone-primary-stroke" stroke-linejoin="round"/>
    <path d="M69.4695 34.8C68.7395 34.45 67.8694 34.5501 66.8594 35.1001C65.8494 35.6501 65.0093 36.54 64.3293 37.77L60.4294 44.53L51.4194 60.1301L51.3794 60.21L50.3394 59.5901L50.2896 59.5601L48.1694 58.3101L46.2395 57.1699L46.0095 57.0601L36.9395 52.52L36.1494 52.1301L42.3794 36.95L47.7896 33.8301L56.9495 28.54L59.8096 29.97L65.2695 32.7L69.4695 34.8Z" class="pr-icon-iso-duotone-primary-stroke" stroke-linejoin="round"/>
    <path d="M68.0991 68.47L57.2793 74.72L42.3792 83.3201L30.7793 68.47L37.3291 64.6899L48.7993 70.6499L49.0393 70.77C49.7193 71.05 50.4891 70.9399 51.3691 70.4299C52.3491 69.8699 53.2092 68.9499 53.9392 67.6799L56.7693 62.8101L57.2693 63.0601L68.0891 68.47H68.0991Z" class="pr-icon-iso-duotone-primary-stroke" stroke-linejoin="round"/>
    <path d="M48.8093 70.6499L37.3391 64.6899L32.1191 61.97L33.7092 58.0801L36.1592 52.1301L36.9492 52.52L46.0193 57.0601C45.3393 56.7701 44.5392 56.8999 43.6292 57.4199C42.6192 57.9999 41.7493 58.9299 41.0193 60.1899C40.4193 61.2299 40.0592 62.2199 39.9492 63.1799C39.9192 63.3999 39.9092 63.6201 39.9092 63.8301C39.9092 64.9901 40.2793 65.78 41.0193 66.2L48.8193 70.6499H48.8093Z" class="pr-icon-iso-duotone-primary-stroke" stroke-linejoin="round"/>
    <path d="M70.6194 37.1399C70.6494 38.2799 70.2996 39.4901 69.5696 40.7601L57.2795 61.94L56.7795 62.8101L53.9495 67.68C53.2195 68.95 52.3594 69.87 51.3794 70.43C50.4994 70.94 49.7296 71.0501 49.0496 70.7701L48.8096 70.65L41.0095 66.2C40.2695 65.78 39.8994 64.9901 39.8994 63.8301C39.8994 63.6201 39.9095 63.4 39.9395 63.18C40.0495 62.22 40.4095 61.23 41.0095 60.19C41.7395 58.93 42.6094 58 43.6194 57.42C44.5294 56.9 45.3295 56.7701 46.0095 57.0601L46.2395 57.17L48.1694 58.3101L50.2896 59.5601L50.3394 59.5901L51.3794 60.21L51.4194 60.1302L60.4294 44.5301L64.3293 37.7701C65.0093 36.5401 65.8494 35.6501 66.8594 35.1001C67.8694 34.5501 68.7395 34.4501 69.4695 34.8001C70.2095 35.2201 70.5894 35.9999 70.6194 37.1399Z" class="pr-icon-iso-duotone-primary-stroke" stroke-linejoin="round"/>
    <path d="M80.5891 38.0801L68.0991 68.47L57.2793 63.0601L56.7793 62.8101L57.2793 61.9399L69.5693 40.76C70.2993 39.49 70.6491 38.2799 70.6191 37.1399C70.5891 35.9999 70.2092 35.22 69.4692 34.8L65.2693 32.7L59.8093 29.97L60.5891 28.0801L80.5891 38.0801Z" class="pr-icon-iso-duotone-primary-stroke" stroke-linejoin="round"/>
    <path d="M80.5889 38.0801L60.5889 28.0801L59.709 26.95L67.7891 22.29L68.0989 22.1101L80.5889 38.0801Z" class="pr-icon-iso-duotone-primary-stroke" stroke-linejoin="round"/>
    <path d="M35.4092 115.43L15.4092 105.43C13.9392 104.7 13.1992 103.1 13.1992 100.64V77.6699L33.1992 87.6699V110.64C33.1992 113.1 33.9392 114.7 35.4092 115.43Z" class="pr-icon-iso-duotone-primary-stroke" stroke-linejoin="round"/>
    <path d="M73.0698 13.02C72.9598 12.96 72.8397 12.9101 72.7197 12.8701H72.7097C72.3897 12.7601 72.0497 12.6899 71.6797 12.6699C70.5797 12.5999 69.3796 12.9399 68.0996 13.6799L63.7898 16.1699L55.1597 21.1398L49.0698 24.6598L44.6697 27.1999L42.3796 28.52C41.0996 29.27 39.8998 30.3098 38.7998 31.6498C37.6998 32.9798 36.8096 34.4801 36.1396 36.1301L30.6897 49.3998L30.5598 49.7199L26.6797 59.1498L26.5896 59.3801L23.6497 66.53C23.2797 67.44 23.0098 68.3199 22.8198 69.1599C22.6398 70.0099 22.5498 70.82 22.5498 71.59C22.5498 72.14 22.5997 72.6598 22.6897 73.1398C22.7297 73.3298 22.7698 73.5099 22.8198 73.6899C23.0098 74.3299 23.2797 74.8901 23.6497 75.3801L33.1997 87.6699L13.1997 77.6699L3.64966 65.3801C3.27966 64.8901 3.00982 64.3299 2.81982 63.6899C2.63982 63.0599 2.5498 62.36 2.5498 61.59C2.5498 60.82 2.63982 60.0098 2.81982 59.1598C3.00982 58.3198 3.27966 57.44 3.64966 56.53L16.1396 26.1301C16.8096 24.4801 17.6998 22.9798 18.7998 21.6498C19.8998 20.3098 21.0996 19.27 22.3796 18.52L48.0996 3.67987C49.3796 2.93987 50.5797 2.59986 51.6797 2.66986C52.1497 2.69986 52.5697 2.78991 52.9597 2.96991L53.2197 3.10003L73.0698 13.02Z" class="pr-icon-iso-duotone-primary-stroke" stroke-linejoin="round"/>
    <path d="M49.2297 70.8701L49.0498 70.77" class="pr-icon-iso-duotone-primary-stroke" stroke-linejoin="round"/>
</svg>