<svg width="24" height="24" viewBox="0 0 90 121" class="pr-icon-iso-duotone-secondary" xmlns="http://www.w3.org/2000/svg" stroke-width="1px" stroke-linecap="round" stroke-linejoin="round">
    <path d="M87.7799 17.64V75.8C87.7799 78.09 87.0699 80.46 85.6499 82.9C84.2399 85.35 82.5299 87.15 80.5399 88.3L29.8499 117.56C27.8599 118.71 26.1499 118.88 24.7299 118.07C23.3199 117.26 22.6099 115.72 22.6099 113.43V100.97C22.6099 100.7 22.6299 100.43 22.6599 100.16C22.7799 99.25 23.1099 98.33 23.6499 97.41C24.3399 96.21 25.1999 95.32 26.2299 94.72C27.2499 94.13 28.1099 94.03 28.8099 94.43C29.3399 94.73 29.6699 95.27 29.7899 96.05C29.8299 96.27 29.8499 96.52 29.8499 96.79V109.25L80.5399 79.99V21.82L67.7799 29.19L60.5399 33.36L41.8799 44.14L41.2999 44.47L30.9799 50.43L29.8499 51.08V63.55C29.8499 64.73 29.4999 65.91 28.8099 67.11C28.1099 68.31 27.2499 69.2 26.2299 69.79C25.1999 70.39 24.3399 70.48 23.6499 70.09C22.9499 69.69 22.6099 68.91 22.6099 67.73V55.27C22.6099 52.98 23.3199 50.61 24.7299 48.17C25.1799 47.39 25.6699 46.67 26.1899 46.02C27.2699 44.64 28.4999 43.55 29.8499 42.77L34.0599 40.34L34.1699 40.28L60.5399 25.05L67.7799 20.88L80.5399 13.51C82.3199 12.48 83.8799 12.24 85.1999 12.78L85.6499 13C87.0699 13.8 87.7799 15.35 87.7799 17.64Z" class="pr-icon-iso-duotone-primary-stroke" stroke-miterlimit="10" stroke-linejoin="round"/>
    <path d="M29.8499 109.25V96.7902C29.8499 96.5202 29.8299 96.2702 29.7899 96.0502C29.6699 95.2702 29.3399 94.7302 28.8099 94.4302L23.1199 91.5902L37.8399 83.0902L45.5499 86.9502L47.2299 87.7902C47.9499 88.2002 48.8099 88.1402 49.8099 87.6002C50.7999 87.0602 51.6599 86.1702 52.3899 84.9202L54.0599 82.0402L60.9299 70.1802L65.7999 72.6202L80.5399 79.9902L29.8499 109.25Z" class="pr-icon-iso-duotone-primary-stroke" stroke-miterlimit="10" stroke-linejoin="round"/>
    <path d="M53.9299 62.1104L32.7198 74.3604L27.0299 77.6404L26.2299 78.1003C25.1999 78.7003 24.3399 79.5904 23.6499 80.7904C22.9499 81.9804 22.6099 83.1703 22.6099 84.3503C22.6099 85.5303 22.9499 86.3104 23.6499 86.7104L3.85986 76.8103L3.6499 76.7104C2.9499 76.3104 2.60986 75.5303 2.60986 74.3503C2.60986 73.1703 2.9499 71.9804 3.6499 70.7904C4.3399 69.5904 5.19986 68.7003 6.22986 68.1003L12.4698 64.5004L20.1799 68.3604L23.6499 70.0903C24.3399 70.4803 25.1999 70.3904 26.2299 69.7904C27.2499 69.2004 28.1099 68.3104 28.8099 67.1104C29.4999 65.9104 29.8499 64.7304 29.8499 63.5504V54.4704L33.9299 52.1104L53.9299 62.1104Z" class="pr-icon-iso-duotone-primary-stroke" stroke-miterlimit="10" stroke-linejoin="round"/>
    <path d="M53.9299 70.4199L50.9799 75.5099L47.2299 81.9799C46.4999 83.2199 46.1599 84.3899 46.1899 85.4799C46.1999 85.8599 46.25 86.1999 46.34 86.4999L45.5499 86.9499L37.84 83.0899L34.7 81.5199L53.9299 70.4199Z" class="pr-icon-iso-duotone-primary-stroke" stroke-miterlimit="10" stroke-linejoin="round"/>
    <path d="M80.5398 21.8203V79.9903L65.7998 72.6203L60.9298 70.1803L65.3298 62.5903C65.6898 61.9703 65.9498 61.3703 66.0998 60.8003C66.2498 60.2203 66.3298 59.6603 66.3298 59.1103C66.3298 58.5603 66.2498 58.0803 66.0998 57.6803C65.9498 57.2803 65.6898 56.9803 65.3298 56.7703L60.5398 54.0403V33.3603L67.7798 29.1903L80.5398 21.8203Z" class="pr-icon-iso-duotone-primary-stroke" stroke-miterlimit="10" stroke-linejoin="round"/>
    <path d="M66.3299 59.11C66.3299 59.66 66.2499 60.22 66.0999 60.8C65.9499 61.37 65.6899 61.97 65.3299 62.59L60.9299 70.18L54.0599 82.04L52.3899 84.92C51.6599 86.17 50.7999 87.06 49.8099 87.6C48.8099 88.14 47.9499 88.2 47.2299 87.79C46.7899 87.5 46.4899 87.07 46.3399 86.5C46.2499 86.2 46.1999 85.86 46.1899 85.48C46.1599 84.39 46.4999 83.22 47.2299 81.98L50.9799 75.51L53.9299 70.42L34.6999 81.52L26.2299 86.41C25.1999 87.01 24.3399 87.1 23.6499 86.71C22.9499 86.31 22.6099 85.53 22.6099 84.35C22.6099 83.17 22.9499 81.98 23.6499 80.79C24.3399 79.59 25.1999 78.7 26.2299 78.1L27.0299 77.64L32.7198 74.36L53.9299 62.11L47.2299 58.29C46.4999 57.88 46.1599 57.11 46.1899 55.99C46.2199 54.86 46.5599 53.69 47.2299 52.48C47.9499 51.23 48.8099 50.3 49.8099 49.69C50.6999 49.14 51.4899 49.01 52.1699 49.28L52.3899 49.39L60.5399 54.04L65.3299 56.77C65.6899 56.98 65.9499 57.28 66.0999 57.68C66.2499 58.08 66.3299 58.55 66.3299 59.11Z" class="pr-icon-iso-duotone-primary-stroke" stroke-miterlimit="10" stroke-linejoin="round"/>
    <path d="M28.8099 94.4301C28.1099 94.0301 27.2499 94.1301 26.2299 94.7201C25.1999 95.3201 24.3399 96.2101 23.6499 97.4101C23.1099 98.3301 22.7799 99.2501 22.6599 100.16C22.6299 100.43 22.6099 100.7 22.6099 100.97V113.43C22.6099 115.72 23.3199 117.26 24.7299 118.07L5.17987 108.29L4.72986 108.07C3.31986 107.26 2.60986 105.72 2.60986 103.43V90.9701C2.60986 89.7901 2.9499 88.6001 3.6499 87.4101C4.3399 86.2101 5.19986 85.3201 6.22986 84.7201C7.24986 84.1301 8.10988 84.0301 8.80988 84.4301L23.1199 91.5901L28.8099 94.4301Z" class="pr-icon-iso-duotone-primary-stroke" stroke-miterlimit="10" stroke-linejoin="round"/>
    <path d="M85.1999 12.7802C83.8799 12.2402 82.3199 12.4802 80.5399 13.5102L67.7799 20.8802L60.5399 25.0502L34.1699 40.2802L34.0599 40.3402L29.8499 42.7702C28.4999 43.5502 27.2699 44.6402 26.1899 46.0202C25.6699 46.6702 25.1799 47.3902 24.7299 48.1702C23.3199 50.6102 22.6099 52.9802 22.6099 55.2702V67.7302C22.6099 68.9102 22.9499 69.6902 23.6499 70.0902L20.1799 68.3602L12.4698 64.5002L3.85986 60.1902L3.6499 60.0902C2.9499 59.6902 2.60986 58.9102 2.60986 57.7302V45.2702C2.60986 42.9802 3.31986 40.6102 4.72986 38.1702C6.14986 35.7202 7.85985 33.9202 9.84985 32.7702L60.5399 3.51016C62.5299 2.36016 64.2399 2.19016 65.6499 3.00016L85.1999 12.7802Z" class="pr-icon-iso-duotone-primary-stroke" stroke-miterlimit="10" stroke-linejoin="round"/>
    <path d="M53.93 62.1101L33.93 52.1101L30.98 50.4301L41.3 44.4701L41.88 44.1401L52.17 49.2801C51.49 49.0101 50.7 49.1401 49.81 49.6901C48.81 50.3001 47.95 51.2301 47.23 52.4801C46.56 53.6901 46.22 54.8601 46.19 55.9901C46.16 57.1101 46.5 57.8801 47.23 58.2901L53.93 62.1101Z" class="pr-icon-iso-duotone-primary-stroke" stroke-miterlimit="10" stroke-linejoin="round"/>
</svg>