<svg width="48" height="48" viewBox="0 0 102 114" fill="#c8e7ff" xmlns="http://www.w3.org/2000/svg" stroke-width="1px" stroke-linecap="round" stroke-linejoin="round"><path d="M86.2939 13.88L87.844 14.65C87.344 14.36 86.8239 14.1 86.2939 13.88Z" stroke="#229EFF" stroke-linejoin="round"/><path d="M33.2734 108.78C33.8334 109.1 34.4037 109.39 34.9937 109.63L33.2734 108.78Z" stroke="#229EFF" stroke-linejoin="round"/><path d="M96.084 23.9399C94.064 19.7299 91.314 16.63 87.844 14.65L86.2939 13.8799C83.1839 12.4699 79.614 11.94 75.604 12.26C75.474 12.27 75.3541 12.2799 75.2241 12.2999C70.6341 12.7399 65.754 14.4599 60.564 17.4599C55.224 20.5399 50.2139 24.5999 45.5139 29.6299C40.8239 34.6599 36.7439 40.17 33.2739 46.16C30.6439 50.7 28.434 55.3899 26.634 60.2499C26.054 61.8099 25.5239 63.3799 25.0339 64.9699C24.9639 65.1999 24.894 65.43 24.824 65.66C22.934 71.97 21.9941 78.0799 21.9941 83.9799C21.9941 89.8799 23.0039 95.2699 25.0339 99.4899C25.3039 100.06 25.594 100.61 25.894 101.13C27.804 104.5 30.2441 107.04 33.2141 108.74L33.2739 108.78L34.9941 109.63C38.0741 110.99 41.5739 111.5 45.5139 111.17C50.2139 110.78 55.224 109.05 60.564 105.97C65.894 102.89 70.904 98.8299 75.604 93.7999C80.294 88.7699 84.374 83.26 87.844 77.27C91.314 71.29 94.064 65.0199 96.084 58.4599C98.114 51.9099 99.124 45.5699 99.124 39.4499C99.124 33.3299 98.114 28.1599 96.084 23.9399ZM75.114 60.8299C74.344 62.0899 73.434 63.03 72.374 63.64C71.314 64.25 70.4241 64.3499 69.7241 63.9499L69.6841 63.9299L60.564 58.7299L51.4041 74.53C50.6241 75.86 49.7241 76.7999 48.7041 77.3599C47.6741 77.9199 46.7739 78.01 46.0039 77.65C45.2339 77.21 44.8239 76.3999 44.7939 75.2399C44.7639 74.0799 45.1341 72.84 45.9041 71.51L54.9441 55.9199L57.864 50.8799C58.634 49.5499 59.534 48.5899 60.564 47.9999C61.584 47.3999 62.4839 47.33 63.2639 47.77L74.1741 53.9899L75.114 54.53C75.894 54.97 76.2739 55.8 76.2739 57.01C76.2739 58.22 75.894 59.4999 75.114 60.8299Z" stroke="#229EFF" stroke-linejoin="round"/><path d="M60.5637 58.73L51.4038 74.53C50.6238 75.86 49.7238 76.8 48.7038 77.36C47.6738 77.92 46.7736 78.01 46.0036 77.65C45.2336 77.21 44.8237 76.4 44.7937 75.24C44.7637 74.08 45.1338 72.84 45.9038 71.51L54.9438 55.9199L60.5637 58.73Z" stroke="#229EFF" stroke-linejoin="round"/><path d="M76.2732 57.0101C76.2732 58.2301 75.8933 59.5 75.1133 60.83C74.3433 62.09 73.4333 63.0301 72.3733 63.6401C71.3133 64.2501 70.4234 64.35 69.7234 63.95L69.6833 63.93L60.5632 58.73L54.9434 55.92L57.8633 50.8801C58.6333 49.5501 59.5332 48.59 60.5632 48C61.5832 47.4 62.4832 47.3301 63.2632 47.7701L74.1733 53.99L75.1133 54.5301C75.8933 54.9701 76.2732 55.8001 76.2732 57.0101Z" stroke="#229EFF" stroke-linejoin="round"/><path d="M86.2939 13.88C83.1839 12.47 79.614 11.94 75.604 12.26C75.474 12.27 75.3541 12.2799 75.2241 12.2999C70.6341 12.7399 65.754 14.4599 60.564 17.4599C55.224 20.5399 50.2139 24.6 45.5139 29.63C40.8239 34.66 36.7439 40.17 33.2739 46.16C30.6439 50.7 28.434 55.39 26.634 60.25C26.054 61.81 25.5239 63.38 25.0339 64.97C24.9639 65.2 24.894 65.43 24.824 65.66C22.934 71.97 21.9941 78.08 21.9941 83.98C21.9941 89.88 23.0039 95.27 25.0339 99.49C25.3039 100.06 25.594 100.61 25.894 101.13C27.804 104.5 30.2441 107.04 33.2141 108.74L14.0239 99.1799L13.9841 99.16C13.7441 99.04 13.5039 98.91 13.2739 98.78C9.80393 96.8 7.05394 93.7 5.03394 89.49C3.00394 85.27 1.99414 80.1 1.99414 73.98C1.99414 67.86 3.00394 61.52 5.03394 54.97C7.05394 48.42 9.80393 42.15 13.2739 36.16C16.7439 30.17 20.8239 24.66 25.5139 19.63C30.2139 14.6 35.224 10.5399 40.564 7.45995C45.894 4.37995 50.904 2.65 55.604 2.26C59.594 1.94 63.1341 2.45995 66.2341 3.83995L66.384 3.91002L67.634 4.54003L67.844 4.65001L86.2939 13.88Z" stroke="#229EFF" stroke-linejoin="round"/><path d="M35.1541 109.71L34.9941 109.63" stroke="#229EFF" stroke-linejoin="round"/></svg>