<svg width="24" height="24" viewBox="0 0 108 121" class="pr-icon-iso-duotone-secondary" xmlns="http://www.w3.org/2000/svg" stroke-width="1px" stroke-linecap="round" stroke-linejoin="round">
    <path d="M105.75 50.534V53.164C105.75 55.244 105 57.294 103.51 59.304C102.01 61.324 100.43 62.424 98.7603 62.584L72.3801 65.734V82.964L83.1201 85.374C83.6801 85.534 84.1102 85.864 84.4202 86.354C84.7402 86.854 84.8901 87.504 84.8901 88.304V91.174C84.8901 92.764 84.3202 94.394 83.1702 96.054C82.0302 97.714 80.7601 98.7039 79.3701 99.0239L64.04 102.614L48.7102 116.724C47.3202 118.004 46.0502 118.484 44.9102 118.144L44.1602 117.774H44.1501C43.5101 117.284 43.1902 116.444 43.1902 115.254V112.384C43.1902 111.584 43.3402 110.754 43.6602 109.894C43.9702 109.034 44.4002 108.204 44.9602 107.404L55.7002 92.5939V75.364L44.4802 86.984L29.3201 102.674C27.6501 104.444 26.0701 105.174 24.5701 104.874C24.0301 104.774 23.5802 104.554 23.2402 104.214H23.2302C23.2302 104.214 23.2102 104.184 23.1902 104.164C22.6202 103.564 22.3301 102.614 22.3301 101.324V98.694C22.3301 97.734 22.5202 96.714 22.9102 95.614C23.2902 94.514 23.8303 93.4839 24.5203 92.5239L35.7002 77.104L55.7002 49.524V28.464C55.7002 25.834 56.5201 23.104 58.1501 20.284C59.7801 17.474 61.75 15.404 64.04 14.074C66.09 12.894 67.8902 12.604 69.4202 13.234L69.9302 13.484C71.5602 14.414 72.3801 16.194 72.3801 18.834V39.884L85.7502 42.894L103.56 46.894C103.71 46.934 103.85 46.974 103.99 47.044L104.34 47.214C104.67 47.434 104.95 47.734 105.17 48.114C105.56 48.774 105.75 49.584 105.75 50.534Z" class="pr-icon-iso-duotone-primary-stroke" stroke-linejoin="round"/>
    <path d="M44.9102 118.144C44.6202 118.064 44.3702 117.934 44.1602 117.774L44.9102 118.144Z" class="pr-icon-iso-duotone-primary-stroke" stroke-linejoin="round"/>
    <path d="M55.7002 49.5239L35.7002 77.1039L24.5203 92.5239C23.8303 93.4839 23.2902 94.5139 22.9102 95.6139C22.5202 96.7139 22.3301 97.7339 22.3301 98.6939V101.324C22.3301 102.614 22.6202 103.564 23.1902 104.164V104.184L4.05005 94.7239L3.78003 94.5939C2.81003 94.0939 2.33008 93.0039 2.33008 91.3239V88.6939C2.33008 87.7339 2.52016 86.7139 2.91016 85.6139C3.29016 84.5139 3.83026 83.4839 4.52026 82.5239L35.7002 39.5239L55.7002 49.5239Z" class="pr-icon-iso-duotone-primary-stroke" stroke-linejoin="round"/>
    <path d="M23.2305 104.204L23.1904 104.184V104.164L23.2305 104.204Z" class="pr-icon-iso-duotone-primary-stroke" stroke-linejoin="round"/>
    <path d="M69.4202 13.2339C67.8902 12.6039 66.09 12.8939 64.04 14.0739C61.75 15.4039 59.7801 17.4739 58.1501 20.2839C56.5201 23.1039 55.7002 25.8339 55.7002 28.4639V49.5239L35.7002 39.5239V18.4639C35.7002 15.8339 36.5201 13.1039 38.1501 10.2839C39.7801 7.47393 41.75 5.40393 44.04 4.07393C46.33 2.75393 48.3002 2.55393 49.9302 3.48393L69.4202 13.2339Z" class="pr-icon-iso-duotone-primary-stroke" stroke-linejoin="round"/>
    <path d="M103.99 47.044C103.85 46.974 103.71 46.934 103.56 46.894L85.75 42.894L72.3799 39.884V34.384L83.5598 36.894C83.7698 36.944 83.9599 37.014 84.1399 37.104L84.27 37.174L103.99 47.044Z" class="pr-icon-iso-duotone-primary-stroke" stroke-linejoin="round"/>
    <path d="M23.6301 104.404L23.2402 104.214" class="pr-icon-iso-duotone-primary-stroke" stroke-linejoin="round"/>
    <path d="M43.1904 112.384V115.254C43.1904 116.444 43.5104 117.284 44.1504 117.764L24.5105 107.994C23.6305 107.564 23.1904 106.644 23.1904 105.254V104.184L23.2305 104.204H23.2405C23.5805 104.554 24.0303 104.774 24.5703 104.874C26.0703 105.174 27.6503 104.444 29.3203 102.674L44.4805 86.9839L52.0005 90.7439H52.0105L55.7004 92.5939L44.9604 107.404C44.4004 108.204 43.9704 109.034 43.6604 109.894C43.3404 110.754 43.1904 111.584 43.1904 112.384Z" class="pr-icon-iso-duotone-primary-stroke" stroke-linejoin="round"/>
    <path d="M24.5107 107.994L24.3906 107.934" class="pr-icon-iso-duotone-primary-stroke" stroke-linejoin="round"/>
    <path d="M55.7004 75.364V92.594L52.0105 90.744H52.0005L44.4805 86.984L55.7004 75.364Z" class="pr-icon-iso-duotone-primary-stroke" stroke-linejoin="round"/>
</svg>