<svg width="24" height="24" viewBox="0 0 107 119" class="pr-icon-iso-duotone-secondary" xmlns="http://www.w3.org/2000/svg" stroke-width="1px" stroke-linecap="round" stroke-linejoin="round">
    <path d="M100.84 24.3807C98.7101 19.9507 95.8199 16.6908 92.1699 14.6108L90.3101 13.6807C87.1701 12.3207 83.6001 11.7908 79.6001 12.0808C79.5001 12.0908 79.4 12.0908 79.3 12.1008C74.37 12.5108 69.1 14.3308 63.49 17.5708C59.05 20.1408 54.82 23.3408 50.8 27.2108C49.75 28.2108 48.7099 29.2608 47.6799 30.3608C43.5899 34.7408 39.94 39.4707 36.75 44.5507C36.08 45.6007 35.4301 46.6608 34.8101 47.7408C31.9101 52.7408 29.4901 57.9207 27.5601 63.3007C27.0501 64.6907 26.5801 66.0907 26.1401 67.5107C24.4801 72.8607 23.4801 78.0807 23.1101 83.1607C23.0001 84.6207 22.95 86.0608 22.95 87.5008C22.95 93.9308 24.0101 99.3707 26.1401 103.801C26.5301 104.611 26.9401 105.371 27.3801 106.101C29.3501 109.381 31.8201 111.871 34.8101 113.571C38.4501 115.651 42.7399 116.481 47.6799 116.081C52.6099 115.671 57.88 113.851 63.49 110.611C69.1 107.371 74.37 103.111 79.3 97.8208C84.23 92.5308 88.5199 86.7408 92.1699 80.4408C95.8199 74.1508 98.7101 67.5607 100.84 60.6707C102.97 53.7807 104.03 47.1207 104.03 40.6807C104.03 34.2407 102.97 28.8107 100.84 24.3807ZM53 86.0207C51.41 88.7607 49.5 90.7708 47.27 92.0608C45.04 93.3508 43.13 93.5407 41.55 92.6407C39.96 91.7307 39.1602 90.0008 39.1602 87.4408C39.1602 84.8808 39.96 82.2308 41.55 79.4908C43.13 76.7508 45.04 74.7408 47.27 73.4508C49.5 72.1708 51.41 71.9707 53 72.8807C54.59 73.7907 55.3801 75.5208 55.3801 78.0808C55.3801 80.6408 54.59 83.2807 53 86.0207ZM67.6899 51.0207C67.4299 53.0607 66.6799 55.1507 65.4299 57.3007C63.8499 60.0407 61.94 62.0508 59.71 63.3408C57.48 64.6208 55.57 64.8107 53.98 63.9107C52.39 63.0007 51.6001 61.2708 51.6001 58.7108C51.6001 56.1508 52.39 53.5107 53.98 50.7707C54.45 49.9507 54.96 49.2007 55.5 48.5107C56.74 46.8907 58.15 45.6308 59.71 44.7308C61.94 43.4408 63.8499 43.2507 65.4299 44.1507C67.0199 45.0607 67.8101 46.7908 67.8101 49.3508C67.8101 49.9008 67.7699 50.4607 67.6899 51.0207ZM85.4299 67.3007C83.8499 70.0407 81.94 72.0508 79.71 73.3408C77.48 74.6208 75.57 74.8107 73.98 73.9107C72.91 73.3007 72.2001 72.3108 71.8601 70.9508C71.6801 70.2908 71.6001 69.5408 71.6001 68.7108C71.6001 66.1508 72.39 63.5107 73.98 60.7707C75.5 58.1607 77.3102 56.2007 79.4102 54.9207C79.5102 54.8507 79.61 54.7908 79.71 54.7308C81.94 53.4408 83.8499 53.2507 85.4299 54.1507C87.0199 55.0607 87.8101 56.7908 87.8101 59.3508C87.8101 61.9108 87.0199 64.5607 85.4299 67.3007Z" class="pr-icon-iso-duotone-primary-stroke" stroke-linejoin="round"/>
    <path d="M67.8101 49.3509C67.8101 49.9009 67.7699 50.4608 67.6899 51.0208C67.4299 53.0608 66.6799 55.1509 65.4299 57.3009C63.8499 60.0409 61.94 62.0509 59.71 63.3409C57.48 64.6209 55.57 64.8109 53.98 63.9109C52.39 63.0009 51.6001 61.2709 51.6001 58.7109C51.6001 56.1509 52.39 53.5108 53.98 50.7708C54.45 49.9508 54.96 49.2008 55.5 48.5108C56.74 46.8908 58.15 45.6309 59.71 44.7309C61.94 43.4409 63.8499 43.2508 65.4299 44.1508C67.0199 45.0608 67.8101 46.7909 67.8101 49.3509Z" class="pr-icon-iso-duotone-primary-stroke" stroke-linejoin="round"/>
    <path d="M55.3801 78.081C55.3801 80.631 54.59 83.2809 53 86.0209C51.41 88.7609 49.5 90.771 47.27 92.061C45.04 93.351 43.13 93.5409 41.55 92.6409C39.96 91.7309 39.1602 90.001 39.1602 87.441C39.1602 84.881 39.96 82.231 41.55 79.491C43.13 76.751 45.04 74.741 47.27 73.451C49.5 72.171 51.41 71.9709 53 72.8809C54.59 73.7909 55.3801 75.521 55.3801 78.081Z" class="pr-icon-iso-duotone-primary-stroke" stroke-linejoin="round"/>
    <path d="M87.8101 59.3509C87.8101 61.9109 87.0199 64.5609 85.4299 67.3009C83.8499 70.0409 81.94 72.0509 79.71 73.3409C77.48 74.6209 75.57 74.8109 73.98 73.9109C72.91 73.3009 72.2001 72.3109 71.8601 70.9509C71.6801 70.2909 71.6001 69.5409 71.6001 68.7109C71.6001 66.1509 72.39 63.5108 73.98 60.7708C75.5 58.1608 77.3102 56.2009 79.4102 54.9209C79.5102 54.8509 79.61 54.7909 79.71 54.7309C81.94 53.4409 83.8499 53.2508 85.4299 54.1508C87.0199 55.0608 87.8101 56.7909 87.8101 59.3509Z" class="pr-icon-iso-duotone-primary-stroke" stroke-linejoin="round"/>
    <path d="M90.3101 13.6808C87.1701 12.3208 83.6001 11.7909 79.6001 12.0809C79.5001 12.0909 79.4 12.0909 79.3 12.1009C74.37 12.5109 69.1 14.3309 63.49 17.5709C59.05 20.1409 54.82 23.3409 50.8 27.2109C49.75 28.2109 48.7099 29.2609 47.6799 30.3609C43.5899 34.7409 39.94 39.4708 36.75 44.5508C36.08 45.6008 35.4301 46.6609 34.8101 47.7409C31.9101 52.7409 29.4901 57.9208 27.5601 63.3008C27.0501 64.6908 26.5801 66.0908 26.1401 67.5108C24.4801 72.8608 23.4801 78.0808 23.1101 83.1608C23.0001 84.6208 22.95 86.0609 22.95 87.5009C22.95 93.9309 24.0101 99.3708 26.1401 103.801C26.5301 104.611 26.9401 105.371 27.3801 106.101C29.3501 109.381 31.8201 111.871 34.8101 113.571L16.6799 104.511C16.0399 104.231 15.4201 103.921 14.8101 103.571C11.1601 101.491 8.27014 98.2308 6.14014 93.8008C4.01014 89.3708 2.94995 83.9309 2.94995 77.5009C2.94995 71.0709 4.01014 64.4008 6.14014 57.5108C8.27014 50.6208 11.1601 44.0309 14.8101 37.7409C18.4501 31.4409 22.7399 25.6509 27.6799 20.3609C32.6099 15.0709 37.88 10.8109 43.49 7.57085C49.1 4.33085 54.37 2.51088 59.3 2.10088C63.27 1.78088 66.82 2.25082 69.96 3.54082C70.72 3.85082 71.4599 4.21089 72.1699 4.61089C72.2799 4.67089 72.39 4.74083 72.49 4.80083L90.3101 13.6808Z" class="pr-icon-iso-duotone-primary-stroke" stroke-linejoin="round"/>
</svg>