<svg width="48" height="48" viewBox="0 0 103 123" class="pr-icon-iso-duotone-secondary"
     xmlns="http://www.w3.org/2000/svg" stroke-width="1px" stroke-linecap="round" stroke-linejoin="round">
    <path d="M98.9543 18.0233L98.8542 17.9833C98.8542 17.9833 98.7744 17.9533 98.7344 17.9533L99.1042 18.1033C99.0542 18.0733 99.0043 18.0433 98.9543 18.0233Z" class="pr-icon-iso-duotone-primary-stroke" stroke-linejoin="round"/>
    <path d="M96.0042 46.1133L94.384 54.2533C94.234 55.0033 93.894 55.7033 93.354 56.3433C92.814 56.9833 92.2541 57.3933 91.6741 57.5633L87.4541 58.5033C87.0841 58.6133 86.7842 58.5933 86.5442 58.4533C86.4142 58.3833 86.3041 58.2633 86.2141 58.1033C85.9541 57.6733 85.9042 57.0833 86.0442 56.3333L87.6741 48.4433C88.0341 46.9133 88.7141 45.5033 89.7241 44.2133C90.7341 42.9233 91.8241 42.1533 92.9741 41.9033C93.6941 41.7433 94.3042 41.7933 94.7942 42.0333L94.844 42.0533C95.124 42.2033 95.364 42.4233 95.574 42.7033C96.154 43.4833 96.2942 44.6233 96.0042 46.1133Z" class="pr-icon-iso-duotone-primary-stroke" stroke-linejoin="round"/>
    <path d="M100.014 27.4033L98.8235 32.9333C98.6735 33.6833 98.3536 34.3733 97.8436 34.9933C97.3436 35.6133 96.8037 36.0133 96.2237 36.1733L92.0037 37.3733C91.7337 37.4533 91.4938 37.4633 91.2938 37.4033L91.0836 37.3133C90.9336 37.2333 90.8037 37.1133 90.7037 36.9433C90.4137 36.4833 90.3437 35.8833 90.4837 35.1433L91.8936 28.6133C92.3936 26.3333 93.0137 24.1233 93.7337 21.9633C94.4537 19.8033 95.5736 18.5033 97.0836 18.0333C97.7236 17.8433 98.2737 17.8033 98.7337 17.9533L99.1036 18.1033C99.7336 18.4333 100.144 19.1633 100.334 20.2633C100.694 22.2933 100.594 24.6733 100.014 27.4033Z" class="pr-icon-iso-duotone-primary-stroke" stroke-linejoin="round"/>
    <path d="M59.4148 87.3633L56.9248 88.8033L55.7148 85.5133L59.4148 87.3633Z" class="pr-icon-iso-duotone-primary-stroke" stroke-linejoin="round"/>
    <path d="M80.5147 13.7533C80.4547 14.8933 80.2847 16.1033 80.0147 17.4033L78.8245 22.9333C78.6745 23.6833 78.3545 24.3733 77.8445 24.9933C77.6045 25.2933 77.3545 25.5433 77.0945 25.7233C76.8145 25.9433 76.5247 26.0933 76.2247 26.1733L72.0047 27.3733C71.6247 27.4833 71.3145 27.4633 71.0645 27.3033C70.9245 27.2233 70.8047 27.1033 70.7047 26.9433C70.4147 26.4833 70.3447 25.8833 70.4847 25.1433L71.8946 18.6133C72.3946 16.3333 73.0147 14.1233 73.7347 11.9633C74.4547 9.80329 75.5745 8.50329 77.0845 8.03329C77.7645 7.83329 78.3445 7.80331 78.8245 7.98331L79.0147 8.06329C79.6947 8.37329 80.1345 9.1033 80.3345 10.2633C80.5245 11.3333 80.5847 12.4933 80.5147 13.7533Z" class="pr-icon-iso-duotone-primary-stroke" stroke-linejoin="round"/>
    <path d="M68.0737 42.6133V55.0333C68.0737 55.2433 68.0539 55.4633 68.0039 55.6833C67.9139 56.1533 67.7238 56.6433 67.4238 57.1533C66.9938 57.8933 66.4938 58.4333 65.9138 58.7733L63.2439 60.3133L61.5837 61.2733C61.2537 61.4633 60.9538 61.5533 60.6738 61.5533H60.6638C60.5738 61.5533 60.4838 61.5433 60.3938 61.5233C60.2838 61.5033 60.1737 61.4633 60.0637 61.4033C59.9137 61.3133 59.7939 61.2133 59.7139 61.0733C59.5139 60.8133 59.4238 60.4633 59.4238 60.0333V47.6133C59.4238 47.1833 59.4639 46.7633 59.5439 46.3333C59.7139 45.3433 60.0938 44.3533 60.6738 43.3533C61.4238 42.0533 62.3438 41.0533 63.4238 40.3533C63.5338 40.2733 63.6439 40.2133 63.7539 40.1433C64.8639 39.5033 65.8037 39.3533 66.5938 39.6733L66.8438 39.7933C67.0238 39.8933 67.1837 40.0233 67.3237 40.1733C67.8337 40.6933 68.0837 41.5133 68.0837 42.6133H68.0737Z" class="pr-icon-iso-duotone-primary-stroke" stroke-linejoin="round"/>
    <path d="M70.6743 80.8633L68.0742 82.3633V79.5633L70.6743 80.8633Z" class="pr-icon-iso-duotone-primary-stroke" stroke-linejoin="round"/>
    <path d="M91.5642 68.0533L87.5642 82.5433V90.9933C87.5642 93.7233 86.7144 96.5533 85.0144 99.4733C83.3244 102.403 81.2842 104.553 78.9042 105.923L56.4943 118.863C55.2643 119.573 54.0542 119.983 52.8642 120.093C52.0442 120.163 51.3243 120.063 50.6943 119.793L50.2944 119.593C50.1544 119.513 50.0242 119.423 49.8942 119.323L36.1442 109.053L32.3542 106.223C31.5642 105.603 31.1944 104.603 31.2744 103.243C31.3444 101.873 31.8444 100.463 32.7844 99.0133C33.7244 97.5633 34.7743 96.5633 35.9243 96.0233C36.8343 95.5933 37.6241 95.5033 38.3041 95.7433L38.8442 96.0133L47.5942 102.453L48.5942 103.183C48.5942 102.733 48.6243 102.283 48.6943 101.823C48.7143 101.593 48.7541 101.363 48.8041 101.133C48.9541 100.423 49.1643 99.6533 49.4543 98.8333L44.4743 85.3033C44.1143 84.1933 44.1943 82.8633 44.6943 81.3333C44.8243 80.9533 44.9642 80.5733 45.1342 80.2233C45.6442 79.1533 46.3243 78.2233 47.1843 77.4133C48.3343 76.3233 49.4544 75.7633 50.5444 75.7233C50.9444 75.7033 51.2942 75.7633 51.5942 75.9233L51.7243 75.9833C52.1743 76.2333 52.5043 76.6833 52.7043 77.3233L55.7143 85.5133L56.9243 88.8033L59.4143 87.3633V72.4533C59.4143 71.0533 59.8343 69.6333 60.6643 68.2033C61.4943 66.7633 62.5243 65.6933 63.7443 64.9933C63.7643 64.9833 63.7841 64.9733 63.8041 64.9533H63.8142C63.9942 64.8533 64.1642 64.7633 64.3342 64.6933C64.4942 64.6233 64.6444 64.5633 64.7944 64.5133C65.4644 64.3033 66.0542 64.3033 66.5842 64.5133L66.8342 64.6333C67.6642 65.1133 68.0742 66.0533 68.0742 67.4533V82.3633L70.6743 80.8633L72.9443 68.4933C73.2343 66.9233 73.8642 65.5033 74.8442 64.2333C75.8142 62.9733 76.9142 62.1433 78.1442 61.7733C78.9642 61.5233 79.6443 61.5233 80.1843 61.7733L80.2844 61.8233C80.5144 61.9533 80.7242 62.1333 80.9042 62.3533C81.5142 63.1133 81.6842 64.2833 81.3942 65.8533L79.9743 73.9033L79.6643 75.6733C80.0243 75.5533 80.4044 75.4133 80.7944 75.2733C81.1944 75.1233 81.5743 75.0233 81.9343 74.9833L83.5541 69.2033C83.9941 67.6233 84.7442 66.2433 85.8342 65.0333C86.9142 63.8333 88.0343 63.1433 89.1843 62.9733C89.6043 62.9233 89.9942 62.9733 90.3142 63.0733L90.6242 63.2233C90.9942 63.4233 91.2944 63.7633 91.5144 64.2333C91.9844 65.2033 92.0042 66.4833 91.5642 68.0533Z" class="pr-icon-iso-duotone-primary-stroke" stroke-linejoin="round"/>
    <path d="M51.1942 68.1433C51.1942 68.1433 51.1742 68.1833 51.1642 68.2033C50.8742 68.8433 50.4442 69.4033 49.8942 69.8833L48.0741 71.4633L46.1041 73.1833L45.6642 73.5633C45.0242 74.1033 44.4242 74.3233 43.8842 74.2233C43.7842 74.2033 43.6941 74.1833 43.6141 74.1433L43.5841 74.1233L43.4542 74.0533C43.4542 74.0533 43.3841 73.9933 43.3441 73.9533C43.1341 73.7433 43.0042 73.4333 42.9642 73.0133L42.8041 71.5333L41.6642 60.8433C41.5242 59.5233 41.8241 58.1233 42.5841 56.6533C42.8641 56.0933 43.1843 55.5833 43.5343 55.1233C43.9143 54.6133 44.3343 54.1633 44.7843 53.7633C45.0343 53.5333 45.2941 53.3233 45.5641 53.1333C46.7841 52.2533 47.8543 51.9933 48.7543 52.3433C49.6543 52.6933 50.1841 53.5233 50.3241 54.8533L50.4943 56.4633L50.5143 56.6233L51.5143 66.2133V66.2733C51.5743 66.8733 51.4642 67.4933 51.1942 68.1433Z" class="pr-icon-iso-duotone-primary-stroke" stroke-linejoin="round"/>
    <path d="M50.2944 119.593L30.7443 109.813L30.7043 109.793C30.4143 109.683 30.1442 109.523 29.8942 109.323L12.3542 96.2233C11.5642 95.6033 11.1944 94.6033 11.2744 93.2433C11.3144 92.4033 11.5242 91.5533 11.8842 90.6833L26.9243 98.2133C27.1243 98.3133 27.3642 98.3433 27.6442 98.3133C28.2542 98.2533 28.8543 97.8833 29.4343 97.2233L33.0144 93.0933L38.3041 95.7433C37.6241 95.5033 36.8343 95.5933 35.9243 96.0233C34.7743 96.5633 33.7244 97.5633 32.7844 99.0133C31.8444 100.463 31.3444 101.873 31.2744 103.243C31.1944 104.603 31.5642 105.603 32.3542 106.223L36.1442 109.053L49.8942 119.323C50.0242 119.423 50.1544 119.513 50.2944 119.593Z" class="pr-icon-iso-duotone-primary-stroke" stroke-linejoin="round"/>
    <path d="M44.6942 81.3333C44.1942 82.8633 44.1143 84.1933 44.4743 85.3033L49.4542 98.8333L34.2243 91.2133C34.2743 91.0933 34.3241 90.9633 34.3541 90.8433C34.5341 90.1933 34.5141 89.6033 34.3041 89.0733L32.5741 84.7233C31.9041 83.2333 30.9643 82.1833 29.7643 81.5933H29.7543L29.6142 81.5133L29.5443 81.4833L29.1342 81.2833L26.1142 79.7633L24.4743 75.3033C24.1143 74.1933 24.1942 72.8633 24.6942 71.3333C25.2042 69.7933 26.0342 68.4933 27.1842 67.4133C27.5742 67.0433 27.9541 66.7433 28.3341 66.5033L43.4542 74.0533L43.5841 74.1233L43.6142 74.1433C43.6942 74.1833 43.7842 74.2033 43.8842 74.2233C44.4242 74.3233 45.0242 74.1033 45.6642 73.5633L46.1041 73.1833L51.5941 75.9233C51.2941 75.7633 50.9443 75.7033 50.5443 75.7233C49.4543 75.7633 48.3342 76.3233 47.1842 77.4133C46.3242 78.2233 45.6442 79.1533 45.1342 80.2233C44.9642 80.5733 44.8242 80.9533 44.6942 81.3333Z" class="pr-icon-iso-duotone-primary-stroke" stroke-linejoin="round"/>
    <path d="M34.3541 90.8433C34.3241 90.9633 34.2743 91.0933 34.2243 91.2133C34.0343 91.7233 33.7341 92.2333 33.3241 92.7333L33.0143 93.0933L29.4342 97.2233C28.8542 97.8833 28.2542 98.2533 27.6442 98.3133C27.3642 98.3433 27.1242 98.3133 26.9242 98.2133C26.6942 98.0933 26.5242 97.8933 26.4042 97.6033L23.1542 89.5433C23.0942 89.3833 23.0443 89.2233 22.9943 89.0633C22.8843 88.7133 22.7943 88.3433 22.7543 87.9633C22.6743 87.4733 22.6442 86.9533 22.6642 86.4133C22.7042 85.2733 23.1543 84.2433 24.0143 83.3333C24.9443 82.3633 25.8442 81.7233 26.7142 81.3933C27.5242 81.0733 28.3041 81.0433 29.0541 81.2933C29.2241 81.3433 29.3843 81.4133 29.5443 81.4833L29.6141 81.5133L29.7543 81.5933H29.7643C30.9643 82.1833 31.9041 83.2333 32.5741 84.7233L34.3041 89.0733C34.5141 89.6033 34.5341 90.1933 34.3541 90.8433Z" class="pr-icon-iso-duotone-primary-stroke" stroke-linejoin="round"/>
    <path d="M49.4536 98.8333C49.1636 99.6533 48.9535 100.423 48.8035 101.133C48.7535 101.363 48.7136 101.593 48.6936 101.823C48.6236 102.283 48.5935 102.733 48.5935 103.183L47.5935 102.453L38.8435 96.0133L38.3035 95.7433L33.0137 93.0933L33.3235 92.7333C33.7335 92.2333 34.0336 91.7233 34.2236 91.2133L49.4536 98.8333Z" class="pr-icon-iso-duotone-primary-stroke" stroke-linejoin="round"/>
    <path d="M90.3137 63.0733C89.9937 62.9633 89.6038 62.9233 89.1838 62.9733C88.0338 63.1433 86.9137 63.8333 85.8337 65.0333C84.7437 66.2433 83.9937 67.6233 83.5537 69.2033L81.9338 74.9833L79.9739 73.9033L81.3938 65.8533C81.6838 64.2833 81.5138 63.1133 80.9038 62.3533C80.7238 62.1333 80.5139 61.9533 80.2839 61.8233L80.1838 61.7733L71.6938 57.5333L68.0039 55.6833C68.0539 55.4633 68.0737 55.2433 68.0737 55.0333V53.7233L71.8638 55.6233L75.1338 57.2533L75.2039 57.2933C75.4639 57.4233 75.7938 57.4233 76.1938 57.3033L77.8237 56.8233L90.3137 63.0733Z" class="pr-icon-iso-duotone-primary-stroke" stroke-linejoin="round"/>
    <path d="M81.9341 74.9833C81.5741 75.0233 81.1942 75.1233 80.7942 75.2733C80.4042 75.4133 80.0241 75.5533 79.6641 75.6733L79.9741 73.9033L81.9341 74.9833Z" class="pr-icon-iso-duotone-primary-stroke" stroke-linejoin="round"/>
    <path d="M80.1838 61.7733C79.6438 61.5233 78.9638 61.5233 78.1438 61.7733C76.9138 62.1433 75.8138 62.9733 74.8438 64.2333C73.8637 65.5033 73.2338 66.9233 72.9438 68.4933L70.6738 80.8633L68.0737 79.5633V67.4533C68.0737 66.0533 67.6637 65.1133 66.8337 64.6333L66.5837 64.5133L62.6238 62.5233L60.6738 61.5533C60.9538 61.5533 61.2537 61.4633 61.5837 61.2733L63.2439 60.3133L65.9138 58.7733C66.4938 58.4333 66.9938 57.8933 67.4238 57.1533C67.7238 56.6433 67.9139 56.1533 68.0039 55.6833L71.6938 57.5333L80.1838 61.7733Z" class="pr-icon-iso-duotone-primary-stroke" stroke-linejoin="round"/>
    <path d="M48.9742 44.8833C48.6442 45.5233 48.2443 46.0433 47.7843 46.4333C47.7043 46.5233 47.6043 46.5933 47.5143 46.6633L43.2843 49.5933H43.2743C42.7043 50.0033 42.1842 50.1233 41.7142 49.9333L41.5243 49.8333C41.1743 49.6333 40.9642 49.2533 40.9042 48.7233L40.8741 48.3933L39.9342 39.4733C39.7842 38.1533 40.0941 36.7533 40.8541 35.2833C41.6141 33.8033 42.6041 32.6333 43.8241 31.7633C45.0541 30.8833 46.1243 30.6233 47.0243 30.9733C47.4343 31.1333 47.7643 31.3933 48.0143 31.7533C48.3243 32.1833 48.5141 32.7633 48.5941 33.4833L49.4542 42.7933C49.5342 43.4133 49.3642 44.1133 48.9742 44.8733V44.8833Z" class="pr-icon-iso-duotone-primary-stroke" stroke-linejoin="round"/>
    <path d="M48.7543 52.3433C47.8543 51.9933 46.7841 52.2533 45.5641 53.1333C45.2941 53.3233 45.0343 53.5333 44.7843 53.7633C44.3343 54.1633 43.9143 54.6133 43.5343 55.1233C43.1843 55.5833 42.8641 56.0933 42.5841 56.6533C41.8241 58.1233 41.5242 59.5233 41.6642 60.8433L42.8041 71.5333L42.9642 73.0133C43.0042 73.4333 43.1341 73.7433 43.3441 73.9533C43.3841 73.9933 43.4142 74.0233 43.4542 74.0533L28.3341 66.5033L23.6942 64.1733L23.5641 64.1133C23.2141 63.9333 23.0142 63.5633 22.9642 63.0133L21.6642 50.8433C21.5242 49.5233 21.8241 48.1233 22.5841 46.6533C23.3441 45.1733 24.3341 44.0033 25.5641 43.1333C25.9741 42.8333 26.3543 42.6133 26.7343 42.4533H26.7443L30.2042 44.1833L39.4142 48.7933L41.5243 49.8433L41.7142 49.9433C42.1842 50.1333 42.7043 50.0133 43.2743 49.6033L43.9142 49.9233L48.7543 52.3433Z" class="pr-icon-iso-duotone-primary-stroke" stroke-linejoin="round"/>
    <path d="M66.5835 64.5133C66.0535 64.3033 65.4637 64.3033 64.7937 64.5133C64.6437 64.5633 64.4935 64.6233 64.3335 64.6933C64.1635 64.7633 63.9935 64.8533 63.8135 64.9533H63.8035C63.8035 64.9533 63.7637 64.9833 63.7437 64.9933C62.5237 65.6933 61.4936 66.7633 60.6636 68.2033C59.8336 69.6333 59.4136 71.0533 59.4136 72.4533V87.3633L55.7136 85.5133L52.7036 77.3233C52.5036 76.6833 52.1736 76.2333 51.7236 75.9833L51.5935 75.9233L46.1035 73.1833L48.0735 71.4633L49.8936 69.8833C50.4436 69.4033 50.8736 68.8433 51.1636 68.2033C51.1736 68.1833 51.1836 68.1633 51.1936 68.1433C51.4636 67.4933 51.5737 66.8733 51.5137 66.2733V66.2133L50.5137 56.6333L53.0635 57.9033L60.0635 61.4033C60.1735 61.4633 60.2836 61.5033 60.3936 61.5233C60.4836 61.5433 60.5736 61.5533 60.6636 61.5533H60.6736L62.6235 62.5233L66.5835 64.5133Z" class="pr-icon-iso-duotone-primary-stroke" stroke-linejoin="round"/>
    <path d="M47.0243 30.9833C46.1243 30.6333 45.0541 30.8933 43.8241 31.7733C42.6041 32.6433 41.6141 33.8133 40.8541 35.2933C40.0941 36.7633 39.7842 38.1633 39.9342 39.4833L40.8741 48.4033L40.9042 48.7333C40.9642 49.2633 41.1743 49.6433 41.5243 49.8433L39.4142 48.7933L30.2042 44.1933L26.7443 42.4533H26.7342L21.7142 39.9433C21.2442 39.7633 20.9742 39.3533 20.9042 38.7333L19.9342 29.4833C19.7842 28.1633 20.0941 26.7633 20.8541 25.2933C21.6141 23.8133 22.6041 22.6433 23.8241 21.7733C25.0541 20.8933 26.1243 20.6333 27.0243 20.9833L27.4142 21.1833L44.5641 29.7533H44.5741L47.0243 30.9833Z" class="pr-icon-iso-duotone-primary-stroke" stroke-linejoin="round"/>
    <path d="M66.5835 39.6733C65.7935 39.3533 64.8537 39.5033 63.7437 40.1433C63.6337 40.2133 63.5236 40.2733 63.4136 40.3533C62.3336 41.0533 61.4136 42.0533 60.6636 43.3533C60.0836 44.3533 59.7037 45.3433 59.5337 46.3333C59.4537 46.7633 59.4136 47.1833 59.4136 47.6133V60.0333C59.4136 60.4633 59.5036 60.8133 59.7036 61.0633C59.7836 61.2133 59.9035 61.3133 60.0535 61.4033L53.0535 57.9033L50.5037 56.6333L50.4836 56.4633L50.3135 54.8533C50.1735 53.5233 49.6437 52.6933 48.7437 52.3433L43.9036 49.9233L43.2637 49.6033H43.2737L47.5037 46.6733C47.5937 46.6033 47.6937 46.5333 47.7737 46.4433C48.2337 46.0533 48.6336 45.5333 48.9636 44.8933C49.3536 44.1333 49.5236 43.4333 49.4436 42.8133L48.5835 33.5033C48.5035 32.7833 48.3137 32.2033 48.0037 31.7733C47.7537 31.4133 47.4237 31.1533 47.0137 30.9933L44.5635 29.7633C45.1235 29.5433 45.6235 29.4733 46.0835 29.5533H46.0935L47.2637 30.1433L55.6035 34.3333L60.0535 36.5633C60.2435 36.6733 60.4436 36.7233 60.6536 36.7233H60.6636L63.5835 38.1833L66.5735 39.6833L66.5835 39.6733Z" class="pr-icon-iso-duotone-primary-stroke" stroke-linejoin="round"/>
    <path d="M68.0737 17.7733V30.1933C68.0737 30.8533 67.8638 31.5633 67.4238 32.3033C66.9938 33.0533 66.4938 33.5933 65.9138 33.9233L63.8638 35.1033L61.5837 36.4233C61.2537 36.6133 60.9538 36.7133 60.6738 36.7133H60.6638C60.4538 36.7133 60.2537 36.6633 60.0637 36.5533C59.9137 36.4733 59.8039 36.3733 59.7139 36.2333C59.5139 35.9733 59.4238 35.6233 59.4238 35.1933V22.7733C59.4238 22.6733 59.4238 22.5633 59.4338 22.4633C59.4438 22.0533 59.5037 21.6333 59.5938 21.2233C59.7837 20.3233 60.1438 19.4233 60.6738 18.5133C61.5038 17.0833 62.5339 16.0133 63.7539 15.3033C64.3939 14.9333 64.9839 14.7233 65.5139 14.6733H65.5239C65.8939 14.6433 66.2437 14.6933 66.5637 14.8133L66.8438 14.9533C67.6737 15.4233 68.0837 16.3633 68.0837 17.7733H68.0737Z" class="pr-icon-iso-duotone-primary-stroke" stroke-linejoin="round"/>
    <path d="M94.7937 42.0333C94.3037 41.7933 93.6936 41.7433 92.9736 41.9033C91.8236 42.1533 90.7336 42.9233 89.7236 44.2133C88.7136 45.5033 88.0336 46.9133 87.6736 48.4433L86.0437 56.3333C85.9037 57.0833 85.9536 57.6733 86.2136 58.1033C86.3036 58.2633 86.4137 58.3833 86.5437 58.4533L81.1436 55.7533C81.5536 55.5033 81.9535 55.1333 82.3135 54.6433C82.8535 53.9133 83.1636 53.1633 83.2336 52.3733L84.4236 38.6433C84.4936 37.9333 84.4535 37.3333 84.3235 36.8233L94.7937 42.0333Z" class="pr-icon-iso-duotone-primary-stroke" stroke-linejoin="round"/>
    <path d="M86.6138 58.4933L86.5439 58.4533" class="pr-icon-iso-duotone-primary-stroke" stroke-linejoin="round"/>
    <path d="M84.4243 38.6433L83.2343 52.3733C83.1643 53.1633 82.8542 53.9133 82.3142 54.6433C81.9542 55.1333 81.5542 55.5033 81.1442 55.7533C80.9442 55.8833 80.7344 55.9733 80.5244 56.0433L77.8242 56.8233L76.1943 57.3033C75.7943 57.4233 75.4643 57.4233 75.2043 57.2933L75.1342 57.2533C75.0442 57.2133 74.9642 57.1433 74.8942 57.0633C74.6042 56.7333 74.5042 56.2133 74.5742 55.5133L74.6042 55.2133L74.8442 52.6033L75.7644 42.6533C75.9044 41.1533 76.4342 39.7133 77.3342 38.3233C78.2342 36.9333 79.3044 35.9733 80.5244 35.4233C80.7244 35.3333 80.9142 35.2633 81.0942 35.2133H81.1042C81.7142 35.0233 82.2443 34.9933 82.7243 35.1233C82.7943 35.1433 82.8643 35.1633 82.9343 35.1833L83.1943 35.3133C83.3043 35.3633 83.4043 35.4333 83.5043 35.5133C83.9043 35.8233 84.1742 36.2533 84.3242 36.8133C84.4542 37.3333 84.4943 37.9333 84.4243 38.6433Z" class="pr-icon-iso-duotone-primary-stroke" stroke-linejoin="round"/>
    <path d="M82.9338 35.1833C82.8638 35.1633 82.7939 35.1433 82.7239 35.1233C82.2439 34.9933 81.7138 35.0233 81.1038 35.2133H81.0938C80.9137 35.2633 80.7239 35.3333 80.5239 35.4233C79.3039 35.9733 78.2337 36.9333 77.3337 38.3233C76.4337 39.7133 75.9039 41.1533 75.7639 42.6533L74.8438 52.6033L74.6038 55.2133L74.5737 55.5133C74.5037 56.2133 74.6038 56.7333 74.8938 57.0633C74.9638 57.1433 75.0438 57.2133 75.1338 57.2533L71.8638 55.6233L68.0737 53.7233V42.6133C68.0737 41.5133 67.8237 40.6933 67.3137 40.1733C67.1737 40.0233 67.0137 39.8933 66.8337 39.7933L66.5837 39.6733L63.5938 38.1733L60.6738 36.7133C60.9538 36.7133 61.2537 36.6133 61.5837 36.4233L63.8638 35.1033L65.9138 33.9233C66.4938 33.5933 66.9938 33.0533 67.4238 32.3033C67.8638 31.5633 68.0737 30.8533 68.0737 30.1933V27.8033L82.9338 35.1833Z" class="pr-icon-iso-duotone-primary-stroke" stroke-linejoin="round"/>
    <path d="M98.7337 17.9533C98.2737 17.8033 97.7236 17.8433 97.0836 18.0333C95.5736 18.5033 94.4537 19.8033 93.7337 21.9633C93.0137 24.1233 92.3936 26.3333 91.8936 28.6133L90.4837 35.1433C90.3437 35.8833 90.4137 36.4833 90.7037 36.9433C90.8037 37.1133 90.9336 37.2333 91.0836 37.3133L77.5636 31.7333L77.4337 31.6833C77.3637 31.6433 77.2937 31.6033 77.2237 31.5533C76.8237 31.2433 76.6637 30.7433 76.7337 30.0333L77.0936 25.7233C77.3536 25.5433 77.6036 25.2933 77.8436 24.9933C78.3536 24.3733 78.6736 23.6833 78.8236 22.9333L80.0137 17.4033C80.2837 16.1033 80.4537 14.8933 80.5137 13.7533C81.0837 13.2133 81.7036 12.7933 82.3636 12.5033C83.2236 12.1233 83.9736 12.0233 84.6036 12.2133L85.0137 12.3733H85.0338L98.7337 17.9533Z" class="pr-icon-iso-duotone-primary-stroke" stroke-linejoin="round"/>
    <path d="M84.6038 12.2133L84.5439 12.1833" class="pr-icon-iso-duotone-primary-stroke" stroke-linejoin="round"/>
    <path d="M66.5542 14.8133C66.2342 14.6933 65.8844 14.6433 65.5144 14.6733H65.5044C64.9744 14.7233 64.3844 14.9333 63.7444 15.3033C62.5244 16.0133 61.4943 17.0833 60.6643 18.5133C60.1343 19.4233 59.7742 20.3233 59.5842 21.2233C59.4942 21.6333 59.4343 22.0533 59.4243 22.4633C59.4143 22.5633 59.4143 22.6733 59.4143 22.7733V35.1933C59.4143 35.6233 59.5043 35.9733 59.7043 36.2233C59.7943 36.3733 59.9042 36.4733 60.0542 36.5533L55.6042 34.3233L47.2644 30.1333L46.0942 29.5433H46.0842L40.1943 26.6233L40.0542 26.5533C39.6242 26.3133 39.4043 25.8533 39.4043 25.1933V12.7733C39.4043 11.3633 39.8243 9.94331 40.6543 8.51331C41.4843 7.08331 42.5144 6.01332 43.7344 5.30332C44.9644 4.59332 45.9942 4.47331 46.8242 4.95331L57.5444 10.3133L65.5344 14.3033L66.5444 14.8133H66.5542Z" class="pr-icon-iso-duotone-primary-stroke" stroke-linejoin="round"/>
    <path d="M29.5441 81.4833C29.3841 81.4133 29.2238 81.3433 29.0538 81.2933C28.3038 81.0433 27.524 81.0733 26.714 81.3933C25.844 81.7233 24.944 82.3633 24.014 83.3333C23.154 84.2433 22.7039 85.2733 22.6639 86.4133C22.6439 86.9533 22.674 87.4733 22.754 87.9633C22.794 88.3433 22.884 88.7133 22.994 89.0633C23.044 89.2233 23.0939 89.3833 23.1539 89.5433L26.4039 97.6033C26.5239 97.8933 26.6939 98.0933 26.9239 98.2133L11.8839 90.6833L7.00402 88.2433L6.82385 88.1533C6.64385 88.0333 6.50393 87.8533 6.40393 87.6033L3.15393 79.5433C2.79393 78.5933 2.62394 77.5533 2.66394 76.4133C2.70394 75.2733 3.15403 74.2433 4.01403 73.3333C5.82403 71.4633 7.50383 70.7833 9.05383 71.2933C9.21383 71.3433 9.37404 71.4033 9.52404 71.4733L9.79406 71.6033L26.1139 79.7633L29.1339 81.2833L29.5441 81.4833Z" class="pr-icon-iso-duotone-primary-stroke" stroke-linejoin="round"/>
    <path d="M78.8237 7.98331C78.3437 7.80331 77.7637 7.8333 77.0837 8.0333C75.5737 8.5033 74.4539 9.80329 73.7339 11.9633C73.0139 14.1233 72.3938 16.3333 71.8938 18.6133L70.4839 25.1433C70.3439 25.8833 70.4139 26.4833 70.7039 26.9433C70.8039 27.1033 70.9237 27.2233 71.0637 27.3033L68.0737 26.0633V17.7733C68.0737 16.3633 67.6637 15.4233 66.8337 14.9533L66.5537 14.8133L65.5439 14.3033L57.5537 10.3133L57.6038 9.7233C57.7438 8.2333 58.2738 6.79329 59.1738 5.40329C60.0738 4.01329 61.1438 3.0433 62.3638 2.5033C63.2738 2.1033 64.0539 2.01331 64.7039 2.23331L78.8237 7.98331Z" class="pr-icon-iso-duotone-primary-stroke" stroke-linejoin="round"/>
    <path d="M79.1235 8.1033L79.0137 8.06329" class="pr-icon-iso-duotone-primary-stroke" stroke-linejoin="round"/>
</svg>