<svg width="24" height="24" viewBox="0 0 100 114" class="pr-icon-iso-duotone-secondary" xmlns="http://www.w3.org/2000/svg" stroke-width="1px" stroke-linecap="round" stroke-linejoin="round">
    <path d="M96.04 53.14L91.3101 46.32L77.55 54.27L70.5601 72.45L77.55 82.56L86.49 77.4C87.99 76.53 89.3801 75.3 90.6501 73.7C91.9101 72.1 92.9202 70.34 93.6802 68.41L96.04 62.33C96.79 60.49 97.1702 58.74 97.1702 57.09C97.1702 55.44 96.79 54.12 96.04 53.14Z" class="pr-icon-iso-duotone-primary-stroke" stroke-linejoin="round"/>
    <path d="M97.1702 24.08C97.1702 25.73 96.79 27.48 96.04 29.33L91.3101 41.6L86.9302 44.13L77.55 49.55L77.04 48.81L70.5601 39.44L71.6001 36.74L71.6902 36.51L77.55 21.26L86.49 16.1C87.99 15.23 89.3801 14.86 90.6501 14.99C91.1201 15.04 91.56 15.16 91.96 15.34C92.63 15.64 93.2102 16.12 93.6802 16.78L96.04 20.13C96.79 21.11 97.1702 22.43 97.1702 24.08Z" class="pr-icon-iso-duotone-primary-stroke" stroke-linejoin="round"/>
    <path d="M49.0901 51.84L44.8 63.41L42.9202 68.47L42.5701 69.42L42.4102 69.84L38.04 72.36L37.78 72.51L33.4102 75.04L32.9402 75.31L28.6501 77.79L28.22 77.17L23.9202 70.96C23.1702 69.99 22.79 68.67 22.79 67.02C22.79 66.47 22.8302 65.91 22.9202 65.34C22.9402 65.18 22.97 65.02 23 64.85C23.18 63.86 23.4902 62.83 23.9202 61.77L26.28 55.69C27.04 53.76 28.0501 52 29.3101 50.4C29.6201 50.02 29.93 49.65 30.24 49.31C31.26 48.23 32.33 47.36 33.47 46.7L37.77 44.22L42.1501 41.69L42.4102 41.54L42.6702 41.94L47.2 48.93L49.0901 51.84Z" class="pr-icon-iso-duotone-primary-stroke" stroke-linejoin="round"/>
    <path d="M49.0901 84.84L45.1101 95.57L42.9202 101.47L42.4102 102.85L39.6501 104.44L33.47 108.01C31.97 108.88 30.5801 109.24 29.3101 109.11C28.7701 109.05 28.2801 108.91 27.8401 108.69C27.2401 108.39 26.72 107.93 26.28 107.32L23.9202 103.97C23.1702 102.99 22.79 101.68 22.79 100.03C22.79 98.38 23.1702 96.63 23.9202 94.78L28.6501 82.5L30.6101 81.37L37.78 77.23L42.1501 74.7L42.4102 74.55L42.6702 74.95L47.21 81.94L49.0901 84.84Z" class="pr-icon-iso-duotone-primary-stroke" stroke-linejoin="round"/>
    <path d="M91.9602 15.34C91.5602 15.16 91.1204 15.04 90.6504 14.99C89.3804 14.86 87.9902 15.23 86.4902 16.1L77.5503 21.26L72.1003 18.51L69.2302 14.39C68.7702 13.77 68.2403 13.3 67.6003 13L67.4404 12.92L60.6104 9.49999L66.4902 6.1C67.9902 5.23 69.3804 4.85998 70.6504 4.98998C70.9804 5.02998 71.2903 5.08999 71.5803 5.18999H71.6003C71.7603 5.24999 71.9203 5.32 72.0703 5.39L72.1003 5.40999L91.9602 15.34Z" class="pr-icon-iso-duotone-primary-stroke" stroke-linejoin="round"/>
    <path d="M53.0999 84.89L46.1099 103.07L42.9199 101.47L45.1099 95.57L49.0898 84.84L47.2097 81.95L51.1997 83.94L53.0999 84.89Z" class="pr-icon-iso-duotone-primary-stroke" stroke-linejoin="round"/>
    <path d="M67.4404 12.92C67.0604 12.76 66.6402 12.66 66.2002 12.61C64.9302 12.47 63.5403 12.84 62.0303 13.71L57.9304 16.08C56.7804 16.74 55.7104 17.61 54.6904 18.69C54.3804 19.03 54.0703 19.4 53.7603 19.78C52.5003 21.38 51.4902 23.14 50.7302 25.07L47.2402 34.12L47.1504 34.35L46.1104 37.05L43.6204 35.8L39.2402 33.62L26.1104 27.05L30.7302 15.07C31.4902 13.14 32.5003 11.38 33.7603 9.78001C35.0303 8.19001 36.4204 6.95 37.9304 6.08L42.0303 3.71C43.5403 2.84 44.9302 2.47003 46.2002 2.61003C46.5502 2.65003 46.8704 2.72 47.1804 2.83C47.3804 2.9 47.5702 2.98 47.7502 3.08L60.6003 9.50001H60.6104L67.4404 12.92Z" class="pr-icon-iso-duotone-primary-stroke" stroke-linejoin="round"/>
    <path d="M52.3103 110.77L39.6504 104.44L42.4104 102.85L42.9204 101.47L46.1104 103.07L51.1404 109.71C51.4804 110.15 51.8703 110.51 52.3103 110.77Z" class="pr-icon-iso-duotone-primary-stroke" stroke-linejoin="round"/>
    <path d="M42.4102 41.54L42.1501 41.69L37.77 44.22L33.47 46.7C32.33 47.36 31.26 48.23 30.24 49.31C29.93 49.65 29.6201 50.02 29.3101 50.4C28.0501 52 27.04 53.76 26.28 55.69L23.9202 61.77C23.4902 62.83 23.18 63.86 23 64.85C22.97 65.02 22.9402 65.18 22.9202 65.34C22.8302 65.91 22.79 66.47 22.79 67.02C22.79 68.67 23.1702 69.99 23.9202 70.96L28.22 77.17L28.6501 77.79L28.1001 77.51L13.02 69.98L8.65015 67.79L3.92017 60.96C3.17017 59.99 2.79004 58.67 2.79004 57.02C2.79004 55.37 3.17017 53.62 3.92017 51.77L6.28003 45.69C7.04003 43.76 8.05006 42 9.31006 40.4C10.5801 38.81 11.97 37.57 13.47 36.7L22.4102 31.54L32.8101 36.74L33.3601 37.01L37.73 39.2L42.4102 41.54Z" class="pr-icon-iso-duotone-primary-stroke" stroke-linejoin="round"/>
    <path d="M27.8401 108.69L7.84009 98.69C7.24009 98.39 6.72003 97.93 6.28003 97.32L3.92017 93.97C3.17017 92.99 2.79004 91.68 2.79004 90.03C2.79004 88.38 3.17017 86.63 3.92017 84.78L8.65015 72.5L28.6501 82.5L23.9202 94.78C23.1702 96.63 22.79 98.38 22.79 100.03C22.79 101.68 23.1702 102.99 23.9202 103.97L26.28 107.32C26.72 107.93 27.2401 108.39 27.8401 108.69Z" class="pr-icon-iso-duotone-primary-stroke" stroke-linejoin="round"/>
    <path d="M42.4104 74.55L42.1504 74.7L37.7803 77.23L30.6104 81.37L28.6504 82.5L8.65039 72.5L13.0203 69.98L28.1003 77.51L28.6504 77.79L32.9404 75.31L33.4104 75.04L37.7803 72.51L38.0403 72.36L42.4104 74.55Z" class="pr-icon-iso-duotone-primary-stroke" stroke-linejoin="round"/>
    <path d="M91.3103 46.32L77.5503 54.27L75.6504 53.32L72.1304 51.56L67.1504 44.35L76.9602 49.26L77.5503 49.55L86.9304 44.13L91.3103 46.32Z" class="pr-icon-iso-duotone-primary-stroke" stroke-linejoin="round"/>
    <path d="M73.8503 87.05L69.2302 99.04C68.4702 100.96 67.4602 102.73 66.2002 104.32C64.9302 105.92 63.5403 107.15 62.0303 108.02L58.1304 110.27C56.6904 111.1 55.3604 111.46 54.1204 111.35C53.6604 111.31 53.2403 111.21 52.8503 111.04H52.8403L52.3103 110.77C51.8703 110.51 51.4804 110.15 51.1404 109.71L46.1104 103.07L53.1003 84.89L66.6003 77.09L66.8604 76.94L67.1504 77.36L73.8503 87.05Z" class="pr-icon-iso-duotone-primary-stroke" stroke-linejoin="round"/>
    <path d="M53.1003 47.16L52.7302 46.97L42.6704 41.95V41.94L42.4104 41.54L37.7302 39.2L33.3604 37.01L32.8103 36.74L26.1104 27.05L39.2402 33.62L43.6204 35.8L46.1104 37.05L52.8103 46.75L53.1003 47.16Z" class="pr-icon-iso-duotone-primary-stroke" stroke-linejoin="round"/>
    <path d="M77.5498 54.27L70.5598 72.45L67.3799 70.86L69.7197 64.78L73.8499 54.05L72.1299 51.56L75.6499 53.32L77.5498 54.27Z" class="pr-icon-iso-duotone-primary-stroke" stroke-linejoin="round"/>
    <path d="M53.1001 80.17L52.72 79.98L42.6702 74.96V74.95L42.4102 74.55L38.04 72.36L42.4102 69.84L42.5701 69.42L42.9202 68.47L43.6201 68.81L46.1101 70.06L52.8101 79.75L53.1001 80.17Z" class="pr-icon-iso-duotone-primary-stroke" stroke-linejoin="round"/>
    <path d="M73.8503 54.05L69.7202 64.78L67.3804 70.86L66.8604 72.22L62.4802 74.75L62.2302 74.9L53.1003 80.17L52.8103 79.75L46.1104 70.06L47.1504 67.36L47.2402 67.13L53.1003 51.88L55.0603 50.75L62.2302 46.61L66.6003 44.08L66.8604 43.93L67.1504 44.35L72.1304 51.56L73.8503 54.05Z" class="pr-icon-iso-duotone-primary-stroke" stroke-linejoin="round"/>
    <path d="M77.5503 49.55L76.9602 49.26L67.1504 44.35L66.8604 43.93L62.4902 41.74L66.8604 39.22L67.0203 38.8L67.3904 37.85L68.0703 38.19L70.5603 39.44L77.0403 48.81L77.5503 49.55Z" class="pr-icon-iso-duotone-primary-stroke" stroke-linejoin="round"/>
    <path d="M66.8599 43.93L66.5999 44.08L62.2297 46.61L55.0598 50.75L53.0999 51.88L51.1997 50.93L47.1997 48.93L42.6699 41.95L52.7297 46.97L53.0999 47.16L57.3899 44.68L57.8499 44.42L62.2297 41.89L62.4897 41.74L66.8599 43.93Z" class="pr-icon-iso-duotone-primary-stroke" stroke-linejoin="round"/>
    <path d="M53.0999 51.88L47.2397 67.13L47.1499 67.36L46.1099 70.06L43.6199 68.81L42.9199 68.47L44.7998 63.41L49.0898 51.84L47.1997 48.93L51.1997 50.93L53.0999 51.88Z" class="pr-icon-iso-duotone-primary-stroke" stroke-linejoin="round"/>
    <path d="M66.8599 76.94L66.5999 77.09L53.0999 84.89L51.1997 83.94L47.2097 81.95V81.94L42.6699 74.96L52.7197 79.98L53.0999 80.17L62.2297 74.9L62.4797 74.75L66.8599 76.94Z" class="pr-icon-iso-duotone-primary-stroke" stroke-linejoin="round"/>
    <path d="M77.55 82.56L67.1501 77.36L66.8601 76.94L62.48 74.75L66.8601 72.22L67.3801 70.86L70.5601 72.45L77.55 82.56Z" class="pr-icon-iso-duotone-primary-stroke" stroke-linejoin="round"/>
    <path d="M77.55 21.26L71.6902 36.51L71.6001 36.74L70.5601 39.44L68.0701 38.19L67.3901 37.85L69.3601 32.73L73.8501 21.04L72.1001 18.51L77.55 21.26Z" class="pr-icon-iso-duotone-primary-stroke" stroke-linejoin="round"/>
    <path d="M73.8503 21.04L69.3604 32.73L67.3904 37.85L67.0203 38.8L66.8604 39.22L62.4902 41.74L62.2302 41.89L57.8503 44.42L57.3904 44.68L53.1003 47.16L52.8103 46.75L46.1104 37.05L47.1504 34.35L47.2402 34.12L50.7302 25.07C51.4902 23.14 52.5003 21.38 53.7603 19.78C54.0703 19.4 54.3804 19.03 54.6904 18.69C55.7104 17.61 56.7804 16.74 57.9304 16.08L62.0303 13.71C63.5403 12.84 64.9302 12.47 66.2002 12.61C66.6402 12.66 67.0604 12.76 67.4404 12.92L67.6003 13C68.2403 13.3 68.7702 13.77 69.2302 14.39L72.1003 18.51L73.8503 21.04Z" class="pr-icon-iso-duotone-primary-stroke" stroke-linejoin="round"/>
    <path d="M92.1702 15.44L91.96 15.34" class="pr-icon-iso-duotone-primary-stroke" stroke-linejoin="round"/>
    <path d="M67.8303 13.11L67.4404 12.92" class="pr-icon-iso-duotone-primary-stroke" stroke-linejoin="round"/>
</svg>