<svg width="48" height="48" viewBox="0 0 103 80" class="pr-icon-iso-duotone-secondary"
     xmlns="http://www.w3.org/2000/svg" stroke-width="1px" stroke-linecap="round" stroke-linejoin="round">
    <path d="M93.3411 56.89L31.8611 21.73L31.6311 21.62C31.0211 21.37 30.331 21.44 29.541 21.84C29.451 21.87 29.371 21.92 29.281 21.97C28.281 22.55 27.4212 23.46 26.6912 24.71C26.0312 25.93 25.7012 27.11 25.7012 28.26C25.7012 29.41 26.0312 30.16 26.6912 30.54L33.491 34.42C33.241 34.74 32.981 35.06 32.751 35.39C29.831 39.23 27.4711 43.44 25.6511 48C25.0611 49.48 24.5611 50.94 24.1611 52.38C23.1911 55.78 22.7012 59.08 22.7012 62.29C22.7012 63.44 22.7611 64.53 22.8811 65.55C23.4611 70.71 25.521 74.3 29.051 76.32C33.281 78.73 38.4212 78.19 44.4712 74.7C48.4612 72.4 52.1112 69.16 55.4412 64.98C58.5012 61.14 60.9711 57 62.8511 52.57C63.0211 52.19 63.1811 51.81 63.3311 51.43L70.4612 55.5L88.261 65.65C88.931 66.02 89.781 65.92 90.801 65.32C91.831 64.73 92.6811 63.86 93.3411 62.71C94.0711 61.46 94.4211 60.27 94.3911 59.15C94.3611 58.02 94.0111 57.27 93.3411 56.89ZM54.7112 47.92C54.0812 50.45 52.931 52.99 51.271 55.53C49.331 58.48 47.0712 60.71 44.4712 62.21C41.4412 63.96 38.871 64.23 36.761 63.02C34.881 61.95 33.8411 59.99 33.6311 57.13C33.6011 56.77 33.5911 56.4 33.5911 56.01C33.5911 53.23 34.331 50.26 35.811 47.08C37.291 43.9 39.3011 41.26 41.8411 39.17L43.8811 40.34L48.4111 42.92L52.9512 45.51L54.991 46.67C54.911 47.09 54.8212 47.5 54.7112 47.92Z" class="pr-icon-iso-duotone-primary-stroke" stroke-linejoin="round"/>
    <path d="M100.962 17.01C100.962 17.56 100.881 18.13 100.731 18.7C100.581 19.27 100.332 19.87 99.9617 20.5L90.5315 36.76C90.1715 37.39 89.7916 37.92 89.4016 38.35C89.0116 38.79 88.5415 39.16 87.9915 39.48C87.4515 39.79 86.9816 39.97 86.5916 40.03C86.1916 40.08 85.8217 40 85.4517 39.8L80.7415 37.11L80.4717 37.68L66.9216 29.95L65.6016 29.2L70.8816 26.15L93.8015 12.92C94.2815 12.64 94.7517 12.48 95.2017 12.42C95.5717 12.38 95.8816 12.41 96.1516 12.51L96.3416 12.6L99.8716 14.62C100.232 14.82 100.512 15.14 100.692 15.55C100.872 15.97 100.962 16.45 100.962 17.01Z" class="pr-icon-iso-duotone-primary-stroke" stroke-linejoin="round"/>
    <path d="M88.2615 65.65L68.2615 55.65L62.8516 52.57C63.0216 52.19 63.1815 51.81 63.3315 51.43L70.4617 55.5L88.2615 65.65Z" class="pr-icon-iso-duotone-primary-stroke" stroke-linejoin="round"/>
    <path d="M54.9907 46.67C54.9107 47.09 54.8209 47.5 54.7109 47.92C54.0809 50.45 52.9308 52.99 51.2708 55.53C49.3308 58.48 47.0709 60.71 44.4709 62.21C41.4409 63.96 38.8707 64.23 36.7607 63.02C34.8807 61.95 33.8409 59.99 33.6309 57.13C33.6009 56.77 33.5908 56.4 33.5908 56.01C33.5908 53.23 34.3308 50.26 35.8108 47.08C37.2908 43.9 39.3008 41.26 41.8408 39.17L43.8809 40.34L48.4109 42.92L52.9509 45.51L54.9907 46.67Z" class="pr-icon-iso-duotone-primary-stroke" stroke-linejoin="round"/>
    <path d="M33.4912 34.42L13.4912 24.42L6.69141 20.54L26.6914 30.54L33.4912 34.42Z" class="pr-icon-iso-duotone-primary-stroke" stroke-linejoin="round"/>
    <path d="M24.1611 52.38C23.1911 55.78 22.7012 59.08 22.7012 62.29C22.7012 63.44 22.7611 64.53 22.8811 65.55C23.4611 70.71 25.521 74.3 29.051 76.32L9.99097 66.79L9.05103 66.32C4.82103 63.9 2.70117 59.23 2.70117 52.29C2.70117 47.71 3.69112 42.95 5.65112 38C7.62112 33.05 10.231 28.52 13.491 24.42L33.491 34.42C33.241 34.74 32.981 35.06 32.751 35.39C29.831 39.23 27.4711 43.44 25.6511 48C25.0611 49.48 24.5611 50.94 24.1611 52.38Z" class="pr-icon-iso-duotone-primary-stroke" stroke-linejoin="round"/>
    <path d="M80.4717 37.68L60.4717 27.68L45.6016 19.2L65.6016 29.2L66.9216 29.95L80.4717 37.68Z" class="pr-icon-iso-duotone-primary-stroke" stroke-linejoin="round"/>
    <path d="M96.1516 12.51C95.8816 12.41 95.5717 12.38 95.2017 12.42C94.7517 12.48 94.2815 12.64 93.8015 12.92L70.8816 26.15L65.6016 29.2L45.6016 19.2L73.8015 2.92C74.2815 2.64 74.7517 2.48 75.2017 2.42C75.6617 2.37 76.0316 2.43 76.3416 2.6L96.1516 12.51Z" class="pr-icon-iso-duotone-primary-stroke" stroke-linejoin="round"/>
    <path d="M31.6311 21.62C31.0211 21.37 30.331 21.44 29.541 21.84C29.451 21.87 29.371 21.92 29.281 21.97C28.281 22.55 27.4212 23.46 26.6912 24.71C26.0312 25.93 25.7012 27.11 25.7012 28.26C25.7012 29.41 26.0312 30.16 26.6912 30.54L6.69116 20.54C6.03116 20.16 5.70117 19.4 5.70117 18.26C5.70117 17.12 6.03116 15.93 6.69116 14.71C7.42116 13.46 8.28101 12.55 9.28101 11.97C10.281 11.4 11.1411 11.32 11.8611 11.73L31.6311 21.62Z" class="pr-icon-iso-duotone-primary-stroke" stroke-linejoin="round"/>
</svg>