<svg width="48" height="48" viewBox="0 0 96 125" class="pr-icon-iso-duotone-secondary"
     xmlns="http://www.w3.org/2000/svg" stroke-width="1px" stroke-linecap="round" stroke-linejoin="round">
    <path d="M93.2096 60.6601C93.2096 62.7201 92.6296 64.7501 91.4696 66.7501L62.3196 117.03C61.6796 118.12 60.9996 119.03 60.2596 119.76C59.5196 120.49 58.7196 121.1 57.8796 121.59C57.0296 122.08 56.2396 122.38 55.4996 122.51C54.7596 122.63 54.0796 122.51 53.4396 122.15L36.2096 112.33L24.2896 105.53C23.1296 104.87 22.5296 103.56 22.4696 101.59C22.4196 99.6201 23.0296 97.5401 24.2896 95.3501C25.4596 93.3501 26.9396 91.8301 28.7296 90.7901C29.3796 90.4201 29.9796 90.1601 30.5396 90.0101C31.3896 89.7701 32.1496 89.7901 32.8196 90.0601L33.1696 90.2301L38.4296 93.1901L47.4096 98.2501L57.8796 104.14L82.5896 61.6901C83.7596 59.6901 85.2096 58.1601 86.9496 57.0901C88.5096 56.1301 89.8896 55.8901 91.0796 56.3801L91.4696 56.5701C92.6296 57.2301 93.2096 58.6001 93.2096 60.6601Z" class="pr-icon-iso-duotone-primary-stroke" stroke-linejoin="round"/>
    <path d="M91.0797 56.3801C89.8897 55.8901 88.5097 56.1301 86.9497 57.0901C85.2097 58.1601 83.7597 59.6901 82.5897 61.6901L57.8797 104.14L47.4097 98.2501L38.4297 93.1901L48.4297 76.0201L53.4397 78.5201C54.0797 78.8801 54.7597 79.0001 55.4997 78.8801C56.2397 78.7601 57.0297 78.4501 57.8797 77.9601C58.6897 77.4901 59.4697 76.9101 60.1897 76.2001C60.2097 76.1801 60.2397 76.1601 60.2597 76.1401C60.9997 75.4101 61.6797 74.4901 62.3197 73.4001L76.4397 49.0501L91.0797 56.3801Z" class="pr-icon-iso-duotone-primary-stroke" stroke-linejoin="round"/>
    <path d="M93.2096 17.0301C93.2096 19.0901 92.6296 21.1201 91.4696 23.1201L76.4396 49.0501L62.3196 73.4001C61.6796 74.4901 60.9996 75.4101 60.2596 76.1401C60.2396 76.1601 60.2096 76.1801 60.1896 76.2001C59.4696 76.9101 58.6896 77.4901 57.8796 77.9601C57.0296 78.4501 56.2396 78.7601 55.4996 78.8801C54.7596 79.0001 54.0796 78.8801 53.4396 78.5201L48.5796 75.7501L36.2196 68.7001L24.2896 61.9001C23.1296 61.2401 22.5296 59.9301 22.4696 57.9601C22.4196 55.9901 23.0296 53.9101 24.2896 51.7201C25.4596 49.7201 26.9396 48.2001 28.7296 47.1601C29.3796 46.7901 29.9796 46.5301 30.5396 46.3801C31.3896 46.1401 32.1496 46.1601 32.8196 46.4301L33.0596 46.5501C33.0596 46.5501 33.1296 46.5801 33.1696 46.6001L38.4296 49.5601L47.4096 54.6201L57.5596 60.3301L57.8796 60.5101L64.5496 49.0501C64.5496 49.0501 64.5496 49.0401 64.5596 49.0401L82.5896 18.0701C83.7596 16.0601 85.2096 14.5301 86.9496 13.4601C88.5096 12.5001 89.8896 12.2601 91.0796 12.7501L91.4696 12.9401C92.6296 13.6101 93.2096 14.9701 93.2096 17.0301Z" class="pr-icon-iso-duotone-primary-stroke" stroke-linejoin="round"/>
    <path d="M91.0797 12.7501C89.8897 12.2601 88.5097 12.5001 86.9497 13.4601C85.2097 14.5301 83.7597 16.0601 82.5897 18.0701L64.5597 49.0401L64.5497 49.0501L57.8797 60.5101L57.5597 60.3301L47.4097 54.6201L38.4297 49.5601L62.5897 8.0701C63.7597 6.0601 65.2097 4.5301 66.9497 3.4601C68.6897 2.3901 70.1997 2.2201 71.4697 2.9401L91.0797 12.7501Z" class="pr-icon-iso-duotone-primary-stroke" stroke-linejoin="round"/>
    <path d="M53.4396 78.5201L48.4296 76.0201L33.7996 68.7001L33.4396 68.5201L4.28958 51.9001C3.12958 51.2401 2.52964 49.9301 2.46964 47.9601C2.41964 45.9901 3.02958 43.9101 4.28958 41.7201C5.45958 39.7201 6.93959 38.2001 8.72959 37.1601C10.5296 36.1301 11.9996 35.9401 13.1696 36.6001L32.8196 46.4301C32.1496 46.1601 31.3896 46.1401 30.5396 46.3801C29.9796 46.5301 29.3796 46.7901 28.7296 47.1601C26.9396 48.2001 25.4596 49.7201 24.2896 51.7201C23.0296 53.9101 22.4196 55.9901 22.4696 57.9601C22.5296 59.9301 23.1296 61.2401 24.2896 61.9001L36.2196 68.7001L48.5796 75.7501L53.4396 78.5201Z" class="pr-icon-iso-duotone-primary-stroke" stroke-linejoin="round"/>
    <path d="M53.4396 122.15L33.4396 112.15L4.28958 95.5301C3.12958 94.8701 2.52964 93.5601 2.46964 91.5901C2.41964 89.6201 3.02958 87.5401 4.28958 85.3501C5.45958 83.3501 6.93959 81.8301 8.72959 80.7901C10.5296 79.7601 11.9996 79.5701 13.1696 80.2301L32.8196 90.0601C32.1496 89.7901 31.3896 89.7701 30.5396 90.0101C29.9796 90.1601 29.3796 90.4201 28.7296 90.7901C26.9396 91.8301 25.4596 93.3501 24.2896 95.3501C23.0296 97.5401 22.4196 99.6201 22.4696 101.59C22.5296 103.56 23.1296 104.87 24.2896 105.53L36.2096 112.33L53.4396 122.15Z" class="pr-icon-iso-duotone-primary-stroke" stroke-linejoin="round"/>
</svg>