<svg width="24" height="24" viewBox="0 0 106 105" class="pr-icon-iso-duotone-secondary" xmlns="http://www.w3.org/2000/svg" stroke-width="1px" stroke-linecap="round" stroke-linejoin="round">
    <path d="M80.8301 13.6064L82.1501 14.2664C81.7201 14.0264 81.2801 13.7964 80.8301 13.6064Z" class="pr-icon-iso-duotone-primary-stroke" stroke-linejoin="round"/>
    <path d="M63.2295 33.4965C63.2295 35.4365 62.6796 37.3565 61.5796 39.2565C61.3096 39.7165 61.0295 40.1465 60.7295 40.5565C60.4395 40.9465 60.1396 41.3065 59.8096 41.6465C59.7696 41.6965 59.7194 41.7465 59.6694 41.7965C58.9794 42.4965 58.2197 43.0865 57.3997 43.5665C55.7097 44.5365 54.3195 44.7065 53.2195 44.0865C52.1095 43.4565 51.5596 42.1765 51.5596 40.2365C51.5596 38.9365 51.8096 37.6365 52.3196 36.3465C52.5596 35.7265 52.8595 35.1065 53.2195 34.4865C53.9295 33.2565 54.7695 32.2165 55.7295 31.3765C56.2495 30.9165 56.8097 30.5165 57.3997 30.1765C58.2497 29.6765 59.0295 29.3965 59.7295 29.3065C60.2795 29.2465 60.7895 29.3065 61.2495 29.4965L61.5796 29.6565C62.0096 29.9065 62.3596 30.2565 62.6196 30.7065C62.6696 30.7765 62.7095 30.8565 62.7495 30.9365C63.0695 31.5965 63.2295 32.4465 63.2295 33.4965Z" class="pr-icon-iso-duotone-primary-stroke" stroke-linejoin="round"/>
    <path d="M103.4 29.3362C103.4 30.5662 103.009 31.8462 102.229 33.1962L91.2395 52.1462C90.4595 53.4862 89.5495 54.4562 88.5195 55.0562C87.4795 55.6562 86.5696 55.7362 85.7896 55.2862L74.7095 48.9662C73.9295 48.5262 73.5596 47.6962 73.5896 46.4962C73.6196 45.2862 74.0296 44.0062 74.8096 42.6662C75.5796 41.3962 76.4895 40.4462 77.5295 39.8062C78.4595 39.2362 79.2795 39.1062 80.0095 39.3962L80.2495 39.5162L84.6296 42.0162V41.2362C84.6296 34.8262 83.1595 29.9662 80.2295 26.6462C79.2095 25.4962 78.0197 24.5262 76.6497 23.7462C76.1297 23.4462 75.6096 23.1862 75.0696 22.9662C74.1396 22.5762 73.1794 22.2862 72.1794 22.1162C69.5294 21.6262 66.6596 21.8862 63.5596 22.8962C61.5996 23.5362 59.5497 24.4662 57.3997 25.7062C56.8297 26.0362 56.2695 26.3762 55.7195 26.7262C52.6895 28.6662 49.8495 31.0162 47.1895 33.7862C47.1895 33.7862 47.1794 33.7862 47.1694 33.7962C45.6694 35.3562 44.2196 37.0562 42.8396 38.8962C41.1796 41.0662 39.6196 43.4262 38.1396 45.9762C35.0996 51.2162 32.9296 56.3762 31.6396 61.4462C31.2196 63.0662 30.8897 64.6662 30.6497 66.2662C30.3297 68.4162 30.1694 70.5562 30.1694 72.6762C30.1894 75.8162 30.5596 78.5862 31.2896 80.9862C32.1696 83.9362 33.5795 86.3262 35.5195 88.1662C36.3195 88.9162 37.2095 89.5762 38.1895 90.1362C43.4795 93.1862 49.8797 92.5462 57.3997 88.1962C60.4497 86.4462 63.3095 84.2662 65.9995 81.6662C68.6995 79.0762 71.1795 76.1562 73.4395 72.9062C74.3495 71.6462 75.3196 70.7062 76.3596 70.1062C77.2896 69.5762 78.0895 69.4462 78.7695 69.7162L78.9895 69.8262C79.7695 70.2662 80.1695 71.1062 80.1995 72.3562C80.2395 73.6062 79.7996 74.8962 78.8896 76.2362C75.9096 80.6362 72.5995 84.6262 68.9695 88.2162C65.3395 91.7962 61.4797 94.7662 57.3997 97.1262C47.6697 102.746 39.4096 103.606 32.5996 99.7262C29.3896 97.8962 26.9295 95.2562 25.2395 91.8062C23.8595 89.0062 22.9796 85.6562 22.6096 81.7762C22.4596 80.3162 22.3896 78.7762 22.3896 77.1662C22.3896 71.5862 23.3094 65.8262 25.1594 59.8862C25.6294 58.3762 26.1395 56.8762 26.6995 55.3962C28.3195 51.0662 30.3097 46.8862 32.6497 42.8462C34.0197 40.4862 35.4896 38.2162 37.0796 36.0162C37.0696 36.0062 37.0796 35.9862 37.0996 35.9762C39.1296 33.1362 41.3495 30.4262 43.7395 27.8562C45.2995 26.1662 46.9096 24.5962 48.5596 23.1462C51.3896 20.6762 54.3297 18.5562 57.3997 16.7862C58.0497 16.4062 58.6896 16.0562 59.3296 15.7262C62.8696 13.8962 66.2395 12.7362 69.4395 12.2562C69.9795 12.1762 70.5196 12.1162 71.0596 12.0762C74.7296 11.7962 77.9796 12.2962 80.8296 13.6062L82.1497 14.2662C84.3997 15.5462 86.3194 17.3562 87.9194 19.6762C88.5394 20.5862 89.1196 21.5862 89.6396 22.6662C91.4796 26.4762 92.4094 31.1662 92.4094 36.7462V37.6362L96.7795 29.9762C97.1695 29.3062 97.5896 28.7262 98.0496 28.2462C98.4996 27.7562 98.9695 27.3762 99.4595 27.0962C99.9395 26.8162 100.429 26.6462 100.919 26.5862C101.309 26.5362 101.67 26.5762 101.99 26.7162L102.229 26.8362C103.009 27.2762 103.4 28.1162 103.4 29.3362Z" class="pr-icon-iso-duotone-primary-stroke" stroke-linejoin="round"/>
    <path d="M37.0596 36.0056H37.0796C37.0796 36.0056 37.0796 35.9856 37.0996 35.9756C37.0796 35.9756 37.0696 35.9856 37.0596 36.0056ZM37.0596 36.0056H37.0796C37.0796 36.0056 37.0796 35.9856 37.0996 35.9756C37.0796 35.9756 37.0696 35.9856 37.0596 36.0056ZM12.5996 89.7256C13.1496 90.0356 13.7095 90.3256 14.2795 90.5656L12.5996 89.7256ZM37.0596 36.0056H37.0796C37.0796 36.0056 37.0796 35.9856 37.0996 35.9756C37.0796 35.9756 37.0696 35.9856 37.0596 36.0056Z" class="pr-icon-iso-duotone-primary-stroke" stroke-linejoin="round"/>
    <path d="M61.2498 29.4956C60.7898 29.3056 60.2797 29.2456 59.7297 29.3056C59.0297 29.3956 58.2499 29.6756 57.3999 30.1756C56.8099 30.5156 56.2497 30.9156 55.7297 31.3756C54.7697 32.2156 53.9297 33.2556 53.2197 34.4856C52.8597 35.1056 52.5598 35.7256 52.3198 36.3456C51.8098 37.6356 51.5598 38.9356 51.5598 40.2356C51.5598 42.1756 52.1097 43.4556 53.2197 44.0856L48.0999 41.5256L42.8398 38.8956C44.2198 37.0556 45.6697 35.3556 47.1697 33.7956C47.1697 33.7856 47.1897 33.7856 47.1897 33.7856C49.8497 31.0156 52.6897 28.6656 55.7197 26.7256L61.2498 29.4956Z" class="pr-icon-iso-duotone-primary-stroke" stroke-linejoin="round"/>
    <path d="M66.6494 43.5155C66.2094 43.3455 65.6693 43.2455 65.0293 43.2255C64.4493 43.2155 63.8292 43.2755 63.1692 43.4055C63.0192 43.4355 62.8592 43.4755 62.6892 43.5155C61.1392 43.8955 59.3794 44.6555 57.3994 45.7955C54.3494 47.5555 51.8093 49.6355 49.7593 52.0455C47.7193 54.4555 46.6992 56.5055 46.6992 58.2255V74.2855L44.3994 73.1355L41.1992 71.5355L32.5393 67.2055L30.6494 66.2655C30.8894 64.6655 31.2194 63.0655 31.6394 61.4455C32.9294 56.3755 35.0994 51.2155 38.1394 45.9755C39.6194 43.4255 41.1794 41.0655 42.8394 38.8955L48.0994 41.5255L53.2192 44.0855C54.3192 44.7055 55.7094 44.5355 57.3994 43.5655C58.2194 43.0855 58.9792 42.4955 59.6692 41.7955C59.7192 41.7455 59.7693 41.6955 59.8093 41.6455C60.1393 41.3055 60.4392 40.9455 60.7292 40.5555L66.6494 43.5155Z" class="pr-icon-iso-duotone-primary-stroke" stroke-linejoin="round"/>
    <path d="M101.99 26.7158C101.67 26.5758 101.31 26.5358 100.92 26.5858C100.43 26.6458 99.94 26.8158 99.46 27.0958C98.97 27.3758 98.5 27.7558 98.05 28.2458C97.59 28.7258 97.17 29.3058 96.78 29.9758L92.4099 37.6358V36.7458C92.4099 31.1658 91.4801 26.4758 89.6401 22.6658C89.1201 21.5858 88.5399 20.5858 87.9199 19.6758L101.99 26.7158Z" class="pr-icon-iso-duotone-primary-stroke" stroke-linejoin="round"/>
    <path d="M68.0996 45.996V45.8661C68.0996 45.6561 68.0796 45.4661 68.0496 45.2861C67.9296 44.5261 67.5494 43.9861 66.9194 43.6461L66.6497 43.5161L60.7295 40.556C61.0295 40.146 61.3096 39.7161 61.5796 39.2561C62.6796 37.3561 63.2295 35.436 63.2295 33.496C63.2295 32.446 63.0695 31.5961 62.7495 30.9361C62.7095 30.8561 62.6696 30.7761 62.6196 30.7061L64.6296 31.7061L74.4495 36.6161L80.0095 39.3961C79.2795 39.1061 78.4595 39.236 77.5295 39.806C76.4895 40.446 75.5796 41.396 74.8096 42.666C74.0296 44.006 73.6196 45.286 73.5896 46.496C73.5596 47.696 73.9295 48.526 74.7095 48.966L85.7896 55.2861L68.0996 45.996Z" class="pr-icon-iso-duotone-primary-stroke" stroke-linejoin="round"/>
    <path d="M68.0994 45.8657V61.9357L65.8293 63.2457L62.2593 65.3057V80.9257L52.5393 86.5457V70.9257L46.6992 74.2857V58.2257C46.6992 56.5057 47.7193 54.4557 49.7593 52.0457C51.8093 49.6357 54.3494 47.5557 57.3994 45.7957C59.3794 44.6557 61.1392 43.8957 62.6892 43.5157C62.8592 43.4757 63.0192 43.4357 63.1692 43.4057C63.8292 43.2757 64.4493 43.2157 65.0293 43.2257C65.6693 43.2457 66.2094 43.3457 66.6494 43.5157L66.9192 43.6457C67.5492 43.9857 67.9293 44.5257 68.0493 45.2857C68.0793 45.4657 68.0994 45.6557 68.0994 45.8657Z" class="pr-icon-iso-duotone-primary-stroke" stroke-linejoin="round"/>
    <path d="M84.6296 41.2361V42.0161L80.2495 39.5161L80.0095 39.3961L74.4495 36.6161L64.6296 31.7061V31.2361C64.6296 28.0761 64.2696 25.2961 63.5596 22.8961C66.6596 21.8861 69.5294 21.6261 72.1794 22.1161C73.1794 22.2861 74.1396 22.5761 75.0696 22.9661C75.6096 23.1861 76.1297 23.4461 76.6497 23.7461C78.0197 24.5261 79.2095 25.4961 80.2295 26.6461C83.1595 29.9661 84.6296 34.8261 84.6296 41.2361Z" class="pr-icon-iso-duotone-primary-stroke" stroke-linejoin="round"/>
    <path d="M52.5391 70.9261V86.5461L44.259 82.406L36.6589 78.606L32.5391 76.5461V67.2061L41.199 71.5361L44.3992 73.136L46.699 74.2861L52.5391 70.9261Z" class="pr-icon-iso-duotone-primary-stroke" stroke-linejoin="round"/>
    <path d="M78.769 69.7161C78.089 69.4461 77.2891 69.5761 76.3591 70.1061C75.3191 70.7061 74.349 71.6461 73.439 72.9061C71.179 76.1561 68.699 79.0761 65.999 81.6661C63.309 84.2661 60.4492 86.4461 57.3992 88.1961C49.8792 92.5461 43.479 93.1861 38.189 90.1361C37.209 89.5761 36.319 88.9161 35.519 88.1661C33.579 86.3261 32.1691 83.9361 31.2891 80.9861C33.0091 80.4261 34.7989 79.6361 36.6589 78.6061L44.259 82.4061L52.5391 86.5461L62.259 80.9261V65.3061L65.8291 63.2461L78.769 69.7161Z" class="pr-icon-iso-duotone-primary-stroke" stroke-linejoin="round"/>
    <path d="M80.8296 13.6058C77.9796 12.2958 74.7296 11.7958 71.0596 12.0758C70.5196 12.1158 69.9795 12.1758 69.4395 12.2558C66.2395 12.7358 62.8696 13.8958 59.3296 15.7258C58.6896 16.0558 58.0497 16.4058 57.3997 16.7858C54.3297 18.5558 51.3896 20.6758 48.5596 23.1458C46.9096 24.5958 45.2995 26.1658 43.7395 27.8558C41.3495 30.4258 39.1296 33.1358 37.0996 35.9758C37.0796 35.9758 37.0696 35.9859 37.0596 36.0059H37.0796C35.4896 38.2159 34.0197 40.4858 32.6497 42.8458C30.3097 46.8858 28.3195 51.0659 26.6995 55.3959C26.1395 56.8759 25.6294 58.3758 25.1594 59.8858C23.3094 65.8258 22.3896 71.5858 22.3896 77.1658C22.3896 78.7758 22.4596 80.3159 22.6096 81.7759C22.9796 85.6559 23.8595 89.0059 25.2395 91.8059C26.9295 95.2559 29.3896 97.8958 32.5996 99.7258L12.5996 89.7258C5.78961 85.8458 2.38965 78.3258 2.38965 67.1658C2.38965 61.5858 3.30942 55.8258 5.15942 49.8858C7.00942 43.9458 9.50966 38.2658 12.6497 32.8458C15.7897 27.4258 19.4895 22.4258 23.7395 17.8558C27.9795 13.2758 32.5397 9.58585 37.3997 6.78585C42.2597 3.97585 46.8196 2.40584 51.0596 2.07584C54.9596 1.77584 58.3796 2.36585 61.3496 3.84585L80.8296 13.6058Z" class="pr-icon-iso-duotone-primary-stroke" stroke-linejoin="round"/>
</svg>