<svg width="48" height="48" viewBox="0 0 69 119" class="pr-icon-iso-duotone-secondary"
     xmlns="http://www.w3.org/2000/svg" stroke-width="1px" stroke-linecap="round" stroke-linejoin="round">
    <path d="M66.2393 31.96C66.2393 33.14 65.8892 34.3401 65.1892 35.5401C64.4992 36.7501 63.6291 37.6501 62.5991 38.2401C61.5691 38.8401 60.6993 38.9401 59.9993 38.5401C59.2993 38.1401 58.9492 37.3501 58.9492 36.1701C58.9492 34.9901 59.2993 33.79 59.9993 32.58C60.6993 31.38 61.5691 30.4801 62.5991 29.8801C63.5291 29.3401 64.3192 29.21 64.9792 29.48L65.1892 29.58C65.8892 29.98 66.2393 30.77 66.2393 31.96Z" class="pr-icon-iso-duotone-primary-stroke" stroke-linejoin="round"/>
    <path d="M66.2393 15.2302C66.2393 16.4202 65.8892 17.6103 65.1892 18.8203C64.4992 20.0203 63.6291 20.9202 62.5991 21.5202C61.5691 22.1102 60.6993 22.2103 59.9993 21.8103C59.2993 21.4203 58.9492 20.6203 58.9492 19.4403C58.9492 18.2603 59.2993 17.0602 59.9993 15.8602C60.6993 14.6502 61.5691 13.7502 62.5991 13.1502C63.5291 12.6202 64.3192 12.4902 64.9792 12.7602L65.1892 12.8602C65.8892 13.2602 66.2393 14.0502 66.2393 15.2302Z" class="pr-icon-iso-duotone-primary-stroke" stroke-linejoin="round"/>
    <path d="M46.1504 22.9702C46.1504 23.0302 46.1304 23.0903 46.1204 23.1503C45.6104 23.1203 45.0304 23.3003 44.3804 23.6703C43.3504 24.2703 42.4805 25.1703 41.7805 26.3703C41.3105 27.1803 41.0003 27.9703 40.8503 28.7703C40.8303 28.8303 40.8203 28.8903 40.8203 28.9503C40.7603 29.2903 40.7305 29.6202 40.7305 29.9602C40.7305 31.1402 41.0805 31.9402 41.7805 32.3302L21.7805 22.3302C21.0805 21.9402 20.7305 21.1402 20.7305 19.9602C20.7305 18.7802 21.0805 17.5803 21.7805 16.3703C22.4805 15.1703 23.3504 14.2703 24.3804 13.6703C25.4104 13.0803 26.2805 12.9803 26.9705 13.3803L41.5305 20.6603L46.1504 22.9702Z" class="pr-icon-iso-duotone-primary-stroke" stroke-linejoin="round"/>
    <path d="M29.7998 36.2702C29.7998 37.4602 29.4498 38.6502 28.7498 39.8502C28.0598 41.0602 27.1897 41.9603 26.1597 42.5603C25.1197 43.1503 24.2598 43.2502 23.5598 42.8502C22.8598 42.4502 22.5098 41.6602 22.5098 40.4802C22.5098 39.3002 22.8598 38.1002 23.5598 36.8902C24.2598 35.6902 25.1197 34.7903 26.1597 34.1903C27.0897 33.6603 27.8798 33.5303 28.5398 33.8003L28.7498 33.9002C29.4498 34.2902 29.7998 35.0902 29.7998 36.2702Z" class="pr-icon-iso-duotone-primary-stroke" stroke-linejoin="round"/>
    <path d="M66.2397 52.8701V86.3202C66.2397 88.6202 65.5296 91.0001 64.0996 93.4601C62.6696 95.9201 60.9597 97.7302 58.9497 98.8902L29.7998 115.72C27.7998 116.88 26.0797 117.05 24.6497 116.23C23.2297 115.42 22.5098 113.86 22.5098 111.56V78.1101C22.5098 75.8101 23.2297 73.4301 24.6497 70.9701C26.0797 68.5101 27.7998 66.7002 29.7998 65.5402L46.2397 56.0502L58.9497 48.7101C60.7497 47.6701 62.3097 47.4301 63.6497 47.9801L64.0996 48.2002C65.5296 49.0102 66.2397 50.5701 66.2397 52.8701Z" class="pr-icon-iso-duotone-primary-stroke" stroke-linejoin="round"/>
    <path d="M64.9792 29.4802C64.3192 29.2102 63.5291 29.3402 62.5991 29.8802C61.5691 30.4802 60.6993 31.3801 59.9993 32.5801C59.2993 33.7901 58.9492 34.9802 58.9492 36.1702C58.9492 37.3602 59.2993 38.1402 59.9993 38.5402L45.4392 31.2602C46.0192 30.7402 46.5292 30.1002 46.9692 29.3402C47.6692 28.1302 48.0193 26.9402 48.0193 25.7502C48.0193 24.5602 47.6692 23.7802 46.9692 23.3802L46.7593 23.2802L46.1492 22.9702L41.5293 20.6602C41.8593 20.3602 42.2191 20.1002 42.5991 19.8802C43.6291 19.2802 44.4992 19.1901 45.1892 19.5801L64.9792 29.4802Z" class="pr-icon-iso-duotone-primary-stroke" stroke-linejoin="round"/>
    <path d="M48.0205 25.7502C48.0205 26.9402 47.6705 28.1301 46.9705 29.3401C46.5305 30.1001 46.0204 30.7402 45.4404 31.2602C45.1104 31.5602 44.7604 31.8202 44.3804 32.0402C43.3504 32.6302 42.4805 32.7301 41.7805 32.3301C41.0805 31.9401 40.7305 31.1401 40.7305 29.9601C40.7305 29.6201 40.7603 29.2902 40.8203 28.9502C40.8203 28.8902 40.8303 28.8302 40.8503 28.7702C41.0003 27.9702 41.3105 27.1802 41.7805 26.3702C42.4805 25.1702 43.3504 24.2702 44.3804 23.6702C45.0304 23.3002 45.6104 23.1202 46.1204 23.1502C46.3504 23.1502 46.5605 23.1902 46.7605 23.2802L46.9705 23.3802C47.6705 23.7802 48.0205 24.5702 48.0205 25.7502Z" class="pr-icon-iso-duotone-primary-stroke" stroke-linejoin="round"/>
    <path d="M29.7998 53.0001C29.7998 54.1801 29.4498 55.3801 28.7498 56.5801C28.0598 57.7901 27.1897 58.6901 26.1597 59.2801C25.1197 59.8801 24.2598 59.9801 23.5598 59.5801C22.8598 59.1801 22.5098 58.3902 22.5098 57.2002C22.5098 56.0102 22.8598 54.8301 23.5598 53.6201C24.2598 52.4201 25.1197 51.5202 26.1597 50.9202C27.0897 50.3802 27.8798 50.2401 28.5398 50.5201L28.7498 50.6201C29.4498 51.0201 29.7998 51.8101 29.7998 53.0001Z" class="pr-icon-iso-duotone-primary-stroke" stroke-linejoin="round"/>
    <path d="M28.5398 50.5204C27.8798 50.2404 27.0897 50.3804 26.1597 50.9204C25.1197 51.5204 24.2598 52.4204 23.5598 53.6204C22.8598 54.8304 22.5098 56.0204 22.5098 57.2004C22.5098 58.3804 22.8598 59.1803 23.5598 59.5803L12.4397 54.0204L3.55981 49.5803C2.85981 49.1803 2.50977 48.3904 2.50977 47.2004C2.50977 46.0104 2.85981 44.8304 3.55981 43.6204C4.25981 42.4204 5.11967 41.5204 6.15967 40.9204C7.18967 40.3204 8.05976 40.2204 8.74976 40.6204L23.1597 47.8303L28.5398 50.5204Z" class="pr-icon-iso-duotone-primary-stroke" stroke-linejoin="round"/>
    <path d="M64.9792 12.7603C64.3192 12.4903 63.5291 12.6203 62.5991 13.1503C61.5691 13.7503 60.6993 14.6503 59.9993 15.8603C59.2993 17.0603 58.9492 18.2503 58.9492 19.4403C58.9492 20.6303 59.2993 21.4203 59.9993 21.8103L40.2192 11.9203L39.9993 11.8103C39.2993 11.4203 38.9492 10.6203 38.9492 9.44034C38.9492 8.26034 39.2993 7.06026 39.9993 5.86026C40.6993 4.65026 41.5691 3.7503 42.5991 3.1503C43.6291 2.5603 44.4992 2.46026 45.1892 2.86026L64.9792 12.7603Z" class="pr-icon-iso-duotone-primary-stroke" stroke-linejoin="round"/>
    <path d="M28.5398 33.8003C27.8798 33.5303 27.0897 33.6603 26.1597 34.1903C25.1197 34.7903 24.2598 35.6903 23.5598 36.8903C22.8598 38.1003 22.5098 39.2903 22.5098 40.4803C22.5098 41.6703 22.8598 42.4502 23.5598 42.8502L3.77979 32.9602L3.55981 32.8502C2.85981 32.4502 2.50977 31.6603 2.50977 30.4803C2.50977 29.3003 2.85981 28.1003 3.55981 26.8903C4.25981 25.6903 5.11967 24.7903 6.15967 24.1903C7.18967 23.6003 8.05976 23.5003 8.74976 23.9003L28.5398 33.8003Z" class="pr-icon-iso-duotone-primary-stroke" stroke-linejoin="round"/>
    <path d="M63.6497 47.9803C62.3097 47.4303 60.7497 47.6702 58.9497 48.7102L46.2397 56.0503L29.7998 65.5403C27.7998 66.7003 26.0797 68.5103 24.6497 70.9703C23.2297 73.4303 22.5098 75.8103 22.5098 78.1103V111.56C22.5098 113.86 23.2297 115.42 24.6497 116.23L5.09961 106.45L4.64966 106.23C3.22966 105.42 2.50977 103.86 2.50977 101.56V68.1103C2.50977 65.8103 3.22966 63.4303 4.64966 60.9703C6.07966 58.5103 7.7998 56.7003 9.7998 55.5403L12.4397 54.0203L23.5598 59.5802C24.2598 59.9802 25.1197 59.8803 26.1597 59.2803C27.1897 58.6903 28.0598 57.7902 28.7498 56.5802C29.4498 55.3802 29.7998 54.1803 29.7998 53.0003C29.7998 51.8203 29.4498 51.0203 28.7498 50.6203L28.5398 50.5203L23.1597 47.8302L38.9497 38.7102C40.9597 37.5502 42.6696 37.3804 44.0996 38.2004L63.6497 47.9803Z" class="pr-icon-iso-duotone-primary-stroke" stroke-linejoin="round"/>
</svg>