<svg width="48" height="48" viewBox="0 0 96 100" fill="#c8e7ff" xmlns="http://www.w3.org/2000/svg" stroke-width="1px" stroke-linecap="round" stroke-linejoin="round"><path d="M74.1592 69.16C74.1592 70.31 73.8292 71.45 73.1792 72.57L60.4092 94.6C59.7592 95.72 58.9292 96.57 57.9292 97.16C56.9192 97.74 56.0992 97.84 55.4492 97.47L42.6692 90.19C42.0192 89.82 41.6992 89.05 41.6992 87.9C41.6992 86.75 42.0192 85.61 42.6692 84.49C43.3192 83.37 44.1492 82.52 45.1592 81.93C46.0492 81.41 46.7992 81.28 47.4192 81.51L47.6392 81.62L54.3792 85.36V48.01C54.3792 46.86 54.7192 45.69 55.3992 44.52C56.0792 43.35 56.9192 42.47 57.9292 41.89C58.8292 41.37 59.6093 41.23 60.2493 41.5L60.4592 41.6C61.1392 41.99 61.4792 42.76 61.4792 43.91V81.27L68.2192 69.74C68.8692 68.62 69.6992 67.77 70.6992 67.19C71.6092 66.67 72.3693 66.53 72.9893 66.78L73.1792 66.87C73.8292 67.24 74.1592 68.01 74.1592 69.16Z" stroke="#229EFF" stroke-linejoin="round"/><path d="M93.4092 37.69C93.4092 40.75 93.1293 43.91 92.5593 47.19C91.9993 50.46 91.1292 53.83 89.9492 57.3C89.4192 58.82 88.6294 60.09 87.5994 61.1C86.5594 62.1 85.6892 62.4 84.9792 62C84.2692 61.59 83.8094 60.87 83.6094 59.84C83.3994 58.8 83.4992 57.62 83.9192 56.3C84.7392 53.72 85.3492 51.21 85.7292 48.79C86.1192 46.36 86.3093 44.03 86.3093 41.79C86.3093 32.7 83.5593 26.58 78.0593 23.45C76.4793 22.55 74.7993 21.96 73.0193 21.7C70.5493 21.33 67.8893 21.58 65.0293 22.44C62.7793 23.11 60.4192 24.17 57.9292 25.61C53.8292 27.97 50.0494 31 46.6094 34.68C44.7994 36.6 43.0992 38.7 41.4792 40.98C40.1992 42.77 38.9693 44.68 37.7993 46.7C36.5093 48.93 35.3592 51.15 34.3792 53.36C31.4592 59.87 29.8694 66.28 29.5894 72.6V72.7C29.5594 73.32 29.5493 73.94 29.5493 74.56C29.5493 76.8 29.7391 78.89 30.1191 80.84C30.4291 82.4 30.8592 83.84 31.4192 85.17C31.5492 85.51 31.6994 85.84 31.8494 86.16C32.2694 87.07 32.3993 88.15 32.2493 89.39C32.0993 90.62 31.6492 91.91 30.8792 93.23C30.1692 94.46 29.2993 95.15 28.2593 95.3C27.7993 95.37 27.3993 95.33 27.0393 95.17L26.9092 95.1C26.5092 94.91 26.1792 94.56 25.9092 94.06C24.7892 91.93 23.9294 89.59 23.3394 87.05C22.8394 84.9 22.5492 82.57 22.4692 80.05C22.4592 79.6 22.4492 79.13 22.4492 78.66C22.4492 77.32 22.4994 75.97 22.6094 74.61C22.9394 70.25 23.8193 65.77 25.2393 61.17C27.1093 55.14 29.6393 49.37 32.8293 43.86C33.3293 43 33.8492 42.14 34.3792 41.3C36.3892 38.09 38.6093 35.03 41.0293 32.13C41.0793 32.08 41.1192 32.02 41.1792 31.96C42.1192 30.84 43.0894 29.74 44.0894 28.66C48.4094 24.03 53.0192 20.3 57.9292 17.46C59.0092 16.84 60.0694 16.28 61.1094 15.79C64.3094 14.25 67.3793 13.27 70.3193 12.85C70.8093 12.78 71.2893 12.72 71.7693 12.68C75.5293 12.37 78.8793 12.89 81.7893 14.24L82.0693 14.38C82.3993 14.53 82.7193 14.7 83.0293 14.88C86.2193 16.7 88.7494 19.55 90.6094 23.43C92.4794 27.31 93.4092 32.06 93.4092 37.69Z" stroke="#229EFF" stroke-linejoin="round"/><path d="M83.9201 56.3C83.5001 57.62 83.4003 58.8 83.6103 59.84C83.8103 60.87 84.2701 61.59 84.9801 62L65.13 52.07L64.9801 52C64.2701 51.59 63.8103 50.87 63.6103 49.84C63.4003 48.8 63.5001 47.62 63.9201 46.3C64.7401 43.72 65.3501 41.21 65.7301 38.79C66.1201 36.36 66.3102 34.03 66.3102 31.79C66.3102 28.21 65.8802 25.09 65.0302 22.44C67.8902 21.58 70.5502 21.33 73.0202 21.7C74.8002 21.96 76.4802 22.55 78.0602 23.45C83.5602 26.58 86.3102 32.7 86.3102 41.79C86.3102 44.03 86.1201 46.36 85.7301 48.79C85.3501 51.21 84.7401 53.72 83.9201 56.3Z" stroke="#229EFF" stroke-linejoin="round"/><path d="M81.7893 14.24C78.8793 12.89 75.5293 12.37 71.7693 12.68C71.2893 12.72 70.8093 12.78 70.3193 12.85C67.3793 13.27 64.3094 14.25 61.1094 15.79C60.0694 16.28 59.0092 16.84 57.9292 17.46C53.0192 20.3 48.4094 24.03 44.0894 28.66C43.0894 29.74 42.1192 30.84 41.1792 31.96C41.1192 32.02 41.0793 32.08 41.0293 32.13C38.6093 35.03 36.3892 38.09 34.3792 41.3C33.8492 42.14 33.3293 43 32.8293 43.86C29.6393 49.37 27.1093 55.14 25.2393 61.17C23.8193 65.77 22.9394 70.25 22.6094 74.61C22.4994 75.97 22.4492 77.32 22.4492 78.66C22.4492 79.13 22.4592 79.6 22.4692 80.05C22.5492 82.57 22.8394 84.9 23.3394 87.05C23.9294 89.59 24.7892 91.93 25.9092 94.06C26.1792 94.56 26.5092 94.91 26.9092 95.1L6.98926 85.15L6.94922 85.13C6.53922 84.93 6.18918 84.58 5.90918 84.06C4.78918 81.93 3.92936 79.59 3.33936 77.05C2.74936 74.51 2.44922 71.71 2.44922 68.66C2.44922 63.03 3.37926 57.2 5.23926 51.17C7.10926 45.14 9.63935 39.37 12.8293 33.86C16.0193 28.36 19.7794 23.29 24.0894 18.66C28.4094 14.03 33.0192 10.3 37.9292 7.46C42.8392 4.63 47.4493 3.04 51.7693 2.68C55.7393 2.36 59.2393 2.95 62.2593 4.49L63.0293 4.88L81.7893 14.24Z" stroke="#229EFF" stroke-linejoin="round"/><path d="M60.249 41.5C59.609 41.23 58.829 41.37 57.929 41.89C56.919 42.47 56.0789 43.35 55.3989 44.52C54.7189 45.69 54.3789 46.86 54.3789 48.01V85.36L47.6389 81.62L47.4189 81.51L43.3689 79.49L34.3789 74.99V53.36C35.3589 51.15 36.5091 48.93 37.7991 46.7C38.9691 44.68 40.199 42.77 41.479 40.98C43.099 38.7 44.7991 36.6 46.6091 34.68L60.249 41.5Z" stroke="#229EFF" stroke-linejoin="round"/><path d="M55.4487 97.47L35.6687 87.58L35.4487 87.47L31.4187 85.17C30.8587 83.84 30.4287 82.4 30.1187 80.84C29.7387 78.89 29.5488 76.8 29.5488 74.56C29.5488 73.94 29.5589 73.32 29.5889 72.7V72.6L34.3787 74.99L43.3687 79.49L47.4187 81.51C46.7987 81.28 46.0487 81.41 45.1587 81.93C44.1487 82.52 43.3187 83.37 42.6687 84.49C42.0187 85.61 41.6987 86.75 41.6987 87.9C41.6987 89.05 42.0187 89.82 42.6687 90.19L55.4487 97.47Z" stroke="#229EFF" stroke-linejoin="round"/><path d="M72.9885 66.78C72.3685 66.53 71.6085 66.67 70.6985 67.19C69.6985 67.77 68.8685 68.62 68.2185 69.74L61.4785 81.27V61.02L72.9885 66.78Z" stroke="#229EFF" stroke-linejoin="round"/></svg>