<svg width="24" height="24" viewBox="0 0 92 95" class="pr-icon-iso-duotone-secondary" xmlns="http://www.w3.org/2000/svg" stroke-width="1px" stroke-linecap="round" stroke-linejoin="round">
    <path d="M89.3899 30.2583C89.3899 26.3283 88.18 23.6783 85.76 22.2983L85.22 22.0283C82.91 20.9683 80.17 21.3483 76.99 23.1883C73.57 25.1683 70.64 28.2383 68.22 32.4183C66.65 35.1283 65.59 37.7883 65.04 40.3983C64.88 41.1183 64.77 41.8383 64.7 42.5583C64.62 43.2383 64.5898 43.9083 64.5898 44.5783C64.5898 47.8283 65.4198 50.2083 67.0698 51.7283C67.4698 52.0883 67.8898 52.3983 68.3398 52.6283L68.6399 52.7783C69.9999 53.4183 71.61 53.5183 73.45 53.0783V71.1683C73.69 71.8483 73.86 72.2183 73.98 72.2883L77.52 74.3083C77.88 74.5083 78.29 74.4683 78.76 74.1983C79.23 73.9283 79.65 73.4783 80 72.8683L84.6099 64.9283C84.9599 64.3183 85.1399 63.7383 85.1399 63.1983C85.1399 62.6583 84.9599 62.2883 84.6099 62.0783L81.77 60.4683C81.42 60.2683 81.24 59.8983 81.24 59.3483C81.24 58.7983 81.42 58.2283 81.77 57.6183L84.6099 52.7383C84.9599 52.1183 85.1399 51.5483 85.1399 51.0083C85.1399 50.4683 84.9599 50.0883 84.6099 49.8883L81.4199 48.0683C83.7199 45.7283 85.6299 42.9283 87.1299 39.6883C88.6399 36.4483 89.3899 33.3083 89.3899 30.2583ZM79.52 36.8183C78.84 37.9983 78 38.8683 76.99 39.4483C75.99 40.0283 75.15 40.1283 74.47 39.7383C73.79 39.3483 73.45 38.5783 73.45 37.4283C73.45 36.2783 73.79 35.1183 74.47 33.9483C75.15 32.7783 75.99 31.8983 76.99 31.3183C78 30.7383 78.84 30.6383 79.52 31.0283C80.19 31.4183 80.53 32.1883 80.53 33.3383C80.53 34.4883 80.19 35.6483 79.52 36.8183Z" class="pr-icon-iso-duotone-primary-stroke" stroke-linejoin="round"/>
    <path d="M80.5303 33.3384C80.5303 34.4884 80.1903 35.6483 79.5203 36.8183C78.8403 37.9983 78.0002 38.8684 76.9902 39.4484C75.9902 40.0284 75.1502 40.1284 74.4702 39.7384C73.7902 39.3484 73.4502 38.5784 73.4502 37.4284C73.4502 36.2784 73.7902 35.1184 74.4702 33.9484C75.1502 32.7784 75.9902 31.8983 76.9902 31.3183C78.0002 30.7383 78.8403 30.6384 79.5203 31.0284C80.1903 31.4184 80.5303 32.1884 80.5303 33.3384Z" class="pr-icon-iso-duotone-primary-stroke" stroke-linejoin="round"/>
    <path d="M58.7703 12.3083H58.7603C58.7003 12.3283 58.6301 12.3583 58.5601 12.3883C58.9601 12.4883 59.3502 12.6183 59.7302 12.7883L58.7703 12.3083Z" class="pr-icon-iso-duotone-primary-stroke" stroke-linejoin="round"/>
    <path d="M56.5901 47.9683C56.2601 47.8783 55.8501 47.9383 55.3801 48.1683C54.7401 48.4283 54.1002 48.7283 53.4502 49.0683C53.2702 49.1483 53.0801 49.2383 52.9001 49.3383C52.0801 49.7883 51.2502 50.2483 50.4202 50.7183C49.2102 51.4183 48.0101 52.1583 46.8201 52.9583C46.4801 53.1783 46.1401 53.4083 45.8101 53.6383C43.4901 55.2283 41.1902 56.9983 38.9102 58.9483C35.1302 62.1783 31.4102 65.8983 27.7502 70.1083C27.4402 70.4783 27.1401 70.8483 26.8501 71.2383C25.5501 72.9583 24.4801 74.8483 23.6301 76.9083C22.6001 79.4383 22.0801 81.8583 22.0801 84.1583V87.4083C22.0801 89.6483 22.7802 91.1583 24.1602 91.9483L4.6001 82.1683L4.16016 81.9483C2.78016 81.1583 2.08008 79.6483 2.08008 77.4083V74.1583C2.08008 71.8583 2.60013 69.4383 3.63013 66.9083C4.67013 64.3883 6.04024 62.1183 7.75024 60.1083C11.4102 55.8983 15.1302 52.1783 18.9102 48.9483C22.1202 46.2083 25.3702 43.8083 28.6602 41.7783L39.3301 47.1183L40.4202 47.6583C43.1902 49.2383 46.5302 48.9083 50.4202 46.6583C50.9502 46.3483 51.4802 46.0183 51.9902 45.6683L53.4502 46.3983L56.5901 47.9683Z" class="pr-icon-iso-duotone-primary-stroke" stroke-linejoin="round"/>
    <path d="M64.74 61.8784C64.66 61.8484 64.58 61.8183 64.5 61.7983C63.82 61.5483 63.1798 61.2183 62.5898 60.8083L64.74 61.8784Z" class="pr-icon-iso-duotone-primary-stroke" stroke-linejoin="round"/>
    <path d="M65.8301 63.9782V66.2182C65.8301 66.8982 65.7102 67.5882 65.4602 68.2782C65.3102 68.7482 65.0901 69.2182 64.8101 69.6982C64.1401 70.8682 63.2903 71.7482 62.2903 72.3282L29.1702 91.4482C27.2202 92.5782 25.5502 92.7382 24.1602 91.9482C22.7802 91.1582 22.0801 89.6482 22.0801 87.4082V84.1582C22.0801 81.8582 22.6001 79.4382 23.6301 76.9082C24.4801 74.8482 25.5501 72.9582 26.8501 71.2382C27.1401 70.8482 27.4402 70.4782 27.7502 70.1082C31.4102 65.8982 35.1302 62.1782 38.9102 58.9482C41.1902 56.9982 43.4901 55.2282 45.8101 53.6382C46.1401 53.4082 46.4801 53.1782 46.8201 52.9582C48.0101 52.1582 49.2102 51.4182 50.4202 50.7182C51.2502 50.2482 52.0801 49.7882 52.9001 49.3382C53.0801 49.2382 53.2702 49.1482 53.4502 49.0682C54.1002 48.7282 54.7401 48.4282 55.3801 48.1682C55.8501 47.9382 56.2601 47.8782 56.5901 47.9682L56.9302 48.1382C57.3202 48.4182 57.5103 48.9382 57.5103 49.6782C57.6303 52.7982 58.3003 55.3982 59.5403 57.4982C60.1403 58.5182 60.8401 59.3682 61.6301 60.0682C61.9401 60.3482 62.2501 60.5882 62.5901 60.8082C63.1801 61.2182 63.8202 61.5482 64.5002 61.7982C64.5802 61.8182 64.6602 61.8482 64.7402 61.8782L64.8601 61.9382C65.1101 62.0582 65.3102 62.2482 65.4802 62.5082C65.7102 62.8782 65.8301 63.3682 65.8301 63.9782Z" class="pr-icon-iso-duotone-primary-stroke" stroke-linejoin="round"/>
    <path d="M65.8301 66.2183V63.9783C65.8301 63.3683 65.7102 62.8782 65.4802 62.5082C65.3102 62.2482 65.1101 62.0583 64.8601 61.9383L64.7402 61.8783L62.5901 60.8083C62.2501 60.5883 61.9401 60.3482 61.6301 60.0682C60.8401 59.3682 60.1403 58.5183 59.5403 57.4983C58.3003 55.3983 57.6303 52.7983 57.5103 49.6783C57.5103 48.9383 57.3202 48.4182 56.9302 48.1382L56.5901 47.9683L53.4502 46.3983V45.1982L61.2603 49.0983L68.3401 52.6283L68.6401 52.7783C70.0001 53.4183 71.6102 53.5182 73.4502 53.0782V71.1683C73.6902 71.8483 73.8602 72.2183 73.9802 72.2883L77.5203 74.3083L65.4602 68.2783C65.7102 67.5883 65.8301 66.8983 65.8301 66.2183Z" class="pr-icon-iso-duotone-primary-stroke" stroke-linejoin="round"/>
    <path d="M68.8201 52.8683L68.6401 52.7783" class="pr-icon-iso-duotone-primary-stroke" stroke-linejoin="round"/>
    <path d="M85.22 22.0283C82.91 20.9683 80.17 21.3483 76.99 23.1883C73.57 25.1683 70.64 28.2383 68.22 32.4183C66.65 35.1283 65.59 37.7883 65.04 40.3983C64.88 41.1183 64.77 41.8383 64.7 42.5583C64.62 43.2383 64.5898 43.9083 64.5898 44.5783C64.5898 47.8283 65.4198 50.2083 67.0698 51.7283C67.4698 52.0883 67.8898 52.3983 68.3398 52.6283L61.26 49.0983L53.45 45.1983L52.96 44.9483C53.13 44.8283 53.29 44.6983 53.45 44.5583C56.08 42.4183 58.4099 39.5983 60.4299 36.1083C63.2099 31.3183 64.5898 26.6883 64.5898 22.2183C64.5898 17.7483 63.2099 14.7183 60.4299 13.1383L59.73 12.7883L58.77 12.3083C61.45 11.1583 63.77 11.1583 65.76 12.2983L85.22 22.0283Z" class="pr-icon-iso-duotone-primary-stroke" stroke-linejoin="round"/>
    <path d="M64.5898 22.2183C64.5898 26.6883 63.2099 31.3183 60.4299 36.1083C58.4099 39.5983 56.08 42.4184 53.45 44.5584C53.29 44.6984 53.13 44.8283 52.96 44.9483C52.64 45.1983 52.32 45.4383 51.99 45.6683C51.48 46.0183 50.9499 46.3483 50.4199 46.6583C46.5299 48.9083 43.1899 49.2383 40.4199 47.6583C39.9499 47.3883 39.5099 47.0783 39.1199 46.7183C37.2099 45.0083 36.25 42.2883 36.25 38.5783C36.25 38.3583 36.25 38.1484 36.27 37.9284C36.34 35.2984 36.8899 32.6184 37.9299 29.8784C38.5699 28.1684 39.3999 26.4384 40.4199 24.6884C41.2099 23.3384 42.0399 22.0784 42.9099 20.9284C45.1299 18.0184 47.6299 15.7483 50.4199 14.1383C53.4799 12.3683 56.1998 11.7883 58.5598 12.3883C58.9598 12.4883 59.35 12.6183 59.73 12.7883L60.4299 13.1383C63.2099 14.7183 64.5898 17.7483 64.5898 22.2183Z" class="pr-icon-iso-duotone-primary-stroke" stroke-linejoin="round"/>
    <path d="M58.76 12.3083C58.7 12.3283 58.6298 12.3582 58.5598 12.3882C56.1998 11.7882 53.4799 12.3682 50.4199 14.1382C47.6299 15.7482 45.1299 18.0183 42.9099 20.9283C42.0399 22.0783 41.2099 23.3383 40.4199 24.6883C39.3999 26.4383 38.5699 28.1683 37.9299 29.8783C36.8899 32.6183 36.34 35.2983 36.27 37.9283C36.25 38.1483 36.25 38.3583 36.25 38.5783C36.25 42.2883 37.2099 45.0083 39.1199 46.7183C39.1799 46.8583 39.2498 46.9883 39.3298 47.1183L28.6599 41.7783L21.1199 38.0082L20.4199 37.6583C17.6399 36.0783 16.25 33.0482 16.25 28.5782C16.25 24.1082 17.6399 19.4783 20.4199 14.6883C23.1899 9.9083 26.5299 6.38825 30.4199 4.13825C34.3199 1.88825 37.6599 1.55825 40.4299 3.13825L58.76 12.3083Z" class="pr-icon-iso-duotone-primary-stroke" stroke-linejoin="round"/>
    <path d="M58.7703 12.3083H58.7603" class="pr-icon-iso-duotone-primary-stroke" stroke-linejoin="round"/>
</svg>