<svg width="24" height="24" viewBox="0 0 95 114" class="pr-icon-iso-duotone-secondary" xmlns="http://www.w3.org/2000/svg" stroke-width="1px" stroke-linecap="round" stroke-linejoin="round">
    <path d="M90.55 53.5999L90.0801 53.3699C88.7001 52.8099 87.0701 53.0599 85.2001 54.1399L71.8701 61.8399L69.0601 63.4599L48.79 75.1599L32.16 84.7599C31.1 85.3699 30.13 86.1499 29.23 87.1099C28.35 88.0399 27.5401 89.1399 26.8101 90.4099C26.2701 91.3399 25.8301 92.2499 25.4901 93.1499C24.8801 94.7499 24.5801 96.2999 24.5801 97.8299V106.53C24.5801 108.92 25.3201 110.54 26.8101 111.38C28.2901 112.23 30.07 112.05 32.16 110.85L85.2001 80.2199C87.2801 79.0199 89.07 77.1399 90.55 74.5799C92.04 72.0199 92.78 69.5399 92.78 67.1499V58.4599C92.78 56.0699 92.04 54.4499 90.55 53.5999ZM44.7601 94.8799L32.16 102.15V93.4599L36.6901 90.8399L44.7601 86.1799V94.8799ZM64.9301 83.2299L52.3301 90.4999V81.8099L56.86 79.1999L64.9301 74.5399V83.2299ZM85.2001 71.5299L72.6 78.7999V70.1099L77.1301 67.4899L85.2001 62.8299V71.5299Z" class="pr-icon-iso-duotone-primary-stroke" stroke-linejoin="round"/>
    <path d="M64.9301 83.2298L52.3301 90.4998V81.8098L56.86 79.1998L64.9301 83.2298Z" class="pr-icon-iso-duotone-primary-stroke" stroke-linejoin="round"/>
    <path d="M64.9304 74.5399V83.2299L56.8604 79.1999L64.9304 74.5399Z" class="pr-icon-iso-duotone-primary-stroke" stroke-linejoin="round"/>
    <path d="M44.7602 94.8798L32.1602 102.15V93.4598L36.6902 90.8398L44.7602 94.8798Z" class="pr-icon-iso-duotone-primary-stroke" stroke-linejoin="round"/>
    <path d="M44.7604 86.1799V94.8799L36.6904 90.8399L44.7604 86.1799Z" class="pr-icon-iso-duotone-primary-stroke" stroke-linejoin="round"/>
    <path d="M85.1999 62.8298V71.5298L77.1299 67.4898L85.1999 62.8298Z" class="pr-icon-iso-duotone-primary-stroke" stroke-linejoin="round"/>
    <path d="M85.1996 71.5299L72.5996 78.7999V70.1099L77.1296 67.4899L85.1996 71.5299Z" class="pr-icon-iso-duotone-primary-stroke" stroke-linejoin="round"/>
    <path d="M85.2001 28.0499C85.2001 30.4399 84.46 32.9199 82.97 35.4799C81.49 38.0399 79.7101 39.9199 77.6201 41.1199L72.04 44.3399L71.67 44.5599L28.3701 69.5599C27.3001 70.1799 26.4 71.1199 25.67 72.3699C24.94 73.6199 24.5801 74.8599 24.5801 76.0899C24.5801 76.1599 24.58 76.2199 24.59 76.2799C24.6 76.6999 24.6501 77.0699 24.7601 77.3899C24.9301 77.9299 25.24 78.3199 25.67 78.5599L24.7601 78.1099L22.97 77.2099L14.9 73.1799L5.89008 68.6699L5.67004 68.5599C4.94004 68.1499 4.58008 67.3299 4.58008 66.0899C4.58008 64.8499 4.94004 63.6199 5.67004 62.3699C6.40004 61.1199 7.30006 60.1799 8.37006 59.5599L20.0601 52.8099L28.1301 56.8399L33.2001 59.3799C33.9601 59.8099 34.86 59.7299 35.9 59.1199C36.94 58.5199 37.84 57.5699 38.6 56.2599C39.36 54.9599 39.7401 53.6999 39.7401 52.5099C39.7401 51.6299 39.5401 50.9699 39.1301 50.4999C38.9801 50.3299 38.81 50.1899 38.6 50.0699L35.28 48.1799L67.8 29.3999L77.6201 23.7299C79.7101 22.5299 81.49 22.3499 82.97 23.1999C84.46 24.0399 85.2001 25.6599 85.2001 28.0499Z" class="pr-icon-iso-duotone-primary-stroke" stroke-linejoin="round"/>
    <path d="M87.5809 13.5899C84.7709 12.3399 81.4508 12.8299 77.6208 15.0399L72.3608 18.0699L64.2908 22.7399L35.2808 39.4799L38.6008 33.7599C39.3608 32.4599 39.7408 31.2099 39.7408 30.0099C39.7408 28.8099 39.3608 27.9999 38.6008 27.5699L35.9509 26.2399L27.8809 22.2099L57.6208 5.03988C61.7908 2.62988 65.3609 2.26988 68.3309 3.96988L87.5809 13.5899Z" class="pr-icon-iso-duotone-primary-stroke" stroke-linejoin="round"/>
    <path d="M92.7805 23.6798C92.7805 28.4598 91.2906 33.4098 88.3306 38.5298C85.9306 42.6698 83.1306 45.9198 79.9406 48.2898C79.1906 48.8498 78.4105 49.3598 77.6205 49.8198L72.7805 52.6098L65.2006 56.9898L52.6005 64.2598L44.9305 68.6898L32.3306 75.9598L28.3705 78.2498C27.3005 78.8698 26.4005 78.9798 25.6705 78.5598C25.2405 78.3198 24.9306 77.9298 24.7606 77.3898C24.6506 77.0698 24.6005 76.6998 24.5905 76.2798C24.5805 76.2198 24.5806 76.1598 24.5806 76.0898C24.5806 74.8598 24.9405 73.6198 25.6705 72.3698C26.4005 71.1198 27.3005 70.1798 28.3705 69.5598L71.6705 44.5598L72.0405 44.3398L77.6205 41.1198C79.7105 39.9198 81.4905 38.0398 82.9705 35.4798C84.4605 32.9198 85.2006 30.4398 85.2006 28.0498C85.2006 25.6598 84.4605 24.0398 82.9705 23.1998C81.4905 22.3498 79.7105 22.5298 77.6205 23.7298L67.8005 29.3998L35.2805 48.1798L38.6005 50.0698C38.8105 50.1898 38.9806 50.3298 39.1306 50.4998C39.5406 50.9698 39.7405 51.6298 39.7405 52.5098C39.7405 53.6998 39.3605 54.9598 38.6005 56.2598C37.8405 57.5698 36.9405 58.5198 35.9005 59.1198C34.8605 59.7298 33.9606 59.8098 33.2006 59.3798L28.4805 56.6398L23.4406 53.7098C22.7306 53.2998 22.3506 52.5698 22.3206 51.5098C22.3106 51.4498 22.3105 51.3898 22.3105 51.3198C22.3105 50.1598 22.6906 48.9298 23.4406 47.6198L33.2905 30.6298C33.9905 29.4298 34.8605 28.5298 35.9005 27.9298C36.9405 27.3298 37.8405 27.2098 38.6005 27.5698C39.3605 27.9998 39.7405 28.8098 39.7405 30.0098C39.7405 31.2098 39.3605 32.4598 38.6005 33.7598L35.2805 39.4798L64.2905 22.7398L72.3605 18.0698L77.6205 15.0398C81.4505 12.8298 84.7706 12.3398 87.5806 13.5898L88.3306 13.9698C91.2906 15.6598 92.7805 18.8998 92.7805 23.6798Z" class="pr-icon-iso-duotone-primary-stroke" stroke-linejoin="round"/>
    <path d="M90.0801 53.3699C88.7001 52.8099 87.0701 53.0599 85.2001 54.1399L71.8701 61.8399L69.0601 63.4599L48.79 75.1599L32.16 84.7599C31.1 85.3699 30.13 86.1499 29.23 87.1099C28.35 88.0399 27.5401 89.1399 26.8101 90.4099C26.2701 91.3399 25.8301 92.2499 25.4901 93.1499C24.8801 94.7499 24.5801 96.2999 24.5801 97.8299V106.53C24.5801 108.92 25.3201 110.54 26.8101 111.38L7.28003 101.61L6.81006 101.38C5.32006 100.54 4.58008 98.9199 4.58008 96.5299V87.8299C4.58008 85.4399 5.32006 82.9699 6.81006 80.4099C8.29006 77.8499 10.07 75.9699 12.16 74.7599L14.9 73.1799L22.97 77.2099L24.7601 78.1099L25.67 78.5599C26.4 78.9799 27.3001 78.8699 28.3701 78.2499L32.3301 75.9599L44.9301 68.6899L52.6 64.2599L65.2001 56.9899L72.78 52.6099L77.6201 49.8199C78.4101 49.3599 79.1901 48.8499 79.9401 48.2899L90.0801 53.3699Z" class="pr-icon-iso-duotone-primary-stroke" stroke-linejoin="round"/>
    <path d="M38.6005 27.5699C37.8405 27.2099 36.9405 27.3299 35.9005 27.9299C34.8605 28.5299 33.9905 29.4299 33.2905 30.6299L23.4406 47.6199C22.6906 48.9299 22.3105 50.1599 22.3105 51.3199C22.3105 51.3899 22.3106 51.4499 22.3206 51.5099C22.3506 52.5699 22.7306 53.2999 23.4406 53.7099L28.4805 56.6399L33.2006 59.3799L28.1306 56.8399L20.0605 52.8099L13.4406 49.4999L13.2006 49.3799L3.44055 43.7099C2.69055 43.2799 2.31055 42.4799 2.31055 41.3199C2.31055 40.1599 2.69055 38.9299 3.44055 37.6199L13.2905 20.6299C13.9905 19.4299 14.8605 18.5299 15.9005 17.9299C16.9405 17.3299 17.8405 17.2099 18.6005 17.5699L27.8806 22.2099L35.9506 26.2399L38.6005 27.5699Z" class="pr-icon-iso-duotone-primary-stroke" stroke-linejoin="round"/>
</svg>