<svg width="48" height="48" viewBox="0 0 97 113" class="pr-icon-iso-duotone-secondary"
     xmlns="http://www.w3.org/2000/svg" stroke-width="1px" stroke-linecap="round" stroke-linejoin="round">
    <path d="M93.4302 24.0135C93.0302 23.1435 92.4602 22.4935 91.7302 22.0835L75.4102 12.7735C74.6802 12.3535 73.8401 12.1935 72.8701 12.2935C72.6501 12.3135 72.4302 12.3535 72.2102 12.4035C71.4502 12.5735 70.6601 12.8935 69.8401 13.3635L46.55 26.8135C45.49 27.4235 44.48 28.2335 43.52 29.2435C43.04 29.7435 42.6002 30.2735 42.1802 30.8335C41.7502 31.4035 41.3502 32.0135 40.9802 32.6535L34.2102 44.3335L24.6602 60.8035C23.9302 62.0635 23.3602 63.3635 22.9602 64.6935C22.5702 66.0335 22.3701 67.3035 22.3701 68.5235V95.2435C22.3701 96.4635 22.5702 97.5135 22.9602 98.3835C23.2702 99.0635 23.6802 99.5935 24.1802 99.9935C24.3302 100.124 24.4902 100.223 24.6602 100.323L40.9802 109.624C41.7102 110.044 42.55 110.203 43.52 110.103C44.48 110.003 45.49 109.643 46.55 109.033L69.8401 95.5935C70.9001 94.9735 71.9101 94.1635 72.8701 93.1535C73.8401 92.1435 74.6802 91.0035 75.4102 89.7435L91.7302 61.5935C92.4602 60.3335 93.0302 59.0335 93.4302 57.7035C93.8202 56.3735 94.02 55.0935 94.02 53.8735V27.1535C94.02 25.9335 93.8202 24.8835 93.4302 24.0135ZM61.03 81.0935C60.27 82.4035 59.3202 83.3935 58.2002 84.0435C57.0702 84.6935 56.1201 84.8035 55.3601 84.3635C54.6001 83.9335 54.2102 83.0635 54.2102 81.7735C54.2102 81.7035 54.2102 81.6235 54.2202 81.5535C54.2502 80.3235 54.6401 79.1035 55.3601 77.8535C56.1201 76.5435 57.0702 75.5535 58.2002 74.9035C58.2102 74.9035 58.2102 74.8935 58.2202 74.8935C59.3302 74.2535 60.27 74.1435 61.03 74.5835C61.79 75.0135 62.1802 75.8835 62.1802 77.1735C62.1802 78.4635 61.79 79.7735 61.03 81.0935ZM62.1802 58.9035C62.1802 60.1935 61.79 61.5035 61.03 62.8135C60.27 64.1335 59.3202 65.1135 58.2002 65.7635C57.0702 66.4235 56.1201 66.5235 55.3601 66.0935C54.6001 65.6535 54.2102 64.7935 54.2102 63.4935V45.2235C54.2102 43.9335 54.6001 42.6235 55.3601 41.3135C56.1201 39.9935 57.0702 39.0135 58.2002 38.3635C59.3202 37.7035 60.27 37.6035 61.03 38.0335C61.79 38.4735 62.1802 39.3335 62.1802 40.6335V58.9035Z" class="pr-icon-iso-duotone-primary-stroke" stroke-linejoin="round"/>
    <path d="M62.1799 77.1734C62.1799 78.4634 61.7898 79.7734 61.0298 81.0934C60.2698 82.4034 59.32 83.3934 58.2 84.0434C57.07 84.6934 56.1199 84.8034 55.3599 84.3634C54.5999 83.9334 54.21 83.0634 54.21 81.7734C54.21 81.7034 54.21 81.6234 54.22 81.5534C54.25 80.3234 54.6399 79.1034 55.3599 77.8534C56.1199 76.5434 57.07 75.5534 58.2 74.9034C58.21 74.9034 58.21 74.8934 58.22 74.8934C59.33 74.2534 60.2698 74.1434 61.0298 74.5834C61.7898 75.0134 62.1799 75.8834 62.1799 77.1734Z" class="pr-icon-iso-duotone-primary-stroke" stroke-linejoin="round"/>
    <path d="M55.4099 2.77338C55.1899 2.64338 54.95 2.54339 54.71 2.47339L55.95 3.09338L55.4099 2.77338Z" class="pr-icon-iso-duotone-primary-stroke" stroke-linejoin="round"/>
    <path d="M62.1799 40.6334V58.9034C62.1799 60.1934 61.7898 61.5034 61.0298 62.8134C60.2698 64.1334 59.32 65.1133 58.2 65.7633C57.07 66.4233 56.1199 66.5234 55.3599 66.0934C54.5999 65.6534 54.21 64.7934 54.21 63.4934V45.2234C54.21 43.9334 54.5999 42.6234 55.3599 41.3134C56.1199 39.9934 57.07 39.0134 58.2 38.3634C59.32 37.7034 60.2698 37.6034 61.0298 38.0334C61.7898 38.4734 62.1799 39.3334 62.1799 40.6334Z" class="pr-icon-iso-duotone-primary-stroke" stroke-linejoin="round"/>
    <path d="M75.4102 12.7734C74.6802 12.3534 73.8401 12.1934 72.8701 12.2934C72.6501 12.3134 72.4302 12.3534 72.2102 12.4034C71.4502 12.5734 70.6601 12.8934 69.8401 13.3634L46.55 26.8134C45.49 27.4234 44.48 28.2334 43.52 29.2434C43.04 29.7434 42.6002 30.2734 42.1802 30.8334C41.7502 31.4034 41.3502 32.0134 40.9802 32.6534L34.2102 44.3334L24.6602 60.8034C23.9302 62.0634 23.3602 63.3634 22.9602 64.6934C22.5702 66.0334 22.3701 67.3034 22.3701 68.5234V95.2434C22.3701 96.4634 22.5702 97.5134 22.9602 98.3834C23.2702 99.0634 23.6802 99.5934 24.1802 99.9934C24.3302 100.123 24.4902 100.223 24.6602 100.323L40.9802 109.623L20.9802 99.6234L4.66016 90.3234C3.93016 89.9034 3.36021 89.2634 2.96021 88.3834C2.57021 87.5134 2.37012 86.4634 2.37012 85.2434V58.5234C2.37012 57.3034 2.57021 56.0334 2.96021 54.6934C3.36021 53.3634 3.93016 52.0634 4.66016 50.8034L20.9802 22.6534C21.7102 21.3934 22.55 20.2634 23.52 19.2434C24.48 18.2334 25.49 17.4234 26.55 16.8134L49.8401 3.36341C50.9001 2.75341 51.9101 2.39341 52.8701 2.29341C53.5401 2.22341 54.1502 2.2834 54.7102 2.4734L55.9502 3.0934L56.0701 3.15339L75.4102 12.7734Z" class="pr-icon-iso-duotone-primary-stroke" stroke-linejoin="round"/>
    <path d="M54.71 2.47339L54.6699 2.45337" class="pr-icon-iso-duotone-primary-stroke" stroke-linejoin="round"/>
</svg>