<svg width="48" height="48" viewBox="0 0 88 117" fill="#c8e7ff" xmlns="http://www.w3.org/2000/svg" stroke-width="1px" stroke-linecap="round" stroke-linejoin="round"><path d="M83.0788 12.7917L82.6488 12.5817C81.3688 12.0517 79.8688 12.2917 78.1488 13.2917L65.1288 20.8117L58.1488 24.8317L38.0288 36.4517L29.2788 41.5017C27.3588 42.6117 25.7188 44.3417 24.3488 46.7017C22.9788 49.0617 22.2988 51.3417 22.2988 53.5417V109.622C22.2988 111.822 22.9788 113.312 24.3488 114.092C25.7188 114.872 27.3588 114.702 29.2788 113.602L78.1488 85.3817C80.0688 84.2717 81.7088 82.5417 83.0788 80.1817C84.4488 77.8217 85.1288 75.5417 85.1288 73.3417V17.2717C85.1288 15.0617 84.4488 13.5717 83.0788 12.7917ZM78.1488 43.1317C77.0988 44.4617 75.9788 45.6617 74.7888 46.7217C73.5988 47.7717 72.3888 48.6517 71.1688 49.3617C68.9788 50.6317 66.9588 51.2817 65.1288 51.3017C63.7488 51.3417 62.4788 51.0117 61.3088 50.3517C58.5688 48.7917 57.1988 45.8017 57.1988 41.4017C57.1988 40.0017 57.3588 38.5217 57.6788 36.9717C57.9188 35.7817 58.2588 34.5917 58.6888 33.4017C58.8288 33.0217 58.9688 32.6517 59.1188 32.2817L65.1288 28.8117L78.1488 21.3017V43.1317Z" stroke="#229EFF" stroke-linejoin="round"/><path d="M78.1492 43.1317C77.0992 44.4617 75.9792 45.6617 74.7892 46.7217C73.5992 47.7717 72.3893 48.6517 71.1693 49.3617C68.9793 50.6317 66.9593 51.2817 65.1293 51.3017C63.7493 51.3417 62.4793 51.0117 61.3093 50.3517C58.5693 48.7917 57.1992 45.8017 57.1992 41.4017C57.1992 40.0017 57.3593 38.5217 57.6793 36.9717C57.9193 35.7817 58.2593 34.5917 58.6893 33.4017L65.1293 36.6217L78.1492 43.1317Z" stroke="#229EFF" stroke-linejoin="round"/><path d="M78.1494 21.3017V43.1317L65.1295 36.6217L58.6895 33.4017C58.8295 33.0217 58.9694 32.6517 59.1194 32.2817L65.1295 28.8117L78.1494 21.3017Z" stroke="#229EFF" stroke-linejoin="round"/><path d="M82.6488 12.5817C81.3688 12.0517 79.8688 12.2917 78.1488 13.2917L65.1288 20.8117L58.1488 24.8317L38.0288 36.4517L29.2788 41.5017C27.3588 42.6117 25.7188 44.3417 24.3488 46.7017C22.9788 49.0617 22.2988 51.3417 22.2988 53.5417V109.622C22.2988 111.822 22.9788 113.312 24.3488 114.092L4.77881 104.302L4.34882 104.092C2.97882 103.312 2.29883 101.822 2.29883 99.6217V43.5417C2.29883 41.3417 2.97882 39.0617 4.34882 36.7017C5.71882 34.3417 7.35881 32.6117 9.27881 31.5017L58.1488 3.29168C60.0688 2.18168 61.7088 2.01168 63.0788 2.79168L82.6488 12.5817Z" stroke="#229EFF" stroke-linejoin="round"/></svg>