<svg width="48" height="48" viewBox="0 0 101 113" class="pr-icon-iso-duotone-secondary"
     xmlns="http://www.w3.org/2000/svg" stroke-width="1px" stroke-linecap="round" stroke-linejoin="round">
    <path d="M13.6797 97.8127C14.2197 98.1227 14.7697 98.4027 15.3397 98.6427L13.6797 97.8127Z" class="pr-icon-iso-duotone-primary-stroke" stroke-linejoin="round"/>
    <path d="M95.8095 23.9027C93.8095 19.7327 91.0895 16.6727 87.6495 14.7127C87.2695 14.4927 86.8895 14.2927 86.4895 14.1027C83.3195 12.5927 79.6695 12.0127 75.5395 12.3527C75.3695 12.3627 75.2095 12.3827 75.0395 12.4027C70.5395 12.8527 65.7495 14.5527 60.6695 17.4927C55.3895 20.5427 50.4295 24.5527 45.7895 29.5327C41.6195 33.9927 37.9395 38.8527 34.7395 44.0827C34.3795 44.6727 34.0295 45.2727 33.6795 45.8727C32.5295 47.8527 31.4695 49.8627 30.4895 51.9027C29.6595 53.6027 28.8895 55.3227 28.1795 57.0727C27.1895 59.5027 26.2995 61.9727 25.5195 64.4827C24.4495 67.9627 23.6595 71.3827 23.1595 74.7427C23.0095 75.7727 22.8895 76.7927 22.7895 77.8127C22.6095 79.6527 22.5195 81.4827 22.5195 83.2827C22.5195 89.3427 23.5195 94.4527 25.5195 98.6227C25.7695 99.1427 26.0295 99.6427 26.2995 100.123C28.2195 103.533 30.6795 106.093 33.6795 107.813C37.1095 109.773 41.1495 110.563 45.7895 110.173C50.4295 109.793 55.3895 108.083 60.6695 105.033C65.9395 101.993 70.8995 97.9727 75.5395 93.0027C80.1795 88.0227 84.2195 82.5727 87.6495 76.6527C91.0895 70.7327 93.8095 64.5227 95.8095 58.0427C97.8095 51.5627 98.8095 45.2927 98.8095 39.2427C98.8095 33.1927 97.8095 28.0727 95.8095 23.9027ZM41.0695 70.1727C41.2095 69.3027 41.5495 68.4527 42.0595 67.6027C42.0795 67.5727 42.0995 67.5427 42.1095 67.5227C42.1595 67.4427 42.2095 67.3727 42.2595 67.2927L47.2195 60.2727L46.7995 60.1627L43.7295 59.3627L42.2595 58.9727C41.8095 58.8627 41.4895 58.6227 41.2695 58.2527C41.1495 58.0427 41.0695 57.7927 41.0195 57.5027C40.9995 57.3827 40.9895 57.2827 40.9895 57.1627C40.9495 56.4427 41.1595 55.6427 41.5895 54.7627C42.0995 53.7427 42.7395 52.9227 43.4995 52.2927C44.2595 51.6727 44.9595 51.4727 45.5995 51.6927L50.9095 53.0827L54.8495 54.1127C55.3595 54.2627 55.6095 54.7027 55.6095 55.4227C55.6095 56.1427 55.3595 56.8827 54.8495 57.6227L52.7995 60.5327L52.7695 60.5727L47.8295 67.5727L47.0995 68.6127C47.0995 68.6127 47.0995 68.6227 47.0895 68.6227L46.3595 69.6527L45.5995 70.7327C44.9595 71.6827 44.2595 72.2827 43.4995 72.5427C42.7395 72.8027 42.0995 72.7127 41.5895 72.2727C41.0895 71.8427 40.9095 71.1427 41.0695 70.1727ZM77.8295 68.8627C77.2595 69.8527 76.5895 70.5627 75.8295 71.0027C75.0695 71.4427 74.3995 71.5027 73.8295 71.1727L72.1095 70.1927L67.7195 77.7627C67.3395 78.4227 66.8995 78.8927 66.3895 79.1927C65.8795 79.4827 65.4295 79.5227 65.0495 79.3027L60.7695 76.8627L60.6695 76.8027L60.2595 77.5227L56.2795 84.3727C55.8995 85.0227 55.4495 85.5027 54.9395 85.7927C54.4395 86.0927 53.9895 86.1327 53.6095 85.9127L53.0195 85.5727L49.2195 83.4127L47.5095 86.3727C46.9295 87.3527 46.2695 88.0727 45.4995 88.5127C44.7395 88.9527 44.0695 89.0127 43.4995 88.6827C42.9295 88.3527 42.6395 87.7527 42.6395 86.8827C42.6395 86.0127 42.9295 85.0727 43.4995 84.0827L45.0895 81.3427L47.8895 76.5227C48.2695 75.8627 48.7095 75.3827 49.2195 75.0927C49.7295 74.8027 50.1795 74.7627 50.5595 74.9827L54.9395 77.4827L56.5295 74.7327L59.3295 69.9127C59.7095 69.2527 60.1595 68.7827 60.6695 68.4827C61.1695 68.1927 61.6195 68.1527 61.9995 68.3727L65.3995 70.3127L66.3895 70.8727L67.9795 68.1227L70.7695 63.3027C71.1595 62.6527 71.5995 62.1727 72.1095 61.8827C72.6195 61.5827 73.0595 61.5427 73.4495 61.7627L77.8295 64.2627C78.3995 64.5927 78.6895 65.1927 78.6895 66.0727C78.6895 66.9527 78.3995 67.8727 77.8295 68.8627ZM79.7395 50.2527C79.2295 51.2727 78.5895 52.1027 77.8295 52.7227C77.0695 53.3427 76.3695 53.5427 75.7295 53.3327L74.1495 52.9127L66.4795 50.9027C65.9695 50.7527 65.7195 50.3227 65.7195 49.5927C65.7195 48.8627 65.9695 48.1327 66.4795 47.4027L69.8595 42.6127L75.7295 34.2927C76.3695 33.3427 77.0695 32.7327 77.8295 32.4727C78.1495 32.3727 78.4395 32.3227 78.7195 32.3427C79.0995 32.3527 79.4395 32.4827 79.7395 32.7427C80.2495 33.1827 80.4195 33.8827 80.2595 34.8527C80.0995 35.8127 79.7095 36.7727 79.0695 37.7227L77.9095 39.3627L74.1095 44.7427L76.5695 45.3927L79.0695 46.0427C79.7695 46.2227 80.1795 46.7127 80.3095 47.5127C80.4395 48.3127 80.2495 49.2327 79.7395 50.2527Z" class="pr-icon-iso-duotone-primary-stroke" stroke-linejoin="round"/>
    <path d="M78.6895 66.0727C78.6895 66.9427 78.3995 67.8727 77.8295 68.8627C77.2595 69.8527 76.5895 70.5627 75.8295 71.0027C75.0695 71.4427 74.3995 71.5027 73.8295 71.1727L72.1095 70.1927L67.9795 68.1227L70.7695 63.3027C71.1595 62.6527 71.5995 62.1727 72.1095 61.8827C72.6195 61.5827 73.0595 61.5427 73.4495 61.7627L77.8295 64.2627C78.3995 64.5927 78.6895 65.1927 78.6895 66.0727Z" class="pr-icon-iso-duotone-primary-stroke" stroke-linejoin="round"/>
    <path d="M49.2196 83.4128L47.5096 86.3728C46.9296 87.3528 46.2696 88.0728 45.4996 88.5128C44.7396 88.9528 44.0696 89.0128 43.4996 88.6828C42.9296 88.3528 42.6396 87.7528 42.6396 86.8828C42.6396 86.0128 42.9296 85.0728 43.4996 84.0828L45.0896 81.3428L49.2196 83.4128Z" class="pr-icon-iso-duotone-primary-stroke" stroke-linejoin="round"/>
    <path d="M60.6699 76.8027L60.2599 77.5227L56.2798 84.3727C55.8998 85.0227 55.4499 85.5027 54.9399 85.7927C54.4399 86.0927 53.9899 86.1327 53.6099 85.9127L53.0199 85.5727L49.2198 83.4127L45.0898 81.3427L47.8899 76.5227C48.2699 75.8627 48.7098 75.3827 49.2198 75.0927C49.7298 74.8027 50.1799 74.7627 50.5599 74.9827L54.9399 77.4827L56.5298 74.7327L60.6699 76.8027Z" class="pr-icon-iso-duotone-primary-stroke" stroke-linejoin="round"/>
    <path d="M72.1093 70.1928L67.7193 77.7628C67.3393 78.4228 66.8993 78.8928 66.3893 79.1928C65.8793 79.4828 65.4293 79.5228 65.0493 79.3028L60.7693 76.8628L60.6693 76.8028L56.5293 74.7328L59.3293 69.9128C59.7093 69.2528 60.1593 68.7828 60.6693 68.4828C61.1693 68.1928 61.6193 68.1528 61.9993 68.3728L65.3993 70.3128L66.3893 70.8728L67.9793 68.1228L72.1093 70.1928Z" class="pr-icon-iso-duotone-primary-stroke" stroke-linejoin="round"/>
    <path d="M47.2192 60.2726L46.7993 60.1626L43.7292 59.3626L42.2593 58.9726C41.8093 58.8626 41.4893 58.6226 41.2693 58.2526C41.1493 58.0426 41.0693 57.7926 41.0193 57.5026C40.9993 57.3826 40.9893 57.2826 40.9893 57.1626L46.8492 60.0826L47.2192 60.2726Z" class="pr-icon-iso-duotone-primary-stroke" stroke-linejoin="round"/>
    <path d="M55.6092 55.4226C55.6092 56.1526 55.3592 56.8826 54.8492 57.6226L52.7992 60.5326L52.7692 60.5726L47.8292 67.5726L47.0992 68.6126C47.0992 68.6126 47.0992 68.6226 47.0892 68.6226L46.3592 69.6526L45.5992 70.7326C44.9592 71.6826 44.2592 72.2826 43.4992 72.5426C42.7392 72.8026 42.0992 72.7126 41.5892 72.2726C41.0892 71.8426 40.9092 71.1426 41.0692 70.1726C41.2092 69.3026 41.5492 68.4526 42.0592 67.6026C42.0792 67.5726 42.0992 67.5426 42.1092 67.5226C42.1592 67.4426 42.2092 67.3726 42.2592 67.2926L47.2192 60.2726L46.8492 60.0826L40.9892 57.1626C40.9492 56.4426 41.1592 55.6426 41.5892 54.7626C42.0992 53.7426 42.7392 52.9226 43.4992 52.2926C44.2592 51.6726 44.9592 51.4726 45.5992 51.6926L50.9092 53.0826L54.8492 54.1126C55.3592 54.2626 55.6092 54.7026 55.6092 55.4226Z" class="pr-icon-iso-duotone-primary-stroke" stroke-linejoin="round"/>
    <path d="M79.7397 50.2528C79.2297 51.2728 78.5898 52.1028 77.8298 52.7228C77.0698 53.3428 76.3697 53.5428 75.7297 53.3328L74.1497 52.9128L66.4797 50.9028C65.9697 50.7528 65.7197 50.3228 65.7197 49.5928C65.7197 48.8628 65.9697 48.1328 66.4797 47.4028L69.8597 42.6128L74.1097 44.7428L76.5698 45.3928L79.0698 46.0428C79.7698 46.2228 80.1798 46.7128 80.3098 47.5128C80.4398 48.3128 80.2497 49.2328 79.7397 50.2528Z" class="pr-icon-iso-duotone-primary-stroke" stroke-linejoin="round"/>
    <path d="M80.2594 34.8527C80.0994 35.8127 79.7094 36.7727 79.0694 37.7227L77.9094 39.3627L74.1094 44.7427L69.8594 42.6127L75.7294 34.2927C76.3694 33.3427 77.0694 32.7327 77.8294 32.4727C78.1494 32.3727 78.4394 32.3227 78.7194 32.3427C79.0994 32.3527 79.4394 32.4827 79.7394 32.7427C80.2494 33.1827 80.4194 33.8827 80.2594 34.8527Z" class="pr-icon-iso-duotone-primary-stroke" stroke-linejoin="round"/>
    <path d="M86.4895 14.1028C83.3195 12.5928 79.6695 12.0128 75.5395 12.3528C75.3695 12.3628 75.2095 12.3828 75.0395 12.4028C70.5395 12.8528 65.7495 14.5528 60.6695 17.4928C55.3895 20.5428 50.4295 24.5528 45.7895 29.5328C41.6195 33.9928 37.9395 38.8528 34.7395 44.0828C34.3795 44.6728 34.0295 45.2728 33.6795 45.8728C32.5295 47.8528 31.4695 49.8628 30.4895 51.9028C29.6595 53.6028 28.8895 55.3228 28.1795 57.0728C27.1895 59.5028 26.2995 61.9728 25.5195 64.4828C24.4495 67.9628 23.6595 71.3828 23.1595 74.7428C23.0095 75.7728 22.8895 76.7928 22.7895 77.8128C22.6095 79.6528 22.5195 81.4828 22.5195 83.2828C22.5195 89.3428 23.5195 94.4528 25.5195 98.6228C25.7695 99.1428 26.0295 99.6428 26.2995 100.123C28.2195 103.533 30.6795 106.093 33.6795 107.813L15.3395 98.6428L13.6795 97.8128C10.2495 95.8528 7.52953 92.7928 5.51953 88.6228C3.51953 84.4528 2.51953 79.3428 2.51953 73.2828C2.51953 67.2228 3.51953 60.9628 5.51953 54.4828C7.52953 48.0028 10.2495 41.8028 13.6795 35.8728C17.1095 29.9528 21.1495 24.5028 25.7895 19.5328C30.4295 14.5528 35.3895 10.5428 40.6695 7.4928C45.9395 4.4428 50.8995 2.7328 55.5395 2.3528C60.1795 1.9728 64.2195 2.75278 67.6495 4.71278L86.4895 14.1028Z" class="pr-icon-iso-duotone-primary-stroke" stroke-linejoin="round"/>
</svg>