<svg width="48" height="48" viewBox="0 0 97 116" class="pr-icon-iso-duotone-secondary"
     xmlns="http://www.w3.org/2000/svg" stroke-width="1px" stroke-linecap="round" stroke-linejoin="round">
    <path d="M85.1799 13.8937C84.9799 13.7937 84.7698 13.6937 84.5598 13.5937C81.1198 12.0137 77.17 11.6437 72.72 12.4737C68.46 13.2637 63.7398 15.1537 58.5498 18.1437C47.9498 24.2637 39.2798 32.7537 32.5398 43.6237C32.3298 43.9737 32.1099 44.3137 31.9099 44.6637C28.4899 50.3437 25.9999 56.0337 24.4399 61.7237C23.0899 66.5837 22.4199 71.4437 22.4199 76.3137C22.4199 79.2137 22.7399 81.9037 23.3699 84.3637C23.9999 86.8337 24.9399 88.9537 26.1699 90.7337C26.6399 91.4137 27.16 92.0337 27.71 92.5937C28.6 93.4837 29.5899 94.2237 30.6899 94.8137C32.4599 95.7537 34.5199 96.1337 36.8699 95.9537V113.574L47.71 107.314V99.0237L54.9399 94.8537V103.144L62.1599 98.9737V90.6837L69.3899 86.5037V94.8037L80.2297 88.5437V70.9237C82.5797 68.3937 84.6399 65.6237 86.4199 62.6337C88.1899 59.6337 89.6999 56.5437 90.9299 53.3437C92.1699 50.1437 93.0997 46.9437 93.7297 43.7437C94.3597 40.5437 94.6799 37.4937 94.6799 34.5937C94.6799 24.0137 91.5199 17.1137 85.1799 13.8937ZM51.0098 65.6637C49.5898 68.1037 47.8899 69.8937 45.9099 71.0437C43.9199 72.1937 42.2198 72.3637 40.7998 71.5537C39.3898 70.7537 38.6799 69.2037 38.6799 66.9237C38.6799 66.2737 38.7399 65.6237 38.8599 64.9637C39.1399 63.2937 39.7898 61.5937 40.7998 59.8437C41.1198 59.2937 41.4598 58.7737 41.8098 58.2937C42.9998 56.6237 44.3699 55.3537 45.9099 54.4637C47.8899 53.3137 49.5898 53.1437 51.0098 53.9537C52.4198 54.7537 53.1299 56.3037 53.1299 58.5837C53.1299 60.8637 52.4398 63.1637 51.0698 65.5637C51.0498 65.5937 51.0298 65.6337 51.0098 65.6637ZM60.2297 74.1737L53.1299 78.2737L56.5898 68.3237L58.5498 62.7037L60.2297 65.5937L63.97 72.0137L60.2297 74.1737ZM76.2998 51.0637C74.8798 53.5037 73.18 55.2937 71.2 56.4437C69.21 57.5937 67.5098 57.7637 66.0898 56.9537C65.4598 56.5937 64.9699 56.0837 64.6299 55.4237C64.1899 54.6137 63.97 53.5837 63.97 52.3237C63.97 50.0437 64.6798 47.6837 66.0898 45.2437C67.5098 42.8037 69.21 41.0037 71.2 39.8637C71.58 39.6437 71.9598 39.4537 72.3198 39.3137C73.8298 38.6837 75.1598 38.7037 76.2998 39.3537C77.7098 40.1537 78.4199 41.7037 78.4199 43.9837C78.4199 46.2637 77.7098 48.6237 76.2998 51.0637Z" class="pr-icon-iso-duotone-primary-stroke" stroke-linejoin="round"/>
    <path d="M53.1296 58.5837C53.1296 60.8337 52.4396 63.1637 51.0696 65.5637C51.0496 65.5937 51.0295 65.6337 51.0095 65.6637C49.5895 68.1037 47.8897 69.8937 45.9097 71.0437C43.9197 72.1937 42.2196 72.3637 40.7996 71.5537C39.3896 70.7537 38.6797 69.2037 38.6797 66.9237C38.6797 66.2737 38.7396 65.6237 38.8596 64.9637C39.1396 63.2937 39.7896 61.5937 40.7996 59.8437C41.1196 59.2937 41.4596 58.7737 41.8096 58.2937C42.9996 56.6237 44.3697 55.3537 45.9097 54.4637C47.8897 53.3137 49.5895 53.1437 51.0095 53.9537C52.4195 54.7537 53.1296 56.3037 53.1296 58.5837Z" class="pr-icon-iso-duotone-primary-stroke" stroke-linejoin="round"/>
    <path d="M78.4202 43.9837C78.4202 46.2637 77.71 48.6237 76.3 51.0637C74.88 53.5037 73.1802 55.2937 71.2002 56.4437C69.2102 57.5937 67.5101 57.7637 66.0901 56.9537C65.4601 56.5937 64.9701 56.0837 64.6301 55.4237C64.1901 54.6137 63.9702 53.5837 63.9702 52.3237C63.9702 50.0437 64.6801 47.6837 66.0901 45.2437C67.5101 42.8037 69.2102 41.0037 71.2002 39.8637C71.5802 39.6437 71.9601 39.4537 72.3201 39.3137C73.8301 38.6837 75.16 38.7037 76.3 39.3537C77.71 40.1537 78.4202 41.7037 78.4202 43.9837Z" class="pr-icon-iso-duotone-primary-stroke" stroke-linejoin="round"/>
    <path d="M63.97 72.0137L60.2297 74.1737L53.1299 78.2737L56.5898 68.3237L63.97 72.0137Z" class="pr-icon-iso-duotone-primary-stroke" stroke-linejoin="round"/>
    <path d="M63.97 72.0137L56.5898 68.3237L58.5498 62.7037L60.2297 65.5937L63.97 72.0137Z" class="pr-icon-iso-duotone-primary-stroke" stroke-linejoin="round"/>
    <path d="M36.8701 95.9537V113.574L16.8701 103.574V87.9037L27.7102 93.3237L30.6902 94.8137C32.4602 95.7537 34.5201 96.1337 36.8701 95.9537Z" class="pr-icon-iso-duotone-primary-stroke" stroke-linejoin="round"/>
    <path d="M54.9399 94.8538V103.144L47.71 99.5338V99.0237L54.9399 94.8538Z" class="pr-icon-iso-duotone-primary-stroke" stroke-linejoin="round"/>
    <path d="M69.3901 86.5037V94.8037L62.1602 91.1937V90.6837L69.3901 86.5037Z" class="pr-icon-iso-duotone-primary-stroke" stroke-linejoin="round"/>
    <path d="M85.1799 13.8937C84.9799 13.7937 84.7698 13.6937 84.5598 13.5937C81.1198 12.0137 77.17 11.6437 72.72 12.4737C68.46 13.2637 63.7398 15.1537 58.5498 18.1437C47.9498 24.2637 39.2798 32.7537 32.5398 43.6237C32.3298 43.9737 32.1099 44.3137 31.9099 44.6637C28.4899 50.3437 25.9999 56.0337 24.4399 61.7237C23.0899 66.5837 22.4199 71.4437 22.4199 76.3137C22.4199 79.2137 22.7399 81.9038 23.3699 84.3638C23.9999 86.8338 24.9399 88.9537 26.1699 90.7337C26.6399 91.4137 27.16 92.0337 27.71 92.5937V93.3237L16.8699 87.9037L11.2598 85.0937L10.6399 84.7837C8.87989 83.8337 7.38992 82.4837 6.16992 80.7337C4.93992 78.9537 3.99987 76.8338 3.36987 74.3638C2.73987 71.9038 2.41992 69.2137 2.41992 66.3137C2.41992 55.3937 5.78979 44.5037 12.5398 33.6237C19.2798 22.7537 27.9498 14.2637 38.5498 8.14374C49.1498 2.02374 57.8198 0.503732 64.5598 3.59373L65.46 4.04374L85.1799 13.8937Z" class="pr-icon-iso-duotone-primary-stroke" stroke-linejoin="round"/>
    <path d="M85.3296 13.9637L85.1797 13.8937" class="pr-icon-iso-duotone-primary-stroke" stroke-linejoin="round"/>
</svg>