<svg width="48" height="48" viewBox="0 0 78 114" fill="#c8e7ff" xmlns="http://www.w3.org/2000/svg" stroke-width="1px" stroke-linecap="round" stroke-linejoin="round"><path d="M73.3788 12.5L72.9689 12.3C71.7689 11.81 70.3588 12.03 68.7388 12.96L55.3088 20.7199L42.1788 28.3L29.3588 35.7C27.5488 36.74 26.0089 38.3699 24.7189 40.5899C23.4389 42.8099 22.7988 44.95 22.7988 47.02V107.28C22.7988 109.35 23.4389 110.75 24.7189 111.48C26.0089 112.22 27.5488 112.06 29.3588 111.02L68.7388 88.28C70.5488 87.24 72.0888 85.61 73.3788 83.39C74.6588 81.18 75.3088 79.03 75.3088 76.96V16.71C75.3088 14.64 74.6588 13.23 73.3788 12.5ZM62.1788 73.2399C62.1788 74.3099 61.8588 75.3899 61.2388 76.4699C60.6088 77.5599 59.8289 78.37 58.8989 78.9L39.2089 90.27C38.2789 90.81 37.4988 90.9 36.8688 90.54C36.2388 90.18 35.9188 89.47 35.9188 88.4V77.0999C35.9188 76.0399 36.2388 74.96 36.8688 73.88C37.4988 72.79 38.2789 71.98 39.2089 71.44L55.3088 62.14L58.8989 60.07C59.8289 59.54 60.6088 59.45 61.2388 59.81C61.8588 60.17 62.1788 60.88 62.1788 61.95V73.2399ZM62.1788 46.88C62.1788 47.95 61.8588 49.0199 61.2388 50.1099C60.6088 51.1899 59.8289 52.01 58.8989 52.54L55.3088 54.6099L42.1788 62.19L39.2089 63.91C38.2789 64.45 37.4988 64.54 36.8688 64.18C36.2388 63.82 35.9188 63.11 35.9188 62.04V50.7399C35.9188 49.6799 36.2388 48.6 36.8688 47.51C37.4988 46.43 38.2789 45.62 39.2089 45.08L55.3088 35.78L58.8989 33.71C59.8289 33.18 60.6088 33.09 61.2388 33.45C61.8588 33.8 62.1788 34.52 62.1788 35.58V46.88Z" stroke="#229EFF" stroke-linejoin="round"/><path d="M62.178 35.58V46.88C62.178 47.95 61.858 49.02 61.238 50.11C60.608 51.19 59.828 52.01 58.898 52.54L55.308 54.61L42.178 62.19L39.208 63.91C38.278 64.45 37.498 64.54 36.868 64.18C36.238 63.82 35.918 63.11 35.918 62.04V50.74C35.918 49.68 36.238 48.6 36.868 47.51C37.498 46.43 38.278 45.62 39.208 45.08L55.308 35.78L58.898 33.71C59.828 33.18 60.608 33.09 61.238 33.45C61.858 33.8 62.178 34.52 62.178 35.58Z" stroke="#229EFF" stroke-linejoin="round"/><path d="M62.178 61.9499V73.2398C62.178 74.3098 61.858 75.3898 61.238 76.4698C60.608 77.5598 59.828 78.3699 58.898 78.8999L39.208 90.2699C38.278 90.8099 37.498 90.8999 36.868 90.5399C36.238 90.1799 35.918 89.4699 35.918 88.3999V77.0998C35.918 76.0398 36.238 74.9598 36.868 73.8798C37.498 72.7898 38.278 71.9799 39.208 71.4399L55.308 62.1399L58.898 60.0699C59.828 59.5399 60.608 59.4499 61.238 59.8099C61.858 60.1699 62.178 60.8799 62.178 61.9499Z" stroke="#229EFF" stroke-linejoin="round"/><path d="M72.9689 12.2999C71.7689 11.8099 70.3588 12.0299 68.7388 12.9599L55.3088 20.7198L42.1788 28.2999L29.3588 35.6999C27.5488 36.7399 26.0089 38.3698 24.7189 40.5898C23.4389 42.8098 22.7988 44.9498 22.7988 47.0198V107.28C22.7988 109.35 23.4389 110.75 24.7189 111.48L5.12885 101.68L4.71887 101.48C3.43887 100.75 2.79883 99.3499 2.79883 97.2799V37.0198C2.79883 34.9498 3.43887 32.8098 4.71887 30.5898C6.00887 28.3698 7.54883 26.7399 9.35883 25.6999L48.7388 2.9599C50.5488 1.9199 52.0888 1.76982 53.3788 2.49982L72.9689 12.2999Z" stroke="#229EFF" stroke-linejoin="round"/></svg>