<svg width="48" height="48" viewBox="0 0 104 89" class="pr-icon-iso-duotone-secondary"
     xmlns="http://www.w3.org/2000/svg" stroke-width="1px" stroke-linecap="round" stroke-linejoin="round">
    <path d="M102 53.4794C102 58.2394 100.57 63.0795 97.7101 68.0195C94.8401 72.9595 91.4002 76.5994 87.3802 78.9194C83.2902 81.2794 79.8402 81.6294 77.0002 79.9794C74.1702 78.3294 72.7202 75.1794 72.6602 70.5294C72.6602 68.3094 73.0601 65.9695 73.8401 63.4895C73.8701 63.3895 73.9102 63.2795 73.9402 63.1795C74.7902 60.5895 75.9502 58.0695 77.4102 55.6195L81.3502 49.0795L82.3502 47.4194C83.7502 45.0694 85.4302 43.3294 87.3802 42.2094C89.3302 41.0794 91.0001 40.8794 92.4001 41.6094L97.2502 44.1595C98.7102 44.9295 99.8502 46.0995 100.68 47.6895C101.5 49.2795 101.94 51.2094 102 53.4794Z" class="pr-icon-iso-duotone-primary-stroke" stroke-linejoin="round"/>
    <path d="M100.81 27.1001C100.81 28.1501 100.71 29.2301 100.49 30.3301C100.28 31.4301 99.9604 32.5601 99.5304 33.7201L94.9604 31.4301C93.9304 30.8401 92.7904 30.6201 91.5404 30.7801C90.2904 30.9501 88.9604 31.4301 87.5604 32.2401C86.1604 33.0501 84.8004 34.0901 83.4904 35.3801C83.1004 35.7601 82.7204 36.1701 82.3504 36.5901C81.8704 37.1401 81.4104 37.7201 80.9804 38.3401C80.6304 38.8301 80.2904 39.3401 79.9704 39.8701L78.0504 43.0801C78.1104 42.5501 78.1604 42.0601 78.1904 41.5801C78.2204 41.1101 78.2404 40.6301 78.2404 40.1401C78.2404 37.8201 77.9304 35.8401 77.3004 34.1901C77.2804 34.1401 77.2604 34.0801 77.2304 34.0301C76.4404 32.0101 75.1804 30.5301 73.4404 29.5401C70.2404 27.7101 66.3504 28.1201 61.7804 30.7601C60.8004 31.3301 59.8504 31.9601 58.9404 32.6601C58.7104 32.8301 58.4804 33.0001 58.2604 33.1901C55.1804 35.6801 52.4704 38.9601 50.1304 43.0001C47.5904 47.3801 46.0504 51.6901 45.5404 55.9001C45.4904 56.2701 45.4504 56.6501 45.4204 57.0201C45.3604 57.7301 45.3304 58.4401 45.3304 59.1401C45.3304 60.1901 45.3904 61.1701 45.5304 62.0801C46.0304 65.7301 47.5704 68.2801 50.1304 69.7401C52.3304 71.0001 54.8404 71.2001 57.6904 70.3301C58.9804 69.9501 60.3404 69.3501 61.7704 68.5201C62.6904 67.9901 63.5704 67.4101 64.4204 66.7801C65.2804 66.1501 66.1304 65.4101 66.9804 64.5701C66.4704 66.3401 66.0904 68.0601 65.8204 69.7301C65.7904 69.8801 65.7704 70.0201 65.7504 70.1601C65.5404 71.5301 65.4304 72.8801 65.4204 74.1901C65.4104 74.6201 65.4204 75.0201 65.4304 75.4301C65.4904 76.3701 65.2604 77.3501 64.7404 78.3401C64.2304 79.3401 63.5404 80.0901 62.6904 80.5801C58.8504 82.8001 55.1604 84.4401 51.6304 85.5001C48.0904 86.5601 44.7104 87.0401 41.4804 86.9501C37.8204 86.8201 34.5004 85.9601 31.5204 84.3601C28.5304 82.7701 25.9704 80.3801 23.8404 77.2101C23.7804 77.1101 23.7204 77.0201 23.6704 76.9201C23.3304 76.3301 23.0804 75.6701 22.9204 74.9501C22.7404 74.1201 22.6504 73.2101 22.6504 72.2301C22.6504 71.2501 22.7404 70.2301 22.9204 69.1901C23.1104 68.1401 23.4104 67.0301 23.8404 65.8801C24.9404 62.9901 26.1504 60.1601 27.4904 57.3901C28.9604 54.3501 30.5604 51.3901 32.3204 48.5101C34.5404 44.8401 37.0104 41.3001 39.7004 37.8901C42.6704 34.1101 45.7704 30.7201 49.0004 27.7201C49.0004 27.7101 49.0004 27.7101 49.0204 27.7001C51.3004 25.5701 53.6404 23.6301 56.0504 21.8801C57.9204 20.5301 59.8304 19.2901 61.7704 18.1701C68.1904 14.4601 74.2004 12.5001 79.8104 12.2601C81.1804 12.2001 82.5304 12.2501 83.8504 12.4001C86.3604 12.6801 88.6604 13.3001 90.7604 14.2801L91.7004 14.7401C94.8404 16.3801 97.5104 18.8201 99.7104 22.0701C100.07 22.7001 100.35 23.4501 100.53 24.3301C100.71 25.2001 100.8 26.1301 100.8 27.1001H100.81Z" class="pr-icon-iso-duotone-primary-stroke" stroke-linejoin="round"/>
    <path d="M71.6501 43.94C71.6501 47.09 70.6902 50.32 68.7802 53.63C66.8602 56.94 64.5202 59.39 61.7802 60.97C61.4502 61.16 61.1302 61.33 60.8102 61.48C58.4902 62.59 56.4802 62.67 54.7902 61.7C53.8702 61.17 53.1802 60.42 52.7002 59.43C52.3702 58.76 52.1501 57.98 52.0201 57.09C51.9501 56.54 51.9102 55.96 51.9102 55.34C51.9102 52.19 52.8702 48.96 54.7902 45.65C56.7102 42.34 59.0402 39.89 61.7802 38.31C61.8002 38.31 61.8101 38.29 61.8301 38.28C63.2401 37.48 64.5502 37.02 65.7502 36.93C66.6802 36.85 67.5401 36.99 68.3301 37.36L68.7802 37.58C69.5302 38.01 70.1302 38.6 70.6002 39.35C71.3002 40.51 71.6501 42.04 71.6501 43.94Z" class="pr-icon-iso-duotone-primary-stroke" stroke-linejoin="round"/>
    <path d="M91.7101 14.7399L90.7701 14.2799C88.6701 13.2999 86.3702 12.6799 83.8602 12.3999C82.5402 12.2499 81.1902 12.1999 79.8202 12.2599C74.2102 12.4999 68.2002 14.4599 61.7802 18.1699C59.8402 19.2899 57.9302 20.5299 56.0602 21.8799C53.6502 23.6299 51.3102 25.5699 49.0302 27.6999C49.0202 27.7099 49.0102 27.7099 49.0102 27.7199C45.7802 30.7199 42.6801 34.1099 39.7101 37.8899C37.0201 41.2999 34.5501 44.8399 32.3301 48.5099C30.5701 51.3899 28.9702 54.3499 27.5002 57.3899C26.1602 60.1599 24.9502 62.9899 23.8502 65.8799C23.4202 67.0299 23.1202 68.1399 22.9302 69.1899C22.7502 70.2299 22.6602 71.2499 22.6602 72.2299C22.6602 73.2099 22.7502 74.1199 22.9302 74.9499C23.0902 75.6699 23.3402 76.3299 23.6802 76.9199C23.7302 77.0199 23.7902 77.1099 23.8502 77.2099C25.9802 80.3799 28.5402 82.7699 31.5302 84.3599L12.7202 74.9599L11.5302 74.3599C8.54015 72.7699 5.98016 70.3799 3.85016 67.2099C3.42016 66.5399 3.12018 65.7899 2.93018 64.9499C2.75018 64.1199 2.66016 63.2099 2.66016 62.2299C2.66016 61.2499 2.75018 60.2299 2.93018 59.1899C3.12018 58.1399 3.42016 57.0299 3.85016 55.8799C7.69016 45.7599 12.9701 36.4299 19.7101 27.8899C26.4401 19.3499 33.8002 12.7799 41.7802 8.1699C49.7702 3.5599 57.1202 1.63989 63.8602 2.39989C66.7202 2.71989 69.3101 3.48989 71.6501 4.70989L91.7101 14.7399Z" class="pr-icon-iso-duotone-primary-stroke" stroke-linejoin="round"/>
    <path d="M78.2404 40.1399C78.2404 40.6299 78.2204 41.1099 78.1904 41.5799C78.1604 42.0599 78.1104 42.5499 78.0504 43.0799L70.6004 39.3599C70.1304 38.5999 69.5304 38.0099 68.7804 37.5799L68.3304 37.3599L63.9404 35.1599L58.9404 32.6599C59.8504 31.9599 60.8004 31.3299 61.7804 30.7599C66.3504 28.1199 70.2404 27.7099 73.4404 29.5399C75.1804 30.5299 76.4404 32.0099 77.2304 34.0199C77.2604 34.0799 77.2804 34.1399 77.3004 34.1899C77.9304 35.8399 78.2404 37.8199 78.2404 40.1399Z" class="pr-icon-iso-duotone-primary-stroke" stroke-linejoin="round"/>
    <path d="M68.3299 37.3602C67.5399 36.9902 66.6799 36.8501 65.7499 36.9301C64.5499 37.0201 63.2399 37.4802 61.8299 38.2802C61.8099 38.2902 61.7999 38.3002 61.7799 38.3102C59.0399 39.8902 56.7099 42.3401 54.7899 45.6501C52.8699 48.9601 51.9099 52.1902 51.9099 55.3402C51.9099 55.9602 51.9499 56.5402 52.0199 57.0802C52.1499 57.9802 52.37 58.7602 52.7 59.4302C53.18 60.4202 53.8699 61.1701 54.7899 61.7001L52.6599 60.6402L46.2599 57.4401L45.4199 57.0202C45.4499 56.6502 45.4899 56.2702 45.5399 55.9002C46.0499 51.6902 47.5899 47.3802 50.1299 43.0002C52.4699 38.9602 55.1799 35.6802 58.2599 33.1902C58.4799 33.0002 58.7099 32.8302 58.9399 32.6602L63.9399 35.1602L68.3299 37.3602Z" class="pr-icon-iso-duotone-primary-stroke" stroke-linejoin="round"/>
    <path d="M92.4005 41.6098C91.0005 40.8798 89.3306 41.0798 87.3806 42.2098C85.4306 43.3298 83.7505 45.0698 82.3505 47.4198L81.3505 49.0798L77.4105 55.6199C75.9505 58.0699 74.7906 60.5899 73.9406 63.1799C73.9106 63.2799 73.8705 63.3899 73.8405 63.4899C73.0605 65.9699 72.6605 68.3098 72.6605 70.5298C72.7205 75.1798 74.1705 78.3298 77.0005 79.9798L65.4305 74.1998C65.4405 72.8798 65.5506 71.5298 65.7606 70.1598C65.7806 70.0198 65.8005 69.8798 65.8305 69.7298C66.1005 68.0598 66.4805 66.3398 66.9905 64.5698L60.8105 61.4798C61.1305 61.3298 61.4505 61.1598 61.7805 60.9698C64.5205 59.3898 66.8605 56.9398 68.7805 53.6298C70.6905 50.3198 71.6505 47.0898 71.6505 43.9398C71.6505 42.0398 71.3005 40.5098 70.6005 39.3598L78.0505 43.0798L79.9705 39.8698C80.2905 39.3398 80.6305 38.8298 80.9805 38.3398C81.4105 37.7198 81.8705 37.1398 82.3505 36.5898L92.4005 41.6098Z" class="pr-icon-iso-duotone-primary-stroke" stroke-linejoin="round"/>
    <path d="M66.9901 64.5695C66.1401 65.4095 65.2901 66.1495 64.4301 66.7795C63.5801 67.4095 62.7001 67.9895 61.7801 68.5195C60.3501 69.3495 58.9901 69.9495 57.7001 70.3295H57.6901C54.8401 71.1995 52.3301 70.9995 50.1301 69.7395C47.5701 68.2795 46.0301 65.7295 45.5301 62.0795C45.3901 61.1695 45.3301 60.1895 45.3301 59.1395C45.3301 58.4395 45.3601 57.7295 45.4201 57.0195L46.2601 57.4395L52.6601 60.6395L54.7901 61.6995C56.4801 62.6695 58.4901 62.5895 60.8101 61.4795L66.9901 64.5695Z" class="pr-icon-iso-duotone-primary-stroke" stroke-linejoin="round"/>
</svg>