<svg width="24" height="24" viewBox="0 0 96 109" class="pr-icon-iso-duotone-secondary" xmlns="http://www.w3.org/2000/svg" stroke-width="1px" stroke-linecap="round" stroke-linejoin="round">
    <path d="M87.8391 12.7394L87.4291 12.5394C86.1891 12.0294 84.7491 12.2595 83.0891 13.2195L69.8091 20.8894L63.0891 24.7694L40.1891 37.9795L29.3391 44.2494C27.4891 45.3194 25.9091 46.9894 24.5891 49.2594C23.2691 51.5294 22.6191 53.7195 22.6191 55.8395V102.109C22.6191 104.229 23.2691 105.659 24.5891 106.419C25.9091 107.169 27.4891 107.009 29.3391 105.939L49.9991 94.0094C50.9491 93.4594 51.7191 92.5794 52.3091 91.3794C52.8991 90.1694 53.1392 89.0194 53.0192 87.9294C52.9692 87.4494 52.9292 86.9193 52.8992 86.3593C52.8892 86.1593 52.8792 85.9694 52.8792 85.7694C52.8592 85.3994 52.8591 85.0294 52.8591 84.6494C52.8591 83.7494 52.8891 82.8494 52.9591 81.9394C53.3691 76.3194 55.0591 70.5795 58.0291 64.7195C58.5391 63.6895 59.0991 62.6493 59.6991 61.6093C59.8991 61.2693 60.0891 60.9393 60.2991 60.6093C60.2991 60.5693 60.3391 60.5294 60.3691 60.4894C63.8891 54.6594 67.9691 50.0094 72.5991 46.5594C73.6591 45.7694 74.7592 45.0394 75.8792 44.3794C76.0192 44.2894 76.1491 44.2094 76.2891 44.1294C77.9091 43.1994 79.5191 42.4594 81.1191 41.9194C82.7191 41.3894 84.2691 41.0695 85.7791 40.9695C86.7291 40.9295 87.6392 40.3694 88.5092 39.2894C89.3792 38.2094 89.8091 37.0994 89.8091 35.9394V17.0494C89.8091 14.9294 89.1591 13.4894 87.8391 12.7394ZM83.0891 36.3495L72.2891 42.5895L71.1392 43.2494L62.9291 47.9894C61.9791 48.5394 61.1791 48.6294 60.5391 48.2594C59.8991 47.8894 59.5691 47.1594 59.5691 46.0694V34.5094L65.6891 30.9795L68.4091 29.4094L68.7791 29.1994L83.0891 20.9294V36.3495Z" class="pr-icon-iso-duotone-primary-stroke" stroke-linejoin="round"/>
    <path d="M83.0884 36.3495L72.2883 42.5895L71.1384 43.2494L62.9283 47.9894C61.9783 48.5394 61.1783 48.6294 60.5383 48.2594C59.8983 47.8894 59.5684 47.1595 59.5684 46.0695V34.5094L65.6884 30.9795L68.4083 29.4094L68.7783 29.1995L83.0884 36.3495Z" class="pr-icon-iso-duotone-primary-stroke" stroke-linejoin="round"/>
    <path d="M88.2584 50.5695L87.4884 50.1894C84.3684 48.7794 80.6584 49.3194 76.3684 51.7994C75.2084 52.4694 74.0983 53.2295 73.0283 54.0795C70.1383 56.3695 67.5583 59.3395 65.2983 62.9595C65.0183 63.3995 64.7484 63.8394 64.4884 64.2994C61.7584 68.9994 60.1684 73.5895 59.7084 78.0695C59.6184 78.9695 59.5684 79.8694 59.5684 80.7694C59.5684 86.0994 61.2084 89.6995 64.4884 91.5695C67.7584 93.4395 71.7284 93.0295 76.3684 90.3495C81.0184 87.6695 84.9784 83.4995 88.2584 77.8495C91.5384 72.1995 93.1683 66.7094 93.1683 61.3694C93.1683 56.0294 91.5384 52.4395 88.2584 50.5695ZM83.0884 74.8994C82.7584 75.4794 82.3683 75.8994 81.9183 76.1594C81.4683 76.4194 81.0784 76.4494 80.7384 76.2594L75.6984 73.3894C75.3684 73.1994 75.1084 72.9094 74.9484 72.5194C74.7784 72.1394 74.6884 71.6894 74.6884 71.1694V62.3994C74.6884 61.8894 74.8584 61.3394 75.1984 60.7594C75.5284 60.1794 75.9284 59.7594 76.3684 59.5094C76.8184 59.2494 77.2083 59.2094 77.5483 59.4094C77.8883 59.5994 78.0483 59.9495 78.0483 60.4595V69.3295L83.0884 72.1995C83.4284 72.3995 83.5984 72.7494 83.5984 73.2594C83.5984 73.7694 83.4284 74.3194 83.0884 74.8994Z" class="pr-icon-iso-duotone-primary-stroke" stroke-linejoin="round"/>
    <path d="M83.5975 73.2594C83.5975 73.7794 83.4275 74.3194 83.0875 74.8994C82.7575 75.4794 82.3675 75.8994 81.9175 76.1594C81.4675 76.4194 81.0775 76.4494 80.7375 76.2594L75.6975 73.3894C75.3675 73.1994 75.1075 72.9094 74.9475 72.5194C74.7775 72.1394 74.6875 71.6894 74.6875 71.1694V67.6494L78.0475 69.3295L83.0875 72.1995C83.4275 72.3995 83.5975 72.7494 83.5975 73.2594Z" class="pr-icon-iso-duotone-primary-stroke" stroke-linejoin="round"/>
    <path d="M78.0475 60.4595V69.3295L74.6875 67.6494V62.3994C74.6875 61.8894 74.8575 61.3394 75.1975 60.7594C75.5275 60.1794 75.9276 59.7594 76.3676 59.5094C76.8176 59.2494 77.2075 59.2095 77.5475 59.4095C77.8875 59.5995 78.0475 59.9495 78.0475 60.4595Z" class="pr-icon-iso-duotone-primary-stroke" stroke-linejoin="round"/>
    <path d="M87.4291 12.5395C86.1891 12.0295 84.7491 12.2595 83.0891 13.2195L69.8091 20.8895L63.0891 24.7695L40.1891 37.9796L29.3391 44.2495C27.4891 45.3195 25.9091 46.9895 24.5891 49.2595C23.2691 51.5295 22.6191 53.7195 22.6191 55.8395V102.109C22.6191 104.229 23.2691 105.659 24.5891 106.419L4.99915 96.6194L4.58911 96.4195C3.26911 95.6595 2.61914 94.2294 2.61914 92.1094V45.8395C2.61914 43.7195 3.26911 41.5295 4.58911 39.2595C5.90911 36.9895 7.48911 35.3194 9.33911 34.2494L63.0891 3.21954C64.9391 2.14954 66.5191 1.98944 67.8391 2.73944L87.4291 12.5395Z" class="pr-icon-iso-duotone-primary-stroke" stroke-linejoin="round"/>
    <path d="M87.4894 50.1895C84.3694 48.7795 80.6594 49.3194 76.3694 51.7994C75.2094 52.4694 74.0993 53.2295 73.0293 54.0795C70.1393 56.3695 67.5593 59.3395 65.2993 62.9595C65.0193 63.3995 64.7494 63.8394 64.4894 64.2994C61.7594 68.9994 60.1694 73.5895 59.7094 78.0695C59.6194 78.9695 59.5693 79.8694 59.5693 80.7694C59.5693 86.0994 61.2094 89.6995 64.4894 91.5695L52.8794 85.7694C52.8594 85.3994 52.8594 85.0294 52.8594 84.6494C52.8594 83.7494 52.8894 82.8495 52.9594 81.9395C53.3694 76.3195 55.0593 70.5795 58.0293 64.7195C58.5393 63.6895 59.0993 62.6494 59.6993 61.6094C59.8993 61.2694 60.0893 60.9394 60.2993 60.6094C60.2993 60.5694 60.3394 60.5294 60.3694 60.4894C63.8894 54.6594 67.9694 50.0094 72.5994 46.5594C73.6594 45.7694 74.7594 45.0394 75.8794 44.3794L87.4894 50.1895Z" class="pr-icon-iso-duotone-primary-stroke" stroke-linejoin="round"/>
    <path d="M83.0894 20.9294V36.3495L68.7793 29.1995L83.0894 20.9294Z" class="pr-icon-iso-duotone-primary-stroke" stroke-linejoin="round"/>
</svg>