<svg width="24" height="24" viewBox="0 0 110 108" class="pr-icon-iso-duotone-secondary" xmlns="http://www.w3.org/2000/svg" stroke-width="1px" stroke-linecap="round" stroke-linejoin="round">
    <path d="M44.6093 96.1801C45.0293 96.6001 45.2293 97.2201 45.2293 98.0301C45.2293 99.8801 44.6893 101.57 43.5893 103.09C42.4993 104.61 41.2693 105.39 39.9193 105.43C36.7293 105.57 33.9193 105 31.4893 103.71C29.7793 102.81 28.2493 101.56 26.9093 99.9601C25.3593 98.1201 24.1793 95.9201 23.3793 93.3601C22.6393 91.0501 22.2093 88.4501 22.0793 85.5601C22.0493 84.9201 22.0293 84.2601 22.0293 83.5801C22.0293 77.6401 23.1893 71.4801 25.5193 65.1001C25.9393 63.9301 26.4093 62.7501 26.9093 61.5701C30.1693 53.9201 34.4993 47.0901 39.9193 41.0801C41.2693 39.5601 42.4993 38.9101 43.5893 39.1201C43.7093 39.1401 43.8193 39.1801 43.9293 39.2201L44.0693 39.3001H44.0793C44.8493 39.7101 45.2293 40.7201 45.2293 42.3301C45.2293 43.0701 45.0293 43.9201 44.6093 44.8601C44.1893 45.8101 43.6593 46.6501 43.0093 47.3901C38.9493 51.8801 35.7293 56.9801 33.3393 62.6801C31.3493 67.4401 30.1893 72.0401 29.8693 76.4901C29.7893 77.3701 29.7593 78.2501 29.7593 79.1201C29.7593 83.5001 30.5993 87.0801 32.2593 89.8601C32.5893 90.4101 32.9493 90.9301 33.3393 91.4201C35.7293 94.3701 38.9493 95.7401 43.0093 95.5401C43.3393 95.5401 43.6293 95.5901 43.8993 95.7001L44.0893 95.7901C44.2793 95.8901 44.4493 96.0201 44.6093 96.1801Z" class="pr-icon-iso-duotone-primary-stroke" stroke-linejoin="round"/>
    <path d="M107.12 34.4601C107.12 44.3701 104.12 54.4901 98.1195 64.8301C92.1295 75.1701 84.8095 82.8402 76.1795 87.8202C67.5395 92.8102 60.2195 93.6001 54.2295 90.1801C50.9495 88.3101 48.5595 85.4701 47.0795 81.6501C45.8395 78.4901 45.2295 74.6701 45.2295 70.1801C45.2295 60.2701 48.2295 50.1501 54.2295 39.8101C60.2195 29.4701 67.5395 21.8002 76.1795 16.8202C79.3895 14.9602 82.4195 13.6901 85.2695 12.9901C89.4795 11.9701 93.2795 12.2201 96.6795 13.7401L98.1195 14.4601C104.12 17.8801 107.12 24.5401 107.12 34.4601Z" class="pr-icon-iso-duotone-primary-stroke" stroke-linejoin="round"/>
    <path d="M96.6791 13.7401C93.2791 12.2201 89.4791 11.9701 85.2691 12.9901C82.4191 13.6901 79.3891 14.9601 76.1791 16.8201C67.5391 21.8001 60.2191 29.4701 54.2291 39.8101C48.2291 50.1501 45.2291 60.2701 45.2291 70.1801C45.2291 74.6701 45.8391 78.4901 47.0791 81.6501C48.5591 85.4701 50.9491 88.3101 54.2291 90.1801L36.2991 81.1701C35.5891 80.9001 34.8991 80.5601 34.2291 80.1801C32.5291 79.2101 31.0691 77.9801 29.8691 76.4901C30.1891 72.0401 31.3491 67.4401 33.3391 62.6801C35.7291 56.9801 38.9491 51.8801 43.0091 47.3901C43.6591 46.6501 44.1891 45.8101 44.6091 44.8601C45.0291 43.9201 45.2291 43.0701 45.2291 42.3301C45.2291 40.7201 44.8491 39.7101 44.0791 39.3001H44.0691C44.0691 39.3001 43.9791 39.2401 43.9291 39.2201L32.2691 33.4001C32.8791 32.2001 33.5291 31.0101 34.2291 29.8101C40.2191 19.4701 47.5391 11.8001 56.1791 6.82011C64.8091 1.83011 72.1291 1.04007 78.1191 4.46007L96.6791 13.7401Z" class="pr-icon-iso-duotone-primary-stroke" stroke-linejoin="round"/>
    <path d="M43.9293 39.2201C43.8193 39.1801 43.7093 39.1401 43.5893 39.1201C42.4993 38.9101 41.2693 39.5601 39.9193 41.0801C34.4993 47.0901 30.1693 53.9201 26.9093 61.5701C26.4093 62.7501 25.9393 63.9301 25.5193 65.1001C23.1893 71.4801 22.0293 77.6401 22.0293 83.5801C22.0293 84.2601 22.0493 84.9201 22.0793 85.5601C22.2093 88.4501 22.6393 91.0501 23.3793 93.3601C24.1793 95.9201 25.3593 98.1201 26.9093 99.9601C28.2493 101.56 29.7793 102.81 31.4893 103.71L12.5093 94.2001C10.3793 93.2901 8.5093 91.8801 6.9093 89.9601C3.6593 86.0701 2.0293 80.6101 2.0293 73.5801C2.0293 66.5501 3.6593 59.2201 6.9093 51.5701C10.1693 43.9201 14.4993 37.0901 19.9193 31.0801C21.2693 29.5601 22.4993 28.9101 23.5893 29.1201C23.7493 29.1501 23.8993 29.2001 24.0393 29.2801L24.0693 29.3001L32.2693 33.4001L43.9293 39.2201Z" class="pr-icon-iso-duotone-primary-stroke" stroke-linejoin="round"/>
    <path d="M43.8998 95.7001C43.6298 95.5901 43.3398 95.5401 43.0098 95.5401C38.9498 95.7401 35.7298 94.3701 33.3398 91.4201C32.9498 90.9301 32.5898 90.4101 32.2598 89.8601L43.8998 95.7001Z" class="pr-icon-iso-duotone-primary-stroke" stroke-linejoin="round"/>
    <path d="M44.0894 95.7901L43.8994 95.7001" class="pr-icon-iso-duotone-primary-stroke" stroke-linejoin="round"/>
</svg>