<svg width="24" height="24" viewBox="0 0 67 116" class="pr-icon-iso-duotone-secondary" xmlns="http://www.w3.org/2000/svg" stroke-width="1px" stroke-linecap="round" stroke-linejoin="round">
    <path d="M64.02 25.0803C64.02 26.7303 63.52 28.4303 62.5 30.1803C61.48 31.9303 60.26 33.2303 58.82 34.0603C57.38 34.8903 56.15 35.0103 55.14 34.4303L43.33 27.7003L42.96 28.3403L31.52 48.0703C30.5 49.8203 29.27 51.1103 27.83 51.9403C26.39 52.7803 25.17 52.9003 24.15 52.3203C23.14 51.7403 22.63 50.6303 22.63 48.9803C22.63 47.3303 23.14 45.6203 24.15 43.8703L35.36 24.5403L39.77 16.9303C40.28 16.0503 40.83 15.3203 41.42 14.7403C42.01 14.1503 42.65 13.6703 43.33 13.2703C43.45 13.2003 43.56 13.1403 43.68 13.0903C44.22 12.8003 44.74 12.6203 45.23 12.5403C45.71 12.4603 46.16 12.5103 46.59 12.6903L46.88 12.8303L62.5 21.7303C63.52 22.3103 64.02 23.4203 64.02 25.0803Z" class="pr-icon-iso-duotone-primary-stroke" stroke-linejoin="round"/>
    <path d="M64.02 76.9499C64.02 78.5999 63.52 80.2999 62.5 82.0499L46.88 109C46.37 109.87 45.82 110.6 45.23 111.19C44.64 111.77 44 112.26 43.33 112.65C42.65 113.04 42.01 113.29 41.42 113.39C40.83 113.49 40.28 113.39 39.77 113.1L24.15 104.2C23.62 103.9 23.23 103.44 22.98 102.84C22.75 102.3 22.63 101.63 22.63 100.85C22.63 99.1999 23.14 97.4999 24.15 95.7399C25.17 93.9899 26.39 92.6999 27.83 91.8699C29.12 91.1199 30.25 90.9399 31.2 91.3299L31.3 91.3799L31.52 91.4899L43.33 98.2299L55.14 77.8599C56.15 76.0999 57.38 74.8099 58.82 73.9799C60.11 73.2299 61.23 73.0499 62.18 73.4399L62.5 73.5999C63.52 74.1799 64.02 75.2999 64.02 76.9499Z" class="pr-icon-iso-duotone-primary-stroke" stroke-linejoin="round"/>
    <path d="M39.77 113.1L20.06 103.24L19.77 103.1L4.15002 94.2003C3.14002 93.6203 2.63 92.5003 2.63 90.8503C2.63 89.2003 3.14002 87.5003 4.15002 85.7403C5.17002 83.9903 6.39002 82.7003 7.83002 81.8703C9.27002 81.0403 10.5 80.9103 11.52 81.4903L23.71 87.5803L31.2 91.3303C30.25 90.9403 29.12 91.1203 27.83 91.8703C26.39 92.7003 25.17 93.9903 24.15 95.7403C23.14 97.5003 22.63 99.2003 22.63 100.85C22.63 101.63 22.75 102.3 22.98 102.84C23.23 103.44 23.62 103.9 24.15 104.2L39.77 113.1Z" class="pr-icon-iso-duotone-primary-stroke" stroke-linejoin="round"/>
    <path d="M62.18 73.4402C61.23 73.0502 60.11 73.2302 58.82 73.9802C57.38 74.8102 56.15 76.1002 55.14 77.8602L43.33 98.2302L31.52 91.4902L31.3 91.3802L31.2 91.3302L23.71 87.5802L35.14 67.8602C36.15 66.1002 37.38 64.8102 38.82 63.9802C40.26 63.1502 41.48 63.0202 42.5 63.6002L62.18 73.4402Z" class="pr-icon-iso-duotone-primary-stroke" stroke-linejoin="round"/>
    <path d="M46.59 12.6901C46.16 12.5101 45.71 12.4601 45.23 12.5401C44.74 12.6201 44.22 12.8001 43.68 13.0901C43.56 13.1401 43.45 13.2001 43.33 13.2701C42.65 13.6701 42.01 14.1501 41.42 14.7401C40.83 15.3201 40.28 16.0501 39.77 16.9301L35.36 24.5401L24.15 43.8701C23.14 45.6201 22.63 47.3201 22.63 48.9801C22.63 50.6401 23.14 51.7401 24.15 52.3201L4.46997 42.4801L4.15002 42.3201C3.14002 41.7401 2.63 40.6301 2.63 38.9801C2.63 37.3301 3.14002 35.6201 4.15002 33.8701L19.77 6.9301C20.28 6.0501 20.83 5.3201 21.42 4.7401C22.01 4.1501 22.65 3.6701 23.33 3.2701C24 2.8801 24.64 2.6401 25.23 2.5401C25.82 2.4401 26.37 2.5401 26.88 2.8301L46.59 12.6901Z" class="pr-icon-iso-duotone-primary-stroke" stroke-linejoin="round"/>
    <path d="M55.14 34.4302L42.96 28.3402L43.33 27.7002L55.14 34.4302Z" class="pr-icon-iso-duotone-primary-stroke" stroke-linejoin="round"/>
</svg>