<svg width="48" height="48" viewBox="0 0 92 112" class="pr-icon-iso-duotone-secondary"
     xmlns="http://www.w3.org/2000/svg" stroke-width="1px" stroke-linecap="round" stroke-linejoin="round">
    <path d="M62.2402 28.4797L63.0103 28.8697C62.7903 28.6597 62.5402 28.5297 62.2402 28.4797Z" class="pr-icon-iso-duotone-primary-stroke" stroke-linejoin="round"/>
    <path d="M62.2402 28.4797L63.0103 28.8697C62.7903 28.6597 62.5402 28.5297 62.2402 28.4797Z" class="pr-icon-iso-duotone-primary-stroke" stroke-linejoin="round"/>
    <path d="M51.0002 99.1897C44.6802 101.92 39.3902 101.79 35.1202 98.8097C33.9802 98.0197 32.9902 97.0597 32.1602 95.9397C30.9102 94.2597 30.0002 92.2197 29.4302 89.8097C29.9402 89.6297 30.4702 89.4197 31.0002 89.1897L37.7302 92.5597L51.0002 99.1897Z" class="pr-icon-iso-duotone-primary-stroke" stroke-linejoin="round"/>
    <path d="M85.0601 47.8296C84.4201 47.5296 83.6501 47.6396 82.7501 48.1596C81.7901 48.7096 81.0401 49.5196 80.4801 50.5696C79.9201 51.6196 79.6501 52.6296 79.6501 53.6096C79.6501 57.4396 79.05 61.3596 77.86 65.3696C76.66 69.3796 75.0301 73.3196 72.9601 77.1896C72.6101 76.1796 72.0301 75.4696 71.2101 75.0596L71.0801 74.9996C70.9601 74.9396 70.8301 74.8896 70.6901 74.8496C69.6101 74.4996 68.3501 74.7396 66.9101 75.5696L63.7301 77.4096V66.4496C63.7301 65.4096 63.4201 64.7196 62.8101 64.3696L62.6201 64.2796C62.0501 64.0496 61.36 64.1596 60.55 64.6296L59.8201 65.0496L55.8101 67.3696L41.4501 75.6596V68.3596L43.7301 67.0396L47.8101 64.6796C48.7201 64.1596 49.4701 63.3696 50.0801 62.3196C50.6901 61.2696 51.0001 60.2196 51.0001 59.1896V51.8796L57.36 48.2096C58.14 47.7596 58.8601 47.1996 59.5401 46.5196C60.3901 45.6796 61.16 44.6696 61.86 43.4696C62.09 43.0796 62.2901 42.6896 62.4701 42.3096C63.2301 40.7496 63.6401 39.2396 63.7101 37.7596C63.7301 37.5796 63.7301 37.4096 63.7301 37.2296V31.0196C63.7301 30.7696 63.7101 30.5396 63.6801 30.3196C63.5901 29.6896 63.3701 29.2096 63.0101 28.8696L62.2401 28.4796H62.2301C61.9001 28.4196 61.5201 28.4596 61.1001 28.6096C59.9901 28.9496 58.8601 29.3796 57.7201 29.9196C56.5801 30.4596 55.4001 31.0796 54.1801 31.7796C52.7901 32.5796 51.4301 33.4596 50.1001 34.4396C47.2401 36.4996 44.4801 38.9496 41.8401 41.7796C37.9701 45.9296 34.5901 50.4996 31.7001 55.4896C30.5401 57.4896 29.4801 59.5096 28.5301 61.5696C27.0801 64.6596 25.8601 67.8096 24.8501 71.0396C24.5001 72.1596 24.1901 73.2796 23.9201 74.3796C22.8701 78.5896 22.3501 82.6896 22.3501 86.6896C22.3501 88.2496 22.43 89.7396 22.61 91.1496C22.92 93.9496 23.5601 96.4696 24.5401 98.6896C24.6301 98.9296 24.7401 99.1696 24.8501 99.3996C26.5301 102.87 28.8101 105.44 31.7001 107.09C34.5901 108.74 37.9701 109.4 41.8401 109.08C45.7201 108.76 49.8301 107.35 54.1801 104.84C58.5801 102.29 62.71 98.9496 66.55 94.8196C70.4 90.6796 73.7701 86.1096 76.6601 81.1296C79.5501 76.1396 81.8301 70.9396 83.5101 65.5296C85.1801 60.1196 86.0101 54.8896 86.0101 49.8396C86.0101 48.8096 85.6901 48.1396 85.0601 47.8296ZM51.0001 99.1896C44.6801 101.92 39.3901 101.79 35.1201 98.8096C33.9801 98.0196 32.9901 97.0596 32.1601 95.9396C30.9101 94.2596 30.0001 92.2196 29.4301 89.8096C28.9901 87.9596 28.7501 85.8996 28.7201 83.6196C28.7101 83.4196 28.7101 83.2096 28.7101 83.0096V82.9096C28.7101 81.8496 28.7801 80.7396 28.9101 79.6096C29.0101 78.7696 29.1101 77.9296 29.2201 77.0796C29.2601 76.7396 29.3001 76.4096 29.3501 76.0696L44.6301 84.7796V88.4296C44.6301 90.4396 45.2501 91.7996 46.5001 92.5096C47.7501 93.2196 49.2501 93.0696 51.0001 92.0596V99.1896Z" class="pr-icon-iso-duotone-primary-stroke" stroke-linejoin="round"/>
    <path d="M51 92.0598V99.1898L37.73 92.5598L31 89.1898V84.7598L41.23 89.8698L46.5 92.5098C47.75 93.2198 49.25 93.0698 51 92.0598Z" class="pr-icon-iso-duotone-primary-stroke" stroke-linejoin="round"/>
    <path d="M44.6302 84.7796L29.2202 77.0796C29.2602 76.7396 29.3002 76.4096 29.3502 76.0696L44.6302 84.7796Z" class="pr-icon-iso-duotone-primary-stroke" stroke-linejoin="round"/>
    <path d="M46.4999 92.5096L41.23 89.8696L30.9999 84.7596L28.72 83.6196C28.71 83.4196 28.71 83.2096 28.71 83.0096V82.9096C28.71 81.8496 28.78 80.7396 28.91 79.6096C29.01 78.7696 29.11 77.9296 29.22 77.0796L44.6299 84.7796V88.4296C44.6299 90.4396 45.2499 91.7996 46.4999 92.5096Z" class="pr-icon-iso-duotone-primary-stroke" stroke-linejoin="round"/>
    <path d="M62.2301 28.4797C61.9001 28.4197 61.5201 28.4597 61.1001 28.6097C59.9901 28.9497 58.8601 29.3797 57.7201 29.9197C56.5801 30.4597 55.4001 31.0797 54.1801 31.7797C52.7901 32.5797 51.4301 33.4597 50.1001 34.4397C47.2401 36.4997 44.4801 38.9497 41.8401 41.7797C37.9701 45.9297 34.5901 50.4997 31.7001 55.4897C30.5401 57.4897 29.4801 59.5097 28.5301 61.5697C27.0801 64.6597 25.8601 67.8097 24.8501 71.0397C24.5001 72.1597 24.1901 73.2797 23.9201 74.3797C22.8701 78.5897 22.3501 82.6897 22.3501 86.6897C22.3501 88.2497 22.43 89.7397 22.61 91.1497C22.92 93.9497 23.5601 96.4697 24.5401 98.6897C24.6301 98.9297 24.7401 99.1697 24.8501 99.3997C26.5301 102.87 28.8101 105.44 31.7001 107.09L12.86 97.6897L12.5101 97.5197C12.2401 97.3897 11.9701 97.2397 11.7001 97.0897C8.81007 95.4397 6.5301 92.8697 4.8501 89.3997C3.1801 85.9197 2.3501 81.6797 2.3501 76.6897C2.3501 71.6997 3.1801 66.4197 4.8501 61.0397C6.5301 55.6597 8.81007 50.4797 11.7001 45.4897C14.5901 40.4997 17.9701 35.9297 21.8401 31.7797C25.7201 27.6297 29.8301 24.2897 34.1801 21.7797C35.4001 21.0797 36.5801 20.4597 37.7201 19.9197C38.8601 19.3797 39.9901 18.9497 41.1001 18.6097C41.9001 18.3297 42.5401 18.4197 43.0101 18.8697L50.2101 22.4697L62.2301 28.4797Z" class="pr-icon-iso-duotone-primary-stroke" stroke-linejoin="round"/>
    <path d="M83.7502 12.7897C82.5902 12.3097 81.2203 12.5196 79.6503 13.4296C78.8903 13.8696 78.1803 14.4097 77.5203 15.0697C76.6503 15.9197 75.8603 16.9496 75.1503 18.1696C75.0703 18.3096 74.9903 18.4497 74.9203 18.5897C73.8203 20.5897 73.2803 22.5297 73.2803 24.4097V28.0597L68.7003 25.7696L53.2803 18.0597V14.4097C53.2803 12.3997 53.9003 10.3196 55.1503 8.16964C56.4003 6.01964 57.9003 4.43965 59.6503 3.42965C61.4003 2.41965 62.9003 2.26967 64.1403 2.97967L83.7502 12.7897Z" class="pr-icon-iso-duotone-primary-stroke" stroke-linejoin="round"/>
    <path d="M88.0903 20.3596C87.5203 20.1196 86.8203 20.2396 86.0103 20.7096V19.3196L88.0903 20.3596Z" class="pr-icon-iso-duotone-primary-stroke" stroke-linejoin="round"/>
    <path d="M73.28 28.0596C72.38 28.5796 71.6199 29.3696 71.0099 30.4196C70.3999 31.4696 70.1 32.5196 70.1 33.5496V44.5096C70.1 45.5396 70.3999 46.2396 71.0099 46.5796L65.8199 43.9796L62.47 42.3096C63.23 40.7496 63.64 39.2396 63.71 37.7596C63.73 37.5796 63.73 37.4096 63.73 37.2296V31.0196C63.73 30.7696 63.7099 30.5396 63.6799 30.3196C63.5899 29.6896 63.3699 29.2096 63.0099 28.8696C62.7899 28.6596 62.5399 28.5296 62.2399 28.4796H62.23L50.21 22.4696C50.34 21.7896 50.6099 21.1096 51.0099 20.4196C51.6199 19.3696 52.38 18.5796 53.28 18.0596L68.7 25.7696L73.28 28.0596Z" class="pr-icon-iso-duotone-primary-stroke" stroke-linejoin="round"/>
    <path d="M88.2801 20.4496L88.0901 20.3595C87.5201 20.1195 86.8201 20.2396 86.0101 20.7096V17.0596C86.0101 15.0496 85.3901 13.6896 84.1401 12.9796L83.7501 12.7896C82.5901 12.3096 81.2201 12.5196 79.6501 13.4296C78.8901 13.8696 78.1801 14.4096 77.5201 15.0696C76.6501 15.9196 75.8601 16.9495 75.1501 18.1695C75.0701 18.3095 74.9901 18.4496 74.9201 18.5896C73.8201 20.5896 73.2801 22.5296 73.2801 24.4096V28.0596C72.3801 28.5796 71.6201 29.3695 71.0101 30.4195C70.4001 31.4695 70.1001 32.5195 70.1001 33.5495V44.5096C70.1001 45.5396 70.4001 46.2395 71.0101 46.5795C71.6201 46.9295 72.3801 46.8496 73.2801 46.3196L77.3501 43.9696L86.0101 38.9696C86.9101 38.4496 87.6701 37.6695 88.2801 36.6095C88.8901 35.5595 89.2001 34.5196 89.2001 33.4796V22.5196C89.2001 21.4896 88.8901 20.7996 88.2801 20.4496ZM82.8301 22.5496L76.4601 26.2196V22.5696C76.4601 21.6396 76.7101 20.6896 77.2201 19.7396C77.2701 19.6396 77.3201 19.5396 77.3801 19.4396C77.9901 18.3896 78.7401 17.5995 79.6501 17.0795C80.0201 16.8595 80.3801 16.7196 80.7001 16.6596C81.1501 16.5596 81.5501 16.6196 81.9101 16.8196C82.2201 16.9996 82.4501 17.2595 82.6001 17.6095C82.7501 17.9495 82.8301 18.3795 82.8301 18.8895V22.5496Z" class="pr-icon-iso-duotone-primary-stroke" stroke-linejoin="round"/>
    <path d="M82.8302 18.8895V22.5495L77.2202 19.7396C77.2702 19.6396 77.3202 19.5396 77.3802 19.4396C77.9902 18.3896 78.7402 17.5995 79.6502 17.0795C80.0202 16.8595 80.3802 16.7196 80.7002 16.6596C81.1502 16.5596 81.5502 16.6196 81.9102 16.8196C82.2202 16.9996 82.4502 17.2595 82.6002 17.6095C82.7502 17.9495 82.8302 18.3795 82.8302 18.8895Z" class="pr-icon-iso-duotone-primary-stroke" stroke-linejoin="round"/>
    <path d="M82.83 22.5497L76.46 26.2198V22.5698C76.46 21.6398 76.71 20.6897 77.22 19.7397L82.83 22.5497Z" class="pr-icon-iso-duotone-primary-stroke" stroke-linejoin="round"/>
    <path d="M85.0599 47.8296C84.4199 47.5296 83.6499 47.6396 82.7499 48.1596C81.7899 48.7096 81.0399 49.5196 80.4799 50.5696C79.9199 51.6196 79.6499 52.6296 79.6499 53.6096C79.6499 57.4396 79.0499 61.3596 77.8599 65.3696C76.6599 69.3796 75.0299 73.3196 72.9599 77.1896C72.6099 76.1796 72.0299 75.4696 71.2099 75.0596L71.0799 74.9996L63.7299 71.3296V66.4496C63.7299 65.4096 63.4199 64.7196 62.8099 64.3696L62.6199 64.2796L60.6299 63.2796L55.8999 60.9196C56.6499 59.0896 57.2999 57.2396 57.8599 55.3696C58.7499 52.3696 59.3099 49.4196 59.5399 46.5196C60.3899 45.6796 61.1599 44.6696 61.8599 43.4696C62.0899 43.0796 62.2899 42.6896 62.4699 42.3096L65.8199 43.9796L71.0099 46.5796C71.6199 46.9296 72.3799 46.8496 73.2799 46.3196L77.3499 43.9696L85.0599 47.8296Z" class="pr-icon-iso-duotone-primary-stroke" stroke-linejoin="round"/>
    <path d="M62.6202 64.2797C62.0502 64.0497 61.3602 64.1597 60.5502 64.6297L59.8202 65.0497L55.8102 67.3697L41.4502 75.6597V68.3597L43.7302 67.0397L47.8102 64.6797C48.7202 64.1597 49.4702 63.3697 50.0802 62.3197C50.6902 61.2697 51.0002 60.2197 51.0002 59.1897V58.4697L55.9002 60.9197L60.6302 63.2797L62.6202 64.2797Z" class="pr-icon-iso-duotone-primary-stroke" stroke-linejoin="round"/>
</svg>