<svg width="48" height="48" viewBox="0 0 91 113" fill="#c8e7ff" xmlns="http://www.w3.org/2000/svg" stroke-width="1px" stroke-linecap="round" stroke-linejoin="round"><path d="M85.4695 34.8803C83.5395 31.1003 81.1296 27.7903 78.2396 24.9603C75.3496 22.1203 72.2195 19.7003 68.8495 17.7003C67.2595 16.7603 65.7295 15.9003 64.2595 15.1303L63.9695 14.9803L61.7896 13.8903L61.6595 13.8303C60.9095 13.4703 60.1695 13.1303 59.4495 12.8203C58.8995 12.5003 58.2596 12.4203 57.5396 12.5603C57.0796 12.6503 56.6195 12.8003 56.1495 13.0203C55.8695 13.1303 55.5995 13.2703 55.3195 13.4303C54.5595 13.8603 53.8195 14.4303 53.0995 15.1203C52.3795 15.8203 51.7396 16.6403 51.1896 17.5903C48.2996 22.1803 45.1596 27.4203 41.7896 33.3203C40.9896 34.7103 40.2095 36.1103 39.4495 37.5203C36.9595 42.0703 34.6095 46.7103 32.3895 51.4303C30.6795 55.0803 29.1395 58.7003 27.7795 62.2903C26.8195 64.7703 25.9596 67.2403 25.1696 69.7003C23.2396 75.7103 22.2695 81.1603 22.2695 86.0603C22.2695 91.7103 23.0896 96.4203 24.7396 100.17C26.3096 103.76 28.6395 106.48 31.7195 108.33C32.0095 108.51 32.2995 108.67 32.5995 108.83L32.9296 108.99C39.0196 112 46.4795 110.96 55.3195 105.85C64.7495 100.4 72.6095 92.1503 78.9095 81.0903C85.2095 70.0303 88.3596 58.9703 88.3596 47.9103C88.3596 43.0103 87.3995 38.6703 85.4695 34.8803ZM69.6696 53.8403L55.0095 87.6603C54.4595 88.9303 53.6796 89.6903 52.6796 89.9503C51.6896 90.2103 51.1896 89.7503 51.1896 88.5703V70.3203L42.6196 75.2703C41.7896 75.7403 41.1896 75.6803 40.8096 75.0603C40.4296 74.4503 40.4795 73.6103 40.9595 72.5503L43.5795 66.5103L50.1295 51.4103L55.6295 38.7203C56.1795 37.4603 56.9495 36.6903 57.9495 36.4303C58.9495 36.1703 59.4495 36.6403 59.4495 37.8203V56.0703L66.6696 51.9003L68.0195 51.1203C68.8495 50.6403 69.4495 50.7103 69.8295 51.3203C70.2095 51.9303 70.1496 52.7703 69.6696 53.8403Z" stroke="#229EFF" stroke-linejoin="round"/><path d="M69.6696 53.8407L55.0096 87.6607C54.4596 88.9307 53.6796 89.6907 52.6796 89.9507C51.6896 90.2107 51.1896 89.7507 51.1896 88.5707V70.3207L43.5796 66.5107L50.1296 51.4107L59.4496 56.0707L66.6696 51.9007L68.0196 51.1207C68.8496 50.6407 69.4496 50.7107 69.8296 51.3207C70.2096 51.9307 70.1496 52.7707 69.6696 53.8407Z" stroke="#229EFF" stroke-linejoin="round"/><path d="M11.7197 98.3301C12.4297 98.7601 13.1497 99.1201 13.8997 99.4301L11.7197 98.3301Z" stroke="#229EFF" stroke-linejoin="round"/><path d="M51.1895 70.3198L42.6195 75.2698C41.7895 75.7398 41.1895 75.6798 40.8095 75.0598C40.4295 74.4498 40.4795 73.6098 40.9595 72.5498L43.5795 66.5098L51.1895 70.3198Z" stroke="#229EFF" stroke-linejoin="round"/><path d="M59.4499 37.8199V56.0699L50.1299 51.4099L55.6299 38.7199C56.1799 37.4599 56.9499 36.6899 57.9499 36.4299C58.9499 36.1699 59.4499 36.6399 59.4499 37.8199Z" stroke="#229EFF" stroke-linejoin="round"/><path d="M61.6595 13.8303C60.9095 13.4703 60.1695 13.1303 59.4495 12.8203C58.8995 12.5003 58.2596 12.4203 57.5396 12.5603C57.0796 12.6503 56.6195 12.8003 56.1495 13.0203C55.8695 13.1303 55.5995 13.2703 55.3195 13.4303C54.5595 13.8603 53.8195 14.4303 53.0995 15.1203C52.3795 15.8203 51.7396 16.6403 51.1896 17.5903C48.2996 22.1803 45.1596 27.4203 41.7896 33.3203C40.9896 34.7103 40.2095 36.1103 39.4495 37.5203C36.9595 42.0703 34.6095 46.7103 32.3895 51.4303C30.6795 55.0803 29.1395 58.7003 27.7795 62.2903C26.8195 64.7703 25.9596 67.2403 25.1696 69.7003C23.2396 75.7103 22.2695 81.1603 22.2695 86.0603C22.2695 91.7103 23.0896 96.4203 24.7396 100.17C26.3096 103.76 28.6395 106.48 31.7195 108.33C32.0095 108.51 32.2995 108.67 32.5995 108.83L13.8995 99.4303L11.7195 98.3303C5.41954 94.5503 2.26953 87.1203 2.26953 76.0603C2.26953 71.1603 3.23956 65.7103 5.16956 59.7003C7.08956 53.6903 9.49953 47.6003 12.3895 41.4303C15.2895 35.2503 18.4196 29.2203 21.7896 23.3203C25.1596 17.4203 28.2996 12.1803 31.1896 7.59031C31.7396 6.64031 32.3795 5.82034 33.0995 5.12034C33.8195 4.43034 34.5595 3.86034 35.3195 3.43034C36.0795 2.99034 36.8196 2.70034 37.5396 2.56034C38.2596 2.42034 38.8995 2.50029 39.4495 2.82029C40.5295 3.29029 41.6395 3.80035 42.7795 4.38035L43.9695 4.98032L61.6595 13.8303Z" stroke="#229EFF" stroke-linejoin="round"/></svg>