<svg width="48" height="48" viewBox="0 0 82 114" class="pr-icon-iso-duotone-secondary"
     xmlns="http://www.w3.org/2000/svg" stroke-width="1px" stroke-linecap="round" stroke-linejoin="round">
    <path d="M71.0999 14.5296C70.9299 14.4296 70.7598 14.3396 70.5898 14.2596L70.0898 14.0096C66.5598 12.3396 62.5498 12.1796 58.0698 13.5296C55.8198 14.1996 53.44 15.2496 50.95 16.6896C50.65 16.8596 50.35 17.0396 50.05 17.2296C45.25 20.1396 40.91 23.9796 37.02 28.7396C35.96 30.0196 34.95 31.3796 33.96 32.7996C32.87 34.3796 31.81 36.0496 30.8 37.7996C30.68 37.9996 30.57 38.2096 30.46 38.4096C28.82 41.2796 27.4398 44.1396 26.3198 46.9696C25.0698 50.0996 24.14 53.2096 23.52 56.2996C22.87 59.4496 22.55 62.5796 22.55 65.6896C22.55 66.0296 22.5498 66.3696 22.5698 66.7096C22.6598 70.4196 23.2699 73.6296 24.4099 76.3296C25.6499 79.2696 27.3999 81.5296 29.6499 83.0796V108.95C29.6499 110.14 30.03 110.9 30.77 111.25C30.88 111.3 30.9899 111.34 31.1099 111.37C32.0899 111.62 33.1699 111.16 34.3499 110L50.95 94.1096L67.55 90.8396C68.73 90.6296 69.81 89.8396 70.79 88.4596C71.77 87.0796 72.25 85.7096 72.25 84.3496V58.4796C74.5 54.3296 76.25 50.0596 77.49 45.6796C78.73 41.2896 79.3599 37.0296 79.3599 32.8896C79.3599 23.7896 76.5999 17.6696 71.0999 14.5296ZM66.04 57.8896C62.21 64.5096 57.61 69.5296 52.25 72.9396C51.82 73.2196 51.39 73.4796 50.95 73.7296C45.03 77.1496 39.9999 77.6796 35.8599 75.3196C32.3099 73.2896 30.28 69.6396 29.79 64.3696C29.69 63.4896 29.6499 62.5596 29.6499 61.5896C29.6499 60.8996 29.67 60.2096 29.72 59.5096C29.91 56.2696 30.58 52.9896 31.71 49.6696C31.95 48.9896 32.2 48.2996 32.48 47.6096C33.34 45.4296 34.4099 43.2296 35.6799 41.0196C35.7299 40.9096 35.7999 40.7996 35.8599 40.6896C35.9499 40.5396 36.0399 40.3796 36.1399 40.2296C38.0899 36.9096 40.2399 34.0096 42.5999 31.5196C43.1299 30.9496 43.68 30.3996 44.24 29.8796C46.33 27.8996 48.57 26.2196 50.95 24.8396C51.34 24.6096 51.7299 24.3996 52.1099 24.1996C54.6899 22.8496 57.0998 22.0696 59.3398 21.8696C61.7798 21.6396 64.02 22.1096 66.04 23.2596C70.18 25.6196 72.25 30.1996 72.25 36.9896C72.25 43.7796 70.18 50.7496 66.04 57.8896Z" class="pr-icon-iso-duotone-primary-stroke" stroke-linejoin="round"/>
    <path d="M43.6499 66.4796L34.0798 61.6996L29.72 59.5096C29.91 56.2696 30.58 52.9896 31.71 49.6696L39.5898 53.6096L41.6699 54.3196L45.8 55.7196L43.49 65.6096C43.4 66.0396 43.4499 66.3296 43.6499 66.4796Z" class="pr-icon-iso-duotone-primary-stroke" stroke-linejoin="round"/>
    <path d="M51.5698 36.0096C51.4298 35.9596 51.25 35.9896 51.03 36.1096C51 36.1196 50.98 36.1296 50.95 36.1496C50.48 36.4196 50.1798 36.8296 50.0598 37.3696L48.9099 42.1996L47.76 47.0596L46.78 46.5696L36.53 41.4496L35.6799 41.0196C35.7299 40.9096 35.7999 40.7996 35.8599 40.6896C35.9499 40.5396 36.0399 40.3796 36.1399 40.2296C38.0899 36.9096 40.2399 34.0096 42.5999 31.5196L51.1199 35.7796L51.5698 36.0096Z" class="pr-icon-iso-duotone-primary-stroke" stroke-linejoin="round"/>
    <path d="M62.3097 40.4896L56.0099 49.8296L58.3197 57.0496C58.4397 57.4596 58.3199 57.9196 57.9599 58.4296C57.6099 58.9396 57.2498 59.1296 56.8998 58.9896L52.2499 57.5397L50.9499 57.1297L44.9098 65.9097C44.5598 66.4597 44.1998 66.6796 43.8498 66.5796L43.6498 66.4797C43.4498 66.3297 43.3999 66.0396 43.4899 65.6096L45.8 55.7196L41.6698 54.3197L39.5898 53.6096C39.2898 53.4396 39.1997 53.0996 39.3197 52.5896C39.4397 52.0796 39.7098 51.7096 40.1198 51.4696L45.8898 48.1396L47.7599 47.0596L48.9098 42.1997L50.0597 37.3696C50.1797 36.8296 50.4799 36.4196 50.9499 36.1496C50.9799 36.1296 50.9999 36.1196 51.0299 36.1096C51.2499 35.9896 51.4297 35.9597 51.5697 36.0097L51.6298 36.0397C51.7298 36.0997 51.7998 36.1997 51.8398 36.3497L54.1498 43.3696L54.9298 42.9196L61.6899 39.0097C61.8999 38.8897 62.0699 38.8397 62.2099 38.8797C62.3499 38.9097 62.4499 39.0097 62.5199 39.1897C62.6699 39.5397 62.6 39.9796 62.3 40.4896H62.3097Z" class="pr-icon-iso-duotone-primary-stroke" stroke-linejoin="round"/>
    <path d="M62.21 38.8796C62.07 38.8396 61.8999 38.8896 61.6899 39.0096L54.9299 42.9196L54.1499 43.3696L51.8398 36.3496C51.7998 36.1996 51.7299 36.0996 51.6299 36.0396L51.5698 36.0096L51.1199 35.7796L42.5999 31.5196C43.1299 30.9496 43.68 30.3996 44.24 29.8796L51.6099 33.5696L57.27 36.4096L62.21 38.8796Z" class="pr-icon-iso-duotone-primary-stroke" stroke-linejoin="round"/>
    <path d="M47.76 47.0596L45.8899 48.1396L40.1199 51.4696C39.7099 51.7096 39.4398 52.0796 39.3198 52.5896C39.1998 53.0996 39.2898 53.4396 39.5898 53.6096L31.71 49.6696C31.95 48.9896 32.2 48.2996 32.48 47.6096C33.34 45.4296 34.4099 43.2296 35.6799 41.0196L36.53 41.4396L46.78 46.5696L47.76 47.0596Z" class="pr-icon-iso-duotone-primary-stroke" stroke-linejoin="round"/>
    <path d="M72.25 36.9896C72.25 43.7796 70.18 50.7496 66.04 57.8896C62.21 64.5096 57.61 69.5296 52.25 72.9396C51.82 73.2196 51.39 73.4796 50.95 73.7296C45.03 77.1496 39.9999 77.6796 35.8599 75.3196C32.3099 73.2896 30.28 69.6396 29.79 64.3696C30.17 64.1696 30.56 63.9596 30.95 63.7296C32.02 63.1096 33.0598 62.4396 34.0798 61.6996L43.6499 66.4796L43.8499 66.5796C44.1999 66.6796 44.5599 66.4596 44.9099 65.9096L50.95 57.1296L52.25 57.5396L56.8999 58.9896C57.2499 59.1296 57.61 58.9396 57.96 58.4296C58.32 57.9196 58.4398 57.4596 58.3198 57.0496L56.01 49.8296L62.3098 40.4896C62.6098 39.9796 62.68 39.5396 62.53 39.1896C62.46 39.0096 62.36 38.9096 62.22 38.8796L57.28 36.4096L51.6199 33.5696C52.0499 31.3596 52.26 29.1696 52.26 26.9896C52.26 26.0096 52.2199 25.0796 52.1199 24.1996C54.6999 22.8496 57.1099 22.0696 59.3499 21.8696C61.7899 21.6396 64.03 22.1096 66.05 23.2596C70.19 25.6196 72.26 30.1996 72.26 36.9896H72.25Z" class="pr-icon-iso-duotone-primary-stroke" stroke-linejoin="round"/>
    <path d="M30.77 111.25L10.8398 101.27L10.6699 101.19C9.98992 100.83 9.6499 100.08 9.6499 98.9496V73.0796L29.6499 83.0796V108.95C29.6499 110.14 30.03 110.9 30.77 111.25Z" class="pr-icon-iso-duotone-primary-stroke" stroke-linejoin="round"/>
    <path d="M70.0898 14.0096C66.5598 12.3396 62.5498 12.1796 58.0698 13.5296C55.8198 14.1996 53.44 15.2496 50.95 16.6896C50.65 16.8596 50.35 17.0396 50.05 17.2296C45.25 20.1396 40.91 23.9796 37.02 28.7396C35.96 30.0196 34.95 31.3796 33.96 32.7996C32.87 34.3796 31.81 36.0496 30.8 37.7996C30.68 37.9996 30.57 38.2096 30.46 38.4096C28.82 41.2796 27.4398 44.1396 26.3198 46.9696C25.0698 50.0996 24.14 53.2096 23.52 56.2996C22.87 59.4496 22.55 62.5796 22.55 65.6896C22.55 66.0296 22.5498 66.3696 22.5698 66.7096C22.6598 70.4196 23.2699 73.6296 24.4099 76.3296C25.6499 79.2696 27.3999 81.5296 29.6499 83.0796L9.6499 73.0796C7.3999 71.5296 5.64991 69.2696 4.40991 66.3296C3.16991 63.3796 2.55005 59.8296 2.55005 55.6896C2.55005 46.5896 5.30005 37.2896 10.8 27.7996C16.3 18.3096 23.02 11.2696 30.95 6.68964C38.62 2.26964 45.1598 1.44963 50.5598 4.23963L70.0898 14.0096Z" class="pr-icon-iso-duotone-primary-stroke" stroke-linejoin="round"/>
    <path d="M62.29 38.9196L62.22 38.8796" class="pr-icon-iso-duotone-primary-stroke" stroke-linejoin="round"/>
</svg>