<svg width="24" height="24" viewBox="0 0 128 89" class="pr-icon-iso-duotone-secondary" xmlns="http://www.w3.org/2000/svg" stroke-width="1px" stroke-linecap="round" stroke-linejoin="round">
    <path d="M75.52 9.64984V29.6298C75.52 31.2498 74.68 32.6498 72.98 33.8498C72.75 33.6998 72.51 33.5498 72.25 33.3998C69.98 32.0898 67.23 31.4298 64 31.4298C60.77 31.4198 58.03 32.0698 55.77 33.3698C55.48 33.5398 55.2 33.7098 54.95 33.8898C53.16 32.6798 52.26 31.2398 52.25 29.5898V9.58984C52.26 11.4498 53.4 13.0398 55.67 14.3498C57.94 15.6598 60.69 16.3198 63.92 16.3198C67.14 16.3198 69.89 15.6798 72.15 14.3798C74.39 13.0798 75.52 11.4998 75.52 9.64984Z" class="pr-icon-iso-duotone-primary-stroke" stroke-linejoin="round"/>
    <path d="M75.5201 9.62976V9.64976C75.5201 11.4998 74.3901 13.0798 72.1501 14.3798C69.8901 15.6798 67.14 16.3298 63.92 16.3198C60.69 16.3198 57.94 15.6598 55.67 14.3498C53.4 13.0398 52.2601 11.4498 52.2501 9.58976C52.2401 7.71976 53.3601 6.13976 55.6201 4.82976C57.8801 3.52976 60.62 2.87976 63.85 2.88976C67.07 2.88976 69.8201 3.54976 72.0901 4.85976C74.3701 6.17976 75.5101 7.75976 75.5201 9.62976Z" class="pr-icon-iso-duotone-primary-stroke" stroke-linejoin="round"/>
    <path d="M26.2401 38.08V38.1C26.2401 39.95 25.1201 41.53 22.8701 42.83C20.6101 44.13 17.8701 44.78 14.6401 44.77C11.4201 44.77 8.67009 44.11 6.40009 42.8C4.12009 41.48 2.98004 39.9 2.97004 38.03C2.96004 36.17 4.09009 34.59 6.34009 33.28C8.60009 31.98 11.3401 31.33 14.5701 31.34C17.8001 31.34 20.5501 32 22.8201 33.31C25.0901 34.62 26.2301 36.21 26.2401 38.08Z" class="pr-icon-iso-duotone-primary-stroke" stroke-linejoin="round"/>
    <path d="M50.8801 23.8499V23.8699C50.8801 25.7199 49.7601 27.3099 47.5101 28.5999C45.2501 29.9099 42.5101 30.5499 39.2801 30.5499C36.0501 30.5399 33.3001 29.8799 31.0301 28.5699C28.7601 27.2599 27.6201 25.6699 27.6101 23.8099C27.6001 21.9499 28.72 20.3599 30.98 19.0599C33.24 17.7599 35.9801 17.1099 39.2101 17.1099C42.4301 17.1199 45.1801 17.7799 47.4601 19.0899C49.7301 20.3999 50.8701 21.9899 50.8801 23.8499Z" class="pr-icon-iso-duotone-primary-stroke" stroke-linejoin="round"/>
    <path d="M125.1 38.2498V38.2698C125.1 40.1298 123.98 41.7098 121.73 42.9998C119.47 44.3098 116.73 44.9598 113.5 44.9498C110.27 44.9498 107.52 44.2898 105.25 42.9698C102.98 41.6598 101.84 40.0698 101.83 38.2098C101.82 36.3498 102.94 34.7698 105.2 33.4598C107.46 32.1598 110.2 31.5098 113.43 31.5098C116.65 31.5098 119.4 32.1798 121.68 33.4898C123.95 34.7998 125.09 36.3898 125.1 38.2498Z" class="pr-icon-iso-duotone-primary-stroke" stroke-linejoin="round"/>
    <path d="M100.3 23.9397V23.9597C100.3 25.8097 99.1801 27.3997 96.9301 28.6897C94.6701 29.9897 91.9301 30.6397 88.7001 30.6397C85.4701 30.6397 82.7201 29.9697 80.4501 28.6597C78.1801 27.3497 77.0401 25.7597 77.0301 23.8997C77.0201 22.0397 78.1401 20.4497 80.4001 19.1497C82.6601 17.8397 85.4001 17.1997 88.6301 17.1997C91.8501 17.1997 94.6001 17.8697 96.8801 19.1797C99.1501 20.4897 100.29 22.0797 100.3 23.9397Z" class="pr-icon-iso-duotone-primary-stroke" stroke-linejoin="round"/>
    <path d="M75.6701 38.1598V38.1798C75.6701 40.0398 74.5501 41.6198 72.3001 42.9098C70.0401 44.2198 67.3001 44.8698 64.0701 44.8598C60.8501 44.8598 58.1001 44.1998 55.8201 42.8798C53.5501 41.5698 52.4101 39.9898 52.4001 38.1198C52.3901 36.4998 53.2401 35.0898 54.9501 33.8898C55.2001 33.7098 55.4801 33.5398 55.7701 33.3698C58.0301 32.0698 60.7701 31.4198 64.0001 31.4298C67.2301 31.4298 69.9801 32.0898 72.2501 33.3998C72.5101 33.5498 72.7501 33.6998 72.9801 33.8498C74.7601 35.0798 75.6601 36.5098 75.6701 38.1598Z" class="pr-icon-iso-duotone-primary-stroke" stroke-linejoin="round"/>
    <path d="M102.05 59.5497V57.4697C102.04 57.3097 102.02 57.1497 102 56.9997C101.97 56.7797 101.91 56.5697 101.83 56.3597C101.73 56.0597 101.57 55.7697 101.36 55.4797C100.91 54.8697 100.27 54.3197 99.4401 53.8397C98.6801 53.4097 97.7901 53.0497 96.7601 52.7697C95.7301 52.4897 94.5901 52.3497 93.3601 52.3497L75.67 52.2897L69.7001 52.2697L58.3601 52.2397L52.4001 52.2197H50.42C49.59 52.2197 48.82 52.2997 48.1 52.4697C47.38 52.6497 46.7501 52.8997 46.2001 53.2097L39.4301 57.1197C38.2601 57.7997 37.6801 58.5897 37.6901 59.4997C37.6901 60.4097 38.2801 61.1997 39.4501 61.8797L46.2701 65.8197C46.8201 66.1297 47.4601 66.3797 48.1801 66.5597C48.9001 66.7397 49.6701 66.8297 50.5001 66.8297L93.3301 66.9097C94.5701 66.9097 95.7201 66.7697 96.7801 66.4697C97.8401 66.1797 98.7501 65.8097 99.5001 65.3797C100.26 64.9397 100.85 64.4197 101.3 63.8097C101.74 63.1897 101.99 62.5497 102.06 61.8697V59.5497H102.05ZM85.48 61.8997L85.4601 57.3897H93.2801L93.3101 61.7997L85.48 61.8997Z" class="pr-icon-iso-duotone-primary-stroke" stroke-linejoin="round"/>
    <path d="M93.3101 61.7997L85.48 61.8997L85.4601 57.3896L93.2801 57.3997L93.3101 61.7997Z" class="pr-icon-iso-duotone-primary-stroke" stroke-linejoin="round"/>
    <path d="M125.1 38.27V58.25C125.11 60.12 123.99 61.7 121.73 63C119.47 64.31 116.73 64.96 113.5 64.95C110.27 64.95 107.52 64.29 105.25 62.97C103.55 61.99 102.48 60.85 102.05 59.55V57.47C102.04 57.31 102.02 57.15 102 57C101.97 56.78 101.91 56.57 101.83 56.36V38.21C101.84 40.07 102.98 41.66 105.25 42.97C107.52 44.29 110.27 44.95 113.5 44.95C116.73 44.95 119.47 44.31 121.73 43C123.98 41.71 125.1 40.13 125.1 38.27Z" class="pr-icon-iso-duotone-primary-stroke" stroke-linejoin="round"/>
    <path d="M100.3 23.9599V43.9399C100.31 45.7999 99.19 47.3899 96.93 48.6899C94.67 49.9899 91.93 50.6399 88.7 50.6399C85.47 50.6399 82.72 49.9699 80.45 48.6599C78.18 47.3499 77.04 45.7599 77.03 43.8999V23.8999C77.04 25.7599 78.18 27.3499 80.45 28.6599C82.72 29.9699 85.47 30.6299 88.7 30.6399C91.93 30.6399 94.67 29.9899 96.93 28.6899C99.18 27.3999 100.3 25.8099 100.3 23.9599Z" class="pr-icon-iso-duotone-primary-stroke" stroke-linejoin="round"/>
    <path d="M50.8801 23.8696V43.8496C50.8901 45.7096 49.7701 47.2996 47.5101 48.5996C45.2501 49.9096 42.5102 50.5496 39.2802 50.5496C36.0502 50.5396 33.3002 49.8796 31.0302 48.5696C28.7602 47.2596 27.6201 45.6696 27.6101 43.8096V23.8096C27.6201 25.6696 28.7602 27.2596 31.0302 28.5696C33.3002 29.8796 36.0502 30.5396 39.2802 30.5496C42.5102 30.5496 45.2501 29.9096 47.5101 28.5996C49.7601 27.3096 50.8801 25.7196 50.8801 23.8696Z" class="pr-icon-iso-duotone-primary-stroke" stroke-linejoin="round"/>
    <path d="M26.24 38.0998V58.0798C26.25 59.9398 25.13 61.5198 22.87 62.8298C20.61 64.1298 17.87 64.7798 14.64 64.7698C11.42 64.7698 8.67002 64.1098 6.40002 62.7998C4.12002 61.4798 2.97997 59.8998 2.96997 58.0298V38.0298C2.97997 39.8998 4.12002 41.4798 6.40002 42.7998C8.67002 44.1098 11.42 44.7698 14.64 44.7698C17.87 44.7798 20.61 44.1298 22.87 42.8298C25.12 41.5298 26.24 39.9498 26.24 38.0998Z" class="pr-icon-iso-duotone-primary-stroke" stroke-linejoin="round"/>
    <path d="M102.03 77.47L102.05 81.87C101.98 82.55 101.73 83.19 101.29 83.81C100.84 84.42 100.25 84.94 99.4901 85.38C98.7401 85.81 97.8301 86.18 96.7701 86.47C95.7101 86.77 94.5601 86.91 93.3201 86.91L50.4901 86.83C49.6601 86.83 48.89 86.74 48.17 86.56C47.45 86.38 46.8101 86.13 46.2601 85.82L39.4401 81.88C38.2701 81.2 37.6801 80.41 37.6801 79.5V59.5C37.6801 60.41 38.2701 61.2 39.4401 61.88L46.2601 65.82C46.8101 66.13 47.45 66.38 48.17 66.56C48.89 66.74 49.6601 66.83 50.4901 66.83L93.3201 66.91C94.5601 66.91 95.7101 66.77 96.7701 66.47C97.8301 66.18 98.7401 65.81 99.4901 65.38C100.25 64.94 100.84 64.42 101.29 63.81C101.73 63.19 101.98 62.55 102.05 61.87L102.03 77.47Z" class="pr-icon-iso-duotone-primary-stroke" stroke-linejoin="round"/>
    <path d="M75.6701 38.1796V52.2896L69.7001 52.2696L58.3601 52.2396L52.4001 52.2196V38.1196C52.4101 39.9896 53.5501 41.5696 55.8201 42.8796C58.1001 44.1996 60.8501 44.8596 64.0701 44.8596C67.3001 44.8696 70.0401 44.2196 72.3001 42.9096C74.5501 41.6196 75.6701 40.0396 75.6701 38.1796Z" class="pr-icon-iso-duotone-primary-stroke" stroke-linejoin="round"/>
</svg>