<svg width="48" height="48" viewBox="0 0 120 91" fill="#c8e7ff" xmlns="http://www.w3.org/2000/svg" stroke-width="1px" stroke-linecap="round" stroke-linejoin="round"><path d="M33.8398 55.6598V56.6698H33.8499V55.6598H33.8398Z" stroke="#229EFF" stroke-linejoin="round"/><path d="M72.1692 50.8998V70.8998L61.7092 76.9398V66.1298C61.6492 65.3598 61.1492 64.6798 60.2192 64.1098C59.2792 63.5398 58.1491 63.2698 56.8091 63.2998L50.6191 63.3398L72.1692 50.8998Z" stroke="#229EFF" stroke-linejoin="round"/><path d="M61.71 66.1298V86.1298C61.71 86.9298 61.24 87.6098 60.28 88.1598C59.32 88.7198 58.15 88.9898 56.75 88.9898L38.7998 88.9598C37.3998 88.9498 36.2398 88.6798 35.2998 88.1398C34.3698 87.6098 33.8999 86.9298 33.8999 86.1298L33.8398 75.6598V56.6698H33.8499L33.8999 66.1298C33.8999 66.9298 34.3698 67.6098 35.2998 68.1398C36.2398 68.6798 37.3998 68.9498 38.7998 68.9598L56.75 68.9898C58.15 68.9898 59.32 68.7198 60.28 68.1598C61.24 67.6098 61.71 66.9298 61.71 66.1298Z" stroke="#229EFF" stroke-linejoin="round"/><path d="M117.22 45.9398C117.22 46.7198 116.73 47.3898 115.75 47.9498L98.3698 57.9898C96.4598 59.0898 94.1298 59.6398 91.3998 59.6398C88.6698 59.6298 86.3398 59.0798 84.4198 57.9598L72.1698 50.8998L50.6198 63.3398L56.8097 63.2998C58.1497 63.2698 59.2799 63.5398 60.2199 64.1098C61.1499 64.6798 61.6499 65.3598 61.7099 66.1298C61.7099 66.9298 61.2399 67.6098 60.2799 68.1598C59.3199 68.7198 58.1499 68.9898 56.7499 68.9898L38.7997 68.9598C37.3997 68.9498 36.2397 68.6798 35.2997 68.1398C34.3697 67.6098 33.8998 66.9298 33.8998 66.1298L33.8498 56.6698V55.6598C33.8398 54.9198 34.2999 54.2698 35.2299 53.6998C36.1499 53.1298 37.3099 52.8498 38.7099 52.8498C39.2299 52.8498 39.7299 52.8998 40.2099 52.9998C40.8899 53.1298 41.5298 53.3698 42.1098 53.7098C43.0998 54.2798 43.5998 54.9398 43.6098 55.6798L43.7099 59.2498L65.1798 46.8598C67.0898 45.7498 69.4098 45.1998 72.1398 45.2098C74.8798 45.2098 77.1998 45.7698 79.1298 46.8798L91.3698 53.9498L108.75 43.9098C109.74 43.3498 110.9 43.0598 112.24 43.0698C113.57 43.0698 114.74 43.3598 115.73 43.9298C116.72 44.4998 117.22 45.1698 117.22 45.9398Z" stroke="#229EFF" stroke-linejoin="round"/><path d="M30.2195 47.9698V67.9498C30.2295 68.7598 29.7493 69.4298 28.7993 69.9898C27.8393 70.5398 26.6695 70.8098 25.2695 70.8098L7.30933 70.7798C5.91933 70.7798 4.74934 70.5098 3.81934 69.9698C2.88934 69.4298 2.41942 68.7598 2.40942 67.9498L2.35938 57.4798V57.4598L2.40942 47.9498C2.41942 48.7598 2.88934 49.4298 3.81934 49.9698C4.74934 50.5098 5.91933 50.7798 7.30933 50.7798L25.2695 50.8098C26.6695 50.8098 27.8393 50.5398 28.7993 49.9898C29.7393 49.4398 30.2195 48.7698 30.2195 47.9698Z" stroke="#229EFF" stroke-linejoin="round"/><path d="M47.2597 5.5498C47.2597 6.3198 46.7695 6.98978 45.7895 7.55978L28.3996 17.5998L38.7196 23.5598L40.6496 24.6698C42.5696 25.7798 43.5395 27.1198 43.5495 28.6998V28.8498L43.5395 28.8598C43.4795 30.3598 42.5296 31.6498 40.6896 32.7198L30.3195 38.7098L23.3695 42.7198L19.2196 45.1098H25.3295C26.6095 45.1298 27.7296 45.3998 28.6896 45.9598C29.6496 46.5198 30.1596 47.1798 30.2196 47.9498V47.9698C30.2196 48.7698 29.7395 49.4398 28.7995 49.9898C27.8395 50.5398 26.6697 50.8098 25.2697 50.8098L7.30949 50.7798C5.91949 50.7798 4.7495 50.5098 3.8195 49.9698C2.8895 49.4298 2.41958 48.7598 2.40958 47.9498L2.35953 37.4798C2.34953 36.7398 2.80966 36.0898 3.73966 35.5198C4.66966 34.9498 5.82964 34.6698 7.21964 34.6698C8.49964 34.6698 9.63955 34.9598 10.6296 35.5298C11.6196 36.1098 12.1195 36.7598 12.1195 37.4998L12.2297 41.0698L18.5495 37.4198L33.6896 28.6798L31.7697 27.5698L21.4496 21.6098C19.5296 20.4998 18.5595 19.1598 18.5495 17.5798C18.5395 15.9998 19.4996 14.6598 21.4096 13.5598L38.7895 3.51981C39.7695 2.94981 40.9297 2.6698 42.2697 2.6698C43.6097 2.6698 44.7697 2.95979 45.7597 3.52979C46.7497 4.10979 47.2497 4.7798 47.2597 5.5498Z" stroke="#229EFF" stroke-linejoin="round"/><path d="M117.22 45.9398V65.9398C117.22 66.7198 116.73 67.3898 115.75 67.9498L98.3699 77.9898C96.4599 79.0898 94.1299 79.6398 91.3999 79.6398C88.6699 79.6298 86.3399 79.0798 84.4199 77.9598L72.1699 70.8998V50.8998L84.4199 57.9598C86.3399 59.0798 88.6699 59.6298 91.3999 59.6398C94.1299 59.6398 96.4599 59.0898 98.3699 57.9898L115.75 47.9498C116.73 47.3898 117.22 46.7198 117.22 45.9398Z" stroke="#229EFF" stroke-linejoin="round"/><path d="M47.2605 5.5498V25.5498C47.2605 26.3198 46.7703 26.9898 45.7903 27.5598L43.5503 28.8498V28.6998C43.5403 27.1198 42.5704 25.7798 40.6504 24.6698L38.7205 23.5598L28.4004 17.5998L45.7903 7.55978C46.7703 6.98978 47.2605 6.3198 47.2605 5.5498Z" stroke="#229EFF" stroke-linejoin="round"/><path d="M43.5486 28.8499V48.6999C43.5486 50.2699 42.5987 51.6098 40.6887 52.7198L40.2087 52.9998C39.7287 52.8998 39.2287 52.8499 38.7087 52.8499C37.3087 52.8499 36.1488 53.1299 35.2288 53.6999C34.2988 54.2699 33.8386 54.9199 33.8386 55.6599V56.6699L30.2188 58.7599V47.9499C30.1588 47.1799 29.6487 46.5199 28.6887 45.9599C27.7287 45.3999 26.6086 45.1298 25.3286 45.1198H19.2188L23.3687 42.7198L30.3186 38.7099L40.6887 32.7198C42.5287 31.6498 43.4786 30.3599 43.5386 28.8599C43.5386 28.8599 43.5486 28.8599 43.5486 28.8499Z" stroke="#229EFF" stroke-linejoin="round"/><path d="M33.689 28.6798L18.5488 37.4198V17.5798C18.5588 19.1598 19.529 20.4998 21.449 21.6098L31.769 27.5698L33.689 28.6798Z" stroke="#229EFF" stroke-linejoin="round"/></svg>