<svg width="48" height="48" viewBox="0 0 88 73" fill="#c8e7ff" xmlns="http://www.w3.org/2000/svg" stroke-width="1px" stroke-linecap="round" stroke-linejoin="round"><path d="M85.4297 40.1443V60.1243C85.4397 61.4343 84.5698 62.5944 82.8198 63.6044C81.0698 64.6144 79.0498 65.1243 76.7798 65.1143C74.5098 65.1143 72.4897 64.6044 70.7297 63.5844C68.9697 62.5644 68.0898 61.4044 68.0798 60.0944L67.9697 39.3344V22.1543H67.9797L68.0798 40.0944C68.0898 41.4044 68.9697 42.5644 70.7297 43.5844C72.4897 44.6044 74.5098 45.1143 76.7798 45.1143C79.0498 45.1243 81.0698 44.6144 82.8198 43.6044C84.2098 42.8044 85.0398 41.9043 85.3198 40.9143C85.3898 40.6643 85.4297 40.4043 85.4297 40.1443Z" stroke="#229EFF" stroke-linejoin="round"/><path d="M55.53 12.1544L38.29 22.1045L20.99 32.0945H19.5801C17.3101 32.0945 15.29 31.5745 13.53 30.5645C11.77 29.5445 10.8899 28.3745 10.8799 27.0645V7.06445C10.8899 8.37445 11.77 9.54445 13.53 10.5645C15.29 11.5745 17.3101 12.0845 19.5801 12.0945L55.53 12.1544Z" stroke="#229EFF" stroke-linejoin="round"/><path d="M85.4299 40.1245V40.1446C85.4299 40.4046 85.3901 40.6646 85.3201 40.9146C85.0401 41.9046 84.2101 42.8046 82.8201 43.6046C81.0701 44.6146 79.05 45.1245 76.78 45.1145C74.51 45.1145 72.49 44.6046 70.73 43.5846C68.97 42.5646 68.0901 41.4046 68.0801 40.0946L67.98 22.1546V19.3346L63.0898 22.1546L45.79 32.1345L17.3 48.5846C15.55 49.5946 13.4899 50.1046 11.1099 50.0946C8.73986 50.0946 6.66991 49.5846 4.90991 48.5646C3.14991 47.5446 2.26 46.3545 2.25 44.9845C2.25 43.6045 3.11987 42.4146 4.86987 41.4046L20.99 32.0946L38.29 22.1046L55.53 12.1546L19.5801 12.0946C17.3101 12.0946 15.29 11.5746 13.53 10.5646C11.77 9.5446 10.8899 8.3746 10.8799 7.0646C10.8699 5.7546 11.74 4.59462 13.5 3.58462C15.25 2.57462 17.26 2.06461 19.53 2.07461L76.55 2.17458C79.03 2.18458 81.1 2.66452 82.75 3.61452C84.41 4.57452 85.25 5.77461 85.25 7.20461L85.4299 40.1245Z" stroke="#229EFF" stroke-linejoin="round"/><path d="M67.97 19.3345V39.3345L17.3 68.5845C15.55 69.5945 13.4899 70.1045 11.1099 70.0945C8.73986 70.0945 6.66991 69.5845 4.90991 68.5645C3.14991 67.5445 2.26 66.3544 2.25 64.9844V44.9844C2.26 46.3544 3.14991 47.5445 4.90991 48.5645C6.66991 49.5845 8.73986 50.0945 11.1099 50.0945C13.4899 50.1045 15.55 49.5945 17.3 48.5845L45.79 32.1344L63.0898 22.1544L67.97 19.3345Z" stroke="#229EFF" stroke-linejoin="round"/></svg>