<svg width="24" height="24" viewBox="0 0 115 88" class="pr-icon-iso-duotone-secondary" xmlns="http://www.w3.org/2000/svg" stroke-width="1px" stroke-linecap="round" stroke-linejoin="round">
    <path d="M112.45 34.57V54.57C112.45 58.56 111.13 62.48 108.5 66.34C105.84 70.23 101.84 73.71 96.5099 76.79C91.1699 79.87 85.14 82.18 78.4 83.71C71.67 85.25 64.8199 86.01 57.8499 86C50.8899 85.98 44.03 85.2 37.28 83.64C30.53 82.08 24.4699 79.75 19.0999 76.65C13.7299 73.55 9.69994 70.05 6.99994 66.16C4.29994 62.26 2.93992 58.3 2.91992 54.28V34.28C2.93992 37.62 3.87994 40.93 5.74994 44.19C6.12994 44.85 6.54994 45.5 6.99994 46.16C9.69994 50.05 13.7299 53.55 19.0999 56.65C24.4699 59.75 30.53 62.08 37.28 63.64C40.89 64.47 44.53 65.08 48.2 65.47C51.39 65.82 54.6099 65.99 57.8499 66C59.5299 66 61.2099 65.96 62.8799 65.87C68.1199 65.6 73.29 64.88 78.4 63.71C85.14 62.18 91.1699 59.87 96.5099 56.79C101.84 53.71 105.84 50.23 108.5 46.34C108.9 45.75 109.28 45.16 109.61 44.56C111.5 41.28 112.45 37.95 112.45 34.57Z" class="pr-icon-iso-duotone-primary-stroke" stroke-linejoin="round"/>
    <path d="M108.37 22.6C105.67 18.7 101.64 15.2 96.2602 12.1C90.8902 9.00001 84.8302 6.67001 78.0802 5.11001C71.3402 3.56001 64.4802 2.77001 57.5102 2.76001C50.5402 2.76001 43.6902 3.51001 36.9602 5.04001C30.2302 6.57001 24.2002 8.88001 18.8602 11.96C13.5202 15.04 9.52016 18.53 6.87016 22.41C4.21016 26.3 2.90015 30.26 2.92015 34.28C2.94015 37.62 3.88016 40.93 5.75016 44.19C6.13016 44.85 6.55016 45.5 7.00016 46.16C9.70016 50.05 13.7301 53.55 19.1001 56.65C24.4701 59.75 30.5302 62.08 37.2802 63.64C40.8902 64.47 44.5302 65.08 48.2002 65.47C51.3902 65.82 54.6101 65.99 57.8501 66C59.5301 66 61.2102 65.96 62.8802 65.87C68.1202 65.6 73.2902 64.88 78.4002 63.71C85.1402 62.18 91.1702 59.87 96.5102 56.79C101.84 53.71 105.84 50.23 108.5 46.34C108.9 45.75 109.28 45.16 109.61 44.56C111.5 41.28 112.45 37.95 112.45 34.57V34.48C112.43 30.45 111.07 26.49 108.37 22.6ZM77.8602 25.06C77.8602 25.06 77.8501 25.07 77.8501 25.08L63.3302 45.24L58.3601 52.14C57.8501 52.89 56.9002 53.25 55.5102 53.23C54.1202 53.21 53.1702 52.82 52.6502 52.08L50.1701 48.4L46.0202 42.23C45.8202 41.97 45.5801 41.76 45.2901 41.59C45.0001 41.42 44.6301 41.28 44.1701 41.17L27.0302 37.28C25.7302 36.98 25.0702 36.43 25.0302 35.63C25.0002 34.83 25.6201 34.28 26.9101 33.99L70.0202 23.63L73.7802 22.73C75.0702 22.44 76.2002 22.57 77.1702 23.13C78.1302 23.68 78.3702 24.33 77.8602 25.06Z" class="pr-icon-iso-duotone-primary-stroke" stroke-linejoin="round"/>
    <path d="M77.8603 25.06C77.8603 25.06 77.8503 25.07 77.8503 25.08L63.3303 45.24L50.1703 48.4L46.0203 42.23C45.8203 41.97 45.5803 41.76 45.2903 41.59C45.0003 41.42 44.6303 41.28 44.1703 41.17L27.0303 37.28C25.7303 36.98 25.0703 36.43 25.0303 35.63C25.0003 34.83 25.6203 34.28 26.9103 33.99L70.0203 23.63L73.7803 22.73C75.0703 22.44 76.2003 22.57 77.1703 23.13C78.1303 23.68 78.3703 24.33 77.8603 25.06Z" class="pr-icon-iso-duotone-primary-stroke" stroke-linejoin="round"/>
    <path d="M112.45 57.9001V54.5701" class="pr-icon-iso-duotone-primary-stroke" stroke-linejoin="round"/>
</svg>