<svg width="48" height="48" viewBox="0 0 128 75" fill="#c8e7ff" xmlns="http://www.w3.org/2000/svg" stroke-width="1px" stroke-linecap="round" stroke-linejoin="round"><path d="M86.6201 44.0898V52.4099H86.6101L86.6201 44.0898Z" stroke="#229EFF" stroke-linejoin="round"/><path d="M125.09 54.6802C125.09 54.9202 125.01 55.1501 124.86 55.3801C124.53 55.9101 123.91 56.2801 123 56.5101C122.09 56.7401 121.19 56.7502 120.28 56.5502L113.77 55.1401V43.7101C113.77 43.1501 113.4 42.6601 112.66 42.2301L106.85 38.8701V32.2002C106.85 32.4802 106.95 32.7602 107.17 33.0502C107.57 33.5702 108.23 33.9301 109.13 34.1301L120.28 36.5502C121.19 36.7502 122.09 36.7401 123 36.5101C123.91 36.2801 124.53 35.9101 124.86 35.3801C124.97 35.2101 125.05 35.0401 125.08 34.8601V54.6802H125.09Z" stroke="#229EFF" stroke-linejoin="round"/><path d="M113.77 43.73V63.71C113.78 64.26 113.41 64.7501 112.68 65.1801C111.94 65.6001 111.09 65.8101 110.13 65.8101C109.17 65.8101 108.32 65.59 107.58 65.17L99.05 60.25C98.4 59.87 98.04 59.45 97.96 58.98V50.47L97.97 50.41C97.98 50.31 97.9599 50.21 97.9399 50.11V38.77C97.9399 39.33 98.31 39.82 99.05 40.25L101.84 41.86L106.85 44.75L107.58 45.17C108.32 45.59 109.17 45.8101 110.13 45.8101C111.09 45.8101 111.94 45.6001 112.68 45.1801C113.4 44.7601 113.77 44.27 113.77 43.73Z" stroke="#229EFF" stroke-linejoin="round"/><path d="M101.84 25.3701V36.6802C101.75 36.6702 101.67 36.6702 101.58 36.6702C100.62 36.6702 99.77 36.8802 99.04 37.3002C98.3 37.7302 97.9399 38.2201 97.9399 38.7701V49.9801C97.9399 49.9801 97.9202 49.9901 97.9102 49.9901C97.8702 49.8801 97.81 49.7802 97.74 49.6702L93.6301 43.1802C93.2301 42.6202 92.5702 42.2102 91.6702 41.9502C90.7602 41.6902 89.8201 41.6701 88.8601 41.9001C87.9601 42.0901 87.3102 42.4701 86.9102 43.0201C86.7502 43.2601 86.6501 43.4801 86.6201 43.7101V52.4102L74.8 54.6602C73.04 54.9502 71.3001 54.9901 69.5701 54.7701C67.8401 54.5501 66.32 54.0702 65.02 53.3102L58.1101 49.3301V29.3301L65.02 33.3102C66.32 34.0702 67.8401 34.5501 69.5701 34.7701C71.3001 34.9901 73.04 34.9502 74.8 34.6602L83.9202 32.9202L95.1799 30.7701C98.5699 30.1201 100.69 28.8002 101.53 26.8002C101.74 26.3102 101.84 25.8301 101.84 25.3701Z" stroke="#229EFF" stroke-linejoin="round"/><path d="M58.1101 29.3301V49.3301L56.26 49.9302V33.3002C56.26 32.5502 55.7701 31.8901 54.8101 31.3301L53.78 30.7401L58.1101 29.3301Z" stroke="#229EFF" stroke-linejoin="round"/><path d="M97.97 50.4104V50.4703C97.97 50.5203 97.9599 50.5804 97.9399 50.6404C97.8899 50.8304 97.7801 51.0203 97.6201 51.2103C97.2001 51.7203 96.5401 52.0704 95.6301 52.2604C94.7301 52.4604 93.8202 52.4403 92.9102 52.2103C92.2602 52.0503 91.7602 51.8104 91.4102 51.4904C91.2602 51.3704 91.14 51.2303 91.04 51.0803L86.8401 44.6404C86.7201 44.4604 86.6401 44.2703 86.6201 44.0903V43.7103C86.6501 43.4803 86.7502 43.2604 86.9102 43.0204C87.3102 42.4704 87.9601 42.0904 88.8601 41.9004C89.8201 41.6704 90.7602 41.6904 91.6702 41.9504C92.5702 42.2104 93.2301 42.6204 93.6301 43.1804L97.74 49.6704C97.81 49.7804 97.8702 49.8804 97.9102 49.9904C97.9202 50.0304 97.9399 50.0703 97.9399 50.1103C97.9599 50.2103 97.98 50.3104 97.97 50.4104Z" stroke="#229EFF" stroke-linejoin="round"/><path d="M125.08 34.6004V34.8604C125.05 35.0404 124.97 35.2105 124.86 35.3805C124.53 35.9105 123.91 36.2805 123 36.5105C122.09 36.7405 121.19 36.7505 120.28 36.5505L109.13 34.1305C108.23 33.9305 107.57 33.5705 107.17 33.0505C106.95 32.7605 106.85 32.4805 106.85 32.2005C106.85 31.9605 106.92 31.7204 107.08 31.4804C107.42 30.9504 108.02 30.5704 108.9 30.3304C109.78 30.0804 110.67 30.0605 111.58 30.2605L122.72 32.6805C123.63 32.8805 124.3 33.2505 124.73 33.7905C124.95 34.0605 125.07 34.3404 125.08 34.6004Z" stroke="#229EFF" stroke-linejoin="round"/><path d="M101.84 25.3702C101.84 25.8302 101.74 26.3102 101.53 26.8002C100.69 28.8002 98.5699 30.1202 95.1799 30.7702L83.9202 32.9202L74.8 34.6602C73.04 34.9502 71.3001 34.9902 69.5701 34.7702C67.8401 34.5502 66.32 34.0702 65.02 33.3102L58.1101 29.3301L53.78 30.7402L54.8101 31.3301C55.7701 31.8901 56.26 32.5502 56.26 33.3002C56.26 34.0502 55.7901 34.7002 54.8301 35.2602L48.05 39.1702C47.09 39.7302 45.9601 40.0002 44.6501 40.0002C43.3401 40.0002 42.21 39.7202 41.25 39.1602L37.3701 36.9202L36.6401 36.5002L24.6001 40.5002C21.7701 41.4102 18.75 41.7402 15.55 41.4902C12.35 41.2402 9.58 40.4402 7.25 39.1002C4.45 37.4802 3.00017 35.6202 2.92017 33.5202V33.1402C2.93017 32.8102 2.97005 32.4702 3.05005 32.1202C3.66005 29.4402 6.00007 27.4202 10.0701 26.0502L38.8 16.4403L39.25 16.2902C38.98 15.6102 38.83 14.9302 38.8 14.2402V13.4002C38.85 12.5602 39.0599 11.6903 39.4399 10.8203C40.2499 8.94026 41.93 7.26024 44.47 5.80024C48.2 3.64024 52.72 2.57015 58.05 2.58015C63.38 2.59015 67.9102 3.68017 71.6702 5.85017L98.95 21.6002C100.88 22.7102 101.84 23.9702 101.84 25.3702Z" stroke="#229EFF" stroke-linejoin="round"/><path d="M113.77 43.7103V43.7303C113.77 44.2703 113.4 44.7604 112.68 45.1804C111.94 45.6004 111.09 45.8104 110.13 45.8104C109.17 45.8104 108.32 45.5904 107.58 45.1704L106.85 44.7504L101.84 41.8604L99.05 40.2504C98.31 39.8204 97.9399 39.3304 97.9399 38.7704C97.9399 38.2104 98.3 37.7304 99.04 37.3004C99.77 36.8804 100.62 36.6704 101.58 36.6704C101.67 36.6704 101.75 36.6704 101.84 36.6804C102.7 36.7104 103.47 36.9204 104.14 37.3104L106.85 38.8704L112.66 42.2303C113.4 42.6603 113.77 43.1503 113.77 43.7103Z" stroke="#229EFF" stroke-linejoin="round"/><path d="M125.09 54.7902V54.6802" stroke="#229EFF" stroke-linejoin="round"/><path d="M97.9399 70.2504V70.1104" stroke="#229EFF" stroke-linejoin="round"/><path d="M86.6101 52.4102L86.6001 63.7101" stroke="#229EFF" stroke-linejoin="round"/><path d="M56.26 33.3003V53.3003C56.26 54.0503 55.7901 54.7003 54.8301 55.2603L48.05 59.1703C47.09 59.7303 45.9601 60.0002 44.6501 60.0002C43.3401 60.0002 42.21 59.7203 41.25 59.1603L36.6401 56.5002V36.5002L37.3701 36.9203L41.25 39.1603C42.21 39.7203 43.3501 40.0002 44.6501 40.0002C45.9501 40.0002 47.09 39.7303 48.05 39.1703L54.8301 35.2603C55.7901 34.7003 56.26 34.0503 56.26 33.3003Z" stroke="#229EFF" stroke-linejoin="round"/><path d="M36.6401 36.5005V56.5005L24.6001 60.5005C21.7701 61.4105 18.75 61.7405 15.55 61.4905C12.35 61.2405 9.58 60.4405 7.25 59.1005C4.36 57.4305 2.91016 55.5006 2.91016 53.3206V33.5205C3.00016 35.6205 4.45 37.4805 7.25 39.1005C9.58 40.4405 12.35 41.2405 15.55 41.4905C18.75 41.7405 21.7701 41.4105 24.6001 40.5005L36.6401 36.5005Z" stroke="#229EFF" stroke-linejoin="round"/><path d="M101.84 25.37V25.21" stroke="#229EFF" stroke-linejoin="round"/><path d="M39.25 16.2903L38.8 16.4403V14.2402C38.83 14.9302 38.98 15.6103 39.25 16.2903Z" stroke="#229EFF" stroke-linejoin="round"/><path d="M97.6201 71.2103C97.2001 71.7203 96.5401 72.0704 95.6301 72.2604C94.7301 72.4604 93.8202 72.4403 92.9102 72.2103C92.0002 71.9803 91.38 71.6003 91.04 71.0803L86.8401 64.6404C86.7201 64.4704 86.6501 64.2904 86.6201 64.1104V44.0903C86.6401 44.2703 86.7201 44.4604 86.8401 44.6404L91.04 51.0803C91.14 51.2303 91.2602 51.3704 91.4102 51.4904C91.7602 51.8104 92.2602 52.0503 92.9102 52.2103C93.8202 52.4403 94.7301 52.4604 95.6301 52.2604C96.5401 52.0704 97.2001 51.7203 97.6201 51.2103C97.7801 51.0203 97.8899 50.8304 97.9399 50.6404C97.9599 50.5804 97.97 50.5203 97.97 50.4703V58.5704L97.96 58.9803L97.9399 70.1104C98.0399 70.4804 97.9301 70.8403 97.6201 71.2103Z" stroke="#229EFF" stroke-linejoin="round"/></svg>