<svg viewBox="0 0 93 93" fill="#c8e7ff" xmlns="http://www.w3.org/2000/svg" height="48" width="48" stroke-width="1px" stroke-linecap="round" stroke-linejoin="round"><path d="M63.7905 39.1436V39.2036C63.7905 39.4536 63.8006 39.7036 63.8206 39.9436V38.4736C63.8006 38.7036 63.7905 38.9236 63.7905 39.1436Z" stroke="#229EFF" stroke-linejoin="round"/><path d="M90.6604 35.1638V55.1638C90.6604 56.3938 89.9204 57.4438 88.4104 58.3138C86.9104 59.1838 85.0904 59.6138 82.9504 59.6138C80.9404 59.6038 79.1905 59.2138 77.7305 58.4238V48.1538C77.7305 47.5838 77.4005 47.0638 76.7405 46.5838C76.1705 46.1238 75.6504 45.6438 75.2004 45.1438V35.1338C75.2104 35.8638 75.4705 36.5238 76.0105 37.1238C76.3705 37.5438 76.8605 37.9338 77.4805 38.2938C78.9905 39.1638 80.8204 39.6038 82.9504 39.6138C85.0904 39.6138 86.9104 39.1838 88.4104 38.3138C89.9204 37.4438 90.6604 36.3938 90.6604 35.1638Z" stroke="#229EFF" stroke-linejoin="round"/><path d="M77.7305 48.1541V68.1641C77.7305 68.2641 77.7104 68.3741 77.6904 68.4841C77.5404 69.1741 76.9705 69.7441 75.9805 70.1941C75.6505 70.3441 75.3004 70.4641 74.9504 70.5541V60.8241C74.9404 58.7841 74.0305 56.9541 72.2205 55.3641C71.5305 54.7441 70.7105 54.1541 69.7605 53.6041C67.9705 52.5741 65.9906 51.8041 63.8206 51.3141C63.8106 51.3141 63.8005 51.3141 63.7905 51.3041V39.2041C63.7905 39.4541 63.8006 39.7041 63.8206 39.9441C63.9106 41.1941 64.2305 42.4341 64.7705 43.6641C64.8705 43.8941 64.9806 44.1241 65.1006 44.3541C66.1006 46.3141 67.6705 48.1141 69.8105 49.7741C70.6005 50.3441 71.5705 50.6741 72.7505 50.7441C73.6205 50.8041 74.4404 50.7241 75.2004 50.4841C75.4704 50.4041 75.7305 50.3141 75.9805 50.1941C76.9705 49.7441 77.5404 49.1741 77.6904 48.4841C77.7104 48.3741 77.7305 48.2641 77.7305 48.1541Z" stroke="#229EFF" stroke-linejoin="round"/><path d="M37.3606 39.1437V46.9837L35.3706 48.1337C34.4906 48.6437 34.0505 49.2437 34.0605 49.9337V65.1037C33.5205 65.5337 32.9105 65.9337 32.2405 66.3237C28.8205 68.3037 24.6605 69.2837 19.7705 69.2737C14.8705 69.2637 10.7005 68.2737 7.2605 66.2837C3.8105 64.2937 2.08056 61.8837 2.07056 59.0537V39.0537C2.08056 41.8837 3.8105 44.2937 7.2605 46.2837C9.8205 47.7637 12.7904 48.6937 16.1604 49.0737C17.3204 49.2037 18.5205 49.2637 19.7705 49.2737C20.9805 49.2737 22.1405 49.2137 23.2605 49.1037C26.6705 48.7337 29.6705 47.8137 32.2405 46.3237C34.2805 45.1437 35.7105 43.8137 36.5305 42.3337C37.0905 41.3337 37.3606 40.2737 37.3606 39.1437Z" stroke="#229EFF" stroke-linejoin="round"/><path d="M63.7905 39.1446V39.2046C63.7905 39.4546 63.8006 39.7046 63.8206 39.9446V38.4746C63.8006 38.7046 63.7905 38.9246 63.7905 39.1446Z" stroke="#229EFF" stroke-linejoin="round"/><path d="M90.6604 35.1646C90.6604 36.3946 89.9204 37.4446 88.4104 38.3146C86.9104 39.1846 85.0904 39.6146 82.9504 39.6146C80.8204 39.6046 78.9905 39.1646 77.4805 38.2946C76.8605 37.9346 76.3705 37.5446 76.0105 37.1246C75.4705 36.5246 75.2104 35.8646 75.2004 35.1346C75.2004 34.8346 75.2406 34.5446 75.3306 34.2646C75.5006 33.7346 75.8306 33.2346 76.3306 32.7946C76.6406 32.5046 77.0104 32.2346 77.4504 31.9846C78.9504 31.1146 80.7704 30.6846 82.9004 30.6846C85.0404 30.6946 86.8606 31.1246 88.3806 32.0046C89.8906 32.8746 90.6504 33.9346 90.6604 35.1646Z" stroke="#229EFF" stroke-linejoin="round"/><path d="M76.0305 15.1642L70.9204 8.53421C70.4504 7.96421 69.8205 7.4442 69.0305 6.9942C68.2505 6.5442 67.3606 6.18421 66.3706 5.90421L54.8806 2.9542C54.0506 2.7742 53.1805 2.73421 52.2705 2.84421C51.3605 2.94421 50.5905 3.17421 49.9705 3.53421L42.8105 7.6742C39.2305 9.7342 36.9204 12.1942 35.9004 15.0542C35.5204 16.0942 35.3406 17.1142 35.3406 18.1142C35.3406 19.8542 35.9005 21.5242 37.0305 23.1242C37.3005 23.3942 37.5606 23.6442 37.8206 23.8842C38.0806 24.1242 38.3905 24.3542 38.7605 24.5642C39.1305 24.7742 39.5006 24.9542 39.8906 25.0842C40.2906 25.2242 40.6906 25.3542 41.1106 25.4742C42.4906 25.8042 43.9106 26.0442 45.3506 26.2042C47.2706 26.4242 49.2505 26.5042 51.2805 26.4242C52.5305 26.3842 53.8006 26.2842 55.0906 26.1242C57.4906 25.8342 59.7305 25.3742 61.8105 24.7342C64.0105 24.0642 66.0306 23.1942 67.8706 22.1342L75.0305 18.0042C75.6505 17.6442 76.0505 17.2042 76.2305 16.6742C76.3005 16.4842 76.3306 16.2942 76.3306 16.1142V16.0642C76.3206 15.7542 76.2205 15.4542 76.0305 15.1642ZM65.3506 17.9842C64.7206 18.3442 63.9405 18.5242 63.0105 18.5242L51.2805 18.4642H49.0305C47.7805 18.4542 46.7404 18.2142 45.9104 17.7242C45.0704 17.2442 44.6504 16.6442 44.6504 15.9242L44.6306 13.0342C44.6306 12.4942 44.9405 12.0442 45.5605 11.6842C46.1805 11.3242 46.9604 11.1442 47.9004 11.1542C48.8404 11.1542 49.6305 11.3442 50.2805 11.7142C50.9405 12.0942 51.2605 12.5542 51.2705 13.0942V14.7142L62.9905 14.7342C63.9205 14.7442 64.7106 14.9242 65.3306 15.2842C65.9606 15.6442 66.2705 16.0942 66.2805 16.6342C66.2805 17.1742 65.9706 17.6242 65.3506 17.9842Z" stroke="#229EFF" stroke-linejoin="round"/><path d="M51.2805 14.7147V18.4647H49.0305C47.7805 18.4547 46.7404 18.2147 45.9104 17.7247C45.0704 17.2447 44.6504 16.6447 44.6504 15.9247L44.6306 13.0347C44.6306 12.4947 44.9405 12.0447 45.5605 11.6847C46.1805 11.3247 46.9604 11.1447 47.9004 11.1547C48.8404 11.1547 49.6305 11.3447 50.2805 11.7147C50.9405 12.0947 51.2605 12.5547 51.2705 13.0947V14.7147H51.2805Z" stroke="#229EFF" stroke-linejoin="round"/><path d="M66.2805 16.6339C66.2805 17.1739 65.9706 17.6239 65.3506 17.9839C64.7206 18.3439 63.9405 18.5239 63.0105 18.5239L51.2805 18.4639V14.7139L62.9905 14.7339C63.9205 14.7439 64.7106 14.9239 65.3306 15.2839C65.9606 15.6439 66.2705 16.0939 66.2805 16.6339Z" stroke="#229EFF" stroke-linejoin="round"/><path d="M35.9103 35.0244C35.7403 34.7944 35.5505 34.5644 35.3405 34.3344C34.5205 33.4644 33.4703 32.6644 32.1603 31.9044C28.7203 29.9144 24.5503 28.9144 19.6603 28.9044C14.7603 28.8944 10.6004 29.8744 7.18035 31.8544C3.75035 33.8344 2.05049 36.2344 2.07049 39.0544C2.08049 41.8844 3.81043 44.2944 7.26043 46.2844C9.82043 47.7644 12.7903 48.6944 16.1603 49.0744C17.3203 49.2044 18.5204 49.2644 19.7704 49.2744C20.9804 49.2744 22.1404 49.2144 23.2604 49.1044C26.6704 48.7344 29.6704 47.8144 32.2404 46.3244C34.2804 45.1444 35.7104 43.8144 36.5304 42.3344C37.0904 41.3344 37.3605 40.2744 37.3605 39.1444V39.1244C37.3505 37.6344 36.8703 36.2744 35.9103 35.0244ZM25.9804 42.7044C24.2604 43.6944 22.1804 44.1844 19.7404 44.1844C17.3004 44.1844 15.2104 43.6844 13.4804 42.6844C11.7604 41.6944 10.9006 40.4844 10.8906 39.0744C10.8806 37.6644 11.7304 36.4644 13.4404 35.4744C15.1604 34.4844 17.2403 33.9944 19.6803 33.9944C22.1303 34.0044 24.2104 34.5044 25.9404 35.4944C27.6604 36.4944 28.5304 37.6944 28.5304 39.1044C28.5404 40.5144 27.6904 41.7244 25.9804 42.7044Z" stroke="#229EFF" stroke-linejoin="round"/><path d="M28.5306 39.1041C28.5406 40.5141 27.6906 41.7241 25.9806 42.7041C24.2606 43.6941 22.1806 44.1841 19.7406 44.1841C17.3006 44.1841 15.2106 43.6841 13.4806 42.6841C11.7606 41.6941 10.9007 40.4841 10.8907 39.0741C10.8807 37.6641 11.7305 36.4642 13.4405 35.4742C15.1605 34.4842 17.2405 33.9941 19.6805 33.9941C22.1305 34.0041 24.2105 34.5041 25.9405 35.4941C27.6605 36.4941 28.5306 37.6941 28.5306 39.1041Z" stroke="#229EFF" stroke-linejoin="round"/><path d="M72.2205 55.3645C71.5305 54.7445 70.7106 54.1545 69.7606 53.6045C67.9706 52.5745 65.9906 51.8045 63.8206 51.3145C63.8106 51.3145 63.8006 51.3145 63.7906 51.3045C61.7706 50.8445 59.5906 50.6045 57.2506 50.6045C55.5906 50.6045 54.0206 50.7145 52.5306 50.9445C49.6206 51.3745 47.0406 52.2545 44.7706 53.5645C43.8606 54.0845 43.0705 54.6445 42.4105 55.2245C42.4105 55.2245 42.404 55.2312 42.3907 55.2445C40.5607 56.8545 39.6505 58.6945 39.6605 60.7645C39.6705 62.2345 40.1406 63.5945 41.0806 64.8345C41.9406 65.9745 43.2007 67.0245 44.8507 67.9845C45.4207 68.3145 46.0007 68.6145 46.6107 68.8845C48.7507 69.8545 51.1306 70.4845 53.7606 70.7845C54.9106 70.9145 56.1107 70.9845 57.3607 70.9845C58.6107 70.9845 59.7307 70.9245 60.8507 70.8045C63.7107 70.5045 66.2706 69.8045 68.5406 68.7145C68.9806 68.5045 69.4106 68.2745 69.8306 68.0345C71.9406 66.8245 73.3905 65.4445 74.1905 63.9045C74.7005 62.9545 74.9505 61.9245 74.9505 60.8445V60.8245C74.9405 58.7845 74.0305 56.9545 72.2205 55.3645ZM64.7406 63.5945C64.4106 63.8845 64.0206 64.1545 63.5706 64.4145C61.8606 65.4045 59.7806 65.8945 57.3306 65.8845C55.4706 65.8845 53.8305 65.5945 52.4005 65.0245C51.9405 64.8445 51.5006 64.6345 51.0806 64.3945C49.3506 63.3945 48.4905 62.1945 48.4805 60.7745C48.4705 59.3645 49.3306 58.1645 51.0406 57.1745C51.5106 56.9045 52.0106 56.6645 52.5306 56.4845C53.9206 55.9545 55.5006 55.6945 57.2806 55.7045C59.7206 55.7045 61.8106 56.2045 63.5306 57.2045C63.6306 57.2645 63.7306 57.3245 63.8206 57.3845C65.3506 58.3345 66.1207 59.4745 66.1307 60.8145C66.1307 61.8545 65.6706 62.7845 64.7406 63.5945Z" stroke="#229EFF" stroke-linejoin="round"/><path d="M66.1307 60.8144C66.1307 61.8544 65.6706 62.7844 64.7406 63.5944C64.4106 63.8844 64.0206 64.1544 63.5706 64.4144C61.8606 65.4044 59.7807 65.8944 57.3307 65.8844C55.4707 65.8844 53.8305 65.5944 52.4005 65.0244C51.9405 64.8444 51.5007 64.6344 51.0807 64.3944C49.3507 63.3944 48.4906 62.1944 48.4806 60.7744C48.4706 59.3644 49.3306 58.1644 51.0406 57.1744C51.5106 56.9044 52.0106 56.6644 52.5306 56.4844C53.9206 55.9544 55.5006 55.6944 57.2806 55.7044C59.7206 55.7044 61.8106 56.2044 63.5306 57.2044C63.6306 57.2644 63.7306 57.3244 63.8206 57.3844C65.3506 58.3344 66.1207 59.4744 66.1307 60.8144Z" stroke="#229EFF" stroke-linejoin="round"/><path d="M74.9504 60.8447V80.8246C74.9604 83.6546 73.2606 86.0547 69.8306 88.0347C66.4106 90.0047 62.2506 90.9946 57.3606 90.9846C52.4706 90.9846 48.3006 89.9746 44.8506 87.9846C41.4006 85.9946 39.6704 83.5846 39.6604 80.7646V60.7646C39.6704 62.2346 40.1406 63.5947 41.0806 64.8347C41.9406 65.9747 43.2006 67.0246 44.8506 67.9846C45.4206 68.3146 46.0006 68.6146 46.6106 68.8846C48.7506 69.8546 51.1305 70.4847 53.7605 70.7847C54.9105 70.9147 56.1106 70.9846 57.3606 70.9846C58.6106 70.9846 59.7306 70.9247 60.8506 70.8047C63.7106 70.5047 66.2705 69.8047 68.5405 68.7147C68.9805 68.5047 69.4106 68.2747 69.8306 68.0347C71.9406 66.8247 73.3904 65.4447 74.1904 63.9047C74.7004 62.9547 74.9504 61.9247 74.9504 60.8447Z" stroke="#229EFF" stroke-linejoin="round"/><path d="M63.8206 38.4041V38.4742C63.8006 38.7042 63.7905 38.9241 63.7905 39.1441V51.3041C61.7705 50.8441 59.5905 50.6041 57.2505 50.6041C55.5905 50.6041 54.0205 50.7141 52.5305 50.9441V44.3741L52.5005 38.4742V38.2441L63.8206 38.4041Z" stroke="#229EFF" stroke-linejoin="round"/><path d="M77.7304 48.1545C77.7304 48.2645 77.7104 48.3745 77.6904 48.4845C77.5404 49.1745 76.9704 49.7445 75.9804 50.1945C75.7304 50.3145 75.4704 50.4045 75.2004 50.4845C74.4404 50.7245 73.6204 50.8045 72.7504 50.7445C71.5704 50.6745 70.6005 50.3445 69.8105 49.7745C67.6705 48.1145 66.1005 46.3145 65.1005 44.3545C64.9805 44.1245 64.8704 43.8945 64.7704 43.6645C64.2304 42.4345 63.9105 41.1945 63.8205 39.9445V38.4045L52.5004 38.2445V38.4745L52.5304 44.3745C52.5304 44.7445 52.4203 45.0745 52.1803 45.3945C51.9503 45.7045 51.6304 45.9845 51.2104 46.2245L50.8405 46.4345L42.4103 51.3045L41.6405 51.7545C40.7605 52.2645 39.7204 52.5145 38.5204 52.5145C38.1104 52.5145 37.7305 52.4845 37.3605 52.4245C36.6305 52.3145 35.9805 52.0845 35.3905 51.7445C34.5105 51.2245 34.0605 50.6245 34.0605 49.9345C34.0505 49.2445 34.4905 48.6445 35.3705 48.1345L37.3605 46.9845L40.3705 45.2445L42.3905 44.0745H42.4103L43.7004 43.3245L42.4103 35.6645C42.4003 35.5345 42.3905 35.4145 42.3905 35.2945V35.2445C42.4105 33.9345 43.2004 32.8045 44.7704 31.8145C46.5104 30.7145 48.6804 30.2045 51.2804 30.2645L63.5404 30.4245C65.9304 30.4345 67.9803 30.9345 69.6803 31.9445C71.3703 32.9545 72.2304 34.1545 72.2304 35.5345L72.6503 39.3845L72.8105 40.9045C73.0805 41.9545 73.5404 42.9545 74.1904 43.9045C74.4904 44.3245 74.8204 44.7445 75.2004 45.1445C75.6504 45.6445 76.1704 46.1245 76.7404 46.5845C77.4004 47.0645 77.7304 47.5845 77.7304 48.1545Z" stroke="#229EFF" stroke-linejoin="round"/><path d="M76.3306 16.1143V32.7943C75.8306 33.2343 75.5006 33.7343 75.3306 34.2643C75.2406 34.5443 75.2004 34.8342 75.2004 35.1342V37.8943C75.2004 37.8943 75.0905 37.9743 75.0305 38.0043L72.6504 39.3842L72.2305 35.5343C72.2305 34.1543 71.3704 32.9542 69.6804 31.9442C67.9804 30.9342 65.9305 30.4343 63.5405 30.4243L51.2805 30.2643C48.6805 30.2043 46.5105 30.7143 44.7705 31.8143C43.2005 32.8043 42.4106 33.9343 42.3906 35.2443V44.0742L40.3706 45.2443C40.2106 45.1943 40.0506 45.1443 39.8906 45.0843C39.5006 44.9543 39.1305 44.7743 38.7605 44.5643C38.3905 44.3543 38.0806 44.1242 37.8206 43.8842C37.6706 43.7442 37.5106 43.5942 37.3606 43.4442V39.1243C37.3506 37.6343 36.8704 36.2743 35.9104 35.0243C35.7404 34.7943 35.5506 34.5643 35.3406 34.3343V18.1143C35.3406 19.8543 35.9005 21.5243 37.0305 23.1243C37.3005 23.3943 37.5606 23.6442 37.8206 23.8842C38.0806 24.1242 38.3905 24.3543 38.7605 24.5643C39.1305 24.7743 39.5006 24.9543 39.8906 25.0843C40.2906 25.2243 40.6906 25.3543 41.1106 25.4743C42.4906 25.8043 43.9106 26.0443 45.3506 26.2043C47.2706 26.4243 49.2505 26.5043 51.2805 26.4243C52.5305 26.3843 53.8006 26.2843 55.0906 26.1243C57.4906 25.8343 59.7305 25.3743 61.8105 24.7343C64.0105 24.0643 66.0306 23.1942 67.8706 22.1342L75.0305 18.0043C75.6505 17.6443 76.0505 17.2043 76.2305 16.6743C76.3005 16.4843 76.3306 16.2943 76.3306 16.1143Z" stroke="#229EFF" stroke-linejoin="round"/><path d="M35.3406 18.1146V17.9346" stroke="#229EFF" stroke-linejoin="round"/><path d="M52.5305 44.374V50.944C49.6205 51.374 47.0405 52.254 44.7705 53.564C43.8605 54.084 43.0704 54.644 42.4104 55.224C42.4104 55.224 42.404 55.2307 42.3906 55.244C40.5606 56.854 39.6504 58.694 39.6604 60.764V72.424C39.3004 72.484 38.9205 72.514 38.5205 72.514C37.3205 72.514 36.2806 72.254 35.3906 71.744C34.5106 71.224 34.0605 70.624 34.0605 69.934V49.934C34.0605 50.624 34.5106 51.224 35.3906 51.744C35.9806 52.084 36.6306 52.314 37.3606 52.424C37.7306 52.484 38.1105 52.514 38.5205 52.514C39.7205 52.514 40.7606 52.264 41.6406 51.754L42.4104 51.304L50.8406 46.434L51.2104 46.224C51.6304 45.984 51.9504 45.704 52.1804 45.394C52.4204 45.074 52.5305 44.744 52.5305 44.374Z" stroke="#229EFF" stroke-linejoin="round"/><path d="M42.4104 55.2446V55.2246" stroke="#229EFF" stroke-linejoin="round"/><path d="M77.7305 48.154V48.084" stroke="#229EFF" stroke-linejoin="round"/><path d="M43.7004 43.3239L42.4104 44.064H42.3906V35.2939C42.3906 35.4139 42.4004 35.5339 42.4104 35.6639L43.7004 43.3239Z" stroke="#229EFF" stroke-linejoin="round"/><path d="M42.3906 44.1542V44.0742" stroke="#229EFF" stroke-linejoin="round"/></svg>