<svg width="48" height="48" viewBox="0 0 112 86" fill="#c8e7ff" xmlns="http://www.w3.org/2000/svg" stroke-width="1px" stroke-linecap="round" stroke-linejoin="round"><path d="M75.2402 46.3796L75.3203 46.4296V46.3296L75.2402 46.3796Z" stroke="#229EFF" stroke-linejoin="round"/><path d="M36.6799 26.3096V39.6196L29.02 35.1996C27.92 34.5696 27.3701 33.8296 27.3701 32.9796C27.3701 32.6896 27.43 32.4196 27.55 32.1596C27.79 31.6396 28.27 31.1696 28.99 30.7496L36.6799 26.3096Z" stroke="#229EFF" stroke-linejoin="round"/><path d="M56.05 41.9295V49.5595C54.59 49.5495 53.31 49.2295 52.23 48.5995L50.21 47.4395L44.49 44.1395L40.5801 46.3995V32.9995L44.3701 35.1895L50.1602 38.5295L56.05 41.9295Z" stroke="#229EFF" stroke-linejoin="round"/><path d="M67.51 21.9197V30.7997L55.95 24.1197L44.3701 30.8097V21.8697L52.0601 17.4397C53.1501 16.8097 54.4302 16.4897 55.9102 16.4997C57.3902 16.4997 58.68 16.8197 59.77 17.4497L67.51 21.9197Z" stroke="#229EFF" stroke-linejoin="round"/><path d="M36.6797 39.6201V39.7201L36.7598 39.6701L36.6797 39.6201Z" stroke="#229EFF" stroke-linejoin="round"/><path d="M89.5203 9.20996L67.5103 21.92L59.7703 17.45C58.6803 16.82 57.3904 16.5 55.9104 16.5C54.4304 16.49 53.1503 16.81 52.0603 17.44L44.3704 21.87L25.0303 10.71L36.3704 4.15996C37.7804 3.34996 39.4203 2.78996 41.2803 2.49996C43.1403 2.20996 45.0402 2.20996 46.9702 2.50996L89.5203 9.20996Z" stroke="#229EFF" stroke-linejoin="round"/><path d="M29.02 35.1999L36.6799 39.6199V39.7199L30.97 43.0099L14.75 52.3799L8.91016 40.0099L3.14014 27.8099C2.88014 27.2499 2.75 26.6899 2.75 26.1399V26.0599C2.76 25.5499 2.88012 25.0299 3.12012 24.5299C3.63012 23.4499 4.59 22.5099 6 21.6899L17.3401 15.1499L25.03 19.5899L34.6602 25.1499L36.6799 26.3099L28.99 30.7499C28.27 31.1699 27.79 31.6399 27.55 32.1599C27.43 32.4199 27.3701 32.6899 27.3701 32.9799C27.3701 33.8299 27.92 34.5699 29.02 35.1999Z" stroke="#229EFF" stroke-linejoin="round"/><path d="M71.4199 33.0601L67.51 35.3201L61.79 38.6201L56.05 41.9301L50.1602 38.5301L44.3701 35.1901L40.5801 33.0001L44.3701 30.8101L55.95 24.1201L67.51 30.8001L71.4199 33.0601Z" stroke="#229EFF" stroke-linejoin="round"/><path d="M109.25 39.9202C109.25 40.4602 109.13 41.0002 108.88 41.5302C108.37 42.6002 107.41 43.5502 106 44.3602L103.09 46.0402L94.6604 50.9102L81.0303 43.0402L75.3203 39.7402L83.0103 35.3002C84.0903 34.6702 84.6404 33.9302 84.6304 33.0802C84.6304 32.7602 84.5504 32.4602 84.4004 32.1702C84.1404 31.6802 83.6702 31.2402 82.9802 30.8502L76.6204 27.1802L75.2402 26.3802L89.5203 18.1402L97.2502 13.6802L108.86 38.2402C109.12 38.8102 109.25 39.3602 109.25 39.9202Z" stroke="#229EFF" stroke-linejoin="round"/><path d="M14.75 52.3801V72.3801L3.14014 47.8101C2.88014 47.2501 2.75 46.6901 2.75 46.1401V26.1401C2.75 26.6901 2.88014 27.2501 3.14014 27.8101L8.91016 40.0101L14.75 52.3801Z" stroke="#229EFF" stroke-linejoin="round"/><path d="M2.75 46.3301V46.1401" stroke="#229EFF" stroke-linejoin="round"/><path d="M44.3704 21.87V30.81L40.5803 33V39.68L36.6802 37.43V26.31L34.6604 25.15L25.0303 19.59V10.71L44.3704 21.87Z" stroke="#229EFF" stroke-linejoin="round"/><path d="M89.5198 9.20996V18.14L75.2397 26.38V37.46L71.4197 39.66V33.06L67.5098 30.8V21.92L89.5198 9.20996Z" stroke="#229EFF" stroke-linejoin="round"/><path d="M84.6304 33.0799C84.6404 33.9299 84.0903 34.6699 83.0103 35.2999L75.3203 39.7399V46.3299L75.2402 46.3799V26.3799L76.6204 27.1799L82.9802 30.8499C83.6702 31.2399 84.1404 31.6799 84.4004 32.1699C84.5504 32.4599 84.6304 32.7599 84.6304 33.0799Z" stroke="#229EFF" stroke-linejoin="round"/><path d="M109.25 39.9197V59.9197C109.25 60.4597 109.13 60.9997 108.88 61.5297C108.37 62.5997 107.41 63.5497 106 64.3597L94.6604 70.9097L86.9702 66.4697V55.3497L84.4502 53.8897L75.3203 48.6197V39.7397L81.0303 43.0397L94.6604 50.9097L103.09 46.0397L106 44.3597C107.41 43.5497 108.37 42.5997 108.88 41.5297C109.13 40.9997 109.25 40.4597 109.25 39.9197Z" stroke="#229EFF" stroke-linejoin="round"/><path d="M71.4197 33.0601V46.3701L67.6299 44.1801L61.8398 47.5201L59.9397 48.6201C58.8497 49.2501 57.5698 49.5601 56.0898 49.5601H56.0498V41.9301L61.7898 38.6201L67.5098 35.3201L71.4197 33.0601Z" stroke="#229EFF" stroke-linejoin="round"/><path d="M36.72 48.6297L27.6001 53.8897L22.48 56.8397V67.9197L14.75 72.3797V52.3797L30.97 43.0097L36.6799 39.7197L36.72 48.6297Z" stroke="#229EFF" stroke-linejoin="round"/><path d="M86.97 55.3501V75.3501L75.6301 81.8901C74.2201 82.7101 72.58 83.2601 70.72 83.5501C68.86 83.8501 66.96 83.8401 65.03 83.5401L22.48 76.8401V56.8401L35.3801 58.8701L36.76 59.0901L65.03 63.5401C66.96 63.8401 68.86 63.8501 70.72 63.5501C72.58 63.2601 74.2201 62.7101 75.6301 61.8901L77.3401 60.9101L86.97 55.3501Z" stroke="#229EFF" stroke-linejoin="round"/><path d="M86.97 55.3501L77.3401 60.9101L75.6301 61.8901C74.2201 62.7101 72.58 63.2601 70.72 63.5501C68.86 63.8501 66.96 63.8401 65.03 63.5401L36.76 59.0901L35.3801 58.8701L22.48 56.8401L27.6001 53.8901L36.72 48.6301L40.5801 46.4001L44.49 44.1401L50.21 47.4401L52.23 48.6001C53.31 49.2301 54.59 49.5501 56.05 49.5601H56.0901C57.5701 49.5601 58.8499 49.2501 59.9399 48.6201L61.8401 47.5201L67.6301 44.1801L71.4199 46.3701L75.3201 48.6201L84.45 53.8901L86.97 55.3501Z" stroke="#229EFF" stroke-linejoin="round"/><path d="M109.25 60.1799V59.9199" stroke="#229EFF" stroke-linejoin="round"/><path d="M109.25 39.9197V39.7397" stroke="#229EFF" stroke-linejoin="round"/></svg>