<svg width="24" height="24" viewBox="0 0 112 87" class="pr-icon-iso-duotone-secondary" xmlns="http://www.w3.org/2000/svg" stroke-width="1px" stroke-linecap="round" stroke-linejoin="round">
    <path d="M88.8312 36.7393C87.5212 34.3293 85.6213 31.9494 83.1213 29.5994C81.7013 28.2594 80.1313 26.9793 78.4113 25.7693C77.1213 24.8493 75.7513 23.9794 74.2913 23.1394C73.8813 22.8994 73.4713 22.6692 73.0513 22.4492C70.0013 20.7792 66.6813 19.3093 63.1013 18.0393C59.0213 16.5993 54.9013 15.4993 50.7213 14.7393C46.6213 14.0293 42.7913 13.7193 39.2313 13.8193C35.6613 13.9193 32.7713 14.6094 30.5513 15.8894L5.70123 30.2393C3.19123 31.6893 1.96123 33.6093 2.01123 35.9993C2.06123 38.3793 3.02125 40.9492 4.91125 43.6992C5.95125 45.2292 7.29125 46.7894 8.91125 48.3894C9.31125 48.7894 9.73126 49.1894 10.1713 49.5894C12.3813 51.6094 15.0013 53.4993 18.0312 55.2493C18.8213 55.6993 19.6213 56.1393 20.4113 56.5593C21.2013 56.9693 22.0312 57.3893 22.9012 57.8093L34.0912 51.3494C33.8712 51.2194 33.3512 50.9593 32.5212 50.5693C31.6912 50.1693 30.6613 49.6192 29.4313 48.9092C27.9913 48.0792 26.4213 47.0493 24.7213 45.8193C23.1913 44.7093 21.6412 43.4192 20.0712 41.9392C19.9012 41.7992 19.7412 41.6393 19.5712 41.4793C20.1912 41.3493 20.8112 41.2392 21.4412 41.1492C24.6612 40.6592 27.9512 40.5892 31.3312 40.9392C35.3612 41.3592 38.9313 42.4693 42.0312 44.2593C46.2213 46.6793 48.3212 49.5893 48.3412 52.9893C48.3612 56.3993 46.2912 59.2992 42.1312 61.7092C40.9312 62.2892 40.0312 62.7193 39.4412 62.9793C39.1512 63.1093 38.9313 63.1993 38.7913 63.2593C39.5513 63.4293 40.3113 63.5893 41.0513 63.7293C42.6413 64.0393 44.1912 64.2792 45.7112 64.4492C47.7212 64.6792 49.6312 64.8093 51.4612 64.8293C51.6612 64.8393 51.8712 64.8394 52.0712 64.8394C54.0912 64.8394 55.9412 64.6693 57.6312 64.3193C59.3212 63.9693 60.7713 63.4393 61.9913 62.7393L69.7913 58.2393L83.7313 50.1892L86.8412 48.3894C88.9212 47.1894 90.1213 45.6593 90.4313 43.7893C90.4513 43.6593 90.4713 43.5392 90.4813 43.4092C90.6913 41.3792 90.1412 39.1593 88.8312 36.7393ZM72.2812 49.2993C69.9113 50.6693 67.0413 51.3494 63.6613 51.3394C60.2713 51.3294 57.3912 50.6393 55.0112 49.2693C52.6312 47.8893 51.4313 46.2293 51.4213 44.2793C51.4113 42.3293 52.5912 40.6693 54.9612 39.2993C56.7312 38.2693 58.8012 37.6294 61.1512 37.3794C61.9312 37.2994 62.7412 37.2593 63.5812 37.2593C66.9612 37.2693 69.8413 37.9593 72.2213 39.3293C74.4913 40.6393 75.6813 42.2093 75.8013 44.0393C75.8113 44.1293 75.8113 44.2293 75.8113 44.3193C75.8213 46.2693 74.6412 47.9293 72.2812 49.2993Z" class="pr-icon-iso-duotone-primary-stroke" stroke-linejoin="round"/>
    <path d="M75.811 44.3193C75.821 46.2693 74.6409 47.9293 72.2809 49.2993C69.9109 50.6693 67.041 51.3494 63.661 51.3394C60.271 51.3294 57.3909 50.6393 55.0109 49.2693C52.6309 47.8893 51.431 46.2293 51.421 44.2793C51.411 42.3293 52.5909 40.6693 54.9609 39.2993C56.7309 38.2693 58.8009 37.6294 61.1509 37.3794C61.9309 37.2994 62.7409 37.2593 63.5809 37.2593C66.9609 37.2693 69.8409 37.9593 72.2209 39.3293C74.4909 40.6393 75.681 42.2093 75.801 44.0393C75.811 44.1293 75.811 44.2293 75.811 44.3193Z" class="pr-icon-iso-duotone-primary-stroke" stroke-linejoin="round"/>
    <path d="M109.851 13.2293V13.2793C109.851 16.1693 108.061 18.6393 104.501 20.6993C102.471 21.8693 100.231 22.7093 97.7908 23.2193C95.8308 23.6293 93.7408 23.8294 91.5108 23.8194C89.3008 23.8094 87.2408 23.5892 85.3008 23.1792C82.8508 22.6592 80.6208 21.8092 78.6008 20.6492C74.9208 18.5292 73.0708 16.0292 73.0508 13.1592C73.0408 10.2992 74.8608 7.80925 78.5208 5.69925C82.1008 3.62925 86.4008 2.58938 91.4008 2.57938C96.4008 2.55938 100.741 3.6193 104.421 5.7493C108.021 7.8293 109.841 10.3193 109.851 13.2293Z" class="pr-icon-iso-duotone-primary-stroke" stroke-linejoin="round"/>
    <path d="M90.4816 61.7893V63.4092C90.5316 62.8792 90.5416 62.3393 90.4816 61.7893ZM90.4316 43.7893C90.4316 43.7893 90.4616 43.7993 90.4816 43.7993V43.4092C90.4716 43.5392 90.4516 43.6593 90.4316 43.7893Z" class="pr-icon-iso-duotone-primary-stroke" stroke-linejoin="round"/>
    <path d="M22.9017 57.8093V77.8093C22.0317 77.3893 21.2017 76.9693 20.4117 76.5593C19.6217 76.1393 18.8217 75.6993 18.0317 75.2493C15.0017 73.4993 12.3818 71.6094 10.1718 69.5894C7.97175 67.5694 6.21174 65.6092 4.91174 63.6992C3.02174 60.9492 2.06172 58.3793 2.01172 55.9993V35.9993C2.06172 38.3793 3.02174 40.9492 4.91174 43.6992C5.95174 45.2292 7.29174 46.7894 8.91174 48.3894C9.31174 48.7894 9.73175 49.1894 10.1718 49.5894C12.3818 51.6094 15.0017 53.4993 18.0317 55.2493C18.8217 55.6993 19.6217 56.1393 20.4117 56.5593C21.2017 56.9693 22.0317 57.3893 22.9017 57.8093Z" class="pr-icon-iso-duotone-primary-stroke" stroke-linejoin="round"/>
    <path d="M48.3413 52.9893C48.3613 56.3993 46.2913 59.2992 42.1313 61.7092C40.9313 62.2892 40.0313 62.7193 39.4413 62.9793C37.7713 62.2593 35.9913 61.7194 34.0913 61.3494V51.3494C33.8713 51.2194 33.3513 50.9594 32.5213 50.5694C31.6913 50.1694 30.6613 49.6192 29.4313 48.9092C27.9913 48.0792 26.4213 47.0494 24.7213 45.8194C23.1913 44.7094 21.6413 43.4192 20.0713 41.9392C19.9013 41.7992 19.7413 41.6393 19.5713 41.4793C20.1913 41.3493 20.8113 41.2392 21.4413 41.1492C24.6613 40.6592 27.9513 40.5892 31.3313 40.9392C35.3613 41.3592 38.9313 42.4693 42.0313 44.2593C46.2213 46.6793 48.3213 49.5893 48.3413 52.9893Z" class="pr-icon-iso-duotone-primary-stroke" stroke-linejoin="round"/>
    <path d="M34.0914 51.3494V71.3494L22.9014 77.8093V57.8093L34.0914 51.3494Z" class="pr-icon-iso-duotone-primary-stroke" stroke-linejoin="round"/>
    <path d="M90.481 43.7993V63.4092C90.281 65.4492 89.061 67.1094 86.841 68.3894L61.991 82.7393C60.771 83.4393 59.321 83.9693 57.631 84.3193C55.941 84.6693 54.091 84.8394 52.071 84.8394C50.051 84.8394 47.941 84.7092 45.711 84.4492C43.471 84.1992 41.171 83.7993 38.791 83.2593V63.2593C39.551 63.4293 40.311 63.5892 41.051 63.7292C42.641 64.0392 44.191 64.2792 45.711 64.4492C47.721 64.6792 49.631 64.8093 51.461 64.8293C51.661 64.8393 51.871 64.8394 52.071 64.8394C54.091 64.8394 55.941 64.6693 57.631 64.3193C59.321 63.9693 60.771 63.4393 61.991 62.7393L69.791 58.2393L83.731 50.1892L86.841 48.3894C88.921 47.1894 90.121 45.6593 90.431 43.7893C90.451 43.7993 90.461 43.7993 90.481 43.7993Z" class="pr-icon-iso-duotone-primary-stroke" stroke-linejoin="round"/>
    <path d="M109.851 13.2793V33.2292C109.871 36.1392 108.081 38.6292 104.501 40.6992C100.841 42.8092 96.5107 43.8493 91.5107 43.8193C91.1607 43.8193 90.8208 43.8093 90.4808 43.7993V43.4092C90.6908 41.3792 90.1407 39.1593 88.8307 36.7393C87.5207 34.3293 85.6208 31.9494 83.1208 29.5994C81.7008 28.2594 80.1308 26.9793 78.4108 25.7693C77.1208 24.8493 75.7508 23.9794 74.2908 23.1394C73.8808 22.8994 73.4708 22.6692 73.0508 22.4492V13.1592C73.0708 16.0292 74.9208 18.5292 78.6008 20.6492C80.6208 21.8092 82.8508 22.6592 85.3008 23.1792C87.2408 23.5892 89.3007 23.8093 91.5107 23.8193C93.7407 23.8293 95.8308 23.6292 97.7908 23.2192C100.231 22.7092 102.471 21.8692 104.501 20.6992C108.061 18.6392 109.851 16.1693 109.851 13.2793Z" class="pr-icon-iso-duotone-primary-stroke" stroke-linejoin="round"/>
</svg>