<svg width="48" height="48" viewBox="0 0 122 76" fill="#c8e7ff" xmlns="http://www.w3.org/2000/svg" stroke-width="1px" stroke-linecap="round" stroke-linejoin="round"><path d="M57.8401 43.1429V43.1929C57.8401 44.9329 57.1601 46.5129 55.8101 47.9329C55.0101 48.7729 53.9803 49.5529 52.7203 50.2829C50.0103 51.8529 46.8503 52.8029 43.2603 53.1229C42.3203 53.2029 41.3501 53.2429 40.3501 53.2429C39.3501 53.2429 38.3201 53.1929 37.3501 53.0929C33.7901 52.7629 30.6602 51.8029 27.9402 50.2429C27.3202 49.8829 26.7603 49.5129 26.2503 49.1229C23.9203 47.3729 22.7603 45.3529 22.7403 43.0729C22.7303 40.2929 24.4402 37.9129 27.8702 35.9329C31.3002 33.9529 35.4203 32.9629 40.2403 32.9729C43.4303 32.9829 46.3102 33.4229 48.9002 34.2929C48.9402 34.3029 48.9803 34.3229 49.0203 34.3329C50.3003 34.7729 51.5102 35.3129 52.6402 35.9729C53.7902 36.6429 54.7503 37.3529 55.5203 38.1129C56.0503 38.6329 56.4901 39.1629 56.8501 39.7229C57.5101 40.7929 57.8401 41.9329 57.8401 43.1429Z" stroke="#229EFF" stroke-linejoin="round"/><path d="M49.0197 15.7029V15.7529C49.0197 19.4729 46.7697 22.6229 42.2597 25.2329C41.9697 25.4029 41.6695 25.5629 41.3695 25.7129C37.0195 28.0029 31.8097 29.1429 25.7597 29.1329C19.6597 29.1229 14.4097 27.9529 10.0097 25.6129C9.73965 25.4729 9.47961 25.3229 9.21961 25.1729C4.66961 22.5429 2.37951 19.3529 2.35951 15.6229C2.33951 11.8829 4.58952 8.71293 9.11952 6.09293C13.6495 3.48293 19.1495 2.18293 25.6195 2.19293C32.0895 2.20293 37.5996 3.52293 42.1596 6.15293C46.7096 8.78293 48.9997 11.9729 49.0197 15.7029Z" stroke="#229EFF" stroke-linejoin="round"/><path d="M119.9 25.3729V25.4229C119.9 29.1329 118.21 32.4729 114.82 35.4029C113.59 36.4829 112.14 37.4929 110.47 38.4629C104.16 42.1129 96.5998 43.9229 87.7898 43.9129C78.9798 43.8929 71.3998 42.0529 65.0398 38.3829C63.3098 37.3829 61.8095 36.3329 60.5495 35.2129C57.6495 32.6729 55.9896 29.8529 55.5796 26.7529V26.7129C55.5096 26.2329 55.4797 25.7529 55.4797 25.2529C55.4497 20.1729 58.5896 15.8029 64.8996 12.1629C71.2096 8.51293 78.7696 6.70293 87.5796 6.71293C96.3896 6.73293 103.97 8.57293 110.33 12.2429C116.68 15.9029 119.87 20.2829 119.9 25.3729Z" stroke="#229EFF" stroke-linejoin="round"/><path d="M119.899 25.4229V45.3729C119.919 50.4529 116.779 54.8229 110.469 58.4629C104.159 62.1129 96.5996 63.9229 87.7896 63.9129C78.9796 63.8929 71.3996 62.0529 65.0396 58.3829C61.8296 56.5329 59.4294 54.4929 57.8394 52.2829V43.1429C57.8394 41.9329 57.5094 40.7929 56.8494 39.7229C56.4894 39.1629 56.0495 38.6329 55.5195 38.1129L55.5793 26.7529C55.9893 29.8529 57.6493 32.6729 60.5493 35.2129C61.8093 36.3329 63.3096 37.3829 65.0396 38.3829C71.3996 42.0529 78.9796 43.8929 87.7896 43.9129C96.5996 43.9229 104.159 42.1129 110.469 38.4629C112.139 37.4929 113.589 36.4829 114.819 35.4029C118.209 32.4729 119.899 29.1329 119.899 25.4229Z" stroke="#229EFF" stroke-linejoin="round"/><path d="M55.5801 26.7529V26.7129" stroke="#229EFF" stroke-linejoin="round"/><path d="M49.0195 15.7529V34.3329C49.0195 34.3329 48.9394 34.3029 48.8994 34.2929C46.3094 33.4229 43.4295 32.9829 40.2395 32.9729C35.4195 32.9729 31.2994 33.9529 27.8694 35.9329C24.4394 37.9129 22.7295 40.2929 22.7395 43.0729V49.0329C17.5595 48.6729 13.0495 47.3829 9.21948 45.1729C4.66948 42.5429 2.37937 39.3529 2.35938 35.6229V15.6229C2.37937 19.3529 4.66948 22.5429 9.21948 25.1729C9.47948 25.3229 9.73952 25.4729 10.0095 25.6129C14.4095 27.9529 19.6595 29.1229 25.7595 29.1329C31.8095 29.1429 37.0194 28.0029 41.3694 25.7129C41.6694 25.5629 41.9695 25.4029 42.2595 25.2329C46.7695 22.6229 49.0195 19.4729 49.0195 15.7529Z" stroke="#229EFF" stroke-linejoin="round"/><path d="M57.8401 43.1929V63.1429C57.8601 65.9229 56.1502 68.3029 52.7202 70.2829C49.2902 72.2629 45.1701 73.2529 40.3501 73.2429C35.5301 73.2329 31.4002 72.2329 27.9402 70.2429C24.4902 68.2429 22.7602 65.8529 22.7402 63.0729V43.0729C22.7602 45.3529 23.9202 47.3729 26.2502 49.1229C26.7602 49.5129 27.3202 49.8829 27.9402 50.2429C30.6602 51.8029 33.7901 52.7629 37.3501 53.0929C38.3201 53.1929 39.3201 53.2429 40.3501 53.2429C41.3801 53.2429 42.3203 53.2029 43.2603 53.1229C46.8503 52.8029 50.0102 51.8529 52.7202 50.2829C53.9802 49.5529 55.0101 48.7729 55.8101 47.9329C57.1601 46.5129 57.8401 44.9329 57.8401 43.1929Z" stroke="#229EFF" stroke-linejoin="round"/></svg>