<svg width="48" height="48" viewBox="0 0 114 96" class="pr-icon-iso-duotone-secondary"
     xmlns="http://www.w3.org/2000/svg" stroke-width="1px" stroke-linecap="round" stroke-linejoin="round">
    <path d="M68.8999 86.8533C68.4699 87.7533 67.7001 88.5331 66.5701 89.1831L60.45 92.7131C59.54 93.2331 58.46 93.5032 57.23 93.4932C55.99 93.4932 54.91 93.2331 53.99 92.7031L21.5901 73.9932C20.6701 73.4632 20.21 72.843 20.21 72.123V52.123C20.21 52.843 20.6701 53.4632 21.5901 53.9932L31.96 59.9832L44.0801 66.9832H44.0901L51.3 71.1431L53.99 72.7031C54.91 73.2331 55.99 73.4932 57.23 73.4932C58.46 73.5032 59.54 73.2331 60.45 72.7131L62.6699 71.4331L66.5701 69.1831C67.7001 68.5331 68.4699 67.7533 68.8999 66.8533C69.0699 66.4933 69.18 66.1432 69.22 65.7832V85.1033C69.28 85.6933 69.1799 86.2733 68.8999 86.8533Z" class="pr-icon-iso-duotone-primary-stroke" stroke-linejoin="round"/>
    <path d="M83.7197 44.8032V64.7832C83.7297 66.9532 82.3997 68.813 79.7097 70.363C77.0297 71.913 73.7998 72.6831 70.0298 72.6831C69.7598 72.6831 69.4797 72.6731 69.2197 72.6631V65.1033C69.1897 64.7933 69.0997 64.4631 68.9697 64.1431C68.2597 62.5631 67.5097 61.3131 66.7197 60.3931C66.0697 59.6231 65.0998 58.7131 63.8198 57.6431C63.5698 57.4431 63.3098 57.2232 63.0298 57.0032C62.4898 56.5632 61.8398 56.1931 61.0898 55.8831C60.3298 55.5731 59.4698 55.4432 58.4998 55.5032L56.2598 55.623V44.7332C56.2698 46.9032 57.6298 48.7733 60.3298 50.3333C60.7398 50.5733 61.1699 50.7932 61.6099 50.9832C62.4899 51.4032 63.4096 51.7332 64.3896 51.9832C66.1096 52.4432 67.9998 52.6731 70.0298 52.6831C73.7998 52.6831 77.0297 51.913 79.7097 50.363C80.3997 49.963 81.0098 49.5433 81.5198 49.1033C82.9898 47.8433 83.7197 46.4032 83.7197 44.8032Z" class="pr-icon-iso-duotone-primary-stroke" stroke-linejoin="round"/>
    <path d="M111.36 33.6631V53.6431C111.37 55.1031 110.48 56.343 108.71 57.363L92.6104 66.6631V46.6631L97.8303 43.6431L108.71 37.363C110.47 36.353 111.36 35.1131 111.36 33.6631Z" class="pr-icon-iso-duotone-primary-stroke" stroke-linejoin="round"/>
    <path d="M18.3103 44.6631V64.6631L5.35034 57.1731C3.56034 56.1531 2.67016 54.9031 2.66016 53.4431V33.4431C2.67016 34.9031 3.56034 36.1531 5.35034 37.1731L16.1902 43.4431L18.3103 44.6631Z" class="pr-icon-iso-duotone-primary-stroke" stroke-linejoin="round"/>
    <path d="M35.8904 39.9332V45.2633C34.4704 45.0933 33.0704 45.1231 31.6804 45.3631C30.1404 45.6231 28.8104 46.0832 27.6904 46.7332L21.5706 50.2633C20.6606 50.7933 20.2004 51.4131 20.2104 52.1231V63.5633L18.3105 64.6632V44.6632L21.2104 42.9832C23.1404 41.8732 25.4005 41.0533 27.9805 40.5333C30.5605 40.0033 33.1904 39.8032 35.8904 39.9332Z" class="pr-icon-iso-duotone-primary-stroke" stroke-linejoin="round"/>
    <path d="M51.29 51.123C51.29 51.123 51.3 51.1731 51.3 51.2031V51.1531L51.29 51.123Z" class="pr-icon-iso-duotone-primary-stroke" stroke-linejoin="round"/>
    <path d="M69.2201 65.1033V65.7832C69.1801 66.1432 69.0701 66.4933 68.9001 66.8533C68.4701 67.7533 67.7002 68.5331 66.5702 69.1831L62.6701 71.4331L60.4501 72.7131C59.5401 73.2331 58.4601 73.5032 57.2301 73.4932C55.9901 73.4932 54.9102 73.2331 53.9902 72.7031L51.3002 71.1431L44.0902 66.9832H44.0802L31.9601 59.9832L21.5902 53.9932C20.6702 53.4632 20.2101 52.8431 20.2101 52.1231C20.2001 51.4131 20.6602 50.7932 21.5702 50.2632L27.6901 46.7332C28.8101 46.0832 30.1401 45.623 31.6801 45.363C33.0701 45.123 34.4701 45.0932 35.8901 45.2632C36.0301 45.2632 36.1802 45.2832 36.3202 45.3032C37.4702 45.4732 38.5201 45.6533 39.4701 45.8333C40.7901 46.0733 41.9102 46.3333 42.8302 46.5933C44.4202 47.0433 46.3701 47.7532 48.6901 48.7232C48.6901 48.7332 48.7201 48.7332 48.7301 48.7432C49.4701 49.0432 50.0903 49.4331 50.6003 49.8731C50.7103 49.9731 50.8101 50.0731 50.8901 50.1731C50.9601 50.2531 51.0202 50.3331 51.0602 50.4131C51.0802 50.4431 51.1003 50.4732 51.1103 50.5032C51.1503 50.5732 51.1901 50.6432 51.2101 50.7232C51.2201 50.7332 51.2201 50.7432 51.2201 50.7532C51.2301 50.7732 51.2402 50.8033 51.2402 50.8233C51.2502 50.8233 51.2502 50.853 51.2502 50.863C51.2702 50.953 51.2902 51.0331 51.2902 51.1231C51.3002 51.1431 51.3002 51.1731 51.3002 51.2031V51.2332C51.3002 51.2332 51.3002 51.3133 51.2902 51.3433L50.9601 53.7732L50.6701 55.9131L51.3703 55.8731L53.1701 55.7832L56.2602 55.6231L58.5002 55.5032C59.4702 55.4432 60.3302 55.5731 61.0902 55.8831C61.8402 56.1931 62.4902 56.5632 63.0302 57.0032C63.3102 57.2232 63.5702 57.4431 63.8202 57.6431C65.1002 58.7131 66.0701 59.6231 66.7201 60.3931C67.5101 61.3131 68.2601 62.5631 68.9701 64.1431C69.1001 64.4631 69.1901 64.7933 69.2201 65.1033Z" class="pr-icon-iso-duotone-primary-stroke" stroke-linejoin="round"/>
    <path d="M111.36 33.6431V33.6631C111.36 35.1131 110.47 36.353 108.71 37.363L97.8304 43.6431L92.6104 46.6631C93.0304 44.4831 92.7403 42.473 91.7303 40.623C91.5903 40.363 91.4303 40.1033 91.2503 39.8433C90.1803 38.2933 88.4604 36.8231 86.0904 35.4631C87.0004 34.9331 87.4603 34.3133 87.4503 33.5933C87.4503 32.8833 86.9904 32.2632 86.0704 31.7332L60.1502 16.7632C59.2302 16.2332 58.1502 15.9631 56.9102 15.9631C55.6702 15.9631 54.6003 16.2232 53.6903 16.7532C52.7803 17.2732 52.3204 17.903 52.3304 18.613C52.3304 19.333 52.7903 19.9532 53.7103 20.4832L56.6302 22.1631L73.1502 31.7031C71.2102 31.5731 69.2704 31.5731 67.3404 31.6931C65.4004 31.8131 63.4904 32.0731 61.6104 32.4731L48.3902 24.8533L47.2703 24.2031C46.3503 23.6731 45.2704 23.4031 44.0304 23.4031C42.7904 23.4031 41.7204 23.6631 40.8104 24.1831C39.9004 24.7131 39.4403 25.3332 39.4503 26.0532C39.4503 26.7632 39.9104 27.3831 40.8304 27.9131L41.9603 28.5632L53.7904 35.4031C52.6604 36.0531 51.6804 36.7532 50.8504 37.5132C50.0204 38.2732 49.3103 39.0731 48.7303 39.9131L35.5103 32.2832L34.3902 31.6331C33.4702 31.1031 32.3902 30.8433 31.1502 30.8333C29.9202 30.8333 28.8403 31.093 27.9303 31.623C27.0203 32.153 26.5604 32.7732 26.5704 33.4832C26.5704 34.2032 27.0303 34.8233 27.9503 35.3533L29.0704 36.0032L35.8902 39.9331C33.1902 39.8031 30.5603 40.0032 27.9803 40.5332C25.4003 41.0532 23.1403 41.8732 21.2103 42.9832L18.3104 44.6631L16.1903 43.4431L5.35043 37.1731C3.56043 36.1531 2.67024 34.9031 2.66024 33.4431C2.65024 31.9831 3.54039 30.7431 5.31039 29.7231L50.3902 3.69312C52.1602 2.66312 54.3104 2.16309 56.8404 2.16309C59.3704 2.17309 61.5304 2.68313 63.3104 3.71313L108.67 29.9031C110.45 30.9331 111.35 32.1831 111.36 33.6431Z" class="pr-icon-iso-duotone-primary-stroke" stroke-linejoin="round"/>
    <path d="M73.1501 31.703V37.0531C72.1301 36.9031 71.0602 36.8332 69.9502 36.8332C67.1502 36.8332 64.6602 37.2432 62.4602 38.1032C62.1702 38.2132 61.8804 38.3331 61.6104 38.4631V32.4731C63.4904 32.0731 65.4003 31.813 67.3403 31.693C69.2703 31.573 71.2101 31.573 73.1501 31.703Z" class="pr-icon-iso-duotone-primary-stroke" stroke-linejoin="round"/>
    <path d="M83.7197 44.7831V44.8032C83.7197 46.4032 82.9898 47.8432 81.5198 49.1032C81.0098 49.5432 80.3997 49.963 79.7097 50.363C77.0297 51.913 73.7998 52.683 70.0298 52.683C67.9998 52.673 66.1096 52.4431 64.3896 51.9831C63.4096 51.7331 62.4899 51.4031 61.6099 50.9831C61.1699 50.7931 60.7398 50.5732 60.3298 50.3332C57.6298 48.7732 56.2698 46.9031 56.2598 44.7331C56.2598 43.8731 56.4599 43.0732 56.8699 42.3132C57.5099 41.1432 58.6398 40.083 60.2698 39.143C60.6998 38.893 61.1499 38.6631 61.6099 38.4631C61.8799 38.3331 62.1697 38.2132 62.4597 38.1032C64.6597 37.2432 67.1497 36.8232 69.9497 36.8332C71.0597 36.8332 72.1297 36.9032 73.1497 37.0532C75.5797 37.3632 77.7497 38.083 79.6497 39.173C82.3497 40.733 83.7097 42.6031 83.7197 44.7831Z" class="pr-icon-iso-duotone-primary-stroke" stroke-linejoin="round"/>
    <path d="M92.6099 46.6631V62.9832C92.4399 62.1732 92.1397 61.383 91.7297 60.623C90.7297 58.773 88.8498 57.0531 86.0898 55.4631V35.4631C88.4598 36.8231 90.1798 38.2933 91.2498 39.8433C91.4298 40.1033 91.5897 40.363 91.7297 40.623C92.7397 42.473 93.0299 44.4831 92.6099 46.6631Z" class="pr-icon-iso-duotone-primary-stroke" stroke-linejoin="round"/>
    <path d="M87.4501 33.5933C87.4601 34.3133 87.0002 34.9331 86.0902 35.4631V51.7432C86.0902 51.7432 86.0802 51.7332 86.0702 51.7332L83.7201 50.373V44.7832C83.7101 42.6032 82.3501 40.7331 79.6501 39.1731C77.7501 38.0831 75.5801 37.3632 73.1501 37.0532V31.7031L56.63 22.1631L53.7101 20.4832C52.7901 19.9532 52.3302 19.333 52.3302 18.613C52.3202 17.903 52.7801 17.2732 53.6901 16.7532C54.6001 16.2232 55.6801 15.9631 56.9101 15.9631C58.1401 15.9631 59.2301 16.2332 60.1501 16.7632L86.0702 31.7332C86.9902 32.2632 87.4501 32.8833 87.4501 33.5933Z" class="pr-icon-iso-duotone-primary-stroke" stroke-linejoin="round"/>
    <path d="M61.6104 32.4731V38.4631C61.1504 38.6631 60.7003 38.8931 60.2703 39.1431C58.6403 40.0831 57.5104 41.1432 56.8704 42.3132C56.4604 43.0732 56.2603 43.8732 56.2603 44.7332V49.3831L53.7903 47.9631V35.4031L41.9602 28.5632L40.8303 27.9131C39.9103 27.3831 39.4502 26.7632 39.4502 26.0532C39.4502 25.3332 39.9003 24.7131 40.8103 24.1831C41.7203 23.6631 42.8003 23.4031 44.0303 23.4031C45.2603 23.4031 46.3503 23.6731 47.2703 24.2031L48.3901 24.8533L61.6104 32.4731Z" class="pr-icon-iso-duotone-primary-stroke" stroke-linejoin="round"/>
    <path d="M53.7905 35.4031V55.4031C53.5805 55.5231 53.3704 55.6532 53.1704 55.7832L51.3706 55.873C51.3706 55.203 51.3706 54.5732 51.3606 54.0032C51.3506 52.5832 51.3405 51.5632 51.3005 51.2332V51.1531L51.2905 51.123C51.2905 51.033 51.2705 50.953 51.2505 50.863C51.2505 50.853 51.2505 50.8332 51.2405 50.8232C51.2405 50.8032 51.2305 50.7732 51.2205 50.7532C51.2205 50.7432 51.2204 50.7331 51.2104 50.7231C51.1904 50.6431 51.1506 50.5732 51.1106 50.5032C51.1006 50.4732 51.0805 50.4431 51.0605 50.4131C51.0205 50.3331 50.9604 50.2531 50.8904 50.1731C50.8104 50.0731 50.7106 49.973 50.6006 49.873C50.0906 49.433 49.4705 49.0432 48.7305 48.7432V39.9131C49.3105 39.0731 50.0206 38.2732 50.8506 37.5132C51.6806 36.7532 52.6605 36.0531 53.7905 35.4031Z" class="pr-icon-iso-duotone-primary-stroke" stroke-linejoin="round"/>
    <path d="M51.3 51.1531V51.2031C51.3 51.2031 51.3 51.143 51.29 51.123C51.29 51.123 51.3 51.1331 51.3 51.1531Z" class="pr-icon-iso-duotone-primary-stroke" stroke-linejoin="round"/>
    <path d="M51.3701 55.873L50.6699 55.9131L50.96 53.7732L51.29 51.3433C51.29 51.3433 51.3 51.2732 51.3 51.2332C51.34 51.5632 51.3501 52.5832 51.3601 54.0032C51.3701 54.5732 51.3701 55.203 51.3701 55.873Z" class="pr-icon-iso-duotone-primary-stroke" stroke-linejoin="round"/>
    <path d="M48.7304 39.9131V48.7432C48.7304 48.7432 48.7003 48.7331 48.6903 48.7231C46.3703 47.7531 44.4205 47.0433 42.8305 46.5933C41.9105 46.3333 40.7904 46.0733 39.4704 45.8333C38.5204 45.6533 37.4705 45.4732 36.3205 45.3032C36.1805 45.2832 36.0303 45.2632 35.8903 45.2632V39.9331L29.0705 36.0032L27.9504 35.3533C27.0304 34.8233 26.5705 34.2032 26.5705 33.4832C26.5605 32.7732 27.0203 32.153 27.9303 31.623C28.8403 31.093 29.9203 30.8333 31.1503 30.8333C32.3903 30.8433 33.4703 31.1031 34.3903 31.6331L35.5104 32.2832L48.7304 39.9131Z" class="pr-icon-iso-duotone-primary-stroke" stroke-linejoin="round"/>
    <path d="M69.2207 65.1033V65.0032" class="pr-icon-iso-duotone-primary-stroke" stroke-linejoin="round"/>
    <path d="M69.2207 85.4031V85.1033" class="pr-icon-iso-duotone-primary-stroke" stroke-linejoin="round"/>
</svg>