<svg width="48" height="48" viewBox="0 0 113 84" class="pr-icon-iso-duotone-secondary"
     xmlns="http://www.w3.org/2000/svg" stroke-width="1px" stroke-linecap="round" stroke-linejoin="round">
    <path d="M110.13 25.9794C108.68 19.9094 104.081 14.6494 96.3406 10.1794C87.0506 4.81943 75.9204 2.11942 62.9504 2.09942C49.9904 2.07942 38.8904 4.72944 29.6604 10.0594C24.9204 12.7894 21.3905 15.9594 19.0605 19.5594C16.7305 23.1494 15.7305 26.8894 16.0605 30.7794L3.88037 37.8194C2.83037 38.4194 2.31055 39.1295 2.31055 39.9495C2.32055 40.7695 2.85039 41.4894 3.90039 42.0894L16.0005 49.0795L29.9104 57.1094C30.9704 57.7194 32.2004 58.0194 33.6204 58.0294C35.0404 58.0294 36.2806 57.7294 37.3206 57.1194L41.0105 54.9894L42.9805 56.1294L48.4504 59.2794C50.4904 60.4594 52.9604 61.0594 55.8604 61.0594C58.7704 61.0594 61.2305 60.4794 63.2605 59.3094L66.5505 57.4094L71.9004 54.3194L74.3406 52.9094L81.3604 56.9694L81.7705 57.2094C83.0105 57.9194 84.4804 58.2194 86.1804 58.0994C87.8804 57.9694 89.1505 57.4894 90.0105 56.6294L104.11 42.9194C105.29 41.7894 106.31 40.6394 107.16 39.4694C109.31 36.5494 110.441 33.5194 110.581 30.3694V30.2994C110.631 28.8894 110.48 27.4394 110.13 25.9794ZM77.2405 40.4094C75.7305 41.2794 74.0805 41.9694 72.2905 42.4894C72.2905 42.4894 72.2605 42.4894 72.2505 42.4894C70.0305 43.1194 67.6104 43.4794 64.9604 43.5694C64.2004 43.5994 63.4204 43.5995 62.6204 43.5795C60.2604 43.5195 58.0204 43.2594 55.9004 42.7994C55.3904 42.6994 54.9004 42.5795 54.4104 42.4495C53.1904 42.1395 52.0204 41.7494 50.8904 41.2894C49.6804 40.8094 48.5204 40.2394 47.4104 39.5994C47.2704 39.5194 47.1305 39.4394 47.0005 39.3494C42.3305 36.5294 40.1504 33.0895 40.4604 29.0195C40.5704 27.5995 40.9704 26.2394 41.6704 24.9394C43.0104 22.4094 45.4805 20.1194 49.0605 18.0494C51.2105 16.8094 53.5804 15.7995 56.1704 15.0195C58.7604 14.2395 61.5305 13.7094 64.5005 13.4294C65.9205 13.2494 67.1705 13.4594 68.2505 14.0494C69.3305 14.6394 69.8804 15.3594 69.8804 16.2194C69.8904 17.0694 69.3804 17.7894 68.3704 18.3794C67.3504 18.9694 66.1305 19.3794 64.7205 19.6294C63.1705 19.8794 61.7106 20.2394 60.3206 20.7194C59.0506 21.1594 57.8605 21.6794 56.7705 22.2994C56.6805 22.3394 56.5805 22.3995 56.4905 22.4495C53.1005 24.3995 51.2504 26.6394 50.9204 29.1494C50.9104 29.2394 50.9004 29.3394 50.8904 29.4294V30.2894C51.0304 32.1894 52.2104 33.8395 54.4104 35.1995V31.2695C54.2804 30.1995 54.5806 29.2195 55.3206 28.3295C56.0506 27.4395 57.0104 26.6594 58.1704 25.9794C60.8804 24.4194 64.1705 23.6794 68.0305 23.7794C71.8905 23.8794 75.2704 24.7594 78.1804 26.4394C81.4004 28.2994 82.9305 30.5894 82.7605 33.2994C82.5905 36.0094 80.7505 38.3694 77.2405 40.3994V40.4094Z" class="pr-icon-iso-duotone-primary-stroke" stroke-linejoin="round"/>
    <path d="M69.8805 16.2294C69.8905 17.0794 69.3805 17.7995 68.3705 18.3895C67.3505 18.9795 66.1306 19.3895 64.7206 19.6395C63.1706 19.8895 61.7107 20.2494 60.3207 20.7294C59.0507 21.1694 57.8606 21.6894 56.7706 22.3094C56.6806 22.3494 56.5806 22.4094 56.4906 22.4594C53.1006 24.4094 51.2505 26.6494 50.9205 29.1594C50.9105 29.2494 50.9005 29.3494 50.8905 29.4394V37.0795C50.2605 37.3895 49.6507 37.7194 49.0607 38.0594C48.3307 38.4794 47.6406 38.9094 47.0006 39.3594C42.3306 36.5394 40.1506 33.0994 40.4606 29.0294C40.5706 27.6094 40.9705 26.2495 41.6705 24.9495C43.0105 22.4195 45.4807 20.1294 49.0607 18.0594C51.2107 16.8194 53.5805 15.8094 56.1705 15.0294C58.7605 14.2494 61.5306 13.7194 64.5006 13.4394C65.9206 13.2594 67.1706 13.4694 68.2506 14.0594C69.3306 14.6494 69.8805 15.3694 69.8805 16.2294Z" class="pr-icon-iso-duotone-primary-stroke" stroke-linejoin="round"/>
    <path d="M72.2908 33.1995V42.4894C72.2908 42.4894 72.2607 42.4894 72.2507 42.4894C70.0307 43.1194 67.6107 43.4795 64.9607 43.5695C64.2007 43.5995 63.4206 43.5995 62.6206 43.5795C60.2606 43.5195 58.0206 43.2594 55.9006 42.7994C55.3906 42.6994 54.9006 42.5795 54.4106 42.4495C53.1906 42.1395 52.0206 41.7494 50.8906 41.2894V30.2894C51.0306 32.1894 52.2106 33.8395 54.4106 35.1995C54.5406 35.2895 54.6708 35.3595 54.8008 35.4395C54.8108 35.4495 54.8208 35.4495 54.8308 35.4495C57.1108 36.7695 59.7008 37.4995 62.5908 37.6395C63.4208 37.6795 64.2107 37.6794 64.9607 37.6094C66.8307 37.4694 68.4508 36.9994 69.8108 36.2094C69.8308 36.1994 69.8606 36.1794 69.8806 36.1694C71.2506 35.3694 72.0407 34.4394 72.2507 33.4094C72.2607 33.3294 72.2808 33.2595 72.2908 33.1895V33.1995Z" class="pr-icon-iso-duotone-primary-stroke" stroke-linejoin="round"/>
    <path d="M64.9602 31.6395V37.6194C64.2102 37.6894 63.4203 37.6894 62.5903 37.6494C59.7003 37.5094 57.1103 36.7794 54.8303 35.4594C54.8203 35.4594 54.8103 35.4595 54.8003 35.4495C54.6703 35.3695 54.5402 35.2994 54.4102 35.2094V31.2794C54.5402 32.3494 55.1703 33.1194 56.3203 33.6094C57.2103 33.9894 58.1602 34.1995 59.1602 34.2595C59.4302 34.2795 59.7002 34.2894 59.9802 34.2794C61.2002 34.2494 62.3003 34.0095 63.2903 33.5695C63.3603 33.5495 63.4202 33.5194 63.4902 33.4894C64.4102 33.0494 64.9102 32.4295 64.9602 31.6395Z" class="pr-icon-iso-duotone-primary-stroke" stroke-linejoin="round"/>
    <path d="M82.7604 33.3095C82.5904 36.0195 80.7504 38.3794 77.2404 40.4094C75.7304 41.2794 74.0804 41.9695 72.2904 42.4895V32.9295C72.2904 32.0895 71.7403 31.3795 70.7003 30.7695C69.8403 30.2695 68.9204 29.9795 67.9704 29.8795C67.0104 29.7895 66.1904 29.9395 65.5104 30.3295C65.2704 30.4795 65.1204 30.6395 65.0504 30.8095C64.9904 30.9895 64.9603 31.1495 64.9603 31.2995V31.6395C64.9103 32.4295 64.4104 33.0495 63.4904 33.4895C63.4204 33.5195 63.3604 33.5495 63.2904 33.5695C62.3004 34.0095 61.2004 34.2494 59.9804 34.2794C59.7004 34.2894 59.4303 34.2795 59.1603 34.2595C58.1603 34.1995 57.2104 33.9895 56.3204 33.6095C55.1704 33.1195 54.5403 32.3494 54.4103 31.2794C54.2803 30.2094 54.5804 29.2294 55.3204 28.3394C56.0504 27.4494 57.0103 26.6695 58.1703 25.9895C60.8803 24.4295 64.1704 23.6895 68.0304 23.7895C71.8904 23.8895 75.2703 24.7695 78.1803 26.4495C81.4003 28.3095 82.9304 30.5995 82.7604 33.3095Z" class="pr-icon-iso-duotone-primary-stroke" stroke-linejoin="round"/>
    <path d="M72.291 32.9294V33.1994C72.291 33.2694 72.261 33.3394 72.251 33.4194C72.041 34.4494 71.2509 35.3794 69.8809 36.1794C69.8609 36.1794 69.831 36.2094 69.811 36.2194C68.451 37.0094 66.8309 37.4794 64.9609 37.6194V31.6394C64.9609 31.5294 64.9609 31.4194 64.9609 31.2994C64.9609 31.1494 64.991 30.9894 65.051 30.8094C65.121 30.6394 65.271 30.4794 65.511 30.3294C66.191 29.9394 67.0109 29.7894 67.9709 29.8794C68.9209 29.9794 69.8409 30.2695 70.7009 30.7695C71.7409 31.3795 72.281 32.0894 72.291 32.9294Z" class="pr-icon-iso-duotone-primary-stroke" stroke-linejoin="round"/>
    <path d="M41.0105 54.9894V74.9894L37.3206 77.1194C36.2806 77.7294 35.0404 78.0294 33.6204 78.0294C32.2004 78.0194 30.9704 77.7194 29.9104 77.1094L3.90039 62.0894C2.85039 61.4894 2.32055 60.7695 2.31055 59.9495V39.9495C2.32055 40.7695 2.85039 41.4894 3.90039 42.0894L16.0005 49.0795L29.9104 57.1094C30.9704 57.7194 32.2004 58.0194 33.6204 58.0294C35.0404 58.0294 36.2806 57.7294 37.3206 57.1194L41.0105 54.9894Z" class="pr-icon-iso-duotone-primary-stroke" stroke-linejoin="round"/>
    <path d="M74.3408 52.9094V72.9094L63.2607 79.3094C61.2307 80.4794 58.7706 81.0694 55.8606 81.0594C52.9606 81.0594 50.4907 80.4594 48.4507 79.2794L41.0107 74.9894V54.9894L42.9807 56.1295L48.4507 59.2794C50.4907 60.4594 52.9606 61.0594 55.8606 61.0594C58.7706 61.0594 61.2307 60.4794 63.2607 59.3094L66.5508 57.4094L71.9006 54.3195L74.3408 52.9094Z" class="pr-icon-iso-duotone-primary-stroke" stroke-linejoin="round"/>
    <path d="M50.8906 29.4395V29.1794" class="pr-icon-iso-duotone-primary-stroke" stroke-linejoin="round"/>
    <path d="M110.591 49.7394C110.591 54.3894 108.431 58.7894 104.111 62.9194L90.0107 76.6295C89.1507 77.4895 87.8807 77.9694 86.1807 78.0994C84.4807 78.2194 83.0108 77.9194 81.7708 77.2094L74.3408 72.9094V52.9094L81.3606 56.9694L81.7708 57.2094C83.0108 57.9194 84.4807 58.2194 86.1807 58.0994C87.8807 57.9694 89.1507 57.4895 90.0107 56.6295L104.111 42.9194C105.291 41.7894 106.311 40.6394 107.161 39.4694C109.311 36.5494 110.441 33.5194 110.581 30.3694V49.7394H110.591Z" class="pr-icon-iso-duotone-primary-stroke" stroke-linejoin="round"/>
</svg>