<svg width="48" height="48" viewBox="0 0 119 90" class="pr-icon-iso-duotone-secondary"
     xmlns="http://www.w3.org/2000/svg" stroke-width="1px" stroke-linecap="round" stroke-linejoin="round">
    <path d="M113.59 33.05L62.94 3.81006C60.95 2.67006 58.55 2.09008 55.72 2.08008C52.9 2.08008 50.49 2.64016 48.52 3.79016L16.1699 22.4701C11.6699 25.0601 8.32014 27.9901 6.12014 31.2501C3.91014 34.5101 2.82011 37.8101 2.84011 41.1801C2.85011 44.5401 3.99 47.8501 6.22 51.1101C6.22 51.1201 6.23001 51.1201 6.23001 51.1301C8.47001 54.4001 11.8501 57.3301 16.3701 59.9401C20.3401 62.2301 24.7201 64.0002 29.5501 65.2802C30.2401 65.4702 30.9399 65.64 31.6399 65.8C37.2999 67.09 43.0301 67.7501 48.8701 67.7501C52.2401 67.7501 55.5802 67.5501 58.8802 67.1201C61.3002 66.8201 63.6901 66.4001 66.0701 65.8601C70.4701 64.8701 74.51 63.4801 78.2 61.6801C79.26 61.1801 80.2801 60.6301 81.2801 60.0601L84.02 58.4801L103.5 47.2301L113.63 41.3801C115.59 40.2501 116.58 38.8801 116.58 37.2701V37.2201C116.57 35.5901 115.58 34.2 113.59 33.05ZM60.8501 50.7501C56.8401 52.4501 52.3201 53.1901 47.3001 53.0001C42.2801 52.8001 37.9601 51.6601 34.3501 49.5701C30.7301 47.4801 28.7499 44.9801 28.3999 42.0801C28.0599 39.1801 29.3501 36.5801 32.2801 34.2501C32.7601 33.8501 33.42 33.6401 34.26 33.6401C35.1 33.6401 35.83 33.8102 36.43 34.1602L48.6399 41.2101L61.02 48.3601C61.31 48.5301 61.54 48.7101 61.69 48.8901C61.9 49.1301 62 49.3801 61.98 49.6401C61.95 50.1101 61.5701 50.4801 60.8501 50.7501ZM61.2801 29.4202C60.8601 29.8002 60.25 30.0201 59.43 30.0701C58.62 30.1201 57.9201 29.9701 57.3201 29.6201L47.8701 24.1602L47.19 23.7701C46.53 23.3901 46.2301 22.9601 46.3301 22.4901C46.4101 22.0201 46.8201 21.6901 47.5401 21.4801C49.4601 20.9301 51.51 20.7401 53.71 20.9001C55.82 21.0501 57.66 21.5701 59.25 22.4401C59.31 22.4701 59.38 22.5002 59.44 22.5402C61.07 23.4902 62.0201 24.5901 62.3001 25.8601C62.5701 27.1201 62.2401 28.3102 61.2801 29.4202ZM82.98 41.9501C82.56 42.3301 81.9599 42.5501 81.1399 42.6001C80.3299 42.6501 79.62 42.5001 79.02 42.1501L68.8899 36.3C68.2299 35.92 67.9401 35.4901 68.0301 35.0201C68.1101 34.5601 68.52 34.2201 69.24 34.0101C71.16 33.4601 73.2199 33.2701 75.4099 33.4301C77.5999 33.5901 79.5199 34.1401 81.1399 35.0701C82.7699 36.0201 83.73 37.1201 84 38.3901C84.28 39.6501 83.94 40.8401 82.98 41.9501Z" class="pr-icon-iso-duotone-primary-stroke" stroke-linejoin="round"/>
    <path d="M61.9799 49.6406C61.9499 50.1106 61.5701 50.4806 60.8501 50.7506C56.8401 52.4506 52.32 53.1906 47.3 53.0006C42.28 52.8006 37.96 51.6606 34.35 49.5706C30.7301 47.4806 28.7499 44.9806 28.3999 42.0806C28.0599 39.1806 29.35 36.5806 32.28 34.2506C32.76 33.8506 33.42 33.6406 34.26 33.6406C35.1 33.6406 35.8299 33.8106 36.4299 34.1606L48.6398 41.2106L61.02 48.3606C61.31 48.5306 61.5399 48.7106 61.6899 48.8906C61.8999 49.1306 61.9999 49.3806 61.9799 49.6406Z" class="pr-icon-iso-duotone-primary-stroke" stroke-linejoin="round"/>
    <path d="M82.9796 41.9497C82.5596 42.3297 81.9595 42.5498 81.1395 42.5998C80.3295 42.6498 79.6197 42.4998 79.0197 42.1498L68.8895 36.2997C68.2295 35.9197 67.9397 35.4898 68.0297 35.0198C68.1097 34.5598 68.5196 34.2198 69.2396 34.0098C71.1596 33.4598 73.2196 33.2697 75.4096 33.4297C77.5996 33.5897 79.5195 34.1397 81.1395 35.0697C82.7695 36.0197 83.7297 37.1198 83.9997 38.3898C84.2797 39.6498 83.9396 40.8397 82.9796 41.9497Z" class="pr-icon-iso-duotone-primary-stroke" stroke-linejoin="round"/>
    <path d="M61.2803 29.4205C60.8603 29.8005 60.2502 30.0204 59.4302 30.0704C58.6202 30.1204 57.9203 29.9704 57.3203 29.6204L47.8704 24.1605L47.1902 23.7704C46.5302 23.3904 46.2304 22.9604 46.3304 22.4904C46.4104 22.0204 46.8203 21.6904 47.5403 21.4804C49.4603 20.9304 51.5102 20.7404 53.7102 20.9004C55.8202 21.0504 57.6603 21.5704 59.2503 22.4404C59.3103 22.4704 59.3802 22.5005 59.4402 22.5405C61.0702 23.4905 62.0203 24.5904 62.3003 25.8604C62.5703 27.1204 62.2403 28.3105 61.2803 29.4205Z" class="pr-icon-iso-duotone-primary-stroke" stroke-linejoin="round"/>
    <path d="M116.58 37.2705V57.2205C116.6 58.8505 115.61 60.2405 113.63 61.3805L81.2798 80.0604C76.7798 82.6504 71.7198 84.5905 66.0698 85.8605C60.4398 87.1405 54.6999 87.7605 48.8699 87.7505C43.0299 87.7505 37.2996 87.0904 31.6396 85.8004C25.9796 84.5004 20.8999 82.5504 16.3699 79.9404C11.8499 77.3304 8.46974 74.4005 6.22974 71.1305C3.98974 67.8605 2.84984 64.5504 2.83984 61.1804V41.1804C2.84984 44.5404 3.98973 47.8505 6.21973 51.1105C6.21973 51.1205 6.22974 51.1205 6.22974 51.1305C8.46974 54.4005 11.8499 57.3304 16.3699 59.9404C20.3399 62.2304 24.7198 64.0005 29.5498 65.2805C30.2398 65.4705 30.9396 65.6404 31.6396 65.8004C37.2996 67.0904 43.0299 67.7505 48.8699 67.7505C52.2399 67.7505 55.5799 67.5505 58.8799 67.1205C61.2999 66.8205 63.6898 66.4005 66.0698 65.8605C70.4698 64.8705 74.5097 63.4804 78.1997 61.6804C79.2597 61.1804 80.2798 60.6304 81.2798 60.0604L84.0198 58.4805L103.5 47.2305L113.63 41.3805C115.59 40.2505 116.58 38.8805 116.58 37.2705Z" class="pr-icon-iso-duotone-primary-stroke" stroke-linejoin="round"/>
</svg>