<svg width="24" height="24" viewBox="0 0 106 86" class="pr-icon-iso-duotone-secondary" xmlns="http://www.w3.org/2000/svg" stroke-width="1px" stroke-linecap="round" stroke-linejoin="round">
    <path d="M91.52 54.6655V74.2755C91.46 75.6555 90.47 76.7455 88.55 77.5455C78.03 82.2355 66.09 84.3455 52.75 83.8555C39.41 83.3755 27.88 80.3255 18.16 74.7155C12.91 71.6755 8.97004 68.2655 6.36004 64.4655C3.75004 60.6655 2.44004 56.7955 2.42004 52.8455V32.8455C2.44004 36.2055 3.39004 39.5055 5.28004 42.7555C5.61004 43.3255 5.97004 43.8955 6.36004 44.4655C8.97004 48.2655 12.91 51.6755 18.16 54.7155C18.61 54.9755 19.07 55.2355 19.53 55.4755C20.16 55.8255 20.79 56.1555 21.44 56.4755C28.54 60.0155 36.53 62.2955 45.42 63.3155C47.8 63.5855 50.24 63.7655 52.75 63.8555C57.5 64.0255 62.08 63.8755 66.48 63.3855C74.42 62.5155 81.78 60.5655 88.55 57.5455C90.29 56.8255 91.27 55.8555 91.48 54.6555C91.49 54.6655 91.5 54.6655 91.52 54.6655Z" class="pr-icon-iso-duotone-primary-stroke" stroke-linejoin="round"/>
    <path d="M45.02 33.6755C44.3 34.6255 43.41 35.6055 42.35 36.5955C41.3 37.5955 40.17 38.5455 38.98 39.4655C37.57 38.8255 36.12 38.2855 34.64 37.8455V27.1555C34.65 28.9655 35.75 30.4955 37.95 31.7655C38.95 32.3355 40.04 32.7855 41.24 33.0955C41.48 33.1555 41.73 33.2155 41.98 33.2655C42.95 33.4755 43.97 33.6155 45.02 33.6755Z" class="pr-icon-iso-duotone-primary-stroke" stroke-linejoin="round"/>
    <path d="M48.07 30.1555V38.3355C47.22 38.5155 46.38 38.7055 45.55 38.9055C45.87 38.3255 46.15 37.7655 46.41 37.2055C47.11 35.6855 47.58 34.2455 47.81 32.8755C47.85 32.6655 47.88 32.4455 47.9 32.2455C47.98 31.6655 48.04 31.1255 48.06 30.6255V30.5755C48.07 30.4355 48.07 30.2955 48.07 30.1555Z" class="pr-icon-iso-duotone-primary-stroke" stroke-linejoin="round"/>
    <path d="M50 33.2254V37.9254C49.85 37.9454 49.71 37.9754 49.57 38.0054C49.06 38.1054 48.56 38.2154 48.06 38.3354V30.1554L48.07 30.0754C48.07 29.4254 48 28.8454 47.88 28.3354C48.42 29.1054 48.85 29.8854 49.19 30.6954C49.38 31.1354 49.54 31.5954 49.69 32.0554C49.81 32.4354 49.91 32.8254 50 33.2254Z" class="pr-icon-iso-duotone-primary-stroke" stroke-linejoin="round"/>
    <path d="M57.47 27.4856V36.6256C54.9 36.9956 52.41 37.4356 50 37.9256V33.2256C50.79 33.0656 51.49 32.8756 52.09 32.6556C52.67 32.4256 53.26 32.1456 53.84 31.8156C53.85 31.8156 53.86 31.8156 53.87 31.7956C56.13 30.4456 57.33 29.0056 57.47 27.4856Z" class="pr-icon-iso-duotone-primary-stroke" stroke-linejoin="round"/>
    <path d="M103.58 20.6455V40.6155C103.59 41.5355 103.06 42.3055 102 42.9155C100.94 43.5255 99.6201 43.8255 98.0301 43.8255H97.1401V36.4755C97.1401 36.3155 97.0801 36.1455 96.9501 35.9755C96.5801 35.4955 95.9301 35.2555 95.0001 35.2555C93.6101 35.2155 92.2801 34.9655 91.0201 34.5055C89.7501 34.0455 88.6601 33.5455 87.7201 33.0055L83.7301 30.6955C81.3801 29.3455 78.6701 28.5555 75.5901 28.3455V22.3255C75.6301 22.4855 75.7001 22.6455 75.8201 22.8055C76.2901 23.4655 77.1901 23.7855 78.5201 23.7955L98.0301 23.8255C99.6201 23.8255 100.94 23.5255 102 22.9155C103.05 22.3155 103.58 21.5455 103.58 20.6455Z" class="pr-icon-iso-duotone-primary-stroke" stroke-linejoin="round"/>
    <path d="M103.58 20.6155V20.6455C103.58 21.5455 103.05 22.3155 102 22.9155C100.94 23.5255 99.62 23.8255 98.03 23.8255L78.52 23.7955C77.19 23.7955 76.29 23.4655 75.82 22.8055C75.7 22.6455 75.63 22.4855 75.59 22.3255V22.0855C75.63 21.7055 75.94 21.3555 76.51 21.0255L81.67 18.0455C74.48 13.8955 65.84 11.8155 55.76 11.7955C45.67 11.7755 37.05 13.8355 29.91 17.9555C25.54 20.4755 22.51 23.4055 20.8 26.7355C20.21 27.8755 19.79 29.0255 19.54 30.1555C19.04 32.3355 19.15 34.5055 19.86 36.6755C22.78 36.2155 25.93 36.2255 29.31 36.6755C30.06 36.7755 30.81 36.9055 31.54 37.0655C32.59 37.2655 33.62 37.5255 34.64 37.8355C36.12 38.2755 37.57 38.8155 38.98 39.4555C40.17 38.5355 41.3 37.5855 42.35 36.5855C43.41 35.5955 44.3 34.6155 45.02 33.6655C43.97 33.6055 42.95 33.4655 41.98 33.2555C41.73 33.2055 41.48 33.1455 41.24 33.0855C40.04 32.7755 38.95 32.3255 37.95 31.7555C35.75 30.4855 34.65 28.9555 34.64 27.1455C34.63 26.0855 35.01 25.1155 35.77 24.2455C36.29 23.6355 37 23.0755 37.9 22.5555L41.87 20.2655C42.4 19.9655 42.86 19.6355 43.25 19.2955C43.65 18.9455 44.01 18.6055 44.34 18.2555C44.74 17.6455 45.47 17.2855 46.53 17.1755C47.59 17.0555 48.45 17.2355 49.12 17.6955C51.1 18.9455 52.88 20.4055 54.45 22.0855C55.15 22.8255 55.81 23.6155 56.42 24.4355C57.21 25.4855 57.56 26.5055 57.47 27.4755C57.33 28.9955 56.13 30.4355 53.87 31.7855C53.87 31.7955 53.85 31.7955 53.84 31.8055C53.26 32.1355 52.67 32.4155 52.09 32.6455C51.49 32.8655 50.79 33.0555 50 33.2155C49.91 32.8155 49.81 32.4255 49.69 32.0455C49.54 31.5855 49.38 31.1255 49.19 30.6855C48.85 29.8755 48.42 29.0955 47.88 28.3255C48 28.8355 48.07 29.4155 48.07 30.0655V30.1455C48.07 30.2855 48.07 30.4255 48.06 30.5655V30.6155C48.04 31.1155 47.98 31.6555 47.9 32.2355C47.88 32.4355 47.85 32.6555 47.81 32.8655C47.58 34.2355 47.11 35.6755 46.41 37.1955C46.15 37.7555 45.87 38.3155 45.55 38.8955C46.38 38.6955 47.22 38.5055 48.06 38.3255C48.56 38.2055 49.06 38.0955 49.57 37.9955C49.71 37.9655 49.85 37.9355 50 37.9155C52.41 37.4255 54.9 36.9855 57.47 36.6155C58.34 36.4855 59.23 36.3555 60.12 36.2455H60.16C65.22 35.5955 70.36 35.2655 75.59 35.2655H75.79C75.72 35.2555 75.66 35.2555 75.59 35.2455C73.07 34.9855 70.54 34.8055 68.02 34.6855C65.44 34.5655 62.81 34.4955 60.16 34.4955C60.42 33.8055 60.87 33.1255 61.49 32.4555C61.61 32.3255 61.74 32.1955 61.88 32.0755C62.43 31.5555 63.08 31.0855 63.82 30.6555C66.6 29.0455 69.91 28.2455 73.76 28.2555C74.39 28.2555 75 28.2755 75.59 28.3355C78.67 28.5455 81.38 29.3355 83.73 30.6855L87.72 32.9955C88.66 33.5355 89.75 34.0355 91.02 34.4955C92.28 34.9555 93.61 35.2055 95 35.2455C95.93 35.2455 96.58 35.4855 96.95 35.9655C97.08 36.1355 97.14 36.3055 97.14 36.4655C97.14 36.7455 96.93 37.0155 96.51 37.2655C94.85 38.2155 92.73 39.3055 90.15 40.5255C87.57 41.7455 84.79 42.7355 81.81 43.4955C81.39 43.6055 80.96 43.7055 80.54 43.7855C77.96 44.3455 75.34 44.6055 72.66 44.5755C69.54 44.5255 66.61 43.7155 63.88 42.1455C62.89 41.5655 62.07 40.9455 61.43 40.2755C60.99 39.8055 60.64 39.3355 60.39 38.8555C60.3 38.7055 60.22 38.5455 60.16 38.3955C60.13 38.3355 60.1 38.2855 60.08 38.2255C59.31 38.4355 58.44 38.6755 57.47 38.9655C56.28 39.3155 54.95 39.7355 53.47 40.2055C53.23 40.2855 53 40.3555 52.76 40.4455C51.84 40.7455 50.92 41.0555 50 41.4055C49.23 41.6855 48.46 41.9855 47.69 42.2955C47.3 42.4455 46.92 42.6055 46.53 42.7755C46.15 42.9355 45.77 43.0955 45.38 43.2655C47.44 44.9855 48.81 46.7755 49.49 48.6155C49.79 49.4555 49.96 50.2655 49.97 51.0455V51.3455C49.97 51.7455 49.92 52.1455 49.83 52.5255C49.73 52.9355 49.59 53.3355 49.41 53.7255C49.6 53.7455 49.78 53.7655 49.97 53.7755C53.34 54.1155 56.71 54.1755 60.08 53.9555C60.19 53.9555 60.31 53.9555 60.42 53.9355C61.46 53.8655 62.51 53.7655 63.55 53.6355C68.26 53.0755 72.66 51.9855 76.77 50.3855C78.08 49.8855 79.45 49.5555 80.88 49.3955C81.63 49.3055 82.4 49.2655 83.18 49.2755C85.47 49.2955 87.42 49.7755 89.01 50.6955C90.74 51.6955 91.58 52.8855 91.52 54.2655C91.52 54.3955 91.5 54.5255 91.48 54.6455C91.27 55.8455 90.29 56.8155 88.55 57.5355C81.78 60.5555 74.42 62.5055 66.48 63.3755C62.08 63.8655 57.5 64.0155 52.75 63.8455C50.24 63.7555 47.8 63.5755 45.42 63.3055C36.53 62.2855 28.54 60.0055 21.44 56.4655C20.79 56.1455 20.16 55.8155 19.53 55.4655C19.07 55.2255 18.61 54.9655 18.16 54.7055C12.91 51.6655 8.97003 48.2555 6.36003 44.4555C5.97003 43.8855 5.61003 43.3155 5.28003 42.7455C3.39003 39.4955 2.44003 36.1955 2.42003 32.8355C2.40003 28.8955 3.67003 25.0255 6.24003 21.2355C8.80003 17.4455 12.7 14.0455 17.93 11.0255C23.15 8.01554 29.05 5.76554 35.61 4.27554C42.17 2.79554 48.87 2.06554 55.7 2.07554C62.54 2.08554 69.24 2.84554 75.82 4.35554C82.4 5.85554 88.32 8.12554 93.58 11.1655L98.74 8.18554C99.66 7.65554 100.69 7.51554 101.82 7.78554C102.95 8.05554 103.52 8.57554 103.52 9.34554L103.58 20.6055V20.6155Z" class="pr-icon-iso-duotone-primary-stroke" stroke-linejoin="round"/>
    <path d="M97.1401 36.4756V56.4756C97.1401 56.7556 96.9301 57.0256 96.5101 57.2756C95.1501 58.0556 93.4901 58.9256 91.5201 59.8756V54.2756C91.5801 52.8956 90.7401 51.7056 89.0101 50.7056C87.4201 49.7856 85.4701 49.3056 83.1801 49.2856C82.4001 49.2756 81.6301 49.3156 80.8801 49.4056C79.4501 49.5656 78.0801 49.8956 76.7701 50.3956C72.6601 51.9956 68.2601 53.0856 63.5501 53.6456C62.5101 53.7756 61.4601 53.8756 60.4201 53.9456C60.3101 53.9556 60.1901 53.9556 60.0801 53.9656V38.2356C60.1001 38.2956 60.1301 38.3456 60.1601 38.4056C60.2201 38.5556 60.3001 38.7156 60.3901 38.8656C60.6401 39.3456 60.9901 39.8156 61.4301 40.2856C62.0701 40.9556 62.8901 41.5756 63.8801 42.1556C66.6101 43.7256 69.5401 44.5356 72.6601 44.5856C75.3401 44.6156 77.9601 44.3556 80.5401 43.7956C80.9601 43.7156 81.3901 43.6156 81.8101 43.5056C84.7901 42.7456 87.5701 41.7556 90.1501 40.5356C92.7301 39.3156 94.8501 38.2256 96.5101 37.2756C96.9301 37.0256 97.1401 36.7556 97.1401 36.4756Z" class="pr-icon-iso-duotone-primary-stroke" stroke-linejoin="round"/>
    <path d="M97.1401 56.5356V56.4756" class="pr-icon-iso-duotone-primary-stroke" stroke-linejoin="round"/>
    <path d="M97.1401 36.4756V36.2356" class="pr-icon-iso-duotone-primary-stroke" stroke-linejoin="round"/>
    <path d="M81.6701 18.0456L76.5101 21.0256C75.9401 21.3556 75.6301 21.7056 75.5901 22.0856V28.3456C75.0001 28.2856 74.3901 28.2656 73.7601 28.2656C69.9101 28.2556 66.6001 29.0556 63.8201 30.6656C63.0801 31.0956 62.4301 31.5656 61.8801 32.0856C60.4501 31.9456 58.9801 31.8556 57.4701 31.8256V27.4856C57.5601 26.5156 57.2101 25.4956 56.4201 24.4456C55.8101 23.6256 55.1501 22.8356 54.4501 22.0956C52.8801 20.4156 51.1001 18.9556 49.1201 17.7056C48.4501 17.2456 47.5901 17.0656 46.5301 17.1856C45.4701 17.2956 44.7401 17.6556 44.3401 18.2656C44.0101 18.6156 43.6501 18.9556 43.2501 19.3056C42.8601 19.6456 42.4001 19.9756 41.8701 20.2756L37.9001 22.5656C37.0001 23.0856 36.2901 23.6456 35.7701 24.2556C35.0101 25.1256 34.6301 26.0956 34.6401 27.1556V35.6256C33.5801 36.0656 32.5401 36.5456 31.5401 37.0756C30.8101 36.9156 30.0601 36.7856 29.3101 36.6856C25.9301 36.2256 22.7801 36.2156 19.8601 36.6756C19.1501 34.5056 19.0401 32.3356 19.5401 30.1556C19.7901 29.0256 20.2101 27.8756 20.8001 26.7356C22.5101 23.4056 25.5401 20.4756 29.9101 17.9556C37.0501 13.8356 45.6701 11.7756 55.7601 11.7956C65.8401 11.8156 74.4801 13.8956 81.6701 18.0456Z" class="pr-icon-iso-duotone-primary-stroke" stroke-linejoin="round"/>
    <path d="M57.47 27.4855V27.1555" class="pr-icon-iso-duotone-primary-stroke" stroke-linejoin="round"/>
    <path d="M49.9702 51.3557V53.7857C49.7802 53.7757 49.6002 53.7557 49.4102 53.7357C49.5902 53.3457 49.7302 52.9457 49.8302 52.5357C49.9202 52.1557 49.9702 51.7557 49.9702 51.3557Z" class="pr-icon-iso-duotone-primary-stroke" stroke-linejoin="round"/>
    <path d="M60.0801 38.2356V53.9656C56.7101 54.1856 53.3401 54.1256 49.9701 53.7856V51.3556C49.9801 51.2656 49.9801 51.1656 49.9701 51.0556C49.9601 50.2756 49.7901 49.4656 49.4901 48.6256C48.8101 46.7856 47.4401 44.9956 45.3801 43.2756C45.7701 43.1056 46.1501 42.9456 46.5301 42.7856C46.9201 42.6156 47.3001 42.4556 47.6901 42.3056C48.4601 41.9956 49.2301 41.6956 50.0001 41.4156C50.9201 41.0656 51.8401 40.7556 52.7601 40.4556C53.0001 40.3656 53.2301 40.2956 53.4701 40.2156C54.9501 39.7456 56.2801 39.3256 57.4701 38.9756C58.4401 38.6856 59.3101 38.4456 60.0801 38.2356Z" class="pr-icon-iso-duotone-primary-stroke" stroke-linejoin="round"/>
    <path d="M75.5902 35.2556V35.2756C70.3602 35.2756 65.2202 35.6056 60.1602 36.2556V34.5056C62.8102 34.5056 65.4402 34.5756 68.0202 34.6956C70.5402 34.8156 73.0702 34.9956 75.5902 35.2556Z" class="pr-icon-iso-duotone-primary-stroke" stroke-linejoin="round"/>
</svg>