<svg width="48" height="48" viewBox="0 0 102 87" class="pr-icon-iso-duotone-secondary"
     xmlns="http://www.w3.org/2000/svg" stroke-width="1px" stroke-linecap="round" stroke-linejoin="round">
    <path d="M99.0098 35.4165V36.0165C99.0598 35.8165 99.0598 35.6165 99.0098 35.4165Z" class="pr-icon-iso-duotone-primary-stroke" stroke-linejoin="round"/>
    <path d="M61.3698 46.2467C61.3698 46.3967 61.3498 46.5467 61.3098 46.6867C61.1598 47.3367 60.6498 47.9167 59.7698 48.4267C58.6998 49.0467 57.4398 49.3567 55.9898 49.3467C54.5398 49.3467 53.2698 49.0367 52.1998 48.4167C51.1198 47.7967 50.5798 47.0667 50.5798 46.2267C50.5698 45.3867 51.1098 44.6567 52.1798 44.0467C53.1298 43.4867 54.2498 43.1867 55.5198 43.1267C55.6598 43.1167 55.8099 43.1167 55.9599 43.1167C57.4099 43.1267 58.6698 43.4367 59.7498 44.0567C60.8198 44.6767 61.3598 45.4067 61.3698 46.2467Z" class="pr-icon-iso-duotone-primary-stroke" stroke-linejoin="round"/>
    <path d="M44.9898 28.7366C44.9998 30.0066 44.2198 31.0966 42.6498 32.0066C41.0698 32.9166 39.1797 33.3666 36.9797 33.3566C34.7697 33.3566 32.8698 32.8966 31.2898 31.9866C29.7098 31.0766 28.9098 29.9766 28.9098 28.7066C28.8998 27.6166 29.4597 26.6666 30.5997 25.8466C30.7997 25.6966 31.0198 25.5666 31.2498 25.4266C32.8298 24.5166 34.7198 24.0666 36.9298 24.0766C37.1898 24.0766 37.4498 24.0866 37.6998 24.0966C39.5798 24.1966 41.2198 24.6466 42.6098 25.4466C44.1898 26.3666 44.9898 27.4566 44.9898 28.7366Z" class="pr-icon-iso-duotone-primary-stroke" stroke-linejoin="round"/>
    <path d="M98.7598 36.5967C98.4598 36.1167 97.9298 35.6467 97.1698 35.1667C94.8798 33.7567 93.2698 32.1767 92.3298 30.4367C91.6798 29.2467 91.3597 27.9767 91.3497 26.6267C91.3397 23.3167 93.2798 20.4567 97.1798 18.0667C98.2398 17.3767 98.8598 16.6867 99.0098 16.0167C99.1598 15.3467 98.8298 14.6967 98.0098 14.0767C92.5598 10.0567 86.2998 7.09666 79.2198 5.18666C72.1398 3.28666 64.8997 2.29665 57.4797 2.22665C50.0697 2.15665 42.8998 2.90666 35.9698 4.45666C29.0398 6.00666 23.0198 8.25665 17.9298 11.1967C12.7098 14.2167 8.79982 17.6167 6.19982 21.4267C3.59982 25.2267 2.31983 29.0967 2.33983 33.0267C2.35983 36.3667 3.31973 39.6767 5.23973 42.9367C5.56973 43.5067 5.93982 44.0766 6.32982 44.6466C8.96982 48.4566 12.9098 51.8766 18.1698 54.9066C23.4798 57.9766 29.4898 60.2867 36.1798 61.8267C41.4798 63.0467 46.8498 63.7667 52.2898 63.9867C53.7198 64.0567 55.1498 64.0867 56.5898 64.0767C57.6098 64.0667 58.6298 64.0466 59.6498 64.0066C65.4998 63.7866 71.2397 63.0067 76.8797 61.6767C83.4897 60.1267 89.3498 57.8066 94.4398 54.7166C94.8498 54.4766 95.1798 54.2267 95.4298 53.9567C95.7098 53.6667 95.8798 53.3567 95.9498 53.0267C95.9598 52.9567 95.9698 52.8866 95.9698 52.8166V52.6067C95.9498 52.1167 95.7098 51.5967 95.2698 51.0567C93.4898 49.0167 92.7098 47.0767 92.9198 45.2367C93.1298 43.3967 94.4998 41.6767 97.0098 40.0767C98.3898 39.2067 99.0798 38.3767 99.0798 37.5667C99.0798 37.2467 98.9798 36.9167 98.7598 36.5967ZM42.6498 32.0066C41.0698 32.9166 39.1797 33.3667 36.9797 33.3567C34.7697 33.3567 32.8698 32.8967 31.2898 31.9867C29.7098 31.0767 28.9098 29.9767 28.9098 28.7067C28.8998 27.6167 29.4597 26.6667 30.5997 25.8467C30.7997 25.6967 31.0197 25.5667 31.2497 25.4267C32.8297 24.5167 34.7198 24.0667 36.9298 24.0767C37.1898 24.0767 37.4498 24.0867 37.6998 24.0967C39.5798 24.1967 41.2197 24.6467 42.6097 25.4467C44.1897 26.3667 44.9897 27.4567 44.9897 28.7367C44.9997 30.0067 44.2198 31.0966 42.6498 32.0066ZM61.3098 46.6867C61.1598 47.3367 60.6498 47.9167 59.7698 48.4267C58.6998 49.0467 57.4397 49.3567 55.9897 49.3467C54.5397 49.3467 53.2698 49.0367 52.1998 48.4167C51.1198 47.7967 50.5798 47.0667 50.5798 46.2267C50.5698 45.3867 51.1098 44.6567 52.1798 44.0467C53.1298 43.4867 54.2498 43.1867 55.5198 43.1267C55.6598 43.1167 55.8098 43.1166 55.9598 43.1166C57.4098 43.1266 58.6697 43.4367 59.7497 44.0567C60.8197 44.6767 61.3597 45.4067 61.3697 46.2467C61.3697 46.3967 61.3498 46.5467 61.3098 46.6867ZM71.1898 23.4367C70.8498 24.2067 70.1597 24.8867 69.1097 25.4967C67.5397 26.4067 65.6498 26.8567 63.4398 26.8567C61.2298 26.8467 59.3297 26.3867 57.7497 25.4767C56.1897 24.5767 55.3997 23.4967 55.3697 22.2467V22.1967C55.3597 20.9167 56.1398 19.8267 57.7198 18.9167C59.2898 18.0167 61.1798 17.5567 63.3898 17.5667C65.5998 17.5667 67.4898 18.0267 69.0698 18.9367C70.6598 19.8567 71.4498 20.9467 71.4598 22.2267C71.4598 22.6467 71.3698 23.0567 71.1898 23.4367Z" class="pr-icon-iso-duotone-primary-stroke" stroke-linejoin="round"/>
    <path d="M71.4598 22.2266C71.4598 22.6466 71.3698 23.0566 71.1898 23.4366C70.8498 24.2066 70.1597 24.8866 69.1097 25.4966C67.5397 26.4066 65.6498 26.8566 63.4398 26.8566C61.2298 26.8466 59.3297 26.3866 57.7497 25.4766C56.1897 24.5766 55.3997 23.4966 55.3697 22.2466V22.1966C55.3597 20.9166 56.1398 19.8266 57.7198 18.9166C59.2898 18.0166 61.1797 17.5566 63.3897 17.5666C65.5997 17.5666 67.4898 18.0266 69.0698 18.9366C70.6598 19.8566 71.4498 20.9466 71.4598 22.2266Z" class="pr-icon-iso-duotone-primary-stroke" stroke-linejoin="round"/>
    <path d="M99.0098 16.0166V36.0166C98.9698 36.2066 98.8898 36.3966 98.7598 36.5966C98.4598 36.1166 97.9298 35.6466 97.1698 35.1666C94.8798 33.7566 93.2699 32.1766 92.3299 30.4366C91.6799 29.2466 91.3598 27.9766 91.3498 26.6266C91.3398 23.3166 93.2798 20.4566 97.1798 18.0666C98.2398 17.3766 98.8598 16.6866 99.0098 16.0166Z" class="pr-icon-iso-duotone-primary-stroke" stroke-linejoin="round"/>
    <path d="M99.0798 37.5667V57.5666C99.0798 58.3766 98.3897 59.2066 97.0097 60.0766C96.6397 60.3166 96.2898 60.5566 95.9698 60.7966V52.6066C95.9498 52.1166 95.7097 51.5966 95.2697 51.0566C93.4897 49.0166 92.7098 47.0766 92.9198 45.2366C93.1298 43.3966 94.4997 41.6766 97.0097 40.0766C98.3897 39.2066 99.0798 38.3767 99.0798 37.5667Z" class="pr-icon-iso-duotone-primary-stroke" stroke-linejoin="round"/>
    <path d="M95.9698 52.8166V72.7966C95.9698 72.8766 95.9598 72.9466 95.9498 73.0266C95.8198 73.6466 95.3198 74.2066 94.4398 74.7166C89.3498 77.8066 83.4898 80.1266 76.8798 81.6766C70.2598 83.2366 63.4998 84.0366 56.5898 84.0766C49.6798 84.1166 42.8798 83.3666 36.1798 81.8266C29.4898 80.2866 23.4798 77.9766 18.1698 74.9066C12.9098 71.8766 8.96983 68.4566 6.32983 64.6466C3.68983 60.8366 2.35984 56.9566 2.33984 53.0266V33.0266C2.35984 36.3666 3.31975 39.6766 5.23975 42.9366C5.56975 43.5066 5.93983 44.0766 6.32983 44.6466C8.96983 48.4566 12.9098 51.8766 18.1698 54.9066C23.4798 57.9766 29.4898 60.2866 36.1798 61.8266C41.4798 63.0466 46.8498 63.7666 52.2898 63.9866C53.7198 64.0566 55.1498 64.0866 56.5898 64.0766C57.6098 64.0666 58.6298 64.0466 59.6498 64.0066C65.4998 63.7866 71.2398 63.0066 76.8798 61.6766C83.4898 60.1266 89.3498 57.8066 94.4398 54.7166C94.8498 54.4766 95.1798 54.2266 95.4298 53.9566C95.7098 53.6666 95.8798 53.3566 95.9498 53.0266C95.9598 52.9566 95.9698 52.8866 95.9698 52.8166Z" class="pr-icon-iso-duotone-primary-stroke" stroke-linejoin="round"/>
</svg>