<svg width="24" height="24" viewBox="0 0 95 88" class="pr-icon-iso-duotone-secondary" xmlns="http://www.w3.org/2000/svg" stroke-width="1px" stroke-linecap="round" stroke-linejoin="round">
    <path d="M76.0009 39.8101V59.8101C76.0009 60.7301 75.4108 61.5401 74.2308 62.2201C73.0508 62.9001 71.6609 63.2401 70.0609 63.2301C68.4609 63.2301 67.0709 62.8901 65.8809 62.2001L61.5908 59.7201V39.7201L65.8809 42.2001C67.0709 42.8901 68.4609 43.2301 70.0609 43.2301C71.1809 43.2401 72.2008 43.0701 73.1108 42.7301C73.5008 42.6001 73.8808 42.4201 74.2308 42.2201C75.4108 41.5401 76.0009 40.7301 76.0009 39.8101Z" class="pr-icon-iso-duotone-primary-stroke" stroke-linejoin="round"/>
    <path d="M14.7904 47.2101V56.7401L14.0904 81.8201C14.0304 83.3101 12.7904 84.3301 10.3504 84.8901C7.9204 85.4501 5.79041 85.2001 3.98041 84.1501C3.42041 83.8301 2.98041 83.4601 2.67041 83.0401C2.35041 82.6101 2.19043 82.1601 2.19043 81.6801V61.6801C2.19043 62.1601 2.35041 62.6101 2.67041 63.0401C2.69041 63.0601 2.71041 63.0901 2.73041 63.1101C3.03041 63.5001 3.45041 63.8501 3.98041 64.1501C5.79041 65.2001 7.9204 65.4501 10.3504 64.8901C12.7904 64.3301 14.0304 63.3101 14.0904 61.8201L14.5004 47.1001C14.6004 47.1301 14.7004 47.1701 14.7904 47.2101Z" class="pr-icon-iso-duotone-primary-stroke" stroke-linejoin="round"/>
    <path d="M61.59 39.72V59.72C55.13 62.81 47.74 64.25 39.42 64.05C31.1 63.86 23.9101 62.01 17.8301 58.5L14.79 56.7401V36.7401L17.8301 38.5C22.4801 41.18 27.77 42.9 33.73 43.64C35.56 43.87 37.46 44 39.42 44.05C43.09 44.14 46.5801 43.9101 49.8901 43.3501C53.3601 42.7801 56.6201 41.8501 59.6901 40.5701C60.3301 40.3001 60.97 40.02 61.59 39.72Z" class="pr-icon-iso-duotone-primary-stroke" stroke-linejoin="round"/>
    <path d="M92.6504 30.1901C92.6504 31.1201 92.0704 31.9201 90.8904 32.6001C89.7104 33.2801 88.3204 33.6201 86.7204 33.6201C85.1204 33.6201 83.7204 33.2701 82.5304 32.5901L73.1104 27.1401C72.9104 28.3901 72.4904 29.6301 71.8804 30.8801C71.2604 32.1201 70.3604 33.3301 69.1804 34.4901L73.1104 36.7601L74.2104 37.3901C75.0904 37.9001 75.6504 38.4801 75.8704 39.1301C75.9604 39.3501 76.0004 39.5701 76.0004 39.8101C76.0004 40.7301 75.4104 41.5401 74.2304 42.2201C73.8804 42.4201 73.5004 42.6001 73.1104 42.7301C72.2004 43.0701 71.1804 43.2401 70.0604 43.2301C68.4604 43.2301 67.0704 42.8901 65.8804 42.2001L61.5904 39.7201C60.9704 40.0201 60.3304 40.3001 59.6904 40.5701C56.6204 41.8501 53.3604 42.7801 49.8904 43.3501C46.5804 43.9101 43.0904 44.1401 39.4204 44.0501C37.4604 44.0001 35.5604 43.8701 33.7304 43.6401C27.7704 42.9001 22.4804 41.1801 17.8304 38.5001L14.7904 36.7401L14.5004 47.1001L14.0904 61.8201C14.0304 63.3101 12.7904 64.3301 10.3504 64.8901C7.9204 65.4501 5.79041 65.2001 3.98041 64.1501C3.45041 63.8501 3.03041 63.5001 2.73041 63.1101C2.71041 63.0901 2.69041 63.0601 2.67041 63.0401C2.35041 62.6101 2.19043 62.1601 2.19043 61.6801L3.07043 31.4201C3.07043 31.0201 3.2204 30.6001 3.5304 30.1801C3.8404 29.7601 4.28044 29.3901 4.83044 29.0701L7.33044 27.6301C8.51044 26.9501 9.90043 26.6101 11.5004 26.6101C13.1004 26.6101 14.5004 26.9601 15.6804 27.6401L22.2004 31.4001L24.6704 32.8301L26.1604 33.6901C29.8104 35.8001 34.1304 36.9501 39.1204 37.1401C39.1904 37.1501 39.2604 37.1501 39.3304 37.1501C44.0804 37.3101 48.4104 36.6501 52.3004 35.1301C52.5704 35.0401 52.8404 34.9301 53.1004 34.8201L38.9804 26.6701L23.9804 18.0101C22.8004 17.3301 22.2004 16.5201 22.2004 15.6001C22.1904 14.6701 22.7804 13.8701 23.9604 13.1901C25.1404 12.5101 26.5304 12.1701 28.1304 12.1701C29.7304 12.1801 31.1204 12.5201 32.3104 13.2101L38.8504 16.9801L60.1704 29.2901C61.4104 27.2001 61.6504 25.0301 60.8704 22.7801C60.0904 20.5301 58.2304 18.5601 55.3004 16.8601L40.6404 8.40007C39.4504 7.71007 38.8604 6.91007 38.8504 5.98007C38.8504 5.06007 39.4304 4.26006 40.6104 3.58006C41.7904 2.89006 43.1804 2.56006 44.7804 2.56006C46.3804 2.56006 47.7804 2.91007 48.9704 3.59007L90.8604 27.7801C92.0504 28.4601 92.6404 29.2701 92.6504 30.1901Z" class="pr-icon-iso-duotone-primary-stroke" stroke-linejoin="round"/>
    <path d="M73.1107 27.1401V36.7601L69.1807 34.4901C70.3607 33.3301 71.2607 32.1201 71.8807 30.8801C72.4907 29.6301 72.9107 28.3901 73.1107 27.1401Z" class="pr-icon-iso-duotone-primary-stroke" stroke-linejoin="round"/>
    <path d="M92.6503 30.1901V50.1901C92.6503 51.1201 92.0704 51.9201 90.8904 52.6001C89.7104 53.2801 88.3203 53.6201 86.7203 53.6201C85.1203 53.6201 83.7203 53.2701 82.5303 52.5901L76.0004 48.8101V39.8101C76.0004 39.5701 75.9604 39.3501 75.8704 39.1301C75.6504 38.4801 75.0903 37.9001 74.2103 37.3901L73.1104 36.7601V27.1401L82.5303 32.5901C83.7203 33.2701 85.1203 33.6201 86.7203 33.6201C88.3203 33.6201 89.7104 33.2801 90.8904 32.6001C92.0704 31.9201 92.6503 31.1201 92.6503 30.1901Z" class="pr-icon-iso-duotone-primary-stroke" stroke-linejoin="round"/>
    <path d="M53.1002 34.8201C52.8402 34.9301 52.5702 35.0401 52.3002 35.1301C48.4102 36.6501 44.0802 37.3101 39.3302 37.1501C39.2602 37.1501 39.1902 37.1501 39.1202 37.1401C34.1302 36.9501 29.8102 35.8001 26.1602 33.6901L24.6702 32.8301L22.2002 31.4001V15.6001C22.2002 16.5201 22.8002 17.3301 23.9802 18.0101L38.9802 26.6701L53.1002 34.8201Z" class="pr-icon-iso-duotone-primary-stroke" stroke-linejoin="round"/>
    <path d="M60.1706 29.2901L38.8506 16.9801V5.9801C38.8606 6.9101 39.4506 7.7101 40.6406 8.4001L55.3006 16.8601C58.2306 18.5601 60.0906 20.5301 60.8706 22.7801C61.6506 25.0301 61.4106 27.2001 60.1706 29.2901Z" class="pr-icon-iso-duotone-primary-stroke" stroke-linejoin="round"/>
</svg>