<svg width="24" height="24" viewBox="0 0 99 79" class="pr-icon-iso-duotone-secondary" xmlns="http://www.w3.org/2000/svg" stroke-width="1px" stroke-linecap="round" stroke-linejoin="round">
    <path d="M42.51 37.2401L42.6699 37.2101V37.1401L42.51 37.2401Z" class="pr-icon-iso-duotone-primary-stroke" stroke-linejoin="round"/>
    <path d="M62.1699 35.0402V41.7001L57.95 39.2601L51.45 35.5101L48.48 33.7902L42.6699 37.1401V30.4501L40.51 29.2001V22.5402L60.0901 33.8401L62.1699 35.0402Z" class="pr-icon-iso-duotone-primary-stroke" stroke-linejoin="round"/>
    <path d="M88.5601 50.2802V70.2802L81.8301 66.4001V53.0502L74.3501 48.7301L68.55 45.3801V38.7301L70.6899 39.9701L77.24 43.7401L88.5601 50.2802Z" class="pr-icon-iso-duotone-primary-stroke" stroke-linejoin="round"/>
    <path d="M96.98 34.4701V54.4701C96.98 55.1201 96.82 55.7801 96.49 56.4401L88.5601 70.2802V50.2802L89.98 47.8002L96.49 36.4401C96.82 35.7801 96.98 35.1201 96.98 34.4701Z" class="pr-icon-iso-duotone-primary-stroke" stroke-linejoin="round"/>
    <path d="M42.6699 30.4501V37.1401L42.51 37.2401L40.51 38.3901L31.1501 43.8002L8.69995 56.7601V70.0601L2.90015 73.4102V53.4102L6.22998 51.4901L25.3501 40.4501L31.1201 37.1201L34.1301 35.3801L40.51 31.7001L42.6699 30.4501Z" class="pr-icon-iso-duotone-primary-stroke" stroke-linejoin="round"/>
    <path d="M42.51 37.2401L42.6699 37.2101V37.1401L42.51 37.2401Z" class="pr-icon-iso-duotone-primary-stroke" stroke-linejoin="round"/>
    <path d="M64.3601 13.0102L34.1301 18.8601L14.1201 7.30019L38.0901 2.72011C40.0801 2.39011 42.06 2.35012 44.02 2.60012C45.98 2.84012 47.6999 3.39014 49.1799 4.25014L64.3601 13.0102Z" class="pr-icon-iso-duotone-primary-stroke" stroke-linejoin="round"/>
    <path d="M72.1001 17.4801L64.3601 31.1702L63.5701 32.5601L63.1899 33.2401L62.1699 35.0402L60.0901 33.8401L40.51 22.5402L40.98 22.4501L64.3601 18.0502L70.9399 16.8101L72.1001 17.4801Z" class="pr-icon-iso-duotone-primary-stroke" stroke-linejoin="round"/>
    <path d="M96.98 34.4701C96.98 35.1201 96.82 35.7801 96.49 36.4401L89.98 47.8002L88.5601 50.2802L77.24 43.7401L70.6899 39.9701L68.55 38.7301L69.51 37.0801L72.1001 32.6101L78.6699 21.2701L93.8501 30.0402C95.3301 30.8902 96.29 31.8901 96.71 33.0201C96.89 33.5001 96.98 33.9801 96.98 34.4701Z" class="pr-icon-iso-duotone-primary-stroke" stroke-linejoin="round"/>
    <path d="M42.6699 30.4501L40.51 31.7001L34.1301 35.3801L31.1201 37.1201L25.3501 40.4501L6.22998 51.4901L2.90015 53.4102L9.32007 11.1901L14.1201 13.9601L31.47 23.9801L34.1301 25.5201L40.51 29.2001L42.6699 30.4501Z" class="pr-icon-iso-duotone-primary-stroke" stroke-linejoin="round"/>
    <path d="M72.1001 17.4801V32.6101L69.51 37.0801L68.55 38.7301V43.7601L67.8601 44.9801L62.1699 41.7001V35.0402L63.1899 33.2401L63.5701 32.5601L64.3601 31.1702L72.1001 17.4801Z" class="pr-icon-iso-duotone-primary-stroke" stroke-linejoin="round"/>
    <path d="M64.3601 13.0101V18.0502L40.98 22.4501L40.51 22.5402V29.2001L34.1301 25.5201V18.8601L64.3601 13.0101Z" class="pr-icon-iso-duotone-primary-stroke" stroke-linejoin="round"/>
    <path d="M34.1301 18.8601V25.5201L31.47 23.9801L14.1201 13.9601V7.30017L34.1301 18.8601Z" class="pr-icon-iso-duotone-primary-stroke" stroke-linejoin="round"/>
    <path d="M81.8301 53.0502V73.0502L8.69995 76.7601V56.7601L33.96 55.4801L46.6699 54.8301L50 54.6702L60.5901 54.1301L62.1699 54.0502L62.75 54.0201L68.55 53.7201L71.54 53.5701L81.8301 53.0502Z" class="pr-icon-iso-duotone-primary-stroke" stroke-linejoin="round"/>
    <path d="M81.8301 53.0502L71.54 53.5701L68.55 53.7201L62.75 54.0201L62.1699 54.0502L60.5901 54.1301L50 54.6702L46.6699 54.8301L33.96 55.4801L8.69995 56.7601L31.1501 43.8002L40.51 38.3901L42.51 37.2401L42.6699 37.2101V37.1401L48.48 33.7902L51.45 35.5101L57.95 39.2601L62.1699 41.7001L67.8601 44.9801L68.55 45.3801L74.3501 48.7301L81.8301 53.0502Z" class="pr-icon-iso-duotone-primary-stroke" stroke-linejoin="round"/>
    <path d="M96.98 55.0402V54.4701" class="pr-icon-iso-duotone-primary-stroke" stroke-linejoin="round"/>
    <path d="M96.98 34.4701V34.3701" class="pr-icon-iso-duotone-primary-stroke" stroke-linejoin="round"/>
</svg>