<svg width="24" height="24" viewBox="0 0 117 91" class="pr-icon-iso-duotone-secondary" xmlns="http://www.w3.org/2000/svg" stroke-width="1px" stroke-linecap="round" stroke-linejoin="round">
    <path d="M78.2104 40.1974L76.3104 41.2974C75.7704 41.6074 75.5104 41.9874 75.5104 42.4574V51.0574L74.9104 51.4074H74.9004V32.3374C75.0204 34.5974 76.1204 37.2174 78.2104 40.1974Z" class="pr-icon-iso-duotone-primary-stroke" stroke-linejoin="round"/>
    <path d="M95.79 41.9073V61.9073C95.79 63.3073 95 64.4574 93.4 65.3874L53.37 88.4973C52.83 88.8073 52.16 88.9574 51.36 88.9574C50.56 88.9574 49.89 88.7974 49.35 88.4874C48.81 88.1774 48.54 87.7873 48.54 87.3273V67.3273C48.54 67.5373 48.6001 67.7374 48.7101 67.9174C48.8401 68.1274 49.06 68.3174 49.35 68.4874C49.89 68.7974 50.56 68.9574 51.36 68.9574C52.16 68.9574 52.83 68.8073 53.37 68.4973L75.51 55.7173L75.67 55.6273L86.76 49.2273L93.4 45.3874C95 44.4574 95.79 43.3073 95.79 41.9073Z" class="pr-icon-iso-duotone-primary-stroke" stroke-linejoin="round"/>
    <path d="M46.2401 31.7974L44.3901 37.8674L43.1802 41.8174L27.1702 51.0574C26.0802 51.6874 25.5101 52.4374 25.4901 53.2874C25.4801 53.3174 25.4801 53.3474 25.4801 53.3774V59.9574L8.65015 61.2874C7.04015 61.4374 5.64018 61.2474 4.43018 60.7074C3.22018 60.1574 2.48021 59.4274 2.21021 58.4974C2.15021 58.2974 2.12012 58.0974 2.12012 57.9074V37.8874C2.12012 38.0874 2.15021 38.2874 2.21021 38.4974C2.48021 39.4274 3.22018 40.1574 4.43018 40.7074C5.64018 41.2474 7.04015 41.4374 8.65015 41.2874L29.4202 39.6474C31.1602 39.2674 32.1602 38.9974 32.4302 38.8374L34.1401 37.9674L46.2401 31.7974Z" class="pr-icon-iso-duotone-primary-stroke" stroke-linejoin="round"/>
    <path d="M90.1603 41.8974C90.1703 42.3674 89.9002 42.7474 89.3702 43.0574L88.7003 43.4474L75.5103 51.0574V42.4574C75.5103 42.9174 75.7803 43.3074 76.3203 43.6174C76.8603 43.9274 77.5303 44.0774 78.3303 44.0774C79.1303 44.0874 79.8003 43.9274 80.3403 43.6174L85.3403 40.7374C85.8703 40.4274 86.5403 40.2674 87.3403 40.2774C88.1503 40.2774 88.8202 40.4274 89.3502 40.7374C89.4802 40.8174 89.6003 40.8974 89.7003 40.9874C90.0103 41.2474 90.1603 41.5574 90.1603 41.8974Z" class="pr-icon-iso-duotone-primary-stroke" stroke-linejoin="round"/>
    <path d="M95.7902 41.9074C95.7902 43.3074 95.0001 44.4574 93.4001 45.3874L86.7601 49.2274L75.6702 55.6274L75.5101 55.7174L53.3701 68.4974C52.8301 68.8074 52.1601 68.9574 51.3601 68.9574C50.5601 68.9574 49.8901 68.7974 49.3501 68.4874C49.0601 68.3174 48.8402 68.1274 48.7102 67.9174C48.6002 67.7374 48.5402 67.5374 48.5402 67.3274C48.5402 66.8674 48.8002 66.4774 49.3402 66.1674L57.7501 61.3174L74.9001 51.4074H74.9102L75.5101 51.0574L88.7002 43.4474L89.3701 43.0574C89.9001 42.7474 90.1702 42.3674 90.1602 41.8974C90.1602 41.5574 90.0102 41.2474 89.7002 40.9874C89.6002 40.8974 89.4801 40.8174 89.3501 40.7374C88.8201 40.4274 88.1502 40.2774 87.3402 40.2774C86.5402 40.2674 85.8702 40.4274 85.3402 40.7374L80.3402 43.6174C79.8002 43.9274 79.1302 44.0874 78.3302 44.0774C77.5302 44.0774 76.8602 43.9274 76.3202 43.6174C75.7802 43.3074 75.5101 42.9174 75.5101 42.4574C75.5101 41.9974 75.7702 41.6074 76.3102 41.2974L78.2102 40.1974C76.1202 37.2174 75.0201 34.5974 74.9001 32.3374C74.8601 31.4374 74.9502 30.4874 75.2002 29.5074C75.5502 28.0374 76.2201 26.4774 77.2201 24.8374C74.6201 25.4874 71.7401 26.4674 68.6101 27.7774C68.2301 27.9374 67.8601 28.0974 67.4901 28.2474C64.8201 29.4274 62.4901 30.6574 60.5001 31.9374L59.9302 33.8674L59.5101 35.3174L57.5402 42.0174C57.4702 42.3674 57.2901 42.6774 56.9901 42.9674C56.6901 43.2574 56.3402 43.5174 55.9402 43.7474L35.2301 55.7074C34.0901 56.3674 32.7601 56.6974 31.2201 56.6874C29.6801 56.6874 28.3402 56.3574 27.2002 55.6974C26.0602 55.0374 25.4801 54.2674 25.4801 53.3774C25.4801 53.3474 25.4801 53.3174 25.4901 53.2874C25.5101 52.4374 26.0802 51.6874 27.1702 51.0574L43.1802 41.8174L44.3901 37.8674L46.2401 31.7974L34.1401 37.9674L32.4302 38.8374C32.1602 38.9974 31.1602 39.2674 29.4202 39.6474L8.65015 41.2874C7.04015 41.4374 5.64018 41.2474 4.43018 40.7074C3.22018 40.1574 2.48021 39.4274 2.21021 38.4974C2.15021 38.2874 2.12012 38.0874 2.12012 37.8874C2.12012 37.2074 2.4802 36.5974 3.2002 36.0674C4.1302 35.3674 5.40013 34.9474 7.01013 34.7974L25.7701 33.2674L33.3102 28.9174L47.0902 20.9574C48.8802 19.9274 50.9301 18.8774 53.2601 17.8274C53.6101 17.6674 53.9702 17.5074 54.3402 17.3474C57.1102 16.1374 59.8701 15.1274 62.6101 14.3174L53.2601 12.7374L43.0602 18.6374C41.9202 19.2874 40.5902 19.6174 39.0502 19.6074C37.5102 19.6074 36.1702 19.2774 35.0302 18.6174C33.8902 17.9574 33.3102 17.1874 33.3102 16.2974C33.3002 15.4074 33.8701 14.6374 35.0001 13.9774L47.5101 6.75736C48.2401 6.33736 49.1002 6.03736 50.0702 5.86736C51.0302 5.69736 52.0202 5.70737 53.0302 5.89737L77.5402 9.88736C80.1602 10.3174 82.3302 10.7474 84.0702 11.1774C85.8202 11.5974 87.2302 12.1274 88.3002 12.7474C89.9802 13.7174 90.7901 15.0074 90.7301 16.6374C90.6701 18.2574 90.0101 20.4774 88.7601 23.2974C87.3001 26.6174 86.5501 29.2974 86.4901 31.3474C86.4901 31.5374 86.4901 31.7274 86.5001 31.9074C86.5401 33.7474 87.0502 35.4274 88.0302 36.9674C89.1002 37.0674 89.9902 37.1974 90.6702 37.3474C90.8002 37.3774 90.9302 37.4074 91.0402 37.4374C91.7802 37.6374 92.5201 37.9474 93.2601 38.3674C94.9401 39.3374 95.7802 40.5174 95.7902 41.9074Z" class="pr-icon-iso-duotone-primary-stroke" stroke-linejoin="round"/>
    <path d="M114.58 9.48736V9.50736C114.58 11.3174 113.49 12.8574 111.3 14.1174C109.09 15.3874 106.42 16.0274 103.27 16.0174C100.13 16.0074 97.4503 15.3674 95.2303 14.0874C93.0203 12.8074 91.9104 11.2674 91.9004 9.44736C91.9004 7.62736 92.9804 6.08736 95.1804 4.81736C97.3804 3.54736 100.06 2.91736 103.2 2.91736C106.35 2.91736 109.03 3.56736 111.24 4.84736C113.46 6.12736 114.57 7.67736 114.58 9.48736Z" class="pr-icon-iso-duotone-primary-stroke" stroke-linejoin="round"/>
    <path d="M114.58 9.50735V29.4874C114.59 31.3074 113.5 32.8474 111.3 34.1174C109.09 35.3874 106.42 36.0274 103.27 36.0174C100.13 36.0074 97.4503 35.3674 95.2303 34.0874C93.0203 32.8074 91.9104 31.2674 91.9004 29.4474V9.44736C91.9104 11.2674 93.0203 12.8074 95.2303 14.0874C97.4503 15.3674 100.13 16.0074 103.27 16.0174C106.42 16.0274 109.09 15.3874 111.3 14.1174C113.49 12.8574 114.58 11.3174 114.58 9.50735Z" class="pr-icon-iso-duotone-primary-stroke" stroke-linejoin="round"/>
    <path d="M60.5 31.9373V51.9373L57.75 61.3174L49.3401 66.1674C48.8001 66.4774 48.54 66.8673 48.54 67.3273V68.0173L35.23 75.7074C34.09 76.3674 32.76 76.6973 31.22 76.6873C29.68 76.6873 28.3401 76.3573 27.2001 75.6973C26.0601 75.0373 25.48 74.2673 25.48 73.3773V53.3773C25.48 54.2673 26.0601 55.0373 27.2001 55.6973C28.3401 56.3573 29.68 56.6873 31.22 56.6873C32.76 56.6973 34.09 56.3674 35.23 55.7074L55.9401 43.7473C56.3401 43.5173 56.69 43.2573 56.99 42.9673C57.29 42.6773 57.47 42.3673 57.54 42.0173L59.51 35.3173L59.9301 33.8673L60.5 31.9373Z" class="pr-icon-iso-duotone-primary-stroke" stroke-linejoin="round"/>
    <path d="M75.2001 29.5074C74.9501 30.4874 74.86 31.4374 74.9 32.3374V45.4874C72.94 46.0774 70.84 46.8474 68.61 47.7774C65.47 49.0874 62.76 50.4774 60.5 51.9374V31.9374C62.49 30.6574 64.82 29.4274 67.49 28.2474C67.86 28.0974 68.23 27.9374 68.61 27.7774C71.74 26.4674 74.62 25.4874 77.22 24.8374C76.22 26.4774 75.5501 28.0374 75.2001 29.5074Z" class="pr-icon-iso-duotone-primary-stroke" stroke-linejoin="round"/>
    <path d="M53.26 12.7374V17.8274C50.93 18.8774 48.8801 19.9274 47.0901 20.9574L33.3101 28.9174V16.2974C33.3101 17.1874 33.89 17.9574 35.03 18.6174C36.17 19.2774 37.51 19.6074 39.05 19.6074C40.59 19.6174 41.9201 19.2874 43.0601 18.6374L53.26 12.7374Z" class="pr-icon-iso-duotone-primary-stroke" stroke-linejoin="round"/>
    <path d="M62.6102 14.3174C59.8702 15.1274 57.1103 16.1374 54.3403 17.3474C53.9703 17.5074 53.6103 17.6674 53.2603 17.8274V12.7374L62.6102 14.3174Z" class="pr-icon-iso-duotone-primary-stroke" stroke-linejoin="round"/>
    <path d="M90.7302 16.6374V36.6374C90.7202 36.8674 90.7003 37.0974 90.6703 37.3474C89.9903 37.1974 89.1003 37.0674 88.0303 36.9674C87.0503 35.4274 86.5402 33.7474 86.5002 31.9074C86.4902 31.7274 86.4902 31.5374 86.4902 31.3474C86.5502 29.2974 87.3003 26.6174 88.7603 23.2974C90.0103 20.4774 90.6702 18.2574 90.7302 16.6374Z" class="pr-icon-iso-duotone-primary-stroke" stroke-linejoin="round"/>
</svg>