<svg width="48" height="48" viewBox="0 0 112 87" class="pr-icon-iso-duotone-secondary"
     xmlns="http://www.w3.org/2000/svg" stroke-width="1px" stroke-linecap="round" stroke-linejoin="round">
    <path d="M101.88 6.64759C96.89 3.77759 90.9 2.32759 83.89 2.31759C76.88 2.29759 70.9 3.72759 65.94 6.58759L58.7799 10.7276L55.17 8.64759C53.19 7.49759 50.7901 6.92759 47.9801 6.91759C45.1601 6.91759 42.7699 7.47759 40.7999 8.61759L4.97005 29.2976C3.00005 30.4376 2.01986 31.8176 2.02986 33.4476C2.03986 35.0676 3.02985 36.4576 5.01985 37.5976L15.13 43.4376L40.3699 58.0076L47.5699 62.1676L48.2799 62.5776C50.2599 63.7176 52.66 64.2976 55.47 64.2976C56.74 64.2976 57.9199 64.1876 59.0199 63.9476C60.3599 63.6776 61.57 63.2276 62.65 62.5976L66.7601 60.2276L98.4801 41.9176C100.44 40.7876 101.42 39.4076 101.42 37.7976V37.7776C101.41 36.1476 100.42 34.7676 98.43 33.6176L97.7999 33.2576H97.7899L94.8299 31.5376L95.4 31.2076L101.99 27.3976C102.19 27.2876 102.38 27.1676 102.56 27.0576C107.11 24.2876 109.39 20.9676 109.39 17.1076V17.0376C109.37 12.9976 106.87 9.52759 101.88 6.64759ZM66.14 43.9376C65.13 44.5176 63.9299 44.8076 62.5599 44.8076C61.1899 44.8076 59.98 44.5076 58.96 43.9176L58.91 43.8876L51.7501 39.7576L51.7 39.7876L44.5799 43.8976C44.5799 43.8976 44.5499 43.9076 44.5399 43.9176C43.5399 44.4876 42.3501 44.7776 40.9901 44.7676C39.6201 44.7676 38.42 44.4676 37.39 43.8876C36.37 43.2976 35.8599 42.5976 35.8599 41.8076C35.8499 41.0076 36.3599 40.3176 37.3699 39.7376L44.5399 35.5976L37.3299 31.4376C37.0799 31.2976 36.87 31.1476 36.68 30.9976C36.09 30.5076 35.7899 29.9576 35.7899 29.3576C35.7799 28.5576 36.2899 27.8676 37.2999 27.2876C38.3199 26.6976 39.52 26.4076 40.89 26.4076C42.26 26.4076 43.42 26.6976 44.43 27.2676C44.45 27.2676 44.4701 27.2876 44.4901 27.2976L51.7 31.4576L55.8699 29.0576L58.8699 27.3276C59.8799 26.7376 61.08 26.4476 62.46 26.4476C63.5 26.4476 64.4499 26.6176 65.2899 26.9676C65.5499 27.0776 65.8099 27.1976 66.0499 27.3376C67.0799 27.9276 67.5899 28.6176 67.5899 29.4176C67.5999 30.2076 67.0899 30.8976 66.0799 31.4876L58.91 35.6176L66.1199 39.7876C67.1399 40.3776 67.66 41.0676 67.66 41.8676C67.67 42.6576 67.16 43.3476 66.14 43.9376ZM94.7799 23.2376L94.22 23.5576L87.6199 27.3776L79.2401 22.5376L65.9901 14.8876L73.15 10.7476C76.14 9.02759 79.73 8.16759 83.92 8.17759C88.11 8.18759 91.71 9.05759 94.71 10.7876C97.72 12.5276 99.2301 14.5976 99.2401 17.0176C99.2501 19.4376 97.7699 21.5176 94.7799 23.2376Z" class="pr-icon-iso-duotone-primary-stroke" stroke-linejoin="round"/>
    <path d="M44.5395 35.5977V43.9177C43.5395 44.4877 42.3496 44.7777 40.9896 44.7677C39.6196 44.7677 38.4195 44.4677 37.3895 43.8877C36.3695 43.2977 35.8595 42.5977 35.8595 41.8077C35.8495 41.0077 36.3595 40.3177 37.3695 39.7377L44.5395 35.5977Z" class="pr-icon-iso-duotone-primary-stroke" stroke-linejoin="round"/>
    <path d="M51.6999 31.4575V39.7875L44.5797 43.8975C44.5797 43.8975 44.5497 43.9075 44.5397 43.9175V35.5975L37.3297 31.4375C37.0797 31.2975 36.8698 31.1475 36.6798 30.9975C36.0898 30.5075 35.7897 29.9575 35.7897 29.3575C35.7797 28.5575 36.2897 27.8675 37.2997 27.2875C38.3197 26.6975 39.5198 26.4075 40.8898 26.4075C42.2598 26.4075 43.4198 26.6975 44.4298 27.2675C44.4498 27.2675 44.4699 27.2875 44.4899 27.2975L51.6999 31.4575Z" class="pr-icon-iso-duotone-primary-stroke" stroke-linejoin="round"/>
    <path d="M67.6602 41.8677C67.6702 42.6577 67.1601 43.3477 66.1401 43.9377C65.1301 44.5177 63.9301 44.8077 62.5601 44.8077C61.1901 44.8077 59.9802 44.5077 58.9602 43.9177L58.9102 43.8877V35.6177L66.1201 39.7877C67.1401 40.3777 67.6602 41.0677 67.6602 41.8677Z" class="pr-icon-iso-duotone-primary-stroke" stroke-linejoin="round"/>
    <path d="M67.5901 29.4175C67.6001 30.2075 67.0901 30.8975 66.0801 31.4875L58.9102 35.6175V43.8875L51.7502 39.7575L51.7002 39.7875V31.4575L55.8701 29.0575L58.8701 27.3275C59.8801 26.7375 61.0802 26.4475 62.4602 26.4475C63.5002 26.4475 64.45 26.6175 65.29 26.9675C65.55 27.0775 65.81 27.1975 66.05 27.3375C67.08 27.9275 67.5901 28.6175 67.5901 29.4175Z" class="pr-icon-iso-duotone-primary-stroke" stroke-linejoin="round"/>
    <path d="M99.2402 17.0176C99.2502 19.4376 97.77 21.5176 94.78 23.2376L94.2202 23.5576L87.6201 27.3776L79.2402 22.5376L65.9902 14.8876L73.1501 10.7476C76.1401 9.02758 79.7302 8.16758 83.9202 8.17758C88.1102 8.18758 91.7102 9.05757 94.7102 10.7876C97.7202 12.5276 99.2302 14.5976 99.2402 17.0176Z" class="pr-icon-iso-duotone-primary-stroke" stroke-linejoin="round"/>
    <path d="M109.39 17.1077V37.0377C109.42 41.0877 106.95 44.5377 101.99 47.3977L101.42 47.7277V37.7777C101.41 36.1477 100.42 34.7677 98.4302 33.6177L97.8 33.2577H97.79L94.8301 31.5377L95.4001 31.2077L101.99 27.3977C102.19 27.2877 102.38 27.1677 102.56 27.0577C107.11 24.2877 109.39 20.9677 109.39 17.1077Z" class="pr-icon-iso-duotone-primary-stroke" stroke-linejoin="round"/>
    <path d="M101.42 37.7975V57.7775C101.43 59.3975 100.45 60.7775 98.48 61.9175L62.6499 82.5975C60.6799 83.7375 58.29 84.3075 55.47 84.2975C52.66 84.2975 50.2598 83.7175 48.2798 82.5775L5.01978 57.5975C3.02978 56.4575 2.03979 55.0675 2.02979 53.4475V33.4475C2.03979 35.0675 3.02978 36.4575 5.01978 37.5975L15.1299 43.4375L40.3699 58.0075L47.5698 62.1675L48.2798 62.5775C50.2598 63.7175 52.66 64.2975 55.47 64.2975C56.74 64.2975 57.9198 64.1875 59.0198 63.9475C60.3598 63.6775 61.5699 63.2275 62.6499 62.5975L66.76 60.2275L98.48 41.9175C100.44 40.7875 101.42 39.4075 101.42 37.7975Z" class="pr-icon-iso-duotone-primary-stroke" stroke-linejoin="round"/>
</svg>