<svg width="48" height="48" viewBox="0 0 107 84" fill="#c8e7ff" xmlns="http://www.w3.org/2000/svg" stroke-width="1px" stroke-linecap="round" stroke-linejoin="round"><path d="M37.5186 44.792V64.772C37.5286 65.642 36.9986 66.402 35.9386 67.052V58.062C35.9386 57.102 35.3686 56.322 34.2286 55.702C33.0886 55.082 31.7286 54.752 30.1386 54.712L22.8086 54.642L35.7786 47.152C36.5486 46.712 37.0586 46.212 37.3186 45.662C37.4486 45.382 37.5186 45.092 37.5186 44.792Z" stroke="#229EFF" stroke-linejoin="round"/><path d="M68.7789 19.9623V36.2123C68.5689 36.0323 68.3188 35.8623 68.0388 35.7023C66.8688 35.0223 65.4888 34.6823 63.9088 34.6823C62.3288 34.6823 60.9489 35.0123 59.7789 35.6823C58.6089 36.3623 58.0288 37.1523 58.0388 38.0723V40.2023C55.4388 40.0923 52.8388 39.8423 50.2388 39.4823C49.8488 39.4323 49.4689 39.3723 49.0889 39.3023V26.1323C49.0889 25.2123 48.4988 24.4223 47.3188 23.7423C47.0688 23.6023 46.8088 23.4723 46.5388 23.3523C45.5488 22.9323 44.4288 22.7223 43.1888 22.7223C41.5988 22.7223 40.2288 23.0523 39.0588 23.7223C38.3088 24.1523 37.7988 24.6423 37.5388 25.1723C37.3888 25.4723 37.3188 25.7823 37.3188 26.1023V36.5323C35.9588 36.0823 34.6289 35.5923 33.3389 35.0723V15.0723C38.4389 17.1423 44.0788 18.6123 50.2388 19.4823C56.4088 20.3523 62.5889 20.5123 68.7789 19.9623Z" stroke="#229EFF" stroke-linejoin="round"/><path d="M69.8091 38.1123V48.7723C69.8091 48.7723 69.7391 48.7723 69.7091 48.7923C65.8491 49.5623 61.9591 49.9623 58.0391 49.9823V38.0723C58.0391 38.9023 58.5291 39.6323 59.4991 40.2523C59.5991 40.3323 59.6991 40.3923 59.8091 40.4523C60.9791 41.1323 62.3591 41.4723 63.9391 41.4823C65.5291 41.4823 66.8991 41.1423 68.0691 40.4723C68.3391 40.3223 68.5691 40.1623 68.7791 39.9923C69.4591 39.4323 69.8091 38.8023 69.8091 38.1123Z" stroke="#229EFF" stroke-linejoin="round"/><path d="M69.8082 38.0926V38.1126C69.8082 38.8026 69.4583 39.4326 68.7783 39.9926C68.5683 40.1626 68.3382 40.3226 68.0682 40.4726C66.8982 41.1426 65.5282 41.4826 63.9382 41.4826C62.3582 41.4726 60.9782 41.1326 59.8082 40.4526C59.6982 40.3926 59.5982 40.3326 59.4982 40.2526C58.5282 39.6326 58.0382 38.9026 58.0382 38.0726C58.0282 37.1526 58.6083 36.3626 59.7783 35.6826C60.9483 35.0126 62.3182 34.6826 63.9082 34.6826C65.4982 34.6826 66.8682 35.0226 68.0382 35.7026C68.3182 35.8626 68.5683 36.0326 68.7783 36.2126C69.4683 36.7626 69.8082 37.3926 69.8082 38.0926Z" stroke="#229EFF" stroke-linejoin="round"/><path d="M37.5187 44.7725V44.7925C37.5187 45.0925 37.4487 45.3825 37.3187 45.6625C37.0587 46.2125 36.5487 46.7125 35.7787 47.1525L22.8087 54.6425L30.1387 54.7125C31.7287 54.7525 33.0886 55.0825 34.2286 55.7025C35.3686 56.3225 35.9387 57.1025 35.9387 58.0625V58.0825C35.9387 59.0225 35.3787 59.8325 34.2487 60.4725C33.4487 60.9325 32.5187 61.2325 31.4587 61.3625C31.0787 61.4125 30.6787 61.4425 30.2587 61.4425C30.1987 61.4525 30.1387 61.4525 30.0787 61.4525L8.69868 61.3525C7.04868 61.3525 5.66866 61.0225 4.55866 60.3925C3.45866 59.7525 2.89869 58.9525 2.89869 58.0025L2.72864 45.6625C2.71864 44.7025 3.28865 43.9025 4.41865 43.2525C5.54865 42.5925 6.93864 42.2725 8.59864 42.2725C9.46864 42.2725 10.2687 42.3725 10.9887 42.5625C11.4787 42.6825 11.9187 42.8525 12.3287 43.0725C12.4687 43.1425 12.5986 43.2125 12.7286 43.2925C13.8386 43.9725 14.4287 44.7625 14.4987 45.6825L14.5187 49.8525L22.6787 45.1425L23.7087 44.5525L27.4887 42.3625C28.6587 41.6925 30.0387 41.3525 31.6187 41.3625C33.1987 41.3625 34.5787 41.7025 35.7587 42.3825C36.5387 42.8425 37.0687 43.3425 37.3187 43.9025C37.4587 44.1825 37.5187 44.4725 37.5187 44.7725Z" stroke="#229EFF" stroke-linejoin="round"/><path d="M104.569 29.8025V29.9025C104.569 33.4725 103.489 36.7925 101.329 39.8725C99.049 43.1425 95.549 46.1425 90.829 48.8625C86.379 51.4325 81.4489 53.3525 76.0389 54.6325C75.4489 54.7725 74.849 54.9125 74.239 55.0325C72.769 55.3325 71.299 55.5925 69.809 55.8125C69.369 55.8825 68.929 55.9425 68.489 55.9925C65.219 56.4225 61.909 56.6525 58.549 56.6825C58.379 56.6925 58.2089 56.6925 58.0389 56.6825C57.1489 56.6925 56.2489 56.6825 55.3489 56.6625C53.2789 56.5825 51.769 56.1825 50.799 55.4625C49.829 54.7525 49.349 53.9525 49.339 53.0725C49.339 52.2025 49.869 51.4425 50.929 50.7825C51.989 50.1325 53.419 49.8425 55.209 49.9325C56.159 49.9725 57.0989 49.9925 58.0389 49.9825C61.9589 49.9625 65.849 49.5625 69.709 48.7925C69.739 48.7825 69.779 48.7825 69.809 48.7725C70.229 48.6825 70.649 48.5925 71.059 48.4925C75.299 47.5225 79.1289 46.0425 82.5389 44.0725C83.2989 43.6425 83.9889 43.2025 84.5989 42.7625C85.2189 42.3325 85.839 41.8525 86.449 41.3425C80.789 38.7025 76.419 35.5325 73.339 31.8025C71.139 29.1425 69.729 26.3625 69.139 23.4725C68.899 22.3725 68.779 21.2525 68.779 20.1225V19.9625C62.589 20.5125 56.409 20.3525 50.239 19.4825C44.079 18.6125 38.439 17.1425 33.339 15.0725C29.349 17.2125 26.489 19.7025 24.749 22.5325C23.009 25.3725 22.319 28.2425 22.679 31.1525V31.5425C22.679 31.6025 22.6689 31.6625 22.6689 31.7125C22.5489 32.5225 22.049 33.1625 21.149 33.6525C20.509 34.0025 19.789 34.2425 18.999 34.3825C18.449 34.4925 17.8489 34.5325 17.2289 34.5325C15.7089 34.5325 14.339 34.2525 13.089 33.6925C11.849 33.1325 11.159 32.2625 11.009 31.0625C10.979 30.6725 10.959 30.2625 10.959 29.8825V29.6725C10.979 26.4225 11.9389 23.2425 13.8489 20.1625C16.0289 16.6325 19.589 13.4325 24.529 10.5825C33.729 5.27246 44.7289 2.63246 57.5389 2.65246C70.3389 2.67246 81.369 5.36246 90.629 10.7025C99.879 16.0425 104.529 22.4125 104.569 29.8025Z" stroke="#229EFF" stroke-linejoin="round"/><path d="M104.568 51.4023V49.9023" stroke="#229EFF" stroke-linejoin="round"/><path d="M104.569 29.9023V49.9023C104.569 57.2523 99.9889 63.5723 90.8289 68.8623C85.8889 71.7123 80.3588 73.7723 74.2388 75.0323C68.1188 76.2923 61.8188 76.8323 55.3488 76.6623C53.2788 76.5823 51.7688 76.1823 50.7988 75.4623C49.8288 74.7523 49.3489 73.9523 49.3389 73.0723V53.0723C49.3489 53.9523 49.8288 54.7523 50.7988 55.4623C51.7688 56.1823 53.2788 56.5823 55.3488 56.6623C56.2488 56.6823 57.1488 56.6923 58.0388 56.6823C58.2088 56.6923 58.3788 56.6923 58.5488 56.6823C61.9088 56.6523 65.2188 56.4223 68.4888 55.9923C68.9288 55.9423 69.3688 55.8823 69.8088 55.8123C71.2988 55.5923 72.7688 55.3323 74.2388 55.0323C74.8488 54.9123 75.4488 54.7723 76.0388 54.6323C81.4488 53.3523 86.3789 51.4323 90.8289 48.8623C95.5489 46.1423 99.0489 43.1423 101.329 39.8723C103.489 36.7923 104.569 33.4723 104.569 29.9023Z" stroke="#229EFF" stroke-linejoin="round"/><path d="M86.4483 41.3421C85.8383 41.8521 85.2183 42.3321 84.5983 42.7621C83.9883 43.2021 83.2983 43.6421 82.5383 44.0721C79.1283 46.0421 75.2983 47.5221 71.0583 48.4921C70.5483 47.6221 70.1383 46.7321 69.8083 45.8321V38.0921C69.8083 37.3921 69.4683 36.7621 68.7783 36.2121V20.1221C68.7783 21.2521 68.8983 22.3721 69.1383 23.4721C69.7283 26.3621 71.1383 29.1421 73.3383 31.8021C76.4183 35.5321 80.7883 38.7021 86.4483 41.3421Z" stroke="#229EFF" stroke-linejoin="round"/><path d="M49.0884 26.1329V26.1529C49.0884 27.0529 48.5083 27.8429 47.3483 28.5129C46.1783 29.1829 44.8083 29.5229 43.2183 29.5129C41.6383 29.5129 40.2584 29.1729 39.0884 28.4929C37.9084 27.8129 37.3184 27.0229 37.3184 26.1029C37.3184 25.7829 37.3883 25.4729 37.5383 25.1729C37.7983 24.6429 38.3083 24.1529 39.0583 23.7229C40.2283 23.0529 41.5984 22.7129 43.1884 22.7229C44.4284 22.7229 45.5483 22.9329 46.5383 23.3529C46.8083 23.4729 47.0684 23.6029 47.3184 23.7429C48.4984 24.4229 49.0884 25.2129 49.0884 26.1329Z" stroke="#229EFF" stroke-linejoin="round"/><path d="M49.0884 26.1525V46.1325C49.0984 47.0425 48.5183 47.8325 47.3483 48.5125C46.1783 49.1825 44.8083 49.5225 43.2183 49.5125C41.6383 49.5125 40.2584 49.1725 39.0884 48.4925C38.2984 48.0325 37.7684 47.5325 37.5184 46.9725V44.7725C37.5184 44.4725 37.4584 44.1825 37.3184 43.9025V26.1025C37.3184 27.0225 37.9084 27.8125 39.0884 28.4925C40.2584 29.1725 41.6383 29.5125 43.2183 29.5125C44.8083 29.5225 46.1783 29.1825 47.3483 28.5125C48.5083 27.8425 49.0884 27.0525 49.0884 26.1525Z" stroke="#229EFF" stroke-linejoin="round"/><path d="M22.679 31.7128V45.1428L14.519 49.8528L14.499 45.6828C14.429 44.7628 13.8389 43.9728 12.7289 43.2928C12.5989 43.2128 12.469 43.1428 12.329 43.0728C11.919 42.8528 11.479 42.6828 10.989 42.5628L10.959 29.8828C10.959 30.2628 10.979 30.6728 11.009 31.0628C11.159 32.2628 11.849 33.1328 13.089 33.6928C14.339 34.2528 15.7089 34.5328 17.2289 34.5328C17.8489 34.5328 18.449 34.4928 18.999 34.3828C19.789 34.2428 20.509 34.0028 21.149 33.6528C22.049 33.1628 22.5489 32.5228 22.6689 31.7228H22.679V31.7128Z" stroke="#229EFF" stroke-linejoin="round"/><path d="M33.3385 15.0723V35.0723C29.3485 37.2123 26.4885 39.7023 24.7485 42.5323C24.3385 43.2023 23.9885 43.8723 23.7085 44.5523L22.6785 45.1423V31.1523C22.3185 28.2423 23.0085 25.3723 24.7485 22.5323C26.4885 19.7023 29.3485 17.2123 33.3385 15.0723Z" stroke="#229EFF" stroke-linejoin="round"/><path d="M35.9385 58.0821V78.0621C35.9485 79.0121 35.3885 79.8221 34.2485 80.4721C33.1185 81.1221 31.7286 81.4521 30.0786 81.4521L8.69855 81.3521C7.04855 81.3521 5.66853 81.0221 4.55853 80.3921C3.45853 79.7521 2.89856 78.9521 2.89856 78.0021L2.72852 65.6621V45.6621L2.89856 58.0021C2.89856 58.9521 3.45853 59.7521 4.55853 60.3921C5.66853 61.0221 7.04855 61.3521 8.69855 61.3521L30.0786 61.4521C30.1386 61.4521 30.1985 61.4521 30.2585 61.4421C30.6785 61.4421 31.0786 61.4121 31.4586 61.3621C32.5186 61.2321 33.4485 60.9321 34.2485 60.4721C35.3785 59.8321 35.9385 59.0221 35.9385 58.0821Z" stroke="#229EFF" stroke-linejoin="round"/></svg>