<svg width="24" height="24" viewBox="0 0 102 108" class="pr-icon-iso-duotone-secondary" xmlns="http://www.w3.org/2000/svg" stroke-width="1px" stroke-linecap="round" stroke-linejoin="round">
    <path d="M39.58 82.36V102.34C39.59 103.24 39.05 103.99 37.98 104.57C36.9 105.15 35.58 105.44 34.01 105.44C32.51 105.4 31.21 105.09 30.13 104.5C29.05 103.91 28.51 103.17 28.5 102.26L28.38 79.27L28.27 59.33L28.38 59.27L28.5 82.26C28.51 83.17 29.05 83.91 30.13 84.5C31.21 85.09 32.51 85.4 34.01 85.44C35.58 85.44 36.9 85.15 37.98 84.57C38.77 84.14 39.27 83.62 39.48 83.01C39.55 82.8 39.58 82.58 39.58 82.36Z" class="pr-icon-iso-duotone-primary-stroke" stroke-linejoin="round"/>
    <path d="M28.38 79.27L19.87 84.18C18.76 84.82 17.46 85.14 15.95 85.14C14.44 85.14 13.14 84.81 12.03 84.17L4.15997 79.63C3.03997 78.98 2.47998 78.23 2.47998 77.36V57.36C2.47998 58.23 3.03997 58.98 4.15997 59.63L12.03 64.17C13.14 64.81 14.45 65.14 15.95 65.14C17.45 65.14 18.76 64.82 19.87 64.18L28.27 59.33L28.38 79.27Z" class="pr-icon-iso-duotone-primary-stroke" stroke-linejoin="round"/>
    <path d="M39.5802 82.34V82.36C39.5802 82.58 39.5501 82.8 39.4801 83C39.2701 83.62 38.7701 84.14 37.9801 84.57C36.9001 85.15 35.5801 85.44 34.0101 85.44C32.5101 85.4 31.2101 85.09 30.1301 84.5C29.0501 83.91 28.5101 83.17 28.5001 82.26L28.3801 59.27L28.2702 59.33L19.8701 64.18C18.7601 64.82 17.4601 65.14 15.9501 65.14C14.4401 65.14 13.1402 64.81 12.0302 64.17L4.16011 59.63C3.04011 58.98 2.48011 58.23 2.48011 57.36C2.47011 56.49 3.02014 55.74 4.13014 55.1L28.1701 41.21L28.2802 41.15L28.1901 24.75L28.0902 5.36996C28.0802 4.53996 28.6201 3.80996 29.6901 3.18996C30.7701 2.56996 32.0601 2.23996 33.5601 2.20996C35.1301 2.20996 36.4501 2.52996 37.5401 3.14996C38.6201 3.77996 39.1601 4.53996 39.1701 5.44996L39.5802 82.34Z" class="pr-icon-iso-duotone-primary-stroke" stroke-linejoin="round"/>
    <path d="M99.9203 43.87C99.9203 44.23 99.8103 44.59 99.6003 44.96C98.8803 46.21 97.3803 46.92 95.1003 47.11L75.3003 48.46L50.4903 50.14L50.4103 34.08L50.3003 14.02L98.2003 41.68C99.3503 42.34 99.9203 43.06 99.9203 43.87Z" class="pr-icon-iso-duotone-primary-stroke" stroke-linejoin="round"/>
    <path d="M50.4903 50.14V70.14L50.3003 34.02V14.02L50.4103 34.08L50.4903 50.14Z" class="pr-icon-iso-duotone-primary-stroke" stroke-linejoin="round"/>
    <path d="M28.2803 41.15L28.1703 41.21L28.0903 25.37V5.37L28.1903 24.74V24.75L28.2803 41.15Z" class="pr-icon-iso-duotone-primary-stroke" stroke-linejoin="round"/>
    <path d="M99.9202 43.88V63.88C99.9202 64.23 99.8102 64.59 99.6002 64.96C98.8802 66.21 97.3802 66.92 95.1002 67.11L50.4902 70.14V50.14L75.3002 48.46L95.1002 47.11C97.3802 46.92 98.8802 46.21 99.6002 44.96C99.8102 44.59 99.9202 44.23 99.9202 43.88Z" class="pr-icon-iso-duotone-primary-stroke" stroke-linejoin="round"/>
    <path d="M99.9199 64V63.88" class="pr-icon-iso-duotone-primary-stroke" stroke-linejoin="round"/>
</svg>