<svg width="48" height="48" viewBox="0 0 115 93" fill="#c8e7ff" xmlns="http://www.w3.org/2000/svg" stroke-width="1px" stroke-linecap="round" stroke-linejoin="round"><path d="M112.61 46.0828C112.56 47.0128 112.1 47.9228 111.25 48.8128C109.86 50.2528 107.79 51.1828 105.04 51.5928C102.3 52.0128 99.6696 51.8128 97.1696 51.0028L86.5296 47.4628L64.7596 40.2028L46.0496 33.9628L32.7196 29.5228L31.9596 29.2728C29.9496 28.5928 28.4896 27.6528 27.5996 26.4328C27.1996 25.8728 26.9396 25.3128 26.8296 24.7428V24.7128C26.6996 24.0428 26.7896 23.3528 27.0796 22.6528L32.5896 9.82281C32.9496 8.83281 33.9396 8.14283 35.5596 7.74283C37.1696 7.33283 38.7396 7.40281 40.2696 7.93281L42.9296 8.83282C43.6596 9.12282 44.2796 9.45282 44.7696 9.84282C45.2596 10.2328 45.5296 10.6928 45.5996 11.2228L47.1097 20.5228L63.3396 25.9928L68.2696 5.87282C68.5696 4.56282 69.7096 3.62282 71.6896 3.05282C73.6696 2.47282 75.6696 2.52282 77.6796 3.19282L80.0696 4.04281C80.9196 4.32281 81.6696 4.72282 82.3196 5.23282C82.9596 5.74282 83.3197 6.30282 83.3797 6.90282L87.5496 34.0728L107.36 40.6628C109.87 41.4728 111.49 42.6828 112.23 44.2628C112.52 44.8828 112.65 45.4928 112.61 46.0828Z" stroke="#229EFF" stroke-linejoin="round"/><path d="M71.8093 67.8128C71.8093 68.6228 71.2993 69.3328 70.2693 69.9228C69.2293 70.5228 68.0094 70.8228 66.6094 70.8228C65.2094 70.8128 63.9793 70.5128 62.9393 69.9128L4.16931 35.9828C3.12931 35.3828 2.60938 34.6728 2.60938 33.8628C2.60938 33.0528 3.11929 32.3528 4.14929 31.7528C5.17929 31.1628 6.39933 30.8628 7.80933 30.8628C9.21933 30.8628 10.4294 31.1628 11.4694 31.7728L26.7793 40.6128L27.7194 41.1528L55.1893 57.0128L70.2394 65.7028C71.2794 66.3028 71.8093 67.0028 71.8093 67.8128Z" stroke="#229EFF" stroke-linejoin="round"/><path d="M112.609 46.0829V66.0629C112.569 67.0029 112.109 67.9129 111.249 68.8129C109.859 70.2529 107.789 71.1829 105.039 71.5929C102.299 72.0129 99.6693 71.8129 97.1693 71.0029L55.1893 57.0129L27.7194 41.1529L26.7793 40.6129L26.8293 24.7429C26.9393 25.3129 27.1994 25.8729 27.5994 26.4329C28.4894 27.6529 29.9494 28.5929 31.9594 29.2729L32.7194 29.5229L46.0493 33.9629L64.7593 40.2029L86.5293 47.4629L97.1693 51.0029C99.6693 51.8129 102.299 52.0129 105.039 51.5929C107.789 51.1829 109.859 50.2529 111.249 48.8129C112.099 47.9229 112.559 47.0129 112.609 46.0829Z" stroke="#229EFF" stroke-linejoin="round"/><path d="M71.8093 67.8128V87.8128C71.8093 88.6228 71.2993 89.3328 70.2693 89.9228C69.2293 90.5228 68.0094 90.8228 66.6094 90.8228C65.2094 90.8128 63.9793 90.5128 62.9393 89.9128L4.16931 55.9828C3.12931 55.3828 2.60938 54.6728 2.60938 53.8628V33.8628C2.60938 34.6728 3.12931 35.3828 4.16931 35.9828L62.9393 69.9128C63.9793 70.5128 65.2094 70.8128 66.6094 70.8228C68.0094 70.8228 69.2293 70.5228 70.2693 69.9228C71.2993 69.3328 71.8093 68.6228 71.8093 67.8128Z" stroke="#229EFF" stroke-linejoin="round"/></svg>