<svg width="48" height="48" viewBox="0 0 115 88" fill="#c8e7ff" xmlns="http://www.w3.org/2000/svg" stroke-width="1px" stroke-linecap="round" stroke-linejoin="round"><path d="M112.09 60.86C112.09 61.13 112.06 61.4 111.99 61.65C111.88 62.02 111.7 62.37 111.44 62.69C111 63.23 110.39 63.72 109.61 64.18C108.82 64.63 107.96 64.98 107.03 65.23C106.1 65.49 105.05 65.61 103.87 65.61L95.4199 65.59L49.6599 65.51C47.4999 65.51 45.5799 65.05 43.9099 64.14C43.2899 63.81 42.79 63.44 42.4 63.05C41.73 62.37 41.39 61.6 41.39 60.74C41.38 59.49 42.21 58.38 43.87 57.42C45.54 56.46 47.45 55.98 49.61 55.99H95.4199V29.54C95.4199 28.29 96.2 27.19 97.76 26.22C99.33 25.26 101.29 24.79 103.65 24.79C105.81 24.79 107.72 25.28 109.4 26.25C111.07 27.21 111.91 28.32 111.92 29.57L112.09 60.86Z" stroke="#229EFF" stroke-miterlimit="10"/><path d="M112.09 60.86V80.86C112.09 81.54 111.88 82.15 111.44 82.69C111 83.23 110.39 83.72 109.61 84.18C108.82 84.63 107.96 84.98 107.03 85.23C106.1 85.49 105.05 85.61 103.87 85.61L49.6599 85.51C47.4999 85.51 45.5799 85.05 43.9099 84.14C42.2299 83.23 41.3899 82.1 41.3899 80.74V60.74C41.3899 61.6 41.7299 62.37 42.3999 63.05C42.7899 63.44 43.2899 63.81 43.9099 64.14C45.5799 65.05 47.4999 65.51 49.6599 65.51L95.4199 65.59L103.87 65.61C105.05 65.61 106.1 65.49 107.03 65.23C107.96 64.98 108.82 64.63 109.61 64.18C110.39 63.72 111 63.23 111.44 62.69C111.7 62.37 111.88 62.02 111.99 61.65C112.06 61.4 112.09 61.13 112.09 60.86Z" stroke="#229EFF" stroke-miterlimit="10"/><path d="M73.0599 54V55.99H49.6099C47.4499 55.98 45.5399 56.46 43.8699 57.42C42.2099 58.38 41.3799 59.49 41.3899 60.74V63.05L10.6499 62.99C8.4899 62.99 6.5699 62.53 4.8999 61.62C3.2199 60.71 2.37988 59.57 2.37988 58.21V38.21C2.37988 39.57 3.2199 40.71 4.8999 41.62C6.5699 42.53 8.4899 42.99 10.6499 42.99L56.4099 43.07L64.8599 43.09C66.0399 43.09 67.0899 42.97 68.0199 42.71C68.9599 42.46 69.8099 42.11 70.5999 41.65C71.3799 41.2 71.9899 40.71 72.4299 40.17C72.6899 39.85 72.8699 39.51 72.9799 39.15C73.0499 38.89 73.0799 38.62 73.0799 38.34L73.0599 54Z" stroke="#229EFF" stroke-miterlimit="10"/><path d="M73.08 38.3399C73.08 38.6199 73.0499 38.8899 72.9799 39.1499C72.8699 39.5099 72.69 39.8499 72.43 40.1699C71.99 40.7099 71.3799 41.1999 70.5999 41.6499C69.8099 42.1099 68.96 42.4599 68.02 42.7099C67.09 42.9699 66.04 43.0899 64.86 43.0899L56.4099 43.0699L10.65 42.9899C8.48999 42.9899 6.56999 42.5299 4.89999 41.6199C3.21999 40.7099 2.37997 39.5699 2.37997 38.2099C2.36997 36.9699 3.19995 35.8599 4.85995 34.8999C6.52995 33.9399 8.43994 33.4599 10.5999 33.4699H56.4099V7.00993C56.4099 5.76993 57.19 4.65993 58.75 3.69993C60.32 2.73993 62.28 2.25993 64.64 2.26993C66.8 2.26993 68.72 2.75993 70.39 3.71993C72.06 4.68993 72.9099 5.79993 72.9099 7.03993L73.08 38.3399Z" stroke="#229EFF" stroke-miterlimit="10"/></svg>