<svg viewBox="0 0 103 81" class="pr-icon-iso-duotone-secondary" xmlns="http://www.w3.org/2000/svg" height="24" width="24" stroke-width="1px" stroke-linecap="round" stroke-linejoin="round">
    <path d="M100.168 34.2688V53.8088C100.198 54.2488 100.158 54.6888 100.038 55.1388C99.6975 56.3588 98.7677 57.4188 97.2377 58.3088L79.8176 68.3588C71.2276 73.3188 60.7176 76.5288 48.3176 77.9888C35.9076 79.4388 24.1475 78.5588 13.0475 75.3288C12.5475 75.1888 12.0876 75.0288 11.6576 74.8488C11.2276 74.6688 10.7876 74.4588 10.3576 74.2088C9.9276 73.9588 9.55749 73.7088 9.24749 73.4588C8.93749 73.2088 8.65765 72.9388 8.40765 72.6588C4.30765 67.9488 2.39766 63.0388 2.66766 57.9188L2.64764 39.3788C2.73764 42.5388 3.66769 45.5988 5.44769 48.5988C6.25769 49.9688 7.24765 51.3188 8.40765 52.6588C8.65765 52.9388 8.93749 53.2088 9.24749 53.4588C9.55749 53.7088 9.9276 53.9588 10.3576 54.2088C10.7876 54.4588 11.2276 54.6688 11.6576 54.8488C12.0876 55.0288 12.5475 55.1888 13.0475 55.3288C22.1975 57.9888 31.7976 59.0588 41.8376 58.5388C43.9776 58.4288 46.1376 58.2388 48.3176 57.9888C49.6276 57.8388 50.9077 57.6588 52.1777 57.4688C52.5777 57.4088 52.9676 57.3488 53.3576 57.2788C57.2576 56.6388 60.9577 55.8188 64.4377 54.7988C70.1077 53.1488 75.2376 51.0088 79.8176 48.3588L91.3876 41.6888L97.2377 38.3088C98.7677 37.4188 99.6975 36.3588 100.038 35.1388C100.118 34.8388 100.168 34.5588 100.168 34.2688Z" class="pr-icon-iso-duotone-primary-stroke" stroke-linejoin="round"/>
    <path d="M99.2275 31.5888L85.2673 13.9588C84.7173 13.2788 83.9975 12.6887 83.1375 12.1887C82.2675 11.6887 81.2574 11.2788 80.0774 10.9588L49.5374 2.89877C47.5674 2.39877 45.5175 2.23874 43.3975 2.43874C41.2675 2.62874 39.4375 3.16873 37.9075 4.04873L20.4875 14.1087C11.8975 19.0687 6.33738 25.1287 3.81738 32.2987C3.08738 34.3787 2.68746 36.4287 2.64746 38.4387V39.3787C2.73746 42.5387 3.66751 45.5988 5.44751 48.5988C6.25751 49.9688 7.24747 51.3188 8.40747 52.6588C8.65747 52.9388 8.93731 53.2088 9.24731 53.4588C9.55731 53.7088 9.92742 53.9588 10.3574 54.2088C10.7874 54.4588 11.2275 54.6688 11.6575 54.8488C12.0875 55.0288 12.5474 55.1888 13.0474 55.3288C22.1974 57.9888 31.7974 59.0587 41.8374 58.5387C43.9774 58.4287 46.1374 58.2387 48.3174 57.9887C49.6274 57.8387 50.9075 57.6588 52.1775 57.4688C52.5775 57.4088 52.9674 57.3488 53.3574 57.2788C57.2574 56.6388 60.9575 55.8187 64.4375 54.7987C70.1075 53.1487 75.2374 51.0087 79.8174 48.3587L91.3875 41.6887L97.2375 38.3087C98.7675 37.4187 99.6974 36.3588 100.037 35.1388C100.117 34.8388 100.167 34.5588 100.167 34.2688V34.1687C100.187 33.2787 99.8675 32.4288 99.2275 31.5888ZM68.4475 37.7987C68.1675 38.0987 67.7174 38.2487 67.1074 38.2487L58.2874 37.6287L52.4075 37.2088L50.1274 39.7287L46.0774 44.1988L45.6975 44.6187C45.3975 44.9387 44.9173 45.0688 44.2673 45.0088C43.6273 44.9588 43.2675 44.7388 43.2075 44.3488L42.7175 42.2588L41.3174 36.3388L39.6174 36.1988L27.1675 35.1887C26.4875 35.1587 26.1073 34.9488 26.0073 34.5788C25.9173 34.1988 26.1475 33.9287 26.6975 33.7487L39.6174 29.8288L38.3975 23.7887L37.9075 21.3888C37.9075 21.0388 38.1775 20.7888 38.7275 20.6488C39.2875 20.5088 39.7775 20.5587 40.2075 20.8087L43.0874 22.4787L50.1274 26.5387L56.3374 24.6887L63.1375 22.6687C63.6975 22.4887 64.2175 22.5388 64.7075 22.8288C65.2075 23.1088 65.2973 23.4187 64.9973 23.7387L62.6575 26.3587L58.2874 31.2487L68.2075 36.9688C68.6375 37.2188 68.7175 37.4987 68.4475 37.7987Z" class="pr-icon-iso-duotone-primary-stroke" stroke-linejoin="round"/>
    <path d="M68.4473 37.7988C68.1673 38.0988 67.7172 38.2488 67.1072 38.2488L58.2871 37.6288V31.2488L68.2073 36.9688C68.6373 37.2188 68.7173 37.4988 68.4473 37.7988Z" class="pr-icon-iso-duotone-primary-stroke" stroke-linejoin="round"/>
    <path d="M64.9968 23.7388L62.657 26.3588L58.2869 31.2488V37.6288L52.407 37.2088L50.127 39.7288V26.5388L56.3369 24.6888L63.137 22.6688C63.697 22.4888 64.217 22.5388 64.707 22.8288C65.207 23.1088 65.2968 23.4188 64.9968 23.7388Z" class="pr-icon-iso-duotone-primary-stroke" stroke-linejoin="round"/>
    <path d="M50.1272 26.5386V39.7286L46.0771 44.1986L42.7173 42.2586L41.3171 36.3387L39.6172 36.1986V29.8287L38.3972 23.7886L37.9072 21.3887C37.9072 21.0387 38.1773 20.7887 38.7273 20.6487C39.2873 20.5087 39.7773 20.5586 40.2073 20.8086L43.0872 22.4786L50.1272 26.5386Z" class="pr-icon-iso-duotone-primary-stroke" stroke-linejoin="round"/>
    <path d="M39.6174 29.8287V36.1987L27.1674 35.1887C26.4874 35.1587 26.1073 34.9487 26.0073 34.5787C25.9173 34.1987 26.1474 33.9287 26.6974 33.7487L39.6174 29.8287Z" class="pr-icon-iso-duotone-primary-stroke" stroke-linejoin="round"/>
    <path d="M100.168 54.0287V53.8087" class="pr-icon-iso-duotone-primary-stroke" stroke-linejoin="round"/>
    <path d="M2.66797 59.6287V57.9187" class="pr-icon-iso-duotone-primary-stroke" stroke-linejoin="round"/>
    <path d="M2.64746 38.4388V37.7388" class="pr-icon-iso-duotone-primary-stroke" stroke-linejoin="round"/>
</svg>