<svg width="48" height="48" viewBox="0 0 80 91" fill="#c8e7ff" xmlns="http://www.w3.org/2000/svg" stroke-width="1px" stroke-linecap="round" stroke-linejoin="round"><path d="M77.6392 24.45C77.6392 23.65 77.3691 22.86 76.8291 22.07C76.2891 21.29 75.5091 20.61 74.4991 20.03L47.3391 4.35004C45.2591 3.14004 42.7392 2.54003 39.7792 2.53003C36.8292 2.53003 34.3191 3.12001 32.2491 4.32001L5.24915 19.9C4.24915 20.48 3.4791 21.14 2.9491 21.89C2.4191 22.63 2.15918 23.4 2.15918 24.2L2.25916 43.34L2.36914 62.66C2.37914 63.53 2.65914 64.35 3.23914 65.11C3.80914 65.87 4.55916 66.53 5.50916 67.07C6.45916 67.62 7.58918 68.06 8.90918 68.39C10.2392 68.72 11.6492 68.88 13.1592 68.89L23.0592 68.91L59.5791 68.97H67.1292C68.6392 68.99 70.0192 68.83 71.2792 68.5C72.5292 68.18 73.6291 67.74 74.5691 67.2C75.5091 66.66 76.2791 66.01 76.8691 65.27C77.3091 64.73 77.5791 64.15 77.6991 63.54C77.7391 63.32 77.7592 63.09 77.7592 62.85L77.6392 24.45ZM34.1991 16.31C35.7691 15.4 37.6491 14.95 39.8491 14.95C42.0491 14.96 43.9392 15.42 45.5192 16.33C47.0992 17.24 47.8892 18.33 47.8992 19.6C47.8992 20.87 47.1192 21.96 45.5592 22.86C45.3192 23 45.0692 23.13 44.8092 23.25H44.7992C43.3892 23.9 41.7592 24.22 39.8992 24.21C38.0092 24.21 36.3392 23.87 34.9092 23.19C34.6692 23.08 34.4491 22.97 34.2291 22.84C32.6591 21.93 31.8591 20.84 31.8591 19.57C31.8491 18.3 32.6291 17.21 34.1991 16.31ZM57.2491 55.89C56.1791 56.51 54.9691 56.97 53.6191 57.28C52.2691 57.58 50.8992 57.73 49.5192 57.73H44.9192L41.1392 57.71L28.3892 57.69C27.8692 57.69 27.3792 57.66 26.9292 57.59C26.0492 57.46 25.2691 57.2 24.6091 56.81C23.5991 56.23 23.0891 55.5 23.0891 54.63L23.0192 42.43C23.0192 41.63 23.2792 40.84 23.8092 40.06C24.3392 39.28 25.1391 38.59 26.1991 37.97C28.3291 36.74 30.9092 36.13 33.9292 36.13C34.1292 36.13 34.3192 36.13 34.5092 36.15C37.2792 36.22 39.6692 36.84 41.6792 38C42.8092 38.65 43.5992 39.47 44.0492 40.45C44.3492 41.12 44.5791 42.06 44.7391 43.27C44.8191 43.82 44.8792 44.43 44.9192 45.09C48.1892 45.09 50.7591 45.23 52.6091 45.51C54.4691 45.78 55.9991 46.27 57.1991 46.96C59.3391 48.2 60.4192 49.69 60.4292 51.43C60.4392 53.17 59.3791 54.66 57.2491 55.89Z" stroke="#229EFF" stroke-linejoin="round"/><path d="M60.429 51.4301C60.439 53.1701 59.3789 54.6601 57.2489 55.8901C56.1789 56.5101 54.9689 56.9701 53.6189 57.2801C52.2689 57.5801 50.8989 57.7301 49.5189 57.7301H44.9189V45.0901C48.1889 45.0901 50.7589 45.2301 52.6089 45.5101C54.4689 45.7801 55.9989 46.2701 57.1989 46.9601C59.3389 48.2001 60.419 49.6901 60.429 51.4301Z" stroke="#229EFF" stroke-linejoin="round"/><path d="M44.9196 45.09V57.72H41.1395C39.0995 56.66 36.6996 56.14 33.9296 56.13C31.2496 56.13 28.9096 56.61 26.9296 57.59C26.0496 57.46 25.2695 57.2 24.6095 56.81C23.5995 56.23 23.0895 55.5 23.0895 54.63L23.0195 42.43C23.0195 41.63 23.2796 40.84 23.8096 40.06C24.3396 39.28 25.1395 38.59 26.1995 37.97C28.3295 36.74 30.9096 36.13 33.9296 36.13C34.1296 36.13 34.3195 36.13 34.5095 36.15C37.2795 36.22 39.6696 36.84 41.6796 38C42.8096 38.65 43.5996 39.47 44.0496 40.45C44.3496 41.12 44.5795 42.06 44.7395 43.27C44.8195 43.82 44.8796 44.43 44.9196 45.09Z" stroke="#229EFF" stroke-linejoin="round"/><path d="M47.8995 19.6C47.8995 20.87 47.1195 21.96 45.5595 22.86C45.3195 23 45.0695 23.1299 44.8095 23.2499H44.7995C43.3895 23.8999 41.7595 24.22 39.8995 24.21C38.0095 24.21 36.3395 23.8699 34.9095 23.1899C34.6695 23.0799 34.4495 22.97 34.2295 22.84C32.6595 21.93 31.8595 20.8399 31.8595 19.5699C31.8495 18.2999 32.6294 17.2099 34.1994 16.3099C35.7694 15.3999 37.6495 14.95 39.8495 14.95C42.0495 14.96 43.9395 15.42 45.5195 16.33C47.0995 17.24 47.8895 18.33 47.8995 19.6Z" stroke="#229EFF" stroke-linejoin="round"/><path d="M77.7592 82.85C77.7592 83.72 77.4691 84.53 76.8691 85.27C76.2791 86.01 75.5091 86.66 74.5691 87.2C73.6291 87.74 72.5292 88.1799 71.2792 88.4999C70.0192 88.8299 68.6392 88.99 67.1292 88.98L13.1592 88.89C11.6492 88.88 10.2392 88.72 8.90918 88.39C7.58918 88.06 6.45916 87.6199 5.50916 87.0699C4.55916 86.5299 3.80914 85.87 3.23914 85.11C2.65914 84.35 2.37914 83.53 2.36914 82.66L2.15918 44.2V24.2L2.25916 43.34L2.36914 62.66C2.37914 63.53 2.65914 64.35 3.23914 65.11C3.80914 65.87 4.55916 66.5299 5.50916 67.0699C6.45916 67.6199 7.58918 68.06 8.90918 68.39C10.2392 68.72 11.6492 68.88 13.1592 68.89L23.0592 68.91L59.5791 68.97H67.1292C68.6392 68.99 70.0192 68.8299 71.2792 68.4999C72.5292 68.1799 73.6291 67.74 74.5691 67.2C75.5091 66.66 76.2791 66.01 76.8691 65.27C77.3091 64.73 77.5791 64.15 77.6991 63.54L77.7592 82.85Z" stroke="#229EFF" stroke-linejoin="round"/></svg>