<svg width="48" height="48" viewBox="0 0 119 91" class="pr-icon-iso-duotone-secondary"
     xmlns="http://www.w3.org/2000/svg" stroke-width="1px" stroke-linecap="round" stroke-linejoin="round">
    <path d="M113.38 36.4298L109.17 33.9999L107.33 32.9298L98.1699 27.6398L95.8798 26.32L106.32 20.2899C108.22 19.1999 109.17 17.8599 109.17 16.2899V16.2699C109.17 14.6899 108.2 13.3399 106.27 12.2299L99.2699 8.18983C97.3499 7.07983 95.0199 6.51991 92.2799 6.51991C89.5499 6.50991 87.2198 7.0598 85.3098 8.1598L74.8698 14.1898L57.3698 4.07997C55.4398 2.96997 53.1098 2.4098 50.3798 2.4098C47.6398 2.3998 45.3199 2.94995 43.4099 4.05995L5.13985 26.1498C3.21985 27.2598 2.26986 28.5998 2.27986 30.1798C2.28986 31.7598 3.24977 33.0999 5.17977 34.2099L15.4998 40.1698L33.0098 50.2799L39.9998 54.32L54.1699 62.4999L61.1998 66.56C63.1198 67.67 65.4498 68.2299 68.1898 68.2299C68.8298 68.2299 69.4499 68.1998 70.0399 68.1398C71.9899 67.9498 73.6899 67.43 75.1599 66.58L76.9698 65.5299L82.1898 62.5199L103.07 50.4699L113.43 44.4899C115.34 43.3799 116.29 42.0399 116.29 40.4599C116.28 38.8799 115.31 37.5398 113.38 36.4298ZM50.5199 35.1498C49.1999 35.1498 48.0398 34.8499 47.0598 34.2899L43.5598 32.2699L43.5199 32.2899L40.0798 34.2799C39.0998 34.8499 37.9298 35.1298 36.5998 35.1298H36.5598C35.2398 35.1198 34.0798 34.8299 33.0998 34.2699C32.1098 33.6899 31.6098 33.0199 31.6098 32.2499C31.5998 31.4799 32.0898 30.7999 33.0798 30.2399L36.5598 28.2299L36.3698 28.1198L33.0598 26.2099C32.0698 25.6299 31.5698 24.9598 31.5598 24.1898C31.5598 23.4198 32.0499 22.7398 33.0399 22.1798C34.0199 21.6098 35.1799 21.32 36.5199 21.33C37.8599 21.33 39.0199 21.6198 40.0199 22.1898L43.3398 24.1L43.5199 24.2099L45.2298 23.2199L46.9998 22.1998C47.9798 21.6298 49.1398 21.35 50.4798 21.35C51.8198 21.35 52.9798 21.6399 53.9798 22.2099C54.4298 22.4699 54.7799 22.7599 55.0199 23.0599H55.0299C55.3199 23.4199 55.4698 23.8099 55.4698 24.2299C55.4698 24.9999 54.9798 25.6699 53.9998 26.2399L50.5199 28.2499L54.0199 30.2699C55.0099 30.8499 55.5098 31.5199 55.5098 32.2899C55.5198 33.0599 55.0299 33.7299 54.0399 34.2999C53.0599 34.8699 51.8898 35.1598 50.5598 35.1498H50.5199ZM68.9598 49.9498C68.2098 50.3798 67.3298 50.6 66.3498 50.6C65.3598 50.59 64.4798 50.3698 63.7198 49.9398L55.2598 45.0499L54.9698 44.8798C54.2098 44.4498 53.8298 43.9398 53.8298 43.3698C53.8298 43.0198 53.9698 42.6898 54.2598 42.3898C54.4398 42.1998 54.6698 42.03 54.9598 41.86C55.7098 41.43 56.5798 41.2099 57.5698 41.2099C58.5598 41.2099 59.4298 41.4298 60.1898 41.8698L68.9398 46.9198C69.6998 47.3598 70.0798 47.8698 70.0898 48.4398C70.0898 49.0098 69.7098 49.5098 68.9598 49.9498ZM86.3999 47.9599C85.6399 48.3999 84.7699 48.61 83.7799 48.61C82.7899 48.61 81.9199 48.3898 81.1599 47.9498L65.4099 38.86C64.6499 38.42 64.2699 37.92 64.2699 37.34C64.2599 36.77 64.6398 36.27 65.3898 35.84C66.1498 35.4 67.0198 35.1798 68.0098 35.1798C68.9998 35.1898 69.8698 35.41 70.6298 35.84L78.3198 40.2899L85.3198 44.33L86.3798 44.9398C87.1398 45.3798 87.5199 45.8798 87.5199 46.4498C87.5299 47.0198 87.1499 47.5299 86.3999 47.9599ZM81.9199 26.2899L74.9199 22.2499L92.3098 12.2099L99.3098 16.2499L92.3098 20.2899L81.9199 26.2899Z" class="pr-icon-iso-duotone-primary-stroke" stroke-linejoin="round"/>
    <path d="M70.0898 48.4399C70.0898 49.0099 69.7098 49.51 68.9598 49.95C68.2098 50.38 67.3299 50.6001 66.3499 50.6001C65.3599 50.5901 64.4798 50.3699 63.7198 49.9399L55.2599 45.05L54.9698 44.8799C54.2098 44.4499 53.8298 43.9399 53.8298 43.3699C53.8298 43.0199 53.9699 42.6899 54.2599 42.3899C54.4399 42.1999 54.6698 42.0301 54.9598 41.8601C55.7098 41.4301 56.5798 41.21 57.5698 41.21C58.5598 41.21 59.4298 41.4299 60.1898 41.8699L68.9398 46.9199C69.6998 47.3599 70.0798 47.8699 70.0898 48.4399Z" class="pr-icon-iso-duotone-primary-stroke" stroke-linejoin="round"/>
    <path d="M87.5197 46.45C87.5297 47.02 87.1497 47.53 86.3997 47.96C85.6397 48.4 84.7697 48.6101 83.7797 48.6101C82.7897 48.6101 81.9197 48.39 81.1597 47.95L65.4097 38.8601C64.6497 38.4201 64.2697 37.9201 64.2697 37.3401C64.2597 36.7701 64.6397 36.2701 65.3897 35.8401C66.1497 35.4001 67.0197 35.1799 68.0097 35.1799C68.9997 35.1899 69.8697 35.4101 70.6297 35.8401L78.3197 40.29L85.3197 44.3301L86.3797 44.9399C87.1397 45.3799 87.5197 45.88 87.5197 46.45Z" class="pr-icon-iso-duotone-primary-stroke" stroke-linejoin="round"/>
    <path d="M92.3098 12.21V20.29L81.9199 26.29L74.9199 22.25L92.3098 12.21Z" class="pr-icon-iso-duotone-primary-stroke" stroke-linejoin="round"/>
    <path d="M99.3098 16.25L92.3098 20.29V12.21L99.3098 16.25Z" class="pr-icon-iso-duotone-primary-stroke" stroke-linejoin="round"/>
    <path d="M36.56 28.23V35.1299C35.24 35.1199 34.08 34.83 33.1 34.27C32.11 33.69 31.61 33.02 31.61 32.25C31.6 31.48 32.09 30.8 33.08 30.24L36.56 28.23Z" class="pr-icon-iso-duotone-primary-stroke" stroke-linejoin="round"/>
    <path d="M55.51 32.29C55.52 33.06 55.03 33.73 54.04 34.3C53.06 34.87 51.8899 35.1599 50.5599 35.1499H50.52V28.25L54.02 30.27C55.01 30.85 55.51 31.52 55.51 32.29Z" class="pr-icon-iso-duotone-primary-stroke" stroke-linejoin="round"/>
    <path d="M55.47 24.23C55.47 25 54.98 25.67 54 26.24L50.52 28.25V35.1499C49.2 35.1499 48.0399 34.85 47.0599 34.29L43.5599 32.27L43.52 32.29V24.21L45.23 23.22L47 22.2C47.98 21.63 49.14 21.3501 50.48 21.3501C51.82 21.3501 52.98 21.64 53.98 22.21C54.43 22.47 54.78 22.7601 55.02 23.0601H55.03C55.32 23.4201 55.47 23.81 55.47 24.23Z" class="pr-icon-iso-duotone-primary-stroke" stroke-linejoin="round"/>
    <path d="M43.5199 24.21V32.29L40.0798 34.28C39.0998 34.85 37.9299 35.1299 36.5999 35.1299H36.5598V28.23L36.3699 28.1199L33.0598 26.21C32.0698 25.63 31.5698 24.9599 31.5598 24.1899C31.5598 23.4199 32.0499 22.7399 33.0399 22.1799C34.0199 21.6099 35.1799 21.3201 36.5199 21.3301C37.8599 21.3301 39.0199 21.6199 40.0199 22.1899L43.3398 24.1001L43.5199 24.21Z" class="pr-icon-iso-duotone-primary-stroke" stroke-linejoin="round"/>
    <path d="M116.29 40.46V60.46C116.29 62.04 115.34 63.38 113.43 64.49L75.1598 86.5801C73.2398 87.6901 70.9197 88.24 68.1897 88.23C65.4497 88.23 63.1197 87.6701 61.1997 86.5601L5.17969 54.21C3.24969 53.1 2.28979 51.7599 2.27979 50.1799V30.1799C2.28979 31.7599 3.24969 33.1 5.17969 34.21L15.4998 40.1699L33.0098 50.28L39.9998 54.3201L54.1698 62.5L61.1997 66.5601C63.1197 67.6701 65.4497 68.23 68.1897 68.23C68.8297 68.23 69.4498 68.1999 70.0398 68.1399C71.9898 67.9499 73.6898 67.4301 75.1598 66.5801L76.9697 65.53L82.1897 62.52L103.07 50.47L113.43 44.49C115.34 43.38 116.29 42.04 116.29 40.46Z" class="pr-icon-iso-duotone-primary-stroke" stroke-linejoin="round"/>
    <path d="M109.17 16.29V34L107.33 32.9299L98.1699 27.6399L95.8799 26.3201L106.32 20.29C108.22 19.2 109.17 17.86 109.17 16.29Z" class="pr-icon-iso-duotone-primary-stroke" stroke-linejoin="round"/>
</svg>