<svg width="48" height="48" viewBox="0 0 115 88" class="pr-icon-iso-duotone-secondary"
     xmlns="http://www.w3.org/2000/svg" stroke-width="1px" stroke-linecap="round" stroke-linejoin="round">
    <path d="M82.6498 24.15V24.28L82.7598 24.2101L82.6498 24.15ZM2.16986 73.3301V72.62C2.08986 72.83 2.08986 73.0701 2.16986 73.3301Z" class="pr-icon-iso-duotone-primary-stroke" stroke-linejoin="round"/>
    <path d="M108.83 19.27L82.5997 4.11998C80.1897 2.72998 77.2798 2.03001 73.8698 2.03001C70.4498 2.02001 67.5497 2.71007 65.1597 4.09007L39.7397 18.76C38.0697 19.72 36.9497 20.7901 36.3797 21.9701C36.0197 22.7001 35.8697 23.44 35.9397 24.18V24.26C35.9897 24.69 36.0997 25.12 36.2897 25.55L41.7197 37.62L42.6897 39.78L36.5497 41.67L35.9397 41.8501L29.6297 43.79L19.8997 38.17C18.8797 37.58 17.6797 37.4701 16.2997 37.8501C15.1097 38.1701 14.5397 38.6701 14.6097 39.3501C14.6197 39.4501 14.6397 39.56 14.6797 39.67L17.0097 47.54L14.6097 48.26L3.84973 51.48C2.46973 51.85 1.90974 52.4701 2.16974 53.3301C2.42974 54.1901 3.31973 54.68 4.84973 54.81L14.6097 55.61L19.0197 55.9701L19.5097 57.98L21.0197 64.15C21.2497 65.04 22.0997 65.5501 23.5897 65.7001C25.0797 65.8501 26.1497 65.53 26.7997 64.73L28.3197 63.04L33.6297 57.13L41.8597 57.9501L47.2597 58.48C48.7097 58.65 49.7597 58.33 50.4097 57.54C50.6597 57.23 50.7897 56.94 50.7897 56.66V56.5901C50.7497 56.1801 50.4397 55.8001 49.8497 55.4601L47.0597 53.8501L40.1297 49.8401L47.0597 42.31L64.1397 44.87L71.7097 46C73.8197 46.3 75.8897 46.2801 77.9197 45.9501C79.1297 45.7501 80.2798 45.44 81.3698 45.02C82.0998 44.73 82.7997 44.4 83.4697 44.01L100.25 34.3201L108.89 29.3301C111.27 27.9601 112.45 26.2901 112.45 24.3301V24.31C112.44 22.33 111.24 20.65 108.83 19.27ZM82.7597 24.2101L82.6497 24.28L60.7597 36.92L53.7797 35.9L52.0197 31.87L67.0797 23.17L82.6497 14.18L91.3897 19.23L82.7597 24.2101Z" class="pr-icon-iso-duotone-primary-stroke" stroke-linejoin="round"/>
    <path d="M91.3896 19.23L82.7596 24.2101L82.6497 24.15V14.1801L91.3896 19.23Z" class="pr-icon-iso-duotone-primary-stroke" stroke-linejoin="round"/>
    <path d="M82.6498 14.1801V24.28L60.7598 36.92L53.7798 35.9L52.0198 31.87L67.0798 23.17L82.6498 14.1801Z" class="pr-icon-iso-duotone-primary-stroke" stroke-linejoin="round"/>
    <path d="M112.45 24.3301V44.3101C112.45 46.2801 111.28 47.9501 108.89 49.3301L83.4696 64.01C81.7996 64.97 79.9496 65.6201 77.9196 65.9501C75.8896 66.2801 73.8196 66.3 71.7096 66L50.7896 62.87V56.5901C50.7496 56.1801 50.4396 55.8001 49.8496 55.4601L47.0596 53.8501V42.3101L64.1396 44.87L71.7096 46C73.8196 46.3 75.8896 46.2801 77.9196 45.9501C79.1296 45.7501 80.2796 45.44 81.3696 45.02C82.0996 44.73 82.7996 44.4 83.4696 44.01L100.25 34.3201L108.89 29.3301C111.27 27.9601 112.45 26.2901 112.45 24.3301Z" class="pr-icon-iso-duotone-primary-stroke" stroke-linejoin="round"/>
    <path d="M42.6897 39.78L36.5497 41.67L35.9397 41.8501V24.26C35.9897 24.69 36.0997 25.12 36.2897 25.55L41.7197 37.62L42.6897 39.78Z" class="pr-icon-iso-duotone-primary-stroke" stroke-linejoin="round"/>
    <path d="M50.7897 62.87V76.5C50.8297 76.82 50.7097 77.17 50.4097 77.54C49.7597 78.33 48.7096 78.65 47.2596 78.48L33.6296 77.13V57.13L41.8597 57.9501L47.2596 58.48C48.7096 58.65 49.7597 58.33 50.4097 57.54C50.6597 57.23 50.7897 56.94 50.7897 56.66V62.87Z" class="pr-icon-iso-duotone-primary-stroke" stroke-linejoin="round"/>
    <path d="M50.7798 76.61V76.5" class="pr-icon-iso-duotone-primary-stroke" stroke-linejoin="round"/>
    <path d="M33.6298 57.13V77.13L26.7998 84.73C26.1498 85.53 25.0798 85.8501 23.5898 85.7001C22.0998 85.5501 21.2498 85.04 21.0198 84.15L19.0198 75.9701V55.9701L19.5098 57.98L21.0198 64.15C21.2498 65.04 22.0998 65.5501 23.5898 65.7001C25.0798 65.8501 26.1498 65.53 26.7998 64.73L28.3198 63.04L33.6298 57.13Z" class="pr-icon-iso-duotone-primary-stroke" stroke-linejoin="round"/>
    <path d="M19.0197 55.9701V75.9701L4.84967 74.8101C3.31967 74.6801 2.42968 74.1901 2.16968 73.3301V53.3301C2.42968 54.1901 3.31967 54.6801 4.84967 54.8101L14.6097 55.61L19.0197 55.9701Z" class="pr-icon-iso-duotone-primary-stroke" stroke-linejoin="round"/>
    <path d="M17.0098 47.54L14.6099 48.26V39.3501C14.6199 39.4501 14.6399 39.56 14.6799 39.67L17.0098 47.54Z" class="pr-icon-iso-duotone-primary-stroke" stroke-linejoin="round"/>
    <path d="M14.6099 39.3501V39.23" class="pr-icon-iso-duotone-primary-stroke" stroke-linejoin="round"/>
    <path d="M47.0596 42.3101V53.8501L40.1296 49.8401L47.0596 42.3101Z" class="pr-icon-iso-duotone-primary-stroke" stroke-linejoin="round"/>
</svg>