<svg width="48" height="48" viewBox="0 0 114 88" class="pr-icon-iso-duotone-secondary"
     xmlns="http://www.w3.org/2000/svg" stroke-width="1px" stroke-linecap="round" stroke-linejoin="round">
    <path d="M107.911 22.5205C105.181 18.6305 101.181 15.1205 95.8413 12.0405C90.4513 8.93055 84.3713 6.62055 77.6813 5.07055C70.9113 3.52055 64.0713 2.72055 57.1113 2.71055C50.1613 2.70055 43.3213 3.47055 36.6513 4.99055C29.9013 6.52055 23.8813 8.83055 18.5713 11.9005C13.2113 14.9905 9.22131 18.4605 6.61131 22.3405C3.93131 26.2105 2.60132 30.1605 2.62132 34.1705C2.64132 37.5305 3.6013 40.8405 5.4813 44.1205C5.8513 44.7705 6.26133 45.4105 6.70133 46.0505C8.06133 48.0005 9.76132 49.8605 11.8113 51.6205C13.8113 53.3405 16.1413 54.9805 18.8113 56.5105C24.1613 59.6005 30.2013 61.9305 36.9313 63.5005C40.2713 64.2605 43.6413 64.8405 47.0413 65.2305C47.3413 65.2605 47.6413 65.2905 47.9413 65.3205C50.0713 65.5505 52.2113 65.7005 54.3613 65.7705C55.3913 65.8105 56.4213 65.8305 57.4513 65.8305C58.9813 65.8305 60.5113 65.8005 62.0313 65.7205C64.3213 65.6205 66.5913 65.4305 68.8513 65.1505C69.1213 65.1305 69.3913 65.0905 69.6613 65.0405C71.2713 64.8405 72.8713 64.5905 74.4713 64.2805C75.6513 64.0705 76.8313 63.8205 78.0013 63.5505C78.3713 63.4705 78.7313 63.3805 79.0913 63.2905H79.1013C79.6413 63.1705 80.1713 63.0305 80.7113 62.8905C82.3713 62.4505 83.9913 61.9605 85.5713 61.4105C89.3213 60.1205 92.8213 58.5305 96.0813 56.6505C98.6413 55.1705 100.901 53.5905 102.851 51.9205C104.941 50.1305 106.671 48.2305 108.041 46.2105C108.431 45.6305 108.801 45.0605 109.131 44.4805C111.021 41.2005 111.951 37.8505 111.951 34.4605V34.3705C111.931 30.3605 110.561 26.4105 107.911 22.5205ZM102.861 36.9905C102.451 39.4505 101.401 41.8705 99.7613 44.2705C99.7313 44.3205 99.6913 44.3705 99.6513 44.4205C97.4713 47.5905 94.1613 50.4605 89.7613 53.0005C88.6513 53.6405 87.5113 54.2405 86.3313 54.8005C84.5413 55.6505 82.6613 56.4105 80.7113 57.0805C80.4713 57.1505 80.2313 57.2305 79.9913 57.3105C78.2613 57.8805 76.4713 58.3705 74.6113 58.7905C74.5613 58.8005 74.5213 58.8105 74.4713 58.8205C74.2813 58.8605 74.0813 58.9105 73.8913 58.9405C72.2213 59.3105 70.5413 59.6205 68.8513 59.8605C66.6013 60.2005 64.3213 60.4405 62.0313 60.5605C60.5213 60.6505 59.0013 60.6905 57.4713 60.6805C56.4313 60.6805 55.3913 60.6605 54.3613 60.6105C52.9713 60.5505 51.5813 60.4605 50.2013 60.3205C49.1413 60.2205 48.0913 60.1005 47.0413 59.9505C44.7613 59.6405 42.5013 59.2305 40.2613 58.7105C38.8513 58.3805 37.4813 58.0105 36.1413 57.6005C35.1313 57.2905 34.1413 56.9605 33.1713 56.6005C31.6813 56.0705 30.2413 55.4805 28.8513 54.8205C28.2613 54.5605 27.6913 54.2805 27.1213 53.9805C26.4313 53.6305 25.7513 53.2605 25.0913 52.8805C20.6313 50.3105 17.3013 47.3705 15.0113 44.1305C15.0013 44.1305 15.0013 44.1205 15.0013 44.1205C13.2813 41.6405 12.2313 39.1305 11.8213 36.5905C11.6913 35.8005 11.6213 35.0005 11.6213 34.2105C11.5613 30.8405 12.6613 27.5205 14.8913 24.3105C17.0713 21.0405 20.4213 18.1205 24.8913 15.5405C29.3513 12.9705 34.4013 11.0305 40.0413 9.79055C45.6313 8.49055 51.3813 7.85055 57.2213 7.89055C63.0113 7.90055 68.7313 8.53055 74.3813 9.83055C79.9913 11.1605 85.0613 13.1105 89.5213 15.6805C94.0113 18.2805 97.3513 21.1805 99.6513 24.4205C101.911 27.6805 103.051 31.0105 103.061 34.3605C103.081 35.2405 103.011 36.1205 102.861 36.9905Z" class="pr-icon-iso-duotone-primary-stroke" stroke-linejoin="round"/>
    <path d="M54.3613 51.5503V60.6103C52.9713 60.5503 51.5813 60.4603 50.2013 60.3203C49.1413 60.2203 48.0913 60.1003 47.0413 59.9503V47.3203L50.4913 49.3103L54.2513 51.4903L54.3613 51.5503Z" class="pr-icon-iso-duotone-primary-stroke" stroke-linejoin="round"/>
    <path d="M33.1713 39.3103V56.6003C31.6813 56.0703 30.2413 55.4803 28.8513 54.8203C28.2613 54.5603 27.6913 54.2803 27.1213 53.9803V35.8203L28.2714 36.4803L33.1713 39.3103Z" class="pr-icon-iso-duotone-primary-stroke" stroke-linejoin="round"/>
    <path d="M40.8314 34.8906V54.8906L36.1414 57.6006C35.1314 57.2906 34.1414 56.9606 33.1714 56.6006V39.3106L40.1414 35.2906L40.8314 34.8906Z" class="pr-icon-iso-duotone-primary-stroke" stroke-linejoin="round"/>
    <path d="M50.2113 40.3006L47.0413 47.3206V58.4706L40.8313 54.8906V34.8906L45.5913 37.6406L50.2113 40.3006Z" class="pr-icon-iso-duotone-primary-stroke" stroke-linejoin="round"/>
    <path d="M68.8512 51.0704V59.8604C66.6012 60.2004 64.3212 60.4404 62.0312 60.5604V47.1304L68.8512 51.0704Z" class="pr-icon-iso-duotone-primary-stroke" stroke-linejoin="round"/>
    <path d="M73.8914 40.2808V47.4808L67.6514 43.8808L73.8914 40.2808Z" class="pr-icon-iso-duotone-primary-stroke" stroke-linejoin="round"/>
    <path d="M74.4713 47.8203V58.8203C74.2813 58.8603 74.0814 58.9103 73.8914 58.9403C72.2214 59.3103 70.5413 59.6203 68.8513 59.8603V51.0703L69.0114 50.9703H69.0214L73.8914 48.1603L74.4713 47.8203Z" class="pr-icon-iso-duotone-primary-stroke" stroke-linejoin="round"/>
    <path d="M80.7114 44.2208V57.0808C80.4714 57.1508 80.2313 57.2308 79.9913 57.3108C78.2613 57.8808 76.4713 58.3708 74.6113 58.7908C74.5613 58.8008 74.5213 58.8108 74.4713 58.8208V47.8208L73.8914 47.4808V40.2808L80.7114 44.2208Z" class="pr-icon-iso-duotone-primary-stroke" stroke-linejoin="round"/>
    <path d="M86.3314 40.9707V54.8007C84.5414 55.6507 82.6614 56.4107 80.7114 57.0807V44.2207L86.3314 40.9707Z" class="pr-icon-iso-duotone-primary-stroke" stroke-linejoin="round"/>
    <path d="M66.9912 20.9106V29.8106L64.2512 28.2206H64.2412L63.7412 27.9306L65.9512 23.1606L66.9912 20.9106Z" class="pr-icon-iso-duotone-primary-stroke" stroke-linejoin="round"/>
    <path d="M46.6514 24.5505L40.4113 28.1505L40.1414 27.9905V20.7905L44.8713 23.5205L46.6514 24.5505Z" class="pr-icon-iso-duotone-primary-stroke" stroke-linejoin="round"/>
    <path d="M103.061 34.3604C103.081 35.2404 103.011 36.1204 102.861 36.9904C102.451 39.4504 101.401 41.8704 99.7615 44.2704C99.7315 44.3204 99.6915 44.3704 99.6515 44.4204C97.3515 41.1804 94.0115 38.2804 89.5215 35.6804C88.7715 35.2504 88.0014 34.8304 87.2214 34.4504V32.5904L81.0915 29.0504L78.0415 30.8104C76.8515 30.4504 75.6315 30.1304 74.3815 29.8304C71.9315 29.2704 69.4715 28.8304 66.9915 28.5204V20.9104L59.9714 16.8604L52.2715 21.3004L45.7615 17.5404L40.1415 20.7904V27.9904L35.4515 25.2804H35.4415L33.9015 24.3904L29.2315 27.0904H29.2214L28.2715 27.6404V33.7704C27.1115 34.3204 25.9815 34.9104 24.8915 35.5404C20.5015 38.0704 17.1915 40.9304 15.0115 44.1304C15.0015 44.1304 15.0015 44.1204 15.0015 44.1204C13.2815 41.6404 12.2315 39.1304 11.8215 36.5904C11.6915 35.8004 11.6215 35.0004 11.6215 34.2104C11.5615 30.8404 12.6615 27.5204 14.8915 24.3104C17.0715 21.0404 20.4215 18.1204 24.8915 15.5404C29.3515 12.9704 34.4015 11.0304 40.0415 9.79044C45.6315 8.49044 51.3814 7.85044 57.2214 7.89044C63.0114 7.90044 68.7315 8.53044 74.3815 9.83044C79.9915 11.1604 85.0615 13.1104 89.5215 15.6804C94.0115 18.2804 97.3515 21.1804 99.6515 24.4204C101.911 27.6804 103.051 31.0104 103.061 34.3604Z" class="pr-icon-iso-duotone-primary-stroke" stroke-linejoin="round"/>
    <path d="M67.7714 36.7408L66.9913 37.1908L63.7714 39.0508L61.5314 40.3508L61.3713 40.2608V33.0508L66.9913 36.2908L67.7714 36.7408Z" class="pr-icon-iso-duotone-primary-stroke" stroke-linejoin="round"/>
    <path d="M111.951 34.4604V54.3704C111.971 58.3904 110.681 62.3504 108.041 66.2104C105.391 70.1104 101.391 73.5804 96.0814 76.6504C90.7214 79.7404 84.7113 82.0504 78.0013 83.5504C71.2813 85.1004 64.4114 85.8504 57.4514 85.8304C50.5014 85.8204 43.6613 85.0304 36.9313 83.5004C30.2013 81.9304 24.1613 79.6004 18.8113 76.5104C13.4213 73.4004 9.39136 69.9104 6.70135 66.0504C4.01135 62.1404 2.64134 58.1904 2.62134 54.1704V34.1704C2.64134 37.5304 3.60132 40.8404 5.48132 44.1204C5.85132 44.7704 6.26135 45.4104 6.70135 46.0504C8.06135 48.0004 9.76134 49.8604 11.8113 51.6204C13.8113 53.3404 16.1413 54.9804 18.8113 56.5104C24.1613 59.6004 30.2013 61.9304 36.9313 63.5004C40.2713 64.2604 43.6413 64.8404 47.0413 65.2304C47.3413 65.2604 47.6413 65.2904 47.9413 65.3204C50.0713 65.5504 52.2113 65.7004 54.3613 65.7704C55.3913 65.8104 56.4214 65.8304 57.4514 65.8304C58.9814 65.8304 60.5114 65.8004 62.0314 65.7204C64.3214 65.6204 66.5913 65.4304 68.8513 65.1504C69.1213 65.1304 69.3913 65.0904 69.6613 65.0404C71.2713 64.8404 72.8713 64.5904 74.4713 64.2804C75.6513 64.0704 76.8313 63.8204 78.0013 63.5504C78.3713 63.4704 78.7314 63.3804 79.0914 63.2904H79.1013C79.6413 63.1704 80.1714 63.0304 80.7114 62.8904C82.3714 62.4504 83.9914 61.9604 85.5714 61.4104C89.3214 60.1204 92.8214 58.5304 96.0814 56.6504C98.6414 55.1704 100.901 53.5904 102.851 51.9204C104.941 50.1304 106.671 48.2304 108.041 46.2104C108.431 45.6304 108.801 45.0604 109.131 44.4804C111.021 41.2004 111.951 37.8504 111.951 34.4604Z" class="pr-icon-iso-duotone-primary-stroke" stroke-linejoin="round"/>
    <path d="M87.2212 32.5903V52.5903L86.3312 53.1003V40.9703L79.5112 37.0303L85.4712 33.6003L87.2212 32.5903Z" class="pr-icon-iso-duotone-primary-stroke" stroke-linejoin="round"/>
    <path d="M55.1714 29.4705L52.6914 34.9405V28.0405L55.1714 29.4705Z" class="pr-icon-iso-duotone-primary-stroke" stroke-linejoin="round"/>
    <path d="M52.6914 28.0405V34.9405L52.5814 35.1805L46.4514 31.6405L52.6914 28.0405Z" class="pr-icon-iso-duotone-primary-stroke" stroke-linejoin="round"/>
    <path d="M61.3712 33.0508V40.2608L58.7412 38.7408L59.4812 37.1408L61.3712 33.0508Z" class="pr-icon-iso-duotone-primary-stroke" stroke-linejoin="round"/>
    <path d="M85.4713 33.6003L87.2213 32.5904L81.0914 29.0504L78.0413 30.8104L73.3914 33.5004L66.9913 29.8104L64.2513 28.2204H64.2413L63.7413 27.9304L65.9514 23.1604L66.9913 20.9104L59.9713 16.8604L52.2714 21.3004L45.7614 17.5404L40.1414 20.7904L44.8713 23.5204L46.6514 24.5504L40.4113 28.1504L40.1414 27.9904L35.4514 25.2803H35.4413L33.9014 24.3904L29.2313 27.0904H29.2213L28.2714 27.6404L34.5714 31.2803L34.7814 31.4004L28.2714 35.1604L27.1213 35.8204L28.2714 36.4804L33.1713 39.3104L40.1414 35.2904L40.8314 34.8904L45.5914 37.6404L50.2114 40.3004L47.0413 47.3204L50.4913 49.3103L54.2513 51.4903L54.3613 51.5504L61.3713 47.5104L62.0314 47.1303L68.8513 51.0704L69.0114 50.9704H69.0214L73.8914 48.1604L74.4713 47.8204L73.8914 47.4804L67.6514 43.8804L73.8914 40.2803L80.7114 44.2204L86.3314 40.9704L79.5114 37.0303L85.4713 33.6003ZM52.6913 34.9403L52.5814 35.1804L46.4514 31.6404L52.6913 28.0404L55.1713 29.4704L52.6913 34.9403ZM66.9913 37.1903L63.7714 39.0504L61.5314 40.3503L61.3713 40.2603L58.7413 38.7404L59.4813 37.1404L61.3713 33.0504L66.9913 36.2904L67.7714 36.7404L66.9913 37.1903Z" class="pr-icon-iso-duotone-primary-stroke" stroke-linejoin="round"/>
    <path d="M34.7815 31.4006L28.2715 35.1606V27.6406L34.5715 31.2806L34.7815 31.4006Z" class="pr-icon-iso-duotone-primary-stroke" stroke-linejoin="round"/>
    <path d="M62.0314 47.1304V60.5604C60.5214 60.6504 59.0013 60.6904 57.4713 60.6804C56.4313 60.6804 55.3913 60.6604 54.3613 60.6104V51.5504L61.3713 47.5104L62.0314 47.1304Z" class="pr-icon-iso-duotone-primary-stroke" stroke-linejoin="round"/>
</svg>