<svg width="48" height="48" viewBox="0 0 118 90" class="pr-icon-iso-duotone-secondary"
     xmlns="http://www.w3.org/2000/svg" stroke-width="1px" stroke-linecap="round" stroke-linejoin="round">
    <path d="M78.8005 55.928V58.568C78.6905 58.608 78.5704 58.638 78.4604 58.668C77.6404 58.888 76.8205 59.088 75.9805 59.278C74.9305 59.528 73.8705 59.738 72.7905 59.938V52.458L75.6904 54.128L78.8005 55.928Z" class="pr-icon-iso-duotone-primary-stroke" stroke-linejoin="round"/>
    <path d="M59.7805 44.948V49.548L57.0505 47.968L53.7705 46.078V41.478L56.6804 43.158L59.7805 44.948Z" class="pr-icon-iso-duotone-primary-stroke" stroke-linejoin="round"/>
    <path d="M53.0503 22.688L53.0703 22.698H53.0503V22.688Z" class="pr-icon-iso-duotone-primary-stroke" stroke-linejoin="round"/>
    <path d="M35.73 26.4678L34.76 30.5078V46.5478L28.75 47.0378V27.0378L30.1599 26.9277L35.73 26.4678Z" class="pr-icon-iso-duotone-primary-stroke" stroke-linejoin="round"/>
    <path d="M110.99 23.0079C108.21 18.9879 104.05 15.3779 98.5103 12.1879C92.9803 8.9879 86.7303 6.58794 79.7703 4.97794C72.8103 3.37794 65.7403 2.56795 58.5503 2.54795C51.3703 2.53795 44.3103 3.31792 37.3603 4.89792C30.4203 6.48792 24.2002 8.86794 18.6902 12.0379C13.1902 15.2179 9.07032 18.8079 6.33032 22.8179C3.59032 26.8279 2.23025 30.9079 2.26025 35.0479C2.28025 38.3979 3.19024 41.7079 5.00024 44.9579C5.44024 45.7379 5.9202 46.5179 6.4602 47.2979C8.2502 49.8879 10.6203 52.2979 13.5403 54.5479C15.1603 55.7979 16.9602 56.9879 18.9402 58.1279C24.4802 61.3179 30.7302 63.7279 37.6902 65.3279C42.7702 66.5079 47.9103 67.2479 53.1103 67.5679C54.2803 67.6479 55.4504 67.6979 56.6304 67.7279C57.3904 67.7479 58.1502 67.7579 58.9102 67.7579C60.7402 67.7579 62.5604 67.7079 64.3804 67.6079C65.1804 67.5679 65.9903 67.5079 66.7903 67.4479C68.8003 67.2879 70.8003 67.0579 72.7903 66.7579C74.8103 66.4779 76.8103 66.1179 78.8003 65.6879C79.2403 65.5979 79.6703 65.5079 80.1003 65.4079C80.3203 65.3579 80.5302 65.3079 80.7502 65.2479C83.0002 64.7279 85.1703 64.1079 87.2703 63.3979C89.8703 62.5379 92.3502 61.5379 94.7102 60.4079C96.1002 59.7379 97.4503 59.0279 98.7603 58.2679C100.64 57.1779 102.36 56.0479 103.92 54.8679C106.93 52.5879 109.33 50.1279 111.13 47.4879C111.61 46.7779 112.05 46.0779 112.45 45.3579C114.29 42.0679 115.2 38.7379 115.2 35.3479V35.2579C115.18 31.1079 113.78 27.0279 110.99 23.0079ZM103.92 35.7779C103.84 39.1979 102.73 42.3679 100.61 45.3079C99.1304 47.3479 97.1702 49.2679 94.7102 51.0779C93.5102 51.9579 92.2003 52.8179 90.7603 53.6479C88.2503 55.0979 85.5602 56.3279 82.7002 57.3379C82.0602 57.5779 81.4102 57.7879 80.7502 57.9879C80.4902 58.0779 80.2302 58.1579 79.9702 58.2379C79.5802 58.3579 79.1903 58.4679 78.8003 58.5679C78.6903 58.6079 78.5702 58.6379 78.4602 58.6679C77.6402 58.8879 76.8202 59.0879 75.9802 59.2779C74.9302 59.5279 73.8703 59.7379 72.7903 59.9379C70.8303 60.2979 68.8303 60.5779 66.7903 60.7679C66.0203 60.8479 65.2402 60.9179 64.4602 60.9679L64.4402 56.6679L64.4102 52.7179V52.2179L63.0503 51.4379L61.7302 50.6679L60.7803 50.1179L59.7803 49.5479L57.0503 47.9679L53.7703 46.0779L53.1003 45.6879L53.1401 53.6279L53.1602 57.5779L53.1802 61.0079C48.3202 60.6579 43.6602 59.8579 39.2002 58.6179C34.7402 57.3879 30.6401 55.6879 26.9001 53.5279C22.4301 50.9479 19.0803 48.1079 16.8503 45.0079C14.7303 42.0479 13.6303 38.8679 13.5403 35.4379C13.5303 35.3179 13.5303 35.1979 13.5303 35.0779C13.4903 27.8879 17.8802 21.7579 26.7002 16.6679C30.4102 14.5179 34.5102 12.8479 39.0002 11.6479C43.4802 10.4479 48.1502 9.67792 53.0002 9.33792L53.0503 18.0979L60.8203 22.5779L64.3603 24.6279L64.3403 22.7379L64.1802 9.35794C69.0302 9.70794 73.7102 10.4979 78.2102 11.7179C82.7002 12.9379 86.8203 14.6179 90.5603 16.7779C99.4303 21.8979 103.89 28.0579 103.93 35.2379C103.93 35.4179 103.93 35.5979 103.92 35.7779Z" class="pr-icon-iso-duotone-primary-stroke" stroke-linejoin="round"/>
    <path d="M94.7102 46.7378V51.0778C93.5102 51.9578 92.2003 52.8178 90.7603 53.6478C88.2503 55.0978 85.5602 56.3278 82.7002 57.3378V47.7078L94.7102 46.7378Z" class="pr-icon-iso-duotone-primary-stroke" stroke-linejoin="round"/>
    <path d="M94.7102 46.7379L82.7002 47.7079L80.7502 47.8679L78.8003 55.9279L75.6902 54.1279L72.7903 52.4579L73.7703 48.4279L66.7903 48.9979L61.7302 46.0779L60.7803 45.5279L61.7302 45.4479L74.7402 44.3979L75.6902 40.4679L76.6902 36.3379L82.7002 39.8079L81.7202 43.8379L82.7002 43.7579L88.7102 43.2779L94.7102 46.7379Z" class="pr-icon-iso-duotone-primary-stroke" stroke-linejoin="round"/>
    <path d="M73.77 48.4277L72.79 52.4578V59.9377C70.83 60.2977 68.83 60.5778 66.79 60.7678V48.9977L73.77 48.4277Z" class="pr-icon-iso-duotone-primary-stroke" stroke-linejoin="round"/>
    <path d="M61.7302 36.8877V45.4477L60.7803 45.5277V50.1177L59.7803 49.5477V44.9477L60.4102 42.3477L61.7302 36.8877Z" class="pr-icon-iso-duotone-primary-stroke" stroke-linejoin="round"/>
    <path d="M54.7505 37.4478L54.4004 38.8777L53.7705 41.4778V46.0778L53.1006 45.6877L53.1404 53.6277L53.1604 57.5778L47.7705 58.0178V38.0178L53.0505 37.5878L54.7505 37.4478Z" class="pr-icon-iso-duotone-primary-stroke" stroke-linejoin="round"/>
    <path d="M75.6902 35.7579L64.3604 36.6779H64.2703L61.7302 36.8879L60.4102 42.3479L59.7803 44.9479L56.6802 43.1579L53.7703 41.4779L54.4001 38.8779L54.7502 37.4479L53.0503 37.5879L47.7703 38.0179L42.7202 35.0979L41.7603 34.5479L42.7202 34.4679L53.0203 33.6379H53.0503L55.7302 33.4179L56.6802 29.4879L57.6802 25.3579L63.6802 28.8279L62.7102 32.8579L64.2202 32.7379L64.3604 32.7279L69.6902 32.2979L75.6902 35.7579Z" class="pr-icon-iso-duotone-primary-stroke" stroke-linejoin="round"/>
    <path d="M47.7703 38.0178V58.0178L41.7603 54.5479V34.5479L42.7202 35.0978L47.7703 38.0178Z" class="pr-icon-iso-duotone-primary-stroke" stroke-linejoin="round"/>
    <path d="M40.7603 33.9678V53.9678L34.7603 50.5078V30.5078L37.4802 32.0778L40.7603 33.9678Z" class="pr-icon-iso-duotone-primary-stroke" stroke-linejoin="round"/>
    <path d="M64.3604 24.6281V32.7281L64.2202 32.7381L62.7102 32.8582L63.6802 28.8281L57.6802 25.3582L56.6802 29.4881V24.7781L53.0803 22.6981H53.0703L53.0503 22.6881V18.0981L60.8203 22.5781L64.3604 24.6281Z" class="pr-icon-iso-duotone-primary-stroke" stroke-linejoin="round"/>
    <path d="M56.6799 24.778L53.05 25.0679L42.72 25.908L41.47 31.038L40.76 33.968L37.48 32.0779L34.76 30.5079L35.73 26.468L30.1599 26.9279L28.75 27.038L22.75 23.5679L36.71 22.4379L38.6599 14.3779L44.6699 17.848L43.6899 21.8779L50.6699 21.3179L53.05 22.6879L53.0701 22.6979H53.0801L56.6799 24.778Z" class="pr-icon-iso-duotone-primary-stroke" stroke-linejoin="round"/>
    <path d="M28.75 27.0379V47.0379L22.75 43.5679V23.5679L28.75 27.0379Z" class="pr-icon-iso-duotone-primary-stroke" stroke-linejoin="round"/>
    <path d="M103.93 35.2379C103.93 35.4179 103.93 35.5979 103.92 35.7779C103.84 39.1979 102.73 42.3679 100.61 45.3079C98.3804 42.1979 95.0303 39.3579 90.5603 36.7779C86.8203 34.6179 82.7002 32.9379 78.2102 31.7179C73.7702 30.5179 69.1504 29.7279 64.3604 29.3679V24.6279L64.3403 22.7379L64.1802 9.35791C69.0302 9.70791 73.7102 10.4979 78.2102 11.7179C82.7002 12.9379 86.8203 14.6179 90.5603 16.7779C99.4303 21.8979 103.89 28.0579 103.93 35.2379Z" class="pr-icon-iso-duotone-primary-stroke" stroke-linejoin="round"/>
    <path d="M53.0506 18.0979V22.6879L50.6704 21.3179L43.6905 21.8779L44.6704 17.8479L38.6604 14.3779L36.7105 22.4379L22.7505 23.5679V39.2379C20.2905 41.0479 18.3206 42.9679 16.8506 45.0079C14.7306 42.0479 13.6306 38.8679 13.5406 35.4379C13.5306 35.3179 13.5305 35.1979 13.5305 35.0779C13.4905 27.8879 17.8805 21.7579 26.7005 16.6679C30.4105 14.5179 34.5105 12.8479 39.0005 11.6479C43.4805 10.4479 48.1505 9.67789 53.0005 9.33789L53.0506 18.0979Z" class="pr-icon-iso-duotone-primary-stroke" stroke-linejoin="round"/>
    <path d="M115.2 35.3478V55.2578C115.22 59.4078 113.87 63.4778 111.13 67.4878C108.39 71.4978 104.27 75.0878 98.7603 78.2678C93.2603 81.4478 87.0403 83.8278 80.1003 85.4078C73.1503 86.9878 66.0902 87.7678 58.9102 87.7578C51.7202 87.7478 44.6502 86.9378 37.6902 85.3278C30.7302 83.7278 24.4802 81.3178 18.9402 78.1278C13.4102 74.9278 9.25021 71.3179 6.46021 67.2979C3.68021 63.2879 2.28025 59.1979 2.26025 55.0479V35.0479C2.28025 38.3979 3.19024 41.7078 5.00024 44.9578C5.44024 45.7378 5.92021 46.5179 6.46021 47.2979C8.25021 49.8879 10.6203 52.2979 13.5403 54.5479C15.1603 55.7979 16.9602 56.9878 18.9402 58.1278C24.4802 61.3178 30.7302 63.7278 37.6902 65.3278C42.7702 66.5078 47.9104 67.2478 53.1104 67.5678C54.2804 67.6478 55.4504 67.6978 56.6304 67.7278C57.3904 67.7478 58.1502 67.7578 58.9102 67.7578C60.7402 67.7578 62.5604 67.7078 64.3804 67.6078C65.1804 67.5678 65.9903 67.5078 66.7903 67.4478C68.8003 67.2878 70.8003 67.0578 72.7903 66.7578C74.8103 66.4778 76.8103 66.1178 78.8003 65.6878C79.2403 65.5978 79.6703 65.5078 80.1003 65.4078C80.3203 65.3578 80.5302 65.3078 80.7502 65.2478C83.0002 64.7278 85.1703 64.1078 87.2703 63.3978C89.8703 62.5378 92.3502 61.5378 94.7102 60.4078C96.1002 59.7378 97.4503 59.0278 98.7603 58.2678C100.64 57.1778 102.36 56.0478 103.92 54.8678C106.93 52.5878 109.33 50.1278 111.13 47.4878C111.61 46.7778 112.05 46.0778 112.45 45.3578C114.29 42.0678 115.2 38.7378 115.2 35.3478Z" class="pr-icon-iso-duotone-primary-stroke" stroke-linejoin="round"/>
    <path d="M42.7202 25.9082V34.4682L41.7603 34.5482V49.8582L40.7603 53.9682V33.9682L41.4702 31.0382L42.7202 25.9082Z" class="pr-icon-iso-duotone-primary-stroke" stroke-linejoin="round"/>
    <path d="M75.6904 35.7578V40.4678L74.7405 44.3978L61.7305 45.4478V36.8878L64.2705 36.6778H64.3606L75.6904 35.7578Z" class="pr-icon-iso-duotone-primary-stroke" stroke-linejoin="round"/>
    <path d="M66.7903 48.9978V60.7678C66.0203 60.8478 65.2402 60.9178 64.4602 60.9678L64.4402 56.6678L64.4102 52.7178V52.2178L63.0503 51.4378L61.7302 50.6678L60.7803 50.1178V45.5278L61.7302 46.0778L66.7903 48.9978Z" class="pr-icon-iso-duotone-primary-stroke" stroke-linejoin="round"/>
    <path d="M82.7002 47.708V57.338C82.0602 57.578 81.4102 57.788 80.7502 57.988C80.4902 58.078 80.2302 58.158 79.9702 58.238C79.5802 58.358 79.1903 58.468 78.8003 58.568V55.928L80.7502 47.868L82.7002 47.708Z" class="pr-icon-iso-duotone-primary-stroke" stroke-linejoin="round"/>
    <path d="M82.7002 39.8081V43.7581L81.7202 43.8381L82.7002 39.8081Z" class="pr-icon-iso-duotone-primary-stroke" stroke-linejoin="round"/>
    <path d="M56.6802 24.7778V29.4878L55.7302 33.4178L53.0503 33.6378H53.0203L42.7202 34.4678V25.9078L53.0503 25.0678L56.6802 24.7778Z" class="pr-icon-iso-duotone-primary-stroke" stroke-linejoin="round"/>
</svg>