<svg width="48" height="48" viewBox="0 0 97 84" fill="#c8e7ff" xmlns="http://www.w3.org/2000/svg" stroke-width="1px" stroke-linecap="round" stroke-linejoin="round"><path d="M94.7701 24.2798V44.1798L94.7601 44.3699C94.7301 45.1399 94.19 45.8298 93.16 46.4298C92.08 47.0498 90.8401 47.3599 89.4401 47.3599C86.6401 47.3599 83.8601 47.5199 81.1001 47.8699C79.9401 48.0099 78.8101 48.1998 77.7101 48.4198V39.6698C77.7101 38.3498 77.5001 37.0598 77.0801 35.7798C77.0701 35.7398 77.06 35.7098 77.04 35.6798C76.36 33.5998 75.1201 31.5698 73.3301 29.5898C73.9401 29.3898 74.5601 29.1998 75.1901 29.0298C75.8101 28.8498 76.4401 28.6998 77.0801 28.5498C78.3801 28.2698 79.7101 28.0399 81.1001 27.8699C83.8601 27.5199 86.6401 27.3499 89.4401 27.3599C90.8401 27.3599 92.08 27.0498 93.16 26.4298C94.23 25.8098 94.7701 25.0898 94.7701 24.2798Z" stroke="#229EFF" stroke-linejoin="round"/><path d="M94.7698 44.2797C94.7698 44.2797 94.7698 44.3398 94.7598 44.3698V44.1797C94.7598 44.1797 94.7698 44.2497 94.7698 44.2797Z" stroke="#229EFF" stroke-linejoin="round"/><path d="M94.7702 24.2798C94.7702 25.0898 94.2301 25.8098 93.1601 26.4298C92.0801 27.0498 90.8401 27.3599 89.4401 27.3599C86.6401 27.3599 83.8602 27.5199 81.1002 27.8699C79.7102 28.0399 78.3802 28.2698 77.0802 28.5498C76.4402 28.6998 75.8101 28.8498 75.1901 29.0298C74.5601 29.1998 73.9402 29.3898 73.3302 29.5898C75.1202 31.5698 76.3601 33.5998 77.0401 35.6798C77.0601 35.7098 77.0702 35.7398 77.0802 35.7798C77.5002 37.0598 77.7102 38.3498 77.7102 39.6698C77.7102 40.4798 77.6302 41.2899 77.4702 42.0999C77.4202 42.3999 77.3502 42.6999 77.2702 42.9999C76.6802 45.3099 75.5201 47.4498 73.7901 49.4398C73.7001 49.5498 73.6002 49.6598 73.4902 49.7798C71.7502 51.6898 69.4901 53.4598 66.7001 55.0698C59.2801 59.3498 50.3902 61.4798 40.0302 61.4598C29.6702 61.4398 20.7501 59.2798 13.2901 54.9698C10.3501 53.2698 7.99015 51.4499 6.20015 49.4899C3.45015 46.4799 2.07013 43.1598 2.05013 39.5298C2.01013 33.5498 5.71019 28.4199 13.1202 24.1399C19.0802 20.6999 26.1901 18.6298 34.4501 17.9498C41.6501 17.3598 48.5101 17.9199 55.0401 19.6399H55.0501C56.0201 19.8899 56.9701 20.1698 57.9301 20.4698C56.3301 18.9598 55.4002 17.3799 55.1402 15.7299C55.0802 15.3499 55.0501 14.9598 55.0501 14.5798C55.0501 13.3198 55.3901 12.0698 56.0701 10.8298C56.9501 9.21983 58.2701 7.67984 60.0501 6.20984C61.8201 4.74984 63.9401 3.44982 66.4101 2.31982C69.3501 3.63982 71.6802 5.1699 73.4002 6.8999C75.1302 8.6299 76.2502 10.4499 76.7702 12.3599C76.9202 12.9399 77.0302 13.5199 77.0802 14.0999V15.1598C77.0402 16.1098 76.8402 17.0599 76.4702 17.9999C75.7502 19.8499 74.2801 21.5699 72.0601 23.1399C73.7101 22.7599 75.3802 22.4198 77.0802 22.1598C78.2502 21.9598 79.4402 21.7998 80.6402 21.6698C83.5602 21.3398 86.4801 21.1798 89.4101 21.1898C90.8101 21.1898 92.0502 21.5099 93.1302 22.1299C94.2202 22.7599 94.7602 23.4798 94.7702 24.2798Z" stroke="#229EFF" stroke-linejoin="round"/><path d="M94.7705 24.2798V24.0398" stroke="#229EFF" stroke-linejoin="round"/><path d="M77.7098 39.6698V59.6698C77.7098 60.7698 77.5599 61.8799 77.2699 62.9999C76.0599 67.6799 72.5298 71.6998 66.6998 75.0698C59.2798 79.3498 50.3899 81.4798 40.0299 81.4598C29.6699 81.4398 20.7498 79.2798 13.2898 74.9698C5.82979 70.6598 2.0798 65.5198 2.0498 59.5298V39.5298C2.0698 43.1598 3.44983 46.4799 6.19983 49.4899C7.98983 51.4499 10.3498 53.2698 13.2898 54.9698C20.7498 59.2798 29.6699 61.4398 40.0299 61.4598C50.3899 61.4798 59.2798 59.3498 66.6998 55.0698C69.4898 53.4598 71.7499 51.6898 73.4899 49.7798C73.5999 49.6598 73.6998 49.5498 73.7898 49.4398C75.5198 47.4498 76.6799 45.3099 77.2699 42.9999C77.3499 42.6999 77.4198 42.3999 77.4698 42.0999C77.6298 41.2899 77.7098 40.4798 77.7098 39.6698Z" stroke="#229EFF" stroke-linejoin="round"/><path d="M77.71 39.6699V39.27" stroke="#229EFF" stroke-linejoin="round"/><path d="M77.71 59.98V59.6699" stroke="#229EFF" stroke-linejoin="round"/><path d="M77.0806 15.1597V22.1597C75.3806 22.4197 73.7105 22.7598 72.0605 23.1398C74.2805 21.5698 75.7506 19.8498 76.4706 17.9998C76.8406 17.0598 77.0406 16.1097 77.0806 15.1597Z" stroke="#229EFF" stroke-linejoin="round"/><path d="M57.9298 20.4698C56.9698 20.1698 56.0198 19.8899 55.0498 19.6399V14.5798C55.0498 14.9598 55.0799 15.3499 55.1399 15.7299C55.3999 17.3799 56.3298 18.9598 57.9298 20.4698Z" stroke="#229EFF" stroke-linejoin="round"/><path d="M55.0498 14.5798V14.3298" stroke="#229EFF" stroke-linejoin="round"/></svg>