<svg width="48" height="48" viewBox="0 0 123 94" class="pr-icon-iso-duotone-secondary"
     xmlns="http://www.w3.org/2000/svg" stroke-width="1px" stroke-linecap="round" stroke-linejoin="round">
    <path d="M56.3496 27.4V31.1699L56.3696 31.15L56.3496 27.4Z" class="pr-icon-iso-duotone-primary-stroke" stroke-linejoin="round"/>
    <path d="M61.1602 8.39001V24.58C59.7902 24.59 58.6502 24.8699 57.7402 25.4299C56.8102 26.0099 56.3502 26.66 56.3502 27.4V31.1699L29.5602 46.63L22.5203 42.5699L12.2402 36.63L61.1602 8.39001Z" class="pr-icon-iso-duotone-primary-stroke" stroke-linejoin="round"/>
    <path d="M83.9503 59.0299V59.0499C83.9503 59.8099 83.4503 60.4799 82.4703 61.0499L66.3503 70.35L65.0003 71.13C64.0103 71.7 62.8403 71.99 61.5003 71.99C60.1603 71.98 58.9903 71.7 57.9903 71.12L56.4703 70.25L40.4103 60.97C39.4103 60.39 38.9103 59.7199 38.9103 58.9399C38.9003 58.1699 39.4003 57.4899 40.3903 56.9199C41.3803 56.3499 42.5403 56.0699 43.8903 56.0699C45.2403 56.0699 46.4004 56.3599 47.4004 56.9399L56.4303 62.15L56.5403 62.21L56.4604 46.8199L56.3703 31.15L56.3503 27.4C56.3503 26.66 56.8103 26.0099 57.7403 25.4299C58.6503 24.8699 59.7903 24.59 61.1603 24.58H61.2403C62.5303 24.58 63.6703 24.87 64.6703 25.45C65.6603 26.02 66.1603 26.6799 66.1703 27.4199L66.2003 31.2999L66.4403 62.1799L75.4403 56.99C76.4303 56.41 77.6003 56.13 78.9403 56.13C80.2803 56.13 81.4503 56.42 82.4503 57C83.4503 57.57 83.9503 58.2499 83.9503 59.0299Z" class="pr-icon-iso-duotone-primary-stroke" stroke-linejoin="round"/>
    <path d="M110.38 36.8099L100.05 42.7799L93.0702 46.8099L66.2002 31.2999L66.1702 27.4199C66.1602 26.6799 65.6602 26.02 64.6702 25.45C63.6702 24.87 62.5302 24.58 61.2402 24.58H61.1602V8.39001L110.38 36.8099Z" class="pr-icon-iso-duotone-primary-stroke" stroke-linejoin="round"/>
    <path d="M120.29 36.83C120.29 38.41 119.34 39.76 117.42 40.87L107.08 46.84L100.1 50.87L96.4501 52.98C95.4601 53.55 94.2901 53.83 92.9501 53.83C91.6101 53.83 90.4401 53.54 89.4401 52.96C88.4401 52.39 87.9401 51.7099 87.9401 50.9399C87.9301 50.1599 88.4301 49.4899 89.4201 48.9199L93.0701 46.8099L100.05 42.7799L110.38 36.8099L61.1601 8.39001L12.2401 36.63L22.5202 42.5699L29.5601 46.63L33.3302 48.8099C34.3302 49.3899 34.8302 50.07 34.8302 50.84V50.86C34.8302 51.63 34.3301 52.3 33.3501 52.86C32.3601 53.43 31.2001 53.72 29.8501 53.72C28.5101 53.71 27.3402 53.42 26.3402 52.85L22.5601 50.6699L15.5302 46.61L5.25014 40.6699C3.31014 39.5499 2.34016 38.2 2.33016 36.62C2.32016 35.03 3.28015 33.6799 5.20015 32.5699L54.1201 4.32996C56.0501 3.21996 58.3801 2.66992 61.1201 2.66992C63.8701 2.67992 66.2102 3.23999 68.1402 4.35999L117.37 32.7799C119.31 33.8899 120.28 35.24 120.29 36.83Z" class="pr-icon-iso-duotone-primary-stroke" stroke-linejoin="round"/>
    <path d="M120.289 36.83V56.83C120.289 58.41 119.339 59.76 117.419 60.87L96.4495 72.98C95.4595 73.55 94.2895 73.83 92.9495 73.83C91.6095 73.83 90.4395 73.54 89.4395 72.96C88.4395 72.39 87.9395 71.7099 87.9395 70.9399V50.9399C87.9395 51.7099 88.4395 52.39 89.4395 52.96C90.4395 53.54 91.6095 53.83 92.9495 53.83C94.2895 53.83 95.4595 53.55 96.4495 52.98L100.099 50.87L107.079 46.84L117.419 40.87C119.339 39.76 120.289 38.41 120.289 36.83Z" class="pr-icon-iso-duotone-primary-stroke" stroke-linejoin="round"/>
    <path d="M34.8301 50.86V70.84C34.8401 71.62 34.34 72.29 33.35 72.86C32.36 73.43 31.2 73.72 29.85 73.72C28.51 73.71 27.3401 73.42 26.3401 72.85L5.25006 60.6699C3.31006 59.5499 2.34008 58.2 2.33008 56.62V36.62C2.34008 38.2 3.31006 39.5499 5.25006 40.6699L15.5301 46.61L22.5601 50.6699L26.3401 52.85C27.3401 53.42 28.51 53.71 29.85 53.72C31.2 53.72 32.36 53.43 33.35 52.86C34.33 52.3 34.8301 51.63 34.8301 50.86Z" class="pr-icon-iso-duotone-primary-stroke" stroke-linejoin="round"/>
    <path d="M83.9502 59.0499V79.0299C83.9602 79.7999 83.4602 80.4699 82.4702 81.0499L65.0002 91.13C64.0102 91.7 62.8402 91.99 61.5002 91.99C60.1602 91.98 58.9902 91.7 57.9902 91.12L40.4102 80.97C39.4102 80.39 38.9102 79.7199 38.9102 78.9399V58.9399C38.9102 59.7199 39.4102 60.39 40.4102 60.97L56.4702 70.25L57.9902 71.12C58.9902 71.7 60.1602 71.98 61.5002 71.99C62.8402 71.99 64.0102 71.7 65.0002 71.13L66.3502 70.35L82.4702 61.0499C83.4502 60.4799 83.9502 59.8099 83.9502 59.0499Z" class="pr-icon-iso-duotone-primary-stroke" stroke-linejoin="round"/>
    <path d="M56.5396 62.21L56.4296 62.15L56.3496 47.4V31.1699L56.3696 31.15L56.4597 46.8199L56.5396 62.21Z" class="pr-icon-iso-duotone-primary-stroke" stroke-linejoin="round"/>
</svg>