<svg width="48" height="48" viewBox="0 0 103 81" fill="#c8e7ff" xmlns="http://www.w3.org/2000/svg" stroke-width="1px" stroke-linecap="round" stroke-linejoin="round"><path d="M2.97797 43.37V42.46C2.89797 42.77 2.89797 43.08 2.97797 43.37Z" stroke="#229EFF" stroke-linejoin="round"/><path d="M50.5183 48.96V68.96C50.5183 69.71 50.0283 70.37 49.0283 70.95C48.0283 71.53 46.8784 71.82 45.5784 71.81L20.1182 71.77C18.8182 71.76 17.6682 71.47 16.6682 70.89C15.6582 70.31 15.1582 69.65 15.1482 68.9L15.0684 54.2V34.2L15.0984 40.38L15.1482 48.9C15.1582 49.65 15.6582 50.31 16.6682 50.89C17.1682 51.18 17.6983 51.39 18.2683 51.54C18.8483 51.69 19.4584 51.76 20.1084 51.77H22.4883L42.6182 51.81H45.5684C46.8684 51.82 48.0183 51.53 49.0183 50.95C50.0183 50.37 50.5083 49.71 50.5083 48.96H50.5183Z" stroke="#229EFF" stroke-linejoin="round"/><path d="M100.469 31.58V51.49C100.489 55.17 99.2889 58.78 96.8589 62.33C94.4289 65.89 90.7787 69.07 85.8987 71.89C83.2587 73.41 80.3788 74.75 77.2588 75.9C74.1388 77.05 70.7887 77.98 67.1987 78.69C65.6087 79 64.1188 78.95 62.7288 78.56C61.3388 78.16 60.6487 77.56 60.6387 76.74V56.74C60.6487 57.56 61.3388 58.16 62.7288 58.56C64.1188 58.95 65.6087 59 67.1987 58.69C70.7887 57.98 74.1388 57.05 77.2588 55.9C80.3788 54.75 83.2587 53.41 85.8987 51.89C87.5087 50.96 88.9889 49.98 90.3389 48.97C93.0589 46.92 95.2289 44.71 96.8589 42.33C97.0289 42.08 97.1989 41.83 97.3589 41.58C99.4289 38.3 100.469 34.97 100.469 31.58Z" stroke="#229EFF" stroke-linejoin="round"/><path d="M66.0381 25.31V25.33C66.0381 26.1 65.5381 26.78 64.5481 27.34L61.458 29.12L32.198 46.02L45.5481 46.1C46.8481 46.1 47.9981 46.39 49.0081 46.97C49.3581 47.17 49.6479 47.39 49.8779 47.62C50.3079 48.02 50.5181 48.47 50.5181 48.96C50.5181 49.71 50.0281 50.37 49.0281 50.95C48.0281 51.53 46.8781 51.82 45.5781 51.81H42.6279L22.498 51.77H20.1179C19.4679 51.76 18.8581 51.69 18.2781 51.54C17.7081 51.39 17.178 51.18 16.678 50.89C15.668 50.31 15.168 49.65 15.158 48.9L15.1082 40.38L15.0781 34.2C15.0781 33.45 15.5781 32.79 16.5781 32.21C17.5681 31.63 18.7181 31.35 20.0181 31.35C21.3181 31.35 22.468 31.64 23.468 32.22C24.168 32.62 24.6181 33.07 24.8281 33.55C24.9381 33.77 24.988 33.99 24.988 34.22L25.1179 41.92L48.7981 28.25L57.458 23.25C57.688 23.12 57.928 23 58.178 22.9C59.008 22.55 59.948 22.38 60.998 22.39C62.348 22.39 63.5281 22.68 64.5381 23.26C64.8881 23.46 65.178 23.68 65.408 23.91C65.838 24.33 66.0481 24.8 66.0481 25.31H66.0381Z" stroke="#229EFF" stroke-linejoin="round"/><path d="M100.469 31.49V31.58C100.469 34.97 99.4291 38.3 97.3591 41.58C97.1991 41.83 97.0291 42.08 96.8591 42.33C95.2291 44.71 93.0591 46.92 90.3391 48.97C88.9891 49.98 87.5089 50.96 85.8989 51.89C83.2589 53.41 80.379 54.75 77.259 55.9C74.139 57.05 70.789 57.98 67.199 58.69C65.609 59 64.119 58.95 62.729 58.56C61.339 58.16 60.6489 57.56 60.6389 56.74C60.6389 55.92 61.0291 55.17 61.8191 54.47C62.6191 53.78 63.6891 53.28 65.0391 52.97C67.6891 52.4 70.159 51.67 72.459 50.79C74.749 49.91 76.8691 48.91 78.8091 47.79C82.1391 45.87 84.759 43.78 86.679 41.54C88.639 39.24 89.8691 36.77 90.3391 34.13C90.4991 33.27 90.5691 32.38 90.5691 31.48C90.5291 25.15 86.5489 19.69 78.6289 15.12C70.7089 10.54 61.2591 8.25 50.2991 8.23C39.3391 8.21 29.9191 10.47 22.0391 15.02C20.0991 16.14 18.3889 17.35 16.8889 18.66C15.3889 19.96 14.1489 21.35 13.1489 22.81C12.5689 23.63 11.6991 24.28 10.5591 24.77C9.40909 25.26 8.06907 25.51 6.53907 25.5C5.11907 25.5 4.08897 25.09 3.43897 24.27C3.20897 23.98 3.04901 23.69 2.97901 23.38C2.82901 22.82 2.95911 22.23 3.32911 21.62C4.61911 19.58 6.2189 17.67 8.1189 15.88C10.0289 14.1 12.299 12.45 14.949 10.92C19.819 8.09999 25.339 6 31.489 4.59C37.639 3.19 43.8991 2.49999 50.2691 2.50999C56.6291 2.51999 62.8991 3.24 69.0691 4.66C75.2391 6.09 80.769 8.21 85.679 11.05C90.589 13.88 94.279 17.08 96.739 20.64C99.209 24.2 100.449 27.82 100.469 31.49Z" stroke="#229EFF" stroke-linejoin="round"/><path d="M66.0393 25.33V45.31C66.0493 46.09 65.5493 46.77 64.5493 47.34L50.5193 55.44V48.96C50.5193 48.47 50.3092 48.02 49.8792 47.62C49.6492 47.39 49.3593 47.17 49.0093 46.97C47.9993 46.39 46.8493 46.1 45.5493 46.1L32.1992 46.02L61.4592 29.12L64.5493 27.34C65.5393 26.78 66.0393 26.1 66.0393 25.33Z" stroke="#229EFF" stroke-linejoin="round"/><path d="M90.5686 31.48C90.5686 32.38 90.4986 33.27 90.3386 34.13C89.8686 36.77 88.6385 39.24 86.6785 41.54C84.7285 39.23 82.0484 37.09 78.6284 35.12C74.7884 32.9 70.5986 31.22 66.0386 30.08V25.31C66.0386 24.8 65.8284 24.33 65.3984 23.91C65.1684 23.68 64.8786 23.46 64.5286 23.26C63.5186 22.68 62.3385 22.39 60.9885 22.39C59.9385 22.38 58.9985 22.55 58.1685 22.9C57.9185 23 57.6785 23.12 57.4485 23.25L48.7886 28.25C39.7186 28.4 31.7286 30.17 24.8186 33.55C24.6086 33.07 24.1585 32.62 23.4585 32.22C22.4585 31.64 21.3085 31.35 20.0085 31.35C18.7085 31.35 17.5586 31.63 16.5686 32.21C15.5686 32.79 15.0686 33.45 15.0686 34.2V40.42C14.3486 41.19 13.7084 41.99 13.1484 42.81C12.5684 43.63 11.6986 44.28 10.5586 44.77C9.40859 45.26 8.06857 45.51 6.53857 45.5C5.11857 45.5 4.08848 45.09 3.43848 44.27C3.20848 43.98 3.04852 43.69 2.97852 43.38V23.38C3.04852 23.69 3.20848 23.98 3.43848 24.27C4.08848 25.09 5.11857 25.5 6.53857 25.5C8.06857 25.51 9.40859 25.26 10.5586 24.77C11.6986 24.28 12.5684 23.63 13.1484 22.81C14.1484 21.35 15.3884 19.96 16.8884 18.66C18.3884 17.35 20.0986 16.14 22.0386 15.02C29.9186 10.47 39.3386 8.20999 50.2986 8.22999C61.2586 8.24999 70.7084 10.54 78.6284 15.12C86.5484 19.69 90.5286 25.15 90.5686 31.48Z" stroke="#229EFF" stroke-linejoin="round"/></svg>