<svg width="48" height="48" viewBox="0 0 117 78" fill="#c8e7ff" xmlns="http://www.w3.org/2000/svg" stroke-width="1px" stroke-linecap="round" stroke-linejoin="round"><path d="M61.6703 33.8398C60.8203 33.3498 59.7703 33.0999 58.5203 33.0999C57.2703 33.0999 56.2303 33.3398 55.3803 33.8298C54.5403 34.3198 54.1204 34.9198 54.1204 35.6398C54.1204 36.3598 54.5503 36.9698 55.4003 37.4598C56.2503 37.9498 57.3004 38.1998 58.5504 38.1998C59.8004 38.1998 60.8404 37.9598 61.6904 37.4698C62.5404 36.9798 62.9603 36.3799 62.9503 35.6599C62.9503 34.9399 62.5203 34.3298 61.6703 33.8398Z" stroke="#229EFF" stroke-linejoin="round"/><path d="M50.7703 53.0099V53.0299C50.7703 53.6799 50.3403 54.2499 49.5103 54.7299C48.6603 55.2199 47.6703 55.4599 46.5203 55.4599C45.3703 55.4599 44.3703 55.2099 43.5203 54.7199L27.8303 45.6599L25.9403 44.5699L21.8003 42.1799L15.8003 38.7099L4.48031 32.1799C2.83031 31.2299 2.00032 30.0699 1.99032 28.7199C1.98032 27.3599 2.80034 26.2099 4.44034 25.2699L43.2403 2.86993C44.0903 2.37993 45.0803 2.13989 46.2303 2.13989C47.3803 2.13989 48.3803 2.38988 49.2303 2.87988C50.0803 3.36988 50.5103 3.94992 50.5103 4.60992C50.5103 5.26992 50.0903 5.8499 49.2503 6.3299L10.4503 28.7299L21.7703 35.2699L25.9403 37.6699L27.7703 38.7299L33.7803 42.1999L49.4903 51.2699C50.3403 51.7699 50.7703 52.3399 50.7703 53.0099Z" stroke="#229EFF" stroke-linejoin="round"/><path d="M112.22 25.4599L76.1803 4.64987C74.5303 3.69987 72.5303 3.21988 70.1903 3.21988C67.8403 3.20988 65.8503 3.68985 64.2103 4.62985L50.5103 12.5399L28.3903 25.3099C26.7503 26.2599 25.9303 27.4099 25.9403 28.7599C25.9503 29.9299 26.5603 30.9399 27.7803 31.7999C27.9803 31.9499 28.2003 32.0899 28.4303 32.2199L33.7403 35.2899L39.7503 38.7499L64.4703 53.0299C66.1203 53.9799 68.1203 54.4599 70.4603 54.4699C72.8103 54.4699 74.8003 53.9999 76.4403 53.0499L79.5303 51.2699L89.3203 45.6199L100.91 38.9299L112.26 32.3799C113.89 31.4399 114.71 30.2898 114.71 28.9398V28.9199C114.7 27.5699 113.87 26.4099 112.22 25.4599ZM61.6903 37.4699C60.8403 37.9599 59.8003 38.1999 58.5503 38.1999C57.3003 38.1999 56.2503 37.9499 55.4003 37.4599C54.5503 36.9699 54.1203 36.3599 54.1203 35.6399C54.1203 34.9199 54.5403 34.3199 55.3803 33.8299C56.2303 33.3399 57.2803 33.0999 58.5203 33.0999C59.7603 33.0999 60.8203 33.3499 61.6703 33.8399C62.5203 34.3299 62.9503 34.9399 62.9503 35.6599C62.9603 36.3799 62.5403 36.9799 61.6903 37.4699ZM86.2003 29.5599C85.9403 29.7099 85.6803 29.8499 85.4103 29.9799C84.6303 30.3499 83.8303 30.6399 82.9903 30.8399C82.7303 30.8999 82.4703 30.9599 82.2003 30.9999C80.7803 31.2499 78.5703 31.3599 75.5803 31.3599C73.8803 31.3499 72.6203 31.3999 71.8003 31.4999C70.9803 31.5999 70.2203 31.7899 69.5203 32.0799C68.7703 32.3999 67.9603 32.5299 67.0903 32.4899C66.2203 32.4399 65.5003 32.2598 64.9503 31.9398C64.3003 31.5698 63.9903 31.1299 64.0103 30.6199C64.0303 30.1199 64.3703 29.7099 65.0103 29.3899C66.4103 28.7099 67.6403 28.2799 68.7103 28.1299C69.7803 27.9699 71.6703 27.9499 74.3603 28.0699C76.3103 28.0999 77.7903 28.0599 78.8203 27.9299C79.6103 27.8299 80.3103 27.6499 80.9003 27.3799C81.0703 27.3099 81.2403 27.2199 81.3903 27.1299C82.4203 26.5299 82.9603 25.8799 82.9903 25.1599V24.9099C82.9103 24.0899 82.2703 23.3299 81.0703 22.6399C80.3203 22.2099 79.4803 21.9099 78.5603 21.7499C77.6303 21.5899 76.6203 21.5699 75.5303 21.6799C74.6803 21.7599 73.8903 21.7099 73.1703 21.5199C72.4403 21.3299 71.9303 21.0099 71.6303 20.5499C71.2803 20.0599 71.2503 19.5799 71.5403 19.1199C71.8403 18.6599 72.3903 18.3699 73.1903 18.2599C75.3803 17.9199 77.5303 17.9199 79.6203 18.2599C81.7203 18.6099 83.6003 19.2599 85.2503 20.2199C87.8003 21.6899 89.1603 23.2899 89.3103 25.0199C89.4703 26.7499 88.4303 28.2599 86.2003 29.5499V29.5599Z" stroke="#229EFF" stroke-linejoin="round"/><path d="M82.9902 25.1599V30.8399C82.7302 30.8999 82.4702 30.9599 82.2002 30.9999C80.7802 31.2499 78.5702 31.3599 75.5802 31.3599C73.8802 31.3499 72.6202 31.3999 71.8002 31.4999C70.9802 31.5999 70.2202 31.7899 69.5202 32.0799C68.7702 32.3999 67.9602 32.5299 67.0902 32.4899C66.2202 32.4399 65.5002 32.2599 64.9502 31.9399C64.3002 31.5699 63.9902 31.1299 64.0102 30.6199C64.0302 30.1199 64.3702 29.7099 65.0102 29.3899C66.4102 28.7099 67.6402 28.2799 68.7102 28.1299C69.7802 27.9699 71.6702 27.9499 74.3602 28.0699C76.3102 28.0999 77.7902 28.0599 78.8202 27.9299C79.6102 27.8299 80.3102 27.6499 80.9002 27.3799C81.0702 27.3099 81.2402 27.2199 81.3902 27.1299C82.4202 26.5299 82.9602 25.8799 82.9902 25.1599Z" stroke="#229EFF" stroke-linejoin="round"/><path d="M86.2002 29.5599C85.9402 29.7099 85.6803 29.8499 85.4103 29.9799C84.6303 30.3499 83.8303 30.6399 82.9903 30.8399V24.9099C82.9103 24.0899 82.2702 23.3299 81.0702 22.6399C80.3202 22.2099 79.4803 21.9099 78.5603 21.7499C77.6303 21.5899 76.6203 21.5699 75.5303 21.6799C74.6803 21.7599 73.8903 21.7099 73.1703 21.5199C72.4403 21.3299 71.9302 21.0099 71.6302 20.5499C71.2802 20.0599 71.2503 19.5799 71.5403 19.1199C71.8403 18.6599 72.3903 18.3699 73.1903 18.2599C75.3803 17.9199 77.5303 17.9199 79.6203 18.2599C81.7203 18.6099 83.6003 19.2599 85.2503 20.2199C87.8003 21.6899 89.1603 23.2899 89.3103 25.0199C89.4703 26.7499 88.4302 28.2599 86.2002 29.5499V29.5599Z" stroke="#229EFF" stroke-linejoin="round"/><path d="M50.7703 53.03V73.0099C50.7803 73.6699 50.3503 74.24 49.5103 74.73C48.6603 75.22 47.6703 75.46 46.5203 75.46C45.3703 75.46 44.3703 75.21 43.5203 74.72L4.48029 52.18C2.83029 51.23 2.0003 50.07 1.9903 48.72V28.72C2.0003 30.07 2.83029 31.23 4.48029 32.18L15.8003 38.71L21.8003 42.18L25.9403 44.5699L27.8303 45.66L43.5203 54.72C44.3703 55.21 45.3703 55.46 46.5203 55.46C47.6703 55.46 48.6603 55.22 49.5103 54.73C50.3403 54.25 50.7703 53.68 50.7703 53.03Z" stroke="#229EFF" stroke-linejoin="round"/><path d="M50.5103 4.60986V12.5399L28.3903 25.3099C26.7503 26.2599 25.9303 27.4098 25.9403 28.7598V37.6699L21.7703 35.2698L10.4503 28.7299L49.2503 6.32983C50.0903 5.84983 50.5103 5.26986 50.5103 4.60986Z" stroke="#229EFF" stroke-linejoin="round"/><path d="M114.71 28.9399V48.9199C114.72 50.2799 113.9 51.4299 112.26 52.3799L76.4403 73.0499C74.8003 73.9999 72.8103 74.4699 70.4603 74.4699C68.1203 74.4599 66.1203 73.9799 64.4703 73.0299L50.7703 65.1199V53.0099C50.7703 52.3399 50.3403 51.7699 49.4903 51.2699L33.7803 42.1999L27.7703 38.7299L25.9403 37.6699V28.7599C25.9503 29.9299 26.5603 30.9399 27.7803 31.7999C27.9803 31.9499 28.2003 32.0899 28.4303 32.2199L33.7403 35.2899L39.7503 38.7499L64.4703 53.0299C66.1203 53.9799 68.1203 54.4599 70.4603 54.4699C72.8103 54.4699 74.8003 53.9999 76.4403 53.0499L79.5303 51.2699L89.3203 45.6199L100.91 38.9299L112.26 32.3799C113.89 31.4399 114.71 30.2899 114.71 28.9399Z" stroke="#229EFF" stroke-linejoin="round"/></svg>