<svg width="24" height="24" viewBox="0 0 124 93" class="pr-icon-iso-duotone-secondary" xmlns="http://www.w3.org/2000/svg" stroke-width="1px" stroke-linecap="round" stroke-linejoin="round">
    <path d="M71.54 51.0107V71.0107C71.41 71.7607 71.32 72.3708 71.26 72.8308C71.19 73.2808 71.16 73.7408 71.17 74.1908C71.18 77.6808 70.79 80.3008 69.98 82.0608C69.17 83.8208 67.6201 85.3608 65.3201 86.6908C60.4201 89.5208 54.5201 90.9308 47.6201 90.9208C40.7301 90.9108 34.8101 89.4707 29.8701 86.6207C26.9101 84.9107 24.8501 83.3408 23.6901 81.9208L21.96 79.7908V59.7908L23.6901 61.9208C24.8501 63.3408 26.9101 64.9107 29.8701 66.6207C32.3801 68.0707 35.14 69.1507 38.15 69.8607C40.59 70.4507 43.19 70.7907 45.97 70.8907H46.14C46.63 70.9107 47.1201 70.9208 47.6201 70.9208C49.4101 70.9208 51.14 70.8307 52.8 70.6407C55.61 70.3207 58.22 69.7208 60.64 68.8508C62.29 68.2608 63.8501 67.5408 65.3201 66.6908C67.6201 65.3608 69.17 63.8208 69.98 62.0608C70.04 61.9208 70.11 61.7707 70.17 61.6207C70.48 60.8107 70.73 59.8408 70.89 58.7008C71.08 57.4108 71.17 55.9008 71.17 54.1908C71.16 53.7408 71.19 53.2808 71.26 52.8308C71.32 52.3708 71.41 51.7607 71.54 51.0107Z" class="pr-icon-iso-duotone-primary-stroke" stroke-linejoin="round"/>
    <path d="M21.96 59.7906V79.7906L18.26 78.7806C15.8 78.1206 13.0801 76.9307 10.1201 75.2207C5.18006 72.3707 2.70005 68.9507 2.68005 64.9707V44.9707C2.70005 48.8307 5.03005 52.1607 9.68005 54.9507C9.82005 55.0507 9.97006 55.1307 10.1201 55.2207C13.0801 56.9307 15.8 58.1206 18.26 58.7806L18.71 58.9006L21.96 59.7906Z" class="pr-icon-iso-duotone-primary-stroke" stroke-linejoin="round"/>
    <path d="M118.28 26.9905C114.53 24.8205 109.37 23.9205 102.81 24.2905C96.2501 24.6505 90.74 25.2905 86.28 26.1905C85.36 26.3605 84.4601 26.5505 83.5701 26.7505C83.1001 26.8605 82.63 26.9705 82.16 27.0805C81.62 27.2105 81.0901 27.3505 80.5701 27.4905C78.7401 27.9805 76.9001 28.5205 75.0701 29.1305C76.1101 28.0705 77.06 27.0105 77.91 25.9505C78.32 25.4305 78.72 24.9105 79.11 24.3805C79.5 23.8305 79.8801 23.2705 80.2501 22.7105C81.7501 20.1005 82.81 16.9005 83.45 13.1105C83.52 12.7005 83.5601 12.3005 83.5701 11.9105V11.0205C83.4101 8.21048 81.81 5.93051 78.77 4.17051C76.27 2.73051 73.31 2.19053 69.9 2.57053C66.49 2.94053 62.89 4.2205 59.09 6.4105C53.79 9.4705 49.25 13.1405 45.46 17.4205C41.68 21.6905 38.91 26.2705 37.17 31.1605C35.85 31.2305 34.8 31.2905 34.02 31.3305C33.23 31.3605 32.44 31.3805 31.65 31.3805C25.61 31.3705 21.07 31.6005 18.02 32.0605C14.97 32.5305 12.3 33.4305 10.01 34.7505C5.10001 37.5805 2.66005 40.9906 2.68005 44.9706C2.70005 48.8306 5.03005 52.1605 9.68005 54.9505C9.82005 55.0505 9.97006 55.1306 10.1201 55.2206C13.0801 56.9306 15.8 58.1205 18.26 58.7805L18.71 58.9005L21.96 59.7905L23.6901 61.9205C24.8501 63.3405 26.9101 64.9105 29.8701 66.6205C32.3801 68.0705 35.14 69.1505 38.15 69.8605C40.59 70.4505 43.19 70.7905 45.97 70.8905H46.14C46.63 70.9105 47.1201 70.9205 47.6201 70.9205C49.4101 70.9205 51.14 70.8305 52.8 70.6405C55.61 70.3205 58.22 69.7206 60.64 68.8506C62.29 68.2606 63.8501 67.5405 65.3201 66.6905C67.6201 65.3605 69.17 63.8205 69.98 62.0605C70.04 61.9205 70.11 61.7705 70.17 61.6205C70.48 60.8105 70.73 59.8405 70.89 58.7005C71.08 57.4105 71.17 55.9005 71.17 54.1905C71.16 53.7405 71.19 53.2805 71.26 52.8305C71.32 52.3705 71.41 51.7605 71.54 51.0105C80.01 50.0005 87.94 48.4006 95.35 46.2206C97.3 45.6506 99.17 45.0405 100.98 44.4005C106.03 42.6205 110.51 40.6006 114.41 38.3506C118.2 36.1606 120.42 34.0805 121.07 32.1105C121.2 31.7005 121.27 31.3105 121.27 30.9305C121.27 29.4505 120.27 28.1305 118.28 26.9905ZM37.6901 55.2705C37.1001 55.6105 36.1201 55.8305 34.7401 55.9405C34.5301 55.9605 34.32 55.9705 34.11 55.9905C32.99 56.0305 31.99 55.9605 31.1 55.7705L28.92 54.5105C28.53 53.9005 28.4201 53.2005 28.6201 52.4105C28.7101 52.0105 28.86 51.6705 29.04 51.3905C29.24 51.1005 29.49 50.8705 29.79 50.7005C30.31 50.4005 31.15 50.3605 32.3 50.5705C32.91 50.6805 33.51 50.8506 34.11 51.0906C34.28 51.1506 34.4501 51.2205 34.6201 51.3005C34.9801 51.4605 35.34 51.6406 35.7 51.8506C36.82 52.5006 37.5601 53.1505 37.9301 53.8205C38.0801 54.0905 38.15 54.3405 38.15 54.5505C38.15 54.8505 38.0001 55.0905 37.6901 55.2705ZM41.15 43.1006C41.15 43.2306 41.1201 43.3605 41.0701 43.5005C40.9401 43.9005 40.65 44.2805 40.21 44.6305C40.03 44.7705 39.83 44.9105 39.6 45.0405C38.82 45.4905 37.93 45.7705 36.95 45.8805C35.97 46.0005 35.2101 45.9006 34.6801 45.6006C34.3301 45.3906 34.13 45.1205 34.11 44.7805V44.7304C34.11 44.5904 34.1301 44.4505 34.1801 44.2905C34.3801 43.7205 34.87 43.2105 35.65 42.7605C36.44 42.3005 37.3201 42.0205 38.3101 41.9105C39.2901 41.8005 40.0501 41.8905 40.5701 42.2005C40.9601 42.4205 41.15 42.7105 41.15 43.0705V43.1006ZM52.9301 50.3506C52.7701 50.8006 52.43 51.2106 51.91 51.5906C51.77 51.6906 51.62 51.7905 51.46 51.8805C50.67 52.3305 49.79 52.6204 48.8 52.7304C47.82 52.8404 47.06 52.7405 46.54 52.4405C46.16 52.2205 45.97 51.9405 45.96 51.5805C45.96 51.4405 45.98 51.2905 46.04 51.1305C46.23 50.5605 46.72 50.0506 47.51 49.6006C48.12 49.2506 48.81 48.9906 49.55 48.8506C49.75 48.8006 49.95 48.7705 50.16 48.7505C51.15 48.6405 51.9001 48.7405 52.4301 49.0405C52.8101 49.2605 53.01 49.5605 53.01 49.9205C53.01 50.0605 52.9801 50.2006 52.9301 50.3506ZM67.84 22.9005C66.88 24.1205 65.77 25.3506 64.52 26.6006C62.23 28.8706 59.5801 30.9506 56.5701 32.8406C55.1301 32.3906 53.7501 32.0105 52.4301 31.7005C52.1601 31.6405 51.9001 31.5805 51.6301 31.5305C50.6001 31.3105 49.58 31.1605 48.59 31.0705C50.08 27.1705 52.4001 23.4805 55.5701 20.0205C58.7301 16.5605 62.5401 13.5406 66.9901 10.9706C67.9101 10.4506 68.73 10.0304 69.45 9.73045C70.17 9.43045 70.7901 9.20051 71.3101 9.05051C72.3101 10.2305 72.6601 11.7705 72.3701 13.6805C72.0901 15.6005 71.26 17.6705 69.9 19.9105C69.31 20.9005 68.63 21.8905 67.84 22.9005ZM108.66 32.3705C108.14 32.7905 107.42 33.2605 106.5 33.7905C102.05 36.3605 96.83 38.5505 90.83 40.3805C87.35 41.4405 83.75 42.3405 80.01 43.0705C77.31 43.6005 74.54 44.0505 71.7 44.4105C71.37 43.6205 70.96 42.8305 70.46 42.0505C70.16 41.5805 69.8201 41.1205 69.4301 40.6705C69.1801 40.3705 68.9101 40.0805 68.6301 39.8005C69.2401 39.4905 69.8601 39.1905 70.4901 38.8905C73.3001 37.5505 76.32 36.3505 79.53 35.2705C80.79 34.8505 82.03 34.4506 83.27 34.0906C85.91 33.3006 88.5 32.6505 91.04 32.1105C94.9 31.3205 98.5001 30.8405 101.81 30.6805C105.12 30.5205 107.8 30.7205 109.84 31.2905C109.58 31.5905 109.19 31.9505 108.66 32.3705Z" class="pr-icon-iso-duotone-primary-stroke" stroke-linejoin="round"/>
    <path d="M38.1501 54.5505C38.1501 54.8505 38.0001 55.0905 37.6901 55.2705C37.1001 55.6105 36.1201 55.8305 34.7401 55.9405C34.5301 55.9605 34.3201 55.9705 34.1101 55.9905C32.9901 56.0305 31.9901 55.9605 31.1001 55.7705L28.9201 54.5105C28.5301 53.9005 28.4201 53.2005 28.6201 52.4105C28.7101 52.0105 28.8601 51.6705 29.0401 51.3905C29.2401 51.1005 29.4901 50.8705 29.7901 50.7005C30.3101 50.4005 31.1501 50.3605 32.3001 50.5705C32.9101 50.6805 33.5101 50.8506 34.1101 51.0906C34.2801 51.1506 34.4501 51.2205 34.6201 51.3005C34.9801 51.4605 35.34 51.6406 35.7 51.8506C36.82 52.5006 37.5601 53.1505 37.9301 53.8205C38.0801 54.0905 38.1501 54.3405 38.1501 54.5505Z" class="pr-icon-iso-duotone-primary-stroke" stroke-linejoin="round"/>
    <path d="M41.15 43.0707V43.1007C41.15 43.2307 41.1201 43.3606 41.0701 43.5006C40.9401 43.9006 40.65 44.2807 40.21 44.6307C40.03 44.7707 39.83 44.9107 39.6 45.0407C38.82 45.4907 37.93 45.7707 36.95 45.8807C35.97 46.0007 35.2101 45.9007 34.6801 45.6007C34.3301 45.3907 34.13 45.1207 34.11 44.7807V44.7306C34.11 44.5906 34.1301 44.4507 34.1801 44.2907C34.3801 43.7207 34.87 43.2107 35.65 42.7607C36.44 42.3007 37.3201 42.0207 38.3101 41.9107C39.2901 41.8007 40.0501 41.8907 40.5701 42.2007C40.9601 42.4207 41.15 42.7107 41.15 43.0707Z" class="pr-icon-iso-duotone-primary-stroke" stroke-linejoin="round"/>
    <path d="M53.01 49.9205C53.01 50.0605 52.9801 50.2005 52.9301 50.3505C52.7701 50.8005 52.43 51.2105 51.91 51.5905C51.77 51.6905 51.62 51.7904 51.46 51.8804C50.67 52.3304 49.79 52.6204 48.8 52.7304C47.82 52.8404 47.06 52.7405 46.54 52.4405C46.16 52.2205 45.97 51.9405 45.96 51.5805C45.96 51.4405 45.98 51.2904 46.04 51.1304C46.23 50.5604 46.72 50.0505 47.51 49.6005C48.12 49.2505 48.81 48.9905 49.55 48.8505C49.75 48.8005 49.95 48.7704 50.16 48.7504C51.15 48.6404 51.9001 48.7405 52.4301 49.0405C52.8101 49.2605 53.01 49.5605 53.01 49.9205Z" class="pr-icon-iso-duotone-primary-stroke" stroke-linejoin="round"/>
    <path d="M109.84 31.2907C109.58 31.5907 109.19 31.9506 108.66 32.3706C108.14 32.7906 107.42 33.2607 106.5 33.7907C102.05 36.3607 96.83 38.5506 90.83 40.3806C87.35 41.4406 83.75 42.3407 80.01 43.0707C77.31 43.6007 74.54 44.0506 71.7 44.4106C71.37 43.6206 70.96 42.8307 70.46 42.0507C70.16 41.5807 69.8201 41.1207 69.4301 40.6707C69.1801 40.3707 68.9101 40.0807 68.6301 39.8007C69.2401 39.4907 69.8601 39.1906 70.4901 38.8906C73.3001 37.5506 76.32 36.3506 79.53 35.2706C80.79 34.8506 82.03 34.4507 83.27 34.0907C85.91 33.3007 88.5 32.6506 91.04 32.1106C94.9 31.3206 98.5001 30.8407 101.81 30.6807C105.12 30.5207 107.8 30.7207 109.84 31.2907Z" class="pr-icon-iso-duotone-primary-stroke" stroke-linejoin="round"/>
    <path d="M72.3701 13.6805C72.0901 15.6005 71.26 17.6705 69.9 19.9105C69.31 20.9005 68.63 21.8905 67.84 22.9005C66.88 24.1205 65.77 25.3506 64.52 26.6006C62.23 28.8706 59.5801 30.9506 56.5701 32.8406C55.1301 32.3906 53.7501 32.0106 52.4301 31.7006C52.1601 31.6406 51.9001 31.5805 51.6301 31.5305C50.6001 31.3105 49.58 31.1606 48.59 31.0706C50.08 27.1706 52.4001 23.4805 55.5701 20.0205C58.7301 16.5605 62.5401 13.5406 66.9901 10.9706C67.9101 10.4506 68.73 10.0305 69.45 9.73047C70.17 9.43047 70.7901 9.20054 71.3101 9.05054C72.3101 10.2305 72.6601 11.7705 72.3701 13.6805Z" class="pr-icon-iso-duotone-primary-stroke" stroke-linejoin="round"/>
    <path d="M121.27 30.9307V50.9307C121.27 51.3107 121.2 51.7006 121.07 52.1106C120.42 54.0806 118.2 56.1607 114.41 58.3507C109.11 61.4107 102.75 64.0307 95.35 66.2207C87.94 68.4007 80.01 70.0006 71.54 71.0106V51.0106C80.01 50.0006 87.94 48.4007 95.35 46.2207C97.3 45.6507 99.17 45.0406 100.98 44.4006C106.03 42.6206 110.51 40.6007 114.41 38.3507C118.2 36.1607 120.42 34.0806 121.07 32.1106C121.2 31.7006 121.27 31.3107 121.27 30.9307Z" class="pr-icon-iso-duotone-primary-stroke" stroke-linejoin="round"/>
    <path d="M121.27 30.9307V30.6206" class="pr-icon-iso-duotone-primary-stroke" stroke-linejoin="round"/>
    <path d="M83.5701 11.9106V26.7506C83.1001 26.8606 82.63 26.9707 82.16 27.0807C81.62 27.2107 81.0901 27.3506 80.5701 27.4906C78.7401 27.9806 76.9001 28.5206 75.0701 29.1306C76.1101 28.0706 77.06 27.0107 77.91 25.9507C78.32 25.4307 78.72 24.9106 79.11 24.3806C79.5 23.8306 79.8801 23.2707 80.2501 22.7107C81.7501 20.1007 82.81 16.9006 83.45 13.1106C83.52 12.7006 83.5601 12.3006 83.5701 11.9106Z" class="pr-icon-iso-duotone-primary-stroke" stroke-linejoin="round"/>
    <path d="M53.01 49.9205V49.7905" class="pr-icon-iso-duotone-primary-stroke" stroke-linejoin="round"/>
    <path d="M41.15 43.0707V42.8906" class="pr-icon-iso-duotone-primary-stroke" stroke-linejoin="round"/>
</svg>