<svg width="24" height="24" viewBox="0 0 98 79" class="pr-icon-iso-duotone-secondary" xmlns="http://www.w3.org/2000/svg" stroke-width="1px" stroke-linecap="round" stroke-linejoin="round">
    <path d="M55.9597 15.943L45.8799 16.873C44.7399 16.983 43.8597 17.283 43.2397 17.783C42.7897 18.143 42.5598 18.543 42.5398 18.993V27.953L41.4697 27.333V7.573L55.9597 15.943Z" class="pr-icon-iso-duotone-primary-stroke" stroke-linejoin="round"/>
    <path d="M93.7496 31.2231C93.5496 31.0731 93.3197 30.9331 93.0797 30.7931L86.7696 27.1531C87.4396 27.0431 88.0497 26.8731 88.5897 26.6331C89.1397 26.4031 89.6696 26.1331 90.1996 25.8331C92.5596 24.4731 93.7496 22.8231 93.7496 20.9031V20.8831C93.7396 18.9531 92.5297 17.3031 90.1397 15.9231C88.7097 15.0931 87.0097 14.5231 85.0597 14.2231C83.0997 13.9131 81.1197 13.8431 79.1197 14.0031L76.3097 14.2031L75.8297 14.243L76.2496 12.3431C76.2696 12.1831 76.2897 12.023 76.3097 11.863V10.9231C76.2597 10.2631 76.0897 9.5931 75.7997 8.9231C75.3197 7.7931 74.3595 6.81309 72.9295 5.98309C70.5295 4.60309 67.6697 3.91308 64.3297 3.90308C60.9997 3.90308 58.1396 4.58306 55.7596 5.95306C55.2396 6.25306 54.7797 6.56306 54.3697 6.88306C53.9697 7.19306 53.6696 7.54304 53.4796 7.93304L47.1695 4.28308C45.5895 3.37308 43.6795 2.91309 41.4395 2.91309C39.1995 2.91309 37.2996 3.36306 35.7296 4.26306L4.35971 22.373C2.78971 23.283 2.00963 24.3831 2.01963 25.6731C2.02963 26.9631 2.81975 28.0731 4.39975 28.9831L15.7997 35.563L15.9796 35.6631L50.3097 55.493C51.8897 56.403 53.7996 56.853 56.0396 56.863C56.6496 56.863 57.2397 56.8331 57.7997 56.7631C59.2897 56.5831 60.6096 56.1631 61.7496 55.5131L65.6595 53.2531L71.6497 49.803L75.8097 47.4031L83.5096 42.9431H83.5497L85.1695 41.993L92.4896 37.7731L93.1197 37.4031C93.3497 37.2731 93.5596 37.133 93.7496 36.993C94.8896 36.173 95.4596 35.213 95.4596 34.123V34.1031C95.4596 33.0031 94.8896 32.0431 93.7496 31.2231ZM78.7196 19.2031C79.5296 18.7431 80.4797 18.5031 81.5797 18.5131C82.6697 18.5131 83.6295 18.7431 84.4395 19.2131C85.2495 19.6831 85.6595 20.233 85.6595 20.873C85.6595 21.503 85.2696 22.0531 84.4596 22.5231C83.6496 22.9831 82.6997 23.2231 81.5997 23.2131C80.4997 23.2131 79.5496 22.9831 78.7396 22.5131C77.9196 22.0431 77.5196 21.4931 77.5096 20.8531C77.5096 20.2231 77.9096 19.6731 78.7196 19.2031ZM61.4996 9.26306C62.3096 8.80306 63.2597 8.56306 64.3597 8.57306C65.4497 8.57306 66.4096 8.80307 67.2196 9.27307C68.0396 9.74307 68.4396 10.293 68.4496 10.933C68.4496 11.563 68.0496 12.1131 67.2396 12.5831C66.4296 13.0431 65.4797 13.2731 64.3797 13.2731C63.2797 13.2731 62.3296 13.0431 61.5196 12.5731C60.7096 12.1031 60.2996 11.5531 60.2896 10.9131C60.2896 10.2831 60.6896 9.73306 61.4996 9.26306ZM56.0096 52.1931L27.4195 35.6931L21.6795 32.373L15.7997 28.9831L10.0997 25.6931L15.7997 22.3931L27.3797 29.0831L33.1197 32.3931L42.5396 37.8331L42.6097 37.873L42.9395 38.063L48.6097 41.3331L61.7196 48.9031L56.0096 52.1931ZM86.5997 34.5331L72.7496 42.5331L70.2696 43.9631L65.7496 41.3531L63.5196 40.063L63.3097 39.9431L42.6097 27.993L42.5396 27.9531L41.4696 27.3331L35.9496 24.1431L24.3597 17.4531L41.4696 7.57306L55.9596 15.9431L45.8797 16.873C44.7397 16.983 43.8596 17.2831 43.2396 17.7831C42.7896 18.1431 42.5596 18.543 42.5396 18.993V19.0431C42.5396 19.1931 42.5597 19.3531 42.6097 19.5131C42.7997 20.1731 43.3295 20.6831 44.1895 21.0431C45.0495 21.4031 46.0297 21.5431 47.1197 21.4631L66.1397 19.8431L65.0897 23.9231L63.8998 28.5831L63.3297 30.8231C63.3097 30.9331 63.2997 31.0431 63.2997 31.1531C63.2997 31.6531 63.5497 32.1131 64.0597 32.5131C64.4197 32.8031 64.8795 33.0331 65.4295 33.1931C65.8095 33.3031 66.2396 33.383 66.7096 33.433C67.8496 33.543 68.8395 33.4131 69.6795 33.0431C70.5095 32.6731 71.0196 32.153 71.1996 31.493L72.6895 25.8531L72.7496 25.6331L76.3097 27.6931L87.3797 34.0831L86.5997 34.5331Z" class="pr-icon-iso-duotone-primary-stroke" stroke-linejoin="round"/>
    <path d="M68.449 10.933C68.449 11.563 68.049 12.1131 67.239 12.5831C66.429 13.0431 65.4792 13.2731 64.3792 13.2731C63.2792 13.2731 62.329 13.0431 61.519 12.5731C60.709 12.1031 60.2991 11.5531 60.2891 10.9131C60.2891 10.2831 60.689 9.73306 61.499 9.26306C62.309 8.80306 63.2591 8.56305 64.3591 8.57305C65.4491 8.57305 66.409 8.80307 67.219 9.27307C68.039 9.74307 68.439 10.293 68.449 10.933Z" class="pr-icon-iso-duotone-primary-stroke" stroke-linejoin="round"/>
    <path d="M85.6597 20.873C85.6597 21.503 85.2697 22.053 84.4597 22.523C83.6497 22.983 82.6999 23.223 81.5999 23.213C80.4999 23.213 79.5497 22.983 78.7397 22.513C77.9197 22.043 77.5198 21.493 77.5098 20.853C77.5098 20.223 77.9097 19.673 78.7197 19.203C79.5297 18.743 80.4798 18.503 81.5798 18.513C82.6698 18.513 83.6297 18.743 84.4397 19.213C85.2497 19.683 85.6597 20.233 85.6597 20.873Z" class="pr-icon-iso-duotone-primary-stroke" stroke-linejoin="round"/>
    <path d="M15.7996 22.3931V28.9831L10.0996 25.6931L15.7996 22.3931Z" class="pr-icon-iso-duotone-primary-stroke" stroke-linejoin="round"/>
    <path d="M72.7498 25.883V42.533L70.2698 43.963L65.7498 41.353L63.5198 40.063L63.3098 39.943V33.183L63.2998 31.153C63.2998 31.653 63.5498 32.113 64.0598 32.513C64.4198 32.803 64.8797 33.033 65.4297 33.193C65.8097 33.303 66.2397 33.383 66.7097 33.433C67.8497 33.543 68.8397 33.413 69.6797 33.043C70.5097 32.673 71.0197 32.153 71.1997 31.493L72.6897 25.853L72.7498 25.883Z" class="pr-icon-iso-duotone-primary-stroke" stroke-linejoin="round"/>
    <path d="M87.3801 34.0831L86.6001 34.5331L72.75 42.5331V25.6331L76.3101 27.6931L87.3801 34.0831Z" class="pr-icon-iso-duotone-primary-stroke" stroke-linejoin="round"/>
    <path d="M41.4692 7.573V27.333L35.9492 24.143L24.3594 17.453L41.4692 7.573Z" class="pr-icon-iso-duotone-primary-stroke" stroke-linejoin="round"/>
    <path d="M61.7197 48.9031L56.0098 52.1931L27.4197 35.6931L21.6797 32.373L15.7998 28.9831V22.3931L27.3799 29.0831L33.1199 32.3931L42.5398 37.8331L42.6099 37.873L42.9397 38.063L48.6099 41.3331L61.7197 48.9031Z" class="pr-icon-iso-duotone-primary-stroke" stroke-linejoin="round"/>
    <path d="M95.4595 34.123V54.1031C95.4695 55.3931 94.6896 56.4931 93.1196 57.4031L61.7495 75.5131C60.1795 76.4131 58.2796 76.863 56.0396 76.863C53.7996 76.853 51.8896 76.403 50.3096 75.493L4.39966 48.9831C2.81966 48.0731 2.02953 46.9631 2.01953 45.6731V25.6731C2.02953 26.9631 2.81966 28.0731 4.39966 28.9831L15.7996 35.563V35.7731L15.9795 35.6631L50.3096 55.493C51.8896 56.403 53.7996 56.853 56.0396 56.863C56.6496 56.863 57.2396 56.8331 57.7996 56.7631C59.2896 56.5831 60.6095 56.1631 61.7495 55.5131L65.6594 53.2531L71.6497 49.803L75.8096 47.4031L83.5095 42.9431H83.5496C83.8696 42.8231 84.1795 42.6831 84.4595 42.5231C84.7495 42.3531 84.9894 42.173 85.1694 41.993L92.4895 37.7731L93.1196 37.4031C93.3496 37.2731 93.5595 37.133 93.7495 36.993C94.8895 36.173 95.4595 35.213 95.4595 34.123Z" class="pr-icon-iso-duotone-primary-stroke" stroke-linejoin="round"/>
    <path d="M93.7495 20.9031V31.2231C93.5495 31.0731 93.3196 30.9331 93.0796 30.7931L86.7695 27.1531C87.4395 27.0431 88.0496 26.8731 88.5896 26.6331C89.1396 26.4031 89.6695 26.1331 90.1995 25.8331C92.5595 24.4731 93.7495 22.8231 93.7495 20.9031Z" class="pr-icon-iso-duotone-primary-stroke" stroke-linejoin="round"/>
    <path d="M76.3101 11.863V14.2031L75.8301 14.243L76.25 12.3431C76.27 12.1831 76.2901 12.023 76.3101 11.863Z" class="pr-icon-iso-duotone-primary-stroke" stroke-linejoin="round"/>
    <path d="M66.1392 19.843L65.0891 23.923L63.8992 28.5829L63.3291 30.8229C63.3091 30.9329 63.2991 31.043 63.2991 31.153V39.9429L42.6091 27.9929L42.5391 27.9529V19.043C42.5391 19.193 42.5591 19.3529 42.6091 19.5129C42.7991 20.1729 43.329 20.683 44.189 21.043C45.049 21.403 46.0291 21.543 47.1191 21.463L66.1392 19.843Z" class="pr-icon-iso-duotone-primary-stroke" stroke-linejoin="round"/>
</svg>