<svg width="48" height="48" viewBox="0 0 123 93" fill="#c8e7ff" xmlns="http://www.w3.org/2000/svg" stroke-width="1px" stroke-linecap="round" stroke-linejoin="round"><path d="M118.08 32.5601L68.7196 4.07008C66.7796 2.95008 64.4295 2.38001 61.6795 2.38001C58.9295 2.37001 56.5895 2.93005 54.6595 4.04005L5.60945 32.36C3.67945 33.47 2.71957 34.82 2.72957 36.41C2.73957 38 3.70949 39.36 5.64949 40.48L15.9195 46.41L22.9696 50.48L54.7095 68.79L55.0096 68.9701C56.9496 70.0901 59.2996 70.66 62.0496 70.66C64.7996 70.67 67.1397 70.11 69.0697 69L107.81 46.63L118.119 40.6801C120.039 39.5801 121 38.23 121 36.65V36.63C121 35.04 120.02 33.6801 118.08 32.5601ZM83.1295 32.38L76.1195 36.4301L60.0894 45.6901L60.0496 45.7101L44.3895 54.75L38.7896 51.52L35.3995 49.5601L29.9796 46.4301L22.9295 42.36L12.6595 36.4301L61.7095 8.10999L93.4395 26.4301L83.1295 32.38Z" stroke="#229EFF" stroke-linejoin="round"/><path d="M60.0889 32.66V45.6901L60.0491 45.7101L44.3889 54.75L38.7891 51.52L35.3989 49.5601V43.3101L35.3789 35.17L35.8589 34.89C36.3089 35.27 37.009 35.4601 37.959 35.4601L48.949 35.48H55.179C56.589 35.5 57.759 35.2301 58.689 34.6901C59.629 34.1501 60.0889 33.47 60.0889 32.66Z" stroke="#229EFF" stroke-linejoin="round"/><path d="M60.0899 32.66C60.0899 33.47 59.63 34.15 58.69 34.69C57.76 35.23 56.59 35.5 55.18 35.49H48.95L37.96 35.46C37.01 35.46 36.3099 35.27 35.8599 34.89C35.7499 34.81 35.6601 34.7101 35.5801 34.6001C35.4801 34.4601 35.4099 34.31 35.3799 34.18C35.3099 33.76 35.58 33.38 36.19 33.02L55.8101 21.7C56.6301 21.22 57.5401 21.1101 58.5301 21.3501C59.3901 21.5501 59.8801 21.92 60.0001 22.45C60.0201 22.54 60.0301 22.6301 60.0301 22.7201L60.0701 29.06L60.0899 32.66Z" stroke="#229EFF" stroke-linejoin="round"/><path d="M93.439 26.4301L83.1289 32.38L76.1189 36.4301L61.709 28.11V8.10999L93.439 26.4301Z" stroke="#229EFF" stroke-linejoin="round"/><path d="M61.7092 8.10999V28.11L60.0693 29.0601L60.0293 22.7201C60.0293 22.6301 60.0193 22.5401 59.9993 22.4501C59.8793 21.9201 59.3893 21.5501 58.5293 21.3501C57.5393 21.1101 56.6293 21.2201 55.8093 21.7001L36.1892 33.02C35.5792 33.38 35.3092 33.7601 35.3792 34.1801V43.3101L29.9792 46.4301L22.9292 42.36L12.6592 36.4301L61.7092 8.10999Z" stroke="#229EFF" stroke-linejoin="round"/><path d="M35.3789 34.1801V34.0601" stroke="#229EFF" stroke-linejoin="round"/><path d="M121 36.65V56.63C121.01 58.22 120.049 59.5701 118.119 60.6801L69.0696 89C67.1396 90.11 64.7996 90.67 62.0496 90.66C59.2996 90.66 56.9495 90.0901 55.0095 88.9701L5.64941 60.48C3.70941 59.36 2.73949 58 2.72949 56.41V36.41C2.73949 38 3.70941 39.36 5.64941 40.48L15.9194 46.41L22.9695 50.48L54.7095 68.79L55.0095 68.9701C56.9495 70.0901 59.2996 70.66 62.0496 70.66C64.7996 70.67 67.1396 70.11 69.0696 69L107.81 46.63L118.119 40.6801C120.039 39.5801 121 38.23 121 36.65Z" stroke="#229EFF" stroke-linejoin="round"/></svg>