<svg width="48" height="48" viewBox="0 0 92 82" class="pr-icon-iso-duotone-secondary" xmlns="http://www.w3.org/2000/svg"
     stroke-width="1px" stroke-linecap="round" stroke-linejoin="round">
    <path d="M89.71 19.5449V39.4749C89.74 44.1149 86.86 48.0949 81.09 51.4249C78.81 52.7449 76.2899 53.7849 73.5299 54.5449C70.7899 55.3049 67.93 55.8049 64.97 56.0449V50.825L64.9399 36.0449C67.9099 35.8049 70.7799 35.3049 73.5299 34.5449C74.8999 34.1649 76.22 33.715 77.47 33.205C78.74 32.685 79.94 32.0849 81.09 31.4249C82.16 30.8049 83.13 30.1749 84 29.5149C87.8 26.6149 89.71 23.2949 89.71 19.5449Z" class="pr-icon-iso-duotone-primary-stroke" stroke-linejoin="round"/>
    <path d="M23.04 28.0049V29.0449" class="pr-icon-iso-duotone-primary-stroke" stroke-linejoin="round"/>
    <path d="M89.7102 19.4748V19.5448C89.7102 23.2948 87.8002 26.6148 84.0002 29.5148C83.1302 30.1748 82.1602 30.8049 81.0902 31.4249C79.9402 32.0849 78.7402 32.6849 77.4702 33.2049C76.2202 33.7149 74.9002 34.1648 73.5302 34.5448C70.7802 35.3048 67.9102 35.8048 64.9402 36.0448L64.9602 50.8249V56.0448L64.9702 56.6148C64.9702 56.7148 64.9602 56.8048 64.9402 56.9048C64.8402 57.4548 64.4302 57.9648 63.7002 58.4048C62.8502 58.9248 61.7901 59.1849 60.5201 59.1849C59.3501 59.1849 58.3102 58.9148 57.4102 58.3948C56.5002 57.8748 56.0402 57.2748 56.0402 56.5948L56.0103 50.8348L55.9001 30.8249C59.2001 31.2649 62.5202 31.2249 65.8602 30.7049C67.6702 30.4249 69.3502 30.0149 70.9202 29.4549C72.2702 28.9849 73.5202 28.4148 74.6902 27.7348C75.7702 27.1148 76.7002 26.4548 77.4902 25.7548C79.5902 23.9148 80.6402 21.8048 80.6302 19.4648C80.6102 16.2448 78.6002 13.4748 74.6002 11.1748C70.6102 8.86485 65.8202 7.70487 60.2402 7.69487C54.6602 7.68487 49.8802 8.82479 45.9102 11.1148C45.5902 11.3048 45.3002 11.4848 45.0402 11.6648C44.7702 11.8548 44.5102 12.0548 44.2402 12.2648C43.1802 11.7748 41.9102 11.2849 40.4502 10.8049C38.9902 10.3349 37.5903 9.95485 36.2603 9.67485C36.7403 9.27485 37.2401 8.89483 37.7701 8.52483C38.3001 8.15483 38.8801 7.79485 39.5201 7.42485C45.2901 4.09485 52.1902 2.43487 60.2102 2.44487C68.2302 2.46487 75.1502 4.14481 80.9602 7.50481C86.7702 10.8548 89.6902 14.8448 89.7102 19.4748Z" class="pr-icon-iso-duotone-primary-stroke" stroke-linejoin="round"/>
    <path d="M47.3799 24.1248C46.8399 22.5348 45.7899 21.0648 44.2399 19.7148C43.3699 18.9548 42.3498 18.2349 41.1698 17.5549C39.6398 16.6749 37.9999 15.9348 36.2599 15.3648C32.9599 14.2648 29.2698 13.7149 25.1998 13.7049C18.9898 13.6949 13.6798 14.9548 9.28981 17.4948C4.88981 20.0348 2.69986 23.0949 2.71986 26.6849C2.73986 30.2749 4.95978 33.3448 9.38978 35.8948C9.85978 36.1648 10.3399 36.4249 10.8399 36.6649C14.3799 38.4249 18.4398 39.4249 23.0398 39.6749C23.0798 39.6849 23.1298 39.6849 23.1698 39.6749C23.8798 39.7249 24.6099 39.7448 25.3499 39.7448C26.0099 39.7448 26.6698 39.7349 27.3098 39.7049C27.3698 39.7049 27.4299 39.6949 27.4999 39.6949C32.0999 39.4749 36.1799 38.5048 39.7099 36.7748C40.2399 36.5248 40.7599 36.2449 41.2599 35.9549C44.0099 34.3649 45.8998 32.5749 46.9298 30.5749C47.5298 29.3949 47.8298 28.1449 47.8298 26.8149V26.7648C47.8198 25.8548 47.6799 24.9748 47.3799 24.1248ZM38.1898 27.6649C37.7698 27.9149 37.2399 28.0348 36.5999 28.0348H36.2599L27.5099 28.0148L27.5398 33.1749C27.5398 33.2649 27.5299 33.3549 27.4999 33.4349C27.4599 33.5549 27.3998 33.6648 27.2998 33.7648C27.1998 33.8948 27.0499 34.0048 26.8699 34.1148C26.4199 34.3748 25.8799 34.5048 25.2399 34.5048C24.5999 34.5048 24.0698 34.3748 23.6398 34.1348C23.4498 34.0248 23.2998 33.8948 23.1898 33.7548C23.1198 33.6648 23.0698 33.5748 23.0398 33.4748C23.0098 33.3848 22.9999 33.2949 22.9999 33.2049L23.0398 29.0449V28.0048H13.9699C13.3299 27.9948 12.7999 27.8648 12.3699 27.6248C11.9399 27.3748 11.7299 27.0649 11.7299 26.7049C11.7299 26.3449 11.9399 26.0248 12.3599 25.7848C12.7799 25.5348 13.3098 25.4149 13.9498 25.4149L23.0398 25.4349L23.0099 20.1849C23.0099 19.8149 23.2198 19.5148 23.6398 19.2648C24.0598 19.0248 24.5999 18.9048 25.2299 18.9048C25.8599 18.9048 26.3998 19.0248 26.8298 19.2748C27.2598 19.5248 27.4699 19.8249 27.4699 20.1949L27.4999 25.4449H36.2599L36.5899 25.4549C37.2199 25.4549 37.7598 25.5849 38.1798 25.8249C38.6098 26.0749 38.8198 26.3848 38.8198 26.7448C38.8298 27.1148 38.6198 27.4249 38.1898 27.6649Z" class="pr-icon-iso-duotone-primary-stroke" stroke-linejoin="round"/>
    <path d="M47.8297 26.8148V46.7648C47.8497 50.3548 45.6598 53.4148 41.2598 55.9548C36.8698 58.4948 31.5597 59.7548 25.3497 59.7448C19.1297 59.7348 13.8096 58.4548 9.38965 55.8948C4.95965 53.3448 2.73973 50.2748 2.71973 46.6848V26.6848C2.73973 30.2748 4.95965 33.3448 9.38965 35.8948C9.85965 36.1648 10.3397 36.4248 10.8397 36.6648C14.3797 38.4248 18.4397 39.4248 23.0397 39.6748C23.0797 39.6848 23.1297 39.6848 23.1697 39.6748C23.8797 39.7248 24.6097 39.7448 25.3497 39.7448C26.0097 39.7448 26.6697 39.7348 27.3097 39.7048C27.3697 39.7048 27.4298 39.6948 27.4998 39.6948C32.0998 39.4748 36.1797 38.5048 39.7097 36.7748C40.2397 36.5248 40.7598 36.2448 41.2598 35.9548C44.0098 34.3648 45.8997 32.5748 46.9297 30.5748C47.5297 29.3948 47.8297 28.1448 47.8297 26.8148Z" class="pr-icon-iso-duotone-primary-stroke" stroke-linejoin="round"/>
    <path d="M23.0399 29.0449V33.4749C23.0099 33.3849 23 33.295 23 33.205L23.0399 29.0449Z" class="pr-icon-iso-duotone-primary-stroke" stroke-linejoin="round"/>
    <path d="M23.0399 25.4348V28.0048H13.97C13.33 27.9948 12.8 27.8648 12.37 27.6248C11.94 27.3748 11.73 27.0648 11.73 26.7048C11.73 26.3448 11.94 26.0248 12.36 25.7848C12.78 25.5348 13.31 25.4148 13.95 25.4148L23.0399 25.4348Z" class="pr-icon-iso-duotone-primary-stroke" stroke-linejoin="round"/>
    <path d="M38.8199 26.7448C38.8299 27.1148 38.6199 27.4248 38.1899 27.6648C37.7699 27.9148 37.24 28.0348 36.6 28.0348H36.26L27.51 28.0148L27.5399 33.1748C27.5399 33.2648 27.53 33.3548 27.5 33.4348V25.4448H36.26L36.59 25.4548C37.22 25.4548 37.7599 25.5848 38.1799 25.8248C38.6099 26.0748 38.8199 26.3848 38.8199 26.7448Z" class="pr-icon-iso-duotone-primary-stroke" stroke-linejoin="round"/>
    <path d="M27.4998 25.4448V33.4348C27.4598 33.5548 27.3997 33.6648 27.2997 33.7648C26.6097 33.7248 25.9097 33.7048 25.1997 33.7048C24.4897 33.7048 23.8497 33.7148 23.1897 33.7548C23.1197 33.6648 23.0697 33.5747 23.0397 33.4747V28.0048V25.4348L23.0098 20.1848C23.0098 19.8148 23.2196 19.5148 23.6396 19.2648C24.0596 19.0248 24.5997 18.9048 25.2297 18.9048C25.8597 18.9048 26.3997 19.0248 26.8297 19.2748C27.2597 19.5248 27.4697 19.8248 27.4697 20.1948L27.4998 25.4448Z" class="pr-icon-iso-duotone-primary-stroke" stroke-linejoin="round"/>
    <path d="M44.2397 12.2648V19.7147C43.3697 18.9547 42.3497 18.2348 41.1697 17.5548C39.6397 16.6748 37.9998 15.9347 36.2598 15.3647V9.6748C37.5898 9.9548 38.9897 10.3348 40.4497 10.8048C41.9097 11.2848 43.1797 11.7748 44.2397 12.2648Z" class="pr-icon-iso-duotone-primary-stroke" stroke-linejoin="round"/>
    <path d="M80.6298 19.4648C80.6398 21.8048 79.5897 23.9148 77.4897 25.7548C76.6997 26.4548 75.7697 27.1148 74.6897 27.7348C73.5197 28.4148 72.2697 28.9849 70.9197 29.4549C67.7597 28.2849 64.1997 27.7049 60.2397 27.6949C55.5297 27.6849 51.3897 28.4948 47.8297 30.1348V26.7648C47.8197 25.8548 47.6798 24.9748 47.3798 24.1248C46.8398 22.5348 45.7897 21.0648 44.2397 19.7148V12.2648C44.5097 12.0548 44.7697 11.8549 45.0397 11.6649C45.2997 11.4849 45.5897 11.3048 45.9097 11.1148C49.8797 8.82481 54.6597 7.68489 60.2397 7.69489C65.8197 7.70489 70.6097 8.86487 74.5997 11.1749C78.5997 13.4749 80.6098 16.2448 80.6298 19.4648Z" class="pr-icon-iso-duotone-primary-stroke" stroke-linejoin="round"/>
    <path d="M64.9697 56.6147V76.6147" class="pr-icon-iso-duotone-primary-stroke" stroke-linejoin="round"/>
    <path d="M64.97 76.6146C64.97 77.2846 64.55 77.8847 63.7 78.4047C62.85 78.9247 61.7899 79.1847 60.5199 79.1847C59.3499 79.1847 58.3099 78.9147 57.4099 78.3947C56.4999 77.8747 56.0399 77.2746 56.0399 76.5946L55.9399 56.8446V55.3746L55.8999 50.8247V30.8247L56.01 50.8346L56.0399 56.5946C56.0399 57.2746 56.4999 57.8747 57.4099 58.3947C58.3099 58.9147 59.3499 59.1847 60.5199 59.1847C61.7899 59.1847 62.85 58.9247 63.7 58.4047C64.43 57.9647 64.8399 57.4547 64.9399 56.9047L64.97 76.6146Z" class="pr-icon-iso-duotone-primary-stroke" stroke-linejoin="round"/>
</svg>