<svg width="48" height="48" viewBox="0 0 110 86" fill="#c8e7ff" xmlns="http://www.w3.org/2000/svg" stroke-width="1px" stroke-linecap="round" stroke-linejoin="round"><path d="M103.88 21.6196C101.28 17.8696 97.4003 14.4997 92.2303 11.5097C87.0603 8.52965 81.2303 6.28965 74.7303 4.78965C68.2303 3.28965 61.6304 2.52963 54.9204 2.51963C48.2204 2.50963 41.6204 3.23964 35.1404 4.71964C28.6604 6.18964 22.8504 8.40965 17.7104 11.3796C12.5804 14.3496 8.7304 17.6996 6.1704 21.4396C3.6104 25.1796 2.35035 28.9897 2.37035 32.8597C2.39035 36.2097 3.37042 39.5096 5.32042 42.7696C5.62042 43.2796 5.95041 43.7896 6.30041 44.2996C8.89041 48.0496 12.7804 51.4196 17.9504 54.3996C18.6904 54.8296 19.4503 55.2496 20.2303 55.6496C24.8103 58.0196 29.8904 59.8497 35.4504 61.1297C37.9904 61.7197 40.5503 62.1897 43.1203 62.5397C47.1304 63.1097 51.1704 63.3896 55.2504 63.3996C57.2204 63.3996 59.1803 63.3396 61.1203 63.2096C63.8903 63.0396 66.6404 62.7297 69.3704 62.2897C71.2704 61.9897 73.1504 61.6297 75.0304 61.1997C76.6104 60.8397 78.1504 60.4397 79.6504 59.9797C82.0404 59.2697 84.3304 58.4497 86.5104 57.5097C88.5904 56.6197 90.5704 55.6297 92.4604 54.5397C97.6004 51.5697 101.45 48.2196 104.01 44.4696C104.31 44.0296 104.59 43.5896 104.86 43.1496C106.82 39.8696 107.81 36.5296 107.81 33.1496V33.0496C107.79 29.1796 106.48 25.3696 103.88 21.6196ZM40.0904 15.7196C40.5204 15.1096 41.2704 14.6996 42.3204 14.4896C43.3704 14.2796 44.4303 14.2596 45.4903 14.4396C47.9103 14.9096 50.3703 15.2597 52.8503 15.4797C55.3403 15.6997 57.8504 15.7197 60.4004 15.5397C61.5804 15.4397 62.6204 15.5596 63.5204 15.8996C64.4204 16.2396 65.0004 16.7296 65.2504 17.3796C65.5004 18.0296 65.3204 18.5996 64.7004 19.0996C64.0804 19.5996 63.1804 19.8997 62.0004 20.0097C58.6504 20.2897 55.3604 20.2996 52.1304 20.0496C48.9004 19.7896 45.6704 19.3296 42.4404 18.6796C41.3804 18.4296 40.6204 18.0296 40.1504 17.4696C39.6804 16.9096 39.6604 16.3296 40.0904 15.7196ZM63.5604 49.6397C62.8404 50.0597 62.1103 50.4396 61.3603 50.7796C60.8603 51.0096 60.3603 51.2297 59.8503 51.4197C57.3103 52.3997 54.6704 52.9496 51.9404 53.0596C51.8104 53.0696 51.6704 53.0697 51.5404 53.0697C47.6004 53.1897 44.1303 52.3597 41.1203 50.6297C40.3903 50.2097 39.7804 49.7496 39.2704 49.2496C39.0404 49.0296 38.8304 48.7896 38.6404 48.5496C38.0504 47.7796 37.5304 46.9796 37.0904 46.1496C36.8204 45.6096 36.5504 45.1696 36.2804 44.8396C36.0504 44.5596 35.8204 44.3496 35.5904 44.2196C35.1504 43.9596 34.6404 43.7696 34.0504 43.6496C33.4604 43.5196 32.8503 43.4197 32.2303 43.3497C30.8103 43.0997 29.4303 42.7996 28.1003 42.4596C28.1003 42.4596 28.0938 42.4563 28.0804 42.4497C26.7404 42.1097 25.5503 41.6296 24.4903 41.0196C21.3703 39.2196 19.9604 37.1396 20.2604 34.7796C20.5604 32.4096 22.5304 30.1697 26.1904 28.0697C30.6404 25.4897 35.6203 24.3997 41.1203 24.7897C46.6203 25.1697 52.2604 27.0396 58.0504 30.3796L59.5504 31.2396C65.3404 34.5896 68.5703 37.8496 69.2403 41.0196C69.9103 44.1996 68.0204 47.0697 63.5604 49.6397ZM87.1204 40.2996C86.7204 40.9296 86.0004 41.3696 84.9404 41.6196C83.8904 41.8596 82.8504 41.8396 81.8204 41.5296C80.7904 41.2196 80.0905 40.7497 79.7205 40.0997C78.6505 38.2697 77.9104 36.4297 77.5004 34.5797C77.0804 32.7397 77.0904 30.8596 77.5104 28.9596C77.7004 28.2796 78.2204 27.7696 79.0904 27.4096C79.9604 27.0496 80.9504 26.9496 82.0704 27.0896C83.1904 27.2396 84.0304 27.5796 84.5904 28.1196C85.1504 28.6596 85.3404 29.2697 85.1604 29.9497C84.7904 31.3797 84.8004 32.8096 85.1804 34.2496C85.5604 35.6796 86.1904 37.0797 87.0704 38.4497C87.5004 39.0597 87.5204 39.6796 87.1204 40.2996Z" stroke="#229EFF" stroke-linejoin="round"/><path d="M64.7004 19.0998C64.0804 19.5998 63.1803 19.8998 62.0003 20.0098C58.6503 20.2898 55.3603 20.2998 52.1303 20.0498C48.9003 19.7898 45.6704 19.3298 42.4404 18.6798C41.3804 18.4298 40.6204 18.0298 40.1504 17.4698C39.6804 16.9098 39.6604 16.3298 40.0904 15.7198C40.5204 15.1098 41.2704 14.6998 42.3204 14.4898C43.3704 14.2798 44.4303 14.2598 45.4903 14.4398C47.9103 14.9098 50.3703 15.2598 52.8503 15.4798C55.3403 15.6998 57.8504 15.7198 60.4004 15.5398C61.5804 15.4398 62.6204 15.5598 63.5204 15.8998C64.4204 16.2398 65.0003 16.7298 65.2503 17.3798C65.5003 18.0298 65.3204 18.5998 64.7004 19.0998Z" stroke="#229EFF" stroke-linejoin="round"/><path d="M87.1205 40.3C86.7205 40.93 86.0005 41.3701 84.9405 41.6201C83.8905 41.8601 82.8505 41.8401 81.8205 41.5301C80.7905 41.2201 80.0906 40.7501 79.7206 40.1001C78.6506 38.2701 77.9105 36.4301 77.5005 34.5801C77.0805 32.7401 77.0905 30.8601 77.5105 28.9601C77.7005 28.2801 78.2206 27.7701 79.0906 27.4101C79.9606 27.0501 80.9505 26.9501 82.0705 27.0901C83.1905 27.2401 84.0306 27.5801 84.5906 28.1201C85.1506 28.6601 85.3405 29.2701 85.1605 29.9501C84.7905 31.3801 84.8005 32.8101 85.1805 34.2501C85.5605 35.6801 86.1905 37.0801 87.0705 38.4501C87.5005 39.0601 87.5205 39.68 87.1205 40.3Z" stroke="#229EFF" stroke-linejoin="round"/><path d="M61.3606 42.0199C61.3606 43.5599 60.1906 45.0099 57.8606 46.3499C56.4306 47.1799 55.0206 47.7599 53.6306 48.0999C53.0406 48.2499 52.4506 48.3499 51.8706 48.4099C49.9106 48.6099 48.1907 48.2699 46.6907 47.4099C46.0107 47.0199 45.3907 46.3099 44.8107 45.2699C44.7507 45.1599 44.6906 45.0499 44.6306 44.9299C44.3106 44.1799 43.8906 43.4699 43.3606 42.7999C42.8306 42.1399 42.0906 41.5399 41.1606 40.9999C40.2306 40.4599 39.1706 40.0299 37.9906 39.6999C36.8006 39.3799 35.5606 39.1199 34.2606 38.9399C33.4506 38.8299 32.6707 38.6899 31.9307 38.5099C31.1807 38.3299 30.5307 38.0799 29.9707 37.7499C28.7307 37.0399 28.1006 36.2199 28.1006 35.3099C28.1006 35.1199 28.1307 34.9299 28.1807 34.7399C28.4807 33.5899 29.6607 32.4299 31.7007 31.2499C34.5507 29.5999 37.6607 28.9699 41.0507 29.3599C44.4407 29.7399 48.2506 31.1499 52.4806 33.5999L53.8906 34.4099C54.6206 34.8299 55.2906 35.2399 55.9106 35.6499C58.3706 37.2499 59.9906 38.7299 60.7906 40.0999C60.9606 40.3999 61.1007 40.6899 61.1907 40.9799C61.3007 41.3299 61.3606 41.6799 61.3606 42.0199Z" stroke="#229EFF" stroke-linejoin="round"/><path d="M63.5602 49.64C62.8402 50.06 62.1102 50.4399 61.3602 50.7799V42.0199C61.3602 41.6799 61.3002 41.3299 61.1902 40.9799C61.1002 40.6899 60.9602 40.3999 60.7902 40.0999C59.9902 38.7299 58.3702 37.2499 55.9102 35.6499C55.2902 35.2399 54.6202 34.8299 53.8902 34.4099L52.4801 33.5999C48.2501 31.1499 44.4402 29.74 41.0502 29.36C37.6602 28.97 34.5502 29.5999 31.7002 31.2499C29.6602 32.4299 28.4802 33.5899 28.1802 34.7399C28.1302 34.9299 28.1001 35.1199 28.1001 35.3099V42.4599C28.1001 42.4599 28.0902 42.4499 28.0802 42.4499C26.7402 42.1099 25.5502 41.6299 24.4902 41.0199C21.3702 39.2199 19.9602 37.1399 20.2602 34.7799C20.5602 32.4099 22.5302 30.1699 26.1902 28.0699C30.6402 25.4899 35.6202 24.3999 41.1202 24.7899C46.6202 25.1699 52.2602 27.0399 58.0502 30.3799L59.5502 31.2399C65.3402 34.5899 68.5702 37.8499 69.2402 41.0199C69.9102 44.1999 68.0202 47.07 63.5602 49.64Z" stroke="#229EFF" stroke-linejoin="round"/><path d="M61.3606 42.0196V50.7796C60.8606 51.0096 60.3606 51.2296 59.8506 51.4196C57.3106 52.3996 54.6707 52.9496 51.9407 53.0596C51.8107 53.0696 51.6706 53.0696 51.5406 53.0696C47.6006 53.1896 44.1306 52.3596 41.1206 50.6296C40.3906 50.2096 39.7806 49.7496 39.2706 49.2496C39.0406 49.0296 38.8306 48.7896 38.6406 48.5496C38.0506 47.7796 37.5307 46.9796 37.0907 46.1496C36.8207 45.6096 36.5506 45.1696 36.2806 44.8396C36.0506 44.5596 35.8207 44.3496 35.5907 44.2196C35.1507 43.9596 34.6407 43.7696 34.0507 43.6496C33.4607 43.5196 32.8506 43.4196 32.2306 43.3496C30.8106 43.0996 29.4306 42.7996 28.1006 42.4596V35.3096C28.1006 36.2196 28.7307 37.0396 29.9707 37.7496C30.5307 38.0796 31.1807 38.3296 31.9307 38.5096C32.6707 38.6896 33.4506 38.8296 34.2606 38.9396C35.5606 39.1196 36.8006 39.3796 37.9906 39.6996C39.1706 40.0296 40.2306 40.4596 41.1606 40.9996C42.0906 41.5396 42.8306 42.1396 43.3606 42.7996C43.8906 43.4696 44.3106 44.1796 44.6306 44.9296C44.6906 45.0496 44.7507 45.1596 44.8107 45.2696C45.3907 46.3096 46.0107 47.0196 46.6907 47.4096C48.1907 48.2696 49.9106 48.6096 51.8706 48.4096C52.4506 48.3496 53.0406 48.2496 53.6306 48.0996C55.0206 47.7596 56.4306 47.1796 57.8606 46.3496C60.1906 45.0096 61.3606 43.5596 61.3606 42.0196Z" stroke="#229EFF" stroke-linejoin="round"/><path d="M107.81 33.1494V53.2794C107.81 53.4694 107.8 53.6494 107.79 53.8394C107.65 57.4394 106.39 60.9894 104.01 64.4694C101.45 68.2194 97.6002 71.5694 92.4602 74.5394C87.3302 77.4994 81.5202 79.7194 75.0302 81.1994C68.5502 82.6794 61.9601 83.4094 55.2501 83.3994C48.5501 83.3794 41.9502 82.6294 35.4502 81.1294C28.9502 79.6294 23.1202 77.3894 17.9502 74.3994C12.7802 71.4194 8.89017 68.0493 6.30017 64.2993C3.70017 60.5493 2.39012 56.7294 2.37012 52.8594V32.8594C2.39012 36.2094 3.37019 39.5093 5.32019 42.7693C5.62019 43.2793 5.95017 43.7893 6.30017 44.2993C8.89017 48.0493 12.7802 51.4194 17.9502 54.3994C18.6902 54.8294 19.4501 55.2494 20.2301 55.6494C24.8101 58.0194 29.8902 59.8494 35.4502 61.1294C37.9902 61.7194 40.5501 62.1894 43.1201 62.5394C47.1301 63.1094 51.1701 63.3894 55.2501 63.3994C57.2201 63.3994 59.1801 63.3394 61.1201 63.2094C63.8901 63.0394 66.6401 62.7294 69.3701 62.2894C71.2701 61.9894 73.1502 61.6294 75.0302 61.1994C76.6102 60.8394 78.1501 60.4394 79.6501 59.9794C82.0401 59.2694 84.3301 58.4494 86.5101 57.5094C88.5901 56.6194 90.5702 55.6294 92.4602 54.5394C97.6002 51.5694 101.45 48.2194 104.01 44.4694C104.31 44.0294 104.59 43.5894 104.86 43.1494C106.82 39.8694 107.81 36.5294 107.81 33.1494Z" stroke="#229EFF" stroke-linejoin="round"/></svg>