<svg width="48" height="48" viewBox="0 0 121 92" class="pr-icon-iso-duotone-secondary"
     xmlns="http://www.w3.org/2000/svg" stroke-width="1px" stroke-linecap="round" stroke-linejoin="round">
    <path d="M116.9 37.3527L100.4 16.5027C99.7399 15.7027 98.8899 15.0027 97.8699 14.4127C96.8499 13.8227 95.64 13.3427 94.26 12.9527L58.1399 3.43267C55.8099 2.83267 53.3799 2.65268 50.8699 2.88268C48.3599 3.10268 46.1999 3.74266 44.3799 4.79266L23.79 16.6827C13.62 22.5527 7.04982 29.7227 4.06982 38.1927C3.14982 40.8227 2.68994 43.4027 2.68994 45.9527C2.68994 49.2827 3.48006 52.5326 5.06006 55.7226C6.15006 57.9426 7.63 60.1227 9.5 62.2727C9.8 62.6027 10.13 62.9227 10.49 63.2127C10.86 63.5127 11.3001 63.8027 11.8101 64.1027C12.3201 64.4027 12.8298 64.6527 13.3398 64.8627C13.8498 65.0727 14.4 65.2627 14.99 65.4327C23.68 67.9627 32.7098 69.2627 42.0798 69.3627C44.9998 69.4027 47.9599 69.3127 50.9399 69.1027C52.8399 68.9727 54.7599 68.7927 56.6899 68.5727C58.2799 68.3827 59.8399 68.1727 61.3799 67.9327C67.5599 66.9927 73.3199 65.6527 78.6499 63.9027C84.2199 62.1027 89.31 59.8527 93.95 57.1827L109.61 48.1427L114.54 45.2927C116.36 44.2527 117.46 43.0027 117.85 41.5527C117.96 41.1527 118.02 40.7527 118.02 40.3527C118.02 39.3227 117.64 38.3227 116.9 37.3527ZM76.8499 46.8027L74.78 48.0027L72.49 49.3227C71.81 49.7127 71.06 50.0027 70.24 50.1727C69.58 50.3127 68.8699 50.3827 68.1199 50.3827C66.4499 50.3827 64.99 50.0227 63.75 49.3027L61.3398 47.9127L57.1699 45.5127L57.0898 45.5627L52.9199 47.9627L50.6299 49.2827C49.3999 49.9927 47.94 50.3527 46.27 50.3527C45.47 50.3527 44.71 50.2627 44.01 50.0927C43.24 49.9127 42.5399 49.6427 41.8899 49.2627L39.48 47.8727L37.5 46.7327C36.26 46.0227 35.6399 45.1727 35.6299 44.2127C35.6299 43.2427 36.24 42.4027 37.48 41.6927L44.01 37.9127L37.4399 34.1127C36.1899 33.4027 35.5698 32.5527 35.5698 31.5927C35.5598 30.6227 36.1699 29.7827 37.4099 29.0727L41.77 26.5527C43 25.8427 44.4599 25.4827 46.1299 25.4927C47.8099 25.4927 49.27 25.8527 50.51 26.5727L57.0898 30.3627L63.6199 26.5927C64.4799 26.1027 65.43 25.7827 66.5 25.6327C66.98 25.5627 67.47 25.5327 67.99 25.5327C69.66 25.5327 71.1199 25.8927 72.3699 26.6127L74.1899 27.6627L76.75 29.1427C77.99 29.8627 78.6199 30.7027 78.6199 31.6727C78.6299 32.6327 78.01 33.4727 76.78 34.1927L70.24 37.9627L76.8198 41.7627C78.0598 42.4727 78.6899 43.3227 78.6899 44.2827C78.6999 45.2527 78.0799 46.0927 76.8499 46.8027Z" class="pr-icon-iso-duotone-primary-stroke" stroke-linejoin="round"/>
    <path d="M44.01 37.9126V50.0927C43.24 49.9127 42.5399 49.6426 41.8899 49.2626L39.48 47.8726L37.5 46.7326C36.26 46.0226 35.6399 45.1726 35.6299 44.2126C35.6299 43.2426 36.24 42.4026 37.48 41.6926L44.01 37.9126Z" class="pr-icon-iso-duotone-primary-stroke" stroke-linejoin="round"/>
    <path d="M57.09 30.3626V45.5626L52.92 47.9627L50.63 49.2827C49.4 49.9927 47.9401 50.3526 46.2701 50.3526C45.4701 50.3526 44.7101 50.2627 44.0101 50.0927V37.9126L37.4401 34.1126C36.1901 33.4026 35.5699 32.5527 35.5699 31.5927C35.5599 30.6227 36.17 29.7827 37.41 29.0727L41.7701 26.5526C43.0001 25.8426 44.46 25.4826 46.13 25.4926C47.81 25.4926 49.2701 25.8527 50.5101 26.5727L57.09 30.3626Z" class="pr-icon-iso-duotone-primary-stroke" stroke-linejoin="round"/>
    <path d="M78.6199 31.6727C78.6299 32.6327 78.01 33.4727 76.78 34.1927L70.24 37.9627V45.7827C69.54 45.6127 68.79 45.5327 67.99 45.5327C66.31 45.5227 64.8599 45.8827 63.6199 46.5927L61.3398 47.9127L57.1699 45.5127L57.0898 45.5627V30.3627L63.6199 26.5927C64.4799 26.1027 65.43 25.7827 66.5 25.6327C66.98 25.5627 67.47 25.5327 67.99 25.5327C69.66 25.5327 71.1199 25.8927 72.3699 26.6127L74.1899 27.6627L76.75 29.1427C77.99 29.8627 78.6199 30.7027 78.6199 31.6727Z" class="pr-icon-iso-duotone-primary-stroke" stroke-linejoin="round"/>
    <path d="M118.02 40.3526V40.1826" class="pr-icon-iso-duotone-primary-stroke" stroke-linejoin="round"/>
    <path d="M78.6899 44.2827C78.6999 45.2527 78.0799 46.0926 76.8499 46.8026L74.78 48.0026L72.49 49.3226C71.81 49.7126 71.06 50.0026 70.24 50.1726V37.9626L76.8198 41.7626C78.0598 42.4726 78.6899 43.3227 78.6899 44.2827Z" class="pr-icon-iso-duotone-primary-stroke" stroke-linejoin="round"/>
    <path d="M118.02 40.3527V60.4427C118.01 60.8127 117.95 61.1827 117.85 61.5527C117.46 63.0027 116.36 64.2527 114.54 65.2927L93.95 77.1827C83.78 83.0527 71.3599 86.8527 56.6899 88.5727C42.0199 90.2927 28.12 89.2427 14.99 85.4327C14.4 85.2627 13.8498 85.0727 13.3398 84.8627C12.8298 84.6527 12.3201 84.4027 11.8101 84.1027C11.3001 83.8027 10.86 83.5127 10.49 83.2127C10.13 82.9227 9.8 82.6027 9.5 82.2727C4.96 77.0427 2.68994 71.6027 2.68994 65.9527V45.9527C2.68994 49.2827 3.48006 52.5327 5.06006 55.7227C6.15006 57.9427 7.63 60.1227 9.5 62.2727C9.8 62.6027 10.13 62.9227 10.49 63.2127C10.86 63.5127 11.3001 63.8027 11.8101 64.1027C12.3201 64.4027 12.8298 64.6527 13.3398 64.8627C13.8498 65.0727 14.4 65.2627 14.99 65.4327C23.68 67.9627 32.7098 69.2627 42.0798 69.3627C44.9998 69.4027 47.9599 69.3127 50.9399 69.1027C52.8399 68.9727 54.7599 68.7927 56.6899 68.5727C58.2799 68.3827 59.8399 68.1727 61.3799 67.9327C67.5599 66.9927 73.3199 65.6527 78.6499 63.9027C84.2199 62.1027 89.31 59.8527 93.95 57.1827L109.61 48.1427L114.54 45.2927C116.36 44.2527 117.46 43.0027 117.85 41.5527C117.96 41.1527 118.02 40.7527 118.02 40.3527Z" class="pr-icon-iso-duotone-primary-stroke" stroke-linejoin="round"/>
</svg>