<svg width="24" height="24" viewBox="0 0 90 83" class="pr-icon-iso-duotone-secondary" xmlns="http://www.w3.org/2000/svg" stroke-width="1px" stroke-linecap="round" stroke-linejoin="round">
    <path d="M68.1602 20.2799L64.1902 22.5699L57.1602 26.6298C56.8202 26.8298 56.5301 27.0298 56.3001 27.2498C55.7201 27.7698 55.4302 28.3498 55.4302 28.9898V40.7199C52.5402 41.0299 49.7002 41.4799 46.9102 42.0699C40.1102 43.5099 34.1302 45.7199 28.9702 48.6999C22.7902 52.2699 18.4901 56.4699 16.0601 61.2999C15.9301 61.5599 15.8102 61.8099 15.7002 62.0699V57.11C15.7302 56.74 15.6801 56.3698 15.5301 55.9898C14.4801 53.4698 14.0101 50.9599 14.1201 48.4699C14.2201 46.0699 14.8701 43.6799 16.0601 41.2999C18.4901 36.4699 22.7902 32.2699 28.9702 28.6999C34.1302 25.7199 40.1102 23.5099 46.9102 22.0699C49.6602 21.4899 52.4601 21.0399 55.3001 20.7299C59.4901 20.2799 63.7702 20.1299 68.1602 20.2799Z" class="pr-icon-iso-duotone-primary-stroke" stroke-linejoin="round"/>
    <path d="M87.4499 17.25C87.4499 18.15 86.88 18.9401 85.72 19.6001L72.47 27.25L65.3498 31.3601C64.9898 31.5701 64.6099 31.75 64.2099 31.89C63.3299 32.2 62.3498 32.3601 61.2698 32.3601C59.7098 32.3601 58.3399 32.0201 57.1799 31.3501C56.0199 30.6801 55.4399 29.89 55.4299 28.99C55.4299 28.35 55.7198 27.77 56.2998 27.25C56.5298 27.03 56.8199 26.83 57.1599 26.63L64.1899 22.5701L68.1599 20.28C63.7699 20.13 59.4898 20.2801 55.2998 20.7301C52.4598 21.0401 49.6599 21.4901 46.9099 22.0701C40.1099 23.5101 34.13 25.7201 28.97 28.7001C22.79 32.2701 18.4898 36.47 16.0598 41.3C14.8698 43.68 14.2199 46.0701 14.1199 48.4701C14.0099 50.9601 14.4798 53.47 15.5298 55.99C15.6798 56.37 15.7299 56.7401 15.6999 57.1101C15.6499 57.6101 15.4198 58.1101 15.0298 58.5801C14.3598 59.4101 13.2399 59.9601 11.6699 60.2301C10.1099 60.5001 8.61996 60.4501 7.22996 60.0701C6.33996 59.8401 5.64989 59.5001 5.15989 59.0601C4.87989 58.8101 4.65975 58.5301 4.50975 58.2101C3.42975 55.7101 2.78984 53.22 2.60984 50.74V50.67C2.34984 47.04 3.06976 43.4401 4.76976 39.8401C7.62976 33.7701 12.9598 28.4801 20.7698 23.9701C26.9498 20.4001 34.0398 17.7301 42.0298 15.9601C46.3398 15.0001 50.7698 14.3301 55.2998 13.9401C59.1498 13.6001 63.0898 13.47 67.0998 13.55L57.0498 7.76001C55.8898 7.09001 55.3098 6.30001 55.2998 5.39001C55.2998 4.49001 55.8698 3.70004 57.0298 3.04004C58.1798 2.37004 59.5398 2.04004 61.1098 2.04004C62.6798 2.04004 64.0399 2.38005 65.1999 3.05005L85.6999 14.89C86.8599 15.56 87.4399 16.34 87.4499 17.25Z" class="pr-icon-iso-duotone-primary-stroke" stroke-linejoin="round"/>
    <path d="M87.4497 17.25V37.25C87.4497 38.15 86.8797 38.9401 85.7197 39.6001L74.4297 46.12C74.1997 45.92 73.9196 45.72 73.5996 45.54C72.4396 44.87 71.0795 44.53 69.5095 44.53C67.9495 44.52 66.5897 44.86 65.4297 45.52L61.3596 47.87L58.1797 46.04L57.2595 45.51C56.6995 45.19 56.0897 44.94 55.4297 44.77V28.99C55.4397 29.89 56.0197 30.6801 57.1797 31.3501C58.3397 32.0201 59.7095 32.3601 61.2695 32.3601C62.3495 32.3601 63.3297 32.2 64.2097 31.89C64.6097 31.75 64.9896 31.5701 65.3496 31.3601L72.4697 27.25L85.7197 19.6001C86.8797 18.9401 87.4497 18.15 87.4497 17.25Z" class="pr-icon-iso-duotone-primary-stroke" stroke-linejoin="round"/>
    <path d="M67.0999 13.5502C63.0899 13.4702 59.1498 13.6002 55.2998 13.9402V5.39014C55.3098 6.30014 55.8898 7.09013 57.0498 7.76013L67.0999 13.5502Z" class="pr-icon-iso-duotone-primary-stroke" stroke-linejoin="round"/>
    <path d="M15.7002 57.1101V56.8401" class="pr-icon-iso-duotone-primary-stroke" stroke-linejoin="round"/>
    <path d="M15.7 57.1101V76.66C15.76 77.33 15.5398 77.9701 15.0298 78.5801C14.3598 79.4101 13.2399 79.9601 11.6699 80.2301C10.1099 80.5001 8.61998 80.4501 7.22998 80.0701C5.82998 79.7001 4.91977 79.0801 4.50977 78.2101C3.21977 75.2201 2.5598 72.26 2.5498 69.3V69.2101L2.60986 50.74C2.78986 53.22 3.42977 55.7101 4.50977 58.2101C4.65977 58.5301 4.87991 58.8101 5.15991 59.0601C5.64991 59.5001 6.33998 59.8401 7.22998 60.0701C8.61998 60.4501 10.1099 60.5001 11.6699 60.2301C13.2399 59.9601 14.3598 59.4101 15.0298 58.5801C15.4198 58.1101 15.65 57.6101 15.7 57.1101Z" class="pr-icon-iso-duotone-primary-stroke" stroke-linejoin="round"/>
    <path d="M15.7002 76.8402V76.6602" class="pr-icon-iso-duotone-primary-stroke" stroke-linejoin="round"/>
    <path d="M75.4099 57.3401C75.4099 57.4901 75.3899 57.65 75.3499 57.79C75.1999 58.51 74.6399 59.14 73.6799 59.69C72.5299 60.36 71.1699 60.69 69.5999 60.69C68.0299 60.69 66.6698 60.35 65.5098 59.68L61.4099 57.31L57.3398 59.66C56.1798 60.33 54.8198 60.66 53.2498 60.66C51.6798 60.66 50.3199 60.32 49.1599 59.65C47.9999 58.98 47.4199 58.19 47.4099 57.29C47.4099 56.38 47.9799 55.6 49.1399 54.93L53.21 52.58L49.1099 50.2101C47.9499 49.5401 47.3699 48.7501 47.3599 47.8501C47.3599 46.9401 47.9298 46.16 49.0898 45.49C50.2398 44.83 51.5999 44.49 53.1699 44.5C53.9699 44.5 54.7299 44.59 55.4299 44.77C56.0899 44.94 56.6998 45.19 57.2598 45.51L58.1799 46.04L61.3599 47.87L65.4299 45.52C66.5899 44.86 67.9498 44.52 69.5098 44.53C71.0798 44.53 72.4399 44.87 73.5999 45.54C73.9199 45.72 74.1999 45.92 74.4299 46.12C75.0499 46.65 75.3499 47.24 75.3499 47.9V47.92C75.3499 48.81 74.7699 49.6 73.6299 50.26L69.5598 52.6101L73.6599 54.9701C74.6199 55.5201 75.1799 56.16 75.3499 56.88C75.3899 57.03 75.4099 57.1801 75.4099 57.3401Z" class="pr-icon-iso-duotone-primary-stroke" stroke-linejoin="round"/>
    <path d="M53.21 52.5801L49.1399 54.9301C47.9799 55.6001 47.4099 56.38 47.4099 57.29V68.26C47.3799 68.13 47.3599 67.9901 47.3599 67.8501V47.8501C47.3699 48.7501 47.9499 49.5401 49.1099 50.2101L53.21 52.5801Z" class="pr-icon-iso-duotone-primary-stroke" stroke-linejoin="round"/>
    <path d="M61.4102 57.3101V77.3101L57.3401 79.66C56.1801 80.33 54.82 80.66 53.25 80.66C51.68 80.66 50.3202 80.32 49.1602 79.65C48.0002 78.98 47.4202 78.19 47.4102 77.29V57.29C47.4202 58.19 48.0002 58.98 49.1602 59.65C50.3202 60.32 51.69 60.66 53.25 60.66C54.81 60.66 56.1801 60.33 57.3401 59.66L61.4102 57.3101Z" class="pr-icon-iso-duotone-primary-stroke" stroke-linejoin="round"/>
    <path d="M75.4102 57.3401V77.3401C75.4102 78.2401 74.8402 79.0301 73.6802 79.6901C72.5302 80.3601 71.1701 80.6901 69.6001 80.6901C68.0301 80.6901 66.67 80.3501 65.51 79.6801L61.4102 77.3101V57.3101L65.51 59.6801C66.67 60.3501 68.0301 60.6901 69.6001 60.6901C71.1701 60.6901 72.5302 60.3601 73.6802 59.6901C74.6402 59.1401 75.2001 58.51 75.3501 57.79C75.3901 57.65 75.4102 57.4901 75.4102 57.3401Z" class="pr-icon-iso-duotone-primary-stroke" stroke-linejoin="round"/>
    <path d="M75.3496 47.9199V56.8799C75.1796 56.1599 74.6197 55.52 73.6597 54.97L69.5596 52.61L73.6296 50.2599C74.7696 49.5999 75.3496 48.8099 75.3496 47.9199Z" class="pr-icon-iso-duotone-primary-stroke" stroke-linejoin="round"/>
</svg>