<svg width="48" height="48" viewBox="0 0 127 93" class="pr-icon-iso-duotone-secondary"
     xmlns="http://www.w3.org/2000/svg" stroke-width="1px" stroke-linecap="round" stroke-linejoin="round">
    <path d="M82.5098 70.77V71.26C82.5098 71.17 82.5098 71.07 82.5098 70.97C82.5098 70.87 82.5098 70.82 82.5098 70.77Z" class="pr-icon-iso-duotone-primary-stroke" stroke-linejoin="round"/>
    <path d="M82.5199 50.99V70.64V71.26C82.4199 72.91 81.3399 74.33 79.2999 75.51L77.0599 76.81V60.05C77.0599 59.18 76.4999 58.42 75.3799 57.78L79.2999 55.51C81.4499 54.27 82.5299 52.76 82.5299 50.99H82.5199Z" class="pr-icon-iso-duotone-primary-stroke" stroke-linejoin="round"/>
    <path d="M45.3697 28.1801V48.1801C45.3697 49.0401 44.8097 49.8001 43.7097 50.4301L28.0096 59.5001C26.8896 60.1401 25.5796 60.4601 24.0696 60.4601C22.5596 60.4601 21.2496 60.1301 20.1296 59.4901L4.31964 50.3601C3.20964 49.7201 2.63965 48.9601 2.63965 48.0901V28.0901C2.63965 28.9601 3.20964 29.7201 4.31964 30.3601L20.1296 39.4901C20.4196 39.6601 20.7297 39.8001 21.0497 39.9301C21.9497 40.2801 22.9496 40.4601 24.0696 40.4601C25.5796 40.4601 26.8896 40.1401 28.0096 39.5001L43.7097 30.4301C44.8097 29.8001 45.3697 29.0401 45.3697 28.1801Z" class="pr-icon-iso-duotone-primary-stroke" stroke-linejoin="round"/>
    <path d="M81.4097 48.1501V48.2101C81.4097 48.2101 81.4097 48.1801 81.4197 48.1601H81.4097V48.1501Z" class="pr-icon-iso-duotone-primary-stroke" stroke-linejoin="round"/>
    <path d="M82.4096 50.0402C82.2496 49.3702 81.9196 48.7402 81.4196 48.1602C81.4096 48.1802 81.4096 48.1902 81.4096 48.2102V48.1502C80.8896 47.5302 80.1596 46.9501 79.2396 46.4201C77.0696 45.1601 74.4396 44.5301 71.3596 44.5301C68.2696 44.5201 65.6496 45.1401 63.4896 46.3901L59.5596 48.6502C58.4396 48.0102 57.1296 47.6802 55.6196 47.6802C54.1096 47.6802 52.7996 48.0001 51.6896 48.6401L39.9096 55.4402C38.7896 56.0802 38.2396 56.8402 38.2496 57.7102C38.2496 58.5802 38.8096 59.3402 39.9296 59.9902L53.6196 67.8901L55.7296 69.1101C56.8496 69.7601 58.1696 70.0802 59.6796 70.0902C61.1896 70.0902 62.4996 69.7701 63.6096 69.1301L71.5696 64.5402L75.3896 62.3302C76.4896 61.6902 77.0496 60.9402 77.0496 60.0702V60.0502C77.0496 59.1802 76.4896 58.4201 75.3696 57.7801L79.2896 55.5101C81.4396 54.2701 82.5196 52.7602 82.5196 50.9902V50.9702C82.5196 50.6502 82.4796 50.3402 82.4096 50.0402ZM75.3396 53.2301L71.4196 55.5001L63.5096 50.9302L67.4396 48.6701C68.5496 48.0301 69.8596 47.7102 71.3696 47.7102C72.8796 47.7102 74.1996 48.0402 75.3196 48.6802C76.4396 49.3302 76.9996 50.0902 76.9996 50.9602C77.0096 51.8302 76.4496 52.5901 75.3396 53.2301Z" class="pr-icon-iso-duotone-primary-stroke" stroke-linejoin="round"/>
    <path d="M76.9998 50.9602C77.0098 51.8302 76.4498 52.5902 75.3398 53.2302L71.4198 55.5002L63.5098 50.9302L67.4398 48.6702C68.5498 48.0302 69.8598 47.7102 71.3698 47.7102C72.8798 47.7102 74.1998 48.0402 75.3198 48.6802C76.4398 49.3302 76.9998 50.0902 76.9998 50.9602Z" class="pr-icon-iso-duotone-primary-stroke" stroke-linejoin="round"/>
    <path d="M80.7098 6.63011V6.66011C80.6898 7.09011 80.4898 7.52011 80.1198 7.93011C79.3998 8.73011 78.3398 9.28011 76.9298 9.60011C75.5198 9.92011 74.0898 9.97011 72.6398 9.74011C66.9298 8.78011 61.1198 8.6901 55.2098 9.4801C49.3098 10.2601 44.1298 11.9401 39.6798 14.5101C36.1498 16.5501 33.5998 18.8401 32.0398 21.3701C30.4798 23.9101 29.8398 26.5101 30.1198 29.1601L35.8098 25.8701C36.9198 25.2301 38.2298 24.9101 39.7398 24.9101C40.7498 24.9201 41.6798 25.0601 42.5198 25.3601C42.9298 25.5001 43.3198 25.6801 43.6898 25.8901C44.7998 26.5301 45.3698 27.2901 45.3698 28.1601V28.1801C45.3698 29.0401 44.8098 29.8001 43.7098 30.4301L28.0098 39.5001C26.8898 40.1401 25.5798 40.4601 24.0698 40.4601C22.9498 40.4601 21.9498 40.2801 21.0498 39.9301C20.7298 39.8001 20.4198 39.6601 20.1298 39.4901L4.31977 30.3601C3.20977 29.7201 2.63978 28.9601 2.63978 28.0901C2.62978 27.2101 3.18981 26.4601 4.29981 25.8101C5.40981 25.1701 6.71981 24.8501 8.22981 24.8601C9.73981 24.8601 11.0598 25.1801 12.1798 25.8301L18.9898 29.7601C18.5098 26.1601 19.3498 22.6401 21.4898 19.1901C23.6398 15.7501 27.0698 12.6701 31.7798 9.9501C37.9298 6.4001 45.1098 4.12011 53.3098 3.11011C61.5098 2.10011 69.5198 2.34011 77.3398 3.83011C78.7798 4.06011 79.7898 4.61011 80.3498 5.46011C80.6098 5.85011 80.7298 6.24011 80.7098 6.63011Z" class="pr-icon-iso-duotone-primary-stroke" stroke-linejoin="round"/>
    <path d="M124.14 28.3102V28.3402C124.14 29.2002 123.58 29.9402 122.48 30.5802C121.37 31.2202 120.06 31.5402 118.55 31.5402C117.04 31.5302 115.72 31.2102 114.6 30.5602L107.79 26.6302C107.86 27.3702 107.89 28.0902 107.87 28.7902C107.82 31.5302 107.11 34.0302 105.77 36.2902C105.74 36.3402 105.71 36.3902 105.67 36.4402C103.99 39.2202 101.65 41.7402 98.6298 44.0102C97.6498 44.7202 96.4198 45.0902 94.9398 45.1102C93.4598 45.1202 92.1698 44.8102 91.0498 44.1602C90.1098 43.6202 89.5598 43.0002 89.4098 42.3002C89.3698 42.1702 89.3598 42.0302 89.3598 41.8902C89.3598 41.0102 89.8098 40.2002 90.7198 39.4402C92.8198 37.7002 94.3498 35.8102 95.3198 33.7702C96.2998 31.7202 96.7398 29.5402 96.6598 27.2302L90.9698 30.5202C89.8598 31.1602 88.5498 31.4802 87.0398 31.4802C85.5298 31.4802 84.2098 31.1502 83.0898 30.5102C81.9798 29.8602 81.4098 29.1002 81.4098 28.2302C81.3998 27.3602 81.9598 26.6002 83.0698 25.9602L98.7798 16.8902C99.8898 16.2502 101.2 15.9302 102.71 15.9302C104.22 15.9302 105.53 16.2602 106.65 16.9002L122.46 26.0302C123.57 26.6702 124.14 27.4302 124.14 28.3102Z" class="pr-icon-iso-duotone-primary-stroke" stroke-linejoin="round"/>
    <path d="M107.87 28.79V28.51" class="pr-icon-iso-duotone-primary-stroke" stroke-linejoin="round"/>
    <path d="M96.6597 27.23C96.7397 29.54 96.2996 31.72 95.3196 33.77C94.3496 35.81 92.8197 37.7 90.7197 39.44C89.8097 40.2 89.3597 41.01 89.3597 41.89V51.19C88.6497 51.38 87.8697 51.48 87.0397 51.48C85.5297 51.48 84.2097 51.15 83.0897 50.51C82.8297 50.36 82.5997 50.2 82.4097 50.04C82.2497 49.37 81.9197 48.74 81.4197 48.16H81.4097V28.23C81.4097 29.1 81.9797 29.86 83.0897 30.51C84.2097 31.15 85.5297 31.48 87.0397 31.48C88.5497 31.48 89.8597 31.16 90.9697 30.52L96.6597 27.23Z" class="pr-icon-iso-duotone-primary-stroke" stroke-linejoin="round"/>
    <path d="M80.7095 6.66016V26.6602C80.6895 27.0902 80.4896 27.5202 80.1196 27.9302C79.3996 28.7302 78.3396 29.2802 76.9296 29.6002C75.5196 29.9202 74.0895 29.9702 72.6395 29.7402C66.9295 28.7802 61.1195 28.6901 55.2095 29.4801C51.6695 29.9501 48.3896 30.7402 45.3696 31.8502V28.1602C45.3696 27.2902 44.7995 26.5302 43.6895 25.8902C43.3195 25.6802 42.9295 25.5002 42.5195 25.3602C41.6795 25.0602 40.7496 24.9202 39.7396 24.9102C38.2296 24.9102 36.9196 25.2301 35.8096 25.8701L30.1196 29.1602C29.8396 26.5102 30.4796 23.9101 32.0396 21.3701C33.5996 18.8401 36.1496 16.5501 39.6796 14.5101C44.1296 11.9401 49.3095 10.2601 55.2095 9.48015C61.1195 8.69015 66.9295 8.78016 72.6395 9.74016C74.0895 9.97016 75.5196 9.92016 76.9296 9.60016C78.3396 9.28016 79.3996 8.73016 80.1196 7.93016C80.4896 7.52016 80.6895 7.09016 80.7095 6.66016Z" class="pr-icon-iso-duotone-primary-stroke" stroke-linejoin="round"/>
    <path d="M80.71 26.7202V26.6602" class="pr-icon-iso-duotone-primary-stroke" stroke-linejoin="round"/>
    <path d="M77.05 60.0702V80.0502C77.06 80.9302 76.5 81.6802 75.39 82.3302L63.61 89.1302C62.5 89.7702 61.19 90.0902 59.68 90.0902C58.17 90.0802 56.85 89.7602 55.73 89.1102L39.93 79.9902C38.81 79.3402 38.25 78.5802 38.25 77.7102V57.7102C38.25 58.5802 38.81 59.3402 39.93 59.9902L53.62 67.8902L55.73 69.1102C56.85 69.7602 58.17 70.0802 59.68 70.0902C61.19 70.0902 62.5 69.7702 63.61 69.1302L71.5699 64.5402L75.39 62.3302C76.49 61.6902 77.05 60.9402 77.05 60.0702Z" class="pr-icon-iso-duotone-primary-stroke" stroke-linejoin="round"/>
    <path d="M107.87 28.79V48.93C107.79 51.62 107.09 54.07 105.77 56.29C104.08 59.13 101.7 61.7 98.6298 64.01C97.6498 64.72 96.4198 65.09 94.9398 65.11C93.4598 65.12 92.1699 64.81 91.0499 64.16C89.9299 63.52 89.3599 62.76 89.3599 61.89V42.33L89.4099 42.3C89.5599 43 90.1099 43.62 91.0499 44.16C92.1699 44.81 93.4598 45.12 94.9398 45.11C96.4198 45.09 97.6498 44.72 98.6298 44.01C101.65 41.74 103.99 39.22 105.67 36.44C105.71 36.39 105.74 36.34 105.77 36.29C107.11 34.03 107.82 31.53 107.87 28.79Z" class="pr-icon-iso-duotone-primary-stroke" stroke-linejoin="round"/>
    <path d="M124.14 28.3401V48.3501C124.14 48.8101 123.98 49.2201 123.66 49.6101C123.39 49.9601 122.99 50.2801 122.48 50.5801C121.37 51.2201 120.06 51.5401 118.55 51.5401C117.04 51.5301 115.72 51.2101 114.6 50.5601L107.87 46.6801V28.7901C107.89 28.0901 107.86 27.3701 107.79 26.6301L114.6 30.5601C115.72 31.2101 117.04 31.5301 118.55 31.5401C120.06 31.5401 121.37 31.2201 122.48 30.5801C123.58 29.9401 124.14 29.2001 124.14 28.3401Z" class="pr-icon-iso-duotone-primary-stroke" stroke-linejoin="round"/>
    <path d="M124.14 48.4701V48.3501" class="pr-icon-iso-duotone-primary-stroke" stroke-linejoin="round"/>
</svg>