<svg width="48" height="48" viewBox="0 0 128 95" class="pr-icon-iso-duotone-secondary"
     xmlns="http://www.w3.org/2000/svg" stroke-width="1px" stroke-linecap="round" stroke-linejoin="round">
    <path d="M122.46 33.3601L71.2301 3.78003C69.2201 2.62003 66.79 2.04003 63.93 2.03003C61.07 2.03003 58.64 2.60012 56.64 3.75012L5.73006 33.15C3.73006 34.3 2.74008 35.7001 2.75008 37.3501C2.76007 39.0001 3.7701 40.4101 5.7801 41.5701L15.7801 47.3501L23.0999 51.5701L57.0101 71.15C59.0201 72.31 61.4501 72.89 64.3101 72.9C67.1701 72.9 69.5999 72.33 71.5999 71.17L79.7301 66.4801L94.2701 58.0801L101.55 53.8801L112.46 47.5801L122.51 41.78C124.5 40.64 125.49 39.2301 125.49 37.5901V37.5701C125.48 35.9301 124.47 34.5201 122.46 33.3601ZM86.95 53.8501L72.41 62.2501L64.2801 66.9501L30.38 47.3701L23.0501 43.15L13.0501 37.3701L38.5101 22.6801L48.5001 28.4501L81.5301 47.52L89.7301 52.2501L86.95 53.8501ZM104.26 39.64C103.23 40.24 102.01 40.53 100.61 40.53C100.48 40.53 100.35 40.53 100.23 40.53C98.9901 40.48 97.9 40.18 96.96 39.64L82.3201 31.1901C81.3901 30.6501 80.8701 30.0201 80.7801 29.3101C80.7701 29.2301 80.7601 29.1601 80.7601 29.0801C80.7601 28.2701 81.2701 27.5701 82.3001 26.9801C83.3301 26.3801 84.55 26.0901 85.94 26.0901C87.33 26.0901 88.5599 26.3901 89.5999 26.9901L104.23 35.4401C105.27 36.0401 105.79 36.74 105.8 37.55C105.8 38.36 105.29 39.06 104.26 39.65V39.64Z" class="pr-icon-iso-duotone-primary-stroke" stroke-linejoin="round"/>
    <path d="M105.8 37.54C105.8 38.35 105.29 39.05 104.26 39.64C103.23 40.24 102.01 40.53 100.61 40.53C100.48 40.53 100.35 40.53 100.23 40.53C98.9897 40.48 97.8997 40.18 96.9597 39.64L82.3198 31.1901C81.3898 30.6501 80.8698 30.0201 80.7798 29.3101C80.7698 29.2301 80.7598 29.1601 80.7598 29.0801C80.7598 28.2701 81.2698 27.5701 82.2998 26.9801C83.3298 26.3801 84.5497 26.0901 85.9397 26.0901C87.3297 26.0901 88.5596 26.3901 89.5996 26.9901L104.23 35.4401C105.27 36.0401 105.79 36.74 105.8 37.55V37.54Z" class="pr-icon-iso-duotone-primary-stroke" stroke-linejoin="round"/>
    <path d="M125.49 37.5901V57.5701C125.49 59.2201 124.51 60.63 122.51 61.78L71.5999 91.17C69.5999 92.33 67.1701 92.9 64.3101 92.9C61.4501 92.9 59.02 92.31 57.01 91.15L5.78003 61.5701C3.77003 60.4101 2.76 59.0001 2.75 57.3501V37.3501C2.76 39.0001 3.77003 40.4101 5.78003 41.5701L15.78 47.3501L23.0999 51.5701L57.01 71.15C59.02 72.31 61.4501 72.89 64.3101 72.9C67.1701 72.9 69.5999 72.33 71.5999 71.17L79.73 66.4801L94.27 58.0801L101.55 53.8801L112.46 47.5801L122.51 41.78C124.5 40.64 125.49 39.2301 125.49 37.5901Z" class="pr-icon-iso-duotone-primary-stroke" stroke-linejoin="round"/>
    <path d="M38.5107 22.6801V42.6801L30.3806 47.3701L23.0508 43.15L13.0508 37.3701L38.5107 22.6801Z" class="pr-icon-iso-duotone-primary-stroke" stroke-linejoin="round"/>
    <path d="M89.7297 52.2501L86.9497 53.8501L72.4097 62.2501L38.5098 42.6801V22.6801L48.4998 28.4501L81.5298 47.52L89.7297 52.2501Z" class="pr-icon-iso-duotone-primary-stroke" stroke-linejoin="round"/>
</svg>