<svg width="24" height="24" viewBox="0 0 111 86" class="pr-icon-iso-duotone-secondary" xmlns="http://www.w3.org/2000/svg" stroke-width="1px" stroke-linecap="round" stroke-linejoin="round">
    <path d="M32.2407 54.4V74.4L18.6309 66.54V46.54L32.2407 54.4Z" class="pr-icon-iso-duotone-primary-stroke" stroke-linejoin="round"/>
    <path d="M18.6301 46.5401V66.5401L6.76001 66.5201C6.20001 66.5201 5.66015 66.4501 5.15015 66.3201C4.64015 66.1901 4.19004 66.0101 3.79004 65.7801C2.93004 65.2801 2.5 64.7301 2.5 64.1201V44.1201C2.5 44.7301 2.93004 45.2801 3.79004 45.7801C4.17004 46.0001 4.60009 46.1801 5.09009 46.3001C5.11009 46.3101 5.13015 46.3101 5.15015 46.3201C5.66015 46.4501 6.20001 46.5201 6.76001 46.5201H12.47L18.6301 46.5401Z" class="pr-icon-iso-duotone-primary-stroke" stroke-linejoin="round"/>
    <path d="M107.51 19.78L78.6001 3.07996C77.8601 2.65996 77.01 2.44994 76.05 2.43994C75.09 2.43994 74.24 2.64996 73.51 3.07996C72.78 3.49996 72.4099 3.98998 72.4099 4.53998C72.4199 5.09998 72.79 5.58995 73.52 6.00995L87.1301 13.87L79.51 15.3199C77.15 14.0299 74.7799 12.86 72.4099 11.8C68.3399 9.97999 64.2401 8.49999 60.1301 7.35999C53.6201 5.54999 47.6399 6.22994 42.1699 9.37994L10.05 27.93C6.73005 29.84 5.07009 32.13 5.09009 34.77C5.10009 37.41 6.78013 39.6999 10.1301 41.6299H6.73999C6.12999 41.6299 5.58009 41.68 5.09009 41.79C4.05009 42 3.30009 42.45 2.84009 43.14C2.61009 43.48 2.5 43.81 2.5 44.12C2.5 44.73 2.93004 45.28 3.79004 45.78C4.17004 46 4.60009 46.18 5.09009 46.3C5.11009 46.31 5.13015 46.3099 5.15015 46.3199C5.66015 46.4499 6.20001 46.52 6.76001 46.52H12.47L18.6301 46.54L32.24 54.4L32.28 61.2499C32.28 61.5799 32.3901 61.89 32.6201 62.18C32.8501 62.48 33.1601 62.74 33.5601 62.97C33.6701 63.04 33.7901 63.1 33.9001 63.15H33.9099C35.1799 63.78 36.6099 63.91 38.1799 63.54C39.9099 63.13 40.76 62.38 40.76 61.27V59.31C42.87 60.53 45.2301 61.3699 47.8501 61.8199C49.3601 62.0899 50.9501 62.22 52.6301 62.22C57.2101 62.22 61.16 61.27 64.49 59.35L65.76 58.62L75.9001 52.7599L92.3701 43.2499L96.6001 40.81C97.0401 40.56 97.4501 40.3 97.8301 40.05C99.6701 38.83 100.9 37.5899 101.53 36.3199C101.83 35.7099 101.99 35.11 102.02 34.49C102.09 33.23 101.59 31.9399 100.53 30.6299C98.91 28.6199 96.7099 26.55 93.9399 24.42C91.7499 22.74 89.2101 21.0099 86.3101 19.2499L93.9399 17.8L102.44 22.71C103.18 23.13 104.03 23.35 104.99 23.35C105.95 23.35 106.8 23.14 107.53 22.72C108.25 22.3 108.62 21.82 108.62 21.27V21.2499C108.62 20.6999 108.25 20.21 107.51 19.78ZM45.75 44.6299C44.99 45.0799 44.14 45.4 43.2 45.6C42.42 45.77 41.5699 45.85 40.6699 45.85C38.6999 45.85 37.0001 45.43 35.5801 44.61C34.1601 43.8 33.4499 42.82 33.4399 41.67C33.4399 40.53 34.14 39.55 35.55 38.74C36.96 37.93 38.6501 37.52 40.6301 37.53C40.9601 37.53 41.2801 37.5299 41.5901 37.5699C43.1601 37.6799 44.54 38.0799 45.72 38.7599C47.14 39.5799 47.8501 40.56 47.8601 41.7C47.8601 42.84 47.16 43.8199 45.75 44.6299ZM86.4199 38.83L76.28 44.6899L46.4399 27.46L45.5901 26.97L35.45 21.12L45.5901 15.2599L80.1301 35.2L86.4199 38.83Z" class="pr-icon-iso-duotone-primary-stroke" stroke-linejoin="round"/>
    <path d="M47.8596 41.6999C47.8596 42.8399 47.1595 43.8199 45.7495 44.6299C44.9895 45.0799 44.1395 45.4 43.1995 45.6C42.4195 45.77 41.5694 45.85 40.6694 45.85C38.6994 45.85 36.9996 45.43 35.5796 44.61C34.1596 43.8 33.4495 42.82 33.4395 41.67C33.4395 40.53 34.1396 39.55 35.5496 38.74C36.9596 37.93 38.6496 37.52 40.6296 37.53C40.9596 37.53 41.2796 37.5299 41.5896 37.5699C43.1596 37.6799 44.5395 38.0799 45.7195 38.7599C47.1395 39.5799 47.8496 40.5599 47.8596 41.6999Z" class="pr-icon-iso-duotone-primary-stroke" stroke-linejoin="round"/>
    <path d="M45.5894 15.26V26.97L35.4492 21.1201L45.5894 15.26Z" class="pr-icon-iso-duotone-primary-stroke" stroke-linejoin="round"/>
    <path d="M86.4197 38.83L76.2798 44.69L46.4397 27.46L45.5898 26.97V15.26L80.1299 35.2L86.4197 38.83Z" class="pr-icon-iso-duotone-primary-stroke" stroke-linejoin="round"/>
    <path d="M93.9404 17.8V24.42C91.7504 22.74 89.2105 21.01 86.3105 19.25L93.9404 17.8Z" class="pr-icon-iso-duotone-primary-stroke" stroke-linejoin="round"/>
    <path d="M108.62 21.27V41.25C108.63 41.81 108.26 42.29 107.53 42.72C106.8 43.14 105.95 43.35 104.99 43.35C104.03 43.35 103.179 43.13 102.439 42.71L102.02 42.47V34.4901C102.09 33.2301 101.59 31.94 100.53 30.63C98.9095 28.62 96.7095 26.55 93.9395 24.42V17.8L102.439 22.71C103.179 23.13 104.03 23.35 104.99 23.35C105.95 23.35 106.8 23.14 107.53 22.72C108.25 22.3 108.62 21.82 108.62 21.27Z" class="pr-icon-iso-duotone-primary-stroke" stroke-linejoin="round"/>
    <path d="M87.1304 13.8701L79.5103 15.32C77.1503 14.03 74.7802 12.86 72.4102 11.8V4.54004C72.4202 5.10004 72.7903 5.59001 73.5203 6.01001L87.1304 13.8701Z" class="pr-icon-iso-duotone-primary-stroke" stroke-linejoin="round"/>
    <path d="M102.02 54.3101V54.0601" class="pr-icon-iso-duotone-primary-stroke" stroke-linejoin="round"/>
    <path d="M102.02 34.4901V34.3501" class="pr-icon-iso-duotone-primary-stroke" stroke-linejoin="round"/>
    <path d="M40.7598 81.2698V79.3198" class="pr-icon-iso-duotone-primary-stroke" stroke-linejoin="round"/>
    <path d="M40.7603 79.3199L40.7502 79.3099V81.2699C40.7602 82.3799 39.9102 83.1299 38.1802 83.5399C36.4602 83.9399 34.9203 83.7499 33.5603 82.9699C33.1603 82.7399 32.8504 82.4799 32.6204 82.1799C32.3904 81.8899 32.2803 81.5799 32.2803 81.2499L32.2402 74.3999V54.3999L32.2803 61.2499C32.2803 61.5799 32.3904 61.8899 32.6204 62.1799C32.8504 62.4799 33.1603 62.7399 33.5603 62.9699C33.6703 63.0399 33.7904 63.0999 33.9004 63.1499H33.9102C35.1802 63.7799 36.6102 63.9099 38.1802 63.5399C39.9102 63.1299 40.7603 62.3799 40.7603 61.2699V79.3199Z" class="pr-icon-iso-duotone-primary-stroke" stroke-linejoin="round"/>
    <path d="M102.02 34.49V54.06C102.15 56.4 100.34 58.65 96.5999 60.81L64.4897 79.35C61.1597 81.27 57.2099 82.23 52.6299 82.22C48.0499 82.21 44.0998 81.2399 40.7598 79.3199V59.31C42.8698 60.53 45.2299 61.3699 47.8499 61.8199C49.3599 62.0899 50.9499 62.22 52.6299 62.22C57.2099 62.22 61.1597 61.27 64.4897 59.35L65.7598 58.62L75.8999 52.7599L92.3699 43.2499L96.5999 40.81C97.0399 40.56 97.4498 40.3 97.8298 40.05C99.6698 38.83 100.9 37.5899 101.53 36.3199C101.83 35.7099 101.99 35.11 102.02 34.49Z" class="pr-icon-iso-duotone-primary-stroke" stroke-linejoin="round"/>
    <path d="M10.1299 41.63H6.73975C6.12975 41.63 5.57984 41.68 5.08984 41.79V34.77C5.09984 37.41 6.77988 39.7 10.1299 41.63Z" class="pr-icon-iso-duotone-primary-stroke" stroke-linejoin="round"/>
</svg>