<svg width="48" height="48" viewBox="0 0 126 72" class="pr-icon-iso-duotone-secondary"
     xmlns="http://www.w3.org/2000/svg" stroke-width="1px" stroke-linecap="round" stroke-linejoin="round">
    <path d="M95.3698 46.2773C94.8698 45.9873 94.4796 45.6473 94.1996 45.2673C93.9196 44.8773 93.7797 44.4973 93.7797 44.1073V48.7373C94.9397 48.1073 96.1596 47.5373 97.4196 47.0273C96.6696 46.8773 95.9898 46.6273 95.3698 46.2773ZM93.7797 64.1073V62.5073C93.7297 63.0273 93.7297 63.5673 93.7797 64.1073Z" class="pr-icon-iso-duotone-primary-stroke" stroke-linejoin="round"/>
    <path d="M123.8 20.5374V32.1273C123.58 31.5973 123.1 31.1174 122.36 30.6874C121.86 30.3974 121.28 30.1774 120.61 30.0074C119.95 29.8474 119.28 29.7674 118.62 29.7674C115.24 29.6674 111.99 29.9374 108.86 30.5874C105.74 31.2374 102.96 32.2674 100.53 33.6674C98.0998 35.0674 96.3197 36.6774 95.1997 38.4774C94.6797 39.3074 94.2998 40.1574 94.0598 41.0174C93.7698 42.0274 93.6798 43.0574 93.7798 44.1074V48.7374C93.4698 48.8974 93.1599 49.0674 92.8599 49.2374C89.3899 51.2474 86.8099 53.5274 85.1299 56.0674C83.4599 58.5974 82.6798 61.2174 82.8098 63.8974C82.8698 64.3174 82.7698 64.7273 82.5198 65.1273C82.2798 65.5173 81.8798 65.8774 81.3298 66.1974C80.3298 66.7774 79.1197 67.0573 77.6797 67.0573C76.2397 67.0573 75.0198 66.7673 74.0198 66.1873C73.5198 65.8973 73.1399 65.5674 72.8899 65.1974C72.6399 64.8374 72.5098 64.4574 72.5098 64.0774V44.0774C72.5098 44.4574 72.6399 44.8374 72.8899 45.1974C73.1399 45.5674 73.5198 45.8974 74.0198 46.1874C75.0198 46.7674 76.2397 47.0574 77.6797 47.0574C79.1197 47.0574 80.3298 46.7774 81.3298 46.1974C81.8798 45.8774 82.2798 45.5173 82.5198 45.1273C82.7698 44.7273 82.8698 44.3174 82.8098 43.8974C82.6798 41.2174 83.4599 38.5974 85.1299 36.0674C86.8099 33.5274 89.3899 31.2474 92.8599 29.2374C96.3399 27.2374 100.28 25.7574 104.68 24.8274C109.08 23.8874 113.6 23.4574 118.25 23.5374C118.97 23.5674 119.68 23.5074 120.37 23.3674C121.06 23.2274 121.68 22.9974 122.24 22.6774C123.27 22.0774 123.8 21.3674 123.8 20.5374Z" class="pr-icon-iso-duotone-primary-stroke" stroke-linejoin="round"/>
    <path d="M123.949 32.8673V52.8473C123.959 53.6773 123.429 54.3973 122.389 55.0073C121.889 55.2873 121.309 55.5173 120.639 55.6673C119.979 55.8273 119.319 55.9073 118.649 55.9073C116.659 55.9073 114.789 56.0473 113.049 56.3573C111.299 56.6573 109.689 57.2373 108.199 58.0973C106.819 58.8873 105.839 59.7973 105.259 60.7973C104.689 61.8073 104.399 62.8473 104.409 63.9373C104.469 64.4173 104.359 64.8473 104.079 65.2373C103.809 65.6173 103.389 65.9673 102.839 66.2873C101.789 66.8873 100.549 67.1973 99.1094 67.1873C97.6694 67.1873 96.4194 66.8773 95.3694 66.2773C94.8694 65.9873 94.4792 65.6473 94.1992 65.2673C93.9192 64.8773 93.7793 64.4973 93.7793 64.1073V48.7373C94.9393 48.1073 96.1592 47.5373 97.4192 47.0273C97.9492 47.1373 98.5094 47.1873 99.1094 47.1873C100.549 47.1973 101.789 46.8873 102.839 46.2873C103.389 45.9673 103.809 45.6173 104.079 45.2373C104.149 45.1373 104.209 45.0373 104.259 44.9273C104.409 44.6273 104.449 44.2973 104.409 43.9373C104.399 42.8473 104.689 41.8073 105.259 40.7973C105.839 39.7973 106.819 38.8873 108.199 38.0973C108.289 38.0473 108.379 37.9973 108.469 37.9473C109.879 37.1673 111.409 36.6373 113.049 36.3573C114.789 36.0473 116.659 35.9073 118.649 35.9073C119.319 35.9073 119.979 35.8273 120.639 35.6673C121.309 35.5173 121.889 35.2873 122.389 35.0073C123.109 34.5873 123.579 34.1173 123.799 33.5873C123.899 33.3573 123.949 33.1173 123.949 32.8673Z" class="pr-icon-iso-duotone-primary-stroke" stroke-linejoin="round"/>
    <path d="M65.7096 40.5173V40.6473C65.7096 41.2873 65.5596 41.9273 65.2696 42.5773C65.0196 43.1473 64.6796 43.6773 64.2496 44.1873C63.5796 44.9873 62.6797 45.7073 61.5597 46.3573L58.9097 47.8873C58.3397 48.2173 57.7397 48.4873 57.0897 48.7073C55.6697 49.2073 54.0596 49.4573 52.2696 49.4573C49.6696 49.4473 47.4497 48.9173 45.6097 47.8573L20.3597 33.2873L5.6097 24.7673C3.7797 23.7073 2.85969 22.4273 2.84969 20.9273C2.83969 19.4273 3.74966 18.1473 5.56966 17.0973L8.21956 15.5673C10.0396 14.5073 12.2296 13.7973 14.7696 13.4173C17.3196 13.0373 19.8397 13.0873 22.3297 13.5773C26.5997 14.3773 31.0097 15.5273 35.5597 17.0073C39.3297 18.2373 43.0097 19.7973 46.5897 21.7073C47.3297 22.0973 48.0696 22.5073 48.7996 22.9273C50.1696 23.7273 51.4497 24.5173 52.6497 25.3273C55.1797 27.0373 57.3197 28.7873 59.0597 30.5673C61.6197 33.1973 63.5996 35.7473 64.9996 38.2073C65.4496 38.9773 65.6796 39.7473 65.7096 40.5173Z" class="pr-icon-iso-duotone-primary-stroke" stroke-linejoin="round"/>
    <path d="M84.1401 13.3973V13.4173C84.1401 16.4173 82.3299 18.9673 78.6999 21.0673C76.9199 22.0973 74.95 22.8673 72.79 23.3873C70.54 23.9373 68.0798 24.2173 65.4198 24.2073C62.7298 24.1973 60.2399 23.9173 57.9599 23.3373C55.8299 22.8073 53.88 22.0273 52.11 21.0173C48.45 18.8973 46.61 16.3373 46.59 13.3273C46.57 10.3273 48.3899 7.76729 52.0299 5.66729C55.6699 3.56729 60.1 2.51729 65.31 2.52729C70.51 2.52729 74.95 3.5973 78.61 5.71729C82.28 7.82729 84.1201 10.3973 84.1401 13.3973Z" class="pr-icon-iso-duotone-primary-stroke" stroke-linejoin="round"/>
    <path d="M123.799 20.5173V20.5373C123.799 21.3673 123.269 22.0773 122.239 22.6773C121.679 22.9973 121.059 23.2273 120.369 23.3673C119.679 23.5073 118.969 23.5673 118.249 23.5373C113.599 23.4573 109.079 23.8873 104.679 24.8273C100.279 25.7573 96.3394 27.2373 92.8594 29.2373C89.3894 31.2473 86.8094 33.5273 85.1294 36.0673C83.4594 38.5973 82.6793 41.2173 82.8093 43.8973C82.8693 44.3173 82.7693 44.7273 82.5193 45.1273C82.2793 45.5173 81.8793 45.8773 81.3293 46.1973C80.3293 46.7773 79.1192 47.0573 77.6792 47.0573C76.2392 47.0573 75.0193 46.7673 74.0193 46.1873C73.5193 45.8973 73.1394 45.5673 72.8894 45.1973C72.6394 44.8373 72.5093 44.4573 72.5093 44.0773C72.4993 43.8773 72.4893 43.6673 72.4993 43.4573C72.4393 40.1873 73.4292 36.9673 75.4392 33.8173C76.8692 31.5773 78.8193 29.5173 81.2793 27.6273C82.1593 26.9373 83.1194 26.2873 84.1394 25.6473C84.5294 25.3973 84.9394 25.1473 85.3594 24.9073C89.8394 22.3273 94.9793 20.4173 100.779 19.1873C106.589 17.9473 112.519 17.3873 118.549 17.4873C119.219 17.4873 119.869 17.5673 120.509 17.7073C121.139 17.8573 121.709 18.0673 122.209 18.3573C123.269 18.9673 123.799 19.6873 123.799 20.5173Z" class="pr-icon-iso-duotone-primary-stroke" stroke-linejoin="round"/>
    <path d="M123.949 32.8473V32.8673C123.949 33.1173 123.9 33.3573 123.8 33.5873C123.58 34.1173 123.11 34.5873 122.39 35.0073C121.89 35.2873 121.31 35.5173 120.64 35.6673C119.98 35.8273 119.32 35.9073 118.65 35.9073C116.66 35.9073 114.79 36.0473 113.05 36.3573C111.41 36.6373 109.879 37.1673 108.469 37.9473C108.379 37.9973 108.289 38.0473 108.199 38.0973C106.819 38.8873 105.84 39.7973 105.26 40.7973C104.69 41.8073 104.4 42.8473 104.41 43.9373C104.45 44.2973 104.41 44.6273 104.26 44.9273C104.21 45.0373 104.15 45.1373 104.08 45.2373C103.81 45.6173 103.39 45.9673 102.84 46.2873C101.79 46.8873 100.55 47.1973 99.1096 47.1873C98.5096 47.1873 97.9494 47.1373 97.4194 47.0273C96.6694 46.8773 95.9896 46.6273 95.3696 46.2773C94.8696 45.9873 94.4794 45.6473 94.1994 45.2673C93.9194 44.8773 93.7795 44.4973 93.7795 44.1073C93.6795 43.0573 93.7696 42.0273 94.0596 41.0173C94.2996 40.1573 94.6794 39.3073 95.1994 38.4773C96.3194 36.6773 98.0995 35.0673 100.53 33.6673C102.96 32.2673 105.74 31.2373 108.86 30.5873C111.99 29.9373 115.24 29.6673 118.62 29.7673C119.28 29.7673 119.95 29.8473 120.61 30.0073C121.28 30.1773 121.86 30.3973 122.36 30.6873C123.1 31.1173 123.58 31.5973 123.8 32.1273C123.9 32.3573 123.949 32.5973 123.949 32.8473Z" class="pr-icon-iso-duotone-primary-stroke" stroke-linejoin="round"/>
    <path d="M84.1399 13.4173V25.6473C83.1199 26.2873 82.1598 26.9373 81.2798 27.6273C78.8198 29.5173 76.8697 31.5773 75.4397 33.8173C73.4297 36.9673 72.4398 40.1873 72.4998 43.4573C70.4098 43.9473 68.1497 44.1973 65.7097 44.2073V40.5173C65.6797 39.7473 65.4498 38.9773 64.9998 38.2073C63.5998 35.7473 61.6198 33.1973 59.0598 30.5673C57.3198 28.7873 55.1799 27.0373 52.6499 25.3273C51.4499 24.5173 50.1698 23.7273 48.7998 22.9273C48.0698 22.5073 47.3298 22.0973 46.5898 21.7073V13.3273C46.6098 16.3373 48.4499 18.8973 52.1099 21.0173C53.8799 22.0273 55.8297 22.8073 57.9597 23.3373C60.2397 23.9173 62.7297 24.1973 65.4197 24.2073C68.0797 24.2073 70.5398 23.9373 72.7898 23.3873C74.9498 22.8673 76.9197 22.0973 78.6997 21.0673C82.3297 18.9673 84.1399 16.4173 84.1399 13.4173Z" class="pr-icon-iso-duotone-primary-stroke" stroke-linejoin="round"/>
    <path d="M65.709 60.8373V60.6473" class="pr-icon-iso-duotone-primary-stroke" stroke-linejoin="round"/>
    <path d="M65.7095 40.6472V60.6473C65.7095 61.2873 65.5595 61.9273 65.2695 62.5773C64.6195 64.0473 63.3796 65.3073 61.5596 66.3573L58.9097 67.8873C57.0797 68.9373 54.8695 69.4573 52.2695 69.4573C49.6695 69.4473 47.4496 68.9173 45.6096 67.8573L5.60962 44.7673C3.77962 43.7073 2.85961 42.4272 2.84961 40.9272V20.9272C2.85961 22.4272 3.77962 23.7073 5.60962 24.7673L20.3596 33.2872L45.6096 47.8573C47.4496 48.9173 49.6695 49.4472 52.2695 49.4572C54.0595 49.4572 55.6696 49.2072 57.0896 48.7072C57.7396 48.4872 58.3397 48.2173 58.9097 47.8873L61.5596 46.3573C62.6796 45.7073 63.5795 44.9873 64.2495 44.1873C64.6795 43.6773 65.0195 43.1473 65.2695 42.5773C65.5595 41.9273 65.7095 41.2872 65.7095 40.6472Z" class="pr-icon-iso-duotone-primary-stroke" stroke-linejoin="round"/>
</svg>