<svg xmlns="http://www.w3.org/2000/svg" width="24" height="24" viewBox="0 0 24 24" fill="none">
    <path fill="currentColor" d="M13.036 9.007a1 1 0 0 0 .928-1.771zm.928-4.242a1 1 0 0 0-.928-1.772zM11.444 6h1zM17 18a1 1 0 0 1 1-1v-2a3 3 0 0 0-3 3zm1-1a1 1 0 0 1 1 1h2a3 3 0 0 0-3-3zm1 1a1 1 0 0 1-1 1v2a3 3 0 0 0 3-3zm-1 1a1 1 0 0 1-1-1h-2a3 3 0 0 0 3 3zm-1-7v4h2v-4zm-3.036-4.764c-.657-.345-1.116-.76-1.482-1.326l-1.68 1.086c.566.875 1.292 1.518 2.234 2.011zM12.482 6.09c.366-.566.824-.98 1.482-1.325l-.928-1.772c-.942.493-1.668 1.136-2.234 2.011zM7 6a1 1 0 0 1-1 1v2a3 3 0 0 0 3-3zM6 7a1 1 0 0 1-1-1H3a3 3 0 0 0 3 3zM5 6a1 1 0 0 1 1-1V3a3 3 0 0 0-3 3zm1-1a1 1 0 0 1 1 1h2a3 3 0 0 0-3-3zm1 11V8H5v8zm-2 2a1 1 0 0 1 1-1v-2a3 3 0 0 0-3 3zm1-1a1 1 0 0 1 1 1h2a3 3 0 0 0-3-3zm1 1a1 1 0 0 1-1 1v2a3 3 0 0 0 3-3zm-1 1a1 1 0 0 1-1-1H3a3 3 0 0 0 3 3zm6.482-13.09a5.273 5.273 0 0 1-.072-.114l-.012-.02c.005.013.019.044.03.09a.572.572 0 0 1 .017.134h-2c0 .5.27.86.357.996zm-1.68-.906c-.088.136-.357.497-.357.996h2a.567.567 0 0 1-.047.223l.011-.02.073-.113zM19 12c0-1.386.002-2.526-.119-3.425-.125-.928-.396-1.747-1.053-2.403l-1.414 1.414c.223.223.39.55.485 1.256.099.734.101 1.716.101 3.158zm-7-5c1.443 0 2.424.002 3.159.101.706.095 1.033.262 1.255.485l1.414-1.414c-.656-.656-1.475-.928-2.403-1.053C14.526 4.999 13.385 5 12 5z"/>
</svg>