<svg xmlns="http://www.w3.org/2000/svg" width="24" height="24" viewBox="0 0 24 24" fill="none">
    <path fill="currentColor" d="M5.767 4.715a1 1 0 1 0-.55-1.923zM4.379 4.38l-.707-.707zm-1.59.848a1 1 0 0 0 1.924.546zm7.705-.725a1 1 0 0 0 .012-2zm3.279-1.713a1 1 0 1 0-.546 1.924zM4.502 8.506a1 1 0 1 0-2-.012zm-2 2a1 1 0 0 0 2-.012zm2.211 2.721a1 1 0 1 0-1.924.546zm-.334 1.394-.707.707zm.743 1.559a1 1 0 0 0 .59-1.911zM8.494 2.502a1 1 0 0 0 .012 2zm5.793 3.27a1 1 0 0 0 1.924-.545zM8.502 14.5a1 1 0 1 0 0 2zM16.5 8.5a1 1 0 0 0-2 .001zm1.733 10.784a1 1 0 1 0 .55 1.923zm1.388.336.707.707zm1.59-.848a1 1 0 1 0-1.924-.546zm-7.705.725a1 1 0 1 0-.012 2zm-3.279 1.713a1 1 0 1 0 .546-1.924zm9.271-5.717a1 1 0 1 0 2 .012zm2-2a1 1 0 1 0-2 .012zm-2.211-2.721a1 1 0 1 0 1.924-.546zm.334-1.394.707-.707zm-.743-1.559a1 1 0 1 0-.59 1.911zm-3.372 13.678a1 1 0 1 0-.012-2zm-5.793-3.27a1 1 0 1 0-1.924.544zM15.498 9.5a1 1 0 0 0 0-2zM7.5 15.5a1 1 0 0 0 2-.001zm7-5.999c0 1.443-.002 2.424-.1 3.159-.096.706-.263 1.033-.486 1.255l1.414 1.414c.657-.656.928-1.475 1.053-2.403.121-.899.119-2.04.119-3.425zm-5 7c1.386 0 2.526.002 3.425-.119.928-.125 1.747-.396 2.403-1.053l-1.414-1.414c-.222.223-.55.39-1.255.485-.735.099-1.716.101-3.159.101zM5.217 2.792c-.587.168-1.106.44-1.545.88l1.414 1.414c.156-.157.357-.278.68-.37zm-.504 2.98c.093-.327.215-.529.373-.686L3.672 3.672c-.443.442-.715.964-.883 1.555zM9.5 4.5c.356 0 .685 0 .994.002l.012-2C10.19 2.5 9.854 2.5 9.5 2.5zm3.727.213c.328.093.53.215.687.373l1.414-1.414c-.442-.443-.964-.715-1.555-.883zM4.5 9.5c0-.356 0-.686.002-.994l-2-.012C2.5 8.81 2.5 9.146 2.5 9.5zm-2 0c0 .354 0 .69.002 1.006l2-.012C4.5 10.185 4.5 9.856 4.5 9.5zm.29 4.273c.167.591.44 1.113.882 1.555l1.414-1.414c-.158-.157-.28-.36-.373-.687zm2.923.496c-.291-.09-.478-.206-.627-.355l-1.414 1.414c.414.415.9.681 1.45.852zM9.5 2.5c-.354 0-.69 0-1.006.002l.012 2c.308-.002.638-.002.994-.002zm6.71 2.727c-.167-.591-.44-1.113-.882-1.555l-1.414 1.414c.158.157.28.36.373.687zM9.5 14.5h-.998v2H9.5zm7-5v-.999l-2 .001V9.5zm-7 5c0-1.443.002-2.424.1-3.159.096-.706.263-1.033.486-1.255L8.672 8.672c-.657.656-.929 1.475-1.053 2.403-.121.899-.119 2.04-.119 3.425zm5-7c-1.386 0-2.526-.002-3.425.119-.928.125-1.747.396-2.403 1.053l1.414 1.414c.222-.223.55-.39 1.255-.485.735-.099 1.717-.101 3.159-.101zm4.283 13.708c.587-.168 1.106-.44 1.545-.88l-1.414-1.414c-.156.157-.357.278-.68.37zm.504-2.98c-.093.327-.215.529-.373.686l1.414 1.414c.442-.442.715-.964.883-1.555zM14.5 19.5c-.356 0-.685 0-.994-.002l-.012 2c.316.002.652.002 1.006.002zm-3.727-.213c-.328-.093-.53-.215-.687-.373l-1.414 1.414c.442.442.964.715 1.555.883zM19.5 14.5c0 .356 0 .685-.002.994l2 .012c.002-.316.002-.652.002-1.006zm2 0c0-.354 0-.69-.002-1.006l-2 .012c.002.309.002.638.002.994zm-.29-4.273c-.167-.591-.44-1.113-.882-1.555l-1.414 1.414c.158.157.28.36.373.687zm-2.923-.496c.291.09.478.206.627.355l1.414-1.414a3.427 3.427 0 0 0-1.45-.852zM14.5 21.5c.354 0 .69 0 1.006-.002l-.012-2c-.309.002-.638.002-.994.002zm-6.71-2.727c.167.591.44 1.113.882 1.555l1.414-1.414c-.158-.157-.28-.36-.373-.687zM14.5 9.5h.998v-2H14.5zm-7 5v.999l2-.001V14.5z"/>
</svg>