<svg xmlns="http://www.w3.org/2000/svg" width="24" height="24" viewBox="0 0 24 24" fill="none">
    <path stroke="currentColor" stroke-linejoin="round" stroke-width="2" d="M4.862 7.118c-.609.076-1.231.314-1.49.87a9.45 9.45 0 0 0-.31.748c-.21.576.061 1.185.438 1.67.364.468.573 1.013.573 1.595 0 .581-.21 1.126-.573 1.594-.377.485-.649 1.094-.438 1.67.093.255.196.504.31.748.26.556.881.794 1.49.87.589.075 1.121.312 1.532.723.411.411.65.944.723 1.532.076.61.315 1.232.871 1.49.244.114.493.218.747.31.577.211 1.186-.06 1.67-.437.469-.364 1.014-.573 1.595-.573.582 0 1.126.209 1.595.573.485.377 1.093.648 1.67.438a9.47 9.47 0 0 0 .747-.31c.557-.26.795-.882.871-1.49.074-.59.312-1.122.723-1.533.41-.41.943-.648 1.532-.722.609-.077 1.231-.315 1.49-.871a9.47 9.47 0 0 0 .31-.747c.21-.577-.06-1.186-.437-1.67-.365-.47-.573-1.014-.573-1.595 0-.582.208-1.127.572-1.595.377-.485.649-1.094.438-1.67a9.436 9.436 0 0 0-.31-.747c-.259-.557-.88-.795-1.49-.871-.589-.074-1.121-.312-1.532-.723-.411-.411-.649-.944-.723-1.532-.076-.61-.314-1.231-.87-1.49a9.451 9.451 0 0 0-.748-.31c-.577-.211-1.185.06-1.67.437-.469.364-1.014.573-1.595.573s-1.126-.209-1.595-.573c-.484-.377-1.093-.648-1.67-.437a9.455 9.455 0 0 0-.747.31c-.556.259-.795.88-.871 1.49-.074.588-.312 1.121-.723 1.532-.41.411-.943.649-1.532.723Z"/>
    <path stroke="currentColor" stroke-linejoin="round" stroke-width="2" d="M15 12a3 3 0 1 1-6 0 3 3 0 0 1 6 0Z"/>
</svg>