<svg xmlns="http://www.w3.org/2000/svg" width="24" height="24" viewBox="0 0 24 24" fill="none">
    <path stroke="currentColor" stroke-linecap="round" stroke-linejoin="round" stroke-width="2" d="M3.5 13v-.5c0-3.771 0-5.657 1.172-6.828C5.843 4.5 7.729 4.5 11.5 4.5h6.412c1.633 0 2.449 0 2.684.667.236.668-.325 1.119-1.445 2.022-.358.288-.74.557-1.151.811m2.5 3v.5c0 3.771 0 5.657-1.172 6.828C18.157 19.5 16.271 19.5 12.5 19.5H6.088c-1.633 0-2.449 0-2.684-.667-.236-.668.325-1.119 1.445-2.021.358-.289.74-.558 1.151-.812"/>
</svg>