<svg xmlns="http://www.w3.org/2000/svg" width="24" height="24" viewBox="0 0 24 24" fill="none">
    <path fill="currentColor" d="m12.686 6.766-.44.898zM14.4 7.2a1 1 0 1 0 1.2 1.6zm5.545-.368a1 1 0 0 0 1.11-1.664zm-2.383 3.687-.685.729zm.782.544-.439.898zm-6.098-3.399c.726.355 1.653 1.026 2.544 1.752.877.713 1.66 1.43 2.087 1.832l1.37-1.458a42.74 42.74 0 0 0-2.194-1.925c-.911-.742-1.986-1.537-2.929-1.998zm5.66 4.297.253.124.878-1.797-.254-.123zM19 13.433V14.5h2v-1.067zM3.02 7.012c1.815-.035 3.913.01 5.695.133.892.061 1.69.142 2.329.24.676.103 1.06.21 1.202.28l.878-1.798c-.444-.217-1.104-.357-1.778-.46a31.484 31.484 0 0 0-2.493-.258 69.99 69.99 0 0 0-5.872-.137zM11 16H3v2h8zm6.5 0H15v2h2.5zM14 17a1 1 0 0 1-1 1v2a3 3 0 0 0 3-3zm-1 1a1 1 0 0 1-1-1h-2a3 3 0 0 0 3 3zm-1-1a1 1 0 0 1 1-1v-2a3 3 0 0 0-3 3zm1-1a1 1 0 0 1 1 1h2a3 3 0 0 0-3-3zm2.6-7.2 2.558-1.918-1.2-1.6L14.4 7.2zm3.4 5.7a1.5 1.5 0 0 1-1.5 1.5v2a3.5 3.5 0 0 0 3.5-3.5zm-.841-2.415A1.5 1.5 0 0 1 19 13.433h2a3.5 3.5 0 0 0-1.963-3.145zm-.001-5.203a1.548 1.548 0 0 1 1.787-.05l1.11-1.664a3.548 3.548 0 0 0-4.097.114zm-1.28 4.366c.3.283.644.526 1.027.713l.878-1.796a2.185 2.185 0 0 1-.536-.375z"/>
</svg>