<svg xmlns="http://www.w3.org/2000/svg" width="24" height="24" viewBox="0 0 24 24" fill="none">
    <path stroke="currentColor" stroke-width="2" d="M2.5 14.5c0-1.866 0-2.799.347-3.519A3.5 3.5 0 0 1 4.48 9.347C5.201 9 6.134 9 8 9h4c1.866 0 2.799 0 3.519.347a3.5 3.5 0 0 1 1.634 1.634c.347.72.347 1.653.347 3.519s0 2.799-.347 3.519a3.5 3.5 0 0 1-1.634 1.634C14.799 20 13.866 20 12 20H8c-1.866 0-2.799 0-3.519-.347a3.5 3.5 0 0 1-1.634-1.634C2.5 17.299 2.5 16.366 2.5 14.5zM17.5 13l.951-.586c1.35-.831 2.024-1.247 2.537-.96.512.285.512 1.078.512 2.663v.766c0 1.585 0 2.377-.512 2.663-.513.287-1.187-.13-2.537-.96L17.5 16z"/>
    <path stroke="currentColor" stroke-width="2" d="M15.5 6a3 3 0 1 1-6 0 3 3 0 0 1 6 0ZM9.5 6.5a2.5 2.5 0 1 1-5 0 2.5 2.5 0 0 1 5 0Z"/>
</svg>