<svg xmlns="http://www.w3.org/2000/svg" width="24" height="24" viewBox="0 0 24 24" fill="none">
    <path stroke="currentColor" stroke-linecap="round" stroke-width="2" d="M12 9v1.343c0 .818 0 1.226.152 1.594.153.368.442.657 1.02 1.235l.328.328M15 6v0c0-.932 0-1.398-.152-1.765a2 2 0 0 0-1.083-1.083C13.398 3 12.932 3 12 3v0c-.932 0-1.398 0-1.765.152a2 2 0 0 0-1.083 1.083C9 4.602 9 5.068 9 6v0zM9 18h6v0c0 .932 0 1.398-.152 1.765a2 2 0 0 1-1.083 1.083C13.398 21 12.932 21 12 21v0c-.932 0-1.398 0-1.765-.152a2 2 0 0 1-1.083-1.083C9 19.398 9 18.932 9 18zm9-6v0c0-1.864 0-2.796-.305-3.53a4 4 0 0 0-2.164-2.166C14.796 6 13.864 6 12 6v0c-1.864 0-2.796 0-3.53.304A4 4 0 0 0 6.303 8.47C6 9.204 6 10.136 6 12v0c0 1.864 0 2.796.304 3.53a4 4 0 0 0 2.165 2.165C9.204 18 10.136 18 12 18v0c1.864 0 2.796 0 3.53-.305a4 4 0 0 0 2.165-2.164C18 14.796 18 13.864 18 12Z"/>
</svg>