<svg xmlns="http://www.w3.org/2000/svg" width="24" height="24">
    <g fill="none" fill-rule="evenodd">
        <path fill="currentColor" d="M12 4a8 8 0 1 1 0 16 8 8 0 0 1 0-16M3.2 5.4a1 1 0 1 1 1.599 1.2A8.956 8.956 0 0 0 3 12c0 2.027.67 3.895 1.799 5.4a1 1 0 0 1-1.6 1.2A10.956 10.956 0 0 1 1 12c0-2.475.819-4.762 2.2-6.6m16.2-.2a1 1 0 0 1 1.4.2A10.956 10.956 0 0 1 23 12c0 2.475-.819 4.762-2.2 6.6a1 1 0 1 1-1.599-1.2A8.956 8.956 0 0 0 21 12c0-2.027-.67-3.895-1.799-5.4a1 1 0 0 1 .2-1.4ZM12 6a6 6 0 1 0 0 12 6 6 0 0 0 0-12m2 2a2 2 0 0 1 2 2v4a2 2 0 0 1-2 2h-2a1 1 0 0 1-1-1v-2h-1v2a1 1 0 1 1-2 0v-4a3 3 0 0 1 3-3zm0 5h-1v1h1zm-3-3a1 1 0 0 0-.993.883L10 11h1zm3 0h-1v1h1z"/>
    </g>
</svg>