<svg xmlns="http://www.w3.org/2000/svg" width="24" height="24">
    <g fill="none" fill-rule="evenodd">
        <path fill="currentColor" d="M12 2c5.523 0 10 4.477 10 10s-4.477 10-10 10S2 17.523 2 12 6.477 2 12 2m0 2a8 8 0 1 0 0 16 8 8 0 0 0 0-16M9.22 8a2 2 0 0 1 1.894 1.36l.045.155 1.311 5.243a1 1 0 0 1-1.905.596l-.035-.111L10.22 14H7.78l-.31 1.242a1 1 0 0 1-1.962-.37l.022-.114 1.31-5.243a2 2 0 0 1 1.78-1.509L8.78 8zM16 8a3 3 0 0 1 2.995 2.824L19 11v2a3 3 0 0 1-2.824 2.995L16 16h-2a1 1 0 0 1-.993-.883L13 15V9a1 1 0 0 1 .883-.993L14 8zm0 2h-1v4h1a1 1 0 0 0 .993-.883L17 13v-2a1 1 0 0 0-.883-.993zm-6.78 0h-.44l-.5 2h1.44z"/>
    </g>
</svg>