<svg xmlns="http://www.w3.org/2000/svg" width="24" height="24"><g fill="none"><path fill="currentColor" d="M17.5 3a3.5 3.5 0 0 1 2.526 5.923A8.962 8.962 0 0 1 21 13a8.973 8.973 0 0 1-2.714 6.44l-.222.21.643.643a1 1 0 0 1-1.32 1.497l-.094-.083-.868-.868A8.96 8.96 0 0 1 12 22a8.962 8.962 0 0 1-4.12-.996l-.305-.165-.868.868a1 1 0 0 1-1.497-1.32l.083-.094.643-.643A8.977 8.977 0 0 1 3 13a8.96 8.96 0 0 1 .974-4.077A3.5 3.5 0 1 1 9.307 4.41 8.996 8.996 0 0 1 12 4c.938 0 1.842.143 2.693.41A3.494 3.494 0 0 1 17.5 3M12 6a7 7 0 1 0 0 14 7 7 0 0 0 0-14m0 2a1 1 0 0 1 1 1v3.586l1.813 1.812a1 1 0 0 1-1.415 1.415l-2.105-2.106a.997.997 0 0 1-.293-.72V9a1 1 0 0 1 1-1M6.5 5a1.5 1.5 0 0 0-1.348 2.16 9.044 9.044 0 0 1 2.22-1.88A1.494 1.494 0 0 0 6.5 5m11 0c-.325 0-.626.103-.872.28a9.043 9.043 0 0 1 2.22 1.88A1.5 1.5 0 0 0 17.5 5"/></g></svg>