<svg xmlns="http://www.w3.org/2000/svg" width="24" height="24"><g fill="none" fill-rule="evenodd"><path fill="currentColor" d="M4 12a8 8 0 0 1 8-8c5.367 0 8.445 4.445 8.006 8.39-.12 1.086-.438 1.723-.72 2.095-.281.373-.571.54-.733.62-.753.377-1.133.212-1.283.093-.19-.15-.372-.503-.284-1.034l.006-.032.503-5.032a1 1 0 0 0-1.867-.59A5.025 5.025 0 0 0 12.03 7C9.279 7 7 9.229 7 12c0 2.774 2.288 5 5.038 5 1.212 0 2.35-.436 3.237-1.176.175.36.425.682.753.942.917.726 2.172.752 3.42.128.337-.168.91-.51 1.434-1.203.524-.694.956-1.682 1.112-3.08C22.556 7.554 18.633 2 12 2 6.477 2 2 6.477 2 12s4.477 10 10 10a9.963 9.963 0 0 0 4.445-1.04 1 1 0 0 0-.89-1.791A8 8 0 0 1 4 12m5 0c0-1.647 1.364-3 3.03-3 1.92 0 3.364 1.767 2.974 3.62-.291 1.378-1.539 2.38-2.966 2.38C10.368 15 9 13.645 9 12"/></g></svg>