<svg xmlns="http://www.w3.org/2000/svg" width="24" height="24"><g fill="none" fill-rule="evenodd"><path fill="currentColor" d="M7.746 2.609a1.476 1.476 0 0 1 1.817.656l.06.117L12.643 10H18V8.5a2.5 2.5 0 0 1 2.336-2.495L20.5 6h.5a1 1 0 0 1 .117 1.993L21 8h-.5a.5.5 0 0 0-.492.41L20 8.5V11a9 9 0 0 1-2.489 6.213 2.5 2.5 0 1 1-3.506 2.451L14 19.485a8.999 8.999 0 0 1-5.629.123L8 19.485v.015a2.5 2.5 0 1 1-3.511-2.287A9 9 0 0 1 7.746 2.61ZM5.5 19a.5.5 0 1 0 0 1 .5.5 0 0 0 0-1m11 0a.5.5 0 1 0 0 1 .5.5 0 0 0 0-1m1.428-7H4.072a7 7 0 0 0 13.856 0M8.012 4.67a7 7 0 0 0-3.89 5.03l-.05.3h6.372z"/></g></svg>