<svg xmlns="http://www.w3.org/2000/svg" width="24" height="24">
    <g fill="none">
        <path fill="currentColor" d="M8 13h8a1 1 0 1 1 0 2h-.153l-.86 5.164a1 1 0 0 1-1.694.543L13 20.414l-.293.293a1 1 0 0 1-1.414 0L11 20.414l-.293.293a1 1 0 0 1-1.693-.543L8.153 15H8a1 1 0 1 1 0-2m5.82 2h-3.64l.509 3.05a1 1 0 0 1 1.018.243l.293.293.293-.293a1 1 0 0 1 1.018-.244zM20 4a2 2 0 0 1 1.995 1.85L22 6v10a2 2 0 0 1-1.85 1.995L20 18h-2a1 1 0 0 1-.117-1.993L18 16h2V6H4v10h2a1 1 0 0 1 .117 1.993L6 18H4a2 2 0 0 1-1.995-1.85L2 16V6a2 2 0 0 1 1.85-1.995L4 4zm-5 4a1 1 0 0 1 .993.883L16 9v2a1 1 0 0 1-1.993.117L14 11v-1h-4v1a1 1 0 0 1-1.993.117L8 11V9a1 1 0 0 1 .883-.993L9 8z"/>
    </g>
</svg>