<svg xmlns="http://www.w3.org/2000/svg" width="24" height="24">
    <g fill="none">
        <path fill="currentColor" d="M12 9a1 1 0 0 1 1 1v9h2a1 1 0 1 1 0 2H9a1 1 0 1 1 0-2h2v-9a1 1 0 0 1 1-1M7.05 3.636a1 1 0 0 1 0 1.414A6.975 6.975 0 0 0 5 10c0 1.933.782 3.682 2.05 4.95a1 1 0 0 1-1.414 1.414A8.975 8.975 0 0 1 3 10a8.975 8.975 0 0 1 2.636-6.364 1 1 0 0 1 1.414 0m11.314 0A8.975 8.975 0 0 1 21 10a8.975 8.975 0 0 1-2.636 6.364 1 1 0 0 1-1.414-1.414A6.975 6.975 0 0 0 19 10a6.975 6.975 0 0 0-2.05-4.95 1 1 0 0 1 1.414-1.414M9.879 6.464a1 1 0 0 1 0 1.415A2.987 2.987 0 0 0 9 10c0 .829.335 1.577.879 2.121a1 1 0 1 1-1.415 1.415A4.987 4.987 0 0 1 7 10c0-1.38.56-2.632 1.464-3.536a1 1 0 0 1 1.415 0m5.657 0A4.987 4.987 0 0 1 17 10c0 1.38-.56 2.632-1.464 3.536a1 1 0 1 1-1.415-1.415A2.987 2.987 0 0 0 15 10c0-.829-.335-1.577-.879-2.121a1 1 0 0 1 1.415-1.415"/>
    </g>
</svg>