<svg xmlns="http://www.w3.org/2000/svg" width="24" height="24"><g fill="none" fill-rule="evenodd"><path fill="currentColor" d="M11.778 4.371a1 1 0 0 1-.15 1.407c-.559.452-.924.886-1.163 1.276a2 2 0 1 1-2.46 1.792c-.024-.492.02-1.15.293-1.892.326-.884.956-1.829 2.073-2.732a1 1 0 0 1 1.407.15ZM15 5a1 1 0 1 0 0 2h5a1 1 0 1 0 0-2zm0 4a1 1 0 1 0 0 2h5a1 1 0 1 0 0-2zM4 14a1 1 0 0 1 1-1h15a1 1 0 1 1 0 2H5a1 1 0 0 1-1-1m1 3a1 1 0 1 0 0 2h15a1 1 0 1 0 0-2zM3.006 8.846a2 2 0 1 0 2.459-1.792c.239-.39.604-.824 1.164-1.276A1 1 0 1 0 5.37 4.222c-1.117.903-1.747 1.848-2.073 2.732a4.757 4.757 0 0 0-.292 1.892Z"/></g></svg>