<svg xmlns="http://www.w3.org/2000/svg" width="24" height="24">
    <g fill="none" fill-rule="evenodd">
        <path fill="currentColor" d="M7 2a1 1 0 0 0-.997.917l-.428 5.142a1 1 0 0 1-.372.698L3.751 9.919A2 2 0 0 0 3 11.48V20a2 2 0 0 0 2 2h6a2 2 0 0 0 2-2v-8.52a2 2 0 0 0-.75-1.561l-1.453-1.162a1 1 0 0 1-.372-.698l-.428-5.142A1 1 0 0 0 9 2zm.568 6.225L7.92 4h.16l.352 4.225a3 3 0 0 0 1.116 2.094L11 11.48V20H5v-8.52l1.452-1.161a3 3 0 0 0 1.116-2.094M15.495 8a1.57 1.57 0 0 0-1.555 1.348l-.506 3.54A3.604 3.604 0 0 0 16 16.86V20h-.5a1 1 0 1 0 0 2h3a1 1 0 1 0 0-2H18v-3.14a3.604 3.604 0 0 0 2.566-3.971l-.506-3.54A1.57 1.57 0 0 0 18.505 8zm-.08 5.172L15.866 10h2.266l.453 3.172a1.602 1.602 0 1 1-3.172 0"/>
    </g>
</svg>