<svg xmlns="http://www.w3.org/2000/svg" width="24" height="24"><g fill="none"><path fill="currentColor" d="M12 4a8 8 0 1 1 0 16 8 8 0 0 1 0-16M3.2 5.4a1 1 0 1 1 1.599 1.2A8.956 8.956 0 0 0 3 12c0 2.027.67 3.895 1.799 5.4a1 1 0 0 1-1.6 1.2A10.956 10.956 0 0 1 1 12c0-2.475.819-4.762 2.2-6.6m16.2-.2a1 1 0 0 1 1.4.2A10.956 10.956 0 0 1 23 12c0 2.475-.819 4.762-2.2 6.6a1 1 0 1 1-1.599-1.2A8.956 8.956 0 0 0 21 12c0-2.027-.67-3.895-1.799-5.4a1 1 0 0 1 .2-1.4ZM12 6a6 6 0 1 0 0 12 6 6 0 0 0 0-12m0 8a1 1 0 1 1 0 2 1 1 0 0 1 0-2m0-6a1 1 0 0 1 .993.883L13 9v3a1 1 0 0 1-1.993.117L11 12V9a1 1 0 0 1 1-1"/></g></svg>