<svg xmlns="http://www.w3.org/2000/svg" width="24" height="24"><g fill="none" fill-rule="evenodd"><path fill="currentColor" d="M18.417 4c.973 0 1.995.479 2.499 1.467A9.962 9.962 0 0 1 22 10c0 5.523-4.477 10-10 10S2 15.523 2 10c0-1.63.39-3.171 1.084-4.533C3.588 4.479 4.61 4 5.584 4zm0 2H5.583c-.362 0-.615.173-.717.374A7.962 7.962 0 0 0 4 10a7 7 0 0 1 7 7v.938a8.069 8.069 0 0 0 2 0V17a7 7 0 0 1 7-7 7.962 7.962 0 0 0-.866-3.626C19.03 6.173 18.778 6 18.416 6Zm1.33 6.006A5 5 0 0 0 15 17v.419a8.018 8.018 0 0 0 4.746-5.413Zm-15.493 0a8.018 8.018 0 0 0 4.49 5.304l.256.109V17a5 5 0 0 0-4.746-4.994"/></g></svg>