<svg xmlns="http://www.w3.org/2000/svg" width="24" height="24"><g fill="none" fill-rule="evenodd"><path fill="currentColor" d="M12.058 2.08a1 1 0 0 0-1.382.766 1.666 1.666 0 0 1-.216.647c-.1.165-.25.334-.514.58-.52.482-.837 1.059-.922 1.681a2.655 2.655 0 0 0 .326 1.655C9.842 8.296 10.84 9 11.903 9 13.285 9 15 8.034 15 6.194c0-.943-.422-1.829-.946-2.512-.528-.687-1.243-1.279-1.996-1.601m-.752 3.459c.31-.287.612-.6.853-.99.108.108.212.225.309.351.357.466.532.933.532 1.294 0 .197-.086.376-.28.532a1.339 1.339 0 0 1-.817.274c-.215 0-.603-.198-.805-.562a.66.66 0 0 1-.093-.41c.014-.108.073-.278.301-.49M9 10a2 2 0 0 0-2 2v8a2 2 0 0 0 2 2h6a2 2 0 0 0 2-2v-8a2 2 0 0 0-2-2zm0 2h6v8H9z"/></g></svg>