<svg xmlns="http://www.w3.org/2000/svg" width="24" height="24"><g fill="none"><path fill="currentColor" d="M16.42 4a2 2 0 0 1 1.649.868l.087.14 3.58 6.265a2 2 0 0 1 .256.82l.008.173v4.498a2 2 0 0 1-.136.725l-.075.17-1.118 2.235a2 2 0 0 1-1.628 1.1l-.161.006H17a2 2 0 0 1-1.995-1.85L15 19H9a2 2 0 0 1-1.85 1.995L7 21H5.118a2 2 0 0 1-1.71-.964l-.079-.142-1.118-2.236a2 2 0 0 1-.202-.709L2 16.764v-4.498a2 2 0 0 1 .184-.838l.08-.155 3.58-6.265a2 2 0 0 1 1.572-1.001L7.58 4zm0 2H7.58L4 12.266v4.498L5.118 19H7v-.9a1.1 1.1 0 0 1 .98-1.094L8.1 17h7.8a1.1 1.1 0 0 1 1.094.98l.006.12v.9h1.882L20 16.764v-4.498zm.134 5.105a1 1 0 0 1 1.34.448 1.01 1.01 0 0 1-.448 1.342C15.802 13.715 13.81 14 12 14c-1.846 0-3.77-.282-5.442-1.103a1.017 1.017 0 0 1-.452-1.344 1.008 1.008 0 0 1 1.24-.489l.267.115.244.097.219.08.26.086.302.092.34.091.377.09.411.082A12.41 12.41 0 0 0 12 12c1.516 0 3.169-.232 4.555-.895Z"/></g></svg>