<svg xmlns="http://www.w3.org/2000/svg" width="24" height="24"><g fill="none"><path fill="currentColor" d="M12 3a.5.5 0 1 0 0-1 .5.5 0 0 0 0 1m0 19a.5.5 0 1 0 0-1 .5.5 0 0 0 0 1m0-16a1 1 0 1 0 0-2 1 1 0 0 0 0 2m0 14a1 1 0 1 0 0-2 1 1 0 0 0 0 2m2.75-12.763a1.5 1.5 0 1 1-1.5 2.598 1.5 1.5 0 0 1 1.5-2.598M9.5 12a1.5 1.5 0 1 1-3 0 1.5 1.5 0 0 1 3 0m8 0a1.5 1.5 0 1 1-3 0 1.5 1.5 0 0 1 3 0m-6.2 4.214a1.5 1.5 0 1 0-2.599-1.5 1.5 1.5 0 0 0 2.598 1.5Zm4-1.5a1.5 1.5 0 1 0-2.599 1.5 1.5 1.5 0 0 0 2.598-1.5ZM9.25 7.237a1.5 1.5 0 1 1 1.5 2.598 1.5 1.5 0 0 1-1.5-2.598m8.407.52a1 1 0 1 1-1.414-1.414 1 1 0 0 1 1.414 1.414m-9.9 9.9a1 1 0 1 1-1.414-1.415 1 1 0 0 1 1.414 1.415M18 12a1 1 0 1 0 2 0 1 1 0 0 0-2 0M4 12a1 1 0 1 0 2 0 1 1 0 0 0-2 0m12.243 5.657a1 1 0 1 1 1.414-1.414 1 1 0 0 1-1.414 1.414m-9.9-9.9a1 1 0 1 1 1.414-1.414 1 1 0 0 1-1.414 1.414m10.84-3.734a.5.5 0 1 1-.866-.5.5.5 0 0 1 .866.5m-9.5 16.454a.5.5 0 1 1-.866-.5.5.5 0 0 1 .866.5M19.794 7.5a.5.5 0 1 0 .866-.5.5.5 0 0 0-.866.5M3.34 17a.5.5 0 1 0 .866-.5.5.5 0 0 0-.866.5m18.16-4.5a.5.5 0 1 1 0-1 .5.5 0 0 1 0 1m-19 0a.5.5 0 1 1 0-1 .5.5 0 0 1 0 1m17.294 4a.5.5 0 1 0 .866.5.5.5 0 0 0-.866-.5M3.34 7a.5.5 0 1 0 .866.5.5.5 0 0 0-.866-.5m12.977 13.477a.5.5 0 1 1 .866-.5.5.5 0 0 1-.866.5m-9.5-16.454a.5.5 0 1 1 .866-.5.5.5 0 0 1-.866.5"/></g></svg>