<svg xmlns="http://www.w3.org/2000/svg" width="24" height="24">
    <g fill="none" fill-rule="evenodd">
        <path fill="currentColor" d="M19 4a3 3 0 0 1 2.995 2.824L22 7v10a3 3 0 0 1-2.824 2.995L19 20H5a3 3 0 0 1-2.995-2.824L2 17V7a3 3 0 0 1 2.824-2.995L5 4zm1 6H4v7a1 1 0 0 0 .883.993L5 18h14a1 1 0 0 0 .993-.883L20 17zm-5.293 1.464 1.828 1.829a1 1 0 0 1 0 1.414l-1.828 1.828a1 1 0 1 1-1.414-1.414l.12-.121H9a1 1 0 1 1 0-2h4.414l-.121-.121a1 1 0 0 1 1.414-1.415M19 6H5a1 1 0 0 0-1 1v1h16V7a1 1 0 0 0-1-1"/>
    </g>
</svg>