<svg xmlns="http://www.w3.org/2000/svg" width="24" height="24"><g fill="none"><path fill="currentColor" d="M11.132 13.004a1 1 0 0 1 1.788.888l-.052.104L11.723 16h2.105a1.1 1.1 0 0 1 1.006 1.545l-.051.1-1.915 3.351a1 1 0 0 1-1.788-.888l.052-.104L12.277 18h-2.105a1.1 1.1 0 0 1-1.006-1.545l.051-.1zM11.5 2a6.502 6.502 0 0 1 6.086 4.212A6.002 6.002 0 0 1 18.4 17.5a1 1 0 0 1-.8-1.832 4.001 4.001 0 0 0-.945-7.615 1.01 1.01 0 0 1-.81-.732A4.5 4.5 0 0 0 7.027 9a1.01 1.01 0 0 1-.76 1.09 3.002 3.002 0 0 0-.019 5.816 1 1 0 0 1-.498 1.936A5.002 5.002 0 0 1 5 8.416 6.5 6.5 0 0 1 11.5 2"/></g></svg>