<svg xmlns="http://www.w3.org/2000/svg" width="24" height="24">
    <g fill="none">
        <path fill="currentColor" d="M4 4a1 1 0 0 0 0 2h16a1 1 0 1 0 0-2zm13 4a1 1 0 0 1 .946.677l.13.378a3 3 0 0 0 1.869 1.87l.378.129a1 1 0 0 1 0 1.892l-.378.13a3 3 0 0 0-1.87 1.869l-.129.378a1 1 0 0 1-1.892 0l-.13-.378a3 3 0 0 0-1.869-1.87l-.378-.129a1 1 0 0 1 0-1.892l.378-.13a3 3 0 0 0 1.87-1.869l.129-.378A1 1 0 0 1 17 8m0 3.196a5.008 5.008 0 0 1-.804.804c.298.236.567.506.804.804.236-.298.506-.568.804-.804a5.008 5.008 0 0 1-.804-.804M3 19a1 1 0 0 1 1-1h1a1 1 0 1 1 0 2H4a1 1 0 0 1-1-1m11-1a1 1 0 1 0 0 2h1a1 1 0 1 0 0-2zm-6 1a1 1 0 0 1 1-1h1a1 1 0 1 1 0 2H9a1 1 0 0 1-1-1m11-1a1 1 0 1 0 0 2h1a1 1 0 1 0 0-2zM3 12a1 1 0 0 1 1-1h6a1 1 0 1 1 0 2H4a1 1 0 0 1-1-1"/>
    </g>
</svg>