<svg xmlns="http://www.w3.org/2000/svg" width="24" height="24"><g fill="none"><path fill="currentColor" d="M12 2a4 4 0 0 1 3.949 4.64l.206-.055a3 3 0 1 1 1.553 5.795L16 12.838v.76l1.848 3.201a3 3 0 1 1-5.196 3L12 18.67l-.652 1.13a3 3 0 0 1-5.196-3L8 13.6v-.761l-1.708-.458a3 3 0 1 1 1.553-5.795l.206.055A4 4 0 0 1 12 2m0 2a2 2 0 0 0-1.373 3.454 1 1 0 0 1-.945 1.693l-2.355-.63a1 1 0 1 0-.518 1.931l2.45.657a1 1 0 0 1 .741.965v1.796a1 1 0 0 1-.134.5L7.884 17.8a1 1 0 1 0 1.732 1l1.327-2.299a1 1 0 0 1 .866-.5h.382a1 1 0 0 1 .865.5l1.328 2.3a1 1 0 0 0 1.732-1l-1.982-3.434a1 1 0 0 1-.134-.5V12.07a1 1 0 0 1 .741-.965l2.45-.657a1 1 0 0 0-.518-1.932l-2.355.631a1 1 0 0 1-.945-1.693A2 2 0 0 0 12 4m0 9a1 1 0 1 1 0 2 1 1 0 0 1 0-2m0-3a1 1 0 1 1 0 2 1 1 0 0 1 0-2"/></g></svg>