<svg xmlns="http://www.w3.org/2000/svg" width="24" height="24" viewBox="0 0 24 24">
    <g fill="none" fill-rule="evenodd">
        <path fill="currentColor" d="M10.2071,3.79289 C10.5976,4.18342 10.5976,4.81658 10.2071,5.20711 L7.41421,8 L16,8 C17.6569,8 19,9.34315 19,11 L19,18 C19,18.5523 18.5523,19 18,19 C17.4477,19 17,18.5523 17,18 L17,11 C17,10.4477 16.5523,10 16,10 L7.41421,10 L10.2071,12.7929 C10.5976,13.1834 10.5976,13.8166 10.2071,14.2071 C9.81658,14.5976 9.18342,14.5976 8.79289,14.2071 L4.29289,9.70711 C3.90237,9.31658 3.90237,8.68342 4.29289,8.29289 L8.79289,3.79289 C9.18342,3.40237 9.81658,3.40237 10.2071,3.79289 Z"/>
    </g>
</svg>