<svg xmlns="http://www.w3.org/2000/svg" width="24" height="24">
    <g fill="none">
        <path fill="currentColor" d="M12 2a8.5 8.5 0 0 1 5.331 15.12l-.226.177.71 2.84a1.5 1.5 0 0 1-1.324 1.857L16.36 22H7.64a1.5 1.5 0 0 1-1.481-1.735l.026-.129.71-2.84A8.5 8.5 0 0 1 12 2m3.22 16H8.78l-.5 2h7.44zM12 4a6.5 6.5 0 0 0-3.466 12h6.932A6.5 6.5 0 0 0 12 4m4.11 5.56a2.896 2.896 0 0 0 .532.808c.15.159.317.3.5.422l.175.107c.08.045.08.16 0 .206l-.176.107a2.825 2.825 0 0 0-1.03 1.23.12.12 0 0 1-.221 0 2.869 2.869 0 0 0-1.031-1.229l-.176-.108a.118.118 0 0 1 0-.206l.176-.107a2.825 2.825 0 0 0 1.03-1.23.12.12 0 0 1 .221 0M12.816 5.6c.071-.158.297-.158.368 0a4.78 4.78 0 0 0 .887 1.347 4.715 4.715 0 0 0 1.125.882.196.196 0 0 1 0 .342 4.743 4.743 0 0 0-1.126.882 4.78 4.78 0 0 0-.886 1.346.201.201 0 0 1-.368 0 4.78 4.78 0 0 0-.887-1.347 4.715 4.715 0 0 0-1.125-.88.196.196 0 0 1 0-.343 4.743 4.743 0 0 0 1.126-.882 4.78 4.78 0 0 0 .886-1.346"/>
    </g>
</svg>