<svg xmlns="http://www.w3.org/2000/svg" width="24" height="24"><g fill="none"><path fill="currentColor" d="M12 2c5.523 0 10 4.477 10 10s-4.477 10-10 10S2 17.523 2 12 6.477 2 12 2m0 2a8 8 0 1 0 0 16 8 8 0 0 0 0-16m0 2a6 6 0 0 1 4.8 9.6 1 1 0 1 1-1.6-1.2 4 4 0 0 0-4.002-6.32 1 1 0 0 1-.397-1.96A6.02 6.02 0 0 1 12 6m-5.88 4.801a1 1 0 1 1 1.96.398c-.052.258-.08.526-.08.801 0 .902.297 1.731.8 2.4a1 1 0 0 1-1.6 1.2A5.978 5.978 0 0 1 6 12c0-.41.041-.81.12-1.199m2.587-3.508 2.775 2.775a2 2 0 1 1-1.414 1.414L7.293 8.707a1 1 0 0 1 1.414-1.414"/></g></svg>