<svg xmlns="http://www.w3.org/2000/svg" width="24" height="24">
    <g fill="none" fill-rule="evenodd">
        <path fill="currentColor" d="M15 4a1 1 0 1 0 0 2 1 1 0 0 0 0-2m-3 1a3 3 0 1 1 3.156 2.996l-2.32 5.304a.5.5 0 0 0 .457.7H15.6a3 3 0 0 1 2.82 1.975l1.385 3.809.643.322a1 1 0 1 1-.894 1.788l-1-.5a1 1 0 0 1-.493-.552l-1.521-4.184a1 1 0 0 0-.94-.658h-2.306c-1.802 0-3.012-1.85-2.29-3.502l1.033-2.362L10 9.118l-3.553 1.776a1 1 0 1 1-.894-1.788l3.553-1.777a2 2 0 0 1 1.788 0l1.945.973.386-.883A2.996 2.996 0 0 1 12 5m-6.182 7.913a4.5 4.5 0 1 0 7.692 4.632l1.78.91a6.5 6.5 0 1 1-11.108-6.694z"/>
    </g>
</svg>