<svg xmlns="http://www.w3.org/2000/svg" width="24" height="24"><g fill="none"><path fill="currentColor" d="M5.5 17a1.5 1.5 0 1 1 0 3 1.5 1.5 0 0 1 0-3m6.5 0a1.5 1.5 0 1 1 0 3 1.5 1.5 0 0 1 0-3m6.5 0a1.5 1.5 0 1 1 0 3 1.5 1.5 0 0 1 0-3m-13-6.5a1.5 1.5 0 1 1 0 3 1.5 1.5 0 0 1 0-3m6.5 0a1.5 1.5 0 1 1 0 3 1.5 1.5 0 0 1 0-3m6.5 0a1.5 1.5 0 1 1 0 3 1.5 1.5 0 0 1 0-3M5.5 4a1.5 1.5 0 1 1 0 3 1.5 1.5 0 0 1 0-3M12 4a1.5 1.5 0 1 1 0 3 1.5 1.5 0 0 1 0-3m6.5 0a1.5 1.5 0 1 1 0 3 1.5 1.5 0 0 1 0-3"/></g></svg>