<svg xmlns="http://www.w3.org/2000/svg" width="24" height="24">
    <g fill="none" fill-rule="evenodd">
        <path fill="currentColor" fill-rule="nonzero" d="M14 3a2 2 0 0 1 2 2h3a2 2 0 0 1 2 2v2a2 2 0 0 1-1.51 1.94l2.142 4.996c.264.527.368.985.368 1.564a3.5 3.5 0 0 1-6.663 1.5H9.663a3.5 3.5 0 0 1-6.628-1H3a1 1 0 0 1-1-1V9a2 2 0 0 1 2-2h4a2 2 0 0 1 2 2v2a2 2 0 1 0 4 0V5h-2a1 1 0 1 1 0-2zM6.5 16a1.5 1.5 0 1 0 0 3 1.5 1.5 0 0 0 0-3m12 0a1.5 1.5 0 1 0 1.5 1.5c0-.811-.685-1.5-1.5-1.5m-1.16-5H16a4 4 0 0 1-7.465 2H4v2.05A3.5 3.5 0 0 1 9.965 17h5.07c.25-1.749 1.83-3.06 3.592-2.998L17.341 11ZM8 9H4v2h4zm11-2h-3v2h3z"/>
    </g>
</svg>