<svg xmlns="http://www.w3.org/2000/svg" width="24" height="24"><g fill="none" fill-rule="evenodd"><path fill="currentColor" d="M11.084 3.244a3 3 0 0 1 1.607-.063l.225.063L19.45 5.34c.19.063.361.181.486.346l.07.105 2.75 4.747a1 1 0 0 1-.44 1.407l-.12.047-2.051.658v4.33a2 2 0 0 1-1.237 1.848l-.152.056-5.84 1.872a3 3 0 0 1-1.607.063l-.225-.062-5.84-1.873a2 2 0 0 1-1.382-1.743l-.007-.162V12.65l-2.051-.658a1 1 0 0 1-.617-1.338l.057-.116 2.75-4.747a.998.998 0 0 1 .445-.406l.11-.045zM13 12.305v6.324l5.145-1.65v-3.687l-3.09.991a1 1 0 0 1-1.106-.353l-.064-.098zm-2 0-.885 1.527a1 1 0 0 1-1.17.451l-3.09-.991v3.687L11 18.63zM5.32 7.49l-1.723 2.977 5.191 1.666 1.725-2.977zm13.36 0-5.193 1.666 1.724 2.977 5.192-1.666zm-6.375-2.342a1 1 0 0 0-.49-.03l-.12.03L8.13 6.292 12 7.533l3.87-1.241z"/></g></svg>