<svg xmlns="http://www.w3.org/2000/svg" width="24" height="24">
    <g fill="none">
        <path fill="currentColor" d="M17.983 8.051a1 1 0 0 1 .632 1.265l-.527 1.581A6 6 0 0 1 12.396 15H9.854a2 2 0 0 0-1.789 1.106l-2.17 4.341a1 1 0 1 1-1.79-.894l2.171-4.342A4 4 0 0 1 9.854 13h2.542a4 4 0 0 0 3.795-2.735l.527-1.581a1 1 0 0 1 1.265-.633M6.492 5.088l.094.084L8 6.586l1.414-1.414a1 1 0 0 1 1.498 1.32l-.084.094-2.12 2.121a1 1 0 0 1-1.316.087l-.1-.087-2.12-2.121A1 1 0 0 1 6.39 5.019l.102.07ZM18.5 3a1.5 1.5 0 1 1 0 3 1.5 1.5 0 0 1 0-3"/>
    </g>
</svg>