<svg xmlns="http://www.w3.org/2000/svg" width="24" height="24"><g fill="none" fill-rule="evenodd"><path fill="currentColor" d="m7.705 5.544-1.85 1.48a95.738 95.738 0 0 1 4.893 3.966c.64.555.692 1.529.115 2.149a93.95 93.95 0 0 1-4.308 4.342l.063.105c1.703-1.337 3.38-2.67 5.01-4.047a1.5 1.5 0 0 1 1.996.053 94.047 94.047 0 0 1 3.83 3.824l.538-.36a94.22 94.22 0 0 0-3.366-4.208 1.505 1.505 0 0 1 .12-2.072 58.09 58.09 0 0 0 3.378-3.416l-1.159-1.49a96.32 96.32 0 0 1-2.954 3.705 1.5 1.5 0 0 1-2.247.056 91.956 91.956 0 0 0-4.059-4.087m-.91-1.834a1.498 1.498 0 0 1 1.961.077 94.103 94.103 0 0 1 4.084 4.068 94.899 94.899 0 0 0 2.915-3.702c.591-.79 1.778-.81 2.39-.024l1.815 2.335c.44.566.421 1.372-.062 1.915a58.497 58.497 0 0 1-3.443 3.535 96.52 96.52 0 0 1 3.459 4.37c.515.691.34 1.668-.371 2.142l-1.331.888a1.502 1.502 0 0 1-1.929-.224 92.219 92.219 0 0 0-3.706-3.736c-1.694 1.42-3.43 2.792-5.172 4.156a1.5 1.5 0 0 1-2.21-.41l-.562-.934a1.502 1.502 0 0 1 .262-1.869 92.035 92.035 0 0 0 4.146-4.137 94.199 94.199 0 0 0-4.896-3.92 1.503 1.503 0 0 1-.04-2.377z"/></g></svg>