<svg xmlns="http://www.w3.org/2000/svg" width="24" height="24" viewBox="0 0 24 24">
    <g fill="none">
        <path fill="currentColor" d="M12,2 C17.523,2 22,6.477 22,12 C22,17.523 17.523,22 12,22 C6.477,22 2,17.523 2,12 C2,6.477 6.477,2 12,2 M12,4 C7.581722,4 4,7.581722 4,12 C4,16.418278 7.581722,20 12,20 C16.418278,20 20,16.418278 20,12 C20,7.581722 16.418278,4 12,4 M12.2,6.4 C12.4570298,6.05722264 12.9038613,5.91626624 13.3110553,6.04950917 C13.7182493,6.18275209 13.9953212,6.56058578 14,6.989 L13.994,7.111 L13.64,10.296 L15.336,10.014 C15.7147578,9.95131735 16.095964,10.1110031 16.3169648,10.4249223 C16.5379656,10.7388415 16.5597411,11.1515684 16.373,11.487 L16.3,11.6 L11.8,17.6 C11.5429702,17.9427774 11.0961387,18.0837338 10.6889447,17.9504908 C10.2817507,17.8172479 10.0046788,17.4394142 10,17.011 L10.006,16.89 L10.36,13.704 L8.664,13.986 C8.28524218,14.0486827 7.90403601,13.8889969 7.68303521,13.5750777 C7.46203441,13.2611585 7.44025894,12.8484316 7.627,12.513 L7.7,12.4 L12.2,6.4 Z"/>
    </g>
</svg>