<svg xmlns="http://www.w3.org/2000/svg" width="24" height="24">
    <g fill="none" fill-rule="evenodd">
        <path fill="currentColor" d="M21 20a1 1 0 0 1 .117 1.993L21 22H3a1 1 0 0 1-.117-1.993L3 20zM8.103 3.205a1.01 1.01 0 0 1 1.151-1.143l.11.024 2.76.739c.346.093.634.33.793.646l.053.123 2.81 7.501 3.665 1.317a3.96 3.96 0 0 1 2.541 2.933c.138.674-.034 1.363-.564 1.828a3.474 3.474 0 0 1-2.982.796l-.21-.05-15.077-4.04a1.1 1.1 0 0 1-.787-.812l-.02-.12-.629-5.265a1.01 1.01 0 0 1 1.15-1.119l.115.024 2.27.609c.36.096.655.346.81.678l.051.129.34 1.004 2.542.387zm2.194 1.201.868 6.024a1.01 1.01 0 0 1-1.035 1.153l-.117-.01-4.456-.68a1.01 1.01 0 0 1-.758-.559l-.047-.115-.404-1.195-.472-.127.383 3.209 14.488 3.882c.444.119.916.024 1.277-.253a1.96 1.96 0 0 0-1.11-1.382l-.145-.059-4.096-1.472a1.01 1.01 0 0 1-.553-.48l-.051-.116-2.836-7.57z"/>
    </g>
</svg>