<svg xmlns="http://www.w3.org/2000/svg" width="24" height="24"><g fill="none" fill-rule="evenodd"><path fill="currentColor" d="M9.5 2A2.5 2.5 0 0 0 7 4.5v5.962a4.734 4.734 0 0 0-.87-.584c-1.02-.518-2.01-.438-3.053-.012-.84.345-1.107 1.308-.747 2.028l2.842 5.684A8 8 0 0 0 12.326 22H13a8 8 0 0 0 7.984-7.486c.042-.67.016-1.344.016-2.014a2.5 2.5 0 0 0-3.388-2.338 2.498 2.498 0 0 0-3-1A2.498 2.498 0 0 0 12 8.05V4.5A2.5 2.5 0 0 0 9.5 2M18 12.5v.5a1 1 0 1 1-2 0v-1.5a.5.5 0 0 0-1-.008V12a1 1 0 0 1-2 0v-1.5a.5.5 0 0 0-1 0V12a1 1 0 0 1-2 0V4.5a.5.5 0 1 0-1 0V13a1 1 0 0 1-1.78.625c-.925-1.156-1.517-1.72-1.995-1.964a1.214 1.214 0 0 0-.835-.117l2.57 5.14A6 6 0 0 0 12.326 20H13a6 6 0 0 0 6-5.98V12.5a.5.5 0 0 0-1 0"/></g></svg>