<svg xmlns="http://www.w3.org/2000/svg" width="24" height="24"><g fill="none"><path fill="currentColor" d="m8.647 12.732.353.354.354-.354a1 1 0 0 1 1.414 1.415l-.354.353.354.354a1 1 0 0 1-1.414 1.414L9 15.914l-.353.354a1 1 0 0 1-1.415-1.414l.354-.354-.354-.353a1 1 0 0 1 1.415-1.415m6 0 .353.354.354-.354a1 1 0 0 1 1.414 1.415l-.354.353.354.354a1 1 0 0 1-1.414 1.414L15 15.914l-.353.354a1 1 0 0 1-1.415-1.414l.354-.354-.354-.353a1 1 0 0 1 1.415-1.415M11.5 2a6.502 6.502 0 0 1 6.086 4.212 6.002 6.002 0 0 1 3.214 9.389 1 1 0 0 1-1.6-1.202 4.001 4.001 0 0 0-2.545-6.346 1.01 1.01 0 0 1-.81-.732A4.5 4.5 0 0 0 7.027 9a1.01 1.01 0 0 1-.76 1.09 3.002 3.002 0 0 0-1.97 4.216l.103.193a1 1 0 1 1-1.731 1.002A5 5 0 0 1 5 8.416 6.5 6.5 0 0 1 11.5 2M6.768 18.232a1 1 0 0 1 0 1.415L6.414 20l.354.354a1 1 0 1 1-1.414 1.414L5 21.414l-.353.354a1 1 0 0 1-1.415-1.414L3.586 20l-.354-.353a1 1 0 0 1 1.415-1.415l.353.354.354-.354a1 1 0 0 1 1.414 0m12 0a1 1 0 0 1 0 1.415l-.354.353.354.354a1 1 0 0 1-1.414 1.414L17 21.414l-.353.354a1 1 0 0 1-1.415-1.414l.354-.354-.354-.353a1 1 0 0 1 1.415-1.415l.353.354.354-.354a1 1 0 0 1 1.414 0m-6 0a1 1 0 0 1 0 1.415l-.354.353.354.354a1 1 0 0 1-1.414 1.414L11 21.414l-.353.354a1 1 0 0 1-1.415-1.414L9.586 20l-.354-.353a1 1 0 0 1 1.415-1.415l.353.354.354-.354a1 1 0 0 1 1.414 0"/></g></svg>