<svg xmlns="http://www.w3.org/2000/svg" width="24" height="24">
    <g fill="none" fill-rule="evenodd">
        <path fill="currentColor" d="M9 2a3 3 0 0 1 2.995 2.824L12 5v.568a1.001 1.001 0 0 1 1.069.094l.099.087a1 1 0 0 1-1.052 1.65L12 7.348v2.511c.007.047.01.094.01.142l-.003.072-.007.07v2.505a1 1 0 0 1 1.265 1.493l-.093.104a5 5 0 1 1-7.269-1.17.385.385 0 0 0 .07-.069l.027-.05V5a3 3 0 0 1 3-3m0 2a1 1 0 0 0-.993.883L8 5v7.958c0 .675-.337 1.226-.744 1.59l-.113.096a3 3 0 1 0 3.86.123l-.146-.123c-.418-.33-.79-.853-.849-1.505L10 12.96V5a1 1 0 0 0-1-1m7 9.99a1 1 0 0 1 .993.884L17 15a1 1 0 0 1-1.993.117L15 14.99a1 1 0 0 1 1-1m4.24-1.17a1 1 0 0 1-1.313 1.504l-.102-.09a1 1 0 0 1 1.414-1.414ZM16 7a3 3 0 1 1 0 6 3 3 0 0 1 0-6m0 2a1 1 0 1 0 0 2 1 1 0 0 0 0-2m5 0a1 1 0 0 1 .117 1.993L20.99 11a1 1 0 0 1-.117-1.993zm-.754-3.244a1 1 0 0 1 .083 1.32l-.09.101a1 1 0 0 1-1.497-1.32l.09-.1a1 1 0 0 1 1.414 0ZM16 3.99a1 1 0 0 1 .993.884L17 5a1 1 0 0 1-1.993.117L15 4.99a1 1 0 0 1 1-1"/>
    </g>
</svg>