<svg xmlns="http://www.w3.org/2000/svg" width="24" height="24">
    <g fill="none">
        <path fill="currentColor" d="M20.66 7c2.762 4.783 1.123 10.9-3.66 13.66-4.123 2.38-9.233 1.491-12.335-1.86a1 1 0 0 1 1.468-1.358 8 8 0 1 0-2.06-6.524l1.281-.335c1.047-.273 1.818.97 1.108 1.787L4.21 14.957c-.568.652-1.665.43-1.892-.444A10.003 10.003 0 0 1 7 3.34C11.783.579 17.899 2.217 20.66 7M12 6a1 1 0 0 1 1 1v4.586l2.707 2.707a1 1 0 1 1-1.414 1.414l-3-3A1 1 0 0 1 11 12V7a1 1 0 0 1 1-1"/>
    </g>
</svg>