<svg xmlns="http://www.w3.org/2000/svg" width="24" height="24">
    <g fill="none" fill-rule="evenodd">
        <path fill="currentColor" d="M12 3c-1.84 0-3.545.232-4.824.631-.633.198-1.218.455-1.667.786l-.176.13A9.978 9.978 0 0 0 2 12c0 5.523 4.477 10 10 10s10-4.477 10-10a9.977 9.977 0 0 0-3.32-7.441l-.189-.142c-.448-.331-1.034-.588-1.667-.786C15.545 3.231 13.84 3 12 3M7.773 5.54c-.494.155-.835.319-1.04.46.205.141.546.305 1.04.46C8.81 6.784 10.305 7 12 7c1.695 0 3.19-.216 4.227-.54.495-.155.836-.319 1.04-.46-.204-.141-.545-.305-1.04-.46C15.19 5.216 13.695 5 12 5c-1.695 0-3.19.216-4.227.54m10.836 1.951c-.04.032-.079.063-.118.092-.448.331-1.034.588-1.667.786C15.545 8.769 13.84 9 12 9c-1.84 0-3.545-.232-4.824-.631-.633-.198-1.218-.455-1.667-.786a3.05 3.05 0 0 1-.118-.092 8 8 0 1 0 13.219 0Z"/>
    </g>
</svg>