<svg xmlns="http://www.w3.org/2000/svg" width="24" height="24">
    <g fill="none" fill-rule="evenodd">
        <path fill="currentColor" d="M21 3.426c0-.937-1.005-1.563-1.851-1.098-1.137.624-4.503 2.442-6.518 3.243-2.345.931-4.364 1.281-6.678 1.389C4.35 7.034 3 8.329 3 10v4c0 1.671 1.35 2.966 2.953 3.04.274.013.543.029.81.049l-.744 3.715a1 1 0 0 0 1.962.392l.773-3.868c1.263.215 2.515.56 3.877 1.101 2.015.801 5.38 2.62 6.518 3.243.846.465 1.851-.161 1.851-1.098zM9 15.342c1.418.235 2.833.618 4.37 1.229 1.652.656 4.086 1.919 5.63 2.746V4.683c-1.544.827-3.978 2.09-5.63 2.746-1.537.61-2.952.994-4.37 1.23zM7 8.899c-.315.024-.632.044-.954.059C5.443 8.986 5 9.462 5 10v4c0 .538.443 1.014 1.046 1.042.322.015.64.035.954.06z"/>
    </g>
</svg>