<svg xmlns="http://www.w3.org/2000/svg" width="24" height="24"><g fill="none"><path fill="currentColor" d="M12 3c5.344 0 10 3.643 10 8.5S17.344 20 12 20c-.525 0-1.042-.034-1.546-.1l-2.9 1.932a1 1 0 0 1-1.535-1.028l.445-2.221C3.828 17.09 2 14.517 2 11.5 2 6.643 6.656 3 12 3m0 2c-4.597 0-8 3.073-8 6.5 0 2.335 1.544 4.475 4.017 5.635a1 1 0 0 1 .556 1.101l-.119.593 1.211-.808a1 1 0 0 1 .72-.154c.52.087 1.06.133 1.615.133 4.597 0 8-3.073 8-6.5S16.597 5 12 5m-2 2a1 1 0 0 1 1 1v4.485l.009-.117a.997.997 0 0 1 .21-.493l2-2.5a1 1 0 0 1 1.562 1.25l-1.5 1.875 1.5 1.875a1 1 0 1 1-1.562 1.25l-2-2.5a.998.998 0 0 1-.219-.61V15a1 1 0 1 1-2 0V8a1 1 0 0 1 1-1"/></g></svg>