<svg xmlns="http://www.w3.org/2000/svg" width="24" height="24"><g fill="none" fill-rule="evenodd"><path fill="currentColor" d="M11.852 5.782a4.5 4.5 0 1 1 1.388 7.31 2.102 2.102 0 0 0-.837-.178H11.04c-.69 0-1.25.56-1.25 1.25v1.578H8.213c-.69 0-1.25.56-1.25 1.25v1.578H4.72v-1.414l5.356-5.355c.544-.544.68-1.296.55-1.931a4.495 4.495 0 0 1 1.226-4.088m7.778-1.414A6.5 6.5 0 0 0 8.666 10.27a.21.21 0 0 1-.006.118l-5.5 5.5a1.5 1.5 0 0 0-.44 1.061v2.611c0 .558.452 1.01 1.01 1.01h3.983c.69 0 1.25-.56 1.25-1.25v-1.578h1.578c.69 0 1.25-.56 1.25-1.25v-1.578h.61c.002 0 .016.002.042.013a6.502 6.502 0 0 0 7.187-10.56Zm-4.95 4.95a1.5 1.5 0 1 0 2.122-2.122 1.5 1.5 0 0 0-2.122 2.121Z"/></g></svg>