<svg xmlns="http://www.w3.org/2000/svg" width="24" height="24"><g fill="none" fill-rule="evenodd"><path fill="currentColor" d="M16.95 2.586a1 1 0 0 1 0 1.414l-3 3H19a2 2 0 0 1 2 2v10a2 2 0 0 1-2 2H5a2 2 0 0 1-2-2V9a2 2 0 0 1 2-2h3.636L7.05 5.414A1 1 0 0 1 8.465 4l2.474 2.475a.5.5 0 0 0 .707 0l3.89-3.89a1 1 0 0 1 1.414 0M19 9H5v10h14zM8.98 11.547a1.232 1.232 0 0 1 1.72-.994c.417.182 1.211.551 2.2 1.123.992.572 1.708 1.075 2.075 1.346.668.494.67 1.489 0 1.984A22.37 22.37 0 0 1 12.9 16.35c-.997.576-1.785.943-2.2 1.124a1.231 1.231 0 0 1-1.72-.993 22.52 22.52 0 0 1-.128-2.467c0-1.14.078-2.014.128-2.467m1.902 1.306a22.546 22.546 0 0 0 0 2.32 23.017 23.017 0 0 0 2.008-1.16 22.572 22.572 0 0 0-2.008-1.16"/></g></svg>