<svg xmlns="http://www.w3.org/2000/svg" width="24" height="24"><defs><linearGradient id="a" x1="50%" x2="50%" y1="5.271%" y2="91.793%"><stop offset="0%" stop-color="currentColor"/><stop offset="100%" stop-color="currentColor" stop-opacity=".55"/></linearGradient><linearGradient id="b" x1="50%" x2="50%" y1="8.877%" y2="90.415%"><stop offset="0%" stop-color="currentColor" stop-opacity="0"/><stop offset="100%" stop-color="currentColor" stop-opacity=".55"/></linearGradient></defs><g fill="none"><path fill="url(#a)" d="M8.886.006a1 1 0 0 1 .22 1.988A8.001 8.001 0 0 0 10 17.944v2c-5.523 0-10-4.476-10-10C0 4.838 3.848.566 8.886.007Z" transform="translate(2 2.055)"/><path fill="url(#b)" d="M14.322 1.985a1 1 0 0 1 1.392-.248A9.988 9.988 0 0 1 20 9.945c0 5.523-4.477 10-10 10v-2a8 8 0 0 0 4.57-14.567 1 1 0 0 1-.248-1.393" transform="translate(2 2.055)"/></g></svg>