<svg xmlns="http://www.w3.org/2000/svg" width="24" height="24"><g fill="none" fill-rule="evenodd"><path fill="currentColor" d="M12 4c.672 0 1.235.44 1.599.805.414.415.813.978 1.16 1.63.448.845.836 1.89 1.054 3.058a9.419 9.419 0 0 1 1.898-.74c.493-.129.973-.2 1.399-.19.37.009.934.082 1.34.488.421.421.512 1.047.483 1.617-.028.528-.163 1.138-.385 1.769a10.55 10.55 0 0 1-1.088 2.197 7.31 7.31 0 0 1 1.23.6c.62.386 1.31.969 1.31 1.766 0 .355-.143.642-.269.83-.411.62-1.119 1.025-1.777 1.328-1.028.473-2.42.842-3.954.842-1.55 0-2.96-.376-4-.863-1.04.487-2.45.863-4 .863-1.534 0-2.926-.369-3.954-.842-.658-.303-1.366-.708-1.777-1.327A1.509 1.509 0 0 1 2 17c0-.797.69-1.38 1.31-1.765a7.316 7.316 0 0 1 1.23-.601 10.551 10.551 0 0 1-1.088-2.197c-.222-.631-.357-1.24-.385-1.769-.03-.57.061-1.196.483-1.617.406-.406.97-.48 1.34-.488.426-.01.906.061 1.399.19a9.42 9.42 0 0 1 1.898.74 10.808 10.808 0 0 1 1.055-3.058c.346-.652.745-1.215 1.16-1.63C10.765 4.44 11.327 4 12 4m6.145 12.301A11.168 11.168 0 0 1 16.072 18c1.198-.012 2.278-.305 3.045-.658.255-.118.462-.235.62-.342-.48-.324-1.037-.54-1.592-.699m-12.29 0c-.555.16-1.111.375-1.592.699.158.107.365.224.62.342.767.353 1.847.646 3.045.658a11.166 11.166 0 0 1-2.073-1.7Zm6.328-10.084c-.17-.17-.196-.17-.366 0-.242.243-.53.632-.809 1.156A8.989 8.989 0 0 0 10 11.5a8.99 8.99 0 0 0 1.008 4.127c.279.524.568.914.81 1.156.169.17.195.17.365 0 .242-.242.53-.632.809-1.156A8.99 8.99 0 0 0 14 11.5a8.989 8.989 0 0 0-1.008-4.127c-.279-.524-.568-.913-.81-1.156Zm-7.118 4.348c.015.288.096.704.273 1.208.354 1.006 1.043 2.23 2.101 3.288a9.214 9.214 0 0 0 1.723 1.351 11.017 11.017 0 0 1-1.16-4.721c-.8-.51-1.586-.838-2.219-1.003a3.704 3.704 0 0 0-.718-.123m13.87 0c-.18.01-.422.046-.718.123-.633.165-1.419.493-2.219 1.003a11.016 11.016 0 0 1-1.16 4.72 9.217 9.217 0 0 0 1.723-1.35c1.058-1.058 1.747-2.282 2.1-3.288.178-.504.259-.92.274-1.208"/></g></svg>