<svg xmlns="http://www.w3.org/2000/svg" width="24" height="24">
    <g fill="none">
        <path fill="currentColor" d="M16.432 2.415a5.109 5.109 0 0 1 4.163 4.142c.431 2.361.528 4.682.04 7.108-.406 2.023-2.006 3.532-4.01 3.893-1.55.278-3.105.424-4.667.42.722.144 1.471.17 2.21.186l.632.012.395.002c.536.007 1.097.048 1.533.34.266.178.535.51.533.985 0 .429-.231.732-.364.878-.468.513-1.19.784-1.832.994-1.042.339-2.46.6-4.06.607-3.428.016-6.644-2.263-7.478-5.75-.749-3.133-.743-6.648-.145-9.781a5.03 5.03 0 0 1 4.094-4.02 25.859 25.859 0 0 1 8.956-.016M7.822 4.4a3.03 3.03 0 0 0-2.475 2.424c-.552 2.89-.55 6.117.125 8.942.602 2.514 2.951 4.227 5.523 4.215.234 0 .462-.008.684-.02a5.862 5.862 0 0 1-2.959-1.498c-.519-.495-1.115-1.254-.791-2.014.201-.471.702-.721 1.2-.657 2.383.31 4.759.224 7.142-.204 1.223-.22 2.165-1.127 2.404-2.318.426-2.119.35-4.177-.047-6.355a3.109 3.109 0 0 0-2.537-2.53 23.858 23.858 0 0 0-8.269.015M14 6a3 3 0 0 1 3 3v4a1 1 0 1 1-2 0V9a1 1 0 1 0-2 0v3a1 1 0 1 1-2 0V9a1 1 0 1 0-2 0v4a1 1 0 1 1-2 0V9a3 3 0 0 1 5-2.236A2.989 2.989 0 0 1 14 6"/>
    </g>
</svg>