<svg xmlns="http://www.w3.org/2000/svg" width="24" height="24"><g fill="none" fill-rule="evenodd"><path fill="currentColor" d="M12.5 1A2.5 2.5 0 0 0 10 3.5v3.55A2.5 2.5 0 0 0 7 9.5v.962a4.734 4.734 0 0 0-.87-.584c-1.02-.518-2.01-.438-3.053-.012-.84.345-1.107 1.308-.747 2.028l2.842 5.684A8 8 0 0 0 12.326 22H13a8 8 0 0 0 8-8v-2.5a2.5 2.5 0 0 0-3.039-2.442A2.5 2.5 0 0 0 15 7.05V3.5A2.5 2.5 0 0 0 12.5 1M16 9.5a.5.5 0 1 0-1 0V11a1 1 0 1 1-2 0V3.5a.5.5 0 1 0-1 0V11a1 1 0 1 1-2 0V9.5a.5.5 0 1 0-1 0V13a1 1 0 0 1-1.78.625c-.925-1.156-1.517-1.72-1.995-1.964a1.214 1.214 0 0 0-.835-.117l2.57 5.14A6 6 0 0 0 12.326 20H13a6 6 0 0 0 6-6v-2.5a.5.5 0 1 0-1 0v.5a1 1 0 1 1-2 0z"/></g></svg>