<svg xmlns="http://www.w3.org/2000/svg" width="24" height="24"><g fill="none" fill-rule="evenodd"><path fill="currentColor" d="M19.026 2.27a1.5 1.5 0 0 1 1.968 1.292l.006.132v3.585a2 2 0 0 1-1.218 1.84l-.15.057L15 10.721V17.5l-.005.212a4.5 4.5 0 1 1-2.214-4.092l.219.138V6.44a3 3 0 0 1 1.88-2.782l.171-.064zM10.5 15a2.5 2.5 0 1 0 2.495 2.664L13 17.5a2.5 2.5 0 0 0-2.5-2.5M7 1a1 1 0 0 1 .946.677l.13.378a3 3 0 0 0 1.869 1.87l.378.129a1 1 0 0 1 0 1.892l-.378.13a3 3 0 0 0-1.87 1.869l-.129.378a1 1 0 0 1-1.892 0l-.13-.378a3 3 0 0 0-1.869-1.87l-.378-.129a1 1 0 0 1 0-1.892l.378-.13a3 3 0 0 0 1.87-1.869l.129-.378A1 1 0 0 1 7 1m12 3.387-3.316 1.106a1 1 0 0 0-.677.832L15 6.441v2.171l4-1.333zm-12-.19A5.004 5.004 0 0 1 6.196 5c.298.236.568.506.804.804.236-.298.506-.568.804-.804A5.004 5.004 0 0 1 7 4.196"/></g></svg>