<svg xmlns="http://www.w3.org/2000/svg" width="24" height="24"><g fill="none" fill-rule="evenodd"><path fill="currentColor" d="M12.25 4.299a.5.5 0 0 0-.5 0L6.206 7.5l1.813 1.047 5.798-3.343zm3.568 2.06L10.02 9.702l1.73.999a.5.5 0 0 0 .5 0L17.794 7.5l-1.976-1.14Zm2.976 2.873-5.544 3.201a2.25 2.25 0 0 1-.25.126v6.709l5.544-3.201a.5.5 0 0 0 .25-.433zM11 19.268v-6.709a2.5 2.5 0 0 1-.25-.126L5.206 9.232v6.402a.5.5 0 0 0 .25.433zm-.25-16.701a2.5 2.5 0 0 1 2.5 0l6.294 3.634a2.5 2.5 0 0 1 1.25 2.165v7.268a2.5 2.5 0 0 1-1.25 2.165l-6.294 3.634a2.5 2.5 0 0 1-2.5 0l-6.294-3.634a2.5 2.5 0 0 1-1.25-2.165V8.366a2.5 2.5 0 0 1 1.25-2.165z"/></g></svg>