<svg xmlns="http://www.w3.org/2000/svg" width="24" height="24">
    <g fill="none">
        <path fill="currentColor" d="M12 2c5.523 0 10 4.477 10 10 0 .649-.062 1.284-.18 1.9-.386 2.004-2.397 2.85-4.082 2.57l-1.74-.29a1.29 1.29 0 0 0-1.124.36c-.37.37-.547.879-.298 1.376.423.846.429 1.812.055 2.603C14.131 21.58 13.11 22 12 22 6.477 22 2 17.523 2 12S6.477 2 12 2m0 2a8 8 0 1 0 0 16l.195-.002c.258-.01.5-.06.628-.332a.993.993 0 0 0-.036-.855c-.63-1.262-.302-2.71.673-3.685a3.29 3.29 0 0 1 2.867-.919l1.74.29c.957.16 1.668-.348 1.789-.975A8 8 0 0 0 12 4m-4.5 7a1.5 1.5 0 1 1 0 3 1.5 1.5 0 0 1 0-3m7-4a1.5 1.5 0 1 1 0 3 1.5 1.5 0 0 1 0-3m-5 0a1.5 1.5 0 1 1 0 3 1.5 1.5 0 0 1 0-3"/>
    </g>
</svg>