<svg xmlns="http://www.w3.org/2000/svg" width="24" height="24">
    <g fill="none" fill-rule="evenodd">
        <path fill="currentColor" d="M20 5a2 2 0 0 1 2 2v10a2 2 0 0 1-2 2H4a2 2 0 0 1-2-2V7a2 2 0 0 1 2-2zm0 2h-7v2.17a3.001 3.001 0 0 1 .172 5.592L13 14.83V17h7v-1h-2a2 2 0 0 1-1.995-1.85L16 14v-4a2 2 0 0 1 1.85-1.995L18 8h2zm-9 0H4v1h2a2 2 0 0 1 1.995 1.85L8 10v4a2 2 0 0 1-1.85 1.995L6 16H4v1h7v-2.17a3.001 3.001 0 0 1-.172-5.592L11 9.17zm9 3h-2v4h2zM6 10H4v4h2zm6 1a1 1 0 1 0 0 2 1 1 0 0 0 0-2"/>
    </g>
</svg>