<svg xmlns="http://www.w3.org/2000/svg" width="24" height="24">
    <g fill="none" fill-rule="evenodd">
        <path fill="currentColor" d="M21 4.64v3.58a2 2 0 0 1-1.515 1.94L17 10.78v6.72a3.5 3.5 0 1 1-2-3.163V6.562a3 3 0 0 1 2.272-2.91l1.864-.467A1.5 1.5 0 0 1 21 4.64M13.5 16a1.5 1.5 0 1 0 0 3 1.5 1.5 0 0 0 0-3M7 17a1 1 0 1 1 0 2H4a1 1 0 1 1 0-2zm2-6a1 1 0 1 1 0 2H4a1 1 0 1 1 0-2zm10-5.72-1.242.311a1 1 0 0 0-.752.857L17 6.562v2.157l2-.5zM12 5a1 1 0 0 1 .117 1.993L12 7H4a1 1 0 0 1-.117-1.993L4 5z"/>
    </g>
</svg>