<svg xmlns="http://www.w3.org/2000/svg" width="24" height="24"><g fill="none" fill-rule="evenodd"><path fill="currentColor" d="M5.567 10.592c.075-.883.108-1.77.157-2.655a6.286 6.286 0 0 1 12.552 0c.05.91.09 1.818.184 2.724.194.417.385.858.57 1.316 1.242 3.073 1.73 5.773 1.09 6.032-.336.135-.914-.425-1.566-1.431a5.2 5.2 0 0 1-.067.322 6.696 6.696 0 0 1-1.899 3.27c1.028.35 1.912.827 1.912 1.33 0 .509-2.48.503-4.238.5-.549-.002-1.012-.008-1.382-.058a6.73 6.73 0 0 1-1.76 0c-.37.05-.832.056-1.382.057-1.758.004-4.238.01-4.238-.499 0-.503.884-.98 1.912-1.33a6.695 6.695 0 0 1-1.899-3.27 6.79 6.79 0 0 1-.077-.316c-.65 1.002-1.227 1.56-1.561 1.425-.64-.259-.153-2.96 1.089-6.032.195-.483.398-.948.603-1.385M7.72 8.048a4.286 4.286 0 0 1 8.558 0L16.443 11h.002c0 1.079.526 1.973.992 2.906a1.146 1.146 0 0 0-.769 1.15A4.682 4.682 0 0 1 12 20c-2.682 0-4.817-2.262-4.668-4.944.033-.602-.375-1-.745-1.142-.047-.018.969-1.903.969-2.914h.001l.164-2.952Z"/></g></svg>