<svg xmlns="http://www.w3.org/2000/svg" width="24" height="24">
    <g fill="none" fill-rule="evenodd">
        <path fill="currentColor" d="M14 13a1 1 0 0 1 .993.883L15 14v6a1 1 0 0 1-1.993.117L13 20v-6a1 1 0 0 1 1-1m3 4.5a1 1 0 0 1 1 1V20a1 1 0 1 1-2 0v-1.5a1 1 0 0 1 1-1m3-4.5a1 1 0 0 1 .993.883L21 14v6a1 1 0 0 1-1.993.117L19 20v-6a1 1 0 0 1 1-1M9 13a2 2 0 0 1 2 2v4a2 2 0 0 1-2 2H5a2 2 0 0 1-2-2v-4a2 2 0 0 1 2-2zm0 2H5v4h4zm8-2a1 1 0 0 1 .993.883L18 14v1.5a1 1 0 0 1-1.993.117L16 15.5V14a1 1 0 0 1 1-1M9 3a2 2 0 0 1 2 2v4a2 2 0 0 1-2 2H5a2 2 0 0 1-2-2V5a2 2 0 0 1 2-2zm10 0a2 2 0 0 1 2 2v4a2 2 0 0 1-2 2h-4a2 2 0 0 1-2-2V5a2 2 0 0 1 2-2zM9 5H5v4h4zm10 0h-4v4h4z"/>
    </g>
</svg>