<svg xmlns="http://www.w3.org/2000/svg" width="24" height="24">
    <g fill="none">
        <path fill="currentColor" d="M4.929 4.929a1 1 0 0 1 1.414 1.414A7.972 7.972 0 0 0 4 12a7.97 7.97 0 0 0 2.343 5.657A1 1 0 1 1 4.93 19.07 9.972 9.972 0 0 1 2 12a9.972 9.972 0 0 1 2.929-7.071m12.728 0a1 1 0 0 1 1.414 0A9.972 9.972 0 0 1 22 12a9.972 9.972 0 0 1-2.929 7.071 1 1 0 0 1-1.414-1.414A7.972 7.972 0 0 0 20 12a7.97 7.97 0 0 0-2.343-5.657 1 1 0 0 1 0-1.414M9.172 7.757a1 1 0 0 1 0 1.415A3.984 3.984 0 0 0 8 12c0 1.13.467 2.148 1.22 2.877a1 1 0 1 1-1.39 1.437A5.985 5.985 0 0 1 6 12c0-1.657.673-3.158 1.757-4.243a1 1 0 0 1 1.415 0m7.11.04A5.984 5.984 0 0 1 18 12a5.984 5.984 0 0 1-1.757 4.243 1 1 0 0 1-1.415-1.415A3.984 3.984 0 0 0 16 12c0-1.091-.436-2.08-1.145-2.802a1 1 0 0 1 1.427-1.401M12 10.5a1.5 1.5 0 1 1 0 3 1.5 1.5 0 0 1 0-3"/>
    </g>
</svg>