<svg xmlns="http://www.w3.org/2000/svg" width="24" height="24">
    <g fill="none">
        <path fill="currentColor" d="M5.269 4.026c.557-.628 1.463-.628 2.044-.148l.105.095 4.848 4.847.087-.087a1 1 0 0 1 1.497 1.32l-.083.094-.087.087 4.347 4.348c.572.572.614 1.557-.053 2.15a8.974 8.974 0 0 1-4.466 2.142l-.341.051.98 1.318a1.1 1.1 0 0 1-.766 1.751l-.116.006h-6.58a1.1 1.1 0 0 1-1.058-1.403l.04-.115 1.254-3.051A8.99 8.99 0 0 1 3 10a8.97 8.97 0 0 1 2.269-5.974m3.426 14.348L8.028 20h3.446l-.819-1.1a8.935 8.935 0 0 1-1.582-.387l-.378-.14ZM6.407 5.79a7 7 0 0 0 9.803 9.803l-3.944-3.944-1.559 1.558a1 1 0 0 1-1.414-1.414l1.558-1.559zm7.7-.737a3.5 3.5 0 0 1 2.859 2.96 1 1 0 0 1-1.958.393l-.023-.115a1.5 1.5 0 0 0-1.07-1.233l-.155-.035a1 1 0 0 1 .348-1.97ZM14 2a6 6 0 0 1 6 6 1 1 0 0 1-1.993.117L18 8a4 4 0 0 0-4-4 1 1 0 1 1 0-2"/>
    </g>
</svg>