<svg xmlns="http://www.w3.org/2000/svg" width="24" height="24"><g fill="none"><path fill="currentColor" d="M17.22 4.625a1 1 0 1 1 1.56-1.25l.538.672c.592.74.87 1.644.836 2.538l1.217.487a1 1 0 1 1-.742 1.857l-1.074-.43a3.833 3.833 0 0 1-.32.43 1.828 1.828 0 0 0-.102 2.247l2.238.896a1 1 0 1 1-.742 1.857l-.426-.17a3.823 3.823 0 0 1-.835 2.511l2.003.802a1 1 0 1 1-.742 1.857l-1.643-.657c.064.152.15.298.258.432l.537.671a1 1 0 1 1-1.562 1.25l-.537-.672a3.82 3.82 0 0 1-.836-2.537l-1.217-.488a1 1 0 1 1 .742-1.856l1.074.43c.096-.15.202-.293.32-.43a1.828 1.828 0 0 0 .102-2.248l-2.238-.896a1 1 0 1 1 .742-1.856l.426.17a3.822 3.822 0 0 1 .835-2.512l-2.003-.801a1 1 0 1 1 .742-1.857l1.643.657a1.824 1.824 0 0 0-.258-.433l-.537-.671Zm-3.451 2.804c-.33-3.195-3.634-4.694-6.381-3.473l-.225.1a8.694 8.694 0 0 0 0 15.889l.225.1c2.747 1.22 6.05-.28 6.38-3.474.135-1.302.232-2.84.232-4.571 0-1.73-.097-3.269-.231-4.57ZM8.2 5.783c1.696-.753 3.41.21 3.58 1.852.127 1.24.22 2.709.22 4.365 0 1.656-.093 3.126-.22 4.365-.17 1.642-1.884 2.606-3.58 1.852l-.225-.1a6.694 6.694 0 0 1 0-12.234z"/></g></svg>