<svg xmlns="http://www.w3.org/2000/svg" width="24" height="24"><g fill="none"><path fill="currentColor" d="M4 9a1 1 0 0 1 .993.883L5 10v1a6 6 0 0 0 5.775 5.996L11 17h3.586l-.793-.793a1 1 0 0 1 1.32-1.497l.094.083 2.5 2.5a.992.992 0 0 1 .281.555l.012.162a.996.996 0 0 1-.212.606l-.085.095-2.496 2.496a1 1 0 0 1-1.497-1.32l.083-.094.793-.793H11a8 8 0 0 1-7.996-7.75L3 11v-1a1 1 0 0 1 1-1m4.793-6.207a1 1 0 0 1 1.497 1.32l-.083.094L9.414 5H13a8 8 0 0 1 7.996 7.75L21 13v1a1 1 0 0 1-1.993.117L19 14v-1a6 6 0 0 0-5.775-5.996L13 7H9.414l.793.793a1 1 0 0 1-1.32 1.497l-.094-.083-2.5-2.5a1 1 0 0 1-.083-1.32l.083-.094z"/></g></svg>