<svg xmlns="http://www.w3.org/2000/svg" width="24" height="24"><g fill="none" fill-rule="evenodd"><path fill="currentColor" d="M8.085 1.689a1 1 0 0 1 .31 1.258L7.867 4H18a4 4 0 0 1 4 4v8a4 4 0 0 1-4 4H6a4 4 0 0 1-4-4v-5a1 1 0 1 1 2 0v5a2 2 0 0 0 2 2h12a2 2 0 0 0 2-2V8a2 2 0 0 0-2-2H5.024c-.9 0-1.35-1.088-.714-1.724l2.483-2.483a1 1 0 0 1 1.292-.104M9.263 9a1.5 1.5 0 0 1 1.5-1.5h3a1 1 0 1 1 0 2h-2.5v.696a4.23 4.23 0 0 1 .75-.071c1.896 0 3.188 1.459 3.188 3.188a3.188 3.188 0 0 1-6.11 1.275 1 1 0 0 1 1.833-.8 1.188 1.188 0 0 0 2.277-.476c0-.687-.46-1.187-1.188-1.187a2.95 2.95 0 0 0-.887.167 3.72 3.72 0 0 0-.417.166 1 1 0 0 1-1.446-.896z"/></g></svg>