<svg xmlns="http://www.w3.org/2000/svg" width="24" height="24">
    <g fill="none">
        <path fill="currentColor" d="M12 2c.852 0 1.505.519 1.953 1.088.458.581.826 1.36 1.117 2.232.585 1.755.93 4.117.93 6.68 0 2.563-.345 4.925-.93 6.68-.29.873-.66 1.651-1.117 2.232-.448.57-1.1 1.088-1.953 1.088-1.197 0-2-.998-2.486-1.923-.532-1.008-.933-2.373-1.189-3.914a1 1 0 0 1 1.974-.326c.235 1.422.589 2.558.984 3.308.198.376.383.61.53.74.194.17.334.07.469-.087l.1-.124c.26-.33.539-.87.79-1.626.501-1.502.828-3.64.828-6.048s-.327-4.546-.827-6.048c-.252-.756-.53-1.296-.79-1.626l-.096-.116c-.145-.164-.296-.262-.497-.074-.163.152-.363.422-.57.844a8.55 8.55 0 0 0-.522 1.387 1 1 0 0 1 .85 1.725l-.099.078-1.617 1.132a.997.997 0 0 1-1.385-.186L7.271 7.433A1 1 0 0 1 8.704 6.07c.201-.742.443-1.41.721-1.974.271-.55.6-1.048 1-1.422C10.831 2.294 11.363 2 12 2m1 9v2H5a1 1 0 0 1-.117-1.993L5 11zm6 0h-2v2h2a1 1 0 1 0 0-2"/>
    </g>
</svg>