<svg xmlns="http://www.w3.org/2000/svg" width="24" height="24">
    <g fill="none" fill-rule="evenodd">
        <path fill="currentColor" d="M20 3a2 2 0 0 1 2 2v13a2 2 0 0 1-2 2h-1a1 1 0 1 1-2 0H7a1 1 0 1 1-2 0H4a2 2 0 0 1-2-2V5a2 2 0 0 1 2-2zm0 2H4v13h16zm-8 2a1 1 0 0 1 1 1v.126a4.002 4.002 0 0 1 2.855 4.945l.109.063a1 1 0 1 1-1 1.732l-.11-.063A3.988 3.988 0 0 1 12 16a3.988 3.988 0 0 1-2.854-1.197l-.11.063a1 1 0 1 1-1-1.732l.109-.063A4.004 4.004 0 0 1 11 8.126V8a1 1 0 0 1 1-1m0 3a2 2 0 0 0-1.818 2.836l.094.178a1.999 1.999 0 0 0 3.359.138l.11-.174A2 2 0 0 0 12 10"/>
    </g>
</svg>