<svg xmlns="http://www.w3.org/2000/svg" width="24" height="24"><g fill="none" fill-rule="evenodd"><path fill="currentColor" d="M11.298 2.195a2 2 0 0 1 1.232-.055l.172.055 7 2.625a2 2 0 0 1 1.291 1.708l.007.165v5.363a9 9 0 0 1-4.709 7.911l-.266.139-3.354 1.677a1.5 1.5 0 0 1-1.198.062l-.144-.062-3.354-1.677a9 9 0 0 1-4.97-7.75l-.005-.3V6.693a2 2 0 0 1 1.145-1.808l.153-.065zM12 4.068 5 6.693v5.363a7 7 0 0 0 3.635 6.138l.235.123L12 19.882l3.13-1.565a7 7 0 0 0 3.865-5.997l.005-.264V6.693zm-.492 3.448a1.4 1.4 0 0 1 .846-.043l.138.043 2.8 1.05a1.4 1.4 0 0 1 .902 1.178l.006.133v2.145a4.2 4.2 0 0 1-2.131 3.655l-.19.102-1.342.67a1.2 1.2 0 0 1-.944.056l-.13-.055-1.341-.671a4.2 4.2 0 0 1-2.316-3.54l-.006-.217V9.877a1.4 1.4 0 0 1 .786-1.258l.122-.053zM12 9.468l-2.2.825v1.73a2.2 2.2 0 0 0 1.07 1.887l.146.08.984.492.984-.492a2.2 2.2 0 0 0 1.21-1.802l.006-.166v-1.729z"/></g></svg>