<svg xmlns="http://www.w3.org/2000/svg" width="24" height="24"><g fill="none" fill-rule="evenodd"><path fill="currentColor" d="M6 3a4 4 0 0 1 3.685 5.56l3.17 2.22 6.486-4.542a2 2 0 0 1 2.786.49L14.599 12l7.528 5.271a2 2 0 0 1-2.786.491l-6.486-4.541-3.17 2.22a4 4 0 1 1-1.217-1.59L11.112 12l-2.644-1.852A4 4 0 1 1 6 3m0 12a2 2 0 1 0 0 4 2 2 0 0 0 0-4m-3-4a1 1 0 1 1 0 2 1 1 0 0 1 0-2m4 0a1 1 0 1 1 0 2 1 1 0 0 1 0-2m10 0a1 1 0 1 1 0 2 1 1 0 0 1 0-2m4 0a1 1 0 1 1 0 2 1 1 0 0 1 0-2M6 5a2 2 0 1 0 0 4 2 2 0 0 0 0-4"/></g></svg>