<svg xmlns="http://www.w3.org/2000/svg" width="24" height="24">
    <g fill="none" fill-rule="evenodd">
        <path fill="currentColor" d="M8 3a1 1 0 0 1 1-1h4a1 1 0 1 1 0 2v2h1.559a3 3 0 0 1 2.845 2.051l1.237 3.71A7 7 0 0 1 19 13.973V19a3 3 0 0 1-3 3H8a3 3 0 0 1-3-3v-5.026a7 7 0 0 1 .36-2.214l1.235-3.709A3 3 0 0 1 9.442 6H11V4H9a1 1 0 0 1-1-1m1.442 5a1 1 0 0 0-.95.684L7.722 11H10a1 1 0 1 1 0 2H7.096a5 5 0 0 0-.096.974V19a1 1 0 0 0 1 1h8a1 1 0 0 0 1-1v-5.026a5 5 0 0 0-.257-1.582l-1.236-3.708A1 1 0 0 0 14.56 8z"/>
    </g>
</svg>