<svg xmlns="http://www.w3.org/2000/svg" width="24" height="24"><g fill="none"><path fill="currentColor" d="M3.707 8.293 4.414 9a2 2 0 0 1 .543 1H13.5a1 1 0 1 1 0 2H5v5a2 2 0 0 0 2 2h10a2 2 0 0 0 2-2v-5h-.5a1 1 0 1 1 0-2h.543a2 2 0 0 1 .543-1l.707-.707a1 1 0 1 1 1.414 1.414l-.707.707V17a4 4 0 0 1-4 4H7a4 4 0 0 1-4-4v-6.586l-.707-.707a1 1 0 0 1 1.414-1.414m15.74-4.187a1 1 0 0 1 .447 1.341l-5 10a.993.993 0 0 1-.05.09A3.502 3.502 0 0 1 8 14.5V14a1 1 0 0 1 1-1h4.882l4.224-8.447a1 1 0 0 1 1.341-.447M12.915 15h-2.83a1.5 1.5 0 0 0 2.83 0m.64-12.832a1 1 0 0 1 .277 1.387l-.216.323a.725.725 0 0 0 .091.915 2.725 2.725 0 0 1 .34 3.439l-.215.323a1 1 0 0 1-1.664-1.11l.216-.323a.725.725 0 0 0-.091-.915 2.725 2.725 0 0 1-.34-3.438l.215-.324a1 1 0 0 1 1.387-.277m-5.387.277A1 1 0 0 1 9.89 3.454l-.059.1-.215.324a.725.725 0 0 0 .09.915 2.725 2.725 0 0 1 .442 3.274l-.101.165-.216.323A1 1 0 0 1 8.11 7.546l.059-.1.215-.324a.725.725 0 0 0-.09-.915 2.725 2.725 0 0 1-.442-3.274l.101-.164z"/></g></svg>