<svg xmlns="http://www.w3.org/2000/svg" width="24" height="24">
    <g fill="none">
        <path fill="currentColor" d="M12.5 3c.031 0 .081.087.138.22l.089.228.045.13.086.275.038.135.063.25c.026.114.041.207.041.262l-.003.052c.277.059.53.166.757.31a.5.5 0 0 1 .063-.183 1.96 1.96 0 0 1 .251-.296l.196-.193.211-.195.204-.172c.16-.13.287-.213.321-.193.04.023.02.238-.028.502l-.056.275-.067.277-.07.248a1.41 1.41 0 0 1-.096.247.498.498 0 0 1-.319.237 2.974 2.974 0 0 1 .418 2.961.996.996 0 0 1-.305.407l-.103.071.018.004a2 2 0 0 1 1.602 1.803l.006.158v1.766l.293-.293a1 1 0 0 1 1.497 1.32l-.083.094L16 15.414V18a1 1 0 0 1 .993.883L17 19v2a1 1 0 0 1 .117 1.993L17 23H8a1 1 0 0 1-.117-1.993L8 21v-2a1 1 0 0 1 .883-.993L9 18v-3.586l-1.707-1.707a1 1 0 0 1-.284-.576L7 12V5.866a1 1 0 0 1 .383-1.86L7.5 4h1a1 1 0 0 1 .924 1.384l-.057.114.664 1.328a2.96 2.96 0 0 1 .605-1.41.498.498 0 0 1-.319-.237 1.41 1.41 0 0 1-.096-.247l-.07-.248-.067-.277-.056-.275c-.048-.264-.069-.479-.028-.502.034-.02.161.064.321.193l.204.172.211.195.196.193c.12.124.214.232.251.296a.5.5 0 0 1 .063.184c.226-.145.48-.252.757-.311L12 4.5c0-.055.015-.148.04-.262l.064-.25.08-.273a8.31 8.31 0 0 1 .09-.267l.088-.228c.057-.133.107-.22.138-.22M15 20h-5v1h5zm-1-8.086-3 3V18h3zM9 9.236v2.35l1.25 1.25 2.305-2.305-2.751-.55c-.418-.084-.628-.393-.804-.745M12.5 6.5c-.083 0-.193.037-.301.163A.904.904 0 0 0 12 7.25c0 .093.012.18.033.26l.037.113a.997.997 0 0 1-.006.77l.984.197a1 1 0 0 1-.16-.841l.042-.126A.99.99 0 0 0 13 7.25a.904.904 0 0 0-.199-.587c-.108-.126-.218-.163-.301-.163M8 .5c.156 0 1 1.448 1 2a1 1 0 0 1-2 0c0-.552.844-2 1-2"/>
    </g>
</svg>