<svg xmlns="http://www.w3.org/2000/svg" width="24" height="24">
    <g fill="none" fill-rule="evenodd">
        <path fill="currentColor" d="M8 2a1 1 0 0 1 .993.883L9 3v2a3 3 0 0 1 2.995 2.824L12 8v6a3 3 0 0 1-2.824 2.995L9 17v4a1 1 0 0 1-1.993.117L7 21v-4a3 3 0 0 1-2.995-2.824L4 14V8a3 3 0 0 1 2.824-2.995L7 5V3a1 1 0 0 1 1-1m9 0a1 1 0 0 1 .993.883L18 3v4a3 3 0 0 1 2.995 2.824L21 10v6a3 3 0 0 1-2.824 2.995L18 19v2a1 1 0 0 1-1.993.117L16 21v-2a3 3 0 0 1-2.995-2.824L13 16v-6a3 3 0 0 1 2.824-2.995L16 7V3a1 1 0 0 1 1-1m1 7h-2a1 1 0 0 0-.993.883L15 10v6a1 1 0 0 0 .883.993L16 17h2a1 1 0 0 0 .993-.883L19 16v-6a1 1 0 0 0-.883-.993zM9 7H7a1 1 0 0 0-.993.883L6 8v6a1 1 0 0 0 .883.993L7 15h2a1 1 0 0 0 .993-.883L10 14V8a1 1 0 0 0-.883-.993z"/>
    </g>
</svg>