<svg xmlns="http://www.w3.org/2000/svg" width="24" height="24">
    <g fill="none" fill-rule="evenodd">
        <path fill="currentColor" d="M17.5 3a2 2 0 0 1 1.6.8l2.688 3.584a.995.995 0 0 1 .204.616H22v1a3.99 3.99 0 0 1-1 2.646V19a2 2 0 0 1-2 2H5a2 2 0 0 1-2-2v-7.354A3.985 3.985 0 0 1 2 9V8h.008a.995.995 0 0 1 .204-.616L4.9 3.8A2 2 0 0 1 6.5 3zM15 11.646A3.99 3.99 0 0 1 12 13a3.99 3.99 0 0 1-3-1.354 3.99 3.99 0 0 1-3.757 1.282L5 12.874V19h14v-6.126l-.243.054A3.99 3.99 0 0 1 15 11.645ZM20 9h-4a2 2 0 0 0 3.995.15zm-6 0h-4a2 2 0 0 0 3.995.15zM8 9H4a2 2 0 0 0 3.995.15zm9.5-4h-11L5 7h14z"/>
    </g>
</svg>