<svg xmlns="http://www.w3.org/2000/svg" width="24" height="24">
    <g fill="none">
        <path fill="currentColor" d="M20 4a2 2 0 0 1 2 2v12a2 2 0 0 1-2 2H4a2 2 0 0 1-2-2V6a2 2 0 0 1 2-2zm0 2H4v12h16zM8.5 8a3 3 0 0 1 2.906 2.251 1 1 0 0 1-1.902.61l-.035-.112A1 1 0 0 0 7.5 11v2a1 1 0 0 0 1.935.356l.034-.105a1 1 0 1 1 1.937.498A3 3 0 0 1 5.5 13v-2a3 3 0 0 1 3-3m7 0a3 3 0 0 1 2.906 2.251 1 1 0 0 1-1.902.61l-.035-.112a1.001 1.001 0 0 0-1.962.135L14.5 11v2a1 1 0 0 0 1.935.356l.034-.105a1 1 0 1 1 1.937.498 3 3 0 0 1-5.9-.573L12.5 13v-2a3 3 0 0 1 3-3"/>
    </g>
</svg>