<svg xmlns="http://www.w3.org/2000/svg" width="24" height="24">
    <g fill="none" fill-rule="evenodd">
        <path fill="currentColor" d="M16 3a6 6 0 0 1 4.426 10.051 5.5 5.5 0 0 1-4.705 7.945L15.5 21h-9a4.5 4.5 0 0 1-1.495-8.746A6 6 0 0 1 10.8 6.003 5.998 5.998 0 0 1 16 3m-5 5a4 4 0 0 0-3.963 4.546l.045.264a1.01 1.01 0 0 1-.874 1.207 2.5 2.5 0 0 0 .128 4.978L6.5 19h9a3.5 3.5 0 0 0 .32-6.986 1.01 1.01 0 0 1-.898-.807A4.002 4.002 0 0 0 11 8m5-3a3.99 3.99 0 0 0-2.991 1.344 6.016 6.016 0 0 1 3.694 3.788c.942.21 1.792.662 2.483 1.286A4 4 0 0 0 16 5"/>
    </g>
</svg>