<svg xmlns="http://www.w3.org/2000/svg" width="24" height="24">
    <g fill="none" fill-rule="evenodd">
        <path fill="currentColor" d="M4.23 19.786 5.543 21.1a1.95 1.95 0 0 0 1.832.529c2.468-.592 5.578-2.096 8.16-4.678 2.305-2.305 3.583-5.16 4.212-7.494.315-1.17.474-2.235.513-3.07.032-.701.055-1.628-.482-2.164-.537-.537-1.463-.514-2.165-.482-.834.038-1.899.198-3.069.513-2.335.629-5.189 1.907-7.494 4.211-2.582 2.583-4.086 5.693-4.678 8.16a1.95 1.95 0 0 0 .529 1.833l1.313 1.313a.429.429 0 0 0 .016.016ZM8.464 9.88c1.991-1.991 4.5-3.13 6.6-3.695.616-.166 1.187-.28 1.69-.352L4.929 17.657l-.603-.603c.518-2.128 1.847-4.884 4.138-7.175Zm-2.12 9.192L18.167 7.246a14.461 14.461 0 0 1-.352 1.69c-.566 2.1-1.704 4.608-3.695 6.6-2.29 2.29-5.047 3.62-7.175 4.138l-.603-.603Z"/>
    </g>
</svg>