<svg xmlns="http://www.w3.org/2000/svg" width="24" height="24">
    <g fill="none" fill-rule="evenodd">
        <path fill="currentColor" d="M7 3a1 1 0 0 1 .993.883L8 4h8a1 1 0 0 1 .883-.993L17 3h3a1 1 0 0 1 .993.883L21 4v3a1 1 0 0 1-.883.993L20 8v8a1 1 0 0 1 .993.883L21 17v3a1 1 0 0 1-.883.993L20 21h-3a1 1 0 0 1-.993-.883L16 20H8a1 1 0 0 1-.883.993L7 21H4a1 1 0 0 1-.993-.883L3 20v-3a1 1 0 0 1 .883-.993L4 16V8a1 1 0 0 1-.993-.883L3 7V4a1 1 0 0 1 .883-.993L4 3zM6 18H5v1h1zm13 0h-1v1h1zM16 6H8v1a1 1 0 0 1-1 1H6v8h1a1 1 0 0 1 1 1v1h8v-1a1 1 0 0 1 1-1h1V8h-1a1 1 0 0 1-1-1zm-4 1a1.71 1.71 0 0 1 1.61 1.135l2.332 6.529a1 1 0 1 1-1.884.672L13.581 14h-3.162l-.477 1.336a1 1 0 0 1-1.884-.672l2.332-6.53A1.71 1.71 0 0 1 12 7m0 2.573L11.133 12h1.734zM6 5H5v1h1zm13 0h-1v1h1z"/>
    </g>
</svg>