<svg xmlns="http://www.w3.org/2000/svg" width="24" height="24">
    <g fill="none">
        <path fill="currentColor" d="M12.496 12.632a1 1 0 0 1 .372 1.364L11.723 16h1.105a1.1 1.1 0 0 1 .955 1.646l-1.915 3.35a1 1 0 1 1-1.736-.992L11.277 18h-1.105a1.1 1.1 0 0 1-.955-1.646l1.915-3.35a1 1 0 0 1 1.364-.372M15 18.5a1 1 0 0 1 1.931.517l-.258.966a1 1 0 1 1-1.932-.517zm-9.78 0a1 1 0 0 1 1.932.517l-.26.966a1 1 0 1 1-1.931-.517zm12.04-4.571a1 1 0 0 1 .707 1.225l-.259.966a1 1 0 0 1-1.932-.518l.259-.966a1 1 0 0 1 1.225-.707m-9.78 0a1 1 0 0 1 .707 1.225l-.259.966a1 1 0 1 1-1.932-.518l.259-.966a1 1 0 0 1 1.225-.707M11.5 2a6.502 6.502 0 0 1 6.086 4.212 6.002 6.002 0 0 1 3.214 9.389 1 1 0 0 1-1.6-1.202 4.001 4.001 0 0 0-2.545-6.346 1.01 1.01 0 0 1-.81-.732A4.5 4.5 0 0 0 7.027 9a1.01 1.01 0 0 1-.76 1.09 3.002 3.002 0 0 0-1.97 4.216l.103.193a1 1 0 1 1-1.731 1.002A5 5 0 0 1 5 8.416 6.5 6.5 0 0 1 11.5 2"/>
    </g>
</svg>