<svg xmlns="http://www.w3.org/2000/svg" width="24" height="24">
    <g fill="none" fill-rule="evenodd">
        <path fill="currentColor" d="M12 4a8 8 0 1 0 0 16 8 8 0 0 0 0-16M2 12C2 6.477 6.477 2 12 2s10 4.477 10 10-4.477 10-10 10S2 17.523 2 12m5-2.5a1.5 1.5 0 1 1 3 0 1.5 1.5 0 0 1-3 0M9 13a1 1 0 1 0 0 2v1a3 3 0 1 0 6 0v-1a1 1 0 1 0 0-2zm2 3v-1h2v1a1 1 0 1 1-2 0m5.949-8.316a1 1 0 0 0-1.265-.633 4.045 4.045 0 0 0-1.792 1.214 4.333 4.333 0 0 0-.84 1.419A1 1 0 0 0 14 11c.255 0 .751.165 1.293.707a1 1 0 1 0 1.414-1.414c-.352-.336-.726-.641-1.157-.872a2.17 2.17 0 0 1 .766-.472 1 1 0 0 0 .633-1.265"/>
    </g>
</svg>