<svg xmlns="http://www.w3.org/2000/svg" width="24" height="24">
    <g fill="none" fill-rule="evenodd">
        <path fill="currentColor" d="M17 2a4 4 0 0 1 3.995 3.8L21 6v9a4.002 4.002 0 0 1-2.937 3.857l-.19.047L19.6 20.2a1 1 0 0 1-1.095 1.669L18.4 21.8 14.667 19H9.333L5.6 21.8a1 1 0 0 1-1.296-1.518L4.4 20.2l1.727-1.296a4.002 4.002 0 0 1-3.122-3.7L3 15V6a4 4 0 0 1 3.8-3.995L7 2zm0 2H7a2 2 0 0 0-2 2v9a2 2 0 0 0 2 2h10a2 2 0 0 0 2-2V6a2 2 0 0 0-2-2m-8.75 9.25a1.25 1.25 0 1 1 0 2.5 1.25 1.25 0 0 1 0-2.5m7.5 0a1.25 1.25 0 1 1 0 2.5 1.25 1.25 0 0 1 0-2.5M16.5 6a1.5 1.5 0 0 1 1.493 1.356L18 7.5v3a1.5 1.5 0 0 1-1.356 1.493L16.5 12h-9a1.5 1.5 0 0 1-1.493-1.356L6 10.5v-3a1.5 1.5 0 0 1 1.356-1.493L7.5 6zM16 8H8v2h8z"/>
    </g>
</svg>