<svg xmlns="http://www.w3.org/2000/svg" width="24" height="24"><g fill="none" fill-rule="evenodd"><path fill="currentColor" d="M9 3a1 1 0 0 1 1 1v1h3a1 1 0 1 1 0 2h-.055c-.223 2.032-1.116 3.99-2.545 5.688a13.192 13.192 0 0 0 2.121 1.494l2.067-4.592a1 1 0 0 1 1.824 0l4.5 10a1 1 0 0 1-1.824.82L18.003 18h-5.007l-1.084 2.41a1 1 0 0 1-1.824-.82l1.61-3.576c-.998-.553-1.901-1.19-2.7-1.895-1.287 1.136-2.848 2.098-4.627 2.81a1 1 0 1 1-.743-1.857c1.557-.623 2.887-1.441 3.972-2.382A11.468 11.468 0 0 1 5.622 9.35a1 1 0 0 1 1.873-.702A9.408 9.408 0 0 0 9 11.244C10.065 9.921 10.72 8.458 10.928 7H4a1 1 0 0 1 0-2h4V4a1 1 0 0 1 1-1m8.103 13L15.5 12.437 13.898 16zM19 1a1 1 0 0 1 .946.677l.13.378a3 3 0 0 0 1.869 1.87l.378.129a1 1 0 0 1 0 1.892l-.378.13a3 3 0 0 0-1.87 1.869l-.129.378a1 1 0 0 1-1.892 0l-.13-.378a3 3 0 0 0-1.869-1.87l-.378-.129a1 1 0 0 1 0-1.892l.378-.13a3 3 0 0 0 1.87-1.869l.129-.378A1 1 0 0 1 19 1m0 3.196a5.006 5.006 0 0 1-.804.804c.298.236.567.506.804.804.236-.298.506-.568.804-.804A5.006 5.006 0 0 1 19 4.196"/></g></svg>