<svg xmlns="http://www.w3.org/2000/svg" width="24" height="24">
    <g fill="none" fill-rule="evenodd">
        <path fill="currentColor" d="M9 3a1 1 0 0 1 .993.883L10 4v1h4a1 1 0 0 1 .116 1.993L14 7h-1.055c-.223 2.032-1.116 3.99-2.545 5.688.523.454 1.102.878 1.735 1.266l.386.228 2.067-4.592a1 1 0 0 1 1.763-.115l.06.115 4.5 10a1 1 0 0 1-1.77.924l-.053-.104L18.003 18h-5.007l-1.084 2.41a1 1 0 0 1-1.866-.711l.042-.11 1.61-3.576a15.229 15.229 0 0 1-2.7-1.894c-1.287 1.136-2.848 2.098-4.627 2.81a1 1 0 1 1-.743-1.857c1.557-.623 2.887-1.441 3.972-2.382a11.466 11.466 0 0 1-1.978-3.34 1 1 0 0 1 1.873-.702A9.41 9.41 0 0 0 9 11.244c.989-1.227 1.625-2.576 1.877-3.931L10.928 7H4a1 1 0 0 1-.117-1.993L4 5h4V4a1 1 0 0 1 1-1m8.103 13L15.5 12.437 13.898 16z"/>
    </g>
</svg>