<svg xmlns="http://www.w3.org/2000/svg" width="24" height="24"><g fill="none" fill-rule="evenodd"><path fill="currentColor" d="M6.846 17.652c1.266.79 2.77 1.18 4.154 1.303V21a1 1 0 1 0 2 0v-2.045c1.383-.124 2.888-.514 4.154-1.303C18.783 16.637 20 14.96 20 12.5c0-2.584-1.412-5.18-2.98-7.075-.796-.962-1.67-1.79-2.499-2.385C13.741 2.479 12.833 2 12 2s-1.74.479-2.521 1.04c-.83.596-1.704 1.423-2.5 2.385C5.413 7.319 4 9.916 4 12.5c0 2.46 1.217 4.137 2.846 5.152M8.52 6.7C7.088 8.43 6 10.584 6 12.5c0 1.682.783 2.756 1.904 3.455.893.556 2.007.872 3.096.99v-2.53l-1.707-1.708a1 1 0 1 1 1.414-1.414l1.165 1.165 1.814-2.54a1 1 0 1 1 1.628 1.163L13 14.321v2.624c1.09-.118 2.203-.434 3.096-.99C17.217 15.255 18 14.182 18 12.5c0-1.916-1.088-4.07-2.52-5.8-.705-.85-1.456-1.555-2.126-2.036C12.634 4.146 12.167 4 12 4c-.167 0-.634.146-1.354.664-.67.481-1.421 1.185-2.126 2.036"/></g></svg>