<svg xmlns="http://www.w3.org/2000/svg" width="24" height="24"><g fill="none" fill-rule="evenodd"><path fill="currentColor" d="M17.834 4.625A2 2 0 0 1 20 4.473l.144.088.91.607a1 1 0 0 1-1.008 1.723l-.1-.059-.912-.607-2.603 1.952.568.485.509.45.669.613.19.178c.259.246.635.369.95.523a3 3 0 0 1 1.676 2.494l.007.2V15a3 3 0 0 1-2.824 2.995L18 18h-2.17a3.001 3.001 0 0 1-5.592.172L10.17 18H3v-2h7.17a3.001 3.001 0 0 1 5.591-.172l.067.172H18a1 1 0 0 0 .993-.883L19 15v-1.88a1 1 0 0 0-.56-.897l-.438-.212c-.362-.179-.713-.373-1.01-.656l-.455-.423-.3-.273-.34-.303-.373-.325-.4-.34a33.633 33.633 0 0 0-.207-.171c-.926-.762-1.908-1.483-2.67-1.856-.668-.326-1.534-.415-2.358-.46l-.896-.043-.278-.016a67.474 67.474 0 0 0-4.902-.143l-.794.01-.038-2a71.551 71.551 0 0 1 5.064.088l1.79.11c1.123.07 2.324.186 3.29.657.426.209.88.486 1.334.796l.34.238zM13.014 16h-.028a1 1 0 1 0 .028 0"/></g></svg>