<svg xmlns="http://www.w3.org/2000/svg" width="24" height="24"><g fill="none" fill-rule="evenodd"><path fill="currentColor" d="M16.586 3a2 2 0 0 1 1.284.467l.13.119L20.414 6a2 2 0 0 1 .578 1.238l.008.176V19a2 2 0 0 1-1.85 1.995L19 21H5a2 2 0 0 1-1.995-1.85L3 19V7.414a2 2 0 0 1 .467-1.284L3.586 6 6 3.586a2 2 0 0 1 1.238-.578L7.414 3zM19 9H5v10h14zm-7 1.4a1 1 0 0 1 .608.206l.1.087 2.12 2.121a1 1 0 0 1-1.32 1.498l-.094-.084-.414-.414V17a1 1 0 0 1-1.993.117L11 17v-3.186l-.414.414a1 1 0 0 1-1.498-1.32l.084-.094 2.12-2.121A1 1 0 0 1 12 10.4M16.586 5H7.414l-2 2h13.172z"/></g></svg>