<svg xmlns="http://www.w3.org/2000/svg" width="24" height="24"><g fill="none"><path fill="currentColor" d="M8 18a1 1 0 0 1 .993.883L9 19v2a1 1 0 0 1-1.993.117L7 21v-2a1 1 0 0 1 1-1m8.243-8.122a1 1 0 0 1 1.32-.083l.094.083L19.778 12a5.5 5.5 0 0 1-7.596 7.952L12 19.778l-2.121-2.121a1 1 0 0 1 1.32-1.498l.094.083 2.121 2.122a3.5 3.5 0 0 0 5.091-4.8l-.141-.15-2.121-2.121a1 1 0 0 1 0-1.415M5 16a1 1 0 0 1 .117 1.993L5 18H4a1 1 0 0 1-.117-1.993L4 16zm4.171-6.829a1 1 0 0 1 1.32-.083l.095.083 4.242 4.243a1 1 0 0 1-1.32 1.497l-.094-.083-4.243-4.242a1 1 0 0 1 0-1.415m-4.95-4.95a5.5 5.5 0 0 1 7.597-.173l.182.174 2.121 2.12a1 1 0 0 1-1.32 1.498l-.094-.083-2.121-2.121a3.5 3.5 0 0 0-5.091 4.8l.141.15 2.121 2.12a1 1 0 0 1-1.32 1.498l-.094-.083L4.222 12a5.5 5.5 0 0 1 0-7.778ZM20 6a1 1 0 1 1 0 2h-1a1 1 0 1 1 0-2zm-4-4a1 1 0 0 1 .993.883L17 3v2a1 1 0 0 1-1.993.117L15 5V3a1 1 0 0 1 1-1"/></g></svg>