<svg xmlns="http://www.w3.org/2000/svg" width="24" height="24">
    <g fill="none" fill-rule="evenodd">
        <path fill="currentColor" d="M12 3a4 4 0 0 1 3.446 6.033 3.001 3.001 0 0 1 2.549 2.788L18 12v.21l1.713-1.056a1.5 1.5 0 0 1 2.282 1.148l.005.129v5.138a1.5 1.5 0 0 1-2.175 1.34l-.112-.063L18 17.79V18a3 3 0 0 1-2.824 2.995L15 21H5a3 3 0 0 1-2.995-2.824L2 18v-6a3 3 0 0 1 1.545-2.624 3.5 3.5 0 0 1 5.138-4.612A3.996 3.996 0 0 1 12 3m3 8H5a1 1 0 0 0-1 1v6a1 1 0 0 0 1 1h10a1 1 0 0 0 1-1v-6a1 1 0 0 0-1-1m5 2.326-2 1.232v.883l2 1.232zM12 5a2 2 0 1 0 0 4 2 2 0 0 0 0-4M6.5 6a1.5 1.5 0 1 0 0 3 1.5 1.5 0 0 0 0-3"/>
    </g>
</svg>