<svg xmlns="http://www.w3.org/2000/svg" width="24" height="24"><g fill="none"><path fill="currentColor" d="M13.12 5.815c.55.537.826 1.24.863 1.992 1.675-.502 3.045-.362 3.937.5.848.82.937 1.967.617 2.964C19.9 11.961 21 13.058 21 14.715c0 1.93-1.256 3.526-2.962 4.586C16.318 20.371 14.004 21 11.5 21c-2.504 0-4.818-.63-6.538-1.699C3.256 18.241 2 16.646 2 14.715c0-1.762.842-3.589 2.05-5.156a14.557 14.557 0 0 1 4.723-3.954c1.635-.847 3.286-.828 4.347.21m-1.399 1.43c-.213-.21-.829-.485-2.028.136a12.558 12.558 0 0 0-4.06 3.4C4.576 12.154 4 13.558 4 14.715c0 .988.647 2.035 2.018 2.888C7.374 18.446 9.309 19 11.5 19c2.19 0 4.127-.554 5.482-1.397 1.371-.853 2.018-1.9 2.018-2.888 0-.711-.56-1.439-2.16-1.991a1 1 0 0 1-.473-1.546c.495-.66.355-1.248.163-1.433l-.048-.04-.067-.042c-.337-.186-1.274-.368-3.335.661a1 1 0 0 1-1.347-1.33c.444-.92.225-1.517-.012-1.75ZM17 3c1.576 0 3.128.643 4.243 1.757A6.054 6.054 0 0 1 23 9a1 1 0 1 1-2 0c0-1.05-.429-2.086-1.172-2.828A4.036 4.036 0 0 0 17 5a1 1 0 1 1 0-2"/></g></svg>