<svg xmlns="http://www.w3.org/2000/svg" width="24" height="24">
    <g fill="none" fill-rule="evenodd">
        <path fill="currentColor" d="M11.42 2a2 2 0 0 0-1.993 1.834l-.383 4.602-1.708 1.138A3 3 0 0 0 6 12.07V19a3 3 0 0 0 3 3h6a3 3 0 0 0 3-3v-6.93a3 3 0 0 0-1.336-2.496l-1.708-1.138-.383-4.602A2 2 0 0 0 12.58 2zM16 14h-4a1 1 0 1 0 0 2h4v3a1 1 0 0 1-1 1H9a1 1 0 0 1-1-1v-6.93a1 1 0 0 1 .445-.832l1.708-1.138a2 2 0 0 0 .884-1.498L11.42 4h1.16l.383 4.602a2 2 0 0 0 .884 1.498l1.708 1.138a1 1 0 0 1 .445.832z"/>
    </g>
</svg>