<svg width="24" height="24" viewBox="0 0 24 24" fill="none" xmlns="http://www.w3.org/2000/svg">
<path fill-rule="evenodd" clip-rule="evenodd" d="M2.25 3C2.25 2.58579 2.58579 2.25 3 2.25L21 2.25C21.4142 2.25 21.75 2.58579 21.75 3L21.75 21C21.75 21.4142 21.4142 21.75 21 21.75L3 21.75C2.58579 21.75 2.25 21.4142 2.25 21L2.25 3ZM6.14922 6.9502L8.99922 10.7502L11.8492 6.9502L13.0492 7.85019L9.93672 12.0002L13.0492 16.1502L11.8492 17.0502L8.99922 13.2502L6.14922 17.0502L4.94922 16.1502L8.06172 12.0002L4.94922 7.85019L6.14922 6.9502ZM18.75 16.75V7.25H17.25V10.25H14.5C14.0858 10.25 13.75 10.5858 13.75 11L13.75 16C13.75 16.4142 14.0858 16.75 14.5 16.75H18.75ZM15.25 11.75H17.25V15.25H15.25L15.25 11.75Z" fill="#141B34"/>
</svg>
