<svg width="24" height="24" viewBox="0 0 24 24" fill="none" xmlns="http://www.w3.org/2000/svg">
<path fill-rule="evenodd" clip-rule="evenodd" d="M19.6922 1.25H18.2854L18.0275 1.94703C17.6655 2.92537 17.55 3.19119 17.3599 3.38134C17.1697 3.57149 16.9039 3.68695 15.9255 4.04897L15.2285 4.30689V5.71367L15.9255 5.97159C16.9039 6.33361 17.1697 6.44907 17.3599 6.63922C17.55 6.82937 17.6655 7.09518 18.0275 8.07353L18.2854 8.77056H19.6922L19.9501 8.07353C20.3121 7.09518 20.4276 6.82937 20.6177 6.63922C20.8079 6.44907 21.0737 6.33361 22.052 5.97159L22.7491 5.71367V4.30689L22.052 4.04897C21.0737 3.68694 20.8079 3.57149 20.6177 3.38134C20.4276 3.19119 20.3121 2.92537 19.9501 1.94703L19.6922 1.25ZM13.9785 5.25H1.25V22.75H21.75V7.42736C21.6479 7.46912 21.568 7.5035 21.5091 7.53061C21.4351 7.69125 21.3071 8.0083 21.1224 8.50733L20.5625 10.0206H17.4151L16.8552 8.50732C16.6705 8.0083 16.5424 7.69125 16.4685 7.53061C16.3078 7.45662 15.9908 7.32856 15.4917 7.1439L13.9785 6.58396V5.25ZM11.25 9.25V18.75H12.75V9.25H11.25ZM8.25 16.75V11.25H9.75V16.75H8.25ZM5.25 12.25V15.75H6.75V12.25H5.25ZM15.75 16.75V11.25H14.25V16.75H15.75ZM18.75 12.25V15.75H17.25V12.25H18.75Z" fill="#141B34"/>
</svg>
