<svg width="24" height="24" viewBox="0 0 24 24" fill="none" xmlns="http://www.w3.org/2000/svg">
<path fill-rule="evenodd" clip-rule="evenodd" d="M1.25 1.25L11.0366 1.25024L11.0365 3.20478L3.20457 3.20459L3.20486 16.8866L20.7953 16.8864L20.7955 12.9775L22.75 12.9775L22.7497 18.8409L12.9772 18.841V20.7955H15.909V22.75H8.09086V20.7955H11.0226V18.841L1.25037 18.8411L1.25 1.25Z" fill="#141B34"/>
<path fill-rule="evenodd" clip-rule="evenodd" d="M13.5 16H10.5V14H13.5V16Z" fill="#141B34"/>
<path d="M15 3V1.25H16.5V3H18V1.25H19.5V3H21V4.5H22.75V6H21V7.5H22.75V9H21V10.5H19.5V12.25H18V10.5H16.5V12.25H15V10.5H13.5V9H11.75V7.5H13.5V6H11.75V4.5H13.5V3H15Z" fill="#141B34"/>
</svg>
