<svg width="24" height="24" viewBox="0 0 24 24" fill="none" xmlns="http://www.w3.org/2000/svg">
<path d="M4.46903 6.4707L5.53097 7.53008L3.24035 9.82626L12.0009 14.6458L20.7603 9.8269L18.469 7.53008L19.531 6.4707L22.75 9.69755V22.0004C22.75 22.4146 22.4142 22.7504 22 22.7504H2C1.58579 22.7504 1.25 22.4146 1.25 22.0004V9.69755L4.46903 6.4707Z" fill="#141B34"/>
<path fill-rule="evenodd" clip-rule="evenodd" d="M4.25 1.25H19.75V11.6499H18.25V2.75H5.75V11.6509H4.25V1.25Z" fill="#141B34"/>
<path fill-rule="evenodd" clip-rule="evenodd" d="M9.49252 4.25H11.0081L13.4752 10.4178L12.0825 10.9749L11.3925 9.25H9.10807L8.41811 10.9749L7.02539 10.4178L9.49252 4.25ZM9.70807 7.75H10.7925L10.2503 6.39444L9.70807 7.75ZM15.7503 4.25V10.75H14.2503V4.25H15.7503Z" fill="#141B34"/>
</svg>
