<svg width="24" height="24" viewBox="0 0 24 24" fill="none" xmlns="http://www.w3.org/2000/svg">
<path fill-rule="evenodd" clip-rule="evenodd" d="M12 1.25C12 1.25 11.1614 1.75049 10.9433 1.866C10.507 2.09717 9.87134 2.41236 9.08277 2.74307C7.50139 3.40629 5.32699 4.12272 2.92537 4.36079L2.25 4.42774V11.0482C2.25 15.0901 4.69955 18.0067 7.0295 19.8672C8.20173 20.8033 9.37002 21.4945 10.2437 21.9515C10.6814 22.1805 12 22.75 12 22.75C12 22.75 13.3186 22.1805 13.7563 21.9515C14.63 21.4945 15.7983 20.8033 16.9705 19.8672C19.3004 18.0067 21.75 15.0901 21.75 11.0482V4.42774L21.0746 4.36079C18.673 4.12272 16.4986 3.40629 14.9172 2.74307C14.1287 2.41236 13.493 2.09717 13.0567 1.866C12.8386 1.75049 12 1.25 12 1.25ZM10.8712 7.75H9.26601L6.5293 14.9339L7.93103 15.4679L8.69974 13.45H11.4374L12.2061 15.4679L13.6079 14.9339L10.8712 7.75ZM10.866 11.95H9.27117L10.0686 9.85677L10.866 11.95ZM16.2472 15.25V7.75H14.7472V15.25H16.2472Z" fill="#141B34"/>
</svg>
