<svg width="24" height="24" viewBox="0 0 24 24" fill="none" xmlns="http://www.w3.org/2000/svg">
<path fill-rule="evenodd" clip-rule="evenodd" d="M1.25 11.25C1.25 5.72715 5.72715 1.25 11.25 1.25C16.7728 1.25 21.25 5.72715 21.25 11.25C21.25 13.6513 20.4036 15.8549 18.9929 17.5787L22.75 21.3358L21.3358 22.75L17.5787 18.9929C15.8549 20.4036 13.6513 21.25 11.25 21.25C5.72715 21.25 1.25 16.7728 1.25 11.25ZM11.25 3.25C6.83172 3.25 3.25 6.83172 3.25 11.25C3.25 15.6683 6.83172 19.25 11.25 19.25C15.6683 19.25 19.25 15.6683 19.25 11.25C19.25 6.83172 15.6683 3.25 11.25 3.25Z" fill="#141B34"/>
<path fill-rule="evenodd" clip-rule="evenodd" d="M8.51796 7.5H10.1231L12.8598 14.6839L11.4581 15.2179L10.6894 13.2H7.95169L7.18298 15.2179L5.78125 14.6839L8.51796 7.5ZM8.52312 11.7H10.118L9.32054 9.60677L8.52312 11.7ZM15.4991 7.5V15H13.9991V7.5H15.4991Z" fill="#141B34"/>
</svg>
