<svg width="24" height="24" viewBox="0 0 24 24" fill="none" xmlns="http://www.w3.org/2000/svg">
<path fill-rule="evenodd" clip-rule="evenodd" d="M1.25 3.21875C1.25 2.68372 1.68754 2.25 2.22727 2.25H21.7727C22.3125 2.25 22.75 2.68372 22.75 3.21875V16.7812C22.75 17.3163 22.3125 17.75 21.7727 17.75H17.8636V15.8125H20.7955V4.1875H3.20455V15.8125H6.13636V17.75H2.22727C1.68754 17.75 1.25 17.3163 1.25 16.7812V3.21875Z" fill="#141B34"/>
<path d="M12 12.25C12.2586 12.25 12.4989 12.3832 12.636 12.6025L17.636 20.6025C17.7805 20.8337 17.7882 21.1251 17.656 21.3636C17.5238 21.602 17.2726 21.75 17 21.75H7C6.72736 21.75 6.47619 21.602 6.34402 21.3636C6.21185 21.1251 6.2195 20.8337 6.364 20.6025L11.364 12.6025C11.5011 12.3832 11.7414 12.25 12 12.25Z" fill="#141B34"/>
</svg>
