<svg width="24" height="24" viewBox="0 0 24 24" fill="none" xmlns="http://www.w3.org/2000/svg">
<path d="M14.7461 5C14.7461 4.58579 14.4103 4.25 13.9961 4.25H8C7.58602 4.25 7.25032 4.58543 7.25 4.99941L7.24609 9.99941C7.24594 10.1984 7.32489 10.3893 7.46556 10.5301C7.60623 10.6709 7.79708 10.75 7.99609 10.75H13.9961C14.195 10.75 14.3858 10.671 14.5264 10.5303C14.6671 10.3897 14.7461 10.1989 14.7461 10V5Z" fill="#141B34"/>
<path d="M20.75 14C20.75 13.5858 20.4142 13.25 20 13.25H8C7.58579 13.25 7.25 13.5858 7.25 14V19C7.25 19.4142 7.58579 19.75 8 19.75H20C20.1989 19.75 20.3897 19.671 20.5303 19.5303C20.671 19.3897 20.75 19.1989 20.75 19V14Z" fill="#141B34"/>
<path fill-rule="evenodd" clip-rule="evenodd" d="M5.25 22V2H3.25V22H5.25Z" fill="#141B34"/>
</svg>
