<svg width="24" height="24" viewBox="0 0 24 24" fill="none" xmlns="http://www.w3.org/2000/svg">
<path fill-rule="evenodd" clip-rule="evenodd" d="M8.5 2.25C5.04822 2.25 2.25 5.04822 2.25 8.5C2.25 9.79611 2.64523 11.0014 3.32127 12C2.64523 12.9986 2.25 14.2039 2.25 15.5C2.25 18.9518 5.04822 21.75 8.5 21.75C9.79611 21.75 11.0014 21.3548 12 20.6787C12.9986 21.3548 14.2039 21.75 15.5 21.75C18.9518 21.75 21.75 18.9518 21.75 15.5C21.75 14.2039 21.3548 12.9986 20.6787 12C21.3548 11.0014 21.75 9.79611 21.75 8.5C21.75 5.04822 18.9518 2.25 15.5 2.25C14.2039 2.25 12.9986 2.64523 12 3.32127C11.0014 2.64523 9.79611 2.25 8.5 2.25ZM12 7.25C10.7574 7.25 9.75 8.25736 9.75 9.5V14.5C9.75 15.7426 10.7574 16.75 12 16.75C13.2426 16.75 14.25 15.7426 14.25 14.5V9.5C14.25 8.25736 13.2426 7.25 12 7.25Z" fill="#141B34"/>
</svg>
