<svg width="24" height="24" viewBox="0 0 24 24" fill="none" xmlns="http://www.w3.org/2000/svg">
<path fill-rule="evenodd" clip-rule="evenodd" d="M8 2.25C7.58579 2.25 7.25 2.58579 7.25 3V21C7.25 21.4142 7.58579 21.75 8 21.75H13.871L10.5293 19.0766L13.3404 15.5627L15.9547 17.6541L21.75 11.4465V3C21.75 2.58579 21.4142 2.25 21 2.25H8ZM11.25 6.25H17.75V7.75H11.25V6.25ZM17.75 10.25H11.25V11.75H17.75V10.25Z" fill="#141B34"/>
<path fill-rule="evenodd" clip-rule="evenodd" d="M22.7506 14.6796L16.2699 21.7494L12.6367 18.8428L13.5738 17.6715L16.1119 19.702L21.6448 13.666L22.7506 14.6796Z" fill="#141B34"/>
<path d="M2 2.25C1.58579 2.25 1.25 2.58579 1.25 3V6.25H5.75V3C5.75 2.58579 5.41421 2.25 5 2.25H2Z" fill="#141B34"/>
<path d="M5.75 7.75H1.25V18C1.25 18.1164 1.27711 18.2313 1.32918 18.3354L2.82918 21.3354C2.95622 21.5895 3.21592 21.75 3.5 21.75C3.78408 21.75 4.04378 21.5895 4.17082 21.3354L5.67082 18.3354C5.72289 18.2313 5.75 18.1164 5.75 18V7.75Z" fill="#141B34"/>
</svg>
