<svg width="24" height="24" viewBox="0 0 24 24" fill="none" xmlns="http://www.w3.org/2000/svg">
<path fill-rule="evenodd" clip-rule="evenodd" d="M10.1244 4.08406C9.92046 3.77811 9.52477 3.66515 9.19003 3.81731L3.69003 6.31731C3.48187 6.41192 3.32825 6.59633 3.27278 6.81815L1.27243 14.8182C1.20039 15.1063 1.30515 15.4098 1.53958 15.5921L10.5396 22.5921C10.7581 22.7621 11.0525 22.7978 11.3054 22.6851L18.7494 19.3671C18.8996 19.3002 19.0236 19.1858 19.1024 19.0415L21.6587 14.3597C21.7846 14.129 21.7806 13.8493 21.6482 13.6224L18.1482 7.62236C18.0301 7.41992 17.8242 7.28432 17.5916 7.25582C17.3589 7.22733 17.1264 7.30922 16.9629 7.47718L13.7467 9.51759L10.1244 4.08406ZM15.3848 15.4358L17.1246 14.4313L16.1246 12.6992L14.3848 13.7037L15.3848 15.4358ZM9.33008 16.6641L10.8301 13.6641L12.1717 14.3349L10.6717 17.3349L9.33008 16.6641ZM9.26513 10.0517L6.63243 9.06055L5.33008 11.6652L6.67171 12.336L7.36936 10.9407L8.73665 11.4555L9.26513 10.0517Z" fill="#141B34"/>
<path d="M17.55 1.4C17.6798 1.30263 17.8377 1.25 18 1.25H22.0011C22.4153 1.25 22.7511 1.58579 22.7511 2V4.5C22.7511 4.73607 22.64 4.95836 22.4511 5.1L20.4511 6.6C20.2704 6.7355 20.0383 6.78238 19.8193 6.72762L15.8182 5.72762C15.4843 5.64417 15.2501 5.34418 15.25 5.00002L15.25 3.50002C15.25 3.26395 15.3611 3.04165 15.55 2.9L17.55 1.4Z" fill="#141B34"/>
</svg>
