<svg width="24" height="24" viewBox="0 0 24 24" fill="none" xmlns="http://www.w3.org/2000/svg">
<path fill-rule="evenodd" clip-rule="evenodd" d="M2 4.75C1.58579 4.75 1.25 5.08579 1.25 5.5V21C1.25 21.4142 1.58579 21.75 2 21.75H22C22.4142 21.75 22.75 21.4142 22.75 21V5.5C22.75 5.08579 22.4142 4.75 22 4.75H2ZM11.8038 12.0001L13.8776 8.68207L12.1816 7.62207L8.19531 14.0001H12.1953L10.1216 17.3181L11.8176 18.3781L15.8038 12.0001H11.8038Z" fill="#141B34"/>
<path fill-rule="evenodd" clip-rule="evenodd" d="M14.25 3C14.25 2.58579 14.5858 2.25 15 2.25H18.5C18.9142 2.25 19.25 2.58579 19.25 3V6.25H17.75V3.75H15.75V6.25H14.25V3Z" fill="#141B34"/>
<path fill-rule="evenodd" clip-rule="evenodd" d="M4.75 3C4.75 2.58579 5.08579 2.25 5.5 2.25H9C9.41421 2.25 9.75 2.58579 9.75 3V6.25H8.25V3.75H6.25V6.25H4.75V3Z" fill="#141B34"/>
</svg>
