<svg width="24" height="24" viewBox="0 0 24 24" fill="none" xmlns="http://www.w3.org/2000/svg">
<path fill-rule="evenodd" clip-rule="evenodd" d="M11.3613 8.55471L9.36133 5.55471L11.0254 4.44531L13.0254 7.44531L11.3613 8.55471Z" fill="#141B34"/>
<path d="M6.08005 2.68417C5.89922 2.41292 5.5948 2.25 5.2688 2.25C4.94281 2.25 4.63838 2.41292 4.45755 2.68417L1.24806 7.49841L2.41354 10.4121C2.5148 10.6653 2.71744 10.8645 2.97231 10.9614C3.22717 11.0583 3.51096 11.044 3.75484 10.9221L5.2688 10.1651L6.78277 10.9221C7.02664 11.044 7.31044 11.0583 7.5653 10.9614C7.82016 10.8645 8.0228 10.6653 8.12407 10.4121L8.41069 9.69554L15.147 19.8L1.24806 19.7999L1.24805 21.7499L19.6276 21.75C19.6917 21.75 19.7556 21.7418 19.8177 21.7255C21.4762 21.291 22.7509 19.8507 22.7509 18.0791C22.7509 16.1874 21.3051 14.683 19.479 14.3597C19.2824 12.0469 17.1643 10.25 14.7629 10.25C14.0419 10.25 13.2515 10.3913 12.5557 10.6835C12.269 10.8039 11.9833 10.9567 11.7215 11.1463L6.08005 2.68417Z" fill="#141B34"/>
</svg>
