<svg width="24" height="24" viewBox="0 0 24 24" fill="none" xmlns="http://www.w3.org/2000/svg">
<path fill-rule="evenodd" clip-rule="evenodd" d="M8.16808 1.53624C7.78644 1.1546 7.1677 1.15458 6.78604 1.53619L1.53628 6.78532C1.35299 6.96859 1.25001 7.21716 1.25 7.47636C1.24999 7.73556 1.35295 7.98414 1.53623 8.16742L15.8323 22.4638C16.0156 22.647 16.2641 22.75 16.5233 22.75C16.7825 22.75 17.0311 22.647 17.2144 22.4638L22.4638 17.2143C22.8454 16.8326 22.8454 16.2139 22.4638 15.8322L8.16808 1.53624ZM8.13281 12.0002L12.0001 8.13281L15.8675 12.0002L12.0001 15.8676L8.13281 12.0002Z" fill="#141B34"/>
<path d="M4.40756 13.1602L1.46966 16.0981C1.17678 16.391 1.17678 16.8659 1.46966 17.1588L6.84114 22.5303C6.98179 22.671 7.17256 22.75 7.37147 22.75C7.57039 22.75 7.76115 22.671 7.90181 22.5303L10.8397 19.5924L4.40756 13.1602Z" fill="#141B34"/>
<path d="M19.5924 10.8395L22.5303 7.90152C22.671 7.76086 22.75 7.57009 22.75 7.37117C22.75 7.17225 22.671 6.98148 22.5303 6.84083L17.1585 1.46964C16.8656 1.17677 16.3907 1.17679 16.0978 1.46967L13.1603 4.40723L19.5924 10.8395Z" fill="#141B34"/>
</svg>
