<svg width="24" height="24" viewBox="0 0 24 24" fill="none" xmlns="http://www.w3.org/2000/svg">
<path fill-rule="evenodd" clip-rule="evenodd" d="M12.3354 1.07918C12.1243 0.973607 11.8757 0.973607 11.6646 1.07918L1.66459 6.07918C1.4105 6.20622 1.25 6.46592 1.25 6.75V9.5H22.75V6.75C22.75 6.46592 22.5895 6.20622 22.3354 6.07918L12.3354 1.07918ZM13 5.75H11V7.75H13V5.75Z" fill="#141B34"/>
<path d="M1.25031 19.25C1.25031 18.8358 1.58609 18.5 2.00031 18.5H22.0003C22.1992 18.5 22.39 18.579 22.5307 18.7197C22.6713 18.8604 22.7503 19.0511 22.7503 19.2501L22.75 21.7501C22.75 22.1643 22.4142 22.5 22 22.5H2.00031C1.58609 22.5 1.25031 22.1642 1.25031 21.75V19.25Z" fill="#141B34"/>
<path d="M20.75 11H15.25V17H20.75V11Z" fill="#141B34"/>
<path d="M8.75 11H3.25V17H8.75V11Z" fill="#141B34"/>
</svg>
