<svg width="24" height="24" viewBox="0 0 24 24" fill="none" xmlns="http://www.w3.org/2000/svg">
<path fill-rule="evenodd" clip-rule="evenodd" d="M1 2.49994C1 1.94765 1.44772 1.49994 2 1.49994H22C22.5523 1.49994 23 1.94765 23 2.49994V17.4999C23 18.0522 22.5523 18.4999 22 18.4999H19V16.4999H21V3.49994H3V16.4999H5V18.4999H2C1.44772 18.4999 1 18.0522 1 17.4999V2.49994Z" fill="#141B34"/>
<path fill-rule="evenodd" clip-rule="evenodd" d="M7.29288 7.66394C7.48042 7.4764 7.73478 7.37103 8 7.37103H16.0001C16.5524 7.37103 17.0001 7.81875 17.0001 8.37103V11.371H15.0001V9.37103H9.00004L9.00012 11.371L7.00012 11.3711L7 8.37107C6.99999 8.10585 7.10534 7.85148 7.29288 7.66394Z" fill="#141B34"/>
<path fill-rule="evenodd" clip-rule="evenodd" d="M5 14.371H6.4546L7.5083 22.4996L9.4917 22.2425L9.37874 21.371H11V22.371H13V21.371H14.6213L14.5083 22.2425L16.4917 22.4996L17.5454 14.371H19V12.371H5V14.371ZM14.8805 19.371L15.075 17.871H13V19.371H14.8805ZM11 19.371V17.871H8.92503L9.11948 19.371H11ZM8.66577 15.871H11V14.371H8.47133L8.66577 15.871ZM13 15.871H15.3342L15.5287 14.371H13V15.871Z" fill="#141B34"/>
</svg>
