<svg width="24" height="24" viewBox="0 0 24 24" fill="none" xmlns="http://www.w3.org/2000/svg">
<path d="M1.25 6C1.25 5.58579 1.58579 5.25 2 5.25H19C19.4142 5.25 19.75 5.58579 19.75 6V18C19.75 18.4142 19.4142 18.75 19 18.75H2C1.58579 18.75 1.25 18.4142 1.25 18V6Z" fill="#141B34"/>
<path fill-rule="evenodd" clip-rule="evenodd" d="M18.2605 9.3751C18.3294 8.96667 18.7165 8.69149 19.1249 8.76047L22.75 9.37269V14.6273L19.1249 15.2395C18.7165 15.3085 18.3294 15.0333 18.2605 14.6249C18.1915 14.2165 18.4667 13.8294 18.8751 13.7605L21.25 13.3594V10.6406L18.8751 10.2395C18.4667 10.1705 18.1915 9.78353 18.2605 9.3751Z" fill="#141B34"/>
</svg>
