<svg width="24" height="24" viewBox="0 0 24 24" fill="none" xmlns="http://www.w3.org/2000/svg">
<path d="M1.25 12.5C1.25 12.0858 1.58579 11.75 2 11.75H8.25V9.5C8.25 9.08579 8.58579 8.75 9 8.75H15C15.4142 8.75 15.75 9.08579 15.75 9.5V11.75H22C22.4142 11.75 22.75 12.0858 22.75 12.5V21.5H20.75V18.25H3.25V21.5H1.25V12.5Z" fill="#141B34"/>
<path fill-rule="evenodd" clip-rule="evenodd" d="M12 4.4C10.5207 4.4 8.80967 5.34831 7.98439 6.76897L7.70496 7.25H5.19444V12H3.25V6.3C3.25 5.77533 3.68528 5.35 4.22222 5.35H6.60448C7.83899 3.62448 9.97911 2.5 12 2.5C14.0209 2.5 16.161 3.62448 17.3955 5.35H19.7778C20.3147 5.35 20.75 5.77533 20.75 6.3V12H18.8056V7.25H16.295L16.0156 6.76897C15.1903 5.34831 13.4793 4.4 12 4.4Z" fill="#141B34"/>
</svg>
