<svg width="24" height="24" viewBox="0 0 24 24" fill="none" xmlns="http://www.w3.org/2000/svg">
<path fill-rule="evenodd" clip-rule="evenodd" d="M6 6C6 5.44772 6.44772 5 7 5H10C13.866 5 17 8.13401 17 12C17 15.866 13.866 19 10 19L7 19C6.73479 19 6.48043 18.8946 6.29289 18.7071C6.10536 18.5196 6 18.2652 6 18V6ZM8 7V17L10 17C12.7614 17 15 14.7614 15 12C15 9.23857 12.7614 7 10 7H8Z" fill="#141B34"/>
<path fill-rule="evenodd" clip-rule="evenodd" d="M11 13H7V11H11V13Z" fill="#141B34"/>
<path fill-rule="evenodd" clip-rule="evenodd" d="M1.25 6.75H7.75V11H4V13H7.75V17.25H1.25V6.75ZM13.25 6.75H22.75V17.25L13.25 17.25L16.25 12L13.25 6.75ZM21.009 11H19L19 13H21.009L21.009 11Z" fill="#141B34"/>
</svg>
