<svg width="24" height="24" viewBox="0 0 24 24" fill="none" xmlns="http://www.w3.org/2000/svg">
<path d="M9.25 11.25V12.0155C9.25 13.5657 10.4812 14.8223 12 14.8223C13.5188 14.8223 14.75 13.5657 14.75 12.0155V11.25L22.75 11.2501V14.7885H22C19.6954 14.7885 18.2416 17.3369 19.3804 19.3167L19.7657 19.9865L14.997 22.7499L14.6228 22.0993C13.4477 20.0565 10.5539 20.0565 9.37882 22.0994L9.00457 22.75L4.23592 19.9866L4.62118 19.3168C5.75974 17.3374 4.30517 14.7885 2 14.7885H1.25V11.2501L9.25 11.25Z" fill="#141B34"/>
<path d="M11.2498 8.65187C9.65044 8.96664 7.93737 8.52243 6.70724 7.2923C5.2838 5.86886 4.9127 3.79877 5.55219 2.00652L5.67167 1.67167L6.00652 1.55219C7.79877 0.912697 9.86886 1.2838 11.2923 2.70724C12.0375 3.45246 12.4943 4.37492 12.6686 5.34195C13.8824 4.25162 15.5691 3.98559 17.0361 4.50905L17.371 4.62853L17.4905 4.96339C18.0385 6.49932 17.7212 8.27599 16.4986 9.4986C15.4803 10.5169 14.0776 10.9072 12.7498 10.6925V11.9998H11.2498L11.2498 8.65187Z" fill="#141B34"/>
</svg>
