<svg width="24" height="24" viewBox="0 0 24 24" fill="none" xmlns="http://www.w3.org/2000/svg">
<path fill-rule="evenodd" clip-rule="evenodd" d="M7.25427 7.75H16.7458C17.4655 8.56197 18.266 9.55911 19.0128 10.6648C20.2205 12.4526 21.3289 14.5845 21.6826 16.7124C21.9734 18.4618 21.3014 19.997 20.1465 21.0691C19.0032 22.1305 17.3823 22.75 15.6917 22.75H8.30834C6.61776 22.75 4.9968 22.1305 3.85351 21.0691C2.69866 19.997 2.02666 18.4618 2.31743 16.7124C2.67113 14.5845 3.77956 12.4526 4.98719 10.6648C5.73401 9.55911 6.53456 8.56197 7.25427 7.75ZM12.7498 11.5V10H11.2498V11.5H8.24982V13H9.37482V17.5H8.24982V19H11.2498V20.5H12.7498V19H13.8748C14.9104 19 15.7498 18.1605 15.7498 17.125V16.375C15.7498 15.9529 15.6103 15.5634 15.375 15.25C15.6103 14.9366 15.7498 14.5471 15.7498 14.125V13.375C15.7498 12.3395 14.9104 11.5 13.8748 11.5H12.7498ZM10.8748 14.5V13H13.8748C14.0819 13 14.2498 13.1679 14.2498 13.375V14.125C14.2498 14.3321 14.0819 14.5 13.8748 14.5H10.8748ZM10.8748 16H13.8748C14.0819 16 14.2498 16.1679 14.2498 16.375V17.125C14.2498 17.3321 14.0819 17.5 13.8748 17.5H10.8748V16Z" fill="#141B34"/>
<path d="M12.5301 1.46967C12.2373 1.17678 11.7624 1.17678 11.4695 1.46967L9.74241 3.19675L7.12312 2.7602C6.83746 2.71259 6.54992 2.8337 6.3844 3.07133C6.21887 3.30897 6.20495 3.62066 6.34864 3.8721L7.70743 6.25H16.2922L17.651 3.8721C17.7947 3.62066 17.7808 3.30897 17.6152 3.07133C17.4497 2.8337 17.1622 2.71259 16.8765 2.7602L14.2572 3.19675L12.5301 1.46967Z" fill="#141B34"/>
</svg>
