<svg width="24" height="24" viewBox="0 0 24 24" fill="none" xmlns="http://www.w3.org/2000/svg">
<path fill-rule="evenodd" clip-rule="evenodd" d="M3.25 2.75C3.25 1.92157 3.92157 1.25 4.75 1.25C5.57843 1.25 6.25 1.92157 6.25 2.75C6.25 2.88437 6.23233 3.01461 6.19919 3.13853L7.75 4.68934L7.75 7.75H6.25L6.25 5.31066L5.13853 4.19919C5.01461 4.23233 4.88437 4.25 4.75 4.25C3.92157 4.25 3.25 3.57843 3.25 2.75ZM10.5 2.75C10.5 1.92157 11.1716 1.25 12 1.25C12.8284 1.25 13.5 1.92157 13.5 2.75C13.5 3.30521 13.1983 3.78997 12.75 4.04933L12.75 6.75H11.25L11.25 4.04933C10.8016 3.78997 10.5 3.30521 10.5 2.75ZM17.75 2.75C17.75 1.92157 18.4216 1.25 19.25 1.25C20.0784 1.25 20.75 1.92157 20.75 2.75C20.75 3.57843 20.0784 4.25 19.25 4.25C19.1156 4.25 18.9854 4.23233 18.8615 4.19919L17.75 5.31066L17.75 7.75L16.25 7.75L16.25 4.68934L17.8008 3.13853C17.7677 3.01461 17.75 2.88437 17.75 2.75Z" fill="#141B34"/>
<path fill-rule="evenodd" clip-rule="evenodd" d="M22.5891 15.7443C22.3502 16.1083 21.9417 16.7304 21.7574 16.9729C21.2759 17.6065 20.5693 18.452 19.6674 19.2996C17.8788 20.9807 15.2353 22.75 12.0002 22.75C8.76521 22.75 6.12172 20.9807 4.33308 19.2996C3.43124 18.452 2.72459 17.6065 2.2431 16.9729C2.05877 16.7304 1.65032 16.1082 1.4114 15.7443C1.33769 15.6321 1.28012 15.5444 1.25024 15.5C1.28012 15.4556 1.33769 15.3679 1.4114 15.2557C1.65032 14.8918 2.05877 14.2696 2.2431 14.0271C2.72459 13.3935 3.43124 12.548 4.33308 11.7004C6.12172 10.0193 8.76521 8.25 12.0002 8.25C15.2353 8.25 17.8788 10.0193 19.6674 11.7004C20.5693 12.548 21.2759 13.3935 21.7574 14.0271C21.9417 14.2696 22.3502 14.8917 22.5891 15.2557C22.6628 15.3679 22.7204 15.4556 22.7502 15.5C22.7204 15.5444 22.6628 15.6321 22.5891 15.7443ZM12.7502 12.0833V10.75H11.2502V12.0833H8.75024V13.5833H9.68774V17.4167H8.75024V18.9167H11.2502V20.25H12.7502V18.9167H13.5627C14.5396 18.9167 15.2502 18.0868 15.2502 17.1667V16.5C15.2502 16.1376 15.14 15.7892 14.9467 15.5C15.14 15.2108 15.2502 14.8624 15.2502 14.5V13.8333C15.2502 12.9132 14.5396 12.0833 13.5627 12.0833H12.7502ZM11.1877 14.75V13.5833H13.5627C13.6214 13.5833 13.7502 13.6489 13.7502 13.8333V14.5C13.7502 14.6844 13.6214 14.75 13.5627 14.75H11.1877ZM11.1877 16.25H13.5627C13.6214 16.25 13.7502 16.3156 13.7502 16.5V17.1667C13.7502 17.3511 13.6214 17.4167 13.5627 17.4167H11.1877V16.25Z" fill="#141B34"/>
</svg>
