<svg width="24" height="24" viewBox="0 0 24 24" fill="none" xmlns="http://www.w3.org/2000/svg">
<path fill-rule="evenodd" clip-rule="evenodd" d="M21.3677 22.7496L16.6838 18.0657L18.0659 16.6836L22.7498 21.3675L21.3677 22.7496Z" fill="#141B34"/>
<path fill-rule="evenodd" clip-rule="evenodd" d="M1.25024 11.0218C1.25024 5.62444 5.62566 1.24902 11.023 1.24902C16.4204 1.24902 20.7958 5.62444 20.7958 11.0218C20.7958 16.4191 16.4204 20.7945 11.023 20.7945C5.62566 20.7945 1.25024 16.4191 1.25024 11.0218ZM11.023 3.20358C6.70513 3.20358 3.2048 6.70391 3.2048 11.0218C3.2048 15.3397 6.70513 18.84 11.023 18.84C15.3409 18.84 18.8412 15.3397 18.8412 11.0218C18.8412 6.70391 15.3409 3.20358 11.023 3.20358Z" fill="#141B34"/>
<path fill-rule="evenodd" clip-rule="evenodd" d="M11.9999 5.64648V7.1124H12.855C14.002 7.1124 14.9317 8.04217 14.9317 9.18911V9.92207C14.9317 10.3258 14.8165 10.7027 14.6172 11.0215C14.8165 11.3403 14.9317 11.7172 14.9317 12.1209V12.8539C14.9317 14.0008 14.002 14.9306 12.855 14.9306H11.9999V16.3965H10.0454V14.9306H7.11353V12.9761H8.21296L8.21296 9.06695H7.11353V7.1124H10.0454V5.64648H11.9999ZM10.1675 9.06695V10.0442H12.855C12.9225 10.0442 12.9772 9.98953 12.9772 9.92207V9.18911C12.9772 9.12164 12.9225 9.06695 12.855 9.06695H10.1675ZM12.855 11.9988H10.1675V12.9761H12.855C12.9225 12.9761 12.9772 12.9214 12.9772 12.8539V12.1209C12.9772 12.0535 12.9225 11.9988 12.855 11.9988Z" fill="#141B34"/>
</svg>
