<svg width="24" height="24" viewBox="0 0 24 24" fill="none" xmlns="http://www.w3.org/2000/svg">
<path fill-rule="evenodd" clip-rule="evenodd" d="M15.7697 9.57208H20.75V4.57208H18.7579V6.29885L14.4506 2.33493C14.0575 1.97315 13.4503 1.9864 13.0733 2.36498L10.1749 5.27484L4.38394 1.24989L3.25 2.89427L9.72439 7.39427C10.1202 7.66937 10.6553 7.62092 10.9957 7.27919L13.8075 4.45622L17.1933 7.57208H15.7697V9.57208Z" fill="#141B34"/>
<path fill-rule="evenodd" clip-rule="evenodd" d="M11 22.7499C15.0041 22.7499 18.25 19.5039 18.25 15.4999C18.25 11.4958 15.0041 8.24988 11 8.24988C6.99594 8.24988 3.75 11.4958 3.75 15.4999C3.75 19.5039 6.99594 22.7499 11 22.7499ZM11.75 12.0832V10.7499H10.25V12.0832H7.75V13.5832H8.6875L8.6875 17.4165H7.75V18.9165H10.25V20.2499H11.75V18.9165H12.5625C13.5393 18.9165 14.25 18.0867 14.25 17.1665V16.4999C14.25 16.1375 14.1398 15.7891 13.9465 15.4999C14.1398 15.2107 14.25 14.8623 14.25 14.4999V13.8332C14.25 12.913 13.5393 12.0832 12.5625 12.0832H11.75ZM10.1875 14.7499V13.5832H12.5625C12.6212 13.5832 12.75 13.6488 12.75 13.8332V14.4999C12.75 14.6843 12.6212 14.7499 12.5625 14.7499H10.1875ZM10.1875 16.2499H12.5625C12.6212 16.2499 12.75 16.3155 12.75 16.4999V17.1665C12.75 17.3509 12.6212 17.4165 12.5625 17.4165H10.1875L10.1875 16.2499Z" fill="#141B34"/>
</svg>
