<svg width="24" height="24" viewBox="0 0 24 24" fill="none" xmlns="http://www.w3.org/2000/svg">
<path fill-rule="evenodd" clip-rule="evenodd" d="M2 1.25C1.80108 1.25 1.61031 1.32902 1.46965 1.46969C1.329 1.61035 1.24999 1.80113 1.25 2.00005L1.2513 21.5124C1.25132 21.7759 1.3897 22.0202 1.6158 22.1557C1.84189 22.2911 2.12251 22.298 2.35495 22.1737L5.74655 20.3602L9.61876 22.6459C9.85396 22.7847 10.146 22.7847 10.3812 22.6459L14.2535 20.3602L17.6464 22.1738C17.8789 22.298 18.1595 22.2911 18.3856 22.1556C18.6116 22.0201 18.75 21.7759 18.75 21.5123V8.75H22.75V4C22.75 2.48122 21.5188 1.25 20 1.25H2ZM18.75 4C18.75 3.30964 19.3096 2.75 20 2.75C20.6904 2.75 21.25 3.30964 21.25 4V7.25H18.75V4ZM10.75 6.75V5.25H9.25V6.75H6.25V8.25H7.375V12.75H6.25V14.25H9.25V15.75H10.75V14.25H11.875C12.9105 14.25 13.75 13.4105 13.75 12.375V11.625C13.75 11.2029 13.6105 10.8134 13.3751 10.5C13.6105 10.1866 13.75 9.7971 13.75 9.375V8.625C13.75 7.58947 12.9105 6.75 11.875 6.75H10.75ZM8.875 9.75V8.25H11.875C12.0821 8.25 12.25 8.41789 12.25 8.625V9.375C12.25 9.58211 12.0821 9.75 11.875 9.75H8.875ZM8.875 11.25H11.875C12.0821 11.25 12.25 11.4179 12.25 11.625V12.375C12.25 12.5821 12.0821 12.75 11.875 12.75H8.875L8.875 11.25Z" fill="#141B34"/>
</svg>
