<svg width="24" height="24" viewBox="0 0 24 24" fill="none" xmlns="http://www.w3.org/2000/svg">
<path fill-rule="evenodd" clip-rule="evenodd" d="M4.25 1.25L19.75 1.25051V22.75H4.25V1.25ZM12.75 5.25V6.58333H13.5625C14.5393 6.58333 15.25 7.41317 15.25 8.33333V9C15.25 9.3624 15.1398 9.7108 14.9465 10C15.1398 10.2892 15.25 10.6376 15.25 11V11.6667C15.25 12.5868 14.5393 13.4167 13.5625 13.4167H12.75V14.75H11.25V13.4167H8.75V11.9167H9.6875V8.08333H8.75V6.58333H11.25V5.25H12.75ZM11.1875 8.08333V9.25H13.5625C13.6212 9.25 13.75 9.1844 13.75 9V8.33333C13.75 8.14893 13.6212 8.08333 13.5625 8.08333H11.1875ZM13.5625 10.75H11.1875V11.9167H13.5625C13.6212 11.9167 13.75 11.8511 13.75 11.6667V11C13.75 10.8156 13.6212 10.75 13.5625 10.75ZM13.009 19H11V21H13.009V19Z" fill="#141B34"/>
</svg>
