<svg width="24" height="24" viewBox="0 0 24 24" fill="none" xmlns="http://www.w3.org/2000/svg">
<path fill-rule="evenodd" clip-rule="evenodd" d="M9.38041 2.13643L9.00615 1.5L4.2375 4.20307L4.62276 4.85822C5.76109 6.79398 4.30575 9.28768 2 9.28768H1.25V14.7124H2C4.30517 14.7124 5.75974 17.2056 4.62118 19.1418L4.23592 19.7969L9.00457 22.5L9.37882 21.8636C10.5539 19.8654 13.4477 19.8653 14.6228 21.8635L14.997 22.4999L19.7657 19.7968L19.3804 19.1417C18.2416 17.2051 19.6954 14.7124 22 14.7124H22.75V9.28768H22C19.6948 9.28768 18.2403 6.79448 19.3788 4.85831L19.7641 4.20317L14.9954 1.5001L14.6212 2.13652C13.4469 4.13346 10.5548 4.13343 9.38041 2.13643ZM12.75 8.25V6.75H11.25V8.25H8.25V9.75H9.375V14.25H8.25V15.75H11.25V17.25H12.75V15.75H13.875C14.9105 15.75 15.75 14.9105 15.75 13.875V13.125C15.75 12.7029 15.6105 12.3134 15.3751 12C15.6105 11.6866 15.75 11.2971 15.75 10.875V10.125C15.75 9.08947 14.9105 8.25 13.875 8.25H12.75ZM10.875 11.25V9.75H13.875C14.0821 9.75 14.25 9.91789 14.25 10.125V10.875C14.25 11.0821 14.0821 11.25 13.875 11.25H10.875ZM10.875 12.75H13.875C14.0821 12.75 14.25 12.9179 14.25 13.125V13.875C14.25 14.0821 14.0821 14.25 13.875 14.25H10.875V12.75Z" fill="#141B34"/>
</svg>
