<svg width="24" height="24" viewBox="0 0 24 24" fill="none" xmlns="http://www.w3.org/2000/svg">
<path fill-rule="evenodd" clip-rule="evenodd" d="M4 22.2501V19.2501H6V22.2501H4ZM18 22.2501V19.2501H20V22.2501H18Z" fill="#141B34"/>
<path fill-rule="evenodd" clip-rule="evenodd" d="M10.4285 5.12854L12.4285 10.1285L10.5715 10.8713L8.57152 5.87132L10.4285 5.12854ZM17.9806 5.30381L18.9806 10.3038L17.0194 10.696L16.0194 5.69605L17.9806 5.30381ZM8 5.49993V10.4999H6V5.49993H8ZM15 5.49993V10.4999H13V5.49993H15Z" fill="#141B34"/>
<path fill-rule="evenodd" clip-rule="evenodd" d="M20.775 1.74992H3.225C2.68652 1.74992 2.25 2.18586 2.25 2.72361V19.2762C2.25 19.814 2.68652 20.2499 3.225 20.2499H20.775C21.3135 20.2499 21.75 19.814 21.75 19.2762V2.72361C21.75 2.46537 21.6473 2.21771 21.4644 2.03511C21.2816 1.85251 21.0336 1.74992 20.775 1.74992ZM4.19922 9.74982V3.69719H19.7992V9.74982H4.19922ZM10 17.4999H14V15.4999H10V17.4999Z" fill="#141B34"/>
</svg>
