<svg width="24" height="24" viewBox="0 0 24 24" fill="none" xmlns="http://www.w3.org/2000/svg">
<path fill-rule="evenodd" clip-rule="evenodd" d="M4 22.25V19.25H6V22.25H4ZM18 22.25V19.25H20V22.25H18Z" fill="#141B34"/>
<path fill-rule="evenodd" clip-rule="evenodd" d="M21.75 11.75L2.25 11.75L2.25 19.5C2.25 19.9142 2.58579 20.25 3 20.25L21 20.25C21.4142 20.25 21.75 19.9142 21.75 19.5V11.75ZM21 1.75L3 1.75C2.58579 1.75 2.25 2.08579 2.25 2.5L2.25 10.25L21.75 10.25L21.75 2.5C21.75 2.30109 21.671 2.11032 21.5303 1.96967C21.3897 1.82902 21.1989 1.75 21 1.75ZM7.25 18.75H8.75V14.103H7.25L7.25 18.75ZM12.75 18.75H11.25V14.103H12.75V18.75ZM16.8346 18.75H15.3049L16.2637 13.9561L17.7345 14.2502L16.8346 18.75ZM7.75 8.74986H6.25V3.99941H7.75V8.74986ZM12.5233 8.74986H14.1389L12.1964 3.89355L10.8036 4.45064L12.5233 8.74986ZM16.25 8.74986H17.75V3.99941L16.25 3.99941V8.74986Z" fill="#141B34"/>
</svg>
