<svg width="24" height="24" viewBox="0 0 24 24" fill="none" xmlns="http://www.w3.org/2000/svg">
<path fill-rule="evenodd" clip-rule="evenodd" d="M20 4H17V2L21 2C21.2652 2 21.5196 2.10536 21.7071 2.29289C21.8946 2.48043 22 2.73478 22 3V7H20V4ZM15 4L9 4V2L15 2V4ZM4 4L7 4V2L3 2C2.73478 2 2.48043 2.10536 2.29289 2.29289C2.10536 2.48043 2 2.73478 2 3L2 7H4V4ZM20 15V9H22V15H20ZM4 9L4 15H2L2 9H4ZM20 20V17H22V21C22 21.5523 21.5523 22 21 22H17V20H20ZM4 20L4 17H2L2 21C2 21.5523 2.44772 22 3 22H7V20H4ZM9 20H15V22H9V20Z" fill="#141B34"/>
</svg>
