<svg width="24" height="24" viewBox="0 0 24 24" fill="none" xmlns="http://www.w3.org/2000/svg">
<path d="M12 5.25C9.64377 5.25 7.44798 5.83523 5.63511 6.84475L5.25 7.0592V9.61966C9.74801 8.46 14.252 8.46011 18.75 9.62001V7.0592L18.3649 6.84475C16.552 5.83523 14.3562 5.25 12 5.25Z" fill="#141B34"/>
<path d="M18.75 11.1719C14.2476 9.94282 9.75235 9.9427 5.25 11.1715V16.8285C9.75235 18.0573 14.2476 18.0572 18.75 16.8281V11.1719Z" fill="#141B34"/>
<path d="M18.75 18.38C14.252 19.5399 9.74801 19.54 5.25 18.3803V20.9408L5.63511 21.1553C7.44798 22.1648 9.64377 22.75 12 22.75C14.3562 22.75 16.552 22.1648 18.3649 21.1553L18.75 20.9408V18.38Z" fill="#141B34"/>
<path d="M10.3269 2.75H5.99707V1.25H17.9971V2.75H13.6672L16.5576 6.00173L15.4365 6.99827L11.9971 3.1289L8.55764 6.99827L7.43652 6.00173L10.3269 2.75Z" fill="#141B34"/>
</svg>
