<svg width="24" height="24" viewBox="0 0 24 24" fill="none" xmlns="http://www.w3.org/2000/svg">
<path d="M7 6.25C5.21864 6.25 3.75352 7.15141 2.76058 8.5699C1.77777 9.97391 1.25 11.8842 1.25 14V17.75H8.25V14.9C8.25 13.5591 8.05685 12.4366 7.75364 11.6785C7.42441 10.8555 7.10265 10.75 7 10.75C6.89735 10.75 6.57559 10.8555 6.24636 11.6785C5.94315 12.4366 5.75 13.5591 5.75 14.9H4.25C4.25 13.4409 4.45685 12.1134 4.85364 11.1215C5.22441 10.1945 5.90265 9.25 7 9.25C8.09735 9.25 8.77559 10.1945 9.14636 11.1215C9.54315 12.1134 9.75 13.4409 9.75 14.9V17.75H12.75V14C12.75 11.8842 12.2222 9.97391 11.2394 8.5699C10.2465 7.15141 8.78136 6.25 7 6.25Z" fill="#141B34"/>
<path d="M14.25 17.75H22.75V14C22.75 11.8842 22.2222 9.97391 21.2394 8.5699C20.2465 7.15141 18.7814 6.25 17 6.25H11.1332C11.6385 6.67006 12.0857 7.16324 12.4683 7.70971C13.6668 9.42185 14.25 11.6527 14.25 14V17.75Z" fill="#141B34"/>
</svg>
