<svg width="24" height="24" viewBox="0 0 24 24" fill="none" xmlns="http://www.w3.org/2000/svg">
<path fill-rule="evenodd" clip-rule="evenodd" d="M22.75 2.66421L16.0429 9.37132L13.3358 6.66421L14.75 5.25L16.0429 6.54289L21.3358 1.25L22.75 2.66421Z" fill="#141B34"/>
<path fill-rule="evenodd" clip-rule="evenodd" d="M12 1.25C14.1687 1.25 16.1955 1.8653 17.8918 2.92648L16.0432 4.77507L14.7503 3.48218L11.5684 6.66416L16.0432 11.139L21.1173 6.06495C22.1508 7.63671 22.75 9.49777 22.75 11.5C22.75 17.1963 17.8997 21.75 12 21.75C10.5948 21.75 9.25046 21.4925 8.01735 21.0233L3.25001 22.75L4.16134 18.5143C2.36071 16.6855 1.25 14.2189 1.25 11.5C1.25 5.80369 6.10029 1.25 12 1.25ZM9.00897 11H7V13H9.00897V11ZM13.0045 13V11H10.9955V13H13.0045Z" fill="#141B34"/>
</svg>
