<svg width="24" height="24" viewBox="0 0 24 24" fill="none" xmlns="http://www.w3.org/2000/svg">
<path fill-rule="evenodd" clip-rule="evenodd" d="M12 1.25C13.5582 1.25 15.0433 1.56767 16.3851 2.14015L15.8611 2.66416L15.904 2.70705H12.0859V7.20705H15.904L15.8611 7.24994L19.043 10.4319L21.9244 7.55059C22.4559 8.76381 22.75 10.0973 22.75 11.5C22.75 17.1963 17.8997 21.75 12 21.75C10.5948 21.75 9.25046 21.4925 8.01735 21.0233L3.25001 22.75L4.16134 18.5143C2.36071 16.6855 1.25 14.2189 1.25 11.5C1.25 5.80369 6.10029 1.25 12 1.25ZM9.00897 11H7V13H9.00897V11ZM13.0045 13V11H10.9955V13H13.0045ZM17 11H14.991V13H17V11Z" fill="#141B34"/>
<path fill-rule="evenodd" clip-rule="evenodd" d="M18.9216 3.95711L17.6287 2.66421L19.0429 1.25L22.75 4.95711L19.0429 8.66421L17.6287 7.25L18.9216 5.95711L13.3358 5.95711V3.95711L18.9216 3.95711Z" fill="#141B34"/>
</svg>
