<svg width="24" height="24" viewBox="0 0 24 24" fill="none" xmlns="http://www.w3.org/2000/svg">
<path d="M5.99902 18.75V21.75H7.99902V18.75H5.99902Z" fill="#141B34"/>
<path d="M15.999 18.75V21.75H17.999V18.75H15.999Z" fill="#141B34"/>
<path fill-rule="evenodd" clip-rule="evenodd" d="M4.71961 2.25C4.18357 2.25 3.74902 2.68777 3.74902 3.22778L3.75031 18.7722C3.75031 19.3122 4.18486 19.75 4.7209 19.75H19.2797C19.8158 19.75 20.2503 19.3122 20.2503 18.7722L20.249 3.22778C20.249 2.68777 19.8145 2.25 19.2784 2.25H4.71961ZM5.69043 12.2495V4.20508H18.3081V12.2495H5.69043ZM7.49902 16.751H5.49902V15.251H7.49902V16.751ZM16.499 16.751H18.499V15.251H16.499V16.751ZM13.999 16.751H9.99902V15.251H13.999V16.751Z" fill="#141B34"/>
<path fill-rule="evenodd" clip-rule="evenodd" d="M22.75 10.7805L20.25 12.7805L19.0006 11.2188L21.5006 9.21875L22.75 10.7805Z" fill="#141B34"/>
<path fill-rule="evenodd" clip-rule="evenodd" d="M3.75 12.7805L1.25 10.7805L2.49939 9.21875L4.99939 11.2188L3.75 12.7805Z" fill="#141B34"/>
</svg>
