<svg width="24" height="24" viewBox="0 0 24 24" fill="none" xmlns="http://www.w3.org/2000/svg">
<path fill-rule="evenodd" clip-rule="evenodd" d="M17 7.5L14 7.5L14 5.5L17 5.5L17 7.5Z" fill="#141B34"/>
<path fill-rule="evenodd" clip-rule="evenodd" d="M2.75 2.72619C2.75 2.18706 3.18593 1.75 3.72368 1.75H20.2763C20.8141 1.75 21.25 2.18706 21.25 2.72619V21.2738C21.25 21.8129 20.8141 22.25 20.2763 22.25H3.72368C3.18593 22.25 2.75 21.8129 2.75 21.2738V2.72619ZM19.3025 3.70239V9.25001H4.69727V3.70239H19.3025ZM6.25 13.25H8.27632V14.75H6.25V13.25ZM10.9868 13.25H13.0132V14.75H10.9868V13.25ZM15.7237 13.25H17.75V14.75H15.7237V13.25ZM8.27632 17.25H6.25V18.75H8.27632V17.25ZM13.0132 17.25H10.9868V18.75H13.0132V17.25ZM17.75 17.25H15.7237V18.75H17.75V17.25Z" fill="#141B34"/>
</svg>
