<svg width="24" height="24" viewBox="0 0 24 24" fill="none" xmlns="http://www.w3.org/2000/svg">
<path d="M16.5 1.5V3H7.5V1.5H5.5V3H3C2.58579 3 2.25 3.33579 2.25 3.75V21.525C2.25 22.0635 2.68652 22.5 3.225 22.5H11V20.55H4.2V9.5H19.8V13.025H21.75V3.75C21.75 3.33579 21.4142 3 21 3H18.5V1.5H16.5Z" fill="#141B34"/>
<path fill-rule="evenodd" clip-rule="evenodd" d="M15.1288 18.2929L12.3359 15.5L13.7502 14.0858L16.543 16.8787L19.3359 14.0858L20.7502 15.5L17.9573 18.2929L20.7502 21.0858L19.3359 22.5L16.543 19.7071L13.7502 22.5L12.3359 21.0858L15.1288 18.2929Z" fill="#141B34"/>
</svg>
