<svg width="24" height="24" viewBox="0 0 24 24" fill="none" xmlns="http://www.w3.org/2000/svg">
<path d="M21.336 22.7499L1.25024 2.66409L2.66446 1.24988L22.7502 21.3357L21.336 22.7499Z" fill="#141B34"/>
<path d="M11.7473 18.9174C13.172 18.0523 14.5314 16.9746 15.7531 15.7521L17.1536 17.1565C15.6968 18.6143 14.0572 19.8868 12.3206 20.8831C10.5953 21.8729 9.16857 22.3591 7.72278 22.6508C4.66336 23.2672 2.2553 20.8831 1.25122 19.0189L8.16938 15.0788L11.7473 18.9174Z" fill="#141B34"/>
<path d="M22.6521 7.72156C22.3603 9.16735 21.8742 10.5941 20.8843 12.3194C20.2925 13.351 19.6017 14.3498 18.8328 15.2962L17.422 13.8853C17.971 13.1961 18.4728 12.4796 18.9183 11.7457L15.0801 8.16817L19.0201 1.25C20.8843 2.25408 23.2684 4.66214 22.6521 7.72156Z" fill="#141B34"/>
</svg>
