<svg width="24" height="24" viewBox="0 0 24 24" fill="none" xmlns="http://www.w3.org/2000/svg">
<path fill-rule="evenodd" clip-rule="evenodd" d="M10.7429 8.50004C11.0909 8.49688 11.4155 8.67488 11.6 8.97L13.8062 12.5H16.252V14.5H13.252C12.9072 14.5 12.5867 14.3224 12.404 14.03L10.7694 11.4146L8.60945 15.0145C8.4428 15.2922 8.15197 15.4721 7.82904 15.497C7.50611 15.522 7.19108 15.389 6.98373 15.1402L4.78358 12.5L1.25195 12.5L1.25195 10.5L5.25195 10.5C5.54873 10.5 5.83018 10.6318 6.02017 10.8598L7.61884 12.7782L9.89446 8.9855C10.0735 8.68708 10.3949 8.5032 10.7429 8.50004Z" fill="#141B34"/>
<path d="M12.0003 3.74382L11.9559 3.70846C11.5865 3.4164 11.0467 3.0509 10.3638 2.75876C8.97808 2.16592 7.01986 1.88758 4.78785 3.08156C2.72787 4.18352 1.4445 6.42254 1.27148 9L5.25142 9C5.99337 9 6.69699 9.32956 7.17197 9.89954L7.41863 10.1955L8.60769 8.21376C9.05533 7.46769 9.85867 7.00801 10.7287 7.0001C11.5987 6.9922 12.4103 7.43719 12.8714 8.175L14.637 11H17.7514V16H13.2514C12.3894 16 11.5883 15.556 11.1314 14.825L10.7949 14.2866L9.89515 15.7862C9.47855 16.4806 8.75145 16.9301 7.94413 16.9926C7.1368 17.055 6.34925 16.7225 5.83087 16.1005L4.08048 14H2.30653C3.75597 16.964 6.76145 19.7936 11.7373 21.6518L12.0003 21.75L12.2633 21.6518C18.4621 19.3369 21.6029 15.5144 22.4868 11.8026C23.3607 8.13312 21.9951 4.57004 19.2125 3.08157C16.9805 1.88759 15.0224 2.16593 13.6366 2.75876C12.9538 3.05091 12.414 3.41641 12.0446 3.70847L12.0003 3.74382Z" fill="#141B34"/>
</svg>
