<svg width="24" height="24" viewBox="0 0 24 24" fill="none" xmlns="http://www.w3.org/2000/svg">
<path fill-rule="evenodd" clip-rule="evenodd" d="M22 8.67438V22H20V11.3258L18.5 11.7544V22H16.5V10.2458L22 8.67438Z" fill="#141B34"/>
<path fill-rule="evenodd" clip-rule="evenodd" d="M2 8.67438V22H4V11.3258L5.5 11.7544V22H7.5V10.2458L2 8.67438Z" fill="#141B34"/>
<path fill-rule="evenodd" clip-rule="evenodd" d="M23 23L1 23L1 21L23 21L23 23Z" fill="#141B34"/>
<path fill-rule="evenodd" clip-rule="evenodd" d="M6.18837 1.41537C6.37632 1.15459 6.67817 1.00006 6.99963 1.00006L17 1.00006C17.3214 1.00006 17.6233 1.15459 17.8112 1.41535C17.9992 1.67612 18.0503 2.01134 17.9487 2.31629L16 8.16232V22H14V9.00004H10V22H8V8.16235L6.05096 2.31634C5.94929 2.01139 6.00042 1.67616 6.18837 1.41537ZM9.72071 7.00004H14.2792L15.6126 3.00006L8.38713 3.00006L9.72071 7.00004Z" fill="#141B34"/>
</svg>
