<svg width="24" height="24" viewBox="0 0 24 24" fill="none" xmlns="http://www.w3.org/2000/svg">
<path fill-rule="evenodd" clip-rule="evenodd" d="M4.5 19.5V2.5H2.5V20.5C2.5 21.0523 2.94772 21.5 3.5 21.5H21.5V19.5H4.5Z" fill="#141B34"/>
<path fill-rule="evenodd" clip-rule="evenodd" d="M17.8916 11.2826C17.3695 12.1953 16.5353 13.1353 15.1866 13.1353C14.331 13.1353 13.7047 12.678 13.2707 12.212C12.8665 11.778 12.5278 11.2256 12.2518 10.7754C12.2409 10.7577 12.2301 10.7402 12.2195 10.7228C11.9091 10.217 11.665 9.82895 11.407 9.55578C11.1642 9.2987 11.0216 9.2643 10.9284 9.2643C10.8449 9.2643 10.676 9.29861 10.4078 9.47484C10.1427 9.64902 9.83668 9.92569 9.50053 10.3113C8.82801 11.0827 8.13098 12.1783 7.48256 13.4134C6.17591 15.9023 5.18802 18.7202 4.99066 20.1379L3.00977 19.8621C3.25179 18.1236 4.3521 15.0736 5.71176 12.4837C6.39649 11.1794 7.17714 9.93287 7.99297 8.99703C8.401 8.52899 8.84181 8.11072 9.30951 7.80339C9.77411 7.4981 10.3239 7.2643 10.9284 7.2643C11.7861 7.2643 12.4183 7.71378 12.861 8.18251C13.2788 8.62488 13.6247 9.18863 13.9047 9.64517L13.9241 9.67678C14.2362 10.1854 14.4783 10.5741 14.7342 10.8489C14.9762 11.1087 15.1104 11.1353 15.1866 11.1353C15.4413 11.1353 15.7515 10.9959 16.1557 10.2894C16.5439 9.6108 16.856 8.68853 17.2164 7.62364C17.2306 7.58161 17.2449 7.53936 17.2593 7.49689C17.6167 6.44163 18.0283 5.24453 18.6111 4.31714C19.2065 3.36994 20.1145 2.5 21.5002 2.5V4.5C21.1 4.5 20.7268 4.70948 20.3045 5.38139C19.8697 6.07312 19.5274 7.03484 19.1537 8.13841C19.1307 8.20609 19.1077 8.27441 19.0844 8.34324C18.7504 9.33246 18.3804 10.4284 17.8916 11.2826Z" fill="#141B34"/>
</svg>
