<svg width="24" height="24" viewBox="0 0 24 24" fill="none" xmlns="http://www.w3.org/2000/svg">
<path d="M22.75 16.2093C22.75 12.8975 19.9301 10.25 16.5 10.25C13.0699 10.25 10.25 12.8975 10.25 16.2093C10.25 19.5211 13.0699 22.1686 16.5 22.1686C17.317 22.1686 18.0986 22.0189 18.8155 21.7461L21.5872 22.75L21.0574 20.2874C22.1042 19.2241 22.75 17.79 22.75 16.2093Z" fill="#141B34"/>
<path d="M11.5 1.25C5.87469 1.25 1.25 5.38009 1.25 10.5465C1.25 13.0125 2.30905 15.2496 4.02593 16.9083L3.15699 20.75L7.70259 19.1839C8.41767 19.4428 9.17198 19.6305 9.95471 19.738C9.3486 18.7025 9 17.5023 9 16.2093C9 12.1462 12.4421 9 16.5 9C18.5111 9 20.3709 9.77277 21.7355 11.0469C21.7451 10.8813 21.75 10.7144 21.75 10.5465C21.75 5.38009 17.1253 1.25 11.5 1.25Z" fill="#141B34"/>
</svg>
