<svg width="24" height="24" viewBox="0 0 24 24" fill="none" xmlns="http://www.w3.org/2000/svg">
<path fill-rule="evenodd" clip-rule="evenodd" d="M15.5096 6.25324C15.1815 5.44972 14.5417 4.80687 13.7406 4.47539C14.0551 4.17653 14.5221 3.87204 15.1819 3.7069L14.8181 2.25C13.3125 2.62684 12.4223 3.54527 12.0074 4.26704C10.4462 4.50469 9.24997 5.85432 9.24997 7.48367C9.24997 7.97614 9.35925 8.44306 9.55486 8.86145L1.69943 12.3022C1.37417 12.4447 1.19324 12.7959 1.26593 13.1438C1.33862 13.4917 1.64502 13.741 2.00004 13.741H12.25V15.493C12.25 16.7371 13.2574 17.7456 14.5 17.7456C15.7427 17.7456 16.75 16.7371 16.75 15.493V13.741H22C22.2674 13.741 22.5145 13.5985 22.6487 13.367C22.7829 13.1355 22.7839 12.85 22.6512 12.6176L18.6512 5.60944C18.4611 5.27627 18.0506 5.14026 17.6994 5.29406L15.5096 6.25324ZM15.7354 7.79348C15.5796 9.44517 14.1905 10.7374 12.5 10.7374C11.76 10.7374 11.0777 10.4898 10.5314 10.0729L5.5855 12.2392H13C13.4143 12.2392 13.75 12.5754 13.75 12.9901V15.493C13.75 15.9077 14.0858 16.2439 14.5 16.2439C14.9143 16.2439 15.25 15.9077 15.25 15.493V12.9901C15.25 12.5754 15.5858 12.2392 16 12.2392H20.7077L17.6832 6.94033L15.7354 7.79348ZM14.25 7.48367C14.25 6.51605 13.4665 5.73164 12.5 5.73164C11.5335 5.73164 10.75 6.51605 10.75 7.48367C10.75 8.45129 11.5335 9.2357 12.5 9.2357C13.4665 9.2357 14.25 8.45129 14.25 7.48367Z" fill="#141B34"/>
<path fill-rule="evenodd" clip-rule="evenodd" d="M13.7406 4.47539C14.5417 4.80687 15.1815 5.44972 15.5096 6.25324L17.6994 5.29406C18.0506 5.14026 18.4611 5.27627 18.6512 5.60944L22.6512 12.6176C22.7839 12.85 22.7829 13.1355 22.6487 13.367C22.5145 13.5985 22.2674 13.741 22 13.741H16.75V15.493C16.75 16.7371 15.7427 17.7456 14.5 17.7456C13.2574 17.7456 12.25 16.7371 12.25 15.493V13.741H2.00004C1.64502 13.741 1.33862 13.4917 1.26593 13.1438C1.19324 12.7959 1.37417 12.4447 1.69943 12.3022L9.55486 8.86145C9.35925 8.44306 9.24997 7.97614 9.24997 7.48367C9.24997 5.85432 10.4462 4.50469 12.0074 4.26704C12.4223 3.54527 13.3125 2.62684 14.8181 2.25L15.1819 3.7069C14.5221 3.87204 14.0551 4.17653 13.7406 4.47539ZM12.5 5.73157C13.4665 5.73157 14.25 6.51598 14.25 7.4836C14.25 8.45122 13.4665 9.23563 12.5 9.23563C11.5335 9.23563 10.75 8.45122 10.75 7.4836C10.75 6.51598 11.5335 5.73157 12.5 5.73157Z" fill="#141B34"/>
<path fill-rule="evenodd" clip-rule="evenodd" d="M1.24997 12.99C1.24997 12.5753 1.58576 12.2391 1.99997 12.2391H22C22.4142 12.2391 22.75 12.5753 22.75 12.99V20.9993C22.75 21.4139 22.4142 21.7501 22 21.7501H1.99997C1.58576 21.7501 1.24997 21.4139 1.24997 20.9993V12.99ZM2.74997 17.7455V20.2484H21.25V17.7455H18V16.2437H21.25V13.7408H2.74997V16.2437H11V17.7455H2.74997Z" fill="#141B34"/>
</svg>
