<svg width="24" height="24" viewBox="0 0 24 24" fill="none" xmlns="http://www.w3.org/2000/svg">
<path fill-rule="evenodd" clip-rule="evenodd" d="M4.25 15C4.25 10.7198 7.71979 7.25 12 7.25C16.2802 7.25 19.75 10.7198 19.75 15C19.75 19.2802 16.2802 22.75 12 22.75C7.71979 22.75 4.25 19.2802 4.25 15ZM13 16.5V13.5H11V16.5H13Z" fill="#141B34"/>
<path fill-rule="evenodd" clip-rule="evenodd" d="M6.5 6.75C6.5 3.71243 8.96243 1.25 12 1.25C13.9079 1.25 15.5883 2.22228 16.5732 3.69374L14.9112 4.80626C14.2817 3.86575 13.2125 3.25 12 3.25C10.067 3.25 8.5 4.817 8.5 6.75V9.75H6.5V6.75Z" fill="#141B34"/>
</svg>
