<svg width="24" height="24" viewBox="0 0 24 24" fill="none" xmlns="http://www.w3.org/2000/svg">
<path fill-rule="evenodd" clip-rule="evenodd" d="M1.25 12C1.25 6.06294 6.06294 1.25 12 1.25C17.9371 1.25 22.75 6.06294 22.75 12C22.75 17.9371 17.9371 22.75 12 22.75C6.06294 22.75 1.25 17.9371 1.25 12ZM16.5805 9.06987L14.0796 6.02441L12.9204 6.97636L14.4145 8.79584H7.25001V12.0004H8.75001V10.2958H16.0009C16.291 10.2958 16.555 10.1286 16.679 9.8664C16.8029 9.60419 16.7646 9.29401 16.5805 9.06987ZM15.25 12.0001L15.2493 13.7049H8.00001C7.71 13.7049 7.44597 13.8721 7.322 14.1343C7.19802 14.3965 7.2363 14.7066 7.42031 14.9308L9.92031 17.9763L11.0797 17.0245L9.58602 15.2049H16.7488L16.75 12.0007L15.25 12.0001Z" fill="#141B34"/>
</svg>
