<svg width="24" height="24" viewBox="0 0 24 24" fill="none" xmlns="http://www.w3.org/2000/svg">
<path fill-rule="evenodd" clip-rule="evenodd" d="M12 1.25C6.06294 1.25 1.25 6.06294 1.25 12C1.25 17.9371 6.06294 22.75 12 22.75C17.9371 22.75 22.75 17.9371 22.75 12C22.75 6.06294 17.9371 1.25 12 1.25ZM14.4688 8.53033L15.1884 9.25H9.99908C9.58487 9.25 9.24908 9.58578 9.24908 10V15.1893L8.52941 14.4697L7.46875 15.5303L9.99908 18.0607L12.5294 15.5303L11.4688 14.4697L10.7491 15.1893V10.75H15.1884L14.4688 11.4697L15.5294 12.5303L18.0597 10L15.5294 7.46967L14.4688 8.53033Z" fill="#141B34"/>
</svg>
