<svg width="24" height="24" viewBox="0 0 24 24" fill="none" xmlns="http://www.w3.org/2000/svg">
<path d="M17.3184 6.55171C16.9308 6.14943 16.3107 6.14943 15.9231 6.55171L9.9478 12.7532L9.9527 9.51153C9.95385 8.75401 9.32807 8.20605 8.65481 8.28477C8.13425 8.34564 7.69746 8.76922 7.61802 9.34025L6.94694 14.1638C6.79227 15.2755 6.72494 15.7742 6.75828 16.2478C6.81021 16.9856 7.03795 17.6965 7.41967 18.3168C7.66424 18.7143 8.00299 19.069 8.7673 19.8622C9.48791 20.6101 10.0153 21.1571 10.4607 21.5639C10.904 21.9687 11.2452 22.2145 11.5858 22.3715C12.6851 22.878 13.9403 22.8762 15.042 22.3657C15.3836 22.2074 15.7258 21.9602 16.1704 21.5538C16.6173 21.1455 17.1464 20.5966 17.8692 19.8464L21.9515 15.6112C22.3494 15.1981 22.3494 14.5209 21.9515 14.1079C21.5639 13.7056 20.9437 13.7056 20.5561 14.1079L18.9015 15.8252L18.3112 15.2677L21.2896 12.1765C21.6876 11.7635 21.6876 11.0863 21.2896 10.6733C20.902 10.271 20.2819 10.271 19.8943 10.6733L16.9159 13.7644L16.3256 13.2069L20.6277 8.7419C21.0257 8.32886 21.0257 7.65167 20.6277 7.23864C20.2401 6.83635 19.62 6.83635 19.2324 7.23864L14.9303 11.7036L14.34 11.1461L17.3184 8.05497C17.7164 7.64194 17.7164 6.96475 17.3184 6.55171Z" fill="#141B34"/>
<path fill-rule="evenodd" clip-rule="evenodd" d="M11.7293 2.89221C11.5496 2.7026 11.276 2.7026 11.0964 2.89221L5.22873 9.0857L5.23446 5.23191C5.23514 4.77337 4.87416 4.50341 4.5524 4.54167C4.29496 4.57229 4.04562 4.79357 3.99898 5.13449L3.41706 9.38835C3.2807 10.3852 3.23068 10.7781 3.25615 11.1462C3.29695 11.7358 3.47585 12.3023 3.77392 12.7949C3.95897 13.1007 4.21689 13.3788 4.89141 14.0908C5.02254 14.2292 5.14616 14.3597 5.2636 14.4832L4.17664 15.5168C4.05812 15.3922 3.93358 15.2608 3.80277 15.1227C3.78259 15.1014 3.76239 15.0801 3.74269 15.0593C3.14763 14.4314 2.76936 14.0322 2.49056 13.5714C2.06689 12.8712 1.81673 12.0734 1.75973 11.2497C1.72229 10.7087 1.7982 10.1542 1.91924 9.27026C1.92308 9.24219 1.92697 9.21379 1.9309 9.18504L2.51282 4.93119C2.64501 3.96485 3.38938 3.16941 4.37528 3.05217C5.67845 2.8972 6.73634 3.96725 6.73446 5.23414L6.73434 5.31547L10.0075 1.86058C10.7787 1.04647 12.0469 1.04647 12.8182 1.86058C12.9334 1.98216 13.0308 2.11497 13.1106 2.25556C13.8859 1.65968 14.9901 1.72996 15.6878 2.46638C16.4373 3.25751 16.4373 4.52427 15.6878 5.3154L14.5989 4.28377C14.8003 4.07119 14.8003 3.71059 14.5989 3.49801C14.4193 3.30839 14.1457 3.30839 13.966 3.49801L11.0558 6.56981L9.96691 5.53818L11.7293 3.67797C11.9307 3.46539 11.9307 3.10479 11.7293 2.89221Z" fill="#141B34"/>
</svg>
