<svg width="24" height="24" viewBox="0 0 24 24" fill="none" xmlns="http://www.w3.org/2000/svg">
<path d="M14.7476 11.0614L21.7506 3.62073L20.2942 2.25L13.3223 9.65766L14.7476 11.0614Z" fill="#141B34"/>
<path fill-rule="evenodd" clip-rule="evenodd" d="M12.8999 19.2628C13.8202 17.8349 14.75 15.4392 14.75 12.8178L11.6369 9.75195L11.1381 10.0467C8.89633 11.3713 6.15309 11.4051 3.29382 10.55L2.25 10.2379L2.33451 11.309C2.4714 13.0439 2.79288 14.5202 3.28062 15.773C3.37397 15.7773 3.48263 15.7811 3.60448 15.7833C4.05595 15.7914 4.68228 15.7775 5.37997 15.6902C6.80067 15.5125 8.39512 15.0456 9.47005 13.9707L10.5307 15.0314C9.10565 16.4564 7.11029 16.9855 5.56617 17.1786C4.98621 17.2512 4.45262 17.2785 4.01014 17.2841C4.28765 17.754 4.59598 18.1833 4.93354 18.5751C6.37067 20.2431 8.27016 21.1522 10.3578 21.661L10.7309 21.752C10.7309 21.752 11.9531 20.7319 12.8999 19.2628Z" fill="#141B34"/>
<path d="M9 7.50195C9 8.33038 8.32843 9.00195 7.5 9.00195C6.67157 9.00195 6 8.33038 6 7.50195C6 6.67353 6.67157 6.00195 7.5 6.00195C8.32843 6.00195 9 6.67353 9 7.50195Z" fill="#141B34"/>
<path fill-rule="evenodd" clip-rule="evenodd" d="M11 3.00195C11.5523 3.00195 12 3.42835 12 3.95433V4.04957C12 4.57556 11.5523 5.00195 11 5.00195C10.4477 5.00195 10 4.57556 10 4.04957V3.95433C10 3.42835 10.4477 3.00195 11 3.00195Z" fill="#141B34"/>
</svg>
