<svg width="24" height="24" viewBox="0 0 24 24" fill="none" xmlns="http://www.w3.org/2000/svg">
<path fill-rule="evenodd" clip-rule="evenodd" d="M11.0011 15.75V13.25H13.0011V15.75H11.0011ZM8 18.75V16.25H10V18.75H8ZM14 18.75V16.25H16V18.75H14ZM5.5 21.75V19.25H7.5V21.75H5.5ZM11 21.75V19.25H13V21.75H11ZM16.5 21.75V19.25H18.5V21.75H16.5Z" fill="#141B34"/>
<path d="M5.853 7.36454C3.22664 7.89643 1.25 10.217 1.25 13C1.25 14.9733 2.24404 16.7145 3.75869 17.75H6.5V14.75H9.50107V11.75H14.5011V14.75H17.5V17.75H20.5828C21.8961 16.7958 22.75 15.2476 22.75 13.5C22.75 10.8541 20.7927 8.66534 18.2469 8.30273C18.1428 4.94224 15.3858 2.25 12 2.25C8.93585 2.25 6.38731 4.45456 5.853 7.36454Z" fill="#141B34"/>
</svg>
