<svg width="24" height="24" viewBox="0 0 24 24" fill="none" xmlns="http://www.w3.org/2000/svg">
<path fill-rule="evenodd" clip-rule="evenodd" d="M2.0002 8.25C1.7992 8.25 1.6066 8.33068 1.46562 8.47395C1.32464 8.61722 1.24706 8.81108 1.2503 9.01206C1.32361 13.5708 1.80887 18.2421 5.44035 21.5541C5.57851 21.6801 5.75875 21.75 5.94574 21.75H14.0547C14.2416 21.75 14.4219 21.6801 14.5601 21.5541C15.8031 20.4205 16.6775 19.1275 17.2929 17.7343C17.4524 17.7202 17.6704 17.6932 17.9281 17.6417C18.4564 17.536 19.168 17.3237 19.8857 16.8931C21.3695 16.0028 22.7498 14.2541 22.7498 11C22.7498 10.5858 22.414 10.25 21.9998 10.25H18.7181C18.7335 9.83716 18.7435 9.42415 18.7501 9.01206C18.7533 8.81108 18.6758 8.61722 18.5348 8.47395C18.3938 8.33068 18.2012 8.25 18.0002 8.25H2.0002ZM18.6347 11.75H21.2199C21.0358 13.9802 20.0326 15.0557 19.1139 15.6069C18.685 15.8642 18.2522 16.0198 17.8861 16.1134C18.3033 14.7132 18.5207 13.2414 18.6347 11.75Z" fill="#141B34"/>
<path fill-rule="evenodd" clip-rule="evenodd" d="M9.74687 3.98564C10.0249 3.2397 10.4102 2.59736 10.8308 2.25L11.7859 3.40658C11.6599 3.5107 11.3914 3.86836 11.1524 4.50955C10.9237 5.12297 10.7509 5.92155 10.7509 6.82829H9.25091C9.25091 5.73504 9.45846 4.75935 9.74687 3.98564ZM13.1125 4.85801C13.179 4.6958 13.3016 4.43255 13.5226 4.25L14.4778 5.40658C14.5221 5.36997 14.5408 5.34151 14.5409 5.34157C14.541 5.34162 14.5258 5.36493 14.5006 5.42653C14.4607 5.52412 14.4173 5.6638 14.3773 5.83423C14.2966 6.17841 14.249 6.56366 14.249 6.82829H12.749C12.749 6.42625 12.8154 5.92437 12.9169 5.49166C12.9681 5.27364 13.0329 5.05243 13.1125 4.85801ZM6.95639 4.35699C6.95662 4.35671 6.95685 4.35643 7.53981 4.82829C8.12277 5.30015 8.123 5.29988 8.12322 5.2996L8.12365 5.29907L8.12448 5.29804L8.12599 5.29614L8.12846 5.29303L8.13121 5.28947C8.13211 5.28829 8.13118 5.28947 8.12867 5.29302C8.12364 5.30011 8.11232 5.31661 8.09661 5.34249C8.06519 5.39425 8.01636 5.4833 7.96523 5.60965C7.86363 5.86069 7.7502 6.26544 7.7502 6.82829H6.2502C6.2502 6.05781 6.40657 5.46255 6.57478 5.04693C6.65855 4.83994 6.74463 4.679 6.81438 4.56409C6.84926 4.50664 6.8801 4.46063 6.90458 4.42607C6.91682 4.40878 6.92749 4.39433 6.93629 4.38273L6.94807 4.36746L6.95284 4.36141L6.95494 4.35879L6.95592 4.35758L6.95639 4.35699Z" fill="#141B34"/>
</svg>
