<svg width="24" height="24" viewBox="0 0 24 24" fill="none" xmlns="http://www.w3.org/2000/svg">
<path d="M13.47 6.4693C13.6109 6.32862 13.802 6.24972 14.001 6.25L21.001 6.25977C21.4149 6.26034 21.75 6.59596 21.75 7.00977V22C21.75 22.4142 21.4142 22.75 21 22.75H14C13.8011 22.75 13.6103 22.671 13.4697 22.5303C13.329 22.3897 13.25 22.1989 13.25 22V7C13.25 6.80091 13.3292 6.60998 13.47 6.4693Z" fill="#141B34"/>
<path d="M2.47004 6.4693C2.61092 6.32862 2.80195 6.24972 3.00105 6.25L10.001 6.25977C10.4149 6.26034 10.75 6.59596 10.75 7.00977V22C10.75 22.4142 10.4142 22.75 10 22.75H3C2.80109 22.75 2.61032 22.671 2.46967 22.5303C2.32902 22.3897 2.25 22.1989 2.25 22V7C2.25 6.80091 2.32916 6.60998 2.47004 6.4693Z" fill="#141B34"/>
<path fill-rule="evenodd" clip-rule="evenodd" d="M11.9996 3.21651L9.63974 1.25L8.35938 2.78644L11.9996 5.81993L15.6397 2.78644L14.3594 1.25L11.9996 3.21651Z" fill="#141B34"/>
</svg>
