<svg width="24" height="24" viewBox="0 0 24 24" fill="none" xmlns="http://www.w3.org/2000/svg">
<path fill-rule="evenodd" clip-rule="evenodd" d="M2.25 3C2.25 2.58579 2.58579 2.25 3 2.25H21C21.4142 2.25 21.75 2.58579 21.75 3V8.25H2.25V3ZM8 4.25H6V6.25H8V4.25ZM10 4.25H12V6.25H10V4.25Z" fill="#141B34"/>
<path fill-rule="evenodd" clip-rule="evenodd" d="M21.75 9.75V21C21.75 21.1989 21.671 21.3897 21.5303 21.5303C21.3897 21.671 21.1989 21.75 21 21.75L3 21.75C2.58579 21.75 2.25 21.4142 2.25 21V9.75H21.75ZM14.4688 14.2804L15.9384 15.7501L14.4688 17.2197L15.5294 18.2804L18.0597 15.7501L15.5294 13.2197L14.4688 14.2804ZM8.46978 13.2197L9.53044 14.2804L8.06077 15.7501L9.53044 17.2197L8.46978 18.2804L5.93945 15.7501L8.46978 13.2197ZM12.2891 12.5127L10.2891 18.5127L11.7121 18.987L13.7121 12.987L12.2891 12.5127Z" fill="#141B34"/>
</svg>
