<svg width="24" height="24" viewBox="0 0 24 24" fill="none" xmlns="http://www.w3.org/2000/svg">
<path fill-rule="evenodd" clip-rule="evenodd" d="M8 8H16V16H8V8ZM10 10V14H14V10H10Z" fill="#141B34"/>
<path fill-rule="evenodd" clip-rule="evenodd" d="M14 14H18C20.2091 14 22 15.7909 22 18C22 20.2091 20.2091 22 18 22C15.7909 22 14 20.2091 14 18V14ZM16 16V18C16 19.1046 16.8954 20 18 20C19.1046 20 20 19.1046 20 18C20 16.8954 19.1046 16 18 16H16Z" fill="#141B34"/>
<path fill-rule="evenodd" clip-rule="evenodd" d="M6 16.002C4.89543 16.002 4 16.8974 4 18.002C4 19.1065 4.89543 20.002 6 20.002C7.10457 20.002 8 19.1065 8 18.002V16.002H6ZM2 18.002C2 15.7928 3.79086 14.002 6 14.002H10V18.002C10 20.2111 8.20914 22.002 6 22.002C3.79086 22.002 2 20.2111 2 18.002Z" fill="#141B34"/>
<path fill-rule="evenodd" clip-rule="evenodd" d="M14 6C14 3.79086 15.7909 2 18 2C20.2091 2 22 3.79086 22 6C22 8.20914 20.2091 10 18 10H14L14 6ZM18 4C16.8954 4 16 4.89543 16 6L16 8H18C19.1046 8 20 7.10457 20 6C20 4.89543 19.1046 4 18 4Z" fill="#141B34"/>
<path fill-rule="evenodd" clip-rule="evenodd" d="M2 6C2 3.79086 3.79086 2 6 2C8.20914 2 10 3.79086 10 6V10H6C3.79086 10 2 8.20914 2 6ZM6 4C4.89543 4 4 4.89543 4 6C4 7.10457 4.89543 8 6 8H8V6C8 4.89543 7.10457 4 6 4Z" fill="#141B34"/>
</svg>
