<svg width="24" height="24" viewBox="0 0 24 24" fill="none" xmlns="http://www.w3.org/2000/svg">
<path fill-rule="evenodd" clip-rule="evenodd" d="M1.25 2.72059C1.25 2.18455 1.68754 1.75 2.22727 1.75H21.7727C22.3125 1.75 22.75 2.18455 22.75 2.72059V17.2794C22.75 17.8155 22.3125 18.25 21.7727 18.25H2.22727C1.68754 18.25 1.25 17.8155 1.25 17.2794V2.72059ZM3.20455 3.69118V16.3088H20.7955V3.69118H3.20455Z" fill="#141B34"/>
<path d="M10 20.25H7V22.25H17V20.25H14V17.5H10V20.25Z" fill="#141B34"/>
<path d="M9.25 8.00012C9.25 6.48134 10.4812 5.25012 12 5.25012C13.5188 5.25012 14.75 6.48134 14.75 8.00012C14.75 9.51891 13.5188 10.7501 12 10.7501C10.4812 10.7501 9.25 9.51891 9.25 8.00012Z" fill="#141B34"/>
<path d="M7.38799 13.5666C9.50904 10.5723 14.4231 10.3818 16.6181 13.5753C16.7758 13.8048 16.7934 14.1028 16.6637 14.3493C16.5341 14.5958 16.2785 14.7501 16 14.7501H8C7.71959 14.7501 7.4626 14.5937 7.3338 14.3446C7.205 14.0955 7.22591 13.7954 7.38799 13.5666Z" fill="#141B34"/>
</svg>
