<svg width="24" height="24" viewBox="0 0 24 24" fill="none" xmlns="http://www.w3.org/2000/svg">
<path fill-rule="evenodd" clip-rule="evenodd" d="M11.9993 1.24994C11.6534 1.24994 11.3337 1.434 11.16 1.7331L2.63188 16.6289C2.39219 17.0441 2.25 17.5038 2.25 17.9999C2.25 18.7963 2.61625 19.4984 3.16397 20.074C3.70801 20.6456 4.45981 21.1263 5.33143 21.5137C7.07658 22.2893 9.4349 22.7499 12 22.7499C14.5651 22.7499 16.9234 22.2893 18.6686 21.5137C19.5402 21.1263 20.292 20.6456 20.836 20.074C21.3838 19.4984 21.75 18.7963 21.75 17.9999C21.75 17.4828 21.5955 17.0053 21.3372 16.5765L12.8385 1.7331C12.6649 1.434 12.3451 1.24994 11.9993 1.24994ZM17.6882 14.1057C16.0833 13.5624 14.1113 13.2501 11.9992 13.2501C9.89231 13.2501 7.92494 13.5608 6.32227 14.1016L11.9985 4.15326L17.6882 14.1057Z" fill="#141B34"/>
</svg>
