<svg width="24" height="24" viewBox="0 0 24 24" fill="none" xmlns="http://www.w3.org/2000/svg">
<path d="M9.25 12C9.25 10.4812 10.4812 9.25 12 9.25C13.5188 9.25 14.75 10.4812 14.75 12C14.75 13.5188 13.5188 14.75 12 14.75C10.4812 14.75 9.25 13.5188 9.25 12Z" fill="#141B34"/>
<path d="M17.25 16C17.25 14.4812 18.4812 13.25 20 13.25C21.5188 13.25 22.75 14.4812 22.75 16C22.75 17.5188 21.5188 18.75 20 18.75C18.4812 18.75 17.25 17.5188 17.25 16Z" fill="#141B34"/>
<path d="M8.25 20C8.25 18.4812 9.48122 17.25 11 17.25C12.5188 17.25 13.75 18.4812 13.75 20C13.75 21.5188 12.5188 22.75 11 22.75C9.48122 22.75 8.25 21.5188 8.25 20Z" fill="#141B34"/>
<path d="M12.25 4C12.25 2.48122 13.4812 1.25 15 1.25C16.5188 1.25 17.75 2.48122 17.75 4C17.75 5.51878 16.5188 6.75 15 6.75C13.4812 6.75 12.25 5.51878 12.25 4Z" fill="#141B34"/>
<path d="M1.25 8C1.25 6.48122 2.48122 5.25 4 5.25C5.51878 5.25 6.75 6.48122 6.75 8C6.75 9.51878 5.51878 10.75 4 10.75C2.48122 10.75 1.25 9.51878 1.25 8Z" fill="#141B34"/>
<path fill-rule="evenodd" clip-rule="evenodd" d="M5.53906 6.3768L12.7789 3.74414L13.4355 5.54989L15.2346 6.22455L13.6395 10.4782L11.7668 9.77597L13.302 5.68202L6.22255 8.25638L5.53906 6.3768ZM17.6582 15.9471L13.3427 13.7893L14.2372 12.0005L18.6587 14.2112L17.7892 15.9501L18.5788 17.7266L13.2349 20.1016L12.4226 18.274L17.6582 15.9471ZM12.7449 14.1091L12.2411 18.1395L10.2565 17.8915L10.7603 13.861L12.7449 14.1091Z" fill="#141B34"/>
</svg>
