<svg width="24" height="24" viewBox="0 0 24 24" fill="none" xmlns="http://www.w3.org/2000/svg">
<path fill-rule="evenodd" clip-rule="evenodd" d="M16.4688 1.46967C16.7616 1.17678 17.2365 1.17678 17.5294 1.46967L22.5294 6.46967C22.6723 6.61256 22.7515 6.80708 22.749 7.00914C22.7466 7.21121 22.6627 7.40374 22.5163 7.5431L12.0163 17.5431C11.8769 17.6759 11.6917 17.75 11.4991 17.75H9.38554L5.03487 22.1007C4.16903 22.9665 2.76522 22.9665 1.89938 22.1007C1.03354 21.2348 1.03354 19.831 1.89938 18.9652L6.24908 14.6155V12C6.24908 11.8011 6.3281 11.6103 6.46875 11.4697L16.4688 1.46967ZM6.96215 16.0237L7.97632 17.0379L6.28741 18.7268L5.27325 17.7126L6.96215 16.0237ZM4.21259 18.7733L2.96004 20.0258C2.67999 20.3059 2.67999 20.76 2.96004 21.04C3.2401 21.3201 3.69415 21.3201 3.97421 21.04L5.22675 19.7875L4.21259 18.7733Z" fill="#141B34"/>
<path d="M21.7482 18.5C21.7482 16.7051 20.2931 15.25 18.4982 15.25C16.7032 15.25 15.2482 16.7051 15.2482 18.5C15.2482 20.2949 16.7032 21.75 18.4982 21.75C20.2931 21.75 21.7482 20.2949 21.7482 18.5Z" fill="#141B34"/>
</svg>
