<svg width="24" height="24" viewBox="0 0 24 24" fill="none" xmlns="http://www.w3.org/2000/svg">
<path fill-rule="evenodd" clip-rule="evenodd" d="M6.86496 21.6586C6.90532 21.678 7.04562 21.75 7.04562 21.75H15.0645L14.0308 13.459L22.5 9.68048L21.8928 8.30958L21.6097 8.43561C20.0005 4.76173 16.2852 2.25 11.9796 2.25C6.20618 2.25 1.5 6.85259 1.5 12.5619C1.5 15.7397 2.96138 18.5788 5.25023 20.4672C5.93086 21.0287 6.33096 21.3253 6.57137 21.4853C6.69083 21.5648 6.78527 21.6203 6.86496 21.6586ZM10.2419 18.5C11.0645 18.5 11.7313 17.8284 11.7313 17C11.7313 16.1716 11.0645 15.5 10.2419 15.5H10.2285C9.40591 15.5 8.73906 16.1716 8.73906 17C8.73906 17.8284 9.4059 18.5 10.2285 18.5H10.2419Z" fill="#141B34"/>
<path fill-rule="evenodd" clip-rule="evenodd" d="M15.4733 12.1236L16.949 11.877L17.5768 15.6532L22.1156 15.1662L22.2748 16.6577L21.448 16.7464V20.2503H22.1956V21.7503H17.0736L16.3108 17.1616L12.6895 13.5309L13.7474 12.4702L15.8876 14.616L15.4733 12.1236ZM19.9519 20.2503L19.9519 16.9069L17.8232 17.1353L18.341 20.2503H19.9519Z" fill="#141B34"/>
</svg>
