<svg width="24" height="24" viewBox="0 0 24 24" fill="none" xmlns="http://www.w3.org/2000/svg">
<path d="M11.25 1.25006H12C14.3817 1.25006 16.354 3.00296 16.6971 5.28904C17.6796 5.40053 18.5905 5.75141 19.3065 6.34376C20.2037 7.08605 20.75 8.17347 20.75 9.50006C20.75 11.5292 18.7963 13.2057 16.1471 13.7355C15.4578 13.8295 13.3466 14.1188 12.343 14.2443C10.3607 14.4921 8.05734 14.7501 7 14.7501C5.82262 14.7501 4.86079 14.3488 4.19832 13.6295C3.54516 12.9203 3.25 11.9751 3.25 11.0001C3.25 10.0913 3.57419 9.14239 4.09522 8.38331C4.52774 7.75318 5.14157 7.19102 5.89599 6.92555C6.27673 5.94044 7.00819 5.39056 7.72868 5.04842C8.12544 4.86001 8.53216 4.72765 8.86728 4.61958C9.22693 4.50361 9.4774 4.42284 9.66459 4.32924C10.4682 3.92745 10.8572 3.33755 11.0536 2.84652C11.1534 2.59708 11.2031 2.37281 11.2275 2.21414C11.2396 2.13531 11.2453 2.07423 11.2479 2.03635L11.25 1.25006Z" fill="#141B34"/>
<path d="M5.86354 16.1467L6.85404 22.75H17.1458L18.368 14.6019C17.7498 14.8724 17.0971 15.0752 16.4413 15.2064L16.3957 15.2155L16.1371 15.2508C15.3004 15.365 13.4538 15.6171 12.5291 15.7327C10.5816 15.9761 8.17195 16.2501 7 16.2501C6.61038 16.2501 6.23017 16.2157 5.86354 16.1467Z" fill="#141B34"/>
</svg>
