<svg width="24" height="24" viewBox="0 0 24 24" fill="none" xmlns="http://www.w3.org/2000/svg">
<path fill-rule="evenodd" clip-rule="evenodd" d="M16.6738 2.14864C15.9464 2.31586 15.2875 2.66173 14.7511 3.13842L13.75 2.43267L12.5977 4.06733L13.611 4.78169C13.4364 5.23865 13.3405 5.73355 13.3405 6.25C13.3405 6.76649 13.4364 7.26144 13.6111 7.71844L12.5977 8.43261L13.7499 10.0674L14.7512 9.36167C15.2876 9.83832 15.9464 10.1841 16.6738 10.3514V11.25H18.6738V10.3514C19.4012 10.1841 20.06 9.83832 20.5964 9.36167L21.5977 10.0674L22.7499 8.43261L21.7366 7.71844C21.9113 7.26144 22.0072 6.76649 22.0072 6.25C22.0072 5.73355 21.9113 5.23865 21.7367 4.78169L22.75 4.06733L21.5977 2.43267L20.5965 3.13842C20.0601 2.66173 19.4013 2.31586 18.6738 2.14864V1.25H16.6738V2.14864ZM17.6738 4.03571C16.849 4.03571 16.1352 4.43984 15.7221 5.03631C15.4794 5.3866 15.3405 5.80259 15.3405 6.25C15.3405 6.69747 15.4794 7.11351 15.7221 7.46382C16.1353 8.06022 16.849 8.46428 17.6738 8.46428C18.4986 8.46428 19.2123 8.06022 19.6255 7.46382C19.8682 7.11351 20.0072 6.69747 20.0072 6.25C20.0072 5.80259 19.8683 5.3866 19.6256 5.03631C19.2124 4.43984 18.4987 4.03571 17.6738 4.03571Z" fill="#141B34"/>
<path d="M1.25 2C1.25 1.58579 1.58579 1.25 2 1.25H10C10.4142 1.25 10.75 1.58579 10.75 2V10C10.75 10.4142 10.4142 10.75 10 10.75H2C1.58579 10.75 1.25 10.4142 1.25 10V2Z" fill="#141B34"/>
<path d="M1.25 14C1.25 13.5858 1.58579 13.25 2 13.25H10C10.4142 13.25 10.75 13.5858 10.75 14V22C10.75 22.4142 10.4142 22.75 10 22.75H2C1.58579 22.75 1.25 22.4142 1.25 22V14Z" fill="#141B34"/>
<path d="M13.25 14C13.25 13.5858 13.5858 13.25 14 13.25H22C22.4142 13.25 22.75 13.5858 22.75 14V22C22.75 22.4142 22.4142 22.75 22 22.75H14C13.5858 22.75 13.25 22.4142 13.25 22V14Z" fill="#141B34"/>
</svg>
