<svg width="24" height="24" viewBox="0 0 24 24" fill="none" xmlns="http://www.w3.org/2000/svg">
<path fill-rule="evenodd" clip-rule="evenodd" d="M13.3936 15.226C14.5135 13.67 16.5177 12.8875 18.4794 13.413C19.7762 13.7604 20.8041 14.6136 21.4059 15.7008L19.7438 16.6209C19.3815 15.9664 18.7662 15.4566 17.9878 15.2481C16.4673 14.8408 14.9048 15.743 14.4975 17.2626C14.4041 17.6111 14.1214 17.8766 13.7677 17.9478C13.414 18.0191 13.0504 17.8839 12.8293 17.5987L11.75 16.2068L13.2513 15.0426L13.3936 15.226ZM20.7324 18.0519C20.3788 18.1232 20.0962 18.3887 20.0028 18.7371C19.5955 20.2567 18.033 21.1588 16.5125 20.7515C15.7521 20.5478 15.1475 20.0568 14.7822 19.4241L13.137 20.3742C13.7441 21.4254 14.7544 22.2473 16.021 22.5866C17.983 23.1122 19.9876 22.3293 21.1074 20.7727L21.2495 20.9557L22.75 19.7905L21.6706 18.4004C21.4494 18.1155 21.0859 17.9805 20.7324 18.0519Z" fill="#141B34"/>
<path fill-rule="evenodd" clip-rule="evenodd" d="M18.4043 11.8588C16.6467 11.5264 14.8983 11.9714 13.5414 12.9702L12.3429 13.8838C11.5984 13.9592 10.8134 13.9999 10 13.9999C7.37871 13.9999 5.05335 13.5774 3.42144 12.9311C2.6029 12.607 2.00872 12.2463 1.63551 11.8969C1.434 11.7082 1.31585 11.5424 1.25 11.4011V4.99994C1.25 4.24723 1.67534 3.64238 2.18846 3.20369C2.70271 2.76404 3.39138 2.41094 4.15891 2.13339C5.70115 1.57571 7.76651 1.24994 10 1.24994C12.2335 1.24994 14.2988 1.57571 15.8411 2.13339C16.6086 2.41094 17.2973 2.76404 17.8115 3.20369C18.3247 3.64238 18.75 4.24723 18.75 4.99994V11.4011C18.6886 11.5328 18.5818 11.6859 18.4043 11.8588ZM3.47842 4.60668C3.20438 4.84096 3.19444 4.976 3.19444 4.99994C3.19444 5.02388 3.20438 5.15892 3.47842 5.3932C3.75132 5.62651 4.20168 5.87945 4.84165 6.11087C6.11441 6.57111 7.93794 6.87494 10 6.87494C12.0621 6.87494 13.8856 6.57111 15.1583 6.11087C15.7983 5.87945 16.2487 5.62651 16.5216 5.3932C16.7956 5.15892 16.8056 5.02388 16.8056 4.99994C16.8056 4.976 16.7956 4.84096 16.5216 4.60668C16.2487 4.37337 15.7983 4.12043 15.1583 3.88901C13.8856 3.42877 12.0621 3.12494 10 3.12494C7.93794 3.12494 6.11441 3.42877 4.84165 3.88901C4.20168 4.12043 3.75132 4.37337 3.47842 4.60668ZM6.16016 9.49994C7.01886 9.68621 7.95773 9.81341 9.00195 9.86224V11.3622C8.00598 11.3157 7.02409 11.2005 6.16016 11.0314V9.49994Z" fill="#141B34"/>
<path fill-rule="evenodd" clip-rule="evenodd" d="M12.9603 22.5458C12.0339 22.6785 11.0358 22.7499 10 22.7499C7.72474 22.7499 5.63146 22.4054 4.0798 21.8235C3.30674 21.5336 2.62904 21.1703 2.13112 20.7289C1.63408 20.2882 1.25 19.7057 1.25 18.9999V14.1071C1.67361 14.3596 2.14385 14.5848 2.64539 14.7834C4.50797 15.5209 6.98913 15.9663 9.68893 15.9981L11.643 18.5182C11.8318 18.7616 12.0608 18.9626 12.3158 19.116L11.087 19.8256L11.8371 21.1246C12.1389 21.6471 12.5168 22.127 12.9603 22.5458ZM9 18.3622C7.95578 18.3134 7.0169 18.1862 6.1582 17.9999V19.5314C7.02214 19.7005 8.00402 19.8157 9 19.8622V18.3622Z" fill="#141B34"/>
</svg>
