<svg width="24" height="24" viewBox="0 0 24 24" fill="none" xmlns="http://www.w3.org/2000/svg">
<path d="M20.1915 4.0814C18.4298 1.88121 14.7694 1.43283 12.1611 4.01743C12.1069 4.0712 12.0532 4.1233 12 4.17378C11.9468 4.1233 11.8931 4.0712 11.8389 4.01743C9.23058 1.43283 5.57023 1.88121 3.80854 4.0814L3.78913 4.10563C3.53175 4.42686 3.13543 4.92148 2.81357 5.65052C2.48169 6.40224 2.24026 7.37372 2.2503 8.65371C2.27022 11.1931 3.2793 14.9291 6.48922 20.6084C6.89514 21.3266 7.67976 21.7499 8.49601 21.7499C9.80785 21.7499 10.8386 20.704 10.8818 19.4659C10.9123 18.5927 11.012 17.7347 11.244 17.1171C11.4764 16.4983 11.7349 16.3533 12 16.3533C12.2651 16.3533 12.5236 16.4983 12.756 17.1171C12.988 17.7347 13.0877 18.5927 13.1182 19.4659C13.1614 20.704 14.1921 21.7499 15.504 21.7499C16.3202 21.7499 17.1049 21.3266 17.5108 20.6084C20.7207 14.9291 21.7298 11.1931 21.7497 8.65371C21.7597 7.37372 21.5183 6.40224 21.1864 5.65052C20.8646 4.92148 20.4683 4.42687 20.2109 4.10563L20.1915 4.0814Z" fill="#141B34"/>
</svg>
