<svg width="24" height="24" viewBox="0 0 24 24" fill="none" xmlns="http://www.w3.org/2000/svg">
<path fill-rule="evenodd" clip-rule="evenodd" d="M1.75 10C1.75 12.868 3.14832 15.4102 5.30085 17.0037V22C5.30085 22.4142 5.6368 22.75 6.05122 22.75H15.5068C15.9212 22.75 16.2571 22.4142 16.2571 22V20.7499H16.2623L16.2682 20.7499C18.046 20.7358 19.585 19.5006 19.9515 17.7671L20.4175 15.4706L21.8893 14.5765C22.0673 14.4684 22.1923 14.2912 22.2345 14.0873C22.2766 13.8835 22.2321 13.6713 22.1115 13.5015L19.4554 9.7609V9.33353C19.4554 9.31267 19.4546 9.29182 19.4528 9.27103C19.0763 4.77057 15.2561 1.25 10.6166 1.25C5.72961 1.25 1.75 5.15769 1.75 10ZM13.4688 8.53039L14.9384 10.0001L13.4688 11.4697L14.5294 12.5304L17.0597 10.0001L14.5294 7.46973L13.4688 8.53039ZM7.46978 7.46973L8.53044 8.53039L7.06077 10.0001L8.53044 11.4697L7.46978 12.5304L4.93945 10.0001L7.46978 7.46973ZM11.2891 6.7627L9.28906 12.7627L10.7121 13.237L12.7121 7.23704L11.2891 6.7627Z" fill="#141B34"/>
</svg>
