<svg width="24" height="24" viewBox="0 0 24 24" fill="none" xmlns="http://www.w3.org/2000/svg">
<path d="M1.25 2C1.25 1.58579 1.58579 1.25 2 1.25H6C6.41421 1.25 6.75 1.58579 6.75 2V6C6.75 6.41421 6.41421 6.75 6 6.75H2C1.58579 6.75 1.25 6.41421 1.25 6V2Z" fill="#141B34"/>
<path d="M9.25 2C9.25 1.58579 9.58579 1.25 10 1.25H14C14.4142 1.25 14.75 1.58579 14.75 2V6C14.75 6.41421 14.4142 6.75 14 6.75H10C9.58579 6.75 9.25 6.41421 9.25 6V2Z" fill="#141B34"/>
<path d="M17.25 2C17.25 1.58579 17.5858 1.25 18 1.25H22C22.4142 1.25 22.75 1.58579 22.75 2V6C22.75 6.41421 22.4142 6.75 22 6.75H18C17.5858 6.75 17.25 6.41421 17.25 6V2Z" fill="#141B34"/>
<path d="M1.25 10C1.25 9.58579 1.58579 9.25 2 9.25H6C6.41421 9.25 6.75 9.58579 6.75 10V14C6.75 14.4142 6.41421 14.75 6 14.75H2C1.58579 14.75 1.25 14.4142 1.25 14V10Z" fill="#141B34"/>
<path d="M9.25 10C9.25 9.58579 9.58579 9.25 10 9.25H14C14.4142 9.25 14.75 9.58579 14.75 10V14C14.75 14.4142 14.4142 14.75 14 14.75H10C9.58579 14.75 9.25 14.4142 9.25 14V10Z" fill="#141B34"/>
<path d="M17.25 10C17.25 9.58579 17.5858 9.25 18 9.25H22C22.4142 9.25 22.75 9.58579 22.75 10V14C22.75 14.4142 22.4142 14.75 22 14.75H18C17.5858 14.75 17.25 14.4142 17.25 14V10Z" fill="#141B34"/>
<path d="M1.25 18C1.25 17.5858 1.58579 17.25 2 17.25H6C6.41421 17.25 6.75 17.5858 6.75 18V22C6.75 22.4142 6.41421 22.75 6 22.75H2C1.58579 22.75 1.25 22.4142 1.25 22V18Z" fill="#141B34"/>
<path d="M9.25 18C9.25 17.5858 9.58579 17.25 10 17.25H14C14.4142 17.25 14.75 17.5858 14.75 18V22C14.75 22.4142 14.4142 22.75 14 22.75H10C9.58579 22.75 9.25 22.4142 9.25 22V18Z" fill="#141B34"/>
<path d="M17.25 18C17.25 17.5858 17.5858 17.25 18 17.25H22C22.4142 17.25 22.75 17.5858 22.75 18V22C22.75 22.4142 22.4142 22.75 22 22.75H18C17.5858 22.75 17.25 22.4142 17.25 22V18Z" fill="#141B34"/>
</svg>
