<svg width="24" height="24" viewBox="0 0 24 24" fill="none" xmlns="http://www.w3.org/2000/svg">
<path d="M9.58422 7.74996L9.76367 8.6472C9.83379 8.99777 10.1416 9.25011 10.4991 9.25011H13.4991C13.8566 9.25011 14.1644 8.99777 14.2345 8.6472L14.414 7.74996H18.9644L20.3394 5H22V3H2V5H3.66239L5.03737 7.74996H9.58422Z" fill="#141B34"/>
<path d="M8.5 17C8.23478 17 7.98043 17.1054 7.79289 17.2929L6.08579 19H4V21H6.5C6.76522 21 7.01957 20.8946 7.20711 20.7071L8.91421 19H15.0858L16.7929 20.7071C16.9804 20.8946 17.2348 21 17.5 21H20V19H17.9142L16.2071 17.2929C16.0196 17.1054 15.7652 17 15.5 17H14.4502L14.2345 16.3529C14.1644 16.0023 13.8566 15.75 13.4991 15.75H10.4991C10.1416 15.75 9.83379 16.0023 9.76367 16.3529L9.54798 17H8.5Z" fill="#141B34"/>
<path fill-rule="evenodd" clip-rule="evenodd" d="M13 8.5L13 16.5L11 16.5L11 8.5L13 8.5Z" fill="#141B34"/>
</svg>
