<svg width="24" height="24" viewBox="0 0 24 24" fill="none" xmlns="http://www.w3.org/2000/svg">
<path fill-rule="evenodd" clip-rule="evenodd" d="M22 15L2 15V13L22 13V15Z" fill="#141B34"/>
<path fill-rule="evenodd" clip-rule="evenodd" d="M22 4L2 4V2L22 2V4Z" fill="#141B34"/>
<path d="M16.0039 10.5C16.0039 10.7761 15.78 11 15.5039 11L8.50391 11C8.22776 11 8.00391 10.7761 8.00391 10.5L8.00391 6.5C8.00391 6.22386 8.22776 6 8.50391 6L15.5039 6C15.78 6 16.0039 6.22386 16.0039 6.5V10.5Z" fill="#141B34"/>
<path d="M19 21.5C19 21.7761 18.7761 22 18.5 22L5.5 22C5.22386 22 5 21.7761 5 21.5L5 17.5C5 17.2239 5.22386 17 5.5 17L18.5 17C18.7761 17 19 17.2239 19 17.5V21.5Z" fill="#141B34"/>
</svg>
