<svg width="24" height="24" viewBox="0 0 24 24" fill="none" xmlns="http://www.w3.org/2000/svg">
<path fill-rule="evenodd" clip-rule="evenodd" d="M22 18L19 18L19 16L22 16L22 18ZM2 16L5 16L5 18L2 18L2 16Z" fill="#141B34"/>
<path d="M7.47162 3.96967C7.61228 3.82902 7.80304 3.75 8.00195 3.75H16.002C16.4162 3.75 16.752 4.08579 16.752 4.5V9.5C16.752 9.91421 16.4162 10.25 16.002 10.25H8.00195C7.58774 10.25 7.25195 9.91421 7.25195 9.5V4.5C7.25195 4.30109 7.33097 4.11032 7.47162 3.96967Z" fill="#141B34"/>
<path d="M4.25195 14.5C4.25195 14.0858 4.58774 13.75 5.00195 13.75H19.002C19.4162 13.75 19.752 14.0858 19.752 14.5V19.5C19.752 19.9142 19.4162 20.25 19.002 20.25H5.00195C4.58774 20.25 4.25195 19.9142 4.25195 19.5V14.5Z" fill="#141B34"/>
<path fill-rule="evenodd" clip-rule="evenodd" d="M22 8L16 8L16 6L22 6L22 8ZM2 6L8 6L8 8L2 8L2 6Z" fill="#141B34"/>
</svg>
