<svg width="24" height="24" viewBox="0 0 24 24" fill="none" xmlns="http://www.w3.org/2000/svg">
<path fill-rule="evenodd" clip-rule="evenodd" d="M19.7471 12.75V22C19.7471 22.4142 19.4113 22.75 18.9971 22.75H4.99707C4.58286 22.75 4.24707 22.4142 4.24707 22L4.24707 12.75L19.7471 12.75ZM8.49316 15.75H10.5021L10.5021 17.75H8.49316L8.49316 15.75ZM13.492 17.75H15.501V19.75H13.492V17.75Z" fill="#141B34"/>
<path fill-rule="evenodd" clip-rule="evenodd" d="M4.99707 1.25C4.58286 1.25 4.24707 1.58579 4.24707 2L4.24707 11.25L19.7471 11.25V2C19.7471 1.58579 19.4113 1.25 18.9971 1.25L4.99707 1.25ZM10.9881 7.25L12.9971 7.25V5.25L10.9881 5.25V7.25Z" fill="#141B34"/>
</svg>
