<svg width="24" height="24" viewBox="0 0 24 24" fill="none" xmlns="http://www.w3.org/2000/svg">
<path fill-rule="evenodd" clip-rule="evenodd" d="M10 1.25C11.0622 1.25 11.9837 1.85218 12.4418 2.73376C12.8847 2.42864 13.4215 2.25 14 2.25H16.75V4C16.75 5.51878 15.5188 6.75 14 6.75H12.75V8.25H12.7508H14.25H15.25V9.75H14.25V11.707C16.3068 12.5825 17.75 14.6218 17.75 16.9999C17.75 20.1755 15.1756 22.7499 12 22.7499C8.82436 22.7499 6.25 20.1755 6.25 16.9999C6.25 14.6218 7.69316 12.5825 9.75 11.707V9.75H8.75V8.25H9.75H11.25V5.75H10C8.48122 5.75 7.25 4.51878 7.25 3V1.25H10ZM11.2508 9.75V12.7793L10.7256 12.9443C9.31293 13.388 8.21897 14.5494 7.86914 16H16.1325C15.7827 14.5494 14.6887 13.388 13.2761 12.9443L12.7508 12.7793V9.75H12.75H11.2508Z" fill="#141B34"/>
</svg>
