<svg width="24" height="24" viewBox="0 0 24 24" fill="none" xmlns="http://www.w3.org/2000/svg">
<path d="M16.5303 6.96967C16.2374 6.67678 15.7626 6.67678 15.4697 6.96967L11.7492 10.6901L18.3102 17.2504L22.0303 13.5303C22.3232 13.2374 22.3232 12.7626 22.0303 12.4697L16.5303 6.96967Z" fill="#141B34"/>
<path d="M17.2496 18.3111L10.6886 11.7508L5.46967 16.9697C5.17678 17.2626 5.17678 17.7374 5.46967 18.0303L9.68934 22.25H13.3107L17.2496 18.3111Z" fill="#141B34"/>
<path fill-rule="evenodd" clip-rule="evenodd" d="M4.9449 1.75H6.934L10.1288 9.20456L8.75009 9.79544L7.87347 7.75H4.00543L3.12881 9.79544L1.75009 9.20456L4.9449 1.75ZM4.64828 6.25H7.23062L5.9449 3.25H5.934L4.64828 6.25Z" fill="#141B34"/>
</svg>
