<svg width="24" height="24" viewBox="0 0 24 24" fill="none" xmlns="http://www.w3.org/2000/svg">
<path fill-rule="evenodd" clip-rule="evenodd" d="M1.75 21.2738C1.75 21.8129 2.18706 22.25 2.72619 22.25H21.2738C21.8129 22.25 22.25 21.8129 22.25 21.2738V2.72619C22.25 2.18706 21.8129 1.75 21.2738 1.75L2.72619 1.75C2.18706 1.75 1.75 2.18706 1.75 2.72619L1.75 21.2738ZM16 20.2969H8L8 13L16 13L16 20.2969ZM16 11V3.70164L8 3.70164L8 11L16 11ZM3.70215 17H6V15L3.70215 15V17ZM3.70215 7L6 7L6 9L3.70215 9V7ZM18 17H20.2976V15H18V17ZM18 9H20.2976V7L18 7V9Z" fill="#141B34"/>
</svg>
