<svg width="24" height="24" viewBox="0 0 24 24" fill="none" xmlns="http://www.w3.org/2000/svg">
<path fill-rule="evenodd" clip-rule="evenodd" d="M13.25 7H14.75V8.07683L14.8898 7.96879C15.6059 7.42486 16.4985 7.10119 17.4646 7.10119C19.8391 7.10119 21.75 9.04508 21.75 11.4256C21.75 13.8061 19.8391 15.75 17.4646 15.75C15.3844 15.75 13.6601 14.2575 13.2647 12.2881L14.7353 11.9928C14.9951 13.2865 16.1241 14.25 17.4646 14.25C18.9952 14.25 20.25 12.9933 20.25 11.4256C20.25 9.85794 18.9952 8.60119 17.4646 8.60119C16.84 8.60119 16.2646 8.80899 15.7994 9.16153L14.929 9.83438H13.25V7Z" fill="#141B34"/>
<path d="M3 2.25C2.80106 2.25 2.61027 2.32904 2.46961 2.46973C2.32896 2.61041 2.24996 2.80122 2.25 3.00016L2.25094 7.35131L8.28792 12.3829L9.25459 21.0828C9.28167 21.3265 9.42618 21.5416 9.64159 21.6588C9.85699 21.776 10.1161 21.7805 10.3354 21.6708L14.6869 19.4951L15.0812 16.735C13.7818 16.1427 12.7435 15.0818 12.17 13.7745C11.8357 13.0123 11.7914 12.1643 11.7862 11.3321L11.75 5.5L17.4646 5.60119C19.127 5.60119 20.6152 6.30299 21.6659 7.4214L21.75 7.35128V3C21.75 2.58579 21.4142 2.25 21 2.25H3Z" fill="#141B34"/>
</svg>
