<svg width="24" height="24" viewBox="0 0 24 24" fill="none" xmlns="http://www.w3.org/2000/svg">
<path fill-rule="evenodd" clip-rule="evenodd" d="M16.5166 4.041L15.9059 3.46856L13.9894 5.98721L10.65 1.75159L10.0641 2.16444C8.22624 3.45945 6.53349 5.28541 5.29695 7.28825C4.06404 9.28522 3.25 11.5152 3.25 13.6197C3.25 18.387 7.16751 22.2516 12 22.2516C16.8325 22.2516 20.75 18.387 20.75 13.6197C20.75 10.4967 19.0575 6.42273 16.5166 4.041ZM16.1726 11.5195L15.7497 10.6929L13.6245 12.4139L10.5812 8.50159L9.96967 9.09108C9.46387 9.57864 8.79221 10.252 8.2474 11.0546C7.70325 11.8563 7.25 12.8383 7.25 13.941C7.25 16.6535 9.29604 19.0016 12 19.0016C14.704 19.0016 16.75 16.6535 16.75 13.941C16.75 13.0677 16.5422 12.2417 16.1726 11.5195Z" fill="#141B34"/>
</svg>
