<svg width="24" height="24" viewBox="0 0 24 24" fill="none" xmlns="http://www.w3.org/2000/svg">
<path fill-rule="evenodd" clip-rule="evenodd" d="M13.1749 16.9562C14.7291 16.2465 16.1099 15.0889 17.0931 13.4876C17.3369 13.7743 17.6188 14.0879 17.9192 14.3871C18.2665 14.7328 18.6574 15.0782 19.0589 15.3419C19.4432 15.5942 19.9279 15.8327 20.4443 15.8327H21.7674L21.0815 14.7017C20.6381 13.9706 20.6318 12.9422 20.9045 11.8972C21.1782 10.8484 21.6751 10.0037 21.9619 9.72002L23.25 8.44565H21.4378C20.0034 8.44565 18.8035 9.13296 17.9526 9.84941C17.6095 10.1383 17.3088 10.4439 17.0582 10.7336C13.3082 4.71719 3.9595 5.08294 0.890247 11.8309L0.75 12.1392L0.890247 12.4475C2.15426 15.2265 4.49313 16.9266 7.05831 17.5392L8.00397 19.0913L8.0135 19.1054C8.42039 19.7093 9.09545 20.1081 9.97271 20.3603C10.8504 20.6126 12.0057 20.7404 13.4868 20.7469L14.2352 20.7502V20.002C14.2352 18.9099 13.8506 17.812 13.1749 16.9562ZM5.54926 13.0497C6.09794 13.0497 6.54273 12.602 6.54273 12.0497C6.54273 11.4974 6.09794 11.0497 5.54926 11.0497H5.54034C4.99166 11.0497 4.54688 11.4974 4.54688 12.0497C4.54688 12.602 4.99166 13.0497 5.54034 13.0497H5.54926Z" fill="#141B34"/>
<path d="M14.2355 4.11048V3.2499L13.3834 3.37331L13.3801 3.37383C13.2552 3.39351 12.8924 3.45071 12.6846 3.48693C12.2662 3.55986 11.6993 3.6667 11.1112 3.80173C10.5273 3.93579 9.90245 4.10213 9.376 4.29722C9.1133 4.39457 8.85672 4.50574 8.63518 4.63311C8.42802 4.7522 8.18091 4.92467 8.01379 5.17268L8.00427 5.18681L7.92766 5.31255C9.91098 5.06698 11.9573 5.37185 13.7857 6.2262C14.0795 5.54263 14.2355 4.80245 14.2355 4.11048Z" fill="#141B34"/>
</svg>
