<svg width="24" height="24" viewBox="0 0 24 24" fill="none" xmlns="http://www.w3.org/2000/svg">
<path d="M12 14.25C12.2422 14.25 12.4695 14.367 12.6103 14.5641L17.6103 21.5641C17.7736 21.7927 17.7954 22.0934 17.6669 22.3432C17.5383 22.593 17.2809 22.75 17 22.75H7C6.71906 22.75 6.46168 22.593 6.33313 22.3432C6.20457 22.0934 6.22641 21.7927 6.3897 21.5641L11.3897 14.5641C11.5305 14.367 11.7578 14.25 12 14.25Z" fill="#141B34"/>
<path d="M6.33313 1.65681C6.46168 1.40701 6.71906 1.25 7 1.25H17C17.2809 1.25 17.5383 1.40701 17.6669 1.65681C17.7954 1.90662 17.7736 2.20732 17.6103 2.43593L12.6103 9.43593C12.4695 9.63303 12.2422 9.75 12 9.75C11.7578 9.75 11.5305 9.63303 11.3897 9.43593L6.3897 2.43593C6.22641 2.20732 6.20457 1.90662 6.33313 1.65681Z" fill="#141B34"/>
<path fill-rule="evenodd" clip-rule="evenodd" d="M7 13H3V11H7V13ZM14 13H10V11H14V13ZM21 13H17V11H21V13Z" fill="#141B34"/>
</svg>
