<svg width="24" height="24" viewBox="0 0 24 24" fill="none" xmlns="http://www.w3.org/2000/svg">
<path d="M9.25 2C9.25 1.58579 9.58579 1.25 10 1.25H18C18.4142 1.25 18.75 1.58579 18.75 2V6C18.75 6.41421 18.4142 6.75 18 6.75H10C9.58579 6.75 9.25 6.41421 9.25 6V2Z" fill="#141B34"/>
<path d="M9.25 10C9.25 9.58579 9.58579 9.25 10 9.25H18C18.4142 9.25 18.75 9.58579 18.75 10V14C18.75 14.4142 18.4142 14.75 18 14.75H10C9.58579 14.75 9.25 14.4142 9.25 14V10Z" fill="#141B34"/>
<path d="M9.25 18C9.25 17.5858 9.58579 17.25 10 17.25H18C18.4142 17.25 18.75 17.5858 18.75 18V22C18.75 22.4142 18.4142 22.75 18 22.75H10C9.58579 22.75 9.25 22.4142 9.25 22V18Z" fill="#141B34"/>
<path d="M1.25 20C1.25 18.4812 2.48122 17.25 4 17.25C5.51878 17.25 6.75 18.4812 6.75 20C6.75 21.5188 5.51878 22.75 4 22.75C2.48122 22.75 1.25 21.5188 1.25 20Z" fill="#141B34"/>
<path fill-rule="evenodd" clip-rule="evenodd" d="M13 10V6H15V10H13ZM3 12C3 11.4477 3.44772 11 4 11H10V13H5V18H3V12ZM10 21H6V19H10V21Z" fill="#141B34"/>
<path fill-rule="evenodd" clip-rule="evenodd" d="M21 5H18V3H22C22.5523 3 23 3.44772 23 4V12C23 12.5523 22.5523 13 22 13H18V11H21V5Z" fill="#141B34"/>
</svg>
