<svg width="24" height="24" viewBox="0 0 24 24" fill="none" xmlns="http://www.w3.org/2000/svg">
<path fill-rule="evenodd" clip-rule="evenodd" d="M11.25 15.0146V9.72012C10.1126 9.55071 9.16148 8.99089 8.47276 8.116C7.65324 7.07494 7.25 5.64816 7.25 4.03533V3.28675H8C8.45548 3.28675 8.95454 3.30993 9.45356 3.41247C9.53859 3.24046 9.66083 3.02231 9.82759 2.7893C10.1996 2.26944 10.8172 1.64372 11.7632 1.32897L12.0004 1.25006L12.2376 1.32897C13.1836 1.64372 13.8012 2.26944 14.1732 2.7893C14.3399 3.02225 14.4621 3.24034 14.5471 3.41233C15.0459 3.30991 15.5447 3.28675 16 3.28675H16.75V4.03533C16.75 5.64816 16.3468 7.07494 15.5272 8.116C14.8385 8.99089 13.8874 9.55071 12.75 9.72012V10.957C13.3249 10.561 14.0696 10.2736 14.9991 10.2736V11.7707C13.7192 11.7707 12.9947 12.65 12.75 13.1672V15.0146H11.25ZM11.0476 3.65931C10.9662 3.77305 10.9007 3.88153 10.8496 3.97551C10.9894 4.06887 11.1254 4.17459 11.2562 4.29428C11.5446 4.55819 11.7928 4.87527 11.9994 5.25098C12.206 4.87527 12.4541 4.55819 12.7426 4.29428C12.8736 4.17443 13.0097 4.06858 13.1497 3.97514C13.0987 3.88124 13.0333 3.7729 12.952 3.65931C12.7368 3.35869 12.4281 3.04438 11.9998 2.84373C11.5715 3.04438 11.2627 3.35869 11.0476 3.65931Z" fill="#141B34"/>
<path d="M6.40124 14.5638C6.54297 14.3763 6.76466 14.266 7.00001 14.266H17C17.2353 14.266 17.457 14.3763 17.5988 14.5638C17.7405 14.7513 17.7858 14.9944 17.7211 15.2202L15.5657 22.75H8.43428L6.27886 15.2202C6.21421 14.9944 6.25952 14.7513 6.40124 14.5638Z" fill="#141B34"/>
</svg>
