<svg width="24" height="24" viewBox="0 0 24 24" fill="none" xmlns="http://www.w3.org/2000/svg">
<path d="M16.5 5C16.5 6.10457 15.6046 7 14.5 7C13.3954 7 12.5 6.10457 12.5 5C12.5 3.89543 13.3954 3 14.5 3C15.6046 3 16.5 3.89543 16.5 5Z" fill="#141B34"/>
<path d="M20.5196 2L22 2.36925L21.8149 3.10776C21.5547 4.14633 21.1427 5.54396 20.151 6.81604C19.5652 7.56749 18.7926 8.2561 17.7662 8.80757C17.7603 8.94505 17.7476 9.11961 17.7217 9.32449C17.658 9.8294 17.5135 10.5232 17.1912 11.3012C16.561 12.8227 15.2665 14.6258 12.666 15.9605C11.4169 18.7805 9.08871 21.6879 4.84522 21.9525L4.08372 22L3.98853 20.4805L4.75003 20.433C7.48657 20.2624 9.28351 18.7587 10.474 16.8578C8.4767 17.4986 5.95257 17.8941 2.76299 17.8941H2V16.3716H2.76299C6.7405 16.3716 9.52871 15.7316 11.4814 14.842C12.0013 13.5337 12.3009 12.2338 12.4711 11.2341C12.5326 10.8728 12.5769 10.5528 12.6085 10.2884C11.8099 10.4639 11.0805 10.6508 10.4067 10.909C9.14198 11.3936 8.17295 12.0999 7.51471 13.4134L7.17349 14.0942L5.80861 13.4134L6.14983 12.7325C7.01756 11.001 8.33024 10.0737 9.85956 9.48773C10.9627 9.06504 12.2337 8.80438 13.5249 8.53957L13.525 8.53955C13.9513 8.45211 14.3799 8.36423 14.8053 8.2699C15.3213 8.1555 15.9663 7.9416 16.3839 7.77945C17.5867 7.27865 18.388 6.59777 18.9465 5.88134C19.7351 4.86971 20.0861 3.7299 20.3345 2.73851L20.5196 2Z" fill="#141B34"/>
</svg>
