<svg width="24" height="24" viewBox="0 0 24 24" fill="none" xmlns="http://www.w3.org/2000/svg">
<path d="M19.7531 14.1359L16.0199 15.9643C15.794 15.8283 15.5294 15.75 15.2465 15.75C14.4177 15.75 13.7457 16.4216 13.7457 17.25C13.7457 18.0784 14.4177 18.75 15.2465 18.75C15.5742 18.75 15.8774 18.645 16.1242 18.4668L19.7512 20.335C19.7953 21.1239 20.4493 21.75 21.2496 21.75C22.0784 21.75 22.7503 21.0784 22.7503 20.25C22.7503 19.4216 22.0784 18.75 21.2496 18.75C20.9457 18.75 20.6628 18.8403 20.4265 18.9955L16.9242 17.1916L20.4023 15.4882C20.6434 15.6534 20.9352 15.75 21.2496 15.75C22.0784 15.75 22.7503 15.0784 22.7503 14.25C22.7503 13.4216 22.0784 12.75 21.2496 12.75C20.4591 12.75 19.8114 13.3608 19.7531 14.1359Z" fill="#141B34"/>
<path d="M9.37298 2.25H1.24963V21.75H18.9438C18.8282 21.5728 18.7325 21.3814 18.6599 21.179L16.105 19.863C15.8345 19.9519 15.5456 20 15.2465 20C13.7279 20 12.4957 18.7694 12.4957 17.25C12.4957 15.7306 13.7279 14.5 15.2465 14.5C15.4964 14.5 15.7393 14.5336 15.9706 14.5966L18.6787 13.2702C19.0738 12.2347 20.0758 11.5 21.2496 11.5C21.8029 11.5 22.3181 11.6634 22.7496 11.9445V6.24446H12.3909L9.37298 2.25Z" fill="#141B34"/>
</svg>
