<svg width="24" height="24" viewBox="0 0 24 24" fill="none" xmlns="http://www.w3.org/2000/svg">
<path d="M12.2952 1.25C11.5382 1.25 10.9245 1.8477 10.9245 2.58499V10.886H10.1238V4.20207C10.1238 3.50612 9.52221 2.92098 8.75311 2.92098C7.98402 2.92098 7.38241 3.50612 7.38241 4.20207V14.785H6.58175V10.6386L5.53391 11.5802C4.82023 12.324 4.30403 12.8631 3.93961 13.3254C3.57783 13.7843 3.38977 14.1387 3.31119 14.5036C3.25841 14.7487 3.23967 14.9989 3.25537 15.2482C3.30421 16.0236 3.74191 16.7834 4.94853 18.4602L4.95734 18.4724L7.79056 22.75H17.6083C19.3555 22.75 20.75 21.4167 20.75 19.7979V7.04095C20.75 6.30365 20.1363 5.70596 19.3793 5.70596C18.6223 5.70596 18.0086 6.30365 18.0086 7.04095V12.2164H17.2079V4.81297C17.2079 4.07568 16.5943 3.47798 15.8372 3.47798C15.0802 3.47798 14.4665 4.07568 14.4665 4.81297V11.443H13.6659V2.58499C13.6659 1.8477 13.0522 1.25 12.2952 1.25Z" fill="#141B34"/>
</svg>
