<svg width="24" height="24" viewBox="0 0 24 24" fill="none" xmlns="http://www.w3.org/2000/svg">
<path fill-rule="evenodd" clip-rule="evenodd" d="M19.315 4.68623C17.2831 2.65441 13.3796 2.65193 9.59439 5.06677L8.54313 3.41909C12.675 0.783111 17.7164 0.32374 20.6971 3.30422C22.5319 5.13897 23.059 7.79267 22.5862 10.472C22.1127 13.155 20.6305 15.9599 18.2954 18.2948L16.9133 16.9128C18.9996 14.8267 20.2656 12.3747 20.6614 10.1323C21.0577 7.8863 20.575 5.94623 19.315 4.68623ZM7.0878 7.08775C4.03614 10.1393 2.77913 13.9177 3.33266 16.6954L1.4158 17.0774C0.699725 13.4839 2.33491 9.0764 5.70573 5.70574L7.0878 7.08775ZM4.68617 19.3143C6.64988 21.278 10.3541 21.3489 14.0311 19.1651L15.0292 20.8456C10.9945 23.2418 6.18385 23.576 3.3041 20.6964L4.68617 19.3143Z" fill="#141B34"/>
<path fill-rule="evenodd" clip-rule="evenodd" d="M13.1893 7.18888C11.9319 7.41075 10.5312 8.12711 9.32924 9.32904C8.12725 10.531 7.41086 11.9316 7.18898 13.1889C6.96644 14.4498 7.24718 15.4711 7.88826 16.1122C8.52935 16.7533 9.55071 17.034 10.8117 16.8115C12.069 16.5896 13.4698 15.8732 14.6717 14.6713C16.1384 13.2047 16.871 11.4566 16.8866 10.035L18.841 10.0564C18.8188 12.0821 17.8101 14.2971 16.0538 16.0533C14.603 17.504 12.8494 18.4365 11.1514 18.7362C9.45707 19.0352 7.72205 18.71 6.50619 17.4942C5.29034 16.2784 4.96517 14.5435 5.26417 12.8492C5.56383 11.1513 6.49639 9.39775 7.94717 7.94704C9.39795 6.49633 11.1515 5.56381 12.8496 5.26417C14.5439 4.96518 16.2789 5.29033 17.4948 6.50613L16.1127 7.88813C15.4716 7.24708 14.4503 6.96636 13.1893 7.18888Z" fill="#141B34"/>
<path d="M12.1714 9.11451C12.8806 8.98937 13.6968 9.11256 14.2937 9.7094C14.8906 10.3062 15.0138 11.1224 14.8886 11.8316C14.7628 12.5445 14.3799 13.2466 13.8134 13.8131C13.2468 14.3796 12.5447 14.7625 11.8318 14.8883C11.1225 15.0135 10.3063 14.8903 9.70943 14.2934C9.11256 13.6966 8.98936 12.8804 9.11452 12.1712C9.24033 11.4583 9.62324 10.7562 10.1898 10.1897C10.7563 9.62321 11.4584 9.24032 12.1714 9.11451Z" fill="#141B34"/>
</svg>
