<svg width="24" height="24" viewBox="0 0 24 24" fill="none" xmlns="http://www.w3.org/2000/svg">
<path d="M12.75 2.74792V8.12882H13.262C13.3808 7.93346 13.5432 7.68224 13.7394 7.41893C13.9539 7.13102 14.2188 6.8151 14.5216 6.5398C14.819 6.26932 15.1905 6.00358 15.6212 5.86735C16.9795 5.43777 18.3514 6.2221 19.4069 7.34083C20.5006 8.50009 21.4662 10.2183 22.0869 12.2139C22.7077 14.2096 22.8881 16.1754 22.6471 17.7554C22.4146 19.2799 21.7343 20.7095 20.3788 21.1382C19.3766 21.4552 18.0865 21.0854 16.9326 20.2302C16.2732 19.7414 15.6241 19.0728 15.0413 18.2118C15.1904 18.2368 15.3437 18.2499 15.5 18.2499C17.0188 18.2499 18.25 17.0187 18.25 15.4999C18.25 13.9811 17.0188 12.7499 15.5 12.7499C13.9812 12.7499 12.75 13.9811 12.75 15.4999C12.75 15.7612 12.7865 16.0141 12.8546 16.2536H11.1454C11.2135 16.0141 11.25 15.7612 11.25 15.4999C11.25 13.9811 10.0188 12.7499 8.49999 12.7499C6.98121 12.7499 5.74999 13.9811 5.74999 15.4999C5.74999 17.0187 6.98121 18.2499 8.49999 18.2499C8.6563 18.2499 8.80957 18.2368 8.95876 18.2118C8.37596 19.0728 7.72683 19.7414 7.06739 20.2302C5.91352 21.0854 4.62341 21.4552 3.6212 21.1382C2.26567 20.7095 1.58545 19.2799 1.35293 17.7554C1.11194 16.1754 1.29228 14.2096 1.91307 12.2139C2.53382 10.2183 3.49939 8.50009 4.59313 7.34083C5.64864 6.2221 7.02055 5.43777 8.37881 5.86735C8.80954 6.00358 9.18096 6.26932 9.47844 6.5398C9.78122 6.8151 10.0461 7.13102 10.2606 7.41893C10.4568 7.68224 10.6192 7.93346 10.738 8.12882H11.25V2.74792H12.75Z" fill="#141B34"/>
<path d="M15.5 14.2499C14.8096 14.2499 14.25 14.8095 14.25 15.4999C14.25 16.1902 14.8096 16.7499 15.5 16.7499C16.1903 16.7499 16.75 16.1902 16.75 15.4999C16.75 14.8095 16.1903 14.2499 15.5 14.2499Z" fill="#141B34"/>
<path d="M7.24999 15.4999C7.24999 14.8095 7.80964 14.2499 8.49999 14.2499C9.19035 14.2499 9.74999 14.8095 9.74999 15.4999C9.74999 16.1902 9.19035 16.7499 8.49999 16.7499C7.80964 16.7499 7.24999 16.1902 7.24999 15.4999Z" fill="#141B34"/>
</svg>
