<svg width="24" height="24" viewBox="0 0 24 24" fill="none" xmlns="http://www.w3.org/2000/svg">
<path fill-rule="evenodd" clip-rule="evenodd" d="M12 5.24956C16.0517 5.24956 19.535 4.0879 21.5181 2.42488L21.6757 2.25195L22.75 3.30776L22.482 3.57424C22.0691 3.92049 21.6081 4.2437 21.1052 4.54117L22.7494 10.0209L19.3395 8.6581L17.3254 11.3436L15.69 6.43736C15.3812 6.49104 15.0676 6.53811 14.75 6.57831V11.748L12 9.68555L9.25 11.748V6.5783C8.93217 6.53807 8.61846 6.49097 8.30939 6.43725L6.67395 11.3436L4.65986 8.6581L1.25 10.0209L2.89429 4.54086C2.39159 4.24348 1.93079 3.92037 1.51804 3.57424L1.25 3.30776L2.32425 2.25195L2.48187 2.42488C4.46499 4.0879 7.94843 5.24956 12 5.24956ZM12 15.2496C16.0517 15.2496 19.535 14.0879 21.5181 12.4249L21.6757 12.252L22.75 13.3078L22.482 13.5742C22.0691 13.9205 21.6081 14.2437 21.1052 14.5412L22.7494 20.0209L19.3395 18.6581L17.3254 21.3436L15.69 16.4374C15.3812 16.491 15.0676 16.5381 14.75 16.5783V21.748L12 19.6855L9.25 21.748V16.5783C8.93217 16.5381 8.61846 16.491 8.30939 16.4372L6.67395 21.3436L4.65986 18.6581L1.25 20.0209L2.89429 14.5409C2.39159 14.2435 1.93079 13.9204 1.51804 13.5742L1.25 13.3078L2.32425 12.252L2.48187 12.4249C4.46499 14.0879 7.94843 15.2496 12 15.2496Z" fill="#141B34"/>
</svg>
