<svg width="24" height="24" viewBox="0 0 24 24" fill="none" xmlns="http://www.w3.org/2000/svg">
<path d="M1.25 6.5C1.25 3.60051 3.60051 1.25 6.5 1.25C9.3995 1.25 11.75 3.60051 11.75 6.5C11.75 9.3995 9.3995 11.75 6.5 11.75C3.60051 11.75 1.25 9.3995 1.25 6.5Z" fill="#141B34"/>
<path d="M12.25 18.9306V21.75H22.75V11.25H19.9315L12.25 18.9306Z" fill="#141B34"/>
<path d="M5.24961 13.1344L5.24805 21.9999C5.24799 22.3032 5.4307 22.5767 5.71095 22.6929C5.99121 22.809 6.31382 22.7449 6.52834 22.5304L22.5303 6.53036C22.7448 6.31587 22.809 5.99327 22.6929 5.71301C22.5768 5.43274 22.3033 5.25 22 5.25L13.1345 5.25001C13.2103 5.65509 13.25 6.07291 13.25 6.5C13.25 10.2279 10.2279 13.25 6.5 13.25C6.07277 13.25 5.65481 13.2103 5.24961 13.1344Z" fill="#141B34"/>
</svg>
