<svg width="24" height="24" viewBox="0 0 24 24" fill="none" xmlns="http://www.w3.org/2000/svg">
<path fill-rule="evenodd" clip-rule="evenodd" d="M9.25 3.25H1.25V11.25H6.42548L4.17188 8.9964L7.0003 6.16797L9.25 8.41767V3.25ZM1.25 12.75H6.41827L4.17188 14.9964L7.0003 17.8248L9.25 15.5751V20.75H1.25V12.75ZM10.75 15.5745V20.75H22.75V12.75H13.5823L15.8287 14.9964L13.0003 17.8248L10.75 15.5745ZM22.75 11.25H13.5751L15.8287 8.9964L13.0003 6.16797L10.75 8.41827V3.25H22.75V11.25ZM10.0001 10.9375L7.00011 7.9375L5.93945 8.99816L8.93945 11.9982L5.93945 14.9982L7.00011 16.0588L10.0001 13.0588L13.0001 16.0588L14.0608 14.9982L11.0608 11.9982L14.0608 8.99816L13.0001 7.9375L10.0001 10.9375Z" fill="#141B34"/>
</svg>
