<svg width="24" height="24" viewBox="0 0 24 24" fill="none" xmlns="http://www.w3.org/2000/svg">
<path fill-rule="evenodd" clip-rule="evenodd" d="M6.25171 7C6.25171 3.82436 8.82607 1.25 12.0017 1.25C15.1773 1.25 17.7518 3.82436 17.7518 7C17.7518 10.1756 15.1774 12.75 12.0018 12.75C8.82616 12.75 6.25171 10.1756 6.25171 7ZM9.82944 3.34631C8.58522 4.08765 7.75171 5.44648 7.75171 6.99999C7.75171 8.55349 8.58522 9.91232 9.82944 10.6537C9.46206 9.66028 9.25171 8.37638 9.25171 6.99999C9.25171 5.62359 9.46206 4.33969 9.82944 3.34631ZM14.1741 3.34631C15.4183 4.08765 16.2518 5.44648 16.2518 6.99999C16.2518 8.55349 15.4183 9.91232 14.1741 10.6537C14.5414 9.66028 14.7518 8.37638 14.7518 6.99999C14.7518 5.62359 14.5414 4.33969 14.1741 3.34631ZM11.7681 2.90826C11.918 2.7498 11.9972 2.74999 12.0017 2.75C12.0062 2.74999 12.0855 2.7498 12.2354 2.90826C12.3878 3.06943 12.5596 3.34289 12.7197 3.74301C13.0381 4.53908 13.2518 5.69028 13.2518 7C13.2518 8.30972 13.0381 9.46092 12.7197 10.257C12.5596 10.6571 12.3878 10.9306 12.2354 11.0917C12.0882 11.2474 12.0088 11.25 12.0018 11.25C11.9947 11.25 11.9153 11.2474 11.7681 11.0917C11.6157 10.9306 11.4439 10.6571 11.2839 10.257C10.9654 9.46092 10.7517 8.30972 10.7517 7C10.7517 5.69028 10.9654 4.53908 11.2839 3.74301C11.4439 3.34289 11.6157 3.06943 11.7681 2.90826Z" fill="#141B34"/>
<path d="M5.29271 4.20981C4.94292 5.0598 4.75 5.99089 4.75 6.96704C4.75 10.7179 7.59839 13.8034 11.25 14.1787L11.25 22.75L1.25 19.75V4.00001C1.25 3.76273 1.36228 3.53945 1.55275 3.39795C1.74322 3.25646 1.98942 3.21344 2.21658 3.28196L5.29271 4.20981Z" fill="#141B34"/>
<path d="M12.75 14.1787C16.4017 13.8035 19.2501 10.7179 19.2501 6.96704C19.2501 5.99088 19.0572 5.05978 18.7074 4.20979L21.7834 3.28196C22.0106 3.21344 22.2568 3.25646 22.4472 3.39795C22.6377 3.53945 22.75 3.76273 22.75 4.00001V19.75L12.75 22.75L12.75 14.1787Z" fill="#141B34"/>
</svg>
