<svg width="24" height="24" viewBox="0 0 24 24" fill="none" xmlns="http://www.w3.org/2000/svg">
<path fill-rule="evenodd" clip-rule="evenodd" d="M11.8063 3.20663C11.8707 3.20524 11.9353 3.20455 12 3.20455C16.8576 3.20455 20.7955 7.1424 20.7955 12C20.7955 16.8576 16.8576 20.7955 12 20.7955C7.1424 20.7955 3.20455 16.8576 3.20455 12C3.20455 9.12308 4.58477 6.56881 6.72329 4.9625L5.54944 3.39971C2.94058 5.3593 1.25 8.48236 1.25 12C1.25 17.9371 6.06294 22.75 12 22.75C17.9371 22.75 22.75 17.9371 22.75 12C22.75 6.06294 17.9371 1.25 12 1.25C11.265 1.25 10.5462 1.32391 9.85104 1.46502C9.52654 1.53089 9.25747 1.7566 9.13614 2.06469C9.01482 2.37278 9.05776 2.72135 9.25022 2.9908L11.2048 5.72712L12.7952 4.59106L11.8063 3.20663Z" fill="#141B34"/>
<path d="M9.99847 9.00001C9.99847 8.62124 9.78447 8.27497 9.44569 8.10558C9.10691 7.93619 8.7015 7.97274 8.39848 8.2L6.39844 9.7L7.59842 11.3L7.99847 11V17H9.99847V9.00001Z" fill="#141B34"/>
<path d="M12.6227 8C12.1251 8 11.7032 8.36593 11.6328 8.85858L11.1328 12.3586C11.086 12.6862 11.2043 13.0158 11.4488 13.2388C11.6934 13.4619 12.0324 13.5495 12.3544 13.4728C12.4671 13.446 12.5743 13.4199 12.6771 13.3948C13.2682 13.2508 13.7115 13.1429 14.1942 13.1429C14.707 13.1429 15.1227 13.5586 15.1227 14.0714C15.1227 14.5843 14.707 15 14.1942 15L14.1634 15C13.9594 15 13.7892 15.0001 13.6261 14.9891C13.4565 14.9776 13.3397 14.9565 13.26 14.9305C13.2227 14.9184 13.2 14.9073 13.1875 14.9C13.1759 14.8931 13.1716 14.8886 13.1716 14.8886C13.1716 14.8886 13.1674 14.8845 13.1612 14.8725C13.1543 14.8594 13.1416 14.8307 13.1298 14.7787L11.1794 15.2213C11.2727 15.6323 11.4564 15.9934 11.737 16.2822C12.0135 16.5668 12.3374 16.7336 12.6413 16.8324C13.1643 17.0026 13.748 17.0011 14.1185 17.0001L14.1942 17C15.8116 17 17.1227 15.6888 17.1227 14.0714C17.1227 12.454 15.8116 11.1429 14.1942 11.1429C13.8933 11.1429 13.5989 11.1713 13.3165 11.2147L13.49 10H16.5V8H12.6227Z" fill="#141B34"/>
</svg>
