<svg width="24" height="24" viewBox="0 0 24 24" fill="none" xmlns="http://www.w3.org/2000/svg">
<path d="M19.7532 1.87316C18.5442 1.44786 17.2899 2.1672 16.9345 3.36737L14.3936 10.9176L15.1235 11.2064L11.7261 19.529C11.4353 19.0725 11.0849 18.5588 10.687 18.0432C10.0867 17.2655 9.35993 16.4595 8.54755 15.8419C7.74189 15.2295 6.78552 14.7522 5.74134 14.7515C4.40279 14.7447 3.53777 15.636 3.11503 16.6099C2.69959 17.567 2.63301 18.746 2.94985 19.6777C3.28298 20.6574 3.90919 21.3222 4.68867 21.7267C5.44692 22.1203 6.31601 22.2515 7.14677 22.2515H12.7845L16.9838 11.9426L17.6666 12.2128L20.9982 5.10033C21.6124 3.88512 21.0654 2.33476 19.7532 1.87316Z" fill="#141B34"/>
</svg>
