<svg width="24" height="24" viewBox="0 0 24 24" fill="none" xmlns="http://www.w3.org/2000/svg">
<path fill-rule="evenodd" clip-rule="evenodd" d="M13 3.05493C17.1716 3.51608 20.4839 6.82838 20.9451 11H22.75V13H20.9451C20.4839 17.1716 17.1716 20.4839 13 20.9451V22.75H11V20.9451C6.82838 20.4839 3.51608 17.1716 3.05493 13H1.25V11H3.05493C3.51608 6.82838 6.82838 3.51608 11 3.05493V1.25H13V3.05493ZM12 5C8.13401 5 5 8.13401 5 12C5 15.866 8.13401 19 12 19C15.866 19 19 15.866 19 12C19 8.13401 15.866 5 12 5Z" fill="#141B34"/>
</svg>
