<svg width="25" height="24" viewBox="0 0 25 24" fill="none" xmlns="http://www.w3.org/2000/svg">
<path fill-rule="evenodd" clip-rule="evenodd" d="M12.9801 1.42383C12.702 1.19206 12.298 1.19206 12.0199 1.42383L9.22846 3.75H5C4.58579 3.75 4.25 4.08579 4.25 4.5V8.72846L1.92383 11.5199C1.69206 11.798 1.69206 12.202 1.92383 12.4801L4.25 15.2715V19.5C4.25 19.9142 4.58579 20.25 5 20.25H9.22846L12.0199 22.5762C12.298 22.8079 12.702 22.8079 12.9801 22.5762L15.7715 20.25H20C20.4142 20.25 20.75 19.9142 20.75 19.5V15.2715L23.0762 12.4801C23.3079 12.202 23.3079 11.798 23.0762 11.5199L20.75 8.72847V4.5C20.75 4.08579 20.4142 3.75 20 3.75H15.7715L12.9801 1.42383ZM8.25 9V14.25H7V15.75H9C9.41421 15.75 9.75 15.4142 9.75 15V9H8.25ZM14.25 12.75V9H12.75V10.3619L12.0857 9.53148L10.9143 10.4685L12.75 12.7631V14.25H11V15.75H13.5C13.9142 15.75 14.25 15.4142 14.25 15V14.25H18C18.2883 14.25 18.5511 14.0847 18.676 13.8249C18.8009 13.565 18.7658 13.2566 18.5857 13.0315L16.5857 10.5315L15.4143 11.4685L16.4395 12.75H14.25Z" fill="#141B34"/>
</svg>
