<svg width="24" height="24" viewBox="0 0 24 24" fill="none" xmlns="http://www.w3.org/2000/svg">
<path d="M5.6117 10.3659C5.80815 10.2472 6.04818 10.225 6.26313 10.3055L10.2631 11.8048C10.5019 11.8943 10.6788 12.0989 10.7328 12.3479C10.7867 12.5968 10.7108 12.8558 10.5307 13.036C10.4877 13.0837 10.367 13.2186 10.2926 13.3132C10.1425 13.504 9.95447 13.7733 9.79557 14.0909C9.47144 14.7387 9.32094 15.4698 9.67058 16.1687C9.83268 16.4927 9.73973 16.8862 9.44976 17.1035C8.67067 17.6875 8.45936 18.408 8.43389 19.0078C8.42084 19.3151 8.45799 19.5885 8.49896 19.7849C8.51204 19.8476 8.54788 19.975 8.56588 20.039L8.5731 20.0647C8.65034 20.2745 8.62999 20.5084 8.51716 20.7016C7.91664 21.7302 6.88688 22.6188 5.55047 22.737C4.19303 22.8571 2.76517 22.1627 1.42228 20.5415C1.29016 20.382 1.22995 20.175 1.25592 19.9696C1.28189 19.7642 1.39174 19.5787 1.55941 19.457C2.26066 18.9483 3.06911 17.8262 3.77275 16.2599C4.46516 14.7186 5.01491 12.8383 5.25555 10.9144C5.28403 10.6867 5.41526 10.4846 5.6117 10.3659Z" fill="#141B34"/>
<path fill-rule="evenodd" clip-rule="evenodd" d="M9.71468 12.0063L10.9268 7.56465C11.2628 7.68207 11.6239 7.74591 12 7.74591C13.7949 7.74591 15.25 6.29175 15.25 4.49795C15.25 2.70416 13.7949 1.25 12 1.25C10.2051 1.25 8.75 2.70416 8.75 4.49795C8.75 5.11956 8.92473 5.70039 9.22779 6.19405L7.78516 11.4804L9.71468 12.0063ZM12 3.10597C11.2307 3.10597 10.6071 3.72919 10.6071 4.49795C10.6071 5.26672 11.2307 5.88994 12 5.88994C12.7693 5.88994 13.3929 5.26672 13.3929 4.49795C13.3929 3.72919 12.7693 3.10597 12 3.10597Z" fill="#141B34"/>
<path d="M16.7147 11.4804L15.9647 8.7321L14.0352 9.25801L14.7852 12.0063L16.7147 11.4804Z" fill="#141B34"/>
<path d="M18.7443 10.9144C18.7158 10.6867 18.5845 10.4846 18.3881 10.3659C18.1917 10.2472 17.9516 10.225 17.7367 10.3055L13.7367 11.8048C13.4979 11.8943 13.321 12.0989 13.267 12.3479C13.2131 12.5968 13.289 12.8558 13.4691 13.036L13.479 13.0462C13.4889 13.0566 13.5051 13.074 13.5266 13.0978C13.5696 13.1455 13.6328 13.2186 13.7072 13.3132C13.8573 13.504 14.0453 13.7733 14.2042 14.0909C14.5284 14.7387 14.6789 15.4698 14.3292 16.1687C14.1671 16.4927 14.2601 16.8862 14.55 17.1035C15.3291 17.6875 15.5404 18.408 15.5659 19.0078C15.579 19.3151 15.5418 19.5885 15.5008 19.7849C15.4806 19.8821 15.4599 19.9579 15.4454 20.0064C15.4381 20.0306 15.4325 20.0478 15.4293 20.0572L15.4266 20.0651C15.3493 20.2749 15.3698 20.5084 15.4826 20.7016C16.0832 21.7302 17.1129 22.6188 18.4493 22.737C19.8068 22.8571 21.2346 22.1627 22.5775 20.5415C22.7096 20.382 22.7699 20.175 22.7439 19.9696C22.7179 19.7642 22.6081 19.5787 22.4404 19.457C21.7391 18.9483 20.9307 17.8262 20.2271 16.2599C19.5346 14.7186 18.9849 12.8383 18.7443 10.9144Z" fill="#141B34"/>
</svg>
