<svg width="24" height="24" viewBox="0 0 24 24" fill="none" xmlns="http://www.w3.org/2000/svg">
<path d="M22.75 8.75311C22.75 7.98402 22.1649 7.38241 21.4689 7.38241L9.21502 7.38241V6.58175L13.3614 6.58175L12.4198 5.53391C11.676 4.82023 11.1369 4.30403 10.6746 3.93961C10.2157 3.57783 9.86133 3.38977 9.49642 3.31119C9.25133 3.25841 9.00114 3.23967 8.75184 3.25537C7.97636 3.30421 7.21661 3.74191 5.53983 4.94853L5.52759 4.95734L1.25 7.79056V17.6083C1.25 19.3555 2.58326 20.75 4.20207 20.75H11.443C12.1505 20.75 12.7241 20.1611 12.7241 19.4346V18.0017L10.6696 18.0086V17.2079H12.557C12.7074 17.2079 12.851 17.1815 12.9841 17.1332C13.4822 16.9524 13.8381 16.4647 13.8381 15.8926V14.4597L11.443 14.4665V13.6659H13.671C13.8214 13.6659 13.965 13.6394 14.098 13.5911C14.5961 13.4104 14.9521 12.9226 14.9521 12.3505V10.9245L12 10.9245V10.1238L21.4689 10.1238C22.1649 10.1238 22.75 9.52221 22.75 8.75311Z" fill="#141B34"/>
</svg>
