<svg width="24" height="24" viewBox="0 0 24 24" fill="none" xmlns="http://www.w3.org/2000/svg">
<path d="M13.3793 1.25C12.8739 1.25003 12.4641 1.67495 12.4641 2.19911V10.9193C12.6006 10.7703 12.7584 10.6395 12.94 10.5317C13.3111 10.3114 13.756 10.2022 14.2743 10.2022C14.4541 10.2022 14.6137 10.3215 14.6705 10.4984L16.3414 15.6965L15.5489 15.9705L13.9785 11.0853C13.7205 11.116 13.5172 11.1873 13.3551 11.2836C13.137 11.413 12.9677 11.6026 12.8358 11.856C12.5621 12.3822 12.4641 13.1548 12.4641 14.1006V17.8414C12.4641 19.4686 13.5813 20.8469 15.1039 21.2183C15.5489 21.3268 16.0443 21.2441 16.7928 21.1864C18.6191 21.0455 21.5352 22.0832 22.7508 22.75V15.9705C22.7508 15.9705 21.3892 15.8561 20.4835 15.1787C19.8895 14.7345 19.1741 13.9073 18.7352 13.0329C18.3003 12.1662 17.8492 11.0228 17.2627 9.53619L14.2265 1.83975C14.0858 1.48303 13.751 1.24998 13.3793 1.25Z" fill="#141B34"/>
<path d="M10.6207 1.25C11.1262 1.25003 11.5359 1.67495 11.5359 2.19911V10.9193C11.3994 10.7703 11.2416 10.6395 11.06 10.5317C10.6889 10.3114 10.244 10.2022 9.72577 10.2022C9.54598 10.2022 9.38636 10.3215 9.3295 10.4984L7.6586 15.6965L8.45118 15.9705L10.0215 11.0853C10.2796 11.116 10.4828 11.1873 10.645 11.2836C10.863 11.413 11.0324 11.6026 11.1642 11.856C11.438 12.3822 11.5359 13.1548 11.5359 14.1006V17.8414C11.5359 19.4686 10.4188 20.8469 8.8961 21.2183C8.45118 21.3268 7.95571 21.2441 7.20729 21.1864C5.3809 21.0455 2.46488 22.0832 1.24927 22.75V15.9705C1.24927 15.9705 2.61084 15.8561 3.51658 15.1787C4.11056 14.7345 4.82593 13.9073 5.26481 13.0329C5.69977 12.1662 6.15086 11.0228 6.73731 9.53619L9.77356 1.83975C9.91428 1.48303 10.2491 1.24998 10.6207 1.25Z" fill="#141B34"/>
</svg>
