<svg width="24" height="24" viewBox="0 0 24 24" fill="none" xmlns="http://www.w3.org/2000/svg">
<path fill-rule="evenodd" clip-rule="evenodd" d="M2 19V5H4V19H2Z" fill="#141B34"/>
<path fill-rule="evenodd" clip-rule="evenodd" d="M12 19V5H14V19H12Z" fill="#141B34"/>
<path fill-rule="evenodd" clip-rule="evenodd" d="M19 11C18.4477 11 18 11.4477 18 12H16C16 10.3431 17.3431 9 19 9C20.6569 9 22 10.3431 22 12C22 12.7684 21.7111 13.4692 21.2361 14C21.7111 14.5308 22 15.2316 22 16C22 17.6569 20.6569 19 19 19C17.3431 19 16 17.6569 16 16H18C18 16.5523 18.4477 17 19 17C19.5523 17 20 16.5523 20 16C20 15.4477 19.5523 15 19 15H18V13H19C19.5523 13 20 12.5523 20 12C20 11.4477 19.5523 11 19 11Z" fill="#141B34"/>
<path fill-rule="evenodd" clip-rule="evenodd" d="M13 13L3 13L3 11L13 11L13 13Z" fill="#141B34"/>
</svg>
