<svg width="24" height="24" viewBox="0 0 24 24" fill="none" xmlns="http://www.w3.org/2000/svg">
<path d="M10.1238 5.65385C10.1238 4.933 9.5222 4.32692 8.75311 4.32692C7.98401 4.32692 7.38241 4.933 7.38241 5.65385V12H6.58175V7.70526L5.53391 8.68058C4.82023 9.45102 4.30403 10.0093 3.93961 10.4882C3.57783 10.9635 3.38977 11.3306 3.31119 11.7085C3.25841 11.9624 3.23967 12.2215 3.25537 12.4798C3.27872 12.8638 3.41179 13.2514 3.70125 13.7695C3.99417 14.2938 4.42704 14.9177 5.02674 15.7809L8.20233 20.25H16.5752C18.8809 20.25 20.75 18.3644 20.75 16.0385V7.38462C20.75 6.66377 20.1484 6.05769 19.3793 6.05769C18.6102 6.05769 18.0086 6.66377 18.0086 7.38462V9.11538H17.2079V6.23077C17.2079 5.50992 16.6063 4.90385 15.8372 4.90385C15.0681 4.90385 14.4665 5.50992 14.4665 6.23077V8.39391H13.6659V5.07692C13.6659 4.35607 13.0643 3.75 12.2952 3.75C11.5261 3.75 10.9245 4.35607 10.9245 5.07692V7.96154H10.1238V5.65385Z" fill="#141B34"/>
</svg>
