<svg width="24" height="24" viewBox="0 0 24 24" fill="none" xmlns="http://www.w3.org/2000/svg">
<path fill-rule="evenodd" clip-rule="evenodd" d="M12 1.25C7.27186 1.25 3.25 4.59278 3.25 8.93333C3.25 11.742 4.77859 14.1908 6.55608 15.9063C7.45103 16.7701 8.43163 17.4711 9.36301 17.9599C10.2776 18.4399 11.2111 18.75 12 18.75C12.7889 18.75 13.7224 18.4399 14.637 17.9599C15.5684 17.4711 16.549 16.7701 17.4439 15.9063C19.2214 14.1908 20.75 11.742 20.75 8.93333C20.75 4.59278 16.7281 1.25 12 1.25ZM12 17.082C12.9231 17.082 15 13.541 15 9.05573C15 5.66594 13.6569 2.91797 12 2.91797C10.3431 2.91797 9 5.66594 9 9.05573C9 13.541 11.0769 17.082 12 17.082Z" fill="#141B34"/>
<path d="M8.25 18C8.25 17.5858 8.58579 17.25 9 17.25H15C15.4142 17.25 15.75 17.5858 15.75 18V22C15.75 22.4142 15.4142 22.75 15 22.75H9C8.58579 22.75 8.25 22.4142 8.25 22V18Z" fill="#141B34"/>
</svg>
