<svg width="24" height="24" viewBox="0 0 24 24" fill="none" xmlns="http://www.w3.org/2000/svg">
<path d="M9.47954 2.40441C10.3443 1.68376 11.591 1.25 13.0019 1.25H14.4047L13.6267 2.41496L13.626 2.41594L13.6218 2.42248C13.6171 2.42977 13.6092 2.44217 13.5988 2.45919C13.5778 2.49331 13.5467 2.5455 13.5101 2.61197C13.436 2.74642 13.3435 2.93166 13.2656 3.13888C13.091 3.60326 13.0701 3.96283 13.171 4.16459C13.3172 4.457 13.5623 4.65677 13.9487 4.84125C14.146 4.93542 14.3623 5.01741 14.6096 5.10792L14.6933 5.13849C14.9097 5.21739 15.1505 5.30523 15.3813 5.40564C15.9066 5.63421 16.4995 5.97608 16.8846 6.62432C17.1878 7.13459 17.3163 7.75533 17.2788 8.50605C19.1533 9.30204 19.8867 11.7613 18.6138 13.4512H5.38497C4.04545 11.6729 4.95138 9.13015 6.91185 8.43273C6.53327 7.10019 6.96453 5.538 8.27773 4.73479C8.2874 3.82245 8.76514 2.99974 9.47954 2.40441Z" fill="#141B34"/>
<path d="M16.6028 22.75H7.3995L5.66644 14.9513H18.3358L16.6028 22.75Z" fill="#141B34"/>
</svg>
