<svg width="24" height="24" viewBox="0 0 24 24" fill="none" xmlns="http://www.w3.org/2000/svg">
<path fill-rule="evenodd" clip-rule="evenodd" d="M1.58189 2.37736C1.78934 2.23806 2.05254 2.21122 2.28383 2.30578C8.62433 4.89808 15.3757 4.89808 21.7162 2.30578C21.9475 2.21122 22.2107 2.23806 22.4181 2.37736C22.6256 2.51666 22.75 2.75013 22.75 3V14.0412L16.434 10.0723L3.24738 21.3214C2.92522 21.439 2.604 21.5633 2.28383 21.6942C2.05254 21.7888 1.78934 21.7619 1.58189 21.6226C1.37445 21.4833 1.25 21.2499 1.25 21V3C1.25 2.75013 1.37445 2.51666 1.58189 2.37736ZM16.5691 11.9287L22.75 15.8127V21C22.75 21.2499 22.6256 21.4833 22.4181 21.6226C22.2107 21.7619 21.9475 21.7888 21.7162 21.6942C16.8436 19.7021 11.7284 19.2409 6.74348 20.3106L16.5691 11.9287ZM7.5 8C6.39543 8 5.5 8.89543 5.5 10C5.5 11.1046 6.39543 12 7.5 12C8.60457 12 9.5 11.1046 9.5 10C9.5 8.89543 8.60457 8 7.5 8Z" fill="#141B34"/>
</svg>
