<svg width="24" height="24" viewBox="0 0 24 24" fill="none" xmlns="http://www.w3.org/2000/svg">
<path fill-rule="evenodd" clip-rule="evenodd" d="M2.95711 1.29289C2.56658 0.902369 1.93342 0.902369 1.54289 1.29289C1.15237 1.68342 1.15237 2.31658 1.54289 2.70711L2.23094 3.39516C2.08243 3.73329 2 4.10702 2 4.5V19.5C2 21.0188 3.23122 22.25 4.75 22.25H19.75C20.143 22.25 20.5167 22.1676 20.8548 22.0191L21.5429 22.7071C21.9334 23.0976 22.5666 23.0976 22.9571 22.7071C23.3476 22.3166 23.3476 21.6834 22.9571 21.2929L2.95711 1.29289ZM22.5 4.5V18.7143L5.53572 1.75H19.75C21.2688 1.75 22.5 2.98122 22.5 4.5ZM3.95215 19.3213C3.95215 19.8604 4.3892 20.2975 4.92834 20.2975H14.9333C14.2762 18.2946 13.0323 16.545 11.4435 15.3339C9.37377 13.7563 6.90987 13.1449 3.95215 13.0234V19.3213ZM16.75 6C15.6454 6 14.75 6.89543 14.75 8C14.75 9.10457 15.6454 10 16.75 10C17.8546 10 18.75 9.10457 18.75 8C18.75 6.89543 17.8546 6 16.75 6Z" fill="#141B34"/>
</svg>
