<svg width="24" height="24" viewBox="0 0 24 24" fill="none" xmlns="http://www.w3.org/2000/svg">
<path d="M4.21967 13.7197L11.0126 6.9268L10.043 5.95718L11.4572 4.54297L19.4572 12.543L18.043 13.9572L17.0733 12.9875L10.2803 19.7804C9.98744 20.0733 9.51256 20.0733 9.21967 19.7804L4.21967 14.7804C3.92678 14.4875 3.92678 14.0126 4.21967 13.7197Z" fill="#141B34"/>
<path d="M18.2584 5.42325L14.3744 8.53049L13.125 6.96875L16.8589 3.98163C16.8205 3.93213 16.7839 3.8816 16.7493 3.82945C16.536 3.50745 16.3868 3.14727 16.31 2.7687C16.2495 2.47076 16.2498 2.16637 16.25 1.82077L16.2501 1.75H18.2501C18.2501 2.20563 18.2547 2.29554 18.27 2.37106C18.2956 2.49725 18.3454 2.61731 18.4165 2.72464C18.4591 2.78887 18.5194 2.85573 18.8415 3.17792L20.8226 5.15901C21.1443 5.48068 21.2111 5.54088 21.2752 5.5834C21.3827 5.65468 21.5029 5.7045 21.6293 5.7301C21.7047 5.74537 21.7945 5.75 22.2494 5.75V7.75L22.1788 7.75004C21.8337 7.75031 21.5298 7.75055 21.2323 7.6903C20.8531 7.61349 20.4923 7.46405 20.1698 7.25021C20.1177 7.21561 20.0671 7.17899 20.0176 7.14053L17.0306 10.8743L15.4688 9.62492L18.5761 5.74087L18.2584 5.42325Z" fill="#141B34"/>
<path d="M3.83608 18.7497L1.75 20.8358L3.16421 22.25L5.25029 20.164L5.54291 20.4566C5.88268 20.7963 6.41607 20.8464 6.81315 20.5758L8.81301 19.213L7.68674 17.5603L6.3714 18.4566L5.5428 17.628L6.4391 16.3125L4.78628 15.1864L3.4236 17.1864C3.15306 17.5835 3.20316 18.1168 3.54291 18.4566L3.83608 18.7497Z" fill="#141B34"/>
</svg>
