<svg width="24" height="24" viewBox="0 0 24 24" fill="none" xmlns="http://www.w3.org/2000/svg">
<path fill-rule="evenodd" clip-rule="evenodd" d="M7.24147 2.40931C7.35855 2.01906 7.73308 1.75 8.15925 1.75H14.8408C15.2669 1.75 15.6415 2.01906 15.7585 2.40931L16.713 5.59098C16.8579 6.07372 16.5643 6.57686 16.0575 6.71479C15.5506 6.85271 15.0223 6.57319 14.8775 6.09045L14.1208 3.5681H8.87923L8.12252 6.09045C7.9777 6.57319 7.4494 6.85271 6.94253 6.71479C6.43565 6.57686 6.14215 6.07372 6.28697 5.59098L7.24147 2.40931Z" fill="#141B34"/>
<path fill-rule="evenodd" clip-rule="evenodd" d="M16 16.25C14.7574 16.25 13.75 17.2574 13.75 18.5C13.75 19.7426 14.7574 20.75 16 20.75V22.25C13.9289 22.25 12.25 20.5711 12.25 18.5C12.25 16.4289 13.9289 14.75 16 14.75V16.25ZM19 14.75C21.0711 14.75 22.75 16.4289 22.75 18.5C22.75 20.5711 21.0711 22.25 19 22.25V20.75C20.2426 20.75 21.25 19.7426 21.25 18.5C21.25 17.2574 20.2426 16.25 19 16.25V14.75ZM16 17.75H19V19.25H16V17.75Z" fill="#141B34"/>
<path d="M2 5.24988C1.58579 5.24988 1.25 5.58566 1.25 5.99988V21.4999C1.25 21.9141 1.58579 22.2499 2 22.2499H12.3258C11.3534 21.297 10.75 19.9689 10.75 18.4999C10.75 15.6004 13.1005 13.2499 16 13.2499H19C20.0083 13.2499 20.9502 13.5341 21.75 14.0269V5.99988C21.75 5.58566 21.4142 5.24988 21 5.24988H2Z" fill="#141B34"/>
</svg>
