<svg width="25" height="24" viewBox="0 0 25 24" fill="none" xmlns="http://www.w3.org/2000/svg">
<path fill-rule="evenodd" clip-rule="evenodd" d="M10.6649 1.82675L10.3737 1.25L5.26255 2.94265C5.00092 3.02929 4.80833 3.25143 4.76107 3.52107L2.76107 14.9323C2.72314 15.1487 2.78351 15.3707 2.92601 15.5389C3.06852 15.707 3.2786 15.804 3.49998 15.804H6.5254L5.75577 21.9135C5.72909 22.1253 5.79535 22.3383 5.93772 22.4983C6.08009 22.6583 6.28486 22.75 6.49998 22.75H18.5C18.7151 22.75 18.9199 22.6583 19.0622 22.4983C19.2046 22.3383 19.2709 22.1253 19.2442 21.9135L18.4746 15.804H21.5C21.7214 15.804 21.9314 15.707 22.074 15.5389C22.2165 15.3707 22.2768 15.1487 22.2389 14.9323L20.2389 3.52107C20.1916 3.25143 19.999 3.02929 19.7374 2.94265L14.6263 1.25L14.335 1.82675C14.1003 2.29163 13.708 2.61195 13.25 2.77625V9H11.75V2.77624C11.292 2.61195 10.8997 2.29163 10.6649 1.82675ZM6.89929 12.8276L6.71182 14.3158H4.3906L4.65143 12.8276H6.89929ZM18.0985 12.8276H20.3464L20.6072 14.3158H18.286L18.0985 12.8276Z" fill="#141B34"/>
</svg>
