<svg width="24" height="24" viewBox="0 0 24 24" fill="none" xmlns="http://www.w3.org/2000/svg">
<path fill-rule="evenodd" clip-rule="evenodd" d="M12 1.25C6.06294 1.25 1.25 6.06294 1.25 12C1.25 17.9371 6.06294 22.75 12 22.75C17.9371 22.75 22.75 17.9371 22.75 12C22.75 6.06294 17.9371 1.25 12 1.25ZM7 7.62931H10.75V6.5H12.25V7.62931H17V9.12931H15.0533C14.5141 10.7301 13.6127 12.229 12.5989 13.5649L14.0762 15.1008L12.9952 16.1406L11.6473 14.7394C10.7274 15.8081 9.76369 16.7583 8.90051 17.5521L7.8852 16.4479C8.76185 15.6418 9.72949 14.6835 10.6354 13.6145C10.4069 13.3276 10.1708 13.0167 9.95417 12.7163C9.61723 12.249 9.28915 11.7549 9.12735 11.4077L10.4869 10.7741C10.5823 10.9786 10.8328 11.3701 11.1708 11.8389C11.3064 12.0269 11.4498 12.2188 11.5931 12.4048C12.3554 11.3675 13.0108 10.2655 13.4571 9.12931H7V7.62931Z" fill="#141B34"/>
</svg>
