<svg width="24" height="24" viewBox="0 0 24 24" fill="none" xmlns="http://www.w3.org/2000/svg">
<path fill-rule="evenodd" clip-rule="evenodd" d="M20.7502 14.5587V1.75H3.2502V14.4603L1.27958 21.2921C1.21427 21.5186 1.25919 21.7626 1.40087 21.9509C1.54256 22.1392 1.76453 22.25 2.0002 22.25H21.9998C22.236 22.25 22.4584 22.1387 22.6 21.9497C22.7416 21.7607 22.7859 21.5161 22.7196 21.2894L20.7502 14.5587ZM18.8058 13.75V3.71154L5.19464 3.71154V13.75H18.8058Z" fill="#141B34"/>
<path fill-rule="evenodd" clip-rule="evenodd" d="M10.3038 10.7215L12.3038 5.72147L13.6966 6.27855L11.6966 11.2786L10.3038 10.7215ZM15.9395 8.50001L14.4699 7.03034L15.5305 5.96968L18.0609 8.50001L15.5305 11.0303L14.4699 9.96968L15.9395 8.50001ZM8.46987 5.96968L9.53053 7.03034L8.06086 8.50001L9.53053 9.96968L8.46987 11.0303L5.93954 8.50001L8.46987 5.96968Z" fill="#141B34"/>
</svg>
