<svg width="24" height="24" viewBox="0 0 24 24" fill="none" xmlns="http://www.w3.org/2000/svg">
<path fill-rule="evenodd" clip-rule="evenodd" d="M2.46967 1.46967C2.61032 1.32902 2.80109 1.25 3 1.25H21C21.4142 1.25 21.75 1.58579 21.75 2V22C21.75 22.4142 21.4142 22.75 21 22.75H3C2.58579 22.75 2.25 22.4142 2.25 22V2C2.25 1.80109 2.32902 1.61032 2.46967 1.46967ZM6.78193 7.75H6V6.25H18V7.75H17.2181C17.2601 7.80255 17.3027 7.85684 17.3454 7.91255C17.5465 8.17503 17.7612 8.48441 17.9289 8.80211C18.087 9.1016 18.25 9.49388 18.25 9.9C18.25 11.1515 17.2875 12.25 16 12.25C14.7125 12.25 13.75 11.1515 13.75 9.9C13.75 9.49388 13.913 9.1016 14.0711 8.80211C14.2388 8.48441 14.4535 8.17503 14.6546 7.91255C14.6973 7.85684 14.7399 7.80255 14.7819 7.75H12.75V13.25H14V14.75H10V13.25H11.25V7.75H9.21807C9.26012 7.80255 9.30271 7.85684 9.34539 7.91255C9.54646 8.17503 9.76121 8.48441 9.9289 8.80211C10.087 9.1016 10.25 9.49388 10.25 9.9C10.25 11.1515 9.2875 12.25 8 12.25C6.7125 12.25 5.75 11.1515 5.75 9.9C5.75 9.49388 5.91302 9.1016 6.0711 8.80211C6.23879 8.48441 6.45354 8.17503 6.65461 7.91255C6.69729 7.85684 6.73988 7.80255 6.78193 7.75ZM8 17.75H16V16.25H8V17.75Z" fill="#141B34"/>
</svg>
