<svg width="24" height="24" viewBox="0 0 24 24" fill="none" xmlns="http://www.w3.org/2000/svg">
<path d="M6.5 9.5H2V22H6.5V9.5Z" fill="#141B34"/>
<path d="M6.5 4.25C6.5 5.49264 5.49264 6.5 4.25 6.5C3.00736 6.5 2 5.49264 2 4.25C2 3.00736 3.00736 2 4.25 2C5.49264 2 6.5 3.00736 6.5 4.25Z" fill="#141B34"/>
<path d="M14.0001 9.5H9.5V22H14.0001V15.7502C14.0001 14.7837 14.7835 14.0002 15.75 14.0002C16.7165 14.0002 17.5 14.7837 17.5 15.7502V22H21.9987L22.0001 14.0002C22.0001 11.515 19.6364 9.50024 17.2968 9.50024C15.9649 9.50024 14.7767 10.1531 14.0001 11.174V9.5Z" fill="#141B34"/>
</svg>
