<svg width="24" height="24" viewBox="0 0 24 24" fill="none" xmlns="http://www.w3.org/2000/svg">
<path fill-rule="evenodd" clip-rule="evenodd" d="M12.001 4.25C10.7461 4.25 9.59252 4.85728 8.78304 5.87317L8.15987 6.65526L6.5957 5.40891L7.21888 4.62683C8.36391 3.18981 10.07 2.25 12.001 2.25C13.9319 2.25 15.638 3.18981 16.783 4.62683L17.4062 5.40891L15.8421 6.65526L15.2189 5.87317C14.4094 4.85728 13.2558 4.25 12.001 4.25Z" fill="#141B34"/>
<path fill-rule="evenodd" clip-rule="evenodd" d="M12.001 7.5957C11.5425 7.5957 11.1039 7.81621 10.783 8.21888L10.1599 9.00096L8.5957 7.75461L9.21888 6.97253C9.87529 6.14874 10.8665 5.5957 12.001 5.5957C13.1355 5.5957 14.1266 6.14874 14.783 6.97253L15.4062 7.75461L13.8421 9.00096L13.2189 8.21888C12.898 7.81621 12.4594 7.5957 12.001 7.5957Z" fill="#141B34"/>
<path fill-rule="evenodd" clip-rule="evenodd" d="M22.75 10.25H1.25V21.75H22.75V10.25ZM7.25 18.75V17.25H5.75V13.25H4.25V18.75H7.25ZM15.4354 13.25H14L13.0102 16.3278L11.9932 13.2515L10.561 13.25L12.1933 18.75H13.8431L15.4354 13.25ZM9.75 18.75H8.25V13.25H9.75V18.75ZM19.75 14.75V13.25H16.25V18.75H19.75V17.25H17.75V16.75H19.25V15.25H17.75V14.75H19.75Z" fill="#141B34"/>
</svg>
