<svg width="24" height="24" viewBox="0 0 24 24" fill="none" xmlns="http://www.w3.org/2000/svg">
<path d="M21.3338 22.75L1.24805 2.66421L2.66226 1.25L22.748 21.3358L21.3338 22.75Z" fill="#141B34"/>
<path d="M3.24782 10.0808C3.24782 12.8756 4.36224 15.0557 6.5004 16.9504C7.89148 18.1832 10.3904 20.8041 11.3574 22.3904C11.4914 22.6102 11.7287 22.7459 11.9861 22.7499C12.2434 22.7539 12.4849 22.6257 12.6256 22.4103C13.587 20.9392 15.7974 18.5196 17.2077 17.2115L13.271 13.2749C12.8861 13.4204 12.4689 13.5001 12.033 13.5001C10.1 13.5001 8.53297 11.9331 8.53297 10.0001C8.53297 9.56424 8.61265 9.14697 8.75824 8.76208L4.90499 4.90883C3.86208 6.36334 3.24782 8.15065 3.24782 10.0808Z" fill="#141B34"/>
<path d="M20.7478 10.0808C20.7478 5.21085 16.8374 1.25012 11.9978 1.25012C9.97521 1.25012 8.11489 1.94193 6.63449 3.10279L10.4232 6.89148C10.9051 6.64142 11.4525 6.50012 12.033 6.50012C13.966 6.50012 15.533 8.06713 15.533 10.0001C15.533 10.5806 15.3917 11.128 15.1416 11.6099L18.948 15.4163C20.1356 13.8861 20.7478 12.1523 20.7478 10.0808Z" fill="#141B34"/>
</svg>
