<svg width="24" height="24" viewBox="0 0 24 24" fill="none" xmlns="http://www.w3.org/2000/svg">
<path fill-rule="evenodd" clip-rule="evenodd" d="M3.74886 6.90016C2.75038 9.18942 2.75038 11.8113 3.74886 14.1006L1.91565 14.9002C0.694784 12.1011 0.694783 8.8997 1.91565 6.10059L3.74886 6.90016ZM20.2511 14.1006C21.2496 11.8113 21.2496 9.18942 20.2511 6.90016L22.0844 6.10059C23.3052 8.8997 23.3052 12.1011 22.0844 14.9002L20.2511 14.1006Z" fill="#141B34"/>
<path fill-rule="evenodd" clip-rule="evenodd" d="M12 2.25C7.69305 2.25 4.25 5.8691 4.25 10.2726C4.25 12.8044 5.23264 14.7843 7.11977 16.5044C8.33443 17.6115 10.5142 19.964 11.3548 21.3823C11.4878 21.6066 11.7277 21.7458 11.9884 21.7498C12.2491 21.7538 12.4932 21.6222 12.633 21.4021C13.5293 19.9913 15.6787 17.5996 16.8802 16.5044C18.7674 14.7843 19.75 12.8044 19.75 10.2726C19.75 5.8691 16.307 2.25 12 2.25ZM12 13C13.6569 13 15 11.6569 15 10C15 8.34315 13.6569 7 12 7C10.3431 7 9 8.34315 9 10C9 11.6569 10.3431 13 12 13Z" fill="#141B34"/>
</svg>
