<svg width="24" height="24" viewBox="0 0 24 24" fill="none" xmlns="http://www.w3.org/2000/svg">
<path d="M5.14841 19.2648C5.10999 19.2948 5.08016 19.3208 5.05714 19.3427C5.09085 19.3748 5.13935 19.4156 5.20842 19.4648C5.48893 19.6644 5.95964 19.8851 6.63132 20.0873C7.96201 20.4877 9.86037 20.75 12 20.75C14.1396 20.75 16.038 20.4877 17.3687 20.0873C18.0404 19.8851 18.5111 19.6644 18.7916 19.4648C18.8606 19.4156 18.9091 19.3748 18.9429 19.3427C18.9198 19.3208 18.89 19.2948 18.8516 19.2648C18.63 19.0919 18.246 18.8904 17.6773 18.6965L18.3227 16.8035C18.9987 17.034 19.6148 17.3235 20.082 17.688C20.5356 18.0421 21 18.5922 21 19.3425C21 20.1582 20.4547 20.736 19.9511 21.0944C19.4219 21.4709 18.7211 21.7689 17.945 22.0024C16.3803 22.4733 14.2787 22.75 12 22.75C9.72135 22.75 7.61972 22.4733 6.05497 22.0024C5.27894 21.7689 4.57807 21.4709 4.04894 21.0944C3.54526 20.736 3 20.1582 3 19.3425C3 18.5922 3.46435 18.0421 3.91804 17.688C4.38525 17.3235 5.00128 17.034 5.67728 16.8035L6.32272 18.6965C5.754 18.8904 5.37003 19.0919 5.14841 19.2648Z" fill="#141B34"/>
<path fill-rule="evenodd" clip-rule="evenodd" d="M12 1.25C7.73326 1.25 4.25 4.6476 4.25 8.86856C4.25 11.2888 5.24678 13.173 7.1357 14.799C8.35082 15.8451 10.5276 18.0646 11.3647 19.3986C11.4997 19.6136 11.7343 19.7458 11.9881 19.7498C12.2419 19.7538 12.4806 19.6292 12.6223 19.4185C13.5158 18.0902 15.6629 15.8332 16.8643 14.799C18.7532 13.173 19.75 11.2888 19.75 8.86856C19.75 4.6476 16.2667 1.25 12 1.25ZM15 9C15 10.6569 13.6569 12 12 12C10.3431 12 9 10.6569 9 9C9 7.34315 10.3431 6 12 6C13.6569 6 15 7.34315 15 9Z" fill="#141B34"/>
</svg>
