<svg width="24" height="24" viewBox="0 0 24 24" fill="none" xmlns="http://www.w3.org/2000/svg">
<path d="M21.3358 22.75L1.25 2.66421L2.66421 1.25L22.75 21.3358L21.3358 22.75Z" fill="#141B34"/>
<path d="M3.25195 10.0807C3.25195 12.8754 4.36638 15.0556 6.50454 16.9503C7.89562 18.183 10.3945 20.804 11.3616 22.3903C11.4955 22.61 11.7329 22.7457 11.9902 22.7498C12.2475 22.7538 12.489 22.6256 12.6298 22.4101C13.5913 20.9388 15.8024 18.5186 17.2126 17.2106L4.90978 4.9078C3.86647 6.36248 3.25195 8.15013 3.25195 10.0807Z" fill="#141B34"/>
<path d="M20.752 10.0807C20.752 5.21073 16.8415 1.25 12.002 1.25C9.97974 1.25 8.11975 1.94154 6.63949 3.10199L18.9528 15.4153C20.1399 13.8853 20.752 12.1518 20.752 10.0807Z" fill="#141B34"/>
</svg>
