<svg width="24" height="24" viewBox="0 0 24 24" fill="none" xmlns="http://www.w3.org/2000/svg">
<path fill-rule="evenodd" clip-rule="evenodd" d="M10.2203 21.8482C10.6562 22.0976 11.0206 22.2873 11.2779 22.4155L12 22.7499L12.7221 22.4155C12.9794 22.2873 13.3438 22.0976 13.7797 21.8482C14.6496 21.3504 15.813 20.61 16.9801 19.6405C19.2892 17.7226 21.75 14.7911 21.75 10.9679C21.75 5.60079 17.3848 1.24988 12 1.24988C6.61522 1.24988 2.25 5.60079 2.25 10.9679C2.25 14.7911 4.71077 17.7226 7.01986 19.6405C8.18703 20.61 9.35038 21.3504 10.2203 21.8482ZM12 6.99988C9.79086 6.99988 8 8.79074 8 10.9999C8 13.209 9.79086 14.9999 12 14.9999C14.2091 14.9999 16 13.209 16 10.9999C16 8.79074 14.2091 6.99988 12 6.99988Z" fill="#141B34"/>
</svg>
