<svg width="24" height="24" viewBox="0 0 24 24" fill="none" xmlns="http://www.w3.org/2000/svg">
<path fill-rule="evenodd" clip-rule="evenodd" d="M1.25 12C1.25 6.06294 6.06294 1.25 12 1.25C17.9371 1.25 22.75 6.06294 22.75 12C22.75 12.3632 22.732 12.7221 22.6968 13.0761C22.087 13.4384 21.5412 13.6856 21.2403 13.7964L21.2358 13.7981C20.4396 14.0973 19.9975 14.2502 18.9999 14.2502C17.4632 14.2502 16.1691 13.8778 15.4152 13.3759L14.584 14.6245C15.6545 15.3371 17.265 15.7502 18.9999 15.7502C20.2528 15.7502 20.8875 15.5313 21.7612 15.2031C21.913 15.1471 22.1094 15.0659 22.3372 14.9605C21.0516 19.4579 16.9102 22.75 12 22.75C6.06294 22.75 1.25 17.9371 1.25 12ZM16 7.75C15.3096 7.75 14.75 8.30964 14.75 9C14.75 9.69036 15.3096 10.25 16 10.25H16.009C16.6993 10.25 17.259 9.69036 17.259 9C17.259 8.30964 16.6993 7.75 16.009 7.75H16Z" fill="#141B34"/>
</svg>
