<svg width="24" height="24" viewBox="0 0 24 24" fill="none" xmlns="http://www.w3.org/2000/svg">
<path fill-rule="evenodd" clip-rule="evenodd" d="M1.25 2.5C1.25 2.08579 1.58579 1.75 2 1.75H22C22.4142 1.75 22.75 2.08579 22.75 2.5V14.1668C21.5676 12.5501 19.6564 11.5 17.5 11.5C13.9101 11.5 11 14.4101 11 18C11 18.7909 11.1413 19.5489 11.4 20.25H2C1.58579 20.25 1.25 19.9142 1.25 19.5V2.5ZM6.41603 5.37598L5.58398 6.62405L12 10.9014L18.416 6.62405L17.584 5.37598L12 9.09863L6.41603 5.37598Z" fill="#141B34"/>
<path fill-rule="evenodd" clip-rule="evenodd" d="M17.5 14.6591C15.6549 14.6591 14.1591 16.1549 14.1591 18C14.1591 19.8451 15.6549 21.3409 17.5 21.3409V23.25C14.6005 23.25 12.25 20.8995 12.25 18C12.25 15.1005 14.6005 12.75 17.5 12.75C20.3995 12.75 22.75 15.1005 22.75 18V18.4773C22.75 19.7952 21.6816 20.8636 20.3636 20.8636C19.676 20.8636 19.0562 20.5728 18.6208 20.1073C18.2866 20.2854 17.9051 20.3864 17.5 20.3864C16.182 20.3864 15.1136 19.318 15.1136 18C15.1136 16.682 16.182 15.6136 17.5 15.6136C18.818 15.6136 19.8864 16.682 19.8864 18V18.4773C19.8864 18.7409 20.1 18.9545 20.3636 18.9545C20.6272 18.9545 20.8409 18.7409 20.8409 18.4773V18C20.8409 16.1549 19.3451 14.6591 17.5 14.6591ZM17.9773 18C17.9773 17.7364 17.7636 17.5227 17.5 17.5227C17.2364 17.5227 17.0227 17.7364 17.0227 18C17.0227 18.2636 17.2364 18.4773 17.5 18.4773C17.7636 18.4773 17.9773 18.2636 17.9773 18Z" fill="#141B34"/>
</svg>
