<svg width="24" height="24" viewBox="0 0 24 24" fill="none" xmlns="http://www.w3.org/2000/svg">
<path d="M1.25 2.72368C1.25 2.18593 1.68754 1.75 2.22727 1.75H21.7727C22.3125 1.75 22.75 2.18593 22.75 2.72368V10.5H20.796V7.60217L12.0003 12L3.20508 7.6024V18.3026H12V20.25H2.22727C1.68754 20.25 1.25 19.8141 1.25 19.2763V2.72368Z" fill="#141B34"/>
<path fill-rule="evenodd" clip-rule="evenodd" d="M18.5 11.75C16.9812 11.75 15.75 12.9812 15.75 14.5V15.25H14.25V22.25H22.75V15.25H21.25V14.5C21.25 12.9812 20.0188 11.75 18.5 11.75ZM19.75 14.5V15.25H17.25V14.5C17.25 13.8096 17.8096 13.25 18.5 13.25C19.1904 13.25 19.75 13.8096 19.75 14.5Z" fill="#141B34"/>
</svg>
