<svg width="24" height="24" viewBox="0 0 24 24" fill="none" xmlns="http://www.w3.org/2000/svg">
<path d="M14.9992 1.28973C14.3665 1.12436 13.7127 1.48996 13.5417 2.11228L10.5476 13.0106L8.84319 10.1206C8.42909 9.41851 7.48533 9.22701 6.81896 9.70671C6.31076 10.0725 6.11594 10.7277 6.34538 11.3031L9.73815 18.156L9.07582 20.3996L18.069 22.75L18.7789 20.7305C18.9461 20.6236 19.5647 20.2309 19.8003 20.0706C20.0366 19.9098 20.2788 19.7381 20.4804 19.5811C20.6933 19.4151 20.825 19.2926 20.873 19.2279C21.1283 18.8845 21.332 18.4596 21.5477 17.8357C21.7644 17.2088 21.985 16.4065 22.2853 15.3134L22.6909 13.8387C22.9096 13.0425 22.5055 12.2108 21.7398 11.871L21.4039 11.7219C21.1271 11.5991 20.7999 11.7467 20.7196 12.0389L20.4445 13.0405L19.664 12.8391L19.9391 11.8376C20.1863 10.9377 19.6381 10.0161 18.7209 9.77639C18.3717 9.68512 18.0093 9.88659 17.9144 10.2324L17.6392 11.2339L16.8587 11.0325L17.1339 10.031C17.381 9.13115 16.8329 8.20953 15.9156 7.9698L15.2798 7.80362L14.8338 9.42723L14.0533 9.22585L15.8416 2.71597C16.0128 2.09271 15.6329 1.45536 14.9992 1.28973Z" fill="#141B34"/>
<path fill-rule="evenodd" clip-rule="evenodd" d="M8.18902 2.75H7V1.25H10.75V5H9.25V3.81034L7.41848 5.6414L6.35795 4.58061L8.18902 2.75ZM5.64082 7.41923L3.81041 9.25H5V10.75H1.25V7H2.75V8.18909L4.58006 6.35867L5.64082 7.41923Z" fill="#141B34"/>
</svg>
