<svg width="24" height="24" viewBox="0 0 24 24" fill="none" xmlns="http://www.w3.org/2000/svg">
<path d="M14.3748 13.0445L19.1849 11.5415C19.638 11.4 19.8581 10.9092 19.6963 10.4858L16.3023 1.25098H10.6223L14.3748 13.0445Z" fill="#141B34"/>
<path fill-rule="evenodd" clip-rule="evenodd" d="M9.04832 1.25098H7.69689L4.30297 10.4858C4.14108 10.9092 4.36119 11.4 4.81436 11.5415L10.757 13.3984L9.782 14.8986L7.34031 15.6155C6.72641 15.7958 6.56646 16.513 6.90044 16.9568L8.51361 19.1003L8.3807 21.8518C8.3545 22.3942 8.89469 22.9462 9.54021 22.6921L11.9635 21.7383L14.4076 22.6928C15.0569 22.9463 15.5957 22.3874 15.5646 21.8439L15.4098 19.1417L17.0545 16.9571C17.3888 16.513 17.2283 15.7946 16.6131 15.6153L14.1508 14.8976L12.6733 12.6367C12.6719 12.6345 12.6704 12.6324 12.669 12.6302L9.04832 1.25098ZM5.95915 10.3277L8.3191 3.90632L10.8484 11.8554L5.95915 10.3277ZM10.7372 16.1815L11.9642 14.2936L13.1986 16.1825L15.2992 16.7947L13.8808 18.6787L14.0096 20.927L11.9614 20.1272L9.92708 20.9278L10.038 18.6314L8.65449 16.793L10.7372 16.1815Z" fill="#141B34"/>
</svg>
