<svg width="24" height="24" viewBox="0 0 24 24" xmlns="http://www.w3.org/2000/svg">
    <path fill-rule="evenodd" clip-rule="evenodd" d="M19 9.99993L5 9.99992L5 7.99992L19 7.99993L19 9.99993Z"/>
    <path fill-rule="evenodd" clip-rule="evenodd" d="M10.7455 5.25C10.7455 4.55964 11.3032 4 11.9911 4H12C12.6879 4 13.2455 4.55964 13.2455 5.25C13.2455 5.94036 12.6879 6.5 12 6.5H11.9911C11.3032 6.5 10.7455 5.94036 10.7455 5.25Z"/>
    <path fill-rule="evenodd" clip-rule="evenodd" d="M19 14.9999L5 14.9999L5 12.9999L19 12.9999L19 14.9999Z"/>
    <path fill-rule="evenodd" clip-rule="evenodd" d="M19 19.9999L5 19.9999L5 17.9999L19 17.9999L19 19.9999Z"/>
</svg>
