<svg width="24" height="24" viewBox="0 0 24 24" fill="none" xmlns="http://www.w3.org/2000/svg">
<path fill-rule="evenodd" clip-rule="evenodd" d="M18.25 3.75V1.25H20.25V3.75H22.75V5.75H20.25V8.25H18.25V5.75H15.75V3.75H18.25Z" fill="#141B34"/>
<path fill-rule="evenodd" clip-rule="evenodd" d="M12.7895 2.25H12.7895H12.7896C13.4486 2.24999 13.8205 2.24999 14.1405 2.2722C14.261 2.28057 14.3808 2.29122 14.5 2.30412V7H17V9.5H21.5V7H21.5829C22.227 8.15558 22.631 9.46439 22.7278 10.8595C22.75 11.1796 22.75 11.5514 22.75 12.2105V12.2895C22.75 12.9486 22.75 13.3204 22.7278 13.6405C22.4082 18.2443 18.7443 21.9082 14.1405 22.2278C13.8204 22.25 13.4486 22.25 12.7895 22.25H11.2105C10.5514 22.25 10.1796 22.25 9.85949 22.2278C8.63831 22.143 7.48219 21.8226 6.43709 21.3113L1.47483 22.75L2.77921 18.0954C1.92471 16.8022 1.38603 15.2804 1.2722 13.6405C1.24999 13.3205 1.24999 12.9486 1.25 12.2895V12.2895V12.2895V12.2105V12.2105V12.2104C1.24999 11.5514 1.24999 11.1795 1.2722 10.8595C1.59176 6.25572 5.25571 2.59176 9.85949 2.2722C10.1795 2.24999 10.5514 2.24999 11.2105 2.25H11.2105H11.2105H12.7895ZM9.00897 11.5H7V13.5H9.00897V11.5ZM13.0045 11.5H10.9955V13.5H13.0045V11.5ZM17 11.5H14.991V13.5H17V11.5Z" fill="#141B34"/>
</svg>
