<svg width="24" height="24" viewBox="0 0 24 24" fill="none" xmlns="http://www.w3.org/2000/svg">
<path fill-rule="evenodd" clip-rule="evenodd" d="M22 1.25L2 1.25C1.58579 1.25 1.25 1.58579 1.25 2V18C1.25 18.4142 1.58579 18.75 2 18.75H5.25V22C5.25 22.2883 5.41526 22.5511 5.67511 22.676C5.93496 22.8009 6.24339 22.7658 6.46852 22.5857L11.2631 18.75L22 18.75C22.1989 18.75 22.3897 18.671 22.5303 18.5303C22.671 18.3897 22.75 18.1989 22.75 18V2C22.75 1.80109 22.671 1.61032 22.5303 1.46967C22.3897 1.32902 22.1989 1.25 22 1.25ZM14.9688 8.03039L16.9384 10.0001L14.9688 11.9697L16.0294 13.0304L19.0597 10.0001L16.0294 6.96973L14.9688 8.03039ZM7.96978 6.96973L9.03044 8.03039L7.06077 10.0001L9.03044 11.9697L7.96978 13.0304L4.93945 10.0001L7.96978 6.96973ZM12.2891 6.7627L10.2891 12.7627L11.7121 13.237L13.7121 7.23704L12.2891 6.7627Z" fill="#141B34"/>
</svg>
