<svg width="24" height="24" viewBox="0 0 24 24" fill="none" xmlns="http://www.w3.org/2000/svg">
<path fill-rule="evenodd" clip-rule="evenodd" d="M11.2104 2.25012H11.2104H11.2104H12.0859V7.20717H15.9039L15.861 7.25007L19.043 10.432L21.8846 7.59045C22.3531 8.59443 22.647 9.69706 22.7277 10.8596C22.75 11.1797 22.7499 11.5515 22.7499 12.2106V12.2896C22.7499 12.9487 22.75 13.3206 22.7277 13.6406C22.4082 18.2444 18.7442 21.9084 14.1404 22.2279C13.8204 22.2501 13.4485 22.2501 12.7895 22.2501H11.2104C10.5513 22.2501 10.1795 22.2501 9.85943 22.2279C8.63825 22.1432 7.48213 21.8227 6.43703 21.3114L1.47476 22.7501L2.77915 18.0955C1.92465 16.8023 1.38597 15.2806 1.27214 13.6406C1.24993 13.3206 1.24993 12.9487 1.24994 12.2897V12.2896V12.2896V12.2106V12.2106V12.2106C1.24993 11.5515 1.24993 11.1797 1.27214 10.8596C1.5917 6.25584 5.25565 2.59188 9.85943 2.27233C10.1795 2.25011 10.5513 2.25011 11.2104 2.25012ZM7.49994 14.25H16.4999V15.75H7.49994V14.25ZM7.49994 9.25H12.9999V10.75H7.49994V9.25Z" fill="#141B34"/>
<path fill-rule="evenodd" clip-rule="evenodd" d="M19.043 1.25L22.7501 4.95711L19.043 8.66421L17.6288 7.25L18.9217 5.95711H13.3359V3.95711L18.9217 3.95711L17.6288 2.66421L19.043 1.25Z" fill="#141B34"/>
</svg>
