<svg width="24" height="24" viewBox="0 0 24 24" fill="none" xmlns="http://www.w3.org/2000/svg">
<path d="M14.75 6.75V9.25H17.25L22.75 3.75L20.25 1.25L14.75 6.75Z" fill="#141B34"/>
<path fill-rule="evenodd" clip-rule="evenodd" d="M14.1405 2.27214C15.0923 2.33821 16.004 2.54724 16.8542 2.87797L13.5 6.23221V10.5H17.7678L21.468 6.79977C22.179 8.00349 22.6253 9.38314 22.7278 10.8594C22.75 11.1795 22.75 11.5513 22.75 12.2104V12.2895C22.75 12.9485 22.75 13.3204 22.7278 13.6405C22.4082 18.2442 18.7443 21.9082 14.1405 22.2277C13.8204 22.25 13.4486 22.2499 12.7895 22.2499H11.2105C10.5514 22.2499 10.1796 22.25 9.85949 22.2277C8.63831 22.143 7.48219 21.8226 6.43709 21.3112L1.47483 22.7499L2.77921 18.0954C1.92471 16.8021 1.38603 15.2804 1.2722 13.6405C1.24999 13.3204 1.24999 12.9485 1.25 12.2895V12.2894V12.2104V12.2104C1.24999 11.5513 1.24999 11.1795 1.2722 10.8594C1.59176 6.25565 5.25571 2.5917 9.85949 2.27214C10.1796 2.24993 10.5514 2.24993 11.2105 2.24994H11.2105H12.7895H12.7895C13.4486 2.24993 13.8204 2.24993 14.1405 2.27214ZM9.00897 11.4999H7V13.4999H9.00897V11.4999ZM13.0045 11.4999H10.9955V13.4999H13.0045V11.4999Z" fill="#141B34"/>
</svg>
