<svg width="24" height="24" viewBox="0 0 24 24" fill="none" xmlns="http://www.w3.org/2000/svg">
<path fill-rule="evenodd" clip-rule="evenodd" d="M14.2015 14.2014C14.9936 13.4094 15.8777 12.8085 16.693 12.4949C17.0996 12.3385 17.523 12.2406 17.928 12.2506C18.2415 12.2583 18.5697 12.333 18.8571 12.5177C19.2069 12.556 19.58 12.6612 19.9232 12.8025C20.3629 12.9835 20.826 13.2537 21.1818 13.6095C23.2727 15.7005 23.2727 19.0906 21.1818 21.1816C19.0908 23.2726 15.7006 23.2726 13.6096 21.1816C13.2538 20.8258 12.9836 20.3628 12.8026 19.9231C12.6613 19.5799 12.5562 19.2068 12.5178 18.857C12.3331 18.5696 12.2585 18.2413 12.2507 17.9279C12.2407 17.5229 12.3386 17.0995 12.495 16.6929C12.8086 15.8776 13.4095 14.9934 14.2015 14.2014ZM20.1211 14.6702C19.9843 14.5335 19.788 14.3986 19.5605 14.2845C19.5245 14.5695 19.4444 14.858 19.3365 15.1386C19.023 15.9538 18.422 16.838 17.63 17.63C17.5212 17.7388 17.411 17.8437 17.2998 17.9445C17.3414 18.0983 17.3961 18.2383 17.4748 18.3709C17.609 18.5972 17.8448 18.8536 18.323 19.0927L17.6522 20.4343C16.9465 20.0815 16.482 19.6374 16.1846 19.1362C16.1346 19.0517 16.0902 18.9672 16.0507 18.8832C15.6267 19.1396 15.2015 19.3347 14.796 19.4525C14.6347 19.4993 14.4618 19.5375 14.2841 19.5597C14.3983 19.7875 14.5333 19.9842 14.6702 20.1211C16.1754 21.6263 18.6159 21.6263 20.1211 20.1211C21.6263 18.6159 21.6263 16.1755 20.1211 14.6702Z" fill="#141B34"/>
<path d="M5 1.24988C4.58579 1.24988 4.25 1.58566 4.25 1.99988V3.19019L8.30973 7.24993L18.3509 7.24973L16.25 4.73208V1.99988C16.25 1.58566 15.9142 1.24988 15.5 1.24988H5Z" fill="#141B34"/>
<path d="M18.75 8.74972L8.74908 8.74992V22.7501H13.1156C12.9198 22.5932 12.7305 22.4239 12.5489 22.2423C12.0144 21.7078 11.6479 21.0585 11.4156 20.4942C11.2705 20.1419 11.1469 19.7479 11.0736 19.3419C10.8454 18.8684 10.7616 18.3846 10.7512 17.965C10.7348 17.303 10.8936 16.6781 11.095 16.1544C11.5001 15.1012 12.236 14.0456 13.1409 13.1407C14.0457 12.2359 15.1013 11.5 16.1545 11.0949C16.6782 10.8935 17.3031 10.7346 17.9651 10.751C18.2098 10.7571 18.4764 10.7881 18.75 10.8582V8.74972Z" fill="#141B34"/>
<path d="M7.24908 8.3106V22.7501H2C1.58579 22.7501 1.25 22.4143 1.25 22.0001V8.00011C1.25 7.80104 1.32915 7.61013 1.47001 7.46945L3.94053 5.00204L7.24908 8.3106Z" fill="#141B34"/>
</svg>
