<svg width="24" height="24" viewBox="0 0 24 24" fill="none" xmlns="http://www.w3.org/2000/svg">
<path fill-rule="evenodd" clip-rule="evenodd" d="M16.5 1.25C14.9812 1.25 13.75 2.48122 13.75 4V4.75H12.25V11.75H20.75V4.75H19.25V4C19.25 2.48122 18.0188 1.25 16.5 1.25ZM15.25 4V4.75H17.75V4C17.75 3.30964 17.1904 2.75 16.5 2.75C15.8096 2.75 15.25 3.30964 15.25 4Z" fill="#141B34"/>
<path fill-rule="evenodd" clip-rule="evenodd" d="M12.316 3.25C12.4503 2.49575 12.7835 1.81035 13.2595 1.25H4C3.58579 1.25 3.25 1.58579 3.25 2V22C3.25 22.4142 3.58579 22.75 4 22.75H18C18.4142 22.75 18.75 22.4142 18.75 22V13.25H10.75V3.25H12.316ZM9.5 20H12.5V18H9.5V20Z" fill="#141B34"/>
</svg>
