<svg width="24" height="24" viewBox="0 0 24 24" fill="none" xmlns="http://www.w3.org/2000/svg">
<path fill-rule="evenodd" clip-rule="evenodd" d="M1.25 2C1.25 1.58579 1.58579 1.25 2 1.25H22C22.4142 1.25 22.75 1.58579 22.75 2V12.5458L21.3976 10.7461L17.6756 13.5447H15C13.7574 13.5447 12.75 14.5521 12.75 15.7947L12.75 18.75H2C1.58579 18.75 1.25 18.4142 1.25 18V2ZM17.491 11H19.5V9H17.491V11ZM6.5 11H4.49102V9H6.5V11ZM12 6.75C10.2051 6.75 8.75 8.20507 8.75 10C8.75 11.7949 10.2051 13.25 12 13.25C13.7949 13.25 15.25 11.7949 15.25 10C15.25 8.20507 13.7949 6.75 12 6.75Z" fill="#141B34"/>
<path fill-rule="evenodd" clip-rule="evenodd" d="M21.0996 12.8477L22.75 15.0439V16.546H15.75V17.7982H14.25V15.796C14.25 15.3818 14.5858 15.046 15 15.046H20.8752L19.9004 13.7488L21.0996 12.8477ZM22.75 17.7982V19.7982C22.75 20.2124 22.4142 20.5482 22 20.5482H16.125L17.1 21.8482L15.9 22.7482L14.25 20.5482V19.0482H21.25V17.7982H22.75Z" fill="#141B34"/>
</svg>
