<svg width="24" height="24" viewBox="0 0 24 24" fill="none" xmlns="http://www.w3.org/2000/svg">
<path fill-rule="evenodd" clip-rule="evenodd" d="M2.27867 18.6964C3.80212 18.087 4.89544 17.87 5.75012 17.7927V16.5H10.2501V17.5H14.2501V18.5H18.2501V19.6951C19.2829 19.6041 20.1596 19.413 20.8312 19.2211C21.2957 19.0884 21.6637 18.9548 21.9193 18.8526C22.0471 18.8015 22.147 18.7581 22.217 18.7265L22.7501 18.4635V1.78647L21.3622 2.45989C21.149 2.54516 20.8295 2.66159 20.4191 2.77886C19.5973 3.01364 18.4175 3.25 17.0001 3.25C15.1745 3.25 13.5354 2.88927 12.3175 2.32046C10.8703 1.64454 9.00862 1.25 7.00012 1.25C5.87894 1.25 4.34107 1.25585 1.72158 2.30364L1.25012 2.49223V19.1078L2.27867 18.6964ZM12.0001 13.75C10.2052 13.75 8.75012 12.2949 8.75012 10.5C8.75012 8.70507 10.2052 7.25 12.0001 7.25C13.795 7.25 15.2501 8.70507 15.2501 10.5C15.2501 12.2949 13.795 13.75 12.0001 13.75ZM6.50012 10.5V8.49103H4.50012V10.5H6.50012ZM19.5001 10.4988V12.5078H17.5001V10.4988H19.5001Z" fill="#141B34"/>
<path fill-rule="evenodd" clip-rule="evenodd" d="M11.0002 18.75V22.75H13.0002V18.75H11.0002ZM15.0002 19.75V21.75H17.0002V19.75H15.0002ZM7.00024 17.75L7.00024 19.75H9.00024V17.75H7.00024Z" fill="#141B34"/>
</svg>
