<svg width="24" height="24" viewBox="0 0 24 24" fill="none" xmlns="http://www.w3.org/2000/svg">
<path d="M12.5301 1.46967C12.2372 1.17678 11.7623 1.17678 11.4694 1.46967L9.74234 3.19675L7.12306 2.7602C6.8374 2.71259 6.54986 2.8337 6.38433 3.07133C6.21881 3.30897 6.20489 3.62066 6.34857 3.8721L7.70737 6.25H16.2921L17.6509 3.8721C17.7946 3.62066 17.7807 3.30897 17.6152 3.07133C17.4497 2.8337 17.1621 2.71259 16.8765 2.7602L14.2572 3.19675L12.5301 1.46967Z" fill="#141B34"/>
<path fill-rule="evenodd" clip-rule="evenodd" d="M7.25421 7.75H16.7457C17.4654 8.56197 18.266 9.55911 19.0128 10.6648C20.2204 12.4526 21.3288 14.5845 21.6825 16.7124C21.9733 18.4618 21.3013 19.997 20.1465 21.0691C19.0032 22.1305 17.3822 22.75 15.6916 22.75H8.30828C6.6177 22.75 4.99674 22.1305 3.85345 21.0691C2.6986 19.997 2.0266 18.4618 2.31737 16.7124C2.67106 14.5845 3.7795 12.4526 4.98713 10.6648C5.73395 9.55911 6.53449 8.56197 7.25421 7.75ZM10.1355 12.0893C10.454 11.8505 10.8356 11.6781 11.2498 11.5836V10.75H12.7498V11.5845C13.5384 11.7652 14.2345 12.2303 14.5644 12.9303L13.2075 13.5697C13.0903 13.321 12.6681 13 11.9998 13C11.5941 13 11.2556 13.1243 11.0355 13.2893C10.8157 13.4542 10.7498 13.6248 10.7498 13.75C10.7498 13.8752 10.8157 14.0458 11.0355 14.2107C11.2556 14.3757 11.5941 14.5 11.9998 14.5C12.6986 14.5 13.3602 14.7115 13.864 15.0893C14.368 15.4673 14.7498 16.0468 14.7498 16.75C14.7498 17.4532 14.368 18.0327 13.864 18.4107C13.5455 18.6495 13.1639 18.8219 12.7498 18.9164V19.75H11.2498V18.9155C10.4611 18.7348 9.76501 18.2697 9.43512 17.5697L10.792 16.9303C10.9092 17.179 11.3314 17.5 11.9998 17.5C12.4055 17.5 12.7439 17.3757 12.964 17.2107C13.1838 17.0458 13.2498 16.8752 13.2498 16.75C13.2498 16.6248 13.1838 16.4542 12.964 16.2893C12.7439 16.1243 12.4055 16 11.9998 16C11.3009 16 10.6393 15.7885 10.1355 15.4107C9.63154 15.0327 9.24976 14.4532 9.24976 13.75C9.24976 13.0468 9.63154 12.4673 10.1355 12.0893Z" fill="#141B34"/>
</svg>
