<svg width="24" height="24" viewBox="0 0 24 24" fill="none" xmlns="http://www.w3.org/2000/svg">
<path fill-rule="evenodd" clip-rule="evenodd" d="M2 3.25C1.58579 3.25 1.25 3.58579 1.25 4V20C1.25 20.4142 1.58579 20.75 2 20.75H14.25V16.75H22.75V4C22.75 3.58579 22.4142 3.25 22 3.25H2ZM8.80078 12C8.80078 10.2051 10.2559 8.75 12.0508 8.75C13.8457 8.75 15.3008 10.2051 15.3008 12C15.3008 13.7949 13.8457 15.25 12.0508 15.25C10.2559 15.25 8.80078 13.7949 8.80078 12ZM3.5 12.75H6.5V11.25H3.5L3.5 12.75Z" fill="#141B34"/>
<path d="M15.75 20.25V18.25H22.75V20.25H15.75Z" fill="#141B34"/>
</svg>
