<svg width="24" height="24" viewBox="0 0 24 24" fill="none" xmlns="http://www.w3.org/2000/svg">
<path fill-rule="evenodd" clip-rule="evenodd" d="M6.10938 18.3555L7.10938 16.3555L8.89823 17.2499L7.89823 19.2499L6.10938 18.3555ZM10.6094 18.3555L11.6094 16.3555L13.3982 17.2499L12.3982 19.2499L10.6094 18.3555ZM15.1094 18.3555L16.1094 16.3555L17.8982 17.2499L16.8982 19.2499L15.1094 18.3555ZM7.10938 22.3555L8.10938 20.3555L9.89823 21.2499L8.89823 23.2499L7.10938 22.3555ZM11.6094 22.3555L12.6094 20.3555L14.3982 21.2499L13.3982 23.2499L11.6094 22.3555Z" fill="#141B34"/>
<path fill-rule="evenodd" clip-rule="evenodd" d="M1.95853 8.57974C2.46175 9.45844 3.17654 10.139 4.00113 10.5931C2.35088 11.6037 1.25 13.4231 1.25 15.5C1.25 17.4038 2.17527 19.0916 3.60066 20.138L6.43799 14.3428L10.038 16.1428L10.938 14.3428L14.538 16.1428L15.438 14.3428L19.9101 16.5788L17.7304 21.245C20.523 21.1244 22.75 18.8223 22.75 16C22.75 13.3541 20.7927 11.1653 18.2469 10.8027C18.1428 7.44224 15.3858 4.75 12 4.75C11.9067 4.75 11.8139 4.75204 11.7216 4.75609C11.6072 4.24066 11.4145 3.73438 11.1397 3.25455C10.4229 2.00293 9.27509 1.152 7.99255 0.78665C7.68421 0.698817 7.35231 0.771121 7.10866 0.9792C6.86501 1.18728 6.74204 1.50343 6.7812 1.82114C6.89893 2.77626 6.45189 3.74549 5.58504 4.25004C4.72017 4.75344 3.67359 4.65753 2.91993 4.08326C2.66429 3.88846 2.32768 3.83502 2.02412 3.94102C1.72056 4.04703 1.49072 4.29828 1.41243 4.60968C1.08672 5.9053 1.242 7.32856 1.95853 8.57974ZM3.185 6.31676C3.23715 6.76732 3.37942 7.21446 3.61864 7.63218C4.14484 8.551 5.02726 9.12892 5.98611 9.29297C6.53241 7.36479 7.98051 5.81594 9.84591 5.13109C9.77166 4.81354 9.65063 4.50083 9.47955 4.20211C9.24355 3.79001 8.93636 3.44692 8.58292 3.17891C8.30957 4.28356 7.60885 5.28195 6.5482 5.8993C5.48709 6.51692 4.27537 6.63082 3.185 6.31676Z" fill="#141B34"/>
</svg>
