<svg width="24" height="24" viewBox="0 0 24 24" fill="none" xmlns="http://www.w3.org/2000/svg">
<path d="M7.49323 15.6825C7.15872 15.4392 6.73147 15.4392 6.39697 15.6825L6.39022 15.6875C4.90588 16.7487 2.98434 16.7486 1.5 15.6874L2.66318 14.0605C3.4509 14.6236 4.43607 14.6243 5.22425 14.0624C6.25843 13.3125 7.63178 13.3125 8.66596 14.0625C9.46633 14.633 10.4646 14.6321 11.2213 14.083L12.3959 15.7018C10.9139 16.7771 8.97214 16.7399 7.49999 15.6874L7.49323 15.6825Z" fill="#141B34"/>
<path d="M6.77227 18.3037C8.24425 17.2388 10.1664 17.2451 11.6465 18.3032L11.6533 18.3081C12.0032 18.5627 12.4469 18.5589 12.7662 18.3266L12.773 18.3216C14.2573 17.2604 16.1788 17.2605 17.6632 18.3217L16.5 19.9486C15.7123 19.3855 14.7271 19.3848 13.939 19.9466C12.8896 20.7075 11.4994 20.667 10.4805 19.9282C9.68977 19.3645 8.70792 19.3702 7.94187 19.9261L7.93369 19.932C6.88923 20.6739 5.53335 20.6821 4.49323 19.9253L5.66995 18.3081C5.99932 18.5477 6.41357 18.5567 6.77227 18.3037Z" fill="#141B34"/>
<path d="M16.2254 10.6113C14.9119 8.37928 15.1683 5.6807 16.6586 3.7463C14.672 3.25234 12.4949 3.48823 10.5798 4.57295C7.80908 6.14236 6.33252 9.06635 6.51746 12C6.51789 12.0069 6.51833 12.0138 6.51878 12.0207C7.56596 11.9186 8.64045 12.1928 9.54088 12.8434C9.83492 13.0512 10.1263 13.0248 10.3412 12.8689L11.5552 11.9879L14.4942 16.0727C15.8853 15.8914 17.3235 16.2343 18.5364 17.1014L19.5789 17.8467C19.7536 17.7358 19.9114 17.6199 20.0503 17.5C21.2496 16.4645 22.0839 15.1272 22.502 13.6756C20.0492 13.9746 17.5389 12.8432 16.2254 10.6113Z" fill="#141B34"/>
</svg>
