<svg width="24" height="24" viewBox="0 0 24 24" fill="none" xmlns="http://www.w3.org/2000/svg">
<path d="M16.2866 16.8472C15.2145 16.0509 13.8847 16.0509 12.8126 16.8472L12.5433 17.0472C12.1791 17.3176 11.8182 17.3176 11.4541 17.0472L11.1848 16.8472C10.1126 16.0509 8.78288 16.0509 7.71072 16.8472L8.90315 18.4528C9.2673 18.1824 9.62819 18.1824 9.99234 18.4528L10.2616 18.6528C11.3338 19.4491 12.6635 19.4491 13.7357 18.6528L14.005 18.4528C14.3691 18.1824 14.73 18.1824 15.0942 18.4528L16.2866 16.8472Z" fill="#141B34"/>
<path d="M6.85163 20.8472C7.92379 20.0509 9.25352 20.0509 10.3257 20.8472L9.13325 22.4528C8.7691 22.1824 8.40821 22.1824 8.04406 22.4528L7.77475 22.6528C6.70259 23.4491 5.37287 23.4491 4.30071 22.6528L4.0314 22.4528C3.66725 22.1824 3.30637 22.1824 2.94221 22.4528L1.74979 20.8472C2.82195 20.0509 4.15167 20.0509 5.22383 20.8472L5.49314 21.0472C5.85729 21.3176 6.21817 21.3176 6.58232 21.0472L6.85163 20.8472Z" fill="#141B34"/>
<path d="M18.7735 20.8472C19.8457 20.0509 21.1754 20.0509 22.2476 20.8472L21.0551 22.4528C20.691 22.1824 20.3301 22.1824 19.9659 22.4528L19.6966 22.6528C18.6245 23.4491 17.2947 23.4491 16.2226 22.6528L15.9533 22.4528C15.5891 22.1824 15.2282 22.1824 14.8641 22.4528L13.6717 20.8472C14.7438 20.0509 16.0735 20.0509 17.1457 20.8472L17.415 21.0472C17.7792 21.3176 18.14 21.3176 18.5042 21.0472L18.7735 20.8472Z" fill="#141B34"/>
<path fill-rule="evenodd" clip-rule="evenodd" d="M1.95874 8.57974C2.46196 9.45844 3.17675 10.139 4.00134 10.5931C2.3511 11.6037 1.25021 13.4231 1.25021 15.5C1.25021 16.7728 1.66378 17.9491 2.36387 18.9017C3.58924 18.566 4.90201 18.7875 6.01202 19.5662L6.0306 19.5758L6.09043 19.5477C6.49975 19.2646 6.93617 19.0569 7.38527 18.9245L5.61238 16.5373L6.81662 15.6429C8.3931 14.4722 10.4078 14.4527 11.9989 15.5845C13.59 14.4527 15.6047 14.4722 17.1811 15.6429L18.3854 16.5373L16.6125 18.9245C17.0616 19.0569 17.498 19.2646 17.9073 19.5477L17.9672 19.5758L17.9858 19.5662C19.1569 18.7447 20.5536 18.5433 21.8354 18.9621C22.4126 18.119 22.7502 17.0989 22.7502 16C22.7502 13.3541 20.7929 11.1653 18.2472 10.8027C18.143 7.44224 15.386 4.75 12.0002 4.75C11.9069 4.75 11.8141 4.75204 11.7218 4.75609C11.6074 4.24066 11.4147 3.73438 11.1399 3.25455C10.4231 2.00293 9.2753 1.152 7.99276 0.78665C7.68443 0.698817 7.35252 0.771121 7.10887 0.9792C6.86522 1.18728 6.74226 1.50343 6.78142 1.82114C6.89914 2.77626 6.45211 3.74549 5.58525 4.25004C4.72038 4.75344 3.6738 4.65753 2.92014 4.08326C2.6645 3.88846 2.3279 3.83502 2.02434 3.94102C1.72078 4.04703 1.49093 4.29828 1.41265 4.60968C1.08693 5.9053 1.24221 7.32856 1.95874 8.57974ZM3.18522 6.31676C3.23736 6.76732 3.37963 7.21446 3.61885 7.63218C4.14505 8.551 5.02748 9.12892 5.98633 9.29297C6.53262 7.36479 7.98072 5.81594 9.84612 5.13109C9.77187 4.81354 9.65084 4.50083 9.47977 4.20211C9.24377 3.79001 8.93657 3.44692 8.58313 3.17891C8.30978 4.28356 7.60907 5.28195 6.54842 5.8993C5.48731 6.51692 4.27559 6.63082 3.18522 6.31676Z" fill="#141B34"/>
</svg>
