<svg width="24" height="24" viewBox="0 0 24 24" fill="none" xmlns="http://www.w3.org/2000/svg">
<path fill-rule="evenodd" clip-rule="evenodd" d="M5.25 3.50012V1.25012H6.75V2.75012H12C12.4142 2.75012 12.75 3.08591 12.75 3.50012V6.00012H11.25V4.25012H6C5.58579 4.25012 5.25 3.91434 5.25 3.50012Z" fill="#141B34"/>
<path fill-rule="evenodd" clip-rule="evenodd" d="M12 5.24988C9.20275 5.24988 7.31874 6.23609 6.17746 7.93457C5.07617 9.57352 4.75 11.7579 4.75 13.9999C4.75 16.2418 5.07617 18.4262 6.17746 20.0652C7.31874 21.7637 9.20274 22.7499 12 22.7499C14.7972 22.7499 16.6812 21.7637 17.8225 20.0652C18.9238 18.4262 19.25 16.2418 19.25 13.9999C19.25 11.7579 18.9238 9.57353 17.8225 7.93457C16.6812 6.2361 14.7972 5.24988 12 5.24988ZM11 7.99988V10.9999H13V7.99988H11Z" fill="#141B34"/>
</svg>
