<svg width="24" height="24" viewBox="0 0 24 24" fill="none" xmlns="http://www.w3.org/2000/svg">
<path fill-rule="evenodd" clip-rule="evenodd" d="M12 1.25C8.77681 1.25 6.64252 2.48241 5.36262 4.54591C4.12483 6.54151 3.75 9.21526 3.75 12C3.75 14.7847 4.12483 17.4585 5.36262 19.4541C6.64252 21.5176 8.7768 22.75 12 22.75C15.2231 22.75 17.3574 21.5176 18.6373 19.4541C19.8751 17.4585 20.25 14.7847 20.25 12C20.25 9.21527 19.8751 6.54152 18.6373 4.54592C17.3574 2.48242 15.2231 1.25 12 1.25ZM14.9683 7.41388L11.9998 5.03906L9.03125 7.41388L9.96829 8.58518L11.2498 7.56V11.4391L9.96829 10.4139L9.03125 11.5852L11.9998 13.96L14.9683 11.5852L14.0312 10.4139L12.7498 11.4391V7.56L14.0312 8.58518L14.9683 7.41388Z" fill="#141B34"/>
</svg>
