<svg width="24" height="24" viewBox="0 0 24 24" fill="none" xmlns="http://www.w3.org/2000/svg">
<path fill-rule="evenodd" clip-rule="evenodd" d="M14.7733 1.44138C13.8788 1.33042 12.9508 1.25012 12.0001 1.25012C11.0494 1.25012 10.1213 1.33042 9.22692 1.44138C6.39389 1.79282 4.20705 4.15605 3.98672 6.94958C3.85833 8.5771 3.75006 10.2686 3.75006 12.0001C3.75006 13.7317 3.85833 15.4231 3.98672 17.0507C4.20705 19.8442 6.39403 22.2074 9.22701 22.5589C10.1213 22.6698 11.0494 22.7501 12.0001 22.7501C12.9508 22.7501 13.879 22.6698 14.7733 22.5589C17.6062 22.2073 19.7932 19.8442 20.0135 17.0507C20.1418 15.4231 20.2501 13.7317 20.2501 12.0001C20.2501 10.2686 20.1418 8.57712 20.0135 6.94962C19.7932 4.15604 17.6062 1.79282 14.7733 1.44138ZM14.5364 3.38099C14.0232 3.31733 13.5117 3.26605 13.0006 3.23547V8.2976L16.507 4.20672C15.9481 3.76879 15.2734 3.47242 14.5364 3.38099ZM17.7572 5.82144C17.9322 6.22351 18.0436 6.65597 18.0789 7.10404C18.1545 8.06223 18.2217 9.02726 18.2637 9.99986H14.1757L17.7572 5.82144ZM5.92232 7.10408C5.84673 8.06226 5.77951 9.02727 5.73744 9.99986H11.0006V3.23548C10.4895 3.26605 9.97795 3.31734 9.4648 3.38099C7.55955 3.61735 6.07066 5.22325 5.92232 7.10408Z" fill="#141B34"/>
</svg>
