<svg width="24" height="24" viewBox="0 0 24 24" fill="none" xmlns="http://www.w3.org/2000/svg">
<path fill-rule="evenodd" clip-rule="evenodd" d="M5.35163 4.58654C6.64401 2.48858 8.79941 1.25 12 1.25C15.2005 1.25 17.3559 2.48859 18.6483 4.58655C19.8862 6.59603 20.25 9.26561 20.25 12C20.25 14.7344 19.8862 17.404 18.6483 19.4135C17.3559 21.5114 15.2005 22.75 12 22.75C8.79941 22.75 6.64401 21.5114 5.35163 19.4135C4.11376 17.404 3.75 14.7344 3.75 12C3.75 9.26561 4.11376 6.59603 5.35163 4.58654ZM7.00029 5.61667C6.17678 6.95351 5.79421 8.80667 5.70898 10.9999H10.999V9.49989H10.499C10.0848 9.49989 9.74904 9.1641 9.74904 8.74989V5.74989C9.74904 5.33567 10.0848 4.99989 10.499 4.99989H10.999V3.25586C8.98663 3.47338 7.77156 4.36464 7.00029 5.61667ZM18.2891 10.9999C18.2039 8.80669 17.8213 6.95353 16.9978 5.61668C16.2265 4.36466 15.0114 3.4734 12.999 3.25587V4.99989H13.499C13.9133 4.99989 14.249 5.33567 14.249 5.74989V8.74989C14.249 9.1641 13.9133 9.49989 13.499 9.49989H12.999V10.9999H18.2891Z" fill="#141B34"/>
</svg>
