<svg width="24" height="24" viewBox="0 0 24 24" fill="none" xmlns="http://www.w3.org/2000/svg">
<path fill-rule="evenodd" clip-rule="evenodd" d="M12.0001 2L15.7072 5.70702L14.293 7.12125L13.0001 5.82838V9.4142H11.0001V5.82838L9.70723 7.12125L8.29303 5.70702L12.0001 2Z" fill="#141B34"/>
<path fill-rule="evenodd" clip-rule="evenodd" d="M13.0001 14.0856V18.1713L14.293 16.8784L15.7073 18.2926L12.0001 21.9998L8.29303 18.2926L9.70726 16.8784L11.0001 18.1713V14.0856H13.0001Z" fill="#141B34"/>
<path fill-rule="evenodd" clip-rule="evenodd" d="M18.1716 11.0001L16.8787 9.70717L18.2929 8.29297L22 12.0001L18.2929 15.7072L16.8787 14.293L18.1715 13.0001H14.5858V11.0001H18.1716Z" fill="#141B34"/>
<path fill-rule="evenodd" clip-rule="evenodd" d="M5.82846 13L7.12131 14.2928L5.70711 15.707L2 12L5.7071 8.29283L7.12133 9.70703L5.82839 11H9.41421V13H5.82846Z" fill="#141B34"/>
</svg>
