<svg width="24" height="24" viewBox="0 0 24 24" fill="none" xmlns="http://www.w3.org/2000/svg">
<path fill-rule="evenodd" clip-rule="evenodd" d="M9.75 4C9.75 2.75736 10.7574 1.75 12 1.75C13.2426 1.75 14.25 2.75736 14.25 4C14.25 4.21722 14.2192 4.42726 14.1618 4.62597L17.6832 9.02781C18.0857 8.84922 18.5313 8.75 19 8.75C20.7949 8.75 22.25 10.2051 22.25 12C22.25 13.7949 20.7949 15.25 19 15.25C17.3877 15.25 16.0496 14.076 15.794 12.5362L13.1018 12.3047C12.778 13.1499 11.9591 13.75 11 13.75C9.75736 13.75 8.75 12.7426 8.75 11.5C8.75 10.4677 9.44517 9.5978 10.3929 9.33286L11.2002 6.10369C10.842 5.96743 10.5276 5.74232 10.2839 5.45528L7.21108 7.03633C7.23667 7.18707 7.25 7.34198 7.25 7.5C7.25 8.4941 6.72252 9.36501 5.93218 9.84809L8.52042 16.7501C9.28605 16.7556 9.97727 17.0741 10.4726 17.5839L14.6507 14.4503L15.5507 15.6503L11.1891 18.9215C11.229 19.108 11.25 19.3016 11.25 19.5C11.25 21.0188 10.0188 22.25 8.5 22.25C6.98122 22.25 5.75 21.0188 5.75 19.5C5.75 18.5055 6.27795 17.6342 7.06887 17.1513L4.48087 10.2499C2.97089 10.2396 1.75 9.0124 1.75 7.5C1.75 5.98122 2.98122 4.75 4.5 4.75C5.32206 4.75 6.05987 5.1107 6.5638 5.68247L9.7504 4.04289C9.75013 4.02862 9.75 4.01433 9.75 4ZM11.9117 9.44236C12.491 9.69943 12.9416 10.194 13.1398 10.8024L15.8943 11.0393C16.0203 10.6315 16.2244 10.2581 16.4891 9.93635L13.2415 5.87678C13.087 5.9792 12.9191 6.06304 12.741 6.12513L11.9117 9.44236Z" fill="#141B34"/>
</svg>
