<svg width="24" height="24" viewBox="0 0 24 24" fill="none" xmlns="http://www.w3.org/2000/svg">
<path fill-rule="evenodd" clip-rule="evenodd" d="M22.7501 15.793L16.043 22.5001L13.3359 19.793L14.7501 18.3788L16.043 19.6717L21.3359 14.3788L22.7501 15.793Z" fill="#141B34"/>
<path fill-rule="evenodd" clip-rule="evenodd" d="M6.99985 2.99977H9.99985V1.49977H11.9998V2.99977H14.9998V1.49977H16.9998V2.99977H19.9998C20.4141 2.99977 20.7498 3.33556 20.7498 3.74977V12.8437L16.0431 17.5505L14.7502 16.2576L11.2147 19.7931L13.9213 22.4998L1.99985 22.4998C1.58563 22.4998 1.24985 22.164 1.24985 21.7498V3.74977C1.24985 3.33556 1.58563 2.99977 1.99985 2.99977H4.99985V1.49977H6.99985V2.99977ZM6.99985 10.4998H14.9998V8.99977H6.99985V10.4998ZM6.99985 15.4998H10.9998V13.9998H6.99985V15.4998Z" fill="#141B34"/>
</svg>
