<svg width="24" height="24" viewBox="0 0 24 24" fill="none" xmlns="http://www.w3.org/2000/svg">
<path d="M3.91342 9.5C3.91342 4.94365 7.53354 1.25 11.9992 1.25C16.4648 1.25 20.0849 4.94365 20.0849 9.5V12.3008L22.2492 16.1652L21.7893 16.5687C19.5545 18.5294 15.9699 19.75 11.9992 19.75C8.02846 19.75 4.44389 18.5294 2.20905 16.5687L1.74918 16.1652L3.91342 12.3008V9.5Z" fill="#141B34"/>
<path fill-rule="evenodd" clip-rule="evenodd" d="M11.9992 21.25C10.2043 21.25 8.74918 19.7949 8.74918 18H7.24918C7.24918 20.6234 9.37582 22.75 11.9992 22.75C14.6225 22.75 16.7492 20.6234 16.7492 18H15.2492C15.2492 19.7949 13.7941 21.25 11.9992 21.25Z" fill="#141B34"/>
</svg>
