<svg width="24" height="24" viewBox="0 0 24 24" fill="none" xmlns="http://www.w3.org/2000/svg">
<path d="M9.47865 8.82849L9.43275 3.51246C9.43275 2.84307 8.88112 2.31094 8.21399 2.31094C7.54686 2.31094 6.99523 2.84307 6.99523 3.51246V11.4695H6.18753V7.75623C6.18753 7.08684 5.63589 6.55471 4.96876 6.55471C4.30163 6.55471 3.75 7.08684 3.75 7.75623V13.4592C3.75 14.8821 4.08778 16.2851 4.73631 17.5572L5.91349 20.2768L5.91348 22.75H14.8414L14.8419 20.7063L17.5497 18.9136L17.5587 18.9083C18.4017 18.4107 18.9335 17.9479 19.311 17.4569C19.6895 16.9646 19.9302 16.4219 20.1625 15.7344C20.2682 15.4217 20.181 15.1339 19.9623 14.908C19.7363 14.6745 19.37 14.5129 18.9571 14.5129C18.559 14.5129 18.1625 14.6811 17.7503 14.9621L16.1897 16.2368C14.4534 17.3052 12.1509 16.0288 12.1509 14.123C12.1509 12.2225 14.4402 10.9476 16.1747 12C16.5818 12.2088 16.9139 12.482 17.1765 12.7606C17.7005 13.3165 18.3184 13.7331 18.9653 13.7331C19.3877 13.7331 19.7631 13.5679 19.9957 13.3282C20.2212 13.0958 20.3122 12.7989 20.2054 12.4767C19.4758 10.2762 17.3208 8.67879 14.7733 8.67879C14.3616 8.6586 13.2985 8.75178 12.3393 9.28607L15.1836 2.87972C15.5092 2.09357 14.916 1.25 14.0729 1.25C13.6219 1.25 13.2057 1.49997 13.001 1.90166L10.1998 7.39622L10.1989 7.39794L9.47865 8.82849Z" fill="#141B34"/>
</svg>
