<svg width="24" height="24" viewBox="0 0 24 24" fill="none" xmlns="http://www.w3.org/2000/svg">
<path fill-rule="evenodd" clip-rule="evenodd" d="M13.8529 18.9133L13.853 18.9133L13.8531 18.9132L20.6623 12.0855L9.85611 1.25L8.43998 2.6623L9.75613 3.98202L2.37881 11.3794C0.873732 12.8885 0.873728 15.3342 2.37881 16.8434L4.44307 18.9132C5.29728 19.7698 6.00118 20.4757 6.63088 20.9722C7.28911 21.4912 7.9676 21.8659 8.7862 21.9398C9.02694 21.9616 9.26915 21.9616 9.50989 21.9398C10.3285 21.8659 11.007 21.4912 11.6652 20.9722C12.2949 20.4757 12.9988 19.7699 13.8529 18.9133ZM5.49609 11.0858L11.1681 5.39844L16.84 11.0858L5.49609 11.0858Z" fill="#141B34"/>
<path d="M20 15.9668C20.0587 16.0247 20.7543 16.6909 20.8531 16.7936C21.0499 16.9983 21.3143 17.2852 21.5808 17.6113C21.8449 17.9346 22.1242 18.3123 22.341 18.6974C22.5466 19.0624 22.75 19.5267 22.75 20.0001C22.75 21.5189 21.5188 22.7501 20 22.7501C18.4812 22.7501 17.25 21.5189 17.25 20.0001C17.25 19.5267 17.4534 19.0624 17.659 18.6974C17.8758 18.3123 18.1551 17.9346 18.4192 17.6113C18.6857 17.2852 18.9501 16.9983 19.1469 16.7936C19.2457 16.6909 19.9413 16.0247 20 15.9668Z" fill="#141B34"/>
</svg>
