<svg width="24" height="24" viewBox="0 0 24 24" fill="none" xmlns="http://www.w3.org/2000/svg">
<path fill-rule="evenodd" clip-rule="evenodd" d="M12 1.25C6.06294 1.25 1.25 6.06294 1.25 12C1.25 17.9371 6.06294 22.75 12 22.75L12.0761 22.7497L12.9349 22.7438L12.8133 21.8936C12.7716 21.6021 12.75 21.3038 12.75 21C12.75 17.5482 15.5482 14.75 19 14.75C19.848 14.75 20.6548 14.9185 21.3901 15.2231L22.1856 15.5526L22.4029 14.7194C22.6296 13.85 22.75 12.9385 22.75 12C22.75 6.06294 17.9371 1.25 12 1.25ZM7.73936 14.0361C7.2059 14.179 6.88931 14.7274 7.03226 15.2608C7.1752 15.7943 7.72354 16.1109 8.257 15.968L8.26568 15.9656C8.79914 15.8227 9.11573 15.2744 8.97278 14.7409C8.82984 14.2074 8.28151 13.8908 7.74804 14.0338L7.73936 14.0361ZM6.25 9C6.25 7.48122 7.48122 6.25 9 6.25C10.5188 6.25 11.75 7.48122 11.75 9C11.75 10.5188 10.5188 11.75 9 11.75C7.48122 11.75 6.25 10.5188 6.25 9ZM16.25 7.25C15.1454 7.25 14.25 8.14543 14.25 9.25C14.25 10.3546 15.1454 11.25 16.25 11.25C17.3546 11.25 18.25 10.3546 18.25 9.25C18.25 8.14543 17.3546 7.25 16.25 7.25Z" fill="#141B34"/>
</svg>
