<svg width="24" height="24" viewBox="0 0 24 24" fill="none" xmlns="http://www.w3.org/2000/svg">
<path d="M22.2496 13.9997C22.2496 16.6231 20.1229 18.75 17.4996 18.75H13.4998C10.8764 18.75 8.74979 16.6234 8.74979 14V12.25H22.25L22.2496 13.9997Z" fill="#141B34"/>
<path fill-rule="evenodd" clip-rule="evenodd" d="M7.70691 9.79289L10.2069 12.2929L8.79269 13.7071L6.29269 11.2071L7.70691 9.79289Z" fill="#141B34"/>
<path d="M2.33742 5.83764C3.12094 5.05412 4.39126 5.05412 5.17478 5.83764L7.66215 8.32501C8.44566 9.10852 8.44566 10.3789 7.66215 11.1624C6.87864 11.9459 5.60831 11.9459 4.8248 11.1624L2.33742 8.67499C1.55391 7.89148 1.55391 6.62115 2.33742 5.83764Z" fill="#141B34"/>
</svg>
