<svg width="24" height="24" viewBox="0 0 24 24" fill="none" xmlns="http://www.w3.org/2000/svg">
<path fill-rule="evenodd" clip-rule="evenodd" d="M1.25 3.75H10.2818L15.0583 7.92945L14.0706 9.05831L9.7182 5.25H1.25V3.75Z" fill="#141B34"/>
<path fill-rule="evenodd" clip-rule="evenodd" d="M1.25 12.75H5.75V14.25H1.25V12.75Z" fill="#141B34"/>
<path fill-rule="evenodd" clip-rule="evenodd" d="M8.49995 6.43933L11.0303 8.96966C11.8755 9.81484 11.8755 11.1851 11.0303 12.0303C10.1851 12.8755 8.8148 12.8755 7.96962 12.0303L6.93717 10.9979C5.84226 11.6676 4.41917 11.6269 3.3529 10.8272L2.44995 10.15L3.34995 8.94999L4.2529 9.6272C4.92807 10.1336 5.87285 10.0664 6.46962 9.46966L6.99995 8.93933L9.03028 10.9697C9.28967 11.2291 9.71023 11.2291 9.96962 10.9697C10.229 10.7103 10.229 10.2897 9.96962 10.0303L7.43929 7.49999L8.49995 6.43933Z" fill="#141B34"/>
<path fill-rule="evenodd" clip-rule="evenodd" d="M5.08251 9.95609L4.25 9.86394V20.25H22.75V7.75H7.68934L9.96967 10.0303C10.2291 10.2897 10.2291 10.7103 9.96967 10.9697C9.71028 11.2291 9.28972 11.2291 9.03033 10.9697L7 8.93934L6.46967 9.46967C6.09429 9.84505 5.58133 10.0113 5.08251 9.95609ZM13.5 16C14.6046 16 15.5 15.1045 15.5 14C15.5 12.8954 14.6046 12 13.5 12C12.3954 12 11.5 12.8954 11.5 14C11.5 15.1045 12.3954 16 13.5 16Z" fill="#141B34"/>
</svg>
