<svg width="24" height="24" viewBox="0 0 24 24" fill="none" xmlns="http://www.w3.org/2000/svg">
<path fill-rule="evenodd" clip-rule="evenodd" d="M2.46968 2.46966C2.61033 2.32901 2.8011 2.24999 3.00002 2.25L21 2.25046C21.4142 2.25047 21.75 2.58626 21.75 3.00046V21C21.75 21.4142 21.4142 21.75 21 21.75H3C2.58579 21.75 2.25 21.4142 2.25 21V3C2.25 2.80108 2.32902 2.61032 2.46968 2.46966ZM7.25 9C7.25 8.0335 8.0335 7.25 9 7.25C9.9665 7.25 10.75 8.0335 10.75 9C10.75 9.9665 9.9665 10.75 9 10.75C8.0335 10.75 7.25 9.9665 7.25 9ZM13.25 15C13.25 14.0335 14.0335 13.25 15 13.25C15.9665 13.25 16.75 14.0335 16.75 15C16.75 15.9665 15.9665 16.75 15 16.75C14.0335 16.75 13.25 15.9665 13.25 15ZM8.70718 16.7072L16.7072 8.70718L15.293 7.29297L7.29297 15.293L8.70718 16.7072Z" fill="#141B34"/>
</svg>
