<svg width="24" height="24" viewBox="0 0 24 24" fill="none" xmlns="http://www.w3.org/2000/svg">
<path d="M15.1132 22.4601C15.0725 22.4973 14.7631 22.75 14.7631 22.75H4.23691C4.23691 22.75 3.92748 22.4973 3.88679 22.4601C3.80544 22.3858 3.69405 22.2788 3.56276 22.139C3.30047 21.8599 2.95681 21.4479 2.61475 20.9029C1.92886 19.81 1.25 18.182 1.25 16.0333C1.25 12.7206 3.22214 9.87024 6.05508 8.57345C6.62422 8.31293 7.12982 8.25 7.68245 8.25H11.3176C11.8702 8.25 12.3758 8.31293 12.9449 8.57345C15.7779 9.87024 17.75 12.7206 17.75 16.0333C17.75 18.182 17.0711 19.81 16.3853 20.9029C16.0432 21.4479 15.6995 21.8599 15.4372 22.139C15.306 22.2788 15.1946 22.3858 15.1132 22.4601Z" fill="#141B34"/>
<path fill-rule="evenodd" clip-rule="evenodd" d="M11.75 2.25H7.25V5.25H7C6.58579 5.25 6.25 5.58579 6.25 6V8.99998H7.75V6.75H11.25V8.99998H12.75V6C12.75 5.58579 12.4142 5.25 12 5.25H11.75V2.25ZM10.25 5.25V3.75H8.75V5.25H10.25Z" fill="#141B34"/>
<path d="M15.25 5C15.25 2.92893 16.9289 1.25 19 1.25C21.0711 1.25 22.75 2.92893 22.75 5C22.75 7.07107 21.0711 8.75 19 8.75C16.9289 8.75 15.25 7.07107 15.25 5Z" fill="#141B34"/>
<path fill-rule="evenodd" clip-rule="evenodd" d="M8 4.75H5V3.25H8V4.75ZM16 4.75H11V3.25H16V4.75Z" fill="#141B34"/>
</svg>
