<svg width="24" height="24" viewBox="0 0 24 24" fill="none" xmlns="http://www.w3.org/2000/svg">
<path fill-rule="evenodd" clip-rule="evenodd" d="M5 5H7V7H5V5ZM9 5H11V7H9V5ZM5 8H7V10H5V8ZM9 8H11V10H9V8Z" fill="#141B34"/>
<path fill-rule="evenodd" clip-rule="evenodd" d="M2.22727 1.25C1.68754 1.25 1.25 1.68754 1.25 2.22727V11.0227H3.20455V3.20455H12.9773V21.7727C12.9773 22.3124 13.4148 22.75 13.9545 22.75L21.7727 22.75C22.0319 22.75 22.2805 22.647 22.4638 22.4638C22.647 22.2805 22.75 22.0319 22.75 21.7727V8.09088C22.75 7.55115 22.3125 7.11361 21.7727 7.11361H14.9318V2.22727C14.9318 1.68754 14.4943 1.25 13.9545 1.25H2.22727ZM19 10.25H17V11.75H19V10.25ZM19 14.25H17V15.75H19V14.25Z" fill="#141B34"/>
<path d="M3.25 14C3.25 12.4812 4.48122 11.25 6 11.25C7.51878 11.25 8.75 12.4812 8.75 14C8.75 15.5188 7.51878 16.75 6 16.75C4.48122 16.75 3.25 15.5188 3.25 14Z" fill="#141B34"/>
<path d="M2.63035 18.7444C3.47183 17.8673 4.65909 17.25 6 17.25C7.34091 17.25 8.52817 17.8673 9.36965 18.7444C10.207 19.6172 10.75 20.7969 10.75 22C10.75 22.4142 10.4142 22.75 10 22.75H2C1.58579 22.75 1.25 22.4142 1.25 22C1.25 20.7969 1.79304 19.6172 2.63035 18.7444Z" fill="#141B34"/>
</svg>
