<svg width="24" height="24" viewBox="0 0 24 24" fill="none" xmlns="http://www.w3.org/2000/svg">
<path d="M7 11.2503H6.5V10.2503H7C7.27614 10.2503 7.5 10.4742 7.5 10.7503C7.5 11.0264 7.27614 11.2503 7 11.2503Z" fill="#141B34"/>
<path d="M17 11.2503H16.5V10.2503H17C17.2761 10.2503 17.5 10.4742 17.5 10.7503C17.5 11.0264 17.2761 11.2503 17 11.2503Z" fill="#141B34"/>
<path fill-rule="evenodd" clip-rule="evenodd" d="M3 2.25C2.58579 2.25 2.25 2.58579 2.25 3V21C2.25 21.4142 2.58579 21.75 3 21.75L21 21.75C21.1989 21.75 21.3897 21.671 21.5303 21.5303C21.671 21.3897 21.75 21.1989 21.75 21V3C21.75 2.58579 21.4142 2.25 21 2.25H3ZM5.75 8.75029C5.33579 8.75029 5 9.08608 5 9.50029V15.0003H6.5V12.7503H7C8.10457 12.7503 9 11.8549 9 10.7503C9 9.64572 8.10457 8.75029 7 8.75029H5.75ZM15.75 8.75029C15.3358 8.75029 15 9.08608 15 9.50029V15.0003H16.5V12.7503H17C18.1046 12.7503 19 11.8549 19 10.7503C19 9.64572 18.1046 8.75029 17 8.75029H15.75ZM11.5 8.75H10V15.0003H11.5V12.7503H12.5V15.0003H14V8.75H12.5V11.2503H11.5V8.75Z" fill="#141B34"/>
</svg>
