<svg width="24" height="24" viewBox="0 0 24 24" fill="none" xmlns="http://www.w3.org/2000/svg">
<path fill-rule="evenodd" clip-rule="evenodd" d="M11.249 2.2201C11.249 1.63314 10.7566 1.16466 10.1855 1.26298C7.60416 1.70728 5.33621 3.08387 3.73094 5.03879C3.35991 5.49064 3.51372 6.15796 4.01615 6.45185L4.85689 6.94363C6.3063 4.90001 8.61082 3.50551 11.249 3.28157V2.2201ZM11.249 4.7882C9.16249 5.00262 7.33825 6.1019 6.15776 7.70455L11.249 10.6826V4.7882ZM4.09079 8.25031L3.26313 7.76619C2.76134 7.47267 2.11474 7.67036 1.91369 8.22092C1.48379 9.39815 1.24896 10.6712 1.24896 11.9999C1.24896 13.3285 1.48376 14.6015 1.91362 15.7786C2.11466 16.3292 2.76127 16.5269 3.26307 16.2334L4.09071 15.7493C3.55097 14.6129 3.24896 13.3416 3.24896 11.9999C3.24896 10.6581 3.551 9.38677 4.09079 8.25031ZM5.39159 14.9883C4.9788 14.0771 4.74896 13.0653 4.74896 11.9999C4.74896 10.9344 4.97882 9.92251 5.39167 9.01124L10.5008 11.9998L5.39159 14.9883ZM4.85678 17.056L4.01603 17.5478C3.51361 17.8416 3.35979 18.509 3.73081 18.9608C5.33608 20.9158 7.60409 22.2925 10.1855 22.7368C10.7566 22.8351 11.249 22.3666 11.249 21.7797V20.7182C8.61075 20.4942 6.30619 19.0997 4.85678 17.056ZM11.249 19.2116C9.16242 18.9971 7.33813 17.8978 6.15765 16.2951L11.249 13.3169V19.2116ZM12.749 20.7182V21.7796C12.749 22.3666 13.2414 22.8351 13.8126 22.7368C16.3946 22.2923 18.6631 20.915 20.2684 18.9592C20.6393 18.5073 20.4855 17.8401 19.9831 17.5463L19.1422 17.0544C17.6929 19.099 15.3879 20.4942 12.749 20.7182ZM17.8414 16.2935C16.661 17.8971 14.8362 18.997 12.749 19.2115V13.3148L17.8414 16.2935ZM19.908 15.7476L20.7355 16.2316C21.2374 16.5251 21.8841 16.3274 22.085 15.7767C22.5144 14.6 22.749 13.3277 22.749 11.9999C22.749 10.672 22.5144 9.39957 22.0849 8.22288C21.884 7.67222 21.2373 7.47444 20.7355 7.76799L19.9079 8.25203C20.4472 9.38805 20.749 10.6587 20.749 11.9999C20.749 13.341 20.4473 14.6116 19.908 15.7476ZM18.607 9.01297C19.0194 9.92379 19.249 10.935 19.249 11.9999C19.249 13.0647 19.0194 14.0758 18.6071 14.9866L13.5008 11.9998L18.607 9.01297ZM17.8413 7.70608L12.749 10.6847V4.78821C14.8361 5.00272 16.6609 6.10263 17.8413 7.70608ZM19.1421 6.94517C17.6928 4.90073 15.3878 3.5056 12.749 3.28157V2.22012C12.749 1.63315 13.2414 1.16467 13.8126 1.26299C16.3945 1.70744 18.663 3.08464 20.2683 5.0404C20.6392 5.49226 20.4854 6.15947 19.983 6.45332L19.1421 6.94517Z" fill="#141B34"/>
</svg>
