<svg width="24" height="24" viewBox="0 0 24 24" fill="none" xmlns="http://www.w3.org/2000/svg">
<path d="M12.4365 5.29549C13.3411 4.57177 14.6238 4.56867 15.5313 5.28334L22.4162 9.87608C22.6247 10.0152 22.75 10.2493 22.75 10.5V18.5C22.75 20.5711 21.0711 22.25 19 22.25H13.4776C11.4065 22.25 9.72757 20.5711 9.72757 18.5L9.72757 14.7551H4.75C3.36929 14.7551 2.25 13.6358 2.25 12.2551C2.25 10.8744 3.36929 9.75513 4.75 9.75513L12.8693 9.75514L12.1015 8.85934C11.1853 7.79041 11.3371 6.17497 12.4365 5.29549Z" fill="#141B34"/>
<path fill-rule="evenodd" clip-rule="evenodd" d="M4.45613 1.75L1.24902 4.95711L4.45613 8.16421L5.87034 6.75L5.07745 5.95711L8.66324 5.95711L8.66324 3.95711L5.07745 3.95711L5.87034 3.16421L4.45613 1.75Z" fill="#141B34"/>
</svg>
