<svg width="24" height="24" viewBox="0 0 24 24" fill="none" xmlns="http://www.w3.org/2000/svg">
<path fill-rule="evenodd" clip-rule="evenodd" d="M19.7931 16.6552C19.8541 15.9098 19.5047 15.0908 19.01 14.646L20.3138 13.1959C21.2558 14.0429 21.8478 15.4547 21.7366 16.8141C21.6794 17.5143 21.4328 18.224 20.9256 18.827C20.4168 19.4319 19.6927 19.8736 18.7732 20.1135C17.4404 20.4612 15.535 20.9102 14.0458 21.2611C13.2923 21.4387 12.6454 21.5912 12.2331 21.6927L12 21.7501L11.7669 21.6927C11.3546 21.5912 10.7077 21.4387 9.95413 21.2611C8.46499 20.9102 6.55959 20.4612 5.22676 20.1135C4.30731 19.8736 3.58319 19.4319 3.07435 18.827C2.56715 18.224 2.32064 17.5143 2.26337 16.8141C2.15216 15.4547 2.7442 14.0429 3.68619 13.1959L4.98997 14.646C4.49526 15.0908 4.14591 15.9098 4.20688 16.6552C4.2357 17.0074 4.35367 17.3186 4.56664 17.5717C4.77798 17.823 5.1297 18.0728 5.71907 18.2266C7.0349 18.57 8.86865 19.0019 10.3421 19.349C10.9889 19.5014 11.5664 19.6374 12 19.7424C12.4336 19.6374 13.0111 19.5014 13.6579 19.349C15.1314 19.0019 16.9651 18.57 18.2809 18.2266C18.8703 18.0728 19.222 17.823 19.4334 17.5717C19.6463 17.3186 19.7643 17.0074 19.7931 16.6552Z" fill="#141B34"/>
<path fill-rule="evenodd" clip-rule="evenodd" d="M22.75 10.9775C22.75 9.77464 21.9177 8.64669 20.9611 7.71397C19.9679 6.74565 18.6665 5.82213 17.3975 5.02903C16.1227 4.23232 14.852 3.5495 13.9023 3.06676C13.609 2.91764 13.0596 2.69197 12.6164 2.50988C12.3411 2.39679 12.1067 2.30052 12 2.24982C11.8932 2.30052 11.6589 2.3968 11.3836 2.50988C10.9403 2.69197 10.391 2.91764 10.0976 3.06677C9.14799 3.5495 7.87723 4.23232 6.60249 5.02903C5.33353 5.82213 4.03207 6.74565 3.03892 7.71397C2.08228 8.64669 1.25 9.77465 1.25 10.9775C1.25 11.8873 1.55242 12.8217 2.18944 13.5383C2.83873 14.2688 3.79648 14.7275 5 14.7275H19C20.2035 14.7275 21.1613 14.2688 21.8106 13.5383C22.4476 12.8217 22.75 11.8873 22.75 10.9775ZM12 6.97784L14 7.97784C14 9.47784 13.2247 10.5735 12 10.9777C10.7753 10.5735 10 9.47768 10 7.97768L12 6.97784Z" fill="#141B34"/>
</svg>
