<svg width="24" height="24" viewBox="0 0 24 24" xmlns="http://www.w3.org/2000/svg">
    <path fill-rule="evenodd" clip-rule="evenodd" d="M3 21L3 11L5 11L5 21L3 21Z"/>
    <path fill-rule="evenodd" clip-rule="evenodd" d="M18 21L18 13L20 13L20 21L18 21Z"/>
    <path fill-rule="evenodd" clip-rule="evenodd" d="M18 8L18 3L20 3L20 8L18 8Z"/>
    <path fill-rule="evenodd" clip-rule="evenodd" d="M10.5 13L10.5 3L12.5 3L12.5 13L10.5 13Z"/>
    <path fill-rule="evenodd" clip-rule="evenodd" d="M3 6L3 3L5 3L5 6L3 6Z"/>
    <path fill-rule="evenodd" clip-rule="evenodd" d="M10.5 21L10.5 18L12.5 18L12.5 21L10.5 21Z"/>
    <path d="M1.25 7.25H6.75V11.75L1.25 11.75V7.25Z"/>
    <path d="M8.75 12.25H14.25V16.75H8.75V12.25Z"/>
    <path d="M16.25 9.25H21.75V13.75H16.25V9.25Z"/>
</svg>
