<svg width="24" height="24" viewBox="0 0 24 24" fill="none" xmlns="http://www.w3.org/2000/svg">
<path fill-rule="evenodd" clip-rule="evenodd" d="M12 3.75C7.44365 3.75 3.75 7.44365 3.75 12C3.75 16.5563 7.44365 20.25 12 20.25C16.5563 20.25 20.25 16.5563 20.25 12C20.25 7.44365 16.5563 3.75 12 3.75ZM2.25 12C2.25 6.61522 6.61522 2.25 12 2.25C17.3848 2.25 21.75 6.61522 21.75 12C21.75 17.3848 17.3848 21.75 12 21.75C6.61522 21.75 2.25 17.3848 2.25 12Z" fill="#141B34"/>
<path d="M11.25 5.25H12C13.1849 5.25 14.3489 5.56189 15.375 6.15433C16.4012 6.74676 17.2533 7.59887 17.8457 8.625C18.4381 9.65113 18.75 10.8151 18.75 12C18.75 13.1849 18.4381 14.3489 17.8457 15.375C17.2533 16.4011 16.4012 17.2532 15.375 17.8457C14.3489 18.4381 13.1849 18.75 12 18.75C10.8152 18.75 9.65116 18.4381 8.62503 17.8457C7.5989 17.2532 6.74679 16.4011 6.15436 15.375L5.77936 14.7255L11.25 11.567V5.25Z" fill="#141B34"/>
</svg>
