<svg width="24" height="24" viewBox="0 0 24 24" fill="none" xmlns="http://www.w3.org/2000/svg">
<path d="M8 1.24902H16V4.74902H8V1.24902Z" fill="#141B34"/>
<path fill-rule="evenodd" clip-rule="evenodd" d="M6.75 2.74902L3.25 2.74902L3.25 22.749L20.75 22.749L20.75 2.74902L17.25 2.74902V5.99892L6.75 5.99892L6.75 2.74902ZM5.75 9.24902L11.25 9.24902V10.749L5.75 10.749V9.24902ZM14.5001 13.0598L18.5608 8.99914L17.5001 7.93848L14.5001 10.9385L13.5001 9.93848L12.4395 10.9991L14.5001 13.0598ZM5.75 15.249L11.25 15.249V16.749H5.75V15.249ZM14.5001 19.0598L18.5608 14.9991L17.5001 13.9385L14.5001 16.9385L13.5001 15.9385L12.4395 16.9991L14.5001 19.0598Z" fill="#141B34"/>
</svg>
