<svg width="24" height="24" viewBox="0 0 24 24" fill="none" xmlns="http://www.w3.org/2000/svg">
<path fill-rule="evenodd" clip-rule="evenodd" d="M2.25 22.75L2.25141 1.25H12.3609L19.75 8.6291V12H4V21H19.75V22.75H2.25ZM17.7995 9.46008L11.5625 3.20508V9.46008H17.7995ZM7.75 13.25C8.85457 13.25 9.75 14.1454 9.75 15.25C9.75 16.0588 9.26992 16.7554 8.57919 17.0705L9.61671 19.75H8.10477L7.01506 17.25H6.75V19.75H5.25V13.25H7.75ZM6.75 15.75V14.75H7.75C8.02614 14.75 8.25 14.9739 8.25 15.25C8.25 15.5261 8.02614 15.75 7.75 15.75H6.75ZM15.9339 19.75H14.4971L13.842 17.75H12.158L11.5029 19.75H10.0661L11.942 13.25H14.058L15.9339 19.75ZM13 14.9434L13.392 16.25H12.608L13 14.9434ZM20.25 13.25H21.75V19.75H20.5676L19.0031 18.0951L17.4564 19.75H16.25V13.25H17.75V17.2391L18.9969 15.9049L20.25 17.2305V13.25Z" fill="#141B34"/>
</svg>
