<svg width="24" height="24" viewBox="0 0 24 24" fill="none" xmlns="http://www.w3.org/2000/svg">
<path fill-rule="evenodd" clip-rule="evenodd" d="M19.25 3.0344C19.8313 2.63141 20 2.22359 20 2H22C22 3.12641 21.2687 4.06859 20.3894 4.6781C19.4837 5.30588 18.2724 5.7 16.9574 5.7L7.68468 5.7C6.59922 5.7 5.64865 6.07323 4.98348 6.60569C4.30509 7.14873 4 7.7855 4 8.3H2C2 7.0145 2.72554 5.85127 3.73363 5.04431C4.75495 4.22677 6.14673 3.7 7.68468 3.7L16.9574 3.7C17.885 3.7 18.695 3.41912 19.25 3.0344Z" fill="#141B34"/>
<path fill-rule="evenodd" clip-rule="evenodd" d="M15.0039 10.4092L15.5039 4.90918L17.4957 5.09025L16.9957 10.5903L15.0039 10.4092Z" fill="#141B34"/>
<path fill-rule="evenodd" clip-rule="evenodd" d="M8.70216 10.676C8.83471 8.66454 8.93431 6.48663 9.00095 4.95605L10.9991 5.04305C10.9324 6.57497 10.832 8.77206 10.6978 10.8075C10.5661 12.8071 10.3963 14.7537 10.1749 15.7224C9.96409 16.6445 9.625 17.6855 8.99543 18.5118C8.3303 19.3848 7.34969 19.9996 6 19.9996V17.9996C6.65031 17.9996 7.0697 17.7393 7.40457 17.2998C7.775 16.8136 8.03591 16.1046 8.22514 15.2767C8.40373 14.4954 8.56726 12.7232 8.70216 10.676Z" fill="#141B34"/>
<path fill-rule="evenodd" clip-rule="evenodd" d="M12.25 17.25C12.25 14.6266 14.3766 12.5 17 12.5C19.6234 12.5 21.75 14.6266 21.75 17.25C21.75 19.8734 19.6234 22 17 22C14.3766 22 12.25 19.8734 12.25 17.25ZM19.0827 18H14.916V16.5H19.0827V18Z" fill="#141B34"/>
</svg>
