<svg width="24" height="24" viewBox="0 0 24 24" fill="none" xmlns="http://www.w3.org/2000/svg">
<path fill-rule="evenodd" clip-rule="evenodd" d="M3.25 22C3.25 22.1989 3.32902 22.3897 3.46967 22.5303C3.61032 22.671 3.80109 22.75 4 22.75H20C20.1989 22.75 20.3897 22.671 20.5303 22.5303C20.671 22.3897 20.75 22.1989 20.75 22V2C20.75 1.58579 20.4142 1.25 20 1.25L4 1.25C3.58579 1.25 3.25 1.58579 3.25 2L3.25 22ZM11 16L11 19H13V16H11ZM11 13.5V10.5H13L13 13.5H11ZM11 5L11 8H13V5L11 5Z" fill="#141B34"/>
</svg>
