<svg width="24" height="24" viewBox="0 0 24 24" fill="none" xmlns="http://www.w3.org/2000/svg">
<path fill-rule="evenodd" clip-rule="evenodd" d="M5.49159 18.0377C5.1883 17.7287 4.91046 17.3985 4.661 17.0498L3 18.2382C4.95634 20.9725 8.26845 22.75 12 22.75C15.7316 22.75 19.0437 20.9725 21 18.2382L19.339 17.0498C19.0923 17.3945 18.8179 17.7213 18.5186 18.0273L17.3868 14.6318H18V12.6318H16V8.63184H17V9.63184H19V7.63184C19 7.07955 18.5523 6.63184 18 6.63184H6.71085L4.89737 1.25L3 1.88246L6.96023 13.6318L5.49159 18.0377ZM7.15849 19.3615L8.73505 14.6318H15.2786L16.8528 19.3546C15.4656 20.2074 13.7994 20.7076 12 20.7076C10.2055 20.7076 8.54346 20.2101 7.15849 19.3615ZM10 8.63184H7.38477L8.73262 12.6318H10V8.63184ZM14 8.63184H12V12.6318H14V8.63184Z" fill="#141B34"/>
</svg>
