<svg width="24" height="24" viewBox="0 0 24 24" fill="none" xmlns="http://www.w3.org/2000/svg">
<path fill-rule="evenodd" clip-rule="evenodd" d="M15.1984 0.788947C13.4268 0.606395 11.617 1.06351 10.1055 2.20393V0.788947H8.10547V5.71943H12.6055V3.72288H11.4119C12.4992 2.94124 13.7638 2.64828 14.993 2.77494C16.8549 2.9668 18.6878 4.12981 19.7117 6.16704L21.4993 5.27171C20.1747 2.63629 17.7521 1.05209 15.1984 0.788947Z" fill="#141B34"/>
<path d="M14.0421 21.8897L14.0278 21.8901C13.8752 21.8942 13.6631 21.8993 13.4246 21.9026C12.9546 21.9093 12.3576 21.9098 11.915 21.8814C11.1124 21.8298 9.95716 21.6638 8.92225 21.2658C7.92111 20.8808 6.81567 20.1916 6.49973 18.9633C5.79056 16.2061 6.69003 13.659 7.574 12.1247L3.65461 9.88346C2.48187 9.21284 2.19719 7.68171 2.82486 6.60494C3.49597 5.45364 4.92646 5.18633 6.01724 5.81007L12.4083 9.46467L12.232 8.53215C11.985 7.22495 12.8815 5.98463 14.1947 5.78653C15.2868 5.62179 16.3526 6.23278 16.7501 7.26347L16.7536 7.27273L18.8599 13.1974L21.284 14.5236L16.1971 23.2501L14.0421 21.8897Z" fill="#141B34"/>
</svg>
