<svg width="24" height="24" viewBox="0 0 24 24" fill="none" xmlns="http://www.w3.org/2000/svg">
<path d="M8.55091 1.31098C10.3225 1.12812 12.1322 1.58603 13.6438 2.72841V1.25H15.6438V6.25H11.1438V4.25H12.3374C11.2501 3.467 9.98544 3.17354 8.75627 3.30041C6.89434 3.4926 5.06151 4.65763 4.03762 6.69839L2.25 5.80151C3.57453 3.16153 5.9972 1.57458 8.55091 1.31098Z" fill="#141B34"/>
<path d="M21.5317 5.75123C21.1513 5.22118 20.4114 5.09349 19.8823 5.45488L11.2322 11.3635L9.90868 12.2445L9.95414 8.57624C9.95278 7.77582 9.24174 7.15187 8.42696 7.24055C7.80312 7.30844 7.30608 7.78097 7.21751 8.38826L6.46907 13.5199C6.29663 14.7023 6.22136 15.2339 6.25985 15.7392C6.31975 16.5256 6.57823 17.2852 7.01211 17.9497C7.2909 18.3766 7.67686 18.7578 8.53905 19.6023L10.3288 21.3554C11.964 22.957 14.5251 23.2087 16.4526 21.9568L20.7153 19.174C21.2428 18.8136 21.3723 18.0956 20.9929 17.5669C20.6124 17.0369 19.8726 16.9092 19.3435 17.2706L18.9112 17.5659L18.4452 16.9087L19.7421 16.0228C20.2696 15.6625 20.3991 14.9445 20.0197 14.4158C19.6394 13.886 18.9 13.7582 18.371 14.119L17.938 14.4148L17.472 13.7576L18.7689 12.8717C19.2964 12.5114 19.4259 11.7933 19.0465 11.2647C18.666 10.7347 17.9262 10.607 17.3971 10.9683L16.1002 11.8542L15.6342 11.1971L16.9311 10.3112L16.9324 10.3103L21.2541 7.35825C21.7817 6.99791 21.9111 6.27987 21.5317 5.75123Z" fill="#141B34"/>
</svg>
