<svg width="24" height="24" viewBox="0 0 24 24" fill="none" xmlns="http://www.w3.org/2000/svg">
<path fill-rule="evenodd" clip-rule="evenodd" d="M16.5694 5.00006L14.25 2.68064L15.6806 1.25006L18 3.56948L20.3194 1.25006L21.75 2.68064L19.4306 5.00006L21.75 7.31948L20.3194 8.75006L18 6.43064L15.6806 8.75006L14.25 7.31948L16.5694 5.00006Z" fill="#141B34"/>
<path d="M2.25 18.9999C2.25 16.9289 3.92893 15.2499 6 15.2499C8.07107 15.2499 9.75 16.9289 9.75 18.9999C9.75 21.071 8.07107 22.7499 6 22.7499C3.92893 22.7499 2.25 21.071 2.25 18.9999Z" fill="#141B34"/>
<path fill-rule="evenodd" clip-rule="evenodd" d="M4 8.50006C4 6.01478 6.01472 4.00006 8.5 4.00006H12V6.00006H8.5C7.11929 6.00006 6 7.11935 6 8.50006C6 9.88077 7.11929 11.0001 8.5 11.0001H15.5C17.9853 11.0001 20 13.0148 20 15.5001C20 17.9853 17.9853 20.0001 15.5 20.0001H12V18.0001H15.5C16.8807 18.0001 18 16.8808 18 15.5001C18 14.1193 16.8807 13.0001 15.5 13.0001H8.5C6.01472 13.0001 4 10.9853 4 8.50006Z" fill="#141B34"/>
</svg>
