<svg width="24" height="24" viewBox="0 0 24 24" fill="none" xmlns="http://www.w3.org/2000/svg">
<path fill-rule="evenodd" clip-rule="evenodd" d="M1.5 4.5C1.5 3.94772 1.94772 3.5 2.5 3.5H21.5C22.0523 3.5 22.5 3.94772 22.5 4.5V19.5C22.5 20.0523 22.0523 20.5 21.5 20.5H12V18.5H20.5V5.5H3.5V10H1.5V4.5Z" fill="#141B34"/>
<path d="M1.54522 13.5C4.98016 13.5 8.5 16.5889 8.5 20.4996H10.5C10.5 15.4111 6.01006 11.5 1.54522 11.5V13.5Z" fill="#141B34"/>
<path d="M1.5 16.7349C3.4434 16.7349 5.27053 18.5547 5.27053 20.4996H7.27053C7.27053 17.4453 4.54316 14.7349 1.5 14.7349V16.7349Z" fill="#141B34"/>
<path d="M2.49553 18.5C1.94571 18.5 1.5 18.9477 1.5 19.5C1.5 20.0523 1.94571 20.5 2.49553 20.5H2.50447C3.05429 20.5 3.5 20.0523 3.5 19.5C3.5 18.9477 3.05429 18.5 2.50447 18.5H2.49553Z" fill="#141B34"/>
</svg>
