<svg width="24" height="24" viewBox="0 0 24 24" fill="none" xmlns="http://www.w3.org/2000/svg">
<path d="M12.9755 3.30712C14.9899 0.740951 18.8061 0.552211 21.1276 2.87373C23.4572 5.20339 23.259 9.03822 20.6671 11.0469L20.6528 11.058L17.8604 13.0145L15.4065 10.0026L16.9203 8.61329L16.9439 8.59488C17.4856 8.1721 17.526 7.39147 17.0679 6.93341C16.6098 6.47535 15.8292 6.51576 15.4064 7.0574L15.3806 7.09052L13.8138 8.69126L10.6826 5.77976L12.9755 3.30712Z" fill="#141B34"/>
<path fill-rule="evenodd" clip-rule="evenodd" d="M4.5 17.75C3.5335 17.75 2.75 18.5335 2.75 19.5C2.75 20.4665 3.5335 21.25 4.5 21.25C5.4665 21.25 6.25 20.4665 6.25 19.5C6.25 18.5335 5.4665 17.75 4.5 17.75ZM1.25 19.5C1.25 17.7051 2.70507 16.25 4.5 16.25C6.29493 16.25 7.75 17.7051 7.75 19.5C7.75 21.2949 6.29493 22.75 4.5 22.75C2.70507 22.75 1.25 21.2949 1.25 19.5Z" fill="#141B34"/>
<path fill-rule="evenodd" clip-rule="evenodd" d="M7.71381 5.22981L3.71381 17.6401L2.28613 17.1799L6.28613 4.76965L7.71381 5.22981ZM17.9925 12.0654L7.08223 21.5654L6.0972 20.4341L17.0075 10.9341L17.9925 12.0654Z" fill="#141B34"/>
</svg>
