<svg width="24" height="24" viewBox="0 0 24 24" fill="none" xmlns="http://www.w3.org/2000/svg">
<path fill-rule="evenodd" clip-rule="evenodd" d="M6.00098 22.5V19.5H8.00098V22.5H6.00098ZM16.001 22.5V19.5H18.001V22.5H16.001Z" fill="#141B34"/>
<path fill-rule="evenodd" clip-rule="evenodd" d="M21.5 11V8L23.5 8V11H21.5Z" fill="#141B34"/>
<path fill-rule="evenodd" clip-rule="evenodd" d="M0.5 11L0.5 8L2.5 8V11H0.5Z" fill="#141B34"/>
<path fill-rule="evenodd" clip-rule="evenodd" d="M4.50391 1.5C3.95162 1.5 3.50391 1.94772 3.50391 2.5V19.5C3.50391 20.0523 3.95162 20.5 4.50391 20.5H19.5039C20.0562 20.5 20.5039 20.0523 20.5039 19.5V2.5C20.5039 1.94772 20.0562 1.5 19.5039 1.5H4.50391ZM5.50391 6.25V12.75H11.0039V6.25H5.50391ZM18.5039 12.75H13.0039V6.25H18.5039V12.75ZM7.00391 17.5H9.00391V15.5H7.00391V17.5ZM15.0039 17.5H17.0039V15.5H15.0039V17.5Z" fill="#141B34"/>
</svg>
