<svg width="24" height="24" viewBox="0 0 24 24" fill="none" xmlns="http://www.w3.org/2000/svg">
<path fill-rule="evenodd" clip-rule="evenodd" d="M9 9H5V7H9V9Z" fill="#141B34"/>
<path fill-rule="evenodd" clip-rule="evenodd" d="M5 16C5 17.1046 5.89543 18 7 18C8.10457 18 9 17.1046 9 16H11C11 18.2091 9.20914 20 7 20C4.79086 20 3 18.2091 3 16H5Z" fill="#141B34"/>
<path fill-rule="evenodd" clip-rule="evenodd" d="M20 16C19.4477 16 19 16.4477 19 17C19 17.5523 19.4477 18 20 18C20.5523 18 21 17.5523 21 17C21 16.4477 20.5523 16 20 16ZM17 17C17 15.3431 18.3431 14 20 14C21.6569 14 23 15.3431 23 17C23 18.6569 21.6569 20 20 20C18.3431 20 17 18.6569 17 17Z" fill="#141B34"/>
<path d="M1 16C1 12.6863 3.68629 10 7 10C10.3137 10 13 12.6863 13 16V17H1V16Z" fill="#141B34"/>
<path d="M18.4781 7C18.0285 6.55326 17.0696 6 15 6V4C17.7069 4 19.2774 4.82079 20.1432 5.85982C20.5625 6.36296 20.7766 6.87208 20.8854 7.26361C20.9397 7.45913 21 7.63281 21 8C21 8.55228 20.5523 9 20 9H17.7232L18.8682 11.0039C19.0693 11.3557 19.0381 11.7941 18.7894 12.1139L15.2894 16.6139C15.0999 16.8575 14.8086 17 14.5 17H12V15H14.0109L16.7995 11.4147L15.1318 8.49614C14.9549 8.18664 14.9562 7.80639 15.1351 7.49807C15.314 7.18976 15.6435 7 16 7H18.4781Z" fill="#141B34"/>
</svg>
