<svg width="24" height="24" viewBox="0 0 24 24" fill="none" xmlns="http://www.w3.org/2000/svg">
<path d="M11.4697 1.46967C11.7626 1.17678 12.2374 1.17678 12.5303 1.46967L15.3107 4.25H19C19.4142 4.25 19.75 4.58579 19.75 5V8.68934L22.5303 11.4697C22.8232 11.7626 22.8232 12.2374 22.5303 12.5303L19.75 15.3107V19C19.75 19.4142 19.4142 19.75 19 19.75H15.3107L12.5303 22.5303C12.2374 22.8232 11.7626 22.8232 11.4697 22.5303L8.68934 19.75H5C4.58579 19.75 4.25 19.4142 4.25 19V15.3107L1.46967 12.5303C1.17678 12.2374 1.17678 11.7626 1.46967 11.4697L4.25 8.68934V5C4.25 4.58579 4.58579 4.25 5 4.25H8.68934L11.4697 1.46967Z" fill="#141B34"/>
</svg>
