<svg width="24" height="24" viewBox="0 0 24 24" fill="none" xmlns="http://www.w3.org/2000/svg">
<path fill-rule="evenodd" clip-rule="evenodd" d="M2 3C2 2.44772 2.44772 2 3 2H21C21.5523 2 22 2.44772 22 3V21C22 21.2652 21.8946 21.5196 21.7071 21.7071C21.5196 21.8946 21.2652 22 21 22L3 22C2.44772 22 2 21.5523 2 21V3ZM4 4V20L20 20V4H4Z" fill="#141B34"/>
<path fill-rule="evenodd" clip-rule="evenodd" d="M6 11.5C6 8.46243 8.46243 6 11.5 6C14.5376 6 17 8.46243 17 11.5C17 12.6575 16.6424 13.7315 16.0317 14.6175L18.2071 16.7929L16.7929 18.2071L14.6175 16.0317C13.7315 16.6424 12.6575 17 11.5 17C8.46243 17 6 14.5376 6 11.5ZM11.5 8C9.567 8 8 9.567 8 11.5C8 13.433 9.567 15 11.5 15C13.433 15 15 13.433 15 11.5C15 9.567 13.433 8 11.5 8Z" fill="#141B34"/>
</svg>
