<svg width="24" height="24" viewBox="0 0 24 24" fill="none" xmlns="http://www.w3.org/2000/svg">
<path fill-rule="evenodd" clip-rule="evenodd" d="M1.49998 1.49998H9.14425V3.49998H3.49998V9.14425H1.49998V1.49998ZM20.5 3.49998H14.8557V1.49998H22.5V9.14425H20.5V3.49998ZM22.5 14.8557V22.5H14.8557V20.5H20.5V14.8557H22.5ZM3.49998 20.5V14.8557H1.49998V22.5H9.14425V20.5H3.49998Z" fill="#141B34"/>
<path fill-rule="evenodd" clip-rule="evenodd" d="M6 11.5C6 8.46243 8.46243 6 11.5 6C14.5376 6 17 8.46243 17 11.5C17 12.6575 16.6424 13.7315 16.0317 14.6175L17.7071 16.2929L16.2929 17.7071L14.6175 16.0317C13.7315 16.6424 12.6575 17 11.5 17C8.46243 17 6 14.5376 6 11.5ZM11.5 8C9.567 8 8 9.567 8 11.5C8 13.433 9.567 15 11.5 15C13.433 15 15 13.433 15 11.5C15 9.567 13.433 8 11.5 8Z" fill="#141B34"/>
</svg>
