<svg width="24" height="24" viewBox="0 0 24 24" fill="none" xmlns="http://www.w3.org/2000/svg">
<path fill-rule="evenodd" clip-rule="evenodd" d="M16.8864 20.75C18.4359 20.75 19.7447 19.725 20.1652 18.3194H22.75L22.7498 10.7334L19.3637 5.68056H15.9091V3.25H1.25022L1.25 18.3194H3.83501C4.2555 19.725 5.56432 20.75 7.11378 20.75C8.66324 20.75 9.97206 19.725 10.3926 18.3194H13.6076C14.0281 19.725 15.3369 20.75 16.8864 20.75ZM15.9097 14.0854C16.2193 13.9937 16.5474 13.9444 16.8869 13.9444C18.4364 13.9444 19.7452 14.9694 20.1657 16.375H20.796L20.7958 11.3222L18.3183 7.625H15.9097V14.0854ZM7.11433 15.8889C6.30474 15.8889 5.64844 16.5418 5.64844 17.3472C5.64844 18.1526 6.30474 18.8056 7.11433 18.8056C7.92392 18.8056 8.58022 18.1526 8.58022 17.3472C8.58022 16.5418 7.92392 15.8889 7.11433 15.8889ZM15.4211 17.3472C15.4211 16.5418 16.0774 15.8889 16.8869 15.8889C17.6965 15.8889 18.3528 16.5418 18.3528 17.3472C18.3528 18.1526 17.6965 18.8056 16.8869 18.8056C16.0774 18.8056 15.4211 18.1526 15.4211 17.3472Z" fill="#141B34"/>
</svg>
