<svg width="24" height="24" viewBox="0 0 24 24" fill="none" xmlns="http://www.w3.org/2000/svg">
<path d="M17.5178 14.4812C17.7029 14.558 17.8651 14.6458 18.002 14.7317C18.1389 14.6458 18.301 14.558 18.4861 14.4812C19.1388 14.2106 20.0617 14.0883 21.0919 14.6225C22.4241 15.3132 23.0238 16.93 22.6333 18.5193C22.234 20.1443 20.8393 21.723 18.2585 22.6571L18.002 22.75L17.7454 22.6571C15.1647 21.723 13.7699 20.1443 13.3706 18.5193C12.9801 16.93 13.5798 15.3132 14.912 14.6225C15.9422 14.0883 16.8651 14.2106 17.5178 14.4812Z" fill="#141B34"/>
<path fill-rule="evenodd" clip-rule="evenodd" d="M11.4992 1.25C8.24939 1.25 5.55663 3.63491 5.07562 6.75H1.99918C1.77799 6.75 1.56807 6.84764 1.42557 7.01682C1.28306 7.186 1.2225 7.40945 1.26009 7.62743L2.78984 16.5H11.8634C12.1335 15.1711 12.918 13.9676 14.2232 13.2908C15.6712 12.54 17.0266 12.6786 18.0036 13.0592C18.7614 12.7639 19.7471 12.6143 20.827 12.9126L21.7383 7.62743C21.7759 7.40945 21.7153 7.186 21.5728 7.01682C21.4303 6.84764 21.2204 6.75 20.9992 6.75H17.9227C17.4417 3.63491 14.749 1.25 11.4992 1.25ZM11.4992 3.25C9.35759 3.25 7.56541 4.74601 7.11068 6.75H15.8877C15.4329 4.74601 13.6408 3.25 11.4992 3.25Z" fill="#141B34"/>
<path d="M11.8369 18.5C11.8586 18.6265 11.8849 18.7523 11.9156 18.8772C12.2815 20.3665 13.2267 21.7079 14.6831 22.75H3.86743L3.13467 18.5H11.8369Z" fill="#141B34"/>
</svg>
