<svg width="24" height="24" viewBox="0 0 24 24" fill="none" xmlns="http://www.w3.org/2000/svg">
<path fill-rule="evenodd" clip-rule="evenodd" d="M19.043 22.75L22.7502 19.0429L21.3359 17.6287L20.043 18.9216V13.3358H18.043V18.9216L16.7502 17.6287L15.3359 19.0429L19.043 22.75Z" fill="#141B34"/>
<path fill-rule="evenodd" clip-rule="evenodd" d="M18.3955 6.25H22.0001C22.4143 6.25 22.7501 6.58579 22.7501 7V10.5406L21.1453 11.0755L20.9852 11.8358H16.5423V15.7145L13.2139 19.0429L14.921 20.75H5.50008C5.14542 20.75 4.83924 20.5016 4.76617 20.1545L2.85482 11.0756L1.24902 10.5407V7C1.24902 6.58579 1.58481 6.25 1.99902 6.25H6.91776L9.08496 1.29639L10.9173 2.09803L9.10079 6.25H16.1595L14.1067 2.14443L15.8955 1.25L18.3955 6.25ZM9.49902 10.25H14.499V11.75H9.49902V10.25Z" fill="#141B34"/>
</svg>
