<svg width="24" height="24" viewBox="0 0 24 24" fill="none" xmlns="http://www.w3.org/2000/svg">
<path fill-rule="evenodd" clip-rule="evenodd" d="M19.251 19.75V22.75H17.251L17.251 19.75H14.251V17.75H17.251L17.251 14.75H19.251V17.75H22.251V19.75H19.251Z" fill="#141B34"/>
<path fill-rule="evenodd" clip-rule="evenodd" d="M12.001 1.25C8.75119 1.25 6.05843 3.63491 5.57742 6.75H2.50098C2.27979 6.75 2.06987 6.84764 1.92737 7.01682C1.78486 7.186 1.7243 7.40945 1.76189 7.62743L4.36923 22.75H15.751V21.25H12.751V16.25H15.751V13.25H21.2707L22.2401 7.62743C22.2777 7.40945 22.2171 7.186 22.0746 7.01682C21.9321 6.84764 21.7222 6.75 21.501 6.75H18.4245C17.9435 3.63491 15.2508 1.25 12.001 1.25ZM12.001 3.25C9.85939 3.25 8.06721 4.74601 7.61248 6.75H16.3895C15.9347 4.74601 14.1426 3.25 12.001 3.25Z" fill="#141B34"/>
</svg>
