<svg width="24" height="24" viewBox="0 0 24 24" fill="none" xmlns="http://www.w3.org/2000/svg">
<path d="M17.498 22.75C17.498 22.75 16.8269 22.526 16.642 22.4424C16.2741 22.2759 15.7812 22.0123 15.2847 21.6222C14.2825 20.8348 13.248 19.5108 13.248 17.47V14.4014H13.998C14.8758 14.4014 15.6542 14.1811 16.2195 13.955C16.5004 13.8427 16.9338 13.608 17.0837 13.5262L17.498 13.25L17.9123 13.5262C18.0622 13.6079 18.4957 13.8427 18.7766 13.955C19.3418 14.1811 20.1203 14.4014 20.998 14.4014H21.748V17.47C21.748 19.5108 20.7136 20.8348 19.7114 21.6222C19.2149 22.0123 18.722 22.2759 18.354 22.4424C18.1692 22.526 17.498 22.75 17.498 22.75Z" fill="#141B34"/>
<path d="M21.9981 6.25H18.3941L15.8941 1.25L14.1051 2.14443L16.1571 6.25H9.09908L10.9151 2.09803L9.08308 1.29639L6.91608 6.25H1.99707C1.58307 6.25 1.24707 6.58579 1.24707 7V10.5407L2.85307 11.0756L4.76408 20.1545C4.83708 20.5016 5.14308 20.75 5.49808 20.75H12.871C12.3558 19.8799 11.998 18.7946 11.998 17.4699V13.1513H13.998C14.6722 13.1513 15.2896 12.9806 15.7553 12.7943C15.8397 12.7606 16.4371 12.4549 16.4371 12.4549L17.4981 11.7476L18.5589 12.4548C18.5589 12.4548 19.1565 12.7606 19.2408 12.7943C19.6388 12.9535 20.1477 13.1013 20.7081 13.1409L21.1431 11.0755L22.7481 10.5406V7C22.7481 6.58579 22.4121 6.25 21.9981 6.25Z" fill="#141B34"/>
</svg>
