<svg width="24" height="24" viewBox="0 0 24 24" fill="none" xmlns="http://www.w3.org/2000/svg">
<path fill-rule="evenodd" clip-rule="evenodd" d="M13.25 2.25H2C1.58579 2.25 1.25 2.58579 1.25 3V21C1.25 21.1989 1.32902 21.3897 1.46967 21.5303C1.61032 21.671 1.80109 21.75 2 21.75L13.25 21.75L13.25 2.25ZM5.4082 9.53039L7.87787 12.0001L5.4082 14.4697L6.46886 15.5304L9.99919 12.0001L6.46886 8.46973L5.4082 9.53039Z" fill="#141B34"/>
<path fill-rule="evenodd" clip-rule="evenodd" d="M14.75 21.75H22C22.4142 21.75 22.75 21.4142 22.75 21V3C22.75 2.58579 22.4142 2.25 22 2.25H14.75L14.75 21.75ZM17.25 6.25H20.25V7.75H17.25V6.25ZM17.25 10.25H20.25V11.75H17.25V10.25Z" fill="#141B34"/>
</svg>
