<svg width="24" height="24" viewBox="0 0 24 24" fill="none" xmlns="http://www.w3.org/2000/svg">
<path fill-rule="evenodd" clip-rule="evenodd" d="M12 1.25C6.06294 1.25 1.25 6.06294 1.25 12C1.25 17.9371 6.06294 22.75 12 22.75C17.9371 22.75 22.75 17.9371 22.75 12C22.75 10.8672 22.5748 9.77534 22.25 8.75002V9.00008L18.3644 9.00012C18.1233 9.00037 17.7584 9.00074 17.4399 8.95257C17.1273 8.90527 16.0534 8.69649 15.5856 7.56301C15.1395 6.48228 15.6859 5.59492 15.8481 5.34771L16.974 4.00008L15.75 4.00008V1.92216C14.5824 1.48753 13.319 1.25 12 1.25ZM8.02941 9.96973C8.2089 10.1492 8.45235 10.2501 8.70619 10.2501H9.99908V11.7501H8.70619C8.05452 11.7501 7.42955 11.4912 6.96875 11.0304L8.02941 9.96973ZM17.0294 11.0304C16.5686 11.4912 15.9436 11.7501 15.292 11.7501H13.9991V10.2501H15.292C15.5458 10.2501 15.7893 10.1492 15.9688 9.96973L17.0294 11.0304ZM10.75 16C10.75 15.3096 11.3096 14.75 12 14.75C12.6904 14.75 13.25 15.3096 13.25 16C13.25 16.6904 12.6904 17.25 12 17.25C11.3096 17.25 10.75 16.6904 10.75 16ZM12 13.25C10.4812 13.25 9.25 14.4812 9.25 16C9.25 17.5188 10.4812 18.75 12 18.75C13.5188 18.75 14.75 17.5188 14.75 16C14.75 14.4812 13.5188 13.25 12 13.25Z" fill="#141B34"/>
<path d="M19.7371 2.75002H17.0003V1.25002H19.9477L19.9928 1.25001C20.2627 1.24991 20.5452 1.2498 20.7678 1.28347C20.9935 1.31761 21.4535 1.42906 21.6537 1.91398C21.8461 2.3801 21.6237 2.7805 21.5015 2.96667C21.3767 3.15686 21.1879 3.37162 21.0023 3.58262L20.9735 3.61544L18.658 6.25002H21.0003V7.75002H18.4473L18.4023 7.75003C18.1323 7.75014 17.8499 7.75025 17.6272 7.71657C17.4016 7.68244 16.9415 7.57099 16.7414 7.08606C16.549 6.61995 16.7714 6.21955 16.8935 6.03338C17.0183 5.84318 17.2072 5.62842 17.3928 5.41741L17.4216 5.38461L19.7371 2.75002Z" fill="#141B34"/>
</svg>
