<svg width="24" height="24" viewBox="0 0 24 24" fill="none" xmlns="http://www.w3.org/2000/svg">
<path fill-rule="evenodd" clip-rule="evenodd" d="M4 20.25V17.25H6V20.25H4ZM18 20.25V17.25H20V20.25H18Z" fill="#141B34"/>
<path d="M20.75 9.5C19.6454 9.5 18.75 10.3954 18.75 11.5V14.5H5.25V11.5C5.25 10.3954 4.35457 9.5 3.25 9.5C2.14543 9.5 1.25 10.3954 1.25 11.5C1.25 12.2403 1.6522 12.8866 2.25 13.2324V17.5H21.75V13.2324C22.3478 12.8866 22.75 12.2403 22.75 11.5C22.75 10.3954 21.8546 9.5 20.75 9.5Z" fill="#141B34"/>
<path d="M11.2498 13.5H6.24976V11.5C6.24976 9.84315 4.90661 8.5 3.24976 8.5V6.5C3.24976 4.98122 4.48097 3.75 5.99976 3.75H11.2498L11.2498 13.5Z" fill="#141B34"/>
<path d="M12.7498 3.75L12.7498 13.5H17.7498V11.5C17.7498 9.84315 19.0929 8.5 20.7498 8.5V6.5C20.7498 4.98122 19.5186 3.75 17.9998 3.75H12.7498Z" fill="#141B34"/>
</svg>
