<svg width="24" height="24" viewBox="0 0 24 24" fill="none" xmlns="http://www.w3.org/2000/svg">
<path d="M8.94678 9.75L4.47147 9.75L3.22147 13.25H8.15133L8.94678 9.75Z" fill="#141B34"/>
<path d="M2.68576 14.75L1.7937 17.2478C1.71167 17.4774 1.74645 17.7327 1.88694 17.932C2.02744 18.1314 2.25611 18.25 2.5 18.25H7.01496L7.81042 14.75H2.68576Z" fill="#141B34"/>
<path d="M8.55321 18.25H15.4468L14.6513 14.75H9.34867L8.55321 18.25Z" fill="#141B34"/>
<path d="M16.985 18.25H21.5C21.7439 18.25 21.9726 18.1314 22.1131 17.932C22.2536 17.7327 22.2883 17.4774 22.2063 17.2478L21.3143 14.75H16.1896L16.985 18.25Z" fill="#141B34"/>
<path d="M20.7785 13.25L19.5285 9.75L15.0532 9.75L15.8487 13.25H20.7785Z" fill="#141B34"/>
<path d="M13.515 9.75L10.485 9.75L9.68958 13.25H14.3104L13.515 9.75Z" fill="#141B34"/>
<path fill-rule="evenodd" clip-rule="evenodd" d="M11.25 2.00852C10.9522 2.08294 10.6716 2.20064 10.4152 2.35457L10.0555 1.9948L8.9948 3.05546L9.35456 3.41523C9.20064 3.67162 9.08293 3.95224 9.00852 4.25H8.5V5.75H9.00852C9.08294 6.04777 9.20064 6.32838 9.35457 6.58478L8.9948 6.94455L10.0555 8.00521L10.4152 7.64544C10.6716 7.79936 10.9522 7.91707 11.25 7.99148V8.5H12.75V7.99148C13.0478 7.91707 13.3284 7.79936 13.5848 7.64544L13.9445 8.00521L15.0052 6.94455L14.6454 6.58478C14.7994 6.32838 14.9171 6.04777 14.9915 5.75H15.5V4.25H14.9915C14.9171 3.95224 14.7994 3.67162 14.6454 3.41523L15.0052 3.05546L13.9445 1.9948L13.5848 2.35457C13.3284 2.20064 13.0478 2.08294 12.75 2.00852V1.5H11.25V2.00852ZM12 3.41667C11.1255 3.41667 10.4167 4.12555 10.4167 5C10.4167 5.87445 11.1255 6.58333 12 6.58333C12.8745 6.58333 13.5833 5.87445 13.5833 5C13.5833 4.12555 12.8745 3.41667 12 3.41667Z" fill="#141B34"/>
<path d="M10 17.5V20.5H2V22.5H22V20.5H14.0562V17.5H10Z" fill="#141B34"/>
</svg>
