<svg width="24" height="24" viewBox="0 0 24 24" fill="none" xmlns="http://www.w3.org/2000/svg">
<path fill-rule="evenodd" clip-rule="evenodd" d="M16.5303 1.46967C16.2374 1.17678 15.7626 1.17678 15.4697 1.46967L9.25 7.68934V11.6905L1.876 19.1048L1.87499 19.1058C1.04133 19.9398 1.04167 21.2913 1.876 22.1249C2.71 22.9581 4.06171 22.9584 4.89605 22.1257L4.89688 22.1249L12.3095 14.75H16.3107L22.5303 8.53033C22.8232 8.23744 22.8232 7.76256 22.5303 7.46967L16.5303 1.46967ZM15.4688 5.46973L12.4688 8.46973L13.5294 9.53039L16.5294 6.53039L15.4688 5.46973ZM17.4688 7.46973L14.4688 10.4697L15.5294 11.5304L18.5294 8.53039L17.4688 7.46973Z" fill="#141B34"/>
</svg>
