<svg width="24" height="24" viewBox="0 0 24 24" fill="none" xmlns="http://www.w3.org/2000/svg">
<path fill-rule="evenodd" clip-rule="evenodd" d="M3.5 1.25H20.5C20.6989 1.25 20.8897 1.32902 21.0303 1.46967C21.171 1.61032 21.25 1.80109 21.25 2V22C21.25 22.4142 20.9142 22.75 20.5 22.75L3.5 22.75C3.30109 22.75 3.11032 22.671 2.96967 22.5303C2.82902 22.3897 2.75 22.1989 2.75 22V2C2.75 1.58579 3.08579 1.25 3.5 1.25ZM7.75 15.5C7.75 13.1528 9.65279 11.25 12 11.25C14.3472 11.25 16.25 13.1528 16.25 15.5C16.25 17.8472 14.3472 19.75 12 19.75C9.65279 19.75 7.75 17.8472 7.75 15.5ZM12 4.25C10.7574 4.25 9.75 5.25736 9.75 6.5C9.75 7.74264 10.7574 8.75 12 8.75C13.2426 8.75 14.25 7.74264 14.25 6.5C14.25 5.25736 13.2426 4.25 12 4.25Z" fill="#141B34"/>
</svg>
