<svg width="24" height="24" viewBox="0 0 24 24" fill="none" xmlns="http://www.w3.org/2000/svg">
<path fill-rule="evenodd" clip-rule="evenodd" d="M12 1.25C6.06294 1.25 1.25 6.06294 1.25 12C1.25 17.9371 6.06294 22.75 12 22.75C17.9371 22.75 22.75 17.9371 22.75 12C22.75 6.06294 17.9371 1.25 12 1.25ZM7.29153 9.59911C8.58282 9.05275 10.0045 8.75 11.4993 8.75C13.7562 8.75 15.8483 9.44029 17.5766 10.6195L18.422 9.38048C16.4521 8.03631 14.0667 7.25 11.4993 7.25C9.80022 7.25 8.18006 7.59442 6.70703 8.21768L7.29153 9.59911ZM7.73776 12.7796C8.76133 12.4363 9.85778 12.25 10.9993 12.25C12.8863 12.25 14.6521 12.7592 16.1692 13.6473L16.927 12.3527C15.1862 11.3338 13.1598 10.75 10.9993 10.75C9.69356 10.75 8.43612 10.9633 7.2608 11.3574L7.73776 12.7796ZM8.82903 16.0387C9.52024 15.8506 10.2483 15.75 11.001 15.75C12.366 15.75 13.6516 16.0809 14.7838 16.6662L15.4727 15.3338C14.1325 14.6409 12.6113 14.25 11.001 14.25C10.114 14.25 9.25356 14.3686 8.43516 14.5913L8.82903 16.0387Z" fill="#141B34"/>
</svg>
