<svg width="24" height="24" viewBox="0 0 24 24" fill="none" xmlns="http://www.w3.org/2000/svg">
<path fill-rule="evenodd" clip-rule="evenodd" d="M1.53449 5.53477C1.71682 5.35243 1.9641 5.25 2.22195 5.25H17.7776C18.3145 5.25 18.7498 5.68528 18.7498 6.22222V21.7778C18.7498 22.3147 18.3145 22.75 17.7776 22.75H2.22243C1.68551 22.75 1.25025 22.3147 1.25023 21.7778L1.24976 6.22225C1.24975 5.9644 1.35217 5.7171 1.53449 5.53477ZM3.19418 7.19444L3.19459 20.8056H16.8054V7.19444H3.19418Z" fill="#141B34"/>
<path d="M9.99976 9C10.2855 9 10.5437 9.17028 10.6563 9.43291L11.7565 12H14.2855C14.5682 12 14.8243 12.1668 14.9387 12.4253C15.0531 12.6839 15.0042 12.9856 14.814 13.1948L12.9525 15.2424L13.8917 18.0598C13.9841 18.3372 13.8982 18.6428 13.6749 18.8314C13.4516 19.02 13.1358 19.0535 12.8779 18.916L9.99976 17.3809L7.12161 18.916C6.86368 19.0535 6.54796 19.02 6.32462 18.8314C6.10128 18.6428 6.01541 18.3372 6.10785 18.0598L7.047 15.2424L5.18553 13.1948C4.99534 12.9856 4.94645 12.6839 5.06083 12.4253C5.17521 12.1668 5.43133 12 5.71405 12H8.24305L9.34323 9.43291C9.45578 9.17028 9.71402 9 9.99976 9Z" fill="#141B34"/>
<path d="M5.24976 2C5.24976 1.58579 5.58554 1.25 5.99976 1.25H22.0002C22.4145 1.25 22.7502 1.58579 22.7502 2V18C22.7502 18.4142 22.4145 18.75 22.0002 18.75H17.9998C17.5855 18.75 17.2498 18.4142 17.2498 18V6.75H5.99976C5.58554 6.75 5.24976 6.41421 5.24976 6V2Z" fill="#141B34"/>
</svg>
