<svg width="24" height="24" viewBox="0 0 24 24" fill="none" xmlns="http://www.w3.org/2000/svg">
<path fill-rule="evenodd" clip-rule="evenodd" d="M4.25 9C4.25 4.71979 7.71979 1.25 12 1.25C16.2802 1.25 19.75 4.71979 19.75 9C19.75 13.2802 16.2802 16.75 12 16.75C7.71979 16.75 4.25 13.2802 4.25 9ZM12 4.5L13.2608 7.09766L16 7.55573L14.04 9.61924L14.4721 12.5L12 11.1777L9.52786 12.5L9.96 9.61924L8 7.55573L10.7392 7.09766L12 4.5ZM7.25 22.7506V16.6465C8.62867 17.5048 10.2564 18.0006 12 18.0006C13.7436 18.0006 15.3713 17.5048 16.75 16.6465V22.7506L12 20.0006L7.25 22.7506Z" fill="#141B34"/>
</svg>
