<svg width="24" height="24" viewBox="0 0 24 24" fill="none" xmlns="http://www.w3.org/2000/svg">
<path fill-rule="evenodd" clip-rule="evenodd" d="M20.3237 4.44821C20.5303 4.60532 20.6656 4.83861 20.6996 5.09618L22.7405 20.571C22.8104 21.1006 22.4411 21.5877 21.913 21.6625L14.3111 22.7404C14.0518 22.7772 13.7885 22.7076 13.5811 22.5473L6.87486 17.3677C6.67144 17.2106 6.53838 16.9792 6.50474 16.7242L5.2575 7.26736C5.18765 6.73775 5.55692 6.25067 6.08506 6.17579L19.5995 4.25962C19.8564 4.2232 20.1171 4.2911 20.3237 4.44821ZM7.31131 7.96871L8.30391 15.4948L13.2449 14.7943C13.5017 14.7579 13.7625 14.8258 13.9691 14.9829C14.1757 15.14 14.311 15.3733 14.345 15.6308L15.0102 20.6745L20.6867 19.8696L18.9004 6.32552L7.31131 7.96871ZM12.9024 19.5639L12.5458 16.8602L9.8894 17.2368L12.9024 19.5639Z" fill="#141B34"/>
<path d="M17.529 1.46935C17.6698 1.60999 17.749 1.80083 17.749 1.99984L17.7497 5.00123L6.38727 7.28556L7.41393 16.1833L11.0227 19.7502H2.00098C1.58676 19.7502 1.25098 19.4144 1.25098 19.0002V2.01491C1.25098 1.60099 1.58631 1.26532 2.00023 1.26491L16.9983 1.25C17.1973 1.2498 17.3882 1.32871 17.529 1.46935Z" fill="#141B34"/>
</svg>
