<svg width="24" height="24" viewBox="0 0 24 24" fill="none" xmlns="http://www.w3.org/2000/svg">
<path fill-rule="evenodd" clip-rule="evenodd" d="M5.46875 6.03039L3.96875 4.53039L5.02941 3.46973L6.52941 4.96973L5.46875 6.03039ZM20.0294 4.53039L18.5294 6.03039L17.4688 4.96973L18.9688 3.46973L20.0294 4.53039Z" fill="#141B34"/>
<path fill-rule="evenodd" clip-rule="evenodd" d="M12 3.25C6.61522 3.25 2.25 7.61522 2.25 13C2.25 18.3848 6.61522 22.75 12 22.75C17.3848 22.75 21.75 18.3848 21.75 13C21.75 7.61522 17.3848 3.25 12 3.25ZM12.75 13.1893V8.5H11.25V13.8107L13.9697 16.5303L15.0303 15.4697L12.75 13.1893Z" fill="#141B34"/>
<path fill-rule="evenodd" clip-rule="evenodd" d="M11.25 2.75H9V1.25H15V2.75H12.75V3.5H11.25V2.75Z" fill="#141B34"/>
</svg>
