<svg width="24" height="24" viewBox="0 0 24 24" fill="none" xmlns="http://www.w3.org/2000/svg">
<path fill-rule="evenodd" clip-rule="evenodd" d="M17.7929 3.79272L22 7.99983L17.7929 12.2069L16.3787 10.7927L18.0792 9.09218C11.0411 9.63007 7.90176 12.4266 6.07219 15.0693C5.03562 16.5666 4.51568 18.0669 4.25564 19.1937C4.12587 19.7561 4.06183 20.2212 4.0303 20.54C4.01455 20.6992 4.00697 20.8213 4.00333 20.9002C4.00151 20.9397 4.00068 20.9682 4.0003 20.9852L4.00001 21.0017C4.00001 21.0017 4 21.0001 3 21.0001C2 21.0001 2 20.9986 2 20.9986L2 20.9968L2.00002 20.9923L2.00013 20.9797L2.0008 20.9405C2.00152 20.9082 2.00288 20.8638 2.00546 20.808C2.0106 20.6965 2.0206 20.5394 2.04001 20.3431C2.07879 19.951 2.15538 19.4004 2.30686 18.744C2.60932 17.4334 3.21438 15.6836 4.42781 13.9309C6.67658 10.6827 10.4812 7.5923 18.2472 7.07541L16.3787 5.20694L17.7929 3.79272Z" fill="#141B34"/>
<path d="M2 5.5C2 3.567 3.567 2 5.5 2C7.433 2 9 3.567 9 5.5C9 7.433 7.433 9 5.5 9C3.567 9 2 7.433 2 5.5Z" fill="#141B34"/>
<path fill-rule="evenodd" clip-rule="evenodd" d="M15.5001 20.2071L13.7072 22L12.293 20.5858L14.0859 18.7929L12.293 17L13.7072 15.5858L15.5001 17.3787L17.293 15.5858L18.7072 17L16.9143 18.7929L18.7072 20.5858L17.293 22L15.5001 20.2071Z" fill="#141B34"/>
</svg>
