<svg width="24" height="24" viewBox="0 0 24 24" fill="none" xmlns="http://www.w3.org/2000/svg">
<path fill-rule="evenodd" clip-rule="evenodd" d="M6.0019 3.99937C6.00225 3.44733 6.44986 3 7.0019 3H12V5H8.00127L8 7.00063L6 6.99937L6.0019 3.99937ZM8.00128 19L8 16.9994L6 17.0006L6.00192 20.0006C6.00227 20.5527 6.44988 21 7.00192 21H12V19H8.00128Z" fill="#141B34"/>
<path d="M14.25 16C14.25 15.5858 14.5858 15.25 15 15.25H22C22.4142 15.25 22.75 15.5858 22.75 16V22C22.75 22.4142 22.4142 22.75 22 22.75H15C14.5858 22.75 14.25 22.4142 14.25 22V16Z" fill="#141B34"/>
<path d="M14.25 2C14.25 1.58579 14.5858 1.25 15 1.25H22C22.4142 1.25 22.75 1.58579 22.75 2V8C22.75 8.41421 22.4142 8.75 22 8.75H15C14.5858 8.75 14.25 8.41421 14.25 8V2Z" fill="#141B34"/>
<path fill-rule="evenodd" clip-rule="evenodd" d="M7 6.25C3.82436 6.25 1.25 8.82436 1.25 12C1.25 15.1756 3.82436 17.75 7 17.75C10.1756 17.75 12.75 15.1756 12.75 12C12.75 8.82436 10.1756 6.25 7 6.25ZM9.70718 10.7072L8.41429 12.0001L9.70718 13.293L8.29297 14.7072L7.00008 13.4143L5.70718 14.7072L4.29297 13.293L5.58586 12.0001L4.29297 10.7072L5.70718 9.29297L7.00008 10.5859L8.29297 9.29297L9.70718 10.7072Z" fill="#141B34"/>
</svg>
