<svg width="24" height="24" viewBox="0 0 24 24" fill="none" xmlns="http://www.w3.org/2000/svg">
<path fill-rule="evenodd" clip-rule="evenodd" d="M14.3117 19.8432C14.4051 19.7819 14.5084 19.75 14.6166 19.75C14.9117 19.75 15.2512 20.0281 15.2512 20.5C15.2512 20.9719 14.9117 21.25 14.6166 21.25C14.5486 21.25 14.4841 21.2375 14.4233 21.2142L13.8869 22.6151C14.1148 22.7023 14.361 22.75 14.6166 22.75C15.8509 22.75 16.7512 21.685 16.7512 20.5C16.7512 19.315 15.8509 18.25 14.6166 18.25C14.1858 18.25 13.7862 18.3851 13.4547 18.6119C13.4463 18.6176 13.438 18.6236 13.4298 18.6297C12.4529 19.3584 10.6088 20.3112 8.52883 20.5562L8.70431 22.0459C11.0834 21.7657 13.163 20.6959 14.3117 19.8432ZM4.33838 19.8779C4.88651 20.1537 5.44404 20.3423 6.00186 20.4597L5.69286 21.9275C5.01424 21.7847 4.33327 21.5546 3.66406 21.2178L4.33838 19.8779Z" fill="#141B34"/>
<path fill-rule="evenodd" clip-rule="evenodd" d="M19 21.75V20.25H21V21.75H19Z" fill="#141B34"/>
<path fill-rule="evenodd" clip-rule="evenodd" d="M2.68308 9.20164C1.80115 8.36245 1.25 7.17454 1.25 5.85826C1.25 3.31619 3.30471 1.25 5.84601 1.25C7.23857 1.25 8.48541 1.87157 9.32672 2.8489C10.1372 2.46484 11.0435 2.25 12 2.25C15.3858 2.25 18.1428 4.94224 18.2469 8.30273C20.7927 8.66534 22.75 10.8541 22.75 13.5C22.75 16.2922 20.5703 18.5753 17.8196 18.7404C17.2358 17.6038 16.0938 16.75 14.6152 16.75C14.3493 16.75 14.0906 16.7797 13.8422 16.8353C14.0208 16.6401 14.1876 16.4356 14.3412 16.222C14.3546 16.2034 14.3671 16.1841 14.3787 16.1644C15.4566 14.332 14.014 12.084 11.9998 12.084C10.4929 12.084 9.24981 13.2885 9.24981 14.8007H10.7498C10.7498 14.1405 11.2976 13.584 11.9998 13.584C12.9231 13.584 13.5211 14.615 13.1012 15.3767C11.8387 17.1048 9.32838 18.1842 6.86169 18.1494C4.81846 18.1205 2.95213 17.3372 1.90579 15.6693C1.48696 14.8716 1.25 13.9635 1.25 13C1.25 11.544 1.79103 10.2146 2.68308 9.20164ZM3.14766 5.85826C3.14766 4.35823 4.35875 3.14766 5.84601 3.14766C6.58272 3.14766 7.25136 3.44376 7.7396 3.92707C6.77854 4.82293 6.1002 6.01824 5.853 7.36454C5.25587 7.48547 4.69233 7.69886 4.17797 7.98912C3.54949 7.49188 3.14766 6.72264 3.14766 5.85826Z" fill="#141B34"/>
</svg>
