<svg width="24" height="24" viewBox="0 0 24 24" fill="none" xmlns="http://www.w3.org/2000/svg">
<path d="M14.1004 13.5358C14.9698 14.3913 14.9665 15.7946 14.0905 16.6459L14.0764 16.6596L14.0616 16.6726C13.6484 17.0339 13.1433 17.25 12.5434 17.25C11.9464 17.25 11.3423 17.007 10.9131 16.5899C10.0363 15.7377 10.036 14.3656 10.8707 13.5118L10.8858 13.4963L12.5775 11.9541L14.1004 13.5358Z" fill="#141B34"/>
<path d="M10.6004 19.0358C11.4698 19.8913 11.4665 21.2946 10.5905 22.1459L10.5764 22.1596L10.5616 22.1726C10.1484 22.5339 9.64333 22.75 9.04344 22.75C8.44636 22.75 7.84229 22.507 7.41314 22.0899C6.53631 21.2377 6.53602 19.8656 7.37068 19.0118L7.38578 18.9963L9.07753 17.4541L10.6004 19.0358Z" fill="#141B34"/>
<path d="M17.6004 19.0358C18.4698 19.8913 18.4665 21.2946 17.5905 22.1459L17.5764 22.1596L17.5616 22.1726C17.1484 22.5339 16.6433 22.75 16.0434 22.75C15.4464 22.75 14.8423 22.507 14.4131 22.0899C13.5363 21.2377 13.536 19.8656 14.3707 19.0118L14.3858 18.9963L16.0775 17.4541L17.6004 19.0358Z" fill="#141B34"/>
<path d="M6.353 8.36451C3.72664 8.8964 1.75 11.217 1.75 14C1.75 16.4491 3.28121 18.5406 5.43854 19.3694C5.60959 18.8563 5.89662 18.3739 6.29801 17.9633L6.3433 17.917L8.80612 15.6719C8.60604 14.541 8.94197 13.339 9.79801 12.4633L9.8433 12.417L12.6457 9.86227L15.1686 12.4827C15.9828 13.2937 16.3373 14.3913 16.2319 15.4518L18.6686 17.9827C19.1107 18.4231 19.4173 18.9479 19.5882 19.5054C21.7114 18.8324 23.25 16.8459 23.25 14.5C23.25 11.8541 21.2927 9.66531 18.7469 9.3027C18.6428 5.94221 15.8858 3.24997 12.5 3.24997C9.43585 3.24997 6.88731 5.45453 6.353 8.36451Z" fill="#141B34"/>
<path fill-rule="evenodd" clip-rule="evenodd" d="M5.70538 2.35108C5.07484 2.48053 4.48827 2.72998 3.96989 3.07446L3.20433 2.30317L1.78485 3.71209L2.55911 4.49215C2.21331 5.01739 1.96355 5.61188 1.83467 6.24997H0.75V8.24997H1.83468C2.05366 9.33419 2.62153 10.2919 3.41473 10.9973L4.74374 9.50269C4.1249 8.95239 3.73513 8.14856 3.73513 7.24997C3.73513 5.58607 5.07198 4.24997 6.70538 4.24997C7.61697 4.24997 8.4337 4.66371 8.98114 5.32197L10.5189 4.04312C9.81277 3.19411 8.82841 2.58227 7.70538 2.35131V1.24997H5.70538V2.35108Z" fill="#141B34"/>
</svg>
