<svg width="24" height="24" viewBox="0 0 24 24" fill="none" xmlns="http://www.w3.org/2000/svg">
<path fill-rule="evenodd" clip-rule="evenodd" d="M12.2182 14.7284L13.9377 15.7497L12.7562 17.739H15.7564L12.781 22.7496L11.0613 21.7285L12.2427 19.739H9.24219L12.2182 14.7284Z" fill="#141B34"/>
<path d="M6.353 8.36442C3.72664 8.89631 1.75 11.2169 1.75 13.9999C1.75 17.1722 4.31892 19.7444 7.48993 19.7499L11.6932 12.6727L15.9922 15.226L15.3905 16.239H18.3905L16.3056 19.7499H18C20.8995 19.7499 23.25 17.3994 23.25 14.4999C23.25 11.854 21.2927 9.66522 18.7469 9.30261C18.6428 5.94211 15.8858 3.24988 12.5 3.24988C9.43585 3.24988 6.88731 5.45444 6.353 8.36442Z" fill="#141B34"/>
<path fill-rule="evenodd" clip-rule="evenodd" d="M5.70538 2.35099C5.07484 2.48044 4.48827 2.72989 3.96989 3.07437L3.20433 2.30308L1.78485 3.712L2.55911 4.49206C2.21331 5.0173 1.96355 5.61179 1.83467 6.24988H0.75V8.24988H1.83468C2.05366 9.3341 2.62153 10.2918 3.41473 10.9972L4.74374 9.50259C4.1249 8.9523 3.73513 8.14847 3.73513 7.24988C3.73513 5.58597 5.07198 4.24988 6.70538 4.24988C7.61697 4.24988 8.4337 4.66362 8.98114 5.32188L10.5189 4.04303C9.81277 3.19401 8.82841 2.58218 7.70538 2.35122V1.24988H5.70538V2.35099Z" fill="#141B34"/>
</svg>
