<svg width="24" height="24" viewBox="0 0 24 24" fill="none" xmlns="http://www.w3.org/2000/svg">
<path d="M13.6021 13.5357C14.4716 14.3912 14.4683 15.7945 13.5923 16.6458L13.5782 16.6595L13.5634 16.6725C13.1502 17.0339 12.6451 17.25 12.0452 17.25C11.4481 17.25 10.8441 17.0069 10.4149 16.5898C9.53808 15.7377 9.53779 14.3656 10.3724 13.5117L10.3875 13.4963L12.0793 11.954L13.6021 13.5357Z" fill="#141B34"/>
<path d="M10.1021 19.0357C10.9716 19.8912 10.9683 21.2945 10.0923 22.1458L10.0782 22.1595L10.0634 22.1725C9.65022 22.5339 9.1451 22.75 8.54521 22.75C7.94813 22.75 7.34406 22.5069 6.91491 22.0898C6.03808 21.2377 6.03779 19.8656 6.87245 19.0117L6.88755 18.9963L8.5793 17.454L10.1021 19.0357Z" fill="#141B34"/>
<path d="M17.1021 19.0357C17.9716 19.8912 17.9683 21.2945 17.0923 22.1458L17.0782 22.1595L17.0634 22.1725C16.6502 22.5339 16.1451 22.75 15.5452 22.75C14.9481 22.75 14.3441 22.5069 13.9149 22.0898C13.0381 21.2377 13.0378 19.8656 13.8724 19.0117L13.8875 18.9963L15.5793 17.454L17.1021 19.0357Z" fill="#141B34"/>
<path fill-rule="evenodd" clip-rule="evenodd" d="M1.25 5.85826C1.25 7.17454 1.80115 8.36245 2.68308 9.20164C1.79103 10.2146 1.25 11.544 1.25 13C1.25 15.6042 2.98128 17.8041 5.35567 18.5114C5.48316 18.3183 5.63064 18.1346 5.79801 17.9633L5.8433 17.917L8.30612 15.6719C8.10604 14.5411 8.44197 13.3391 9.29801 12.4633L9.3433 12.417L12.1457 9.8623L14.6686 12.4828C15.4828 13.2937 15.8373 14.3913 15.7319 15.4518L18.1686 17.9828C18.3656 18.179 18.5357 18.3919 18.6789 18.6171C21.0107 18.0821 22.75 15.9942 22.75 13.5C22.75 10.8541 20.7927 8.66534 18.2469 8.30273C18.1428 4.94224 15.3858 2.25 12 2.25C11.0435 2.25 10.1372 2.46484 9.32672 2.8489C8.48541 1.87157 7.23857 1.25 5.84601 1.25C3.30471 1.25 1.25 3.31619 1.25 5.85826ZM5.84601 3.14766C4.35875 3.14766 3.14766 4.35823 3.14766 5.85826C3.14766 6.72264 3.54949 7.49188 4.17797 7.98912C4.69233 7.69886 5.25587 7.48547 5.853 7.36454C6.1002 6.01824 6.77854 4.82293 7.7396 3.92707C7.25136 3.44376 6.58272 3.14766 5.84601 3.14766Z" fill="#141B34"/>
</svg>
