<svg width="24" height="24" viewBox="0 0 24 24" fill="none" xmlns="http://www.w3.org/2000/svg">
<path fill-rule="evenodd" clip-rule="evenodd" d="M11.7182 14.2286L13.4377 15.2499L12.2562 17.2393H15.2564L12.281 22.2499L10.5613 21.2287L11.7427 19.2393H8.74219L11.7182 14.2286Z" fill="#141B34"/>
<path fill-rule="evenodd" clip-rule="evenodd" d="M2.68308 9.70188C1.80115 8.86269 1.25 7.67479 1.25 6.35851C1.25 3.81644 3.30471 1.75024 5.84601 1.75024C7.23857 1.75024 8.48541 2.37182 9.32672 3.34915C10.1372 2.96508 11.0435 2.75024 12 2.75024C15.3858 2.75024 18.1428 5.44248 18.2469 8.80298C20.7927 9.16558 22.75 11.3543 22.75 14.0002C22.75 16.8997 20.3995 19.2502 17.5 19.2502H15.8056L17.8905 15.7394H14.8905L15.4922 14.7264L11.1932 12.1731L6.98993 19.2502C3.81892 19.2448 1.25 16.6725 1.25 13.5002C1.25 12.0442 1.79103 10.7148 2.68308 9.70188ZM3.14766 6.35851C3.14766 4.85848 4.35875 3.6479 5.84601 3.6479C6.58272 3.6479 7.25136 3.944 7.7396 4.42731C6.77854 5.32317 6.1002 6.51848 5.853 7.86478C5.25587 7.98571 4.69233 8.1991 4.17797 8.48936C3.54949 7.99212 3.14766 7.22289 3.14766 6.35851Z" fill="#141B34"/>
</svg>
