<svg width="24" height="24" viewBox="0 0 24 24" fill="none" xmlns="http://www.w3.org/2000/svg">
<path d="M16.2718 8.98498C16.2718 8.29116 15.7094 7.72871 15.0155 7.72871C14.3217 7.72871 13.7593 8.29116 13.7593 8.98498C13.7593 9.6788 14.3217 10.2412 15.0155 10.2412C15.7094 10.2412 16.2718 9.6788 16.2718 8.98498Z" fill="#141B34"/>
<path fill-rule="evenodd" clip-rule="evenodd" d="M15.0142 3.20605C18.2057 3.20605 20.793 5.79332 20.793 8.98488C20.793 12.1764 18.2057 14.7637 15.0142 14.7637C11.8226 14.7637 9.23535 12.1764 9.23535 8.98488C9.23535 5.79332 11.8226 3.20605 15.0142 3.20605ZM15.0155 6.22119C16.5419 6.22119 17.7793 7.45858 17.7793 8.98498C17.7793 10.5114 16.5419 11.7488 15.0155 11.7488C13.4891 11.7488 12.2518 10.5114 12.2518 8.98498C12.2518 7.45858 13.4891 6.22119 15.0155 6.22119Z" fill="#141B34"/>
<path fill-rule="evenodd" clip-rule="evenodd" d="M8.24021 16.634L12.2234 2.14973L10.7698 1.75L6.78665 16.2343L8.24021 16.634ZM6.69581 22.25L7.52495 19.235L6.07139 18.8352L5.24226 21.8503L6.69581 22.25Z" fill="#141B34"/>
<path fill-rule="evenodd" clip-rule="evenodd" d="M2.14973 18.7567L22.25 13.2292L21.8503 11.7756L1.75 17.3032L2.14973 18.7567Z" fill="#141B34"/>
</svg>
