<svg width="24" height="24" viewBox="0 0 24 24" fill="none" xmlns="http://www.w3.org/2000/svg">
<path fill-rule="evenodd" clip-rule="evenodd" d="M20.6132 8.14581L15.7917 4.60445L16.6796 3.39551L22.75 7.85414L11.2713 22.4633L10.0919 21.5366L20.6132 8.14581Z" fill="#141B34"/>
<path fill-rule="evenodd" clip-rule="evenodd" d="M22.75 14V22C22.75 22.4142 22.4142 22.75 22 22.75H7.55866C4.09714 22.75 1.25 20.0257 1.25 16.6153H2.75C2.75 19.1527 4.88025 21.25 7.55866 21.25H21.25V14H22.75Z" fill="#141B34"/>
<path fill-rule="evenodd" clip-rule="evenodd" d="M2 1.25C1.58579 1.25 1.25 1.58579 1.25 2V7.25H13.75V2C13.75 1.58579 13.4142 1.25 13 1.25H2ZM13.75 8.75H1.25V12.25H13.75V8.75ZM1.25 13.75H13.75V16.4444C13.75 19.9198 10.9589 22.75 7.5 22.75C4.04113 22.75 1.25 19.9198 1.25 16.4444V13.75ZM7.5 16.5C6.94772 16.5 6.5 16.9477 6.5 17.5C6.5 18.0523 6.94772 18.5 7.5 18.5H7.50898C8.06127 18.5 8.50898 18.0523 8.50898 17.5C8.50898 16.9477 8.06127 16.5 7.50898 16.5H7.5Z" fill="#141B34"/>
</svg>
