<svg width="24" height="24" viewBox="0 0 24 24" fill="none" xmlns="http://www.w3.org/2000/svg">
<path d="M15.9994 1.25H7.99936V4.75H15.9994V1.25Z" fill="#141B34"/>
<path fill-rule="evenodd" clip-rule="evenodd" d="M3.5 3H6.75L6.75 6H17.25V3H20.5C20.9142 3 21.25 3.33579 21.25 3.75V22C21.25 22.1989 21.171 22.3897 21.0303 22.5303C20.8897 22.671 20.6989 22.75 20.5 22.75L3.5 22.75C3.08579 22.75 2.75 22.4142 2.75 22V3.75C2.75 3.33579 3.08579 3 3.5 3ZM17.5 12.75H13.5V11.25H17.5V12.75ZM12.0294 10.5304L10.9688 9.46973L8.49908 11.9394L7.52941 10.9697L6.46875 12.0304L8.49908 14.0607L12.0294 10.5304ZM17.5 18.75H13.5V17.25H17.5V18.75ZM8 19H10V17H8V19Z" fill="#141B34"/>
</svg>
