<svg width="24" height="24" viewBox="0 0 24 24" fill="none" xmlns="http://www.w3.org/2000/svg">
<path fill-rule="evenodd" clip-rule="evenodd" d="M8.25 6.25H6.99976L5.02734 10.9838L6.09209 11.25H17.9074L18.9722 10.9838L16.9998 6.25H15.75H8.25ZM15.75 4.75H18.0004L20.3218 10.3214L21.8504 8.95L22.7504 10.15L21.018 11.6743L22.7504 14.2729V21.75H18.9728V18.75H5.02797V21.75H1.25039V14.2729L2.9828 11.6743L1.25 10.15L2.15 8.95L3.67896 10.3214L6.00039 4.75H8.25V2.25H15.75V4.75ZM19 14V16.01H17V14H19ZM7 16.01V14H5V16.01H7Z" fill="#141B34"/>
</svg>
