<svg width="24" height="24" viewBox="0 0 24 24" fill="none" xmlns="http://www.w3.org/2000/svg">
<path d="M18 1.25001L21.9999 1.25C22.4141 1.25 22.7499 1.58578 22.7499 1.99998L22.75 5.99998C22.75 6.1989 22.671 6.38967 22.5303 6.53032C22.3897 6.67098 22.1989 6.75 22 6.75H18.0002C17.586 6.75 17.2503 6.41424 17.2502 6.00004L17.25 2.00005C17.25 1.80113 17.329 1.61035 17.4697 1.46969C17.6103 1.32903 17.8011 1.25001 18 1.25001Z" fill="#141B34"/>
<path d="M2 1.25001L5.99991 1.25C6.41412 1.25 6.7499 1.58578 6.74991 1.99998L6.75 5.99998C6.75 6.1989 6.67099 6.38967 6.53034 6.53032C6.38968 6.67098 6.19892 6.75 6 6.75H2.00023C1.58603 6.75 1.25025 6.41424 1.25023 6.00004L1.25 2.00005C1.24999 1.80113 1.329 1.61035 1.46965 1.46969C1.61031 1.32903 1.80108 1.25001 2 1.25001Z" fill="#141B34"/>
<path d="M2 17.25L5.99991 17.25C6.41412 17.25 6.7499 17.5858 6.74991 18L6.75 22C6.75 22.1989 6.67099 22.3897 6.53034 22.5303C6.38968 22.671 6.19892 22.75 6 22.75H2.00023C1.58603 22.75 1.25025 22.4142 1.25023 22L1.25 18C1.24999 17.8011 1.329 17.6104 1.46965 17.4697C1.61031 17.329 1.80108 17.25 2 17.25Z" fill="#141B34"/>
<path d="M18 17.25L21.9999 17.25C22.4141 17.25 22.7499 17.5858 22.7499 18L22.75 22C22.75 22.1989 22.671 22.3897 22.5303 22.5303C22.3897 22.671 22.1989 22.75 22 22.75H18.0002C17.586 22.75 17.2503 22.4142 17.2502 22L17.25 18C17.25 17.8011 17.329 17.6104 17.4697 17.4697C17.6103 17.329 17.8011 17.25 18 17.25Z" fill="#141B34"/>
<path fill-rule="evenodd" clip-rule="evenodd" d="M6 3H18V5H6V3ZM21 6L21 18H19L19 6L21 6ZM3 18V6H5V18H3ZM18 21H6V19H18V21Z" fill="#141B34"/>
<path fill-rule="evenodd" clip-rule="evenodd" d="M7 8C7 7.44772 7.44772 7 8 7H16C16.5523 7 17 7.44772 17 8V9.5H15V9H13.0002V15H14V17H10V15H11.0002V9H9V9.5H7V8Z" fill="#141B34"/>
</svg>
