<svg width="24" height="24" viewBox="0 0 24 24" fill="none" xmlns="http://www.w3.org/2000/svg">
<path fill-rule="evenodd" clip-rule="evenodd" d="M3 2.25C2.58579 2.25 2.25 2.58579 2.25 3L2.25 21C2.25 21.4142 2.58579 21.75 3 21.75L21 21.75C21.4142 21.75 21.75 21.4142 21.75 21L21.75 3C21.75 2.58579 21.4142 2.25 21 2.25L3 2.25ZM14.5 6C14.5 5.44772 14.0523 5 13.5 5C12.9477 5 12.5 5.44772 12.5 6L12.5 14.5C12.5 15.8807 11.3807 17 10 17C8.61929 17 7.5 15.8807 7.5 14.5C7.5 13.1193 8.61929 12 10 12C10.1222 12 10.2419 12.0087 10.3584 12.0254L10.6416 10.0455C10.4315 10.0155 10.2173 10 10 10C7.51472 10 5.5 12.0147 5.5 14.5C5.5 16.9853 7.51472 19 10 19C12.4853 19 14.5 16.9853 14.5 14.5L14.5 9.52216C15.3664 10.128 16.4333 10.5 17.5 10.5V8.5C16.7894 8.5 16.012 8.20499 15.4161 7.70735C14.8211 7.21042 14.5 6.59563 14.5 6Z" fill="#141B34"/>
</svg>
