<svg width="24" height="24" viewBox="0 0 24 24" fill="none" xmlns="http://www.w3.org/2000/svg">
<path fill-rule="evenodd" clip-rule="evenodd" d="M1.25 12C1.25 6.06294 6.06294 1.25 12 1.25C17.9371 1.25 22.75 6.06294 22.75 12C22.75 17.9371 17.9371 22.75 12 22.75C6.06294 22.75 1.25 17.9371 1.25 12ZM8.4399 8.25C8.09508 8.25 7.80999 8.0342 7.70644 7.74622L6.29492 8.25378C6.61035 9.13099 7.45581 9.75 8.4399 9.75C9.42399 9.75 10.2694 9.13099 10.5849 8.25378L9.17335 7.74622C9.0698 8.0342 8.78471 8.25 8.4399 8.25ZM15.5615 8.25C15.2167 8.25 14.9316 8.0342 14.828 7.74622L13.4165 8.25378C13.7319 9.13099 14.5774 9.75 15.5615 9.75C16.5456 9.75 17.391 9.13099 17.7064 8.25378L16.2949 7.74622C16.1914 8.0342 15.9063 8.25 15.5615 8.25ZM15.7297 15.8205C15.1098 14.4559 13.6732 13.5 12 13.5C10.3268 13.5 8.89021 14.4559 8.27026 15.8205C8.01978 16.3718 7.89454 16.6475 8.11112 16.8748C8.32771 17.1022 8.70933 16.9913 9.47257 16.7696C10.1961 16.5595 11.0981 16.3703 12 16.3703C12.9019 16.3703 13.8039 16.5595 14.5274 16.7696C15.2907 16.9913 15.6723 17.1022 15.8889 16.8748C16.1055 16.6475 15.9802 16.3718 15.7297 15.8205Z" fill="#141B34"/>
</svg>
