<svg width="24" height="24" viewBox="0 0 24 24" fill="none" xmlns="http://www.w3.org/2000/svg">
<path fill-rule="evenodd" clip-rule="evenodd" d="M18.8201 3.25H6C4.57184 3.25 3.36198 4.05753 2.5447 5.19494C1.72673 6.3333 1.25 7.85848 1.25 9.5C1.25 11.1415 1.72673 12.6667 2.5447 13.8051C3.36198 14.9425 4.57184 15.75 6 15.75C6.61201 15.75 7.18393 15.6017 7.70204 15.3427C7.19681 16.8709 6.75195 18.4993 6.75195 20V20.75H20.252V20C20.252 18.622 20.6485 17.0437 21.1496 15.4262C21.3023 14.9334 21.4667 14.4318 21.6299 13.9338C21.985 12.8498 22.3345 11.7831 22.5457 10.8619C22.6798 10.2766 22.752 9.6499 22.752 9C22.752 7.49868 22.3662 6.1043 21.7028 5.06181C21.045 4.02822 20.0441 3.25 18.8201 3.25ZM3.15 9.5C3.15 8.22078 3.52393 7.10173 4.08129 6.32604C4.63934 5.54941 5.32948 5.17308 6 5.17308C6.67052 5.17308 7.36066 5.54941 7.91871 6.32604C8.47607 7.10173 8.85 8.22078 8.85 9.5C8.85 10.7792 8.47607 11.8983 7.91871 12.674C7.36066 13.4506 6.67052 13.8269 6 13.8269C5.32948 13.8269 4.63934 13.4506 4.08129 12.674C3.52393 11.8983 3.15 10.7792 3.15 9.5Z" fill="#141B34"/>
<path fill-rule="evenodd" clip-rule="evenodd" d="M7.01001 9.5C7.01001 10.0523 6.5643 10.5 6.01448 10.5H6.00554C5.45572 10.5 5.01001 10.0523 5.01001 9.5C5.01001 8.94772 5.45572 8.5 6.00554 8.5L6.01448 8.5C6.5643 8.5 7.01001 8.94772 7.01001 9.5Z" fill="#141B34"/>
</svg>
