<svg width="24" height="24" viewBox="0 0 24 24" fill="none" xmlns="http://www.w3.org/2000/svg">
<path fill-rule="evenodd" clip-rule="evenodd" d="M12 1.25C6.06294 1.25 1.25 6.06294 1.25 12C1.25 17.9371 6.06294 22.75 12 22.75C17.9371 22.75 22.75 17.9371 22.75 12C22.75 6.06294 17.9371 1.25 12 1.25ZM15 7.49981C14.376 7.08378 14.3759 7.08388 14.3758 7.08399L14.3742 7.08639L14.3711 7.0912L14.3606 7.1072C14.3518 7.12064 14.3395 7.1396 14.3243 7.16356C14.2938 7.21144 14.2513 7.27956 14.2006 7.36394C14.0998 7.53201 13.9649 7.76799 13.8292 8.0394C13.5762 8.54528 13.25 9.30869 13.25 9.99981C13.25 10.3226 13.4566 10.6092 13.7628 10.7113C14.0691 10.8134 14.4063 10.7081 14.6 10.4498C15.05 9.84981 15.95 9.84981 16.4 10.4498L17.6 9.54981C17.0249 8.78303 16.1349 8.43621 15.2748 8.50936C15.3527 8.36395 15.4267 8.23603 15.4869 8.13568C15.53 8.06381 15.5656 8.00693 15.5898 7.96887C15.6019 7.94986 15.6111 7.93561 15.617 7.9266L15.6232 7.91709L15.6242 7.91566C15.6241 7.91574 15.624 7.91583 15 7.49981ZM6.75 9C6.75 8.30964 7.30964 7.75 8 7.75H8.00897C8.69933 7.75 9.25897 8.30964 9.25897 9C9.25897 9.69036 8.69933 10.25 8.00897 10.25H8C7.30964 10.25 6.75 9.69036 6.75 9ZM15.4004 13.5498C14.6238 14.5838 13.3899 15.2502 12.0001 15.2502C10.6103 15.2502 9.37635 14.5838 8.59978 13.5498L7.40039 14.4506C7.89336 15.107 8.52422 15.6548 9.25008 16.0509V17.5002C9.25008 19.019 10.4813 20.2502 12.0001 20.2502C13.5189 20.2502 14.7501 19.019 14.7501 17.5002V16.0509C15.4759 15.6548 16.1068 15.107 16.5998 14.4506L15.4004 13.5498ZM10.7501 17.5002V16.6139C11.1525 16.7031 11.5708 16.7502 12.0001 16.7502C12.4294 16.7502 12.8477 16.7031 13.2501 16.6139V17.5002C13.2501 18.1906 12.6904 18.7502 12.0001 18.7502C11.3097 18.7502 10.7501 18.1906 10.7501 17.5002Z" fill="#141B34"/>
</svg>
