<svg width="24" height="24" viewBox="0 0 24 24" fill="none" xmlns="http://www.w3.org/2000/svg">
<path fill-rule="evenodd" clip-rule="evenodd" d="M17 13.25C15.7574 13.25 14.75 14.2574 14.75 15.5V16.25H13.25V22.75H20.75V16.25H19.25V15.5C19.25 14.2574 18.2426 13.25 17 13.25ZM17.75 15.5V16.25H16.25V15.5C16.25 15.0858 16.5858 14.75 17 14.75C17.4142 14.75 17.75 15.0858 17.75 15.5Z" fill="#141B34"/>
<path d="M6.74987 3.75V9.6343C6.69558 9.67759 6.63505 9.72627 6.56929 9.77981C6.2835 10.0124 5.89579 10.3391 5.49034 10.7138C5.08661 11.0868 4.65519 11.5168 4.28729 11.9559C3.92999 12.3824 3.58564 12.8719 3.41522 13.3624C3.11227 14.2344 3.26692 15.0386 3.54766 15.7201C3.7632 16.2433 4.08221 16.7547 4.3506 17.185C4.41519 17.2885 4.47692 17.3875 4.53351 17.4807C4.81659 17.9469 5.43699 18.7185 5.94697 19.3322C6.20984 19.6485 6.45661 19.9385 6.63753 20.1492L6.75001 20.2799V22.75H11.7499V14.75H13.3249C13.6723 13.0383 15.1857 11.75 16.9999 11.75C17.7081 11.75 18.3705 11.9463 18.9356 12.2876C18.798 11.9794 18.6082 11.6901 18.3529 11.4332C16.3189 9.38616 13.6137 8.81064 11.7499 8.74751V3.75C11.7499 2.36929 10.6306 1.25 9.24987 1.25C7.86915 1.25 6.74987 2.36929 6.74987 3.75Z" fill="#141B34"/>
</svg>
