<svg width="24" height="24" viewBox="0 0 24 24" fill="none" xmlns="http://www.w3.org/2000/svg">
<path fill-rule="evenodd" clip-rule="evenodd" d="M2.25 2.18738C2.25 1.66961 2.68593 1.24988 3.22368 1.24988H19.7763C20.3141 1.24988 20.75 1.66961 20.75 2.18738V7.81238C20.75 8.33014 20.3141 8.74988 19.7763 8.74988H15.8816V6.87488H18.8026V3.12488H4.19737V6.87488H7.60526V8.74988H3.22368C2.68593 8.74988 2.25 8.33014 2.25 7.81238V2.18738Z" fill="#141B34"/>
<path d="M11.4638 4.24988C10.8508 4.24988 10.3404 4.75057 10.3404 5.38482L10.3406 15.9881L7.49128 13.1971C6.90715 12.703 6.03228 12.7868 5.55169 13.3901C5.14698 13.8982 5.14975 14.623 5.55821 15.1279L5.56811 15.1402L10.3406 21.5413L10.3405 22.7497L19.7136 22.7499L19.7138 21.5255C19.8565 21.3556 20.379 20.7368 20.5767 20.49C20.7748 20.2427 20.9761 19.9831 21.1385 19.756C21.3107 19.5154 21.4106 19.3499 21.4387 19.2765C21.5872 18.887 21.6677 18.4327 21.7086 17.7856C21.7498 17.1353 21.75 16.3172 21.75 15.2023C21.75 14.6355 21.7495 14.2409 21.7176 13.9374C21.6864 13.6406 21.6288 13.4768 21.5447 13.3564C21.469 13.2479 21.3753 13.154 21.268 13.0787C21.1502 12.9959 20.9903 12.9389 20.697 12.9079C20.4077 12.8773 20.0344 12.8756 19.5037 12.8755V14.5212H18.6961V12.4783C18.6961 11.844 18.1856 11.3433 17.5727 11.3433H16.4031C16.4494 11.7689 16.4494 12.2972 16.4494 12.9395V14.0104H15.6417V12.968C15.6417 12.2347 15.6409 11.7239 15.5892 11.3387C15.539 10.9641 15.4474 10.7685 15.3099 10.6305C15.1734 10.4936 14.9816 10.4031 14.612 10.3533C14.3045 10.3118 13.916 10.3031 13.3948 10.3013V13.4997H12.5871V5.38482C12.5871 4.75057 12.0767 4.24988 11.4638 4.24988Z" fill="#141B34"/>
</svg>
