<svg width="24" height="24" viewBox="0 0 24 24" fill="none" xmlns="http://www.w3.org/2000/svg">
<path fill-rule="evenodd" clip-rule="evenodd" d="M1.25 2.22235C1.25 1.68534 1.68754 1.25 2.22727 1.25H21.7727C22.3125 1.25 22.75 1.68534 22.75 2.22235V10.0011H20.7955V3.1947H3.20455V16.8053H7.11364V18.75H2.22727C1.68754 18.75 1.25 18.3147 1.25 17.7777V2.22235Z" fill="#141B34"/>
<path d="M12.4286 7.41238C12.4286 6.2277 13.3787 5.25 14.572 5.25C15.7646 5.25 16.7145 6.22656 16.7155 7.41053L16.7181 11.8383H19.6786C21.3844 11.8383 22.75 13.2371 22.75 14.9412V19.647C22.75 21.3512 21.3844 22.75 19.6786 22.75H13.2657L8.72302 16.635C8.09355 15.8295 8.09197 14.6877 8.72043 13.8803C9.48691 12.8956 10.9091 12.7538 11.8483 13.5811L11.8499 13.5826L12.4286 14.0954V7.41238Z" fill="#141B34"/>
</svg>
