<svg width="24" height="24" viewBox="0 0 24 24" fill="none" xmlns="http://www.w3.org/2000/svg">
<path fill-rule="evenodd" clip-rule="evenodd" d="M9.94102 2.25H20.0571L21.5571 7.25H22.749V15.75H20.999V9H19.4871L18.9621 7.25H19.9908L18.9408 3.75H11.0569L10.9819 4H9.41602L9.94102 2.25ZM3.94198 8.25H14.058L15.558 13.25H16.75V21.75H14.25V19.75H3.75V21.75H1.25V13.25H2.44198L3.94198 8.25ZM4.00781 13.25H13.9918L12.9418 9.75H5.05781L4.00781 13.25ZM13.25 17.0102H14.75V15.5002H13.25V17.0102ZM4.75 17.01H3.25V15.5H4.75V17.01ZM5.76758 18.25L6.5 17H11.5L12.237 18.25H5.76758ZM17.0571 5.25H6.94102L6.41602 7H7.98185L8.05685 6.75H15.9408L16.9908 10.25H15.9621L16.4871 12H17.999V18.75H19.749V10.25H18.5571L17.0571 5.25Z" fill="#141B34"/>
</svg>
