<svg width="24" height="24" viewBox="0 0 24 24" fill="none" xmlns="http://www.w3.org/2000/svg">
<path fill-rule="evenodd" clip-rule="evenodd" d="M7.4 5.71552H5V7.21552H9.18194C8.92551 7.79315 8.59222 8.35898 8.21052 8.90399C8.1738 8.85441 8.13755 8.80483 8.10208 8.75565C7.86527 8.42724 7.70157 8.16862 7.64479 8.0468L6.28521 8.68047C6.40843 8.94486 6.64973 9.30615 6.88542 9.63299C7.00289 9.79589 7.12848 9.9632 7.2537 10.1241C6.66238 10.8072 6.0382 11.423 5.46735 11.9479L6.48265 13.0521C7.04053 12.5391 7.65985 11.9317 8.26126 11.2506L9.03448 12.0544L10.1155 11.0145L9.21395 10.0773C9.85464 9.21119 10.4274 8.24664 10.7973 7.21552H12V5.71552H8.9V4.5H7.4V5.71552Z" fill="#141B34"/>
<path d="M16.1267 15.75H14.8745L15.5006 13.8717L16.1267 15.75Z" fill="#141B34"/>
<path fill-rule="evenodd" clip-rule="evenodd" d="M1.46967 1.46967C1.61032 1.32902 1.80109 1.25 2 1.25H17C17.4142 1.25 17.75 1.58579 17.75 2V6.25H22C22.4142 6.25 22.75 6.58579 22.75 7V22C22.75 22.4142 22.4142 22.75 22 22.75H7C6.58579 22.75 6.25 22.4142 6.25 22V17.75H2C1.58579 17.75 1.25 17.4142 1.25 17V2C1.25 1.80109 1.32902 1.61032 1.46967 1.46967ZM16.25 6.68934V2.75L2.75 2.75V16.25H6.68934L16.25 6.68934ZM16.5411 12.25H14.46L12.2891 18.7628L13.7121 19.2372L14.3745 17.25H16.6267L17.2891 19.2372L18.7121 18.7628L16.5411 12.25Z" fill="#141B34"/>
</svg>
