<svg width="24" height="24" viewBox="0 0 24 24" fill="none" xmlns="http://www.w3.org/2000/svg">
<path d="M2.71299 2.307C2.99325 2.19091 3.31584 2.25508 3.53033 2.46958L21.5303 20.4698C21.7448 20.6843 21.809 21.0069 21.6929 21.2871C21.5768 21.5674 21.3033 21.7501 21 21.7501H3C2.58579 21.7501 2.25 21.4143 2.25 21.0001V2.99991C2.25 2.69656 2.43273 2.42308 2.71299 2.307Z" fill="#141B34"/>
<path d="M14.75 2.25011H9.75V7.25011H11.75V5.68454L13.7163 7.67406C13.6644 7.85729 13.6367 8.05064 13.6367 8.25047C13.6367 9.4178 14.583 10.3641 15.7504 10.3641C15.9571 10.3641 16.1568 10.3344 16.3456 10.2791L18.3269 12.2501H16.75V14.2501H21.7498L21.7508 9.25031L19.7508 9.24992L19.7505 10.8452L17.7702 8.87515C17.8312 8.67772 17.864 8.46793 17.864 8.25047C17.864 8.03281 17.8311 7.82284 17.77 7.62525L19.7505 5.65503L19.7508 7.25031L21.7508 7.24992L21.7498 2.25011H16.7508V4.25011H18.3269L16.3451 6.22166C16.1564 6.16645 15.9569 6.13683 15.7504 6.13683C15.5262 6.13683 15.3101 6.17174 15.1074 6.23641L13.1443 4.25011H14.75V2.25011Z" fill="#141B34"/>
</svg>
