<svg width="24" height="24" viewBox="0 0 24 24" fill="none" xmlns="http://www.w3.org/2000/svg">
<path fill-rule="evenodd" clip-rule="evenodd" d="M4.62448 3.75H1.5V1.75H5.5C6.0012 1.75 6.42499 2.12103 6.49123 2.61784L8.37552 16.75H21.5V18.75H7.5C6.9988 18.75 6.57501 18.379 6.50877 17.8822L4.62448 3.75Z" fill="#141B34"/>
<path d="M9 20.25C9 19.1454 9.89543 18.25 11 18.25C12.1046 18.25 13 19.1454 13 20.25C13 21.3546 12.1046 22.25 11 22.25C9.89543 22.25 9 21.3546 9 20.25Z" fill="#141B34"/>
<path d="M16 20.25C16 19.1454 16.8954 18.25 18 18.25C19.1046 18.25 20 19.1454 20 20.25C20 21.3546 19.1046 22.25 18 22.25C16.8954 22.25 16 21.3546 16 20.25Z" fill="#141B34"/>
<path d="M11 11.5C11 11.0858 11.3358 10.75 11.75 10.75H21.75C22.1642 10.75 22.5 11.0858 22.5 11.5V14.5C22.5 14.9143 22.1642 15.25 21.75 15.25H11.75C11.3358 15.25 11 14.9143 11 14.5V11.5Z" fill="#141B34"/>
<path d="M8.75 5.5C8.75 5.08579 9.08579 4.75 9.5 4.75H19.5C19.9142 4.75 20.25 5.08579 20.25 5.5V8.50004C20.25 8.91426 19.9142 9.25004 19.5 9.25004H9.5C9.08579 9.25004 8.75 8.91426 8.75 8.50004V5.5Z" fill="#141B34"/>
</svg>
