<svg width="24" height="24" viewBox="0 0 24 24" fill="none" xmlns="http://www.w3.org/2000/svg">
<path fill-rule="evenodd" clip-rule="evenodd" d="M13 11.75V15.851C14.2705 14.5545 16.0413 13.75 18 13.75H19V15.75H18C15.2386 15.75 13 17.9886 13 20.75V22.75H11V20.75C11 17.9886 8.76142 15.75 6 15.75H5V13.75H6C7.95869 13.75 9.72948 14.5545 11 15.851V11.75H13Z" fill="#141B34"/>
<path d="M6.25 4.25H7C9.14212 4.25 11.0107 5.42138 12 7.15853C12.9893 5.42138 14.8579 4.25 17 4.25H17.75V8C17.75 11.1756 15.1756 13.75 12 13.75C8.82436 13.75 6.25 11.1756 6.25 8V4.25Z" fill="#141B34"/>
<path d="M12.0007 1.25L11.2945 1.62509C11.08 1.75376 10.7882 1.94248 10.4777 2.18401C10.0991 2.47849 9.65176 2.88257 9.29297 3.38408C10.3273 3.7425 11.2513 4.33653 12.0007 5.10126C12.7501 4.33653 13.674 3.7425 14.7084 3.38408C14.3496 2.88257 13.9022 2.47849 13.5236 2.18401C13.2131 1.94248 12.9213 1.75376 12.7068 1.62509L12.0007 1.25Z" fill="#141B34"/>
</svg>
