<svg width="24" height="24" viewBox="0 0 24 24" fill="none" xmlns="http://www.w3.org/2000/svg">
<path d="M12.2952 1.24988C11.5382 1.24988 10.9245 1.84757 10.9245 2.58487V11.9999H10.1238V4.20195C10.1238 3.506 9.52221 2.92086 8.75311 2.92086C7.98402 2.92086 7.38241 3.506 7.38241 4.20195V14.7849H6.58175V10.6385L5.53391 11.5801C4.82023 12.3239 4.30403 12.8629 3.93961 13.3252C3.57783 13.7842 3.38977 14.1385 3.31119 14.5035C3.25841 14.7485 3.23967 14.9987 3.25537 15.248C3.30421 16.0235 3.74191 16.7833 4.94853 18.46L4.95734 18.4723L7.79056 22.7499H17.6083C19.3555 22.7499 20.75 21.4166 20.75 19.7978V12.5569C20.75 11.8493 20.1611 11.2758 19.4346 11.2758H18.0017C18.0063 11.3309 18.0086 11.3867 18.0086 11.4429V13.3303H17.2079V11.4429C17.2079 11.2925 17.1815 11.1489 17.1332 11.0158C16.9524 10.5177 16.4647 10.1618 15.8926 10.1618H14.4665V12.5569H13.6659V2.58487C13.6659 1.84757 13.0522 1.24988 12.2952 1.24988Z" fill="#141B34"/>
</svg>
