<svg width="24" height="24" viewBox="0 0 24 24" fill="none" xmlns="http://www.w3.org/2000/svg">
<path fill-rule="evenodd" clip-rule="evenodd" d="M16.7058 8.706L8.70731 16.7059L7.29297 15.2918L15.2915 7.29192L16.7058 8.706Z" fill="#141B34"/>
<path fill-rule="evenodd" clip-rule="evenodd" d="M15.7929 1.29282C16.1834 0.902293 16.8166 0.902293 17.2071 1.29282L22.7071 6.79282C23.0976 7.18334 23.0976 7.81651 22.7071 8.20703L17.2071 13.707C16.8166 14.0976 16.1834 14.0976 15.7929 13.707L14.4179 12.332L15.8321 10.9178L16.5 11.5857L20.5858 7.49992L16.5 3.41414L12.4142 7.49992L13.0821 8.16782L11.6679 9.58203L10.2929 8.20703C9.90237 7.81651 9.90237 7.18334 10.2929 6.79282L15.7929 1.29282Z" fill="#141B34"/>
<path fill-rule="evenodd" clip-rule="evenodd" d="M6.79289 10.2928C7.18342 9.90229 7.81658 9.90229 8.20711 10.2928L9.58211 11.6678L8.16789 13.082L7.5 12.4141L3.41421 16.4999L7.5 20.5857L11.5858 16.4999L10.9179 15.832L12.3321 14.4178L13.7071 15.7928C14.0976 16.1833 14.0976 16.8165 13.7071 17.207L8.20711 22.707C7.81658 23.0976 7.18342 23.0976 6.79289 22.707L1.29289 17.207C0.902369 16.8165 0.902369 16.1833 1.29289 15.7928L6.79289 10.2928Z" fill="#141B34"/>
<path fill-rule="evenodd" clip-rule="evenodd" d="M18 15H21V17H18V15ZM17 18V21H15V18H17Z" fill="#141B34"/>
<path fill-rule="evenodd" clip-rule="evenodd" d="M7 6V3H9V6H7ZM6 9H3V7H6V9Z" fill="#141B34"/>
</svg>
