<svg width="24" height="24" viewBox="0 0 24 24" fill="none" xmlns="http://www.w3.org/2000/svg">
<path fill-rule="evenodd" clip-rule="evenodd" d="M5.99994 1.25C5.58573 1.25 5.24994 1.58579 5.24994 2V6.75H3.74994V16.9318C3.74994 20.1451 6.3243 22.75 9.49994 22.75V20.8106C7.38285 20.8106 5.66661 19.074 5.66661 16.9318V8.68939H13.3333V13.9318H15.2499V6.75H13.7499V2C13.7499 1.58579 13.4142 1.25 12.9999 1.25H5.99994ZM10.9999 5.25H7.99994V3.75H10.9999V5.25Z" fill="#141B34"/>
<path fill-rule="evenodd" clip-rule="evenodd" d="M20.2501 16.0431L13.543 22.7502L10.3359 19.5431L11.7501 18.1289L13.543 19.9218L18.8359 14.6289L20.2501 16.0431Z" fill="#141B34"/>
</svg>
