<svg width="24" height="24" viewBox="0 0 24 24" fill="none" xmlns="http://www.w3.org/2000/svg">
<path fill-rule="evenodd" clip-rule="evenodd" d="M8.99994 22.75V17.25H10.9999V22.75H8.99994Z" fill="#141B34"/>
<path fill-rule="evenodd" clip-rule="evenodd" d="M14.2499 1.25H5.74994V5.25H3.99994C3.58573 5.25 3.24994 5.58579 3.24994 6V12.2077L6.5753 17.75H12.1092L9.06635 14.7071L12.2483 11.5251L14.0412 13.318L16.7494 10.6099V6C16.7494 5.58579 16.4136 5.25 15.9994 5.25H14.2499V1.25ZM12.361 5.25V3.02778H7.63883V5.25H12.361ZM8.49994 10H11.4999V8H8.49994V10Z" fill="#141B34"/>
<path fill-rule="evenodd" clip-rule="evenodd" d="M20.7501 11.2072L14.043 17.9143L10.8359 14.7072L12.2501 13.293L14.043 15.0859L19.3359 9.79297L20.7501 11.2072Z" fill="#141B34"/>
</svg>
