<svg width="24" height="24" viewBox="0 0 24 24" fill="none" xmlns="http://www.w3.org/2000/svg">
<path d="M5.5 6.70588C5.5 4.23662 7.52311 2.25 10 2.25C12.4769 2.25 14.5 4.23662 14.5 6.70588C14.5 9.17514 12.4769 11.1618 10 11.1618C7.52311 11.1618 5.5 9.17514 5.5 6.70588Z" fill="#141B34"/>
<path d="M1.75 21C1.75 16.484 5.45204 12.8382 10 12.8382C14.548 12.8382 18.25 16.484 18.25 21V21.75H1.75V21Z" fill="#141B34"/>
<path fill-rule="evenodd" clip-rule="evenodd" d="M22.25 6L16.25 6V4L22.25 4V6ZM22.25 9L16.25 9V7L22.25 7V9ZM22.25 12H19.25V10H22.25V12Z" fill="#141B34"/>
</svg>
