<svg width="24" height="24" viewBox="0 0 24 24" fill="none" xmlns="http://www.w3.org/2000/svg">
<path d="M5 6.70588C5 4.23662 7.02311 2.25 9.5 2.25C11.9769 2.25 14 4.23662 14 6.70588C14 9.17514 11.9769 11.1618 9.5 11.1618C7.02311 11.1618 5 9.17514 5 6.70588Z" fill="#141B34"/>
<path d="M1.25 21C1.25 16.484 4.95204 12.8382 9.5 12.8382C14.048 12.8382 17.75 16.484 17.75 21V21.75H1.25V21Z" fill="#141B34"/>
<path fill-rule="evenodd" clip-rule="evenodd" d="M15.25 10.7C15.25 8.79462 16.7946 7.25 18.7 7.25C20.6054 7.25 22.15 8.79462 22.15 10.7C22.15 11.3796 21.9535 12.0134 21.6142 12.5475L22.5321 13.4714L21.4679 14.5286L20.5548 13.6095C20.0192 13.9517 19.3827 14.15 18.7 14.15C16.7946 14.15 15.25 12.6054 15.25 10.7ZM18.7 8.75C17.623 8.75 16.75 9.62304 16.75 10.7C16.75 11.777 17.623 12.65 18.7 12.65C19.777 12.65 20.65 11.777 20.65 10.7C20.65 9.62304 19.777 8.75 18.7 8.75Z" fill="#141B34"/>
</svg>
