<svg width="24" height="24" viewBox="0 0 24 24" fill="none" xmlns="http://www.w3.org/2000/svg">
<path d="M5.25 7C5.25 4.65279 7.15279 2.75 9.5 2.75C11.8472 2.75 13.75 4.65279 13.75 7C13.75 9.34721 11.8472 11.25 9.5 11.25C7.15279 11.25 5.25 9.34721 5.25 7Z" fill="#141B34"/>
<path d="M1.75 20.5C1.75 16.2198 5.21979 12.75 9.5 12.75C13.7802 12.75 17.25 16.2198 17.25 20.5V21.25H1.75V20.5Z" fill="#141B34"/>
<path d="M18.7467 20.25H22.25V19.5C22.25 15.7721 19.2279 12.75 15.5 12.75C15.2069 12.75 14.9181 12.7687 14.6348 12.8049C17.0514 14.4207 18.6643 17.1446 18.7467 20.25Z" fill="#141B34"/>
<path d="M13.7841 10.8353C14.2983 11.1003 14.8817 11.25 15.5 11.25C17.5711 11.25 19.25 9.57107 19.25 7.5C19.25 5.42893 17.5711 3.75 15.5 3.75C15.1027 3.75 14.7198 3.8118 14.3604 3.9263C14.9238 4.81535 15.25 5.86958 15.25 7C15.25 8.47362 14.6957 9.81777 13.7841 10.8353Z" fill="#141B34"/>
</svg>
