<svg width="24" height="24" viewBox="0 0 24 24" fill="none" xmlns="http://www.w3.org/2000/svg">
<path d="M5 6.70588C5 4.23662 7.02311 2.25 9.5 2.25C11.9769 2.25 14 4.23662 14 6.70588C14 9.17514 11.9769 11.1618 9.5 11.1618C7.02311 11.1618 5 9.17514 5 6.70588Z" fill="#141B34"/>
<path d="M1.25 21C1.25 16.484 4.95204 12.8382 9.5 12.8382C14.048 12.8382 17.75 16.484 17.75 21V21.75H1.25V21Z" fill="#141B34"/>
<path d="M19 10.75C19 10.75 18.6638 10.6484 18.6142 10.6304C18.5151 10.5945 18.3785 10.5408 18.2168 10.4666C17.8953 10.3189 17.4646 10.085 17.0307 9.73886C16.1529 9.0385 15.25 7.86217 15.25 6.05615V3.27676H16C16.7323 3.27676 17.384 3.09001 17.8593 2.89693C18.0952 2.80112 18.4549 2.60363 18.5801 2.53428L19 2.25L19.4199 2.53428C19.5451 2.60363 19.9048 2.80112 20.1407 2.89693C20.616 3.09001 21.2677 3.27676 22 3.27676H22.75V6.05615C22.75 7.86217 21.8471 9.0385 20.9693 9.73886C20.5354 10.085 20.1047 10.3189 19.7832 10.4666C19.6215 10.5408 19.4849 10.5945 19.3858 10.6304C19.3362 10.6484 19 10.75 19 10.75Z" fill="#141B34"/>
</svg>
