<svg width="24" height="24" viewBox="0 0 24 24" fill="none" xmlns="http://www.w3.org/2000/svg">
<path fill-rule="evenodd" clip-rule="evenodd" d="M2.44145 6.67301H1.27918V4.75H14.9318C15.2287 4.75 15.5095 4.88279 15.695 5.11089L19.4699 9.75387L22.2097 11.1012C22.5408 11.2641 22.75 11.5971 22.75 11.9613V16.2885C22.75 16.8195 22.3125 17.25 21.7727 17.25H20.7171C20.7388 17.0867 20.75 16.9202 20.75 16.751C20.75 14.6799 19.0711 13.001 17 13.001C14.9289 13.001 13.25 14.6799 13.25 16.751C13.25 16.9202 13.2612 17.0867 13.2829 17.25H10.7171C10.7388 17.0867 10.75 16.9202 10.75 16.751C10.75 14.6799 9.07107 13.001 7 13.001C4.92893 13.001 3.25 14.6799 3.25 16.751C3.25 16.9202 3.2612 17.0867 3.28291 17.25H3.20455C2.78388 17.25 2.41042 16.9852 2.27741 16.5925L1.30014 13.7076C1.24137 13.5341 1.2341 13.3477 1.27918 13.1704L2.68583 7.63454L2.44145 6.67301ZM14.4613 6.67285L17.5732 10.5003H13.4995L10.8203 6.67285H14.4613Z" fill="#141B34"/>
<path d="M19.502 16.751C19.502 18.1317 18.3827 19.251 17.002 19.251C15.6212 19.251 14.502 18.1317 14.502 16.751C14.502 15.3703 15.6212 14.251 17.002 14.251C18.3827 14.251 19.502 15.3703 19.502 16.751Z" fill="#141B34"/>
<path d="M9.50195 16.751C9.50195 18.1317 8.38267 19.251 7.00195 19.251C5.62124 19.251 4.50195 18.1317 4.50195 16.751C4.50195 15.3703 5.62124 14.251 7.00195 14.251C8.38267 14.251 9.50195 15.3703 9.50195 16.751Z" fill="#141B34"/>
</svg>
