<svg width="24" height="24" viewBox="0 0 24 24" fill="none" xmlns="http://www.w3.org/2000/svg">
<path d="M6.06307 1.25C5.23003 1.25 4.59829 1.98145 4.74102 2.7807L6.67393 13.6042L5.88503 13.7378L5.32736 10.615C4.9181 11.043 4.48514 11.5046 4.11233 12.0004C3.56278 12.7312 3.21174 13.4531 3.25333 14.1349C3.27611 14.5082 3.40586 14.8837 3.68631 15.384C3.96888 15.8879 4.3858 16.4872 4.96265 17.3146L7.82376 20.7744V22.75H17.8105V20.7658C17.9649 20.5885 18.5249 19.9486 18.7411 19.6876C18.9578 19.4261 19.18 19.1488 19.3633 18.9008C19.6257 18.4933 20.1887 17.5285 20.3418 16.9297C20.5579 16.2447 20.75 15.2345 20.75 13.671V11.443C20.75 10.7355 20.161 10.1619 19.4345 10.1619H18.119V12H17.3183V9.77202C17.3183 9.0645 16.7293 8.49093 16.0028 8.49093H14.4546L14.1092 10.3968L13.3206 10.2613L14.6762 2.78087C14.8209 1.98225 14.1901 1.25 13.3573 1.25C12.7428 1.25 12.2071 1.6573 12.058 2.2379L10.0996 9.86659H9.32281L7.36491 2.23985C7.21556 1.65811 6.67883 1.25 6.06307 1.25Z" fill="#141B34"/>
</svg>
