<svg width="24" height="24" viewBox="0 0 24 24" fill="none" xmlns="http://www.w3.org/2000/svg">
<path fill-rule="evenodd" clip-rule="evenodd" d="M1.25 4C1.25 3.58579 1.58579 3.25 2 3.25H17C17.4142 3.25 17.75 3.58579 17.75 4V8.14536L21.3551 5.88704C21.6396 5.7088 21.994 5.70413 22.2828 5.8748C22.5715 6.04547 22.75 6.36511 22.75 6.71152V17.2885C22.75 17.6349 22.5715 17.9545 22.2828 18.1252C21.994 18.2959 21.6397 18.2912 21.3551 18.113L17.75 15.8548V20C17.75 20.4142 17.4142 20.75 17 20.75H2C1.58579 20.75 1.25 20.4142 1.25 20V4ZM17.75 13.6121V10.388L20.908 8.40981V15.5902L17.75 13.6121ZM10 9L14 9V7H10V9Z" fill="#141B34"/>
</svg>
