<svg width="24" height="24" viewBox="0 0 24 24" fill="none" xmlns="http://www.w3.org/2000/svg">
<path d="M14.3586 3.34171C14.5994 3.47317 14.7492 3.72564 14.7492 4V20C14.7492 20.2744 14.5994 20.5268 14.3586 20.6583C14.1178 20.7898 13.8244 20.7792 13.5936 20.6309L6.77964 16.25H1.99994C1.58573 16.25 1.24994 15.9142 1.24994 15.5V8.5C1.24994 8.08579 1.58573 7.75 1.99994 7.75H6.77964L13.5936 3.36914C13.8244 3.22076 14.1178 3.21024 14.3586 3.34171Z" fill="#141B34"/>
<path fill-rule="evenodd" clip-rule="evenodd" d="M18.1288 12.0001L16.3359 10.2072L17.7501 8.79297L19.543 10.5859L21.3359 8.79297L22.7501 10.2072L20.9572 12.0001L22.7501 13.793L21.3359 15.2072L19.543 13.4143L17.7501 15.2072L16.3359 13.793L18.1288 12.0001Z" fill="#141B34"/>
</svg>
