<svg width="24" height="24" viewBox="0 0 24 24" fill="none" xmlns="http://www.w3.org/2000/svg">
<path fill-rule="evenodd" clip-rule="evenodd" d="M3.5 22V16H5V22H3.5Z" fill="#141B34"/>
<path fill-rule="evenodd" clip-rule="evenodd" d="M13.75 8V19C13.75 19.4142 13.4142 19.75 13 19.75H4.5V18.25H12.25V8H13.75Z" fill="#141B34"/>
<path fill-rule="evenodd" clip-rule="evenodd" d="M7.27493 7.28419C7.67027 7.16058 8.09096 7.38087 8.21456 7.77621L10.5513 15.25H15.4485L17.7828 7.77641C17.9063 7.38104 18.327 7.16063 18.7223 7.28413C19.1177 7.40762 19.3381 7.82824 19.2146 8.22362L16.7159 16.2236C16.6181 16.5368 16.3281 16.75 16 16.75H10C9.672 16.75 9.38205 16.5369 9.28417 16.2238L6.78291 8.22383C6.6593 7.82849 6.87959 7.4078 7.27493 7.28419Z" fill="#141B34"/>
<path d="M19.0981 7.55C19.2685 7.77726 19.2959 8.08132 19.1689 8.33541C19.0418 8.5895 18.7821 8.75 18.4981 8.75H7.49805C7.21397 8.75 6.95427 8.5895 6.82723 8.33541C6.70019 8.08132 6.7276 7.77726 6.89805 7.55L10.1231 3.25H15.8731L19.0981 7.55Z" fill="#141B34"/>
<path fill-rule="evenodd" clip-rule="evenodd" d="M20.5 8.75H5.5V7.25H20.5V8.75Z" fill="#141B34"/>
<path fill-rule="evenodd" clip-rule="evenodd" d="M13.75 2V4H12.25V2H13.75Z" fill="#141B34"/>
</svg>
