<svg width="24" height="24" viewBox="0 0 24 24" fill="none" xmlns="http://www.w3.org/2000/svg">
<path d="M21.3364 22.75L1.25061 2.66421L2.66482 1.25L22.7506 21.3358L21.3364 22.75Z" fill="#141B34"/>
<path d="M1.53415 2.51848C1.71647 2.34658 1.96376 2.25 2.22161 2.25H2.24942L4.08274 4.08332H3.19383L3.19384 6.25H6.24942L21.7494 21.75H1.99943C1.58521 21.75 1.24943 21.4142 1.24943 21L1.24939 7L1.2494 6.99637L1.24939 3.16666C1.24939 2.92355 1.35182 2.69039 1.53415 2.51848Z" fill="#141B34"/>
<path d="M17.7772 2.25C18.3141 2.25 18.7494 2.6604 18.7494 3.16666V6.25H21.9994C22.4136 6.25 22.7494 6.58579 22.7494 7V19.2144L19.1081 15.5731C19.5048 15.1674 19.7494 14.6123 19.7494 14C19.7494 12.7574 18.742 11.75 17.4994 11.75C16.8871 11.75 16.332 11.9946 15.9263 12.3913L9.78495 6.25H16.8049V4.08332H7.61827L5.78495 2.25H17.7772Z" fill="#141B34"/>
</svg>
