<svg width="24" height="24" viewBox="0 0 24 24" fill="none" xmlns="http://www.w3.org/2000/svg">
<path d="M21.3358 22.75L1.25 2.66421L2.66421 1.25L22.75 21.3358L21.3358 22.75Z" fill="#141B34"/>
<path d="M2.25 19.4452V5.68934C3.00695 5.09414 3.65029 4.63292 4.25654 4.25583L21.75 21.7493V22.75H20.9037C13.9787 22.7501 8.30894 22.7501 2.64086 19.6584L2.25 19.4452Z" fill="#141B34"/>
<path d="M18 1.25H18.75V7.22374C19.4788 7.24087 20.229 7.25002 21 7.25002H21.75V18.2138L10.1328 6.59659C12.0321 6.83748 14.2583 7.04324 16.7798 7.15647V3.39374C13.0776 3.48057 10.2836 4.05045 8.2505 4.71426L6.62609 3.08985C9.10704 2.12941 12.8 1.25 18 1.25Z" fill="#141B34"/>
</svg>
