<svg width="24" height="24" viewBox="0 0 24 24" fill="none" xmlns="http://www.w3.org/2000/svg">
<path fill-rule="evenodd" clip-rule="evenodd" d="M21.6371 1.60572C21.5004 1.38461 21.259 1.25002 20.9991 1.25002L3.7491 1.25V6.20936L5.14107 8.50831L3.74913 10.7892L3.74813 17.8641L2.29765 21.737C2.21139 21.9673 2.24353 22.2252 2.38365 22.4273C2.52377 22.6294 2.75407 22.75 3 22.75H20.2491V5.17707L21.6699 2.33543C21.7862 2.10294 21.7737 1.82683 21.6371 1.60572ZM8.25 17.25H15.75V18.75H8.25V17.25ZM9.75 7.5C9.75 6.25736 10.7574 5.25 12 5.25C13.2426 5.25 14.25 6.25736 14.25 7.5C14.25 8.74264 13.2426 9.75 12 9.75C10.7574 9.75 9.75 8.74264 9.75 7.5ZM12 10.75C9.92893 10.75 8.25 12.4289 8.25 14.5V15.25H15.75V14.5C15.75 12.4289 14.0711 10.75 12 10.75Z" fill="#141B34"/>
</svg>
