<svg width="24" height="24" viewBox="0 0 24 24" fill="none" xmlns="http://www.w3.org/2000/svg">
<path fill-rule="evenodd" clip-rule="evenodd" d="M3 2.25012C2.58579 2.25012 2.25 2.58591 2.25 3.00012V21.0001C2.25 21.4143 2.58579 21.7501 3 21.7501H21C21.4142 21.7501 21.75 21.4143 21.75 21.0001V3.00012C21.75 2.58591 21.4142 2.25012 21 2.25012H3ZM18.4791 9.19715L18.6753 8.21657L16.7141 7.82434L16.518 8.80492C16.3638 9.57575 16.0088 10.857 15.4565 12.1273C15.1888 12.7429 14.8874 13.3264 14.5579 13.8387L13.4764 8.79151L11.5338 8.73792C11.2983 9.60157 10.8203 10.9879 10.1672 12.2902C9.86295 12.8968 9.53995 13.4456 9.20942 13.906L8.34709 7.86967L6.36719 8.15251L7.7216 17.6334L9.01305 16.8585C10.275 16.1014 11.2561 14.5803 11.9549 13.1868C12.0551 12.9871 12.1515 12.7858 12.2438 12.5849L13.3598 17.7927L14.6233 16.7819C15.8153 15.8282 16.6866 14.314 17.2906 12.9248C17.905 11.5117 18.3 10.093 18.4791 9.19715Z" fill="#141B34"/>
</svg>
