<svg width="24" height="24" viewBox="0 0 24 24" fill="none" xmlns="http://www.w3.org/2000/svg">
<path d="M11.9999 3.49982C15.4572 3.4998 18.8688 4.77573 21.9999 7.24982L20.5816 8.67513C17.8024 6.53401 14.8793 5.4998 11.9999 5.49982C9.12054 5.49983 6.19747 6.53403 3.41829 8.67513L1.99994 7.24982C5.13104 4.77575 8.54258 3.49983 11.9999 3.49982Z" fill="#141B34"/>
<path d="M9.48641 14.773L8.06486 13.3445C9.1888 12.448 10.5943 11.9998 11.9999 11.9998V13.9998C11.1086 13.9998 10.2173 14.2576 9.48641 14.773Z" fill="#141B34"/>
<path d="M6.62982 11.9024L5.21006 10.4757C9.3927 7.19084 14.7902 7.16081 18.7974 10.4681L17.3819 11.8905C14.206 9.37796 10.0254 9.35723 6.62982 11.9024Z" fill="#141B34"/>
<path fill-rule="evenodd" clip-rule="evenodd" d="M18.7072 16.7927L21.0001 19.0856L19.5859 20.4998L17.293 18.2069L15.0001 20.4998L13.5859 19.0856L15.8788 16.7927L13.5859 14.4998L15.0001 13.0856L17.293 15.3785L19.5859 13.0856L21.0001 14.4998L18.7072 16.7927Z" fill="#141B34"/>
</svg>
