<svg width="24" height="24" viewBox="0 0 24 24" fill="none" xmlns="http://www.w3.org/2000/svg">
<path d="M12 2.25C7.87293 2.25 4.14061 3.94598 1.46433 6.67711C1.20837 6.93831 1.17812 7.34604 1.39273 7.64216L5.20663 12.9046C7.23996 11.8476 9.55069 11.25 12.0005 11.25C14.4501 11.25 16.7605 11.8475 18.7937 12.9042L22.6073 7.64216C22.8219 7.34604 22.7916 6.93831 22.5357 6.67711C19.8594 3.94598 16.1271 2.25 12 2.25Z" fill="#141B34"/>
<path d="M12.0005 12.75C14.1213 12.75 16.1254 13.2479 17.9026 14.1337L15.9759 16.7921C14.7111 16.4389 13.3778 16.25 12.0005 16.25C10.6229 16.25 9.2893 16.439 8.02426 16.7923L6.09768 14.134C7.87509 13.2481 9.87942 12.75 12.0005 12.75Z" fill="#141B34"/>
<path d="M12.0005 17.75C13.0428 17.75 14.0569 17.8703 15.0297 18.0977L12.6073 21.4401C12.4662 21.6348 12.2404 21.75 12 21.75C11.7596 21.75 11.5338 21.6348 11.3927 21.4401L8.97049 18.0979C9.94356 17.8703 10.9579 17.75 12.0005 17.75Z" fill="#141B34"/>
</svg>
