<svg width="24" height="24" viewBox="0 0 24 24" fill="none" xmlns="http://www.w3.org/2000/svg">
<path d="M20.2763 1.24994C20.8141 1.24994 21.25 1.68748 21.25 2.22721V13.0681H19.3026V3.20449L11.5132 3.20448L11.5132 10.0454H4.69737L4.69737 13.0681H2.75V8.66332L10.1362 1.24994H20.2763Z" fill="#141B34"/>
<path fill-rule="evenodd" clip-rule="evenodd" d="M3.8139 15.25L5.54007 17.6479L7.39788 15.25L8.64596 16.082L6.44147 18.9999L8.58013 21.9179L7.33206 22.75L5.54008 20.352L3.74808 22.75L2.5 21.918L4.63869 18.9999L2.56583 16.082L3.8139 15.25ZM10.2328 15.3158C10.5022 15.1948 10.8176 15.2432 11.0383 15.4394L12.7901 16.9965L14.5418 15.4394C14.7625 15.2432 15.0779 15.1948 15.3473 15.3158C15.6167 15.4368 15.7901 15.7046 15.7901 16V22.7499H14.2901V17.6701L12.7901 19.0034L11.2901 17.6701V22.75H9.79006V16C9.79006 15.7046 9.9634 15.4368 10.2328 15.3158ZM18.5 15.25V21.25H21.5V22.75H17.75C17.3358 22.75 17 22.4142 17 22V15.25H18.5Z" fill="#141B34"/>
</svg>
