<svg width="48" height="48" viewBox="0 0 115 112" fill="none" xmlns="http://www.w3.org/2000/svg" stroke-width="1px" stroke-linecap="round" stroke-linejoin="round"><path d="M22.5604 59.7502V69.1803L6.11035 59.6903V50.2502L22.5604 59.7502Z" stroke="#229EFF" stroke-linejoin="round"/><path d="M91.8801 78.2502C91.3001 74.3002 90.2801 70.3203 88.8101 66.2903C87.4701 62.6103 85.7599 58.9003 83.6699 55.1503C83.3999 54.6603 83.1201 54.1703 82.8401 53.6803C80.5501 49.7303 78.09 46.1503 75.45 42.9403C70.72 37.1703 65.4201 32.5902 59.5601 29.2102C55.8101 27.0402 52.29 25.6302 49 24.9702C44.74 24.1002 40.8701 24.4903 37.4001 26.1603L36.8401 26.4403C36.6301 26.5403 36.43 26.6503 36.23 26.7703C36.11 26.8403 35.9801 26.9202 35.8601 27.0002C33.4101 28.4902 31.44 30.5103 29.98 33.0503C29.08 34.5803 28.3701 36.3102 27.8601 38.2202C27.6101 39.0802 27.41 39.9703 27.25 40.9103C26.86 43.0603 26.6699 45.4102 26.6699 47.9702C26.6699 48.0602 26.6699 48.1602 26.6699 48.2502C26.6699 48.8402 26.68 49.4403 26.7 50.0403C26.8 52.4403 27.06 54.8503 27.49 57.2803C27.97 60.0603 28.6701 62.8503 29.5901 65.6603C31.1601 70.4903 33.38 75.3502 36.22 80.2602C42.59 91.2502 50.37 99.4003 59.55 104.7C68.19 109.68 75.6101 110.68 81.8101 107.7L82.04 107.59C82.31 107.46 82.5701 107.32 82.8301 107.17C86.1001 105.33 88.5301 102.59 90.1301 98.9403C91.6701 95.4503 92.4399 91.1103 92.4399 85.9503C92.4399 83.4003 92.2501 80.8302 91.8701 78.2502H91.8801ZM71.1101 88.6803L68.9199 89.9303L64.05 81.4802L55.45 66.5902V45.7102L63.6699 50.4602V67.4403L74.78 86.5902L71.1101 88.6803Z" stroke="#229EFF" stroke-linejoin="round"/><path d="M63.6702 50.4602V62.4802L55.4502 66.5902V45.7102L63.6702 50.4602Z" stroke="#229EFF" stroke-linejoin="round"/><path d="M74.7803 86.5902L71.1104 88.6803L68.9202 89.9303L64.0503 81.4802L55.4502 66.5902L63.6702 62.4802V67.4403L74.7803 86.5902Z" stroke="#229EFF" stroke-linejoin="round"/><path d="M42.5605 12.0002V21.4403L33.8105 25.8203L25.0405 30.2003L22.5605 31.4403V22.0002L42.5605 12.0002Z" stroke="#229EFF" stroke-linejoin="round"/><path d="M42.5604 12.0002L22.5604 22.0002L22.0004 21.6803L19.5104 20.2402L6.11035 12.5103L26.1105 2.51025L42.5604 12.0002Z" stroke="#229EFF" stroke-linejoin="round"/><path d="M22.5604 22.0002V31.4403L10.7504 24.6202L6.11035 21.9403V12.5103L19.5104 20.2402L22.0004 21.6803L22.5604 22.0002Z" stroke="#229EFF" stroke-linejoin="round"/><path d="M35.8601 27.0001C33.4101 28.4901 31.44 30.5102 29.98 33.0502C29.08 34.5802 28.3701 36.3101 27.8601 38.2201L22.5601 40.8701L2 29.0001L10.75 24.6201L22.5601 31.4402L25.04 30.2002L33.8101 25.8202L35.8601 27.0001Z" stroke="#229EFF" stroke-linejoin="round"/><path d="M27.2498 40.9103C26.8598 43.0603 26.6697 45.4102 26.6697 47.9702C26.6697 48.0602 26.6697 48.1602 26.6697 48.2502L26.0999 48.5403L22.5498 50.3103V40.8702L27.8499 38.2202C27.5999 39.0802 27.3997 39.9703 27.2397 40.9103H27.2498Z" stroke="#229EFF" stroke-linejoin="round"/><path d="M27.5004 57.2802L22.5604 59.7501L6.11035 50.2501L14.8705 45.8701L22.5604 50.3102L26.1105 48.5402L26.6803 48.2501C26.6803 48.8401 26.6903 49.4402 26.7103 50.0402C26.8103 52.4402 27.0704 54.8502 27.5004 57.2802Z" stroke="#229EFF" stroke-linejoin="round"/><path d="M22.5601 40.8702V50.3103L14.8701 45.8702L2 38.4403V29.0002L22.5601 40.8702Z" stroke="#229EFF" stroke-linejoin="round"/><path d="M29.6006 65.6603L22.5605 69.1803V59.7502L27.5005 57.2803C27.9805 60.0603 28.6806 62.8503 29.6006 65.6603Z" stroke="#229EFF" stroke-linejoin="round"/><path d="M112.45 75.9504C112.45 86.4804 109.25 93.5603 102.84 97.1703C102.64 97.2803 102.44 97.3903 102.25 97.4903L101.85 97.6904L82.0503 107.59C82.3203 107.46 82.5803 107.32 82.8403 107.17C86.1103 105.33 88.5404 102.59 90.1404 98.9404C91.6804 95.4504 92.4502 91.1104 92.4502 85.9504C92.4502 83.4004 92.2604 80.8303 91.8804 78.2503C91.3004 74.3003 90.2803 70.3203 88.8103 66.2903C87.4703 62.6103 85.7602 58.9003 83.6702 55.1503C83.4002 54.6603 83.1203 54.1704 82.8403 53.6804C80.5503 49.7304 78.0902 46.1504 75.4502 42.9404C70.7202 37.1704 65.4203 32.5903 59.5603 29.2103C55.8103 27.0403 52.2902 25.6303 49.0002 24.9703C44.7402 24.1003 40.8704 24.4903 37.4004 26.1603L57.0803 16.3204L57.3704 16.1703C63.5204 13.2103 70.9203 14.2203 79.5603 19.2103C88.6803 24.4703 96.4403 32.6304 102.84 43.6804C109.25 54.7304 112.45 65.4904 112.45 75.9504Z" stroke="#229EFF" stroke-linejoin="round"/></svg>