<svg width="24" height="24" viewBox="0 0 95 91" fill="none" xmlns="http://www.w3.org/2000/svg" stroke-width="1px" stroke-linecap="round" stroke-linejoin="round">
    <path d="M9 27.6308L10.0898 27.0908C9.71984 27.2408 9.36 27.4308 9 27.6308Z" stroke="currentColor" stroke-linejoin="round"/>
    <path d="M72.7903 52.7008V60.1308L70.4905 58.8108L63.0703 54.5208V47.0908L69.0005 50.5108L72.7903 52.7008Z" stroke="currentColor" stroke-linejoin="round"/>
    <path d="M51.73 16.3709V27.5309L48.48 25.6509L45.25 23.7809V12.6309L49.1499 14.8809L50.3699 15.5909L51.73 16.3709Z" stroke="currentColor" stroke-linejoin="round"/>
    <path d="M58.7305 36.4404L54.9705 38.3204L51.7305 42.8605L60.0503 38.7004L58.7305 36.4404Z" stroke="currentColor" stroke-linejoin="round"/>
    <path d="M92.79 42.7012V50.1312L72.79 60.1312V52.7012L85.8901 46.1512L92.79 42.7012Z" stroke="currentColor" stroke-linejoin="round"/>
    <path d="M92.7903 42.7008L85.8904 46.1508L72.7903 52.7008L69.0005 50.5108L63.0703 47.0908L67.1204 45.0708L83.0703 37.0908L92.7903 42.7008Z" stroke="currentColor" stroke-linejoin="round"/>
    <path d="M70.5999 61.491C70.5999 69.231 68.24 74.4509 63.51 77.1509L62.3899 77.7109L42.8799 87.491C43.0899 87.381 43.3 87.2709 43.51 87.1509C46.96 85.1809 49.1498 81.8709 50.0798 77.2209C50.4298 75.4909 50.5999 73.581 50.5999 71.491C50.5999 68.821 50.2899 66.0609 49.6699 63.1909C49.0499 60.3209 48.1099 57.4109 46.8699 54.4609L66.8699 44.4609C66.9599 44.6609 67.0399 44.8709 67.1199 45.0709L63.0698 47.0909V54.5209L70.49 58.8109C70.57 59.7109 70.5999 60.611 70.5999 61.491Z" stroke="currentColor" stroke-linejoin="round"/>
    <path d="M71.4102 37.791L66.8701 44.461L46.8701 54.461L51.4102 47.791L71.4102 37.791Z" stroke="currentColor" stroke-linejoin="round"/>
    <path d="M87.9299 26.5107L81.0498 30.4308C81.0498 30.4308 75.29 33.3108 69.95 35.9908C65.81 38.0608 61.9199 40.0008 61.1699 40.3708L67.9299 36.5107L69.6699 35.6407L80.8298 30.0607L87.9299 26.5107Z" stroke="currentColor" stroke-linejoin="round"/>
    <path d="M71.4102 37.7912L51.4102 47.7912L44.04 38.7012L46.2603 37.5812H46.28C46.28 37.5812 46.3201 37.5812 46.3501 37.6012C46.3701 37.6012 46.4002 37.6112 46.4302 37.6212C47.3202 37.8512 48.1401 38.4312 48.9001 39.3712L51.7302 42.8612L60.05 38.7012L61.05 40.4312C61.05 40.4312 61.1102 40.4012 61.1702 40.3712C61.9202 40.0012 65.8102 38.0612 69.9502 35.9912L71.4102 37.7912Z" stroke="currentColor" stroke-linejoin="round"/>
    <path d="M71.8398 24.4613L65.72 27.5213L64.48 28.1413L63.3999 28.6813L58.5698 31.4413L56.51 32.6113L58.73 36.4413L54.97 38.3213L52.1399 34.8213C52.1399 34.8213 52.0698 34.7413 52.0398 34.7013C51.6098 34.1713 51.18 33.6813 50.74 33.2313C50.6 33.0913 50.4698 32.9513 50.3298 32.8213C49.7798 32.2813 49.2199 31.8013 48.6499 31.3913C48.5499 31.3113 48.4499 31.2413 48.3599 31.1813C48.0299 30.9413 47.6899 30.7313 47.3599 30.5413C47.1599 30.4213 46.95 30.3113 46.75 30.2113C46.58 30.1313 46.41 30.0413 46.24 29.9713C45.73 29.7413 45.2099 29.5513 44.6899 29.4113C43.0299 28.9513 41.6598 29.0213 40.5498 29.6213L48.48 25.6513L51.73 27.5313L66.5598 20.1113C68.3998 21.0013 70.1698 22.4513 71.8398 24.4613Z" stroke="currentColor" stroke-linejoin="round"/>
    <path d="M87.9304 26.5106L80.8303 30.0606L69.6704 35.6406L67.9304 36.5106L67.1404 35.1506L65.8303 32.8906L63.5503 28.9406L63.4004 28.6807L64.4805 28.1406L65.7205 27.5206L71.8403 24.4606L83.4004 18.6807L87.9304 26.5106Z" stroke="currentColor" stroke-linejoin="round"/>
    <path d="M71.73 6.37091L65.25 9.6109L53.4099 15.5309L51.73 16.3709L50.3699 15.5909L49.1499 14.8809L45.25 12.6309L65.25 2.63086L71.73 6.37091Z" stroke="currentColor" stroke-linejoin="round"/>
    <path d="M43.0898 17.9113L31.8098 23.5513L27.1899 30.0912L26.1399 29.4813C24.8899 28.7513 23.67 28.1412 22.49 27.6412C17.79 25.6712 13.6498 25.4812 10.0898 27.0912L29 17.6312C32.95 15.3712 37.6498 15.4713 43.0898 17.9113Z" stroke="currentColor" stroke-linejoin="round"/>
    <path d="M44.4399 38.1907L44.0398 38.7007L51.4099 47.7908L46.8699 54.4608C48.1099 57.4108 49.0499 60.3207 49.6699 63.1907C50.2899 66.0607 50.5999 68.8208 50.5999 71.4908C50.5999 73.5808 50.4298 75.4908 50.0798 77.2208C49.1498 81.8708 46.96 85.1808 43.51 87.1508C43.3 87.2708 43.0899 87.3808 42.8799 87.4908C38.2799 89.7808 32.7498 89.0708 26.2998 85.3408C19.5498 81.4508 13.8098 75.3908 9.07983 67.1808C4.35983 58.9708 2 50.9908 2 43.2408C2 35.4908 4.33 30.2907 9 27.6307L10.0898 27.0908C13.6498 25.4808 17.79 25.6707 22.49 27.6407C23.67 28.1407 24.8899 28.7508 26.1399 29.4808L27.1899 30.0908L31.8098 23.5508L38.45 31.7507L38.8499 31.2408C39.3199 30.5108 39.8898 29.9708 40.5498 29.6208C41.6598 29.0208 43.0299 28.9508 44.6899 29.4108C45.2099 29.5508 45.73 29.7408 46.24 29.9708C46.41 30.0408 46.58 30.1308 46.75 30.2108C46.95 30.3108 47.1599 30.4208 47.3599 30.5408C47.6899 30.7308 48.0299 30.9408 48.3599 31.1808C48.4499 31.2408 48.5499 31.3107 48.6499 31.3907C49.2199 31.8007 49.7798 32.2807 50.3298 32.8207C50.4698 32.9507 50.6 33.0908 50.74 33.2308C51.18 33.6808 51.6098 34.1707 52.0398 34.7007C52.0698 34.7407 52.1099 34.7807 52.1399 34.8207L54.97 38.3207L51.73 42.8608L48.8999 39.3708C48.1399 38.4308 47.3199 37.8508 46.4299 37.6208C46.3999 37.6108 46.3699 37.6008 46.3499 37.6008C46.3199 37.5908 46.2998 37.5907 46.2798 37.5807H46.26C45.45 37.4107 44.8399 37.6107 44.4399 38.1907Z" stroke="currentColor" stroke-linejoin="round"/>
    <path d="M48.4797 25.6511L40.5496 29.6211C39.8896 29.9711 39.3196 30.5111 38.8496 31.2411L38.4497 31.751L31.8096 23.5511L43.0896 17.9111L45.2498 16.8311V23.7811L48.4797 25.6511Z" stroke="currentColor" stroke-linejoin="round"/>
    <path d="M71.7305 6.37109V17.5311L66.5603 20.1111L51.7305 27.5311V16.3711L53.4104 15.5311L65.2505 9.61108L71.7305 6.37109Z" stroke="currentColor" stroke-linejoin="round"/>
    <path d="M46.2603 37.5809L44.04 38.7009L44.4402 38.1909C44.8402 37.6109 45.4503 37.4109 46.2603 37.5809Z" stroke="currentColor" stroke-linejoin="round"/>
    <path d="M67.9297 36.5106L61.1697 40.3707C61.1097 40.4007 61.0696 40.4207 61.0496 40.4307L60.0496 38.7006L58.7297 36.4406L56.5098 32.6107L58.5696 31.4406L63.3997 28.6807L63.5496 28.9406L65.8296 32.8906L67.1396 35.1506L67.9297 36.5106Z" stroke="currentColor" stroke-linejoin="round"/>
</svg>