<svg width="24" height="24" viewBox="0 0 101 113" fill="none" xmlns="http://www.w3.org/2000/svg" stroke-width="1px" stroke-linecap="round" stroke-linejoin="round">
    <path d="M13.5195 14.6501L15.1094 13.86C14.5694 14.09 14.0395 14.3601 13.5195 14.6501Z" stroke="currentColor" stroke-linejoin="round"/>
    <path d="M86.0488 98.78C86.5988 98.55 87.1289 98.28 87.6389 97.99L86.0488 98.78Z" stroke="currentColor" stroke-linejoin="round"/>
    <path d="M75.8088 64.54C75.6888 64.14 75.5589 63.74 75.4189 63.34C73.4689 57.27 70.8689 51.46 67.6389 45.89C67.4289 45.53 67.229 45.18 67.009 44.83C64.729 41 62.1889 37.38 59.3789 33.96C59.0789 33.57 58.759 33.19 58.429 32.81C57.489 31.68 56.509 30.58 55.499 29.5C50.839 24.51 45.8689 20.49 40.5789 17.43C35.4689 14.49 30.6589 12.78 26.1489 12.33C25.9889 12.31 25.8289 12.29 25.6689 12.28C21.7089 11.95 18.1889 12.47 15.1089 13.86L13.519 14.65C10.079 16.61 7.35888 19.68 5.34888 23.86C3.33888 28.04 2.33887 33.17 2.33887 39.24C2.33887 45.31 3.33888 51.59 5.34888 58.09C7.35888 64.59 10.079 70.81 13.519 76.74C16.969 82.68 21.0089 88.14 25.6689 93.14C30.3189 98.13 35.2889 102.15 40.5789 105.2C45.8689 108.26 50.839 109.98 55.499 110.36C60.149 110.74 64.1989 109.95 67.6389 107.99C70.6389 106.28 73.109 103.71 75.019 100.31C75.289 99.81 75.5588 99.3 75.8088 98.77C77.8188 94.59 78.8289 89.47 78.8289 83.4C78.8289 77.33 77.8188 71.04 75.8088 64.54ZM28.6289 57C28.5489 58.15 28.409 59.24 28.199 60.26C27.849 61.99 27.3888 63.57 26.8088 65L19.739 57.62C20.119 56.53 20.439 55.36 20.689 54.11C20.949 52.87 21.0789 51.52 21.0789 50.06C21.0789 48.6 20.949 47.09 20.689 45.56C20.439 44.02 20.119 42.48 19.739 40.94L23.6189 41.38L26.8088 41.74C27.3888 43.82 27.849 45.94 28.199 48.08C28.479 49.77 28.649 51.46 28.699 53.14C28.719 53.58 28.729 54.03 28.729 54.47C28.729 55.35 28.6989 56.19 28.6289 57ZM42.009 65.59C41.889 67.4 41.6889 69.13 41.3889 70.78C41.0389 72.73 40.5289 74.54 39.8489 76.22C39.6089 76.83 39.3388 77.42 39.0488 77.99L31.979 70.61C32.609 69.42 33.119 68.11 33.489 66.68C33.649 66.09 33.7789 65.49 33.8889 64.86C34.2689 62.7 34.459 60.34 34.459 57.78C34.459 55.38 34.289 52.95 33.949 50.52C33.939 50.36 33.9089 50.21 33.8889 50.05C33.5089 47.45 32.869 44.8 31.979 42.09L39.0488 42.88C39.4388 44.09 39.7889 45.29 40.0989 46.48C40.2689 47.16 40.4389 47.83 40.5789 48.5C40.9189 49.95 41.1789 51.38 41.3889 52.79C41.8689 55.99 42.1089 59.13 42.1089 62.2C42.1089 63.36 42.079 64.48 42.009 65.59ZM54.999 78.19C54.859 79.32 54.689 80.41 54.489 81.47C53.949 84.31 53.199 86.93 52.229 89.35C51.989 89.94 51.739 90.52 51.479 91.09L44.4089 83.49C44.5889 83.11 44.7589 82.72 44.9189 82.32C45.8189 80.21 46.499 77.88 46.989 75.33C47.559 72.3 47.8489 69.02 47.8489 65.51C47.8489 64.58 47.8291 63.64 47.7891 62.7C47.6791 60.09 47.409 57.42 46.989 54.7C46.979 54.66 46.979 54.61 46.969 54.57C46.389 50.92 45.5389 47.25 44.4089 43.56L48.719 43.91L51.479 44.13C52.509 47.55 53.349 50.93 53.979 54.27C54.169 55.26 54.339 56.25 54.489 57.23C54.849 59.52 55.1091 61.79 55.2791 64.05C55.4291 66.02 55.499 67.98 55.499 69.93C55.499 72.85 55.329 75.59 54.999 78.19Z" stroke="currentColor" stroke-linejoin="round"/>
    <path d="M54.9993 78.2C54.8593 79.32 54.6893 80.41 54.4893 81.47C53.9493 84.31 53.1992 86.93 52.2292 89.35C51.9892 89.94 51.7392 90.52 51.4792 91.09L44.4092 83.49L45.4993 82.95L54.9993 78.2Z" stroke="currentColor" stroke-linejoin="round"/>
    <path d="M55.4993 69.93C55.4993 72.85 55.3293 75.59 54.9993 78.19L45.4993 82.95L44.4092 83.49C44.5892 83.11 44.7592 82.72 44.9192 82.32C45.8192 80.21 46.4993 77.88 46.9893 75.33C47.5593 72.3 47.8491 69.02 47.8491 65.51C47.8491 64.58 47.8293 63.64 47.7893 62.7C47.6793 60.09 47.4093 57.42 46.9893 54.7C46.9793 54.66 46.9792 54.61 46.9692 54.57C46.3892 50.92 45.5392 47.25 44.4092 43.56L48.7192 43.91L51.4792 44.13C52.5092 47.55 53.3492 50.93 53.9792 54.27C54.1692 55.26 54.3393 56.25 54.4893 57.23C54.8493 59.52 55.1093 61.79 55.2793 64.05C55.4293 66.02 55.4993 67.98 55.4993 69.93Z" stroke="currentColor" stroke-linejoin="round"/>
    <path d="M42.0085 65.6C41.8885 67.4 41.6884 69.13 41.3884 70.78C41.0384 72.73 40.5284 74.54 39.8484 76.22C39.6084 76.83 39.3383 77.42 39.0483 77.99L31.9785 70.61L34.9485 69.12L42.0085 65.6Z" stroke="currentColor" stroke-linejoin="round"/>
    <path d="M42.1084 62.2C42.1084 63.36 42.0785 64.48 42.0085 65.59L34.9485 69.12L31.9785 70.61C32.6085 69.42 33.1185 68.11 33.4885 66.68C33.6485 66.09 33.7784 65.49 33.8884 64.86C34.2684 62.7 34.4585 60.34 34.4585 57.78C34.4585 55.38 34.2885 52.95 33.9485 50.52C33.9385 50.36 33.9084 50.21 33.8884 50.05C33.5084 47.45 32.8685 44.8 31.9785 42.09L39.0483 42.88C39.4383 44.09 39.7884 45.29 40.0984 46.48C40.2684 47.16 40.4384 47.83 40.5784 48.5C40.9184 49.95 41.1784 51.38 41.3884 52.79C41.8684 55.99 42.1084 59.13 42.1084 62.2Z" stroke="currentColor" stroke-linejoin="round"/>
    <path d="M28.7292 54.47C28.7292 55.35 28.6992 56.19 28.6292 57C28.5492 58.15 28.4092 59.24 28.1992 60.26C27.8492 61.99 27.3891 63.57 26.8091 65L19.7393 57.62L27.3391 53.82L28.6992 53.14C28.7192 53.58 28.7292 54.03 28.7292 54.47Z" stroke="currentColor" stroke-linejoin="round"/>
    <path d="M28.6992 53.14L27.3391 53.82L19.7393 57.62C20.1193 56.53 20.4392 55.36 20.6892 54.11C20.9492 52.87 21.0791 51.52 21.0791 50.06C21.0791 48.6 20.9492 47.09 20.6892 45.56C20.4392 44.02 20.1193 42.48 19.7393 40.94L23.6191 41.38L26.8091 41.74C27.3891 43.82 27.8492 45.94 28.1992 48.08C28.4792 49.77 28.6492 51.46 28.6992 53.14Z" stroke="currentColor" stroke-linejoin="round"/>
    <path d="M98.8293 73.4C98.8293 79.47 97.8193 84.59 95.8093 88.77C93.8093 92.95 91.0794 96.03 87.6394 97.99L86.0493 98.78L67.6394 107.99C70.6394 106.28 73.1095 103.71 75.0195 100.31C75.2895 99.81 75.5593 99.3 75.8093 98.77C77.8193 94.59 78.8293 89.47 78.8293 83.4C78.8293 77.33 77.8193 71.04 75.8093 64.54C75.6893 64.14 75.5594 63.74 75.4194 63.34C73.4694 57.27 70.8694 51.46 67.6394 45.89C67.4294 45.53 67.2295 45.18 67.0095 44.83C64.7295 41 62.1894 37.38 59.3794 33.96C59.0794 33.57 58.7594 33.19 58.4294 32.81C57.4894 31.68 56.5095 30.58 55.4995 29.5C50.8395 24.51 45.8693 20.49 40.5793 17.43C35.4693 14.49 30.6594 12.78 26.1494 12.33C25.9894 12.31 25.8294 12.29 25.6694 12.28C21.7094 11.95 18.1894 12.47 15.1094 13.86L33.5195 4.65003C36.9695 2.68003 41.0094 1.89002 45.6694 2.28002C50.3194 2.66002 55.2893 4.38003 60.5793 7.43003C65.8693 10.49 70.8395 14.51 75.4995 19.5C80.1495 24.49 84.1994 29.95 87.6394 35.89C91.0794 41.83 93.8093 48.04 95.8093 54.54C97.8193 61.04 98.8293 67.33 98.8293 73.4Z" stroke="currentColor" stroke-linejoin="round"/>
</svg>