<svg width="48" height="48" viewBox="0 0 92 110" fill="none" xmlns="http://www.w3.org/2000/svg" stroke-width="1px" stroke-linecap="round" stroke-linejoin="round"><path d="M43.91 75.59L44.59 75.25C44.35 75.33 44.13 75.44 43.91 75.59Z" stroke="#229EFF" stroke-linejoin="round"/><path d="M43.91 75.59L44.59 75.25C44.35 75.33 44.13 75.44 43.91 75.59Z" stroke="#229EFF" stroke-linejoin="round"/><path d="M89.73 86.1301C89.73 87.1001 89.56 87.9701 89.22 88.7501C88.88 89.5201 88.37 90.1101 87.7 90.4901L75.85 97.2501L55.85 107.25L67.7 100.49C68.37 100.11 68.88 99.5201 69.22 98.7501C69.56 97.9701 69.73 97.1001 69.73 96.1301C69.73 94.0601 69.09 91.8301 67.82 89.4401C66.55 87.0601 64.88 85.2601 62.79 84.0601C61.15 83.1101 59.87 82.8201 58.94 83.1901L65.72 79.8L68.75 78.2802C69.08 78.7102 69.41 79.1601 69.73 79.6101L81.83 73.5601C82.13 73.7001 82.45 73.8701 82.79 74.0601C84.88 75.2601 86.55 77.0601 87.82 79.4401C89.09 81.8301 89.73 84.0601 89.73 86.1301Z" stroke="#229EFF" stroke-linejoin="round"/><path d="M69.73 96.1301C69.73 97.1001 69.56 97.9701 69.22 98.7501C68.88 99.5201 68.37 100.11 67.7 100.49L55.85 107.25L44.6 87.8601L43.99 86.8101C43.26 85.5401 42.74 84.33 42.43 83.18C42.12 82.03 41.96 80.9701 41.96 80.0001C41.96 78.4601 42.32 77.2401 43.05 76.3701C43.29 76.0701 43.58 75.8101 43.91 75.5901L44.59 75.2501C45.78 74.8001 47.21 75.0702 48.9 76.0402C50.48 76.9502 51.72 78.0901 52.63 79.4501C53.05 80.0901 53.51 80.8201 54.01 81.6401C54.58 82.5501 55.19 83.5801 55.85 84.7101C56.97 84.0701 58 83.5601 58.94 83.1901C59.87 82.8201 61.15 83.1101 62.79 84.0601C64.88 85.2601 66.55 87.0601 67.82 89.4401C69.09 91.8301 69.73 94.0601 69.73 96.1301Z" stroke="#229EFF" stroke-linejoin="round"/><path d="M53.68 57.42L39.25 64.6401L22 54.6801L8.77002 47.0402L22 40.4301L23.2 39.8301L53.68 57.42Z" stroke="#229EFF" stroke-linejoin="round"/><path d="M23.2 39.83L22 40.4299L8.77002 47.04V31.5L22 39.14L23.2 39.83Z" stroke="#229EFF" stroke-linejoin="round"/><path d="M89.73 41.1499V69.6099L69.73 79.6099V51.1499L75.31 48.3599L89.73 41.1499Z" stroke="#229EFF" stroke-linejoin="round"/><path d="M89.73 41.1499L75.31 48.3599L69.73 51.1499L28.77 27.4999L22 23.5999L2 12.0498L22 2.0498L89.73 41.1499Z" stroke="#229EFF" stroke-linejoin="round"/><path d="M54.05 60.33C52.78 62.93 52.14 66.14 52.14 69.96C52.14 70.46 52.15 70.96 52.18 71.46L44.59 75.25C44.35 75.33 44.13 75.44 43.91 75.59C43.58 75.81 43.29 76.07 43.05 76.37C42.32 77.24 41.96 78.46 41.96 80C41.96 80.97 42.12 82.0299 42.43 83.1799C42.74 84.3299 43.26 85.5399 43.99 86.8099L44.6 87.86L34.43 92.9399C33.69 90.7699 33.13 88.58 32.73 86.38C32.34 84.17 32.14 82.04 32.14 79.96C32.14 76.46 32.68 73.47 33.75 71C33.84 70.77 33.94 70.55 34.05 70.33C35.32 67.73 37.05 65.83 39.25 64.64L53.68 57.4199L55.23 58.3199C54.8 58.9299 54.4 59.6 54.05 60.33Z" stroke="#229EFF" stroke-linejoin="round"/><path d="M69.73 51.1499V79.6099C69.41 79.1599 69.08 78.7099 68.75 78.2799C68.03 77.3299 67.28 76.4099 66.51 75.5199C65.38 74.2199 64.2 72.9898 62.96 71.8198V62.7799L55.23 58.3198L53.68 57.4198L23.2 39.8298L22 39.1399L8.77 31.4999V47.0399L22 54.6798L39.25 64.6399C37.05 65.8299 35.32 67.7298 34.05 70.3298C33.94 70.5498 33.84 70.7699 33.75 70.9999C32.68 73.4699 32.14 76.4598 32.14 79.9598C32.14 82.0398 32.34 84.1699 32.73 86.3799C33.13 88.5799 33.69 90.7698 34.43 92.9398L2 74.2198V12.0498L22 23.5999L28.77 27.4999L69.73 51.1499Z" stroke="#229EFF" stroke-linejoin="round"/><path d="M68.75 78.2799L65.72 79.7998L58.94 83.1898C58 83.5598 56.97 84.0698 55.85 84.7098C55.19 83.5798 54.58 82.5499 54.01 81.6399C53.51 80.8199 53.05 80.0898 52.63 79.4498C51.72 78.0898 50.48 76.9499 48.9 76.0399C47.21 75.0699 45.78 74.7999 44.59 75.2499L52.18 71.4598L62.96 66.0698V71.8198C64.2 72.9898 65.38 74.2199 66.51 75.5199C67.28 76.4099 68.03 77.3299 68.75 78.2799Z" stroke="#229EFF" stroke-linejoin="round"/></svg>