<svg width="48" height="48" viewBox="0 0 77 109" fill="none" xmlns="http://www.w3.org/2000/svg" stroke-width="1px"
     stroke-linecap="round" stroke-linejoin="round">
    <path d="M40.2898 17.374C40.2898 17.984 40.2399 18.554 40.1499 19.074C39.8599 20.704 39.1199 21.864 37.9199 22.544C37.4499 22.814 36.9399 22.984 36.4099 23.054C35.1799 23.234 33.78 22.874 32.23 21.974C30.6 21.034 29.1499 19.704 27.8699 17.994C27.3999 17.374 26.9598 16.694 26.5398 15.974C24.9598 13.254 24.1699 10.614 24.1699 8.074C24.1699 5.534 24.9598 3.814 26.5398 2.914C27.1898 2.544 27.7898 2.354 28.5498 2.354H28.8599C29.8599 2.354 31.02 2.734 32.23 3.484C34.45 4.764 36.3399 6.764 37.9199 9.484C39.4999 12.204 40.2898 14.834 40.2898 17.374Z" stroke="currentColor" stroke-linejoin="round"/>
    <path d="M54.3794 60.1841V69.4241C49.6894 66.7141 45.4893 63.1741 41.7993 58.8141C41.4493 58.3941 41.0995 57.9741 40.7595 57.5541C38.1495 54.3441 35.8293 50.9741 33.7993 47.4441C33.2893 46.5741 32.7993 45.6841 32.3293 44.7941L29.8093 57.5541L31.3594 60.1441L38.2695 71.6841V106.344L30.2195 101.694V71.6541L29.3794 70.4341L21.7595 59.3741L14.5095 92.6241L6.04932 87.7441L14.4895 43.8441L17.3293 29.0841L10.0793 28.1341V43.8441L2.01953 39.1941V17.4741L22.0195 19.2441L22.3594 19.2741C23.2994 19.3641 24.2893 19.6641 25.3293 20.1841C26.3693 20.7041 27.3593 21.4341 28.2993 22.3641C29.2393 23.2941 30.1295 24.3441 30.9695 25.5241C31.6295 26.4341 32.1894 27.4241 32.6594 28.4741C32.7994 28.7741 32.9193 29.0741 33.0393 29.3741L35.9294 36.3641L37.0593 39.0941C38.8093 43.3341 41.1794 47.3541 44.1594 51.1641C45.9294 53.4141 47.8494 55.3841 49.9094 57.0641C51.3294 58.2441 52.8194 59.2841 54.3794 60.1841Z" stroke="currentColor" stroke-linejoin="round"/>
    <path d="M40.7598 57.5539H29.8096L32.3296 44.7939C32.7996 45.6839 33.2896 46.5739 33.7996 47.4439C35.8296 50.9739 38.1498 54.3439 40.7598 57.5539Z" stroke="currentColor" stroke-linejoin="round"/>
    <path d="M74.3799 60.1841H54.3799V69.4241H74.3799V60.1841Z" stroke="currentColor" stroke-linejoin="round"/>
    <path d="M58.2698 71.6837H38.2698L31.3596 60.1437L29.8096 57.5537H40.7598C41.0998 57.9737 41.4496 58.3937 41.7996 58.8137C45.4896 63.1737 49.6896 66.7137 54.3796 69.4237H56.9197L58.2698 71.6837Z" stroke="currentColor" stroke-linejoin="round"/>
    <path d="M58.2695 71.6841H38.2695V106.344H58.2695V71.6841Z" stroke="currentColor" stroke-linejoin="round"/>
    <path d="M17.3291 29.0838L14.4893 43.8438H10.0791V28.1338L17.3291 29.0838Z" stroke="currentColor" stroke-linejoin="round"/>
    <path d="M30.2197 71.654V92.624H14.5098L21.7598 59.374L29.3796 70.434L30.2197 71.654Z" stroke="currentColor" stroke-linejoin="round"/>
    <path d="M74.3794 60.1841H54.3794C52.8194 59.2841 51.3294 58.2441 49.9094 57.0641C47.8494 55.3841 45.9294 53.4141 44.1594 51.1641C41.1794 47.3541 38.8093 43.3341 37.0593 39.0941L35.9294 36.3641L33.0393 29.3741C32.9193 29.0741 32.7994 28.7741 32.6594 28.4741C32.1894 27.4241 31.6295 26.4341 30.9695 25.5241C30.1295 24.3441 29.2393 23.2941 28.2993 22.3641C27.3593 21.4341 26.3693 20.7041 25.3293 20.1841C24.2893 19.6641 23.2994 19.3641 22.3594 19.2741L22.0195 19.2441L2.01953 17.4741H22.0195L27.8694 17.9941C29.1494 19.7041 30.5995 21.0341 32.2295 21.9741C33.7795 22.8741 35.1794 23.2341 36.4094 23.0541L48.9995 23.0841C49.6795 23.8241 50.3395 24.6341 50.9695 25.5241C51.8095 26.6941 52.4993 27.9841 53.0393 29.3741L57.0593 39.0941C58.8093 43.3341 61.1794 47.3541 64.1594 51.1641C67.1494 54.9641 70.5594 57.9741 74.3794 60.1841Z" stroke="currentColor" stroke-linejoin="round"/>
    <path d="M60.2893 17.374C60.2893 19.924 59.4994 21.644 57.9194 22.544C57.3094 22.894 56.6495 23.084 55.9395 23.094H48.9995L36.4094 23.054C36.9394 22.984 37.4494 22.814 37.9194 22.544C39.1194 21.864 39.8594 20.704 40.1494 19.074C40.2394 18.554 40.2893 17.984 40.2893 17.374C40.2893 14.834 39.4994 12.204 37.9194 9.484C36.3394 6.764 34.4495 4.764 32.2295 3.484C31.0195 2.734 29.8594 2.354 28.8594 2.354L48.2395 2.384H48.2695C49.4495 2.274 50.7695 2.644 52.2295 3.484C54.4495 4.764 56.3394 6.764 57.9194 9.484C59.4994 12.204 60.2893 14.834 60.2893 17.374Z" stroke="currentColor" stroke-linejoin="round"/>
    <path d="M56.0994 23.0942H55.9395" stroke="currentColor" stroke-linejoin="round"/>
    <path d="M36.4097 23.0542H36.3496" stroke="currentColor" stroke-linejoin="round"/>
    <path d="M28.5491 2.354H28.1992" stroke="currentColor" stroke-linejoin="round"/>
</svg>