<svg width="24" height="24" viewBox="0 0 104 116" fill="none" xmlns="http://www.w3.org/2000/svg" stroke-width="1px" stroke-linecap="round" stroke-linejoin="round">
    <path d="M77.94 66.3005C76 59.9705 73.4 53.8905 70.12 48.0705C69.93 47.7205 69.72 47.3605 69.52 47.0105C69.38 46.7605 69.23 46.5205 69.08 46.2805C66.77 42.3605 64.19 38.6505 61.34 35.1305C60.47 34.0405 59.56 32.9605 58.63 31.9105C58.08 31.2805 57.52 30.6605 56.95 30.0505C56.91 30.0105 56.87 29.9705 56.83 29.9305C56.17 29.2205 55.49 28.5205 54.81 27.8505C50.61 23.7105 46.19 20.3005 41.53 17.6105C39.45 16.4005 37.41 15.4005 35.42 14.6005C32.22 13.3005 29.14 12.5205 26.18 12.2605C26.16 12.2505 26.13 12.2505 26.11 12.2505C22.08 11.9305 18.51 12.4505 15.37 13.8305L15.31 13.8505L13.58 14.7205C10.03 16.7505 7.18 19.9105 5.12 24.2605C3.03 28.5405 2 33.8405 2 40.1505C2 46.4605 3.03 52.9005 5.12 59.6405C7.18 66.3205 10.03 72.7705 13.58 78.9105C17.14 85.0405 21.29 90.6605 26.11 95.8505C30.94 100.99 36.08 105.18 41.53 108.33C46.99 111.48 52.13 113.22 56.95 113.65C61.25 113.99 65.05 113.39 68.35 111.81L68.95 111.51C69.14 111.41 69.33 111.31 69.52 111.2C72.51 109.49 74.97 106.96 76.9 103.64C77.27 103.02 77.61 102.36 77.94 101.68C78.91 99.6905 79.65 97.4805 80.16 95.0705C80.76 92.2605 81.06 89.1605 81.06 85.7905C81.06 79.4905 80.04 73.0005 77.94 66.3005ZM72.15 95.0605C72.1 95.1605 72.06 95.2605 72.01 95.3605C70.84 97.8005 69.4 99.7905 67.66 101.34C66.82 102.1 65.91 102.74 64.93 103.29C61.97 105.03 58.45 105.67 54.42 105.39C50.39 105.01 46.08 103.56 41.53 100.94C36.99 98.3105 32.68 94.7805 28.64 90.5005C24.61 86.1405 21.13 81.4505 18.17 76.2905C15.17 71.1605 12.79 65.7905 11.05 60.1605C9.31 54.5305 8.44 49.0905 8.44 43.8705C8.44 38.6505 9.31 34.1605 11.05 30.5905C12.79 26.9605 15.17 24.3005 18.17 22.6305C19.62 21.7805 21.19 21.1905 22.9 20.8505C24.67 20.4805 26.58 20.3905 28.64 20.5605C29.39 20.6205 30.15 20.7305 30.92 20.8705C34.29 21.4805 37.83 22.8705 41.53 25.0005C44.23 26.5605 46.84 28.4205 49.36 30.5805C49.8 30.9505 50.24 31.3405 50.67 31.7405C50.89 31.9305 51.11 32.1305 51.33 32.3305C52.06 33.0205 52.78 33.7305 53.49 34.4705C53.81 34.7905 54.11 35.1105 54.42 35.4405C55.08 36.1405 55.72 36.8605 56.35 37.5905C56.36 37.5905 56.36 37.6005 56.37 37.6105C59.59 41.3205 62.46 45.3205 64.93 49.6305C65.09 49.9005 65.24 50.1705 65.39 50.4405C66.23 51.9105 67.02 53.4005 67.74 54.9105C69.44 58.4305 70.86 62.0505 72.01 65.7805C72.7 68.0005 73.25 70.2005 73.67 72.3705C74.3 75.6705 74.62 78.9005 74.62 82.0705C74.62 87.1505 73.8 91.4905 72.15 95.0605Z" stroke="currentColor" stroke-linejoin="round"/>
    <path d="M40.0901 63.6604L37.4301 64.9804L34.3801 66.5104L32.0801 66.2104L29.1201 65.8304L31.3101 64.7404L36.0301 62.3804L37.9001 61.4404C38.4001 61.9704 38.9201 62.5104 39.4801 63.0504L40.0901 63.6604Z" stroke="currentColor" stroke-linejoin="round"/>
    <path d="M53.9401 79.4403C53.9401 81.7103 53.5601 83.4203 52.8001 84.5403C52.5101 84.9703 52.1701 85.3103 51.7701 85.5703L51.1001 85.9103C49.7101 86.4103 48.1501 86.5003 46.4001 86.1503C45.7001 86.0203 44.9701 85.8103 44.2201 85.5303V90.1103L38.6901 86.9103V82.1503C36.2001 80.0303 34.1401 77.6203 32.6001 74.9103C31.0201 72.1903 29.8301 69.1903 29.1201 65.8303L32.0801 66.2103L34.3801 66.5103C35.0101 69.3703 36.0001 71.8003 37.3801 73.8203C38.6901 75.8903 40.2701 77.3903 42.0101 78.4003C43.7501 79.4003 45.2501 79.8103 46.5101 79.5903C46.8801 79.5303 47.1801 79.3903 47.4401 79.1703C48.0701 78.6603 48.3701 77.6703 48.3701 76.2203C48.3701 74.4503 47.7401 72.6303 46.4301 70.7903C45.2101 69.0703 43.0901 66.7003 40.0901 63.6603L39.4801 63.0503C38.9201 62.5103 38.4001 61.9703 37.9001 61.4403C35.5601 58.9703 33.8001 56.6603 32.6001 54.5503C32.5401 54.4503 32.4901 54.3403 32.4401 54.2403C32.4401 54.2303 32.4401 54.2203 32.4401 54.2103C31.4201 52.2803 30.7701 50.3103 30.5201 48.3103V48.2903C30.5201 48.2903 30.5201 48.2803 30.5101 48.2703C30.4301 47.6203 30.3901 46.9803 30.3901 46.3303C30.3901 43.7903 31.1501 42.0003 32.6501 40.8703C32.8501 40.7103 33.0501 40.5603 33.2701 40.4503L33.7401 40.2103C35.0901 39.6603 36.8101 39.7203 38.8501 40.4203V35.8403L40.5401 36.8103L44.3901 39.0303V43.6103C46.3301 44.9103 48.0601 46.7803 49.6501 49.2803C51.1101 51.6203 52.1301 53.9603 52.7401 56.3003C52.7801 56.4403 52.8201 56.5703 52.8501 56.7103L49.2401 56.2903L48.4001 56.2003L47.7501 56.1203C47.3501 54.4903 46.6401 52.9003 45.6901 51.4003C44.7401 49.9403 43.4001 48.7103 41.7001 47.7303C39.8401 46.6603 38.4201 46.2403 37.4301 46.6303C36.4801 46.9903 35.9701 47.9103 35.9701 49.5503C35.9701 51.0903 36.5601 52.7003 37.8301 54.3403C38.7301 55.5503 40.2201 57.1803 42.2801 59.2503C42.9201 59.9103 43.6301 60.6003 44.3901 61.3503L44.5001 61.4603C48.2701 65.1803 50.8001 68.4803 52.0601 71.3103C53.3201 74.1703 53.9501 76.9003 53.9501 79.4403H53.9401Z" stroke="currentColor" stroke-linejoin="round"/>
    <path d="M48.3699 76.2202C48.3699 77.6702 48.0699 78.6602 47.4399 79.1702C47.1799 79.3902 46.8799 79.5301 46.5099 79.5901C45.2499 79.8101 43.7499 79.4001 42.0099 78.4001C40.2699 77.3901 38.6899 75.8902 37.3799 73.8202C35.9999 71.8002 35.0099 69.3701 34.3799 66.5101L37.4299 64.9801L40.0899 63.6602C43.0899 66.7002 45.2099 69.0701 46.4299 70.7901C47.7399 72.6301 48.3699 74.4502 48.3699 76.2202Z" stroke="currentColor" stroke-linejoin="round"/>
    <path d="M72.1499 95.0602C72.0999 95.1602 72.0599 95.2602 72.0099 95.3602C70.8399 97.8002 69.3999 99.7902 67.6599 101.34C66.8199 102.1 65.9099 102.74 64.9299 103.29C61.9699 105.03 58.4499 105.67 54.4199 105.39C50.3899 105.01 46.0799 103.56 41.5299 100.94C36.9899 98.3102 32.6799 94.7802 28.6399 90.5002C24.6099 86.1402 21.1299 81.4502 18.1699 76.2902C15.1699 71.1602 12.7899 65.7902 11.0499 60.1602C9.30994 54.5302 8.43994 49.0902 8.43994 43.8702C8.43994 38.6502 9.30994 34.1602 11.0499 30.5902C12.7899 26.9602 15.1699 24.3002 18.1699 22.6302C19.6199 21.7802 21.1899 21.1902 22.8999 20.8502C24.6699 20.4802 26.5799 20.3902 28.6399 20.5602C29.3899 20.6202 30.1499 20.7302 30.9199 20.8702C29.2699 24.3902 28.4399 28.7502 28.4399 33.8702C28.4399 38.5102 29.1299 43.3002 30.4999 48.2702C30.4999 48.2702 30.5033 48.2769 30.5099 48.2902V48.3102C30.7599 50.3102 31.4099 52.2802 32.4299 54.2102C32.4299 54.2202 32.4299 54.2302 32.4299 54.2402C33.4699 57.0202 34.6599 59.7302 36.0199 62.3802L31.2999 64.7402L29.1099 65.8302C29.8199 69.1902 31.0099 72.1902 32.5899 74.9102C34.1299 77.6202 36.1899 80.0302 38.6799 82.1502V86.9102L44.2099 90.1102L48.2799 88.0802L53.7199 85.3502C56.2299 87.5102 58.8399 89.3802 61.5199 90.9402C65.2199 93.0702 68.7699 94.4302 72.1399 95.0602H72.1499Z" stroke="currentColor" stroke-linejoin="round"/>
    <path d="M56.3499 37.5902C56.3499 37.5902 56.3299 37.6202 56.3199 37.6402L50.8999 40.3502L44.3799 43.6102V39.0302L50.3899 36.0302L53.4899 34.4702C53.8099 34.7902 54.1099 35.1102 54.4199 35.4402C55.0799 36.1402 55.7199 36.8602 56.3499 37.5902Z" stroke="currentColor" stroke-linejoin="round"/>
    <path d="M53.4898 34.4701L50.3898 36.0201L44.3798 39.0301L40.5298 36.8101L38.8398 35.8401L49.3598 30.5801C49.7998 30.9501 50.2398 31.3401 50.6698 31.7401C50.8898 31.9301 51.1098 32.1301 51.3298 32.3301C52.0598 33.0201 52.7798 33.7301 53.4898 34.4701Z" stroke="currentColor" stroke-linejoin="round"/>
    <path d="M64.22 79.3403V80.1103L53.73 85.3503L48.29 88.0803L44.22 90.1103V85.5303C44.97 85.8103 45.7 86.0203 46.4 86.1503C48.15 86.5003 49.71 86.4103 51.1 85.9103L51.77 85.5703L53.17 84.8703L63.5 79.7003L64.22 79.3403Z" stroke="currentColor" stroke-linejoin="round"/>
    <path d="M71.71 75.5903C71.51 75.7203 71.32 75.8303 71.1 75.9103C71.07 75.9203 71.04 75.9303 71 75.9403L71.71 75.5903Z" stroke="currentColor" stroke-linejoin="round"/>
    <path d="M101.06 75.7904C101.06 82.0504 100.04 87.3604 97.9401 91.6804C95.8801 95.9804 93.0801 99.1704 89.5201 101.2C89.1001 101.44 88.6701 101.66 88.2301 101.87L68.9501 111.51C69.1401 111.41 69.3301 111.31 69.5201 111.2C72.5101 109.49 74.9701 106.96 76.9001 103.64C77.2701 103.02 77.6101 102.36 77.9401 101.68C78.9101 99.6904 79.6501 97.4804 80.1601 95.0704C80.7601 92.2604 81.0601 89.1604 81.0601 85.7904C81.0601 79.4904 80.0401 73.0004 77.9401 66.3004C76.0001 59.9704 73.4001 53.8904 70.1201 48.0704C69.9301 47.7204 69.7201 47.3604 69.5201 47.0104C69.3801 46.7604 69.2301 46.5204 69.0801 46.2804C66.7701 42.3604 64.1901 38.6504 61.3401 35.1304C60.4701 34.0404 59.5601 32.9604 58.6301 31.9104C58.0801 31.2804 57.5201 30.6604 56.9501 30.0504C56.9101 30.0104 56.8701 29.9704 56.8301 29.9304C56.1701 29.2204 55.4901 28.5204 54.8101 27.8504C50.6101 23.7104 46.1901 20.3004 41.5301 17.6104C39.4501 16.4004 37.4101 15.4004 35.4201 14.6004C32.2201 13.3004 29.1401 12.5204 26.1801 12.2604C26.1601 12.2504 26.1301 12.2504 26.1101 12.2504C22.0801 11.9304 18.5101 12.4504 15.3701 13.8304L33.5801 4.72037C37.1401 2.69037 41.2901 1.87037 46.1101 2.25037C50.9401 2.67037 56.0801 4.46037 61.5301 7.61037C66.9901 10.7604 72.1301 14.9104 76.9501 20.0504C81.7701 25.2404 85.9601 30.8804 89.5201 37.0104C93.0801 43.1504 95.8801 49.5804 97.9401 56.3004C100.04 63.0004 101.06 69.4904 101.06 75.7904Z" stroke="currentColor" stroke-linejoin="round"/>
    <path d="M73.67 72.3704C73.34 73.8604 72.73 74.9105 71.84 75.5205L71.71 75.5904L71 75.9405L64.22 79.3404L63.5 79.7005L53.17 84.8704L51.77 85.5705C52.17 85.3105 52.51 84.9705 52.8 84.5405C53.56 83.4205 53.94 81.7105 53.94 79.4405C53.94 76.9005 53.31 74.1704 52.05 71.3104C50.79 68.4804 48.26 65.1805 44.49 61.4605L44.38 61.3505C43.62 60.6005 42.91 59.9105 42.27 59.2505C40.21 57.1805 38.72 55.5504 37.82 54.3404C36.55 52.7004 35.96 51.0905 35.96 49.5505C35.96 47.9105 36.47 46.9905 37.42 46.6305C38.41 46.2405 39.83 46.6604 41.69 47.7304C43.39 48.7104 44.73 49.9404 45.68 51.4004C46.63 52.9004 47.34 54.4904 47.74 56.1204L48.39 56.2004L49.23 56.2904L52.84 56.7105L53.47 56.3904L59.71 53.2804L64.1 51.0805C64.19 51.1605 64.28 51.2605 64.38 51.3505C65.63 52.5805 66.75 53.7705 67.74 54.9105C69.44 58.4305 70.86 62.0504 72.01 65.7804C72.7 68.0004 73.25 70.2004 73.67 72.3704Z" stroke="currentColor" stroke-linejoin="round"/>
    <path d="M65.3899 50.4404L64.0999 51.0804L59.7099 53.2803L53.4699 56.3904L52.8399 56.7104C52.8099 56.5704 52.7699 56.4404 52.7299 56.3004C52.1199 53.9604 51.0999 51.6203 49.6399 49.2803C48.0499 46.7803 46.3199 44.9104 44.3799 43.6104L50.8999 40.3504L56.3199 37.6404L56.3699 37.6104C59.5899 41.3204 62.4599 45.3204 64.9299 49.6304C65.0899 49.9004 65.2399 50.1704 65.3899 50.4404Z" stroke="currentColor" stroke-linejoin="round"/>
    <path d="M38.84 37.6602V40.4202C36.8 39.7202 35.08 39.6602 33.73 40.2102L38.84 37.6602Z" stroke="currentColor" stroke-linejoin="round"/>
</svg>