<svg width="48" height="48" viewBox="0 0 92 119" fill="none" xmlns="http://www.w3.org/2000/svg" stroke-width="1px" stroke-linecap="round" stroke-linejoin="round"><path d="M32.4199 103.011L32.23 103.111C32.29 103.151 32.34 103.161 32.37 103.141C32.4 103.121 32.4499 103.131 32.5099 103.171C32.4799 103.121 32.4499 103.061 32.4199 103.011Z" stroke="#229EFF" stroke-linejoin="round"/><path d="M64.3302 84.8206C62.8902 82.3306 61.3202 80.0907 59.6202 78.1107C57.3802 75.4607 54.9202 73.2906 52.2402 71.5706C51.8402 71.3106 51.4402 71.0706 51.0302 70.8306C48.7902 69.5406 46.6902 68.7107 44.7402 68.3707C42.5102 67.9707 40.4602 68.1907 38.6002 69.0307L37.7402 69.4606C36.6702 70.0706 35.7502 70.8507 34.9902 71.8007C33.1502 74.0807 32.2402 77.3307 32.2402 81.5507C32.2402 87.5107 34.0702 93.6606 37.7402 99.9806C37.8002 100.081 37.8602 100.191 37.9302 100.291C41.5502 106.451 45.9202 111.011 51.0302 113.971C56.0002 116.831 60.2702 117.371 63.8302 115.601C64.0002 115.511 64.1702 115.421 64.3302 115.331C68.0002 113.241 69.8302 109.221 69.8302 103.251V103.231C69.8302 97.2706 68.0002 91.1306 64.3302 84.8206ZM62.3102 101.061L50.3402 94.1507L39.7601 88.0407V83.7306L43.7601 86.0407L46.6401 87.7006L50.9102 90.1707L62.3102 96.7507V101.061Z" stroke="#229EFF" stroke-linejoin="round"/><path d="M43.7598 86.0406L39.7598 88.0406V83.7306L43.7598 86.0406Z" stroke="#229EFF" stroke-linejoin="round"/><path d="M62.3098 96.7506V101.061L50.3298 94.1506L39.7598 88.0406L43.7598 86.0406L46.6398 87.7006L50.8998 90.1707L62.3098 96.7506Z" stroke="#229EFF" stroke-linejoin="round"/><path d="M89.8301 93.2506C89.8301 99.2206 88.0001 103.241 84.3301 105.331L83.4901 105.751L63.8301 115.601C64.0001 115.511 64.1701 115.421 64.3301 115.331C68.0001 113.241 69.8301 109.221 69.8301 103.251V103.231C69.8301 97.2706 68.0001 91.1306 64.3301 84.8206C62.8901 82.3306 61.3201 80.0906 59.6201 78.1106C57.3801 75.4606 54.9201 73.2906 52.2401 71.5706C51.8401 71.3106 51.44 71.0706 51.03 70.8306C48.79 69.5406 46.6901 68.7106 44.7401 68.3706C42.5101 67.9706 40.4601 68.1906 38.6001 69.0306L44.7401 65.9606L51.5901 62.5306C52.2701 62.9406 52.9701 63.4006 53.6801 63.9006C54.7001 64.6106 55.7401 65.4006 56.8101 66.2906C58.8501 67.9706 60.6801 69.7506 62.3101 71.6206L76.26 64.6406C79.27 67.3406 81.9601 70.7306 84.3301 74.8206C88.0001 81.1406 89.8301 87.2806 89.8301 93.2506Z" stroke="#229EFF" stroke-linejoin="round"/><path d="M52.23 6.84058L32.23 16.8406L22.1499 15.3606L2.1499 12.4207L22.1499 2.42065L52.23 6.84058Z" stroke="#229EFF" stroke-linejoin="round"/><path d="M82.3099 37.1406L62.3099 47.1406L59.6799 44.5006L47.2999 32.0106L32.23 16.8406L52.23 6.84058L82.3099 37.1406Z" stroke="#229EFF" stroke-linejoin="round"/><path d="M82.3101 37.1406V61.6206L76.26 64.6406L62.3101 71.6206V47.1406L82.3101 37.1406Z" stroke="#229EFF" stroke-linejoin="round"/><path d="M62.3102 47.1406V71.6206C60.6802 69.7506 58.8502 67.9706 56.8102 66.2906C55.7402 65.4006 54.7002 64.6106 53.6802 63.9006C52.9702 63.4006 52.2702 62.9406 51.5902 62.5306C51.4002 62.4206 51.2102 62.3106 51.0302 62.2006C49.1502 61.1206 47.3502 60.2707 45.6102 59.6707C43.3702 58.8807 41.2402 58.4906 39.2302 58.5006C39.4002 58.1406 39.5302 57.7306 39.6202 57.2806C39.6602 57.0806 39.6902 56.8706 39.7002 56.6506C39.7402 56.3406 39.7601 56.0206 39.7601 55.6906C39.7601 53.3206 39.0202 50.8606 37.5502 48.3206C36.0802 45.7806 34.3102 43.9206 32.2402 42.7206C30.1702 41.5306 28.4002 41.3506 26.9302 42.1906C25.4602 43.0306 24.7202 44.6406 24.7202 47.0106C24.7202 47.1006 24.7202 47.2006 24.7302 47.2906C24.7802 49.5706 25.5202 51.9406 26.9302 54.3806C26.9402 54.3906 26.9402 54.4007 26.9502 54.4207C28.4202 56.9407 30.1802 58.7906 32.2402 59.9806L32.6102 60.1906L32.7302 60.1406C32.6302 60.1906 32.5302 60.2407 32.4302 60.3007C31.5602 60.8007 30.7602 61.3706 30.0302 62.0406C26.4902 65.2206 24.7202 70.2806 24.7202 77.2006C24.7202 81.6606 25.4602 86.1107 26.9302 90.5607C28.3802 94.9407 30.2102 99.1006 32.4302 103.011L32.2402 103.111C23.5302 95.5706 16.3402 85.6806 10.6702 73.4606C5.00017 61.2406 2.16016 49.6606 2.16016 38.7306V12.4207L22.1602 15.3606L32.2402 16.8406L47.3002 32.0106L59.6902 44.5006L62.3102 47.1406Z" stroke="#229EFF" stroke-linejoin="round"/><path d="M45.6 59.6707C45.09 61.5407 44.8 63.6406 44.73 65.9606L37.73 69.4606C36.66 70.0706 35.74 70.8507 34.98 71.8007C33.14 74.0807 32.23 77.3307 32.23 81.5507C32.23 87.5107 34.06 93.6606 37.73 99.9806C37.79 100.081 37.8499 100.191 37.9199 100.291L32.4199 103.011C30.1999 99.1006 28.3699 94.9407 26.9199 90.5607C25.4499 86.1107 24.71 81.6606 24.71 77.2006C24.71 70.2806 26.4799 65.2206 30.0199 62.0406C30.7499 61.3706 31.5499 60.8007 32.4199 60.3007C32.5199 60.2407 32.62 60.1906 32.72 60.1406L39.6899 56.6506C39.6799 56.8706 39.65 57.0806 39.61 57.2806C39.52 57.7306 39.39 58.1406 39.22 58.5006C41.23 58.4906 43.36 58.8807 45.6 59.6707Z" stroke="#229EFF" stroke-linejoin="round"/><path d="M59.7499 78.0406L59.6099 78.1106" stroke="#229EFF" stroke-linejoin="round"/><path d="M39.7596 55.6905C39.7596 56.0205 39.7397 56.3406 39.6997 56.6406L32.7297 60.1406L32.6097 60.1905L32.2397 59.9806C30.1797 58.7906 28.4197 56.9406 26.9497 54.4206C26.9397 54.4006 26.9397 54.3906 26.9297 54.3806C25.5197 51.9406 24.7797 49.5706 24.7297 47.2906C24.7197 47.2006 24.7197 47.1006 24.7197 47.0106C24.7197 44.6406 25.4597 43.0305 26.9297 42.1905C28.3997 41.3505 30.1697 41.5306 32.2397 42.7206C34.3097 43.9206 36.0797 45.7805 37.5497 48.3205C39.0197 50.8605 39.7596 53.3205 39.7596 55.6905Z" stroke="#229EFF" stroke-linejoin="round"/></svg>