<svg width="48" height="48" viewBox="0 0 100 112" fill="none" xmlns="http://www.w3.org/2000/svg" stroke-width="1px"
     stroke-linecap="round" stroke-linejoin="round">
    <path d="M84.7202 97.47C85.3402 97.21 85.9402 96.91 86.5302 96.57L84.7202 97.47Z" stroke="currentColor" stroke-linejoin="round"/>
    <path d="M75.36 66.29C75.13 65.43 74.88 64.56 74.61 63.69C73.87 61.3 73.03 58.94 72.1 56.63C70.52 52.73 68.66 48.94 66.53 45.26C63.63 40.25 60.29 35.58 56.52 31.26C55.86 30.51 55.2 29.78 54.53 29.06C49.93 24.13 45.02 20.15 39.79 17.13C34.82 14.26 30.11 12.6 25.67 12.14C25.49 12.12 25.32 12.1 25.15 12.09C21.16 11.77 17.61 12.31 14.5 13.71L13.1 14.41C9.67 16.33 6.96 19.36 4.97 23.49C2.99 27.62 2 32.68 2 38.68C2 44.68 2.99 50.78 4.97 57.21C6.96 63.63 9.67 69.8 13.1 75.72C16.53 81.64 20.55 87.07 25.15 92C29.74 96.93 34.63 100.89 39.79 103.87C45.02 106.89 49.93 108.59 54.53 108.97C59.13 109.34 63.13 108.55 66.53 106.57C69.51 104.84 71.94 102.28 73.84 98.9C74.1 98.42 74.36 97.92 74.61 97.41C75.79 94.95 76.62 92.18 77.09 89.08C77.42 86.98 77.58 84.73 77.58 82.32C77.58 77.13 76.84 71.79 75.36 66.29ZM70.03 77.74C70.06 82.06 69.5 85.76 68.35 88.83C67.27 91.72 65.66 94.06 63.54 95.84C62.85 96.43 62.1 96.95 61.29 97.42C55.4 100.81 48.23 100.07 39.79 95.2C31.41 90.36 24.28 82.86 18.39 72.7C12.5 62.55 9.56 52.62 9.56 42.94V42.61L19.57 48.4L23.51 41.74L27.03 35.79L29.77 37.37L35.27 40.55L41.66 44.23L43.74 45.43L52.64 50.57L53.11 51.91L56.4 61.28L60.1 71.8L62.48 73.17L70.03 77.53V77.74Z" stroke="currentColor" stroke-linejoin="round"/>
    <path d="M55.8499 74.11C55.8499 75.63 55.3999 76.65 54.4799 77.17C53.5699 77.69 52.4499 77.57 51.1299 76.81C49.8099 76.04 48.6899 74.87 47.7699 73.3C46.8599 71.72 46.3999 70.18 46.3999 68.66C46.3999 67.14 46.8599 66.12 47.7699 65.6L48.0499 65.46C48.9199 65.11 49.9399 65.28 51.1299 65.97C52.4499 66.73 53.5699 67.9 54.4799 69.47C55.3999 71.05 55.8499 72.6 55.8499 74.11Z" stroke="currentColor" stroke-linejoin="round"/>
    <path d="M55.8498 74.11C55.8498 72.6 55.3998 71.05 54.4798 69.47C53.5698 67.9 52.4498 66.73 51.1298 65.97C49.9398 65.28 48.9198 65.11 48.0498 65.46L56.3998 61.28L60.0998 71.8L62.4798 73.17L54.4798 77.17C55.3998 76.65 55.8498 75.63 55.8498 74.11Z" stroke="currentColor" stroke-linejoin="round"/>
    <path d="M53.1098 51.91C52.9698 52.95 52.5298 53.67 51.8098 54.08L37.5498 61.21L32.0998 63.94C32.0998 63.94 32.0798 63.91 32.0798 63.9C32.8098 63.34 33.1798 62.38 33.1798 61.02C33.1798 59.5 32.7198 57.96 31.8098 56.38C30.8898 54.81 29.7798 53.64 28.4498 52.87C27.8198 52.51 27.2298 52.29 26.6898 52.22C26.6298 52.08 26.5798 51.93 26.5298 51.79L32.1898 48.97L41.6598 44.23L43.7398 45.43L52.6398 50.57L53.1098 51.91Z" stroke="currentColor" stroke-linejoin="round"/>
    <path d="M33.18 61.02C33.18 62.38 32.81 63.34 32.08 63.9C32 63.96 31.91 64.03 31.81 64.08C30.89 64.6 29.78 64.48 28.45 63.72C27.13 62.95 26.01 61.78 25.1 60.21C24.18 58.63 23.73 57.08 23.73 55.57C23.73 54.06 24.18 53.03 25.1 52.51L25.38 52.37C25.78 52.21 26.22 52.16 26.69 52.22C27.23 52.29 27.82 52.51 28.45 52.87C29.78 53.64 30.89 54.81 31.81 56.38C32.72 57.96 33.18 59.5 33.18 61.02Z" stroke="currentColor" stroke-linejoin="round"/>
    <path d="M68.3501 88.83C67.2701 91.72 65.6601 94.06 63.5401 95.84C62.8501 96.43 62.1001 96.95 61.2901 97.42C55.4001 100.81 48.2301 100.07 39.7901 95.2C31.4101 90.36 24.2801 82.86 18.3901 72.7C12.5001 62.55 9.56006 52.62 9.56006 42.94V42.61L19.5701 48.4L24.5801 45.9L30.5901 42.89C30.9901 44.91 31.5201 46.93 32.1901 48.97L26.5301 51.79L25.3801 52.37L25.1001 52.51C24.1801 53.03 23.7301 54.05 23.7301 55.57C23.7301 57.09 24.1801 58.63 25.1001 60.21C26.0101 61.78 27.1301 62.95 28.4501 63.72C29.7801 64.48 30.8901 64.6 31.8101 64.08L32.1001 63.94L37.5501 61.21C37.8201 61.71 38.1001 62.2 38.3901 62.7C44.2801 72.86 51.4101 80.36 59.7901 85.2C62.8101 86.94 65.6601 88.15 68.3501 88.83Z" stroke="currentColor" stroke-linejoin="round"/>
    <path d="M35.2698 40.55L30.5898 42.89L24.5798 45.9L19.5698 48.4L23.5098 41.74L27.0298 35.79L29.7698 37.37L35.2698 40.55Z" stroke="currentColor" stroke-linejoin="round"/>
    <path d="M97.58 72.32C97.58 78.25 96.59 83.28 94.61 87.41C92.62 91.54 89.93 94.6 86.53 96.57L84.72 97.47L66.53 106.57C69.51 104.84 71.94 102.28 73.84 98.9C74.1 98.42 74.36 97.92 74.61 97.41C75.79 94.95 76.62 92.18 77.09 89.08C77.42 86.98 77.58 84.73 77.58 82.32C77.58 77.13 76.84 71.79 75.36 66.29C75.13 65.43 74.88 64.56 74.61 63.69C73.87 61.3 73.03 58.94 72.1 56.63C70.52 52.73 68.66 48.94 66.53 45.26C63.63 40.25 60.29 35.58 56.52 31.26C55.86 30.51 55.2 29.78 54.53 29.06C49.93 24.13 45.02 20.15 39.79 17.13C34.82 14.26 30.11 12.6 25.67 12.14C25.49 12.12 25.32 12.1 25.15 12.09C21.16 11.77 17.61 12.31 14.5 13.71L33.1 4.41002C36.53 2.49002 40.55 1.72002 45.15 2.09002C49.74 2.47002 54.63 4.15002 59.79 7.13002C65.02 10.15 69.93 14.13 74.53 19.06C79.13 23.99 83.13 29.39 86.53 35.26C89.93 41.13 92.62 47.27 94.61 53.69C96.59 60.11 97.58 66.32 97.58 72.32Z" stroke="currentColor" stroke-linejoin="round"/>
</svg>