<svg width="48" height="48" viewBox="0 0 89 114" fill="none" xmlns="http://www.w3.org/2000/svg" stroke-width="1px" stroke-linecap="round" stroke-linejoin="round"><path d="M22.2104 58.0601V63.28L22.0504 63.19L17.3604 60.48L22.2104 58.0601Z" stroke="#229EFF" stroke-linejoin="round"/><path d="M66.6805 111.23L41.3705 96.62L36.7705 84.68V54.99C36.7705 53.56 37.0905 52.45 37.7405 51.65C37.9305 51.42 38.1305 51.22 38.3605 51.06C38.4505 50.99 38.5405 50.92 38.6405 50.87L38.9205 50.73C39.3405 50.54 39.8105 50.45 40.3205 50.45L41.1505 52.67L46.4705 66.9V77.29L47.6605 77.98L51.3205 80.09V68.21L50.1405 65.06L43.9805 48.62L43.8405 48.27L42.2105 43.91L39.9105 37.77L39.1905 35.84L38.1405 33.05C37.0605 30.26 36.6705 27.75 36.9705 25.5C37.2605 23.26 38.1905 21.7 39.7605 20.81L40.8105 20.21L44.6805 27.53L47.9705 33.73L48.0905 33.95L51.8405 41.04L53.1905 43.59L53.3705 43.93L56.7705 50.35L61.5405 59.36L63.4505 62.97L63.8305 68.61L65.1805 88.8199L66.6805 111.23Z" stroke="#229EFF" stroke-linejoin="round"/><path d="M43.84 48.2701L42.21 49.0801V43.9102L43.84 48.2701Z" stroke="#229EFF" stroke-linejoin="round"/><path d="M31.91 52.1902V81.8802L27.3 88.4902L2 73.8802L5.23 29.3602L27.87 12.7402L28.84 14.5002C29.14 15.0302 29.42 15.5702 29.67 16.1002C30.7 18.2202 31.35 20.3302 31.63 22.4202C31.98 25.0402 31.62 27.1202 30.54 28.6602L23.82 38.8402L17.36 48.6102V60.4802L22.05 63.1902L22.21 63.2802V52.8902L22.87 51.8902L28.36 43.5402C29.38 44.7502 30.23 46.1402 30.9 47.7002C31.58 49.2702 31.91 50.7602 31.91 52.1902Z" stroke="#229EFF" stroke-linejoin="round"/><path d="M50.1403 65.0601L46.4703 66.9001L41.1503 52.6701L40.3203 50.4501L42.2103 49.5101L43.9803 48.6201L50.1403 65.0601Z" stroke="#229EFF" stroke-linejoin="round"/><path d="M51.3197 68.21V74.8701L49.0297 76.01L46.4697 77.29V66.9L50.1397 65.0601L51.3197 68.21Z" stroke="#229EFF" stroke-linejoin="round"/><path d="M51.3197 74.8701V80.0901L47.6597 77.9801L46.4697 77.2901L49.0297 76.0101L51.3197 74.8701Z" stroke="#229EFF" stroke-linejoin="round"/><path d="M83.4496 52.97L71.3196 59.04L66.4696 61.46L63.4496 62.97L61.5396 59.36L56.7696 50.35L53.3696 43.93L53.1896 43.59L51.8396 41.04L48.0896 33.95L47.9696 33.73L44.6796 27.53L40.8096 20.21L51.7496 14.74L60.8096 10.21L83.4496 52.97Z" stroke="#229EFF" stroke-linejoin="round"/><path d="M86.6802 101.23L66.6802 111.23L65.1802 88.8197L63.8302 68.6097L63.4502 62.9697L66.4702 61.4597L71.3202 59.0397L83.4502 52.9697L86.6802 101.23Z" stroke="#229EFF" stroke-linejoin="round"/><path d="M51.7504 14.7397L40.8104 20.2097L39.7604 20.8098C38.1904 21.6998 37.2604 23.2598 36.9704 25.4998C36.6704 27.7498 37.0604 30.2597 38.1404 33.0497L39.1904 35.8397L37.3603 38.6097L23.3204 45.6297L17.3604 48.6097L23.8204 38.8397L30.5404 28.6597C31.6204 27.1197 31.9804 25.0397 31.6304 22.4197C31.3504 20.3297 30.7004 18.2197 29.6704 16.0997C29.4204 15.5697 29.1404 15.0298 28.8404 14.4998L27.8704 12.7397L47.8704 2.73975L48.8403 4.49976C50.3503 7.16976 51.2803 9.80974 51.6303 12.4197C51.7403 13.2497 51.7804 14.0197 51.7504 14.7397Z" stroke="#229EFF" stroke-linejoin="round"/><path d="M37.3603 38.6099V39.0399L28.3604 43.5399L22.8704 51.8898L22.2104 52.8898V58.0599L17.3604 60.4799V48.6099L23.3204 45.6298L37.3603 38.6099Z" stroke="#229EFF" stroke-linejoin="round"/><path d="M27.2998 88.49C27.8498 88.49 32.2398 86.31 36.7698 84" stroke="#229EFF" stroke-linejoin="round"/><path d="M36.7698 79.4497V83.9998L27.2998 88.4897L31.9098 81.8797L36.7698 79.4497Z" stroke="#229EFF" stroke-linejoin="round"/><path d="M42.2104 43.9095V49.0795L38.9204 50.7296L38.6404 50.8696C38.5404 50.9196 38.4503 50.9896 38.3603 51.0596C38.1303 51.2196 37.9304 51.4195 37.7404 51.6495C37.0904 52.4495 36.7703 53.5596 36.7703 54.9896V79.4495L31.9104 81.8795V52.1895C31.9104 50.7595 31.5804 49.2695 30.9004 47.6995C30.2304 46.1395 29.3804 44.7496 28.3604 43.5396L37.3603 39.0396L39.9104 37.7695L42.2104 43.9095Z" stroke="#229EFF" stroke-linejoin="round"/><path d="M43.9799 48.6196L42.2099 49.5095L40.3199 50.4495C39.8099 50.4495 39.3399 50.5396 38.9199 50.7296L42.2099 49.0795L43.8399 48.2695L43.9799 48.6196Z" stroke="#229EFF" stroke-linejoin="round"/></svg>