<svg width="48" height="48" viewBox="0 0 85 120" fill="none" xmlns="http://www.w3.org/2000/svg" stroke-width="1px" stroke-linecap="round" stroke-linejoin="round"><path d="M17.3611 77.73V90.79L2.20117 82.03V68.98L17.3611 77.73Z" stroke="#229EFF" stroke-linejoin="round"/><path d="M17.3611 55.9797V73.3798L6.24121 66.9597L2.20117 64.6298V47.2197L17.3611 55.9797Z" stroke="#229EFF" stroke-linejoin="round"/><path d="M17.3611 21.1699V51.6299L6.24121 45.1998L2.20117 42.8699V12.4199L17.3611 21.1699Z" stroke="#229EFF" stroke-linejoin="round"/><path d="M28.9915 62.6899L28.8015 62.79L24.9514 64.71V69.59L22.2014 70.96L17.3613 73.38V55.98L22.2014 53.5601L24.9514 52.1899V60.36L28.9915 62.6899Z" stroke="#229EFF" stroke-linejoin="round"/><path d="M40.1111 73.47V103.92L24.9512 95.17V64.71L29.4712 67.3199L33.5112 69.66L37.3611 71.88L40.1111 73.47Z" stroke="#229EFF" stroke-linejoin="round"/><path d="M47.7012 65.3199V69.6801L44.9512 71.05L40.1111 73.47L37.3611 71.88L33.5112 69.66L29.4712 67.3199L24.9512 64.71L28.8013 62.79L28.9912 62.6899L33.5112 65.3L40.1111 69.11L44.9512 66.6899L47.7012 65.3199Z" stroke="#229EFF" stroke-linejoin="round"/><path d="M47.7014 95.2499L51.7415 97.5798L47.7014 99.5999V100.13L40.1113 103.92V73.4698L44.9514 71.0499L47.7014 69.6799V73.4899L51.7415 75.8198L47.7014 77.8398V95.2499Z" stroke="#229EFF" stroke-linejoin="round"/><path d="M82.8613 98.3499V107.06L62.8613 117.06V108.35L82.8613 98.3499Z" stroke="#229EFF" stroke-linejoin="round"/><path d="M62.8611 108.35V117.06L47.7012 108.3V99.5999L48.1912 99.8799L62.8611 108.35Z" stroke="#229EFF" stroke-linejoin="round"/><path d="M82.8611 98.35L62.8611 108.35L48.1912 99.88L47.7012 99.6L51.7412 97.58L52.2312 97.86L62.8611 104L70.7412 100.06L78.8213 96.02L82.8611 98.35Z" stroke="#229EFF" stroke-linejoin="round"/><path d="M82.8613 76.5999V93.9999L78.8215 96.0199L70.7415 100.06L62.8613 104V86.5999L67.7014 84.1799L82.8613 76.5999Z" stroke="#229EFF" stroke-linejoin="round"/><path d="M62.8611 86.5999V104L52.2312 97.8599L51.7412 97.5798L47.7012 95.2499V77.8398L60.1111 85.0099L62.8611 86.5999Z" stroke="#229EFF" stroke-linejoin="round"/><path d="M82.8611 76.6L67.7012 84.1801L62.8611 86.6L60.1111 85.01L47.7012 77.84L51.7412 75.8199L60.1111 80.66L62.8611 82.25L67.7012 79.83L78.8213 74.27L82.8611 76.6Z" stroke="#229EFF" stroke-linejoin="round"/><path d="M82.8613 37.4399V72.25L78.8215 74.27L67.7014 79.83L62.8613 82.25V47.4399L67.7014 45.02L82.8613 37.4399Z" stroke="#229EFF" stroke-linejoin="round"/><path d="M82.8611 37.4399L67.7012 45.02L62.8611 47.4399L60.1111 45.85L56.2612 43.63L52.2312 41.3L47.7012 38.6899L51.5513 36.76L55.5911 34.75L60.1111 32.49L67.7012 28.6899L82.8611 37.4399Z" stroke="#229EFF" stroke-linejoin="round"/><path d="M60.1113 24.3101V32.49L55.5913 34.75L51.5515 36.76L47.7014 38.6899V43.5699L44.9514 44.9399L40.1113 47.36V34.3101L48.0015 30.36L60.1113 24.3101Z" stroke="#229EFF" stroke-linejoin="round"/><path d="M24.9514 25.5499V38.5999L28.9915 40.9299L28.7915 41.0299L24.9514 42.9498V47.8398L22.2014 49.2098L17.3613 51.6299V21.1699L22.2014 18.7499L37.3613 11.1699V19.3499L24.9514 25.5499Z" stroke="#229EFF" stroke-linejoin="round"/><path d="M37.3611 11.1699L22.2012 18.7499L17.3611 21.1699L2.20117 12.4199L22.2012 2.41992L37.3611 11.1699Z" stroke="#229EFF" stroke-linejoin="round"/><path d="M24.9512 47.8397V52.1897L22.2012 53.5598L17.3611 55.9797L2.20117 47.2197L6.24121 45.1997L17.3611 51.6298L22.2012 49.2097L24.9512 47.8397Z" stroke="#229EFF" stroke-linejoin="round"/><path d="M40.1111 34.3098V47.3597L33.5212 43.5498L28.9912 40.9298L24.9512 38.5997V25.5498L37.3611 32.7197L40.1111 34.3098Z" stroke="#229EFF" stroke-linejoin="round"/><path d="M60.1111 24.3098L48.0012 30.3597L40.1111 34.3098L37.3611 32.7197L24.9512 25.5498L37.3611 19.3497L44.9512 15.5498L60.1111 24.3098Z" stroke="#229EFF" stroke-linejoin="round"/><path d="M62.8611 47.4399V82.25L60.1111 80.66L51.7412 75.8199L47.7012 73.49V38.6899L52.2312 41.3L56.2612 43.63L60.1111 45.85L62.8611 47.4399Z" stroke="#229EFF" stroke-linejoin="round"/><path d="M40.1111 51.7097V69.1097L33.5112 65.2998L28.9912 62.6897L24.9512 60.3597V42.9497L29.4812 45.5697L33.5212 47.8998L37.3611 50.1198L40.1111 51.7097Z" stroke="#229EFF" stroke-linejoin="round"/><path d="M47.7012 43.5698V47.9199L44.9512 49.2899L40.1111 51.7098L37.3611 50.1199L33.5212 47.8999L29.4812 45.5698L24.9512 42.9498L28.7913 41.0299L28.9912 40.9299L33.5212 43.5499L40.1111 47.3599L44.9512 44.9398L47.7012 43.5698Z" stroke="#229EFF" stroke-linejoin="round"/><path d="M47.7014 47.9199V65.3198L44.9514 66.6898L40.1113 69.1099V51.7098L44.9514 49.2899L47.7014 47.9199Z" stroke="#229EFF" stroke-linejoin="round"/><path d="M24.9514 73.9399V87L17.3613 90.79V77.73L24.9514 73.9399Z" stroke="#229EFF" stroke-linejoin="round"/><path d="M24.9512 69.59V73.9399L17.3611 77.73L2.20117 68.98L6.24121 66.96L17.3611 73.38L22.2012 70.96L24.9512 69.59Z" stroke="#229EFF" stroke-linejoin="round"/></svg>