<svg width="48" height="48" viewBox="0 0 116 115" fill="none" xmlns="http://www.w3.org/2000/svg" stroke-width="1px"
     stroke-linecap="round" stroke-linejoin="round">
    <path d="M113.75 84.6696L93.75 94.6696L87.79 84.5095L92.5801 82.1095L107.79 74.5095L113.75 84.6696Z" stroke="currentColor" stroke-linejoin="round"/>
    <path d="M113.75 84.6696L93.0498 96.4695L73.0498 106.469L92.4398 95.4196L93.7498 94.6696L113.75 84.6696Z" stroke="currentColor" stroke-linejoin="round"/>
    <path d="M93.7499 94.6696L92.4399 95.4196L73.0499 106.469L69.8099 100.91L69.48 100.359L61.1299 86.0295L67.09 82.7495L73.0499 92.9095L77.72 90.2495L86.4999 85.2395L87.7899 84.5095L93.7499 94.6696Z" stroke="currentColor" stroke-linejoin="round"/>
    <path d="M92.5798 82.1095L87.7898 84.5095L86.4998 85.2395L77.7198 90.2495L73.0498 92.9095L67.0898 82.7495L73.7598 79.4095L87.0898 72.7495L92.5798 82.1095Z" stroke="currentColor" stroke-linejoin="round"/>
    <path d="M69.4796 100.359L69.8096 100.91L60.7096 105.459C58.0696 101.459 56.0096 97.0495 54.5496 92.2395C53.7596 89.6495 53.1796 87.1995 52.8196 84.8995C52.5096 82.9195 52.3496 81.0495 52.3496 79.2795C52.3496 71.0395 54.8195 65.6095 59.7695 62.9895C63.8495 60.8295 68.2695 60.7195 73.0095 62.6695C72.5695 64.6195 72.3496 66.8295 72.3496 69.2795C72.3496 72.3495 72.8195 75.7195 73.7595 79.4095L67.0896 82.7495L61.1295 86.0295L69.4796 100.359Z" stroke="currentColor" stroke-linejoin="round"/>
    <path d="M85.1799 70.8795C83.7899 69.4395 82.3199 68.1895 80.7899 67.1395C79.2499 66.0995 77.69 65.1095 76.08 64.1895C75.04 63.5895 74.0199 63.0796 73.0099 62.6696C68.2699 60.7196 63.8499 60.8295 59.7699 62.9895C54.8199 65.6095 52.35 71.0396 52.35 79.2796C52.35 81.0496 52.5099 82.9196 52.8199 84.8996C53.1799 87.1996 53.7599 89.6495 54.5499 92.2395C56.0099 97.0495 58.07 101.459 60.71 105.459C59.39 106.059 57.6699 106.799 55.5399 107.689C53.4099 108.589 51.5799 109.39 50.0499 110.1L43.9899 112.84L30.71 91.4995C25.69 83.3995 21.3899 76.2795 17.7999 70.1295C14.2099 63.9795 11.2399 58.4295 8.90991 53.4795C6.56991 48.5295 4.86992 44.0695 3.78992 40.0795C2.70992 36.0995 2.16992 32.2695 2.16992 28.5895C2.16992 21.0695 4.35988 16.0795 8.74988 13.6195L9.65991 13.1596C13.2499 11.5396 17.52 11.8795 22.47 14.1895C23.35 14.5995 24.2499 15.0695 25.1699 15.5995C28.7899 17.6895 32.2399 20.5396 35.5199 24.1496C38.7899 27.7596 41.6199 31.8496 43.9899 36.4196C44.5099 36.0196 45.0599 35.6595 45.6299 35.3495L45.6899 35.3195C45.9099 35.1995 46.13 35.0895 46.36 34.9895C48.18 34.1595 50.21 33.8096 52.45 33.9296C55.73 34.0996 59.1799 35.2295 62.8099 37.3295C68.7299 40.7495 73.7 45.6695 77.7 52.1095C78.02 52.6295 78.3399 53.1496 78.6399 53.6696C82.0999 59.5496 84.2799 65.2895 85.1799 70.8795Z" stroke="currentColor" stroke-linejoin="round"/>
    <path d="M63.8801 26.2195L46.3602 34.9895C46.1302 35.0895 45.9102 35.1994 45.6902 35.3194L45.6301 35.3495C45.0601 35.6595 44.5101 36.0195 43.9901 36.4195C41.6201 31.8495 38.7901 27.7595 35.5201 24.1495C32.2401 20.5395 28.7902 17.6895 25.1702 15.5995C24.2502 15.0695 23.3502 14.5994 22.4702 14.1894C17.5202 11.8794 13.2502 11.5395 9.66016 13.1595L28.7501 3.61948C33.1401 1.14948 38.6102 1.80946 45.1702 5.59946C48.7902 7.68946 52.2401 10.5395 55.5201 14.1495C58.7401 17.7095 61.5401 21.7295 63.8801 26.2195Z" stroke="currentColor" stroke-linejoin="round"/>
    <path d="M105.18 60.8795L85.1803 70.8795C84.2803 65.2895 82.1003 59.5495 78.6403 53.6695C78.3403 53.1495 78.0203 52.6295 77.7003 52.1095C73.7003 45.6695 68.7303 40.7494 62.8103 37.3294C59.1803 35.2294 55.7303 34.0995 52.4503 33.9295C50.2103 33.8095 48.1804 34.1595 46.3604 34.9895L63.8802 26.2194L65.6903 25.3194L65.9603 25.1795C67.8703 24.2195 70.0403 23.8095 72.4503 23.9295C75.7303 24.0995 79.1803 25.2294 82.8103 27.3294C88.7303 30.7494 93.7003 35.6695 97.7003 42.1095C101.71 48.5395 104.2 54.7995 105.18 60.8795Z" stroke="currentColor" stroke-linejoin="round"/>
</svg>