<svg viewBox="0 0 88 115" fill="none" xmlns="http://www.w3.org/2000/svg" height="48" width="48" stroke-width="1px" stroke-linecap="round" stroke-linejoin="round"><path d="M64.06 56.3751L45.15 29.1851L33.69 12.7151L22 16.0251L2 21.6951V76.2451L65.39 112.845V58.2851L64.06 56.3751ZM22 44.3351C22.4 41.8651 23.49 40.1151 25.27 39.1051C27.58 37.7851 30.39 38.0851 33.69 39.9851C36.99 41.8951 39.8 44.8451 42.11 48.8251C43.93 51.9651 45.03 55.0451 45.42 58.0551C45.53 58.8751 45.58 59.6851 45.58 60.4951C45.58 64.2751 44.42 66.8351 42.11 68.1451C41.92 68.2551 41.73 68.3451 41.53 68.4251C39.34 69.4051 36.72 69.0151 33.69 67.2651C31.67 66.1051 29.83 64.5451 28.18 62.5951C27.14 61.3651 26.17 59.9651 25.27 58.4251C23.49 55.3651 22.4 52.3551 22 49.4051C21.87 48.5151 21.81 47.6351 21.81 46.7651C21.81 45.8951 21.87 45.0751 22 44.3351ZM57.46 99.1751L9.92 71.7251V70.4751C9.92 69.4151 10.12 68.5451 10.52 67.8651C10.91 67.1851 11.51 66.8051 12.3 66.7351C14.72 66.3751 17.24 66.3851 19.86 66.7551C20.75 66.8751 21.64 67.0451 22.55 67.2551C23.3 67.4251 24.05 67.6251 24.81 67.8651C27.7 68.7451 30.66 70.0651 33.69 71.8151C36.72 73.5651 39.67 75.6551 42.55 78.1051C43.32 78.7551 44.08 79.4251 44.83 80.1251C48.43 83.4451 51.85 87.2251 55.09 91.4351C55.88 92.4251 56.47 93.4851 56.87 94.6251C57.26 95.7651 57.46 96.8651 57.46 97.9251V99.1751Z" stroke="#229EFF" stroke-linejoin="round"/><path d="M19.8599 66.7551L9.91992 71.7251V70.4751C9.91992 69.4151 10.1199 68.5451 10.5199 67.8651C10.9099 67.1851 11.5099 66.8051 12.2999 66.7351C14.7199 66.3751 17.2399 66.3851 19.8599 66.7551Z" stroke="#229EFF" stroke-linejoin="round"/><path d="M57.4599 97.9251V99.1751L9.91992 71.7251L19.8599 66.7551C20.7499 66.8751 21.6399 67.0451 22.5499 67.2551C23.2999 67.4251 24.0499 67.6251 24.8099 67.8651C27.6999 68.7451 30.6599 70.0651 33.6899 71.8151C36.7199 73.5651 39.6699 75.6551 42.5499 78.1051C43.3199 78.7551 44.0799 79.4251 44.8299 80.1251C48.4299 83.4451 51.8499 87.2251 55.0899 91.4351C55.8799 92.4251 56.4699 93.4851 56.8699 94.6251C57.2599 95.7651 57.4599 96.8651 57.4599 97.9251Z" stroke="#229EFF" stroke-linejoin="round"/><path d="M85.3896 48.2851V102.845L65.3896 112.845V58.2851L85.3896 48.2851Z" stroke="#229EFF" stroke-linejoin="round"/><path d="M53.69 2.71509L33.69 12.7151L22 16.0251L2 21.6951L22 11.6951L53.69 2.71509Z" stroke="#229EFF" stroke-linejoin="round"/><path d="M85.3904 48.2851L65.3904 58.2851L64.0604 56.3751L45.1504 29.1851L33.6904 12.7151L53.6904 2.71509L85.3904 48.2851Z" stroke="#229EFF" stroke-linejoin="round"/><path d="M45.5796 60.4951C45.5796 64.2751 44.4196 66.8351 42.1096 68.1451C41.9196 68.2551 41.7296 68.3451 41.5296 68.4251C39.3396 69.4051 36.7196 69.0151 33.6896 67.2651C31.6696 66.1051 29.8296 64.5451 28.1796 62.5951C27.1396 61.3651 26.1696 59.9651 25.2696 58.4251C23.4896 55.3651 22.3996 52.3551 21.9996 49.4051C21.8696 48.5151 21.8096 47.6351 21.8096 46.7651C21.8096 45.8951 21.8696 45.0751 21.9996 44.3351C22.3996 41.8651 23.4896 40.1151 25.2696 39.1051C27.5796 37.7851 30.3896 38.0851 33.6896 39.9851C36.9896 41.8951 39.7996 44.8451 42.1096 48.8251C43.9296 51.9651 45.0296 55.0451 45.4196 58.0551C45.5296 58.8751 45.5796 59.6851 45.5796 60.4951Z" stroke="#229EFF" stroke-linejoin="round"/></svg>