<svg width="48" height="48" viewBox="0 0 111 127" fill="none" xmlns="http://www.w3.org/2000/svg" stroke-width="1px" stroke-linecap="round" stroke-linejoin="round"><path d="M88.6 102.088C87.75 106.988 86.26 111.098 84.15 114.398C82.17 117.498 79.63 119.888 76.54 121.588L75.47 122.128C74.89 122.418 74.29 122.678 73.67 122.908C65.58 125.938 56.27 124.418 45.74 118.328C39.68 114.828 33.99 110.228 28.69 104.508C23.38 98.7981 18.76 92.5481 14.83 85.7681C10.9 78.9881 7.78 71.8781 5.47 64.4581C3.16 57.0381 2 49.8481 2 42.8981C2 30.8081 5.36 22.0781 12.07 16.7181C13.22 15.7981 14.43 15.0181 15.69 14.3781L16.49 13.9781C19.72 12.4781 23.3 11.8281 27.22 12.0381C30.49 12.2081 33.99 12.9781 37.73 14.3281C36.43 21.7781 36.83 30.0181 38.92 39.0581C41.01 48.0881 44.62 57.0281 49.74 65.8581C54.87 74.6981 60.84 82.2881 67.66 88.6281C74.48 94.9681 81.46 99.4581 88.61 102.088H88.6Z" stroke="#229EFF" stroke-linejoin="round"/><path d="M57.72 4.32816L37.72 14.3282C33.98 12.9782 30.48 12.2082 27.21 12.0382C23.29 11.8282 19.71 12.4782 16.48 13.9782L35.45 4.48816L36.43 3.99814C42.36 1.22814 49.46 1.33816 57.72 4.32816Z" stroke="#229EFF" stroke-linejoin="round"/><path d="M108.6 92.0881C106.86 102.138 102.45 108.838 95.37 112.178L95.14 112.288L76.54 121.588C79.63 119.888 82.17 117.498 84.15 114.398C86.26 111.098 87.75 106.988 88.6 102.088L108.6 92.0881Z" stroke="#229EFF" stroke-linejoin="round"/><path d="M108.6 92.0881L88.5998 102.088C81.4498 99.4581 74.4698 94.9681 67.6498 88.6281C60.8298 82.2881 54.8598 74.6981 49.7298 65.8581C44.6098 57.0281 40.9998 48.0881 38.9098 39.0581C36.8198 30.0181 36.4198 21.7781 37.7198 14.3281L57.7198 4.32812C56.4198 11.7781 56.8198 20.0181 58.9098 29.0581C60.9998 38.0881 64.6098 47.0281 69.7298 55.8581C74.8598 64.6981 80.8298 72.2881 87.6498 78.6281C94.4698 84.9681 101.45 89.4581 108.6 92.0881Z" stroke="#229EFF" stroke-linejoin="round"/><path d="M95.9501 111.888L95.3701 112.178" stroke="#229EFF" stroke-linejoin="round"/><path d="M15.6802 14.3781L16.4802 13.9781" stroke="#229EFF" stroke-linejoin="round"/></svg>