<svg width="24" height="24" viewBox="0 0 112 114" fill="none" xmlns="http://www.w3.org/2000/svg" stroke-width="1px" stroke-linecap="round" stroke-linejoin="round">
    <path d="M49.9399 74.1999L50.1299 74.5299V74.3099L49.9399 74.1999Z" stroke="currentColor" stroke-linejoin="round"/>
    <path d="M49.9399 74.1999L50.1299 74.5299V74.3099L49.9399 74.1999Z" stroke="currentColor" stroke-linejoin="round"/>
    <path d="M70.1299 83.5299L64.5299 86.7199L64.6299 86.8899L58.9399 89.7299L57.9299 90.2399L50.1299 94.8099V74.3099L54.7399 71.9999L57.9499 73.8599L61.4699 75.8899L70.1299 80.8899V83.5299Z" stroke="currentColor" stroke-linejoin="round"/>
    <path d="M84.2098 91.0699L65.7998 101.56L45.7998 111.56L64.2098 101.07L65.2198 100.56L84.2098 91.0699Z" stroke="currentColor" stroke-linejoin="round"/>
    <path d="M84.2102 91.0699L65.2202 100.56L64.2102 101.07L57.9302 90.2399L58.9402 89.7299L64.6302 86.8899L70.7002 97.3699L84.0102 90.7199L84.2102 91.0699Z" stroke="currentColor" stroke-linejoin="round"/>
    <path d="M109.11 76.8799L90.7002 87.3699L84.0102 90.7199L70.7002 97.3699L83.6002 90.0199L89.1102 86.8799L90.1202 86.3699L109.11 76.8799Z" stroke="currentColor" stroke-linejoin="round"/>
    <path d="M70.13 68.4599L72.33 72.2199L70.13 70.9499L63.96 67.3899L61.47 65.9499L55.3 62.3899L54.46 61.9099L74.46 51.9099L75.7 52.6299L70.7 55.1299L64.42 58.7099L66.46 62.1899L68.25 65.2499L70.13 68.4599Z" stroke="currentColor" stroke-linejoin="round"/>
    <path d="M109.11 76.8799L90.1202 86.3699L89.1102 86.8799L74.6602 61.9499L74.4602 61.6099L70.7002 55.1299L90.7002 45.1299L109.11 76.8799Z" stroke="currentColor" stroke-linejoin="round"/>
    <path d="M37.14 51.9099V61.8499L35.9 61.1199L35.49 60.8999L19.28 51.5399L27.18 65.0399L20.91 68.6199L2.5 36.8899L20.8 26.4499L26.97 37.0999L19.17 41.5399L36.96 51.7999L37.14 51.9099Z" stroke="currentColor" stroke-linejoin="round"/>
    <path d="M41.7499 49.5999L37.1399 51.9099L36.9599 51.7999L19.1699 41.5399L39.1699 31.5399L41.4699 32.8599V49.4499L41.7499 49.5999Z" stroke="currentColor" stroke-linejoin="round"/>
    <path d="M41.4699 29.8499V30.2199L39.1699 31.5399L19.1699 41.5399L26.9699 37.0999L28.0999 36.5399L41.4699 29.8499Z" stroke="currentColor" stroke-linejoin="round"/>
    <path d="M41.4698 28.8299V29.3699L33.5698 33.3299L41.4698 28.8299Z" stroke="currentColor" stroke-linejoin="round"/>
    <path d="M84.21 33.9299L78.04 37.4499L70.13 41.4099L67.31 42.8099L58.04 47.4499L64.21 43.9299L66.91 42.5799L70.13 40.9699L77.84 37.1099L84.21 33.9299Z" stroke="currentColor" stroke-linejoin="round"/>
    <path d="M84.2098 33.9299L77.8398 37.1099L70.1298 40.9699L66.9098 42.5799L64.2098 43.9299L61.6698 39.5599L61.4698 39.2099L52.5498 23.8299L45.7998 12.1899L65.7998 2.18994L84.2098 33.9299Z" stroke="currentColor" stroke-linejoin="round"/>
    <path d="M64.2099 43.9299L58.0399 47.4599L57.1399 45.9099L55.3499 42.8099L53.6599 39.9099L50.1299 33.8299V54.4499L45.1499 51.5599L41.7499 49.5999L41.4699 49.4499V28.8299L33.5699 33.3299L28.0099 23.7399L27.6099 23.0399L27.3999 22.6799L45.7999 12.1999L52.5499 23.8399L61.4699 39.2199L61.6699 39.5599L64.2099 43.9299Z" stroke="currentColor" stroke-linejoin="round"/>
    <path d="M89.11 86.8799L83.6 90.0199L70.7 97.3699L64.63 86.8899L64.53 86.7199L70.13 83.5299L72.43 82.2199L70.13 80.8899L61.47 75.8899L57.95 73.8599L54.74 71.9999L54.46 71.8399V61.9099L55.3 62.3899L61.47 65.9499L63.96 67.3899L70.13 70.9499L72.33 72.2199L70.13 68.4599L68.25 65.2499L66.46 62.1899L64.42 58.7099L70.7 55.1299L74.46 61.6099L74.66 61.9499L89.11 86.8799Z" stroke="currentColor" stroke-linejoin="round"/>
    <path d="M54.7402 71.9999L50.1302 74.3099L49.9402 74.1999L44.2902 70.9399L41.4702 69.3099L54.4602 62.8199V71.8399L54.7402 71.9999Z" stroke="currentColor" stroke-linejoin="round"/>
    <path d="M41.4698 72.3499V89.9299L33.5698 76.2999L41.4698 72.3499Z" stroke="currentColor" stroke-linejoin="round"/>
    <path d="M64.2099 101.07L45.7999 111.56L27.3999 79.8199L33.5699 76.2999L41.4699 89.9299V69.3099L44.2899 70.9399L49.9399 74.1999L50.1299 74.5299V94.8099L57.9299 90.2399L64.2099 101.07Z" stroke="currentColor" stroke-linejoin="round"/>
    <path d="M41.4698 29.3699V29.8499L28.0998 36.5399L26.9698 37.0999L20.7998 26.4499L27.6098 23.0399L28.0098 23.7399L33.5698 33.3299L41.4698 29.3699Z" stroke="currentColor" stroke-linejoin="round"/>
    <path d="M35.4898 60.8999L27.1798 65.0399L19.2798 51.5399L35.4898 60.8999Z" stroke="currentColor" stroke-linejoin="round"/>
    <path d="M35.9002 61.1199L20.9102 68.6199L27.1802 65.0399L35.4902 60.8999L35.9002 61.1199Z" stroke="currentColor" stroke-linejoin="round"/>
    <path d="M70.1299 41.4099V44.4399L57.1399 50.9399L56.2999 51.3599L50.1299 54.4399V33.8199L53.6599 39.8999L55.3499 42.8099L57.1399 45.8999L58.0399 47.4499L67.3099 42.8099L70.1299 41.4099Z" stroke="currentColor" stroke-linejoin="round"/>
    <path d="M57.1401 50.9499V51.8499L37.1401 61.8499V51.9099L41.7501 49.5999L45.1501 51.5599L50.1301 54.4499L56.3001 51.3599L57.1401 50.9499Z" stroke="currentColor" stroke-linejoin="round"/>
</svg>