<svg viewBox="0 0 79 125" fill="none" xmlns="http://www.w3.org/2000/svg" height="48" width="48" stroke-width="1px"
     stroke-linecap="round" stroke-linejoin="round">
    <path d="M56.62 113.478V122.438L2 90.8982V81.9482L56.62 113.478Z" stroke="currentColor" stroke-linejoin="round"/>
    <path d="M76.6201 103.478V112.438L56.6201 122.438V113.478L68.3001 107.638L76.6201 103.478Z" stroke="currentColor" stroke-linejoin="round"/>
    <path d="M53.88 48.3582C52.67 44.7182 51.05 41.0982 49.01 37.5182C47.3 34.5182 45.43 31.7582 43.39 29.2382C39.35 24.2582 34.66 20.2282 29.31 17.1382C27.12 15.8782 25.04 14.8982 23.07 14.2082C18.6 12.6182 14.69 12.5182 11.36 13.8882C11.22 13.9482 11.08 14.0082 10.94 14.0682C10.8 14.1382 10.67 14.1982 10.53 14.2682C10.22 14.4182 9.91 14.5882 9.61 14.7682C4.54 17.8482 2 24.0482 2 33.3782C2 40.3882 4.26 48.8582 8.78 58.7782C10.98 63.6182 13.74 68.8282 17.05 74.4182C20.53 80.2782 24.61 86.5482 29.31 93.2382C32.53 92.3682 35.48 91.3682 38.13 90.2082C39.33 89.7082 40.46 89.1582 41.54 88.5782L41.57 88.5582C43.18 87.7082 44.65 86.7982 46 85.8082C47.17 84.9582 48.25 84.0582 49.22 83.1082C49.43 82.9082 49.64 82.6982 49.84 82.4882C54.36 77.7782 56.62 71.9282 56.62 64.9082C56.62 59.3182 55.71 53.8082 53.88 48.3582ZM34.82 57.9782C34.45 58.1882 34.05 58.3382 33.64 58.4182C32.38 58.6982 30.93 58.3682 29.31 57.4282C27.16 56.1882 25.33 54.2482 23.8 51.6182C22.27 48.9782 21.51 46.4282 21.51 43.9682C21.51 41.5082 22.27 39.8382 23.8 38.9682C24.11 38.7982 24.43 38.6582 24.76 38.5682C26.08 38.2082 27.59 38.5282 29.31 39.5182C31.46 40.7582 33.29 42.6982 34.82 45.3282C36.35 47.9682 37.11 50.5182 37.11 52.9782C37.11 55.4382 36.35 57.1082 34.82 57.9782Z" stroke="currentColor" stroke-linejoin="round"/>
    <path d="M37.1098 52.9784C37.1098 55.4384 36.3498 57.1084 34.8198 57.9784C34.4498 58.1884 34.0498 58.3384 33.6398 58.4184C32.3798 58.6984 30.9298 58.3684 29.3098 57.4284C27.1598 56.1884 25.3298 54.2484 23.7998 51.6184C22.2698 48.9784 21.5098 46.4284 21.5098 43.9684C21.5098 41.5084 22.2698 39.8384 23.7998 38.9684C24.1098 38.7984 24.4298 38.6584 24.7598 38.5684C26.0798 38.2084 27.5898 38.5284 29.3098 39.5184C31.4598 40.7584 33.2898 42.6984 34.8198 45.3284C36.3498 47.9684 37.1098 50.5184 37.1098 52.9784Z" stroke="currentColor" stroke-linejoin="round"/>
    <path d="M76.62 103.478L68.3 107.638L56.62 113.478L2 81.948L17.05 74.418C20.53 80.278 24.61 86.548 29.31 93.238C32.53 92.368 35.48 91.368 38.13 90.208C39.33 89.708 40.46 89.158 41.54 88.578L41.57 88.558L46.51 86.098L76.62 103.478Z" stroke="currentColor" stroke-linejoin="round"/>
    <path d="M76.6204 54.9082C76.6204 61.9282 74.3604 67.7782 69.8404 72.4882C67.3304 75.0982 64.0904 77.3782 60.1404 79.2982L60.0104 79.3582L46.5104 86.0982L41.5704 88.5582C43.1804 87.7082 44.6504 86.7982 46.0004 85.8082C47.1704 84.9582 48.2504 84.0582 49.2204 83.1082C49.4304 82.9082 49.6404 82.6982 49.8404 82.4882C54.3604 77.7782 56.6204 71.9282 56.6204 64.9082C56.6204 59.3182 55.7104 53.8082 53.8804 48.3582C52.6704 44.7182 51.0504 41.0982 49.0104 37.5182C47.3004 34.5182 45.4304 31.7582 43.3904 29.2382C39.3504 24.2582 34.6604 20.2282 29.3104 17.1382C27.1204 15.8782 25.0404 14.8982 23.0704 14.2082C18.6004 12.6182 14.6904 12.5182 11.3604 13.8882C11.2204 13.9482 11.0804 14.0082 10.9404 14.0682L30.5704 4.24821C30.7104 4.17821 30.8504 4.11821 30.9904 4.04821C35.8504 1.86821 41.9604 2.88821 49.3104 7.13821C57.3704 11.7882 63.9404 18.5882 69.0104 27.5182C74.0804 36.4582 76.6204 45.5882 76.6204 54.9082Z" stroke="currentColor" stroke-linejoin="round"/>
</svg>