<svg width="24" height="24" viewBox="0 0 105 116" fill="none" xmlns="http://www.w3.org/2000/svg" stroke-width="1px" stroke-linecap="round" stroke-linejoin="round">
    <path d="M62.0891 52.1795L55.2192 55.6095L54.5291 55.9595L46.6992 89.6495L42.4692 64.4495L38.4292 40.3395L34.4692 16.7495L54.4692 6.74951L62.0891 52.1795Z" stroke="currentColor" stroke-linejoin="round"/>
    <path d="M54.4692 6.74969L34.4692 16.7497L26.5391 12.1797L46.5391 2.17969L54.4692 6.74969Z" stroke="currentColor" stroke-linejoin="round"/>
    <path d="M89.769 86.9799L83.0991 90.3198L72.3191 95.6998V95.7098L69.769 96.9799L62.5491 60.5898L63.4292 60.1498L72.259 55.7398V55.7299L82.5491 50.5898L89.769 86.9799Z" stroke="currentColor" stroke-linejoin="round"/>
    <path d="M82.6091 104.39V113.6L67.5991 104.94L63.5491 102.6L62.8491 99.0597L60.6191 87.7197L58.7393 78.1797L50.509 113.48L42.4893 108.85L36.1492 71.1297L35.0491 64.5997L33.3391 54.3997L30.4492 37.2197L27.4893 51.0297L25.7393 59.2197L21.6292 78.3897L2.36914 67.2797V58.0697L15.2092 65.4797L18.499 50.0097V49.9997L26.5391 12.1797L34.4692 16.7497L38.4292 40.3397L42.4692 64.4497L46.6992 89.6497L54.5291 55.9597L55.3591 56.4397L62.5491 60.5897L69.769 96.9797L71.759 98.1297L82.6091 104.39Z" stroke="currentColor" stroke-linejoin="round"/>
    <path d="M67.5991 104.94L50.509 113.48L58.7393 78.1797L60.6191 87.7197L62.8491 99.0597L63.5491 102.6L67.5991 104.94Z" stroke="currentColor" stroke-linejoin="round"/>
    <path d="M102.609 94.3895L94.0591 98.6694L82.6091 104.389L71.759 98.1295L69.769 96.9795L72.3191 95.7095V95.6995L83.0991 90.3195L89.769 86.9795L102.609 94.3895Z" stroke="currentColor" stroke-linejoin="round"/>
    <path d="M82.5491 50.59L72.259 55.73V55.7399L63.4292 60.15L62.5491 60.59L55.3591 56.4399L54.5291 55.96L55.2192 55.6099L62.0891 52.1799L74.5291 45.96L82.5491 50.59Z" stroke="currentColor" stroke-linejoin="round"/>
    <path d="M102.609 94.3896V103.6L82.6091 113.6V104.39L94.0591 98.6696L102.609 94.3896Z" stroke="currentColor" stroke-linejoin="round"/>
    <path d="M36.1492 71.1297L21.6292 78.3897L25.7393 59.2197L27.4893 51.0297L30.4492 37.2197L33.3391 54.3997L35.0491 64.5997L36.1492 71.1297Z" stroke="currentColor" stroke-linejoin="round"/>
    <path d="M18.499 50.0098L15.2092 65.4798L2.36914 58.0698L18.499 50.0098Z" stroke="currentColor" stroke-linejoin="round"/>
</svg>