<svg width="48" height="48" viewBox="0 0 97 108" fill="none" xmlns="http://www.w3.org/2000/svg" stroke-width="1px" stroke-linecap="round" stroke-linejoin="round"><path d="M71.5444 62.5097C69.6444 56.3597 67.0644 50.4797 63.8044 44.8597C62.1044 41.9197 60.2346 39.0997 58.2046 36.3997C56.3846 33.9497 54.4145 31.6097 52.3245 29.3597C51.2945 28.2497 50.2446 27.1898 49.1746 26.1898C45.6946 22.8998 42.0346 20.1498 38.2046 17.9398C33.6546 15.3098 29.3544 13.7198 25.2944 13.1898C24.8944 13.1398 24.4945 13.0898 24.0945 13.0598C20.3545 12.7498 17.0245 13.2497 14.1145 14.5497L12.6145 15.2997C9.3545 17.1597 6.77451 20.0697 4.87451 24.0197C2.97451 27.9797 2.02441 32.8298 2.02441 38.5698C2.02441 44.3098 2.97451 50.2597 4.87451 56.4097C6.77451 62.5497 9.3545 68.4397 12.6145 74.0497C15.8645 79.6697 19.6945 84.8398 24.0945 89.5598C28.5045 94.2798 33.2046 98.0897 38.2046 100.98C43.2146 103.87 47.9145 105.49 52.3245 105.85C56.7245 106.22 60.5544 105.47 63.8044 103.61C66.8344 101.89 69.2745 99.2597 71.1345 95.7197C71.2745 95.4497 71.4144 95.1797 71.5444 94.8997C73.4444 90.9397 74.3945 86.0897 74.3945 80.3497C74.3945 74.6097 73.4444 68.6597 71.5444 62.5097ZM38.2046 80.2197C33.2046 77.3297 28.9345 72.8397 25.4045 66.7597C21.8845 60.6697 20.1145 54.7597 20.1145 49.0097C20.1145 44.7197 21.1045 41.4697 23.0745 39.2597C23.7445 38.5097 24.5145 37.8797 25.4045 37.3797C28.9345 35.3697 33.2046 35.8098 38.2046 38.6998V80.2197Z" stroke="#229EFF" stroke-linejoin="round"/><path d="M38.2043 38.6999V80.2198C33.2043 77.3298 28.9343 72.8398 25.4043 66.7598C21.8843 60.6698 20.1143 54.7598 20.1143 49.0098C20.1143 44.7198 21.1042 41.4698 23.0742 39.2598C23.7442 38.5098 24.5143 37.8798 25.4043 37.3798C28.9343 35.3698 33.2043 35.8099 38.2043 38.6999Z" stroke="#229EFF" stroke-linejoin="round"/><path d="M94.3943 70.3497C94.3943 76.0897 93.4442 80.9397 91.5442 84.8997C89.6442 88.8497 87.0642 91.7597 83.8042 93.6097L82.2144 94.3997L63.8042 103.61C66.8342 101.89 69.2743 99.2597 71.1343 95.7197C71.2743 95.4497 71.4142 95.1797 71.5442 94.8997C73.4442 90.9397 74.3943 86.0897 74.3943 80.3497C74.3943 74.6097 73.4442 68.6597 71.5442 62.5097C69.6442 56.3597 67.0642 50.4797 63.8042 44.8597C62.1042 41.9197 60.2343 39.0997 58.2043 36.3997C56.3843 33.9497 54.4142 31.6097 52.3242 29.3597C51.2942 28.2497 50.2443 27.1898 49.1743 26.1898C45.6943 22.8998 42.0343 20.1498 38.2043 17.9398C33.6543 15.3098 29.3542 13.7198 25.2942 13.1898C24.8942 13.1398 24.4942 13.0898 24.0942 13.0598C20.3542 12.7498 17.0243 13.2498 14.1143 14.5498L32.6143 5.29977C35.8643 3.44977 39.6942 2.69978 44.0942 3.05978C48.5042 3.41978 53.2043 5.04978 58.2043 7.93978C63.2143 10.8298 67.9142 14.6297 72.3242 19.3597C76.7242 24.0797 80.5542 29.2497 83.8042 34.8597C87.0642 40.4797 89.6442 46.3597 91.5442 52.5097C93.4442 58.6597 94.3943 64.5997 94.3943 70.3497Z" stroke="#229EFF" stroke-linejoin="round"/></svg>