<svg width="48" height="48" viewBox="0 0 93 109" fill="none" xmlns="http://www.w3.org/2000/svg" stroke-width="1px"
     stroke-linecap="round" stroke-linejoin="round">
    <path d="M67.5704 57.7893C67.5704 59.9293 67.1304 61.5793 66.2404 62.7693C65.8204 63.3193 65.3104 63.7793 64.7004 64.1293C63.9304 64.5793 63.0904 64.7993 62.1804 64.7993C60.8404 64.7993 59.3604 64.3393 57.7304 63.3993C55.0004 61.8193 52.6804 59.3793 50.7704 56.0793C48.8504 52.7893 47.9004 49.5693 47.9004 46.4293C47.9004 45.4293 48.0004 44.5293 48.2004 43.7393C48.3004 43.3093 48.4304 42.9193 48.5904 42.5593C48.8804 41.8793 49.2704 41.3293 49.7504 40.8593C50.0504 40.5593 50.3904 40.3093 50.7704 40.0993L51.2204 39.8793C52.2304 39.4193 53.3304 39.3093 54.5604 39.5693H54.5704C54.8504 39.6193 55.1404 39.6893 55.4304 39.7793C56.1604 40.0193 56.9304 40.3693 57.7304 40.8293C60.4604 42.3993 62.7904 44.8393 64.7004 48.1393C66.6104 51.4393 67.5704 54.6593 67.5704 57.7893Z" stroke="currentColor" stroke-linejoin="round"/>
    <path d="M57.5605 68.3492L57.0005 67.3892L41.4905 76.1392L33.7805 80.4792L28.2305 83.6092V99.0292L41.6705 106.789L60.3905 96.0492L70.2705 90.3892L57.5605 68.3492ZM56.8305 87.5192L52.7305 80.4492L57.0005 78.0192L61.0105 85.0392L56.8305 87.5192Z" stroke="currentColor" stroke-linejoin="round"/>
    <path d="M57.0005 78.019L52.7305 80.449L56.8305 87.519L61.0105 85.0391L57.0005 78.019Z" stroke="currentColor" stroke-linejoin="round"/>
    <path d="M90.2699 80.3892L61.6699 96.7892L41.6699 106.789L60.3899 96.0492L70.2699 90.3892L90.2699 80.3892Z" stroke="currentColor" stroke-linejoin="round"/>
    <path d="M90.27 80.3891L70.27 90.3891L57.56 68.3491L57 67.3891L62.18 64.7991C63.09 64.7991 63.93 64.5792 64.7 64.1292L67.75 62.6091L68.22 62.3691L77.26 57.8491L90.27 80.3891Z" stroke="currentColor" stroke-linejoin="round"/>
    <path d="M35.1104 50.2792V59.5492L22.3604 65.9292L15.1104 69.5492V38.1292C16.5304 38.3892 17.7604 38.2192 18.8004 37.6292L22.7304 35.6592L28.5604 39.0292L32.0804 41.0592L28.5604 43.0692L26.1004 44.4692L28.5604 48.7692L30.6904 52.4892L35.1104 50.2792Z" stroke="currentColor" stroke-linejoin="round"/>
    <path d="M44.62 44.5392L35.11 49.9692L30.69 52.4892L28.56 48.7692L26.1 44.4692L28.56 43.0692L32.08 41.0592L28.56 39.0292L22.73 35.6592L21.1 34.7192C20.6 36.0692 19.84 37.0392 18.8 37.6292C17.76 38.2192 16.53 38.3892 15.11 38.1292V69.5492C17.03 71.4692 18.6 73.7392 19.83 76.3592C21.06 78.9792 21.67 81.5092 21.67 83.9592C21.67 87.0892 20.71 89.2092 18.8 90.2992C16.89 91.3892 14.57 91.1392 11.84 89.5692C9.1 87.9892 6.78 85.5492 4.87 82.2492C2.96 78.9492 2 75.7392 2 72.5992C2 70.1592 2.61 68.3492 3.84 67.1792C4.19 66.8492 4.56 66.5792 4.96 66.3692L5.16 66.2692C6.14 65.7992 7.27 65.6592 8.56 65.8492V34.3492C6.64 32.4292 5.07 30.1592 3.84 27.5392C2.61 24.9092 2 22.3792 2 19.9392C2 16.7992 2.96 14.6892 4.87 13.5992L5.32 13.3792C7.14 12.5492 9.31 12.8692 11.84 14.3292C13.97 15.5592 15.86 17.3592 17.53 19.7292C19.2 22.1092 20.39 24.5892 21.1 27.1992L28.56 31.5092L29.71 32.1692L32.08 33.5392L30.93 31.5592L28.56 27.4692L26.76 24.3692L26.1 23.2192L27.05 22.6592L30.69 20.5092L31.54 21.9792L35.11 28.1292L35.71 29.1692L44.62 44.5392Z" stroke="currentColor" stroke-linejoin="round"/>
    <path d="M40.5803 15.5593L30.6903 20.5093L27.0503 22.6592L26.1003 23.2192L26.7603 24.3693L21.1003 27.1992C20.3903 24.5892 19.2003 22.1092 17.5303 19.7292C15.8603 17.3592 13.9703 15.5592 11.8403 14.3292C9.31031 12.8692 7.14031 12.5493 5.32031 13.3793L24.8703 3.59923C26.7803 2.50923 29.1003 2.74921 31.8403 4.32921C33.9703 5.55921 35.8603 7.35924 37.5303 9.72924C38.8503 11.5992 39.8603 13.5393 40.5803 15.5593Z" stroke="currentColor" stroke-linejoin="round"/>
    <path d="M41.6704 73.9593C41.6704 74.7493 41.6104 75.4693 41.4904 76.1393L33.7804 80.4793L28.2304 83.6093V85.5893L18.8004 90.2993C20.7104 89.2093 21.6704 87.0893 21.6704 83.9593C21.6704 81.5093 21.0604 78.9793 19.8304 76.3593C18.6004 73.7393 17.0304 71.4693 15.1104 69.5493L22.3604 65.9293L35.1104 59.5493C37.0304 61.4693 38.6004 63.7393 39.8304 66.3593C41.0604 68.9793 41.6704 71.5093 41.6704 73.9593Z" stroke="currentColor" stroke-linejoin="round"/>
    <path d="M87.5697 47.7892C87.5697 50.9292 86.6097 53.0393 84.6997 54.1293L84.0897 54.4293L77.2597 57.8492L68.2197 62.3693L67.7497 62.6092L64.6997 64.1293C65.3097 63.7793 65.8197 63.3192 66.2397 62.7692C67.1297 61.5792 67.5697 59.9292 67.5697 57.7892C67.5697 54.6592 66.6097 51.4392 64.6997 48.1392C62.7897 44.8392 60.4597 42.3992 57.7297 40.8292C56.9297 40.3692 56.1597 40.0192 55.4297 39.7792C55.1397 39.6892 54.8497 39.6193 54.5697 39.5693H54.5597C53.3297 39.3093 52.2297 39.4193 51.2197 39.8793L64.0097 33.4792L70.7697 30.0992C72.6797 29.0092 74.9997 29.2492 77.7297 30.8292C80.4597 32.3992 82.7897 34.8392 84.6997 38.1392C86.6097 41.4392 87.5697 44.6592 87.5697 47.7892Z" stroke="currentColor" stroke-linejoin="round"/>
    <path d="M32.0796 33.5391L29.7096 32.1691L28.5596 31.5092L21.0996 27.1991L26.7596 24.3691L28.5596 27.4691L30.9296 31.5591L32.0796 33.5391Z" stroke="currentColor" stroke-linejoin="round"/>
    <path d="M48.5904 42.5593C48.4304 42.9193 48.3004 43.3093 48.2004 43.7293L35.1104 50.2793L30.6904 52.4893L35.1104 49.9693L44.6204 44.5393L48.5904 42.5593Z" stroke="currentColor" stroke-linejoin="round"/>
    <path d="M64.0104 33.4792L51.2204 39.8793L50.7704 40.0992C50.3904 40.3092 50.0504 40.5593 49.7504 40.8593C49.2704 41.3293 48.8804 41.8793 48.5904 42.5493L44.6204 44.5392L35.7104 29.1693L35.1104 28.1293L31.5404 21.9792L30.6904 20.5093L40.5804 15.5593L50.6904 10.5093L64.0104 33.4792Z" stroke="currentColor" stroke-linejoin="round"/>
    <path d="M4.96031 66.3691L4.82031 66.4391" stroke="currentColor" stroke-linejoin="round"/>
    <path d="M8.56016 64.5693V65.8493C7.27016 65.6593 6.14016 65.7993 5.16016 66.2693L8.56016 64.5693Z" stroke="currentColor" stroke-linejoin="round"/>
</svg>