<svg width="48" height="48" viewBox="0 0 68 116" fill="none" xmlns="http://www.w3.org/2000/svg" stroke-width="1px"
     stroke-linecap="round" stroke-linejoin="round">
    <path d="M36.6401 104.158C36.6401 108.298 35.3803 111.098 32.8503 112.538C30.3303 113.978 27.2601 113.648 23.6501 111.568C20.0401 109.488 16.9802 106.268 14.4502 101.908C11.9302 97.5477 10.6602 93.2977 10.6602 89.1577C10.6602 85.0177 11.9302 82.2277 14.4502 80.7877L15.1401 80.4477L15.2402 80.3977C17.6102 79.4277 20.4101 79.8777 23.6501 81.7577C27.2601 83.8377 30.3303 87.0577 32.8503 91.4177C35.3803 95.7677 36.6401 100.018 36.6401 104.158Z" stroke="currentColor" stroke-linejoin="round"/>
    <path d="M45.3 49.5377L39.3201 52.8277L39.1299 52.9277L27.98 33.6977V74.3177L27.71 74.1577L19.3201 69.3177V28.6977L8.06006 34.9877L2 24.5377L23.6499 12.1877L24.26 13.2477L30.3301 23.7177L39.3201 39.2177L45.3 49.5377Z" stroke="currentColor" stroke-linejoin="round"/>
    <path d="M56.6401 94.1578C56.6401 98.2978 55.3803 101.098 52.8503 102.538C52.5703 102.698 52.2802 102.838 51.9902 102.958H51.9602L32.8503 112.538C35.3803 111.098 36.6401 108.298 36.6401 104.158C36.6401 100.018 35.3803 95.7678 32.8503 91.4178C30.3303 87.0578 27.2601 83.8378 23.6501 81.7578C20.4101 79.8778 17.6102 79.4278 15.2402 80.3978L27.7102 74.1578L27.9802 74.3178L33.1902 71.7178L33.2202 71.6978L36.5903 70.0078H36.6003C38.6603 69.6478 41.0001 70.2278 43.6501 71.7578C47.2601 73.8378 50.3303 77.0578 52.8503 81.4178C55.3803 85.7678 56.6401 90.0178 56.6401 94.1578Z" stroke="currentColor" stroke-linejoin="round"/>
    <path d="M47.9805 48.5078V64.3178L36.6006 70.0078H36.5906L33.2205 71.6978L33.1904 71.7178L27.9805 74.3178V33.6978L39.1304 52.9278L39.3206 52.8378V52.8278L47.9805 48.5078Z" stroke="currentColor" stroke-linejoin="round"/>
    <path d="M65.3003 39.5377L59.1301 42.9277L47.9802 48.5077L39.3203 52.8277L45.3003 49.5377L47.9802 48.1977L58.9902 42.6877L65.3003 39.5377Z" stroke="currentColor" stroke-linejoin="round"/>
    <path d="M65.3005 39.5377L58.9905 42.6877L47.9805 48.1977L45.3005 49.5377L39.3206 39.2177L30.3306 23.7177L24.2605 13.2477L23.6504 12.1877L43.6504 2.18774L65.3005 39.5377Z" stroke="currentColor" stroke-linejoin="round"/>
    <path d="M19.3206 29.3577L8.06055 34.9877" stroke="currentColor" stroke-linejoin="round"/>
    <path d="M52.1204 102.888L51.9902 102.958" stroke="currentColor" stroke-linejoin="round"/>
</svg>