<svg class="pr-icon-iconoir" xmlns="http://www.w3.org/2000/svg" width="24" height="24" viewBox="0 0 24 24">
    <path d="M22 3.6V11H2V3.6C2 3.26863 2.26863 3 2.6 3H21.4C21.7314 3 22 3.26863 22 3.6Z"/>
    <path d="M18 7H19"/>
    <path d="M2 11L2.78969 13.5844C3.04668 14.4255 3.82294 15 4.70239 15H6"/>
    <path d="M22 11L21.2103 13.5844C20.9533 14.4255 20.1771 15 19.2976 15H18"/>
    <path d="M9.5 14.5C9.5 14.5 9.5 21.5 6 21.5"/>
    <path d="M14.5 14.5C14.5 14.5 14.5 21.5 18 21.5"/>
    <path d="M12 14.5V21.5"/>
</svg>
