<svg class="pr-icon-iconoir" xmlns="http://www.w3.org/2000/svg" width="24" height="24" viewBox="0 0 24 24">
    <path d="M4 20.01L4.01 19.9989"/>
    <path d="M4 16.01L4.01 15.9989"/>
    <path d="M4 8.01L4.01 7.99889"/>
    <path d="M4 4.01L4.01 3.99889"/>
    <path d="M8 4.01L8.01 3.99889"/>
    <path d="M16 4.01L16.01 3.99889"/>
    <path d="M20 4.01L20.01 3.99889"/>
    <path d="M20 8.01L20.01 7.99889"/>
    <path d="M8 20.01L8.01 19.9989"/>
    <path d="M16 20.01L16.01 19.9989"/>
    <path d="M20 20.01L20.01 19.9989"/>
    <path d="M20 16.01L20.01 15.9989"/>
    <path d="M4 12H12M20 12H12M12 12V4M12 12V20"/>
</svg>
