<svg xmlns="http://www.w3.org/2000/svg" width="24" height="24" viewBox="0 0 448 512"><path class="pr-icon-duotone-secondary" d="M0 32l448 0 0 448L0 480 0 32zm48 72a24 24 0 1 0 48 0 24 24 0 1 0 -48 0zm0 304a24 24 0 1 0 48 0 24 24 0 1 0 -48 0zM352 104a24 24 0 1 0 48 0 24 24 0 1 0 -48 0zm0 304a24 24 0 1 0 48 0 24 24 0 1 0 -48 0z"/><path class="pr-icon-duotone-primary" d="M72 128a24 24 0 1 0 0-48 24 24 0 1 0 0 48zm304 0a24 24 0 1 0 0-48 24 24 0 1 0 0 48zM96 408a24 24 0 1 0 -48 0 24 24 0 1 0 48 0zm280 24a24 24 0 1 0 0-48 24 24 0 1 0 0 48z"/></svg>