<svg xmlns="http://www.w3.org/2000/svg" width="24" height="24" viewBox="0 0 448 512">
    <path class="pr-icon-duotone-secondary" d="M0 192l448 0 0 320L0 512 0 192zM110.1 344L144 377.9l17-17 39-39L200 424l0 24 48 0 0-24 0-102.1 39 39 17 17L337.9 344l-17-17-80-80-17-17-17 17-80 80-17 17z"/>
    <path class="pr-icon-duotone-primary" d="M160 0L96 0l0 64L0 64 0 192l448 0 0-128-96 0 0-64L288 0l0 64L160 64l0-64zm88 424l0-102.1 39 39 17 17L337.9 344l-17-17-80-80-17-17-17 17-80 80-17 17L144 377.9l17-17 39-39L200 424l0 24 48 0 0-24z"/>
</svg>