<svg xmlns="http://www.w3.org/2000/svg" width="24" height="24" viewBox="0 0 512 512"><path class="pr-icon-duotone-secondary" d="M0 309C0 421.1 90.9 512 203 512c72.4 0 139.4-38.6 175.7-101.3L496 208l-59.9 4.6L512 0 299.4 75.9 304 16 101.3 133.4C38.6 169.7 0 236.6 0 309zm64-20.6l88.4-12.7 39.6-79 39.6 79L320 288.5 256 350l15.1 86.8-79.1-41-79.1 41L128 350 64 288.5z"/><path class="pr-icon-duotone-primary" d="M192 196.8l39.6 79L320 288.5 256 350l15.1 86.8-79.1-41-79.1 41L128 350 64 288.5l88.4-12.7 39.6-79z"/></svg>