<svg xmlns="http://www.w3.org/2000/svg" width="24" height="24" viewBox="0 0 640 512"><path class="pr-icon-duotone-secondary" d="M64 146.4L64 480l423.4 0-81.2-64L224 416l0-128 19.7 0L176 234.7l0 53.3-64 0 0-64 50.5 0L64 146.4zM70.5 32L224 151.1 224 96l192 0 0 128-98.1 0C403.9 290.8 490 357.6 576 424.4L576 32 70.5 32zM112 352l64 0 0 64-64 0 0-64zM464 96l64 0 0 64-64 0 0-64zm0 128l64 0 0 64-64 0 0-64z"/><path class="pr-icon-duotone-primary" d="M29.4 .1l19 14.7L620.9 459.3l19 14.7-29.4 37.9-19-14.7L19 52.7 0 38 29.4 .1z"/></svg>