<svg xmlns="http://www.w3.org/2000/svg" width="24" height="24" viewBox="0 0 512 512">
    <path class="pr-icon-duotone-secondary" d="M320 80c0-40 40-80 40-80s40 32 40 80c0 32-8 40-8 40s8-8 40-8c48 0 80 40 80 40s-40 40-80 40s-55.3-7.3-80-32s-32-40-32-80z"/>
    <path class="pr-icon-duotone-primary" d="M248 208a56 56 0 1 0 0-112 56 56 0 1 0 0 112zm-80-32A56 56 0 1 0 56 176a56 56 0 1 0 112 0zM88 368a56 56 0 1 0 0-112 56 56 0 1 0 0 112zM56 512a56 56 0 1 0 0-112 56 56 0 1 0 0 112zm144-32a56 56 0 1 0 0-112 56 56 0 1 0 0 112zm192-80a56 56 0 1 0 -112 0 56 56 0 1 0 112 0zM224 344a56 56 0 1 0 0-112 56 56 0 1 0 0 112zm192-80a56 56 0 1 0 -112 0 56 56 0 1 0 112 0z"/>
</svg>