<svg xmlns="http://www.w3.org/2000/svg" width="24" height="24" viewBox="0 0 576 512"><path class="pr-icon-duotone-secondary" d="M0 32L0 480l576 0 0-448L0 32zM112 160l48 0 0 24 0 48 64 0 0-48 0-24 48 0 0 24 0 72 0 72 0 24-48 0 0-24 0-48-64 0 0 48 0 24-48 0 0-24 0-72 0-72 0-24zm192 0l24 0 56 0c53 0 96 43 96 96s-43 96-96 96l-56 0-24 0 0-24 0-144 0-24zm48 48l0 96 32 0c26.5 0 48-21.5 48-48s-21.5-48-48-48l-32 0z"/><path class="pr-icon-duotone-primary" d="M160 184l0-24-48 0 0 24 0 72 0 72 0 24 48 0 0-24 0-48 64 0 0 48 0 24 48 0 0-24 0-72 0-72 0-24-48 0 0 24 0 48-64 0 0-48zm168-24l-24 0 0 24 0 144 0 24 24 0 56 0c53 0 96-43 96-96s-43-96-96-96l-56 0zm56 144l-32 0 0-96 32 0c26.5 0 48 21.5 48 48s-21.5 48-48 48z"/></svg>