<svg xmlns="http://www.w3.org/2000/svg" width="24" height="24" viewBox="0 0 512 512"><path class="pr-icon-duotone-secondary" d="M0 0L512 0l0 416-208 0L160 512l0-96L0 416 0 0zM96 192l0 48 24 0 144 0 24 0 0-48-24 0-144 0-24 0zm0 80l0 48 24 0 48 0 24 0 0-48-24 0-48 0-24 0zm128 0l0 48 24 0 144 0 24 0 0-48-24 0-144 0-24 0zm96-80l0 48 24 0 48 0 24 0 0-48-24 0-48 0-24 0z"/><path class="pr-icon-duotone-primary" d="M96 192l24 0 144 0 24 0 0 48-24 0-144 0-24 0 0-48zm224 0l24 0 48 0 24 0 0 48-24 0-48 0-24 0 0-48zM96 272l24 0 48 0 24 0 0 48-24 0-48 0-24 0 0-48zm128 0l24 0 144 0 24 0 0 48-24 0-144 0-24 0 0-48z"/></svg>