<svg xmlns="http://www.w3.org/2000/svg" width="24" height="24" viewBox="0 0 448 512"><path class="pr-icon-duotone-secondary" d="M0 192a48 48 0 1 0 96 0A48 48 0 1 0 0 192zM96 80a48 48 0 1 0 96 0A48 48 0 1 0 96 80zm160 0a48 48 0 1 0 96 0 48 48 0 1 0 -96 0zm96 112a48 48 0 1 0 96 0 48 48 0 1 0 -96 0z"/><path class="pr-icon-duotone-primary" d="M176 160L107.7 283C64.2 293.8 32 333.2 32 380c0 55.2 44.8 100 100 100c24.8 0 47.5-9 65-24l54 0c17.5 15 40.2 24 65 24c55.2 0 100-44.8 100-100c0-46.8-32.2-86.2-75.7-97L272 160l-96 0z"/></svg>