<svg xmlns="http://www.w3.org/2000/svg" width="24" height="24" viewBox="0 0 640 512">
    <path class="pr-icon-duotone-secondary" d="M32 480l256 0 0-64 0-32 64 0 0 32 0 64 32 0 0-192 32 0 0-16c0-58.1 44.2-105.8 100.7-111.4L480 32 352 32l0 64 0 32-64 0 0-32 0-64L160 32 32 480zM288 192l64 0 0 32 0 64 0 32-64 0 0-32 0-64 0-32z"/>
    <path class="pr-icon-duotone-primary" d="M496 272l0 48 64 0 0-48c0-17.7-14.3-32-32-32s-32 14.3-32 32zm-48 48l0-48c0-44.2 35.8-80 80-80s80 35.8 80 80l0 48 32 0 0 192-224 0 0-192 32 0z"/>
</svg>