<svg xmlns="http://www.w3.org/2000/svg" viewBox="0 0 448 512"><path class="pr-icon-duotone-secondary" d="M0 32l448 0 0 448L0 480 0 32zM64 160l0 64 32 0 16 0 0 160 0 32 64 0 0-32 0-160 16 0 32 0 0-64-32 0-16 0 0-32 0-32-64 0 0 32 0 32-16 0-32 0zM224 288l0 64 32 0 16 0 0 32 0 32 64 0 0-32 0-32 16 0 32 0 0-64-32 0-16 0 0-160 0-32-64 0 0 32 0 160-16 0-32 0z"/><path class="pr-icon-duotone-primary" d="M96 160l-32 0 0 64 32 0 96 0 32 0 0-64-32 0-96 0zM256 288l-32 0 0 64 32 0 96 0 32 0 0-64-32 0-96 0z"/></svg>