<svg xmlns="http://www.w3.org/2000/svg" width="24" height="24" viewBox="0 0 640 512"><path class="pr-icon-duotone-secondary" d="M0 64l640 0 0 144c-26.5 0-48 21.5-48 48s21.5 48 48 48l0 144L0 448 0 64zm416 64a16 16 0 1 0 32 0 16 16 0 1 0 -32 0zm0 64a16 16 0 1 0 32 0 16 16 0 1 0 -32 0zm0 64a16 16 0 1 0 32 0 16 16 0 1 0 -32 0zm0 64a16 16 0 1 0 32 0 16 16 0 1 0 -32 0zm0 64a16 16 0 1 0 32 0 16 16 0 1 0 -32 0z"/><path class="pr-icon-duotone-primary" d="M416 128a16 16 0 1 1 32 0 16 16 0 1 1 -32 0zm0 64a16 16 0 1 1 32 0 16 16 0 1 1 -32 0zm16 48a16 16 0 1 1 0 32 16 16 0 1 1 0-32zm-16 80a16 16 0 1 1 32 0 16 16 0 1 1 -32 0zm16 48a16 16 0 1 1 0 32 16 16 0 1 1 0-32z"/></svg>