<svg xmlns="http://www.w3.org/2000/svg" width="24" height="24" viewBox="0 0 576 512"><path class="pr-icon-duotone-secondary" d="M32 256l0 24 0 136 48 0 0-136 0-24-48 0zm80 0l0 24 0 136 48 0 0-136 0-24-48 0zm80 0l0 24 0 136 48 0 0-136 0-24-48 0zm80 0l0 24 0 136 48 0 0-136 0-24-48 0zm80 0l0 24 0 136 48 0 0-136 0-24-48 0z"/><path class="pr-icon-duotone-primary" d="M0 160c0-35.3 28.7-64 64-64l224 0c37.7 0 40-33.2 40-64c57.4 0 120 31.6 120 96c0 53-43 96-96 96L0 224l0-64zM32 416l512 0 32 0 0 64-32 0L32 480 0 480l0-64 32 0z"/></svg>