<svg xmlns="http://www.w3.org/2000/svg" viewBox="0 0 320 512"><!--! Font Awesome Pro 6.7.2 by @fontawesome - https://fontawesome.com License - https://fontawesome.com/license (Commercial License) Copyright 2024 Fonticons, Inc. --><defs><style>.fa-secondary{opacity:.4}</style></defs><path class="fa-secondary" d="M16 57.1l0 368.7 12.3 13.5L134.5 309.9l4.8-5.9 7.6 0L304 304l-.1-18.6L29.4 50.9 16 57.1z"/><path class="fa-primary" d="M152.9 320L304 320l16 0 0-16-.1-26L32 32 0 46.9 0 432l18.1 19.8 10.9 12 10.3-12.5L139.4 329.1l69.3 146.3 14.5-6.8L152.9 320zm-18.3-10.1L28.3 439.3 16 425.8 16 57.1l13.4-6.3L303.9 285.4 304 304l-157.1 0-7.6 0-4.8 5.9z"/></svg>