<svg xmlns="http://www.w3.org/2000/svg" viewBox="0 0 448 512"><!--! Font Awesome Pro 6.7.2 by @fontawesome - https://fontawesome.com License - https://fontawesome.com/license (Commercial License) Copyright 2024 Fonticons, Inc. --><defs><style>.fa-secondary{opacity:.4}</style></defs><path class="fa-secondary" d="M16 48l416 0 0 416L16 464 16 48zm48 64a16 16 0 1 0 32 0 16 16 0 1 0 -32 0zm0 288a16 16 0 1 0 32 0 16 16 0 1 0 -32 0zm72-208l0 6.5 16 0 0-6.5c0-22.1 17.9-40 40-40l56.2 0c26.4 0 47.8 21.4 47.8 47.8c0 16.1-8.1 31.1-21.5 39.9l-54.9 36.2-3.6 2.4 0 4.3 0 29.5 0 8 16 0 0-8 0-25.1L283.3 253c17.9-11.8 28.7-31.8 28.7-53.3c0-35.2-28.6-63.8-63.8-63.8L192 136c-30.9 0-56 25.1-56 56zm72 152l0 32 32 0 0-32-32 0zM352 112a16 16 0 1 0 32 0 16 16 0 1 0 -32 0zm0 288a16 16 0 1 0 32 0 16 16 0 1 0 -32 0z"/><path class="fa-primary" d="M16 48l0 416 416 0 0-416L16 48zM0 32l16 0 416 0 16 0 0 16 0 416 0 16-16 0L16 480 0 480l0-16L0 48 0 32zM80 96a16 16 0 1 1 0 32 16 16 0 1 1 0-32zm272 16a16 16 0 1 1 32 0 16 16 0 1 1 -32 0zM80 384a16 16 0 1 1 0 32 16 16 0 1 1 0-32zm272 16a16 16 0 1 1 32 0 16 16 0 1 1 -32 0zM136 192c0-30.9 25.1-56 56-56l56.2 0c35.2 0 63.8 28.6 63.8 63.8c0 21.4-10.8 41.5-28.7 53.3L232 286.9l0 25.1 0 8-16 0 0-8 0-29.5 0-4.3 3.6-2.4 54.9-36.2c13.4-8.8 21.5-23.8 21.5-39.9c0-26.4-21.4-47.8-47.8-47.8L192 152c-22.1 0-40 17.9-40 40l0 6.5-16 0 0-6.5zm72 152l32 0 0 32-32 0 0-32z"/></svg>