<svg xmlns="http://www.w3.org/2000/svg" viewBox="0 0 640 512"><!--! Font Awesome Pro 6.7.2 by @fontawesome - https://fontawesome.com License - https://fontawesome.com/license (Commercial License) Copyright 2024 Fonticons, Inc. --><defs><style>.fa-secondary{opacity:.4}</style></defs><path class="fa-secondary" d="M26.8 154.6L69.1 48.8 306.3 83.4 223.2 206.8 26.8 154.6zM64 181l160.6 42.7 5.5 1.5 3.2-4.7L320 91.7l86.7 128.8 3.2 4.7 5.5-1.5L576 181l0 30.5-16 4.6 0 187.4-232 58L328 200l0-8-16 0 0 8 0 261.5-232-58 0-187.4-16-4.6L64 181zM333.7 83.4L570.9 48.8l42.3 105.8L416.8 206.8l-83-123.4z"/><path class="fa-primary" d="M581.1 31.2l2.3 5.9 48 120 3.4 8.4-8.7 2.3-210.7 56-5.5 1.5-3.2-4.7L320 91.7 233.3 220.5l-3.2 4.7-5.5-1.5-210.7-56-8.7-2.3L8.6 157l48-120 2.3-5.9 6.2 .9L320 69.2 574.8 32.1l6.2-.9zM570.9 48.8L333.7 83.4l83 123.4 196.4-52.2L570.9 48.8zM26.8 154.6l196.4 52.2L306.3 83.4 69.1 48.8 26.8 154.6zM560 216.1l16-4.6L576 416 320 480 64 416l0-204.4 16 4.6 0 187.4 232 58L312 200l0-8 16 0 0 8 0 261.5 232-58 0-187.4z"/></svg>