<svg xmlns="http://www.w3.org/2000/svg" viewBox="0 0 448 512"><!--! Font Awesome Pro 6.7.2 by @fontawesome - https://fontawesome.com License - https://fontawesome.com/license (Commercial License) Copyright 2024 Fonticons, Inc. --><defs><style>.fa-secondary{opacity:.4}</style></defs><path class="fa-secondary" d="M16 192l0 272 416 0 0-272L16 192zm1.5-16L216 176l0-128L74.4 48 17.5 176zM232 48l0 128 198.5 0L373.6 48 232 48z"/><path class="fa-primary" d="M74.4 48L216 48l0 128L17.5 176 74.4 48zM232 176l0-128 141.6 0 56.9 128L232 176zm200 16l0 272L16 464l0-272 416 0zM384 32L64 32 0 176 0 464l0 16 16 0 416 0 16 0 0-16 0-288L384 32z"/></svg>