<svg xmlns="http://www.w3.org/2000/svg" viewBox="0 0 576 512"><!--! Font Awesome Pro 6.7.2 by @fontawesome - https://fontawesome.com License - https://fontawesome.com/license (Commercial License) Copyright 2024 Fonticons, Inc. --><defs><style>.fa-secondary{opacity:.4}</style></defs><path class="fa-secondary" d="M78.5 32L312 32l0 148.7-66.3-66.3-5.7-5.7L228.7 120l5.7 5.7 80 80 5.7 5.7 5.7-5.7 80-80 5.7-5.7L400 108.7l-5.7 5.7L328 180.7 328 32l229.6 0L482.1 272l-341 0L78.5 32zM208 464a32 32 0 1 1 -64 0 32 32 0 1 1 64 0zm288 0a32 32 0 1 1 -64 0 32 32 0 1 1 64 0z"/><path class="fa-primary" d="M0 0L8 0 64 0l6.2 0 1.6 6 69.4 266 341 0L557.6 32l16.8 0L495.6 282.4l-1.8 5.6-5.9 0-342.7 0 20.9 80L496 368l8 0 0 16-8 0-336 0-6.2 0-1.6-6L57.8 16 8 16 0 16 0 0zM208 464a32 32 0 1 0 -64 0 32 32 0 1 0 64 0zm-80 0a48 48 0 1 1 96 0 48 48 0 1 1 -96 0zm336 32a32 32 0 1 0 0-64 32 32 0 1 0 0 64zm0-80a48 48 0 1 1 0 96 48 48 0 1 1 0-96zM328 8l0 172.7 66.3-66.3 5.7-5.7L411.3 120l-5.7 5.7-80 80-5.7 5.7-5.7-5.7-80-80-5.7-5.7L240 108.7l5.7 5.7L312 180.7 312 8l0-8 16 0 0 8z"/></svg>