<svg xmlns="http://www.w3.org/2000/svg" viewBox="0 0 640 512"><!--! Font Awesome Pro 6.7.2 by @fontawesome - https://fontawesome.com License - https://fontawesome.com/license (Commercial License) Copyright 2024 Fonticons, Inc. --><defs><style>.fa-secondary{opacity:.4}</style></defs><path class="fa-secondary" d="M21.5 496L59.9 368l200.2 0 38.4 128-277 0zM240 224A80 80 0 1 1 80 224a80 80 0 1 1 160 0zM176 16l448 0 0 384-80 0 0-72 0-8-8 0-144 0-8 0 0 8 0 72-64.2 0c-8-26.7-16-53.3-24-80l-51.1 0c26.6-23.5 43.3-57.8 43.3-96c0-65.3-48.9-119.1-112-127l0-81z"/><path class="fa-primary" d="M624 16L176 16l0 81c-5.2-.7-10.6-1-16-1l0-80 0-16 16 0L624 0l16 0 0 16 0 384 0 16-16 0-80 0-8 0-144 0-8 0-59.4 0-4.8-16 64.2 0 0-72 0-8 8 0 144 0 8 0 0 8 0 72 80 0 0-384zM528 400l0-64-128 0 0 64 128 0zM240 224A80 80 0 1 0 80 224a80 80 0 1 0 160 0zM64 224a96 96 0 1 1 192 0A96 96 0 1 1 64 224zM21.5 496l277 0L260.1 368 59.9 368 21.5 496zM48 352l224 0 43.2 144 4.8 16-16.7 0L16.7 512 0 512l4.8-16L48 352z"/></svg>