<svg xmlns="http://www.w3.org/2000/svg" viewBox="0 0 512 512"><!--! Font Awesome Pro 6.7.2 by @fontawesome - https://fontawesome.com License - https://fontawesome.com/license (Commercial License) Copyright 2024 Fonticons, Inc. --><defs><style>.fa-secondary{opacity:.4}</style></defs><path class="fa-secondary" d="M16 356.7c25.6-25.6 51.1-51.1 76.7-76.7L104 291.3l5.7-5.7L208 187.3l74.3 74.3 5.7 5.7 5.7-5.7L331.3 224l2.3 2.3c11.4 11.4 22.9 22.9 34.3 34.3L356.7 272l5.7 5.7L452.7 368 360 368l-8 0 0 16 8 0 112 0 8 0 0 80L16 464l0-107.3z"/><path class="fa-primary" d="M16 32l0 8 0 424 488 0 8 0 0 16-8 0L8 480l-8 0 0-8L0 40l0-8 16 0zM352 64l8 0 112 0 8 0 0 8 0 112 0 8-16 0 0-8 0-92.7L293.7 261.7l-5.7 5.7-5.7-5.7L208 187.3l-98.3 98.3-5.7 5.7L92.7 280l5.7-5.7 104-104 5.7-5.7 5.7 5.7L288 244.7 452.7 80 360 80l-8 0 0-16zm8 320l-8 0 0-16 8 0 92.7 0-90.3-90.3-5.7-5.7L368 260.7l5.7 5.7L464 356.7l0-92.7 0-8 16 0 0 8 0 112 0 8-8 0-112 0z"/></svg>