<svg xmlns="http://www.w3.org/2000/svg" viewBox="0 0 384 512"><!--! Font Awesome Pro 6.7.2 by @fontawesome - https://fontawesome.com License - https://fontawesome.com/license (Commercial License) Copyright 2024 Fonticons, Inc. --><defs><style>.fa-secondary{opacity:.4}</style></defs><path class="fa-secondary" d="M112 192l160 0c0 13.4 0 26.8 0 40.2l0-8.2-16 0 0 8 0 264-32 0 0-120 0-8-8 0-48 0-8 0 0 8 0 120-32 0 0-264 0-8-16 0c0 1.6 0 3.1 0 4.7l0-36.7zM240 64a48 48 0 1 1 -96 0 48 48 0 1 1 96 0z"/><path class="fa-primary" d="M192 16a48 48 0 1 1 0 96 48 48 0 1 1 0-96zm0 112A64 64 0 1 0 192 0a64 64 0 1 0 0 128zm-87.3 64l4.2 0 166.2 0 4.2 0 2.4-3.5 65.7-96 4.5-6.6-13.2-9-4.5 6.6L270.9 176l-157.7 0L49.8 83.5l-4.5-6.6-13.2 9 4.5 6.6 65.7 96 2.4 3.5zM128 232l0-8-16 0 0 8 0 272 0 8 8 0 48 0 8 0 0-8 0-120 32 0 0 120 0 8 8 0 48 0 8 0 0-8 0-272 0-8-16 0 0 8 0 264-32 0 0-120 0-8-8 0-48 0-8 0 0 8 0 120-32 0 0-264z"/></svg>