<svg xmlns="http://www.w3.org/2000/svg" viewBox="0 0 320 512"><!--! Font Awesome Pro 6.7.2 by @fontawesome - https://fontawesome.com License - https://fontawesome.com/license (Commercial License) Copyright 2024 Fonticons, Inc. --><defs><style>.fa-secondary{opacity:.4}</style></defs><path class="fa-secondary" d="M80 224.1L105.7 176l108.6 0L240 224.1c0 22.1 0 44.2 0 66.3l0-2.4 0-8-16 0 0 8 0 208-32 0 0-120 0-8-8 0-48 0-8 0 0 8 0 120-32 0 0-208 0-8-16 0 0 8c0 .8 0 1.6 0 2.4l0-66.2zM208 64a48 48 0 1 1 -96 0 48 48 0 1 1 96 0z"/><path class="fa-primary" d="M160 112a48 48 0 1 0 0-96 48 48 0 1 0 0 96zM160 0a64 64 0 1 1 0 128A64 64 0 1 1 160 0zM96.1 160l4.8 0 118.2 0 4.8 0 2.3 4.2 76.9 144 3.8 7.1-14.1 7.5-3.8-7.1L214.3 176l-108.6 0L31.1 315.8l-3.8 7.1-14.1-7.5 3.8-7.1 76.9-144 2.3-4.2zM96 288l0 208 32 0 0-120 0-8 8 0 48 0 8 0 0 8 0 120 32 0 0-208 0-8 16 0 0 8 0 216 0 8-8 0-48 0-8 0 0-8 0-120-32 0 0 120 0 8-8 0-48 0-8 0 0-8 0-216 0-8 16 0 0 8z"/></svg>