<svg xmlns="http://www.w3.org/2000/svg" viewBox="0 0 640 512"><!--! Font Awesome Pro 6.7.2 by @fontawesome - https://fontawesome.com License - https://fontawesome.com/license (Commercial License) Copyright 2024 Fonticons, Inc. --><defs><style>.fa-secondary{opacity:.4}</style></defs><path class="fa-secondary" d="M224 160l0 192 192 0 0-88 0-16 0-88-192 0z"/><path class="fa-primary" d="M416 160l0 88 0 16 0 88-192 0 0-192 192 0zm16 88l0-88 0-16-16 0-192 0-16 0 0 16 0 88-8 0L8 248l-8 0 0 16 8 0 192 0 8 0 0 88 0 16 16 0 192 0 16 0 0-16 0-88 200 0 8 0 0-16-8 0-200 0z"/></svg>