<svg xmlns="http://www.w3.org/2000/svg" viewBox="0 0 640 512"><!--! Font Awesome Pro 6.7.2 by @fontawesome - https://fontawesome.com License - https://fontawesome.com/license (Commercial License) Copyright 2024 Fonticons, Inc. --><defs><style>.fa-secondary{opacity:.4}</style></defs><path class="fa-secondary" d="M16 240C16 136.9 120.2 48 256 48c114.3 0 206.2 63 232.4 144.4c-2.8-.2-5.6-.4-8.4-.4c-53 0-96 43-96 96c0 12.5 2.4 24.4 6.7 35.4l-16.7 29.2c-29.5 3.1-57.2 19.8-73.2 47.5c-5.6 9.6-9.3 19.8-11.2 30.1c-11 1.2-22.2 1.9-33.7 1.9c-30 0-58.6-4.4-85-12.4l-4.6-1.4-4.6 1.4L42.3 455.4l29.6-79 3.6-9.6-7.3-7.3C35.2 326.3 16 284.7 16 240z"/><path class="fa-primary" d="M75.5 366.8l-3.6 9.6-29.6 79 119.5-35.8 4.6-1.4 4.6 1.4c26.4 8 55 12.4 85 12.4c11.5 0 22.7-.6 33.7-1.9c-1 5.4-1.6 10.8-1.7 16.2c-10.5 1.1-21.2 1.6-32 1.6c-31.5 0-61.7-4.6-89.6-13.1L35.3 474.2 16 480l7.1-18.8 33.9-90.4C21.3 335.1 0 289.6 0 240C0 125.1 114.6 32 256 32c122.6 0 225.1 70.1 250.2 163.6c-5.7-1.6-11.6-2.7-17.7-3.2C462.2 111 370.3 48 256 48C120.2 48 16 136.9 16 240c0 44.7 19.2 86.3 52.3 119.5l7.3 7.3zM528 288c0-26.5-21.5-48-48-48s-48 21.5-48 48c0 14.6 6.5 27.7 16.8 36.5c0 0 0 0 0 0c4 3.5 8.7 6.3 13.7 8.2c0 0 0 0 0 0c5.4 2.1 11.3 3.3 17.5 3.3c26.5 0 48-21.5 48-48zm-73.8 58.6l-30.7 51.1c13.6 10.6 21.9 26 24 42.3l65 0c2.1-16.3 10.4-31.7 24-42.3l-14.1-23.5c4.8-2.4 9.4-5.1 13.7-8.2l14.1 23.5c29.5-13 64.7-2 81.2 26.6c17.7 30.6 7.2 69.7-23.4 87.4s-69.7 7.2-87.4-23.4c-4.4-7.6-7.1-15.8-8.1-24l-65 0c-1 8.2-3.7 16.4-8.1 24c-17.7 30.6-56.8 41.1-87.4 23.4s-41.1-56.8-23.4-87.4c16.5-28.6 51.7-39.6 81.2-26.6l30.7-51.1C425.6 326.6 416 308.4 416 288c0-35.3 28.7-64 64-64s64 28.7 64 64s-28.7 64-64 64c-9.2 0-17.9-1.9-25.8-5.4zM342.4 424a48 48 0 1 0 83.1 48 48 48 0 1 0 -83.1-48zm275.1 0a48 48 0 1 0 -83.1 48 48 48 0 1 0 83.1-48z"/></svg>