<svg xmlns="http://www.w3.org/2000/svg" viewBox="0 0 512 512"><!--! Font Awesome Pro 6.7.2 by @fontawesome - https://fontawesome.com License - https://fontawesome.com/license (Commercial License) Copyright 2024 Fonticons, Inc. --><defs><style>.fa-secondary{opacity:.4}</style></defs><path class="fa-secondary" d="M16 256a240 240 0 1 0 480 0A240 240 0 1 0 16 256zm116.9 70l13.1-9.2 4.6 6.6C171.4 353.2 206.6 384 256 384l8 0 0 16-8 0c-56.7 0-96.1-35.4-118.6-67.4l-4.6-6.6zm59.5-118a16 16 0 1 1 -32 0 16 16 0 1 1 32 0zM288 368c0-10.4 3.4-20.5 9.6-28.8L326 301.3 336 288l10 13.3 28.4 37.9c6.2 8.3 9.6 18.4 9.6 28.8c0 26.5-21.5 48-48 48s-48-21.5-48-48zm64.4-160a16 16 0 1 1 -32 0 16 16 0 1 1 32 0z"/><path class="fa-primary" d="M256 16a240 240 0 1 1 0 480 240 240 0 1 1 0-480zm0 496A256 256 0 1 0 256 0a256 256 0 1 0 0 512zm80-197.3l25.6 34.1c4.2 5.5 6.4 12.3 6.4 19.2c0 17.7-14.3 32-32 32s-32-14.3-32-32c0-6.9 2.2-13.7 6.4-19.2L336 314.7zm-10-13.3l-28.4 37.9c-6.2 8.3-9.6 18.4-9.6 28.8c0 26.5 21.5 48 48 48s48-21.5 48-48c0-10.4-3.4-20.5-9.6-28.8L346 301.3 336 288l-10 13.3zM176.4 224a16 16 0 1 0 0-32 16 16 0 1 0 0 32zm176-16a16 16 0 1 0 -32 0 16 16 0 1 0 32 0zM150.6 323.4l-4.6-6.6L132.9 326l4.6 6.6c22.4 32 61.9 67.4 118.6 67.4l8 0 0-16-8 0c-49.4 0-84.6-30.8-105.4-60.6z"/></svg>