<svg xmlns="http://www.w3.org/2000/svg" viewBox="0 0 512 512"><!--! Font Awesome Pro 6.7.2 by @fontawesome - https://fontawesome.com License - https://fontawesome.com/license (Commercial License) Copyright 2024 Fonticons, Inc. --><defs><style>.fa-secondary{opacity:.4}</style></defs><path class="fa-secondary" d="M16 256c0 132.5 107.5 240 240 240s240-107.5 240-240c0-35.4-7.7-69.1-21.4-99.3l14.6-6.6c-3.4-7.6-7.2-14.9-11.4-22.1L384 128l0-12.2-3 2.4L308.8 176l67.2 0 8 0 0 16-8 0-80 0-8 0 0-8 0-8 0-3.8 3-2.4L363.2 112 296 112l-8 0 0-16 8 0 80 0 8 0 0-61.8c-7.1-4.1-14.5-7.9-22.1-11.4l-6.6 14.6C325.1 23.7 291.4 16 256 16C123.5 16 16 123.5 16 256zm84.7-11.1l13.9-7.8 3.9 7c10.9 19.3 26.4 27.9 41 27.9s30.2-8.6 41-27.9l3.9-7 13.9 7.8-3.9 7c-13.1 23.4-33.6 36.1-55 36.1s-41.8-12.7-55-36.1l-3.9-7zM304 384a48 48 0 1 1 -96 0 48 48 0 1 1 96 0zM292.7 244.9l13.9-7.8 3.9 7c10.9 19.3 26.4 27.9 41 27.9s30.2-8.6 41-27.9l3.9-7 13.9 7.8-3.9 7c-13.1 23.4-33.6 36.1-55 36.1s-41.8-12.7-55-36.1l-3.9-7z"/><path class="fa-primary" d="M16 256C16 123.5 123.5 16 256 16c35.4 0 69.1 7.7 99.3 21.4l6.6-14.6C329.6 8.2 293.8 0 256 0C114.6 0 0 114.6 0 256S114.6 512 256 512s256-114.6 256-256c0-37.8-8.2-73.6-22.9-105.9l-14.6 6.6C488.3 186.9 496 220.6 496 256c0 132.5-107.5 240-240 240S16 388.5 16 256zM224 384a32 32 0 1 1 64 0 32 32 0 1 1 -64 0zm80 0a48 48 0 1 0 -96 0 48 48 0 1 0 96 0zm47.6-112c-14.6 0-30.2-8.6-41-27.9l-3.9-7-13.9 7.8 3.9 7c13.1 23.4 33.6 36.1 55 36.1s41.8-12.7 55-36.1l3.9-7-13.9-7.8-3.9 7c-10.9 19.3-26.4 27.9-41 27.9zm-233-27.9l-3.9-7-13.9 7.8 3.9 7c13.1 23.4 33.6 36.1 55 36.1s41.8-12.7 55-36.1l3.9-7-13.9-7.8-3.9 7c-10.9 19.3-26.4 27.9-41 27.9s-30.2-8.6-41-27.9zM288 96l0 16 8 0 67.2 0L291 169.8l-3 2.4 0 3.8 0 8 0 8 8 0 80 0 8 0 0-16-8 0-67.2 0L381 118.2l3-2.4 0-3.8 0-8 0-8-8 0-80 0-8 0zM424 0l-8 0 0 16 8 0 67.2 0L419 73.8l-3 2.4 0 3.8 0 8 0 8 8 0 80 0 8 0 0-16-8 0-67.2 0L509 22.2l3-2.4 0-3.8 0-8 0-8-8 0L424 0z"/></svg>