<svg xmlns="http://www.w3.org/2000/svg" viewBox="0 0 576 512"><!--! Font Awesome Pro 6.7.2 by @fontawesome - https://fontawesome.com License - https://fontawesome.com/license (Commercial License) Copyright 2024 Fonticons, Inc. --><defs><style>.fa-secondary{opacity:.4}</style></defs><path class="fa-secondary" d="M48 256C48 123.5 155.5 16 288 16s240 107.5 240 240c0 61.5-23.1 117.5-61.1 160c-2.9 3.3-2.7 8.4 .6 11.3c3.3 2.9 8.3 2.7 11.2-.5c-5.5 6.1-11.2 11.9-17.2 17.5l-13.8-6.9c-18.4-9.2-30.1-28.1-30.1-48.7l-3.5-20.5c1.2 1.5 2.4 3.1 3.5 4.6l12.8-9.6C418 346.6 402 329.7 379 317c-22.9-12.7-52.3-21-91-21s-68.1 8.3-91.1 21c-22.9 12.7-38.9 29.6-51.3 46.2l12.8 9.6c.8-1.1 1.6-2.2 2.5-3.3l-2.5 19.1c0 20.6-11.6 39.4-30.1 48.7l-13.8 6.9c-6-5.6-11.8-11.4-17.3-17.6c3 3.3 8 3.5 11.3 .6c3.3-2.9 3.6-8 .6-11.3C71.1 373.5 48 317.5 48 256zm109.3-84.4l7.2 3.6L230.1 208l-65.7 32.8-7.2 3.6 7.2 14.3 7.2-3.6 80-40 14.3-7.2-14.3-7.2-80-40-7.2-3.6-7.2 14.3zM310.1 208l14.3 7.2 80 40 7.2 3.6 7.2-14.3-7.2-3.6L345.9 208l65.7-32.8 7.2-3.6-7.2-14.3-7.2 3.6-80 40L310.1 208z"/><path class="fa-primary" d="M288 16C155.5 16 48 123.5 48 256c0 61.5 23.1 117.5 61.1 160c2.9 3.3 2.7 8.4-.6 11.3s-8.3 2.7-11.3-.6C56.7 381.4 32 321.6 32 256C32 114.6 146.6 0 288 0S544 114.6 544 256c0 65.6-24.7 125.4-65.2 170.7c-2.9 3.3-8 3.6-11.3 .6s-3.6-8-.6-11.3c38-42.5 61.1-98.5 61.1-160C528 123.5 420.5 16 288 16zM164.4 157.3l7.2 3.6 80 40 14.3 7.2-14.3 7.2-80 40-7.2 3.6-7.2-14.3 7.2-3.6L230.1 208l-65.7-32.8-7.2-3.6 7.2-14.3zm240 3.6l7.2-3.6 7.2 14.3-7.2 3.6L345.9 208l65.7 32.8 7.2 3.6-7.2 14.3-7.2-3.6-80-40L310.1 208l14.3-7.2 80-40zM32 496a16 16 0 1 1 32 0 16 16 0 1 1 -32 0zm496-48a16 16 0 1 1 0 32 16 16 0 1 1 0-32zM304 400a16 16 0 1 1 32 0 16 16 0 1 1 -32 0zm-48 16a16 16 0 1 1 0 32 16 16 0 1 1 0-32zm-51.3-85c-20.3 11.3-34.7 26.4-46.3 41.8l-12.8-9.6C158 346.6 174 329.7 196.9 317c22.9-12.7 52.3-21 91.1-21s68.1 8.3 91 21c22.9 12.7 38.9 29.6 51.4 46.2l-12.8 9.6c-11.6-15.4-26-30.5-46.3-41.8c-20.3-11.3-46.9-19-83.3-19s-63 7.7-83.3 19zM368 360l0-2.9c5.9 4 11.2 8.5 16 13.3l0 18.2c0 33.3 18.8 63.8 48.6 78.7l42.9 21.5 4.4 2.2 0 4.9 0 8 0 8-8 0-368 0-8 0 0-8 0-8 0-4.9 4.4-2.2 42.9-21.5C173.2 452.5 192 422 192 388.7l0-18.2c4.8-4.8 10.1-9.3 16-13.3l0 2.9 0 28.7c0 39.4-22.3 75.4-57.5 93L121.9 496l332.2 0-28.6-14.3c-35.2-17.6-57.5-53.6-57.5-93l0-28.7z"/></svg>