<svg xmlns="http://www.w3.org/2000/svg" viewBox="0 0 384 512"><!--! Font Awesome Pro 6.7.2 by @fontawesome - https://fontawesome.com License - https://fontawesome.com/license (Commercial License) Copyright 2024 Fonticons, Inc. --><defs><style>.fa-secondary{opacity:.4}</style></defs><path class="fa-secondary" d="M16 16l0 480 352 0 0-320-152 0-8 0 0-8 0-152L16 16zM76.7 320l5.7-5.7 56-56 5.7-5.7L155.3 264l-5.7 5.7L99.3 320l50.3 50.3 5.7 5.7L144 387.3l-5.7-5.7-56-56L76.7 320zm152-56L240 252.7l5.7 5.7 56 56 5.7 5.7-5.7 5.7-56 56-5.7 5.7L228.7 376l5.7-5.7L284.7 320l-50.3-50.3-5.7-5.7z"/><path class="fa-primary" d="M16 496L16 16l192 0 0 152 0 8 8 0 152 0 0 320L16 496zM224 22.6L361.4 160 224 160l0-137.4zM224 0L16 0 0 0 0 16 0 496l0 16 16 0 352 0 16 0 0-16 0-336L224 0zM149.7 269.7l5.7-5.7L144 252.7l-5.7 5.7-56 56L76.7 320l5.7 5.7 56 56 5.7 5.7L155.3 376l-5.7-5.7L99.3 320l50.3-50.3zm96-11.3l-5.7-5.7L228.7 264l5.7 5.7L284.7 320l-50.3 50.3-5.7 5.7L240 387.3l5.7-5.7 56-56 5.7-5.7-5.7-5.7-56-56z"/></svg>