<svg xmlns="http://www.w3.org/2000/svg" viewBox="0 0 576 512"><!--! Font Awesome Pro 6.7.2 by @fontawesome - https://fontawesome.com License - https://fontawesome.com/license (Commercial License) Copyright 2024 Fonticons, Inc. --><defs><style>.fa-secondary{opacity:.4}</style></defs><path class="fa-secondary" d="M16 16l192 0 0 152 0 8 8 0 152 0 0 28c-65.6 25.6-112 89.4-112 164c0 50.4 21.2 95.9 55.2 128L16 496 16 16z"/><path class="fa-primary" d="M16 496l295.2 0c6.1 5.8 12.7 11.1 19.6 16L16 512 0 512l0-16L0 16 0 0 16 0 224 0 384 160l0 38.6c-5.4 1.5-10.8 3.3-16 5.4l0-28-152 0-8 0 0-8 0-152L16 16l0 480zM361.4 160L224 22.6 224 160l137.4 0zM560 368a128 128 0 1 0 -256 0 128 128 0 1 0 256 0zm-272 0a144 144 0 1 1 288 0 144 144 0 1 1 -288 0zm156-76l0 24-24 0 0-24 24 0zM408 456l0-16 8 0 8 0 0-80-8 0-8 0 0-16 8 0 16 0 8 0 0 8 0 88 8 0 8 0 0 16-8 0-8 0-16 0-8 0-8 0z"/></svg>