<svg xmlns="http://www.w3.org/2000/svg" viewBox="0 0 640 512"><!--! Font Awesome Pro 6.7.2 by @fontawesome - https://fontawesome.com License - https://fontawesome.com/license (Commercial License) Copyright 2024 Fonticons, Inc. --><defs><style>.fa-secondary{opacity:.4}</style></defs><path class="fa-secondary" d="M48 133l0 91 115.3 0C124.8 193.7 86.4 163.3 48 133zM84.5 464l143 0L267 305.9c-27.8-22-55.7-43.9-83.5-65.9l-43 0-56 224zM213.3 80c20.3 16 40.5 32 60.8 48L536 128l8 0 0 16-8 0-241.7 0c33.8 26.7 67.6 53.3 101.3 80l81 0 29.7-29.7 2.3-2.3 3.3 0 80 0 0-112-48 0-16 0L213.3 80z"/><path class="fa-primary" d="M16.2 5L9.9 0 0 12.5l6.3 5L623.8 507l6.3 5 9.9-12.5-6.3-5L16.2 5zM480 240l3.3 0 2.3-2.3L515.3 208l84.7 0 8 0 0-8 0-128 0-8-8 0-56 0 0-24 0-8-16 0 0 8 0 24L193 64l20.3 16L528 80l16 0 48 0 0 112-80 0-3.3 0-2.3 2.3L476.7 224l-81 0 20.3 16 64.1 0zM48 224l0-91L32 120.4 32 232l0 8 8 0 84 0L68 464l-4 16 16.5 0L240 480l40.8-163.2L267 305.9 227.5 464l-143 0 56-224 43 0-20.3-16L48 224zm488-80l8 0 0-16-8 0-261.9 0 20.3 16L536 144z"/></svg>