<svg xmlns="http://www.w3.org/2000/svg" viewBox="0 0 640 512"><!--! Font Awesome Pro 6.7.2 by @fontawesome - https://fontawesome.com License - https://fontawesome.com/license (Commercial License) Copyright 2024 Fonticons, Inc. --><defs><style>.fa-secondary{opacity:.4}</style></defs><path class="fa-secondary" d="M16 80l64 0 0 208c0 2.1 .8 4.2 2.3 5.7l10.8 10.8 5.2 5.2 80 80 8 8 5.7 5.7L203.3 392l-5.7-5.7-8-8-74.8-74.8 37.6-43.8L288 395.3 288 504l0 7.9c-55.2-.8-110.3-1.6-165.6-2.3c3.9-3.8 7.6-7.6 11.3-11.3L16 380.7 16 80zM352 395.3L487.5 259.8l37.6 43.8-74.8 74.8-8 8-5.7 5.7L448 403.3l5.7-5.7 8-8 80-80 5.2-5.2 10.8-10.8c1.5-1.5 2.3-3.5 2.3-5.7l0-208 64 0 0 300.7L506.3 498.3l11.2 11.2c-55.2 .8-110.3 1.6-165.5 2.5l0-8 0-108.7z"/><path class="fa-primary" d="M88 64c4.4 0 8 3.6 8 8l0 212.7 7.5 7.5 42.4-49.4 5.6-6.6 6.1 6.1 144 144 2.3 2.3 0 3.3 0 112 0 8-16 0 0-8 0-108.7L152.5 259.8l-37.6 43.8 74.8 74.8 8 8 5.7 5.7L192 403.3l-5.7-5.7-8-8-80-80-5.2-5.2L82.3 293.7c-1.5-1.5-2.3-3.5-2.3-5.7L80 80 16 80l0 300.7L133.7 498.3l-11.3 11.3-120-120C.8 388.2 0 386.1 0 384L0 72c0-4.4 3.6-8 8-8l80 0zm456 8c0-4.4 3.6-8 8-8l80 0c4.4 0 8 3.6 8 8l0 312c0 2.1-.8 4.2-2.3 5.7l-120 120-11.3-11.3L624 380.7 624 80l-64 0 0 208c0 2.1-.8 4.2-2.3 5.7l-10.8 10.8-5.2 5.2-80 80-8 8-5.7 5.7L436.7 392l5.7-5.7 8-8 74.8-74.8-37.6-43.8L352 395.3 352 504l0 8-16 0 0-8 0-112 0-3.3 2.3-2.3 144-144 6.1-6.1 5.6 6.6 42.4 49.4 7.5-7.5L544 72z"/></svg>