<svg xmlns="http://www.w3.org/2000/svg" viewBox="0 0 640 512"><!--! Font Awesome Pro 6.7.2 by @fontawesome - https://fontawesome.com License - https://fontawesome.com/license (Commercial License) Copyright 2024 Fonticons, Inc. --><defs><style>.fa-secondary{opacity:.4}</style></defs><path class="fa-secondary" d="M16 371.7L16 432l456 0 16.2 0L252.9 253.9c-25.7-19.4-57-29.9-89.1-29.9c-4.1 0-8.2 .2-12.4 .5C75.6 230.8 16 294.3 16 371.7zM152.5 208.4c3.7-.2 7.4-.4 11.2-.4c35.7 0 70.4 11.6 98.8 33.2L303.3 272l170.1 0L433.6 52.5l-274 50.2-7 105.6zm329.3 20.7l22 121.5 1.4 7.9L497 360l12.8 68.4 4.9 3.7 53.3 0c30.9 0 56-25.1 56-56c0-21.7-9-42-23.3-60.6c-14.3-18.6-33.6-35.1-53.2-48.8c-19.6-13.7-39.2-24.5-54-31.9c-4.3-2.2-8.2-4-11.6-5.6z"/><path class="fa-primary" d="M447.9 41.8l-1.4-7.9-7.9 1.4-288 52.8-6.1 1.1-.4 6.2-7.7 114.8C59 223.3 0 290.6 0 371.7L0 440l0 8 8 0 464 0 40 0 56 0c39.8 0 72-32.2 72-72c0-26.3-11-50-26.7-70.4c-15.7-20.4-36.4-37.9-56.8-52.2c-20.4-14.3-40.8-25.5-56-33.1c-7.6-3.8-14-6.7-18.5-8.7c-1.5-.6-2.7-1.2-3.7-1.6L447.9 41.8zm34 187.3c3.4 1.6 7.3 3.4 11.6 5.6c14.8 7.4 34.4 18.2 54 31.9c19.6 13.7 38.9 30.2 53.2 48.8C615 334 624 354.3 624 376c0 30.9-25.1 56-56 56l-53.3 0L324.4 288l151.9 0 11.9 65.4 1.4 7.9 15.7-2.9-1.4-7.9-22-121.5zM473.4 272l-170.1 0-40.7-30.8c-28.4-21.5-63.1-33.2-98.8-33.2c-3.8 0-7.5 .1-11.2 .4l7-105.6 274-50.2L473.4 272zm-322-47.5c0 0 .1 0 .1 0c0 0 0 0 0 0c4-.3 8.1-.5 12.3-.5c32.2 0 63.5 10.5 89.1 29.9L488.2 432 472 432 16 432l0-60.3c0-77.4 59.6-140.9 135.4-147.2z"/></svg>