<svg xmlns="http://www.w3.org/2000/svg" viewBox="0 0 640 512"><!--! Font Awesome Pro 6.7.2 by @fontawesome - https://fontawesome.com License - https://fontawesome.com/license (Commercial License) Copyright 2024 Fonticons, Inc. --><defs><style>.fa-secondary{opacity:.4}</style></defs><path class="fa-secondary" d="M16 322.7c0-34.4 16.2-66.8 43.7-87.5l43.5-32.6 22 22L79.5 280c-28.9 35.1-3.9 88 41.5 88c16.9 0 32.9-8 43.1-21.5l22.3-29.7C207.6 288.6 240.7 272 276 272l10.4 0C349.1 272 400 221.1 400 158.4l0-22.4 0-8 0-56c0-30.9 25.1-56 56-56l21.4 0L528 52.1 528 80l-72 0-8.8 0 .8 8.8 15.8 166.2-23.4 62.3-2.8 7.5 15 5.6 2.8-7.5 24-64 .6-1.7-.2-1.8-4.3-45.1c7.1-13 17-24.1 29-32.6l1.5 15.9c.1 1 .2 2.1 .3 3.1C520.7 183.8 539.4 176 560 176l13.4 0L624 212.1l0 27.9-56 0c-22.1 0-40 17.9-40 40l0 67.2c0 46.8-38 84.8-84.8 84.8l-3.2 0-8 0 0 8 0 56-65.8 0-14.5-57.9-1.5-6.1-6.2 0-80 0-6.2 0-1.5 6.1L241.8 496 176 496l0-56 0-8-8 0-42.7 0C65 432 16 383 16 322.7z"/><path class="fa-primary" d="M482.6 0L480 0 456 0c-39.8 0-72 32.2-72 72l0 56 0 8 0 22.4c0 53.9-43.7 97.6-97.6 97.6L276 256c-40.3 0-78.2 19-102.4 51.2l-22.3 29.7c-7.1 9.5-18.4 15.1-30.3 15.1c-32 0-49.5-37.2-29.2-61.9l50.3-61.1 4.6-5.6-5.1-5.1-32-32-4.9-4.9-5.6 4.2L50.1 222.4C18.6 246.1 0 283.2 0 322.7C0 391.9 56.1 448 125.3 448l34.7 0 0 56 0 8 8 0 80 0 6.2 0 1.5-6.1L270.2 448l67.5 0 14.5 57.9 1.5 6.1 6.2 0 80 0 8 0 0-8 0-56.1c53.4-2.5 96-46.6 96-100.7l0-67.2c0-13.3 10.7-24 24-24l64 0 8 0 0-8 0-40 0-4.1-3.4-2.4-56-40-2.1-1.5-2.6 0-16 0c-20.6 0-39.7 6.5-55.3 17.5l1.5 15.9c.1 1 .2 2.1 .3 3.1C520.7 183.8 539.4 176 560 176l13.4 0L624 212.1l0 27.9-56 0c-22.1 0-40 17.9-40 40l0 67.2c0 46.8-38 84.8-84.8 84.8l-3.2 0-8 0 0 8 0 56-65.8 0-14.5-57.9-1.5-6.1-6.2 0-80 0-6.2 0-1.5 6.1L241.8 496 176 496l0-56 0-8-8 0-42.7 0C65 432 16 383 16 322.7c0-34.4 16.2-66.8 43.7-87.5l43.5-32.6 22 22L79.5 280c-28.9 35.1-3.9 88 41.5 88c16.9 0 32.9-8 43.1-21.5l22.3-29.7C207.6 288.6 240.7 272 276 272l10.4 0C349.1 272 400 221.1 400 158.4l0-22.4 0-8 0-56c0-30.9 25.1-56 56-56l21.4 0L528 52.1 528 80l-72 0-8.8 0 .8 8.8 15.8 166.2-23.4 62.3-2.8 7.5 15 5.6 2.8-7.5 24-64 .6-1.7-.2-1.8L464.8 96 536 96l8 0 0-8 0-40 0-4.1-3.4-2.4-56-40L482.6 0zM288 160l0 64c5.5-.1 10.9-.9 16-2.4l0-69.6 0-8-8 0-88 0 0-27.9L258.6 80 280 80c31.7 0 59 18.4 72 45.1l0-28.6C334.4 76.6 308.7 64 280 64l-24 0-2.6 0-2.1 1.5-56 40-3.4 2.4 0 4.1 0 40 0 8 8 0 88 0z"/></svg>