<svg xmlns="http://www.w3.org/2000/svg" viewBox="0 0 640 512"><!--! Font Awesome Pro 6.7.2 by @fontawesome - https://fontawesome.com License - https://fontawesome.com/license (Commercial License) Copyright 2024 Fonticons, Inc. --><defs><style>.fa-secondary{opacity:.4}</style></defs><path class="fa-secondary" d=""/><path class="fa-primary" d="M331.8 144l-24 0 0 24 24 0 0-24zM129.4 240l17 17 17-17-17-17-17 17zM88 392l-24 0 0 24 24 0 0-24zm112 8l-8 0 0 16 8 0 240 0 8 0 0-16-8 0-240 0zm376-8l-24 0 0 24 24 0 0-24zM481.4 240l17 17 17-17-17-17-17 17z"/></svg>