<svg xmlns="http://www.w3.org/2000/svg" viewBox="0 0 640 512"><!--! Font Awesome Pro 6.7.2 by @fontawesome - https://fontawesome.com License - https://fontawesome.com/license (Commercial License) Copyright 2024 Fonticons, Inc. --><defs><style>.fa-secondary{opacity:.4}</style></defs><path class="fa-secondary" d="M16 400l608 0 0 25.4L585.4 464 54.6 464 16 425.4 16 400zM80 48l480 0 0 304L80 352 80 48z"/><path class="fa-primary" d="M560 48L80 48l0 304-16 0L64 48l0-16 16 0 480 0 16 0 0 16 0 304-16 0 0-304zM54.6 464l530.7 0L624 425.4l0-25.4L16 400l0 25.4L54.6 464zM640 384l0 16 0 32-48 48L48 480 0 432l0-32 0-16 16 0 608 0 16 0z"/></svg>