<svg xmlns="http://www.w3.org/2000/svg" viewBox="0 0 576 512"><!--! Font Awesome Pro 6.7.2 by @fontawesome - https://fontawesome.com License - https://fontawesome.com/license (Commercial License) Copyright 2024 Fonticons, Inc. --><defs><style>.fa-secondary{opacity:.4}</style></defs><path class="fa-secondary" d="M80 112l0 144 88 0 4.3 0 2.4 3.6L214 318.7l58.5-153.5 6.5-17 8.1 16.3L332.9 256l75.1 0 8 0 0 16-8 0-80 0-4.9 0-2.2-4.4L281 187.9l-57.5 151L218 353.4l-8.6-12.9L163.7 272 80 272l0 128 416 0 0-288L80 112z"/><path class="fa-primary" d="M560 48l0 416L16 464 16 48l544 0zM16 32L0 32 0 48 0 464l0 16 16 0 544 0 16 0 0-16 0-416 0-16-16 0L16 32zM279 148.1l-6.5 17L214 318.7l-39.4-59.1-2.4-3.6-4.3 0-88 0 0-144 416 0 0 288L80 400l0-128 83.7 0 45.6 68.4 8.6 12.9 5.5-14.5 57.5-151 39.9 79.7 2.2 4.4 4.9 0 80 0 8 0 0-16-8 0-75.1 0-45.8-91.6L279 148.1zM64 96l0 16 0 288 0 16 16 0 416 0 16 0 0-16 0-288 0-16-16 0L80 96 64 96z"/></svg>