<svg xmlns="http://www.w3.org/2000/svg" viewBox="0 0 576 512"><!--! Font Awesome Pro 6.7.2 by @fontawesome - https://fontawesome.com License - https://fontawesome.com/license (Commercial License) Copyright 2024 Fonticons, Inc. --><defs><style>.fa-secondary{opacity:.4}</style></defs><path class="fa-secondary" d="M16 80l0 352 352 0 0-144 0-16 0-192-32 0L168 80l0 37 54 61.7 2 2.3 0 3 0 96 0 8-8 0-112 0-8 0 0-8 0-96 0-3 2-2.3L152 117l0-37L16 80z"/><path class="fa-primary" d="M152 80l0 37L98 178.7 96 181l0 3 0 96 0 8 8 0 112 0 8 0 0-8 0-96 0-3-2-2.3L168 117l0-37 168 0 32 0 0 192 0 16 0 144L16 432 16 80l136 0zM384 432l0-144 48 0c61.9 0 112-50.1 112-112s-50.1-112-112-112l-48 0-16 0-32 0L16 64 0 64 0 80 0 432l0 16 16 0 352 0 16 0 0-16zm48-160l-48 0 0-192 48 0c53 0 96 43 96 96s-43 96-96 96zM112 187l48-54.9L208 187l0 85-96 0 0-85z"/></svg>