<svg xmlns="http://www.w3.org/2000/svg" viewBox="0 0 512 512"><!--! Font Awesome Pro 6.7.2 by @fontawesome - https://fontawesome.com License - https://fontawesome.com/license (Commercial License) Copyright 2024 Fonticons, Inc. --><defs><style>.fa-secondary{opacity:.4}</style></defs><path class="fa-secondary" d="M16 48l416 0 0 187.3c-22.6 6.5-44.1 15.7-64 27.3L368 120l0-8-8 0-136 0-8 0 0 8 0 96.8c-18.3 3.7-32 19.8-32 39.2c0 22.1 17.9 40 40 40s40-17.9 40-40c0-19.4-13.7-35.5-32-39.2l0-88.8 120 0 0 144.5c-41.6 27.9-75.6 66.3-98.1 111.5L96 384l0-256 56 0 8 0 0-16-8 0-64 0-8 0 0 8 0 272 0 8 8 0 158.6 0c-8.6 20.3-14.9 41.7-18.6 64L16 464 16 48zM496 480a16 16 0 1 1 -32 0 16 16 0 1 1 32 0z"/><path class="fa-primary" d="M432 48L16 48l0 416 212 0c-.9 5.3-1.6 10.6-2.2 16L16 480 0 480l0-16L0 48 0 32l16 0 416 0 16 0 0 16 0 183.1c-5.4 1.2-10.7 2.6-16 4.1L432 48zm-64 72l0 142.5c-5.4 3.2-10.8 6.5-16 10L352 128l-120 0 0 88.8c18.3 3.7 32 19.8 32 39.2c0 22.1-17.9 40-40 40s-40-17.9-40-40c0-19.4 13.7-35.5 32-39.2l0-96.8 0-8 8 0 136 0 8 0 0 8zM246.6 400L88 400l-8 0 0-8 0-272 0-8 8 0 64 0 8 0 0 16-8 0-56 0 0 256 157.9 0c-2.6 5.2-5.1 10.6-7.3 16zM224 232a24 24 0 1 0 0 48 24 24 0 1 0 0-48zm288 40c-132.5 0-240 107.5-240 240l-16 0c0-141.4 114.6-256 256-256l0 16zM464 480a16 16 0 1 0 32 0 16 16 0 1 0 -32 0zm48 0a32 32 0 1 1 -64 0 32 32 0 1 1 64 0zM368 512l-16 0c0-88.4 71.6-160 160-160l0 16c-79.5 0-144 64.5-144 144z"/></svg>