<svg xmlns="http://www.w3.org/2000/svg" viewBox="0 0 448 512"><!--! Font Awesome Pro 6.7.2 by @fontawesome - https://fontawesome.com License - https://fontawesome.com/license (Commercial License) Copyright 2024 Fonticons, Inc. --><defs><style>.fa-secondary{opacity:.4}</style></defs><path class="fa-secondary" d=""/><path class="fa-primary" d="M8 0L0 0 0 8 0 216l0 96 0 8 16 0 0-8 0-88 132.7 0 128 128L130.3 498.3l11.3 11.3L288 363.3 434.3 509.7l11.3-11.3L299.3 352 445.7 205.7l-11.3-11.3L288 340.7 171.3 224l4.7 0c59.2 0 107.6-45.9 111.7-104l.3 0 0-8C288 50.1 237.9 0 176 0L8 0zM176 208L16 208 16 16l160 0c53 0 96 43 96 96s-43 96-96 96z"/></svg>