<svg xmlns="http://www.w3.org/2000/svg" viewBox="0 0 512 512"><!--! Font Awesome Pro 6.7.2 by @fontawesome - https://fontawesome.com License - https://fontawesome.com/license (Commercial License) Copyright 2024 Fonticons, Inc. --><defs><style>.fa-secondary{opacity:.4}</style></defs><path class="fa-secondary" d="M16 256C16 123.5 123.5 16 256 16c63.4 0 121 24.6 164 64.7l-56.6 56.6C335 111.7 297.3 96 256 96c-64.3 0-119.7 37.9-145.2 92.6l14.5 6.7C148.2 146.1 198.1 112 256 112c36.9 0 70.5 13.9 96 36.7l-56.8 56.8C284.4 197 270.8 192 256 192c-35.3 0-64 28.7-64 64s28.7 64 64 64s64-28.7 64-64l80 0c0 57.9-34.1 107.8-83.4 130.7l6.7 14.5C378.1 375.7 416 320.3 416 256l80 0c0 132.5-107.5 240-240 240S16 388.5 16 256zm40 0a40 40 0 1 0 80 0 40 40 0 1 0 -80 0zm54.8 67.4c15.9 34.2 43.6 61.9 77.8 77.8l6.7-14.5c-30.8-14.3-55.7-39.2-70-70l-14.5 6.7zM208 256c0-26.5 21.5-48 48-48c10.4 0 20 3.3 27.8 8.9l-33.5 33.5-5.7 5.7L256 267.3l5.7-5.7 5.7-5.7 36.7 0c0 26.5-21.5 48-48 48s-48-21.5-48-48zm8 160a40 40 0 1 0 80 0 40 40 0 1 0 -80 0z"/><path class="fa-primary" d="M256 16C123.5 16 16 123.5 16 256s107.5 240 240 240s240-107.5 240-240l16 0c0 141.4-114.6 256-256 256S0 397.4 0 256S114.6 0 256 0c67.8 0 129.5 26.4 175.3 69.4l43.1-43.1 5.7-5.7L491.3 32l-5.7 5.7-224 224-5.7 5.7L244.7 256l5.7-5.7 33.5-33.5c-7.8-5.6-17.4-8.9-27.8-8.9c-26.5 0-48 21.5-48 48s21.5 48 48 48s48-21.5 48-48l16 0c0 35.3-28.7 64-64 64s-64-28.7-64-64s28.7-64 64-64c14.8 0 28.4 5 39.2 13.4L352 148.7c-25.5-22.8-59.1-36.7-96-36.7c-57.9 0-107.8 34.1-130.7 83.4l-14.5-6.7C136.3 133.9 191.7 96 256 96c41.3 0 79 15.7 107.3 41.3L420 80.7C377 40.6 319.4 16 256 16zM96 216a40 40 0 1 1 0 80 40 40 0 1 1 0-80zm24 40a24 24 0 1 0 -48 0 24 24 0 1 0 48 0zm96 160a40 40 0 1 1 80 0 40 40 0 1 1 -80 0zm40 24a24 24 0 1 0 0-48 24 24 0 1 0 0 48zM400 256l16 0c0 64.3-37.9 119.7-92.6 145.2l-6.7-14.5C365.9 363.8 400 313.9 400 256zM195.4 386.7l-6.7 14.5c-34.2-15.9-61.9-43.6-77.8-77.8l14.5-6.7c14.3 30.8 39.2 55.7 70 70z"/></svg>