<svg xmlns="http://www.w3.org/2000/svg" viewBox="0 0 640 512"><!--! Font Awesome Pro 6.7.2 by @fontawesome - https://fontawesome.com License - https://fontawesome.com/license (Commercial License) Copyright 2024 Fonticons, Inc. --><defs><style>.fa-secondary{opacity:.4}</style></defs><path class="fa-secondary" d="M16 168l0 104 480 0 0-104c0-66.3-53.7-120-120-120L136 48C69.7 48 16 101.7 16 168zm72-16l8 0 24 0 0-24 0-8 16 0 0 8 0 24 24 0 8 0 0 16-8 0-24 0 0 24 0 8-16 0 0-8 0-24-24 0-8 0 0-16zm128 0l8 0 24 0 0-24 0-8 16 0 0 8 0 24 24 0 8 0 0 16-8 0-24 0 0 24 0 8-16 0 0-8 0-24-24 0-8 0 0-16zm128 0l8 0 24 0 0-24 0-8 16 0 0 8 0 24 24 0 8 0 0 16-8 0-24 0 0 24 0 8-16 0 0-8 0-24-24 0-8 0 0-16z"/><path class="fa-primary" d="M0 168C0 92.9 60.9 32 136 32l240 0c75.1 0 136 60.9 136 136l0 112 0 56 0 8 0 8 0 8 0 16c0 13.3 10.7 24 24 24s24-10.7 24-24l0-96 0-8 8 0 64 0 8 0 0 8 0 96c0 54.7-42.3 99.6-96 103.7l0 .3-8 0c-37.1 0-69.6-19.4-88-48.6l0 40.6 0 8-8 0-144 0-8 0 0-8 0-104-128 0 0 104 0 8-8 0L8 480l-8 0 0-8L0 280 0 168zM496 288L16 288l0 176 128 0 0-104 0-8 8 0 144 0 8 0 0 8 0 104 128 0 0-88 0-8 0-8 16 0 0 8 0 8c0 48.6 39.4 88 88 88s88-39.4 88-88l0-88-48 0 0 88c0 19.4-13.7 35.5-32 39.2l0 .8-8 0c-22.1 0-40-17.9-40-40l0-16 0-8 0-8 0-8 0-48zM16 272l480 0 0-104c0-66.3-53.7-120-120-120L136 48C69.7 48 16 101.7 16 168l0 104zM136 128l0 24 24 0 8 0 0 16-8 0-24 0 0 24 0 8-16 0 0-8 0-24-24 0-8 0 0-16 8 0 24 0 0-24 0-8 16 0 0 8zm128-8l0 8 0 24 24 0 8 0 0 16-8 0-24 0 0 24 0 8-16 0 0-8 0-24-24 0-8 0 0-16 8 0 24 0 0-24 0-8 16 0zm128 8l0 24 24 0 8 0 0 16-8 0-24 0 0 24 0 8-16 0 0-8 0-24-24 0-8 0 0-16 8 0 24 0 0-24 0-8 16 0 0 8z"/></svg>