<svg xmlns="http://www.w3.org/2000/svg" viewBox="0 0 512 512"><!--! Font Awesome Pro 6.7.2 by @fontawesome - https://fontawesome.com License - https://fontawesome.com/license (Commercial License) Copyright 2024 Fonticons, Inc. --><defs><style>.fa-secondary{opacity:.4}</style></defs><path class="fa-secondary" d="M16 16l25.4 0L103 77.7 82.3 98.3 76.7 104 88 115.3l5.7-5.7L114.3 89 183 157.7l-20.7 20.7-5.7 5.7L168 195.3l5.7-5.7L194.3 169 263 237.7l-20.7 20.7-5.7 5.7L248 275.3l5.7-5.7L274.3 249 343 317.7l-20.7 20.7-5.7 5.7L328 355.3l5.7-5.7L354.3 329 423 397.7l-20.7 20.7-5.7 5.7L408 435.3l5.7-5.7L434.3 409 496 470.6l0 25.4L16 496 16 16zM120 236.7l0 19.3 0 128 0 8 8 0 128 0 19.3 0-13.7-13.7-128-128L120 236.7z"/><path class="fa-primary" d="M16 16l0 480 480 0 0-25.4L434.3 409l-20.7 20.7-5.7 5.7L396.7 424l5.7-5.7L423 397.7 354.3 329l-20.7 20.7-5.7 5.7L316.7 344l5.7-5.7L343 317.7 274.3 249l-20.7 20.7-5.7 5.7L236.7 264l5.7-5.7L263 237.7 194.3 169l-20.7 20.7-5.7 5.7L156.7 184l5.7-5.7L183 157.7 114.3 89 93.7 109.7 88 115.3 76.7 104l5.7-5.7L103 77.7 41.4 16 16 16zM205.7 157.7l68.7 68.7 11.3 11.3 68.7 68.7 11.3 11.3 68.7 68.7 11.3 11.3L512 464l0 32 0 16-16 0L16 512 0 512l0-16L0 16 0 0 16 0 48 0l66.3 66.3 11.3 11.3 68.7 68.7 11.3 11.3zm-85.7 79l13.7 13.7 128 128L275.3 392 256 392l-128 0-8 0 0-8 0-128 0-19.3zm16 38.6L136 376l100.7 0L136 275.3z"/></svg>