<svg xmlns="http://www.w3.org/2000/svg" viewBox="0 0 448 512"><!--! Font Awesome Pro 6.7.2 by @fontawesome - https://fontawesome.com License - https://fontawesome.com/license (Commercial License) Copyright 2024 Fonticons, Inc. --><defs><style>.fa-secondary{opacity:.4}</style></defs><path class="fa-secondary" d="M16 96l32 0 0 368 304 0 0 32L16 496 16 96zM96 16l217.4 0L432 134.6 432 416 96 416 96 16zm56 128l0 8 0 64 0 64 0 64 0 8 8 0 64 0 80 0 64 0 8 0 0-8 0-64 0-64 0-64 0-8-8 0-64 0-80 0-64 0-8 0z"/><path class="fa-primary" d="M96 416L96 16l217.4 0L432 134.6 432 416 96 416zM448 128L320 0 96 0 80 0l0 16 0 400 0 16 16 0 336 0 16 0 0-16 0-288zM48 80L16 80 0 80 0 96 0 496l0 16 16 0 336 0 16 0 0-16 0-32-16 0 0 32L16 496 16 96l32 0 0-16zm112 64l-8 0 0 8 0 64 0 64 0 64 0 8 8 0 64 0 80 0 64 0 8 0 0-8 0-64 0-64 0-64 0-8-8 0-64 0-80 0-64 0zm8 64l0-48 48 0 0 48-48 0zm64 0l0-48 64 0 0 48-64 0zm80 0l0-48 48 0 0 48-48 0zm-8 16l56 0 0 48-56 0-80 0-56 0 0-48 56 0 80 0zm8 64l48 0 0 48-48 0 0-48zm-16 0l0 48-64 0 0-48 64 0zm-80 0l0 48-48 0 0-48 48 0z"/></svg>