<svg xmlns="http://www.w3.org/2000/svg" viewBox="0 0 448 512"><!--! Font Awesome Pro 6.7.2 by @fontawesome - https://fontawesome.com License - https://fontawesome.com/license (Commercial License) Copyright 2024 Fonticons, Inc. --><defs><style>.fa-secondary{opacity:.4}</style></defs><path class="fa-secondary" d="M16 48l416 0 0 416L16 464 16 48zM124.9 341.8l4.5 6.6c14.8 22.1 39.8 35.5 66.5 35.5l53.1 0c36.6 0 66.7-27.6 70.6-63.1l.4 0 0-8c0-36.8-28-67.4-64.6-70.8l-101.5-9.3L174.4 144 296 144l8 0 0-16-8 0-128 0-6.4 0-1.4 6.2-24 104-2.1 8.9 9.1 .8 110.7 10.1c28.4 2.6 50.1 26.4 50.1 54.9c0 30.4-24.7 55.1-55.1 55.1l-53.1 0c-21.3 0-41.3-10.7-53.2-28.5l-4.5-6.6-13.3 8.9z"/><path class="fa-primary" d="M16 48l0 416 416 0 0-416L16 48zM0 32l16 0 416 0 16 0 0 16 0 416 0 16-16 0L16 480 0 480l0-16L0 48 0 32zm168 96l128 0 8 0 0 16-8 0-121.6 0-20.5 88.9 101.5 9.3c36.6 3.3 64.6 34 64.6 70.8l0 8-.4 0c-4 35.5-34.1 63.1-70.6 63.1l-53.1 0c-26.7 0-51.7-13.4-66.5-35.5l-4.5-6.6 13.3-8.9 4.5 6.6c11.9 17.7 31.9 28.5 53.2 28.5l53.1 0c30.4 0 55.1-24.7 55.1-55.1c0-28.5-21.7-52.3-50.1-54.9L143.3 248l-9.1-.8 2.1-8.9 24-104 1.4-6.2 6.4 0z"/></svg>