<svg xmlns="http://www.w3.org/2000/svg" viewBox="0 0 512 512"><!--! Font Awesome Pro 6.7.2 by @fontawesome - https://fontawesome.com License - https://fontawesome.com/license (Commercial License) Copyright 2024 Fonticons, Inc. --><defs><style>.fa-secondary{opacity:.4}</style></defs><path class="fa-secondary" d="M16 48l0 128 144 0 0-128L16 48zm0 144l0 128 144 0 0-128L16 192zm0 144l0 128 144 0 0-128L16 336zM176 48l0 128 160 0 0-128L176 48zm0 144l0 128 160 0 0-128-160 0zm0 144l0 128 160 0 0-128-160 0zM352 48l0 128 144 0 0-128L352 48zm0 144l0 128 144 0 0-128-144 0zm0 144l0 128 144 0 0-128-144 0z"/><path class="fa-primary" d="M352 48l0 128 144 0 0-128L352 48zm-16 0L176 48l0 128 160 0 0-128zM160 48L16 48l0 128 144 0 0-128zM16 192l0 128 144 0 0-128L16 192zm0 144l0 128 144 0 0-128L16 336zM176 464l160 0 0-128-160 0 0 128zm176 0l144 0 0-128-144 0 0 128zM496 320l0-128-144 0 0 128 144 0zM0 32l16 0 480 0 16 0 0 16 0 416 0 16-16 0L16 480 0 480l0-16L0 48 0 32zM176 320l160 0 0-128-160 0 0 128z"/></svg>