<svg xmlns="http://www.w3.org/2000/svg" viewBox="0 0 512 512"><!--! Font Awesome Pro 6.7.2 by @fontawesome - https://fontawesome.com License - https://fontawesome.com/license (Commercial License) Copyright 2024 Fonticons, Inc. --><defs><style>.fa-secondary{opacity:.4}</style></defs><path class="fa-secondary" d="M16 256l0 248 0 8 47.4 0 32-32L80 480 80 96l352 0 0 384-15.4 0 32 32 47.4 0 0-8 0-248C496 123.5 388.5 16 256 16S16 123.5 16 256zM128 144l0 288 256 0 0-288-256 0zm32 48l16 0 160 0 16 0 0 16 0 96 0 16-16 0-160 0-16 0 0-16 0-96 0-16zm32 176a16 16 0 1 1 -32 0 16 16 0 1 1 32 0zm160 0a16 16 0 1 1 -32 0 16 16 0 1 1 32 0z"/><path class="fa-primary" d="M16 256C16 123.5 123.5 16 256 16s240 107.5 240 240l0 248 0 8 16 0 0-8 0-248C512 117.3 401.7 4.3 264 .1l0-.1-8 0C114.6 0 0 114.6 0 256L0 504l0 8 16 0 0-8 0-248zM128 144l256 0 0 288-256 0 0-288zm-16-16l0 16 0 288 0 16 16 0 44.7 0-58.3 58.3-5.7 5.7s0 0 0 0l22.6 0 64-64 121.4 0 64 64 22.6 0-5.7-5.7L339.3 448l44.7 0 16 0 0-16 0-288 0-16-16 0-256 0-16 0zm64 256a16 16 0 1 0 0-32 16 16 0 1 0 0 32zm176-16a16 16 0 1 0 -32 0 16 16 0 1 0 32 0zM336 208l0 96-160 0 0-96 160 0zM176 192l-16 0 0 16 0 96 0 16 16 0 160 0 16 0 0-16 0-96 0-16-16 0-160 0z"/></svg>