<svg xmlns="http://www.w3.org/2000/svg" viewBox="0 0 640 512"><!--! Font Awesome Pro 6.7.2 by @fontawesome - https://fontawesome.com License - https://fontawesome.com/license (Commercial License) Copyright 2024 Fonticons, Inc. --><defs><style>.fa-secondary{opacity:.4}</style></defs><path class="fa-secondary" d="M144 208.8L144 496l304 0 48 0 8 0 0-3C445.3 446.7 386.7 400.4 328 354l0 62 0 8-16 0 0-8 0-74.6c-26.7-21.1-53.3-42.1-80-63.2L232 416l0 8-16 0 0-8 0-150.4c-24-18.9-48-37.9-72-56.8zM230.4 64l179.1 0-30-48L260.4 16l-30 48zm23.4 48L408 233.7l0-73.7 0-8 16 0 0 8 0 86.4c24 18.9 48 37.9 72 56.8L496 112l-242.2 0z"/><path class="fa-primary" d="M512 315.8L512 112l-16 0 0 191.2 16 12.6zm-88-69.5l0-86.4 0-8-16 0 0 8 0 73.7 16 12.6zm-112 95l0 74.6 0 8 16 0 0-8 0-62-16-12.6zm-96-75.8L216 416l0 8 16 0 0-8 0-137.7-16-12.6zm-72-56.8l-16-12.6L128 504l0 8 8 0 368 0 8 0 0-8 0-4.7-4.2-3.3L496 496l-48 0-304 0 0-287.2zM193 64l20.3 16L544 80l0-16L428.4 64 390.8 3.8 388.4 0 384 0 256 0l-4.4 0-2.4 3.8L211.6 64 193 64zM379.6 16l30 48L230.4 64l30-48 119.1 0zM16.2 5L9.9 0 0 12.5l6.3 5L623.8 507l6.3 5 9.9-12.5-6.3-5L16.2 5z"/></svg>