<svg xmlns="http://www.w3.org/2000/svg" viewBox="0 0 512 512"><!--! Font Awesome Pro 6.7.2 by @fontawesome - https://fontawesome.com License - https://fontawesome.com/license (Commercial License) Copyright 2024 Fonticons, Inc. --><defs><style>.fa-secondary{opacity:.4}</style></defs><path class="fa-secondary" d="M24 496L90.7 336l330.7 0L488 496 24 496zM384 144a128 128 0 1 1 -256 0 128 128 0 1 1 256 0z"/><path class="fa-primary" d="M384 144a128 128 0 1 0 -256 0 128 128 0 1 0 256 0zm-272 0a144 144 0 1 1 288 0 144 144 0 1 1 -288 0zM24 496l464 0L421.3 336 90.7 336 24 496zM80 320l352 0 73.3 176 6.7 16-17.3 0L17.3 512 0 512l6.7-16L80 320z"/></svg>