<svg id="Layer_1" data-name="Layer 1" xmlns="http://www.w3.org/2000/svg" width="78.9" height="400" viewBox="0 0 78.9 400"><title>logo</title><path d="M61,54.17a26.56,26.56,0,0,1-11.82,2.6,26.18,26.18,0,0,1-11.76-2.6A23,23,0,0,1,29,47.46q-6.42-8.31-6.41-17.22V17.72H11.31a29.13,29.13,0,0,1-3.45-.15,8.06,8.06,0,0,1-2.65-.95C3.4,15.69,2.5,13.08,2.5,8.81q0-7,3.71-8.21a16.72,16.72,0,0,1,5.2-.6H67a29.21,29.21,0,0,1,3.46.15,8.14,8.14,0,0,1,2.65,1q2.7,1.41,2.7,7.81V30.34q0,8.81-6.4,17.12A23.09,23.09,0,0,1,61,54.17ZM42.55,36.25a7.78,7.78,0,0,0,6.61,2.9,7.92,7.92,0,0,0,6.66-2.9,9.72,9.72,0,0,0,2.25-6V17.72H40.35V30.34A9.71,9.71,0,0,0,42.55,36.25Zm12,62.87a6.85,6.85,0,0,1-2,3.16,7.1,7.1,0,0,1-4.66,1.25,15.94,15.94,0,0,1-7-1.9c-2.54-1.27-3.8-3.11-3.8-5.51a7.72,7.72,0,0,1,.8-3.45,10.14,10.14,0,0,0,.8-4.36,8,8,0,0,0-1.9-5.06,5.77,5.77,0,0,0-4.61-2.35h-21a29.13,29.13,0,0,1-3.45-.15A8.06,8.06,0,0,1,5,79.8Q2.4,78.3,2.4,72c0-3.2.57-5.51,1.7-6.91a6,6,0,0,1,4.31-1.8H46.46a29.13,29.13,0,0,1,3.45.15,8.16,8.16,0,0,1,2.56.85c1.8.93,2.7,3.54,2.7,7.81q0,6-2.3,7.51a5.8,5.8,0,0,1-3.31,1.1,15.67,15.67,0,0,1,1.7,1.45A18.81,18.81,0,0,1,54,86.21a11.76,11.76,0,0,1,1.7,5.46,25.85,25.85,0,0,1-.25,4A24.18,24.18,0,0,1,54.57,99.12ZM61,163.2a26.43,26.43,0,0,1-11.82,2.61A26.05,26.05,0,0,1,37.4,163.2,23,23,0,0,1,29,156.5q-6.42-8.33-6.41-17.23V126.76H11.31a29.13,29.13,0,0,1-3.45-.15,8.06,8.06,0,0,1-2.65-1q-2.71-1.41-2.71-7.81c0-4.68,1.24-7.41,3.71-8.21a16.72,16.72,0,0,1,5.2-.6H67a29.21,29.21,0,0,1,3.46.15,7.91,7.91,0,0,1,2.65,1q2.7,1.39,2.7,7.81v21.42q0,8.82-6.4,17.13A23.07,23.07,0,0,1,61,163.2ZM42.55,145.28q2.21,2.91,6.61,2.91a7.9,7.9,0,0,0,6.66-2.91,9.72,9.72,0,0,0,2.25-6V126.76H40.35v12.61A9.69,9.69,0,0,0,42.55,145.28Zm7,61.28q5.61.6,5.61,7.91a20.81,20.81,0,0,1-.6,5.81,4.21,4.21,0,0,1-2.1,2.65,8.68,8.68,0,0,1-2.66.9,29.13,29.13,0,0,1-3.45.15h-35a29.13,29.13,0,0,1-3.45-.15A9.13,9.13,0,0,1,5.21,223c-1.74-.94-2.61-3.22-2.61-6.86S3.05,210,4,208.81a5.44,5.44,0,0,1,4-2.15Q2.6,203,2.6,194.29t7.91-16.07a26.05,26.05,0,0,1,18.38-7.41,25.8,25.8,0,0,1,18.32,7.46q7.86,7.46,7.86,16.37a15.63,15.63,0,0,1-1.2,6.21,13.88,13.88,0,0,1-2.26,3.91A14.12,14.12,0,0,1,49.56,206.56ZM28.74,188.33a8.29,8.29,0,0,0-6,2.61,8.51,8.51,0,0,0-2.66,6.31,8,8,0,0,0,2.71,6.15,8.66,8.66,0,0,0,6,2.46,9.25,9.25,0,0,0,6.05-2.36,7.81,7.81,0,0,0,2.81-6.3,8.1,8.1,0,0,0-2.81-6.41A9.07,9.07,0,0,0,28.74,188.33Zm26.43,73A21.17,21.17,0,0,1,47.51,278a27.48,27.48,0,0,1-18.68,6.66H11.21a29.13,29.13,0,0,1-3.45-.15,8.29,8.29,0,0,1-2.55-.85c-1.81-.94-2.71-3.54-2.71-7.82q0-7.11,3.71-8.2a15.91,15.91,0,0,1,5.1-.61H28.94a8.53,8.53,0,0,0,6.4-2.35,8.62,8.62,0,0,0,2.31-6.31,8.72,8.72,0,0,0-2.41-6.4,8.41,8.41,0,0,0-6.3-2.46H11.21a29.13,29.13,0,0,1-3.45-.15,7.13,7.13,0,0,1-2.55-1Q2.5,247.11,2.5,240.7T5.21,233a9.13,9.13,0,0,1,2.65-.85,29.13,29.13,0,0,1,3.45-.15H46.76a27.9,27.9,0,0,1,3.35.15,7.24,7.24,0,0,1,2.56,1c1.66.93,2.5,3.51,2.5,7.71s-.77,6.58-2.3,7.51a8,8,0,0,1-4.11,1,10.41,10.41,0,0,1,2,1.8,18.07,18.07,0,0,1,2.11,2.71A13.15,13.15,0,0,1,55.17,261.33Zm-20.08,82.2q-6.15,0-9.11-3A9.53,9.53,0,0,1,23,333.72V310q-2.8,0-4.71,3.3a13.13,13.13,0,0,0-1.9,6.61,27.58,27.58,0,0,0,1.2,9.11l.4,1.1a10,10,0,0,1,1.1,4c0,2.13-1.5,4-4.5,5.5A11.08,11.08,0,0,1,10,340.93q-8.91,0-8.91-21.33a32.23,32.23,0,0,1,2.55-13.17,22.48,22.48,0,0,1,6.76-9,28.84,28.84,0,0,1,18.13-6.31q12.62,0,20.17,8.16t7.56,20.38q0,13.92-9.81,20.43A20.43,20.43,0,0,1,35.09,343.53Zm-3-21.13q0,3.81,3.2,3.81a4.54,4.54,0,0,0,3.71-1.75,7.88,7.88,0,0,0,1.4-5A10.17,10.17,0,0,0,37.8,313c-1.77-2.14-3.66-3.2-5.66-3.2ZM71.19,350a29,29,0,0,1,3.45.15,9.18,9.18,0,0,1,2.66.85c1.8.93,2.7,3.54,2.7,7.81q0,6.11-2.7,7.61a8.1,8.1,0,0,1-2.71,1,30.46,30.46,0,0,1-3.5.15H24.73q-3.6,0-4.56.6c-.63.4-1,1.28-1,2.65a16.15,16.15,0,0,1-.15,2.76,5,5,0,0,1-.85,1.7q-1.3,2-7.11,2-6.3,0-7.71-2-1.8-2.61-.6-12.42,1-7.71,5.11-10,4.9-2.8,15.62-2.8ZM18.92,398.3q-1.7,1.69-7,1.7h-.4A30.27,30.27,0,0,1,8,399.85a7.91,7.91,0,0,1-2.75-1.05q-2.91-1.5-2.91-7.56c0-4,.64-6.71,1.9-8s3.67-2,7.21-2h.4a30.54,30.54,0,0,1,3.51.15,7.84,7.84,0,0,1,2.7.95c2,1,3,3.52,3,7.56S20.32,396.76,18.92,398.3Z" transform="translate(-1.1 0)"/></svg>