<svg xmlns="http://www.w3.org/2000/svg" width="24" height="24" fill="none">
    <path fill="currentColor" d="M12.5 9v-.5h-1V9zm-1 6v.5h1V15zM11 9.5h-.5v1h.5zm2 1h.5v-1H13zm-2 3h-.5v1h.5zm2 1h.5v-1H13zm4.5-2.5c0 2.353-.949 4.499-2.147 6.06-.598.779-1.249 1.4-1.857 1.822-.621.431-1.145.618-1.496.618v1c.649 0 1.375-.317 2.066-.797.705-.488 1.429-1.185 2.08-2.035C17.45 16.972 18.5 14.618 18.5 12zM12 20.5c-.351 0-.875-.187-1.496-.618-.608-.422-1.26-1.043-1.857-1.823C7.449 16.5 6.5 14.354 6.5 12h-1c0 2.618 1.051 4.972 2.353 6.668.652.85 1.376 1.547 2.08 2.035.692.48 1.418.797 2.067.797zM6.5 12c0-2.353.949-4.499 2.147-6.06.598-.779 1.249-1.4 1.857-1.822.621-.431 1.145-.618 1.496-.618v-1c-.649 0-1.375.317-2.066.796-.705.49-1.429 1.186-2.08 2.036C6.55 7.028 5.5 9.382 5.5 12zM12 3.5c.351 0 .875.187 1.496.618.608.422 1.26 1.043 1.857 1.822C16.551 7.501 17.5 9.647 17.5 12h1c0-2.618-1.051-4.972-2.353-6.668-.652-.85-1.376-1.547-2.08-2.036-.692-.48-1.418-.796-2.067-.796zM11.5 9v6h1V9zm-.5 1.5h2v-1h-2zm0 4h2v-1h-2zm1-9a3.49 3.49 0 0 1-2.625-1.185l-.75.662A4.49 4.49 0 0 0 12 6.5zm2.625-1.185A3.49 3.49 0 0 1 12 5.5v1a4.49 4.49 0 0 0 3.375-1.523zm-5.25 15.37A3.49 3.49 0 0 1 12 18.5v-1a4.49 4.49 0 0 0-3.375 1.523zM12 18.5a3.49 3.49 0 0 1 2.625 1.185l.75-.662A4.49 4.49 0 0 0 12 17.5z"/>
</svg>