<svg xmlns="http://www.w3.org/2000/svg" width="24" height="24" fill="none"><path fill="#fff" fill-opacity=".01" d="M24 0v24H0V0z"/><path fill="#F7F9FC" d="m6.964 15.756-.244.436.872.489.244-.437zm6.472-9.511.245-.437-.873-.488-.244.436zm-3.952 5.01-.245.437.873.489.244-.436zm6.68 4.99.244.436.873-.489-.245-.436zm-2.208-5.99-.244-.435-.873.488.245.437zm-2.52-4.5-.244-.435-.873.488.245.436zM6.3 13.5h-.5v1h.5zm6.2 1h.5v-1h-.5zm3.5-1h-.5v1h.5zm1.7 1h.5v-1h-.5zm2.8-2.5a8.5 8.5 0 0 1-8.5 8.5v1a9.5 9.5 0 0 0 9.5-9.5zM12 20.5A8.5 8.5 0 0 1 3.5 12h-1a9.5 9.5 0 0 0 9.5 9.5zM3.5 12A8.5 8.5 0 0 1 12 3.5v-1A9.5 9.5 0 0 0 2.5 12zM12 3.5a8.5 8.5 0 0 1 8.5 8.5h1A9.5 9.5 0 0 0 12 2.5zM8.064 13.792l-1.1 1.964.872.488 1.1-1.964zm4.5-8.036-3.08 5.5.872.489 3.08-5.5zm4.472 10-3.08-5.5-.872.489 3.08 5.5zm-4.6-8.214-1-1.786-.872.488 1 1.786zM6.3 14.5h6.2v-1H6.3zm9.7 0h1.7v-1H16z"/></svg>