<svg xmlns="http://www.w3.org/2000/svg" width="24" height="24" viewbox="0 0 24 24" fill="none">
    <path stroke="currentColor" stroke-linecap="square" d="M20 13a8 8 0 0 0-8-8m8 8a7.998 7.998 0 0 1-4.124 7H8.124A7.998 7.998 0 0 1 4 13m16 0h1M4 13a8 8 0 0 1 8-8m-8 8H3m9-8V4m0 1s-3 3-3 8c0 3.3 1.308 5.73 2.196 7M12 5s3 3 3 8c0 3.3-1.308 5.73-2.196 7M9 15H7.5m9 0h-1.663m-8.494 3.657-.707.707M18.364 6.636l-.707.707m-1.214 3.397-.866.5M6.343 7.343l-.707-.707m12.728 12.728-.707-.707M8.423 11.24l-.866-.5"/>
</svg>