<svg xmlns="http://www.w3.org/2000/svg" width="24" height="24" fill="none"><path fill="#fff" fill-opacity=".01" d="M24 0v24H0V0z"/><path fill="#F7F9FC" d="M17 5.001h.5v-.5H17zm-14 14h-.5v.5H3zm14-9-.262-.425-.238.146v.28zm4-2.463h.5v-.896l-.762.47zm0 8.928-.262.425.762.47v-.895zm-4-2.464h-.5v.279l.238.146zM4 4.5a.5.5 0 1 0 0 1zm12.5 13.5a.5.5 0 1 0 1 0zM2.575 2.87l-.353-.353-.707.707.353.353zm15.85 17.264.353.353.707-.707-.353-.354zm-1.163-9.706 4-2.464-.524-.851-4 2.464zm3.238-2.89v8.929h1V7.538zm.762 8.503-4-2.464-.524.851 4 2.465zM17.5 14.002v-4h-1v4zM3.5 19V8.5h-1v10.501zm.5-13.5h13v-1H4zm9.5 13H3v1h10.5zm3-13.5v13h1v-13zM1.868 3.576l16.557 16.557.707-.707L2.575 2.869z"/></svg>