<svg xmlns="http://www.w3.org/2000/svg" width="24" height="24" fill="none"><path fill="#fff" fill-opacity=".01" d="M24 0v24H0V0z"/><path fill="#F7F9FC" d="M3 5v-.5h-.5V5zm18 0h.5v-.5H21zm-9 14.5h.5v-1H12zM3 19h-.5v.5H3zM20.5 8v.5h1V8zM7 9.5h-.5v1H7zm6 1h.5v-1H13zm-6 3h-.5v1H7zm2 1h.5v-1H9zm7 6.5h-.5v.809l.724-.362zm4 0-.224.447.724.362V21zm-2-1 .224-.447L18 19.44l-.224.112zM3 5.5h18v-1H3zm9 13H3v1h9zm-8.5.5V5h-1v14zm17-14v3h1V5zM7 10.5h6v-1H7zm0 4h2v-1H7zm13.5-.5a2.5 2.5 0 0 1-2.5 2.5v1a3.5 3.5 0 0 0 3.5-3.5zM18 16.5a2.5 2.5 0 0 1-2.5-2.5h-1a3.5 3.5 0 0 0 3.5 3.5zM15.5 14a2.5 2.5 0 0 1 2.5-2.5v-1a3.5 3.5 0 0 0-3.5 3.5zm2.5-2.5a2.5 2.5 0 0 1 2.5 2.5h1a3.5 3.5 0 0 0-3.5-3.5zm-2.5 4.736V21h1v-4.764zm5 4.764v-4.764h-1V21zm-4.276.447 2-1-.448-.894-2 1zm1.552-1 2 1 .448-.894-2-1z"/></svg>