<svg xmlns="http://www.w3.org/2000/svg" width="24" height="24" viewBox="0 0 24 24" fill="none">
    <path fill="currentColor" d="M10 9.5a.5.5 0 1 1-1 0 .5.5 0 0 1 1 0M10 15.5a.5.5 0 1 1-1 0 .5.5 0 0 1 1 0M16 13.5a.5.5 0 1 1-1 0 .5.5 0 0 1 1 0"/>
    <path stroke="currentColor" stroke-linecap="square" d="M17.005 6.828a3 3 0 0 1-3.859-3.755 9 9 0 1 0 7.608 6.832 3 3 0 0 1-3.75-3.077Z"/>
    <path stroke="currentColor" stroke-linecap="square" d="M10 9.5a.5.5 0 1 1-1 0 .5.5 0 0 1 1 0ZM10 15.5a.5.5 0 1 1-1 0 .5.5 0 0 1 1 0ZM16 13.5a.5.5 0 1 1-1 0 .5.5 0 0 1 1 0Z"/>
</svg>