<svg xmlns="http://www.w3.org/2000/svg" width="24" height="24" viewBox="0 0 24 24" fill="none">
    <path fill="currentColor" d="m6.49 4.902-.098-.49-.98.196.098.49zM9 20l-.49.098.975.023zm3-12 .485-.121h-.97zm3 12-.485.121.975-.023zm3.49-14.902.098-.49-.98-.196-.098.49zM5 9.5h-.5v1H5zm0 4h-.5v1H5zm14-3h.5v-1H19zm0 4h.5v-1H19zM5.51 5.098l3 15 .98-.196-3-15zm3.975 15.023 3-12-.97-.242-3 12zm2.03-12 3 12 .97-.242-3-12zm3.975 11.977 3-15-.98-.196-3 15zM5 10.5h2v-1H5zm0 4h2.8v-1H5zm12-4h2v-1h-2zm-.8 4H19v-1h-2.8z"/>
</svg>