<svg xmlns="http://www.w3.org/2000/svg" width="24" height="24" viewBox="0 0 24 24" fill="none">
    <path fill="currentColor" d="M8 20.5h-.5v1H8zm6 1h.5v-1H14zM5 12l-.354-.353-.29.29.228.34zm4.854-4.146.353-.354-.707-.707-.354.354zm1.232-4.89.131-.482-.28-.076-.205.205zm7.778 2.122.353.354.61-.61-.832-.226zm-7.778 7.778-.483.132.227.831.61-.61zM8.964 5.086l-.353-.353-.205.205.076.28zm8.132 3.182-.353.354zm-.353-1.06-.354-.354-.707.707.354.354zm-2.829 2.828-.353-.354-.707.707.353.354zM8 21.5h6v-1H8zm3.416-.777-6-9-.832.555 6 9zm-6.062-8.369 4.5-4.5-.708-.707-4.5 4.5zm5.6-8.907 7.778 2.122.263-.965-7.778-2.122zm7.556 1.286-7.778 7.778.707.707 7.778-7.778zm-6.942 8L9.447 4.955l-.965.263 2.121 7.778zM9.318 5.44l2.121-2.122-.707-.707-2.121 2.122zm7.425 5.303a1.5 1.5 0 0 1-2.122 0l-.707.707a2.5 2.5 0 0 0 3.536 0zm0-2.121a1.5 1.5 0 0 1 0 2.121l.707.707a2.5 2.5 0 0 0 0-3.535zm.707-.707-.707-.708-.707.708.707.707zm-2.829 2.828-.707-.707-.707.707.707.707z"/>
</svg>