<svg xmlns="http://www.w3.org/2000/svg" width="24" height="24" viewbox="0 0 24 24" fill="none">
    <path fill="currentColor" d="M16 12.25a.75.75 0 1 1-1.5 0 .75.75 0 0 1 1.5 0M9.5 12.25a.75.75 0 1 1-1.5 0 .75.75 0 0 1 1.5 0"/>
    <path fill="currentColor" d="M9 5.5h.5v-1H9zm-.738-.364-.125-.484zM6 6l.3.4zM3 16.5l.48-.137zm3.776 2.947.448.224.447-.895-.447-.223zM15.003 4.5h-.5v1h.5zm3 1.5.3-.4zm3 10.5.481.137zm-4.223 2.053-.448.223.448.895.447-.224zM9.36 6.278l-.106-.488zm5.278 0 .106-.488zm.552-.233-.428-.257zm-6.382 0 .428-.257zM7.652 16.197l.188-.463zm-.428-.741-.447-.224-.448.894.447.224zm10 .894.447-.224-.448-.894-.447.224zM5.951 18.48l-.224.447.895.448.224-.448zm11.204.448.224.448.894-.448-.223-.447zM9 4.5c-.217 0-.545.07-.863.152l.25.968c.329-.085.54-.12.613-.12zm-.863.152a14.3 14.3 0 0 0-1.345.424c-.417.155-.849.342-1.092.524l.6.8c.112-.084.414-.228.841-.387.406-.15.866-.295 1.246-.393zM5.7 5.6c-.606.455-1.118 1.289-1.539 2.222-.43.952-.797 2.083-1.083 3.211a24.025 24.025 0 0 0-.599 3.246c-.101.95-.114 1.818.04 2.358l.962-.274c-.096-.335-.109-1.03-.007-1.978.098-.923.297-2.017.573-3.106.277-1.09.627-2.162 1.026-3.046C5.48 7.33 5.906 6.695 6.3 6.4zM2.52 16.637c.057.203.187.37.305.494.125.133.28.263.445.386.332.248.754.504 1.186.745.864.482 1.834.942 2.32 1.185l.448-.894c-.514-.257-1.443-.697-2.28-1.164a10.253 10.253 0 0 1-1.076-.674 2.484 2.484 0 0 1-.316-.27c-.078-.082-.079-.11-.071-.082zM15.002 5.5c.058 0 .224.024.492.09.25.06.55.146.854.245.303.098.602.207.852.312.262.11.43.2.502.253l.6-.8c-.178-.134-.447-.263-.716-.376a12.341 12.341 0 0 0-.93-.34 13.067 13.067 0 0 0-.927-.266c-.263-.064-.535-.118-.727-.118zm2.7.9c.394.295.82.93 1.227 1.833.399.884.75 1.956 1.026 3.046a23.03 23.03 0 0 1 .573 3.106c.102.949.09 1.643-.007 1.978l.962.274c.154-.54.141-1.408.04-2.358a24.032 24.032 0 0 0-.599-3.246c-.286-1.128-.654-2.26-1.083-3.211-.421-.933-.932-1.767-1.539-2.222zm2.82 9.963c.007-.027.006 0-.072.082-.07.075-.175.166-.316.27-.28.21-.658.44-1.076.674-.837.468-1.765.907-2.28 1.164l.448.894c.486-.243 1.457-.703 2.32-1.185a11.21 11.21 0 0 0 1.186-.745c.166-.123.32-.253.446-.386.117-.124.247-.291.305-.494zM9.467 6.767c.79-.173 1.643-.267 2.532-.267v-1c-.96 0-1.883.102-2.745.29zM12 6.5c.89 0 1.742.094 2.532.267l.213-.977A12.901 12.901 0 0 0 12 5.5zm2.532.267c.415.09.859-.083 1.088-.464l-.857-.515h-.003a.026.026 0 0 1-.015.002zM9.255 5.79a.025.025 0 0 1-.015-.001.009.009 0 0 1-.003-.001l-.857.515c.23.38.673.555 1.088.464zm-.018-.002-.547-.91-.857.515.547.91zm6.383.515.547-.91-.857-.516-.547.91zM12 16.5c-1.544 0-2.973-.285-4.16-.766l-.376.926c1.316.534 2.873.84 4.536.84zm-4.16-.766a8.521 8.521 0 0 1-.616-.278l-.448.894c.221.11.45.214.688.31zm8.936-.278a8.498 8.498 0 0 1-.615.278l.375.926c.238-.096.467-.2.688-.31zm-.615.278c-1.188.481-2.617.766-4.16.766v1c1.662 0 3.22-.306 4.535-.84zm-9.315 3.193 1.253-2.506-.895-.448-1.253 2.507zm11.204-.446-1.254-2.508-.895.448 1.254 2.508zM15.5 12.25a.25.25 0 0 1-.25.25v1c.69 0 1.25-.56 1.25-1.25zm-.25.25a.25.25 0 0 1-.25-.25h-1c0 .69.56 1.25 1.25 1.25zm-.25-.25a.25.25 0 0 1 .25-.25v-1c-.69 0-1.25.56-1.25 1.25zm.25-.25a.25.25 0 0 1 .25.25h1c0-.69-.56-1.25-1.25-1.25zM9 12.25a.25.25 0 0 1-.25.25v1c.69 0 1.25-.56 1.25-1.25zm-.25.25a.25.25 0 0 1-.25-.25h-1c0 .69.56 1.25 1.25 1.25zm-.25-.25a.25.25 0 0 1 .25-.25v-1c-.69 0-1.25.56-1.25 1.25zm.25-.25a.25.25 0 0 1 .25.25h1c0-.69-.56-1.25-1.25-1.25z"/>
</svg>