<svg xmlns="http://www.w3.org/2000/svg" width="24" height="24" viewBox="0 0 24 24" fill="none">
    <path stroke="currentColor" stroke-linecap="square" d="M12 14v5M10 5a3.095 3.095 0 0 1 1.42 1h1.16A3.095 3.095 0 0 1 14 5m-2.635 7.141L12 15l.636-2.86m-1.271.001L5.16 13.52A1.776 1.776 0 0 1 3 11.786v0c0-.98.795-1.776 1.776-1.776h6.115m.474 2.131-.474-2.131m1.745 2.13 6.203 1.38A1.776 1.776 0 0 0 21 11.785v0c0-.981-.795-1.776-1.776-1.776H13.11m-.473 2.13.473-2.13m0 0 .002-.01m.525-2.364v0A1.345 1.345 0 0 0 12.324 6h-.648c-.86 0-1.499.797-1.312 1.636v0m3.272 0 5.197-1.155A1.78 1.78 0 0 1 21 8.22v0A1.78 1.78 0 0 1 19.22 10H13.11m.525-2.364L13.111 10m-2.747-2.364L5.167 6.481A1.78 1.78 0 0 0 3 8.22v0C3 9.203 3.797 10 4.78 10h6.109m-.525-2.364L10.889 10m0 0 .002.01"/>
</svg>