<svg xmlns="http://www.w3.org/2000/svg" width="24" height="24" fill="none">
    <path fill="currentColor" d="M20.5 12a8.5 8.5 0 0 1-8.5 8.5v1a9.5 9.5 0 0 0 9.5-9.5zM12 20.5A8.5 8.5 0 0 1 3.5 12h-1a9.5 9.5 0 0 0 9.5 9.5zM3.5 12A8.5 8.5 0 0 1 12 3.5v-1A9.5 9.5 0 0 0 2.5 12zM12 3.5a8.5 8.5 0 0 1 8.5 8.5h1A9.5 9.5 0 0 0 12 2.5zm0 17c-.898 0-2.018-.804-2.95-2.39C8.143 16.564 7.5 14.4 7.5 12h-1c0 2.57.685 4.908 1.689 6.617C9.17 20.29 10.55 21.5 12 21.5zM7.5 12c0-2.407.606-4.569 1.496-6.115C9.903 4.31 11.02 3.5 12 3.5v-1c-1.521 0-2.903 1.204-3.87 2.887C7.143 7.098 6.5 9.436 6.5 12zM12 3.5c.979 0 2.097.81 3.004 2.385C15.894 7.431 16.5 9.593 16.5 12h1c0-2.564-.644-4.902-1.63-6.613C14.904 3.704 13.522 2.5 12 2.5zm4.5 8.5c0 2.406-.606 4.569-1.496 6.115C14.098 19.69 12.98 20.5 12 20.5v1c1.521 0 2.903-1.204 3.87-2.887.986-1.711 1.63-4.049 1.63-6.613zm-5-9v18h1V3z"/>
</svg>