<svg xmlns="http://www.w3.org/2000/svg" width="24" height="24" viewBox="0 0 24 24" fill="none">
    <path fill="currentColor" d="M9 12.5h.5v-1H9zm-6-1h-.5v1H3zM15 6v-.5h-.5V6zm5 0h.5v-.5H20zm0 4v.5h.5V10zm-5 0h-.5v.5h.5zM3 17h-.5v.5H3zm6 .5h-.5v1H9zm7 1h.5v-1H16zM9 8h.5v-.5H9zm0 6h-.5v.5H9zm6 0v.5h.5V14zm0-10h.5v-.5H15zm-3-.5h-.5v1h.5zM3 8v-.5h-.5V8zm1 9.5h.5v-1H4zm4.5 0a2 2 0 0 1-2 2v1a3 3 0 0 0 3-3zm-2 2a2 2 0 0 1-2-2h-1a3 3 0 0 0 3 3zm-2-2a2 2 0 0 1 2-2v-1a3 3 0 0 0-3 3zm2-2a2 2 0 0 1 2 2h1a3 3 0 0 0-3-3zm14 2a2 2 0 0 1-2 2v1a3 3 0 0 0 3-3zm-2 2a2 2 0 0 1-2-2h-1a3 3 0 0 0 3 3zm-2-2a2 2 0 0 1 2-2v-1a3 3 0 0 0-3 3zm2-2a2 2 0 0 1 2 2h1a3 3 0 0 0-3-3zm-9.5-4H3v1h6zm6-5h5v-1h-5zm4.5-.5v4h1V6zm.5 3.5h-5v1h5zm-4.5.5V6h-1v4zM9 18.5h7v-1H9zM8.5 8v6h1V8zm.5 6.5h6v-1H9zm6.5-.5V4h-1v10zM15 3.5h-3v1h3zm-6 4H3v1h6zM2.5 8v9h1V8zm15.04 2.197 3 7 .92-.394-3-7zM3 17.5h1v-1H3z"/>
</svg>