<svg xmlns="http://www.w3.org/2000/svg" width="24" height="24" fill="none"><path fill="#fff" fill-opacity=".01" d="M24 0v24H0V0z"/><path stroke="#F7F9FC" d="M12 5.367A4.69 4.69 0 0 1 18.633 12M12 5.367A4.69 4.69 0 0 0 5.367 12M12 5.367a4.676 4.676 0 0 1 1.339 3.948M18.633 12A4.69 4.69 0 0 1 12 18.633M18.633 12a4.675 4.675 0 0 1-3.948 1.339M12 18.633a4.675 4.675 0 0 1-1.339-3.948M12 18.633A4.69 4.69 0 0 1 5.367 12m0 0a4.676 4.676 0 0 1 3.948-1.339m4.024-1.346a3 3 0 0 0-4.024 1.347m4.024-1.347a3 3 0 0 1 1.346 4.024m0 0a3 3 0 0 1-4.024 1.346m0 0a3 3 0 0 1-1.346-4.024"/></svg>