<svg xmlns="http://www.w3.org/2000/svg" width="24" height="24" viewBox="0 0 24 24" fill="none">
    <path fill="currentColor" d="M3 19.5h-.5v1H3zm12 1h.5v-1H15zm-11-9h-.5v1H4zm10 1h.5v-1H14zM3.5 20v.5h1V20zM4 4v-.5h-.5V4zm10 0h.5v-.5H14zm-.5 16v.5h1V20zm.5-7.5h-.5v1h.5zm3 .5h.5v-.5H17zm0 5h-.5v.5h.5zm3 0v.5h.5V18zm0-8h.5v-.207l-.146-.147zm-2.646-3.354L17 6.293 16.293 7l.353.354zM3 20.5h12v-1H3zm1-8h10v-1H4zm.5 7.5V4h-1v16zM4 4.5h10v-1H4zm9.5-.5v16h1V4zm.5 9.5h3v-1h-3zm2.5-.5v5h1v-5zm.5 5.5h3v-1h-3zm3.5-.5v-8h-1v8zm-.146-8.354-3-3-.708.708 3 3zM19.5 10a.5.5 0 0 1-.5.5v1a1.5 1.5 0 0 0 1.5-1.5zm-.5.5a.5.5 0 0 1-.5-.5h-1a1.5 1.5 0 0 0 1.5 1.5zm-.5-.5a.5.5 0 0 1 .5-.5v-1a1.5 1.5 0 0 0-1.5 1.5z"/>
</svg>