<svg xmlns="http://www.w3.org/2000/svg" width="24" height="24" viewbox="0 0 24 24" fill="none">
    <path fill="currentColor" d="m12 21-.312.39.312.25.312-.25zM2 13l-.464-.186a.5.5 0 0 0 .152.576zM6 3l.474-.158-.431-1.295-.507 1.267zm2 6-.474.158.114.342H8zm8 0v.5h.36l.114-.342zm2-6 .464-.186-.507-1.267-.431 1.295zm4 10 .312.39a.5.5 0 0 0 .152-.576zm-9.688 7.61-10-8-.624.78 10 8zm-9.848-7.424 4-10-.928-.372-4 10zM5.526 3.158l2 6 .948-.316-2-6zM8 9.5h8v-1H8zm8.474-.342 2-6-.948-.316-2 6zm1.062-5.972 4 10 .928-.372-4-10zm4.152 9.424-10 8 .624.78 10-8z"/>
</svg>