<svg xmlns="http://www.w3.org/2000/svg" width="24" height="24" viewbox="0 0 24 24" fill="none">
    <path stroke="currentColor" d="m7.757 10.586 2.829-2.828M4.222 7.05 7.05 4.222 19.778 16.95l-2.828 2.828zm9.215-3.955c.063-.127.063-.127.126 0a2.97 2.97 0 0 0 1.36 1.354c.102.051.103.051 0 .102a2.97 2.97 0 0 0-1.36 1.354c-.063.127-.063.127-.126 0a2.97 2.97 0 0 0-1.36-1.354c-.103-.051-.102-.051 0-.102l.096-.05a2.97 2.97 0 0 0 1.264-1.304Zm4.521 4.968c.042-.084.042-.084.084 0l.041.08a1.98 1.98 0 0 0 .866.823c.068.034.068.034 0 .068l-.064.034a1.98 1.98 0 0 0-.843.869c-.042.084-.042.084-.084 0a1.98 1.98 0 0 0-.907-.903c-.068-.034-.068-.034 0-.068l.064-.034a1.98 1.98 0 0 0 .843-.869ZM4.907 12.658c.093-.21.093-.21.186 0a4.7 4.7 0 0 0 2.012 2.256c.152.086.152.086 0 .172a4.7 4.7 0 0 0-2.012 2.256c-.093.21-.093.21-.186 0a4.7 4.7 0 0 0-2.012-2.256c-.152-.086-.152-.086 0-.171a4.698 4.698 0 0 0 2.012-2.257Z"/>
</svg>