<svg xmlns="http://www.w3.org/2000/svg" width="24" height="24" viewbox="0 0 24 24" fill="none">
    <path fill="currentColor" d="m4 17-.447-.224-.362.724H4zm2-4 .447.224.053-.106V13zm12 0h-.5v.118l.053.106zm2 4v.5h.809l-.362-.724zM6.5 10.5V10h-1v.5zm6 7h.5v-1h-.5zM4.575 3.87l-.353-.354-.707.707.353.353zm14.85 16.263.353.353.707-.707-.353-.354zm-5.091-.524.372-.334-.667-.745-.373.333zM12 19.5A2.5 2.5 0 0 1 9.5 17h-1a3.5 3.5 0 0 0 3.5 3.5zm-7.553-2.276 2-4-.894-.448-2 4zM17.5 9v4h1V9zm.053 4.224 2 4 .894-.448-2-4zM18.5 9A6.5 6.5 0 0 0 12 2.5v1A5.5 5.5 0 0 1 17.5 9zM12 2.5a6.501 6.501 0 0 0-5.91 3.791l.908.418A5.501 5.501 0 0 1 12 3.5zM6.5 13v-2.5h-1V13zm6 3.5H9v1h3.5zm-3.5 0H4v1h5zm11 0h-3v1h3zM3.868 4.576l15.557 15.557.707-.707L4.575 3.868zm9.798 14.287A2.489 2.489 0 0 1 12 19.5v1c.896 0 1.715-.337 2.334-.891z"/>
</svg>