<svg xmlns="http://www.w3.org/2000/svg" width="24" height="24" fill="none">
    <path fill="currentColor" d="M14 8v.5h.062l.06-.015zm4-1h.5v-.64l-.621.155zM8 18.4h.5v-.306l-.272-.139zM8 20h-.5v.5H8zm3 0v.5h.5V20zm0-1v-.5h-.5v.5zm3 0h.5v-.5H14zm0 1h-.5v.5h.5zm3 0v.5h.5V20zm0-1.6-.228-.445-.272.14v.305zm2.526-2.663-.224-.447-.16.08-.073.163zM21 15l.224.447.276-.138V15zm0-3h.5v-.5H21zm-1.207 0-.481.136.103.364h.378zM18 9.257h-.5v.236l.182.15zM3.5 11.5V11h-1v.5zm1.5 3h.5v-1H5zm9.5-7V8h1v-.5zm1.5 4h-.5v1h.5zm.01 1h.5v-1h-.5zm-1.889-4.015 4-1-.242-.97-4 1zM14 7.5h-3.5v1H14zm-3.5 0a6 6 0 0 0-6 6h1a5 5 0 0 1 5-5zm-6 6a6 6 0 0 0 3.272 5.346l.456-.89A5 5 0 0 1 5.5 13.5zm3 4.9V20h1v-1.6zm.5 2.1h3v-1H8zm3.5-.5v-1h-1v1zm-.5-.5h3v-1h-3zm2.5-.5v1h1v-1zm.5 1.5h3v-1h-3zm3.5-.5v-1.6h-1V20zm-.272-1.154a6.022 6.022 0 0 0 2.755-2.905l-.914-.408a5.022 5.022 0 0 1-2.297 2.422zm2.522-2.662 1.474-.737-.448-.894-1.474.737zM21.5 15v-3h-1v3zm-.5-3.5h-1.207v1H21zm-.726.364a6.004 6.004 0 0 0-1.956-2.992l-.636.77a5.004 5.004 0 0 1 1.63 2.494zM17.5 7v2.257h1V7zm-14 5v-.5h-1v.5zM5 13.5A1.5 1.5 0 0 1 3.5 12h-1A2.5 2.5 0 0 0 5 14.5zm3.5-6a3 3 0 0 1 3-3v-1a4 4 0 0 0-4 4zm3-3a3 3 0 0 1 3 3h1a4 4 0 0 0-4-4zM8.788 8.785A2.986 2.986 0 0 1 8.5 7.5h-1c0 .613.138 1.194.385 1.715zM16 12.5h.01v-1H16z"/>
</svg>