<svg xmlns="http://www.w3.org/2000/svg" width="24" height="24" viewbox="0 0 24 24" fill="none">
    <path stroke="currentColor" d="M14.5 4.5c0 .828-1.12 1.5-2.5 1.5s-2.5-.672-2.5-1.5S10.62 3 12 3s2.5.672 2.5 1.5ZM14.5 19.5c0 .828-1.12 1.5-2.5 1.5s-2.5-.672-2.5-1.5S10.62 18 12 18s2.5.672 2.5 1.5ZM6.755 6.085c.717.414.74 1.72.049 2.915-.69 1.196-1.832 1.83-2.55 1.415-.717-.414-.739-1.72-.048-2.915.69-1.196 1.831-1.83 2.549-1.415ZM19.745 13.585c.718.414.74 1.72.05 2.915-.691 1.196-1.832 1.83-2.55 1.415-.717-.414-.74-1.72-.049-2.915.69-1.196 1.832-1.83 2.55-1.415ZM4.255 13.585c.717-.414 1.859.22 2.549 1.415.69 1.196.668 2.501-.05 2.915-.717.415-1.858-.219-2.548-1.415-.69-1.195-.669-2.5.049-2.915ZM17.245 6.085c.718-.414 1.859.22 2.55 1.415.69 1.196.668 2.501-.05 2.915-.717.415-1.858-.219-2.549-1.415-.69-1.196-.668-2.5.05-2.915Z"/>
</svg>