<svg xmlns="http://www.w3.org/2000/svg" width="24" height="24" viewbox="0 0 24 24" fill="none">
    <path fill="currentColor" d="M12.5 12a.5.5 0 1 1-1 0 .5.5 0 0 1 1 0M9 8.5a.5.5 0 1 1-1 0 .5.5 0 0 1 1 0M9 15.5a.5.5 0 1 1-1 0 .5.5 0 0 1 1 0M16 8.5a.5.5 0 1 1-1 0 .5.5 0 0 1 1 0M16 15.5a.5.5 0 1 1-1 0 .5.5 0 0 1 1 0"/>
    <path stroke="currentColor" d="M4 4h16v16H4z"/>
    <path stroke="currentColor" d="M12.5 12a.5.5 0 1 1-1 0 .5.5 0 0 1 1 0ZM9 8.5a.5.5 0 1 1-1 0 .5.5 0 0 1 1 0ZM9 15.5a.5.5 0 1 1-1 0 .5.5 0 0 1 1 0ZM16 8.5a.5.5 0 1 1-1 0 .5.5 0 0 1 1 0ZM16 15.5a.5.5 0 1 1-1 0 .5.5 0 0 1 1 0Z"/>
</svg>