<svg xmlns="http://www.w3.org/2000/svg" width="24" height="24" viewbox="0 0 24 24" fill="none">
    <path fill="currentColor" d="m4.312 18.61-.39-.313-.625.781.39.312zM6.5 21l-.312.39.285.229.304-.203zm3-2 .312-.39-.285-.229-.304.203zm2.5 2-.312.39.312.25.312-.25zm2.5-2 .277-.416-.304-.203-.285.229zm3 2-.277.416.304.203.285-.229zm2.812-1.61.39-.312-.624-.78-.39.312zm-16-4.78-.39-.313-.625.781.39.312zM6.5 17l-.312.39.285.229.304-.203zm3-2 .312-.39-.285-.229-.304.203zm2.5 2-.312.39.312.25.312-.25zm2.5-2 .277-.416-.304-.203-.285.229zm3 2-.277.416.304.203.285-.229zm2.812-1.61.39-.312-.624-.78-.39.312zM7 10.5h-.5v1H7zm9 1h.5v-1H16zM7 4v-.5h-.5V4zm-.5 12v.5h1V16zM12 4h.5v-.5H12zm-.5 2.5V7h1v-.5zM16 4v-.5h-.5V4zm5 0h.5v-.5H21zm-.5 2.5V7h1v-.5zM3.688 19.39l2.5 2 .624-.78-2.5-2zm3.09 2.026 3-2-.555-.832-3 2zm2.41-2.026 2.5 2 .624-.78-2.5-2zm3.124 2 2.5-2-.624-.78-2.5 2zm1.91-1.974 3 2 .555-.832-3-2zm3.59 1.974 2.5-2-.624-.78-2.5 2zm-14.124-6 2.5 2 .624-.78-2.5-2zm3.09 2.026 3-2-.555-.832-3 2zm2.41-2.026 2.5 2 .624-.78-2.5-2zm3.124 2 2.5-2-.624-.78-2.5 2zm1.91-1.974 3 2 .555-.832-3-2zm3.59 1.974 2.5-2-.624-.78-2.5 2zM7 11.5h9v-1H7zm0-7h5v-1H7zm4.5-.5v2.5h1V4zm4.5.5h5v-1h-5zm4.5-.5v2.5h1V4zm-13 12V4h-1v12zm9 0V4h-1v12z"/>
</svg>