<svg xmlns="http://www.w3.org/2000/svg" width="24" height="24" viewbox="0 0 24 24" fill="none">
    <path stroke="currentColor" d="M3 20h18M8 12l-.584-.9A4.105 4.105 0 0 1 7 9.3c0-1.013.372-1.948 1-2.7 1.5-1.798 3.5-1.35 4-3.6.5 2.25 2.5 1.8 4 3.6.628.752 1 1.687 1 2.7 0 .64-.148 1.249-.416 1.8L16 12m-8 0v8m0-8h8m0 0v8M4 20v-7m16 7v-7"/>
    <path fill="currentColor" d="M4.9 13.2a.9.9 0 1 1-1.8 0c0-.497.6-1.8.9-1.8.3 0 .9 1.303.9 1.8M20.9 13.2a.9.9 0 1 1-1.8 0c0-.497.6-1.8.9-1.8.3 0 .9 1.303.9 1.8M11.5 16.5c0-.5.375-1.5.5-1.5s.5 1 .5 1.5V20h-1z"/>
</svg>