<svg width="24" height="24" viewBox="0 0 24 24" fill="none" xmlns="http://www.w3.org/2000/svg">
<path fill-rule="evenodd" clip-rule="evenodd" d="M4.50007 1.75C2.98126 1.74996 1.75 2.98119 1.75 4.5V19.4999C1.75 21.0187 2.98122 22.2499 4.5 22.2499H19.5C21.0188 22.2499 22.25 21.0187 22.25 19.5V4.50039C22.25 2.98163 21.0188 1.75043 19.5001 1.75039L4.50007 1.75ZM8.00012 7C6.8955 6.99993 6 7.89538 6 9V15C6 16.1045 6.89536 16.9999 7.99988 17L8.99994 17.0001C9.55222 17.0001 9.99997 16.5524 10 16.0001C10 15.4478 9.55235 15.0001 9.00006 15.0001L8 15V9L8.99994 9.00006C9.55222 9.00009 9.99997 8.55241 10 8.00012C10 7.44784 9.55235 7.00009 9.00006 7.00006L8.00012 7ZM15 7.00006C14.4477 7.00005 14 7.44776 14 8.00005C14 8.55233 14.4477 9.00005 15 9.00006L16.0001 9.00007V15L14.9999 15.0001C14.4477 15.0001 14 15.4478 14 16.0001C14 16.5524 14.4478 17.0001 15.0001 17.0001L16.0002 17C17.1048 16.9999 18.0001 16.1045 18.0001 15V9.00007C18.0001 7.89551 17.1047 7.00009 16.0001 7.00007L15 7.00006Z" fill="#141B34"/>
</svg>
