<svg width="24" height="24" viewBox="0 0 24 24" fill="none" xmlns="http://www.w3.org/2000/svg">
<path fill-rule="evenodd" clip-rule="evenodd" d="M4.5 1.75C2.98122 1.75 1.75 2.98122 1.75 4.5V19.5C1.75 21.0188 2.98122 22.25 4.5 22.25H19.5C21.0188 22.25 22.25 21.0188 22.25 19.5V4.5C22.25 2.98122 21.0188 1.75 19.5 1.75H4.5ZM8.5 7.25C8.91421 7.25 9.25 7.58579 9.25 8V16C9.25 16.4142 8.91421 16.75 8.5 16.75C8.08579 16.75 7.75 16.4142 7.75 16V8C7.75 7.58579 8.08579 7.25 8.5 7.25ZM15.5 7.25C15.9142 7.25 16.25 7.58579 16.25 8V16C16.25 16.4142 15.9142 16.75 15.5 16.75H14C12.2051 16.75 10.75 15.2949 10.75 13.5C10.75 11.7051 12.2051 10.25 14 10.25H14.75V8C14.75 7.58579 15.0858 7.25 15.5 7.25ZM14.75 11.75H14C13.0335 11.75 12.25 12.5335 12.25 13.5C12.25 14.4665 13.0335 15.25 14 15.25H14.75V11.75Z" fill="#141B34"/>
</svg>
