<svg width="24" height="24" viewBox="0 0 24 24" fill="none" xmlns="http://www.w3.org/2000/svg">
<path fill-rule="evenodd" clip-rule="evenodd" d="M4.5 1.75C2.98122 1.75 1.75 2.98122 1.75 4.5V19.5C1.75 21.0188 2.98122 22.25 4.5 22.25H19.5C21.0188 22.25 22.25 21.0188 22.25 19.5V4.5C22.25 2.98122 21.0188 1.75 19.5 1.75H4.5ZM9.0002 7.25012C9.31284 7.25012 9.59268 7.44405 9.70245 7.73678L12.7024 15.7367C12.8479 16.1245 12.6514 16.5568 12.2635 16.7023C11.8757 16.8477 11.4434 16.6512 11.298 16.2634L10.3554 13.75H7.64497L6.70245 16.2634C6.55701 16.6512 6.1247 16.8477 5.73686 16.7023C5.34902 16.5568 5.15252 16.1245 5.29796 15.7367L8.29796 7.73678C8.40773 7.44405 8.68757 7.25012 9.0002 7.25012ZM9.0002 10.1361L8.20747 12.25H9.79293L9.0002 10.1361ZM14.75 13.6196H18C18.4142 13.6196 18.75 13.2839 18.75 12.8696V12C18.75 10.4812 17.5188 9.25 16 9.25C14.4812 9.25 13.25 10.4812 13.25 12V14C13.25 15.5188 14.4812 16.75 16 16.75C17.0225 16.75 17.9136 16.1916 18.3867 15.3667C18.5928 15.0074 18.4686 14.5491 18.1093 14.343C17.75 14.1369 17.2916 14.2612 17.0855 14.6205C16.8689 14.9982 16.4634 15.25 16 15.25C15.3096 15.25 14.75 14.6904 14.75 14V13.6196ZM16 10.75C15.3096 10.75 14.75 11.3096 14.75 12V12.1196H17.25V12C17.25 11.3096 16.6904 10.75 16 10.75Z" fill="#141B34"/>
</svg>
