<svg width="24" height="24" viewBox="0 0 24 24" fill="none" xmlns="http://www.w3.org/2000/svg">
<path fill-rule="evenodd" clip-rule="evenodd" d="M4.5 1.75C2.98122 1.75 1.75 2.98122 1.75 4.5V19.5C1.75 21.0188 2.98122 22.25 4.5 22.25H19.5C21.0188 22.25 22.25 21.0188 22.25 19.5V4.5C22.25 2.98122 21.0188 1.75 19.5 1.75H4.5ZM5.55004 7.90004C5.88141 7.65152 6.35152 7.71867 6.60004 8.05004L9.00004 11.25L11.4 8.05004C11.6486 7.71867 12.1187 7.65152 12.45 7.90004C12.7814 8.14857 12.8486 8.61867 12.6 8.95004L9.93754 12.5L12.6 16.05C12.8486 16.3814 12.7814 16.8515 12.45 17.1C12.1187 17.3486 11.6486 17.2814 11.4 16.95L9.00004 13.75L6.60004 16.95C6.35152 17.2814 5.88141 17.3486 5.55004 17.1C5.21867 16.8515 5.15152 16.3814 5.40004 16.05L8.06254 12.5L5.40004 8.95004C5.15152 8.61867 5.21867 8.14857 5.55004 7.90004ZM18 7.75C18.4142 7.75 18.75 8.08579 18.75 8.5V16.5C18.75 16.9142 18.4142 17.25 18 17.25H16.5C14.7051 17.25 13.25 15.7949 13.25 14C13.25 12.2051 14.7051 10.75 16.5 10.75H17.25V8.5C17.25 8.08579 17.5858 7.75 18 7.75ZM17.25 12.25H16.5C15.5335 12.25 14.75 13.0335 14.75 14C14.75 14.9665 15.5335 15.75 16.5 15.75H17.25V12.25Z" fill="#141B34"/>
</svg>
