<svg width="24" height="24" viewBox="0 0 24 24" fill="none" xmlns="http://www.w3.org/2000/svg">
<path fill-rule="evenodd" clip-rule="evenodd" d="M2.25 5.75C2.25 4.23122 3.48122 3 5 3H21C22.5188 3 23.75 4.23122 23.75 5.75V19.75C23.75 21.2688 22.5188 22.5 21 22.5H5C3.48122 22.5 2.25 21.2688 2.25 19.75V5.75ZM8.28183 8.53449C8.37701 8.21725 8.669 8 9.0002 8H10.0002C10.3314 8 10.6234 8.21725 10.7186 8.53449L12.2153 13.5236L13.2117 16.5128C13.3427 16.9058 13.1303 17.3305 12.7374 17.4615C12.3444 17.5925 11.9197 17.3801 11.7887 16.9872L10.9596 14.5H8.04077L7.21172 16.9872C7.08073 17.3801 6.65599 17.5925 6.26303 17.4615C5.87008 17.3305 5.65771 16.9058 5.78869 16.5128L6.7851 13.5236L8.28183 8.53449ZM8.50823 13H10.4922L9.5002 9.69341L8.50823 13ZM20.25 9.25C20.25 8.83579 19.9142 8.5 19.5 8.5C19.0858 8.5 18.75 8.83579 18.75 9.25V12H17.5171C16.0047 12 14.75 13.2211 14.75 14.75C14.75 16.2789 16.0047 17.5 17.5171 17.5H19.5C19.9142 17.5 20.25 17.1642 20.25 16.75V9.25ZM17.5171 13.5H18.75V16H17.5171C16.8165 16 16.25 15.434 16.25 14.75C16.25 14.066 16.8165 13.5 17.5171 13.5Z" fill="#141B34"/>
</svg>
