<svg width="24" height="24" viewBox="0 0 24 24" fill="none" xmlns="http://www.w3.org/2000/svg">
<path fill-rule="evenodd" clip-rule="evenodd" d="M1.25 2C1.25 1.58579 1.58579 1.25 2 1.25L5 1.25C5.2699 1.25 5.50649 1.39256 5.6386 1.60649C5.77795 1.83215 5.64464 2.10536 5.45711 2.29289L4.40533 3.34467L5.53033 4.46967C5.82322 4.76256 5.82322 5.23744 5.53033 5.53033C5.23744 5.82322 4.76256 5.82322 4.46967 5.53033L3.34467 4.40533L2.29289 5.45711C2.10536 5.64464 1.83215 5.77795 1.60649 5.6386C1.39256 5.50649 1.25 5.2699 1.25 5L1.25 2ZM18.3614 1.60649C18.4935 1.39256 18.7301 1.25 19 1.25L22 1.25C22.4142 1.25 22.75 1.58579 22.75 2V5C22.75 5.2699 22.6074 5.50649 22.3935 5.6386C22.1678 5.77795 21.8946 5.64464 21.7071 5.45711L20.6553 4.40533L19.5303 5.53033C19.2374 5.82322 18.7626 5.82322 18.4697 5.53033C18.1768 5.23744 18.1768 4.76256 18.4697 4.46967L19.5947 3.34467L18.5429 2.29289C18.3554 2.10536 18.2221 1.83215 18.3614 1.60649ZM1.25 22C1.25 22.4142 1.58579 22.75 2 22.75H5C5.2699 22.75 5.50649 22.6074 5.6386 22.3935C5.77795 22.1678 5.64464 21.8946 5.45711 21.7071L4.40533 20.6553L5.53033 19.5303C5.82322 19.2374 5.82322 18.7626 5.53033 18.4697C5.23744 18.1768 4.76256 18.1768 4.46967 18.4697L3.34467 19.5947L2.29289 18.5429C2.10536 18.3554 1.83215 18.2221 1.60649 18.3614C1.39256 18.4935 1.25 18.7301 1.25 19L1.25 22ZM18.3614 22.3935C18.4935 22.6074 18.7301 22.75 19 22.75H22C22.4142 22.75 22.75 22.4142 22.75 22V19C22.75 18.7301 22.6074 18.4935 22.3935 18.3614C22.1678 18.2221 21.8946 18.3554 21.7071 18.5429L20.6553 19.5947L19.5303 18.4697C19.2374 18.1768 18.7626 18.1768 18.4697 18.4697C18.1768 18.7626 18.1768 19.2374 18.4697 19.5303L19.5947 20.6553L18.5429 21.7071C18.3554 21.8946 18.2221 22.1678 18.3614 22.3935ZM4.25 12C4.25 7.71979 7.71979 4.25 12 4.25C16.2802 4.25 19.75 7.71979 19.75 12C19.75 16.2802 16.2802 19.75 12 19.75C7.71979 19.75 4.25 16.2802 4.25 12ZM12 7.25C12.4142 7.25 12.75 7.58579 12.75 8V8.3349C13.5217 8.51137 14.213 8.95489 14.6278 9.58978C14.8544 9.93654 14.757 10.4013 14.4102 10.6279C14.0634 10.8544 13.5987 10.757 13.3721 10.4102C13.1369 10.0503 12.6155 9.75 12 9.75C11.6147 9.75 11.2683 9.8492 11.0426 9.99939C10.8387 10.1351 10.75 10.2925 10.75 10.5C10.75 10.7088 10.7932 10.8237 10.83 10.8872C10.8661 10.9495 10.921 11.0052 11.0142 11.057C11.2304 11.1771 11.574 11.2354 12.025 11.2504C12.5079 11.2665 13.1642 11.326 13.7146 11.6319C14.0047 11.7932 14.2747 12.0276 14.4676 12.3602C14.6599 12.6917 14.75 13.0765 14.75 13.5C14.75 14.2925 14.336 14.8851 13.7884 15.2494C13.4755 15.4576 13.1173 15.5953 12.75 15.6727V16C12.75 16.4142 12.4142 16.75 12 16.75C11.5858 16.75 11.25 16.4142 11.25 16V15.6651C10.4783 15.4886 9.78703 15.0451 9.37222 14.4102C9.14566 14.0635 9.2431 13.5987 9.58986 13.3721C9.93663 13.1456 10.4014 13.243 10.628 13.5898C10.8631 13.9497 11.3846 14.25 12 14.25C12.3854 14.25 12.7317 14.1508 12.9575 14.0006C13.1613 13.8649 13.25 13.7075 13.25 13.5C13.25 13.2912 13.2069 13.1763 13.1701 13.1128C13.1339 13.0505 13.079 12.9948 12.9859 12.943C12.7697 12.8229 12.426 12.7646 11.975 12.7496C11.4922 12.7335 10.8359 12.674 10.2855 12.3681C9.99536 12.2068 9.72539 11.9724 9.53245 11.6398C9.34016 11.3083 9.25003 10.9235 9.25003 10.5C9.25003 9.70746 9.6641 9.11495 10.2116 8.75061C10.5245 8.54238 10.8828 8.40467 11.25 8.3273V8C11.25 7.58579 11.5858 7.25 12 7.25Z" fill="#141B34"/>
</svg>
