<svg width="24" height="24" viewBox="0 0 24 24" fill="none" xmlns="http://www.w3.org/2000/svg">
<path d="M11.3751 5.1285L9.9061 4.48852L9.89422 4.48358C8.56131 3.92999 7.13179 4.39252 6.21764 5.53154L5.71532 6.15741C5.66787 6.21653 5.59615 6.25092 5.52035 6.25092H2C1.58579 6.25092 1.25 6.58671 1.25 7.00092V16.0009C1.25 16.4151 1.58579 16.7509 2 16.7509L5.71215 16.7509C5.75917 16.7509 5.80524 16.7642 5.84507 16.7892L7.57718 17.8764L7.61186 17.8988C8.52332 18.4862 9.26197 18.9623 9.90189 19.2766C10.5682 19.6038 11.1988 19.7931 11.8947 19.7429C12.853 19.6738 13.6513 19.1793 14.2882 18.6555C14.7239 18.2971 15.1514 17.8632 15.5165 17.4926C15.6692 17.3376 15.811 17.1936 15.9379 17.0709L16.6731 16.3601L12.9921 10.841C12.9098 10.7176 12.7387 10.6926 12.6245 10.7874L12.4169 10.9598C12.1211 11.2569 11.6243 11.6267 11.0277 11.7835C10.3533 11.9606 9.55205 11.8545 8.91101 11.1302C8.32511 10.4682 8.19006 9.73041 8.27871 9.09438C8.36308 8.48908 8.64574 7.98464 8.89738 7.68384C8.90802 7.67112 8.91908 7.65875 8.93055 7.64676L10.7277 5.76713L10.7416 5.75302C10.9363 5.5598 11.1517 5.34759 11.3751 5.1285Z" fill="#141B34"/>
<path d="M18.6648 16.643C18.9102 16.7139 19.1668 16.7509 19.4276 16.7509H22C22.1992 16.7509 22.3902 16.6717 22.5308 16.5307C22.6715 16.3898 22.7504 16.1986 22.75 15.9995L22.7324 6.99945C22.7316 6.58581 22.396 6.25092 21.9824 6.25092H19.2161C18.6466 5.90716 17.8221 5.4146 16.9605 5.00948C16.1862 4.64541 15.2664 4.29377 14.4253 4.25363C14.2387 4.43412 13.991 4.67391 13.7134 4.94341C13.111 5.52818 12.3697 6.25076 11.8051 6.8109L10.0348 8.66238C9.93397 8.7895 9.80215 9.03022 9.76435 9.30145C9.72917 9.55386 9.77102 9.83863 10.0343 10.1361C10.157 10.2747 10.261 10.3239 10.3372 10.3439C10.4194 10.3654 10.5205 10.3658 10.6466 10.3327C10.9193 10.261 11.2016 10.0596 11.3684 9.88658C11.3876 9.86665 11.4079 9.84781 11.4292 9.83012L11.6663 9.63329C12.4656 8.9697 13.6636 9.14446 14.2401 10.0087L18.6648 16.643Z" fill="#141B34"/>
</svg>
