<svg width="24" height="24" viewBox="0 0 24 24" fill="none" xmlns="http://www.w3.org/2000/svg">
<path fill-rule="evenodd" clip-rule="evenodd" d="M16.057 14.2597C16.2297 14.8188 16.1472 15.4408 15.9525 16.0497C15.5113 17.4294 14.8105 18.5952 14.0311 19.5499C14.1186 19.5346 14.2073 19.5151 14.2973 19.4916C14.956 19.3193 15.6239 18.9408 16.1943 18.5019C16.2044 18.4941 16.2146 18.4863 16.2249 18.4784C16.3919 18.3498 16.5741 18.2094 16.731 18.1126C16.8158 18.0602 16.9498 17.9841 17.1137 17.935C17.2858 17.8835 17.5675 17.84 17.8764 17.9639C18.1858 18.0881 18.3548 18.3151 18.4337 18.4424C18.5159 18.575 18.5679 18.7102 18.6012 18.8061C18.664 18.9873 18.724 19.2244 18.7839 19.4608C18.7869 19.4727 18.7899 19.4847 18.793 19.4966C18.8822 19.8487 19.0098 20.1605 19.1527 20.3956C19.302 20.6414 19.4268 20.737 19.4786 20.7632C19.48 20.7639 19.4804 20.765 19.4808 20.766C19.4821 20.7693 19.4829 20.7714 19.522 20.753C19.621 20.7061 19.8497 20.5424 20.163 20.0632C20.4653 19.601 21.085 19.4713 21.5473 19.7735C22.0095 20.0758 22.1392 20.6955 21.837 21.1578C21.4211 21.7938 20.9424 22.2936 20.377 22.561C19.7631 22.8513 19.1282 22.8268 18.577 22.5484C18.0713 22.2931 17.7026 21.8606 17.4435 21.4343C17.2512 21.1178 17.0955 20.766 16.9756 20.4041C16.3499 20.8287 15.6062 21.2165 14.8034 21.4265C13.9936 21.6383 13.0915 21.6749 12.2073 21.3541C11.6471 21.8035 11.1049 22.1584 10.6352 22.4189C10.3304 22.588 10.0457 22.7231 9.79748 22.819C9.58849 22.8997 9.28894 23 9 23C8.44772 23 8 22.5523 8 22C8 21.4705 8.41161 21.0371 8.93234 21.0023C8.94764 20.9981 8.99363 20.9855 9.07696 20.9533C9.22193 20.8973 9.4224 20.8046 9.66509 20.67C9.90865 20.5349 10.1843 20.3633 10.4774 20.1554C10.3848 20.0522 10.2945 19.9433 10.2067 19.8289C9.28819 18.632 9.29245 17.3252 9.77046 16.226C10.2246 15.1816 11.0941 14.3258 11.9627 13.7724C12.4039 13.4914 12.8772 13.2672 13.3428 13.1343C13.7923 13.0061 14.3206 12.9387 14.8241 13.0751C15.3867 13.2276 15.8615 13.6265 16.057 14.2597ZM11.9886 18.8447C11.9236 18.7738 11.8585 18.6962 11.7933 18.6113C11.3785 18.0707 11.3742 17.5532 11.6045 17.0236C11.8587 16.4391 12.4059 15.8615 13.0373 15.4592C13.3461 15.2625 13.6436 15.1283 13.8916 15.0576C13.9926 15.0288 14.0778 15.0126 14.1464 15.0052C14.1371 15.0996 14.1113 15.2411 14.0475 15.4406C13.6061 16.821 12.8313 17.9575 11.9886 18.8447Z" fill="#141B34"/>
<path fill-rule="evenodd" clip-rule="evenodd" d="M10.8286 1C10.034 1 9.2719 1.31523 8.70947 1.87651L2.88085 7.69318C2.31691 8.25597 2 9.01996 2 9.81667V20.0005C2 21.658 3.34407 23.0013 5.00152 23.0005L6.00051 23C6.55279 22.9997 7.00028 22.5518 7 21.9995C6.99972 21.4472 6.55178 20.9997 5.99949 21L5.00051 21.0005C4.44803 21.0008 4 20.553 4 20.0005V10.0015H8C9.65685 10.0015 11 8.65832 11 7.00146V3H18C18.5523 3 19 3.44772 19 4V13C19 13.5523 19.4477 14 20 14C20.5523 14 21 13.5523 21 13V4C21 2.34315 19.6569 1 18 1H10.8286Z" fill="#141B34"/>
</svg>
