<svg width="24" height="24" viewBox="0 0 24 24" fill="none" xmlns="http://www.w3.org/2000/svg">
<path fill-rule="evenodd" clip-rule="evenodd" d="M3 4C3 2.34315 4.34315 1 6 1H20C20.5523 1 21 1.44772 21 2V18C21 18.5523 20.5523 19 20 19H19.8616C19.6545 19.2275 19.5 19.5752 19.5 20C19.5 20.4248 19.6545 20.7725 19.8616 21H20C20.5523 21 21 21.4477 21 22C21 22.5523 20.5523 23 20 23H19.5136C19.5039 23.0001 19.4942 23.0001 19.4845 23H6C4.34315 23 3 21.6569 3 20V4ZM6 19H17.6394C17.5481 19.3189 17.5 19.6556 17.5 20C17.5 20.3444 17.5481 20.6811 17.6394 21H6C5.44772 21 5 20.5523 5 20C5 19.4477 5.44772 19 6 19ZM10.2224 6.25C9.90868 6.25 9.62808 6.4453 9.51911 6.73951L7.29689 12.7395C7.15303 13.1279 7.35129 13.5594 7.73972 13.7033C8.12815 13.8472 8.55965 13.6489 8.70352 13.2605L9.4111 11.35H11.5893L12.2969 13.2605C12.4408 13.6489 12.8723 13.8472 13.2607 13.7033C13.6491 13.5594 13.8474 13.1279 13.7035 12.7395L11.4813 6.73951C11.3723 6.4453 11.0917 6.25 10.778 6.25H10.2224ZM11.0337 9.85H9.96666L10.5002 8.40943L11.0337 9.85ZM16.2502 7C16.2502 6.58579 15.9144 6.25 15.5002 6.25C15.086 6.25 14.7502 6.58579 14.7502 7V13C14.7502 13.4142 15.086 13.75 15.5002 13.75C15.9144 13.75 16.2502 13.4142 16.2502 13V7Z" fill="#141B34"/>
</svg>
