<svg width="24" height="24" viewBox="0 0 24 24" fill="none" xmlns="http://www.w3.org/2000/svg">
<path fill-rule="evenodd" clip-rule="evenodd" d="M18.7861 1.79734C18.6644 1.46838 18.3508 1.25 18 1.25C17.6492 1.25 17.3356 1.46838 17.2139 1.79734L16.9256 2.57637C16.521 3.66981 16.3919 3.9669 16.1794 4.17942C15.9669 4.39194 15.6698 4.52098 14.5764 4.92559L13.7973 5.21386C13.4684 5.33558 13.25 5.64925 13.25 6C13.25 6.35075 13.4684 6.66442 13.7973 6.78614L14.5764 7.07441C15.6698 7.47902 15.9669 7.60806 16.1794 7.82058C16.3919 8.0331 16.521 8.33019 16.9256 9.42363L17.2139 10.2027C17.3356 10.5316 17.6492 10.75 18 10.75C18.3508 10.75 18.6644 10.5316 18.7861 10.2027L19.0744 9.42363C19.479 8.33019 19.6081 8.0331 19.8206 7.82058C20.0331 7.60806 20.3302 7.47902 21.4236 7.07441L22.2027 6.78614C22.5316 6.66442 22.75 6.35075 22.75 6C22.75 5.64925 22.5316 5.33558 22.2027 5.21386L21.4236 4.92559C20.3302 4.52098 20.0331 4.39194 19.8206 4.17942C19.6081 3.9669 19.479 3.66981 19.0744 2.57637L18.7861 1.79734ZM4 5.25H12.1392C12.0488 5.4848 12 5.73825 12 6C12 6.8738 12.544 7.65521 13.3635 7.95845L14.1426 8.24672C14.6991 8.45267 15.1065 8.6224 15.2921 8.7079C15.3776 8.89354 15.5473 9.30086 15.7533 9.85743L16.0415 10.6365C16.3448 11.456 17.1262 12 18 12C18.8738 12 19.6552 11.456 19.9585 10.6365L20.2467 9.85743C20.4527 9.30086 20.6224 8.89354 20.7079 8.7079C20.8935 8.6224 21.3009 8.45267 21.8574 8.24672L22.6365 7.95846C22.6745 7.94439 22.7119 7.92931 22.7487 7.91323C22.7495 7.94204 22.75 7.97097 22.75 8V20C22.75 21.5188 21.5188 22.75 20 22.75H4C2.48122 22.75 1.25 21.5188 1.25 20V8C1.25 6.48122 2.48122 5.25 4 5.25Z" fill="#141B34"/>
</svg>
