<svg width="24" height="24" viewBox="0 0 24 24" fill="none" xmlns="http://www.w3.org/2000/svg">
<path fill-rule="evenodd" clip-rule="evenodd" d="M19.2034 1.73972C19.0945 1.4454 18.8138 1.25 18.5 1.25C18.1862 1.25 17.9055 1.4454 17.7966 1.73972L17.5387 2.43675C17.1767 3.4151 17.0612 3.68091 16.8711 3.87106C16.6809 4.06121 16.4151 4.17667 15.4367 4.53869L14.7397 4.79661C14.4454 4.90552 14.25 5.18617 14.25 5.5C14.25 5.81383 14.4454 6.09448 14.7397 6.20339L15.4367 6.46131C16.4151 6.82333 16.6809 6.93879 16.8711 7.12894C17.0612 7.31909 17.1767 7.5849 17.5387 8.56325L17.7966 9.26028C17.9055 9.5546 18.1862 9.75 18.5 9.75C18.8138 9.75 19.0945 9.5546 19.2034 9.26028L19.4613 8.56325C19.8233 7.5849 19.9388 7.31909 20.1289 7.12894C20.3191 6.93879 20.5849 6.82333 21.5633 6.46131L22.2603 6.20339C22.5546 6.09448 22.75 5.81383 22.75 5.5C22.75 5.18617 22.5546 4.90552 22.2603 4.79661L21.5633 4.53869C20.5849 4.17667 20.3191 4.06121 20.1289 3.87106C19.9388 3.68091 19.8233 3.4151 19.4613 2.43675L19.2034 1.73972ZM4 2.25H16.274C16.1383 2.60888 16.0406 2.84734 15.9797 2.97966C15.819 3.05365 15.502 3.18172 15.003 3.36637L14.3059 3.6243C13.5211 3.91472 13 4.66312 13 5.5C13 6.33688 13.5211 7.08527 14.3059 7.3757L15.003 7.63363C15.502 7.81828 15.819 7.94635 15.9797 8.02034C16.0537 8.18097 16.1817 8.49803 16.3664 8.99705L16.6243 9.69407C16.9147 10.4789 17.6631 11 18.5 11C19.3369 11 20.0853 10.4789 20.3757 9.69407L20.6336 8.99705C20.8183 8.49803 20.9463 8.18097 21.0203 8.02034C21.1527 7.95939 21.3911 7.86175 21.75 7.72601V20C21.75 21.5188 20.5188 22.75 19 22.75H4C2.48122 22.75 1.25 21.5188 1.25 20V5C1.25 3.48122 2.48122 2.25 4 2.25ZM18.8214 20.7972C19.3605 20.7972 19.7976 20.3601 19.7976 19.821V16.198L16.2926 13.8613C15.5321 13.3543 14.5246 13.4274 13.8452 14.0388L6.33594 20.7972H18.8214ZM9.5 8.5C9.5 9.60457 8.60457 10.5 7.5 10.5C6.39543 10.5 5.5 9.60457 5.5 8.5C5.5 7.39543 6.39543 6.5 7.5 6.5C8.60457 6.5 9.5 7.39543 9.5 8.5Z" fill="#141B34"/>
</svg>
