<svg width="24" height="24" viewBox="0 0 24 24" fill="none" xmlns="http://www.w3.org/2000/svg">
<path fill-rule="evenodd" clip-rule="evenodd" d="M7.10606 11.9687C7.35362 12.3318 7.66774 12.6459 8.03086 12.8935C8.21978 14.087 9.25333 14.9995 10.5 14.9995C10.7753 14.9995 11.0403 14.955 11.288 14.8728C11.2634 14.971 11.25 15.0759 11.25 15.185V21.559L2.50027 18.9519C1.75848 18.7308 1.25 18.0487 1.25 17.2747L1.25001 4.32528C1.25002 3.16262 2.36285 2.32321 3.48078 2.64262L5.71262 3.28029L7.31518 3.75402C7.24107 3.84254 7.17126 3.93477 7.10606 4.0304C5.91252 4.21932 5 5.25287 5 6.49954C5 7.06235 5.18597 7.58171 5.49982 7.99954C5.18597 8.41737 5 8.93674 5 9.49954C5 10.7462 5.91252 11.7798 7.10606 11.9687ZM16.8939 11.9687C18.0875 11.7798 19 10.7462 19 9.49954C19 8.93674 18.814 8.41737 18.5002 7.99954C18.814 7.58171 19 7.06235 19 6.49954C19 5.25287 18.0875 4.21932 16.8939 4.0304C16.8287 3.93473 16.7589 3.84246 16.6847 3.75392L18.2938 3.27841L20.5168 2.64292C21.6348 2.3233 22.7478 3.16272 22.7478 4.3255L22.7479 17.2747C22.7479 18.0487 22.2394 18.7308 21.4976 18.9519L12.75 21.5583V15.185C12.75 15.0759 12.7366 14.971 12.712 14.8728C12.9597 14.955 13.2247 14.9995 13.5 14.9995C14.7467 14.9995 15.7802 14.087 15.9691 12.8935C16.3323 12.6459 16.6464 12.3318 16.8939 11.9687ZM11.25 4.25V3.5C11.25 3.08579 10.9142 2.75 10.5 2.75C10.0858 2.75 9.75 3.08579 9.75 3.5V4.26772C8.98358 4.37735 8.37735 4.98358 8.26772 5.75H7.5C7.08579 5.75 6.75 6.08579 6.75 6.5C6.75 6.91421 7.08579 7.25 7.5 7.25H8.25V8.75H7.5C7.08579 8.75 6.75 9.08579 6.75 9.5C6.75 9.91421 7.08579 10.25 7.5 10.25H8.26772C8.37735 11.0164 8.98358 11.6226 9.75 11.7323V12.5C9.75 12.9142 10.0858 13.25 10.5 13.25C10.9142 13.25 11.25 12.9142 11.25 12.5V11.75H12.75V12.5C12.75 12.9142 13.0858 13.25 13.5 13.25C13.9142 13.25 14.25 12.9142 14.25 12.5V11.7323C15.0164 11.6226 15.6226 11.0164 15.7323 10.25H16.5C16.9142 10.25 17.25 9.91421 17.25 9.5C17.25 9.08579 16.9142 8.75 16.5 8.75H15.75V7.25H16.5C16.9142 7.25 17.25 6.91421 17.25 6.5C17.25 6.08579 16.9142 5.75 16.5 5.75H15.7323C15.6227 4.98358 15.0164 4.37735 14.25 4.26772V3.5C14.25 3.08579 13.9142 2.75 13.5 2.75C13.0858 2.75 12.75 3.08579 12.75 3.5V4.25H11.25Z" fill="#141B34"/>
</svg>
