<svg width="24" height="24" viewBox="0 0 24 24" fill="none" xmlns="http://www.w3.org/2000/svg">
<path fill-rule="evenodd" clip-rule="evenodd" d="M13.1662 1.53871C12.4391 1.15376 11.5609 1.15376 10.8338 1.53871C9.63189 2.17509 7.1696 3.32075 4.21644 3.8341C3.12696 4.02349 2.25 4.95478 2.25 6.12325V11.0511C2.25 14.5419 4.02964 17.2085 5.99214 19.0834C7.95205 20.9559 10.152 22.0975 11.1534 22.5619C11.6943 22.8127 12.3057 22.8127 12.8466 22.5619C13.848 22.0975 16.0479 20.9559 18.0079 19.0834C19.9704 17.2085 21.75 14.5419 21.75 11.0511V6.12325C21.75 4.95478 20.873 4.02349 19.7836 3.8341C16.8304 3.32075 14.3681 2.17509 13.1662 1.53871ZM10.2224 7.25C9.90868 7.25 9.62808 7.4453 9.51911 7.73951L7.29689 13.7395C7.15303 14.1279 7.35129 14.5594 7.73972 14.7033C8.12815 14.8472 8.55965 14.6489 8.70352 14.2605L9.4111 12.35H11.5893L12.2969 14.2605C12.4408 14.6489 12.8723 14.8472 13.2607 14.7033C13.6491 14.5594 13.8474 14.1279 13.7035 13.7395L11.4813 7.73951C11.3723 7.4453 11.0917 7.25 10.778 7.25H10.2224ZM11.0337 10.85H9.96666L10.5002 9.40943L11.0337 10.85ZM16.7502 8C16.7502 7.58579 16.4144 7.25 16.0002 7.25C15.586 7.25 15.2502 7.58579 15.2502 8V14C15.2502 14.4142 15.586 14.75 16.0002 14.75C16.4144 14.75 16.7502 14.4142 16.7502 14V8Z" fill="#141B34"/>
</svg>
