<svg width="24" height="24" viewBox="0 0 24 24" fill="none" xmlns="http://www.w3.org/2000/svg">
<path fill-rule="evenodd" clip-rule="evenodd" d="M13.1662 1.53871C12.4391 1.15376 11.5609 1.15376 10.8338 1.53871C9.63189 2.17509 7.1696 3.32075 4.21644 3.8341C3.12696 4.02349 2.25 4.95478 2.25 6.12325V11.0511C2.25 14.5419 4.02964 17.2085 5.99214 19.0834C7.95205 20.9559 10.152 22.0975 11.1534 22.5619C11.6943 22.8127 12.3057 22.8127 12.8466 22.5619C13.848 22.0975 16.0479 20.9559 18.0079 19.0834C19.9704 17.2085 21.75 14.5419 21.75 11.0511V6.12325C21.75 4.95478 20.873 4.02349 19.7836 3.8341C16.8304 3.32075 14.3681 2.17509 13.1662 1.53871ZM11.2503 6.75C11.2503 6.33579 10.9145 6 10.5003 6C10.0861 6 9.7503 6.33579 9.7503 6.75V7.76772C8.98388 7.87735 8.37765 8.48358 8.26802 9.25H7.25C6.83579 9.25 6.5 9.58579 6.5 10C6.5 10.4142 6.83579 10.75 7.25 10.75H8.2503V12.25H7.25C6.83579 12.25 6.5 12.5858 6.5 13C6.5 13.4142 6.83579 13.75 7.25 13.75H8.26802C8.37765 14.5164 8.98388 15.1227 9.7503 15.2323V16.25C9.7503 16.6642 10.0861 17 10.5003 17C10.9145 17 11.2503 16.6642 11.2503 16.25V15.25H12.7503V16.25C12.7503 16.6642 13.0861 17 13.5003 17C13.9145 17 14.2503 16.6642 14.2503 16.25V15.2323C15.0167 15.1227 15.623 14.5164 15.7326 13.75H16.75C17.1642 13.75 17.5 13.4142 17.5 13C17.5 12.5858 17.1642 12.25 16.75 12.25H15.7503V10.75H16.75C17.1642 10.75 17.5 10.4142 17.5 10C17.5 9.58579 17.1642 9.25 16.75 9.25H15.7326C15.623 8.48358 15.0167 7.87735 14.2503 7.76772V6.75C14.2503 6.33579 13.9145 6 13.5003 6C13.0861 6 12.7503 6.33579 12.7503 6.75V7.75H11.2503V6.75Z" fill="#141B34"/>
</svg>
