<svg width="24" height="24" viewBox="0 0 24 24" fill="none" xmlns="http://www.w3.org/2000/svg">
<path fill-rule="evenodd" clip-rule="evenodd" d="M12 1.25C6.64617 1.25 2.25 5.03266 2.25 11C2.25 14.0182 3.87645 16.9406 5.82039 19.076C6.80001 20.152 7.88544 21.0571 8.93788 21.6984C9.97195 22.3284 11.0501 22.75 12 22.75C12.9499 22.75 14.028 22.3284 15.0621 21.6984C16.1146 21.0571 17.2 20.152 18.1796 19.076C20.1236 16.9406 21.75 14.0182 21.75 11C21.75 5.03266 17.3538 1.25 12 1.25ZM6 8.25C5.58579 8.25 5.25 8.58579 5.25 9V10.3333C5.25 12.2203 6.77969 13.75 8.66667 13.75H10C10.4142 13.75 10.75 13.4142 10.75 13L10.75 11.6667C10.75 9.77969 9.22031 8.25 7.33333 8.25H6ZM13.25 11.6667C13.25 9.77969 14.7797 8.25 16.6667 8.25H18C18.4142 8.25 18.75 8.58579 18.75 9V10.3333C18.75 12.2203 17.2203 13.75 15.3333 13.75H14C13.5858 13.75 13.25 13.4142 13.25 13L13.25 11.6667ZM10.5 16C9.94772 16 9.5 16.4477 9.5 17C9.5 17.5523 9.94772 18 10.5 18H13.5C14.0523 18 14.5 17.5523 14.5 17C14.5 16.4477 14.0523 16 13.5 16L10.5 16Z" fill="#141B34"/>
</svg>
