<svg width="24" height="24" viewBox="0 0 24 24" fill="none" xmlns="http://www.w3.org/2000/svg">
<path fill-rule="evenodd" clip-rule="evenodd" d="M5.75 2.75H17.75V4.75H5.75V2.75ZM2.75 17.75V5.75H4.75V17.75H2.75ZM20.75 5.75V17.75H18.75V5.75H20.75ZM17.75 20.75H5.75V18.75H17.75V20.75Z" fill="#141B34"/>
<path d="M17 3.75C17 2.23122 18.2312 1 19.75 1C21.2688 1 22.5 2.23122 22.5 3.75C22.5 5.26878 21.2688 6.5 19.75 6.5C18.2312 6.5 17 5.26878 17 3.75Z" fill="#141B34"/>
<path d="M1 3.75C1 2.23122 2.23122 1 3.75 1C5.26878 1 6.5 2.23122 6.5 3.75C6.5 5.26878 5.26878 6.5 3.75 6.5C2.23122 6.5 1 5.26878 1 3.75Z" fill="#141B34"/>
<path d="M17 19.75C17 18.2312 18.2312 17 19.75 17C21.2688 17 22.5 18.2312 22.5 19.75C22.5 21.2688 21.2688 22.5 19.75 22.5C18.2312 22.5 17 21.2688 17 19.75Z" fill="#141B34"/>
<path d="M1 19.75C1 18.2312 2.23122 17 3.75 17C5.26878 17 6.5 18.2312 6.5 19.75C6.5 21.2688 5.26878 22.5 3.75 22.5C2.23122 22.5 1 21.2688 1 19.75Z" fill="#141B34"/>
</svg>
