<svg width="24" height="24" viewBox="0 0 24 24" fill="none" xmlns="http://www.w3.org/2000/svg">
<path d="M11.752 2C12.3042 2 12.752 2.44772 12.752 3V21C12.752 21.5523 12.3042 22 11.752 22C11.1997 22 10.752 21.5523 10.752 21V3C10.752 2.44772 11.1997 2 11.752 2Z" fill="#141B34"/>
<path d="M7 6.00037C7 5.03359 7.78394 4.24997 8.75071 4.25037L14.7507 4.25281C15.7169 4.2532 16.5 5.03659 16.5 6.00281V8.99996C16.5 9.96646 15.7165 10.75 14.75 10.75H8.75C7.7835 10.75 7 9.96646 7 8.99996V6.00037Z" fill="#141B34"/>
<path d="M3 15C3 14.0334 3.78372 13.2498 4.75036 13.25L18.7504 13.2528C19.7167 13.253 20.5 14.0365 20.5 15.0028V17.9998C20.5 18.9663 19.7165 19.7498 18.75 19.7498H4.75C3.7835 19.7498 3 18.9663 3 17.9998V15Z" fill="#141B34"/>
</svg>
