<svg width="24" height="24" viewBox="0 0 24 24" fill="none" xmlns="http://www.w3.org/2000/svg">
<path fill-rule="evenodd" clip-rule="evenodd" d="M5.75234 1C4.23265 0.99871 3 2.2303 3 3.75V19.7483C3 21.2671 4.23122 22.4983 5.75 22.4983H18.75C20.2688 22.4983 21.5 21.2671 21.5 19.7483L21.5 3.76107C21.5 2.2432 20.2702 1.01236 18.7523 1.01107L5.75234 1ZM8.25 8.24829C7.69772 8.24829 7.25 8.69601 7.25 9.24829C7.25 9.80058 7.69772 10.2483 8.25 10.2483H17.25C17.8023 10.2483 18.25 9.80058 18.25 9.24829C18.25 8.69601 17.8023 8.24829 17.25 8.24829H8.25ZM12.6944 13.2483C12.1422 13.2483 11.6944 13.696 11.6944 14.2483C11.6944 14.8006 12.1422 15.2483 12.6944 15.2483H17.25C17.8023 15.2483 18.25 14.8006 18.25 14.2483C18.25 13.696 17.8023 13.2483 17.25 13.2483H12.6944Z" fill="#141B34"/>
</svg>
