<svg width="24" height="24" viewBox="0 0 24 24" fill="none" xmlns="http://www.w3.org/2000/svg">
<path fill-rule="evenodd" clip-rule="evenodd" d="M2.19598 7.0293C2.8719 7.29956 3.66166 7.507 4.47786 7.67024C6.47613 8.06989 9.13438 8.30069 12 8.30069C14.8656 8.30069 17.5239 8.06989 19.5221 7.67024C20.3383 7.50701 21.128 7.2996 21.8038 7.02938L21.8133 7.04733C22.5725 8.54036 23 10.2295 23 12.0155C23 18.0838 18.0737 23.0007 12 23.0007C5.92627 23.0007 1 18.0838 1 12.0155C1 10.2298 1.42742 8.54087 2.18651 7.048L2.19598 7.0293ZM7.54963 16.164C7.88082 15.9153 8.35097 15.9821 8.59973 16.3133C9.37631 17.3472 10.6102 18.0137 12 18.0137C13.3898 18.0137 14.6238 17.3472 15.4004 16.3133C15.6491 15.9821 16.1193 15.9153 16.4505 16.164C16.7817 16.4128 16.8485 16.8829 16.5997 17.2141C15.5521 18.609 13.8816 19.5137 12 19.5137C10.1184 19.5137 8.44801 18.609 7.40036 17.2141C7.1516 16.8829 7.21843 16.4128 7.54963 16.164ZM14.75 12.2637C14.75 11.8495 15.0858 11.5137 15.5 11.5137C15.9142 11.5137 16.25 11.8495 16.25 12.2637C16.25 12.6779 16.5858 13.0137 17 13.0137C17.4142 13.0137 17.75 12.6779 17.75 12.2637C17.75 11.021 16.7426 10.0137 15.5 10.0137C14.2574 10.0137 13.25 11.021 13.25 12.2637C13.25 12.6779 13.5858 13.0137 14 13.0137C14.4142 13.0137 14.75 12.6779 14.75 12.2637ZM7.75 12.2637C7.75 11.8495 8.08577 11.5137 8.5 11.5137C8.91423 11.5137 9.25 11.8495 9.25 12.2637C9.25 12.6779 9.58579 13.0137 10 13.0137C10.4142 13.0137 10.75 12.6779 10.75 12.2637C10.75 11.021 9.74263 10.0137 8.5 10.0137C7.25737 10.0137 6.25 11.021 6.25 12.2637C6.25 12.6779 6.58579 13.0137 7 13.0137C7.41421 13.0137 7.75 12.6779 7.75 12.2637Z" fill="#141B34"/>
<path fill-rule="evenodd" clip-rule="evenodd" d="M3.51233 4C3.90599 4.14849 4.44529 4.29768 5.12505 4.43363C6.85268 4.77916 9.28388 5 12 5C14.7161 5 17.1473 4.77916 18.875 4.43363C19.5547 4.29768 20.094 4.14849 20.4877 4C20.094 3.85151 19.5547 3.70232 18.875 3.56637C17.1473 3.22084 14.7161 3 12 3C9.28388 3 6.85268 3.22084 5.12505 3.56637C4.44529 3.70232 3.90599 3.85151 3.51233 4ZM4.73282 1.60521C6.62447 1.22687 9.19328 1 12 1C14.8067 1 17.3755 1.22687 19.2672 1.60521C20.2048 1.79272 21.0283 2.02749 21.6416 2.31748C21.9457 2.46128 22.2519 2.64336 22.4958 2.88178C22.7414 3.12183 23 3.49826 23 4C23 4.50174 22.7414 4.87817 22.4958 5.11822C22.2519 5.35664 21.9457 5.53872 21.6416 5.68252C21.0283 5.97251 20.2048 6.20728 19.2672 6.39479C17.3755 6.77313 14.8067 7 12 7C9.19328 7 6.62447 6.77313 4.73282 6.39479C3.79523 6.20728 2.97166 5.97251 2.35838 5.68252C2.05427 5.53872 1.74814 5.35664 1.50419 5.11822C1.25858 4.87817 1 4.50174 1 4C1 3.49826 1.25858 3.12183 1.50419 2.88178C1.74814 2.64336 2.05427 2.46128 2.35838 2.31748C2.97166 2.02749 3.79523 1.79272 4.73282 1.60521Z" fill="#141B34"/>
</svg>
