<svg width="24" height="24" viewBox="0 0 24 24" fill="none" xmlns="http://www.w3.org/2000/svg">
<path fill-rule="evenodd" clip-rule="evenodd" d="M19.621 10.7663C20.6588 11.0702 21.609 11.4359 22.4472 11.8547C22.9412 12.1016 23.1416 12.7022 22.8948 13.1962C22.6479 13.6903 22.0473 13.8907 21.5532 13.6438C19.27 12.5029 15.8624 11.7493 12.0002 11.7493C8.13801 11.7493 4.73041 12.5029 2.4472 13.6438C1.95316 13.8907 1.35254 13.6903 1.10568 13.1962C0.858815 12.7022 1.05919 12.1016 1.55324 11.8547C2.39167 11.4358 3.34214 11.07 4.38034 10.766L5.27505 4.34172C5.56956 2.22707 8.08808 1.2895 9.73493 2.60881C9.74576 2.61748 9.75634 2.62645 9.76666 2.63571C10.526 3.31649 11.288 3.61049 12.0006 3.61049C12.7133 3.61049 13.4753 3.31649 14.2346 2.63571C14.2449 2.62645 14.2555 2.61748 14.2664 2.60881C15.9132 1.2895 18.4317 2.22707 18.7262 4.34172L19.621 10.7663ZM7 15.7491C5.89543 15.7491 5 16.6446 5 17.7491C5 18.8537 5.89543 19.7491 7 19.7491C8.10457 19.7491 9 18.8537 9 17.7491C9 16.6446 8.10457 15.7491 7 15.7491ZM3 17.7491C3 15.54 4.79086 13.7491 7 13.7491C8.48057 13.7491 9.77325 14.5535 10.4649 15.7491L13.5351 15.7491C14.2267 14.5535 15.5194 13.7491 17 13.7491C19.2091 13.7491 21 15.54 21 17.7491C21 19.9583 19.2091 21.7491 17 21.7491C14.7909 21.7491 13 19.9583 13 17.7491L11 17.7491C11 19.9583 9.20914 21.7491 7 21.7491C4.79086 21.7491 3 19.9583 3 17.7491ZM17 15.7491C15.8954 15.7491 15 16.6446 15 17.7491C15 18.8537 15.8954 19.7491 17 19.7491C18.1046 19.7491 19 18.8537 19 17.7491C19 16.6446 18.1046 15.7491 17 15.7491Z" fill="#141B34"/>
</svg>
