<svg width="24" height="24" viewBox="0 0 24 24" fill="none" xmlns="http://www.w3.org/2000/svg">
<path fill-rule="evenodd" clip-rule="evenodd" d="M4.5 1.75C2.98122 1.75 1.75 2.98122 1.75 4.5L1.75 19.5C1.75 21.0188 2.98122 22.25 4.5 22.25L19.5 22.25C21.0188 22.25 22.25 21.0188 22.25 19.5L22.25 4.5C22.25 2.98122 21.0188 1.75 19.5 1.75L4.5 1.75ZM11.6431 6.61424C11.43 6.25906 10.9693 6.14388 10.6141 6.35699C10.2589 6.5701 10.1438 7.0308 10.3569 7.38599L11.1254 8.66678L8.37536 13.2501H6.5C6.08579 13.2501 5.75 13.5859 5.75 14.0001C5.75 14.4143 6.08579 14.7501 6.5 14.7501H7.47536L6.35688 16.6142C6.14377 16.9694 6.25894 17.4301 6.61413 17.6432C6.96931 17.8563 7.43001 17.7412 7.64312 17.386L9.22464 14.7501H12.5C12.9142 14.7501 13.25 14.4143 13.25 14.0001C13.25 13.5859 12.9142 13.2501 12.5 13.2501H10.1246L12.6351 9.06596C12.6404 9.05755 12.6455 9.04905 12.6504 9.04045L13.6431 7.38599C13.8562 7.0308 13.7411 6.5701 13.3859 6.35699C13.0307 6.14388 12.57 6.25906 12.3569 6.61424L12 7.20904L11.6431 6.61424ZM14.0431 10.6142C13.83 10.2591 13.3693 10.1439 13.0141 10.357C12.6589 10.5701 12.5438 11.0308 12.7569 11.386L16.3569 17.386C16.57 17.7412 17.0307 17.8563 17.3859 17.6432C17.7411 17.4301 17.8562 16.9694 17.6431 16.6142L16.5246 14.7501H17.5C17.9142 14.7501 18.25 14.4143 18.25 14.0001C18.25 13.5859 17.9142 13.2501 17.5 13.2501H15.6246L14.0431 10.6142Z" fill="#141B34"/>
</svg>
