<svg width="24" height="24" viewBox="0 0 24 24" fill="none" xmlns="http://www.w3.org/2000/svg">
<path fill-rule="evenodd" clip-rule="evenodd" d="M5.5 1.25C6.05228 1.25 6.5 1.69772 6.5 2.25V3.25H15.5V2.25C15.5 1.69772 15.9477 1.25 16.5 1.25C17.0523 1.25 17.5 1.69772 17.5 2.25V3.25H17.75C19.4069 3.25 20.75 4.59315 20.75 6.25V12.0004C20.75 12.5526 20.3023 13.0004 19.75 13.0004C19.1977 13.0004 18.75 12.5526 18.75 12.0004V9.25H3.25V19.7507C3.25 20.303 3.69772 20.7507 4.25 20.7507H11C11.5523 20.7507 12 21.1984 12 21.7507C12 22.303 11.5523 22.7507 11 22.7507H4.25C2.59315 22.7507 1.25 21.4076 1.25 19.7507V6.25C1.25 4.59315 2.59315 3.25 4.25 3.25H4.5V2.25C4.5 1.69772 4.94772 1.25 5.5 1.25ZM22.4872 16.4257C22.8603 16.0186 22.8328 15.386 22.4257 15.0129C22.0186 14.6397 21.386 14.6672 21.0128 15.0743L16.2186 20.3044L14.4571 18.5429C14.0666 18.1524 13.4334 18.1524 13.0429 18.5429C12.6524 18.9334 12.6524 19.5666 13.0429 19.9571L15.5429 22.4571C15.7358 22.65 15.999 22.7557 16.2717 22.7498C16.5444 22.7438 16.8028 22.6268 16.9872 22.4257L22.4872 16.4257Z" fill="#141B34"/>
</svg>
