<svg width="24" height="24" viewBox="0 0 24 24" fill="none" xmlns="http://www.w3.org/2000/svg">
<path fill-rule="evenodd" clip-rule="evenodd" d="M5.75 1C3.67893 1 2 2.67893 2 4.75V11H21.5V4.75C21.5 2.67893 19.8211 1 17.75 1H5.75ZM21.5 12.5H2V18.75C2 20.8211 3.67893 22.5 5.75 22.5H17.75C19.8211 22.5 21.5 20.8211 21.5 18.75V12.5ZM8 6.75C8 6.33579 8.33579 6 8.75 6H14.75C15.1642 6 15.5 6.33579 15.5 6.75C15.5 7.16421 15.1642 7.5 14.75 7.5H8.75C8.33579 7.5 8 7.16421 8 6.75ZM8.75 16C8.33579 16 8 16.3358 8 16.75C8 17.1642 8.33579 17.5 8.75 17.5H14.75C15.1642 17.5 15.5 17.1642 15.5 16.75C15.5 16.3358 15.1642 16 14.75 16H8.75Z" fill="#141B34"/>
</svg>
