<svg width="24" height="24" viewBox="0 0 24 24" fill="none" xmlns="http://www.w3.org/2000/svg">
<path fill-rule="evenodd" clip-rule="evenodd" d="M17.5 3C18.0523 3 18.5 3.44772 18.5 4V16.5H20C20.4045 16.5 20.7691 16.7436 20.9239 17.1173C21.0787 17.491 20.9931 17.9211 20.7071 18.2071L18.2071 20.7071C18.0196 20.8946 17.7652 21 17.5 21C17.2348 21 16.9805 20.8946 16.7929 20.7071L14.2929 18.2071C14.0069 17.9211 13.9214 17.491 14.0761 17.1173C14.2309 16.7436 14.5956 16.5 15 16.5H16.5V4C16.5 3.44772 16.9477 3 17.5 3Z" fill="#141B34"/>
<path fill-rule="evenodd" clip-rule="evenodd" d="M3 3C3 2.44772 3.44772 2 4 2H9.4C9.77114 2 10.1118 2.20555 10.2847 2.53391C10.4577 2.86228 10.4346 3.25944 10.2247 3.56553L6.49823 9H10C10.5523 9 11 9.44772 11 10C11 10.5523 10.5523 11 10 11H4.6C4.22886 11 3.88824 10.7944 3.71526 10.4661C3.54228 10.1377 3.56538 9.74056 3.77527 9.43447L7.50177 4H4C3.44772 4 3 3.55228 3 3Z" fill="#141B34"/>
<path fill-rule="evenodd" clip-rule="evenodd" d="M7.00022 14C7.37899 14 7.72525 14.214 7.89465 14.5528L10.8946 20.5528C11.1416 21.0468 10.9414 21.6474 10.4474 21.8944C9.95345 22.1414 9.35278 21.9412 9.10579 21.4472L7.00022 17.2361L4.89465 21.4472C4.64766 21.9412 4.04698 22.1414 3.55301 21.8944C3.05903 21.6474 2.8588 21.0468 3.10579 20.5528L6.10579 14.5528C6.27518 14.214 6.62145 14 7.00022 14Z" fill="#141B34"/>
</svg>
