<svg width="24" height="24" viewBox="0 0 24 24" fill="none" xmlns="http://www.w3.org/2000/svg">
<path fill-rule="evenodd" clip-rule="evenodd" d="M4.41067 6.77271C5.27655 5.75731 6.53599 5 8.00001 5H13C13.5523 5 14 5.44772 14 6C14 6.55228 13.5523 7 13 7H8.00001C7.25489 7 6.51432 7.38812 5.93248 8.07043C5.34916 8.75449 5 9.65369 5 10.5C5 11.3463 5.34916 12.2455 5.93248 12.9296C6.51432 13.6119 7.25489 14 8.00001 14H16V12C16 11.5955 16.2436 11.2309 16.6173 11.0761C16.991 10.9213 17.4211 11.0069 17.7071 11.2929L20.7071 14.2929C21.0976 14.6834 21.0976 15.3166 20.7071 15.7071L17.7071 18.7071C17.4211 18.9931 16.991 19.0787 16.6173 18.9239C16.2436 18.7691 16 18.4045 16 18V16H8.00001C6.53599 16 5.27655 15.2427 4.41067 14.2273C3.54628 13.2136 3 11.8628 3 10.5C3 9.13716 3.54628 7.78636 4.41067 6.77271Z" fill="#141B34"/>
</svg>
