<svg width="24" height="24" viewBox="0 0 24 24" fill="none" xmlns="http://www.w3.org/2000/svg">
<path fill-rule="evenodd" clip-rule="evenodd" d="M2.29291 2.29315C2.68343 1.90262 3.3166 1.90261 3.70713 2.29313L9.5 8.08583V5.5C9.5 4.94772 9.94772 4.5 10.5 4.5C11.0523 4.5 11.5 4.94772 11.5 5.5V10.5C11.5 11.0523 11.0523 11.5 10.5 11.5H5.5C4.94772 11.5 4.5 11.0523 4.5 10.5C4.5 9.94772 4.94772 9.5 5.5 9.5H8.08574L2.29293 3.70736C1.9024 3.31684 1.90239 2.68368 2.29291 2.29315Z" fill="#141B34"/>
<path fill-rule="evenodd" clip-rule="evenodd" d="M12.5 13.5C12.5 12.9477 12.9477 12.5 13.5 12.5H18.5C19.0523 12.5 19.5 12.9477 19.5 13.5C19.5 14.0523 19.0523 14.5 18.5 14.5H15.9142L21.7071 20.2931C22.0977 20.6837 22.0977 21.3168 21.7071 21.7074C21.3166 22.0979 20.6834 22.0979 20.2929 21.7073L14.5 15.9143V18.5C14.5 19.0523 14.0523 19.5 13.5 19.5C12.9477 19.5 12.5 19.0523 12.5 18.5V13.5Z" fill="#141B34"/>
</svg>
