<svg width="24" height="24" viewBox="0 0 24 24" fill="none" xmlns="http://www.w3.org/2000/svg">
<path fill-rule="evenodd" clip-rule="evenodd" d="M8.07042 5.93249C7.3881 6.51433 6.99998 7.25491 6.99998 8.00003V13C6.99998 13.5523 6.55226 14 5.99998 14C5.44769 14 4.99998 13.5523 4.99998 13V8.00003C4.99998 6.536 5.75729 5.27656 6.7727 4.41068C7.78636 3.54628 9.13716 3 10.5 3C11.8628 3 13.2136 3.54628 14.2273 4.41067C15.2427 5.27655 16 6.53599 16 8.00001L16 16H18C18.4045 16 18.7691 16.2436 18.9239 16.6173C19.0787 16.991 18.9931 17.4211 18.7071 17.7071L15.7071 20.7071C15.3166 21.0976 14.6834 21.0976 14.2929 20.7071L11.2929 17.7071C11.0069 17.4211 10.9213 16.991 11.0761 16.6173C11.2309 16.2436 11.5955 16 12 16H14L14 8.00001C14 7.25489 13.6119 6.51432 12.9296 5.93248C12.2455 5.34916 11.3463 5 10.5 5C9.65369 5 8.75448 5.34916 8.07042 5.93249Z" fill="#141B34"/>
</svg>
