<svg width="24" height="24" viewBox="0 0 24 24" fill="none" xmlns="http://www.w3.org/2000/svg">
<path fill-rule="evenodd" clip-rule="evenodd" d="M9.99997 6C9.99997 5.44772 10.4477 5 11 5H16C17.464 5 18.7234 5.75731 19.5893 6.77271C20.4537 7.78636 21 9.13716 21 10.5C21 11.8628 20.4537 13.2136 19.5893 14.2273C18.7235 15.2427 17.464 16 16 16H8V18C8 18.4045 7.75636 18.7691 7.38268 18.9239C7.00901 19.0787 6.57889 18.9931 6.29289 18.7071L3.29289 15.7071C2.90237 15.3166 2.90237 14.6834 3.29289 14.2929L6.29289 11.2929C6.57889 11.0069 7.00901 10.9213 7.38268 11.0761C7.75636 11.2309 8 11.5955 8 12V14H16C16.7451 14 17.4857 13.6119 18.0675 12.9296C18.6508 12.2455 19 11.3463 19 10.5C19 9.65369 18.6508 8.75449 18.0675 8.07043C17.4857 7.38812 16.7451 7 16 7H11C10.4477 7 9.99997 6.55228 9.99997 6Z" fill="#141B34"/>
</svg>
