<svg width="24" height="24" viewBox="0 0 24 24" fill="none" xmlns="http://www.w3.org/2000/svg">
<path fill-rule="evenodd" clip-rule="evenodd" d="M5 7.00012C5 5.34327 6.34314 4.00012 8 4.00012L21.0006 4.00013C21.5529 4.00013 22.0006 4.44784 22.0006 5.00013C22.0006 5.55241 21.5529 6.00013 21.0006 6.00013L8 6.00012C7.44771 6.00012 7 6.44784 7 7.00012V22.0001C7 22.5524 6.55228 23.0001 6 23.0001C5.44772 23.0001 5 22.5524 5 22.0001V7.00012Z" fill="#141B34"/>
<path fill-rule="evenodd" clip-rule="evenodd" d="M17.2929 1.29288C17.6834 0.902362 18.3166 0.902375 18.7071 1.29291L21.7071 4.29303C21.8947 4.48057 22 4.73493 22 5.00014C22 5.26536 21.8946 5.51971 21.7071 5.70724L18.7071 8.70712C18.3166 9.09764 17.6834 9.09762 17.2929 8.70709C16.9024 8.31656 16.9024 7.68339 17.2929 7.29288L19.5858 5.00009L17.2929 2.70709C16.9024 2.31656 16.9024 1.6834 17.2929 1.29288Z" fill="#141B34"/>
<path fill-rule="evenodd" clip-rule="evenodd" d="M2.29288 18.2929C2.68339 17.9024 3.31656 17.9024 3.70709 18.2929L6 20.5857L8.29291 18.2929C8.68344 17.9024 9.31661 17.9024 9.70712 18.2929C10.0976 18.6834 10.0976 19.3166 9.70709 19.7071L6.70709 22.707C6.31657 23.0975 5.68343 23.0975 5.29291 22.707L2.29291 19.7071C1.90238 19.3166 1.90236 18.6834 2.29288 18.2929Z" fill="#141B34"/>
</svg>
