<svg width="24" height="24" viewBox="0 0 24 24" fill="none" xmlns="http://www.w3.org/2000/svg">
<path fill-rule="evenodd" clip-rule="evenodd" d="M6.68377 10.0513C7.04311 9.93154 7.43928 10.0251 7.70711 10.2929L13.7071 16.2929C13.9749 16.5607 14.0685 16.9569 13.9487 17.3162C13.8289 17.6756 13.5164 17.9364 13.1414 17.9899L6.14142 18.9899C5.82983 19.0345 5.51546 18.9297 5.2929 18.7071C5.07033 18.4845 4.96554 18.1702 5.01005 17.8586L6.01005 10.8586C6.06362 10.4836 6.32444 10.1711 6.68377 10.0513Z" fill="#141B34"/>
<path fill-rule="evenodd" clip-rule="evenodd" d="M18.7045 5.29278C19.095 5.68324 19.0951 6.31641 18.7047 6.70699L10.7072 14.707C10.3168 15.0976 9.68359 15.0977 9.29301 14.7072C8.90242 14.3168 8.90232 13.6836 9.29278 13.293L17.2902 5.29301C17.6807 4.90242 18.3139 4.90232 18.7045 5.29278Z" fill="#141B34"/>
</svg>
