<svg width="24" height="24" viewBox="0 0 24 24" fill="none" xmlns="http://www.w3.org/2000/svg">
<path fill-rule="evenodd" clip-rule="evenodd" d="M4 2C4.55228 2 5 2.44772 5 3V15.9999C5 16.5522 5.44771 16.9999 5.99999 16.9999L20 17C20.5523 17 21 17.4477 21 18C21 18.5523 20.5523 19 20 19L5.99997 18.9999C4.34313 18.9999 3 17.6567 3 15.9999V3C3 2.44772 3.44772 2 4 2Z" fill="#141B34"/>
<path fill-rule="evenodd" clip-rule="evenodd" d="M16.2929 14.2929C15.9024 14.6834 15.9024 15.3166 16.2929 15.7071L18.5858 18L16.2929 20.2929C15.9024 20.6834 15.9024 21.3166 16.2929 21.7071C16.6834 22.0976 17.3166 22.0976 17.7071 21.7071L20.7071 18.7071C21.0976 18.3166 21.0976 17.6834 20.7071 17.2929L17.7071 14.2929C17.3166 13.9024 16.6834 13.9024 16.2929 14.2929Z" fill="#141B34"/>
</svg>
