<svg width="24" height="24" viewBox="0 0 24 24" fill="none" xmlns="http://www.w3.org/2000/svg">
<path fill-rule="evenodd" clip-rule="evenodd" d="M9.38041 2.12028C9.17284 1.76673 8.71985 1.64537 8.36333 1.84779L4.89923 3.8146C4.72461 3.91374 4.59704 4.07876 4.54508 4.27272C4.49312 4.46667 4.5211 4.67337 4.62276 4.84653C5.76109 6.78545 4.30575 9.28324 2 9.28324C1.58579 9.28324 1.25 9.61902 1.25 10.0332V13.9669C1.25 14.3811 1.58579 14.7169 2 14.7169C4.30517 14.7169 5.75974 17.2141 4.62118 19.1535C4.51952 19.3266 4.49154 19.5333 4.5435 19.7273C4.59546 19.9212 4.72303 20.0863 4.89765 20.1854L8.36175 22.1522C8.71827 22.3546 9.17126 22.2333 9.37882 21.8797C10.5539 19.8782 13.4477 19.8782 14.6228 21.8796C14.8303 22.2332 15.2833 22.3545 15.6398 22.1521L19.1039 20.1853C19.2786 20.0862 19.4061 19.9211 19.4581 19.7272C19.51 19.5332 19.4821 19.3265 19.3804 19.1534C18.2416 17.2136 19.6954 14.7169 22 14.7169C22.4142 14.7169 22.75 14.3811 22.75 13.9669V10.0332C22.75 9.61902 22.4142 9.28324 22 9.28324C19.6948 9.28324 18.2403 6.78596 19.3788 4.84662C19.4805 4.67346 19.5085 4.46677 19.4565 4.27281C19.4045 4.07886 19.277 3.91384 19.1024 3.8147L15.6383 1.84789C15.2817 1.64546 14.8287 1.76683 14.6212 2.12038C13.4469 4.12059 10.5548 4.12055 9.38041 2.12028ZM10.2224 8.25C9.90868 8.25 9.62808 8.4453 9.51911 8.73951L7.29689 14.7395C7.15303 15.1279 7.35129 15.5594 7.73972 15.7033C8.12815 15.8472 8.55965 15.6489 8.70352 15.2605L9.4111 13.35H11.5893L12.2969 15.2605C12.4408 15.6489 12.8723 15.8472 13.2607 15.7033C13.6491 15.5594 13.8474 15.1279 13.7035 14.7395L11.4813 8.73951C11.3723 8.4453 11.0917 8.25 10.778 8.25H10.2224ZM11.0337 11.85H9.96666L10.5002 10.4094L11.0337 11.85ZM16.2502 9C16.2502 8.58579 15.9144 8.25 15.5002 8.25C15.086 8.25 14.7502 8.58579 14.7502 9V15C14.7502 15.4142 15.086 15.75 15.5002 15.75C15.9144 15.75 16.2502 15.4142 16.2502 15V9Z" fill="#141B34"/>
</svg>
