<svg width="24" height="24" viewBox="0 0 24 24" fill="none" xmlns="http://www.w3.org/2000/svg">
<path fill-rule="evenodd" clip-rule="evenodd" d="M12 4C7.58172 4 4 7.58172 4 12C4 16.4183 7.58172 20 12 20C13.8025 20 15.4631 19.4051 16.8002 18.4005C17.2417 18.0688 17.8686 18.1578 18.2004 18.5993C18.5321 19.0409 18.4431 19.6677 18.0016 19.9995C16.33 21.2554 14.2505 22 12 22C6.47715 22 2 17.5228 2 12C2 6.47715 6.47715 2 12 2C17.5228 2 22 6.47715 22 12V12.9003C22 14.9438 20.3435 16.6003 18.3 16.6003C17.1003 16.6003 16.034 16.0293 15.3579 15.1443C14.5186 16.0404 13.3247 16.6003 12 16.6003C9.45949 16.6003 7.4 14.5408 7.4 12.0003C7.4 9.45982 9.45949 7.40033 12 7.40033C12.9722 7.40033 13.874 7.70193 14.6168 8.21667C14.7031 7.75211 15.1104 7.40033 15.6 7.40033C16.1523 7.40033 16.6 7.84804 16.6 8.40033V12.9003C16.6 13.8392 17.3611 14.6003 18.3 14.6003C19.2389 14.6003 20 13.8392 20 12.9003V12C20 7.58172 16.4183 4 12 4ZM14.6 12.0003C14.6 10.5644 13.4359 9.40033 12 9.40033C10.5641 9.40033 9.4 10.5644 9.4 12.0003C9.4 13.4363 10.5641 14.6003 12 14.6003C13.4359 14.6003 14.6 13.4363 14.6 12.0003Z" fill="#141B34"/>
</svg>
