<svg width="24" height="24" viewBox="0 0 24 24" fill="none" xmlns="http://www.w3.org/2000/svg">
<path fill-rule="evenodd" clip-rule="evenodd" d="M20 5.5H4C2.89543 5.5 2 6.39543 2 7.5V19C2 20.1046 2.89543 21 4 21H20C21.1046 21 22 20.1046 22 19V7.5C22 6.39543 21.1046 5.5 20 5.5ZM17 7.75C17.4142 7.75 17.75 8.08579 17.75 8.5V9.75H19C19.4142 9.75 19.75 10.0858 19.75 10.5C19.75 10.9142 19.4142 11.25 19 11.25H17.75V12.5C17.75 12.9142 17.4142 13.25 17 13.25C16.5858 13.25 16.25 12.9142 16.25 12.5V11.25H15C14.5858 11.25 14.25 10.9142 14.25 10.5C14.25 10.0858 14.5858 9.75 15 9.75H16.25V8.5C16.25 8.08579 16.5858 7.75 17 7.75ZM5 9.75C4.58579 9.75 4.25 10.0858 4.25 10.5C4.25 10.9142 4.58579 11.25 5 11.25H9C9.41421 11.25 9.75 10.9142 9.75 10.5C9.75 10.0858 9.41421 9.75 9 9.75H5Z" fill="#141B34"/>
<path d="M5.5 2.25C5.08579 2.25 4.75 2.58579 4.75 3V4H9.75V3C9.75 2.58579 9.41421 2.25 9 2.25H5.5Z" fill="#141B34"/>
<path d="M19.25 4H14.25V3C14.25 2.58579 14.5858 2.25 15 2.25H18.5C18.9142 2.25 19.25 2.58579 19.25 3V4Z" fill="#141B34"/>
</svg>
