<svg width="24" height="24" viewBox="0 0 24 24" fill="none" xmlns="http://www.w3.org/2000/svg">
<path fill-rule="evenodd" clip-rule="evenodd" d="M2.50001 3C1.94772 3 1.5 3.44771 1.5 3.99999C1.5 4.55228 1.94771 5 2.49999 5L3 5L3 15L3 18L3 20C3 20.5523 3.44772 21 4 21C4.55228 21 5 20.5523 5 20V19L19 19V20C19 20.5523 19.4477 21 20 21C20.5523 21 21 20.5523 21 20V18V15L21 5H21.5C22.0523 5 22.5 4.55228 22.5 4C22.5 3.44772 22.0523 3 21.5 3H21C19.8954 3 19 3.89543 19 5V6L5 6L5 5C5 3.89544 4.10458 3.00001 3.00001 3L2.50001 3ZM19 14L19 8L17 8L17 14H19ZM15 14L15 8L13 8L13 14H15ZM11 14L11 8L9 8L9 14H11ZM7 14L7 8L5 8L5 14L7 14Z" fill="#141B34"/>
</svg>
