<svg width="24" height="24" viewBox="0 0 24 24" fill="none" xmlns="http://www.w3.org/2000/svg">
<path d="M9.25 5C9.25 4.0335 10.0335 3.25 11 3.25H13C13.9665 3.25 14.75 4.0335 14.75 5V19C14.75 19.9665 13.9665 20.75 13 20.75H11C10.0335 20.75 9.25 19.9665 9.25 19V5Z" fill="#141B34"/>
<path d="M16.25 5C16.25 4.0335 17.0335 3.25 18 3.25H20C20.9665 3.25 21.75 4.0335 21.75 5V9C21.75 9.9665 20.9665 10.75 20 10.75H18C17.0335 10.75 16.25 9.9665 16.25 9V5Z" fill="#141B34"/>
<path d="M2.25 5C2.25 4.0335 3.0335 3.25 4 3.25H6C6.9665 3.25 7.75 4.0335 7.75 5V13C7.75 13.9665 6.9665 14.75 6 14.75H4C3.0335 14.75 2.25 13.9665 2.25 13V5Z" fill="#141B34"/>
</svg>
