<svg width="24" height="24" viewBox="0 0 24 24" fill="none" xmlns="http://www.w3.org/2000/svg">
<path fill-rule="evenodd" clip-rule="evenodd" d="M4.54731 4.32497C4.21742 5.47958 4 7.13278 4 9C4 10.8672 4.21742 12.5204 4.54731 13.675C4.69658 14.1975 4.85628 14.5726 5 14.8113C5.14372 14.5726 5.30342 14.1975 5.45269 13.675C5.78258 12.5204 6 10.8672 6 9C6 7.13278 5.78258 5.47958 5.45269 4.32497C5.30342 3.80251 5.14372 3.42735 5 3.18867C4.85628 3.42735 4.69658 3.80251 4.54731 4.32497ZM3.39285 1.99033C3.69178 1.54781 4.21636 1 5 1C5.78364 1 6.30822 1.54781 6.60715 1.99033C6.92965 2.46776 7.1807 3.09289 7.37574 3.77553C7.76971 5.15442 8 7.00123 8 9C8 10.9988 7.76971 12.8456 7.37574 14.2245C7.1807 14.9071 6.92965 15.5322 6.60715 16.0097C6.30822 16.4522 5.78364 17 5 17C4.21636 17 3.69178 16.4522 3.39285 16.0097C3.07035 15.5322 2.8193 14.9071 2.62426 14.2245C2.23029 12.8456 2 10.9988 2 9C2 7.00123 2.23029 5.15442 2.62426 3.77553C2.8193 3.09289 3.07035 2.46776 3.39285 1.99033Z" fill="#141B34"/>
<path d="M11.648 16.0608L14.2358 15.6911L14.2584 15.6876L14.6113 15.6289L12.751 17.8612L16.655 21.2447C17.0723 21.6064 17.1174 22.2379 16.7557 22.6553C16.394 23.0727 15.7625 23.1178 15.3451 22.7561L11.4704 19.398L8.76825 22.6406C8.41468 23.0648 7.78412 23.1222 7.35984 22.7686C6.93556 22.415 6.87824 21.7845 7.2318 21.3602L9.95873 18.0879L8.18982 16.5548L10.8114 16.1803L11.2393 16.5511L11.648 16.0608Z" fill="#141B34"/>
<path d="M4.01018 1.85858C4.08828 1.31185 4.59482 0.931951 5.14155 1.01006L16.2518 2.59725C17.9018 2.83295 19.3592 3.4399 20.4061 4.54174C21.4647 5.65589 22.0001 7.16727 22.0001 9.00001C22.0001 11.2033 20.9838 14.1325 18.3094 15.0022C18.2619 15.0176 18.2134 15.0295 18.1642 15.0377L14.6113 15.6286L18.7682 10.6402C19.1218 10.2159 19.0645 9.58537 18.6402 9.2318C18.2159 8.87824 17.5854 8.93556 17.2318 9.35984L11.648 16.0604L10.8114 16.18L8.18982 16.5545L5.14155 16.99C4.59482 17.0681 4.08828 16.6882 4.01018 16.1414C3.93207 15.5947 4.31197 15.0882 4.8587 15.0101L8.93094 14.4283C8.93923 14.4075 8.94793 14.3855 8.95699 14.362C9.04161 14.1435 9.15796 13.8099 9.27549 13.3692C9.51048 12.488 9.75016 11.1781 9.75016 9.49998C9.75016 7.30536 9.50645 5.73809 9.27011 4.73379C9.15189 4.23144 9.03534 3.86918 8.9516 3.63901C8.94284 3.61492 8.93443 3.59227 8.92642 3.57106L4.85871 2.98995C4.31197 2.91185 3.93207 2.40532 4.01018 1.85858Z" fill="#141B34"/>
</svg>
