<svg width="24" height="24" viewBox="0 0 24 24" fill="none" xmlns="http://www.w3.org/2000/svg">
<path fill-rule="evenodd" clip-rule="evenodd" d="M1.25 12C1.25 6.06294 6.06294 1.25 12 1.25H12.5351C12.8032 1.25 13.0509 1.39307 13.1848 1.62527C13.3187 1.85748 13.3186 2.14351 13.1843 2.37554C12.9082 2.85281 12.75 3.40679 12.75 4C12.75 5.79493 14.2051 7.25 16 7.25C16.2081 7.25 16.569 7.17177 16.9396 7.06395C17.1115 7.01391 17.2655 6.96359 17.3766 6.92574C17.4319 6.9069 17.4759 6.89133 17.5056 6.8807L17.5388 6.86869L17.5465 6.86588L17.5477 6.86541C17.778 6.77963 18.0357 6.812 18.2375 6.95214C18.4393 7.0923 18.5597 7.32244 18.5597 7.56817C18.5597 8.61932 18.8857 9.2635 19.2967 9.64906C19.7181 10.0444 20.3166 10.25 21 10.25C21.2461 10.25 21.4815 10.2108 21.7013 10.1388C21.9155 10.0686 22.1499 10.0985 22.3396 10.2202C22.5293 10.3418 22.6543 10.5424 22.6799 10.7663C22.7262 11.1714 22.75 11.5831 22.75 12C22.75 17.9371 17.9371 22.75 12 22.75C6.06294 22.75 1.25 17.9371 1.25 12ZM15.0078 11C15.0078 11.5523 14.5601 12 14.0078 12H13.9988C13.4465 12 12.9988 11.5523 12.9988 11C12.9988 10.4477 13.4465 10 13.9988 10H14.0078C14.5601 10 15.0078 10.4477 15.0078 11ZM8.00781 17C8.5601 17 9.00781 16.5523 9.00781 16C9.00781 15.4477 8.5601 15 8.00781 15H7.99883C7.44655 15 6.99883 15.4477 6.99883 16C6.99883 16.5523 7.44655 17 7.99883 17H8.00781ZM6.83059 7.52969C7.37551 7.22105 8.06466 7.12144 8.69214 7.47098C9.29937 7.80923 9.60898 8.43578 9.70959 9.04586C9.81178 9.66551 9.7201 10.3593 9.43729 11C9.15521 11.6391 8.70877 12.1653 8.16945 12.4708C7.62453 12.7794 6.93538 12.8791 6.30789 12.5295C5.70067 12.1913 5.39105 11.5647 5.29045 10.9546C5.18826 10.335 5.27994 9.64124 5.56275 9.00048C5.84483 8.36137 6.29127 7.83516 6.83059 7.52969ZM7.56985 8.83487C7.35698 8.95544 7.10977 9.21025 6.93503 9.60616C6.76102 10.0004 6.71919 10.3997 6.77046 10.7106C6.8233 11.031 6.95409 11.1725 7.03784 11.2191C7.10134 11.2545 7.22292 11.283 7.43019 11.1656C7.64305 11.0451 7.89027 10.7902 8.06501 10.3943C8.23902 10.0001 8.28085 9.60079 8.22958 9.28992C8.17674 8.96948 8.04595 8.82804 7.96219 8.78139C7.8987 8.74602 7.77712 8.71748 7.56985 8.83487ZM15.526 14.4599C14.4026 13.9267 13.0707 14.443 12.5096 15.5262C11.9406 16.6245 12.327 17.9952 13.4719 18.5386C14.5953 19.0717 15.9272 18.5555 16.4883 17.4723C17.0573 16.374 16.6709 15.0033 15.526 14.4599ZM13.8415 16.2162C14.0596 15.7952 14.5444 15.6544 14.8828 15.815C15.1998 15.9654 15.3667 16.3764 15.1564 16.7823C14.9383 17.2033 14.4535 17.3441 14.1151 17.1835C13.7981 17.033 13.6312 16.622 13.8415 16.2162Z" fill="#141B34"/>
</svg>
