<svg width="24" height="24" viewBox="0 0 24 24" fill="none" xmlns="http://www.w3.org/2000/svg">
<path fill-rule="evenodd" clip-rule="evenodd" d="M11.75 1C5.81294 1 1 5.81293 1 11.75C1 17.6871 5.81294 22.5 11.75 22.5C17.6871 22.5 22.5 17.6871 22.5 11.75C22.5 5.81294 17.6871 1 11.75 1ZM12.5 6.25C12.5 5.83579 12.1642 5.5 11.75 5.5C11.3358 5.5 11 5.83579 11 6.25V7H8.75C8.33579 7 8 7.33579 8 7.75C8 8.16421 8.33579 8.5 8.75 8.5H9V15H8.75C8.33579 15 8 15.3358 8 15.75C8 16.1642 8.33579 16.5 8.75 16.5H11V17.25C11 17.6642 11.3358 18 11.75 18C12.1642 18 12.5 17.6642 12.5 17.25V16.5H12.75C14.2688 16.5 15.5 15.2688 15.5 13.75C15.5 12.962 15.1686 12.2514 14.6375 11.75C15.1686 11.2486 15.5 10.538 15.5 9.75C15.5 8.23122 14.2688 7 12.75 7H12.5V6.25ZM10.5 11V8.5H12.75C13.4404 8.5 14 9.05964 14 9.75C14 10.4404 13.4404 11 12.75 11H10.5ZM10.5 12.5H12.75C13.4404 12.5 14 13.0596 14 13.75C14 14.4404 13.4404 15 12.75 15H10.5V12.5Z" fill="#141B34"/>
</svg>
