<svg width="24" height="24" viewBox="0 0 24 24" fill="none" xmlns="http://www.w3.org/2000/svg">
<path fill-rule="evenodd" clip-rule="evenodd" d="M11.3913 2.21955C11.5319 2.0789 11.7227 1.99988 11.9216 1.99988H21.9216C22.3358 1.99988 22.6716 2.33566 22.6716 2.74988V12.7499C22.6716 12.9488 22.5926 13.1396 22.4519 13.2802L13.8661 21.866C12.7922 22.9399 11.051 22.9399 9.97706 21.866L2.80549 14.6944C1.73155 13.6205 1.73154 11.8793 2.80549 10.8053L11.3913 2.21955ZM15.6916 6.74988C15.6916 5.78337 16.4752 4.99988 17.4416 4.99988C18.4082 4.99988 19.1916 5.7834 19.1916 6.74988C19.1916 7.71636 18.4082 8.49988 17.4416 8.49988C16.4752 8.49988 15.6916 7.71639 15.6916 6.74988ZM13.0091 9.21955C12.7162 8.92665 12.2413 8.92665 11.9484 9.21955C11.6555 9.51244 11.6555 9.98732 11.9484 10.2802L12.0109 10.3427L9.51471 12.8389L9.45224 12.7764C9.15934 12.4835 8.68447 12.4835 8.39158 12.7764C8.09868 13.0693 8.09868 13.5442 8.39158 13.8371L8.98438 14.4299L9.34327 14.7887L9.28079 14.8512C8.98789 15.1441 8.98789 15.619 9.28079 15.9119C9.57368 16.2048 10.0486 16.2048 10.3414 15.9119L10.4039 15.8494L10.4664 15.9119C11.2504 16.6959 12.5215 16.6959 13.3055 15.9119C13.6421 15.5753 13.8342 15.1488 13.8817 14.7097C14.3209 14.6622 14.7473 14.4701 15.0839 14.1335C15.8679 13.3495 15.8679 12.0784 15.0839 11.2944L15.0214 11.2319L15.0839 11.1694C15.3768 10.8765 15.3768 10.4017 15.0839 10.1088C14.791 9.81587 14.3161 9.81587 14.0233 10.1088L13.9608 10.1712L13.6019 9.81236L13.0091 9.21955ZM12.3538 12.1211L13.0716 11.4033L14.0233 12.355C14.2215 12.5532 14.2215 12.8746 14.0233 13.0728C13.825 13.271 13.5037 13.271 13.3055 13.0728L12.3538 12.1211ZM11.2931 13.1818L12.2448 14.1335C12.443 14.3317 12.443 14.653 12.2448 14.8512C12.0466 15.0494 11.7253 15.0494 11.5271 14.8512L10.5754 13.8995L11.2931 13.1818Z" fill="#141B34"/>
</svg>
