<svg width="24" height="24" viewBox="0 0 24 24" fill="none" xmlns="http://www.w3.org/2000/svg">
<path fill-rule="evenodd" clip-rule="evenodd" d="M1 4.75C1 3.23122 2.23122 2 3.75 2H16.75C17.7165 2 18.5 2.7835 18.5 3.75V5.00005H19.75C21.2688 5.00005 22.5 6.23126 22.5 7.75005V16.75C22.5 18.2688 21.2688 19.5 19.75 19.5H8.7866C8.9248 19.1091 9 18.6883 9 18.25C9 17.7167 8.88866 17.2093 8.68797 16.75C8.88866 16.2907 9 15.7833 9 15.25C9 13.5058 7.80925 12.0398 6.19634 11.6204C5.80666 10.9504 5.08093 10.5 4.25 10.5C3.4699 10.5 2.78252 10.897 2.37889 11.5H1.75C1.48702 11.5 1.23458 11.5451 1 11.628V4.75ZM15 12.25C15 13.4926 16.0074 14.5 17.25 14.5C18.4926 14.5 19.5 13.4926 19.5 12.25C19.5 11.0074 18.4926 10 17.25 10C16.0074 10 15 11.0074 15 12.25ZM4.25 12C4.66421 12 5 12.3358 5 12.75V13H5.25C6.49264 13 7.5 14.0074 7.5 15.25C7.5 15.8263 7.28336 16.3519 6.92708 16.75C7.28336 17.1481 7.5 17.6737 7.5 18.25C7.5 19.4926 6.49264 20.5 5.25 20.5H5V20.75C5 21.1642 4.66421 21.5 4.25 21.5C3.83579 21.5 3.5 21.1642 3.5 20.75V20.5H1.75C1.33579 20.5 1 20.1642 1 19.75C1 19.3358 1.33579 19 1.75 19H2V14.5H1.75C1.33579 14.5 1 14.1642 1 13.75C1 13.3358 1.33579 13 1.75 13H3.5V12.75C3.5 12.3358 3.83579 12 4.25 12ZM3.5 14.5V16H5.25C5.66421 16 6 15.6642 6 15.25C6 14.8358 5.66421 14.5 5.25 14.5H3.5ZM5.25 17.5H3.5V19H5.25C5.66421 19 6 18.6642 6 18.25C6 17.8358 5.66421 17.5 5.25 17.5ZM15.7339 3.30963C15.5167 3.25752 15.2225 3.25 14.2508 3.25H4.23899C3.69926 3.25 3.26172 3.64175 3.26172 4.125C3.26172 4.60824 3.69926 4.99999 4.23899 4.99999L16.0352 4.99999C16.3477 4.99998 16.6473 4.99998 16.934 5.00134C16.934 4.90795 16.9166 4.79969 16.8982 4.6853C16.8909 4.64 16.8835 4.59374 16.8769 4.54706C16.7966 3.97608 16.4084 3.47145 15.7339 3.30963Z" fill="#141B34"/>
</svg>
