<svg width="24" height="24" viewBox="0 0 24 24" fill="none" xmlns="http://www.w3.org/2000/svg">
<path fill-rule="evenodd" clip-rule="evenodd" d="M3.75006 1C2.23126 0.999965 1 2.23119 1 3.75V17.75C1 19.2687 2.23122 20.5 3.75 20.5H5V21.75C5 22.1642 5.33579 22.5 5.75 22.5C6.16421 22.5 6.5 22.1642 6.5 21.75V20.5H17V21.75C17 22.1642 17.3358 22.5 17.75 22.5C18.1642 22.5 18.5 22.1642 18.5 21.75V20.5H19.75C21.2688 20.5 22.5 19.2687 22.5 17.75V3.75037C22.5 2.23162 21.2688 1.00041 19.7501 1.00037L3.75006 1ZM7.66603 6.374C8.01067 6.14423 8.1038 5.67858 7.87404 5.33393C7.64427 4.98929 7.17862 4.89616 6.83397 5.12592L5.33397 6.12592C5.12533 6.26502 5 6.49919 5 6.74996V12.75C5 12.9489 5.07902 13.1396 5.21967 13.2803L6.71967 14.7803C7.01256 15.0732 7.48744 15.0732 7.78033 14.7803C8.07322 14.4874 8.07322 14.0125 7.78033 13.7196L6.5 12.4393V7.15135L7.66603 6.374ZM15.25 5C15.6642 5 16 5.33579 16 5.75V6H16.25C17.4926 6 18.5 7.00736 18.5 8.25C18.5 8.82627 18.2834 9.35193 17.9271 9.75C18.2834 10.1481 18.5 10.6737 18.5 11.25C18.5 12.4926 17.4926 13.5 16.25 13.5H16V13.75C16 14.1642 15.6642 14.5 15.25 14.5C14.8358 14.5 14.5 14.1642 14.5 13.75V13.5H12.75C12.3358 13.5 12 13.1642 12 12.75C12 12.3358 12.3358 12 12.75 12H13V7.5H12.75C12.3358 7.5 12 7.16421 12 6.75C12 6.33579 12.3358 6 12.75 6H14.5V5.75C14.5 5.33579 14.8358 5 15.25 5ZM14.5 7.5V9H16.25C16.6642 9 17 8.66421 17 8.25C17 7.83579 16.6642 7.5 16.25 7.5H14.5ZM16.25 10.5H14.5V12H16.25C16.6642 12 17 11.6642 17 11.25C17 10.8358 16.6642 10.5 16.25 10.5Z" fill="#141B34"/>
</svg>
