<svg width="24" height="24" viewBox="0 0 24 24" fill="none" xmlns="http://www.w3.org/2000/svg">
<path fill-rule="evenodd" clip-rule="evenodd" d="M12.9162 1.28865C12.1891 0.903702 11.3109 0.903701 10.5838 1.28865C9.38189 1.92502 6.9196 3.07069 3.96644 3.58404C2.87696 3.77343 2 4.70472 2 5.87319V10.801C2 14.2919 3.77964 16.9584 5.74214 18.8334C7.70205 20.7058 9.90197 21.8475 10.9034 22.3118C11.4443 22.5626 12.0557 22.5626 12.5966 22.3118C13.598 21.8475 15.7979 20.7058 17.7579 18.8334C19.7204 16.9584 21.5 14.2919 21.5 10.801V5.87319C21.5 4.70472 20.623 3.77343 19.5336 3.58404C16.5804 3.07069 14.1181 1.92502 12.9162 1.28865ZM12.5 7.74994C12.5 7.33573 12.1642 6.99994 11.75 6.99994C11.3358 6.99994 11 7.33573 11 7.74994V7.99994H9.25C8.83579 7.99994 8.5 8.33573 8.5 8.74994C8.5 9.16415 8.83579 9.49994 9.25 9.49994H9.5V13.9999H9.25C8.83579 13.9999 8.5 14.3357 8.5 14.7499C8.5 15.1642 8.83579 15.4999 9.25 15.4999H11V15.7499C11 16.1642 11.3358 16.4999 11.75 16.4999C12.1642 16.4999 12.5 16.1642 12.5 15.7499V15.4999H12.75C13.9926 15.4999 15 14.4926 15 13.2499C15 12.6737 14.7834 12.148 14.4271 11.7499C14.7834 11.3519 15 10.8262 15 10.2499C15 9.0073 13.9926 7.99994 12.75 7.99994H12.5V7.74994ZM11 10.9999V9.49994H12.75C13.1642 9.49994 13.5 9.83573 13.5 10.2499C13.5 10.6642 13.1642 10.9999 12.75 10.9999H11ZM11 12.4999H12.75C13.1642 12.4999 13.5 12.8357 13.5 13.2499C13.5 13.6642 13.1642 13.9999 12.75 13.9999H11V12.4999Z" fill="#141B34"/>
</svg>
