<svg width="24" height="24" viewBox="0 0 24 24" fill="none" xmlns="http://www.w3.org/2000/svg">
<path fill-rule="evenodd" clip-rule="evenodd" d="M7.0003 1C5.34341 0.999951 4.00021 2.34311 4.00021 4L4.00021 7.35259C3.99993 7.36617 3.99993 7.37977 4.00021 7.39339L4.00021 15.9999C4.00021 17.6568 5.34335 18.9999 7.00021 18.9999L17.0002 18.9999C18.6571 18.9999 20.0002 17.6568 20.0002 15.9999L20.0002 7.39547C20.0006 7.38 20.0006 7.3645 20.0002 7.34896V4.00029C20.0002 2.34348 18.6571 1.00034 17.0003 1.00029L7.0003 1ZM14.962 6.91988C15.6748 7.05656 16.6183 7.05008 18.0002 6.64468V4.00029C18.0002 3.44802 17.5525 3.00031 17.0002 3.00029L7.00024 3C6.44794 2.99998 6.00021 3.4477 6.00021 4L6.00021 5.80104C7.38488 5.22716 8.52132 4.98936 9.51899 5.0003C10.8707 5.01513 11.8443 5.48807 12.6635 5.9312C12.7594 5.98309 12.8524 6.03394 12.9431 6.08356L12.9431 6.08357C13.642 6.4659 14.2074 6.7752 14.962 6.91988ZM12.5579 9.48335C12.4171 9.33525 12.222 9.25097 12.0177 9.25001C11.8134 9.24905 11.6176 9.33148 11.4754 9.47825L10.0348 10.9658L10.0304 10.9705C8.97737 12.0766 8.99658 13.8435 10.0482 14.9294L10.0527 14.934C11.1376 16.0354 12.8894 16.0145 13.9535 14.9157C15.0243 13.8099 15.0058 12.0416 13.9562 10.9548L12.5579 9.48335Z" fill="#141B34"/>
<path fill-rule="evenodd" clip-rule="evenodd" d="M12 17C12.5523 17 13 17.4477 13 18C13 20.7614 10.7614 23 8 23C7.44772 23 7 22.5523 7 22C7 21.4477 7.44772 21 8 21C9.65685 21 11 19.6569 11 18C11 17.4477 11.4477 17 12 17Z" fill="#141B34"/>
</svg>
