<svg width="24" height="24" viewBox="0 0 24 24" fill="none" xmlns="http://www.w3.org/2000/svg">
<path fill-rule="evenodd" clip-rule="evenodd" d="M11.5296 2.1183C11.8548 1.94429 12.2494 1.9634 12.5562 2.16801L18.5548 6.16798C18.8153 6.34163 18.9793 6.62718 18.9982 6.93961C19.0171 7.25204 18.8886 7.55529 18.6511 7.75905L15.153 10.7591C14.7338 11.1186 14.1024 11.0702 13.7429 10.651C13.3834 10.2318 13.4318 9.60046 13.851 9.24092L16.3474 7.09991L13.0014 4.86875V8C13.0014 8.55229 12.5537 9 12.0014 9C11.4491 9 11.0014 8.55229 11.0014 8V3C11.0014 2.63119 11.2044 2.29231 11.5296 2.1183ZM12.4241 11.0944C12.7755 11.2589 13 11.6118 13 11.9998L13.0012 19.1786L16.9652 16.6563C17.4311 16.3598 18.0492 16.4972 18.3457 16.9632C18.6422 17.4291 18.5048 18.0472 18.0388 18.3437L12.5383 21.8437C12.2304 22.0396 11.8402 22.0522 11.5203 21.8766C11.2003 21.701 11.0015 21.3651 11.0014 21.0002L11.0004 14.1348L6.64021 17.7682C6.21593 18.1218 5.58537 18.0645 5.2318 17.6402C4.87824 17.2159 4.93556 16.5853 5.35984 16.2318L11.3599 11.2318C11.6579 10.9834 12.0728 10.9298 12.4241 11.0944Z" fill="#141B34"/>
<path fill-rule="evenodd" clip-rule="evenodd" d="M2.29289 2.29289C2.68342 1.90237 3.31658 1.90237 3.70711 2.29289L21.7071 20.2929C22.0976 20.6834 22.0976 21.3166 21.7071 21.7071C21.3166 22.0976 20.6834 22.0976 20.2929 21.7071L2.29289 3.70711C1.90237 3.31658 1.90237 2.68342 2.29289 2.29289Z" fill="#141B34"/>
</svg>
