<svg width="24" height="24" viewBox="0 0 24 24" fill="none" xmlns="http://www.w3.org/2000/svg">
<path d="M6.75 2C5.23122 2 4 3.23122 4 4.75V7.00012C4.00448 7.00004 4.00898 7 4.01348 7H20.5V4.75C20.5 3.23122 19.2688 2 17.75 2H6.75Z" fill="#141B34"/>
<path d="M20.5 8.5H4.01348C4.00898 8.5 4.00448 8.49996 4 8.49988V21.75C4 22.0135 4.13822 22.2576 4.36413 22.3931C4.59003 22.5287 4.87049 22.5357 5.10294 22.4118L12.25 18.6L19.3971 22.4118C19.6295 22.5357 19.91 22.5287 20.1359 22.3931C20.3618 22.2576 20.5 22.0135 20.5 21.75V8.5Z" fill="#141B34"/>
</svg>
