<svg width="24" height="24" viewBox="0 0 24 24" fill="none" xmlns="http://www.w3.org/2000/svg">
<path fill-rule="evenodd" clip-rule="evenodd" d="M2 5C2 2.79086 3.79086 1 6 1H18C20.2091 1 22 2.79086 22 5V21C22.5523 21 23 21.4477 23 22C23 22.5523 22.5523 23 22 23H21H3H2C1.44772 23 1 22.5523 1 22C1 21.4477 1.44772 21 2 21V5ZM4 9.99622V14.9925H12.75V12.0002C12.75 11.586 13.0858 11.2502 13.5 11.2502C13.9142 11.2502 14.25 11.586 14.25 12.0002V14.9925H14.9788L15.7724 11.8183C15.8729 11.4164 16.2801 11.1721 16.6819 11.2726C17.0837 11.373 17.3281 11.7802 17.2276 12.1821L16.525 14.9925H17.75V12.0002C17.75 11.586 18.0858 11.2502 18.5 11.2502C18.9142 11.2502 19.25 11.586 19.25 12.0002V14.9925H20V9.99622H4ZM8.8181 4.27245C9.21994 4.17199 9.62715 4.41631 9.72761 4.81815L10.5846 8.24622H9.03846L8.27239 5.18196C8.17193 4.78011 8.41625 4.37291 8.8181 4.27245ZM7.25 5.00006V8.24622H5.75V5.00006C5.75 4.58584 6.08579 4.25006 6.5 4.25006C6.91421 4.25006 7.25 4.58584 7.25 5.00006ZM11.25 8.24622V5.00006C11.25 4.58584 11.5858 4.25006 12 4.25006C12.4142 4.25006 12.75 4.58584 12.75 5.00006V8.24622H11.25ZM11 18.25C10.5858 18.25 10.25 18.5858 10.25 19C10.25 19.4142 10.5858 19.75 11 19.75H13C13.4142 19.75 13.75 19.4142 13.75 19C13.75 18.5858 13.4142 18.25 13 18.25H11Z" fill="#141B34"/>
</svg>
