<svg width="24" height="24" viewBox="0 0 24 24" fill="none" xmlns="http://www.w3.org/2000/svg">
<path fill-rule="evenodd" clip-rule="evenodd" d="M2 4.75C2 3.23122 3.23122 2 4.75 2H17.75C18.1642 2 18.5 2.33579 18.5 2.75V3.25H13.75C12.3693 3.25 11.25 4.36929 11.25 5.75C11.25 7.13071 12.3693 8.25 13.75 8.25H18.5V21.75C18.5 22.0135 18.3618 22.2576 18.1359 22.3931C17.91 22.5287 17.6295 22.5357 17.3971 22.4118L10.25 18.6L3.10294 22.4118C2.87049 22.5357 2.59003 22.5287 2.36413 22.3931C2.13822 22.2576 2 22.0135 2 21.75V4.75ZM13.75 4.75C13.1977 4.75 12.75 5.19772 12.75 5.75C12.75 6.30228 13.1977 6.75 13.75 6.75H20.75C21.3023 6.75 21.75 6.30228 21.75 5.75C21.75 5.19772 21.3023 4.75 20.75 4.75H13.75Z" fill="#141B34"/>
</svg>
