<svg width="24" height="24" viewBox="0 0 24 24" fill="none" xmlns="http://www.w3.org/2000/svg">
<path fill-rule="evenodd" clip-rule="evenodd" d="M1.25 3C1.25 2.0335 2.0335 1.25 3 1.25H5C5.9665 1.25 6.75 2.0335 6.75 3V5C6.75 5.9665 5.9665 6.75 5 6.75H3C2.0335 6.75 1.25 5.9665 1.25 5V3Z" fill="#141B34"/>
<path fill-rule="evenodd" clip-rule="evenodd" d="M9.25 3C9.25 2.0335 10.0335 1.25 11 1.25H13C13.9665 1.25 14.75 2.0335 14.75 3V5C14.75 5.9665 13.9665 6.75 13 6.75H11C10.0335 6.75 9.25 5.9665 9.25 5V3Z" fill="#141B34"/>
<path fill-rule="evenodd" clip-rule="evenodd" d="M1.25 11C1.25 10.0335 2.0335 9.25 3 9.25H5C5.9665 9.25 6.75 10.0335 6.75 11V13C6.75 13.9665 5.9665 14.75 5 14.75H3C2.0335 14.75 1.25 13.9665 1.25 13V11Z" fill="#141B34"/>
<path fill-rule="evenodd" clip-rule="evenodd" d="M9.25 11C9.25 10.0335 10.0335 9.25 11 9.25H13C13.9665 9.25 14.75 10.0335 14.75 11V13C14.75 13.9665 13.9665 14.75 13 14.75H11C10.0335 14.75 9.25 13.9665 9.25 13V11Z" fill="#141B34"/>
<path fill-rule="evenodd" clip-rule="evenodd" d="M9.25 19C9.25 18.0335 10.0335 17.25 11 17.25H13C13.9665 17.25 14.75 18.0335 14.75 19V21C14.75 21.9665 13.9665 22.75 13 22.75H11C10.0335 22.75 9.25 21.9665 9.25 21V19Z" fill="#141B34"/>
<path fill-rule="evenodd" clip-rule="evenodd" d="M17.25 19C17.25 18.0335 18.0335 17.25 19 17.25H21C21.9665 17.25 22.75 18.0335 22.75 19V21C22.75 21.9665 21.9665 22.75 21 22.75H19C18.0335 22.75 17.25 21.9665 17.25 21V19Z" fill="#141B34"/>
<path fill-rule="evenodd" clip-rule="evenodd" d="M17.25 11C17.25 10.0335 18.0335 9.25 19 9.25H21C21.9665 9.25 22.75 10.0335 22.75 11V13C22.75 13.9665 21.9665 14.75 21 14.75H19C18.0335 14.75 17.25 13.9665 17.25 13V11Z" fill="#141B34"/>
<path fill-rule="evenodd" clip-rule="evenodd" d="M10 5H6V3H10V5ZM5 6V10H3V6H5ZM11 10V6H13V10H11ZM10 13H6V11H10V13ZM18 13H14V11H18V13ZM11 18V14H13V18H11ZM19 18V14H21V18H19ZM18 21H14V19H18V21Z" fill="#141B34"/>
</svg>
