<svg width="24" height="24" viewBox="0 0 24 24" fill="none" xmlns="http://www.w3.org/2000/svg">
<path fill-rule="evenodd" clip-rule="evenodd" d="M11.6594 5.15487C10.9016 5.45645 10.3321 6.14885 10.1182 6.67638C9.91244 7.18418 9.33633 7.4318 8.82626 7.23169C8.24699 7.00444 7.81469 6.9859 7.50014 7.04472C7.18579 7.10349 6.92354 7.25164 6.70221 7.46168C6.22378 7.9157 5.99952 8.60071 5.99364 8.96449C5.99304 9.00148 5.99039 9.03841 5.9857 9.07511C5.9533 9.32858 6.01934 9.79922 6.50954 10.322C6.88731 10.7249 6.86696 11.3577 6.46409 11.7355C6.06121 12.1132 5.42838 12.0929 5.0506 11.69C4.56691 11.1742 4.25917 10.6154 4.10294 10.0652C3.77826 10.1635 3.56631 10.3089 3.42555 10.4429C3.17101 10.6852 3.05953 10.9772 3.02338 11.1607C2.91741 12.0103 3.18457 12.4199 3.43095 12.6385C3.73449 12.9078 4.14761 13.0068 4.3853 12.9993C4.39578 12.9989 4.40627 12.9988 4.41677 12.9988H8.05061C8.17529 12.243 8.54724 11.439 9.30046 10.7586C9.71029 10.3883 10.3426 10.4205 10.7129 10.8303C11.0831 11.2401 11.051 11.8725 10.6411 12.2427C10.0476 12.7788 9.95116 13.4118 10.0194 13.8421C10.0735 14.1828 10.2633 14.4808 10.5161 14.701C10.6412 14.8101 10.7693 14.8885 10.8792 14.937C10.9842 14.9832 11.0435 14.9897 11.0511 14.9905C11.052 14.9906 11.0522 14.9907 11.0517 14.9907C11.8133 14.9907 12.4965 14.9998 13.0544 15.2502C13.6793 15.5306 14.0217 16.0493 14.3169 16.4964L14.3214 16.5031C14.3421 16.5345 14.3611 16.5671 14.3781 16.6007L15.8761 19.545C16.1265 20.0373 15.9305 20.6393 15.4383 20.8898C14.946 21.1402 14.344 20.9442 14.0935 20.4519L12.6217 17.5589C12.3238 17.1121 12.2619 17.086 12.2383 17.0761C12.2373 17.0756 12.2364 17.0753 12.2355 17.0749C12.2108 17.0638 12.1362 17.0365 11.9367 17.0172C11.7337 16.9976 11.4592 16.9907 11.0517 16.9907C10.3947 16.9907 9.71413 16.655 9.20216 16.2089C8.84847 15.9007 8.52016 15.4935 8.29675 14.9988H4.43066C3.75383 15.0156 2.83236 14.7811 2.10367 14.1346C1.31381 13.4339 0.850855 12.3384 1.0436 10.8754C1.04549 10.861 1.04769 10.8467 1.05021 10.8325C1.13966 10.3248 1.4103 9.59998 2.0466 8.99428C2.55313 8.51211 3.2426 8.15226 4.13717 8.01229C4.3303 7.32459 4.72091 6.58468 5.32548 6.01095C5.789 5.57108 6.3914 5.21735 7.13257 5.07878C7.62589 4.98655 8.15163 4.99502 8.70442 5.1116C9.19456 4.38809 9.95059 3.68237 10.9199 3.29662C12.2401 2.77122 13.8138 2.8943 15.412 4.06714C16.749 3.84707 18.51 4.17674 19.8642 5.16984C20.6639 5.75632 21.3416 6.58812 21.6976 7.6915C21.9988 8.62491 22.0533 9.70072 21.8138 10.9138C22.1194 11.187 22.4407 11.5519 22.6727 12.0174C23.098 12.8705 23.1619 13.9417 22.5433 15.1338C22.1976 15.8001 21.6276 16.3598 20.9047 16.6654C20.4866 16.8422 19.9624 16.9907 19.3743 16.9907C19.2981 16.9907 19.1956 17.0226 19.0718 17.1287C18.94 17.2415 18.8593 17.3763 18.8382 17.4286L18.835 17.4364L18.835 17.4364C18.8351 17.4363 18.835 17.4364 18.8349 17.4367C18.8337 17.44 18.8235 17.4677 18.812 17.5183C18.8 17.5711 18.7892 17.6371 18.7844 17.7105C18.7744 17.8616 18.7914 18.0102 18.8412 18.1366L18.8472 18.1521L19.4083 19.6471C19.6024 20.1641 19.3405 20.7406 18.8235 20.9347C18.3064 21.1288 17.7299 20.8669 17.5358 20.3499L16.9773 18.8618C16.6258 17.9617 16.8233 17.0702 16.9852 16.676C17.1296 16.3204 17.4024 15.9251 17.7709 15.6095C18.1486 15.2861 18.6953 14.9907 19.3743 14.9907C19.6273 14.9907 19.8833 14.9258 20.126 14.8233C20.3889 14.7121 20.6212 14.4957 20.7681 14.2127C21.1024 13.5683 21.0132 13.1712 20.8828 12.9096C20.7322 12.6074 20.4559 12.3607 20.2068 12.1919C19.8734 12.0486 19.3819 11.9726 18.9617 12.0887C18.5998 12.1888 18.1926 12.4513 17.9848 13.2553C17.8467 13.7901 17.3012 14.1115 16.7665 13.9734C16.2317 13.8352 15.9103 13.2897 16.0484 12.755C16.4287 11.2833 17.3531 10.4584 18.4288 10.161C18.9371 10.0205 19.4523 10.0044 19.9254 10.0656C20.0118 9.34904 19.944 8.76978 19.7943 8.30568C19.5821 7.64816 19.1826 7.15016 18.6815 6.78265C17.6258 6.0085 16.2055 5.87293 15.4661 6.10308C14.8046 6.30898 13.2467 7.2529 13.0066 9.14762C12.9371 9.69552 12.4367 10.0834 11.8888 10.0139C11.3409 9.94451 10.953 9.44405 11.0224 8.89615C11.2492 7.10658 12.2134 5.88288 13.1827 5.12085C12.569 4.92252 12.0602 4.99536 11.6594 5.15487Z" fill="#141B34"/>
</svg>
