<svg width="24" height="24" viewBox="0 0 24 24" fill="none" xmlns="http://www.w3.org/2000/svg">
<path fill-rule="evenodd" clip-rule="evenodd" d="M8.13903 3.71716C8.27979 2.73186 9.12363 2 10.1189 2H14.3843C15.3796 2 16.2235 2.73186 16.3642 3.71716L16.7416 6.35858L14.7617 6.64142L14.3843 4L10.1189 4L9.74159 6.64142L7.76169 6.35858L8.13903 3.71716Z" fill="#141B34"/>
<path d="M13.25 12.5H11.25C10.7786 12.5 10.5429 12.5 10.3964 12.6464C10.25 12.7929 10.25 13.0286 10.25 13.5V14.5C10.25 15.6046 11.1454 16.5 12.25 16.5C13.3545 16.5 14.25 15.6046 14.25 14.5V13.5C14.25 13.0286 14.25 12.7929 14.1035 12.6464C13.9571 12.5 13.7214 12.5 13.25 12.5Z" fill="#141B34"/>
<path d="M9.09692 16.0214L2.99999 14.3958L2.99997 20.0002C2.99996 21.519 4.23118 22.7502 5.74997 22.7502H18.75C20.2687 22.7502 21.5 21.519 21.5 20.0002V14.3955L15.4031 16.0213C14.8371 17.1924 13.6379 18.0002 12.25 18.0002C10.8621 18.0002 9.66292 17.1925 9.09692 16.0214Z" fill="#141B34"/>
<path d="M2.0005 7.49975C2.00063 6.53335 2.7841 5.75 3.7505 5.75H20.751C21.7175 5.75 22.501 6.5335 22.501 7.5V11.2317C22.501 12.0246 21.968 12.7183 21.2019 12.9226L15.7509 14.3762L15.751 13.4551C15.7512 13.2628 15.7515 12.9915 15.7193 12.7515C15.6786 12.449 15.5635 11.9842 15.1652 11.5858C14.7668 11.1874 14.3019 11.0724 13.9995 11.0317C13.7595 10.9994 13.4882 10.9997 13.2959 11H11.206C11.0137 10.9997 10.7424 10.9994 10.5024 11.0317C10.1999 11.0724 9.73511 11.1874 9.33673 11.5858C8.93836 11.9842 8.8233 12.449 8.78263 12.7515C8.75036 12.9915 8.75068 13.2628 8.75091 13.4551L8.75095 14.3763L3.29911 12.9227C2.53293 12.7184 1.99986 12.0244 1.99997 11.2315L2.0005 7.49975Z" fill="#141B34"/>
</svg>
