<svg width="24" height="24" viewBox="0 0 24 24" fill="none" xmlns="http://www.w3.org/2000/svg">
<path fill-rule="evenodd" clip-rule="evenodd" d="M9.00781 3.01941C9.5601 3.01941 10.0078 3.46712 10.0078 4.01941V6.02265C10.0078 6.57494 9.5601 7.02265 9.00781 7.02265C8.45553 7.02265 8.00781 6.57494 8.00781 6.02265V4.01941C8.00781 3.46712 8.45553 3.01941 9.00781 3.01941ZM4.00781 8.0259C4.00781 7.47361 4.45553 7.0259 5.00781 7.0259H7.00781C7.5601 7.0259 8.00781 7.47361 8.00781 8.0259C8.00781 8.57818 7.5601 9.0259 7.00781 9.0259H5.00781C4.45553 9.0259 4.00781 8.57818 4.00781 8.0259Z" fill="#141B34"/>
<path fill-rule="evenodd" clip-rule="evenodd" d="M14.0078 14.0352C14.0078 13.4829 14.4555 13.0352 15.0078 13.0352H17.0078C17.5601 13.0352 18.0078 13.4829 18.0078 14.0352C18.0078 14.5874 17.5601 15.0352 17.0078 15.0352H15.0078C14.4555 15.0352 14.0078 14.5874 14.0078 14.0352ZM13.0078 15.0384C13.5601 15.0384 14.0078 15.4861 14.0078 16.0384V18.0416C14.0078 18.5939 13.5601 19.0416 13.0078 19.0416C12.4555 19.0416 12.0078 18.5939 12.0078 18.0416V16.0384C12.0078 15.4861 12.4555 15.0384 13.0078 15.0384Z" fill="#141B34"/>
<path fill-rule="evenodd" clip-rule="evenodd" d="M6.32648 10.7704C6.57979 10.7101 6.84622 10.7856 7.03033 10.9697L8.18063 12.12L10.2215 11.3037C10.4983 11.1929 10.8144 11.2567 11.0266 11.466C11.2389 11.6754 11.307 11.9906 11.2001 12.2689L9.428 16.8836C10.2292 17.4749 10.75 18.4261 10.75 19.5C10.75 21.2949 9.29493 22.75 7.5 22.75C6.55021 22.75 5.69602 22.3422 5.10251 21.6941C4.90693 21.7309 4.70548 21.75 4.5 21.75C2.70507 21.75 1.25 20.2949 1.25 18.5C1.25 16.7138 2.69104 15.2641 4.474 15.2501L5.78771 11.2652C5.86923 11.0179 6.07317 10.8306 6.32648 10.7704Z" fill="#141B34"/>
<path fill-rule="evenodd" clip-rule="evenodd" d="M21.3741 4.7001C21.4158 3.81577 21.1149 2.91078 20.46 2.22536C19.2174 0.924881 17.1881 0.924882 15.9455 2.22536C15.2054 3.00005 14.9164 4.05539 15.0658 5.04792L10.6833 7.08932C10.4172 7.21326 10.2479 7.48102 10.25 7.77454C10.2521 8.06805 10.4252 8.33337 10.6931 8.4535L12.6509 9.3317L12.6509 11C12.6509 11.2629 12.7885 11.5065 13.0136 11.6423C13.2387 11.778 13.5184 11.786 13.7509 11.6633L17.3549 9.76173C18.6004 11.0236 20.6018 11.0107 21.8319 9.72322C23.056 8.44204 23.056 6.37837 21.8319 5.09719C21.6895 4.94817 21.5362 4.81568 21.3741 4.7001Z" fill="#141B34"/>
</svg>
