<svg width="24" height="24" viewBox="0 0 24 24" fill="none" xmlns="http://www.w3.org/2000/svg">
<path fill-rule="evenodd" clip-rule="evenodd" d="M19.2502 5.20698V9.49988C19.2502 10.0522 18.8025 10.4999 18.2502 10.4999C17.698 10.4999 17.2502 10.0522 17.2502 9.49988V5.20698H15.6645C15.2666 5.20698 14.8283 5.0558 14.7636 4.66327C14.713 4.35604 14.8062 4.02974 15.0431 3.79277L17.5431 1.29277C17.9337 0.902247 18.5668 0.902247 18.9574 1.29277L21.4574 3.79277C21.6943 4.02974 21.7875 4.35604 21.7369 4.66327C21.6722 5.0558 21.2339 5.20698 20.836 5.20698H19.2502ZM18.2502 11.4681C19.4929 11.4681 20.5002 10.4608 20.5002 9.21814V6.45429C20.9197 6.50091 21.3497 6.42982 21.7368 6.24101C22.0185 6.79046 22.1355 7.42632 22.3022 8.53354C22.5002 9.84814 22.5648 11.057 22.5002 11.9696C22.0815 17.8919 17.6873 22.7196 11.7502 22.7196C10.0365 22.7196 8.55405 22.2798 7.18178 21.572C6.82511 21.388 6.44368 21.3446 6.11369 21.4436L3.74458 22.1543C2.40967 22.5548 1.16505 21.3102 1.56552 19.9753L2.27626 17.6062C2.37525 17.2762 2.33185 16.8947 2.14787 16.5381C1.44 15.1658 1.00024 13.6833 1.00024 11.9696C1.00024 6.03254 5.81318 1.2196 11.7502 1.2196C12.9016 1.2196 14.0107 1.40062 15.0507 1.73574L14.1593 2.62715C13.2806 3.50583 13.2806 4.93045 14.1593 5.80913C14.6623 6.31216 15.3442 6.52721 16.0002 6.45429V9.21814C16.0002 10.4608 17.0076 11.4681 18.2502 11.4681ZM6.75024 11.9647C6.75024 11.4124 7.19796 10.9647 7.75024 10.9647H7.75921C8.3115 10.9647 8.75921 11.4124 8.75921 11.9647C8.75921 12.517 8.3115 12.9647 7.75921 12.9647H7.75024C7.19796 12.9647 6.75024 12.517 6.75024 11.9647ZM10.7457 11.9647C10.7457 11.4124 11.1935 10.9647 11.7457 10.9647H11.7547C12.307 10.9647 12.7547 11.4124 12.7547 11.9647C12.7547 12.517 12.307 12.9647 11.7547 12.9647H11.7457C11.1935 12.9647 10.7457 12.517 10.7457 11.9647Z" fill="#141B34"/>
</svg>
