<svg width="24" height="24" viewBox="0 0 24 24" fill="none" xmlns="http://www.w3.org/2000/svg">
<path fill-rule="evenodd" clip-rule="evenodd" d="M16.5138 3C16.4821 2.71422 16.505 2.42351 16.5825 2.14482C15.1297 1.41245 13.488 1 11.75 1C5.81294 1 1 5.81294 1 11.75C1 13.4637 1.43976 14.9462 2.14763 16.3185C2.33161 16.6751 2.37501 17.0566 2.27601 17.3866L1.56528 19.7557C1.1648 21.0906 2.40942 22.3352 3.74433 21.9347L6.11345 21.224C6.44343 21.125 6.82487 21.1684 7.18153 21.3524C8.5538 22.0602 10.0363 22.5 11.75 22.5C17.6871 22.5 22.5 17.6871 22.5 11.75C22.5 10.3911 22.2479 9.09107 21.7878 7.89418L20.341 9.34099C19.4623 10.2197 18.0377 10.2197 17.159 9.34099C16.656 8.83796 16.4409 8.15601 16.5138 7.5H13.75C12.5074 7.5 11.5 6.49264 11.5 5.25C11.5 4.00736 12.5074 3 13.75 3L16.5138 3ZM7.75 10.75C7.19772 10.75 6.75 11.1977 6.75 11.75C6.75 12.3023 7.19772 12.75 7.75 12.75H7.75897C8.31125 12.75 8.75897 12.3023 8.75897 11.75C8.75897 11.1977 8.31125 10.75 7.75897 10.75H7.75ZM11.7455 10.75C11.1932 10.75 10.7455 11.1977 10.7455 11.75C10.7455 12.3023 11.1932 12.75 11.7455 12.75H11.7545C12.3068 12.75 12.7545 12.3023 12.7545 11.75C12.7545 11.1977 12.3068 10.75 11.7545 10.75H11.7455ZM15.741 10.75C15.1887 10.75 14.741 11.1977 14.741 11.75C14.741 12.3023 15.1887 12.75 15.741 12.75H15.75C16.3023 12.75 16.75 12.3023 16.75 11.75C16.75 11.1977 16.3023 10.75 15.75 10.75H15.741ZM13.75 4.25C13.1977 4.25 12.75 4.69772 12.75 5.25C12.75 5.80228 13.1977 6.25 13.75 6.25H18.0429V7.83579C18.0429 8.23361 18.1941 8.67197 18.5866 8.73664C18.8938 8.78725 19.2201 8.69407 19.4571 8.45711L21.9571 5.95711C22.3476 5.56658 22.3476 4.93342 21.9571 4.54289L19.4571 2.04289C19.2201 1.80593 18.8938 1.71275 18.5866 1.76336C18.1941 1.82803 18.0429 2.26639 18.0429 2.66421V4.25H13.75Z" fill="#141B34"/>
</svg>
