<svg width="24" height="24" viewBox="0 0 24 24" fill="none" xmlns="http://www.w3.org/2000/svg">
<path fill-rule="evenodd" clip-rule="evenodd" d="M21.6145 7.47063C22.1842 8.78198 22.5 10.2291 22.5 11.75C22.5 17.6871 17.6871 22.5 11.75 22.5C10.0363 22.5 8.5538 22.0602 7.18153 21.3524C6.82487 21.1684 6.44343 21.125 6.11345 21.224L3.74433 21.9347C2.40942 22.3352 1.1648 21.0906 1.56528 19.7557L2.27601 17.3866C2.37501 17.0566 2.33161 16.6751 2.14763 16.3185C1.43976 14.9462 1 13.4637 1 11.75C1 5.81294 5.81294 1 11.75 1C12.69 1 13.6018 1.12064 14.4707 1.34728L12.159 3.65901C11.2803 4.53769 11.2803 5.96231 12.159 6.84099L14.659 9.34099C15.5377 10.2197 16.9623 10.2197 17.841 9.34099C18.344 8.83796 18.5591 8.15601 18.4862 7.5H21.25C21.3741 7.5 21.4959 7.48995 21.6145 7.47063ZM6.75 11.75C6.75 11.1977 7.19772 10.75 7.75 10.75H7.75897C8.31125 10.75 8.75897 11.1977 8.75897 11.75C8.75897 12.3023 8.31125 12.75 7.75897 12.75H7.75C7.19772 12.75 6.75 12.3023 6.75 11.75ZM10.7455 11.75C10.7455 11.1977 11.1932 10.75 11.7455 10.75H11.7545C12.3068 10.75 12.7545 11.1977 12.7545 11.75C12.7545 12.3023 12.3068 12.75 11.7545 12.75H11.7455C11.1932 12.75 10.7455 12.3023 10.7455 11.75ZM14.741 11.75C14.741 11.1977 15.1887 10.75 15.741 10.75H15.75C16.3023 10.75 16.75 11.1977 16.75 11.75C16.75 12.3023 16.3023 12.75 15.75 12.75H15.741C15.1887 12.75 14.741 12.3023 14.741 11.75ZM21.5 4.25C22.0523 4.25 22.5 4.69772 22.5 5.25C22.5 5.80228 22.0523 6.25 21.5 6.25H17.2071V7.83579C17.2071 8.23361 17.0559 8.67197 16.6634 8.73664C16.3562 8.78725 16.0299 8.69407 15.7929 8.45711L13.2929 5.95711C12.9024 5.56658 12.9024 4.93342 13.2929 4.54289L15.7929 2.04289C16.0299 1.80593 16.3562 1.71275 16.6634 1.76336C17.0559 1.82803 17.2071 2.26639 17.2071 2.66421V4.25H21.5Z" fill="#141B34"/>
</svg>
