<svg width="26" height="25" viewBox="0 0 26 25" fill="none" xmlns="http://www.w3.org/2000/svg">
<path fill-rule="evenodd" clip-rule="evenodd" d="M22.5446 3.19985C22.2782 2.93338 21.8462 2.93338 21.5797 3.19985L16.576 8.20356C16.448 8.33152 16.3761 8.50507 16.3761 8.68604V10.9604C16.3761 11.3373 16.6816 11.6428 17.0585 11.6428H19.3329C19.5138 11.6428 19.6874 11.5709 19.8153 11.4429L24.8191 6.43921C25.0855 6.17275 25.0855 5.74073 24.8191 5.47426L22.5446 3.19985ZM13.7502 3.38281C15.4188 3.38281 16.9986 3.76299 18.4077 4.44145L15.6109 7.23827C15.227 7.62215 15.0114 8.1428 15.0114 8.68569V10.9601C15.0114 12.0906 15.9278 13.0071 17.0584 13.0071H19.3328C19.8757 13.0071 20.3963 12.7914 20.7802 12.4075L23.5281 9.65959C24.1523 11.0216 24.5002 12.5366 24.5002 14.1328C24.5002 20.0699 19.6872 24.8828 13.7502 24.8828C12.0364 24.8828 10.554 24.4431 9.18168 23.7352C8.82502 23.5512 8.44359 23.5078 8.1136 23.6068L5.74448 24.3175C4.40958 24.718 3.16496 23.4734 3.56543 22.1385L4.27616 19.7694C4.37516 19.4394 4.33176 19.0579 4.14778 18.7013C3.43991 17.329 3.00015 15.8465 3.00015 14.1328C3.00015 8.19575 7.81309 3.38281 13.7502 3.38281ZM9.74625 13.1328C9.19396 13.1328 8.74625 13.5805 8.74625 14.1328C8.74625 14.6851 9.19396 15.1328 9.74625 15.1328H9.75522C10.3075 15.1328 10.7552 14.6851 10.7552 14.1328C10.7552 13.5805 10.3075 13.1328 9.75522 13.1328H9.74625ZM13.7429 13.1328C13.1906 13.1328 12.7429 13.5805 12.7429 14.1328C12.7429 14.6851 13.1906 15.1328 13.7429 15.1328H13.7519C14.3042 15.1328 14.7519 14.6851 14.7519 14.1328C14.7519 13.5805 14.3042 13.1328 13.7519 13.1328H13.7429Z" fill="#141B34"/>
</svg>
