<svg width="24" height="24" viewBox="0 0 24 24" fill="none" xmlns="http://www.w3.org/2000/svg">
<path fill-rule="evenodd" clip-rule="evenodd" d="M1 4C1 3.44772 1.44772 3 2 3L22 3C22.5523 3 23 3.44772 23 4C23 4.55228 22.5523 5 22 5H21.6693L20.9767 13.3114C20.8587 14.7274 19.9643 15.9052 18.7333 16.4404L19.9366 19.6491C20.1305 20.1663 19.8685 20.7427 19.3514 20.9366C18.8343 21.1305 18.2579 20.8685 18.0639 20.3514L16.7134 16.75H12.75L12.75 5H11.25L11.25 16.75H7.28712L5.9366 20.3514C5.74268 20.8685 5.16627 21.1305 4.64915 20.9366C4.13203 20.7427 3.87002 20.1663 4.06394 19.6491L5.26715 16.4406C4.03592 15.9055 3.14136 14.7275 3.02335 13.3114L2.33074 5H2C1.44772 5 1 4.55228 1 4ZM9.75 9.5C9.75 9.08579 9.41421 8.75 9 8.75C8.58579 8.75 8.25 9.08579 8.25 9.5V10.5C8.25 10.9142 8.58579 11.25 9 11.25C9.41421 11.25 9.75 10.9142 9.75 10.5V9.5ZM15 8.75C15.4142 8.75 15.75 9.08579 15.75 9.5V10.5C15.75 10.9142 15.4142 11.25 15 11.25C14.5858 11.25 14.25 10.9142 14.25 10.5V9.5C14.25 9.08579 14.5858 8.75 15 8.75Z" fill="#141B34"/>
</svg>
