<svg width="24" height="24" viewBox="0 0 24 24" fill="none" xmlns="http://www.w3.org/2000/svg">
<path fill-rule="evenodd" clip-rule="evenodd" d="M6 1C6.55228 1 7 1.44772 7 2V5C7 5.55228 6.55228 6 6 6C5.44772 6 5 5.55228 5 5V2C5 1.44772 5.44772 1 6 1ZM18 1C18.5523 1 19 1.44772 19 2V5C19 5.55228 18.5523 6 18 6C17.4477 6 17 5.55228 17 5V2C17 1.44772 17.4477 1 18 1Z" fill="#141B34"/>
<path fill-rule="evenodd" clip-rule="evenodd" d="M11.3827 12.0761C11.7564 12.2309 12 12.5956 12 13V14.5H15.5C16.0523 14.5 16.5 14.9477 16.5 15.5C16.5 16.0523 16.0523 16.5 15.5 16.5H12V18C12 18.4045 11.7564 18.7691 11.3827 18.9239C11.009 19.0787 10.5789 18.9931 10.2929 18.7071L7.79289 16.2071C7.40237 15.8166 7.40237 15.1834 7.79289 14.7929L10.2929 12.2929C10.5789 12.0069 11.009 11.9214 11.3827 12.0761Z" fill="#141B34"/>
<path fill-rule="evenodd" clip-rule="evenodd" d="M1.5 6C1.5 4.34315 2.84315 3 4.5 3H19.5C21.1569 3 22.5 4.34315 22.5 6V20C22.5 21.6569 21.1569 23 19.5 23H4.5C2.84315 23 1.5 21.6569 1.5 20V6ZM3.5 9.5V20C3.5 20.5523 3.94772 21 4.5 21H19.5C20.0523 21 20.5 20.5523 20.5 20V9.5H3.5Z" fill="#141B34"/>
</svg>
