<svg width="24" height="24" viewBox="0 0 24 24" fill="none" xmlns="http://www.w3.org/2000/svg">
<path fill-rule="evenodd" clip-rule="evenodd" d="M6 1C6.55228 1 7 1.44772 7 2V5C7 5.55228 6.55228 6 6 6C5.44772 6 5 5.55228 5 5V2C5 1.44772 5.44772 1 6 1ZM18 1C18.5523 1 19 1.44772 19 2V5C19 5.55228 18.5523 6 18 6C17.4477 6 17 5.55228 17 5V2C17 1.44772 17.4477 1 18 1Z" fill="#141B34"/>
<path fill-rule="evenodd" clip-rule="evenodd" d="M1.5 6C1.5 4.34315 2.84315 3 4.5 3H19.5C21.1569 3 22.5 4.34315 22.5 6V20C22.5 21.6569 21.1569 23 19.5 23H4.5C2.84315 23 1.5 21.6569 1.5 20V6ZM3.5 9V20C3.5 20.5523 3.94772 21 4.5 21H19.5C20.0523 21 20.5 20.5523 20.5 20V9H3.5Z" fill="#141B34"/>
<path fill-rule="evenodd" clip-rule="evenodd" d="M6.75 13C6.75 12.3096 7.30964 11.75 8 11.75H8.00897C8.69933 11.75 9.25897 12.3096 9.25897 13C9.25897 13.6904 8.69933 14.25 8.00897 14.25H8C7.30964 14.25 6.75 13.6904 6.75 13ZM10.7455 13C10.7455 12.3096 11.3052 11.75 11.9955 11.75H12.0045C12.6948 11.75 13.2545 12.3096 13.2545 13C13.2545 13.6904 12.6948 14.25 12.0045 14.25H11.9955C11.3052 14.25 10.7455 13.6904 10.7455 13ZM14.741 13C14.741 12.3096 15.3007 11.75 15.991 11.75H16C16.6904 11.75 17.25 12.3096 17.25 13C17.25 13.6904 16.6904 14.25 16 14.25H15.991C15.3007 14.25 14.741 13.6904 14.741 13ZM6.75 17C6.75 16.3096 7.30964 15.75 8 15.75H8.00897C8.69933 15.75 9.25897 16.3096 9.25897 17C9.25897 17.6904 8.69933 18.25 8.00897 18.25H8C7.30964 18.25 6.75 17.6904 6.75 17ZM10.7455 17C10.7455 16.3096 11.3052 15.75 11.9955 15.75H12.0045C12.6948 15.75 13.2545 16.3096 13.2545 17C13.2545 17.6904 12.6948 18.25 12.0045 18.25H11.9955C11.3052 18.25 10.7455 17.6904 10.7455 17Z" fill="#141B34"/>
</svg>
