<svg width="24" height="24" viewBox="0 0 24 24" fill="none" xmlns="http://www.w3.org/2000/svg">
<path fill-rule="evenodd" clip-rule="evenodd" d="M6 1C6.55228 1 7 1.44772 7 2V5C7 5.55228 6.55228 6 6 6C5.44772 6 5 5.55228 5 5V2C5 1.44772 5.44772 1 6 1ZM18 1C18.5523 1 19 1.44772 19 2V5C19 5.55228 18.5523 6 18 6C17.4477 6 17 5.55228 17 5V2C17 1.44772 17.4477 1 18 1Z" fill="#141B34"/>
<path fill-rule="evenodd" clip-rule="evenodd" d="M1.5 6C1.5 4.34315 2.84315 3 4.5 3H19.5C21.1569 3 22.5 4.34315 22.5 6V20C22.5 21.6569 21.1569 23 19.5 23H4.5C2.84315 23 1.5 21.6569 1.5 20L1.5 6ZM3.5 9V20C3.5 20.5523 3.94772 21 4.5 21H19.5C20.0523 21 20.5 20.5523 20.5 20V9H3.5Z" fill="#141B34"/>
<path fill-rule="evenodd" clip-rule="evenodd" d="M10 13C10 12.4477 10.4477 12 11 12H16C16.5523 12 17 12.4477 17 13C17 13.5523 16.5523 14 16 14H11C10.4477 14 10 13.5523 10 13ZM7 13C7 12.4477 7.44772 12 8 12H8.00898C8.56127 12 9.00898 12.4477 9.00898 13C9.00898 13.5523 8.56127 14 8.00898 14H8C7.44772 14 7 13.5523 7 13ZM7 17C7 16.4477 7.44772 16 8 16H13C13.5523 16 14 16.4477 14 17C14 17.5523 13.5523 18 13 18H8C7.44772 18 7 17.5523 7 17ZM14.991 17C14.991 16.4477 15.4387 16 15.991 16H16C16.5523 16 17 16.4477 17 17C17 17.5523 16.5523 18 16 18H15.991C15.4387 18 14.991 17.5523 14.991 17Z" fill="#141B34"/>
</svg>
