<svg width="24" height="24" viewBox="0 0 24 24" fill="none" xmlns="http://www.w3.org/2000/svg">
<path fill-rule="evenodd" clip-rule="evenodd" d="M6 1C6.55228 1 7 1.44772 7 2V5C7 5.55228 6.55228 6 6 6C5.44772 6 5 5.55228 5 5V2C5 1.44772 5.44772 1 6 1ZM18 1C18.5523 1 19 1.44772 19 2V5C19 5.55228 18.5523 6 18 6C17.4477 6 17 5.55228 17 5V2C17 1.44772 17.4477 1 18 1Z" fill="#141B34"/>
<path fill-rule="evenodd" clip-rule="evenodd" d="M11.9997 10.7251C12.299 10.7251 12.5715 10.8975 12.6998 11.1679L13.7175 13.3129L16.0631 13.5055C16.3659 13.5303 16.6264 13.73 16.729 14.016C16.8317 14.302 16.7578 14.6217 16.5399 14.8335L14.8443 16.482L15.3302 18.8439C15.3909 19.1389 15.2751 19.4424 15.0334 19.6221C14.7917 19.8018 14.4678 19.8251 14.2028 19.682L11.9996 18.492L9.79651 19.682C9.5315 19.8251 9.20757 19.8018 8.96585 19.6221C8.72413 19.4424 8.60841 19.1389 8.66909 18.8439L9.15497 16.482L7.4594 14.8335C7.24149 14.6217 7.16752 14.302 7.27022 14.016C7.37292 13.73 7.63332 13.5303 7.93622 13.5055L10.2818 13.3129L11.2995 11.1679C11.4278 10.8975 11.7003 10.7251 11.9997 10.7251Z" fill="#141B34"/>
<path fill-rule="evenodd" clip-rule="evenodd" d="M1.5 6C1.5 4.34315 2.84315 3 4.5 3H19.5C21.1569 3 22.5 4.34315 22.5 6V20C22.5 21.6569 21.1569 23 19.5 23H4.5C2.84315 23 1.5 21.6569 1.5 20V6ZM3.5 9.5V20C3.5 20.5523 3.94772 21 4.5 21H19.5C20.0523 21 20.5 20.5523 20.5 20V9.5H3.5Z" fill="#141B34"/>
</svg>
