<svg width="24" height="24" viewBox="0 0 24 24" fill="none" xmlns="http://www.w3.org/2000/svg">
<path fill-rule="evenodd" clip-rule="evenodd" d="M19.4998 5.51772V4.75C19.4998 3.23122 18.2685 2 16.7498 2C15.231 2 13.9998 3.23122 13.9998 4.75V5.51772C13.1517 5.63903 12.4998 6.36838 12.4998 7.25V9.75C12.4998 10.7165 13.2833 11.5 14.2498 11.5H19.2498C20.2163 11.5 20.9998 10.7165 20.9998 9.75V7.25C20.9998 6.36838 20.3478 5.63903 19.4998 5.51772ZM15.4998 4.75C15.4998 4.05964 16.0594 3.5 16.7498 3.5C17.4401 3.5 17.9998 4.05964 17.9998 4.75V5.5H15.4998V4.75Z" fill="#141B34"/>
<path d="M6.84029 2.00098H2.98748C2.43481 2.00098 1.9852 2.45138 2.00037 3.00384C2.32108 14.681 8.32 20.6799 19.9971 21.0006C20.5496 21.0158 21 20.5662 21 20.0135V16.1607C21 15.7652 20.7671 15.4069 20.4057 15.2462L17.0195 13.7413C16.6957 13.5973 16.3198 13.6354 16.0315 13.8414L13.4527 15.6834C13.1682 15.8866 12.7959 15.9267 12.4761 15.7854C9.39119 14.4224 8.5786 13.6098 7.21558 10.5249C7.07428 10.205 7.11435 9.83282 7.31758 9.5483L9.15957 6.96952C9.36555 6.68113 9.40365 6.30531 9.25971 5.98145L7.75473 2.59525C7.59412 2.23387 7.23575 2.00098 6.84029 2.00098Z" fill="#141B34"/>
</svg>
