<svg width="24" height="24" viewBox="0 0 24 24" fill="none" xmlns="http://www.w3.org/2000/svg">
<path fill-rule="evenodd" clip-rule="evenodd" d="M13 2C13.5523 2 14 2.44772 14 3V6C14 6.55228 13.5523 7 13 7C12.4477 7 12 6.55228 12 6V3C12 2.44772 12.4477 2 13 2ZM18.7071 4.29289C19.0976 4.68342 19.0976 5.31658 18.7071 5.70711L16.7071 7.70711C16.3166 8.09763 15.6834 8.09763 15.2929 7.70711C14.9024 7.31658 14.9024 6.68342 15.2929 6.29289L17.2929 4.29289C17.6834 3.90237 18.3166 3.90237 18.7071 4.29289ZM16 10C16 9.44772 16.4477 9 17 9H20C20.5523 9 21 9.44772 21 10C21 10.5523 20.5523 11 20 11H17C16.4477 11 16 10.5523 16 10Z" fill="#141B34"/>
<path d="M6.84029 2H2.98748C2.43481 2 1.9852 2.45041 2.00037 3.00287C2.32108 14.68 8.32 20.6789 19.9971 20.9996C20.5496 21.0148 21 20.5652 21 20.0125V16.1597C21 15.7642 20.7671 15.4059 20.4057 15.2453L17.0195 13.7403C16.6957 13.5964 16.3198 13.6344 16.0315 13.8404L13.4527 15.6824C13.1682 15.8856 12.7959 15.9257 12.4761 15.7844C9.39119 14.4214 8.5786 13.6088 7.21558 10.5239C7.07428 10.2041 7.11435 9.83184 7.31758 9.54733L9.15957 6.96854C9.36555 6.68016 9.40365 6.30433 9.25971 5.98048L7.75473 2.59427C7.59412 2.2329 7.23575 2 6.84029 2Z" fill="#141B34"/>
</svg>
