<svg width="24" height="24" viewBox="0 0 24 24" fill="none" xmlns="http://www.w3.org/2000/svg">
<path fill-rule="evenodd" clip-rule="evenodd" d="M16.2071 2.29289C16.5976 2.68342 16.5976 3.31658 16.2071 3.70711L15.4142 4.5H17C19.2091 4.5 21 6.29086 21 8.5V11C21 11.5523 20.5523 12 20 12C19.4477 12 19 11.5523 19 11V8.5C19 7.39543 18.1046 6.5 17 6.5H15.4142L16.2071 7.29289C16.5976 7.68342 16.5976 8.31658 16.2071 8.70711C15.8166 9.09763 15.1834 9.09763 14.7929 8.70711L12.2929 6.20711C11.9024 5.81658 11.9024 5.18342 12.2929 4.79289L14.7929 2.29289C15.1834 1.90237 15.8166 1.90237 16.2071 2.29289Z" fill="#141B34"/>
<path d="M6.84029 2H2.98748C2.43481 2 1.9852 2.45041 2.00037 3.00287C2.32108 14.68 8.32 20.6789 19.9971 20.9996C20.5496 21.0148 21 20.5652 21 20.0125V16.1597C21 15.7642 20.7671 15.4059 20.4057 15.2453L17.0195 13.7403C16.6957 13.5964 16.3198 13.6344 16.0315 13.8404L13.4527 15.6824C13.1682 15.8856 12.7959 15.9257 12.4761 15.7844C9.39119 14.4214 8.5786 13.6088 7.21558 10.5239C7.07428 10.2041 7.11435 9.83184 7.31758 9.54733L9.15957 6.96854C9.36555 6.68016 9.40365 6.30433 9.25971 5.98048L7.75473 2.59427C7.59412 2.2329 7.23575 2 6.84029 2Z" fill="#141B34"/>
</svg>
