<svg width="24" height="24" viewBox="0 0 24 24" fill="none" xmlns="http://www.w3.org/2000/svg">
<path fill-rule="evenodd" clip-rule="evenodd" d="M13.2929 2.29289C13.6834 1.90237 14.3166 1.90237 14.7071 2.29289L17 4.58579L19.2929 2.29289C19.6834 1.90237 20.3166 1.90237 20.7071 2.29289C21.0976 2.68342 21.0976 3.31658 20.7071 3.70711L18.4142 6L20.7071 8.29289C21.0976 8.68342 21.0976 9.31658 20.7071 9.70711C20.3166 10.0976 19.6834 10.0976 19.2929 9.70711L17 7.41421L14.7071 9.70711C14.3166 10.0976 13.6834 10.0976 13.2929 9.70711C12.9024 9.31658 12.9024 8.68342 13.2929 8.29289L15.5858 6L13.2929 3.70711C12.9024 3.31658 12.9024 2.68342 13.2929 2.29289Z" fill="#141B34"/>
<path d="M6.84029 2H2.98748C2.43481 2 1.9852 2.45041 2.00037 3.00287C2.32108 14.68 8.32 20.6789 19.9971 20.9996C20.5496 21.0148 21 20.5652 21 20.0125V16.1597C21 15.7642 20.7671 15.4059 20.4057 15.2453L17.0195 13.7403C16.6957 13.5964 16.3198 13.6344 16.0315 13.8404L13.4527 15.6824C13.1682 15.8856 12.7959 15.9257 12.4761 15.7844C9.39119 14.4214 8.5786 13.6088 7.21558 10.5239C7.07428 10.2041 7.11435 9.83184 7.31758 9.54733L9.15957 6.96854C9.36555 6.68016 9.40365 6.30433 9.25971 5.98048L7.75473 2.59427C7.59412 2.2329 7.23575 2 6.84029 2Z" fill="#141B34"/>
</svg>
