<svg width="24" height="24" viewBox="0 0 24 24" fill="none" xmlns="http://www.w3.org/2000/svg">
<path d="M20.1068 20.4609L21.8319 17.5444C22.1147 17.0664 22.0366 16.4358 21.6287 16.0767C15.4559 10.6411 7.54408 10.6411 1.37128 16.0767C0.963434 16.4358 0.88534 17.0664 1.16808 17.5444L2.89317 20.4609C3.17642 20.9398 3.74056 21.129 4.22751 20.9085L6.91179 19.6781C7.25257 19.5238 7.49631 19.1933 7.55804 18.8019L8 16C10.1643 14.8566 12.8357 14.8566 15 16L15.442 18.8019C15.5037 19.1933 15.7474 19.5238 16.0882 19.6781L18.7725 20.9085C19.2594 21.129 19.8236 20.9398 20.1068 20.4609Z" fill="#141B34"/>
<path fill-rule="evenodd" clip-rule="evenodd" d="M6.49997 3.00012L10.25 3C10.8023 2.99998 11.25 3.44768 11.25 3.99997C11.25 4.55225 10.8023 4.99998 10.25 5L8.91417 5.00004L11.5 7.5858L15.7929 3.29301C16.1834 2.90249 16.8166 2.90249 17.2071 3.29302C17.5976 3.68355 17.5976 4.31672 17.2071 4.70724L12.2071 9.70712C11.8166 10.0976 11.1834 10.0976 10.7929 9.70712L7.5 6.4143V7.75C7.5 8.30228 7.05228 8.75 6.5 8.75C5.94772 8.75 5.5 8.30228 5.5 7.75L5.5 4.00012C5.5 3.44785 5.9477 3.00014 6.49997 3.00012Z" fill="#141B34"/>
</svg>
