<svg width="24" height="24" viewBox="0 0 24 24" fill="none" xmlns="http://www.w3.org/2000/svg">
<path fill-rule="evenodd" clip-rule="evenodd" d="M6.49723 2.10596C5.88673 0.884967 4.25945 0.620894 3.29416 1.58618L1.86101 3.01933C1.30504 3.5753 0.963176 4.35222 1.00331 5.1886C1.44688 14.4328 8.86178 21.8477 18.106 22.2912C18.9423 22.3314 19.7193 21.9895 20.2752 21.4335L21.7084 20.0004C22.6737 19.0351 22.4096 17.4078 21.1886 16.7973L17.0742 14.7401C16.3042 14.3551 15.3743 14.5061 14.7656 15.1148L11.449 18.4314C8.65543 16.9377 6.35685 14.6391 4.86317 11.8456L8.17978 8.52899C8.7885 7.92027 8.93941 6.99032 8.55442 6.22035L6.49723 2.10596ZM13.4825 5.31256C12.9303 5.31256 12.4825 5.76028 12.4825 6.31256C12.4825 6.86485 12.9303 7.31256 13.4825 7.31256H20.4825C21.0348 7.31256 21.4825 6.86485 21.4825 6.31256C21.4825 5.76028 21.0348 5.31256 20.4825 5.31256H13.4825Z" fill="#141B34"/>
</svg>
