<svg width="24" height="24" viewBox="0 0 24 24" fill="none" xmlns="http://www.w3.org/2000/svg">
<path d="M12 11.0002C12.5523 11.0002 13 11.4479 13 12.0002V16.2931H15.2929C15.5581 16.2931 15.8361 16.3902 15.9321 16.6374C16.0714 16.9957 15.9964 17.418 15.7071 17.7073L12.7071 20.7073C12.3166 21.0978 11.6834 21.0978 11.2929 20.7073L8.29289 17.7073C8.00364 17.418 7.92863 16.9957 8.06787 16.6374C8.16394 16.3902 8.44189 16.2931 8.70711 16.2931H11V12.0002C11 11.4479 11.4477 11.0002 12 11.0002Z" fill="#141B34"/>
<path fill-rule="evenodd" clip-rule="evenodd" d="M1.86405 7.135C7.61429 1.62191 16.3857 1.62191 22.136 7.135C22.7194 7.69441 23 8.45863 23 9.21015V10.6126C23 11.9778 21.6624 12.9418 20.3673 12.5099L16.9128 11.358C16.0962 11.0857 15.5455 10.3214 15.5455 9.46067V5.52007C13.2293 4.82689 10.7707 4.82689 8.45455 5.52007V9.48552C8.45455 10.3498 7.89942 11.1162 7.07828 11.3858L3.62374 12.5197C2.33037 12.9442 1 11.9807 1 10.6194V9.21015C1 8.45863 1.28058 7.69441 1.86405 7.135Z" fill="#141B34"/>
</svg>
