<svg width="24" height="24" viewBox="0 0 24 24" fill="none" xmlns="http://www.w3.org/2000/svg">
<path fill-rule="evenodd" clip-rule="evenodd" d="M7.56056 3.4466C7.79876 2.732 8.46751 2.25 9.22076 2.25H14.7792C15.5325 2.25 16.2012 2.732 16.4394 3.4466L17.0406 5.25H20C21.5188 5.25 22.75 6.48122 22.75 8V19C22.75 20.5188 21.5188 21.75 20 21.75H4C2.48122 21.75 1.25 20.5188 1.25 19V8C1.25 6.48122 2.48122 5.25 4 5.25H6.95943L7.56056 3.4466ZM12 9.5C12.5523 9.5 13 9.94772 13 10.5V13H15.5C16.0523 13 16.5 13.4477 16.5 14C16.5 14.5523 16.0523 15 15.5 15H13V17.5C13 18.0523 12.5523 18.5 12 18.5C11.4477 18.5 11 18.0523 11 17.5V15H8.5C7.94772 15 7.5 14.5523 7.5 14C7.5 13.4477 7.94772 13 8.5 13H11V10.5C11 9.94772 11.4477 9.5 12 9.5ZM12 5C11.4477 5 11 5.44772 11 6C11 6.55228 11.4477 7 12 7H12.0001C12.5524 7 13.0001 6.55228 13.0001 6C13.0001 5.44772 12.5524 5 12.0001 5H12Z" fill="#141B34"/>
</svg>
