<svg width="24" height="24" viewBox="0 0 24 24" fill="none" xmlns="http://www.w3.org/2000/svg">
<path d="M17.161 3.25C17.3601 3.24989 17.5511 3.32897 17.6919 3.4698L20.5305 6.30982C20.823 6.60246 20.8232 7.07669 20.531 7.36964L15.9091 12.0038L7.39043 20.5301C7.24978 20.6709 7.05894 20.75 6.85993 20.75C6.66093 20.75 6.47007 20.6709 6.32939 20.5302L3.49081 17.6902C3.19814 17.3974 3.19809 16.9228 3.49069 16.6299L16.6304 3.47037C16.771 3.32939 16.9619 3.25011 17.161 3.25Z" fill="#141B34"/>
<path d="M20.5136 16.629C20.8053 16.9221 20.8048 17.3959 20.5125 17.6884L17.6739 20.5284C17.5331 20.6693 17.342 20.7484 17.1427 20.7482C16.9435 20.748 16.7525 20.6685 16.612 20.5273L3.47073 7.38208C3.32964 7.24155 3.25022 7.05067 3.25 6.85153C3.24978 6.6524 3.32876 6.46134 3.46954 6.3205L6.30812 3.48048C6.60058 3.18788 7.07474 3.18735 7.36785 3.4793L20.5136 16.629Z" fill="#141B34"/>
</svg>
