<svg width="24" height="24" viewBox="0 0 24 24" fill="none" xmlns="http://www.w3.org/2000/svg">
<path fill-rule="evenodd" clip-rule="evenodd" d="M9.5 2C8.94772 2 8.5 2.44772 8.5 3C8.5 3.55228 8.94772 4 9.5 4H11.0127V7.88561C10.2343 7.32813 9.28047 7 8.25 7C5.62665 7 3.5 9.12665 3.5 11.75V13.2796C3.14179 13.3575 2.82163 13.5859 2.64218 13.928L1.44822 16.2044C0.809726 17.4218 1.76802 18.75 3.05065 18.75H5.94998C7.23261 18.75 8.1909 17.4218 7.5524 16.2044L6.35845 13.928C6.1789 13.5857 5.85847 13.3573 5.5 13.2795V11.75C5.5 10.2312 6.73122 9 8.25 9C9.76878 9 11 10.2312 11 11.75V12C11 12.0544 11.0043 12.1077 11.0127 12.1598V16.2785C10.687 16.3494 10.399 16.5486 10.2184 16.8375L8.82154 19.0725C8.09305 20.2381 8.93102 21.75 10.3055 21.75H13.697C15.0715 21.75 15.9095 20.2381 15.181 19.0725L13.7842 16.8375C13.6078 16.5554 13.329 16.3588 13.0127 16.2837V11.484C13.1465 10.09 14.3209 9 15.75 9C17.2688 9 18.5 10.2312 18.5 11.75V13.2796C18.1418 13.3575 17.8216 13.5859 17.6422 13.928L16.4482 16.2044C15.8097 17.4218 16.768 18.75 18.0507 18.75H20.95C22.2326 18.75 23.1909 17.4218 22.5524 16.2044L21.3585 13.928C21.1789 13.5857 20.8585 13.3573 20.5 13.2795V11.75C20.5 9.12665 18.3734 7 15.75 7C14.7307 7 13.7864 7.32105 13.0127 7.86755V4H14.5C15.0523 4 15.5 3.55228 15.5 3C15.5 2.44772 15.0523 2 14.5 2H12.0127H9.5Z" fill="#141B34"/>
</svg>
