<svg width="24" height="24" viewBox="0 0 24 24" fill="none" xmlns="http://www.w3.org/2000/svg">
<path fill-rule="evenodd" clip-rule="evenodd" d="M3 7.75V21C3 21.5523 2.55228 22 2 22C1.44772 22 1 21.5523 1 21V5C1 3.34315 2.34315 2 4 2H20C21.6569 2 23 3.34315 23 5V21C23 21.5523 22.5523 22 22 22C21.4477 22 21 21.5523 21 21V7.75H3Z" fill="#141B34"/>
<path fill-rule="evenodd" clip-rule="evenodd" d="M8 18C8.55228 18 9 18.4477 9 19V21C9 21.5523 8.55228 22 8 22C7.44772 22 7 21.5523 7 21V19C7 18.4477 7.44772 18 8 18ZM16 18C16.5523 18 17 18.4477 17 19V21C17 21.5523 16.5523 22 16 22C15.4477 22 15 21.5523 15 21V19C15 18.4477 15.4477 18 16 18Z" fill="#141B34"/>
<path fill-rule="evenodd" clip-rule="evenodd" d="M10.0615 11C9.60268 11 9.20269 11.3123 9.0914 11.7575L8.47013 14.2425C8.33619 14.7783 7.79325 15.1041 7.25746 14.9701C6.72166 14.8362 6.3959 14.2933 6.52985 13.7575L7.15112 11.2724C7.48499 9.93689 8.68494 9 10.0615 9H13.9384C15.315 9 16.515 9.93689 16.8489 11.2724L17.4701 13.7575C17.6041 14.2933 17.2783 14.8362 16.7425 14.9701C16.2067 15.1041 15.6638 14.7783 15.5299 14.2425L14.9086 11.7575C14.7973 11.3123 14.3973 11 13.9384 11H10.0615Z" fill="#141B34"/>
<path fill-rule="evenodd" clip-rule="evenodd" d="M8 13C6.34315 13 5 14.3431 5 16V17C5 18.6569 6.34315 20 8 20L16 20C17.6569 20 19 18.6569 19 17V16C19 14.3431 17.6569 13 16 13L8 13ZM10 16.5C10 15.9477 9.55228 15.5 9 15.5C8.44772 15.5 8 15.9477 8 16.5V16.51C8 17.0623 8.44772 17.51 9 17.51C9.55228 17.51 10 17.0623 10 16.51V16.5ZM16 16.5C16 15.9477 15.5523 15.5 15 15.5C14.4477 15.5 14 15.9477 14 16.5V16.51C14 17.0623 14.4477 17.51 15 17.51C15.5523 17.51 16 17.0623 16 16.51V16.5Z" fill="#141B34"/>
</svg>
