<svg width="24" height="24" viewBox="0 0 24 24" fill="none" xmlns="http://www.w3.org/2000/svg">
<path d="M7.46901 2.52545L2.41459 5.05266C2.17652 5.1717 2.01937 5.40801 2.00166 5.67359L1.00166 20.6736C0.987855 20.8807 1.0605 21.0843 1.20232 21.2359C1.34413 21.3875 1.54242 21.4735 1.75 21.4735H4.75C5.08122 21.4735 5.37321 21.2562 5.46838 20.939L6.05123 18.9959C6.05957 19.0173 6.06889 19.0383 6.07918 19.0589L7.07918 21.0589C7.20623 21.313 7.46592 21.4735 7.75 21.4735H10.9999V9.25584C9.28576 8.55313 8.41474 7.08926 7.97946 5.84561C7.73849 5.1571 7.61959 4.50864 7.56034 4.03462C7.53056 3.79645 7.51548 3.59924 7.50781 3.45912C7.50398 3.38898 7.50199 3.33292 7.50096 3.29292C7.50045 3.27292 7.50017 3.25692 7.50002 3.24516L7.49999 3.24223L7.46901 2.52545Z" fill="#141B34"/>
<path d="M12.4999 21.4735H15.75C16.0341 21.4735 16.2938 21.313 16.4208 21.0589L17.4208 19.0589C17.4311 19.0383 17.4404 19.0174 17.4487 18.996L18.0316 20.939C18.1268 21.2562 18.4188 21.4735 18.75 21.4735H21.75C21.9576 21.4735 22.1559 21.3875 22.2977 21.2359C22.4395 21.0843 22.5121 20.8807 22.4983 20.6736L21.4983 5.67359C21.4806 5.40801 21.3235 5.1717 21.0854 5.05266L16.0234 2.52166L15.9998 3.23822L15.9997 3.24516C15.9995 3.25692 15.9993 3.27292 15.9988 3.29292C15.9977 3.33292 15.9957 3.38898 15.9919 3.45912C15.9842 3.59924 15.9691 3.79645 15.9394 4.03462C15.8801 4.50864 15.7612 5.1571 15.5203 5.84561C15.085 7.08926 14.214 8.55313 12.4999 9.25584V21.4735Z" fill="#141B34"/>
<path d="M14.5397 2.00356C14.4077 2.04207 14.2856 2.11698 14.1894 2.22521C13.6605 2.82024 12.7452 3.16947 11.75 3.16947C10.7548 3.16947 9.83947 2.82024 9.31056 2.22521C9.2113 2.11354 9.08447 2.03734 8.94769 2L8.99916 3.19045C8.99962 3.20107 8.99985 3.2117 8.99986 3.22233L8.99991 3.22641L9.00046 3.25433C9.00114 3.28075 9.00257 3.32234 9.00557 3.37721C9.01158 3.48708 9.02384 3.64925 9.04875 3.84857C9.09888 4.24955 9.19873 4.7886 9.39525 5.35008C9.77155 6.42523 10.4614 7.4852 11.7499 7.93631C13.0383 7.4852 13.7282 6.42523 14.1045 5.35008C14.301 4.7886 14.4008 4.24955 14.451 3.84857C14.4759 3.64925 14.4881 3.48709 14.4941 3.37721C14.4971 3.32234 14.4986 3.28075 14.4993 3.25433L14.4998 3.22641L14.4999 3.22285C14.4999 3.21477 14.5 3.20617 14.5003 3.1981L14.5397 2.00356Z" fill="#141B34"/>
</svg>
