<svg width="24" height="24" viewBox="0 0 24 24" fill="none" xmlns="http://www.w3.org/2000/svg">
<path fill-rule="evenodd" clip-rule="evenodd" d="M4.50019 6.74988C2.98142 6.74988 1.7502 7.98108 1.75019 9.49985L1.75009 19.4999C1.75008 21.0186 2.9813 22.2499 4.50009 22.2499H12.5001C14.0189 22.2499 15.2501 21.0187 15.2501 19.4999V7.49988C15.2501 7.08566 14.9143 6.74988 14.5001 6.74988H4.50019ZM5.50009 11.7499C5.08588 11.7499 4.75009 12.0857 4.75009 12.4999C4.75009 12.9141 5.08588 13.2499 5.50009 13.2499H9.00009C9.41431 13.2499 9.75009 12.9141 9.75009 12.4999C9.75009 12.0857 9.41431 11.7499 9.00009 11.7499H5.50009ZM5.50009 15.7499C5.08588 15.7499 4.75009 16.0857 4.75009 16.4999C4.75009 16.9141 5.08588 17.2499 5.50009 17.2499H11.5001C11.9143 17.2499 12.2501 16.9141 12.2501 16.4999C12.2501 16.0857 11.9143 15.7499 11.5001 15.7499H5.50009Z" fill="#141B34"/>
<path d="M16.4992 17.2499H19.4997C21.0185 17.2499 22.2497 16.0187 22.2497 14.4999V4.49988C22.2497 2.9811 21.0185 1.74988 19.4997 1.74988H11.5782L15.914 6.08573C16.3096 6.48131 16.5135 7.01476 16.4992 7.55338V17.2499Z" fill="#141B34"/>
<path d="M10.0305 1.96945C9.81601 1.75495 9.49342 1.69078 9.21316 1.80687C8.9329 1.92296 8.75017 2.19645 8.75018 2.4998L8.75026 5.49976H13.5608L10.0305 1.96945Z" fill="#141B34"/>
</svg>
