<svg width="24" height="24" viewBox="0 0 24 24" fill="none" xmlns="http://www.w3.org/2000/svg">
<path fill-rule="evenodd" clip-rule="evenodd" d="M12 1.01172C9.65279 1.01172 7.75 2.91451 7.75 5.26172C7.75 6.27195 8.10341 7.20167 8.69271 7.93105C9.02789 8.34592 9.51981 8.51172 9.95879 8.51172H14.0412C14.4802 8.51172 14.9721 8.34592 15.3073 7.93105C15.8966 7.20167 16.25 6.27195 16.25 5.26172C16.25 2.91451 14.3472 1.01172 12 1.01172ZM16 11.3809H15.2905C15.4253 13.5554 15.9188 15.5346 17.1072 17H17.2639C18.4002 17 19.439 17.642 19.9472 18.6584L20.3944 19.5528C20.4639 19.6916 20.5 19.8448 20.5 20V22C20.5 22.5523 20.0523 23 19.5 23H4.5C3.94772 23 3.5 22.5523 3.5 22V20C3.5 19.8448 3.53615 19.6916 3.60557 19.5528L4.05279 18.6584C4.56096 17.642 5.59975 17 6.73607 17H6.8927C8.08109 15.5346 8.57465 13.5554 8.70947 11.3809H8C7.44772 11.3809 7 10.9331 7 10.3809C7 9.82857 7.44772 9.38086 8 9.38086H16C16.5523 9.38086 17 9.82857 17 10.3809C17 10.9331 16.5523 11.3809 16 11.3809ZM5.84164 19.5528C6.01103 19.214 6.3573 19 6.73607 19H17.2639C17.6427 19 17.989 19.214 18.1584 19.5528L18.5 20.2361V21H5.5V20.2361L5.84164 19.5528Z" fill="#141B34"/>
</svg>
