<svg width="24" height="24" viewBox="0 0 24 24" fill="none" xmlns="http://www.w3.org/2000/svg">
<path fill-rule="evenodd" clip-rule="evenodd" d="M12.0063 3.15156C14.6502 0.507672 18.4236 0.726822 20.8483 3.15156C22.774 5.07725 23.3246 7.87106 22.0971 10.2882C21.98 10.5189 21.7522 10.6729 21.4945 10.6957C21.2368 10.7185 20.9855 10.6068 20.8297 10.4003C20.198 9.56297 19.1635 9.43156 18.2881 9.84027C17.4219 10.2447 16.8634 11.1073 17.1325 12.1721C17.2021 12.4474 17.1103 12.7383 16.8954 12.9237C16.6804 13.1092 16.3792 13.1574 16.1171 13.0483C15.6805 12.8666 15.271 13.0306 15.0143 13.4013C14.7505 13.7822 14.7474 14.2382 15.0379 14.5643C15.1999 14.7462 15.2635 14.9956 15.2084 15.2329C15.1532 15.4702 14.9863 15.666 14.7606 15.7578C13.5339 16.2571 12.2689 16.6297 11.1397 16.7257C10.0344 16.8196 8.8918 16.6603 8.1157 15.8842C7.34655 15.115 7.18336 13.9858 7.2716 12.8916C7.36167 11.7745 7.72489 10.523 8.21448 9.3073C9.18971 6.8857 10.7482 4.40974 12.0063 3.15156Z" fill="#141B34"/>
<path d="M5.98166 15.1131L4.81683 16.2779C3.93472 15.7197 2.71798 15.7943 1.92811 16.5842C1.02396 17.4883 1.02396 18.9542 1.92811 19.8584C2.32367 20.2539 2.86749 20.5096 3.43083 20.5692C3.49042 21.1325 3.74608 21.6764 4.14165 22.0719C5.04579 22.9761 6.5117 22.9761 7.41584 22.0719C8.20571 21.2821 8.28031 20.0653 7.72211 19.1832L8.88695 18.0184C8.23861 17.8258 7.60253 17.4924 7.05504 16.9449C6.50749 16.3974 6.17419 15.7611 5.98166 15.1131Z" fill="#141B34"/>
</svg>
