<svg width="24" height="24" viewBox="0 0 24 24" fill="none" xmlns="http://www.w3.org/2000/svg">
<path fill-rule="evenodd" clip-rule="evenodd" d="M5.75 7.99976C5.75 7.58554 6.08579 7.24976 6.5 7.24976H13.5C13.9142 7.24976 14.25 7.58554 14.25 7.99976C14.25 10.65 14.6564 14.2464 15.2321 16.8373L15.2354 16.8529L16.1149 21.25H17C17.4142 21.25 17.75 21.5858 17.75 22C17.75 22.4142 17.4142 22.75 17 22.75H15.5139C15.5041 22.7502 15.4943 22.7502 15.4845 22.75H4.51549C4.50572 22.7502 4.49593 22.7502 4.48611 22.75H3C2.58579 22.75 2.25 22.4142 2.25 22C2.25 21.5858 2.58579 21.25 3 21.25H3.88515L4.76456 16.8529L4.76786 16.8373C5.34419 14.2438 5.75 10.9408 5.75 7.99976Z" fill="#141B34"/>
<path fill-rule="evenodd" clip-rule="evenodd" d="M2.25 22C2.25 21.5858 2.58579 21.25 3 21.25H17C17.4142 21.25 17.75 21.5858 17.75 22C17.75 22.4142 17.4142 22.75 17 22.75H3C2.58579 22.75 2.25 22.4142 2.25 22Z" fill="#141B34"/>
<path fill-rule="evenodd" clip-rule="evenodd" d="M9.25 5C9.25 2.92893 10.9289 1.25 13 1.25H17C17.4142 1.25 17.75 1.58579 17.75 2C17.75 2.41421 17.4142 2.75 17 2.75H13C11.7574 2.75 10.75 3.75736 10.75 5C10.75 5.41421 10.4142 5.75 10 5.75C9.58579 5.75 9.25 5.41421 9.25 5ZM19.25 2C19.25 1.58579 19.5858 1.25 20 1.25H21C21.4142 1.25 21.75 1.58579 21.75 2C21.75 2.41421 21.4142 2.75 21 2.75H20C19.5858 2.75 19.25 2.41421 19.25 2Z" fill="#141B34"/>
<path fill-rule="evenodd" clip-rule="evenodd" d="M12.25 5C12.25 4.58579 12.5858 4.25 13 4.25H19C19.4142 4.25 19.75 4.58579 19.75 5C19.75 5.41421 19.4142 5.75 19 5.75H13C12.5858 5.75 12.25 5.41421 12.25 5Z" fill="#141B34"/>
</svg>
