<svg width="24" height="24" viewBox="0 0 24 24" fill="none" xmlns="http://www.w3.org/2000/svg">
<path fill-rule="evenodd" clip-rule="evenodd" d="M13.2878 2.05683C14.0622 1.24079 15.3572 1.22386 16.1527 2.01937L21.9813 7.84789C22.7768 8.6434 22.7599 9.93832 21.9438 10.7128L17.1884 15.226C16.7878 15.6062 16.1549 15.5896 15.7747 15.189C15.3945 14.7885 15.411 14.1555 15.8116 13.7753L17.6321 12.0476L15.4996 9.91516L13.7069 11.7078C13.3164 12.0983 12.6833 12.0983 12.2927 11.7078C11.9022 11.3172 11.9022 10.6841 12.2927 10.2935L14.0853 8.50097L11.953 6.36868L10.2253 8.18904C9.84516 8.58964 9.21222 8.60619 8.81162 8.226C8.41102 7.84582 8.39447 7.21287 8.77466 6.81227L13.2878 2.05683ZM13.3302 4.91749L15.4995 7.08675L16.9456 5.64069L14.7385 3.43359L13.3302 4.91749ZM18.3598 7.05489L16.9138 8.50094L19.0832 10.6703L20.5671 9.26211L18.3598 7.05489Z" fill="#141B34"/>
<path fill-rule="evenodd" clip-rule="evenodd" d="M8.09232 6.20001C8.49044 5.90142 9.04753 5.94101 9.39942 6.2929L17.7071 14.6006C18.059 14.9525 18.0986 15.5096 17.8 15.9077L15.0308 19.6C14.8228 19.8773 14.4862 20.0271 14.141 19.996C13.7958 19.9648 13.4913 19.7572 13.3364 19.4472L11.7245 16.2236L9.01243 15.8361C8.57246 15.7733 8.22676 15.4276 8.16391 14.9876L7.77647 12.2755L4.5528 10.6637C4.24281 10.5087 4.03517 10.2042 4.00405 9.85905C3.97293 9.51387 4.12275 9.17719 4.40001 8.96924L8.09232 6.20001Z" fill="#141B34"/>
<path d="M3.68803 11.8984C3.75071 11.9371 3.8154 11.9731 3.88198 12.0064L6.40269 13.2668L6.67898 15.2008C6.83612 16.3008 7.70036 17.165 8.8003 17.3221L10.7344 17.5984L11.9947 20.1191C12.0279 20.1856 12.0639 20.2502 12.1025 20.3127L10.4143 22.001C9.63321 22.7821 8.36686 22.7821 7.5858 22.0011L1.99985 16.4151C1.21881 15.6341 1.2188 14.3678 1.99982 13.5867L3.68803 11.8984Z" fill="#141B34"/>
</svg>
