<svg width="24" height="24" viewBox="0 0 24 24" fill="none" xmlns="http://www.w3.org/2000/svg">
<path fill-rule="evenodd" clip-rule="evenodd" d="M12 1.25C6.06294 1.25 1.25 6.06294 1.25 12C1.25 17.9371 6.06294 22.75 12 22.75C17.9371 22.75 22.75 17.9371 22.75 12C22.75 6.06294 17.9371 1.25 12 1.25ZM15.5303 9.53033C15.8232 9.23744 15.8232 8.76256 15.5303 8.46967C15.2374 8.17678 14.7626 8.17678 14.4697 8.46967L9.75 13.1893V10.9999C9.75 10.5857 9.41421 10.2499 9 10.2499C8.58579 10.2499 8.25 10.5857 8.25 10.9999V14.9999C8.25 15.4142 8.58579 15.7499 9 15.7499H13C13.4142 15.7499 13.75 15.4142 13.75 14.9999C13.75 14.5857 13.4142 14.2499 13 14.2499H10.8107L15.5303 9.53033Z" fill="#141B34"/>
</svg>
