<svg width="24" height="24" viewBox="0 0 24 24" fill="none" xmlns="http://www.w3.org/2000/svg">
<path fill-rule="evenodd" clip-rule="evenodd" d="M5 6.5C5 3.46243 7.46243 1 10.5 1C13.5376 1 16 3.46243 16 6.5V9.5C16 10.0523 15.5523 10.5 15 10.5C14.4477 10.5 14 10.0523 14 9.5V6.5C14 4.567 12.433 3 10.5 3C8.567 3 7 4.567 7 6.5V9.5C7 10.0523 6.55228 10.5 6 10.5C5.44772 10.5 5 10.0523 5 9.5V6.5Z" fill="#141B34"/>
<path d="M10.5 7.25C6.21979 7.25 2.75 10.7198 2.75 15C2.75 19.2802 6.21979 22.75 10.5 22.75C11.0923 22.75 11.6691 22.6836 12.2233 22.5577C11.0087 21.4175 10.25 19.7974 10.25 18C10.25 14.5482 13.0482 11.75 16.5 11.75C16.8683 11.75 17.2291 11.7819 17.5799 11.843C16.3712 9.13631 13.6559 7.25 10.5 7.25Z" fill="#141B34"/>
<path fill-rule="evenodd" clip-rule="evenodd" d="M16.5 13.25C13.8766 13.25 11.75 15.3766 11.75 18C11.75 20.6234 13.8766 22.75 16.5 22.75C19.1234 22.75 21.25 20.6234 21.25 18C21.25 15.3766 19.1234 13.25 16.5 13.25ZM15.5 17.25C15.0858 17.25 14.75 17.5858 14.75 18C14.75 18.4142 15.0858 18.75 15.5 18.75H17.5C17.9142 18.75 18.25 18.4142 18.25 18C18.25 17.5858 17.9142 17.25 17.5 17.25H15.5Z" fill="#141B34"/>
</svg>
