<svg width="24" height="24" viewBox="0 0 24 24" fill="none" xmlns="http://www.w3.org/2000/svg">
<path fill-rule="evenodd" clip-rule="evenodd" d="M2.69961 5.94218C5.25894 2.11552 10.0904 0.119798 14.7977 1.37671C20.6913 2.95038 24.2011 8.97984 22.6224 14.8513C21.0439 20.7214 14.9817 24.1929 9.08936 22.6195C4.71149 21.4506 1.65176 17.825 1.0116 13.6335C0.928221 13.0875 1.30321 12.5773 1.84917 12.494C2.39512 12.4106 2.9053 12.7856 2.98868 13.3315C3.51236 16.7605 6.01717 19.7291 9.60531 20.6872C14.4418 21.9786 19.4017 19.1268 20.691 14.332C21.9799 9.53854 19.117 4.60007 14.2818 3.30902C10.6668 2.34378 6.94856 3.72301 4.7687 6.49405L5.80604 7.90606C6.02924 8.20987 6.0626 8.61339 5.89234 8.94975C5.72208 9.2861 5.37713 9.49811 5.00014 9.49811H2.50014C2.17156 9.49811 1.86395 9.3367 1.67725 9.06631C1.49055 8.79593 1.44859 8.45108 1.56501 8.14382C1.8629 7.35757 2.24561 6.62099 2.69961 5.94218Z" fill="#141B34"/>
<path fill-rule="evenodd" clip-rule="evenodd" d="M12 6.99854C12.5523 6.99854 13 7.44625 13 7.99854V11.5843L14.7071 13.2914C15.0976 13.682 15.0976 14.3151 14.7071 14.7056C14.3166 15.0962 13.6834 15.0962 13.2929 14.7056L11.2929 12.7056C11.1054 12.5181 11 12.2638 11 11.9985V7.99854C11 7.44625 11.4477 6.99854 12 6.99854Z" fill="#141B34"/>
</svg>
