<svg width="24" height="24" viewBox="0 0 24 24" fill="none" xmlns="http://www.w3.org/2000/svg">
<path fill-rule="evenodd" clip-rule="evenodd" d="M1 12C1 5.92487 5.92487 1 12 1C16.0756 1 19.601 3.21665 21.4902 6.50145C21.8865 7.19064 22.2112 7.92713 22.454 8.70035C22.5494 9.00409 22.4945 9.33511 22.3061 9.59176C22.1177 9.8484 21.8183 10 21.5 10H19C18.6143 10 18.263 9.7782 18.0971 9.43C17.9313 9.08179 17.9805 8.66925 18.2235 8.36979L19.3969 6.92418C17.7853 4.55177 15.0847 3 12 3C7.02944 3 3 7.02944 3 12C3 16.9706 7.0294 21 12 21C12.5522 21 13 21.4477 13 22C13 22.5523 12.5522 23 12 23C5.92482 23 1 18.0751 1 12Z" fill="#141B34"/>
<path fill-rule="evenodd" clip-rule="evenodd" d="M12 7C12.5523 7 13 7.44772 13 8V11.5858L14.7071 13.2929C15.0976 13.6834 15.0976 14.3166 14.7071 14.7071C14.3166 15.0976 13.6834 15.0976 13.2929 14.7071L11.2929 12.7071C11.1054 12.5196 11 12.2652 11 12V8C11 7.44772 11.4477 7 12 7Z" fill="#141B34"/>
<path fill-rule="evenodd" clip-rule="evenodd" d="M22.0003 11C22.5526 11 23.0003 11.4477 23.0003 12C23.0003 12.3674 22.9837 12.7309 22.9513 13.09C22.9016 13.64 22.4154 14.0456 21.8654 13.9959C21.3153 13.9463 20.9097 13.4601 20.9594 12.91C20.9864 12.6108 21.0003 12.3072 21.0003 12C21.0003 11.4477 21.448 11 22.0003 11ZM21.6578 14.9104C22.1746 15.1051 22.4358 15.6819 22.2411 16.1987C22.0776 16.6328 21.8895 17.0541 21.6785 17.4607C21.424 17.9509 20.8204 18.142 20.3302 17.8876C19.84 17.6332 19.6489 17.0295 19.9033 16.5393C20.078 16.2027 20.2339 15.8537 20.3695 15.4937C20.5642 14.9769 21.141 14.7157 21.6578 14.9104ZM19.8493 18.5736C20.2541 18.9493 20.2777 19.582 19.902 19.9868C19.5667 20.348 19.2088 20.6864 18.8303 20.9996C18.4048 21.3518 17.7744 21.2923 17.4223 20.8668C17.0702 20.4413 17.1297 19.8109 17.5552 19.4588C17.8657 19.2019 18.16 18.9237 18.4361 18.6262C18.8118 18.2214 19.4446 18.1978 19.8493 18.5736ZM16.9095 21.1914C17.1394 21.6936 16.9187 22.2871 16.4166 22.517C16.0584 22.681 15.6901 22.8257 15.3129 22.9499C14.7883 23.1225 14.2231 22.8372 14.0504 22.3126C13.8777 21.7881 14.163 21.2228 14.6876 21.0501C14.9936 20.9494 15.2927 20.8319 15.584 20.6985C16.0861 20.4686 16.6796 20.6893 16.9095 21.1914Z" fill="#141B34"/>
</svg>
