<svg width="24" height="24" viewBox="0 0 24 24" fill="none" xmlns="http://www.w3.org/2000/svg">
<path d="M5.853 7.36454C3.22664 7.89643 1.25 10.217 1.25 13C1.25 14.2033 1.61964 15.3203 2.25157 16.2436C3.74304 18.2082 5.70109 18.8587 7.60562 18.6621C9.70468 18.4455 11.7853 17.1902 13.1021 15.377C13.5224 14.6152 12.9243 13.5839 12.0009 13.5839C11.2987 13.5839 10.7509 14.1404 10.7509 14.8006C10.7509 15.2148 10.4151 15.5506 10.0009 15.5506C9.5867 15.5506 9.25091 15.2148 9.25091 14.8006C9.25091 13.2884 10.494 12.0839 12.0009 12.0839C14.0151 12.0839 15.4577 14.3319 14.3798 16.1643C14.3682 16.184 14.3557 16.2032 14.3423 16.2218C14.192 16.4309 14.0329 16.634 13.8659 16.8306C14.1077 16.778 14.3592 16.75 14.6175 16.75C16.096 16.75 17.238 17.6038 17.8218 18.7403C20.5714 18.5741 22.75 16.2914 22.75 13.5C22.75 10.8541 20.7927 8.66534 18.2469 8.30273C18.1428 4.94224 15.3858 2.25 12 2.25C8.93585 2.25 6.38731 4.45456 5.853 7.36454Z" fill="#141B34"/>
<path d="M14.3124 19.8432C14.4058 19.7819 14.5091 19.75 14.6173 19.75C14.9124 19.75 15.2519 20.0281 15.2519 20.5C15.2519 20.9719 14.9124 21.25 14.6173 21.25C14.5493 21.25 14.4847 21.2375 14.424 21.2142C14.0371 21.0661 13.6035 21.2596 13.4554 21.6465C13.3072 22.0333 13.5008 22.4669 13.8876 22.6151C14.1155 22.7023 14.3616 22.75 14.6173 22.75C15.8516 22.75 16.7519 21.685 16.7519 20.5C16.7519 19.315 15.8516 18.25 14.6173 18.25C14.1864 18.25 13.7869 18.3851 13.4554 18.6119C13.447 18.6176 13.4387 18.6236 13.4305 18.6297C12.4536 19.3584 10.6095 20.3112 8.52952 20.5562C8.11815 20.6046 7.82395 20.9774 7.87241 21.3888C7.92087 21.8001 8.29363 22.0943 8.705 22.0459C11.0841 21.7657 13.1637 20.6959 14.3124 19.8432Z" fill="#141B34"/>
<path d="M3.33022 20.2106C3.51643 19.8406 3.96732 19.6916 4.33732 19.8778C4.88545 20.1537 5.44298 20.3422 6.0008 20.4597C6.40613 20.545 6.66555 20.9427 6.58022 21.3481C6.49489 21.7534 6.09713 22.0128 5.6918 21.9275C5.01318 21.7846 4.33221 21.5545 3.663 21.2177C3.293 21.0315 3.14401 20.5806 3.33022 20.2106Z" fill="#141B34"/>
<path d="M19 20.25C18.5858 20.25 18.25 20.5858 18.25 21C18.25 21.4142 18.5858 21.75 19 21.75H21C21.4142 21.75 21.75 21.4142 21.75 21C21.75 20.5858 21.4142 20.25 21 20.25H19Z" fill="#141B34"/>
</svg>
