<svg width="24" height="24" viewBox="0 0 24 24" fill="none" xmlns="http://www.w3.org/2000/svg">
<path fill-rule="evenodd" clip-rule="evenodd" d="M7.25 6.13856C7.25 3.46296 9.35278 1.25 12 1.25C14.6472 1.25 16.75 3.46296 16.75 6.13856C16.75 6.54923 16.7007 6.94873 16.6076 7.33085C17.713 7.36456 18.7852 7.77894 19.6518 8.43558C20.8698 9.35851 21.75 10.8116 21.75 12.5C21.75 13.7242 21.4322 14.7173 20.8565 15.4802C20.2831 16.24 19.4985 16.7125 18.6636 16.9765C17.4234 17.3686 16.0171 17.3209 14.8129 17.0377C14.8597 17.3765 14.9335 17.6786 15.0369 17.9707C15.2376 18.5371 15.565 19.1089 16.1006 19.8669C16.3448 20.2124 16.4654 20.647 16.3918 21.0761C16.3149 21.5254 16.0283 21.9265 15.5597 22.1311C14.8425 22.4442 13.7039 22.75 12 22.75C10.2961 22.75 9.15753 22.4442 8.44028 22.1311C7.97171 21.9265 7.68512 21.5254 7.60815 21.0761C7.53464 20.647 7.65516 20.2124 7.89935 19.8669C8.43498 19.1089 8.76241 18.5371 8.96306 17.9707C9.06654 17.6786 9.14029 17.3765 9.18709 17.0377C7.98293 17.3209 6.5766 17.3686 5.33638 16.9765C4.50153 16.7125 3.71688 16.24 3.14353 15.4802C2.56782 14.7173 2.25 13.7242 2.25 12.5C2.25 10.8116 3.13017 9.35851 4.34824 8.43558C5.21485 7.77894 6.28702 7.36456 7.39244 7.33085C7.29934 6.94873 7.25 6.54923 7.25 6.13856Z" fill="#141B34"/>
</svg>
