<svg width="24" height="24" viewBox="0 0 24 24" fill="none" xmlns="http://www.w3.org/2000/svg">
<path fill-rule="evenodd" clip-rule="evenodd" d="M10.1986 3.34225L12.3913 6.24446H20C21.5188 6.24446 22.75 7.47567 22.75 8.99446V19C22.75 20.5188 21.5188 21.75 20 21.75H4C2.48122 21.75 1.25 20.5188 1.25 19V5C1.25 3.48122 2.48122 2.25 4 2.25H8.0044C8.86657 2.25 9.67884 2.65434 10.1986 3.34225ZM13.6964 11.2786C13.8502 10.894 13.6631 10.4575 13.2785 10.3037C12.894 10.1498 12.4575 10.3369 12.3036 10.7215L10.3036 15.7215C10.1498 16.1061 10.3369 16.5425 10.7215 16.6964C11.106 16.8502 11.5425 16.6631 11.6964 16.2786L13.6964 11.2786ZM9.03033 12.5303C9.32322 12.2375 9.32322 11.7626 9.03033 11.4697C8.73744 11.1768 8.26256 11.1768 7.96967 11.4697L6.46967 12.9697C6.17678 13.2626 6.17678 13.7375 6.46967 14.0303L7.96967 15.5303C8.26256 15.8232 8.73744 15.8232 9.03033 15.5303C9.32322 15.2375 9.32322 14.7626 9.03033 14.4697L8.06066 13.5L9.03033 12.5303ZM16.0303 11.4697C15.7374 11.1768 15.2626 11.1768 14.9697 11.4697C14.6768 11.7626 14.6768 12.2375 14.9697 12.5303L15.9393 13.5L14.9697 14.4697C14.6768 14.7626 14.6768 15.2375 14.9697 15.5303C15.2626 15.8232 15.7374 15.8232 16.0303 15.5303L17.5303 14.0303C17.8232 13.7375 17.8232 13.2626 17.5303 12.9697L16.0303 11.4697Z" fill="#141B34"/>
</svg>
