<svg width="24" height="24" viewBox="0 0 24 24" fill="none" xmlns="http://www.w3.org/2000/svg">
<path d="M3.31398 7.82201C3.44831 7.67624 3.6821 7.80621 3.64853 8.00157C3.55088 8.56976 3.5 9.15393 3.5 9.74999C3.5 15.4109 8.08908 20 13.75 20C14.3461 20 14.9302 19.9491 15.4984 19.8515C15.6938 19.8179 15.8238 20.0517 15.678 20.186C14.1191 21.6226 12.037 22.5 9.75 22.5C4.91751 22.5 1 18.5825 1 13.75C1 11.463 1.87741 9.3809 3.31398 7.82201Z" fill="#141B34"/>
<path fill-rule="evenodd" clip-rule="evenodd" d="M13.75 1C8.91751 1 5 4.91751 5 9.75C5 14.5825 8.91751 18.5 13.75 18.5C18.5825 18.5 22.5 14.5825 22.5 9.75C22.5 4.91751 18.5825 1 13.75 1ZM14.5 5.75C14.5 5.33579 14.1642 5 13.75 5C13.3358 5 13 5.33579 13 5.75V6.08359C12.5858 6.17809 12.2043 6.35048 11.8858 6.58934C11.3818 6.96734 11 7.54679 11 8.25C11 8.95321 11.3818 9.53266 11.8858 9.91066C12.3896 10.2885 13.0511 10.5 13.75 10.5C14.1557 10.5 14.4941 10.6243 14.7142 10.7893C14.9341 10.9542 15 11.1248 15 11.25C15 11.3752 14.9341 11.5458 14.7142 11.7107C14.4941 11.8757 14.1557 12 13.75 12C13.0816 12 12.6595 11.679 12.5422 11.4303C12.3657 11.0556 11.9188 10.895 11.5441 11.0716C11.1694 11.2481 11.0088 11.695 11.1854 12.0697C11.5153 12.7697 12.2113 13.2348 13 13.4155V13.75C13 14.1642 13.3358 14.5 13.75 14.5C14.1642 14.5 14.5 14.1642 14.5 13.75V13.4164C14.9142 13.3219 15.2957 13.1495 15.6142 12.9107C16.1182 12.5327 16.5 11.9532 16.5 11.25C16.5 10.5468 16.1182 9.96734 15.6142 9.58934C15.1104 9.21151 14.4489 9 13.75 9C13.3443 9 13.0059 8.87573 12.7858 8.71066C12.5659 8.54577 12.5 8.37522 12.5 8.25C12.5 8.12478 12.5659 7.95423 12.7858 7.78934C13.0059 7.62427 13.3443 7.5 13.75 7.5C14.4184 7.5 14.8405 7.82097 14.9578 8.06972C15.1343 8.44441 15.5812 8.60502 15.9559 8.42844C16.3306 8.25186 16.4912 7.80497 16.3146 7.43028C15.9847 6.73027 15.2887 6.26515 14.5 6.08451V5.75Z" fill="#141B34"/>
</svg>
