<svg width="24" height="24" viewBox="0 0 24 24" fill="none" xmlns="http://www.w3.org/2000/svg">
<path d="M3.31398 7.82219C3.44831 7.67642 3.6821 7.80639 3.64853 8.00175C3.55088 8.56994 3.5 9.15411 3.5 9.75017C3.5 15.4111 8.08908 20.0002 13.75 20.0002C14.3461 20.0002 14.9302 19.9493 15.4984 19.8516C15.6938 19.8181 15.8238 20.0519 15.678 20.1862C14.1191 21.6228 12.037 22.5002 9.75 22.5002C4.91751 22.5002 1 18.5827 1 13.7502C1 11.4632 1.87741 9.38108 3.31398 7.82219Z" fill="#141B34"/>
<path fill-rule="evenodd" clip-rule="evenodd" d="M13.75 1C8.91751 1 5 4.91751 5 9.75C5 14.5825 8.91751 18.5 13.75 18.5C18.5825 18.5 22.5 14.5825 22.5 9.75C22.5 4.91751 18.5825 1 13.75 1ZM14.3556 5C12.5023 5 11 6.50233 11 8.35555V9H10.75C10.3358 9 10 9.33579 10 9.75C10 10.1642 10.3358 10.5 10.75 10.5H11V11.1444C11 12.9977 12.5023 14.5 14.3556 14.5C15.0177 14.5 15.6337 14.3466 16.1707 14.011C16.707 13.6759 17.12 13.187 17.4208 12.5854C17.6061 12.2149 17.4559 11.7644 17.0854 11.5792C16.7149 11.3939 16.2644 11.5441 16.0792 11.9146C15.88 12.313 15.6398 12.5741 15.3759 12.739C15.1126 12.9034 14.7814 13 14.3556 13C13.3308 13 12.5 12.1692 12.5 11.1444V10.5H14.75C15.1642 10.5 15.5 10.1642 15.5 9.75C15.5 9.33579 15.1642 9 14.75 9H12.5V8.35555C12.5 7.33076 13.3308 6.5 14.3556 6.5C14.7814 6.5 15.1126 6.59656 15.3759 6.76105C15.6398 6.92595 15.88 7.187 16.0792 7.58541C16.2644 7.95589 16.7149 8.10606 17.0854 7.92082C17.4559 7.73558 17.6061 7.28507 17.4208 6.91459C17.12 6.313 16.707 5.82405 16.1707 5.48895C15.6337 5.15344 15.0177 5 14.3556 5Z" fill="#141B34"/>
</svg>
