<svg width="24" height="24" viewBox="0 0 24 24" fill="none" xmlns="http://www.w3.org/2000/svg">
<path d="M8.98838 3.58448L10.5285 8.30423C10.5285 8.30423 10.3885 8.31012 9.92638 8.35593C7.02298 8.6438 4.20347 9.47507 1.76321 10.2885C1.75589 10.2909 1.74861 10.2935 1.74137 10.2961L1.25 10.477V5.60237C1.25 4.9595 1.60427 4.34789 2.20669 4.053C3.21185 3.56095 4.83531 2.87627 7.01089 2.42369C7.88741 2.24135 8.72236 2.76927 8.98838 3.58448Z" fill="#141B34"/>
<path d="M12.0004 9.75H13.1276L15.076 14.3989C14.9242 14.3835 14.7726 14.3695 14.6214 14.3568C13.302 14.2459 12.0003 14.2344 10.7479 14.2992L10.7505 13.0015C10.7513 12.5873 10.4162 12.2508 10.0019 12.25C9.58773 12.2492 9.25129 12.5843 9.25048 12.9985L9.24772 14.4144C8.37905 14.5028 7.54266 14.6259 6.7504 14.7751V13.5C6.7504 13.0858 6.41462 12.75 6.0004 12.75C5.58619 12.75 5.2504 13.0858 5.2504 13.5V15.1C3.83728 15.448 2.61911 15.8725 1.68224 16.3108L1.25 16.5206V12.0753L2.2485 11.7079C4.66057 10.9042 7.34701 10.119 10.0744 9.84862C10.7167 9.78493 11.3597 9.75 12.0004 9.75Z" fill="#141B34"/>
<path d="M1.25 18.188V20C1.25 20.9665 2.0335 21.75 3 21.75H7.24976L7.24707 19.0007C7.24667 18.5865 7.58212 18.2504 7.99634 18.25C8.41055 18.2496 8.74667 18.5851 8.74707 18.9993L8.74976 21.75H11.2493V19C11.2493 18.5858 11.5851 18.25 11.9993 18.25C12.4136 18.25 12.7493 18.5858 12.7493 19V21.75H16.957C17.2067 21.75 17.44 21.6258 17.5793 21.4186C17.7187 21.2115 17.7458 20.9486 17.6518 20.7174L15.7268 15.9856C15.3157 15.9304 14.9051 15.8859 14.4958 15.8515C9.47954 15.43 4.75811 16.5293 2.3227 17.6673L1.25 18.188Z" fill="#141B34"/>
<path d="M17.233 16.2381L18.8559 20.2274C19.0564 20.7201 19.0555 21.2653 18.865 21.75H21.0004C21.9669 21.75 22.7504 20.9665 22.7504 20V18.1811L21.6815 17.669C20.246 17.008 18.7457 16.5434 17.233 16.2381Z" fill="#141B34"/>
<path d="M22.7504 16.5178V11.585C22.7504 10.9657 22.4163 10.3365 21.7815 10.0546C20.1752 9.34134 17.8417 8.8921 17.136 8.76235C16.917 8.72209 16.6915 8.7812 16.5204 8.92369C16.3493 9.06619 16.2504 9.27733 16.2504 9.49998V11.25H15.1658L16.4574 14.3316L16.5637 14.5929C18.4999 14.9036 20.4505 15.4502 22.3144 16.309L22.3246 16.3137L22.7504 16.5178Z" fill="#141B34"/>
</svg>
