<svg width="24" height="24" viewBox="0 0 24 24" fill="none" xmlns="http://www.w3.org/2000/svg">
<path fill-rule="evenodd" clip-rule="evenodd" d="M15.7071 1.29289C16.0976 1.68342 16.0976 2.31658 15.7071 2.70711L14.2071 4.20711C13.8166 4.59763 13.1834 4.59763 12.7929 4.20711C12.4024 3.81658 12.4024 3.18342 12.7929 2.79289L14.2929 1.29289C14.6834 0.902369 15.3166 0.902369 15.7071 1.29289ZM12.2071 4.79289C12.5976 5.18342 12.5976 5.81658 12.2071 6.20711L9.70711 8.70711C9.31658 9.09763 8.68342 9.09763 8.29289 8.70711C7.90237 8.31658 7.90237 7.68342 8.29289 7.29289L10.7929 4.79289C11.1834 4.40237 11.8166 4.40237 12.2071 4.79289Z" fill="#141B34"/>
<path fill-rule="evenodd" clip-rule="evenodd" d="M18.0555 10.0555C19.1294 8.98151 20.8706 8.98151 21.9445 10.0555C23.0185 11.1294 23.0185 12.8706 21.9445 13.9445C20.8706 15.0185 19.1294 15.0185 18.0555 13.9445C16.9815 12.8706 16.9815 11.1294 18.0555 10.0555Z" fill="#141B34"/>
<path fill-rule="evenodd" clip-rule="evenodd" d="M6.70468 10.3108C7.00596 10.1817 7.35619 10.2632 7.56951 10.5121L10.0977 13.4615L12.0316 11.9144C12.204 11.7764 12.4284 11.7215 12.645 11.7641C12.8617 11.8068 13.0485 11.9428 13.1557 12.1358L15.6557 16.6358C15.7653 16.833 15.7802 17.0691 15.6964 17.2785L14.6964 19.7785C14.6189 19.9724 14.4641 20.1251 14.2693 20.2L7.76932 22.7C7.532 22.7913 7.26459 22.7561 7.05895 22.6066L1.55896 18.6066C1.30695 18.4233 1.19452 18.1033 1.27651 17.8027L2.77651 12.3027C2.83671 12.0819 2.99438 11.9007 3.20468 11.8106L6.70468 10.3108Z" fill="#141B34"/>
<path fill-rule="evenodd" clip-rule="evenodd" d="M22.7071 1.29289C23.0976 1.68342 23.0976 2.31658 22.7071 2.70711L14.7071 10.7071C14.3166 11.0976 13.6834 11.0976 13.2929 10.7071C12.9024 10.3166 12.9024 9.68342 13.2929 9.29289L21.2929 1.29289C21.6834 0.902369 22.3166 0.902369 22.7071 1.29289Z" fill="#141B34"/>
</svg>
