<svg width="24" height="24" viewBox="0 0 24 24" fill="none" xmlns="http://www.w3.org/2000/svg">
<path fill-rule="evenodd" clip-rule="evenodd" d="M5 3C3.89543 3 3 3.89543 3 5V15C3 16.1046 3.89543 17 5 17H19C20.1046 17 21 16.1046 21 15V12C21 11.4477 21.4477 11 22 11C22.5523 11 23 11.4477 23 12V15C23 17.2091 21.2091 19 19 19H5C2.79086 19 1 17.2091 1 15V5C1 2.79086 2.79086 1 5 1H10.5C11.0523 1 11.5 1.44772 11.5 2C11.5 2.55228 11.0523 3 10.5 3H5Z" fill="#141B34"/>
<path fill-rule="evenodd" clip-rule="evenodd" d="M10 15C10 14.4477 10.4477 14 11 14H13C13.5523 14 14 14.4477 14 15C14 15.5523 13.5523 16 13 16H11C10.4477 16 10 15.5523 10 15Z" fill="#141B34"/>
<path fill-rule="evenodd" clip-rule="evenodd" d="M12 18C12.5523 18 13 18.4477 13 19V21H16C16.5523 21 17 21.4477 17 22C17 22.5523 16.5523 23 16 23H8C7.44772 23 7 22.5523 7 22C7 21.4477 7.44772 21 8 21H11V19C11 18.4477 11.4477 18 12 18Z" fill="#141B34"/>
<path fill-rule="evenodd" clip-rule="evenodd" d="M14.383 3.46381C14.7464 2.05994 15.9878 1 17.5 1C19.2081 1 20.4909 2.34919 20.6957 3.89912C21.8874 4.23013 22.75 5.35041 22.75 6.65C22.75 8.19807 21.5331 9.5 19.975 9.5H15.25C13.5677 9.5 12.25 8.0936 12.25 6.41667C12.25 5.04041 13.1351 3.84916 14.383 3.46381Z" fill="#141B34"/>
</svg>
