<svg width="24" height="24" viewBox="0 0 24 24" fill="none" xmlns="http://www.w3.org/2000/svg">
<path d="M13 11C13 12.1046 12.1046 13 11 13C9.89543 13 9 12.1046 9 11C9 9.89543 9.89543 9 11 9C12.1046 9 13 9.89543 13 11Z" fill="#141B34"/>
<path fill-rule="evenodd" clip-rule="evenodd" d="M14.25 15.5C14.25 13.1528 16.1528 11.25 18.5 11.25C20.8472 11.25 22.75 13.1528 22.75 15.5C22.75 16.7486 22.2115 17.8715 21.3542 18.649L22.223 21.8007C22.2966 22.0677 22.2171 22.3535 22.0162 22.5441C21.8152 22.7347 21.5256 22.7991 21.2628 22.7115L18.5 21.7906L15.7372 22.7115C15.4744 22.7991 15.1848 22.7347 14.9838 22.5441C14.7829 22.3535 14.7034 22.0677 14.777 21.8007L15.6458 18.649C14.7885 17.8715 14.25 16.7486 14.25 15.5ZM16.9759 19.4685L16.5967 20.8439L18.2628 20.2885C18.4168 20.2372 18.5832 20.2372 18.7372 20.2885L20.4033 20.8439L20.0241 19.4685C19.551 19.6504 19.0371 19.75 18.5 19.75C17.9629 19.75 17.449 19.6504 16.9759 19.4685Z" fill="#141B34"/>
<path d="M3 11C3 6.58172 6.58172 3 11 3C12.8298 3 14.5576 3.61162 15.9513 4.63499L14.7934 5.79289C14.4029 6.18342 14.4029 6.81658 14.7934 7.20711C15.1839 7.59763 15.8171 7.59763 16.2076 7.20711L17.4115 6.00323C18.189 6.93231 18.7542 8.02859 19.0248 9.22129C19.147 9.75988 19.6827 10.0974 20.2213 9.97521C20.7599 9.85299 21.0974 9.31731 20.9752 8.77871C19.9582 4.29663 15.7308 1 11 1C5.47715 1 1 5.47715 1 11C1 16.5228 5.47715 21 11 21C11.5667 21 12.1232 20.9528 12.6655 20.8618C13.2101 20.7704 13.5776 20.2548 13.4862 19.7101C13.3948 19.1654 12.8792 18.798 12.3345 18.8893C11.9012 18.962 11.4554 19 11 19C9.15129 19 7.44904 18.3729 6.09435 17.3199L7.20711 16.2071C7.59763 15.8166 7.59763 15.1834 7.20711 14.7929C6.81658 14.4024 6.18342 14.4024 5.79289 14.7929L4.68014 15.9056C3.62708 14.551 3 12.8487 3 11Z" fill="#141B34"/>
</svg>
