<svg width="24" height="24" viewBox="0 0 24 24" fill="none" xmlns="http://www.w3.org/2000/svg">
<path fill-rule="evenodd" clip-rule="evenodd" d="M4 1.25C2.48122 1.25 1.25 2.48122 1.25 4V20C1.25 21.5188 2.48122 22.75 4 22.75H16C17.5188 22.75 18.75 21.5188 18.75 20V15.7678L16.5621 17.9557C16.1084 18.4094 15.5305 18.7187 14.9014 18.8445L12.9952 19.2257C12.5853 19.3077 12.1617 19.1794 11.8661 18.8839C11.5706 18.5884 11.4423 18.1647 11.5243 17.7549L11.9055 15.8486C12.0314 15.2195 12.3406 14.6416 12.7943 14.1879L18.75 8.23225V4C18.75 2.48122 17.5188 1.25 16 1.25H4ZM7.25 15.75C7.53408 15.75 7.79378 15.9105 7.92082 16.1646L8.96353 18.25H10.5C10.9142 18.25 11.25 18.5858 11.25 19C11.25 19.4142 10.9142 19.75 10.5 19.75H8.5C8.21592 19.75 7.95622 19.5895 7.82918 19.3354L7.25 18.1771L6.67082 19.3354C6.54378 19.5895 6.28408 19.75 6 19.75H5C4.58579 19.75 4.25 19.4142 4.25 19C4.25 18.5858 4.58579 18.25 5 18.25H5.53647L6.57918 16.1646C6.70622 15.9105 6.96592 15.75 7.25 15.75ZM6 5.25C5.58579 5.25 5.25 5.58579 5.25 6C5.25 6.41421 5.58579 6.75 6 6.75H14C14.4142 6.75 14.75 6.41421 14.75 6C14.75 5.58579 14.4142 5.25 14 5.25H6ZM5.25 10C5.25 9.58579 5.58579 9.25 6 9.25H12C12.4142 9.25 12.75 9.58579 12.75 10C12.75 10.4142 12.4142 10.75 12 10.75H6C5.58579 10.75 5.25 10.4142 5.25 10ZM22.4571 8.87868L21.8713 8.29289C21.4808 7.90237 20.8476 7.90237 20.4571 8.29289L19.2805 9.46967L21.2804 11.4696L22.4571 10.2929C22.8476 9.90237 22.8476 9.2692 22.4571 8.87868ZM18.2197 10.5303L13.6782 15.0718C13.399 15.351 13.2087 15.7066 13.1312 16.0938L12.75 18L14.6562 17.6188C15.0434 17.5413 15.399 17.351 15.6782 17.0718L20.2197 12.5303L18.2197 10.5303Z" fill="#141B34"/>
</svg>
