<svg width="24" height="24" viewBox="0 0 24 24" fill="none" xmlns="http://www.w3.org/2000/svg">
<path fill-rule="evenodd" clip-rule="evenodd" d="M19.2612 4.73885C18.6094 4.08705 17.5526 4.08705 16.9008 4.73885C16.5103 5.12938 15.8771 5.12938 15.4866 4.73886C15.0961 4.34833 15.0961 3.71517 15.4866 3.32464C16.9194 1.89179 19.2425 1.89179 20.6754 3.32464C22.1082 4.7575 22.1082 7.08061 20.6754 8.51347L18.3163 10.8726C16.9483 12.2406 14.7699 12.3024 13.3277 11.0586C12.9095 10.6979 12.8628 10.0665 13.2235 9.64825C13.5842 9.23002 14.2157 9.18337 14.6339 9.54406C15.2888 10.1089 16.2802 10.0802 16.9021 9.45839L19.2612 7.09926C19.913 6.44745 19.913 5.39066 19.2612 4.73885ZM15.8662 7.95594C15.2112 7.39109 14.2198 7.41978 13.598 8.04161L11.2389 10.4007C10.5871 11.0525 10.5871 12.1093 11.2389 12.7611C11.8907 13.413 12.9475 13.413 13.5993 12.7611C13.9898 12.3706 14.6229 12.3706 15.0135 12.7611C15.404 13.1517 15.404 13.7848 15.0135 14.1754C13.5806 15.6082 11.2575 15.6082 9.82467 14.1754C8.39182 12.7425 8.39182 10.4194 9.82466 8.98653L12.1838 6.6274C13.5517 5.25944 15.7301 5.19757 17.1724 6.44138C17.5906 6.80207 17.6372 7.43352 17.2765 7.85175C16.9158 8.26998 16.2844 8.31663 15.8662 7.95594Z" fill="#141B34"/>
<path fill-rule="evenodd" clip-rule="evenodd" d="M5.17517 4.2C4.63669 4.2 4.20017 4.63652 4.20017 5.17499L4.20003 18.825C4.20003 19.3635 4.63655 19.8 5.17503 19.8H18.825C19.3635 19.8 19.8 19.3635 19.8 18.825V13.4625C19.8 12.924 20.2366 12.4875 20.775 12.4875C21.3135 12.4875 21.75 12.924 21.75 13.4625V18.825C21.75 20.4404 20.4405 21.75 18.825 21.75H5.17503C3.55959 21.75 2.25001 20.4404 2.25003 18.825L2.25016 5.17497C2.25018 3.55955 3.55974 2.25 5.17517 2.25H10.5375C11.076 2.25 11.5125 2.68652 11.5125 3.225C11.5125 3.76348 11.076 4.2 10.5375 4.2H5.17517Z" fill="#141B34"/>
</svg>
