<svg width="24" height="24" viewBox="0 0 24 24" fill="none" xmlns="http://www.w3.org/2000/svg">
<path fill-rule="evenodd" clip-rule="evenodd" d="M10.2762 5.90347C9.621 7.36732 9.0846 9.52486 8.65639 12.2032C8.65414 12.2172 8.65181 12.2319 8.64937 12.2471C8.51398 13.0952 8.08218 15.7998 7.16639 18.0883C6.7064 19.2377 6.07342 20.4173 5.18697 21.1752C4.72916 21.5667 4.17759 21.868 3.53193 21.9662C2.88076 22.0653 2.21749 21.945 1.5643 21.6288C1.0672 21.3882 0.859292 20.7902 1.09993 20.2931C1.34056 19.7959 1.93862 19.588 2.43573 19.8287C2.78254 19.9966 3.03838 20.0183 3.23104 19.989C3.42921 19.9588 3.64617 19.8613 3.88722 19.6552C4.39848 19.218 4.88448 18.4074 5.30955 17.3452C6.1413 15.2667 6.54525 12.7396 6.67856 11.9056L6.68147 11.8874C7.11778 9.15848 7.6867 6.79336 8.45076 5.08637C9.17577 3.46665 10.2829 2 12 2C13.7171 2 14.8243 3.46665 15.5493 5.08637C16.3133 6.79336 16.8823 9.15848 17.3186 11.8874L17.3215 11.9056C17.4548 12.7396 17.8587 15.2667 18.6905 17.3452C19.1156 18.4074 19.6016 19.218 20.1128 19.6552C20.3539 19.8613 20.5708 19.9588 20.769 19.989C20.9616 20.0183 21.2175 19.9966 21.5643 19.8287C22.0614 19.588 22.6595 19.7959 22.9001 20.2931C23.1407 20.7902 22.9328 21.3882 22.4357 21.6288C21.7825 21.945 21.1193 22.0653 20.4681 21.9662C19.8224 21.868 19.2709 21.5667 18.8131 21.1752C17.9266 20.4173 17.2936 19.2377 16.8336 18.0883C15.9179 15.7998 15.4861 13.0952 15.3507 12.2471C15.3482 12.2319 15.3459 12.2172 15.3436 12.2032C14.9154 9.52486 14.379 7.36732 13.7238 5.90347C13.0295 4.35236 12.4034 4 12 4C11.5966 4 10.9705 4.35236 10.2762 5.90347Z" fill="#141B34"/>
<path fill-rule="evenodd" clip-rule="evenodd" d="M1.5 12C1.5 11.4477 1.94772 11 2.5 11H4.5C5.05228 11 5.5 11.4477 5.5 12C5.5 12.5523 5.05228 13 4.5 13H2.5C1.94772 13 1.5 12.5523 1.5 12Z" fill="#141B34"/>
<path fill-rule="evenodd" clip-rule="evenodd" d="M18.5 12C18.5 11.4477 18.9477 11 19.5 11H21.5C22.0523 11 22.5 11.4477 22.5 12C22.5 12.5523 22.0523 13 21.5 13H19.5C18.9477 13 18.5 12.5523 18.5 12Z" fill="#141B34"/>
<path fill-rule="evenodd" clip-rule="evenodd" d="M10 12C10 11.4477 10.4477 11 11 11H13C13.5523 11 14 11.4477 14 12C14 12.5523 13.5523 13 13 13H11C10.4477 13 10 12.5523 10 12Z" fill="#141B34"/>
</svg>
