<svg width="24" height="24" viewBox="0 0 24 24" fill="none" xmlns="http://www.w3.org/2000/svg">
<path fill-rule="evenodd" clip-rule="evenodd" d="M2.2501 5.17497C2.25011 3.55955 3.55791 2.25 5.17115 2.25H7.11838C7.65613 2.25 8.09206 2.68652 8.09206 3.225C8.09206 3.76348 7.65613 4.2 7.11838 4.2H5.17115C4.63341 4.2 4.19747 4.63652 4.19747 5.17499L4.19734 18.825C4.19733 19.3635 4.63327 19.8 5.17103 19.8H17.8289C18.3667 19.8 18.8026 19.3635 18.8026 18.825V14.925C18.8026 14.3865 19.2385 13.95 19.7763 13.95C20.314 13.95 20.75 14.3865 20.75 14.925V18.825C20.75 20.4404 19.4422 21.75 17.8289 21.75H5.17103C3.55776 21.75 2.24995 20.4404 2.24997 18.825L2.2501 5.17497Z" fill="#141B34"/>
<path d="M14.2954 2.31064C14.1068 2.22979 13.8932 2.22979 13.7046 2.31064L6.70456 5.31064C6.4288 5.42882 6.25 5.69997 6.25 6C6.25 6.30002 6.4288 6.57117 6.70456 6.68935L13.7046 9.68936C13.8932 9.77021 14.1068 9.77021 14.2954 9.68936L19.75 7.35169V10.2692C19.75 10.6834 20.0858 11.0192 20.5 11.0192C20.9142 11.0192 21.25 10.6834 21.25 10.2692V6.70883L21.2954 6.68935C21.5712 6.57117 21.75 6.30002 21.75 6C21.75 5.69997 21.5712 5.42882 21.2954 5.31064L14.2954 2.31064Z" fill="#141B34"/>
<path d="M9.39453 9.20118L9.68951 11.561C9.76155 12.1374 10.1208 12.6655 10.6903 12.9101C11.3768 13.2049 12.788 13.7491 14.0001 13.7491C15.2122 13.7491 16.6234 13.2049 17.3099 12.9101C17.8794 12.6655 18.2387 12.1374 18.3107 11.561L18.6057 9.20117L14.7879 10.8373C14.2848 11.053 13.7154 11.053 13.2123 10.8373L9.39453 9.20118Z" fill="#141B34"/>
</svg>
