<svg width="24" height="24" viewBox="0 0 24 24" fill="none" xmlns="http://www.w3.org/2000/svg">
<path d="M15.6494 2.7945C14.59 1.73517 12.8725 1.73517 11.8132 2.7945L2.7945 11.8132C1.73517 12.8725 1.73517 14.59 2.7945 15.6494L3.99639 16.8513L16.8841 4.0292L15.6494 2.7945Z" fill="#141B34"/>
<path fill-rule="evenodd" clip-rule="evenodd" d="M17.9447 5.08987L5.05705 17.9119L8.85062 21.7055C9.90995 22.7648 11.6275 22.7648 12.6868 21.7055L21.7055 12.6868C22.7648 11.6275 22.7648 9.90995 21.7055 8.85062L17.9447 5.08987ZM18.2797 11.3347C18.5726 11.0418 18.5726 10.5669 18.2797 10.274C17.9868 9.98111 17.512 9.98111 17.2191 10.274L15.2194 12.2737C14.9265 12.5666 14.9265 13.0415 15.2194 13.3344C15.5123 13.6272 15.9872 13.6272 16.2801 13.3343L18.2797 11.3347ZM14.334 15.2804C14.6269 14.9875 14.6269 14.5126 14.334 14.2197C14.0411 13.9268 13.5663 13.9268 13.2734 14.2197L12.1762 15.3169C11.8833 15.6098 11.8833 16.0847 12.1762 16.3775C12.4691 16.6704 12.944 16.6704 13.2369 16.3775L14.334 15.2804Z" fill="#141B34"/>
<path fill-rule="evenodd" clip-rule="evenodd" d="M2.75 21.75C2.75 21.1977 3.19772 20.75 3.75 20.75H19.75C20.3023 20.75 20.75 21.1977 20.75 21.75C20.75 22.3023 20.3023 22.75 19.75 22.75H3.75C3.19772 22.75 2.75 22.3023 2.75 21.75Z" fill="#141B34"/>
</svg>
