<svg width="24" height="24" viewBox="0 0 24 24" fill="none" xmlns="http://www.w3.org/2000/svg">
<path fill-rule="evenodd" clip-rule="evenodd" d="M5 2.25C3.48122 2.25 2.25 3.48122 2.25 5L2.25 8C2.25 9.51878 3.48122 10.75 5 10.75L19 10.75C20.5188 10.75 21.75 9.51878 21.75 8V5C21.75 3.48122 20.5188 2.25 19 2.25L5 2.25ZM3.75 5.25C3.75 4.42157 4.42157 3.75 5.25 3.75L7.75 3.75C8.57843 3.75 9.25 4.42157 9.25 5.25L9.25 7.75C9.25 8.57843 8.57843 9.25 7.75 9.25L5.25 9.25C4.42157 9.25 3.75 8.57843 3.75 7.75L3.75 5.25Z" fill="#141B34"/>
<path fill-rule="evenodd" clip-rule="evenodd" d="M19 13.25C20.5188 13.25 21.75 14.4812 21.75 16V19C21.75 20.5188 20.5188 21.75 19 21.75L5 21.75C3.48122 21.75 2.25 20.5188 2.25 19L2.25 16C2.25 14.4812 3.48122 13.25 5 13.25L19 13.25ZM20.25 16.25C20.25 15.4216 19.5784 14.75 18.75 14.75L16.25 14.75C15.4216 14.75 14.75 15.4216 14.75 16.25L14.75 18.75C14.75 19.5784 15.4216 20.25 16.25 20.25H18.75C19.5784 20.25 20.25 19.5784 20.25 18.75V16.25Z" fill="#141B34"/>
</svg>
