<svg width="24" height="24" viewBox="0 0 24 24" fill="none" xmlns="http://www.w3.org/2000/svg">
<path fill-rule="evenodd" clip-rule="evenodd" d="M17.5 22.5C18.0523 22.5 18.5 22.0523 18.5 21.5V17.5H20C20.4045 17.5 20.7691 17.2564 20.9239 16.8827C21.0787 16.509 20.9931 16.0789 20.7071 15.7929L18.2071 13.2929C17.8166 12.9024 17.1834 12.9024 16.7929 13.2929L14.2929 15.7929C14.0069 16.0789 13.9213 16.509 14.0761 16.8827C14.2309 17.2564 14.5955 17.5 15 17.5H16.5V21.5C16.5 22.0523 16.9477 22.5 17.5 22.5Z" fill="#141B34"/>
<path fill-rule="evenodd" clip-rule="evenodd" d="M15.3301 22.7423C14.2972 22.9096 13.1711 22.9999 12 22.9999C9.70269 22.9999 7.57833 22.6525 5.99202 22.0576C5.20256 21.7615 4.49422 21.3849 3.96527 20.9159C3.43749 20.448 3 19.8028 3 18.9999V13.572C3.81375 14.1183 4.7042 14.6028 5.7284 14.9919C7.42256 15.6356 9.43204 15.9995 12.0005 15.9995L12.0119 15.9994C12.1946 15.9973 12.375 15.9934 12.5531 15.9878C12.4521 16.4699 12.4935 16.9816 12.6903 17.4567C13.0773 18.3909 13.9889 19 15 19L15 21.5C15 21.9522 15.1201 22.3763 15.3301 22.7423ZM6.28195 17.784C6.40119 17.3874 6.81943 17.1625 7.21611 17.2817L7.30513 17.3085C7.89 17.4846 8.48162 17.6626 9.11276 17.7584C9.52228 17.8206 9.80387 18.203 9.7417 18.6125C9.67954 19.022 9.29716 19.3036 8.88764 19.2415C8.14745 19.1291 7.46211 18.9225 6.89337 18.7511L6.78428 18.7182C6.38761 18.599 6.1627 18.1807 6.28195 17.784Z" fill="#141B34"/>
<path fill-rule="evenodd" clip-rule="evenodd" d="M14.084 13.8805C13.4351 13.9505 12.7402 13.9908 11.9947 13.9995C9.62244 13.999 7.86278 13.6634 6.43875 13.1223C5.11695 12.6201 4.04069 11.9245 3 11.0851V5C3 4.19711 3.43749 3.55194 3.96527 3.08401C4.49422 2.61504 5.20256 2.2384 5.99202 1.94235C7.57833 1.34749 9.70269 1 12 1C14.2973 1 16.4217 1.34749 18.008 1.94235C18.7974 2.2384 19.5058 2.61504 20.0347 3.08401C20.5625 3.55194 21 4.19711 21 5V10.7666L20.9905 10.7766C20.4829 11.32 19.913 11.8051 19.2591 12.2236C18.2821 11.2559 16.7057 11.2588 15.7323 12.2322L14.084 13.8805ZM5 5C5 4.97447 5.01022 4.83042 5.29209 4.58052C5.57279 4.33166 6.03602 4.06185 6.69427 3.81501C8.0034 3.32409 9.87903 3 12 3C14.121 3 15.9966 3.32409 17.3057 3.81501C17.964 4.06185 18.4272 4.33166 18.7079 4.58052C18.9898 4.83042 19 4.97447 19 5C19 5.02553 18.9898 5.16958 18.7079 5.41948C18.4272 5.66834 17.964 5.93815 17.3057 6.18499C15.9966 6.67591 14.121 7 12 7C9.87903 7 8.0034 6.67591 6.69427 6.18499C6.03602 5.93815 5.57279 5.66834 5.29209 5.41948C5.01022 5.16958 5 5.02553 5 5ZM6.28195 10.784C6.40119 10.3874 6.81943 10.1625 7.21611 10.2817L7.30515 10.3085C7.89002 10.4846 8.48163 10.6626 9.11276 10.7584C9.52228 10.8206 9.80387 11.203 9.7417 11.6125C9.67954 12.022 9.29716 12.3036 8.88764 12.2415C8.14746 12.1291 7.4621 11.9225 6.89337 11.7511L6.78428 11.7182C6.38761 11.599 6.1627 11.1807 6.28195 10.784Z" fill="#141B34"/>
</svg>
