<svg width="24" height="24" viewBox="0 0 24 24" fill="none" xmlns="http://www.w3.org/2000/svg">
<path fill-rule="evenodd" clip-rule="evenodd" d="M5.16107 2.09663C6.70337 1.51827 8.76881 1.18042 11.0024 1.18042C13.236 1.18042 15.3014 1.51827 16.8437 2.09663C17.6113 2.38447 18.3 2.75067 18.8143 3.20662C19.3274 3.66157 19.7528 4.28885 19.7528 5.06947L19.7528 5.07935L19.7526 5.09218V12.4233C18.9218 12.0136 17.9866 11.7833 16.9965 11.7833C15.0663 11.7833 13.3444 12.6586 12.1989 14.0319C11.8081 14.0505 11.4088 14.0602 11.0024 14.0602C8.39592 14.0602 6.08075 13.6623 4.45347 13.0521C3.63613 12.7456 3.04417 12.4047 2.6745 12.077C2.37501 11.8115 2.27864 11.6099 2.25264 11.4807V5.12062C2.25224 5.10364 2.25203 5.08659 2.25203 5.06947C2.25203 4.28885 2.67739 3.66157 3.19053 3.20662C3.70481 2.75067 4.3935 2.38447 5.16107 2.09663ZM4.48054 4.66163C4.2065 4.9046 4.19656 5.04465 4.19656 5.06947C4.19656 5.0943 4.2065 5.23434 4.48054 5.47731C4.75346 5.71928 5.20384 5.9816 5.84383 6.22159C5.89704 6.24155 5.95121 6.26122 6.00632 6.28059C6.00373 6.30996 6.0024 6.33968 6.0024 6.36972V8.36972C6.0024 8.92201 6.45011 9.36972 7.0024 9.36972C7.55468 9.36972 8.0024 8.92201 8.0024 8.36972V6.77649C8.90697 6.9275 9.92195 7.014 11.0024 7.014C13.0645 7.014 14.8881 6.6989 16.161 6.22159C16.801 5.9816 17.2513 5.71928 17.5243 5.47731C17.7983 5.23434 17.8082 5.0943 17.8082 5.06947C17.8082 5.04465 17.7983 4.9046 17.5243 4.66163C17.2513 4.41967 16.801 4.15735 16.161 3.91735C14.8881 3.44004 13.0645 3.12495 11.0024 3.12495C8.94026 3.12495 7.11665 3.44004 5.84383 3.91735C5.20384 4.15735 4.75346 4.41967 4.48054 4.66163Z" fill="#141B34"/>
<path d="M11.0666 16.0601C11.0452 16.0602 11.0238 16.0602 11.0024 16.0602C9.96431 16.0602 8.95669 16.0016 8.0024 15.891V17.0695C8.0024 17.6217 7.55468 18.0695 7.0024 18.0695C6.45011 18.0695 6.0024 17.6217 6.0024 17.0695V15.5674C5.18238 15.3937 4.42547 15.1776 3.75122 14.9247C3.20848 14.7212 2.70223 14.4876 2.25264 14.2223V19.0695C2.25264 19.7752 2.63673 20.3577 3.13377 20.7984C3.63168 21.2399 4.30939 21.6031 5.08245 21.893C6.6341 22.4749 8.72738 22.8195 11.0026 22.8195C11.6356 22.8195 12.2545 22.7928 12.8515 22.7418C11.5582 21.5924 10.7446 19.9145 10.7446 18.0501C10.7446 17.355 10.8577 16.6857 11.0666 16.0601Z" fill="#141B34"/>
<path fill-rule="evenodd" clip-rule="evenodd" d="M12.2442 18.0498C12.2442 15.4198 14.3691 13.283 16.9961 13.283C19.6231 13.283 21.748 15.4198 21.748 18.0498C21.748 20.6798 19.6231 22.8166 16.9961 22.8166C14.3691 22.8166 12.2442 20.6798 12.2442 18.0498ZM17.002 15.8191C17.4162 15.8191 17.752 16.1549 17.752 16.5691V17.3191H18.502C18.9162 17.3191 19.252 17.6549 19.252 18.0691C19.252 18.4833 18.9162 18.8191 18.502 18.8191H17.752V19.5691C17.752 19.9833 17.4162 20.3191 17.002 20.3191C16.5878 20.3191 16.252 19.9833 16.252 19.5691V18.8191H15.502C15.0878 18.8191 14.752 18.4833 14.752 18.0691C14.752 17.6549 15.0878 17.3191 15.502 17.3191H16.252V16.5691C16.252 16.1549 16.5878 15.8191 17.002 15.8191Z" fill="#141B34"/>
</svg>
