<svg width="24" height="24" viewBox="0 0 24 24" fill="none" xmlns="http://www.w3.org/2000/svg">
<path fill-rule="evenodd" clip-rule="evenodd" d="M1.25 3.875C1.25 2.9085 2.0335 2.125 3 2.125H21C21.9665 2.125 22.75 2.9085 22.75 3.875V6.875C22.75 7.46969 22.4534 7.99509 22 8.31133V18.875C22 20.5319 20.6569 21.875 19 21.875H5C3.34315 21.875 2 20.5319 2 18.875V8.31133C1.54663 7.99509 1.25 7.46969 1.25 6.875V3.875ZM4 8.875V18.875C4 19.4273 4.44772 19.875 5 19.875H19C19.5523 19.875 20 19.4273 20 18.875V8.875H4ZM10 10.875C9.44771 10.875 9 11.3227 9 11.875C9 12.4273 9.44771 12.875 10 12.875H14C14.5523 12.875 15 12.4273 15 11.875C15 11.3227 14.5523 10.875 14 10.875H10Z" fill="#141B34"/>
</svg>
