<svg width="24" height="24" viewBox="0 0 24 24" fill="none" xmlns="http://www.w3.org/2000/svg">
<path fill-rule="evenodd" clip-rule="evenodd" d="M1.25 6.5C1.25 3.6005 3.6005 1.25 6.5 1.25C9.3995 1.25 11.75 3.6005 11.75 6.5C11.75 9.3995 9.3995 11.75 6.5 11.75C3.6005 11.75 1.25 9.3995 1.25 6.5ZM6.5 4.25C6.91421 4.25 7.25 4.58579 7.25 5V6.53647L7.83541 6.82918C8.20589 7.01442 8.35606 7.46493 8.17082 7.83541C7.98558 8.20589 7.53507 8.35606 7.16459 8.17082L6.16459 7.67082C5.9105 7.54378 5.75 7.28408 5.75 7V5C5.75 4.58579 6.08579 4.25 6.5 4.25Z" fill="#141B34"/>
<path fill-rule="evenodd" clip-rule="evenodd" d="M1.25013 10.3334L1.25 19.3472C1.25 19.6051 1.35296 19.8524 1.53623 20.0347C1.7195 20.217 1.96807 20.3194 2.22726 20.3194H3.83499C4.25542 21.725 5.56405 22.75 7.11358 22.75C8.66298 22.75 9.97199 21.7251 10.3925 20.3194H13.6076C14.0281 21.725 15.3367 22.75 16.8862 22.75C18.4357 22.75 19.7445 21.725 20.165 20.3194H21.7727C22.0319 20.3194 22.2805 20.217 22.4638 20.0347C22.647 19.8523 22.75 19.605 22.75 19.3472L22.7498 13.6164C22.7498 13.0407 22.5785 12.4777 22.2574 11.9987L20.2341 8.97935C19.6904 8.16793 18.775 7.68056 17.7947 7.68056H15.9092V6.22222C15.9092 5.68528 15.4716 5.25 14.9319 5.25H12.8799C12.9587 5.65451 13 6.07244 13 6.5C13 10.0899 10.0899 13 6.5 13C4.34367 13 2.43258 11.95 1.25013 10.3334ZM15.9092 16.0853V9.625H17.7948C18.1215 9.625 18.4267 9.78746 18.6079 10.0579L20.6312 13.0772C20.7382 13.2369 20.7954 13.4246 20.7954 13.6165L20.7955 18.375H20.1651C19.7446 16.9694 18.4358 15.9444 16.8863 15.9444C16.5468 15.9444 16.2188 15.9937 15.9092 16.0853ZM15.7045 18.4844C15.7108 18.4763 15.717 18.4682 15.723 18.4599C15.9909 18.1127 16.4123 17.8889 16.8863 17.8889C17.6959 17.8889 18.3522 18.5418 18.3522 19.3472C18.3522 20.1526 17.6959 20.8056 16.8863 20.8056C16.0768 20.8056 15.4206 20.1527 15.4206 19.3472C15.4206 19.0244 15.526 18.726 15.7045 18.4844ZM7.11365 17.8889C6.30416 17.8889 5.64795 18.5417 5.64795 19.3472C5.64795 20.1527 6.30416 20.8056 7.11365 20.8056C7.92334 20.8056 8.57974 20.1525 8.57974 19.3472C8.57974 18.5419 7.92334 17.8889 7.11365 17.8889Z" fill="#141B34"/>
</svg>
