<svg width="24" height="24" viewBox="0 0 24 24" fill="none" xmlns="http://www.w3.org/2000/svg">
<path d="M11.1611 3.01749C11.1069 3.07126 11.0532 3.12336 11 3.17384C10.9468 3.12336 10.8931 3.07126 10.8389 3.01749C8.23059 0.432906 4.57024 0.881303 2.80854 3.08146L2.78854 3.10643C2.52681 3.43319 2.12426 3.93574 1.8002 4.68108C1.47208 5.43577 1.23612 6.4091 1.25063 7.68848C1.27944 10.227 2.29375 13.9547 5.48922 19.6085C5.89514 20.3267 6.67976 20.7499 7.49601 20.7499C8.80785 20.7499 9.83861 19.7041 9.88183 18.466C9.91231 17.5928 10.012 16.7347 10.244 16.1171C10.4066 15.6841 10.582 15.4831 10.7636 15.4015C10.7497 14.9533 10.7499 14.5327 10.75 14.154L10.75 14C10.75 13.0315 11.3697 12.1717 12.2885 11.8655C13.8106 11.3581 15.0359 10.9386 16.2519 10.1279C17.0077 9.62404 17.9923 9.62404 18.7481 10.1279C19.2473 10.4607 19.7481 10.7276 20.2703 10.9617C20.6025 9.67414 20.7424 8.58372 20.7497 7.65377C20.7597 6.37378 20.5183 5.4023 20.1864 4.65058C19.8646 3.92154 19.4683 3.42692 19.2109 3.10569L19.1915 3.08146C17.4298 0.881273 13.7694 0.432892 11.1611 3.01749Z" fill="#141B34"/>
<path fill-rule="evenodd" clip-rule="evenodd" d="M17.916 11.376C17.6641 11.208 17.3359 11.208 17.084 11.376C15.6785 12.3129 14.27 12.7861 12.7628 13.2885C12.4566 13.3906 12.25 13.6772 12.25 14L12.25 14.0618C12.2499 15.5209 12.2497 17.2658 12.8641 18.8358C13.5128 20.4936 14.8153 21.8957 17.2628 22.7115C17.4168 22.7628 17.5832 22.7628 17.7372 22.7115C20.1847 21.8957 21.4872 20.4936 22.1359 18.8358C22.7503 17.2658 22.7501 15.5209 22.75 14.0618V14.0618L22.75 14C22.75 13.6772 22.5434 13.3906 22.2372 13.2885C20.73 12.7861 19.3215 12.3129 17.916 11.376ZM19.5303 16.5303C19.8232 16.2374 19.8232 15.7626 19.5303 15.4697C19.2374 15.1768 18.7626 15.1768 18.4697 15.4697L17 16.9393L16.5303 16.4697C16.2374 16.1768 15.7626 16.1768 15.4697 16.4697C15.1768 16.7626 15.1768 17.2374 15.4697 17.5303L16.4697 18.5303C16.7626 18.8232 17.2374 18.8232 17.5303 18.5303L19.5303 16.5303Z" fill="#141B34"/>
</svg>
