<svg width="24" height="24" viewBox="0 0 24 24" fill="none" xmlns="http://www.w3.org/2000/svg">
<path fill-rule="evenodd" clip-rule="evenodd" d="M8 6C8.55228 6 9 6.44772 9 7L9 21C9 21.5523 8.55229 22 8 22C7.44772 22 7 21.5523 7 21L7 7C7 6.44772 7.44772 6 8 6Z" fill="#141B34"/>
<path fill-rule="evenodd" clip-rule="evenodd" d="M12 17C12.5523 17 13 17.4477 13 18L13 21C13 21.5523 12.5523 22 12 22C11.4477 22 11 21.5523 11 21L11 18C11 17.4477 11.4477 17 12 17Z" fill="#141B34"/>
<path fill-rule="evenodd" clip-rule="evenodd" d="M2 21C2 20.4477 2.44772 20 3 20H15C15.5523 20 16 20.4477 16 21C16 21.5523 15.5523 22 15 22H3C2.44772 22 2 21.5523 2 21Z" fill="#141B34"/>
<path fill-rule="evenodd" clip-rule="evenodd" d="M4 12C4.55228 12 5 12.4477 5 13V14.9458L8.53 17.152C8.99834 17.4447 9.14071 18.0617 8.848 18.53C8.55529 18.9983 7.93834 19.1407 7.47 18.848L3.94 16.6417C3.35524 16.2763 3 15.6353 3 14.9458V13C3 12.4477 3.44772 12 4 12Z" fill="#141B34"/>
<path fill-rule="evenodd" clip-rule="evenodd" d="M12 8C12.5523 8 13 8.44772 13 9V12.5C13 13.1295 12.7036 13.7223 12.2 14.1L8.6 16.8C8.15817 17.1314 7.53137 17.0418 7.2 16.6C6.86863 16.1582 6.95817 15.5314 7.4 15.2L11 12.5V9C11 8.44772 11.4477 8 12 8Z" fill="#141B34"/>
<path fill-rule="evenodd" clip-rule="evenodd" d="M14.25 6C14.25 3.92893 15.9289 2.25 18 2.25C20.0711 2.25 21.75 3.92893 21.75 6C21.75 8.07107 20.0711 9.75 18 9.75C15.9289 9.75 14.25 8.07107 14.25 6Z" fill="#141B34"/>
</svg>
