<svg width="24" height="24" viewBox="0 0 24 24" fill="none" xmlns="http://www.w3.org/2000/svg">
<path fill-rule="evenodd" clip-rule="evenodd" d="M5 16C5.55228 16 6 16.4477 6 17V22C6 22.5523 5.55228 23 5 23C4.44772 23 4 22.5523 4 22V17C4 16.4477 4.44772 16 5 16ZM19 16C19.5523 16 20 16.4477 20 17V22C20 22.5523 19.5523 23 19 23C18.4477 23 18 22.5523 18 22V17C18 16.4477 18.4477 16 19 16Z" fill="#141B34"/>
<path fill-rule="evenodd" clip-rule="evenodd" d="M8 16C8.55228 16 9 16.4477 9 17V20C9 20.5523 8.55228 21 8 21C7.44772 21 7 20.5523 7 20V17C7 16.4477 7.44772 16 8 16ZM16 16C16.5523 16 17 16.4477 17 17V20C17 20.5523 16.5523 21 16 21C15.4477 21 15 20.5523 15 20V17C15 16.4477 15.4477 16 16 16Z" fill="#141B34"/>
<path fill-rule="evenodd" clip-rule="evenodd" d="M2 8C2 7.44772 2.44772 7 3 7H21C21.5523 7 22 7.44772 22 8V15C22 16.6569 20.6569 18 19 18H5C3.34315 18 2 16.6569 2 15V8Z" fill="#141B34"/>
<path d="M9 1C7.34315 1 6 2.34315 6 4V5.5H18V4C18 2.34315 16.6569 1 15 1H9Z" fill="#141B34"/>
<path fill-rule="evenodd" clip-rule="evenodd" d="M1 8C1 7.44772 1.44772 7 2 7H22C22.5523 7 23 7.44772 23 8C23 8.55228 22.5523 9 22 9H2C1.44772 9 1 8.55228 1 8Z" fill="#141B34"/>
</svg>
