<svg width="24" height="24" viewBox="0 0 24 24" fill="none" xmlns="http://www.w3.org/2000/svg">
<path fill-rule="evenodd" clip-rule="evenodd" d="M12 1.25C6.06294 1.25 1.25 6.06294 1.25 12C1.25 17.937 6.06293 22.75 12 22.75C17.937 22.75 22.75 17.937 22.75 12C22.75 6.06293 17.937 1.25 12 1.25ZM17.3532 6.64627C17.4872 6.7801 17.5341 6.97813 17.4743 7.15781L15.2957 13.708C15.0471 14.4555 14.4607 15.042 13.7134 15.2909L7.15702 17.4744C6.97741 17.5342 6.77942 17.4875 6.64554 17.3536C6.51165 17.2198 6.46484 17.0218 6.52461 16.8422L8.7022 10.2971C8.95066 9.5503 9.53628 8.96412 10.2828 8.71494L16.8415 6.52574C17.0212 6.46578 17.2192 6.51244 17.3532 6.64627ZM12.9985 11.9844C13.0071 12.5366 12.5664 12.9913 12.0142 12.9999L12.0078 13C11.4556 13.0086 11.0009 12.5679 10.9923 12.0157C10.9837 11.4635 11.4243 11.0089 11.9766 11.0002L11.983 11.0001C12.5352 10.9915 12.9898 11.4322 12.9985 11.9844Z" fill="#141B34"/>
</svg>
