<svg width="24" height="24" viewBox="0 0 24 24" fill="none" xmlns="http://www.w3.org/2000/svg">
<path fill-rule="evenodd" clip-rule="evenodd" d="M1.25 12C1.25 6.06294 6.06294 1.25 12 1.25C17.9371 1.25 22.75 6.06294 22.75 12C22.75 17.9371 17.9371 22.75 12 22.75C6.06294 22.75 1.25 17.9371 1.25 12ZM14.4161 17.4701C13.0777 15.8092 11.0827 15.212 9.412 16.31C9.06585 16.5375 8.60082 16.4413 8.37333 16.0952C8.14583 15.749 8.24202 15.284 8.58817 15.0565C11.1073 13.4009 13.9305 14.4768 15.5841 16.529C15.844 16.8515 15.7932 17.3237 15.4707 17.5836C15.1481 17.8435 14.676 17.7927 14.4161 17.4701ZM7 9.75C7.25934 9.75 7.63262 9.75134 8.02203 9.82541C8.15432 9.85058 8.28024 9.8827 8.39791 9.92248C8.31923 10.0769 8.25352 10.2687 8.25009 10.4883C8.2399 11.142 8.76609 11.75 9.5 11.75C10.1904 11.75 10.75 11.1904 10.75 10.5C10.75 10.1245 10.567 9.81821 10.4412 9.64151C10.3015 9.44519 10.136 9.27761 10.014 9.16277C9.49185 8.6715 8.83946 8.45401 8.30233 8.35183C7.76672 8.24995 7.27247 8.24998 7.00986 8.25L7 8.25C6.58579 8.25 6.25 8.58579 6.25 9C6.25 9.41421 6.58579 9.75 7 9.75ZM14 9.75C14.2593 9.75 14.6326 9.75134 15.022 9.82541C15.1543 9.85058 15.2802 9.8827 15.3979 9.92248C15.3192 10.0769 15.2535 10.2687 15.2501 10.4883C15.2399 11.142 15.7661 11.75 16.5 11.75C17.1904 11.75 17.75 11.1904 17.75 10.5C17.75 10.1245 17.567 9.81821 17.4412 9.64151C17.3015 9.44519 17.136 9.27761 17.014 9.16277C16.4918 8.6715 15.8395 8.45401 15.3023 8.35183C14.7667 8.24995 14.2725 8.24998 14.0099 8.25L14 8.25C13.5858 8.25 13.25 8.58579 13.25 9C13.25 9.41421 13.5858 9.75 14 9.75Z" fill="#141B34"/>
</svg>
