<svg width="24" height="24" viewBox="0 0 24 24" fill="none" xmlns="http://www.w3.org/2000/svg">
<path fill-rule="evenodd" clip-rule="evenodd" d="M2 22C2 21.4477 2.44772 21 3 21H21C21.5523 21 22 21.4477 22 22C22 22.5523 21.5523 23 21 23H3C2.44772 23 2 22.5523 2 22Z" fill="#141B34"/>
<path fill-rule="evenodd" clip-rule="evenodd" d="M7 1.25C4.92893 1.25 3.25 2.92893 3.25 5V22C3.25 22.4142 3.58579 22.75 4 22.75H20C20.4142 22.75 20.75 22.4142 20.75 22V5C20.75 2.92893 19.0711 1.25 17 1.25H7ZM12 7.25C10.535 7.25 9.32143 8.41776 9.32143 9.89V11.4775C8.65995 12.1408 8.25 13.0503 8.25 14.06C8.25 16.1121 9.94329 17.75 12 17.75C14.0567 17.75 15.75 16.1121 15.75 14.06C15.75 13.0503 15.3401 12.1408 14.6786 11.4775V9.89C14.6786 8.41776 13.465 7.25 12 7.25ZM12 10.37C11.5891 10.37 11.1927 10.4354 10.8214 10.5564V9.89C10.8214 9.27461 11.3347 8.75 12 8.75C12.6653 8.75 13.1786 9.27461 13.1786 9.89V10.5564C12.8073 10.4354 12.4109 10.37 12 10.37Z" fill="#141B34"/>
</svg>
