<svg width="24" height="24" viewBox="0 0 24 24" fill="none" xmlns="http://www.w3.org/2000/svg">
<path d="M14.3572 1.01139C14.1389 0.973028 13.9149 1.03317 13.7451 1.17567C13.5754 1.31817 13.4774 1.52845 13.4774 1.75007C13.4774 2.82344 12.7143 3.50994 11.7508 3.50994C10.701 3.50994 10.0086 2.68953 10.0086 1.78005C10.0086 1.55812 9.91031 1.34759 9.74018 1.20509C9.57004 1.06258 9.34553 1.00275 9.12704 1.04168C8.76243 1.10665 8.01938 1.22238 7.35765 1.32324C7.02892 1.37335 6.72352 1.4193 6.50027 1.45272L6.13642 1.50698C5.95989 1.53313 5.79847 1.62137 5.68116 1.75584L2.18483 5.76368C1.92534 6.06113 1.94083 6.50881 2.22025 6.78762L4.74462 9.30651C5.01194 9.57325 5.43588 9.59963 5.73421 9.3681L6.65559 8.65303L6.89228 10.734C6.90952 10.8856 7.03779 11.0001 7.19036 11.0001H16.3203C16.4732 11.0001 16.6017 10.885 16.6185 10.733L16.8508 8.63197L17.7747 9.32705C18.0702 9.54935 18.4836 9.52312 18.7487 9.26525L21.273 6.80894C21.559 6.53066 21.577 6.07718 21.314 5.77708L17.8175 1.78754C17.7049 1.65899 17.5517 1.57278 17.3833 1.54319L14.3572 1.01139Z" fill="#141B34"/>
<path d="M17.6785 12.6155C17.6227 12.5422 17.5355 12.5001 17.4433 12.5001H6.06977C5.97868 12.5001 5.89252 12.541 5.83664 12.6129C4.12302 14.8186 3.05838 18.1182 2.9596 21.7296C2.95407 21.932 3.0306 22.128 3.17179 22.2731C3.31299 22.4182 3.50686 22.5001 3.70932 22.5001H19.7658C19.9664 22.5001 20.1587 22.4197 20.2996 22.277C20.4405 22.1342 20.5184 21.9409 20.5158 21.7404C20.4751 18.5922 19.678 16.1007 18.7518 14.3236C18.4026 13.6536 18.0339 13.083 17.6785 12.6155Z" fill="#141B34"/>
</svg>
