<svg width="24" height="24" viewBox="0 0 24 24" fill="none" xmlns="http://www.w3.org/2000/svg">
<path fill-rule="evenodd" clip-rule="evenodd" d="M6.74927 2.54059C7.41318 2.1237 8.28196 2.15709 8.90975 2.62971C8.92982 2.64482 8.94911 2.66092 8.96756 2.67797L12 5.47903L15.0324 2.67797C15.0509 2.66092 15.0702 2.64482 15.0902 2.62971C15.718 2.15709 16.5868 2.12369 17.2507 2.54059L20.854 4.80322C21.8737 5.44353 21.9971 6.85547 21.0691 7.64481C21.0587 7.65367 21.048 7.66225 21.0371 7.67053L18.7381 9.41878L21.1049 11.2231C21.1155 11.2312 21.1259 11.2396 21.1361 11.2483C22.029 12.0077 21.9288 13.3617 20.9612 14.001L17.2765 16.4359C16.5941 16.8869 15.6803 16.8502 15.039 16.3388C15.0292 16.331 15.0196 16.323 15.0102 16.3147L12 13.6574L8.98973 16.3147C8.98035 16.323 8.97076 16.331 8.96097 16.3388C8.31968 16.8502 7.4059 16.8869 6.72347 16.4359L3.0388 14.001C2.07123 13.3617 1.97098 12.0077 2.86385 11.2483C2.87404 11.2396 2.88445 11.2312 2.89509 11.2231L5.26191 9.41878L2.96284 7.67053C2.95196 7.66225 2.9413 7.65367 2.93089 7.64481C2.00287 6.85547 2.12628 5.44353 3.14598 4.80322L6.74927 2.54059ZM8.06624 9.50236L12 11.6459L15.9337 9.50236L12 7.35454L8.06624 9.50236Z" fill="#141B34"/>
<path d="M5.25 17.2605L5.89665 17.6878C7.11702 18.4942 8.74259 18.4319 9.89628 17.512C9.91576 17.4965 9.93486 17.4805 9.95354 17.464L12.0001 15.6582L14.0467 17.464C14.0654 17.4805 14.0845 17.4965 14.104 17.512C15.2577 18.4319 16.8833 18.4942 18.1036 17.6878L18.75 17.2607L18.75 18.5005C18.75 19.1634 18.3755 19.7693 17.7827 20.0657L12.7832 22.5657C12.2905 22.8121 11.7106 22.8121 11.2179 22.5658L6.21744 20.0658C5.62452 19.7693 5.24999 19.1633 5.25 18.5005V17.2605Z" fill="#141B34"/>
</svg>
