<svg width="24" height="24" viewBox="0 0 24 24" fill="none" xmlns="http://www.w3.org/2000/svg">
<path fill-rule="evenodd" clip-rule="evenodd" d="M13.0608 1.80108C13.1707 1.25984 13.6985 0.910133 14.2397 1.02C17.8859 1.76011 20.8856 4.26766 22.3101 7.60769C22.6024 8.29285 22.8284 9.01311 22.98 9.76026C23.0461 10.0857 22.9463 10.4227 22.7137 10.6597C22.4811 10.8967 22.146 11.0027 21.8194 10.9427L19.3194 10.4836C18.9335 10.4127 18.6248 10.1228 18.5298 9.74215C18.4348 9.36153 18.5711 8.96053 18.8784 8.71668L20.146 7.71083C18.8784 5.30876 16.5793 3.53568 13.8419 2.98003C13.3006 2.87016 12.9509 2.34233 13.0608 1.80108ZM10.6597 1.28635C10.8967 1.51897 11.0027 1.85405 10.9427 2.18066L10.4836 4.68066C10.4127 5.0665 10.1228 5.37527 9.74215 5.47025C9.36153 5.56524 8.96053 5.42891 8.71668 5.12161L7.71083 3.85405C5.30876 5.12169 3.53568 7.42077 2.98003 10.1581C2.87016 10.6994 2.34233 11.0491 1.80108 10.9392C1.25983 10.8293 0.910132 10.3015 1.02 9.76026C1.76011 6.11419 4.26766 3.11447 7.60769 1.68989C8.29285 1.39766 9.01311 1.17166 9.76026 1.02C10.0857 0.953939 10.4227 1.05374 10.6597 1.28635ZM22.1989 13.0608C22.7402 13.1707 23.0899 13.6985 22.98 14.2397C22.2437 17.8671 19.7581 20.8547 16.4439 22.288C15.7433 22.591 15.0057 22.8246 14.2397 22.98C13.9143 23.0461 13.5773 22.9463 13.3403 22.7137C13.1033 22.4811 12.9973 22.146 13.0573 21.8194L13.5165 19.3194C13.5867 18.9371 13.872 18.6302 14.248 18.5323C14.6241 18.4344 15.0229 18.5632 15.2706 18.8626L16.319 20.1302C18.706 18.8593 20.4667 16.5679 21.02 13.8419C21.1299 13.3006 21.6577 12.9509 22.1989 13.0608ZM1.28636 13.3403C1.51897 13.1033 1.85406 12.9973 2.18067 13.0573L4.68067 13.5165C5.06651 13.5873 5.37527 13.8773 5.47026 14.2579C5.56524 14.6385 5.42891 15.0395 5.12161 15.2833L3.85405 16.2892C5.12168 18.6913 7.42077 20.4643 10.1581 21.02C10.6994 21.1299 11.0491 21.6577 10.9392 22.1989C10.8293 22.7402 10.3015 23.0899 9.76026 22.98C6.11419 22.2399 3.11447 19.7324 1.68989 16.3923C1.39766 15.7072 1.17166 14.9869 1.02 14.2397C0.95394 13.9143 1.05374 13.5773 1.28636 13.3403Z" fill="#141B34"/>
<path d="M15.4994 6.75C13.969 6.75 11.8974 6.93333 10.2842 7.74519C9.46475 8.1576 8.72363 8.75226 8.25457 9.60466C7.78095 10.4654 7.62728 11.5117 7.85105 12.7424C7.85672 12.7736 7.86434 12.8043 7.87389 12.8345L8.28588 14.1366C8.65615 13.1977 9.20705 12.4385 9.74553 11.8604C10.2135 11.358 10.6802 10.9828 11.0309 10.7322C11.2068 10.6066 11.3551 10.5112 11.4619 10.4458C11.5116 10.4154 11.6012 10.3643 11.6386 10.3429C11.6414 10.3413 11.6439 10.3399 11.6461 10.3387C12.0114 10.1433 12.4658 10.2811 12.6612 10.6463C12.8562 11.011 12.7192 11.4646 12.3553 11.6604C12.3366 11.6711 12.2845 11.701 12.2447 11.7254C12.1649 11.7741 12.0467 11.85 11.9028 11.9528C11.614 12.1591 11.2279 12.4697 10.8432 12.8828C10.3481 13.4143 9.86845 14.0999 9.58862 14.9432L10.1649 15.1255C10.1951 15.1351 10.2258 15.1427 10.257 15.1484C11.4877 15.3721 12.534 15.2185 13.3947 14.7449C14.2471 14.2759 14.8418 13.5349 15.2542 12.7154C16.0661 11.1022 16.2494 9.0307 16.2494 7.5C16.2494 7.08579 15.9136 6.75 15.4994 6.75Z" fill="#141B34"/>
<path d="M8.28686 14.1367C8.01447 14.8274 7.83984 15.6154 7.83984 16.5001C7.83984 16.9143 8.17563 17.2501 8.58984 17.2501C9.00406 17.2501 9.33984 16.9143 9.33984 16.5001C9.33984 15.9318 9.43372 15.4131 9.5896 14.9433L8.79685 14.6925C8.56406 14.6188 8.38169 14.4364 8.30803 14.2036L8.28686 14.1367Z" fill="#141B34"/>
</svg>
