<svg width="24" height="24" viewBox="0 0 24 24" fill="none" xmlns="http://www.w3.org/2000/svg">
<path fill-rule="evenodd" clip-rule="evenodd" d="M5.25 7C5.25 4.37665 7.37665 2.25 10 2.25C12.6234 2.25 14.75 4.37665 14.75 7C14.75 9.62335 12.6234 11.75 10 11.75C7.37665 11.75 5.25 9.62335 5.25 7Z" fill="#141B34"/>
<path fill-rule="evenodd" clip-rule="evenodd" d="M1.25 21C1.25 16.7198 4.71979 13.25 9 13.25H11C15.2802 13.25 18.75 16.7198 18.75 21C18.75 21.4142 18.4142 21.75 18 21.75H2C1.58579 21.75 1.25 21.4142 1.25 21Z" fill="#141B34"/>
<path fill-rule="evenodd" clip-rule="evenodd" d="M19.4697 5.46967C19.7626 5.17678 20.2374 5.17678 20.5303 5.46967L22.5303 7.46967C22.8232 7.76256 22.8232 8.23744 22.5303 8.53033L18.5303 12.5303C18.3897 12.671 18.1989 12.75 18 12.75H16C15.5858 12.75 15.25 12.4142 15.25 12V10C15.25 9.80109 15.329 9.61032 15.4697 9.46967L19.4697 5.46967Z" fill="#141B34"/>
</svg>
