<svg width="25" height="24" viewBox="0 0 25 24" fill="none" xmlns="http://www.w3.org/2000/svg">
<path fill-rule="evenodd" clip-rule="evenodd" d="M10.5764 2.068C10.7612 2.33033 10.7587 2.6812 10.57 2.94082C9.62767 4.23789 9.07208 5.83298 9.07208 7.56004C9.07208 11.9054 12.5946 15.4279 16.94 15.4279C18.667 15.4279 20.2621 14.8723 21.5591 13.9299C21.8188 13.7413 22.1696 13.7387 22.432 13.9236C22.6943 14.1084 22.81 14.4397 22.7197 14.7476C21.449 19.0829 17.4429 22.25 12.6951 22.25C6.92644 22.25 2.25 17.5736 2.25 11.8049C2.25 7.0571 5.41711 3.05097 9.7523 1.78027C10.0603 1.69 10.3915 1.80567 10.5764 2.068Z" fill="#141B34"/>
<path fill-rule="evenodd" clip-rule="evenodd" d="M16 1.49994C16.2554 1.49962 16.5097 1.59663 16.7027 1.78674C16.9706 2.01383 17.2866 2.23945 17.656 2.5032L17.6625 2.50785C18.0412 2.77822 18.4717 3.08601 18.8667 3.42979C19.6576 4.11816 20.4558 5.07879 20.4961 6.47102C20.5045 6.76011 20.5073 7.1034 20.4187 7.52811C20.3318 7.94523 20.1671 8.39552 19.8928 8.94595C19.8534 9.02504 19.8044 9.09734 19.7475 9.16173V16H18.2475V9.49847L16 9.494L13.752 9.49847V15C13.752 15.4142 13.4162 15.75 13.002 15.75C12.5877 15.75 12.252 15.4142 12.252 15V9.16116C12.1953 9.09692 12.1465 9.02481 12.1072 8.94595C11.8329 8.39552 11.6682 7.94523 11.5812 7.52811C11.4927 7.1034 11.4955 6.76011 11.5039 6.47102C11.5442 5.07879 12.3424 4.11816 13.1333 3.42979C13.5283 3.08601 13.9588 2.77822 14.3375 2.50785L14.344 2.50319C14.7134 2.23945 15.0294 2.01383 15.2973 1.78674C15.4903 1.59663 15.7445 1.49961 16 1.49994Z" fill="#141B34"/>
</svg>
