<svg width="24" height="24" viewBox="0 0 24 24" fill="none" xmlns="http://www.w3.org/2000/svg">
<path fill-rule="evenodd" clip-rule="evenodd" d="M1.25 6C1.25 4.48122 2.48122 3.25 4 3.25H15.8915C16.8397 3.25 17.721 3.73845 18.2235 4.5425L21.9735 10.5425C22.5308 11.4342 22.5308 12.5658 21.9735 13.4575L18.2235 19.4575C17.721 20.2615 16.8397 20.75 15.8915 20.75H4C2.48122 20.75 1.25 19.5188 1.25 18V6ZM11 7C11.5523 7 12 7.44772 12 8V11H15C15.5523 11 16 11.4477 16 12C16 12.5523 15.5523 13 15 13H12V16C12 16.5523 11.5523 17 11 17C10.4477 17 10 16.5523 10 16V13H7C6.44772 13 6 12.5523 6 12C6 11.4477 6.44772 11 7 11H10V8C10 7.44772 10.4477 7 11 7Z" fill="#141B34"/>
</svg>
