<svg width="24" height="24" viewBox="0 0 24 24" fill="none" xmlns="http://www.w3.org/2000/svg">
<path d="M12.3228 1.31984C12.1825 1.11935 11.9531 0.999939 11.7084 0.999939C11.4637 0.999939 11.2343 1.11935 11.094 1.31984L4.58692 10.6156L11.7066 13.4423L18.8094 10.5864L12.3228 1.31984Z" fill="#141B34"/>
<path d="M19.4303 11.9535L11.9882 14.9458C11.8097 15.0176 11.6104 15.018 11.4316 14.947L4 11.9965C4.02233 12.0606 4.05365 12.1225 4.09395 12.18L11.094 22.18C11.2343 22.3805 11.4637 22.4999 11.7084 22.4999C11.9531 22.4999 12.1825 22.3805 12.3228 22.18L19.3228 12.18C19.3721 12.1097 19.4079 12.033 19.4303 11.9535Z" fill="#141B34"/>
</svg>
