<svg width="24" height="24" viewBox="0 0 24 24" fill="none" xmlns="http://www.w3.org/2000/svg">
<path fill-rule="evenodd" clip-rule="evenodd" d="M3.25 5C3.25 2.92893 4.92893 1.25 7 1.25H17C19.0711 1.25 20.75 2.92893 20.75 5V14.25L3.25 14.25V5ZM3.25 15.75V19C3.25 21.0711 4.92893 22.75 7 22.75H17C19.0711 22.75 20.75 21.0711 20.75 19V15.75L3.25 15.75ZM7.25 6C7.25 5.58579 7.58579 5.25 8 5.25L10 5.25C10.4142 5.25 10.75 5.58579 10.75 6C10.75 6.41421 10.4142 6.75 10 6.75L8 6.75C7.58579 6.75 7.25 6.41421 7.25 6ZM8 8.25C7.58579 8.25 7.25 8.58579 7.25 9C7.25 9.41421 7.58579 9.75 8 9.75H10C10.4142 9.75 10.75 9.41421 10.75 9C10.75 8.58579 10.4142 8.25 10 8.25L8 8.25ZM14.9922 18.5C14.9922 17.9477 15.4399 17.5 15.9922 17.5H16.0012C16.5535 17.5 17.0012 17.9477 17.0012 18.5C17.0012 19.0523 16.5535 19.5 16.0012 19.5H15.9922C15.4399 19.5 14.9922 19.0523 14.9922 18.5Z" fill="#141B34"/>
</svg>
