<svg width="24" height="24" viewBox="0 0 24 24" fill="none" xmlns="http://www.w3.org/2000/svg">
<path fill-rule="evenodd" clip-rule="evenodd" d="M16.7071 1.29289C17.0976 1.68342 17.0976 2.31658 16.7071 2.70711L11.7071 7.70711C11.3166 8.09763 10.6834 8.09763 10.2929 7.70711C9.90237 7.31658 9.90237 6.68342 10.2929 6.29289L15.2929 1.29289C15.6834 0.902369 16.3166 0.902369 16.7071 1.29289ZM22.7071 1.29289C23.0976 1.68342 23.0976 2.31658 22.7071 2.70711L14.7071 10.7071C14.3166 11.0976 13.6834 11.0976 13.2929 10.7071C12.9024 10.3166 12.9024 9.68342 13.2929 9.29289L21.2929 1.29289C21.6834 0.902369 22.3166 0.902369 22.7071 1.29289ZM20.7071 9.29289C21.0976 9.68342 21.0976 10.3166 20.7071 10.7071L17.7071 13.7071C17.3166 14.0976 16.6834 14.0976 16.2929 13.7071C15.9024 13.3166 15.9024 12.6834 16.2929 12.2929L19.2929 9.29289C19.6834 8.90237 20.3166 8.90237 20.7071 9.29289Z" fill="#141B34"/>
<path fill-rule="evenodd" clip-rule="evenodd" d="M8.00157 9.72461C8.25186 9.72461 8.48674 9.84548 8.63222 10.0491L10.9748 13.3288L14.2145 14.2544C14.4665 14.3264 14.665 14.5209 14.7422 14.7714C14.8194 15.0219 14.7647 15.2944 14.5969 15.4958L12.3123 18.2373L12.7706 21.9035C12.8042 22.1727 12.6947 22.4399 12.4817 22.6079C12.2688 22.776 11.9835 22.8205 11.7295 22.7253L8.00157 21.3273L4.27369 22.7253C4.01968 22.8205 3.73435 22.776 3.52141 22.6079C3.30847 22.4399 3.19891 22.1727 3.23256 21.9035L3.69083 18.2373L1.4062 15.4958C1.23841 15.2944 1.18376 15.0219 1.26093 14.7714C1.33811 14.5209 1.53665 14.3264 1.78866 14.2544L5.02831 13.3288L7.37093 10.0491C7.51641 9.84548 7.75129 9.72461 8.00157 9.72461Z" fill="#141B34"/>
</svg>
