<svg width="24" height="24" viewBox="0 0 24 24" fill="none" xmlns="http://www.w3.org/2000/svg">
<path fill-rule="evenodd" clip-rule="evenodd" d="M14.9571 16.0429C15.3476 16.4334 15.3476 17.0666 14.9571 17.4571L13.1642 19.25L14.9571 21.0429C15.3476 21.4334 15.3476 22.0666 14.9571 22.4571C14.5666 22.8476 13.9334 22.8476 13.5429 22.4571L11.0429 19.9571C10.6524 19.5666 10.6524 18.9334 11.0429 18.5429L13.5429 16.0429C13.9334 15.6524 14.5666 15.6524 14.9571 16.0429ZM16.5429 16.0429C16.9334 15.6524 17.5666 15.6524 17.9571 16.0429L20.4571 18.5429C20.8476 18.9334 20.8476 19.5666 20.4571 19.9571L17.9571 22.4571C17.5666 22.8476 16.9334 22.8476 16.5429 22.4571C16.1524 22.0666 16.1524 21.4334 16.5429 21.0429L18.3358 19.25L16.5429 17.4571C16.1524 17.0666 16.1524 16.4334 16.5429 16.0429Z" fill="#141B34"/>
<path fill-rule="evenodd" clip-rule="evenodd" d="M3.27427 19.823C3.27678 21.4403 4.58211 22.75 6.19144 22.75H12.068L10.159 20.841C9.28033 19.9623 9.28033 18.5377 10.159 17.659L12.659 15.159C13.508 14.3101 14.8666 14.2813 15.75 15.0729C16.6334 14.2813 17.992 14.3101 18.841 15.159L20.75 17.068V9.05498C20.75 8.79546 20.6473 8.5466 20.4645 8.36329L13.6564 1.53551C13.4741 1.35268 13.2271 1.25 12.9695 1.25H6.16717C4.55429 1.25 3.24749 2.56532 3.25 4.18619L3.27427 19.823ZM12.5673 3.20594L18.8043 9.46094H14.0673C13.2389 9.46094 12.5673 8.78936 12.5673 7.96094V3.20594Z" fill="#141B34"/>
</svg>
