<svg width="24" height="24" viewBox="0 0 24 24" fill="none" xmlns="http://www.w3.org/2000/svg">
<path fill-rule="evenodd" clip-rule="evenodd" d="M5.75 4C5.75 2.48122 6.98122 1.25 8.5 1.25H15.5C15.6989 1.25 15.8897 1.32902 16.0303 1.46967L21.0303 6.46967C21.171 6.61032 21.25 6.80109 21.25 7V17C21.25 18.5188 20.0188 19.75 18.5 19.75H8.5C6.98122 19.75 5.75 18.5188 5.75 17V4ZM19.7506 7.31066L15.1899 2.75L15.1893 5.81066C15.1893 6.63909 15.8609 7.31066 16.6893 7.31066H19.7506ZM10 10.25C9.58579 10.25 9.25 10.5858 9.25 11C9.25 11.4142 9.58579 11.75 10 11.75H14C14.4142 11.75 14.75 11.4142 14.75 11C14.75 10.5858 14.4142 10.25 14 10.25H10ZM10 14.25C9.58579 14.25 9.25 14.5858 9.25 15C9.25 15.4142 9.58579 15.75 10 15.75H17C17.4142 15.75 17.75 15.4142 17.75 15C17.75 14.5858 17.4142 14.25 17 14.25H10Z" fill="#141B34"/>
<path d="M4.5 4.43738C3.47566 4.83741 2.75 5.83392 2.75 6.99991V19.9999C2.75 21.5187 3.98122 22.7499 5.5 22.7499H15.5004C16.6664 22.7499 17.6629 22.0243 18.0629 20.9999H8.5C6.29086 20.9999 4.5 19.209 4.5 16.9999V4.43738Z" fill="#141B34"/>
</svg>
