<svg width="24" height="24" viewBox="0 0 24 24" fill="none" xmlns="http://www.w3.org/2000/svg">
<path fill-rule="evenodd" clip-rule="evenodd" d="M5.16993 3.16993C5.72992 2.61 6.63768 2.61004 7.19755 3.16993C7.49044 3.46283 7.96531 3.46284 8.25821 3.16995C8.55111 2.87706 8.55111 2.40219 8.25822 2.10929C7.11253 0.963557 5.25502 0.963593 4.10928 2.10926C2.9636 3.25497 2.96358 5.11254 4.10925 6.25824L6.03948 8.18843C6.03949 8.18844 6.03947 8.18841 6.03948 8.18843C7.13322 9.28224 8.87512 9.33175 10.0283 8.33717C10.3419 8.06664 10.3769 7.59306 10.1064 7.27939C9.83585 6.96573 9.36226 6.93076 9.0486 7.20129C8.48588 7.68663 7.63431 7.66199 7.10019 7.12782L5.16993 5.1976C5.16993 5.1976 5.16992 5.19759 5.16993 5.1976C4.61004 4.63768 4.61005 3.72985 5.16993 3.16993C5.16992 3.16994 5.16994 3.16992 5.16993 3.16993ZM7.95139 5.79867C8.51412 5.31336 9.36571 5.33801 9.89982 5.87216L11.8301 7.80237C12.3899 8.36229 12.39 9.27006 11.8301 9.83005C11.2701 10.39 10.3623 10.39 9.80245 9.83008C9.50956 9.53718 9.03468 9.53718 8.74179 9.83008C8.4489 10.123 8.4489 10.5978 8.74179 10.8907C9.88748 12.0364 11.745 12.0364 12.8907 10.8908C14.0363 9.74501 14.0364 7.88748 12.8908 6.74175L10.9605 4.81155C10.9605 4.81156 10.9605 4.81154 10.9605 4.81155C9.86678 3.71774 8.1249 3.66826 6.97175 4.66275C6.65808 4.93327 6.62309 5.40686 6.89361 5.72053C7.16413 6.03421 7.63771 6.06919 7.95139 5.79867Z" fill="#141B34"/>
<path fill-rule="evenodd" clip-rule="evenodd" d="M3.26961 7.18629L7.85798 11.7746C9.49186 13.4085 12.1408 13.4084 13.7746 11.7747C15.4083 10.1408 15.4086 7.49182 13.7748 5.8579L9.16825 1.25195H17.8328C19.4439 1.25195 20.75 2.56449 20.75 4.18357V14.947C20.75 15.2065 20.6473 15.4553 20.4645 15.6387L13.6564 22.4664C13.4741 22.6493 13.2271 22.752 12.9695 22.752H6.16717C4.55429 22.752 3.24749 21.4366 3.25 19.8158L3.26961 7.18629ZM18.8043 14.541L12.5673 20.796V16.041C12.5673 15.2126 13.2389 14.541 14.0673 14.541H18.8043Z" fill="#141B34"/>
</svg>
