<svg width="24" height="24" viewBox="0 0 24 24" fill="none" xmlns="http://www.w3.org/2000/svg">
<path fill-rule="evenodd" clip-rule="evenodd" d="M11.092 2.03867C10.845 1.7211 10.3914 1.65498 10.0641 1.88883C8.22624 3.20156 6.53349 5.05251 5.29695 7.08275C4.06404 9.10704 3.25 11.3675 3.25 13.5008C3.25 18.3333 7.16751 22.2508 12 22.2508C16.8325 22.2508 20.75 18.3333 20.75 13.5008C20.75 10.3351 19.0575 6.20538 16.5166 3.79106C16.3615 3.64364 16.1507 3.56953 15.9374 3.58738C15.7242 3.60523 15.5287 3.71335 15.4002 3.88452L13.9894 5.76391L11.092 2.03867ZM11.1001 9.04916C10.9696 8.8752 10.7701 8.7664 10.5532 8.75098C10.3363 8.73555 10.1234 8.81501 9.96967 8.96876C9.46387 9.47456 8.79221 10.1731 8.2474 11.0058C7.70325 11.8374 7.25 12.8561 7.25 14.0001C7.25 16.8141 9.29604 19.2501 12 19.2501C14.704 19.2501 16.75 16.8141 16.75 14.0001C16.75 13.0942 16.5422 12.2373 16.1726 11.4881C16.0707 11.2815 15.8795 11.1332 15.6541 11.0859C15.4286 11.0385 15.1939 11.0974 15.0176 11.2456L13.6245 12.416L11.1001 9.04916Z" fill="#141B34"/>
</svg>
