<svg width="24" height="24" viewBox="0 0 24 24" fill="none" xmlns="http://www.w3.org/2000/svg">
<path fill-rule="evenodd" clip-rule="evenodd" d="M3 3C3.55228 3 4 3.44772 4 4V20C4 20.5523 3.55228 21 3 21C2.44772 21 2 20.5523 2 20V4C2 3.44772 2.44772 3 3 3Z" fill="#141B34"/>
<path fill-rule="evenodd" clip-rule="evenodd" d="M21 3C21.5523 3 22 3.44772 22 4V20C22 20.5523 21.5523 21 21 21C20.4477 21 20 20.5523 20 20V4C20 3.44772 20.4477 3 21 3Z" fill="#141B34"/>
<path fill-rule="evenodd" clip-rule="evenodd" d="M9.70711 8.29289C10.0976 8.68342 10.0976 9.31658 9.70711 9.70711L8.41421 11H15.5858L14.2929 9.70711C13.9024 9.31658 13.9024 8.68342 14.2929 8.29289C14.6834 7.90237 15.3166 7.90237 15.7071 8.29289L18.7071 11.2929C19.0976 11.6834 19.0976 12.3166 18.7071 12.7071L15.7071 15.7071C15.3166 16.0976 14.6834 16.0976 14.2929 15.7071C13.9024 15.3166 13.9024 14.6834 14.2929 14.2929L15.5858 13H8.41421L9.70711 14.2929C10.0976 14.6834 10.0976 15.3166 9.70711 15.7071C9.31658 16.0976 8.68342 16.0976 8.29289 15.7071L5.29289 12.7071C4.90237 12.3166 4.90237 11.6834 5.29289 11.2929L8.29289 8.29289C8.68342 7.90237 9.31658 7.90237 9.70711 8.29289Z" fill="#141B34"/>
</svg>
