<svg width="24" height="24" viewBox="0 0 24 24" fill="none" xmlns="http://www.w3.org/2000/svg">
<path fill-rule="evenodd" clip-rule="evenodd" d="M14.25 3.5C14.25 2.94772 14.6977 2.5 15.25 2.5C17.5406 2.5 19.3413 3.15949 20.5578 4.46955C21.7618 5.76619 22.25 7.54671 22.25 9.5C22.25 9.84658 22.0705 10.1684 21.7757 10.3507C21.4809 10.5329 21.1128 10.5494 20.8028 10.3944L18.8028 9.39443C18.3088 9.14744 18.1086 8.54676 18.3556 8.05279C18.6026 7.55881 19.2032 7.35858 19.6972 7.60557L20.0727 7.7933C19.885 6.97913 19.5521 6.32571 19.0922 5.83045C18.3587 5.04051 17.1594 4.5 15.25 4.5C14.6977 4.5 14.25 4.05228 14.25 3.5Z" fill="#141B34"/>
<path fill-rule="evenodd" clip-rule="evenodd" d="M2.22427 13.6494C2.51909 13.4671 2.88723 13.4506 3.19721 13.6056L5.19721 14.6056C5.69119 14.8526 5.89142 15.4532 5.64443 15.9472C5.39744 16.4412 4.79676 16.6414 4.30279 16.3944L3.92733 16.2067C4.11502 17.0209 4.44791 17.6743 4.90779 18.1695C5.64131 18.9595 6.8406 19.5 8.75 19.5C9.30228 19.5 9.75 19.9477 9.75 20.5C9.75 21.0523 9.30228 21.5 8.75 21.5C6.4594 21.5 4.65869 20.8405 3.44221 19.5305C2.23818 18.2338 1.75 16.4533 1.75 14.5C1.75 14.1534 1.92945 13.8316 2.22427 13.6494Z" fill="#141B34"/>
<path d="M5.87826 1.74609C6.54382 1.74544 7.15214 2.12239 7.44781 2.71867L7.96418 3.76002L11.4955 3.75175C12.4636 3.74948 13.2496 4.53364 13.2496 5.50174V10.4994C13.2496 11.4659 12.4661 12.2494 11.4996 12.2494H3.5C2.5335 12.2494 1.75 11.4659 1.75 10.4994V3.49842C1.75 2.53259 2.53246 1.74936 3.49829 1.74842L5.87826 1.74609Z" fill="#141B34"/>
<path d="M16.5518 12.7226C16.8475 12.1263 17.4558 11.7494 18.1213 11.75L20.5013 11.7523C21.4671 11.7533 22.2496 12.5365 22.2496 13.5023V20.5033C22.2496 21.4698 21.4661 22.2533 20.4996 22.2533H12.5C11.5335 22.2533 10.75 21.4698 10.75 20.5033V15.5056C10.75 14.5375 11.536 13.7534 12.5041 13.7557L16.0354 13.7639L16.5518 12.7226Z" fill="#141B34"/>
</svg>
