<svg width="24" height="24" viewBox="0 0 24 24" fill="none" xmlns="http://www.w3.org/2000/svg">
<path d="M15.9961 13.75C15.9961 12.369 17.1161 11.25 18.4969 11.25C19.8777 11.25 20.9977 12.369 20.9977 13.75C20.9977 15.131 19.8777 16.25 18.4969 16.25C17.1161 16.25 15.9961 15.131 15.9961 13.75Z" fill="#141B34"/>
<path d="M14.2461 21C14.2461 19.5 16.1499 17.75 18.4977 17.75C20.8455 17.75 22.7493 19.5 22.7493 21C22.7493 21.4142 22.4136 21.75 21.9993 21.75H14.9961C14.5819 21.75 14.2461 21.4142 14.2461 21Z" fill="#141B34"/>
<path d="M12.3913 6.24446L9.89849 2.94507C9.56775 2.50731 9.05086 2.25 8.5022 2.25H3C2.0335 2.25 1.25 3.0335 1.25 4V19C1.25 20.5188 2.48122 21.75 4 21.75H13.1415C13.0477 21.5184 12.9961 21.2652 12.9961 21C12.9961 19.7436 13.7602 18.6084 14.7034 17.8423C15.1928 17.4447 15.7733 17.1081 16.4176 16.8715C15.4101 16.1993 14.7461 15.0525 14.7461 13.75C14.7461 11.678 16.4263 10 18.4969 10C19.9358 10 21.1861 10.8103 21.8151 12H22.75V8.99446C22.75 7.47567 21.5188 6.24446 20 6.24446H12.3913Z" fill="#141B34"/>
</svg>
