<svg width="24" height="24" viewBox="0 0 24 24" fill="none" xmlns="http://www.w3.org/2000/svg">
<path fill-rule="evenodd" clip-rule="evenodd" d="M9.89849 2.94507L12.3913 6.24446H20C21.5188 6.24446 22.75 7.47567 22.75 8.99446V12.7338C21.9085 12.3163 20.86 12.458 20.159 13.159L18.75 14.568L17.341 13.159C16.4623 12.2803 15.0377 12.2803 14.159 13.159C13.2803 14.0377 13.2803 15.4623 14.159 16.341L15.568 17.75L14.159 19.159C13.458 19.86 13.3163 20.9085 13.7338 21.75H4C2.48122 21.75 1.25 20.5188 1.25 19V4C1.25 3.0335 2.0335 2.25 3 2.25H8.5022C9.05086 2.25 9.56775 2.50731 9.89849 2.94507ZM16.4571 14.0429C16.0666 13.6524 15.4334 13.6524 15.0429 14.0429C14.6524 14.4334 14.6524 15.0666 15.0429 15.4571L17.3358 17.75L15.0429 20.0429C14.6524 20.4334 14.6524 21.0666 15.0429 21.4571C15.4334 21.8476 16.0666 21.8476 16.4571 21.4571L18.75 19.1642L21.0429 21.4571C21.4334 21.8476 22.0666 21.8476 22.4571 21.4571C22.8476 21.0666 22.8476 20.4334 22.4571 20.0429L20.1642 17.75L22.4571 15.4571C22.8476 15.0666 22.8476 14.4334 22.4571 14.0429C22.0666 13.6524 21.4334 13.6524 21.0429 14.0429L18.75 16.3358L16.4571 14.0429Z" fill="#141B34"/>
</svg>
