<svg width="24" height="24" viewBox="0 0 24 24" fill="none" xmlns="http://www.w3.org/2000/svg">
<path d="M16.42 12.5245C16.5624 12.3507 16.7753 12.25 17 12.25H21C21.2247 12.25 21.4376 12.3507 21.58 12.5245C21.7225 12.6983 21.7795 12.9268 21.7354 13.1471L21.2923 15.3628L22.6431 17.6141C22.7821 17.8458 22.7858 18.1344 22.6526 18.3695C22.5195 18.6047 22.2702 18.75 22 18.75H19.75V21C19.75 21.4142 19.4142 21.75 19 21.75C18.5858 21.75 18.25 21.4142 18.25 21V18.75H16C15.7298 18.75 15.4805 18.6047 15.3474 18.3695C15.2142 18.1344 15.2179 17.8458 15.3569 17.6141L16.7077 15.3628L16.2646 13.1471C16.2205 12.9268 16.2775 12.6983 16.42 12.5245Z" fill="#141B34"/>
<path d="M12.3913 6.24446L9.89849 2.94507C9.56775 2.50731 9.05086 2.25 8.5022 2.25H3C2.0335 2.25 1.25 3.0335 1.25 4V19C1.25 20.5188 2.48122 21.75 4 21.75H17V20H16C15.2795 20 14.6146 19.6124 14.2596 18.9854C13.9046 18.3584 13.9143 17.5889 14.285 16.971L15.3872 15.134L15.0388 13.3922C14.9213 12.8047 15.0734 12.1954 15.4533 11.732C15.8332 11.2686 16.4008 11 17 11H22.75V8.99446C22.75 7.47567 21.5188 6.24446 20 6.24446H12.3913Z" fill="#141B34"/>
</svg>
