<svg width="24" height="24" viewBox="0 0 24 24" fill="none" xmlns="http://www.w3.org/2000/svg">
<path fill-rule="evenodd" clip-rule="evenodd" d="M3.25 4.15C3.25 3.10066 4.12056 2.25 5.19444 2.25H9.53524C10.1854 2.25 10.7925 2.56749 11.1531 3.09607L12.5203 5.1H17.8333C19.4442 5.1 20.75 6.37599 20.75 7.95V10.8C20.75 11.3247 20.3147 11.75 19.7778 11.75C19.2408 11.75 18.8056 11.3247 18.8056 10.8V7.95C18.8056 7.42533 18.3703 7 17.8333 7H12C11.6749 7 11.3714 6.84125 11.1911 6.57696L9.53524 4.15H5.19444V10.8C5.19444 11.3247 4.75917 11.75 4.22222 11.75C3.68528 11.75 3.25 11.3247 3.25 10.8V4.15Z" fill="#141B34"/>
<path d="M1.28652 12.3473C1.05811 11.2374 1.93259 10.25 3.0301 10.25H20.9712C22.1353 10.25 23.0291 11.3562 22.6734 12.5086L20.2039 20.5086C19.9727 21.2573 19.273 21.75 18.5017 21.75H4.67643C3.84452 21.75 3.10368 21.1774 2.93285 20.3473L1.28652 12.3473Z" fill="#141B34"/>
</svg>
