<svg width="24" height="24" viewBox="0 0 24 24" fill="none" xmlns="http://www.w3.org/2000/svg">
<path fill-rule="evenodd" clip-rule="evenodd" d="M9.25 2C9.25 1.58579 9.58579 1.25 10 1.25H14C14.4142 1.25 14.75 1.58579 14.75 2V13C14.75 13.4142 14.4142 13.75 14 13.75C13.5858 13.75 13.25 13.4142 13.25 13V2.75H10.75V13C10.75 13.4142 10.4142 13.75 10 13.75C9.58579 13.75 9.25 13.4142 9.25 13V2Z" fill="#141B34"/>
<path fill-rule="evenodd" clip-rule="evenodd" d="M16.2827 4.28218C16.4799 4.22245 16.6931 4.24655 16.8721 4.34882L20.3721 6.34882C20.7177 6.54631 20.8488 6.97938 20.6708 7.33541L19.1708 10.3354C18.9856 10.7059 18.5351 10.8561 18.1646 10.6708C17.7941 10.4856 17.6439 10.0351 17.8292 9.66459L19.0119 7.29918L16.8163 6.04453L14.6708 10.3354C14.4856 10.7059 14.0351 10.8561 13.6646 10.6708C13.2941 10.4856 13.1439 10.0351 13.3292 9.66459L15.8292 4.66459C15.9214 4.48022 16.0854 4.34192 16.2827 4.28218Z" fill="#141B34"/>
<path fill-rule="evenodd" clip-rule="evenodd" d="M6.6279 2.34881C6.98214 2.14639 7.43321 2.26427 7.64312 2.61412L10.6431 7.61412C10.8562 7.9693 10.7411 8.43 10.3859 8.64311C10.0307 8.85622 9.56999 8.74105 9.35688 8.38586L6.73463 4.01545L4.52913 5.27573L7.64784 10.6221L6.35217 11.3779L2.85217 5.37789C2.75136 5.20508 2.72377 4.99914 2.77556 4.80589C2.82734 4.61263 2.95419 4.44807 3.1279 4.34881L6.6279 2.34881Z" fill="#141B34"/>
<path fill-rule="evenodd" clip-rule="evenodd" d="M3.00001 9.25C2.76906 9.25 2.55098 9.3564 2.40885 9.53844C2.26672 9.72048 2.21639 9.95785 2.2724 10.1819L4.89367 20.667C5.19972 21.8912 6.29967 22.75 7.56156 22.75H16.4385C17.7003 22.75 18.8003 21.8912 19.1063 20.667L21.7276 10.1819C21.7836 9.95785 21.7333 9.72048 21.5912 9.53844C21.449 9.3564 21.231 9.25 21 9.25C18.3562 9.25 16.7084 9.98236 15.6897 10.9184C14.9986 11.5534 14.6414 12.2426 14.4498 12.75H9.55023C9.35858 12.2426 9.00141 11.5534 8.31029 10.9184C7.29158 9.98236 5.64386 9.25 3.00001 9.25ZM12 15.75C11.3096 15.75 10.75 16.3096 10.75 17C10.75 17.6904 11.3096 18.25 12 18.25H12.009C12.6994 18.25 13.259 17.6904 13.259 17C13.259 16.3096 12.6994 15.75 12.009 15.75H12Z" fill="#141B34"/>
</svg>
