<svg width="24" height="24" viewBox="0 0 24 24" fill="none" xmlns="http://www.w3.org/2000/svg">
<path fill-rule="evenodd" clip-rule="evenodd" d="M1.25 11.125C1.25 8.50165 3.37665 6.375 6 6.375H18C20.6234 6.375 22.75 8.50165 22.75 11.125V18.125C22.75 20.7484 20.6234 22.875 18 22.875H6C3.37665 22.875 1.25 20.7484 1.25 18.125V11.125ZM10.5303 12.5947C10.8232 12.8876 10.8232 13.3624 10.5303 13.6553L9.56066 14.625L10.5303 15.5947C10.8232 15.8876 10.8232 16.3624 10.5303 16.6553C10.2374 16.9482 9.76256 16.9482 9.46967 16.6553L8.5 15.6857L7.53033 16.6553C7.23744 16.9482 6.76256 16.9482 6.46967 16.6553C6.17678 16.3624 6.17678 15.8876 6.46967 15.5947L7.43934 14.625L6.46967 13.6553C6.17678 13.3624 6.17678 12.8876 6.46967 12.5947C6.76256 12.3018 7.23744 12.3018 7.53033 12.5947L8.5 13.5643L9.46967 12.5947C9.76256 12.3018 10.2374 12.3018 10.5303 12.5947ZM18 13.625C18 13.0727 17.5523 12.625 17 12.625C16.4477 12.625 16 13.0727 16 13.625V15.625C16 16.1773 16.4477 16.625 17 16.625C17.5523 16.625 18 16.1773 18 15.625V13.625Z" fill="#141B34"/>
<path fill-rule="evenodd" clip-rule="evenodd" d="M14 1.125C14.5523 1.125 15 1.57272 15 2.125V3.09422C15 4.15889 14.2754 5.08692 13.2425 5.34514C13.1 5.38078 13 5.50885 13 5.65578V7.125C13 7.67728 12.5523 8.125 12 8.125C11.4477 8.125 11 7.67728 11 7.125V5.65578C11 4.59111 11.7246 3.66308 12.7575 3.40486C12.9 3.36922 13 3.24115 13 3.09422V2.125C13 1.57272 13.4477 1.125 14 1.125Z" fill="#141B34"/>
</svg>
