<svg width="24" height="24" viewBox="0 0 24 24" fill="none" xmlns="http://www.w3.org/2000/svg">
<path fill-rule="evenodd" clip-rule="evenodd" d="M7.20994 4.96929C7.74513 4.83296 8.06847 4.28858 7.93214 3.75339C7.79581 3.2182 7.25144 2.89486 6.71624 3.03119L4.75339 3.53119C4.2182 3.66752 3.89486 4.21189 4.03119 4.74709C4.16752 5.28228 4.71189 5.60562 5.24709 5.46929L7.20994 4.96929ZM17.2428 3.0301C16.707 2.89615 16.164 3.22191 16.0301 3.7577C15.8961 4.2935 16.2219 4.83643 16.7577 4.97038L18.7577 5.47038C19.2935 5.60433 19.8364 5.27857 19.9704 4.74278C20.1043 4.20698 19.7786 3.66405 19.2428 3.5301L17.2428 3.0301ZM4.92247 6.04968C9.33085 4.98344 14.6689 4.98344 19.0773 6.04968C20.1058 6.29842 20.8987 7.04098 21.262 8.01065C21.8464 9.57091 22.5166 12.2007 22.7438 15.761C22.8357 17.2002 21.8515 18.249 20.8758 18.9659C20.0349 19.5837 19.02 20.0848 18.239 20.4704L18.239 20.4704L18.2389 20.4704L18.2389 20.4704L18.2388 20.4704L18.2388 20.4705L18.2387 20.4705C18.0964 20.5408 17.9618 20.6072 17.8375 20.6698C17.4812 20.8493 17.0469 20.7184 16.849 20.3721L15.1367 17.376C15.0922 17.2981 15.0094 17.25 14.9197 17.25L9.08032 17.25C8.9906 17.25 8.90777 17.2981 8.86326 17.376L7.15118 20.3721C6.95327 20.7184 6.51891 20.8493 6.16265 20.6698C6.0385 20.6073 5.90412 20.541 5.76199 20.4708L5.76181 20.4707L5.76118 20.4704L5.76093 20.4703C4.97994 20.0847 3.96502 19.5836 3.12421 18.9659C2.14842 18.249 1.16411 17.2003 1.25597 15.761C1.4832 12.2007 2.15335 9.57091 2.73783 8.01065C3.10107 7.04098 3.89404 6.29842 4.92247 6.04968ZM9.70711 9.29289C10.0976 9.68342 10.0976 10.3166 9.70711 10.7071L8.91421 11.5L9.70711 12.2929C10.0976 12.6834 10.0976 13.3166 9.70711 13.7071C9.31658 14.0976 8.68342 14.0976 8.29289 13.7071L7.5 12.9142L6.70711 13.7071C6.31658 14.0976 5.68342 14.0976 5.29289 13.7071C4.90237 13.3166 4.90237 12.6834 5.29289 12.2929L6.08579 11.5L5.29289 10.7071C4.90237 10.3166 4.90237 9.68342 5.29289 9.29289C5.68342 8.90237 6.31658 8.90237 6.70711 9.29289L7.5 10.0858L8.29289 9.29289C8.68342 8.90237 9.31658 8.90237 9.70711 9.29289ZM15.9973 9H15.9883C15.436 9 14.9883 9.44772 14.9883 10C14.9883 10.5523 15.436 11 15.9883 11H15.9973C16.5495 11 16.9973 10.5523 16.9973 10C16.9973 9.44772 16.5495 9 15.9973 9ZM16.9883 13C16.9883 12.4477 17.436 12 17.9883 12H17.9973C18.5495 12 18.9973 12.4477 18.9973 13C18.9973 13.5523 18.5495 14 17.9973 14H17.9883C17.436 14 16.9883 13.5523 16.9883 13Z" fill="#141B34"/>
</svg>
