<svg width="24" height="24" viewBox="0 0 24 24" fill="none" xmlns="http://www.w3.org/2000/svg">
<path fill-rule="evenodd" clip-rule="evenodd" d="M12 1.25C8.82436 1.25 6.25 3.82436 6.25 7C6.25 10.1756 8.82436 12.75 12 12.75C15.1756 12.75 17.75 10.1756 17.75 7C17.75 3.82436 15.1756 1.25 12 1.25ZM14.0303 6.03033C14.3232 5.73744 14.3232 5.26256 14.0303 4.96967C13.7374 4.67678 13.2626 4.67678 12.9697 4.96967L11.4697 6.46967C11.1768 6.76256 11.1768 7.23744 11.4697 7.53033C11.7626 7.82322 12.2374 7.82322 12.5303 7.53033L14.0303 6.03033Z" fill="#141B34"/>
<path fill-rule="evenodd" clip-rule="evenodd" d="M7.25 17C7.25 16.0335 8.0335 15.25 9 15.25H15C15.9665 15.25 16.75 16.0335 16.75 17V21C16.75 21.9665 15.9665 22.75 15 22.75H9C8.0335 22.75 7.25 21.9665 7.25 21V17Z" fill="#141B34"/>
<path d="M10.5 11.25C10.0858 11.25 9.75 11.5858 9.75 12V13.75H14.25V12C14.25 11.5858 13.9142 11.25 13.5 11.25H10.5Z" fill="#141B34"/>
<path d="M5.75947 16.75H2C1.58579 16.75 1.25 17.0858 1.25 17.5V20.5C1.25 20.9142 1.58579 21.25 2 21.25H5.75947C5.7532 21.1675 5.75 21.0841 5.75 21V17C5.75 16.9159 5.7532 16.8325 5.75947 16.75Z" fill="#141B34"/>
<path d="M18.2405 21.25C18.2468 21.1675 18.25 21.0841 18.25 21V17C18.25 16.9159 18.2468 16.8325 18.2405 16.75H22C22.4142 16.75 22.75 17.0858 22.75 17.5V20.5C22.75 20.9142 22.4142 21.25 22 21.25H18.2405Z" fill="#141B34"/>
</svg>
