<svg width="24" height="24" viewBox="0 0 24 24" fill="none" xmlns="http://www.w3.org/2000/svg">
<path d="M12.75 14.2113L12.75 22.3268C12.8382 22.2509 12.9541 22.1561 13.0972 22.0493C13.4873 21.758 14.077 21.3784 14.8582 21.0432C16.412 20.3765 18.7462 19.8742 21.8229 20.622C22.0465 20.6763 22.2826 20.625 22.4635 20.4828C22.6444 20.3407 22.75 20.1233 22.75 19.8932V5.49965C22.75 5.14795 22.5056 4.84348 22.1622 4.76741C22.1182 4.75776 21.9855 4.72869 21.906 4.71148C21.7469 4.67709 21.5245 4.62952 21.2711 4.57678C20.7671 4.47186 20.1299 4.3443 19.6233 4.25986C19.3949 4.22179 19.1774 4.1852 18.9686 4.15008L18.645 4.0957C19.0341 4.98481 19.25 5.96702 19.25 6.99965C19.25 10.7505 16.4016 13.836 12.75 14.2113Z" fill="#141B34"/>
<path d="M4.75 6.99965C4.75 5.96702 4.96589 4.98481 5.35499 4.0957L5.03138 4.15008C4.82262 4.1852 4.60506 4.22179 4.37668 4.25986C3.8701 4.3443 3.23295 4.47186 2.72888 4.57678C2.47547 4.62952 2.2531 4.67709 2.09402 4.71148C2.01445 4.72869 1.88181 4.75776 1.83777 4.76741C1.49439 4.84348 1.25 5.14795 1.25 5.49965V19.8932C1.25 20.1233 1.35561 20.3407 1.53651 20.4828C1.7174 20.625 1.95355 20.6763 2.17713 20.622C5.25379 19.8742 7.588 20.3765 9.14176 21.0432C9.92301 21.3784 10.5127 21.758 10.9028 22.0493C11.0459 22.1561 11.1618 22.2509 11.25 22.3268L11.25 14.2113C7.59834 13.836 4.75 10.7505 4.75 6.99965Z" fill="#141B34"/>
<path fill-rule="evenodd" clip-rule="evenodd" d="M6.25 7C6.25 3.82436 8.82436 1.25 12 1.25C15.1756 1.25 17.7501 3.82436 17.7501 7C17.7501 10.1756 15.1757 12.75 12.0001 12.75C8.82445 12.75 6.25 10.1756 6.25 7ZM9.82773 3.34631C8.58352 4.08765 7.75 5.44648 7.75 6.99999C7.75 8.55349 8.58351 9.91232 9.82773 10.6537C9.46035 9.66028 9.25 8.37638 9.25 6.99999C9.25 5.62359 9.46035 4.33969 9.82773 3.34631ZM14.1724 3.34631C15.4166 4.08765 16.2501 5.44648 16.2501 6.99999C16.2501 8.55349 15.4166 9.91232 14.1724 10.6537C14.5397 9.66028 14.7501 8.37638 14.7501 6.99999C14.7501 5.62359 14.5397 4.33969 14.1724 3.34631ZM11.7664 2.90826C11.9163 2.7498 11.9955 2.74999 12 2.75C12.0045 2.74999 12.0838 2.7498 12.2337 2.90826C12.3861 3.06943 12.5579 3.34289 12.7179 3.74301C13.0364 4.53908 13.2501 5.69028 13.2501 7C13.2501 8.30972 13.0364 9.46092 12.7179 10.257C12.5579 10.6571 12.3861 10.9306 12.2337 11.0917C12.0865 11.2474 12.0071 11.25 12 11.25C11.993 11.25 11.9136 11.2474 11.7664 11.0917C11.614 10.9306 11.4422 10.6571 11.2821 10.257C10.9637 9.46092 10.75 8.30972 10.75 7C10.75 5.69028 10.9637 4.53908 11.2821 3.74301C11.4422 3.34289 11.614 3.06943 11.7664 2.90826Z" fill="#141B34"/>
</svg>
