<svg width="24" height="24" viewBox="0 0 24 24" fill="none" xmlns="http://www.w3.org/2000/svg">
<path fill-rule="evenodd" clip-rule="evenodd" d="M9.57781 3.32943C5.78362 4.38684 3 7.86935 3 12C3 16.9706 7.02944 21 12 21C16.9706 21 21 16.9706 21 12C21 9.05617 19.5877 6.4425 17.3994 4.79883C16.9578 4.46714 16.8687 3.84028 17.2004 3.39869C17.5321 2.9571 18.159 2.86801 18.6006 3.1997C21.2701 5.20486 23 8.40056 23 12C23 18.0751 18.0751 23 12 23C5.92487 23 1 18.0751 1 12C1 6.67713 4.77972 2.2393 9.80107 1.22002C10.5124 1.07563 11.2479 1 12 1C12.7521 1 13.4876 1.07563 14.1989 1.22002C14.531 1.28743 14.8063 1.51838 14.9305 1.83364C15.0546 2.14889 15.0107 2.50557 14.8137 2.78128L12.8137 5.58124C12.626 5.84404 12.3229 6 12 6C11.6771 6 11.374 5.84404 11.1863 5.58124L9.57781 3.32943Z" fill="#141B34"/>
<path fill-rule="evenodd" clip-rule="evenodd" d="M15.1895 8.00026C15.2029 8.00026 15.2162 8.00026 15.2297 8.00026C15.2431 8.00026 15.2564 8.00026 15.2698 8.00026C15.5861 8.00021 15.8939 8.00017 16.1524 8.02646C16.4385 8.05557 16.773 8.12497 17.0908 8.33732C17.3092 8.48324 17.4967 8.67074 17.6426 8.88912C17.8549 9.20693 17.9243 9.54137 17.9535 9.82752C17.9797 10.086 17.9797 10.3938 17.9797 10.7101C17.9797 10.7235 17.9797 10.7503 17.9797 10.7503V13.2503C17.9797 13.2637 17.9797 13.2771 17.9797 13.2904C17.9797 13.6067 17.9797 13.9145 17.9535 14.173C17.9243 14.4592 17.8549 14.7936 17.6426 15.1114C17.4967 15.3298 17.3092 15.5173 17.0908 15.6632C16.773 15.8756 16.4385 15.945 16.1524 15.9741C15.8939 16.0004 15.5861 16.0003 15.2698 16.0003C15.2564 16.0003 15.2431 16.0003 15.2297 16.0003C15.2163 16.0003 15.2029 16.0003 15.1895 16.0003C14.8732 16.0003 14.5654 16.0004 14.3069 15.9741C14.0208 15.945 13.6863 15.8756 13.3685 15.6632C13.1501 15.5173 12.9626 15.3298 12.8167 15.1114C12.6044 14.7936 12.535 14.4592 12.5059 14.173C12.4796 13.9145 12.4796 13.6067 12.4797 13.2904C12.4797 13.2771 12.4797 13.2637 12.4797 13.2503V10.7503C12.4797 10.7369 12.4797 10.7235 12.4797 10.7101C12.4796 10.3938 12.4796 10.086 12.5059 9.82752C12.535 9.54137 12.6044 9.20693 12.8167 8.88912C12.9626 8.67074 13.1501 8.48324 13.3685 8.33732C13.6863 8.12497 14.0208 8.05557 14.3069 8.02646C14.5654 8.00017 14.8732 8.00021 15.1895 8.00026ZM14.4969 10.0175C14.4965 10.0215 14.496 10.0256 14.4956 10.0299C14.4809 10.1747 14.4797 10.3783 14.4797 10.7503V13.2503C14.4797 13.6222 14.4809 13.8259 14.4956 13.9706C14.496 13.9749 14.4965 13.979 14.4969 13.983C14.5009 13.9834 14.505 13.9839 14.5093 13.9843C14.654 13.9991 14.8577 14.0003 15.2297 14.0003C15.6016 14.0003 15.8053 13.9991 15.95 13.9843C15.9543 13.9839 15.9584 13.9834 15.9624 13.983C15.9628 13.979 15.9633 13.9749 15.9637 13.9706C15.9784 13.8259 15.9797 13.6222 15.9797 13.2503V10.7503C15.9797 10.3783 15.9784 10.1747 15.9637 10.0299C15.9633 10.0256 15.9628 10.0215 15.9624 10.0175C15.9584 10.0171 15.9543 10.0166 15.95 10.0162C15.8053 10.0015 15.6016 10.0003 15.2297 10.0003C14.8577 10.0003 14.654 10.0015 14.5093 10.0162C14.505 10.0166 14.5009 10.0171 14.4969 10.0175ZM6.8916 8.45983C7.34645 8.12417 7.88291 8.00001 8.36606 8.00001H9.14344C9.62658 8.00001 10.163 8.12417 10.6179 8.45983C11.0949 8.81186 11.4086 9.34446 11.4868 9.99934C11.5252 10.321 11.5252 10.679 11.4868 11.0007C11.4436 11.3627 11.3163 11.7047 11.1243 12C11.3163 12.2954 11.4436 12.6373 11.4868 12.9993C11.5252 13.321 11.5252 13.679 11.4868 14.0007C11.4086 14.6556 11.0949 15.1882 10.6179 15.5402C10.163 15.8758 9.62658 16 9.14344 16H8.36606C7.88291 16 7.34645 15.8758 6.8916 15.5402C6.41458 15.1882 6.10087 14.6556 6.02268 14.0007C5.9572 13.4523 6.34868 12.9546 6.89707 12.8892C7.44545 12.8237 7.94309 13.2152 8.00857 13.7636C8.01751 13.8384 8.03527 13.8763 8.04434 13.8922C8.05324 13.9078 8.06351 13.9194 8.07918 13.9309C8.1157 13.9579 8.20757 14 8.36606 14L9.14344 14C9.30192 14 9.3938 13.9579 9.43031 13.9309C9.44598 13.9194 9.45625 13.9078 9.46515 13.8922C9.47423 13.8763 9.49198 13.8384 9.50092 13.7636C9.52052 13.5994 9.52052 13.4006 9.50092 13.2365C9.49025 13.1471 9.45093 13.0814 9.40889 13.0415C9.38797 13.0217 9.36896 13.0106 9.35586 13.0051C9.34947 13.0024 9.34479 13.0012 9.34196 13.0006C9.3392 13 9.33778 13 9.33778 13H9.26843C8.71614 13 8.26843 12.5523 8.26843 12C8.26843 11.4477 8.71614 11 9.26843 11H9.33778C9.33778 11 9.3392 11 9.34196 10.9994C9.34479 10.9988 9.34947 10.9976 9.35586 10.9949C9.36896 10.9894 9.38797 10.9783 9.4089 10.9585C9.45093 10.9186 9.49025 10.8529 9.50092 10.7636C9.52052 10.5994 9.52052 10.4006 9.50092 10.2365C9.49198 10.1616 9.47423 10.1237 9.46515 10.1078C9.45625 10.0922 9.44598 10.0806 9.43031 10.0691C9.3938 10.0421 9.30192 10 9.14344 10H8.36606C8.20757 10 8.1157 10.0421 8.07918 10.0691C8.06351 10.0806 8.05324 10.0922 8.04434 10.1078C8.03527 10.1237 8.01751 10.1616 8.00857 10.2365C7.94309 10.7849 7.44545 11.1763 6.89707 11.1108C6.34868 11.0454 5.9572 10.5477 6.02268 9.99934C6.10087 9.34446 6.41458 8.81187 6.8916 8.45983Z" fill="#141B34"/>
</svg>
