<svg width="24" height="24" viewBox="0 0 24 24" fill="none" xmlns="http://www.w3.org/2000/svg">
<path fill-rule="evenodd" clip-rule="evenodd" d="M8.79289 8.79289C9.18342 8.40237 9.81658 8.40237 10.2071 8.79289L12 10.5858L13.7929 8.79289C14.1834 8.40237 14.8166 8.40237 15.2071 8.79289C15.5976 9.18342 15.5976 9.81658 15.2071 10.2071L13.4142 12L15.2071 13.7929C15.5976 14.1834 15.5976 14.8166 15.2071 15.2071C14.8166 15.5976 14.1834 15.5976 13.7929 15.2071L12 13.4142L10.2071 15.2071C9.81658 15.5976 9.18342 15.5976 8.79289 15.2071C8.40237 14.8166 8.40237 14.1834 8.79289 13.7929L10.5858 12L8.79289 10.2071C8.40237 9.81658 8.40237 9.18342 8.79289 8.79289Z" fill="#141B34"/>
<path fill-rule="evenodd" clip-rule="evenodd" d="M12 5C8.13401 5 5 8.13401 5 12C5 15.866 8.13401 19 12 19C15.866 19 19 15.866 19 12C19 8.13401 15.866 5 12 5ZM3 12C3 7.02944 7.02944 3 12 3C16.9706 3 21 7.02944 21 12C21 16.9706 16.9706 21 12 21C7.02944 21 3 16.9706 3 12Z" fill="#141B34"/>
<path fill-rule="evenodd" clip-rule="evenodd" d="M12 1C12.5523 1 13 1.44772 13 2V4C13 4.55228 12.5523 5 12 5C11.4477 5 11 4.55228 11 4V2C11 1.44772 11.4477 1 12 1ZM1 12C1 11.4477 1.44772 11 2 11H4C4.55228 11 5 11.4477 5 12C5 12.5523 4.55228 13 4 13H2C1.44772 13 1 12.5523 1 12ZM19 12C19 11.4477 19.4477 11 20 11H22C22.5523 11 23 11.4477 23 12C23 12.5523 22.5523 13 22 13H20C19.4477 13 19 12.5523 19 12ZM12 19C12.5523 19 13 19.4477 13 20V22C13 22.5523 12.5523 23 12 23C11.4477 23 11 22.5523 11 22V20C11 19.4477 11.4477 19 12 19Z" fill="#141B34"/>
</svg>
