<svg width="24" height="24" viewBox="0 0 24 24" fill="none" xmlns="http://www.w3.org/2000/svg">
<path fill-rule="evenodd" clip-rule="evenodd" d="M20.2877 2.29284C20.6782 1.90234 21.3114 1.90239 21.7019 2.29295L21.7072 2.29823C22.0977 2.68879 22.0976 3.32195 21.7071 3.71245C21.3165 4.10294 20.6833 4.10289 20.2928 3.71234L20.2876 3.70705C19.8971 3.3165 19.8971 2.68333 20.2877 2.29284ZM17.79 4.79021C18.1805 4.39971 18.8137 4.39974 19.2042 4.79029L19.2095 4.79558C19.6 5.18612 19.6 5.81929 19.2094 6.20979C18.8189 6.60029 18.1857 6.60026 17.7952 6.20971L17.7899 6.20442C17.3994 5.81388 17.3995 5.18071 17.79 4.79021ZM15.2929 7.28758C15.6835 6.89707 16.3166 6.89709 16.7071 7.28763L16.7124 7.29292C17.1029 7.68346 17.1029 8.31663 16.7124 8.70713C16.3218 9.09764 15.6887 9.09762 15.2982 8.70708L15.2929 8.70179C14.9024 8.31125 14.9024 7.67809 15.2929 7.28758Z" fill="#141B34"/>
<path fill-rule="evenodd" clip-rule="evenodd" d="M13.2635 10.7365C12.2814 9.75449 10.6892 9.75449 9.70711 10.7365C9.31658 11.1271 8.68342 11.1271 8.29289 10.7365C7.90237 10.346 7.90237 9.71285 8.29289 9.32233C10.056 7.55922 12.9146 7.55922 14.6777 9.32233C16.4408 11.0854 16.4408 13.944 14.6777 15.7071C14.2871 16.0976 13.654 16.0976 13.2635 15.7071C12.8729 15.3166 12.8729 14.6834 13.2635 14.2929C14.2455 13.3108 14.2455 11.7186 13.2635 10.7365Z" fill="#141B34"/>
<path fill-rule="evenodd" clip-rule="evenodd" d="M3.13509 6.40299C3.76803 5.50334 4.99539 5.52671 5.69042 6.22175L17.7778 18.3091C18.4728 19.0041 18.4962 20.2315 17.5965 20.8644C15.9084 22.0521 13.8496 22.7495 11.6301 22.7495C5.89733 22.7495 1.25 18.1022 1.25 12.3694C1.25 10.1499 1.94745 8.09107 3.13509 6.40299Z" fill="#141B34"/>
</svg>
