<svg width="24" height="24" viewBox="0 0 24 24" fill="none" xmlns="http://www.w3.org/2000/svg">
<path d="M7.5 15C8.05228 15 8.5 15.4477 8.5 16V17.5C8.5 19.0301 9.3223 19.8684 10.2356 20.3758C10.7034 20.6357 11.181 20.7963 11.5478 20.8914C11.7293 20.9384 11.8784 20.9681 11.9786 20.9856L12 20.9893L12.0214 20.9856C12.1216 20.9681 12.2707 20.9384 12.4522 20.8914C12.819 20.7963 13.2966 20.6357 13.7644 20.3758C14.6777 19.8684 15.5 19.0301 15.5 17.5V16C15.5 15.4477 15.9477 15 16.5 15C17.0523 15 17.5 15.4477 17.5 16V17.5C17.5 19.9699 16.0723 21.3816 14.7356 22.1242C14.0784 22.4893 13.431 22.7037 12.9541 22.8274C12.7136 22.8897 12.5112 22.9303 12.3654 22.9558C12.2923 22.9686 12.2331 22.9776 12.1899 22.9836C12.1705 22.9864 12.1333 22.991 12.1163 22.9932L12.1113 22.9938C12.0379 23.0019 11.9621 23.0019 11.8887 22.9938L11.8837 22.9932C11.8667 22.991 11.8295 22.9864 11.8101 22.9836C11.7669 22.9776 11.7077 22.9686 11.6346 22.9558C11.4888 22.9303 11.2864 22.8897 11.0459 22.8274C10.569 22.7037 9.92164 22.4893 9.26436 22.1242C7.9277 21.3816 6.5 19.9699 6.5 17.5V16C6.5 15.4477 6.94772 15 7.5 15Z" fill="#141B34"/>
<path fill-rule="evenodd" clip-rule="evenodd" d="M4.69943 9.04624C6.81195 8.3805 9.32121 8 12 8C14.6788 8 17.188 8.3805 19.3006 9.04624C19.7169 9.17744 20 9.5635 20 10V13.5C20 13.8185 19.8482 14.118 19.5914 14.3064C19.3345 14.4948 19.0033 14.5495 18.6995 14.4538C16.802 13.8558 14.4976 13.5 12 13.5C9.50239 13.5 7.19803 13.8558 5.30055 14.4538C4.99673 14.5495 4.66549 14.4948 4.40862 14.3064C4.15176 14.118 4 13.8185 4 13.5V10C4 9.5635 4.28312 9.17744 4.69943 9.04624Z" fill="#141B34"/>
<path fill-rule="evenodd" clip-rule="evenodd" d="M19.0002 9.03809C19.5525 9.03809 20.0002 9.4858 20.0002 10.0381V14.1832C20.1797 15.2879 20.8052 17.5992 22.6843 19.3619C23.0296 19.6858 23.1005 20.2073 22.8542 20.6115C22.3768 21.3951 21.403 22.3182 19.976 22.7525C18.5167 23.1965 16.6763 23.1024 14.5381 21.9882C14.0483 21.733 13.8582 21.129 14.1134 20.6393C14.3686 20.1495 14.9725 19.9593 15.4623 20.2145C17.201 21.1206 18.5016 21.1106 19.3937 20.8391C19.9271 20.6768 20.3484 20.411 20.6555 20.1394C18.7919 18.0267 18.1878 15.5685 18.0116 14.412C18.004 14.3621 18.0002 14.3118 18.0002 14.2614V10.0381C18.0002 9.4858 18.4479 9.03809 19.0002 9.03809Z" fill="#141B34"/>
<path fill-rule="evenodd" clip-rule="evenodd" d="M5.00003 9.16699C5.55231 9.16699 6.00003 9.61471 6.00003 10.167V14.2614C6.00003 14.3118 5.99622 14.3621 5.98863 14.412C5.81246 15.5685 5.20835 18.0267 3.34474 20.1394C3.6519 20.411 4.07318 20.6768 4.60654 20.8391C5.49861 21.1106 6.79918 21.1206 8.53792 20.2146C9.0277 19.9593 9.63164 20.1495 9.88685 20.6393C10.1421 21.1291 9.95192 21.733 9.46214 21.9882C7.32396 23.1024 5.4835 23.1965 4.02429 22.7525C2.59729 22.3183 1.62344 21.3951 1.14604 20.6116C0.899752 20.2073 0.970642 19.6858 1.3159 19.3619C3.19513 17.5992 3.82056 15.2879 4.00003 14.1832V10.167C4.00003 9.61471 4.44774 9.16699 5.00003 9.16699Z" fill="#141B34"/>
<path fill-rule="evenodd" clip-rule="evenodd" d="M10.5746 1.35469C11.464 0.881769 12.536 0.881769 13.4253 1.35469L21.9493 5.88743C23.3007 6.60604 23.3629 8.50344 22.0522 9.30305L22.0512 9.30365L19.5223 10.8527C19.2756 11.0039 18.9754 11.0407 18.6994 10.9538C16.8019 10.3558 14.4976 10 12 10C9.50235 10 7.198 10.3558 5.30054 10.9538C5.02454 11.0407 4.72439 11.0039 4.47763 10.8527L1.94875 9.30365L1.94765 9.30298C0.637026 8.50332 0.699285 6.60601 2.05062 5.88743L10.5746 1.35469Z" fill="#141B34"/>
</svg>
