<svg width="24" height="24" viewBox="0 0 24 24" fill="none" xmlns="http://www.w3.org/2000/svg">
<path d="M19.9401 2.36481C19.741 2.16366 19.6415 2.06309 19.5171 2.0625C19.3928 2.06192 19.2923 2.16155 19.0913 2.3608L17.717 3.7232C16.7499 4.6984 16.7666 6.26863 17.7337 7.22729C18.7174 8.18596 20.3014 8.16944 21.2684 7.21077C22.2522 6.23557 22.2355 4.66533 21.2684 3.70666L19.9401 2.36481Z" fill="#141B34"/>
<path fill-rule="evenodd" clip-rule="evenodd" d="M16.8017 2.79969L16.7939 2.80758C15.3173 4.29665 15.3455 6.69007 16.8185 8.15028L16.8264 8.15807C18.285 9.57953 20.5993 9.58845 22.0736 8.23863C22.5109 9.40936 22.75 10.6768 22.75 12C22.75 17.9371 17.9371 22.75 12 22.75C6.06294 22.75 1.25 17.9371 1.25 12C1.25 6.06294 6.06294 1.25 12 1.25C13.8375 1.25 15.5674 1.71104 17.0802 2.52374L16.8017 2.79969ZM7.54964 14.4003C7.88084 14.1516 8.35099 14.2184 8.59974 14.5496C9.37631 15.5836 10.6103 16.25 12 16.25C13.3898 16.25 14.6238 15.5836 15.4003 14.5496C15.6491 14.2184 16.1192 14.1516 16.4505 14.4003C16.7817 14.6491 16.8485 15.1192 16.5997 15.4505C15.5521 16.8454 13.8816 17.75 12 17.75C10.1185 17.75 8.44802 16.8454 7.40035 15.4505C7.1516 15.1192 7.21843 14.6491 7.54964 14.4003ZM8.53033 8.46967C8.23744 8.17678 7.76256 8.17678 7.46967 8.46967C7.17678 8.76256 7.17678 9.23744 7.46967 9.53033L8.26256 10.3232C8.36019 10.4209 8.36019 10.5791 8.26256 10.6768L7.46967 11.4697C7.17678 11.7626 7.17678 12.2374 7.46967 12.5303C7.76256 12.8232 8.23744 12.8232 8.53033 12.5303L9.32322 11.7374C10.0066 11.054 10.0066 9.94598 9.32322 9.26256L8.53033 8.46967ZM16.5303 9.53033C16.8232 9.23744 16.8232 8.76256 16.5303 8.46967C16.2374 8.17678 15.7626 8.17678 15.4697 8.46967L14.6768 9.26256C13.9934 9.94598 13.9934 11.054 14.6768 11.7374L15.4697 12.5303C15.7626 12.8232 16.2374 12.8232 16.5303 12.5303C16.8232 12.2374 16.8232 11.7626 16.5303 11.4697L15.7374 10.6768C15.6398 10.5791 15.6398 10.4209 15.7374 10.3232L16.5303 9.53033Z" fill="#141B34"/>
</svg>
