<svg width="24" height="24" viewBox="0 0 24 24" fill="none" xmlns="http://www.w3.org/2000/svg">
<path fill-rule="evenodd" clip-rule="evenodd" d="M12 1C10.067 1 8.5 2.567 8.5 4.5C8.5 5.16059 8.68301 5.77844 9.0011 6.30561L7.25542 10.6698L6.26327 10.2978C6.04832 10.2171 5.80829 10.2394 5.61185 10.3582C5.41541 10.477 5.28419 10.6792 5.25572 10.907C5.01344 12.8457 4.53018 14.6488 3.87605 16.1355C3.21736 17.6325 2.4091 18.7557 1.55005 19.4C1.23217 19.6384 1.1554 20.0834 1.37501 20.4145C2.34916 21.8834 3.66332 22.75 5.00005 22.75C6.76154 22.75 7.93683 21.9523 8.62509 20.9145C8.76093 20.7097 8.78798 20.4519 8.69726 20.2236L8.69724 20.2235L8.69336 20.2132C8.68923 20.2019 8.68223 20.1823 8.67327 20.1551C8.6553 20.1006 8.62979 20.0168 8.60383 19.9099C8.5514 19.6942 8.50003 19.3967 8.50003 19.0655C8.50002 18.4131 8.69302 17.6708 9.45156 17.0989C9.73994 16.8814 9.83242 16.4894 9.67157 16.166C9.32051 15.4602 9.4723 14.7275 9.79562 14.0819C9.95434 13.7651 10.1422 13.4968 10.2921 13.3067C10.3663 13.2126 10.4295 13.1399 10.4724 13.0924C10.4938 13.0687 10.51 13.0515 10.5199 13.0412L10.529 13.0317L10.5305 13.0302C10.7105 12.8502 10.7868 12.5911 10.7333 12.3422C10.6795 12.0926 10.5025 11.8874 10.2634 11.7978L9.12853 11.3722L10.5948 7.7065C11.0249 7.89525 11.5002 8 12 8C13.933 8 15.5 6.433 15.5 4.5C15.5 2.567 13.933 1 12 1ZM10.5 4.5C10.5 3.67157 11.1716 3 12 3C12.8284 3 13.5 3.67157 13.5 4.5C13.5 5.32843 12.8284 6 12 6C11.1716 6 10.5 5.32843 10.5 4.5ZM18.388 10.3582C18.1916 10.2394 17.9516 10.2171 17.7366 10.2978L16.745 10.6696L15.9287 8.62888C15.7236 8.11609 15.1417 7.86668 14.6289 8.07179C14.1161 8.2769 13.8667 8.85887 14.0718 9.37166L14.8719 11.372L13.7366 11.7978C13.4975 11.8874 13.3205 12.0926 13.2667 12.3422C13.2132 12.5911 13.2895 12.8502 13.4695 13.0302L13.471 13.0317L13.4801 13.0412C13.49 13.0515 13.5062 13.0687 13.5276 13.0924C13.5705 13.1399 13.6337 13.2126 13.7079 13.3067C13.8578 13.4968 14.0457 13.7651 14.2044 14.0819C14.5277 14.7275 14.6795 15.4602 14.3284 16.166C14.1676 16.4894 14.2601 16.8814 14.5484 17.0989C15.307 17.6708 15.5 18.4131 15.5 19.0655C15.5 19.3967 15.4486 19.6942 15.3962 19.9099C15.3702 20.0168 15.3447 20.1006 15.3267 20.1551C15.3178 20.1823 15.3108 20.2019 15.3066 20.2132L15.3028 20.2235C15.212 20.4519 15.2391 20.7097 15.3749 20.9145C16.0632 21.9523 17.2385 22.75 18.9999 22.75C20.3367 22.75 21.6508 21.8834 22.625 20.4145C22.8446 20.0834 22.7678 19.6384 22.4499 19.4C21.5909 18.7557 20.7826 17.6325 20.1239 16.1354C19.4697 14.6488 18.9864 12.8457 18.7442 10.907C18.7157 10.6792 18.5845 10.477 18.388 10.3582Z" fill="#141B34"/>
</svg>
