<svg width="24" height="24" viewBox="0 0 24 24" fill="none" xmlns="http://www.w3.org/2000/svg">
<path fill-rule="evenodd" clip-rule="evenodd" d="M11 6.90476C11 6.45049 11.4012 6 12 6C12.5988 6 13 6.45049 13 6.90476C13 7.2202 12.817 7.52224 12.4983 7.6891C12.2886 7.79895 12.0772 7.89258 11.9153 7.95954C11.8354 7.99263 11.7697 8.0183 11.7252 8.03528C11.703 8.04375 11.6862 8.05001 11.6756 8.05389L11.663 8.05851C11.2654 8.20083 11 8.57762 11 9V10.9111L3.64073 14.9922L3.63545 14.9952C2.6252 15.5635 2 16.6324 2 17.7916C2 19.5635 3.43646 21 5.20841 21L18.7916 21C20.5635 21 22 19.5635 22 17.7916C22 16.6324 21.3748 15.5634 20.3646 14.9952L13 10.9111V9.66866C13.1331 9.60807 13.2783 9.53831 13.4262 9.46086C14.3447 8.97987 15 8.02886 15 6.90476C15 5.25509 13.6103 4 12 4C10.3897 4 9 5.25509 9 6.90476C9 7.45705 9.44772 7.90476 10 7.90476C10.5523 7.90476 11 7.45705 11 6.90476ZM4.61371 16.7396L12 12.6435L19.384 16.7383L19.3863 16.7396C19.7655 16.954 20 17.3559 20 17.7916C20 18.4589 19.459 19 18.7916 19L5.20841 19C4.54103 19 4 18.4589 4 17.7916C4 17.3559 4.23454 16.954 4.61371 16.7396Z" fill="#141B34"/>
</svg>
