<svg width="24" height="24" viewBox="0 0 24 24" fill="none" xmlns="http://www.w3.org/2000/svg">
<path fill-rule="evenodd" clip-rule="evenodd" d="M8.18548 4.24939C6.27467 4.24939 4.66943 5.68615 4.45842 7.58527L3.99622 11.7451L5.04922 12.1141C6.46405 12.6164 9.05624 12.9988 12 12.9988C14.9438 12.9988 17.536 12.6164 18.9508 12.1141L20 11.7416L19.5423 7.58527C19.3313 5.68615 17.726 4.24939 15.8152 4.24939H8.18548ZM10.2501 9.99939C10.2501 9.58518 10.5859 9.24939 11.0001 9.24939H13.0001C13.4143 9.24939 13.7501 9.58518 13.7501 9.99939C13.7501 10.4136 13.4143 10.7494 13.0001 10.7494H11.0001C10.5859 10.7494 10.2501 10.4136 10.2501 9.99939ZM4.39357 13.1391L4.00012 12.9994L1.87878 15.1368C1.48143 15.4546 1.25012 15.9359 1.25012 16.4448C1.25012 17.0554 1.5858 17.6498 2.17878 17.9272C4.59873 19.0593 8.12213 19.7502 12.0001 19.7502C15.8781 19.7502 19.4015 19.0593 21.8215 17.9272C22.4144 17.6498 22.7501 17.0554 22.7501 16.4448C22.7501 15.9359 22.5188 15.4546 22.1215 15.1368L20.0001 12.9994L19.6067 13.1391C18.0072 13.707 15.0208 14.2502 12.0001 14.2502C8.97941 14.2502 5.99303 13.707 4.39357 13.1391Z" fill="#141B34"/>
</svg>
