<svg width="24" height="24" viewBox="0 0 24 24" fill="none" xmlns="http://www.w3.org/2000/svg">
<path fill-rule="evenodd" clip-rule="evenodd" d="M17.2929 10.2929C17.4804 10.1054 17.7348 10 18 10H18.5C19.0523 10 19.5 10.4477 19.5 11V18H20C20.5523 18 21 18.4477 21 19C21 19.5523 20.5523 20 20 20H17C16.4477 20 16 19.5523 16 19C16 18.4477 16.4477 18 17 18H17.5V12.8663C17.1176 13.0874 16.6201 13.0343 16.2929 12.7071C15.9024 12.3166 15.9024 11.6834 16.2929 11.2929L17.2929 10.2929Z" fill="#141B34"/>
<path fill-rule="evenodd" clip-rule="evenodd" d="M4 4C4.55228 4 5 4.44772 5 5V11H12V5C12 4.44772 12.4477 4 13 4C13.5523 4 14 4.44772 14 5V19C14 19.5523 13.5523 20 13 20C12.4477 20 12 19.5523 12 19V13H5V19C5 19.5523 4.55228 20 4 20C3.44772 20 3 19.5523 3 19V5C3 4.44772 3.44772 4 4 4Z" fill="#141B34"/>
</svg>
