<svg width="24" height="24" viewBox="0 0 24 24" fill="none" xmlns="http://www.w3.org/2000/svg">
<path fill-rule="evenodd" clip-rule="evenodd" d="M4 1C4.55228 1 5 1.44772 5 2V4.99473H10C10.5523 4.99473 11 5.44245 11 5.99473C11 6.54702 10.5523 6.99473 10 6.99473H5.0001L5.00097 16.0001C5.00103 16.5523 5.44873 17 6.00097 17H10C10.5523 17 11 17.4477 11 18C11 18.5523 10.5523 19 10 19H6.00097C4.34423 19 3.00114 17.657 3.00097 16.0003L3 2C3 1.44772 3.44772 1 4 1ZM12.25 3C12.25 2.0335 13.0335 1.25 14 1.25H17.0858C17.5499 1.25 17.995 1.43437 18.3232 1.76256L20.2374 3.67678C20.5656 4.00497 20.75 4.45009 20.75 4.91421V9C20.75 9.9665 19.9665 10.75 19 10.75H14C13.0335 10.75 12.25 9.9665 12.25 9V3ZM14 13.25C13.0335 13.25 12.25 14.0335 12.25 15V21C12.25 21.9665 13.0335 22.75 14 22.75H19C19.9665 22.75 20.75 21.9665 20.75 21V16.9142C20.75 16.4501 20.5656 16.005 20.2374 15.6768L18.3232 13.7626C17.995 13.4344 17.5499 13.25 17.0858 13.25H14Z" fill="#141B34"/>
</svg>
