<svg width="24" height="24" viewBox="0 0 24 24" fill="none" xmlns="http://www.w3.org/2000/svg">
<path fill-rule="evenodd" clip-rule="evenodd" d="M4 1.25C3.0335 1.25 2.25 2.0335 2.25 3V7C2.25 7.9665 3.0335 8.75 4 8.75H6V17.5C6 19.1569 7.34315 20.5 9 20.5H13.25V21C13.25 21.9665 14.0335 22.75 15 22.75H19C19.9665 22.75 20.75 21.9665 20.75 21V18C20.75 17.0335 19.9665 16.25 19 16.25H15C14.0335 16.25 13.25 17.0335 13.25 18V18.5H9C8.44772 18.5 8 18.0523 8 17.5V12.5H13.25V13C13.25 13.9665 14.0335 14.75 15 14.75H19C19.9665 14.75 20.75 13.9665 20.75 13V10C20.75 9.0335 19.9665 8.25 19 8.25H15C14.0335 8.25 13.25 9.0335 13.25 10V10.5H8V8.75H10C10.9665 8.75 11.75 7.9665 11.75 7V3C11.75 2.0335 10.9665 1.25 10 1.25H4Z" fill="#141B34"/>
</svg>
