<svg width="24" height="24" viewBox="0 0 24 24" fill="none" xmlns="http://www.w3.org/2000/svg">
<path fill-rule="evenodd" clip-rule="evenodd" d="M5 1C5.55228 1 6 1.44772 6 2V5.33333C6 8.41753 8.63975 11 12 11C15.3602 11 18 8.41753 18 5.33333V2C18 1.44772 18.4477 1 19 1C19.5523 1 20 1.44772 20 2V5.33333C20 9.61293 16.3717 13 12 13C7.62826 13 4 9.61293 4 5.33333V2C4 1.44772 4.44772 1 5 1Z" fill="#141B34"/>
<path fill-rule="evenodd" clip-rule="evenodd" d="M4.25 18.6667C4.25 14.5365 7.7547 11.25 12 11.25C16.2453 11.25 19.75 14.5365 19.75 18.6667V22C19.75 22.1989 19.671 22.3897 19.5303 22.5303C19.3897 22.671 19.1989 22.75 19 22.75L5 22.75C4.58579 22.75 4.25 22.4142 4.25 22L4.25 18.6667Z" fill="#141B34"/>
<path fill-rule="evenodd" clip-rule="evenodd" d="M3 2C3 1.44772 3.44772 1 4 1H20C20.5523 1 21 1.44772 21 2C21 2.55228 20.5523 3 20 3H4C3.44772 3 3 2.55228 3 2ZM3 22C3 21.4477 3.44772 21 4 21H20C20.5523 21 21 21.4477 21 22C21 22.5523 20.5523 23 20 23H4C3.44772 23 3 22.5523 3 22Z" fill="#141B34"/>
</svg>
