<svg width="24" height="24" viewBox="0 0 24 24" fill="none" xmlns="http://www.w3.org/2000/svg">
<path fill-rule="evenodd" clip-rule="evenodd" d="M1.83934 10.1358C2.21734 9.63179 2.79679 9.25 3.5 9.25C4.20321 9.25 4.78266 9.63179 5.16066 10.1358C5.53849 10.6396 5.75 11.3011 5.75 12C5.75 12.6989 5.53849 13.3604 5.16066 13.8642C4.78266 14.3682 4.20321 14.75 3.5 14.75C2.79679 14.75 2.21734 14.3682 1.83934 13.8642C1.46151 13.3604 1.25 12.6989 1.25 12C1.25 11.3011 1.46151 10.6396 1.83934 10.1358Z" fill="#141B34"/>
<path fill-rule="evenodd" clip-rule="evenodd" d="M3.5 13.25C3.91421 13.25 4.25 13.5858 4.25 14V20C4.25 20.4142 3.91421 20.75 3.5 20.75C3.08579 20.75 2.75 20.4142 2.75 20V14C2.75 13.5858 3.08579 13.25 3.5 13.25Z" fill="#141B34"/>
<path fill-rule="evenodd" clip-rule="evenodd" d="M1.25 20C1.25 19.5858 1.58579 19.25 2 19.25H22C22.4142 19.25 22.75 19.5858 22.75 20C22.75 20.4142 22.4142 20.75 22 20.75H2C1.58579 20.75 1.25 20.4142 1.25 20Z" fill="#141B34"/>
<path fill-rule="evenodd" clip-rule="evenodd" d="M14.0315 1.41435C14.3054 1.19522 14.6946 1.19522 14.9685 1.41435L22.4685 7.41435C22.792 7.67311 22.8444 8.14507 22.5857 8.46852C22.3269 8.79197 21.855 8.84441 21.5315 8.58565L21.25 8.36047L21.25 20C21.25 20.4142 20.9142 20.75 20.5 20.75H16.5C16.9142 20.75 17.25 20.4142 17.25 20L17.25 15C17.25 14.0335 16.4665 13.25 15.5 13.25H13.5C12.5335 13.25 11.75 14.0335 11.75 15V20C11.75 20.4142 12.0858 20.75 12.5 20.75H8.50003C8.08581 20.75 7.75003 20.4142 7.75003 20L7.75003 8.36047L7.46855 8.58565C7.1451 8.84441 6.67313 8.79197 6.41438 8.46852C6.15562 8.14507 6.20806 7.67311 6.53151 7.41435L14.0315 1.41435ZM12.5 20.75C12.9142 20.75 13.25 20.4142 13.25 20V15C13.25 14.8619 13.3619 14.75 13.5 14.75H15.5C15.6381 14.75 15.75 14.8619 15.75 15L15.75 20C15.75 20.4142 16.0858 20.75 16.5 20.75L12.5 20.75ZM13.5 8.25C13.0858 8.25 12.75 8.58579 12.75 9C12.75 9.41421 13.0858 9.75 13.5 9.75H15.5C15.9142 9.75 16.25 9.41421 16.25 9C16.25 8.58579 15.9142 8.25 15.5 8.25L13.5 8.25Z" fill="#141B34"/>
</svg>
