<svg width="24" height="24" viewBox="0 0 24 24" fill="none" xmlns="http://www.w3.org/2000/svg">
<path fill-rule="evenodd" clip-rule="evenodd" d="M13.041 1.47417C12.4047 1.05809 11.5954 1.05809 10.959 1.47417C10.0182 2.08934 7.93805 3.55333 6.08235 5.59801C4.2436 7.624 2.5 10.3583 2.5 13.5003C2.5 18.747 6.75329 23.0003 12 23.0003C17.2467 23.0003 21.5 18.747 21.5 13.5003C21.5 10.3583 19.7564 7.624 17.9177 5.59801C16.0619 3.55333 13.9818 2.08934 13.041 1.47417ZM7.56334 6.94213C9.22344 5.11298 11.1036 3.77343 12 3.18321C12.8964 3.77343 14.7766 5.11298 16.4367 6.94213C18.1475 8.8272 19.5 11.0944 19.5 13.5003C19.5 13.519 19.4999 13.5378 19.4998 13.5565C18.1831 14.2685 15.5835 14.8633 12.3517 13.048C9.28626 11.3261 6.63436 11.0837 4.85285 11.3332C5.36315 9.73988 6.3771 8.24916 7.56334 6.94213Z" fill="#141B34"/>
</svg>
