<svg width="24" height="24" viewBox="0 0 24 24" fill="none" xmlns="http://www.w3.org/2000/svg">
<path fill-rule="evenodd" clip-rule="evenodd" d="M8.00792 3.89153C8.19656 2.38245 9.47938 1.25 11.0002 1.25C12.521 1.25 13.8038 2.38245 13.9925 3.89153L14.1742 5.34496C14.2674 6.09102 13.6857 6.75 12.9338 6.75H9.06659C8.31472 6.75 7.73298 6.09102 7.82624 5.34496L8.00792 3.89153ZM11.0002 2.75C10.2359 2.75 9.59114 3.31915 9.49634 4.07758L9.34979 5.25H12.6506L12.5041 4.07758C12.4093 3.31915 11.7645 2.75 11.0002 2.75Z" fill="#141B34"/>
<path d="M12.7046 3.50087C12.8469 3.34127 13.0506 3.25 13.2644 3.25L17.5 3.25006C19.0188 3.25006 20.25 4.48128 20.25 6.00006V12.3859C19.4201 11.9787 18.4868 11.75 17.5 11.75C15.9128 11.75 14.4637 12.3417 13.3614 13.3165C13.5717 12.9237 13.6906 12.4743 13.6906 12C13.6906 10.5003 12.5018 9.25 10.9934 9.25C9.48501 9.25 8.29621 10.5003 8.29621 12C8.29621 13.4997 9.48501 14.75 10.9934 14.75C11.5339 14.75 12.0333 14.5895 12.4517 14.3145C12.1242 14.7624 11.8548 15.2555 11.6547 15.7827C9.94359 15.5989 8.15454 16.1925 6.95033 17.4898C6.74741 17.7084 6.69331 18.0264 6.81256 18.2998C6.93181 18.5732 7.20174 18.75 7.50002 18.75H11.2945C11.4854 20.3458 12.2775 21.7568 13.4379 22.7501H4.5C2.98122 22.7501 1.75 21.5188 1.75 20.0001V6.00006C1.75 4.48128 2.98122 3.25006 4.5 3.25006H8.73828C8.95235 3.25006 9.15622 3.34154 9.29854 3.50145C9.44086 3.66137 9.50806 3.87448 9.48321 4.08711L9.34732 5.25006H12.6532L12.5193 4.08566C12.4949 3.87323 12.5623 3.66047 12.7046 3.50087Z" fill="#141B34"/>
<path fill-rule="evenodd" clip-rule="evenodd" d="M17.5 13.25C14.8766 13.25 12.75 15.3766 12.75 18C12.75 20.6234 14.8766 22.75 17.5 22.75C20.1234 22.75 22.25 20.6234 22.25 18C22.25 15.3766 20.1234 13.25 17.5 13.25ZM19.5303 17.5303C19.8232 17.2374 19.8232 16.7626 19.5303 16.4697C19.2374 16.1768 18.7626 16.1768 18.4697 16.4697L17 17.9393L16.5303 17.4697C16.2374 17.1768 15.7626 17.1768 15.4697 17.4697C15.1768 17.7626 15.1768 18.2374 15.4697 18.5303L16.4697 19.5303C16.7626 19.8232 17.2374 19.8232 17.5303 19.5303L19.5303 17.5303Z" fill="#141B34"/>
</svg>
