<svg width="24" height="24" viewBox="0 0 24 24" fill="none" xmlns="http://www.w3.org/2000/svg">
<path fill-rule="evenodd" clip-rule="evenodd" d="M12 1C12.5523 1 13 1.44772 13 2V2.5C13 3.05228 12.5523 3.5 12 3.5C11.4477 3.5 11 3.05228 11 2.5V2C11 1.44772 11.4477 1 12 1ZM19.4239 4.07538C19.8145 4.4659 19.8145 5.09907 19.4239 5.48959L19.0704 5.84315C18.6799 6.23367 18.0467 6.23367 17.6562 5.84315C17.2656 5.45262 17.2656 4.81946 17.6562 4.42893L18.0097 4.07538C18.4003 3.68485 19.0334 3.68485 19.4239 4.07538ZM4.5761 4.07608C4.96662 3.68556 5.59979 3.68556 5.99031 4.07608L6.34386 4.42963C6.73439 4.82016 6.73439 5.45332 6.34386 5.84385C5.95334 6.23437 5.32017 6.23437 4.92965 5.84385L4.5761 5.49029C4.18557 5.09977 4.18557 4.46661 4.5761 4.07608ZM1.5 11.5C1.5 10.9477 1.94772 10.5 2.5 10.5H3C3.55228 10.5 4 10.9477 4 11.5C4 12.0523 3.55228 12.5 3 12.5H2.5C1.94772 12.5 1.5 12.0523 1.5 11.5ZM20 11.5C20 10.9477 20.4477 10.5 21 10.5H21.5C22.0523 10.5 22.5 10.9477 22.5 11.5C22.5 12.0523 22.0523 12.5 21.5 12.5H21C20.4477 12.5 20 12.0523 20 11.5ZM6.20711 17.2929C6.59763 17.6834 6.59763 18.3166 6.20711 18.7071L5.70711 19.2071C5.31658 19.5976 4.68342 19.5976 4.29289 19.2071C3.90237 18.8166 3.90237 18.1834 4.29289 17.7929L4.79289 17.2929C5.18342 16.9024 5.81658 16.9024 6.20711 17.2929ZM17.7929 17.2929C18.1834 16.9024 18.8166 16.9024 19.2071 17.2929L19.7071 17.7929C20.0976 18.1834 20.0976 18.8166 19.7071 19.2071C19.3166 19.5976 18.6834 19.5976 18.2929 19.2071L17.7929 18.7071C17.4024 18.3166 17.4024 17.6834 17.7929 17.2929Z" fill="#141B34"/>
<path d="M9.25 20.2578V21.0004C9.25 21.9669 10.0335 22.7504 11 22.7504H13C13.9665 22.7504 14.75 21.9669 14.75 21.0004V20.2578L9.25 20.2578Z" fill="#141B34"/>
<path d="M4.75 11.5C4.75 7.49594 7.99594 4.25 12 4.25C16.0041 4.25 19.25 7.49594 19.25 11.5C19.25 14.1357 17.8466 16.1788 15.8045 17.4084C15.704 17.4689 15.6548 17.5503 15.6416 17.6165L15.3962 18.8432C15.367 18.9893 15.3201 19.128 15.258 19.2574L8.74198 19.2574C8.6799 19.128 8.633 18.9893 8.60379 18.8432L8.35845 17.6165C8.3452 17.5503 8.29603 17.4689 8.19554 17.4084C6.15336 16.1788 4.75 14.1357 4.75 11.5Z" fill="#141B34"/>
</svg>
