<svg width="24" height="24" viewBox="0 0 24 24" fill="none" xmlns="http://www.w3.org/2000/svg">
<path fill-rule="evenodd" clip-rule="evenodd" d="M5.5059 7.83974C5.34169 8.1922 5.25 8.58526 5.25 8.99974V19.0001C5.25 20.5189 6.48122 21.7501 8 21.7501H20C21.5188 21.7501 22.75 20.5189 22.75 19.0001V9.00008C22.75 7.48131 21.5188 6.2501 20 6.25008L12.8743 6.24988L12.9406 6.51497C13.2023 7.56146 12.587 8.62695 11.5498 8.92327L8.04939 9.92327C6.98731 10.2267 5.88036 9.61168 5.57694 8.5496C5.50908 8.31206 5.48716 8.07227 5.5059 7.83974ZM11.4922 10.4901C12.0445 10.4901 12.4922 10.9378 12.4922 11.4901V11.5001C12.4922 12.0524 12.0445 12.5001 11.4922 12.5001C10.9399 12.5001 10.4922 12.0524 10.4922 11.5001V11.4901C10.4922 10.9378 10.9399 10.4901 11.4922 10.4901ZM17 12.9999L12.5 17.4999L10 14.9999L6.75 18.2499V19.0002C6.75 19.6906 7.30964 20.2502 8 20.2502H20C20.6904 20.2502 21.25 19.6906 21.25 19.0002V17.2499L17 12.9999Z" fill="#141B34"/>
<path fill-rule="evenodd" clip-rule="evenodd" d="M9.81804 2.27246C10.2199 2.17197 10.6271 2.41625 10.7276 2.81809L11.728 6.81809C11.8261 7.21053 11.5953 7.61008 11.2064 7.7212L7.70602 8.7212C7.30774 8.83499 6.89263 8.60436 6.77885 8.20608C6.66507 7.8078 6.8957 7.39269 7.29398 7.27891L9.58331 6.62488C8.86703 6.0757 7.9716 5.75006 7 5.75006C4.65279 5.75006 2.75 7.65284 2.75 10.0001C2.75 10.9579 3.06595 11.8397 3.59962 12.55C3.84843 12.8812 3.78167 13.3514 3.45051 13.6002C3.11935 13.849 2.64919 13.7822 2.40038 13.451C1.67823 12.4899 1.25 11.2939 1.25 10.0001C1.25 6.82442 3.82436 4.25006 7 4.25006C7.97949 4.25006 8.90179 4.49518 9.70881 4.92699L9.27241 3.18202C9.17191 2.78018 9.4162 2.37296 9.81804 2.27246Z" fill="#141B34"/>
</svg>
