<svg width="24" height="24" viewBox="0 0 24 24" fill="none" xmlns="http://www.w3.org/2000/svg">
<path fill-rule="evenodd" clip-rule="evenodd" d="M14.7272 3.18202C14.8277 2.78018 14.5834 2.37296 14.1816 2.27246C13.7797 2.17197 13.3725 2.41625 13.272 2.81809L12.2717 6.81809C12.1735 7.21053 12.4043 7.61008 12.7932 7.7212L16.2936 8.7212C16.6919 8.83499 17.107 8.60436 17.2208 8.20608C17.3345 7.8078 17.1039 7.39269 16.7056 7.27891L14.4163 6.62488C15.1326 6.0757 16.028 5.75006 16.9996 5.75006C19.3468 5.75006 21.2496 7.65284 21.2496 10.0001C21.2496 10.9579 20.9337 11.8397 20.4 12.55C20.1512 12.8812 20.2179 13.3514 20.5491 13.6002C20.8803 13.849 21.3504 13.7822 21.5992 13.451C22.3214 12.4899 22.7496 11.2939 22.7496 10.0001C22.7496 6.82442 20.1752 4.25006 16.9996 4.25006C16.0201 4.25006 15.0978 4.49518 14.2908 4.92699L14.7272 3.18202ZM3.99916 6.24988L11.1255 6.25008L11.0593 6.51511C10.7975 7.5616 11.4129 8.6271 12.4501 8.92341L15.9505 9.92341C17.0126 10.2268 18.1195 9.61182 18.4229 8.54974C18.4906 8.31304 18.5126 8.07412 18.4942 7.84236C18.6578 8.19427 18.7491 8.58659 18.7491 9.00023V19.0002C18.7491 20.519 17.5179 21.7502 15.9991 21.7502H3.99908C2.4803 21.7502 1.24908 20.519 1.24908 19.0002V8.99988C1.24908 7.48107 2.48035 6.24983 3.99916 6.24988ZM8.49127 11.4901C8.49127 10.9378 8.04356 10.4901 7.49127 10.4901C6.93899 10.4901 6.49127 10.9378 6.49127 11.4901V11.5001C6.49127 12.0524 6.93899 12.5001 7.49127 12.5001C8.04356 12.5001 8.49127 12.0524 8.49127 11.5001V11.4901ZM8.49908 17.4999L12.9991 12.9999L17.2491 17.2499V19.0002C17.2491 19.6906 16.6894 20.2502 15.9991 20.2502H3.99908C3.30873 20.2502 2.74908 19.6906 2.74908 19.0002V18.2499L5.99908 14.9999L8.49908 17.4999Z" fill="#141B34"/>
</svg>
