<svg width="24" height="24" viewBox="0 0 24 24" fill="none" xmlns="http://www.w3.org/2000/svg">
<path fill-rule="evenodd" clip-rule="evenodd" d="M8.7 10C7.72979 10 7 10.7507 7 12C7 13.2493 7.72979 14 8.7 14C8.81663 14 9.0241 13.9422 9.32676 13.7223C9.61968 13.5094 9.91942 13.2041 10.1995 12.8641C10.4513 12.5585 10.6679 12.2487 10.8297 12C10.6679 11.7513 10.4513 11.4415 10.1995 11.1359C9.91942 10.7959 9.61968 10.4906 9.32676 10.2777C9.0241 10.0578 8.81663 10 8.7 10ZM13.1703 12C13.3321 12.2487 13.5487 12.5585 13.8005 12.8641C14.0806 13.2041 14.3803 13.5094 14.6732 13.7223C14.9759 13.9422 15.1834 14 15.3 14C16.2702 14 17 13.2493 17 12C17 10.7507 16.2702 10 15.3 10C15.1834 10 14.9759 10.0578 14.6732 10.2777C14.3803 10.4906 14.0806 10.7959 13.8005 11.1359C13.5487 11.4415 13.3321 11.7513 13.1703 12ZM12 13.811C11.9189 13.9177 11.8331 14.0266 11.7431 14.1359C11.4053 14.5459 10.9836 14.9906 10.5025 15.3402C10.031 15.6828 9.4118 16 8.7 16C6.3565 16 5 14.0644 5 12C5 9.93556 6.3565 8 8.7 8C9.4118 8 10.031 8.31721 10.5025 8.65978C10.9836 9.00942 11.4053 9.45412 11.7431 9.86414C11.8331 9.97341 11.9189 10.0823 12 10.189C12.0811 10.0823 12.1669 9.97341 12.2569 9.86414C12.5947 9.45412 13.0164 9.00942 13.4975 8.65978C13.969 8.31721 14.5882 8 15.3 8C17.6435 8 19 9.93556 19 12C19 14.0644 17.6435 16 15.3 16C14.5882 16 13.969 15.6828 13.4975 15.3402C13.0164 14.9906 12.5947 14.5459 12.2569 14.1359C12.1669 14.0266 12.0811 13.9177 12 13.811Z" fill="#141B34"/>
<path fill-rule="evenodd" clip-rule="evenodd" d="M1 5C1 3.34315 2.34315 2 4 2H5.5C6.05228 2 6.5 2.44772 6.5 3C6.5 3.55228 6.05228 4 5.5 4H4C3.44772 4 3 4.44772 3 5V19C3 19.5523 3.44772 20 4 20H5.5C6.05228 20 6.5 20.4477 6.5 21C6.5 21.5523 6.05228 22 5.5 22H4C2.34315 22 1 20.6569 1 19V5ZM17.5 2.99999C17.5 2.44771 17.9477 2 18.5 2L20 2.00001C21.6569 2.00003 23 3.34317 23 5.00001V19C23 20.6569 21.6569 22 20 22H18.5C17.9477 22 17.5 21.5523 17.5 21C17.5 20.4477 17.9477 20 18.5 20H20C20.5523 20 21 19.5523 21 19V5.00001C21 4.44773 20.5523 4.00002 20 4.00001L18.5 4C17.9477 4 17.5 3.55228 17.5 2.99999Z" fill="#141B34"/>
</svg>
