<svg width="24" height="24" viewBox="0 0 24 24" fill="none" xmlns="http://www.w3.org/2000/svg">
<path fill-rule="evenodd" clip-rule="evenodd" d="M12 1.25C9.65279 1.25 7.75 3.15279 7.75 5.5C7.75 7.5913 9.26049 9.3298 11.25 9.68403L11.25 13H10.478C9.20865 13 8.07666 13.7989 7.6514 14.995L7.17491 16.3351C6.33668 16.5488 5.63222 17.1507 5.30103 17.9787L4.35248 20.3501C3.89267 21.4996 4.73925 22.75 5.97731 22.75L18.0232 22.75C19.2613 22.75 20.1079 21.4996 19.6481 20.3501L18.6995 17.9787C18.3682 17.1504 17.6633 16.5483 16.8247 16.3349L16.3483 14.995C15.923 13.7989 14.791 13 13.5216 13H12.75L12.75 9.68403C14.7395 9.3298 16.25 7.5913 16.25 5.5C16.25 3.15279 14.3472 1.25 12 1.25ZM14.6718 16.25L14.4638 15.665C14.3221 15.2663 13.9447 15 13.5216 15H10.478C10.0549 15 9.67758 15.2663 9.53583 15.665L9.32783 16.25H14.6718Z" fill="#141B34"/>
</svg>
