<svg width="24" height="24" viewBox="0 0 24 24" fill="none" xmlns="http://www.w3.org/2000/svg">
<path fill-rule="evenodd" clip-rule="evenodd" d="M4.5 1.75C2.98122 1.75 1.75 2.98122 1.75 4.5L1.75 19.5C1.75 21.0188 2.98122 22.25 4.5 22.25L19.5 22.25C21.0188 22.25 22.25 21.0188 22.25 19.5L22.25 4.5C22.25 2.98122 21.0188 1.75 19.5 1.75L4.5 1.75ZM8 11.25C8.41421 11.25 8.75 11.5858 8.75 12V16.5C8.75 17.7426 7.74264 18.75 6.5 18.75C5.25736 18.75 4.25 17.7426 4.25 16.5V16C4.25 15.5858 4.58579 15.25 5 15.25C5.41421 15.25 5.75 15.5858 5.75 16V16.5C5.75 16.9142 6.08579 17.25 6.5 17.25C6.91421 17.25 7.25 16.9142 7.25 16.5L7.25 12C7.25 11.5858 7.58579 11.25 8 11.25ZM15.1222 11.3523C15.48 11.1436 15.9392 11.2644 16.148 11.6222L17.2501 13.5116L18.3523 11.6222C18.561 11.2644 19.0202 11.1436 19.378 11.3523C19.7358 11.561 19.8567 12.0202 19.648 12.378L18.1184 15.0001L19.648 17.6222C19.8567 17.98 19.7358 18.4392 19.378 18.648C19.0202 18.8567 18.561 18.7358 18.3523 18.378L17.2501 16.4886L16.148 18.378C15.9392 18.7358 15.48 18.8567 15.1222 18.648C14.7644 18.4392 14.6436 17.98 14.8523 17.6222L16.3818 15.0001L14.8523 12.378C14.6436 12.0202 14.7644 11.561 15.1222 11.3523ZM9.75 13.0002C9.75 12.0337 10.5335 11.2502 11.5 11.2502L13.5 11.2502C13.9142 11.2502 14.25 11.586 14.25 12.0002C14.25 12.4145 13.9142 12.7502 13.5 12.7502L11.5 12.7502C11.3619 12.7502 11.25 12.8622 11.25 13.0002V14.0002C11.25 14.1383 11.3619 14.2502 11.5 14.2502H12.5C13.4665 14.2502 14.25 15.0337 14.25 16.0002V17.0002C14.25 17.9667 13.4665 18.7502 12.5 18.7502H10.5C10.0858 18.7502 9.75 18.4145 9.75 18.0002C9.75 17.586 10.0858 17.2502 10.5 17.2502H12.5C12.6381 17.2502 12.75 17.1383 12.75 17.0002V16.0002C12.75 15.8622 12.6381 15.7502 12.5 15.7502H11.5C10.5335 15.7502 9.75 14.9667 9.75 14.0002V13.0002Z" fill="#141B34"/>
</svg>
