<svg width="24" height="24" viewBox="0 0 24 24" fill="none" xmlns="http://www.w3.org/2000/svg">
<path d="M8 16.5C9.10457 16.5 10 15.8284 10 15C10 14.1716 9.10457 13.5 8 13.5C6.89543 13.5 6 14.1716 6 15C6 15.8284 6.89543 16.5 8 16.5Z" fill="#141B34"/>
<path fill-rule="evenodd" clip-rule="evenodd" d="M12 1.25C9.27573 1.25 6.78606 2.26464 4.89196 3.93521C3.41374 5.23898 2.29578 6.94417 1.7093 8.88237C1.41037 9.8703 1.25 10.9173 1.25 12C1.25 16.0281 3.46596 19.5374 6.74067 21.3776C8.29634 22.2518 10.0915 22.75 12 22.75C16.5121 22.75 20.3727 19.9704 21.9673 16.0338C22.4723 14.7869 22.75 13.4247 22.75 12C22.75 11.7467 22.7412 11.4953 22.7239 11.2461C22.6563 10.2707 22.4583 9.33016 22.1471 8.44244C20.6791 4.25505 16.6917 1.25 12 1.25ZM17.0021 8.11554L17.0021 8.11554C17.8429 8.74574 18.8743 9.51891 20.4912 9.70281C20.5854 10.0522 20.6587 10.4103 20.7096 10.7758C18.6357 11.8935 17.1303 12.1671 15.6543 11.936C13.9681 11.672 12.1949 10.7392 9.55918 9.20169C7.67401 8.10201 5.85227 7.77137 4.21991 7.89106C4.59809 7.17681 5.072 6.52055 5.62476 5.93945C6.82548 6.74245 9.00795 7.80413 12.2111 7.09064C13.4459 6.81559 14.2931 6.84452 14.925 6.99364C15.5559 7.14252 16.0496 7.42847 16.5733 7.79971C16.7118 7.89788 16.854 8.00449 17.0021 8.11554ZM15.352 13.867C17.1102 14.1423 18.805 13.849 20.7439 12.9457C20.6794 13.5503 20.5537 14.136 20.3733 14.6968C17.0016 14.7706 14.0921 15.4567 10.9678 17.5395C9.6636 18.409 8.41471 19.0226 7.31604 19.4473C4.84311 17.8889 3.20313 15.1356 3.20313 12.0004C3.20313 11.3014 3.28446 10.6226 3.43786 9.97233C4.91613 9.65757 6.67414 9.78153 8.57434 10.89C11.1523 12.3938 13.2407 13.5365 15.352 13.867Z" fill="#141B34"/>
</svg>
