<svg width="24" height="24" viewBox="0 0 24 24" fill="none" xmlns="http://www.w3.org/2000/svg">
<path fill-rule="evenodd" clip-rule="evenodd" d="M16.376 4.21864C16.8075 3.87398 17.4367 3.9444 17.7814 4.37593L22.3327 10.0743C23.2225 11.1883 23.2225 12.8117 22.3327 13.9257L17.7814 19.6241C17.4367 20.0556 16.8075 20.126 16.376 19.7814C15.9444 19.4367 15.874 18.8075 16.2187 18.3759L20.77 12.6775C21.0767 12.2935 21.0767 11.7065 20.77 11.3225L16.2187 5.62408C15.874 5.19255 15.9444 4.56331 16.376 4.21864ZM10.0044 5.20989C8.95061 3.93 7.05247 3.93 5.99866 5.20989C5.98424 5.22741 5.97062 5.24557 5.95784 5.26432L5.05139 6.35596C5.00453 6.4124 5.04611 6.50097 5.11946 6.50097C6.37727 6.50097 7.50232 7.61926 7.50232 8.99997V9.29997C7.50232 9.41043 7.59186 9.49997 7.70232 9.49997H8.00232C9.38303 9.49997 10.5023 10.6193 10.5023 12C10.5023 13.3662 9.40642 14.4764 8.04574 14.4996L8.01808 14.4999L8.00191 14.5H7.70232C7.59186 14.5 7.50232 14.5895 7.50232 14.7V15C7.50232 16.3807 6.30306 17.499 5.10426 17.499C5.03682 17.499 4.9986 17.5804 5.04168 17.6323L5.95784 18.7356C5.97062 18.7544 5.98424 18.7725 5.99866 18.7901C7.05247 20.0699 8.95061 20.0699 10.0044 18.7901L14.1124 13.8007C14.9646 12.7657 14.9646 11.2342 14.1124 10.1992L10.0044 5.20989ZM6 9C6 8.44772 5.55228 8 5 8C4.44772 8 4 8.44772 4 9V11H2C1.44772 11 1 11.4477 1 12C1 12.5523 1.44772 13 2 13H4V15C4 15.5523 4.44772 16 5 16C5.55228 16 6 15.5523 6 15V13H8C8.55228 13 9 12.5523 9 12C9 11.4477 8.55228 11 8 11H6V9ZM13.7814 4.37593C13.4367 3.9444 12.8075 3.87398 12.376 4.21864C11.9444 4.56331 11.874 5.19255 12.2187 5.62408L16.77 11.3225C17.0767 11.7065 17.0767 12.2935 16.77 12.6775L12.2187 18.3759C11.874 18.8075 11.9444 19.4367 12.376 19.7814C12.8075 20.126 13.4367 20.0556 13.7814 19.6241L18.3327 13.9257C19.2225 12.8117 19.2225 11.1883 18.3327 10.0743L13.7814 4.37593Z" fill="#141B34"/>
</svg>
