<svg width="24" height="24" viewBox="0 0 24 24" fill="none" xmlns="http://www.w3.org/2000/svg">
<path fill-rule="evenodd" clip-rule="evenodd" d="M11.1474 1.50277C11.25 1.55998 11.25 1.71515 11.25 2.02549V4.92665C11.25 5.06654 11.25 5.13648 11.2165 5.18685C11.1829 5.23721 11.112 5.26682 10.9701 5.32603L10.9701 5.32603C10.8834 5.36223 10.8009 5.40025 10.7226 5.43632L10.7226 5.43632L10.6998 5.44683C10.3203 5.62154 9.86737 5.8717 9.4955 6.20976C9.18901 6.48839 9.16642 6.96273 9.44505 7.26922C9.72368 7.57572 10.198 7.5983 10.5045 7.31967C10.5634 7.26615 10.6291 7.21397 10.7 7.16341C10.9222 7.00513 11.0332 6.92599 11.1416 6.98185C11.25 7.0377 11.25 7.18564 11.25 7.48153V10.7644C11.25 11.1786 11.5858 11.5144 12 11.5144C12.4142 11.5144 12.75 11.1786 12.75 10.7644V7.48153C12.75 7.18564 12.75 7.0377 12.8584 6.98185C12.9668 6.92599 13.0778 7.00513 13.3 7.16341C13.3709 7.21397 13.4366 7.26614 13.4955 7.31967C13.802 7.5983 14.2763 7.57572 14.555 7.26922C14.8336 6.96273 14.811 6.48839 14.5045 6.20976C14.1326 5.8717 13.6797 5.62153 13.3002 5.44683L13.2774 5.43632L13.2774 5.4363C13.1991 5.40024 13.1166 5.36223 13.0299 5.32603C12.888 5.26682 12.8171 5.23721 12.7836 5.18684C12.75 5.13648 12.75 5.06654 12.75 4.92665V2.02544C12.75 1.7151 12.75 1.55993 12.8526 1.50273C12.9552 1.44552 13.0857 1.52618 13.3467 1.6875C17.3513 4.16251 20.7969 7.78333 22.7116 13.5272C22.8129 13.8311 22.7099 14.1659 22.4553 14.3604C22.2007 14.5549 21.8506 14.5661 21.584 14.3884C20.1539 13.435 18.5278 12.7504 16.9466 12.6375C15.7077 12.549 14.4838 12.8083 13.3635 13.5921C13.5133 13.7439 13.6396 13.9147 13.7452 14.0907C14.0653 14.6242 14.2593 15.3018 14.4133 15.8872C14.446 16.0114 14.477 16.1319 14.5071 16.2488L14.5071 16.2489L14.5072 16.2489C14.6304 16.7277 14.738 17.1455 14.8774 17.4968C15.0612 17.9601 15.2033 18.0426 15.2378 18.0541C15.6307 18.1851 15.8431 18.6098 15.7121 19.0028C15.5811 19.3958 15.1564 19.6081 14.7634 19.4771C14.0479 19.2386 13.6899 18.5711 13.4831 18.0501C13.3052 17.6016 13.1675 17.0649 13.0432 16.5803L13.0431 16.5799C13.0158 16.4732 12.9891 16.3691 12.9627 16.269L12.9476 16.2116C12.8092 16.8857 12.5602 17.4963 12.3441 18.0264L12.344 18.0266C12.3048 18.1228 12.2666 18.2163 12.2304 18.307C11.9711 18.9574 11.8054 19.4557 11.8053 19.9116C11.8052 20.312 11.9345 20.7371 12.4343 21.2334C12.7282 21.5253 12.7299 22.0002 12.438 22.2941C12.1462 22.588 11.6713 22.5897 11.3774 22.2978C10.6184 21.5441 10.305 20.7446 10.3053 19.9111C10.3055 19.1331 10.5832 18.3882 10.8372 17.7514C10.8657 17.6799 10.894 17.6092 10.9221 17.5392C11.3225 16.5412 11.6594 15.7013 11.5281 14.8046C10.9042 15.0944 10.2663 15.4184 9.74099 15.8189C9.00392 16.3808 8.66106 16.9571 8.76562 17.6544C8.82703 18.0641 8.54474 18.4459 8.13511 18.5073C7.72547 18.5688 7.34361 18.2865 7.2822 17.8768C7.05973 16.393 7.90079 15.3356 8.83158 14.626C9.38167 14.2066 10.0232 13.8613 10.6144 13.5767C9.50013 12.8049 8.28423 12.5495 7.05348 12.6375C5.47226 12.7504 3.84624 13.435 2.41607 14.3884C2.14948 14.5661 1.79943 14.5549 1.5448 14.3604C1.29017 14.1659 1.18721 13.8311 1.28853 13.5272C3.20314 7.78337 6.64879 4.16256 10.6533 1.68755C10.9143 1.52623 11.0448 1.44557 11.1474 1.50277Z" fill="#141B34"/>
</svg>
