<svg width="24" height="24" viewBox="0 0 24 24" fill="none" xmlns="http://www.w3.org/2000/svg">
<path fill-rule="evenodd" clip-rule="evenodd" d="M11.75 1C5.81294 1 1 5.81294 1 11.75C1 17.6871 5.81294 22.5 11.75 22.5C17.6871 22.5 22.5 17.6871 22.5 11.75C22.5 5.81294 17.6871 1 11.75 1ZM12 6.75C12 6.33579 11.6642 6 11.25 6C10.8358 6 10.5 6.33579 10.5 6.75V7.5H6.75C6.33579 7.5 6 7.83579 6 8.25C6 8.66421 6.33579 9 6.75 9H13.2443C12.8773 9.95351 12.2259 11.0882 11.4023 12.2341C10.9624 11.5977 10.6159 10.9759 10.4615 10.5128C10.3305 10.1199 9.90579 9.9075 9.51283 10.0385C9.11987 10.1695 8.9075 10.5942 9.03849 10.9872C9.29097 11.7446 9.84269 12.659 10.4455 13.4746C9.5781 14.5256 8.64174 15.4761 7.78148 16.1643C7.45803 16.4231 7.40559 16.8951 7.66435 17.2185C7.92311 17.542 8.39507 17.5944 8.71852 17.3357C9.60693 16.6249 10.5435 15.685 11.4139 14.6551C11.5529 14.8068 11.6914 14.9505 11.8275 15.0834C12.1787 15.4265 12.5583 15.7427 12.9146 15.9208C13.2851 16.1061 13.7356 15.9559 13.9208 15.5854C14.1061 15.2149 13.9559 14.7644 13.5854 14.5792C13.4417 14.5073 13.1963 14.3235 12.8756 14.0103C12.7104 13.849 12.5367 13.6646 12.3606 13.4641C12.4445 13.3516 12.5272 13.2388 12.6087 13.1257C13.5932 11.7583 14.4361 10.2841 14.8311 9H16.75C17.1642 9 17.5 8.66421 17.5 8.25C17.5 7.83579 17.1642 7.5 16.75 7.5H12V6.75Z" fill="#141B34"/>
</svg>
