<svg width="24" height="24" viewBox="0 0 24 24" fill="none" xmlns="http://www.w3.org/2000/svg">
<path fill-rule="evenodd" clip-rule="evenodd" d="M6.00027 1.75C4.48148 1.75 3.25027 2.98122 3.25027 4.5V4.63576C3.25009 4.64904 3.25 4.66235 3.25 4.67568V13.8683L1.42928 18.8622C1.08115 19.7036 1.26532 20.5727 1.76359 21.2091C2.26101 21.8445 3.06562 22.25 3.97916 22.25H20.0214C20.9349 22.25 21.7395 21.8445 22.2369 21.2091C22.7352 20.5727 22.9194 19.7036 22.5712 18.8622L20.757 13.8861V4.67568C20.757 4.60777 20.7547 4.54042 20.7501 4.47371C20.736 2.96703 19.5103 1.75 18.0003 1.75H17.8186H6.18838H6.00027ZM5.25 4.67568C5.25 4.17063 5.66392 3.75 6.18838 3.75H17.8186C18.3431 3.75 18.757 4.17063 18.757 4.67568V12.8227H5.25V4.67568Z" fill="#141B34"/>
<path fill-rule="evenodd" clip-rule="evenodd" d="M11 6.0127C11 5.46041 11.4457 5.0127 11.9955 5.0127H12.0045C12.5543 5.0127 13 5.46041 13 6.0127C13 6.56498 12.5543 7.0127 12.0045 7.0127H11.9955C11.4457 7.0127 11 6.56498 11 6.0127Z" fill="#141B34"/>
</svg>
