<svg width="24" height="24" viewBox="0 0 24 24" fill="none" xmlns="http://www.w3.org/2000/svg">
<path fill-rule="evenodd" clip-rule="evenodd" d="M14.1279 1.57347C13.9824 1.36302 13.7396 1.24127 13.4839 1.25049L13.4827 1.25054L13.3622 1.25889C13.2954 1.26501 13.2037 1.27545 13.0929 1.29322C12.8724 1.32855 12.5697 1.39391 12.2343 1.5154C11.5682 1.75674 10.7214 2.24026 10.1839 3.1994C9.64186 4.16642 9.69658 5.11222 9.87257 5.78528C9.96027 6.12069 10.0797 6.39699 10.1777 6.59089C10.186 6.60735 10.1942 6.62326 10.2022 6.63862C9.74957 7.39814 9.30429 8.36714 9.02857 9.43175C8.8435 9.24695 8.63073 9.07419 8.38634 8.92054C7.6599 8.46383 6.71256 8.21281 5.50402 8.25448C5.13974 8.26704 4.83723 8.5397 4.78702 8.90072L4.76325 9.14841C4.75348 9.29212 4.74572 9.49283 4.75265 9.73036C4.76629 10.1986 4.83782 10.8436 5.08793 11.4835C5.34103 12.1312 5.7879 12.7979 6.55729 13.2425C7.23063 13.6315 8.08329 13.8112 9.13723 13.7312C9.5667 14.8769 10.3865 15.955 11.7578 16.8215C11.9099 16.9176 12.0578 17.0117 12.2018 17.1037C11.4702 17.3416 10.7199 17.8131 9.96572 18.5786C9.71166 18.8365 9.67808 19.2391 9.88591 19.5355L9.93031 19.5961C9.95509 19.6289 9.98981 19.6736 10.034 19.7275C10.1222 19.8348 10.2494 19.9801 10.4121 20.1405C10.7327 20.4564 11.2151 20.8548 11.8296 21.1212C12.4546 21.3922 13.2262 21.5294 14.0792 21.2922C14.786 21.0956 15.4895 20.6584 16.1781 19.9337C16.3479 20.082 16.4975 20.221 16.63 20.3525C17.3747 21.092 17.5684 21.5818 17.7889 22.2387C17.9207 22.6314 18.3459 22.8428 18.7386 22.711C19.1313 22.5792 19.3427 22.154 19.2109 21.7613C18.9436 20.9651 18.6494 20.2439 17.6869 19.2881C17.4593 19.0622 17.1943 18.8229 16.8834 18.5648C17.4146 17.7022 17.6427 16.899 17.615 16.1567C17.5831 15.3057 17.2187 14.6353 16.7821 14.1403C16.3519 13.6527 15.8388 13.3185 15.451 13.1097C15.2541 13.0036 15.0815 12.9256 14.956 12.8734C14.893 12.8472 14.8414 12.8272 14.8037 12.8132C14.7849 12.8062 14.7695 12.8007 14.758 12.7966L14.7435 12.7916L14.7385 12.7899L14.7365 12.7893L14.735 12.7887C14.3937 12.6747 14.0195 12.8192 13.8434 13.1329C13.2768 14.1422 13.0663 15.0554 13.1274 15.8714C13.1285 15.8869 13.1298 15.9023 13.1311 15.9176C12.9465 15.7992 12.7559 15.6779 12.5591 15.5535C11.5351 14.9065 10.9164 14.1329 10.5807 13.3055C11.312 13.2745 11.9295 13.0996 12.4427 12.803C13.2121 12.3585 13.659 11.6917 13.9121 11.0441C14.1622 10.4041 14.2337 9.75916 14.2474 9.2909C14.2543 9.05338 14.2465 8.85266 14.2368 8.70896C14.2319 8.63692 14.2264 8.57866 14.222 8.53667L14.213 8.46127C14.1628 8.10024 13.8603 7.82759 13.496 7.81503C12.5145 7.78119 11.7054 7.94037 11.0468 8.24599C11.2345 7.84379 11.4391 7.47757 11.6414 7.16294C11.8239 7.12403 12.0371 7.06733 12.2654 6.9846C12.9315 6.74326 13.7783 6.25974 14.3159 5.3006C14.8579 4.33358 14.8032 3.38778 14.6272 2.71472C14.5395 2.37931 14.4201 2.10302 14.3221 1.90911C14.2727 1.81156 14.228 1.73313 14.1938 1.67661L14.1279 1.57347Z" fill="#141B34"/>
</svg>
