<svg width="24" height="24" viewBox="0 0 24 24" fill="none" xmlns="http://www.w3.org/2000/svg">
<path fill-rule="evenodd" clip-rule="evenodd" d="M21.25 4V17.7143L4.8605 1.32478C5.06575 1.27588 5.27992 1.25 5.50014 1.25H18.5C20.0188 1.25 21.25 2.48122 21.25 4ZM2.75014 3.99998C2.75014 3.63017 2.82314 3.27741 2.95551 2.95532L11.0002 11H8.5C7.94772 11 7.5 11.4477 7.5 12C7.5 12.5523 7.94772 13 8.5 13H12C12.2762 13 12.5262 12.888 12.7072 12.707L16.0002 16H8.5C7.94772 16 7.5 16.4477 7.5 17C7.5 17.5523 7.94772 18 8.5 18H16.5C16.9056 18 17.2548 17.7585 17.4117 17.4115L21.0447 21.0445C20.6335 22.0453 19.649 22.75 18.5 22.75H5.5C3.98121 22.75 2.74999 21.5188 2.75 20L2.75014 3.99998Z" fill="#141B34"/>
<path fill-rule="evenodd" clip-rule="evenodd" d="M1.29289 1.29289C1.68342 0.902369 2.31658 0.902369 2.70711 1.29289L22.7071 21.2929C23.0976 21.6834 23.0976 22.3166 22.7071 22.7071C22.3166 23.0976 21.6834 23.0976 21.2929 22.7071L1.29289 2.70711C0.902369 2.31658 0.902369 1.68342 1.29289 1.29289Z" fill="#141B34"/>
</svg>
