<svg width="24" height="24" viewBox="0 0 24 24" fill="none" xmlns="http://www.w3.org/2000/svg">
<path fill-rule="evenodd" clip-rule="evenodd" d="M2 7C2 6.44772 2.44772 6 3 6H5.5C5.76522 6 6.01957 6.10536 6.20711 6.29289L10.2948 10.3806C10.8121 10.1365 11.3901 10 12 10C14.2091 10 16 11.7909 16 14C16 16.2091 14.2091 18 12 18C9.79086 18 8 16.2091 8 14C8 13.1288 8.27854 12.3226 8.75143 11.6656L5.08579 8H3C2.44772 8 2 7.55228 2 7ZM12 12C10.8954 12 10 12.8954 10 14C10 15.1046 10.8954 16 12 16C13.1046 16 14 15.1046 14 14C14 12.8954 13.1046 12 12 12ZM22 13.9902C22 13.4379 21.5523 12.9902 21 12.9902C20.4477 12.9902 20 13.4379 20 13.9902V14.0002C20 14.5525 20.4477 15.0002 21 15.0002C21.5523 15.0002 22 14.5525 22 14.0002V13.9902ZM19 14C19 13.4477 18.5523 13 18 13C17.4477 13 17 13.4477 17 14V14.01C17 14.5623 17.4477 15.01 18 15.01C18.5523 15.01 19 14.5623 19 14.01V14ZM3 13C3.55228 13 4 13.4477 4 14V14.01C4 14.5623 3.55228 15.01 3 15.01C2.44772 15.01 2 14.5623 2 14.01V14C2 13.4477 2.44772 13 3 13ZM6 13.01C6.55228 13.01 7 13.4577 7 14.01V14.02C7 14.5723 6.55228 15.02 6 15.02C5.44772 15.02 5 14.5723 5 14.02V14.01C5 13.4577 5.44772 13.01 6 13.01ZM13 13.9902C13 13.4379 12.5523 12.9902 12 12.9902C11.4477 12.9902 11 13.4379 11 13.9902V14.0002C11 14.5525 11.4477 15.0002 12 15.0002C12.5523 15.0002 13 14.5525 13 14.0002V13.9902Z" fill="#141B34"/>
</svg>
