<svg width="24" height="24" viewBox="0 0 24 24" fill="none" xmlns="http://www.w3.org/2000/svg">
<path fill-rule="evenodd" clip-rule="evenodd" d="M12.0629 1.23145C6.23945 1.23145 1.28906 5.28376 1.28906 10.6146C1.28906 15.7616 6.37821 20.3705 13.2013 19.6849V21.973C13.2013 22.2618 13.363 22.5154 13.6033 22.6438C13.8548 22.7781 14.1914 22.7702 14.4468 22.5576C14.549 22.4725 15.447 21.7248 15.7718 21.3609C16.1717 20.9126 16.6597 20.4214 17.206 19.8715L17.2066 19.871C17.3633 19.7132 17.5249 19.5505 17.6906 19.3826C18.4232 18.6405 19.217 17.8148 19.9513 16.9225C21.4056 15.1553 22.7121 13.0268 22.7846 10.6373C22.7848 10.6297 22.7849 10.6222 22.7849 10.6146C22.7849 5.28838 17.8917 1.23145 12.0629 1.23145ZM11.636 8.10256C11.4587 7.81884 11.1149 7.68689 10.7932 7.77913C10.4716 7.87137 10.25 8.16548 10.25 8.50006V12.5001C10.25 12.9143 10.5858 13.2501 11 13.2501C11.4142 13.2501 11.75 12.9143 11.75 12.5001V11.1152L12.864 12.8976C13.0413 13.1813 13.3851 13.3132 13.7068 13.221C14.0284 13.1288 14.25 12.8346 14.25 12.5001V8.50006C14.25 8.08585 13.9142 7.75006 13.5 7.75006C13.0858 7.75006 12.75 8.08585 12.75 8.50006V9.88497L11.636 8.10256ZM17.5015 9.25006C17.9157 9.24925 18.2508 8.91281 18.25 8.4986C18.2492 8.08439 17.9127 7.74926 17.4985 7.75006L15.4985 7.75397C15.0849 7.75478 14.75 8.09033 14.75 8.50397V12.5001C14.75 12.9143 15.0858 13.2501 15.5 13.2501H17.5C17.9142 13.2501 18.25 12.9143 18.25 12.5001C18.25 12.0858 17.9142 11.7501 17.5 11.7501H16.25V11.2551H17C17.4142 11.2551 17.75 10.9194 17.75 10.5051C17.75 10.0909 17.4142 9.75514 17 9.75514H16.25V9.25251L17.5015 9.25006ZM9.75 8.50006C9.75 8.08585 9.41421 7.75006 9 7.75006C8.58579 7.75006 8.25 8.08585 8.25 8.50006V12.5001C8.25 12.9143 8.58579 13.2501 9 13.2501C9.41421 13.2501 9.75 12.9143 9.75 12.5001V8.50006ZM6.75 8.50397C6.75 8.08976 6.41421 7.75397 6 7.75397C5.58579 7.75397 5.25 8.08976 5.25 8.50397V12.5001C5.25 12.9143 5.58579 13.2501 6 13.2501H7C7.41421 13.2501 7.75 12.9143 7.75 12.5001C7.75 12.0858 7.41421 11.7501 7 11.7501H6.75V8.50397Z" fill="#141B34"/>
</svg>
