<svg width="24" height="24" viewBox="0 0 24 24" fill="none" xmlns="http://www.w3.org/2000/svg">
<path fill-rule="evenodd" clip-rule="evenodd" d="M15.8088 11.1912C14.2206 9.60295 11.6456 9.60295 10.0574 11.1912L9.85049 11.3981C9.45997 11.7886 8.8268 11.7886 8.43628 11.3981C8.04576 11.0076 8.04576 10.3744 8.43628 9.98387L8.6432 9.77695C11.0125 7.40768 14.8538 7.40768 17.2231 9.77695C19.5923 12.1462 19.5923 15.9875 17.2231 18.3568L14.3568 21.2231C11.9875 23.5923 8.14621 23.5923 5.77695 21.2231C3.40768 18.8538 3.40768 15.0125 5.77695 12.6432L6.36333 13.2296L5.77695 12.6432L6.24129 12.1789C6.63182 11.7883 7.26498 11.7883 7.65551 12.1789C8.04603 12.5694 8.04603 13.2025 7.6555 13.5931L7.19116 14.0574C5.60295 15.6456 5.60295 18.2206 7.19116 19.8088C8.77937 21.3971 11.3544 21.3971 12.9426 19.8088L15.8088 16.9426C17.3971 15.3544 17.3971 12.7794 15.8088 11.1912Z" fill="#141B34"/>
<path fill-rule="evenodd" clip-rule="evenodd" d="M16.8088 4.19116C15.2206 2.60295 12.6456 2.60295 11.0574 4.19116L8.19116 7.05741C6.60295 8.64563 6.60295 11.2206 8.19116 12.8088C9.77937 14.3971 12.3544 14.3971 13.9426 12.8088L14.6026 13.4688L13.9426 12.8088L14.1495 12.6019C14.54 12.2114 15.1732 12.2114 15.5637 12.6019C15.9542 12.9924 15.9542 13.6256 15.5637 14.0161L15.3568 14.2231C12.9875 16.5923 9.14621 16.5923 6.77695 14.2231C4.40768 11.8538 4.40768 8.01246 6.77695 5.6432L9.6432 2.77695C12.0125 0.407685 15.8538 0.407685 18.2231 2.77695C20.5923 5.14621 20.5923 8.98754 18.2231 11.3568L17.7587 11.8211C17.3682 12.2117 16.735 12.2117 16.3445 11.8211C15.954 11.4306 15.954 10.7975 16.3445 10.4069L16.8088 9.94258C18.3971 8.35437 18.3971 5.77937 16.8088 4.19116Z" fill="#141B34"/>
</svg>
