<svg width="24" height="24" viewBox="0 0 24 24" fill="none" xmlns="http://www.w3.org/2000/svg">
<path d="M11.6894 22.6826C11.6133 22.6468 11.4035 22.5481 11.2779 22.4853C11.0206 22.3566 10.6562 22.1663 10.2203 21.9161C9.35038 21.4166 8.18703 20.6738 7.01986 19.7012C4.71077 17.7769 2.25 14.8358 2.25 11C2.25 5.61522 6.61522 1.25 12 1.25C17.3848 1.25 21.75 5.61522 21.75 11C21.75 14.8358 19.2892 17.7769 16.9801 19.7012C15.813 20.6738 14.6496 21.4166 13.7797 21.9161C13.3438 22.1663 12.9794 22.3566 12.7221 22.4853C12.5934 22.5496 12.4913 22.5986 12.4203 22.632C12.3868 22.6478 12.3309 22.6733 12.3083 22.6837L12.3046 22.6854C12.1107 22.7715 11.8888 22.7713 11.6949 22.6851L11.6894 22.6826Z" fill="#141B34"/>
</svg>
