<svg width="24" height="24" viewBox="0 0 24 24" fill="none" xmlns="http://www.w3.org/2000/svg">
<path fill-rule="evenodd" clip-rule="evenodd" d="M12.0247 3.00023C7.03819 3.00023 3 7.03199 3 12.0002C3 16.9685 7.03819 21.0002 12.0247 21.0002C15.7253 21.0002 18.9065 18.7792 20.2994 15.599C20.5209 15.0931 21.1107 14.8627 21.6166 15.0842C22.1224 15.3058 22.3529 15.8955 22.1313 16.4014C20.4304 20.2849 16.5457 23.0002 12.0247 23.0002C5.93828 23.0002 1 18.0777 1 12.0002C1 5.92277 5.93828 1.00023 12.0247 1.00023C16.713 1.00023 20.7169 3.91993 22.3113 8.03532C22.6615 8.93935 22.8955 9.90089 22.9951 10.9012C23.0297 11.2489 22.8803 11.5895 22.601 11.7995C22.3217 12.0095 21.953 12.0585 21.6285 11.9287L19.1285 10.9284C18.8034 10.7984 18.57 10.5077 18.5132 10.1622C18.4564 9.81671 18.5845 9.46665 18.8508 9.23934L20.168 8.11527C18.7137 5.08925 15.6135 3.00023 12.0247 3.00023Z" fill="#141B34"/>
<path fill-rule="evenodd" clip-rule="evenodd" d="M9.32143 9.39C9.32143 7.91776 10.535 6.75 12 6.75C13.465 6.75 14.6786 7.91776 14.6786 9.39V10.9775C15.3401 11.6408 15.75 12.5503 15.75 13.56C15.75 15.6121 14.0567 17.25 12 17.25C9.94329 17.25 8.25 15.6121 8.25 13.56C8.25 12.5503 8.65995 11.6408 9.32143 10.9775V9.39ZM10.8214 10.0564C11.1927 9.93537 11.5891 9.87 12 9.87C12.4109 9.87 12.8073 9.93537 13.1786 10.0564V9.39C13.1786 8.77461 12.6653 8.25 12 8.25C11.3347 8.25 10.8214 8.77461 10.8214 9.39V10.0564Z" fill="#141B34"/>
</svg>
