<svg width="24" height="24" viewBox="0 0 24 24" fill="none" xmlns="http://www.w3.org/2000/svg">
<path fill-rule="evenodd" clip-rule="evenodd" d="M1.5 4.5C1.5 2.84315 2.84315 1.5 4.5 1.5H8C8.55228 1.5 9 1.94772 9 2.5C9 3.05228 8.55228 3.5 8 3.5H4.5C3.94772 3.5 3.5 3.94772 3.5 4.5V8C3.5 8.55228 3.05228 9 2.5 9C1.94772 9 1.5 8.55228 1.5 8V4.5ZM15 2.5C15 1.94772 15.4477 1.5 16 1.5H19.5C21.1569 1.5 22.5 2.84315 22.5 4.5V8C22.5 8.55228 22.0523 9 21.5 9C20.9477 9 20.5 8.55228 20.5 8V4.5C20.5 3.94772 20.0523 3.5 19.5 3.5H16C15.4477 3.5 15 3.05228 15 2.5ZM2.5 15C3.05228 15 3.5 15.4477 3.5 16V19.5C3.5 20.0523 3.94772 20.5 4.5 20.5H8C8.55228 20.5 9 20.9477 9 21.5C9 22.0523 8.55228 22.5 8 22.5H4.5C2.84315 22.5 1.5 21.1569 1.5 19.5V16C1.5 15.4477 1.94772 15 2.5 15ZM21.5 15C22.0523 15 22.5 15.4477 22.5 16V19.5C22.5 21.1569 21.1569 22.5 19.5 22.5H16C15.4477 22.5 15 22.0523 15 21.5C15 20.9477 15.4477 20.5 16 20.5H19.5C20.0523 20.5 20.5 20.0523 20.5 19.5V16C20.5 15.4477 20.9477 15 21.5 15Z" fill="#141B34"/>
<path fill-rule="evenodd" clip-rule="evenodd" d="M12 8C11.2632 8 10.7143 8.57358 10.7143 9.22222V10H13.2857V9.22222C13.2857 8.57358 12.7368 8 12 8ZM15.2857 10V9.22222C15.2857 7.41627 13.7879 6 12 6C10.2121 6 8.71429 7.41627 8.71429 9.22222V10H8C7.73478 10 7.48043 10.1054 7.29289 10.2929C7.10536 10.4804 7 10.7348 7 11V17C7 17.5523 7.44772 18 8 18H16C16.5523 18 17 17.5523 17 17V11C17 10.4477 16.5523 10 16 10H15.2857Z" fill="#141B34"/>
</svg>
