<svg width="24" height="24" viewBox="0 0 24 24" fill="none" xmlns="http://www.w3.org/2000/svg">
<path fill-rule="evenodd" clip-rule="evenodd" d="M12.6933 4.74213C12.5168 4.21264 11.941 3.93012 11.4143 4.11449L5.3393 6.24073C4.53713 6.52149 4 7.27856 4 8.12844L4 15.8716C4 16.7214 4.53713 17.4785 5.3393 17.7593L11.4143 19.8855C11.941 20.0699 12.5168 19.7874 12.6933 19.2579L13.0513 18.1838C13.226 17.6598 13.7923 17.3767 14.3162 17.5513C14.8402 17.726 15.1233 18.2923 14.9487 18.8162L14.5906 19.8903C14.0612 21.4788 12.3339 22.3264 10.7535 21.7732L4.6786 19.647C3.07425 19.0855 2 17.5713 2 15.8716L2 8.12844C2 6.42867 3.07425 4.91453 4.6786 4.35301L10.7536 2.22678C12.3339 1.67365 14.0612 2.52123 14.5906 4.10967L14.9487 5.18377C15.1233 5.70772 14.8402 6.27404 14.3162 6.44868C13.7923 6.62333 13.226 6.34017 13.0513 5.81623L12.6933 4.74213Z" fill="#141B34"/>
<path fill-rule="evenodd" clip-rule="evenodd" d="M12.8827 8.577C13.2564 8.73179 13.5 9.09642 13.5 9.50088V11.0009L21 11.0009C21.5523 11.0009 22 11.4486 22 12.0009C22 12.5532 21.5523 13.0009 21 13.0009H13.5V14.5009C13.5 14.9053 13.2564 15.27 12.8827 15.4248C12.509 15.5795 12.0789 15.494 11.7929 15.208L9.29289 12.708C8.90237 12.3175 8.90237 11.6843 9.29289 11.2938L11.7929 8.79378C12.0789 8.50778 12.509 8.42222 12.8827 8.577Z" fill="#141B34"/>
</svg>
