<svg width="24" height="24" viewBox="0 0 24 24" fill="none" xmlns="http://www.w3.org/2000/svg">
<path fill-rule="evenodd" clip-rule="evenodd" d="M6.74513 5.8331C7.11346 6.24462 7.07844 6.87682 6.66691 7.24514C5.00833 8.72961 4 10.656 4 13C4 17.4182 7.58172 21 12 21C16.4183 21 20 17.4182 20 13C20 10.656 18.9917 8.72961 17.3331 7.24514C16.9216 6.87682 16.8865 6.24462 17.2549 5.8331C17.6232 5.42157 18.2554 5.38655 18.6669 5.75487C20.6908 7.56633 22 10.0129 22 13C22 18.5228 17.5228 23 12 23C6.47715 23 2 18.5228 2 13C2 10.0129 3.30917 7.56633 5.33309 5.75487C5.74461 5.38655 6.37681 5.42157 6.74513 5.8331Z" fill="#141B34"/>
<path fill-rule="evenodd" clip-rule="evenodd" d="M12 1C12.5523 1 13 1.44772 13 2V8.5H14.5C14.9045 8.5 15.2691 8.74364 15.4239 9.11732C15.5787 9.49099 15.4931 9.92111 15.2071 10.2071L12.7071 12.7071C12.3166 13.0976 11.6834 13.0976 11.2929 12.7071L8.79292 10.2071C8.50692 9.92111 8.42137 9.49099 8.57615 9.11732C8.73093 8.74364 9.09557 8.5 9.50003 8.5H11V2C11 1.44772 11.4477 1 12 1Z" fill="#141B34"/>
</svg>
