<svg width="24" height="24" viewBox="0 0 24 24" fill="none" xmlns="http://www.w3.org/2000/svg">
<path fill-rule="evenodd" clip-rule="evenodd" d="M1.25 12C1.25 6.06294 6.06294 1.25 12 1.25C17.9371 1.25 22.75 6.06294 22.75 12C22.75 17.9371 17.9371 22.75 12 22.75C6.06294 22.75 1.25 17.9371 1.25 12ZM9.34219 16.64C9.54101 16.2766 9.99676 16.1432 10.3601 16.3421C10.8275 16.5978 11.3894 16.75 12.0001 16.75C12.6109 16.75 13.1728 16.5978 13.6401 16.3421C14.0035 16.1432 14.4593 16.2766 14.6581 16.64C14.8569 17.0034 14.7235 17.4592 14.3601 17.658C13.6698 18.0357 12.86 18.25 12.0001 18.25C11.1403 18.25 10.3304 18.0357 9.64015 17.658C9.27677 17.4592 9.14337 17.0034 9.34219 16.64ZM9 11.75C8.30964 11.75 7.75 12.3096 7.75 13C7.75 13.6904 8.30964 14.25 9 14.25H9.00673C9.69708 14.25 10.2567 13.6904 10.2567 13C10.2567 12.3096 9.69708 11.75 9.00673 11.75H9ZM14.9933 11.75C14.3029 11.75 13.7433 12.3096 13.7433 13C13.7433 13.6904 14.3029 14.25 14.9933 14.25H15C15.6904 14.25 16.25 13.6904 16.25 13C16.25 12.3096 15.6904 11.75 15 11.75H14.9933Z" fill="#141B34"/>
</svg>
