<svg width="24" height="24" viewBox="0 0 24 24" fill="none" xmlns="http://www.w3.org/2000/svg">
<path d="M9.32052 20.6054C10.2428 19.7261 10.7202 18.3688 10.7202 16.5L10.7202 16.4963C10.7199 16.4689 10.7191 16.3985 10.7181 16.3569C10.716 16.2696 10.7118 16.145 10.7036 15.991C10.6872 15.6838 10.6545 15.2563 10.5889 14.7729C10.4762 13.9422 10.2574 12.874 9.81206 11.9693C10.2916 10.854 10.6977 9.21272 10.7453 7.77424C10.7716 6.97834 10.6925 6.15021 10.3805 5.49145C10.22 5.15245 9.98653 4.83482 9.65255 4.60279C9.31272 4.36671 8.91265 4.25 8.47581 4.25C6.61252 4.25 4.7941 5.62211 3.48617 7.65697C2.15593 9.72654 1.24998 12.62 1.24998 16C1.24998 18.4321 2.06812 19.9196 3.15451 20.7764C4.20545 21.6052 5.38987 21.75 5.98511 21.75C7.18498 21.75 8.40447 21.4786 9.32052 20.6054Z" fill="#141B34"/>
<path d="M14.6786 20.6054C13.7562 19.7262 13.2788 18.3688 13.2788 16.5L13.2788 16.4963C13.2791 16.4689 13.2799 16.3985 13.2809 16.3569C13.283 16.2696 13.2872 16.145 13.2954 15.991C13.3118 15.6838 13.3445 15.2563 13.4101 14.7729C13.5229 13.9421 13.7417 12.8736 14.1872 11.9688C13.709 10.854 13.3027 9.21293 13.2548 7.77442C13.2282 6.97861 13.3071 6.15047 13.6188 5.49166C13.7792 5.15262 14.0126 4.83492 14.3466 4.60284C14.6864 4.3667 15.0865 4.25 15.5234 4.25C17.3868 4.25 19.2054 5.62206 20.5135 7.65694C21.8439 9.7265 22.75 12.62 22.75 16C22.75 18.4321 21.9318 19.9197 20.8453 20.7764C19.7942 21.6052 18.6097 21.75 18.0144 21.75C16.8144 21.75 15.5948 21.4786 14.6786 20.6054Z" fill="#141B34"/>
<path fill-rule="evenodd" clip-rule="evenodd" d="M12 2C11.4477 2 11 2.44772 11 3V5.13148L9.44532 6.16795C8.98579 6.4743 8.86161 7.09517 9.16797 7.5547C9.47432 8.01423 10.0952 8.1384 10.5547 7.83205L12 6.86852L13.4453 7.83205C13.9048 8.1384 14.5257 8.01423 14.8321 7.5547C15.1384 7.09517 15.0142 6.4743 14.5547 6.16795L13 5.13148V3C13 2.44772 12.5523 2 12 2Z" fill="#141B34"/>
</svg>
