<svg width="24" height="24" viewBox="0 0 24 24" fill="none" xmlns="http://www.w3.org/2000/svg">
<path fill-rule="evenodd" clip-rule="evenodd" d="M3.75 3C2.23122 3 1 4.23122 1 5.75V17.75C1 19.2688 2.23122 20.5 3.75 20.5H19.75C21.2688 20.5 22.5 19.2688 22.5 17.75V5.75C22.5 4.23122 21.2688 3 19.75 3H3.75ZM6.12803 7.10229C5.77024 6.89358 5.311 7.01443 5.10229 7.37222C4.89358 7.73001 5.01443 8.18925 5.37222 8.39796L10.3645 11.3101C11.2207 11.8096 12.2795 11.8096 13.1358 11.3101L18.128 8.39796C18.4858 8.18925 18.6067 7.73001 18.398 7.37222C18.1892 7.01443 17.73 6.89358 17.3722 7.10229L12.38 10.0144C11.9908 10.2415 11.5095 10.2415 11.1203 10.0144L6.12803 7.10229Z" fill="#141B34"/>
</svg>
