<svg width="24" height="24" viewBox="0 0 24 24" fill="none" xmlns="http://www.w3.org/2000/svg">
<path d="M14.4998 16.5001L19.1324 18.0442C19.9491 18.3164 20.5 19.0807 20.5 19.9416V20.5001C20.5 21.0524 20.0523 21.5001 19.5 21.5001H4.5C3.94772 21.5001 3.5 21.0524 3.5 20.5001V19.9415C3.5 19.0807 4.05087 18.3164 4.86757 18.0442L9.49983 16.5001V14.5623C7.71899 13.1686 6.49983 11.5 6.49983 7.91681C6.49983 4.32696 8.45457 2.5 11.4921 2.5C13.6431 2.5 14.5383 3.5 14.5383 3.5C17.0768 3.5 17.4998 5.59719 17.4998 7.91681C17.4998 11.5 16.2807 13.1685 14.4998 14.5623V16.5001Z" fill="#141B34"/>
</svg>
