<svg width="24" height="24" viewBox="0 0 24 24" fill="none" xmlns="http://www.w3.org/2000/svg">
<path d="M13 6.04198C13.883 5.6562 14.5 4.77516 14.5 3.75C14.5 2.36929 13.3807 1.25 12 1.25C10.6193 1.25 9.5 2.36929 9.5 3.75C9.5 4.77516 10.117 5.6562 11 6.04198V10C11 10.5523 11.4477 11 12 11C12.5523 11 13 10.5523 13 10V6.04198Z" fill="#141B34"/>
<path fill-rule="evenodd" clip-rule="evenodd" d="M19 8.25H14.5V10C14.5 11.3807 13.3807 12.5 12 12.5C10.6193 12.5 9.5 11.3807 9.5 10V8.25H5C2.92893 8.25 1.25 9.92893 1.25 12V19C1.25 21.0711 2.92893 22.75 5 22.75H19C21.0711 22.75 22.75 21.0711 22.75 19V12C22.75 9.92893 21.0711 8.25 19 8.25ZM6.50403 11.1363C6.02698 10.858 5.41466 11.0191 5.13638 11.4962C4.8581 11.9732 5.01924 12.5855 5.49629 12.8638L8.60656 14.6781L5.44868 16.7659C4.98797 17.0704 4.8614 17.6908 5.16598 18.1515C5.47056 18.6122 6.09094 18.7388 6.55165 18.4342L10.5332 15.802L17.4963 19.8638C17.9733 20.1421 18.5857 19.981 18.8639 19.5039C19.1422 19.0269 18.9811 18.4145 18.504 18.1363L15.6878 16.4935L18.5549 14.5821C19.0144 14.2757 19.1386 13.6549 18.8322 13.1953C18.5259 12.7358 17.905 12.6116 17.4455 12.918L13.7648 15.3717L6.50403 11.1363Z" fill="#141B34"/>
</svg>
