<svg width="24" height="24" viewBox="0 0 24 24" fill="none" xmlns="http://www.w3.org/2000/svg">
<path fill-rule="evenodd" clip-rule="evenodd" d="M1.75 4.5C1.75 2.98122 2.98122 1.75 4.5 1.75H19.5C21.0188 1.75 22.25 2.98122 22.25 4.5V19.5C22.25 21.0188 21.0188 22.25 19.5 22.25H4.5C2.98122 22.25 1.75 21.0188 1.75 19.5V4.5ZM12.7353 9L18.0001 9C18.5524 9 19.0001 8.55228 19.0001 8C19.0001 7.44772 18.5524 7 18.0001 7L12.0001 7C11.5627 7 11.1761 7.28425 11.0456 7.70173L9.38431 13.0179L8.42858 10.6286C8.31666 10.3488 8.08452 10.1344 7.79672 10.045C7.50892 9.95561 7.19615 10.0008 6.94541 10.1679L5.44541 11.1679C4.98588 11.4743 4.8617 12.0952 5.16806 12.5547C5.47441 13.0142 6.09528 13.1384 6.55481 12.8321L7.02935 12.5157L8.57163 16.3714C8.72877 16.7642 9.11613 17.0157 9.53891 16.9992C9.96169 16.9828 10.3284 16.7021 10.4546 16.2983L12.7353 9ZM14.7071 11.2929C14.3166 10.9024 13.6834 10.9024 13.2929 11.2929C12.9024 11.6834 12.9024 12.3166 13.2929 12.7071L14.0858 13.5L13.2929 14.2929C12.9024 14.6834 12.9024 15.3166 13.2929 15.7071C13.6834 16.0976 14.3166 16.0976 14.7071 15.7071L15.5 14.9142L16.2929 15.7071C16.6834 16.0976 17.3166 16.0976 17.7071 15.7071C18.0976 15.3166 18.0976 14.6834 17.7071 14.2929L16.9142 13.5L17.7071 12.7071C18.0976 12.3166 18.0976 11.6834 17.7071 11.2929C17.3166 10.9024 16.6834 10.9024 16.2929 11.2929L15.5 12.0858L14.7071 11.2929Z" fill="#141B34"/>
</svg>
