<svg width="24" height="24" viewBox="0 0 24 24" fill="none" xmlns="http://www.w3.org/2000/svg">
<path fill-rule="evenodd" clip-rule="evenodd" d="M1 3.93182C1 2.31262 2.31262 1 3.93182 1H5.39773C5.93746 1 6.375 1.43754 6.375 1.97727C6.375 2.51701 5.93746 2.95455 5.39773 2.95455H3.93182C3.39209 2.95455 2.95455 3.39209 2.95455 3.93182V5.39773C2.95455 5.93746 2.51701 6.375 1.97727 6.375C1.43754 6.375 1 5.93746 1 5.39773V3.93182ZM8.32955 1.97727C8.32955 1.43754 8.76709 1 9.30682 1H14.1932C14.7329 1 15.1705 1.43754 15.1705 1.97727C15.1705 2.51701 14.7329 2.95455 14.1932 2.95455H9.30682C8.76709 2.95455 8.32955 2.51701 8.32955 1.97727ZM17.125 1.97727C17.125 1.43754 17.5625 1 18.1023 1H19.5682C21.1874 1 22.5 2.31262 22.5 3.93182V5.39773C22.5 5.93746 22.0625 6.375 21.5227 6.375C20.983 6.375 20.5455 5.93746 20.5455 5.39773V3.93182C20.5455 3.39209 20.1079 2.95455 19.5682 2.95455H18.1023C17.5625 2.95455 17.125 2.51701 17.125 1.97727ZM1.97727 8.32955C2.51701 8.32955 2.95455 8.76709 2.95455 9.30682V10.7727C2.95455 11.3125 2.51701 11.75 1.97727 11.75C1.43754 11.75 1 11.3125 1 10.7727V9.30682C1 8.76709 1.43754 8.32955 1.97727 8.32955ZM21.5227 8.32955C22.0625 8.32955 22.5 8.76709 22.5 9.30682V14.1932C22.5 14.7329 22.0625 15.1705 21.5227 15.1705C20.983 15.1705 20.5455 14.7329 20.5455 14.1932V9.30682C20.5455 8.76709 20.983 8.32955 21.5227 8.32955ZM21.5227 17.125C22.0625 17.125 22.5 17.5625 22.5 18.1023V19.5682C22.5 21.1874 21.1874 22.5 19.5682 22.5H18.1023C17.5625 22.5 17.125 22.0625 17.125 21.5227C17.125 20.983 17.5625 20.5455 18.1023 20.5455H19.5682C20.1079 20.5455 20.5455 20.1079 20.5455 19.5682V18.1023C20.5455 17.5625 20.983 17.125 21.5227 17.125ZM11.7499 21.5226C11.7499 20.9829 12.1874 20.5454 12.7272 20.5454H14.1931C14.7328 20.5454 15.1704 20.9829 15.1704 21.5226C15.1704 22.0624 14.7328 22.4999 14.1931 22.4999H12.7272C12.1874 22.4999 11.7499 22.0624 11.7499 21.5226Z" fill="#141B34"/>
<path d="M1 14.75C1 13.7835 1.7835 13 2.75 13H8.75C9.7165 13 10.5 13.7835 10.5 14.75V20.75C10.5 21.7165 9.7165 22.5 8.75 22.5H2.75C1.7835 22.5 1 21.7165 1 20.75V14.75Z" fill="#141B34"/>
<path fill-rule="evenodd" clip-rule="evenodd" d="M10.2994 8.37162C10.453 7.99566 10.8189 7.75 11.225 7.75H14.75C15.3023 7.75 15.75 8.19772 15.75 8.75V12.2099C15.75 12.6127 15.5084 12.9761 15.137 13.132C14.7656 13.2879 14.337 13.2057 14.0495 12.9236L13.0105 11.9037L9.45711 15.4571C9.06658 15.8476 8.43342 15.8476 8.04289 15.4571C7.65237 15.0666 7.65237 14.4334 8.04289 14.0429L11.5831 10.5027L10.5245 9.46366C10.2347 9.17915 10.1457 8.74759 10.2994 8.37162Z" fill="#141B34"/>
</svg>
