<svg width="24" height="24" viewBox="0 0 24 24" fill="none" xmlns="http://www.w3.org/2000/svg">
<path fill-rule="evenodd" clip-rule="evenodd" d="M2 3C2 2.44772 2.44772 2 3 2H21C21.5523 2 22 2.44772 22 3V8C22 8.39519 21.7673 8.75331 21.4061 8.91381L14.0466 12.1847L16.3355 13.3292C16.5896 13.4562 16.7501 13.7159 16.7501 14V19C16.7501 19.2841 16.5896 19.5438 16.3355 19.6708L12.3355 21.6708C12.1244 21.7764 11.8758 21.7764 11.6647 21.6708L7.6646 19.6708C7.4105 19.5438 7.25 19.2841 7.25 19V14C7.25 13.7159 7.4105 13.4562 7.6646 13.3292L9.95349 12.1848L2.59386 8.91381C2.23273 8.75331 2 8.39519 2 8V3ZM4 4V7.35013L7.75 9.01679V4H4ZM16.25 4V9.01679L20 7.35013V4H16.25Z" fill="#141B34"/>
</svg>
