<svg width="24" height="24" viewBox="0 0 24 24" fill="none" xmlns="http://www.w3.org/2000/svg">
<path fill-rule="evenodd" clip-rule="evenodd" d="M17.75 1C15.1267 1 13 3.12664 13 5.75C13 8.37336 15.1267 10.5 17.75 10.5C20.3733 10.5 22.5 8.37336 22.5 5.75C22.5 3.12664 20.3733 1 17.75 1ZM19.2803 5.28033C19.5732 4.98744 19.5732 4.51256 19.2803 4.21967C18.9874 3.92678 18.5126 3.92678 18.2197 4.21967L17.2197 5.21967C16.9268 5.51256 16.9268 5.98744 17.2197 6.28033C17.5126 6.57322 17.9874 6.57322 18.2803 6.28033L19.2803 5.28033ZM11.5 5.75C11.5 4.34938 11.9607 3.05638 12.7389 2.01426C11.6671 1.98326 10.5812 2.00283 9.52966 2.07272C4.96301 2.37628 1.33971 6.06258 1.0418 10.6723C0.986067 11.5347 0.986067 12.4269 1.0418 13.2893C1.15273 15.0056 1.90147 16.554 2.73381 17.8104C2.98314 18.2919 2.85323 19.0141 2.38689 19.8978L2.36541 19.9385C2.20872 20.2353 2.05535 20.5257 1.96688 20.7734C1.87313 21.0358 1.77623 21.4525 2.01792 21.8646C2.10161 22.0072 2.21719 22.143 2.37816 22.2507C2.53318 22.3545 2.69516 22.4087 2.83991 22.4399C3.09712 22.4953 3.41546 22.4982 3.74057 22.4982C5.15535 22.5307 6.15311 22.1213 6.94376 21.5383C7.10106 21.4223 7.20907 21.3429 7.29041 21.287C7.40866 21.3304 7.57034 21.3967 7.80841 21.4948C8.3498 21.7178 8.96474 21.8513 9.52965 21.8888C10.9869 21.9857 12.5101 21.986 13.9703 21.8888C18.537 21.5854 22.1603 17.8989 22.4582 13.2892C22.5139 12.4268 22.5139 11.5347 22.4582 10.6723C22.4424 10.4272 22.4171 10.1847 22.3829 9.94519C21.2393 11.2073 19.5872 12 17.75 12C14.2983 12 11.5 9.2018 11.5 5.75ZM7.75 11.25C7.19772 11.25 6.75 11.6977 6.75 12.25C6.75 12.8023 7.19772 13.25 7.75 13.25H7.75897C8.31125 13.25 8.75897 12.8023 8.75897 12.25C8.75897 11.6977 8.31125 11.25 7.75897 11.25H7.75ZM11.7455 11.25C11.1933 11.25 10.7455 11.6977 10.7455 12.25C10.7455 12.8023 11.1933 13.25 11.7455 13.25H11.7544C12.3067 13.25 12.7544 12.8023 12.7544 12.25C12.7544 11.6977 12.3067 11.25 11.7544 11.25H11.7455Z" fill="#141B34"/>
</svg>
