<svg width="24" height="24" viewBox="0 0 24 24" fill="none" xmlns="http://www.w3.org/2000/svg">
<path fill-rule="evenodd" clip-rule="evenodd" d="M12.0019 1.24805C6.06381 1.24805 1.25 6.06186 1.25 12C1.25 13.9011 1.66486 15.5609 2.53845 17.1124L1.28025 21.7904C1.12815 22.3559 1.64583 22.8737 2.21136 22.7218L6.86382 21.4718C8.42657 22.3557 10.0955 22.752 12.0019 22.752C17.9401 22.752 22.7539 17.9381 22.7539 12C22.7539 6.06186 17.9401 1.24805 12.0019 1.24805ZM17.7071 10.7071C18.0976 10.3166 18.0976 9.68342 17.7071 9.29289C17.3166 8.90237 16.6834 8.90237 16.2929 9.29289L13.4477 12.1381L10.6508 9.74074C10.2315 9.38132 9.60018 9.42988 9.24076 9.84921L6.24076 13.3492C5.88134 13.7685 5.9299 14.3998 6.34923 14.7593C6.76855 15.1187 7.39985 15.0701 7.75927 14.6508L10.1085 11.91L12.8492 14.2593C13.246 14.5993 13.8376 14.5766 14.2071 14.2071L17.7071 10.7071Z" fill="#141B34"/>
</svg>
