<svg width="24" height="24" viewBox="0 0 24 24" fill="none" xmlns="http://www.w3.org/2000/svg">
<path fill-rule="evenodd" clip-rule="evenodd" d="M6.48596 1.23971C6.74098 1.02183 7.08826 0.946318 7.41073 1.03863C8.63078 1.38788 9.72163 2.20109 10.4023 3.3955C10.6862 3.89364 10.8779 4.4217 10.9818 4.95832C11.0867 5.50054 10.7323 6.02519 10.1901 6.13017C9.64786 6.23515 9.12321 5.88069 9.01824 5.33848C8.95517 5.01274 8.83877 4.69121 8.6647 4.38577C8.48259 4.06624 8.25352 3.7929 7.99168 3.56908C7.70421 4.56113 7.05383 5.4501 6.09385 6.01159C5.13246 6.57391 4.04166 6.70144 3.04309 6.45652C3.10238 6.80925 3.22347 7.15725 3.41033 7.48512C3.91402 8.36895 4.77895 8.90112 5.70232 9.00646C6.25104 9.06905 6.64513 9.56463 6.58253 10.1134C6.51993 10.6621 6.02436 11.0562 5.47563 10.9936C3.93844 10.8182 2.50207 9.93069 1.6727 8.47539C0.992356 7.2816 0.845111 5.92393 1.15421 4.68839C1.23593 4.3617 1.4766 4.09808 1.79451 3.98702C2.11243 3.87596 2.46489 3.93237 2.73226 4.1371C3.39818 4.64701 4.32121 4.73142 5.0841 4.28521C5.84975 3.83738 6.2476 2.97483 6.14297 2.12176C6.10213 1.78882 6.23093 1.45759 6.48596 1.23971Z" fill="#141B34"/>
<path fill-rule="evenodd" clip-rule="evenodd" d="M9.5894 14.1402C10.0642 14.4223 10.2206 15.0358 9.93854 15.5107L8.75701 17.5H10.0003C10.3598 17.5 10.6916 17.693 10.8694 18.0054C11.0472 18.3178 11.0437 18.7016 10.8602 19.0106L8.78177 22.5106C8.49978 22.9855 7.88623 23.1418 7.41136 22.8599C6.93649 22.5779 6.78013 21.9643 7.06212 21.4894L8.24349 19.5H7C6.64053 19.5 6.30872 19.3071 6.13091 18.9947C5.95309 18.6823 5.95665 18.2985 6.14021 17.9894L8.21896 14.4894C8.50099 14.0145 9.11455 13.8582 9.5894 14.1402Z" fill="#141B34"/>
<path fill-rule="evenodd" clip-rule="evenodd" d="M13.9474 18.1058C14.4414 18.3528 14.6416 18.9535 14.3946 19.4474L12.8946 22.4473C12.6476 22.9413 12.047 23.1415 11.553 22.8945C11.059 22.6475 10.8588 22.0468 11.1058 21.5529L12.6058 18.553C12.8528 18.059 13.4535 17.8588 13.9474 18.1058ZM16.9474 18.1058C17.4414 18.3528 17.6416 18.9535 17.3946 19.4474L15.8946 22.4473C15.6476 22.9413 15.047 23.1415 14.553 22.8945C14.059 22.6475 13.8588 22.0468 14.1058 21.5529L15.6058 18.553C15.8528 18.059 16.4535 17.8588 16.9474 18.1058Z" fill="#141B34"/>
<path d="M5.853 9.36454C3.22664 9.89643 1.25 12.217 1.25 15C1.25 17.6988 3.1093 19.9633 5.61684 20.5826C5.29644 20.3698 5.0241 20.0825 4.82726 19.7366C4.38274 18.9556 4.39162 17.9961 4.85053 17.2234L6.92928 13.7234C7.63434 12.5363 9.16826 12.1455 10.3554 12.8506C11.5425 13.5556 11.9333 15.0895 11.2282 16.2767L11.2078 16.311C11.5147 16.4802 11.7856 16.7138 12 16.9995C12.7335 16.4503 13.7429 16.3262 14.6183 16.7639C14.7547 16.8321 14.8822 16.9111 15.0001 16.9994C15.7336 16.4503 16.743 16.3262 17.6183 16.7639C18.8532 17.3814 19.3538 18.8831 18.7363 20.118L18.4645 20.6616C20.9033 20.2087 22.75 18.07 22.75 15.5C22.75 12.8541 20.7927 10.6653 18.2469 10.3027C18.1428 6.94224 15.3858 4.25 12 4.25C8.93585 4.25 6.38731 6.45456 5.853 9.36454Z" fill="#141B34"/>
</svg>
