<svg width="24" height="24" viewBox="0 0 24 24" fill="none" xmlns="http://www.w3.org/2000/svg">
<path fill-rule="evenodd" clip-rule="evenodd" d="M12 1C5.92487 1 1 5.92487 1 12C1 18.0751 5.92487 23 12 23C18.0751 23 23 18.0751 23 12C23 5.92487 18.0751 1 12 1ZM3 12C3 7.02944 7.02944 3 12 3C13.1676 3 14.3955 3.794 15.3851 5.44343C16.3629 7.07295 17 9.38866 17 12C17 14.6113 16.3629 16.9271 15.3851 18.5566C14.3955 20.206 13.1676 21 12 21C7.02944 21 3 16.9706 3 12Z" fill="#141B34"/>
<path fill-rule="evenodd" clip-rule="evenodd" d="M9.99982 7C9.99982 6.44772 10.4475 6 10.9998 6H11.0088C11.5611 6 12.0088 6.44772 12.0088 7C12.0088 7.55228 11.5611 8 11.0088 8H10.9998C10.4475 8 9.99982 7.55228 9.99982 7Z" fill="#141B34"/>
<path fill-rule="evenodd" clip-rule="evenodd" d="M6.25 14.5C6.25 13.2574 7.25736 12.25 8.5 12.25C9.74264 12.25 10.75 13.2574 10.75 14.5C10.75 15.7426 9.74264 16.75 8.5 16.75C7.25736 16.75 6.25 15.7426 6.25 14.5Z" fill="#141B34"/>
</svg>
