<svg width="24" height="24" viewBox="0 0 24 24" fill="none" xmlns="http://www.w3.org/2000/svg">
<path fill-rule="evenodd" clip-rule="evenodd" d="M6.48549 1.24011C6.74032 1.02213 7.08744 0.94638 7.40992 1.0384C8.62923 1.38631 9.72041 2.19671 10.4016 3.38824C10.6858 3.88518 10.8776 4.41208 10.9817 4.94764C11.087 5.48979 10.7328 6.01466 10.1907 6.11996C9.64852 6.22526 9.12365 5.87112 9.01835 5.32897C8.95541 5.00494 8.83922 4.68497 8.66538 4.38091C8.48316 4.06219 8.25373 3.78948 7.99133 3.56619C7.70343 4.55613 7.05242 5.44263 6.09265 6.0022C5.13181 6.56239 4.04177 6.68952 3.04373 6.44551C3.10318 6.79497 3.22383 7.13975 3.40964 7.46474C3.96817 8.44166 4.97349 8.98935 6.01034 9.00007C6.56259 9.00577 7.00566 9.45809 6.99995 10.0103C6.99424 10.5626 6.54193 11.0057 5.98967 11C4.26536 10.9821 2.5955 10.0703 1.67338 8.45742C0.992417 7.26636 0.8449 5.9114 1.15439 4.67825C1.23626 4.35202 1.47665 4.08881 1.79414 3.97775C2.11162 3.8667 2.46367 3.92269 2.73103 4.12676C3.39723 4.63524 4.32157 4.71968 5.0853 4.27441C5.85111 3.82792 6.24727 2.96944 6.14301 2.12214C6.10206 1.78931 6.23066 1.4581 6.48549 1.24011Z" fill="#141B34"/>
<path d="M13 14.9999C13 15.5522 12.5523 15.9999 12 15.9999C11.4477 15.9999 11 15.5522 11 14.9999C11 14.4476 11.4477 13.9999 12 13.9999C12.5523 13.9999 13 14.4476 13 14.9999Z" fill="#141B34"/>
<path d="M10 17.9999C10 18.5522 9.55228 18.9999 9 18.9999C8.44772 18.9999 8 18.5522 8 17.9999C8 17.4476 8.44772 16.9999 9 16.9999C9.55228 16.9999 10 17.4476 10 17.9999Z" fill="#141B34"/>
<path d="M16 17.9999C16 18.5522 15.5523 18.9999 15 18.9999C14.4477 18.9999 14 18.5522 14 17.9999C14 17.4476 14.4477 16.9999 15 16.9999C15.5523 16.9999 16 17.4476 16 17.9999Z" fill="#141B34"/>
<path d="M7 20.9999C7 21.5522 6.55228 21.9999 6 21.9999C5.44772 21.9999 5 21.5522 5 20.9999C5 20.4476 5.44772 19.9999 6 19.9999C6.55228 19.9999 7 20.4476 7 20.9999Z" fill="#141B34"/>
<path d="M13 21.9999C13 22.5522 12.5523 22.9999 12 22.9999C11.4477 22.9999 11 22.5522 11 21.9999C11 21.4476 11.4477 20.9999 12 20.9999C12.5523 20.9999 13 21.4476 13 21.9999Z" fill="#141B34"/>
<path d="M19 20.9999C19 21.5522 18.5523 21.9999 18 21.9999C17.4477 21.9999 17 21.5522 17 20.9999C17 20.4476 17.4477 19.9999 18 19.9999C18.5523 19.9999 19 20.4476 19 20.9999Z" fill="#141B34"/>
<path d="M1.25 15C1.25 12.217 3.22664 9.89643 5.853 9.36454C6.38731 6.45456 8.93585 4.25 12 4.25C15.3858 4.25 18.1428 6.94224 18.2469 10.3027C20.7927 10.6653 22.75 12.8541 22.75 15.5C22.75 17.3813 21.7604 19.0315 20.2734 19.9585C19.8785 19.0977 19.0091 18.4999 18 18.4999C17.8061 18.4999 17.6174 18.522 17.4362 18.5637C17.4779 18.3825 17.5 18.1938 17.5 17.9999C17.5 16.6192 16.3807 15.4999 15 15.4999C14.8061 15.4999 14.6174 15.522 14.4362 15.5637C14.4779 15.3825 14.5 15.1938 14.5 14.9999C14.5 13.6192 13.3807 12.4999 12 12.4999C10.6193 12.4999 9.5 13.6192 9.5 14.9999C9.5 15.1938 9.52207 15.3825 9.56384 15.5637C9.38264 15.522 9.1939 15.4999 9 15.4999C7.61929 15.4999 6.5 16.6192 6.5 17.9999C6.5 18.1938 6.52207 18.3825 6.56385 18.5637C6.38264 18.522 6.1939 18.4999 6 18.4999C5.05941 18.4999 4.24015 19.0193 3.81341 19.787C2.26802 18.7562 1.25 16.997 1.25 15Z" fill="#141B34"/>
</svg>
