<svg width="24" height="24" viewBox="0 0 24 24" fill="none" xmlns="http://www.w3.org/2000/svg">
<path fill-rule="evenodd" clip-rule="evenodd" d="M6.48549 1.24011C6.74032 1.02213 7.08744 0.94638 7.40992 1.0384C8.62923 1.38631 9.72041 2.19671 10.4016 3.38824C10.6858 3.88518 10.8776 4.41208 10.9817 4.94764C11.087 5.48979 10.7328 6.01466 10.1907 6.11996C9.64852 6.22526 9.12365 5.87112 9.01835 5.32897C8.95541 5.00494 8.83922 4.68497 8.66538 4.38091C8.48316 4.06219 8.25373 3.78948 7.99133 3.56619C7.70343 4.55613 7.05242 5.44263 6.09265 6.0022C5.13181 6.56239 4.04177 6.68952 3.04373 6.44551C3.10318 6.79497 3.22383 7.13975 3.40964 7.46474C3.96812 8.44157 4.97339 8.98914 6.01034 8.99985C6.56259 9.00556 7.00566 9.45788 6.99995 10.0101C6.99424 10.5624 6.54192 11.0055 5.98967 10.9997C4.26547 10.9819 2.59555 10.0704 1.67338 8.45742C0.992417 7.26636 0.8449 5.9114 1.15439 4.67825C1.23626 4.35202 1.47665 4.08881 1.79414 3.97775C2.11162 3.8667 2.46367 3.92269 2.73103 4.12676C3.39723 4.63524 4.32157 4.71968 5.0853 4.27441C5.85111 3.82792 6.24727 2.96944 6.14301 2.12214C6.10206 1.78931 6.23066 1.4581 6.48549 1.24011Z" fill="#141B34"/>
<path fill-rule="evenodd" clip-rule="evenodd" d="M7.49728 15.1343C7.97549 14.858 8.59162 15.0295 8.86791 15.5077C9.14421 15.9859 8.98053 16.5975 8.50232 16.8738C8.02412 17.1501 7.41248 16.9864 7.13618 16.5082C6.85989 16.03 7.01908 15.4106 7.49728 15.1343ZM15.4928 15.1343C15.971 14.858 16.5871 15.0294 16.8634 15.5076C17.1397 15.9858 16.9761 16.5975 16.4979 16.8738C16.0197 17.1501 15.408 16.9864 15.1317 16.5082C14.8554 16.03 15.0146 15.4106 15.4928 15.1343ZM11.4951 17.1317C11.9733 16.8554 12.5894 17.0269 12.8657 17.5051C13.142 17.9833 12.9783 18.5949 12.5001 18.8712C12.0219 19.1475 11.4102 18.9838 11.1339 18.5056C10.8576 18.0274 11.0168 17.408 11.4951 17.1317ZM7.49729 19.1291C7.97549 18.8528 8.59162 19.0243 8.86792 19.5025C9.14421 19.9807 8.98053 20.5923 8.50232 20.8686C8.02411 21.1449 7.41247 20.9812 7.13618 20.503L7.13488 20.503C6.85859 20.0248 7.01908 19.4054 7.49729 19.1291ZM15.4928 19.1291C15.971 18.8528 16.5871 19.0243 16.8634 19.5025C17.1397 19.9807 16.9761 20.5923 16.4979 20.8686C16.0197 21.1449 15.408 20.9813 15.1317 20.5031C14.8554 20.0249 15.0146 19.4054 15.4928 19.1291ZM11.4951 21.1265C11.9733 20.8502 12.5894 21.0217 12.8657 21.4999C13.142 21.9781 12.9783 22.5898 12.5001 22.866C12.0219 23.1423 11.4102 22.9786 11.1339 22.5004C10.8576 22.0222 11.0168 21.4028 11.4951 21.1265Z" fill="#141B34"/>
<path d="M1.25 15C1.25 12.217 3.22664 9.89643 5.853 9.36454C6.38731 6.45456 8.93585 4.25 12 4.25C15.3858 4.25 18.1428 6.94224 18.2469 10.3027C20.7927 10.6653 22.75 12.8541 22.75 15.5C22.75 18.089 20.8759 20.2403 18.4104 20.6714C18.5836 20.0474 18.5157 19.3569 18.1661 18.7519C17.9937 18.4535 17.7673 18.2024 17.5056 18.005C18.5025 17.2562 18.8055 15.8637 18.1661 14.7571C17.4841 13.5767 15.9567 13.136 14.7462 13.8354C13.9392 14.3018 13.5009 15.1432 13.5005 16.0021C12.7276 15.4235 11.6502 15.3118 10.7486 15.8328C10.6637 15.8818 10.5829 15.935 10.5063 15.9919C10.504 15.5719 10.3958 15.1468 10.1706 14.7571C9.48862 13.5767 7.96132 13.136 6.75078 13.8354C5.54023 14.5348 5.15929 16.0781 5.84129 17.2585C6.01312 17.5559 6.23683 17.8046 6.49439 17.9999C5.69099 18.6055 5.34879 19.6258 5.56965 20.5707C3.08601 19.9349 1.25 17.6818 1.25 15Z" fill="#141B34"/>
</svg>
