<svg width="24" height="24" viewBox="0 0 24 24" fill="none" xmlns="http://www.w3.org/2000/svg">
<path fill-rule="evenodd" clip-rule="evenodd" d="M4.50007 1.75C2.98126 1.74996 1.75 2.98119 1.75 4.5V19.4999C1.75 21.0187 2.98122 22.2499 4.5 22.2499H19.5C21.0188 22.2499 22.25 21.0187 22.25 19.5V4.50039C22.25 2.98163 21.0188 1.75043 19.5001 1.75039L4.50007 1.75ZM9.70714 7.70711C10.0977 7.31658 10.0977 6.68342 9.70714 6.29289C9.31661 5.90237 8.68345 5.90237 8.29292 6.29289L6.29292 8.29289C6.00692 8.57889 5.92137 9.00901 6.07615 9.38268C6.23093 9.75636 6.59557 10 7.00003 10H17C17.5523 10 18 9.55228 18 9C18 8.44772 17.5523 8 17 8H9.41424L9.70714 7.70711ZM7.00003 11C6.44774 11 6.00003 11.4477 6.00003 12C6.00003 12.5523 6.44774 13 7.00003 13H17C17.5523 13 18 12.5523 18 12C18 11.4477 17.5523 11 17 11H7.00003ZM7.00003 14C6.44774 14 6.00003 14.4477 6.00003 15C6.00003 15.5523 6.44774 16 7.00003 16H14.5858L14.2929 16.2929C13.9024 16.6834 13.9024 17.3166 14.2929 17.7071C14.6834 18.0976 15.3166 18.0976 15.7071 17.7071L17.7071 15.7071C17.9931 15.4211 18.0787 14.991 17.9239 14.6173C17.7691 14.2436 17.4045 14 17 14H7.00003Z" fill="#141B34"/>
</svg>
