<svg width="24" height="24" viewBox="0 0 24 24" fill="none" xmlns="http://www.w3.org/2000/svg">
<path fill-rule="evenodd" clip-rule="evenodd" d="M2.25 12C2.25 11.5858 2.58579 11.25 3 11.25H21C21.4142 11.25 21.75 11.5858 21.75 12C21.75 15.5574 19.8235 18.6155 16.9934 20.3097L17.309 20.941C17.7246 21.7721 17.1202 22.75 16.191 22.75H7.80902C6.87979 22.75 6.27542 21.7721 6.69098 20.941L7.0066 20.3097C4.17651 18.6155 2.25 15.5574 2.25 12Z" fill="#141B34"/>
<path fill-rule="evenodd" clip-rule="evenodd" d="M8.57996 8.64258C8.7676 8.50576 8.94513 8.35452 9.11169 8.19321C9.12435 8.18214 9.13672 8.17057 9.14878 8.15851C9.32705 7.98024 9.49403 7.78885 9.64413 7.58543L10.5285 8.46977C10.8214 8.76266 10.8214 9.23754 10.5285 9.53043C10.2356 9.82332 9.7607 9.82332 9.4678 9.53043L8.57996 8.64258Z" fill="#141B34"/>
<path fill-rule="evenodd" clip-rule="evenodd" d="M3.00415 1.24411L3.05915 1.24397C3.09254 1.24287 3.14031 1.24153 3.20084 1.24043C3.32184 1.23822 3.49428 1.23695 3.70522 1.24048C4.12587 1.2475 4.70578 1.27366 5.33958 1.35103C5.97066 1.42807 6.67353 1.55802 7.33315 1.77942C7.9855 1.99838 8.64835 2.32414 9.1488 2.82459C10.0393 3.7151 10.4467 4.69502 10.3811 5.68595C10.3344 6.39299 10.0514 7.03348 9.64414 7.58544L7.03033 4.97162C6.73744 4.67873 6.26256 4.67873 5.96967 4.97162C5.67678 5.26452 5.67678 5.73939 5.96967 6.03228L8.57997 8.64258C8.03281 9.04154 7.39963 9.31792 6.70157 9.36409C5.71064 9.42964 4.73072 9.02228 3.84022 8.13177C3.33977 7.63132 3.014 6.96847 2.79504 6.31613C2.57364 5.6565 2.44369 4.95363 2.36666 4.32255C2.28929 3.68875 2.26312 3.10885 2.2561 2.68819C2.25258 2.47725 2.25385 2.30481 2.25605 2.18381C2.25712 2.12543 2.26034 2.02757 2.26155 1.99073L2.26168 1.9869C2.26257 1.57716 2.59441 1.24517 3.00415 1.24411Z" fill="#141B34"/>
<path d="M19.9104 3.86135C19.2392 3.45692 18.5031 3.23868 17.8328 3.25045C17.1736 3.26203 16.4493 3.51109 16.0739 4.18977C15.7777 4.72527 15.8198 5.32229 16.0042 5.82564C16.0593 5.9761 16.0846 6.11456 16.0832 6.22502C16.0819 6.3315 16.057 6.38943 16.0335 6.4226L13.6758 9.75H19.2103L19.7024 8.5696C19.7191 8.52971 19.7519 8.48484 19.8278 8.4377C19.9091 8.38728 20.0265 8.34385 20.1711 8.31972C20.7029 8.231 21.2354 7.958 21.5355 7.41577C21.9043 6.74893 21.7513 5.99773 21.4418 5.4159C21.124 4.8183 20.5824 4.26628 19.9104 3.86135Z" fill="#141B34"/>
</svg>
