<svg width="24" height="24" viewBox="0 0 24 24" fill="none" xmlns="http://www.w3.org/2000/svg">
<path fill-rule="evenodd" clip-rule="evenodd" d="M5.68182 1.26848C6.08582 1.64504 6.10808 2.27781 5.73152 2.68182C4.79896 3.68237 4.18931 4.87282 3.98789 6.15518C3.90219 6.70077 3.39042 7.07359 2.84483 6.98789C2.29923 6.90219 1.92641 6.39043 2.01211 5.84483C2.28156 4.12945 3.09165 2.58081 4.26848 1.31819C4.64503 0.914178 5.27781 0.891924 5.68182 1.26848Z" fill="#141B34"/>
<path fill-rule="evenodd" clip-rule="evenodd" d="M12.75 1.2594V5.26746C11.9019 5.38877 11.25 6.11812 11.25 6.99974V8.99974C11.25 9.88136 11.9019 10.6107 12.75 10.732V11.9997C12.75 12.414 13.0858 12.7497 13.5 12.7497C13.9142 12.7497 14.25 12.414 14.25 11.9997V10.732C15.0981 10.6107 15.75 9.88136 15.75 8.99974V6.99974C15.75 6.11812 15.0981 5.38877 14.25 5.26746V1.2594C15.0552 1.27891 15.8687 1.32683 16.6201 1.38523C19.042 1.57346 20.9961 3.38964 21.3169 5.80944C21.543 7.51553 21.75 9.70289 21.75 12C21.75 14.3879 21.5263 16.6574 21.2899 18.3912C20.9762 20.692 19.1622 22.4641 16.8215 22.633C15.881 22.7008 14.7638 22.75 13.5 22.75C12.2362 22.75 11.119 22.7008 10.1785 22.633C7.83775 22.4641 6.02384 20.692 5.71009 18.3912C5.47366 16.6574 5.25 14.3879 5.25 12C5.25 9.70289 5.45697 7.51553 5.68311 5.80945C6.00386 3.38964 7.95804 1.57346 10.3799 1.38523C11.1313 1.32683 11.9448 1.27891 12.75 1.2594ZM14.25 8.99974C14.25 9.13781 14.1381 9.24974 14 9.24974H13C12.8619 9.24974 12.75 9.13781 12.75 8.99974V6.99974C12.75 6.86167 12.8619 6.74974 13 6.74974H14C14.1381 6.74974 14.25 6.86167 14.25 6.99974V8.99974Z" fill="#141B34"/>
</svg>
