<svg width="24" height="24" viewBox="0 0 24 24" fill="none" xmlns="http://www.w3.org/2000/svg">
<path fill-rule="evenodd" clip-rule="evenodd" d="M5.00063 1.25C5.41485 1.25021 5.75046 1.58617 5.75025 2.00038L5.75 2.49987C5.74993 2.63799 5.86188 2.75 6 2.75H11.9998C12.9661 2.75 13.7495 3.53316 13.7498 4.49944L13.7503 5.99976C13.7504 6.41397 13.4147 6.74987 13.0005 6.75C12.5863 6.75013 12.2504 6.41445 12.2503 6.00024L12.2498 4.49992C12.2498 4.36188 12.1379 4.25 11.9998 4.25H6C5.03316 4.25 4.24951 3.46596 4.25 2.49911L4.25025 1.99962C4.25046 1.58541 4.58642 1.24979 5.00063 1.25Z" fill="#141B34"/>
<path fill-rule="evenodd" clip-rule="evenodd" d="M13 5.25C12.163 5.25 11.2879 5.29028 10.4844 5.34491C8.22132 5.49879 6.36623 7.18821 6.06439 9.47683C5.89374 10.7707 5.75 12.3492 5.75 14C5.75 15.7257 5.90709 17.3727 6.08788 18.6983C6.38584 20.8832 8.11935 22.5335 10.315 22.6689C11.0886 22.7166 11.9904 22.75 13 22.75C14.0096 22.75 14.9114 22.7166 15.685 22.6689C17.8807 22.5335 19.6142 20.8832 19.9121 18.6983C20.0929 17.3727 20.25 15.7257 20.25 14C20.25 12.3492 20.1063 10.7707 19.9356 9.47683C19.6338 7.18821 17.7787 5.49879 15.5156 5.34491C14.7121 5.29028 13.837 5.25 13 5.25ZM14 8.5C14 7.94772 13.5523 7.5 13 7.5C12.4477 7.5 12 7.94772 12 8.5V10.5C12 11.0523 12.4477 11.5 13 11.5C13.5523 11.5 14 11.0523 14 10.5V8.5Z" fill="#141B34"/>
</svg>
