<svg width="24" height="24" viewBox="0 0 24 24" fill="none" xmlns="http://www.w3.org/2000/svg">
<path fill-rule="evenodd" clip-rule="evenodd" d="M11.25 1.29108C7.87464 1.66379 5.24918 4.52527 5.24918 7.99997C5.24918 8.65139 5.34167 9.28249 5.51472 9.88022C5.91451 11.2611 6.04581 12.9213 5.70803 14.2357C5.58889 14.6993 5.43022 15.3113 5.28403 15.774L5.24609 15.8941L5.24944 16.0199C5.34575 19.6373 8.30656 22.75 11.9992 22.75C15.6918 22.75 18.6526 19.6373 18.7489 16.0199L18.7523 15.8941L18.7143 15.774C18.5681 15.3113 18.4095 14.6993 18.2903 14.2357C17.9525 12.9213 18.0839 11.2611 18.4836 9.88022C18.6567 9.28249 18.7492 8.65139 18.7492 7.99997C18.7492 4.52584 16.1246 1.66471 12.75 1.29126V4.26677C13.5981 4.38808 14.25 5.11743 14.25 5.99905V7.99905C14.25 8.88066 13.5981 9.61002 12.75 9.73132V10.999C12.75 11.4133 12.4142 11.749 12 11.749C11.5858 11.749 11.25 11.4133 11.25 10.999V9.73132C10.4019 9.61002 9.75 8.88066 9.75 7.99905V5.99905C9.75 5.11743 10.4019 4.38808 11.25 4.26677V1.29108ZM11.25 5.99905C11.25 5.86098 11.3619 5.74905 11.5 5.74905H12.5C12.6381 5.74905 12.75 5.86098 12.75 5.99905V7.99905C12.75 8.13712 12.6381 8.24905 12.5 8.24905H11.5C11.3619 8.24905 11.25 8.13712 11.25 7.99905V5.99905Z" fill="#141B34"/>
</svg>
