<svg width="24" height="24" viewBox="0 0 24 24" fill="none" xmlns="http://www.w3.org/2000/svg">
<path fill-rule="evenodd" clip-rule="evenodd" d="M7.99997 5C7.99997 4.44772 8.44768 4 8.99997 4H18C18.5523 4 19 4.44772 19 5C19 5.55228 18.5523 6 18 6H8.99997C8.44768 6 7.99997 5.55228 7.99997 5Z" fill="#141B34"/>
<path fill-rule="evenodd" clip-rule="evenodd" d="M3.99997 5C3.99997 4.44772 4.44768 4 4.99997 4H5.00895C5.56123 4 6.00895 4.44772 6.00895 5C6.00895 5.55228 5.56123 6 5.00895 6H4.99997C4.44768 6 3.99997 5.55228 3.99997 5Z" fill="#141B34"/>
<path fill-rule="evenodd" clip-rule="evenodd" d="M7.99997 11C7.99997 10.4477 8.44768 10 8.99997 10H18C18.5523 10 19 10.4477 19 11C19 11.5523 18.5523 12 18 12H8.99997C8.44768 12 7.99997 11.5523 7.99997 11Z" fill="#141B34"/>
<path fill-rule="evenodd" clip-rule="evenodd" d="M3.99997 11.0068C3.99997 10.4546 4.44768 10.0068 4.99997 10.0068H5.00895C5.56123 10.0068 6.00895 10.4546 6.00895 11.0068C6.00895 11.5591 5.56123 12.0068 5.00895 12.0068H4.99997C4.44768 12.0068 3.99997 11.5591 3.99997 11.0068Z" fill="#141B34"/>
<path fill-rule="evenodd" clip-rule="evenodd" d="M3.99997 17.0137C3.99997 16.4614 4.44768 16.0137 4.99997 16.0137H5.00895C5.56123 16.0137 6.00895 16.4614 6.00895 17.0137C6.00895 17.566 5.56123 18.0137 5.00895 18.0137H4.99997C4.44768 18.0137 3.99997 17.566 3.99997 17.0137Z" fill="#141B34"/>
<path d="M16.7075 14.2934C16.4216 14.0071 15.9914 13.9213 15.6176 14.076C15.2438 14.2307 15 14.5954 15 15V16.0137H8.99997C8.44768 16.0137 7.99997 16.4614 7.99997 17.0137C7.99997 17.566 8.44768 18.0137 8.99997 18.0137H15V19C15 19.4044 15.2435 19.7689 15.617 19.9238C15.9905 20.0786 16.4205 19.9933 16.7066 19.7076L18.7066 17.7102C18.8943 17.5228 18.9998 17.2685 19 17.0033C19.0001 16.7381 18.895 16.4836 18.7075 16.296L16.7075 14.2934Z" fill="#141B34"/>
</svg>
