<svg width="24" height="24" viewBox="0 0 24 24" fill="none" xmlns="http://www.w3.org/2000/svg">
<path fill-rule="evenodd" clip-rule="evenodd" d="M4.05688 12.006C4.23143 14.5185 4.8252 17.3437 6.07529 20.3807C6.2855 20.8914 6.86993 21.135 7.38064 20.9248C7.89136 20.7146 8.13496 20.1302 7.92474 19.6195C6.81561 16.9249 6.26704 14.4277 6.07832 12.2073C5.7196 12.2589 5.34854 12.2649 4.97187 12.2198C4.65287 12.1817 4.34683 12.109 4.05688 12.006Z" fill="#141B34"/>
<path fill-rule="evenodd" clip-rule="evenodd" d="M8.48612 2.23017C8.56541 1.98428 8.51256 1.71489 8.34625 1.51719C8.17993 1.31949 7.92357 1.2213 7.66774 1.25732C3.11713 1.89808 1.53352 5.48815 1.2846 7.4552C1.02839 9.47986 2.21929 11.3528 4.05687 12.006C3.95336 10.516 3.99726 9.13608 4.13914 7.88709C4.20147 7.33833 4.69686 6.94401 5.24561 7.00634C5.79437 7.06868 6.18869 7.56407 6.12636 8.11282C5.98749 9.33526 5.95089 10.7082 6.07831 12.2073C7.94482 11.939 9.47713 10.4375 9.72554 8.47456C9.80713 7.82976 9.67362 7.22528 9.48909 6.68504C9.35955 6.30578 9.18516 5.90816 9.02282 5.53797L9.0228 5.53794L9.02278 5.5379C8.96195 5.39918 8.9028 5.26432 8.84834 5.13572C8.42445 4.13481 8.15919 3.24407 8.48612 2.23017Z" fill="#141B34"/>
<path fill-rule="evenodd" clip-rule="evenodd" d="M8.45903 17.0006C7.28751 18.2414 6.16349 19.7272 5.13535 21.4981C4.85805 21.9757 5.02045 22.5877 5.49807 22.865C5.9757 23.1423 6.58768 22.9799 6.86498 22.5023C7.66672 21.1213 8.52558 19.9369 9.41355 18.9232C9.19591 18.6454 9.00173 18.3371 8.83557 17.9988C8.67722 17.6764 8.55219 17.3422 8.45903 17.0006Z" fill="#141B34"/>
<path fill-rule="evenodd" clip-rule="evenodd" d="M22.5576 11.1626C20.5575 8.94697 18.2696 8.21114 16.1862 8.25155C14.1348 8.29134 12.3176 9.08036 11.1713 9.85834C8.8673 11.422 7.75612 14.4232 8.45903 17.0006C10.1027 15.2597 11.8399 14.0011 13.5369 13.114C14.0264 12.8581 14.6305 13.0475 14.8864 13.5369C15.1422 14.0264 14.9529 14.6306 14.4634 14.8864C12.7987 15.7566 11.0563 17.0478 9.41355 18.9232C11.0245 20.9788 13.9217 21.3547 16.2683 19.7621C16.9726 19.2841 17.4973 18.6165 17.9365 17.9232C18.2477 17.432 18.5418 16.8833 18.827 16.3513L18.827 16.3513C18.9375 16.1451 19.0467 15.9415 19.1549 15.7447C19.9621 14.2777 20.8178 13.0056 22.3032 12.3515C22.5235 12.2545 22.6839 12.0575 22.7343 11.8221C22.7847 11.5866 22.7189 11.3413 22.5576 11.1626Z" fill="#141B34"/>
</svg>
