<svg width="24" height="24" viewBox="0 0 24 24" fill="none" xmlns="http://www.w3.org/2000/svg">
<path fill-rule="evenodd" clip-rule="evenodd" d="M8 2C8 1.44772 7.55229 1 7 1C6.44772 1 6 1.44772 6 2V4H4C3.44772 4 3 4.44772 3 5C3 5.55228 3.44772 6 4 6H6V8C6 8.55229 6.44772 9 7 9C7.55229 9 8 8.55229 8 8V6H10C10.5523 6 11 5.55228 11 5C11 4.44772 10.5523 4 10 4L8 4V2ZM12.75 10C12.75 9.0335 13.5335 8.25 14.5 8.25H18.5C19.4665 8.25 20.25 9.0335 20.25 10V13C20.25 13.9665 19.4665 14.75 18.5 14.75H14.5C13.5335 14.75 12.75 13.9665 12.75 13V12.5H8V17.5C8 18.0523 8.44772 18.5 9 18.5H12.75V18C12.75 17.0335 13.5335 16.25 14.5 16.25H18.5C19.4665 16.25 20.25 17.0335 20.25 18V21C20.25 21.9665 19.4665 22.75 18.5 22.75H14.5C13.5335 22.75 12.75 21.9665 12.75 21V20.5H9C7.34315 20.5 6 19.1569 6 17.5V11C6 10.4477 6.44772 10 7 10C7.37014 10 7.69331 10.2011 7.86622 10.5H12.75V10Z" fill="#141B34"/>
</svg>
