<svg width="24" height="24" viewBox="0 0 24 24" fill="none" xmlns="http://www.w3.org/2000/svg">
<path fill-rule="evenodd" clip-rule="evenodd" d="M18 13C18.5523 13 19 13.4477 19 14V16.5H21.5C22.0523 16.5 22.5 16.9477 22.5 17.5C22.5 18.0523 22.0523 18.5 21.5 18.5H19V21C19 21.5523 18.5523 22 18 22C17.4477 22 17 21.5523 17 21V18.5H14.5C13.9477 18.5 13.5 18.0523 13.5 17.5C13.5 16.9477 13.9477 16.5 14.5 16.5H17V14C17 13.4477 17.4477 13 18 13Z" fill="#141B34"/>
<path fill-rule="evenodd" clip-rule="evenodd" d="M6 1C6.55228 1 7 1.44772 7 2V4.5C7 5.05228 6.55228 5.5 6 5.5C5.44772 5.5 5 5.05228 5 4.5V2C5 1.44772 5.44772 1 6 1ZM11 1C11.5523 1 12 1.44772 12 2V4.5C12 5.05228 11.5523 5.5 11 5.5C10.4477 5.5 10 5.05228 10 4.5V2C10 1.44772 10.4477 1 11 1ZM16 1C16.5523 1 17 1.44772 17 2V4.5C17 5.05228 16.5523 5.5 16 5.5C15.4477 5.5 15 5.05228 15 4.5V2C15 1.44772 15.4477 1 16 1Z" fill="#141B34"/>
<path fill-rule="evenodd" clip-rule="evenodd" d="M1.75 5.5C1.75 3.98122 2.98122 2.75 4.5 2.75L17.5 2.75C19.0188 2.75 20.25 3.98122 20.25 5.5L20.25 12.909C19.8448 12.0749 18.9895 11.5 18 11.5C16.6193 11.5 15.5 12.6193 15.5 14V15H14.5C13.1193 15 12 16.1193 12 17.5C12 18.8807 13.1193 20 14.5 20H15.5L15.5 21C15.5 21.6814 15.7726 22.2991 16.2146 22.75L4.5 22.75C2.98122 22.75 1.75 21.5188 1.75 20L1.75 5.5ZM7.5 9.25C7.08579 9.25 6.75 9.58579 6.75 10C6.75 10.4142 7.08579 10.75 7.5 10.75L13.7584 10.75C14.1726 10.75 14.5084 10.4142 14.5084 10C14.5084 9.58579 14.1726 9.25 13.7584 9.25L7.5 9.25ZM7.5 14.25C7.08579 14.25 6.75 14.5858 6.75 15C6.75 15.4142 7.08579 15.75 7.5 15.75H9.75839C10.1726 15.75 10.5084 15.4142 10.5084 15C10.5084 14.5858 10.1726 14.25 9.75839 14.25H7.5Z" fill="#141B34"/>
</svg>
