<svg width="24" height="24" viewBox="0 0 24 24" fill="none" xmlns="http://www.w3.org/2000/svg">
<path fill-rule="evenodd" clip-rule="evenodd" d="M6.25 12C6.25 8.82436 8.82436 6.25 12 6.25C15.1756 6.25 17.75 8.82436 17.75 12C17.75 15.1756 15.1756 17.75 12 17.75C8.82436 17.75 6.25 15.1756 6.25 12Z" fill="#141B34"/>
<path fill-rule="evenodd" clip-rule="evenodd" d="M12 3C7.02944 3 3 7.02944 3 12C3 16.9706 7.02944 21 12 21C16.9706 21 21 16.9706 21 12C21 11.6955 20.9849 11.3949 20.9555 11.0988C20.901 10.5492 21.3022 10.0595 21.8518 10.0049C22.4014 9.95033 22.8912 10.3516 22.9457 10.9012C22.9816 11.2629 23 11.6295 23 12C23 18.0751 18.0751 23 12 23C5.92487 23 1 18.0751 1 12C1 5.92487 5.92487 1 12 1C14.5281 1 16.8587 1.85393 18.7164 3.28796C19.1057 3.10346 19.5412 3 20 3C21.6569 3 23 4.34315 23 6C23 7.08908 22.419 8.04153 21.5549 8.56593C21.1007 8.84154 20.5674 9 20 9C18.3431 9 17 7.65685 17 6C17 5.5409 17.1035 5.10556 17.288 4.71643C15.8032 3.63638 13.9768 3 12 3Z" fill="#141B34"/>
</svg>
