<svg width="24" height="24" viewBox="0 0 24 24" fill="none" xmlns="http://www.w3.org/2000/svg">
<path fill-rule="evenodd" clip-rule="evenodd" d="M1.62305 13C1.62305 12.4477 2.07076 12 2.62305 12H5.62305C6.17533 12 6.62305 12.4477 6.62305 13C6.62305 13.5523 6.17533 14 5.62305 14H2.62305C2.07076 14 1.62305 13.5523 1.62305 13ZM1.62305 16C1.62305 15.4477 2.07076 15 2.62305 15H5.62305C6.17533 15 6.62305 15.4477 6.62305 16C6.62305 16.5523 6.17533 17 5.62305 17H2.62305C2.07076 17 1.62305 16.5523 1.62305 16Z" fill="#141B34"/>
<path fill-rule="evenodd" clip-rule="evenodd" d="M1.62305 19C1.62305 18.4477 2.07076 18 2.62305 18H5.62305C6.17533 18 6.62305 18.4477 6.62305 19C6.62305 19.5523 6.17533 20 5.62305 20H2.62305C2.07076 20 1.62305 19.5523 1.62305 19Z" fill="#141B34"/>
<path fill-rule="evenodd" clip-rule="evenodd" d="M13.019 1.33403C12.7669 1.22199 12.4792 1.22199 12.2271 1.33403L3.45206 5.23403C3.38598 5.2634 3.3243 5.29956 3.26771 5.34147C3.03487 5.46876 2.87695 5.71594 2.87695 6V6.03763C2.87436 6.0665 2.87305 6.09564 2.87305 6.125C2.87305 6.15436 2.87436 6.1835 2.87695 6.21237V10.5H5.62305C7.00376 10.5 8.12305 11.6193 8.12305 13C8.12305 13.5628 7.93707 14.0822 7.62323 14.5C7.93707 14.9178 8.12305 15.4372 8.12305 16C8.12305 16.5536 7.94309 17.0652 7.63847 17.4795C7.94309 17.8938 8.12305 18.4054 8.12305 18.959C8.12305 19.5688 7.9047 20.1276 7.54193 20.5615L12.3183 22.6853C12.5122 22.7715 12.7336 22.7716 12.9275 22.6854L21.9314 18.6854C22.2024 18.5651 22.377 18.2964 22.377 18V6.01357C22.377 5.74467 22.2354 5.50883 22.0228 5.37644C21.9546 5.31946 21.8779 5.27129 21.794 5.23403L13.019 1.33403ZM8.06408 6.93183L6.24871 6.125L12.623 3.29196L14.4384 4.09879L8.06408 6.93183ZM10.5263 8.02615L12.623 8.95804L18.9974 6.125L16.9006 5.19311L10.5263 8.02615Z" fill="#141B34"/>
</svg>
