<svg width="24" height="24" viewBox="0 0 24 24" fill="none" xmlns="http://www.w3.org/2000/svg">
<path fill-rule="evenodd" clip-rule="evenodd" d="M12.6525 1.38212C12.2341 1.20856 11.7659 1.20856 11.3475 1.38212L3.02166 4.83584C2.50543 5.04998 2.24821 5.52891 2.25001 6.00692V18.0052L2.25002 18.0096C2.25267 18.4606 2.50012 18.9517 3.02165 19.1681L11.3475 22.6218C11.5561 22.7083 11.7778 22.752 12 22.752C12.2222 22.752 12.4439 22.7083 12.6525 22.6218L20.9783 19.1681C21.4999 18.9517 21.7473 18.4606 21.75 18.0096L21.75 5.99948C21.7491 5.52395 21.4919 5.04887 20.9783 4.83584L12.6525 1.38212ZM11.9222 2.76764C11.9726 2.74672 12.0273 2.74672 12.0778 2.76764L14.8464 3.9161L7.24149 7.29461L4.12531 6.00195L11.9222 2.76764ZM9.1521 8.08717L16.757 4.70866L19.8747 6.00195L12.0778 9.23626C12.0273 9.25718 11.9726 9.25718 11.9222 9.23626L9.1521 8.08717ZM6.75 10.5004V8.71466L3.75 7.4702V17.8463L11.25 20.9574V10.5814L8.25 9.33689V10.5004C8.25 10.9147 7.91421 11.2504 7.5 11.2504C7.08579 11.2504 6.75 10.9147 6.75 10.5004ZM5 14.7584V16.6704C5 16.8704 5.1192 17.0512 5.30304 17.13L7.80304 18.2014C8.13297 18.3428 8.5 18.1008 8.5 17.7418V15.8298C8.5 15.6298 8.3808 15.449 8.19696 15.3702L5.69696 14.2988C5.36703 14.1574 5 14.3994 5 14.7584Z" fill="#141B34"/>
</svg>
