<svg width="24" height="24" viewBox="0 0 24 24" fill="none" xmlns="http://www.w3.org/2000/svg">
<path fill-rule="evenodd" clip-rule="evenodd" d="M10.979 1.33403C11.2311 1.22199 11.5189 1.22199 11.771 1.33403L20.546 5.23403C20.6298 5.27129 20.7065 5.31946 20.7748 5.37644C20.9874 5.50883 21.1289 5.74467 21.1289 6.01357V14.75H20.625V14C20.625 12.7574 19.6176 11.75 18.375 11.75C17.1324 11.75 16.125 12.7574 16.125 14V14.75H15.375C14.1324 14.75 13.125 15.7574 13.125 17C13.125 18.2426 14.1324 19.25 15.375 19.25H16.125V20C16.125 20.2319 16.1601 20.4555 16.2252 20.666L11.6795 22.6854C11.4856 22.7716 11.2642 22.7715 11.0703 22.6853L2.07419 18.6853C1.80341 18.5649 1.62891 18.2963 1.62891 18V6.21237C1.62632 6.1835 1.625 6.15436 1.625 6.125C1.625 6.09564 1.62632 6.0665 1.62891 6.03763V6C1.62891 5.71594 1.78683 5.46876 2.01966 5.34147C2.07626 5.29956 2.13793 5.2634 2.20402 5.23403L10.979 1.33403ZM5.00066 6.125L6.81603 6.93183L13.1904 4.09879L11.375 3.29196L5.00066 6.125ZM11.375 8.95804L9.27825 8.02615L15.6526 5.19311L17.7493 6.125L11.375 8.95804ZM4.67884 10.7214C4.83268 10.3368 5.26915 10.1498 5.65374 10.3036L8.15374 11.3036C8.53833 11.4574 8.72539 11.8939 8.57156 12.2785C8.41772 12.6631 7.98124 12.8501 7.59666 12.6963L5.09666 11.6963C4.71207 11.5425 4.52501 11.106 4.67884 10.7214ZM19.375 14C19.375 13.4477 18.9273 13 18.375 13C17.8227 13 17.375 13.4477 17.375 14V16H15.375C14.8227 16 14.375 16.4477 14.375 17C14.375 17.5523 14.8227 18 15.375 18H17.375V20C17.375 20.5523 17.8227 21 18.375 21C18.9273 21 19.375 20.5523 19.375 20V18H21.375C21.9273 18 22.375 17.5523 22.375 17C22.375 16.4477 21.9273 16 21.375 16H19.375V14Z" fill="#141B34"/>
</svg>
