<svg width="24" height="24" viewBox="0 0 24 24" fill="none" xmlns="http://www.w3.org/2000/svg">
<path fill-rule="evenodd" clip-rule="evenodd" d="M12.4347 2.38849C12.1746 2.20384 11.8262 2.20384 11.5662 2.38849C8.8449 4.32089 4.00666 8.77632 1.89833 11.7664C1.22308 12.7241 1.23936 13.8553 1.25147 14.6966C1.253 14.8026 1.25446 14.9041 1.25446 15C1.25446 15.25 1.37903 15.4836 1.58665 15.6228C1.79426 15.7621 2.05763 15.7888 2.28895 15.6939L4.12144 14.9427L7.38585 16.983C7.37446 18.0544 8.23892 19.0008 9.38728 19.0008H11V21C11 21.5523 11.4477 22 12 22C12.5523 22 13 21.5523 13 21V19.0008H14.6124C15.7606 19.0008 16.625 18.0546 16.6138 16.9833L19.8791 14.9425L21.7119 15.6939C21.9432 15.7888 22.2066 15.7621 22.4142 15.6228C22.6218 15.4836 22.7464 15.25 22.7464 15C22.7464 14.9041 22.7479 14.8026 22.7494 14.6966C22.7615 13.8553 22.7778 12.7241 22.1025 11.7664C19.9942 8.77632 15.156 4.32089 12.4347 2.38849ZM17.6003 14.0083L15.5767 13.1787L16.0947 14.9493L17.6003 14.0083ZM14.5127 16.66L13.2106 12.2087L12.0004 11.7126L10.7889 12.2093L9.48821 16.6558C9.47516 16.7388 9.45145 16.8211 9.41659 16.9006L9.38728 17.0008H11.9593C11.9728 17.0003 11.9864 17 12 17C12.0136 17 12.0272 17.0003 12.0407 17.0008H14.6124L14.5819 16.8966C14.5486 16.8197 14.5257 16.7403 14.5127 16.66ZM7.90511 14.949L8.42281 13.1793L6.40025 14.0085L7.90511 14.949Z" fill="#141B34"/>
</svg>
