<svg width="24" height="24" viewBox="0 0 24 24" fill="none" xmlns="http://www.w3.org/2000/svg">
<path fill-rule="evenodd" clip-rule="evenodd" d="M2 3C2 2.44772 2.44772 2 3 2H21C21.5523 2 22 2.44772 22 3C22 3.55228 21.5523 4 21 4H3C2.44772 4 2 3.55228 2 3Z" fill="#141B34"/>
<path fill-rule="evenodd" clip-rule="evenodd" d="M2 21C2 20.4477 2.44772 20 3 20H21C21.5523 20 22 20.4477 22 21C22 21.5523 21.5523 22 21 22H3C2.44772 22 2 21.5523 2 21Z" fill="#141B34"/>
<path fill-rule="evenodd" clip-rule="evenodd" d="M11.2929 5.79289C11.6834 5.40237 12.3166 5.40237 12.7071 5.79289L15.2071 8.29289C15.4931 8.57889 15.5787 9.00901 15.4239 9.38268C15.2691 9.75636 14.9045 10 14.5 10H13V14H14.5C14.9045 14 15.2691 14.2436 15.4239 14.6173C15.5787 14.991 15.4931 15.4211 15.2071 15.7071L12.7071 18.2071C12.3166 18.5976 11.6834 18.5976 11.2929 18.2071L8.79292 15.7071C8.50692 15.4211 8.42137 14.991 8.57615 14.6173C8.73093 14.2436 9.09557 14 9.50003 14H11V10H9.50003C9.09557 10 8.73093 9.75636 8.57615 9.38268C8.42137 9.00901 8.50692 8.57889 8.79292 8.29289L11.2929 5.79289Z" fill="#141B34"/>
</svg>
