<svg width="24" height="24" viewBox="0 0 24 24" fill="none" xmlns="http://www.w3.org/2000/svg">
<path fill-rule="evenodd" clip-rule="evenodd" d="M22.3902 13.9818C22.8145 14.3354 22.8718 14.9659 22.5182 15.3902L17.5182 21.3902C17.3384 21.606 17.076 21.7363 16.7953 21.749C16.5146 21.7617 16.2416 21.6558 16.0429 21.4571L13.5429 18.9571C13.1524 18.5666 13.1524 17.9334 13.5429 17.5429C13.9334 17.1524 14.5666 17.1524 14.9571 17.5429L16.6828 19.2686L20.9818 14.1098C21.3353 13.6856 21.9659 13.6282 22.3902 13.9818Z" fill="#141B34"/>
<path fill-rule="evenodd" clip-rule="evenodd" d="M1.44223 19.4339C1.17309 19.3128 1 19.0451 1 18.75V3.74996C1 3.49546 1.12906 3.25833 1.34277 3.12015C1.55635 2.98205 1.82534 2.96161 2.05732 3.06582C2.0893 3.07928 2.18034 3.11746 2.24712 3.14351C2.38074 3.19562 2.58121 3.26952 2.83888 3.35235C3.35494 3.51822 4.09621 3.7185 4.98626 3.85201C6.7715 4.1198 9.11473 4.11339 11.4422 3.06602L11.4495 3.06294C11.4996 3.04188 11.6264 2.98845 11.7021 2.95894C11.8614 2.89679 12.0907 2.81249 12.3799 2.71953C12.9576 2.53385 13.7788 2.31225 14.7637 2.16451C16.7285 1.8698 19.3853 1.86339 22.0578 3.06602C22.3269 3.18713 22.5 3.45483 22.5 3.74996V12.3645C21.5621 12.07 20.4978 12.3475 19.8294 13.1496L16.582 17.0465L16.0178 16.4823C15.0415 15.5059 13.4585 15.5059 12.4822 16.4823C11.6819 17.2825 11.5377 18.4904 12.0494 19.4377C9.37985 20.6363 6.72633 20.6298 4.76374 20.3354C3.77879 20.1877 2.95756 19.9661 2.37987 19.7804C2.09066 19.6874 1.86145 19.6031 1.7021 19.541C1.6224 19.5099 1.56008 19.4843 1.51638 19.4659C1.49664 19.4576 1.46217 19.4426 1.44655 19.4358L1.44651 19.4358L1.44616 19.4356L1.44223 19.4339ZM11.7507 8.25391C10.0933 8.25391 8.75 9.59788 8.75 11.2554C8.75 12.9129 10.0933 14.2569 11.7507 14.2569C13.4081 14.2569 14.7515 12.9129 14.7515 11.2554C14.7515 9.59788 13.4081 8.25391 11.7507 8.25391ZM5.25 11.2559C5.80228 11.2559 6.25 11.7036 6.25 12.2559V12.2649C6.25 12.8171 5.80228 13.2649 5.25 13.2649C4.69772 13.2649 4.25 12.8171 4.25 12.2649V12.2559C4.25 11.7036 4.69772 11.2559 5.25 11.2559ZM19.2539 10.2461C19.2539 9.69381 18.8062 9.24609 18.2539 9.24609C17.7016 9.24609 17.2539 9.69381 17.2539 10.2461V10.2551C17.2539 10.8074 17.7016 11.2551 18.2539 11.2551C18.8062 11.2551 19.2539 10.8074 19.2539 10.2551V10.2461Z" fill="#141B34"/>
</svg>
