<svg width="24" height="24" viewBox="0 0 24 24" fill="none" xmlns="http://www.w3.org/2000/svg">
<path d="M13.8545 5.6357C14.5113 4.83995 15.7106 4.78272 16.4402 5.51231L21.4908 10.5629C22.2204 11.2925 22.1632 12.4918 21.3674 13.1487L19.6309 14.582L12.4211 7.37225L13.8545 5.6357Z" fill="#141B34"/>
<path d="M11.264 8.33646L18.6667 15.7391L16.4432 21.5201C16.3406 21.7868 16.0956 21.972 15.8111 21.9978L5.07872 23L10.4281 17.6507C10.8584 17.8867 11.3043 17.978 11.6867 18.012C12.0993 18.0487 12.4635 17.744 12.5002 17.3314C12.5369 16.9188 12.2321 16.5546 11.8196 16.5179C11.4634 16.4862 11.1621 16.3925 10.9207 16.1711C10.9093 16.1581 10.8975 16.1454 10.8851 16.133C10.8727 16.1206 10.86 16.1087 10.847 16.0974C10.6255 15.856 10.5318 15.5546 10.5002 15.1985C10.4635 14.7859 10.0993 14.4812 9.68669 14.5179C9.2741 14.5546 8.96938 14.9188 9.00607 15.3314C9.04008 15.7138 9.13138 16.1596 9.3674 16.59L4.00015 21.9573L5.0053 11.192C5.03116 10.9076 5.21638 10.6625 5.48299 10.5599L11.264 8.33646Z" fill="#141B34"/>
<path fill-rule="evenodd" clip-rule="evenodd" d="M1 3C1 2.44772 1.44772 2 2 2H8C8.55228 2 9 2.44772 9 3C9 3.55228 8.55228 4 8 4H2C1.44772 4 1 3.55228 1 3Z" fill="#141B34"/>
</svg>
