<svg width="24" height="24" viewBox="0 0 24 24" fill="none" xmlns="http://www.w3.org/2000/svg">
<path fill-rule="evenodd" clip-rule="evenodd" d="M12 2.25C12.2508 2.25 12.4849 2.37533 12.624 2.58397L18.624 11.584C18.7062 11.7072 18.75 11.8519 18.75 12L18.75 21C18.75 21.4142 18.4142 21.75 18 21.75C17.5858 21.75 17.25 21.4142 17.25 21L17.25 12.2271L13.9825 7.32587C13.8778 7.36777 13.7527 7.41466 13.6122 7.46151C13.1997 7.59899 12.6134 7.75 12 7.75C11.3866 7.75 10.8003 7.59899 10.3878 7.46151C10.2473 7.41466 10.1222 7.36777 10.0175 7.32587L6.75 12.2271V21C6.75 21.4142 6.41421 21.75 6 21.75C5.58579 21.75 5.25 21.4142 5.25 21V12C5.25 11.8519 5.29383 11.7072 5.37596 11.584L11.376 2.58397C11.5151 2.37533 11.7492 2.25 12 2.25Z" fill="#141B34"/>
<path d="M12.75 21.75H18C18.1989 21.75 18.3897 21.671 18.5303 21.5303C18.671 21.3897 18.75 21.1989 18.75 21L18.75 12C18.75 11.7401 18.6154 11.4987 18.3943 11.362C18.1732 11.2254 17.8971 11.2129 17.6646 11.3292L15 12.6615L12.75 11.5365V21.75Z" fill="#141B34"/>
<path d="M11.25 11.5365V21.75H6C5.58579 21.75 5.25 21.4142 5.25 21V12C5.25 11.7401 5.38459 11.4987 5.6057 11.362C5.82681 11.2254 6.10292 11.2129 6.33541 11.3292L9 12.6615L11.25 11.5365Z" fill="#141B34"/>
</svg>
