<svg width="24" height="24" viewBox="0 0 24 24" fill="none" xmlns="http://www.w3.org/2000/svg">
<path fill-rule="evenodd" clip-rule="evenodd" d="M5 2.25C3.48122 2.25 2.25 3.48122 2.25 5V19C2.25 20.5188 3.48122 21.75 5 21.75H19C20.5188 21.75 21.75 20.5188 21.75 19V5C21.75 3.48122 20.5188 2.25 19 2.25H5ZM9 7.25C8.58579 7.25 8.25 7.58579 8.25 8V16C8.25 16.4142 8.58579 16.75 9 16.75H13C13.4142 16.75 13.75 16.4142 13.75 16V13.7405C15.4281 13.6129 16.75 12.2108 16.75 10.5C16.75 8.70507 15.2949 7.25 13.5 7.25H9ZM9.75 15.25V8.75H13.5C14.4665 8.75 15.25 9.5335 15.25 10.5C15.25 11.4665 14.4665 12.25 13.5 12.25H13C12.5858 12.25 12.25 12.5858 12.25 13V15.25H9.75Z" fill="#141B34"/>
</svg>
