<svg width="24" height="24" viewBox="0 0 24 24" fill="none" xmlns="http://www.w3.org/2000/svg">
<path fill-rule="evenodd" clip-rule="evenodd" d="M4.75 2C3.23122 2 2 3.23122 2 4.75V19.75C2 21.2688 3.23122 22.5 4.75 22.5H19.75C21.2688 22.5 22.5 21.2688 22.5 19.75V4.75C22.5 3.23122 21.2688 2 19.75 2H4.75ZM12.25 6.5C9.07436 6.5 6.5 9.07436 6.5 12.25C6.5 15.4256 9.07436 18 12.25 18C15.4256 18 18 15.4256 18 12.25C18 11.8358 17.6642 11.5 17.25 11.5H13V7.25C13 6.83579 12.6642 6.5 12.25 6.5Z" fill="#141B34"/>
</svg>
