<svg width="24" height="24" viewBox="0 0 24 24" fill="none" xmlns="http://www.w3.org/2000/svg">
<path fill-rule="evenodd" clip-rule="evenodd" d="M3.00168 12.0899C3.02884 12.5934 3.38373 12.9163 3.90754 12.9794C4.46017 13.0461 4.9013 12.7872 5.03136 12.2802C5.14481 11.8379 5.54341 11.5287 6 11.5287C6.45658 11.5287 6.85519 11.8379 6.96864 12.2802C7.08228 12.7232 7.4756 13 8 13C8.52439 13 8.91772 12.7232 9.03136 12.2802C9.14481 11.8379 9.54342 11.5287 10 11.5287C10.4566 11.5287 10.8552 11.8379 10.9686 12.2802C11.0823 12.7232 11.4756 13 12 13C12.5244 13 12.9177 12.7232 13.0314 12.2802C13.1448 11.8379 13.5434 11.5287 14 11.5287C14.4566 11.5287 14.8552 11.8379 14.9686 12.2802C15.0823 12.7232 15.4756 13 16 13C16.5244 13 16.9177 12.7232 17.0314 12.2802C17.1448 11.8379 17.5434 11.5287 18 11.5287C18.4566 11.5287 18.8552 11.8379 18.9686 12.2802C19.0987 12.7872 19.5398 13.0461 20.0925 12.9794C20.6163 12.9163 20.9712 12.5934 20.9983 12.0899C20.9907 12.0436 20.9784 11.9734 20.9598 11.8826C20.9206 11.6914 20.8544 11.4106 20.7484 11.0701C20.5354 10.3863 20.1673 9.47959 19.5501 8.57872C18.3437 6.81803 16.1398 5 12 5C7.86022 5 5.65633 6.81803 4.44993 8.57872C3.83266 9.47959 3.46462 10.3863 3.25164 11.0701C3.1456 11.4106 3.07936 11.6914 3.04024 11.8826C3.02165 11.9734 3.00926 12.0436 3.00168 12.0899ZM22.9923 11.9033C22.9974 11.9444 23 11.9856 23 12.027C23 13.8001 21.6451 14.8067 20.3319 14.965C19.5428 15.0602 18.6613 14.8618 17.991 14.315C17.4153 14.7782 16.687 15 16 15C15.3094 15 14.5771 14.7759 14 14.3077C13.4229 14.7759 12.6906 15 12 15C11.3094 15 10.5771 14.7759 10 14.3077C9.42291 14.7759 8.69059 15 8 15C7.31297 15 6.58466 14.7782 6.00896 14.315C5.33872 14.8618 4.45722 15.0602 3.66809 14.965C2.35485 14.8067 1 13.8001 1 12.027C1 11.9856 1.00256 11.9444 1.00767 11.9033L1.00782 11.9022L1.00799 11.9008L1.0084 11.8976L1.00955 11.8888L1.01317 11.8627C1.01619 11.8415 1.02049 11.8127 1.02629 11.777C1.03788 11.7054 1.05547 11.6056 1.08086 11.4816C1.13158 11.2337 1.21377 10.8875 1.34211 10.4754C1.59788 9.65419 2.04234 8.55413 2.80007 7.44825C4.34367 5.19545 7.13978 3 12 3C16.8602 3 19.6563 5.19545 21.1999 7.44825C21.9577 8.55413 22.4021 9.65419 22.6579 10.4754C22.7862 10.8875 22.8684 11.2337 22.9191 11.4816C22.9445 11.6056 22.9621 11.7054 22.9737 11.777C22.9795 11.8127 22.9838 11.8415 22.9868 11.8627L22.9904 11.8888L22.9916 11.8976L22.992 11.9008L22.9922 11.9022L22.9923 11.9033Z" fill="#141B34"/>
<path fill-rule="evenodd" clip-rule="evenodd" d="M12.0002 6.65039C12.5525 6.65039 13.0002 7.09811 13.0002 7.65039V8.65039C13.0002 9.20268 12.5525 9.65039 12.0002 9.65039C11.4479 9.65039 11.0002 9.20268 11.0002 8.65039V7.65039C11.0002 7.09811 11.4479 6.65039 12.0002 6.65039ZM9.44743 7.25596C9.94141 7.50295 10.1416 8.10363 9.89465 8.5976L9.39465 9.5976C9.14766 10.0916 8.54698 10.2918 8.05301 10.0448C7.55903 9.79783 7.3588 9.19716 7.60579 8.70318L8.10579 7.70318C8.35278 7.2092 8.95345 7.00897 9.44743 7.25596ZM14.553 7.25596C15.047 7.00897 15.6477 7.2092 15.8946 7.70318L16.3946 8.70318C16.6416 9.19716 16.4414 9.79783 15.9474 10.0448C15.4535 10.2918 14.8528 10.0916 14.6058 9.5976L14.1058 8.5976C13.8588 8.10363 14.059 7.50295 14.553 7.25596Z" fill="#141B34"/>
<path fill-rule="evenodd" clip-rule="evenodd" d="M6.00054 11.5293C6.45713 11.5293 6.85573 11.8386 6.96918 12.2808C7.08282 12.7238 7.47614 13.0006 8.00054 13.0006C8.52493 13.0006 8.91826 12.7238 9.0319 12.2808C9.14535 11.8386 9.54395 11.5293 10.0005 11.5293C10.4571 11.5293 10.8557 11.8386 10.9692 12.2808C11.0828 12.7238 11.4761 13.0006 12.0005 13.0006C12.5249 13.0006 12.9183 12.7238 13.0319 12.2808C13.1453 11.8386 13.544 11.5293 14.0005 11.5293C14.4571 11.5293 14.8557 11.8386 14.9692 12.2808C15.0828 12.7238 15.4761 13.0006 16.0005 13.0006C16.5249 13.0006 16.9183 12.7238 17.0319 12.2808C17.1453 11.8386 17.544 11.5293 18.0005 11.5293C18.4571 11.5293 18.8557 11.8386 18.9692 12.2808C19.0508 12.5992 19.2285 12.7795 19.4407 12.882C19.6745 12.9949 19.98 13.0235 20.2715 12.9458C20.6392 12.8477 21.0307 12.9668 21.2815 13.2531C21.5322 13.5394 21.5988 13.9432 21.4531 14.2948L19.9493 17.9237L19.9303 17.9692C19.698 18.5268 19.4937 19.0172 19.28 19.4055C19.0487 19.8258 18.7647 20.2079 18.3313 20.4968C17.8979 20.7857 17.436 20.9009 16.9591 20.9528C16.5185 21.0007 15.9873 21.0007 15.3832 21.0006H8.61792C8.0138 21.0007 7.48261 21.0007 7.04196 20.9528C6.56506 20.9009 6.10313 20.7857 5.66977 20.4968C5.23642 20.2079 4.95238 19.8258 4.72108 19.4055C4.50738 19.0172 4.3031 18.5269 4.07078 17.9692L2.53441 14.2936C2.38695 13.9409 2.45356 13.5349 2.70602 13.2477C2.95848 12.9605 3.3526 12.8425 3.72136 12.9435C4.01341 13.0236 4.32117 12.9964 4.55703 12.8836C4.77101 12.7813 4.94989 12.6005 5.0319 12.2808C5.14535 11.8386 5.54395 11.5293 6.00054 11.5293Z" fill="#141B34"/>
</svg>
