<svg width="24" height="24" viewBox="0 0 24 24" fill="none" xmlns="http://www.w3.org/2000/svg">
<path fill-rule="evenodd" clip-rule="evenodd" d="M1.75 4.17857C1.75 2.56117 3.06117 1.25 4.67857 1.25H19.3214C20.9388 1.25 22.25 2.56117 22.25 4.17857V11.4762C22.25 12.0153 21.8129 12.4524 21.2738 12.4524C20.7347 12.4524 20.2976 12.0153 20.2976 11.4762V9.05952L9.55952 9.05952V19.7976H10.5238C11.0629 19.7976 11.5 20.2347 11.5 20.7738C11.5 21.3129 11.0629 21.75 10.5238 21.75H4.67857C3.06117 21.75 1.75 20.4388 1.75 18.8214V4.17857ZM3.70238 9.05952V18.8214C3.70238 19.3606 4.13944 19.7976 4.67857 19.7976H7.60714V9.05952L3.70238 9.05952ZM7.60714 7.10714L3.70238 7.10714V4.17857C3.70238 3.63944 4.13944 3.20238 4.67857 3.20238H7.60714V7.10714ZM9.55952 7.10714H20.2976V4.17857C20.2976 3.63944 19.8606 3.20238 19.3214 3.20238H9.55952V7.10714Z" fill="#141B34"/>
<path fill-rule="evenodd" clip-rule="evenodd" d="M21.25 14.25C21.8023 14.25 22.25 14.6977 22.25 15.25V17.25C22.25 18.9069 20.9069 20.25 19.25 20.25H16.1642L16.9571 21.0429C17.3476 21.4334 17.3476 22.0666 16.9571 22.4571C16.5666 22.8476 15.9334 22.8476 15.5429 22.4571L13.0429 19.9571C12.6524 19.5666 12.6524 18.9334 13.0429 18.5429L15.5429 16.0429C15.9334 15.6524 16.5666 15.6524 16.9571 16.0429C17.3476 16.4334 17.3476 17.0666 16.9571 17.4571L16.1642 18.25H19.25C19.8023 18.25 20.25 17.8023 20.25 17.25V15.25C20.25 14.6977 20.6977 14.25 21.25 14.25Z" fill="#141B34"/>
</svg>
