<svg width="24" height="24" viewBox="0 0 24 24" fill="none" xmlns="http://www.w3.org/2000/svg">
<path d="M4.13671 3.40315C6.61239 2.00871 9.25318 1.25 11.999 1.25C14.7449 1.25 17.3857 2.00871 19.8614 3.40315L19.9 3.42491C20.2165 3.6031 20.5216 3.77488 20.7557 3.95708C21.0266 4.16786 21.2628 4.43637 21.3774 4.82697C21.4952 5.22821 21.4303 5.59331 21.3121 5.92021C21.2074 6.20961 21.0348 6.53557 20.851 6.88251L20.3026 7.91845C20.2259 7.8741 20.1329 7.81805 20.0321 7.75575C19.8287 7.63005 19.608 7.48815 19.4529 7.3867C19.2041 7.16643 18.9964 6.90618 18.8402 6.61626C17.781 4.65013 15.3594 3.80132 13.2518 4.60103C12.5262 4.87634 11.7149 4.8688 10.9953 4.58029C8.90357 3.74161 6.4662 4.54617 5.36818 6.49117C5.18505 6.81555 4.93685 7.10092 4.63903 7.33253C4.43265 7.40674 4.16023 7.5036 3.91332 7.5891C3.79085 7.6315 3.67669 7.67041 3.58095 7.7021L3.14705 6.88252C2.9633 6.53558 2.79067 6.20961 2.68602 5.92021C2.5678 5.59331 2.5029 5.22821 2.62065 4.82697C2.73529 4.43636 2.9715 4.16786 3.24234 3.95707C3.47644 3.77488 3.78154 3.60311 4.09804 3.42492L4.13671 3.40315Z" fill="#141B34"/>
<path fill-rule="evenodd" clip-rule="evenodd" d="M19.5833 9.23511L19.6004 9.24485L12.6619 22.3509C12.5319 22.5964 12.2768 22.75 11.999 22.75C11.7212 22.75 11.4662 22.5964 11.3362 22.3509L7.8597 15.7842C7.9662 15.7711 8.07112 15.7528 8.17421 15.7296C9.64993 15.4149 10.7489 14.0963 10.7489 12.5253C10.7489 10.7235 9.30095 9.25 7.49893 9.25C7.25463 9.25 7.01648 9.27726 6.78741 9.32888C6.07996 9.47971 5.45909 9.86128 5.00437 10.3908L4.29199 9.04517L4.40412 9.00653C4.704 8.90269 5.03785 8.78349 5.254 8.70532C5.31992 8.68148 5.38216 8.64852 5.43893 8.6074C5.94211 8.2429 6.36594 7.77497 6.6744 7.22858C7.38666 5.96692 9.01211 5.4012 10.4371 5.97255C11.5062 6.4012 12.7067 6.4122 13.7839 6.00347C15.2209 5.45824 16.8337 6.05435 17.5196 7.32767C17.7726 7.79729 18.1103 8.21176 18.5107 8.55517C18.5349 8.57591 18.5603 8.59509 18.587 8.6126C18.7504 8.72002 19.0059 8.88491 19.2436 9.03181C19.3621 9.10502 19.4807 9.17655 19.5833 9.23511ZM12.9979 9C12.9979 8.44772 13.4456 8 13.9979 8H14.0068C14.5591 8 15.0068 8.44772 15.0068 9C15.0068 9.55229 14.5591 10 14.0068 10H13.9979C13.4456 10 12.9979 9.55228 12.9979 9ZM14.4988 11.75C13.7549 11.75 13.0738 12.1144 12.5935 12.5947C12.1133 13.0749 11.7488 13.7561 11.7488 14.5C11.7488 14.9142 12.0846 15.25 12.4988 15.25C12.9131 15.25 13.2488 14.9142 13.2488 14.5C13.2488 14.2439 13.3844 13.9251 13.6542 13.6553C13.9239 13.3856 14.2428 13.25 14.4988 13.25C14.9131 13.25 15.2488 12.9142 15.2488 12.5C15.2488 12.0858 14.9131 11.75 14.4988 11.75Z" fill="#141B34"/>
<path d="M7.05235 14.2592L5.81981 11.9311C5.94412 11.5947 6.1688 11.3089 6.45226 11.1024C6.64514 10.956 6.86799 10.8494 7.1101 10.7938L7.11334 10.7931C7.23732 10.7649 7.36633 10.75 7.49893 10.75C8.45834 10.75 9.24893 11.5377 9.24893 12.5253C9.24893 13.1219 8.95944 13.6469 8.51859 13.9682C8.32571 14.1146 8.09365 14.209 7.85155 14.2646L7.8483 14.2654C7.72432 14.2936 7.59531 14.3084 7.46271 14.3084C7.32161 14.3084 7.18417 14.2914 7.05235 14.2592Z" fill="#141B34"/>
</svg>
