<svg width="24" height="24" viewBox="0 0 24 24" fill="none" xmlns="http://www.w3.org/2000/svg">
<path fill-rule="evenodd" clip-rule="evenodd" d="M1.5 8H22.5V19.5C22.5 21.1568 21.1569 22.5 19.5 22.5H4.5C2.84315 22.5 1.5 21.1568 1.5 19.5V8ZM11.9395 10.8448C10.7745 10.1034 9.25 10.9403 9.25 12.3212V15.6779C9.25 17.0588 10.7745 17.8956 11.9395 17.1543L14.5769 15.4759C15.6575 14.7883 15.6575 13.2108 14.5769 12.5231L11.9395 10.8448Z" fill="#141B34"/>
<path d="M9.96922 1.5L6.50792 6H1.5V4.5C1.5 2.84315 2.84315 1.5 4.5 1.5H9.96922Z" fill="#141B34"/>
<path d="M19.4926 1.5L16.0312 6H22.5001V4.5C22.5001 2.84315 21.157 1.5 19.5001 1.5H19.4926Z" fill="#141B34"/>
<path d="M12.4926 1.5L9.03125 6H13.5081L16.9694 1.5H12.4926Z" fill="#141B34"/>
</svg>
