<svg width="24" height="24" viewBox="0 0 24 24" fill="none" xmlns="http://www.w3.org/2000/svg">
<path fill-rule="evenodd" clip-rule="evenodd" d="M12 2C12.5523 2 13 2.44772 13 3V9H19C19.5523 9 20 9.44772 20 10C20 10.5523 19.5523 11 19 11H13V17C13 17.5523 12.5523 18 12 18C11.4477 18 11 17.5523 11 17V11H5C4.44772 11 4 10.5523 4 10C4 9.44772 4.44772 9 5 9H11V3C11 2.44772 11.4477 2 12 2Z" fill="#141B34"/>
<path fill-rule="evenodd" clip-rule="evenodd" d="M20 21C20 21.5523 19.5523 22 19 22H5C4.44771 22 4 21.5523 4 21C4 20.4477 4.44771 20 5 20H19C19.5523 20 20 20.4477 20 21Z" fill="#141B34"/>
</svg>
