<svg width="24" height="24" viewBox="0 0 24 24" fill="none" xmlns="http://www.w3.org/2000/svg">
<path fill-rule="evenodd" clip-rule="evenodd" d="M18.2929 1.79289C18.6834 1.40237 19.3166 1.40237 19.7071 1.79289L22.2071 4.29289C22.5976 4.68342 22.5976 5.31658 22.2071 5.70711L19.7071 8.20711C19.3166 8.59763 18.6834 8.59763 18.2929 8.20711C17.9024 7.81658 17.9024 7.18342 18.2929 6.79289L19.0858 6H15.5C14.9477 6 14.5 5.55228 14.5 5C14.5 4.44772 14.9477 4 15.5 4H19.0858L18.2929 3.20711C17.9024 2.81658 17.9024 2.18342 18.2929 1.79289Z" fill="#141B34"/>
<path fill-rule="evenodd" clip-rule="evenodd" d="M8.9687 5.28334C9.87624 4.56867 11.1589 4.57176 12.0635 5.29549C13.1629 6.17497 13.3147 7.79041 12.3985 8.85934L11.6307 9.75514L19.75 9.75513C21.1307 9.75513 22.25 10.8744 22.25 12.2551C22.25 13.6358 21.1307 14.7551 19.75 14.7551H14.25V18.5C14.25 20.5711 12.5711 22.25 10.5 22.25H5.5C3.42893 22.25 1.75 20.5711 1.75 18.5L1.75 11.57C1.75 10.6508 2.20925 9.79239 2.97393 9.2823L8.9687 5.28334Z" fill="#141B34"/>
</svg>
