<svg width="24" height="24" viewBox="0 0 24 24" fill="none" xmlns="http://www.w3.org/2000/svg">
<path fill-rule="evenodd" clip-rule="evenodd" d="M18.6172 1.07612C18.9909 0.921338 19.421 1.00689 19.707 1.29289L22.207 3.79289C22.5975 4.18342 22.5975 4.81658 22.207 5.2071L19.707 7.70711C19.421 7.9931 18.9909 8.07866 18.6172 7.92388C18.2436 7.7691 17.9999 7.40446 17.9999 7V5.5L15.4999 5.5C14.9476 5.5 14.4999 5.05228 14.4999 4.5C14.4999 3.94771 14.9476 3.5 15.4999 3.5L17.9999 3.5V2C17.9999 1.59554 18.2436 1.2309 18.6172 1.07612Z" fill="#141B34"/>
<path d="M9.80966 9.89289L20.9512 9.89289C21.6672 9.89289 22.2476 10.4733 22.2476 11.1893C22.2476 11.9053 21.6672 12.4857 20.9512 12.4857H12.5111C12.2625 12.4857 12.0611 12.6872 12.0611 12.9357C12.0611 13.1842 12.2625 13.3857 12.5111 13.3857H15.7016C15.7016 13.3857 15.7344 13.6066 15.7461 13.7491C15.77 14.041 15.7461 14.4991 15.7461 14.4991C15.7461 15.0248 15.5658 15.5085 15.2636 15.8915H11.6416C11.3931 15.8915 11.1916 16.093 11.1916 16.3415C11.1916 16.59 11.3931 16.7915 11.6416 16.7915H14.7461V17.4991C14.7461 18.234 14.3937 18.8867 13.8488 19.2973H10.9962C10.7477 19.2973 10.5462 19.4988 10.5462 19.7473C10.5462 19.9958 10.7477 20.1973 10.9962 20.1973H13.7461V20.4991C13.7461 21.7418 12.7387 22.7491 11.4961 22.7491H5.49609C3.42503 22.7491 1.74609 21.0702 1.74609 18.9991V11.0937C1.74609 10.1553 2.2246 9.28168 3.01534 8.7764L10.0719 4.27235C10.657 3.89892 11.4191 3.96076 11.9363 4.42365C12.6031 5.02038 12.6262 6.05659 11.9867 6.68247L9.49369 9.12248C9.36369 9.25068 9.32404 9.44473 9.39332 9.61365C9.4626 9.78257 9.62708 9.89289 9.80966 9.89289Z" fill="#141B34"/>
</svg>
