<svg width="24" height="24" viewBox="0 0 24 24" fill="none" xmlns="http://www.w3.org/2000/svg">
<path fill-rule="evenodd" clip-rule="evenodd" d="M1.75 5C1.75 2.92893 3.42893 1.25 5.5 1.25H18.5C20.5711 1.25 22.25 2.92893 22.25 5V14C22.25 16.0711 20.5711 17.75 18.5 17.75L5.5 17.75C3.42893 17.75 1.75 16.0711 1.75 14V5Z" fill="#141B34"/>
<path fill-rule="evenodd" clip-rule="evenodd" d="M12 16C11.4477 16 11 16.4477 11 17L11 22C11 22.5523 11.4477 23 12 23C12.5523 23 13 22.5523 13 22L13 17C13 16.4477 12.5523 16 12 16Z" fill="#141B34"/>
<path fill-rule="evenodd" clip-rule="evenodd" d="M11.4856 18.1425C11.8023 17.9525 12.1979 17.9525 12.5146 18.1425L17.5145 21.1425C17.9881 21.4267 18.1417 22.0409 17.8575 22.5145C17.5734 22.9881 16.9591 23.1416 16.4855 22.8575L12.0001 20.1662L7.51452 22.8575C7.04094 23.1416 6.42668 22.9881 6.14253 22.5145C5.85839 22.0409 6.01196 21.4266 6.48554 21.1425L11.4856 18.1425Z" fill="#141B34"/>
</svg>
