<svg width="24" height="24" viewBox="0 0 24 24" fill="none" xmlns="http://www.w3.org/2000/svg">
<path fill-rule="evenodd" clip-rule="evenodd" d="M8.5 1.25C7.56748 1.25 6.61698 1.83306 6.29287 2.75007C6.19283 3.0331 6.2712 3.34853 6.49208 3.55183L9.47978 6.05945C9.61823 6.18688 9.79953 6.25762 9.9877 6.25762H17C17.75 6.25762 17.75 5.50762 17.75 5.50762V3.5C17.75 2.25736 16.7426 1.25 15.5 1.25H8.5ZM5 7.25C2.92893 7.25 1.25 8.92893 1.25 11V17C1.25 17.9665 2.0335 18.75 3 18.75H7C7.41421 18.75 7.75 18.4142 7.75 18V16.75H16C16.3033 16.75 16.5768 16.5673 16.6929 16.287C16.809 16.0068 16.7448 15.6842 16.5303 15.4697L8.53033 7.46967C8.38968 7.32902 8.19891 7.25 8 7.25H5ZM12.5 7.25C12.2003 7.25 11.9293 7.42847 11.8109 7.70386C11.6926 7.97924 11.7496 8.29865 11.9558 8.51613L21.1629 18.2232C21.3022 18.3701 21.4949 18.4544 21.6972 18.457C21.8995 18.4597 22.0944 18.3805 22.2374 18.2374C22.5533 17.9216 22.75 17.483 22.75 17V11C22.75 8.92893 21.0711 7.25 19 7.25H12.5ZM18.5 10.5C17.9477 10.5 17.5 10.9477 17.5 11.5C17.5 12.0523 17.9477 12.5 18.5 12.5H18.509C19.0613 12.5 19.509 12.0523 19.509 11.5C19.509 10.9477 19.0613 10.5 18.509 10.5H18.5Z" fill="#141B34"/>
<path fill-rule="evenodd" clip-rule="evenodd" d="M6 16C6 15.4477 6.44772 15 7 15H16C16.2652 15 16.5196 15.1054 16.7071 15.2929L17.7071 16.2929C17.8946 16.4804 18 16.7348 18 17V20C18 21.6569 16.6569 23 15 23H9C7.34315 23 6 21.6569 6 20V16ZM8 17V20C8 20.5523 8.44772 21 9 21H15C15.5523 21 16 20.5523 16 20V17.4142L15.5858 17H8Z" fill="#141B34"/>
<path fill-rule="evenodd" clip-rule="evenodd" d="M1.29289 1.29289C1.68342 0.902369 2.31658 0.902369 2.70711 1.29289L22.7071 21.2929C23.0976 21.6834 23.0976 22.3166 22.7071 22.7071C22.3166 23.0976 21.6834 23.0976 21.2929 22.7071L1.29289 2.70711C0.902369 2.31658 0.902369 1.68342 1.29289 1.29289Z" fill="#141B34"/>
</svg>
