<svg width="24" height="24" viewBox="0 0 24 24" fill="none" xmlns="http://www.w3.org/2000/svg">
<path fill-rule="evenodd" clip-rule="evenodd" d="M5 7.125C2.92893 7.125 1.25 8.80393 1.25 10.875V16.875C1.25 17.8415 2.0335 18.625 3 18.625H7V16.375H17V18.625H21C21.9665 18.625 22.75 17.8415 22.75 16.875V10.875C22.75 8.80393 21.0711 7.125 19 7.125H5ZM18.5 10.375C17.9477 10.375 17.5 10.8227 17.5 11.375C17.5 11.9273 17.9477 12.375 18.5 12.375H18.509C19.0613 12.375 19.509 11.9273 19.509 11.375C19.509 10.8227 19.0613 10.375 18.509 10.375H18.5Z" fill="#141B34"/>
<path fill-rule="evenodd" clip-rule="evenodd" d="M6.25 3.375C6.25 2.13236 7.25736 1.125 8.5 1.125H15.5C16.7426 1.125 17.75 2.13236 17.75 3.375V5.375C17.75 5.78921 17.4142 6.125 17 6.125H7C6.58579 6.125 6.25 5.78921 6.25 5.375V3.375Z" fill="#141B34"/>
<path fill-rule="evenodd" clip-rule="evenodd" d="M6 15.875C6 15.3227 6.44772 14.875 7 14.875H17C17.5523 14.875 18 15.3227 18 15.875V19.875C18 21.5319 16.6569 22.875 15 22.875H9C7.34315 22.875 6 21.5319 6 19.875V15.875ZM8 16.875V19.875C8 20.4273 8.44772 20.875 9 20.875H15C15.5523 20.875 16 20.4273 16 19.875V16.875H8Z" fill="#141B34"/>
</svg>
