<svg width="24" height="24" viewBox="0 0 24 24" fill="none" xmlns="http://www.w3.org/2000/svg">
<path fill-rule="evenodd" clip-rule="evenodd" d="M8.29308 11.0028C8.22183 11.0104 8.19593 11.0265 8.1535 11.0837C7.97954 11.3182 7.88794 11.758 8.24437 12.612C8.59201 13.4448 9.27831 14.4337 10.1966 15.4772C11.1128 16.5182 12.2091 17.5571 13.3072 18.4808L13.9828 15.1656C11.7245 12.879 10.202 11.7351 9.20968 11.2594C8.69162 11.0111 8.41012 10.9903 8.29308 11.0028ZM15.1985 13.5513C13.0001 11.3482 11.344 10.0646 10.0742 9.45591C9.37933 9.12282 8.70915 8.94699 8.08067 9.01411C7.40641 9.08613 6.89296 9.42595 6.54713 9.89221C5.74695 10.971 5.93798 12.2785 6.39869 13.3823C6.86819 14.5072 7.71675 15.6866 8.69519 16.7984C10.6604 19.0316 13.356 21.222 15.3508 22.4786C15.9267 22.8413 16.5775 23 17.2123 23C18.6946 23 20.0348 22.1175 20.6192 20.7553L22.919 15.3942C23.0419 15.1077 23.0242 14.7802 22.871 14.5087L20.8965 11.0087C20.7594 10.7656 20.5269 10.5909 20.2553 10.5267C19.9836 10.4626 19.6975 10.515 19.4662 10.6711L15.1985 13.5513Z" fill="#141B34"/>
<path fill-rule="evenodd" clip-rule="evenodd" d="M11 3C6.58172 3 3 6.58172 3 11C3 12.8255 3.60775 14.7803 4.59237 16.1301C4.83666 16.465 5 16.8882 5 17.3539V22C5 22.5523 4.55228 23 4 23C3.44772 23 3 22.5523 3 22V17.3554C2.99962 17.353 2.99657 17.3361 2.97659 17.3087C1.71951 15.5855 1 13.2089 1 11C1 5.47715 5.47715 1 11 1C15.7308 1 19.9582 4.29663 20.9752 8.77871C21.0974 9.31731 20.7599 9.85299 20.2213 9.97521C19.6827 10.0974 19.147 9.75988 19.0248 9.22129C18.2229 5.68742 14.8356 3 11 3Z" fill="#141B34"/>
</svg>
