<svg width="24" height="24" viewBox="0 0 24 24" fill="none" xmlns="http://www.w3.org/2000/svg">
<path fill-rule="evenodd" clip-rule="evenodd" d="M13.2701 2.14836C12.6826 1.20837 11.3136 1.20835 10.7261 2.14835L1.46683 16.9628C0.971383 17.7555 1.31381 18.8034 2.18175 19.1506L11.4411 22.8542C11.7987 22.9972 12.1976 22.9972 12.5552 22.8542L21.8143 19.1506C21.8693 19.1285 21.9222 19.1037 21.973 19.0763L14.6063 15.9192C14.0987 15.7016 13.8636 15.1137 14.0811 14.6061C14.2987 14.0985 14.8865 13.8633 15.3942 14.0809L22.6454 17.1885C22.6136 17.1116 22.575 17.0361 22.5292 16.9628L13.2701 2.14836ZM4.53735 15.8236L11.9965 3.88929L11.9997 20.9223L11.9981 20.9229L4.61081 17.9681L9.39177 15.9191C9.8994 15.7016 10.1346 15.1137 9.917 14.6061C9.69944 14.0984 9.11156 13.8633 8.60393 14.0808L4.53735 15.8236Z" fill="#141B34"/>
</svg>
