<svg width="24" height="24" viewBox="0 0 24 24" fill="none" xmlns="http://www.w3.org/2000/svg">
<path fill-rule="evenodd" clip-rule="evenodd" d="M5.75 14C5.75 13.5858 6.08579 13.25 6.5 13.25H8.25C9.35457 13.25 10.25 14.1454 10.25 15.25C10.25 16.0588 9.76992 16.7554 9.07919 17.0705L9.80894 18.6922C9.97892 19.07 9.8105 19.514 9.43277 19.6839C9.05504 19.8539 8.61104 19.6855 8.44106 19.3078L7.51506 17.25H7.25V19C7.25 19.4142 6.91421 19.75 6.5 19.75C6.08579 19.75 5.75 19.4142 5.75 19V14ZM7.25 15.75H8.25C8.52614 15.75 8.75 15.5261 8.75 15.25C8.75 14.9739 8.52614 14.75 8.25 14.75H7.25V15.75Z" fill="#141B34"/>
<path fill-rule="evenodd" clip-rule="evenodd" d="M11.7816 13.7845C11.8768 13.4673 12.1688 13.25 12.5 13.25H13.5C13.8312 13.25 14.1232 13.4673 14.2184 13.7845L15.7184 18.7845C15.8374 19.1812 15.6123 19.5993 15.2155 19.7184C14.8188 19.8374 14.4007 19.6123 14.2816 19.2155L13.842 17.75H12.158L11.7184 19.2155C11.5994 19.6123 11.1812 19.8374 10.7845 19.7184C10.3878 19.5993 10.1626 19.1812 10.2816 18.7845L11.7816 13.7845ZM12.608 16.25H13.392L13 14.9434L12.608 16.25Z" fill="#141B34"/>
<path fill-rule="evenodd" clip-rule="evenodd" d="M17 13.25C17.4142 13.25 17.75 13.5858 17.75 14V17.1893L18.4697 16.4697C18.7626 16.1768 19.2374 16.1768 19.5303 16.4697L20.25 17.1893V14C20.25 13.5858 20.5858 13.25 21 13.25C21.4142 13.25 21.75 13.5858 21.75 14V19C21.75 19.3033 21.5673 19.5768 21.287 19.6929C21.0068 19.809 20.6842 19.7448 20.4697 19.5303L19 18.0607L17.5303 19.5303C17.3158 19.7448 16.9932 19.809 16.713 19.6929C16.4327 19.5768 16.25 19.3033 16.25 19V14C16.25 13.5858 16.5858 13.25 17 13.25Z" fill="#141B34"/>
<path fill-rule="evenodd" clip-rule="evenodd" d="M2.27427 19.823C2.27678 21.4403 3.58211 22.75 5.19144 22.75H16.8328C18.0256 22.75 19.0512 22.0306 19.5033 21H6.5C5.39543 21 4.5 20.1046 4.5 19V14C4.5 12.8954 5.39543 12 6.5 12H19.75V9.05498C19.75 8.79546 19.6473 8.5466 19.4645 8.36329L12.6564 1.53551C12.4741 1.35268 12.2271 1.25 11.9695 1.25H5.16717C3.55429 1.25 2.24749 2.56532 2.25 4.18619L2.27427 19.823ZM11.5673 3.20594L17.8043 9.46094H13.0673C12.2389 9.46094 11.5673 8.78936 11.5673 7.96094V3.20594Z" fill="#141B34"/>
</svg>
