<svg width="24" height="24" viewBox="0 0 24 24" fill="none" xmlns="http://www.w3.org/2000/svg">
<path fill-rule="evenodd" clip-rule="evenodd" d="M3.99988 2.25037C2.4811 2.25037 1.24988 3.48158 1.24988 5.00037V17.0004C1.24988 18.5191 2.48109 19.7504 3.99988 19.7504H13.48C13.1715 19.0634 12.9999 18.3016 12.9999 17.4997C12.9999 14.4622 15.4623 11.9997 18.4999 11.9997C19.0597 11.9997 19.6007 12.0837 20.1104 12.2396C20.4771 11.7886 21.0364 11.5004 21.6631 11.5004H22.7499V5.00037C22.7499 3.48158 21.5187 2.25037 19.9999 2.25037H3.99988ZM5.34272 6.63931C5.54221 6.27629 5.9982 6.14373 6.36121 6.34321L11.3535 9.08656C11.7513 9.30515 12.2488 9.30515 12.6466 9.08656L17.6388 6.34321C18.0018 6.14373 18.4578 6.27629 18.6573 6.63931C18.8568 7.00232 18.7242 7.45832 18.3612 7.6578L13.369 10.4012C12.5213 10.867 11.4787 10.867 10.6311 10.4011L5.63882 7.6578C5.27581 7.45832 5.14324 7.00232 5.34272 6.63931ZM22.4131 13.5004C22.4131 13.0862 22.0773 12.7504 21.6631 12.7504C21.2489 12.7504 20.9131 13.0862 20.9131 13.5004V14.0009C20.2279 13.5274 19.3965 13.2497 18.4999 13.2497C16.1527 13.2497 14.2499 15.1525 14.2499 17.4997C14.2499 19.8469 16.1527 21.7497 18.4999 21.7497C20.3899 21.7497 22.186 20.5029 22.7187 18.7144C22.8369 18.3175 22.6109 17.8998 22.214 17.7816C21.817 17.6633 21.3993 17.8893 21.2811 18.2863C20.9528 19.3886 19.7804 20.2497 18.4999 20.2497C16.9811 20.2497 15.7499 19.0185 15.7499 17.4997C15.7499 15.9809 16.9811 14.7497 18.4999 14.7497C19.1483 14.7497 19.7448 14.9741 20.2154 15.3502L19.3746 15.4096C18.9615 15.4388 18.6502 15.7975 18.6794 16.2106C18.7086 16.6238 19.0672 16.9351 19.4804 16.9059L21.716 16.7479C22.1087 16.7201 22.4131 16.3934 22.4131 15.9997V13.5004Z" fill="#141B34"/>
</svg>
