<svg width="24" height="24" viewBox="0 0 24 24" fill="none" xmlns="http://www.w3.org/2000/svg">
<path fill-rule="evenodd" clip-rule="evenodd" d="M1.25 9.54873C1.25 5.24652 4.7149 1.75 9 1.75C13.2851 1.75 16.75 5.24652 16.75 9.54873C16.75 9.90474 16.7262 10.2556 16.6802 10.5996C16.6303 10.972 16.3125 11.25 15.9368 11.25H10.6669C10.2164 11.25 9.80068 11.4925 9.57888 11.8847L6.96254 16.5272C6.76463 16.8784 6.32453 17.0104 5.96608 16.826L5.6663 16.6718C3.04536 15.4131 1.25 12.6444 1.25 9.54873Z" fill="#141B34"/>
<path fill-rule="evenodd" clip-rule="evenodd" d="M19.2932 7.79289C19.6837 7.40237 20.3168 7.40237 20.7074 7.79289L22.7074 9.79289C23.0979 10.1834 23.0979 10.8166 22.7074 11.2071L20.7074 13.2071C20.3168 13.5976 19.6837 13.5976 19.2932 13.2071C18.9026 12.8166 18.9026 12.1834 19.2932 11.7929L19.5861 11.5H10.6672C10.3067 11.5 9.97404 11.6941 9.79663 12.0079L4.90102 20.6694L5.83587 20.5136C6.38064 20.4228 6.89586 20.7908 6.98666 21.3356C7.07746 21.8804 6.70944 22.3956 6.16467 22.4864L3.16466 22.9864C2.70112 23.0637 2.24632 22.8077 2.07179 22.3714L1.07179 19.8714C0.866676 19.3586 1.11609 18.7766 1.62888 18.5715C2.14166 18.3664 2.72363 18.6158 2.92874 19.1286L3.15493 19.6941L8.05551 11.0238C8.58772 10.0822 9.58559 9.5 10.6672 9.5H19.5861L19.2932 9.20711C18.9026 8.81658 18.9026 8.18342 19.2932 7.79289Z" fill="#141B34"/>
</svg>
