<svg width="24" height="24" viewBox="0 0 24 24" fill="none" xmlns="http://www.w3.org/2000/svg">
<path d="M7.74983 15.2501L3.11757 16.7942C2.30087 17.0664 1.75 17.8307 1.75 18.6915V19.2501C1.75 19.8024 2.19772 20.2501 2.75 20.2501H12.7498V13.3123C14.5307 11.9185 15.7498 10.25 15.7498 6.66681C15.7498 4.34719 15.3268 2.25 12.7883 2.25C12.7883 2.25 11.8931 1.25 9.74214 1.25C6.70457 1.25 4.74983 3.07696 4.74983 6.66681C4.74983 10.25 5.96899 11.9186 7.74983 13.3123V15.2501Z" fill="#141B34"/>
<path fill-rule="evenodd" clip-rule="evenodd" d="M15.5429 16.0429C15.9334 15.6524 16.5666 15.6524 16.9571 16.0429L18.75 17.8358L20.5429 16.0429C20.9334 15.6524 21.5666 15.6524 21.9571 16.0429C22.3476 16.4334 22.3476 17.0666 21.9571 17.4571L20.1642 19.25L21.9571 21.0429C22.3476 21.4334 22.3476 22.0666 21.9571 22.4571C21.5666 22.8476 20.9334 22.8476 20.5429 22.4571L18.75 20.6642L16.9571 22.4571C16.5666 22.8476 15.9334 22.8476 15.5429 22.4571C15.1524 22.0666 15.1524 21.4334 15.5429 21.0429L17.3358 19.25L15.5429 17.4571C15.1524 17.0666 15.1524 16.4334 15.5429 16.0429Z" fill="#141B34"/>
</svg>
