<svg width="24" height="24" viewBox="0 0 24 24" fill="none" xmlns="http://www.w3.org/2000/svg">
<path fill-rule="evenodd" clip-rule="evenodd" d="M13.8975 1.36398C14.2488 1.58351 14.3555 2.04623 14.136 2.39748L12.3532 5.24998H15C15.2726 5.24998 15.5238 5.39794 15.656 5.6364C15.7882 5.87487 15.7805 6.16628 15.636 6.39748L13.136 10.3975C12.9165 10.7487 12.4538 10.8555 12.1025 10.636C11.7512 10.4164 11.6445 9.95373 11.864 9.60248L13.6468 6.74998H11C10.7274 6.74998 10.4762 6.60202 10.344 6.36355C10.2118 6.12509 10.2195 5.83368 10.364 5.60248L12.864 1.60248C13.0835 1.25123 13.5462 1.14445 13.8975 1.36398Z" fill="#141B34"/>
<path fill-rule="evenodd" clip-rule="evenodd" d="M18.3838 6.35596C17.9247 6.06596 17.5405 5.8514 17.229 5.69336C17.2997 6.20718 17.1919 6.73888 16.908 7.19311L14.408 11.1931C13.7494 12.2469 12.3613 12.5672 11.3075 11.9086C10.2537 11.25 9.9334 9.86187 10.592 8.80811L10.9409 8.24984C10.1459 8.22904 9.419 7.78948 9.03205 7.09134C8.81726 6.7038 8.72556 6.26965 8.75553 5.84286C8.41423 5.97524 8.04568 6.13631 7.66046 6.3319C7.65176 6.33631 7.64315 6.3409 7.63464 6.34565C5.8181 7.35894 4.09002 9.2975 3.40846 11.7504H2C1.58579 11.7504 1.25 12.0862 1.25 12.5004V15.5004C1.25 15.7452 1.36941 15.9745 1.5699 16.1149L6.25 19.3909V22.0007C6.25 22.4149 6.58579 22.7507 7 22.7507H9C9.25078 22.7507 9.48497 22.6253 9.62407 22.4166L10.2789 21.4343C12.1647 22.1157 14.2569 21.788 15.6862 21.3819L16.3759 22.4166C16.515 22.6253 16.7492 22.7507 17 22.7507H19C19.4142 22.7507 19.75 22.4149 19.75 22.0007V19.3416C21.3426 17.9054 22.75 15.7443 22.75 13.5007C22.75 10.6102 21.0004 7.82398 18.3838 6.35596ZM7.5 11C6.94772 11 6.5 11.4477 6.5 12C6.5 12.5523 6.94772 13 7.5 13H7.5001C8.05238 13 8.5001 12.5523 8.5001 12C8.5001 11.4477 8.05238 11 7.5001 11H7.5Z" fill="#141B34"/>
</svg>
