<svg width="24" height="24" viewBox="0 0 24 24" fill="none" xmlns="http://www.w3.org/2000/svg">
<path fill-rule="evenodd" clip-rule="evenodd" d="M19.2056 1.2966C19.5963 1.68701 19.5965 2.32018 19.206 2.71081L18.9131 3.00391H20.496C21.0483 3.00391 21.496 3.45162 21.496 4.00391C21.496 4.55619 21.0483 5.00391 20.496 5.00391H18.9131L19.206 5.297C19.5965 5.68764 19.5963 6.3208 19.2056 6.71121C18.815 7.10163 18.1818 7.10145 17.7914 6.71081L15.7926 4.71081C15.4023 4.32033 15.4023 3.68748 15.7926 3.297L17.7914 1.297C18.1818 0.906365 18.815 0.906185 19.2056 1.2966Z" fill="#141B34"/>
<path fill-rule="evenodd" clip-rule="evenodd" d="M4.29423 1.29269C4.68487 0.902279 5.31803 0.902459 5.70845 1.29309L7.70731 3.29309C8.09756 3.68357 8.09756 4.31643 7.70731 4.70691L5.70845 6.70691C5.31803 7.09754 4.68487 7.09772 4.29423 6.70731C3.9036 6.3169 3.90342 5.68373 4.29383 5.29309L4.58676 5H3C2.44772 5 2 4.55228 2 4C2 3.44772 2.44772 3 3 3H4.58676L4.29383 2.70691C3.90342 2.31627 3.9036 1.6831 4.29423 1.29269Z" fill="#141B34"/>
<path fill-rule="evenodd" clip-rule="evenodd" d="M9.25513 4.75C9.25513 3.36929 10.3744 2.25 11.7551 2.25C13.1358 2.25 14.2551 3.36929 14.2551 4.75V10.25H18C20.0711 10.25 21.75 11.9289 21.75 14V19C21.75 21.0711 20.0711 22.75 18 22.75H11.07C10.1508 22.75 9.29239 22.2907 8.7823 21.5261L4.78334 15.5313C4.06867 14.6238 4.07177 13.3411 4.79549 12.4365C5.67497 11.3371 7.29041 11.1853 8.35934 12.1015L9.25514 12.8693L9.25513 4.75Z" fill="#141B34"/>
</svg>
