<svg width="24" height="24" viewBox="0 0 24 24" fill="none" xmlns="http://www.w3.org/2000/svg">
<path fill-rule="evenodd" clip-rule="evenodd" d="M2 5C2 4.44772 2.44772 4 3 4H15C15.5523 4 16 4.44772 16 5C16 5.55228 15.5523 6 15 6H3C2.44772 6 2 5.55228 2 5Z" fill="#141B34"/>
<path fill-rule="evenodd" clip-rule="evenodd" d="M18 5C18 4.44772 18.4477 4 19 4H21C21.5523 4 22 4.44772 22 5C22 5.55228 21.5523 6 21 6H19C18.4477 6 18 5.55228 18 5Z" fill="#141B34"/>
<path fill-rule="evenodd" clip-rule="evenodd" d="M2 12C2 11.4477 2.44772 11 3 11H15C15.5523 11 16 11.4477 16 12C16 12.5523 15.5523 13 15 13H3C2.44772 13 2 12.5523 2 12Z" fill="#141B34"/>
<path fill-rule="evenodd" clip-rule="evenodd" d="M18 12C18 11.4477 18.4477 11 19 11H21C21.5523 11 22 11.4477 22 12C22 12.5523 21.5523 13 21 13H19C18.4477 13 18 12.5523 18 12Z" fill="#141B34"/>
<path fill-rule="evenodd" clip-rule="evenodd" d="M2 19C2 18.4477 2.44772 18 3 18H15C15.5523 18 16 18.4477 16 19C16 19.5523 15.5523 20 15 20H3C2.44772 20 2 19.5523 2 19Z" fill="#141B34"/>
<path fill-rule="evenodd" clip-rule="evenodd" d="M18 19C18 18.4477 18.4477 18 19 18H21C21.5523 18 22 18.4477 22 19C22 19.5523 21.5523 20 21 20H19C18.4477 20 18 19.5523 18 19Z" fill="#141B34"/>
</svg>
