<svg width="24" height="24" viewBox="0 0 24 24" fill="none" xmlns="http://www.w3.org/2000/svg">
<path fill-rule="evenodd" clip-rule="evenodd" d="M6 1.24988C4.48122 1.24988 3.25 2.4811 3.25 3.99988V19.9999C3.25 21.5187 4.48122 22.7499 6 22.7499H18C19.5188 22.7499 20.75 21.5187 20.75 19.9999V3.99988C20.75 2.4811 19.5188 1.24988 18 1.24988H6ZM13 5.5C13 4.94772 12.5523 4.5 12 4.5C11.4477 4.5 11 4.94772 11 5.5V7.5C11 8.05228 11.4477 8.5 12 8.5C12.5523 8.5 13 8.05228 13 7.5V5.5ZM13 11C13 10.4477 12.5523 10 12 10C11.4477 10 11 10.4477 11 11L11 13C11 13.5523 11.4477 14 12 14C12.5523 14 13 13.5523 13 13V11ZM13 16.5C13 15.9477 12.5523 15.5 12 15.5C11.4477 15.5 11 15.9477 11 16.5V18.5C11 19.0523 11.4477 19.5 12 19.5C12.5523 19.5 13 19.0523 13 18.5V16.5Z" fill="#141B34"/>
</svg>
