<svg width="24" height="24" viewBox="0 0 24 24" fill="none" xmlns="http://www.w3.org/2000/svg">
<path fill-rule="evenodd" clip-rule="evenodd" d="M11.1175 2.17851C10.1643 2.01877 8.61583 2.22256 7.10112 2.71113C5.56238 3.20745 3.86008 4.06 2.66911 5.36713C2.46133 5.59517 2.37542 5.90727 2.43762 6.20802C2.71997 7.57317 2.72341 9.01072 2.18497 9.95786C1.77196 10.6844 1.16042 12.0414 1.261 13.6438C1.27939 13.9424 1.30557 14.3674 1.4296 14.7289C1.57658 15.1574 1.83393 15.502 2.19386 15.8373C2.34615 15.9791 2.50109 16.0955 2.65851 16.1909C1.67512 16.6834 1 17.7003 1 18.875C1 20.5319 2.34315 21.875 4 21.875C5.30622 21.875 6.41746 21.0402 6.82929 19.875H9.17071C9.58254 21.0402 10.6938 21.875 12 21.875C13.3062 21.875 14.4175 21.0402 14.8293 19.875H17.1707C17.5825 21.0402 18.6938 21.875 20 21.875C21.6569 21.875 23 20.5319 23 18.875C23 17.7052 22.3305 16.6919 21.3538 16.1971C21.6164 16.0488 21.8529 15.8623 22.0558 15.6381C22.6517 14.9795 22.8628 14.0986 22.6936 13.2092C22.5112 12.2506 21.7585 11.6692 21.0665 11.3062C20.357 10.9339 19.474 10.6663 18.6371 10.4381C18.0623 10.2876 16.6851 9.92385 16.1621 9.75782C15.3873 9.5118 14.8366 9.2644 14.5129 8.99986C14.4161 8.92074 14.3215 8.8335 14.2291 8.73891C14.0401 8.5455 13.9456 8.44879 13.8428 8.43519C13.74 8.4216 13.6352 8.48359 13.4256 8.60757L11.882 9.52057C11.5255 9.73143 11.0655 9.61336 10.8546 9.25684C10.6438 8.90032 10.7618 8.44036 11.1184 8.22949L12.6331 7.33359C12.8559 7.20178 12.9674 7.13587 13.0027 7.029C13.0379 6.92212 12.9856 6.79805 12.881 6.5499L12.881 6.54989C12.813 6.38845 12.7478 6.22373 12.6857 6.05663C12.6589 5.98463 12.576 5.95092 12.5069 5.98465L10.3295 7.04886C9.95735 7.23074 9.50822 7.0765 9.32634 6.70435C9.14446 6.33221 9.2987 5.88308 9.67084 5.7012L11.7626 4.67886C11.9694 4.57782 12.0727 4.5273 12.1179 4.43452C12.1632 4.34174 12.1385 4.22584 12.0893 3.99406C12.0073 3.60808 11.9535 3.27439 11.9255 3.02488C11.8774 2.59598 11.5476 2.2506 11.1175 2.17851ZM18.016 16.6246L13.984 16.6247C14.3633 16.9593 14.6573 17.3884 14.8293 17.875H17.1707C17.3427 17.3883 17.6367 16.9593 18.016 16.6246ZM10.0159 16.6248L5.98414 16.6248C6.36334 16.9594 6.65731 17.3884 6.82929 17.875H9.17071C9.3427 17.3884 9.63669 16.9594 10.0159 16.6248ZM4.02748 10.9119C4.19829 10.8921 4.30863 11.0386 4.52931 11.3315C5.10456 12.0953 5.53726 13.0059 5.77959 14.0082C5.85279 14.3109 5.88939 14.4623 5.79931 14.5768C5.70922 14.6913 5.54502 14.6913 5.21661 14.6913H5.10562C4.51259 14.6913 4.19782 14.6875 3.95784 14.6426C3.78055 14.6094 3.67213 14.5587 3.53367 14.4297C3.33053 14.2405 3.29562 14.1521 3.28037 14.1076C3.24943 14.0174 3.23534 13.9008 3.21168 13.5239C3.16339 12.7546 3.35083 12.0826 3.63137 11.4443C3.78157 11.1026 3.85668 10.9318 4.02748 10.9119ZM4 17.875C3.44772 17.875 3 18.3227 3 18.875C3 19.4273 3.44772 19.875 4 19.875C4.55228 19.875 5 19.4273 5 18.875C5 18.3227 4.55228 17.875 4 17.875ZM20 19.875C19.4477 19.875 19 19.4273 19 18.875C19 18.3227 19.4477 17.875 20 17.875C20.5523 17.875 21 18.3227 21 18.875C21 19.4273 20.5523 19.875 20 19.875ZM12 17.875C12.5523 17.875 13 18.3227 13 18.875C13 19.4273 12.5523 19.875 12 19.875C11.4477 19.875 11 19.4273 11 18.875C11 18.3227 11.4477 17.875 12 17.875Z" fill="#141B34"/>
</svg>
