<svg width="24" height="24" viewBox="0 0 24 24" fill="none" xmlns="http://www.w3.org/2000/svg">
<path fill-rule="evenodd" clip-rule="evenodd" d="M10.8262 8.40345C11.0872 7.5685 11.8604 7 12.7352 7H18C18.5523 7 19 7.44772 19 8C19 8.55228 18.5523 9 18 9L12.7352 9L10.4545 16.2983C10.3328 16.6876 9.98688 16.964 9.5803 16.9968C9.17371 17.0295 8.78799 16.812 8.60557 16.4472L7.22605 13.6882L6.70711 14.2071C6.31658 14.5976 5.68342 14.5976 5.29289 14.2071C4.90237 13.8166 4.90237 13.1834 5.29289 12.7929L5.81183 12.274C6.77712 11.3087 8.4044 11.5727 9.0149 12.7937L9.28528 13.3345L10.8262 8.40345ZM18.4682 10.75C18.6063 11.2847 18.2848 11.8301 17.75 11.9682C17.6041 12.0059 17.3893 12.1476 17.2 12.4L16.6708 13.1056L17.118 14C17.1197 14.0033 17.122 14.006 17.1241 14.0077C17.6693 14.0759 18.0579 14.5715 17.993 15.1178C17.928 15.6663 17.4306 16.0581 16.8822 15.993C16.206 15.9128 15.6266 15.4892 15.3292 14.8944L15.3282 14.8925C14.9657 15.3445 14.4277 15.7932 13.75 15.9682C13.2153 16.1063 12.6699 15.7848 12.5318 15.25C12.3937 14.7153 12.7152 14.1699 13.25 14.0318C13.3959 13.9941 13.6107 13.8524 13.8 13.6L14.3292 12.8944L13.882 12C13.8807 11.9975 13.8795 11.995 13.8783 11.9927C13.3834 11.9326 13 11.5111 13 11C13 10.4477 13.4477 10 14 10C14.3958 10 14.7636 10.1179 15.0734 10.3544C15.3638 10.5761 15.5477 10.8594 15.6708 11.1056L15.6718 11.1075C16.0343 10.6555 16.5723 10.2068 17.25 10.0318C17.7847 9.89367 18.3301 10.2152 18.4682 10.75Z" fill="#141B34"/>
<path fill-rule="evenodd" clip-rule="evenodd" d="M1 5C1 3.34315 2.34315 2 4 2H5.5C6.05228 2 6.5 2.44772 6.5 3C6.5 3.55228 6.05228 4 5.5 4H4C3.44772 4 3 4.44772 3 5V19C3 19.5523 3.44772 20 4 20H5.5C6.05228 20 6.5 20.4477 6.5 21C6.5 21.5523 6.05228 22 5.5 22H4C2.34315 22 1 20.6569 1 19V5ZM17.5 2.99999C17.5 2.44771 17.9477 2 18.5 2L20 2.00001C21.6569 2.00003 23 3.34317 23 5.00001V19C23 20.6569 21.6569 22 20 22H18.5C17.9477 22 17.5 21.5523 17.5 21C17.5 20.4477 17.9477 20 18.5 20H20C20.5523 20 21 19.5523 21 19V5.00001C21 4.44773 20.5523 4.00002 20 4.00001L18.5 4C17.9477 4 17.5 3.55228 17.5 2.99999Z" fill="#141B34"/>
</svg>
