<svg width="24" height="24" viewBox="0 0 24 24" fill="none" xmlns="http://www.w3.org/2000/svg">
<path fill-rule="evenodd" clip-rule="evenodd" d="M15.3451 1.06001C15.7406 1.20351 16.004 1.57927 16.004 2.00005V5.00322C16.004 5.55551 15.5563 6.00322 15.004 6.00322H12.4946C12.1063 6.00322 11.7532 5.77849 11.5887 5.42678C11.4243 5.07507 11.4783 4.65996 11.7272 4.36202L12.2602 3.72417C11.9168 3.52248 11.58 3.37185 11.2897 3.28963C11.2773 3.28613 11.2649 3.28238 11.2527 3.27839C10.1496 2.91942 8.96432 2.915 7.92322 3.30495C6.32043 3.90528 5.17896 4.90334 4.39142 6.45248C4.14114 6.9448 3.53915 7.14101 3.04683 6.89073C2.55451 6.64045 2.3583 6.03845 2.60858 5.54613C3.62786 3.54114 5.16053 2.20403 7.22171 1.43201C8.72513 0.868904 10.3716 0.89256 11.8537 1.37076C12.3952 1.52671 12.9861 1.8066 13.5558 2.17365L14.2366 1.35884C14.5064 1.03595 14.9495 0.9165 15.3451 1.06001Z" fill="#141B34"/>
<path d="M14.486 11.5272C14.3624 11.3116 14.437 11.0366 14.6527 10.913L20.6885 7.46223C21.2359 7.1493 21.4304 6.45477 21.1253 5.90305C20.814 5.34028 20.1025 5.14091 19.5441 5.45998L10.776 10.4703C10.6169 10.5613 10.4186 10.5468 10.2745 10.4336C10.1304 10.3204 10.0693 10.1312 10.12 9.95508L10.9696 6.98635C11.2142 6.13171 10.5875 5.2757 9.69896 5.25055C9.14139 5.23477 8.63058 5.56062 8.40986 6.07288L5.40005 13.0582L4.46472 13.603C4.10873 13.8103 3.98663 14.266 4.19126 14.6236L8.56932 22.274C8.66861 22.4475 8.83306 22.5742 9.02615 22.6259C9.21924 22.6777 9.42499 22.6502 9.59773 22.5496L10.5062 22.0205L11.8009 22.2194C12.7572 22.3663 13.7343 22.1804 14.5711 21.693L17.6775 19.8836C18.7745 19.2449 19.2063 17.8994 18.7414 16.7552L16.4722 18.0272C16.2554 18.1487 15.9812 18.0715 15.8596 17.8547C15.7381 17.6379 15.8153 17.3637 16.0321 17.2421L18.1369 16.0623L18.2271 15.8108C18.463 15.1407 18.4167 14.3752 18.0375 13.7126L17.9736 13.6009L15.6517 14.9025C15.4349 15.024 15.1607 14.9468 15.0391 14.73C14.9176 14.5132 14.9948 14.239 15.2116 14.1174L17.776 12.6799C17.8779 12.1145 17.7889 11.5115 17.4823 10.9757L17.4141 10.8565C17.3574 10.7796 17.2176 10.6088 17.1119 10.541L15.1002 11.6939C14.8845 11.8175 14.6096 11.7428 14.486 11.5272Z" fill="#141B34"/>
</svg>
