<svg width="24" height="24" viewBox="0 0 24 24" fill="none" xmlns="http://www.w3.org/2000/svg">
<path fill-rule="evenodd" clip-rule="evenodd" d="M19.0528 10.6056C19.3916 10.4362 19.797 10.4727 20.1 10.7L22.1 12.2C22.5418 12.5314 22.6314 13.1582 22.3 13.6C21.9686 14.0418 21.3418 14.1314 20.9 13.8L20.5 13.5V18.5C20.5 20.1569 19.1569 21.5 17.5 21.5H10.5C9.94772 21.5 9.5 21.0523 9.5 20.5C9.5 19.9477 9.94772 19.5 10.5 19.5H17.5C18.0523 19.5 18.5 19.0523 18.5 18.5V11.5C18.5 11.1212 18.714 10.775 19.0528 10.6056Z" fill="#141B34"/>
<path d="M1 4.75C1 3.23122 2.23122 2 3.75 2H13.75C15.2688 2 16.5 3.23122 16.5 4.75V14.75C16.5 16.2688 15.2688 17.5 13.75 17.5H3.75C2.23122 17.5 1 16.2688 1 14.75V4.75Z" fill="#141B34"/>
</svg>
