<svg width="24" height="24" viewBox="0 0 24 24" fill="none" xmlns="http://www.w3.org/2000/svg">
<path fill-rule="evenodd" clip-rule="evenodd" d="M14.2929 1.29289C14.6834 0.902369 15.3166 0.902369 15.7071 1.29289L18 3.58579L20.2929 1.29289C20.6834 0.902369 21.3166 0.902369 21.7071 1.29289C22.0976 1.68342 22.0976 2.31658 21.7071 2.70711L19.4142 5L21.7071 7.29289C22.0976 7.68342 22.0976 8.31658 21.7071 8.70711C21.3166 9.09763 20.6834 9.09763 20.2929 8.70711L18 6.41421L15.7071 8.70711C15.3166 9.09763 14.6834 9.09763 14.2929 8.70711C13.9024 8.31658 13.9024 7.68342 14.2929 7.29289L16.5858 5L14.2929 2.70711C13.9024 2.31658 13.9024 1.68342 14.2929 1.29289Z" fill="#141B34"/>
<path fill-rule="evenodd" clip-rule="evenodd" d="M2.25 19C2.25 16.9289 3.92893 15.25 6 15.25C8.07107 15.25 9.75 16.9289 9.75 19C9.75 21.0711 8.07107 22.75 6 22.75C3.92893 22.75 2.25 21.0711 2.25 19Z" fill="#141B34"/>
<path fill-rule="evenodd" clip-rule="evenodd" d="M4 8.5C4 6.01472 6.01472 4 8.5 4H12C12.5523 4 13 4.44772 13 5C13 5.55228 12.5523 6 12 6H8.5C7.11929 6 6 7.11929 6 8.5C6 9.88071 7.11929 11 8.5 11H15.5C17.9853 11 20 13.0147 20 15.5C20 17.9853 17.9853 20 15.5 20H12C11.4477 20 11 19.5523 11 19C11 18.4477 11.4477 18 12 18H15.5C16.8807 18 18 16.8807 18 15.5C18 14.1193 16.8807 13 15.5 13H8.5C6.01472 13 4 10.9853 4 8.5Z" fill="#141B34"/>
</svg>
