<svg width="24" height="24" viewBox="0 0 24 24" fill="none" xmlns="http://www.w3.org/2000/svg">
<path fill-rule="evenodd" clip-rule="evenodd" d="M18.5 2.75C17.8096 2.75 17.25 3.30964 17.25 4V4.75H22C22.4142 4.75 22.75 5.08579 22.75 5.5V11C22.75 11.4142 22.4142 11.75 22 11.75H15C14.5858 11.75 14.25 11.4142 14.25 11V5.5C14.25 5.08579 14.5858 4.75 15 4.75H15.75V4C15.75 2.48122 16.9812 1.25 18.5 1.25C19.3215 1.25 20.0595 1.61112 20.5623 2.18079C20.8364 2.49134 20.8069 2.96529 20.4963 3.23939C20.1857 3.51349 19.7118 3.48394 19.4377 3.17339C19.2076 2.91264 18.8732 2.75 18.5 2.75Z" fill="#141B34"/>
<path fill-rule="evenodd" clip-rule="evenodd" d="M1.04522 14C1.04522 13.4477 1.49293 13 2.04522 13C6.51006 13 11 16.9111 11 21.9996C11 22.5519 10.5523 22.9996 10 22.9996C9.44772 22.9996 9 22.5519 9 21.9996C9 18.0889 5.48016 15 2.04522 15C1.49293 15 1.04522 14.5523 1.04522 14ZM1 17.2349C1 16.6826 1.44772 16.2349 2 16.2349C5.04316 16.2349 7.77053 18.9453 7.77053 21.9996C7.77053 22.5519 7.32281 22.9996 6.77053 22.9996C6.21825 22.9996 5.77053 22.5519 5.77053 21.9996C5.77053 20.0547 3.9434 18.2349 2 18.2349C1.44772 18.2349 1 17.7872 1 17.2349Z" fill="#141B34"/>
<path fill-rule="evenodd" clip-rule="evenodd" d="M2 21C2 20.4477 2.44772 20 3 20H3.00898C3.56127 20 4.00898 20.4477 4.00898 21C4.00898 21.5523 3.56127 22 3.00898 22H3C2.44772 22 2 21.5523 2 21Z" fill="#141B34"/>
<path fill-rule="evenodd" clip-rule="evenodd" d="M5 7C4.44772 7 4 7.44772 4 8V10.5C4 11.0523 3.55228 11.5 3 11.5C2.44772 11.5 2 11.0523 2 10.5V8C2 6.34315 3.34315 5 5 5H11.5C12.0523 5 12.5 5.44772 12.5 6C12.5 6.55228 12.0523 7 11.5 7H5ZM22 13.5C22.5523 13.5 23 13.9477 23 14.5V20C23 21.6569 21.6569 23 20 23H14C13.4477 23 13 22.5523 13 22C13 21.4477 13.4477 21 14 21H20C20.5523 21 21 20.5523 21 20V14.5C21 13.9477 21.4477 13.5 22 13.5Z" fill="#141B34"/>
</svg>
