<svg width="24" height="24" viewBox="0 0 24 24" fill="none" xmlns="http://www.w3.org/2000/svg">
<path fill-rule="evenodd" clip-rule="evenodd" d="M12 1.25C6.06294 1.25 1.25 6.06294 1.25 12C1.25 13.3933 1.51506 14.7247 1.99751 15.9464C2.11596 15.7806 2.25073 15.6223 2.4019 15.4737L2.41176 15.464L4.04482 13.8902C4.59077 13.364 5.45639 13.3681 5.99735 13.8994L7.57286 15.4468C8.99629 16.8187 9.02119 19.0757 7.57319 20.4713C7.24081 20.7916 6.85909 21.0377 6.45098 21.209C8.07084 22.1872 9.96969 22.75 12 22.75C17.9371 22.75 22.75 17.9371 22.75 12C22.75 6.06294 17.9371 1.25 12 1.25ZM6.75 8.44141C6.75 7.75105 7.30964 7.19141 8 7.19141H8.00897C8.69933 7.19141 9.25897 7.75105 9.25897 8.44141C9.25897 9.13176 8.69933 9.69141 8.00897 9.69141H8C7.30964 9.69141 6.75 9.13176 6.75 8.44141ZM14.741 8.44141C14.741 7.75105 15.3007 7.19141 15.991 7.19141H16C16.6904 7.19141 17.25 7.75105 17.25 8.44141C17.25 9.13176 16.6904 9.69141 16 9.69141H15.991C15.3007 9.69141 14.741 9.13176 14.741 8.44141ZM12.0001 14.25C10.954 14.25 9.97099 14.5301 9.12448 15.02C8.76596 15.2275 8.64352 15.6863 8.85098 16.0448C9.05845 16.4033 9.51726 16.5258 9.87577 16.3183C10.5001 15.957 11.2248 15.75 12.0001 15.75C12.9577 15.75 13.8394 16.0659 14.5496 16.5996C14.8807 16.8484 15.3509 16.7817 15.5997 16.4505C15.8485 16.1194 15.7818 15.6492 15.4507 15.4004C14.4896 14.6782 13.2938 14.25 12.0001 14.25Z" fill="#141B34"/>
<path fill-rule="evenodd" clip-rule="evenodd" d="M3.38334 16.4723C2.53004 17.3111 2.54276 18.6533 3.39859 19.4806C4.28617 20.3191 5.72867 20.3049 6.60166 19.4635C7.47259 18.6241 7.45959 17.2823 6.60166 16.4554L6.59657 16.4505L5.01635 14.8984L3.38334 16.4723Z" fill="#141B34"/>
</svg>
