<svg width="24" height="24" viewBox="0 0 24 24" fill="none" xmlns="http://www.w3.org/2000/svg">
<path fill-rule="evenodd" clip-rule="evenodd" d="M18 1.25L10 1.25C9.0335 1.25 8.25 2.0335 8.25 3L8.25 11C8.25 11.9665 9.0335 12.75 10 12.75L18 12.75C18.9665 12.75 19.75 11.9665 19.75 11V3C19.75 2.0335 18.9665 1.25 18 1.25ZM13 4C12.4477 4 12 4.44772 12 5C12 5.55228 12.4477 6 13 6L15 6C15.5523 6 16 5.55228 16 5C16 4.44772 15.5523 4 15 4L13 4Z" fill="#141B34"/>
<path d="M4 13.25C3.58579 13.25 3.25 13.5858 3.25 14V20.0199C3.25 20.3555 3.47293 20.6503 3.79584 20.7416L10.0495 22.5107C10.7091 22.6973 11.4147 22.6308 12.0279 22.3242L19.6131 18.5316C20.3699 18.1532 20.7103 17.258 20.396 16.4724C19.8553 15.1205 18.3544 14.4244 16.9731 14.8848L14.4875 15.7134C14.6619 16.0239 14.792 16.3754 14.792 16.7278C14.792 16.9689 14.6477 17.1866 14.4256 17.2805L10.5812 18.9057C10.2228 19.0572 9.82142 19.0729 9.45225 18.9499L6.81026 18.0692C6.4959 17.9644 6.326 17.6246 6.43079 17.3103C6.53558 16.9959 6.87537 16.826 7.18974 16.9308L9.83172 17.8115C9.92402 17.8422 10.0244 17.8383 10.114 17.8004L13.4816 16.3767C13.4565 16.3269 13.4263 16.2728 13.3901 16.2146C13.3673 16.178 13.3406 16.1417 13.3145 16.1044C13.3016 16.0845 13.2884 16.0648 13.275 16.0452C13.1349 15.8544 12.9549 15.6569 12.7452 15.471C12.5928 15.3359 12.4326 15.2136 12.2691 15.107C11.7677 14.8074 11.1644 14.6251 10.5 14.6251H9.69266L7.81161 13.5905C7.40557 13.3671 6.94966 13.25 6.48624 13.25H4Z" fill="#141B34"/>
</svg>
