<svg width="24" height="24" viewBox="0 0 24 24" fill="none" xmlns="http://www.w3.org/2000/svg">
<path fill-rule="evenodd" clip-rule="evenodd" d="M14 1.3175C9.7198 1.3175 6.25 4.78729 6.25 9.0675C6.25 10.1202 6.45987 11.1238 6.84006 12.0389C7.07931 12.1193 7.31178 12.2211 7.53454 12.3437L9.07797 13.1926H9.5C10.7912 13.1926 11.9391 13.6781 12.7825 14.4347L15.4988 13.5293C16.9798 13.0356 18.5497 13.4022 19.6514 14.3707C20.9529 12.9844 21.75 11.119 21.75 9.0675C21.75 4.7873 18.2802 1.3175 14 1.3175ZM12.25 6.0675C12.25 4.82486 13.2574 3.8175 14.5 3.8175C15.7426 3.8175 16.75 4.82486 16.75 6.0675V6.5675C16.75 6.98172 16.4142 7.3175 16 7.3175C15.5858 7.3175 15.25 6.98172 15.25 6.5675V6.0675C15.25 5.65329 14.9142 5.3175 14.5 5.3175C14.0858 5.3175 13.75 5.65329 13.75 6.0675V7.3175H14.5C14.9142 7.3175 15.25 7.65329 15.25 8.0675C15.25 8.48172 14.9142 8.8175 14.5 8.8175H13.75V9.0675C13.75 9.33048 13.7049 9.58292 13.622 9.8175H16C16.4142 9.8175 16.75 10.1533 16.75 10.5675C16.75 10.9817 16.4142 11.3175 16 11.3175L11.5 11.3175C11.0858 11.3175 10.75 10.9817 10.75 10.5675C10.75 10.1533 11.0858 9.8175 11.5 9.8175C11.9142 9.8175 12.25 9.48172 12.25 9.0675V8.8175H12C11.5858 8.8175 11.25 8.48172 11.25 8.0675C11.25 7.65329 11.5858 7.3175 12 7.3175H12.25V6.0675ZM2.25 14.0675C2.25 13.6533 2.58579 13.3175 3 13.3175H5.48624C5.94966 13.3175 6.40557 13.4346 6.81161 13.658L8.69266 14.6926H9.5C9.71714 14.6926 9.92775 14.7121 10.1304 14.7488C10.1365 14.7502 10.1426 14.7514 10.1488 14.7526C10.4671 14.8129 10.7626 14.9143 11.0294 15.0442C11.516 15.2837 11.9227 15.6298 12.2183 16.0327C12.3278 16.1914 12.4054 16.3463 12.4538 16.4892L9.16562 17.606C9.06227 17.6411 8.95026 17.6414 8.84671 17.6069L6.16593 16.7133C5.90395 16.626 5.62079 16.7675 5.53347 17.0295C5.44615 17.2915 5.58773 17.5746 5.8497 17.662L8.53048 18.5556C8.84114 18.6591 9.17715 18.6582 9.48722 18.5529L13.1762 17.3C13.379 17.2311 13.5154 17.0407 13.5154 16.8265C13.5154 16.4996 13.4258 16.1688 13.2703 15.8533L15.9731 14.9523C17.3544 14.4919 18.8553 15.188 19.396 16.5399C19.7103 17.3255 19.3699 18.2207 18.6131 18.5991L11.0279 22.3918C10.4147 22.6983 9.70912 22.7648 9.04946 22.5782L2.79584 20.8091C2.47293 20.7178 2.25 20.423 2.25 20.0875L2.25 14.0675Z" fill="#141B34"/>
</svg>
