<svg width="24" height="24" viewBox="0 0 24 24" fill="none" xmlns="http://www.w3.org/2000/svg">
<path fill-rule="evenodd" clip-rule="evenodd" d="M16.2929 17.7071L14.2929 15.7071L15.7071 14.2929L17.7071 16.2929L16.2929 17.7071Z" fill="#141B34"/>
<path fill-rule="evenodd" clip-rule="evenodd" d="M1 9.5C1 4.80558 4.80558 1 9.5 1C14.1944 1 18 4.80558 18 9.5C18 14.1944 14.1944 18 9.5 18C4.80558 18 1 14.1944 1 9.5ZM9.5 3C5.91015 3 3 5.91015 3 9.5C3 13.0899 5.91015 16 9.5 16C13.0899 16 16 13.0899 16 9.5C16 5.91015 13.0899 3 9.5 3Z" fill="#141B34"/>
<path fill-rule="evenodd" clip-rule="evenodd" d="M16.8307 16.8307C17.605 16.0564 18.8604 16.0564 19.6346 16.8307L22.1693 19.3654C22.9436 20.1396 22.9436 21.395 22.1693 22.1693C21.395 22.9436 20.1396 22.9436 19.3654 22.1693L16.8307 19.6346C16.0564 18.8604 16.0564 17.605 16.8307 16.8307Z" fill="#141B34"/>
</svg>
