<svg width="24" height="24" viewBox="0 0 24 24" fill="none" xmlns="http://www.w3.org/2000/svg">
<path fill-rule="evenodd" clip-rule="evenodd" d="M13.75 2C13.75 1.58579 13.4142 1.25 13 1.25C12.5858 1.25 12.25 1.58579 12.25 2V2.78169C7.76859 3.16211 4.25 6.92014 4.25 11.5C4.25 11.9142 4.58579 12.25 5 12.25H21C21.4142 12.25 21.75 11.9142 21.75 11.5C21.75 6.92014 18.2314 3.16211 13.75 2.78169V2ZM8.65685 14.75C7.7949 14.75 6.96825 15.0924 6.35876 15.7019L2.53033 19.5303C2.23744 19.8232 1.76256 19.8232 1.46967 19.5303C1.17678 19.2374 1.17678 18.7626 1.46967 18.4697L5.18934 14.75H4C3.58579 14.75 3.25 14.4142 3.25 14C3.25 13.5858 3.58579 13.25 4 13.25H8.65685H11H16.5H20H22C22.4142 13.25 22.75 13.5858 22.75 14C22.75 14.4142 22.4142 14.75 22 14.75H20.3318L16.6462 18.8042C15.8152 19.7183 14.6607 20.2727 13.4277 20.3497L7.80152 20.7014C7.49755 20.7204 7.21097 20.8497 6.99561 21.0651L5.53033 22.5303C5.23744 22.8232 4.76256 22.8232 4.46967 22.5303C4.17678 22.2374 4.17678 21.7626 4.46967 21.4697L5.93495 20.0044C6.40874 19.5306 7.03921 19.2461 7.70795 19.2043L13.3342 18.8526C14.1778 18.7999 14.9677 18.4206 15.5363 17.7952L18.3046 14.75H16.8107L15.1161 16.4445C14.6004 16.9603 13.9009 17.25 13.1716 17.25H9.5C9.08579 17.25 8.75 16.9142 8.75 16.5C8.75 16.0858 9.08579 15.75 9.5 15.75H12.225C12.1092 15.1794 11.6047 14.75 11 14.75H8.65685ZM13.7241 15.6212C13.6814 15.3114 13.5871 15.018 13.4501 14.75H14.6893L14.0555 15.3839C13.9578 15.4815 13.8457 15.5613 13.7241 15.6212Z" fill="#141B34"/>
</svg>
