<svg width="24" height="24" viewBox="0 0 24 24" fill="none" xmlns="http://www.w3.org/2000/svg">
<path d="M10.8802 1.95561C11.5292 1.41552 12.4713 1.41587 13.1199 1.95644L15.202 3.69164C15.2469 3.72909 15.3035 3.74959 15.362 3.74959H18.4999C19.4664 3.74959 20.2499 4.5331 20.2499 5.49959V8.63804C20.2499 8.69645 20.2704 8.75302 20.3078 8.79792L22.0401 10.8805C22.5484 11.4915 22.5778 12.3622 22.1283 13.0033C20.9388 11.4782 19.0839 10.4975 17 10.4975C16.3986 10.4975 15.8162 10.5792 15.2635 10.7321C14.7557 9.42557 13.486 8.49951 12 8.49951C10.067 8.49951 8.5 10.0665 8.5 11.9995C8.5 13.486 9.42668 14.756 10.7339 15.2635C10.5814 15.8155 10.5 16.397 10.5 16.9975C10.5 19.0827 11.4819 20.9386 13.0086 22.1281C12.367 22.5815 11.4929 22.5534 10.8801 22.0435L8.79382 20.3074C8.74891 20.2701 8.69233 20.2496 8.63391 20.2496H5.49555C4.52906 20.2496 3.74555 19.4661 3.74555 18.4996V15.3611C3.74555 15.3027 3.7251 15.2462 3.68775 15.2013L1.95541 13.1187C1.41591 12.4702 1.41591 11.529 1.95541 10.8805L3.68775 8.79792C3.7251 8.75302 3.74555 8.69645 3.74555 8.63804V5.49959C3.74555 4.5331 4.52906 3.74959 5.49555 3.74959H8.6339C8.69232 3.74959 8.7489 3.72913 8.79381 3.69176L10.8802 1.95561Z" fill="#141B34"/>
<path fill-rule="evenodd" clip-rule="evenodd" d="M22 16.998C22 19.7594 19.7614 21.998 17 21.998C14.2386 21.998 12 19.7594 12 16.998C12 14.2366 14.2386 11.998 17 11.998C19.7614 11.998 22 14.2366 22 16.998ZM17.75 14.998C17.75 14.5838 17.4142 14.248 17 14.248C16.5858 14.248 16.25 14.5838 16.25 14.998V16.998C16.25 17.4122 16.5858 17.748 17 17.748C17.4142 17.748 17.75 17.4122 17.75 16.998V14.998ZM17 18.248C16.5858 18.248 16.25 18.5838 16.25 18.998C16.25 19.4122 16.5858 19.748 17 19.748C17.4142 19.748 17.759 19.4122 17.759 18.998C17.759 18.5838 17.4142 18.248 17 18.248Z" fill="#141B34"/>
</svg>
