<svg width="24" height="24" viewBox="0 0 24 24" fill="none" xmlns="http://www.w3.org/2000/svg">
<path fill-rule="evenodd" clip-rule="evenodd" d="M13.1199 1.95644C12.4713 1.41587 11.5292 1.41552 10.8802 1.95561L8.79381 3.69176C8.7489 3.72913 8.69232 3.74959 8.6339 3.74959L5.49555 3.74959C4.52906 3.74959 3.74555 4.5331 3.74555 5.49959L3.74555 8.63804C3.74555 8.69645 3.7251 8.75302 3.68775 8.79792L1.95541 10.8805C1.41591 11.529 1.41591 12.4702 1.95541 13.1187L3.68775 15.2013C3.7251 15.2462 3.74555 15.3027 3.74555 15.3611L3.74555 18.4996C3.74555 19.4661 4.52906 20.2496 5.49555 20.2496H8.63391C8.69233 20.2496 8.74891 20.2701 8.79382 20.3074L10.8801 22.0435C11.5291 22.5835 12.4712 22.5832 13.1198 22.0427L15.202 20.3075C15.2469 20.2701 15.3035 20.2496 15.362 20.2496H18.4999C19.4664 20.2496 20.2499 19.4661 20.2499 18.4996V15.3611C20.2499 15.3027 20.2704 15.2462 20.3078 15.2013L22.0401 13.1187C22.5796 12.4702 22.5796 11.529 22.0401 10.8805L20.3078 8.79792C20.2704 8.75302 20.2499 8.69645 20.2499 8.63804V5.49959C20.2499 4.5331 19.4664 3.74959 18.4999 3.74959L15.362 3.74959C15.3035 3.74959 15.2469 3.72909 15.202 3.69164L13.1199 1.95644ZM12 15.5C13.933 15.5 15.5 13.933 15.5 12C15.5 10.067 13.933 8.5 12 8.5C10.067 8.5 8.5 10.067 8.5 12C8.5 13.933 10.067 15.5 12 15.5Z" fill="#141B34"/>
</svg>
