<svg width="24" height="24" viewBox="0 0 24 24" fill="none" xmlns="http://www.w3.org/2000/svg">
<path fill-rule="evenodd" clip-rule="evenodd" d="M8.75 1C8.19772 1 7.75 1.44772 7.75 2C7.75 2.55228 8.19772 3 8.75 3H10.75V4.25C9.7835 4.25 9 5.0335 9 6V7.94901C7.21262 8.9242 6 10.8205 6 13V21C6 21.9665 6.7835 22.75 7.75 22.75H15.75C16.7165 22.75 17.5 21.9665 17.5 21V13C17.5 10.8205 16.2874 8.9242 14.5 7.94901V6C14.5 5.0335 13.7165 4.25 12.75 4.25V3H14.8358L16.0429 4.20711C16.4334 4.59763 17.0666 4.59763 17.4571 4.20711C17.8476 3.81658 17.8476 3.18342 17.4571 2.79289L15.9571 1.29289C15.7696 1.10536 15.5152 1 15.25 1H8.75ZM11.75 8.75C9.40279 8.75 7.5 10.6528 7.5 13H16C16 10.6528 14.0972 8.75 11.75 8.75Z" fill="#141B34"/>
</svg>
