<svg width="24" height="24" viewBox="0 0 24 24" fill="none" xmlns="http://www.w3.org/2000/svg">
<path fill-rule="evenodd" clip-rule="evenodd" d="M2 5.00003C2 3.34318 3.34315 2.00003 5 2.00003H10C10.5523 2.00003 11 2.44775 11 3.00003C11 3.55232 10.5523 4.00003 10 4.00003H5C4.44772 4.00003 4 4.44775 4 5.00003V19C4 19.5523 4.44772 20.0001 5 20.0001H19C19.5523 20.0001 20 19.5523 20 19.0001V14.0002C20 13.4479 20.4477 13.0002 21 13.0002C21.5523 13.0002 22 13.4479 22 14.0002V19.0001C22 20.6569 20.6569 22.0001 19 22.0001H5C3.34314 22.0001 2 20.6569 2 19V5.00003Z" fill="#141B34"/>
<path fill-rule="evenodd" clip-rule="evenodd" d="M18.1137 3.5763C18.4873 3.42145 18.9173 3.50677 19.2034 3.79249L21.7066 6.29253C21.8944 6.48002 21.9999 6.73444 22 6.99977C22.0001 7.2651 21.8947 7.51958 21.7071 7.7072L19.2038 10.2105C18.9178 10.4965 18.4877 10.582 18.114 10.4272C17.7404 10.2725 17.4967 9.90783 17.4967 9.50337V8.00006H13C12.4477 8.00006 12 8.44777 12 9.00006V15.0001C12 15.5524 11.5523 16.0001 11 16.0001C10.4477 16.0001 10 15.5524 10 15.0001V9.00006C10 7.34321 11.3431 6.00006 13 6.00006H17.4967V4.50006C17.4967 4.09572 17.7402 3.73116 18.1137 3.5763Z" fill="#141B34"/>
</svg>
