<svg width="24" height="24" viewBox="0 0 24 24" fill="none" xmlns="http://www.w3.org/2000/svg">
<path fill-rule="evenodd" clip-rule="evenodd" d="M13.625 10.999C13.0727 10.999 12.625 10.5513 12.625 9.99902V5.70613H10.8321C10.5669 5.70613 10.2889 5.60905 10.1929 5.36184C10.0536 5.00355 10.1286 4.58117 10.4179 4.29192L12.9179 1.79192C13.3084 1.40139 13.9416 1.40139 14.3321 1.79192L16.8321 4.29192C17.1214 4.58117 17.1964 5.00355 17.0571 5.36184C16.9611 5.60905 16.6831 5.70613 16.4179 5.70613H14.625V9.99902C14.625 10.5513 14.1773 10.999 13.625 10.999ZM2.12499 2.99902C2.12499 2.44674 2.57271 1.99902 3.12499 1.99902H5.62499C6.11581 1.99902 6.53408 2.35523 6.61223 2.83979L7.00082 5.24902H8.83878C8.86042 5.44786 8.9079 5.64427 8.98115 5.83274C9.37358 6.84253 10.3829 7.00613 10.8321 7.00613L11.325 7.00613L11.325 9.99902C11.325 11.2693 12.3547 12.299 13.625 12.299C14.8952 12.299 15.925 11.2693 15.925 9.99902L15.925 7.00613H16.4179C16.8671 7.00613 17.8764 6.84254 18.2688 5.83274C18.3421 5.64427 18.3896 5.44786 18.4112 5.24902H21.125C21.3481 5.24902 21.5596 5.34836 21.7021 5.52005C21.8446 5.69173 21.9033 5.91795 21.8622 6.13724L20.3622 14.1372C20.3045 14.4449 20.0618 14.6843 19.7535 14.7379L8.83749 16.6364L8.84102 16.6583C8.91917 17.1428 9.33744 17.499 9.82826 17.499H18.125C18.1618 17.499 18.1981 17.501 18.2339 17.5049C18.2806 17.5023 18.3277 17.501 18.375 17.501C19.7557 17.501 20.875 18.6203 20.875 20.001C20.875 21.3817 19.7557 22.501 18.375 22.501C16.9943 22.501 15.875 21.3817 15.875 20.001C15.875 19.8291 15.8923 19.6612 15.9254 19.499H11.8246C11.8576 19.6612 11.875 19.8291 11.875 20.001C11.875 21.3817 10.7557 22.501 9.37499 22.501C7.99428 22.501 6.87499 21.3817 6.87499 20.001C6.87499 19.377 7.1036 18.8064 7.48163 18.3684C7.1688 17.9761 6.95118 17.5015 6.86654 16.9767L4.77336 3.99902H3.12499C2.57271 3.99902 2.12499 3.55131 2.12499 2.99902ZM9.37499 19.001C8.82271 19.001 8.37499 19.4487 8.37499 20.001C8.37499 20.5533 8.82271 21.001 9.37499 21.001C9.92728 21.001 10.375 20.5533 10.375 20.001C10.375 19.4487 9.92728 19.001 9.37499 19.001ZM17.375 20.001C17.375 19.4487 17.8227 19.001 18.375 19.001C18.9273 19.001 19.375 19.4487 19.375 20.001C19.375 20.5533 18.9273 21.001 18.375 21.001C17.8227 21.001 17.375 20.5533 17.375 20.001Z" fill="#141B34"/>
</svg>
