<svg width="24" height="24" viewBox="0 0 24 24" fill="none" xmlns="http://www.w3.org/2000/svg">
<path fill-rule="evenodd" clip-rule="evenodd" d="M1.1298 4.5073C1.30731 4.19379 1.63973 4 2 4H8C8.36027 4 8.69269 4.19379 8.8702 4.5073C9.04771 4.82081 9.04285 5.20556 8.85749 5.5145L6 10.277L6 19C6 19.5523 5.55229 20 5 20C4.44772 20 4 19.5523 4 19L4 10.277L1.14251 5.5145C0.957149 5.20556 0.952295 4.82081 1.1298 4.5073Z" fill="#141B34"/>
<path fill-rule="evenodd" clip-rule="evenodd" d="M9 13C9.55228 13 10 13.4477 10 14V19C10 19.5523 9.55228 20 9 20C8.44772 20 8 19.5523 8 19V14C8 13.4477 8.44772 13 9 13Z" fill="#141B34"/>
<path fill-rule="evenodd" clip-rule="evenodd" d="M13 10C13.5523 10 14 10.4477 14 11L14 19C14 19.5523 13.5523 20 13 20C12.4477 20 12 19.5523 12 19L12 11C12 10.4477 12.4477 10 13 10Z" fill="#141B34"/>
<path fill-rule="evenodd" clip-rule="evenodd" d="M17 9C17.5523 9 18 9.44772 18 10L18 19C18 19.5523 17.5523 20 17 20C16.4477 20 16 19.5523 16 19L16 10C16 9.44772 16.4477 9 17 9Z" fill="#141B34"/>
<path fill-rule="evenodd" clip-rule="evenodd" d="M21 6C21.5523 6 22 6.44772 22 7L22 19C22 19.5523 21.5523 20 21 20C20.4477 20 20 19.5523 20 19L20 7C20 6.44772 20.4477 6 21 6Z" fill="#141B34"/>
</svg>
