<svg width="24" height="24" viewBox="0 0 24 24" fill="none" xmlns="http://www.w3.org/2000/svg">
<path d="M14.9932 1C12.8955 1 10.9623 1.77525 9.36896 3.07147C8.94054 3.42001 8.87578 4.04985 9.22431 4.47827C9.57284 4.90669 10.2027 4.97145 10.6311 4.62292C11.9099 3.58261 13.4067 3 14.9932 3C16.5847 3 18.0861 3.58627 19.3675 4.63279C19.7952 4.98214 20.4252 4.91857 20.7746 4.49081C21.1239 4.06305 21.0603 3.43308 20.6326 3.08374C19.0364 1.78016 17.0976 1 14.9932 1Z" fill="#141B34"/>
<path d="M14.9932 5.20085C13.8185 5.20085 12.7167 5.5455 11.754 6.14242C11.2846 6.43346 11.1401 7.04989 11.4311 7.51927C11.7221 7.98865 12.3386 8.13323 12.808 7.8422C13.4794 7.4259 14.2195 7.20085 14.9932 7.20085C15.7709 7.20085 16.5146 7.42816 17.1887 7.84854C17.6574 8.14077 18.2742 7.99777 18.5664 7.52913C18.8586 7.0605 18.7156 6.44369 18.247 6.15146C17.2809 5.54901 16.174 5.20085 14.9932 5.20085Z" fill="#141B34"/>
<path d="M15 9C14.4477 9 14 9.44771 14 10C14 10.5523 14.4477 11 15 11H15.0064C15.5586 11 16.0064 10.5523 16.0064 10C16.0064 9.44771 15.5586 9 15.0064 9H15Z" fill="#141B34"/>
<path fill-rule="evenodd" clip-rule="evenodd" d="M8.06073 5.42488C8.01441 5.36795 7.97101 5.3096 7.93052 5.25H6C4.48122 5.25 3.25 6.48122 3.25 8V20C3.25 21.5188 4.48122 22.75 6 22.75H13C14.5188 22.75 15.75 21.5188 15.75 20V12.3875C15.5151 12.4606 15.2653 12.5 15.0064 12.5H15C13.6193 12.5 12.5 11.3807 12.5 10C12.5 9.82094 12.5188 9.64627 12.5546 9.47787C11.6274 9.57929 10.6806 9.15534 10.1563 8.30972C9.77728 7.69847 9.69377 6.98747 9.8666 6.34365C9.18675 6.30711 8.52423 5.99463 8.06073 5.42488ZM9.5 18C8.94772 18 8.5 18.4477 8.5 19C8.5 19.5523 8.94772 20 9.5 20H9.50898C10.0613 20 10.509 19.5523 10.509 19C10.509 18.4477 10.0613 18 9.50898 18H9.5Z" fill="#141B34"/>
</svg>
