<svg width="24" height="24" viewBox="0 0 24 24" fill="none" xmlns="http://www.w3.org/2000/svg">
<path fill-rule="evenodd" clip-rule="evenodd" d="M4.25273 4.33549C4.44249 4.12209 4.71444 4 5.00001 4H18C18.2856 4 18.5575 4.12209 18.7473 4.33549C18.937 4.54888 19.0265 4.83323 18.9932 5.11684L17.201 20.3505C17.0232 21.8614 15.7428 23 14.2215 23H8.7785C7.25725 23 5.9768 21.8614 5.79905 20.3505L4.00685 5.11684C3.97349 4.83323 4.06297 4.54888 4.25273 4.33549ZM6.12455 6L7.78535 20.1168C7.8446 20.6205 8.27142 21 8.7785 21H14.2215C14.7286 21 15.1554 20.6205 15.2147 20.1168L16.8755 6H6.12455Z" fill="#141B34"/>
<path fill-rule="evenodd" clip-rule="evenodd" d="M13.5042 1.90946C13.551 1.39439 13.9829 1 14.5001 1H19.0001C19.5523 1 20.0001 1.44772 20.0001 2C20.0001 2.55228 19.5523 3 19.0001 3H15.4133L13.996 18.5905C13.946 19.1406 13.4595 19.5459 12.9095 19.4959C12.3595 19.4459 11.9542 18.9595 12.0042 18.4095L13.5042 1.90946Z" fill="#141B34"/>
<path fill-rule="evenodd" clip-rule="evenodd" d="M5.53126 8.5C5.24569 8.5 4.97374 8.62209 4.78398 8.83549C4.59422 9.04888 4.50474 9.33323 4.5381 9.61684L5.80089 20.3505C5.97864 21.8614 7.25908 23 8.78034 23H14.2233C15.7446 23 17.0251 21.8614 17.2028 20.3505L18.4656 9.61684C18.4989 9.33323 18.4095 9.04888 18.2197 8.83549C18.0299 8.62209 17.758 8.5 17.4724 8.5L5.53126 8.5ZM10 15C9.44772 15 9 15.4477 9 16C9 16.5523 9.44772 17 10 17H10.0089C10.5612 17 11.0089 16.5523 11.0089 16C11.0089 15.4477 10.5612 15 10.0089 15H10Z" fill="#141B34"/>
</svg>
