<svg width="24" height="24" viewBox="0 0 24 24" fill="none" xmlns="http://www.w3.org/2000/svg">
<path fill-rule="evenodd" clip-rule="evenodd" d="M8.96887 10.125H5.70516C4.96559 10.125 4.30586 10.5899 4.05711 11.2864L3.22157 13.626H8.18951L8.96887 10.125ZM2.68585 15.126L2.2714 16.2864C1.86437 17.4261 2.70927 18.625 3.91945 18.625H7.07664L7.85558 15.126H2.68585ZM8.61336 18.625H15.4164L14.6563 15.126H9.3923L8.61336 18.625ZM16.9514 18.625H20.0814C21.2916 18.625 22.1365 17.4261 21.7295 16.2864L21.315 15.126H16.1913L16.9514 18.625ZM20.7793 13.626L19.9438 11.2864C19.695 10.5899 19.0353 10.125 18.2957 10.125H15.1048L15.8654 13.626H20.7793ZM13.5698 10.125H10.5056L9.72623 13.626H14.3304L13.5698 10.125Z" fill="#141B34"/>
<path fill-rule="evenodd" clip-rule="evenodd" d="M12 1.125C12.4142 1.125 12.75 1.46079 12.75 1.875V2.38352C13.0478 2.45794 13.3284 2.57564 13.5848 2.72957L13.9445 2.3698C14.2374 2.07691 14.7123 2.07691 15.0052 2.3698C15.2981 2.6627 15.2981 3.13757 15.0052 3.43046L14.6454 3.79023C14.7994 4.04662 14.9171 4.32724 14.9915 4.625H15.5C15.9142 4.625 16.25 4.96079 16.25 5.375C16.25 5.78921 15.9142 6.125 15.5 6.125H14.9915C14.9171 6.42277 14.7994 6.70338 14.6454 6.95978L15.0052 7.31955C15.2981 7.61244 15.2981 8.08732 15.0052 8.38021C14.7123 8.6731 14.2374 8.6731 13.9445 8.38021L13.5848 8.02044C13.3284 8.17436 13.0478 8.29207 12.75 8.36648V8.875C12.75 9.28921 12.4142 9.625 12 9.625C11.5858 9.625 11.25 9.28921 11.25 8.875V8.36648C10.9522 8.29207 10.6716 8.17436 10.4152 8.02044L10.0555 8.38021C9.76256 8.6731 9.28769 8.6731 8.9948 8.38021C8.7019 8.08732 8.7019 7.61244 8.9948 7.31955L9.35457 6.95978C9.20064 6.70338 9.08294 6.42277 9.00852 6.125H8.5C8.08579 6.125 7.75 5.78921 7.75 5.375C7.75 4.96079 8.08579 4.625 8.5 4.625H9.00852C9.08293 4.32724 9.20064 4.04662 9.35456 3.79023L8.9948 3.43046C8.7019 3.13757 8.7019 2.6627 8.9948 2.3698C9.28769 2.07691 9.76256 2.07691 10.0555 2.3698L10.4152 2.72957C10.6716 2.57564 10.9522 2.45794 11.25 2.38352V1.875C11.25 1.46079 11.5858 1.125 12 1.125ZM13.1179 4.2537C12.8315 3.96818 12.4364 3.79167 12 3.79167C11.1255 3.79167 10.4167 4.50055 10.4167 5.375C10.4167 6.24945 11.1255 6.95833 12 6.95833C12.8745 6.95833 13.5833 6.24945 13.5833 5.375C13.5833 4.9369 13.4054 4.54036 13.1179 4.2537Z" fill="#141B34"/>
<path d="M14 21.875V17.875H10V21.875H14Z" fill="#141B34"/>
<path fill-rule="evenodd" clip-rule="evenodd" d="M1 21.875C1 21.3227 1.44772 20.875 2 20.875H22C22.5523 20.875 23 21.3227 23 21.875C23 22.4273 22.5523 22.875 22 22.875H2C1.44772 22.875 1 22.4273 1 21.875Z" fill="#141B34"/>
</svg>
