<svg width="24" height="24" viewBox="0 0 24 24" fill="none" xmlns="http://www.w3.org/2000/svg">
<path fill-rule="evenodd" clip-rule="evenodd" d="M10.5 8C10.5 7.44772 10.9477 7 11.5 7H20.5C21.0523 7 21.5 7.44772 21.5 8C21.5 8.55228 21.0523 9 20.5 9H11.5C10.9477 9 10.5 8.55228 10.5 8Z" fill="#141B34"/>
<path fill-rule="evenodd" clip-rule="evenodd" d="M10.5 12C10.5 11.4477 10.9477 11 11.5 11H20.5C21.0523 11 21.5 11.4477 21.5 12C21.5 12.5523 21.0523 13 20.5 13H11.5C10.9477 13 10.5 12.5523 10.5 12Z" fill="#141B34"/>
<path fill-rule="evenodd" clip-rule="evenodd" d="M10.5 16C10.5 15.4477 10.9477 15 11.5 15H20.5C21.0523 15 21.5 15.4477 21.5 16C21.5 16.5523 21.0523 17 20.5 17H11.5C10.9477 17 10.5 16.5523 10.5 16Z" fill="#141B34"/>
<path fill-rule="evenodd" clip-rule="evenodd" d="M10.5 4C10.5 3.44772 10.9477 3 11.5 3H20.5C21.0523 3 21.5 3.44772 21.5 4C21.5 4.55228 21.0523 5 20.5 5H11.5C10.9477 5 10.5 4.55228 10.5 4Z" fill="#141B34"/>
<path fill-rule="evenodd" clip-rule="evenodd" d="M6 3C6.55228 3 7 3.44772 7 4V17.5H8.5C8.90446 17.5 9.2691 17.7436 9.42388 18.1173C9.57866 18.491 9.4931 18.9211 9.20711 19.2071L6.70711 21.7071C6.31658 22.0976 5.68342 22.0976 5.29289 21.7071L2.79289 19.2071C2.50689 18.9211 2.42134 18.491 2.57612 18.1173C2.7309 17.7436 3.09554 17.5 3.5 17.5H5V4C5 3.44772 5.44771 3 6 3Z" fill="#141B34"/>
</svg>
