<svg width="24" height="24" viewBox="0 0 24 24" fill="none" xmlns="http://www.w3.org/2000/svg">
<path fill-rule="evenodd" clip-rule="evenodd" d="M3.5 14C3.5 13.4477 3.94772 13 4.5 13H9.5C10.0523 13 10.5 13.4477 10.5 14V14.5C10.5 14.7339 10.418 14.9605 10.2682 15.1402L6.21837 20H9.5C10.0523 20 10.5 20.4477 10.5 21C10.5 21.5523 10.0523 22 9.5 22H4.5C3.94772 22 3.5 21.5523 3.5 21V20.5C3.5 20.2661 3.58202 20.0395 3.73178 19.8598L7.78162 15H4.5C3.94772 15 3.5 14.5523 3.5 14Z" fill="#141B34"/>
<path fill-rule="evenodd" clip-rule="evenodd" d="M5.56692 2.64102C5.71546 2.25483 6.0865 2 6.50027 2H7.50027C7.91404 2 8.28508 2.25483 8.43362 2.64102L10.9336 9.14102C11.1319 9.65649 10.8747 10.2351 10.3592 10.4333C9.84378 10.6316 9.26518 10.3745 9.06692 9.85898L7.00027 4.48568L4.93362 9.85898C4.73536 10.3745 4.15676 10.6316 3.64129 10.4333C3.12582 10.2351 2.86867 9.65649 3.06692 9.14102L5.56692 2.64102Z" fill="#141B34"/>
<path fill-rule="evenodd" clip-rule="evenodd" d="M17 3C17.5523 3 18 3.44772 18 4V16H20C20.4045 16 20.7691 16.2436 20.9239 16.6173C21.0787 16.991 20.9931 17.4211 20.7071 17.7071L17.7071 20.7071C17.3166 21.0976 16.6834 21.0976 16.2929 20.7071L13.2929 17.7071C13.0069 17.4211 12.9214 16.991 13.0761 16.6173C13.2309 16.2436 13.5956 16 14 16H16V4C16 3.44772 16.4477 3 17 3Z" fill="#141B34"/>
</svg>
