<svg width="24" height="24" viewBox="0 0 24 24" fill="none" xmlns="http://www.w3.org/2000/svg">
<path fill-rule="evenodd" clip-rule="evenodd" d="M4.5 1.75C2.98122 1.75 1.75 2.98122 1.75 4.5V19.5C1.75 21.0188 2.98122 22.25 4.5 22.25H19.5C21.0188 22.25 22.25 21.0188 22.25 19.5V4.5C22.25 2.98122 21.0188 1.75 19.5 1.75H4.5ZM17.5303 7.53033C17.8232 7.23743 17.8232 6.76256 17.5303 6.46967C17.2374 6.17678 16.7626 6.17678 16.4697 6.46967L13.75 9.18935V8C13.75 7.58579 13.4142 7.25 13 7.25C12.5858 7.25 12.25 7.58579 12.25 8V11C12.25 11.1989 12.329 11.3897 12.4697 11.5303C12.6103 11.671 12.8011 11.75 13 11.75H16C16.4142 11.75 16.75 11.4142 16.75 11C16.75 10.5858 16.4142 10.25 16 10.25H14.8107L17.5303 7.53033ZM8 12.25C7.58579 12.25 7.25 12.5858 7.25 13C7.25 13.4142 7.58579 13.75 8 13.75H9.18935L6.46967 16.4697C6.17678 16.7626 6.17678 17.2375 6.46967 17.5303C6.76256 17.8232 7.23744 17.8232 7.53033 17.5303L10.25 14.8107V16C10.25 16.4142 10.5858 16.75 11 16.75C11.4142 16.75 11.75 16.4142 11.75 16V13C11.75 12.5858 11.4142 12.25 11 12.25H8Z" fill="#141B34"/>
</svg>
