<svg width="24" height="24" viewBox="0 0 24 24" fill="none" xmlns="http://www.w3.org/2000/svg">
<path fill-rule="evenodd" clip-rule="evenodd" d="M6 8.25C4.48112 8.25 3.24986 9.48137 3.25 11.0003L3.25083 20.0003C3.25097 21.5189 4.48215 22.75 6.00083 22.75H17.9998C19.5186 22.75 20.7498 21.5188 20.7498 20V11C20.7498 9.48122 19.5186 8.25 17.9998 8.25H6ZM9.5 14.5C8.94772 14.5 8.5 14.9477 8.5 15.5C8.5 16.0523 8.94772 16.5 9.5 16.5H9.50897C10.0613 16.5 10.509 16.0523 10.509 15.5C10.509 14.9477 10.0613 14.5 9.50897 14.5H9.5ZM14.491 14.5C13.9387 14.5 13.491 14.9477 13.491 15.5C13.491 16.0523 13.9387 16.5 14.491 16.5H14.5C15.0523 16.5 15.5 16.0523 15.5 15.5C15.5 14.9477 15.0523 14.5 14.5 14.5H14.491Z" fill="#141B34"/>
<path fill-rule="evenodd" clip-rule="evenodd" d="M6.5 6.5C6.5 3.46243 8.96243 1 12 1C15.0376 1 17.5 3.46243 17.5 6.5V9C17.5 9.55228 17.0523 10 16.5 10C15.9477 10 15.5 9.55228 15.5 9V6.5C15.5 4.567 13.933 3 12 3C10.067 3 8.5 4.567 8.5 6.5V9C8.5 9.55228 8.05228 10 7.5 10C6.94772 10 6.5 9.55228 6.5 9V6.5Z" fill="#141B34"/>
</svg>
