<svg width="24" height="24" viewBox="0 0 24 24" fill="none" xmlns="http://www.w3.org/2000/svg">
<path fill-rule="evenodd" clip-rule="evenodd" d="M4.5 1.75C2.98122 1.75 1.75 2.98122 1.75 4.5V19.5C1.75 21.0188 2.98122 22.25 4.5 22.25H19.5C21.0188 22.25 22.25 21.0188 22.25 19.5V4.5C22.25 2.98122 21.0188 1.75 19.5 1.75H4.5ZM14.4697 6.96967C14.7626 6.67678 15.2374 6.67678 15.5303 6.96967L17.5303 8.96967C17.8232 9.26256 17.8232 9.73744 17.5303 10.0303L15.5303 12.0303C15.2374 12.3232 14.7626 12.3232 14.4697 12.0303C14.1768 11.7374 14.1768 11.2626 14.4697 10.9697L15.1893 10.25H11.499C10.8089 10.25 10.2493 10.8092 10.249 11.4993L10.247 15.1923L10.9697 14.4697C11.2626 14.1768 11.7374 14.1768 12.0303 14.4697C12.3232 14.7626 12.3232 15.2374 12.0303 15.5303L10.0303 17.5303C9.88339 17.6773 9.69066 17.7505 9.49808 17.75L9.4957 17.75C9.26552 17.7499 9.0596 17.6461 8.92211 17.4828L6.96967 15.5303C6.67678 15.2374 6.67678 14.7626 6.96967 14.4697C7.26256 14.1768 7.73744 14.1768 8.03033 14.4697L8.74704 15.1864L8.74896 11.4986C8.74975 9.98034 9.98073 8.75 11.499 8.75H15.1893L14.4697 8.03033C14.1768 7.73744 14.1768 7.26256 14.4697 6.96967Z" fill="#141B34"/>
</svg>
