<svg width="24" height="24" viewBox="0 0 24 24" fill="none" xmlns="http://www.w3.org/2000/svg">
<path fill-rule="evenodd" clip-rule="evenodd" d="M4.5 1.75C2.98122 1.75 1.75 2.98122 1.75 4.5V19.5C1.75 21.0188 2.98122 22.25 4.5 22.25H19.5C21.0188 22.25 22.25 21.0188 22.25 19.5V4.5C22.25 2.98122 21.0188 1.75 19.5 1.75H4.5ZM16 6.25C16.4142 6.25 16.75 6.58579 16.75 7L16.75 12.5C16.75 14.0188 15.5188 15.25 14 15.25L9.56045 15.25L10.5857 16.5315C10.8444 16.855 10.792 17.3269 10.4685 17.5857C10.1451 17.8444 9.67311 17.792 9.41435 17.4685L7.41647 14.9712C7.31236 14.8424 7.25 14.6785 7.25 14.5C7.25 14.32 7.31345 14.1547 7.4192 14.0254L9.41435 11.5315C9.67311 11.2081 10.1451 11.1556 10.4685 11.4144C10.792 11.6731 10.8444 12.1451 10.5857 12.4685L9.56049 13.75H14C14.6904 13.75 15.25 13.1904 15.25 12.5L15.25 7C15.25 6.58579 15.5858 6.25 16 6.25Z" fill="#141B34"/>
</svg>
