<svg width="24" height="24" viewBox="0 0 24 24" fill="none" xmlns="http://www.w3.org/2000/svg">
<path fill-rule="evenodd" clip-rule="evenodd" d="M4.5 1.75C2.98122 1.75 1.75 2.98122 1.75 4.5V19.5C1.75 21.0188 2.98122 22.25 4.5 22.25H19.5C21.0188 22.25 22.25 21.0188 22.25 19.5V4.5C22.25 2.98122 21.0188 1.75 19.5 1.75H4.5ZM12 7.21802C12.4142 7.21802 12.75 7.5538 12.75 7.96802V14.1895L13.9696 12.9697C14.2625 12.6768 14.7374 12.6768 15.0303 12.9696C15.3232 13.2625 15.3232 13.7374 15.0304 14.0303L12.5307 16.5303C12.3901 16.671 12.1993 16.75 12.0004 16.75C11.8015 16.75 11.6108 16.671 11.4701 16.5304L8.96971 14.0304C8.67679 13.7375 8.67676 13.2626 8.96963 12.9697C9.2625 12.6768 9.73737 12.6768 10.0303 12.9696L11.25 14.1892V7.96802C11.25 7.5538 11.5858 7.21802 12 7.21802Z" fill="#141B34"/>
</svg>
