<svg width="24" height="24" viewBox="0 0 24 24" fill="none" xmlns="http://www.w3.org/2000/svg">
<path fill-rule="evenodd" clip-rule="evenodd" d="M4.5 1.75C2.98122 1.75 1.75 2.98122 1.75 4.5V19.5C1.75 21.0188 2.98122 22.25 4.5 22.25H19.5C21.0188 22.25 22.25 21.0188 22.25 19.5V4.5C22.25 2.98122 21.0188 1.75 19.5 1.75H4.5ZM10.0307 7.46994C10.3234 7.76298 10.3232 8.23785 10.0301 8.5306L9.31002 9.25H16.4982C16.9124 9.25 17.2482 9.58579 17.2482 10C17.2482 10.4142 16.9124 10.75 16.4982 10.75H7.49807C7.19465 10.75 6.92113 10.5672 6.80509 10.2868C6.68905 10.0065 6.75335 9.68384 6.96801 9.4694L8.97002 7.4694C9.26306 7.17666 9.73793 7.1769 10.0307 7.46994ZM6.74805 14C6.74805 13.5858 7.08383 13.25 7.49805 13.25H16.4981C16.8014 13.25 17.0748 13.4327 17.191 13.7128C17.3071 13.993 17.2431 14.3155 17.0287 14.5301L15.0306 16.5301C14.7379 16.8231 14.263 16.8233 13.97 16.5306C13.677 16.2378 13.6767 15.763 13.9695 15.4699L14.6887 14.75H7.49805C7.08383 14.75 6.74805 14.4142 6.74805 14Z" fill="#141B34"/>
</svg>
