<svg width="24" height="24" viewBox="0 0 24 24" fill="none" xmlns="http://www.w3.org/2000/svg">
<path fill-rule="evenodd" clip-rule="evenodd" d="M7.75 1C6.23122 1 5 2.23122 5 3.75V4.93746V5H3.75C2.23118 5 0.999953 6.23127 1 7.75008L1.00037 19.7501C1.00041 21.2688 2.23162 22.5 3.75037 22.5H15.7504C17.2692 22.5 18.5004 21.2688 18.5004 19.75V18.5H19.7505C21.2693 18.5 22.5005 17.2688 22.5005 15.75V3.75C22.5005 2.23122 21.2693 1 19.7505 1H7.75ZM3.75 6.5C3.05963 6.5 2.49998 7.05967 2.5 7.75004L2.50037 19.75C2.50039 20.4404 3.06003 21 3.75037 21H15.7504C16.4408 21 17.0004 20.4404 17.0004 19.75V7.75C17.0004 7.05964 16.4408 6.5 15.7504 6.5H3.75ZM8.66651 9.63152C9.12868 8.78949 10.3714 8.7895 10.8335 9.63152L11.8108 11.412L13.9563 11.7293C14.882 11.8662 15.4161 13.0319 14.621 13.7721L13.1177 15.1716L13.4467 17.1106C13.5334 17.6218 13.2785 18.0548 12.935 18.2863C12.5945 18.5158 12.1267 18.5819 11.6971 18.3787L9.75003 17.4577L7.80293 18.3787C7.37337 18.5819 6.90558 18.5158 6.56508 18.2863C6.22159 18.0548 5.96667 17.6218 6.0534 17.1106L6.38233 15.1716L4.87908 13.7721C4.08399 13.0319 4.61803 11.8662 5.54377 11.7293L7.68925 11.412L8.66651 9.63152Z" fill="#141B34"/>
</svg>
