<svg width="24" height="24" viewBox="0 0 24 24" fill="none" xmlns="http://www.w3.org/2000/svg">
<path fill-rule="evenodd" clip-rule="evenodd" d="M6.59493 16.0513C7.00328 14.8263 8.14969 14 9.44098 14H14.5579C15.8492 14 16.9957 14.8263 17.404 16.0513L17.9481 17.6838L16.0508 18.3162L15.5066 16.6838C15.3705 16.2754 14.9884 16 14.5579 16H9.44098C9.01055 16 8.62841 16.2754 8.4923 16.6838L7.94815 18.3162L6.05078 17.6838L6.59493 16.0513Z" fill="#141B34"/>
<path fill-rule="evenodd" clip-rule="evenodd" d="M3.89451 19.333C4.20057 18.1088 5.30052 17.25 6.56241 17.25H17.4393C18.7012 17.25 19.8011 18.1088 20.1072 19.333L20.5731 21.1968C20.7704 21.9858 20.1737 22.75 19.3605 22.75H4.64124C3.82803 22.75 3.23133 21.9858 3.42856 21.1968L3.89451 19.333Z" fill="#141B34"/>
<path d="M6.9596 3.48662C7.99922 2.37942 9.73965 1.25 12 1.25C14.2603 1.25 16.0008 2.37942 17.0404 3.48662C17.1635 3.61771 17.2354 3.78865 17.243 3.9683L17.243 3.9697L17.2431 3.97211L17.2434 3.97993L17.2444 4.00725C17.2451 4.03053 17.2461 4.06381 17.247 4.10608C17.2488 4.19058 17.2505 4.31127 17.2499 4.4601C17.2487 4.7571 17.2388 5.16956 17.2033 5.6323C17.1347 6.52722 16.9636 7.72535 16.5015 8.61516C14.8277 11.8381 14.8046 14.0742 14.8046 15C14.8046 15.4142 14.4688 15.75 14.0546 15.75H9.94545C9.53124 15.75 9.19545 15.4142 9.19545 15C9.19545 14.0742 9.17226 11.8381 7.49852 8.61516C7.03644 7.72536 6.86535 6.52722 6.79672 5.6323C6.76124 5.16957 6.75127 4.7571 6.75012 4.4601C6.74954 4.31127 6.75117 4.19058 6.75299 4.10608C6.7539 4.06381 6.75486 4.03053 6.75562 4.00725L6.75657 3.97993L6.75687 3.97211L6.75701 3.96856C6.76461 3.7889 6.83651 3.61771 6.9596 3.48662Z" fill="#141B34"/>
</svg>
