<svg width="24" height="24" viewBox="0 0 24 24" fill="none" xmlns="http://www.w3.org/2000/svg">
<path fill-rule="evenodd" clip-rule="evenodd" d="M12 1.25C6.06294 1.25 1.25 6.06294 1.25 12C1.25 17.9371 6.06294 22.75 12 22.75C17.9371 22.75 22.75 17.9371 22.75 12C22.75 6.06294 17.9371 1.25 12 1.25ZM7.95959 4.85293C7.56737 4.04903 6.43564 4.04902 6.04342 4.85293L5.44197 6.08571L4.1474 6.30107C3.25441 6.44963 2.9826 7.52598 3.55245 8.12281L4.49797 9.1131L4.28843 10.5027C4.16708 11.3074 5.00146 12.0724 5.84196 11.6251L7.0015 11.0081L8.16105 11.6251C9.00155 12.0724 9.83593 11.3074 9.71458 10.5027L9.50504 9.1131L10.4506 8.12281C11.0204 7.52598 10.7486 6.44963 9.85561 6.30107L8.56104 6.08571L7.95959 4.85293ZM6.69419 6.93996L7.0015 6.31008L7.30882 6.93996C7.45715 7.24399 7.74411 7.47042 8.09368 7.52858L8.82746 7.65065L8.28052 8.22348C8.04461 8.47056 7.94257 8.81122 7.99217 9.14018L8.10627 9.89683L7.49852 9.57344C7.18736 9.40786 6.81565 9.40786 6.50449 9.57344L5.89674 9.89683L6.01084 9.14018C6.06044 8.81122 5.9584 8.47056 5.72249 8.22348L5.17555 7.65065L5.90933 7.52858C6.2589 7.47042 6.54586 7.24399 6.69419 6.93996ZM16.0434 4.85293C16.4356 4.04902 17.5674 4.04903 17.9596 4.85293L18.561 6.08571L19.8556 6.30107C20.7486 6.44963 21.0204 7.52598 20.4506 8.12281L19.505 9.1131L19.7146 10.5027C19.8359 11.3074 19.0015 12.0724 18.161 11.6251L17.0015 11.0081L15.842 11.6251C15.0015 12.0724 14.1671 11.3074 14.2884 10.5027L14.498 9.1131L13.5525 8.12281C12.9826 7.52598 13.2544 6.44963 14.1474 6.30107L15.442 6.08571L16.0434 4.85293ZM17.0015 6.31008L16.6942 6.93996C16.5459 7.24399 16.2589 7.47042 15.9093 7.52858L15.1756 7.65065L15.7225 8.22348C15.9584 8.47056 16.0604 8.81122 16.0108 9.14018L15.8967 9.89683L16.5045 9.57344C16.8157 9.40786 17.1874 9.40786 17.4985 9.57344L18.1063 9.89683L17.9922 9.14018C17.9426 8.81122 18.0446 8.47056 18.2805 8.22348L18.8275 7.65065L18.0937 7.52858C17.7441 7.47042 17.4571 7.24399 17.3088 6.93996L17.0015 6.31008ZM8.59973 14.5496C8.35097 14.2184 7.88082 14.1516 7.54963 14.4004C7.21843 14.6491 7.1516 15.1193 7.40036 15.4505C8.44801 16.8453 10.1184 17.75 12 17.75C13.8816 17.75 15.5521 16.8453 16.5997 15.4505C16.8485 15.1193 16.7817 14.6491 16.4505 14.4004C16.1193 14.1516 15.6491 14.2184 15.4004 14.5496C14.6238 15.5836 13.3898 16.25 12 16.25C10.6102 16.25 9.37631 15.5836 8.59973 14.5496Z" fill="#141B34"/>
</svg>
