<svg width="24" height="24" viewBox="0 0 24 24" fill="none" xmlns="http://www.w3.org/2000/svg">
<path fill-rule="evenodd" clip-rule="evenodd" d="M9.25 6.75C9.25 6.26984 9.29512 5.80022 9.38136 5.34515C9.24449 5.13161 9.00724 5 8.75 5H4.75C3.7835 5 3 5.7835 3 6.75V7.55875L1.09158 11.0575C1.03149 11.1677 1 11.2912 1 11.4167C1 12.2544 1.28041 13.0353 1.75465 13.653C1.75157 13.6849 1.75 13.7173 1.75 13.75V19.75C1.75 21.4069 3.09315 22.75 4.75 22.75H16.75C18.4069 22.75 19.75 21.4069 19.75 19.75V14.75C19.75 14.1977 19.3023 13.75 18.75 13.75C18.1977 13.75 17.75 14.1977 17.75 14.75V19.75C17.75 20.3023 17.3023 20.75 16.75 20.75H4.75C4.19772 20.75 3.75 20.3023 3.75 19.75V14.9268C3.97536 14.9748 4.20939 15 4.45 15C5.59425 15 6.58944 14.4293 7.21302 13.5619C7.41598 13.7901 7.64777 13.9899 7.8975 14.1607C8.73211 14.7316 9.78573 15 10.75 15C11.5595 15 12.3869 14.7686 13.0842 14.4214C13.2625 14.3327 13.3982 14.1767 13.4613 13.9878C13.5159 13.8245 13.5124 13.6481 13.4528 13.4883C10.9637 12.268 9.25 9.70913 9.25 6.75Z" fill="#141B34"/>
<path fill-rule="evenodd" clip-rule="evenodd" d="M16.75 1C13.5744 1 11 3.57436 11 6.75C11 9.92564 13.5744 12.5 16.75 12.5C19.9256 12.5 22.5 9.92564 22.5 6.75C22.5 3.57436 19.9256 1 16.75 1ZM19.3262 5.73016C19.5913 5.41195 19.5483 4.93903 19.2301 4.67385C18.9119 4.40868 18.439 4.45167 18.1738 4.76988L16.1996 7.13896L15.2803 6.21969C14.9874 5.9268 14.5126 5.9268 14.2197 6.21969C13.9268 6.51258 13.9268 6.98746 14.2197 7.28035L15.7197 8.78035C15.8687 8.92935 16.0735 9.0088 16.284 8.99925C16.4945 8.9897 16.6913 8.89204 16.8262 8.73016L19.3262 5.73016Z" fill="#141B34"/>
</svg>
