<svg width="24" height="24" viewBox="0 0 24 24" fill="none" xmlns="http://www.w3.org/2000/svg">
<path fill-rule="evenodd" clip-rule="evenodd" d="M2 7C2 5.34315 3.34315 4 5 4H17C17.5523 4 18 4.44772 18 5C18 5.55228 17.5523 6 17 6H5C4.44772 6 4 6.44772 4 7V17C4 17.5523 4.44772 18 5 18H17C17.5523 18 18 18.4477 18 19C18 19.5523 17.5523 20 17 20H5C3.34315 20 2 18.6569 2 17V7Z" fill="#141B34"/>
<path fill-rule="evenodd" clip-rule="evenodd" d="M20.998 2C21.5503 2 21.998 2.44772 21.998 3L21.998 21C21.998 21.5523 21.5503 22 20.998 22C20.4458 22 19.998 21.5523 19.998 21L19.998 3C19.998 2.44772 20.4458 2 20.998 2Z" fill="#141B34"/>
</svg>
