<svg width="24" height="24" viewBox="0 0 24 24" fill="none" xmlns="http://www.w3.org/2000/svg">
<path fill-rule="evenodd" clip-rule="evenodd" d="M4.08775 2.59034C4.24907 2.23111 4.60619 2 4.99999 2H19C19.5523 2 20 2.44772 20 3V6.5C20 7.05228 19.5523 7.5 19 7.5C18.4477 7.5 18 7.05228 18 6.5V4H7.22683L13.7474 11.3356C14.0842 11.7145 14.0842 12.2855 13.7474 12.6644L7.22683 20H18V17.5C18 16.9477 18.4477 16.5 19 16.5C19.5523 16.5 20 16.9477 20 17.5V21C20 21.5523 19.5523 22 19 22H4.99999C4.60619 22 4.24907 21.7689 4.08775 21.4097C3.92643 21.0504 3.99096 20.63 4.25258 20.3356L11.662 12L4.25258 3.66436C3.99096 3.37004 3.92643 2.94958 4.08775 2.59034Z" fill="#141B34"/>
</svg>
