<svg width="24" height="24" viewBox="0 0 24 24" fill="none" xmlns="http://www.w3.org/2000/svg">
<path fill-rule="evenodd" clip-rule="evenodd" d="M4 4C3.44772 4 3 4.44772 3 5V19C3 19.5523 3.44772 20 4 20H5.5C6.05228 20 6.5 20.4477 6.5 21C6.5 21.5523 6.05228 22 5.5 22H4C2.34315 22 1 20.6569 1 19V5C1 3.34315 2.34315 2 4 2H5.5C6.05228 2 6.5 2.44772 6.5 3C6.5 3.55228 6.05228 4 5.5 4H4ZM17.5 2.99999C17.5 2.44771 17.9477 2 18.5 2L20 2.00001C21.6569 2.00003 23 3.34317 23 5.00001V19C23 20.6569 21.6569 22 20 22H18.5C17.9477 22 17.5 21.5523 17.5 21C17.5 20.4477 17.9477 20 18.5 20H20C20.5523 20 21 19.5523 21 19V5.00001C21 4.44773 20.5523 4.00002 20 4.00001L18.5 4C17.9477 4 17.5 3.55228 17.5 2.99999Z" fill="#141B34"/>
<path fill-rule="evenodd" clip-rule="evenodd" d="M8.08938 7.58678C8.25152 7.22947 8.60764 7 9.00002 7H15C15.5523 7 16 7.44772 16 8V9.5C16 10.0523 15.5523 10.5 15 10.5C14.4477 10.5 14 10.0523 14 9.5V9H11.2038L13.2526 11.3415C13.5825 11.7185 13.5825 12.2815 13.2526 12.6585L11.2038 15H14V14.5C14 13.9477 14.4477 13.5 15 13.5C15.5523 13.5 16 13.9477 16 14.5V16C16 16.5523 15.5523 17 15 17H9.00002C8.60764 17 8.25152 16.7705 8.08938 16.4132C7.92725 16.0559 7.98906 15.6368 8.24744 15.3415L11.1712 12L8.24744 8.6585C7.98906 8.36321 7.92725 7.9441 8.08938 7.58678Z" fill="#141B34"/>
</svg>
