<svg width="24" height="24" viewBox="0 0 24 24" fill="none" xmlns="http://www.w3.org/2000/svg">
<path d="M14.559 8.60662L14.5578 8.60578L14.5556 8.60419L14.5491 8.59941L14.5278 8.58354C14.51 8.57022 14.4852 8.55142 14.4544 8.52752C14.3928 8.47977 14.3069 8.41138 14.2046 8.32535C14.0013 8.15422 13.7278 7.90863 13.4517 7.61282C13.1778 7.31931 12.8865 6.96063 12.6602 6.56208C12.4366 6.16803 12.25 5.68839 12.25 5.16667C12.25 4.30954 12.5315 3.56954 13.0503 3.04045C13.5672 2.51336 14.267 2.25 15 2.25C15.733 2.25 16.4328 2.51336 16.9497 3.04045C17.4685 3.56954 17.75 4.30954 17.75 5.16667C17.75 5.68839 17.5634 6.16803 17.3398 6.56208C17.1135 6.96063 16.8222 7.31931 16.5483 7.61282C16.2722 7.90863 15.9987 8.15422 15.7954 8.32535C15.6931 8.41138 15.6072 8.47977 15.5456 8.52752C15.5148 8.55142 15.49 8.57022 15.4722 8.58354L15.4509 8.59941L15.4444 8.60419L15.4422 8.60578L15.4414 8.60637C15.1785 8.79727 14.8218 8.79751 14.559 8.60662Z" fill="#141B34"/>
<path d="M10.6809 10.0527L10.6823 10.0558L10.683 10.0573C10.8329 10.383 10.7308 10.77 10.4401 10.9799L10.4391 10.9806L10.4363 10.9826L10.4274 10.9889L10.3969 11.0104C10.3711 11.0284 10.3342 11.0538 10.2874 11.0852C10.1937 11.1481 10.0596 11.2355 9.89255 11.3376C9.55956 11.5411 9.08968 11.8065 8.54378 12.0516C7.49574 12.5223 5.98617 13.0024 4.61868 12.5983C2.14267 11.8665 0.861748 9.89704 1.35415 7.85523C1.59273 6.86589 2.21513 6.05878 3.13752 5.61582C4.05062 5.17732 5.18326 5.12928 6.41061 5.492C7.76603 5.89256 8.84313 7.12494 9.53253 8.10083C9.89207 8.60978 10.1775 9.09486 10.373 9.45208C10.471 9.63125 10.5472 9.77964 10.5994 9.88456C10.6256 9.93706 10.6458 9.97877 10.6598 10.0081L10.6762 10.0427L10.6809 10.0527Z" fill="#141B34"/>
<path fill-rule="evenodd" clip-rule="evenodd" d="M15.2486 9.49456C14.3987 9.70999 13.5197 10.0694 12.6305 10.5791C12.277 10.7818 11.945 11.0195 11.6337 11.2841C11.6342 11.2903 11.6347 11.2966 11.6351 11.3029L11.747 13.009C11.826 14.2327 12.4209 15.5562 13.3167 16.7985C14.2065 18.0325 15.3497 19.1258 16.4289 19.8857L16.4303 19.8866L17.9126 20.9199C17.9461 20.9432 17.977 20.9688 18.0055 20.9962C18.1819 20.9156 18.3547 20.8273 18.5229 20.7309C19.2816 20.296 19.9413 19.8126 20.4997 19.2927L19.5869 18.6933C19.5784 18.6877 19.57 18.6819 19.5617 18.676C16.9804 16.8262 15.2486 13.804 15.2486 10.5V9.49456ZM21.5131 18.1637C21.8839 17.6611 22.173 17.136 22.3786 16.597C22.9796 15.0215 22.845 13.377 22.0191 11.9566C21.1934 10.5366 19.8285 9.6013 18.1586 9.33112C17.7059 9.25787 17.2345 9.23389 16.7486 9.26056V10.5C16.7486 13.2705 18.204 15.8521 20.4233 17.448L21.5131 18.1637ZM16.2023 21.5561L15.5697 21.1152L15.5669 21.1133C14.3563 20.2612 13.0916 19.0508 12.1 17.6758C11.1142 16.3087 10.3542 14.7166 10.2502 13.1067L10.2307 12.8103C9.4491 13.8688 8.85811 15.0612 8.4231 16.1235C8.01418 17.1221 7.72574 18.0495 7.53941 18.7269C7.44608 19.0663 7.37796 19.3444 7.33285 19.5392C7.31029 19.6366 7.29347 19.7133 7.28211 19.7666L7.26913 19.8285L7.26564 19.8457L7.26464 19.8507L7.26421 19.8528C7.19156 20.2214 7.40362 20.5875 7.75921 20.7086L7.76075 20.7091L7.76559 20.7108L7.78224 20.7163L7.84265 20.7361C7.89469 20.7529 7.96994 20.7768 8.06613 20.8061C8.25845 20.8647 8.5349 20.9451 8.87732 21.0344C9.56096 21.2128 10.5136 21.4284 11.5883 21.576C12.9718 21.7659 14.6354 21.8549 16.2023 21.5561Z" fill="#141B34"/>
</svg>
