<svg width="24" height="24" viewBox="0 0 24 24" fill="none" xmlns="http://www.w3.org/2000/svg">
<path fill-rule="evenodd" clip-rule="evenodd" d="M17.7929 1.29289C18.1834 0.902369 18.8166 0.902369 19.2071 1.29289L21.7071 3.79289C22.0976 4.18342 22.0976 4.81658 21.7071 5.20711L19.2071 7.70711C18.8166 8.09763 18.1834 8.09763 17.7929 7.70711C17.4024 7.31658 17.4024 6.68342 17.7929 6.29289L18.5858 5.5H15C14.4477 5.5 14 5.05228 14 4.5C14 3.94772 14.4477 3.5 15 3.5H18.5858L17.7929 2.70711C17.4024 2.31658 17.4024 1.68342 17.7929 1.29289Z" fill="#141B34"/>
<path fill-rule="evenodd" clip-rule="evenodd" d="M5.75007 9.63424L5.74999 3.75001C5.74999 2.3693 6.86928 1.25 8.24999 1.25C9.6307 1.25 10.75 2.36929 10.75 3.75V8.74751C12.6139 8.81064 15.319 9.38616 17.3531 11.4332C18.289 12.3751 18.3444 13.7529 18.1737 14.8931C17.9985 16.0631 17.5522 17.2226 17.1813 17.9998L16.2501 20.1551V22C16.2501 22.4142 15.9143 22.75 15.5001 22.75H6.50013C6.08592 22.75 5.75013 22.4142 5.75013 22V20.2799C5.71638 20.2408 5.67869 20.197 5.63765 20.1492C5.45673 19.9385 5.20996 19.6485 4.94709 19.3322C4.43711 18.7185 3.81671 17.9469 3.53363 17.4807C3.47703 17.3875 3.41534 17.2886 3.35072 17.185C3.08233 16.7547 2.76332 16.2433 2.54778 15.7201C2.26704 15.0386 2.11239 14.2344 2.41534 13.3624C2.58576 12.8719 2.93012 12.3824 3.28741 11.9559C3.65532 11.5168 4.08673 11.0868 4.49046 10.7138C4.89591 10.3391 5.28363 10.0124 5.56941 9.77981C5.63521 9.72625 5.69576 9.67754 5.75007 9.63424Z" fill="#141B34"/>
</svg>
