<svg width="24" height="24" viewBox="0 0 24 24" fill="none" xmlns="http://www.w3.org/2000/svg">
<path fill-rule="evenodd" clip-rule="evenodd" d="M7.25 3.75C7.25 2.36929 8.36929 1.25 9.75 1.25C11.1307 1.25 12.25 2.36929 12.25 3.75V8.74751C14.1139 8.81064 16.819 9.38616 18.8531 11.4332C19.789 12.3751 19.8445 13.7529 19.6737 14.8931C19.4986 16.0631 19.0522 17.2226 18.6813 17.9998L17.75 20.1551V22C17.75 22.4142 17.4142 22.75 17 22.75H8C7.58579 22.75 7.25 22.4142 7.25 22V20.2558L2.78831 14.5527L2.78748 14.5516C2.07481 13.6458 2.07046 12.3565 2.77682 11.4457C3.63524 10.3388 5.22827 10.1793 6.2802 11.1094C6.29632 11.1236 6.31182 11.1386 6.32666 11.1542L7.25 12.1242L7.25 3.75Z" fill="#141B34"/>
<path fill-rule="evenodd" clip-rule="evenodd" d="M17.7929 1.29289C18.1834 0.902369 18.8166 0.902369 19.2071 1.29289L21.7071 3.79289C22.0976 4.18342 22.0976 4.81658 21.7071 5.20711L19.2071 7.70711C18.8166 8.09763 18.1834 8.09763 17.7929 7.70711C17.4024 7.31658 17.4024 6.68342 17.7929 6.29289L18.5858 5.5H15C14.4477 5.5 14 5.05228 14 4.5C14 3.94772 14.4477 3.5 15 3.5H18.5858L17.7929 2.70711C17.4024 2.31658 17.4024 1.68342 17.7929 1.29289Z" fill="#141B34"/>
</svg>
