<svg width="24" height="24" viewBox="0 0 24 24" fill="none" xmlns="http://www.w3.org/2000/svg">
<path fill-rule="evenodd" clip-rule="evenodd" d="M7.25514 4.75C7.25514 3.36929 8.37442 2.25 9.75514 2.25C11.1358 2.25 12.2551 3.36929 12.2551 4.75V10.25H16C18.0711 10.25 19.75 11.9289 19.75 14V19C19.75 21.0711 18.0711 22.75 16 22.75H9.07C8.15081 22.75 7.29239 22.2907 6.7823 21.5261L2.78334 15.5313C2.06867 14.6238 2.07177 13.3411 2.79549 12.4365C3.67497 11.3371 5.29041 11.1853 6.35934 12.1015L7.25514 12.8693V4.75Z" fill="#141B34"/>
<path fill-rule="evenodd" clip-rule="evenodd" d="M18.2071 1.29289C18.5976 1.68342 18.5976 2.31658 18.2071 2.70711L17.4142 3.5H21C21.5523 3.5 22 3.94772 22 4.5C22 5.05228 21.5523 5.5 21 5.5H17.4142L18.2071 6.29289C18.5976 6.68342 18.5976 7.31658 18.2071 7.70711C17.8166 8.09763 17.1834 8.09763 16.7929 7.70711L14.2929 5.20711C13.9024 4.81658 13.9024 4.18342 14.2929 3.79289L16.7929 1.29289C17.1834 0.902369 17.8166 0.902369 18.2071 1.29289Z" fill="#141B34"/>
</svg>
