<svg width="24" height="24" viewBox="0 0 24 24" fill="none" xmlns="http://www.w3.org/2000/svg">
<path fill-rule="evenodd" clip-rule="evenodd" d="M15.5761 5.61732C15.7309 5.24365 16.0956 5 16.5 5H17.5001L17.5001 2C17.5001 1.44772 17.9478 1 18.5001 1C19.0524 1 19.5001 1.44772 19.5001 2L19.5001 5L20.5 5C20.9045 5 21.2691 5.24364 21.4239 5.61731C21.5787 5.99098 21.4931 6.42109 21.2071 6.70709L19.2072 8.70709C19.0197 8.89463 18.7653 9 18.5001 9C18.2349 9 17.9805 8.89465 17.793 8.70712L15.7929 6.70712C15.5069 6.42112 15.4214 5.991 15.5761 5.61732Z" fill="#141B34"/>
<path d="M3.34835 12.0901L5.90547 9.53302V14.4991C5.90547 14.7477 6.10694 14.9491 6.35547 14.9491C6.604 14.9491 6.80547 14.7477 6.80547 14.4991V3.53443C6.80547 2.8229 7.38228 2.24609 8.09381 2.24609C8.80534 2.24609 9.38215 2.8229 9.38215 3.53443V11.9202C9.38215 12.1687 9.58362 12.3702 9.83215 12.3702C10.0807 12.3702 10.2821 12.1687 10.2821 11.9202V8.7843C10.2821 8.7843 10.567 8.7576 10.75 8.74914C11.0426 8.73563 11.5 8.74914 11.5 8.74914C11.9999 8.74914 12.4617 8.91218 12.8352 9.18798V12.8189C12.8352 13.0674 13.0367 13.2689 13.2852 13.2689C13.5338 13.2689 13.7352 13.0674 13.7352 12.8189V9.74914H14.5C15.2291 9.74914 15.8772 10.0959 16.2883 10.6335V13.4992C16.2883 13.7477 16.4898 13.9492 16.7383 13.9492C16.9868 13.9492 17.1883 13.7477 17.1883 13.4992V10.7491H17.5C18.7426 10.7491 19.75 11.7565 19.75 12.9991V18.9991C19.75 21.0702 18.0711 22.7491 16 22.7491H8.60555C7.35173 22.7491 6.18086 22.1225 5.48536 21.0793L2.87981 17.1709C2.46914 16.5549 2.25 15.8312 2.25 15.0908V14.7418C2.25 13.7472 2.64509 12.7934 3.34835 12.0901Z" fill="#141B34"/>
</svg>
