<svg width="24" height="24" viewBox="0 0 24 24" fill="none" xmlns="http://www.w3.org/2000/svg">
<path fill-rule="evenodd" clip-rule="evenodd" d="M2.75 5C2.75 2.92893 4.42893 1.25 6.5 1.25L17.5 1.25C19.5711 1.25 21.25 2.92893 21.25 5L21.25 19C21.25 21.0711 19.5711 22.75 17.5 22.75L6.5 22.75C4.42893 22.75 2.75 21.0711 2.75 19L2.75 5ZM9.25 5C9.25 4.58579 9.58579 4.25 10 4.25L14 4.25C14.4142 4.25 14.75 4.58579 14.75 5C14.75 5.41421 14.4142 5.75 14 5.75L10 5.75C9.58579 5.75 9.25 5.41421 9.25 5ZM12 17.5C11.4477 17.5 11 17.9477 11 18.5C11 19.0523 11.4477 19.5 12 19.5H12.01C12.5623 19.5 13.01 19.0523 13.01 18.5C13.01 17.9477 12.5623 17.5 12.01 17.5H12Z" fill="#141B34"/>
</svg>
