<svg width="24" height="24" viewBox="0 0 24 24" fill="none" xmlns="http://www.w3.org/2000/svg">
<path fill-rule="evenodd" clip-rule="evenodd" d="M22.629 3.70711C23.0195 3.31658 23.0195 2.68342 22.629 2.29289C22.2385 1.90237 21.6053 1.90237 21.2148 2.29289L19.2577 4.25H11.75C11.0207 4.25 10.3212 4.53973 9.80546 5.05546L2.80546 12.0555C1.73151 13.1294 1.73151 14.8706 2.80546 15.9445L8.97703 22.1161C10.051 23.1901 11.7922 23.1901 12.8661 22.1161L19.8661 15.1161C20.3818 14.6004 20.6716 13.9009 20.6716 13.1716V5.66452L22.629 3.70711ZM7.2152 14.2925C7.60596 13.9022 8.23913 13.9026 8.62941 14.2933L10.6307 16.2971C11.021 16.6878 11.0206 17.321 10.6299 17.7113C10.2391 18.1016 9.60594 18.1012 9.21566 17.7104L7.21434 15.7067C6.82405 15.3159 6.82444 14.6827 7.2152 14.2925Z" fill="#141B34"/>
</svg>
