<svg width="24" height="24" viewBox="0 0 24 24" fill="none" xmlns="http://www.w3.org/2000/svg">
<path fill-rule="evenodd" clip-rule="evenodd" d="M4 3.75H2.55307C1.96778 3.75 1.35307 4.04935 1.05822 4.65606C0.545166 5.71175 0.25 7.05712 0.25 8.5C0.25 9.94288 0.545166 11.2882 1.05822 12.3439C1.35307 12.9506 1.96778 13.25 2.55307 13.25H4V3.75ZM5.5 13.25H8V3.75H5.5V13.25ZM10.9469 13.25H9.5V3.75H10.9469C11.5322 3.75 12.1469 4.04935 12.4418 4.65606C12.9548 5.71175 13.25 7.05712 13.25 8.5C13.25 9.94288 12.9548 11.2882 12.4418 12.3439C12.1469 12.9506 11.5322 13.25 10.9469 13.25ZM21.6465 18.25H22C22.9665 18.25 23.75 17.4665 23.75 16.5V13.054C23.75 12.5555 23.6145 12.0665 23.3581 11.6391L21.2257 8.08514C20.7287 7.25682 19.8336 6.75 18.8676 6.75H16C15.0335 6.75 14.25 7.5335 14.25 8.5V18.25H16.3535C16.68 19.4043 17.7412 20.25 19 20.25C20.2588 20.25 21.32 19.4043 21.6465 18.25ZM17.75 11.75V8.25H18.8676C19.3067 8.25 19.7136 8.48037 19.9395 8.85688L21.6754 11.75H17.75ZM17.75 17.5C17.75 16.8096 18.3096 16.25 19 16.25C19.6904 16.25 20.25 16.8096 20.25 17.5C20.25 18.1904 19.6904 18.75 19 18.75C18.3096 18.75 17.75 18.1904 17.75 17.5ZM1 14.25H13V18.25H7.64648C7.32002 19.4043 6.25878 20.25 5 20.25C3.74122 20.25 2.67998 19.4043 2.35352 18.25H2C1.0335 18.25 0.25 17.4665 0.25 16.5V15C0.25 14.5858 0.585786 14.25 1 14.25ZM3.75 17.5C3.75 16.8096 4.30964 16.25 5 16.25C5.69036 16.25 6.25 16.8096 6.25 17.5C6.25 18.1904 5.69036 18.75 5 18.75C4.30964 18.75 3.75 18.1904 3.75 17.5Z" fill="#141B34"/>
</svg>
