<svg width="24" height="24" viewBox="0 0 24 24" fill="none" xmlns="http://www.w3.org/2000/svg">
<path fill-rule="evenodd" clip-rule="evenodd" d="M10 3.5C8.34315 3.5 7 4.84315 7 6.5C7 7.05228 6.55228 7.5 6 7.5C5.44772 7.5 5 7.05228 5 6.5C5 3.73858 7.23858 1.5 10 1.5C12.7614 1.5 15 3.73858 15 6.5C15 7.05228 14.5523 7.5 14 7.5C13.4477 7.5 13 7.05228 13 6.5C13 4.84315 11.6569 3.5 10 3.5Z" fill="#141B34"/>
<path d="M4.3064 13.4054C4.77718 12.7992 5.63902 12.7535 6.16668 13.2971L6.26853 13.4132C6.27711 13.4251 6.28636 13.4368 6.29628 13.4481L7.7455 15.1025C7.869 15.2434 8.06695 15.2931 8.24238 15.2271C8.41781 15.1612 8.53398 14.9934 8.53398 14.8059V5.82168C8.58406 5.22689 9.08269 4.75977 9.69043 4.75977C10.3314 4.75977 10.851 5.27938 10.851 5.92035V13.0328C10.851 13.2581 11.0336 13.4407 11.2589 13.4407C11.4842 13.4407 11.6668 13.2581 11.6668 13.0328V10.5023H12.7858C13.2262 10.5023 13.6125 10.7857 13.7576 11.1985C13.7962 11.3083 13.8175 11.4272 13.8175 11.5521V13.9975C13.8175 14.2228 14.0001 14.4054 14.2254 14.4054C14.4507 14.4054 14.6333 14.2228 14.6333 13.9975V11.467H15.7523C16.1927 11.467 16.579 11.7504 16.7241 12.1632C16.7627 12.2731 16.784 12.392 16.784 12.5168V14.5307C16.784 14.7559 16.9667 14.9385 17.1919 14.9385C17.4172 14.9385 17.5998 14.7559 17.5998 14.5307V12.4317H18.7188C19.2765 12.4317 19.7505 12.8898 19.7505 13.4816V19.7523C19.7505 21.1432 18.632 22.2492 17.2792 22.2492H9.53141C8.81082 22.2492 8.14594 21.8616 7.79095 21.2345L4.29374 15.0568L4.2819 15.0406C3.92811 14.5546 3.93872 13.8789 4.3064 13.4054Z" fill="#141B34"/>
</svg>
