<svg width="24" height="24" viewBox="0 0 24 24" fill="none" xmlns="http://www.w3.org/2000/svg">
<path fill-rule="evenodd" clip-rule="evenodd" d="M4.49747 6.91955C3.33702 7.49978 3 8.11633 3 8.5C3 8.8233 3.23931 9.31197 4.00896 9.80492C4.10426 8.77744 4.94269 8.08219 5.72436 7.69136C6.61434 7.24637 7.77385 7 9 7C9.55228 7 10 7.44772 10 8V10.9618C11.3942 10.8542 12.6096 10.5269 13.5025 10.0804C14.663 9.50022 15 8.88367 15 8.5C15 8.11633 14.663 7.49978 13.5025 6.91955C12.4019 6.36924 10.8114 6 9 6C7.18859 6 5.5981 6.36924 4.49747 6.91955ZM15.7229 11C16.4725 10.3508 17 9.51458 17 8.5C17 6.95067 15.77 5.81723 14.397 5.1307C12.9641 4.41426 11.0546 4 9 4C6.94542 4 5.03591 4.41426 3.60304 5.1307C2.22998 5.81723 1 6.95067 1 8.5L1 15.6667C1 17.1957 2.2664 18.2818 3.62032 18.9265C4.11192 19.1606 4.65974 19.3608 5.25034 19.5225C5.25011 19.5151 5.25 19.5075 5.25 19.5L5.25 16C5.25 15.5858 5.58579 15.25 6 15.25C6.41421 15.25 6.75 15.5858 6.75 16L6.75 19.5C6.75 19.6164 6.7235 19.7265 6.6762 19.8248C7.41522 19.9395 8.19646 20 9 20H9.25V16.5C9.25 16.0858 9.58579 15.75 10 15.75C10.4142 15.75 10.75 16.0858 10.75 16.5V20L13.25 20V16.5C13.25 16.0858 13.5858 15.75 14 15.75C14.4142 15.75 14.75 16.0858 14.75 16.5V20H17.25V16.5C17.25 16.0858 17.5858 15.75 18 15.75C18.4142 15.75 18.75 16.0858 18.75 16.5V20L22 20C22.5523 20 23 19.5523 23 19V12C23 11.4477 22.5523 11 22 11L15.7229 11ZM6.00064 9.99456C6.00007 9.99739 6 9.99894 6 10C6 10.0011 6.00007 10.0026 6.00064 10.0054C6.00124 10.0084 6.00277 10.0146 6.00676 10.0243C6.01484 10.044 6.03417 10.0811 6.07781 10.1326C6.16902 10.2405 6.3402 10.3805 6.61879 10.5198C6.97567 10.6982 7.44832 10.8449 8 10.9274L8 9.07255C7.44832 9.15507 6.97567 9.30177 6.61879 9.48021C6.3402 9.61951 6.16902 9.75953 6.07781 9.86735C6.03417 9.91894 6.01484 9.95595 6.00676 9.9757C6.00277 9.98543 6.00124 9.99161 6.00064 9.99456Z" fill="#141B34"/>
</svg>
