<svg width="24" height="24" viewBox="0 0 24 24" fill="none" xmlns="http://www.w3.org/2000/svg">
<path fill-rule="evenodd" clip-rule="evenodd" d="M7.75 3C7.75 2.0335 8.5335 1.25 9.5 1.25H14.5C15.4665 1.25 16.25 2.0335 16.25 3C16.25 3.9665 15.4665 4.75 14.5 4.75H9.5C8.5335 4.75 7.75 3.9665 7.75 3Z" fill="#141B34"/>
<path fill-rule="evenodd" clip-rule="evenodd" d="M6.4601 2.75C6.45341 2.83245 6.45 2.91583 6.45 3C6.45 4.68447 7.81553 6.05 9.5 6.05L14.5 6.05C16.1845 6.05 17.55 4.68447 17.55 3C17.55 2.91583 17.5466 2.83245 17.5399 2.75L18.5 2.75C20.0188 2.75 21.25 3.98122 21.25 5.5L21.25 20C21.25 21.5188 20.0188 22.75 18.5 22.75L5.5 22.75C3.98122 22.75 2.75 21.5188 2.75 20L2.75 5.5C2.75 3.98122 3.98122 2.75 5.5 2.75H6.4601ZM13.25 11C13.25 10.5858 13.5858 10.25 14 10.25H17C17.4142 10.25 17.75 10.5858 17.75 11C17.75 11.4142 17.4142 11.75 17 11.75H14C13.5858 11.75 13.25 11.4142 13.25 11ZM11.5303 10.5303C11.8232 10.2374 11.8232 9.76256 11.5303 9.46967C11.2374 9.17678 10.7626 9.17678 10.4697 9.46967L8.5 11.4393L8.03033 10.9697C7.73744 10.6768 7.26256 10.6768 6.96967 10.9697C6.67678 11.2626 6.67678 11.7374 6.96967 12.0303L7.96967 13.0303C8.26256 13.3232 8.73744 13.3232 9.03033 13.0303L11.5303 10.5303ZM13.25 17C13.25 16.5858 13.5858 16.25 14 16.25H17C17.4142 16.25 17.75 16.5858 17.75 17C17.75 17.4142 17.4142 17.75 17 17.75H14C13.5858 17.75 13.25 17.4142 13.25 17ZM8 16.25C7.58579 16.25 7.25 16.5858 7.25 17C7.25 17.4142 7.58579 17.75 8 17.75H9.5C9.91421 17.75 10.25 17.4142 10.25 17C10.25 16.5858 9.91421 16.25 9.5 16.25H8Z" fill="#141B34"/>
</svg>
