<svg width="24" height="24" viewBox="0 0 24 24" fill="none" xmlns="http://www.w3.org/2000/svg">
<path fill-rule="evenodd" clip-rule="evenodd" d="M14.0001 12C14.3632 12 14.6978 12.1969 14.8742 12.5144L19.8742 21.5144C20.1424 21.9971 19.9685 22.6059 19.4857 22.8742C19.0029 23.1424 18.3941 22.9684 18.1259 22.4856L14.0001 15.0591L9.87422 22.4856C9.606 22.9684 8.9972 23.1424 8.51442 22.8742C8.03163 22.6059 7.85769 21.9971 8.1259 21.5144L13.1259 12.5144C13.3023 12.1969 13.6369 12 14.0001 12Z" fill="#141B34"/>
<path fill-rule="evenodd" clip-rule="evenodd" d="M16.4432 1.57015C17.5848 0.910796 19.0442 1.30222 19.7031 2.4439L22.4301 7.16941C23.0888 8.31088 22.6981 9.77063 21.5567 10.4299C20.4152 11.0892 18.9558 10.6978 18.2969 9.55612L15.5699 4.8306C14.9112 3.68914 15.3019 2.22939 16.4432 1.57015Z" fill="#141B34"/>
<path fill-rule="evenodd" clip-rule="evenodd" d="M7.36992 13.0069C7.64225 13.4874 7.47353 14.0977 6.99306 14.37L4.09473 16.0128L4.37357 16.5135C4.64232 16.9959 4.46904 17.6049 3.98655 17.8737C3.50406 18.1424 2.89507 17.9691 2.62633 17.4867L1.85802 16.1073L1.11993 14.7395C0.857629 14.2535 1.03899 13.6468 1.52501 13.3845C2.01103 13.1222 2.61766 13.3036 2.87997 13.7896L3.13323 14.2589L6.00684 12.6301C6.48731 12.3577 7.09758 12.5265 7.36992 13.0069Z" fill="#141B34"/>
<path d="M14.0119 4.30566L5.45375 9.36278C4.64181 9.84256 4.3561 10.8794 4.80771 11.7074L6.84944 15.4506C7.32353 16.3197 8.42365 16.6229 9.27603 16.1192L17.8456 11.0554C17.5868 10.813 17.3589 10.5289 17.1725 10.2059L14.4455 5.48036C14.2292 5.10549 14.0861 4.70839 14.0119 4.30566Z" fill="#141B34"/>
</svg>
