<svg width="24" height="24" viewBox="0 0 24 24" fill="none" xmlns="http://www.w3.org/2000/svg">
<path fill-rule="evenodd" clip-rule="evenodd" d="M12.6402 1.23178C12.2693 0.92274 11.7307 0.92274 11.3598 1.23178C8.42974 3.67351 5.99232 5.13835 2.50386 7.13176C2.19229 7.3098 2 7.64114 2 8V10C2 10.5523 2.44772 11 3 11H11V14H9C8.44772 14 8 14.4477 8 15C8 15.5523 8.44772 16 9 16H11V21C10.4477 21 10 21.4477 10 22C10 22.5523 10.4477 23 11 23H13C13.5523 23 14 22.5523 14 22C14 21.4477 13.5523 21 13 21V16H15C15.5523 16 16 15.5523 16 15C16 14.4477 15.5523 14 15 14H13V11H21C21.5523 11 22 10.5523 22 10V8C22 7.64114 21.8077 7.3098 21.4961 7.13176C18.0077 5.13835 15.5703 3.67351 12.6402 1.23178ZM3.98085 13.8041C3.87254 13.2625 3.34571 12.9113 2.80416 13.0196C2.2626 13.1279 1.91138 13.6547 2.01969 14.1963L2.96761 18.9359L2.05159 21.684C1.87694 22.2079 2.1601 22.7742 2.68404 22.9489C3.20799 23.1235 3.77431 22.8404 3.94895 22.3164L4.72103 20.0002H6.27951L7.05159 22.3164C7.22624 22.8404 7.79256 23.1235 8.3165 22.9489C8.84044 22.7742 9.1236 22.2079 8.94895 21.684L7.94895 18.684C7.81284 18.2756 7.4307 18.0002 7.00027 18.0002H4.82008L3.98085 13.8041ZM20.0191 13.8041C20.1275 13.2625 20.6543 12.9113 21.1958 13.0196C21.7374 13.1279 22.0886 13.6547 21.9803 14.1963L21.0324 18.9359L21.9484 21.684C22.1231 22.2079 21.8399 22.7742 21.316 22.9489C20.792 23.1235 20.2257 22.8404 20.051 22.3164L19.279 20.0002H17.7205L16.9484 22.3164C16.7738 22.8404 16.2074 23.1235 15.6835 22.9489C15.1596 22.7742 14.8764 22.2079 15.051 21.684L16.051 18.684C16.1872 18.2756 16.5693 18.0002 16.9997 18.0002H19.1799L20.0191 13.8041Z" fill="#141B34"/>
</svg>
