<svg width="24" height="24" viewBox="0 0 24 24" fill="none" xmlns="http://www.w3.org/2000/svg">
<path fill-rule="evenodd" clip-rule="evenodd" d="M8 2.25C7.0335 2.25 6.25 3.0335 6.25 4L6.25 6.26772C6.16835 6.25604 6.08488 6.25 6 6.25L4 6.25C3.0335 6.25 2.25 7.0335 2.25 8L2.25 14C2.25 14.9665 3.0335 15.75 4 15.75L6 15.75C6.9665 15.75 7.75 14.9665 7.75 14V11.7323C7.83165 11.744 7.91512 11.75 8 11.75H10C10.9665 11.75 11.75 10.9665 11.75 10L11.75 4C11.75 3.0335 10.9665 2.25 10 2.25L8 2.25ZM10 16.25C9.0335 16.25 8.25 17.0335 8.25 18V20C8.25 20.9665 9.0335 21.75 10 21.75H20C20.9665 21.75 21.75 20.9665 21.75 20V18C21.75 17.0335 20.9665 16.25 20 16.25H17.75V14C17.75 13.0335 16.9665 12.25 16 12.25H14C13.0335 12.25 12.25 13.0335 12.25 14V16.25H10Z" fill="#141B34"/>
</svg>
