<svg width="24" height="24" viewBox="0 0 24 24" fill="none" xmlns="http://www.w3.org/2000/svg">
<path fill-rule="evenodd" clip-rule="evenodd" d="M2 21C2 20.4477 2.44772 20 3 20H21C21.5523 20 22 20.4477 22 21C22 21.5523 21.5523 22 21 22H3C2.44772 22 2 21.5523 2 21Z" fill="#141B34"/>
<path fill-rule="evenodd" clip-rule="evenodd" d="M10.0614 2.65575C10.2058 2.26186 10.5807 2 11.0003 2H13.0003C13.4198 2 13.7947 2.26186 13.9391 2.65575L19.4391 17.6557C19.6293 18.1743 19.3631 18.7488 18.8445 18.9389C18.326 19.129 17.7515 18.8628 17.5614 18.3443L15.9685 14H8.03204L6.43915 18.3443C6.24902 18.8628 5.67454 19.129 5.15602 18.9389C4.63749 18.7488 4.37127 18.1743 4.5614 17.6557L10.0614 2.65575ZM8.76537 12H15.2352L12.3018 4H11.6987L8.76537 12Z" fill="#141B34"/>
</svg>
