<svg width="24" height="24" viewBox="0 0 24 24" fill="none" xmlns="http://www.w3.org/2000/svg">
<path fill-rule="evenodd" clip-rule="evenodd" d="M12 10.0001C12 9.44784 11.5523 9.00012 11 9.00012H3C2.44772 9.00012 2 9.44784 2 10.0001C2 10.5524 2.44772 11.0001 3 11.0001H11C11.5523 11.0001 12 10.5524 12 10.0001Z" fill="#141B34"/>
<path fill-rule="evenodd" clip-rule="evenodd" d="M12 15.0001C12 14.4478 11.5523 14.0001 11 14.0001H3C2.44772 14.0001 2 14.4478 2 15.0001C2 15.5524 2.44772 16.0001 3 16.0001H11C11.5523 16.0001 12 15.5524 12 15.0001Z" fill="#141B34"/>
<path fill-rule="evenodd" clip-rule="evenodd" d="M22 5.00012C22 4.44784 21.5523 4.00012 21 4.00012H3C2.44772 4.00012 2 4.44784 2 5.00012C2 5.55241 2.44772 6.00012 3 6.00012H21C21.5523 6.00012 22 5.55241 22 5.00012Z" fill="#141B34"/>
<path fill-rule="evenodd" clip-rule="evenodd" d="M22 20.0001C22 19.4478 21.5523 19.0001 21 19.0001H3C2.44772 19.0001 2 19.4478 2 20.0001C2 20.5524 2.44772 21.0001 3 21.0001H21C21.5523 21.0001 22 20.5524 22 20.0001Z" fill="#141B34"/>
<path d="M22 11.0001C22 9.89555 21.1046 9.00012 20 9.00012H16C14.8954 9.00012 14 9.89555 14 11.0001V14.0001C14 15.1047 14.8954 16.0001 16 16.0001H20C21.1046 16.0001 22 15.1047 22 14.0001V11.0001Z" fill="#141B34"/>
</svg>
