<svg width="24" height="24" viewBox="0 0 24 24" fill="none" xmlns="http://www.w3.org/2000/svg">
<path fill-rule="evenodd" clip-rule="evenodd" d="M8 4.5C8 3.94772 8.44772 3.5 9 3.5H19C19.5523 3.5 20 3.94772 20 4.5C20 5.05228 19.5523 5.5 19 5.5H9C8.44772 5.5 8 5.05228 8 4.5Z" fill="#141B34"/>
<path fill-rule="evenodd" clip-rule="evenodd" d="M8 9.5C8 8.94772 8.44772 8.5 9 8.5H14C14.5523 8.5 15 8.94772 15 9.5C15 10.0523 14.5523 10.5 14 10.5H9C8.44772 10.5 8 10.0523 8 9.5Z" fill="#141B34"/>
<path fill-rule="evenodd" clip-rule="evenodd" d="M8 14.5C8 13.9477 8.44772 13.5 9 13.5H19C19.5523 13.5 20 13.9477 20 14.5C20 15.0523 19.5523 15.5 19 15.5H9C8.44772 15.5 8 15.0523 8 14.5Z" fill="#141B34"/>
<path fill-rule="evenodd" clip-rule="evenodd" d="M8 19.5C8 18.9477 8.44772 18.5 9 18.5H14C14.5523 18.5 15 18.9477 15 19.5C15 20.0523 14.5523 20.5 14 20.5H9C8.44772 20.5 8 20.0523 8 19.5Z" fill="#141B34"/>
<path fill-rule="evenodd" clip-rule="evenodd" d="M5 2C5.55228 2 6 2.44772 6 3V21C6 21.5523 5.55228 22 5 22C4.44772 22 4 21.5523 4 21V3C4 2.44772 4.44772 2 5 2Z" fill="#141B34"/>
</svg>
