<svg width="24" height="24" viewBox="0 0 24 24" fill="none" xmlns="http://www.w3.org/2000/svg">
<path fill-rule="evenodd" clip-rule="evenodd" d="M13 2C13 1.44772 12.5523 1 12 1C11.4477 1 11 1.44772 11 2L11 11L2 11C1.44772 11 1 11.4477 1 12C1 12.5523 1.44772 13 2 13L11 13L11 22C11 22.5523 11.4477 23 12 23C12.5523 23 13 22.5523 13 22L13 13L22 13C22.5523 13 23 12.5523 23 12C23 11.4477 22.5523 11 22 11L13 11L13 2ZM5.5 17C4.67157 17 4 17.6716 4 18.5C4 19.3284 4.67157 20 5.5 20C6.32843 20 7 19.3284 7 18.5C7 17.6716 6.32843 17 5.5 17ZM2 18.5C2 16.567 3.567 15 5.5 15C7.433 15 9 16.567 9 18.5C9 20.433 7.433 22 5.5 22C3.567 22 2 20.433 2 18.5ZM16.7071 2.29289C16.3166 1.90237 15.6834 1.90237 15.2929 2.29289C14.9024 2.68342 14.9024 3.31658 15.2929 3.70711L17.0858 5.5L15.2929 7.29289C14.9024 7.68342 14.9024 8.31658 15.2929 8.70711C15.6834 9.09763 16.3166 9.09763 16.7071 8.70711L18.5 6.91421L20.2929 8.70711C20.6834 9.09763 21.3166 9.09763 21.7071 8.70711C22.0976 8.31658 22.0976 7.68342 21.7071 7.29289L19.9142 5.5L21.7071 3.70711C22.0976 3.31658 22.0976 2.68342 21.7071 2.29289C21.3166 1.90237 20.6834 1.90237 20.2929 2.29289L18.5 4.08579L16.7071 2.29289Z" fill="#141B34"/>
</svg>
