<svg width="24" height="24" viewBox="0 0 24 24" fill="none" xmlns="http://www.w3.org/2000/svg">
<path fill-rule="evenodd" clip-rule="evenodd" d="M16.3283 6.90669C16.0191 7.21582 15.5579 7.28025 15.1854 7.09997L13.0682 9.38003C12.6924 9.78474 12.0597 9.80818 11.655 9.43237C11.2503 9.05657 11.2268 8.42384 11.6026 8.01913L13.9072 5.53729C14.5557 4.83893 15.6544 4.81859 16.3283 5.49247C16.7188 5.883 16.7188 6.51616 16.3283 6.90669ZM6.54182 9.60022C5.69492 8.8743 4.41787 8.98146 3.70379 9.83836L2.46358 11.3266C1.77994 12.147 1.86139 13.3597 2.64858 14.0813L7.42418 18.4589C8.11031 19.0879 9.17009 19.0649 9.82826 18.4067C10.2188 18.0162 10.2188 17.383 9.82826 16.9925C9.49922 16.6634 8.99793 16.6116 8.61465 16.8371L4.00002 12.607L5.24023 11.1187L5.32516 11.1915C5.74449 11.5509 6.37579 11.5024 6.73521 11.0831C7.09463 10.6637 7.04607 10.0324 6.62675 9.67301L6.54182 9.60022ZM20.8853 5.90304C20.1839 5.20166 19.0404 5.22283 18.3654 5.94968L13.062 11.6611L10.8791 9.79004C10.1381 9.15486 9.02067 9.24863 8.39584 9.99841L7.15563 11.4867C6.55745 12.2045 6.62871 13.2656 7.3175 13.897L11.9086 18.1055C12.5992 18.7386 13.666 18.7154 14.3285 18.0529L22.4444 9.93702C23.1278 9.25361 23.1278 8.14557 22.4444 7.46215L20.8853 5.90304Z" fill="#141B34"/>
</svg>
