<svg width="24" height="24" viewBox="0 0 24 24" fill="none" xmlns="http://www.w3.org/2000/svg">
<path fill-rule="evenodd" clip-rule="evenodd" d="M16.8946 5.55302C17.1416 6.047 16.9414 6.64767 16.4474 6.89466C14.3508 7.94294 12.0649 10.2104 10.151 12.469C9.79394 12.8904 9.16293 12.9425 8.74158 12.5854C8.32023 12.2284 8.26811 11.5974 8.62516 11.176C10.5592 8.89366 13.0664 6.34907 15.5529 5.10581C16.0469 4.85882 16.6476 5.05904 16.8946 5.55302ZM1.13638 12.8297C1.41466 12.3526 2.02698 12.1915 2.50403 12.4698L2.50515 12.4704L2.50645 12.4712L2.5096 12.4731L2.51809 12.4781L2.5436 12.4935C2.56431 12.5061 2.59237 12.5235 2.62714 12.5457C2.69665 12.5901 2.79315 12.6538 2.91159 12.7371C3.14829 12.9037 3.4739 13.1497 3.84778 13.4782C4.3367 13.9079 4.91267 14.4827 5.4809 15.21C5.48796 15.1999 5.49506 15.1897 5.50221 15.1795C5.81888 14.727 6.4424 14.6169 6.89488 14.9336C7.34736 15.2503 7.45745 15.8738 7.14078 16.3263C6.88113 16.6973 6.68344 16.9976 6.55189 17.2031C6.48613 17.3059 6.43694 17.3848 6.40486 17.437C6.38882 17.4631 6.37706 17.4824 6.36965 17.4947L6.3618 17.5078L6.36052 17.5099C6.18096 17.8129 5.85517 17.9992 5.50295 18.0002C5.1507 18.0012 4.82391 17.8168 4.64267 17.5147C3.95742 16.3726 3.15635 15.5332 2.52755 14.9806C2.21393 14.705 1.94579 14.503 1.76061 14.3727C1.66812 14.3076 1.59664 14.2606 1.55092 14.2315C1.52807 14.2169 1.5117 14.2068 1.50238 14.2011L1.49461 14.1964L1.4958 14.1971C1.01913 13.9186 0.858199 13.3066 1.13638 12.8297Z" fill="#141B34"/>
<path fill-rule="evenodd" clip-rule="evenodd" d="M21.9005 5.56515C22.1408 6.06242 21.9325 6.66033 21.4352 6.90062C19.198 7.98168 16.7764 10.4612 14.8126 12.8504C13.2237 14.7833 12.0473 16.5093 11.5425 17.2499C11.4267 17.4199 11.3462 17.5379 11.3043 17.5947C11.1056 17.8634 10.7858 18.0151 10.4521 17.9991C10.1183 17.983 9.81459 17.8013 9.64266 17.5147C8.39169 15.4298 7.07006 14.572 6.56167 14.242C6.51036 14.2087 6.46733 14.1808 6.4335 14.1575C5.97844 13.8446 5.86324 13.222 6.1762 12.7669C6.48915 12.3118 7.11175 12.1967 7.56681 12.5096C7.59777 12.5309 7.63887 12.5576 7.68913 12.5903C8.133 12.8788 9.29204 13.6321 10.507 15.2276C10.5926 15.1056 10.6839 14.9762 10.7806 14.8402C11.4071 13.9597 12.2638 12.8015 13.2675 11.5804C15.2431 9.17696 17.901 6.38715 20.5651 5.09984C21.0623 4.85955 21.6603 5.06788 21.9005 5.56515Z" fill="#141B34"/>
</svg>
