<svg width="24" height="24" viewBox="0 0 24 24" fill="none" xmlns="http://www.w3.org/2000/svg">
<path fill-rule="evenodd" clip-rule="evenodd" d="M6.82473 5.15741C6.35171 5.58074 6.11197 5.98349 6.04315 6.34533C5.93728 6.90204 6.03694 7.28095 6.21903 7.56562C6.4153 7.87245 6.77189 8.16798 7.33465 8.4148C8.47904 8.9167 10.1978 9.09366 12.0181 8.9539C13.8268 8.81503 15.5777 8.37569 16.7492 7.7829C17.3416 7.48316 17.7026 7.18577 17.8779 6.94403C18.0223 6.74501 18.0167 6.63377 17.9713 6.51436C17.8861 6.29028 17.6292 6.02051 16.9512 5.82997C16.2862 5.64312 15.3942 5.59018 14.4041 5.66163C13.4251 5.73227 12.411 5.91998 11.5306 6.17033C10.6301 6.42643 9.95076 6.72518 9.59045 6.9777C9.13818 7.29467 8.51459 7.18498 8.19762 6.73271C7.88065 6.28044 7.99034 5.65684 8.44261 5.33988C9.07125 4.89931 9.99898 4.5266 10.9836 4.2466C11.9884 3.96085 13.1376 3.74782 14.2602 3.66681C15.3716 3.58661 16.5192 3.63112 17.4922 3.90455C18.4521 4.17429 19.4314 4.72762 19.8406 5.80322C20.1652 6.65653 19.9676 7.46926 19.497 8.11815C19.0575 8.72431 18.3809 9.19874 17.6522 9.56746C16.1816 10.3116 14.1568 10.7956 12.1712 10.948C10.1973 11.0996 8.10329 10.9358 6.53136 10.2464C5.73597 9.89754 5.00851 9.38477 4.53424 8.64334C4.0458 7.87975 3.88842 6.97044 4.07837 5.97166C4.25671 5.03396 4.82047 4.26714 5.49095 3.66709C6.16414 3.06462 7.00445 2.57517 7.86852 2.19089C9.58418 1.42787 11.5766 1 12.9725 1C13.5248 1 13.9725 1.44772 13.9725 2C13.9725 2.55228 13.5248 3 12.9725 3C11.8961 3 10.1798 3.35185 8.68124 4.01831C7.9382 4.34877 7.29503 4.7365 6.82473 5.15741Z" fill="#141B34"/>
<path fill-rule="evenodd" clip-rule="evenodd" d="M18.7784 10.3722C19.1251 10.8021 19.0577 11.4316 18.6278 11.7784C17.1166 12.9973 14.5301 13.757 12.0786 13.9503C10.8306 14.0487 9.55823 14.006 8.4051 13.777C7.26278 13.5502 6.1641 13.126 5.34036 12.4029C4.92528 12.0386 4.88413 11.4068 5.24845 10.9917C5.61276 10.5766 6.24459 10.5355 6.65967 10.8998C7.12447 11.3078 7.84793 11.6274 8.79455 11.8153C9.73037 12.0011 10.8138 12.0438 11.9214 11.9565C14.1814 11.7783 16.3064 11.0813 17.3722 10.2216C17.8021 9.87491 18.4316 9.94231 18.7784 10.3722Z" fill="#141B34"/>
<path fill-rule="evenodd" clip-rule="evenodd" d="M14.9537 21.1994C15.1198 21.7261 14.8276 22.2878 14.3009 22.4539C13.2441 22.7873 12.1202 22.9807 11.0172 22.9998C10.465 23.0093 10.0097 22.5694 10.0002 22.0172C9.99063 21.465 10.4306 21.0096 10.9828 21.0001C11.8806 20.9846 12.8136 20.826 13.6992 20.5466C14.2259 20.3804 14.7875 20.6727 14.9537 21.1994Z" fill="#141B34"/>
<path fill-rule="evenodd" clip-rule="evenodd" d="M6.1654 14.4491C6.46964 13.9882 7.08993 13.8612 7.55086 14.1654C8.37936 14.7123 9.51644 14.9949 10.8017 14.9999C12.0794 15.0049 13.432 14.734 14.6258 14.2524C15.138 14.0457 15.7207 14.2934 15.9274 14.8056C16.134 15.3177 15.8863 15.9004 15.3742 16.1071C13.9515 16.6811 12.3427 17.0059 10.7939 16.9999C9.2526 16.9939 7.69792 16.6589 6.44911 15.8346C5.98818 15.5303 5.86116 14.91 6.1654 14.4491Z" fill="#141B34"/>
<path fill-rule="evenodd" clip-rule="evenodd" d="M7.07238 18.1313C7.27831 17.6188 7.86068 17.3704 8.37313 17.5763C9.60487 18.0713 11.2005 18.129 12.7921 17.7902C13.3322 17.6752 13.8634 18.0199 13.9784 18.5601C14.0933 19.1002 13.7487 19.6314 13.2085 19.7464C11.348 20.1424 9.32723 20.1151 7.6274 19.4321C7.11494 19.2261 6.86645 18.6438 7.07238 18.1313Z" fill="#141B34"/>
</svg>
