<svg width="24" height="24" viewBox="0 0 24 24" fill="none" xmlns="http://www.w3.org/2000/svg">
<path d="M8.49609 13.4999L8.49588 3.49988C8.49588 2.67145 9.16746 1.99988 9.99588 1.99988C10.8134 1.99988 11.4782 2.65391 11.4955 3.46729C11.4946 3.47803 11.4941 3.4889 11.4941 3.49988V10.4999C11.4941 10.707 11.662 10.8749 11.8691 10.8749C12.0762 10.8749 12.2441 10.707 12.2441 10.4999V8.87488H12.8694C13.7668 8.87488 14.4944 9.60242 14.4944 10.4999V11.4999C14.4944 11.707 14.6622 11.8749 14.8694 11.8749C15.0765 11.8749 15.2444 11.707 15.2444 11.4999V10.4999C15.2444 10.2836 15.2154 10.074 15.1613 9.87488H15.8694C16.7668 9.87488 17.4944 10.6024 17.4944 11.4999V12.4999C17.4944 12.707 17.6622 12.8749 17.8694 12.8749C18.0765 12.8749 18.2444 12.707 18.2444 12.4999V11.4999C18.2444 11.1426 18.1655 10.8038 18.0242 10.4999H18.4957C19.6004 10.4999 20.4959 11.3955 20.4957 12.5003V16.5968C20.4957 17.505 20.1866 18.3863 19.6192 19.0955L18.4957 20.7596L18.4957 21.75C18.4957 22.3023 18.048 22.75 17.4957 22.75L9.49608 22.7499C8.9438 22.7498 8.49609 22.3021 8.49609 21.7499V20.7596L3.8851 13.836C3.36954 13.2008 3.3661 12.2918 3.87684 11.6527C4.49072 10.8846 5.61828 10.7785 6.36439 11.4187L8.49609 13.4999Z" fill="#141B34"/>
</svg>
