<svg width="24" height="24" viewBox="0 0 24 24" fill="none" xmlns="http://www.w3.org/2000/svg">
<path d="M8.75311 1.74414C7.98402 1.74414 7.38241 2.32928 7.38241 3.02523V13.8844C7.38241 14.1055 7.20317 14.2847 6.98208 14.2847C6.76099 14.2847 6.58175 14.1055 6.58175 13.8844V10.1383L5.53391 11.08C4.82023 11.8238 4.30403 12.3628 3.93961 12.8251C3.57783 13.2841 3.38977 13.6384 3.31119 14.0033C3.25841 14.2484 3.23967 14.4986 3.25537 14.7479C3.30421 15.5234 3.74191 16.2831 4.94853 17.9599L4.95734 17.9722L7.19737 21.3541C7.5678 21.9134 8.19395 22.2497 8.86479 22.2497H17.6083C19.3555 22.2497 20.75 20.9165 20.75 19.2977V12.0567C20.75 11.3492 20.1611 10.7757 19.4346 10.7757H18.0086V12.4298C18.0086 12.6509 17.8294 12.8301 17.6083 12.8301C17.3872 12.8301 17.2079 12.6509 17.2079 12.4298V10.9427C17.2079 10.7923 17.1815 10.6488 17.1332 10.5157C16.9524 10.0176 16.4647 9.66166 15.8926 9.66166H14.4665V11.6564C14.4665 11.8775 14.2873 12.0567 14.0662 12.0567C13.8451 12.0567 13.6659 11.8775 13.6659 11.6564V9.82876C13.6659 9.67833 13.6394 9.53476 13.5911 9.4017C13.4104 8.9036 12.9226 8.54767 12.3505 8.54767H10.9245V11.0994C10.9245 11.3205 10.7452 11.4997 10.5241 11.4997C10.303 11.4997 10.1238 11.3205 10.1238 11.0994V3.02523C10.1238 2.32928 9.52221 1.74414 8.75311 1.74414Z" fill="#141B34"/>
</svg>
