<svg width="24" height="24" viewBox="0 0 24 24" fill="none" xmlns="http://www.w3.org/2000/svg">
<path fill-rule="evenodd" clip-rule="evenodd" d="M11.25 18.5245V21.2501H10C9.58579 21.2501 9.25 21.5858 9.25 22.0001C9.25 22.4143 9.58579 22.7501 10 22.7501H14C14.4142 22.7501 14.75 22.4143 14.75 22.0001C14.75 21.5858 14.4142 21.2501 14 21.2501H12.75V18.5245C12.5037 18.5518 12.2535 18.5657 12 18.5657C11.7465 18.5657 11.4963 18.5518 11.25 18.5245Z" fill="#141B34"/>
<path fill-rule="evenodd" clip-rule="evenodd" d="M12 1.25C8.3645 1.25 5.40028 4.12409 5.25554 7.72407C5.25188 7.75409 5.25 7.78466 5.25 7.81567V11.8157V11.8184V12C5.25 12.031 5.25188 12.0616 5.25554 12.0916C5.39018 15.4405 7.96481 18.1613 11.25 18.5245V15.0002V13.3107L8.96967 11.0303C8.67678 10.7374 8.67678 10.2626 8.96967 9.96967C9.26256 9.67678 9.73744 9.67678 10.0303 9.96967L11.25 11.1893V9C11.25 8.58579 11.5858 8.25 12 8.25C12.4142 8.25 12.75 8.58579 12.75 9V12.9997V13.1893L13.9697 11.9697C14.2626 11.6768 14.7374 11.6768 15.0303 11.9697C15.3232 12.2626 15.3232 12.7374 15.0303 13.0303L12.75 15.3107V18.5245C16.0352 18.1613 18.6098 15.4406 18.7445 12.0916C18.7481 12.0616 18.75 12.031 18.75 12V8L18.75 7.99637V7.81567C18.75 7.78467 18.7481 7.75411 18.7445 7.72409C18.5997 4.1241 15.6355 1.25 12 1.25Z" fill="#141B34"/>
</svg>
