<svg width="24" height="24" viewBox="0 0 24 24" fill="none" xmlns="http://www.w3.org/2000/svg">
<path fill-rule="evenodd" clip-rule="evenodd" d="M11.25 18.752V21.2499H10C9.58579 21.2499 9.25 21.5857 9.25 21.9999C9.25 22.4141 9.58579 22.7499 10 22.7499H14C14.4142 22.7499 14.75 22.4141 14.75 21.9999C14.75 21.5857 14.4142 21.2499 14 21.2499H12.75V18.752H11.25Z" fill="#141B34"/>
<path fill-rule="evenodd" clip-rule="evenodd" d="M15.998 3.25205C15.7771 3.25205 15.566 3.27125 15.3622 3.30755C14.7232 2.07971 13.3982 1.2412 11.9945 1.25206C10.5343 1.25415 9.27102 2.09033 8.65334 3.3089C8.44088 3.27152 8.22252 3.25205 8 3.25205C5.92893 3.25205 4.25 4.93099 4.25 7.00205C4.25 7.36783 4.37842 7.75961 4.48483 8.04033L4.50679 8.09744C3.19346 8.74725 2.25 9.87337 2.25 11.5021C2.25 13.5685 3.62865 15.3037 5.32253 15.6762C5.48363 16.4101 5.89175 17.0795 6.40546 17.5932C7.07349 18.2612 8.00575 18.7508 9 18.7521H11.25V13.3107L8.96967 11.0303C8.67678 10.7374 8.67678 10.2626 8.96967 9.96967C9.26256 9.67678 9.73744 9.67678 10.0303 9.96967L11.25 11.1893V9C11.25 8.58579 11.5858 8.25 12 8.25C12.4142 8.25 12.75 8.58579 12.75 9V12.9997V13.1893L13.9697 11.9697C14.2626 11.6768 14.7374 11.6768 15.0303 11.9697C15.3232 12.2626 15.3232 12.7374 15.0303 13.0303L12.75 15.3107V18.7521H14.999C15.9933 18.7508 16.9246 18.2612 17.5926 17.5932C18.1063 17.0795 18.5144 16.4101 18.6755 15.6762C20.3694 15.3037 21.748 13.5685 21.748 11.5021C21.748 9.87337 20.8046 8.74725 19.4913 8.09744L19.5132 8.04033C19.6196 7.75961 19.748 7.36783 19.748 7.00205C19.748 4.93099 18.0691 3.25205 15.998 3.25205Z" fill="#141B34"/>
</svg>
