<svg width="24" height="24" viewBox="0 0 24 24" fill="none" xmlns="http://www.w3.org/2000/svg">
<path fill-rule="evenodd" clip-rule="evenodd" d="M1.25 9.125C1.25 7.05393 2.92893 5.375 5 5.375H19C21.0711 5.375 22.75 7.05393 22.75 9.125V19.125C22.75 21.1961 21.0711 22.875 19 22.875H5C2.92893 22.875 1.25 21.1961 1.25 19.125V9.125Z" fill="#141B34"/>
<path fill-rule="evenodd" clip-rule="evenodd" d="M15.2929 1.41789C15.6834 1.02737 16.3166 1.02737 16.7071 1.41789C17.0976 1.80842 17.0976 2.44158 16.7071 2.83211L12.7071 6.83211C12.3166 7.22263 11.6834 7.22263 11.2929 6.83211L8.29289 3.83211C7.90237 3.44158 7.90237 2.80842 8.29289 2.41789C8.68342 2.02737 9.31658 2.02737 9.70711 2.41789L12 4.71079L15.2929 1.41789Z" fill="#141B34"/>
</svg>
