<svg width="24" height="24" viewBox="0 0 24 24" fill="none" xmlns="http://www.w3.org/2000/svg">
<path fill-rule="evenodd" clip-rule="evenodd" d="M4 2.25C3.58579 2.25 3.25 2.58579 3.25 3V16.5C3.25 16.912 3.58235 17.2469 3.99434 17.25L6.25 17.267V21C6.25 21.3104 6.44126 21.5888 6.73105 21.7001C7.02084 21.8114 7.34927 21.7327 7.55711 21.5021L11.3692 17.2726H17.0094C17.2097 17.2726 17.4017 17.1925 17.5425 17.0501L20.5331 14.0275C20.6721 13.8871 20.75 13.6975 20.75 13.5V3C20.75 2.58579 20.4142 2.25 20 2.25H4ZM13.001 7.00024C13.0011 6.44796 12.5535 6.00013 12.0012 6C11.4489 5.99987 11.0011 6.44747 11.001 6.99976L11 10.9998C10.9999 11.552 11.4475 11.9999 11.9998 12C12.552 12.0001 12.9999 11.5525 13 11.0002L13.001 7.00024ZM17.001 7.00024C17.0011 6.44796 16.5535 6.00013 16.0012 6C15.4489 5.99987 15.0011 6.44747 15.001 6.99976L15 10.9998C14.9999 11.552 15.4475 11.9999 15.9998 12C16.552 12.0001 16.9999 11.5525 17 11.0002L17.001 7.00024Z" fill="#141B34"/>
</svg>
