<svg width="24" height="24" viewBox="0 0 24 24" fill="none" xmlns="http://www.w3.org/2000/svg">
<path fill-rule="evenodd" clip-rule="evenodd" d="M5.375 3.12518C5.375 2.02061 6.27043 1.12518 7.375 1.12518H12.375C13.4796 1.12518 14.375 2.02061 14.375 3.12518V7.62518C14.375 8.17747 13.9273 8.62518 13.375 8.62518C12.8227 8.62518 12.375 8.17747 12.375 7.62518V3.12518H7.375V7.62518C7.375 8.17747 6.92728 8.62518 6.375 8.62518C5.82272 8.62518 5.375 8.17747 5.375 7.62518V3.12518Z" fill="#141B34"/>
<path fill-rule="evenodd" clip-rule="evenodd" d="M8.625 4.87518C8.625 4.46097 8.96079 4.12518 9.375 4.12518H10.375C10.7892 4.12518 11.125 4.46097 11.125 4.87518C11.125 5.2894 10.7892 5.62518 10.375 5.62518H9.375C8.96079 5.62518 8.625 5.2894 8.625 4.87518Z" fill="#141B34"/>
<path d="M5.875 6.87811C4.9085 6.87811 4.125 7.66161 4.125 8.62811V17.1281C4.125 20.2367 6.59179 22.7691 9.67466 22.8747C9.78505 22.8785 9.875 22.7886 9.875 22.6781V22.3781C9.875 22.2677 9.78515 22.179 9.6751 22.1695C8.49845 22.0682 7.575 21.081 7.575 19.8781C7.575 19.3669 7.74181 18.8946 8.02398 18.5127C8.08281 18.4331 8.08281 18.3232 8.02398 18.2435C7.74181 17.8617 7.575 17.3894 7.575 16.8781C7.575 16.3669 7.74181 15.8946 8.02398 15.5127C8.08281 15.4331 8.08281 15.3232 8.02398 15.2435C7.74181 14.8617 7.575 14.3894 7.575 13.8781C7.575 12.6079 8.60474 11.5781 9.875 11.5781C10.2606 11.5781 10.6137 11.6357 10.9324 11.7295C10.9975 11.7487 11.0681 11.7357 11.1216 11.694C12.0191 10.9955 13.1486 10.5781 14.375 10.5781C14.7174 10.5781 15.0523 10.6107 15.3766 10.6728C15.5038 10.6971 15.625 10.6019 15.625 10.4724V8.62811C15.625 7.66161 14.8415 6.87811 13.875 6.87811H5.875Z" fill="#141B34"/>
<path fill-rule="evenodd" clip-rule="evenodd" d="M11.2942 13.5738C12.0279 12.6888 13.1356 12.1252 14.375 12.1252C15.6144 12.1252 16.7221 12.6888 17.4558 13.5738C17.8114 13.3295 18.2856 13.1252 18.875 13.1252C19.4273 13.1252 19.875 13.5729 19.875 14.1252C19.875 14.6775 19.4273 15.1252 18.875 15.1252C18.7338 15.1252 18.5981 15.1913 18.4571 15.3323C18.4032 15.3862 18.3585 15.4419 18.3247 15.4891C18.3578 15.6962 18.375 15.9087 18.375 16.1252H18.875C19.4273 16.1252 19.875 16.5729 19.875 17.1252C19.875 17.6775 19.4273 18.1252 18.875 18.1252H18.375C18.375 18.3417 18.3578 18.5541 18.3247 18.7613C18.3585 18.8085 18.4032 18.8641 18.4571 18.9181C18.5981 19.0591 18.7338 19.1252 18.875 19.1252C19.4273 19.1252 19.875 19.5729 19.875 20.1252C19.875 20.6775 19.4273 21.1252 18.875 21.1252C18.2856 21.1252 17.8114 20.9208 17.4558 20.6766C16.7221 21.5615 15.6144 22.1252 14.375 22.1252C13.1356 22.1252 12.0279 21.5615 11.2942 20.6766C10.9386 20.9208 10.4644 21.1252 9.875 21.1252C9.32272 21.1252 8.875 20.6775 8.875 20.1252C8.875 19.5729 9.32272 19.1252 9.875 19.1252C10.0162 19.1252 10.1519 19.0591 10.2929 18.9181C10.3468 18.8641 10.3915 18.8085 10.4253 18.7613C10.3922 18.5541 10.375 18.3417 10.375 18.1252H9.875C9.32272 18.1252 8.875 17.6775 8.875 17.1252C8.875 16.5729 9.32272 16.1252 9.875 16.1252H10.375C10.375 15.9087 10.3922 15.6962 10.4253 15.4891C10.3915 15.4418 10.3468 15.3862 10.2929 15.3323C10.1519 15.1913 10.0162 15.1252 9.875 15.1252C9.32272 15.1252 8.875 14.6775 8.875 14.1252C8.875 13.5729 9.32272 13.1252 9.875 13.1252C10.4644 13.1252 10.9386 13.3295 11.2942 13.5738ZM12.375 16.1252C12.375 15.0206 13.2704 14.1252 14.375 14.1252C15.4796 14.1252 16.375 15.0206 16.375 16.1252V18.1252C16.375 19.2298 15.4796 20.1252 14.375 20.1252C13.2704 20.1252 12.375 19.2298 12.375 18.1252V16.1252Z" fill="#141B34"/>
</svg>
