<svg width="24" height="24" viewBox="0 0 24 24" fill="none" xmlns="http://www.w3.org/2000/svg">
<path d="M5.875 6.875C4.9085 6.875 4.125 7.6585 4.125 8.625V17.125C4.125 20.3006 6.69936 22.875 9.875 22.875C11.2018 22.875 12.4236 22.4256 13.3965 21.6708C13.5339 21.5642 13.5406 21.3621 13.4176 21.2391L13.1441 20.9656C13.0827 20.9043 12.9979 20.8735 12.9112 20.8747C12.2594 20.8841 11.6046 20.6401 11.1072 20.1428C10.1309 19.1665 10.1309 17.5835 11.1072 16.6072L12.198 15.5164C12.2761 15.4383 12.2761 15.3117 12.198 15.2336L11.1072 14.1428C10.1309 13.1665 10.1309 11.5835 11.1072 10.6072C12.0835 9.63092 13.6665 9.63092 14.6428 10.6072L15.2836 11.248C15.4096 11.374 15.625 11.2848 15.625 11.1066V8.625C15.625 7.6585 14.8415 6.875 13.875 6.875H5.875Z" fill="#141B34"/>
<path fill-rule="evenodd" clip-rule="evenodd" d="M12.1679 11.9179C12.5584 11.5274 13.1916 11.5274 13.5821 11.9179L15.875 14.2108L18.1679 11.9179C18.5584 11.5274 19.1916 11.5274 19.5821 11.9179C19.9726 12.3084 19.9726 12.9416 19.5821 13.3321L17.2892 15.625L19.5821 17.9179C19.9726 18.3084 19.9726 18.9416 19.5821 19.3321C19.1916 19.7226 18.5584 19.7226 18.1679 19.3321L15.875 17.0392L13.5821 19.3321C13.1916 19.7226 12.5584 19.7226 12.1679 19.3321C11.7774 18.9416 11.7774 18.3084 12.1679 17.9179L14.4608 15.625L12.1679 13.3321C11.7774 12.9416 11.7774 12.3084 12.1679 11.9179Z" fill="#141B34"/>
<path fill-rule="evenodd" clip-rule="evenodd" d="M5.375 3.125C5.375 2.02043 6.27043 1.125 7.375 1.125H12.375C13.4796 1.125 14.375 2.02043 14.375 3.125V7.625C14.375 8.17728 13.9273 8.625 13.375 8.625C12.8227 8.625 12.375 8.17728 12.375 7.625V3.125H7.375V7.625C7.375 8.17728 6.92728 8.625 6.375 8.625C5.82272 8.625 5.375 8.17728 5.375 7.625V3.125Z" fill="#141B34"/>
<path fill-rule="evenodd" clip-rule="evenodd" d="M8.625 4.875C8.625 4.46079 8.96079 4.125 9.375 4.125H10.375C10.7892 4.125 11.125 4.46079 11.125 4.875C11.125 5.28921 10.7892 5.625 10.375 5.625H9.375C8.96079 5.625 8.625 5.28921 8.625 4.875Z" fill="#141B34"/>
</svg>
