<svg width="24" height="24" viewBox="0 0 24 24" fill="none" xmlns="http://www.w3.org/2000/svg">
<path fill-rule="evenodd" clip-rule="evenodd" d="M4.25 7C4.25 4.37665 6.37665 2.25 9 2.25C11.6234 2.25 13.75 4.37665 13.75 7C13.75 9.62335 11.6234 11.75 9 11.75C6.37665 11.75 4.25 9.62335 4.25 7Z" fill="#141B34"/>
<path fill-rule="evenodd" clip-rule="evenodd" d="M1.25 19C1.25 15.8244 3.82436 13.25 7 13.25H11C14.1756 13.25 16.75 15.8244 16.75 19V21C16.75 21.4142 16.4142 21.75 16 21.75H2C1.58579 21.75 1.25 21.4142 1.25 21V19Z" fill="#141B34"/>
<path d="M13.375 11.4644C13.8822 11.6492 14.4299 11.75 15.001 11.75C17.6244 11.75 19.751 9.62335 19.751 7C19.751 4.37665 17.6244 2.25 15.001 2.25C14.4299 2.25 13.8822 2.35081 13.375 2.5356C14.5327 3.67 15.251 5.25111 15.251 7C15.251 8.74889 14.5327 10.33 13.375 11.4644Z" fill="#141B34"/>
<path d="M18.1196 21.75H21.9976C22.4118 21.75 22.7476 21.4142 22.7476 21V19C22.7476 15.8244 20.1732 13.25 16.9976 13.25H15.4141C17.1371 14.5754 18.2476 16.658 18.2476 19V21C18.2476 21.263 18.2025 21.5154 18.1196 21.75Z" fill="#141B34"/>
</svg>
