<svg width="24" height="24" viewBox="0 0 24 24" fill="none" xmlns="http://www.w3.org/2000/svg">
<path fill-rule="evenodd" clip-rule="evenodd" d="M5 16.8477C5 16.2954 5.44772 15.8477 6 15.8477H6.5C7.05228 15.8477 7.5 16.2954 7.5 16.8477C7.5 17.3999 7.05228 17.8477 6.5 17.8477H6C5.44772 17.8477 5 17.3999 5 16.8477Z" fill="#141B34"/>
<path fill-rule="evenodd" clip-rule="evenodd" d="M12 20C12.5523 20 13 20.4477 13 21V22C13 22.5523 12.5523 23 12 23C11.4477 23 11 22.5523 11 22V21C11 20.4477 11.4477 20 12 20Z" fill="#141B34"/>
<path fill-rule="evenodd" clip-rule="evenodd" d="M16.5 16.8477C16.5 16.2954 16.9477 15.8477 17.5 15.8477H18C18.5523 15.8477 19 16.2954 19 16.8477C19 17.3999 18.5523 17.8477 18 17.8477H17.5C16.9477 17.8477 16.5 17.3999 16.5 16.8477Z" fill="#141B34"/>
<path fill-rule="evenodd" clip-rule="evenodd" d="M6.5 12C6.5 8.96243 8.96243 6.5 12 6.5C15.0376 6.5 17.5 8.96243 17.5 12V13.5C17.5 13.7761 17.2761 14 17 14H15.372L13.9789 18.6437C13.9155 18.8552 13.7208 19 13.5 19H10.5C10.2792 19 10.0845 18.8552 10.0211 18.6437L8.62798 14H7C6.72386 14 6.5 13.7761 6.5 13.5V12Z" fill="#141B34"/>
<path fill-rule="evenodd" clip-rule="evenodd" d="M9 4.5C9 2.84315 10.3431 1.5 12 1.5C13.6569 1.5 15 2.84315 15 4.5C15 6.15685 13.6569 7.5 12 7.5C10.3431 7.5 9 6.15685 9 4.5Z" fill="#141B34"/>
</svg>
