<svg width="24" height="24" viewBox="0 0 24 24" fill="none" xmlns="http://www.w3.org/2000/svg">
<path fill-rule="evenodd" clip-rule="evenodd" d="M22.6402 6.2318C23.0645 6.58537 23.1218 7.21593 22.7682 7.64021L17.7682 13.6402C17.5884 13.856 17.326 13.9863 17.0453 13.999C16.7646 14.0117 16.4916 13.9058 16.2929 13.7071L14.2929 11.7071C13.9024 11.3166 13.9024 10.6834 14.2929 10.2929C14.6834 9.90239 15.3166 9.90239 15.7071 10.2929L16.9328 11.5186L21.2318 6.35984C21.5853 5.93556 22.2159 5.87824 22.6402 6.2318Z" fill="#141B34"/>
<path fill-rule="evenodd" clip-rule="evenodd" d="M5.25 7C5.25 4.37665 7.37665 2.25 10 2.25C12.6234 2.25 14.75 4.37665 14.75 7C14.75 9.62335 12.6234 11.75 10 11.75C7.37665 11.75 5.25 9.62335 5.25 7Z" fill="#141B34"/>
<path fill-rule="evenodd" clip-rule="evenodd" d="M1.25 21C1.25 16.7198 4.71979 13.25 9 13.25H11C15.2802 13.25 18.75 16.7198 18.75 21C18.75 21.4142 18.4142 21.75 18 21.75H2C1.58579 21.75 1.25 21.4142 1.25 21Z" fill="#141B34"/>
</svg>
