<svg width="24" height="24" viewBox="0 0 24 24" fill="none" xmlns="http://www.w3.org/2000/svg">
<path fill-rule="evenodd" clip-rule="evenodd" d="M5.25 6.5C5.25 3.87665 7.37665 1.75 10 1.75C12.6234 1.75 14.75 3.87665 14.75 6.5C14.75 9.12335 12.6234 11.25 10 11.25C7.37665 11.25 5.25 9.12335 5.25 6.5Z" fill="#141B34"/>
<path fill-rule="evenodd" clip-rule="evenodd" d="M18.5 13.25C17.8096 13.25 17.25 13.8096 17.25 14.5V15.25H19.75V14.5C19.75 13.8096 19.1904 13.25 18.5 13.25ZM21.25 15.25V14.5C21.25 12.9812 20.0188 11.75 18.5 11.75C16.9812 11.75 15.75 12.9812 15.75 14.5V15.25H15C14.5858 15.25 14.25 15.5858 14.25 16V21.5C14.25 21.9142 14.5858 22.25 15 22.25H22C22.4142 22.25 22.75 21.9142 22.75 21.5V16C22.75 15.5858 22.4142 15.25 22 15.25H21.25Z" fill="#141B34"/>
<path d="M14.3644 13.5164C14.3375 13.6298 14.3152 13.745 14.2976 13.8618C13.3989 14.1568 12.75 15.0026 12.75 16V21.25H2C1.58579 21.25 1.25 20.9142 1.25 20.5C1.25 16.2198 4.71979 12.75 9 12.75H11C12.2056 12.75 13.3468 13.0253 14.3644 13.5164Z" fill="#141B34"/>
</svg>
