<svg width="24" height="24" viewBox="0 0 24 24" fill="none" xmlns="http://www.w3.org/2000/svg">
<path fill-rule="evenodd" clip-rule="evenodd" d="M5.25 7C5.25 4.37665 7.37665 2.25 10 2.25C12.6234 2.25 14.75 4.37665 14.75 7C14.75 9.62335 12.6234 11.75 10 11.75C7.37665 11.75 5.25 9.62335 5.25 7Z" fill="#141B34"/>
<path fill-rule="evenodd" clip-rule="evenodd" d="M1.25 21C1.25 16.7198 4.71979 13.25 9 13.25H11C15.2802 13.25 18.75 16.7198 18.75 21C18.75 21.4142 18.4142 21.75 18 21.75H2C1.58579 21.75 1.25 21.4142 1.25 21Z" fill="#141B34"/>
<path fill-rule="evenodd" clip-rule="evenodd" d="M19 6C19.5523 6 20 6.44772 20 7V9H22C22.5523 9 23 9.44772 23 10C23 10.5523 22.5523 11 22 11H20V13C20 13.5523 19.5523 14 19 14C18.4477 14 18 13.5523 18 13V11L16 11C15.4477 11 15 10.5523 15 10C15 9.44771 15.4477 9 16 9L18 9V7C18 6.44772 18.4477 6 19 6Z" fill="#141B34"/>
</svg>
