<svg width="24" height="24" viewBox="0 0 24 24" fill="none" xmlns="http://www.w3.org/2000/svg">
<path fill-rule="evenodd" clip-rule="evenodd" d="M3.25 4C3.25 2.48122 4.48121 1.25 6 1.25C7.51878 1.25 8.75 2.48122 8.75 4C8.75 5.51878 7.51878 6.75 6 6.75C4.48121 6.75 3.25 5.51878 3.25 4ZM1.25 12C1.25 9.37664 3.37664 7.25 6 7.25C8.62336 7.25 10.75 9.37664 10.75 12C10.75 12.4142 10.4142 12.75 10 12.75H2C1.58579 12.75 1.25 12.4142 1.25 12Z" fill="#141B34"/>
<path fill-rule="evenodd" clip-rule="evenodd" d="M15.25 14C15.25 12.4812 16.4812 11.25 18 11.25C19.5188 11.25 20.75 12.4812 20.75 14C20.75 15.5188 19.5188 16.75 18 16.75C16.4812 16.75 15.25 15.5188 15.25 14ZM13.25 22C13.25 19.3766 15.3766 17.25 18 17.25C20.6234 17.25 22.75 19.3766 22.75 22C22.75 22.4142 22.4142 22.75 22 22.75H14C13.5858 22.75 13.25 22.4142 13.25 22Z" fill="#141B34"/>
<path fill-rule="evenodd" clip-rule="evenodd" d="M4 14C4.55228 14 5 14.4477 5 15C5 16.793 5.93978 18.364 7.35649 19.2468L9.39646 17.7027C9.6991 17.4736 10.1054 17.4356 10.4452 17.6046C10.7851 17.7736 11 18.1204 11 18.5V21C11 21.5523 10.5523 22 10 22C8.93674 22 7.92645 21.7629 7.02151 21.3375C4.64521 20.2205 3 17.8049 3 15C3 14.4477 3.44772 14 4 14Z" fill="#141B34"/>
<path fill-rule="evenodd" clip-rule="evenodd" d="M13.2929 2.29289C13.4804 2.10536 13.7348 2 14 2C15.0454 2 16.0397 2.22918 16.933 2.64129C19.3338 3.74885 21 6.17726 21 9C21 9.55229 20.5523 10 20 10C19.4477 10 19 9.55229 19 9C19 7.19541 18.0479 5.61556 16.6159 4.73608L14.613 6.29008C14.3114 6.52407 13.9029 6.56597 13.5601 6.39806C13.2173 6.23014 13 5.88172 13 5.5V3C13 2.73478 13.1054 2.48043 13.2929 2.29289Z" fill="#141B34"/>
</svg>
