<svg width="24" height="24" viewBox="0 0 24 24" fill="none" xmlns="http://www.w3.org/2000/svg">
<path fill-rule="evenodd" clip-rule="evenodd" d="M5.25 7C5.25 4.37665 7.37665 2.25 10 2.25C12.6234 2.25 14.75 4.37665 14.75 7C14.75 9.62335 12.6234 11.75 10 11.75C7.37665 11.75 5.25 9.62335 5.25 7Z" fill="#141B34"/>
<path fill-rule="evenodd" clip-rule="evenodd" d="M1.25 21C1.25 16.7198 4.71979 13.25 9 13.25H11C15.2802 13.25 18.75 16.7198 18.75 21C18.75 21.4142 18.4142 21.75 18 21.75H2C1.58579 21.75 1.25 21.4142 1.25 21Z" fill="#141B34"/>
<path fill-rule="evenodd" clip-rule="evenodd" d="M15.25 10.7C15.25 8.79462 16.7946 7.25 18.7 7.25C20.6054 7.25 22.15 8.79462 22.15 10.7C22.15 11.3796 21.9535 12.0134 21.6142 12.5475L22.5321 13.4714C22.824 13.7652 22.8224 14.2401 22.5286 14.5321C22.2348 14.824 21.7599 14.8224 21.4679 14.5286L20.5548 13.6095C20.0192 13.9517 19.3827 14.15 18.7 14.15C16.7946 14.15 15.25 12.6054 15.25 10.7ZM18.7 8.75C17.623 8.75 16.75 9.62304 16.75 10.7C16.75 11.777 17.623 12.65 18.7 12.65C19.777 12.65 20.65 11.777 20.65 10.7C20.65 9.62304 19.777 8.75 18.7 8.75Z" fill="#141B34"/>
</svg>
