<svg width="24" height="24" viewBox="0 0 24 24" fill="none" xmlns="http://www.w3.org/2000/svg">
<circle cx="17" cy="16.75" r="2.5" fill="#141B34"/>
<circle cx="7" cy="16.75" r="2.5" fill="#141B34"/>
<path fill-rule="evenodd" clip-rule="evenodd" d="M2.00003 4.75C1.44774 4.74998 1.00002 5.19769 1 5.74997C0.999984 6.30226 1.44769 6.74998 1.99997 6.75L2.38182 6.75001L2.88238 7.75091C1.92725 9.68281 1 11.8288 1 15.75C1 16.1287 1.21393 16.4749 1.55263 16.6443L3.13021 17.4335C3.17765 17.4572 3.22565 17.4797 3.27416 17.5008C3.22552 17.2581 3.2 17.007 3.2 16.75C3.2 14.6513 4.90132 12.95 7 12.95C9.09868 12.95 10.8 14.6513 10.8 16.75C10.8 17.0962 10.7537 17.4316 10.6669 17.7504L13.3331 17.7504C13.2463 17.4316 13.2 17.0962 13.2 16.75C13.2 14.6513 14.9013 12.95 17 12.95C19.0987 12.95 20.8 14.6513 20.8 16.75C20.8 17.0962 20.7537 17.4316 20.667 17.7503L20.9997 17.7503C22.1044 17.7505 23 16.855 23 15.7503V12.8204C23 11.8173 22.4987 10.8806 21.6641 10.3242L19.6972 9.01295L17.4 5.95026C16.8334 5.19494 15.9443 4.75041 15.0001 4.75038L2.00003 4.75ZM17.9374 9.99995L15.8 7.15034C15.6112 6.89857 15.3148 6.75039 15.0001 6.75038L13.0833 6.75032L13.791 9.10914C13.9496 9.63787 14.4362 9.99995 14.9883 9.99995H17.9374Z" fill="#141B34"/>
</svg>
