<svg width="24" height="24" viewBox="0 0 24 24" fill="none" xmlns="http://www.w3.org/2000/svg">
<path fill-rule="evenodd" clip-rule="evenodd" d="M22.3815 12.1545L22.3754 12.1633C22.2302 12.372 21.8157 12.9676 21.5581 13.3017C21.0364 13.9783 20.2801 14.8824 19.3424 15.7891C17.4969 17.5738 14.814 19.5 11.75 19.5C8.68603 19.5 6.00305 17.5738 4.15756 15.7891C3.21994 14.8824 2.46362 13.9783 1.94192 13.3017C1.68461 12.968 1.27049 12.373 1.12481 12.1636L1.12477 12.1636L1.11818 12.1541C0.960607 11.9077 0.960607 11.5923 1.11818 11.3459L1.12475 11.3365C1.27037 11.1272 1.68457 10.532 1.94192 10.1983C2.46362 9.52169 3.21994 8.61758 4.15756 7.71086C6.00305 5.92619 8.68603 4 11.75 4C14.814 4 17.4969 5.92619 19.3424 7.71086C20.2801 8.61758 21.0364 9.52169 21.5581 10.1983C21.8155 10.5321 22.2298 11.1275 22.3754 11.3366L22.3818 11.3459C22.5394 11.5923 22.5391 11.9082 22.3815 12.1545ZM11.75 15.5C9.67893 15.5 8 13.8211 8 11.75C8 9.67893 9.67893 8 11.75 8C13.8211 8 15.5 9.67893 15.5 11.75C15.5 13.8211 13.8211 15.5 11.75 15.5Z" fill="#141B34"/>
</svg>
