<svg width="24" height="24" viewBox="0 0 24 24" fill="none" xmlns="http://www.w3.org/2000/svg">
<path fill-rule="evenodd" clip-rule="evenodd" d="M3.49998 3C3.77612 3 3.99998 3.22386 3.99998 3.5C3.99998 3.63557 3.94602 3.75854 3.85841 3.8486C3.85587 3.85113 3.85334 3.85368 3.85082 3.85624C3.76056 3.94514 3.63667 4 3.49998 4C3.22383 4 2.99998 3.77614 2.99998 3.5C2.99998 3.22386 3.22383 3 3.49998 3ZM4.47587 5.80236C4.17603 5.92961 3.84623 6 3.49998 6C2.11926 6 0.999975 4.88071 0.999975 3.5C0.999975 2.11929 2.11926 1 3.49998 1C4.88069 1 5.99997 2.11929 5.99997 3.5C5.99997 3.79781 5.9479 4.08345 5.85237 4.34832L7.41046 5.68955L10.3598 3.23178C10.7841 2.87821 11.4146 2.93554 11.7682 3.35982C12.1218 3.78409 12.0644 4.41466 11.6402 4.76822L8.96203 7L11.6402 9.23178C12.0644 9.58534 12.1218 10.2159 11.7682 10.6402C11.4146 11.0645 10.7841 11.1218 10.3598 10.7682L7.39654 8.29884L5.82948 9.59073C5.93956 9.87253 5.99997 10.1792 5.99997 10.5C5.99997 11.8807 4.88069 13 3.49998 13C2.11926 13 0.999975 11.8807 0.999975 10.5C0.999975 9.11929 2.11926 8 3.49998 8C3.82047 8 4.12688 8.06031 4.40847 8.17019L5.84796 6.98347L4.47587 5.80236ZM3.84197 10.1352C3.83742 10.1312 3.8329 10.1271 3.82841 10.123C3.74056 10.0464 3.62569 10 3.49998 10C3.22383 10 2.99998 10.2239 2.99998 10.5C2.99998 10.7761 3.22383 11 3.49998 11C3.77612 11 3.99998 10.7761 3.99998 10.5C3.99998 10.3561 3.93922 10.2265 3.84197 10.1352Z" fill="#141B34"/>
<path fill-rule="evenodd" clip-rule="evenodd" d="M20.1948 8.0193C20.1226 8.00493 20.0123 8.00009 19.4997 8.00009C18.9474 8.00009 18.4997 7.55237 18.4997 7.00009C18.4997 6.4478 18.9474 6.00009 19.4997 6.00009C19.528 6.00009 19.5559 6.00007 19.5836 6.00004C19.9643 5.99974 20.2921 5.99948 20.585 6.05773C21.7751 6.29445 22.7054 7.22474 22.9421 8.41482C23.0003 8.70767 23.0001 9.03551 22.9998 9.41621C22.9997 9.44389 22.9997 9.47185 22.9997 9.5001C22.9997 10.0524 22.552 10.5001 21.9997 10.5001C21.4474 10.5001 20.9997 10.0524 20.9997 9.5001C20.9997 8.9875 20.9949 8.87725 20.9805 8.805C20.9016 8.40831 20.5915 8.09821 20.1948 8.0193ZM12.9997 7.00004C12.9997 6.44775 13.4474 6.00004 13.9997 6.00004H15.9997C16.552 6.00004 16.9997 6.44775 16.9997 7.00004C16.9997 7.55232 16.552 8.00004 15.9997 8.00004H13.9997C13.4474 8.00004 12.9997 7.55232 12.9997 7.00004ZM8.00064 12.0001C8.55293 12.0002 9.00056 12.448 9.00046 13.0003L9.00009 15.0003C8.99999 15.5526 8.55219 16.0002 7.9999 16.0001C7.44762 16 6.99999 15.5522 7.00009 14.9999L7.00046 12.9999C7.00056 12.4476 7.44836 12 8.00064 12.0001ZM21.9997 12.0001C22.552 12.0001 22.9997 12.4478 22.9997 13.0001V15.0001C22.9997 15.5524 22.552 16.0001 21.9997 16.0001C21.4474 16.0001 20.9997 15.5524 20.9997 15.0001V13.0001C20.9997 12.4478 21.4474 12.0001 21.9997 12.0001ZM21.9997 17.5C22.552 17.5 22.9997 17.9478 22.9997 18.5C22.9997 18.5283 22.9997 18.5562 22.9998 18.5839C23.0001 18.9646 23.0003 19.2924 22.9421 19.5852C22.7054 20.7754 21.7749 21.7059 20.5847 21.9425C20.2919 22.0007 19.9641 22.0004 19.5835 22.0001C19.5559 22.0001 19.5279 22 19.4997 22C18.9474 22 18.4997 21.5523 18.4997 21C18.4997 20.4477 18.9475 20 19.4998 20C20.0122 20.0001 20.1225 19.9952 20.1947 19.9809C20.5915 19.902 20.9016 19.5919 20.9805 19.1951C20.9949 19.1229 20.9997 19.0126 20.9997 18.5C20.9997 17.9478 21.4474 17.5 21.9997 17.5ZM8.00009 17.5001C8.55237 17.5001 9.00009 17.9478 9.00009 18.5001C9.00009 19.0125 9.00492 19.1228 9.01926 19.195C9.09813 19.5918 9.40837 19.9021 9.80524 19.9809C9.87742 19.9952 9.98757 20.0001 10.4997 20C11.0519 20 11.4997 20.4477 11.4997 21C11.4997 21.5523 11.0521 22 10.4998 22C10.4716 22 10.4436 22.0001 10.416 22.0001C10.0356 22.0004 9.70812 22.0007 9.41555 21.9426C8.22494 21.706 7.2942 20.7754 7.05762 19.5848C6.99948 19.2922 6.99974 18.9645 7.00004 18.584C7.00006 18.5563 7.00009 18.5283 7.00009 18.5001C7.00009 17.9478 7.4478 17.5001 8.00009 17.5001ZM12.9997 21C12.9997 20.4478 13.4474 20 13.9997 20H15.9997C16.552 20 16.9997 20.4478 16.9997 21C16.9997 21.5523 16.552 22 15.9997 22H13.9997C13.4474 22 12.9997 21.5523 12.9997 21Z" fill="#141B34"/>
</svg>
