<svg width="24" height="24" viewBox="0 0 24 24" fill="none" xmlns="http://www.w3.org/2000/svg">
<path fill-rule="evenodd" clip-rule="evenodd" d="M9.49994 18.2133C9.41495 18.1829 9.30424 18.1397 9.17438 18.0814C8.83971 17.9312 8.38412 17.683 7.91428 17.2961C6.98861 16.5337 5.97459 15.2085 5.74628 12.9254C5.70794 12.542 5.38531 12.25 5 12.25H4.5C2.98122 12.25 1.75 13.4812 1.75 15V21C1.75 21.4142 2.08579 21.75 2.5 21.75H16.5C16.9142 21.75 17.25 21.4142 17.25 21V15C17.25 13.4812 16.0188 12.25 14.5 12.25H14C13.6147 12.25 13.2921 12.542 13.2537 12.9254C13.0254 15.2081 12.0114 16.5334 11.0857 17.2958C10.6158 17.6828 10.1602 17.9311 9.82554 18.0814C9.69566 18.1397 9.58494 18.1828 9.49994 18.2133Z" fill="#141B34"/>
<path d="M18.2461 12.9922C18.5672 13.5901 18.7493 14.2738 18.7493 15V21C18.7493 21.263 18.7042 21.5154 18.6213 21.75H21.4993C21.9135 21.75 22.2493 21.4142 22.2493 21V15C22.2493 13.4812 21.0181 12.25 19.4993 12.25H18.9993C18.614 12.25 18.2914 12.542 18.253 12.9254C18.2508 12.9477 18.2485 12.97 18.2461 12.9922Z" fill="#141B34"/>
<path fill-rule="evenodd" clip-rule="evenodd" d="M11.8943 11.8618C12.1154 11.9985 12.25 12.2399 12.25 12.4998V14.4998C12.25 14.7597 12.1154 15.0011 11.8943 15.1378C11.6732 15.2744 11.3971 15.2869 11.1646 15.1706L9.50004 14.3383L7.83547 15.1708C7.60298 15.2871 7.32686 15.2747 7.10573 15.138C6.8846 15.0014 6.75 14.7599 6.75 14.5V12.5C6.75 12.2401 6.88458 11.9987 7.10567 11.862C7.32677 11.7254 7.60286 11.7129 7.83535 11.8292L9.49996 12.6613L11.1646 11.829C11.3971 11.7127 11.6732 11.7251 11.8943 11.8618Z" fill="#141B34"/>
<path fill-rule="evenodd" clip-rule="evenodd" d="M5.75 6.0625C5.75 3.97157 7.41443 2.25 9.5 2.25C11.5856 2.25 13.25 3.97157 13.25 6.0625V6.9375C13.25 9.02843 11.5856 10.75 9.5 10.75C7.41443 10.75 5.75 9.02843 5.75 6.9375V6.0625Z" fill="#141B34"/>
<path d="M13.5399 10.3295C13.4479 10.442 13.4934 10.6145 13.6347 10.6483C13.9121 10.7148 14.2018 10.75 14.5 10.75C16.5856 10.75 18.25 9.02843 18.25 6.9375V6.0625C18.25 3.97157 16.5856 2.25 14.5 2.25C14.2018 2.25 13.9121 2.28521 13.6347 2.35167C13.4934 2.38552 13.4479 2.55804 13.5399 2.67045C14.2985 3.59699 14.75 4.7843 14.75 6.0625V6.9375C14.75 8.2157 14.2985 9.40301 13.5399 10.3295Z" fill="#141B34"/>
</svg>
