<svg width="24" height="24" viewBox="0 0 24 24" fill="none" xmlns="http://www.w3.org/2000/svg">
<path fill-rule="evenodd" clip-rule="evenodd" d="M3 5C3 4.44772 3.44771 4 4 4H16C16.5523 4 17 4.44772 17 5V6.00005H3L3 5ZM19 5V6.00005H20C21.6569 6.00005 23 7.34319 23 9.00005V19C23 20.6569 21.6569 22 20 22H4.00004C2.34319 22 1.00004 20.6569 1.00004 19.0001L1.00001 6.99979L1 5.00001C0.999996 3.34315 2.34314 2 4 2H16C17.6569 2 19 3.34315 19 5ZM17.5 12C18.6046 12 19.5 12.8954 19.5 14C19.5 15.1046 18.6046 16 17.5 16C16.3954 16 15.5 15.1046 15.5 14C15.5 12.8954 16.3954 12 17.5 12Z" fill="#141B34"/>
</svg>
