<svg width="24" height="24" viewBox="0 0 24 24" fill="none" xmlns="http://www.w3.org/2000/svg">
<path fill-rule="evenodd" clip-rule="evenodd" d="M5.5 13C6.05229 13 6.5 13.4477 6.5 14V16.5H9C9.55228 16.5 10 16.9477 10 17.5C10 18.0523 9.55228 18.5 9 18.5H6.5V21C6.5 21.5523 6.05228 22 5.5 22C4.94772 22 4.5 21.5523 4.5 21V18.5H2C1.44772 18.5 1 18.0523 1 17.5C1 16.9477 1.44772 16.5 2 16.5H4.5L4.5 14C4.5 13.4477 4.94772 13 5.5 13Z" fill="#141B34"/>
<path fill-rule="evenodd" clip-rule="evenodd" d="M19 6.00005V5C19 3.34315 17.6569 2 16 2H4C2.34314 2 0.999996 3.34315 1 5.00001L1.00003 15.208C1.30625 15.0742 1.64446 15 2 15H3V14C3 12.6193 4.11929 11.5 5.5 11.5C6.88071 11.5 8 12.6193 8 14V15H9C10.3807 15 11.5 16.1193 11.5 17.5C11.5 18.8807 10.3807 20 9 20H8V21C8 21.3556 7.92577 21.6938 7.79196 22H20C21.6569 22 23 20.6569 23 19V9.00005C23 7.34319 21.6569 6.00005 20 6.00005H19ZM4 4C3.44771 4 3 4.44772 3 5L3 6.00005H17V5C17 4.44772 16.5523 4 16 4H4ZM17.5 12C18.6046 12 19.5 12.8954 19.5 14C19.5 15.1046 18.6046 16 17.5 16C16.3954 16 15.5 15.1046 15.5 14C15.5 12.8954 16.3954 12 17.5 12Z" fill="#141B34"/>
</svg>
