<svg width="24" height="24" viewBox="0 0 24 24" fill="none" xmlns="http://www.w3.org/2000/svg">
<path fill-rule="evenodd" clip-rule="evenodd" d="M2.29289 14.2929C2.68342 13.9024 3.31658 13.9024 3.70711 14.2929L6.5 17.0858L9.29289 14.2929C9.68342 13.9024 10.3166 13.9024 10.7071 14.2929C11.0976 14.6834 11.0976 15.3166 10.7071 15.7071L7.91421 18.5L10.7071 21.2929C11.0976 21.6834 11.0976 22.3166 10.7071 22.7071C10.3166 23.0976 9.68342 23.0976 9.29289 22.7071L6.5 19.9142L3.70711 22.7071C3.31658 23.0976 2.68342 23.0976 2.29289 22.7071C1.90237 22.3166 1.90237 21.6834 2.29289 21.2929L5.08579 18.5L2.29289 15.7071C1.90237 15.3166 1.90237 14.6834 2.29289 14.2929Z" fill="#141B34"/>
<path fill-rule="evenodd" clip-rule="evenodd" d="M19 6.00005V5C19 3.34315 17.6569 2 16 2H4C2.34314 2 0.999996 3.34315 1 5.00001L1.00002 13.4994C1.07007 13.4063 1.14747 13.317 1.23223 13.2322C2.20854 12.2559 3.79146 12.2559 4.76777 13.2322L6.5 14.9645L8.23223 13.2322C9.20854 12.2559 10.7915 12.2559 11.7678 13.2322C12.7441 14.2085 12.7441 15.7915 11.7678 16.7678L10.0355 18.5L11.7678 20.2322C12.2559 20.7204 12.5 21.3602 12.5 22H20C21.6569 22 23 20.6569 23 19V9.00005C23 7.34319 21.6569 6.00005 20 6.00005H19ZM4 4C3.44771 4 3 4.44772 3 5L3 6.00005H17V5C17 4.44772 16.5523 4 16 4H4ZM17.5 12C18.6046 12 19.5 12.8954 19.5 14C19.5 15.1046 18.6046 16 17.5 16C16.3954 16 15.5 15.1046 15.5 14C15.5 12.8954 16.3954 12 17.5 12Z" fill="#141B34"/>
</svg>
