<svg width="24" height="24" viewBox="0 0 24 24" fill="none" xmlns="http://www.w3.org/2000/svg">
<path fill-rule="evenodd" clip-rule="evenodd" d="M4.5 1.75C2.98122 1.75 1.75 2.98122 1.75 4.5L1.75 19.5C1.75 21.0188 2.98122 22.25 4.5 22.25L19.5 22.25C21.0188 22.25 22.25 21.0188 22.25 19.5L22.25 4.5C22.25 2.98122 21.0188 1.75 19.5 1.75L4.5 1.75ZM8.7601 10.7764C8.98517 10.1052 9.16522 8.62852 8.0849 8.09155C6.73451 7.42034 4.70892 9.09836 5.38411 13.1256C6.05931 17.1528 8.75984 18.8306 11.123 12.7897C11.9866 17.4283 14.6813 15.3926 15.6918 13.357C16.7023 11.3213 17.7128 10.3035 17.7128 10.3035C19.7338 8.26783 18.4643 6.91072 16.7702 7.58927C15.4149 8.13211 14.3984 9.40858 14.0595 9.97896C14.0595 4.90074 10.1442 7.94762 8.7601 10.7764Z" fill="#141B34"/>
</svg>
