<svg width="24" height="24" viewBox="0 0 24 24" fill="none" xmlns="http://www.w3.org/2000/svg">
<path fill-rule="evenodd" clip-rule="evenodd" d="M14.2931 14.2929C14.6836 13.9024 15.3168 13.9024 15.7073 14.2929L18.0002 16.5858L20.2931 14.2929C20.6836 13.9024 21.3168 13.9024 21.7073 14.2929C22.0978 14.6834 22.0978 15.3166 21.7073 15.7071L19.4144 18L21.7073 20.2929C22.0978 20.6834 22.0978 21.3166 21.7073 21.7071C21.3168 22.0976 20.6836 22.0976 20.2931 21.7071L18.0002 19.4142L15.7073 21.7071C15.3168 22.0976 14.6836 22.0976 14.2931 21.7071C13.9026 21.3166 13.9026 20.6834 14.2931 20.2929L16.586 18L14.2931 15.7071C13.9026 15.3166 13.9026 14.6834 14.2931 14.2929Z" fill="#141B34"/>
<path d="M11.9952 2.25C8.50842 2.25 5.30236 3.46081 2.77751 5.4843C1.66001 6.3799 1.60667 7.94396 2.37891 9.0095L10.5782 20.3229C11.0381 20.9575 11.8178 21.1744 12.4962 20.9735C12.5029 20.3426 12.7469 19.7136 13.2283 19.2322L14.4606 18L13.2283 16.7678C12.252 15.7915 12.252 14.2085 13.2283 13.2322C14.2046 12.2559 15.7876 12.2559 16.7639 13.2322L17.8001 14.2685L21.6115 9.0095C22.3838 7.94396 22.3304 6.3799 21.2129 5.4843C18.6881 3.46081 15.482 2.25 11.9952 2.25Z" fill="#141B34"/>
</svg>
