<svg width="24" height="24" viewBox="0 0 24 24" fill="none" xmlns="http://www.w3.org/2000/svg">
<path d="M2.77751 5.4843C5.30236 3.46081 8.50842 2.25 11.9952 2.25C15.482 2.25 18.6881 3.46081 21.2129 5.4843C22.3304 6.3799 22.3838 7.94396 21.6115 9.0095L19.2522 12.2648L17.9577 11.587C17.9477 11.5818 17.9376 11.5768 17.9275 11.5721C14.1574 9.80936 9.8307 9.80928 6.06065 11.572L4.71117 12.2275L2.37891 9.0095C1.60667 7.94396 1.66001 6.3799 2.77751 5.4843Z" fill="#141B34"/>
<path d="M5.60506 13.4609L7.14136 15.5807L8.50267 14.939C10.735 14.0422 13.2788 14.0533 15.5111 14.9501L16.8307 15.6061L18.3627 13.4923L17.2771 12.9238C13.9149 11.3572 10.0622 11.3588 6.70098 12.9286L5.60506 13.4609Z" fill="#141B34"/>
<path d="M14.8611 16.3024L15.9382 16.8376L13.4122 20.3229C12.7135 21.2869 11.2769 21.2869 10.5782 20.3229L8.03715 16.8167L9.11831 16.307C10.9767 15.5659 13.0021 15.5643 14.8611 16.3024Z" fill="#141B34"/>
</svg>
