<svg width="24" height="24" viewBox="0 0 24 24" fill="none" xmlns="http://www.w3.org/2000/svg">
<path fill-rule="evenodd" clip-rule="evenodd" d="M10.4078 15.5807C10.6394 16.0821 10.4207 16.6763 9.91931 16.9079C9.45484 17.1224 9.01835 17.3959 8.70711 17.7071C8.31658 18.0976 7.68342 18.0976 7.29289 17.7071C6.90237 17.3166 6.90237 16.6834 7.29289 16.2929C7.82695 15.7588 8.48854 15.3657 9.08069 15.0922C9.58207 14.8606 10.1763 15.0794 10.4078 15.5807ZM13.5922 15.5807C13.8237 15.0794 14.4179 14.8606 14.9193 15.0922C15.5115 15.3657 16.1731 15.7588 16.7071 16.2929C17.0976 16.6834 17.0976 17.3166 16.7071 17.7071C16.3166 18.0976 15.6834 18.0976 15.2929 17.7071C14.9816 17.3959 14.5452 17.1224 14.0807 16.9079C13.5793 16.6763 13.3606 16.0821 13.5922 15.5807Z" fill="#141B34"/>
<path fill-rule="evenodd" clip-rule="evenodd" d="M8.88936 11.5428C9.14187 12.034 8.94839 12.6368 8.45722 12.8894C7.77372 13.2407 7.03083 13.8834 6.20713 14.7071C5.81662 15.0977 5.18345 15.0977 4.79291 14.7072C4.40238 14.3167 4.40236 13.6835 4.79287 13.293C5.63334 12.4524 6.56211 11.6148 7.54278 11.1106C8.03396 10.8581 8.63684 11.0516 8.88936 11.5428ZM15.1205 11.5242C15.3833 11.0384 15.9901 10.8577 16.4758 11.1205C17.2377 11.5326 17.9883 12.2042 18.6729 12.8168C18.8382 12.9647 18.9997 13.1093 19.1566 13.2458C19.5732 13.6085 19.6169 14.2401 19.2542 14.6567C18.8916 15.0732 18.2599 15.1169 17.8434 14.7543C17.6265 14.5655 17.4252 14.3861 17.2358 14.2173C16.5759 13.6294 16.0591 13.169 15.5242 12.8795C15.0384 12.6167 14.8577 12.0099 15.1205 11.5242Z" fill="#141B34"/>
<path fill-rule="evenodd" clip-rule="evenodd" d="M7.92406 7.11801C8.13517 7.62836 7.89259 8.21321 7.38225 8.42432C6.02194 8.98703 3.98281 10.4317 2.70712 11.7074C2.31661 12.0979 1.68344 12.098 1.29291 11.7074C0.902376 11.3169 0.902362 10.6838 1.29288 10.2932C2.70412 8.88192 4.95628 7.26349 6.61775 6.5762C7.12809 6.36509 7.71295 6.60767 7.92406 7.11801ZM16.0759 7.11801C16.2871 6.60767 16.8719 6.36509 17.3822 6.5762C19.0437 7.26349 21.2959 8.88191 22.7071 10.2931C23.0976 10.6836 23.0976 11.3168 22.7071 11.7073C22.3166 12.0978 21.6834 12.0978 21.2929 11.7073C20.0172 10.4317 17.9781 8.98703 16.6178 8.42432C16.1074 8.21321 15.8648 7.62836 16.0759 7.11801Z" fill="#141B34"/>
<path fill-rule="evenodd" clip-rule="evenodd" d="M10.5 20C10.5 19.1716 11.1716 18.5 12 18.5H12.0118C12.8402 18.5 13.5118 19.1716 13.5118 20C13.5118 20.8284 12.8402 21.5 12.0118 21.5H12C11.1716 21.5 10.5 20.8284 10.5 20Z" fill="#141B34"/>
<path fill-rule="evenodd" clip-rule="evenodd" d="M8.55339 5.39352C8.30032 4.29693 9.13317 3.25 10.2586 3.25H13.7445C14.8699 3.25 15.7027 4.29692 15.4497 5.39349L12.7324 17.1686C12.6539 17.5089 12.3509 17.75 12.0016 17.75C11.6524 17.75 11.3493 17.509 11.2708 17.1687L8.55339 5.39352Z" fill="#141B34"/>
</svg>
