<svg width="24" height="24" viewBox="0 0 24 24" fill="none" xmlns="http://www.w3.org/2000/svg">
<path fill-rule="evenodd" clip-rule="evenodd" d="M10.5 20C10.5 19.1716 11.1716 18.5 12 18.5H12.0118C12.8402 18.5 13.5118 19.1716 13.5118 20C13.5118 20.8284 12.8402 21.5 12.0118 21.5H12C11.1716 21.5 10.5 20.8284 10.5 20Z" fill="#141B34"/>
<path fill-rule="evenodd" clip-rule="evenodd" d="M12 14.5C13.6985 14.5 15.4771 15.0629 16.7071 16.2929C17.0976 16.6834 17.0976 17.3166 16.7071 17.7071C16.3166 18.0976 15.6834 18.0976 15.2929 17.7071C14.5229 16.9371 13.3015 16.5 12 16.5C10.6985 16.5 9.47713 16.9371 8.70711 17.7071C8.31658 18.0976 7.68342 18.0976 7.29289 17.7071C6.90237 17.3166 6.90237 16.6834 7.29289 16.2929C8.52287 15.0629 10.3015 14.5 12 14.5Z" fill="#141B34"/>
<path fill-rule="evenodd" clip-rule="evenodd" d="M4.85981 13.2318C9.21911 9.59903 15.0058 9.57336 19.1626 13.251C19.5763 13.617 19.6149 14.249 19.2489 14.6626C18.883 15.0763 18.251 15.1149 17.8374 14.749C14.459 11.76 9.78088 11.7343 6.14018 14.7682C5.7159 15.1218 5.08534 15.0645 4.73177 14.6402C4.37821 14.2159 4.43553 13.5853 4.85981 13.2318Z" fill="#141B34"/>
<path fill-rule="evenodd" clip-rule="evenodd" d="M12.4993 6.96202C12.5202 7.51391 12.0898 7.9783 11.538 7.99926C8.54398 8.113 5.50919 9.34554 2.64517 11.764C2.22321 12.1204 1.59228 12.0672 1.23596 11.6452C0.879637 11.2232 0.932849 10.5923 1.35481 10.236C4.49887 7.58101 7.94844 6.13418 11.462 6.0007C12.0139 5.97974 12.4783 6.41014 12.4993 6.96202Z" fill="#141B34"/>
<path fill-rule="evenodd" clip-rule="evenodd" d="M22.6402 2.23177C23.0645 2.58534 23.1218 3.2159 22.7682 3.64018L17.7682 9.64018C17.5884 9.85602 17.326 9.98624 17.0453 9.99897C16.7646 10.0117 16.4916 9.90577 16.2929 9.7071L13.7929 7.2071C13.4024 6.81658 13.4024 6.18341 13.7929 5.79289C14.1834 5.40236 14.8166 5.40236 15.2071 5.79289L16.9328 7.51858L21.2318 2.35981C21.5853 1.93553 22.2159 1.87821 22.6402 2.23177Z" fill="#141B34"/>
</svg>
