<svg width="24" height="24" viewBox="0 0 24 24" fill="none" xmlns="http://www.w3.org/2000/svg">
<path fill-rule="evenodd" clip-rule="evenodd" d="M4 1.25C3.0335 1.25 2.25 2.0335 2.25 3L2.25 7C2.25 7.9665 3.0335 8.75 4 8.75H5L5 15.25H4C3.0335 15.25 2.25 16.0335 2.25 17L2.25 21C2.25 21.9665 3.0335 22.75 4 22.75H8C8.9665 22.75 9.75 21.9665 9.75 21L9.75 17C9.75 16.0335 8.9665 15.25 8 15.25H7V13L16 13C17.6569 13 19 11.6569 19 10V8.75H20C20.9665 8.75 21.75 7.9665 21.75 7V3C21.75 2.0335 20.9665 1.25 20 1.25L16 1.25C15.0335 1.25 14.25 2.0335 14.25 3V7C14.25 7.9665 15.0335 8.75 16 8.75H17V10C17 10.5523 16.5523 11 16 11L7 11V8.75H8C8.9665 8.75 9.75 7.9665 9.75 7V3C9.75 2.0335 8.9665 1.25 8 1.25L4 1.25Z" fill="#141B34"/>
</svg>
