<svg width="24" height="24" viewBox="0 0 24 24" fill="none" xmlns="http://www.w3.org/2000/svg">
<path fill-rule="evenodd" clip-rule="evenodd" d="M9.06548 18.4761C7.7191 20.1254 6.06342 21.5 4 21.5C3.44772 21.5 3 21.0523 3 20.5C3 19.9477 3.44772 19.5 4 19.5C5.12026 19.5 6.2605 18.7496 7.51616 17.2114C8.75257 15.6968 9.91353 13.6538 11.13 11.507L11.1583 11.4569C12.3415 9.36884 13.5797 7.18349 14.9345 5.52387C16.2809 3.87456 17.9366 2.5 20 2.5C20.5523 2.5 21 2.94772 21 3.5C21 4.05228 20.5523 4.5 20 4.5C18.8797 4.5 17.7395 5.25044 16.4838 6.78863C15.2474 8.30324 14.0865 10.3462 12.87 12.493L12.8417 12.543C11.6585 14.6312 10.4203 16.8165 9.06548 18.4761Z" fill="#141B34"/>
<path fill-rule="evenodd" clip-rule="evenodd" d="M4 3.5C4 2.94772 4.44772 2.5 5 2.5H6.87745C8.57339 2.5 10.085 3.56947 10.6494 5.16872L15.2366 18.1656C15.5188 18.9653 16.2746 19.5 17.1225 19.5H19C19.5523 19.5 20 19.9477 20 20.5C20 21.0523 19.5523 21.5 19 21.5H17.1225C15.4266 21.5 13.915 20.4305 13.3506 18.8313L8.76344 5.83436C8.48122 5.03474 7.72542 4.5 6.87745 4.5H5C4.44772 4.5 4 4.05228 4 3.5Z" fill="#141B34"/>
</svg>
