<svg xmlns="http://www.w3.org/2000/svg" width="24" height="24" viewBox="0 0 24 24">
    <path d="M1.032 17.52q0.12-0.168 0.336-0.024c3.077 1.826 6.783 2.904 10.741 2.904 0.046 0 0.092-0 0.138-0l-0.007 0c2.791-0.007 5.454-0.544 7.897-1.515l-0.145 0.051q0.096-0.048 0.288-0.12t0.264-0.12c0.046-0.023 0.101-0.037 0.159-0.037 0.123 0 0.232 0.062 0.296 0.156l0.001 0.001q0.192 0.24-0.096 0.432-0.36 0.264-0.912 0.6c-1.105 0.66-2.383 1.202-3.735 1.56l-0.105 0.024c-1.242 0.354-2.67 0.564-4.145 0.576l-0.007 0c-0.018 0-0.040 0-0.062 0-2.103 0-4.111-0.405-5.95-1.142l0.108 0.038c-1.916-0.761-3.563-1.799-4.982-3.084l0.014 0.012c-0.065-0.042-0.11-0.111-0.12-0.191l-0-0.001c-0.001-0.006-0.001-0.013-0.001-0.019 0-0.037 0.009-0.071 0.025-0.102l-0.001 0.001zM7.056 11.808c-0.001-0.036-0.002-0.078-0.002-0.121 0-0.831 0.252-1.604 0.683-2.246l-0.009 0.014c0.466-0.66 1.102-1.172 1.844-1.478l0.028-0.010c0.778-0.316 1.68-0.545 2.62-0.644l0.044-0.004q0.528-0.072 1.752-0.168v-0.336c0.011-0.103 0.017-0.223 0.017-0.344 0-0.5-0.103-0.976-0.29-1.407l0.009 0.023c-0.279-0.368-0.716-0.604-1.209-0.604-0.039 0-0.078 0.001-0.116 0.004l0.005-0h-0.168c-0.438 0.033-0.833 0.19-1.157 0.436l0.005-0.004c-0.31 0.246-0.528 0.597-0.599 0.998l-0.001 0.010c-0.018 0.228-0.186 0.413-0.405 0.455l-0.003 0.001-2.304-0.288q-0.336-0.072-0.336-0.36c0.002-0.052 0.011-0.101 0.025-0.148l-0.001 0.004c0.163-1.105 0.775-2.041 1.643-2.631l0.013-0.009c0.886-0.566 1.958-0.918 3.109-0.96l0.011-0h0.504c0.089-0.006 0.192-0.009 0.297-0.009 1.243 0 2.381 0.448 3.263 1.191l-0.008-0.006c0.127 0.131 0.245 0.272 0.352 0.421l0.008 0.011c0.097 0.119 0.192 0.253 0.278 0.392l0.010 0.016c0.074 0.153 0.132 0.33 0.166 0.515l0.002 0.013q0.096 0.336 0.12 0.48c0.040 0.163 0.065 0.353 0.072 0.547l0 0.005q0.024 0.432 0.024 0.504v4.848c-0 0.019-0.001 0.041-0.001 0.063 0 0.321 0.053 0.63 0.151 0.918l-0.006-0.020c0.075 0.229 0.173 0.427 0.294 0.609l-0.006-0.009q0.144 0.192 0.456 0.624c0.066 0.086 0.11 0.193 0.12 0.31l0 0.002c-0.001 0.123-0.068 0.229-0.166 0.287l-0.002 0.001q-1.656 1.44-1.8 1.56c-0.086 0.059-0.193 0.094-0.308 0.094-0.099 0-0.191-0.026-0.271-0.071l0.003 0.001q-0.264-0.24-0.48-0.456t-0.312-0.312c-0.095-0.113-0.19-0.238-0.278-0.368l-0.010-0.016q-0.192-0.288-0.264-0.408c-0.572 0.694-1.318 1.225-2.174 1.525l-0.034 0.011c-0.456 0.123-0.98 0.194-1.52 0.194-0.056 0-0.112-0.001-0.168-0.002l0.008 0c-0.047 0.002-0.101 0.003-0.156 0.003-0.924 0-1.764-0.357-2.39-0.941l0.002 0.002c-0.614-0.638-0.993-1.506-0.993-2.463 0-0.088 0.003-0.174 0.009-0.26l-0.001 0.012zM10.488 11.424c-0.001 0.021-0.001 0.046-0.001 0.071 0 0.446 0.154 0.857 0.412 1.181l-0.003-0.004c0.239 0.28 0.593 0.457 0.988 0.457 0.016 0 0.031-0 0.047-0.001l-0.002 0c0.029 0.003 0.062 0.004 0.096 0.004s0.067-0.002 0.1-0.005l-0.004 0c0.041-0.010 0.090-0.019 0.14-0.024l0.004-0c0.575-0.162 1.038-0.554 1.291-1.068l0.005-0.012c0.143-0.242 0.259-0.522 0.332-0.819l0.004-0.021c0.059-0.21 0.101-0.455 0.119-0.708l0.001-0.012q0-0.288 0-0.936v-0.48c-0.084-0.003-0.183-0.005-0.283-0.005-0.52 0-1.028 0.054-1.517 0.158l0.048-0.008c-1.017 0.177-1.78 1.052-1.78 2.106 0 0.044 0.001 0.088 0.004 0.132l-0-0.006zM18.912 17.856c0.032-0.065 0.072-0.12 0.12-0.168v0c0.275-0.196 0.594-0.352 0.938-0.451l0.022-0.005c0.434-0.12 0.936-0.198 1.453-0.216l0.011-0c0.035-0.004 0.077-0.006 0.118-0.006 0.094 0 0.186 0.011 0.274 0.031l-0.008-0.002q0.912 0.072 1.080 0.288c0.047 0.088 0.075 0.191 0.075 0.302 0 0.020-0.001 0.041-0.003 0.061l0-0.003v0.144c-0.017 0.602-0.148 1.168-0.371 1.686l0.011-0.030c-0.238 0.612-0.607 1.127-1.075 1.532l-0.005 0.004c-0.046 0.039-0.103 0.065-0.167 0.072l-0.001 0c-0.027-0.003-0.051-0.011-0.073-0.024l0.001 0q-0.12-0.048-0.072-0.216c0.361-0.703 0.622-1.521 0.74-2.385l0.004-0.039c0.002-0.015 0.002-0.031 0.002-0.049 0-0.097-0.028-0.188-0.076-0.266l0.001 0.002q-0.216-0.24-1.128-0.24-0.336 0-0.792 0.048-0.504 0.048-0.936 0.12c-0.054 0-0.104-0.018-0.145-0.048l0.001 0c-0.016-0.013-0.026-0.033-0.026-0.055 0-0.006 0.001-0.012 0.002-0.017l-0 0c0.002-0.027 0.010-0.052 0.024-0.073l-0 0.001z"></path>
</svg>
