<svg xmlns="http://www.w3.org/2000/svg" width="24" height="24" viewBox="0 0 24 24">
    <path d="M14.952 5.184c0.664-0.762 1.068-1.765 1.068-2.862 0-0.116-0.005-0.231-0.013-0.345l0.001 0.015c-1.205 0.104-2.26 0.676-2.995 1.53l-0.005 0.006c-0.635 0.729-1.022 1.687-1.022 2.736 0 0.118 0.005 0.235 0.015 0.351l-0.001-0.015c0.006 0 0.012 0 0.019 0 1.177 0 2.226-0.551 2.903-1.408l0.006-0.008zM17.472 12.624c0.013-1.609 0.865-3.016 2.141-3.805l0.019-0.011c-0.825-1.172-2.153-1.942-3.664-1.992l-0.008-0c-1.56-0.168-3 0.912-3.84 0.912s-1.992-0.888-3.288-0.864c-1.78 0.054-3.317 1.045-4.139 2.496l-0.013 0.024c-1.752 3.072-0.432 7.608 1.32 10.080 0.792 1.224 1.8 2.592 3.12 2.544s1.752-0.84 3.288-0.84 1.992 0.84 3.288 0.792 2.232-1.224 3.072-2.448c0.557-0.814 1.021-1.753 1.346-2.754l0.022-0.078c-1.581-0.696-2.664-2.248-2.664-4.054 0-0.001 0-0.002 0-0.003v0z"></path>
</svg>
