<svg xmlns="http://www.w3.org/2000/svg" width="24" height="24" viewBox="0 0 24 24">
    <path d="M13.416 12l3.792-3.792c0.18-0.182 0.291-0.432 0.291-0.708s-0.111-0.526-0.291-0.708l0 0-4.488-4.512c-0.095-0.082-0.206-0.147-0.329-0.19l-0.007-0.002c-0.114-0.048-0.245-0.076-0.384-0.076s-0.27 0.028-0.391 0.078l0.007-0.002c-0.238 0.104-0.424 0.29-0.525 0.522l-0.003 0.006c-0.054 0.112-0.089 0.243-0.096 0.382l-0 0.002v6.6l-2.784-2.808c-0.186-0.234-0.471-0.382-0.79-0.382-0.557 0-1.008 0.451-1.008 1.008 0 0.319 0.149 0.604 0.38 0.789l0.002 0.002 3.792 3.792-3.792 3.792c-0.234 0.186-0.382 0.471-0.382 0.79 0 0.557 0.451 1.008 1.008 1.008 0.319 0 0.604-0.148 0.789-0.38l0.002-0.002 2.784-2.808v6.6c0.007 0.141 0.042 0.272 0.099 0.39l-0.003-0.006c0.104 0.238 0.29 0.424 0.522 0.525l0.006 0.003c0.113 0.052 0.245 0.082 0.384 0.082s0.271-0.030 0.39-0.085l-0.006 0.002c0.13-0.045 0.241-0.11 0.337-0.193l-0.001 0.001 4.488-4.512c0.18-0.182 0.291-0.432 0.291-0.708s-0.111-0.526-0.291-0.708l0 0zM13.008 5.4l2.088 2.088-2.088 2.112zM13.008 18.6v-4.2l2.088 2.088z"></path>
</svg>
