<svg xmlns="http://www.w3.org/2000/svg" width="24" height="24" viewBox="0 0 24 24">
    <path d="M21 6h-4.008v-1.008c0-1.657-1.343-3-3-3v0h-3.984c-1.657 0-3 1.343-3 3v0 1.008h-4.008c-0.557 0-1.008 0.451-1.008 1.008v0 3.984c0.003 0.887 0.391 1.682 1.005 2.229l0.003 0.003v5.784c0 1.657 1.343 3 3 3v0h12c1.657 0 3-1.343 3-3v0-5.784c0.617-0.55 1.005-1.345 1.008-2.231v-3.985c0-0.557-0.451-1.008-1.008-1.008v0zM9 4.992c0.013-0.546 0.459-0.984 1.008-0.984 0 0 0 0 0 0h3.984c0 0 0 0 0 0 0.548 0 0.994 0.438 1.008 0.983l0 0.001v1.008h-6zM19.008 19.008c-0.013 0.546-0.459 0.984-1.008 0.984-0 0-0 0-0 0h-12c-0 0-0 0-0 0-0.548 0-0.994-0.438-1.008-0.983l-0-0.001v-5.016h2.016v1.008c0.078 0.486 0.494 0.853 0.996 0.853s0.918-0.367 0.995-0.847l0.001-0.006v-1.008h6v1.008c0.078 0.486 0.494 0.853 0.996 0.853s0.918-0.367 0.995-0.847l0.001-0.006v-1.008h2.016zM19.992 10.992c0 0 0 0 0 0 0 0.548-0.438 0.994-0.983 1.008l-0.001 0h-2.016v-1.008c-0.078-0.486-0.494-0.853-0.996-0.853s-0.918 0.367-0.995 0.847l-0.001 0.006v1.008h-6v-1.008c-0.078-0.486-0.494-0.853-0.996-0.853s-0.918 0.367-0.995 0.847l-0.001 0.006v1.008h-2.016c-0.546-0.013-0.984-0.459-0.984-1.008 0-0 0-0 0-0v0-3h15.984z"></path>
</svg>
