<svg xmlns="http://www.w3.org/2000/svg" width="24" height="24" viewBox="0 0 24 24">
    <path d="M12 4.992c-3.87 0-7.008 3.138-7.008 7.008s3.138 7.008 7.008 7.008c3.87 0 7.008-3.138 7.008-7.008v0c0-3.87-3.138-7.008-7.008-7.008v0zM12 16.992c-2.757 0-4.992-2.235-4.992-4.992s2.235-4.992 4.992-4.992c2.757 0 4.992 2.235 4.992 4.992v0c0 2.757-2.235 4.992-4.992 4.992v0zM12 9c-1.657 0-3 1.343-3 3s1.343 3 3 3c1.657 0 3-1.343 3-3v0c0-1.657-1.343-3-3-3v0zM12 13.008c-0.557 0-1.008-0.451-1.008-1.008s0.451-1.008 1.008-1.008c0.557 0 1.008 0.451 1.008 1.008v0c0 0.557-0.451 1.008-1.008 1.008v0zM12 1.008c-6.071 0-10.992 4.921-10.992 10.992s4.921 10.992 10.992 10.992c6.071 0 10.992-4.921 10.992-10.992v0c0-6.071-4.921-10.992-10.992-10.992v0zM12 21c-4.971 0-9-4.029-9-9s4.029-9 9-9c4.971 0 9 4.029 9 9v0c0 4.971-4.029 9-9 9v0z"></path>
</svg>
