<svg xmlns="http://www.w3.org/2000/svg" width="24" height="24" viewBox="0 0 24 24">
    <path d="M5.496 7.992h0.504v0.504c0.078 0.486 0.494 0.853 0.996 0.853s0.918-0.367 0.995-0.847l0.001-0.006v-0.504h0.504c0.486-0.078 0.853-0.494 0.853-0.996s-0.367-0.918-0.847-0.995l-0.006-0.001h-0.504v-0.504c-0.078-0.486-0.494-0.853-0.996-0.853s-0.918 0.367-0.995 0.847l-0.001 0.006v0.504h-0.504c-0.486 0.078-0.853 0.494-0.853 0.996s0.367 0.918 0.847 0.995l0.006 0.001zM4.872 19.128c0.182 0.18 0.432 0.291 0.708 0.291s0.526-0.111 0.708-0.291l0.72-0.72 0.696 0.72c0.182 0.18 0.432 0.291 0.708 0.291s0.526-0.111 0.708-0.291l-0 0c0.18-0.182 0.291-0.432 0.291-0.708s-0.111-0.526-0.291-0.708l-0.72-0.72 0.72-0.696c0.136-0.17 0.218-0.388 0.218-0.626 0-0.557-0.451-1.008-1.008-1.008-0.237 0-0.456 0.082-0.628 0.219l0.002-0.002-0.696 0.72-0.72-0.72c-0.17-0.136-0.388-0.218-0.626-0.218-0.557 0-1.008 0.451-1.008 1.008 0 0.237 0.082 0.456 0.219 0.628l-0.002-0.002 0.72 0.696-0.72 0.72c-0.18 0.182-0.291 0.432-0.291 0.708s0.111 0.526 0.291 0.708l-0-0zM19.992 1.008h-15.984c-1.657 0-3 1.343-3 3v0 15.984c0 1.657 1.343 3 3 3v0h15.984c1.657 0 3-1.343 3-3v0-15.984c0-1.657-1.343-3-3-3v0zM10.992 21h-6.984c-0.557 0-1.008-0.451-1.008-1.008v0-6.984h7.992zM10.992 10.992h-7.992v-6.984c0-0.557 0.451-1.008 1.008-1.008v0h6.984zM21 19.992c0 0.557-0.451 1.008-1.008 1.008v0h-6.984v-7.992h7.992zM21 10.992h-7.992v-7.992h6.984c0.557 0 1.008 0.451 1.008 1.008v0zM15.504 16.488h3c0.486-0.078 0.853-0.494 0.853-0.996s-0.367-0.918-0.847-0.995l-0.006-0.001h-3c-0.486 0.078-0.853 0.494-0.853 0.996s0.367 0.918 0.847 0.995l0.006 0.001zM18.504 6h-3c-0.486 0.078-0.853 0.494-0.853 0.996s0.367 0.918 0.847 0.995l0.006 0.001h3c0.486-0.078 0.853-0.494 0.853-0.996s-0.367-0.918-0.847-0.995l-0.006-0.001zM15.504 19.488h3c0.486-0.078 0.853-0.494 0.853-0.996s-0.367-0.918-0.847-0.995l-0.006-0.001h-3c-0.486 0.078-0.853 0.494-0.853 0.996s0.367 0.918 0.847 0.995l0.006 0.001z"></path>
</svg>
