<svg xmlns="http://www.w3.org/2000/svg" width="24" height="24" viewBox="0 0 24 24">
    <path d="M20.472 9c0.557 0 1.008-0.451 1.008-1.008s-0.451-1.008-1.008-1.008c-0.557 0-1.008 0.451-1.008 1.008v0c0 0.557 0.451 1.008 1.008 1.008v0zM17.472 9c0.557 0 1.008-0.451 1.008-1.008s-0.451-1.008-1.008-1.008c-0.557 0-1.008 0.451-1.008 1.008v0c0 0.557 0.451 1.008 1.008 1.008v0zM14.472 9c0.557 0 1.008-0.451 1.008-1.008s-0.451-1.008-1.008-1.008c-0.557 0-1.008 0.451-1.008 1.008v0c0 0.557 0.451 1.008 1.008 1.008v0zM18.912 13.008c-0.216 0-0.456-0.072-0.672-0.12-0.517-0.12-0.958-0.26-1.384-0.43l0.064 0.022c-0.202-0.075-0.435-0.119-0.678-0.119-0.785 0-1.465 0.455-1.789 1.115l-0.005 0.012-0.216 0.456c-1.015-0.578-1.89-1.247-2.665-2.017l0.001 0.001c-0.764-0.769-1.432-1.636-1.983-2.579l-0.033-0.061 0.456-0.288c0.661-0.333 1.106-1.007 1.106-1.784 0-0.247-0.045-0.483-0.127-0.701l0.005 0.014c-0.136-0.357-0.269-0.798-0.371-1.251l-0.013-0.069c-0.048-0.24-0.096-0.456-0.12-0.672-0.25-1.426-1.479-2.496-2.957-2.496-0.015 0-0.030 0-0.045 0l0.002-0h-3c-0.887 0.003-1.682 0.391-2.229 1.005l-0.003 0.003c-0.476 0.529-0.767 1.232-0.767 2.004 0 0.131 0.008 0.261 0.025 0.387l-0.002-0.015c1.115 8.62 7.868 15.373 16.393 16.478l0.095 0.010c0.057 0.005 0.124 0.007 0.192 0.007s0.135-0.003 0.201-0.008l-0.009 0.001c1.657 0 3-1.343 3-3v0-3c-0.025-1.45-1.074-2.647-2.454-2.901l-0.018-0.003zM19.392 19.008c-0.008 0.551-0.456 0.994-1.008 0.994-0.051 0-0.101-0.004-0.15-0.011l0.006 0.001c-3.882-0.52-7.282-2.274-9.864-4.848l0 0c-2.585-2.6-4.342-6.027-4.839-9.85l-0.009-0.086c-0.005-0.038-0.008-0.082-0.008-0.127 0-0.267 0.104-0.509 0.273-0.689l-0.001 0.001c0.184-0.205 0.449-0.334 0.744-0.336h3c0.48 0 0.881 0.336 0.983 0.785l0.001 0.007q0.072 0.408 0.168 0.816c0.133 0.602 0.29 1.116 0.482 1.612l-0.026-0.076-1.416 0.648c-0.344 0.165-0.578 0.511-0.578 0.911 0 0.157 0.036 0.306 0.1 0.439l-0.003-0.006c1.469 3.099 3.909 5.539 6.92 6.97l0.088 0.038c0.11 0.045 0.238 0.071 0.372 0.071s0.262-0.026 0.379-0.074l-0.007 0.002c0.257-0.094 0.461-0.282 0.573-0.522l0.003-0.006 0.624-1.392c0.42 0.157 0.95 0.314 1.492 0.438l0.092 0.018c0.264 0.048 0.528 0.096 0.816 0.144 0.444 0.111 0.768 0.507 0.768 0.979 0 0.010-0 0.020-0 0.030l0-0.001z"></path>
</svg>
