<svg xmlns="http://www.w3.org/2000/svg" width="24" height="24" viewBox="0 0 24 24">
    <path d="M21 19.992h-16.992v-1.992h3c0.486-0.078 0.853-0.494 0.853-0.996s-0.367-0.918-0.847-0.995l-0.006-0.001h-3v-2.016h6.984c0.486-0.078 0.853-0.494 0.853-0.996s-0.367-0.918-0.847-0.995l-0.006-0.001h-6.984v-1.992h10.992c0.557 0 1.008-0.451 1.008-1.008s-0.451-1.008-1.008-1.008v0h-10.992v-1.992h15c0.486-0.078 0.853-0.494 0.853-0.996s-0.367-0.918-0.847-0.995l-0.006-0.001h-15v-1.008c0-0.557-0.451-1.008-1.008-1.008s-1.008 0.451-1.008 1.008v0 18c0 0.557 0.451 1.008 1.008 1.008v0h18c0.557 0 1.008-0.451 1.008-1.008s-0.451-1.008-1.008-1.008v0z"></path>
</svg>
