<svg xmlns="http://www.w3.org/2000/svg" width="24" height="24" viewBox="0 0 24 24">
    <path d="M10.992 12v1.008h-0.984c-0.486 0.078-0.853 0.494-0.853 0.996s0.367 0.918 0.847 0.995l0.006 0.001h0.984v1.008c0 0.557 0.451 1.008 1.008 1.008s1.008-0.451 1.008-1.008v0-1.008h0.984c0.486-0.078 0.853-0.494 0.853-0.996s-0.367-0.918-0.847-0.995l-0.006-0.001h-0.984v-1.008c0-0.557-0.451-1.008-1.008-1.008s-1.008 0.451-1.008 1.008v0zM21.672 10.248l-9-7.992c-0.178-0.159-0.413-0.257-0.672-0.257s-0.494 0.097-0.673 0.258l0.001-0.001-9 7.992c-0.16 0.178-0.258 0.414-0.258 0.674 0 0.557 0.451 1.008 1.008 1.008 0.223 0 0.43-0.073 0.597-0.196l-0.003 0.002 0.336-0.288v9.552c0 0 0 0 0 0 0 0.548 0.438 0.994 0.983 1.008l0.001 0h14.016c0.546-0.013 0.984-0.459 0.984-1.008 0-0 0-0 0-0v0-9.552l0.336 0.288c0.164 0.121 0.371 0.194 0.594 0.194 0.557 0 1.008-0.451 1.008-1.008 0-0.26-0.098-0.496-0.259-0.675l0.001 0.001zM18 19.992h-12v-10.32l6-5.328 6 5.328z"></path>
</svg>
