<svg xmlns="http://www.w3.org/2000/svg" width="24" height="24" viewBox="0 0 24 24">
    <path d="M12 1.992c-5.527 0-10.008 4.481-10.008 10.008s4.481 10.008 10.008 10.008c5.527 0 10.008-4.481 10.008-10.008v0c0-5.527-4.481-10.008-10.008-10.008v0zM12 19.992c-4.414 0-7.992-3.578-7.992-7.992s3.578-7.992 7.992-7.992c4.414 0 7.992 3.578 7.992 7.992v0c-0.014 4.408-3.584 7.978-7.991 7.992h-0.001zM12 6c-0.557 0-1.008 0.451-1.008 1.008v0 4.752l-1.368 2.568c-0.032 0.094-0.051 0.203-0.051 0.316 0 0.557 0.451 1.008 1.008 1.008 0.322 0 0.609-0.151 0.793-0.386l0.002-0.002 1.512-2.784c0.076-0.138 0.12-0.302 0.12-0.477 0-0.001 0-0.002 0-0.003v0-4.992c0-0.557-0.451-1.008-1.008-1.008v0z"></path>
</svg>
