<svg xmlns="http://www.w3.org/2000/svg" width="24" height="24" viewBox="0 0 24 24">
    <path d="M15 12.504c-0.405 0.004-0.753 0.247-0.909 0.594l-0.003 0.006c-0.603-0.382-1.336-0.609-2.123-0.609-2.214 0-4.008 1.794-4.008 4.008s1.794 4.008 4.008 4.008c1.030 0 1.969-0.388 2.679-1.027l-0.004 0.003c0.285-0.181 0.471-0.495 0.471-0.853 0-0.557-0.451-1.008-1.008-1.008-0.315 0-0.596 0.145-0.781 0.371l-0.001 0.002c-0.349 0.312-0.812 0.503-1.32 0.504h-0c-1.073-0.034-1.93-0.913-1.93-1.991 0-1.1 0.892-1.992 1.992-1.992 0.347 0 0.673 0.089 0.957 0.244l-0.010-0.005h-0.216c-0.486 0.078-0.853 0.494-0.853 0.996s0.367 0.918 0.847 0.995l0.006 0.001h2.208c0.557 0 1.008-0.451 1.008-1.008v0-2.256c-0.013-0.546-0.459-0.984-1.008-0.984-0 0-0 0-0 0h0zM18.432 7.728c-1.11-2.495-3.566-4.203-6.422-4.203-3.542 0-6.47 2.627-6.942 6.039l-0.004 0.037c-1.774 0.438-3.069 2.016-3.069 3.897 0 1.74 1.108 3.22 2.657 3.775l0.028 0.009c0.093 0.029 0.2 0.047 0.311 0.048h0.001c0.051 0.009 0.109 0.014 0.168 0.014 0.564 0 1.022-0.458 1.022-1.022 0-0.505-0.366-0.925-0.848-1.007l-0.006-0.001c-0.76-0.278-1.298-0.985-1.32-1.821l-0-0.003c0-1.1 0.892-1.992 1.992-1.992v0c0.557 0 1.008-0.451 1.008-1.008v0c0-0.002 0-0.004 0-0.006 0-2.757 2.235-4.992 4.992-4.992 2.184 0 4.040 1.402 4.717 3.355l0.011 0.035c0.121 0.35 0.42 0.609 0.786 0.671l0.006 0.001c1.414 0.26 2.472 1.483 2.472 2.953 0 1.1-0.592 2.061-1.474 2.583l-0.014 0.008c-0.363 0.158-0.612 0.513-0.612 0.927 0 0.557 0.451 1.008 1.008 1.008 0.231 0 0.444-0.078 0.614-0.209l-0.002 0.002c1.502-0.879 2.495-2.483 2.496-4.32v-0c-0.005-2.248-1.495-4.146-3.541-4.767l-0.035-0.009z"></path>
</svg>
