<svg xmlns="http://www.w3.org/2000/svg" width="24" height="24" viewBox="0 0 24 24">
    <path d="M19.464 10.536c-0.965-2.098-3.049-3.528-5.467-3.528-0.002 0-0.003 0-0.005 0h0c-0.001 0-0.001 0-0.002 0-0.493 0-0.972 0.061-1.43 0.177l0.040-0.009c-0.915-1.291-2.403-2.123-4.086-2.123-2.447 0-4.483 1.761-4.91 4.085l-0.005 0.031c-1.182 0.421-2.013 1.53-2.013 2.833 0 1.63 1.301 2.957 2.921 2.999l0.004 0h0.984c-0.005 0.075-0.008 0.163-0.008 0.252s0.003 0.177 0.009 0.264l-0.001-0.012c0 1.935 1.569 3.504 3.504 3.504v0h9.168c0.032 0.001 0.070 0.001 0.108 0.001 2.386 0 4.32-1.934 4.32-4.32 0-1.963-1.309-3.62-3.101-4.146l-0.031-0.008zM4.512 13.008c-0.557 0-1.008-0.451-1.008-1.008s0.451-1.008 1.008-1.008v0c0.538-0.013 0.971-0.446 0.984-0.983l0-0.001c0-1.657 1.343-3 3-3v0c0.003 0 0.007-0 0.010-0 0.88 0 1.671 0.379 2.219 0.982l0.002 0.002c-1.407 0.923-2.392 2.39-2.66 4.094l-0.004 0.034c-0.594 0.172-1.104 0.479-1.512 0.888l-0 0zM18.168 16.992h-9.168c-0.749-0.098-1.322-0.732-1.322-1.5s0.573-1.402 1.314-1.499l0.008-0.001c0 0 0 0 0 0 0.548 0 0.994-0.438 1.008-0.983l0-0.001c0.039-2.184 1.818-3.94 4.007-3.94 1.724 0 3.194 1.089 3.76 2.616l0.009 0.028c0.117 0.344 0.406 0.601 0.762 0.671l0.006 0.001c1.071 0.223 1.864 1.16 1.864 2.281 0 1.258-0.997 2.282-2.244 2.327l-0.004 0z"></path>
</svg>
