<svg xmlns="http://www.w3.org/2000/svg" width="24" height="24" viewBox="0 0 24 24">
    <path d="M4.992 10.992c0 0 0 0 0 0 0.548 0 0.994-0.438 1.008-0.983l0-0.001v-4.008c-0.078-0.486-0.494-0.853-0.996-0.853s-0.918 0.367-0.995 0.847l-0.001 0.006v4.008c0.013 0.538 0.446 0.971 0.983 0.984l0.001 0zM4.296 3.72c0.18 0.168 0.422 0.271 0.688 0.271 0.142 0 0.276-0.029 0.399-0.082l-0.007 0.003c0.129-0.048 0.24-0.113 0.338-0.194l-0.002 0.002c0.088-0.095 0.161-0.206 0.213-0.329l0.003-0.007c0.046-0.101 0.073-0.219 0.073-0.343 0-0.015-0-0.029-0.001-0.043l0 0.002c0-0.004 0-0.009 0-0.014 0-0.275-0.11-0.524-0.288-0.706l0 0c-0.18-0.168-0.422-0.271-0.688-0.271-0.142 0-0.276 0.029-0.399 0.082l0.007-0.003c-0.13 0.045-0.241 0.11-0.337 0.193l0.001-0.001c-0.178 0.182-0.288 0.431-0.288 0.706 0 0.005 0 0.010 0 0.015v-0.001c-0 0.003-0 0.006-0 0.010 0 0.135 0.026 0.263 0.074 0.381l-0.002-0.007c0.055 0.13 0.128 0.241 0.217 0.337l-0.001-0.001zM16.992 6h-7.992c-0.486 0.078-0.853 0.494-0.853 0.996s0.367 0.918 0.847 0.995l0.006 0.001h7.992c0.557 0 1.008 0.451 1.008 1.008v0 9.72l-1.56-1.44c-0.179-0.176-0.425-0.285-0.695-0.288h-8.737c-0 0-0 0-0 0-0.548 0-0.994-0.438-1.008-0.983l-0-0.001v-2.016c-0.078-0.486-0.494-0.853-0.996-0.853s-0.918 0.367-0.995 0.847l-0.001 0.006v2.016c0 1.657 1.343 3 3 3v0h8.352l3 2.712c0.168 0.166 0.394 0.273 0.645 0.288l0.003 0c0.141-0.009 0.272-0.044 0.391-0.099l-0.007 0.003c0.353-0.159 0.596-0.507 0.6-0.911v-12.001c0-1.657-1.343-3-3-3v0z"></path>
</svg>
