<svg xmlns="http://www.w3.org/2000/svg" width="24" height="24" viewBox="0 0 24 24">
    <path d="M6.768 9.144l5.448-5.424c0.186-0.183 0.302-0.438 0.302-0.72 0-0.558-0.452-1.010-1.010-1.010-0.276 0-0.526 0.111-0.708 0.29l0-0-4.752 4.728-1.848-1.848c-0.182-0.179-0.432-0.29-0.708-0.29-0.558 0-1.010 0.452-1.010 1.010 0 0.282 0.115 0.537 0.302 0.72l0 0 2.568 2.544c0.182 0.18 0.432 0.291 0.708 0.291s0.526-0.111 0.708-0.291l-0 0zM18.504 6h-5.496c-0.486 0.078-0.853 0.494-0.853 0.996s0.367 0.918 0.847 0.995l0.006 0.001h5.496c0.546 0.013 0.984 0.459 0.984 1.008 0 0 0 0 0 0v-0 9.72l-1.56-1.44c-0.174-0.171-0.409-0.279-0.67-0.288l-0.002-0h-8.76c-0 0-0 0-0 0-0.548 0-0.994-0.438-1.008-0.983l-0-0.001v-3.504c-0.078-0.486-0.494-0.853-0.996-0.853s-0.918 0.367-0.995 0.847l-0.001 0.006v3.504c0 1.657 1.343 3 3 3v0h8.376l3 2.712c0.174 0.171 0.409 0.279 0.67 0.288l0.002 0c0.149-0.006 0.288-0.041 0.415-0.099l-0.007 0.003c0.353-0.159 0.596-0.507 0.6-0.911v-12.001c0-0 0-0 0-0 0-1.657-1.343-3-3-3-0.017 0-0.034 0-0.051 0l0.003-0z"></path>
</svg>
