<svg xmlns="http://www.w3.org/2000/svg" width="24" height="24" viewBox="0 0 24 24">
    <path d="M19.008 13.992c-0.075-0.020-0.161-0.031-0.249-0.031-0.465 0-0.857 0.315-0.973 0.744l-0.002 0.007c-0.797 3.059-3.535 5.28-6.792 5.28-0 0-0 0-0 0h-5.592l0.648-0.624c0.18-0.182 0.291-0.432 0.291-0.708s-0.111-0.526-0.291-0.708l0 0c-1.267-1.268-2.051-3.019-2.051-4.954 0-3.243 2.203-5.972 5.194-6.771l0.049-0.011c0.386-0.147 0.654-0.514 0.654-0.944 0-0.557-0.451-1.008-1.008-1.008-0.045 0-0.088 0.003-0.132 0.009l0.005-0.001c-3.907 1.039-6.739 4.544-6.739 8.711 0 2.143 0.749 4.112 2 5.658l-0.013-0.017-1.728 1.656c-0.172 0.181-0.278 0.426-0.278 0.696 0 0.148 0.032 0.288 0.089 0.415l-0.003-0.006c0.152 0.363 0.502 0.616 0.911 0.624l0.001 0h7.992c0.005 0 0.011 0 0.017 0 4.178 0 7.69-2.846 8.705-6.705l0.014-0.063c0.024-0.081 0.037-0.175 0.037-0.272 0-0.468-0.318-0.861-0.75-0.975l-0.007-0.002zM20.544 3.456c-0.903-0.902-2.15-1.46-3.528-1.46-2.757 0-4.992 2.235-4.992 4.992s2.235 4.992 4.992 4.992c2.75 0 4.98-2.223 4.992-4.971v-0.001c0-0.006 0-0.013 0-0.020 0-1.379-0.56-2.628-1.464-3.532l-0-0zM13.992 7.008c0-1.657 1.343-3 3-3v0c0.004-0 0.009-0 0.013-0 0.466 0 0.907 0.106 1.301 0.296l-0.018-0.008-4.008 4.008c-0.182-0.375-0.288-0.817-0.288-1.283 0-0.005 0-0.009 0-0.014v0.001zM19.128 9.12c-0.551 0.53-1.301 0.856-2.127 0.856-0.464 0-0.905-0.103-1.3-0.288l0.019 0.008 4.008-4.008c0.168 0.362 0.265 0.786 0.265 1.233 0 0.030-0 0.061-0.001 0.091l0-0.004c0 0.002 0 0.004 0 0.005 0 0.821-0.33 1.565-0.864 2.107l0-0z"></path>
</svg>
