<svg xmlns="http://www.w3.org/2000/svg" width="24" height="24" viewBox="0 0 24 24">
    <path d="M12 1.992c-5.527 0-10.008 4.481-10.008 10.008s4.481 10.008 10.008 10.008c5.527 0 10.008-4.481 10.008-10.008v0c0-5.527-4.481-10.008-10.008-10.008v0zM12 19.992c-4.414 0-7.992-3.578-7.992-7.992v0c-0-0.006-0-0.012-0-0.019 0-1.847 0.633-3.547 1.693-4.894l-0.013 0.017 2.352 2.376c-0.030 0.158-0.047 0.341-0.048 0.527v3.985c0 1.657 1.343 3 3 3v0h2.016c0.713-0.005 1.365-0.258 1.877-0.676l-0.005 0.004 2.016 1.992c-1.33 1.047-3.030 1.68-4.877 1.68-0.007 0-0.013 0-0.020-0h0.001zM10.008 13.992v-2.592l3.456 3.48c-0.13 0.075-0.286 0.12-0.452 0.12-0.001 0-0.003 0-0.004 0h-2.016c-0.546-0.013-0.984-0.459-0.984-1.008 0-0 0-0 0-0v0zM18.312 16.896l-2.304-2.376c0.007-0.079 0.011-0.171 0.011-0.264s-0.004-0.185-0.012-0.276l0.001 0.012c-0.013-0.546-0.459-0.984-1.008-0.984-0 0-0 0-0 0h0c-0.001 0-0.002 0-0.004 0-0.166 0-0.322 0.045-0.457 0.122l0.004-0.002-4.008-4.008c0.13-0.075 0.286-0.12 0.452-0.12 0.001 0 0.003 0 0.004 0h2.016c0.546 0.013 0.984 0.459 0.984 1.008 0 0 0 0 0 0v-0c0 0.557 0.451 1.008 1.008 1.008s1.008-0.451 1.008-1.008v0c0-1.657-1.343-3-3-3v0h-2.016c-0.713 0.005-1.365 0.258-1.877 0.676l0.005-0.004-2.016-1.992c1.33-1.047 3.030-1.68 4.877-1.68 0.007 0 0.013 0 0.020 0h-0.001c4.414 0 7.992 3.578 7.992 7.992v0c0 0.006 0 0.012 0 0.019 0 1.847-0.633 3.547-1.693 4.894l0.013-0.017z"></path>
</svg>
