<svg xmlns="http://www.w3.org/2000/svg" width="24" height="24" viewBox="0 0 24 24">
    <path d="M10.992 6h-3.984c-0.486 0.078-0.853 0.494-0.853 0.996s0.367 0.918 0.847 0.995l0.006 0.001h3.984c0.486-0.078 0.853-0.494 0.853-0.996s-0.367-0.918-0.847-0.995l-0.006-0.001zM19.008 1.992h-14.016c-1.657 0-3 1.343-3 3v0 14.016c0 1.657 1.343 3 3 3v0h14.016c1.657 0 3-1.343 3-3v0-14.016c0-1.657-1.343-3-3-3v0zM4.008 18.6v-13.608c0.013-0.538 0.446-0.971 0.983-0.984l0.001-0h13.608zM19.992 19.008c-0.013 0.538-0.446 0.971-0.983 0.984l-0.001 0h-13.608l14.592-14.592zM13.008 16.992h0.984v1.008c0 0.557 0.451 1.008 1.008 1.008s1.008-0.451 1.008-1.008v0-1.008h0.984c0.486-0.078 0.853-0.494 0.853-0.996s-0.367-0.918-0.847-0.995l-0.006-0.001h-0.984v-1.008c0-0.557-0.451-1.008-1.008-1.008s-1.008 0.451-1.008 1.008v0 1.008h-0.984c-0.486 0.078-0.853 0.494-0.853 0.996s0.367 0.918 0.847 0.995l0.006 0.001z"></path>
</svg>
