<svg xmlns="http://www.w3.org/2000/svg" width="24" height="24" viewBox="0 0 24 24">
    <path d="M12 1.992c-0.107-0.004-0.234-0.007-0.36-0.007-5.328 0-9.648 4.32-9.648 9.648 0 0.019 0 0.038 0 0.058l-0-0.003c-0.001 0.041-0.001 0.089-0.001 0.137 0 2.8 1.21 5.316 3.137 7.056l0.008 0.007c0.151 0.139 0.25 0.333 0.264 0.55l0 0.002v1.776c0.013 0.44 0.373 0.793 0.816 0.793 0.122 0 0.238-0.027 0.341-0.075l-0.005 0.002 1.992-0.888c0.078-0.031 0.169-0.048 0.264-0.048s0.186 0.018 0.269 0.050l-0.005-0.002c0.864 0.244 1.855 0.384 2.88 0.384 0.008 0 0.017 0 0.025-0h-0.001c0.004 0 0.008 0 0.012 0 5.368 0 9.72-4.352 9.72-9.72 0-5.364-4.345-9.713-9.707-9.72h-0.001zM18 9.456l-2.928 4.656c-0.273 0.421-0.741 0.696-1.273 0.696-0.333 0-0.642-0.108-0.892-0.291l0.004 0.003-2.352-1.752c-0.099-0.075-0.224-0.12-0.36-0.12s-0.261 0.045-0.361 0.121l0.002-0.001-3.168 2.4c-0.069 0.040-0.151 0.064-0.239 0.064-0.265 0-0.48-0.215-0.48-0.48 0-0.076 0.017-0.147 0.049-0.211l-0.001 0.003 2.928-4.656c0.272-0.428 0.743-0.708 1.28-0.708 0.341 0 0.655 0.113 0.908 0.303l-0.004-0.003 2.328 1.752c0.099 0.075 0.224 0.12 0.36 0.12s0.261-0.045 0.361-0.121l-0.002 0.001 3.168-2.4c0.069-0.040 0.151-0.064 0.239-0.064 0.265 0 0.48 0.215 0.48 0.48 0 0.076-0.017 0.147-0.049 0.211l0.001-0.003z"></path>
</svg>
