<svg xmlns="http://www.w3.org/2000/svg" width="24" height="24" viewBox="0 0 24 24">
    <path d="M22.008 10.944c-0.017-0.1-0.042-0.188-0.075-0.273l0.003 0.009v-0.096c-0.051-0.111-0.115-0.206-0.193-0.289l0.001 0.001-6-6c-0.076-0.075-0.163-0.139-0.258-0.189l-0.006-0.003h-0.096c-0.098-0.051-0.212-0.086-0.333-0.096l-0.003-0h-4.392c-0.486 0.078-0.853 0.494-0.853 0.996s0.367 0.918 0.847 0.995l0.006 0.001h3.336v3c0 1.657 1.343 3 3 3v0h3v3.336c0 0.557 0.451 1.008 1.008 1.008s1.008-0.451 1.008-1.008v0-4.392zM16.992 10.008c-0.546-0.013-0.984-0.459-0.984-1.008 0-0 0-0 0-0v0-1.584l2.592 2.592zM3.72 2.28c-0.184-0.184-0.439-0.298-0.72-0.298-0.562 0-1.018 0.456-1.018 1.018 0 0.281 0.114 0.536 0.298 0.72v0l0.912 0.888c-0.732 0.553-1.2 1.422-1.2 2.4v0 9.984c0 1.657 1.343 3 3 3v0h13.608l1.68 1.728c0.183 0.187 0.438 0.303 0.72 0.303s0.537-0.116 0.72-0.302l0-0c0.187-0.183 0.303-0.438 0.303-0.72s-0.116-0.537-0.302-0.72l-0-0zM4.992 18c-0.546-0.013-0.984-0.459-0.984-1.008 0-0 0-0 0-0v0-9.984c0.002-0.425 0.268-0.788 0.641-0.934l0.007-0.002 11.928 11.928z"></path>
</svg>
