<svg xmlns="http://www.w3.org/2000/svg" width="24" height="24" viewBox="0 0 24 24">
    <path d="M10.512 19.992h-5.016c-0.538-0.013-0.971-0.446-0.984-0.983l-0-0.001v-14.016c0.013-0.538 0.446-0.971 0.983-0.984l0.001-0h5.016v3c0 1.657 1.343 3 3 3v0h3c0.078 0.486 0.494 0.853 0.996 0.853s0.918-0.367 0.995-0.847l0.001-0.006v-1.080c-0.017-0.1-0.042-0.188-0.075-0.273l0.003 0.009v-0.096c-0.053-0.101-0.117-0.188-0.192-0.264l-6-6c-0.076-0.075-0.163-0.139-0.258-0.189l-0.006-0.003c-0.014-0.002-0.031-0.004-0.048-0.004s-0.034 0.001-0.050 0.004l0.002-0-0.312-0.12h-6.072c-1.657 0-3 1.343-3 3v0 14.016c0 1.657 1.343 3 3 3v0h5.016c0.557 0 1.008-0.451 1.008-1.008s-0.451-1.008-1.008-1.008v0zM12.504 5.4l2.592 2.592h-1.584c-0 0-0 0-0 0-0.548 0-0.994-0.438-1.008-0.983l-0-0.001zM7.512 7.992c-0.557 0-1.008 0.451-1.008 1.008s0.451 1.008 1.008 1.008v0h0.984c0.557 0 1.008-0.451 1.008-1.008s-0.451-1.008-1.008-1.008v0zM21.12 13.848c-0.17-0.134-0.387-0.216-0.623-0.216-0.077 0-0.152 0.009-0.224 0.025l0.007-0.001c-0.173 0.039-0.372 0.061-0.576 0.061-0.604 0-1.162-0.194-1.616-0.522l0.008 0.006c-0.163-0.118-0.367-0.189-0.588-0.189s-0.425 0.071-0.591 0.191l0.003-0.002c-0.449 0.325-1.011 0.519-1.619 0.519-0.209 0-0.412-0.023-0.608-0.067l0.019 0.003c-0.058-0.012-0.124-0.018-0.192-0.018-0.557 0-1.008 0.451-1.008 1.008 0 0.006 0 0.013 0 0.019l-0-0.001v2.328c-0 0.007-0 0.016-0 0.024 0 1.494 0.711 2.822 1.813 3.664l0.011 0.008 1.56 1.104c0.165 0.124 0.374 0.198 0.6 0.198s0.435-0.074 0.603-0.2l-0.003 0.002 1.56-1.152c1.116-0.841 1.834-2.159 1.848-3.646l0-0.002v-2.352c0-0 0-0 0-0 0-0.32-0.149-0.605-0.382-0.79l-0.002-0.002zM19.512 16.992c0 0.007 0 0.016 0 0.024 0 0.836-0.392 1.58-1.002 2.059l-0.006 0.004-1.008 0.72-0.984-0.72c-0.616-0.483-1.008-1.228-1.008-2.064 0-0.009 0-0.017 0-0.026v0.001-1.272c0.735-0.036 1.416-0.236 2.016-0.564l-0.024 0.012c0.583 0.319 1.273 0.52 2.006 0.552l0.010 0zM10.512 16.056h-3c-0.486 0.078-0.853 0.494-0.853 0.996s0.367 0.918 0.847 0.995l0.006 0.001h3c0.486-0.078 0.853-0.494 0.853-0.996s-0.367-0.918-0.847-0.995l-0.006-0.001zM11.496 12.048h-3.984c-0.486 0.078-0.853 0.494-0.853 0.996s0.367 0.918 0.847 0.995l0.006 0.001h3.984c0.486-0.078 0.853-0.494 0.853-0.996s-0.367-0.918-0.847-0.995l-0.006-0.001z"></path>
</svg>
