<svg xmlns="http://www.w3.org/2000/svg" width="24" height="24" viewBox="0 0 24 24">
    <path d="M19.992 13.176v-0.168c0-0.008 0-0.017 0-0.027 0-2.248-0.928-4.279-2.422-5.731l-0.002-0.002c-0.866-0.841-1.929-1.486-3.112-1.857l-0.056-0.015h-0.048c-0.743-0.244-1.599-0.385-2.487-0.385-0.037 0-0.074 0-0.111 0.001l0.006-0c-4.329 0.248-7.746 3.816-7.752 8.183v0.001c-1.18 0.421-2.010 1.53-2.010 2.832 0 1.655 1.34 2.997 2.994 3h14.016c1.654-0.003 2.994-1.345 2.994-3 0-1.302-0.83-2.411-1.989-2.825l-0.021-0.007zM19.008 16.992h-14.016c-0.486-0.078-0.853-0.494-0.853-0.996s0.367-0.918 0.847-0.995l0.006-0.001h2.016c0.486-0.078 0.853-0.494 0.853-0.996s-0.367-0.918-0.847-0.995l-0.006-0.001h-1.008c0.095-2.173 1.258-4.056 2.974-5.145l0.026-0.015v3.144c0.078 0.486 0.494 0.853 0.996 0.853s0.918-0.367 0.995-0.847l0.001-0.006v-3.912c0.245-0.037 0.535-0.063 0.829-0.072l0.011-0h0.168c0.357 0.001 0.706 0.036 1.043 0.102l-0.035-0.006v3.888c0.078 0.486 0.494 0.853 0.996 0.853s0.918-0.367 0.995-0.847l0.001-0.006v-3.168c0.445 0.259 0.83 0.545 1.181 0.868l-0.005-0.004c1.126 1.092 1.824 2.619 1.824 4.308 0 0.004 0 0.008-0 0.012v-0.001h-1.008c-0.486 0.078-0.853 0.494-0.853 0.996s0.367 0.918 0.847 0.995l0.006 0.001h2.016c0.486 0.078 0.853 0.494 0.853 0.996s-0.367 0.918-0.847 0.995l-0.006 0.001z"></path>
</svg>
