<svg xmlns="http://www.w3.org/2000/svg" width="24" height="24" viewBox="0 0 24 24">
    <path d="M13.224 1.992c-0.076-0.003-0.166-0.004-0.256-0.004-2.026 0-3.861 0.818-5.193 2.141l0-0c-1.406 1.356-2.28 3.256-2.28 5.36 0 0.006 0 0.011 0 0.017v-0.001 0.024l-1.896 4.056c-0.055 0.12-0.086 0.26-0.086 0.408 0 0.553 0.446 1.002 0.998 1.008h0.985v1.992c-0 0.007-0 0.016-0 0.024 0 1.1 0.892 1.992 1.992 1.992 0.008 0 0.017-0 0.025-0l-0.001 0h0.984v1.992c0 0.557 0.451 1.008 1.008 1.008s1.008-0.451 1.008-1.008v0-1.992c0.557 0 1.008-0.451 1.008-1.008s-0.451-1.008-1.008-1.008v0h-3v-3c-0.013-0.546-0.459-0.984-1.008-0.984-0 0-0 0-0 0h-0.432l1.344-2.856c0.061-0.124 0.096-0.27 0.096-0.425 0-0.011-0-0.022-0.001-0.033l0 0.002v-0.192c-0-0.014-0-0.031-0-0.048 0-1.534 0.634-2.92 1.655-3.911l0.001-0.001c0.99-0.952 2.339-1.539 3.824-1.539 0.065 0 0.129 0.001 0.193 0.003l-0.009-0c2.983 0.195 5.329 2.662 5.329 5.677 0 0.029-0 0.059-0.001 0.088l0-0.004-1.968 7.512c-0.022 0.079-0.035 0.17-0.035 0.264s0.013 0.185 0.037 0.271l-0.002-0.007 1.008 3.48c0.127 0.418 0.508 0.717 0.96 0.72h0c0.096-0.005 0.186-0.022 0.271-0.050l-0.007 0.002c0.428-0.123 0.735-0.511 0.735-0.97 0-0.099-0.014-0.194-0.041-0.285l0.002 0.007-0.936-3.192 1.944-7.272c0.015-0.067 0.024-0.143 0.024-0.222 0-0.006-0-0.013-0-0.019l0 0.001v-0.24c0-0.025 0-0.055 0-0.084 0-4.103-3.207-7.457-7.252-7.691l-0.021-0.001z"></path>
</svg>
