<svg xmlns="http://www.w3.org/2000/svg" width="24" height="24" viewBox="0 0 24 24">
    <path d="M14.472 14.88c-0.125 0.014-0.27 0.021-0.416 0.021-0.643 0-1.251-0.15-1.791-0.416l0.024 0.011c-0.304-0.249-0.503-0.615-0.528-1.028l-0-0.004c0-0 0-0.001 0-0.001 0-0.119-0.097-0.216-0.216-0.216-0.008 0-0.017 0-0.025 0.001l0.001-0c-0.139-0.001-0.303-0.002-0.468-0.002s-0.329 0.001-0.493 0.003l0.025-0c-0.008-0.001-0.016-0.001-0.025-0.001-0.111 0-0.203 0.084-0.215 0.193l-0 0.001c-0.002 0.035-0.003 0.076-0.003 0.117 0 0.686 0.297 1.303 0.769 1.729l0.002 0.002c0.606 0.478 1.367 0.786 2.196 0.839l0.012 0.001c0.269 0.032 0.581 0.050 0.897 0.050 0.583 0 1.152-0.062 1.7-0.18l-0.053 0.010c0.664-0.121 1.239-0.438 1.679-0.887l0.001-0.001c0.321-0.396 0.515-0.906 0.515-1.461 0-0.276-0.048-0.541-0.137-0.787l0.005 0.016c-0.219-0.536-0.663-0.94-1.211-1.101l-0.013-0.003c-1.272-0.456-2.664-0.408-3.96-0.744-0.24-0.072-0.504-0.168-0.624-0.408-0.025-0.077-0.040-0.166-0.040-0.259 0-0.274 0.127-0.518 0.326-0.676l0.002-0.001c0.366-0.212 0.805-0.338 1.273-0.338 0.033 0 0.067 0.001 0.1 0.002l-0.005-0c0.114-0.011 0.247-0.018 0.382-0.018 0.536 0 1.049 0.104 1.518 0.292l-0.027-0.010c0.359 0.21 0.615 0.561 0.695 0.975l0.001 0.009c0 0 0 0.001 0 0.001 0 0.124 0.094 0.226 0.215 0.239l0.001 0c0.312 0 0.624 0 0.936 0 0.010 0.002 0.022 0.002 0.034 0.002 0.108 0 0.199-0.071 0.229-0.169l0-0.002c0-0.006 0-0.013 0-0.020 0-0.888-0.477-1.664-1.189-2.086l-0.011-0.006c-0.717-0.335-1.557-0.531-2.442-0.531-0.273 0-0.541 0.019-0.804 0.055l0.031-0.003c-0.841 0.030-1.601 0.352-2.188 0.867l0.004-0.003c-0.357 0.387-0.576 0.907-0.576 1.477 0 0.28 0.053 0.548 0.149 0.793l-0.005-0.015c0.23 0.522 0.67 0.915 1.21 1.077l0.014 0.003c1.272 0.456 2.688 0.312 3.96 0.72 0.264 0.072 0.552 0.216 0.624 0.48 0.021 0.076 0.034 0.164 0.034 0.255 0 0.276-0.114 0.526-0.297 0.705l-0 0c-0.444 0.277-0.983 0.442-1.56 0.442-0.084 0-0.168-0.004-0.251-0.010l0.011 0.001zM20.304 6.432q-3.744-2.112-7.488-4.224c-0.235-0.133-0.516-0.211-0.816-0.211s-0.581 0.078-0.824 0.216l0.008-0.004-7.464 4.224c-0.469 0.263-0.783 0.754-0.792 1.319l-0 0.001v8.496c0.015 0.583 0.348 1.085 0.832 1.34l0.008 0.004c0.696 0.384 1.392 0.816 2.136 1.176 0.417 0.226 0.913 0.359 1.44 0.359 0.47 0 0.916-0.106 1.314-0.295l-0.019 0.008c0.597-0.385 0.987-1.048 0.987-1.801 0-0.042-0.001-0.084-0.004-0.125l0 0.006c0-2.784 0-5.592 0-8.376 0.004-0.015 0.006-0.031 0.006-0.049 0-0.113-0.086-0.205-0.197-0.215l-0.001-0c-0.143-0.002-0.311-0.003-0.48-0.003s-0.337 0.001-0.506 0.003l0.026-0c-0.007-0.001-0.016-0.001-0.024-0.001-0.119 0-0.216 0.097-0.216 0.216 0 0 0 0.001 0 0.001v-0c0 2.784 0 5.544 0 8.328 0 0.004 0 0.009 0 0.014 0 0.396-0.246 0.735-0.594 0.871l-0.006 0.002c-0.131 0.040-0.281 0.063-0.437 0.063-0.3 0-0.581-0.086-0.817-0.235l0.006 0.004-1.968-1.104c-0.086-0.038-0.145-0.122-0.145-0.22 0-0.007 0-0.014 0.001-0.021l-0 0.001v-8.4c-0-0.005-0.001-0.012-0.001-0.018 0-0.111 0.069-0.207 0.167-0.246l0.002-0.001q3.696-2.088 7.416-4.176c0.041-0.027 0.090-0.043 0.144-0.043s0.103 0.016 0.145 0.043l-0.001-0.001 7.44 4.176c0.087 0.044 0.145 0.133 0.145 0.236 0 0.010-0.001 0.020-0.002 0.029l0-0.001v8.4c0.001 0.006 0.001 0.013 0.001 0.020 0 0.098-0.059 0.183-0.143 0.22l-0.002 0.001q-3.648 2.064-7.296 4.128c-0.12 0.048-0.264 0.168-0.408 0.096-0.624-0.384-1.272-0.744-1.896-1.104-0.037-0.031-0.085-0.050-0.138-0.050-0.037 0-0.073 0.010-0.103 0.026l0.001-0.001c-0.252 0.149-0.545 0.287-0.852 0.397l-0.036 0.011c-0.12 0.048-0.288 0.072-0.384 0.192 0.119 0.13 0.263 0.235 0.424 0.309l0.008 0.003 2.232 1.296c0.246 0.157 0.547 0.25 0.869 0.25 0.289 0 0.56-0.075 0.796-0.207l-0.008 0.004q3.72-2.088 7.44-4.2c0.492-0.259 0.825-0.761 0.84-1.342l0-0.002v-8.496c-0.004-0.562-0.309-1.051-0.761-1.316l-0.007-0.004z"></path>
</svg>
