<svg xmlns="http://www.w3.org/2000/svg" width="24" height="24" viewBox="0 0 24 24">
    <path d="M20.016 3h-4.992c-0.486 0.078-0.853 0.494-0.853 0.996s0.367 0.918 0.847 0.995l0.006 0.001h1.488v6h-4.944c0.639-0.821 1.026-1.865 1.032-2.999v-0.001c0-0.011 0-0.024 0-0.037 0-2.757-2.235-4.992-4.992-4.992-1.853 0-3.47 1.009-4.331 2.508l-0.013 0.024c-0.129 0.168-0.207 0.381-0.207 0.612 0 0.557 0.451 1.008 1.008 1.008 0.414 0 0.769-0.249 0.924-0.605l0.003-0.006c0.527-0.91 1.496-1.512 2.605-1.512 1.657 0 3 1.343 3 3 0 1.653-1.337 2.994-2.988 3h-0.001c-0.557 0-1.008 0.451-1.008 1.008s0.451 1.008 1.008 1.008v0c1.652 0.006 2.989 1.347 2.989 3 0 1.657-1.343 3-3 3-1.109 0-2.078-0.602-2.597-1.498l-0.008-0.014c-0.186-0.242-0.476-0.396-0.801-0.396-0.557 0-1.008 0.451-1.008 1.008 0 0.143 0.030 0.279 0.084 0.403l-0.003-0.006c0.874 1.523 2.491 2.533 4.344 2.533 2.757 0 4.992-2.235 4.992-4.992 0-0.013-0-0.026-0-0.039l0 0.002c-0.006-1.135-0.393-2.179-1.040-3.011l0.008 0.011h4.944v6.984c0 0.557 0.451 1.008 1.008 1.008s1.008-0.451 1.008-1.008v0-15h1.488c0.486-0.078 0.853-0.494 0.853-0.996s-0.367-0.918-0.847-0.995l-0.006-0.001z"></path>
</svg>
