<svg xmlns="http://www.w3.org/2000/svg" width="24" height="24" viewBox="0 0 24 24">
    <path d="M20.472 1.992h-16.944c-0.007-0-0.016-0-0.024-0-0.795 0-1.44 0.645-1.44 1.44 0 0 0 0 0 0v0 17.136c0 0 0 0 0 0 0 0.795 0.645 1.44 1.44 1.44 0.008 0 0.017-0 0.025-0l-0.001 0h16.944c0.007 0 0.016 0 0.024 0 0.795 0 1.44-0.645 1.44-1.44 0-0 0-0 0-0v0-17.136c0-0 0-0 0-0 0-0.795-0.645-1.44-1.44-1.44-0.008 0-0.017 0-0.025 0l0.001-0zM8.088 18.744h-3v-9h3zM6.6 8.472c-0.862 0-1.56-0.698-1.56-1.56s0.698-1.56 1.56-1.56v0c0.862 0 1.56 0.698 1.56 1.56s-0.698 1.56-1.56 1.56v0zM18.912 18.744h-3v-4.824c0-1.224-0.432-2.016-1.512-2.016-0.716 0.001-1.326 0.456-1.556 1.092l-0.004 0.012c-0.063 0.185-0.099 0.398-0.099 0.619 0 0.036 0.001 0.071 0.003 0.106l-0-0.005v4.992h-3v-9h3v1.272c0.53-0.898 1.492-1.49 2.592-1.49 0.042 0 0.084 0.001 0.125 0.003l-0.006-0c2.016 0 3.456 1.296 3.456 4.056z"></path>
</svg>
