<svg xmlns="http://www.w3.org/2000/svg" width="24" height="24" viewBox="0 0 24 24">
    <path d="M10.632 5.496c0.407-0.099 0.874-0.155 1.355-0.155 3.314 0 6 2.686 6 6 0 0.481-0.057 0.948-0.163 1.396l0.008-0.041c-0.016 0.066-0.024 0.143-0.024 0.221 0 0.472 0.324 0.868 0.762 0.978l0.007 0.001c0.036 0.005 0.078 0.008 0.12 0.008s0.084-0.003 0.125-0.008l-0.005 0.001c0.001 0 0.003 0 0.005 0 0.472 0 0.867-0.324 0.978-0.761l0.001-0.007c0.133-0.546 0.209-1.173 0.209-1.817 0-4.414-3.578-7.992-7.992-7.992-0.645 0-1.271 0.076-1.872 0.22l0.054-0.011c-0.458 0.108-0.794 0.513-0.794 0.996 0 0.564 0.457 1.022 1.022 1.022 0.081 0 0.159-0.009 0.235-0.027l-0.007 0.001zM21.72 20.064l-18-18c-0.183-0.187-0.438-0.303-0.72-0.303s-0.537 0.116-0.72 0.302l-0 0c-0.18 0.182-0.291 0.432-0.291 0.708s0.111 0.526 0.291 0.708l3.216 3.216c-0.934 1.291-1.494 2.906-1.494 4.652 0 2.203 0.892 4.198 2.334 5.644l-0-0 4.944 4.968c0.183 0.187 0.438 0.303 0.72 0.303s0.537-0.116 0.72-0.302l0-0 3.984-4.008 3.576 3.552c0.17 0.136 0.388 0.218 0.626 0.218 0.557 0 1.008-0.451 1.008-1.008 0-0.237-0.082-0.456-0.219-0.628l0.002 0.002zM12.12 13.32c-0.039 0.003-0.085 0.004-0.131 0.004-0.549 0-1.045-0.222-1.405-0.58l0 0c-0.359-0.36-0.58-0.857-0.58-1.405 0-0.046 0.002-0.092 0.005-0.137l-0 0.006zM12 19.8l-4.248-4.224c-1.079-1.085-1.746-2.58-1.746-4.231 0-1.19 0.347-2.3 0.944-3.233l-0.014 0.024 1.464 1.464c-0.25 0.508-0.396 1.105-0.396 1.736 0 1.102 0.444 2.099 1.164 2.824l-0-0c0.725 0.726 1.726 1.175 2.832 1.176h0c0.63-0.003 1.224-0.153 1.751-0.418l-0.023 0.010 1.584 1.56z"></path>
</svg>
