<svg xmlns="http://www.w3.org/2000/svg" width="24" height="24" viewBox="0 0 24 24">
    <path d="M16.008 1.992c-1.657 0-3 1.343-3 3v0 14.016c0 1.657 1.343 3 3 3s3-1.343 3-3v0-14.016c0-1.657-1.343-3-3-3v0zM16.992 19.008c-0.078 0.486-0.494 0.853-0.996 0.853s-0.918-0.367-0.995-0.847l-0.001-0.006v-14.016c0.078-0.486 0.494-0.853 0.996-0.853s0.918 0.367 0.995 0.847l0.001 0.006zM7.992 1.992c-1.657 0-3 1.343-3 3v0 14.016c0 1.657 1.343 3 3 3s3-1.343 3-3v0-14.016c0-1.657-1.343-3-3-3v0zM9 19.008c-0.078 0.486-0.494 0.853-0.996 0.853s-0.918-0.367-0.995-0.847l-0.001-0.006v-14.016c0.078-0.486 0.494-0.853 0.996-0.853s0.918 0.367 0.995 0.847l0.001 0.006z"></path>
</svg>
