<svg xmlns="http://www.w3.org/2000/svg" width="24" height="24" viewBox="0 0 24 24">
    <path d="M7.752 10.752c1.657 0 3-1.343 3-3s-1.343-3-3-3c-1.657 0-3 1.343-3 3v0c0 1.657 1.343 3 3 3v0zM7.752 6.768c0.007-0 0.015-0 0.024-0 0.557 0 1.008 0.451 1.008 1.008s-0.451 1.008-1.008 1.008c-0.557 0-1.008-0.451-1.008-1.008 0-0.008 0-0.017 0-0.025l-0 0.001c0.013-0.538 0.446-0.971 0.983-0.984l0.001-0zM16.248 13.248c-1.657 0-3 1.343-3 3s1.343 3 3 3c1.657 0 3-1.343 3-3v0c0-1.657-1.343-3-3-3v0zM16.248 17.232c-0.007 0-0.015 0-0.024 0-0.557 0-1.008-0.451-1.008-1.008s0.451-1.008 1.008-1.008c0.557 0 1.008 0.451 1.008 1.008 0 0.008-0 0.017-0 0.025l0-0.001c-0.013 0.538-0.446 0.971-0.983 0.984l-0.001 0zM19.704 4.296c-0.182-0.18-0.432-0.291-0.708-0.291s-0.526 0.111-0.708 0.291l-13.992 13.992c-0.234 0.186-0.382 0.471-0.382 0.79 0 0.557 0.451 1.008 1.008 1.008 0.319 0 0.604-0.148 0.789-0.38l0.002-0.002 13.992-13.992c0.18-0.182 0.291-0.432 0.291-0.708s-0.111-0.526-0.291-0.708l0 0z"></path>
</svg>
