<svg xmlns="http://www.w3.org/2000/svg" width="24" height="24" viewBox="0 0 24 24">
    <path d="M10.296 11.712c0.182 0.18 0.432 0.291 0.708 0.291s0.526-0.111 0.708-0.291l4.008-4.008c0.179-0.182 0.29-0.432 0.29-0.708 0-0.558-0.452-1.010-1.010-1.010-0.282 0-0.537 0.115-0.72 0.302l-0 0-3.288 3.312-1.272-1.32c-0.184-0.184-0.439-0.298-0.72-0.298-0.562 0-1.018 0.456-1.018 1.018 0 0.281 0.114 0.536 0.298 0.72v0zM21 13.992h-1.008v-9.984h1.008c0.557 0 1.008-0.451 1.008-1.008s-0.451-1.008-1.008-1.008v0h-18c-0.557 0-1.008 0.451-1.008 1.008s0.451 1.008 1.008 1.008v0h1.008v9.984h-1.008c-0.557 0-1.008 0.451-1.008 1.008s0.451 1.008 1.008 1.008v0h7.992v1.152l-4.536 3c-0.273 0.183-0.451 0.491-0.451 0.84 0 0.555 0.448 1.005 1.003 1.008h0c0.005 0 0.011 0 0.017 0 0.2 0 0.386-0.063 0.538-0.17l-0.003 0.002 3.432-2.28v1.44c0 0.557 0.451 1.008 1.008 1.008s1.008-0.451 1.008-1.008v0-1.44l3.432 2.28c0.149 0.105 0.335 0.168 0.535 0.168 0.006 0 0.012-0 0.018-0l-0.001 0c0.554-0.003 1.003-0.453 1.003-1.008 0-0.349-0.178-0.657-0.447-0.838l-0.004-0.002-4.536-3v-1.152h7.992c0.557 0 1.008-0.451 1.008-1.008s-0.451-1.008-1.008-1.008v0zM18 13.992h-12v-9.984h12z"></path>
</svg>
