<svg xmlns="http://www.w3.org/2000/svg" width="24" height="24" viewBox="0 0 24 24">
    <path d="M9 10.992c0.557-0 1.008-0.451 1.008-1.008s-0.451-1.008-1.008-1.008-1.008 0.451-1.008 1.008c0 0.008 0 0.017 0 0.025l-0-0.001c0.013 0.546 0.459 0.984 1.008 0.984 0 0 0 0 0 0h-0zM15 10.992c0.557-0 1.008-0.451 1.008-1.008s-0.451-1.008-1.008-1.008-1.008 0.451-1.008 1.008c0 0.008 0 0.017 0 0.025l-0-0.001c0.013 0.546 0.459 0.984 1.008 0.984 0 0 0 0 0 0h-0zM15.264 14.208c-0.165-0.124-0.374-0.198-0.6-0.198s-0.435 0.074-0.603 0.2l0.003-0.002-0.744 0.552-0.72-0.552c-0.165-0.124-0.374-0.198-0.6-0.198s-0.435 0.074-0.603 0.2l0.003-0.002-0.72 0.552-0.744-0.552c-0.165-0.124-0.374-0.198-0.6-0.198s-0.435 0.074-0.603 0.2l0.003-0.002-1.344 0.984c-0.294 0.18-0.487 0.499-0.487 0.863 0 0.557 0.451 1.008 1.008 1.008 0.262 0 0.5-0.1 0.679-0.263l-0.001 0.001 0.744-0.552 0.744 0.552 0.12 0.048c0.062 0.040 0.134 0.072 0.21 0.095l0.006 0.001h0.12c0.036 0.005 0.078 0.007 0.12 0.007s0.084-0.003 0.125-0.008l-0.005 0h0.096c0.137-0.035 0.258-0.093 0.363-0.17l-0.003 0.002 0.72-0.552 0.72 0.552c0.167 0.127 0.378 0.203 0.607 0.203 0.145 0 0.283-0.031 0.407-0.086l-0.006 0.003 0.096-0.048c0.046-0.018 0.086-0.042 0.12-0.072l-0 0 0.744-0.552 0.72 0.552c0.164 0.12 0.369 0.192 0.592 0.192 0.003 0 0.006-0 0.009-0h-0c0 0 0 0 0 0 0.32 0 0.605-0.149 0.79-0.382l0.002-0.002c0.129-0.168 0.207-0.381 0.207-0.612 0-0.327-0.156-0.618-0.397-0.802l-0.002-0.002zM12 1.992c-5.527 0-10.008 4.481-10.008 10.008s4.481 10.008 10.008 10.008c5.527 0 10.008-4.481 10.008-10.008v0c0-5.527-4.481-10.008-10.008-10.008v0zM12 19.992c-4.414 0-7.992-3.578-7.992-7.992s3.578-7.992 7.992-7.992c4.414 0 7.992 3.578 7.992 7.992v0c0 4.414-3.578 7.992-7.992 7.992v0z"></path>
</svg>
