<svg xmlns="http://www.w3.org/2000/svg" width="24" height="24" viewBox="0 0 24 24">
    <path d="M21.048 12.288c-0.001-1.564-0.634-2.981-1.656-4.008l0 0-5.4-5.472c-0.511-0.506-1.215-0.819-1.992-0.819s-1.481 0.313-1.992 0.819l0-0-5.4 5.424c-1.022 1.027-1.655 2.444-1.656 4.008v0c-0 0.014-0 0.031-0 0.048 0 3.155 2.557 5.712 5.712 5.712 0 0 0 0 0 0v0c-0.267 0.912-0.687 1.704-1.235 2.39l0.011-0.014c-0.135 0.17-0.216 0.387-0.216 0.624 0 0.557 0.451 1.008 1.008 1.008 0 0 0 0 0 0h7.536c0.547-0.013 0.985-0.459 0.985-1.008 0-0.237-0.082-0.454-0.218-0.626l0.002 0.002c-0.538-0.671-0.958-1.464-1.212-2.328l-0.012-0.048c0.021 0 0.047 0 0.072 0 3.141 0 5.688-2.547 5.688-5.688 0-0.009-0-0.017-0-0.026v0.001zM18 14.904c-0.681 0.676-1.619 1.093-2.654 1.093-0.354 0-0.696-0.049-1.020-0.14l0.027 0.006c-0.029-0.003-0.062-0.005-0.096-0.005s-0.067 0.002-0.1 0.005l0.004-0h-0.192c-0.082 0.012-0.155 0.029-0.226 0.051l0.010-0.003h-0.144c-0.055 0.035-0.102 0.074-0.144 0.119l-0 0.001c-0.064 0.041-0.12 0.088-0.167 0.143l-0.001 0.001c-0.015 0.037-0.031 0.069-0.049 0.099l0.001-0.003c-0.038 0.064-0.078 0.143-0.114 0.224l-0.006 0.016c-0.002 0.025-0.003 0.054-0.003 0.084s0.001 0.059 0.003 0.088l-0-0.004v0.192c0.085 1.148 0.377 2.209 0.839 3.173l-0.023-0.053h-3.888c0.453-0.871 0.768-1.887 0.885-2.962l0.003-0.038v-0.192c0.002-0.025 0.003-0.054 0.003-0.084s-0.001-0.059-0.003-0.088l0 0.004c-0.041-0.092-0.089-0.171-0.146-0.242l0.002 0.002c-0.014-0.037-0.030-0.068-0.049-0.098l0.001 0.002c-0.046-0.058-0.102-0.107-0.165-0.143l-0.003-0.001c-0.038-0.043-0.077-0.082-0.119-0.119l-0.001-0.001h-0.144c-0.070-0.033-0.15-0.058-0.235-0.071l-0.005-0.001h-0.168c-0.029-0.003-0.062-0.004-0.096-0.004s-0.067 0.002-0.1 0.005l0.004-0c-0.289 0.078-0.62 0.123-0.962 0.123-1.084 0-2.062-0.452-2.757-1.178l-0.001-0.001c-0.664-0.672-1.076-1.596-1.080-2.615v-0.001c-0-0.009-0-0.019-0-0.029 0-1.019 0.413-1.942 1.080-2.611l-0 0 5.4-5.424c0.146-0.14 0.345-0.226 0.564-0.226s0.418 0.086 0.564 0.227l-0-0 5.472 5.424c0.667 0.669 1.080 1.592 1.080 2.611 0 0.010-0 0.020-0 0.031v-0.002c-0.007 1.020-0.418 1.942-1.081 2.617l0.001-0.001z"></path>
</svg>
