<svg xmlns="http://www.w3.org/2000/svg" width="24" height="24" viewBox="0 0 24 24">
    <path d="M19.008 6.504h-3v-1.008c0-1.657-1.343-3-3-3v0h-2.016c-1.657 0-3 1.343-3 3v0 1.008h-3c-1.657 0-3 1.343-3 3v0 9c0 1.657 1.343 3 3 3v0h14.016c1.657 0 3-1.343 3-3v0-9c0-1.657-1.343-3-3-3v0zM10.008 5.496c0-0 0-0 0-0 0-0.548 0.438-0.994 0.983-1.008l0.001-0h2.016c0.546 0.013 0.984 0.459 0.984 1.008 0 0 0 0 0 0v-0 1.008h-3.984zM19.992 18.504c-0.013 0.538-0.446 0.971-0.983 0.984l-0.001 0h-14.016c-0.538-0.013-0.971-0.446-0.984-0.983l-0-0.001v-5.064h3v1.056c0.078 0.486 0.494 0.853 0.996 0.853s0.918-0.367 0.995-0.847l0.001-0.006v-1.056h6v1.056c0.078 0.486 0.494 0.853 0.996 0.853s0.918-0.367 0.995-0.847l0.001-0.006v-1.056h3zM19.992 11.496h-15.984v-1.992c0-0 0-0 0-0 0-0.548 0.438-0.994 0.983-1.008l0.001-0h14.016c0.546 0.013 0.984 0.459 0.984 1.008 0 0 0 0 0 0v-0z"></path>
</svg>
