<svg xmlns="http://www.w3.org/2000/svg" width="24" height="24" viewBox="0 0 24 24">
    <path d="M9 10.008c-0 0-0 0-0 0-0.548 0-0.994 0.438-1.008 0.983l-0 0.001v2.016c0 0.557 0.451 1.008 1.008 1.008s1.008-0.451 1.008-1.008v0-2.016c-0.013-0.546-0.459-0.984-1.008-0.984-0 0-0 0-0 0h0zM21 10.992c0 0 0 0 0 0 0.548 0 0.994-0.438 1.008-0.983l0-0.001v-4.008c0-0.557-0.451-1.008-1.008-1.008v0h-18c-0.557 0-1.008 0.451-1.008 1.008v0 4.008c0.013 0.546 0.459 0.984 1.008 0.984 0 0 0 0 0 0h-0c0.557 0 1.008 0.451 1.008 1.008s-0.451 1.008-1.008 1.008v0c-0 0-0 0-0 0-0.548 0-0.994 0.438-1.008 0.983l-0 0.001v4.008c0 0.557 0.451 1.008 1.008 1.008v0h18c0.557 0 1.008-0.451 1.008-1.008v0-4.008c-0.013-0.546-0.459-0.984-1.008-0.984-0 0-0 0-0 0h0c-0.557 0-1.008-0.451-1.008-1.008s0.451-1.008 1.008-1.008v0zM19.992 9.168c-1.163 0.431-1.976 1.53-1.976 2.82s0.814 2.389 1.956 2.813l0.021 0.007v2.184h-9.984c0-0.557-0.451-1.008-1.008-1.008s-1.008 0.451-1.008 1.008v0h-3.984v-2.184c1.163-0.431 1.976-1.53 1.976-2.82s-0.814-2.389-1.956-2.813l-0.021-0.007v-2.16h3.984c0 0.557 0.451 1.008 1.008 1.008s1.008-0.451 1.008-1.008v0h9.984z"></path>
</svg>
