<svg xmlns="http://www.w3.org/2000/svg" width="24" height="24" viewBox="0 0 24 24">
    <path d="M19.992 4.008h-15.984c-1.657 0-3 1.343-3 3v0 9.984c0 1.657 1.343 3 3 3v0h15.984c1.657 0 3-1.343 3-3v0-9.984c0-1.657-1.343-3-3-3v0zM21 16.992c0 0.557-0.451 1.008-1.008 1.008v0h-15.984c-0.557 0-1.008-0.451-1.008-1.008v0-9.984c0-0.557 0.451-1.008 1.008-1.008v0h15.984c0.557 0 1.008 0.451 1.008 1.008v0zM16.008 9c-0.002 0-0.004 0-0.006 0-1.657 0-3 1.343-3 3 0 0.361 0.064 0.708 0.181 1.029l-0.007-0.021h-2.352c0.11-0.3 0.174-0.647 0.174-1.008 0-1.657-1.343-3-3-3s-3 1.343-3 3c0 1.655 1.339 2.996 2.993 3h8.016c1.657 0 3-1.343 3-3s-1.343-3-3-3v0zM7.992 13.008c-0.557 0-1.008-0.451-1.008-1.008s0.451-1.008 1.008-1.008c0.557 0 1.008 0.451 1.008 1.008v0c0 0.557-0.451 1.008-1.008 1.008v0zM16.008 13.008c-0.007 0-0.016 0-0.024 0-0.557 0-1.008-0.451-1.008-1.008s0.451-1.008 1.008-1.008c0.557 0 1.008 0.451 1.008 1.008v0c0 0 0 0 0 0 0 0.548-0.438 0.994-0.983 1.008l-0.001 0z"></path>
</svg>
