<svg xmlns="http://www.w3.org/2000/svg" width="24" height="24" viewBox="0 0 24 24">
    <path fill-rule="evenodd" d="M19,14H17a2.652,2.652,0,0,0-3,3v2a2.652,2.652,0,0,0,3,3h2a2.652,2.652,0,0,0,3-3V17A2.652,2.652,0,0,0,19,14Zm.6,3.52-1.66,1.67a.524.524,0,0,1-.36.14.5.5,0,0,1-.35-.14l-.83-.84a.495.495,0,0,1,.7-.7l.48.48,1.32-1.32a.5.5,0,0,1,.7,0A.5.5,0,0,1,19.6,17.52ZM17.475,3.576A.75.75,0,0,1,18.525,2.5l2,1.96a.75.75,0,0,1-1.05,1.072ZM4.53,3.53l-2,2A.75.75,0,0,1,1.47,4.47l2-2A.75.75,0,0,1,4.53,3.53ZM17,12.5h1.667S19,12.479,19,12A8,8,0,1,0,6.4,18.537L4.469,20.47a.75.75,0,0,0,1.062,1.06L7.75,19.306A7.954,7.954,0,0,0,11,20a8.158,8.158,0,0,0,1.227-.092c.316-.1.273-.446.273-.908V17A4.133,4.133,0,0,1,17,12.5Zm-5.25-.46a.75.75,0,0,1-1.5,0v-4a.75.75,0,0,1,1.5,0Z"/>
</svg>