<svg xmlns="http://www.w3.org/2000/svg" width="24" height="24" viewBox="0 0 24 24">
    <path d="m16.541,12.012c0,.076-.139,2.459,2.459,3.693-.486,1.479-2.152,4.766-4.089,4.794-1.12,0-1.777-.719-3.045-.719-1.307,0-2.016.695-3.021.719-1.921.06-3.762-3.556-4.272-5.031-.383-1.123-.574-2.21-.574-3.263,0-3.564,2.363-5.317,4.587-5.353,1.076,0,2.447.792,3.045.792.566,0,2.112-.944,3.527-.832,1.494.117,2.626.711,3.375,1.792-1.339.82-2.001,1.933-1.993,3.408h0Zm-2.232-6.599c1.097-1.302.997-2.488.964-2.913-.968.056-2.09.659-2.729,1.402-.703.796-1.117,1.78-1.029,2.889,1.049.08,2.005-.458,2.793-1.378Z"/>
</svg>