<svg xmlns="http://www.w3.org/2000/svg" width="24" height="24" viewBox="0 0 24 24">
    <path d="M17.625,3H6.375Q3,3,3,6.375v11.25Q3,21,6.375,21h11.25Q21,21,21,17.625V6.375Q21,3,17.625,3ZM6.47,10.532a.736.736,0,0,1-.162-.241.749.749,0,0,1,0-.578.736.736,0,0,1,.162-.241L8.137,7.805A.75.75,0,0,1,9.2,8.865l-.386.387H15a.75.75,0,0,1,0,1.5H8.811l.386.386A.75.75,0,0,1,8.137,12.2Zm11.222,3.755a.736.736,0,0,1-.162.241L15.863,16.2a.75.75,0,0,1-1.06-1.061l.386-.386H9a.75.75,0,0,1,0-1.5h6.189l-.386-.386a.75.75,0,1,1,1.06-1.061l1.667,1.667a.736.736,0,0,1,.162.241.749.749,0,0,1,0,.578Z"/>
</svg>