<svg xmlns="http://www.w3.org/2000/svg" width="24" height="24" viewBox="0 0 24 24">
    <path d="M20.391,17.688A.5.5,0,0,1,20,18.5H10a.5.5,0,0,1-.354-.854l8-8A.5.5,0,0,1,18.5,10v2.5A9.449,9.449,0,0,0,20.391,17.688ZM21.53,2.47a.749.749,0,0,0-1.06,0L17.459,5.481A6.5,6.5,0,0,0,5.5,9v3.5a9.527,9.527,0,0,1-1.89,5.19.507.507,0,0,0-.06.53A.5.5,0,0,0,4,18.5h.441L2.47,20.47a.75.75,0,1,0,1.06,1.06l18-18A.749.749,0,0,0,21.53,2.47ZM13.73,19.5H10.27a.5.5,0,0,0-.432.752,2.5,2.5,0,0,0,4.324,0,.5.5,0,0,0-.432-.752Z"/>
</svg>