<svg xmlns="http://www.w3.org/2000/svg" width="24" height="24" viewBox="0 0 24 24">
    <path d="M9.48,11.15a4.285,4.285,0,0,0,.77.24v9.52a2.64,2.64,0,0,1-.47-.17l-6-2.67A3,3,0,0,1,2,15.33V8.67a2.955,2.955,0,0,1,.11-.79Zm9.65-4.59a2.909,2.909,0,0,0-.91-.63l-6-2.67a2.966,2.966,0,0,0-2.44,0l-6,2.67a2.909,2.909,0,0,0-.91.63l7.21,3.21a2.268,2.268,0,0,0,1.84,0Zm-6.571,9.616A5.531,5.531,0,0,1,17.794,11.5a5.4,5.4,0,0,1,1.81.235.3.3,0,0,0,.4-.279V8.67a2.955,2.955,0,0,0-.11-.79l-7.37,3.27a5.275,5.275,0,0,1-.77.24v9.52l.038.024,1.4-.631a.3.3,0,0,0,.125-.434A5.446,5.446,0,0,1,12.559,16.176ZM22,17a4,4,0,1,1-4-4A4,4,0,0,1,22,17Zm-2.25,0a.5.5,0,0,0-.5-.5H18.5v-.75a.5.5,0,0,0-1,0v.75h-.75a.5.5,0,0,0-.5.5.5.5,0,0,0,.5.5h.75v.75a.5.5,0,0,0,1,0V17.5h.75A.5.5,0,0,0,19.75,17Z"/>
</svg>