<svg xmlns="http://www.w3.org/2000/svg" width="24" height="24" viewBox="0 0 24 24">
    <path d="M22,20.25h-.5V11a1.727,1.727,0,0,0-1.678-1.986.3.3,0,0,0-.322.3V20.25H18V6a2.652,2.652,0,0,0-3-3H9A2.652,2.652,0,0,0,6,6V20.25H4.5V9.318a.3.3,0,0,0-.322-.3A1.727,1.727,0,0,0,2.5,11v9.25H2a.75.75,0,0,0,0,1.5H22a.75.75,0,0,0,0-1.5ZM9.5,6.25h1a.75.75,0,0,1,0,1.5h-1a.75.75,0,0,1,0-1.5Zm0,3h1a.75.75,0,0,1,0,1.5h-1a.75.75,0,0,1,0-1.5ZM8.75,13a.75.75,0,0,1,.75-.75h1a.75.75,0,0,1,0,1.5h-1A.75.75,0,0,1,8.75,13ZM14,20.25H10V18a2,2,0,0,1,4,0Zm.5-6.5h-1a.75.75,0,0,1,0-1.5h1a.75.75,0,0,1,0,1.5Zm0-3h-1a.75.75,0,0,1,0-1.5h1a.75.75,0,0,1,0,1.5Zm0-3h-1a.75.75,0,0,1,0-1.5h1a.75.75,0,0,1,0,1.5Z"/>
</svg>