<svg xmlns="http://www.w3.org/2000/svg" width="24" height="24" viewBox="0 0 24 24">
    <path d="M12.51,17.74a5.58,5.58,0,0,1,5.232-5.23,5.478,5.478,0,0,1,1.868.23.3.3,0,0,0,.39-.28V9.05a.3.3,0,0,0-.3-.3H2.3a.3.3,0,0,0-.3.3V17a2.652,2.652,0,0,0,3,3h7.46a.3.3,0,0,0,.28-.39A5.493,5.493,0,0,1,12.51,17.74ZM7.02,17a1,1,0,0,1-.01-2h.01a1,1,0,0,1,0,2Zm0-4a1,1,0,0,1-.01-2h.01a1,1,0,0,1,0,2Zm4,0a1,1,0,0,1-.01-2h.01a1,1,0,0,1,0,2ZM2,6.95V6.5a2.652,2.652,0,0,1,3-3H6.25V2a.75.75,0,0,1,1.5,0V3.5h6.5V2a.75.75,0,0,1,1.5,0V3.5H17a2.652,2.652,0,0,1,3,3v.45a.3.3,0,0,1-.3.3H2.3A.3.3,0,0,1,2,6.95ZM18,14a4,4,0,1,0,4,4A4,4,0,0,0,18,14Zm1.425,5.424a.5.5,0,0,1-.707,0l-1.072-1.07A.5.5,0,0,1,17.5,18V16.5a.5.5,0,0,1,1,0v1.293l.925.924A.5.5,0,0,1,19.425,19.424Z"/>
</svg>