<svg xmlns="http://www.w3.org/2000/svg" width="24" height="24" viewBox="0 0 24 24">
    <path d="M20.7,9.75H3.3a.3.3,0,0,0-.3.3V18a2.652,2.652,0,0,0,3,3H18a2.652,2.652,0,0,0,3-3V10.05A.3.3,0,0,0,20.7,9.75Zm-10.369,9H8.25v-2.08l3.71-3.73,2.1,2.1ZM15.5,13.6l-.739.74-2.1-2.1.739-.74a.837.837,0,0,1,1.181-.01l.93.93A.835.835,0,0,1,15.5,13.6ZM21,7.5v.45a.3.3,0,0,1-.3.3H3.3a.3.3,0,0,1-.3-.3V7.5a2.652,2.652,0,0,1,3-3H7.25V3a.75.75,0,0,1,1.5,0V4.5h6.5V3a.75.75,0,0,1,1.5,0V4.5H18A2.652,2.652,0,0,1,21,7.5Z"/>
</svg>