<svg xmlns="http://www.w3.org/2000/svg" width="24" height="24" viewBox="0 0 24 24">
    <path d="M20.75,21a.755.755,0,0,1-.75.75H14.75A.755.755,0,0,1,14,21V17a2,2,0,0,0-4,0v4a.755.755,0,0,1-.75.75H4a.75.75,0,0,1,0-1.5H5.07l.57-6.3.2-2.177a.3.3,0,0,1,.3-.273H17.866a.3.3,0,0,1,.3.273l.2,2.177.57,6.3H20A.755.755,0,0,1,20.75,21ZM6,10H18a2,2,0,0,0,2-2V3.5a.5.5,0,0,0-.5-.5h-2a.5.5,0,0,0-.5.5V5a1.5,1.5,0,0,1-3,0V3.5a.5.5,0,0,0-.5-.5h-3a.5.5,0,0,0-.5.5V5A1.5,1.5,0,0,1,7,5V3.5A.5.5,0,0,0,6.5,3h-2a.5.5,0,0,0-.5.5V8A2,2,0,0,0,6,10Z"/>
</svg>