<svg xmlns="http://www.w3.org/2000/svg" width="24" height="24" viewBox="0 0 24 24">
    <path d="M21,21H4.5A2.32,2.32,0,0,1,2,18.5V4A1,1,0,0,1,4,4V18.5c0,.449.051.5.5.5H21a1,1,0,0,1,0,2Zm-7-5V12a1,1,0,0,0-2,0v4a1,1,0,0,0,2,0Zm4,1a1,1,0,0,1-1-1V10a1,1,0,0,1,2,0v6A1,1,0,0,1,18,17ZM8,17a1,1,0,0,1-1-1V14a1,1,0,0,1,2,0v2A1,1,0,0,1,8,17ZM18.923,3.618A1,1,0,0,0,18,3H15a1,1,0,0,0,0,2h.586L13.668,6.918a.263.263,0,0,1-.361,0l-1.15-1.15a2.256,2.256,0,0,0-3.189,0L7.293,7.443A1,1,0,1,0,8.707,8.857l1.675-1.675a.258.258,0,0,1,.361,0l1.15,1.15a2.258,2.258,0,0,0,3.189,0L17,6.414V7a1,1,0,0,0,2,0V4A1.01,1.01,0,0,0,18.923,3.618Z"/>
</svg>