<svg xmlns="http://www.w3.org/2000/svg" width="24" height="24" viewBox="0 0 24 24">
    <path d="m12,2C6.477,2,2,6.477,2,12s4.477,10,10,10,10-4.477,10-10S17.523,2,12,2Zm-5.065,8.709c-.391-.135-.599-.562-.464-.954.311-.9,1.162-1.505,2.119-1.505s1.809.605,2.119,1.505c.135.392-.073.818-.464.954-.081.028-.164.041-.245.041-.312,0-.602-.195-.709-.505-.101-.291-.389-.495-.701-.495s-.601.204-.701.495c-.135.392-.562.601-.954.464Zm9.662,3.745c-.253.333-.54.63-.847.895v2.651c0,.414-.336.75-.75.75s-.75-.336-.75-.75v-1.717c-.164.07-.33.133-.5.187v.53c0,.414-.336.75-.75.75s-.75-.336-.75-.75v-.264c-.083.004-.166.014-.25.014-1.791,0-3.507-.859-4.59-2.299-.249-.331-.183-.801.148-1.05.336-.251.803-.182,1.051.148.801,1.065,2.068,1.701,3.391,1.701,1.339,0,2.58-.621,3.403-1.704.251-.329.721-.394,1.051-.143.329.251.394.721.143,1.051Zm.469-3.745c-.081.028-.164.041-.245.041-.312,0-.602-.195-.709-.505-.101-.291-.389-.495-.701-.495s-.601.204-.701.495c-.135.392-.562.601-.954.464-.391-.135-.599-.562-.464-.954.311-.9,1.162-1.505,2.119-1.505s1.809.605,2.119,1.505c.135.392-.073.818-.464.954Z"/>
</svg>