<svg xmlns="http://www.w3.org/2000/svg" width="24" height="24" viewBox="0 0 24 24">
    <path d="M20.75,17a.75.75,0,0,1-.75.75H17.75V20a.75.75,0,0,1-1.5,0V17.75H14a.75.75,0,0,1,0-1.5h2.25V14a.75.75,0,0,1,1.5,0v2.25H20A.75.75,0,0,1,20.75,17ZM18.5,4h-3A1.326,1.326,0,0,0,14,5.5v3A1.326,1.326,0,0,0,15.5,10h3A1.326,1.326,0,0,0,20,8.5v-3A1.326,1.326,0,0,0,18.5,4ZM8.5,4h-3A1.326,1.326,0,0,0,4,5.5v3A1.326,1.326,0,0,0,5.5,10h3A1.326,1.326,0,0,0,10,8.5v-3A1.326,1.326,0,0,0,8.5,4Zm0,10h-3A1.326,1.326,0,0,0,4,15.5v3A1.326,1.326,0,0,0,5.5,20h3A1.326,1.326,0,0,0,10,18.5v-3A1.326,1.326,0,0,0,8.5,14Z"/>
</svg>