<svg xmlns="http://www.w3.org/2000/svg" width="24" height="24" viewBox="0 0 24 24">
    <path d="M20.27,9.063,13.589,3.569a2.5,2.5,0,0,0-3.178,0L3.73,9.062a2,2,0,0,0-.7,1.9l1.455,7.982A2.5,2.5,0,0,0,6.947,21H17.053a2.5,2.5,0,0,0,2.46-2.052l1.455-7.982A2,2,0,0,0,20.27,9.063ZM12,17.5a1,1,0,1,1,1-1A1,1,0,0,1,12,17.5Zm2.847-2.785a.75.75,0,0,1-1.051.143,3.04,3.04,0,0,0-3.592,0A.75.75,0,0,1,9.3,13.664a4.564,4.564,0,0,1,5.408,0A.75.75,0,0,1,14.847,14.715Zm2.221-2.059a.748.748,0,0,1-1.057.079,6.159,6.159,0,0,0-8.022,0A.75.75,0,0,1,7.011,11.6a7.658,7.658,0,0,1,9.978,0A.75.75,0,0,1,17.068,12.656Z"/>
</svg>