<svg xmlns="http://www.w3.org/2000/svg" width="24" height="24" viewBox="0 0 24 24">
    <path d="M21.477,9.085l-7.413-6.1a3.258,3.258,0,0,0-4.128,0l-7.413,6.1a.75.75,0,1,0,.954,1.158L4.5,9.4V18c0,2.29,1.21,3.5,3.5,3.5h8c2.29,0,3.5-1.21,3.5-3.5V9.4l1.023.841a.75.75,0,1,0,.954-1.158ZM13.85,16.7a2.2,2.2,0,0,1-1.1.609V17.5a.75.75,0,0,1-1.5,0v-.2A2.236,2.236,0,0,1,9.514,15.36a.75.75,0,0,1,.663-.828A.758.758,0,0,1,11,15.2a.734.734,0,0,0,.721.666h.55a.7.7,0,0,0,.506-.215.756.756,0,0,0-.333-1.26l-1.266-.319a2.252,2.252,0,0,1,.068-4.374V9.5a.75.75,0,0,1,1.5,0v.2a2.235,2.235,0,0,1,1.736,1.945.75.75,0,0,1-.663.828A.758.758,0,0,1,13,11.805a.734.734,0,0,0-.721-.666h-.55a.737.737,0,0,0-.725.748.749.749,0,0,0,.152.459.733.733,0,0,0,.4.268l1.266.319A2.255,2.255,0,0,1,13.85,16.7Z"/>
</svg>