<svg xmlns="http://www.w3.org/2000/svg" width="24" height="24" viewBox="0 0 24 24">
    <path d="M17.625,3H6.375Q3,3,3,6.375v11.25Q3,21,6.375,21h11.25Q21,21,21,17.625V6.375Q21,3,17.625,3ZM9,15.95a.3.3,0,0,1-.3.3H8.04a.79.79,0,0,1-.79-.79v-3.7a.792.792,0,0,1,.79-.79H8.7a.3.3,0,0,1,.3.3ZM16.619,12l-1.06,3.17a1.3,1.3,0,0,1-1.5,1.08H10.3a.3.3,0,0,1-.3-.3V10.688a.3.3,0,0,1,.015-.094L11.1,7.29a.837.837,0,0,1,.789-.54.778.778,0,0,1,.46.14,1.579,1.579,0,0,1,.7,1.32V9.92h2.07C16.7,9.92,16.959,10.98,16.619,12Z"/>
</svg>