<svg xmlns="http://www.w3.org/2000/svg" width="24" height="24" viewBox="0 0 24 24">
    <path d="m12.019,21c-.212,0-.398-.14-.456-.344l-.74-2.581c-.67-2.367-2.522-4.215-4.89-4.879l-2.588-.74c-.252-.071-.398-.333-.326-.585.045-.158.168-.281.326-.326l2.588-.738c2.369-.665,4.221-2.514,4.891-4.881l.74-2.581c.072-.252.335-.398.587-.326.158.045.281.168.326.326l.74,2.581c.67,2.367,2.522,4.215,4.89,4.879l2.588.738c.252.103.372.39.269.642-.05.122-.147.219-.269.269l-2.588.738c-2.369.666-4.221,2.515-4.89,4.883l-.74,2.583c-.059.203-.245.342-.457.342Zm-6.176-.103l.225-.775c.202-.709.757-1.263,1.468-1.462l.777-.221c.076-.032.111-.119.08-.194-.015-.036-.044-.065-.08-.08l-.777-.221c-.71-.199-1.266-.753-1.468-1.462l-.225-.775c-.022-.076-.102-.119-.178-.096-.046.014-.083.05-.096.096l-.222.775c-.202.709-.758,1.263-1.468,1.462l-.777.221c-.076.021-.12.1-.098.176.013.048.051.085.098.098l.777.221c.71.199,1.266.753,1.468,1.462l.222.775c.022.076.102.119.178.096.046-.014.083-.05.096-.096Zm13.455-14.372l.147-.516c.134-.472.504-.841.977-.974l.517-.147c.05-.021.074-.079.052-.13-.01-.024-.029-.042-.052-.052l-.517-.147c-.473-.133-.842-.501-.977-.974l-.147-.516c-.015-.05-.068-.079-.118-.064-.031.009-.055.033-.064.064l-.147.516c-.134.472-.504.841-.977.974l-.517.147c-.05.015-.079.068-.064.118.009.031.033.055.064.064l.517.147c.473.133.842.501.977.974l.147.516c.015.05.068.079.118.064.031-.009.055-.033.064-.064Z"/>
</svg>