<svg xmlns="http://www.w3.org/2000/svg" width="24" height="24" viewBox="0 0 24 24">
    <path d="M19.75,21a.75.75,0,0,1-.75.75H6a.75.75,0,0,1,0-1.5h5.75v-.517A6.739,6.739,0,0,1,6.411,16.75H5a.75.75,0,0,1,0-1.5h5a.75.75,0,0,1,0,1.5H8.335a5.243,5.243,0,1,0,7.014-7.783l-2.69,2.69a1.738,1.738,0,0,1-1.216.593,1.74,1.74,0,0,1-1.216-.593L9.111,10.542a1.538,1.538,0,0,1,0-2.433l4.766-4.766A1.493,1.493,0,0,1,15.9,3.016a.731.731,0,0,1,.2-.407.749.749,0,0,1,1.06,0l1,1a.749.749,0,0,1,0,1.06.724.724,0,0,1-.408.2,1.5,1.5,0,0,1,.268.81,1.743,1.743,0,0,1-.594,1.216L16.411,7.905A6.736,6.736,0,0,1,13.25,19.629v.621H19A.75.75,0,0,1,19.75,21ZM8.514,12.907a.781.781,0,0,0,1.258,0l.113-.113a.149.149,0,0,0-.007-.219L8.2,10.891a.151.151,0,0,0-.22-.007L7.863,11a.782.782,0,0,0,0,1.259Z"/>
</svg>