<svg xmlns="http://www.w3.org/2000/svg" width="24" height="24" viewBox="0 0 24 24">
    <path d="M21,17.032a1.526,1.526,0,0,1-.03.3,4.527,4.527,0,0,1-5.6,3.51,17.317,17.317,0,0,1-5.255-2.451.305.305,0,0,1-.039-.465l2.045-2.045a.292.292,0,0,1,.354-.046,11.245,11.245,0,0,0,1.275.627l1.12-1.67a2.052,2.052,0,0,1,2.751-.62l2.65,1.58A1.528,1.528,0,0,1,21,17.032ZM21.53,2.47a.749.749,0,0,0-1.06,0L9.533,13.407a11.543,11.543,0,0,1-1.994-3.176l1.66-1.1a2.046,2.046,0,0,0,.63-2.75l-1.56-2.64a1.5,1.5,0,0,0-1.591-.71h-.01a4.535,4.535,0,0,0-3.51,5.6A17.445,17.445,0,0,0,7.135,15.8L2.47,20.47a.75.75,0,1,0,1.06,1.06l18-18A.749.749,0,0,0,21.53,2.47Z"/>
</svg>