<svg xmlns="http://www.w3.org/2000/svg" width="24" height="24" viewBox="0 0 24 24">
    <path d="M17.625,14.174l2.642,1.576a1.5,1.5,0,0,1,.7,1.583h0a4.526,4.526,0,0,1-5.6,3.508A17.44,17.44,0,0,1,3.159,8.635a4.526,4.526,0,0,1,3.507-5.6l.016,0a1.5,1.5,0,0,1,1.587.707l1.564,2.64A2.051,2.051,0,0,1,9.2,9.128L7.543,10.233a11.6,11.6,0,0,0,6.211,6.226l1.115-1.665A2.052,2.052,0,0,1,17.625,14.174ZM20.53,3.47a.749.749,0,0,0-1.06,0L15.75,7.189V5.667a.75.75,0,0,0-1.5,0V9a.753.753,0,0,0,.75.75h3.333a.75.75,0,0,0,0-1.5H16.811L20.53,4.53A.749.749,0,0,0,20.53,3.47Z"/>
</svg>