<svg xmlns="http://www.w3.org/2000/svg" width="24" height="24" viewBox="0 0 24 24">
    <path d="m16.343,19.144c.147.043.23.195.185.341h0c-.382,1.229-1.742,1.838-2.928,1.34-2.267-.951-4.389-2.35-6.233-4.193-1.843-1.843-3.242-3.966-4.193-6.234-.498-1.186.112-2.545,1.34-2.927h0c.146-.045.298.038.341.185.798,2.711,2.274,5.197,4.282,7.206,2.007,2.008,4.494,3.484,7.206,4.282Zm4.571-13.754s-3.212,10.271-3.795,12.11c-.05.157-.218.246-.376.199-2.463-.729-4.72-2.072-6.545-3.897-1.826-1.826-3.17-4.083-3.897-6.545-.047-.158.042-.326.199-.376,1.839-.583,12.11-3.795,12.11-3.795,1.417-.441,2.745.887,2.304,2.304Zm-8.645,3.61c0-.69-.56-1.25-1.25-1.25h-.01c-.69,0-1.245.56-1.245,1.25s.565,1.25,1.255,1.25,1.25-.56,1.25-1.25Zm3.75,4c0-.552-.447-1-1-1h-.01c-.552,0-.995.448-.995,1s.453,1,1.005,1,1-.448,1-1Zm.75-5c0-.414-.335-.75-.75-.75h-.01c-.414,0-.745.336-.745.75s.341.75.755.75.75-.336.75-.75Z"/>
</svg>