<svg xmlns="http://www.w3.org/2000/svg" width="24" height="24" viewBox="0 0 24 24">
    <path d="M21,2.25H3a.75.75,0,0,0,0,1.5H4V13c0,2.29,1.21,3.5,3.5,3.5h3.75v2.1L8.58,20.38a.749.749,0,0,0,.84,1.24L12,19.9l2.58,1.72a.741.741,0,0,0,.42.13.75.75,0,0,0,.42-1.37L12.75,18.6V16.5H16.5c2.29,0,3.5-1.21,3.5-3.5V3.75h1a.75.75,0,0,0,0-1.5ZM13.576,12.907a3.58,3.58,0,0,1-1.98.593,3.727,3.727,0,0,1-.769-.08,3.6,3.6,0,0,1-2.234-5.5,3.628,3.628,0,0,1,2.294-1.549.506.506,0,0,1,.42.106.523.523,0,0,1,.192.405V9.46a.541.541,0,0,0,.541.54h2.574a.523.523,0,0,1,.4.193.5.5,0,0,1,.106.421A3.628,3.628,0,0,1,13.576,12.907ZM15.868,8.99a.543.543,0,0,1-.409.186h-2.6a.538.538,0,0,1-.537-.537v-2.6a.54.54,0,0,1,.611-.536A3.606,3.606,0,0,1,16,8.565.537.537,0,0,1,15.868,8.99Z"/>
</svg>