<svg xmlns="http://www.w3.org/2000/svg" width="24" height="24" viewBox="0 0 24 24">
    <path d="M21,2.25H3a.75.75,0,0,0,0,1.5H4V13c0,2.29,1.21,3.5,3.5,3.5h3.75v2.1L8.58,20.38a.749.749,0,0,0,.84,1.24L12,19.9l2.58,1.72a.741.741,0,0,0,.42.13.75.75,0,0,0,.42-1.37L12.75,18.6V16.5H16.5c2.29,0,3.5-1.21,3.5-3.5V3.75h1a.75.75,0,0,0,0-1.5ZM13.85,12.7a2.2,2.2,0,0,1-1.1.609V13.5a.75.75,0,0,1-1.5,0v-.2A2.235,2.235,0,0,1,9.514,11.36.75.75,0,1,1,11,11.2a.734.734,0,0,0,.721.666h.55a.7.7,0,0,0,.506-.215.756.756,0,0,0-.333-1.26l-1.266-.319a2.252,2.252,0,0,1,.068-4.374V5.5a.75.75,0,0,1,1.5,0v.2A2.235,2.235,0,0,1,14.486,7.64a.75.75,0,0,1-.663.828A.758.758,0,0,1,13,7.805a.734.734,0,0,0-.721-.666h-.55A.737.737,0,0,0,11,7.887a.749.749,0,0,0,.152.459.733.733,0,0,0,.4.268l1.266.319A2.255,2.255,0,0,1,13.85,12.7Z"/>
</svg>