<svg xmlns="http://www.w3.org/2000/svg" width="24" height="24" viewBox="0 0 24 24">
    <path d="M17.625,3H6.375Q3,3,3,6.375v11.25Q3,21,6.375,21h11.25Q21,21,21,17.625V6.375Q21,3,17.625,3Zm-5.6,14.5a1,1,0,0,1-.01-2h.01a1,1,0,0,1,0,2ZM13.6,12.528c-.732.491-.868.764-.892.836a.752.752,0,0,1-.711.511.733.733,0,0,1-.238-.039.75.75,0,0,1-.473-.95,3.42,3.42,0,0,1,1.478-1.6,1.554,1.554,0,0,0,.846-1.68A1.668,1.668,0,0,0,12.3,8.277a1.617,1.617,0,0,0-1.349.354,1.666,1.666,0,0,0-.6,1.28.75.75,0,0,1-1.5,0,3.14,3.14,0,0,1,6.233-.565A3.079,3.079,0,0,1,13.6,12.528Z"/>
</svg>