<svg xmlns="http://www.w3.org/2000/svg" width="24" height="24" viewBox="0 0 24 24">
    <path d="m20.842,13.317l-2.565,5.13c-.169.339-.516.553-.894.553h-2.573c-.372,0-.613-.391-.447-.724l2.638-5.276h-2.5c-.828,0-1.5-.672-1.5-1.5v-5c0-.828.672-1.5,1.5-1.5h5c.828,0,1.5.672,1.5,1.5v6.146c0,.233-.054.463-.158.671Zm-9.842-.671v-6.146c0-.828-.672-1.5-1.5-1.5h-5c-.828,0-1.5.672-1.5,1.5v5c0,.828.672,1.5,1.5,1.5h2.5l-2.638,5.276c-.166.332.076.724.447.724h2.573c.379,0,.725-.214.894-.553l2.565-5.13c.104-.208.158-.438.158-.671Z"/>
</svg>