<svg xmlns="http://www.w3.org/2000/svg" width="24" height="24" viewBox="0 0 24 24">
    <path d="M23,12A11,11,0,0,1,1,12a11.4,11.4,0,0,1,.268-2.436,1,1,0,0,1,1.953.427A9.422,9.422,0,0,0,3,12a9,9,0,1,0,9-9A8.9,8.9,0,0,0,6.387,4.973l6.32,6.32a1,1,0,1,1-1.414,1.414L4.23,5.644h0v0h0a1.022,1.022,0,0,1-.059-.087.986.986,0,0,1-.16-.242.9.9,0,0,1-.034-.172.969.969,0,0,1-.04-.2,1.063,1.063,0,0,1,.039-.207,1.052,1.052,0,0,1,.033-.169,1.03,1.03,0,0,1,.122-.184.89.89,0,0,1,.1-.147h0A10.884,10.884,0,0,1,12,1,11.013,11.013,0,0,1,23,12Z"/>
</svg>