<svg xmlns="http://www.w3.org/2000/svg" width="24" height="24" viewBox="0 0 24 24">
    <path d="M21,9a2,2,0,0,1-2,2H5A2,2,0,0,1,5,7H6.728L9.377,2.612a.75.75,0,1,1,1.283.776L8.479,7H15.53L13.374,3.384a.75.75,0,0,1,1.289-.768L17.277,7H19A2,2,0,0,1,21,9Zm-1.624,3.33L18.77,18.3c-.14,1.53-.78,2.7-2.98,2.7H8.23c-2.24,0-2.83-1.17-2.99-2.7l-.616-5.969a.3.3,0,0,1,.3-.331H19.078A.3.3,0,0,1,19.376,12.33ZM10.77,14.5a.75.75,0,0,0-1.5,0v3a.75.75,0,0,0,1.5,0Zm4,0a.75.75,0,0,0-1.5,0v3a.75.75,0,0,0,1.5,0Z"/>
</svg>