<svg xmlns="http://www.w3.org/2000/svg" width="24" height="24" viewBox="0 0 24 24">
    <path d="m22,14.458c0,1.401-1.087,2.541-2.426,2.541h-7.574v-8.282c.665-.449,1.45-.717,2.302-.717,2.261,0,4.094,1.834,4.264,4.155,1.627-.783,3.434.476,3.434,2.303Zm-14.167-4.522c-.301.112-.577.274-.833.463v6.6h.833v-7.064Zm2.5,7.064h.833v-7.546c-.191.217-.369.448-.518.701l-.316-.151v6.996Zm-1.667,0h.833v-7.239c-.423-.065-.519-.041-.833-.008v7.247Zm-3.333,0h.833v-5.743c-.26.375-.462.794-.577,1.256l-.257-.149v4.636Zm-2.5-4.295c-.505.448-.833,1.108-.833,1.855s.328,1.408.833,1.855v-3.711Zm1.667-.571c-.252-.02-.438-.025-.833.1v4.654c.372.117.53.113.833.113v-4.867Z"/>
</svg>