<svg xmlns="http://www.w3.org/2000/svg" width="24" height="24" viewBox="0 0 24 24">
    <path d="m12,2C6.48,2,2,6.48,2,12s4.48,10,10,10,10-4.48,10-10S17.52,2,12,2Zm4.061,14.714c-.169,0-.274-.052-.432-.145-2.516-1.516-5.443-1.581-8.335-.988-.157.04-.363.105-.48.105-.391,0-.637-.31-.637-.637,0-.415.246-.613.548-.677,3.302-.73,6.677-.665,9.556,1.056.246.157.391.298.391.665s-.286.621-.613.621Zm1.085-2.645c-.21,0-.351-.093-.496-.169-2.52-1.492-6.278-2.093-9.621-1.185-.193.052-.298.105-.48.105-.431,0-.782-.351-.782-.782s.21-.718.625-.835c1.121-.315,2.266-.548,3.944-.548,2.617,0,5.145.649,7.137,1.835.327.194.456.444.456.794-.004.435-.343.786-.782.786Zm1.25-3.073c-.21,0-.339-.052-.52-.157-2.871-1.714-8.004-2.125-11.327-1.198-.145.04-.327.105-.52.105-.532,0-.94-.415-.94-.952,0-.548.339-.859.702-.964,1.419-.415,3.008-.613,4.738-.613,2.944,0,6.028.613,8.282,1.927.314.181.52.431.52.911,0,.548-.443.94-.935.94Z"/>
</svg>