<svg xmlns="http://www.w3.org/2000/svg" width="24" height="24" viewBox="0 0 24 24">
    <path d="M16.243,15.989a.775.775,0,0,0-.225.69l.577,3.347a.833.833,0,0,1-1.209.877L12.362,19.32a.785.785,0,0,0-.724,0L8.616,20.9a.835.835,0,0,1-1.21-.879l.576-3.344a.775.775,0,0,0-.225-.69l-2.52-2.446a.776.776,0,0,1,.431-1.326l3.486-.5a.78.78,0,0,0,.587-.425l1.511-3.047a.835.835,0,0,1,1.5,0l1.511,3.047a.78.78,0,0,0,.587.425l3.486.5a.776.776,0,0,1,.431,1.326ZM12,5.75A.75.75,0,0,0,12.75,5V3a.75.75,0,0,0-1.5,0V5A.75.75,0,0,0,12,5.75Zm6,4A.75.75,0,0,0,18.75,9V3a.75.75,0,0,0-1.5,0V9A.75.75,0,0,0,18,9.75Zm-12,0A.75.75,0,0,0,6.75,9V3a.75.75,0,0,0-1.5,0V9A.75.75,0,0,0,6,9.75Z"/>
</svg>