<svg xmlns="http://www.w3.org/2000/svg" width="24" height="24" viewBox="0 0 24 24">
    <path d="M7.25,3A.75.75,0,0,1,8,2.25h5a.75.75,0,0,1,0,1.5H8A.75.75,0,0,1,7.25,3ZM12.5,17v2a5.911,5.911,0,0,0,.154,1.379.3.3,0,0,1-.207.363A7.5,7.5,0,1,1,14.961,7.479L16.47,5.97a.75.75,0,0,1,1.06,1.06L16.07,8.49a7.489,7.489,0,0,1,1.8,3.654.308.308,0,0,1-.3.356H17A4.5,4.5,0,0,0,12.5,17Zm-1.25-7a.75.75,0,0,0-1.5,0v3.5a.75.75,0,0,0,1.5,0ZM22,17v2a2.652,2.652,0,0,1-3,3H17a2.652,2.652,0,0,1-3-3V17a2.652,2.652,0,0,1,3-3h2A2.652,2.652,0,0,1,22,17Zm-3.293,1,.647-.646a.5.5,0,0,0-.708-.708L18,17.293l-.646-.647a.5.5,0,0,0-.708.708l.647.646-.647.646a.5.5,0,0,0,.708.708L18,18.707l.646.647a.5.5,0,0,0,.708-.708Z"/>
</svg>