<svg xmlns="http://www.w3.org/2000/svg" width="24" height="24" viewBox="0 0 24 24">
    <path d="M19,19a2,2,0,1,1-2-2A2,2,0,0,1,19,19ZM7,17a2,2,0,1,0,2,2A2,2,0,0,0,7,17Zm14.75-3.42V16.5a2.233,2.233,0,0,1-.86,1.76.46.46,0,0,1-.24.1.248.248,0,0,1-.26-.19,3.492,3.492,0,0,0-6.85.319.3.3,0,0,1-.29.261h-2.5a.3.3,0,0,1-.29-.261,3.492,3.492,0,0,0-6.85-.319.264.264,0,0,1-.28.19.54.54,0,0,1-.22-.1,2.233,2.233,0,0,1-.86-1.76V14.05a.3.3,0,0,1,.3-.3H10a.75.75,0,0,0,0-1.5H2.55a.3.3,0,0,1-.3-.3V5.5A2.257,2.257,0,0,1,4.5,3.25h8A2.257,2.257,0,0,1,14.75,5.5V7.25h2.22c2.54,0,3.02,1.2,3.48,2.36l1.04,2.57a4.235,4.235,0,0,1,.17.58.647.647,0,0,1,.04.2A4.205,4.205,0,0,1,21.75,13.58ZM19.9,12.25l-.85-2.08c-.42-1.06-.56-1.42-2.08-1.42H14.75v3.5Z"/>
</svg>