<svg xmlns="http://www.w3.org/2000/svg" width="24" height="24" viewBox="0 0 24 24">
    <path d="M6.009,6.5a4,4,0,1,1,4,4A4,4,0,0,1,6.009,6.5ZM12.6,18.05a4.527,4.527,0,0,1,.8-3.76,3.358,3.358,0,0,1,.99-.81.839.839,0,0,0,.11-.07.272.272,0,0,0,.09-.21.332.332,0,0,0-.23-.29A6.39,6.39,0,0,0,12,12.5H8c-4.06,0-5.5,2.97-5.5,5.52C2.5,20.3,3.71,21.5,6,21.5h7.96a.3.3,0,0,0,.3-.3.312.312,0,0,0-.09-.21A6.123,6.123,0,0,1,12.6,18.05Zm7.172-3.55A1.959,1.959,0,0,0,18,15.806,1.957,1.957,0,0,0,16.236,14.5c-1.778.008-2.477,1.64-2.157,3.262C14.6,20.406,18,21.929,18,21.929s3.4-1.523,3.925-4.167C22.249,16.14,21.553,14.508,19.772,14.5Z"/>
</svg>