<svg xmlns="http://www.w3.org/2000/svg" width="24" height="24" viewBox="0 0 24 24">
    <path d="M19.5,10.509a1.817,1.817,0,0,1-2,1.991h-4a1.817,1.817,0,0,1-2-1.991,2.823,2.823,0,0,1,3-3.009h2A2.823,2.823,0,0,1,19.5,10.509ZM15.505,6a2.25,2.25,0,1,0-2.25-2.25A2.253,2.253,0,0,0,15.505,6ZM11.5,20.509a1.817,1.817,0,0,1-2,1.991h-4a1.817,1.817,0,0,1-2-1.991,2.823,2.823,0,0,1,3-3.009h2A2.823,2.823,0,0,1,11.5,20.509ZM7.505,16a2.25,2.25,0,1,0-2.25-2.25A2.253,2.253,0,0,0,7.505,16Zm-3.76-4.813A8.145,8.145,0,0,1,7.19,5.364V7.105a.75.75,0,1,0,1.5,0V4.056a.75.75,0,0,0-1.08-.674,9.632,9.632,0,0,0-5.355,7.642.749.749,0,1,0,1.49.163ZM16.39,20.729a9.633,9.633,0,0,0,5.355-7.642.749.749,0,1,0-1.49-.163,8.145,8.145,0,0,1-3.445,5.823V17.005a.75.75,0,0,0-1.5,0v3.051a.749.749,0,0,0,1.08.673Z"/>
</svg>