<svg xmlns="http://www.w3.org/2000/svg" width="24" height="24" viewBox="0 0 24 24">
    <path d="m16.982,11.407s.199.975.244,1.179h-.875c.086-.233.419-1.14.419-1.14-.005.008.087-.239.139-.391l.073.351Zm4.018-3.407v8c0,2-1,3-3,3H6c-2,0-3-1-3-3v-8c0-2,1-3,3-3h12c2,0,3,1,3,3Zm-12.342,6.025l1.656-4.068h-1.114l-1.03,2.778-.113-.564-.367-1.871c-.06-.259-.246-.333-.477-.343h-1.696l-.018.081c.414.105.784.257,1.106.448l.938,3.538h1.114Zm2.474.005l.661-4.073h-1.054l-.658,4.073h1.051Zm3.667-1.331c.005-.464-.278-.818-.883-1.109-.37-.186-.595-.312-.595-.503.005-.173.191-.351.605-.351.343-.008.595.073.784.155l.094.045.144-.881c-.207-.081-.537-.173-.943-.173-1.041,0-1.772.556-1.777,1.347-.008.584.524.909.923,1.106.406.199.545.33.545.506-.005.273-.33.398-.632.398-.419,0-.645-.065-.988-.218l-.139-.065-.147.915c.246.113.702.212,1.174.218,1.106.003,1.827-.545,1.835-1.389Zm3.701,1.331l-.849-4.073h-.815c-.252,0-.443.073-.55.338l-1.565,3.735h1.106s.181-.503.22-.611h1.352c.031.144.126.611.126.611h.975Z"/>
</svg>