<svg xmlns="http://www.w3.org/2000/svg" width="24" height="24" viewBox="0 0 24 24">
    <path d="M3.5,7H5.267A2,2,0,0,0,6.56,6.526L10.251,3.4A1.67,1.67,0,0,1,13,4.673V19.327A1.67,1.67,0,0,1,10.25,20.6L6.56,17.473A2,2,0,0,0,5.267,17H3.5A1.5,1.5,0,0,1,2,15.5v-7A1.5,1.5,0,0,1,3.5,7Zm13.267,9.77a6.731,6.731,0,0,0,0-9.542.75.75,0,1,0-1.059,1.062,5.232,5.232,0,0,1,0,7.418.75.75,0,1,0,1.059,1.062Zm2.3,3.049a.75.75,0,0,1-.529-1.281,9.239,9.239,0,0,0,0-13.078A.75.75,0,1,1,19.6,4.4a10.738,10.738,0,0,1,0,15.2A.749.749,0,0,1,19.067,19.82Z"/>
</svg>