<svg xmlns="http://www.w3.org/2000/svg" width="24" height="24" viewBox="0 0 24 24">
    <path d="M16.75,13.5v1.25H7.25V13.5c0-.59.16-.75.75-.75h8C16.59,12.75,16.75,12.91,16.75,13.5Zm-9.5,4.25h9.5v-1.5H7.25Zm0,2.95a.3.3,0,0,0,.3.3h8.9a.3.3,0,0,0,.3-.3V19.25H7.25ZM21,8.59V19.5A1.5,1.5,0,0,1,19.5,21h-.95a.3.3,0,0,1-.3-.3V13.5A2.25,2.25,0,0,0,16,11.25H8A2.25,2.25,0,0,0,5.75,13.5v7.2a.3.3,0,0,1-.3.3H4.5A1.5,1.5,0,0,1,3,19.5V8.59a1.505,1.505,0,0,1,.77-1.32l7.26-4.02a2.025,2.025,0,0,1,1.94,0l7.26,4.02A1.526,1.526,0,0,1,21,8.59ZM14.25,8a.75.75,0,0,0-.75-.75h-3a.75.75,0,0,0,0,1.5h3A.75.75,0,0,0,14.25,8Z"/>
</svg>