<svg xmlns="http://www.w3.org/2000/svg" width="24" height="24" fill="none"><path fill="#fff" fill-opacity=".01" d="M24 0v24H0V0z"/><path stroke="#FFFFFF" stroke-linecap="round" stroke-width="2" d="M4 8h16M8 18.5l-1 2m9-2 1 2M12 8v10.5M9 12v2m6-2v2m-4 4.5h2c3.288 0 4.931 0 6.038-.908.202-.166.388-.352.554-.554.908-1.107.908-2.75.908-6.038v0c0-3.287 0-4.931-.908-6.038a4 4 0 0 0-.554-.554C17.93 3.5 16.288 3.5 13 3.5h-2c-3.287 0-4.931 0-6.038.908a4 4 0 0 0-.554.554C3.5 6.07 3.5 7.712 3.5 11v0c0 3.287 0 4.931.908 6.038a4 4 0 0 0 .554.554c1.107.908 2.75.908 6.038.908Z"/></svg>