<svg xmlns="http://www.w3.org/2000/svg" width="24" height="24" fill="none"><path fill="#fff" fill-opacity=".01" d="M24 0v24H0V0z"/><path fill="#FFFFFF" d="M17 4a1 1 0 1 0-2 0zm-2 2a1 1 0 1 0 2 0zM9 4a1 1 0 0 0-2 0zM7 6a1 1 0 0 0 2 0zm1 4a1 1 0 1 0 0 2zm3 2a1 1 0 1 0 0-2zm-3 2a1 1 0 1 0 0 2zm.5 2a1 1 0 1 0 0-2zm9.5-.5a1 1 0 1 0-2 0zm0 2.5a1 1 0 1 0 0-2zm-.883-1.117.707-.707zM4.88 19.12l.707-.707zM17.776 6.102l.26-.966zm2.122 2.122.966-.26zM4.878 6.879l-.706-.707zM10 7h6V5h-6zm-5 7v-2H3v2zM15 4v2h2V4zM7 4v2h2V4zm1 8h3v-2H8zm0 4h.5v-2H8zm8-.5v.7h2v-.7zm1.8 2.5h.2v-2h-.2zm2.2-1a3 3 0 0 1-3 3v2a5 5 0 0 0 5-5zm-3 3a3 3 0 0 1-3-3h-2a5 5 0 0 0 5 5zm-3-3a3 3 0 0 1 3-3v-2a5 5 0 0 0-5 5zm3-3a3 3 0 0 1 3 3h2a5 5 0 0 0-5-5zm-1 2.2c0 .16-.002.381.024.572.03.22.11.543.386.818l1.414-1.414a.708.708 0 0 1 .176.301.25.25 0 0 1 .006.029l-.002-.02A9.825 9.825 0 0 1 18 16.2zm1.8-.2a9.825 9.825 0 0 1-.286-.004l-.02-.002.029.006a.666.666 0 0 1 .302.176L16.41 17.59c.275.275.598.357.818.386.19.026.412.024.572.024zM10 19c-1.442 0-2.424-.002-3.159-.1-.706-.096-1.033-.263-1.255-.486l-1.414 1.414c.656.657 1.475.928 2.403 1.053.899.121 2.04.119 3.425.119zm-7-5c0 1.386-.002 2.526.119 3.425.124.928.396 1.747 1.053 2.403l1.414-1.414c-.223-.222-.39-.55-.485-1.255C5.002 16.424 5 15.443 5 14zm13-7c.994 0 1.295.009 1.518.068l.517-1.932C17.495 4.991 16.865 5 16 5zm5 3c0-.866.009-1.495-.136-2.035l-1.932.517c.06.223.068.524.068 1.518zm-3.482-2.932a2 2 0 0 1 1.414 1.414l1.932-.517a4 4 0 0 0-2.829-2.829zM10 5c-1.386 0-2.526-.002-3.425.119-.928.125-1.747.396-2.403 1.053l1.414 1.414c.222-.223.55-.39 1.255-.485C7.576 7.002 8.558 7 10 7zm-5 7c0-1.443.002-2.424.1-3.159.096-.706.263-1.033.486-1.255L4.172 6.172c-.657.656-.928 1.475-1.053 2.403C2.998 9.474 3 10.615 3 12z"/></svg>