<svg xmlns="http://www.w3.org/2000/svg" width="24" height="24" fill="none"><path fill="#fff" fill-opacity=".01" d="M24 0v24H0V0z"/><path fill="#FFFFFF" d="M10 13.5a.5.5 0 1 1-1 0 .5.5 0 0 1 1 0M15 13.5a.5.5 0 1 1-1 0 .5.5 0 0 1 1 0M10 17.5a.5.5 0 1 1-1 0 .5.5 0 0 1 1 0M15 17.5a.5.5 0 1 1-1 0 .5.5 0 0 1 1 0"/><path stroke="#FFFFFF" stroke-width="2" d="M4.5 11c0-3.287 0-4.931.908-6.038a4 4 0 0 1 .554-.554C7.07 3.5 8.712 3.5 12 3.5c3.287 0 4.931 0 6.038.908a4 4 0 0 1 .554.554C19.5 6.07 19.5 7.712 19.5 11v3c0 3.288 0 4.931-.908 6.038a4.001 4.001 0 0 1-.554.554c-1.107.908-2.75.908-6.038.908-3.287 0-4.931 0-6.038-.908a4 4 0 0 1-.554-.554C4.5 18.93 4.5 17.288 4.5 14z"/><path stroke="#FFFFFF" stroke-width="2" d="M8 8.5c0-.466 0-.699.076-.883a1 1 0 0 1 .541-.54C8.801 7 9.034 7 9.5 7h5c.466 0 .699 0 .883.076a1 1 0 0 1 .54.541c.077.184.077.417.077.883s0 .699-.076.883a1 1 0 0 1-.541.54c-.184.077-.417.077-.883.077h-5c-.466 0-.699 0-.883-.076a1 1 0 0 1-.54-.541C8 9.199 8 8.966 8 8.5ZM10 13.5a.5.5 0 1 1-1 0 .5.5 0 0 1 1 0ZM15 13.5a.5.5 0 1 1-1 0 .5.5 0 0 1 1 0ZM10 17.5a.5.5 0 1 1-1 0 .5.5 0 0 1 1 0ZM15 17.5a.5.5 0 1 1-1 0 .5.5 0 0 1 1 0Z"/></svg>