<svg xmlns="http://www.w3.org/2000/svg" width="24" height="24" fill="none"><path fill="#fff" fill-opacity=".01" d="M24 0v24H0V0z"/><path fill="#FFFFFF" d="m17.357 5.494.765-.644zM13.142 17.92a1 1 0 0 0-.284-1.98zm4.281-5.348a1 1 0 1 0 1.807.858zm-4.772-3.33a1 1 0 0 0-1.302 1.518zM16 21a1 1 0 1 0 2 0zm-4-5a6 6 0 0 1-6-6H4a8 8 0 0 0 8 8zm-6-6a6 6 0 0 1 6-6V2a8 8 0 0 0-8 8zm6-6c1.842 0 3.49.83 4.592 2.138l1.53-1.288A7.985 7.985 0 0 0 12 2zm4.592 2.138A5.972 5.972 0 0 1 18 10h2c0-1.96-.706-3.759-1.878-5.15zm-3.734 9.801c-.28.04-.566.061-.858.061v2c.387 0 .768-.028 1.142-.081zM18 10c0 .922-.207 1.793-.577 2.57l1.807.86c.494-1.041.77-2.205.77-3.43zm-6.65.76C14.602 13.548 16 17.258 16 21h2c0-4.259-1.603-8.549-5.35-11.76zM12 10v2a2 2 0 0 0 2-2zm0 0h-2a2 2 0 0 0 2 2zm0 0V8a2 2 0 0 0-2 2zm0 0h2a2 2 0 0 0-2-2z"/></svg>