<svg xmlns="http://www.w3.org/2000/svg" width="24" height="24" fill="none"><path fill="#fff" fill-opacity=".01" d="M24 0v24H0V0z"/><path fill="#FFFFFF" d="M3.5 5a1 1 0 0 0 0 2zm0 4a1 1 0 0 0 0 2zm0 4a1 1 0 1 0 0 2zm0 4a1 1 0 1 0 0 2zm5.117-7.076-.382.924zm-.54-.541-.925.382zm7.847 0 .924.382zm-.541.54L15 9zm3.092-6.398-.707.707zM8.617 7.076 9 8zm-.54.541L9 8zm7.306-.54L15 8zm.54.54.925-.382zm2.552 12.858-.707-.707zM5.525 3.525l-.707-.707zM11.5 3.5h1v-2h-1zm7 6v5h2v-5zm-6 11h-1v2h1zm-7-6v-5h-2v5zM3.5 7h1V5h-1zm0 4h1V9h-1zm0 4h1v-2h-1zm0 4h1v-2h-1zm6-11h5V6h-5zm5 1h-5v2h5zm-5 0c-.247 0-.382 0-.48-.007-.088-.006-.07-.014-.02.007l-.765 1.848c.234.097.46.127.65.14.181.013.396.012.615.012zM7 8.5c0 .22 0 .434.012.615.013.19.043.416.14.65L9 9c.02.05.013.068.007-.02A8.132 8.132 0 0 1 9 8.5zM9 9l-1.848.765a2 2 0 0 0 1.083 1.083zm6-.5c0 .247 0 .382-.007.48-.006.088-.014.07.007.02l1.848.765a2.03 2.03 0 0 0 .14-.65C17 8.934 17 8.72 17 8.5zm-.5 2.5c.22 0 .434 0 .615-.012a2.03 2.03 0 0 0 .65-.14L15 9c.05-.02.068-.013-.02-.007A8.131 8.131 0 0 1 14.5 9zm.5-2 .765 1.848a2 2 0 0 0 1.083-1.083zm-3.5 11.5c-1.678 0-2.836-.002-3.707-.12-.842-.113-1.265-.316-1.56-.612l-1.415 1.414c.73.73 1.644 1.038 2.708 1.18 1.036.14 2.352.138 3.974.138zm-8-6c0 1.622-.002 2.939.137 3.974.143 1.064.452 1.979 1.181 2.708l1.414-1.414c-.296-.296-.5-.719-.613-1.56-.117-.872-.119-2.03-.119-3.708zm9-11c1.678 0 2.836.002 3.707.12.842.112 1.265.316 1.56.612l1.415-1.414c-.73-.73-1.644-1.038-2.708-1.18-1.036-.14-2.352-.138-3.974-.138zm8 6c0-1.622.002-2.938-.137-3.974-.143-1.064-.452-1.979-1.181-2.708l-1.414 1.414c.296.296.5.719.613 1.56.117.872.119 2.03.119 3.708zM9.5 6c-.22 0-.434 0-.615.012-.19.013-.416.043-.65.14L9 8c-.05.02-.068.013.02.007.098-.006.233-.007.48-.007zM9 8.5c0-.247 0-.382.007-.48.006-.088.014-.07-.007-.02l-1.848-.765c-.097.234-.127.46-.14.65C6.999 8.066 7 8.28 7 8.5zm-.765-2.348a2 2 0 0 0-1.083 1.083L9 8zM14.5 8c.247 0 .382 0 .48.007.088.006.07.014.02-.007l.765-1.848a2.03 2.03 0 0 0-.65-.14C14.934 5.999 14.72 6 14.5 6zm2.5.5c0-.22 0-.434-.012-.615a2.03 2.03 0 0 0-.14-.65L15 8c-.02-.05-.013-.068-.007.02.006.098.007.233.007.48zM15 8l1.848-.765a2 2 0 0 0-1.083-1.083zm3.5 6.5c0 1.678-.002 2.836-.12 3.707-.113.842-.316 1.265-.612 1.56l1.414 1.415c.73-.73 1.038-1.644 1.18-2.708.14-1.035.138-2.352.138-3.974zm-6 8c1.622 0 2.938.002 3.974-.137 1.064-.143 1.979-.452 2.708-1.181l-1.414-1.414c-.296.296-.719.5-1.56.613-.872.117-2.03.119-3.708.119zm-1-21c-1.622 0-2.938-.002-3.974.137-1.064.143-1.979.452-2.708 1.181l1.414 1.414c.296-.296.719-.5 1.56-.613.872-.117 2.03-.119 3.708-.119zm-6 8c0-1.678.002-2.836.12-3.707.112-.842.316-1.265.612-1.56L4.818 2.817c-.73.73-1.038 1.644-1.18 2.708C3.497 6.562 3.5 7.878 3.5 9.5z"/></svg>