<svg xmlns="http://www.w3.org/2000/svg" width="24" height="24" fill="none"><path fill="#fff" fill-opacity=".01" d="M24 0v24H0V0z"/><path fill="#FFFFFF" d="M20 20a1 1 0 1 0 0-2zM11.316 9.051a1 1 0 0 0-.632 1.898zM16 12a1 1 0 1 0 0-2zm-2.308-1.103-.316.95zm.31.09-.16.987zM18.7 18.6l-.8.6zm.326.347.448-.894zm-4.371-3.943.051-.999zM17 16.334l-.8.6zm-.196-.255.768-.64zm-5.793-3.818-.996.088zm2.728 2.728-.088.996zM9.5 20A4.5 4.5 0 0 1 5 15.5H3A6.5 6.5 0 0 0 9.5 22zM5 15.5a4.502 4.502 0 0 1 3.272-4.33l-.544-1.925A6.502 6.502 0 0 0 3 15.5zm8.51 2.045A4.5 4.5 0 0 1 9.5 20v2a6.5 6.5 0 0 0 5.79-3.545zM10 7v4.667h2V7zm6.2 9.933 1.7 2.267 1.6-1.2-1.7-2.267zM19.5 20h.5v-2h-.5zM12 5a1 1 0 0 1-1 1v2a3 3 0 0 0 3-3zm-1 1a1 1 0 0 1-1-1H8a3 3 0 0 0 3 3zm-1-1a1 1 0 0 1 1-1V2a3 3 0 0 0-3 3zm1-1a1 1 0 0 1 1 1h2a3 3 0 0 0-3-3zm-.316 6.949 2.692.897.632-1.897-2.692-.898zM14.324 12H16v-2h-1.675zm-.948-.154c.125.042.289.1.466.128l.32-1.974c.017.003.022.005-.001-.002a5.637 5.637 0 0 1-.153-.05zM14.325 10l-.16-.001c-.025 0-.02-.002-.003.001l-.32 1.974c.177.029.351.026.483.026zm3.575 9.2c.087.116.313.459.68.642l.894-1.79a.613.613 0 0 1 .111.073c.026.021.04.036.038.034l-.01-.011a1.403 1.403 0 0 1-.063-.082L19.5 18zm1.6-1.2h-.083a4.893 4.893 0 0 1-.118-.003c-.002 0 .018.002.05.01a.57.57 0 0 1 .125.046l-.895 1.789c.366.183.776.158.921.158zm-5.167-2c.174 0 .225 0 .27.003l.103-1.998c-.109-.005-.22-.005-.373-.005zm3.467-.267c-.091-.121-.158-.21-.228-.295l-1.536 1.281c.03.035.06.076.164.214zm-3.197.27a2 2 0 0 1 1.433.716l1.536-1.28a4 4 0 0 0-2.866-1.434zM10 11.667c0 .288-.001.497.015.682l1.993-.175a7.086 7.086 0 0 1-.008-.507zM14.333 14c-.33 0-.431-.001-.507-.008l-.175 1.993c.185.016.394.015.682.015zm-4.318-1.651a4 4 0 0 0 3.636 3.636l.175-1.993a2 2 0 0 1-1.818-1.818z"/></svg>