<svg xmlns="http://www.w3.org/2000/svg" width="24" height="24" fill="none"><path fill="#fff" fill-opacity=".01" d="M24 0v24H0V0z"/><path fill="#FFFFFF" d="M21 13.002a1 1 0 1 0 0-2zm-18-2a1 1 0 1 0 0 2zm2.224 8.453-.888.46zm1.37 1.04.203-.98zm-.687-5.372-.396-.919zm-.785.784-.918-.396zm13.585-.081.985-.175zM5.224 4.546l-.888-.46zm1.37-1.039.203.98zM5.908 8.88l-.396.919zm-.785-.784.919-.396zm13.585.081.985.175zM21 11.002H3v2h18zm-7.595-3H7.277v2h6.128zm1.044-3.329a74.587 74.587 0 0 0-5.5-1.776l-.54 1.925a72.618 72.618 0 0 1 5.352 1.73zM13.405 14H7.277v2h6.128zm.357 3.45a72.556 72.556 0 0 1-5.353 1.73l.54 1.925a74.582 74.582 0 0 0 5.5-1.777zM4 17.277c0 .566 0 1.05.031 1.444.033.405.105.81.305 1.194l1.776-.92c-.025-.047-.064-.15-.087-.435C6 18.265 6 17.876 6 17.277zm4.409 1.903c-.552.154-.907.253-1.184.306-.263.05-.37.041-.428.03l-.405 1.958c.42.087.819.052 1.21-.024.379-.072.827-.199 1.347-.345zm-4.073.735a3.054 3.054 0 0 0 2.056 1.559l.405-1.959a1.056 1.056 0 0 1-.685-.52zM7.276 14c-.347 0-.66 0-.92.018a2.55 2.55 0 0 0-.845.186l.791 1.837h.001l.005-.002a1.287 1.287 0 0 1 .189-.026c.173-.012.404-.013.78-.013zM6 17.277c0-.376 0-.607.013-.78a1.298 1.298 0 0 1 .026-.188l.001-.005v-.001l-1.836-.792a2.546 2.546 0 0 0-.186.846c-.019.26-.018.572-.018.92zm-.489-3.073a2.5 2.5 0 0 0-1.307 1.307l1.837.791a.5.5 0 0 1 .261-.261zM13.405 16c1.748 0 2.964.002 3.768.097.407.047.606.11.685.148.042.021-.1-.049-.136-.245l1.97-.349c-.108-.608-.52-.988-.95-1.2-.391-.193-.864-.285-1.335-.34-.951-.113-2.313-.11-4.002-.11zm1.044 3.328c1.555-.569 2.812-1.027 3.652-1.454.416-.211.824-.46 1.122-.777.329-.35.575-.845.469-1.446l-1.97.35c-.033-.189.07-.303.044-.275-.056.06-.214.184-.571.365-.706.359-1.823.77-3.434 1.36zM6 6.725c0-.599 0-.988.025-1.283.023-.285.062-.389.087-.436l-1.776-.92c-.2.386-.272.79-.305 1.194C4 5.675 4 6.16 4 6.725zm2.949-3.828c-.52-.146-.968-.273-1.347-.346-.391-.075-.79-.11-1.21-.023l.405 1.958c.058-.012.165-.02.428.03.277.053.632.151 1.184.306zM6.112 5.006c.13-.252.408-.462.685-.52l-.405-1.958c-.868.18-1.649.771-2.056 1.559zm1.165 2.996c-.376 0-.607-.001-.78-.013a1.297 1.297 0 0 1-.194-.028L5.51 9.798c.288.124.576.167.845.186.26.018.573.018.92.018zM4 6.725c0 .348 0 .66.018.92.019.27.062.557.186.846l1.837-.792a.101.101 0 0 1-.002-.006 1.298 1.298 0 0 1-.026-.189A12.527 12.527 0 0 1 6 6.724zM6.302 7.96a.5.5 0 0 1-.261-.262l-1.837.792A2.5 2.5 0 0 0 5.51 9.798zM13.405 10c1.689 0 3.051.002 4.002-.11.47-.055.944-.148 1.335-.34.43-.212.842-.592.95-1.2L17.722 8c.035-.195.178-.265.136-.245-.08.04-.278.101-.685.15-.804.094-2.02.096-3.768.096zm.357-3.45c1.61.59 2.727 1 3.433 1.36.357.181.515.304.571.364.027.029-.077-.085-.043-.273l1.969.349c.106-.601-.14-1.097-.469-1.446-.298-.317-.706-.566-1.122-.777-.84-.427-2.097-.885-3.652-1.455z"/></svg>