<svg xmlns="http://www.w3.org/2000/svg" width="24" height="24" fill="none"><path fill="#fff" fill-opacity=".01" d="M24 0v24H0V0z"/><path stroke="#FFFFFF" stroke-linecap="round" stroke-linejoin="round" stroke-width="2" d="M3 11h18M3 15h18m-9-4v4m-4 0v5m8-5v5m-7 0h6c2.828 0 4.243 0 5.121-.879C21 18.243 21 16.828 21 14V6.667c0-.62 0-.93-.068-1.185a2 2 0 0 0-1.414-1.414C19.263 4 18.953 4 18.333 4v0c-.31 0-.465 0-.592.034a1 1 0 0 0-.707.707C17 4.868 17 5.023 17 5.333V5.5c0 .466 0 .699-.076.883a1 1 0 0 1-.541.54C16.199 7 15.966 7 15.5 7v0c-.466 0-.699 0-.883-.076a1 1 0 0 1-.54-.541C14 6.199 14 5.966 14 5.5v0c0-.466 0-.699-.076-.883a1 1 0 0 0-.541-.54C13.199 4 12.966 4 12.5 4h-1c-.466 0-.699 0-.883.076a1 1 0 0 0-.54.541C10 4.801 10 5.034 10 5.5v0c0 .466 0 .699-.076.883a1 1 0 0 1-.541.54C9.199 7 8.966 7 8.5 7v0c-.466 0-.699 0-.883-.076a1 1 0 0 1-.54-.541C7 6.199 7 5.966 7 5.5v-.167c0-.31 0-.465-.034-.592a1 1 0 0 0-.707-.707C6.132 4 5.977 4 5.667 4v0c-.62 0-.93 0-1.185.068a2 2 0 0 0-1.414 1.414C3 5.737 3 6.047 3 6.667V14c0 2.828 0 4.243.879 5.121C4.757 20 6.172 20 9 20"/></svg>