<svg xmlns="http://www.w3.org/2000/svg" width="24" height="24" fill="none"><path fill="#fff" fill-opacity=".01" d="M24 0v24H0V0z"/><path stroke="#FFFFFF" stroke-linecap="round" stroke-linejoin="round" stroke-width="2" d="m2.5 10.972 5.514-4.9C9.91 4.384 10.859 3.541 12 3.541c1.14 0 2.09.843 3.986 2.53l5.514 4.9M4.611 9.917l.425 4.253c.256 2.55.383 3.826 1.069 4.726a4 4 0 0 0 1.086.983c.964.593 2.246.593 4.809.593v0c2.563 0 3.845 0 4.809-.593.42-.258.788-.59 1.086-.983.686-.9.814-2.175 1.069-4.726l.425-4.253M18.2 8l.5-3"/></svg>