<svg xmlns="http://www.w3.org/2000/svg" width="24" height="24" fill="none"><path fill="#fff" fill-opacity=".01" d="M24 0v24H0V0z"/><path stroke="#FFFFFF" stroke-linecap="round" stroke-linejoin="round" stroke-width="2" d="M12 9.5c0-.932 0-1.398.152-1.765a2 2 0 0 1 1.083-1.083C13.602 6.5 14.068 6.5 15 6.5h1a2 2 0 0 0 2-2v0M7 13h10M7 16h10m-9 3.5h8c1.87 0 2.804 0 3.5-.402A3 3 0 0 0 20.598 18c.402-.696.402-1.63.402-3.5v0c0-1.87 0-2.804-.402-3.5A3 3 0 0 0 19.5 9.902C18.804 9.5 17.87 9.5 16 9.5H8c-1.87 0-2.804 0-3.5.402A3 3 0 0 0 3.402 11C3 11.696 3 12.63 3 14.5v0c0 1.87 0 2.804.402 3.5A3 3 0 0 0 4.5 19.098c.696.402 1.63.402 3.5.402"/></svg>