<svg xmlns="http://www.w3.org/2000/svg" width="24" height="24" fill="none"><path fill="#fff" fill-opacity=".01" d="M24 0v24H0V0z"/><path stroke="#FFFFFF" stroke-linejoin="round" stroke-width="2" d="M9.75 4.75c0 .716-.74 2.701-1.287 4.09a.498.498 0 0 1-.926 0C6.99 7.45 6.25 5.466 6.25 4.75a1.75 1.75 0 1 1 3.5 0ZM15.248 8.477c-.506.506-2.433 1.387-3.802 1.982a.498.498 0 0 1-.655-.655c.595-1.369 1.476-3.296 1.982-3.802a1.75 1.75 0 1 1 2.475 2.475ZM16.5 15c-.716 0-2.701-.74-4.09-1.287a.498.498 0 0 1 0-.926C13.8 12.24 15.784 11.5 16.5 11.5a1.75 1.75 0 1 1 0 3.5ZM12.773 20.498c-.506-.506-1.387-2.434-1.982-3.802a.498.498 0 0 1 .655-.655c1.369.595 3.296 1.476 3.802 1.982a1.75 1.75 0 0 1-2.475 2.475Z"/></svg>