<svg xmlns="http://www.w3.org/2000/svg" width="24" height="24" fill="none"><path fill="#fff" fill-opacity=".01" d="M24 0v24H0V0z"/><path fill="#FFFFFF" d="m4.278 20.825.555-.831zm-1.104-1.103.832-.556zm11.548 1.103-.555-.831zm1.104-1.103-.832-.556zM3.174 9.277l.832.556zm1.104-1.103-.556-.832zm7.129 1.078a1 1 0 1 0-1.178 1.617zm1.532 2.93-.808.589a1 1 0 0 0 1.658-.062zm4.77-3.393a1 1 0 0 0-1.054-1.7zm-9.747 7.803.635-.773zm-.554-.554.773-.635zm13.184 0-.773-.635zm-.554.554.634.773zm0-13.184-.635.773zm-12.076 0-.634-.773zm-.554.554-.773-.634zM9.5 20.5c-1.425 0-2.419-.002-3.185-.08-.75-.076-1.169-.217-1.482-.426l-1.11 1.663c.695.465 1.482.66 2.39.753.89.09 2.003.09 3.387.09zm-8-6c0 1.383-.001 2.496.09 3.387.092.907.287 1.694.753 2.39l1.663-1.11c-.21-.314-.35-.733-.427-1.483-.078-.765-.079-1.76-.079-3.185zm3.333 5.494a2.999 2.999 0 0 1-.827-.828l-1.663 1.111a5 5 0 0 0 1.38 1.38zM9.5 22.5c1.384 0 2.497 0 3.387-.09.908-.092 1.695-.288 2.39-.753l-1.11-1.663c-.313.209-.733.35-1.482.426-.766.078-1.76.08-3.185.08zm5.494-3.334c-.219.328-.5.61-.827.828l1.11 1.663a5 5 0 0 0 1.38-1.38zM3.5 14.5c0-1.425.001-2.418.08-3.184.075-.75.217-1.17.426-1.482L2.343 8.722c-.465.696-.661 1.483-.754 2.39-.09.89-.089 2.004-.089 3.387zm.222-7.157a5 5 0 0 0-1.38 1.38l1.664 1.11a3 3 0 0 1 .827-.827zm2.703-.78c-1.042.078-1.93.264-2.703.78l1.111 1.663c.349-.233.827-.38 1.742-.45zm9.019 10.862c-.07.915-.217 1.394-.45 1.742l1.663 1.111c.517-.773.702-1.66.781-2.702zm-5.215-6.555a8.474 8.474 0 0 1 1.902 1.902l1.617-1.178a10.475 10.475 0 0 0-2.341-2.34zm3.56 1.84c1.028-1.656 2.264-2.892 3.92-3.92l-1.054-1.7c-1.918 1.19-3.375 2.648-4.565 4.566zM14 16.5c-1.668 0-2.831-.002-3.72-.107-.865-.102-1.338-.29-1.683-.574l-1.269 1.546c.76.625 1.663.89 2.718 1.015 1.032.122 2.335.12 3.954.12zM5.5 10c0 1.62-.002 2.922.12 3.954.125 1.055.39 1.957 1.015 2.718l1.546-1.269c-.284-.345-.472-.818-.574-1.684C7.502 12.832 7.5 11.67 7.5 10zm3.097 5.819a2.996 2.996 0 0 1-.416-.416l-1.546 1.269c.208.253.44.485.693.693zM20.5 10c0 1.668-.002 2.832-.107 3.72-.102.865-.29 1.338-.574 1.683l1.546 1.269c.625-.76.89-1.663 1.015-2.718.122-1.032.12-2.335.12-3.954zM14 18.5c1.62 0 2.922.002 3.954-.12 1.055-.125 1.957-.39 2.718-1.015l-1.269-1.546c-.345.284-.818.472-1.684.574-.888.105-2.05.107-3.719.107zm5.819-3.097a2.993 2.993 0 0 1-.416.416l1.269 1.546c.253-.208.485-.44.693-.693zM14 3.5c1.668 0 2.831.002 3.72.107.865.102 1.338.29 1.683.574l1.269-1.546c-.76-.624-1.663-.89-2.718-1.015C16.922 1.498 15.62 1.5 14 1.5zm8.5 6.5c0-1.62.002-2.922-.12-3.954-.125-1.055-.39-1.957-1.015-2.718L19.82 4.597c.284.345.472.818.574 1.684.105.888.107 2.05.107 3.719zm-3.097-5.819c.152.125.291.264.416.416l1.546-1.269a5.005 5.005 0 0 0-.693-.693zM14 1.5c-1.62 0-2.922-.002-3.954.12-1.055.125-1.957.39-2.718 1.015l1.269 1.546c.345-.284.818-.472 1.684-.574.887-.105 2.05-.107 3.719-.107zM7.5 10c0-1.668.002-2.831.107-3.72.102-.865.29-1.338.574-1.683L6.635 3.328c-.624.76-.89 1.663-1.015 2.718C5.498 7.078 5.5 8.38 5.5 10zm-.172-7.365a5 5 0 0 0-.693.693L8.18 4.597a3 3 0 0 1 .416-.416z"/></svg>