<svg xmlns="http://www.w3.org/2000/svg" width="24" height="24" fill="none"><path fill="#fff" fill-opacity=".01" d="M24 0v24H0V0z"/><path fill="#FFFFFF" d="m13.707 7.257-.689-.724zm7.242-3.828-.323-.946zm.121.122.947.323zm-3.827 7.242-.725-.69zM6.238 19.676l.285-.958zm-.82-5.447.981.196zm-.196 1.514-.98-.196zm-1.53 2.284.65.76zm-.236.192-.618-.786a1 1 0 0 0-.023 1.554zm10.94-10.237c.93-.884 2.388-1.707 3.796-2.364a32.661 32.661 0 0 1 3.08-1.242l-.646-1.893a34.65 34.65 0 0 0-3.278 1.322c-1.455.679-3.156 1.612-4.33 2.728zm5.728-4.754a32.656 32.656 0 0 1-1.242 3.08c-.657 1.408-1.48 2.866-2.364 3.796l1.45 1.378c1.115-1.174 2.048-2.875 2.727-4.33a34.658 34.658 0 0 0 1.322-3.278zm-8.475 8.65c.729-1.324 1.742-2.94 2.747-3.896l-1.378-1.45c-1.246 1.185-2.383 3.04-3.12 4.38zm4.869-1.774c-.956 1.005-2.572 2.018-3.895 2.747l.965 1.752c1.34-.738 3.195-1.875 4.38-3.121zm4.754-5.728a.906.906 0 0 1-1.148-1.148l1.893.646a1.094 1.094 0 0 0-1.391-1.39zM11.232 17.51c-1.618 1.617-3.324 1.618-4.709 1.207l-.57 1.917c1.89.561 4.424.559 6.693-1.71zm0-4.243a3 3 0 0 1 0 4.243l1.415 1.414a5 5 0 0 0 0-7.071zm-4.242 0a3 3 0 0 1 4.242 0l1.415-1.414a5 5 0 0 0-7.072 0zm-.59 1.157c.084-.423.237-.805.59-1.157l-1.415-1.414c-.707.708-1 1.49-1.137 2.18zM4.34 18.787c.57-.487 1.582-1.453 1.861-2.848l-1.96-.392c-.139.689-.682 1.276-1.2 1.72zm-.267.219c.088-.07.177-.142.267-.219l-1.3-1.52a6.307 6.307 0 0 1-.203.166zm2.45-.288c-.897-.267-1.761-.71-2.427-1.266l-1.282 1.535c.902.754 2.018 1.315 3.138 1.648zm6.122-9.693-.205.979h-.002l-.003-.001h-.004L12.429 10l.006.002.06.018c.062.02.16.055.284.112.248.116.588.32.93.66l1.413-1.414a5.31 5.31 0 0 0-1.494-1.056 4.398 4.398 0 0 0-.688-.256 2.19 2.19 0 0 0-.073-.018l-.008-.001h-.004l-.001-.001c-.001 0-.002 0-.207.978m1.061 1.768c.34.34.544.681.66.929a2.406 2.406 0 0 1 .131.346v-.004l-.001-.003v-.002l.978-.205c.979-.205.978-.206.978-.206v-.006l-.002-.008a3.315 3.315 0 0 1-.018-.073 4.397 4.397 0 0 0-.255-.688 5.31 5.31 0 0 0-1.057-1.494zm-7.505 5.146c.062-.309.09-.613.114-.858.025-.262.045-.464.083-.656l-1.961-.392c-.062.309-.09.613-.113.858a6.555 6.555 0 0 1-.084.656z"/></svg>