<svg xmlns="http://www.w3.org/2000/svg" width="24" height="24" fill="none"><path fill="#fff" fill-opacity=".01" d="M24 0v24H0V0z"/><path fill="#FFFFFF" d="m8.208 9.186.772.636zm6.098-3.52-.2-.98zM8.38 7.82a1 1 0 0 0-.886 1.793zm.865 2.659a1 1 0 0 0 .886-1.793zm-3.138-.095a1 1 0 1 0-.886 1.793zm.865 2.658a1 1 0 1 0 .886-1.793zm13.826-3.716a1 1 0 0 0-1-1.732zm-6.629 1.518a1 1 0 1 0 1 1.732zm4.048-5.988-.866.5zm-1.608-.305.578.816zm3.814 4.126.866-.5zM6.696 20.067l.5.866zm.74-11.516c-2.124 2.581-3.59 4.49-4.469 6.056-.897 1.598-1.245 2.946-1.002 4.372l1.971-.336c-.14-.82.012-1.697.775-3.057.781-1.39 2.136-3.172 4.27-5.764zm-.24 12.382 12.63-7.292-1-1.732-12.63 7.292zM21.289 8.177l-2.206-3.82-1.732 1 2.206 3.82zM9.55 5.47c-.458.782-1.217 1.992-2.113 3.08L8.98 9.823c.992-1.206 1.812-2.517 2.295-3.342zm6.483-1.736c-.599.424-1.31.826-1.926.952l.4 1.96c1.034-.212 2.023-.813 2.681-1.28zm-1.926.952c-.651.133-1.427.002-2.052-.18l-.56 1.92c.733.214 1.885.45 3.013.22zM7.494 9.613l1.75.866.887-1.793-1.75-.866zM5.22 12.177l1.75.865.887-1.793-1.75-.865zm14.577-4.583-5.629 3.25 1 1.732 5.63-3.25zM11.275 6.48c.006-.01.023-.032.069-.049a.25.25 0 0 1 .15-.005l.56-1.92c-.903-.263-1.979.064-2.505.964zm7.808-2.124c-.652-1.13-2.108-1.289-3.051-.622l1.155 1.633a.171.171 0 0 1 .125-.027c.02.003.031.01.035.012l.004.004zm.742 9.285a4 4 0 0 0 1.464-5.464l-1.732 1a2 2 0 0 1-.732 2.732zM1.965 18.98c.215 1.26 1.124 2.042 2.141 2.342.99.293 2.14.16 3.09-.388l-1-1.732c-.486.28-1.07.336-1.523.202-.428-.126-.673-.387-.737-.76z"/></svg>