<svg xmlns="http://www.w3.org/2000/svg" width="24" height="24" fill="none"><path fill="#fff" fill-opacity=".01" d="M24 0v24H0V0z"/><path fill="#FFFFFF" d="M3.6 2.7a1 1 0 1 0-1.2 1.6zM17.5 19a1 1 0 1 0 0-2zM9 20a1 1 0 1 0 0 2zm.002 2a1 1 0 1 0 0-2zM16 20a1 1 0 1 0 0 2zm.002 2a1 1 0 0 0 0-2zm.806-15.993.07-.997zm2.79 3.159.998.055zm-9.814 8.773.2-.98zm-2.126-1.691.91-.416zm11.803-6-.984-.178zm-4.833 4.116.083.997zm.605-.058-.138-.99zM4.546 4.813l.778-.627zm.44.678-.888.458zM11.106 19H17.5v-2h-6.395zM5.23 7h11.094V5H5.231zM9 22h.002v-2H9zm7 0h.002v-2H16zm-1.455-8.632-7.326.61.166 1.993 7.326-.61zM4.588 7.66l1.74 7.539 1.948-.45-1.74-7.539zM16.325 7c.27 0 .355 0 .415.005l.137-1.995C16.731 5 16.561 5 16.325 5zm4.211 2.77c.03-.234.051-.402.06-.549l-1.997-.11c-.004.06-.014.143-.047.412zM16.74 7.006A2 2 0 0 1 18.6 9.11l1.997.11a4 4 0 0 0-3.719-4.211zM11.106 17c-.728 0-.946-.005-1.12-.04l-.402 1.959c.422.086.886.081 1.522.081zm-4.778-1.8c.143.62.243 1.072.422 1.464l1.819-.832c-.074-.162-.128-.373-.292-1.082zm3.658 1.76a2 2 0 0 1-1.417-1.128l-1.819.832a4 4 0 0 0 2.834 2.255zm8.567-7.437c-.04.322-.056.444-.075.547l1.968.357c.031-.17.054-.358.091-.656zM14.71 15.36c.299-.025.488-.04.66-.064l-.276-1.981c-.104.014-.226.025-.55.052zm3.766-5.291a4 4 0 0 1-3.382 3.246l.276 1.98a6 6 0 0 0 5.074-4.868zM2.4 4.3c.86.646 1.15.871 1.367 1.14l1.557-1.254c-.41-.51-.943-.9-1.724-1.486zm4.137 2.911c-.22-.951-.361-1.596-.661-2.178l-1.778.916c.159.308.248.663.49 1.712zm-2.77-1.77a3 3 0 0 1 .33.508l1.779-.916a5 5 0 0 0-.552-.847z"/></svg>