<svg xmlns="http://www.w3.org/2000/svg" width="24" height="24" fill="none"><path fill="#fff" fill-opacity=".01" d="M24 0v24H0V0z"/><path stroke="#FFFFFF" stroke-linecap="round" stroke-linejoin="round" stroke-width="2" d="M19 6v12M5 11.997c0 .824.015 1.593.04 2.299.077 2.15.115 3.225 1.075 3.78.96.553 1.91.048 3.809-.963a66.783 66.783 0 0 0 2.913-1.645c2.288-1.37 3.432-2.053 3.433-3.47 0-1.418-1.144-2.103-3.432-3.473a65.993 65.993 0 0 0-2.9-1.638c-1.91-1.015-2.865-1.522-3.824-.968-.96.554-.998 1.634-1.074 3.794A64.95 64.95 0 0 0 5 11.997"/></svg>