<svg xmlns="http://www.w3.org/2000/svg" width="24" height="24" fill="none"><path fill="#fff" fill-opacity=".01" d="M24 0v24H0V0z"/><path stroke="#FFFFFF" stroke-linecap="round" stroke-linejoin="round" stroke-width="2" d="M15 10v.5m0 3v.5m0-7.5a2 2 0 0 0 1.801-1.13c.217-.447.602-.87 1.099-.87v0a3.6 3.6 0 0 1 3.6 3.6v7.8a3.6 3.6 0 0 1-3.6 3.6v0c-.497 0-.882-.423-1.099-.87a2 2 0 0 0-3.556-.089c-.3.546-.449.82-.567.89-.118.069-.305.069-.678.069h-2c-3.287 0-4.931 0-6.038-.908a4 4 0 0 1-.554-.554C2.5 16.93 2.5 15.288 2.5 12v0c0-3.287 0-4.931.908-6.038a4 4 0 0 1 .554-.554C5.07 4.5 6.712 4.5 10 4.5h2c.373 0 .56 0 .678.07s.267.343.566.889A2 2 0 0 0 15 6.5"/></svg>