<svg xmlns="http://www.w3.org/2000/svg" width="24" height="24" fill="none"><path fill="#fff" fill-opacity=".01" d="M24 0v24H0V0z"/><path stroke="#FFFFFF" stroke-linejoin="round" stroke-width="2" d="M14 12a2 2 0 1 1-4 0 2 2 0 0 1 4 0Z"/><path stroke="#FFFFFF" stroke-linejoin="round" stroke-width="2" d="M19 12a9 9 0 0 1-13.92 7.537c-.246-.16-.11-.532.184-.541a9.073 9.073 0 0 0 2.521-.436c.395-.128.421-.662.086-.906A6.99 6.99 0 0 1 5 12a9 9 0 0 1 13.92-7.537c.246.16.11.533-.184.541a9.07 9.07 0 0 0-2.521.436c-.395.128-.421.661-.086.906A6.99 6.99 0 0 1 18.999 12Z"/></svg>