<svg xmlns="http://www.w3.org/2000/svg" width="24" height="24" fill="none"><path fill="#fff" fill-opacity=".01" d="M24 0v24H0V0z"/><path fill="#FFFFFF" d="m9.615 4.095.056.999zm5.77 0 .056-.998zm0 14.81.056.998zM4.058 13.388l-.999.054zm0-3.776.998.053zm16.884 0-.998.053zm0 3.776.999.054zM4.614 16.704l.881-.472zm14.145 1.633-.475-.88zm1.628-1.633-.882-.472zm-1.628-12.04-.475.88zm1.628 1.632-.882.472zM6.24 4.663l.475.88zM4.614 6.296l.881.472zm8.98 2.591a1 1 0 1 0-.667 1.886zm-.362 2.191a1 1 0 0 0 1.886-.666zm1.361-5.02a1 1 0 1 0-.666 1.885zm1.468 4.02a1 1 0 0 0 1.886-.667zM9.91 18.988l.032-1zm-.673.221.625.781zm-1.425 1.14-.624-.78zM6.28 18.353l-.46.888zm3.392-13.26A52.432 52.432 0 0 1 12.5 5V3c-.9 0-1.93.04-2.941.097zM12.5 5c.848 0 1.837.038 2.83.094l.111-1.997A54.37 54.37 0 0 0 12.5 3zm2.83 12.906c-.993.056-1.982.094-2.83.094v2c.9 0 1.93-.04 2.941-.097zm-10.274-4.57A35.28 35.28 0 0 1 5 11.5H3c0 .603.023 1.27.06 1.942zM5 11.5c0-.556.022-1.185.056-1.835L3.06 9.558C3.023 10.23 3 10.897 3 11.5zm14.944-1.835c.035.65.056 1.279.056 1.835h2c0-.603-.023-1.27-.06-1.942zM20 11.5c0 .556-.021 1.185-.056 1.835l1.997.107c.036-.672.059-1.339.059-1.942zM3.06 13.442c.085 1.607.123 2.71.672 3.735l1.763-.945c-.293-.546-.344-1.13-.439-2.897zm12.381 6.461c1.643-.092 2.768-.134 3.792-.686l-.949-1.76c-.544.293-1.145.348-2.955.45zm4.503-6.568c-.095 1.767-.146 2.351-.439 2.897l1.763.945c.549-1.025.587-2.128.673-3.735zm-.71 5.882a5.31 5.31 0 0 0 2.034-2.04l-1.763-.945c-.25.467-.755.973-1.22 1.224zM15.328 5.094c1.81.101 2.41.156 2.955.45l.95-1.76c-1.025-.553-2.15-.595-3.793-.687zm6.612 4.464c-.086-1.607-.124-2.71-.673-3.735l-1.763.945c.293.546.345 1.13.439 2.897zm-3.657-4.014c.466.25.971.757 1.221 1.224l1.763-.945a5.31 5.31 0 0 0-2.035-2.04zM9.56 3.097c-1.643.092-2.768.134-3.792.686l.949 1.76c.544-.293 1.145-.348 2.955-.45zM5.056 9.665c.095-1.767.146-2.351.439-2.897l-1.763-.945c-.549 1.025-.587 2.128-.673 3.735zm.71-5.882a5.31 5.31 0 0 0-2.034 2.04l1.763.945c.25-.467.755-.973 1.22-1.224zM6 19.404v.556h2v-.556zM12.5 18c-.857 0-1.7.017-2.558-.01l-.064 1.999c.9.028 1.817.011 2.622.011zm-4.063 3.131 1.425-1.14-1.25-1.562-1.424 1.14zm4.49-10.358c.141.05.255.164.305.305l1.886-.666a2.504 2.504 0 0 0-1.525-1.525zm1-2.83a3.513 3.513 0 0 1 2.134 2.134l1.886-.666a5.513 5.513 0 0 0-3.354-3.354zm-7.188 9.521a3.015 3.015 0 0 1-1.244-1.232l-1.763.945A5.014 5.014 0 0 0 5.82 19.24zm3.203.526a2.024 2.024 0 0 0-1.33.44l1.25 1.561c-.002.002.002-.003.016-.002zM6 19.96c0 1.257 1.455 1.957 2.437 1.171l-1.25-1.562a.5.5 0 0 1 .813.39zm2-.556c0-.943-.64-1.618-1.261-1.94l-.92 1.777c.08.04.133.09.161.13.025.035.02.045.02.033z"/><path fill="#FFFFFF" fill-rule="evenodd" d="M14.535 16.807c-.72-.026-2.76-.308-4.898-2.444-2.136-2.137-2.418-4.177-2.444-4.898a1.983 1.983 0 0 1 .066-.556l.008-.031a2.946 2.946 0 0 1 1.698-1.994.735.735 0 0 1 .722.08c.721.525 1.241 1.294 1.684 1.948l.142.21a.752.752 0 0 1-.128.993l-.975.724a.24.24 0 0 0-.071.308c.22.402.614 1 1.064 1.45.45.45 1.076.87 1.506 1.115a.242.242 0 0 0 .322-.08l.634-.967a.751.751 0 0 1 1.028-.166l.135.092c.672.464 1.428.986 1.991 1.707.171.219.196.505.095.742a2.935 2.935 0 0 1-1.986 1.692l-.037.009c-.16.04-.35.074-.556.066" clip-rule="evenodd"/></svg>