<svg xmlns="http://www.w3.org/2000/svg" width="24" height="24" fill="none"><path fill="#fff" fill-opacity=".01" d="M24 0v24H0V0z"/><path stroke="#FFFFFF" stroke-linecap="round" stroke-width="2" d="M12 9v1.343c0 .818 0 1.226.152 1.594.153.368.442.657 1.02 1.235l.328.328m1.5-7-.45-1.577c-.13-.45-.194-.676-.293-.862a2 2 0 0 0-1.348-1.017C12.703 3 12.47 3 12 3v0c-.469 0-.703 0-.91.044a2 2 0 0 0-1.347 1.017c-.1.186-.164.412-.292.862L9 6.5m6 11-.45 1.577c-.13.45-.194.676-.293.862a2 2 0 0 1-1.348 1.017C12.703 21 12.47 21 12 21v0c-.469 0-.703 0-.91-.044a2 2 0 0 1-1.347-1.017c-.1-.186-.164-.412-.292-.862L9 17.5m3 .5a6 6 0 1 1 0-12 6 6 0 0 1 0 12Z"/></svg>