<svg width="48" height="48" viewBox="0 0 88 111" fill="#c8e7ff" xmlns="http://www.w3.org/2000/svg" stroke-width="1px" stroke-linecap="round" stroke-linejoin="round"><path d="M65.6144 93.6098C65.0944 89.3598 63.5544 85.0099 60.9744 80.5699C58.6544 76.5699 55.9844 73.3198 52.9644 70.8398C51.7944 69.8698 50.5644 69.0198 49.2944 68.2798C47.9844 67.5298 46.7344 66.9599 45.5344 66.5699C44.8044 66.3299 44.0944 66.1599 43.4044 66.0699C41.5544 65.7899 39.8544 66.0098 38.3044 66.7298L37.6044 67.0799C35.5644 68.2499 34.1744 70.0898 33.4244 72.6198C32.9944 74.0898 32.7744 75.7799 32.7744 77.6999C32.7744 82.9399 34.3844 88.3398 37.6044 93.8898C40.8244 99.4498 44.7244 103.54 49.2944 106.18C53.8644 108.82 57.7544 109.22 60.9744 107.38C64.1944 105.55 65.8044 102.01 65.8044 96.7598C65.8044 95.7198 65.7444 94.6598 65.6144 93.6098ZM56.6344 89.0098L48.6344 93.3898C48.1344 93.6698 47.5544 93.6198 46.8944 93.2398C46.2344 92.8598 45.6544 92.2398 45.1644 91.3898L41.9444 85.8299C41.4444 84.9799 41.2044 84.1699 41.2044 83.4099C41.2044 82.6499 41.4444 82.1298 41.9444 81.8498C42.4344 81.5698 43.0344 81.6298 43.7144 82.0198C44.4044 82.4198 44.9944 83.0498 45.4944 83.8998L46.8944 86.3199L53.0844 82.8898C53.5844 82.5998 54.1744 82.6599 54.8644 83.0599C55.5544 83.4599 56.1444 84.0799 56.6344 84.9399C57.1344 85.7899 57.3844 86.6098 57.3844 87.3998C57.3844 88.1898 57.1344 88.7298 56.6344 89.0098Z" stroke="#229EFF" stroke-linejoin="round"/><path d="M57.3841 87.3999C57.3841 88.1899 57.1341 88.7299 56.6341 89.0099L48.6341 93.3899C48.1341 93.6699 47.5541 93.6199 46.8941 93.2399C46.2341 92.8599 45.6541 92.2399 45.1641 91.3899L41.9441 85.83C41.4441 84.98 41.2041 84.17 41.2041 83.41C41.2041 82.65 41.4441 82.1299 41.9441 81.8499C42.4341 81.5699 43.0341 81.6299 43.7141 82.0199C44.4041 82.4199 44.9941 83.0499 45.4941 83.8999L46.8941 86.32L53.0841 82.8899C53.5841 82.5999 54.1741 82.66 54.8641 83.06C55.5541 83.46 56.1441 84.08 56.6341 84.94C57.1341 85.79 57.3841 86.6099 57.3841 87.3999Z" stroke="#229EFF" stroke-linejoin="round"/><path d="M54.614 62.83C54.514 62.93 54.414 63.01 54.304 63.08C54.004 63.25 53.664 63.2899 53.274 63.1699C52.944 63.0699 52.584 62.8599 52.184 62.5599C51.574 62.0899 51.014 61.6999 50.484 61.3999L49.784 60.9899L48.794 60.4199C48.034 60.0099 47.294 59.65 46.564 59.33C44.164 58.28 41.924 57.7099 39.834 57.6099C37.114 57.4899 34.734 58.0499 32.694 59.2699C32.534 59.3799 32.374 59.4899 32.214 59.6099C30.304 60.9999 28.804 62.9299 27.744 65.4099C26.584 68.0899 26.064 71.2599 26.174 74.9299C26.224 75.7199 26.034 76.2499 25.594 76.5399C25.154 76.8199 24.634 76.7799 24.024 76.4299L5.78405 65.8999C4.46405 65.1399 3.49403 63.9199 2.89403 62.2399C2.28403 60.5699 2.34401 59.3 3.05401 58.45L14.614 44.4699L3.05401 17.1499C2.34401 15.4699 2.28403 14.1399 2.89403 13.1699C3.11403 12.8199 3.37401 12.58 3.68401 12.45C3.91401 12.36 4.17404 12.3299 4.46404 12.3599C4.85404 12.3999 5.29405 12.5599 5.78405 12.8499L31.824 27.8899L39.384 32.2499C40.484 32.8799 41.514 33.7599 42.484 34.8899C43.444 36.0099 44.224 37.2499 44.834 38.6099L50.514 51.1099L54.034 58.8699L54.564 60.0399V60.0599C55.184 61.2899 55.194 62.22 54.614 62.83Z" stroke="#229EFF" stroke-linejoin="round"/><path d="M74.6136 52.83C74.5036 52.95 74.3836 53.0399 74.2536 53.1099L74.2136 53.1299L66.5636 56.95L54.3036 63.08C54.4136 63.01 54.5136 62.93 54.6136 62.83C55.1936 62.22 55.1836 61.29 54.5736 60.06V60.04L54.0336 58.8699L50.5136 51.1099L44.8336 38.6099C44.2236 37.2499 43.4436 36.0099 42.4836 34.8899C41.5136 33.7599 40.4836 32.8799 39.3836 32.2499L31.8236 27.8899L5.78363 12.8499C5.29363 12.5599 4.85362 12.3999 4.46362 12.3599C4.17362 12.3299 3.91359 12.36 3.68359 12.45L23.4736 2.55997L23.7036 2.43998C24.2536 2.22998 24.9436 2.35989 25.7836 2.84989L59.3836 22.2499C60.4836 22.8799 61.5136 23.7599 62.4836 24.8899C63.4436 26.0099 64.2236 27.2499 64.8336 28.6099L74.5736 50.06C75.1836 51.29 75.1936 52.22 74.6136 52.83Z" stroke="#229EFF" stroke-linejoin="round"/><path d="M46.5637 59.33C46.3637 60.42 46.2337 61.5799 46.1837 62.7899L41.6437 65.06L38.3037 66.7299L37.6037 67.08C35.5637 68.25 34.1737 70.0899 33.4237 72.6199L25.5938 76.5399C26.0337 76.2499 26.2237 75.72 26.1737 74.93C26.0637 71.26 26.5837 68.0899 27.7437 65.4099C28.8037 62.9299 30.3037 60.9999 32.2137 59.6099C32.3737 59.4899 32.5337 59.3799 32.6937 59.2699C34.7337 58.0499 37.1137 57.4899 39.8337 57.6099C41.9237 57.7099 44.1637 58.28 46.5637 59.33Z" stroke="#229EFF" stroke-linejoin="round"/><path d="M85.8037 86.7599C85.8037 92.0099 84.1938 95.5499 80.9738 97.3799L79.9637 97.8799L60.9738 107.38C64.1938 105.55 65.8037 102.01 65.8037 96.7599C65.8037 95.7199 65.7437 94.6599 65.6137 93.6099C65.0937 89.3599 63.5538 85.0099 60.9738 80.5699C58.6538 76.5699 55.9837 73.3198 52.9637 70.8398C51.7937 69.8698 50.5637 69.0199 49.2937 68.2799C47.9837 67.5299 46.7338 66.9599 45.5338 66.5699C44.8038 66.3299 44.0937 66.1599 43.4037 66.0699C41.5537 65.7899 39.8537 66.0099 38.3037 66.7299L41.6437 65.0599L46.1837 62.7899L49.7838 60.9899L50.4837 61.3999C51.0137 61.6999 51.5737 62.0899 52.1837 62.5599C52.5837 62.8599 52.9437 63.0699 53.2737 63.1699C53.6637 63.2899 54.0037 63.25 54.3037 63.08L66.5637 56.95C67.4437 57.29 68.3637 57.7399 69.2937 58.2799C73.8637 60.9199 77.7538 65.0199 80.9738 70.5699C84.1938 76.1199 85.8037 81.5199 85.8037 86.7599Z" stroke="#229EFF" stroke-linejoin="round"/></svg>