<svg width="24" height="24" viewBox="0 0 102 114" class="pr-icon-iso-duotone-secondary" xmlns="http://www.w3.org/2000/svg" stroke-width="1px" stroke-linecap="round" stroke-linejoin="round">
    <path d="M79.3201 78.7C79.0901 76.18 78.68 73.63 78.12 71.04C77.69 69.08 77.16 67.1 76.54 65.1C75.91 63.07 75.2201 61.06 74.4401 59.08H74.4301C72.7401 54.66 70.68 50.4 68.29 46.26C65.58 41.59 62.49 37.2 59.03 33.11C58.06 31.95 57.05 30.82 56.02 29.71C51.32 24.67 46.3001 20.61 40.9601 17.52C35.7501 14.52 30.84 12.79 26.24 12.35C26.12 12.33 26.01 12.32 25.89 12.31C21.85 11.98 18.27 12.53 15.13 13.96L13.63 14.71C10.15 16.69 7.4 19.79 5.37 24.01C3.35 28.24 2.33008 33.41 2.33008 39.54C2.33008 45.67 3.35 52.02 5.37 58.59C7.4 65.15 10.15 71.43 13.63 77.43C17.11 83.42 21.19 88.94 25.89 93.98C30.59 99.02 35.6201 103.08 40.9601 106.17C46.3001 109.25 51.32 110.99 56.02 111.38C60.25 111.72 63.9801 111.11 67.2201 109.54C67.5801 109.37 67.94 109.18 68.29 108.98C71.29 107.27 73.76 104.72 75.67 101.34C75.98 100.81 76.27 100.25 76.54 99.68C78.57 95.45 79.5901 90.28 79.5901 84.15C79.5901 82.35 79.5001 80.53 79.3201 78.7ZM21.65 36.29C21.65 35.33 21.9201 34.69 22.4701 34.38C22.4901 34.37 22.52 34.35 22.54 34.35C23.07 34.08 23.75 34.17 24.54 34.64C25.38 35.12 26.07 35.83 26.62 36.78C27.17 37.72 27.4401 38.67 27.4401 39.63V42.74C29.2401 41.71 31.32 41.32 33.67 41.57C36.02 41.82 38.4501 42.67 40.9601 44.12C41.2601 44.29 41.5501 44.47 41.8501 44.66C45.1701 46.74 48.24 49.7 51.05 53.49C51.65 54.31 52.23 55.14 52.77 55.98C55.02 59.4 56.8 63.04 58.15 66.89C58.32 67.34 58.4101 67.75 58.4401 68.12C58.5001 68.61 58.43 69.03 58.24 69.39C57.92 70.01 57.3801 70.29 56.6001 70.21C55.8901 70.17 55.1701 69.79 54.4301 69.07C53.6901 68.35 53.1601 67.48 52.8401 66.49C52.6101 65.8 52.3501 65.11 52.0701 64.44C51.0401 61.91 49.68 59.52 48.01 57.27C46.29 54.97 44.4301 53.12 42.4301 51.71C41.9501 51.36 41.4601 51.05 40.9601 50.76C39.2201 49.76 37.5501 49.18 35.9401 49.03C34.3301 48.87 32.8801 49.13 31.5901 49.79L34.2001 51.29C35.0401 51.78 35.73 52.49 36.28 53.43C36.82 54.38 37.1001 55.33 37.1001 56.29C37.1001 57.25 36.82 57.89 36.28 58.2C35.73 58.51 35.0401 58.43 34.2001 57.94L27.2001 53.91L24.54 52.37C23.71 51.88 23.0101 51.17 22.4701 50.23C21.9201 49.28 21.65 48.33 21.65 47.37V36.29ZM59.16 88.81C58.42 89.23 57.5 89.13 56.41 88.5L43.0601 80.79L25.51 70.65C24.41 70.02 23.5 69.07 22.76 67.79C22.02 66.51 21.65 65.25 21.65 63.99C21.65 62.73 22.02 61.9 22.76 61.47C23.5 61.05 24.41 61.16 25.51 61.79L32.8401 66.02L56.41 79.63C57.5 80.26 58.42 81.22 59.16 82.49C59.9 83.77 60.27 85.04 60.27 86.29C60.27 87.54 59.9 88.39 59.16 88.81Z" class="pr-icon-iso-duotone-primary-stroke" stroke-linejoin="round"/>
    <path d="M60.2704 86.29C60.2704 87.55 59.9004 88.39 59.1604 88.81C58.4204 89.23 57.5004 89.13 56.4104 88.5L43.0604 80.79L25.5104 70.65C24.4104 70.02 23.5004 69.07 22.7604 67.79C22.0204 66.51 21.6504 65.25 21.6504 63.99C21.6504 62.73 22.0204 61.9 22.7604 61.47C23.5004 61.05 24.4104 61.16 25.5104 61.79L32.8405 66.02L56.4104 79.63C57.5004 80.26 58.4204 81.22 59.1604 82.49C59.9004 83.77 60.2704 85.04 60.2704 86.29Z" class="pr-icon-iso-duotone-primary-stroke" stroke-linejoin="round"/>
    <path d="M36.2804 53.4301C36.8204 54.3801 37.1005 55.3301 37.1005 56.2901C37.1005 57.2501 36.8204 57.8901 36.2804 58.2001C35.7304 58.5101 35.0404 58.4301 34.2004 57.9401L27.2004 53.9101L24.5404 52.3701C23.7104 51.8801 23.0105 51.1701 22.4705 50.2301C21.9205 49.2801 21.6504 48.3301 21.6504 47.3701V36.2901C21.6504 35.3301 21.9205 34.6901 22.4705 34.3801C22.4905 34.3701 22.5204 34.3501 22.5404 34.3501C23.0704 34.0801 23.7504 34.1701 24.5404 34.6401C25.3804 35.1201 26.0704 35.8301 26.6204 36.7801C27.1704 37.7201 27.4404 38.6701 27.4404 39.6301V42.7401C29.2404 41.7101 31.3204 41.3201 33.6704 41.5701C36.0204 41.8201 38.4504 42.6701 40.9604 44.1201C41.2604 44.2901 41.5505 44.4701 41.8505 44.6601L31.5905 49.7901L34.2004 51.2901C35.0404 51.7801 35.7304 52.4901 36.2804 53.4301Z" class="pr-icon-iso-duotone-primary-stroke" stroke-linejoin="round"/>
    <path d="M58.4398 68.12C58.4998 68.61 58.4297 69.03 58.2397 69.39C57.9197 70.01 57.3799 70.29 56.5999 70.21C55.8899 70.17 55.1698 69.79 54.4298 69.07C53.6898 68.35 53.1598 67.48 52.8398 66.49C52.6098 65.8 52.3498 65.11 52.0698 64.44C51.0398 61.91 49.6798 59.52 48.0098 57.27C46.2898 54.97 44.4298 53.12 42.4298 51.71C41.9498 51.36 41.4598 51.05 40.9598 50.76C39.2198 49.76 37.5498 49.18 35.9398 49.03C34.3298 48.87 32.8798 49.13 31.5898 49.79L41.8499 44.66C45.1699 46.74 48.2398 49.7 51.0498 53.49C51.6498 54.31 52.2298 55.14 52.7698 55.98C55.0198 59.4 56.7998 63.04 58.1498 66.89C58.3198 67.34 58.4098 67.75 58.4398 68.12Z" class="pr-icon-iso-duotone-primary-stroke" stroke-linejoin="round"/>
    <path d="M99.5909 74.15C99.5909 80.28 98.5709 85.45 96.5409 89.68C94.5209 93.9 91.7609 97 88.2909 98.98L86.8209 99.72L68.2909 108.98C71.2909 107.27 73.7609 104.72 75.6709 101.34C75.9809 100.81 76.2709 100.25 76.5409 99.68C78.5709 95.45 79.5909 90.28 79.5909 84.15C79.5909 82.35 79.5009 80.53 79.3209 78.7C79.0909 76.18 78.6808 73.63 78.1208 71.04C77.6908 69.08 77.1609 67.1 76.5409 65.1C75.9109 63.07 75.2209 61.06 74.4409 59.08H74.4309C72.7409 54.66 70.6809 50.4 68.2909 46.26C65.5809 41.59 62.4909 37.2 59.0309 33.11C58.0609 31.95 57.0509 30.82 56.0209 29.71C51.3209 24.67 46.3009 20.61 40.9609 17.52C35.7509 14.52 30.8408 12.79 26.2408 12.35C26.1208 12.33 26.0109 12.32 25.8909 12.31C21.8509 11.98 18.2709 12.53 15.1309 13.96L34.4908 4.26002C37.7808 2.61002 41.5709 1.96001 45.8909 2.31001C50.5909 2.70001 55.6209 4.44002 60.9609 7.52002C66.3009 10.61 71.3209 14.67 76.0209 19.71C80.7209 24.75 84.8109 30.27 88.2909 36.26C91.7609 42.26 94.5209 48.54 96.5409 55.1C98.5709 61.67 99.5909 68.01 99.5909 74.15Z" class="pr-icon-iso-duotone-primary-stroke" stroke-linejoin="round"/>
</svg>