<svg width="24" height="24" viewBox="0 0 76 116" class="pr-icon-iso-duotone-secondary" xmlns="http://www.w3.org/2000/svg" stroke-width="1px" stroke-linecap="round" stroke-linejoin="round">
    <path d="M53.6764 88.06C53.6764 89.25 53.5164 90.27 53.1864 91.13C52.8664 91.98 52.3164 92.63 51.5364 93.07L32.7864 103.76L15.8064 113.44C14.3864 114.25 12.5764 114.02 10.3764 112.75C8.1764 111.48 6.3564 109.62 4.9364 107.16C3.5164 104.71 2.79639 102.21 2.79639 99.69C2.79639 97.17 3.5164 95.5 4.9364 94.68L35.2264 77.41L4.9364 25.17C3.5164 22.71 2.79639 20.22 2.79639 17.69C2.79639 15.16 3.5164 13.5 4.9364 12.69L5.36639 12.48C6.71639 11.93 8.3964 12.23 10.3764 13.38C12.5764 14.65 14.3864 16.51 15.8064 18.97L46.7064 72.27L51.5364 80.59C52.3164 81.93 52.8664 83.21 53.1864 84.44C53.5164 85.67 53.6764 86.88 53.6764 88.06Z" class="pr-icon-iso-duotone-primary-stroke" stroke-linejoin="round"/>
    <path d="M73.6765 78.06C73.6765 79.25 73.5165 80.27 73.1865 81.13C72.8665 81.98 72.3164 82.63 71.5364 83.07L35.8065 103.44L35.3765 103.65L15.8065 113.44L32.7864 103.76L51.5364 93.07C52.3164 92.63 52.8665 91.98 53.1865 91.13C53.5165 90.27 53.6765 89.25 53.6765 88.06C53.6765 86.87 53.5165 85.67 53.1865 84.44C52.8665 83.21 52.3164 81.93 51.5364 80.59L46.7065 72.27L15.8065 18.97C14.3865 16.51 12.5765 14.65 10.3765 13.38C8.39646 12.23 6.71646 11.93 5.36646 12.48L24.9365 2.69C26.3565 1.88 28.1765 2.1 30.3765 3.38C32.5765 4.65 34.3865 6.51 35.8065 8.97L71.5364 70.59C72.3164 71.93 72.8665 73.21 73.1865 74.44C73.5165 75.67 73.6765 76.88 73.6765 78.06Z" class="pr-icon-iso-duotone-primary-stroke" stroke-linejoin="round"/>
</svg>