<svg width="48" height="48" viewBox="0 0 102 116" class="pr-icon-iso-duotone-secondary"
     xmlns="http://www.w3.org/2000/svg" stroke-width="1px" stroke-linecap="round" stroke-linejoin="round">
    <path d="M9.04901 16.6398V72.9498L2.03906 68.8898V12.5898L9.04901 16.6398Z" class="pr-icon-iso-duotone-primary-stroke" stroke-linejoin="round"/>
    <path d="M40.5991 34.8498V91.1498L33.5891 87.0998V30.7998L39.5691 34.2598L40.5991 34.8498Z" class="pr-icon-iso-duotone-primary-stroke" stroke-linejoin="round"/>
    <path d="M54.6091 42.9496V99.2396L44.0991 93.1696V36.8696L46.5791 38.2996L53.5891 42.3496L54.6091 42.9496Z" class="pr-icon-iso-duotone-primary-stroke" stroke-linejoin="round"/>
    <path d="M79.149 57.11V113.41L68.629 107.34V51.04L74.6091 54.49L78.119 56.52L79.149 57.11Z" class="pr-icon-iso-duotone-primary-stroke" stroke-linejoin="round"/>
    <path d="M29.049 6.63983L22.0391 10.1498L9.04901 16.6398L2.03906 12.5898L22.0391 2.58984L29.049 6.63983Z" class="pr-icon-iso-duotone-primary-stroke" stroke-linejoin="round"/>
    <path d="M39.5691 12.7097L32.5591 16.2197L29.0491 17.9697L22.0391 21.4797L19.5691 22.7097L12.5591 18.6597L22.0391 13.9197L29.0491 10.4197L32.5591 8.65967L39.5691 12.7097Z" class="pr-icon-iso-duotone-primary-stroke" stroke-linejoin="round"/>
    <path d="M46.5791 16.76L43.0691 18.52L39.5691 20.27L32.5591 23.77L29.0491 25.52L26.5791 26.76L23.0691 24.73L29.0491 21.74L32.5591 19.99L39.5691 16.48L43.0691 14.73L46.5791 16.76Z" class="pr-icon-iso-duotone-primary-stroke" stroke-linejoin="round"/>
    <path d="M60.5991 24.8498L53.5891 28.3598L46.5791 31.8598L43.0691 33.6198L40.5991 34.8498L39.5691 34.2598L33.5891 30.7998L39.5691 27.8098L43.0691 26.0598L46.5791 24.3098L53.5891 20.7998L60.5991 24.8498Z" class="pr-icon-iso-duotone-primary-stroke" stroke-linejoin="round"/>
    <path d="M74.6091 32.9496L64.0991 38.1996L60.5991 39.9496L54.6091 42.9496L53.5891 42.3496L46.5791 38.2996L44.0991 36.8696L46.5791 35.6396L53.5891 32.1396L60.5991 28.6196L64.0991 26.8696L74.6091 32.9496Z" class="pr-icon-iso-duotone-primary-stroke" stroke-linejoin="round"/>
    <path d="M74.6091 32.9497V36.7297L64.0991 41.9797L58.1191 44.9697V97.4897L54.6091 99.2397V42.9497L60.5991 39.9497L64.0991 38.1997L74.6091 32.9497Z" class="pr-icon-iso-duotone-primary-stroke" stroke-linejoin="round"/>
    <path d="M81.619 36.9897L78.119 38.7397L74.6091 40.5097L64.0991 45.7597L61.619 46.9897L60.5991 46.3997L58.119 44.9697L64.0991 41.9797L74.6091 36.7297L78.119 34.9697L81.619 36.9897Z" class="pr-icon-iso-duotone-primary-stroke" stroke-linejoin="round"/>
    <path d="M99.149 47.11L88.629 52.37L81.619 55.89L79.149 57.11L78.119 56.52L74.6091 54.49L68.629 51.04L74.6091 48.05L78.119 46.3L81.619 44.55L88.629 41.04L99.149 47.11Z" class="pr-icon-iso-duotone-primary-stroke" stroke-linejoin="round"/>
    <path d="M99.149 47.1099V103.41L79.149 113.41V57.1099L81.619 55.8899L88.629 52.3699L99.149 47.1099Z" class="pr-icon-iso-duotone-primary-stroke" stroke-linejoin="round"/>
    <path d="M81.619 36.9897V44.5497L78.119 46.2997L74.6091 48.0497L68.629 51.0397V99.7897L61.619 103.29V46.9897L64.0991 45.7598L74.6091 40.5098L78.119 38.7397L81.619 36.9897Z" class="pr-icon-iso-duotone-primary-stroke" stroke-linejoin="round"/>
    <path d="M61.619 46.9897V103.29L58.119 101.27V44.9697L60.5991 46.3997L61.619 46.9897Z" class="pr-icon-iso-duotone-primary-stroke" stroke-linejoin="round"/>
    <path d="M60.5991 24.8496V28.6196L53.5891 32.1396L46.5791 35.6396L44.0991 36.8696V89.3996L40.5991 91.1496V34.8496L43.0691 33.6196L46.5791 31.8596L53.5891 28.3596L60.5991 24.8496Z" class="pr-icon-iso-duotone-primary-stroke" stroke-linejoin="round"/>
    <path d="M46.5791 16.7598V24.3098L43.0691 26.0598L39.5691 27.8098L33.5891 30.7998V79.5598L26.5791 83.0598V26.7598L29.0491 25.5198L32.5591 23.7698L39.5691 20.2698L43.0691 18.5198L46.5791 16.7598Z" class="pr-icon-iso-duotone-primary-stroke" stroke-linejoin="round"/>
    <path d="M39.5691 12.71V16.48L32.5591 19.99L29.0491 21.74L23.0691 24.73V77.27L19.5691 79.02V22.71L22.0391 21.48L29.0491 17.97L32.5591 16.22L39.5691 12.71Z" class="pr-icon-iso-duotone-primary-stroke" stroke-linejoin="round"/>
    <path d="M29.0491 6.63965V10.4196L22.0391 13.9196L12.5591 18.6597V71.1996L9.04907 72.9496V16.6396L22.0391 10.1497L29.0491 6.63965Z" class="pr-icon-iso-duotone-primary-stroke" stroke-linejoin="round"/>
    <path d="M19.5691 22.7097V79.0197L12.5591 74.9597V18.6597L19.5691 22.7097Z" class="pr-icon-iso-duotone-primary-stroke" stroke-linejoin="round"/>
    <path d="M26.5791 26.76V83.06L23.0691 81.03V24.73L26.5791 26.76Z" class="pr-icon-iso-duotone-primary-stroke" stroke-linejoin="round"/>
</svg>