<svg width="24" height="24" viewBox="0 0 99 121" class="pr-icon-iso-duotone-secondary" xmlns="http://www.w3.org/2000/svg" stroke-width="1px" stroke-linecap="round" stroke-linejoin="round">
    <path d="M9.48071 13.0201H9.45068C9.22068 13.1501 8.99077 13.3002 8.79077 13.4802L10.2708 12.7402C10.0008 12.8002 9.73071 12.8901 9.48071 13.0201ZM68.1306 78.4902C68.3606 78.4302 68.5507 78.3302 68.7207 78.2002L68.1306 78.4902Z" class="pr-icon-iso-duotone-primary-stroke" stroke-linejoin="round"/>
    <path d="M76.9207 109.52C76.9207 110.73 76.5606 111.54 75.8506 111.95C75.1406 112.36 74.2507 112.26 73.2007 111.65L65.7507 107.35V115.89C65.7507 117.1 65.4007 117.91 64.6807 118.32C63.9707 118.72 63.0808 118.62 62.0308 118.01C60.9808 117.4 60.0906 116.48 59.3806 115.25C58.6606 114.02 58.3108 112.8 58.3108 111.59V103.05L52.8806 99.9201L50.8606 98.7502C49.8106 98.1402 48.9207 97.2201 48.2107 95.9901C47.5007 94.7601 47.1406 93.5401 47.1406 92.3301C47.1406 91.1201 47.5007 90.3101 48.2107 89.9001L48.4307 89.7901C49.1007 89.5201 49.9106 89.6601 50.8606 90.2101L58.3108 94.51V85.9601C58.3108 85.5101 58.3607 85.1201 58.4607 84.7801C58.6207 84.2001 58.9306 83.7901 59.3806 83.5401L59.6006 83.4301C59.7706 83.3601 59.9506 83.3201 60.1406 83.3001C60.4506 83.2701 60.7806 83.3201 61.1406 83.4301H61.1506C61.4306 83.5301 61.7208 83.6601 62.0308 83.8401C63.0808 84.4501 63.9707 85.3701 64.6807 86.6001C65.4007 87.8301 65.7507 89.05 65.7507 90.26V98.8001L73.2007 103.1C74.2507 103.71 75.1406 104.63 75.8506 105.86C76.5606 107.09 76.9207 108.31 76.9207 109.52Z" class="pr-icon-iso-duotone-primary-stroke" stroke-linejoin="round"/>
    <path d="M15.3606 22.7203L11.4006 24.7003L14.5608 22.2603L15.3606 22.7203Z" class="pr-icon-iso-duotone-primary-stroke" stroke-linejoin="round"/>
    <path d="M60.5408 53.0802L41.0806 41.8402L22.4707 31.0902L11.4006 24.7002L15.3606 22.7202L22.4707 26.8302L41.0806 37.5702L57.3806 46.9802L60.5408 53.0802Z" class="pr-icon-iso-duotone-primary-stroke" stroke-linejoin="round"/>
    <path d="M85.6006 107.08C85.4406 107.65 85.1307 108.06 84.6807 108.32L84.4607 108.43L64.6807 118.32C65.4007 117.91 65.7507 117.1 65.7507 115.89V107.35L73.2007 111.65C74.2507 112.26 75.1406 112.36 75.8506 111.95L82.9207 108.41H82.9307L85.6006 107.08Z" class="pr-icon-iso-duotone-primary-stroke" stroke-linejoin="round"/>
    <path d="M58.4607 84.7803C58.3607 85.1203 58.3108 85.5103 58.3108 85.9603V94.5103L50.8606 90.2103C49.9106 89.6603 49.1007 89.5203 48.4307 89.7903L58.4607 84.7803Z" class="pr-icon-iso-duotone-primary-stroke" stroke-linejoin="round"/>
    <path d="M85.7507 80.2601V88.8002L77.8208 92.7701L65.7507 98.8002V90.2601C65.7507 89.0501 65.4007 87.8302 64.6807 86.6002C63.9707 85.3702 63.0808 84.4502 62.0308 83.8402C61.7208 83.6602 61.4306 83.5302 61.1506 83.4302H61.1406C60.7806 83.3202 60.4506 83.2702 60.1406 83.3002C59.9506 83.3202 59.7706 83.3602 59.6006 83.4302L79.3806 73.5402C80.0906 73.1302 80.9808 73.2302 82.0308 73.8402C83.0808 74.4502 83.9707 75.3702 84.6807 76.6002C85.4007 77.8302 85.7507 79.0501 85.7507 80.2601Z" class="pr-icon-iso-duotone-primary-stroke" stroke-linejoin="round"/>
    <path d="M60.1206 83.1698L59.3806 83.5398C58.9306 83.7898 58.6207 84.1998 58.4607 84.7698L48.4307 89.7898L48.2107 89.8998C47.5007 90.3098 47.1406 91.1198 47.1406 92.3298C47.1406 93.5398 47.5007 94.7599 48.2107 95.9899C48.9207 97.2199 49.8106 98.1399 50.8606 98.7499L52.8806 99.9198L42.4006 104.99C42.8906 104.17 42.8508 103.01 42.3008 101.5C41.4308 99.1399 40.7806 96.8099 40.3406 94.4899C39.9106 92.1799 39.6907 89.9898 39.6907 87.9198C39.6907 86.7798 39.7406 85.6898 39.8306 84.6398C39.8606 84.3198 39.9007 84.0198 39.9507 83.7198C40.0607 83.0398 40.2207 82.4098 40.4407 81.8398C40.6907 81.0598 40.6706 80.1598 40.3906 79.1398C40.1106 78.1298 39.6006 77.1898 38.8606 76.3298L35.9707 73.0698L50.8606 65.6299V66.7098C50.8606 67.9198 51.3307 69.1299 52.2607 70.3499C53.1907 71.5599 54.1807 72.2898 55.2407 72.5498C56.7207 72.8498 58.2606 73.3998 59.8806 74.1898C59.8606 74.3398 59.8406 74.4898 59.8306 74.6398C59.7406 75.6898 59.6907 76.7798 59.6907 77.9198C59.6907 79.5898 59.8306 81.3398 60.1206 83.1698Z" class="pr-icon-iso-duotone-primary-stroke" stroke-linejoin="round"/>
    <path d="M69.0608 57.3499C68.7808 56.2699 68.3608 55.1699 67.8008 54.0599L63.1506 44.86C62.4606 43.47 61.6106 42.2099 60.5906 41.0899C59.5606 39.9599 58.4906 39.0799 57.3806 38.4299L41.0806 29.0199L23.2908 18.7599L22.4707 18.2799L14.5608 13.7199C13.4508 13.0699 12.3806 12.7199 11.3506 12.6599C10.9706 12.6399 10.6108 12.67 10.2708 12.74L8.79077 13.48L4.14062 17.3099C3.58062 17.7699 3.16062 18.3799 2.88062 19.1499C2.60062 19.9099 2.4707 20.7899 2.4707 21.7899V75.0799C2.4707 77.4299 3.19063 79.86 4.65063 82.38C6.11063 84.89 7.86064 86.7399 9.91064 87.9199L40.0708 105.33C41.1208 105.94 41.9006 105.84 42.3906 105.02C42.3906 105.02 42.394 105.013 42.4006 105C42.8906 104.17 42.8508 103.01 42.3008 101.5C41.4308 99.14 40.7806 96.81 40.3406 94.49C39.9106 92.18 39.6907 89.9899 39.6907 87.9199C39.6907 86.7799 39.7406 85.6899 39.8306 84.6399C39.8606 84.3199 39.9007 84.0199 39.9507 83.7199C40.0607 83.0399 40.2207 82.4099 40.4407 81.8399C40.6907 81.0599 40.6706 80.1599 40.3906 79.1399C40.1106 78.1299 39.6006 77.1899 38.8606 76.3299L35.9707 73.0699L26.4807 73.0299C25.8907 73.0299 25.3107 72.8599 24.7307 72.5099C24.1007 72.1399 23.4706 71.5599 22.8506 70.7799C21.6706 69.2799 21.0806 67.7099 21.0806 66.0699V38.8399L22.4707 39.6399L41.0806 50.38L50.8606 56.0299V66.7099C50.8606 67.9199 51.3307 69.1299 52.2607 70.3499C53.1907 71.5599 54.1807 72.2899 55.2407 72.5499C56.7207 72.8499 58.2606 73.3999 59.8806 74.1899C59.9606 74.2199 60.0406 74.2599 60.1206 74.2999C61.8306 75.1399 63.4906 76.21 65.1006 77.5C66.2206 78.43 67.2306 78.76 68.1306 78.49L68.7207 78.1999C69.2207 77.7999 69.4707 77.1299 69.4707 76.1799V60.4799C69.4707 59.4799 69.3308 58.4399 69.0508 57.3499H69.0608ZM41.0806 41.8399L22.4707 31.0899L11.4006 24.6999L14.5608 22.2599L15.3606 22.7199L22.4707 26.8299L41.0806 37.5699L57.3806 46.9799L60.5408 53.0799L41.0806 41.8399Z" class="pr-icon-iso-duotone-primary-stroke" stroke-linejoin="round"/>
    <path d="M89.4807 50.4801V66.18C89.4807 67.46 89.0306 68.2301 88.1306 68.4901L68.7307 78.19C69.2307 77.8 69.4807 77.13 69.4807 76.18V60.4801C69.4807 59.4801 69.3408 58.4401 69.0608 57.3501C68.7808 56.2701 68.3608 55.17 67.8008 54.06L63.1506 44.8601C62.4606 43.4701 61.6106 42.2101 60.5906 41.0901C59.5606 39.9601 58.4906 39.08 57.3806 38.43L41.0806 29.02L23.2908 18.76L22.4707 18.28L14.5608 13.7201C13.4508 13.0701 12.3806 12.72 11.3506 12.66C10.9706 12.64 10.6108 12.6701 10.2708 12.7401C10.0008 12.8001 9.73071 12.89 9.48071 13.02L29.2908 3.12008L29.3806 3.07003C29.9506 2.76003 30.6006 2.62 31.3506 2.66C32.3806 2.72 33.4508 3.07006 34.5608 3.72006L77.3806 28.43C78.4906 29.08 79.5606 29.9601 80.5906 31.0901C81.6106 32.2101 82.4606 33.4701 83.1506 34.8601L87.8008 44.06C88.3608 45.17 88.7808 46.2701 89.0608 47.3501C89.3408 48.4401 89.4807 49.4801 89.4807 50.4801Z" class="pr-icon-iso-duotone-primary-stroke" stroke-linejoin="round"/>
    <path d="M50.8606 63.0498V65.6299L35.9707 73.0698L26.4807 73.0298C25.8907 73.0298 25.3107 72.8598 24.7307 72.5098C24.1007 72.1398 23.4706 71.5598 22.8506 70.7798C21.6706 69.2798 21.0806 67.7098 21.0806 66.0698V38.8398L22.4707 39.6398L41.0806 50.3799V56.0698C41.0806 57.7098 41.6706 59.2798 42.8506 60.7798C44.0306 62.2698 45.2407 63.0298 46.4807 63.0298L50.8606 63.0498Z" class="pr-icon-iso-duotone-primary-stroke" stroke-linejoin="round"/>
    <path d="M42.4006 105L42.0007 105.19" class="pr-icon-iso-duotone-primary-stroke" stroke-linejoin="round"/>
    <path d="M96.9207 99.5198C96.9207 100.73 96.5606 101.54 95.8506 101.95L95.6306 102.06L85.6006 107.07L82.9307 108.41H82.9207L75.8506 111.95C76.5606 111.54 76.9207 110.73 76.9207 109.52C76.9207 108.31 76.5606 107.09 75.8506 105.86C75.1406 104.63 74.2507 103.71 73.2007 103.1L65.7507 98.7998L77.8208 92.7698L85.7507 88.7998L93.2007 93.0999C94.2507 93.7099 95.1406 94.6299 95.8506 95.8599C96.5606 97.0899 96.9207 98.3098 96.9207 99.5198Z" class="pr-icon-iso-duotone-primary-stroke" stroke-linejoin="round"/>
    <path d="M9.48071 13.02L9.45068 13.03" class="pr-icon-iso-duotone-primary-stroke" stroke-linejoin="round"/>
</svg>