<svg width="24" height="24" viewBox="0 0 110 109" class="pr-icon-iso-duotone-secondary" xmlns="http://www.w3.org/2000/svg" stroke-width="1px" stroke-linecap="round" stroke-linejoin="round">
    <path d="M107.91 73.9194C107.91 80.3794 106.57 85.5794 103.87 89.5294C102.22 91.9394 100.21 93.7494 97.8297 94.9294L97.5098 95.0895L77.8297 104.939C80.2097 103.749 82.2198 101.939 83.8698 99.5294C86.5698 95.5794 87.9097 90.3794 87.9097 83.9194C87.9097 79.2494 87.2097 74.4094 85.7897 69.4194C85.2597 67.5194 84.6098 65.5994 83.8698 63.6494C81.1798 56.5894 77.5197 50.0594 72.8997 44.0694C72.0697 42.9794 71.1797 42.3294 70.2397 42.1194C69.7597 42.0094 69.3497 42.0394 68.9897 42.1994L80.4498 36.4695L88.7797 32.2994L88.9398 32.2195C89.3098 32.0395 89.7397 32.0094 90.2397 32.1194C91.1797 32.3294 92.0697 32.9794 92.8997 34.0694C97.5197 40.0594 101.18 46.5894 103.87 53.6494C106.57 60.7094 107.91 67.4694 107.91 73.9194Z" class="pr-icon-iso-duotone-primary-stroke" stroke-linejoin="round"/>
    <path d="M87.9097 83.9194C87.9097 90.3794 86.5697 95.5794 83.8697 99.5294C82.2197 101.939 80.2097 103.749 77.8297 104.939C76.3297 105.679 74.6897 106.179 72.8997 106.439C72.0697 106.569 71.1797 106.199 70.2397 105.309C69.2897 104.419 68.5797 103.299 68.1097 101.939C67.6897 100.679 67.6297 99.5894 67.9297 98.6794C68.2197 97.7594 68.7897 97.2395 69.6197 97.0995C73.1097 96.5395 75.8497 94.7395 77.8297 91.7095C79.8197 88.6695 80.8097 84.7094 80.8097 79.8194C80.8097 79.6494 80.8097 79.4794 80.7997 79.3094C80.7397 74.5794 79.7497 69.6394 77.8297 64.4894C75.8497 59.1694 73.1097 54.2094 69.6197 49.6094C68.7897 48.5194 68.2197 47.3495 67.9297 46.0895C67.6297 44.8295 67.6897 43.8094 68.1097 43.0294C68.2897 42.7194 68.4997 42.4794 68.7497 42.3194L68.9897 42.1994C69.3497 42.0394 69.7597 42.0094 70.2397 42.1194C71.1797 42.3294 72.0697 42.9794 72.8997 44.0694C77.5197 50.0594 81.1797 56.5894 83.8697 63.6494C84.6097 65.5994 85.2597 67.5194 85.7897 69.4194C87.2097 74.4094 87.9097 79.2494 87.9097 83.9194Z" class="pr-icon-iso-duotone-primary-stroke" stroke-linejoin="round"/>
    <path d="M48.0298 72.3095C48.0298 73.4095 47.7398 74.1495 47.1498 74.5395C47.1198 74.5595 47.0898 74.5796 47.0598 74.5996C46.3998 74.9696 45.5798 74.8695 44.5698 74.2895C43.5598 73.6995 42.7298 72.8496 42.0798 71.7296L38.3898 65.3594L32.1298 54.5695C31.7798 53.9595 31.5098 53.3496 31.3298 52.7296C31.1598 52.1196 31.0698 51.5395 31.0698 50.9995V34.7895C31.0698 33.6395 31.4098 32.8696 32.0898 32.4796C32.7698 32.0896 33.6098 32.1895 34.6198 32.7695C35.6298 33.3495 36.4698 34.2295 37.1498 35.3995C37.8298 36.5795 38.1698 37.7395 38.1698 38.8995V53.5695L47.0598 68.8895C47.7098 70.0195 48.0298 71.1595 48.0298 72.3095Z" class="pr-icon-iso-duotone-primary-stroke" stroke-linejoin="round"/>
    <path d="M66.0999 64.8094C65.6899 61.8694 65.0099 58.8794 64.0599 55.8294C63.4899 54.0094 62.8599 52.2094 62.1599 50.4394C61.0099 47.5294 59.6799 44.6994 58.1699 41.9394C57.8599 41.3794 57.5499 40.8194 57.2299 40.2694C55.3799 37.0894 53.3299 34.0694 51.0699 31.2094C49.8199 29.6094 48.4899 28.0694 47.0999 26.5694C43.2199 22.3994 39.0599 19.0294 34.6199 16.4594C31.1999 14.4894 27.9499 13.1794 24.8599 12.5494C23.9399 12.3594 23.03 12.2294 22.14 12.1594C18.84 11.9094 15.9099 12.3493 13.3499 13.4993L12.0199 14.1594C9.1399 15.7994 6.85993 18.3594 5.17993 21.8294C3.48993 25.3094 2.6499 29.5994 2.6499 34.6894C2.6499 39.7794 3.48993 45.0494 5.17993 50.4694C6.85993 55.8994 9.1399 61.0894 12.0199 66.0394C14.8899 70.9894 18.26 75.5594 22.14 79.7294C26.02 83.9094 30.1799 87.2794 34.6199 89.8394C39.0599 92.4094 43.2199 93.8394 47.0999 94.1394C50.9799 94.4494 54.3499 93.7794 57.2299 92.1394C60.0999 90.4994 62.3799 87.9494 64.0599 84.4694C64.1799 84.2294 64.2899 83.9893 64.3799 83.7493C65.8599 80.4093 66.5999 76.3593 66.5999 71.6093C66.5999 69.3793 66.4399 67.1094 66.0999 64.8094ZM47.1499 74.5394C47.1499 74.5394 47.0899 74.5794 47.0599 74.5994C46.3999 74.9694 45.5799 74.8694 44.5699 74.2894C43.5599 73.6994 42.7299 72.8494 42.0799 71.7294L38.39 65.3593L32.1299 54.5694C31.7799 53.9594 31.5099 53.3494 31.3299 52.7294C31.1599 52.1194 31.0699 51.5393 31.0699 50.9993V34.7894C31.0699 33.6394 31.4099 32.8694 32.0899 32.4794C32.7699 32.0894 33.6099 32.1894 34.6199 32.7694C35.6299 33.3494 36.4699 34.2294 37.1499 35.3994C37.8299 36.5794 38.1699 37.7394 38.1699 38.8994V53.5694L47.0599 68.8894C47.7099 70.0194 48.0299 71.1594 48.0299 72.3094C48.0299 73.4594 47.7399 74.1494 47.1499 74.5394Z" class="pr-icon-iso-duotone-primary-stroke" stroke-linejoin="round"/>
    <path d="M80.8001 79.3095C79.7401 80.4395 78.5501 81.3895 77.2301 82.1395L57.2301 92.1395C60.1001 90.4995 62.3801 87.9495 64.0601 84.4695C64.1801 84.2295 64.2901 83.9894 64.3801 83.7494C65.8601 80.4094 66.6001 76.3594 66.6001 71.6094C66.6001 69.3794 66.4401 67.1095 66.1001 64.8095C65.6901 61.8695 65.0101 58.8795 64.0601 55.8295C63.4901 54.0095 62.8601 52.2095 62.1601 50.4395C61.0101 47.5295 59.6801 44.6995 58.1701 41.9395C57.8601 41.3795 57.5501 40.8195 57.2301 40.2695C55.3801 37.0895 53.3301 34.0695 51.0701 31.2095C49.8201 29.6095 48.4901 28.0695 47.1001 26.5695C43.2201 22.3995 39.0601 19.0295 34.6201 16.4595C31.2001 14.4895 27.9501 13.1795 24.8601 12.5495C23.9401 12.3595 23.0301 12.2295 22.1401 12.1595C18.8401 11.9095 15.9101 12.3494 13.3501 13.4994L32.0201 4.15947C34.8901 2.52947 38.2601 1.85947 42.1401 2.15947C46.0201 2.45947 50.1801 3.89952 54.6201 6.45952C59.0601 9.02952 63.2201 12.3995 67.1001 16.5695C70.9801 20.7495 74.3501 25.3095 77.2301 30.2695C78.4001 32.2995 79.4801 34.3595 80.4501 36.4695L68.9901 42.1995L68.7501 42.3195C68.5001 42.4795 68.2901 42.7195 68.1101 43.0295C67.6901 43.8095 67.6301 44.8295 67.9301 46.0895C68.2201 47.3495 68.7901 48.5194 69.6201 49.6094C73.1101 54.2094 75.8501 59.1694 77.8301 64.4894C79.7501 69.6394 80.7401 74.5795 80.8001 79.3095Z" class="pr-icon-iso-duotone-primary-stroke" stroke-linejoin="round"/>
</svg>