<svg width="24" height="24" viewBox="0 0 88 119" class="pr-icon-iso-duotone-secondary" xmlns="http://www.w3.org/2000/svg" stroke-width="1px" stroke-linecap="round" stroke-linejoin="round">
    <path d="M44.0601 52.8901L33.8101 58.7301L45.66 52.8001C45.04 52.6101 44.5001 52.6301 44.0601 52.8901Z" class="pr-icon-iso-duotone-primary-stroke" stroke-linejoin="round"/>
    <path d="M65.55 53.3899C65.38 51.4699 64.7101 49.4999 63.5301 47.4599C62.8601 46.3099 62.13 45.3099 61.33 44.4499C60.48 43.5299 59.54 42.7799 58.54 42.1999L45.74 34.8099L37.67 30.1499L22.0201 21.1199L9.09006 13.6499C7.35006 12.6499 5.83001 12.4099 4.54001 12.9299L4.10001 13.1499C2.71001 13.9399 2.02002 15.4499 2.02002 17.6799V74.4199C2.02002 76.6499 2.71001 78.9599 4.10001 81.3499C5.48001 83.7299 7.15006 85.4899 9.09006 86.6099L58.54 115.16C60.48 116.28 62.1501 116.45 63.5301 115.66C64.9101 114.87 65.6 113.36 65.6 111.13V54.3899C65.6 54.0599 65.58 53.7299 65.55 53.3899ZM38.92 67.5299L49 84.9299C49.65 86.0499 49.97 87.1799 49.97 88.3299C49.97 88.4399 49.97 88.5499 49.95 88.6599C49.9 89.6299 49.59 90.2799 49 90.5999C48.35 90.9699 47.5301 90.8699 46.5301 90.2899C45.5301 89.7099 44.7 88.8699 44.06 87.7499L41.88 83.9999L33.81 70.0799L26.31 74.3599L23.57 75.9199C22.92 76.2899 22.1 76.1899 21.1 75.6099C20.1 75.0299 19.27 74.1799 18.62 73.0699C17.98 71.9499 17.6501 70.8199 17.6501 69.6699C17.6501 68.5199 17.98 67.7599 18.62 67.3899L22.07 65.4199L28.87 61.5499L22.0201 49.7399L18.62 43.8799C17.98 42.7699 17.6501 41.6299 17.6501 40.4799C17.6501 39.3299 17.98 38.5799 18.62 38.2099C19.27 37.8399 20.1 37.9399 21.1 38.5199C21.43 38.7099 21.7301 38.9299 22.0201 39.1799C22.6201 39.6799 23.13 40.3099 23.57 41.0599L33.81 58.7299L44.06 52.8899C44.5 52.6299 45.04 52.6099 45.66 52.7999H45.67C45.8 52.8499 45.92 52.8999 46.05 52.9599C46.11 52.9799 46.18 53.0099 46.24 53.0499C46.34 53.0899 46.4301 53.1399 46.5301 53.1999C47.5301 53.7799 48.35 54.6299 49 55.7499C49.65 56.8599 49.97 57.9999 49.97 59.1399C49.97 60.2799 49.65 61.0499 49 61.4199L41.39 65.7599L38.76 67.2599L38.92 67.5299Z" class="pr-icon-iso-duotone-primary-stroke" stroke-linejoin="round"/>
    <path d="M41.3901 65.76L38.7601 67.26L38.9201 67.53L33.8101 70.08L26.3101 74.36L23.5701 75.92C22.9201 76.29 22.1001 76.19 21.1001 75.61C20.1001 75.03 19.2701 74.18 18.6201 73.07C17.9801 71.95 17.6501 70.82 17.6501 69.67C17.6501 68.52 17.9801 67.76 18.6201 67.39L22.0701 65.42L28.8701 61.55L46.0501 52.96C46.1101 52.98 46.1801 53.01 46.2401 53.05L38.6201 57.39C37.9801 57.76 37.6501 58.52 37.6501 59.67C37.6501 60.82 37.9801 61.95 38.6201 63.07C39.2701 64.18 40.1001 65.03 41.1001 65.61C41.2001 65.67 41.3001 65.72 41.3901 65.76Z" class="pr-icon-iso-duotone-primary-stroke" stroke-linejoin="round"/>
    <path d="M46.0501 52.96L28.8701 61.55L22.0201 49.74L18.6201 43.88C17.9801 42.77 17.6501 41.63 17.6501 40.48C17.6501 39.33 17.9801 38.58 18.6201 38.21C19.2701 37.84 20.1001 37.94 21.1001 38.52C21.4301 38.71 21.7301 38.93 22.0201 39.18C22.6201 39.68 23.1301 40.31 23.5701 41.06L33.8101 58.73L45.6601 52.8H45.6701C45.8001 52.85 45.9201 52.9 46.0501 52.96Z" class="pr-icon-iso-duotone-primary-stroke" stroke-linejoin="round"/>
    <path d="M49.97 88.3298C49.97 88.4398 49.9701 88.5498 49.9501 88.6598C49.9001 89.6298 49.5901 90.2798 49.0001 90.5998C48.3501 90.9698 47.5301 90.8698 46.5301 90.2898C45.5301 89.7098 44.7001 88.8698 44.0601 87.7498L41.8801 83.9998L33.8101 70.0798L38.92 67.5298L49.0001 84.9298C49.6501 86.0498 49.97 87.1798 49.97 88.3298Z" class="pr-icon-iso-duotone-primary-stroke" stroke-linejoin="round"/>
    <path d="M85.6 44.3899V101.13C85.6 103.36 84.9101 104.87 83.5301 105.66L83.0901 105.88L63.5301 115.66C64.9101 114.87 65.6 113.36 65.6 111.13V54.3899C65.6 54.0599 65.58 53.7299 65.55 53.3899C65.38 51.4699 64.7101 49.4999 63.5301 47.4599C62.8601 46.3099 62.1301 45.3099 61.3301 44.4499C60.4801 43.5299 59.54 42.7799 58.54 42.1999L45.7401 34.8099L37.67 30.1499L22.0201 21.1199L9.09009 13.6499C7.35009 12.6499 5.83004 12.4099 4.54004 12.9299L24.1 3.1499C25.48 2.3599 27.1501 2.5299 29.0901 3.6499L78.54 32.1999C80.48 33.3199 82.1501 35.0799 83.5301 37.4599C84.9101 39.8499 85.6 42.1599 85.6 44.3899Z" class="pr-icon-iso-duotone-primary-stroke" stroke-linejoin="round"/>
</svg>