<svg width="24" height="24" viewBox="0 0 117 76" class="pr-icon-iso-duotone-secondary" xmlns="http://www.w3.org/2000/svg" stroke-width="1px" stroke-linecap="round" stroke-linejoin="round">
    <path d="M51.1999 60.3101C51.1999 61.0101 51.1099 61.6201 50.9099 62.1301C50.8299 62.3301 50.7299 62.5201 50.5999 62.6801C50.4299 62.9201 50.1999 63.1201 49.9299 63.2801L33.3199 72.7501C32.3999 73.2801 31.3199 73.1601 30.0899 72.4101C28.8599 71.6601 27.7799 70.4801 26.8599 68.8901C26.0099 67.3401 25.5699 65.8501 25.5299 64.4201C25.4999 62.9801 25.9399 62.0001 26.8599 61.4801L35.5099 56.5401L7.0199 40.0901C5.7099 39.3401 4.61992 38.2001 3.72992 36.6701C2.84992 35.1501 2.3999 33.6301 2.3999 32.1301C2.3999 30.6301 2.84992 29.6301 3.72992 29.1301C4.61992 28.6201 5.7099 28.7501 7.0199 29.5001L35.5099 45.9501L26.8599 31.0301C26.5599 30.5101 26.3099 29.9901 26.1099 29.4801C25.7599 28.5401 25.5899 27.6001 25.5899 26.6601C25.5899 25.2001 26.0099 24.1901 26.8599 23.6201L27.1499 23.4801C28.0099 23.1201 29.0099 23.2801 30.1499 23.9301C31.4199 24.6601 32.5099 25.8201 33.4399 27.4101L38.9999 37.0101L47.2599 51.2501L49.9299 55.8701C50.3899 56.6601 50.7199 57.4301 50.9099 58.1601C51.1099 58.8801 51.1999 59.6001 51.1999 60.3101Z" class="pr-icon-iso-duotone-primary-stroke" stroke-linejoin="round"/>
    <path d="M35.51 45.9501L7.01996 29.5001C5.70996 28.7501 4.61998 28.6201 3.72998 29.1301L23.7299 19.1301C24.6199 18.6201 25.71 18.7501 27.02 19.5001L30.77 21.6701L27.15 23.4801L26.86 23.6201C26.01 24.1901 25.59 25.2001 25.59 26.6601C25.59 27.6001 25.76 28.5401 26.11 29.4801C26.31 29.9901 26.56 30.5101 26.86 31.0301L35.51 45.9501Z" class="pr-icon-iso-duotone-primary-stroke" stroke-linejoin="round"/>
    <path d="M62.9999 57.23L53.3199 62.75L53.0299 62.89L33.3199 72.75L49.9299 63.28C50.1999 63.12 50.4299 62.92 50.5999 62.68C50.7299 62.52 50.8299 62.33 50.9099 62.13C51.1099 61.62 51.1999 61.01 51.1999 60.31C51.1999 59.61 51.1099 58.88 50.9099 58.16C50.7199 57.43 50.3899 56.66 49.9299 55.87L47.2599 51.25L38.9999 37.01L33.4399 27.41C32.5099 25.82 31.4199 24.66 30.1499 23.93C29.0099 23.28 28.0099 23.12 27.1499 23.48L30.7699 21.67L46.8599 13.62C47.7799 13.09 48.8799 13.2 50.1499 13.93C51.4199 14.66 52.5099 15.82 53.4399 17.41L54.0999 18.55L47.5799 22.26L47.1599 22.5C46.6999 22.76 46.3799 23.15 46.1799 23.65C45.9899 24.16 45.8999 24.77 45.8999 25.47C45.8999 26.17 45.9899 26.9 46.1799 27.63C46.3799 28.35 46.6999 29.12 47.1599 29.91L48.2198 31.74L62.9999 57.23Z" class="pr-icon-iso-duotone-primary-stroke" stroke-linejoin="round"/>
    <path d="M91.5601 11.3601C91.6001 12.8001 91.1601 13.7801 90.2401 14.3001L81.5801 19.2401L61.5801 29.2401L69.8401 24.5301L70.2401 24.3001C71.1601 23.7801 71.6001 22.8001 71.5601 21.3601C71.5201 19.9301 71.0801 18.4401 70.2401 16.8901C69.3101 15.3001 68.2401 14.1301 67.0101 13.3701C66.8401 13.2701 66.6701 13.1701 66.5001 13.0901C65.6001 12.6601 64.7901 12.5901 64.0701 12.8901L83.7801 3.03007C84.7001 2.50007 85.7801 2.62007 87.0101 3.37007C88.2401 4.13007 89.3101 5.30007 90.2401 6.89007C91.0801 8.44007 91.5201 9.93007 91.5601 11.3601Z" class="pr-icon-iso-duotone-primary-stroke" stroke-linejoin="round"/>
    <path d="M94.6899 53.6501C94.6899 55.1501 94.2499 56.1501 93.3699 56.6501C92.4799 57.1601 91.3899 57.0301 90.0799 56.2801L86.3299 54.1201L68.8699 44.0401L61.5799 39.8301L69.5199 53.5101L70.2399 54.7501C71.0799 56.2101 71.5099 57.6701 71.5099 59.1201C71.5099 60.5701 71.0799 61.5901 70.2399 62.1601C69.3099 62.6901 68.2199 62.5901 66.9499 61.8501C65.6799 61.1201 64.5799 59.9601 63.6599 58.3701L62.9999 57.2301L48.2198 31.7401L47.1599 29.9101C46.6999 29.1201 46.3799 28.3501 46.1799 27.6301C45.9899 26.9001 45.8999 26.1801 45.8999 25.4701C45.8999 24.7601 45.9899 24.1601 46.1799 23.6501C46.3799 23.1501 46.6999 22.7601 47.1599 22.5001L47.5799 22.2601L54.0999 18.5501L63.7799 13.0301L64.0699 12.8901C64.7899 12.5901 65.5999 12.6601 66.4999 13.0901C66.6699 13.1701 66.8399 13.2701 67.0099 13.3701C68.2399 14.1301 69.3099 15.3001 70.2399 16.8901C71.0799 18.4401 71.5199 19.9301 71.5599 21.3601C71.5999 22.8001 71.1599 23.7801 70.2399 24.3001L69.8399 24.5301L61.5799 29.2401L78.0999 38.7701L90.0799 45.6901C90.3899 45.8701 90.6898 46.0701 90.9698 46.2901C91.8898 47.0001 92.6899 47.9401 93.3699 49.1101C94.2499 50.6301 94.6899 52.1501 94.6899 53.6501Z" class="pr-icon-iso-duotone-primary-stroke" stroke-linejoin="round"/>
    <path d="M114.69 43.6501C114.69 45.1501 114.25 46.1501 113.37 46.6501L93.3701 56.6501C94.2501 56.1501 94.6901 55.1501 94.6901 53.6501C94.6901 52.1501 94.2501 50.6301 93.3701 49.1101C92.6901 47.9401 91.89 47.0001 90.97 46.2901C90.69 46.0701 90.3901 45.8701 90.0801 45.6901L78.1 38.7701L61.5801 29.2401L81.5801 19.2401L110.08 35.69C111.39 36.44 112.48 37.5801 113.37 39.1101C114.25 40.6301 114.69 42.1501 114.69 43.6501Z" class="pr-icon-iso-duotone-primary-stroke" stroke-linejoin="round"/>
    <path d="M71.5101 59.1201C71.5101 57.6701 71.0801 56.2101 70.2401 54.7501L69.5201 53.5101L61.5801 39.8301L68.8701 44.0401L86.3301 54.1201L70.2401 62.1601C71.0801 61.5901 71.5101 60.5801 71.5101 59.1201Z" class="pr-icon-iso-duotone-primary-stroke" stroke-linejoin="round"/>
</svg>