<svg width="48" height="48" viewBox="0 0 89 127" class="pr-icon-iso-duotone-secondary"
     xmlns="http://www.w3.org/2000/svg" stroke-width="1px" stroke-linecap="round" stroke-linejoin="round">
    <path d="M23.7097 26.8799C23.7097 28.7699 23.2597 30.1899 22.3497 31.1299C22.0897 31.4199 21.7797 31.6599 21.4297 31.8599C19.9097 32.7299 18.0797 32.5399 15.9397 31.3099C14.5697 30.5199 13.3197 29.4299 12.2097 28.0599C11.5797 27.2999 10.9997 26.4599 10.4597 25.5199C8.93972 22.8999 8.17969 20.36 8.17969 17.91C8.17969 15.46 8.93972 13.7999 10.4597 12.9299C11.9797 12.0699 13.8097 12.2499 15.9397 13.4799C18.0797 14.7199 19.9097 16.6399 21.4297 19.2699C22.0997 20.4199 22.6197 21.55 22.9797 22.67C23.0597 22.87 23.1197 23.08 23.1797 23.28C23.5297 24.5 23.7097 25.6999 23.7097 26.8799Z" class="pr-icon-iso-duotone-primary-stroke" stroke-linejoin="round"/>
    <path d="M58.6599 47.0598C58.6599 47.5498 58.6298 47.9998 58.5598 48.4298C58.3198 50.1398 57.5899 51.3399 56.3799 52.0399C55.0399 52.7999 53.4799 52.7498 51.6699 51.8798H51.6599C51.4099 51.7698 51.1599 51.6398 50.8999 51.4898C50.4299 51.2198 49.9799 50.9198 49.5399 50.5798C47.9699 49.3798 46.5999 47.7498 45.4099 45.6998C43.8899 43.0798 43.1299 40.5398 43.1299 38.0898C43.1299 35.6398 43.8899 33.9798 45.4099 33.1098L45.8999 32.8698H45.9099C47.3299 32.2998 48.9899 32.5599 50.8999 33.6599C53.0299 34.8999 54.8599 36.8298 56.3799 39.4498C57.8999 42.0698 58.6599 44.6098 58.6599 47.0598Z" class="pr-icon-iso-duotone-primary-stroke" stroke-linejoin="round"/>
    <path d="M43.7098 91.9098V92.6398C43.7098 93.9098 43.3398 94.7498 42.5898 95.1698L42.3599 95.2798L22.5898 105.17C23.3398 104.75 23.7098 103.91 23.7098 102.64V73.6698L25.6499 74.7997C26.6399 75.3597 27.4798 75.5097 28.1798 75.2197C28.2598 75.1897 28.3399 75.1497 28.4199 75.1097L39.0898 69.7798L35.1699 81.0697C34.7199 82.2897 34.8799 83.7398 35.6499 85.4198C36.4299 87.0898 37.4699 88.2997 38.7599 89.0497L43.7098 91.9098Z" class="pr-icon-iso-duotone-primary-stroke" stroke-linejoin="round"/>
    <path d="M29.5399 52.5301V72.58C29.5399 73.84 29.1599 74.69 28.4199 75.11C28.3399 75.15 28.2598 75.19 28.1798 75.22C27.4798 75.51 26.6399 75.36 25.6499 74.8L23.7098 73.6701V102.64C23.7098 103.91 23.3398 104.75 22.5898 105.17C21.8498 105.6 20.9298 105.49 19.8298 104.86L12.0598 100.37C10.9598 99.74 10.0399 98.78 9.28992 97.49C8.54992 96.21 8.17981 94.9401 8.17981 93.6701V64.71L6.22986 63.58C5.12986 62.95 4.20985 61.99 3.46985 60.71C2.71985 59.42 2.34985 58.1501 2.34985 56.8901V36.83C2.34985 34.38 3.10988 32.72 4.62988 31.85C6.14988 30.99 7.97987 31.1701 10.1199 32.4001L21.7699 39.1301C21.9699 39.2401 22.1599 39.36 22.3499 39.49C24.2399 40.72 25.8699 42.5301 27.2599 44.9101C28.7799 47.5401 29.5399 50.0801 29.5399 52.5301Z" class="pr-icon-iso-duotone-primary-stroke" stroke-linejoin="round"/>
    <path d="M49.5399 50.5798V52.9498L45.2499 55.0898C44.3599 55.5198 43.7098 56.3598 43.3198 57.5898L39.0898 69.7699L28.4199 75.1099C29.1599 74.6899 29.5399 73.8398 29.5399 72.5798V52.5299C29.5399 50.0799 28.7799 47.5399 27.2599 44.9099C25.8699 42.5299 24.2399 40.7199 22.3499 39.4899C22.1599 39.3599 21.9699 39.2399 21.7699 39.1299L10.1199 32.3999C7.97987 31.1699 6.14988 30.9899 4.62988 31.8499L12.2098 28.0598C13.3198 29.4298 14.5698 30.5198 15.9398 31.3098C18.0798 32.5398 19.9098 32.7299 21.4298 31.8599L22.3499 31.3999L34.8699 25.1399L41.7699 29.1299C43.3099 30.0199 44.6799 31.2599 45.8999 32.8699L45.4099 33.1099C43.8899 33.9799 43.1299 35.6398 43.1299 38.0898C43.1299 40.5398 43.8899 43.0798 45.4099 45.6998C46.5999 47.7498 47.9699 49.3798 49.5399 50.5798Z" class="pr-icon-iso-duotone-primary-stroke" stroke-linejoin="round"/>
    <path d="M66.1399 103.02C66.0399 103.12 65.9398 103.21 65.8298 103.28H65.8198L65.4398 103.48H65.4099C65.2999 103.54 65.1898 103.57 65.0698 103.58C64.4898 103.68 63.8099 103.51 63.0299 103.06L56.7198 99.42V121.7C56.7198 122.96 56.3498 123.81 55.6098 124.23C54.8598 124.66 53.9398 124.55 52.8398 123.92L48.9598 121.67C47.8598 121.04 46.9298 120.08 46.1898 118.8C45.4398 117.51 45.0698 116.24 45.0698 114.98V92.6899L43.7098 91.91L38.7598 89.0499C37.4698 88.2999 36.4299 87.09 35.6499 85.42C34.8799 83.74 34.7199 82.2899 35.1699 81.0699L39.0898 69.78L43.3198 57.5899C43.7098 56.3599 44.3598 55.5199 45.2498 55.0899C45.5398 54.9399 45.8498 54.85 46.1898 54.79C47.2098 54.61 48.3199 54.78 49.5399 55.28C49.9799 55.45 50.4299 55.6799 50.8999 55.9499C52.6499 56.9599 54.2098 58.3799 55.6098 60.2199C56.4698 61.3599 57.1498 62.5699 57.6798 63.8499C58.0098 64.6499 58.2698 65.4799 58.4698 66.3399L62.0998 80.9799L65.0698 92.9399L66.6298 99.2299C67.0798 100.98 66.9199 102.24 66.1399 103.02Z" class="pr-icon-iso-duotone-primary-stroke" stroke-linejoin="round"/>
    <path d="M43.71 16.8799C43.71 19.3299 42.9499 20.9899 41.4299 21.8599L40.95 22.0999L34.87 25.1399L22.35 31.4V31.1299C23.26 30.1899 23.71 28.7699 23.71 26.8799C23.71 25.6999 23.5299 24.5 23.1799 23.28C23.1199 23.08 23.06 22.87 22.98 22.67C22.62 21.55 22.0999 20.4199 21.4299 19.2699C19.9099 16.6399 18.0799 14.7199 15.9399 13.4799C13.8099 12.2499 11.98 12.0699 10.46 12.9299L30.46 2.92986C31.98 2.06986 33.8099 2.24991 35.9399 3.47991C38.0799 4.71991 39.9099 6.63995 41.4299 9.26995C42.9499 11.8899 43.71 14.4299 43.71 16.8799Z" class="pr-icon-iso-duotone-primary-stroke" stroke-linejoin="round"/>
    <path d="M78.6599 37.0597C78.6599 39.5097 77.8999 41.1698 76.3799 42.0398C76.1099 42.1898 75.8299 42.3198 75.5399 42.3898H75.5099L69.6898 45.3398L62.9199 48.7498L56.3799 52.0398C57.5899 51.3398 58.3198 50.1397 58.5598 48.4397C58.6298 47.9997 58.6599 47.5497 58.6599 47.0597C58.6599 44.6097 57.8999 42.0698 56.3799 39.4498C54.8599 36.8298 53.0299 34.8998 50.8999 33.6598C48.9899 32.5598 47.3299 32.2998 45.9099 32.8698L65.4099 23.1098C66.9299 22.2498 68.7599 22.4298 70.8999 23.6598C73.0299 24.8998 74.8599 26.8298 76.3799 29.4498C77.8999 32.0698 78.6599 34.6097 78.6599 37.0597Z" class="pr-icon-iso-duotone-primary-stroke" stroke-linejoin="round"/>
    <path d="M86.14 93.0199C85.98 93.1799 85.81 93.3099 85.62 93.3999L85.49 93.4598L76.72 97.8398L65.83 103.28C65.94 103.21 66.04 103.12 66.14 103.02C66.92 102.24 67.08 100.98 66.63 99.2299L65.0699 92.9398L62.1 80.9799L58.47 66.3398C58.27 65.4798 58.0099 64.6499 57.6799 63.8499C57.1499 62.5699 56.47 61.3598 55.61 60.2198C54.21 58.3798 52.65 56.9598 50.9 55.9498C50.43 55.6798 49.98 55.4499 49.54 55.2799C48.32 54.7799 47.2099 54.6099 46.1899 54.7899C45.8499 54.8499 45.54 54.9398 45.25 55.0898L49.54 52.9498L51.66 51.8799H51.67C53.48 52.7499 55.04 52.7999 56.38 52.0399L62.92 48.7499L69.6899 45.3398C70.0799 45.5098 70.48 45.7098 70.9 45.9498C72.65 46.9598 74.21 48.3798 75.61 50.2198C77 52.0698 77.95 54.1098 78.47 56.3398L86.63 89.2299C87.08 90.9799 86.92 92.2399 86.14 93.0199Z" class="pr-icon-iso-duotone-primary-stroke" stroke-linejoin="round"/>
    <path d="M76.7198 97.8398V111.7C76.7198 112.96 76.3499 113.81 75.6099 114.23L75.3799 114.34L55.6099 124.23C56.3499 123.81 56.7198 122.96 56.7198 121.7V99.4199L63.0299 103.06C63.8099 103.51 64.4898 103.68 65.0698 103.58C65.1898 103.57 65.2999 103.54 65.4099 103.49H65.4398C65.5698 103.44 65.6998 103.37 65.8198 103.29H65.8298L76.7198 97.8398Z" class="pr-icon-iso-duotone-primary-stroke" stroke-linejoin="round"/>
</svg>