<svg width="48" height="48" viewBox="0 0 94 103" class="pr-icon-iso-duotone-secondary"
     xmlns="http://www.w3.org/2000/svg" stroke-width="1px" stroke-linecap="round" stroke-linejoin="round">
    <path d="M38.5686 53.3398H38.5586C38.5586 53.3398 38.5786 53.3598 38.5886 53.3598C38.5886 53.3598 38.5819 53.3532 38.5686 53.3398Z" class="pr-icon-iso-duotone-primary-stroke" stroke-linejoin="round"/>
    <path d="M71.1888 79.0999C71.1088 80.1699 70.9888 81.2099 70.8288 82.1999C70.3888 85.0599 69.6187 87.6099 68.5287 89.8299C68.2887 90.3299 68.0288 90.8099 67.7588 91.2799C65.9588 94.3499 63.6588 96.6199 60.8588 98.1099L60.8188 98.1299C60.6388 98.2299 60.4688 98.3099 60.2888 98.3999C57.2288 99.8799 53.7088 100.41 49.7388 99.9899C45.7688 99.5799 41.5288 98.0699 37.0088 95.4599C31.1988 92.0999 25.8488 87.4999 20.9688 81.6399C17.5587 77.5499 14.5787 73.2099 12.0287 68.6199C10.9287 66.6499 9.91876 64.6299 8.97876 62.5699V68.5599C8.97876 69.5699 8.68881 70.2499 8.08881 70.5899C7.48881 70.9299 6.74877 70.8399 5.86877 70.3299C4.98877 69.8199 4.24877 69.0499 3.64877 68.0199C3.04877 66.9899 2.75879 65.9699 2.75879 64.9599V50.6699C2.75879 49.6499 3.04877 48.9799 3.64877 48.6399L3.83881 48.5499C4.39881 48.3199 5.07877 48.4299 5.86877 48.8899L18.3288 56.0799C19.2088 56.5899 19.9488 57.3599 20.5488 58.3899C21.1388 59.4199 21.4388 60.4399 21.4388 61.4499C21.4388 62.4599 21.1388 63.1399 20.5488 63.4799C19.9488 63.8199 19.2088 63.7399 18.3288 63.2299L13.7288 60.5799C14.5888 62.5399 15.5288 64.4699 16.5888 66.3399C18.5688 69.9299 20.9088 73.3599 23.5788 76.6299C27.6588 81.5999 32.1288 85.4899 37.0088 88.3099C44.3288 92.5399 50.6188 93.3699 55.8888 90.8099C57.6888 89.9299 59.2288 88.7599 60.4888 87.2699C61.8988 85.6499 62.9688 83.6699 63.7088 81.3199C64.2888 79.5399 64.6788 77.5599 64.8788 75.3699C64.9888 74.4799 65.3487 73.9299 65.9688 73.7199C66.5987 73.5099 67.3188 73.6499 68.1488 74.1299C69.0388 74.6399 69.7888 75.3899 70.4088 76.3699C71.0288 77.3599 71.2888 78.2699 71.1888 79.0999Z" class="pr-icon-iso-duotone-primary-stroke" stroke-linejoin="round"/>
    <path d="M71.2685 47.3399V61.6299C71.2685 62.6499 70.9685 63.3199 70.3685 63.6599C69.9885 63.8699 69.5685 63.9199 69.0785 63.7899C68.7885 63.7299 68.4785 63.5999 68.1485 63.4099L63.5185 60.7399L55.6985 56.2199C54.8085 55.7099 54.0684 54.9399 53.4784 53.9099C52.8784 52.8799 52.5785 51.8599 52.5785 50.8499C52.5785 49.8399 52.8784 49.1599 53.4784 48.8199L53.6584 48.7299C54.2184 48.4999 54.8985 48.6099 55.6985 49.0699L59.9985 51.5599C59.9985 51.5599 60.0085 51.5699 60.0185 51.5699L60.2884 51.7199C59.5384 49.9899 58.7185 48.2999 57.8085 46.6499C57.4485 45.9499 57.0585 45.2699 56.6485 44.5899C54.8485 41.4899 52.7785 38.5199 50.4385 35.6699C49.6885 34.7599 48.9284 33.8899 48.1584 33.0499C47.4984 32.3299 46.8285 31.6399 46.1485 30.9799C44.8685 29.7299 43.5485 28.5699 42.1985 27.5099C42.1785 27.4999 42.1685 27.4899 42.1485 27.4699C40.4885 26.1699 38.7785 25.0099 37.0085 23.9899C34.6685 22.6399 32.4385 21.6399 30.3085 20.9799C27.7885 20.1999 25.4185 19.9099 23.1885 20.0999C21.4085 20.2499 19.7185 20.7099 18.1285 21.4899C12.8585 24.0399 9.86848 29.1899 9.13848 36.9299C9.05848 37.6399 8.80849 38.1299 8.39849 38.3999L8.04845 38.5799C7.42845 38.7899 6.69846 38.6499 5.86846 38.1699C4.98846 37.6599 4.22845 36.9099 3.60845 35.9299C2.98845 34.9399 2.72845 34.0399 2.82845 33.1999C3.19845 28.3499 4.33847 24.2899 6.25847 21.0199C8.17847 17.7499 10.6684 15.3799 13.7284 13.8999C16.7984 12.4199 20.3084 11.8899 24.2784 12.3099C24.6784 12.3499 25.0785 12.3999 25.4885 12.4699C28.0585 12.8699 30.7384 13.7299 33.5284 15.0199C34.6684 15.5499 35.8285 16.1599 37.0085 16.8399C40.7085 18.9799 44.2285 21.6199 47.5485 24.7699C47.5485 24.7899 47.5785 24.7999 47.5885 24.8099C47.6485 24.8699 47.7085 24.9299 47.7685 24.9799C49.4785 26.6199 51.1285 28.3799 52.7385 30.2899C52.8285 30.3999 52.9185 30.5099 53.0085 30.6199C53.0285 30.6299 53.0385 30.6499 53.0485 30.6599C56.1185 34.3399 58.8385 38.2299 61.2085 42.3099C61.6085 42.9899 61.9885 43.6799 62.3685 44.3699C63.3185 46.1199 64.2084 47.9099 65.0384 49.7299V43.7399C65.0384 43.4699 65.0584 43.2199 65.1084 42.9999C65.2184 42.3899 65.4985 41.9699 65.9285 41.7199L66.1084 41.6299C66.5584 41.4399 67.0784 41.4799 67.6584 41.7299C67.8184 41.7899 67.9785 41.8699 68.1485 41.9699C69.0385 42.4799 69.7685 43.2499 70.3685 44.2799C70.9685 45.3099 71.2685 46.3299 71.2685 47.3399Z" class="pr-icon-iso-duotone-primary-stroke" stroke-linejoin="round"/>
    <path d="M38.5686 53.3401H38.5586C38.5586 53.3401 38.5786 53.3601 38.5886 53.3601C38.5886 53.3601 38.5819 53.3534 38.5686 53.3401Z" class="pr-icon-iso-duotone-primary-stroke" stroke-linejoin="round"/>
    <path d="M30.3084 20.98C29.7284 22.76 29.3384 24.74 29.1384 26.93C29.0384 27.82 28.6684 28.37 28.0484 28.58L8.39844 38.4C8.80844 38.13 9.05843 37.64 9.13843 36.93C9.86843 29.19 12.8584 24.04 18.1284 21.49C19.7184 20.71 21.4084 20.25 23.1884 20.1C25.4184 19.91 27.7884 20.2 30.3084 20.98Z" class="pr-icon-iso-duotone-primary-stroke" stroke-linejoin="round"/>
    <path d="M63.7086 81.3201C62.9686 83.6701 61.8985 85.6501 60.4885 87.2701C59.2285 88.7601 57.6885 89.9301 55.8885 90.8101C50.6185 93.3701 44.3285 92.5401 37.0085 88.3101C32.1285 85.4901 27.6586 81.6001 23.5786 76.6301C20.9086 73.3601 18.5686 69.9301 16.5886 66.3401C15.5286 64.4701 14.5885 62.5401 13.7285 60.5801L18.3286 63.2301C19.2086 63.7401 19.9485 63.8201 20.5485 63.4801L25.5886 60.9601C25.5686 61.2201 25.5885 61.5001 25.6585 61.8101C25.6885 61.9801 25.7385 62.1701 25.7985 62.3601C26.6285 64.8701 27.7486 67.1801 29.1486 69.3001C30.5486 71.4201 32.2386 73.2901 34.2086 74.9001V76.4201C34.2086 77.2501 34.4785 78.1401 35.0285 79.0801C35.5685 80.0201 36.2085 80.7001 36.9285 81.1201C37.6585 81.5401 38.2986 81.5901 38.8386 81.2801L43.3185 79.0401C44.4585 79.1401 45.4585 78.9701 46.3085 78.5401L47.1185 78.1301L52.6085 75.3901C54.0385 76.4701 55.5085 77.4401 57.0085 78.3101C59.3485 79.6601 61.5786 80.6601 63.7086 81.3201Z" class="pr-icon-iso-duotone-primary-stroke" stroke-linejoin="round"/>
    <path d="M34.2589 55.4901L31.1688 57.0301L28.9788 58.1301L26.5189 59.3601L26.3289 59.4501C26.1389 59.5701 25.9689 59.7401 25.8389 59.9701C25.7889 60.0501 25.7489 60.1401 25.7089 60.2301C25.6289 60.4401 25.5889 60.6901 25.5889 60.9601L20.5488 63.4801C21.1388 63.1401 21.4388 62.4701 21.4388 61.4501C21.4388 60.4301 21.1388 59.4201 20.5488 58.3901C19.9488 57.3601 19.2089 56.5901 18.3289 56.0801L5.86884 48.8901C5.07884 48.4301 4.39887 48.3201 3.83887 48.5501L23.6489 38.6401C24.2489 38.3001 24.9888 38.3801 25.8688 38.8901L26.1389 39.0401C26.1189 39.3001 26.1088 39.5701 26.1088 39.8501C26.1088 42.6501 26.8288 45.3301 28.2488 47.8801C29.5588 50.2201 31.5589 52.7501 34.2589 55.4901Z" class="pr-icon-iso-duotone-primary-stroke" stroke-linejoin="round"/>
    <path d="M69.0784 63.7899C69.0784 63.7899 69.0784 63.8399 69.0784 63.8599C69.0584 64.0899 69.0183 64.3199 68.9783 64.5299C68.9383 64.7599 68.8984 64.9699 68.8384 65.1699C68.7984 65.3199 68.7584 65.4599 68.7084 65.5999C68.6684 65.7299 68.6184 65.8599 68.5684 65.9899L68.3884 66.3799C68.3584 66.4399 68.3283 66.4999 68.2883 66.5599C68.2083 66.7099 68.1084 66.8599 68.0184 66.9999C67.9284 67.1399 67.8283 67.2699 67.7283 67.3899C67.6183 67.5299 67.4883 67.6599 67.3683 67.7899C67.2683 67.8799 67.1583 67.9799 67.0483 68.0599C66.9283 68.1499 66.8184 68.2399 66.6984 68.3199C66.5684 68.3999 66.4484 68.4699 66.3184 68.5399L52.6183 75.3899L47.1284 78.1299C47.1284 78.1299 47.0783 78.0899 47.0483 78.0599C47.5283 77.6899 47.9483 77.1799 48.2883 76.5599C48.3283 76.4999 48.3584 76.4399 48.3884 76.3799C48.8784 75.4199 49.1383 74.1499 49.1683 72.5399V72.2699C49.1683 69.7699 48.5383 67.1199 47.2983 64.3199C46.0483 61.5099 43.5584 58.2599 39.8184 54.5499C39.6584 54.3899 39.4984 54.2399 39.3384 54.0899C39.0884 53.8399 38.8383 53.5999 38.5983 53.3599C38.5983 53.3599 38.5917 53.3533 38.5784 53.3399C36.1284 50.9399 34.3883 49.0599 33.3583 47.6899C32.1683 46.1099 31.5684 44.5499 31.5684 42.9999C31.5684 42.7099 31.5883 42.4499 31.6183 42.1999C31.7583 41.1199 32.2284 40.4499 33.0084 40.1699C33.9684 39.8299 35.3583 40.1799 37.1783 41.2299C38.2683 41.8599 39.1983 42.6199 39.9783 43.5199C40.7583 44.4199 41.4083 45.3699 41.9283 46.3899C42.3383 47.2799 42.8883 48.0399 43.5583 48.6699C44.2383 49.2999 44.9084 49.6599 45.5884 49.7499C45.6484 49.7599 45.7084 49.7699 45.7584 49.7599H45.7684C45.8384 49.7799 45.9083 49.7799 45.9783 49.7799C46.2883 49.7699 46.5584 49.6899 46.7684 49.5199H46.7883L47.2484 49.2699H47.2584L54.4584 45.6799C54.6284 45.8599 54.8084 46.0399 54.9984 46.2299L55.0184 46.2499C55.4384 46.6699 55.8383 47.0699 56.2183 47.4599L53.6683 48.7299L53.4883 48.8199C52.8883 49.1599 52.5884 49.8299 52.5884 50.8499C52.5884 51.8699 52.8883 52.8799 53.4883 53.9099C54.0783 54.9399 54.8184 55.7099 55.7084 56.2199L63.5283 60.7399L68.1583 63.4099C68.4883 63.5999 68.7984 63.7299 69.0884 63.7899H69.0784Z" class="pr-icon-iso-duotone-primary-stroke" stroke-linejoin="round"/>
    <path d="M56.6486 44.59L54.4486 45.6801L47.2486 49.2701H47.2386L46.7786 49.51C46.8686 49.44 46.9486 49.35 47.0186 49.26C47.0586 49.2 47.0986 49.14 47.1286 49.08C47.4386 48.52 47.4186 47.81 47.0486 46.94C46.2786 45 45.2486 43.14 43.9786 41.37C42.7086 39.59 41.3186 38.21 39.8086 37.22L46.6186 33.8201L48.1586 33.05C48.9286 33.89 49.6886 34.76 50.4386 35.67C52.7786 38.52 54.8486 41.49 56.6486 44.59Z" class="pr-icon-iso-duotone-primary-stroke" stroke-linejoin="round"/>
    <path d="M60.2892 51.7199L60.0192 51.5699L59.9992 51.5599L55.6992 49.0699C54.8992 48.6099 54.2192 48.4999 53.6592 48.7299L56.2092 47.4599L57.8092 46.6499C58.7192 48.2999 59.5392 49.9899 60.2892 51.7199Z" class="pr-icon-iso-duotone-primary-stroke" stroke-linejoin="round"/>
    <path d="M81.9985 33.6899L77.4385 35.9699L66.1085 41.6299L65.9285 41.7199C65.4985 41.9699 65.2185 42.3899 65.1085 42.9999C65.0585 43.2199 65.0385 43.4699 65.0385 43.7399V49.7299C64.2085 47.9099 63.3185 46.1199 62.3685 44.3699C61.9885 43.6799 61.6086 42.9899 61.2086 42.3099C58.8386 38.2299 56.1185 34.3399 53.0485 30.6599C53.0385 30.6499 53.0285 30.6299 53.0085 30.6199C52.9185 30.5099 52.8285 30.3999 52.7385 30.2899C51.1285 28.3799 49.4786 26.6199 47.7686 24.9799C47.7086 24.9299 47.6486 24.8699 47.5886 24.8099C47.5786 24.7999 47.5585 24.7899 47.5485 24.7699C44.2285 21.6199 40.7085 18.9799 37.0085 16.8399C35.8285 16.1599 34.6685 15.5499 33.5285 15.0199C30.7385 13.7299 28.0585 12.8699 25.4885 12.4699C25.0785 12.3999 24.6785 12.3499 24.2785 12.3099C20.3085 11.8899 16.7985 12.4199 13.7285 13.8999L33.0585 4.24992C33.2785 4.12992 33.4985 4.00991 33.7285 3.89991C36.7985 2.41991 40.3085 1.88992 44.2785 2.30992C48.2485 2.71992 52.4985 4.23992 57.0085 6.83992C62.8185 10.1999 68.1685 14.7999 73.0485 20.6599C76.4685 24.7599 79.4485 29.0999 81.9985 33.6899Z" class="pr-icon-iso-duotone-primary-stroke" stroke-linejoin="round"/>
    <path d="M49.1591 72.27V72.54C49.1291 74.15 48.8692 75.42 48.3792 76.38C48.3492 76.44 48.3191 76.5 48.2791 76.56C47.9391 77.18 47.5191 77.69 47.0391 78.06C46.8091 78.25 46.5692 78.41 46.3092 78.54C45.4592 78.97 44.4592 79.14 43.3192 79.04C42.1792 78.95 40.9591 78.68 39.6591 78.23V79.57C39.6591 80.4 39.3892 80.97 38.8392 81.28C38.2992 81.59 37.6592 81.54 36.9292 81.12C36.2092 80.7 35.5691 80.02 35.0291 79.08C34.4791 78.14 34.2092 77.25 34.2092 76.42V74.9C32.2392 73.29 30.5492 71.42 29.1492 69.3C27.7492 67.18 26.6291 64.87 25.7991 62.36C25.7391 62.17 25.6891 61.98 25.6591 61.81C25.5991 61.5 25.5692 61.22 25.5892 60.96C25.5892 60.69 25.6292 60.44 25.7092 60.23C25.7492 60.14 25.7892 60.05 25.8392 59.97C25.9692 59.74 26.1392 59.57 26.3292 59.45L26.5192 59.36C26.7792 59.25 27.0892 59.23 27.4392 59.29C27.7292 59.33 28.0292 59.43 28.3192 59.59C28.4592 59.66 28.6092 59.76 28.7492 59.86C28.9892 60.04 29.2192 60.25 29.4592 60.5C30.1292 61.22 30.6492 62.04 31.0192 62.96C31.7392 64.93 32.6591 66.61 33.7791 68C34.8991 69.39 36.1291 70.47 37.4791 71.25C39.0791 72.18 40.4792 72.57 41.6492 72.43C41.7292 72.42 41.8092 72.41 41.8792 72.4C43.0992 72.19 43.7092 71.09 43.7092 69.13C43.7092 68.06 43.4591 66.96 42.9691 65.86C42.9691 65.86 42.9492 65.85 42.9592 65.84C42.6592 65.18 42.2791 64.51 41.7991 63.83C41.1591 62.93 40.2792 61.84 39.1392 60.57C38.0092 59.31 36.6292 57.87 35.0092 56.25L34.9891 56.23C34.7391 55.98 34.4892 55.73 34.2592 55.49C31.5592 52.75 29.5592 50.22 28.2492 47.88C26.8292 45.33 26.1091 42.65 26.1091 39.85C26.1091 39.57 26.1092 39.3 26.1392 39.04C26.2892 37.01 27.0192 35.49 28.3292 34.48C28.5192 34.34 28.7091 34.21 28.9091 34.1L29.1691 33.97C30.5391 33.32 32.2691 33.35 34.3591 34.07V32.73C34.3591 31.9 34.6392 31.33 35.1792 31.02L35.3591 30.93C35.8691 30.72 36.4392 30.8 37.0892 31.18C37.8192 31.6 38.4492 32.28 38.9992 33.22C39.5392 34.16 39.8092 35.05 39.8092 35.88V37.22C41.3192 38.21 42.7091 39.59 43.9791 41.37C45.2491 43.14 46.2791 45 47.0491 46.94C47.4191 47.81 47.4392 48.52 47.1292 49.08C47.0992 49.14 47.0592 49.2 47.0192 49.26C46.9492 49.35 46.8691 49.44 46.7791 49.51H46.7592C46.5492 49.69 46.2791 49.77 45.9691 49.78C45.8991 49.78 45.8292 49.78 45.7592 49.76H45.7492C45.6992 49.76 45.6392 49.76 45.5792 49.75C44.8992 49.66 44.2291 49.3 43.5491 48.67C42.8791 48.04 42.3291 47.28 41.9191 46.39C41.3991 45.37 40.7491 44.42 39.9691 43.52C39.1891 42.62 38.2591 41.86 37.1691 41.23C35.3491 40.18 33.9592 39.83 32.9992 40.17C32.2192 40.45 31.7491 41.12 31.6091 42.2C31.5791 42.45 31.5592 42.71 31.5592 43C31.5592 44.55 32.1591 46.11 33.3491 47.69C34.3791 49.06 36.1192 50.94 38.5692 53.34H38.5592C38.5592 53.34 38.5792 53.36 38.5892 53.36C38.8292 53.6 39.0792 53.84 39.3292 54.09C39.4892 54.24 39.6492 54.39 39.8092 54.55C43.5492 58.26 46.0391 61.51 47.2891 64.32C48.5291 67.12 49.1591 69.77 49.1591 72.27Z" class="pr-icon-iso-duotone-primary-stroke" stroke-linejoin="round"/>
    <path d="M12.0288 68.6198L8.08887 70.5898C8.68887 70.2498 8.97882 69.5698 8.97882 68.5598V62.5698C9.91882 64.6298 10.9288 66.6498 12.0288 68.6198Z" class="pr-icon-iso-duotone-primary-stroke" stroke-linejoin="round"/>
    <path d="M48.1584 33.05L46.6184 33.82L39.8084 37.22V35.88C39.8084 35.05 39.5384 34.16 38.9984 33.22C38.4484 32.28 37.8184 31.6 37.0884 31.18C36.4384 30.8 35.8684 30.72 35.3584 30.93L42.1984 27.51C43.5484 28.57 44.8684 29.73 46.1484 30.98C46.8284 31.64 47.4984 32.33 48.1584 33.05Z" class="pr-icon-iso-duotone-primary-stroke" stroke-linejoin="round"/>
    <path d="M42.199 27.51L35.3589 30.93L35.179 31.02C34.639 31.33 34.3589 31.9 34.3589 32.73V34.07C32.2689 33.35 30.5389 33.32 29.1689 33.97L42.149 27.47C42.149 27.47 42.179 27.5 42.199 27.51Z" class="pr-icon-iso-duotone-primary-stroke" stroke-linejoin="round"/>
    <path d="M43.7086 69.13C43.7086 71.09 43.0985 72.19 41.8785 72.4C41.8085 72.41 41.7286 72.42 41.6486 72.43C40.4786 72.57 39.0785 72.18 37.4785 71.25C36.1285 70.47 34.8985 69.39 33.7785 68C32.6585 66.61 31.7386 64.93 31.0186 62.96C30.6486 62.04 30.1286 61.22 29.4586 60.5C29.2186 60.25 28.9885 60.04 28.7485 59.86C28.6085 59.76 28.4585 59.66 28.3185 59.59C28.0285 59.43 27.7285 59.33 27.4385 59.29C27.0885 59.23 26.7786 59.25 26.5186 59.36L28.9785 58.13L31.1685 57.03L34.2585 55.49C34.4885 55.73 34.7385 55.98 34.9885 56.23L35.0085 56.25C36.6285 57.87 38.0085 59.31 39.1385 60.56C40.2785 61.84 41.1585 62.93 41.7985 63.83C42.2785 64.51 42.6586 65.18 42.9586 65.84C42.9486 65.85 42.9685 65.86 42.9685 65.86C43.4585 66.96 43.7086 68.06 43.7086 69.13Z" class="pr-icon-iso-duotone-primary-stroke" stroke-linejoin="round"/>
    <path d="M91.2684 37.3398V51.6299C91.2684 52.6499 90.9684 53.3199 90.3684 53.6599L70.3684 63.6599C70.9684 63.3199 71.2684 62.6499 71.2684 61.6299V47.3398C71.2684 46.3298 70.9684 45.3098 70.3684 44.2798C69.7684 43.2498 69.0384 42.4798 68.1484 41.9698C67.9784 41.8698 67.8184 41.7898 67.6584 41.7298C67.0784 41.4798 66.5584 41.4399 66.1084 41.6299L77.4384 35.9698L81.9984 33.6898L85.9284 31.7198C86.5284 31.3698 87.2684 31.4598 88.1484 31.9698C89.0384 32.4798 89.7684 33.2498 90.3684 34.2798C90.9684 35.3098 91.2684 36.3298 91.2684 37.3398Z" class="pr-icon-iso-duotone-primary-stroke" stroke-linejoin="round"/>
    <path d="M91.1884 69.1C90.8284 73.95 89.6784 78.01 87.7584 81.28C85.8984 84.44 83.5084 86.76 80.5884 88.25L80.2884 88.4L60.8584 98.11C63.6584 96.62 65.9584 94.35 67.7584 91.28C68.0284 90.81 68.2884 90.33 68.5284 89.83C69.6184 87.61 70.3884 85.06 70.8284 82.2C70.9884 81.21 71.1084 80.17 71.1884 79.1C71.2884 78.27 71.0284 77.36 70.4084 76.37C69.7884 75.39 69.0384 74.64 68.1484 74.13C67.3184 73.65 66.5984 73.51 65.9684 73.72L85.6184 63.9L85.9684 63.72C86.5984 63.51 87.3184 63.65 88.1484 64.13C89.0384 64.64 89.7884 65.39 90.4084 66.37C91.0284 67.36 91.2884 68.27 91.1884 69.1Z" class="pr-icon-iso-duotone-primary-stroke" stroke-linejoin="round"/>
</svg>