<svg width="48" height="48" viewBox="0 0 103 107" class="pr-icon-iso-duotone-secondary"
     xmlns="http://www.w3.org/2000/svg" stroke-width="1px" stroke-linecap="round" stroke-linejoin="round">
    <path d="M61.73 66.6759C60.02 65.6859 58.39 65.2359 56.86 65.3359C56.57 65.3559 56.28 65.386 56.01 65.446C54.85 65.676 53.86 66.246 53.05 67.146C51.75 68.566 50.1 69.276 48.09 69.266C46.08 69.256 43.93 68.596 41.62 67.266C41.24 67.046 40.86 66.8059 40.49 66.5559C38.66 65.3359 36.91 63.7459 35.25 61.7959C33.72 60.0159 32.38 58.0759 31.23 55.9759C30.87 55.3159 30.52 54.646 30.2 53.956C29.19 51.686 27.94 49.616 26.43 47.766C25.26 46.316 24 45.1259 22.65 44.1759C22.28 43.9159 21.9 43.676 21.51 43.456C21.81 43.046 22.19 42.716 22.65 42.456C22.73 42.396 22.82 42.356 22.91 42.326L23.22 42.1759C24.74 41.5759 26.91 41.606 29.75 42.266C33.95 43.226 37.9 44.7859 41.62 46.9359C45.34 49.0759 49.3 52.0959 53.49 55.9659C57.69 59.8459 60.43 63.4159 61.73 66.6759Z" class="pr-icon-iso-duotone-primary-stroke" stroke-linejoin="round"/>
    <path d="M80.5999 89.766V101.966C80.5999 103.116 80.2599 103.886 79.5799 104.276C78.8999 104.656 78.0599 104.566 77.0599 103.986L59.3399 93.756C58.3399 93.176 57.4899 92.296 56.8199 91.126C56.1399 89.956 55.7999 88.796 55.7999 87.646V82.456C53.7299 82.956 51.4999 82.956 49.1099 82.456C46.7199 81.956 44.2199 80.956 41.6199 79.456C39.0799 77.996 36.5999 76.106 34.1799 73.796C33.2699 72.916 32.3799 72.006 31.5099 71.046C30.0899 69.476 28.74 67.786 27.45 65.986V71.276C27.45 72.426 27.1099 73.196 26.4299 73.586C25.7499 73.976 24.9099 73.876 23.9099 73.296L6.18994 63.066C5.18994 62.486 4.33992 61.616 3.66992 60.446C2.98992 59.266 2.6499 58.106 2.6499 56.956V44.756C2.6499 42.456 3.33992 40.926 4.72992 40.166C6.11992 39.406 7.77992 39.596 9.72992 40.716L21.3399 47.416C21.8599 47.716 22.3599 48.076 22.8599 48.496C23.4899 49.026 24.11 49.656 24.7 50.376C25.47 51.296 26.1199 52.286 26.6599 53.336C26.8799 53.746 27.0899 54.176 27.2699 54.606C28.9899 58.236 31.0999 61.526 33.6099 64.466C34.7899 65.846 35.9999 67.086 37.2499 68.176C38.6599 69.406 40.1199 70.456 41.6199 71.326C44.5199 72.996 47.2199 73.816 49.7299 73.766C52.2399 73.726 54.3199 72.866 55.9699 71.176C56.7399 70.466 57.6399 70.076 58.6799 69.996C59.7099 69.906 60.7899 70.196 61.9099 70.846L73.5099 77.546C74.4499 78.086 75.3199 78.756 76.1099 79.566C77.0199 80.466 77.8399 81.546 78.5599 82.796C78.6999 83.036 78.83 83.276 78.95 83.516C80.05 85.606 80.5999 87.696 80.5999 89.766Z" class="pr-icon-iso-duotone-primary-stroke" stroke-linejoin="round"/>
    <path d="M62.44 63.5259C62.87 64.2759 63.33 64.976 63.8 65.646L61.73 66.676C60.43 63.416 57.69 59.8459 53.49 55.9659C49.3 52.0959 45.34 49.076 41.62 46.936C37.9 44.786 33.95 43.226 29.75 42.266C26.91 41.606 24.74 41.576 23.22 42.176L34.92 36.306C36.82 39.196 39.05 41.386 41.62 42.866C43.71 44.066 45.55 44.566 47.17 44.366C47.89 44.286 48.57 44.046 49.2 43.686L49.91 43.3359L62.12 37.226C64.53 38.656 67.04 40.4459 69.64 42.5959L62.82 46.006L62.44 46.196C60.37 47.336 59.34 49.6359 59.34 53.0959C59.34 54.0259 59.42 54.9559 59.57 55.9059C59.85 57.5959 60.38 59.306 61.16 61.046C61.53 61.866 61.96 62.6959 62.44 63.5259Z" class="pr-icon-iso-duotone-primary-stroke" stroke-linejoin="round"/>
    <path d="M41.7198 13.806L34.4698 17.436L34.0898 17.626C32.0298 18.776 30.9899 21.076 30.9899 24.536C30.9899 25.456 31.0698 26.386 31.2198 27.316C31.4998 29.026 32.0398 30.756 32.8298 32.506C32.9498 32.786 33.0798 33.0559 33.2198 33.3359L22.6498 38.616L20.8499 39.516C21.5799 39.086 22.1798 38.516 22.6498 37.796C23.4898 36.526 23.9099 34.806 23.9099 32.636C23.9099 32.046 23.8799 31.466 23.8199 30.876C23.8199 30.796 23.7999 30.716 23.7899 30.636C23.4799 27.846 22.4999 25.026 20.8499 22.186C18.8099 18.666 16.2898 16.046 13.2798 14.306C10.4998 12.696 8.11988 12.3559 6.12988 13.2759L25.7499 3.46595C27.8099 2.31595 30.3198 2.59598 33.2798 4.30598C36.2898 6.04598 38.8099 8.66598 40.8499 12.186C41.1599 12.726 41.4498 13.266 41.7198 13.806Z" class="pr-icon-iso-duotone-primary-stroke" stroke-linejoin="round"/>
    <path d="M52.25 36.806C52.25 39.806 51.45 41.9359 49.86 43.2259C49.65 43.3959 49.43 43.546 49.2 43.686C48.57 44.046 47.89 44.286 47.17 44.366C45.55 44.566 43.71 44.066 41.62 42.866C39.05 41.386 36.82 39.196 34.92 36.306C34.64 35.876 34.36 35.4259 34.09 34.9659C33.77 34.4259 33.48 33.8759 33.22 33.3359C33.08 33.0559 32.95 32.786 32.83 32.506C32.04 30.756 31.5 29.026 31.22 27.316C31.07 26.386 30.99 25.4559 30.99 24.5359C30.99 21.0759 32.03 18.776 34.09 17.626L34.47 17.436C36.47 16.526 38.85 16.8659 41.62 18.4659C42.34 18.8759 43.03 19.3459 43.69 19.8559C45.81 21.5059 47.65 23.6759 49.2 26.3459C50.45 28.5059 51.31 30.6559 51.79 32.7959C52.1 34.1359 52.25 35.476 52.25 36.806Z" class="pr-icon-iso-duotone-primary-stroke" stroke-linejoin="round"/>
    <path d="M72.25 26.806C72.25 30.196 71.23 32.486 69.2 33.686L68.56 34.006L62.12 37.226L49.91 43.336L49.2 43.686C49.43 43.546 49.65 43.396 49.86 43.226C51.45 41.936 52.25 39.806 52.25 36.806C52.25 35.476 52.1 34.136 51.79 32.796C51.31 30.656 50.45 28.506 49.2 26.346C47.65 23.676 45.81 21.506 43.69 19.856C43.03 19.346 42.34 18.876 41.62 18.466C38.85 16.866 36.47 16.526 34.47 17.436L41.72 13.806L54.09 7.626C56.16 6.486 58.67 6.76596 61.62 8.46596C64.64 10.206 67.16 12.836 69.2 16.346C71.23 19.866 72.25 23.346 72.25 26.806Z" class="pr-icon-iso-duotone-primary-stroke" stroke-linejoin="round"/>
    <path d="M80.5999 65.3659C80.5999 68.7559 79.5799 71.0459 77.5399 72.2459C76.9899 72.5659 76.4099 72.776 75.7999 72.886C75.0499 73.026 74.2399 72.9959 73.3699 72.8059C72.3199 72.5859 71.1898 72.1259 69.9698 71.4259C67.6398 70.0859 65.5799 68.156 63.7999 65.646C63.3299 64.976 62.8699 64.2759 62.4399 63.5259C61.9599 62.6959 61.5299 61.8659 61.1599 61.0459C60.3799 59.3059 59.8499 57.5959 59.5699 55.9059C59.4199 54.9559 59.3398 54.0259 59.3398 53.0959C59.3398 49.6359 60.3699 47.336 62.4399 46.196L62.8199 46.006C64.8199 45.086 67.1998 45.4259 69.9698 47.0359C72.9798 48.7759 75.5099 51.3959 77.5399 54.9159C77.6199 55.0559 77.6998 55.2059 77.7798 55.3459C78.2798 56.2259 78.7099 57.116 79.0699 58.006C79.3499 58.686 79.5999 59.3659 79.7899 60.0459C80.3299 61.8259 80.5999 63.6059 80.5999 65.3659Z" class="pr-icon-iso-duotone-primary-stroke" stroke-linejoin="round"/>
    <path d="M100.6 55.366C100.6 58.756 99.5798 61.046 97.5398 62.246L96.8998 62.566L90.4598 65.786L77.5398 72.246C79.5798 71.046 80.5998 68.756 80.5998 65.366C80.5998 63.606 80.3298 61.826 79.7898 60.046C79.5998 59.366 79.3498 58.686 79.0698 58.006C78.7098 57.116 78.2798 56.226 77.7798 55.346C77.6998 55.206 77.6198 55.056 77.5398 54.916C75.5098 51.396 72.9798 48.776 69.9698 47.036C67.1998 45.426 64.8198 45.086 62.8198 46.006L69.6398 42.596L82.4398 36.196C84.5098 35.046 87.0198 35.326 89.9698 37.036C92.9798 38.776 95.5098 41.396 97.5398 44.916C99.5798 48.426 100.6 51.916 100.6 55.366Z" class="pr-icon-iso-duotone-primary-stroke" stroke-linejoin="round"/>
    <path d="M23.9099 32.636C23.9099 34.806 23.4899 36.526 22.6499 37.796C22.1799 38.516 21.5799 39.086 20.8499 39.516C18.8099 40.706 16.2899 40.436 13.2799 38.696C12.4599 38.226 11.6799 37.686 10.9299 37.066C8.96993 35.466 7.23994 33.376 5.74994 30.796C3.67994 27.226 2.6499 23.756 2.6499 20.366C2.6499 16.976 3.67994 14.606 5.74994 13.466L6.12994 13.276C8.11994 12.356 10.4999 12.696 13.2799 14.306C16.2899 16.046 18.8099 18.666 20.8499 22.186C22.4999 25.026 23.4799 27.846 23.7899 30.636C23.7899 30.716 23.8099 30.796 23.8199 30.876C23.8799 31.466 23.9099 32.046 23.9099 32.636Z" class="pr-icon-iso-duotone-primary-stroke" stroke-linejoin="round"/>
    <path d="M100.6 79.766V91.9659C100.6 93.1159 100.26 93.8859 99.58 94.2759L99.37 94.376L79.58 104.276C80.26 103.886 80.6 103.116 80.6 101.966V89.766C80.6 87.696 80.05 85.606 78.95 83.516C78.83 83.276 78.7 83.036 78.56 82.796C77.84 81.546 77.02 80.466 76.11 79.566C75.32 78.756 74.45 78.086 73.51 77.546L61.91 70.8459C60.79 70.1959 59.71 69.906 58.68 69.996C57.64 70.076 56.74 70.466 55.97 71.176C54.32 72.866 52.24 73.726 49.73 73.766C47.22 73.816 44.52 72.996 41.62 71.326C40.12 70.456 38.66 69.406 37.25 68.176C36 67.086 34.79 65.8459 33.61 64.4659C31.1 61.5259 28.99 58.236 27.27 54.606C27.09 54.176 26.88 53.7459 26.66 53.3359C26.12 52.2859 25.47 51.296 24.7 50.376C24.11 49.656 23.49 49.026 22.86 48.496C22.36 48.076 21.86 47.716 21.34 47.416L9.72998 40.7159C7.77998 39.5959 6.11998 39.406 4.72998 40.166L10.93 37.066C11.68 37.686 12.46 38.226 13.28 38.696C16.29 40.436 18.81 40.706 20.85 39.516L22.65 38.616L33.22 33.3359C33.48 33.8759 33.77 34.4259 34.09 34.9659C34.36 35.4259 34.64 35.876 34.92 36.306L23.22 42.176L22.91 42.326C22.82 42.356 22.73 42.396 22.65 42.456C22.19 42.716 21.81 43.046 21.51 43.456C21.9 43.676 22.28 43.916 22.65 44.176C24 45.126 25.26 46.316 26.43 47.766C27.94 49.616 29.19 51.686 30.2 53.956C30.52 54.646 30.87 55.316 31.23 55.976C32.38 58.076 33.72 60.016 35.25 61.796C36.91 63.746 38.66 65.336 40.49 66.556C40.86 66.806 41.24 67.046 41.62 67.266C43.93 68.596 46.08 69.256 48.09 69.266C50.1 69.276 51.75 68.566 53.05 67.146C53.86 66.246 54.85 65.676 56.01 65.446C56.28 65.386 56.57 65.3559 56.86 65.3359C58.39 65.2359 60.02 65.686 61.73 66.676L63.8 65.646C65.58 68.156 67.64 70.086 69.97 71.426C71.19 72.126 72.32 72.586 73.37 72.806C74.24 72.996 75.05 73.026 75.8 72.886C76.41 72.776 76.99 72.566 77.54 72.246L90.46 65.7859L93.51 67.546C95.52 68.696 97.2 70.456 98.56 72.796C99.92 75.136 100.6 77.456 100.6 79.766Z" class="pr-icon-iso-duotone-primary-stroke" stroke-linejoin="round"/>
    <path d="M31.5099 71.046L26.4299 73.5859" class="pr-icon-iso-duotone-primary-stroke" stroke-linejoin="round"/>
</svg>