<svg width="48" height="48" viewBox="0 0 100 138" fill="#c8e7ff" xmlns="http://www.w3.org/2000/svg" stroke-width="1px" stroke-linecap="round" stroke-linejoin="round"><path d="M25.8099 45.3982V45.5382L25.8699 45.4982L25.8099 45.3982ZM24.9399 26.9982L24.8799 27.0282C24.8099 27.0682 24.7399 27.1182 24.6699 27.1782L25.2499 26.8882C25.1399 26.9182 25.0399 26.9482 24.9399 26.9982Z" stroke="#229EFF" stroke-linejoin="round"/><path d="M74.4495 129.288L54.9595 95.6781L54.4695 94.8281L47.8095 83.3481L47.2595 82.3981L40.1695 70.1681L33.5095 58.6781L32.9595 57.7281L25.8695 45.4981L25.8095 45.5381V45.3981L8.66945 15.8381C8.01945 14.7081 7.17945 13.8581 6.16945 13.2681C5.25945 12.7481 4.47945 12.6081 3.85945 12.8581L3.66945 12.9481C3.00945 13.3281 2.68945 14.0981 2.68945 15.2581C2.68945 16.4181 3.00945 17.5681 3.66945 18.6981L5.80945 22.3981V80.6381C5.80945 82.8981 6.50945 85.2381 7.90945 87.6481C9.30945 90.0681 10.9995 91.8381 12.9595 92.9781L63.5495 122.178L69.4395 132.248C70.1595 133.418 71.0095 134.258 71.9895 134.798C72.9695 135.328 73.7895 135.408 74.4495 135.038C75.1595 134.628 75.5095 133.848 75.4795 132.708C75.4495 131.558 75.0995 130.428 74.4495 129.288ZM20.1095 88.8981L12.9595 84.7681V76.5681L20.1095 80.6981V88.8981ZM20.1095 72.4881L12.9595 68.3581V60.1581L20.1095 64.2881V72.4881ZM20.1095 56.0781L12.9595 51.9581V43.7481L20.1095 47.8781V56.0781ZM34.4095 97.1581L27.2595 93.0281V84.8181L34.4095 88.9481V97.1581ZM34.4095 80.7481L28.1895 77.1581L27.3895 76.6981L27.2595 76.6181V68.4181L32.9595 71.6981L34.4095 72.5381V80.7481ZM41.5595 101.278V93.0781L49.1695 97.4681L49.2495 97.5181L56.3995 109.848L41.5595 101.278Z" stroke="#229EFF" stroke-linejoin="round"/><path d="M20.109 80.6981V81.1981L12.959 84.7681V76.5681L20.109 80.6981Z" stroke="#229EFF" stroke-linejoin="round"/><path d="M20.109 81.198V88.898L12.959 84.768L20.109 81.198Z" stroke="#229EFF" stroke-linejoin="round"/><path d="M77.3093 80.898V113.718C77.3093 114.888 77.0393 115.658 76.4893 115.998L76.1893 116.148C75.4493 116.398 74.6293 116.268 73.7293 115.758C72.8393 115.238 72.0193 114.408 71.2793 113.258C70.5293 112.108 70.1593 110.848 70.1593 109.488V76.768L69.6093 76.448L63.4793 72.908L54.4093 67.678L47.2593 63.558L43.3493 61.298C42.1693 60.618 41.0893 59.708 40.1093 58.558C39.4593 57.798 38.8593 56.938 38.2993 55.968C37.5793 54.728 37.0493 53.518 36.7093 52.318C36.3693 51.178 36.1993 50.058 36.1993 48.958V40.758L32.9593 38.888L27.3493 35.648C26.7593 35.308 26.2493 34.908 25.8093 34.448C25.3493 33.968 24.9693 33.428 24.6693 32.818C24.0693 31.618 23.7793 30.508 23.7793 29.488C23.7793 28.468 24.0693 27.688 24.6693 27.178L25.2493 26.888C25.4193 26.848 25.6093 26.838 25.8093 26.868C26.2493 26.908 26.7693 27.108 27.3493 27.448L36.1993 32.558C38.1693 33.688 39.8493 35.468 41.2493 37.878C42.6493 40.298 43.3493 42.628 43.3493 44.888V53.088L62.4693 64.128L70.1593 68.568C70.4593 68.738 70.7493 68.928 71.0293 69.138C72.6293 70.258 74.0193 71.848 75.2093 73.898C75.3393 74.118 75.4593 74.348 75.5693 74.568C75.6493 74.698 75.7193 74.838 75.7793 74.968C76.7993 76.998 77.3093 78.978 77.3093 80.898Z" stroke="#229EFF" stroke-linejoin="round"/><path d="M56.3986 109.848L41.5586 101.278L49.1686 97.468L49.2486 97.518L56.3986 109.848Z" stroke="#229EFF" stroke-linejoin="round"/><path d="M49.1686 97.4681L41.5586 101.278V93.0781L49.1686 97.4681Z" stroke="#229EFF" stroke-linejoin="round"/><path d="M34.4098 89.458V97.158L27.2598 93.028L34.4098 89.458Z" stroke="#229EFF" stroke-linejoin="round"/><path d="M34.4098 88.9481V89.4581L27.2598 93.0281V84.8181L34.4098 88.9481Z" stroke="#229EFF" stroke-linejoin="round"/><path d="M34.4098 72.538V73.048L32.9598 73.768L27.3398 76.578L27.2598 76.618V68.418L32.9598 71.698L34.4098 72.538Z" stroke="#229EFF" stroke-linejoin="round"/><path d="M34.4098 73.0481V80.7481L28.1898 77.1581L27.3898 76.6981L27.2598 76.6181L27.3398 76.5781L32.9598 73.7681L34.4098 73.0481Z" stroke="#229EFF" stroke-linejoin="round"/><path d="M20.109 64.7881V72.4881L12.959 68.3581L20.109 64.7881Z" stroke="#229EFF" stroke-linejoin="round"/><path d="M20.109 64.288V64.788L12.959 68.358V60.158L20.109 64.288Z" stroke="#229EFF" stroke-linejoin="round"/><path d="M20.109 48.3882V56.0782L12.959 51.9582L20.109 48.3882Z" stroke="#229EFF" stroke-linejoin="round"/><path d="M20.109 47.878V48.3881L12.959 51.958V43.748L20.109 47.878Z" stroke="#229EFF" stroke-linejoin="round"/><path d="M25.8086 45.3979V45.5379L25.8686 45.4979L25.8086 45.3979Z" stroke="#229EFF" stroke-linejoin="round"/><path d="M63.0094 80.848V89.048L61.5594 88.208L55.8594 84.928V76.718L63.0094 80.848Z" stroke="#229EFF" stroke-linejoin="round"/><path d="M97.3096 70.8981V103.718C97.3096 105.088 96.9396 105.898 96.1896 106.148L88.9296 109.778L83.6796 112.398L76.4896 115.998C77.0396 115.658 77.3096 114.888 77.3096 113.718V80.8981C77.3096 78.9781 76.7996 76.9981 75.7796 74.9681C75.7196 74.8381 75.6496 74.6981 75.5696 74.5681C75.4596 74.3481 75.3396 74.1181 75.2096 73.8981C74.0196 71.8481 72.6296 70.2581 71.0296 69.1381C70.7496 68.9281 70.4596 68.7381 70.1596 68.5681L62.4696 64.1281L43.3496 53.0881L53.2096 48.1581L58.1496 45.6881L63.3496 43.0881L90.1596 58.5681C92.1196 59.7081 93.8096 61.4781 95.2096 63.8981C96.6096 66.3081 97.3096 68.6481 97.3096 70.8981Z" stroke="#229EFF" stroke-linejoin="round"/><path d="M63.3495 34.888V43.088L58.1495 45.688L53.2095 48.158L43.3495 53.088V44.888C43.3495 42.628 42.6495 40.298 41.2495 37.878C39.8495 35.468 38.1695 33.688 36.1995 32.558L27.3495 27.448C26.7695 27.108 26.2495 26.908 25.8095 26.868C25.6095 26.838 25.4195 26.848 25.2495 26.888C25.1395 26.918 25.0395 26.948 24.9395 26.998L37.3395 20.798L44.8695 17.038H44.8895C45.4795 16.698 46.2995 16.838 47.3495 17.448L56.1995 22.558C58.1695 23.688 59.8495 25.468 61.2495 27.878C62.6495 30.298 63.3495 32.628 63.3495 34.888Z" stroke="#229EFF" stroke-linejoin="round"/><path d="M70.1594 76.768V77.278L70.0994 77.298L63.0094 80.848L55.8594 76.718L63.4794 72.908L69.6094 76.448L70.1594 76.768Z" stroke="#229EFF" stroke-linejoin="round"/><path d="M95.4794 122.708C95.5094 123.848 95.1594 124.628 94.4494 125.038L94.2394 125.138L74.4494 135.038C75.1594 134.628 75.5094 133.848 75.4794 132.708C75.4494 131.558 75.0994 130.428 74.4494 129.288L54.9594 95.6781L54.4694 94.8281L47.8094 83.3481L47.2594 82.3981L40.1694 70.1681L33.5094 58.6781L32.9594 57.7281L25.8694 45.4981L25.8094 45.3981L8.66937 15.8381C8.01937 14.7081 7.17937 13.8581 6.16937 13.2681C5.25937 12.7481 4.47938 12.6081 3.85938 12.8581L23.6694 2.94812C24.3194 2.57812 25.1594 2.68812 26.1694 3.26812C27.1794 3.85812 28.0194 4.70812 28.6694 5.83812L37.3394 20.7981L24.9394 26.9981L24.8794 27.0281C24.8094 27.0681 24.7394 27.1181 24.6694 27.1781C24.0694 27.6881 23.7794 28.4581 23.7794 29.4881C23.7794 30.5181 24.0694 31.6181 24.6694 32.8181C24.9694 33.4281 25.3494 33.9681 25.8094 34.4481C26.2494 34.9081 26.7594 35.3081 27.3494 35.6481L32.9594 38.8881L36.1994 40.7581V48.9581C36.1994 50.0581 36.3694 51.1781 36.7094 52.3181C37.0494 53.5181 37.5794 54.7281 38.2994 55.9681C38.8594 56.9381 39.4594 57.7981 40.1094 58.5581C41.0894 59.7081 42.1694 60.6181 43.3494 61.2981L47.2594 63.5581L54.4094 67.6781L63.4794 72.9081L55.8594 76.7181V84.9281L61.5594 88.2081L63.0094 89.0481L67.7694 86.6681L70.1594 85.4781V109.488C70.1594 110.848 70.5294 112.108 71.2794 113.258C72.0194 114.408 72.8394 115.238 73.7294 115.758C74.6294 116.268 75.4494 116.398 76.1894 116.148L76.4894 115.998L83.6794 112.398L88.9294 109.778L94.4494 119.288C95.0994 120.428 95.4494 121.558 95.4794 122.708Z" stroke="#229EFF" stroke-linejoin="round"/><path d="M70.1598 77.2781V85.4781L67.7698 86.6681L63.0098 89.0481V80.8481L70.0998 77.2981L70.1598 77.2781Z" stroke="#229EFF" stroke-linejoin="round"/><path d="M24.9389 26.998L24.8789 27.028" stroke="#229EFF" stroke-linejoin="round"/></svg>