<svg width="48" height="48" viewBox="0 0 105 120" fill="#c8e7ff" xmlns="http://www.w3.org/2000/svg" stroke-width="1px" stroke-linecap="round" stroke-linejoin="round"><path d="M66.4 114.94C66.29 115.96 65.9299 116.67 65.2899 117.05C65.0699 117.18 64.8299 117.27 64.5599 117.33C62.5899 117.59 60.54 117.62 58.39 117.39C56.25 117.17 54.0599 116.73 51.8199 116.05C50.5299 115.7 49.39 114.77 48.4 113.26C47.42 111.76 46.9199 110.23 46.9199 108.67C46.9199 107.57 47.1999 106.76 47.7399 106.21C47.8599 106.09 47.9899 105.99 48.1299 105.92L48.3499 105.81C48.7999 105.64 49.3399 105.66 49.9799 105.87C51.8199 106.46 53.6 106.85 55.34 107.03C57.07 107.21 58.72 107.17 60.28 106.9C61.03 106.71 61.86 106.96 62.78 107.64C63.7 108.33 64.4899 109.26 65.1699 110.43C66.1299 112.07 66.53 113.57 66.4 114.94Z" stroke="#229EFF" stroke-linejoin="round"/><path d="M82.75 97.62C82.74 97.97 82.69 98.3 82.61 98.62C82.07 100.88 81.35 102.98 80.47 104.93C80.06 105.81 79.63 106.66 79.14 107.46C78.59 108.43 77.97 109.33 77.31 110.18C77.15 110.35 76.98 110.5 76.8 110.6L76.67 110.67C76.02 111.02 75.23 110.97 74.3 110.55C73.04 109.98 71.94 108.87 70.99 107.23C70.58 106.52 70.27 105.82 70.05 105.13C69.91 104.68 69.82 104.23 69.76 103.78C69.63 102.64 69.83 101.81 70.37 101.26C71.39 100.06 72.26 98.65 72.97 97.03C73.02 96.92 73.07 96.8 73.11 96.68C73.77 95.17 74.28 93.54 74.66 91.8C74.82 91.04 75.15 90.52 75.64 90.27L75.81 90.19C75.9 90.15 75.99 90.13 76.08 90.11C76.83 89.96 77.68 90.15 78.63 90.7C79.99 91.49 81.08 92.68 81.9 94.28C82.51 95.49 82.79 96.6 82.75 97.62Z" stroke="#229EFF" stroke-linejoin="round"/><path d="M81.8999 81.41C81.8099 81.49 81.7098 81.55 81.6098 81.61L81.4999 81.67C80.7399 82.04 79.7699 81.89 78.6299 81.23C77.6799 80.68 76.8299 79.88 76.0799 78.82C75.3399 77.76 74.8598 76.63 74.6598 75.42C74.4698 74.35 74.2498 73.27 73.9898 72.18C73.6998 70.9 73.3598 69.61 72.9698 68.31C72.2598 65.91 71.3899 63.52 70.3699 61.13C70.3299 61.04 70.2899 60.94 70.2599 60.85C70.2199 60.76 70.1898 60.68 70.1598 60.6C69.7798 59.56 69.6499 58.63 69.7599 57.8C69.8999 56.82 70.3098 56.14 70.9898 55.75L71.2898 55.6C72.1698 55.25 73.1698 55.47 74.2998 56.26C75.0698 56.8 75.7399 57.5 76.3099 58.36C76.6899 58.91 77.0199 59.53 77.3099 60.22C78.4499 63 79.4498 65.79 80.2898 68.57C80.3598 68.76 80.4098 68.94 80.4698 69.13C81.3498 72.09 82.0698 75.02 82.6098 77.91C82.9498 79.59 82.7099 80.75 81.8999 81.41Z" stroke="#229EFF" stroke-linejoin="round"/><path d="M37.9501 100.56C38.5001 101.73 38.7701 102.86 38.7701 103.96C38.7701 105.33 38.3901 106.23 37.6301 106.68L37.3701 106.81C37.3701 106.81 37.32 106.84 37.29 106.85C36.3 107.21 35.1601 106.83 33.8701 105.69C24.5601 97.9 16.93 88.03 10.98 76.1C5.04004 64.16 2.06006 52.7 2.06006 41.7C2.06006 30.7 5.04004 22.67 10.98 17.6C12.37 16.41 13.8501 15.44 15.4301 14.71L15.7101 14.57C18.9301 13.11 22.51 12.56 26.48 12.9C28.81 13.1 31.2801 13.62 33.8701 14.44C35.1501 14.79 36.2901 15.71 37.2701 17.21C37.2701 17.22 37.29 17.22 37.29 17.23C38.27 18.73 38.7701 20.27 38.7701 21.83C38.7701 22.92 38.5001 23.74 37.9501 24.28C37.8101 24.42 37.6601 24.53 37.4901 24.61C37.0101 24.85 36.4101 24.86 35.7101 24.62C34.6101 24.27 33.5301 23.99 32.4901 23.78C28.8301 23.05 25.53 23.17 22.6 24.15C20.7 24.78 18.95 25.77 17.36 27.13C12.6 31.17 10.22 37.6 10.22 46.41C10.22 55.22 12.6 64.4 17.36 73.93C22.11 83.46 28.2301 91.36 35.7101 97.63C36.6601 98.41 37.4101 99.39 37.9501 100.56Z" stroke="#229EFF" stroke-linejoin="round"/><path d="M86.1801 105.91C85.9601 106.52 85.5802 106.95 85.0302 107.18L84.9501 107.22L65.2901 117.05C65.9301 116.67 66.2901 115.96 66.4001 114.94C66.5301 113.57 66.1301 112.07 65.1701 110.43C64.4901 109.26 63.7002 108.33 62.7802 107.64C61.8602 106.96 61.0302 106.71 60.2802 106.9C58.7202 107.17 57.0701 107.21 55.3401 107.03C53.6001 106.85 51.8201 106.46 49.9801 105.87C49.3401 105.66 48.8001 105.64 48.3501 105.81L68.2601 95.85C68.7301 95.64 69.3001 95.64 69.9801 95.87C71.0401 96.21 72.0801 96.48 73.1101 96.68C73.0701 96.8 73.0201 96.92 72.9701 97.03C72.2601 98.65 71.3901 100.06 70.3701 101.26C69.8301 101.81 69.6301 102.64 69.7601 103.78C69.8201 104.23 69.9101 104.68 70.0501 105.13C70.2701 105.82 70.5801 106.52 70.9901 107.23C71.9401 108.87 73.0401 109.98 74.3001 110.55C75.2301 110.97 76.0201 111.02 76.6701 110.67L76.8001 110.6L83.0501 107.48L86.1801 105.91Z" stroke="#229EFF" stroke-linejoin="round"/><path d="M101.9 71.41C101.71 71.56 101.5 71.68 101.28 71.75L81.6198 81.61C81.7198 81.55 81.8198 81.49 81.9098 81.41C82.7198 80.75 82.9598 79.59 82.6198 77.91C82.0798 75.02 81.3598 72.09 80.4798 69.13C80.4198 68.94 80.3698 68.76 80.2998 68.57C79.4598 65.79 78.4598 63 77.3198 60.22C77.0298 59.53 76.6998 58.91 76.3198 58.36C75.7498 57.5 75.0798 56.8 74.3098 56.26C73.1798 55.47 72.1798 55.25 71.2998 55.6L90.9998 45.75C91.9498 45.21 93.0498 45.38 94.3098 46.26C95.5698 47.14 96.5698 48.46 97.3198 50.22C98.5398 53.19 99.5898 56.16 100.48 59.13C101.36 62.09 102.08 65.02 102.62 67.91C102.96 69.59 102.72 70.75 101.91 71.41H101.9Z" stroke="#229EFF" stroke-linejoin="round"/><path d="M58.7703 93.96C58.7703 95.52 58.2702 96.48 57.2902 96.85L37.6302 106.68C38.3902 106.23 38.7703 105.33 38.7703 103.96C38.7703 102.86 38.5003 101.73 37.9503 100.56C37.4103 99.39 36.6603 98.41 35.7103 97.63C28.2303 91.36 22.1102 83.46 17.3602 73.93C12.6002 64.4 10.2202 55.22 10.2202 46.41C10.2202 37.6 12.6002 31.17 17.3602 27.13C18.9502 25.77 20.7002 24.78 22.6002 24.15C25.5302 23.17 28.8302 23.05 32.4902 23.78C30.9802 27.24 30.2202 31.44 30.2202 36.41C30.2202 40.28 30.6802 44.23 31.6102 48.24L25.4702 51.31L25.2103 51.44C25.2103 51.44 25.1502 51.47 25.1302 51.5C24.3602 51.96 23.9702 52.81 23.9302 54.03C23.9002 55.3 24.2902 56.64 25.1102 58.05L39.8903 83.66C40.6403 84.95 41.5902 85.93 42.7402 86.6C43.6502 87.12 44.4303 87.3 45.0803 87.16C45.2703 87.12 45.4402 87.05 45.6002 86.96L51.6503 83.93C52.9503 85.22 54.3103 86.45 55.7103 87.63C56.6603 88.41 57.4103 89.39 57.9503 90.56C58.5003 91.73 58.7703 92.86 58.7703 93.96Z" stroke="#229EFF" stroke-linejoin="round"/><path d="M61.4503 75.99C61.4203 77.3 60.9903 78.18 60.1803 78.65L51.3803 83.66L45.6003 86.96C45.4403 87.05 45.2703 87.12 45.0803 87.16C44.4303 87.3 43.6503 87.12 42.7403 86.6C41.5903 85.93 40.6403 84.95 39.8903 83.66L25.1103 58.05C24.2903 56.64 23.9003 55.3 23.9303 54.03C23.9703 52.81 24.3603 51.96 25.1303 51.5C25.1503 51.47 25.1803 51.46 25.2103 51.44L25.4703 51.31C26.2303 51 27.1103 51.13 28.1103 51.71C29.2303 52.36 30.2003 53.38 31.0203 54.79L38.6703 68.1V44.11C38.6703 42.79 39.0604 41.9 39.8404 41.46L40.0803 41.34C40.8203 41.04 41.7103 41.19 42.7403 41.79C43.0003 41.94 43.2603 42.11 43.5003 42.3C43.7203 42.46 43.9203 42.64 44.1203 42.84C44.6903 43.38 45.2003 44.04 45.6503 44.81C46.4303 46.16 46.8203 47.5 46.8203 48.82V72.81L54.3703 68.5L54.6203 68.38C55.3003 68.1 56.0903 68.18 56.9903 68.64C57.1003 68.68 57.2103 68.74 57.3203 68.81C58.4803 69.47 59.4604 70.51 60.2804 71.92C61.0204 73.2 61.4103 74.43 61.4403 75.63C61.4503 75.75 61.4503 75.87 61.4503 75.99Z" stroke="#229EFF" stroke-linejoin="round"/><path d="M57.5601 14.58L57.3701 14.67" stroke="#229EFF" stroke-linejoin="round"/><path d="M58.77 11.83C58.77 12.92 58.5 13.74 57.95 14.28C57.78 14.45 57.5899 14.58 57.3699 14.67L37.4899 24.61C37.6599 24.53 37.81 24.42 37.95 24.28C38.5 23.74 38.77 22.92 38.77 21.83C38.77 20.27 38.2699 18.73 37.2899 17.23C37.2899 17.23 37.28 17.23 37.27 17.21C36.29 15.71 35.1499 14.79 33.8699 14.44C31.2799 13.62 28.8099 13.1 26.4799 12.9C22.5099 12.56 18.93 13.11 15.71 14.57L33.7999 5.58001L33.9099 5.52001C39.3699 2.30001 46.0199 1.95001 53.8699 4.44001C55.1599 4.79001 56.2999 5.72001 57.2899 7.23001C58.2699 8.73001 58.77 10.27 58.77 11.83Z" stroke="#229EFF" stroke-linejoin="round"/><path d="M33.9098 5.52002L33.7998 5.58002" stroke="#229EFF" stroke-linejoin="round"/><path d="M85.2799 35.91L85.0099 36.04L66.8199 45.14L65.2799 45.91C66.2299 45.36 66.6399 44.33 66.4999 42.81C66.3599 41.29 65.7199 39.76 64.5599 38.24C62.8599 36.05 61.0999 33.96 59.2499 31.98C59.2199 31.93 59.1699 31.88 59.1099 31.83C58.8799 31.57 58.6399 31.31 58.3899 31.05C56.2499 28.8 54.0599 26.72 51.8199 24.8C50.5299 23.66 49.3899 23.28 48.3999 23.64L68.0599 13.81L68.3999 13.64C69.3899 13.28 70.5299 13.66 71.8199 14.8C74.0599 16.72 76.2499 18.8 78.3899 21.05C80.5399 23.3 82.5899 25.7 84.5599 28.24C85.7199 29.76 86.3599 31.29 86.4999 32.81C86.6399 34.33 86.2299 35.36 85.2799 35.91Z" stroke="#229EFF" stroke-linejoin="round"/><path d="M66.8201 45.14V62.28L56.3401 67.51L54.6201 68.38L54.3701 68.5L46.8201 72.81V48.82C46.8201 47.5 46.4301 46.16 45.6501 44.81C45.2001 44.04 44.6901 43.38 44.1201 42.84C43.9201 42.64 43.7201 42.46 43.5001 42.3C43.2601 42.11 43.0001 41.94 42.7401 41.79C41.7101 41.19 40.8201 41.04 40.0801 41.34L52.54 35.11C53.49 35.99 54.4201 36.92 55.3401 37.88C56.4901 39.09 57.61 40.36 58.67 41.68C59.22 42.35 59.7601 43.03 60.2801 43.72C61.1001 44.82 61.9601 45.55 62.8801 45.93C63.8001 46.3 64.6001 46.29 65.2801 45.91L66.8201 45.14Z" stroke="#229EFF" stroke-linejoin="round"/><path d="M65.28 45.91C64.6 46.29 63.7999 46.3 62.8799 45.93C61.9599 45.55 61.1 44.82 60.28 43.72C59.76 43.03 59.2199 42.35 58.6699 41.68C57.6099 40.36 56.49 39.09 55.34 37.88C54.42 36.92 53.4899 35.99 52.5399 35.11C51.6999 34.33 50.8499 33.58 49.9799 32.86C49.0299 32.08 48.2799 31.1 47.7399 29.93C47.1999 28.76 46.9199 27.63 46.9199 26.53C46.9199 24.97 47.42 24.01 48.4 23.64C49.39 23.28 50.5299 23.66 51.8199 24.8C54.0599 26.72 56.25 28.8 58.39 31.05C58.64 31.31 58.8799 31.57 59.1099 31.83C59.1699 31.88 59.2199 31.93 59.2499 31.98C61.0999 33.96 62.8599 36.05 64.5599 38.24C65.7199 39.76 66.3599 41.29 66.4999 42.81C66.6399 44.33 66.23 45.36 65.28 45.91Z" stroke="#229EFF" stroke-linejoin="round"/><path d="M38.6702 44.71V68.1L31.0203 54.79C30.2003 53.38 29.2302 52.36 28.1102 51.71C27.1102 51.13 26.2302 51 25.4702 51.31L31.6102 48.24L38.6702 44.71Z" stroke="#229EFF" stroke-linejoin="round"/><path d="M73.9901 72.18L65.6001 76.96L65.3801 77.07L51.6501 83.93L45.6001 86.96L51.3801 83.66L60.1801 78.65C60.9901 78.18 61.4201 77.3 61.4501 75.99C61.4501 75.87 61.4501 75.75 61.4401 75.63C61.4101 74.43 61.0202 73.2 60.2802 71.92C59.4602 70.51 58.4801 69.47 57.3201 68.81C57.2101 68.74 57.1001 68.68 56.9901 68.64C56.0901 68.18 55.3001 68.1 54.6201 68.38L56.3401 67.51L66.8201 62.28L70.1601 60.6C70.1901 60.68 70.2201 60.76 70.2601 60.85C70.2901 60.94 70.3301 61.04 70.3701 61.13C71.3901 63.52 72.2601 65.91 72.9701 68.31C73.3601 69.61 73.7001 70.9 73.9901 72.18Z" stroke="#229EFF" stroke-linejoin="round"/><path d="M102.61 88.62C102.07 90.88 101.35 92.98 100.47 94.93C99.58 96.87 98.5301 98.62 97.3101 100.18C97.0701 100.44 96.8001 100.64 96.5001 100.75H96.48L86.1801 105.91L83.05 107.48L76.8 110.6C76.98 110.5 77.1501 110.35 77.3101 110.18C77.9701 109.33 78.5901 108.43 79.1401 107.46C79.6301 106.66 80.06 105.81 80.47 104.93C81.35 102.98 82.07 100.88 82.61 98.62C82.69 98.3 82.7401 97.97 82.7501 97.62C82.7901 96.6 82.5101 95.49 81.9001 94.28C81.0801 92.68 79.9901 91.49 78.6301 90.7C77.6801 90.15 76.8301 89.96 76.0801 90.11C75.9901 90.13 75.9001 90.15 75.8101 90.19L95.55 80.32L95.5801 80.3C95.7301 80.21 95.9001 80.15 96.0801 80.11C96.8301 79.96 97.6801 80.15 98.6301 80.7C99.9901 81.49 101.08 82.68 101.9 84.28C102.71 85.89 102.95 87.33 102.61 88.62Z" stroke="#229EFF" stroke-linejoin="round"/><path d="M70.9902 55.75L71.2902 55.6" stroke="#229EFF" stroke-linejoin="round"/><path d="M81.61 81.61L81.5 81.67" stroke="#229EFF" stroke-linejoin="round"/></svg>