<svg width="48" height="48" viewBox="0 0 97 129" fill="#c8e7ff" xmlns="http://www.w3.org/2000/svg" stroke-width="1px" stroke-linecap="round" stroke-linejoin="round"><path d="M74.1497 86.7153C73.6297 81.3153 72.1798 76.1153 69.7998 71.0853C69.6598 70.7953 69.5296 70.5153 69.3796 70.2353C67.3296 66.0853 64.9197 62.7453 62.1497 60.2353C60.9097 59.1053 59.5997 58.1453 58.2197 57.3453C55.5497 55.8053 53.1997 55.1552 51.1497 55.3952C50.6197 55.4552 50.1196 55.5753 49.6296 55.7553L49.5596 55.7852C48.3596 56.2452 47.2796 57.0653 46.3296 58.2553C46.2296 58.3853 46.1298 58.5152 46.0298 58.6452C44.1698 61.0952 42.9697 64.1352 42.4197 67.7652C42.1797 69.3152 42.0596 70.9753 42.0596 72.7453C42.0596 73.7953 42.0897 74.8452 42.1597 75.8952C42.2897 77.9252 42.5497 79.9353 42.9297 81.9453C43.0897 82.8353 43.2798 83.7153 43.4998 84.5953C44.4498 88.5153 45.2898 91.7053 46.0098 94.1853L45.2898 95.1053C44.8098 95.7953 44.1596 96.9452 43.3196 98.5552C42.4796 100.165 42.0596 102.105 42.0596 104.365C42.0596 108.285 43.1198 112.155 45.2498 115.995C47.3698 119.835 50.0498 122.685 53.2798 124.545C56.8198 126.585 59.6997 127.095 61.9197 126.055L62.4397 125.795C62.9097 125.505 63.3397 125.155 63.7397 124.715C66.1097 122.165 67.2597 118.435 67.1997 113.525L68.8196 111.575C68.8996 111.485 68.9796 111.365 69.0796 111.245C69.7396 110.295 70.7496 108.405 72.0896 105.585C72.1096 105.545 72.1297 105.505 72.1497 105.455C73.3197 102.945 74.0198 99.5353 74.2698 95.2053C74.3498 94.0153 74.3796 92.7452 74.3796 91.4052C74.3796 89.8252 74.2997 88.2653 74.1497 86.7153ZM58.4497 116.195C57.3997 117.655 55.6798 117.685 53.2798 116.305C52.0898 115.615 51.1096 114.485 50.3696 112.925C49.6196 111.355 49.2397 109.885 49.2397 108.515C49.2397 107.345 49.4797 106.285 49.9597 105.325C50.4397 104.365 50.9197 103.545 51.3997 102.855L60.0198 109.895C60.0198 112.645 59.4897 114.745 58.4497 116.195ZM67.1797 88.4753C67.0997 92.3153 66.5796 95.4452 65.6296 97.8852C64.8996 99.7452 64.2096 101.235 63.5596 102.355C63.2696 102.845 62.9897 103.265 62.7097 103.615L52.8296 95.6552C52.0596 92.9352 51.2597 89.9553 50.4597 86.7053C49.7997 84.0753 49.4098 81.4252 49.2898 78.7652C49.2798 78.6452 49.2698 78.5252 49.2698 78.4152C49.2498 77.9052 49.2397 77.3952 49.2397 76.8852C49.2397 72.7652 50.0697 69.4653 51.7097 66.9853C52.4697 65.8453 53.3296 65.1253 54.3096 64.8353C55.4596 64.4953 56.7597 64.7453 58.2197 65.5853C59.8797 66.5453 61.3396 68.0453 62.6096 70.0853C63.3896 71.3453 64.0997 72.8153 64.7297 74.4953C66.3797 78.8853 67.1997 83.1353 67.1997 87.2553C67.1997 87.6753 67.1997 88.0753 67.1797 88.4753Z" stroke="#229EFF" stroke-linejoin="round"/><path d="M60.0203 109.895C60.0203 112.645 59.4902 114.745 58.4502 116.195C57.4002 117.655 55.6803 117.685 53.2803 116.305C52.0903 115.615 51.1101 114.485 50.3701 112.925C49.6201 111.355 49.2402 109.885 49.2402 108.515C49.2402 107.345 49.4802 106.285 49.9602 105.325C50.4402 104.365 50.9201 103.545 51.4001 102.855L60.0203 109.895Z" stroke="#229EFF" stroke-linejoin="round"/><path d="M31.6497 66.6253L30.9297 64.8753C31.2697 64.0953 31.6298 63.1952 32.0198 62.1552C32.4598 60.9952 32.9297 59.6753 33.4397 58.1853C34.3997 55.3753 34.8796 51.9753 34.8796 47.9853C34.8796 47.0753 34.8498 46.1453 34.7798 45.2153C34.4198 39.9253 33.0296 34.3853 30.6096 28.5853C30.3696 28.0053 30.1196 27.4452 29.8596 26.8952C27.9196 22.7152 25.5096 19.3452 22.6296 16.7752C21.4096 15.6852 20.1097 14.7353 18.7197 13.9353C15.2797 11.9453 12.2797 11.4953 9.71973 12.5653L9.35962 12.7453C8.57962 13.1053 7.83965 13.6253 7.13965 14.3053C4.07965 17.2453 2.55957 22.2553 2.55957 29.3253C2.55957 35.5753 3.31961 41.2053 4.84961 46.2053C6.36961 51.2053 7.46963 54.4852 8.11963 56.0352L9.73975 59.7453C9.61975 64.5553 10.7597 69.6052 13.1497 74.9052C15.5497 80.1952 19.0497 84.1753 23.6597 86.8353C26.8897 88.7053 29.5697 88.9453 31.6897 87.5653C33.8197 86.1853 34.8796 83.5353 34.8796 79.6153C34.8796 77.3553 34.4596 74.9253 33.6196 72.3453C32.7796 69.7753 32.1297 67.8653 31.6497 66.6253ZM26.5298 78.8153C25.7498 79.3253 24.7897 79.2553 23.6597 78.5953C21.2597 77.2153 19.5397 75.1952 18.4897 72.5252C17.4497 69.8652 16.9197 67.1552 16.9197 64.4052L25.5398 67.3253C26.0198 68.5653 26.4997 69.9353 26.9797 71.4553C27.4597 72.9653 27.6997 74.3053 27.6997 75.4753C27.6997 77.1853 27.3098 78.3053 26.5298 78.8153ZM27.6797 44.9052C27.6497 46.1552 27.5496 47.3353 27.3896 48.4453C27.1896 49.8553 26.8797 51.1453 26.4797 52.3153C25.6797 54.6653 24.8796 56.7153 24.1096 58.4553L14.2297 55.0252C13.3297 52.8552 12.3596 49.8053 11.3096 45.8753C10.2596 41.9353 9.73975 37.8053 9.73975 33.4753C9.73975 29.1453 10.5597 26.0553 12.2097 23.5653C13.8597 21.0853 16.0197 20.6253 18.7197 22.1753C20.2897 23.0853 21.6897 24.4853 22.9097 26.3653C23.7697 27.6953 24.5497 29.2653 25.2297 31.0853C26.8697 35.4653 27.6997 39.7253 27.6997 43.8453C27.6997 44.2053 27.6997 44.5652 27.6797 44.9052Z" stroke="#229EFF" stroke-linejoin="round"/><path d="M27.7 75.4753C27.7 77.1853 27.31 78.3053 26.53 78.8153C25.75 79.3253 24.7899 79.2553 23.6599 78.5953C21.2599 77.2153 19.54 75.1953 18.49 72.5253C17.45 69.8653 16.9199 67.1553 16.9199 64.4053L25.54 67.3253C26.02 68.5653 26.5 69.9353 26.98 71.4553C27.46 72.9653 27.7 74.3053 27.7 75.4753Z" stroke="#229EFF" stroke-linejoin="round"/><path d="M27.3894 48.4453C27.1894 49.8553 26.8795 51.1453 26.4795 52.3153C25.6795 54.6653 24.8794 56.7153 24.1094 58.4553L14.2295 55.0253L27.3894 48.4453Z" stroke="#229EFF" stroke-linejoin="round"/><path d="M27.7002 43.8452C27.7002 44.2052 27.7002 44.5652 27.6802 44.9052C27.6502 46.1552 27.5501 47.3352 27.3901 48.4452L14.2302 55.0252C13.3302 52.8552 12.3601 49.8052 11.3101 45.8752C10.2601 41.9352 9.74023 37.8052 9.74023 33.4752C9.74023 29.1452 10.5602 26.0552 12.2102 23.5652C13.8602 21.0852 16.0202 20.6252 18.7202 22.1752C20.2902 23.0852 21.6902 24.4852 22.9102 26.3652C23.7702 27.6952 24.5502 29.2652 25.2302 31.0852C26.8702 35.4652 27.7002 39.7252 27.7002 43.8452Z" stroke="#229EFF" stroke-linejoin="round"/><path d="M87.1995 103.525C87.2595 108.435 86.1095 112.165 83.7395 114.715C83.1295 115.375 82.4394 115.865 81.6794 116.165L62.4395 125.795C62.9095 125.505 63.3395 125.155 63.7395 124.715C66.1095 122.165 67.2595 118.435 67.1995 113.525L69.9895 112.135L87.1995 103.525Z" stroke="#229EFF" stroke-linejoin="round"/><path d="M67.2002 87.2555C67.2002 87.6755 67.2002 88.0754 67.1802 88.4754L62.4702 90.8354L52.8301 95.6554C52.0601 92.9354 51.2602 89.9554 50.4602 86.7054C49.8002 84.0754 49.4103 81.4254 49.2903 78.7654C49.2803 78.6454 49.2703 78.5254 49.2703 78.4154C49.2503 77.9054 49.2402 77.3954 49.2402 76.8854C49.2402 72.7654 50.0702 69.4655 51.7102 66.9855C52.4702 65.8455 53.3301 65.1254 54.3101 64.8354C55.4601 64.4954 56.7602 64.7454 58.2202 65.5854C59.8802 66.5454 61.3401 68.0454 62.6101 70.0854C63.3901 71.3454 64.1002 72.8155 64.7302 74.4955C66.3802 78.8855 67.2002 83.1355 67.2002 87.2555Z" stroke="#229EFF" stroke-linejoin="round"/><path d="M67.1802 88.4854C67.1002 92.3154 66.5801 95.4453 65.6301 97.8853C64.9001 99.7453 64.2101 101.235 63.5601 102.355C63.2701 102.845 62.9902 103.265 62.7102 103.615L52.8301 95.6553L62.4702 90.8353L67.1802 88.4854Z" stroke="#229EFF" stroke-linejoin="round"/><path d="M51.0098 55.0554L49.6296 55.7555L49.5596 55.7854C48.3596 56.2454 47.2796 57.0655 46.3296 58.2555C46.2296 58.3855 46.1298 58.5154 46.0298 58.6454C44.1698 61.0954 42.9697 64.1354 42.4197 67.7654C42.1797 69.3154 42.0596 70.9755 42.0596 72.7455C42.0596 73.7955 42.0897 74.8454 42.1597 75.8954C42.2897 77.9254 42.5497 79.9354 42.9297 81.9454L31.6897 87.5654C33.8197 86.1854 34.8796 83.5355 34.8796 79.6155C34.8796 77.3555 34.4596 74.9255 33.6196 72.3455C32.7796 69.7755 32.1297 67.8655 31.6497 66.6255L30.9297 64.8755L32.7397 63.9655L38.0498 61.3154L45.6196 57.5354L50.9297 54.8755L51.0098 55.0554Z" stroke="#229EFF" stroke-linejoin="round"/><path d="M54.8796 37.9854C54.8796 41.9754 54.3997 45.3753 53.4397 48.1853C52.4797 50.9953 51.6497 53.2254 50.9297 54.8754L45.6196 57.5353L38.0498 61.3154L32.7397 63.9654L30.9297 64.8754C31.2697 64.0954 31.6298 63.1953 32.0198 62.1553C32.4598 60.9953 32.9297 59.6753 33.4397 58.1853C34.3997 55.3753 34.8796 51.9754 34.8796 47.9854C34.8796 47.0754 34.8498 46.1454 34.7798 45.2154C34.4198 39.9254 33.0296 34.3854 30.6096 28.5854C30.3696 28.0054 30.1196 27.4453 29.8596 26.8953C27.9196 22.7153 25.5096 19.3453 22.6296 16.7753C21.4096 15.6853 20.1097 14.7353 18.7197 13.9353C15.2797 11.9453 12.2797 11.4954 9.71973 12.5654L29.0198 2.90532L29.0796 2.87541C31.7796 1.42541 34.9897 1.77535 38.7197 3.93535C43.8097 6.87535 47.7696 11.7554 50.6096 18.5854C53.4596 25.4054 54.8796 31.8754 54.8796 37.9854Z" stroke="#229EFF" stroke-linejoin="round"/><path d="M94.3799 81.4053C94.3799 87.6553 93.6198 92.3753 92.0898 95.5853C90.5698 98.7853 89.4698 100.785 88.8198 101.575L87.2 103.525L69.99 112.135L67.2 113.525L68.8198 111.575C68.8998 111.485 68.9798 111.365 69.0798 111.245C69.7398 110.295 70.7498 108.405 72.0898 105.585C72.1098 105.545 72.1299 105.505 72.1499 105.455C73.3199 102.945 74.02 99.5353 74.27 95.2053C74.35 94.0153 74.3799 92.7453 74.3799 91.4053C74.3799 89.8253 74.2999 88.2653 74.1499 86.7153C73.6299 81.3153 72.18 76.1153 69.8 71.0853C69.66 70.7953 69.5299 70.5154 69.3799 70.2354C67.3299 66.0854 64.9199 62.7454 62.1499 60.2354C60.9099 59.1054 59.6 58.1453 58.22 57.3453C55.55 55.8053 53.1999 55.1553 51.1499 55.3953C50.6199 55.4553 50.1199 55.5754 49.6299 55.7554L51.01 55.0553L68.8699 46.0953C71.3899 44.7853 74.5 45.1953 78.22 47.3453C82.89 50.0453 86.75 54.6253 89.8 61.0853C92.86 67.5553 94.3799 74.3253 94.3799 81.4053Z" stroke="#229EFF" stroke-linejoin="round"/><path d="M81.9397 116.035L81.6797 116.165" stroke="#229EFF" stroke-linejoin="round"/></svg>