<svg width="48" height="48" viewBox="0 0 101 111" class="pr-icon-iso-duotone-secondary"
     xmlns="http://www.w3.org/2000/svg" stroke-width="1px" stroke-linecap="round" stroke-linejoin="round">
    <path d="M78.9906 105.72C78.9906 106.85 78.6606 107.61 77.9906 107.99C77.3206 108.37 76.4906 108.28 75.5006 107.71L65.0206 101.66C64.0306 101.09 63.2005 100.22 62.5305 99.0702C61.8605 97.9102 61.5305 96.7701 61.5305 95.6301V39.5101C61.5305 38.3801 61.8605 37.6201 62.5305 37.2401L62.7406 37.1401C63.3706 36.8801 64.1306 37.0101 65.0206 37.5201C66.0006 38.0801 66.8206 38.9302 67.4806 40.0602C67.4906 40.0802 67.5006 40.0901 67.5106 40.1101C68.1506 41.2301 68.4806 42.3202 68.5006 43.4202C68.5006 43.4602 68.5006 43.5102 68.5006 43.5502V95.6602L75.4906 99.6902C76.4806 100.26 77.3106 101.13 77.9806 102.28C78.6506 103.44 78.9806 104.58 78.9806 105.72H78.9906Z" class="pr-icon-iso-duotone-primary-stroke" stroke-linejoin="round"/>
    <path d="M57.7706 84.5503C57.6006 83.5103 57.3406 82.4203 56.9906 81.2903L53.3606 69.3602L47.0605 48.6803L42.9706 35.2602L42.4005 33.3802C41.8205 31.5102 40.9505 29.8002 39.7805 28.2602C39.7205 28.1802 39.6706 28.1103 39.6106 28.0403C38.4906 26.6103 37.2706 25.5102 35.9406 24.7402L32.6206 22.8203L16.1206 13.3003C15.2306 12.7803 14.4706 12.6503 13.8406 12.9103L13.6306 13.0102C12.9606 13.3902 12.6206 14.1503 12.6206 15.2903V35.3303L9.13062 33.3103C8.24062 32.8003 7.48059 32.6703 6.85059 32.9303L6.64062 33.0303C5.97062 33.4103 5.64062 34.1703 5.64062 35.3003V50.3403C4.47063 50.8003 3.60063 51.6502 3.02063 52.8802C2.43063 54.1202 2.14062 55.6003 2.14062 57.3403C2.14062 60.6803 3.16056 64.1102 5.20056 67.6202C7.24056 71.1402 9.71061 73.7303 12.6206 75.4103C14.8406 76.6903 16.8405 77.1203 18.6505 76.6903C19.0905 76.5803 19.5006 76.4303 19.8806 76.2303H19.9105C21.0605 75.6103 21.9206 74.5603 22.4906 73.0903L24.1906 74.0703L34.7206 80.1503C35.7106 83.2003 37.2106 86.0202 39.2206 88.6102C41.2206 91.2102 43.4205 93.2003 45.8105 94.5703C49.1905 96.5203 52.0706 96.8203 54.4506 95.4603C56.8406 94.1003 58.0305 91.4803 58.0305 87.6003C58.0305 86.6003 57.9506 85.5803 57.7706 84.5503ZM15.1106 67.6803C14.4406 68.0603 13.6106 67.9703 12.6206 67.4003C11.6306 66.8303 10.8006 65.9603 10.1306 64.8103C9.46062 63.6503 9.13062 62.5102 9.13062 61.3702C9.13062 60.2302 9.46062 59.4803 10.1306 59.1003C10.8006 58.7103 11.6306 58.8102 12.6206 59.3802C13.6106 59.9502 14.4406 60.8103 15.1106 61.9703C15.7806 63.1203 16.1206 64.2703 16.1206 65.4103C16.1206 66.5503 15.7806 67.3003 15.1106 67.6803ZM29.8306 57.2903L22.4806 44.3902L19.6106 39.3602V23.3303L22.5906 25.0503L25.6406 26.8103L34.4906 31.9203L35.9406 32.7602L41.6206 51.3903L45.7706 64.9803L46.3306 66.8203L41.9105 64.2703L29.8306 57.2903ZM49.5206 86.9503C48.5006 87.5303 47.2605 87.4003 45.8105 86.5603C44.3505 85.7203 43.1206 84.4203 42.1006 82.6603C41.0806 80.9003 40.5706 79.1903 40.5706 77.5203C40.5706 75.8503 41.0806 74.7203 42.1006 74.1403C43.1206 73.5603 44.3505 73.6903 45.8105 74.5303C47.2605 75.3703 48.5006 76.6703 49.5206 78.4303C50.5406 80.1903 51.0505 81.9003 51.0505 83.5703C51.0505 85.2403 50.5406 86.3703 49.5206 86.9503Z" class="pr-icon-iso-duotone-primary-stroke" stroke-linejoin="round"/>
    <path d="M16.1206 65.4103C16.1206 66.5403 15.7806 67.3003 15.1106 67.6803C14.4406 68.0603 13.6106 67.9703 12.6206 67.4003C11.6306 66.8303 10.8006 65.9603 10.1306 64.8103C9.46062 63.6503 9.13062 62.5102 9.13062 61.3702C9.13062 60.2302 9.46062 59.4803 10.1306 59.1003C10.8006 58.7103 11.6306 58.8102 12.6206 59.3802C13.6106 59.9502 14.4406 60.8103 15.1106 61.9703C15.7806 63.1203 16.1206 64.2703 16.1206 65.4103Z" class="pr-icon-iso-duotone-primary-stroke" stroke-linejoin="round"/>
    <path d="M51.0505 83.5706C51.0505 85.2406 50.5406 86.3706 49.5206 86.9506C48.5006 87.5306 47.2605 87.4005 45.8105 86.5605C44.3505 85.7205 43.1206 84.4205 42.1006 82.6605C41.0806 80.9005 40.5706 79.1905 40.5706 77.5205C40.5706 75.8505 41.0806 74.7205 42.1006 74.1405C43.1206 73.5605 44.3505 73.6905 45.8105 74.5305C47.2605 75.3705 48.5006 76.6705 49.5206 78.4305C50.5406 80.1905 51.0505 81.9006 51.0505 83.5706Z" class="pr-icon-iso-duotone-primary-stroke" stroke-linejoin="round"/>
    <path d="M41.6206 51.3904L36.0006 54.2104L31.4305 56.4904L29.8306 57.2904L22.4806 44.3904L19.6106 39.3604L25.6406 36.3505L34.4906 31.9204L35.9406 32.7604L41.6206 51.3904Z" class="pr-icon-iso-duotone-primary-stroke" stroke-linejoin="round"/>
    <path d="M46.3306 66.8207L41.9105 64.2706L29.8306 57.2906L31.4305 56.4906L36.0006 54.2107L41.6206 51.3906L45.7706 64.9807L46.3306 66.8207Z" class="pr-icon-iso-duotone-primary-stroke" stroke-linejoin="round"/>
    <path d="M34.4906 31.9205L25.6406 36.3506L19.6106 39.3605V23.3306L22.5906 25.0505L25.6406 26.8105L34.4906 31.9205Z" class="pr-icon-iso-duotone-primary-stroke" stroke-linejoin="round"/>
    <path d="M88.5105 33.5506V85.6605L82.3505 88.7405L68.5105 95.6605V43.5506C68.5105 43.5506 68.5105 43.4606 68.5105 43.4206C68.4905 42.3206 68.1605 41.2305 67.5205 40.1105C67.5205 40.0905 67.5005 40.0806 67.4905 40.0606C66.8305 38.9306 66.0104 38.0805 65.0304 37.5205C64.1404 37.0105 63.3805 36.8805 62.7505 37.1405L66.0905 35.4606L82.5404 27.2405C83.2104 26.8605 84.0404 26.9505 85.0304 27.5205C86.0204 28.0905 86.8505 28.9605 87.5205 30.1105C88.1905 31.2705 88.5205 32.4106 88.5205 33.5506H88.5105Z" class="pr-icon-iso-duotone-primary-stroke" stroke-linejoin="round"/>
    <path d="M98.9907 95.7207C98.9907 96.8507 98.6607 97.6106 97.9907 97.9906L97.7806 98.0907L77.9907 107.991C78.6607 107.611 78.9907 106.851 78.9907 105.721C78.9907 104.591 78.6607 103.441 77.9907 102.281C77.3207 101.131 76.4907 100.261 75.5007 99.6907L68.5107 95.6606L82.3507 88.7406L88.5107 85.6606L95.5007 89.6907C96.4907 90.2607 97.3207 91.1306 97.9907 92.2806C98.6607 93.4406 98.9907 94.5807 98.9907 95.7207Z" class="pr-icon-iso-duotone-primary-stroke" stroke-linejoin="round"/>
    <path d="M12.6206 30.0405V35.3306L9.13062 33.3105C8.24062 32.8005 7.48059 32.6705 6.85059 32.9305L12.6206 30.0405Z" class="pr-icon-iso-duotone-primary-stroke" stroke-linejoin="round"/>
    <path d="M66.0806 35.4604L62.7406 37.1404L62.5305 37.2403C61.8605 37.6203 61.5305 38.3804 61.5305 39.5104V91.9204L54.4506 95.4604C56.8406 94.1004 58.0305 91.4804 58.0305 87.6004C58.0305 86.6004 57.9506 85.5804 57.7706 84.5504C57.6006 83.5104 57.3406 82.4204 56.9906 81.2904L53.3606 69.3603L47.0605 48.6804L42.9706 35.2604L42.4005 33.3804C41.8205 31.5104 40.9505 29.8004 39.7805 28.2604C39.7205 28.1804 39.6706 28.1104 39.6106 28.0404C38.4906 26.6104 37.2706 25.5103 35.9406 24.7403L32.6206 22.8204L16.1206 13.3004C15.2306 12.7804 14.4706 12.6504 13.8406 12.9104L33.6306 3.01036C34.3006 2.63036 35.1306 2.7204 36.1206 3.3004L55.9406 14.7403C57.3406 15.5503 58.6205 16.7204 59.7805 18.2604C60.9505 19.8004 61.8205 21.5104 62.4005 23.3804L66.0806 35.4604Z" class="pr-icon-iso-duotone-primary-stroke" stroke-linejoin="round"/>
    <path d="M24.1907 74.0703L19.9106 76.2203C21.0606 75.6103 21.9207 74.5603 22.4907 73.0903L24.1907 74.0703Z" class="pr-icon-iso-duotone-primary-stroke" stroke-linejoin="round"/>
</svg>