<svg viewBox="0 0 83 106" class="pr-icon-iso-duotone-secondary" xmlns="http://www.w3.org/2000/svg" height="24" width="24" stroke-width="1px" stroke-linecap="round" stroke-linejoin="round">
    <path d="M60.7842 98.0459C60.7842 98.4959 60.7242 98.8759 60.6042 99.1959C60.4742 99.5259 60.2642 99.7659 59.9742 99.9359L53.7343 103.496C53.4343 103.666 53.1142 103.716 52.7742 103.666C52.4342 103.606 52.0642 103.466 51.6742 103.236C51.2842 103.006 50.9142 102.726 50.5742 102.386C50.2242 102.046 49.9143 101.626 49.6143 101.126L34.6342 75.2759C34.3342 74.7659 34.1242 74.2759 34.0042 73.8159C33.8842 73.3559 33.8242 72.8959 33.8242 72.4459C33.8242 71.9959 33.8842 71.6059 34.0042 71.2859C34.1242 70.9659 34.3342 70.7159 34.6342 70.5559L40.8741 66.9959L41.0442 66.9159C41.2842 66.8059 41.5542 66.7759 41.8342 66.8259C42.1742 66.8859 42.5442 67.0259 42.9342 67.2559C43.3242 67.4759 43.6942 67.7559 44.0342 68.0959C44.3742 68.4359 44.6943 68.8559 44.9843 69.3659L59.9742 95.2159C60.2642 95.7259 60.4742 96.2059 60.6042 96.6759C60.7242 97.1359 60.7842 97.5959 60.7842 98.0459Z" class="pr-icon-iso-duotone-primary-stroke" stroke-linejoin="round"/>
    <path d="M37.3844 28.4358L30.5945 32.3058L32.6444 35.8558L40.9445 40.6458L36.8345 42.9958L37.4445 44.0458L37.4845 44.1158L39.9945 48.4458L31.4745 53.3058L28.9645 48.9758L28.6544 48.4458L19.3545 32.3958L39.3545 22.3958L41.5144 26.1258L41.0244 26.3658L37.3844 28.4358Z" class="pr-icon-iso-duotone-primary-stroke" stroke-linejoin="round"/>
    <path d="M48.9746 59.9259V61.3359L28.9746 71.3359V64.2559L44.1846 55.5859L47.2645 60.9059L48.9746 59.9259Z" class="pr-icon-iso-duotone-primary-stroke" stroke-linejoin="round"/>
    <path d="M48.9744 61.3359L33.4043 70.2159L33.2144 70.3059L13.4043 80.2159L28.9744 71.3359L48.9744 61.3359Z" class="pr-icon-iso-duotone-primary-stroke" stroke-linejoin="round"/>
    <path d="M80.7839 88.0459C80.7839 88.4959 80.724 88.8759 80.604 89.1959C80.474 89.5259 80.264 89.7659 79.974 89.9359L73.734 93.4959L73.564 93.5759L53.734 103.496L59.974 99.9359C60.264 99.7659 60.474 99.5259 60.604 99.1959C60.724 98.8759 60.7839 98.4959 60.7839 98.0459C60.7839 97.5959 60.724 97.1359 60.604 96.6759C60.474 96.2059 60.264 95.7259 59.974 95.2159L44.984 69.3659C44.694 68.8559 44.3739 68.4359 44.0339 68.0959C43.6939 67.7559 43.324 67.4759 42.934 67.2559C42.544 67.0259 42.174 66.8859 41.834 66.8259C41.554 66.7759 41.2839 66.8059 41.0439 66.9159L52.814 61.0259L53.834 62.7859L57.6239 69.3259L67.804 64.2359L79.974 85.2159C80.264 85.7259 80.474 86.2059 80.604 86.6759C80.724 87.1359 80.7839 87.5959 80.7839 88.0459Z" class="pr-icon-iso-duotone-primary-stroke" stroke-linejoin="round"/>
    <path d="M60.1941 63.6459C60.1941 64.9959 59.9741 66.1659 59.5341 67.1459C59.0941 68.1259 58.454 68.8559 57.624 69.3259L53.8341 62.7859L52.8141 61.0259L51.384 58.5559L48.9741 59.9259L47.264 60.9059L44.1841 55.5859L28.9741 64.2559V71.3359L13.4041 80.2159C13.1041 80.3759 12.7841 80.4459 12.4441 80.4159C12.1041 80.3859 11.7341 80.2659 11.3441 80.0359C10.9541 79.8059 10.5741 79.5059 10.2041 79.1259C9.8341 78.7459 9.50411 78.2959 9.21411 77.7959L3.04407 67.1459C2.74407 66.6459 2.52403 66.1359 2.38403 65.6259C2.23403 65.1259 2.16406 64.6459 2.16406 64.1959C2.16406 63.7459 2.23403 63.3659 2.38403 63.0559C2.52403 62.7559 2.74407 62.5159 3.04407 62.3459L18.6141 53.4659L22.394 55.6459L24.8641 57.0759L27.3541 55.6459L24.8441 51.3159L24.4141 50.5659L15.2341 34.7359L11.0541 32.3259L2.16406 16.9859L10.4641 12.2559L19.3541 27.5859V32.3959L28.6541 48.4459L28.9641 48.9759L31.4741 53.3059L39.9941 48.4459L37.4841 44.1159L37.4441 44.0459L36.8341 42.9959L40.9441 40.6459L32.644 35.8559L30.5941 32.3059L37.384 28.4359L41.024 26.3659L43.0741 29.9059V39.4359L43.5841 39.1459L47.1941 37.0859L55.1141 50.7559L57.624 55.0859C58.174 56.0259 58.634 56.9759 59.004 57.9359C59.024 57.9659 59.0441 57.9959 59.0441 58.0359C59.2341 58.4959 59.3941 58.9559 59.5341 59.4259C59.9741 60.8959 60.1941 62.2959 60.1941 63.6459Z" class="pr-icon-iso-duotone-primary-stroke" stroke-linejoin="round"/>
    <path d="M63.0742 19.9058V29.1458L60.5442 30.4158L47.7142 36.8258L47.1942 37.0858L43.5842 39.1458L43.0742 39.4358V29.9058L43.5642 29.6558L52.3142 25.2858L63.0742 19.9058Z" class="pr-icon-iso-duotone-primary-stroke" stroke-linejoin="round"/>
    <path d="M63.0745 19.906L52.3145 25.286L43.5645 29.656L43.0745 29.906L41.0244 26.366L41.5144 26.126L61.0244 16.366L63.0745 19.906Z" class="pr-icon-iso-duotone-primary-stroke" stroke-linejoin="round"/>
    <path d="M39.3539 17.5859L30.7838 21.8659L19.3539 27.5859L10.4639 12.2559L30.4639 2.25586L39.3539 17.5859Z" class="pr-icon-iso-duotone-primary-stroke" stroke-linejoin="round"/>
    <path d="M39.3545 17.5859V22.3959L19.3545 32.3959V27.5859L30.7844 21.8659L39.3545 17.5859Z" class="pr-icon-iso-duotone-primary-stroke" stroke-linejoin="round"/>
    <path d="M80.1943 53.6459C80.1943 54.9959 79.9743 56.1659 79.5343 57.1459C79.0943 58.1259 78.4543 58.8559 77.6243 59.3259L67.8043 64.2359L57.6243 69.3259C58.4543 68.8559 59.0943 68.1259 59.5343 67.1459C59.9743 66.1659 60.1943 64.9959 60.1943 63.6459C60.1943 62.2959 59.9743 60.8959 59.5343 59.4259C59.3943 58.9559 59.2343 58.4959 59.0443 58.0359C59.0443 57.9959 59.0243 57.9659 59.0043 57.9359C58.6343 56.9759 58.1743 56.0259 57.6243 55.0859L55.1144 50.7559L47.1943 37.0859L47.7144 36.8259L60.5443 30.4159L63.0743 29.1459L67.1943 27.0859L77.6243 45.0859C78.4543 46.5159 79.0943 47.9659 79.5343 49.4259C79.9743 50.8959 80.1943 52.2959 80.1943 53.6459Z" class="pr-icon-iso-duotone-primary-stroke" stroke-linejoin="round"/>
    <path d="M27.3542 55.6459L24.8643 57.0759L22.3942 55.6459L18.6143 53.4659L24.4142 50.5659L24.8442 51.3159L27.3542 55.6459Z" class="pr-icon-iso-duotone-primary-stroke" stroke-linejoin="round"/>
</svg>