<svg width="24" height="24" viewBox="0 0 95 101" class="pr-icon-iso-duotone-secondary" xmlns="http://www.w3.org/2000/svg" stroke-width="1px" stroke-linecap="round" stroke-linejoin="round">
    <path d="M14.1936 13.9099L13.2036 14.3999C13.1436 14.4399 13.0737 14.4699 13.0137 14.5099L14.3538 13.8398C14.3038 13.8598 14.2436 13.8899 14.1936 13.9099Z" class="pr-icon-iso-duotone-primary-stroke" stroke-linejoin="round"/>
    <path d="M53.8636 70.5798C53.8636 71.7198 53.5436 72.4798 52.8936 72.8398C52.1936 73.2398 51.3636 73.1498 50.3936 72.5598C49.4336 71.9698 48.6334 71.1198 47.9834 70.0098L41.3235 58.6198V95.5298C41.3235 96.6698 40.9935 97.4398 40.3135 97.8198C39.6435 98.1998 38.8135 98.1098 37.8235 97.5298C36.8235 96.9598 35.9935 96.0897 35.3235 94.9297C34.6535 93.7797 34.3135 92.6298 34.3135 91.4898V54.5698L27.6536 58.2698C27.0036 58.6298 26.1934 58.5298 25.1934 57.9598C24.2034 57.3798 23.3834 56.5397 22.7434 55.4297C22.7134 55.3797 22.6936 55.3399 22.6636 55.2899C22.0136 54.1299 21.7034 53.0298 21.7334 51.9898C21.7634 50.8998 22.1034 50.1697 22.7434 49.7997L26.7034 47.5399L31.8736 44.5898L35.3636 42.5998L35.5935 42.4898C36.2435 42.2198 36.9835 42.3298 37.8235 42.8098C38.7535 43.3498 39.5735 44.2298 40.2735 45.4398L52.8936 67.2098C53.5436 68.3198 53.8636 69.4398 53.8636 70.5798Z" class="pr-icon-iso-duotone-primary-stroke" stroke-linejoin="round"/>
    <path d="M31.8738 44.5898L26.7036 47.5399L22.7437 49.7998C22.1037 50.1698 21.7636 50.8999 21.7336 51.9899C21.7036 53.0299 22.0138 54.1299 22.6638 55.2899L11.0837 61.0798C11.8437 60.6398 12.2936 59.8999 12.4436 58.8399C12.5836 57.7899 12.4537 56.5698 12.0437 55.1898C11.2837 52.7398 10.7137 50.3399 10.3337 47.9699C9.95374 45.6099 9.76367 43.3199 9.76367 41.0999C9.76367 32.1199 12.4838 26.0799 17.9238 22.9799C19.5538 22.0499 21.2938 21.4599 23.1338 21.2299C25.5638 20.8999 28.1736 21.1699 30.9736 22.0399C30.1636 24.6199 29.7637 27.6499 29.7637 31.0999C29.7637 33.3199 29.9537 35.6099 30.3337 37.9699C30.6837 40.1499 31.1938 42.3498 31.8738 44.5898Z" class="pr-icon-iso-duotone-primary-stroke" stroke-linejoin="round"/>
    <path d="M65.3438 66.61L61.3237 68.63L54.3137 72.13L52.8938 72.84C53.5438 72.48 53.8638 71.72 53.8638 70.58C53.8638 69.44 53.5438 68.32 52.8938 67.21L40.2737 45.4399C39.5737 44.2299 38.7537 43.3499 37.8237 42.8099C36.9837 42.3299 36.2437 42.22 35.5938 42.49L50.0737 35.24C50.1437 35.32 50.2237 35.4 50.2937 35.49C52.9737 38.56 55.4436 42.04 57.7136 45.95C59.0936 48.33 60.2937 50.6899 61.3237 53.0499C63.3237 57.6199 64.6637 62.14 65.3438 66.61Z" class="pr-icon-iso-duotone-primary-stroke" stroke-linejoin="round"/>
    <path d="M61.3245 68.6301V85.5302C61.3245 86.6702 60.9945 87.4401 60.3145 87.8201L60.1045 87.92L40.3145 97.8201C40.9945 97.4401 41.3245 96.6702 41.3245 95.5302V58.6201L47.9844 70.0101C48.6344 71.1201 49.4345 71.9701 50.3945 72.5601C51.3645 73.1501 52.1945 73.2401 52.8945 72.8401L54.3145 72.1301L61.3245 68.6301Z" class="pr-icon-iso-duotone-primary-stroke" stroke-linejoin="round"/>
    <path d="M72.884 77.5402C72.884 80.5602 72.604 83.3701 72.054 85.9601C71.494 88.5601 70.6339 90.9001 69.4639 92.9701C69.2639 93.3101 69.0239 93.5702 68.7539 93.7602C68.3139 94.0602 67.774 94.1602 67.144 94.0402C66.114 93.8602 65.254 93.1601 64.554 91.9501C63.854 90.7401 63.4038 89.5002 63.1938 88.2502C62.9938 86.9902 63.0939 85.9401 63.5039 85.1001C64.3239 83.5001 64.924 81.7102 65.304 79.7502C65.684 77.7902 65.874 75.7101 65.874 73.4901C65.874 71.2701 65.694 68.9101 65.344 66.6101C64.664 62.1401 63.324 57.6201 61.324 53.0501C60.294 50.6901 59.0939 48.3301 57.7139 45.9501C55.4439 42.0401 52.9739 38.5601 50.2939 35.4901C50.2239 35.4001 50.144 35.3201 50.074 35.2401C46.384 31.0701 42.294 27.6901 37.824 25.1101C35.434 23.7301 33.1439 22.7002 30.9739 22.0402C28.1739 21.1702 25.564 20.9001 23.134 21.2301C21.294 21.4601 19.5541 22.0501 17.9241 22.9801C12.4841 26.0801 9.76392 32.1201 9.76392 41.1001C9.76392 43.3201 9.95398 45.6101 10.334 47.9701C10.714 50.3401 11.2839 52.7401 12.0439 55.1901C12.4539 56.5701 12.5838 57.7901 12.4438 58.8401C12.2938 59.9001 11.844 60.6401 11.084 61.0801C10.384 61.4801 9.5239 61.1602 8.4939 60.1402C7.4739 59.1102 6.70407 57.8101 6.17407 56.2301C5.06407 52.8401 4.21403 49.5501 3.63403 46.3601C3.04403 43.1801 2.75391 40.0701 2.75391 37.0601C2.75391 31.4901 3.67392 26.7901 5.51392 22.9601C7.35392 19.1301 9.85392 16.3102 13.0139 14.5102L14.354 13.8401C17.194 12.5301 20.464 12.0401 24.144 12.3401C24.674 12.3801 25.2039 12.4402 25.7339 12.5302C28.6139 12.9602 31.6239 13.9301 34.7539 15.4401C35.7639 15.9201 36.784 16.4601 37.824 17.0601C42.674 19.8601 47.2239 23.5502 51.4939 28.1302C52.8439 29.5802 54.144 31.0701 55.364 32.6001C58.054 35.9101 60.474 39.4302 62.624 43.1602C65.784 48.6002 68.284 54.3002 70.124 60.2602C70.384 61.1102 70.634 61.9601 70.864 62.8101C70.944 63.1201 71.024 63.4301 71.104 63.7401C72.294 68.4601 72.884 73.0702 72.884 77.5402Z" class="pr-icon-iso-duotone-primary-stroke" stroke-linejoin="round"/>
    <path d="M92.8835 67.54C92.8835 70.56 92.6035 73.37 92.0535 75.96C91.4935 78.56 90.6334 80.9 89.4634 82.97C89.2134 83.4 88.9035 83.7 88.5435 83.89L88.4534 83.9299L68.7534 93.76C69.0234 93.57 69.2634 93.31 69.4634 92.97C70.6334 90.9 71.4935 88.56 72.0535 85.96C72.6035 83.37 72.8835 80.56 72.8835 77.54C72.8835 73.07 72.2935 68.46 71.1035 63.74C71.0235 63.43 70.9435 63.1199 70.8635 62.8099C70.6335 61.9599 70.3835 61.11 70.1235 60.26C68.2835 54.3 65.7835 48.6 62.6235 43.16C60.4735 39.43 58.0535 35.91 55.3635 32.6C54.1435 31.07 52.8434 29.58 51.4934 28.13C47.2234 23.55 42.6735 19.8599 37.8235 17.0599C36.7835 16.4599 35.7634 15.9199 34.7534 15.4399C31.6234 13.9299 28.6134 12.96 25.7334 12.53C25.2034 12.44 24.6736 12.38 24.1436 12.34C20.4636 12.04 17.1935 12.53 14.3535 13.84L33.0134 4.51001C36.1634 2.71001 39.8736 1.98997 44.1436 2.33997C48.4136 2.68997 52.9735 4.25994 57.8235 7.05994C62.6735 9.85994 67.2234 13.55 71.4934 18.13C75.7634 22.7 79.4735 27.71 82.6235 33.16C85.7835 38.6 88.2835 44.3 90.1235 50.26C91.9635 56.21 92.8835 61.98 92.8835 67.54Z" class="pr-icon-iso-duotone-primary-stroke" stroke-linejoin="round"/>
</svg>