<svg width="48" height="48" viewBox="0 0 92 109" fill="#c8e7ff" xmlns="http://www.w3.org/2000/svg" stroke-width="1px" stroke-linecap="round" stroke-linejoin="round"><path d="M67.8896 70.7201C67.8896 71.8101 67.5895 72.5201 66.9695 72.8701L61.3796 76.0601L54.9596 79.7201C54.2896 80.1001 53.5095 80.0401 52.6195 79.5201C51.7295 79.0101 50.9496 78.1801 50.2796 77.0301L43.8595 65.9401L38.2696 56.3001C37.6496 55.2401 37.3295 54.1801 37.3095 53.1101C37.2795 52.0401 37.5996 51.3101 38.2696 50.9301L38.4496 50.8401C39.0296 50.6001 39.7495 50.7301 40.5995 51.2301C41.5495 51.7701 42.3296 52.5801 42.9396 53.6301L49.2796 64.4801V40.8201C49.2796 39.7401 49.5995 39.0101 50.2395 38.6501L50.4396 38.5501C51.0396 38.3001 51.7695 38.4301 52.6195 38.9201C53.5695 39.4601 54.3595 40.2901 54.9995 41.3901C55.1795 41.7001 55.3396 42.0201 55.4596 42.3301C55.7996 43.1201 55.9596 43.9001 55.9596 44.6801V68.3301L62.2995 64.8101L62.4895 64.7201C63.0695 64.4801 63.7695 64.5901 64.5995 65.0301C65.5095 65.5301 66.3095 66.3601 66.9695 67.5101C67.5895 68.5601 67.8896 69.6301 67.8896 70.7201Z" stroke="#229EFF" stroke-linejoin="round"/><path d="M69.3098 94.52V102.18C69.3098 104.29 68.6598 105.72 67.3498 106.46C66.0398 107.21 64.4698 107.05 62.6298 105.99L54.4098 101.24L49.2798 98.28V102.11C49.2798 103.2 48.9598 103.92 48.3198 104.29C47.6798 104.65 46.8898 104.56 45.9398 104.02L25.9098 92.45C24.9698 91.91 24.1698 91.08 23.5298 89.98C22.8998 88.87 22.5798 87.78 22.5798 86.69V82.86L9.21982 75.15C7.38982 74.09 5.80983 72.44 4.50983 70.18C3.19983 67.93 2.5498 65.74 2.5498 63.64V17.67C2.5498 15.56 3.19983 14.14 4.50983 13.39L4.91983 13.19C6.13983 12.68 7.57982 12.91 9.21982 13.86L22.5498 21.55L29.2198 25.4L32.5898 27.35C33.5398 27.9 34.3298 28.72 34.9698 29.83C35.6098 30.93 35.9298 32.03 35.9298 33.11C35.9298 34.19 35.6098 34.92 34.9698 35.29C34.3298 35.65 33.5398 35.56 32.5898 35.02L29.2198 33.07L22.5498 29.22L9.21982 21.52V67.49L61.5198 97.69L62.6298 98.33V90.67C62.6298 89.58 62.9498 88.86 63.5898 88.49L63.7798 88.4C64.3898 88.15 65.1198 88.27 65.9698 88.77C66.9198 89.31 67.7098 90.14 68.3498 91.24C68.7198 91.88 68.9898 92.52 69.1398 93.16C69.2498 93.61 69.3098 94.07 69.3098 94.52Z" stroke="#229EFF" stroke-linejoin="round"/><path d="M89.3098 84.5198V92.1798C89.3098 94.2898 88.6597 95.7198 87.3497 96.4598L86.9398 96.6598L67.3497 106.46C68.6597 105.72 69.3098 104.29 69.3098 102.18V94.5198C69.3098 94.0698 69.2498 93.6098 69.1398 93.1598C68.9898 92.5198 68.7197 91.8798 68.3497 91.2398C67.7097 90.1398 66.9197 89.3098 65.9697 88.7698C65.1197 88.2698 64.3898 88.1498 63.7798 88.3998L73.9398 83.3098L83.5898 78.4898C84.2298 78.1298 85.0297 78.2198 85.9697 78.7698C86.9197 79.3098 87.7097 80.1398 88.3497 81.2398C88.9897 82.3398 89.3098 83.4398 89.3098 84.5198Z" stroke="#229EFF" stroke-linejoin="round"/><path d="M87.89 60.7198C87.89 61.8098 87.5899 62.5198 86.9699 62.8698L74.96 69.7198L74.7399 69.8298L61.7999 76.2998L54.96 79.7198L61.3799 76.0598L66.9699 72.8698C67.5899 72.5198 67.89 71.8098 67.89 70.7198C67.89 69.6298 67.5899 68.5598 66.9699 67.5098C66.3099 66.3598 65.5099 65.5298 64.5999 65.0298C63.7699 64.5898 63.0699 64.4798 62.4899 64.7198L67.4899 62.2098L75.96 57.9798L82.2999 54.8098C82.9099 54.4598 83.6799 54.5398 84.5999 55.0298C85.5099 55.5298 86.3099 56.3598 86.9699 57.5098C87.5899 58.5598 87.89 59.6298 87.89 60.7198Z" stroke="#229EFF" stroke-linejoin="round"/><path d="M55.9299 23.1101C55.9299 24.2001 55.6099 24.9201 54.9699 25.2901L34.9699 35.2901C35.6099 34.9201 35.9299 34.2001 35.9299 33.1101C35.9299 32.0201 35.6099 30.9301 34.9699 29.8301C34.3299 28.7201 33.5399 27.9001 32.5899 27.3501L29.2199 25.4001L22.5499 21.5501L9.21991 13.8601C7.57991 12.9101 6.13992 12.6801 4.91992 13.1901L24.5099 3.39008C25.8099 2.64008 27.3899 2.80008 29.2199 3.86008L52.5899 17.3501C53.5399 17.9001 54.3299 18.7201 54.9699 19.8301C55.6099 20.9301 55.9299 22.0301 55.9299 23.1101Z" stroke="#229EFF" stroke-linejoin="round"/><path d="M75.9497 34.68V57.98L67.4797 62.21L62.4797 64.72L62.2897 64.81L55.9497 68.33V44.68C55.9497 43.9 55.7897 43.12 55.4497 42.33C55.3297 42.02 55.1697 41.7 54.9897 41.39C54.3497 40.29 53.5597 39.46 52.6097 38.92C51.7597 38.43 51.0297 38.3 50.4297 38.55L70.2297 28.65C70.8697 28.28 71.6597 28.37 72.6097 28.92C73.5597 29.46 74.3497 30.29 74.9897 31.39C75.6297 32.5 75.9497 33.59 75.9497 34.68Z" stroke="#229EFF" stroke-linejoin="round"/><path d="M49.2797 45.4302V64.4802L42.9397 53.6302C42.3297 52.5802 41.5497 51.7702 40.5997 51.2302C39.7497 50.7302 39.0297 50.6002 38.4497 50.8402L49.2797 45.4302Z" stroke="#229EFF" stroke-linejoin="round"/><path d="M54.4098 101.24L48.3198 104.29C48.9598 103.92 49.2798 103.2 49.2798 102.11V98.2803L54.4098 101.24Z" stroke="#229EFF" stroke-linejoin="round"/><path d="M29.21 33.07V57.49L24.37 59.92L9.20996 67.49V21.52L22.55 29.22L29.21 33.07Z" stroke="#229EFF" stroke-linejoin="round"/><path d="M73.93 83.3102L63.77 88.4002L63.58 88.4902C62.94 88.8602 62.62 89.5802 62.62 90.6702V98.3302L61.51 97.6902L9.20996 67.4902L24.36 59.9202L29.21 57.4902L43.8499 65.9402L50.27 77.0302C50.94 78.1802 51.72 79.0102 52.61 79.5202C53.5 80.0402 54.28 80.1002 54.95 79.7202L61.7899 76.3002L73.93 83.3102Z" stroke="#229EFF" stroke-linejoin="round"/></svg>