<svg width="48" height="48" viewBox="0 0 87 117" fill="#c8e7ff" xmlns="http://www.w3.org/2000/svg" stroke-width="1px" stroke-linecap="round" stroke-linejoin="round"><path d="M64.0845 49.5901C64.0845 49.5901 64.0544 49.5101 64.0344 49.4701C63.7244 48.6301 63.3145 47.7701 62.8145 46.9101C61.4445 44.5501 59.8045 42.8201 57.8845 41.7101L46.4844 35.1301L22.0645 21.0301L9.03442 13.5101C7.31442 12.5201 5.81443 12.28 4.54443 12.81L4.1145 13.0201C2.7445 13.8001 2.06445 15.2901 2.06445 17.4901V73.5401C2.06445 75.7401 2.7445 78.0201 4.1145 80.3801C5.4745 82.7401 7.11442 84.4701 9.03442 85.5801L57.8845 113.78C59.8045 114.88 61.4445 115.05 62.8145 114.27C64.1745 113.49 64.8645 112 64.8645 109.8V53.7501C64.8645 52.3901 64.6045 51.0101 64.0845 49.5901ZM57.8845 105.77L26.4844 87.6401V31.5901L46.4844 43.1401L57.8845 49.7201V105.77Z" stroke="#229EFF" stroke-linejoin="round"/><path d="M57.8845 52.55V80.5201L54.4546 82.2401L48.7046 85.1101C49.0146 84.9401 49.1646 84.54 49.1646 83.92V61.5001C49.1646 60.5601 48.8145 59.7301 48.1145 58.9901C47.5245 58.3801 46.9844 58.1301 46.4844 58.2701V58.2501L57.8845 52.55Z" stroke="#229EFF" stroke-linejoin="round"/><path d="M46.334 58.3199C46.384 58.2999 46.4339 58.28 46.4839 58.27V58.25L46.334 58.3199Z" stroke="#229EFF" stroke-linejoin="round"/><path d="M49.1646 61.4998V83.9197C49.1646 84.5397 49.0146 84.9398 48.7046 85.1098L48.6746 85.1298C48.5246 85.2098 48.3345 85.2398 48.1145 85.2198C47.4145 85.1498 46.7746 84.6098 46.1946 83.6098L43.5745 79.0898L37.6445 68.8598C36.9445 67.6598 36.6045 66.5197 36.6045 65.4597C36.6045 64.3997 36.9445 63.6598 37.6445 63.2598L46.1946 58.3898L46.3345 58.3197C46.3845 58.2997 46.4344 58.2798 46.4844 58.2698C46.9844 58.1298 47.5245 58.3798 48.1145 58.9898C48.8145 59.7298 49.1646 60.5598 49.1646 61.4998Z" stroke="#229EFF" stroke-linejoin="round"/><path d="M57.8845 84.2198V105.77L26.4844 87.6399L39.0444 81.3599L43.5745 79.0898L46.1946 83.6099C46.7746 84.6099 47.4145 85.1498 48.1145 85.2198C48.3345 85.2398 48.5246 85.2099 48.6746 85.1299L48.7046 85.1099L54.4546 82.2399L57.8845 84.2198Z" stroke="#229EFF" stroke-linejoin="round"/><path d="M46.4844 43.1399V58.2499L46.3345 58.3198L46.1946 58.3899L37.6445 63.2599C36.9445 63.6599 36.6045 64.3898 36.6045 65.4598C36.6045 66.5298 36.9445 67.6599 37.6445 68.8599L43.5745 79.0898L39.0444 81.3599L26.4844 87.6399V31.5898L46.4844 43.1399Z" stroke="#229EFF" stroke-linejoin="round"/><path d="M84.865 43.75V99.7999C84.865 102 84.1749 103.49 82.8149 104.27L82.385 104.48L62.8149 114.27C64.1749 113.49 64.865 112 64.865 109.8V53.75C64.865 52.39 64.605 51.01 64.085 49.59C64.065 49.55 64.0549 49.51 64.0349 49.47C63.7249 48.63 63.3149 47.7701 62.8149 46.9101C61.4449 44.5501 59.805 42.82 57.885 41.71L46.4849 35.13L22.0649 21.0301L9.03491 13.51C7.31491 12.52 5.81492 12.28 4.54492 12.81L24.115 3.02004C25.475 2.24004 27.1149 2.41003 29.0349 3.51003L77.885 31.71C79.805 32.82 81.4449 34.5501 82.8149 36.9101C84.1749 39.2701 84.865 41.55 84.865 43.75Z" stroke="#229EFF" stroke-linejoin="round"/></svg>