<svg width="48" height="48" viewBox="0 0 80 122" fill="#c8e7ff" xmlns="http://www.w3.org/2000/svg" stroke-width="1px" stroke-linecap="round" stroke-linejoin="round"><path d="M53.72 42.88C53.72 44.17 53.3401 45.0299 52.5801 45.4699C52.3801 45.5799 52.1599 45.6599 51.9299 45.6899C51.2999 45.7999 50.58 45.62 49.76 45.14L46.71 43.38L22.2 29.2299L11.23 22.9L10.1199 22.26C8.99987 21.61 8.06005 20.6299 7.30005 19.3199C6.54005 18.0099 6.15991 16.7099 6.15991 15.4299C6.15991 14.1499 6.54005 13.2799 7.30005 12.8399L7.53003 12.7299C8.25003 12.4399 9.10987 12.5799 10.1199 13.1699L19.6699 18.6799L22.27 20.1799L49.76 36.0499C50.88 36.6999 51.8201 37.6799 52.5801 38.9899C53.3401 40.2999 53.72 41.6 53.72 42.88Z" stroke="#229EFF" stroke-linejoin="round"/><path d="M57.1399 59.6899C56.8499 58.6699 56.4299 57.6299 55.8899 56.5799C55.7299 56.2499 55.5499 55.93 55.3599 55.6C53.7999 52.92 51.94 50.9499 49.76 49.6899L44.0901 46.4199L22.2 33.78L10.1199 26.8099C8.15987 25.6799 6.47002 25.41 5.02002 26.01L4.53003 26.25C2.97003 27.13 2.19995 28.8299 2.19995 31.3299V81.36C2.19995 83.86 2.97003 86.45 4.53003 89.12C6.08003 91.8 7.93987 93.77 10.1199 95.03L49.76 117.91C51.94 119.17 53.7999 119.36 55.3599 118.47C56.9099 117.59 57.6799 115.89 57.6799 113.39V63.36C57.6799 62.16 57.4999 60.9399 57.1399 59.6899ZM44.0601 85.34C42.9001 86 41.5001 85.86 39.8501 84.9L35.8899 82.61V87.1599C35.8899 87.5699 35.86 87.9599 35.8 88.3099C35.61 89.5899 35.0599 90.47 34.1499 90.99C32.9999 91.65 31.5899 91.5099 29.9399 90.5499C28.2899 89.5999 26.89 88.12 25.73 86.13C24.57 84.14 24 82.1899 24 80.2999V75.75L22.74 75.02L20.03 73.4599C18.38 72.5099 16.9801 71.0299 15.8201 69.0399C14.6601 67.0499 14.0901 65.0999 14.0901 63.2099C14.0901 61.3199 14.6601 60.04 15.8201 59.38C16.9801 58.72 18.38 58.8599 20.03 59.8199L22.2 61.0699L24 62.11V57.5599C24 55.6599 24.57 54.39 25.73 53.73C26.89 53.07 28.2899 53.2199 29.9399 54.1699C31.2399 54.9199 32.3999 55.9999 33.3899 57.4099C33.6599 57.7799 33.9099 58.17 34.1499 58.59C35.3099 60.58 35.8899 62.5299 35.8899 64.4199V68.97L36.6599 69.4199L39.8501 71.26C41.5001 72.21 42.9001 73.6899 44.0601 75.6799C44.5101 76.4499 44.8699 77.22 45.1499 77.98C45.5799 79.18 45.79 80.35 45.79 81.51C45.79 83.41 45.2201 84.69 44.0601 85.34Z" stroke="#229EFF" stroke-linejoin="round"/><path d="M45.79 81.51C45.79 83.41 45.2201 84.69 44.0601 85.34C42.9001 86 41.5001 85.86 39.8501 84.9L35.8899 82.61L45.1499 77.98C45.5799 79.18 45.79 80.35 45.79 81.51Z" stroke="#229EFF" stroke-linejoin="round"/><path d="M45.1499 77.98L35.8899 82.61V87.1599C35.8899 87.5699 35.86 87.9599 35.8 88.3099C35.61 89.5899 35.0599 90.47 34.1499 90.99C32.9999 91.65 31.5899 91.5099 29.9399 90.5499C28.2899 89.5999 26.89 88.12 25.73 86.13C24.57 84.14 24 82.1899 24 80.2999V75.75L36.6599 69.4199L39.8501 71.26C41.5001 72.21 42.9001 73.6899 44.0601 75.6799C44.5101 76.4499 44.8699 77.22 45.1499 77.98Z" stroke="#229EFF" stroke-linejoin="round"/><path d="M36.6599 69.4199L24 75.75L22.74 75.02L20.03 73.46C18.38 72.51 16.9801 71.0299 15.8201 69.0399C14.6601 67.0499 14.0901 65.1 14.0901 63.21C14.0901 61.32 14.6601 60.04 15.8201 59.38C16.9801 58.72 18.38 58.8599 20.03 59.8199L22.2 61.0699L24 62.11L33.3899 57.4099C33.6599 57.7799 33.9099 58.17 34.1499 58.59C35.3099 60.58 35.8899 62.5299 35.8899 64.4199V68.97L36.6599 69.4199Z" stroke="#229EFF" stroke-linejoin="round"/><path d="M33.3899 57.4099L24 62.11V57.5599C24 55.6599 24.57 54.39 25.73 53.73C26.89 53.07 28.2899 53.2199 29.9399 54.1699C31.2399 54.9199 32.3999 55.9999 33.3899 57.4099Z" stroke="#229EFF" stroke-linejoin="round"/><path d="M73.72 32.8801C73.72 34.1701 73.3401 35.0301 72.5801 35.4701L72.3501 35.5801L67.1499 38.18L52.5801 45.4701C53.3401 45.0301 53.72 44.1701 53.72 42.8801C53.72 41.5901 53.3401 40.3001 52.5801 38.9901C51.8201 37.6801 50.88 36.7 49.76 36.05L22.27 20.18L19.6699 18.68L10.1199 13.17C9.10987 12.58 8.25003 12.4401 7.53003 12.7301L27.3 2.84007C28.06 2.41007 28.9999 2.52003 30.1199 3.17003L69.76 26.05C70.88 26.7 71.8201 27.6801 72.5801 28.9901C73.3401 30.3001 73.72 31.6001 73.72 32.8801Z" stroke="#229EFF" stroke-linejoin="round"/><path d="M77.6799 53.3601V103.39C77.6799 105.89 76.9099 107.59 75.3599 108.47L74.8699 108.71L55.3599 118.47C56.9099 117.59 57.6799 115.89 57.6799 113.39V63.3601C57.6799 62.1601 57.4999 60.9401 57.1399 59.6901C56.8499 58.6701 56.4299 57.6301 55.8899 56.5801C55.7299 56.2501 55.5499 55.9301 55.3599 55.6001C53.7999 52.9201 51.94 50.9501 49.76 49.6901L44.0901 46.42L22.2 33.7802L10.1199 26.8101C8.15987 25.6801 6.47002 25.4101 5.02002 26.0101L11.23 22.9001L22.2 29.2301L46.71 43.3801L49.76 45.1401C50.58 45.6201 51.2999 45.8001 51.9299 45.6901C52.1599 45.6601 52.3801 45.5801 52.5801 45.4701L67.1499 38.1801L69.76 39.6901C71.94 40.9501 73.7999 42.9201 75.3599 45.6001C76.9099 48.2701 77.6799 50.8601 77.6799 53.3601Z" stroke="#229EFF" stroke-linejoin="round"/></svg>