<svg width="48" height="48" viewBox="0 0 83 105" class="pr-icon-iso-duotone-secondary"
     xmlns="http://www.w3.org/2000/svg" stroke-width="1px" stroke-linecap="round" stroke-linejoin="round">
    <path d="M58.1299 60.2202L38.1299 70.2202L50.5399 67.9902L70.5399 57.9902L58.1299 60.2202Z" class="pr-icon-iso-duotone-primary-stroke" stroke-linejoin="round"/>
    <path d="M45.1504 35.7206L40.5404 38.0206L35.5903 40.5006L34.5703 41.0106V29.6206L35.0304 29.8906L45.1504 35.7206Z" class="pr-icon-iso-duotone-primary-stroke" stroke-linejoin="round"/>
    <path d="M69.9603 25.7504C70.2403 26.5404 70.2104 27.1404 69.8804 27.5504C69.7804 27.6804 69.6604 27.7704 69.5304 27.8204L58.5504 33.3104L49.5803 37.8004C49.6903 37.7404 49.7904 37.6604 49.8804 37.5504C50.2104 37.1404 50.2403 36.5404 49.9603 35.7504L49.2203 33.6904L48.1404 30.7104C48.0304 30.3304 47.9703 30.0104 47.9703 29.7604C47.9703 29.5104 48.0304 29.2504 48.1404 29.0004L49.9603 26.0604C50.2403 25.5904 50.2104 24.9604 49.8804 24.1604C49.5504 23.3704 49.0803 22.8004 48.4703 22.4504L47.9503 22.1504L31.2604 12.5104C30.3204 11.9704 29.5404 11.8804 28.9004 12.2404L48.9004 2.24043C49.5404 1.88043 50.3204 1.97039 51.2604 2.51039L68.4703 12.4504C69.0803 12.8004 69.5504 13.3704 69.8804 14.1604C70.2104 14.9604 70.2403 15.5904 69.9603 16.0604L68.1404 19.0004C68.0304 19.2504 67.9703 19.5104 67.9703 19.7604C67.9703 20.0104 68.0304 20.3304 68.1404 20.7104L69.9603 25.7504Z" class="pr-icon-iso-duotone-primary-stroke" stroke-linejoin="round"/>
    <path d="M49.96 35.7504C50.24 36.5404 50.21 37.1404 49.88 37.5504C49.79 37.6604 49.69 37.7404 49.58 37.8004C49.29 37.9504 48.92 37.9004 48.47 37.6404L45.15 35.7204L35.03 29.8904L34.5699 29.6204V41.0104L37.03 42.4304L38.79 43.4504C40.06 44.1804 41.2 45.2204 42.22 46.5704C43.24 47.9204 44.06 49.4004 44.66 51.0204L45.11 52.3004L46.04 54.9704L47.5599 59.3404L37.63 61.2004L36.41 59.7904L34.3 57.3404L31.26 53.8204L24.89 53.8404L22.89 51.1604L16.76 42.9604L14.79 40.3204L17.52 35.4404C17.9 34.7304 18.4199 34.2404 19.0599 33.9704C19.3399 33.8404 19.64 33.7604 19.96 33.7204C21.04 33.5804 22.21 33.8804 23.48 34.6104L27.95 37.1904V14.4004C27.95 13.3204 28.27 12.6104 28.9 12.2404C29.54 11.8804 30.32 11.9704 31.26 12.5104L47.95 22.1504L48.47 22.4504C49.08 22.8004 49.55 23.3704 49.88 24.1604C50.21 24.9604 50.24 25.5904 49.96 26.0604L48.14 29.0004C48.03 29.2504 47.97 29.5104 47.97 29.7604C47.97 30.0104 48.03 30.3304 48.14 30.7104L49.22 33.6904L49.96 35.7504Z" class="pr-icon-iso-duotone-primary-stroke" stroke-linejoin="round"/>
    <path d="M58.1298 60.2206L38.1298 70.2206L31.2598 62.3607L36.4098 59.7906L37.6298 61.2006L47.5597 59.3406L54.3798 55.9307L58.1298 60.2206Z" class="pr-icon-iso-duotone-primary-stroke" stroke-linejoin="round"/>
    <path d="M59.2699 101.04C58.9599 101.44 58.6098 101.75 58.2198 101.97L58.0598 102.05C56.8798 102.64 55.3899 102.41 53.5999 101.38L8.82983 75.5304C6.34983 74.1004 4.45992 71.8204 3.16992 68.7004C1.86992 65.5704 1.76988 63.0704 2.87988 61.1704L11.8098 45.4404L24.3899 62.2904H25.1998L31.2599 62.3604L38.1299 70.2204L50.5399 67.9904L54.9498 80.6104L59.5598 93.8004C60.6598 96.9704 60.5699 99.3804 59.2699 101.04Z" class="pr-icon-iso-duotone-primary-stroke" stroke-linejoin="round"/>
    <path d="M36.4097 59.7903L31.2596 62.3604L25.1996 62.3004L24.3896 62.2903L24.9796 62.0004L34.2997 57.3403L36.4097 59.7903Z" class="pr-icon-iso-duotone-primary-stroke" stroke-linejoin="round"/>
    <path d="M34.2997 57.3405L24.9796 62.0005L24.3896 62.2905L11.8096 45.4405L16.7596 42.9604L22.8896 51.1605L24.8896 53.8405L31.2596 53.8204L34.2997 57.3405Z" class="pr-icon-iso-duotone-primary-stroke" stroke-linejoin="round"/>
    <path d="M67.5603 49.3405L54.3804 55.9305L47.5603 59.3405L46.0404 54.9705L45.1104 52.3005L44.6604 51.0205C44.0604 49.4005 43.2403 47.9205 42.2203 46.5705C41.2003 45.2205 40.0604 44.1805 38.7904 43.4505L37.0304 42.4305L34.5703 41.0105L35.5903 40.5005L40.5404 38.0205L45.1504 35.7205L48.4703 37.6405C48.9203 37.9005 49.2903 37.9505 49.5803 37.8005L58.5504 33.3105L58.7904 33.4505C60.0604 34.1805 61.2003 35.2205 62.2203 36.5705C63.2403 37.9205 64.0604 39.4005 64.6604 41.0205L67.5603 49.3405Z" class="pr-icon-iso-duotone-primary-stroke" stroke-linejoin="round"/>
    <path d="M49.5795 37.8003L49.5195 37.8303" class="pr-icon-iso-duotone-primary-stroke" stroke-linejoin="round"/>
    <path d="M27.9496 29.5205V37.1906L23.4796 34.6105C22.2096 33.8805 21.0396 33.5805 19.9596 33.7205C19.6396 33.7605 19.3396 33.8405 19.0596 33.9705L27.9496 29.5205Z" class="pr-icon-iso-duotone-primary-stroke" stroke-linejoin="round"/>
    <path d="M79.27 91.0402C78.93 91.4702 78.55 91.8002 78.13 92.0202L78.03 92.0702L58.22 101.97C58.61 101.75 58.96 101.44 59.27 101.04C60.57 99.3802 60.6599 96.9702 59.5599 93.8002L54.95 80.6102L50.54 67.9902L70.54 57.9902L79.5599 83.8002C80.6599 86.9702 80.57 89.3802 79.27 91.0402Z" class="pr-icon-iso-duotone-primary-stroke" stroke-linejoin="round"/>
</svg>