<svg width="48" height="48" viewBox="0 0 112 115" fill="#c8e7ff" xmlns="http://www.w3.org/2000/svg" stroke-width="1px" stroke-linecap="round" stroke-linejoin="round"><path d="M60.1408 104.32C60.1408 105.74 59.6908 106.71 58.7808 107.23L49.1708 112.71C48.7208 112.97 48.2308 113.05 47.7008 112.96C47.1808 112.88 46.6109 112.66 46.0109 112.31C45.4109 111.96 44.8409 111.53 44.3109 111.01C43.7809 110.48 43.2908 109.83 42.8408 109.05L33.2308 92.4799C32.3308 90.9199 31.8809 89.4199 31.8809 87.9999C31.8809 86.5799 32.3308 85.5999 33.2308 85.0799C34.1408 84.5699 35.1908 84.6599 36.4008 85.3499C37.6008 86.0499 38.6609 87.1799 39.5609 88.7399L46.0109 99.8499L52.4508 96.18C53.3608 95.66 54.4108 95.7499 55.6208 96.4499C56.8208 97.1499 57.8808 98.2799 58.7808 99.8399C59.6908 101.4 60.1408 102.89 60.1408 104.32Z" stroke="#229EFF" stroke-linejoin="round"/><path d="M89.3104 87.6198C89.3104 88.3098 89.2204 88.9099 89.0304 89.3999C88.8404 89.8999 88.5204 90.2799 88.0704 90.5399L80.0904 95.0798L78.4604 96.0099C77.5504 96.5299 76.4804 96.4298 75.2304 95.7098C73.9904 94.9898 72.9204 93.8499 72.0104 92.2899C71.1104 90.7299 70.6504 89.2599 70.6504 87.8799C70.6504 87.6299 70.6604 87.3999 70.7004 87.1799C70.7004 87.1299 70.7004 87.0899 70.7204 87.0499C70.8704 86.0999 71.3104 85.4299 72.0104 85.0299L78.4604 81.3498L72.0104 70.2398C71.1104 68.6798 70.6504 67.2098 70.6504 65.8198C70.6504 64.4298 71.1104 63.4898 72.0104 62.9698L72.3004 62.8298C73.1404 62.4898 74.1204 62.6299 75.2304 63.2799C76.4804 63.9999 77.5504 65.1298 78.4604 66.6898L88.0704 83.2699C88.5204 84.0499 88.8404 84.7999 89.0304 85.5099C89.2204 86.2299 89.3104 86.9298 89.3104 87.6198Z" stroke="#229EFF" stroke-linejoin="round"/><path d="M20.001 54.9998C20.911 56.5598 21.361 58.0299 21.361 59.4199C21.361 60.8099 20.911 61.7499 20.001 62.2699C19.101 62.7799 18.0309 62.6798 16.7809 61.9598C15.5409 61.2498 14.471 60.1099 13.561 58.5499L3.95093 41.9698C3.50093 41.1898 3.18097 40.4398 2.99097 39.7298C2.80097 39.0198 2.71094 38.3098 2.71094 37.6198C2.71094 36.9298 2.80097 36.3298 2.99097 35.8398C3.18097 35.3398 3.50093 34.9598 3.95093 34.7098L13.561 29.2298L13.851 29.0898C14.701 28.7398 15.6709 28.8899 16.7809 29.5299C18.0309 30.2499 19.101 31.3898 20.001 32.9498C20.911 34.5098 21.361 35.9798 21.361 37.3598C21.361 38.7398 20.911 39.6998 20.001 40.2098L13.561 43.8899L20.001 54.9998Z" stroke="#229EFF" stroke-linejoin="round"/><path d="M60.1408 37.2399C60.1408 38.6699 59.6908 39.64 58.7808 40.16C57.8808 40.67 56.8208 40.5799 55.6208 39.8899C54.4108 39.1899 53.3608 38.0599 52.4508 36.4999L46.0109 25.3899L41.3109 28.06L39.5609 29.06C38.6609 29.58 37.6008 29.49 36.4008 28.79C35.1908 28.09 34.1408 26.97 33.2308 25.41C32.3308 23.85 31.8809 22.35 31.8809 20.93C31.8809 20.66 31.9008 20.4 31.9308 20.16C31.9308 20.12 31.9308 20.08 31.9508 20.04C32.1008 19.09 32.5308 18.4099 33.2308 18.0099L42.8408 12.53L43.1208 12.3899C43.4908 12.2399 43.8909 12.21 44.3109 12.28C44.8409 12.37 45.4109 12.59 46.0109 12.93C46.6109 13.28 47.1808 13.7199 47.7008 14.2399C48.2308 14.7599 48.7208 15.4099 49.1708 16.1899L58.7808 32.7599C59.6908 34.3199 60.1408 35.8199 60.1408 37.2399Z" stroke="#229EFF" stroke-linejoin="round"/><path d="M78.4609 96.0099L80.071 95.2098C80.071 95.2098 80.0909 95.1198 80.0909 95.0798L78.4609 96.0099Z" stroke="#229EFF" stroke-linejoin="round"/><path d="M65.8105 89.4999L59.2104 92.8L52.4504 96.18L46.0105 99.8499L39.5605 88.7399C38.6605 87.1799 37.6005 86.0499 36.4005 85.3499C35.1905 84.6599 34.1405 84.5699 33.2305 85.0799L53.2305 75.0799C54.1405 74.5699 55.1905 74.6599 56.4005 75.3499C57.6005 76.0499 58.6605 77.1799 59.5605 78.7399L65.8105 89.4999Z" stroke="#229EFF" stroke-linejoin="round"/><path d="M80.0699 95.2098C79.9199 96.1498 79.4899 96.8299 78.7799 97.2299L69.1699 102.71L68.8899 102.85L49.1699 112.71L58.7799 107.23C59.6899 106.71 60.1399 105.74 60.1399 104.32C60.1399 102.9 59.6899 101.4 58.7799 99.8398C57.8799 98.2798 56.8199 97.1498 55.6199 96.4498C54.4099 95.7498 53.3599 95.6599 52.4499 96.1799L59.2099 92.7999L65.8099 89.4999L70.7199 87.0499C70.7199 87.0499 70.6999 87.1299 70.6999 87.1799C70.6599 87.3999 70.6499 87.6299 70.6499 87.8799C70.6499 89.2599 71.1099 90.7299 72.0099 92.2899C72.9199 93.8499 73.9899 94.9898 75.2299 95.7098C76.4799 96.4298 77.5499 96.5299 78.4599 96.0099L80.0699 95.2098Z" stroke="#229EFF" stroke-linejoin="round"/><path d="M41.3605 49.4199C41.3605 50.7999 40.9105 51.7499 40.0005 52.2699L20.0005 62.2699C20.9105 61.7499 21.3605 60.7999 21.3605 59.4199C21.3605 58.0399 20.9105 56.5599 20.0005 54.9999L13.5605 43.8899L26.9705 37.1799L33.5605 33.8899L40.0005 44.9999C40.9105 46.5599 41.3605 48.0299 41.3605 49.4199Z" stroke="#229EFF" stroke-linejoin="round"/><path d="M41.3105 28.0599C41.1905 29.0699 40.7505 29.7898 40.0005 30.2098L33.5605 33.8899L26.9705 37.1799L13.5605 43.8899L20.0005 40.2098C20.9105 39.6998 21.3605 38.7499 21.3605 37.3599C21.3605 35.9699 20.9105 34.5098 20.0005 32.9498C19.1005 31.3898 18.0305 30.2499 16.7805 29.5299C15.6705 28.8899 14.7005 28.7398 13.8505 29.0898L31.9505 20.0399C31.9505 20.0399 31.9405 20.1199 31.9305 20.1599C31.9005 20.3999 31.8806 20.6599 31.8806 20.9299C31.8806 22.3499 32.3305 23.8499 33.2305 25.4099C34.1405 26.9699 35.1905 28.0899 36.4005 28.7899C37.6005 29.4899 38.6605 29.5799 39.5605 29.0599L41.3105 28.0599Z" stroke="#229EFF" stroke-linejoin="round"/><path d="M80.1411 27.2399C80.1411 28.6699 79.6911 29.6399 78.7811 30.1599L78.4911 30.3L58.7811 40.1599C59.6911 39.6399 60.1411 38.6699 60.1411 37.2399C60.1411 35.8099 59.6911 34.3199 58.7811 32.7599L49.1711 16.1898C48.7211 15.4098 48.231 14.7599 47.701 14.2399C47.181 13.7199 46.6111 13.28 46.0111 12.93C45.4111 12.59 44.8411 12.3699 44.3111 12.2799C43.8911 12.2099 43.4911 12.2399 43.1211 12.3899L62.8411 2.52994C63.2911 2.26994 63.7811 2.18994 64.3111 2.27994C64.8411 2.36994 65.4111 2.58996 66.0111 2.92996C66.6111 3.27996 67.181 3.7199 67.701 4.2399C68.231 4.7599 68.7211 5.40985 69.1711 6.18985L78.7811 22.7599C79.6911 24.3199 80.1411 25.8199 80.1411 27.2399Z" stroke="#229EFF" stroke-linejoin="round"/><path d="M109.311 77.6198C109.311 78.3098 109.221 78.9099 109.031 79.3999C108.841 79.8999 108.521 80.2799 108.071 80.5399L98.4608 86.0098L98.1708 86.1499L80.0708 95.1998C80.0708 95.1998 80.0908 95.1198 80.0908 95.0798L88.0708 90.5399C88.5208 90.2799 88.8408 89.8999 89.0308 89.3999C89.2208 88.9099 89.3108 88.3098 89.3108 87.6198C89.3108 86.9298 89.2208 86.2298 89.0308 85.5098C88.8408 84.7998 88.5208 84.0499 88.0708 83.2699L78.4608 66.6898C77.5508 65.1298 76.4808 63.9999 75.2308 63.2799C74.1208 62.6299 73.1408 62.4898 72.3008 62.8298L92.0108 52.9698C92.9208 52.4598 93.9908 52.5599 95.2308 53.2799C96.4808 53.9999 97.5508 55.1298 98.4608 56.6898L108.071 73.2699C108.521 74.0499 108.841 74.7998 109.031 75.5098C109.221 76.2298 109.311 76.9298 109.311 77.6198Z" stroke="#229EFF" stroke-linejoin="round"/><path d="M80.0703 95.2098V95.1998" stroke="#229EFF" stroke-linejoin="round"/></svg>