<svg width="48" height="48" viewBox="0 0 103 114" fill="#c8e7ff" xmlns="http://www.w3.org/2000/svg" stroke-width="1px" stroke-linecap="round" stroke-linejoin="round"><path d="M69.2302 109.18C69.2302 110.35 68.8601 111.14 68.1301 111.56C67.3901 111.98 66.5101 111.9 65.5001 111.31C64.4801 110.73 63.6101 109.8 62.8701 108.53L57.7002 99.5105C57.0302 98.2705 56.6902 97.0705 56.6902 95.9105C56.6902 94.7505 57.0302 93.9705 57.7002 93.5805L57.9102 93.4805C58.5502 93.2205 59.3202 93.3605 60.2402 93.8805C61.2502 94.4705 62.1301 95.3605 62.8701 96.5705L68.1301 105.53C68.8601 106.8 69.2302 108.02 69.2302 109.18Z" stroke="#229EFF" stroke-linejoin="round"/><path d="M22.1902 28.2506C22.1902 29.4206 21.8502 30.1906 21.1702 30.5806C20.5002 30.9706 19.6402 30.8606 18.5902 30.2506C17.5502 29.6506 16.6901 28.7606 16.0101 27.6006L10.7501 18.5306C10.0801 17.3606 9.74023 16.1806 9.74023 14.9806C9.74023 13.7806 10.0801 12.9906 10.7501 12.6006L10.9902 12.4806C11.6802 12.2006 12.4801 12.3206 13.3801 12.8506C14.3901 13.4306 15.2701 14.3606 16.0101 15.6406L21.1702 24.6506C21.8502 25.8906 22.1902 27.0906 22.1902 28.2506Z" stroke="#229EFF" stroke-linejoin="round"/><path d="M69.1399 49.2809C69.1399 50.4809 68.7999 51.2709 68.1299 51.6509L62.8699 54.6509C62.1899 55.0409 61.3299 54.9309 60.2799 54.3209C59.2399 53.7209 58.38 52.8409 57.7 51.6709C57.03 50.5009 56.6899 49.3409 56.6899 48.1709C56.6899 47.0009 57.03 46.2009 57.7 45.7409L62.8699 42.6909L63.11 42.5709C63.79 42.2909 64.5899 42.4109 65.4999 42.9409C66.5099 43.5209 67.3899 44.4509 68.1299 45.7309C68.7999 46.8909 69.1399 48.0809 69.1399 49.2809Z" stroke="#229EFF" stroke-linejoin="round"/><path d="M43.13 87.5007C43.13 90.4607 42.2401 92.4507 40.4501 93.4707C38.6701 94.4907 36.49 94.2507 33.9 92.7607L17.3 83.1707C13.24 80.8307 9.77 77.1607 6.88 72.1807C3.99 67.1907 2.54004 62.3707 2.54004 57.7107C2.54004 53.0507 3.99 49.9107 6.88 48.2607L7.79004 47.8107C10.49 46.7007 13.66 47.2007 17.3 49.3007C19.5 50.5707 21.57 52.2707 23.52 54.4207C24.18 55.1507 24.8301 55.9307 25.4601 56.7707C27.9501 60.0407 29.7501 63.5807 30.8601 67.4007L31.05 68.0207L31.78 70.3607L34 71.6407C36.58 73.1307 38.75 75.4107 40.5 78.4707C42.25 81.5207 43.13 84.5307 43.13 87.5007Z" stroke="#229EFF" stroke-linejoin="round"/><path d="M43.13 87.5008C43.13 84.5308 42.25 81.5208 40.5 78.4708C38.75 75.4108 36.58 73.1308 34 71.6408L31.78 70.3608L32.8301 69.8308L38.8601 66.8208C41.7301 69.5008 44.1901 72.7208 46.2201 76.4708C46.6901 77.3408 47.12 78.2108 47.5 79.0708C48.96 82.2708 49.87 85.4408 50.25 88.5708L40.4501 93.4708C42.2401 92.4508 43.13 90.4608 43.13 87.5008Z" stroke="#229EFF" stroke-linejoin="round"/><path d="M89.2302 99.1808C89.2302 100.351 88.8601 101.141 88.1301 101.561L87.8901 101.681L68.1301 111.561C68.8601 111.141 69.2302 110.351 69.2302 109.181C69.2302 108.011 68.8601 106.801 68.1301 105.531L62.8701 96.5708C62.1301 95.3608 61.2502 94.4708 60.2402 93.8808C59.3202 93.3608 58.5502 93.2208 57.9102 93.4808L73.2202 85.8208L76.3302 87.6208C76.5702 87.7608 76.8102 87.8708 77.0302 87.9508C77.7802 88.2408 78.4202 88.2308 78.9602 87.9208L82.5802 86.1108C82.6702 86.2608 82.7701 86.4108 82.8701 86.5708L88.1301 95.5308C88.8601 96.8008 89.2302 98.0208 89.2302 99.1808Z" stroke="#229EFF" stroke-linejoin="round"/><path d="M100.02 75.5106C100.02 76.7106 99.6701 77.5106 98.9601 77.9206L82.5801 86.1106L78.9601 87.9206C79.6701 87.5106 80.02 86.7106 80.02 85.5106C80.02 84.8906 79.9301 84.2606 79.7401 83.6306C79.5601 83.0506 79.3001 82.4706 78.9601 81.8806C78.2601 80.6706 77.3801 79.7506 76.3301 79.1506L75.6801 78.7806L69.66 75.3006L68.9601 74.8906C68.0101 74.3506 67.21 74.2206 66.55 74.4806L69.0901 73.2106L81.5 67.0106L86.3301 64.5906C87.0301 64.1906 87.9101 64.2906 88.9601 64.8906L96.3301 69.1506C97.3801 69.7506 98.2601 70.6706 98.9601 71.8806C99.6701 73.1006 100.02 74.3106 100.02 75.5106Z" stroke="#229EFF" stroke-linejoin="round"/><path d="M89.1401 39.2806C89.1401 40.4806 88.8001 41.2706 88.1301 41.6506L82.8701 44.6506L82.6602 44.7506L77.3602 47.4106L62.8701 54.6506L68.1301 51.6506C68.8001 51.2706 69.1401 50.4806 69.1401 49.2806C69.1401 48.0806 68.8001 46.8906 68.1301 45.7306C67.3901 44.4506 66.5101 43.5206 65.5001 42.9406C64.5901 42.4106 63.7902 42.2906 63.1102 42.5706L71.8901 38.1806L82.8701 32.6906C83.6101 32.2706 84.4801 32.3506 85.5001 32.9406C86.5101 33.5206 87.3901 34.4506 88.1301 35.7306C88.8001 36.8906 89.1401 38.0806 89.1401 39.2806Z" stroke="#229EFF" stroke-linejoin="round"/><path d="M81.5802 64.8606C81.5802 65.6006 81.5501 66.3106 81.5001 67.0006L69.0902 73.2106L66.5502 74.4806L66.3302 74.5906C65.6202 74.9906 65.2701 75.7906 65.2701 76.9906C65.2701 78.1906 65.6202 79.4006 66.3302 80.6206C66.8102 81.4506 67.3601 82.1306 68.0001 82.6806L55.3602 88.9806C56.6202 88.2306 57.7101 87.2106 58.6201 85.9106C59.0901 85.2506 59.5101 84.5306 59.8701 83.7606L59.9001 83.7406C59.9001 83.7406 59.8801 83.7506 59.8701 83.7506C61.0101 81.3106 61.5802 78.3506 61.5802 74.8606C61.5802 73.1906 61.4602 71.5006 61.2102 69.8006C60.4302 64.3506 58.4001 58.8006 55.1201 53.1406C50.8101 45.7206 45.5902 40.2306 39.4402 36.6806C34.6402 33.9106 30.3102 32.9406 26.4302 33.7706C25.7202 33.9206 25.0402 34.1406 24.4102 34.4006L36.2202 28.4906C36.3802 28.9006 36.5702 29.3006 36.8102 29.7106C37.5202 30.9306 38.3902 31.8406 39.4402 32.4406C39.7202 32.6006 39.9902 32.7306 40.2402 32.8106C40.9102 33.0606 41.5001 33.0406 42.0001 32.7806L42.1002 32.7306L56.8701 25.3506C57.7101 25.7306 58.5702 26.1806 59.4402 26.6806C64.1302 29.3906 68.2801 33.2206 71.8901 38.1806L63.1102 42.5706L62.8701 42.6906L57.7002 45.7406C57.0302 46.2006 56.6902 47.0106 56.6902 48.1706C56.6902 49.3306 57.0302 50.5006 57.7002 51.6706C58.3802 52.8406 59.2402 53.7206 60.2802 54.3206C61.3302 54.9306 62.1901 55.0406 62.8701 54.6506L77.3602 47.4106C80.1702 53.3506 81.5802 59.1706 81.5802 64.8606Z" stroke="#229EFF" stroke-linejoin="round"/><path d="M40.4502 13.3908L37.0302 15.1008L36.8102 15.2108C36.1902 15.5608 35.8401 16.2208 35.7701 17.1808C35.7601 17.3208 35.7501 17.4608 35.7501 17.6108V23.2908L21.1702 30.5808C21.8502 30.1908 22.1902 29.4208 22.1902 28.2508C22.1902 27.0808 21.8502 25.8908 21.1702 24.6508L16.0101 15.6408C15.2701 14.3608 14.3901 13.4308 13.3801 12.8508C12.4801 12.3208 11.6802 12.2008 10.9902 12.4808L30.7501 2.60078C31.4901 2.18078 32.3701 2.26078 33.3801 2.85078C34.3901 3.43078 35.2701 4.36079 36.0101 5.64079L40.4502 13.3908Z" stroke="#229EFF" stroke-linejoin="round"/><path d="M43.13 21.871V30.341C43.13 31.521 42.7801 32.321 42.1001 32.731L42 32.781C41.5 33.041 40.9101 33.061 40.2401 32.811C39.9901 32.731 39.7201 32.6009 39.4401 32.4409C38.3901 31.8409 37.5201 30.9309 36.8101 29.7109C36.5701 29.3009 36.3801 28.9009 36.2201 28.4909C35.9101 27.6809 35.75 26.881 35.75 26.081V17.611C35.75 17.461 35.75 17.3209 35.77 17.1909C35.84 16.2209 36.1901 15.5609 36.8101 15.2109L37.03 15.1009C37.7 14.8409 38.4901 14.971 39.4401 15.511C40.4801 16.111 41.3601 17.0209 42.0701 18.2409C42.1101 18.3109 42.1501 18.3709 42.1801 18.4409C42.8101 19.5909 43.13 20.741 43.13 21.871Z" stroke="#229EFF" stroke-linejoin="round"/><path d="M63.13 11.8707V20.3407C63.13 21.5407 62.7701 22.3407 62.0701 22.7507L61.8501 22.8607L56.87 25.3507L42.1001 32.7307C42.7801 32.3207 43.13 31.5207 43.13 30.3407V21.8707C43.13 20.7407 42.8101 19.5907 42.1801 18.4407C42.1501 18.3707 42.1101 18.3107 42.0701 18.2407C41.3601 17.0207 40.4801 16.1107 39.4401 15.5107C38.4901 14.9707 37.7 14.8407 37.03 15.1007L40.4501 13.3907L56.8101 5.2107C57.5201 4.8107 58.3901 4.91071 59.4401 5.51071C60.4801 6.11071 61.3601 7.0207 62.0701 8.2407C62.7701 9.4607 63.13 10.6707 63.13 11.8707Z" stroke="#229EFF" stroke-linejoin="round"/><path d="M24.37 34.4209L23.5601 34.8309" stroke="#229EFF" stroke-linejoin="round"/><path d="M80.02 85.5108C80.02 86.7108 79.6701 87.5108 78.9601 87.9208C78.4201 88.2308 77.78 88.2408 77.03 87.9508C76.81 87.8708 76.5701 87.7608 76.3301 87.6208L73.2201 85.8208L68.9601 83.3608C68.6201 83.1608 68.3 82.9408 68 82.6808C67.36 82.1308 66.8101 81.4508 66.3301 80.6208C65.6201 79.4008 65.27 78.1908 65.27 76.9908C65.27 75.7908 65.6201 74.9908 66.3301 74.5908L66.55 74.4808C67.21 74.2208 68.0101 74.3508 68.9601 74.8908L69.66 75.3008L75.6801 78.7808L76.3301 79.1508C77.3801 79.7508 78.2601 80.6708 78.9601 81.8808C79.3001 82.4708 79.5601 83.0508 79.7401 83.6308C79.9301 84.2608 80.02 84.8908 80.02 85.5108Z" stroke="#229EFF" stroke-linejoin="round"/><path d="M61.5802 74.8609C61.5802 78.3509 61.0101 81.3109 59.8701 83.7509C59.5101 84.5309 59.0901 85.2509 58.6201 85.9109C57.7101 87.2109 56.6202 88.2309 55.3602 88.9809L54.2202 89.5509C53.0702 90.0509 51.8002 90.3409 50.4102 90.4309C50.3802 89.8109 50.3201 89.1909 50.2501 88.5709C49.8701 85.4409 48.9601 82.2709 47.5001 79.0709C47.1201 78.2109 46.6902 77.3409 46.2202 76.4709C44.1902 72.7209 41.7302 69.5009 38.8602 66.8209C38.1302 66.1409 37.3602 65.4909 36.5802 64.8809C34.6702 59.9709 32.1101 55.4709 28.8801 51.3809C26.9501 48.9409 24.9101 46.7609 22.7501 44.8609C21.6101 43.8609 20.4402 42.9309 19.2402 42.0809C18.9002 41.8309 18.5602 41.6009 18.2202 41.3709C19.5202 37.9309 21.5701 35.6209 24.3701 34.4209L24.4102 34.4009C25.0402 34.1409 25.7202 33.9209 26.4302 33.7709C30.3102 32.9409 34.6402 33.9109 39.4402 36.6809C45.5902 40.2309 50.8101 45.7209 55.1201 53.1409C58.4001 58.8009 60.4302 64.3509 61.2102 69.8009C61.4602 71.5009 61.5802 73.1909 61.5802 74.8609Z" stroke="#229EFF" stroke-linejoin="round"/><path d="M38.8601 66.8206L32.8301 69.8306L31.78 70.3606L31.05 68.0206L30.8601 67.4006C29.7501 63.5806 27.9501 60.0406 25.4601 56.7706C24.8301 55.9306 24.18 55.1506 23.52 54.4206C21.57 52.2706 19.5 50.5706 17.3 49.3006C13.66 47.2006 10.49 46.7006 7.79004 47.8106L19.2401 42.0806C20.4401 42.9306 21.61 43.8606 22.75 44.8606C24.91 46.7606 26.95 48.9406 28.88 51.3806C32.11 55.4706 34.6701 59.9706 36.5801 64.8806C37.3601 65.4906 38.1301 66.1406 38.8601 66.8206Z" stroke="#229EFF" stroke-linejoin="round"/></svg>