<svg width="48" height="48" viewBox="0 0 105 98" class="pr-icon-iso-duotone-secondary"
     xmlns="http://www.w3.org/2000/svg" stroke-width="1px" stroke-linecap="round" stroke-linejoin="round">
    <path d="M66.1301 30.05C66.1301 34.64 64.7101 37.75 61.8601 39.37L61.1401 39.73L53.4001 43.6L41.8601 49.37C44.7101 47.75 46.1301 44.64 46.1301 40.05C46.1301 39.93 46.1301 39.82 46.1201 39.7C46.0901 37.41 45.7 35.08 44.95 32.71C44.25 30.45 43.2201 28.15 41.8601 25.81C40.7401 23.88 39.54 22.17 38.25 20.65C36.24 18.27 34.0201 16.39 31.5901 14.98C27.9401 12.87 24.7701 12.4 22.0801 13.58L41.3301 3.95C44.1701 2.33 47.6001 2.67 51.5901 4.98C55.5901 7.29 59.0101 10.9 61.8601 15.81C64.7101 20.72 66.1301 25.47 66.1301 30.05Z" class="pr-icon-iso-duotone-primary-stroke" stroke-linejoin="round"/>
    <path d="M71.6501 58.87C71.6501 58.87 71.6001 58.81 71.5701 58.78V58.91M71.6501 58.87C71.7201 58.93 71.7801 58.99 71.8301 59.06L71.5701 58.91M71.6501 58.87L71.5701 58.91" class="pr-icon-iso-duotone-primary-stroke" stroke-linejoin="round"/>
    <path d="M60.6699 86.82V90.15C60.6699 92.45 59.96 94 58.53 94.81C57.11 95.62 55.4001 95.45 53.4001 94.3L9.79004 69.12C7.79004 67.96 6.08015 66.16 4.65015 63.7C3.23015 61.25 2.52002 58.87 2.52002 56.58V53.24C2.52002 50.88 3.05011 49.01 4.11011 47.64C4.67011 46.92 5.33009 46.38 6.09009 46.04C6.76009 45.73 7.51008 45.56 8.33008 45.55C12.0901 45.56 15.91 46.15 19.78 47.31C20.73 47.6 21.6901 47.92 22.6501 48.27C25.6001 49.36 28.5801 50.78 31.5901 52.51C35.5901 54.82 39.5299 57.63 43.4099 60.95C47.2799 64.26 51.1001 68.08 54.8501 72.41C55.4301 73.08 55.97 73.79 56.46 74.52C57.5 76.02 58.3701 77.64 59.0801 79.38C60.1401 81.97 60.6699 84.45 60.6699 86.82Z" class="pr-icon-iso-duotone-primary-stroke" stroke-linejoin="round"/>
    <path d="M91.4199 66.76C91.2599 67.32 90.96 67.72 90.53 67.96L90.3101 68.07L80.25 73.1L70.53 77.96C71.22 77.57 71.5701 76.78 71.5701 75.6V67.25L78.8401 71.45C79.2401 71.68 79.61 71.84 79.95 71.91C80.51 72.05 80.9999 71.99 81.4299 71.75L88.8 68.06H88.8101L91.4199 66.76Z" class="pr-icon-iso-duotone-primary-stroke" stroke-linejoin="round"/>
    <path d="M91.5701 40.57V48.91L83.8201 52.78L71.6501 58.87C71.6501 58.87 71.6001 58.81 71.5701 58.78V50.57C71.5701 49.39 71.22 48.2 70.53 47C69.83 45.8 68.9699 44.9 67.9399 44.3C67.6299 44.13 67.3501 44 67.0801 43.9H67.0701C66.5001 43.72 66.0001 43.72 65.5601 43.91L85.3501 34.01C86.0401 33.61 86.9099 33.71 87.9399 34.3C88.9699 34.9 89.83 35.8 90.53 37C91.22 38.2 91.5701 39.39 91.5701 40.57Z" class="pr-icon-iso-duotone-primary-stroke" stroke-linejoin="round"/>
    <path d="M46.1301 40.05C46.1301 44.64 44.7101 47.75 41.8601 49.37C39.0101 50.99 35.5901 50.65 31.5901 48.34C28.3201 46.46 25.4299 43.69 22.9299 40.05C22.5199 39.46 22.12 38.84 21.74 38.2C21.6 37.98 21.4601 37.75 21.3301 37.52C18.4801 32.6 17.0601 27.86 17.0601 23.27C17.0601 18.68 18.4801 15.58 21.3301 13.95L22.0801 13.58C24.7701 12.4 27.9401 12.87 31.5901 14.98C34.0201 16.39 36.24 18.27 38.25 20.65C39.54 22.17 40.7401 23.88 41.8601 25.81C43.2201 28.15 44.25 30.45 44.95 32.71C45.7 35.08 46.0901 37.41 46.1201 39.7C46.1301 39.82 46.1301 39.93 46.1301 40.05Z" class="pr-icon-iso-duotone-primary-stroke" stroke-linejoin="round"/>
    <path d="M64.45 45.22C64.35 45.55 64.3 45.94 64.3 46.38V54.72L57.03 50.52C56.1 49.99 55.3101 49.85 54.6501 50.12L59.4099 47.73L64.45 45.22Z" class="pr-icon-iso-duotone-primary-stroke" stroke-linejoin="round"/>
    <path d="M82.48 69.38C82.48 70.56 82.1299 71.35 81.4299 71.75C80.9999 71.99 80.51 72.05 79.95 71.91C79.61 71.84 79.2401 71.68 78.8401 71.45L71.5701 67.25V75.6C71.5701 76.78 71.22 77.57 70.53 77.96C69.83 78.36 68.9699 78.26 67.9399 77.67C66.9099 77.07 66.0401 76.17 65.3501 74.97C64.6501 73.77 64.3 72.58 64.3 71.4V63.06L57.03 58.86C56 58.27 55.1399 57.37 54.4399 56.17C53.7499 54.97 53.4001 53.77 53.4001 52.59C53.4001 51.41 53.7499 50.62 54.4399 50.22L54.6501 50.12C55.3101 49.85 56.1 49.99 57.03 50.52L64.3 54.72V46.38C64.3 45.94 64.35 45.55 64.45 45.22C64.61 44.65 64.9101 44.25 65.3501 44.01L65.5601 43.91C66.0001 43.72 66.5001 43.72 67.0701 43.9H67.0801C67.3501 44 67.6299 44.13 67.9399 44.3C68.9699 44.9 69.83 45.8 70.53 47C71.22 48.2 71.5701 49.39 71.5701 50.57V58.91L71.8301 59.06L78.8401 63.11C79.8701 63.7 80.7299 64.6 81.4299 65.8C82.1299 67.01 82.48 68.2 82.48 69.38Z" class="pr-icon-iso-duotone-primary-stroke" stroke-linejoin="round"/>
    <path d="M71.6501 58.87L71.5701 58.91" class="pr-icon-iso-duotone-primary-stroke" stroke-linejoin="round"/>
    <path d="M102.48 59.38C102.48 60.56 102.13 61.35 101.43 61.75L91.4199 66.75L88.8101 68.06H88.8L81.4299 71.75C82.1299 71.35 82.48 70.56 82.48 69.38C82.48 68.2 82.1299 67.01 81.4299 65.8C80.7299 64.6 79.8701 63.7 78.8401 63.11L71.8301 59.06C71.7801 58.99 71.7201 58.93 71.6501 58.87L83.8201 52.78L91.5701 48.91L98.8401 53.11C99.8701 53.7 100.73 54.6 101.43 55.8C102.13 57.01 102.48 58.2 102.48 59.38Z" class="pr-icon-iso-duotone-primary-stroke" stroke-linejoin="round"/>
    <path d="M80.6699 76.82V80.15C80.6699 82.45 79.96 84 78.53 84.81L78.0801 85.03L58.53 94.81C59.96 94 60.6699 92.45 60.6699 90.15V86.82C60.6699 84.45 60.1401 81.97 59.0801 79.38C58.3701 77.64 57.5 76.02 56.46 74.52C55.97 73.79 55.4301 73.08 54.8501 72.41C51.1001 68.08 47.2799 64.26 43.4099 60.95C39.5299 57.63 35.5901 54.82 31.5901 52.51C28.5801 50.78 25.6001 49.36 22.6501 48.27C21.6901 47.92 20.73 47.6 19.78 47.31C15.91 46.15 12.0901 45.56 8.33008 45.55C7.51008 45.56 6.76009 45.73 6.09009 46.04L21.74 38.2C22.12 38.84 22.5199 39.46 22.9299 40.05C25.4299 43.69 28.3201 46.46 31.5901 48.34C35.5901 50.65 39.0101 50.99 41.8601 49.37L53.4001 43.6C55.4201 44.84 57.4199 46.22 59.4099 47.73L54.6501 50.12L54.4399 50.22C53.7499 50.62 53.4001 51.41 53.4001 52.59C53.4001 53.77 53.7499 54.97 54.4399 56.17C55.1399 57.37 56 58.27 57.03 58.86L64.3 63.06V71.4C64.3 72.58 64.6501 73.77 65.3501 74.97C66.0401 76.17 66.9099 77.07 67.9399 77.67C68.9699 78.26 69.83 78.36 70.53 77.96L80.25 73.1C80.53 74.37 80.6699 75.61 80.6699 76.82Z" class="pr-icon-iso-duotone-primary-stroke" stroke-linejoin="round"/>
</svg>