<svg width="48" height="48" viewBox="0 0 101 118" fill="#c8e7ff" xmlns="http://www.w3.org/2000/svg" stroke-width="1px" stroke-linecap="round" stroke-linejoin="round"><path d="M58.5001 18.998L47.9001 24.2981L45.6101 25.448L45.0402 25.7281C43.2302 26.7581 42.3202 28.768 42.3002 31.758L38.7701 33.318C40.5901 32.268 41.5101 30.228 41.5101 27.198C41.5101 24.168 40.5901 21.0681 38.7701 17.9081C36.9401 14.7581 34.7002 12.418 32.0502 10.898C29.8402 9.61805 27.9101 9.23803 26.2701 9.75803L42.3601 2.63804C44.1801 1.58804 46.4202 1.83807 49.0702 3.35807C51.7102 4.88807 53.9502 7.22803 55.7802 10.378C57.4802 13.308 58.3801 16.178 58.5001 18.998Z" stroke="#229EFF" stroke-linejoin="round"/><path d="M34.9801 36.1381C35.2601 36.0581 35.5202 35.9381 35.7802 35.7881L34.9801 36.1381ZM5.34021 20.1681L6.27014 19.7581C5.95014 19.8581 5.64021 19.9981 5.34021 20.1681Z" stroke="#229EFF" stroke-linejoin="round"/><path d="M21.5101 37.198C21.5101 40.228 20.5901 42.268 18.7701 43.318C16.9401 44.358 14.7002 44.1081 12.0502 42.5881C9.41017 41.0581 7.17021 38.718 5.34021 35.568C3.52021 32.418 2.6001 29.3181 2.6001 26.2781C2.6001 23.2381 3.52021 21.2081 5.34021 20.1681L6.27014 19.758C7.91014 19.238 9.84017 19.6181 12.0502 20.8981C14.7002 22.4181 16.9401 24.7581 18.7701 27.9081C20.5901 31.0681 21.5101 34.158 21.5101 37.198Z" stroke="#229EFF" stroke-linejoin="round"/><path d="M25.3402 10.1681L26.2501 9.76807C25.9401 9.86807 25.6302 9.99809 25.3402 10.1681Z" stroke="#229EFF" stroke-linejoin="round"/><path d="M98.2202 59.938C98.2202 62.978 97.3001 65.018 95.4801 66.058L94.9102 66.338L80.7501 73.4181L75.4801 76.058C77.3001 75.018 78.2202 72.978 78.2202 69.938C78.2202 69.368 78.1901 68.8081 78.1201 68.2381C77.8401 65.7381 76.9601 63.2181 75.4801 60.6581C74.9601 59.7681 74.4202 58.948 73.8402 58.188C72.3602 56.248 70.6701 54.728 68.7701 53.638C66.3901 52.268 64.3401 51.928 62.6201 52.628L69.1902 49.338L82.0502 42.9081C83.8802 41.8681 86.1201 42.108 88.7701 43.638C91.4101 45.158 93.6501 47.4981 95.4801 50.6581C97.3001 53.8081 98.2202 56.898 98.2202 59.938Z" stroke="#229EFF" stroke-linejoin="round"/><path d="M70.6602 107.218C70.6602 110.618 69.6901 113.008 67.7701 114.398C65.8501 115.778 63.4701 115.658 60.6401 114.018C57.2301 112.048 53.8601 109.778 50.5201 107.198C47.1801 104.628 43.8102 102.348 40.4102 100.388C37.0102 98.418 33.6402 96.7981 30.3002 95.5281C26.9602 94.2481 23.5902 92.6281 20.1802 90.6581C17.3502 89.0281 14.9702 86.4081 13.0502 82.7981C11.1302 79.1981 10.1602 75.6981 10.1602 72.2981C10.1602 68.5381 11.2801 65.888 13.5201 64.368C15.7601 62.838 17.9802 61.3381 20.1802 59.8581C22.0102 58.6681 23.5902 57.138 24.9102 55.268C26.2302 53.388 27.8101 51.828 29.6401 50.568C30.2701 50.078 30.9402 49.678 31.6602 49.378C32.5302 49.008 33.4602 48.778 34.4602 48.688C36.1502 48.518 37.9802 48.968 39.9402 50.018C40.1002 50.098 40.2502 50.1881 40.4102 50.2781C42.5502 51.5181 44.5401 53.238 46.3601 55.448C48.1901 57.668 49.8002 60.1081 51.1902 62.7881C52.9502 66.1281 54.5101 69.5181 55.8601 72.9781C57.2201 76.4281 58.8101 79.8481 60.6401 83.2181C62.6701 86.9181 64.7101 90.648 66.7701 94.438C66.9401 94.758 67.1202 95.0881 67.3002 95.4181C69.5402 99.5281 70.6602 103.458 70.6602 107.218Z" stroke="#229EFF" stroke-linejoin="round"/><path d="M41.5101 27.1981C41.5101 30.2281 40.5901 32.2681 38.7701 33.3181C38.4301 33.5081 38.0702 33.6581 37.7002 33.7581C36.0902 34.2181 34.2102 33.8281 32.0502 32.5881C29.4102 31.0581 27.1702 28.7181 25.3402 25.5681C23.5202 22.4181 22.6001 19.3181 22.6001 16.2781C22.6001 14.6181 22.8802 13.2481 23.4302 12.1881C23.8902 11.3081 24.5202 10.6381 25.3402 10.1681L26.2501 9.76807H26.2701C27.9101 9.23807 29.8402 9.61808 32.0502 10.8981C34.7002 12.4181 36.9401 14.7581 38.7701 17.9081C40.5901 21.0681 41.5101 24.1581 41.5101 27.1981Z" stroke="#229EFF" stroke-linejoin="round"/><path d="M37.7002 33.7581C37.2402 34.6381 36.6002 35.3081 35.7802 35.7881L34.9801 36.1381L18.7701 43.3181C20.5901 42.2681 21.5101 40.2281 21.5101 37.1981C21.5101 34.1681 20.5901 31.0681 18.7701 27.9081C16.9401 24.7581 14.7002 22.4181 12.0502 20.8981C9.84017 19.6181 7.91014 19.2381 6.27014 19.7581L22.3601 12.6381C22.7001 12.4381 23.0602 12.288 23.4302 12.188C22.8802 13.248 22.6001 14.6181 22.6001 16.2781C22.6001 19.3181 23.5202 22.4181 25.3402 25.5681C27.1702 28.7181 29.4102 31.0581 32.0502 32.5881C34.2102 33.8281 36.0902 34.2181 37.7002 33.7581Z" stroke="#229EFF" stroke-linejoin="round"/><path d="M61.2002 42.758C61.2002 45.798 60.2902 47.838 58.4602 48.878C56.6402 49.918 54.4001 49.6781 51.7501 48.1481C49.7601 46.9981 48.0001 45.388 46.4801 43.318C46.2301 42.988 46.0001 42.658 45.7701 42.308C45.5201 41.928 45.2802 41.528 45.0402 41.128C43.2102 37.978 42.3002 34.8881 42.3002 31.8481V31.758C42.3202 28.768 43.2302 26.7581 45.0402 25.7281L45.6101 25.448C47.3301 24.748 49.3801 25.0881 51.7501 26.4581C52.1001 26.6581 52.4402 26.878 52.7802 27.118C54.9902 28.618 56.8802 30.7481 58.4602 33.4781C59.8702 35.9081 60.7402 38.3081 61.0502 40.6681C61.1502 41.3681 61.2002 42.068 61.2002 42.758Z" stroke="#229EFF" stroke-linejoin="round"/><path d="M81.2002 32.758C81.2002 35.798 80.2902 37.838 78.4602 38.878L77.8901 39.1581L66.0502 45.088L58.4602 48.878C60.2902 47.838 61.2002 45.798 61.2002 42.758C61.2002 42.068 61.1502 41.3681 61.0502 40.6681C60.7402 38.3081 59.8702 35.9081 58.4602 33.4781C56.8802 30.7481 54.9902 28.618 52.7802 27.118C52.4402 26.878 52.1001 26.658 51.7501 26.458C49.3801 25.088 47.3301 24.748 45.6101 25.448L47.9001 24.2981L65.0402 15.7281C66.8702 14.6881 69.1101 14.928 71.7501 16.458C74.4001 17.988 76.6402 20.3281 78.4602 23.4781C80.2902 26.6281 81.2002 29.728 81.2002 32.758Z" stroke="#229EFF" stroke-linejoin="round"/><path d="M78.2202 69.938C78.2202 72.978 77.3001 75.018 75.4801 76.058C73.6501 77.098 71.4101 76.858 68.7701 75.328C66.1201 73.798 63.8802 71.458 62.0502 68.308C60.2302 65.158 59.3102 62.0581 59.3102 59.0281C59.3102 55.9981 60.2302 53.9481 62.0502 52.9081L62.6201 52.628C64.3401 51.928 66.3901 52.268 68.7701 53.638C70.6701 54.728 72.3602 56.248 73.8402 58.188C74.4202 58.948 74.9601 59.7681 75.4801 60.6581C76.9601 63.2181 77.8401 65.7381 78.1201 68.2281C78.1901 68.8081 78.2202 69.368 78.2202 69.938Z" stroke="#229EFF" stroke-linejoin="round"/><path d="M90.6602 97.2181C90.6602 100.618 89.6901 103.008 87.7701 104.398C87.6001 104.518 87.4301 104.628 87.2501 104.728L86.7401 104.978L67.7701 114.398C69.6901 113.008 70.6602 110.618 70.6602 107.218C70.6602 103.458 69.5402 99.5281 67.3002 95.4181C67.1202 95.0881 66.9401 94.758 66.7701 94.438C64.7101 90.648 62.6701 86.9181 60.6401 83.2181C58.8101 79.8481 57.2201 76.4281 55.8601 72.9781C54.5101 69.5181 52.9502 66.1281 51.1902 62.7881C49.8002 60.1081 48.1901 57.6681 46.3601 55.4481C44.5401 53.2381 42.5502 51.5181 40.4102 50.2781C40.2502 50.1881 40.1002 50.0981 39.9402 50.0181C37.9802 48.9681 36.1502 48.518 34.4602 48.688C33.4602 48.778 32.5302 49.0081 31.6602 49.3781L45.7701 42.308C46.0001 42.658 46.2301 42.9881 46.4801 43.3181C48.0001 45.3881 49.7601 46.9981 51.7501 48.1481C54.4001 49.6781 56.6402 49.9181 58.4602 48.8781L66.0502 45.0881C66.1602 45.2081 66.2601 45.3281 66.3601 45.4481C67.3701 46.6781 68.3202 47.9681 69.1902 49.3381L62.6201 52.6281L62.0502 52.9081C60.2302 53.9481 59.3102 55.9881 59.3102 59.0281C59.3102 62.0681 60.2302 65.158 62.0502 68.308C63.8802 71.458 66.1201 73.7981 68.7701 75.3281C71.4101 76.8581 73.6501 77.098 75.4801 76.058L80.7501 73.4181C82.9101 77.3681 85.1002 81.3681 87.3002 85.4181C89.5402 89.5281 90.6602 93.4581 90.6602 97.2181Z" stroke="#229EFF" stroke-linejoin="round"/></svg>