<svg width="48" height="48" viewBox="0 0 114 86" fill="#c8e7ff" xmlns="http://www.w3.org/2000/svg" stroke-width="1px" stroke-linecap="round" stroke-linejoin="round"><path d="M57.8211 46.6101V71.3501C57.8211 72.5401 57.4811 73.3301 56.8011 73.7201C56.1211 74.1101 55.2711 74.0001 54.2311 73.4001C53.1911 72.8001 52.3311 71.9201 51.6511 70.7501C50.9711 69.5801 50.6311 68.3901 50.6311 67.2001V57.5801L41.0511 52.0501V61.6701C41.0511 62.8601 40.7111 63.6501 40.0311 64.0401C39.3611 64.4201 38.5011 64.3201 37.4611 63.7201C36.4211 63.1201 35.5611 62.2401 34.8811 61.0601C34.2011 59.8901 33.8711 58.7101 33.8711 57.5201V32.7801C33.8711 31.5901 34.2011 30.8001 34.8811 30.4101L35.0911 30.3101C35.2911 30.2301 35.5111 30.1901 35.7511 30.1901H35.7611C36.2611 30.1901 36.8311 30.3701 37.4611 30.7301C38.1011 31.1001 38.6811 31.5801 39.1811 32.1701L39.2011 32.1901C39.5011 32.5501 39.7811 32.9501 40.0311 33.3901C40.2911 33.8301 40.4911 34.2701 40.6511 34.7101C40.9211 35.4501 41.0511 36.1901 41.0511 36.9301V43.8001L50.6311 49.3401V42.4601C50.6311 41.2701 50.9711 40.4801 51.6511 40.1001L51.8611 40.0001C52.4211 39.7701 53.0911 39.8401 53.8711 40.2201C53.9911 40.2801 54.1111 40.3401 54.2311 40.4101C55.2711 41.0101 56.1211 41.9001 56.8011 43.0701C57.4811 44.2401 57.8211 45.4201 57.8211 46.6101Z" stroke="#229EFF" stroke-linejoin="round"/><path d="M77.8204 36.6101V45.0801L70.6304 48.6801L68.6304 49.6801L68.4203 49.7801C67.7403 50.1601 67.4004 50.9501 67.4004 52.1401V68.4201L56.8004 73.7201C57.4804 73.3301 57.8204 72.5401 57.8204 71.3501V46.6101C57.8204 45.4201 57.4804 44.2401 56.8004 43.0701C56.1204 41.9001 55.2703 41.0101 54.2303 40.4101C54.1103 40.3401 53.9904 40.2801 53.8704 40.2201C53.0904 39.8401 52.4204 39.7701 51.8604 40.0001L53.8704 38.9901L71.6504 30.1001C72.3304 29.7101 73.1903 29.8101 74.2303 30.4101C75.2703 31.0101 76.1204 31.9001 76.8004 33.0701C77.4804 34.2401 77.8204 35.4201 77.8204 36.6101Z" stroke="#229EFF" stroke-linejoin="round"/><path d="M82.6903 78.8401L73.5703 83.4001C74.2503 83.0101 74.5903 82.2201 74.5903 81.0301V74.1601L82.6903 78.8401Z" stroke="#229EFF" stroke-linejoin="round"/><path d="M62.5308 34.66L53.8708 38.9901L51.8608 40L51.6508 40.1001C50.9708 40.4801 50.6308 41.2701 50.6308 42.4601V49.34L41.0508 43.8L53.8708 37.39L61.0508 33.8L62.5308 34.66Z" stroke="#229EFF" stroke-linejoin="round"/><path d="M61.0508 26.9301V33.8001L53.8708 37.3901L41.0508 43.8001V36.9301C41.0508 36.1901 40.9208 35.4501 40.6508 34.7201C40.4908 34.2701 40.2908 33.8301 40.0308 33.3901C39.7808 32.9501 39.5008 32.5501 39.2008 32.1901L39.1808 32.1701C38.6808 31.5801 38.1008 31.1001 37.4608 30.7301C36.8308 30.3701 36.2608 30.1901 35.7608 30.1901H35.7508L35.5508 30.0801L46.6808 24.5101L54.8808 20.4101C55.5608 20.0301 56.4208 20.1301 57.4608 20.7301C58.5008 21.3301 59.3608 22.2201 60.0308 23.3901C60.7108 24.5601 61.0508 25.7401 61.0508 26.9301Z" stroke="#229EFF" stroke-linejoin="round"/><path d="M50.6302 57.58V58.7401L40.0303 64.0401C40.7103 63.6501 41.0502 62.86 41.0502 61.67V52.05L50.6302 57.58Z" stroke="#229EFF" stroke-linejoin="round"/><path d="M89.2004 63.0801C88.6404 62.1101 88.0404 61.2401 87.4004 60.4801C87.2004 60.2401 87.0004 60.0201 86.8004 59.8101C85.9804 58.9401 85.1003 58.2401 84.1703 57.7001L77.8204 54.0401L71.0004 50.1001C70.8704 50.0301 70.7504 49.9601 70.6304 49.9101C69.8504 49.5301 69.1804 49.4501 68.6304 49.6801L68.4203 49.7801C67.7403 50.1601 67.4004 50.9501 67.4004 52.1401V76.8801C67.4004 78.0801 67.7403 79.2601 68.4203 80.4301C69.1003 81.6001 69.9604 82.4801 71.0004 83.0801C72.0304 83.6801 72.8904 83.7901 73.5704 83.4001C74.2504 83.0101 74.5904 82.2201 74.5904 81.0301V74.1601L82.6904 78.8401L84.1703 79.6901C86.0903 80.8001 87.7704 80.9401 89.2004 80.1201C90.6404 79.3001 91.3604 77.8001 91.3604 75.6001V70.1001C91.3604 67.9001 90.6404 65.5601 89.2004 63.0801ZM84.1703 71.4501L74.5904 65.9101V60.4201L77.7404 62.2401L79.6904 63.3601L84.1703 65.9501V71.4501Z" stroke="#229EFF" stroke-linejoin="round"/><path d="M111.361 60.1001V65.6001C111.361 67.8001 110.641 69.3001 109.201 70.1201C109.051 70.2101 108.891 70.2801 108.731 70.3501L89.2009 80.1201C90.6409 79.3001 91.3608 77.8001 91.3608 75.6001V70.1001C91.3608 67.9001 90.6409 65.5601 89.2009 63.0801C88.6409 62.1101 88.0409 61.2401 87.4009 60.4801C87.2009 60.2401 87.0008 60.0201 86.8008 59.8101C85.9808 58.9401 85.1008 58.2401 84.1708 57.7001L77.8209 54.0401L71.0009 50.1001C70.8709 50.0301 70.7509 49.9601 70.6309 49.9101C69.8509 49.5301 69.1809 49.4501 68.6309 49.6801L70.6309 48.6801L77.8209 45.0801L88.4208 39.7801C89.1008 39.3901 89.9609 39.5001 91.0009 40.1001L104.171 47.7001C106.091 48.8101 107.771 50.6001 109.201 53.0801C110.641 55.5601 111.361 57.9001 111.361 60.1001Z" stroke="#229EFF" stroke-linejoin="round"/><path d="M84.1708 65.9501V71.4501L74.5908 65.9101L79.6908 63.3601L84.1708 65.9501Z" stroke="#229EFF" stroke-linejoin="round"/><path d="M79.6908 63.36L74.5908 65.91V60.42L77.7408 62.2401L79.6908 63.36Z" stroke="#229EFF" stroke-linejoin="round"/><path d="M24.5207 25.7401C23.9607 24.7701 23.3607 23.9001 22.7207 23.1401C22.5207 22.9001 22.3207 22.6801 22.1207 22.4701C21.3007 21.6001 20.4207 20.9001 19.4907 20.3601L6.32068 12.7501C5.38068 12.2101 4.59068 12.0701 3.95068 12.3301L3.74066 12.4301C3.06066 12.8201 2.7207 13.6101 2.7207 14.8001V39.5401C2.7207 40.7301 3.06066 41.9101 3.74066 43.0801C4.42066 44.2501 5.28068 45.1401 6.32068 45.7401C7.35068 46.3401 8.21069 46.4401 8.89069 46.0601C9.57069 45.6701 9.91064 44.8801 9.91064 43.6901V36.8201L18.0107 41.5001L19.4907 42.3501C21.4107 43.4601 23.0907 43.6001 24.5207 42.7801C25.9607 41.9601 26.6807 40.4501 26.6807 38.2501V32.7601C26.6807 30.5601 25.9607 28.2201 24.5207 25.7401ZM19.4907 34.1001L9.91064 28.5701V23.0701L15.0107 26.0201L19.4907 28.6101V34.1001Z" stroke="#229EFF" stroke-linejoin="round"/><path d="M15.0102 26.0201L9.91016 28.5701V23.0701L15.0102 26.0201Z" stroke="#229EFF" stroke-linejoin="round"/><path d="M19.4902 28.6101V34.1001L9.91016 28.5701L15.0102 26.0201L19.4902 28.6101Z" stroke="#229EFF" stroke-linejoin="round"/><path d="M18.0106 41.5001L8.89062 46.0601C9.57063 45.6701 9.91058 44.8801 9.91058 43.6901V36.8201L18.0106 41.5001Z" stroke="#229EFF" stroke-linejoin="round"/><path d="M46.6812 22.7601V24.5101L35.5511 30.0801L35.0912 30.3101L34.8812 30.4101C34.2012 30.8001 33.8712 31.5901 33.8712 32.7801V38.1101L24.5212 42.7801C25.9612 41.9601 26.6812 40.4501 26.6812 38.2501V32.7601C26.6812 30.5601 25.9612 28.2201 24.5212 25.7401C23.9612 24.7701 23.3612 23.9001 22.7212 23.1401C22.5212 22.9001 22.3212 22.6801 22.1212 22.4701C21.3012 21.6001 20.4211 20.9001 19.4911 20.3601L6.32117 12.7501C5.38117 12.2101 4.59117 12.0701 3.95117 12.3301L23.7411 2.43009C24.4211 2.05009 25.2812 2.15008 26.3212 2.75008L39.4911 10.3601C41.4111 11.4701 43.0912 13.2601 44.5212 15.7401C45.9612 18.2201 46.6812 20.5601 46.6812 22.7601Z" stroke="#229EFF" stroke-linejoin="round"/><path d="M24.521 42.7801L24.251 42.9201" stroke="#229EFF" stroke-linejoin="round"/></svg>