<svg width="24" height="24" viewBox="0 0 99 106" class="pr-icon-iso-duotone-secondary" xmlns="http://www.w3.org/2000/svg" stroke-width="1px" stroke-linecap="round" stroke-linejoin="round">
    <path d="M76.2295 75.8781C75.8795 74.6981 75.3795 73.5081 74.7295 72.3281L72.7994 68.9581L68.7595 61.9481L67.9194 60.4781V49.7281C67.9194 48.8081 67.7994 47.8681 67.5594 46.9081C67.5494 46.8481 67.5295 46.7781 67.4995 46.7081C67.1695 45.4281 66.6095 44.1181 65.8395 42.7881C65.1995 41.6881 64.4995 40.7281 63.7395 39.8981L63.7195 39.8681H63.7095C63.7095 39.8681 63.6995 39.8481 63.6895 39.8481C62.8295 38.8981 61.8695 38.1181 60.8395 37.5281L52.8094 32.8881L51.4695 32.1081L50.9294 31.1881L47.7595 25.7681L44.5695 20.3181C43.8695 19.1681 43.0895 18.1381 42.2295 17.2381C41.3795 16.3381 40.5095 15.6381 39.6195 15.1281C38.7395 14.6181 37.8695 14.3181 37.0095 14.2281C36.1595 14.1381 35.3794 14.2681 34.6694 14.5981L31.3295 16.4481L27.7694 18.4281L18.3994 13.0181C16.6594 12.0181 15.1395 11.7781 13.8395 12.2981L13.3994 12.5181C12.0194 13.3081 11.3295 14.8181 11.3295 17.0481V27.8081L4.51941 31.7881C3.86941 32.2281 3.36952 32.8381 3.00952 33.6081C2.65952 34.3881 2.47949 35.2881 2.47949 36.2981C2.47949 37.3081 2.65952 38.4181 3.00952 39.5981C3.36952 40.7881 3.86941 41.9681 4.51941 43.1581L11.3295 54.9981V65.7581C11.3295 67.9881 12.0194 70.2981 13.3994 72.6881C14.7894 75.0781 16.4594 76.8381 18.3994 77.9581L27.7694 83.3681L34.6694 95.1681C35.3794 96.3181 36.1595 97.3381 37.0095 98.2381C37.8695 99.1381 38.7395 99.8481 39.6195 100.358C40.5095 100.868 41.3795 101.168 42.2295 101.258C43.0895 101.338 43.8695 101.218 44.5695 100.878L51.4695 97.0481L60.8395 102.458C62.7895 103.588 64.4495 103.748 65.8395 102.958C67.2295 102.168 67.9194 100.658 67.9194 98.4281V87.6781L74.7295 83.6881C75.3795 83.2581 75.8795 82.6481 76.2295 81.8681C76.5795 81.0881 76.7595 80.1981 76.7595 79.1781C76.7595 78.1581 76.5795 77.0681 76.2295 75.8781ZM43.3695 46.6181L46.5194 48.4281L48.4595 42.5481L49.5095 46.9281L50.1594 49.6381L50.4094 50.6781L53.7095 52.5781L54.8795 53.2481L55.6195 53.6781L56.7794 54.3481L51.5594 55.7081L53.4795 63.3181L53.5895 63.7781L52.7694 62.6081L48.4595 56.4581L48.0795 56.5581L43.2495 57.8081L45.2794 52.0781L40.0594 44.7081L43.3695 46.6181ZM57.3094 67.9481C57.3094 73.6381 55.5795 77.4381 52.1295 79.3681C51.9095 79.4881 51.6895 79.6081 51.4695 79.7081C48.1595 81.2381 44.2095 80.6781 39.6195 78.0381C34.6695 75.1781 30.4895 70.7981 27.0695 64.8981C23.6495 58.9981 21.9395 53.2081 21.9395 47.5281C21.9395 42.2581 23.4495 38.5881 26.4595 36.5281C26.6595 36.3881 26.8595 36.2581 27.0695 36.1381C30.3495 34.2281 34.3394 34.5581 39.0394 37.1281H39.0494C39.2394 37.2281 39.4195 37.3381 39.6195 37.4481L40.5895 38.0081C39.0995 37.7581 37.7795 37.8781 36.6195 38.3481L36.0695 38.6181C35.5295 38.9081 35.0295 39.2881 34.5795 39.7581C33.0495 41.3481 32.2794 43.6981 32.2794 46.8081C32.2794 50.8681 33.4894 54.9781 35.9094 59.1481C38.3294 63.3181 41.2995 66.4181 44.8395 68.4681C47.8495 70.1981 50.4695 70.6781 52.7095 69.9181C52.9795 69.8281 53.2295 69.7181 53.4695 69.5981L53.5095 69.5781C54.9195 68.8781 55.9395 67.6881 56.5895 66.0181C56.7695 65.5681 56.9194 65.0681 57.0394 64.5481C57.1594 65.1581 57.2295 65.7481 57.2595 66.2981C57.2595 66.3781 57.2694 66.4481 57.2694 66.5281C57.2894 66.9181 57.2994 67.2981 57.3094 67.6781V67.9481Z" class="pr-icon-iso-duotone-primary-stroke" stroke-linejoin="round"/>
    <path d="M49.5096 46.9279L46.5195 48.4279L48.4596 42.5479L49.5096 46.9279Z" class="pr-icon-iso-duotone-primary-stroke" stroke-linejoin="round"/>
    <path d="M57.3097 67.6886L53.5098 69.5886C54.9198 68.8886 55.9397 67.6986 56.5897 66.0286C56.7697 65.5786 56.9197 65.0786 57.0397 64.5586C57.1597 65.1686 57.2298 65.7586 57.2598 66.3086C57.2598 66.3886 57.2697 66.4586 57.2697 66.5386C57.2897 66.9286 57.2997 67.3086 57.3097 67.6886Z" class="pr-icon-iso-duotone-primary-stroke" stroke-linejoin="round"/>
    <path d="M56.7795 54.3585L51.5596 55.7184L55.6196 53.6885L56.7795 54.3585Z" class="pr-icon-iso-duotone-primary-stroke" stroke-linejoin="round"/>
    <path d="M53.479 63.3278L53.589 63.7878L52.7689 62.6178L48.459 56.4678L54.879 53.2578L55.619 53.6878L51.559 55.7178L53.479 63.3278Z" class="pr-icon-iso-duotone-primary-stroke" stroke-linejoin="round"/>
    <path d="M63.7001 39.8486H63.6901C63.6901 39.8486 63.7001 39.8687 63.7101 39.8687V39.8486H63.7001ZM39.6201 37.4587C39.4201 37.3487 39.24 37.2387 39.05 37.1387H39.04L36.6201 38.3586C37.7801 37.8886 39.1001 37.7687 40.5901 38.0187L39.6201 37.4587Z" class="pr-icon-iso-duotone-primary-stroke" stroke-linejoin="round"/>
    <path d="M87.9198 77.6885V88.4385C87.9198 90.6685 87.2298 92.1784 85.8398 92.9684L85.3998 93.1885L65.8398 102.968C67.2298 102.178 67.9198 100.668 67.9198 98.4385V87.6885L87.9198 77.6885Z" class="pr-icon-iso-duotone-primary-stroke" stroke-linejoin="round"/>
    <path d="M96.76 69.1883C96.76 70.2083 96.58 71.0983 96.23 71.8783C95.88 72.6583 95.38 73.2683 94.73 73.6983L87.9199 77.6883L67.9199 87.6883L74.73 83.6983C75.38 83.2683 75.88 82.6583 76.23 81.8783C76.58 81.0983 76.76 80.2083 76.76 79.1883C76.76 78.1683 76.58 77.0783 76.23 75.8883C75.88 74.7083 75.38 73.5183 74.73 72.3383L72.7999 68.9683L68.76 61.9583L67.9199 60.4883L68.75 60.0683H68.76L76.5199 56.1883L77.22 55.8383L87.9199 50.4883L94.73 62.3383C95.38 63.5183 95.88 64.7083 96.23 65.8883C96.58 67.0783 96.76 68.1783 96.76 69.1883Z" class="pr-icon-iso-duotone-primary-stroke" stroke-linejoin="round"/>
    <path d="M87.9197 39.7382V50.4882L77.2197 55.8382L76.5197 56.1882L68.7598 60.0682H68.7498L67.9197 60.4882V49.7382C67.9197 48.8182 67.7997 47.8782 67.5597 46.9182C67.5497 46.8582 67.5298 46.7881 67.4998 46.7181C67.1698 45.4381 66.6097 44.1282 65.8397 42.7982C65.1997 41.6982 64.4997 40.7381 63.7397 39.9081L63.7197 39.8782H63.7097L63.6997 39.8481H63.6897C62.8297 38.9081 61.8697 38.1281 60.8397 37.5381L52.8097 32.8982L51.4697 32.1182L53.6097 31.0482L59.8597 27.9182H59.8698L60.1597 27.7682L71.4697 22.1182L80.8397 27.5381C82.7897 28.6581 84.4497 30.4182 85.8397 32.7982C87.2297 35.1882 87.9197 37.5082 87.9197 39.7382Z" class="pr-icon-iso-duotone-primary-stroke" stroke-linejoin="round"/>
    <path d="M54.88 53.2579L48.46 56.4678L48.08 56.5679L43.25 57.8179L47.5299 55.6779L53.71 52.5879L54.88 53.2579Z" class="pr-icon-iso-duotone-primary-stroke" stroke-linejoin="round"/>
    <path d="M53.71 52.5884L47.5299 55.6784L43.25 57.8184L45.2799 52.0884L45.51 51.9684L50.1599 49.6484L50.4099 50.6884L53.71 52.5884Z" class="pr-icon-iso-duotone-primary-stroke" stroke-linejoin="round"/>
    <path d="M50.1595 49.638L45.5096 51.958L45.2795 52.078L40.0596 44.708L43.3696 46.618L46.5195 48.428L49.5096 46.928L50.1595 49.638Z" class="pr-icon-iso-duotone-primary-stroke" stroke-linejoin="round"/>
    <path d="M57.3094 67.6882V67.9582C57.3094 73.6482 55.5795 77.4482 52.1295 79.3782C51.9095 79.4982 51.6895 79.6182 51.4695 79.7182C48.1595 81.2482 44.2095 80.6882 39.6195 78.0482C34.6695 75.1882 30.4895 70.8082 27.0695 64.9082C23.6495 59.0082 21.9395 53.2182 21.9395 47.5382C21.9395 42.2682 23.4495 38.5982 26.4595 36.5382C26.6595 36.3982 26.8595 36.2682 27.0695 36.1482C30.3495 34.2382 34.3394 34.5682 39.0394 37.1382L36.6195 38.3582L36.0695 38.6282C35.5295 38.9182 35.0295 39.2982 34.5795 39.7682C33.0495 41.3582 32.2794 43.7082 32.2794 46.8182C32.2794 50.8782 33.4894 54.9882 35.9094 59.1582C38.3294 63.3282 41.2995 66.4282 44.8395 68.4782C47.8495 70.2082 50.4695 70.6882 52.7095 69.9282C52.9795 69.8382 53.2295 69.7282 53.4695 69.6082L53.5095 69.5882L57.3094 67.6882Z" class="pr-icon-iso-duotone-primary-stroke" stroke-linejoin="round"/>
    <path d="M71.47 22.1187L60.1599 27.7688L59.87 27.9187H59.86L53.61 31.0487L51.47 32.1187L50.9299 31.1987L47.76 25.7787L44.5699 20.3288C43.8699 19.1788 43.09 18.1487 42.23 17.2487C41.38 16.3487 40.51 15.6488 39.62 15.1388C38.74 14.6288 37.87 14.3287 37.01 14.2387C36.16 14.1487 35.3799 14.2787 34.6699 14.6087L47.4199 8.23873L54.6699 4.60872C55.3799 4.27872 56.16 4.14873 57.01 4.23873C57.87 4.32873 58.74 4.62875 59.62 5.13875C60.51 5.64875 61.38 6.34873 62.23 7.24873C63.09 8.14873 63.8699 9.17875 64.5699 10.3288L71.47 22.1187Z" class="pr-icon-iso-duotone-primary-stroke" stroke-linejoin="round"/>
    <path d="M47.4198 8.23834L34.6698 14.6083L31.3298 16.4584L27.7698 18.4384L18.3998 13.0283C16.6598 12.0283 15.1398 11.7883 13.8398 12.3083L33.3998 2.52832C34.7898 1.73832 36.4598 1.90832 38.3998 3.02832L47.4198 8.23834Z" class="pr-icon-iso-duotone-primary-stroke" stroke-linejoin="round"/>
</svg>