<svg width="48" height="48" viewBox="0 0 87 99" class="pr-icon-iso-duotone-secondary" xmlns="http://www.w3.org/2000/svg"
     stroke-width="1px" stroke-linecap="round" stroke-linejoin="round">
    <path d="M10.6899 14.5779L12.09 13.8779C11.61 14.0779 11.1499 14.3179 10.6899 14.5779Z" class="pr-icon-iso-duotone-primary-stroke" stroke-linejoin="round"/>
    <path d="M82.9897 73.2581C83.2797 73.2081 83.5498 73.0779 83.7898 72.8579L82.9897 73.2581Z" class="pr-icon-iso-duotone-primary-stroke" stroke-linejoin="round"/>
    <path d="M64.3698 79.9379L60.0999 58.1679C59.1899 53.4079 57.6798 48.758 55.5698 44.208C54.6798 42.298 53.6798 40.4078 52.5798 38.5278C51.7198 37.0678 50.7898 35.6279 49.7998 34.1879C48.3898 32.1379 46.9198 30.2179 45.3898 28.4379C41.2198 23.5479 36.6298 19.658 31.6198 16.768C28.8098 15.148 26.1398 13.9978 23.6198 13.3078C19.3698 12.1578 15.5198 12.3479 12.0898 13.8779L10.6898 14.5778C4.93982 17.8478 2.06982 24.1979 2.06982 33.6179C2.06982 38.4479 2.92985 43.5479 4.65985 48.9079C6.37985 54.2679 8.7998 59.4778 11.9198 64.5378V76.978C11.9198 78.038 12.2398 79.118 12.8698 80.208C13.4898 81.288 14.2698 82.0979 15.1998 82.6379L38.1898 95.9079C39.1198 96.4379 39.8898 96.5279 40.5198 96.1679C41.1498 95.8179 41.4698 95.0978 41.4698 94.0278V90.268L46.4998 93.1779L48.0298 94.0578C49.8398 95.0978 51.3898 95.258 52.6698 94.518C53.9598 93.788 54.5999 92.3878 54.5999 90.3178V79.008L61.1698 82.7978C61.2698 82.8578 61.3698 82.918 61.4698 82.958C62.4198 83.438 63.1999 83.3879 63.7899 82.8579C64.0599 82.6179 64.2498 82.3079 64.3598 81.9379C64.5298 81.4079 64.5298 80.7379 64.3698 79.9379ZM33.9598 69.7778C33.5998 69.9878 33.1898 70.038 32.7298 69.958C32.3898 69.888 32.0198 69.738 31.6198 69.508C30.6898 68.978 29.9098 68.1578 29.2798 67.0778C28.6498 65.9878 28.3398 64.9178 28.3398 63.8478C28.3398 62.7778 28.6498 62.068 29.2798 61.708C29.9098 61.348 30.6898 61.438 31.6198 61.978C31.7198 62.038 31.8198 62.0979 31.9198 62.1679C32.7198 62.6979 33.3998 63.4479 33.9598 64.4079C34.5898 65.4979 34.8998 66.5679 34.8998 67.6379C34.8998 68.7079 34.5898 69.4178 33.9598 69.7778ZM40.3198 50.1379C39.7698 50.9579 38.6198 51.9579 36.8698 53.1379C36.1098 53.6379 35.5498 54.1479 35.1898 54.6679C34.8298 55.1879 34.5699 55.7679 34.4099 56.4279C34.2499 57.1479 33.8998 57.598 33.3798 57.768C32.9198 57.918 32.4398 57.8679 31.9198 57.6179C31.8498 57.5879 31.7698 57.548 31.6998 57.508C30.9898 57.088 30.3998 56.4679 29.9398 55.6379C29.4698 54.8079 29.2898 54.0378 29.3998 53.3478C29.5198 52.5278 29.7098 51.818 29.9898 51.218C30.0898 50.978 30.2099 50.7578 30.3499 50.5478C30.8099 49.8478 31.5599 49.168 32.5999 48.508C33.9699 47.668 34.8899 46.9278 35.3499 46.2878C35.8199 45.6478 36.0498 44.8178 36.0498 43.8178C36.0498 42.6178 35.6498 41.418 34.8598 40.208C34.0698 38.998 33.0698 38.0478 31.8698 37.3478C31.0998 36.9078 30.3598 36.6879 29.6498 36.6779C29.2098 36.6779 28.7899 36.7679 28.4099 36.9379L28.2498 37.018C28.0798 37.108 27.9198 37.2078 27.7598 37.3378C27.3198 37.7678 26.8198 37.9378 26.2398 37.8278C25.6698 37.7078 25.0798 37.3279 24.4798 36.6679C24.1898 36.3379 23.9298 35.9879 23.6998 35.6179C23.4698 35.2279 23.2798 34.8179 23.1198 34.3779C22.8798 33.6779 22.8398 33.1179 23.0198 32.6979C23.0598 32.5979 23.1098 32.4979 23.1698 32.4179C24.0998 31.2579 25.3398 30.6478 26.8998 30.5778C28.4598 30.4978 30.1098 30.968 31.8698 31.978C32.8098 32.528 33.6998 33.1579 34.5298 33.8779C36.0198 35.1479 37.3298 36.6978 38.4698 38.5278C40.2498 41.3778 41.1398 44.118 41.1398 46.758C41.1398 48.198 40.8698 49.3279 40.3198 50.1379Z" class="pr-icon-iso-duotone-primary-stroke" stroke-linejoin="round"/>
    <path d="M34.8998 67.6379C34.8998 68.7079 34.5898 69.4178 33.9598 69.7778C33.5998 69.9878 33.1898 70.0379 32.7298 69.9579C32.3898 69.8879 32.0198 69.738 31.6198 69.508C30.6898 68.978 29.9098 68.1578 29.2798 67.0778C28.6498 65.9878 28.3398 64.9178 28.3398 63.8478C28.3398 62.7778 28.6498 62.0679 29.2798 61.7079C29.9098 61.3479 30.6898 61.438 31.6198 61.978C31.7198 62.038 31.8198 62.0979 31.9198 62.1679C32.7198 62.6979 33.3998 63.4479 33.9598 64.4079C34.5898 65.4979 34.8998 66.5679 34.8998 67.6379Z" class="pr-icon-iso-duotone-primary-stroke" stroke-linejoin="round"/>
    <path d="M41.1399 46.7581C41.1399 48.1981 40.8699 49.3279 40.3199 50.1379C39.7699 50.9579 38.6199 51.9579 36.8699 53.1379C36.1099 53.6379 35.5499 54.148 35.1899 54.668C34.8299 55.188 34.5699 55.768 34.4099 56.428C34.2499 57.148 33.8999 57.5981 33.3799 57.7681C32.9199 57.9181 32.4399 57.8679 31.9199 57.6179C31.8499 57.5879 31.7699 57.5481 31.6999 57.5081C30.9899 57.0881 30.3999 56.4679 29.9399 55.6379C29.4699 54.8079 29.2899 54.0379 29.3999 53.3479C29.5199 52.5279 29.7099 51.818 29.9899 51.218C30.0899 50.978 30.2099 50.7579 30.3499 50.5479C30.8099 49.8479 31.5599 49.1681 32.5999 48.5081C33.9699 47.6681 34.8899 46.9278 35.3499 46.2878C35.8199 45.6478 36.0499 44.8179 36.0499 43.8179C36.0499 42.6179 35.6499 41.418 34.8599 40.208C34.0699 38.998 33.0699 38.0479 31.8699 37.3479C31.0999 36.9079 30.3599 36.688 29.6499 36.678C29.2099 36.678 28.7899 36.768 28.4099 36.938L34.5299 33.8779C36.0199 35.1479 37.3299 36.6978 38.4699 38.5278C40.2499 41.3778 41.1399 44.1181 41.1399 46.7581Z" class="pr-icon-iso-duotone-primary-stroke" stroke-linejoin="round"/>
    <path d="M34.5298 33.8779L28.4098 36.9379L28.2498 37.018C28.0798 37.108 27.9198 37.2078 27.7598 37.3378C27.3198 37.7678 26.8198 37.9378 26.2398 37.8278C25.6698 37.7078 25.0798 37.3279 24.4798 36.6679C24.1898 36.3379 23.9298 35.9879 23.6998 35.6179C23.4698 35.2279 23.2798 34.8179 23.1198 34.3779C22.8798 33.6779 22.8398 33.1179 23.0198 32.6979C23.0598 32.5979 23.1098 32.4979 23.1698 32.4179C24.0998 31.2579 25.3398 30.6478 26.8998 30.5778C28.4598 30.4978 30.1098 30.968 31.8698 31.978C32.8098 32.528 33.6998 33.1579 34.5298 33.8779Z" class="pr-icon-iso-duotone-primary-stroke" stroke-linejoin="round"/>
    <path d="M74.6 77.458V80.3179C74.6 82.3879 73.9599 83.7881 72.6699 84.5181L72.2599 84.718L52.6699 94.5181C53.9599 93.7881 54.6 92.3879 54.6 90.3179V79.0081L61.1699 82.7979C61.2699 82.8579 61.37 82.918 61.47 82.958C62.42 83.438 63.2 83.3879 63.79 82.8579L64.95 82.2778L74.6 77.458Z" class="pr-icon-iso-duotone-primary-stroke" stroke-linejoin="round"/>
    <path d="M83.7899 72.8578L82.9898 73.2579L74.5999 77.4579L64.9498 82.2777L63.7899 82.8578C64.0599 82.6178 64.2498 82.3079 64.3598 81.9379C64.5298 81.4079 64.5298 80.7379 64.3698 79.9379L60.0999 58.1679C59.1899 53.4079 57.6798 48.7579 55.5698 44.2079C54.6798 42.2979 53.6798 40.4077 52.5798 38.5277C51.7198 37.0677 50.7898 35.6279 49.7998 34.1879C48.3898 32.1379 46.9198 30.2179 45.3898 28.4379C41.2198 23.5479 36.6298 19.658 31.6198 16.768C28.8098 15.148 26.1398 13.9978 23.6198 13.3078C19.3698 12.1578 15.5198 12.3478 12.0898 13.8778L30.6898 4.57778C36.4398 1.29778 43.4098 2.02796 51.6198 6.76796C58.4598 10.718 64.5198 16.5279 69.7998 24.1879C75.0798 31.8479 78.5099 39.8479 80.0999 48.1679L84.3698 69.9379C84.6398 71.2879 84.4499 72.2678 83.7899 72.8578Z" class="pr-icon-iso-duotone-primary-stroke" stroke-linejoin="round"/>
    <path d="M46.4998 93.178L40.5198 96.168C41.1498 95.818 41.4698 95.0978 41.4698 94.0278V90.2681L46.4998 93.178Z" class="pr-icon-iso-duotone-primary-stroke" stroke-linejoin="round"/>
</svg>