<svg width="48" height="48" viewBox="0 0 101 123" fill="#c8e7ff" xmlns="http://www.w3.org/2000/svg" stroke-width="1px" stroke-linecap="round" stroke-linejoin="round"><path d="M7.75 18.0307L10.81 16.5007C9.73 16.8407 8.71 17.3507 7.75 18.0307Z" stroke="#229EFF" stroke-linejoin="round"/><path d="M27.17 92.4808C26.98 93.0008 26.69 93.3807 26.3 93.6107L25.92 93.8007C25.7 93.8807 25.4699 93.9207 25.2099 93.9307C24.2599 93.9607 23.29 93.4907 22.3 92.5207C21.31 91.5507 20.57 90.3708 20.06 88.9808L14.3299 72.5407C13.8199 71.1507 13.7399 69.9907 14.0899 69.0607C14.3499 68.3807 14.76 67.9407 15.35 67.7407L15.39 67.7207C15.59 67.6607 15.81 67.6207 16.05 67.6107C17 67.5807 17.9699 68.0507 18.9599 69.0207C19.9499 69.9907 20.69 71.1707 21.2 72.5607L26.93 89.0107C27.44 90.4007 27.52 91.5508 27.17 92.4808Z" stroke="#229EFF" stroke-linejoin="round"/><path d="M92.97 108.931C92.62 109.861 91.97 110.341 91.02 110.371L72.02 120.111C72.45 119.881 72.76 119.481 72.97 118.931C73.32 118.001 73.24 116.841 72.73 115.451L67.01 99.0109C66.9 98.7109 66.77 98.4109 66.64 98.1309C66.16 97.1109 65.53 96.2309 64.77 95.4709C63.78 94.5009 62.81 94.0309 61.86 94.0609C61.53 94.0709 61.24 94.1309 60.99 94.2509L63.33 93.0808L66.92 91.2909C67.85 91.5009 68.74 91.5909 69.6 91.5709C71.12 91.5409 72.52 91.1509 73.83 90.4109L79.75 87.4508L84.39 85.1309C84.52 85.2309 84.64 85.3509 84.77 85.4709C85.75 86.4409 86.5 87.6209 87.01 89.0109L92.73 105.451C93.24 106.841 93.32 108.001 92.97 108.931Z" stroke="#229EFF" stroke-linejoin="round"/><path d="M66.92 91.2907L63.33 93.0807L60.99 94.2507L60.87 94.3107C60.43 94.5407 60.11 94.9407 59.9 95.5007C59.55 96.4307 59.63 97.5907 60.14 98.9807L60.85 101.021L49.19 106.851C49.58 106.611 49.87 106.231 50.07 105.711C50.42 104.781 50.34 103.621 49.83 102.231L44.11 85.7807C44 85.4807 43.87 85.1807 43.74 84.9007C43.26 83.8807 42.63 83.0007 41.86 82.2407C40.88 81.2707 39.91 80.8007 38.95 80.8407C38.64 80.8507 38.37 80.9107 38.13 81.0107L40.43 79.8607L43.21 78.4707L47.36 80.8707L61.66 89.1307C61.75 89.1807 61.85 89.2407 61.94 89.2807C63.7 90.2807 65.36 90.9507 66.92 91.2907Z" stroke="#229EFF" stroke-linejoin="round"/><path d="M98.84 69.3407C98.84 74.8107 97.17 78.5008 93.83 80.4108L93.03 80.8107L79.75 87.4507L73.83 90.4108C75.59 89.4008 76.89 87.9007 77.72 85.8907C78.47 84.1007 78.84 81.9307 78.84 79.3407C78.84 78.7207 78.82 78.0907 78.77 77.4607C78.46 72.8807 76.99 68.1807 74.36 63.3907C71.37 57.9407 67.68 53.7307 63.29 50.7607L83.29 40.7607C87.68 43.7307 91.37 47.9407 94.36 53.3907C97.35 58.8407 98.84 64.1607 98.84 69.3407Z" stroke="#229EFF" stroke-linejoin="round"/><path d="M78.84 79.3408C78.84 81.9308 78.47 84.1008 77.72 85.8908C76.89 87.9008 75.59 89.4008 73.83 90.4108C72.52 91.1508 71.12 91.5408 69.6 91.5708C68.74 91.5908 67.85 91.5008 66.92 91.2908C65.36 90.9508 63.7 90.2808 61.94 89.2808C61.85 89.2408 61.75 89.1808 61.66 89.1308L47.36 80.8708L43.21 78.4708L39.05 76.0708L23.49 67.0908C22.47 66.5008 21.48 65.8608 20.52 65.1508C15.99 61.8608 12.04 57.3008 8.64999 51.4608C4.54999 44.3808 2.5 37.5208 2.5 30.8808C2.5 24.8208 4.25 20.5408 7.75 18.0308L10.81 16.5008C13.68 15.6108 16.98 15.9508 20.73 17.5308C21.47 16.4508 22.31 15.5408 23.24 14.8108C23.87 14.3108 24.54 13.9008 25.27 13.5608L25.42 13.4908C26.53 12.9908 27.75 12.6808 29.08 12.5508C32.61 12.2208 36.47 13.2608 40.67 15.6908C46.4 18.9908 51.37 23.9708 55.6 30.6108C59.84 37.2508 62.4 43.9608 63.29 50.7608C67.68 53.7308 71.37 57.9408 74.36 63.3908C76.99 68.1808 78.46 72.8808 78.77 77.4608C78.82 78.0908 78.84 78.7208 78.84 79.3408Z" stroke="#229EFF" stroke-linejoin="round"/><path d="M83.29 40.7608L63.29 50.7608C62.4 43.9608 59.84 37.2508 55.6 30.6108C51.37 23.9708 46.4 18.9908 40.67 15.6908C36.47 13.2608 32.61 12.2208 29.08 12.5508C27.75 12.6808 26.53 12.9908 25.42 13.4908L38.77 6.81079L44.74 3.82078C46.03 3.13078 47.48 2.70079 49.08 2.55079C52.61 2.22079 56.47 3.26079 60.67 5.69079C66.4 8.99079 71.37 13.9708 75.6 20.6108C79.84 27.2508 82.4 33.9608 83.29 40.7608Z" stroke="#229EFF" stroke-linejoin="round"/><path d="M38.77 6.81069L25.42 13.4907L25.27 13.5607C24.54 13.9007 23.87 14.3107 23.24 14.8007C22.31 15.5407 21.47 16.4507 20.73 17.5307C16.98 15.9507 13.68 15.6107 10.81 16.5007L27.75 8.03069C30.8 5.85069 34.46 5.44069 38.77 6.81069Z" stroke="#229EFF" stroke-linejoin="round"/><path d="M72.97 118.931C72.76 119.481 72.45 119.881 72.02 120.111L71.89 120.181C71.64 120.301 71.35 120.361 71.02 120.371C70.06 120.411 69.09 119.941 68.11 118.971C67.12 118.001 66.37 116.821 65.86 115.431L60.85 101.021L60.14 98.9809C59.63 97.5909 59.55 96.4309 59.9 95.5009C60.11 94.9409 60.43 94.5409 60.87 94.3109L60.99 94.2509C61.24 94.1309 61.53 94.0709 61.86 94.0609C62.81 94.0309 63.78 94.5009 64.77 95.4709C65.53 96.2309 66.16 97.1109 66.64 98.1309C66.77 98.4109 66.9 98.7109 67.01 99.0109L72.73 115.451C73.24 116.841 73.32 118.001 72.97 118.931Z" stroke="#229EFF" stroke-linejoin="round"/><path d="M50.07 105.711C49.87 106.231 49.58 106.611 49.19 106.851L49.11 106.891C48.83 107.061 48.49 107.141 48.11 107.151C47.16 107.181 46.19 106.721 45.2 105.741C44.22 104.771 43.47 103.591 42.96 102.211L37.94 87.8007L37.23 85.7607C36.73 84.3707 36.65 83.2107 37 82.2807C37.23 81.6707 37.59 81.2507 38.09 81.0307L38.13 81.0107C38.37 80.9107 38.64 80.8507 38.95 80.8407C39.91 80.8007 40.88 81.2707 41.86 82.2407C42.63 83.0007 43.26 83.8807 43.74 84.9007C43.87 85.1807 44 85.4807 44.11 85.7807L49.8299 102.231C50.3399 103.621 50.42 104.781 50.07 105.711Z" stroke="#229EFF" stroke-linejoin="round"/><path d="M43.21 78.4709L40.43 79.8609L38.13 81.0109L38.09 81.0309C37.59 81.2509 37.23 81.6709 37 82.2809C36.65 83.2109 36.73 84.3709 37.23 85.7609L37.94 87.8009L26.3 93.6109C26.69 93.3809 26.98 93.0009 27.17 92.4809C27.52 91.5509 27.44 90.4009 26.93 89.0109L21.2 72.5609C20.69 71.1709 19.95 69.9909 18.96 69.0209C17.97 68.0509 17 67.5809 16.05 67.6109C15.81 67.6109 15.59 67.6609 15.39 67.7209L20.52 65.1509C21.48 65.8609 22.47 66.5009 23.49 67.0909L39.05 76.0709L43.21 78.4709Z" stroke="#229EFF" stroke-linejoin="round"/></svg>