<svg width="24" height="24" viewBox="0 0 112 126" class="pr-icon-iso-duotone-secondary" xmlns="http://www.w3.org/2000/svg" stroke-width="1px" stroke-linecap="round" stroke-linejoin="round">
    <path d="M89.8502 102.42V119.56C89.8502 121.18 89.3802 122.26 88.4202 122.81C87.4702 123.35 86.2802 123.22 84.8702 122.4C83.4602 121.59 82.2802 120.36 81.3202 118.71C80.3702 117.06 79.8902 115.43 79.8902 113.81V96.6602C79.8902 91.9002 78.4402 87.0102 75.5302 82.0002C72.6302 76.9902 69.1002 73.2902 64.9502 70.8902L55.0202 65.1602L43.9502 58.7602L19.2502 44.5002L33.6902 69.4202C34.6902 71.1402 35.1702 72.7502 35.1202 74.2502C35.0802 75.7502 34.5602 76.7802 33.5702 77.3502C32.5702 77.8202 31.4102 77.7002 30.0802 76.9802C28.7502 76.2602 27.5902 75.0402 26.5902 73.3202L3.68018 33.8002C2.69018 32.0802 2.19019 30.4602 2.19019 28.9402C2.19019 27.4202 2.69018 26.3702 3.68018 25.8002L26.5902 12.7402L26.8702 12.6002C27.5202 12.3402 28.2602 12.3702 29.1102 12.7002C29.4002 12.8102 29.7102 12.9602 30.0202 13.1402C31.3902 13.9302 32.5702 15.1402 33.5702 16.7602C34.5602 18.4802 35.0602 20.1302 35.0602 21.7002C35.0602 23.2702 34.5602 24.3402 33.5702 24.9102L26.6202 28.8702L19.2502 33.0702L33.9902 41.5802L48.0602 49.7102L64.9502 59.4602C71.8402 63.4402 77.7102 69.6102 82.5702 77.9902C87.4302 86.3702 89.8502 94.5102 89.8502 102.42Z" class="pr-icon-iso-duotone-primary-stroke" stroke-miterlimit="10" stroke-linejoin="round"/>
    <path d="M55.0602 11.7001C55.0602 13.2701 54.5603 14.3401 53.5703 14.9101L39.2502 23.0701L26.8502 29.2701L19.2502 33.0701L26.6202 28.8701L33.5703 24.9101C34.5603 24.3401 35.0602 23.2701 35.0602 21.7001C35.0602 20.1301 34.5603 18.4801 33.5703 16.7601C32.5703 15.1401 31.3903 13.9301 30.0203 13.1401C29.7103 12.9601 29.4002 12.8101 29.1102 12.7001C28.2602 12.3701 27.5202 12.3401 26.8702 12.6001L46.5903 2.74007C47.5103 2.22007 48.6503 2.35007 50.0203 3.14007C51.3903 3.93007 52.5703 5.14007 53.5703 6.76007C54.5603 8.48007 55.0602 10.1301 55.0602 11.7001Z" class="pr-icon-iso-duotone-primary-stroke" stroke-miterlimit="10" stroke-linejoin="round"/>
    <path d="M55.0203 65.16C54.8303 66.18 54.3403 66.9 53.5703 67.35L33.5703 77.35C34.5603 76.78 35.0802 75.75 35.1202 74.25C35.1702 72.75 34.6902 71.14 33.6902 69.42L19.2502 44.5L43.9503 58.76L55.0203 65.16Z" class="pr-icon-iso-duotone-primary-stroke" stroke-miterlimit="10" stroke-linejoin="round"/>
    <path d="M109.85 92.4203V109.56C109.85 111.18 109.38 112.26 108.42 112.81L108.13 112.95L88.4202 122.81C89.3802 122.26 89.8502 121.18 89.8502 119.56V102.42C89.8502 94.5103 87.4303 86.3703 82.5703 77.9903C77.7103 69.6103 71.8403 63.4403 64.9503 59.4603L48.0602 49.7103L33.9902 41.5803L19.2502 33.0703L26.8502 29.2703L39.2502 23.0703L84.9503 49.4603C91.8403 53.4403 97.7103 59.6103 102.57 67.9903C107.43 76.3703 109.85 84.5103 109.85 92.4203Z" class="pr-icon-iso-duotone-primary-stroke" stroke-miterlimit="10" stroke-linejoin="round"/>
</svg>