<svg width="24" height="24" viewBox="0 0 94 121" class="pr-icon-iso-duotone-secondary" xmlns="http://www.w3.org/2000/svg" stroke-width="1px" stroke-linecap="round" stroke-linejoin="round">
    <path d="M70.7098 112.06L48.7398 74.1601C50.3098 72.8201 51.5498 70.9501 52.4598 68.5501C52.6798 67.9801 52.8698 67.3701 53.0398 66.7501C53.5698 64.7601 53.8398 62.5101 53.8398 60.0001C53.8398 59.2501 53.8198 58.5101 53.7698 57.7601C53.6598 55.6801 53.3898 53.5901 52.9498 51.4801C52.6398 49.9401 52.2398 48.3901 51.7498 46.8401C51.3498 45.5601 50.8898 44.2601 50.3698 42.9701C49.2998 40.3201 47.9898 37.6501 46.4298 34.9601C46.4198 34.9401 46.4098 34.9201 46.3998 34.9001C44.4198 31.4801 42.2498 28.4301 39.9098 25.7201C39.8898 25.7001 39.8698 25.6701 39.8498 25.6501C37.3798 22.8001 34.7198 20.3501 31.8498 18.3001C30.7098 17.4701 29.5398 16.7201 28.3398 16.0201C26.6798 15.0601 25.0898 14.2901 23.5498 13.7101C18.9698 11.9801 14.9198 11.9001 11.3898 13.5001L10.2398 14.0701C5.30981 16.8801 2.83984 22.3801 2.83984 30.5601C2.83984 38.7401 5.30981 47.0801 10.2398 55.6001C15.1798 64.1101 21.2098 70.4201 28.3398 74.5401C31.2098 76.2001 33.9298 77.2401 36.4798 77.6601C39.0298 78.0901 41.2798 77.9601 43.2398 77.2901L65.2098 115.19C65.9298 116.43 66.8498 117.37 67.9598 118.01C69.0698 118.65 69.9898 118.77 70.7098 118.36C71.4198 117.95 71.7798 117.11 71.7798 115.83C71.7798 114.55 71.4198 113.3 70.7098 112.06ZM44.8198 62.2601C43.9598 64.2901 42.6398 65.8201 40.8398 66.8501C37.4098 68.8001 33.2398 68.3701 28.3398 65.5401C23.4298 62.7101 19.2698 58.3301 15.8298 52.4101C12.3998 46.4901 10.6798 40.7101 10.6798 35.0901C10.6798 29.4701 12.3998 25.6701 15.8298 23.7101C17.9198 22.5201 20.2798 22.2101 22.9098 22.8001C24.6098 23.1701 26.4198 23.9101 28.3398 25.0201C29.1498 25.4901 29.9498 26.0101 30.7198 26.5701C31.1698 26.8901 31.6098 27.2201 32.0398 27.5801C32.0898 27.6101 32.1298 27.6501 32.1798 27.6901C32.6498 28.0701 33.1198 28.4701 33.5698 28.8901C36.1898 31.2901 38.5398 34.2601 40.6198 37.7901C40.6998 37.9101 40.7698 38.0301 40.8398 38.1501C41.1898 38.7601 41.5198 39.3601 41.8298 39.9601C42.4298 41.1001 42.9598 42.2401 43.4298 43.3701C43.7898 44.2401 44.1198 45.1001 44.3998 45.9601C45.2898 48.6701 45.8098 51.3401 45.9498 53.9801C45.9698 54.3101 45.9798 54.6401 45.9798 54.9601C45.9898 55.1301 45.9898 55.3001 45.9898 55.4701C45.9898 58.1501 45.5998 60.4101 44.8198 62.2601Z" class="pr-icon-iso-duotone-primary-stroke" stroke-linejoin="round"/>
    <path d="M33.5696 28.8901L31.1296 30.1101L27.6595 31.8401L27.5995 31.8701C27.4895 31.9301 27.4096 32.0501 27.3596 32.2201L25.9196 36.5701L25.1996 38.7401L18.4296 34.8301C18.3296 34.7801 18.2495 34.7301 18.1595 34.7001H18.1496C18.0196 34.6601 17.9096 34.6601 17.8096 34.6901L24.2796 31.4601L30.8495 28.1701L32.0396 27.5801C32.0396 27.5801 32.1296 27.6501 32.1796 27.6901C32.6496 28.0701 33.1196 28.4701 33.5696 28.8901Z" class="pr-icon-iso-duotone-primary-stroke" stroke-linejoin="round"/>
    <path d="M40.6197 37.7901L34.8697 40.6701L31.4797 42.3601L29.3197 33.3501C29.1897 32.7501 28.8597 32.3001 28.3397 32.0001C28.0497 31.8401 27.8297 31.7801 27.6597 31.8401L31.1297 30.1101L33.5697 28.8901C36.1897 31.2901 38.5397 34.2601 40.6197 37.7901Z" class="pr-icon-iso-duotone-primary-stroke" stroke-linejoin="round"/>
    <path d="M45.9797 54.9602L39.7997 58.0602L35.1097 60.4002C35.3397 60.2302 35.3997 59.9102 35.2997 59.4302L33.2397 50.5902L33.3998 50.5402L38.9297 48.6902L39.8497 48.2302L44.3998 45.9602C45.2898 48.6702 45.8098 51.3402 45.9498 53.9802C45.9698 54.3102 45.9797 54.6402 45.9797 54.9602Z" class="pr-icon-iso-duotone-primary-stroke" stroke-linejoin="round"/>
    <path d="M39.8496 25.6501C39.8496 25.6501 39.8896 25.7001 39.9096 25.7201L39.9396 25.7001L39.8496 25.6501Z" class="pr-icon-iso-duotone-primary-stroke" stroke-linejoin="round"/>
    <path d="M44.3995 45.96L39.8495 48.23L38.9295 48.69C39.2595 48.51 39.3395 48.12 39.1695 47.54C39.1395 47.43 39.0995 47.33 39.0595 47.23C38.9195 46.89 38.7195 46.62 38.4495 46.42C38.3895 46.36 38.3195 46.31 38.2395 46.27L31.4795 42.36L34.8695 40.67L40.6195 37.79C40.6995 37.91 40.7695 38.03 40.8395 38.15C41.1895 38.76 41.5195 39.36 41.8295 39.96C42.4295 41.1 42.9595 42.24 43.4295 43.37C43.7895 44.24 44.1195 45.1 44.3995 45.96Z" class="pr-icon-iso-duotone-primary-stroke" stroke-linejoin="round"/>
    <path d="M38.9299 48.6902L33.3999 50.5402L33.2399 50.5902L35.2999 59.4302C35.3999 59.9102 35.3399 60.2302 35.1099 60.4002L34.9099 60.5002C34.5199 60.6102 34.1199 60.3602 33.7299 59.7602L28.34 51.8102L22.9399 53.5302C22.5499 53.6802 22.1599 53.4702 21.7699 52.9102C21.3699 52.3402 21.2399 51.8402 21.3699 51.3902L23.4299 44.9202L17.7399 36.4602C17.4199 35.9002 17.3399 35.4202 17.4999 35.0302C17.5499 34.8902 17.6299 34.7902 17.7299 34.7302L17.8099 34.6902C17.9099 34.6602 18.0199 34.6602 18.1499 34.7002H18.1599C18.2499 34.7302 18.3299 34.7802 18.4299 34.8302L25.1999 38.7402L25.9199 36.5702L27.3599 32.2202C27.4099 32.0502 27.4899 31.9302 27.5999 31.8702L27.6599 31.8402C27.8299 31.7802 28.05 31.8402 28.34 32.0002C28.86 32.3002 29.1899 32.7502 29.3199 33.3502L31.4799 42.3602L38.2399 46.2702C38.3199 46.3102 38.3899 46.3602 38.4499 46.4202C38.7199 46.6202 38.9199 46.8902 39.0599 47.2302C39.0999 47.3302 39.1399 47.4302 39.1699 47.5402C39.3399 48.1202 39.2599 48.5102 38.9299 48.6902Z" class="pr-icon-iso-duotone-primary-stroke" stroke-linejoin="round"/>
    <path d="M45.9897 55.4701C45.9897 58.1501 45.5997 60.4101 44.8197 62.2601C43.9597 64.2901 42.6397 65.8201 40.8397 66.8501C37.4097 68.8001 33.2397 68.3701 28.3397 65.5401C23.4297 62.7101 19.2697 58.3301 15.8297 52.4101C12.3997 46.4901 10.6797 40.7101 10.6797 35.0901C10.6797 29.4701 12.3997 25.6701 15.8297 23.7101C17.9197 22.5201 20.2797 22.2101 22.9097 22.8001C24.6097 23.1701 26.4197 23.9101 28.3397 25.0201C29.1497 25.4901 29.9497 26.0101 30.7197 26.5701C30.7497 27.1001 30.7897 27.6301 30.8497 28.1701L24.2797 31.4601L17.8097 34.6901L17.7297 34.7301C17.6297 34.7901 17.5497 34.8901 17.4997 35.0301C17.3397 35.4201 17.4197 35.9001 17.7397 36.4601L23.4297 44.9201L21.3697 51.3901C21.2397 51.8401 21.3697 52.3401 21.7697 52.9101C22.1597 53.4701 22.5497 53.6801 22.9397 53.5301L28.3397 51.8101L33.7297 59.7601C34.1197 60.3601 34.5197 60.6101 34.9097 60.5001L35.1097 60.4001L39.7997 58.0601L45.9797 54.9601C45.9897 55.1301 45.9897 55.3001 45.9897 55.4701Z" class="pr-icon-iso-duotone-primary-stroke" stroke-linejoin="round"/>
    <path d="M73.8397 50.0001C73.8397 53.3001 73.3797 56.1501 72.4597 58.5501C71.5497 60.9501 70.3096 62.8201 68.7396 64.1601L61.6896 67.6801L48.7396 74.1601C50.3096 72.8201 51.5497 70.9501 52.4597 68.5501C52.6797 67.9801 52.8696 67.3701 53.0396 66.7501C53.5696 64.7601 53.8397 62.5101 53.8397 60.0001C53.8397 59.2501 53.8197 58.5101 53.7697 57.7601C53.6597 55.6801 53.3896 53.5901 52.9496 51.4801C52.6396 49.9401 52.2396 48.3901 51.7496 46.8401C51.3496 45.5601 50.8896 44.2601 50.3696 42.9701C49.2996 40.3201 47.9896 37.6501 46.4296 34.9601C46.4196 34.9401 46.4097 34.9201 46.3997 34.9001C44.4197 31.4801 42.2496 28.4301 39.9096 25.7201L39.9396 25.7001L39.8496 25.6501C37.3796 22.8001 34.7196 20.3501 31.8496 18.3001C30.7096 17.4701 29.5397 16.7201 28.3397 16.0201C26.6797 15.0601 25.0896 14.2901 23.5496 13.7101C18.9696 11.9801 14.9196 11.9001 11.3896 13.5001L30.2396 4.07014C35.1796 1.25014 41.2097 1.90014 48.3397 6.02014C55.4597 10.1301 61.4996 16.4501 66.4296 24.9601C71.3696 33.4801 73.8397 41.8201 73.8397 50.0001Z" class="pr-icon-iso-duotone-primary-stroke" stroke-linejoin="round"/>
    <path d="M91.7798 105.83C91.7798 107.11 91.4198 107.95 90.7098 108.36L70.7098 118.36C71.4198 117.95 71.7798 117.11 71.7798 115.83C71.7798 114.55 71.4198 113.3 70.7098 112.06L48.7397 74.1602L61.6898 67.6802L68.7397 64.1602L90.7098 102.06C91.4198 103.3 91.7798 104.55 91.7798 105.83Z" class="pr-icon-iso-duotone-primary-stroke" stroke-linejoin="round"/>
</svg>