<svg width="24" height="24" viewBox="0 0 99 123" class="pr-icon-iso-duotone-secondary" xmlns="http://www.w3.org/2000/svg" stroke-width="1px" stroke-linecap="round" stroke-linejoin="round">
    <path d="M35.1516 70.8099C35.1516 75.9699 33.5516 79.4598 30.3416 81.2898C27.1416 83.1198 23.2917 82.7298 18.7917 80.1398C14.2917 77.5398 10.4417 73.4798 7.2417 67.9498C4.0317 62.4198 2.43164 57.0798 2.43164 51.9198C2.43164 46.7598 4.0317 43.2599 7.2417 41.4299L7.94165 41.0798C11.0017 39.6798 14.6117 40.1798 18.7917 42.5898C20.1417 43.3698 21.4316 44.2798 22.6616 45.3198C25.5416 47.7498 28.1016 50.8998 30.3416 54.7698C32.8516 59.0898 34.3716 63.2998 34.9216 67.3998C35.0716 68.5498 35.1516 69.6799 35.1516 70.8099Z" class="pr-icon-iso-duotone-primary-stroke" stroke-linejoin="round"/>
    <path d="M76.0503 108.5C76.0503 113.66 74.4502 117.16 71.2402 118.99C68.0402 120.81 64.1902 120.43 59.6902 117.83C55.1902 115.23 51.3401 111.17 48.1401 105.64C44.9301 100.12 43.3301 94.7697 43.3301 89.6097C43.3301 84.4497 44.9301 80.9496 48.1401 79.1296L49.1501 78.6296C52.1401 77.3996 55.6602 77.9497 59.6902 80.2797C61.0402 81.0597 62.3301 81.9697 63.5601 83.0197C66.4401 85.4497 69.0002 88.5997 71.2402 92.4697C73.7502 96.7897 75.2801 101 75.8201 105.1C75.9701 106.24 76.0503 107.38 76.0503 108.5Z" class="pr-icon-iso-duotone-primary-stroke" stroke-linejoin="round"/>
    <path d="M51.511 42.7097C51.511 44.0197 51.4109 45.2197 51.2009 46.3197C50.5909 49.5397 49.0909 51.8198 46.7009 53.1898C43.5009 55.0198 39.6509 54.6297 35.1509 52.0297C30.6509 49.4397 26.8008 45.3697 23.6008 39.8497C23.3008 39.3297 23.011 38.8097 22.741 38.2997C22.071 37.0397 21.491 35.7897 21.001 34.5497C19.521 30.8897 18.791 27.3098 18.791 23.8098C18.791 18.6498 20.3908 15.1597 23.6008 13.3297L24.301 12.9797C27.361 11.5697 30.9709 12.0797 35.1509 14.4897C36.5009 15.2697 37.791 16.1797 39.021 17.2197C41.901 19.6497 44.4609 22.7997 46.7009 26.6697C49.2109 30.9897 50.731 35.1997 51.281 39.2997C51.431 40.4497 51.511 41.5797 51.511 42.7097Z" class="pr-icon-iso-duotone-primary-stroke" stroke-linejoin="round"/>
    <path d="M71.5107 32.7098C71.5107 37.8698 69.9107 41.3599 66.7007 43.1899L66.0007 43.5398L52.9407 50.0698L46.7007 53.1899C49.0907 51.8199 50.5907 49.5398 51.2007 46.3198C51.4107 45.2198 51.5107 44.0198 51.5107 42.7098C51.5107 41.5798 51.4308 40.4499 51.2808 39.2999C50.7308 35.1999 49.2107 30.9899 46.7007 26.6699C44.4607 22.7999 41.9008 19.6498 39.0208 17.2198C37.7908 16.1798 36.5006 15.2699 35.1506 14.4899C30.9706 12.0799 27.3608 11.5699 24.3008 12.9799L43.6006 3.32983C46.8006 1.49983 50.6506 1.88986 55.1506 4.48986C59.6506 7.07986 63.5007 11.1499 66.7007 16.6699C69.9107 22.1999 71.5107 27.5398 71.5107 32.7098Z" class="pr-icon-iso-duotone-primary-stroke" stroke-linejoin="round"/>
    <path d="M55.1514 60.8098C55.1514 65.9698 53.5513 69.4598 50.3413 71.2898L49.3313 71.7898L30.3413 81.2898C33.5513 79.4598 35.1514 75.9698 35.1514 70.8098C35.1514 69.6798 35.0714 68.5498 34.9214 67.3998C34.3714 63.2998 32.8513 59.0898 30.3413 54.7698C28.1013 50.8998 25.5414 47.7498 22.6614 45.3198C21.4314 44.2798 20.1415 43.3698 18.7915 42.5898C14.6115 40.1798 11.0014 39.6798 7.94141 41.0798L21.0015 34.5498C21.4915 35.7898 22.0715 37.0398 22.7415 38.2998C23.0115 38.8098 23.3013 39.3298 23.6013 39.8498C26.8013 45.3698 30.6514 49.4398 35.1514 52.0298C39.6514 54.6298 43.5014 55.0198 46.7014 53.1898L52.9414 50.0698C54.4214 53.7298 55.1514 57.3098 55.1514 60.8098Z" class="pr-icon-iso-duotone-primary-stroke" stroke-linejoin="round"/>
    <path d="M96.0525 98.5C96.0525 103.66 94.4524 107.16 91.2424 108.99L71.2424 118.99C74.4524 117.16 76.0525 113.66 76.0525 108.5C76.0525 107.38 75.9723 106.24 75.8223 105.1C75.2823 101 73.7524 96.79 71.2424 92.47C69.0024 88.6 66.4423 85.4499 63.5623 83.0199C62.3323 81.9699 61.0424 81.06 59.6924 80.28C55.6624 77.95 52.1423 77.3999 49.1523 78.6299L68.1423 69.1299C71.3423 67.2999 75.1924 67.68 79.6924 70.28C84.1924 72.88 88.0424 76.94 91.2424 82.47C94.4524 87.99 96.0525 93.34 96.0525 98.5Z" class="pr-icon-iso-duotone-primary-stroke" stroke-linejoin="round"/>
</svg>