<svg width="24" height="24" viewBox="0 0 88 124" class="pr-icon-iso-duotone-secondary" xmlns="http://www.w3.org/2000/svg" stroke-width="1px" stroke-linecap="round" stroke-linejoin="round">
    <path d="M52 118.98C52 120.15 51.65 120.94 50.96 121.33C50.27 121.73 49.41 121.63 48.39 121.04C47.37 120.45 46.51 119.56 45.82 118.36C45.12 117.17 44.78 115.99 44.78 114.81C44.78 113.63 45.12 112.86 45.82 112.46L46.03 112.36C46.68 112.09 47.47 112.23 48.39 112.76C49.41 113.35 50.27 114.24 50.96 115.43C51.65 116.62 52 117.81 52 118.98Z" class="pr-icon-iso-duotone-primary-stroke" stroke-linejoin="round"/>
    <path d="M23.1299 102.31C23.1299 103.49 22.7799 104.27 22.0899 104.67C21.3999 105.06 20.5399 104.96 19.5199 104.37C18.4999 103.78 17.6399 102.89 16.9499 101.7C16.2599 100.5 15.9099 99.3199 15.9099 98.1499C15.9099 96.9799 16.2599 96.1899 16.9499 95.7999L17.1599 95.6999C17.8099 95.4299 18.5999 95.5599 19.5199 96.0899C20.5399 96.6799 21.3999 97.5699 22.0899 98.7699C22.7799 99.9599 23.1299 101.14 23.1299 102.31Z" class="pr-icon-iso-duotone-primary-stroke" stroke-linejoin="round"/>
    <path d="M37.5599 110.65C37.5599 111.82 37.2198 112.6 36.5198 113C35.8298 113.39 34.9798 113.3 33.9498 112.71C32.9298 112.11 32.0698 111.22 31.3798 110.03C30.6898 108.84 30.3499 107.65 30.3499 106.48C30.3499 105.31 30.6898 104.52 31.3798 104.13L31.6199 104.01C32.2699 103.77 33.0498 103.9 33.9498 104.42C34.9798 105.01 35.8298 105.91 36.5198 107.1C37.2198 108.29 37.5599 109.47 37.5599 110.65Z" class="pr-icon-iso-duotone-primary-stroke" stroke-linejoin="round"/>
    <path d="M65.0299 55.2901C64.9499 55.3701 64.8699 55.4501 64.7799 55.5201C64.6999 55.5901 64.5999 55.6501 64.5099 55.7001L64.43 55.7401C63.9 56.0201 63.27 56.0501 62.55 55.8201C59.66 54.9101 56.7199 53.8301 53.7099 52.5801C50.6999 51.3301 47.7299 49.9901 44.7799 48.5601V94.1101C44.7799 95.2801 44.43 96.0701 43.74 96.4601C43.05 96.8601 42.1899 96.7601 41.1699 96.1701C40.8699 96.0001 40.58 95.7901 40.31 95.5601C39.77 95.1201 39.29 94.5801 38.87 93.9301C38.78 93.7901 38.6899 93.6401 38.5999 93.4901C37.9099 92.3001 37.56 91.1201 37.56 89.9401V69.2401L30.3499 65.0701V85.7801C30.3499 86.9501 30 87.7301 29.31 88.1301C28.62 88.5201 27.76 88.4301 26.74 87.8401C25.71 87.2401 24.8599 86.3501 24.1699 85.1601C23.4699 83.9701 23.1299 82.7801 23.1299 81.6101V36.0601C20.1799 34.0901 17.1999 31.9901 14.1999 29.7701C11.1899 27.5501 8.23995 25.2301 5.35995 22.8001C4.32995 21.9401 3.50994 20.8001 2.87994 19.4001C2.23994 18.0001 2.07994 16.8001 2.37994 15.8001C2.55994 15.2201 2.84994 14.8001 3.25994 14.5601L3.39993 14.4901C3.64993 14.3701 3.93992 14.3101 4.26992 14.3101C5.23992 14.3101 6.25993 14.7701 7.33993 15.6701C11.5499 19.1301 15.9299 22.4201 20.4699 25.5201C25.0099 28.6301 29.4999 31.4601 33.9499 34.0301C36.9899 35.7801 40.0499 37.4401 43.1299 38.9901C44.5599 39.7201 45.9999 40.4101 47.4399 41.0901C51.9799 43.2301 56.3599 45.0001 60.5699 46.4001C61.6499 46.7401 62.6699 47.4701 63.6299 48.5801C64.0899 49.1101 64.4699 49.6601 64.7799 50.2401C65.1199 50.8801 65.3699 51.5601 65.5299 52.2601C65.8299 53.6101 65.6599 54.6201 65.0299 55.2901Z" class="pr-icon-iso-duotone-primary-stroke" stroke-linejoin="round"/>
    <path d="M41.17 25.78C41.17 28.05 40.46 29.6 39.05 30.4C37.64 31.21 35.94 31.04 33.95 29.89C31.97 28.75 30.27 26.95 28.86 24.52C27.44 22.08 26.74 19.72 26.74 17.44C26.74 16.24 26.94 15.24 27.34 14.45C27.68 13.74 28.19 13.2 28.86 12.82L29.3 12.6C30.62 12.06 32.17 12.3 33.95 13.33C35.94 14.48 37.64 16.27 39.05 18.7C40.24 20.76 40.93 22.76 41.11 24.7C41.15 25.06 41.17 25.42 41.17 25.78Z" class="pr-icon-iso-duotone-primary-stroke" stroke-linejoin="round"/>
    <path d="M64.51 55.7L64.78 55.57V55.52C64.7 55.59 64.6 55.65 64.51 55.7Z" class="pr-icon-iso-duotone-primary-stroke" stroke-linejoin="round"/>
    <path d="M23.1299 102.31C23.1299 101.14 22.7799 99.9601 22.0899 98.7701C21.3999 97.5701 20.5399 96.6801 19.5199 96.0901C18.5999 95.5601 17.8099 95.4301 17.1599 95.7001L36.9499 85.8001C37.1399 85.6901 37.3399 85.6201 37.5599 85.5901V89.9401C37.5599 91.1201 37.9099 92.3001 38.5999 93.4901C38.6899 93.6401 38.7799 93.7901 38.8699 93.9301C39.2899 94.5801 39.7699 95.1201 40.3099 95.5601L22.0899 104.67C22.7799 104.27 23.1299 103.49 23.1299 102.31Z" class="pr-icon-iso-duotone-primary-stroke" stroke-linejoin="round"/>
    <path d="M61.17 15.78C61.17 18.05 60.46 19.6 59.05 20.4L58.61 20.62L52.96 23.45L43.13 28.36L39.05 30.4C40.46 29.6 41.17 28.05 41.17 25.78C41.17 25.42 41.15 25.06 41.11 24.7C40.93 22.76 40.24 20.76 39.05 18.7C37.64 16.27 35.94 14.48 33.95 13.33C32.17 12.3 30.62 12.06 29.3 12.6L33.4901 10.51L48.86 2.81999C50.27 2.00999 51.97 2.17999 53.95 3.32999C55.94 4.47999 57.64 6.26999 59.05 8.69999C60.46 11.14 61.17 13.5 61.17 15.78Z" class="pr-icon-iso-duotone-primary-stroke" stroke-linejoin="round"/>
    <path d="M85.0299 45.2901C84.8399 45.4901 84.6299 45.6501 84.3999 45.7601L84.3199 45.8001L64.7799 55.5701V55.5201C64.8699 55.4501 64.9499 55.3701 65.0299 55.2901C65.6599 54.6201 65.8299 53.6101 65.5299 52.2601C65.3699 51.5601 65.1199 50.8801 64.7799 50.2401C64.4699 49.6601 64.0899 49.1101 63.6299 48.5801C62.6699 47.4701 61.6499 46.7401 60.5699 46.4001C56.3599 45.0001 51.9799 43.2301 47.4399 41.0901C45.9999 40.4101 44.5599 39.7201 43.1299 38.9901C40.0499 37.4401 36.9899 35.7801 33.9499 34.0301C29.4999 31.4601 25.0099 28.6301 20.4699 25.5201C15.9299 22.4201 11.5499 19.1301 7.3399 15.6701C6.2599 14.7701 5.2399 14.3101 4.2699 14.3101C3.9399 14.3101 3.6499 14.3701 3.3999 14.4901L23.2199 4.59006L23.3399 4.53006C23.5999 4.38006 23.9099 4.31006 24.2699 4.31006C25.2399 4.31006 26.2599 4.77006 27.3399 5.67006C29.3499 7.32006 31.3999 8.94006 33.4899 10.5101L29.2999 12.6001L28.8599 12.8201C28.1899 13.2001 27.6799 13.7401 27.3399 14.4501C26.9399 15.2401 26.7399 16.2401 26.7399 17.4401C26.7399 19.7201 27.4399 22.0801 28.8599 24.5201C30.2699 26.9501 31.9699 28.7501 33.9499 29.8901C35.9399 31.0401 37.6399 31.2101 39.0499 30.4001L43.1299 28.3601L52.9599 23.4501C53.2899 23.6501 53.6199 23.8401 53.9499 24.0301C58.3999 26.6001 62.8999 28.9601 67.4399 31.0901C71.9799 33.2301 76.3599 35.0001 80.5699 36.4001C81.6499 36.7401 82.6699 37.4701 83.6299 38.5801C84.5999 39.6901 85.2299 40.9201 85.5299 42.2601C85.8299 43.6101 85.6599 44.6201 85.0299 45.2901Z" class="pr-icon-iso-duotone-primary-stroke" stroke-linejoin="round"/>
    <path d="M64.78 55.5701V84.1101C64.78 85.2801 64.43 86.0701 63.74 86.4601L63.53 86.5601L43.74 96.4601C44.43 96.0701 44.78 95.2801 44.78 94.1101V48.5601C47.73 49.9901 50.7 51.3301 53.71 52.5801C56.72 53.8301 59.66 54.9101 62.55 55.8201C63.27 56.0501 63.9 56.0201 64.43 55.7401L64.5099 55.7001L64.78 55.5701Z" class="pr-icon-iso-duotone-primary-stroke" stroke-linejoin="round"/>
    <path d="M37.5601 69.2401V84.0101L29.3101 88.1301C30.0001 87.7301 30.35 86.9501 30.35 85.7801V65.0701L37.5601 69.2401Z" class="pr-icon-iso-duotone-primary-stroke" stroke-linejoin="round"/>
    <path d="M57.5599 100.65C57.5599 101.82 57.2198 102.6 56.5198 103L56.3099 103.1L36.5198 113C37.2198 112.6 37.5599 111.82 37.5599 110.65C37.5599 109.48 37.2198 108.29 36.5198 107.1C35.8298 105.91 34.9798 105.01 33.9498 104.42C33.0498 103.9 32.2699 103.77 31.6199 104.01L51.3798 94.1299C52.0698 93.7399 52.9298 93.8299 53.9498 94.4199C54.9798 95.0099 55.8298 95.9099 56.5198 97.0999C57.2198 98.2899 57.5599 99.4699 57.5599 100.65Z" class="pr-icon-iso-duotone-primary-stroke" stroke-linejoin="round"/>
    <path d="M72 108.98C72 110.15 71.65 110.94 70.96 111.33L50.96 121.33C51.65 120.94 52 120.15 52 118.98C52 117.81 51.65 116.62 50.96 115.43C50.27 114.24 49.41 113.35 48.39 112.76C47.47 112.23 46.68 112.09 46.03 112.36L65.79 102.48L65.91 102.42C66.58 102.08 67.41 102.2 68.39 102.76C69.41 103.35 70.27 104.24 70.96 105.43C71.65 106.62 72 107.81 72 108.98Z" class="pr-icon-iso-duotone-primary-stroke" stroke-linejoin="round"/>
    <path d="M3.25998 14.5601L3.21997 14.5801" class="pr-icon-iso-duotone-primary-stroke" stroke-linejoin="round"/>
</svg>