<svg width="24" height="24" viewBox="0 0 74 119" class="pr-icon-iso-duotone-secondary" xmlns="http://www.w3.org/2000/svg" stroke-width="1px" stroke-linecap="round" stroke-linejoin="round">
    <path d="M51.6693 73.1223C51.6693 74.5423 51.2694 75.4823 50.4594 75.9423L50.2293 76.0723L39.8094 82.0123L33.6494 85.5223L33.5094 85.6023C31.8394 86.5623 29.7594 86.3223 27.2794 84.8923C24.7994 83.4623 22.7294 81.3023 21.0494 78.4123L14.3593 66.8823L4.09934 49.1723C3.29934 47.7923 2.87939 46.4023 2.83939 45.0023C2.80939 43.5923 3.22934 42.6423 4.09934 42.1523L4.33939 42.0323C5.09939 41.7223 6.03934 41.8923 7.15934 42.5323C8.39934 43.2523 9.4194 44.3024 10.2194 45.6824L20.7094 63.7023L27.2794 74.9823L27.4793 74.8723L33.6294 71.4023L40.5294 67.5223L44.3394 65.3823L44.5894 65.2623C45.3494 64.9523 46.2593 65.0923 47.3493 65.6723C48.5493 66.3223 49.5894 67.4123 50.4594 68.9123C51.2694 70.3023 51.6693 71.7023 51.6693 73.1223Z" class="pr-icon-iso-duotone-primary-stroke" stroke-linejoin="round"/>
    <path d="M51.6693 102.993C51.6693 104.413 51.2694 105.353 50.4594 105.803L50.2293 105.933L33.5094 115.473C31.8394 116.423 29.7594 116.193 27.2794 114.763C24.7994 113.323 22.7294 111.163 21.0494 108.273L4.09934 79.0429C3.29934 77.6529 2.87939 76.2629 2.83939 74.8629C2.80939 73.4629 3.22934 72.5128 4.09934 72.0128L4.33939 71.8928C5.09939 71.5828 6.03934 71.7528 7.15934 72.4028C8.39934 73.1128 9.4194 74.1629 10.2194 75.5429L27.2794 104.843L40.5294 97.3828L44.3394 95.2429L44.5894 95.1228C45.3494 94.8128 46.2593 94.9529 47.3493 95.5429C48.5493 96.1929 49.5894 97.2728 50.4594 98.7828C51.2694 100.163 51.6693 101.563 51.6693 102.993Z" class="pr-icon-iso-duotone-primary-stroke" stroke-linejoin="round"/>
    <path d="M71.6697 92.993C71.6697 94.413 71.2698 95.353 70.4598 95.803L53.5098 105.473L52.9998 105.723L33.5098 115.473L50.2297 105.933L50.4598 105.803C51.2698 105.353 51.6697 104.413 51.6697 102.993C51.6697 101.573 51.2698 100.163 50.4598 98.783C49.5898 97.273 48.5497 96.193 47.3497 95.543C46.2597 94.953 45.3498 94.8129 44.5898 95.1229L46.7997 94.0129L64.3398 85.243C65.1398 84.793 66.1397 84.883 67.3497 85.543C68.5497 86.193 69.5898 87.273 70.4598 88.783C71.2698 90.163 71.6697 91.563 71.6697 92.993Z" class="pr-icon-iso-duotone-primary-stroke" stroke-linejoin="round"/>
    <path d="M46.7998 94.0128L44.5898 95.1228L44.3398 95.2429L40.5298 97.3828L27.2798 104.843L10.2198 75.5428C9.41985 74.1628 8.39979 73.1128 7.15979 72.4028C6.03979 71.7528 5.09984 71.5828 4.33984 71.8928L14.3598 66.8828L21.0498 78.4128C22.7298 81.3028 24.7998 83.4628 27.2798 84.8928C29.7598 86.3228 31.8398 86.5628 33.5098 85.6028L33.6598 85.5328L40.0098 82.3528L46.7998 94.0128Z" class="pr-icon-iso-duotone-primary-stroke" stroke-linejoin="round"/>
    <path d="M71.6694 63.1227C71.6694 64.5427 71.2694 65.4827 70.4594 65.9427L53.5094 75.6027L52.9994 75.8527L40.0094 82.3527L33.6594 85.5327H33.6494L39.8094 82.0127L50.2294 76.0727L50.4594 75.9427C51.2694 75.4827 51.6694 74.5427 51.6694 73.1227C51.6694 71.7027 51.2694 70.3027 50.4594 68.9127C49.5894 67.4127 48.5494 66.3227 47.3494 65.6727C46.2594 65.0927 45.3494 64.9527 44.5894 65.2627L46.7994 64.1527L64.3394 55.3827C65.1394 54.9227 66.1394 55.0227 67.3494 55.6727C68.5494 56.3227 69.5894 57.4127 70.4594 58.9127C71.2694 60.3027 71.6694 61.7027 71.6694 63.1227Z" class="pr-icon-iso-duotone-primary-stroke" stroke-linejoin="round"/>
    <path d="M46.7998 64.1525L44.5898 65.2625L44.3398 65.3824L40.5298 67.5225L33.6298 71.4025L27.4798 74.8724L27.2798 74.9825L20.7098 63.7025L10.2198 45.6825C9.41985 44.3025 8.39979 43.2525 7.15979 42.5325C6.03979 41.8925 5.09984 41.7225 4.33984 42.0325L14.3698 37.0225L21.0498 48.5425C22.7298 51.4425 24.7998 53.6025 27.2798 55.0325C29.7598 56.4625 31.8398 56.7025 33.5098 55.7425L33.6598 55.6625L40.0098 52.4925L46.7998 64.1525Z" class="pr-icon-iso-duotone-primary-stroke" stroke-linejoin="round"/>
    <path d="M71.6692 33.2629C71.6692 34.6829 71.2692 35.6229 70.4592 36.0829L53.5092 45.7429L52.9992 45.9929L40.0092 52.4929L33.6592 55.6629L39.8092 52.1529L50.2292 46.2129L50.4592 46.0829C51.2692 45.6229 51.6692 44.6829 51.6692 43.2629C51.6692 41.8429 51.2692 40.4329 50.4592 39.0529C49.5892 37.5429 48.5492 36.4628 47.3492 35.8128C46.2592 35.2328 45.3492 35.0929 44.5892 35.4029L46.7992 34.2929L64.3392 25.5229C65.1392 25.0629 66.1392 25.1628 67.3492 25.8128C68.5492 26.4628 69.5892 27.5429 70.4592 29.0529C71.2692 30.4329 71.6692 31.8429 71.6692 33.2629Z" class="pr-icon-iso-duotone-primary-stroke" stroke-linejoin="round"/>
    <path d="M46.7998 34.2927L44.5898 35.4027L44.3398 35.5227L40.5398 37.6627L33.6298 41.5427L27.4798 45.0127L27.2798 45.1227L20.7098 33.8427L10.2198 15.8227C9.41985 14.4327 8.39979 13.3927 7.15979 12.6727C6.03979 12.0227 5.09984 11.8627 4.33984 12.1627L24.0998 2.28269C24.8998 1.83269 25.9198 1.95271 27.1598 2.67271C28.3998 3.39271 29.4198 4.43267 30.2198 5.82267L46.7998 34.2927Z" class="pr-icon-iso-duotone-primary-stroke" stroke-linejoin="round"/>
    <path d="M51.6693 43.2623C51.6693 44.6823 51.2694 45.6223 50.4594 46.0823L50.2293 46.2123L39.8094 52.1523L33.6593 55.6623L33.5094 55.7423C31.8394 56.7023 29.7594 56.4623 27.2794 55.0323C24.7994 53.6023 22.7294 51.4423 21.0494 48.5423L14.3694 37.0223L4.09934 19.3123C3.29934 17.9323 2.87939 16.5323 2.83939 15.1323C2.80939 13.7323 3.22934 12.7823 4.09934 12.2823L4.33939 12.1623C5.09939 11.8623 6.03934 12.0223 7.15934 12.6723C8.39934 13.3923 9.4194 14.4323 10.2194 15.8223L20.7094 33.8423L27.2794 45.1223L27.4793 45.0123L33.6294 41.5423L40.5393 37.6623L44.3394 35.5223L44.5894 35.4023C45.3494 35.0923 46.2593 35.2323 47.3493 35.8123C48.5493 36.4623 49.5894 37.5423 50.4594 39.0523C51.2694 40.4323 51.6693 41.8423 51.6693 43.2623Z" class="pr-icon-iso-duotone-primary-stroke" stroke-linejoin="round"/>
</svg>