<svg width="48" height="48" viewBox="0 0 87 110" fill="#c8e7ff" xmlns="http://www.w3.org/2000/svg" stroke-width="1px" stroke-linecap="round" stroke-linejoin="round"><path d="M33.8408 27.8906L31.5508 29.1805L31.2308 29.3406L11.5508 39.1805L29.0008 29.3606L33.2908 26.9506L33.8408 27.8906Z" stroke="#229EFF" stroke-linejoin="round"/><path d="M33.8408 66.2606L31.5508 67.5505L31.2308 67.7106L11.5508 77.5505L29.0008 67.7306L33.2908 65.3206L33.8408 66.2606Z" stroke="#229EFF" stroke-linejoin="round"/><path d="M64.4207 103.521C64.4707 105.311 63.9407 106.521 62.8207 107.151C61.8007 107.731 60.5007 107.571 58.9207 106.661C57.3407 105.751 56.0407 104.411 55.0207 102.651L33.8407 66.2607L33.2906 65.3206L29.0007 67.7306L11.5507 77.5506C10.5307 78.1306 9.2507 78.0106 7.7207 77.1806C6.1907 76.3506 4.86067 74.9706 3.75067 73.0506C2.73067 71.2806 2.2207 69.5006 2.2207 67.6906C2.2207 65.8806 2.73067 64.6806 3.75067 64.0906L25.3407 51.7807C25.6007 51.6307 25.8607 51.5107 26.1307 51.4107C27.0007 51.0807 27.9507 50.9806 28.9807 51.1106C30.2907 51.2606 31.7306 51.7906 33.2906 52.6906C36.4406 54.5106 39.0907 57.2706 41.2307 60.9506L41.7307 61.8206L62.8207 98.2006C63.8407 99.9606 64.3807 101.731 64.4207 103.521Z" stroke="#229EFF" stroke-linejoin="round"/><path d="M64.4207 65.1506C64.4707 66.9406 63.9407 68.1506 62.8207 68.7806C62.3707 69.0406 61.8707 69.1506 61.3207 69.1106C60.6107 69.0706 59.8107 68.8006 58.9207 68.2906C57.3407 67.3806 56.0407 66.0406 55.0207 64.2806L50.6607 56.8005L42.7707 43.2406L42.6907 43.1106L33.8407 27.8906L33.2906 26.9506L29.0007 29.3606L11.5507 39.1805C10.5307 39.7605 9.2507 39.6405 7.7207 38.8105C6.1907 37.9805 4.86067 36.6005 3.75067 34.6805C2.73067 32.9205 2.2207 31.1305 2.2207 29.3205C2.2207 27.5105 2.73067 26.3106 3.75067 25.7306L25.3407 13.4106C25.6307 13.2506 25.9107 13.1106 26.2207 13.0106H26.2307C27.0807 12.7006 28.0007 12.6106 28.9907 12.7406C30.3007 12.8906 31.7306 13.4305 33.2906 14.3205C36.4406 16.1405 39.0907 18.9006 41.2307 22.5806L41.7307 23.4506L52.7007 42.3706L62.8207 59.8306C63.8407 61.5906 64.3807 63.3706 64.4207 65.1506Z" stroke="#229EFF" stroke-linejoin="round"/><path d="M84.4205 55.1507C84.4705 56.9407 83.9405 58.1507 82.8205 58.7807L82.5105 58.9306L69.6005 65.3907L62.8205 68.7807C63.9405 68.1507 64.4705 66.9407 64.4205 65.1507C64.3805 63.3707 63.8405 61.5906 62.8205 59.8306L52.7005 42.3706L41.7305 23.4506L41.2305 22.5806C39.0905 18.9006 36.4405 16.1406 33.2905 14.3206C31.7305 13.4306 30.3005 12.8906 28.9905 12.7406C28.0005 12.6106 27.0805 12.7006 26.2305 13.0106L45.3405 3.41067C47.4805 2.20067 50.1305 2.50059 53.2905 4.32059C56.4405 6.14059 59.0905 8.90059 61.2305 12.5806L82.8205 49.8306C83.8405 51.5906 84.3805 53.3707 84.4205 55.1507Z" stroke="#229EFF" stroke-linejoin="round"/><path d="M84.4208 93.5206C84.4708 95.3106 83.9409 96.5206 82.8209 97.1506L82.5109 97.3005L62.8209 107.151C63.9409 106.521 64.4708 105.311 64.4208 103.521C64.3808 101.731 63.8409 99.9606 62.8209 98.2006L41.7308 61.8206L41.2308 60.9506C39.0908 57.2706 36.4408 54.5106 33.2908 52.6906C31.7308 51.7906 30.2908 51.2606 28.9808 51.1106C27.9508 50.9806 27.0009 51.0806 26.1309 51.4106L42.6909 43.1106L42.7709 43.2406L50.6609 56.8005L55.0209 64.2806C56.0409 66.0406 57.3408 67.3806 58.9208 68.2906C59.8108 68.8006 60.6109 69.0706 61.3209 69.1106C61.8709 69.1506 62.3709 69.0406 62.8209 68.7806L69.6009 65.3906L82.8209 88.2006C83.8409 89.9606 84.3808 91.7306 84.4208 93.5206Z" stroke="#229EFF" stroke-linejoin="round"/><path d="M26.1307 51.4106L26.0107 51.4706" stroke="#229EFF" stroke-linejoin="round"/><path d="M26.2208 13.0106L26.0107 13.1206" stroke="#229EFF" stroke-linejoin="round"/></svg>