<svg width="48" height="48" viewBox="0 0 106 115" class="pr-icon-iso-duotone-secondary"
     xmlns="http://www.w3.org/2000/svg" stroke-width="1px" stroke-linecap="round" stroke-linejoin="round">
    <path d="M72.01 45.95C71.26 44.67 70.3799 43.73 69.3599 43.14C68.4499 42.61 67.64 42.49 66.95 42.77L66.71 42.89L61.51 45.97C60.82 46.43 60.48 47.24 60.48 48.42C60.48 49.6 60.82 50.7699 61.51 51.9399C62.19 53.1199 63.0499 54.0099 64.1099 54.6199C65.1599 55.2299 66.03 55.34 66.71 54.95L72.01 51.93C72.69 51.54 73.0298 50.74 73.0298 49.53C73.0298 48.32 72.69 47.13 72.01 45.95ZM45.75 95.05C45.04 93.82 44.1599 92.91 43.0999 92.3C42.1499 91.75 41.3499 91.6099 40.6699 91.8799L40.45 91.99C39.74 92.4 39.3799 93.21 39.3799 94.42V102.95C39.3799 104.16 39.74 105.38 40.45 106.61C41.17 107.84 42.0499 108.75 43.0999 109.36C44.1599 109.97 45.04 110.07 45.75 109.66C46.46 109.26 46.8198 108.45 46.8198 107.24V98.71C46.8198 97.5 46.46 96.28 45.75 95.05ZM27.2998 35.18L28.1699 34.74C27.8699 34.86 27.5898 35.02 27.2998 35.18Z" class="pr-icon-iso-duotone-primary-stroke" stroke-linejoin="round"/>
    <path d="M25.8098 76.6099C25.8098 77.7799 25.44 78.5799 24.7 79.0099L19.49 81.9699C18.75 82.3999 17.8498 82.3099 16.7998 81.6999C15.7398 81.0899 14.88 80.1599 14.2 78.9099C13.51 77.7399 13.1699 76.5499 13.1699 75.3399C13.1699 74.1299 13.51 73.3299 14.2 72.9399L19.49 69.9199L19.7 69.8199C20.35 69.5499 21.1298 69.6899 22.0498 70.2199C23.0698 70.8099 23.95 71.7099 24.7 72.9299C25.44 74.2099 25.8098 75.4399 25.8098 76.6099Z" class="pr-icon-iso-duotone-primary-stroke" stroke-linejoin="round"/>
    <path d="M17.0798 47.41C17.0798 48.62 16.72 49.42 16.01 49.83C15.3 50.24 14.4099 50.14 13.3599 49.53L5.91992 45.24C4.86992 44.63 3.98978 43.71 3.26978 42.48C2.55978 41.25 2.20996 40.03 2.20996 38.82C2.20996 37.61 2.55978 36.81 3.26978 36.4L3.48999 36.29C4.16999 36.02 4.97992 36.15 5.91992 36.7L13.3599 40.9999C14.4099 41.5999 15.3 42.5199 16.01 43.7499C16.72 44.9799 17.0798 46.2 17.0798 47.41Z" class="pr-icon-iso-duotone-primary-stroke" stroke-linejoin="round"/>
    <path d="M27.2998 35.18L28.1699 34.74C27.8699 34.86 27.5898 35.02 27.2998 35.18ZM72.01 45.95C71.26 44.67 70.3799 43.73 69.3599 43.14C68.4499 42.61 67.64 42.49 66.95 42.77L66.71 42.89L61.51 45.97C60.82 46.43 60.48 47.24 60.48 48.42C60.48 49.6 60.82 50.7699 61.51 51.9399C62.19 53.1199 63.0499 54.0099 64.1099 54.6199C65.1599 55.2299 66.03 55.34 66.71 54.95L72.01 51.93C72.69 51.54 73.0298 50.74 73.0298 49.53C73.0298 48.32 72.69 47.13 72.01 45.95Z" class="pr-icon-iso-duotone-primary-stroke" stroke-linejoin="round"/>
    <path d="M25.72 28.29C25.72 29.5 25.38 30.3 24.7 30.69C24.04 31 23.2899 30.95 22.4399 30.54C22.3299 30.49 22.2199 30.43 22.0999 30.36C21.2299 29.86 20.4598 29.12 19.7898 28.14C19.6798 27.99 19.59 27.84 19.49 27.69L14.2 18.65C13.45 17.37 13.0798 16.13 13.0798 14.92C13.0798 13.71 13.45 12.93 14.2 12.58L14.4099 12.48C15.0499 12.22 15.8398 12.36 16.7998 12.9C17.8498 13.51 18.7199 14.4 19.3999 15.58L24.7 24.72C25.03 25.3 25.29 25.88 25.45 26.46C25.63 27.07 25.72 27.68 25.72 28.29Z" class="pr-icon-iso-duotone-primary-stroke" stroke-linejoin="round"/>
    <path d="M43.96 13.4399L40.45 15.1999C39.76 15.5999 39.3999 16.3699 39.3899 17.5099C39.3799 17.5499 39.3799 17.5899 39.3799 17.6299V23.35L29.0598 28.5099L24.7 30.6899C25.38 30.2999 25.72 29.5 25.72 28.29C25.72 27.68 25.63 27.0699 25.45 26.4599C25.29 25.8799 25.03 25.3 24.7 24.72L19.3999 15.5799C18.7199 14.3999 17.8498 13.5099 16.7998 12.8999C15.8398 12.3599 15.0499 12.22 14.4099 12.48L34.2 2.57994C34.88 2.18994 35.7398 2.29995 36.7998 2.89995C37.8498 3.50995 38.7199 4.39994 39.3999 5.57994L43.96 13.4399Z" class="pr-icon-iso-duotone-primary-stroke" stroke-linejoin="round"/>
    <path d="M73.0798 109.82C73.0498 111.01 72.69 111.83 72.01 112.29C71.26 112.72 70.3698 112.62 69.3098 112.02C68.2598 111.41 67.39 110.48 66.71 109.23L62.24 101.42L61.51 100.15C60.85 98.9499 60.51 97.7899 60.49 96.6699C60.48 96.6199 60.48 96.5699 60.48 96.5199C60.48 95.3499 60.82 94.5699 61.51 94.1799L61.72 94.0799C62.36 93.8099 63.1398 93.9499 64.0598 94.4799C65.0798 95.0699 65.97 95.9699 66.71 97.1799L66.8098 97.3599L72.01 106.21C72.75 107.42 73.1098 108.63 73.0798 109.82Z" class="pr-icon-iso-duotone-primary-stroke" stroke-linejoin="round"/>
    <path d="M65.4099 75.3099C65.4099 76.6699 65.3299 77.9399 65.1699 79.1299C64.9799 80.5899 64.67 81.9199 64.23 83.1199C63.24 85.8799 61.6299 87.9699 59.3799 89.3899C59.2199 89.4999 59.0599 89.5999 58.8999 89.6899C55.1899 91.8099 50.7799 91.7099 45.6899 89.3699C44.8499 88.9899 43.9799 88.54 43.0999 88.03C38.3799 85.3 34.1998 81.4399 30.5598 76.4399C29.4098 74.8799 28.3298 73.2199 27.2998 71.4399C26.4598 69.9999 25.7098 68.5699 25.0398 67.1399C22.2098 61.1599 20.7898 55.3 20.7898 49.55C20.7898 48.81 20.8099 48.0899 20.8699 47.3999C21.2399 41.8299 23.1498 37.9099 26.5898 35.6199C26.8198 35.4699 27.0598 35.32 27.2998 35.18L28.1699 34.74L28.2698 34.6999C30.6398 33.6099 33.2599 33.3899 36.1499 34.0099C37.6999 34.3399 39.3298 34.92 41.0298 35.74C41.7098 36.07 42.3999 36.43 43.0999 36.84C49.2999 40.41 54.5699 45.94 58.8999 53.43C63.2399 60.91 65.4099 68.1999 65.4099 75.3099Z" class="pr-icon-iso-duotone-primary-stroke" stroke-linejoin="round"/>
    <path d="M66.8198 11.92V20.4499C66.8198 21.6599 66.46 22.4699 65.75 22.8699L65.5298 22.98L60.51 25.49L45.75 32.8699C46.46 32.4699 46.8198 31.6599 46.8198 30.4499V21.92C46.8198 20.71 46.46 19.4899 45.75 18.2599L45.72 18.1999C45.01 16.9999 44.1399 16.0999 43.0999 15.5099C42.0499 14.8999 41.17 14.7999 40.45 15.1999L43.96 13.4399L60.45 5.19994C61.17 4.79994 62.0499 4.89993 63.0999 5.50993C64.1599 6.10993 65.04 7.02993 65.75 8.25993C66.46 9.48993 66.8198 10.71 66.8198 11.92Z" class="pr-icon-iso-duotone-primary-stroke" stroke-linejoin="round"/>
    <path d="M93.0298 39.53C93.0298 40.74 92.69 41.54 92.01 41.93L86.71 44.95L86.5 45.05L81.1599 47.73L66.71 54.95L72.01 51.93C72.69 51.54 73.0298 50.74 73.0298 49.53C73.0298 48.32 72.69 47.13 72.01 45.95C71.26 44.67 70.3799 43.73 69.3599 43.14C68.4499 42.61 67.64 42.49 66.95 42.77L75.6499 38.42L86.71 32.89C87.45 32.47 88.3399 32.55 89.3599 33.14C90.3799 33.73 91.26 34.67 92.01 35.95C92.69 37.13 93.0298 38.32 93.0298 39.53Z" class="pr-icon-iso-duotone-primary-stroke" stroke-linejoin="round"/>
    <path d="M84 86.05C84 87.25 83.6399 88.06 82.9299 88.47C82.3399 88.8 81.6198 88.79 80.7798 88.42C80.6198 88.35 80.4498 88.27 80.2798 88.17L77.1499 86.36L72.8398 83.8699C72.4998 83.6699 72.1799 83.45 71.8799 83.19C71.2399 82.64 70.68 81.9499 70.2 81.1199C70.15 81.0299 70.0998 80.95 70.0598 80.86C69.4298 79.72 69.1299 78.58 69.1299 77.46C69.1299 76.25 69.48 75.44 70.2 75.04L70.4199 74.93C71.0899 74.66 71.8998 74.79 72.8398 75.34L79.6099 79.2499L80.2798 79.63C81.3298 80.24 82.2199 81.16 82.9299 82.39C83.2999 83.04 83.58 83.68 83.76 84.32C83.92 84.9 84 85.48 84 86.05Z" class="pr-icon-iso-duotone-primary-stroke" stroke-linejoin="round"/>
    <path d="M104 76.0499C104 77.2499 103.64 78.0599 102.93 78.4699L102.71 78.5799L86.4199 86.7299L82.9299 88.4699C83.6399 88.0599 84 87.2499 84 86.0499C84 85.4799 83.92 84.8999 83.76 84.3199C83.58 83.6799 83.2999 83.0399 82.9299 82.3899C82.2199 81.1599 81.3298 80.2399 80.2798 79.6299L79.6099 79.2499L72.8398 75.3399C71.8998 74.7899 71.0899 74.6599 70.4199 74.9299L85.3298 67.4799L90.2 65.0399C90.91 64.6299 91.7898 64.7299 92.8398 65.3399L100.28 69.6299C101.33 70.2399 102.22 71.1599 102.93 72.3899C103.64 73.6199 104 74.8399 104 76.0499Z" class="pr-icon-iso-duotone-primary-stroke" stroke-linejoin="round"/>
    <path d="M93.0798 99.8199C93.0498 101.01 92.69 101.83 92.01 102.29L72.01 112.29C72.69 111.83 73.0498 111.01 73.0798 109.82C73.1098 108.63 72.75 107.42 72.01 106.21L66.8098 97.36L66.71 97.18C65.97 95.97 65.0798 95.07 64.0598 94.48C63.1398 93.95 62.36 93.81 61.72 94.08L66.8198 91.53L77.1499 86.36L80.2798 88.17C80.4498 88.27 80.6198 88.35 80.7798 88.42C81.6198 88.79 82.3399 88.8 82.9299 88.47L86.4199 86.73C86.5199 86.88 86.62 87.03 86.71 87.18L92.01 96.21C92.75 97.42 93.1098 98.6299 93.0798 99.8199Z" class="pr-icon-iso-duotone-primary-stroke" stroke-linejoin="round"/>
    <path d="M60.48 96.52C60.48 96.57 60.48 96.62 60.49 96.67C60.51 97.79 60.85 98.95 61.51 100.15L62.24 101.42L45.75 109.66C46.46 109.26 46.8198 108.45 46.8198 107.24V98.71C46.8198 97.5 46.46 96.28 45.75 95.05C45.04 93.82 44.1599 92.91 43.0999 92.3C42.1499 91.75 41.3499 91.61 40.6699 91.88L45.6899 89.37C50.7799 91.71 55.1899 91.81 58.8999 89.69L59.3799 89.45L66.24 86.02C66.62 86.92 66.8198 87.82 66.8198 88.71V91.53L61.72 94.08L61.51 94.1801C60.82 94.5701 60.48 95.35 60.48 96.52Z" class="pr-icon-iso-duotone-primary-stroke" stroke-linejoin="round"/>
    <path d="M40.6699 91.8799L40.45 91.9899" class="pr-icon-iso-duotone-primary-stroke" stroke-linejoin="round"/>
    <path d="M25.8098 76.6099C25.8098 75.4399 25.44 74.2099 24.7 72.9299C23.95 71.7099 23.0698 70.8099 22.0498 70.2199C21.1298 69.6899 20.35 69.5499 19.7 69.8199L25.0398 67.1399C25.7098 68.5699 26.4598 69.9999 27.2998 71.4399C28.3298 73.2199 29.4098 74.8799 30.5598 76.4399L19.49 81.9699L24.7 79.0099C25.44 78.5799 25.8098 77.7799 25.8098 76.6099Z" class="pr-icon-iso-duotone-primary-stroke" stroke-linejoin="round"/>
    <path d="M34.3098 31.6699L28.2698 34.6999L28.1699 34.7399C27.8699 34.8599 27.5898 35.0199 27.2998 35.1799C27.0598 35.3199 26.8198 35.4699 26.5898 35.6199C23.1498 37.9099 21.2399 41.8299 20.8699 47.3999L16.01 49.8299C16.72 49.4199 17.0798 48.6199 17.0798 47.4099C17.0798 46.1999 16.72 44.9799 16.01 43.7499C15.3 42.5199 14.4099 41.5999 13.3599 40.9999L5.91992 36.6999C4.97992 36.1499 4.16999 36.0199 3.48999 36.2899L19.7898 28.1399C20.4598 29.1199 21.2299 29.8599 22.0999 30.3599C22.2199 30.4299 22.3299 30.4899 22.4399 30.5399C23.2899 30.9499 24.04 30.9999 24.7 30.6899L29.0598 28.5099L33.3599 30.9999C33.6899 31.1899 34.0098 31.4099 34.3098 31.6699Z" class="pr-icon-iso-duotone-primary-stroke" stroke-linejoin="round"/>
    <path d="M46.8198 21.92V30.4499C46.8198 31.6599 46.46 32.4699 45.75 32.8699C45.04 33.2799 44.1599 33.1799 43.0999 32.5699C42.6999 32.3399 42.33 32.06 41.98 31.74C41.41 31.22 40.9 30.5699 40.45 29.8099C40.26 29.4899 40.1 29.17 39.96 28.85C39.58 27.95 39.3799 27.05 39.3799 26.16V17.6299C39.3799 17.6299 39.3799 17.5499 39.3899 17.5099C39.3999 16.3699 39.76 15.5999 40.45 15.1999C41.17 14.7999 42.0499 14.8999 43.0999 15.5099C44.1399 16.0999 45.01 16.9999 45.72 18.1999L45.75 18.2599C46.46 19.4899 46.8198 20.71 46.8198 21.92Z" class="pr-icon-iso-duotone-primary-stroke" stroke-linejoin="round"/>
    <path d="M85.4099 65.3099C85.4099 66.0599 85.3898 66.78 85.3298 67.47L70.4199 74.93L70.2 75.04C69.48 75.44 69.1299 76.25 69.1299 77.46C69.1299 78.58 69.4298 79.72 70.0598 80.86C70.0998 80.95 70.15 81.0299 70.2 81.1199C70.68 81.9499 71.2399 82.6399 71.8799 83.1899L66.24 86.02L59.3799 89.45V89.39C61.6299 87.97 63.24 85.8799 64.23 83.1199C64.67 81.9199 64.9799 80.5899 65.1699 79.1299C65.3299 77.9399 65.4099 76.6699 65.4099 75.3099C65.4099 68.1999 63.2399 60.91 58.8999 53.43C54.5699 45.94 49.2999 40.41 43.0999 36.84C42.3999 36.43 41.7098 36.07 41.0298 35.74C39.3298 34.92 37.6999 34.3399 36.1499 34.0099C33.2599 33.3899 30.6398 33.61 28.2698 34.7L34.3098 31.67L39.96 28.85C40.1 29.17 40.26 29.4899 40.45 29.8099C40.9 30.5699 41.41 31.22 41.98 31.74C42.33 32.06 42.6999 32.3399 43.0999 32.5699C44.1599 33.1799 45.04 33.2799 45.75 32.8699L60.51 25.49C61.35 25.88 62.2199 26.33 63.0999 26.84C67.8299 29.56 72.0099 33.42 75.6499 38.42L66.95 42.77L66.71 42.89L61.51 45.97C60.82 46.43 60.48 47.24 60.48 48.42C60.48 49.6 60.82 50.7699 61.51 51.9399C62.19 53.1199 63.0499 54.0099 64.1099 54.6199C65.1599 55.2299 66.03 55.34 66.71 54.95L81.1599 47.73C83.9899 53.71 85.4099 59.5699 85.4099 65.3099Z" class="pr-icon-iso-duotone-primary-stroke" stroke-linejoin="round"/>
</svg>