<svg width="48" height="48" viewBox="0 0 86 110" fill="#c8e7ff" xmlns="http://www.w3.org/2000/svg" stroke-width="1px" stroke-linecap="round" stroke-linejoin="round"><path d="M13.2002 63.3602L12.9702 63.4902L13.5802 63.1802C13.4502 63.2302 13.3202 63.2902 13.2002 63.3602Z" stroke="#229EFF" stroke-linejoin="round"/><path d="M57.8702 84.8702V98.8602C57.8702 102.71 56.6802 105.32 54.2902 106.68C51.9002 108.04 49.0302 107.75 45.6702 105.82L32.9402 98.4702C31.7202 97.7602 30.5502 96.8302 29.4402 95.6602C28.3202 94.4802 27.3302 93.1502 26.4602 91.6602L13.0502 68.4302C12.4902 67.4702 12.1902 66.5002 12.1702 65.5202C12.1402 64.5402 12.4102 63.8702 12.9702 63.4902L13.5802 63.1802H13.6202C14.3302 62.8802 15.1402 62.8702 16.0602 63.1302C17.1502 63.4402 18.2302 64.0802 19.3002 65.0402L24.3302 69.6102V41.0102C24.3302 40.0102 24.6202 39.3502 25.2102 39.0202L25.3902 38.9302C25.9402 38.7102 26.6002 38.8202 27.3802 39.2702C28.2402 39.7702 28.9702 40.5202 29.5502 41.5302C30.1402 42.5402 30.4302 43.5402 30.4302 44.5302V69.0202L33.4802 70.7802V60.2802C33.4802 59.9302 33.5202 59.6302 33.5902 59.3602C33.7202 58.8702 33.9702 58.5102 34.3502 58.3002L34.5302 58.2102C35.0902 57.9802 35.7502 58.1002 36.5302 58.5502C37.3902 59.0402 38.1102 59.8002 38.7002 60.8102C39.2802 61.8102 39.5802 62.8102 39.5802 63.8102V74.3002L42.6302 76.0602V69.0702C42.6302 68.0702 42.9202 67.4102 43.5002 67.0802L43.6802 66.9902C44.2402 66.7602 44.9002 66.8802 45.6702 67.3302C46.5402 67.8302 47.2602 68.5802 47.8502 69.5902C47.9402 69.7402 48.0202 69.9002 48.0902 70.0502C48.5102 70.9002 48.7202 71.7402 48.7202 72.5902V79.5802L51.7702 81.3502C51.7702 80.3502 52.0702 79.6902 52.6502 79.3602L52.8302 79.2702C53.3802 79.0502 54.0502 79.1602 54.8202 79.6102C55.6902 80.1102 56.4102 80.8602 57.0002 81.8702C57.5802 82.8802 57.8702 83.8802 57.8702 84.8702Z" stroke="#229EFF" stroke-linejoin="round"/><path d="M27.5599 6.45009V10.9101L7.55988 20.9101V16.4501C7.55988 15.6901 7.33988 14.9401 6.90988 14.2001C6.47988 13.4501 5.92987 12.8901 5.26987 12.5101C4.60987 12.1201 4.05988 12.0601 3.62988 12.3001L23.6299 2.30009C24.0599 2.06009 24.6099 2.12009 25.2699 2.51009C25.9299 2.89009 26.4799 3.45009 26.9099 4.20009C27.3399 4.94009 27.5599 5.69009 27.5599 6.45009Z" stroke="#229EFF" stroke-linejoin="round"/><path d="M42.6301 72.78V76.06L39.5801 74.3L41.6201 73.28L42.6301 72.78Z" stroke="#229EFF" stroke-linejoin="round"/><path d="M68.7197 62.5902V69.5802L48.7197 79.5802V72.5902C48.7197 71.7402 48.5097 70.9002 48.0897 70.0502C48.0197 69.9002 47.9397 69.7402 47.8497 69.5902C47.2597 68.5802 46.5397 67.8302 45.6697 67.3302C44.8997 66.8802 44.2397 66.7602 43.6797 66.9902L58.7397 59.4602C58.9697 59.8702 59.2297 60.2502 59.5097 60.6202C59.5297 60.6502 59.5497 60.6802 59.5797 60.7002C60.1997 61.4902 60.8797 62.1002 61.6097 62.5302C62.0197 62.7602 62.3597 62.8202 62.6297 62.7002L68.0597 59.9902C68.4997 60.8602 68.7197 61.7202 68.7197 62.5902Z" stroke="#229EFF" stroke-linejoin="round"/><path d="M70.3398 70.5201L52.8298 79.2701L52.6498 79.3601C52.0698 79.6901 51.7698 80.3501 51.7698 81.3501L48.7197 79.5801L68.7197 69.5801L70.3398 70.5201Z" stroke="#229EFF" stroke-linejoin="round"/><path d="M77.8701 74.8702V88.8602C77.8701 92.7102 76.68 95.3202 74.29 96.6802L73.6901 96.9802L54.29 106.68C56.68 105.32 57.8701 102.71 57.8701 98.8602V84.8702C57.8701 83.8802 57.5801 82.8802 57.0001 81.8702C56.4101 80.8602 55.6901 80.1102 54.8201 79.6102C54.0501 79.1602 53.3801 79.0502 52.8301 79.2702L70.3401 70.5202L72.6501 69.3602C73.2301 69.0302 73.9601 69.1102 74.8201 69.6102C75.6901 70.1102 76.4101 70.8602 77.0001 71.8702C77.5801 72.8802 77.8701 73.8802 77.8701 74.8702Z" stroke="#229EFF" stroke-linejoin="round"/><path d="M58.7397 59.4602L43.6797 66.9902L43.4998 67.0802C42.9198 67.4102 42.6298 68.0702 42.6298 69.0702V72.7802L41.6198 73.2802L39.5798 74.3002V63.8102C39.5798 62.8102 39.2798 61.8102 38.6998 60.8102C38.1098 59.8002 37.3898 59.0402 36.5298 58.5502C35.7498 58.1002 35.0898 57.9802 34.5298 58.2102L39.8597 55.5502L44.3298 53.3102L50.4297 50.2602L53.0997 48.9202C53.2497 49.1402 53.3898 49.3602 53.5298 49.5802C55.2798 52.2502 56.7498 55.0202 57.9498 57.8802C58.1798 58.4302 58.4397 58.9602 58.7397 59.4602Z" stroke="#229EFF" stroke-linejoin="round"/><path d="M33.4802 67.5V70.78L30.4302 69.02L33.4802 67.5Z" stroke="#229EFF" stroke-linejoin="round"/><path d="M50.4301 45.2502V50.2602L44.3301 53.3102L39.8601 55.5502L34.5302 58.2102L34.3501 58.3002C33.9701 58.5102 33.7201 58.8702 33.5901 59.3602C33.5201 59.6302 33.4801 59.9302 33.4801 60.2802V67.5002L30.4301 69.0202V44.5302C30.4301 43.5402 30.1401 42.5402 29.5501 41.5302C28.9701 40.5202 28.2401 39.7702 27.3801 39.2702C26.6001 38.8202 25.9401 38.7102 25.3901 38.9302L37.3201 32.9602C39.8001 34.6602 42.1301 36.5402 44.3301 38.6202C45.6401 39.8302 46.9001 41.1302 48.1101 42.4902C48.9201 43.4002 49.6901 44.3202 50.4301 45.2502Z" stroke="#229EFF" stroke-linejoin="round"/><path d="M24.3301 57.8101L13.6201 63.1701" stroke="#229EFF" stroke-linejoin="round"/><path d="M18.2301 34.8601C18.2301 34.1001 18.0101 33.3501 17.5801 32.6001C17.1501 31.8601 16.6001 31.3001 15.9401 30.9101L9.39014 27.1301C12.7401 25.6801 16.4801 25.2501 20.5901 25.8101C24.0801 26.2901 27.7001 27.5001 31.4501 29.4301L17.5801 36.3701C18.0101 36.1201 18.2301 35.6201 18.2301 34.8601Z" stroke="#229EFF" stroke-linejoin="round"/><path d="M62.9799 62.4001C62.8799 62.5401 62.76 62.6401 62.63 62.7001C62.36 62.8201 62.02 62.7601 61.61 62.5301C60.88 62.1001 60.2 61.4901 59.58 60.7001C59.55 60.6801 59.53 60.6501 59.51 60.6201C59.23 60.2501 58.97 59.8701 58.74 59.4601C58.44 58.9601 58.18 58.4301 57.95 57.8801C56.75 55.0201 55.28 52.2501 53.53 49.5801C53.39 49.3601 53.2499 49.1401 53.0999 48.9201C52.2699 47.6801 51.38 46.4601 50.43 45.2501C49.69 44.3201 48.92 43.4001 48.11 42.4901C46.9 41.1301 45.64 39.8301 44.33 38.6201C42.13 36.5401 39.8 34.6601 37.32 32.9601C36.08 32.1101 34.8 31.3001 33.4799 30.5401C32.7999 30.1501 32.12 29.7801 31.45 29.4301C27.7 27.5001 24.08 26.2901 20.59 25.8101C16.48 25.2501 12.74 25.6801 9.38998 27.1301L15.94 30.9101C16.6 31.3001 17.15 31.8601 17.58 32.6001C18.01 33.3501 18.2299 34.1001 18.2299 34.8601C18.2299 35.6201 18.01 36.1201 17.58 36.3701C17.15 36.6101 16.6 36.5501 15.94 36.1601L6.02997 30.4401C5.16997 29.9401 4.43995 29.1901 3.85995 28.1801C3.26995 27.1701 2.97998 26.1701 2.97998 25.1801V13.8101C2.97998 13.0501 3.19997 12.5501 3.62997 12.3001C4.05997 12.0601 4.60996 12.1201 5.26996 12.5101C5.92996 12.8901 6.47997 13.4501 6.90997 14.2001C7.33997 14.9401 7.55997 15.6901 7.55997 16.4501V20.9101C11.22 19.5801 15.26 19.2901 19.68 20.0401C24.1 20.7801 28.6999 22.5301 33.4799 25.2901C34.4299 25.8401 35.3699 26.4101 36.2899 27.0201C38.1099 28.1901 39.87 29.4601 41.58 30.8301C42.51 31.5701 43.43 32.3401 44.33 33.1501C46.45 35.0301 48.49 37.0801 50.43 39.2901C50.89 39.8001 51.33 40.3101 51.77 40.8401C56.43 46.4101 59.8699 52.0501 62.0999 57.7801C62.2799 58.2501 62.46 58.7301 62.63 59.2001C62.78 59.6301 62.92 60.0501 63.06 60.4801C63.31 61.3201 63.2899 61.9701 62.9799 62.4001Z" stroke="#229EFF" stroke-linejoin="round"/><path d="M82.98 52.4002C82.9 52.5202 82.8101 52.6002 82.7001 52.6702H82.6901L68.0601 59.9902L62.6301 62.7002C62.7601 62.6402 62.88 62.5402 62.98 62.4002C63.29 61.9702 63.3101 61.3202 63.0601 60.4802C62.9201 60.0502 62.7801 59.6302 62.6301 59.2002C62.4601 58.7302 62.28 58.2502 62.1 57.7802C59.87 52.0502 56.4301 46.4102 51.7701 40.8402C51.3301 40.3102 50.8901 39.8002 50.4301 39.2902C48.4901 37.0802 46.4501 35.0302 44.3301 33.1502C43.4301 32.3402 42.5101 31.5702 41.5801 30.8302C39.8701 29.4602 38.11 28.1902 36.29 27.0202C35.37 26.4102 34.43 25.8402 33.48 25.2902C28.7 22.5302 24.1001 20.7802 19.6801 20.0402C15.2601 19.2902 11.2201 19.5802 7.56006 20.9102L27.5601 10.9102C31.2201 9.58017 35.2601 9.29017 39.6801 10.0402C44.1001 10.7802 48.7 12.5302 53.48 15.2902C60.29 19.2202 66.3901 24.4102 71.7701 30.8402C77.1601 37.2802 80.9201 43.8202 83.0601 50.4802C83.3101 51.3202 83.29 51.9702 82.98 52.4002Z" stroke="#229EFF" stroke-linejoin="round"/></svg>