<svg width="48" height="48" viewBox="0 0 98 119" class="pr-icon-iso-duotone-secondary"
     xmlns="http://www.w3.org/2000/svg" stroke-width="1px" stroke-linecap="round" stroke-linejoin="round">
    <path d="M27.1895 54.0298C27.3695 54.4298 27.5896 54.8297 27.8196 55.2297C28.0396 55.6097 28.2695 55.9698 28.4995 56.3098L27.1895 54.0298Z" class="pr-icon-iso-duotone-primary-stroke" stroke-linejoin="round"/>
    <path d="M75.5195 114.17C75.5195 115.25 75.2096 115.97 74.5696 116.33C73.9296 116.69 73.1495 116.6 72.2095 116.06L2.55957 75.8497V68.2397L72.2095 108.45C73.1495 108.99 73.9296 109.81 74.5696 110.91C75.2096 112 75.5195 113.09 75.5195 114.17Z" class="pr-icon-iso-duotone-primary-stroke" stroke-linejoin="round"/>
    <path d="M71.269 50.7296C70.999 50.0496 70.659 49.3597 70.259 48.6697C68.959 46.4297 67.3991 44.7796 65.5691 43.7296L63.969 42.8097L25.8691 20.7997L12.509 13.0896C10.869 12.1396 9.449 11.9197 8.229 12.4197L7.81909 12.6196C6.51909 13.3596 5.86914 14.7796 5.86914 16.8696V58.7296C5.86914 60.8296 6.51909 62.9896 7.81909 65.2296C7.87909 65.3296 7.93902 65.4297 7.99902 65.5197C9.25902 67.6197 10.759 69.1697 12.509 70.1797L65.5691 100.81C67.3991 101.87 68.959 102.02 70.259 101.28C71.559 100.54 72.209 99.1197 72.209 97.0297V55.1697C72.209 53.7197 71.899 52.2396 71.269 50.7296ZM51.3892 60.6697C51.2592 60.7397 51.179 60.7697 51.179 60.7697L41.469 65.3496L37.8391 67.0597L37.7991 67.0796C37.1291 67.4596 36.359 67.3897 35.479 66.8797C34.589 66.3697 33.8192 65.5397 33.1492 64.3997L33.1091 64.3296L28.499 56.3097C28.269 55.9697 28.0391 55.6096 27.8191 55.2296C27.5891 54.8296 27.369 54.4297 27.189 54.0297L26.1091 52.1497C25.4991 51.0997 25.189 50.0296 25.189 48.9596C25.189 48.0296 25.4191 47.3796 25.8691 46.9996C25.9391 46.9296 26.0191 46.8696 26.1091 46.8196C26.7691 46.4396 27.559 46.5296 28.469 47.0896C29.379 47.6496 30.139 48.4496 30.749 49.4996L35.479 57.6497L47.249 50.9397C47.909 50.5597 48.6991 50.6297 49.6091 51.1597C50.5191 51.6897 51.309 52.5197 51.979 53.6697C52.579 54.7197 52.9391 55.7497 53.0491 56.7597C53.0591 56.8797 53.0791 56.9996 53.0791 57.1196C53.2191 59.4396 51.9092 60.3897 51.3892 60.6697Z" class="pr-icon-iso-duotone-primary-stroke" stroke-linejoin="round"/>
    <path d="M27.1895 54.0298C27.3695 54.4298 27.5896 54.8297 27.8196 55.2297C28.0396 55.6097 28.2695 55.9698 28.4995 56.3098L27.1895 54.0298Z" class="pr-icon-iso-duotone-primary-stroke" stroke-linejoin="round"/>
    <path d="M95.5195 104.17C95.5195 105.25 95.2096 105.969 94.5696 106.329L74.5696 116.329C75.2096 115.969 75.5195 115.25 75.5195 114.17C75.5195 113.09 75.2096 112 74.5696 110.91C73.9296 109.81 73.1495 108.989 72.2095 108.449L2.55957 68.2395L7.99951 65.5195C9.25951 67.6195 10.7595 69.1696 12.5095 70.1796L65.5696 100.81C67.3996 101.87 68.9595 102.02 70.2595 101.28L77.5896 97.6195L84.6497 94.0895L92.2095 98.4495C93.1495 98.9895 93.9296 99.8095 94.5696 100.91C95.2096 102 95.5195 103.09 95.5195 104.17Z" class="pr-icon-iso-duotone-primary-stroke" stroke-linejoin="round"/>
    <path d="M53.0796 57.1198C53.2196 59.4398 51.9096 60.3899 51.3896 60.6699C51.2596 60.7399 51.1794 60.7698 51.1794 60.7698L41.4695 65.3498L37.8396 67.0599L37.7996 67.0798C37.1296 67.4598 36.3595 67.3898 35.4795 66.8798C34.5895 66.3698 33.8197 65.5399 33.1497 64.3999L33.1096 64.3298L28.4995 56.3099L27.1895 54.0299L26.1096 52.1499C25.4996 51.0999 25.1895 50.0298 25.1895 48.9598C25.1895 48.0298 25.4196 47.3798 25.8696 46.9998C25.9396 46.9298 26.0196 46.8698 26.1096 46.8198C26.7696 46.4398 27.5595 46.5298 28.4695 47.0898C29.3795 47.6498 30.1395 48.4498 30.7495 49.4998L35.4795 57.6499L47.2495 50.9399C47.9095 50.5599 48.6996 50.6299 49.6096 51.1599C50.5196 51.6899 51.3095 52.5199 51.9795 53.6699C52.5795 54.7199 52.9396 55.7498 53.0496 56.7598C53.0596 56.8798 53.0796 56.9998 53.0796 57.1198Z" class="pr-icon-iso-duotone-primary-stroke" stroke-linejoin="round"/>
    <path d="M92.2095 45.1698V87.0297C92.2095 89.1197 91.5595 90.5397 90.2595 91.2797L89.8496 91.4797L84.6497 94.0897L77.5896 97.6197L70.2595 101.28C71.5595 100.54 72.2095 99.1197 72.2095 97.0297V55.1698C72.2095 53.7198 71.8995 52.2397 71.2695 50.7297C70.9995 50.0497 70.6595 49.3598 70.2595 48.6698C68.9595 46.4298 67.3996 44.7797 65.5696 43.7297L63.9695 42.8098L25.8696 20.7998L12.5095 13.0897C10.8695 12.1397 9.44949 11.9198 8.22949 12.4198L27.8196 2.61971C29.1196 1.87971 30.6795 2.02968 32.5095 3.08968L85.5696 33.7297C87.3996 34.7797 88.9595 36.4298 90.2595 38.6698C91.5595 40.9098 92.2095 43.0698 92.2095 45.1698Z" class="pr-icon-iso-duotone-primary-stroke" stroke-linejoin="round"/>
</svg>