<svg width="24" height="24" viewBox="0 0 98 123" class="pr-icon-iso-duotone-secondary" xmlns="http://www.w3.org/2000/svg" stroke-width="1px" stroke-linecap="round" stroke-linejoin="round">
    <path d="M51.55 101.128C52.15 100.898 52.73 100.618 53.3 100.288L53.78 100.018L51.55 101.128Z" class="pr-icon-iso-duotone-primary-stroke" stroke-linejoin="round"/>
    <path d="M74.24 86.8675C74.24 87.9175 73.91 88.6375 73.24 89.0175L67.98 91.9875L53.8599 99.9774L53.78 100.017L51.55 101.127C46.87 102.987 41.3899 102.098 35.0999 98.4576C28.0099 94.3675 21.9399 87.9675 16.8999 79.2775C11.8599 70.5775 9.32983 62.1575 9.32983 54.0275C9.32983 45.8975 11.8599 40.3775 16.8999 37.5075L21.72 34.6575C21.99 34.5075 22.33 34.5375 22.71 34.7575C23.1 34.9875 23.44 35.3375 23.71 35.8175C25.32 38.5875 26.1199 41.2875 26.1199 43.9275C26.1199 46.5675 25.32 48.3475 23.71 49.2575L22.55 49.9275C21.88 50.2975 21.55 51.0175 21.55 52.0675C21.55 53.1175 21.88 54.2075 22.55 55.3575L25.54 60.5175C26.98 63.0075 27.7 65.4175 27.7 67.7775C27.7 70.1375 26.98 71.7175 25.54 72.5375C25.04 72.8175 24.79 73.3575 24.79 74.1575C24.79 74.9575 25.04 75.7775 25.54 76.6375C26.04 77.4975 26.6298 78.1275 27.3298 78.5275C28.0198 78.9275 28.6199 78.9875 29.1099 78.6975C31.5499 77.3075 32.77 74.6575 32.77 70.7475C32.77 66.8375 31.52 62.7375 29.03 58.4375L27.2 55.2775C28.52 54.5275 29.4899 53.4075 30.1099 51.9075C30.1699 51.7675 30.23 51.6274 30.28 51.4774C30.89 49.7574 31.14 47.7875 31.03 45.5675L45.47 37.3275L45.8999 37.0874L46.1099 36.9875C46.7399 36.7275 47.46 36.8375 48.27 37.3075C49.18 37.8375 49.9699 38.6775 50.6399 39.8175C50.6699 39.8675 50.69 39.9076 50.71 39.9576C51.33 41.0576 51.6399 42.1075 51.6399 43.1175C51.6399 44.1275 51.2999 44.8775 50.6399 45.2575L48.05 46.7375L44.52 48.7475L35.0999 54.1175L38.5898 60.1375L47.4099 55.1575L51.23 52.9975L58.02 49.1575L58.6199 48.8175L58.8398 48.7076C59.3998 48.4776 60.05 48.5375 60.76 48.9175C60.82 48.9375 60.8799 48.9675 60.9399 49.0075C61.8299 49.5275 62.61 50.3575 63.27 51.4975C63.94 52.6475 64.27 53.7275 64.27 54.7475C64.27 55.7675 63.94 56.4574 63.27 56.8374L52.6199 62.9674L45.72 66.9275L43.3298 68.3075L46.8201 74.3275L64.4299 64.2875L64.6399 64.1875C65.2699 63.9275 65.99 64.0375 66.8 64.5075C67.72 65.0375 68.5099 65.8675 69.1699 67.0175C69.8399 68.1675 70.1699 69.2575 70.1699 70.3075C70.1699 71.3575 69.8399 72.0776 69.1699 72.4576L51.55 82.4975L54.95 88.3675L55.04 88.5175L55.1199 88.4674L68.51 80.8474L68.72 80.7475C69.34 80.4875 70.0599 80.5975 70.8699 81.0675C71.7899 81.5975 72.58 82.4275 73.24 83.5775C73.91 84.7275 74.24 85.8275 74.24 86.8675Z" class="pr-icon-iso-duotone-primary-stroke" stroke-linejoin="round"/>
    <path d="M75.8201 106.717C75.8201 107.197 75.81 107.667 75.79 108.127C75.51 113.707 73.57 117.537 69.96 119.587C66.05 121.817 61.33 121.327 55.79 118.127C54.85 117.587 54.0599 116.747 53.4199 115.617C52.7899 114.487 52.47 113.387 52.47 112.307C52.47 111.227 52.7899 110.497 53.4199 110.137C54.0599 109.777 54.85 109.867 55.79 110.407C59.45 112.517 62.5799 112.827 65.1799 111.347C67.7899 109.867 69.0898 107.017 69.0898 102.827C69.0898 102.637 69.0899 102.457 69.1299 102.287C69.2199 101.497 69.5398 100.947 70.0898 100.637L70.3 100.537C70.84 100.307 71.48 100.367 72.21 100.737C72.3 100.777 72.4 100.827 72.5 100.887C72.56 100.927 72.6299 100.957 72.6899 101.007C73.5499 101.547 74.2699 102.347 74.8599 103.397C75.4999 104.527 75.8201 105.627 75.8201 106.717Z" class="pr-icon-iso-duotone-primary-stroke" stroke-linejoin="round"/>
    <path d="M29.22 20.6675C29.13 21.4575 28.82 21.9975 28.3 22.2975L28.0999 22.3975L8.30005 32.2975C8.93005 31.9375 9.25 31.2175 9.25 30.1375C9.25 25.9375 10.5499 23.0974 13.1599 21.6174C15.7599 20.1274 18.89 20.4375 22.55 22.5575C23.49 23.0975 24.29 23.1775 24.96 22.7975L26.2 22.1775L29.22 20.6675Z" class="pr-icon-iso-duotone-primary-stroke" stroke-linejoin="round"/>
    <path d="M25.96 20.6074C25.96 21.1174 25.88 21.5574 25.73 21.9074C25.57 22.2974 25.31 22.5974 24.96 22.7974C24.29 23.1774 23.49 23.0975 22.55 22.5575C18.89 20.4375 15.7599 20.1274 13.1599 21.6174C10.5499 23.0974 9.25 25.9374 9.25 30.1374C9.25 31.2174 8.93005 31.9374 8.30005 32.2974C7.66005 32.6674 6.86993 32.5774 5.92993 32.0274C4.98993 31.4874 4.18002 30.6574 3.52002 29.5374C2.85002 28.4274 2.52002 27.3274 2.52002 26.2474C2.52002 19.8874 4.46988 15.5974 8.37988 13.3674L9.30005 12.9074C13.02 11.2374 17.44 11.8775 22.55 14.8275H22.5601C23.5001 15.3875 24.29 16.1975 24.96 17.3175C25.62 18.4275 25.96 19.5274 25.96 20.6074Z" class="pr-icon-iso-duotone-primary-stroke" stroke-linejoin="round"/>
    <path d="M74.6199 77.7976L68.72 80.7476L68.51 80.8475L55.1199 88.4675C55.1199 88.4675 55.1199 88.4576 55.0999 88.4576C55.0499 88.4276 55 88.3976 54.95 88.3676L51.55 82.4976L71.55 72.4976L74.6199 77.7976Z" class="pr-icon-iso-duotone-primary-stroke" stroke-linejoin="round"/>
    <path d="M66.26 63.3676L64.6399 64.1876L64.4299 64.2876L46.8201 74.3276L43.3298 68.3076L45.8101 67.0676L52.48 63.7375V63.7275L63.3298 58.3076L66.26 63.3676Z" class="pr-icon-iso-duotone-primary-stroke" stroke-linejoin="round"/>
    <path d="M84.27 44.7476C84.27 45.7676 83.94 46.4575 83.27 46.8375L63.3298 58.3076L52.48 63.7275L45.8101 67.0676L43.3298 68.3076L45.72 66.9276L52.6199 62.9675L63.27 56.8375C63.94 56.4575 64.27 55.7676 64.27 54.7476C64.27 53.7276 63.94 52.6476 63.27 51.4976C62.61 50.3576 61.8299 49.5276 60.9399 49.0076C60.8799 48.9676 60.82 48.9376 60.76 48.9176C60.05 48.5376 59.3998 48.4776 58.8398 48.7076L78.6199 38.8176C79.2799 38.4376 80.0599 38.4976 80.9399 39.0076C81.8299 39.5276 82.61 40.3576 83.27 41.4976C83.94 42.6476 84.27 43.7276 84.27 44.7476Z" class="pr-icon-iso-duotone-primary-stroke" stroke-linejoin="round"/>
    <path d="M58.02 49.1575L51.23 52.9974L47.4099 55.1575L38.5898 60.1375L35.0999 54.1174L44.8101 49.2574L48.45 47.4375L55.0999 44.1174L58.02 49.1575Z" class="pr-icon-iso-duotone-primary-stroke" stroke-linejoin="round"/>
    <path d="M71.6399 33.1176C71.6399 34.1676 71.2999 34.8776 70.6399 35.2576L55.0999 44.1176L48.45 47.4376L44.8101 49.2576L35.0999 54.1176L44.52 48.7476L48.05 46.7376L50.6399 45.2576C51.2999 44.8776 51.6399 44.1676 51.6399 43.1176C51.6399 42.0676 51.33 41.0577 50.71 39.9577C50.69 39.9077 50.6699 39.8676 50.6399 39.8176C49.9699 38.6776 49.18 37.8376 48.27 37.3076C47.46 36.8376 46.7399 36.7276 46.1099 36.9876L65.8999 27.0875C66.5699 26.7075 67.36 26.7776 68.27 27.3076C69.18 27.8376 69.9699 28.6776 70.6399 29.8176C71.2999 30.9676 71.6399 32.0676 71.6399 33.1176Z" class="pr-icon-iso-duotone-primary-stroke" stroke-linejoin="round"/>
    <path d="M45.47 37.3275L31.03 45.5675C31.14 47.7875 30.89 49.7574 30.28 51.4774C30.23 51.6274 30.1699 51.7675 30.1099 51.9075C29.4899 53.4075 28.52 54.5275 27.2 55.2775L29.03 58.4375C31.52 62.7375 32.77 66.8375 32.77 70.7475C32.77 74.6575 31.5499 77.3075 29.1099 78.6975C28.6199 78.9875 28.0198 78.9275 27.3298 78.5275C26.6298 78.1275 26.04 77.4975 25.54 76.6375C25.04 75.7775 24.79 74.9475 24.79 74.1575C24.79 73.3675 25.04 72.8175 25.54 72.5375C26.98 71.7175 27.7 70.1275 27.7 67.7775C27.7 65.4275 26.98 63.0075 25.54 60.5175L22.55 55.3575C21.88 54.2075 21.55 53.1175 21.55 52.0675C21.55 51.0175 21.88 50.2975 22.55 49.9275L23.71 49.2575C25.32 48.3475 26.1199 46.5675 26.1199 43.9275C26.1199 41.2875 25.32 38.5875 23.71 35.8175C23.44 35.3375 23.1 34.9875 22.71 34.7575C22.33 34.5375 21.99 34.5075 21.72 34.6575L41.72 24.6575C41.99 24.5075 42.33 24.5375 42.71 24.7575C43.1 24.9875 43.44 25.3375 43.71 25.8175C45.32 28.5875 46.1199 31.2875 46.1199 33.9275C46.1199 35.2975 45.91 36.4275 45.47 37.3275Z" class="pr-icon-iso-duotone-primary-stroke" stroke-linejoin="round"/>
    <path d="M90.1699 60.3073C90.1699 61.3573 89.8399 62.0773 89.1699 62.4573L71.55 72.4973L51.55 82.4973L69.1699 72.4573C69.8399 72.0773 70.1699 71.3573 70.1699 70.3073C70.1699 69.2573 69.8399 68.1673 69.1699 67.0173C68.5099 65.8673 67.72 65.0373 66.8 64.5073C65.99 64.0373 65.2699 63.9273 64.6399 64.1873L66.26 63.3672L84.4299 54.2873C85.0999 53.9073 85.89 53.9773 86.8 54.5073C87.72 55.0373 88.5099 55.8673 89.1699 57.0173C89.8399 58.1673 90.1699 59.2573 90.1699 60.3073Z" class="pr-icon-iso-duotone-primary-stroke" stroke-linejoin="round"/>
    <path d="M94.24 76.8673C94.24 77.9173 93.91 78.6373 93.24 79.0173L73.3 90.2874L71.97 90.9474L53.8599 99.9773L67.98 91.9873L73.24 89.0173C73.91 88.6373 74.24 87.9173 74.24 86.8673C74.24 85.8173 73.91 84.7274 73.24 83.5774C72.58 82.4274 71.7899 81.5974 70.8699 81.0674C70.0599 80.5974 69.34 80.4873 68.72 80.7473L74.6199 77.7974L88.51 70.8473C89.17 70.4673 89.9599 70.5374 90.8699 71.0674C91.7899 71.5974 92.58 72.4274 93.24 73.5774C93.91 74.7274 94.24 75.8273 94.24 76.8673Z" class="pr-icon-iso-duotone-primary-stroke" stroke-linejoin="round"/>
    <path d="M45.96 10.6076C45.96 11.6876 45.62 12.4176 44.96 12.7976L29.22 20.6676L26.2 22.1776L24.96 22.7976C25.31 22.5976 25.57 22.2976 25.73 21.9076C25.88 21.5576 25.96 21.1176 25.96 20.6076C25.96 19.5276 25.62 18.4277 24.96 17.3177C24.29 16.1977 23.5001 15.3877 22.5601 14.8277H22.55C17.44 11.8777 13.02 11.2376 9.30005 12.9076L28.3799 3.36758C32.2899 1.14758 37.01 1.62767 42.55 4.82767C43.49 5.37767 44.29 6.19766 44.96 7.31766C45.62 8.42766 45.96 9.52757 45.96 10.6076Z" class="pr-icon-iso-duotone-primary-stroke" stroke-linejoin="round"/>
    <path d="M95.8201 96.7175C95.8201 103.068 93.87 107.368 89.96 109.588L89.04 110.048L69.96 119.588C73.57 117.538 75.51 113.708 75.79 108.128C75.81 107.668 75.8201 107.198 75.8201 106.718C75.8201 105.628 75.4999 104.528 74.8599 103.398C74.2699 102.348 73.5499 101.548 72.6899 101.008C72.6299 100.958 72.56 100.928 72.5 100.888C72.4 100.828 72.3 100.778 72.21 100.738C71.48 100.368 70.84 100.308 70.3 100.538L90.0898 90.6376C90.7498 90.2576 91.55 90.3376 92.5 90.8876C93.44 91.4276 94.2299 92.2676 94.8599 93.3976C95.4999 94.5276 95.8201 95.6275 95.8201 96.7175Z" class="pr-icon-iso-duotone-primary-stroke" stroke-linejoin="round"/>
    <path d="M69.1299 102.288C69.0999 102.458 69.0898 102.638 69.0898 102.828C69.0898 107.018 67.7899 109.868 65.1799 111.348C62.5799 112.828 59.45 112.518 55.79 110.408C54.85 109.868 54.0599 109.778 53.4199 110.138L69.1299 102.288Z" class="pr-icon-iso-duotone-primary-stroke" stroke-linejoin="round"/>
</svg>