<svg width="48" height="48" viewBox="0 0 104 116" class="pr-icon-iso-duotone-secondary"
     xmlns="http://www.w3.org/2000/svg" stroke-width="1px" stroke-linecap="round" stroke-linejoin="round">
    <path d="M15.4402 13.8081L13.9102 14.5781C14.4102 14.2881 14.9202 14.0381 15.4402 13.8081Z" class="pr-icon-iso-duotone-primary-stroke" stroke-linejoin="round"/>
    <path d="M81.5101 85.7482C81.5101 92.0282 80.4701 97.3382 78.3901 101.658C78.0601 102.348 77.7001 103.018 77.3301 103.648C75.4301 106.898 73.0301 109.378 70.1301 111.078L67.9501 112.168H67.9301C64.8301 113.488 61.3101 113.978 57.3601 113.648C52.5401 113.258 47.4001 111.478 41.9201 108.318C35.3201 104.508 29.2701 99.3482 23.7601 92.8282C18.2501 86.3182 13.6801 79.2182 10.0501 71.5182L26.2801 62.2682L35.3901 76.2682C36.1801 77.4782 37.0901 78.3482 38.1101 78.8582C39.1201 79.3682 39.9901 79.4282 40.7001 79.0182C40.7101 79.0182 40.7201 79.0182 40.7301 79.0082L57.7501 69.3082V76.5782C57.7501 77.8582 58.1301 79.1582 58.8901 80.4682C59.6501 81.7782 60.5901 82.7582 61.7101 83.3982C62.8401 84.0482 63.7801 84.1582 64.5301 83.7282C65.2901 83.2882 65.6701 82.4282 65.6701 81.1482V62.9782C65.6701 61.6882 65.2901 60.3882 64.5301 59.0782C63.7801 57.7682 62.8401 56.7882 61.7101 56.1482L61.3501 55.9382L60.6401 55.5282L53.4701 51.3882L45.8801 46.9982C44.7601 46.3582 43.8201 46.2482 43.0601 46.6782C42.3001 47.1182 41.9201 47.9682 41.9201 49.2582C41.9201 50.5482 42.3001 51.8482 43.0601 53.1582C43.1701 53.3482 43.2901 53.5282 43.4001 53.7082C43.4401 53.7582 43.4701 53.7982 43.5101 53.8482C44.1701 54.8082 44.9701 55.5582 45.8801 56.0882L50.5101 58.7582L52.2101 59.7482L51.4301 60.1882L37.7601 67.9882L32.6101 60.0582L32.1401 59.3382L28.6601 53.9782C27.8701 52.7682 26.9601 51.9082 25.9401 51.3882C25.8501 51.3482 25.7601 51.3082 25.6801 51.2782H25.6701C24.7501 50.8682 23.9801 50.8682 23.3101 51.2382L5.89008 61.1682C4.77008 57.6482 3.90008 54.0882 3.27008 50.5082C2.65008 46.9282 2.33008 43.4382 2.33008 40.0282C2.33008 33.7482 3.37007 28.4382 5.45007 24.1182C7.53007 19.7882 10.3501 16.6082 13.9101 14.5782L15.4401 13.8082L15.5601 13.7582C18.7401 12.3282 22.3801 11.7882 26.4801 12.1282H26.5101C31.3201 12.5282 36.4501 14.3082 41.9201 17.4582C47.4001 20.6282 52.5401 24.7882 57.3601 29.9482C59.3701 32.1082 61.2701 34.3482 63.0601 36.6782C65.5701 39.9282 67.8601 43.3382 69.9301 46.9182C70.3601 47.6582 70.7801 48.4082 71.1801 49.1582C71.3401 49.4482 71.5001 49.7382 71.6401 50.0282C71.6601 50.0382 71.6601 50.0482 71.6601 50.0582C73.3901 53.3082 74.9201 56.6382 76.2301 60.0482C76.2501 60.0782 76.2601 60.1082 76.2701 60.1482C76.8001 61.4982 77.2901 62.8682 77.7501 64.2482C77.9701 64.9082 78.1801 65.5682 78.3901 66.2282C78.9801 68.1382 79.4901 70.0282 79.9101 71.9082C80.9801 76.6382 81.5101 81.2482 81.5101 85.7482Z" class="pr-icon-iso-duotone-primary-stroke" stroke-linejoin="round"/>
    <path d="M70.1302 111.078C70.0602 111.118 70.0002 111.158 69.9302 111.198C69.2902 111.568 68.6302 111.888 67.9502 112.168L70.1302 111.078Z" class="pr-icon-iso-duotone-primary-stroke" stroke-linejoin="round"/>
    <path d="M101.51 75.7482C101.51 82.0282 100.47 87.3382 98.39 91.6582C96.31 95.9882 93.4901 99.1682 89.9301 101.198C89.3901 101.508 88.83 101.788 88.26 102.028L70.1301 111.078C73.0301 109.378 75.43 106.898 77.33 103.648C77.7 103.018 78.06 102.348 78.39 101.658C80.47 97.3382 81.51 92.0282 81.51 85.7482C81.51 81.2482 80.98 76.6382 79.91 71.9082C79.49 70.0282 78.98 68.1382 78.39 66.2282C78.18 65.5682 77.9701 64.9082 77.7501 64.2482C77.2901 62.8682 76.8 61.4982 76.27 60.1482C76.26 60.1082 76.25 60.0782 76.23 60.0482C74.92 56.6382 73.39 53.3082 71.66 50.0582C71.66 50.0582 71.66 50.0382 71.64 50.0282C71.5 49.7382 71.3401 49.4482 71.1801 49.1582C70.7801 48.4082 70.3601 47.6582 69.9301 46.9182C67.8601 43.3382 65.5701 39.9282 63.0601 36.6782C61.2701 34.3482 59.37 32.1082 57.36 29.9482C52.54 24.7882 47.4 20.6282 41.92 17.4582C36.45 14.3082 31.32 12.5282 26.51 12.1282H26.48C22.38 11.7882 18.7401 12.3282 15.5601 13.7582L33.91 4.57819C37.47 2.54819 41.66 1.72819 46.48 2.12819C51.3 2.51819 56.44 4.29819 61.92 7.45819C67.4 10.6282 72.54 14.7882 77.36 19.9482C82.18 25.1182 86.3701 30.7782 89.9301 36.9182C93.4901 43.0682 96.31 49.4982 98.39 56.2282C100.47 62.9582 101.51 69.4582 101.51 75.7482Z" class="pr-icon-iso-duotone-primary-stroke" stroke-linejoin="round"/>
    <path d="M61.35 55.9383L57.76 57.9883L51.91 60.9183L37.76 67.9883L51.4301 60.1883L52.21 59.7483L57.26 57.2183L60.64 55.5283L61.35 55.9383Z" class="pr-icon-iso-duotone-primary-stroke" stroke-linejoin="round"/>
    <path d="M60.6399 55.5283L57.2599 57.2183L52.2099 59.7483L50.5099 58.7583L45.8799 56.0883C44.9699 55.5583 44.1699 54.8083 43.5099 53.8483C43.4699 53.7983 43.4399 53.7583 43.3999 53.7083C43.2899 53.5283 43.1699 53.3483 43.0599 53.1583C42.2999 51.8483 41.9199 50.5483 41.9199 49.2583C41.9199 47.9683 42.2999 47.1183 43.0599 46.6783C43.8199 46.2483 44.7599 46.3583 45.8799 46.9983L53.4699 51.3883L60.6399 55.5283Z" class="pr-icon-iso-duotone-primary-stroke" stroke-linejoin="round"/>
    <path d="M65.67 65.1782V81.1482C65.67 82.4282 65.29 83.2882 64.53 83.7282C63.78 84.1582 62.84 84.0482 61.71 83.3982C60.59 82.7582 59.65 81.7782 58.89 80.4682C58.13 79.1582 57.75 77.8582 57.75 76.5782V69.3082L58.38 68.9782L65.67 65.1782Z" class="pr-icon-iso-duotone-primary-stroke" stroke-linejoin="round"/>
    <path d="M58.3801 68.9784L57.7501 69.3084L40.73 79.0084C40.73 79.0084 40.71 79.0184 40.7 79.0184C39.99 79.4284 39.12 79.3684 38.11 78.8584C37.09 78.3484 36.18 77.4784 35.39 76.2684L26.28 62.2684L32.14 59.3384L32.61 60.0584L37.76 67.9884L51.91 60.9184L55.39 66.2684C56.18 67.4784 57.09 68.3484 58.11 68.8584C58.2 68.9084 58.2901 68.9484 58.3801 68.9784Z" class="pr-icon-iso-duotone-primary-stroke" stroke-linejoin="round"/>
    <path d="M25.6702 51.278L5.89014 61.168L23.3102 51.238C23.9802 50.868 24.7502 50.868 25.6702 51.278Z" class="pr-icon-iso-duotone-primary-stroke" stroke-linejoin="round"/>
</svg>