<svg width="48" height="48" viewBox="0 0 95 114" class="pr-icon-iso-duotone-secondary"
     xmlns="http://www.w3.org/2000/svg" stroke-width="1px" stroke-linecap="round" stroke-linejoin="round">
    <path d="M92.1711 51.8799V96.1599C92.1711 98.3799 91.4811 99.8699 90.1111 100.66L70.1111 110.66C71.4811 109.87 72.1711 108.38 72.1711 106.16V61.8799C72.1711 59.6599 71.4811 57.3699 70.1111 54.9999C68.7311 52.6299 67.0811 50.8899 65.1511 49.7799L51.1211 41.6699L71.1211 31.6699L85.1511 39.7799C87.0811 40.8899 88.7311 42.6299 90.1111 44.9999C91.4811 47.3699 92.1711 49.6599 92.1711 51.8799Z" class="pr-icon-iso-duotone-primary-stroke" stroke-linejoin="round"/>
    <path d="M71.1213 23.62V31.67L51.1213 41.67V33.62C51.1213 31.41 50.4313 29.12 49.0613 26.75C47.8913 24.74 46.5314 23.18 44.9614 22.08C44.6814 21.87 44.3913 21.69 44.1013 21.52L30.0713 13.42C28.1413 12.3 26.4913 12.14 25.1113 12.92L32.3613 9.30004L45.1113 2.92004C46.4913 2.14004 48.1413 2.30004 50.0713 3.42004L64.1013 11.52C66.0313 12.63 67.6813 14.38 69.0613 16.75C70.4313 19.12 71.1213 21.41 71.1213 23.62Z" class="pr-icon-iso-duotone-primary-stroke" stroke-linejoin="round"/>
    <path d="M32.3606 9.29999L25.1106 12.92C23.7406 13.7 23.0505 15.2 23.0505 17.42V25.47L22.0007 24.86L9.02051 17.37C7.09051 16.25 5.44055 16.09 4.06055 16.87L24.0605 6.86999C25.4405 6.08999 27.0905 6.24999 29.0205 7.36999L32.3606 9.29999Z" class="pr-icon-iso-duotone-primary-stroke" stroke-linejoin="round"/>
    <path d="M70.1108 55C68.7308 52.63 67.0809 50.89 65.1509 49.78L51.1208 41.67V33.62C51.1208 31.41 50.4308 29.12 49.0608 26.75C47.8908 24.74 46.5309 23.18 44.9609 22.08C44.6809 21.87 44.3908 21.69 44.1008 21.52L30.0708 13.42C28.1408 12.3 26.4908 12.14 25.1108 12.92C23.7408 13.7 23.0508 15.2 23.0508 17.42V25.47L22.001 24.86L9.02075 17.37C7.09075 16.25 5.44079 16.09 4.06079 16.87C2.69079 17.65 2.00098 19.15 2.00098 21.37V65.65C2.00098 67.87 2.69079 70.16 4.06079 72.53C5.44079 74.9 7.09075 76.64 9.02075 77.75L65.1509 110.16C67.0809 111.28 68.7308 111.44 70.1108 110.66C71.4808 109.87 72.1709 108.38 72.1709 106.16V61.88C72.1709 59.66 71.4808 57.37 70.1108 55ZM44.1008 37.62L30.0708 29.52V21.47L37.5408 25.78L44.1008 29.57V37.62Z" class="pr-icon-iso-duotone-primary-stroke" stroke-linejoin="round"/>
    <path d="M37.5403 25.78L30.0703 29.52V21.47L37.5403 25.78Z" class="pr-icon-iso-duotone-primary-stroke" stroke-linejoin="round"/>
    <path d="M44.1003 29.57V37.62L30.0703 29.52L37.5403 25.78L44.1003 29.57Z" class="pr-icon-iso-duotone-primary-stroke" stroke-linejoin="round"/>
</svg>