<svg xmlns="http://www.w3.org/2000/svg" viewBox="0 0 512 512"><!--! Font Awesome Pro 6.7.2 by @fontawesome - https://fontawesome.com License - https://fontawesome.com/license (Commercial License) Copyright 2024 Fonticons, Inc. --><path d="M16 40c0-4.4-3.6-8-8-8s-8 3.6-8 8L0 408c0 39.8 32.2 72 72 72l432 0c4.4 0 8-3.6 8-8s-3.6-8-8-8L72 464c-30.9 0-56-25.1-56-56L16 40zM116.3 211.7c3.1-8.7 8-20.2 14.6-31.7c13.6-23.4 33.6-44 61.1-44c22.1 0 38.3 10.3 52.1 27.1c14.1 17.1 25.1 40.1 36.7 64.3l.3 .6c11.2 23.6 23 48.3 38.5 67.1C335.4 314.3 355.8 328 384 328c36.5 0 60.6-27.4 74.9-52c7.3-12.5 12.5-25 15.9-34.3c1.7-4.7 2.9-8.6 3.7-11.3c1.6-5.3 3.2-12.2-4.6-14.2c-7.3-1.8-9.2 4.5-10.8 9.6c-.7 2.5-1.9 6.1-3.5 10.4c-3.1 8.7-8 20.2-14.6 31.7c-13.6 23.4-33.6 44-61.1 44c-22.1 0-38.3-10.3-52.1-27.1c-14.1-17.1-25.1-40.1-36.7-64.3l-.3-.6s0 0 0 0c-11.2-23.6-23-48.3-38.5-67.1C240.6 133.7 220.2 120 192 120c-36.5 0-60.5 27.4-74.9 52c-7.3 12.5-12.5 25-15.9 34.3c-1.7 4.7-2.9 8.6-3.7 11.3c-1.6 5.3-3.2 12.2 4.6 14.2c7.3 1.8 9.2-4.5 10.8-9.6c.7-2.5 1.9-6.1 3.5-10.4z"/></svg>