<svg xmlns="http://www.w3.org/2000/svg" viewBox="0 0 640 512"><!--! Font Awesome Pro 6.7.2 by @fontawesome - https://fontawesome.com License - https://fontawesome.com/license (Commercial License) Copyright 2024 Fonticons, Inc. --><path d="M142.4 417.2c4.3-3.1 9.9-3.9 14.9-2.1c30 10.9 63.4 17 98.7 17c11.5 0 22.7-.6 33.7-1.9c-1 5.4-1.6 10.8-1.7 16.2c-10.5 1.1-21.2 1.6-32 1.6c-37.1 0-72.3-6.4-104.1-17.9c-11.9 8.7-31.3 20.6-54.3 30.6C73.6 471.1 44.7 480 16 480c-6.5 0-12.3-3.9-14.8-9.9c-2.5-6-1.1-12.8 3.4-17.4c0 0 0 0 0 0s0 0 0 0s0 0 0 0c0 0 0 0 0 0l.3-.3c.3-.3 .7-.7 1.3-1.4c1.1-1.2 2.8-3.1 4.9-5.7c4.1-5 9.6-12.4 15.2-21.6c10-16.6 19.5-38.4 21.4-62.9C17.7 326.8 0 285.1 0 240C0 125.1 114.6 32 256 32c122.6 0 225.1 70.1 250.2 163.6c-5.7-1.6-11.6-2.7-17.7-3.2C462.2 111 370.3 48 256 48C120.2 48 16 136.9 16 240c0 40.7 15.9 78.8 43.7 110.3c2.9 3.2 4.3 7.5 3.9 11.8c-2.2 27.7-12.9 52-23.6 69.9c-6 10-12 18-16.5 23.5l-12.2-10 12.2 10c-2.2 2.7-4.1 4.9-5.4 6.3c-.7 .7-1.2 1.3-1.5 1.6c0 0 0 0-.1 .1l-.3 .3c0 0 0 0 0 0s0 0 0 0L16 464c25.6 0 52.3-8 75.2-18c21.8-9.5 40.3-20.9 51.2-28.8zM528 288c0-26.5-21.5-48-48-48s-48 21.5-48 48c0 14.6 6.5 27.7 16.8 36.5c0 0 0 0 0 0c4 3.5 8.7 6.3 13.7 8.2c0 0 0 0 0 0c5.4 2.1 11.3 3.3 17.5 3.3c26.5 0 48-21.5 48-48zm-73.8 58.6l-30.7 51.1c13.6 10.6 21.9 26 24 42.3l65 0c2.1-16.3 10.4-31.7 24-42.3l-14.1-23.5c4.8-2.4 9.4-5.1 13.7-8.2l14.1 23.5c29.5-13 64.7-2 81.2 26.6c17.7 30.6 7.2 69.7-23.4 87.4s-69.7 7.2-87.4-23.4c-4.4-7.6-7.1-15.8-8.1-24l-65 0c-1 8.2-3.7 16.4-8.1 24c-17.7 30.6-56.8 41.1-87.4 23.4s-41.1-56.8-23.4-87.4c16.5-28.6 51.7-39.6 81.2-26.6l30.7-51.1C425.6 326.6 416 308.4 416 288c0-35.3 28.7-64 64-64s64 28.7 64 64s-28.7 64-64 64c-9.2 0-17.9-1.9-25.8-5.4zM342.4 424a48 48 0 1 0 83.1 48 48 48 0 1 0 -83.1-48zm275.1 0a48 48 0 1 0 -83.1 48 48 48 0 1 0 83.1-48z"/></svg>