<svg xmlns="http://www.w3.org/2000/svg" viewBox="0 0 448 512"><!--! Font Awesome Pro 6.7.2 by @fontawesome - https://fontawesome.com License - https://fontawesome.com/license (Commercial License) Copyright 2024 Fonticons, Inc. --><path d="M184 56a40 40 0 1 1 80 0 40 40 0 1 1 -80 0zm48 55.4c27.1-3.9 48-27.2 48-55.4c0-30.9-25.1-56-56-56s-56 25.1-56 56c0 28.2 20.9 51.6 48 55.4l0 89.1c-14.6 2.1-27.5 9.9-36.2 21l-71.7-41c10.1-25.4 .3-55-24.1-69.1C57.2 96 23 105.2 7.5 132S1.2 193 28 208.5c6.4 3.7 13.1 6 20 6.9l0 81.1c-6.9 1-13.6 3.3-20 6.9C1.2 319-8 353.2 7.5 380S57.2 416 84 400.5c24.4-14.1 34.2-43.7 24.1-69.1l43.8-25c-3.1-4.4-5.7-9-8-13.9l-43.8 25c-9.1-11.7-22.2-18.9-36.2-21l0-81.1c14-2 27.1-9.3 36.2-21l71.7 41c-2.5 6.4-3.9 13.3-3.9 20.6c0 28.2 20.9 51.6 48 55.4l0 89.1c-27.1 3.9-48 27.2-48 55.4c0 30.9 25.1 56 56 56s56-25.1 56-56c0-28.2-20.9-51.6-48-55.4l0-89.1c14.6-2.1 27.5-9.9 36.2-21l71.8 41c-10.1 25.4-.3 55 24.1 69.1c26.8 15.5 61 6.3 76.5-20.5s6.3-61-20.5-76.5c-6.4-3.7-13.2-6-20-6.9l0-81.1c6.9-1 13.6-3.3 20-6.9c26.8-15.5 36-49.7 20.5-76.5S390.8 96 364 111.5c-24.4 14.1-34.2 43.7-24.1 69l-43.8 25c3.1 4.4 5.7 9 8 13.9l43.8-25c9.1 11.7 22.2 19 36.2 21l0 81.1c-14 2-27.1 9.3-36.1 21l-71.7-41c2.5-6.4 3.9-13.3 3.9-20.6c0-28.2-20.9-51.6-48-55.4l0-89.1zm140 13.9a40 40 0 1 1 40 69.3 40 40 0 1 1 -40-69.3zM21.4 140a40 40 0 1 1 69.3 40A40 40 0 1 1 21.4 140zM184 456a40 40 0 1 1 80 0 40 40 0 1 1 -80 0zM90.6 332A40 40 0 1 1 21.4 372a40 40 0 1 1 69.3-40zM372 386.6a40 40 0 1 1 40-69.3 40 40 0 1 1 -40 69.3zM224 216a40 40 0 1 1 0 80 40 40 0 1 1 0-80z"/></svg>