<svg xmlns="http://www.w3.org/2000/svg" width="24" height="24" fill="none"><path fill="#fff" fill-opacity=".01" d="M24 0v24H0V0z"/><path stroke="#F7F9FC" stroke-linecap="round" stroke-width="2" d="M4 6a9.956 9.956 0 0 0-2 6c0 2.251.744 4.329 2 6M20 6a9.956 9.956 0 0 1 2 6 9.956 9.956 0 0 1-2 6" opacity=".3"/><path stroke="#F7F9FC" stroke-linecap="round" stroke-linejoin="round" stroke-width="2" d="M12 9h2a1 1 0 0 1 1 1v2m-3-3v3m0-3h-1a2 2 0 0 0-2 2v4m6-3h-3m3 0v2a1 1 0 0 1-1 1h-2v-3m0 0H9m10 0a7 7 0 1 1-14 0 7 7 0 0 1 14 0"/></svg>