<svg xmlns="http://www.w3.org/2000/svg" width="24" height="24" fill="none">
    <path stroke="currentColor" stroke-linejoin="round" stroke-width="2" d="M5 12h14v4H5z" opacity=".3"/>
    <path stroke="currentColor" stroke-linejoin="round" stroke-width="2" d="M16 21a3 3 0 0 0 3-3v-7.5a3 3 0 0 0-1.2-2.4l-2.267-1.7a2 2 0 0 0-1.2-.4H9.667a2 2 0 0 0-1.2.4L6.2 8.1A3 3 0 0 0 5 10.5V18a3 3 0 0 0 3 3z"/>
    <path stroke="currentColor" stroke-linejoin="round" stroke-width="2" d="M8 4a1 1 0 0 1 1-1h6a1 1 0 0 1 1 1v1a1 1 0 0 1-1 1H9a1 1 0 0 1-1-1z"/>
</svg>