<svg xmlns="http://www.w3.org/2000/svg" width="24" height="24" viewbox="0 0 24 24" fill="none">
    <path stroke="currentColor" stroke-width="2" d="m10.585 19.07 8.486-8.485" opacity=".3"/>
    <path stroke="currentColor" stroke-width="2" d="M13.86 8.726c-1.036 1.035-2.8.643-3.39-.697-.63-1.427-1.4-2.935-2.208-3.959-1.407-1.785-3.35-1.953-4.747-.555-1.398 1.397-1.23 3.34.555 4.747C5.094 9.07 6.602 9.84 8.03 10.47c1.34.592 1.732 2.355.697 3.39l-.615.616a1.5 1.5 0 0 0 0 2.121l4.242 4.243a1.5 1.5 0 0 0 2.122 0l6.364-6.364a1.5 1.5 0 0 0 0-2.122l-4.243-4.242a1.5 1.5 0 0 0-2.121 0z"/>
</svg>