<svg xmlns="http://www.w3.org/2000/svg" width="24" height="24" fill="none"><path fill="#fff" fill-opacity=".01" d="M24 0v24H0V0z"/><g fill="#F7F9FC" opacity=".3"><path d="M5.96 16.038A1 1 0 0 1 5 15.04v-.7a.5.5 0 0 1 .738-.44l2.742 1.48c.373.202.218.769-.206.752zM18.04 16.038a1 1 0 0 0 .96-.999v-.7a.5.5 0 0 0-.738-.44l-2.742 1.48c-.373.202-.218.769.206.752zM2 9.4c0-.22.18-.4.4-.4H4v2l-1.394-.348A.8.8 0 0 1 2 9.875zM22 9.4a.4.4 0 0 0-.4-.4H20v2l1.394-.348A.8.8 0 0 0 22 9.875z"/></g><path stroke="#F7F9FC" stroke-linejoin="round" stroke-width="2" d="m5 8.5-.29.511C3.95 10.345 4.913 12 6.447 12h11.104c1.534 0 2.497-1.655 1.739-2.989L19 8.5M7 18v1a1 1 0 0 1-1 1H4.883a1 1 0 0 1-.993-.876l-.725-5.801a4 4 0 0 1 .497-2.48l2.762-4.835A2 2 0 0 1 8.161 5h7.678a2 2 0 0 1 1.737 1.008l2.762 4.834a4 4 0 0 1 .497 2.481l-.726 5.801a1 1 0 0 1-.992.876H18a1 1 0 0 1-1-1v-1z"/></svg>