<svg xmlns="http://www.w3.org/2000/svg" width="24" height="24" viewBox="0 0 24 24" fill="none">
    <path class="pr-icon-twotone-secondary-stroke" stroke-linecap="round" stroke-linejoin="round" stroke-width="2" d="M12 11h.002M12 14h.002" />
    <path class="pr-icon-twotone-primary-stroke" stroke-linecap="round" stroke-linejoin="round" stroke-width="2" d="M14.06 8.182a3 3 0 1 0-4.118 0L7.585 7.55a2 2 0 0 0-2.45 1.414v0a2 2 0 0 0 1.415 2.45L9 12.07v1.795L7.018 17.3a2 2 0 0 0 .732 2.732v0a2 2 0 0 0 2.732-.732L11.81 17h.38l1.328 2.299a2 2 0 0 0 2.732.732v0a2 2 0 0 0 .732-2.732L15 13.866V12.07l2.45-.657a2 2 0 0 0 1.414-2.45v0a2 2 0 0 0-2.45-1.413z"/>
</svg>