<svg xmlns="http://www.w3.org/2000/svg" width="24" height="24" viewBox="0 0 24 24" fill="none">
    <path stroke="currentColor" stroke-width="2" d="M12.013 12a4.675 4.675 0 0 0 1.367-3.31A4.676 4.676 0 0 0 12 5.367 4.69 4.69 0 0 0 5.367 12a4.676 4.676 0 0 1 3.323-1.38c1.292 0 2.462.522 3.31 1.367m.013.013a.76.76 0 0 0-.013.013 4.675 4.675 0 0 0 3.31 1.367A4.675 4.675 0 0 0 18.633 12 4.69 4.69 0 1 1 12 11.987m.013.013a.76.76 0 0 1-.013-.013" opacity=".3"/>
    <path stroke="currentColor" stroke-width="2" d="M12.013 12a4.675 4.675 0 0 0 1.367-3.31A4.676 4.676 0 0 0 12 5.367a4.69 4.69 0 1 1 0 6.645.76.76 0 0 1 .013-.012Zm0 0a.76.76 0 0 1-.013-.013m0 0a4.675 4.675 0 0 0-3.31-1.367A4.676 4.676 0 0 0 5.367 12 4.69 4.69 0 0 0 12 18.633a4.675 4.675 0 0 1-1.38-3.323c0-1.298.528-2.473 1.38-3.323Z"/>
</svg>