<svg xmlns="http://www.w3.org/2000/svg" width="24" height="24" viewBox="0 0 24 24" fill="none">
    <path stroke="currentColor" stroke-linecap="round" stroke-linejoin="round" stroke-width="2" d="M7.5 12.999s.251 1.251 1 2c.5.5 1.5.348 1.9.127.6-.33.956-.627 1.596-.627m4.508-1.5s-.255 1.251-1.004 2c-.5.5-1.5.339-1.896.127C13 14.804 12.64 14.5 12 14.5m-2-3.5h.002m3.998 0h.002" opacity=".3"/>
    <path fill="currentColor" d="m6.5 6.5.781.624zm11-1.5-.555.832zM5 9.5l-.949-.317-.004.015-.005.014zM6 17l-.64.768zm5.836 4.986a1 1 0 0 0 .329-1.973zM19.002 9.5l.957-.288-.004-.014-.005-.015zm-1 7.5.64.768zm-6.165 3.013a1 1 0 0 0 .33 1.973zm5.344-12.799.879-.477zM10.001 10a1 1 0 0 0 0 2zm.001 2a1 1 0 1 0 0-2zM14 10a1 1 0 1 0 0 2zm.002 2a1 1 0 1 0 0-2zM7.281 7.124c.633-.791 1.741-1.989 3.31-2.56 1.5-.545 3.586-.578 6.354 1.268l1.11-1.664c-3.232-2.155-5.979-2.271-8.147-1.483C7.811 3.447 6.42 5 5.72 5.875zM4.042 9.212c-.27.904-.59 2.434-.546 4.01.043 1.548.446 3.364 1.864 4.546l1.28-1.537c-.761-.634-1.108-1.734-1.145-3.065-.036-1.304.234-2.616.463-3.38zm1.318 8.556c.594.495 1.072.953 1.513 1.382.431.42.856.842 1.3 1.212.943.786 1.981 1.344 3.663 1.624l.329-1.973c-1.32-.22-2.031-.62-2.712-1.188-.37-.307-.726-.661-1.185-1.108-.45-.438-.972-.94-1.628-1.486zm12.684-7.981c.229.763.5 2.075.463 3.379-.037 1.33-.384 2.43-1.145 3.065l1.28 1.537c1.418-1.182 1.821-2.998 1.864-4.547.044-1.575-.276-3.105-.547-4.009zm-.682 6.444a27.482 27.482 0 0 0-1.628 1.486c-.46.447-.816.8-1.185 1.108-.682.568-1.394.968-2.712 1.188l.33 1.973c1.68-.28 2.718-.838 3.662-1.624.443-.37.868-.792 1.3-1.212.44-.43.918-.887 1.513-1.382zM19 6.5a.5.5 0 0 1-.5.5v2A2.5 2.5 0 0 0 21 6.5zm-.5-.5a.5.5 0 0 1 .5.5h2A2.5 2.5 0 0 0 18.5 4zM5.95 9.816c.134-.402.497-1.418 1.02-2.25L5.277 6.502c-.658 1.044-1.082 2.25-1.226 2.682zm1.02-2.25c.102-.161.206-.31.312-.442l-1.562-1.25c-.16.202-.308.414-.442.627zm-1.11.432C6.49 8.17 9.625 9 12 9V7c-2.07 0-4.96-.751-5.613-.93zM18 6.5a.5.5 0 0 1 .247-.431l-1.015-1.724A2.5 2.5 0 0 0 16 6.5zm.247-.431a.493.493 0 0 1 .253-.069V4c-.46 0-.895.126-1.268.345zm.224-1.544a2.36 2.36 0 0 0-.416-.356l-1.11 1.664a.374.374 0 0 1 .064.056zm1.48 4.66c.008.026.003.015-.014-.077-.014-.078-.03-.18-.05-.312-.037-.253-.085-.596-.149-.964l-1.97.337c.057.34.101.65.141.921.02.132.04.26.06.37.017.097.043.233.084.357zM18.5 6.998a.5.5 0 0 1-.441-.262l-1.758.955A2.5 2.5 0 0 0 18.5 8.999zm-.441-.262A.493.493 0 0 1 18 6.5h-2c0 .43.11.837.302 1.193zM12 9c1.886 0 4.234-.52 5.422-.814l-.482-1.941c-1.182.293-3.321.755-4.94.755zm-2 3h.002v-2H10zm4 0h.002v-2H14z"/>
</svg>