<svg xmlns="http://www.w3.org/2000/svg" width="24" height="24" fill="none"><path stroke="#F7F9FC" stroke-linejoin="round" stroke-width="2" d="M13.339 9.315a3 3 0 0 0-4.024 1.347m4.024-1.347a3 3 0 0 1 1.346 4.024M13.34 9.315A4.676 4.676 0 0 0 12 5.368 4.69 4.69 0 0 0 5.367 12a4.676 4.676 0 0 1 3.948-1.34m5.37 2.678a3 3 0 0 1-4.024 1.346m4.024-1.346A4.675 4.675 0 0 0 18.632 12a4.69 4.69 0 1 1-7.971 2.685m0 0a3 3 0 0 1-1.346-4.024" opacity=".3"/><path stroke="#F7F9FC" stroke-linejoin="round" stroke-width="2" d="M13.339 9.315a3 3 0 0 0-4.024 1.347m4.024-1.347a3 3 0 0 1 1.346 4.024M13.34 9.315A4.676 4.676 0 0 0 12 5.368a4.69 4.69 0 1 1 2.685 7.971m0 0a3 3 0 0 1-4.024 1.346m0 0a3 3 0 0 1-1.346-4.024m1.346 4.024A4.675 4.675 0 0 0 12 18.632a4.69 4.69 0 1 1-2.685-7.971"/></svg>