<svg xmlns="http://www.w3.org/2000/svg" width="24" height="24" fill="none"><path fill="#fff" fill-opacity=".01" d="M24 0v24H0V0z"/><path stroke="#F7F9FC" stroke-linecap="round" stroke-linejoin="round" stroke-width="2" d="M3 11h18M3 15h18m-9-4v4m-4 0v5m8-5v5" opacity=".3"/><path stroke="#F7F9FC" stroke-linecap="round" stroke-linejoin="round" stroke-width="2" d="M7 4.5a.5.5 0 0 0-.5-.5h-3a.5.5 0 0 0-.5.5v15a.5.5 0 0 0 .5.5h17a.5.5 0 0 0 .5-.5v-15a.5.5 0 0 0-.5-.5h-3a.5.5 0 0 0-.5.5v2a.5.5 0 0 1-.5.5h-2a.5.5 0 0 1-.5-.5v-2a.5.5 0 0 0-.5-.5h-3a.5.5 0 0 0-.5.5v2a.5.5 0 0 1-.5.5h-2a.5.5 0 0 1-.5-.5z"/></svg>