<svg xmlns="http://www.w3.org/2000/svg" width="24" height="24" fill="none">
    <path stroke="currentColor" stroke-linecap="round" stroke-width="2" d="M4.135 14.1C2.9 14.39 2 15.25 2 15.93c0 .501.493.789 1.25.937M19.865 14.1C21.1 14.39 22 15.25 22 15.93c0 .501-.493.789-1.25.937M20 9.5a1.5 1.5 0 1 1-3 0 1.5 1.5 0 0 1 3 0Zm-13 0a1.5 1.5 0 1 1-3 0 1.5 1.5 0 0 1 3 0Z" opacity=".3"/>
    <path stroke="currentColor" stroke-width="2" d="M18 16.857C18 18.514 15.314 19 12 19s-6-.486-6-2.143C6 15.2 8.686 13 12 13s6 2.2 6 3.857ZM15 7a3 3 0 1 1-6 0 3 3 0 0 1 6 0Z"/>
</svg>