<svg xmlns="http://www.w3.org/2000/svg" width="24" height="24" viewBox="0 0 24 24" fill="none">
    <path class="pr-icon-twotone-secondary-stroke" stroke-linecap="round" stroke-linejoin="round" stroke-width="2" d="M9.79 6.191V6.19m0 0a1.5 1.5 0 0 1 2.599-1.499l1.747 3.033M9.79 6.19l-1-1.73a1.5 1.5 0 0 0-2.598 1.5l2.25 3.896M9.79 6.19l1.25 2.166m3.31-.756c-.164-1.36.767-2.425 2.248-2.673.24-.04.457.125.53.358.233.76.64 1.638 1.125 2.531 1.451 2.677 1.158 6.019-.819 8.108"/>
    <path class="pr-icon-twotone-primary-stroke" stroke-linecap="round" stroke-linejoin="round" stroke-width="2" d="m10.443 13.313-2.25-3.897a1.5 1.5 0 0 1 2.598-1.5l2.336 4.046m0 0 .152.265a4.402 4.402 0 0 1-.152-.265m0 0c-.995-1.875 0-3.496 1.873-3.81.24-.04.458.125.53.358.233.76.64 1.638 1.125 2.531 1.737 3.204.975 7.36-2.182 9.183a6.036 6.036 0 0 1-8.244-2.21l-.983-1.7m1.599-3.112-2.25-3.897a1.5 1.5 0 0 1 2.598-1.5l2.25 3.897M5.25 16.309l-1.225-2.043a1.487 1.487 0 1 1 2.563-1.51l1.257 2.177m10.53-12.878-.13.483m-3-.483.13.483m4.285 2.45.84-.488"/>
</svg>