<svg xmlns="http://www.w3.org/2000/svg" width="24" height="24" fill="none"><path fill="#fff" fill-opacity=".01" d="M24 0v24H0V0z"/><path stroke="#F7F9FC" stroke-linecap="round" stroke-linejoin="round" stroke-width="2" d="M11 7.5a1.5 1.5 0 0 0-3 0V11m3-3.5v-1a1.5 1.5 0 0 1 3 0v1m-3 0V10m3 0V7.5m0 0a1.5 1.5 0 0 1 3 0V10" opacity=".3"/><path stroke="#F7F9FC" stroke-linecap="round" stroke-linejoin="round" stroke-width="2" d="M8 11C6 8.5 5 8 3 9l3.065 6.13A7 7 0 0 0 12.326 19H13a7 7 0 0 0 7-7V9.5a1.5 1.5 0 0 0-3 0v.5"/></svg>