<svg xmlns="http://www.w3.org/2000/svg" width="24" height="24" viewbox="0 0 24 24" fill="none">
    <path stroke="currentColor" stroke-linecap="round" stroke-linejoin="round" stroke-width="2" d="M12 8v4h-2" opacity=".3"/>
    <path fill="currentColor" d="M18.97 15.243a1 1 0 1 0-1.94-.486zM17 19l-.97-.242A1 1 0 0 0 17 20zm4 1a1 1 0 1 0 0-2zm0-3a1 1 0 1 0-2 0zm-2 4a1 1 0 1 0 2 0zm-8-4.5a1 1 0 1 0 2 0zm1 4.5-.76-.65A1 1 0 0 0 12 22zm3 1a1 1 0 1 0 0-2zm3.78-11.75a1 1 0 0 0 1.936-.5zM7.5 19.794a1 1 0 1 0 1-1.73zm9.53-5.038-1 4 1.94.485 1-4zM17 20h4v-2h-4zm2-3v4h2v-4zm-7 5h3v-2h-3zm2-5.5v.325h2V16.5zm-.199.862-2.56 2.987 1.518 1.302 2.56-2.988zM5 12a7 7 0 0 1 7-7V3a9 9 0 0 0-9 9zm7-7c3.26 0 6.002 2.23 6.78 5.25l1.936-.5C19.717 5.87 16.195 3 12 3zM8.5 18.064A6.997 6.997 0 0 1 5 12H3a8.997 8.997 0 0 0 4.5 7.795zm5.5-1.24c0 .198-.07.388-.199.538l1.519 1.301c.439-.512.68-1.164.68-1.838zM13.5 16a.5.5 0 0 1 .5.5h2a2.5 2.5 0 0 0-2.5-2.5zm-.5.5a.5.5 0 0 1 .5-.5v-2a2.5 2.5 0 0 0-2.5 2.5z"/>
</svg>