<svg xmlns="http://www.w3.org/2000/svg" width="24" height="24" fill="none"><path fill="#fff" fill-opacity=".01" d="M24 0v24H0V0z"/><path stroke="#F7F9FC" stroke-width="2" d="M15 12.5a3.5 3.5 0 1 1-7 0 3.5 3.5 0 0 1 7 0Zm0 0h3M6.652 8.46l2.16 1.8m4.555-3.362-.76 2.281m2.832 8.26-2.015-2.014m-6.048 2.124 1.933-2.319" opacity=".3"/><path stroke="#F7F9FC" stroke-width="2" d="M15 12.5a3.5 3.5 0 1 1-7 0 3.5 3.5 0 0 1 7 0ZM16 5a2 2 0 1 1-4 0 2 2 0 0 1 4 0ZM18 18.5a1.5 1.5 0 1 1-3 0 1.5 1.5 0 0 1 3 0ZM21 12.5a1.5 1.5 0 1 1-3 0 1.5 1.5 0 0 1 3 0ZM7 7.5a1.5 1.5 0 1 1-3 0 1.5 1.5 0 0 1 3 0ZM8 19a2 2 0 1 1-4 0 2 2 0 0 1 4 0Z"/></svg>