<svg xmlns="http://www.w3.org/2000/svg" width="24" height="24" viewbox="0 0 24 24" fill="none">
    <path stroke="currentColor" stroke-linecap="round" stroke-width="2" d="M10 6.01c0 3-2.5 4.99-2.5 4.99M8 8v0a2 2 0 0 0 2-2v0a2 2 0 0 0-2-2v0a2 2 0 0 0-2 2v0a2 2 0 0 0 2 2Z" opacity=".3"/>
    <path stroke="currentColor" stroke-linecap="round" stroke-linejoin="round" stroke-width="2" d="M17 20V5.328m-2.828 2.5L17 5l2.828 2.828M8 20a2 2 0 0 0 2-2v-2a2 2 0 0 0-2-2v0a2 2 0 0 0-2 2v2a2 2 0 0 0 2 2"/>
</svg>