<svg xmlns="http://www.w3.org/2000/svg" width="24" height="24" viewBox="0 0 24 24" fill="none">
    <path class="pr-icon-twotone-secondary-stroke" stroke-linecap="round" stroke-width="2" d="M10 15.01c0 3-2.5 4.99-2.5 4.99m.5-3v0a2 2 0 0 0 2-2v0a2 2 0 0 0-2-2v0a2 2 0 0 0-2 2v0a2 2 0 0 0 2 2Z" />
    <path class="pr-icon-twotone-primary-stroke" stroke-linecap="round" stroke-linejoin="round" stroke-width="2" d="M17 5v14m-2.828-2L17 19.828 19.828 17M8 10a2 2 0 0 0 2-2V6a2 2 0 0 0-2-2v0a2 2 0 0 0-2 2v2a2 2 0 0 0 2 2"/>
</svg>