<svg xmlns="http://www.w3.org/2000/svg" width="24" height="24" viewBox="0 0 24 24" fill="none">
    <path class="pr-icon-twotone-secondary-stroke" stroke-width="2" d="m11 8.05 3.343-3.343a1 1 0 0 1 1.414 0l3.536 3.536a1 1 0 0 1 0 1.414L11 17.95M10 20h9a1 1 0 0 0 1-1v-5a1 1 0 0 0-1-1h-3" />
    <path class="pr-icon-twotone-primary-stroke" stroke-width="2" d="M4 5a1 1 0 0 1 1-1h5a1 1 0 0 1 1 1v14a1 1 0 0 1-1 1H5a1 1 0 0 1-1-1z"/>
    <circle cx="7.5" cy="15.5" r=".5" class="pr-icon-twotone-primary" class="pr-icon-twotone-primary-stroke" stroke-width="2"/>
</svg>