<svg xmlns="http://www.w3.org/2000/svg" width="24" height="24" viewbox="0 0 24 24" fill="none">
    <path stroke="currentColor" stroke-linejoin="round" stroke-width="2" d="M16.84 6.79a1.528 1.528 0 0 1 2.997-.54 1.39 1.39 0 0 1-.226 2.76h-1.153" opacity=".3"/>
    <path stroke="currentColor" stroke-linejoin="round" stroke-width="2" d="M5.165 13.957A7.062 7.062 0 0 1 5 13.235c.22.099.445.186.677.26m3.313.125A6.226 6.226 0 0 0 13.235 5a7.114 7.114 0 0 1-1.81 14.096M9.5 20a2.5 2.5 0 0 0 .406-4.967 2.751 2.751 0 0 0-5.389 1.026A2 2 0 0 0 5 20z"/>
</svg>