<svg xmlns="http://www.w3.org/2000/svg" width="24" height="24" viewbox="0 0 24 24" fill="none">
    <path stroke="currentColor" stroke-linecap="round" stroke-linejoin="round" stroke-width="2" d="M12 6v4m0 0a2 2 0 1 0 0 4m0-4a2 2 0 1 1 0 4m0 0v4" opacity=".3"/>
    <path stroke="currentColor" stroke-linecap="round" stroke-linejoin="round" stroke-width="2" d="M3 9h3a1 1 0 0 1 1 1v4a1 1 0 0 1-1 1H3m18 0h-3a1 1 0 0 1-1-1v-4a1 1 0 0 1 1-1h3M4 18h16a1 1 0 0 0 1-1V7a1 1 0 0 0-1-1H4a1 1 0 0 0-1 1v10a1 1 0 0 0 1 1"/>
</svg>