<svg xmlns="http://www.w3.org/2000/svg" width="24" height="24" viewbox="0 0 24 24" fill="none">
    <g opacity=".3">
        <path fill="currentColor"     d="M12.5 12a.5.5 0 1 1-1 0 .5.5 0 0 1 1 0M9 8.5a.5.5 0 1 1-1 0 .5.5 0 0 1 1 0M9 15.5a.5.5 0 1 1-1 0 .5.5 0 0 1 1 0M16 8.5a.5.5 0 1 1-1 0 .5.5 0 0 1 1 0M16 15.5a.5.5 0 1 1-1 0 .5.5 0 0 1 1 0"/>
        <path stroke="currentColor" stroke-width="2"     d="M12.5 12a.5.5 0 1 1-1 0 .5.5 0 0 1 1 0ZM9 8.5a.5.5 0 1 1-1 0 .5.5 0 0 1 1 0ZM9 15.5a.5.5 0 1 1-1 0 .5.5 0 0 1 1 0ZM16 8.5a.5.5 0 1 1-1 0 .5.5 0 0 1 1 0ZM16 15.5a.5.5 0 1 1-1 0 .5.5 0 0 1 1 0Z"/>
    </g>
    <path stroke="currentColor" stroke-width="2" d="M4 6a2 2 0 0 1 2-2h12a2 2 0 0 1 2 2v12a2 2 0 0 1-2 2H6a2 2 0 0 1-2-2z"/>
</svg>