<svg xmlns="http://www.w3.org/2000/svg" width="24" height="24" fill="none">
    <path stroke="currentColor" stroke-linecap="round" stroke-linejoin="round" stroke-width="2" d="M6 16H5a2 2 0 0 1-2-2V7a2 2 0 0 1 2-2h14a2 2 0 0 1 2 2v7a2 2 0 0 1-2 2h-1" opacity=".3"/>
    <path stroke="currentColor" stroke-linecap="round" stroke-linejoin="round" stroke-width="2" d="m10 11-.233.291A3.16 3.16 0 0 0 10 15.5v0a3.16 3.16 0 0 1 .233 4.209L10 20m4-9-.233.291A3.16 3.16 0 0 0 14 15.5v0a3.16 3.16 0 0 1 .233 4.209L14 20"/>
</svg>