<svg xmlns="http://www.w3.org/2000/svg" width="24" height="24" viewBox="0 0 24 24" fill="none">
    <path stroke="currentColor" stroke-linecap="round" stroke-linejoin="round" stroke-width="2" d="M12 6v2m0 0h3m-3 0h-2a1.5 1.5 0 0 0-1.5 1.5v0A1.5 1.5 0 0 0 10 11h4a1.5 1.5 0 0 1 1.5 1.5v0A1.5 1.5 0 0 1 14 14h-2m0 0v2m0-2H9" opacity=".3"/>
    <path fill="currentColor" d="M4.351 17.064a1 1 0 0 0-.702 1.872zM12 21l-.351.936a1 1 0 0 0 .702 0zm8.351-2.064a1 1 0 0 0-.702-1.872zM6 18.375V5H4v13.375zM7 4h10V2H7zm11 1v13.375h2V5zM3.649 18.936l8 3 .702-1.872-8-3zm8.702 3 8-3-.702-1.872-8 3zM17 4a1 1 0 0 1 1 1h2a3 3 0 0 0-3-3zM6 5a1 1 0 0 1 1-1V2a3 3 0 0 0-3 3z"/>
</svg>