<svg xmlns="http://www.w3.org/2000/svg" width="24" height="24" fill="none"><path stroke="#F7F9FC" stroke-linecap="round" stroke-linejoin="round" stroke-width="2" d="m12.707 7.05 4.243 4.243m-9.9 1.415 4.243 4.242" opacity=".3"/><path stroke="#F7F9FC" stroke-linecap="round" stroke-linejoin="round" stroke-width="2" d="M10.586 19.072a4 4 0 0 1-5.657 0v0a4 4 0 0 1 0-5.657v0m8.485 2.829 2.829-2.829m2.828-2.828a4 4 0 0 0 0-5.657v0a4 4 0 0 0-5.657 0v0m-5.657 5.657 2.829-2.828m.353 11.667a1.5 1.5 0 0 0 2.122 0l.707-.707a1.5 1.5 0 0 0 0-2.122v0a1.5 1.5 0 0 0-2.122 0l-.707.707a1.5 1.5 0 0 0 0 2.122m5.657-5.657a1.5 1.5 0 0 0 2.122 0l.707-.707a1.5 1.5 0 0 0 0-2.121v0a1.5 1.5 0 0 0-2.122 0l-.707.707a1.5 1.5 0 0 0 0 2.121m-12.02-.707a1.5 1.5 0 0 0 2.12 0l.708-.708a1.5 1.5 0 0 0 0-2.121v0a1.5 1.5 0 0 0-2.121 0l-.707.707a1.5 1.5 0 0 0 0 2.122m5.656-5.657a1.5 1.5 0 0 0 2.122 0l.707-.707a1.5 1.5 0 0 0 0-2.122v0a1.5 1.5 0 0 0-2.122 0l-.707.707a1.5 1.5 0 0 0 0 2.122"/></svg>