<svg xmlns="http://www.w3.org/2000/svg" width="24" height="24" fill="none"><path fill="#fff" fill-opacity=".01" d="M24 0v24H0V0z"/><path fill="#F7F9FC" d="M10 5a1 1 0 0 0 0 2zm8 2a1 1 0 1 0 0-2zm-8 0h8V5h-8zm5 6a3 3 0 0 1 3-3V8a5 5 0 0 0-5 5zm.75 1.984A2.985 2.985 0 0 1 15 13h-2c0 1.267.473 2.427 1.25 3.308z" opacity=".3"/><path stroke="#F7F9FC" stroke-width="2" d="M18 4a1 1 0 0 0-1-1h-6a1 1 0 0 0-1 1v4.172a2 2 0 0 1-.586 1.414l-3.586 3.586a4 4 0 0 0 0 5.656l.344.344a4 4 0 0 0 5.656 0l5-5A4 4 0 0 0 18 11.343z"/></svg>