<svg xmlns="http://www.w3.org/2000/svg" width="24" height="24" viewBox="0 0 24 24" fill="none">
    <path class="pr-icon-twotone-secondary-stroke" stroke-linecap="round" stroke-width="2" d="M10.36 8.043c-.361-.665-.764-1.276-1.188-1.7-1.563-1.562-3.529-.714-3.536-.707-.007.007-.855 1.973.707 3.535.425.425 1.036.828 1.7 1.19m5.596-2.318c.362-.665.765-1.276 1.19-1.7 1.561-1.563 3.528-.715 3.535-.708.007.008.855 1.974-.707 3.536-.425.425-1.036.828-1.701 1.19m0 3.277c.665.362 1.276.765 1.7 1.19 1.563 1.562.715 3.528.708 3.535-.007.008-1.974.855-3.536-.707-.424-.424-.827-1.035-1.19-1.7m-3.277 0c-.362.665-.765 1.276-1.19 1.7-1.562 1.563-3.528.715-3.535.708-.007-.007-.855-1.974.707-3.536.425-.425 1.036-.828 1.7-1.19"/>
    <path class="pr-icon-twotone-primary-stroke" stroke-linecap="round" stroke-width="2" d="M10.361 8.043C10.147 7.317 10 6.6 10 6c0-2.21 1.99-3 2-3 .01 0 2 .79 2 3 0 .6-.147 1.317-.361 2.043m2.317 2.318C16.682 10.147 17.4 10 18 10c2.21 0 3 1.99 3 2 0 .01-.79 2-3 2-.6 0-1.317-.147-2.044-.361m-2.317 2.318C13.853 16.683 14 17.4 14 18c0 2.21-1.99 3-2 3-.01 0-2-.79-2-3 0-.6.147-1.317.361-2.043m-2.317-2.318C7.318 13.853 6.6 14 6 14c-2.21 0-3-1.99-3-2 0-.01.79-2 3-2 .6 0 1.317.147 2.044.361M15 12a3 3 0 1 1-6 0 3 3 0 0 1 6 0Z"/>
</svg>