<svg xmlns="http://www.w3.org/2000/svg" width="24" height="24" viewBox="0 0 24 24" fill="none">
    <path class="pr-icon-twotone-secondary-stroke" stroke-linecap="round" stroke-width="2" d="M8.5 3.706A9.003 9.003 0 0 0 3 12a9.002 9.002 0 0 0 5.5 8.294m7-16.588A9.003 9.003 0 0 1 21 12a9.003 9.003 0 0 1-5.5 8.294" />
    <path class="pr-icon-twotone-primary-stroke" stroke-linecap="round" stroke-linejoin="round" stroke-width="2" d="M12 7v2m0 6v2m3-8h-5a1.5 1.5 0 0 0-1.5 1.5v0A1.5 1.5 0 0 0 10 12h4a1.5 1.5 0 0 1 1.5 1.5v0A1.5 1.5 0 0 1 14 15H9"/>
</svg>