<svg xmlns="http://www.w3.org/2000/svg" width="24" height="24" viewBox="0 0 24 24" fill="none">
    <path fill="currentColor" fill-rule="evenodd" d="M6.894 4.553a1 1 0 0 0-1.788.894l1.174 2.35A9.989 9.989 0 0 0 2 16c0 1.602 1.16 3 2.833 3h14.334C20.84 19 22 17.602 22 16a9.989 9.989 0 0 0-4.28-8.203l1.174-2.35a1 1 0 1 0-1.788-.894L15.972 6.82A9.967 9.967 0 0 0 12 6a9.967 9.967 0 0 0-3.972.82zM7.5 12a1.5 1.5 0 1 0 0 3 1.5 1.5 0 0 0 0-3m9 0a1.5 1.5 0 1 0 0 3 1.5 1.5 0 0 0 0-3" clip-rule="evenodd"/>
</svg>