<svg xmlns="http://www.w3.org/2000/svg" width="24" height="24" viewBox="0 0 24 24" fill="none">
    <path fill="currentColor" fill-rule="evenodd" d="M8.501 2.5H15.5c.948 0 1.859.035 2.703.505.524.291.953.726 1.373 1.153l.217.22c.635.634 1.224 1.268 1.51 2.122H2.699c.285-.854.874-1.488 1.509-2.122l.218-.22c.42-.428.847-.862 1.372-1.153.845-.47 1.755-.506 2.703-.505M2.5 8.5v4.074c0 1.823 0 3.292.155 4.448.162 1.2.507 2.211 1.31 3.014.802.802 1.813 1.147 3.013 1.309 1.346.18 2.715.17 4.076.16.316-.002.631-.005.946-.005.315 0 .63.003.947.005 1.36.01 2.73.02 4.075-.16 1.2-.162 2.211-.507 3.014-1.31.802-.802 1.147-1.812 1.309-3.013.155-1.156.155-2.625.155-4.449V8.5zM12 11a1 1 0 0 1 1 1v3.433c.08-.124.155-.256.225-.397a1 1 0 1 1 1.793.885 5.492 5.492 0 0 1-2.02 2.253l-.038.026c-.159.105-.503.333-.96.333-.457 0-.801-.228-.96-.333a5.492 5.492 0 0 1-2.058-2.278 1 1 0 0 1 1.793-.886c.07.141.145.273.225.397V12a1 1 0 0 1 1-1" clip-rule="evenodd"/>
</svg>