<svg xmlns="http://www.w3.org/2000/svg" width="24" height="24" viewBox="0 0 24 24" fill="none">
    <path fill="currentColor" fill-rule="evenodd" d="M14 2a1 1 0 1 0-2 0v1.636c-.192-.01-.395.01-.604.075a2 2 0 0 0-.832.514c-.373.385-.479.865-.522 1.245C10 5.836 10 6.292 10 6.79v4.796l-1.07 1.07c-.75.749-1.32 1.317-1.626 2.056C6.998 15.45 7 16.256 7 17.315V21a1 1 0 1 0 0 2h9a1 1 0 1 0 0-2V7.499c.002-.546.003-1.097-.216-1.59a2.498 2.498 0 0 0-.353-.57c-.342-.416-.835-.661-1.324-.904L14 4.382zm-.854 5.44a.5.5 0 0 1 .854.353v1.414a.5.5 0 0 1-.146.354l-1 1a.5.5 0 0 1-.854-.354V8.793a.5.5 0 0 1 .146-.354zm.374 5.682c.243-.132.48.102.48.378v1.707a.5.5 0 0 1-.146.354l-3.293 3.293a.5.5 0 0 1-.354.146H9.5a.5.5 0 0 1-.5-.5v-.707a.5.5 0 0 1 .146-.354l4.147-4.146a.998.998 0 0 1 .228-.17" clip-rule="evenodd"/>
</svg>