<svg xmlns="http://www.w3.org/2000/svg" width="24" height="24" viewBox="0 0 24 24" fill="none">
    <path fill="currentColor" d="M15.07 4H8.93c-1.355 0-2.471 0-3.355.119-.928.125-1.747.396-2.403 1.053-.657.656-.929 1.475-1.053 2.403A9.534 9.534 0 0 0 2.072 8h19.856a9.552 9.552 0 0 0-.047-.425c-.125-.928-.396-1.747-1.053-2.403-.656-.657-1.475-.928-2.403-1.053-.884-.12-2-.119-3.354-.119"/>
    <path fill="currentColor" fill-rule="evenodd" d="M21.998 10H2.002C2 10.296 2 10.606 2 10.93v2.14c0 1.355 0 2.471.119 3.355.124.928.396 1.747 1.053 2.403.656.657 1.475.928 2.403 1.053.884.12 2 .119 3.354.119h6.142c1.354 0 2.47 0 3.354-.119.928-.125 1.747-.396 2.403-1.053.657-.656.928-1.475 1.053-2.403.12-.884.119-2 .119-3.354V10.93c0-.324 0-.634-.002-.93M15 14a1 1 0 1 0 0 2h3a1 1 0 1 0 0-2z" clip-rule="evenodd"/>
</svg>