<svg xmlns="http://www.w3.org/2000/svg" width="24" height="24" viewBox="0 0 24 24" fill="none">
    <path fill="currentColor" fill-rule="evenodd" d="M5.773 7.74A8.042 8.042 0 0 0 4.115 5.85 9.957 9.957 0 0 0 2 12c0 2.32.79 4.455 2.115 6.151a8.041 8.041 0 0 0 1.658-1.891 1 1 0 0 1 .845-1.81c.15-.466.258-.952.32-1.452a1 1 0 0 1 0-1.996c-.062-.5-.17-.986-.32-1.453a1 1 0 0 1-.845-1.809m2.67.96.043-.02a1 1 0 0 0-.846-1.813l-.044.021c-.56-.94-1.27-1.78-2.096-2.488A9.96 9.96 0 0 1 12 2a9.96 9.96 0 0 1 6.5 2.4 10.047 10.047 0 0 0-2.096 2.488l-.044-.02a1 1 0 1 0-.846 1.812l.043.02a9.941 9.941 0 0 0-.508 2.3H15a1 1 0 1 0 0 2h.05c.079.798.252 1.568.507 2.3l-.043.02a1 1 0 1 0 .846 1.812l.044-.02c.56.94 1.27 1.78 2.096 2.488A9.96 9.96 0 0 1 12 22a9.96 9.96 0 0 1-6.5-2.4 10.05 10.05 0 0 0 2.096-2.488l.044.02a1 1 0 1 0 .846-1.812l-.043-.02A9.944 9.944 0 0 0 8.95 13H9a1 1 0 1 0 0-2h-.05a9.946 9.946 0 0 0-.507-2.3m9.784 7.56a8.043 8.043 0 0 0 1.658 1.891A9.957 9.957 0 0 0 22 12c0-2.32-.79-4.455-2.115-6.151a8.043 8.043 0 0 0-1.658 1.891 1 1 0 0 1-.845 1.81c-.15.466-.258.952-.32 1.452a1 1 0 0 1 0 1.996c.062.5.17.986.32 1.453a1 1 0 0 1 .845 1.809" clip-rule="evenodd"/>
</svg>