<svg xmlns="http://www.w3.org/2000/svg" width="24" height="24" viewBox="0 0 24 24" fill="none">
    <path fill="currentColor" fill-rule="evenodd" d="M13.058 5.5H7.942c-1.123 0-2.05 0-2.794.084-.776.087-1.476.277-2.083.743a4 4 0 0 0-.738.738c-.466.607-.656 1.307-.743 2.083-.084.744-.084 1.67-.084 2.794v.116c0 1.124 0 2.05.084 2.794.087.776.277 1.476.743 2.083.212.277.46.526.738.738.607.466 1.307.656 2.083.743.744.084 1.67.084 2.794.084h5.116c1.124 0 2.05 0 2.794-.084.776-.087 1.476-.277 2.083-.743.277-.212.526-.46.738-.738.437-.569.63-1.219.725-1.937L19.5 15a2 2 0 0 0 2-2v-2a2 2 0 0 0-2.102-1.997c-.094-.719-.288-1.37-.725-1.938a3.998 3.998 0 0 0-.738-.738c-.607-.466-1.307-.656-2.083-.743-.744-.084-1.67-.084-2.794-.084M7 10a1 1 0 1 0-2 0v4a1 1 0 1 0 2 0zm3 0a1 1 0 1 0-2 0v4a1 1 0 1 0 2 0zm3 0a1 1 0 1 0-2 0v4a1 1 0 1 0 2 0zm3 0a1 1 0 1 0-2 0v4a1 1 0 1 0 2 0z" clip-rule="evenodd"/>
</svg>