<svg xmlns="http://www.w3.org/2000/svg" width="24" height="24" viewBox="0 0 24 24" fill="none">
    <path fill="currentColor" fill-rule="evenodd" d="M7.75 2c.246 0 .566-.009.857.071a2 2 0 0 1 1.352 1.244c.103.283.121.603.142.848l.27 3.247c.048.58.21 1.114.656 1.525.225.207.481.376.704.585.898.838 1.27 1.972 1.27 3.17 0 1.41-.002 2.821 0 4.232 0 .995 0 1.735-.213 2.364a4 4 0 0 1-2.502 2.502C9.62 22.014 8.832 22 7.75 22s-1.87.014-2.536-.212a4 4 0 0 1-2.502-2.502c-.213-.629-.213-1.369-.212-2.364V12.69c0-1.197.372-2.33 1.27-3.17.222-.208.479-.377.703-.584.446-.41.608-.944.656-1.525l.27-3.247c.021-.245.039-.565.142-.848A2 2 0 0 1 6.893 2.07c.291-.08.612-.07.857-.07m6.072 8.27A2.616 2.616 0 0 1 16.415 8h1.17c1.311 0 2.42.97 2.593 2.27l.417 3.124A3.629 3.629 0 0 1 18 17.361v2.64h.5a1 1 0 0 1 0 2h-3a1 1 0 1 1 0-2h.5v-2.64a3.629 3.629 0 0 1-2.595-3.967z" clip-rule="evenodd"/>
</svg>