<svg xmlns="http://www.w3.org/2000/svg" width="24" height="24" viewBox="0 0 24 24" fill="none">
    <path fill="currentColor" fill-rule="evenodd" d="M18.541 2.05a1 1 0 0 1 .604 1.278l-2.677 7.466c1.547.573 2.801 1.918 2.933 3.715.08 1.065.081 2.385-.174 3.687-.255 1.298-.78 2.651-1.815 3.695-.371.375-.869.487-1.229.527a5.71 5.71 0 0 1-1.271-.032c-.888-.107-1.963-.363-3.057-.675-2.198-.627-4.63-1.529-6.135-2.112-1.41-.547-1.667-2.337-.637-3.32C6.707 14.729 8.3 13.037 9.43 11.8c1.233-1.35 3.103-1.97 4.909-1.558l.188.043 2.737-7.633a1 1 0 0 1 1.278-.604m-3.614 10.38-1.035-.237a3.088 3.088 0 0 0-2.413.462l5.814 1.464c-.255-.718-.905-1.298-1.78-1.532zM8.397 3.856a5.189 5.189 0 0 1-2.23 2.486.108.108 0 0 0 0 .189 5.197 5.197 0 0 1 2.23 2.486c.04.089.166.089.206 0a5.189 5.189 0 0 1 2.23-2.486.108.108 0 0 0 0-.189 5.189 5.189 0 0 1-2.23-2.486.113.113 0 0 0-.206 0M5.435 8.715a3.26 3.26 0 0 1-1.4 1.562.068.068 0 0 0 0 .118l.099.058a3.26 3.26 0 0 1 1.301 1.504.071.071 0 0 0 .13 0 3.26 3.26 0 0 1 1.4-1.562.068.068 0 0 0 0-.118 3.26 3.26 0 0 1-1.4-1.562.071.071 0 0 0-.13 0" clip-rule="evenodd"/>
</svg>