<svg xmlns="http://www.w3.org/2000/svg" width="24" height="24" viewBox="0 0 24 24" fill="none">
    <path fill="currentColor" d="M9 4a1 1 0 1 0-2 0v.626c-1.035.127-1.922.394-2.672 1.009a5 5 0 0 0-.693.693c-.624.76-.89 1.663-1.015 2.718-.035.295-.06.613-.077.954h18.914c-.018-.34-.043-.659-.077-.954-.125-1.055-.39-1.957-1.015-2.718a5.005 5.005 0 0 0-.693-.693c-.75-.615-1.637-.882-2.672-1.01V4a1 1 0 1 0-2 0v.51c-.588-.01-1.232-.01-1.937-.01h-2.126c-.705 0-1.35 0-1.937.01zM21.499 12H2.501l-.001.937v.126c0 1.59 0 2.872.12 3.891.125 1.055.39 1.957 1.015 2.718.208.253.44.485.693.693.76.625 1.663.89 2.718 1.015 1.019.12 2.3.12 3.89.12h2.127c1.59 0 2.872 0 3.891-.12 1.055-.125 1.957-.39 2.718-1.015.253-.208.485-.44.693-.693.625-.76.89-1.663 1.015-2.718.12-1.019.12-2.3.12-3.89v-.127z"/>
</svg>