<svg xmlns="http://www.w3.org/2000/svg" width="24" height="24" viewBox="0 0 24 24" fill="none">
    <path fill="currentColor" fill-rule="evenodd" d="M10.26 3.97a5.505 5.505 0 0 0-1.626-1.587 2.474 2.474 0 0 0-.336-.185 1.188 1.188 0 0 0-.881-.034 1.2 1.2 0 0 0-.67.627 3.093 3.093 0 0 0-.15.402c-.095.293-.252.51-.65.88-.522.482-.838 1.059-.923 1.681a2.655 2.655 0 0 0 .326 1.655C5.842 8.296 6.84 9 7.903 9 9.285 9 11 8.034 11 6.194c0-.821-.32-1.596-.74-2.225M8.247 10a101.59 101.59 0 0 1-.494 0c-.492-.002-.986-.003-1.476.037-.48.04-.934.124-1.366.345a3.5 3.5 0 0 0-1.53 1.53c-.22.43-.304.886-.344 1.365C3 13.735 3 14.294 3 14.96v2.08c0 .666 0 1.226.037 1.684.04.478.124.933.344 1.365a3.5 3.5 0 0 0 1.53 1.53c.432.22.887.305 1.366.344.49.04.984.039 1.476.037h.494c.492.002.986.003 1.476-.037.48-.04.934-.124 1.366-.344a3.5 3.5 0 0 0 1.53-1.53c.22-.432.305-.887.344-1.365.037-.458.037-1.018.037-1.684v-2.08c0-.666 0-1.226-.037-1.683-.04-.48-.124-.934-.344-1.366a3.5 3.5 0 0 0-1.53-1.53c-.432-.22-.887-.305-1.366-.344-.49-.04-.984-.039-1.476-.037M17.3 6.47c.854.635 1.7 1.811 1.7 3.085C19 11.123 17.612 12 16.426 12c-.935 0-1.756-.65-2.146-1.4a2.398 2.398 0 0 1-.262-1.416c.069-.533.323-1.031.748-1.45.263-.261.357-.401.417-.562l.009-.025c.036-.1.093-.254.16-.382.079-.147.282-.48.717-.609.377-.112.696-.008.89.09.132.069.26.165.325.213zm1.275 6.699a3.5 3.5 0 0 1 2.255 2.254c.17.529.17 1.145.17 1.925v.303c0 .779 0 1.396-.17 1.924a3.5 3.5 0 0 1-2.255 2.255c-.529.17-1.143.17-1.92.17h-.302c-.776 0-1.391 0-1.92-.17a3.518 3.518 0 0 1-.431-.172c.147-.21.28-.431.397-.662.388-.76.507-1.507.556-2.11.044-.54.044-1.17.044-1.788v-2.197c0-.618 0-1.248-.044-1.788l-.005-.059c.407-.056.867-.056 1.403-.055h.301c.777 0 1.392-.001 1.921.17" clip-rule="evenodd"/>
</svg>