<svg xmlns="http://www.w3.org/2000/svg" width="24" height="24" viewBox="0 0 24 24" fill="none">
    <path fill="currentColor" fill-rule="evenodd" d="M12 5c-2.592 0-4.986.465-6.77 1.258-.89.396-1.674.893-2.247 1.496C2.404 8.36 2 9.122 2 10v4c0 .878.404 1.639.983 2.246.573.603 1.356 1.1 2.247 1.496C7.014 18.535 9.408 19 12 19c2.592 0 4.986-.465 6.77-1.258.89-.396 1.674-.893 2.247-1.496.579-.607.983-1.368.983-2.246v-4c0-.878-.404-1.639-.983-2.246-.573-.603-1.356-1.1-2.247-1.496C16.986 5.465 14.592 5 12 5m8 8.08c-.375.246-.79.466-1.23.662C16.986 14.535 14.592 15 12 15c-2.592 0-4.986-.465-6.77-1.258A8.689 8.689 0 0 1 4 13.08V14c0 .227.1.518.432.868.337.354.872.719 1.61 1.047C7.516 16.57 9.622 17 12 17c2.379 0 4.484-.43 5.958-1.085.738-.328 1.273-.693 1.61-1.047.333-.35.432-.641.432-.868z" clip-rule="evenodd"/>
</svg>