<svg xmlns="http://www.w3.org/2000/svg" width="24" height="24" viewBox="0 0 24 24" fill="none">
    <path fill="currentColor" d="M16 7A5 5 0 1 1 6 7a5 5 0 0 1 10 0"/>
    <path fill="currentColor" fill-rule="evenodd" d="M4.822 14.672C6.425 13.694 8.605 13 11 13c2.396 0 4.575.694 6.178 1.672.8.488 1.484 1.064 1.978 1.69.486.615.844 1.351.844 2.138 0 .845-.411 1.511-1.003 1.986-.56.45-1.299.748-2.084.956-1.578.417-3.684.558-5.913.558s-4.335-.14-5.913-.558c-.785-.208-1.524-.506-2.084-.956C2.41 20.01 2 19.345 2 18.5c0-.787.358-1.523.844-2.139.494-.625 1.177-1.2 1.978-1.69" clip-rule="evenodd"/>
    <path fill="currentColor" d="M20 13a1 1 0 1 0 0 2h1a1 1 0 1 0 0-2zM18 11a1 1 0 0 1 1-1h2a1 1 0 1 1 0 2h-2a1 1 0 0 1-1-1M18 7a1 1 0 1 0 0 2h3a1 1 0 1 0 0-2z"/>
</svg>