<svg xmlns="http://www.w3.org/2000/svg" width="24" height="24" viewBox="0 0 24 24" fill="none">
    <path fill="currentColor" fill-rule="evenodd" d="M14.5 1.5a1 1 0 1 0 0 2l.995.001a1 1 0 0 0 .01-2L14.5 1.5zm-3.797 2.17a1 1 0 1 0-.406-1.959c-.577.12-1.098.313-1.575.632a5 5 0 0 0-1.125 1.032 1 1 0 1 0 1.56 1.25 3 3 0 0 1 .676-.62c.217-.144.483-.255.87-.335m9.172-1.562a1 1 0 0 0-.902 1.785c.068.034.132.071.193.113l.552-.826-.552.826a3 3 0 0 1 .828.827c.067.1.124.207.175.328a1 1 0 1 0 1.845-.772 3.907 3.907 0 0 0-.357-.667 4.998 4.998 0 0 0-1.38-1.38 3.845 3.845 0 0 0-.402-.235m2.623 6.388a1 1 0 1 0-2 .008c.002.31.002.64.002.996a1 1 0 1 0 2 0v-.001c0-.355 0-.689-.002-1.003m-.21 5.207a1 1 0 1 0-1.958-.406c-.08.386-.191.653-.336.87-.17.256-.38.483-.62.675a1 1 0 0 0 1.25 1.561 5 5 0 0 0 1.033-1.125c.319-.477.512-.998.631-1.575m-9.4-7.114c-.88-.09-1.976-.09-3.334-.09h-.541c-.968-.004-1.94-.008-2.9.09-1.552.158-2.891.817-3.77 2.133-.466.696-.662 1.483-.754 2.39-.098.962-.094 1.934-.09 2.9v.542c0 1.358 0 2.454.09 3.333.092.907.288 1.694.753 2.39a5 5 0 0 0 1.38 1.38c.696.465 1.483.661 2.39.753.962.098 1.933.095 2.9.091l.542-.001c1.358 0 2.454 0 3.333-.09.907-.092 1.694-.288 2.39-.753a5.002 5.002 0 0 0 1.38-1.38c.465-.696.661-1.483.753-2.39.09-.879.09-1.975.09-3.333l.001-.541c.004-.967.007-1.94-.09-2.9-.093-.908-.289-1.695-.754-2.391a5 5 0 0 0-1.38-1.38c-.696-.465-1.482-.66-2.39-.753" clip-rule="evenodd"/>
</svg>