<svg xmlns="http://www.w3.org/2000/svg" width="24" height="24" viewBox="0 0 24 24" fill="none">
    <path fill="currentColor" fill-rule="evenodd" d="M12 2C6.477 2 2 6.477 2 12s4.477 10 10 10 10-4.477 10-10a9.959 9.959 0 0 0-2.258-6.33.967.967 0 0 1-.035.037l-5 5a3 3 0 1 1-1.414-1.414l5-5a.977.977 0 0 1 .037-.035A9.959 9.959 0 0 0 12 2m1 2a1 1 0 1 0-2 0v1a1 1 0 1 0 2 0zm-9 7a1 1 0 1 0 0 2h1a1 1 0 1 0 0-2zm15 0h1a1 1 0 1 1 0 2h-1a1 1 0 1 1 0-2M7.047 5.633a1 1 0 0 0-1.414 1.414l.71.71a1 1 0 1 0 1.415-1.414zM13 12a1 1 0 1 1-2 0 1 1 0 0 1 2 0" clip-rule="evenodd"/>
</svg>