<svg xmlns="http://www.w3.org/2000/svg" width="24" height="24" viewBox="0 0 24 24" fill="none">
    <path fill="currentColor" fill-rule="evenodd" d="M9 2.5a1 1 0 0 1 1-1h4a1 1 0 1 1 0 2h-4a1 1 0 0 1-1-1m-3.58 2H4a1 1 0 0 0 0 2h.493l.646 9.644c.082 1.218.149 2.225.304 3.023.163.838.444 1.576 1.044 2.171.653.649 1.512.947 2.412 1.06 1.025.13 2.07.102 3.101.102 1.031 0 2.076.028 3.101-.101.9-.114 1.758-.412 2.412-1.06.6-.596.88-1.334 1.044-2.172.155-.799.222-1.806.304-3.023l.646-9.644H20a1 1 0 1 0 0-2H5.438z" clip-rule="evenodd"/>
</svg>