<svg xmlns="http://www.w3.org/2000/svg" width="24" height="24" viewBox="0 0 24 24" fill="none">
    <path fill="currentColor" fill-rule="evenodd" d="m15.879 5.111 1.075 1.363c.905 1.147 1.64 2.079 2.141 2.898.522.854.85 1.682.85 2.628 0 .946-.328 1.774-.85 2.628-.5.82-1.236 1.75-2.141 2.898l-1.075 1.363c-.684.866-1.264 1.601-1.8 2.11-.567.538-1.226.962-2.079.962-.854 0-1.512-.424-2.08-.962-.535-.509-1.115-1.244-1.799-2.11l-1.075-1.363c-.905-1.147-1.64-2.078-2.141-2.898-.522-.854-.85-1.682-.85-2.628 0-.946.328-1.774.85-2.628.5-.82 1.236-1.75 2.141-2.898l1.075-1.363c.684-.866 1.264-1.601 1.8-2.11.567-.538 1.226-.962 2.079-.962.854 0 1.512.424 2.08.962.535.509 1.115 1.244 1.799 2.11" clip-rule="evenodd"/>
</svg>