<svg xmlns="http://www.w3.org/2000/svg" width="24" height="24" viewBox="0 0 24 24" fill="none">
    <path fill="currentColor" fill-rule="evenodd" d="M12 1a1 1 0 0 1 1 1v1c.92 0 1.84.002 2.76 0 .527-.002 1.063-.003 1.552.213.573.253.967.753 1.365 1.226.229.272.457.54.62.786.176.266.342.599.362 1.018.005.1.002.2-.008.3-.043.418-.228.741-.418.997-.195.26-.468.543-.737.83-.364.388-.744.77-1.25.965-.438.167-.905.166-1.367.165-.96-.002-1.92 0-2.88 0v1c.49.002.998 0 1.458.19a2.5 2.5 0 0 1 1.353 1.353c.116.28.156.558.173.818.04.585.04 1.193 0 1.778-.017.26-.057.538-.173.818a2.5 2.5 0 0 1-1.353 1.353c-.46.19-.968.188-1.457.19v3h2a1 1 0 1 1 0 2H9a1 1 0 1 1 0-2h2v-3c-.96 0-1.92-.002-2.88 0-.46.001-.928.002-1.366-.165-.506-.194-.886-.577-1.25-.966-.269-.286-.543-.569-.737-.83-.19-.255-.375-.578-.418-.996-.01-.1-.013-.2-.008-.3.02-.42.186-.752.362-1.018.19-.287.467-.604.733-.92.36-.43.733-.863 1.252-1.092.489-.216 1.024-.215 1.552-.213.92.002 1.84 0 2.76 0v-1c-.49-.002-.997 0-1.457-.19A2.5 2.5 0 0 1 8.19 7.957a2.548 2.548 0 0 1-.173-.818c-.04-.585-.04-1.193 0-1.778.017-.26.057-.538.173-.818A2.5 2.5 0 0 1 9.543 3.19c.46-.19.968-.188 1.457-.19V2a1 1 0 0 1 1-1" clip-rule="evenodd"/>
</svg>