<svg xmlns="http://www.w3.org/2000/svg" width="24" height="24" viewBox="0 0 24 24" fill="none">
    <path fill="currentColor" fill-rule="evenodd" d="M5.804 14.827c.252.142.485.266.701.364.386.175.788.3 1.248.3.46 0 .86-.125 1.247-.3.356-.162.759-.394 1.214-.657l1.783-1.03 1.784 1.03c.455.263.858.496 1.214.657.386.175.788.3 1.248.3.46 0 .86-.125 1.247-.3.218-.098.452-.224.706-.366 0 .489-.002.923-.038 1.29-.042.421-.134.832-.364 1.23-.23.398-.54.683-.884.93-.318.228-.72.46-1.176.723l-.275.16c-.697.402-1.282.74-1.794.971-.542.246-1.071.406-1.665.406-.594 0-1.123-.16-1.665-.406-.512-.231-1.097-.57-1.794-.972l-.275-.159c-.456-.263-.858-.495-1.176-.723-.345-.247-.654-.532-.884-.93-.23-.398-.322-.809-.364-1.23-.036-.367-.038-.8-.038-1.288" clip-rule="evenodd"/>
    <path fill="currentColor" fill-rule="evenodd" d="M19.485 8.18 18.24 8.9l1.245.718.049.029c.29.167.596.344.823.523.245.195.628.573.628 1.18 0 .608-.383.986-.628 1.18-.227.18-.534.357-.824.525l-.048.028-.78.45c-.456.263-.859.496-1.215.657-.386.175-.788.3-1.248.3-.46 0-.86-.125-1.247-.3-.356-.161-.759-.394-1.214-.657l-1.784-1.03-1.783 1.03c-.455.263-.858.495-1.214.657-.386.175-.788.3-1.248.3-.46 0-.861-.126-1.247-.3-.356-.162-.759-.394-1.214-.657l-.781-.45-.049-.03c-.29-.166-.597-.343-.823-.523-.246-.195-.628-.572-.628-1.18s.382-.985.628-1.18c.226-.18.533-.357.823-.524l.049-.028 1.244-.718-1.244-.718-.049-.028c-.29-.167-.597-.344-.823-.524-.246-.195-.628-.572-.628-1.18 0-.607.382-.985.628-1.18.226-.18.533-.357.823-.524l.613-.354.217-.125c.455-.263.858-.495 1.214-.657.386-.174.787-.3 1.247-.3.46 0 .862.125 1.248.3.356.162.759.394 1.214.657l1.783 1.03 1.784-1.03c.455-.263.858-.496 1.214-.657.386-.175.788-.3 1.247-.3.46 0 .861.125 1.248.3.356.161.759.394 1.214.657l.265.153.564.325c.29.168.597.345.823.524.246.195.629.573.629 1.18 0 .608-.383.986-.628 1.18-.227.18-.534.357-.824.524zM7.757 8.4c-.478.277-.478.724 0 1l3.377 1.95c.478.276 1.253.276 1.732 0l3.376-1.95c.479-.276.479-.723 0-1l-3.376-1.949c-.479-.276-1.254-.276-1.732 0z" clip-rule="evenodd"/>
</svg>