<svg xmlns="http://www.w3.org/2000/svg" width="24" height="24" viewBox="0 0 24 24" fill="none">
    <path fill="currentColor" fill-rule="evenodd" d="M11.716 3.76a.636.636 0 0 1 .887.77l-.394 1.18a1.5 1.5 0 0 0 .949 1.897l.56.187a4 4 0 0 1 1.804 1.228 3.142 3.142 0 0 0-.37-.022H8.848c-.127 0-.25.008-.371.022a4 4 0 0 1 1.803-1.228l.56-.187a1.5 1.5 0 0 0 .95-1.897l-.394-1.18c-.1-.3.036-.628.319-.77m-5.343 6.52a1 1 0 0 1-.268-1.227l.074-.147a6 6 0 0 1 3.47-3.01l.086-.028-.235-.706a2.635 2.635 0 1 1 5 0l-.235.706.086.029a6 6 0 0 1 3.47 3.009l.073.147a1 1 0 0 1-.267 1.226c.542.752.767 1.737.542 2.684-.213.898-.37 1.816-.37 2.537 0 .721.157 1.64.37 2.538C18.62 19.94 17.257 22 15.151 22H8.85c-2.106 0-3.47-2.06-3.019-3.962.213-.899.37-1.817.37-2.538 0-.72-.157-1.639-.37-2.537-.224-.947 0-1.932.542-2.684m1.517 7.714c.036.004.073.006.11.006h3a1 1 0 1 0 0-2H8.183a14.098 14.098 0 0 1-.293 1.994M8.183 15H11a1 1 0 1 0 0-2H7.889c.138.651.253 1.346.294 2" clip-rule="evenodd"/>
</svg>