<svg xmlns="http://www.w3.org/2000/svg" width="24" height="24" viewBox="0 0 24 24" fill="none">
    <path fill="currentColor" fill-rule="evenodd" d="m4.263 11.993.243.214a1 1 0 0 0 1.024.18l3.637-1.421a.01.01 0 0 0 .004-.016L4.955 5.922a1.677 1.677 0 0 1 2.358-2.366l7.176 5.978a.01.01 0 0 0 .008.002l4.569-.855a3 3 0 0 1 2.954 1.152l.232.311a.97.97 0 0 1 .174.777 2.913 2.913 0 0 1-2.1 2.229l-13.432 3.6a4 4 0 0 1-4.306-1.562l-.73-1.037a1.627 1.627 0 0 1 2.405-2.158M3 20a1 1 0 1 0 0 2h18a1 1 0 1 0 0-2z" clip-rule="evenodd"/>
</svg>