<svg xmlns="http://www.w3.org/2000/svg" width="24" height="24" viewBox="0 0 24 24" fill="none">
    <path fill="currentColor" fill-rule="evenodd" d="M7.9 2.5a4.33 4.33 0 0 1 3.38 1.625A2.33 2.33 0 0 0 13.1 5c.39 0 .78-.004 1.17-.009 1.197-.013 2.398-.026 3.585.085.834.078 1.562.243 2.219.637 1.445.868 2.196 2.286 2.35 3.932.086.918.082 1.844.078 2.766l-.002.596.002.682c.006 1.078.011 2.161-.106 3.232-.16 1.448-.734 2.717-1.917 3.595-.732.542-1.577.772-2.558.88-.95.104-2.138.104-3.612.104h-3.882c-1.824 0-3.293 0-4.45-.155-1.2-.162-2.21-.507-3.012-1.31-.803-.802-1.148-1.812-1.31-3.013-.155-1.156-.155-2.625-.155-4.449V7.89c0-.822 0-1.404.117-1.91a4.5 4.5 0 0 1 3.364-3.363c.714-.166 1.476-.147 2.222-.129.234.006.467.012.696.012m1.272 7.672a1 1 0 0 1 1.414 0L12 11.586l1.414-1.415a1 1 0 0 1 1.415 1.415L13.414 13l1.415 1.414a1 1 0 0 1-1.415 1.415L12 14.414l-1.414 1.414a1 1 0 0 1-1.414-1.414L10.586 13l-1.414-1.414a1 1 0 0 1 0-1.414" clip-rule="evenodd"/>
</svg>