<svg xmlns="http://www.w3.org/2000/svg" width="24" height="24" viewBox="0 0 24 24" fill="none">
    <path fill="currentColor" fill-rule="evenodd" d="M7.9 2.5a4.33 4.33 0 0 1 3.38 1.625A2.33 2.33 0 0 0 13.1 5c.39 0 .78-.004 1.17-.009 1.197-.013 2.398-.026 3.585.085.834.078 1.562.243 2.219.637 1.445.868 2.196 2.286 2.35 3.932.086.918.082 1.844.078 2.766l-.002.596.001.432a4.5 4.5 0 0 0-8.499 1.913c-.662.754-.864 1.593-.939 2.151-.064.475-.063.954-.063 1.432v.154c0 .388-.001.928.063 1.408.038.28.107.629.25 1.003h-2.886c-1.824 0-3.293 0-4.45-.155-1.2-.162-2.21-.507-3.012-1.31-.803-.802-1.148-1.812-1.31-3.013-.155-1.156-.155-2.625-.155-4.449V7.89c0-.822 0-1.404.117-1.91a4.5 4.5 0 0 1 3.364-3.363c.714-.166 1.476-.147 2.222-.129.234.006.467.012.696.012m10.1 13a.5.5 0 0 1 1 0v.5h-1zm3 0v.779c.144.076.284.176.414.307.363.363.489.8.54 1.184.046.34.046.752.046 1.176v.108c0 .425 0 .837-.046 1.177-.051.383-.177.82-.54 1.183-.363.363-.8.489-1.184.54-.34.046-.751.046-1.176.046h-1.108c-.425 0-.837 0-1.177-.046-.383-.051-.82-.177-1.183-.54-.363-.363-.489-.8-.54-1.184C15 19.89 15 19.48 15 19.055v-.108c0-.425 0-.837.046-1.177.051-.383.177-.82.54-1.183.13-.13.27-.23.414-.307V15.5a2.5 2.5 0 0 1 5 0" clip-rule="evenodd"/>
</svg>