<svg xmlns="http://www.w3.org/2000/svg" width="24" height="24" viewBox="0 0 24 24" fill="none">
    <path fill="currentColor" d="M6 4a1 1 0 0 0 0 2h12a1 1 0 1 0 0-2z"/>
    <path fill="currentColor" fill-rule="evenodd" d="M22 8a1 1 0 0 0-1-1H3a1 1 0 0 0 0 2h.57c-.242.476-.375 1.005-.451 1.575-.12.884-.119 2-.119 3.354v.142c0 1.354 0 2.47.119 3.354.076.57.209 1.1.451 1.575H3a1 1 0 1 0 0 2h18a1 1 0 1 0 0-2h-.57c.242-.476.375-1.005.451-1.575.12-.884.119-2 .119-3.354v-.141c0-1.355 0-2.471-.119-3.355-.076-.57-.209-1.1-.451-1.575H21a1 1 0 0 0 1-1M9 12v6.998c-.832-.005-1.477-.021-2-.08V12a1 1 0 1 1 2 0m4 7v-7a1 1 0 1 0-2 0v7zm4-.081V12a1 1 0 1 0-2 0v6.998c.832-.005 1.477-.021 2-.08" clip-rule="evenodd"/>
</svg>