<svg xmlns="http://www.w3.org/2000/svg" width="24" height="24" viewBox="0 0 24 24" fill="none">
    <path fill="currentColor" fill-rule="evenodd" d="M7.355 5.147A4.502 4.502 0 0 0 4 9.5c0 .324-.039.68.12.974l3.518 6.534c.741 1.377 1.352 2.511 1.933 3.29.593.796 1.345 1.484 2.429 1.484 1.083 0 1.835-.688 2.428-1.483.582-.78 1.192-1.914 1.934-3.29l3.518-6.535c.159-.294.12-.65.12-.974a4.502 4.502 0 0 0-3.355-4.353 5 5 0 0 0-9.29 0m2.286-.001c.942.246 1.764.79 2.359 1.525a4.502 4.502 0 0 1 2.359-1.525A2.996 2.996 0 0 0 11.999 4c-.956 0-1.809.448-2.358 1.146M11 9.5a2.5 2.5 0 0 0-4.996-.153A16.85 16.85 0 0 0 11 10.467zm2 .967V9.5a2.5 2.5 0 0 1 4.995-.153A16.85 16.85 0 0 1 13 10.467" clip-rule="evenodd"/>
</svg>