<svg xmlns="http://www.w3.org/2000/svg" width="24" height="24" viewBox="0 0 24 24" fill="none">
    <path fill="currentColor" fill-rule="evenodd" d="M17.303 3.16a1 1 0 0 0-1.414 1.414L14.475 5.99l-1.768-1.767a1 1 0 1 0-1.414 1.414l.707.707-2.103 2.102a.972.972 0 0 0-.037.037l-2.09 2.09-.013.013-.013.013-.694.694a4.002 4.002 0 0 0-.618 4.86l-3.21 3.211a1 1 0 1 0 1.414 1.414l3.21-3.21c1.534.906 3.543.7 4.861-.618l4.95-4.95.707.708a1 1 0 0 0 1.414-1.414L18.01 9.524l1.414-1.414a1 1 0 0 0 1.415-1.414zm-.707 4.95 1.414-1.415-.707-.707-1.414 1.414zm-8.132 4.596.707.707a1 1 0 0 0 1.415-1.414l-.707-.707zm2.122-2.121.707.707a1 1 0 1 0 1.414-1.415L12 9.17z" clip-rule="evenodd"/>
</svg>