<svg xmlns="http://www.w3.org/2000/svg" width="24" height="24" viewBox="0 0 24 24" fill="none">
    <path fill="currentColor" fill-rule="evenodd" d="M11 21.5V13H2.5c0 1.628.012 2.958.155 4.022.162 1.2.507 2.211 1.31 3.014.802.802 1.812 1.147 3.013 1.309 1.064.143 2.394.154 4.022.155M2.5 11H11V2.5c-1.628 0-2.958.012-4.022.155-1.2.162-2.211.507-3.014 1.31-.802.802-1.147 1.813-1.309 3.013C2.512 8.042 2.501 9.372 2.5 11m8.749-8.5h1.502H11.427zm1.75 19c1.628 0 2.959-.012 4.023-.155 1.2-.162 2.21-.507 3.014-1.31.802-.802 1.147-1.812 1.309-3.013.143-1.064.154-2.394.155-4.022H13zm8.5-8.737V11.237zm0-1.763c0-1.628-.011-2.958-.154-4.022-.162-1.2-.507-2.211-1.31-3.014-.802-.802-1.813-1.147-3.013-1.309-1.064-.143-2.394-.154-4.022-.155V11z" clip-rule="evenodd"/>
</svg>