<svg xmlns="http://www.w3.org/2000/svg" width="24" height="24" viewBox="0 0 24 24" fill="none">
    <path fill="currentColor" fill-rule="evenodd" d="M5.25 4.75a2.75 2.75 0 0 1 5.5 0c0 .31-.074.67-.155.99-.086.342-.204.727-.335 1.119a49.381 49.381 0 0 1-.866 2.347c-.498 1.265-2.29 1.265-2.788 0-.275-.7-.604-1.562-.866-2.347-.131-.392-.249-.777-.335-1.118-.081-.32-.155-.68-.155-.991m6.816.545a2.75 2.75 0 1 1 3.889 3.89c-.22.219-.526.42-.81.59-.303.18-.658.37-1.027.554-.74.37-1.584.747-2.273 1.047-1.246.543-2.514-.725-1.971-1.971.3-.69.677-1.532 1.047-2.272.185-.37.373-.725.554-1.028.17-.284.371-.59.591-.81m3.443 5.36c.32-.081.68-.155.991-.155a2.75 2.75 0 1 1 0 5.5c-.31 0-.67-.074-.99-.155a16.143 16.143 0 0 1-1.119-.335 49.374 49.374 0 0 1-2.347-.866c-1.265-.498-1.265-2.29 0-2.788.7-.275 1.562-.604 2.347-.866.392-.131.777-.249 1.118-.335m-5.635 6.44c-.543-1.247.725-2.514 1.971-1.971.69.3 1.532.677 2.272 1.047.37.184.725.373 1.028.554.284.169.59.371.81.59a2.75 2.75 0 1 1-3.89 3.89c-.219-.22-.42-.526-.59-.81-.18-.303-.37-.658-.554-1.028-.37-.74-.747-1.583-1.047-2.272" clip-rule="evenodd"/>
</svg>