<svg xmlns="http://www.w3.org/2000/svg" width="24" height="24" viewBox="0 0 24 24" fill="none">
    <path fill="currentColor" fill-rule="evenodd" d="m16.094 6.472.16 2.56a1 1 0 0 1 .118 1.896L16.94 20H19a1 1 0 1 1 0 2H5a1 1 0 1 1 0-2h2.06l.568-9.072a1 1 0 0 1 .118-1.895l.16-2.56.006-.092c.027-.443.05-.832.17-1.199a3 3 0 0 1 .615-1.067c.257-.288.582-.504.951-.75.068-.044.136-.09.204-.136.427-.29.865-.586 1.365-.721a3 3 0 0 1 1.566 0c.5.135.938.431 1.365.72l.204.138c.369.245.694.461.95.75a3 3 0 0 1 .615 1.066c.12.367.144.756.171 1.199zM12 8.5a1.5 1.5 0 1 0 0-3 1.5 1.5 0 0 0 0 3" clip-rule="evenodd"/>
    <path fill="currentColor" d="M4.707 4.293a1 1 0 1 0-1.414 1.414l1 1a1 1 0 1 0 1.414-1.414zM20.707 5.707a1 1 0 0 0-1.414-1.414l-1 1a1 1 0 0 0 1.414 1.414zM5.707 9.707a1 1 0 0 0-1.414-1.414l-1 1a1 1 0 0 0 1.414 1.414zM19.707 8.293a1 1 0 1 0-1.414 1.414l1 1a1 1 0 0 0 1.414-1.414z"/>
</svg>