<svg xmlns="http://www.w3.org/2000/svg" width="24" height="24" viewBox="0 0 24 24" fill="none">
    <path fill="currentColor" fill-rule="evenodd" d="M12 3C6.656 3 2 6.643 2 11.5c0 4.24 3.549 7.106 7.828 7.852.367.064.459.286.493.635.015.15.015.304.014.458 0 .323-.002.647.14.942.248.522.862.755 1.396.541 2.571-1.028 5.063-2.423 6.93-4.138C20.664 16.08 22 13.957 22 11.5 22 6.643 17.344 3 12 3m.268 6.36A1 1 0 0 0 10.5 10v3a1 1 0 0 0 2 0v-.238l.732.878A1 1 0 0 0 15 13v-3a1 1 0 1 0-2 0v.238zM7 10a1 1 0 0 0-2 0v3a1 1 0 0 0 1 1h1a1 1 0 1 0 0-2zm2-1a1 1 0 0 1 1 1v3a1 1 0 0 1-2 0v-3a1 1 0 0 1 1-1m9 2h-.134a.995.995 0 0 1 0 1H18a1 1 0 1 1 0 2h-1.5a1 1 0 0 1-1-1v-3a1 1 0 0 1 1-1H18a1 1 0 1 1 0 2" clip-rule="evenodd"/>
</svg>