<svg xmlns="http://www.w3.org/2000/svg" width="24" height="24" viewBox="0 0 24 24" fill="none">
    <path fill="currentColor" fill-rule="evenodd" d="M4.5 9a7.5 7.5 0 1 1 15 0c0 3.436-2.5 6.025-4.376 7.503-.95.75-1.867 1.37-3.124 1.37-1.258 0-2.174-.62-3.125-1.37C7 15.024 4.5 12.436 4.5 9M14 9a2 2 0 1 1-4 0 2 2 0 0 1 4 0m-7.356 8.447a1 1 0 1 0-1.789-.894l-.25.5-.013.027c-.232.463-.425.85-.562 1.168-.138.323-.258.664-.286 1.027A3 3 0 0 0 5.6 22.276c.337.138.696.183 1.047.204.346.02.778.02 1.296.02H16.058c.517 0 .95 0 1.296-.02.35-.021.71-.066 1.046-.204a3 3 0 0 0 1.855-3.001c-.027-.363-.147-.704-.286-1.027-.137-.319-.33-.705-.561-1.168l-.014-.027-.25-.5a1 1 0 0 0-1.789.894l.25.5c.249.497.415.83.526 1.09.112.26.128.358.13.388a1 1 0 0 1-.618 1c-.028.012-.123.041-.406.058-.281.017-.654.017-1.21.017H7.973c-.556 0-.928 0-1.21-.017-.283-.017-.377-.046-.405-.058a1 1 0 0 1-.618-1c.002-.03.018-.128.13-.389.11-.258.277-.592.525-1.089z" clip-rule="evenodd"/>
</svg>