<svg xmlns="http://www.w3.org/2000/svg" width="24" height="24" viewBox="0 0 24 24" fill="none">
    <path fill="currentColor" d="M2 11a9 9 0 0 1 16.908-4.3c.33.607.412 1.317.27 1.994-.567 2.704-1.825 4.774-3.286 5.94-1.35 1.077-3.166 1.672-4.693 1.5a4.703 4.703 0 0 1-4.145-5.204 3.564 3.564 0 0 1 3.94-3.143 2.65 2.65 0 0 1 2.338 2.93 1.921 1.921 0 0 1-2.124 1.694 1.335 1.335 0 0 1-.899-.493l-.087-.123a1.333 1.333 0 0 1-.196-.558l-.002-.019.034.12A1 1 0 0 0 11 12c1.249 0 2.08-.842 1.994-1.946-.073-.935-.803-1.76-1.783-1.87a2.87 2.87 0 0 0-3.173 2.528 3.334 3.334 0 0 0 2.95 3.687 3.92 3.92 0 0 0 4.331-3.459 4.65 4.65 0 0 0-4.102-5.14 5.563 5.563 0 0 0-6.15 4.906 6.702 6.702 0 0 0 5.908 7.415c2.082.235 4.417-.53 6.164-1.924 1.017-.812 1.938-1.944 2.669-3.337a8.966 8.966 0 0 1-1.776 3.758l3.675 3.675a1 1 0 0 1-1.414 1.414l-3.675-3.675A9 9 0 0 1 2 11"/>
</svg>