<svg xmlns="http://www.w3.org/2000/svg" width="24" height="24" viewBox="0 0 24 24" fill="none">
    <path fill="currentColor" fill-rule="evenodd" d="M4.674 5.378a3 3 0 0 1 .706-.706c.55-.391 1.174-.49 1.8-.496.597-.006 1.336.074 2.206.167.231.025.478.079.71.054.271-.03.514-.177.758-.286.798-.358 1.477-.662 2.046-.84.598-.188 1.222-.288 1.866-.086a3 3 0 0 1 .889.453c.542.403.829.966 1.028 1.56.19.565.343 1.293.523 2.15.048.227.073.478.169.692.111.248.326.433.506.631.587.649 1.085 1.2 1.431 1.687.363.51.65 1.073.657 1.748.004.335-.049.668-.156.986-.215.64-.662 1.086-1.165 1.46-.43.318-.994.65-1.653 1.029l4.13 4.128a1 1 0 0 1-1.413 1.415l-4.13-4.129c-.38.659-.71 1.221-1.029 1.651-.373.503-.82.95-1.46 1.165-.317.107-.65.16-.985.156-.675-.006-1.238-.294-1.748-.657-.487-.346-1.038-.845-1.687-1.431-.172-.156-.34-.345-.543-.461-.232-.133-.521-.16-.78-.214-.857-.18-1.585-.333-2.15-.523-.594-.2-1.157-.486-1.56-1.028a3 3 0 0 1-.453-.889c-.202-.644-.102-1.268.085-1.866.179-.57.483-1.248.84-2.046.11-.242.258-.492.287-.757.025-.233-.029-.48-.054-.71-.093-.87-.173-1.61-.167-2.207.007-.626.105-1.25.496-1.8" clip-rule="evenodd"/>
</svg>