<svg xmlns="http://www.w3.org/2000/svg" width="24" height="24" viewBox="0 0 24 24" fill="none">
    <path fill="currentColor" fill-rule="evenodd" d="M15.328 3.636a2.5 2.5 0 0 1 3.536 3.535l-1.06 1.06a1.13 1.13 0 0 1-.036.035 3.489 3.489 0 0 1-.956 2.37A6.485 6.485 0 0 1 19 15.5a6.478 6.478 0 0 1-1.81 4.5H20a1 1 0 1 1 0 2H4a1 1 0 1 1 0-2h8.5a4.5 4.5 0 0 0 2.895-7.946l-2.188 2.188a3.5 3.5 0 1 1-4.95-4.95l3.536-3.535a3.489 3.489 0 0 1 2.44-1.025.958.958 0 0 1 .035-.036zm1.43 2.136-.015-.015-.015-.015-.339-.339.354-.353a.5.5 0 1 1 .707.707l-.354.353zM5.075 13.889a1 1 0 0 1 1.415 0l2.12 2.12a1 1 0 1 1-1.413 1.415l-2.122-2.121a1 1 0 0 1 0-1.414" clip-rule="evenodd"/>
</svg>