<svg xmlns="http://www.w3.org/2000/svg" width="24" height="24" viewBox="0 0 24 24" fill="none">
    <path fill="currentColor" fill-rule="evenodd" d="M13 3a1 1 0 1 0-2 0v.5h-.063c-1.59 0-2.872 0-3.891.12-1.055.125-1.957.39-2.718 1.015a5 5 0 0 0-.693.693c-.624.76-.89 1.663-1.015 2.718-.12 1.019-.12 2.3-.12 3.89v.127c0 1.59 0 2.872.12 3.891.125 1.055.39 1.957 1.015 2.718.208.253.44.485.693.693.76.625 1.663.89 2.718 1.015 1.019.12 2.3.12 3.89.12H11v1a1 1 0 1 0 2 0zm2.018.51a1 1 0 1 0-.036 2c.351.007.67.017.964.033a1 1 0 1 0 .108-1.997c-.324-.018-.67-.028-1.036-.035m4.654 1.125a1 1 0 1 0-1.269 1.546c.152.125.291.264.416.416a1 1 0 0 0 1.546-1.269 5.005 5.005 0 0 0-.693-.693m1.782 4.31a1 1 0 0 0-1.997.11c.016.292.026.612.032.963a1 1 0 0 0 2-.036 28.835 28.835 0 0 0-.035-1.036m.035 5.073a1 1 0 0 0-2-.036c-.006.351-.016.671-.032.964a1 1 0 0 0 1.997.108c.018-.324.029-.67.035-1.036m-1.124 4.654a1 1 0 1 0-1.546-1.269 2.998 2.998 0 0 1-.416.416 1 1 0 1 0 1.269 1.546 5 5 0 0 0 .693-.693m-4.31 1.782a1 1 0 0 0-.089-1.998l-1 .034a1 1 0 0 0 .052 2c.367-.007.712-.018 1.036-.036" clip-rule="evenodd"/>
</svg>