<svg xmlns="http://www.w3.org/2000/svg" width="24" height="24" viewBox="0 0 24 24" fill="none">
    <path fill="currentColor" d="M7.27 7.267C7.745 5.096 9 2 12 2c3 0 4.255 3.096 4.73 5.267.25 1.14.642 2.241 1.164 3.286C18.907 12.577 21 14.043 21 16.5a3.5 3.5 0 0 1-3.5 3.5c-.576 0-1.52-.372-2.053-.106-.395.198-.662.667-.957.98C13.97 21.424 13.226 22 12 22c-1.226 0-1.97-.576-2.49-1.126-.295-.313-.562-.782-.957-.98C8.02 19.628 7.076 20 6.5 20A3.5 3.5 0 0 1 3 16.5c0-2.457 2.093-3.922 3.106-5.947A14.056 14.056 0 0 0 7.27 7.267"/>
</svg>