<svg xmlns="http://www.w3.org/2000/svg" width="24" height="24" viewBox="0 0 24 24" fill="none">
    <path fill="currentColor" fill-rule="evenodd" d="M17.956 4.143a3.235 3.235 0 0 0-2.043-.534l-9.863.759c-.088.007-.174.02-.257.04l1.295 1.295 11.764-.905c-.258-.265-.59-.451-.896-.655m1.515 2.613-11.765.905v11.517c.394.127.815.18 1.241.147l8.514-.655a2.176 2.176 0 0 0 2.01-2.17zM15.76 1.615a5.235 5.235 0 0 1 3.305.864l.546.364a4.176 4.176 0 0 1 1.86 3.475V16.5a4.176 4.176 0 0 1-3.857 4.164l-8.513.655a5.235 5.235 0 0 1-4.59-2.079l-.723-.964A6.294 6.294 0 0 1 2.53 14.5V6.01a3.647 3.647 0 0 1 3.368-3.636zm.475 6.767a1 1 0 0 1 1 1v7.072a1.34 1.34 0 0 1-2.48.703l-2.814-4.572v4.738a1 1 0 0 1-2 0v-7.072a1.34 1.34 0 0 1 2.48-.702l2.814 4.572V9.382a1 1 0 0 1 1-1" clip-rule="evenodd"/>
</svg>