<svg xmlns="http://www.w3.org/2000/svg" width="24" height="24" viewBox="0 0 24 24" fill="none">
    <path fill="currentColor" fill-rule="evenodd" d="M10.17 19.442a16.45 16.45 0 0 1-2.7-1.344C5.353 16.775 3 14.511 3 11a9 9 0 0 1 18 0c0 3.51-2.353 5.775-4.47 7.098a16.45 16.45 0 0 1-2.7 1.344c.107.16.17.352.17.558v1a1 1 0 0 1-1 1h-2a1 1 0 0 1-1-1v-1c0-.206.063-.398.17-.558m8.28-6.085c.144-.292.11-.65-.135-.864a2 2 0 0 0-3.253 1.012c-.068.268-.286.495-.562.495-.276 0-.494-.227-.562-.495a2 2 0 0 0-3.876 0c-.068.268-.286.495-.562.495-.276 0-.494-.227-.562-.495a2 2 0 0 0-3.253-1.012c-.245.214-.28.572-.134.864.638 1.285 1.759 2.282 2.979 3.045a14.587 14.587 0 0 0 3.186 1.47.92.92 0 0 0 .568 0 14.588 14.588 0 0 0 3.186-1.47c1.22-.763 2.342-1.76 2.98-3.045" clip-rule="evenodd"/>
</svg>