<svg xmlns="http://www.w3.org/2000/svg" width="24" height="24" viewBox="0 0 24 24" fill="none">
    <path fill="currentColor" fill-rule="evenodd" d="M16.243 3.515a3 3 0 0 1 4.242 4.243l-.863.862c.38.6.62 1.235.62 1.966 0 .928-.387 1.7-.954 2.444-.541.709-1.33 1.498-2.288 2.456l-.758.757a1 1 0 1 1-1.414-1.414l.707-.708c1.02-1.02 1.713-1.715 2.163-2.304.432-.567.544-.916.544-1.231 0-.149-.025-.305-.097-.489-2.828 2.829-5.657 5.655-8.484 8.484-.552.553-.97.973-1.495 1.253-.553.296-1.167.409-1.994.574l-1.754.35a1 1 0 0 1-1.177-1.176l.351-1.754c.165-.827.278-1.441.574-1.994.28-.524.7-.943 1.253-1.495 3.137-3.134 6.271-6.272 9.407-9.408l.002-.002.003-.002zm2.109 3.547c-.397-.42-.852-.875-1.352-1.376l-.05-.05.707-.707a1 1 0 1 1 1.414 1.414z" clip-rule="evenodd"/>
</svg>