<svg xmlns="http://www.w3.org/2000/svg" width="24" height="24" viewBox="0 0 24 24" fill="none">
    <path fill="currentColor" fill-rule="evenodd" d="M5 2.5a1 1 0 0 1 1-1h12a1 1 0 1 1 0 2H6a1 1 0 0 1-1-1m4.43 2h5.14c1.355 0 2.471 0 3.355.119.928.125 1.747.396 2.403 1.053.657.656.928 1.475 1.053 2.403.12.884.119 2 .119 3.355v3.14c0 1.355 0 2.471-.119 3.355-.125.928-.396 1.747-1.053 2.403-.656.657-1.475.928-2.403 1.053-.884.12-2 .119-3.355.119H9.43c-1.355 0-2.471 0-3.355-.119-.928-.125-1.747-.396-2.403-1.053-.657-.656-.929-1.475-1.053-2.403-.12-.884-.119-2-.119-3.354v-3.142c0-1.354 0-2.47.119-3.354.124-.928.396-1.747 1.053-2.403.656-.657 1.475-.928 2.403-1.053.884-.12 2-.119 3.354-.119M6.34 6.6c-.706.096-1.033.263-1.255.486-.223.222-.39.55-.485 1.255-.099.735-.101 1.717-.101 3.159v3c0 1.443.002 2.424.1 3.159.096.706.263 1.033.486 1.255.136.136.31.251.587.342l5.96-5.96c.626-.626 1.166-1.166 1.657-1.54.526-.402 1.11-.706 1.831-.706.721 0 1.306.304 1.832.705.49.375 1.03.915 1.657 1.542l.89.89V11.5c0-1.443-.002-2.424-.1-3.159-.096-.706-.263-1.033-.486-1.255-.222-.223-.55-.39-1.255-.485-.735-.099-1.716-.101-3.159-.101h-5c-1.442 0-2.424.002-3.159.1M7 10.5a1.5 1.5 0 1 1 3 0 1.5 1.5 0 0 1-3 0" clip-rule="evenodd"/>
</svg>