<svg xmlns="http://www.w3.org/2000/svg" width="24" height="24" viewBox="0 0 24 24" fill="none">
    <path fill="currentColor" fill-rule="evenodd" d="M9.936 3.5h4.127c1.59 0 2.872 0 3.89.12 1.056.125 1.958.39 2.719 1.015.253.208.485.44.693.693.624.76.89 1.663 1.014 2.718.155 1.308.12 2.64.12 3.954 0 1.315.035 2.646-.12 3.954-.124 1.055-.39 1.957-1.014 2.718-.208.253-.44.485-.693.693-.761.625-1.663.89-2.718 1.015-1.02.12-2.3.12-3.89.12H9.935c-1.59 0-2.871 0-3.89-.12-1.055-.125-1.957-.39-2.718-1.015a5.005 5.005 0 0 1-.693-.693c-.625-.76-.89-1.663-1.015-2.718-.154-1.308-.12-2.64-.12-3.954 0-1.315-.034-2.646.12-3.954.125-1.055.39-1.957 1.015-2.718a5 5 0 0 1 .693-.693c.76-.624 1.663-.89 2.718-1.015 1.019-.12 2.3-.12 3.89-.12" clip-rule="evenodd"/>
</svg>