<svg xmlns="http://www.w3.org/2000/svg" width="24" height="24" viewBox="0 0 24 24" fill="none">
    <path fill="currentColor" fill-rule="evenodd" d="M9.121 3h5.758c.809 0 1.406-.009 1.975.153 1.011.289 1.712 1 2.438 1.725.671.67 1.29 1.339 1.555 2.268.187.658.153 1.299.153 1.975v3.952c0 1.824 0 3.293-.155 4.45-.162 1.2-.507 2.21-1.31 3.013-.802.802-1.812 1.147-3.013 1.309-1.156.155-2.625.155-4.449.155h-.146c-1.824 0-3.293 0-4.45-.155-1.2-.162-2.21-.507-3.013-1.31-.802-.802-1.147-1.812-1.309-3.013C3 16.367 3 14.897 3 13.073V9.121c0-.675-.034-1.317.153-1.975.288-1.011 1-1.712 1.725-2.438.67-.671 1.339-1.29 2.268-1.555C7.715 2.991 8.313 3 9.121 3m8.266 2.733c.56.502.841.752.743 1.01-.098.257-.499.257-1.3.257H7.17c-.801 0-1.202 0-1.3-.257-.098-.258.182-.508.743-1.01.211-.188.43-.355.657-.48C7.835 4.937 8.497 5 9.121 5h5.758c.624 0 1.286-.062 1.85.252.227.126.447.293.658.481M9 11a1 1 0 0 1 1 1 2 2 0 1 0 4 0 1 1 0 1 1 2 0 4 4 0 0 1-8 0 1 1 0 0 1 1-1" clip-rule="evenodd"/>
</svg>