<svg xmlns="http://www.w3.org/2000/svg" width="24" height="24" viewBox="0 0 24 24" fill="none">
    <path fill="currentColor" fill-rule="evenodd" d="M17.802 4.182c-.582-.304-1.274.147-1.33.865-.011.135-.022.287-.032.454a7 7 0 0 0-.986.06 5.5 5.5 0 0 0-2.827 1.314 1.5 1.5 0 1 0 1.984 2.25 2.5 2.5 0 0 1 1.285-.598 3.91 3.91 0 0 1 .542-.026c.012.213.025.402.039.563.054.672.684 1.057 1.26.756.38-.198.933-.506 1.591-.934a20.07 20.07 0 0 0 1.515-1.083c.52-.411.539-1.217.05-1.606a19.784 19.784 0 0 0-1.533-1.1 19.337 19.337 0 0 0-1.558-.915M6.697 8.692C6.3 8.527 5.819 8.5 4 8.5a1.5 1.5 0 1 1 0-3h.254c1.44-.002 2.575-.003 3.596.423A5.5 5.5 0 0 1 9 6.574c.891.657 1.474 1.631 2.214 2.867l.13.217 1.884 3.14c.936 1.56 1.207 1.96 1.553 2.214.161.12.337.218.522.296.246.102.526.152 1.138.174.01-.16.02-.305.03-.434.056-.72.749-1.17 1.331-.866.38.199.921.502 1.558.916.668.434 1.19.826 1.533 1.1.489.389.47 1.194-.05 1.605-.342.271-.855.655-1.515 1.083-.659.428-1.21.736-1.59.934-.577.3-1.207-.084-1.261-.756a22.208 22.208 0 0 1-.04-.577c-.854-.03-1.597-.122-2.287-.41a5.5 5.5 0 0 1-1.15-.651c-.891-.657-1.474-1.631-2.214-2.867l-.13-.217-1.884-3.14c-.936-1.56-1.207-1.96-1.553-2.214a2.5 2.5 0 0 0-.522-.296m.692 6.183a1.5 1.5 0 1 1 1.984 2.25 5.5 5.5 0 0 1-2.827 1.315c-.405.06-.827.06-1.366.06H4a1.5 1.5 0 0 1 0-3h1.085c.678 0 .862-.004 1.019-.027l.221 1.483-.221-1.483c.48-.072.925-.28 1.285-.598" clip-rule="evenodd"/>
</svg>