<svg xmlns="http://www.w3.org/2000/svg" width="24" height="24" viewBox="0 0 24 24" fill="none">
    <path fill="currentColor" fill-rule="evenodd" d="M7.493 2.138a1 1 0 0 1 1.213.154v.001l.012.01c.011.012.03.029.054.052a8.559 8.559 0 0 0 1.033.813C10.504 3.635 11.3 4 12 4c.7 0 1.495-.365 2.195-.832a8.555 8.555 0 0 0 1.086-.864l.011-.011a1 1 0 0 1 1.67.982l-1.815 6.35c.65.572 1.19 1.293 1.638 2.043.58.976 1.037 2.06 1.38 3.074.345 1.015.583 1.985.721 2.744.109.598.295 1.388.008 1.961-.462.924-1.904 1.009-2.798 1.11-1.159.13-2.636.193-4.096.193s-2.938-.063-4.097-.194c-.9-.101-2.324-.162-2.798-1.109-.292-.585-.101-1.358.008-1.961.138-.76.377-1.729.72-2.744.344-1.014.8-2.098 1.382-3.074.447-.75.988-1.47 1.637-2.043l-1.814-6.35a1 1 0 0 1 .455-1.137m3.163 6.519A5.7 5.7 0 0 1 12 8.5a5.7 5.7 0 0 1 1.344.157l.922-3.229C13.6 5.748 12.819 6 12 6c-.82 0-1.6-.252-2.266-.572z" clip-rule="evenodd"/>
</svg>