<svg xmlns="http://www.w3.org/2000/svg" width="24" height="24" viewBox="0 0 24 24" fill="none">
    <path fill="currentColor" fill-rule="evenodd" d="M11 3a1 1 0 1 1 2 0v1a1 1 0 1 1-2 0zm0 17a1 1 0 1 1 2 0v1a1 1 0 1 1-2 0zm-9-8a1 1 0 0 0 1 1h1a1 1 0 1 0 0-2H3a1 1 0 0 0-1 1m18 1a1 1 0 1 1 0-2h1a1 1 0 1 1 0 2zM6.343 4.929A1 1 0 0 0 4.93 6.343l.707.707A1 1 0 0 0 7.05 5.636zM16.95 18.364a1 1 0 0 1 1.414-1.414l.707.707a1 1 0 0 1-1.414 1.414zm-12.021-.707a1 1 0 1 0 1.414 1.414l.707-.707a1 1 0 1 0-1.414-1.414zM18.364 7.05a1 1 0 1 1-1.414-1.414l.707-.707a1 1 0 1 1 1.414 1.414zM12 6a6 6 0 1 0 0 12 6 6 0 0 0 0-12" clip-rule="evenodd"/>
</svg>