<svg xmlns="http://www.w3.org/2000/svg" width="24" height="24" viewBox="0 0 24 24" fill="none">
    <path fill="currentColor" fill-rule="evenodd" d="M9.995 3.998c1.308 0 1.683.018 2.008.153.325.134.603.387 1.528 1.312l6.02 6.02a1 1 0 1 0 1.415-1.414l-6.021-6.02-.12-.12c-.749-.75-1.318-1.32-2.056-1.626-.74-.306-1.544-.305-2.604-.305H7a1 1 0 1 0 0 2zm1.36 1.133c-.74-.306-1.544-.305-2.604-.304H7.929c-.886 0-1.65 0-2.261.082-.656.088-1.284.287-1.794.796-.51.51-.708 1.138-.797 1.794-.082.612-.082 1.375-.082 2.262V10.583c0 1.06-.001 1.864.305 2.603.306.739.875 1.307 1.625 2.056l.12.12 3.225 3.225c.634.633 1.156 1.156 1.619 1.541.48.402.97.719 1.556.876a4 4 0 0 0 2.07 0c.587-.157 1.076-.474 1.557-.876.463-.385.986-.908 1.619-1.54l.065-.066c.633-.633 1.156-1.156 1.541-1.618.401-.481.719-.97.876-1.557a4 4 0 0 0 0-2.07c-.157-.587-.475-1.076-.876-1.557-.386-.462-.908-.985-1.541-1.618L13.53 6.877l-.12-.12c-.75-.75-1.318-1.32-2.056-1.626M8.59 11.923a1.5 1.5 0 1 0 0-3 1.5 1.5 0 0 0 0 3" clip-rule="evenodd"/>
</svg>