<svg xmlns="http://www.w3.org/2000/svg" width="24" height="24" viewBox="0 0 24 24" fill="none">
    <path fill="currentColor" fill-rule="evenodd" d="M12.874 3.625c-.272.376-.57.828-.807 1.375H12a7 7 0 1 0 7 7v-.036c.338-.155.595-.32.784-.44l.052-.033c.73-.464 1.374-.994 1.943-1.594.145.678.221 1.382.221 2.103 0 5.523-4.477 10-10 10S2 17.523 2 12 6.477 2 12 2c.721 0 1.425.076 2.102.221-.445.423-.855.89-1.228 1.404m3.512 8.824c.183 0 .383-.003.595-.015a5 5 0 1 1-5.386-5.418 9.81 9.81 0 0 0-.023.48c-.004.2-.003.448 0 .688l-1.229 1.23a3 3 0 0 0 4.243 4.243l1.22-1.22c.18.005.38.01.58.012m-2.809-4.034c.004.197.009.392.009.585l-1.829 1.828a1 1 0 0 0 1.415 1.414L15 10.414c.224 0 .457.008.692.017.7.025 1.428.052 2.075-.136.41-.12.673-.286.963-.47l.034-.022a8.213 8.213 0 0 0 2.64-2.69c.303-.49.544-1.032.231-1.593-.256-.46-.694-.578-.918-.613-.373-.06-.764-.048-1.148-.037-.151.004-.3.009-.448.009 0-.148.004-.297.009-.448.01-.384.022-.776-.037-1.148-.036-.224-.154-.662-.613-.918-.561-.313-1.104-.072-1.594.231a8.237 8.237 0 0 0-2.392 2.202c-.3.414-.555.828-.713 1.318-.237.73-.22 1.525-.204 2.3" clip-rule="evenodd"/>
</svg>