<svg xmlns="http://www.w3.org/2000/svg" width="24" height="24" viewBox="0 0 24 24" fill="none">
    <path fill="currentColor" fill-rule="evenodd" d="M7.587 21.73c1.73.785 3.963 1.288 8.156.24 1.638-.41 2.868-1.684 3.667-3.12C20.412 17.046 21 14.622 21 12s-.588-5.046-1.59-6.85c-.799-1.436-2.03-2.71-3.668-3.12-4.192-1.048-6.426-.545-8.155.24-1.396.632-2.537 1.973-3.321 3.637C3.473 7.59 3 9.691 3 12s.473 4.41 1.266 6.093c.784 1.664 1.925 3.005 3.321 3.638M12.34 6.123C11.53 7.576 11 9.652 11 12c0 2.348.53 4.424 1.339 5.878C13.165 19.366 14.147 20 15 20s1.835-.634 2.661-2.122C18.47 16.424 19 14.348 19 12c0-2.348-.53-4.424-1.339-5.878C16.835 4.634 15.853 4 15 4s-1.835.634-2.661 2.122M15 8.5c-.706 0-1.21.559-1.508 1.155C13.18 10.281 13 11.111 13 12c0 .89.18 1.719.492 2.345.298.596.802 1.155 1.508 1.155s1.21-.559 1.508-1.155C16.82 13.719 17 12.889 17 12c0-.89-.18-1.719-.492-2.345C16.21 9.06 15.706 8.5 15 8.5" clip-rule="evenodd"/>
</svg>