<svg xmlns="http://www.w3.org/2000/svg" width="24" height="24" viewBox="0 0 24 24" fill="none">
    <path fill="currentColor" d="M11 2a5 5 0 1 0 0 10 5 5 0 0 0 0-10M11.123 14.55a1 1 0 0 0-.913-1.525c-2.21.14-4.195.858-5.651 1.813-.728.478-1.348 1.031-1.796 1.63C2.32 17.057 2 17.755 2 18.5c0 1.535 1.278 2.346 2.495 2.763 1.28.439 2.99.638 4.832.707a1 1 0 0 0 .995-1.29A7.498 7.498 0 0 1 10 18.5a7.46 7.46 0 0 1 1.123-3.95"/>
    <path fill="currentColor" fill-rule="evenodd" d="M13.51 15.278c.858-.757 2.084-1.39 3.49-1.39 1.406 0 2.632.633 3.49 1.39a5.3 5.3 0 0 1 1.057 1.26c.252.427.453.94.453 1.462 0 .523-.2 1.035-.453 1.462a5.3 5.3 0 0 1-1.057 1.26c-.858.757-2.084 1.39-3.49 1.39-1.406 0-2.632-.633-3.49-1.39a5.3 5.3 0 0 1-1.057-1.26C12.2 19.035 12 18.522 12 18c0-.523.2-1.035.453-1.462a5.3 5.3 0 0 1 1.057-1.26m4.486 2.635a.667.667 0 0 1-.91-.91 1 1 0 1 0 .91.91" clip-rule="evenodd"/>
</svg>