<svg xmlns="http://www.w3.org/2000/svg" width="24" height="24" viewBox="0 0 24 24" fill="none">
    <path fill="currentColor" fill-rule="evenodd" d="M6 7a5 5 0 1 1 10 0A5 5 0 0 1 6 7m-1.178 7.672C6.425 13.694 8.605 13 11 13c.447 0 .887.024 1.316.07a1 1 0 0 1 .72 1.557A5.968 5.968 0 0 0 12 18c0 .92.207 1.79.575 2.567a1 1 0 0 1-.89 1.428c-.226.003-.455.005-.685.005-2.229 0-4.335-.14-5.913-.558-.785-.208-1.524-.506-2.084-.956C2.41 20.01 2 19.345 2 18.5c0-.787.358-1.523.844-2.139.494-.625 1.177-1.2 1.978-1.69M18.5 15a.5.5 0 0 0-.5.5v.5h1v-.5a.5.5 0 0 0-.5-.5m2.5 1.279V15.5a2.5 2.5 0 0 0-5 0v.779a1.742 1.742 0 0 0-.414.307c-.363.363-.489.8-.54 1.184-.048.354-.046.787-.046 1.23 0 .443-.002.876.046 1.23.051.384.177.821.54 1.184.363.363.8.489 1.184.54.354.048.787.046 1.23.046h1c.443 0 .876.002 1.23-.046.384-.051.821-.177 1.184-.54.363-.363.489-.8.54-1.184.048-.354.046-.787.046-1.23 0-.443.002-.876-.046-1.23-.051-.384-.177-.821-.54-1.184-.13-.13-.27-.23-.414-.307" clip-rule="evenodd"/>
</svg>