<svg xmlns="http://www.w3.org/2000/svg" width="24" height="24" viewBox="0 0 24 24" fill="none">
    <path fill="currentColor" fill-rule="evenodd" d="M8 5.5a2.5 2.5 0 0 1 4.364-1.666 8.786 8.786 0 0 1 4.272 0 2.5 2.5 0 1 1 3.688 3.375c.363.74.564 1.501.564 2.291s-.2 1.55-.564 2.29a2.5 2.5 0 1 1-3.688 3.375c-.276.068-.55.122-.822.163a5.507 5.507 0 0 1-.49 1.462 2.5 2.5 0 1 1-3.688 3.375 8.787 8.787 0 0 1-4.272 0 2.5 2.5 0 1 1-3.53-3.53 8.786 8.786 0 0 1 0-4.27 2.5 2.5 0 1 1 3.53-3.53c.42-.103.836-.176 1.253-.218.042-.414.115-.83.217-1.253A2.494 2.494 0 0 1 8 5.5m2.742 2.488a6.746 6.746 0 0 0 0 3.024 2.5 2.5 0 0 1 2.246 2.246 6.746 6.746 0 0 0 3.024 0A2.5 2.5 0 0 1 18.482 11c.286-.55.406-1.042.406-1.5 0-.458-.12-.95-.405-1.5a2.5 2.5 0 0 1-2.471-2.258 6.747 6.747 0 0 0-3.024 0 2.5 2.5 0 0 1-2.246 2.246m1.622 7.178a2.5 2.5 0 1 1-3.53-3.53 9.485 9.485 0 0 1-.189-1.01 7.354 7.354 0 0 0-.657.117 2.5 2.5 0 0 1-2.246 2.245 6.747 6.747 0 0 0 0 3.024 2.5 2.5 0 0 1 2.246 2.246 6.746 6.746 0 0 0 3.024 0A2.5 2.5 0 0 1 13.482 16c.11-.21.194-.41.257-.605a9.288 9.288 0 0 1-1.375-.23" clip-rule="evenodd"/>
</svg>