<svg xmlns="http://www.w3.org/2000/svg" width="24" height="24" fill="none"><path fill="#fff" fill-opacity=".01" d="M24 0v24H0V0z"/><path fill="#F7F9FC" d="M16.75 4a.75.75 0 0 0-1.5 0zm-8 0a.75.75 0 0 0-1.5 0zM8 12.276l.75-.017zm3.941-2.135-.533.528zM16 12.276l.75.017zm-3.94-2.135.533.528zm-.863 6.046-.383.645zm1.608 0 .383.645zM5 6.75h14v-1.5H5zM4.75 19V7h-1.5v12zm14.5-12v12h1.5V7zM19 19.25H5v1.5h14zM15.25 4v2h1.5V4zm-8 0v2h1.5V4zm1.5 8.259c-.019-.867.423-1.555.965-1.87.505-.295 1.125-.295 1.693.28l1.067-1.055c-1.071-1.083-2.446-1.145-3.515-.522-1.03.6-1.74 1.808-1.709 3.2zm7.999.034c.031-1.393-.678-2.6-1.709-3.201-1.069-.623-2.444-.56-3.515.522l1.067 1.055c.568-.575 1.188-.575 1.693-.28.542.315.984 1.003.964 1.87zM12 15.805c.072 0 .104.017.074.006a1.064 1.064 0 0 1-.116-.052c-.117-.06-.24-.134-.379-.217l-.766 1.29c.114.067.293.177.465.264.088.045.191.093.3.13.099.036.25.08.422.08zm-.42-.263c-2.053-1.219-2.808-2.334-2.83-3.283l-1.499.034c.04 1.771 1.415 3.263 3.562 4.539zm.42 1.763c.172 0 .323-.043.423-.078a2.49 2.49 0 0 0 .299-.13c.172-.088.351-.198.465-.265l-.766-1.29c-.14.083-.262.158-.379.217a1.064 1.064 0 0 1-.116.052c-.03.011.002-.006.074-.006zm1.187-.473c2.147-1.276 3.522-2.768 3.562-4.54l-1.5-.033c-.02.949-.776 2.064-2.828 3.283zm-1.779-6.163a.833.833 0 0 0 1.184 0l-1.067-1.055a.667.667 0 0 1 .95 0zM19.25 19a.25.25 0 0 1-.25.25v1.5A1.75 1.75 0 0 0 20.75 19zm-16 0c0 .966.784 1.75 1.75 1.75v-1.5a.25.25 0 0 1-.25-.25zM19 6.75a.25.25 0 0 1 .25.25h1.5A1.75 1.75 0 0 0 19 5.25zM5 5.25A1.75 1.75 0 0 0 3.25 7h1.5A.25.25 0 0 1 5 6.75z"/></svg>