<svg xmlns="http://www.w3.org/2000/svg" width="24" height="24" fill="none" viewBox="0 0 24 24">
    <path fill="currentColor" d="M5 20.25a.75.75 0 0 0 0 1.5zm14 1.5a.75.75 0 0 0 0-1.5zm-9-15.5a.75.75 0 0 0 0 1.5zm.002 1.5a.75.75 0 0 0 0-1.5zM14 6.25a.75.75 0 0 0 0 1.5zm.002 1.5a.75.75 0 0 0 0-1.5zM10 9.25a.75.75 0 0 0 0 1.5zm.002 1.5a.75.75 0 0 0 0-1.5zM14 9.25a.75.75 0 0 0 0 1.5zm.002 1.5a.75.75 0 0 0 0-1.5zM5 21.75h14v-1.5H5zM6.75 21V4h-1.5v17zM7 3.75h10v-1.5H7zM17.25 4v17h1.5V4zm-6.5 17v-6.5h-1.5V21zm-.25-6.25h3v-1.5h-3zm2.75-.25V21h1.5v-6.5zM10 7.75h.002v-1.5H10zm4 0h.002v-1.5H14zm-4 3h.002v-1.5H10zm4 0h.002v-1.5H14zm-3.25 3.75a.25.25 0 0 1-.25.25v-1.5c-.69 0-1.25.56-1.25 1.25zM17 3.75a.25.25 0 0 1 .25.25h1.5A1.75 1.75 0 0 0 17 2.25zm-3.5 11a.25.25 0 0 1-.25-.25h1.5c0-.69-.56-1.25-1.25-1.25zM6.75 4A.25.25 0 0 1 7 3.75v-1.5A1.75 1.75 0 0 0 5.25 4z"/>
</svg>