<svg xmlns="http://www.w3.org/2000/svg" width="24" height="24" fill="none"><path fill="#fff" fill-opacity=".01" d="M24 0v24H0V0z"/><path fill="#F7F9FC" d="M5.641 7.134 5.06 6.66a.75.75 0 0 0 .246 1.145zm4.243-4.242.67-.336a.75.75 0 0 0-1.109-.273zm-3.182 1.06.006-.75a.75.75 0 0 0-.755.72zm7.414-1.06.474-.582a.75.75 0 0 0-1.145.246zm4.243 4.242.335.671a.75.75 0 0 0 .273-1.11zm-1.06-3.182.75.006a.75.75 0 0 0-.72-.755zm-4.05 6.512a.75.75 0 0 0-.499 1.414zm.873 2.786a.75.75 0 1 0 1.414-.5zm-6.3-4.867.448.602zm8.356 0-.448.602zm-9.955-.775c.437-.536.742-1.039.937-1.638.19-.585.26-1.219.291-1.987l-1.498-.061c-.03.725-.094 1.196-.22 1.584-.122.375-.317.717-.673 1.154zm.473-2.906c.697.006 1.288-.05 1.88-.246.588-.194 1.128-.51 1.746-.956l-.876-1.217c-.561.404-.96.623-1.34.75-.378.124-.789.174-1.398.17zm6.946-1.229c.536.437 1.04.742 1.638.937.586.19 1.22.26 1.987.292l.062-1.5c-.725-.029-1.196-.092-1.585-.219-.375-.122-.717-.316-1.154-.673zm2.906.474c-.005.696.05 1.287.246 1.88.194.588.51 1.127.956 1.746l1.217-.877c-.404-.56-.622-.959-.749-1.34-.125-.378-.175-.788-.17-1.398zM18.25 14A6.25 6.25 0 0 1 12 20.25v1.5A7.75 7.75 0 0 0 19.75 14zM12 20.25A6.25 6.25 0 0 1 5.75 14h-1.5A7.75 7.75 0 0 0 12 21.75zm.75-8.372a2.258 2.258 0 0 1 1.372 1.372l1.414-.5a3.758 3.758 0 0 0-2.286-2.286zM5.75 14a6.24 6.24 0 0 1 2.52-5.015l-.896-1.203A7.74 7.74 0 0 0 4.25 14zm2.476-6.249a27.645 27.645 0 0 0-2.235-1.28l-.01-.005-.003-.002h-.001l-.336.67-.335.671.002.001.007.004a8.607 8.607 0 0 1 .16.082 26.142 26.142 0 0 1 1.943 1.123zm7.504 1.234A6.24 6.24 0 0 1 18.25 14h1.5a7.74 7.74 0 0 0-3.124-6.218zm2.629-1.85-.336-.672-.001.001-.003.002-.01.005a9.596 9.596 0 0 0-.178.091 27.64 27.64 0 0 0-2.057 1.19l.808 1.263a26.127 26.127 0 0 1 2.07-1.189l.033-.016.007-.004h.002v-.001zM8.27 8.984a6.214 6.214 0 0 1 3.187-1.211l-.128-1.495a7.713 7.713 0 0 0-3.955 1.503zm3.187-1.211c.179-.016.36-.024.543-.024v-1.5c-.226 0-.45.01-.671.03zm.479-.23c.75-.786 1.465-1.88 1.98-2.743a29.004 29.004 0 0 0 .853-1.54l.013-.024.003-.007.001-.002-.67-.336-.67-.336-.001.001-.003.005-.01.02-.043.084a27.73 27.73 0 0 1-.762 1.367c-.502.842-1.148 1.816-1.777 2.476zM12 7.75c.183 0 .364.008.543.024l.128-1.495A7.841 7.841 0 0 0 12 6.25zm.543.024a6.213 6.213 0 0 1 3.187 1.21l.896-1.202a7.713 7.713 0 0 0-3.955-1.503zm-2.66-4.882-.67.335v.001l.002.002.003.007a10.058 10.058 0 0 0 .06.117 29.11 29.11 0 0 0 .806 1.447c.515.864 1.23 1.957 1.98 2.743l1.086-1.035c-.63-.66-1.275-1.634-1.777-2.476a27.6 27.6 0 0 1-.805-1.45l-.01-.021-.003-.005z"/></svg>