<svg xmlns="http://www.w3.org/2000/svg" width="24" height="24" fill="none" viewBox="0 0 24 24">
    <path fill="currentColor" d="M11 14.5a.5.5 0 1 1-1 0 .5.5 0 0 1 1 0M11 18.5a.5.5 0 1 1-1 0 .5.5 0 0 1 1 0M15 16.5a.5.5 0 1 1-1 0 .5.5 0 0 1 1 0M15 20.5a.5.5 0 1 1-1 0 .5.5 0 0 1 1 0"/>
    <path stroke="currentColor" stroke-linecap="round" stroke-linejoin="round" stroke-width="1.5" d="M6 16.874a4.002 4.002 0 0 1 .034-7.757 5.5 5.5 0 0 1 10.777-2.052A5.001 5.001 0 0 1 19.001 16M11 14.5a.5.5 0 1 1-1 0 .5.5 0 0 1 1 0m0 4a.5.5 0 1 1-1 0 .5.5 0 0 1 1 0m4-2a.5.5 0 1 1-1 0 .5.5 0 0 1 1 0m0 4a.5.5 0 1 1-1 0 .5.5 0 0 1 1 0"/>
</svg>