<svg xmlns="http://www.w3.org/2000/svg" width="24" height="24" fill="none" viewBox="0 0 24 24">
    <path fill="currentColor" d="M15 6v-.75a.75.75 0 0 0-.75.75zm0 4h-.75c0 .414.336.75.75.75zM3 17h-.75c0 .414.336.75.75.75zm9-13.75a.75.75 0 0 0 0 1.5zm6.69 6.455a.75.75 0 0 0-1.38.59zm1.62 7.59a.75.75 0 0 0 1.38-.59zM4 17.75a.75.75 0 0 0 0-1.5zm4.25-.25a1.75 1.75 0 0 1-1.75 1.75v1.5a3.25 3.25 0 0 0 3.25-3.25zM6.5 19.25a1.75 1.75 0 0 1-1.75-1.75h-1.5a3.25 3.25 0 0 0 3.25 3.25zM4.75 17.5c0-.966.784-1.75 1.75-1.75v-1.5a3.25 3.25 0 0 0-3.25 3.25zm1.75-1.75c.966 0 1.75.784 1.75 1.75h1.5a3.25 3.25 0 0 0-3.25-3.25zm13.75 1.75a1.75 1.75 0 0 1-1.75 1.75v1.5a3.25 3.25 0 0 0 3.25-3.25zm-1.75 1.75a1.75 1.75 0 0 1-1.75-1.75h-1.5a3.25 3.25 0 0 0 3.25 3.25zm-1.75-1.75c0-.966.784-1.75 1.75-1.75v-1.5a3.25 3.25 0 0 0-3.25 3.25zm1.75-1.75c.966 0 1.75.784 1.75 1.75h1.5a3.25 3.25 0 0 0-3.25-3.25zM9 11.25H3v1.5h6zm6-4.5h4v-1.5h-4zm4.25.25v2h1.5V7zM19 9.25h-4v1.5h4zm-3.25.75V6h-1.5v4zM9 18.75h7v-1.5H9zM8.25 9v2h1.5V9zm7.5 2V5h-1.5v6zM14 3.25h-2v1.5h2zm-6 4H4v1.5h4zM2.25 9v8h1.5V9zm15.06 1.295 3 7 1.38-.59-3-7zM3 17.75h1v-1.5H3zM15.75 5A1.75 1.75 0 0 0 14 3.25v1.5a.25.25 0 0 1 .25.25zM12 14.75A3.75 3.75 0 0 0 15.75 11h-1.5A2.25 2.25 0 0 1 12 13.25zM8.25 11A3.75 3.75 0 0 0 12 14.75v-1.5A2.25 2.25 0 0 1 9.75 11zm1.5-2A1.75 1.75 0 0 0 8 7.25v1.5a.25.25 0 0 1 .25.25zm9.5 0a.25.25 0 0 1-.25.25v1.5A1.75 1.75 0 0 0 20.75 9zM4 7.25A1.75 1.75 0 0 0 2.25 9h1.5A.25.25 0 0 1 4 8.75zm15-.5a.25.25 0 0 1 .25.25h1.5A1.75 1.75 0 0 0 19 5.25z"/>
</svg>