<svg xmlns="http://www.w3.org/2000/svg" width="24" height="24" fill="none" viewBox="0 0 24 24">
    <path fill="currentColor" d="M19 4.5a.5.5 0 1 1-1 0 .5.5 0 0 1 1 0"/>
    <path fill="currentColor" d="M4.33 19.665a.75.75 0 1 0 1.34.67zM18.377 9.237a.75.75 0 0 0-1.423-.474zM9.591 8.41a.75.75 0 0 0 1.06-1.06zM8 5.757l.53-.53a.75.75 0 0 0-1.06 0zM5.348 7.348A.75.75 0 0 0 6.41 8.41zm.323 12.987 2.17-4.341-1.341-.671-2.17 4.342zm4.183-5.585h2.542v-1.5H9.854zm7.997-3.932.527-1.58-1.423-.475-.527 1.581zM18.25 4.5a.25.25 0 0 1 .25-.25v1.5c.69 0 1.25-.56 1.25-1.25zm.25-.25a.25.25 0 0 1 .25.25h-1.5c0 .69.56 1.25 1.25 1.25zm.25.25a.25.25 0 0 1-.25.25v-1.5c-.69 0-1.25.56-1.25 1.25zm-.25.25a.25.25 0 0 1-.25-.25h1.5c0-.69-.56-1.25-1.25-1.25zm-7.848 2.598L8.53 5.227l-1.06 1.06L9.59 8.41zM7.47 5.227 5.348 7.348 6.41 8.41 8.53 6.288zm4.926 9.523a5.75 5.75 0 0 0 5.455-3.932l-1.423-.474a4.25 4.25 0 0 1-4.032 2.906zm-4.554 1.244a2.25 2.25 0 0 1 2.012-1.244v-1.5A3.75 3.75 0 0 0 6.5 15.323z"/>
</svg>