<svg xmlns="http://www.w3.org/2000/svg" width="24" height="24" fill="none" viewBox="0 0 24 24">
    <path fill="currentColor" d="M14 17.25a.75.75 0 0 0 0 1.5zm4.53-2.609a.75.75 0 0 0-1.06 1.06zM20.828 18l.53.53a.75.75 0 0 0 0-1.06zm-3.358 2.298a.75.75 0 0 0 1.06 1.06zM14.293 3.293l-.53.53zm3.957 5.121V9h1.5v-.586zm0 .586v3h1.5V9zM6 3.75h7v-1.5H6zm7 0h.586v-1.5H13zm.763.073 4.414 4.414 1.06-1.06-4.414-4.414zM12.25 3v5.5h1.5V3zm1.25 6.75H19v-1.5h-5.5zM5.75 20V4h-1.5v16zM14 18.75h6.328v-1.5H14zm3.47-3.048 2.828 2.828 1.06-1.06-2.828-2.829zm2.828 1.768-2.828 2.828 1.06 1.06 2.829-2.828zM6 21.75h6v-1.5H6zM4.25 20c0 .966.784 1.75 1.75 1.75v-1.5a.25.25 0 0 1-.25-.25zm8-11.5c0 .69.56 1.25 1.25 1.25v-1.5a.25.25 0 0 1 .25.25zM6 2.25A1.75 1.75 0 0 0 4.25 4h1.5A.25.25 0 0 1 6 3.75zm7.586 1.5a.25.25 0 0 1 .177.073l1.06-1.06a1.75 1.75 0 0 0-1.237-.513zm6.164 4.664c0-.464-.184-.909-.513-1.237l-1.06 1.06a.25.25 0 0 1 .073.177z"/>
</svg>