<svg xmlns="http://www.w3.org/2000/svg" width="24" height="24" fill="none"><path fill="#fff" fill-opacity=".01" d="M24 0v24H0V0z"/><path fill="#F7F9FC" d="M16 17v-.75a.75.75 0 0 0-.75.75zm0 4h-.75c0 .414.336.75.75.75zm5 0v.75a.75.75 0 0 0 .75-.75zm0-4h.75a.75.75 0 0 0-.75-.75zm-4.75 0a.75.75 0 0 0 1.5 0zm3 0a.75.75 0 0 0 1.5 0zM11.7 6.125l.585-.469zM20.25 7.5V12h1.5V7.5zM3.75 19V5h-1.5v14zm8.73-11.75H20v-1.5h-7.52zM4 4.75h5.52v-1.5H4zm5.715.094 1.4 1.75 1.17-.938-1.4-1.75zM13 19.25H4v1.5h9zM15.25 17v4h1.5v-4zm.75 4.75h5v-1.5h-5zm5.75-.75v-4h-1.5v4zM21 16.25h-5v1.5h5zm-3.25.75v-1.5h-1.5V17zm1.5-1.5V17h1.5v-1.5zm-1.5 0a.75.75 0 0 1 .75-.75v-1.5a2.25 2.25 0 0 0-2.25 2.25zm-5.27-9.75a.25.25 0 0 1-.195-.094l-1.17.937a1.75 1.75 0 0 0 1.366.657zM3.75 5A.25.25 0 0 1 4 4.75v-1.5A1.75 1.75 0 0 0 2.25 5zm14.75 9.75a.75.75 0 0 1 .75.75h1.5a2.25 2.25 0 0 0-2.25-2.25zM2.25 19c0 .966.784 1.75 1.75 1.75v-1.5a.25.25 0 0 1-.25-.25zM9.52 4.75a.25.25 0 0 1 .195.094l1.17-.937A1.75 1.75 0 0 0 9.52 3.25zM21.75 7.5A1.75 1.75 0 0 0 20 5.75v1.5a.25.25 0 0 1 .25.25z"/></svg>