<svg xmlns="http://www.w3.org/2000/svg" width="24" height="24" fill="none" viewBox="0 0 24 24">
    <path fill="currentColor" d="M9.75 7a.75.75 0 0 0-1.5 0zm-1.5 2a.75.75 0 0 0 1.5 0zm1.5 6a.75.75 0 0 0-1.5 0zm-1.5 2a.75.75 0 0 0 1.5 0zM7 3.75h10v-1.5H7zM17.25 4v16h1.5V4zM17 20.25H7v1.5h10zM6.75 20V4h-1.5v16zM6 12.75h12v-1.5H6zM8.25 7v2h1.5V7zm0 8v2h1.5v-2zM7 20.25a.25.25 0 0 1-.25-.25h-1.5c0 .966.784 1.75 1.75 1.75zM17.25 20a.25.25 0 0 1-.25.25v1.5A1.75 1.75 0 0 0 18.75 20zM17 3.75a.25.25 0 0 1 .25.25h1.5A1.75 1.75 0 0 0 17 2.25zM7 2.25A1.75 1.75 0 0 0 5.25 4h1.5A.25.25 0 0 1 7 3.75z"/>
</svg>