<svg xmlns="http://www.w3.org/2000/svg" width="24" height="24" fill="none"><path fill="#fff" fill-opacity=".01" d="M24 0v24H0V0z"/><path fill="#F7F9FC" d="M16.75 4a.75.75 0 0 0-1.5 0zM4 15.25a.75.75 0 0 0 0 1.5zM9.75 8a.75.75 0 0 0-1.5 0zm-1.5 4a.75.75 0 0 0 1.5 0zm.334-2.124a.75.75 0 1 0 .832 1.248zm3.832-.752a.75.75 0 1 0-.832-1.248zm-3 .252a.75.75 0 0 0-.832 1.248zm2.168 3.248a.75.75 0 1 0 .832-1.248zm6.886 6.906a.75.75 0 1 0 1.06-1.06zM6 4.75h12v-1.5H6zM19.25 6v12h1.5V6zM18 19.25H6v1.5h12zM4.75 18V6h-1.5v12zm10.5-14v10h1.5V4zM14 15.25H4v1.5h10zM8.25 8v4h1.5V8zm1.166 3.124 3-2-.832-1.248-3 2zm-.832-.5 3 2 .832-1.248-3-2zm6.386 5.406 3.5 3.5 1.06-1.06-3.5-3.5zM6 19.25c-.69 0-1.25-.56-1.25-1.25h-1.5A2.75 2.75 0 0 0 6 20.75zM19.25 18c0 .69-.56 1.25-1.25 1.25v1.5A2.75 2.75 0 0 0 20.75 18zM18 4.75c.69 0 1.25.56 1.25 1.25h1.5A2.75 2.75 0 0 0 18 3.25zM15.25 14c0 .69-.56 1.25-1.25 1.25v1.5A2.75 2.75 0 0 0 16.75 14zM6 3.25A2.75 2.75 0 0 0 3.25 6h1.5c0-.69.56-1.25 1.25-1.25z"/></svg>