<svg xmlns="http://www.w3.org/2000/svg" width="24" height="24" fill="none" viewBox="0 0 24 24">
    <path fill="currentColor" d="M18.728 15.182a.75.75 0 0 0-1.456-.364zM17 19l-.728-.182a.75.75 0 0 0 .728.932zm4 .75a.75.75 0 0 0 0-1.5zM20.75 17a.75.75 0 0 0-1.5 0zm-1.5 4a.75.75 0 0 0 1.5 0zm-8-4.5a.75.75 0 0 0 1.5 0zM12 21l-.57-.488A.75.75 0 0 0 12 21.75zm3 .75a.75.75 0 0 0 0-1.5zm4.022-11.563a.75.75 0 1 0 1.452-.374zM7.624 19.579a.75.75 0 1 0 .752-1.299zM12.75 8a.75.75 0 0 0-1.5 0zM12 12v.75a.75.75 0 0 0 .75-.75zm-2-.75a.75.75 0 0 0 0 1.5zm7.272 3.568-1 4 1.456.364 1-4zM17 19.75h4v-1.5h-4zM19.25 17v4h1.5v-4zM12 21.75h3v-1.5h-3zm2.25-5.25v.325h1.5V16.5zm-.259 1.024-2.56 2.988 1.138.976 2.561-2.987zM4.75 12A7.25 7.25 0 0 1 12 4.75v-1.5A8.75 8.75 0 0 0 3.25 12zM12 4.75a7.253 7.253 0 0 1 7.022 5.437l1.452-.374A8.753 8.753 0 0 0 12 3.25zM8.376 18.28A7.247 7.247 0 0 1 4.75 12h-1.5a8.747 8.747 0 0 0 4.374 7.579zM11.25 8v4h1.5V8zm.75 3.25h-2v1.5h2zm2.25 5.575c0 .256-.092.505-.259.7l1.14.976c.4-.467.619-1.061.619-1.676zm-.75-1.075a.75.75 0 0 1 .75.75h1.5a2.25 2.25 0 0 0-2.25-2.25zm-.75.75a.75.75 0 0 1 .75-.75v-1.5a2.25 2.25 0 0 0-2.25 2.25z"/>
</svg>