<svg xmlns="http://www.w3.org/2000/svg" width="24" height="24" fill="none" viewBox="0 0 24 24">
    <path fill="currentColor" d="m14.583 6.971-.643.386zm5.667 5.412V15h1.5v-2.617zM3.75 15v-3.807h-1.5V15zm13.64-3.195 2.641.33.186-1.489-2.641-.33zM3.768 11.1l1.425-3.564-1.392-.557-1.426 3.564zm2.586-4.35h6.514v-1.5H6.354zm7.586.607 2.166 3.612 1.287-.772-2.167-3.612zM15 16.25H9v1.5h6zM8.25 17c0 .69-.56 1.25-1.25 1.25v1.5A2.75 2.75 0 0 0 9.75 17zM7 18.25c-.69 0-1.25-.56-1.25-1.25h-1.5A2.75 2.75 0 0 0 7 19.75zM5.75 17c0-.69.56-1.25 1.25-1.25v-1.5A2.75 2.75 0 0 0 4.25 17zM7 15.75c.69 0 1.25.56 1.25 1.25h1.5A2.75 2.75 0 0 0 7 14.25zM18.25 17c0 .69-.56 1.25-1.25 1.25v1.5A2.75 2.75 0 0 0 19.75 17zM17 18.25c-.69 0-1.25-.56-1.25-1.25h-1.5A2.75 2.75 0 0 0 17 19.75zM15.75 17c0-.69.56-1.25 1.25-1.25v-1.5A2.75 2.75 0 0 0 14.25 17zM17 15.75c.69 0 1.25.56 1.25 1.25h1.5A2.75 2.75 0 0 0 17 14.25zm-13.99-4h13.98v-1.5H3.01zM9.25 6v5h1.5V6zm3.618.75c.439 0 .846.23 1.072.607l1.286-.772a2.75 2.75 0 0 0-2.358-1.335zm-7.675.786a1.25 1.25 0 0 1 1.161-.786v-1.5a2.75 2.75 0 0 0-2.553 1.729zm12.383 2.78a.25.25 0 0 1-.183-.12l-1.287.773c.277.46.75.769 1.284.836zm-13.826.877a.25.25 0 0 1 .018-.093l-1.393-.557a1.75 1.75 0 0 0-.125.65zM2.25 15A2.75 2.75 0 0 0 5 17.75v-1.5c-.69 0-1.25-.56-1.25-1.25zm18 0c0 .69-.56 1.25-1.25 1.25v1.5A2.75 2.75 0 0 0 21.75 15zm1.5-2.617a1.75 1.75 0 0 0-1.533-1.737l-.186 1.489a.25.25 0 0 1 .219.248z"/>
</svg>