<?xml version="1.0" encoding="UTF-8"?>
<svg width="24px" height="24px" viewBox="0 0 24 24" version="1.1" xmlns="http://www.w3.org/2000/svg"
     xmlns:xlink="http://www.w3.org/1999/xlink">
    <title>loading_4_light</title>
    <g id="页面-1" stroke="none" stroke-width="1" fill="none" fill-rule="evenodd">
        <g id="loading_4_light" fill-rule="nonzero">   <polygon id="Vector" fill-opacity="0.01" fill="#FFFFFF" points="24 0 24 24 0 24 0 0"></polygon>   <path d="M13.25,3.5 C13.25,2.80964 12.6904,2.25 12,2.25 C11.3097,2.25 10.75,2.80964 10.75,3.5 C10.75,4.19036 11.3097,4.75 12,4.75 C12.6904,4.75 13.25,4.19036 13.25,3.5 Z"         id="Ellipse" fill="currentColor"></path>   <path d="M13.25,20.5 C13.25,19.8096 12.6904,19.25 12,19.25 C11.3097,19.25 10.75,19.8096 10.75,20.5 C10.75,21.1904 11.3097,21.75 12,21.75 C12.6904,21.75 13.25,21.1904 13.25,20.5 Z"         id="Ellipse" fill="currentColor" opacity="0.55"></path>   <path d="M18.0075,5.85893 C18.4133,5.30042 18.2895,4.51871 17.731,4.11292 C17.1725,3.70714 16.3907,3.83095 15.985,4.38946 C15.5792,4.94797 15.703,5.72969 16.2615,6.13547 C16.82,6.54125 17.6017,6.41744 18.0075,5.85893 Z"         id="Ellipse" fill="currentColor" opacity="0.05"></path>   <path d="M8.01515,19.6122 C8.42093,19.0537 8.29712,18.272 7.73861,17.8662 C7.18011,17.4604 6.39839,17.5842 5.99261,18.1428 C5.58683,18.7013 5.71064,19.483 6.26915,19.8888 C6.82766,20.2945 7.60937,20.1707 8.01515,19.6122 Z"         id="Ellipse" fill="currentColor" opacity="0.7"></path>   <path d="M21.2728,8.98696 C21.4862,9.64353 21.1269,10.3487 20.4703,10.5621 C19.8137,10.7754 19.1085,10.4161 18.8952,9.7595 C18.6819,9.10294 19.0412,8.39774 19.6977,8.18441 C20.3543,7.97108 21.0595,8.33039 21.2728,8.98696 Z"         id="Ellipse" fill="currentColor" opacity="0.15"></path>   <path d="M5.10487,14.2402 C5.3182,14.8968 4.95889,15.602 4.30232,15.8153 C3.64576,16.0287 2.94056,15.6694 2.72723,15.0128 C2.5139,14.3562 2.87321,13.651 3.52978,13.4377 C4.18635,13.2244 4.89154,13.5837 5.10487,14.2402 Z"         id="Ellipse" fill="currentColor" opacity="0.8"></path>   <path d="M19.6977,15.8149 C20.3543,16.0282 21.0595,15.6689 21.2728,15.0124 C21.4861,14.3558 21.1268,13.6506 20.4702,13.4373 C19.8137,13.2239 19.1085,13.5832 18.8952,14.2398 C18.6818,14.8964 19.0411,15.6016 19.6977,15.8149 Z"         id="Ellipse" fill="currentColor" opacity="0.3"></path>   <path d="M3.52974,10.5616 C4.18631,10.7749 4.8915,10.4156 5.10483,9.75906 C5.31816,9.10249 4.95885,8.3973 4.30228,8.18397 C3.64572,7.97064 2.94052,8.32995 2.72719,8.98652 C2.51386,9.64309 2.87317,10.3483 3.52974,10.5616 Z"         id="Ellipse" fill="currentColor" opacity="0.9"></path>   <path d="M17.7309,19.8883 C17.1724,20.2941 16.3907,20.1703 15.9849,19.6118 C15.5791,19.0533 15.703,18.2716 16.2615,17.8658 C16.82,17.46 17.6017,17.5838 18.0075,18.1423 C18.4132,18.7008 18.2894,19.4825 17.7309,19.8883 Z"         id="Ellipse" fill="currentColor" opacity="0.45"></path>   <path d="M7.73857,6.13503 C7.18006,6.54081 6.39835,6.417 5.99257,5.85849 C5.58679,5.29998 5.7106,4.51826 6.26911,4.11248 C6.82762,3.7067 7.60933,3.83051 8.01511,4.38902 C8.42089,4.94753 8.29708,5.72925 7.73857,6.13503 Z"         id="Ellipse" fill="currentColor" opacity="0.95"></path>
        </g>
    </g>
</svg>