<svg xmlns="http://www.w3.org/2000/svg" width="24" height="24" fill="none"><path fill="#fff" fill-opacity=".01" d="M24 0v24H0V0z"/><path stroke="#F7F9FC" stroke-linecap="round" stroke-linejoin="round" stroke-width="1.5" d="m16.02 17.778-3.535-3.535m-2.828-2.829L6.12 7.88M18.85 5.05a7 7 0 0 0-9.9 0l-5.656 5.657a1 1 0 0 0 0 1.414l2.121 2.122a1 1 0 0 0 1.414 0l5.657-5.657a2 2 0 0 1 2.829 0v0a2 2 0 0 1 0 2.828l-5.657 5.657a1 1 0 0 0 0 1.414l2.121 2.122a1 1 0 0 0 1.414 0l5.657-5.657a7 7 0 0 0 0-9.9"/></svg>