<svg xmlns="http://www.w3.org/2000/svg" width="24" height="24" fill="none" viewBox="0 0 24 24">
    <path fill="currentColor" d="m13.382 4.12-.684.308a.75.75 0 0 1 .812-1.048zm-9.263 9.262-.739.128a.75.75 0 0 1 1.048-.812zM14.75 7A7.75 7.75 0 0 1 7 14.75v-1.5A6.25 6.25 0 0 0 13.25 7zm-.685-3.19c.44.974.685 2.055.685 3.19h-1.5c0-.918-.198-1.788-.552-2.572zm-.555-.43A8.752 8.752 0 0 1 20.75 12h-1.5c0-3.576-2.59-6.549-5.997-7.142zM20.75 12A8.75 8.75 0 0 1 12 20.75v-1.5A7.25 7.25 0 0 0 19.25 12zM12 20.75a8.752 8.752 0 0 1-8.62-7.24l1.478-.257A7.252 7.252 0 0 0 12 19.25zm-5-6a7.725 7.725 0 0 1-3.19-.685l.618-1.367A6.225 6.225 0 0 0 7 13.25z"/>
</svg>