<svg xmlns="http://www.w3.org/2000/svg" width="24" height="24" fill="none" viewBox="0 0 24 24">
    <path fill="currentColor" d="M8.5 16a.5.5 0 1 1-1 0 .5.5 0 0 1 1 0"/>
    <path fill="currentColor" d="M17.887 7.625a.75.75 0 0 0-1.299.75zM9.625 18.81a.75.75 0 1 0 .75 1.3zm2.75-15.007a.75.75 0 0 0-.75 1.3zm4.59 4.67.649.376zm2.927 4.125.65-.375zM5 4.75h6v-1.5H5zm6.25.25v11h1.5V5zm-6.5 11V5h-1.5v11zm11.838-7.625 2.655 4.598 1.299-.75-2.655-4.598zm2.563 4.94L9.625 18.81l.75 1.3 9.526-5.496zm-7.526-8.213 4.598 2.655.75-1.299-4.598-2.655zm4.69 2.997-4.965 8.598 1.3.75 4.964-8.598zM7.75 16a.25.25 0 0 1 .25-.25v1.5c.69 0 1.25-.56 1.25-1.25zm.25-.25a.25.25 0 0 1 .25.25h-1.5c0 .69.56 1.25 1.25 1.25zm.25.25a.25.25 0 0 1-.25.25v-1.5c-.69 0-1.25.56-1.25 1.25zm-.25.25a.25.25 0 0 1-.25-.25h1.5c0-.69-.56-1.25-1.25-1.25zm8.223-8.493a.25.25 0 0 1 .092.342l1.299.75a1.75 1.75 0 0 0-.64-2.39zM8 19.25A3.25 3.25 0 0 1 4.75 16h-1.5A4.75 4.75 0 0 0 8 20.75zM11.25 16A3.25 3.25 0 0 1 8 19.25v1.5A4.75 4.75 0 0 0 12.75 16zM11 4.75a.25.25 0 0 1 .25.25h1.5A1.75 1.75 0 0 0 11 3.25zm8.243 8.223a.25.25 0 0 1-.092.341l.75 1.3a1.75 1.75 0 0 0 .64-2.391zM5 3.25A1.75 1.75 0 0 0 3.25 5h1.5A.25.25 0 0 1 5 4.75z"/>
</svg>