<svg xmlns="http://www.w3.org/2000/svg" width="24" height="24" fill="none"><path fill="#fff" fill-opacity=".01" d="M24 0v24H0V0z"/><path stroke="#F7F9FC" stroke-linecap="round" stroke-width="1.5" d="M9.879 14.121c2.508 2.509 4.275 3.781 5.3 4.402.534.324 1.145-.02 1.233-.638l.175-1.228a10 10 0 0 1 1.9-4.585l2.185-2.914a1 1 0 0 0-.093-1.307l-4.43-4.43a1 1 0 0 0-1.307-.093l-2.914 2.185a10 10 0 0 1-4.586 1.9l-1.227.175c-.618.088-.962.7-.639 1.233.622 1.025 1.894 2.792 4.403 5.3Zm0 0-4.95 4.95"/></svg>