<svg xmlns="http://www.w3.org/2000/svg" width="24" height="24" fill="none"><path fill="#fff" fill-opacity=".01" d="M24 0v24H0V0z"/><path fill="#F7F9FC" d="m16.336 11.73-7.879-1.39 3.94.694z"/><path stroke="#F7F9FC" stroke-linecap="round" stroke-linejoin="round" stroke-width="1.5" d="m8.458 10.334.868-4.918 7.878 1.39-.867 4.917m-8.865-1.557 9.848 1.737m-4.576-2.838-.348 1.97M7.59 15.258l.867-4.918 7.879 1.39-.867 4.917M6.604 15.09l9.848 1.737m-4.576-2.838-.348 1.97m-3.941-.682L6.396 22h8.124l.945-5.334m-4.519 2.23-.52 2.955M10.31 5.59l.348-1.97a1 1 0 0 1 1.158-.811l3.94.694a1 1 0 0 1 .81 1.159l-.347 1.97"/></svg>