<svg xmlns="http://www.w3.org/2000/svg" width="24" height="24" fill="none"><path fill="#fff" fill-opacity=".01" d="M24 0v24H0V0z"/><path stroke="#F7F9FC" stroke-linecap="round" stroke-width="1.5" d="M4 14V8a2 2 0 0 1 2-2h12m2 4v6a2 2 0 0 1-2 2H6"/><path fill="#F7F9FC" d="M16.578 3.654c-.28-.146-.604.065-.631.411a24.908 24.908 0 0 0-.073 1.93c0 .848.04 1.538.078 1.996.027.324.323.503.598.36.369-.192.906-.492 1.55-.91a19.552 19.552 0 0 0 1.476-1.056c.248-.196.259-.574.023-.762-.333-.265-.843-.649-1.498-1.074a18.906 18.906 0 0 0-1.523-.895M7.416 15.654c.28-.146.604.065.632.411.035.457.072 1.122.072 1.93 0 .848-.04 1.538-.078 1.996-.026.324-.323.503-.598.36a18.997 18.997 0 0 1-1.55-.91 19.537 19.537 0 0 1-1.476-1.056c-.248-.196-.258-.574-.023-.762.334-.265.844-.649 1.499-1.074a18.908 18.908 0 0 1 1.522-.895"/></svg>