<svg xmlns="http://www.w3.org/2000/svg" width="24" height="24" fill="none"><path fill="#fff" fill-opacity=".01" d="M24 0v24H0V0z"/><path fill="#F7F9FC" d="M4 11.25a.75.75 0 0 0 0 1.5zm8 1.5h.75v-1.5H12zm6-1.5h-.75v1.5H18zm2 1.5a.75.75 0 0 0 0-1.5zM12 21v.75zm0-18v.75zM8.493 8.395a.75.75 0 1 0 1.485.21zm1.559 7.482a.75.75 0 0 0-1.48.246zM8.704 6.43a.75.75 0 0 0-1.228.86zm.533 2.068-.614.43a.75.75 0 0 0 1.044.185zm2.069-.533a.75.75 0 0 0-.86-1.228zM4 12.75h8v-1.5H4zm14 0h2v-1.5h-2zm-6 9c.743 0 1.33-.452 1.757-.993.433-.55.79-1.298 1.076-2.156.575-1.724.917-4.057.917-6.601h-1.5c0 2.427-.329 4.593-.84 6.127-.257.77-.546 1.34-.831 1.701-.292.37-.493.422-.579.422zM15.75 12c0-2.543-.342-4.877-.917-6.601-.286-.858-.643-1.607-1.076-2.156-.426-.54-1.014-.993-1.757-.993v1.5c.086 0 .287.052.579.421.285.362.574.932.83 1.702.512 1.534.841 3.7.841 6.127zM12 2.25c-.555 0-1.029.256-1.404.606-.37.346-.683.816-.946 1.349-.526 1.067-.923 2.526-1.157 4.187L9.98 8.6c.22-1.57.585-2.859 1.016-3.732.216-.438.432-.736.625-.916.188-.176.314-.203.38-.203zM8.493 8.392v.003l1.485.21V8.6zm.079 7.73c.253 1.526.648 2.862 1.163 3.839.48.913 1.22 1.789 2.265 1.789v-1.5c-.133 0-.492-.142-.938-.988-.412-.783-.772-1.947-1.01-3.385zM7.476 7.29l1.146 1.636 1.228-.86L8.704 6.43zm1.146 1.636v.002l1.23-.86-.002-.002zm1.045.187 1.639-1.148-.86-1.228-1.639 1.147z"/></svg>