<svg xmlns="http://www.w3.org/2000/svg" width="24" height="24" fill="none"><path fill="#fff" fill-opacity=".01" d="M24 0v24H0V0z"/><path fill="#F7F9FC" d="M12.75 4a.75.75 0 0 0-1.5 0zm-1.5 8v.75h1.5V12zm1.5 6v-.75h-1.5V18zm-1.5 2a.75.75 0 0 0 1.5 0zM8.605 9.978a.75.75 0 1 0-.21-1.485zm7.518-1.406a.75.75 0 0 0-.246 1.48zM7.29 7.476a.75.75 0 0 0-.86 1.228zm1.208 1.761.615.43a.75.75 0 0 0-.185-1.044zm-1.761 1.208a.75.75 0 1 0 1.228.86zM11.25 4v8h1.5V4zm0 14v2h1.5v-2zm9-6c0 .086-.052.287-.422.579-.361.285-.93.574-1.701.83-1.534.512-3.7.841-6.127.841v1.5c2.544 0 4.877-.342 6.601-.917.858-.286 1.607-.643 2.156-1.076.54-.426.993-1.014.993-1.757zM12 14.25c-2.427 0-4.593-.329-6.127-.84-.77-.257-1.34-.546-1.702-.831-.37-.292-.421-.493-.421-.579h-1.5c0 .743.452 1.33.993 1.757.55.433 1.298.79 2.156 1.076 1.724.575 4.058.917 6.601.917zM3.75 12c0-.066.027-.192.203-.38.18-.193.479-.41.917-.625.874-.431 2.164-.796 3.735-1.017l-.21-1.485c-1.66.234-3.12.63-4.189 1.157-.533.262-1.003.575-1.35.946-.35.375-.606.849-.606 1.404zm12.127-1.948c1.438.238 2.602.598 3.385 1.01.846.446.988.805.988.938h1.5c0-1.045-.876-1.784-1.79-2.265-.976-.515-2.312-.91-3.837-1.163zM6.43 8.704l1.638 1.148.86-1.23L7.29 7.477zm1.454.103-1.147 1.638 1.228.86 1.148-1.638z"/></svg>