<svg xmlns="http://www.w3.org/2000/svg" width="24" height="24" fill="none" viewBox="0 0 24 24">
    <path fill="currentColor" d="M16 16.25a.75.75 0 0 0 0 1.5zm.002 1.5a.75.75 0 0 0 0-1.5zM13 16.25a.75.75 0 0 0 0 1.5zm.002 1.5a.75.75 0 0 0 0-1.5zM6 4.75h12v-1.5H6zM18.25 5v14h1.5V5zM18 19.25H6v1.5h12zM5.75 19V5h-1.5v14zM5 9.75h14v-1.5H5zm0 5h14v-1.5H5zm11 3h.002v-1.5H16zm-3 0h.002v-1.5H13zm-7 1.5a.25.25 0 0 1-.25-.25h-1.5c0 .966.784 1.75 1.75 1.75zM18.25 19a.25.25 0 0 1-.25.25v1.5A1.75 1.75 0 0 0 19.75 19zM18 4.75a.25.25 0 0 1 .25.25h1.5A1.75 1.75 0 0 0 18 3.25zM6 3.25A1.75 1.75 0 0 0 4.25 5h1.5A.25.25 0 0 1 6 4.75z"/>
</svg>