<svg xmlns="http://www.w3.org/2000/svg" width="24" height="24" fill="none" viewBox="0 0 24 24">
    <path stroke="currentColor" stroke-linecap="round" stroke-linejoin="round" stroke-width="1.5" d="m3 9 .707.707a1 1 0 0 1 .293.707V17a3 3 0 0 0 3 3h10a3 3 0 0 0 3-3v-6.586a1 1 0 0 1 .293-.707L21 9M4 11h9.5m5 0H20m-7-8-.216.323A1.725 1.725 0 0 0 13 5.5v0c.582.581.672 1.492.216 2.177L13 8M9 3l-.216.323A1.725 1.725 0 0 0 9 5.5v0c.581.581.672 1.492.216 2.177L9 8m10-3-5 10m-5-1h5v.5a2.5 2.5 0 0 1-2.5 2.5v0A2.5 2.5 0 0 1 9 14.5z"/>
</svg>