<svg xmlns="http://www.w3.org/2000/svg" width="24" height="24" fill="none"><path fill="#fff" fill-opacity=".01" d="M24 0v24H0V0z"/><path stroke="#F7F9FC" stroke-linecap="round" stroke-linejoin="round" stroke-width="1.5" d="M8 22h1m0 0h7m-7 0v-3h6m1 3h1m-1 0v-3h-1m0 0v-4m-5 4v-4.5m0 0V14l-2-2V5m2 9.5 4.5-4.5M8 5l2 4 4.196.84a1 1 0 0 1 .804.98V15M8 5h-.5M8 5h.5M15 15l2-2m-3.508-4c.312-.366.508-.903.508-1.5 0-1.105-.672-2-1.5-2s-1.5.895-1.5 2c0 .597.196 1.134.508 1.5"/><path fill="#F7F9FC" d="M13 4.5a.5.5 0 0 1-1 0c0-.276.383-1.5.5-1.5.117 0 .5 1.224.5 1.5M14.683 5.179a.5.5 0 1 1-.866-.5c.138-.24 1.082-1.108 1.183-1.05.101.06-.179 1.31-.317 1.55M10.317 5.179a.5.5 0 1 0 .866-.5c-.138-.24-1.082-1.108-1.183-1.05-.102.06.179 1.31.317 1.55M9 2.5a1 1 0 0 1-2 0c0-.552.844-2 1-2 .156 0 1 1.448 1 2"/></svg>