<svg xmlns="http://www.w3.org/2000/svg" width="24" height="24" fill="none"><path fill="#fff" fill-opacity=".01" d="M24 0v24H0V0z"/><path fill="#F7F9FC" d="M6 10.25a.75.75 0 0 0 0 1.5zm3 1.5a.75.75 0 0 0 0-1.5zm3-1.5a.75.75 0 0 0 0 1.5zm3 1.5a.75.75 0 0 0 0-1.5zm-6 2.5a.75.75 0 0 0 0 1.5zm3 1.5a.75.75 0 0 0 0-1.5zM19 4l.57-.488a.75.75 0 0 0-1.14 0zm1.25 8A8.25 8.25 0 0 1 12 20.25v1.5c5.385 0 9.75-4.365 9.75-9.75zM12 20.25A8.25 8.25 0 0 1 3.75 12h-1.5c0 5.385 4.365 9.75 9.75 9.75zM3.75 12A8.25 8.25 0 0 1 12 3.75v-1.5c-5.385 0-9.75 4.365-9.75 9.75zM12 3.75c2.128 0 4.067.805 5.53 2.128l1.007-1.112A9.717 9.717 0 0 0 12 2.25zm7.854 5.718c.257.797.396 1.647.396 2.532h1.5a9.742 9.742 0 0 0-.468-2.992zM6 11.75h3v-1.5H6zm6 0h3v-1.5h-3zm-3 4h3v-1.5H9zM20.25 8c0 .636-.51 1.25-1.25 1.25v1.5c1.666 0 2.75-1.386 2.75-2.75zM19 9.25c-.74 0-1.25-.614-1.25-1.25h-1.5c0 1.364 1.084 2.75 2.75 2.75zM17.75 8c0-.278.087-.633.256-1.041.165-.401.392-.81.628-1.184a12.767 12.767 0 0 1 .919-1.267l.013-.016.003-.004L19 4a184.048 184.048 0 0 0-.57-.487l-.002.002a.75.75 0 0 1-.006.007l-.02.023a8.943 8.943 0 0 0-.31.39c-.197.257-.461.62-.726 1.04a9.508 9.508 0 0 0-.747 1.41c-.206.498-.369 1.06-.369 1.615zM19 4l-.57.488.003.004.014.016.058.07a12.765 12.765 0 0 1 .861 1.198c.236.373.463.782.628 1.183.17.408.256.763.256 1.041h1.5c0-.555-.163-1.117-.37-1.615a9.508 9.508 0 0 0-.746-1.41 14.248 14.248 0 0 0-1.037-1.43c-.008-.01-.014-.018-.02-.023a.727.727 0 0 1-.005-.007l-.002-.002z"/></svg>