<svg xmlns="http://www.w3.org/2000/svg" width="24" height="24" fill="none"><path fill="#fff" fill-opacity=".01" d="M24 0v24H0V0z"/><path fill="#F7F9FC" d="M11 3.25a.75.75 0 0 0 0 1.5zm0 16a.75.75 0 0 0 0 1.5zm6-14.5a.75.75 0 0 0 0-1.5zm0 16a.75.75 0 0 0 0-1.5zm-6-16h.99v-1.5H11zM13.24 6v12h1.5V6zm-1.25 13.25H11v1.5h.99zm5.01-16h-1v1.5h1zM13.25 6v12h1.5V6zM16 20.75h1v-1.5h-1zM19.25 9v6h1.5V9zm-14.5 6V9h-1.5v6zM5 8.75h7v-1.5H5zm11 0h3v-1.5h-3zm-4 6.5H5v1.5h7zm7 0h-3v1.5h3zM4.75 9A.25.25 0 0 1 5 8.75v-1.5A1.75 1.75 0 0 0 3.25 9zm-1.5 6c0 .966.784 1.75 1.75 1.75v-1.5a.25.25 0 0 1-.25-.25zm16 0a.25.25 0 0 1-.25.25v1.5A1.75 1.75 0 0 0 20.75 15zm1.5-6A1.75 1.75 0 0 0 19 7.25v1.5a.25.25 0 0 1 .25.25zM16 3.25A2.75 2.75 0 0 0 13.25 6h1.5c0-.69.56-1.25 1.25-1.25zM13.24 18c0 .69-.56 1.25-1.25 1.25v1.5A2.75 2.75 0 0 0 14.74 18zm.01 0A2.75 2.75 0 0 0 16 20.75v-1.5c-.69 0-1.25-.56-1.25-1.25zM11.99 4.75c.69 0 1.25.56 1.25 1.25h1.5a2.75 2.75 0 0 0-2.75-2.75z"/></svg>