<svg xmlns="http://www.w3.org/2000/svg" width="24" height="24" fill="none"><path fill="#fff" fill-opacity=".01" d="M24 0v24H0V0z"/><path fill="#F7F9FC" d="m21 20-.123.74a.75.75 0 0 0 .873-.74zM9 20h-.75a.75.75 0 0 0 .987.712zm6 0-.237.712a.75.75 0 0 0 .36.028zm-3-1 .237-.712a.75.75 0 0 0-.474 0zm6 .5.123-.74a.75.75 0 0 0-.246 0zm-9.75-9c0 1.712-.322 3.225-.81 4.282-.517 1.12-1.08 1.468-1.44 1.468v1.5c1.297 0 2.234-1.108 2.802-2.34.598-1.295.948-3.032.948-4.91zM6 16.25c-.36 0-.923-.347-1.44-1.468-.488-1.057-.81-2.57-.81-4.282h-1.5c0 1.878.35 3.615.948 4.91.568 1.232 1.505 2.34 2.802 2.34zM3.75 10.5c0-1.712.322-3.225.81-4.282C5.077 5.098 5.64 4.75 6 4.75v-1.5c-1.297 0-2.234 1.108-2.802 2.34C2.6 6.885 2.25 8.622 2.25 10.5zM6 4.75c.36 0 .923.347 1.44 1.468.488 1.057.81 2.57.81 4.282h1.5c0-1.878-.35-3.615-.948-4.91C8.234 4.358 7.297 3.25 6 3.25zm12 0c.36 0 .923.347 1.44 1.468.488 1.057.81 2.57.81 4.282h1.5c0-1.878-.35-3.615-.948-4.91-.568-1.232-1.505-2.34-2.802-2.34zm0-1.5H6v1.5h12zm2.25 7.25V20h1.5v-9.5zM9.75 20v-9.5h-1.5V20zm5.487-.712-3-1-.474 1.424 3 1zm-3.474-1-3 1 .474 1.424 3-1zm9.36.972-3-.5-.246 1.48 3 .5zm-3.246-.5-3 .5.246 1.48 3-.5z"/><ellipse cx="6" cy="10.5" fill="#F7F9FC" rx="1" ry="2"/></svg>