<svg xmlns="http://www.w3.org/2000/svg" width="24" height="24" fill="none" viewBox="0 0 24 24">
    <path fill="currentColor" d="M12.75 9.5a.75.75 0 0 0-1.5 0zM12 15v.75a.75.75 0 0 0 .75-.75zM7.75 9.5a.75.75 0 0 0-1.5 0zm9.374.416a.75.75 0 1 0-1.248-.832zM12 12.5l-.147-.735L12 13.25zm4.33 2.835a.75.75 0 1 0 1.34-.67zM7 4.75h10v-1.5H7zM19.25 7v10h1.5V7zM17 19.25H7v1.5h10zM4.75 17V7h-1.5v10zm6.5-7.5V15h1.5V9.5zm.75 4.75c-2.495 0-4.25-2.067-4.25-4.75h-1.5c0 3.317 2.245 6.25 5.75 6.25zm4.5-4.75-.624-.416c0-.001 0 0 0 0l-.002.003a1.844 1.844 0 0 1-.072.101 8.98 8.98 0 0 1-1.123 1.26c-.771.713-1.717 1.302-2.679 1.302v1.5c1.538 0 2.842-.91 3.696-1.699a10.459 10.459 0 0 0 1.397-1.59l.021-.03.007-.01.002-.003v-.001s.001-.001-.623-.417m1.17 5.165c-.317-.635-1.04-1.482-2.014-2.108-.99-.636-2.312-1.09-3.803-.792l.294 1.47c1.008-.201 1.937.094 2.697.583.776.5 1.303 1.152 1.485 1.517zM7 19.25A2.25 2.25 0 0 1 4.75 17h-1.5A3.75 3.75 0 0 0 7 20.75zM19.25 17A2.25 2.25 0 0 1 17 19.25v1.5A3.75 3.75 0 0 0 20.75 17zM17 4.75A2.25 2.25 0 0 1 19.25 7h1.5A3.75 3.75 0 0 0 17 3.25zM7 3.25A3.75 3.75 0 0 0 3.25 7h1.5A2.25 2.25 0 0 1 7 4.75z"/>
</svg>