<svg xmlns="http://www.w3.org/2000/svg" width="24" height="24" viewBox="0 0 24 24">
    <path d="M20.63,8.81a9.518,9.518,0,1,0-6.61,11.85.314.314,0,0,0,.17-.46,4.651,4.651,0,0,1-.6-1.56,4.177,4.177,0,0,1,.74-3.44A3.318,3.318,0,0,1,16.96,14a2.96,2.96,0,0,1,1.54.41A2.96,2.96,0,0,1,20.04,14h.01c.11,0,.21,0,.31.01a.646.646,0,0,0,.093,0,.237.237,0,0,0,.239-.171.9.9,0,0,0,.038-.122A9.644,9.644,0,0,0,20.63,8.81Zm-4.1,1.42-2.514,2.515a1.653,1.653,0,0,1-2.332,0l-1.43-1.427a.151.151,0,0,0-.213,0L7.53,13.83a.75.75,0,1,1-1.06-1.06l2.511-2.512a1.653,1.653,0,0,1,2.332,0l1.43,1.427a.152.152,0,0,0,.213,0L15.47,9.17a.75.75,0,0,1,1.06,1.06Zm5.4,8.12C21.48,20.67,18.5,22,18.5,22s-2.98-1.33-3.43-3.65c-.28-1.41.33-2.84,1.88-2.85h.01a1.718,1.718,0,0,1,1.54,1.14,1.718,1.718,0,0,1,1.54-1.14h.01C21.61,15.51,22.21,16.94,21.93,18.35Z"/>
</svg>