<svg xmlns="http://www.w3.org/2000/svg" width="24" height="24" viewBox="0 0 24 24">
    <path d="m18,5H6c-2,0-3,1-3,3v8c0,2,1,3,3,3h12c2,0,3-1,3-3v-8c0-2-1-3-3-3Zm-3.721,2.737c.175-.003.35,0,.525.003.074,0,.123.041.148.109.049.129.098.26.145.388.295.817.59,1.638.886,2.455.005.014.011.027.022.052.063-.178.12-.342.178-.508l.796-2.288c.011-.03.025-.063.036-.093.03-.079.09-.118.175-.118.153,0,.303-.003.457,0,.066.003.096.036.085.101-.005.044-.019.085-.036.126-.539,1.372-1.077,2.745-1.619,4.114-.057.145-.131.287-.21.421-.202.342-.514.498-.905.489-.131-.003-.26-.025-.388-.046-.126-.022-.167-.079-.17-.205-.003-.074-.003-.15,0-.227.003-.079.041-.115.118-.109.057.003.115.016.172.022.12.011.238.005.353-.025.164-.046.276-.156.347-.306.079-.167.137-.342.213-.511.041-.096.033-.175-.005-.271-.454-1.11-.902-2.223-1.353-3.333-.019-.047-.033-.093-.044-.139-.014-.057.016-.101.076-.101Zm-3.431,2.187c.139-.287.377-.465.673-.569.246-.085.503-.101.763-.087.249.014.492.055.733.112.008.003.019.003.03.003.003-.014.005-.022.005-.033-.003-.189,0-.38-.008-.569-.005-.134-.036-.265-.12-.375-.098-.126-.238-.169-.385-.191-.284-.041-.569-.019-.85.033-.18.036-.361.085-.539.131-.107.03-.153,0-.156-.112-.003-.074.003-.15,0-.227-.003-.09.038-.15.12-.178.137-.046.271-.098.41-.134.216-.057.438-.085.662-.096.025,0,.046-.005.068-.008h.273c.085.011.167.019.249.03.175.025.344.071.498.161.265.156.391.399.435.694.014.098.019.197.019.295v2.428c0,.019,0,.041-.003.063-.005.063-.046.104-.109.107-.126.003-.249.003-.375,0-.066-.003-.109-.049-.123-.12-.016-.082-.027-.164-.041-.252-.016.011-.027.019-.038.027-.271.224-.577.372-.924.424-.301.044-.596.025-.867-.126-.284-.159-.446-.407-.492-.727-.033-.241-.019-.478.093-.705Zm-4.021-2.004c0-.159.027-.189.189-.186h.265c.107.003.159.047.175.153.011.063.019.126.03.189.003.011.008.019.011.033.055-.041.107-.085.161-.123.26-.189.55-.309.869-.347.033-.005.066-.008.098-.014h.191c.074.011.15.016.224.033.487.098.809.396,1.003.845.159.364.2.749.186,1.14-.011.353-.079.694-.238,1.011-.213.418-.536.705-1.003.798-.517.101-.987-.011-1.397-.353-.014-.011-.027-.025-.052-.044v1.659c0,.022,0,.046-.003.068-.003.066-.044.112-.112.112-.161.003-.323.003-.484,0-.066-.003-.107-.046-.112-.115-.003-.022-.003-.047-.003-.068v-4.792Zm10.886,6.671c-.063.066-.142.118-.219.169-.703.484-1.471.834-2.28,1.096-.56.18-1.135.314-1.72.402-.405.06-.812.098-1.219.109-.019,0-.038.005-.057.008h-.484c-.019-.003-.038-.008-.057-.008-.082-.005-.164-.008-.246-.011-.388-.019-.771-.06-1.154-.123-.626-.104-1.241-.262-1.84-.478-1.241-.448-2.351-1.113-3.335-1.993-.041-.038-.068-.087-.101-.131v-.046c.055-.098.12-.115.224-.057.238.128.473.262.714.383.929.467,1.906.817,2.917,1.061.478.115.962.205,1.449.271.722.096,1.449.137,2.176.118.399-.011.798-.041,1.195-.087,1.293-.153,2.54-.476,3.74-.979.068-.027.134-.046.208-.027.153.041.208.205.09.325Zm1.282-.686c-.014.082-.027.167-.047.249-.101.465-.273.897-.566,1.274-.085.109-.188.208-.29.306-.027.027-.071.049-.109.057-.066.014-.104-.027-.093-.096.003-.022.014-.046.022-.068.137-.339.268-.681.364-1.033.047-.175.088-.35.079-.533-.005-.118-.057-.208-.175-.238-.107-.027-.216-.052-.328-.06-.262-.019-.525-.003-.787.022l-.533.057c-.016.003-.033.003-.049.003-.036.003-.074-.005-.082-.041-.005-.03-.003-.068.014-.093.019-.033.052-.06.085-.082.276-.191.588-.298.916-.358.295-.055.596-.068.897-.044.164.014.325.038.481.09.098.033.186.077.208.191,0,.134,0,.268-.005.396Zm-7.507-3.297c-.047-.148-.047-.295-.003-.443.055-.189.191-.298.375-.358.186-.06.377-.068.569-.052.191.019.38.055.571.079.038.005.049.022.049.06-.003.109,0,.219,0,.328,0,.107-.003.216,0,.323,0,.033-.011.052-.035.068-.257.186-.539.309-.856.342-.131.014-.26.008-.385-.041-.142-.055-.241-.156-.284-.306Zm-3.915-.016c-.025-.022-.038-.044-.036-.077.003-.323,0-.642,0-.965v-.965c0-.036.011-.055.038-.074.314-.219.659-.331,1.044-.303.342.025.621.191.768.593.09.243.112.498.112.757,0,.238-.019.473-.093.7-.156.487-.511.675-.976.653-.32-.014-.599-.137-.858-.32Z"/>
</svg>