<svg xmlns="http://www.w3.org/2000/svg" width="24" height="24" viewBox="0 0 24 24">
    <path d="M11.25,16.991v3.6a.306.306,0,0,1-.353.3A5.923,5.923,0,0,1,8.61,19.95a.317.317,0,0,1-.08-.48l2.549-2.549A.1.1,0,0,1,11.25,16.991ZM18,13.75h3a.75.75,0,0,0,0-1.5H18V10.72a.289.289,0,0,0-.5-.22l-4.662,4.662a.3.3,0,0,0-.088.212v5.218a.308.308,0,0,0,.356.3,5.992,5.992,0,0,0,4.207-3.145H18A2.253,2.253,0,0,1,20.25,20a.75.75,0,0,0,1.5,0A3.755,3.755,0,0,0,18,16.25h-.144A5.985,5.985,0,0,0,18,15ZM21.53,2.47a.749.749,0,0,0-1.06,0L15.862,7.077A4.78,4.78,0,0,0,15,7H9A2.714,2.714,0,0,0,6.386,8.251H6.122A2.229,2.229,0,0,1,4.031,6.71l-.32-.95a.75.75,0,0,0-1.422.48l.318.942a3.722,3.722,0,0,0,3.41,2.56C6.013,9.83,6,9.908,6,10v2.25H3a.75.75,0,0,0,0,1.5H6V15a5.982,5.982,0,0,0,.249,1.691L2.47,20.47a.75.75,0,1,0,1.06,1.06l18-18A.749.749,0,0,0,21.53,2.47ZM9.432,5.5h5.136a.3.3,0,0,0,.294-.372,2.989,2.989,0,0,0-5.724,0A.3.3,0,0,0,9.432,5.5Z"/>
</svg>