<svg xmlns="http://www.w3.org/2000/svg" width="24" height="24" viewBox="0 0 24 24">
    <path d="M19.931,8.369a3.321,3.321,0,0,1-1.1.126A3.537,3.537,0,0,1,15.505,5.17a3.31,3.31,0,0,1,.126-1.1.3.3,0,0,0-.16-.37A8.985,8.985,0,0,0,3.834,15.757a1.933,1.933,0,0,1,.06,1.42l-.84,2.5a1,1,0,0,0,1.27,1.27l2.5-.84a1.933,1.933,0,0,1,1.42.06A8.986,8.986,0,0,0,20.3,8.529.3.3,0,0,0,19.931,8.369ZM8.02,13a1,1,0,0,1-.01-2h.01a1,1,0,0,1,0,2Zm4,0a1,1,0,0,1-.01-2h.01a1,1,0,0,1,0,2Zm4,0a1,1,0,0,1-.01-2h.01a1,1,0,0,1,0,2ZM17,5a2,2,0,1,1,2,2A2,2,0,0,1,17,5Z"/>
</svg>