<svg xmlns="http://www.w3.org/2000/svg" width="24" height="24" viewBox="0 0 24 24">
    <path d="M8,5.5v-1A1.326,1.326,0,0,1,9.5,3h5A1.326,1.326,0,0,1,16,4.5v1A1.326,1.326,0,0,1,14.5,7h-5A1.326,1.326,0,0,1,8,5.5ZM20,8V18a2.652,2.652,0,0,1-3,3H7a2.652,2.652,0,0,1-3-3V8c0-1.742.752-2.723,2.265-2.943a.211.211,0,0,1,.235.2V5.5a2.814,2.814,0,0,0,3,3h5a2.814,2.814,0,0,0,3-3V5.262a.211.211,0,0,1,.235-.2C19.248,5.277,20,6.258,20,8Zm-6.939,5.5,1.469-1.47a.75.75,0,0,0-1.06-1.06L12,12.439,10.53,10.97a.75.75,0,0,0-1.06,1.06l1.469,1.47L9.47,14.97a.75.75,0,1,0,1.06,1.06L12,14.561l1.47,1.469a.75.75,0,0,0,1.06-1.06Z"/>
</svg>