<svg xmlns="http://www.w3.org/2000/svg" width="24" height="24" viewBox="0 0 24 24">
    <path d="M20.879,20.394a.34.34,0,0,1-.21.6,4.707,4.707,0,0,1-3.58-1.13,7.773,7.773,0,0,1-2.59.42,6.831,6.831,0,0,1-5-1.916c-.189-.2-.141-.583.292-.549.234.016.469.024.708.024,4.621,0,8.116-2.7,8.854-6.608a.3.3,0,0,1,.54-.139A5.458,5.458,0,0,1,21,14.5a5.414,5.414,0,0,1-1.41,3.76A3.462,3.462,0,0,0,20.879,20.394ZM18,9.671c0,4.169-3.358,6.671-7.5,6.671a9.388,9.388,0,0,1-2.289-.275q-.36-.09-.7-.209a5.426,5.426,0,0,1-4.125,1.309.4.4,0,0,1-.241-.7,3.986,3.986,0,0,0,1.483-2.452A6.255,6.255,0,0,1,3,9.671C3,5.5,6.358,3,10.5,3c4.095,0,7.418,2.449,7.492,6.535C17.992,9.581,18,9.624,18,9.671ZM8.12,9.588a1,1,0,0,0-1-1H7.11a1,1,0,1,0,1.01,1Zm3.312,0a1,1,0,0,0-1-1h-.01a1,1,0,1,0,1.01,1Zm3.294,0a1,1,0,0,0-1-1h-.01a1,1,0,1,0,1.01,1Z"/>
</svg>