<svg xmlns="http://www.w3.org/2000/svg" width="24" height="24" viewBox="0 0 24 24">
    <path d="M13.02,12a1,1,0,1,1-1.01-1h.01A1,1,0,0,1,13.02,12ZM21,12c0,5-4.03,8-9,8a10.985,10.985,0,0,1-3.59-.58c-1.34,1.43-3.53,1.62-4.95,1.57a.478.478,0,0,1-.29-.84,4.778,4.778,0,0,0,1.78-2.941A7.5,7.5,0,0,1,3,12c0-5,4.03-8,9-8S21,7,21,12Zm-5.819,0a1.33,1.33,0,0,1,.687-1.158L16,10.769l-.917-1.538-.131.074a1.413,1.413,0,0,1-1.379,0,1.326,1.326,0,0,1-.684-1.154A.152.152,0,0,0,12.735,8H11.21a.152.152,0,0,0-.154.149A1.328,1.328,0,0,1,10.372,9.3a1.415,1.415,0,0,1-1.38,0,.154.154,0,0,0-.207.053L8.02,10.642a.146.146,0,0,0,.055.2h0a1.317,1.317,0,0,1,0,2.312h0a.145.145,0,0,0-.055.2l.764,1.282a.154.154,0,0,0,.208.054,1.411,1.411,0,0,1,1.378,0,1.326,1.326,0,0,1,.684,1.154.152.152,0,0,0,.153.149h1.527a.152.152,0,0,0,.154-.149h0a1.326,1.326,0,0,1,.684-1.153,1.413,1.413,0,0,1,1.379,0,.153.153,0,0,0,.207-.053l.765-1.284a.144.144,0,0,0-.055-.2h0A1.329,1.329,0,0,1,15.181,12Z"/>
</svg>