<svg xmlns="http://www.w3.org/2000/svg" width="24" height="24" viewBox="0 0 24 24">
    <path d="M21.738,16.65a.749.749,0,0,1-.608.869L10.46,19.4a2.5,2.5,0,1,1-3.207-2.77L5.172,4.78A1.258,1.258,0,0,0,3.719,3.769l-.594.1a.75.75,0,0,1-.25-1.479l.59-.1A2.76,2.76,0,0,1,6.648,4.52L8.777,16.636a2.5,2.5,0,0,1,1.464,1.277L20.87,16.042A.747.747,0,0,1,21.738,16.65ZM10.213,12.722c.363,2.059,1.5,2.857,3.562,2.494l3.633-.641c2.06-.363,2.858-1.5,2.495-3.562L19.262,7.38c-.363-2.06-1.5-2.858-3.562-2.495l-3.634.641c-2.059.363-2.857,1.5-2.494,3.562Z"/>
</svg>