<svg xmlns="http://www.w3.org/2000/svg" width="24" height="24" viewBox="0 0 24 24">
    <path d="m20.866,7.082c-.479-1.922-2.013-3.463-3.93-3.95-1.305-.331-2.706-.027-3.808.746-1.648,1.156-3.53,1.638-5.537,1.759-1.031.062-2.039.442-2.808,1.133-1.521,1.367-2.128,3.511-1.592,5.459.341,1.24,1.249,2.252,2.379,2.863,1.659.897,2.788,1.939,3.38,3.026,1,1.839,2.889,3.119,4.963,2.843,1.061-.141,2.076-.593,2.891-1.319.969-.862,1.445-2.139,1.494-3.435.065-1.716.635-3.511,1.889-5.368.739-1.094.997-2.477.678-3.759Zm-9.366,7.918c-1.933,0-3.5-1.567-3.5-3.5s1.567-3.5,3.5-3.5,3.5,1.567,3.5,3.5-1.567,3.5-3.5,3.5Z"/>
</svg>