<svg xmlns="http://www.w3.org/2000/svg" width="24" height="24" viewBox="0 0 24 24">
    <path d="m21.557,15.05c-.3.3-.67.45-1.06.45s-.79-.16-1.12-.49c-.82-.82-.88-3.01-.88-3.01,0,0,2.2.06,3.02.88.65.65.63,1.58.04,2.17ZM2.487,12.88c-.66.65-.63,1.58-.04,2.17.29.3.67.45,1.06.45s.79-.16,1.12-.49c.82-.82.87-3.01.87-3.01,0,0-2.19.06-3.01.88Zm18.453-1.9c.023.209-.182.379-.385.321-.892-.254-1.775-.293-2.025-.301h-.03c-.26,0-.52.11-.71.29-.19.2-.3.46-.29.74.01.43.12,2.64,1.17,3.69.248.255.54.448.852.579.164.069.221.281.128.432-1.583,2.562-4.414,4.268-7.65,4.268s-6.067-1.706-7.65-4.268c-.093-.151-.035-.364.128-.432.312-.131.605-.324.852-.579,1-1,1.15-3.04,1.17-3.62v-.1c0-.55-.44-1-1-1h-.03c-.267.009-1.142.047-2.024.3-.203.058-.409-.112-.385-.321.508-4.49,4.317-7.979,8.94-7.979s8.433,3.489,8.94,7.98Zm-12.231-.446c.125-.364.754-.364.879,0,.106.311.397.506.709.506.081,0,.163-.013.243-.041.393-.135.601-.561.466-.953-.271-.79-1.018-1.321-1.857-1.321s-1.585.53-1.857,1.32c-.135.391.072.818.464.954.395.136.819-.073.954-.464Zm6.481,3.939c.073-.319-.267-.563-.572-.442-1.746.696-3.491.696-5.237,0-.304-.121-.645.123-.572.442.333,1.449,1.633,2.526,3.19,2.526s2.856-1.077,3.19-2.526Zm1.519-4.429c-.272-.79-1.02-1.32-1.857-1.32s-1.587.531-1.857,1.321c-.135.392.073.818.466.953.08.027.162.041.243.041.312,0,.603-.195.709-.506.125-.363.754-.363.879,0,.136.392.562.599.954.464.392-.135.599-.562.464-.954Z"/>
</svg>