<svg xmlns="http://www.w3.org/2000/svg" width="24" height="24" viewBox="0 0 24 24">
    <path d="m12,2C6.477,2,2,6.477,2,12s4.477,10,10,10,10-4.477,10-10S17.523,2,12,2Zm-5.698,7.976c-.488-.812-.438-1.827.503-2.174.7-.259,1.237.483,1.237.483,0,0-.066-.913.637-1.165.946-.339,1.634.406,1.783,1.342.242,1.525-1.262,3.002-1.262,3.002,0,0-2.102-.164-2.897-1.489Zm5.695,8.024c-1.946,0-3.57-1.351-3.987-3.169-.092-.4.334-.707.714-.554,2.182.873,4.364.873,6.546,0,.381-.152.806.155.715.554-.417,1.818-2.041,3.169-3.988,3.169Zm5.695-8.027c-.797,1.327-2.903,1.492-2.903,1.492,0,0-1.508-1.48-1.265-3.008.149-.938.841-1.684,1.786-1.345.704.252.682,1.047.682,1.047,0,0,.494-.623,1.196-.364.944.349.993,1.364.504,2.178Z"/>
</svg>