<svg xmlns="http://www.w3.org/2000/svg" width="24" height="24" viewBox="0 0 24 24">
    <path d="M12.75,6V3.75l4.5,4.5H15C13.42,8.25,12.75,7.58,12.75,6Zm.75,10.17v1.94a5.2,5.2,0,0,0,.6,2.46.3.3,0,0,1-.27.43H6a2.652,2.652,0,0,1-3-3V6A2.652,2.652,0,0,1,6,3h5.25V6A3.381,3.381,0,0,0,15,9.75h3v3.47a.317.317,0,0,1-.24.3,1.761,1.761,0,0,0-.44.15,14.3,14.3,0,0,1-2.74,1.06A1.491,1.491,0,0,0,13.5,16.17ZM7.75,16a.75.75,0,1,0-.75.75A.75.75,0,0,0,7.75,16Zm0-4a.75.75,0,1,0-.75.75A.75.75,0,0,0,7.75,12Zm4,4a.75.75,0,0,0-.75-.75H9.5a.75.75,0,0,0,0,1.5H11A.75.75,0,0,0,11.75,16ZM14,12.75a.75.75,0,0,0,0-1.5H9.5a.75.75,0,0,0,0,1.5ZM18.006,15A15.248,15.248,0,0,1,15,16.167v1.944A4.206,4.206,0,0,0,18,22a4.206,4.206,0,0,0,3-3.889v-2A12.584,12.584,0,0,1,18.006,15Z"/>
</svg>