<svg xmlns="http://www.w3.org/2000/svg" width="24" height="24" viewBox="0 0 24 24">
    <path d="M15.647,8.166a.739.739,0,0,1-.4-.654V3.75H16a.75.75,0,0,0,0-1.5H8a.75.75,0,0,0,0,1.5h.75V7.512a.74.74,0,0,1-.4.655,7.744,7.744,0,0,0-1.7,12.44l.15.144a3.141,3.141,0,0,0,2.759,1h4.88a3.141,3.141,0,0,0,2.759-1l.149-.144a7.744,7.744,0,0,0-1.7-12.441ZM9.054,9.492a2.236,2.236,0,0,0,1.2-1.98V3.75h3.5V7.512a2.237,2.237,0,0,0,1.2,1.98,6.209,6.209,0,0,1,3.3,5.388A7.429,7.429,0,0,1,12,14.5a7.437,7.437,0,0,0-6.182-.4A6.206,6.206,0,0,1,9.054,9.492Z"/>
</svg>