<svg xmlns="http://www.w3.org/2000/svg" width="24" height="24" viewBox="0 0 24 24">
    <path d="M4.3,13.5h6.95v7.2a.3.3,0,0,1-.3.3H7a2.652,2.652,0,0,1-3-3V13.8A.3.3,0,0,1,4.3,13.5Zm15.4,0H12.75v7.2a.3.3,0,0,0,.3.3H17a2.652,2.652,0,0,0,3-3V13.8A.3.3,0,0,0,19.7,13.5Zm1.3-5v3.2a.3.3,0,0,1-.3.3H12.75V8.5h-1.5V12H3.3a.3.3,0,0,1-.3-.3V8.5A1.5,1.5,0,0,1,4.5,7H5.565A2.644,2.644,0,0,1,5.41,4.844,2.737,2.737,0,0,1,10.119,4c.032.04,1.157,1.536,1.881,2.5l1.874-2.491a2.736,2.736,0,0,1,4.678.732A2.649,2.649,0,0,1,18.435,7H19.5A1.5,1.5,0,0,1,21,8.5ZM10.5,7C9.821,6.1,9,5.012,8.948,4.941A1.213,1.213,0,0,0,8,4.5,1.25,1.25,0,0,0,8,7ZM17.25,5.75A1.252,1.252,0,0,0,16,4.5a1.223,1.223,0,0,0-.961.457C14.992,5.018,14.177,6.1,13.5,7H16A1.252,1.252,0,0,0,17.25,5.75Z"/>
</svg>