<svg xmlns="http://www.w3.org/2000/svg" width="24" height="24" viewBox="0 0 24 24">
    <path d="M21,3.75H3a.75.75,0,0,1,0-1.5H21a.75.75,0,0,1,0,1.5ZM21.75,14a.75.75,0,0,0-.75-.75H3a.75.75,0,0,0,0,1.5H21A.75.75,0,0,0,21.75,14ZM5.5,6h-1A1.326,1.326,0,0,0,3,7.5v1A1.326,1.326,0,0,0,4.5,10h1A1.326,1.326,0,0,0,7,8.5v-1A1.326,1.326,0,0,0,5.5,6Zm7,0h-1A1.326,1.326,0,0,0,10,7.5v1A1.326,1.326,0,0,0,11.5,10h1A1.326,1.326,0,0,0,14,8.5v-1A1.326,1.326,0,0,0,12.5,6Zm7,0h-1A1.326,1.326,0,0,0,17,7.5v1A1.326,1.326,0,0,0,18.5,10h1A1.326,1.326,0,0,0,21,8.5v-1A1.326,1.326,0,0,0,19.5,6ZM5.5,17h-1A1.326,1.326,0,0,0,3,18.5v1A1.326,1.326,0,0,0,4.5,21h1A1.326,1.326,0,0,0,7,19.5v-1A1.326,1.326,0,0,0,5.5,17Zm7,0h-1A1.326,1.326,0,0,0,10,18.5v1A1.326,1.326,0,0,0,11.5,21h1A1.326,1.326,0,0,0,14,19.5v-1A1.326,1.326,0,0,0,12.5,17Zm7,0h-1A1.326,1.326,0,0,0,17,18.5v1A1.326,1.326,0,0,0,18.5,21h1A1.326,1.326,0,0,0,21,19.5v-1A1.326,1.326,0,0,0,19.5,17Z"/>
</svg>