<svg xmlns="http://www.w3.org/2000/svg" width="24" height="24" viewBox="0 0 24 24">
    <path d="m15,19.5v-1c0-1,.5-1.5,1.5-1.5h3c1,0,1.5.5,1.5,1.5v1c0,1-.5,1.5-1.5,1.5h-3c-1,0-1.5-.5-1.5-1.5Zm-9.05-6.25h-1.45c-1.243,0-2.25,1.007-2.25,2.25v4c0,1.243,1.007,2.25,2.25,2.25h1.45c.166,0,.3-.134.3-.3v-7.9c0-.166-.134-.3-.3-.3ZM18.272,2.301c-.386-.152-.821.04-.971.427l-3.537,9.088c-.336.864-1.169,1.434-2.097,1.434h-3.618c-.166,0-.3.134-.3.3v8.2h1.2c1.54,0,2.943-.961,3.489-2.388L18.699,3.272c.15-.386-.041-.821-.427-.971Z"/>
</svg>