<svg xmlns="http://www.w3.org/2000/svg" width="24" height="24" viewBox="0 0 24 24">
    <path d="M21.75,13.616V18A3.383,3.383,0,0,1,18,21.75H6A3.383,3.383,0,0,1,2.25,18V13.616a3.735,3.735,0,0,1,.3-1.476L4.531,7.523c.5-1.169.974-2.273,3.448-2.273a.75.75,0,1,1,0,1.5c-1.485,0-1.62.316-2.069,1.364L4.03,12.5H6.955a3.376,3.376,0,0,1,2.886,1.763,2.5,2.5,0,0,0,4.318,0A3.376,3.376,0,0,1,17.045,12.5H19.97L18.09,8.114c-.449-1.048-.584-1.364-2.069-1.364a.75.75,0,0,1,0-1.5c2.474,0,2.947,1.1,3.448,2.273l1.978,4.616A3.743,3.743,0,0,1,21.75,13.616ZM11.47,10.53a.751.751,0,0,0,1.06,0l2-2a.75.75,0,0,0-1.06-1.06l-.72.719V2a.75.75,0,0,0-1.5,0V8.189l-.72-.719A.75.75,0,0,0,9.47,8.53Z"/>
</svg>