<svg xmlns="http://www.w3.org/2000/svg" width="24" height="24" viewBox="0 0 24 24">
    <path d="m21.5,5.148v3.802c0,.166-.134.3-.3.3h-4.4c-.166,0-.3-.134-.3-.3v-3.95c0-1.465,1.266-2.639,2.761-2.487,1.301.133,2.239,1.327,2.239,2.634Zm-.3,5.602h-4.4c-.166,0-.3.134-.3.3v1.95c0,.276.224.5.5.5h1.25v3c0,1.517-1.233,2.75-2.75,2.75s-2.75-1.233-2.75-2.75V7.5c0-2.343-1.907-4.25-4.25-4.25s-4.25,1.907-4.25,4.25v3h-1.25c-.276,0-.5.224-.5.5v1.95c0,.166.134.3.3.3h4.4c.166,0,.3-.134.3-.3v-1.95c0-.276-.224-.5-.5-.5h-1.25v-3c0-1.517,1.233-2.75,2.75-2.75s2.75,1.233,2.75,2.75v9c0,2.343,1.907,4.25,4.25,4.25s4.25-1.907,4.25-4.25v-3h1.25c.276,0,.5-.224.5-.5v-1.95c0-.166-.134-.3-.3-.3Zm-14,4H2.8c-.166,0-.3.134-.3.3v3.802c0,1.307.938,2.502,2.239,2.634,1.495.153,2.761-1.022,2.761-2.487v-3.95c0-.166-.134-.3-.3-.3Z"/>
</svg>