<svg xmlns="http://www.w3.org/2000/svg" width="24" height="24" viewBox="0 0 24 24">
    <path d="M20.5,11c0,4.983-4.629,8.041-7.692,10.064l-.531.352A.5.5,0,0,1,12,21.5a.49.49,0,0,1-.275-.083l-.306-.2c-.818-.538-1.746-1.148-2.681-1.858a.5.5,0,0,1-.051-.752L19.216,8.077a.5.5,0,0,1,.826.19A8.331,8.331,0,0,1,20.5,11Zm1.03-7.47-18,18a.75.75,0,0,1-1.06-1.06l3.546-3.547A8.631,8.631,0,0,1,3.5,11,8.482,8.482,0,0,1,17.967,4.972l2.5-2.5a.75.75,0,0,1,1.06,1.06Zm-11.322,9.2,3.524-3.524a2.492,2.492,0,0,0-3.524,3.524Z"/>
</svg>