<svg xmlns="http://www.w3.org/2000/svg" width="24" height="24" viewBox="0 0 24 24">
    <path d="M17.625,14.174l2.642,1.576a1.5,1.5,0,0,1,.7,1.583h0a4.527,4.527,0,0,1-5.6,3.509A17.441,17.441,0,0,1,3.159,8.635a4.526,4.526,0,0,1,3.507-5.6l.016,0a1.5,1.5,0,0,1,1.587.708L9.833,6.376A2.051,2.051,0,0,1,9.2,9.128L7.543,10.233a11.6,11.6,0,0,0,6.211,6.226l1.115-1.665A2.052,2.052,0,0,1,17.625,14.174ZM19.061,6,20.53,4.53a.75.75,0,1,0-1.06-1.06L18,4.939,16.53,3.47a.75.75,0,1,0-1.06,1.06L16.939,6,15.47,7.47a.75.75,0,1,0,1.06,1.06L18,7.061,19.47,8.53a.75.75,0,1,0,1.06-1.06Z"/>
</svg>