<svg xmlns="http://www.w3.org/2000/svg" width="24" height="24" viewBox="0 0 24 24">
    <path d="M18.4,4.579,17.041,5.6a1.5,1.5,0,0,1-1.961-.139l-2.019-2.02a1.5,1.5,0,0,0-2.122,0L8.92,5.459A1.5,1.5,0,0,1,6.959,5.6L5.6,4.579a1,1,0,0,0-1.6.8V18.621a1,1,0,0,0,1.6.8L6.959,18.4a1.5,1.5,0,0,1,1.961.139l2.019,2.02a1.5,1.5,0,0,0,2.122,0l2.019-2.02a1.5,1.5,0,0,1,1.961-.139L18.4,19.421a1,1,0,0,0,1.6-.8V5.379A1,1,0,0,0,18.4,4.579Zm-2.294,6.909-1.53,1.48a.47.47,0,0,0-.137.417l.351,2.026a.505.505,0,0,1-.734.53l-1.836-.957a.475.475,0,0,0-.44,0l-1.835.956a.506.506,0,0,1-.734-.531l.35-2.024a.47.47,0,0,0-.137-.417l-1.53-1.48a.469.469,0,0,1,.262-.8l2.116-.3a.473.473,0,0,0,.357-.257l.917-1.843a.507.507,0,0,1,.908,0l.917,1.843a.473.473,0,0,0,.357.257l2.116.3A.469.469,0,0,1,16.106,11.488Z"/>
</svg>