<svg xmlns="http://www.w3.org/2000/svg" width="24" height="24" viewBox="0 0 24 24">
    <path d="M22,21.25H21V13.5A1.5,1.5,0,0,0,19.5,12H18V6.575l1.586,1.05a.75.75,0,1,0,.828-1.25L13.248,1.628a2.244,2.244,0,0,0-2.494,0L3.586,6.375a.75.75,0,0,0,.828,1.25L6,6.575V12H4.5A1.5,1.5,0,0,0,3,13.5v7.75H2a.75.75,0,0,0,0,1.5H22a.75.75,0,0,0,0-1.5ZM15,9.5a3,3,0,1,1-3-3A3,3,0,0,1,15,9.5ZM16.75,18a.75.75,0,1,1,.75.75A.75.75,0,0,1,16.75,18Zm1.5-2.5a.75.75,0,1,1-.75-.75A.75.75,0,0,1,18.25,15.5ZM6.5,14.75a.75.75,0,1,1-.75.75A.75.75,0,0,1,6.5,14.75Zm0,2.5a.75.75,0,1,1-.75.75A.75.75,0,0,1,6.5,17.25ZM10,18a2,2,0,0,1,4,0v3.25H10Zm1.5-8.5V8.38a.5.5,0,1,1,1,0V9.5a.5.5,0,0,1-1,0Z"/>
</svg>