<svg xmlns="http://www.w3.org/2000/svg" width="24" height="24" viewBox="0 0 24 24">
    <path d="M19.078,12H4.923a.3.3,0,0,0-.3.331L5.24,18.3c.16,1.53.75,2.7,2.99,2.7h7.56c2.2,0,2.84-1.17,2.98-2.7l.606-5.97A.3.3,0,0,0,19.078,12ZM14,16.75H12.75V18a.75.75,0,0,1-1.5,0V16.75H10a.75.75,0,0,1,0-1.5h1.25V14a.75.75,0,0,1,1.5,0v1.25H14a.75.75,0,0,1,0,1.5ZM21,9a2,2,0,0,1-2,2H5A2,2,0,0,1,5,7H6.728L9.377,2.612a.75.75,0,1,1,1.283.776L8.479,7H15.53L13.374,3.384a.75.75,0,0,1,1.289-.768L17.277,7H19A2,2,0,0,1,21,9Z"/>
</svg>