<svg xmlns="http://www.w3.org/2000/svg" width="24" height="24" viewBox="0 0 24 24">
    <path d="M18.67,14.97h2.5A6.142,6.142,0,0,1,20.1,16.4l-3.7,3.7a6.142,6.142,0,0,1-1.43,1.07v-2.5A3.7,3.7,0,0,1,18.67,14.97ZM22,11.82a5.72,5.72,0,0,1-.23,1.65h-3.1a5.2,5.2,0,0,0-5.2,5.2v3.1a5.72,5.72,0,0,1-1.65.23A9.812,9.812,0,0,1,2,12.18v-.36A9.812,9.812,0,0,1,11.82,2h.36A9.812,9.812,0,0,1,22,11.82ZM12.75,14a.75.75,0,0,0-.75-.75H8a.75.75,0,0,0,0,1.5h4A.75.75,0,0,0,12.75,14Zm4-4.5A.75.75,0,0,0,16,8.75H8.111a.75.75,0,0,0,0,1.5H16A.75.75,0,0,0,16.75,9.5Z"/>
</svg>