<svg xmlns="http://www.w3.org/2000/svg" width="24" height="24" viewBox="0 0 24 24">
    <path d="M11,18A5,5,0,0,1,9.754,8.161a1,1,0,1,1,.492,1.938A3,3,0,1,0,13.9,13.753a1,1,0,1,1,1.938.494A4.985,4.985,0,0,1,11,18Zm9-5a5.718,5.718,0,0,0-.037-.653.986.986,0,0,0-1.107-.881,1,1,0,0,0-.879,1.107A4.058,4.058,0,0,1,18,13a7,7,0,1,1-7-7,4.144,4.144,0,0,1,.43.023,1,1,0,1,0,.22-1.987A5.873,5.873,0,0,0,11,4a9,9,0,1,0,9,9Zm1.462-6.191A.5.5,0,0,0,21,6.5H17.5V3a.5.5,0,0,0-.854-.354l-2.56,2.561A2.015,2.015,0,0,0,13.5,6.621V9.086l-3.207,3.207a1,1,0,1,0,1.414,1.414L14.914,10.5h2.465a2.011,2.011,0,0,0,1.414-.586l2.561-2.56A.5.5,0,0,0,21.462,6.809Z"/>
</svg>