<svg xmlns="http://www.w3.org/2000/svg" width="24" height="24" viewBox="0 0 24 24">
    <path d="m10.94,8l-2.76-2.76c-.29-.28-.46-.66-.49-1.04l-2.76,1.06c-1.16.45-1.93,1.56-1.93,2.8v6.14c0,.51.25.97.67,1.25l1.36.9c.2.13.47-.01.47-.25v-7.1c0-.28.22-.5.5-.5s.5.22.5.5v3.44l4.44-4.44Zm3.88-4.1c-.03-.05-.09-.15-.23-.15h-5.18c-.14,0-.2.1-.23.15-.02.06-.05.17.06.28l2.76,2.76,2.76-2.76c.11-.11.08-.22.06-.28Zm4.25,1.36l-2.76-1.06c-.03.38-.2.76-.49,1.04L6.5,14.56v.392s.01.298.3.298h10.4c.166,0,.3-.134.3-.3v-5.95c0-.28.22-.5.5-.5s.5.22.5.5v7.11c0,.241.269.385.469.251l1.365-.913c.416-.279.666-.747.666-1.248v-6.14c0-1.24-.77-2.35-1.93-2.8Zm-1.57,11.7s-.038-.21-.296-.21h-3.394l.72.72c.29.29.29.77,0,1.06-.15.15-.34.22-.53.22s-.38-.07-.53-.22l-1.47-1.47-1.47,1.47c-.29.29-.77.29-1.06,0-.29-.29-.29-.77,0-1.06l.72-.72h-3.39c-.3,0-.3.21-.3.21-.01.04-.01.11-.02.16l-.88,3.51c-.04.19.1.37.29.37h12.22c.19,0,.33-.18.29-.37l-.88-3.51c-.01-.05-.01-.12-.02-.16Z"/>
</svg>