<svg xmlns="http://www.w3.org/2000/svg" width="24" height="24" viewBox="0 0 24 24">
    <path d="M6.009,6.5a4,4,0,1,1,4,4A4,4,0,0,1,6.009,6.5Zm8.571,7.39c.13-.04.25-.08.36-.11a.293.293,0,0,0,.23-.29.28.28,0,0,0-.09-.21,1.3,1.3,0,0,0-.13-.08A5.848,5.848,0,0,0,12,12.5H8c-4.06,0-5.5,2.97-5.5,5.52C2.5,20.3,3.71,21.5,6,21.5h8c.12,0,.23,0,.34-.01.241-.008.33-.15.33-.3a.392.392,0,0,0-.09-.21,5.782,5.782,0,0,1-1.08-3.42V15.33A1.509,1.509,0,0,1,14.58,13.89Zm3.855.11A17.391,17.391,0,0,1,15,15.333v2.223A4.806,4.806,0,0,0,18.429,22a4.806,4.806,0,0,0,3.428-4.444V15.275A14.406,14.406,0,0,1,18.435,14Z"/>
</svg>