<svg xmlns="http://www.w3.org/2000/svg" width="24" height="24" viewBox="0 0 24 24">
    <path d="M19.627,8.752a3.157,3.157,0,0,1-2.041,2.028A3.239,3.239,0,0,1,13.83,9.431a.3.3,0,0,1,0-.3,5.428,5.428,0,0,0,.6-3.6.3.3,0,0,1,.094-.281A3.151,3.151,0,0,1,16.56,4.5,3.234,3.234,0,0,1,19.627,8.752ZM18.11,12.28H16.13a.3.3,0,0,0-.3.3.272.272,0,0,0,.09.21l.03.03A7.173,7.173,0,0,1,18,18.02a6,6,0,0,1-.08,1.06.52.52,0,0,0-.013.121.294.294,0,0,0,.293.3h1.46a2.553,2.553,0,0,0,2.84-2.82A4.13,4.13,0,0,0,18.11,12.28ZM9.01,2.5a4,4,0,1,0,4,4A4,4,0,0,0,9.01,2.5ZM11,12.5H7c-4.06,0-5.5,2.97-5.5,5.52C1.5,20.3,2.71,21.5,5,21.5h8c2.29,0,3.5-1.2,3.5-3.48C16.5,15.47,15.06,12.5,11,12.5Z"/>
</svg>