<svg xmlns="http://www.w3.org/2000/svg" width="24" height="24" viewBox="0 0 24 24">
    <path d="M21.5,5.5v-1a1.821,1.821,0,0,0-2-2h-1a1.789,1.789,0,0,0-1.981,1.75H7.481A1.789,1.789,0,0,0,5.5,2.5h-1a1.821,1.821,0,0,0-2,2v1A1.789,1.789,0,0,0,4.25,7.481v9.038A1.789,1.789,0,0,0,2.5,18.5v1a1.821,1.821,0,0,0,2,2h1a1.789,1.789,0,0,0,1.981-1.75h9.038A1.789,1.789,0,0,0,18.5,21.5h1a1.821,1.821,0,0,0,2-2v-1a1.789,1.789,0,0,0-1.75-1.981V7.481A1.789,1.789,0,0,0,21.5,5.5ZM16.519,18.25H7.481A1.748,1.748,0,0,0,5.75,16.519V7.481A1.748,1.748,0,0,0,7.481,5.75h9.038A1.748,1.748,0,0,0,18.25,7.481v9.038A1.748,1.748,0,0,0,16.519,18.25Z"/>
</svg>