<svg xmlns="http://www.w3.org/2000/svg" width="24" height="24" viewBox="0 0 24 24">
    <path d="M10.52,12a1,1,0,1,1-1.01-1h.01A1,1,0,0,1,10.52,12ZM20.776,6.973,18.612,8.71a.3.3,0,0,0-.112.234v6.112a.3.3,0,0,0,.112.234l2.164,1.737A.753.753,0,0,0,22,16.44V7.56A.753.753,0,0,0,20.776,6.973ZM17,8v8a2.652,2.652,0,0,1-3,3H5a2.652,2.652,0,0,1-3-3V8A2.652,2.652,0,0,1,5,5h9A2.652,2.652,0,0,1,17,8Zm-3.681,3.341A4.581,4.581,0,0,0,9.5,8.875a4.581,4.581,0,0,0-3.819,2.466,1.292,1.292,0,0,0,0,1.318A4.581,4.581,0,0,0,9.5,15.125a4.581,4.581,0,0,0,3.819-2.466A1.287,1.287,0,0,0,13.319,11.341Z"/>
</svg>