<svg xmlns="http://www.w3.org/2000/svg" width="24" height="24" viewBox="0 0 24 24">
    <path d="M13,15.724V19.33a1.669,1.669,0,0,1-2.75,1.27L8.958,19.5a.3.3,0,0,1-.018-.441l3.548-3.548A.3.3,0,0,1,13,15.724Zm5.455-5.684a.75.75,0,0,0-1.434.44,5.217,5.217,0,0,1-1.313,5.23.75.75,0,0,0,1.061,1.061A6.714,6.714,0,0,0,18.455,10.04Zm2.981-3.181a.75.75,0,0,0-1.315.722A9.273,9.273,0,0,1,18.538,18.54.75.75,0,1,0,19.6,19.6,10.781,10.781,0,0,0,21.436,6.859ZM21.53,2.47a.749.749,0,0,0-1.06,0L13,9.939V4.67A1.669,1.669,0,0,0,10.25,3.4L6.56,6.53A2.026,2.026,0,0,1,5.27,7H3.5A1.5,1.5,0,0,0,2,8.5v7A1.5,1.5,0,0,0,3.5,17H5.27a1.978,1.978,0,0,1,.577.092L2.47,20.47a.75.75,0,1,0,1.06,1.06l18-18A.749.749,0,0,0,21.53,2.47Z"/>
</svg>