<svg width="24" height="24" viewBox="0 0 24 24" fill="none" xmlns="http://www.w3.org/2000/svg">
<path d="M7.5 20.0001C7.5 21.1047 6.60457 22.0001 5.5 22.0001C4.39543 22.0001 3.5 21.1047 3.5 20.0001M7.5 20.0001C7.5 18.8956 6.60457 18.0001 5.5 18.0001C4.39543 18.0001 3.5 18.8956 3.5 20.0001M7.5 20.0001H9.5C10.0523 20.0001 10.5 19.5524 10.5 19.0001V16.0146C10.5 15.6917 10.344 15.3886 10.0812 15.2009L7 13.0001M3.5 20.0001L2 20.0001M7 13.0001H2M7 13.0001L3.79861 8.4266C3.61146 8.15924 3.30563 8.00002 2.97928 8.00005L2 8.00014" stroke="#141B34" stroke-width="1.5" stroke-linecap="round" stroke-linejoin="round"/>
<path d="M16.5 20.0001C16.5 21.1047 17.3954 22.0001 18.5 22.0001C19.6046 22.0001 20.5 21.1047 20.5 20.0001M16.5 20.0001C16.5 18.8956 17.3954 18.0001 18.5 18.0001C19.6046 18.0001 20.5 18.8956 20.5 20.0001M16.5 20.0001H14.5C13.9477 20.0001 13.5 19.5524 13.5 19.0001V16.0146C13.5 15.6917 13.656 15.3886 13.9188 15.2009L17 13.0001M20.5 20.0001L22 20.0001M22 8.00014L21.0207 8.00005C20.6944 8.00002 20.3885 8.15924 20.2014 8.4266L17 13.0001M22 13.0001H17" stroke="#141B34" stroke-width="1.5" stroke-linecap="round" stroke-linejoin="round"/>
<path d="M9.5 10L7 7.44549L9 7L7.59273 3.00674L11 4.5L12.4528 2.00006L13.5 6L17 4.98339L15.0346 10.0001" stroke="#141B34" stroke-width="1.5" stroke-linecap="round" stroke-linejoin="round"/>
<path d="M12.5 10L12 8" stroke="#141B34" stroke-width="1.5" stroke-linecap="round" stroke-linejoin="round"/>
</svg>
