<svg width="24" height="24" viewBox="0 0 24 24" fill="none" xmlns="http://www.w3.org/2000/svg">
<path d="M22 5C22 3.34315 20.6569 2 19 2H7.50003C5.84318 2 4.50003 3.34315 4.50003 5V19C4.50003 20.6569 5.84318 22 7.50003 22H19C20.6569 22 22 20.6569 22 19V5Z" stroke="#141B34" stroke-width="1.5" stroke-linejoin="round"/>
<path d="M4.5 6H2M4.5 12H2M4.5 18H2" stroke="#141B34" stroke-width="1.5" stroke-linecap="round" stroke-linejoin="round"/>
<path d="M16.0005 16C15.1647 16.6279 14.1258 17 13 17C10.2386 17 8 14.7614 8 12C8 9.23858 10.2386 7 13 7C15.7614 7 18 9.23858 18 12C18 12.3524 17.9635 12.6963 17.8942 13.0281C17.7672 13.6358 17.1827 14 16.5619 14C15.6993 14 15 13.3007 15 12.4381V10M15 12C15 13.1046 14.1046 14 13 14C11.8954 14 11 13.1046 11 12C11 10.8954 11.8954 10 13 10C14.1046 10 15 10.8954 15 12Z" stroke="#141B34" stroke-width="1.5" stroke-linecap="round" stroke-linejoin="round"/>
</svg>
