<svg width="24" height="24" viewBox="0 0 24 24" fill="none" xmlns="http://www.w3.org/2000/svg">
<path d="M17.4776 8.00005C17.485 8.00002 17.4925 8 17.5 8C19.9853 8 22 10.0147 22 12.5C22 13.9136 21.5195 15.175 20.5 16M17.4776 8.00005C17.4924 7.83536 17.5 7.66856 17.5 7.5C17.5 4.46243 15.0376 2 12 2C9.12324 2 6.76233 4.20862 6.52042 7.0227M17.4776 8.00005C17.4131 8.71494 17.2119 9.39038 16.9003 10M6.52042 7.0227C3.98398 7.26407 2 9.40034 2 12C2 13.6358 2.78555 15.0878 4 16M6.52042 7.0227C6.67826 7.00768 6.83823 7 7 7C8.12582 7 9.16474 7.37209 10.0005 8" stroke="#141B34" stroke-width="1.5" stroke-linecap="round" stroke-linejoin="round"/>
<path d="M19 21L17 19L17 17M18 21C18 20.4477 18.4477 20 19 20C19.5523 20 20 20.4477 20 21C20 21.5523 19.5523 22 19 22C18.4477 22 18 21.5523 18 21Z" stroke="#141B34" stroke-width="1.5" stroke-linecap="round" stroke-linejoin="round"/>
<path d="M12 21L12 16M11 21C11 20.4477 11.4477 20 12 20C12.5523 20 13 20.4477 13 21C13 21.5523 12.5523 22 12 22C11.4477 22 11 21.5523 11 21Z" stroke="#141B34" stroke-width="1.5" stroke-linecap="round" stroke-linejoin="round"/>
<path d="M5 21L7 19L7 17M6 21C6 20.4477 5.55228 20 5 20C4.44772 20 4 20.4477 4 21C4 21.5523 4.44772 22 5 22C5.55228 22 6 21.5523 6 21Z" stroke="#141B34" stroke-width="1.5" stroke-linecap="round" stroke-linejoin="round"/>
</svg>
