<svg width="24" height="24" viewBox="0 0 24 24" fill="none" xmlns="http://www.w3.org/2000/svg">
<path d="M6.03792 2.82172C6.19664 2.39276 6.80336 2.39276 6.96208 2.82172L7.6735 4.7443C7.77331 5.01403 7.98597 5.22669 8.2557 5.3265L10.1783 6.03792C10.6072 6.19664 10.6072 6.80336 10.1783 6.96208L8.2557 7.6735C7.98597 7.77331 7.77331 7.98597 7.6735 8.2557L6.96208 10.1783C6.80336 10.6072 6.19665 10.6072 6.03792 10.1783L5.3265 8.2557C5.22669 7.98597 5.01403 7.77331 4.7443 7.6735L2.82172 6.96208C2.39276 6.80336 2.39276 6.19665 2.82172 6.03792L4.7443 5.3265C5.01403 5.22669 5.22669 5.01403 5.3265 4.7443L6.03792 2.82172Z" stroke="#141B34" stroke-width="1.5"/>
<path d="M14.4532 9.0688L15.945 10.5605M6 17.522V21.5H9.97798L21.2087 10.2693C21.5971 9.88089 21.5971 9.25121 21.2087 8.86284L18.6372 6.29128C18.2488 5.90291 17.6191 5.90291 17.2307 6.29128L6 17.522Z" stroke="#141B34" stroke-width="1.5" stroke-linecap="round" stroke-linejoin="round"/>
</svg>
