<svg width="24" height="24" viewBox="0 0 24 24" fill="none" xmlns="http://www.w3.org/2000/svg">
<path d="M6 7.5L10.8906 10.6731C11.5624 11.109 12.4376 11.109 13.1094 10.6731L18 7.5" stroke="#141B34" stroke-width="1.5" stroke-linecap="round" stroke-linejoin="round"/>
<path d="M18.5 14L18.7579 14.697C19.0961 15.611 19.2652 16.068 19.5986 16.4014C19.932 16.7348 20.389 16.9039 21.303 17.2421L22 17.5L21.303 17.7579C20.389 18.0961 19.932 18.2652 19.5986 18.5986C19.2652 18.932 19.0961 19.389 18.7579 20.303L18.5 21L18.2421 20.303C17.9039 19.389 17.7348 18.932 17.4014 18.5986C17.068 18.2652 16.611 18.0961 15.697 17.7579L15 17.5L15.697 17.2421C16.611 16.9039 17.068 16.7348 17.4014 16.4014C17.7348 16.068 17.9039 15.611 18.2421 14.697L18.5 14Z" stroke="#141B34" stroke-width="1.5" stroke-linecap="round" stroke-linejoin="round"/>
<path d="M22 13V5C22 3.89543 21.1046 3 20 3H4C2.89543 3 2 3.89543 2 5V18C2 19.1046 2.89543 20 4 20H13" stroke="#141B34" stroke-width="1.5" stroke-linecap="round" stroke-linejoin="round"/>
</svg>
