<svg width="24" height="24" viewBox="0 0 24 24" fill="none" xmlns="http://www.w3.org/2000/svg">
<path d="M16 18.5V20C16 21.1046 15.1046 22 14 22H5C3.89543 22 3 21.1046 3 20V4C3 2.89543 3.89543 2 5 2H14C15.1046 2 16 2.89543 16 4V5.5" stroke="#141B34" stroke-width="1.5" stroke-linecap="round"/>
<path d="M9.5 19H9.50898" stroke="#141B34" stroke-width="2" stroke-linecap="round" stroke-linejoin="round"/>
<path d="M20 6.5L18 8.5H15M20 7.5C19.4477 7.5 19 7.05228 19 6.5C19 5.94772 19.4477 5.5 20 5.5C20.5523 5.5 21 5.94772 21 6.5C21 7.05228 20.5523 7.5 20 7.5Z" stroke="#141B34" stroke-width="1.5" stroke-linecap="round" stroke-linejoin="round"/>
<path d="M20 12H12M20 13C19.4477 13 19 12.5523 19 12C19 11.4477 19.4477 11 20 11C20.5523 11 21 11.4477 21 12C21 12.5523 20.5523 13 20 13Z" stroke="#141B34" stroke-width="1.5" stroke-linecap="round" stroke-linejoin="round"/>
<path d="M20 17.5L18 15.5H15M20 16.5C19.4477 16.5 19 16.9477 19 17.5C19 18.0523 19.4477 18.5 20 18.5C20.5523 18.5 21 18.0523 21 17.5C21 16.9477 20.5523 16.5 20 16.5Z" stroke="#141B34" stroke-width="1.5" stroke-linecap="round" stroke-linejoin="round"/>
</svg>
