<svg width="24" height="24" viewBox="0 0 24 24" fill="none" xmlns="http://www.w3.org/2000/svg">
<path d="M18.5 2L18.7579 2.69703C19.0961 3.61102 19.2652 4.06802 19.5986 4.40139C19.932 4.73477 20.389 4.90387 21.303 5.24208L22 5.5L21.303 5.75792C20.389 6.09613 19.932 6.26524 19.5986 6.59861C19.2652 6.93198 19.0961 7.38898 18.7579 8.30297L18.5 9L18.2421 8.30297C17.9039 7.38898 17.7348 6.93198 17.4014 6.59861C17.068 6.26524 16.611 6.09613 15.697 5.75792L15 5.5L15.697 5.24208C16.611 4.90387 17.068 4.73477 17.4014 4.40139C17.7348 4.06802 17.9039 3.61102 18.2421 2.69703L18.5 2Z" stroke="#141B34" stroke-width="1.5" stroke-linecap="round" stroke-linejoin="round"/>
<path d="M13 3H4C2.89543 3 2 3.89543 2 5V20C2 21.1046 2.89543 22 4 22H19C20.1046 22 21 21.1046 21 20V11" stroke="#141B34" stroke-width="1.5" stroke-linecap="round" stroke-linejoin="round"/>
<path d="M9 14.4583V10.542C9 9.76849 9.81435 9.26542 10.5065 9.61133L14.4246 11.5695C15.1918 11.9529 15.1918 13.0473 14.4246 13.4308L10.5065 15.3889C9.81435 15.7349 9 15.2318 9 14.4583Z" stroke="#141B34" stroke-width="1.5" stroke-linecap="round" stroke-linejoin="round"/>
</svg>
