<svg width="24" height="24" viewBox="0 0 24 24" fill="none" xmlns="http://www.w3.org/2000/svg">
<path d="M4.8 16.5C3.66976 15.0375 3 13.2195 3 11.2495C3 6.41727 7.02944 2.5 12 2.5C16.9706 2.5 21 6.41727 21 11.2495C21 13.2195 20.3302 15.0375 19.2 16.5M8.27316 14.5C7.48142 13.6508 7 12.5294 7 11.3C7 8.64903 9.23858 6.5 12 6.5C14.7614 6.5 17 8.64903 17 11.3C17 12.5294 16.5186 13.6508 15.7268 14.5M13.5 11.5C13.5 12.3284 12.8284 13 12 13C11.1716 13 10.5 12.3284 10.5 11.5C10.5 10.6716 11.1716 10 12 10C12.8284 10 13.5 10.6716 13.5 11.5Z" stroke="#141B34" stroke-width="1.5" stroke-linecap="round" stroke-linejoin="round"/>
<path d="M11.2033 16.9284C11.5823 16.3572 12.4177 16.3572 12.7967 16.9284L14.8376 20.0043C15.2618 20.6436 14.8056 21.5 14.0409 21.5H9.95911C9.19436 21.5 8.73821 20.6436 9.16242 20.0043L11.2033 16.9284Z" stroke="#141B34" stroke-width="1.5" stroke-linecap="round" stroke-linejoin="round"/>
</svg>
