<svg width="24" height="24" viewBox="0 0 24 24" fill="none" xmlns="http://www.w3.org/2000/svg">
<path d="M16.75 14C16.75 14.4142 17.0858 14.75 17.5 14.75C17.9142 14.75 18.25 14.4142 18.25 14H16.75ZM7 2.25C6.58579 2.25 6.25 2.58579 6.25 3C6.25 3.41421 6.58579 3.75 7 3.75V2.25ZM3.5623 4.17339C3.8364 3.86284 3.80685 3.38888 3.4963 3.11478C3.18575 2.84068 2.71179 2.87024 2.4377 3.18079L3.5623 4.17339ZM16.75 5V14H18.25V5H16.75ZM1.75 5V16H3.25V5H1.75ZM15.5 17.25H4.5V18.75H15.5V17.25ZM7 3.75H15.5V2.25H7V3.75ZM1.75 16C1.75 17.5188 2.98122 18.75 4.5 18.75V17.25C3.80964 17.25 3.25 16.6904 3.25 16H1.75ZM18.25 5C18.25 3.48122 17.0188 2.25 15.5 2.25V3.75C16.1904 3.75 16.75 4.30964 16.75 5H18.25ZM3.25 5C3.25 4.68247 3.36742 4.3942 3.5623 4.17339L2.4377 3.18079C2.01022 3.66511 1.75 4.30308 1.75 5H3.25ZM16.4377 16.8266C16.2076 17.0874 15.8732 17.25 15.5 17.25V18.75C16.3215 18.75 17.0595 18.3889 17.5623 17.8192L16.4377 16.8266Z" fill="#141B34"/>
<path d="M2.5 11.1185C3.11902 11.0398 3.74484 11.001 4.37171 11.0023C7.02365 10.9533 9.6106 11.6763 11.6711 13.0424C13.582 14.3094 14.9247 16.053 15.5 18" stroke="#141B34" stroke-width="1.5" stroke-linejoin="round"/>
<path d="M13.5 7H13.509" stroke="#141B34" stroke-width="2" stroke-linecap="round" stroke-linejoin="round"/>
<path d="M20.5 17V8C20.5 6.89543 19.6046 6 18.5 6H17.5M5.5 18V19C5.5 20.1046 6.39543 21 7.5 21H18.5C19.0072 21 19.4703 20.8112 19.8229 20.5" stroke="#141B34" stroke-width="1.5" stroke-linecap="round" stroke-linejoin="round"/>
<path d="M2.5 2L21.5 22" stroke="#141B34" stroke-width="1.5" stroke-linecap="round" stroke-linejoin="round"/>
</svg>
