<svg width="24" height="24" viewBox="0 0 24 24" fill="none" xmlns="http://www.w3.org/2000/svg">
<path d="M11 17.5H15M13.5 7.5H18.0109C18.3195 7.5 18.6108 7.64247 18.8003 7.88606L21.7894 11.7292C21.9259 11.9047 22 12.1207 22 12.3431V16.5C22 17.0523 21.5523 17.5 21 17.5H19" stroke="#141B34" stroke-width="1.5" stroke-linecap="round" stroke-linejoin="round"/>
<path d="M5 17.5H3.00005C2.44776 17.5 2.00005 17.0523 2.00005 16.5L2 5.5C2 4.94772 2.44772 4.5 3 4.5H12.5C13.0523 4.5 13.5 4.94772 13.5 5.5V17.5H9" stroke="#141B34" stroke-width="1.5" stroke-linecap="round" stroke-linejoin="round"/>
<path d="M8 7.5V12.5M10.5 10H5.5" stroke="#141B34" stroke-width="1.5" stroke-linecap="round" stroke-linejoin="round"/>
<path d="M17 19.5C18.1046 19.5 19 18.6046 19 17.5C19 16.3954 18.1046 15.5 17 15.5C15.8954 15.5 15 16.3954 15 17.5C15 18.6046 15.8954 19.5 17 19.5Z" stroke="#141B34" stroke-width="1.5" stroke-linecap="round" stroke-linejoin="round"/>
<path d="M7 19.5C8.10457 19.5 9 18.6046 9 17.5C9 16.3954 8.10457 15.5 7 15.5C5.89543 15.5 5 16.3954 5 17.5C5 18.6046 5.89543 19.5 7 19.5Z" stroke="#141B34" stroke-width="1.5" stroke-linecap="round" stroke-linejoin="round"/>
<path d="M20 14.5H21.9873" stroke="#141B34" stroke-width="1.5" stroke-linecap="round" stroke-linejoin="round"/>
</svg>
