<svg width="24" height="24" viewBox="0 0 24 24" fill="none" xmlns="http://www.w3.org/2000/svg">
<path d="M4.7 9.65V11M8.3 9.65V11M4.7 2V3.35M8.3 2V3.35M3.35 4.7H2M3.35 8.3H2M11 4.7H9.65M11 8.3H9.65M8.75 9.65H4.25C3.75294 9.65 3.35 9.24706 3.35 8.75V4.25C3.35 3.75294 3.75294 3.35 4.25 3.35H8.75C9.24706 3.35 9.65 3.75294 9.65 4.25V8.75C9.65 9.24706 9.24706 9.65 8.75 9.65Z" stroke="#141B34" stroke-width="1.35" stroke-linecap="round" stroke-linejoin="round"/>
<path d="M16 22V18.5L18.876 18.8595C19.4728 18.9341 20 18.4687 20 17.8672V14.5L22 13L20 10C20 5.92037 16.9463 2.49207 12.9999 2M9.49999 17.6016C7.61883 16.9833 5.97534 15.6862 4.99994 14M6.99999 16.2718V22" stroke="#141B34" stroke-width="1.5" stroke-linecap="round" stroke-linejoin="round"/>
</svg>
