<svg width="24" height="24" viewBox="0 0 24 24" fill="none" xmlns="http://www.w3.org/2000/svg">
<path d="M14 11.9171C16 10.9087 18.478 11.7529 19.5777 14.1858C21.2282 17.8369 17.7619 21.8826 14.0077 21.9975C13.8997 22.0008 13.7859 21.9824 13.6861 21.9409C10.9391 20.7977 17.4719 16.7411 15.3319 14.5481" stroke="#141B34" stroke-width="1.5" stroke-linecap="round" stroke-linejoin="round"/>
<path d="M12.2668 13C12.7613 11.1394 11.9777 9.26085 9.99951 9.72599C8.80159 10.0077 8.51863 10.8845 7.79421 10.9579C7.23147 11.0149 6.88424 10.3736 7.03547 9.83758C8.08526 6.11673 15.6427 6.03007 16 9.72599" stroke="#141B34" stroke-width="1.5" stroke-linecap="round" stroke-linejoin="round"/>
<path d="M14.0009 18.9533C11.807 20.0471 6.60808 20.5835 4.5 19.0451L3.19662 19.3064C2.57768 19.4306 2 18.9572 2 18.326V17.0143C2 16.3064 2.71525 15.8227 3.37224 16.0861L4.5 16.5384C9.5 14.5331 15.9947 13.0532 17.7464 5.7238C18.5261 2.46145 18.7506 2 20.0529 2C21.3553 2 22.9193 5.00912 21.3265 9.97957C20.9057 11.2924 20.5 12.5278 19.5 14.0318" stroke="#141B34" stroke-width="1.5" stroke-linecap="round" stroke-linejoin="round"/>
</svg>
