<svg width="24" height="24" viewBox="0 0 24 24" fill="none" xmlns="http://www.w3.org/2000/svg">
<path d="M14.509 18.5H14.5" stroke="#141B34" stroke-width="1.5" stroke-linecap="round" stroke-linejoin="round"/>
<path d="M15 7.75C14.5858 7.75 14.25 8.08579 14.25 8.5C14.25 8.91421 14.5858 9.25 15 9.25V7.75ZM22 8.5L22.624 8.91603C22.7775 8.68588 22.7918 8.38997 22.6613 8.14611C22.5307 7.90224 22.2766 7.75 22 7.75V8.5ZM20.2969 11.0547L19.6728 10.6387L20.2969 11.0547ZM13.1097 15.0078L12.378 14.8431L13.1097 15.0078ZM6.79094 20.8906L6.43122 21.5487L6.79094 20.8906ZM2.75 12C2.75 7.44365 6.44365 3.75 11 3.75V2.25C5.61522 2.25 1.25 6.61522 1.25 12H2.75ZM11 3.75C14.4172 3.75 17.3509 5.82779 18.6032 8.7919L19.985 8.2081C18.5063 4.70832 15.0411 2.25 11 2.25V3.75ZM7.15066 20.2325C4.55819 18.8155 2.75 15.2394 2.75 12H1.25C1.25 15.6625 3.25669 19.8135 6.43122 21.5487L7.15066 20.2325ZM15 9.25H22V7.75H15V9.25ZM21.376 8.08397L19.6728 10.6387L20.9209 11.4707L22.624 8.91603L21.376 8.08397ZM19.4648 10.75H17.5V12.25H19.4648V10.75ZM14 16.75H15V15.25H14V16.75ZM15 20.25H7.23607V21.75H15V20.25ZM16.75 18.5C16.75 19.4665 15.9665 20.25 15 20.25V21.75C16.7949 21.75 18.25 20.2949 18.25 18.5H16.75ZM15 16.75C15.9665 16.75 16.75 17.5335 16.75 18.5H18.25C18.25 16.7051 16.7949 15.25 15 15.25V16.75ZM17.5 10.75C14.9973 10.75 12.9052 12.5005 12.378 14.8431L13.8414 15.1725C14.218 13.4993 15.714 12.25 17.5 12.25V10.75ZM19.6728 10.6387C19.6265 10.7082 19.5484 10.75 19.4648 10.75V12.25C20.0499 12.25 20.5963 11.9576 20.9209 11.4707L19.6728 10.6387ZM14 15.25C13.9262 15.25 13.8737 15.219 13.8505 15.1942C13.8404 15.1832 13.8393 15.1775 13.8398 15.1794C13.8409 15.1832 13.8391 15.183 13.8414 15.1725L12.378 14.8431C12.1253 15.9663 13.0928 16.75 14 16.75V15.25ZM6.43122 21.5487C6.68978 21.6901 6.96957 21.75 7.23607 21.75V20.25C7.19208 20.25 7.16455 20.2401 7.15066 20.2325L6.43122 21.5487Z" fill="#141B34"/>
</svg>
