<svg width="24" height="24" viewBox="0 0 24 24" fill="none" xmlns="http://www.w3.org/2000/svg">
<path d="M19 5H5C3.89543 5 3 5.89543 3 7V10C3 11.1046 3.89543 12 5 12H19C20.1046 12 21 11.1046 21 10V7C21 5.89543 20.1046 5 19 5Z" stroke="#141B34" stroke-width="1.5" stroke-linejoin="round"/>
<path d="M16.5 22V20.4211M16.5 12V15.1579" stroke="#141B34" stroke-width="1.5" stroke-linecap="round" stroke-linejoin="round"/>
<path d="M8 2H17C17.5523 2 18 2.44772 18 3V5" stroke="#141B34" stroke-width="1.5" stroke-linecap="round" stroke-linejoin="round"/>
<path d="M17 8.5H16.991M13.009 8.5H13" stroke="#141B34" stroke-width="2" stroke-linecap="round" stroke-linejoin="round"/>
<path d="M18 16H15C14.4477 16 14 16.4477 14 17V20C14 20.5523 14.4477 21 15 21H18C18.5523 21 19 20.5523 19 20V17C19 16.4477 18.5523 16 18 16Z" stroke="#141B34" stroke-width="1.5" stroke-linejoin="round"/>
</svg>
