<svg width="24" height="24" viewBox="0 0 24 24" fill="none" xmlns="http://www.w3.org/2000/svg">
<path d="M22 17H2" stroke="#141B34" stroke-width="1.5" stroke-linecap="round" stroke-linejoin="round"/>
<path d="M22 21V14C22 12.8954 21.1046 12 20 12H4C2.89543 12 2 12.8954 2 14V21" stroke="#141B34" stroke-width="1.5" stroke-linecap="round" stroke-linejoin="round"/>
<path d="M16 12V10.309C16 10.1196 15.8935 9.94708 15.7199 9.87128C15.1014 9.60118 13.5507 9 12 9C10.4493 9 8.89856 9.60118 8.28011 9.87128C8.10655 9.94708 8 10.1196 8 10.309V12" stroke="#141B34" stroke-width="1.5" stroke-linecap="round" stroke-linejoin="round"/>
<path d="M20 12V6.46798C20 6.17143 19.8696 5.88847 19.6357 5.70611C17.4413 3.99491 14.8181 3 12 3C9.18187 3 6.5587 3.99491 4.36426 5.70611C4.1304 5.88846 4 6.17143 4 6.46798V12" stroke="#141B34" stroke-width="1.5" stroke-linecap="round" stroke-linejoin="round"/>
</svg>
