<svg width="24" height="24" viewBox="0 0 24 24" fill="none" xmlns="http://www.w3.org/2000/svg">
<path d="M21 11.051V6.12319C21 5.34819 20.4145 4.70496 19.6551 4.57296C16.595 4.04102 14.0546 2.85766 12.8152 2.20148C12.3077 1.93276 11.6923 1.93276 11.1848 2.20148C9.94542 2.85766 7.40502 4.04102 4.34489 4.57296C3.58552 4.70496 3 5.34819 3 6.12319V11.051C3 17.4795 9.53762 20.9859 11.4689 21.8814C11.8097 22.0394 12.1903 22.0394 12.5311 21.8814C14.4624 20.9859 21 17.4795 21 11.051Z" stroke="#141B34" stroke-width="1.5" stroke-linecap="round"/>
<path d="M9.5 8.99994H10.5M13 11.9999H10.5M13 11.9999C13.8284 11.9999 14.5 11.3284 14.5 10.4999C14.5 9.67151 13.8284 8.99994 13 8.99994H12M13 11.9999C13.8284 11.9999 14.5 12.6715 14.5 13.4999C14.5 14.3284 13.8284 14.9999 13 14.9999H12M10.5 11.9999V8.99994M10.5 11.9999V14.9999M9.5 14.9999H10.5M10.5 8.99994H12M10.5 14.9999H12M12 8.99994V7.99994M12 14.9999V15.9999" stroke="#141B34" stroke-width="1.5" stroke-linecap="round" stroke-linejoin="round"/>
</svg>
