<svg width="24" height="24" viewBox="0 0 24 24" fill="none" xmlns="http://www.w3.org/2000/svg">
<path d="M5.99609 11.5059C5.99609 14.3059 8.99609 17.5726 11.9961 18.5059" stroke="#141B34" stroke-width="1.5" stroke-linejoin="round"/>
<path d="M17.5693 13.6023C17.5694 12.5941 17.9499 11.8798 19.4019 11.1923C19.7852 11.0109 20.1636 10.8069 20.4678 10.5114C21.4061 9.59985 21.6619 8.79984 21.4072 7.52126C21.3394 7.1807 21.2026 6.85712 21.0118 6.56701C19.8695 4.83007 18.11 3.44425 15.9943 2.75649C14.3201 2.34299 13.3052 2.42882 11.9464 2.99138C10.6424 3.65872 9.18597 4.87986 7.94841 7.00212C7.07019 8.75349 6.68555 9.73955 6.01531 11.5072L3.22392 13.8907C2.76592 14.2817 2.49021 14.8623 2.60457 15.4536C3.03927 17.7012 4.76935 20.0207 7.04745 21.1239C7.62595 21.404 8.30263 21.2723 8.81658 20.8863L11.9857 18.5062C15.2168 17.552 18.6567 16.9483 19.9588 16.1691C21.2608 15.3898 21.8653 12.7822 19.9278 11.3523" stroke="#141B34" stroke-width="1.5" stroke-linecap="round" stroke-linejoin="round"/>
</svg>
