<svg width="24" height="24" viewBox="0 0 24 24" fill="none" xmlns="http://www.w3.org/2000/svg">
<path d="M20.7431 2.28961C19.1465 1.45704 18 2.68433 18 2.68433C18 2.68433 16.8535 1.45704 15.2568 2.2896C13.323 3.298 13.1841 7.24692 18 9C22.816 7.24692 22.677 3.298 20.7431 2.28961Z" stroke="#141B34" stroke-width="1.5" stroke-linecap="round" stroke-linejoin="round"/>
<path d="M11.7455 12H11.7545M15.741 12H15.75M7.75 12H7.75897" stroke="#141B34" stroke-width="2" stroke-linecap="round" stroke-linejoin="round"/>
<path d="M22 12C22 17.5229 17.5228 22 12 22C10.4241 22 9.05879 21.5979 7.77536 20.9358C7.27207 20.6762 6.69036 20.5929 6.14794 20.7556L3.77882 21.4664C3.01602 21.6952 2.3048 20.984 2.53365 20.2212L3.24438 17.8521C3.40711 17.3096 3.32379 16.7279 3.06417 16.2246C2.40213 14.9412 2 13.5759 2 12C2 6.81465 5.94668 2.50172 11 2" stroke="#141B34" stroke-width="1.5" stroke-linecap="round" stroke-linejoin="round"/>
</svg>
