<svg width="24" height="24" viewBox="0 0 24 24" fill="none" xmlns="http://www.w3.org/2000/svg">
<path d="M18 2V5M6 2V5" stroke="#141B34" stroke-width="1.5" stroke-linecap="round" stroke-linejoin="round"/>
<path d="M19.5 3.5H4.5C3.39543 3.5 2.5 4.39543 2.5 5.5V20C2.5 21.1046 3.39543 22 4.5 22H19.5C20.6046 22 21.5 21.1046 21.5 20V5.5C21.5 4.39543 20.6046 3.5 19.5 3.5Z" stroke="#141B34" stroke-width="1.5" stroke-linecap="round" stroke-linejoin="round"/>
<path d="M9.42857 19L12 17.6111L14.5714 19L14 16.2222L16 14.2778L13.2091 14.0486L12 11.5L10.7909 14.0486L8 14.2778L9.99999 16.2222L9.42857 19Z" stroke="#141B34" stroke-width="1.55" stroke-linejoin="round"/>
<path d="M2.5 8.5H21.5" stroke="#141B34" stroke-width="1.5" stroke-linecap="round" stroke-linejoin="round"/>
</svg>
