<svg width="24" height="24" viewBox="0 0 24 24" fill="none" xmlns="http://www.w3.org/2000/svg">
<path d="M12 6H12.0001" stroke="#141B34" stroke-width="2" stroke-linecap="round" stroke-linejoin="round"/>
<path d="M12 6H12.0001" stroke="#141B34" stroke-width="2" stroke-linecap="round" stroke-linejoin="round"/>
<path d="M7.5 6H4C2.89543 6 2 6.89543 2 8V19C2 20.1046 2.89543 21 4 21H20C21.1046 21 22 20.1046 22 19V8C22 6.89543 21.1046 6 20 6H16.5M17 7.5L15.7279 3.68377C15.5918 3.27543 15.2097 3 14.7792 3H9.22076C8.79033 3 8.40819 3.27543 8.27208 3.68377L7 7.5" stroke="#141B34" stroke-width="1.5" stroke-linecap="round"/>
<path d="M9 17.5L9.76923 15.5M15 17.5L14.2308 15.5M9.76923 15.5L11.5 11H12.5L14.2308 15.5M9.76923 15.5H14.2308" stroke="#141B34" stroke-width="1.5" stroke-linecap="round" stroke-linejoin="round"/>
</svg>
