<svg width="24" height="24" viewBox="0 0 24 24" fill="none" xmlns="http://www.w3.org/2000/svg">
<path d="M3.45056 17.4144C2.59196 17.1691 2 16.3844 2 15.4914V12.4367C2 11.2449 3.07129 10.6073 3.88746 9.92711C4.60632 9.32806 5.51245 9 6.4482 9H17.5518C18.4875 9 19.3937 9.32806 20.1125 9.92711C20.9287 10.6073 22 11.2449 22 12.4367V15.4914C22 16.3844 21.408 17.1691 20.5494 17.4144C19.3713 17.7511 18.1929 18 16.9594 18H7.0406C5.80712 18 4.62875 17.7511 3.45056 17.4144Z" stroke="#141B34" stroke-width="1.5" stroke-linecap="round" stroke-linejoin="round"/>
<path d="M2 15.5V20C2 20.5523 2.44772 21 3 21H6C6.55228 21 7 20.5523 7 20V18" stroke="#141B34" stroke-width="1.5" stroke-linecap="round" stroke-linejoin="round"/>
<path d="M17 18V20C17 20.5523 17.4477 21 18 21H21C21.5523 21 22 20.5523 22 20V15.5" stroke="#141B34" stroke-width="1.5" stroke-linecap="round" stroke-linejoin="round"/>
<path d="M2.5 12L4 12.5" stroke="#141B34" stroke-width="1.5" stroke-linecap="round" stroke-linejoin="round"/>
<path d="M21.5 12L20 12.5" stroke="#141B34" stroke-width="1.5" stroke-linecap="round" stroke-linejoin="round"/>
<path d="M2.5 8.5L4.5 9" stroke="#141B34" stroke-width="1.5" stroke-linecap="round" stroke-linejoin="round"/>
<path d="M21.5 8.5L20 9" stroke="#141B34" stroke-width="1.5" stroke-linecap="round" stroke-linejoin="round"/>
<path d="M4.5 9L5.75169 4.8277C5.91015 4.2995 6.28102 3.86171 6.80676 3.69523C7.73567 3.40109 9.46675 3 12 3C14.5333 3 16.2643 3.40109 17.1932 3.69523C17.719 3.86171 18.0898 4.2995 18.2483 4.8277L19.5 9" stroke="#141B34" stroke-width="1.5" stroke-linecap="round" stroke-linejoin="round"/>
<path d="M8 18L8.77208 15.6838C8.90819 15.2754 9.29033 15 9.72076 15H14.2792C14.7097 15 15.0918 15.2754 15.2279 15.6838L16 18" stroke="#141B34" stroke-width="1.5" stroke-linecap="round" stroke-linejoin="round"/>
</svg>
