<svg width="24" height="24" viewBox="0 0 24 24" fill="none" xmlns="http://www.w3.org/2000/svg">
<path d="M2.54734 9.20203L11.394 2.46175C11.752 2.18899 12.248 2.18899 12.606 2.46175L21.4527 9.20203C21.7823 9.45318 21.9229 9.88164 21.8061 10.2793L18.5746 21.2818C18.4495 21.7076 18.0589 22 17.6151 22H6.3849C5.94115 22 5.55047 21.7076 5.42543 21.2818L2.19391 10.2793C2.07712 9.88164 2.2177 9.45318 2.54734 9.20203Z" stroke="#141B34" stroke-width="1.5" stroke-linecap="round" stroke-linejoin="round"/>
<path d="M11.9901 9.00098L16 11.4998L14.499 16.4996L9.5 16.4998L8 11.4998L11.9901 9.00098Z" stroke="#141B34" stroke-width="1.5" stroke-linecap="round" stroke-linejoin="round"/>
<path d="M2.5 9.5L8 11.5" stroke="#141B34" stroke-width="1.5" stroke-linecap="round" stroke-linejoin="round"/>
<path d="M14.5 16.5L17.5 21.5" stroke="#141B34" stroke-width="1.5" stroke-linecap="round" stroke-linejoin="round"/>
<path d="M16 11.5L21.5 9.5" stroke="#141B34" stroke-width="1.5" stroke-linecap="round" stroke-linejoin="round"/>
<path d="M6.5 21L9.5 16.5" stroke="#141B34" stroke-width="1.5" stroke-linecap="round" stroke-linejoin="round"/>
<path d="M12 9L12 3" stroke="#141B34" stroke-width="1.5" stroke-linecap="round" stroke-linejoin="round"/>
</svg>
