<svg width="24" height="24" viewBox="0 0 24 24" fill="none" xmlns="http://www.w3.org/2000/svg">
<path d="M11.9994 11C12.6171 11.0001 13.5001 10.5 13.5001 10.5L13.5859 10.5858C14.367 11.3668 15.6333 11.3668 16.4143 10.5858L17.0001 10L14.0001 7C14.0001 6 12.9994 5 11.9994 5C12.4994 3.5 11.9994 2 11.9994 2C10.9994 2 9.00012 2.7 9.00012 5.5C8.3314 5.83409 6.00062 7 6.00195 10C6.00329 12 6.50655 13.0091 8.00012 15V19L7.08551 19.9142C6.71023 20.2893 6.49938 20.7981 6.49938 21.3287V22H17.9994V21.3284C17.9994 20.798 17.7887 20.2893 17.4136 19.9142L16.4994 19V17.8574C16.4994 17.0009 16.104 16.1925 15.4279 15.6667L13.5781 14.2279C12.582 13.4531 11.9994 12.2619 11.9994 11ZM11.9994 11C11.1261 10.9998 9.99938 10 9.99938 10" stroke="#141B34" stroke-width="1.5" stroke-linecap="round" stroke-linejoin="round"/>
<path d="M8 19L16 19" stroke="#141B34" stroke-width="1.5" stroke-linecap="round"/>
</svg>
