<svg width="24" height="24" viewBox="0 0 24 24" fill="none" xmlns="http://www.w3.org/2000/svg">
<path d="M18 4H6C4.89543 4 4 4.89543 4 6V18C4 19.1046 4.89543 20 6 20H18C19.1046 20 20 19.1046 20 18V6C20 4.89543 19.1046 4 18 4Z" stroke="#141B34" stroke-width="1.5" stroke-linecap="round" stroke-linejoin="round"/>
<path d="M16 7H8C7.44772 7 7 7.44772 7 8V16C7 16.5523 7.44771 17 8 17H13.808C14.0732 17 14.3276 16.8946 14.5151 16.7071L16.7071 14.5151C16.8946 14.3276 17 14.0732 17 13.808V8C17 7.44772 16.5523 7 16 7Z" stroke="#141B34" stroke-width="1.5" stroke-linecap="round" stroke-linejoin="round"/>
<path d="M8 2V4M16 2V4M12 2V4M8 20V22M12 20V22M16 20V22M22 16H20M4 8H2M4 16H2M4 12H2M22 8H20M22 12H20" stroke="#141B34" stroke-width="1.5" stroke-linecap="round" stroke-linejoin="round"/>
</svg>
