<svg width="24" height="24" viewBox="0 0 24 24" fill="none" xmlns="http://www.w3.org/2000/svg">
<path d="M21 2.99951L13 11.4995" stroke="#141B34" stroke-width="1.5" stroke-linecap="round" stroke-linejoin="round"/>
<path d="M11.5 10.4995C9 11.9995 6 11.9995 3 11.0885C3.50059 17.531 6.50414 20.0089 10.5089 21C10.5089 21 14 17.9995 14 12.9995L11.5 10.4995Z" stroke="#141B34" stroke-width="1.5" stroke-linecap="round" stroke-linejoin="round"/>
<path d="M4.5 16.4459C4.5 16.4459 7.5 16.9995 10 14.4995" stroke="#141B34" stroke-width="1.5" stroke-linecap="round" stroke-linejoin="round"/>
<path d="M8.5 7.24951C8.5 7.93987 7.94036 8.49951 7.25 8.49951C6.55964 8.49951 6 7.93987 6 7.24951C6 6.55916 6.55964 5.99951 7.25 5.99951C7.94036 5.99951 8.5 6.55916 8.5 7.24951Z" stroke="#141B34" stroke-width="1.5" stroke-linecap="round" stroke-linejoin="round"/>
<path d="M11 3.99951V4.09951" stroke="#141B34" stroke-width="2" stroke-linecap="round" stroke-linejoin="round"/>
</svg>
