<svg width="24" height="24" viewBox="0 0 24 24" fill="none" xmlns="http://www.w3.org/2000/svg">
<path d="M14.5563 13.2183C13.514 14.2606 11.8241 14.2606 10.7817 13.2183C9.73942 12.1759 9.73942 10.486 10.7817 9.44364L13.1409 7.0845C14.1357 6.08961 15.7206 6.04433 16.7692 6.94866M16.4437 3.78175C17.486 2.73942 19.1759 2.73942 20.2183 3.78175C21.2606 4.82408 21.2606 6.51403 20.2183 7.55636L17.8591 9.9155C16.8643 10.9104 15.2794 10.9557 14.2308 10.0513" stroke="#141B34" stroke-width="1.5" stroke-linecap="round" stroke-linejoin="round"/>
<path d="M10.5 3H5.00016C3.89559 3 3.00017 3.89542 3.00016 4.99998L3.00002 19C3.00001 20.1046 3.89544 21 5.00002 21H19C20.1046 21 21 20.1046 21 19V13.5" stroke="#141B34" stroke-width="1.5" stroke-linecap="round" stroke-linejoin="round"/>
</svg>
