<svg width="24" height="24" viewBox="0 0 24 24" fill="none" xmlns="http://www.w3.org/2000/svg">
<path d="M11.9264 15.0667C11.6335 15.3596 11.6335 15.8345 11.9264 16.1274C12.2193 16.4203 12.6941 16.4203 12.987 16.1274L11.9264 15.0667ZM14.0842 15.0302C14.3771 14.7373 14.3771 14.2625 14.0842 13.9696C13.7913 13.6767 13.3164 13.6767 13.0235 13.9696L14.0842 15.0302ZM14.9696 12.0235C14.6767 12.3164 14.6767 12.7913 14.9696 13.0842C15.2625 13.3771 15.7373 13.3771 16.0302 13.0842L14.9696 12.0235ZM18.0299 11.0845C18.3228 10.7916 18.3228 10.3168 18.0299 10.0239C17.737 9.73098 17.2621 9.73098 16.9692 10.0239L18.0299 11.0845ZM4.46967 15.8818C4.17678 16.1747 4.17678 16.6496 4.46967 16.9424C4.76257 17.2353 5.23744 17.2353 5.53033 16.9424L4.46967 15.8818ZM17.0302 5.44244C17.3231 5.14954 17.3231 4.67467 17.0302 4.38178C16.7373 4.08888 16.2625 4.08889 15.9696 4.38178L17.0302 5.44244ZM12.987 16.1274L14.0842 15.0302L13.0235 13.9696L11.9264 15.0667L12.987 16.1274ZM16.0302 13.0842L18.0299 11.0845L16.9692 10.0239L14.9696 12.0235L16.0302 13.0842ZM5.53033 16.9424L17.0302 5.44244L15.9696 4.38178L4.46967 15.8818L5.53033 16.9424Z" fill="#141B34"/>
<path d="M14.8691 3.07483L20.9252 9.13095C21.6916 9.89739 21.6916 11.14 20.9252 11.9065L11.9065 20.9252C11.14 21.6916 9.89739 21.6916 9.13095 20.9252L3.07483 14.8691C2.30839 14.1026 2.30839 12.86 3.07483 12.0935L12.0935 3.07483C12.86 2.30839 14.1026 2.30839 14.8691 3.07483Z" stroke="#141B34" stroke-width="1.5" stroke-linejoin="round"/>
<path d="M3.5 21.5H19.5" stroke="#141B34" stroke-width="1.5" stroke-linecap="round" stroke-linejoin="round"/>
</svg>
