<svg width="24" height="24" viewBox="0 0 24 24" fill="none" xmlns="http://www.w3.org/2000/svg">
<path d="M11 2H3C2.44772 2 2 2.44772 2 3V7C2 7.55228 2.44772 8 3 8H11C11.5523 8 12 7.55228 12 7V3C12 2.44772 11.5523 2 11 2Z" stroke="#141B34" stroke-width="1.5" stroke-linejoin="round"/>
<path d="M21 2H17C16.4477 2 16 2.44772 16 3V11C16 11.5523 16.4477 12 17 12H21C21.5523 12 22 11.5523 22 11V3C22 2.44772 21.5523 2 21 2Z" stroke="#141B34" stroke-width="1.5" stroke-linejoin="round"/>
<path d="M21 16H17C16.4477 16 16 16.4477 16 17V21C16 21.5523 16.4477 22 17 22H21C21.5523 22 22 21.5523 22 21V17C22 16.4477 21.5523 16 21 16Z" stroke="#141B34" stroke-width="1.5" stroke-linejoin="round"/>
<path d="M11 12H3C2.44772 12 2 12.4477 2 13V21C2 21.5523 2.44772 22 3 22H11C11.5523 22 12 21.5523 12 21V13C12 12.4477 11.5523 12 11 12Z" stroke="#141B34" stroke-width="1.5" stroke-linejoin="round"/>
</svg>
