<svg width="24" height="24" viewBox="0 0 24 24" fill="none" xmlns="http://www.w3.org/2000/svg">
<path d="M14 7.5V10H16.5L22 4.5L19.5 2L14 7.5Z" stroke="#141B34" stroke-width="1.5" stroke-linejoin="round"/>
<path d="M9 2H3C2.44772 2 2 2.44772 2 3V9C2 9.55229 2.44772 10 3 10H9C9.55229 10 10 9.55229 10 9V3C10 2.44772 9.55229 2 9 2Z" stroke="#141B34" stroke-width="1.5" stroke-linejoin="round"/>
<path d="M9 14H3C2.44772 14 2 14.4477 2 15V21C2 21.5523 2.44772 22 3 22H9C9.55229 22 10 21.5523 10 21V15C10 14.4477 9.55229 14 9 14Z" stroke="#141B34" stroke-width="1.5" stroke-linejoin="round"/>
<path d="M21 14H15C14.4477 14 14 14.4477 14 15V21C14 21.5523 14.4477 22 15 22H21C21.5523 22 22 21.5523 22 21V15C22 14.4477 21.5523 14 21 14Z" stroke="#141B34" stroke-width="1.5" stroke-linejoin="round"/>
</svg>
