<svg width="24" height="24" viewBox="0 0 24 24" fill="none" xmlns="http://www.w3.org/2000/svg">
<path d="M11.0119 14.9848C6.58816 14.9848 3.00203 13.6433 3.00203 11.9885" stroke="#141B34" stroke-width="1.5" stroke-linecap="round" stroke-linejoin="round"/>
<path d="M19.0217 4.99731L19.002 11.0011M3.00203 4.99731V18.9797C3.00203 20.6345 6.58816 21.976 11.0119 21.976C11.18 21.976 11.3469 21.9741 11.5125 21.9702" stroke="#141B34" stroke-width="1.5" stroke-linecap="round" stroke-linejoin="round"/>
<path d="M11.0119 7.99368C15.4356 7.99368 19.0217 6.65223 19.0217 4.99745C19.0217 3.34268 15.4356 2.00122 11.0119 2.00122C6.58816 2.00122 3.00203 3.34268 3.00203 4.99745C3.00203 6.65223 6.58816 7.99368 11.0119 7.99368Z" stroke="#141B34" stroke-width="1.5"/>
<path d="M7.00789 7.99341L7.00203 10.0012" stroke="#141B34" stroke-width="1.5" stroke-linecap="round" stroke-linejoin="round"/>
<path d="M7.00789 14.9846L7.00203 17.0012" stroke="#141B34" stroke-width="1.5" stroke-linecap="round" stroke-linejoin="round"/>
<path d="M17.002 16.5012V19.5012M15.502 18.0012H18.502M20.998 17.9819C20.998 20.2003 19.2063 21.9987 16.9961 21.9987C14.7859 21.9987 12.9942 20.2003 12.9942 17.9819C12.9942 15.7635 14.7859 13.9651 16.9961 13.9651C19.2063 13.9651 20.998 15.7635 20.998 17.9819Z" stroke="#141B34" stroke-width="1.5" stroke-linecap="round" stroke-linejoin="round"/>
</svg>
