<svg width="24" height="24" viewBox="0 0 24 24" fill="none" xmlns="http://www.w3.org/2000/svg">
<path d="M2 8V20C2 21.1046 2.89543 22 4 22H12M22 8V9.5" stroke="#141B34" stroke-width="1.5" stroke-linecap="round" stroke-linejoin="round"/>
<path d="M4.44721 3.10557L2 8H22L19.5528 3.10558C19.214 2.42801 18.5215 2 17.7639 2L6.23607 2C5.47852 2 4.786 2.428 4.44721 3.10557Z" stroke="#141B34" stroke-width="1.5" stroke-linejoin="round"/>
<path d="M12 8V2" stroke="#141B34" stroke-width="1.5"/>
<path d="M18 12C15.7909 12 14 13.8089 14 16.0403C14 17.3163 14.5 18.3083 15.5 19.1945C16.2049 19.8191 17.4873 21.159 18 22C18.5386 21.1757 19.7951 19.8191 20.5 19.1945C21.5 18.3083 22 17.3163 22 16.0403C22 13.8089 20.2091 12 18 12Z" stroke="#141B34" stroke-width="1.5" stroke-linejoin="round"/>
<path d="M18 16H18.009" stroke="#141B34" stroke-width="2" stroke-linecap="round" stroke-linejoin="round"/>
<path d="M9.5 12L12 12" stroke="#141B34" stroke-width="1.5" stroke-linecap="round" stroke-linejoin="round"/>
</svg>
