<svg width="24" height="24" viewBox="0 0 24 24" fill="none" xmlns="http://www.w3.org/2000/svg">
<path d="M21.5 4.5C21.5 3.39543 20.6046 2.5 19.5 2.5H4.5C3.39543 2.5 2.5 3.39543 2.5 4.5V19.5C2.5 20.6046 3.39543 21.5 4.5 21.5H19.5C20.6046 21.5 21.5 20.6046 21.5 19.5V4.5Z" stroke="#141B34" stroke-width="1.5" stroke-linejoin="round"/>
<path d="M9.17759 10.4549L7.63073 15.1043C7.3707 15.8858 8.11409 16.629 8.89556 16.3687L13.5564 14.8165C14.1543 14.6174 14.6233 14.1482 14.8222 13.5502L16.3698 8.89718C16.6298 8.11536 15.8858 7.37216 15.1043 7.63303L10.4421 9.1892C9.84486 9.38855 9.37636 9.85749 9.17759 10.4549Z" stroke="#141B34" stroke-width="1.5" stroke-linejoin="round"/>
<path d="M11.9986 12L11.9922 12.0001" stroke="#141B34" stroke-width="2" stroke-linecap="round" stroke-linejoin="round"/>
</svg>
