<svg width="24" height="24" viewBox="0 0 24 24" fill="none" xmlns="http://www.w3.org/2000/svg">
<path d="M14.8038 8.5C15.8202 7.88755 16.5 6.77316 16.5 5.5C16.5 3.567 14.933 2 13 2C11.067 2 9.5 3.567 9.5 5.5C9.5 6.77316 10.1798 7.88755 11.1962 8.5" stroke="#141B34" stroke-width="1.5" stroke-linecap="round" stroke-linejoin="round"/>
<path d="M18.9986 22V20L20.2202 18.1688C20.7287 17.4067 21 16.5112 21 15.5953C21 14.875 20.8393 14.1508 20.3401 13.6312C19.4889 12.7453 17.7191 11.5 14.4954 11.5V6.50106C14.4954 5.67205 13.8234 5 12.9944 5C12.1654 5 11.4933 5.67205 11.4933 6.50106V15L9.77579 13.2837C9.09052 12.5989 7.96172 12.6614 7.35632 13.4176C6.85711 14.0412 6.88532 14.9348 7.42287 15.5257L11.4933 20V22" stroke="#141B34" stroke-width="1.5" stroke-linecap="round" stroke-linejoin="round"/>
<path d="M9.5 5.5H4M5.5 3L3 5.5L5.5 8" stroke="#141B34" stroke-width="1.5" stroke-linecap="round" stroke-linejoin="round"/>
</svg>
