<svg width="24" height="24" viewBox="0 0 24 24" fill="none" xmlns="http://www.w3.org/2000/svg">
<path d="M13.9608 21.8828L15.451 20.4713C15.451 20.4713 19.0346 19.1309 20.1417 18.1258C21.0076 17.3397 21.0909 16.1027 20.6658 15.0411C20.083 13.5854 19.4249 12.3343 17.438 10.9228L20.6256 7.34371C21.1627 6.74067 21.1165 5.8166 20.5219 5.27052C19.9178 4.71577 18.9785 4.7619 18.4314 5.37321L12.5728 11.9191V9.12543C12.5152 8.36039 11.8432 7.76759 11.0334 7.76759C10.1811 7.76759 9.49021 8.42204 9.49021 9.22935V15.7662L8 17.1777" stroke="#141B34" stroke-width="1.5" stroke-linecap="round" stroke-linejoin="round"/>
<path d="M10 3.4089C10 4.25173 10.688 4.88281 11.5 4.88281C12.312 4.88281 13 4.22564 13 3.38281C13 2.53998 12.312 1.88281 11.5 1.88281C10.688 1.88281 10 2.56607 10 3.4089ZM10 3.4089H9.40881L8.63008 3.48174M4.50739 8.88161C5.35319 8.86775 5.99712 9.52852 6.01051 10.3466C6.02391 11.1648 5.3945 11.8688 4.5487 11.8826C3.70291 11.8965 3.0136 11.2061 3.0002 10.388C2.98681 9.5699 3.6616 8.89547 4.50739 8.88161ZM4.50739 8.88161L4.59798 7.53766M6.31108 4.55506L5.97983 4.86448L5.68712 5.17977" stroke="#141B34" stroke-width="1.51211" stroke-linecap="round" stroke-linejoin="round"/>
</svg>
