<svg width="24" height="24" viewBox="0 0 24 24" fill="none" xmlns="http://www.w3.org/2000/svg">
<path d="M7.5 13.8529C7.5 13.8529 8.45872 12.5594 9.08824 12.2647C10.9887 11.3752 11.3752 10.9887 12.2647 9.08824C12.5594 8.45872 13.8529 7.5 13.8529 7.5M10.1471 16.5C10.1471 16.5 11.4406 15.5413 11.7353 14.9118C12.6248 13.0113 13.0113 12.6248 14.9118 11.7353C15.5413 11.4406 16.5 10.1471 16.5 10.1471" stroke="#141B34" stroke-width="1.5" stroke-linejoin="round"/>
<path d="M3.90334 17.5L3.03779 18.3656C2.32074 19.0826 2.32074 20.2452 3.03779 20.9622C3.75483 21.6793 4.9174 21.6793 5.63445 20.9622L6.5 20.0967" stroke="#141B34" stroke-width="1.5" stroke-linejoin="round"/>
<path d="M17.5 3.90334L18.3656 3.03779C19.0826 2.32074 20.2452 2.32074 20.9622 3.03779C21.6793 3.75483 21.6793 4.9174 20.9622 5.63445L20.0967 6.5" stroke="#141B34" stroke-width="1.5" stroke-linejoin="round"/>
<path d="M12.7071 6.20711L17.7929 11.2929C18.1834 11.6834 18.8166 11.6834 19.2071 11.2929L21.2929 9.20711C21.6834 8.81658 21.6834 8.18342 21.2929 7.79289L16.2071 2.70711C15.8166 2.31658 15.1834 2.31658 14.7929 2.70711L12.7071 4.79289C12.3166 5.18342 12.3166 5.81658 12.7071 6.20711Z" stroke="#141B34" stroke-width="1.5" stroke-linejoin="round"/>
<path d="M2.70711 16.2071L7.79289 21.2929C8.18342 21.6834 8.81658 21.6834 9.20711 21.2929L11.2929 19.2071C11.6834 18.8166 11.6834 18.1834 11.2929 17.7929L6.20711 12.7071C5.81658 12.3166 5.18342 12.3166 4.79289 12.7071L2.70711 14.7929C2.31658 15.1834 2.31658 15.8166 2.70711 16.2071Z" stroke="#141B34" stroke-width="1.5" stroke-linejoin="round"/>
</svg>
