<svg width="24" height="24" viewBox="0 0 24 24" fill="none" xmlns="http://www.w3.org/2000/svg">
<path d="M19 13V9L12 2H5C3.89543 2 3 2.89543 3 4V20C3 21.1046 3.89543 22 5 22H9" stroke="#141B34" stroke-width="1.5" stroke-linecap="round" stroke-linejoin="round"/>
<path d="M12 2V7C12 8.10457 12.8954 9 14 9H19" stroke="#141B34" stroke-width="1.5" stroke-linejoin="round"/>
<path d="M16 22C18.7614 22 21 19 21 19C21 19 18.7614 16 16 16C13.2386 16 11 19 11 19C11 19 13.2386 22 16 22Z" stroke="#141B34" stroke-width="1.5" stroke-linejoin="round"/>
<path d="M15.9922 19H16.0012" stroke="#141B34" stroke-width="2" stroke-linecap="round" stroke-linejoin="round"/>
</svg>
