<svg width="24" height="24" viewBox="0 0 24 24" fill="none" xmlns="http://www.w3.org/2000/svg">
<path d="M20 13V9L13 2H6C4.89543 2 4 2.89543 4 4V20C4 21.1046 4.89543 22 6 22H10" stroke="#141B34" stroke-width="1.5" stroke-linecap="round" stroke-linejoin="round"/>
<path d="M13 2V7C13 8.10457 13.8954 9 15 9H20" stroke="#141B34" stroke-width="1.5" stroke-linejoin="round"/>
<path d="M15.5088 14.8215C15.6913 14.3928 16.3087 14.3928 16.4912 14.8215L17.3329 16.7988L19.509 16.9692C19.9822 17.0063 20.1733 17.5879 19.8118 17.8905L18.1566 19.2758L18.6635 21.3521C18.7741 21.8049 18.2743 22.1639 17.8696 21.9224L16 20.8067L14.1304 21.9224C13.7257 22.1639 13.2259 21.8049 13.3365 21.3521L13.8434 19.2758L12.1882 17.8905C11.8267 17.5879 12.0178 17.0063 12.491 16.9692L14.6671 16.7988L15.5088 14.8215Z" stroke="#141B34" stroke-width="1.5" stroke-linecap="round" stroke-linejoin="round"/>
</svg>
