<svg width="24" height="24" viewBox="0 0 24 24" fill="none" xmlns="http://www.w3.org/2000/svg">
<path d="M7.47095 17.263L12 20.9742C11.7627 21.4189 11.2389 21.7693 10.7178 21.9214C10.4486 22 10.1597 22 9.58202 22H6.64577C5.12431 22 3.69593 21.514 3.15891 19.9348C2.65447 18.4514 3.35188 15.9891 5.23816 16C5.93452 16.0041 6.44666 16.4237 7.47095 17.263Z" stroke="#141B34" stroke-width="1.5" stroke-linecap="round" stroke-linejoin="round"/>
<path d="M12 20.9994L16.75 10.2494M16.75 10.2494C17.1831 10.3937 17.6571 10.2045 17.8717 9.80164L20.8244 4.25874C21.2487 3.41904 20.8554 2.37831 19.9999 2.07737C19.2266 1.80535 18.3923 2.25599 18.1492 3.07702L16.2344 9.24437C16.1042 9.66386 16.3333 10.1105 16.75 10.2494Z" stroke="#141B34" stroke-width="1.5" stroke-linecap="round" stroke-linejoin="round"/>
</svg>
