<svg width="24" height="24" viewBox="0 0 24 24" fill="none" xmlns="http://www.w3.org/2000/svg">
<path d="M19 22H5C3.89543 22 3 21.1046 3 20L3 4C3 2.89543 3.89543 2 5 2H12L19 9V11M18.5 9H13.998C12.8935 9 11.998 8.10457 11.998 7V2.5" stroke="#141B34" stroke-width="1.5" stroke-linecap="round" stroke-linejoin="round"/>
<path d="M18 17V14H19.5C20.3284 14 21 14.6716 21 15.5C21 16.3284 20.3284 17 19.5 17M18 17V19M18 17H19.5M19.5 17L21 19" stroke="#141B34" stroke-width="1.5" stroke-linecap="round" stroke-linejoin="round"/>
<path d="M12.5 19V14H13.5C14.6046 14 15.5 14.8954 15.5 16V17C15.5 18.1046 14.6046 19 13.5 19H12.5Z" stroke="#141B34" stroke-width="1.5" stroke-linecap="round" stroke-linejoin="round"/>
<path d="M7 14V16.5M7 19V16.5M7 16.5H10M10 16.5V19M10 16.5V14" stroke="#141B34" stroke-width="1.5" stroke-linecap="round" stroke-linejoin="round"/>
</svg>
