<svg width="24" height="24" viewBox="0 0 24 24" fill="none" xmlns="http://www.w3.org/2000/svg">
<path d="M14.4971 5.44808V4C14.4971 3.17157 13.8255 2.5 12.9971 2.5C12.1687 2.5 11.4971 3.17157 11.4971 4V5M14.4971 5.44808V12.3546M14.4971 5.44808C14.5245 4.64369 15.1854 4 15.9964 4C16.8251 4 17.4971 4.67177 17.4971 5.50044V13M14.4971 5.44808C14.4965 5.46531 14.4962 5.48262 14.4962 5.5M11.4971 5V11.4211M11.4971 5C11.4971 4.17157 10.8255 3.5 9.9971 3.5C9.16867 3.5 8.4971 4.17157 8.4971 5V14L6.18939 11.8369C5.39089 11.238 4.24962 11.4616 3.73609 12.3174C3.4057 12.8681 3.4174 13.5587 3.76626 14.0979L7.90636 20.5769C8.27384 21.152 8.9092 21.5 9.59167 21.5H17.4971C19.154 21.5 20.4971 20.1569 20.4971 18.5V8C20.4971 7.17157 19.8255 6.5 18.9971 6.5C18.1687 6.5 17.4971 7.17157 17.4971 8" stroke="#141B34" stroke-width="1.5" stroke-linecap="round" stroke-linejoin="round"/>
</svg>
