<svg width="24" height="24" viewBox="0 0 24 24" fill="none" xmlns="http://www.w3.org/2000/svg">
<path d="M3 10L5.4805 4.21216C5.79566 3.47679 6.51874 3 7.31879 3H16.6812C17.4813 3 18.2043 3.47679 18.5195 4.21216L21 10" stroke="#141B34" stroke-width="1.5" stroke-linecap="round" stroke-linejoin="round"/>
<path d="M3 10V21M21 10V21" stroke="#141B34" stroke-width="1.5" stroke-linecap="round" stroke-linejoin="round"/>
<path d="M2 21H22" stroke="#141B34" stroke-width="1.5" stroke-linecap="round" stroke-linejoin="round"/>
<path d="M12.009 11.55H12" stroke="#141B34" stroke-width="2" stroke-linecap="round" stroke-linejoin="round"/>
<path d="M9.5 21V16C9.5 15.4477 9.94772 15 10.5 15H13.5C14.0523 15 14.5 15.4477 14.5 16V21" stroke="#141B34" stroke-width="1.5" stroke-linecap="round" stroke-linejoin="round"/>
<path d="M2 9.99758H8.12971C8.36864 9.99758 8.59968 9.91203 8.78099 9.75641L11.3439 7.55679C11.7174 7.23619 12.2687 7.23513 12.6435 7.55428L15.2205 9.74878C15.4009 9.90247 15.6301 9.98705 15.8672 9.98744L21.9999 9.99758" stroke="#141B34" stroke-width="1.5" stroke-linecap="round" stroke-linejoin="round"/>
</svg>
