<svg width="24" height="24" viewBox="0 0 24 24" fill="none" xmlns="http://www.w3.org/2000/svg">
<path d="M16.4689 9.04176C16.3199 9.01423 16.1664 8.99984 16.0094 8.99984C15.1895 8.99984 14.4616 9.39251 14.0043 9.99958M16.4689 9.04176C18.2733 9.37521 19.0986 11.5609 18.0145 13H5.98388C4.78562 11.4092 5.94796 8.99984 7.98899 8.99984M16.4689 9.04176C17.0621 5.23504 13.5 6.5 12.5 4.5C12 3.5 13.0018 2 13.0018 2C10.4742 2 8.72685 3.55661 9.07139 5.17479M9.07139 5.17479C9.20516 5.80304 9.65423 6.44057 10.4954 6.99989M9.07139 5.17479C6.81821 6.06511 7.09942 9.46523 9.49282 9.94981" stroke="#141B34" stroke-width="1.5" stroke-linecap="round" stroke-linejoin="round"/>
<path d="M7.65197 20.4339L6 13H18L16.348 20.4339C16.1447 21.3489 15.3331 22 14.3957 22H9.60434C8.66695 22 7.85532 21.3489 7.65197 20.4339Z" stroke="#141B34" stroke-width="1.5" stroke-linecap="round" stroke-linejoin="round"/>
</svg>
