<svg width="24" height="24" viewBox="0 0 24 24" fill="none" xmlns="http://www.w3.org/2000/svg">
<path d="M8.5 18C10.3135 16.0463 13.667 15.9543 15.5 18M13.9406 12C13.9406 13.1046 13.0688 14 11.9934 14C10.918 14 10.0462 13.1046 10.0462 12C10.0462 10.8954 10.918 10 11.9934 10C13.0688 10 13.9406 10.8954 13.9406 12Z" stroke="#141B34" stroke-width="1.5" stroke-linecap="round" stroke-linejoin="round"/>
<path d="M14 4H18.5C19.6046 4 20.5 4.89543 20.5 6L20.5 20C20.5 21.1046 19.6046 22 18.5 22H5.5C4.39543 22 3.5 21.1046 3.5 20L3.5 6C3.5 4.89543 4.39543 4 5.5 4H10" stroke="#141B34" stroke-width="1.5" stroke-linejoin="round"/>
<path d="M14.4297 5.43798L14.2481 3.98456C14.1064 2.8508 13.1426 2 12 2C10.8574 2 9.89365 2.8508 9.75193 3.98456L9.57025 5.43798C9.53295 5.73641 9.76564 6 10.0664 6H13.9336C14.2344 6 14.4671 5.73641 14.4297 5.43798Z" stroke="#141B34" stroke-width="1.5" stroke-linecap="round" stroke-linejoin="round"/>
</svg>
