<svg width="24" height="24" viewBox="0 0 24 24" fill="none" xmlns="http://www.w3.org/2000/svg">
<path d="M12 3H4C2.89543 3 2 3.89543 2 5V20C2 21.1046 2.89543 22 4 22H19C20.1046 22 21 21.1046 21 20V12" stroke="#141B34" stroke-width="1.5" stroke-linecap="round" stroke-linejoin="round"/>
<path d="M2 14H8V14.5C8 16.433 9.567 18 11.5 18C13.433 18 15 16.433 15 14.5V14H21" stroke="#141B34" stroke-width="1.5" stroke-linecap="round" stroke-linejoin="round"/>
<path d="M22 5.5C22 7.433 20.433 9 18.5 9C16.567 9 15 7.433 15 5.5C15 3.567 16.567 2 18.5 2C20.433 2 22 3.567 22 5.5Z" stroke="#141B34" stroke-width="1.5"/>
</svg>
