<svg width="24" height="24" viewBox="0 0 24 24" fill="none" xmlns="http://www.w3.org/2000/svg">
<path d="M6.17481 10.3205C4.96738 10.7267 4.22049 11.288 4.22049 11.9081C4.22049 12.7535 5.60897 13.4897 7.66011 13.8724M7.66011 13.8724C6.89833 14.2566 6.44271 14.7441 6.44271 15.2746C6.44271 17.9619 14 17.4635 14 17.4635M7.66011 13.8724C8.61629 14.0508 9.71648 14.1524 10.8872 14.1524C12.5946 14.1524 14.1521 13.9363 15.3316 13.5809M16.5 9.98839C15.0883 10.4041 13.0635 10.7859 10.8872 10.7859C6.5916 10.7859 3 9.73288 3 8.49337C3 7.53626 5.07626 6.82268 8 6.5" stroke="#141B34" stroke-width="1.5" stroke-linecap="round" stroke-linejoin="round"/>
<path d="M22 19.0699C21.5 20 17.5228 22 12 22C6.47715 22 2 20.6882 2 19.0699C2 17.9195 3.70729 16.9795 7 16.5" stroke="#141B34" stroke-width="1.5" stroke-linecap="round" stroke-linejoin="round"/>
<path d="M18.5 9C21 9 22 10 22 12C22.0108 13.5 20.4465 15.4296 17.5 16.5" stroke="#141B34" stroke-width="1.5" stroke-linecap="round" stroke-linejoin="round"/>
<path d="M17.5 2C16.7592 2.12346 15.4246 2.81481 15.7802 4.59259C16.1358 6.37037 15.9443 6.94444 15.5 7.5" stroke="#141B34" stroke-width="1.5" stroke-linecap="round" stroke-linejoin="round"/>
<path d="M13 2C12.2592 2.14815 10.9793 2.97778 11.3349 5.11111C11.6905 7.24444 11 8 11 8" stroke="#141B34" stroke-width="1.5" stroke-linecap="round" stroke-linejoin="round"/>
</svg>
