<svg width="24" height="24" viewBox="0 0 24 24" fill="none" xmlns="http://www.w3.org/2000/svg">
<path d="M17.2764 20.5528C17.6088 21.2177 17.1253 22 16.382 22H7.61803C6.87465 22 6.39116 21.2177 6.72361 20.5528L7.44721 19.1056C7.786 18.428 8.47852 18 9.23607 18H14.7639C15.5215 18 16.214 18.428 16.5528 19.1056L17.2764 20.5528Z" stroke="#141B34" stroke-width="1.5" stroke-linecap="round" stroke-linejoin="round"/>
<path d="M8.5 12H15.5" stroke="#141B34" stroke-width="1.5" stroke-linecap="round" stroke-linejoin="round"/>
<path d="M12.75 12C12.75 11.5858 12.4142 11.25 12 11.25C11.5858 11.25 11.25 11.5858 11.25 12L12.75 12ZM11.25 12L11.25 18L12.75 18L12.75 12L11.25 12Z" fill="#141B34"/>
<path d="M14 12C14 10.4 13.3333 9.33333 13 9L14 7.5L13 6L14 4.5C13.6667 3.66667 13 2 11 2C9.5 2 9 3 9 3C9.5 4 11 7 10 12" stroke="#141B34" stroke-width="1.5" stroke-linecap="round" stroke-linejoin="round"/>
</svg>
