<svg width="24" height="24" viewBox="0 0 24 24" fill="none" xmlns="http://www.w3.org/2000/svg">
<path d="M9.74394 8.89464L10.2005 9.86398C10.3802 10.2456 10.3011 10.6989 10.0029 10.9971L2.79287 18.2077C2.60535 18.3953 2.5 18.6496 2.5 18.9148V21.5006H5.5V19.5006H7.5V17.5006H9.5L13.0029 13.9972C13.3011 13.6989 13.7545 13.6198 14.1361 13.7996L15.1054 14.2561C16.2389 14.7419 17.554 14.4886 18.426 13.6166L20.6356 11.407C21.4719 10.5707 21.7679 9.30896 21.2264 8.25748C19.9652 5.80827 18.1917 4.03475 15.7425 2.77356C14.691 2.23212 13.4293 2.52814 12.593 3.36443L10.3834 5.57398C9.51141 6.44601 9.25815 7.76111 9.74394 8.89464Z" stroke="#141B34" stroke-width="1.5" stroke-linecap="round" stroke-linejoin="round"/>
<path d="M17 7L16 8" stroke="#141B34" stroke-width="1.5" stroke-linecap="round" stroke-linejoin="round"/>
</svg>
