<svg width="24" height="24" viewBox="0 0 24 24" fill="none" xmlns="http://www.w3.org/2000/svg">
<path d="M12.3966 16.8023C13.4956 16.2182 16.5 14.3598 16.5 11.5C16.5 9.01472 14.4853 7 12 7C9.51472 7 7.5 9.01472 7.5 11.5C7.5 14.3598 10.5044 16.2182 11.6034 16.8023C11.8533 16.9351 12.1467 16.9351 12.3966 16.8023Z" stroke="#141B34" stroke-width="1.5" stroke-linejoin="round"/>
<path d="M12 11.5H12.009" stroke="#141B34" stroke-width="2" stroke-linecap="round" stroke-linejoin="round"/>
<path d="M20 11.5L22 12C22 6.47715 17.5228 2 12 2C7.89936 2 4.3752 4.46819 2.83209 8M4 12.5L2 12C2 17.5228 6.47715 22 12 22C16.1006 22 19.6248 19.5318 21.1679 16" stroke="#141B34" stroke-width="1.5" stroke-linecap="round" stroke-linejoin="round"/>
</svg>
