<svg width="24" height="24" viewBox="0 0 24 24" fill="none" xmlns="http://www.w3.org/2000/svg">
<path d="M5 12V4C5 2.89543 5.89543 2 7 2H17C18.1046 2 19 2.89543 19 4V12" stroke="#141B34" stroke-width="1.5"/>
<path d="M9.5 10H14.5M9.5 6H14.5" stroke="#141B34" stroke-width="1.5" stroke-linecap="round" stroke-linejoin="round"/>
<path d="M19 7L21.7071 9.70711C21.8946 9.89464 22 10.149 22 10.4142V20C22 21.1046 21.1046 22 20 22H4C2.89543 22 2 21.1046 2 20V10.4142C2 10.149 2.10536 9.89464 2.29289 9.70711L5 7" stroke="#141B34" stroke-width="1.5" stroke-linejoin="round"/>
<path d="M22 10L12.8944 14.5528C12.3314 14.8343 11.6686 14.8343 11.1056 14.5528L2 10" stroke="#141B34" stroke-width="1.5" stroke-linejoin="round"/>
</svg>
