<svg width="24" height="24" viewBox="0 0 24 24" fill="none" xmlns="http://www.w3.org/2000/svg">
<path d="M11 19H4C2.89543 19 2 18.1046 2 17V5C2 3.89543 2.89543 3 4 3H20C21.1046 3 22 3.89543 22 5V9.5" stroke="#141B34" stroke-width="1.5" stroke-linecap="round" stroke-linejoin="round"/>
<path d="M22.0032 21V21.75C22.4175 21.75 22.7532 21.4142 22.7532 21H22.0032ZM15 21H14.25C14.25 21.4142 14.5858 21.75 15 21.75V21ZM22.0032 20.25H15V21.75H22.0032V20.25ZM15.75 21C15.75 19.4815 16.9816 18.25 18.5016 18.25V16.75C16.1538 16.75 14.25 18.6525 14.25 21H15.75ZM18.5016 18.25C20.0216 18.25 21.2532 19.4815 21.2532 21H22.7532C22.7532 18.6525 20.8494 16.75 18.5016 16.75V18.25ZM19.5016 13.75C19.5016 14.302 19.0539 14.75 18.5008 14.75V16.25C19.8816 16.25 21.0016 15.131 21.0016 13.75H19.5016ZM18.5008 14.75C17.9477 14.75 17.5 14.302 17.5 13.75H16C16 15.131 17.12 16.25 18.5008 16.25V14.75ZM17.5 13.75C17.5 13.198 17.9477 12.75 18.5008 12.75V11.25C17.12 11.25 16 12.369 16 13.75H17.5ZM18.5008 12.75C19.0539 12.75 19.5016 13.198 19.5016 13.75H21.0016C21.0016 12.369 19.8816 11.25 18.5008 11.25V12.75Z" fill="#141B34"/>
<path d="M6 7L10.9923 9.91215C11.615 10.2754 12.385 10.2754 13.0077 9.91215L18 7" stroke="#141B34" stroke-width="1.5" stroke-linecap="round" stroke-linejoin="round"/>
</svg>
