<svg width="24" height="24" viewBox="0 0 24 24" fill="none" xmlns="http://www.w3.org/2000/svg">
<path d="M13 6H11C10.4477 6 10 6.44772 10 7V17C10 17.5523 10.4477 18 11 18H13C13.5523 18 14 17.5523 14 17V7C14 6.44772 13.5523 6 13 6Z" stroke="#141B34" stroke-width="1.5" stroke-linecap="round" stroke-linejoin="round"/>
<path d="M20 5H18C17.4477 5 17 5.44772 17 6V10C17 10.5523 17.4477 11 18 11H20C20.5523 11 21 10.5523 21 10V6C21 5.44772 20.5523 5 20 5Z" stroke="#141B34" stroke-width="1.5" stroke-linecap="round" stroke-linejoin="round"/>
<path d="M6 10H4C3.44772 10 3 10.4477 3 11V15C3 15.5523 3.44772 16 4 16H6C6.55228 16 7 15.5523 7 15V11C7 10.4477 6.55228 10 6 10Z" stroke="#141B34" stroke-width="1.5" stroke-linecap="round" stroke-linejoin="round"/>
<path d="M12 21L12 18" stroke="#141B34" stroke-width="1.5" stroke-linecap="round" stroke-linejoin="round"/>
<path d="M19 13L19 11" stroke="#141B34" stroke-width="1.5" stroke-linecap="round" stroke-linejoin="round"/>
<path d="M12 6L12 3" stroke="#141B34" stroke-width="1.5" stroke-linecap="round" stroke-linejoin="round"/>
<path d="M19 5L19 3" stroke="#141B34" stroke-width="1.5" stroke-linecap="round" stroke-linejoin="round"/>
<path d="M5 18L5 16" stroke="#141B34" stroke-width="1.5" stroke-linecap="round" stroke-linejoin="round"/>
<path d="M5 10L5 8" stroke="#141B34" stroke-width="1.5" stroke-linecap="round" stroke-linejoin="round"/>
</svg>
