<svg width="24" height="24" viewBox="0 0 24 24" fill="none" xmlns="http://www.w3.org/2000/svg">
<path d="M12 2.99951C11.276 2.99994 10.5525 3.02366 9.84518 3.07058C5.65374 3.34864 2.31504 6.72789 2.04032 10.9702C1.98656 11.8004 1.98656 12.6602 2.04032 13.4904C2.14038 15.0355 2.82509 16.4661 3.63119 17.6741C4.09923 18.5198 3.79035 19.5753 3.30283 20.4973C2.95132 21.1621 2.77557 21.4945 2.91669 21.7346C3.0578 21.9747 3.37302 21.9824 4.00346 21.9977C5.25021 22.028 6.09091 21.6752 6.75825 21.1841C7.13674 20.9056 7.32598 20.7663 7.45641 20.7503C7.58684 20.7343 7.84352 20.8398 8.3568 21.0508C8.81812 21.2404 9.35376 21.3574 9.84518 21.39C11.2722 21.4847 12.7652 21.4849 14.1951 21.39C18.2174 21.1232 21.5024 18.0005 22 13.9999" stroke="#141B34" stroke-width="1.5" stroke-linecap="round" stroke-linejoin="round"/>
<path d="M16.5 5.5H15V11H22V5.5H20.5M16.5 5.5V4C16.5 2.89543 17.3954 2 18.5 2C19.6046 2 20.5 2.89543 20.5 4V5.5M16.5 5.5H20.5" stroke="#141B34" stroke-width="1.5" stroke-linejoin="round"/>
<path d="M11.9955 12.5H12.0044M8 12.5H8.00897" stroke="#141B34" stroke-width="2" stroke-linecap="round" stroke-linejoin="round"/>
</svg>
