<svg width="24" height="24" viewBox="0 0 24 24" fill="none" xmlns="http://www.w3.org/2000/svg">
<path d="M10.9957 3C10.6026 3.01177 10.2117 3.03051 9.82564 3.05621C5.64464 3.33448 2.31426 6.71638 2.04022 10.9621C1.98659 11.7929 1.98659 12.6533 2.04022 13.4842C2.14003 15.0305 2.82303 16.4623 3.62713 17.6712C4.094 18.5176 3.78588 19.5739 3.29958 20.4966C2.94895 21.1619 2.77364 21.4946 2.9144 21.7349C3.05517 21.9752 3.3696 21.9829 3.99847 21.9982C5.24211 22.0285 6.08072 21.6755 6.7464 21.184C7.12394 20.9052 7.31272 20.7659 7.44283 20.7498C7.57292 20.7338 7.82897 20.8394 8.34097 21.0505C8.80113 21.2403 9.33544 21.3574 9.82564 21.3901C11.2492 21.4848 12.7383 21.485 14.1648 21.3901C18.3458 21.1118 21.6762 17.7299 21.9502 13.4842C22.0245 12.3319 22.0374 11.1416 21.834 10" stroke="#141B34" stroke-width="1.5" stroke-linecap="round" stroke-linejoin="round"/>
<path d="M17 2L14.5 4.5L17 7M22 4.5L15.1088 4.5" stroke="#141B34" stroke-width="1.5" stroke-linecap="round" stroke-linejoin="round"/>
<path d="M11.9955 12.5H12.0044M15.991 12.5H16M8 12.5H8.00897" stroke="#141B34" stroke-width="2" stroke-linecap="round" stroke-linejoin="round"/>
</svg>
