<svg width="24" height="24" viewBox="0 0 24 24" fill="none" xmlns="http://www.w3.org/2000/svg">
<path d="M12.345 17.4867C15.9006 17.2526 18.7328 14.4069 18.9658 10.8344C19.0114 10.1353 19.0114 9.41128 18.9658 8.71216C18.7328 5.13969 15.9006 2.294 12.345 2.05985C11.132 1.97997 9.86556 1.98013 8.65499 2.05985C5.09943 2.294 2.26725 5.13969 2.0342 8.71216C1.9886 9.41128 1.9886 10.1353 2.0342 10.8344C2.11908 12.1356 2.69991 13.3403 3.38372 14.3576C3.78076 15.0697 3.51873 15.9586 3.10518 16.735C2.807 17.2948 2.65791 17.5747 2.77761 17.7769C2.89733 17.9791 3.16472 17.9856 3.69951 17.9985C4.75712 18.024 5.47028 17.7269 6.03638 17.3133C6.35744 17.0788 6.51798 16.9615 6.62862 16.948C6.73926 16.9346 6.957 17.0234 7.39241 17.2011C7.78374 17.3607 8.23811 17.4593 8.65499 17.4867C9.86556 17.5665 11.132 17.5666 12.345 17.4867Z" stroke="#141B34" stroke-width="1.5" stroke-linejoin="round"/>
<path d="M8 20.1791C9.04286 20.9263 10.2961 21.3973 11.655 21.4867C12.868 21.5666 14.1344 21.5665 15.345 21.4867C15.7619 21.4593 16.2163 21.3607 16.6076 21.2011C17.043 21.0234 17.2607 20.9346 17.3714 20.948C17.482 20.9615 17.6429 21.0791 17.9636 21.3133C18.5297 21.7269 19.2429 22.024 20.3005 21.9985C20.8353 21.9856 21.1027 21.9791 21.2224 21.7769C21.3421 21.5747 21.193 21.2948 20.8948 20.735C20.4813 19.9586 20.2192 19.0697 20.6163 18.3576C21.3001 17.3403 21.8809 16.1356 21.9658 14.8344C22.0114 14.1353 22.0114 13.4113 21.9658 12.7122C21.9387 12.2973 21.8766 11.8923 21.7824 11.5" stroke="#141B34" stroke-width="1.5" stroke-linecap="round" stroke-linejoin="round"/>
<path d="M7 12L14 12M7 8H11" stroke="#141B34" stroke-width="1.5" stroke-linecap="round" stroke-linejoin="round"/>
</svg>
