<svg width="24" height="24" viewBox="0 0 24 24" fill="none" xmlns="http://www.w3.org/2000/svg">
<path d="M22 14C21.5035 18.0008 18.1848 21.1237 14.1706 21.3905C12.7435 21.4854 11.2536 21.4852 9.8294 21.3905C9.33896 21.3579 8.8044 21.2409 8.34401 21.0513C7.83177 20.8403 7.5756 20.7348 7.44544 20.7508C7.31527 20.7668 7.1264 20.9061 6.74868 21.1846C6.08268 21.6757 5.24367 22.0285 3.99943 21.9982C3.37026 21.9829 3.05568 21.9752 2.91484 21.7351C2.77401 21.495 2.94941 21.1626 3.30021 20.4978C3.78674 19.5758 4.09501 18.5203 3.62791 17.6746C2.82343 16.4666 2.1401 15.036 2.04024 13.4909C1.98659 12.6607 1.98659 11.8009 2.04024 10.9707C2.31441 6.72838 5.64639 3.34913 9.8294 3.07107C10.8679 3.00204 11.9414 2.98324 13 3.01491" stroke="#141B34" stroke-width="1.5" stroke-linecap="round" stroke-linejoin="round"/>
<path d="M22.0032 11V11.75C22.4175 11.75 22.7532 11.4142 22.7532 11H22.0032ZM15 11H14.25C14.25 11.4142 14.5858 11.75 15 11.75V11ZM22.0032 10.25H15V11.75H22.0032V10.25ZM15.75 11C15.75 9.48154 16.9816 8.25 18.5016 8.25V6.75C16.1538 6.75 14.25 8.65246 14.25 11H15.75ZM18.5016 8.25C20.0216 8.25 21.2532 9.48154 21.2532 11H22.7532C22.7532 8.65246 20.8494 6.75 18.5016 6.75V8.25ZM19.5016 3.75C19.5016 4.30196 19.0539 4.75 18.5008 4.75V6.25C19.8816 6.25 21.0016 5.13104 21.0016 3.75H19.5016ZM18.5008 4.75C17.9477 4.75 17.5 4.30196 17.5 3.75H16C16 5.13104 17.12 6.25 18.5008 6.25V4.75ZM17.5 3.75C17.5 3.19804 17.9477 2.75 18.5008 2.75V1.25C17.12 1.25 16 2.36896 16 3.75H17.5ZM18.5008 2.75C19.0539 2.75 19.5016 3.19804 19.5016 3.75H21.0016C21.0016 2.36896 19.8816 1.25 18.5008 1.25V2.75Z" fill="#141B34"/>
<path d="M8.5 15H15.5M8.5 10L11.5 10" stroke="#141B34" stroke-width="1.5" stroke-linecap="round" stroke-linejoin="round"/>
</svg>
