<svg width="24" height="24" viewBox="0 0 24 24" fill="none" xmlns="http://www.w3.org/2000/svg">
<path d="M16.75 3.48377C14.9197 2.72623 13 2.9663 12 3.46816V9.99623C13 9.49437 14.9197 9.2543 16.75 10.0118C18.5684 10.7645 20.9494 11.0203 22 11V4.47193C20.9494 4.49227 18.5684 4.23639 16.75 3.48377Z" stroke="#141B34" stroke-width="1.5" stroke-linecap="round" stroke-linejoin="round"/>
<path d="M4 10V7C4 5.89543 4.89543 5 6 5H9L7.5 7" stroke="#141B34" stroke-width="1.5" stroke-linecap="round" stroke-linejoin="round"/>
<path d="M20 14L20 17C20 18.1046 19.1046 19 18 19L15 19L16.5 17" stroke="#141B34" stroke-width="1.5" stroke-linecap="round" stroke-linejoin="round"/>
<path d="M7.25 13.4838C9.08032 12.7262 11 12.9663 12 13.4682V19.9962C11 19.4944 9.08032 19.2543 7.25 20.0118C5.43158 20.7645 3.05062 21.0203 2 21V14.4719C3.05062 14.4923 5.43158 14.2364 7.25 13.4838Z" stroke="#141B34" stroke-width="1.5" stroke-linecap="round" stroke-linejoin="round"/>
<path d="M17 7H17.009" stroke="#141B34" stroke-width="2" stroke-linecap="round" stroke-linejoin="round"/>
<path d="M7 17H7.00898" stroke="#141B34" stroke-width="2" stroke-linecap="round" stroke-linejoin="round"/>
</svg>
