<svg width="24" height="24" viewBox="0 0 24 24" fill="none" xmlns="http://www.w3.org/2000/svg">
<path d="M14.5509 12C14.5509 13.3807 13.4316 14.5 12.0509 14.5C10.6702 14.5 9.55092 13.3807 9.55092 12C9.55092 10.6193 10.6702 9.5 12.0509 9.5C13.4316 9.5 14.5509 10.6193 14.5509 12Z" stroke="#141B34" stroke-width="1.5" stroke-linejoin="round"/>
<path d="M22 6V18C22 19.1046 21.1046 20 20 20H4C2.89543 20 2 19.1046 2 18V6C2 4.89543 2.89543 4 4 4H20C21.1046 4 22 4.89543 22 6Z" stroke="#141B34" stroke-width="1.5" stroke-linejoin="round"/>
<path d="M18.5117 12H18.5027" stroke="#141B34" stroke-width="2" stroke-linecap="round" stroke-linejoin="round"/>
<path d="M5.49994 12H5.49096" stroke="#141B34" stroke-width="2" stroke-linecap="round" stroke-linejoin="round"/>
</svg>
