<svg width="24" height="24" viewBox="0 0 24 24" fill="none" xmlns="http://www.w3.org/2000/svg">
<path d="M12 22C17.6 22 19 18.1665 19 13.5C19 8.83348 17.6 5 12 5C6.39994 5 5 8.83346 5 13.5C5 18.1665 6.39994 22 12 22Z" stroke="#141B34" stroke-width="1.5" stroke-linejoin="round"/>
<path d="M12 8V2" stroke="#141B34" stroke-width="1.5" stroke-linecap="round" stroke-linejoin="round"/>
<path d="M12.5 8H11.5C10.9477 8 10.5 8.44772 10.5 9V11C10.5 11.5523 10.9477 12 11.5 12H12.5C13.0523 12 13.5 11.5523 13.5 11V9C13.5 8.44772 13.0523 8 12.5 8Z" stroke="#141B34" stroke-width="1.5" stroke-linejoin="round"/>
</svg>
