<svg width="24" height="24" viewBox="0 0 24 24" fill="none" xmlns="http://www.w3.org/2000/svg">
<path d="M5.5 21.5H18.5C20.1569 21.5 21.5 20.1569 21.5 18.5V5.5C21.5 3.84315 20.1569 2.5 18.5 2.5H5.5C3.84315 2.5 2.5 3.84315 2.5 5.5V18.5C2.5 20.1569 3.84315 21.5 5.5 21.5Z" stroke="#141B34" stroke-width="1.5" stroke-linejoin="round"/>
<path d="M10 15.5C10 16.3284 9.32843 17 8.5 17C7.67157 17 7 16.3284 7 15.5C7 14.6716 7.67157 14 8.5 14C9.32843 14 10 14.6716 10 15.5ZM10 15.5V8.5L16 7V13.5M16 13.5C16 14.3284 15.3284 15 14.5 15C13.6716 15 13 14.3284 13 13.5C13 12.6716 13.6716 12 14.5 12C15.3284 12 16 12.6716 16 13.5Z" stroke="#141B34" stroke-width="1.5" stroke-linecap="round" stroke-linejoin="round"/>
</svg>
