<svg width="24" height="24" viewBox="0 0 24 24" fill="none" xmlns="http://www.w3.org/2000/svg">
<path d="M2.5 19.5C2.5 20.6046 3.39543 21.5 4.5 21.5H19.5C20.6046 21.5 21.5 20.6046 21.5 19.5V4.50043C21.5 3.39589 20.6046 2.50046 19.5001 2.50043L4.50005 2.50005C3.39546 2.50002 2.5 3.39546 2.5 4.50005V19.5Z" stroke="#141B34" stroke-width="1.5" stroke-linejoin="round"/>
<path d="M7 10V8.5M7 8.5C7 7.67157 7.67157 7 8.5 7C9.32843 7 10 7.67157 10 8.5V10M7 8.5V6.5M6 14.5L6.51894 13.9811C7.00158 13.4984 7.81523 13.6305 8.12048 14.241L9.5 17L12.7236 10.5528C12.893 10.214 13.2393 10 13.618 10H18" stroke="#141B34" stroke-width="1.5" stroke-linecap="round" stroke-linejoin="round"/>
</svg>
