<svg width="24" height="24" viewBox="0 0 24 24" fill="none" xmlns="http://www.w3.org/2000/svg">
<path d="M5.06084 11.4751C6.98081 11.7046 8.73612 10.3191 8.98145 8.38041C9.22678 6.44174 6.94251 4.57334 7.7723 2C3.666 2.5782 2.25075 5.79423 2.02865 7.54936C1.78332 9.48803 3.14088 11.2457 5.06084 11.4751Z" stroke="#141B34" stroke-width="1.5" stroke-linecap="round" stroke-linejoin="round"/>
<path d="M7 20C5.07536 15.3242 4.76992 11.1941 5.13275 8" stroke="#141B34" stroke-width="1.5" stroke-linecap="round" stroke-linejoin="round"/>
<path d="M9.50786 17.6681C10.6828 20.0602 13.5206 20.7199 15.8463 19.1415C18.172 17.5631 18.5378 13.1898 22 11.6651C18.3054 7.57247 13.6971 9.04998 11.5916 10.4789C9.26587 12.0573 8.33296 15.276 9.50786 17.6681Z" stroke="#141B34" stroke-width="1.5" stroke-linecap="round" stroke-linejoin="round"/>
<path d="M6 22C8.37778 17.9044 11.2644 15.43 14 14" stroke="#141B34" stroke-width="1.5" stroke-linecap="round" stroke-linejoin="round"/>
</svg>
