<svg width="24" height="24" viewBox="0 0 24 24" fill="none" xmlns="http://www.w3.org/2000/svg">
<path d="M11 19H13M9 2L9.77208 4.31623C9.90819 4.72457 10.2903 5 10.7208 5H13.2792C13.7097 5 14.0918 4.72457 14.2279 4.31623L15 2M5 5V20C5 21.1046 5.89543 22 7 22H17C18.1046 22 19 21.1046 19 20V19M19 15V4C19 2.89543 18.1046 2 17 2H7C6.82735 2 6.65981 2.02188 6.5 2.06301" stroke="#141B34" stroke-width="1.5" stroke-linecap="round"/>
<path d="M2 2L22 22" stroke="#141B34" stroke-width="1.5" stroke-linecap="round" stroke-linejoin="round"/>
</svg>
