<svg width="24" height="24" viewBox="0 0 24 24" fill="none" xmlns="http://www.w3.org/2000/svg">
<path d="M8.45375 17.3897C10.5394 16.3167 14.9805 14.1793 17.4822 12.8518C18.1774 12.4828 18.1774 11.5042 17.4822 11.1353C14.9805 9.80772 10.5394 7.68293 8.45375 6.60995C7.78884 6.26787 6.99976 6.75148 6.99976 7.49923V16.5004C6.99976 17.2482 7.78884 17.7318 8.45375 17.3897Z" stroke="#141B34" stroke-width="1.5" stroke-linejoin="round"/>
<path d="M7 17.5L14.5 9.5M7 6.5L14.5 14.5" stroke="#141B34" stroke-width="1.5" stroke-linejoin="round"/>
<path d="M21.5 4.5V19.5C21.5 20.6046 20.6046 21.5 19.5 21.5H4.5C3.39543 21.5 2.5 20.6046 2.5 19.5V4.5C2.5 3.39543 3.39543 2.5 4.5 2.5H19.5C20.6046 2.5 21.5 3.39543 21.5 4.5Z" stroke="#141B34" stroke-width="1.5" stroke-linejoin="round"/>
</svg>
