<svg width="24" height="24" viewBox="0 0 24 24" fill="none" xmlns="http://www.w3.org/2000/svg">
<path d="M19.5 4.5L21.5 2.5" stroke="#141B34" stroke-width="1.5" stroke-linecap="round" stroke-linejoin="round"/>
<path d="M2.5 21.5L4.5 19.5" stroke="#141B34" stroke-width="1.5" stroke-linecap="round" stroke-linejoin="round"/>
<path d="M11.7929 16.2929L7.20711 11.7071C6.81658 11.3166 6.18342 11.3166 5.79289 11.7071L3.5 14V17.1716C3.5 17.702 3.71071 18.2107 4.08579 18.5858L4.91421 19.4142C5.28929 19.7893 5.79799 20 6.32843 20H9.5L11.7929 17.7071C12.1834 17.3166 12.1834 16.6834 11.7929 16.2929Z" stroke="#141B34" stroke-width="1.5" stroke-linecap="round" stroke-linejoin="round"/>
<path d="M12.2071 6.29289C11.8166 6.68342 11.8166 7.31658 12.2071 7.70711L16.7929 12.2929C17.1834 12.6834 17.8166 12.6834 18.2071 12.2929L20.5 10V6.82843C20.5 6.29799 20.2893 5.78929 19.9142 5.41421L19.0858 4.58579C18.7107 4.21071 18.202 4 17.6716 4L14.5 4L12.2071 6.29289Z" stroke="#141B34" stroke-width="1.5" stroke-linecap="round" stroke-linejoin="round"/>
<path d="M8.5 12.5L10.5 10.5M11.5 15.5L13.5 13.5" stroke="#141B34" stroke-width="1.5" stroke-linecap="round" stroke-linejoin="round"/>
</svg>
