<svg width="24" height="24" viewBox="0 0 24 24" fill="none" xmlns="http://www.w3.org/2000/svg">
<path d="M19 22H5C3.89543 22 3 21.1046 3 20L3 4C3 2.89543 3.89543 2 5 2H12L19 9V11M18.5 9H13.998C12.8935 9 11.998 8.10457 11.998 7V2.5" stroke="#141B34" stroke-width="1.5" stroke-linecap="round" stroke-linejoin="round"/>
<path d="M7 19V17M7 17V14H8.5C9.32843 14 10 14.6716 10 15.5C10 16.3284 9.32843 17 8.5 17H7ZM21 15V14H18V19H21V17H20M12 19V14L15.5 19V14" stroke="#141B34" stroke-width="1.5" stroke-linecap="round" stroke-linejoin="round"/>
</svg>
