<svg width="24" height="24" viewBox="0 0 24 24" fill="none" xmlns="http://www.w3.org/2000/svg">
<path d="M15.5 3H13.5C13.2239 3 13 3.22386 13 3.5V6.5C13 6.77614 13.2239 7 13.5 7H15.5C15.7761 7 16 6.77614 16 6.5V3.5C16 3.22386 15.7761 3 15.5 3Z" stroke="#141B34" stroke-width="1.5" stroke-linejoin="round"/>
<path d="M10.5 10H8.5C8.22386 10 8 10.2239 8 10.5V13.5C8 13.7761 8.22386 14 8.5 14H10.5C10.7761 14 11 13.7761 11 13.5V10.5C11 10.2239 10.7761 10 10.5 10Z" stroke="#141B34" stroke-width="1.5" stroke-linejoin="round"/>
<path d="M13.5 17H11.5C11.2239 17 11 17.2239 11 17.5V20.5C11 20.7761 11.2239 21 11.5 21H13.5C13.7761 21 14 20.7761 14 20.5V17.5C14 17.2239 13.7761 17 13.5 17Z" stroke="#141B34" stroke-width="1.5" stroke-linejoin="round"/>
<path d="M13 5L3.5 5" stroke="#141B34" stroke-width="1.5" stroke-linecap="round" stroke-linejoin="round"/>
<path d="M11 19L3.5 19" stroke="#141B34" stroke-width="1.5" stroke-linecap="round" stroke-linejoin="round"/>
<path d="M20.5 19L16.5 19" stroke="#141B34" stroke-width="1.5" stroke-linecap="round" stroke-linejoin="round"/>
<path d="M20.5 12L11 12" stroke="#141B34" stroke-width="1.5" stroke-linecap="round" stroke-linejoin="round"/>
<path d="M20.5 5L18.5 5" stroke="#141B34" stroke-width="1.5" stroke-linecap="round" stroke-linejoin="round"/>
<path d="M5.5 12L3.5 12" stroke="#141B34" stroke-width="1.5" stroke-linecap="round" stroke-linejoin="round"/>
</svg>
