<svg width="24" height="24" viewBox="0 0 24 24" fill="none" xmlns="http://www.w3.org/2000/svg">
<path d="M12 2C8.13401 2 5 5.134 5 9C5 12.866 8.13401 16 12 16C15.866 16 19 12.866 19 9C19 5.13401 15.866 2 12 2Z" stroke="#141B34" stroke-width="1.5" stroke-linecap="round"/>
<path d="M10 6.5H11M12.75 9H11M12.75 9C13.4404 9 14 8.44036 14 7.75C14 7.05964 13.4404 6.5 12.75 6.5H12M12.75 9C13.4404 9 14 9.55964 14 10.25C14 10.9404 13.4404 11.5 12.75 11.5H12M11 9V6.5M11 9V11.5M10 11.5H11M11 6.5H12M11 11.5H12M12 6.5V5.5M12 11.5V12.5" stroke="#141B34" stroke-width="1.5" stroke-linecap="round" stroke-linejoin="round"/>
<path d="M15 18C13 18 12 19.5 12 19.5C12 19.5 13 21 15 21C17 21 18 19.5 18 19.5C18 19.5 17 18 15 18Z" stroke="#141B34" stroke-width="1.5" stroke-linecap="round" stroke-linejoin="round"/>
<path d="M9 18C7 18 6 19.5 6 19.5C6 19.5 7 21 9 21C11 21 12 19.5 12 19.5C12 19.5 11 18 9 18Z" stroke="#141B34" stroke-width="1.5" stroke-linecap="round" stroke-linejoin="round"/>
<path d="M12 22V16" stroke="#141B34" stroke-width="1.5" stroke-linecap="round"/>
</svg>
