<svg width="24" height="24" viewBox="0 0 24 24" fill="none" xmlns="http://www.w3.org/2000/svg">
<path d="M16 4C16 3.5 16 2 14.7565 2C13 2 9.82353 7.00342 7 7.00342" stroke="#141B34" stroke-width="1.5" stroke-linecap="round" stroke-linejoin="round"/>
<path d="M8 4C8 3.5 8 2 9.39987 2C11 2 14.8245 7.00342 18.001 7.00342" stroke="#141B34" stroke-width="1.5" stroke-linecap="round" stroke-linejoin="round"/>
<path d="M4 10H20" stroke="#141B34" stroke-width="1.5" stroke-linecap="round" stroke-linejoin="round"/>
<path d="M3.99994 8.99864L4.00008 7.99986C4.00016 7.44763 4.44785 7 5.00008 7H18.9999C19.5521 7 19.9998 7.44763 19.9999 7.99986L20.0001 8.99864C20.0001 11.7815 22 13.4956 22 16.4935C21.9998 22.4895 15.0001 21.9898 11.9997 21.9898C8.99936 21.9898 2.00017 22.4895 2 16.4935C2 13.4956 3.99994 11.7815 3.99994 8.99864Z" stroke="#141B34" stroke-width="1.5" stroke-linejoin="round"/>
</svg>
