<svg width="25" height="24" viewBox="0 0 25 24" fill="none" xmlns="http://www.w3.org/2000/svg">
<path d="M6.5 15.7031V21.9996H18.5001V15.7031C18.5001 15.248 18.6602 14.8095 18.9268 14.4407C20.0851 12.8378 20.4999 11.4865 20.5001 10.3241C20.5009 6.02102 14.028 4.30591 12.5001 2C10.9722 4.30591 4.49917 6.02102 4.5 10.3241C4.50022 11.4865 4.91501 12.8378 6.07336 14.4407C6.33991 14.8095 6.5 15.248 6.5 15.7031Z" stroke="#141B34" stroke-width="1.5" stroke-linecap="round" stroke-linejoin="round"/>
<path d="M15.4925 12.4316C14.9275 13.3692 13.8994 13.9964 12.725 13.9964C10.9417 13.9964 9.49609 12.5508 9.49609 10.7675C9.49609 9.59303 10.1232 8.565 11.0609 8" stroke="#141B34" stroke-width="1.5" stroke-linecap="round"/>
<path d="M14.5 8.99902H14.509" stroke="#141B34" stroke-width="2" stroke-linecap="round" stroke-linejoin="round"/>
<path d="M11.1025 18.864C10.7512 19.0835 10.6445 19.5462 10.864 19.8975C11.0835 20.2488 11.5462 20.3555 11.8975 20.136L11.1025 18.864ZM16.0372 17.3581L16.4532 16.7341L16.0372 17.3581ZM14.9525 17.3422L14.555 16.7062L14.9525 17.3422ZM18.916 18.376L16.4532 16.7341L15.6212 17.9822L18.084 19.624L18.916 18.376ZM9.66296 16.58L6.16459 18.3292L6.83541 19.6708L10.3338 17.9216L9.66296 16.58ZM14.555 16.7062L12.6025 17.9265L13.3975 19.1985L15.35 17.9782L14.555 16.7062ZM12.6025 17.9265L11.1025 18.864L11.8975 20.136L13.3975 19.1985L12.6025 17.9265ZM13.3975 17.9265L11.3731 16.6612L10.5781 17.9332L12.6025 19.1985L13.3975 17.9265ZM10.3338 17.9216C10.4117 17.8827 10.5042 17.8871 10.5781 17.9332L11.3731 16.6612C10.8561 16.3381 10.2082 16.3074 9.66296 16.58L10.3338 17.9216ZM16.4532 16.7341C15.8809 16.3526 15.1383 16.3417 14.555 16.7062L15.35 17.9782C15.4333 17.9261 15.5394 17.9277 15.6212 17.9822L16.4532 16.7341Z" fill="#141B34"/>
</svg>
