<svg width="24" height="24" viewBox="0 0 24 24" fill="none" xmlns="http://www.w3.org/2000/svg">
<path d="M19 22H5C3.89543 22 3 21.1046 3 20L3 4C3 2.89543 3.89543 2 5 2H12L19 9V11M18.5 9H13.998C12.8935 9 11.998 8.10457 11.998 7V2.5" stroke="#141B34" stroke-width="1.5" stroke-linecap="round" stroke-linejoin="round"/>
<path d="M8.1875 16.9167L9.125 19M6.5 19V16.5M6.5 16.5V14H8.25C8.94036 14 9.5 14.5596 9.5 15.25C9.5 15.9404 8.94036 16.5 8.25 16.5H6.5Z" stroke="#141B34" stroke-width="1.5" stroke-linecap="round" stroke-linejoin="round"/>
<path d="M15 19L13.5 14H12.5L11 19M12 17H14" stroke="#141B34" stroke-width="1.5" stroke-linecap="round" stroke-linejoin="round"/>
<path d="M17 14V19L19 17L21 19V14" stroke="#141B34" stroke-width="1.5" stroke-linecap="round" stroke-linejoin="round"/>
</svg>
