<svg width="24" height="24" viewBox="0 0 24 24" fill="none" xmlns="http://www.w3.org/2000/svg">
<path d="M9.80071 19.6993L19.6993 9.80071C20.196 9.30395 20.3986 8.57914 20.1173 7.9354C19.8097 7.23155 19.2955 6.29547 18.5 5.5C17.7045 4.70453 16.7684 4.19029 16.0646 3.88272C15.4209 3.60141 14.696 3.80395 14.1993 4.30071L4.30071 14.1993C3.80395 14.696 3.60141 15.4209 3.88272 16.0646C4.19029 16.7684 4.70453 17.7045 5.5 18.5C6.29547 19.2955 7.23155 19.8097 7.9354 20.1173C8.57914 20.3986 9.30395 20.196 9.80071 19.6993Z" stroke="#141B34" stroke-width="1.5" stroke-linejoin="round"/>
<path d="M19.2904 6C20.1754 5.65327 21.1891 4.98877 21.549 4.62887C22.1503 4.02748 22.1503 3.05243 21.549 2.45104C20.9476 1.84965 19.9725 1.84965 19.3711 2.45104C19.0112 2.81094 18.3467 3.82465 18 4.70962" stroke="#141B34" stroke-width="1.5"/>
<path d="M6 19.2904C5.65327 20.1754 4.98877 21.1891 4.62887 21.549C4.02748 22.1503 3.05243 22.1503 2.45104 21.549C1.84965 20.9476 1.84965 19.9725 2.45104 19.3711C2.81094 19.0112 3.82465 18.3467 4.70962 18" stroke="#141B34" stroke-width="1.5"/>
</svg>
