<svg width="24" height="24" viewBox="0 0 24 24" fill="none" xmlns="http://www.w3.org/2000/svg">
<path d="M4 5.99664C4.86383 4.22074 6.14232 3.05391 7.89404 2.36819C9.11345 1.89084 10.4707 1.9061 11.7089 2.32721C12.5976 2.59023 14.0161 3.59113 15 5.00121M15 2V5.00121M15 5.00121H12.6005" stroke="#141B34" stroke-width="1.5" stroke-linecap="round" stroke-linejoin="round"/>
<path d="M15.7426 11.0623L19.4282 8.48058C20.0389 8.05283 20.1831 7.20494 19.7505 6.58676C19.3178 5.96858 18.472 5.81421 17.8614 6.24196L10.4901 11.4053L9.91273 11.7994L9.94343 9.26018C9.94343 8.35008 9.15593 7.64204 8.25536 7.74254C7.56633 7.81944 7.01639 8.35486 6.91832 9.04423L6.0372 14.6065C5.89738 15.4891 6.15586 16.3885 6.74222 17.0597L10.2083 21.0274C10.7484 21.6457 11.5267 22 12.3446 22C12.8047 22 13.2579 21.8877 13.6654 21.6727L18.6003 19.069L18.9688 18.8108C19.5795 18.3831 19.7238 17.5352 19.2911 16.917C18.8601 16.3012 18.0193 16.1456 17.4092 16.5672M15.7426 11.0623L14.6369 11.8368M15.7426 11.0623C16.3532 10.6346 17.199 10.7889 17.6317 11.4071C18.0644 12.0253 17.9201 12.8731 17.3094 13.3009L16.5723 13.8172M17.4092 16.5672C17.4069 16.5688 17.4045 16.5704 17.4022 16.5721L17.0334 16.8304L17.4092 16.5672ZM17.4092 16.5672L18.1391 16.0559C18.7498 15.6281 18.894 14.7802 18.4614 14.162C18.0287 13.5439 17.1829 13.3895 16.5723 13.8172M16.5723 13.8172L16.2037 14.0754" stroke="#141B34" stroke-width="1.5" stroke-linecap="round" stroke-linejoin="round"/>
</svg>
