<svg width="24" height="24" viewBox="0 0 24 24" fill="none" xmlns="http://www.w3.org/2000/svg">
<path d="M16 22.0007L14 20.9961C11.8163 21.0758 8.75589 20.946 7.37284 19.289C6.83551 18.584 6.65303 17.4665 6.79246 16.1727C6.97769 14.4539 7.24935 13.4522 8.41012 11.6468L3.80896 9.00526C3.03821 8.56277 2.7715 7.57841 3.21322 6.80648C3.65523 6.03404 4.63907 5.767 5.4101 6.2102L13.2691 10.7276C13.1086 9.62499 12.8898 9.30553 12.7181 8.14144C12.6711 7.82319 12.7232 7.49849 12.8523 7.20392C13.1713 6.47631 13.9844 6.10385 14.7427 6.33796C15.2246 6.48675 15.6396 6.8642 15.8089 7.33988L18.001 13.4963L20 14.5007" stroke="#141B34" stroke-width="1.5" stroke-linecap="round" stroke-linejoin="round"/>
<path d="M9.5 5.0044V2M9.5 5.0044H12.0085M9.5 5.0044C10.701 3.42034 11.9982 2.59465 12.9406 2.32756C14.235 1.906 15.654 1.89072 16.9288 2.36858C18.7601 3.05504 20.0966 4.2231 20.9997 6.00089" stroke="#141B34" stroke-width="1.5" stroke-linecap="round" stroke-linejoin="round"/>
</svg>
