<svg width="24" height="24" viewBox="0 0 24 24" fill="none" xmlns="http://www.w3.org/2000/svg">
<path d="M13.5 22H20C21.1046 22 22 21.1046 22 20V14M3 11V8C3 6.89543 3.89543 6 5 6H9" stroke="#141B34" stroke-width="1.5" stroke-linecap="round" stroke-linejoin="round"/>
<path d="M3 21H3.00898" stroke="#141B34" stroke-width="2" stroke-linecap="round" stroke-linejoin="round"/>
<path d="M2 17.2349C4.49328 17.2349 6.77053 19.5 6.77053 21.9996M10 21.9996C10 17.5 5.99511 14 2.04522 14" stroke="#141B34" stroke-width="1.5" stroke-linecap="round" stroke-linejoin="round"/>
<path d="M17 9H17.009M17 6.5V4.5M22 7C22 9.76142 19.7614 12 17 12C14.2386 12 12 9.76142 12 7C12 4.23858 14.2386 2 17 2C19.7614 2 22 4.23858 22 7Z" stroke="#141B34" stroke-width="1.5" stroke-linecap="round"/>
</svg>
