<svg width="24" height="24" viewBox="0 0 24 24" fill="none" xmlns="http://www.w3.org/2000/svg">
<path d="M19.7453 13C20.5362 11.8662 21 10.4872 21 9C21 5.13401 17.866 2 14 2C10.134 2 7 5.134 7 9C7 10.0736 7.24169 11.0907 7.67363 12" stroke="#141B34" stroke-width="1.5" stroke-linecap="round" stroke-linejoin="round"/>
<path d="M3 14H5.48624C5.82328 14 6.15484 14.0852 6.45015 14.2476L8.5 15.3751H9.5C11 15.3751 12 16.524 12 17.4998L9.31623 18.3944C9.11096 18.4628 8.88904 18.4628 8.68377 18.3944L6 17.4998M11.9993 17L16.2103 15.5963C17.2149 15.2615 18.3064 15.7677 18.6997 16.7509V16.7509C18.869 17.1743 18.6856 17.6569 18.2777 17.8608L10.6925 21.6534C10.2465 21.8764 9.73337 21.9248 9.25361 21.789L3 20.0199" stroke="#141B34" stroke-width="1.5" stroke-linecap="round" stroke-linejoin="round"/>
<path d="M16 7.5V7C16 6.17157 15.3284 5.5 14.5 5.5C13.6716 5.5 13 6.17157 13 7V10C13 10.8284 12.3284 11.5 11.5 11.5H16M12 9H14.5" stroke="#141B34" stroke-width="1.5" stroke-linecap="round" stroke-linejoin="round"/>
</svg>
