<svg width="24" height="24" viewBox="0 0 24 24" fill="none" xmlns="http://www.w3.org/2000/svg">
<rect x="4" y="2" width="16" height="20" rx="2" stroke="#141B34" stroke-width="1.5"/>
<path d="M14.2937 13.2523C14.433 13.6423 14.8622 13.8456 15.2523 13.7063C15.6423 13.567 15.8456 13.1378 15.7063 12.7477L14.2937 13.2523ZM12.5 6L13.2063 5.74775C13.0997 5.44925 12.817 5.25 12.5 5.25V6ZM8.29369 12.7477C8.15438 13.1378 8.35767 13.567 8.74775 13.7063C9.13783 13.8456 9.56699 13.6423 9.70631 13.2523L8.29369 12.7477ZM11.5 6V5.25C11.183 5.25 10.9003 5.44925 10.7937 5.74775L11.5 6ZM15.7063 12.7477L13.2063 5.74775L11.7937 6.25225L14.2937 13.2523L15.7063 12.7477ZM12.5 5.25H11.5V6.75H12.5V5.25ZM10.7937 5.74775L8.29369 12.7477L9.70631 13.2523L12.2063 6.25225L10.7937 5.74775ZM10 11.25H14V9.75H10V11.25Z" fill="#141B34"/>
<path d="M8 17L16 17" stroke="#141B34" stroke-width="1.5" stroke-linecap="round" stroke-linejoin="round"/>
</svg>
