<svg width="24" height="24" viewBox="0 0 24 24" fill="none" xmlns="http://www.w3.org/2000/svg">
<path d="M9.55051 13C8.90223 12.3647 8.5 11.4793 8.5 10.5C8.5 8.567 10.067 7 12 7C13.3962 7 14.6015 7.81753 15.1632 9" stroke="#141B34" stroke-width="1.5" stroke-linecap="round"/>
<path d="M22 10.4999L17.2919 2.49312C17.1122 2.1876 16.7843 2 16.4299 2L7.57194 2C7.21758 2 6.88968 2.18754 6.71001 2.49298L2.29825 9.99289C2.11416 10.3058 2.11416 10.694 2.29824 11.0069L6.71003 18.507C6.88969 18.8125 7.21757 19 7.57192 19L9 19.0001" stroke="#141B34" stroke-width="1.5" stroke-linecap="round" stroke-linejoin="round"/>
<path d="M15.5303 16.4697C15.2374 16.1768 14.7626 16.1768 14.4697 16.4697C14.1768 16.7626 14.1768 17.2374 14.4697 17.5303L15.5303 16.4697ZM16.5 18.5L15.9697 19.0303C16.1187 19.1793 16.3235 19.2588 16.534 19.2492C16.7445 19.2397 16.9413 19.142 17.0762 18.9801L16.5 18.5ZM19.5762 15.9801C19.8413 15.6619 19.7983 15.189 19.4801 14.9238C19.1619 14.6587 18.689 14.7017 18.4238 15.0199L19.5762 15.9801ZM22.75 17C22.75 13.8244 20.1756 11.25 17 11.25V12.75C19.3472 12.75 21.25 14.6528 21.25 17H22.75ZM17 11.25C13.8244 11.25 11.25 13.8244 11.25 17H12.75C12.75 14.6528 14.6528 12.75 17 12.75V11.25ZM11.25 17C11.25 20.1756 13.8244 22.75 17 22.75V21.25C14.6528 21.25 12.75 19.3472 12.75 17H11.25ZM17 22.75C20.1756 22.75 22.75 20.1756 22.75 17H21.25C21.25 19.3472 19.3472 21.25 17 21.25V22.75ZM14.4697 17.5303L15.9697 19.0303L17.0303 17.9697L15.5303 16.4697L14.4697 17.5303ZM17.0762 18.9801L19.5762 15.9801L18.4238 15.0199L15.9238 18.0199L17.0762 18.9801Z" fill="#141B34"/>
</svg>
