<svg width="24" height="24" viewBox="0 0 24 24" fill="none" xmlns="http://www.w3.org/2000/svg">
<path d="M22 11V9.53324C19.1433 9.53324 17.2857 6.43041 18.732 3.96691L15.2679 2.0001C13.8038 4.49405 10.1978 4.49395 8.73363 2L5.26953 3.96681C6.71586 6.43035 4.85673 9.53324 2 9.53324V13.4669C4.85668 13.4669 6.71425 16.5697 5.26795 19.0332L8.73205 21C9.06221 20.4376 9.50121 20.002 10 19.6931M9.5505 14C8.90223 13.3647 8.5 12.4793 8.5 11.5C8.5 9.567 10.067 8 12 8C12.9793 8 13.8647 8.40223 14.5 9.0505" stroke="#141B34" stroke-width="1.5" stroke-linecap="round" stroke-linejoin="round"/>
<path d="M17 21.998C19.7614 21.998 22 19.7594 22 16.998C22 14.2366 19.7614 11.998 17 11.998C14.2386 11.998 12 14.2366 12 16.998C12 19.7594 14.2386 21.998 17 21.998Z" stroke="#141B34" stroke-width="1.5" stroke-linecap="round" stroke-linejoin="round"/>
<path d="M15 17L16.5 18.5L19 15.5" stroke="#141B34" stroke-width="1.5" stroke-linecap="round" stroke-linejoin="round"/>
</svg>
