<svg width="24" height="24" viewBox="0 0 24 24" fill="none" xmlns="http://www.w3.org/2000/svg">
<path d="M12.3251 6.28839L10.4961 8.36071C11.8858 8.36071 12.5806 8.36071 13.1094 8.56242C14.0314 8.91416 14.7152 9.68527 14.9366 10.623C15.0636 11.1607 14.9605 11.8281 14.7544 13.1627L14.0155 17H19.2461C20.2126 17 20.9961 17.7835 20.9961 18.75C20.9961 19.7165 20.2126 20.5 19.2461 20.5H5.99609C4.33924 20.5 2.99609 19.1569 2.99609 17.5V10.9269C2.99609 10.0241 3.40268 9.16929 4.10308 8.5996L9.90776 3.87817C10.543 3.37697 11.452 3.37363 12.0911 3.87014C12.8592 4.46692 12.9653 5.56307 12.3251 6.28839Z" stroke="#141B34" stroke-width="1.5" stroke-linecap="round" stroke-linejoin="round"/>
</svg>
