<svg width="24" height="24" viewBox="0 0 24 24" fill="none" xmlns="http://www.w3.org/2000/svg">
<path d="M7 7.5V6.36364C7 3.95367 9.01472 2 11.5 2C13.9853 2 16 3.95367 16 6.36364V7.5" stroke="#141B34" stroke-width="1.5"/>
<path d="M11.5669 22C8.33946 22.0005 5.10515 21.5266 3.78549 20.6104C3.06418 20.1097 2.51361 19.4143 2.20352 18.6124C1.69716 17.3029 2.18147 15.6144 3.1501 12.2373L3.87941 9.67787C4.24669 8.38895 5.42434 7.5 6.76456 7.5H16.1577C17.5343 7.5 18.7342 8.43689 19.0681 9.77239L19.5 11.5" stroke="#141B34" stroke-width="1.5" stroke-linecap="round"/>
<path d="M10 11H13" stroke="#141B34" stroke-width="1.5" stroke-linecap="round" stroke-linejoin="round"/>
<path d="M14.5 15.5L17.5 18.5M17.5 18.5L20.5 21.5M17.5 18.5L14.5 21.5M17.5 18.5L20.5 15.5" stroke="#141B34" stroke-width="1.5" stroke-linecap="round" stroke-linejoin="round"/>
</svg>
