<svg width="24" height="24" viewBox="0 0 24 24" fill="none" xmlns="http://www.w3.org/2000/svg">
<path d="M12 7L13.3892 8.27982L15.2635 8.20615L15.5175 10.0933L17 11.2602L16 12.8716L16.3969 14.7332L14.6108 15.3149L13.7365 17L12 16.2798L10.2635 17L9.38919 15.3149L7.60307 14.7332L8 12.8716L7 11.2602L8.48246 10.0933L8.73648 8.20615L10.6108 8.27982L12 7Z" stroke="#141B34" stroke-width="1.5" stroke-linejoin="round"/>
<path d="M6.48311 3.65819C6.11715 3.25395 5.58823 3 5 3C3.89543 3 3 3.89543 3 5C3 5.58823 3.25395 6.11715 3.65819 6.48311M6.48311 3.65819C6.80434 4.01303 7 4.48366 7 5C7 6.10457 6.10457 7 5 7C4.48366 7 4.01303 6.80434 3.65819 6.48311M6.48311 3.65819C8.0644 2.6103 9.96093 2 12 2C17.5228 2 22 6.47715 22 12C22 14.0318 21.394 15.9221 20.353 17.5M3.65819 6.48311C2.6103 8.0644 2 9.96093 2 12C2 17.5228 6.47715 22 12 22C14.0391 22 15.9356 21.3897 17.5169 20.3418M17.5169 20.3418C17.8828 20.7461 18.4118 21 19 21C20.1046 21 21 20.1046 21 19C21 17.8954 20.1046 17 19 17C17.8954 17 17 17.8954 17 19C17 19.5163 17.1957 19.987 17.5169 20.3418Z" stroke="#141B34" stroke-width="1.5" stroke-linecap="round"/>
</svg>
