<svg width="24" height="24" viewBox="0 0 24 24" fill="none" xmlns="http://www.w3.org/2000/svg">
<path d="M22 12C22 6.47715 17.5228 2 12 2C6.47715 2 2 6.47715 2 12C2 17.5228 6.47715 22 12 22C17.5228 22 22 17.5228 22 12Z" stroke="#141B34" stroke-width="1.5" stroke-linejoin="round"/>
<path d="M11.4793 7.30298C11.6961 6.89901 12.3039 6.89901 12.5207 7.30298L13.7992 9.68516C13.884 9.84328 14.0434 9.95333 14.228 9.98124L17.0069 10.4015C17.4779 10.4727 17.6656 11.0208 17.3288 11.3415L15.3394 13.2357C15.2076 13.3612 15.1468 13.5389 15.1759 13.7139L15.6143 16.3575C15.6886 16.8052 15.197 17.1441 14.7717 16.9384L12.2653 15.7259C12.0986 15.6453 11.9014 15.6453 11.7347 15.7259L9.22826 16.9384C8.80299 17.1441 8.3114 16.8052 8.38566 16.3575L8.82415 13.7139C8.85319 13.5389 8.79243 13.3612 8.66064 13.2357L6.67123 11.3415C6.33444 11.0208 6.52212 10.4727 6.99312 10.4015L9.77203 9.98124C9.9566 9.95333 10.116 9.84328 10.2008 9.68516L11.4793 7.30298Z" stroke="#141B34" stroke-width="1.5" stroke-linejoin="round"/>
</svg>
