<svg width="24" height="24" viewBox="0 0 24 24" fill="none" xmlns="http://www.w3.org/2000/svg">
<path d="M6.71597 5.18179C6.83423 4.9394 7.16577 4.9394 7.28403 5.18179L7.98137 6.6111C8.02765 6.70597 8.11458 6.772 8.21525 6.78874L9.73103 7.04091C9.98793 7.08364 10.0903 7.41248 9.9066 7.60489L8.82147 8.7414C8.74958 8.81669 8.71644 8.92332 8.73228 9.02835L8.97146 10.6145C9.01196 10.8831 8.74382 11.0865 8.51186 10.963L7.1447 10.2355C7.05379 10.1872 6.94621 10.1872 6.8553 10.2355L5.48814 10.963C5.25618 11.0865 4.98804 10.8831 5.02854 10.6145L5.26772 9.02835C5.28356 8.92332 5.25042 8.81669 5.17853 8.7414L4.0934 7.60489C3.90969 7.41248 4.01206 7.08364 4.26897 7.04091L5.78475 6.78874C5.88542 6.772 5.97235 6.70597 6.01863 6.6111L6.71597 5.18179Z" stroke="#141B34" stroke-width="1.5" stroke-linejoin="round"/>
<path d="M16.716 5.18179C16.8342 4.9394 17.1658 4.9394 17.284 5.18179L17.9814 6.6111C18.0277 6.70597 18.1146 6.772 18.2153 6.78874L19.731 7.04091C19.9879 7.08364 20.0903 7.41248 19.9066 7.60489L18.8215 8.7414C18.7496 8.81669 18.7164 8.92332 18.7323 9.02835L18.9715 10.6145C19.012 10.8831 18.7438 11.0865 18.5119 10.963L17.1447 10.2355C17.0538 10.1872 16.9462 10.1872 16.8553 10.2355L15.4881 10.963C15.2562 11.0865 14.988 10.8831 15.0285 10.6145L15.2677 9.02835C15.2836 8.92332 15.2504 8.81669 15.1785 8.7414L14.0934 7.60489C13.9097 7.41248 14.0121 7.08364 14.269 7.04091L15.7847 6.78874C15.8854 6.772 15.9723 6.70597 16.0186 6.6111L16.716 5.18179Z" stroke="#141B34" stroke-width="1.5" stroke-linejoin="round"/>
<path d="M22 12C22 17.5228 17.5228 22 12 22C6.47715 22 2 17.5228 2 12M8.5 2.62961C9.58934 2.22255 10.7687 2 12 2C13.2313 2 14.4107 2.22255 15.5 2.62961" stroke="#141B34" stroke-width="1.5" stroke-linecap="round" stroke-linejoin="round"/>
<path d="M8 15C8.91212 16.2144 10.3643 17 12 17C13.6357 17 15.0879 16.2144 16 15" stroke="#141B34" stroke-width="1.5" stroke-linecap="round" stroke-linejoin="round"/>
</svg>
