<svg width="24" height="24" viewBox="0 0 24 24" fill="none" xmlns="http://www.w3.org/2000/svg">
<path d="M3 14V20C3 21.1046 3.89543 22 5 22H17C18.1046 22 19 21.1046 19 20V15" stroke="#141B34" stroke-width="1.5" stroke-linecap="round" stroke-linejoin="round"/>
<path d="M15.5303 6.46967C15.2374 6.17678 14.7626 6.17678 14.4697 6.46967C14.1768 6.76256 14.1768 7.23744 14.4697 7.53033L15.5303 6.46967ZM16.5 8.5L15.9697 9.03033C16.1187 9.17933 16.3235 9.25878 16.534 9.24923C16.7445 9.23968 16.9413 9.14202 17.0762 8.98014L16.5 8.5ZM19.5762 5.98014C19.8413 5.66193 19.7983 5.18901 19.4801 4.92383C19.1619 4.65866 18.689 4.70165 18.4238 5.01986L19.5762 5.98014ZM22.75 7C22.75 3.82436 20.1756 1.25 17 1.25V2.75C19.3472 2.75 21.25 4.65279 21.25 7H22.75ZM17 1.25C13.8244 1.25 11.25 3.82436 11.25 7H12.75C12.75 4.65279 14.6528 2.75 17 2.75V1.25ZM11.25 7C11.25 10.1756 13.8244 12.75 17 12.75V11.25C14.6528 11.25 12.75 9.34721 12.75 7H11.25ZM17 12.75C20.1756 12.75 22.75 10.1756 22.75 7H21.25C21.25 9.34721 19.3472 11.25 17 11.25V12.75ZM14.4697 7.53033L15.9697 9.03033L17.0303 7.96967L15.5303 6.46967L14.4697 7.53033ZM17.0762 8.98014L19.5762 5.98014L18.4238 5.01986L15.9238 8.01986L17.0762 8.98014Z" fill="#141B34"/>
<path d="M9 6H5C4.44772 6 4 6.44772 4 7V8L2 11.6667C2 13.2315 3.20883 14.5 4.7 14.5C6.19117 14.5 7.4 13.2315 7.4 11.6667C7.4 13.5556 9.32254 14.5 11 14.5C11.674 14.5 12.3875 14.3049 13 14" stroke="#141B34" stroke-width="1.5" stroke-linecap="round" stroke-linejoin="round"/>
</svg>
