<svg width="24" height="24" viewBox="0 0 24 24" fill="none" xmlns="http://www.w3.org/2000/svg">
<path d="M2.99805 10V19C2.99805 20.1046 3.89348 21 4.99805 21H10.998" stroke="#141B34" stroke-width="1.5" stroke-linecap="round" stroke-linejoin="round"/>
<path d="M9.13508 9.75932C7.9359 11.0658 6.25249 11.065 5.27844 10.8905C3.77189 10.6205 2.63197 9.42712 2 8.51933L3.60798 3.4006C3.86982 2.56709 4.64238 2 5.51605 2H18.4843C19.3576 2 20.1299 2.56661 20.3921 3.39962L21.9966 8.49816C21.1189 9.81092 18.664 12.3059 15.2139 10.1461L14.7261 9.9243M9.13508 9.75932C9.65366 9.19435 10.0817 8.38492 10.3226 7.23936M9.13508 9.75932C9.72588 10.4253 11.3681 11.5178 13.4031 10.7197C13.9558 10.503 14.3863 10.2314 14.7261 9.9243M14.7261 9.9243C15.5816 9.15098 15.8614 8.15269 16.0649 7.23936" stroke="#141B34" stroke-width="1.5" stroke-linecap="round" stroke-linejoin="round"/>
<path d="M17.5 15.3333L17.5 14M17.5 15.3333C16.5613 15.3333 15.7377 15.8338 15.2737 16.5865M17.5 15.3333C18.4387 15.3333 19.2623 15.8338 19.7263 16.5865M17.5 22L17.5 20.6667M17.5 20.6667C16.5613 20.6667 15.7377 20.1662 15.2737 19.4135M17.5 20.6667C18.4387 20.6667 19.2623 20.1662 19.7263 19.4135M14 20.2222L15.2737 19.4135M21 15.7778L19.7263 16.5865M14 15.7778L15.2737 16.5865M21 20.2222L19.7263 19.4135M15.2737 19.4135C15.0211 19.0037 14.875 18.5192 14.875 18C14.875 17.4808 15.0211 16.9963 15.2737 16.5865M19.7263 16.5865C19.9789 16.9963 20.125 17.4808 20.125 18C20.125 18.5192 19.9789 19.0037 19.7263 19.4135" stroke="#141B34" stroke-width="1.5" stroke-linecap="round" stroke-linejoin="round"/>
</svg>
