<svg width="24" height="24" viewBox="0 0 24 24" fill="none" xmlns="http://www.w3.org/2000/svg">
<path d="M17.5 15.3333L17.5 14M17.5 15.3333C16.5613 15.3333 15.7377 15.8338 15.2737 16.5865M17.5 15.3333C18.4387 15.3333 19.2623 15.8338 19.7263 16.5865M17.5 22L17.5 20.6667M17.5 20.6667C16.5613 20.6667 15.7377 20.1662 15.2737 19.4135M17.5 20.6667C18.4387 20.6667 19.2623 20.1662 19.7263 19.4135M14 20.2222L15.2737 19.4135M21 15.7778L19.7263 16.5865M14 15.7778L15.2737 16.5865M21 20.2222L19.7263 19.4135M15.2737 19.4135C15.0211 19.0037 14.875 18.5192 14.875 18C14.875 17.4808 15.0211 16.9963 15.2737 16.5865M19.7263 16.5865C19.9789 16.9963 20.125 17.4808 20.125 18C20.125 18.5192 19.9789 19.0037 19.7263 19.4135" stroke="#141B34" stroke-width="1.5" stroke-linecap="round" stroke-linejoin="round"/>
<path d="M3 10.5V19C3 20.1046 3.89543 21 5 21H11" stroke="#141B34" stroke-width="1.5" stroke-linecap="round" stroke-linejoin="round"/>
<path d="M5 11C6.65685 11 8 9.65685 8 8C8 10 10.1362 11 12 11C13.8638 11 16 10 16 8C16 9.65685 17.3431 11 19 11C20.6569 11 22 9.65685 22 8L20 4.5V3C20 2.44772 19.5523 2 19 2H5C4.44772 2 4 2.44772 4 3V4.5L2 8C2 9.65685 3.34315 11 5 11Z" stroke="#141B34" stroke-width="1.5" stroke-linecap="round" stroke-linejoin="round"/>
</svg>
