<svg width="24" height="24" viewBox="0 0 24 24" fill="none" xmlns="http://www.w3.org/2000/svg">
<path d="M5 20H19C20.6569 20 22 18.6569 22 17V7C22 5.34315 20.6569 4 19 4H5C3.34315 4 2 5.34315 2 7V17C2 18.6569 3.34315 20 5 20Z" stroke="#141B34" stroke-width="1.5" stroke-linecap="round" stroke-linejoin="round"/>
<path d="M5.5 16C7.10865 13.8626 9.85391 13.746 11.5 16M10.249 10.25C10.249 11.2165 9.46552 12 8.49902 12C7.53253 12 6.74902 11.2165 6.74902 10.25C6.74902 9.2835 7.53253 8.5 8.49902 8.5C9.46552 8.5 10.249 9.2835 10.249 10.25Z" stroke="#141B34" stroke-width="1.5" stroke-linecap="round"/>
<path d="M14 10L19 10.0001M14 14L17 14.0001" stroke="#141B34" stroke-width="1.5" stroke-linecap="round" stroke-linejoin="round"/>
</svg>
