<svg width="24" height="24" viewBox="0 0 24 24" fill="none" xmlns="http://www.w3.org/2000/svg">
<path d="M18 13V15C18 16.1046 17.1046 17 16 17C14.8954 17 14 16.1046 14 15V13M6 13V15C6 16.1046 6.89543 17 8 17C9.10457 17 10 16.1046 10 15V9C10 7.89543 10.8954 7 12 7C13.1046 7 14 7.89543 14 9V10" stroke="#141B34" stroke-width="1.5" stroke-linecap="round" stroke-linejoin="round"/>
<path d="M21.5 4.5V19.5C21.5 20.6046 20.6046 21.5 19.5 21.5H4.5C3.39543 21.5 2.5 20.6046 2.5 19.5V4.5C2.5 3.39543 3.39543 2.5 4.5 2.5H19.5C20.6046 2.5 21.5 3.39543 21.5 4.5Z" stroke="#141B34" stroke-width="1.5" stroke-linejoin="round"/>
</svg>
