<svg width="24" height="24" viewBox="0 0 24 24" fill="none" xmlns="http://www.w3.org/2000/svg">
<path d="M10.8 15L12 16.1429M12 16.1429L13.2 17.2857M12 16.1429L13.2 15M12 16.1429L10.8 17.2857M14.6 19.7143L15.8 20.8571M15.8 20.8571L17 22M15.8 20.8571L17 19.7143M15.8 20.8571L14.6 22M7 19.7143L8.2 20.8571M8.2 20.8571L9.4 22M8.2 20.8571L9.4 19.7143M8.2 20.8571L7 22" stroke="#141B34" stroke-width="1.5" stroke-linecap="round" stroke-linejoin="round"/>
<path d="M17.4776 11.0091C17.485 11.0091 17.4925 11.0091 17.5 11.0091C19.9853 11.0091 22 13.0269 22 15.5159C22 16.9382 21.5276 18.1991 20.5 19M17.4776 11.0091C17.4924 10.8442 17.5 10.6772 17.5 10.5083C17.5 7.46617 15.0376 5 12 5C9.12324 5 6.76233 7.21197 6.52042 10.0303M17.4776 11.0091C17.3954 11.9219 17 12.5 16.5 13M6.52042 10.0303C3.98398 10.2721 2 12.4116 2 15.0152C2 16.8687 3.0055 18.1412 4.5 19M6.52042 10.0303C6.67826 10.0153 6.83823 10.0076 7 10.0076C7.91072 10.0076 8.76457 10.2514 9.5 10.6775" stroke="#141B34" stroke-width="1.5" stroke-linecap="round" stroke-linejoin="round"/>
<path d="M7.45538 3.5V2M7.45538 3.5C5.26267 3.5 3.48513 5.29086 3.48513 7.5M7.45538 3.5C8.67809 3.5 9.7717 4.05686 10.5 4.93258M2 7.5H3.48513M3.48513 7.5C3.48513 8.69469 4.00499 9.76706 4.82923 10.5M3.48513 3.5L4.64829 4.67188" stroke="#141B34" stroke-width="1.5" stroke-linecap="round" stroke-linejoin="round"/>
</svg>
