<svg width="24" height="24" viewBox="0 0 24 24" fill="none" xmlns="http://www.w3.org/2000/svg">
<path d="M9.07875 15L7 18.5001L10.0003 18.5L7.92195 22" stroke="#141B34" stroke-width="1.5" stroke-linecap="round" stroke-linejoin="round"/>
<path d="M16 20L15 22M13 20L12 22" stroke="#141B34" stroke-width="1.5" stroke-linecap="round" stroke-linejoin="round"/>
<path d="M17.4776 10.9008C17.485 10.9007 17.4925 10.9007 17.5 10.9007C19.9853 10.9007 22 12.8821 22 15.3263C22 17.2532 20.7478 18.8925 19 19.5M17.4776 10.9008C17.4924 10.7388 17.5 10.5748 17.5 10.409C17.5 7.42169 15.0376 5 12 5C9.12324 5 6.76233 7.17208 6.52042 9.9396M17.4776 10.9008C17.3753 12.0165 16.9286 13.0344 16.2428 13.8511M6.52042 9.9396C3.98398 10.177 2 12.2779 2 14.8345C2 16.4433 2.78555 17.8716 4 18.7687M6.52042 9.9396C6.67826 9.92483 6.83823 9.91727 7 9.91727C8.12582 9.91727 9.16474 10.2832 10.0005 10.9007" stroke="#141B34" stroke-width="1.5" stroke-linecap="round" stroke-linejoin="round"/>
<path d="M7.95538 2C7.95538 1.58579 7.6196 1.25 7.20538 1.25C6.79117 1.25 6.45538 1.58579 6.45538 2H7.95538ZM2 6.75C1.58579 6.75 1.25 7.08579 1.25 7.5C1.25 7.91421 1.58579 8.25 2 8.25V6.75ZM4.03033 3.24326C3.73744 2.95036 3.26256 2.95036 2.96967 3.24326C2.67678 3.53615 2.67678 4.01102 2.96967 4.30392L4.03033 3.24326ZM3.86796 5.20221C4.16085 5.4951 4.63573 5.4951 4.92862 5.20221C5.22151 4.90931 5.22151 4.43444 4.92862 4.14154L3.86796 5.20221ZM3.51903 10.467C3.77693 10.7911 4.24876 10.8448 4.57289 10.5869C4.89702 10.329 4.95071 9.85716 4.69281 9.53303L3.51903 10.467ZM7.95538 3.5V2H6.45538V3.5H7.95538ZM2 8.25H3.23513V6.75H2V8.25ZM2.96967 4.30392L3.86796 5.20221L4.92862 4.14154L4.03033 3.24326L2.96967 4.30392ZM3.98513 7.5C3.98513 5.69979 5.43215 4.25 7.20538 4.25V2.75C4.59319 2.75 2.48513 4.88193 2.48513 7.5H3.98513ZM7.20538 4.25C8.21533 4.25 9.34388 4.78279 9.92336 5.47957L11.0766 4.52043C10.1995 3.46577 8.64085 2.75 7.20538 2.75V4.25ZM4.69281 9.53303C4.25007 8.97659 3.98513 8.27082 3.98513 7.5H2.48513C2.48513 8.62108 2.87203 9.65381 3.51903 10.467L4.69281 9.53303Z" fill="#141B34"/>
</svg>
