<svg width="24" height="24" viewBox="0 0 24 24" fill="none" xmlns="http://www.w3.org/2000/svg">
<path d="M17.0012 22.0002L17.0012 20.5L18.1247 19.0957C18.6921 18.3864 19.0012 17.5052 19.0012 16.5969V12.5004C19.0014 11.3957 18.106 10.5 17.0012 10.5H16.0016M7.00162 22V20.5L3.61404 15.844C3.21497 15.2955 3 14.6346 3 13.9563C3 13.0309 3.39958 12.1505 4.09615 11.5412L7.00152 9M10.0014 8.5V3.5C10.0014 2.67157 9.32983 2 8.50141 2C7.67298 2 7.00141 2.67157 7.00141 3.5L7.00152 9M10.0014 8.5V10.5M10.0014 8.5H11.0016C12.1062 8.5 13.0016 9.39543 13.0016 10.5V11.5M16.0016 12.5V11.5C16.0016 10.3954 15.1062 9.5 14.0016 9.5H13.0016M7.00162 13.5L7.00152 9" stroke="#141B34" stroke-width="1.5" stroke-linecap="round" stroke-linejoin="round"/>
<path d="M18.5 8V2.72718M16 4.5L18.5 2L21 4.5" stroke="#141B34" stroke-width="1.5" stroke-linecap="round" stroke-linejoin="round"/>
</svg>
