<svg width="24" height="24" viewBox="0 0 24 24" fill="none" xmlns="http://www.w3.org/2000/svg">
<path d="M15.9651 22.5V11.5M7.98438 11.5V22.5" stroke="#141B34" stroke-width="1.5" stroke-linecap="round" stroke-linejoin="round"/>
<path d="M20.5002 12.5C23.1185 10.3182 19.889 8.92645 18.988 8.1C18.7301 8.33664 17.5054 8.61862 17.0037 8.9M19.0017 8.1V7" stroke="#141B34" stroke-width="1.5" stroke-linecap="round" stroke-linejoin="round"/>
<path d="M12.0131 3.5C10.3604 5.5 4.41331 7.5 8.26991 11.5H15.7075C19.5641 7.5 13.6659 5.5 12.0131 3.5ZM12.0131 3.5L12.001 2.5" stroke="#141B34" stroke-width="1.5" stroke-linecap="round" stroke-linejoin="round"/>
<path d="M3.49525 12.5C0.877816 10.3182 4.10683 8.92645 5.00753 8.1C5.26541 8.33664 6.49062 8.61862 6.99219 8.9M4.99388 8.1V7" stroke="#141B34" stroke-width="1.5" stroke-linecap="round" stroke-linejoin="round"/>
<path d="M19 18V17" stroke="#141B34" stroke-width="1.5" stroke-linecap="round" stroke-linejoin="round"/>
<path d="M12 22.5V19" stroke="#141B34" stroke-width="1.5" stroke-linecap="round" stroke-linejoin="round"/>
<path d="M5 18V17" stroke="#141B34" stroke-width="1.5" stroke-linecap="round" stroke-linejoin="round"/>
<path d="M12 16V14.5" stroke="#141B34" stroke-width="1.5" stroke-linecap="round" stroke-linejoin="round"/>
<path d="M8.00002 11.5C8.00002 11.5 5.00666 12.9967 2.01 13C2.00448 13 2 13.0045 2 13.01V22.5H22V13.01C22 13.0045 21.9955 13 21.99 13C18.9934 12.9967 16 11.5 16 11.5" stroke="#141B34" stroke-width="1.5" stroke-linecap="round" stroke-linejoin="round"/>
</svg>
