<svg width="24" height="24" viewBox="0 0 24 24" fill="none" xmlns="http://www.w3.org/2000/svg">
<path d="M9.3132 13H3C2.44772 13 2 12.5523 2 12V7.38374C2 7.13669 2.09144 6.8984 2.25671 6.71477L6.5 2L6.84372 2.34372C7.81713 3.31713 8.00314 4.8281 7.29488 6.00853L7 6.5H11.044C11.7457 6.5 12.2292 7.20398 11.9773 7.85898L10.2465 12.359C10.098 12.7452 9.72697 13 9.3132 13Z" stroke="#141B34" stroke-width="1.5" stroke-linejoin="round"/>
<path d="M13.7535 11.641C13.902 11.2548 14.273 11 14.6868 11H21C21.5523 11 22 11.4477 22 12V16.6163C22 16.8633 21.9086 17.1016 21.7433 17.2852L17.5 22L16.6042 21.1042C15.9552 20.4552 15.8312 19.4479 16.3034 18.661L17 17.5H12.956C12.2543 17.5 11.7708 16.796 12.0227 16.141L13.7535 11.641Z" stroke="#141B34" stroke-width="1.5" stroke-linejoin="round"/>
</svg>
