<svg width="24" height="24" viewBox="0 0 24 24" fill="none" xmlns="http://www.w3.org/2000/svg">
<path d="M10 20V4C10 3.44772 9.55228 3 9 3H4C3.44772 3 3 3.44772 3 4V20C3 20.5523 3.44772 21 4 21H9C9.55228 21 10 20.5523 10 20Z" stroke="#141B34" stroke-width="1.5" stroke-linecap="round" stroke-linejoin="round"/>
<path d="M17 21H20C20.5523 21 21 20.5523 21 20V4C21 3.44772 20.5523 3 20 3H17" stroke="#141B34" stroke-width="1.5" stroke-linecap="round" stroke-linejoin="round"/>
<path d="M18 12L15 9M18 12L15 15M18 12L10 12" stroke="#141B34" stroke-width="1.5" stroke-linecap="round" stroke-linejoin="round"/>
</svg>
