<svg width="24" height="24" viewBox="0 0 24 24" fill="none" xmlns="http://www.w3.org/2000/svg">
<path d="M3 20.0002V5.41423C3 4.52333 4.07715 4.07716 4.70711 4.70713L19.2929 19.2931C19.9229 19.9231 19.4767 21.0002 18.5858 21.0002H4C3.44772 21.0002 3 20.5525 3 20.0002Z" stroke="#141B34" stroke-width="1.5" stroke-linejoin="round"/>
<path d="M16.9541 8.97504L20.5937 12.5958M18.5 13H21V10.5M16.9541 7.02496L20.5937 3.40417M21 5.5V3H18.5M15.0127 7.06017L11.3994 3.40417M11 5.5V3H13.5M17.3644 8C17.3644 8.75312 16.7539 9.36364 16.0008 9.36364C15.2477 9.36364 14.6371 8.75312 14.6371 8C14.6371 7.24688 15.2477 6.63636 16.0008 6.63636C16.7539 6.63636 17.3644 7.24688 17.3644 8Z" stroke="#141B34" stroke-width="1.5" stroke-linecap="round" stroke-linejoin="round"/>
</svg>
