<svg width="24" height="24" viewBox="0 0 24 24" fill="none" xmlns="http://www.w3.org/2000/svg">
<path d="M14.5009 12.3546V4C14.5009 3.17157 13.8293 2.5 13.0009 2.5C12.1725 2.5 11.5009 3.17157 11.5009 4V5M17.5009 13V11.5C17.5009 10.6716 16.8293 10 16.0009 10H14.7337M11.5009 5V11.4211M11.5009 5C11.5009 4.17157 10.8293 3.5 10.0009 3.5C9.17245 3.5 8.50088 4.17157 8.50088 5V14L6.19318 11.8369C5.39467 11.238 4.25341 11.4616 3.73987 12.3174C3.40949 12.8681 3.42119 13.5587 3.77004 14.0979L7.91015 20.5769C8.27763 21.152 8.91298 21.5 9.59545 21.5H17.5009C19.1577 21.5 20.5009 20.1569 20.5009 18.5V12.5C20.5009 11.6716 19.8293 11 19.0009 11H17.8246" stroke="#141B34" stroke-width="1.5" stroke-linecap="round" stroke-linejoin="round"/>
</svg>
