<svg width="24" height="24" viewBox="0 0 24 24" fill="none" xmlns="http://www.w3.org/2000/svg">
<path d="M17.5 13.3636V12M17.5 22V20.6364M14.2277 15.0165L13 14.2727M22 19.7273L20.7728 18.9835M20.7723 15.0165L21.9995 14.2727M13 19.7273L14.2272 18.9835M21 17.1C21 19.033 19.433 20.6 17.5 20.6C15.567 20.6 14 19.033 14 17.1C14 15.167 15.567 13.6 17.5 13.6C19.433 13.6 21 15.167 21 17.1Z" stroke="#141B34" stroke-width="1.5" stroke-linecap="round"/>
<path d="M10.5 13H9C5.13401 13 2 16.134 2 20H10.5M14 6C14 8.20914 12.2091 10 10 10C7.79086 10 6 8.20914 6 6C6 3.79086 7.79086 2 10 2C12.2091 2 14 3.79086 14 6Z" stroke="#141B34" stroke-width="1.5" stroke-linecap="round" stroke-linejoin="round"/>
</svg>
