<svg width="24" height="24" viewBox="0 0 24 24" fill="none" xmlns="http://www.w3.org/2000/svg">
<path d="M14 8.99988H19M14 12.4999H17" stroke="#141B34" stroke-width="1.5" stroke-linecap="round" stroke-linejoin="round"/>
<path d="M2 5.49988C2 4.39531 2.89543 3.49988 4 3.49988H20C21.1046 3.49988 22 4.39531 22 5.49988V18.4999C22 19.6044 21.1046 20.4999 20 20.4999H4C2.89543 20.4999 2 19.6044 2 18.4999V5.49988Z" stroke="#141B34" stroke-width="1.5" stroke-linejoin="round"/>
<path d="M5 16.4999C6.20831 13.9188 10.7122 13.749 12 16.4999M10.5 9.49988C10.5 10.6044 9.60457 11.4999 8.5 11.4999C7.39543 11.4999 6.5 10.6044 6.5 9.49988C6.5 8.39531 7.39543 7.49988 8.5 7.49988C9.60457 7.49988 10.5 8.39531 10.5 9.49988Z" stroke="#141B34" stroke-width="1.5" stroke-linecap="round" stroke-linejoin="round"/>
</svg>
