<svg width="24" height="24" viewBox="0 0 24 24" fill="none" xmlns="http://www.w3.org/2000/svg">
<path d="M16.5 21V15C16.5 13.8954 15.6046 13 14.5 13H14C13.5 17.9993 9.5 19 9.5 19C9.5 19 5.5 18 5 13H4.5C3.39543 13 2.5 13.8954 2.5 15V21" stroke="#141B34" stroke-width="1.5" stroke-linecap="round" stroke-linejoin="round"/>
<path d="M9.5 13.4998L11.5 12.4998V14.4998L9.5 13.4998ZM9.5 13.4998L7.5 12.5V14.5L9.5 13.4998Z" stroke="#141B34" stroke-width="1.5" stroke-linecap="round" stroke-linejoin="round"/>
<path d="M12.5 6.9375V6.0625C12.5 4.37113 11.1569 3 9.5 3C7.84315 3 6.5 4.37113 6.5 6.0625V6.9375C6.5 8.62887 7.84315 10 9.5 10C11.1569 10 12.5 8.62887 12.5 6.9375Z" stroke="#141B34" stroke-width="1.5" stroke-linecap="round" stroke-linejoin="round"/>
<path d="M21.5 21V15C21.5 13.8954 20.6046 13 19.5 13H19" stroke="#141B34" stroke-width="1.5" stroke-linecap="round" stroke-linejoin="round"/>
<path d="M14.5 3.17426C14.8128 3.06141 15.1494 3 15.5 3C17.1569 3 18.5 4.37113 18.5 6.0625V6.9375C18.5 8.62887 17.1569 10 15.5 10C15.1494 10 14.8128 9.93859 14.5 9.82574" stroke="#141B34" stroke-width="1.5" stroke-linecap="round" stroke-linejoin="round"/>
</svg>
