<svg width="24" height="24" viewBox="0 0 24 24" fill="none" xmlns="http://www.w3.org/2000/svg">
<path d="M16 14C16 14.8284 16.6716 15.5 17.5 15.5C18.3284 15.5 19 14.8284 19 14C19 13.1716 18.3284 12.5 17.5 12.5C16.6716 12.5 16 13.1716 16 14Z" stroke="#141B34" stroke-width="1.5"/>
<path d="M10 7.00005H18M18 7.00005H20C21.1046 7.00005 22 7.89548 22 9.00005V19C22 20.1046 21.1046 21 20 21H4.00004C2.89548 21 2.00005 20.1046 2.00004 19.0001L2.00001 5.00001C2 3.89543 2.89543 3 4.00001 3H16C17.1046 3 18 3.89543 18 5V7.00005Z" stroke="#141B34" stroke-width="1.5" stroke-linecap="round" stroke-linejoin="round"/>
</svg>
