<svg width="24" height="24" viewBox="0 0 24 24" fill="none" xmlns="http://www.w3.org/2000/svg">
<path d="M15 14.5V15.25C15.4142 15.25 15.75 14.9142 15.75 14.5H15ZM9 14.5H8.25C8.25 14.9142 8.58579 15.25 9 15.25V14.5ZM12.75 8C12.75 8.41421 12.4142 8.75 12 8.75V10.25C13.2426 10.25 14.25 9.24264 14.25 8H12.75ZM12 8.75C11.5858 8.75 11.25 8.41421 11.25 8H9.75C9.75 9.24264 10.7574 10.25 12 10.25V8.75ZM11.25 8C11.25 7.58579 11.5858 7.25 12 7.25V5.75C10.7574 5.75 9.75 6.75736 9.75 8H11.25ZM12 7.25C12.4142 7.25 12.75 7.58579 12.75 8H14.25C14.25 6.75736 13.2426 5.75 12 5.75V7.25ZM15 13.75H9V15.25H15V13.75ZM9.75 14.5C9.75 13.2574 10.7574 12.25 12 12.25V10.75C9.92893 10.75 8.25 12.4289 8.25 14.5H9.75ZM12 12.25C13.2426 12.25 14.25 13.2574 14.25 14.5H15.75C15.75 12.4289 14.0711 10.75 12 10.75V12.25Z" fill="#141B34"/>
<path d="M15 17.5H9" stroke="#141B34" stroke-width="1.5" stroke-linecap="round"/>
<path d="M4.43633 18.1698L3.25334 21.3244C3.13076 21.6513 3.3724 22 3.7215 22H18.5838C19.1361 22 19.5838 21.5523 19.5838 21V5.22814C19.5838 5.0807 19.6164 4.93509 19.6792 4.80173L20.6638 2.7132C20.8201 2.38155 20.5782 2 20.2115 2H5.5C4.94772 2 4.5 2.44772 4.5 3V5.72302C4.5 5.90426 4.54926 6.0821 4.64251 6.23751L5.6913 7.9855C5.88131 8.30219 5.88131 8.69781 5.6913 9.0145L4.64251 10.7625C4.54926 10.9179 4.5 11.0957 4.5 11.277V17.8187C4.5 17.9386 4.47843 18.0575 4.43633 18.1698Z" stroke="#141B34" stroke-width="1.5" stroke-linejoin="round"/>
</svg>
