<svg width="24" height="24" viewBox="0 0 24 24" fill="none" xmlns="http://www.w3.org/2000/svg">
<path d="M21 10V7.5C21 6.39543 20.1046 5.5 19 5.5H4C2.89543 5.5 2 6.39543 2 7.5V19C2 20.1046 2.89543 21 4 21H9.5" stroke="#141B34" stroke-width="1.5" stroke-linecap="round" stroke-linejoin="round"/>
<path d="M15.5 5.5L14.7072 2.72528C14.5846 2.29598 14.1922 2 13.7457 2H9.2543C8.80782 2 8.41544 2.29598 8.29278 2.72528L7.5 5.5" stroke="#141B34" stroke-width="1.5" stroke-linejoin="round"/>
<path d="M17 19L16.4697 19.5303C16.7626 19.8232 17.2374 19.8232 17.5303 19.5303L17 19ZM19.0303 18.0303C19.3232 17.7374 19.3232 17.2626 19.0303 16.9697C18.7374 16.6768 18.2626 16.6768 17.9697 16.9697L19.0303 18.0303ZM16.0303 16.9697C15.7374 16.6768 15.2626 16.6768 14.9697 16.9697C14.6768 17.2626 14.6768 17.7374 14.9697 18.0303L16.0303 16.9697ZM17.75 15C17.75 14.5858 17.4142 14.25 17 14.25C16.5858 14.25 16.25 14.5858 16.25 15H17.75ZM21.25 17C21.25 19.3472 19.3472 21.25 17 21.25V22.75C20.1756 22.75 22.75 20.1756 22.75 17H21.25ZM17 21.25C14.6528 21.25 12.75 19.3472 12.75 17H11.25C11.25 20.1756 13.8244 22.75 17 22.75V21.25ZM12.75 17C12.75 14.6528 14.6528 12.75 17 12.75V11.25C13.8244 11.25 11.25 13.8244 11.25 17H12.75ZM17 12.75C19.3472 12.75 21.25 14.6528 21.25 17H22.75C22.75 13.8244 20.1756 11.25 17 11.25V12.75ZM17.5303 19.5303L19.0303 18.0303L17.9697 16.9697L16.4697 18.4697L17.5303 19.5303ZM17.5303 18.4697L16.0303 16.9697L14.9697 18.0303L16.4697 19.5303L17.5303 18.4697ZM17.75 19V15H16.25V19H17.75Z" fill="#141B34"/>
</svg>
