<svg width="24" height="24" viewBox="0 0 24 24" fill="none" xmlns="http://www.w3.org/2000/svg">
<path d="M19 22H5C3.89543 22 3 21.1046 3 20L3 4C3 2.89543 3.89543 2 5 2H12L19 9V11M18.5 9H13.998C12.8935 9 11.998 8.10457 11.998 7V2.5" stroke="#141B34" stroke-width="1.5" stroke-linecap="round" stroke-linejoin="round"/>
<path d="M16.5 14.75C16.9142 14.75 17.25 14.4142 17.25 14C17.25 13.5858 16.9142 13.25 16.5 13.25V14.75ZM13.5 14V13.25C13.0858 13.25 12.75 13.5858 12.75 14H13.5ZM13.5 16.5H12.75C12.75 16.9142 13.0858 17.25 13.5 17.25V16.5ZM16.5 16.5H17.25C17.25 16.0858 16.9142 15.75 16.5 15.75V16.5ZM16.5 19V19.75C16.9142 19.75 17.25 19.4142 17.25 19H16.5ZM13.5 18.25C13.0858 18.25 12.75 18.5858 12.75 19C12.75 19.4142 13.0858 19.75 13.5 19.75V18.25ZM7.5842 13.5439C7.32444 13.2213 6.85231 13.1703 6.52967 13.43C6.20702 13.6898 6.15604 14.1619 6.4158 14.4846L7.5842 13.5439ZM10.4208 19.4052C10.6839 19.7251 11.1566 19.7711 11.4765 19.508C11.7964 19.2448 11.8424 18.7722 11.5792 18.4523L10.4208 19.4052ZM11.4529 14.458C11.7059 14.13 11.645 13.659 11.317 13.4061C10.989 13.1531 10.5181 13.214 10.2651 13.542L11.4529 14.458ZM6.42209 18.5441C6.1703 18.873 6.23282 19.3438 6.56173 19.5955C6.89063 19.8473 7.36137 19.7848 7.61316 19.4559L6.42209 18.5441ZM19.75 14C19.75 13.5858 19.4142 13.25 19 13.25C18.5858 13.25 18.25 13.5858 18.25 14H19.75ZM19 19H18.25C18.25 19.4142 18.5858 19.75 19 19.75V19ZM21 19.75C21.4142 19.75 21.75 19.4142 21.75 19C21.75 18.5858 21.4142 18.25 21 18.25V19.75ZM16.5 13.25H13.5V14.75H16.5V13.25ZM12.75 14V16.5H14.25V14H12.75ZM13.5 17.25H16.5V15.75H13.5V17.25ZM15.75 16.5V19H17.25V16.5H15.75ZM16.5 18.25H13.5V19.75H16.5V18.25ZM6.4158 14.4846L8.38127 16.9259L9.54966 15.9852L7.5842 13.5439L6.4158 14.4846ZM8.38626 16.932L10.4208 19.4052L11.5792 18.4523L9.54467 15.9791L8.38626 16.932ZM9.55938 16.9135L11.4529 14.458L10.2651 13.542L8.37154 15.9975L9.55938 16.9135ZM8.36993 15.9996L6.42209 18.5441L7.61316 19.4559L9.561 16.9114L8.36993 15.9996ZM18.25 14V19H19.75V14H18.25ZM19 19.75H21V18.25H19V19.75Z" fill="#141B34"/>
</svg>
