<svg width="24" height="24" viewBox="0 0 24 24" fill="none" xmlns="http://www.w3.org/2000/svg">
<path d="M9 10C9 13.866 12 17 12 17C12 17 15 13.866 15 10C15 6.13401 12 3 12 3C12 3 9 6.13401 9 10Z" stroke="#141B34" stroke-width="1.5" stroke-linecap="round" stroke-linejoin="round"/>
<path d="M17.4964 8.5C18.9954 7 21.9934 7 21.9934 7C21.9934 7 22.2546 11.2386 19.495 14C16.7354 16.7614 12 17 12 17C12 17 7.26456 16.7614 4.50497 14C1.74537 11.2386 2.00662 7 2.00662 7C2.00662 7 5.00464 7 6.50364 8.5" stroke="#141B34" stroke-width="1.5" stroke-linecap="round" stroke-linejoin="round"/>
<path d="M4.5 17C3 17.5 2 19 2 21C5 19 6.00414 21 8 21C10.8531 21 12 19 12 17C12 19 13.1469 21 16 21C17.9959 21 19 19 22 21C22 19 21 17.5 19.5 17" stroke="#141B34" stroke-width="1.5" stroke-linecap="round" stroke-linejoin="round"/>
</svg>
