<svg width="24" height="24" viewBox="0 0 24 24" fill="none" xmlns="http://www.w3.org/2000/svg">
<path d="M8 10C8.71318 11.3968 9.67599 12.8907 9.5 14.5C9.21866 17.0727 5.85493 17.8552 3.78023 19.0404C2.42098 19.8169 2.92918 22 4.59725 22C6.61969 22 8.42472 21.8448 10.2494 21.0201L13.9588 18.8209C14.2896 18.6247 14.7035 18.6357 15.0235 18.849L16 19.5" stroke="#141B34" stroke-width="1.5" stroke-linecap="round" stroke-linejoin="round"/>
<path d="M16 10C15 11.5 14.324 12.8907 14.5 14.5C14.7813 17.0727 18.1451 17.8552 20.2198 19.0404C21.579 19.8169 21.0708 22 19.4028 22C17.3803 22 15.5753 21.8448 13.7506 21.0201L10.0412 18.8209C9.71041 18.6247 9.29647 18.6357 8.97651 18.849L8 19.5" stroke="#141B34" stroke-width="1.5" stroke-linecap="round" stroke-linejoin="round"/>
<path d="M10 4C10 5.10457 10.8954 6 12 6C13.1046 6 14 5.10457 14 4C14 2.89543 13.1046 2 12 2C10.8954 2 10 2.89543 10 4Z" stroke="#141B34" stroke-width="1.5" stroke-linecap="round" stroke-linejoin="round"/>
<path d="M3 16C5.44586 16 6.54368 13.2949 6.89335 11.4291C7.31129 9.19905 9.91638 8 12 8C14.0836 8 16.6887 9.19905 17.1067 11.4291C17.4563 13.2949 18.5541 16 21 16" stroke="#141B34" stroke-width="1.5" stroke-linecap="round" stroke-linejoin="round"/>
</svg>
