<svg xmlns="http://www.w3.org/2000/svg" width="24" height="24" viewBox="0 0 24 24">
    <path class="pr-icon-tertiary"
          d="M14.6665 18.5H5.5c-1.93321-.0003-3.50014-1.56772-3.49983-3.50093.00025-1.57211 1.04858-2.95121 2.56331-3.37207.48096-3.2774 3.52771-5.54437 6.80511-5.06342 2.02716.29748 3.76222 1.60917 4.60114 3.47842 2.28057.71708 3.54803 3.14716 2.83095 5.42774C18.23309 17.27487 16.55877 18.50212 14.6665 18.5zM16 6.16699c.00037 0 .00079 0 .00116 0 .55194-.00031.99915-.448.99884-1V3.5c0-.55231-.44769-1-1-1s-1 .44769-1 1v1.66699c0 .00037 0 .00079 0 .00116C15.00031 5.72015 15.44806 6.1673 16 6.16699zM18.3584 7.1416c.26526.00031.51978-.1051.70709-.29297l1.17474-1.17474c.3905-.3905.3905-1.02362 0-1.41406-.39044-.3905-1.02356-.3905-1.41406 0l-1.17474 1.17474c-.18744.1875-.29279.44171-.29279.70679C17.35852 6.69366 17.80609 7.14148 18.3584 7.1416z"></path>
    <path class="pr-icon-tertiary"
          d="M19.06543 10.15137c-.39044-.3905-1.02356-.3905-1.414 0-.17987.17987-.26715.41241-.28131.64783.59509.47662 1.03778 1.09949 1.31232 1.79724l.14374.14374c.18732.18787.44177.29333.70703.29303l.00006-.00006c.26508-.00006.51929-.10535.70679-.29279.39056-.39044.39069-1.02362.00018-1.41425L19.06543 10.15137zM12.93457 6.84857c.18732.18787.44177.29333.70703.29303l.00006-.00006c.26508-.00006.51929-.10535.70679-.29279.39056-.39044.39069-1.02362.00018-1.41425l-1.17474-1.17474c-.3905-.3905-1.02362-.3905-1.41406 0-.3905.39044-.3905 1.02356 0 1.41406L12.93457 6.84857zM21 7.5h-1.66699c-.55231 0-1 .44769-1 1s.44769 1 1 1H21c.55231 0 1-.44769 1-1S21.55231 7.5 21 7.5z"></path>
    <path class="pr-icon-primary"
          d="M16 4.125c-1.77356 0-3.29266 1.06006-3.97955 2.57697 1.74219.45764 3.20209 1.67511 3.94928 3.34003 1.11456.35046 1.98157 1.1134 2.49878 2.06476C19.61749 11.3183 20.37329 9.99841 20.375 8.5 20.375 6.08374 18.41626 4.125 16 4.125zM10.5 21.5c-1.65611-.00181-2.99819-1.34389-3-3 0-2.47461 2.33789-4.09277 2.43749-4.16016.33665-.22901.77856-.23094 1.1172-.00488C11.15527 14.40234 13.5 15.99609 13.5 18.5 13.49819 20.15611 12.15611 21.49819 10.5 21.5z"></path>
</svg>
