<svg xmlns="http://www.w3.org/2000/svg" width="24" height="24" viewBox="0 0 24 24">
    <path class="pr-icon-tertiary"
          d="M8,21H5c-1.65611-0.00181-2.99819-1.34389-3-3v-2c0.00181-1.65611,1.34389-2.99819,3-3h3c0.55197-0.00031,0.99969,0.44689,1,0.99886C9,13.99924,9,13.99962,9,14v6c0.00031,0.55197-0.44689,0.99969-0.99886,1C8.00076,21,8.00038,21,8,21z M19,21h-3c-0.55197,0.00031-0.99969-0.44689-1-0.99886c0-0.00038,0-0.00076,0-0.00114v-6c-0.00031-0.55197,0.44689-0.99969,0.99886-1c0.00038,0,0.00076,0,0.00114,0h3c1.65611,0.00181,2.99819,1.34389,3,3v2C21.99819,19.65611,20.65611,20.99819,19,21z"></path>
    <path class="pr-icon-primary"
          d="M18,11v2h1c0.35254,0.00037,0.68579,0.07269,1,0.18463V11c0-4.41827-3.58173-8-8-8s-8,3.58173-8,8v2.18463C4.31421,13.07269,4.64746,13.00037,5,13h1v-2c0-3.31372,2.68628-6,6-6S18,7.68628,18,11z"></path>
</svg>
