<svg xmlns="http://www.w3.org/2000/svg" width="24" height="24" viewBox="0 0 24 24">
    <path class="pr-icon-tertiary" d="M15.46,16.46c-0.55724,0.0021-1.01329-0.44288-1.0249-1c-0.00577-0.40146,0.23089-0.76686,0.59961-0.92578c0.13226-0.06535,0.27777-0.09943,0.42529-0.09961c0.54067-0.0115,0.98829,0.41748,0.99978,0.95815c0.00012,0.00581,0.00019,0.01162,0.00022,0.01744V15.46c0.00015,0.55214-0.44732,0.99985-0.99946,1C15.46036,16.46,15.46018,16.46,15.46,16.46z M11.35742,16.46h-0.10107c-0.55229,0-1-0.44772-1-1c0-0.55229,0.44771-1,1-1h0.10107c0.55229,0,1,0.44771,1,1C12.35742,16.01228,11.90971,16.46,11.35742,16.46z M7.20361,16.46H7.10254c-0.55228,0-1-0.44772-1-1c0-0.55229,0.44772-1,1-1h0.10107c0.55228,0,1,0.44771,1,1C8.20361,16.01228,7.75589,16.46,7.20361,16.46z M3.0498,16.46H3c-0.55214,0.00015-0.99985-0.44732-1-0.99946c0-0.00018,0-0.00036,0-0.00054c-0.00213-0.55733,0.44279-1.01355,1-1.02539c0.40164-0.00538,0.76699,0.23164,0.92578,0.60059C3.99108,15.16728,4.025,15.31266,4.0249,15.46c0.01172,0.54044-0.4169,0.98806-0.95734,0.99978C3.06164,16.4599,3.05572,16.45998,3.0498,16.46z M3,12.35742c-0.55214,0.00015-0.99985-0.44732-1-0.99946c0-0.00018,0-0.00036,0-0.00054v-0.10156c0-0.55229,0.44772-1,1-1s1,0.44771,1,1v0.10156c0.00015,0.55214-0.44732,0.99985-0.99946,1C3.00036,12.35742,3.00018,12.35742,3,12.35742z M3,8.2041C2.44786,8.20425,2.00015,7.75678,2,7.20464C2,7.20446,2,7.20428,2,7.2041V7.10254c0-0.55228,0.44772-1,1-1s1,0.44772,1,1V7.2041c0.00015,0.55214-0.44732,0.99985-0.99946,1C3.00036,8.2041,3.00018,8.2041,3,8.2041z M3,4.02441C2.45979,4.03635,2.01218,3.60811,2.00023,3.0679C2.0001,3.06186,2.00002,3.05583,2,3.0498V3C1.99986,2.44786,2.44734,2.00014,2.99948,2C2.99965,2,2.99983,2,3,2c0.55724-0.0021,1.01329,0.44288,1.0249,1c0.00577,0.40146-0.23089,0.76686-0.59961,0.92578C3.29296,3.99082,3.14745,4.02457,3,4.02441z M11.35742,4h-0.10107c-0.55229,0-1-0.44772-1-1s0.44771-1,1-1h0.10107c0.55229,0,1,0.44772,1,1S11.90971,4,11.35742,4z M7.20361,4H7.10254c-0.55228,0-1-0.44772-1-1s0.44772-1,1-1h0.10107c0.55228,0,1,0.44772,1,1S7.75589,4,7.20361,4z M15.46,4.02441c-0.40147,0.00577-0.76687-0.23089-0.92578-0.59961C14.4689,3.29272,14.43497,3.14735,14.43506,3c-0.01171-0.54045,0.41691-0.98806,0.95736-0.99978C15.39833,2.0001,15.40425,2.00002,15.41016,2H15.46c0.55214-0.00014,0.99986,0.44734,1,0.99948c0,0.00017,0,0.00035,0,0.00052C16.46205,3.55714,16.01702,4.01303,15.46,4.02441z M15.46,12.35742c-0.55214,0.00015-0.99985-0.44732-1-0.99946c0-0.00018,0-0.00036,0-0.00054v-0.10156c-0.00054-0.55228,0.44674-1.00044,0.99902-1.00098c0.55228-0.00054,1.00044,0.44674,1.00098,0.99902c0,0.00065,0,0.0013,0,0.00195v0.10156c0.00015,0.55214-0.44732,0.99985-0.99946,1C15.46036,12.35742,15.46018,12.35742,15.46,12.35742z M15.46,8.2041c-0.55214,0.00015-0.99985-0.44732-1-0.99946c0-0.00018,0-0.00036,0-0.00054V7.10254c-0.00054-0.55228,0.44674-1.00044,0.99902-1.00098C16.01131,6.10102,16.45946,6.5483,16.46,7.10059c0,0.00065,0,0.0013,0,0.00195V7.2041c0.00015,0.55214-0.44732,0.99985-0.99946,1C15.46036,8.2041,15.46018,8.2041,15.46,8.2041z"></path>
    <path class="pr-icon-primary" d="M21,22H8.53857c-0.55214,0.00014-0.99986-0.44734-1-0.99948c0-0.00017,0-0.00035,0-0.00052V8.53809c-0.00014-0.55214,0.44734-0.99986,0.99948-1c0.00017,0,0.00035,0,0.00052,0H21c0.55214-0.00015,0.99985,0.44732,1,0.99946c0,0.00018,0,0.00036,0,0.00054V21c0.00014,0.55214-0.44734,0.99986-0.99948,1C21.00035,22,21.00017,22,21,22z"></path>
</svg>
