<svg xmlns="http://www.w3.org/2000/svg" width="24" height="24" viewBox="0 0 24 24" fill="none">
    <path fill="currentColor" d="M4 7a2 2 0 0 1 2-2h12a2 2 0 0 1 2 2v5a2 2 0 0 1-2 2H6a2 2 0 0 1-2-2z" opacity=".3"/>
    <path stroke="currentColor" stroke-linecap="round" stroke-linejoin="round" stroke-width="2" d="M17 14v-3H7v3m9-6h.01M10 17v1.172a2 2 0 0 1-.586 1.414L9 20m5-3v1.172a2 2 0 0 0 .586 1.414L15 20m-9-3v.613a1 1 0 0 1-.684.948L4 19m14-2v.613a1 1 0 0 0 .684.948L20 19M6 14h12a2 2 0 0 0 2-2V7a2 2 0 0 0-2-2H6a2 2 0 0 0-2 2v5a2 2 0 0 0 2 2"/>
</svg>