<svg xmlns="http://www.w3.org/2000/svg" width="24" height="24" viewBox="0 0 24 24" fill="none">
    <path class="pr-icon-duotone-secondary" d="M15 3a4 4 0 0 0-4 4c0 .652-.193 1.29-.555 1.832L3 20h8.414c4.992 0 8.764-4.52 7.871-9.431l-.14-.774a2 2 0 0 1 .303-1.467L21 6h-2.126A4.002 4.002 0 0 0 15 3" />
    <path class="pr-icon-duotone-primary" d="m21 6 .832.555A1 1 0 0 0 21 5zM3 20l-.832-.555A1 1 0 0 0 3 21zM18.874 6l-.968.25a1 1 0 0 0 .968.75zM3.577 17.594a1 1 0 0 0 .846 1.812zm4.624-7.195a1 1 0 0 0 1.598 1.202zM15 6a1 1 0 1 0 0 2zm.002 2a1 1 0 0 0 0-2zm4.283 2.569-.984.179zm.163-2.241-.832-.555zm-.303 1.467-.984.179zM12 7a3 3 0 0 1 3-3V2a5 5 0 0 0-5 5zm8.168-1.555-1.552 2.328 1.664 1.11 1.552-2.328zM18.16 9.974l.14.774 1.968-.358-.14-.774zM3 21h8.414v-2H3zM9.613 8.277 2.168 19.445l1.664 1.11 7.445-11.168zM15 4c1.396 0 2.573.955 2.906 2.25l1.936-.5A5.002 5.002 0 0 0 15 2zm3.874 3H21V5h-2.126zM11.5 11a1.5 1.5 0 0 1 1.5 1.5h2A3.5 3.5 0 0 0 11.5 9zm1.5 1.5c0 .632-.29 1.187-.902 1.724-.631.554-1.542 1.029-2.609 1.446-1.057.414-2.193.744-3.242 1.045-1.003.289-2.01.571-2.67.879l.846 1.812c.48-.223 1.291-.457 2.376-.768 1.04-.299 2.262-.652 3.42-1.105 1.148-.45 2.31-1.026 3.199-1.806C14.325 14.93 15 13.867 15 12.5zm-3.2-.9c.058-.078.268-.243.664-.391.373-.14.765-.209 1.036-.209V9a5.17 5.17 0 0 0-1.736.336c-.534.2-1.166.535-1.563 1.063zM15 8h.002V6H15zm-5-1c0 .455-.135.9-.387 1.277l1.664 1.11A4.303 4.303 0 0 0 12 7zm8.301 3.748c.782 4.297-2.52 8.252-6.887 8.252v2c5.615 0 9.86-5.085 8.855-10.61zm.315-2.975a3 3 0 0 0-.455 2.2l1.967-.357a1 1 0 0 1 .152-.734z"/>
</svg>