<svg xmlns="http://www.w3.org/2000/svg" width="24" height="24" viewBox="0 0 24 24" fill="none">
    <path class="pr-icon-duotone-secondary" d="M10.339 19.365a.493.493 0 0 0 .483-.03l10.283-6.509a.532.532 0 0 0 .195-.65c-.37-.919-.366-1.727.06-3.178a.51.51 0 0 0-.255-.6L13.66 4.636a.498.498 0 0 0-.489.021c-1.503.938-9.645 6.023-10.657 6.752-1.116.803-1.148 3.311 0 4.004 1.018.614 6.58 3.342 7.824 3.95" />
    <path class="pr-icon-duotone-primary" d="m2.515 15.414-.517.856zm11.45-8.5a1 1 0 0 0-.929 1.772zm1.171 2.872a1 1 0 1 0 .928-1.772zm-4.314 9.55.535.845zm-.483.029.44-.899zm2.833-14.707.53.849zm.49-.021-.452.892zm7.443 8.19-.535-.845zm.195-.652-.927.374zm.06-3.177-.96-.282zm-.255-.6-.451.892zM10.784 15.36l.535.845zM20.95 7.74l-10.702 6.775 1.07 1.69L22.02 9.43zm-.38 4.242L10.286 18.49l1.07 1.69 10.283-6.51zm-9.793 6.484C9.5 17.84 4 15.142 3.032 14.558L1.998 16.27c1.067.645 6.692 3.401 7.902 3.993zm11.45-6.665c-.256-.632-.3-1.19.091-2.521l-1.918-.564c-.462 1.571-.514 2.63-.028 3.833zM3.031 14.558c-.128-.077-.37-.428-.366-1.1.003-.657.243-1.1.433-1.236l-1.168-1.624c-.927.667-1.26 1.88-1.265 2.85-.005.957.313 2.207 1.332 2.822zm.067-2.336c.977-.704 9.071-5.76 10.603-6.715l-1.06-1.697c-1.474.92-9.663 6.034-10.711 6.788zM13.21 5.529l7.444 3.761.902-1.785-7.444-3.76zm-.174 3.157 2.1 1.1.928-1.772-2.1-1.1zM9.43 15.059c-.305.9-.467 1.622-.428 2.4.038.75.262 1.476.56 2.361l1.896-.64c-.305-.901-.436-1.384-.458-1.822-.02-.412.053-.857.324-1.658zm1.397-.572L2.965 10.52l-.9 1.786 7.861 3.965zm-.54 4.004a.508.508 0 0 1 .491-.025L9.9 20.263a1.492 1.492 0 0 0 1.457-.082zM13.7 5.507a.502.502 0 0 1-.49.022l.901-1.785a1.498 1.498 0 0 0-1.47.066zm7.939 8.164c.666-.421.845-1.232.587-1.87l-1.854.748a.47.47 0 0 1 .197-.567zm.68-4.391a1.51 1.51 0 0 0-.764-1.775l-.902 1.785a.49.49 0 0 1-.253-.574zm-12.071 5.235a.587.587 0 0 1 .578-.028l-.9 1.785c.443.224.972.199 1.392-.067z"/>
</svg>