<svg xmlns="http://www.w3.org/2000/svg" width="24" height="24" fill="none"><path fill="#fff" fill-opacity=".01" d="M24 0v24H0V0z"/><path fill="#F7F9FC" d="M4 6a3 3 0 0 1 3-3h10a3 3 0 0 1 3 3v5h1a1 1 0 1 1 0 2h-1v5a3 3 0 0 1-3 3H7a3 3 0 0 1-3-3v-5H3a1 1 0 1 1 0-2h1z" opacity=".3"/><path stroke="#F7F9FC" stroke-linecap="round" stroke-width="2" d="M8 4H7a2 2 0 0 0-2 2v4c0 1.1-.9 1.995-2 2v0c1.1.005 2 .9 2 2v4a2 2 0 0 0 2 2h1m8 0h1a2 2 0 0 0 2-2v-4c0-1.1.9-1.995 2-2v0c-1.1-.005-2-.9-2-2V6a2 2 0 0 0-2-2h-1"/></svg>