<svg xmlns="http://www.w3.org/2000/svg" width="24" height="24" viewBox="0 0 24 24" fill="none">
    <path class="pr-icon-duotone-secondary" d="M19 12a7 7 0 1 1-14 0 7 7 0 0 1 14 0" />
    <path class="pr-icon-duotone-primary" d="M4.799 6.6a1 1 0 0 0-1.6-1.2zm-1.6 12a1 1 0 1 0 1.6-1.2zM20.8 5.4a1 1 0 1 0-1.599 1.2zm-1.599 12a1 1 0 0 0 1.6 1.2zM13 9a1 1 0 1 0-2 0zm-2 3a1 1 0 1 0 2 0zm1 2a1 1 0 1 0 0 2zm.002 2a1 1 0 0 0 0-2zM18 12a6 6 0 0 1-6 6v2a8 8 0 0 0 8-8zm-6 6a6 6 0 0 1-6-6H4a8 8 0 0 0 8 8zm-6-6a6 6 0 0 1 6-6V4a8 8 0 0 0-8 8zm6-6a6 6 0 0 1 6 6h2a8 8 0 0 0-8-8zm-9 6c0-2.027.67-3.895 1.799-5.4l-1.6-1.2A10.956 10.956 0 0 0 1 12zm1.799 5.4A8.956 8.956 0 0 1 3 12H1c0 2.475.819 4.762 2.2 6.6zM19.2 6.6A8.956 8.956 0 0 1 21 12h2c0-2.475-.819-4.762-2.2-6.6zM21 12c0 2.027-.67 3.895-1.799 5.4l1.6 1.2A10.956 10.956 0 0 0 23 12zM11 9v3h2V9zm1 7h.002v-2H12z"/>
</svg>