<svg xmlns="http://www.w3.org/2000/svg" width="24" height="24" viewBox="0 0 24 24" fill="none">
    <path fill="currentColor" d="M3 7a1 1 0 0 1 1-1h2.586a1 1 0 0 0 .707-.293l1.414-1.414A1 1 0 0 1 9.414 4h5.172a1 1 0 0 1 .707.293l1.414 1.414a1 1 0 0 0 .707.293H20a1 1 0 0 1 1 1v12a1 1 0 0 1-1 1H4a1 1 0 0 1-1-1z" opacity=".3"/>
    <path stroke="currentColor" stroke-linecap="round" stroke-linejoin="round" stroke-width="2" d="m16 9.5-.645 2A3.502 3.502 0 0 0 9 10.696M8 15.5l.645-2a3.502 3.502 0 0 0 6.355.804M14.586 4H9.414a1 1 0 0 0-.707.293L7.293 5.707A1 1 0 0 1 6.586 6H4a1 1 0 0 0-1 1v12a1 1 0 0 0 1 1h16a1 1 0 0 0 1-1V7a1 1 0 0 0-1-1h-2.586a1 1 0 0 1-.707-.293l-1.414-1.414A1 1 0 0 0 14.586 4"/>
</svg>