<svg xmlns="http://www.w3.org/2000/svg" width="24" height="24" fill="none"><path fill="#fff" fill-opacity=".01" d="M24 0v24H0V0z"/><g fill="#F7F9FC" opacity=".3"><path d="m6 4 2.414 2.414A2 2 0 0 0 9.828 7h4.344a2 2 0 0 0 1.414-.586L18 4l1.341 7.154C20.203 15.751 16.677 20 12 20s-8.203-4.25-7.341-8.846z"/><path d="M10 11.5a.5.5 0 1 1-1 0 .5.5 0 0 1 1 0M15 11.5a.5.5 0 1 1-1 0 .5.5 0 0 1 1 0"/></g><path fill="#F7F9FC" d="M10 11.5a.5.5 0 1 1-1 0 .5.5 0 0 1 1 0M15 11.5a.5.5 0 1 1-1 0 .5.5 0 0 1 1 0"/><path fill="#F7F9FC" d="m6 4 .707-.707a1 1 0 0 0-1.69.523zm12 0 .983-.184a1 1 0 0 0-1.69-.523zM3 13a1 1 0 1 0 0 2zm4 2a1 1 0 1 0 0-2zm14 0a1 1 0 1 0 0-2zm-4-2a1 1 0 1 0 0 2zM3.375 17.22a1 1 0 0 0 1.25 1.56zm3.75-.44a1 1 0 0 0-1.25-1.56zm12.25 2a1 1 0 1 0 1.25-1.56zm-1.25-3.56a1 1 0 1 0-1.25 1.56zm-6.678-.614a1 1 0 1 0-.894 1.788zm2 1.788a1 1 0 1 0-.894-1.788zm-1.894-.618-.447.895zm4.033-9.362.707.707zm1.431-2.23 1.342 7.154 1.965-.368-1.341-7.154zM5.641 11.338l1.342-7.154-1.966-.368-1.341 7.154zm10.652-4.217 2.414-2.414-1.414-1.414-2.414 2.414zm-11-2.414 2.414 2.414 1.414-1.414-2.414-2.414zM9.828 8h4.344V6H9.828zM3 15h4v-2H3zm18-2h-4v2h4zM4.625 18.78l2.5-2-1.25-1.56-2.5 2zm16-1.56-2.5-2-1.25 1.56 2.5 2zm-10.072-.826.553.277.894-1.789-.553-.276zm2.341.277.553-.277-.894-1.788-.553.276zM9 11.5a.5.5 0 0 1 .5-.5v2a1.5 1.5 0 0 0 1.5-1.5zm.5-.5a.5.5 0 0 1 .5.5H8A1.5 1.5 0 0 0 9.5 13zm.5.5a.5.5 0 0 1-.5.5v-2A1.5 1.5 0 0 0 8 11.5zm-.5.5a.5.5 0 0 1-.5-.5h2A1.5 1.5 0 0 0 9.5 10zm4.5-.5a.5.5 0 0 1 .5-.5v2a1.5 1.5 0 0 0 1.5-1.5zm.5-.5a.5.5 0 0 1 .5.5h-2a1.5 1.5 0 0 0 1.5 1.5zm.5.5a.5.5 0 0 1-.5.5v-2a1.5 1.5 0 0 0-1.5 1.5zm-.5.5a.5.5 0 0 1-.5-.5h2a1.5 1.5 0 0 0-1.5-1.5zm-3.394 4.67a2 2 0 0 0 1.788 0L12 14.883zM7.707 7.122A3 3 0 0 0 9.828 8V6a1 1 0 0 1-.707-.293zm7.172-1.414a1 1 0 0 1-.707.293v2a3 3 0 0 0 2.12-.879zM12 19c-4.05 0-7.105-3.68-6.359-7.662l-1.965-.368C2.698 16.182 6.697 21 12 21zm6.358-7.662C19.106 15.32 16.052 19 12 19v2c5.303 0 9.302-4.818 8.324-10.03z"/></svg>