<svg xmlns="http://www.w3.org/2000/svg" width="24" height="24" viewBox="0 0 24 24" fill="none">
    <g class="pr-icon-duotone-secondary" >
        <path d="M16 21v-4.764h4V21l-2-1z"/>
        <path d="M20 5H4a1 1 0 0 0-1 1v12a1 1 0 0 0 1 1h16a1 1 0 0 0 1-1V6a1 1 0 0 0-1-1"/>
    </g>
    <path class="pr-icon-duotone-primary-stroke" stroke-linecap="round" stroke-linejoin="round" stroke-width="2" d="M12 19H4a1 1 0 0 1-1-1V6a1 1 0 0 1 1-1h16a1 1 0 0 1 1 1v2M7 10h6m-6 4h2m7 2.236V21l2-1 2 1v-4.764M21 14a3 3 0 1 1-6 0 3 3 0 0 1 6 0"/>
</svg>