<svg xmlns="http://www.w3.org/2000/svg" width="24" height="24" fill="none"><path fill="#fff" fill-opacity=".01" d="M24 0v24H0V0z"/><g fill="#F7F9FC" opacity=".3"><path d="M16 21v-4.764h4V21l-2-1z"/><path d="M20 5H4a1 1 0 0 0-1 1v12a1 1 0 0 0 1 1h16a1 1 0 0 0 1-1V6a1 1 0 0 0-1-1"/></g><path stroke="#F7F9FC" stroke-linecap="round" stroke-linejoin="round" stroke-width="2" d="M12 19H4a1 1 0 0 1-1-1V6a1 1 0 0 1 1-1h16a1 1 0 0 1 1 1v2M7 10h6m-6 4h2m7 2.236V21l2-1 2 1v-4.764M21 14a3 3 0 1 1-6 0 3 3 0 0 1 6 0"/></svg>