<svg xmlns="http://www.w3.org/2000/svg" width="24" height="24" fill="none"><path fill="#fff" fill-opacity=".01" d="M24 0v24H0V0z"/><path fill="#F7F9FC" fill-rule="evenodd" d="M17.868 6.776A1 1 0 0 0 16.7 5.244L2.557 10.9a1 1 0 0 0-.335 1.636l4.172 4.172a1.1 1.1 0 0 0 1.555 0l1.722-1.722 1.793 1.793a1 1 0 0 0 1.415 0l9.899-9.9A1 1 0 0 0 21.7 5.244z" clip-rule="evenodd" opacity=".3"/><path stroke="#F7F9FC" stroke-linecap="round" stroke-linejoin="round" stroke-width="2" d="M2.929 11.829 7.17 16.07m4.95-4.95 4.95-4.95M7.929 11.83l4.242 4.242 9.9-9.9"/></svg>