<svg xmlns="http://www.w3.org/2000/svg" width="24" height="24" viewBox="0 0 24 24" fill="none">
    <g fill="currentColor" opacity=".3">
        <path d="M10 7a3 3 0 1 1-6 0 3 3 0 0 1 6 0M10 17a3 3 0 1 1-6 0 3 3 0 0 1 6 0M20 7a3 3 0 1 1-6 0 3 3 0 0 1 6 0M20 17a3 3 0 1 1-6 0 3 3 0 0 1 6 0"/>
    </g>
    <path stroke="currentColor" stroke-width="2" d="M10 7a3 3 0 1 1-6 0 3 3 0 0 1 6 0ZM10 17a3 3 0 1 1-6 0 3 3 0 0 1 6 0ZM20 7a3 3 0 1 1-6 0 3 3 0 0 1 6 0ZM20 17a3 3 0 1 1-6 0 3 3 0 0 1 6 0Z"/>
</svg>