<svg xmlns="http://www.w3.org/2000/svg" width="24" height="24" viewBox="0 0 24 24" fill="none">
    <g class="pr-icon-duotone-secondary">
        <path d="M17.707 3.465a1 1 0 0 0-1.414 0l-2.828 2.828a1 1 0 0 0 0 1.415l2.828 2.828a1 1 0 0 0 1.414 0l2.828-2.828a1 1 0 0 0 0-1.415zM10 5a1 1 0 0 0-1-1H5a1 1 0 0 0-1 1v4a1 1 0 0 0 1 1h4a1 1 0 0 0 1-1zM20 15a1 1 0 0 0-1-1h-4a1 1 0 0 0-1 1v4a1 1 0 0 0 1 1h4a1 1 0 0 0 1-1zM10 15a1 1 0 0 0-1-1H5a1 1 0 0 0-1 1v4a1 1 0 0 0 1 1h4a1 1 0 0 0 1-1z"/>
    </g>
    <path class="pr-icon-duotone-primary-stroke" stroke-width="2" d="M17.707 3.465a1 1 0 0 0-1.414 0l-2.828 2.828a1 1 0 0 0 0 1.415l2.828 2.828a1 1 0 0 0 1.414 0l2.828-2.828a1 1 0 0 0 0-1.415zM10 5a1 1 0 0 0-1-1H5a1 1 0 0 0-1 1v4a1 1 0 0 0 1 1h4a1 1 0 0 0 1-1zM20 15a1 1 0 0 0-1-1h-4a1 1 0 0 0-1 1v4a1 1 0 0 0 1 1h4a1 1 0 0 0 1-1zM10 15a1 1 0 0 0-1-1H5a1 1 0 0 0-1 1v4a1 1 0 0 0 1 1h4a1 1 0 0 0 1-1z"/>
</svg>