<svg xmlns="http://www.w3.org/2000/svg" width="24" height="24" viewBox="0 0 24 24" fill="none">
    <g class="pr-icon-duotone-secondary" >
        <path d="M5 5a1 1 0 0 1 1-1h12a1 1 0 0 1 1 1v15a1 1 0 0 1-1 1H6a1 1 0 0 1-1-1z"/>
        <path d="M8 7.5a.5.5 0 0 1 .5-.5h7a.5.5 0 0 1 .5.5v2a.5.5 0 0 1-.5.5h-7a.5.5 0 0 1-.5-.5zM10 13.5a.5.5 0 1 1-1 0 .5.5 0 0 1 1 0M15 13.5a.5.5 0 1 1-1 0 .5.5 0 0 1 1 0M10 17.5a.5.5 0 1 1-1 0 .5.5 0 0 1 1 0M15 17.5a.5.5 0 1 1-1 0 .5.5 0 0 1 1 0"/>
    </g>
    <path class="pr-icon-duotone-primary" d="M10 13.5a.5.5 0 1 1-1 0 .5.5 0 0 1 1 0M15 13.5a.5.5 0 1 1-1 0 .5.5 0 0 1 1 0M10 17.5a.5.5 0 1 1-1 0 .5.5 0 0 1 1 0M15 17.5a.5.5 0 1 1-1 0 .5.5 0 0 1 1 0"/>
    <path class="pr-icon-duotone-primary-stroke" stroke-width="2" d="M5 5a1 1 0 0 1 1-1h12a1 1 0 0 1 1 1v15a1 1 0 0 1-1 1H6a1 1 0 0 1-1-1z"/>
    <path class="pr-icon-duotone-primary-stroke" stroke-width="2" d="M8 7.5a.5.5 0 0 1 .5-.5h7a.5.5 0 0 1 .5.5v2a.5.5 0 0 1-.5.5h-7a.5.5 0 0 1-.5-.5zM10 13.5a.5.5 0 1 1-1 0 .5.5 0 0 1 1 0ZM15 13.5a.5.5 0 1 1-1 0 .5.5 0 0 1 1 0ZM10 17.5a.5.5 0 1 1-1 0 .5.5 0 0 1 1 0ZM15 17.5a.5.5 0 1 1-1 0 .5.5 0 0 1 1 0Z"/>
</svg>