<svg xmlns="http://www.w3.org/2000/svg" width="24" height="24" fill="none"><path fill="#fff" fill-opacity=".01" d="M24 0v24H0V0z"/><g fill="#F7F9FC" opacity=".3"><path d="M11.5 3.289a1 1 0 0 1 1 0l3.33 1.922a1 1 0 0 1 .5.866V10.5L12 13l-4.33-2.5V6.077a1 1 0 0 1 .5-.866z"/><path d="M7.67 10.5 12 13v5l-3.83 2.211a1 1 0 0 1-1 0L3.84 18.29a1 1 0 0 1-.5-.866v-3.846a1 1 0 0 1 .5-.866zM16.33 10.5l3.83 2.211a1 1 0 0 1 .5.866v3.846a1 1 0 0 1-.5.866l-3.33 1.922a1 1 0 0 1-1 0L12 18v-5z"/></g><path stroke="#F7F9FC" stroke-width="2" d="M16.33 10.5V6.077a1 1 0 0 0-.5-.866L12.5 3.29a1 1 0 0 0-1 0L8.17 5.21a1 1 0 0 0-.5.866V10.5m8.66 0L12 13m4.33-2.5 3.83 2.211a1 1 0 0 1 .5.866v3.846a1 1 0 0 1-.5.866l-3.33 1.922a1 1 0 0 1-1 0L12 18m0-5-4.33-2.5M12 13v5m-4.33-7.5-3.83 2.211a1 1 0 0 0-.5.866v3.846a1 1 0 0 0 .5.866l3.33 1.922a1 1 0 0 0 1 0L12 18m4.32-12.51L12 8m0 0L7.68 5.51M12 8v4.99m-.01.02L7.67 15.5m0 0-4.32-2.49m4.32 2.49v4.99m12.98-7.48-4.32 2.49m0 0-4.32-2.49m4.32 2.49v4.99"/></svg>