<svg xmlns="http://www.w3.org/2000/svg" width="24" height="24" viewBox="0 0 24 24" fill="none">
    <path fill="currentColor" d="M5.447 5.106A2 2 0 0 1 7.237 4H19a2 2 0 0 1 2 2v12a2 2 0 0 1-2 2H7.236a2 2 0 0 1-1.789-1.106l-3.223-6.447a1 1 0 0 1 0-.894z" opacity=".3"/>
    <path stroke="currentColor" stroke-linecap="round" stroke-width="2" d="m10.172 14.829 5.656-5.657m0 5.657-5.656-5.657m-7.948 3.275 3.223 6.447A2 2 0 0 0 7.237 20H19a2 2 0 0 0 2-2V6a2 2 0 0 0-2-2H7.236a2 2 0 0 0-1.789 1.106l-3.223 6.447a1 1 0 0 0 0 .894Z"/>
</svg>