<svg xmlns="http://www.w3.org/2000/svg" width="24" height="24" fill="none"><path fill="#fff" fill-opacity=".01" d="M24 0v24H0V0z"/><path fill="#F7F9FC" d="M17.8 4.4A1 1 0 0 0 17 4H7a1 1 0 0 0-.8.4L2.496 9.339a1 1 0 0 0 .06 1.272l9.259 10.186c.1.109.27.109.37 0l9.26-10.186a1 1 0 0 0 .06-1.272z" opacity=".3"/><path stroke="#09244B" stroke-linecap="round" stroke-linejoin="round" stroke-width="2" d="M2.5 10h19M11 4l-3 6 4 10 4-10-3-6M2.556 10.611l9.259 10.186c.1.109.27.109.37 0l9.26-10.186a1 1 0 0 0 .06-1.272L17.8 4.4A1 1 0 0 0 17 4H7a1 1 0 0 0-.8.4L2.496 9.339a1 1 0 0 0 .06 1.272"/></svg>