<svg xmlns="http://www.w3.org/2000/svg" width="24" height="24" fill="none"><path fill="#fff" fill-opacity=".01" d="M24 0v24H0V0z"/><path fill="#F7F9FC" d="M4 6a1 1 0 0 1 1-1h11.465a1 1 0 0 1 .832.445l2.333 3.5a1 1 0 0 1 0 1.11l-2.333 3.5a1 1 0 0 1-.832.445H5a1 1 0 0 1-1-1z" opacity=".3"/><path stroke="#F7F9FC" stroke-linecap="round" stroke-width="2" d="M11 14v6m8.63-11.055-2.333-3.5A1 1 0 0 0 16.465 5H5a1 1 0 0 0-1 1v7a1 1 0 0 0 1 1h11.465a1 1 0 0 0 .832-.445l2.333-3.5a1 1 0 0 0 0-1.11Z"/></svg>