<svg xmlns="http://www.w3.org/2000/svg" width="24" height="24" fill="none"><path fill="#fff" fill-opacity=".01" d="M24 0v24H0V0z"/><path fill="#F7F9FC" d="m6 10-3 2 1.698-6.79a1 1 0 0 1 1.417-.652l2.463 1.23A2 2 0 0 0 9.472 6h5.056a2 2 0 0 0 .894-.211l2.5-1.25a1 1 0 0 1 1.409.62L21 11l-3-1c.769 5.383-2.01 8.4-3.335 9.507-.417.349-.952.493-1.496.493h-2.338c-.544 0-1.079-.144-1.496-.493C8.01 18.4 5.231 15.383 6 10" opacity=".3"/><path stroke="#F7F9FC" stroke-linecap="round" stroke-linejoin="round" stroke-width="2" d="M12 14.5a1.5 1.5 0 0 1-1.5 1.5v0m1.51-1.5c0 .823.667 1.5 1.49 1.5v0M10 11h.002M14 11h.002M6 10c-.769 5.383 2.01 8.4 3.335 9.507.417.349.952.493 1.496.493h2.338c.544 0 1.079-.144 1.496-.493C15.99 18.4 18.769 15.383 18 10l3 1-1.669-5.841a1 1 0 0 0-1.409-.62l-2.5 1.25a2 2 0 0 1-.894.211H9.472a2 2 0 0 1-.894-.211L6.115 4.558a1 1 0 0 0-1.417.651L3 12z"/></svg>