<svg xmlns="http://www.w3.org/2000/svg" width="24" height="24" viewBox="0 0 24 24" fill="none">
    <path fill="currentColor" d="M22 12c0 5.523-4.477 10-10 10S2 17.523 2 12 6.477 2 12 2s10 4.477 10 10" opacity=".3"/>
    <path fill="currentColor" d="M20 12a8 8 0 0 1-8 8v2c5.523 0 10-4.477 10-10zm-8 8a8 8 0 0 1-8-8H2c0 5.523 4.477 10 10 10zm-8-8a8 8 0 0 1 8-8V2C6.477 2 2 6.477 2 12zm8-8a8 8 0 0 1 8 8h2c0-5.523-4.477-10-10-10zm0 16c-.623 0-1.613-.6-2.518-2.142C8.62 16.39 8 14.316 8 12H6c0 2.654.706 5.08 1.757 6.87C8.765 20.586 10.276 22 12 22zm-4-8c0-2.328.587-4.403 1.43-5.865C10.304 4.613 11.292 4 12 4V2c-1.793 0-3.305 1.402-4.304 3.137C6.663 6.932 6 9.357 6 12zm4-8c.707 0 1.695.613 2.57 2.135C15.414 7.597 16 9.672 16 12h2c0-2.643-.663-5.068-1.696-6.863C15.305 3.402 13.793 2 12 2zm4 8c0 2.328-.587 4.403-1.43 5.865C13.696 19.387 12.708 20 12 20v2c1.793 0 3.305-1.401 4.304-3.137C17.337 17.068 18 14.643 18 12zm-5-9v18h2V3z"/>
</svg>