<svg xmlns="http://www.w3.org/2000/svg" width="24" height="24" fill="none"><path fill="#fff" fill-opacity=".01" d="M24 0v24H0V0z"/><path fill="#F7F9FC" d="M9.6 17.421a2 2 0 0 1-1.561.75H5a2 2 0 0 1 0-4h1.76a.5.5 0 0 0 .39-.187l7.25-9.062a2 2 0 0 1 1.561-.75H19a2 2 0 1 1 0 4h-2z" opacity=".3"/><path stroke="#F7F9FC" stroke-linecap="round" stroke-linejoin="round" stroke-width="2" d="M8.121 6.293 6 4.172m0 0L3.879 6.293M6 4.172v5.657m11-1.657-7.4 9.25a2 2 0 0 1-1.561.75H5a2 2 0 0 1-2-2v0a2 2 0 0 1 2-2h1.76a.5.5 0 0 0 .39-.188l7.25-9.062a2 2 0 0 1 1.561-.75H19a2 2 0 0 1 2 2v0a2 2 0 0 1-2 2z"/></svg>