<svg xmlns="http://www.w3.org/2000/svg" width="24" height="24" viewBox="0 0 24 24" fill="none">
    <path class="pr-icon-duotone-secondary" d="M22 12c0 5.523-4.477 10-10 10S2 17.523 2 12 6.477 2 12 2s10 4.477 10 10" />
    <path class="pr-icon-duotone-primary" d="m20.849 12.01-.56.83zm-2.678-1.804-.56.83zm-3.841-6.9.259-.965zm6.588 7.46.99-.138zm.085 1.163-1 .007zM2.9 7.849a1 1 0 0 0 1.82.828zm15.347 2.177-.214.976zm1.538 1.36a1 1 0 0 0 .428-1.953zm-16.634.604.559-.83zm2.678 1.804-.559.83zm3.84 6.9-.258.965zm-6.587-7.46-.99.138zm-.085-1.163 1-.007zm18.102 4.08a1 1 0 1 0-1.821-.828zM5.752 13.974l.214-.976zm-1.538-1.36a1 1 0 1 0-.429 1.953zM9 9V8a1 1 0 0 0-1 1zm5 3v1zm0-3v1zm-5 6H8a1 1 0 0 0 1 1zm5 0v1zm-1-8a1 1 0 1 0-2 0zm-2 2a1 1 0 1 0 2 0zm2 6a1 1 0 1 0-2 0zm-2 2a1 1 0 1 0 2 0zm10.407-5.819L18.73 9.377l-1.117 1.659 2.678 1.804zm-7.336-6.908a8.002 8.002 0 0 1 5.856 6.63l1.981-.275a10.003 10.003 0 0 0-7.32-8.287zm5.856 6.63c.048.34.073.685.076 1.033l2-.014a9.935 9.935 0 0 0-.095-1.294zM4.722 8.677a8.002 8.002 0 0 1 9.35-4.404l.517-1.932C9.798 1.057 4.889 3.479 2.9 7.849zm13.312 2.325 1.752.385.428-1.954-1.752-.384zm.695-1.625c.824.555.274 1.838-.695 1.625l.428-1.953c-1.185-.26-1.856 1.309-.85 1.987zm1.56 3.463c.718.483 1.72-.016 1.713-.918l-2 .014c-.005-.743.82-1.15 1.405-.755zm-17.696-.021 2.678 1.804 1.118-1.658L3.71 11.16zm7.336 6.908a8.002 8.002 0 0 1-5.856-6.63l-1.98.275a10.002 10.002 0 0 0 7.319 8.287zm-5.856-6.63a7.931 7.931 0 0 1-.075-1.033l-2 .014c.003.436.035.868.094 1.294zm15.206 2.226a8.002 8.002 0 0 1-9.35 4.404l-.517 1.932c4.79 1.284 9.7-1.138 11.687-5.508zM5.967 12.998l-1.752-.385-.429 1.954 1.752.384zm-.696 1.625c-.823-.555-.274-1.838.696-1.625l-.429 1.953c1.185.26 1.857-1.309.85-1.987zm-1.56-3.463c-.717-.483-1.72.016-1.713.918l2-.014c.005.743-.82 1.15-1.405.755zM9 10h5V8H9zm5 1H9v2h5zm-4 1V9H8v3zm4.5-1.5a.5.5 0 0 1-.5.5v2a2.5 2.5 0 0 0 2.5-2.5zM14 10a.5.5 0 0 1 .5.5h2A2.5 2.5 0 0 0 14 8zm0 4H9v2h5zm-4 1v-3H8v3zm4.5-1.5a.5.5 0 0 1-.5.5v2a2.5 2.5 0 0 0 2.5-2.5zM14 13a.5.5 0 0 1 .5.5h2A2.5 2.5 0 0 0 14 11zm-3-6v2h2V7zm0 8v2h2v-2z"/>
</svg>