<svg xmlns="http://www.w3.org/2000/svg" width="24" height="24" viewBox="0 0 24 24" fill="none">
    <g class="pr-icon-duotone-secondary" >
        <path d="M21 12c0 1.5-4.03 6-9 6s-9-4.5-9-6 4.03-6 9-6 9 4.5 9 6"/>
        <path d="M14 12a2 2 0 1 1-4 0 2 2 0 0 1 4 0"/>
    </g>
    <path class="pr-icon-duotone-primary-stroke" stroke-width="2" d="M21 12c0 1.5-4.03 6-9 6s-9-4.5-9-6 4.03-6 9-6 9 4.5 9 6Z"/>
    <path class="pr-icon-duotone-primary-stroke" stroke-width="2" d="M14 12a2 2 0 1 1-4 0 2 2 0 0 1 4 0Z"/>
</svg>