<svg xmlns="http://www.w3.org/2000/svg" width="24" height="24" viewBox="0 0 24 24" fill="none">
    <path fill="currentColor" d="M4 4a2 2 0 0 1 2-2h7.586A2 2 0 0 1 15 2.586L19.414 7A2 2 0 0 1 20 8.414V20a2 2 0 0 1-2 2H6a2 2 0 0 1-2-2z" opacity=".3"/>
    <path fill="currentColor" d="M3 17a1 1 0 1 0 0 2zm6.328 2a1 1 0 1 0 0-2zm-1.62-4.536a1 1 0 1 0-1.415 1.415zM9.827 18l.708.707a1 1 0 0 0 0-1.414zm-3.535 2.121a1 1 0 1 0 1.414 1.415zm8-16.828L13.586 4zM18 8.414V9h2v-.586zM18 9v11h2V9zm0 11h-6v2h6zM6 4h7V2H6zm7 0h.586V2H13zm.586 0L18 8.414 19.414 7 15 2.586zM12 3v5.5h2V3zm1.5 7H19V8h-5.5zM6 12V4H4v8zm-3 7h6.328v-2H3zm3.293-3.121 2.828 2.828 1.415-1.414-2.829-2.828zm2.828 1.414L6.293 20.12l1.414 1.415 2.829-2.829zM13.586 4 15 2.586A2 2 0 0 0 13.586 2zM6 2a2 2 0 0 0-2 2h2zm6 6.5a1.5 1.5 0 0 0 1.5 1.5V8a.5.5 0 0 1 .5.5zM18 20v2a2 2 0 0 0 2-2zm2-11.586A2 2 0 0 0 19.414 7L18 8.414z"/>
</svg>