<svg xmlns="http://www.w3.org/2000/svg" width="24" height="24" fill="none"><path fill="#fff" fill-opacity=".01" d="M24 0v24H0V0z"/><path fill="#F7F9FC" d="M4 4a2 2 0 0 1 2-2h7.586A2 2 0 0 1 15 2.586L19.414 7A2 2 0 0 1 20 8.414V20a2 2 0 0 1-2 2H6a2 2 0 0 1-2-2z" opacity=".3"/><path stroke="#F7F9FC" stroke-width="2" d="M19 9v-.586a1 1 0 0 0-.293-.707l-4.414-4.414A1 1 0 0 0 13.586 3H13m6 6v3m0-3h-5.5a.5.5 0 0 1-.5-.5V3m0 0H6a1 1 0 0 0-1 1v16a1 1 0 0 0 1 1h5m3.025-5.975 4.95 4.95M20 17.5a3.5 3.5 0 1 1-7 0 3.5 3.5 0 0 1 7 0Z"/></svg>