<svg xmlns="http://www.w3.org/2000/svg" width="24" height="24" viewBox="0 0 24 24" fill="none">
    <path fill="currentColor" fill-rule="evenodd" d="M2 5a2 2 0 0 1 2-2h5.52a2 2 0 0 1 1.561.75l1.4 1.75H20a2 2 0 0 1 2 2V19a2 2 0 0 1-2 2H4a2 2 0 0 1-2-2z" clip-rule="evenodd" opacity=".3"/>
    <path stroke="currentColor" stroke-width="2" d="M21 12V7.5a1 1 0 0 0-1-1h-7.52a1 1 0 0 1-.78-.375l-1.4-1.75A1 1 0 0 0 9.52 4H4a1 1 0 0 0-1 1v14a1 1 0 0 0 1 1h7m4.025-4.975 4.95 4.95M21 17.5a3.5 3.5 0 1 1-7 0 3.5 3.5 0 0 1 7 0Z"/>
</svg>