<svg xmlns="http://www.w3.org/2000/svg" width="24" height="24" viewBox="0 0 24 24" fill="none">
    <path fill="currentColor" d="M3 5a1 1 0 0 1 1-1h5.52a1 1 0 0 1 .78.375l1.4 1.75a1 1 0 0 0 .78.375H20a1 1 0 0 1 1 1V19a1 1 0 0 1-1 1H4a1 1 0 0 1-1-1z" opacity=".3"/>
    <path stroke="currentColor" stroke-linecap="round" stroke-width="2" d="M16 15h1m-4-2h1m2-2h1m-4-2h1m-1 8h1M9.52 4H4a1 1 0 0 0-1 1v14a1 1 0 0 0 1 1h16a1 1 0 0 0 1-1V7.5a1 1 0 0 0-1-1h-7.52a1 1 0 0 1-.78-.375l-1.4-1.75A1 1 0 0 0 9.52 4Z"/>
</svg>