<svg xmlns="http://www.w3.org/2000/svg" width="24" height="24" viewBox="0 0 24 24" fill="none">
    <path class="pr-icon-duotone-secondary" d="M3 18.252V5a1 1 0 0 1 1-1h5.52a1 1 0 0 1 .78.375l1.4 1.75a1 1 0 0 0 .78.375H19a1 1 0 0 1 1 1v1.928a1 1 0 0 1-.18.572h.836a1 1 0 0 1 .958 1.287l-2.4 8a1 1 0 0 1-.958.713H4.353a1 1 0 0 1-1-.986.987.987 0 0 1-.353-.762" />
    <path class="pr-icon-duotone-primary-stroke" stroke-linecap="round" stroke-width="2" d="M18 20H4a1 1 0 0 1-1-1V5a1 1 0 0 1 1-1h5.52a1 1 0 0 1 .78.375l1.4 1.75a1 1 0 0 0 .78.375H19a1 1 0 0 1 1 1V10M4.353 20h13.903a1 1 0 0 0 .958-.713l2.4-8A1 1 0 0 0 20.656 10H6.745a1 1 0 0 0-.958.713l-2.392 8A1 1 0 0 0 4.353 20Z"/>
</svg>