<svg xmlns="http://www.w3.org/2000/svg" width="24" height="24" fill="none"><path fill="#fff" fill-opacity=".01" d="M24 0v24H0V0z"/><path fill="#F7F9FC" d="M3 5a1 1 0 0 1 1-1h5.52a1 1 0 0 1 .78.375l1.4 1.75a1 1 0 0 0 .78.375H20a1 1 0 0 1 1 1V19a1 1 0 0 1-1 1H4a1 1 0 0 1-1-1z" opacity=".3"/><path stroke="#F7F9FC" stroke-linecap="round" stroke-linejoin="round" stroke-width="2" d="M9 13h.002M12 13h.002M15 13h.002M9.519 4H4a1 1 0 0 0-1 1v14a1 1 0 0 0 1 1h16a1 1 0 0 0 1-1V7.5a1 1 0 0 0-1-1h-7.52a1 1 0 0 1-.78-.375l-1.4-1.75A1 1 0 0 0 9.52 4"/></svg>