<svg xmlns="http://www.w3.org/2000/svg" width="24" height="24" fill="none"><path fill="#fff" fill-opacity=".01" d="M24 0v24H0V0z"/><g fill="#F7F9FC" opacity=".3"><path d="M5 5a2 2 0 1 1 4 0v2a2 2 0 1 1-4 0zM5 17a2 2 0 1 1 4 0v2a2 2 0 1 1-4 0zM15 5a2 2 0 1 1 4 0v2a2 2 0 1 1-4 0zM15 17a2 2 0 1 1 4 0v2a2 2 0 1 1-4 0z"/></g><path stroke="#F7F9FC" stroke-linecap="round" stroke-width="2" d="M9 6h6M9 18h6M12 6v12m5 3v0a2 2 0 0 0 2-2v-2a2 2 0 0 0-2-2v0a2 2 0 0 0-2 2v2a2 2 0 0 0 2 2Zm0-12v0a2 2 0 0 0 2-2V5a2 2 0 0 0-2-2v0a2 2 0 0 0-2 2v2a2 2 0 0 0 2 2ZM7 21v0a2 2 0 0 0 2-2v-2a2 2 0 0 0-2-2v0a2 2 0 0 0-2 2v2a2 2 0 0 0 2 2ZM7 9v0a2 2 0 0 0 2-2V5a2 2 0 0 0-2-2v0a2 2 0 0 0-2 2v2a2 2 0 0 0 2 2Z"/></svg>