<svg xmlns="http://www.w3.org/2000/svg" width="24" height="24" fill="none"><path fill="#fff" fill-opacity=".01" d="M24 0v24H0V0z"/><path fill="#F7F9FC" d="M20.4 17C17.258 24.068 3 21.5 3 12 3 5.664 11.834.794 16 4c1.524 1.172 1.298 3.587 2 5 1.133 2.28 4.4 3.5 2.4 8" opacity=".3"/><path stroke="#F7F9FC" stroke-width="2" d="M15 12a3 3 0 1 1-6 0 3 3 0 0 1 6 0Z"/><path stroke="#F7F9FC" stroke-width="2" d="M20.4 17C17.258 24.068 3 21.5 3 12 3 5.664 11.834.794 16 4c1.524 1.172 1.298 3.587 2 5 1.133 2.28 4.4 3.5 2.4 8Z"/></svg>