<svg xmlns="http://www.w3.org/2000/svg" width="24" height="24" viewBox="0 0 24 24" fill="none">
    <path class="pr-icon-duotone-secondary" fill-rule="evenodd" d="M3.146 5.737C4.39 5.076 7.16 4 12 4c4.84 0 7.61 1.076 8.854 1.737.895.477 1.127 1.496.828 2.293l-2.576 6.87a1.517 1.517 0 0 1-1.843.92C16.34 15.555 14.153 15 12 15c-2.152 0-4.339.554-5.263.82a1.517 1.517 0 0 1-1.843-.92L2.318 8.03c-.299-.797-.067-1.816.828-2.293" clip-rule="evenodd" />
    <path class="pr-icon-duotone-primary-stroke" stroke-linecap="round" stroke-linejoin="round" stroke-width="2" d="M6 15 3.255 7.679c-.152-.405-.02-.856.361-1.059C4.706 6.04 7.313 5 12 5s7.294 1.04 8.384 1.62c.382.203.513.654.361 1.059L18 15m-8-4-.233.291A3.16 3.16 0 0 0 10 15.5v0a3.16 3.16 0 0 1 .233 4.209L10 20m4-9-.233.291A3.16 3.16 0 0 0 14 15.5v0a3.16 3.16 0 0 1 .233 4.209L14 20"/>
</svg>