<svg xmlns="http://www.w3.org/2000/svg" width="24" height="24" fill="none"><path fill="#fff" fill-opacity=".01" d="M24 0v24H0V0z"/><g fill="#F7F9FC" opacity=".3"><path d="M21 12a9 9 0 1 1-18 0 9 9 0 0 1 18 0"/><path d="M16 9.5a1.5 1.5 0 1 1-3 0 1.5 1.5 0 0 1 3 0M13 15.5a.5.5 0 1 1-1 0 .5.5 0 0 1 1 0"/></g><path fill="#F7F9FC" d="M13 15.5a.5.5 0 1 1-1 0 .5.5 0 0 1 1 0"/><path stroke="#F7F9FC" stroke-linecap="round" stroke-width="2" d="M8 12h.002M21 12a9 9 0 1 1-18 0 9 9 0 0 1 18 0Zm-5-2.5a1.5 1.5 0 1 1-3 0 1.5 1.5 0 0 1 3 0Zm-3 6a.5.5 0 1 1-1 0 .5.5 0 0 1 1 0Z"/></svg>