<svg xmlns="http://www.w3.org/2000/svg" width="24" height="24" viewBox="0 0 24 24" fill="none">
    <path fill="currentColor" fill-rule="evenodd" d="M5 8.416a6.5 6.5 0 0 1 12.586-2.204A6.002 6.002 0 0 1 16 18H7a5 5 0 0 1-2-9.584" clip-rule="evenodd" opacity=".3"/>
    <path fill="currentColor" d="M10 18.5a.5.5 0 1 1-1 0 .5.5 0 0 1 1 0M15 15.5a.5.5 0 1 1-1 0 .5.5 0 0 1 1 0"/>
    <path stroke="currentColor" stroke-linecap="round" stroke-linejoin="round" stroke-width="2" d="M5 16.465a4.002 4.002 0 0 1 1.034-7.348 5.5 5.5 0 0 1 10.777-2.052A5.001 5.001 0 0 1 19 16m-8-2a1 1 0 1 1-2 0 1 1 0 0 1 2 0m4 6a1 1 0 1 1-2 0 1 1 0 0 1 2 0m-5-1.5a.5.5 0 1 1-1 0 .5.5 0 0 1 1 0m5-3a.5.5 0 1 1-1 0 .5.5 0 0 1 1 0"/>
</svg>