<svg xmlns="http://www.w3.org/2000/svg" width="24" height="24" fill="none"><path fill="#fff" fill-opacity=".01" d="M24 0v24H0V0z"/><path fill="#F7F9FC" d="M8 13V5.5a1.5 1.5 0 1 1 3 0v-2a1.5 1.5 0 0 1 3 0v7a1.5 1.5 0 0 1 3 0v1a1.5 1.5 0 0 1 3 0V14a7 7 0 0 1-7 7h-.674a7 7 0 0 1-6.26-3.87L3 11c2-1 3-.5 5 2" opacity=".3"/><path stroke="#F7F9FC" stroke-linecap="round" stroke-linejoin="round" stroke-width="2" d="M11 11V5.5a1.5 1.5 0 0 0-3 0V13c-2-2.5-3-3-5-2l3.065 6.13A7 7 0 0 0 12.326 21H13a7 7 0 0 0 7-7v-1m-9-1V3.5a1.5 1.5 0 0 1 3 0V11v-.5a1.5 1.5 0 0 1 3 0V12v-.5a1.5 1.5 0 0 1 3 0v1.833"/></svg>