<svg xmlns="http://www.w3.org/2000/svg" width="24" height="24" viewBox="0 0 24 24" fill="none">
    <g class="pr-icon-duotone-secondary">
        <path d="M4 8a4 4 0 0 1 4-4h8a4 4 0 0 1 4 4v8a4 4 0 0 1-4 4H8a4 4 0 0 1-4-4z"/>
        <path d="M15 12a3 3 0 1 1-6 0 3 3 0 0 1 6 0"/>
    </g>
    <path class="pr-icon-duotone-primary-stroke" stroke-linecap="round" stroke-linejoin="round" stroke-width="2" d="M16.5 7.5h.002M15 12a3 3 0 1 1-6 0 3 3 0 0 1 6 0m-7 8h8a4 4 0 0 0 4-4V8a4 4 0 0 0-4-4H8a4 4 0 0 0-4 4v8a4 4 0 0 0 4 4"/>
</svg>