<svg xmlns="http://www.w3.org/2000/svg" width="24" height="24" fill="none"><path fill="#fff" fill-opacity=".01" d="M24 0v24H0V0z"/><path fill="#F7F9FC" d="M12 19c4.97 0 9-3.358 9-7.5C21 7.358 16.97 4 12 4s-9 3.358-9 7.5c0 2.808 1.851 5.255 4.592 6.54L7 21l3.22-2.147c.575.096 1.17.147 1.78.147" opacity=".3"/><path stroke="#F7F9FC" stroke-linecap="round" stroke-linejoin="round" stroke-width="2" d="M10 8v7m4-5-2.5 2.5L14 15m7-3.5c0 4.142-4.03 7.5-9 7.5-.61 0-1.205-.05-1.78-.147L7 21l.592-2.96C4.852 16.755 3 14.308 3 11.5 3 7.358 7.03 4 12 4s9 3.358 9 7.5"/></svg>