<svg width="24" height="24" viewBox="0 0 24 24" fill="none" xmlns="http://www.w3.org/2000/svg">
    <path opacity="0.3" d="M9.80502 5.1947L3.35253 11.6465C3.15724 11.8418 3.15724 12.1584 3.35254 12.3537L9.80504 18.8051C10.246 19.2461 11 18.9337 11 18.3101L11 14.9999L20 14.9999C20.5522 14.9999 21 14.5522 21 13.9999L21 9.99995C21 9.44767 20.5522 8.99995 20 8.99995L11 8.99995L11 5.6897C11 5.06609 10.246 4.75376 9.80502 5.1947Z" fill="#363F4D"/>
    <path d="M9.80502 5.1947L3.35253 11.6465C3.15724 11.8418 3.15724 12.1584 3.35254 12.3537L9.80504 18.8051C10.246 19.2461 11 18.9337 11 18.3101L11 14.9999L20 14.9999C20.5522 14.9999 21 14.5522 21 13.9999L21 9.99995C21 9.44767 20.5522 8.99995 20 8.99995L11 8.99995L11 5.6897C11 5.06609 10.246 4.75376 9.80502 5.1947Z" stroke="#363F4D" stroke-width="2" stroke-linecap="round" stroke-linejoin="round"/>
</svg>
