<svg xmlns="http://www.w3.org/2000/svg" width="24" height="24" viewBox="0 0 24 24" fill="none">
    <path class="pr-icon-duotone-secondary" d="M20 4H4a1 1 0 0 0-1 1v14a1 1 0 0 0 1 1h16a1 1 0 0 0 1-1V5a1 1 0 0 0-1-1" />
    <path class="pr-icon-duotone-primary" d="M5 5a.5.5 0 1 1-1 0 .5.5 0 0 1 1 0M5 12a.5.5 0 1 1-1 0 .5.5 0 0 1 1 0M5 19a.5.5 0 1 1-1 0 .5.5 0 0 1 1 0"/>
    <path class="pr-icon-duotone-primary-stroke" stroke-linecap="round" stroke-width="2" d="M9 5h11M9 12h11M9 19h11M5 5a.5.5 0 1 1-1 0 .5.5 0 0 1 1 0Zm0 7a.5.5 0 1 1-1 0 .5.5 0 0 1 1 0Zm0 7a.5.5 0 1 1-1 0 .5.5 0 0 1 1 0Z"/>
</svg>