<svg xmlns="http://www.w3.org/2000/svg" width="24" height="24" fill="none"><path fill="#fff" fill-opacity=".01" d="M24 0v24H0V0z"/><path fill="#F7F9FC" d="M22 12c0 5.523-4.477 10-10 10S2 17.523 2 12 6.477 2 12 2s10 4.477 10 10" opacity=".3"/><circle cx="12" cy="12" r="9" stroke="#F7F9FC" stroke-dasharray="0.5 5" stroke-linecap="round" stroke-width="2"/><path stroke="#F7F9FC" stroke-width="2" d="M17 12a5 5 0 1 1-10 0 5 5 0 0 1 10 0Z"/><path stroke="#F7F9FC" stroke-width="2" d="M13 12a1 1 0 1 1-2 0 1 1 0 0 1 2 0Z"/></svg>