<svg xmlns="http://www.w3.org/2000/svg" width="24" height="24" viewBox="0 0 24 24" fill="none">
    <path class="pr-icon-duotone-secondary" d="M12 7c-2.035 0-3.925.352-5.344.96-.707.303-1.344.69-1.818 1.17C4.36 9.614 4 10.248 4 11s.36 1.386.838 1.87c.474.48 1.11.867 1.818 1.17.112.048.226.094.343.139-.026 1.847-.443 3.697-.72 4.73-.243.9.15 1.997 1.201 2.358.929.319 2.519.733 4.52.733 2.001 0 3.591-.414 4.52-.733 1.051-.36 1.444-1.459 1.202-2.358-.279-1.033-.695-2.883-.72-4.73.116-.045.23-.09.342-.139.707-.303 1.344-.69 1.818-1.17.478-.484.838-1.118.838-1.87s-.36-1.386-.838-1.87c-.474-.48-1.11-.867-1.818-1.17C15.925 7.352 14.035 7 12 7"/>
    <path class="pr-icon-duotone-primary-stroke" stroke-width="2" d="M8 14c0 2.035-.46 4.07-.756 5.169-.13.48.09.99.56 1.152.852.292 2.331.679 4.196.679 1.865 0 3.344-.387 4.195-.679.471-.162.69-.672.561-1.152C16.46 18.07 16 16.035 16 14m3-3c0 1.657-3.134 3-7 3s-7-1.343-7-3 3.134-3 7-3 7 1.343 7 3Z"/>
    <path class="pr-icon-duotone-primary" d="M15 11c0-.552-1.343-1-3-1s-3 .448-3 1c0 .553 1.343 1 3 1s3-.447 3-1"/>
    <path class="pr-icon-duotone-primary" fill-rule="evenodd" d="M9.44 1.432a5.64 5.64 0 0 1-2.133 2.365c-.314.193-.288.23 0 .407a5.64 5.64 0 0 1 2.134 2.365c.216.45.25.402.443 0a5.64 5.64 0 0 1 2.134-2.365c.315-.193.288-.23 0-.407a5.64 5.64 0 0 1-2.134-2.365c-.193-.402-.227-.45-.443 0M15.834 3.288c-.354.652-.91 1.2-1.603 1.577-.238.13-.216.153 0 .271a3.96 3.96 0 0 1 1.603 1.577c.16.297.187.27.333 0a3.96 3.96 0 0 1 1.602-1.577c.238-.13.216-.154 0-.271a3.961 3.961 0 0 1-1.602-1.577c-.146-.27-.173-.297-.334 0" clip-rule="evenodd"/>
</svg>