<svg xmlns="http://www.w3.org/2000/svg" width="24" height="24" fill="none"><path fill="#fff" fill-opacity=".01" d="M24 0v24H0V0z"/><path fill="#F7F9FC" d="M3 7.5A3.5 3.5 0 0 1 6.5 4h11A3.5 3.5 0 0 1 21 7.5V15a1 1 0 0 1-1 1H4a1 1 0 0 1-1-1z" opacity=".3"/><path fill="#F7F9FC" d="M17 16a1 1 0 1 0-2 0zm-2 4a1 1 0 1 0 2 0zM6 8a1 1 0 0 0 0 2zm1 2a1 1 0 0 0 0-2zm-.5-5h11V3h-11zM20 7.5V15h2V7.5zm0 7.5H4v2h16zM4 15V7.5H2V15zm5-7.5V16h2V7.5zm6 8.5v4h2v-4zm-9-6h1V8H6zm-2 5H2a2 2 0 0 0 2 2zm16 0v2a2 2 0 0 0 2-2zM17.5 5A2.5 2.5 0 0 1 20 7.5h2A4.5 4.5 0 0 0 17.5 3zm-11 0A2.5 2.5 0 0 1 9 7.5h2A4.5 4.5 0 0 0 6.5 3zm0-2A4.5 4.5 0 0 0 2 7.5h2A2.5 2.5 0 0 1 6.5 5z"/></svg>