<svg xmlns="http://www.w3.org/2000/svg" width="24" height="24" viewBox="0 0 24 24" fill="none">
    <g class="pr-icon-duotone-secondary">
        <path d="M20 15.5a4.5 4.5 0 0 1-4.5 4.5h-9a3.5 3.5 0 0 1-.395-6.978 5 5 0 1 1 9.8-2.004 4.5 4.5 0 0 1 4.095 4.482"/>
        <path d="M10.6 11.903a5.6 5.6 0 0 0 5.105-7.905A6.402 6.402 0 0 1 14.6 16.703a6.402 6.402 0 0 1-6.305-5.295 5.58 5.58 0 0 0 2.305.495"/>
    </g>
    <path class="pr-icon-duotone-primary-stroke" stroke-linejoin="round" stroke-width="2" d="M15.27 9.396c.587-.886.93-1.95.93-3.093a5.58 5.58 0 0 0-.495-2.305 6.402 6.402 0 0 1 4.066 10.077v.004m-4.502-4.683c.3.491.518 1.038.635 1.622a4.504 4.504 0 0 1 3.867 3.06m-4.502-4.682a5 5 0 0 0-9.165 3.626A3.5 3.5 0 0 0 6.5 20h9a4.5 4.5 0 0 0 4.271-5.921"/>
</svg>