<svg xmlns="http://www.w3.org/2000/svg" width="24" height="24" viewBox="0 0 24 24" fill="none">
    <g class="pr-icon-duotone-secondary" >
        <path d="M21 12a9 9 0 1 1-18 0 9 9 0 0 1 18 0"/>
        <path d="M13 8a1 1 0 1 1-2 0 1 1 0 0 1 2 0M9 12a1 1 0 1 1-2 0 1 1 0 0 1 2 0M13 16a1 1 0 1 1-2 0 1 1 0 0 1 2 0M17 12a1 1 0 1 1-2 0 1 1 0 0 1 2 0"/>
    </g>
    <path class="pr-icon-duotone-primary-stroke" stroke-linecap="round" stroke-width="2" d="M12 21a9 9 0 1 0 0-18 9 9 0 0 0 0 18Zm0 0h8M13 8a1 1 0 1 1-2 0 1 1 0 0 1 2 0Zm-4 4a1 1 0 1 1-2 0 1 1 0 0 1 2 0Zm4 4a1 1 0 1 1-2 0 1 1 0 0 1 2 0Zm4-4a1 1 0 1 1-2 0 1 1 0 0 1 2 0Z"/>
</svg>