<svg xmlns="http://www.w3.org/2000/svg" width="24" height="24" fill="none"><path fill="#fff" fill-opacity=".01" d="M24 0v24H0V0z"/><g fill="#F7F9FC" opacity=".3"><path d="M7.152 14.252c-2.631.227-4.525-2.471-3.06-4.668A30.512 30.512 0 0 1 6 7c3.603-4.324 8.397-4.324 12 0 .675.81 1.32 1.7 1.908 2.583 1.465 2.197-.429 4.895-3.06 4.668C15.195 14.109 13.462 14 12 14c-1.462 0-3.195.108-4.848.25"/><path d="M12.349 21a2 2 0 0 0 1.923-2.549L13 14.001h-2l-1.272 4.45a2 2 0 0 0 1.924 2.55z"/></g><path stroke="#F7F9FC" stroke-width="2" d="m13 14 1.272 4.451a2 2 0 0 1-1.924 2.55h-.697a2 2 0 0 1-1.923-2.55L11 14.001m3.401-9.5A3 3 0 0 0 19 8.236M6 7c-.675.81-1.32 1.7-1.908 2.583-1.465 2.197.429 4.895 3.06 4.668C8.805 14.109 10.538 14 12 14c1.462 0 3.195.108 4.848.25 2.631.228 4.525-2.47 3.06-4.667A30.525 30.525 0 0 0 18 7C14.397 2.677 9.603 2.677 6 7Z"/></svg>