<svg xmlns="http://www.w3.org/2000/svg" width="24" height="24" viewBox="0 0 24 24" fill="none">
    <path class="pr-icon-duotone-secondary" d="M12 2a7 7 0 0 0-7 7v3.528a1 1 0 0 1-.105.447l-1.717 3.433A1.1 1.1 0 0 0 4.162 18h3.964a4.002 4.002 0 0 0 7.748 0h3.964a1.1 1.1 0 0 0 .984-1.592l-1.716-3.433a1 1 0 0 1-.106-.447V9a7 7 0 0 0-7-7" />
    <path class="pr-icon-duotone-primary-stroke" stroke-linecap="round" stroke-width="2" d="M9 17a3 3 0 0 0 5 2.236M9 17h3.5M9 17H4.162a.1.1 0 0 1-.09-.145l1.717-3.433A2 2 0 0 0 6 12.528V10.5m.544-4A6.001 6.001 0 0 1 18 9v3.528a2 2 0 0 0 .211.894l1.717 3.433a.1.1 0 0 1-.09.145H17M4.222 4.223l15.556 15.556"/>
</svg>