<svg xmlns="http://www.w3.org/2000/svg" width="24" height="24" viewBox="0 0 24 24" fill="none">
    <g class="pr-icon-duotone-secondary">
        <path d="M6 6a2 2 0 1 1 4 0v2a2 2 0 1 1-4 0zM6 15a2 2 0 1 1 4 0 2 2 0 0 1-4 0"/>
    </g>
    <path class="pr-icon-duotone-primary-stroke" stroke-linecap="round" stroke-linejoin="round" stroke-width="2" d="M17 5v14m-2.828-2L17 19.828 19.828 17M10 15.01c0 3-2.5 4.99-2.5 4.99m.5-3a2 2 0 0 0 2-2v0a2 2 0 0 0-2-2v0a2 2 0 0 0-2 2v0a2 2 0 0 0 2 2m0-7a2 2 0 0 0 2-2V6a2 2 0 0 0-2-2v0a2 2 0 0 0-2 2v2a2 2 0 0 0 2 2"/>
</svg>