<svg xmlns="http://www.w3.org/2000/svg" width="24" height="24" viewBox="0 0 24 24" fill="none">
    <path class="pr-icon-duotone-secondary" d="M11.25 3.433a1.5 1.5 0 0 1 1.5 0l3.069 1.772 3.225 1.862a1.5 1.5 0 0 1 .75 1.299v7.268a1.5 1.5 0 0 1-.75 1.299l-6.294 3.634a1.5 1.5 0 0 1-1.5 0l-6.294-3.634a1.5 1.5 0 0 1-.75-1.299V8.366a1.5 1.5 0 0 1 .75-1.299z" />
    <path class="pr-icon-duotone-primary" d="M13 12.01a1 1 0 1 0-2 0zm-2 8.49a1 1 0 1 0 2 0zM8.02 9.701l-.5.866zm7.8-4.496.5-.866zm-3.069 6.362-.5-.866zm-1.5 0 .5-.866zm1.5 9 .5.866zm-1.5 0-.5.866zm7.794-3.634-.5-.866zm0-9.866-.5.866zM12.75 3.433l-.5.866zm6.044 4.933v7.268h2V8.366zm-.25 7.701-6.294 3.634 1 1.732 6.294-3.634zm-6.794 3.634-6.294-3.634-1 1.732 6.294 3.634zm-6.544-4.067V8.366h-2v7.268zm.25-7.701 6.294-3.634-1-1.732-6.294 3.634zM19 6.803l-6.75 3.898 1 1.732L20 8.536zm-8 5.207v8.49h2v-8.49zm.75-1.309L8.52 8.835l-1 1.732 3.231 1.866zM8.52 8.835 5 6.804 4 8.536l3.519 2.031zm6.8-4.497-7.8 4.497 1 1.733 7.8-4.497zM12.25 4.3l3.069 1.772 1-1.732-3.069-1.772zm3.069 1.772 3.225 1.862 1-1.732-3.225-1.862zM12.25 10.7a.5.5 0 0 1-.5 0l-1 1.732a2.5 2.5 0 0 0 2.5 0zM5.206 8.366a.5.5 0 0 1 .25-.433l-1-1.732a2.5 2.5 0 0 0-1.25 2.165zm.25 7.701a.5.5 0 0 1-.25-.433h-2a2.5 2.5 0 0 0 1.25 2.165zm6.794 3.634a.5.5 0 0 1-.5 0l-1 1.732a2.5 2.5 0 0 0 2.5 0zm6.544-4.067a.5.5 0 0 1-.25.433l1 1.732a2.5 2.5 0 0 0 1.25-2.165zm2-7.268a2.5 2.5 0 0 0-1.25-2.165l-1 1.732a.5.5 0 0 1 .25.433zM11.75 4.299a.5.5 0 0 1 .5 0l1-1.732a2.5 2.5 0 0 0-2.5 0z"/>
</svg>