<svg xmlns="http://www.w3.org/2000/svg" width="24" height="24" viewBox="0 0 24 24" fill="none">
    <g fill="currentColor" opacity=".3">
        <path d="M4 5a2 2 0 0 1 2-2h10a2 2 0 0 1 2 2v2a2 2 0 0 1-2 2H6a2 2 0 0 1-2-2zM9 16a1 1 0 0 1 1-1h2a1 1 0 0 1 1 1v4a1 1 0 0 1-1 1h-2a1 1 0 0 1-1-1z"/>
    </g>
    <path stroke="currentColor" stroke-width="2" d="M18 6h2a1 1 0 0 1 1 1v1.38a4 4 0 0 1-3.602 3.98l-5.498.55a1 1 0 0 0-.9.995V15m1 0h-2a1 1 0 0 0-1 1v4a1 1 0 0 0 1 1h2a1 1 0 0 0 1-1v-4a1 1 0 0 0-1-1ZM6 9h10a2 2 0 0 0 2-2V5a2 2 0 0 0-2-2H6a2 2 0 0 0-2 2v2a2 2 0 0 0 2 2Z"/>
</svg>