<svg xmlns="http://www.w3.org/2000/svg" width="24" height="24" viewBox="0 0 24 24" fill="none">
    <g fill="currentColor" opacity=".3">
        <path d="M10.5 11.738a4.25 4.25 0 0 0-2.205-3.726c-.926-.508-2.048.017-2.153 1.068A29.45 29.45 0 0 0 6 12c0 1.143.063 2.131.142 2.92.105 1.05 1.227 1.576 2.153 1.068a4.25 4.25 0 0 0 2.205-3.726zM13.5 11.738a4.25 4.25 0 0 1 2.205-3.726c.926-.508 2.048.017 2.153 1.068.079.789.142 1.777.142 2.92s-.063 2.131-.142 2.92c-.105 1.05-1.227 1.576-2.153 1.068a4.25 4.25 0 0 1-2.205-3.726z"/>
    </g>
    <path stroke="currentColor" stroke-linecap="round" stroke-linejoin="round" stroke-width="2" d="m3 6 1 1M3 18l1-1m-2-5h1m18-6-1 1m1 11-1-1m2-5h-1M6 12c0 1.143.063 2.131.142 2.92.105 1.05 1.227 1.576 2.153 1.068v0a4.25 4.25 0 0 0 2.205-3.726v-.524a4.25 4.25 0 0 0-2.205-3.726v0c-.926-.508-2.048.017-2.153 1.068A29.45 29.45 0 0 0 6 12m12 0c0 1.143-.063 2.131-.142 2.92-.105 1.05-1.227 1.576-2.153 1.068v0a4.25 4.25 0 0 1-2.205-3.726v-.524a4.25 4.25 0 0 1 2.205-3.726v0c.926-.508 2.048.017 2.153 1.068.079.789.142 1.777.142 2.92"/>
</svg>