<svg xmlns="http://www.w3.org/2000/svg" width="24" height="24" viewBox="0 0 24 24" fill="none">
    <g class="pr-icon-duotone-secondary" >
        <path d="M19.611 9.01h-2.5a1.111 1.111 0 0 1-.268-2.19 1.528 1.528 0 0 1 2.994-.57 1.39 1.39 0 0 1-.226 2.76"/>
        <path d="M7.561 13.785A6.223 6.223 0 0 0 13.235 5a7.114 7.114 0 0 1-1.228 14.119A7.114 7.114 0 0 1 5 13.235a6.2 6.2 0 0 0 2.561.55"/>
        <path d="M12 17.5A2.5 2.5 0 0 1 9.5 20H5a2 2 0 0 1-.483-3.941 2.75 2.75 0 0 1 5.388-1.026A2.5 2.5 0 0 1 12 17.5"/>
    </g>
    <path class="pr-icon-duotone-primary-stroke" stroke-linejoin="round" stroke-width="2" d="M5.165 13.957A7.062 7.062 0 0 1 5 13.235c.22.099.445.186.677.26m3.313.125A6.226 6.226 0 0 0 13.235 5a7.114 7.114 0 0 1-1.81 14.096M16.84 6.79a1.528 1.528 0 0 1 2.997-.54 1.39 1.39 0 0 1-.226 2.76h-1.153M9.5 20a2.5 2.5 0 0 0 .406-4.967 2.751 2.751 0 0 0-5.389 1.026A2 2 0 0 0 5 20z"/>
</svg>