<svg xmlns="http://www.w3.org/2000/svg" width="24" height="24" fill="none"><path fill="#fff" fill-opacity=".01" d="M24 0v24H0V0z"/><path fill="#F7F9FC" d="M19.778 7.05a2 2 0 1 0-2.828-2.828L4.929 16.242l-.707 3.536 3.535-.707z" opacity=".3"/><path stroke="#F7F9FC" stroke-linecap="round" stroke-linejoin="round" stroke-width="2" d="m6.343 14.828 2.828 2.829m6.364-12.021 4.243 4.243a1 1 0 0 1 0 1.414l-4.243 4.243m-10.606.707 12.02-12.021a2 2 0 0 1 2.829 0v0a2 2 0 0 1 0 2.828L7.758 19.071l-3.536.707z"/></svg>