<svg xmlns="http://www.w3.org/2000/svg" width="24" height="24" viewBox="0 0 24 24" fill="none">
    <path class="pr-icon-duotone-secondary" d="M5.93 16.864s6.189.174 9.899-3.536c.988-.988 1.7-2.152 2.214-3.328.294-.673.523-1.35.7-2l.181-.702c.108-.104.194-.204.256-.298 1.278-1.937.253-3.471.187-3.566-.002-.003-.002-.005-.005-.005-.121.012-5.522.574-9.19 4.243-3.71 3.71-4.243 9.192-4.243 9.192" />
    <path class="pr-icon-duotone-primary-stroke" stroke-linecap="round" stroke-width="2" d="M5.93 16.864s6.189.174 9.899-3.536c.988-.988 1.7-2.152 2.214-3.328.294-.673.523-1.35.7-2l.181-.702M5.93 16.864s.533-5.482 4.243-9.192c3.668-3.669 9.069-4.23 9.19-4.243.004 0 .003.002.005.005.066.095 1.091 1.63-.187 3.566a1.882 1.882 0 0 1-.256.298M5.93 16.864S5.5 20 5.5 21M14 10c1.349-.45 3.965-1.766 4.924-2.702"/>
</svg>