<svg xmlns="http://www.w3.org/2000/svg" width="24" height="24" fill="none"><path fill="#fff" fill-opacity=".01" d="M24 0v24H0V0z"/><g fill="#F7F9FC" opacity=".3"><path d="M4 6a2 2 0 0 1 2-2h12a2 2 0 0 1 2 2v12a2 2 0 0 1-2 2H6a2 2 0 0 1-2-2z"/><path d="M12.5 12a.5.5 0 1 1-1 0 .5.5 0 0 1 1 0M9 8.5a.5.5 0 1 1-1 0 .5.5 0 0 1 1 0M9 15.5a.5.5 0 1 1-1 0 .5.5 0 0 1 1 0M16 8.5a.5.5 0 1 1-1 0 .5.5 0 0 1 1 0M16 15.5a.5.5 0 1 1-1 0 .5.5 0 0 1 1 0"/></g><path fill="#F7F9FC" d="M12.5 12a.5.5 0 1 1-1 0 .5.5 0 0 1 1 0M9 8.5a.5.5 0 1 1-1 0 .5.5 0 0 1 1 0M9 15.5a.5.5 0 1 1-1 0 .5.5 0 0 1 1 0M16 8.5a.5.5 0 1 1-1 0 .5.5 0 0 1 1 0M16 15.5a.5.5 0 1 1-1 0 .5.5 0 0 1 1 0"/><path stroke="#F7F9FC" stroke-width="2" d="M4 6a2 2 0 0 1 2-2h12a2 2 0 0 1 2 2v12a2 2 0 0 1-2 2H6a2 2 0 0 1-2-2z"/><path stroke="#F7F9FC" stroke-width="2" d="M12.5 12a.5.5 0 1 1-1 0 .5.5 0 0 1 1 0ZM9 8.5a.5.5 0 1 1-1 0 .5.5 0 0 1 1 0ZM9 15.5a.5.5 0 1 1-1 0 .5.5 0 0 1 1 0ZM16 8.5a.5.5 0 1 1-1 0 .5.5 0 0 1 1 0ZM16 15.5a.5.5 0 1 1-1 0 .5.5 0 0 1 1 0Z"/></svg>