<svg xmlns="http://www.w3.org/2000/svg" width="24" height="24" viewBox="0 0 24 24" fill="none">
    <path class="pr-icon-duotone-secondary" d="m11.649 3.132-7 2.625A1 1 0 0 0 4 6.693v5.363a8 8 0 0 0 4.422 7.155l3.354 1.677a.5.5 0 0 0 .448 0l3.354-1.677A8 8 0 0 0 20 12.056V6.693a1 1 0 0 0-.649-.936l-7-2.625a1 1 0 0 0-.702 0"/>
    <path class="pr-icon-duotone-primary-stroke" stroke-linecap="round" stroke-linejoin="round" stroke-width="2" d="m8.36 12.166 2.475 2.475 5.305-5.305M8.422 19.21l3.354 1.677a.5.5 0 0 0 .448 0l3.354-1.677A8 8 0 0 0 20 12.056V6.693a1 1 0 0 0-.649-.936l-7-2.625a1 1 0 0 0-.702 0l-7 2.625A1 1 0 0 0 4 6.693v5.363a8 8 0 0 0 4.422 7.155"/>
</svg>