<svg xmlns="http://www.w3.org/2000/svg" width="24" height="24" viewBox="0 0 24 24" fill="none">
    <path class="pr-icon-duotone-secondary" d="M5 4a1 1 0 0 1 1-1h9.586a1 1 0 0 1 .707.293l2.414 2.414a1 1 0 0 1 .293.707V20a1 1 0 0 1-1 1H6a1 1 0 0 1-1-1z" />
    <path class="pr-icon-duotone-primary-stroke" stroke-linecap="round" stroke-linejoin="round" stroke-width="2" d="m8.46 12.914 2.121 2.122 4.95-4.95M15.586 3H6a1 1 0 0 0-1 1v16a1 1 0 0 0 1 1h12a1 1 0 0 0 1-1V6.414a1 1 0 0 0-.293-.707l-2.414-2.414A1 1 0 0 0 15.586 3"/>
</svg>