<svg width="24" height="24" viewBox="0 0 24 24" fill="none" xmlns="http://www.w3.org/2000/svg">
<path d="M24 0V24H0V0H24Z" fill="white" fill-opacity="0.01"/>
<g opacity="0.3">
<path fill-rule="evenodd" clip-rule="evenodd" d="M12.7071 16.7071C12.3166 17.0976 11.6834 17.0976 11.2929 16.7071L9.29292 14.7071C9.00692 14.4211 8.92137 13.991 9.07615 13.6173C9.23093 13.2436 9.59557 13 10 13H14C14.4045 13 14.7691 13.2436 14.9239 13.6173C15.0787 13.991 14.9931 14.4211 14.7071 14.7071L12.7071 16.7071Z" fill="#363F4D"/>
<path fill-rule="evenodd" clip-rule="evenodd" d="M12.7071 7.29289C12.3166 6.90237 11.6834 6.90237 11.2929 7.29289L9.29292 9.29289C9.00692 9.57889 8.92137 10.009 9.07615 10.3827C9.23093 10.7564 9.59557 11 10 11H14C14.4045 11 14.7691 10.7564 14.9239 10.3827C15.0787 10.009 14.9931 9.57889 14.7071 9.29289L12.7071 7.29289Z" fill="#363F4D"/>
</g>
<path d="M10 14L12 16L14 14M10 10L12 8L14 10" stroke="#363F4D" stroke-width="2" stroke-linecap="round" stroke-linejoin="round"/>
</svg>
