<svg xmlns="http://www.w3.org/2000/svg" width="24" height="24" viewBox="0 0 24 24" fill="none">
    <path class="pr-icon-duotone-secondary" d="M18 4a1 1 0 0 0-1-1h-6a1 1 0 0 0-1 1v4.172a2 2 0 0 1-.586 1.414l-3.586 3.586a4 4 0 0 0 0 5.656l.344.344a4 4 0 0 0 5.656 0l5-5A4 4 0 0 0 18 11.343z" />
    <path class="pr-icon-duotone-primary" d="M10 5a1 1 0 0 0 0 2zm8 2a1 1 0 1 0 0-2zM6.172 19.172l-.708.707zM11 4h6V2h-6zm6 0v7.343h2V4zm-.879 9.465-5 5 1.415 1.414 5-5zm-9.242 5-.343-.344-1.415 1.415.343.343zm-.343-4.586 3.585-3.586-1.414-1.414-3.586 3.585zM11 8.172V4H9v4.172zM10 7h8V5h-8zm5 6a3 3 0 0 1 3-3V8a5 5 0 0 0-5 5zm.75 1.984A2.985 2.985 0 0 1 15 13h-2c0 1.267.473 2.427 1.25 3.308zm-5.629-4.691A3 3 0 0 0 11 8.172H9a1 1 0 0 1-.293.707zM6.536 18.12a3 3 0 0 1 0-4.242L5.12 12.464a5 5 0 0 0 0 7.071zm4.585.344a3 3 0 0 1-4.242 0l-1.415 1.414a5 5 0 0 0 7.072 0zM17 11.343a3 3 0 0 1-.879 2.121l1.415 1.415A5 5 0 0 0 19 11.343zM17 4h2a2 2 0 0 0-2-2zm-6-2a2 2 0 0 0-2 2h2z"/>
</svg>