<svg width="24" height="24" viewBox="0 0 24 24" fill="none" xmlns="http://www.w3.org/2000/svg">
    <path class="pr-icon-duotone-secondary" d="M3 6C3 4.34315 4.34315 3 6 3H18C19.6569 3 21 4.34315 21 6V18C21 19.6569 19.6569 21 18 21H6C4.34315 21 3 19.6569 3 18V6Z"/>
    <path d="M13.0001 14.8284L10.1716 12L13.0001 9.17157M6 4H18C19.1046 4 20 4.89543 20 6L20 18C20 19.1046 19.1046 20 18 20H6C4.89543 20 4 19.1046 4 18V6C4 4.89543 4.89543 4 6 4Z" class="pr-icon-duotone-primary-stroke" stroke-width="2" stroke-linecap="round" stroke-linejoin="round"/>
</svg>
