<svg xmlns="http://www.w3.org/2000/svg" width="24" height="24" viewBox="0 0 24 24" fill="none">
    <path class="pr-icon-duotone-secondary" d="M11.534 3.3c.128-.22.466-.13.466.126v14.411a.25.25 0 0 1-.15.229l-5.335 2.351a.25.25 0 0 1-.35-.254l.593-5.854a.25.25 0 0 0-.062-.192L2.776 9.73a.25.25 0 0 1 .133-.411l5.75-1.245a.25.25 0 0 0 .164-.119z"/>
    <path class="pr-icon-duotone-primary-stroke" stroke-linejoin="round" stroke-width="1.5" d="M11.534 3.3c.128-.22.466-.13.466.126v14.411a.25.25 0 0 1-.15.229l-5.335 2.351a.25.25 0 0 1-.35-.254l.593-5.854a.25.25 0 0 0-.062-.192L2.776 9.73a.25.25 0 0 1 .133-.411l5.75-1.245a.25.25 0 0 0 .164-.119z"/>
</svg>