<svg xmlns="http://www.w3.org/2000/svg" width="24" height="24" viewBox="0 0 24 24" fill="none">
    <path class="pr-icon-duotone-secondary" fill-rule="evenodd" d="M4.9 3.8A2 2 0 0 1 6.5 3h11a2 2 0 0 1 1.6.8l2.688 3.584a.995.995 0 0 1 .204.616H22v1c0 1.014-.378 1.94-1 2.646V19a2 2 0 0 1-2 2H5a2 2 0 0 1-2-2v-7.354A3.985 3.985 0 0 1 2 9V8h.008a.995.995 0 0 1 .204-.616z" clip-rule="evenodd" />
    <path class="pr-icon-duotone-primary" d="M21 8h1a1 1 0 0 0-.2-.6zM3 8l-.8-.6A1 1 0 0 0 2 8zm2 3.236a1 1 0 1 0-2 0zm16 0a1 1 0 1 0-2 0zM18.3 4.4l.8-.6zm-12.6 0-.8-.6zm.8.6h11V3h-11zm11 0 2.7 3.6 1.6-1.2-2.7-3.6zM21 7H3v2h18zM3.8 8.6 6.5 5 4.9 3.8 2.2 7.4zM8 8v1h2V8zM4 9V8H2v1zm2 2a2 2 0 0 1-2-2H2a4 4 0 0 0 4 4zm2-2a2 2 0 0 1-2 2v2a4 4 0 0 0 4-4zm6-1v1h2V8zm-2 3a2 2 0 0 1-2-2H8a4 4 0 0 0 4 4zm2-2a2 2 0 0 1-2 2v2a4 4 0 0 0 4-4zm6-1v1h2V8zm-2 3a2 2 0 0 1-2-2h-2a4 4 0 0 0 4 4zm2-2a2 2 0 0 1-2 2v2a4 4 0 0 0 4-4zM3 11.236V19h2v-7.764zM5 21h14v-2H5zm16-2v-7.764h-2V19zM3 19a2 2 0 0 0 2 2v-2zM17.5 5l1.6-1.2a2 2 0 0 0-1.6-.8zM19 21a2 2 0 0 0 2-2h-2zM6.5 3a2 2 0 0 0-1.6.8L6.5 5z"/>
</svg>