<svg xmlns="http://www.w3.org/2000/svg" width="24" height="24" viewBox="0 0 24 24" fill="none">
    <path class="pr-icon-duotone-secondary" d="M12 10.999a5 5 0 0 0-3 9h6a5 5 0 0 0-3-9" />
    <path class="pr-icon-duotone-primary" d="M4 18.999a1 1 0 1 0 0 2zm16 2a1 1 0 1 0 0-2zM9.172 4.293a1 1 0 1 0 1.414 1.414zM12 2.88l.707-.707a1 1 0 0 0-1.414 0zm1.414 2.828a1 1 0 1 0 1.414-1.414zM13 3.5a1 1 0 1 0-2 0zm-2 4.5a1 1 0 1 0 2 0zm5.95 1.636a1 1 0 0 0 1.414 1.414zm2.121.707a1 1 0 0 0-1.414-1.414zM20 14.999a1 1 0 1 0 0 2zm1 2a1 1 0 1 0 0-2zm-17 0a1 1 0 1 0 0-2zm-1-2a1 1 0 1 0 0 2zm2.636-3.95A1 1 0 0 0 7.05 9.635zm.707-2.12a1 1 0 1 0-1.414 1.413zM4 20.998h16v-2H4zm6.586-15.292 2.121-2.121-1.414-1.414-2.121 2.121zm.707-2.121 2.121 2.121 1.414-1.414-2.12-2.121zM11 3.499v4.5h2v-4.5zm-3 12.5a4 4 0 0 1 4-4v-2a6 6 0 0 0-6 6zm4-4a4 4 0 0 1 4 4h2a6 6 0 0 0-6-6zm4 4c0 1.308-.627 2.47-1.6 3.2l1.2 1.6a5.992 5.992 0 0 0 2.4-4.8zm-6.4 3.2A3.992 3.992 0 0 1 8 16H6c0 1.964.945 3.707 2.4 4.8zm8.764-8.15.707-.707-1.414-1.414-.707.707zM20 16.999h1v-2h-1zm-16-2H3v2h1zm3.05-5.364-.707-.707-1.414 1.414.707.707z"/>
</svg>