<svg xmlns="http://www.w3.org/2000/svg" width="24" height="24" viewBox="0 0 24 24" fill="none">
    <g fill="currentColor" opacity=".3">
        <path d="M4 6.5A3.5 3.5 0 0 1 7.5 3h9a3.5 3.5 0 1 1 0 7h-9A3.5 3.5 0 0 1 4 6.5M4 16.5A3.5 3.5 0 0 1 7.5 13h9a3.5 3.5 0 1 1 0 7h-9A3.5 3.5 0 0 1 4 16.5"/>
        <path d="M16.5 7a.5.5 0 1 1 0-1 .5.5 0 0 1 0 1M7.5 17a.5.5 0 1 1 0-1 .5.5 0 0 1 0 1"/>
    </g>
    <path fill="currentColor" d="M16.5 7a.5.5 0 1 1 0-1 .5.5 0 0 1 0 1M7.5 17a.5.5 0 1 1 0-1 .5.5 0 0 1 0 1"/>
    <path stroke="currentColor" stroke-width="2" d="M4 6.5A3.5 3.5 0 0 1 7.5 3h9a3.5 3.5 0 1 1 0 7h-9A3.5 3.5 0 0 1 4 6.5ZM4 16.5A3.5 3.5 0 0 1 7.5 13h9a3.5 3.5 0 1 1 0 7h-9A3.5 3.5 0 0 1 4 16.5Z"/>
    <path stroke="currentColor" stroke-width="2" d="M16.5 7a.5.5 0 1 1 0-1 .5.5 0 0 1 0 1ZM7.5 17a.5.5 0 1 1 0-1 .5.5 0 0 1 0 1Z"/>
</svg>