<svg xmlns="http://www.w3.org/2000/svg" width="24" height="24" viewBox="0 0 24 24" fill="none">
    <path fill="currentColor" d="M22 12c0 5.523-4.477 10-10 10S2 17.523 2 12 6.477 2 12 2s10 4.477 10 10" opacity=".3"/>
    <path fill="currentColor" d="M12.89 4.049a1 1 0 1 0 .22-1.988zm9.049 6.841a1 1 0 0 0-1.988.22zm-10.69-1.796a1 1 0 1 0-.498-1.936zm5.593 4.155a1 1 0 1 0-1.936-.498zm-2.256-3.835h-1a1 1 0 0 0 1 1zm0-2.828-.707-.708a1 1 0 0 0-.293.708zM18.12 3.05h1a1 1 0 0 0-1.707-.707zm0 2.828h-1a1 1 0 0 0 1 1zm2.829 0 .707.708a1 1 0 0 0-.707-1.708zm-3.536 3.536v1a1 1 0 0 0 .707-.293zm-2.414 1A1 1 0 0 0 13.586 9zm-3.242.414a1 1 0 1 0 1.414 1.414zM20 12a8 8 0 0 1-8 8v2c5.523 0 10-4.477 10-10zm-8 8a8 8 0 0 1-8-8H2c0 5.523 4.477 10 10 10zm-8-8a8 8 0 0 1 8-8V2C6.477 2 2 6.477 2 12zm8-8c.301 0 .598.017.89.049l.22-1.988A10.1 10.1 0 0 0 12 2zm7.951 7.11c.032.292.049.589.049.89h2c0-.375-.02-.745-.061-1.11zM12 15a3 3 0 0 1-3-3H7a5 5 0 0 0 5 5zm-3-3c0-1.396.955-2.572 2.25-2.906l-.5-1.936A5.002 5.002 0 0 0 7 12zm5.906.75A3.002 3.002 0 0 1 12 15v2a5.002 5.002 0 0 0 4.842-3.75zm.68-3.336V6.586h-2v2.828zm-.293-2.121 3.535-3.536-1.414-1.414-3.535 3.535zM17.12 3.05v2.828h2V3.05zm1 3.828h2.829v-2H18.12zm2.122-1.707-3.536 3.536 1.414 1.414 3.536-3.535zm-2.829 3.243h-2.828v2h2.828zM13.586 9l-1.828 1.828 1.414 1.414L15 10.414z"/>
</svg>