<svg xmlns="http://www.w3.org/2000/svg" width="24" height="24" viewBox="0 0 24 24" fill="none">
    <path fill="currentColor" fill-rule="evenodd" d="M5.45 4.623C6.997 2.974 9.24 2 12.017 2c4.565 0 7.592 2.631 8.55 6.277.476 1.815.295 3.724 0 5.277-.216 1.141-.612 2.246-.815 3.387-.29 1.624-1.315 2.898-2.71 3.757C15.673 21.54 13.985 22 12.016 22c-2.776 0-5.02-.974-6.565-2.623-1.536-1.638-2.31-3.864-2.31-6.252v-2.25c0-2.388.774-4.614 2.31-6.252" clip-rule="evenodd" opacity=".3"/>
    <path stroke="currentColor" stroke-linecap="round" stroke-width="2" d="M19.598 8.531C18.756 5.327 16.128 3 12.016 3c-5.062 0-7.875 3.526-7.875 7.875v2.25c0 4.35 2.813 7.875 7.875 7.875 1.812 0 3.313-.422 4.5-1.153 1.206-.743 2.02-1.794 2.25-3.082.96-5.377-6.53-5.89-8.437-4.765-2.167 1.278-.914 3.63.21 4.078 1.41.563 3.398.356 4.395-1.16 1.008-1.531.986-5.11-.386-6.387-1.373-1.277-4.22-1.594-5.45.375"/>
</svg>