<svg xmlns="http://www.w3.org/2000/svg" width="24" height="24" viewBox="0 0 24 24" fill="none">
    <path class="pr-icon-duotone-secondary" d="M17 5a2 2 0 1 1-4 0H5a2 2 0 0 0-2 2v10a2 2 0 0 0 2 2h8a2 2 0 1 1 4 0h2a2 2 0 0 0 2-2V7a2 2 0 0 0-2-2z" />
    <path class="pr-icon-duotone-primary-stroke" stroke-linecap="round" stroke-linejoin="round" stroke-width="2" d="M15 10v.5m0 3v.5m0-7a2 2 0 0 0 2-2h2a2 2 0 0 1 2 2v10a2 2 0 0 1-2 2h-2a2 2 0 1 0-4 0H5a2 2 0 0 1-2-2V7a2 2 0 0 1 2-2h8a2 2 0 0 0 2 2"/>
</svg>