<svg xmlns="http://www.w3.org/2000/svg" width="24" height="24" viewBox="0 0 24 24" fill="none">
    <g fill="currentColor" opacity=".3">
        <path d="M4 6a3 3 0 0 1 3-3h10a3 3 0 0 1 3 3v9a3 3 0 0 1-3 3H7a3 3 0 0 1-3-3z"/>
        <path d="M4 7h16v4H4zM12.5 14.5a.5.5 0 1 1-1 0 .5.5 0 0 1 1 0"/>
    </g>
    <path fill="currentColor" d="M12.5 14.5a.5.5 0 1 1-1 0 .5.5 0 0 1 1 0"/>
    <path stroke="currentColor" stroke-linecap="round" stroke-width="2" d="m5 21 4-3m6 0 4 3M4 7h16v4H4zm8.5 7.5a.5.5 0 1 1-1 0 .5.5 0 0 1 1 0ZM7 18h10a3 3 0 0 0 3-3V6a3 3 0 0 0-3-3H7a3 3 0 0 0-3 3v9a3 3 0 0 0 3 3Z"/>
</svg>