<svg xmlns="http://www.w3.org/2000/svg" width="24" height="24" viewBox="0 0 24 24" fill="none">
    <g fill="currentColor" opacity=".3">
        <path d="M11 2a5 5 0 1 0 0 10 5 5 0 0 0 0-10M11 13c-2.395 0-4.575.694-6.178 1.672-.8.488-1.484 1.064-1.978 1.69C2.358 16.976 2 17.713 2 18.5c0 .779.35 1.413.88 1.883.503.445 1.165.747 1.867.962 1.405.43 3.283.606 5.294.646a1 1 0 0 0 1.012-1.123 6.979 6.979 0 0 1 2.21-6.022 1 1 0 0 0-.539-1.726A12.47 12.47 0 0 0 11 13M17.677 14.034a2.5 2.5 0 0 1 3.535 3.535l-3.418 3.418a1.5 1.5 0 0 1-.848.424l-2.309.33a1.001 1.001 0 0 1-1.132-1.133l.33-2.308a1.5 1.5 0 0 1 .424-.849z"/>
    </g>
    <path stroke="currentColor" stroke-linecap="round" stroke-linejoin="round" stroke-width="2" d="M12.21 14.064A11.468 11.468 0 0 0 11 14c-4.418 0-8 2.567-8 4.5 0 1.785 3.054 2.405 7 2.49M15 7a4 4 0 1 1-8 0 4 4 0 0 1 8 0m-.505 13.749.33-2.308a.5.5 0 0 1 .141-.283l3.418-3.418a1.5 1.5 0 0 1 2.121 0v0a1.5 1.5 0 0 1 0 2.122l-3.417 3.417a.5.5 0 0 1-.284.142z"/>
</svg>