<svg xmlns="http://www.w3.org/2000/svg" width="24" height="24" viewBox="0 0 24 24" fill="none">
    <g class="pr-icon-duotone-secondary">
        <path d="M3 11a2 2 0 0 1 2-2h10a2 2 0 0 1 2 2v6a2 2 0 0 1-2 2H5a2 2 0 0 1-2-2zM17 13l3.238-1.995a.5.5 0 0 1 .762.426v5.138a.5.5 0 0 1-.762.425L17 15z"/>
    </g>
    <path class="pr-icon-duotone-primary-stroke" stroke-linecap="round" stroke-width="2" d="M6 6h4.93a2 2 0 0 1 1.664.89l1.214 1.822M17 13l3.238-1.995a.5.5 0 0 1 .762.426v5.138a.5.5 0 0 1-.762.425L17 15zM5 19h10a2 2 0 0 0 2-2v-6a2 2 0 0 0-2-2H5a2 2 0 0 0-2 2v6a2 2 0 0 0 2 2Z"/>
</svg>