<svg xmlns="http://www.w3.org/2000/svg" width="24" height="24" viewBox="0 0 24 24" fill="none">
    <path class="pr-icon-duotone-secondary" d="M22 12c0 5.523-4.477 10-10 10S2 17.523 2 12 6.477 2 12 2s10 4.477 10 10"/>
    <path class="pr-icon-duotone-primary-stroke" stroke-linecap="round" stroke-linejoin="round" stroke-width="2" d="m15.035 12 .09-.036a2.092 2.092 0 0 0 .702-3.421v0a2.092 2.092 0 0 0-1.89-.572l-.1.02A2.284 2.284 0 0 0 12 10.23v3.539a2.284 2.284 0 0 1-1.836 2.24l-.101.02a2.092 2.092 0 0 1-1.89-.573v0a2.092 2.092 0 0 1 .703-3.421L8.965 12M21 12a9 9 0 1 1-18 0 9 9 0 0 1 18 0"/>
</svg>