<svg xmlns="http://www.w3.org/2000/svg" width="24" height="24" viewBox="0 0 24 24" fill="none">
    <path class="pr-icon-duotone-secondary" d="M4 5.883a1 1 0 0 1 .876-.992l14.562-1.82a.5.5 0 0 1 .562.495v16.868a.5.5 0 0 1-.562.496L4.876 19.11A1 1 0 0 1 4 18.117z" />
    <path class="pr-icon-duotone-primary-stroke" stroke-linecap="round" stroke-width="2" d="M4 12h16m-8 8V4M4.876 19.11l14.562 1.82a.5.5 0 0 0 .562-.496V3.566a.5.5 0 0 0-.562-.496L4.876 4.89A1 1 0 0 0 4 5.884v12.234a1 1 0 0 0 .876.992Z"/>
</svg>