<svg xmlns="http://www.w3.org/2000/svg" width="24" height="24" viewBox="0 0 24 24">
    <path d="M21 1.992v0c-0.6 0-1.008 0.408-1.008 1.008v3h-3.984v-1.008c0-0.6-0.408-0.984-1.008-0.984s-1.008 0.384-1.008 0.984v1.008h-1.992v-1.008c0-0.6-0.408-0.984-1.008-0.984s-0.984 0.384-0.984 0.984v1.008h-2.016v-1.008c0-0.6-0.384-0.984-0.984-0.984s-1.008 0.384-1.008 0.984v1.008h-1.992v-3c0-0.6-0.408-1.008-1.008-1.008s-1.008 0.408-1.008 1.008v16.008c0 1.704 1.32 3 3 3h14.016c1.68 0 3-1.296 3-3v-16.008c0-0.6-0.408-1.008-1.008-1.008zM19.992 19.008c0 0.6-0.384 0.984-0.984 0.984h-14.016c-0.6 0-0.984-0.384-0.984-0.984v-3h1.992v0.984c0 0.6 0.408 1.008 1.008 1.008s0.984-0.408 0.984-1.008v-0.984h2.016v0.984c0 0.6 0.384 1.008 0.984 1.008s1.008-0.408 1.008-1.008v-0.984h4.008v0.984c0 0.6 0.384 1.008 0.984 1.008s1.008-0.408 1.008-1.008v-0.984h1.992v3zM19.992 13.992h-1.992v-0.984c0-0.6-0.408-1.008-1.008-1.008s-0.984 0.408-0.984 1.008v0.984h-4.008v-0.984c0-0.6-0.408-1.008-1.008-1.008s-0.984 0.408-0.984 1.008v0.984h-2.016v-0.984c0-0.6-0.384-1.008-0.984-1.008s-1.008 0.408-1.008 1.008v0.984h-1.992v-6h1.992v1.008c0 0.6 0.408 1.008 1.008 1.008s0.984-0.408 0.984-1.008v-1.008h2.016v1.008c0 0.6 0.384 1.008 0.984 1.008s1.008-0.408 1.008-1.008v-1.008h1.992v1.008c0 0.6 0.408 1.008 1.008 1.008s1.008-0.408 1.008-1.008v-1.008h3.984v6z"></path>
</svg>
