<svg xmlns="http://www.w3.org/2000/svg" width="24" height="24" viewBox="0 0 24 24">
    <path d="M3 7.008h18c0.6 0 1.008-0.408 1.008-1.008s-0.408-1.008-1.008-1.008h-18c-0.6 0-1.008 0.408-1.008 1.008s0.408 1.008 1.008 1.008zM21 9h-18c-0.6 0-1.008 0.408-1.008 1.008s0.408 0.984 1.008 0.984h18c0.6 0 1.008-0.384 1.008-0.984s-0.408-1.008-1.008-1.008zM21 13.008h-18c-0.6 0-1.008 0.384-1.008 0.984s0.408 1.008 1.008 1.008h18c0.6 0 1.008-0.408 1.008-1.008s-0.408-0.984-1.008-0.984zM21 16.992h-18c-0.6 0-1.008 0.408-1.008 1.008s0.408 1.008 1.008 1.008h18c0.6 0 1.008-0.408 1.008-1.008s-0.408-1.008-1.008-1.008z"></path>
</svg>
