<svg xmlns="http://www.w3.org/2000/svg" width="24" height="24" viewBox="0 0 24 24">
    <path d="M12.696 12.504c0 0 0 0 0 0-0.384-0.408-1.008-0.408-1.392 0l-3 3c-0.408 0.384-0.408 0.984 0 1.392s1.008 0.408 1.392 0l2.304-2.304 2.304 2.304c0.192 0.192 0.384 0.312 0.696 0.312 0.288 0 0.504-0.12 0.696-0.312 0.408-0.408 0.408-1.008 0-1.392l-3-3zM9.696 11.496l2.304-2.304 2.304 2.304c0.192 0.192 0.384 0.312 0.696 0.312 0.288 0 0.504-0.12 0.696-0.312 0.408-0.408 0.408-1.008 0-1.392l-3-3c0 0 0 0 0 0-0.408-0.408-1.008-0.408-1.392 0l-3 3c-0.408 0.384-0.408 0.984 0 1.392 0.384 0.312 1.008 0.312 1.392 0z"></path>
</svg>
