<svg xmlns="http://www.w3.org/2000/svg" width="24" height="24" viewBox="0 0 24 24">
    <path d="M21 1.992h-6c-0.6 0-1.008 0.408-1.008 1.008s0.408 1.008 1.008 1.008h3.6l-16.296 16.296c0 0 0 0 0 0-0.408 0.408-0.408 1.008 0 1.392s0.984 0.408 1.392 0l16.296-16.296v3.6c0 0.6 0.408 1.008 1.008 1.008v0c0.6 0 1.008-0.408 1.008-1.008v-6c0-0.6-0.408-1.008-1.008-1.008zM21 13.992c-0.6 0-1.008 0.408-1.008 1.008v3.6l-4.584-4.608c-0.408-0.384-1.008-0.384-1.416 0-0.384 0.408-0.384 1.008 0 1.416l4.608 4.584h-3.6c-0.6 0-1.008 0.408-1.008 1.008s0.408 1.008 1.008 1.008h6c0.6 0 1.008-0.408 1.008-1.008v-6c0-0.6-0.408-1.008-1.008-1.008zM8.688 10.008c0.216 0.192 0.408 0.288 0.72 0.288 0.288 0 0.48-0.096 0.696-0.288 0.408-0.408 0.408-1.008 0-1.416l-6.312-6.288c0 0 0 0 0 0-0.384-0.408-0.984-0.408-1.392 0-0.408 0.384-0.408 0.984 0 1.392l6.288 6.312z"></path>
</svg>
