<svg xmlns="http://www.w3.org/2000/svg" width="24" height="24" viewBox="0 0 24 24">
    <path d="M12 1.992c-5.496 0-10.008 4.512-10.008 10.008s4.512 10.008 10.008 10.008 10.008-4.512 10.008-10.008-4.512-10.008-10.008-10.008zM15.696 12.696l-3 3c-0.096 0.096-0.192 0.192-0.288 0.192-0.216 0.12-0.504 0.12-0.816 0-0.096 0-0.192-0.096-0.288-0.192l-3-3c0 0 0 0 0 0-0.408-0.408-0.408-1.008 0-1.392 0 0 0 0 0 0 0.408-0.408 1.008-0.408 1.392 0l1.296 1.296v-3.6c0-0.6 0.408-1.008 1.008-1.008s1.008 0.408 1.008 1.008v3.6l1.296-1.296c0.384-0.408 0.984-0.408 1.392 0 0.408 0.384 0.408 0.984 0 1.392z"></path>
</svg>
