<svg xmlns="http://www.w3.org/2000/svg" width="24" height="24" viewBox="0 0 24 24">
    <path d="M12 1.992c-5.496 0-10.008 4.512-10.008 10.008s4.512 10.008 10.008 10.008 10.008-4.512 10.008-10.008c0-5.496-4.512-10.008-10.008-10.008zM15.696 12.696c0 0 0 0 0 0-0.384 0.408-0.984 0.408-1.392 0 0 0 0 0 0 0l-1.296-1.296v3.6c0 0.6-0.408 1.008-1.008 1.008s-1.008-0.408-1.008-1.008v-3.6l-1.296 1.296c-0.408 0.408-1.008 0.408-1.392 0-0.408-0.408-0.408-1.008 0-1.392l3-3c0.384-0.408 0.984-0.408 1.392 0 0 0 0 0 0 0l3 3c0.408 0.384 0.408 0.984 0 1.392z"></path>
</svg>
