<svg xmlns="http://www.w3.org/2000/svg" width="24" height="24" viewBox="0 0 24 24">
    <path d="M22.008 12h-17.016v-5.592c0-1.104 0.912-2.016 2.016-2.016 0.096 0 0.096 0 0.192 0-0.408 1.296-0.096 2.712 0.792 3.6l1.104 1.008c0.408 0.408 1.008 0.408 1.392 0v0l3.504-3.504c0.408-0.408 0.408-1.008 0-1.392l-0.984-1.104c-1.2-1.2-3.096-1.392-4.512-0.312-2.088-0.792-4.392 0.216-5.208 2.208-0.192 0.504-0.288 1.008-0.288 1.512v5.592h-1.008c-0.6 0-0.984 0.408-0.984 1.008s0.384 0.984 0.984 0.984h1.008v3c0 1.296 0.792 2.4 1.992 2.808v1.2c0 0.6 0.408 1.008 1.008 1.008s1.008-0.408 1.008-1.008v-1.008h9.984v1.008c0 0.6 0.408 1.008 1.008 1.008s1.008-0.408 1.008-1.008v-1.2c1.2-0.408 1.992-1.512 1.992-2.808v-3h1.008c0.6 0 0.984-0.384 0.984-0.984s-0.384-1.008-0.984-1.008zM9.408 4.392c0 0 0 0 0 0 0.6-0.6 1.488-0.6 2.088 0l0.408 0.408-2.112 2.088-0.384-0.288c-0.504-0.6-0.504-1.608 0-2.208z"></path>
</svg>
