<svg xmlns="http://www.w3.org/2000/svg" width="24" height="24" viewBox="0 0 24 24">
    <path d="M22.992 12h-3v-9c0-0.408-0.192-0.696-0.504-0.912-0.288-0.192-0.696-0.192-0.984 0l-3 1.704-3-1.704c-0.312-0.192-0.696-0.192-1.008 0l-3 1.704-3-1.704c-0.288-0.096-0.696-0.096-0.984 0-0.312 0.216-0.504 0.504-0.504 0.912v16.008c0 1.704 1.296 3 3 3h13.992c1.704 0 3-1.296 3-3v-6c0-0.6-0.408-1.008-1.008-1.008zM11.496 11.496h1.008c1.392 0 2.496 1.104 2.496 2.496 0 1.2-0.912 2.208-1.992 2.4v0.6c0 0.6-0.408 1.008-1.008 1.008s-1.008-0.408-1.008-1.008v-0.504h-0.984c-0.6 0-1.008-0.384-1.008-0.984s0.408-1.008 1.008-1.008h2.496c0.288 0 0.504-0.192 0.504-0.504s-0.216-0.504-0.504-0.504h-1.008c-1.392 0-2.496-1.080-2.496-2.496 0-1.2 0.912-2.184 1.992-2.4v-0.6c0-0.6 0.408-0.984 1.008-0.984s1.008 0.384 1.008 0.984v0.504h0.984c0.6 0 1.008 0.408 1.008 1.008s-0.408 0.984-1.008 0.984h-2.496c-0.288 0-0.504 0.216-0.504 0.504s0.216 0.504 0.504 0.504zM22.008 19.008c0 0.6-0.408 0.984-1.008 0.984s-1.008-0.384-1.008-0.984v-5.016h2.016v5.016z"></path>
</svg>
