<svg xmlns="http://www.w3.org/2000/svg" width="24" height="24" viewBox="0 0 24 24">
    <path d="M19.992 3h-15.984c-0.6 0-1.008 0.408-1.008 1.008v15.984c0 0.6 0.408 1.008 1.008 1.008h15.984c0.6 0 1.008-0.408 1.008-1.008v-15.984c0-0.6-0.408-1.008-1.008-1.008zM19.008 19.008h-14.016v-14.016h14.016v14.016zM12 13.008c0.6 0 1.008-0.408 1.008-1.008s-0.408-1.008-1.008-1.008-1.008 0.408-1.008 1.008 0.408 1.008 1.008 1.008zM12 16.992c0.6 0 1.008-0.384 1.008-0.984s-0.408-1.008-1.008-1.008-1.008 0.408-1.008 1.008 0.408 0.984 1.008 0.984zM12 9c0.6 0 1.008-0.408 1.008-1.008s-0.408-0.984-1.008-0.984-1.008 0.384-1.008 0.984 0.408 1.008 1.008 1.008zM7.992 13.008c0.6 0 1.008-0.408 1.008-1.008s-0.408-1.008-1.008-1.008-0.984 0.408-0.984 1.008 0.384 1.008 0.984 1.008zM16.008 13.008c0.6 0 0.984-0.408 0.984-1.008s-0.384-1.008-0.984-1.008-1.008 0.408-1.008 1.008 0.408 1.008 1.008 1.008z"></path>
</svg>
