<svg xmlns="http://www.w3.org/2000/svg" width="24" height="24" viewBox="0 0 24 24">
    <path d="M20.496 7.392c-0.096-0.192-0.192-0.384-0.384-0.6l-7.512-4.584c-0.288-0.216-0.696-0.216-1.104 0l-7.488 4.584c-0.312 0.216-0.504 0.504-0.504 0.816v8.688c0 0.312 0.192 0.696 0.504 0.912l7.488 4.584c0.192 0.096 0.312 0.216 0.504 0.096 0.192 0 0.408-0.096 0.504-0.096l7.488-4.584c0.312-0.216 0.504-0.504 0.504-0.912v-8.688c0-0.12 0-0.12 0-0.216zM12 4.2l1.8 1.104-5.496 3.504-1.896-1.2 5.592-3.408zM10.992 19.2l-5.496-3.408v-6.384l5.496 3.384v6.408zM12 11.088l-1.8-1.080 5.592-3.504 1.8 1.104-5.592 3.48z"></path>
</svg>
