<svg xmlns="http://www.w3.org/2000/svg" width="24" height="24" viewBox="0 0 24 24">
    <path d="M18 7.008h1.008v0.984c0 0.6 0.384 1.008 0.984 1.008s1.008-0.408 1.008-1.008v-0.984h1.008c0.6 0 0.984-0.408 0.984-1.008s-0.384-1.008-0.984-1.008h-1.008v-0.984c0-0.6-0.408-1.008-1.008-1.008s-0.984 0.408-0.984 1.008v0.984h-1.008c-0.6 0-1.008 0.408-1.008 1.008s0.408 1.008 1.008 1.008zM19.992 16.008c-0.6 0-1.2 0.192-1.704 0.6l-2.4-1.512c0.12-0.408 0.216-0.696 0.216-1.104 0-1.8-1.2-3.384-3-3.888v-2.304c1.584-0.6 2.4-2.304 1.8-3.792s-2.304-2.4-3.912-1.8-2.4 2.184-1.8 3.792c0.312 0.888 1.008 1.488 1.8 1.8v2.304c-1.8 0.504-3 1.992-3 3.888 0 0.408 0.096 0.696 0.216 1.104l-2.4 1.512c-1.416-1.008-3.216-0.6-4.2 0.696s-0.6 3.192 0.696 4.2c1.392 0.984 3.192 0.6 4.2-0.696 0.288-0.6 0.504-1.2 0.504-1.8 0-0.312 0-0.504-0.12-0.816l2.304-1.392c1.608 1.608 4.104 1.608 5.616 0l2.28 1.392c-0.096 0.312-0.096 0.504-0.096 0.816 0 1.704 1.296 3 3 3s3-1.296 3-3-1.296-3-3-3z"></path>
</svg>
