<svg xmlns="http://www.w3.org/2000/svg" width="24" height="24" viewBox="0 0 24 24">
    <path d="M14.808 5.904c0.504 0.288 1.104 0.096 1.392-0.408 0.096-0.288 0.408-0.504 0.792-0.504 0.6 0 1.008 0.408 1.008 1.008s-0.408 1.008-1.008 1.008-0.984 0.384-0.984 0.984 0.384 1.008 0.984 1.008c1.704 0 3-1.296 3-3s-1.296-3-3-3c-1.104 0-2.088 0.6-2.592 1.488-0.288 0.504-0.096 1.104 0.408 1.416zM19.2 9.888c0.192 0.312 0.288 0.72 0.288 1.104 0 1.416-1.080 2.496-2.496 2.496s-2.496-1.080-2.496-2.496c0-0.48 0.216-1.080 0.504-1.488-0.288-0.408-0.504-1.008-0.504-1.512 0-0.192 0-0.384 0.096-0.6-1.296-0.384-2.088-1.8-1.704-3.096 0 0 0-0.096 0-0.096-4.896-1.008-9.6 1.992-10.68 6.888-0.6 2.616 0.096 5.4 1.8 7.512l-1.704 1.704c-0.408 0.408-0.408 1.008 0 1.392 0.192 0.192 0.408 0.312 0.696 0.312h7.992c5.016 0 9-4.008 9-9 0-1.104-0.192-2.208-0.6-3.312-0.096 0.096-0.096 0.192-0.192 0.192zM16.008 10.992c0 0.6 0.384 1.008 0.984 1.008s1.008-0.408 1.008-1.008-0.408-0.984-1.008-0.984-0.984 0.384-0.984 0.984z"></path>
</svg>
