<svg xmlns="http://www.w3.org/2000/svg" width="24" height="24" viewBox="0 0 24 24">
    <path d="M12 10.992c-0.6 0-1.008 0.408-1.008 1.008s0.408 1.008 1.008 1.008 1.008-0.408 1.008-1.008-0.408-1.008-1.008-1.008zM21 10.992h-1.104c-0.504-3.6-3.288-6.504-6.888-6.888v-1.104c0-0.6-0.408-1.008-1.008-1.008s-1.008 0.408-1.008 1.008v1.104c-3.6 0.384-6.48 3.288-6.888 6.888h-1.104c-0.6 0-1.008 0.408-1.008 1.008s0.408 1.008 1.008 1.008h1.104c0.504 3.6 3.288 6.48 6.888 6.888v1.104c0 0.6 0.408 1.008 1.008 1.008s1.008-0.408 1.008-1.008v-1.104c3.6-0.504 6.504-3.288 6.888-6.888h1.104c0.6 0 1.008-0.408 1.008-1.008s-0.408-1.008-1.008-1.008zM16.992 13.008h0.912c-0.408 2.496-2.4 4.488-4.896 4.896v-0.912c0-0.6-0.408-0.984-1.008-0.984s-1.008 0.384-1.008 0.984v0.912c-2.496-0.408-4.488-2.4-4.896-4.896h0.912c0.6 0 0.984-0.408 0.984-1.008s-0.384-1.008-0.984-1.008h-0.912c0.408-2.496 2.4-4.488 4.896-4.896v0.912c0 0.6 0.408 0.984 1.008 0.984s1.008-0.384 1.008-0.984v-0.912c2.496 0.408 4.488 2.4 4.896 4.896h-0.912c-0.6 0-0.984 0.408-0.984 1.008s0.384 1.008 0.984 1.008z"></path>
</svg>
