<svg xmlns="http://www.w3.org/2000/svg" width="24" height="24" viewBox="0 0 24 24">
    <path d="M13.008 7.992h7.992c0.6 0 1.008-0.384 1.008-0.984s-0.408-1.008-1.008-1.008h-7.992c-0.6 0-1.008 0.408-1.008 1.008s0.408 0.984 1.008 0.984zM21 10.008h-7.992c-0.6 0-1.008 0.384-1.008 0.984s0.408 1.008 1.008 1.008h7.992c0.6 0 1.008-0.408 1.008-1.008s-0.408-0.984-1.008-0.984zM3 12h6c0.6 0 1.008-0.408 1.008-1.008v-6c0-0.6-0.408-0.984-1.008-0.984h-6c-0.6 0-1.008 0.384-1.008 0.984v6c0 0.6 0.408 1.008 1.008 1.008zM21 13.992h-18c-0.6 0-1.008 0.408-1.008 1.008s0.408 1.008 1.008 1.008h18c0.6 0 1.008-0.408 1.008-1.008s-0.408-1.008-1.008-1.008zM13.008 18h-10.008c-0.6 0-1.008 0.408-1.008 1.008s0.408 0.984 1.008 0.984h10.008c0.6 0 0.984-0.384 0.984-0.984s-0.384-1.008-0.984-1.008z"></path>
</svg>
