<svg xmlns="http://www.w3.org/2000/svg" width="24" height="24" viewBox="0 0 24 24">
    <path d="M7.992 19.992h-3c-0.6 0-0.984-0.384-0.984-0.984v-3c0-0.6-0.408-1.008-1.008-1.008s-1.008 0.408-1.008 1.008v3c0 1.704 1.32 3 3 3h3c0.6 0 1.008-0.408 1.008-1.008s-0.408-1.008-1.008-1.008zM3 9v0c0.6 0 1.008-0.408 1.008-1.008v-3c0-0.6 0.384-0.984 0.984-0.984h3c0.6 0 1.008-0.408 1.008-1.008s-0.408-1.008-1.008-1.008h-3c-1.704 0-3 1.296-3 3v3c0 0.6 0.408 1.008 1.008 1.008zM19.008 1.992h-3c-0.6 0-1.008 0.408-1.008 1.008s0.408 1.008 1.008 1.008h3c0.6 0 0.984 0.384 0.984 0.984v3c0 0.6 0.408 1.008 1.008 1.008s1.008-0.408 1.008-1.008v-3c0-1.704-1.32-3-3-3zM21 15v0c-0.6 0-1.008 0.408-1.008 1.008v3c0 0.6-0.384 0.984-0.984 0.984h-3c-0.6 0-1.008 0.408-1.008 1.008s0.408 1.008 1.008 1.008h3c1.704 0 3-1.32 3-3v-3c0-0.6-0.408-1.008-1.008-1.008zM16.992 13.008c0.6 0 1.008-0.408 1.008-1.008s-0.408-1.008-1.008-1.008h-1.104c-0.384-1.392-1.488-2.496-2.88-2.904v-1.080c0-0.6-0.408-1.008-1.008-1.008s-1.008 0.408-1.008 1.008v1.080c-1.392 0.408-2.496 1.512-2.904 2.904h-1.080c-0.6 0-1.008 0.408-1.008 1.008s0.408 1.008 1.008 1.008h1.080c0.408 1.392 1.512 2.496 2.904 2.88v1.104c0 0.6 0.408 1.008 1.008 1.008s1.008-0.408 1.008-1.008v-1.104c1.392-0.384 2.496-1.488 2.904-2.88h1.080zM12 13.992c-1.104 0-1.992-0.888-1.992-1.992s0.888-1.992 1.992-1.992 1.992 0.888 1.992 1.992c0 1.104-0.888 1.992-1.992 1.992z"></path>
</svg>
