<svg xmlns="http://www.w3.org/2000/svg" width="24" height="24" viewBox="0 0 24 24">
    <path d="M21 19.896h-1.008v-16.992c0-0.6-0.384-1.008-0.984-1.008h-3.504c-0.408 0-0.696 0.192-0.912 0.504l-10.2 17.496h-1.392c-0.6 0-1.008 0.408-1.008 1.008s0.408 0.984 1.008 0.984h4.008c0.6 0 0.984-0.384 0.984-0.984s-0.384-1.008-0.984-1.008h-0.312l3.504-6h7.8v6h-1.008c-0.6 0-0.984 0.408-0.984 1.008s0.384 0.984 0.984 0.984h4.008c0.6 0 1.008-0.384 1.008-0.984s-0.408-1.008-1.008-1.008zM18 11.904h-6.6l4.704-8.016h1.896v8.016z"></path>
</svg>
