<svg xmlns="http://www.w3.org/2000/svg" width="24" height="24" viewBox="0 0 24 24">
    <path d="M18 4.488c-3.288-3.288-8.688-3.288-12 0s-3.288 8.712 0 12l5.304 5.304c0.408 0.408 1.008 0.408 1.392 0l5.304-5.304c3.312-3.384 3.312-8.688 0-12zM13.992 11.496h-0.984v1.008c0 0.6-0.408 0.984-1.008 0.984s-1.008-0.384-1.008-0.984v-1.008h-0.984c-0.6 0-1.008-0.408-1.008-1.008s0.408-0.984 1.008-0.984h0.984v-1.008c0-0.6 0.408-1.008 1.008-1.008s1.008 0.408 1.008 1.008v1.008h0.984c0.6 0 1.008 0.384 1.008 0.984s-0.408 1.008-1.008 1.008z"></path>
</svg>
