<svg xmlns="http://www.w3.org/2000/svg" width="24" height="24" viewBox="0 0 24 24">
    <path d="M13.008 9h-2.016v3h2.016c0.6 0 0.984-0.408 0.984-1.008v-0.984c0-0.6-0.384-1.008-0.984-1.008zM12 1.992c0 0 0 0 0 0-5.496 0-10.008 4.512-10.008 10.008s4.512 10.008 10.008 10.008 10.008-4.512 10.008-10.008-4.512-10.008-10.008-10.008zM16.008 10.992c0 1.704-1.296 3-3 3h-2.016v2.016c0 0.6-0.384 0.984-0.984 0.984s-1.008-0.384-1.008-0.984v-8.016c0-0.6 0.408-0.984 1.008-0.984h3c1.704 0 3 1.296 3 3v0.984z"></path>
</svg>
