<svg xmlns="http://www.w3.org/2000/svg" width="24" height="24" viewBox="0 0 24 24">
    <path d="M7.8 10.296c1.392 0 2.496-1.104 2.496-2.496s-1.104-2.496-2.496-2.496-2.496 1.104-2.496 2.496 1.104 2.496 2.496 2.496zM16.2 13.704c-1.392 0-2.496 1.104-2.496 2.496s1.104 2.496 2.496 2.496c1.392 0 2.496-1.104 2.496-2.496 0-1.296-1.104-2.496-2.496-2.496zM19.704 4.296c-0.408-0.408-1.008-0.408-1.416 0l-13.992 13.992c-0.192 0.216-0.288 0.408-0.288 0.72 0 0.6 0.384 0.984 0.984 0.984 0.312 0 0.504-0.096 0.696-0.288l14.016-14.016c0.408-0.384 0.408-0.984 0-1.392z"></path>
</svg>
