<svg xmlns="http://www.w3.org/2000/svg" width="24" height="24" viewBox="0 0 24 24">
    <path d="M10.2 6.192l0.792-0.792v4.608c0 0.6 0.408 0.984 1.008 0.984v0c0.6 0 1.008-0.384 1.008-0.984v-4.608l0.792 0.792c0.192 0.216 0.408 0.312 0.696 0.312 0.312 0 0.504-0.096 0.696-0.312 0.408-0.384 0.408-0.984 0-1.392l-2.496-2.496c0 0 0 0 0 0-0.384-0.408-1.008-0.408-1.392 0l-2.496 2.496c-0.408 0.408-0.408 1.008 0 1.392 0.384 0.408 0.984 0.408 1.392 0zM18 7.488c-0.408-0.384-1.008-0.384-1.392 0s-0.408 1.008 0 1.416v0c2.496 2.496 2.496 6.696 0 9.192s-6.72 2.496-9.216 0-2.496-6.696 0-9.192c0.408-0.408 0.408-1.008 0-1.416s-0.984-0.384-1.392 0c-1.608 1.608-2.496 3.816-2.496 6 0 4.704 3.792 8.52 8.496 8.52 2.304 0 4.392-0.912 6-2.52 3.312-3.288 3.312-8.688 0-12z"></path>
</svg>
