<svg xmlns="http://www.w3.org/2000/svg" width="24" height="24" viewBox="0 0 24 24">
    <path d="M4.992 12c-0.6 0-0.984 0.408-0.984 1.008s0.384 0.984 0.984 0.984c2.808 0 5.016 2.208 5.016 5.016 0 0.6 0.384 0.984 0.984 0.984s1.008-0.384 1.008-0.984c0-3.912-3.096-7.008-7.008-7.008zM4.992 4.008c-0.6 0-0.984 0.384-0.984 0.984s0.384 1.008 0.984 1.008c7.2 0 13.008 5.808 13.008 13.008 0 0.6 0.408 0.984 1.008 0.984s0.984-0.384 0.984-0.984c0-8.304-6.696-15-15-15zM4.992 7.992c-0.6 0-0.984 0.408-0.984 1.008s0.384 1.008 0.984 1.008c5.016 0 9 3.984 9 9 0 0.6 0.408 0.984 1.008 0.984s1.008-0.384 1.008-0.984c0-6.12-4.92-11.016-11.016-11.016z"></path>
</svg>
