<svg xmlns="http://www.w3.org/2000/svg" width="24" height="24" viewBox="0 0 24 24">
    <path d="M1.992 13.896c-0.6 0-0.984 0.408-0.984 1.008v1.992c0 0.6 0.384 1.008 0.984 1.008s1.008-0.408 1.008-1.008v-1.992c0-0.504-0.408-1.008-1.008-1.008zM22.008 13.896c-0.6 0-1.008 0.408-1.008 1.008v1.992c0 0.6 0.408 1.008 1.008 1.008s0.984-0.408 0.984-1.008v-1.992c0-0.504-0.384-1.008-0.984-1.008zM16.992 6.888h-3.984v-1.2c0.984-0.6 1.296-1.8 0.696-2.688s-1.704-1.392-2.712-0.792c-0.984 0.6-1.296 1.8-0.696 2.688 0.216 0.312 0.408 0.6 0.696 0.696v1.296h-3.984c-1.704 0-3 1.32-3 3v9c0 1.704 1.296 3.024 3 3.024h9.984c1.704 0 3-1.32 3-3.024v-9c0-1.584-1.296-3-3-3zM9 16.896c-0.6 0-1.008-0.408-1.008-1.008s0.408-0.984 1.008-0.984 1.008 0.384 1.008 0.984-0.408 1.008-1.008 1.008zM13.2 10.896h-2.4l-0.504-1.992h3.408l-0.504 1.992zM15 16.896c-0.6 0-1.008-0.408-1.008-1.008s0.408-0.984 1.008-0.984 1.008 0.384 1.008 0.984-0.408 1.008-1.008 1.008z"></path>
</svg>
