<svg xmlns="http://www.w3.org/2000/svg" width="24" height="24" viewBox="0 0 24 24">
    <path d="M15.696 17.808l-3-3c-0.384-0.408-1.008-0.408-1.392 0l-3 3c-0.408 0.384-0.408 0.984 0 1.392s1.008 0.408 1.392 0l2.304-2.304 2.304 2.304c0.192 0.192 0.384 0.288 0.696 0.288 0.288 0 0.504-0.096 0.696-0.288 0.408-0.408 0.408-1.008 0-1.392zM11.304 10.2c0.192 0.192 0.408 0.288 0.696 0.288 0.312 0 0.504-0.096 0.696-0.288l3-3c0.408-0.408 0.408-1.008 0-1.392-0.384-0.408-0.984-0.408-1.392 0l-2.304 2.28-2.304-2.28c-0.408-0.408-1.008-0.408-1.392 0-0.408 0.384-0.408 0.984 0 1.392l3 3z"></path>
</svg>
