<svg xmlns="http://www.w3.org/2000/svg" width="24" height="24" viewBox="0 0 24 24">
    <path d="M13.008 3c-3.912 0-7.008 3.096-7.008 7.008s3.096 6.984 7.008 6.984c2.784 0 4.992-2.184 4.992-4.992s-2.208-4.992-4.992-4.992c-1.704 0-3 1.296-3 3s1.296 3 3 3c0.6 0 0.984-0.408 0.984-1.008s-0.384-1.008-0.984-1.008-1.008-0.384-1.008-0.984 0.408-1.008 1.008-1.008c1.704 0 3 1.296 3 3s-1.296 3-3 3c-2.808 0-5.016-2.208-5.016-4.992s2.208-5.016 5.016-5.016c3.888 0 6.984 3.096 6.984 7.008s-3.096 7.008-6.984 7.008c-5.016 0-9-4.008-9-9 0-0.6-0.408-1.008-1.008-1.008s-1.008 0.408-1.008 1.008c0 6.096 4.92 10.992 11.016 10.992 4.992 0 9-4.008 9-9s-4.008-9-9-9z"></path>
</svg>
