<svg xmlns="http://www.w3.org/2000/svg" width="24" height="24" viewBox="0 0 24 24">
    <path d="M10.008 4.488h3.984c0.6 0 1.008-0.384 1.008-0.984s-0.408-1.008-1.008-1.008h-3.984c-0.6 0-1.008 0.408-1.008 1.008s0.408 0.984 1.008 0.984zM14.112 10.008c0.384-0.408 0.984-0.408 1.392 0s0.408 0.984 0 1.392c0 0 0 0 0 0l-0.696 0.696 4.488 4.512c1.104-2.712 0.696-5.712-1.104-8.016l0.912-0.888c0.408-0.408 0.408-1.008 0-1.416-0.408-0.384-1.008-0.384-1.392 0l-0.912 0.912c-2.304-1.8-5.304-2.208-7.992-1.008l4.488 4.512 0.816-0.696zM18.312 18.408v0l-11.208-11.208c0 0 0 0 0 0v0l-1.392-1.392c-0.408-0.408-1.008-0.408-1.416 0-0.384 0.384-0.384 0.984 0 1.392l1.416 1.392c-2.712 3.504-2.112 8.496 1.392 11.208 2.904 2.304 6.888 2.304 9.792 0l1.416 1.392c0.384 0.408 0.984 0.408 1.392 0 0.408-0.384 0.408-0.984 0-1.392l-1.392-1.392zM12 15.504c-1.104 0-1.992-0.912-1.992-2.016 0-0.192 0-0.288 0.096-0.48l2.4 2.4c-0.192 0.096-0.312 0.096-0.504 0.096z"></path>
</svg>
