<svg xmlns="http://www.w3.org/2000/svg" width="24" height="24" viewBox="0 0 24 24">
    <path d="M16.992 3.288c-3.888-2.184-8.688-1.488-11.904 1.416v-1.704c0-0.6-0.384-1.008-0.984-1.008s-1.008 0.408-1.008 1.008v4.488c0 0.6 0.408 1.008 1.008 1.008h4.488c0.6 0 1.008-0.408 1.008-1.008s-0.408-0.984-1.008-0.984h-2.4c1.512-1.608 3.6-2.496 5.808-2.496 4.392 0 7.992 3.6 7.992 7.992v0c0 0.6 0.408 1.008 1.008 1.008v0c0.6 0 1.008-0.408 1.008-1.008 0-3.6-1.896-6.912-5.016-8.712zM19.896 15.504h-4.488c-0.6 0-1.008 0.384-1.008 0.984s0.408 1.008 1.008 1.008h2.4c-1.512 1.608-3.6 2.496-5.808 2.496-4.392 0-7.992-3.6-7.992-7.992 0-0.6-0.408-1.008-1.008-1.008s-1.008 0.408-1.008 1.008c0 5.496 4.512 10.008 10.008 10.008 2.592 0 4.992-1.008 6.912-2.808v1.8c0 0.6 0.384 1.008 0.984 1.008v0c0.6 0 1.008-0.408 1.008-1.008v-4.512c0-0.6-0.504-0.984-1.008-0.984z"></path>
</svg>
