<svg xmlns="http://www.w3.org/2000/svg" width="24" height="24" viewBox="0 0 24 24">
    <path d="M21.696 2.304v0c-0.384-0.408-0.984-0.408-1.392 0 0 0 0 0 0 0l-2.112 2.088-0.696-0.696c-0.384-0.408-0.984-0.408-1.392 0 0 0 0 0 0 0l-1.416 1.392-0.696-0.696c-0.384-0.384-0.984-0.384-1.392 0l-7.8 7.8-0.792-0.696c-0.408-0.408-1.008-0.408-1.416 0-0.384 0.408-0.384 1.008 0 1.392l3.504 3.504c-0.696 0.696-1.296 1.296-1.704 1.704l-0.696-0.696c-0.384-0.408-0.984-0.408-1.392 0s-0.408 1.008 0 1.392l2.808 2.808c0.384 0.408 0.984 0.408 1.392 0s0.408-1.008 0-1.392v0l-0.696-0.72 1.704-1.68 3.48 3.504c0.408 0.384 1.008 0.384 1.416 0 0.384-0.408 0.384-1.008 0-1.416l-0.72-0.696 7.824-7.8c0.384-0.408 0.384-1.008 0-1.392 0 0 0 0 0 0l-0.72-0.72 1.416-1.392c0.384-0.408 0.384-1.008 0-1.392 0 0 0 0 0 0l-0.696-0.696 2.088-2.112c0.504-0.408 0.504-1.008 0.096-1.392zM7.608 15l-1.416-1.392 1.416-1.416 1.392 1.416c-0.408 0.384-0.912 0.888-1.392 1.392zM10.392 17.808l-1.392-1.416 1.392-1.392 1.416 1.392-1.416 1.416z"></path>
</svg>
