<svg xmlns="http://www.w3.org/2000/svg" width="24" height="24" viewBox="0 0 24 24">
    <path d="M8.304 4.992l-6.312 6.312v0.696c0 0.6 0.408 1.008 1.008 1.008h0.696l8.016-8.016h-3.408zM6 4.992v-0.984c0-0.6-0.408-1.008-1.008-1.008s-0.984 0.408-0.984 1.008v0.984h-1.008c-0.6 0-1.008 0.408-1.008 1.008v2.496l3.504-3.504h0.504zM19.992 4.008c0-0.6-0.384-1.008-0.984-1.008s-1.008 0.408-1.008 1.008v0.984h1.992v-0.984zM21 4.992h-0.696l-7.992 8.016h3.288l6.408-6.312v-0.696c0-0.6-0.408-1.008-1.008-1.008zM18 13.008v6.984c0 0.6 0.408 1.008 1.008 1.008s0.984-0.408 0.984-1.008v-6.984h1.008c0.6 0 1.008-0.408 1.008-1.008v-2.496l-3.504 3.504h-0.504zM4.008 19.992c0 0.6 0.384 1.008 0.984 1.008s1.008-0.408 1.008-1.008v-6.984h-1.992v6.984zM14.496 4.992l-7.992 8.016h3l7.992-8.016h-3z"></path>
</svg>
