<svg xmlns="http://www.w3.org/2000/svg" width="24" height="24" viewBox="0 0 24 24">
    <path d="M19.992 6h-3.984v-1.008c0-1.704-1.296-3-3-3h-2.016c-1.68 0-3 1.296-3 3v1.008h-3.984c-0.6 0-1.008 0.408-1.008 1.008s0.408 0.984 1.008 0.984h0.984v11.016c0 1.704 1.32 3 3 3h8.016c1.704 0 3-1.296 3-3v-11.016h0.984c0.6 0 1.008-0.384 1.008-0.984s-0.408-1.008-1.008-1.008zM10.008 4.992c0-0.6 0.384-0.984 0.984-0.984h2.016c0.6 0 0.984 0.384 0.984 0.984v1.008h-3.984v-1.008zM10.992 16.992c0 0.6-0.384 1.008-0.984 1.008s-1.008-0.408-1.008-1.008v-6c0-0.6 0.408-0.984 1.008-0.984s0.984 0.384 0.984 0.984v6zM15 16.992c0 0.6-0.408 1.008-1.008 1.008s-0.984-0.408-0.984-1.008v-6c0-0.6 0.384-0.984 0.984-0.984s1.008 0.384 1.008 0.984v6z"></path>
</svg>
