<svg xmlns="http://www.w3.org/2000/svg" width="24" height="24" viewBox="0 0 24 24">
    <path d="M16.992 9h-7.992v-1.992c0-0.816 0.312-1.512 0.912-2.112 1.2-1.2 3.096-1.2 4.2 0 0.384 0.408 0.6 0.912 0.792 1.392 0 0 0 0 0 0 0.096 0.504 0.696 0.816 1.2 0.72 0.504-0.12 0.888-0.72 0.696-1.2-0.192-0.912-0.696-1.704-1.296-2.304-0.912-1.008-2.208-1.512-3.504-1.512-2.808 0-4.992 2.208-4.992 5.016v1.992c-1.704 0-3 1.296-3 3v7.008c0 1.68 1.296 3 3 3h9.984c1.704 0 3-1.32 3-3v-7.008c0-1.704-1.296-3-3-3zM13.008 16.992c0 0.6-0.408 1.008-1.008 1.008s-1.008-0.408-1.008-1.008v-3c0-0.6 0.408-0.984 1.008-0.984s1.008 0.384 1.008 0.984v3z"></path>
</svg>
