<svg xmlns="http://www.w3.org/2000/svg" width="24" height="24" viewBox="0 0 24 24">
    <path d="M12.408 4.104c-0.312-0.216-0.816-0.096-1.104 0.096l-4.704 3.792h-3.6c-0.6 0-1.008 0.408-1.008 1.008v6c0 0.6 0.408 1.008 1.008 1.008h3.696l4.704 3.792c0.408 0.288 1.104 0.288 1.392-0.192 0.12-0.216 0.216-0.408 0.216-0.6v-14.016c0-0.384-0.216-0.696-0.6-0.888zM14.688 13.896v0c-0.48 0.192-0.792 0.696-0.6 1.296 0.12 0.408 0.504 0.696 0.912 0.696 0.096 0 0.192 0 0.288-0.096 2.112-0.696 3.216-3 2.52-5.088-0.408-1.104-1.32-2.112-2.52-2.496-0.48-0.216-1.080 0.096-1.296 0.6s0.096 1.080 0.6 1.296c1.008 0.384 1.608 1.488 1.2 2.496-0.096 0.6-0.6 1.104-1.104 1.296zM21.888 10.896c-0.48-3.504-3.288-6.288-6.792-6.792-0.504-0.096-0.984 0.288-1.104 0.792s0.312 1.104 0.912 1.104c3.288 0.504 5.496 3.504 5.088 6.792-0.384 2.616-2.4 4.704-5.088 5.112-0.504 0.096-0.912 0.6-0.912 1.104 0.096 0.48 0.504 0.888 1.008 0.888 0 0 0.096 0 0.096 0 4.416-0.6 7.416-4.704 6.792-9z"></path>
</svg>
