<svg xmlns="http://www.w3.org/2000/svg" width="24" height="24" viewBox="0 0 24 24">
    <path d="M21 1.992h-1.992c-0.408-0.096-0.912 0.312-0.912 0.696l-0.696 3.312h-1.104l-3.096-3.096c-1.2-1.104-3.096-1.104-4.2 0l-3.192 3.096h-2.808c-0.408 0-0.696 0.192-0.888 0.504-0.12 0.288-0.12 0.696 0 0.984l3.984 7.008-0.696 1.512c-0.096 0-0.192 0-0.408 0-1.68 0-3 1.296-3 3s1.32 3 3 3 3-1.296 3-3c0-0.816-0.288-1.512-0.792-2.112l1.008-1.992 1.392-0.096 3.912 5.904c0.48 0.792 1.488 1.296 2.496 1.296 0.384 0 0.792-0.096 1.104-0.216 1.296-0.504 2.088-1.896 1.896-3.288l-1.008-5.496 1.8-9h1.2c0.6 0 1.008-0.408 1.008-1.008s-0.408-1.008-1.008-1.008zM4.992 19.992c-0.6 0-0.984-0.384-0.984-0.984s0.384-1.008 0.984-1.008 1.008 0.408 1.008 1.008-0.408 0.984-1.008 0.984zM8.592 6l1.704-1.704c0.408-0.408 1.008-0.408 1.392 0l1.704 1.704h-4.8zM16.392 19.896v0c-0.384 0.192-0.888 0-1.2-0.408l-3.288-4.992 4.392-0.408 0.816 4.704c0 0.504-0.312 1.008-0.72 1.104z"></path>
</svg>
