<svg xmlns="http://www.w3.org/2000/svg" width="24" height="24" viewBox="0 0 24 24">
    <path d="M12 16.008c-1.704 0-3 1.296-3 3s1.296 3 3 3 3-1.296 3-3c0-1.704-1.296-3-3-3zM6.912 5.496l-3.216-3.192c-0.384-0.408-0.984-0.408-1.392 0-0.408 0.384-0.408 0.984 0 1.392l2.304 2.304c-1.2 0.6-2.304 1.488-3.216 2.4-0.384 0.408-0.384 1.008 0 1.392s1.008 0.408 1.416 0c0.984-0.888 1.992-1.704 3.192-2.4l1.512 1.608c-1.2 0.504-2.4 1.296-3.312 2.304-0.408 0.384-0.408 0.984 0 1.392s1.008 0.408 1.392 0c1.008-1.008 2.208-1.704 3.504-2.088l1.608 1.584c-1.392 0.216-2.712 0.912-3.696 1.896-0.408 0.408-0.408 1.008 0 1.416 0.384 0.384 0.984 0.384 1.392 0 0 0 0 0 0 0 1.008-1.008 2.304-1.512 3.6-1.512 0.192 0 0.408 0 0.6 0l7.704 7.704c0.384 0.408 0.984 0.408 1.392 0s0.408-1.008 0-1.392l-14.784-14.808zM22.608 8.4v0c-3.216-3.192-7.8-4.8-12.312-4.296-0.6 0.096-0.984 0.6-0.888 1.104s0.6 0.888 1.104 0.888c3.888-0.504 7.896 0.912 10.68 3.696 0.408 0.408 1.008 0.408 1.416 0 0.384-0.384 0.384-0.984 0-1.392zM14.4 10.296c1.512 0.408 2.904 1.2 3.912 2.304 0.384 0.408 0.984 0.408 1.392 0s0.408-1.008 0-1.392c-1.296-1.32-3-2.304-4.8-2.808-0.504-0.096-1.104 0.192-1.2 0.696s0.192 1.104 0.696 1.2c0 0 0 0 0 0z"></path>
</svg>
