<svg id="Layer" xmlns="http://www.w3.org/2000/svg" viewBox="0 0 24 24">
    <defs>
        <style>.cls-1,.cls-2{fill:#25314c;}.cls-1{opacity:0.4;}</style>
    </defs>

        <path class="pr-icon-duotone-primary" d="M20,6.37v7.68a.3.3,0,0,1-.45.26,1.923,1.923,0,0,0-2.76.74l-.5.98-1.17.17a1.881,1.881,0,0,0-1.04,3.22l.709.675a.41.41,0,0,1,.082.121.35.35,0,0,1,.006.171l-.057.313c-.008.044-.016.077-.026.118A.273.273,0,0,1,14.52,21H5.38C3.12,21,2,19.87,2,17.62V6.37C2,4.12,3.12,3,5.38,3H16.62C18.88,3,20,4.12,20,6.37Z"/>
        <path class="pr-icon-duotone-secondary" d="M20.62,19.54a.377.377,0,0,0-.11.34l.29,1.64a.415.415,0,0,1-.41.48.372.372,0,0,1-.2-.05l-1.51-.78a.425.425,0,0,0-.36,0l-1.51.78a.492.492,0,0,1-.2.05.419.419,0,0,1-.41-.48l.29-1.64a.377.377,0,0,0-.11-.34l-1.261-1.21a.378.378,0,0,1,.21-.65l1.751-.25a.377.377,0,0,0,.29-.2l.76-1.5a.413.413,0,0,1,.74,0l.76,1.5a.377.377,0,0,0,.29.2l1.751.25a.378.378,0,0,1,.21.65Z"/>
        <path class="pr-icon-duotone-secondary" d="M6,14.75a.75.75,0,0,1-.53-1.28l2.79-2.791a1.753,1.753,0,0,1,2.474,0l1.589,1.586a.25.25,0,0,0,.353,0L15.47,9.47a.75.75,0,0,1,1.06,1.06l-2.793,2.794a1.752,1.752,0,0,1-2.474,0L9.674,11.74a.249.249,0,0,0-.353,0L6.53,14.53A.744.744,0,0,1,6,14.75Z"/>

</svg>