<svg id="Layer" xmlns="http://www.w3.org/2000/svg" viewBox="0 0 24 24">
    <defs>
        <style>.cls-1,.cls-2{fill:#25314c;}.cls-1{opacity:0.4;}</style>
    </defs>

        <circle class="pr-icon-duotone-primary" cx="12" cy="12" r="8"/>
        <path class="pr-icon-duotone-secondary" d="M18.531,20.471a.75.75,0,1,1-1.062,1.058l-2.218-2.224a7.9,7.9,0,0,0,1.352-.769Zm-13.062,0a.75.75,0,0,0,1.062,1.06l2.218-2.225A7.9,7.9,0,0,1,7.4,18.536ZM21.536,5.525a.752.752,0,0,0-.011-1.061l-2-1.96a.75.75,0,0,0-1.05,1.072l2,1.96a.751.751,0,0,0,1.061-.011ZM3.53,5.53l2-2A.75.75,0,0,0,4.47,2.47l-2,2A.75.75,0,1,0,3.53,5.53Z"/>
        <path class="pr-icon-duotone-secondary" d="M14.5,11.25H12.75V9.5a.75.75,0,0,0-1.5,0v1.75H9.5a.75.75,0,0,0,0,1.5h1.75V14.5a.75.75,0,0,0,1.5,0V12.75H14.5a.75.75,0,0,0,0-1.5Z"/>

</svg>