<svg id="Layer" xmlns="http://www.w3.org/2000/svg" viewBox="0 0 24 24">
    <defs>
        <style>.cls-1,.cls-2{fill:#25314c;}.cls-2{opacity:0.4;}</style>
    </defs>

        <path class="pr-icon-duotone-primary" d="M12,20a1,1,0,0,1-.707-.293l-7-7a1,1,0,0,1,1.414-1.414L12,17.586l6.293-6.293a1,1,0,0,1,1.414,1.414l-7,7A1,1,0,0,1,12,20Z"/>
        <path class="pr-icon-duotone-secondary" d="M12,13a1,1,0,0,1-.707-.293l-7-7A1,1,0,0,1,5.707,4.293L12,10.586l6.293-6.293a1,1,0,1,1,1.414,1.414l-7,7A1,1,0,0,1,12,13Z"/>

</svg>