<svg id="Layer" xmlns="http://www.w3.org/2000/svg" viewBox="0 0 24 24">
    <defs>
        <style>.cls-1,.cls-2{fill:#25314c;}.cls-1{opacity:0.4;}</style>
    </defs>
    <g id="arrow-forward-square">
        <path class="cls-1"     d="M3,17.625V6.375Q3,3,6.375,3h11.25Q21,3,21,6.375v11.25Q21,21,17.625,21H6.375Q3,21,3,17.625Z"/>
        <path class="cls-2"     d="M14.47,12.532a.748.748,0,0,0,1.06,0l1.5-1.5a.751.751,0,0,0,0-1.06l-1.5-1.5a.75.75,0,1,0-1.06,1.06l.219.22H9.75a3,3,0,0,0,0,6H15a.75.75,0,0,0,0-1.5H9.75a1.5,1.5,0,0,1,0-3h4.939l-.219.22A.749.749,0,0,0,14.47,12.532Z"/>
    </g>
</svg>