<svg xmlns="http://www.w3.org/2000/svg" width="24" height="24" viewBox="0 0 24 24">
    <path class="pr-icon-duotone-secondary" d="M14,11a1,1,0,0,1-.707-1.707l7-7a1,1,0,1,1,1.414,1.414l-7,7A1,1,0,0,1,14,11Z"/>
    <path class="pr-icon-duotone-secondary" d="M3,22a1,1,0,0,1-.707-1.707l7-7a1,1,0,0,1,1.414,1.414l-7,7A1,1,0,0,1,3,22Z"/>
    <path class="pr-icon-duotone-primary" d="M21,10a1,1,0,0,1-1-1V4H15a1,1,0,0,1,0-2h6a1,1,0,0,1,1,1V9A1,1,0,0,1,21,10Z"/>
    <path class="pr-icon-duotone-primary" d="M9,22H3a1,1,0,0,1-1-1V15a1,1,0,0,1,2,0v5H9a1,1,0,0,1,0,2Z"/>
</svg>