<svg id="Layer" xmlns="http://www.w3.org/2000/svg" viewBox="0 0 24 24">
    <defs>
        <style>.cls-1,.cls-2{fill:#25314c;}.cls-1{opacity:0.4;}</style>
    </defs>
    <g id="arrow-left-arrow-right-square">
        <path class="cls-1"     d="M3,17.625V6.375Q3,3,6.375,3h11.25Q21,3,21,6.375v11.25Q21,21,17.625,21H6.375Q3,21,3,17.625Z"/>
        <path class="cls-2"     d="M8.667,12.418a.747.747,0,0,1-.53-.219L6.47,10.532a.736.736,0,0,1-.162-.241.749.749,0,0,1,0-.578.736.736,0,0,1,.162-.241L8.137,7.805A.75.75,0,0,1,9.2,8.865l-.386.387H15a.75.75,0,0,1,0,1.5H8.811l.386.386a.75.75,0,0,1-.53,1.28ZM17.75,14a.768.768,0,0,0-.058-.289.736.736,0,0,0-.162-.241L15.863,11.8a.75.75,0,1,0-1.06,1.061l.386.386H9a.75.75,0,0,0,0,1.5h6.189l-.386.386a.75.75,0,1,0,1.06,1.061l1.667-1.667a.736.736,0,0,0,.162-.241A.768.768,0,0,0,17.75,14Z"/>
    </g>
</svg>