<svg id="Layer" xmlns="http://www.w3.org/2000/svg" viewBox="0 0 24 24">
    <defs>
        <style>.cls-1,.cls-2{fill:#25314c;}.cls-2{opacity:0.4;}</style>
    </defs>

        <path class="pr-icon-duotone-primary" d="M12,16.5A4.5,4.5,0,1,1,16.5,12,4.505,4.505,0,0,1,12,16.5Zm0-7A2.5,2.5,0,1,0,14.5,12,2.5,2.5,0,0,0,12,9.5Z"/>
        <path class="pr-icon-duotone-secondary" d="M12,22A10,10,0,1,1,22,12c0,2.365-1.643,5-4,5-1.686,0-3.5-1.252-3.5-4V8.5a1,1,0,0,1,2,0V13c0,1.234.575,2,1.5,2,.99,0,2-1.514,2-3a8,8,0,1,0-8,8,1,1,0,0,1,0,2Z"/>

</svg>