<?xml version="1.0" encoding="UTF-8"?>
<svg id="Layer_7" data-name="Layer 7" xmlns="http://www.w3.org/2000/svg" viewBox="0 0 24 24">
    <defs>
        <style>   .cls-1, .cls-2 {   fill: #25314c;   }
   .cls-2 {   opacity: .4;   }
        </style>
    </defs>
    <g id="baseball">
        <path class="cls-2" d="m12,22c-5.523,0-10-4.477-10-10S6.477,2,12,2s10,4.477,10,10-4.477,10-10,10Z"/>
        <path class="cls-1"     d="m13,5c-.17-.65-.25-1.32-.25-2,0-.33.02-.65.06-.97-.26-.02-.54-.03-.81-.03-.24,0-.47.01-.7.02v.01c-.04.32-.05.65-.05.97,0,.8.1,1.59.29,2.36.09.34.39.57.73.57.06,0,.12-.01.18-.02.4-.1.65-.51.55-.91Zm3.7,5.04c-.51-.32-.99-.69-1.43-1.11,0-.01-.01-.01-.02-.02l-.08-.08c-.4-.41-.76-.85-1.08-1.33-.22-.34-.69-.44-1.03-.21-.35.22-.45.69-.22,1.03.37.56.79,1.09,1.27,1.57l.08.08.02.02c.52.5,1.1.95,1.71,1.33.12.07.26.11.39.11.25,0,.5-.13.64-.36.22-.35.11-.82-.25-1.03Zm5.27,1.16c-.91.1-1.84.05-2.73-.14-.4-.09-.8.17-.89.57-.09.41.17.81.57.9.68.14,1.38.22,2.08.22.33,0,.66-.02.98-.06.01-.23.02-.46.02-.69,0-.27-.01-.54-.03-.8Zm-16.89.27c-1-.21-2.04-.27-3.06-.16-.01.23-.02.46-.02.69,0,.27.01.54.03.8.91-.1,1.84-.05,2.73.14.4.09.8-.17.89-.57.09-.41-.17-.81-.57-.9Zm6.08,4.21c-.37-.56-.79-1.09-1.27-1.57l-.08-.08-.02-.02c-.52-.5-1.1-.95-1.71-1.33-.35-.21-.82-.1-1.03.25-.22.35-.11.82.25,1.03.51.32.99.69,1.43,1.11,0,.01.01.01.02.02l.08.08c.4.41.76.85,1.08,1.33.14.22.38.34.62.34.14,0,.29-.04.41-.13.35-.22.45-.69.22-1.03Zm1.3,2.96c-.1-.4-.51-.65-.91-.55-.4.1-.65.51-.55.91.17.65.25,1.32.25,2,0,.33-.02.65-.06.97.26.02.54.03.81.03.24,0,.47-.01.7-.02v-.01c.04-.32.05-.65.05-.97,0-.8-.1-1.59-.29-2.36Z"/>
    </g>
</svg>