<svg xmlns="http://www.w3.org/2000/svg" width="24" height="24" viewBox="0 0 24 24">
    <circle class="pr-icon-duotone-secondary" cx="12" cy="12" r="10"/>
    <path class="pr-icon-duotone-primary" d="M14.922,11.745a2.57,2.57,0,0,0-1.512-4.1V7a.75.75,0,0,0-1.5,0v.59h-.591V7a.75.75,0,0,0-1.5,0v.59H8.765a.75.75,0,0,0,0,1.5H9.3v5.82H8.765a.75.75,0,0,0,0,1.5H9.819V17a.75.75,0,0,0,1.5,0v-.59h.591V17a.75.75,0,0,0,1.5,0v-.59h.017a2.579,2.579,0,0,0,1.5-4.665Zm-.953-1.575a1.07,1.07,0,0,1-1.058,1.08H10.8V9.09h2.115A1.07,1.07,0,0,1,13.969,10.17Zm-.542,4.74H10.8V12.75h2.631a1.08,1.08,0,0,1,0,2.16Z"/>
</svg>