<svg id="Layer" xmlns="http://www.w3.org/2000/svg" viewBox="0 0 24 24">
    <defs>
        <style>.cls-1,.cls-2{fill:#25314c;}.cls-1{opacity:0.4;}</style>
    </defs>

        <path class="pr-icon-duotone-primary" d="M3,17.625V6.375Q3,3,6.375,3h11.25Q21,3,21,6.375v11.25Q21,21,17.625,21H6.375Q3,21,3,17.625Z"/>
        <path class="pr-icon-duotone-secondary" d="M16.62,11.236a.374.374,0,0,0-.343-.222H13.6V6.5a.375.375,0,0,0-.654-.251l-5.5,6.111a.375.375,0,0,0,.279.626H10.4V17.5a.376.376,0,0,0,.241.35.375.375,0,0,0,.413-.1l5.5-6.111A.376.376,0,0,0,16.62,11.236Z"/>

</svg>