<svg id="Layer" xmlns="http://www.w3.org/2000/svg" viewBox="0 0 24 24">
    <defs>
        <style>.cls-1,.cls-2{fill:#25314c;}.cls-2{opacity:0.4;}</style>
    </defs>
    <g id="bolt-slash-alt">
        <path class="cls-1"     d="M3,21.75a.75.75,0,0,1-.53-1.28l18-18a.75.75,0,0,1,1.06,1.06l-18,18A.744.744,0,0,1,3,21.75Z"/>
        <path class="cls-2"     d="M19.457,10.8A.5.5,0,0,0,19,10.5H17a.5.5,0,0,0-.354.146l-7,7A.5.5,0,0,0,9.5,18v3a.5.5,0,0,0,.321.467A.506.506,0,0,0,10,21.5a.5.5,0,0,0,.372-.166l9-10A.5.5,0,0,0,19.457,10.8Z"/>
        <path class="cls-2"     d="M9.64,14.36A.575.575,0,0,1,9.5,14v-.5H5a.505.505,0,0,1-.46-.3.491.491,0,0,1,.09-.53l9-10a.5.5,0,0,1,.55-.14A.511.511,0,0,1,14.5,3V9.5Z"/>
    </g>
</svg>