<svg id="Layer" xmlns="http://www.w3.org/2000/svg" viewBox="0 0 24 24">
    <defs>
        <style>.cls-1{fill:#25314c;opacity:0.4;}</style>
    </defs>

        <path class="pr-icon-duotone-primary" d="M5.5,18a2.4,2.4,0,0,1-2.363-1.653A2.507,2.507,0,0,1,6.479,13.2a1.49,1.49,0,0,0,1.638-.315l4.764-4.764a1.53,1.53,0,0,0,.3-1.674,2.567,2.567,0,0,1-.04-1.8A2.443,2.443,0,0,1,14.8,3.1a2.506,2.506,0,0,1,3.2,2.4A.5.5,0,0,0,18.5,6a2.4,2.4,0,0,1,2.359,1.656,2.507,2.507,0,0,1-3.34,3.146,1.49,1.49,0,0,0-1.638.315l-4.764,4.764a1.53,1.53,0,0,0-.3,1.674,2.567,2.567,0,0,1,.04,1.8A2.445,2.445,0,0,1,9.2,20.9,2.506,2.506,0,0,1,6,18.5.5.5,0,0,0,5.5,18Z"/>

</svg>