<svg id="Layer" xmlns="http://www.w3.org/2000/svg" viewBox="0 0 24 24">
    <defs>
        <style>.cls-1,.cls-2{fill:#25314c;}.cls-1{opacity:0.4;}</style>
    </defs>
    <g id="bookmark-star">
        <path class="cls-1" d="M16,3H8A2.652,2.652,0,0,0,5,6V21l7-4,7,4V6A2.652,2.652,0,0,0,16,3Z"/>
        <path class="cls-2"     d="M12.374,7.228l.755,1.5a.391.391,0,0,0,.294.208l1.743.248a.38.38,0,0,1,.216.652l-1.261,1.2a.377.377,0,0,0-.112.339l.288,1.645a.414.414,0,0,1-.6.431l-1.512-.778a.4.4,0,0,0-.362,0l-1.511.778A.416.416,0,0,1,9.7,13.02l.288-1.644a.377.377,0,0,0-.112-.339l-1.261-1.2a.38.38,0,0,1,.216-.652l1.743-.248a.391.391,0,0,0,.294-.208l.755-1.5A.421.421,0,0,1,12.374,7.228Z"/>
    </g>
</svg>