<svg id="Layer" xmlns="http://www.w3.org/2000/svg" viewBox="0 0 24 24">
    <defs>
        <style>.cls-1,.cls-2{fill:#25314c;}.cls-2{opacity:0.4;}</style>
    </defs>
    <g id="book-open-bookmark">
        <path class="cls-1"     d="M3.287,4.859a9.233,9.233,0,0,1,5.2-.776A4.008,4.008,0,0,1,12,8.06V20a9.544,9.544,0,0,0-8.354-1.2A.5.5,0,0,1,3,18.326V5.32A.513.513,0,0,1,3.287,4.859Z"/>
        <path class="cls-2"     d="M20.713,4.859a9.233,9.233,0,0,0-5.2-.776A4.008,4.008,0,0,0,12,8.06V20a9.544,9.544,0,0,1,8.354-1.2A.5.5,0,0,0,21,18.326V5.32A.513.513,0,0,0,20.713,4.859Z"/>
        <path class="cls-1" d="M18.5,4.15V10L17,9.14,15.5,10V4.08h.02A9.892,9.892,0,0,1,18.5,4.15Z"/>
    </g>
</svg>