<svg id="Layer" xmlns="http://www.w3.org/2000/svg" viewBox="0 0 24 24">
    <defs>
        <style>.cls-1,.cls-2{fill:#25314c;}.cls-1{opacity:0.4;}</style>
    </defs>
    <g id="bookmark-times">
        <path class="cls-1" d="M16,3H8A2.652,2.652,0,0,0,5,6V21l7-4,7,4V6A2.652,2.652,0,0,0,16,3Z"/>
        <path class="cls-2"     d="M13.061,10,14.53,8.53a.75.75,0,0,0-1.06-1.06L12,8.939,10.53,7.47A.75.75,0,0,0,9.47,8.53L10.939,10,9.47,11.47a.75.75,0,1,0,1.06,1.06L12,11.061l1.47,1.469a.75.75,0,0,0,1.06-1.06Z"/>
    </g>
</svg>