<svg xmlns="http://www.w3.org/2000/svg" width="24" height="24" viewBox="0 0 24 24">
    <path class="pr-icon-duotone-primary" d="M21,21.75H16a.75.75,0,0,1,0-1.5h5a.75.75,0,0,1,0,1.5Z"/>
    <path class="pr-icon-duotone-primary" d="M16.444,15.556l-5,5a1.491,1.491,0,0,1-2.12,0L5.41,16.65l2.12-2.12a.75.75,0,0,0-1.06-1.06L4.35,15.59l-.91-.91a1.491,1.491,0,0,1,0-2.12l5-5Z"/>
    <path class="pr-icon-duotone-secondary" d="M11.168,5.546l2.743,1.1a1.5,1.5,0,0,0,1.728-.456l1.98-2.474a1.9,1.9,0,0,1,2.825-.157h0a1.9,1.9,0,0,1-.157,2.825l-2.474,1.98a1.5,1.5,0,0,0-.456,1.728l1.1,2.743a2,2,0,0,1-.443,2.157L17.3,15.7a.5.5,0,0,1-.707,0L8.3,7.41a.5.5,0,0,1,0-.707l.714-.714A2,2,0,0,1,11.168,5.546Z"/>
</svg>