<?xml version="1.0" encoding="UTF-8"?>
<svg id="Layer_7" data-name="Layer 7" xmlns="http://www.w3.org/2000/svg" viewBox="0 0 24 24">
    <defs>
        <style>   .cls-1, .cls-2 {   fill: #25314c;   }
   .cls-2 {   opacity: .4;   }
        </style>
    </defs>

        <path class="pr-icon-duotone-secondary" d="m3.5,18v-.5c0-.276.224-.5.5-.5h16c.276,0,.5.224.5.5v.5c0,2-1,3-3,3H6.5c-2,0-3-1-3-3Zm.5-7h16c.276,0,.5-.224.5-.5v-.5c0-4-3-7-8.5-7h0c-5.5,0-8.5,3-8.5,7v.5c0,.276.224.5.5.5Z"/>
        <path class="pr-icon-duotone-primary" d="m21,14.75H3c-.414,0-.75-.336-.75-.75s.336-.75.75-.75h18c.414,0,.75.336.75.75s-.336.75-.75.75ZM8,6.25c-.414,0-.75.336-.75.75s.336.75.75.75.75-.336.75-.75-.336-.75-.75-.75Zm4-.999c-.414,0-.75.336-.75.75s.336.75.75.75.75-.336.75-.75-.336-.75-.75-.75Zm4,1c-.414,0-.75.336-.75.75s.336.75.75.75.75-.336.75-.75-.336-.75-.75-.75Z"/>

</svg>