<svg xmlns="http://www.w3.org/2000/svg" width="24" height="24" viewBox="0 0 24 24">
    <path class="pr-icon-duotone-secondary" d="M3,9v9a2.652,2.652,0,0,0,3,3H18a2.652,2.652,0,0,0,3-3V9Z"/>
    <path class="pr-icon-duotone-primary" d="M18,4.5H16.75V3a.75.75,0,0,0-1.5,0V4.5H8.75V3a.75.75,0,0,0-1.5,0V4.5H6a2.652,2.652,0,0,0-3,3V9H21V7.5A2.652,2.652,0,0,0,18,4.5Z"/>
    <path class="pr-icon-duotone-primary" d="M13.061,15l1.469-1.47a.75.75,0,0,0-1.06-1.06L12,13.939,10.53,12.47a.75.75,0,0,0-1.06,1.06L10.939,15,9.47,16.47a.75.75,0,1,0,1.06,1.06L12,16.061l1.47,1.469a.75.75,0,1,0,1.06-1.06Z"/>
</svg>