<svg id="Layer" xmlns="http://www.w3.org/2000/svg" viewBox="0 0 24 24">
    <defs>
        <style>.cls-1,.cls-2{fill:#25314c;}.cls-1{opacity:0.4;}</style>
    </defs>

        <path class="pr-icon-duotone-primary" d="M3,12a8.913,8.913,0,0,0,.829,3.759,1.933,1.933,0,0,1,.06,1.42l-.839,2.5a1.006,1.006,0,0,0,1.269,1.269l2.5-.839a1.933,1.933,0,0,1,1.42.06A8.995,8.995,0,1,0,3,12Z"/>
        <path class="pr-icon-duotone-secondary" d="M15,11.25H12.75V9a.75.75,0,0,0-1.5,0v2.25H9a.75.75,0,0,0,0,1.5h2.25V15a.75.75,0,0,0,1.5,0V12.75H15a.75.75,0,0,0,0-1.5Z"/>

</svg>