<svg xmlns="http://www.w3.org/2000/svg" width="24" height="24" viewBox="0 0 24 24">
    <path class="pr-icon-duotone-secondary" d="M3,12a8.913,8.913,0,0,0,.829,3.759,1.933,1.933,0,0,1,.06,1.42l-.839,2.5a1.006,1.006,0,0,0,1.269,1.269l2.5-.839a1.933,1.933,0,0,1,1.42.06A8.995,8.995,0,1,0,3,12Z"/>
    <path class="pr-icon-duotone-primary" d="M15.868,13.156a1.317,1.317,0,0,1,0-2.313L16,10.769l-.917-1.538-.131.074a1.413,1.413,0,0,1-1.379,0,1.326,1.326,0,0,1-.684-1.154A.152.152,0,0,0,12.735,8H11.21a.152.152,0,0,0-.154.149A1.328,1.328,0,0,1,10.372,9.3a1.415,1.415,0,0,1-1.38,0,.154.154,0,0,0-.207.053L8.02,10.642a.146.146,0,0,0,.055.2h0a1.317,1.317,0,0,1,0,2.312h0a.145.145,0,0,0-.055.2l.764,1.282a.154.154,0,0,0,.208.054h0a1.411,1.411,0,0,1,1.378,0,1.326,1.326,0,0,1,.684,1.154.152.152,0,0,0,.153.149h1.527a.152.152,0,0,0,.154-.149h0a1.326,1.326,0,0,1,.684-1.153,1.413,1.413,0,0,1,1.379,0,.153.153,0,0,0,.207-.053l.765-1.284a.144.144,0,0,0-.055-.2ZM12.02,13a1,1,0,0,1-.01-2h.01a1,1,0,0,1,0,2Z"/>
</svg>