<svg id="Layer" xmlns="http://www.w3.org/2000/svg" viewBox="0 0 24 24">
    <defs>
        <style>.cls-1,.cls-2{fill:#25314c;}.cls-1{opacity:0.4;}</style>
    </defs>
    <g id="clipboard-heart">
        <path class="cls-1"     d="M16,5h1a2.652,2.652,0,0,1,3,3V18a2.652,2.652,0,0,1-3,3H7a2.652,2.652,0,0,1-3-3V8A2.652,2.652,0,0,1,7,5H8"/>
        <path class="cls-2"     d="M16,4.5v1A1.326,1.326,0,0,1,14.5,7h-5A1.326,1.326,0,0,1,8,5.5v-1A1.326,1.326,0,0,1,9.5,3h5A1.326,1.326,0,0,1,16,4.5Z"/>
        <path class="cls-2"     d="M15.434,13.354C14.978,15.668,12,17,12,17s-2.978-1.332-3.434-3.646c-.28-1.419.331-2.847,1.887-2.854A1.712,1.712,0,0,1,12,11.643,1.712,1.712,0,0,1,13.547,10.5C15.106,10.507,15.714,11.935,15.434,13.354Z"/>
    </g>
</svg>