<svg id="Layer" xmlns="http://www.w3.org/2000/svg" viewBox="0 0 24 24">
    <defs>
        <style>.cls-1,.cls-2{fill:#25314c;}.cls-1{opacity:0.4;}</style>
    </defs>
    <g id="clipboard-edit">
        <path class="cls-1"     d="M16,5h1a2.652,2.652,0,0,1,3,3V18a2.652,2.652,0,0,1-3,3H7a2.652,2.652,0,0,1-3-3V8A2.652,2.652,0,0,1,7,5H8"/>
        <path class="cls-2"     d="M16,4.5v1A1.326,1.326,0,0,1,14.5,7h-5A1.326,1.326,0,0,1,8,5.5v-1A1.326,1.326,0,0,1,9.5,3h5A1.326,1.326,0,0,1,16,4.5Z"/>
        <path class="cls-2"     d="M11.98,11.78l2.24,2.24-4,3.98H8V15.78Zm3.76-.53-.99-.99a.887.887,0,0,0-1.26,0l-.81.82,2.24,2.24.82-.81A.887.887,0,0,0,15.74,11.25Z"/>
    </g>
</svg>