<svg xmlns="http://www.w3.org/2000/svg" width="24" height="24" viewBox="0 0 24 24">
    <path class="pr-icon-duotone-secondary" d="M22,13a5,5,0,0,1-5,5H10.5c-.206,0-.408-.01-.608-.029a.281.281,0,0,1-.2-.428A5.684,5.684,0,0,0,10.5,14.56V12.28a1.51,1.51,0,0,0-1.13-1.46A13.129,13.129,0,0,1,6.19,9.66a1.525,1.525,0,0,0-1.36,0A.3.3,0,0,1,4.389,9.3,6.492,6.492,0,0,1,14.79,6.62a6.721,6.721,0,0,1,1.24,1.47A5.226,5.226,0,0,1,17,8,5,5,0,0,1,22,13Z"/>
    <path class="pr-icon-duotone-primary" d="M9,12.275A14.874,14.874,0,0,1,5.507,11,17.973,17.973,0,0,1,2,12.333v2.223A4.829,4.829,0,0,0,5.5,19,4.83,4.83,0,0,0,9,14.556Z"/>
</svg>