<svg xmlns="http://www.w3.org/2000/svg" width="24" height="24" viewBox="0 0 24 24">
    <path class="pr-icon-duotone-primary" d="M3,21.75a.75.75,0,0,1-.53-1.28l18-18a.75.75,0,0,1,1.06,1.06l-18,18A.744.744,0,0,1,3,21.75Z"/>
    <path class="pr-icon-duotone-secondary" d="M6.66,17.34A6.5,6.5,0,1,1,13.79,6.62a6.721,6.721,0,0,1,1.24,1.47A5.226,5.226,0,0,1,16,8"/>
    <path class="pr-icon-duotone-secondary" d="M10.724,18h5.061a5.148,5.148,0,0,0,5.19-4.492,5.005,5.005,0,0,0-1.76-4.337.306.306,0,0,0-.409.023l-8.294,8.294A.3.3,0,0,0,10.724,18Z"/>
</svg>