<svg id="Layer" xmlns="http://www.w3.org/2000/svg" viewBox="0 0 24 24">
    <defs>
        <style>.cls-1,.cls-2{fill:#25314c;}.cls-1{opacity:0.4;}</style>
    </defs>

        <path class="pr-icon-duotone-primary" d="M21,12a9.456,9.456,0,0,1-.053.984.3.3,0,0,1-.373.267,5.115,5.115,0,0,0-2.443-.178A5.025,5.025,0,0,0,14,18.02a4.965,4.965,0,0,0,.209,1.419.3.3,0,0,1-.223.39A11.149,11.149,0,0,1,12,20a10.985,10.985,0,0,1-3.59-.58c-1.34,1.43-3.53,1.62-4.95,1.57a.478.478,0,0,1-.29-.84,4.781,4.781,0,0,0,1.78-2.941A7.5,7.5,0,0,1,3,12c0-5,4.03-8,9-8S21,7,21,12Z"/>
        <path class="pr-icon-duotone-secondary" d="M21,16.75H19.25V15a.75.75,0,0,0-1.5,0v1.75H16a.75.75,0,0,0,0,1.5h1.75V20a.75.75,0,0,0,1.5,0V18.25H21a.75.75,0,0,0,0-1.5Z"/>

</svg>