<svg id="Layer" xmlns="http://www.w3.org/2000/svg" viewBox="0 0 24 24">
    <defs>
        <style>.cls-1,.cls-2{fill:#25314c;}.cls-1{opacity:0.4;}</style>
    </defs>
    <g id="comment-exclamation">
        <path class="cls-1"     d="M4.95,17.212A7.5,7.5,0,0,1,3,12c0-5,4.03-8,9-8s9,3,9,8-4.03,8-9,8a10.985,10.985,0,0,1-3.59-.58c-1.34,1.43-3.53,1.62-4.95,1.57a.478.478,0,0,1-.29-.84A4.778,4.778,0,0,0,4.95,17.212Z"/>
        <path class="cls-2"     d="M12.02,16a1,1,0,0,1-.01-2h.01a1,1,0,0,1,0,2Zm.73-4V9a.75.75,0,0,0-1.5,0v3a.75.75,0,0,0,1.5,0Z"/>
    </g>
</svg>