<svg id="Layer" xmlns="http://www.w3.org/2000/svg" viewBox="0 0 24 24">
    <defs>
        <style>.cls-1,.cls-2{fill:#25314c;}.cls-2{opacity:0.4;}</style>
    </defs>

        <path class="pr-icon-duotone-primary" d="M9.625,7H17V5.625A2.32,2.32,0,0,0,14.375,3H5.625A2.32,2.32,0,0,0,3,5.625v8.75A2.32,2.32,0,0,0,5.625,17H7V9.625A2.32,2.32,0,0,1,9.625,7Z"/>
        <path class="pr-icon-duotone-secondary" d="M21,9.625v8.75A2.32,2.32,0,0,1,18.375,21H9.625A2.32,2.32,0,0,1,7,18.375V9.625A2.32,2.32,0,0,1,9.625,7h8.75A2.32,2.32,0,0,1,21,9.625Z"/>
        <path class="pr-icon-duotone-primary" d="M13.167,16.417a.747.747,0,0,1-.53-.22L10.97,14.53a.75.75,0,0,1,1.06-1.06l1.137,1.136,2.8-2.8a.75.75,0,0,1,1.06,1.061L13.7,16.2A.747.747,0,0,1,13.167,16.417Z"/>

</svg>