<?xml version="1.0" encoding="UTF-8"?>
<svg id="Layer_7" data-name="Layer 7" xmlns="http://www.w3.org/2000/svg" viewBox="0 0 24 24">
    <defs>
        <style>   .cls-1, .cls-2 {   fill: #25314c;   }
   .cls-2 {   opacity: .4;   }
        </style>
    </defs>
    <g id="dribbble">
        <path class="cls-2" d="m12,22c-5.523,0-10-4.477-10-10S6.477,2,12,2s10,4.477,10,10-4.477,10-10,10Z"/>
        <path class="cls-1"     d="m22,11.94c-2.34-.74-4.86-.88-7.28-.42-.25-.63-.52-1.25-.83-1.87,2.17-1.02,4.14-2.34,5.86-3.97l-.05-.05-.99-1.03c-1.61,1.53-3.47,2.77-5.51,3.72-1.18-2.11-2.6-4.08-4.28-5.83l-1.41.58-.03.01c.03.08.08.15.14.21,1.65,1.68,3.04,3.58,4.19,5.62-3.03,1.15-6.2,1.59-9.62,1.2l-.17,1.45-.01.04c.84.1,1.68.15,2.49.15,2.76,0,5.45-.52,8.01-1.51.27.54.52,1.09.74,1.64-3.63,1.05-6.79,3.44-8.77,6.69l1.09,1.07c.03-.03.06-.08.09-.12,1.8-3.06,4.73-5.29,8.11-6.23.89,2.53,1.39,5.19,1.46,7.9,0,.09.02.17.06.25l1.42-.63c-.09-2.7-.61-5.34-1.47-7.87,2.17-.36,4.41-.2,6.5.48.05.02.1.03.15.03l.11-1.51Z"/>
    </g>
</svg>