<svg xmlns="http://www.w3.org/2000/svg" width="24" height="24" viewBox="0 0 24 24">
    <path class="pr-icon-duotone-secondary" d="M16.86,7.14a23.21,23.21,0,0,0-4.57-4.55.512.512,0,0,0-.58,0C11.42,2.8,4.5,7.81,4.5,14a7.518,7.518,0,0,0,1.23,4.13.158.158,0,0,0,.07.07Z"/>
    <path class="pr-icon-duotone-secondary" d="M18.472,9.767a.5.5,0,0,0-.8-.141L7.8,19.5a.5.5,0,0,0,.078.77A7.5,7.5,0,0,0,19.5,14,9.932,9.932,0,0,0,18.472,9.767Z"/>
    <path class="pr-icon-duotone-primary" d="M3,21.75a.75.75,0,0,1-.53-1.28l18-18a.75.75,0,0,1,1.06,1.06l-18,18A.744.744,0,0,1,3,21.75Z"/>
</svg>