<svg id="Layer" xmlns="http://www.w3.org/2000/svg" viewBox="0 0 24 24">
    <defs>
        <style>.cls-1,.cls-2{fill:#25314c;}.cls-1{opacity:0.4;}</style>
    </defs>
    <g id="envelope-minus">
        <path class="cls-1"     d="M17,4H5A2.652,2.652,0,0,0,2,7v9a2.652,2.652,0,0,0,3,3h7.46a.289.289,0,0,0,.27-.39,5.509,5.509,0,0,1,5.01-7.1,5.435,5.435,0,0,1,1.86.23.3.3,0,0,0,.4-.28V7A2.652,2.652,0,0,0,17,4Z"/>
        <path class="cls-2"     d="M11,12.514a1.744,1.744,0,0,1-1.029-.335L5.059,8.606a.749.749,0,1,1,.882-1.212l4.913,3.572a.248.248,0,0,0,.292,0l4.913-3.572a.749.749,0,1,1,.882,1.212l-4.912,3.573A1.744,1.744,0,0,1,11,12.514Z"/>
        <path class="cls-2" d="M18,13a4,4,0,1,0,4,4A4,4,0,0,0,18,13Zm1.25,4.5h-2.5a.5.5,0,0,1,0-1h2.5a.5.5,0,0,1,0,1Z"/>
    </g>
</svg>