<svg id="Layer" xmlns="http://www.w3.org/2000/svg" viewBox="0 0 24 24">
    <defs>
        <style>.cls-1,.cls-2{fill:#25314c;}.cls-1{opacity:0.4;}</style>
    </defs>

        <path class="pr-icon-duotone-primary" d="M20,7v5.723a.3.3,0,0,1-.28.293,3,3,0,0,0-1.22.394A2.96,2.96,0,0,0,16.96,13a3.318,3.318,0,0,0-2.63,1.2,4.191,4.191,0,0,0-.74,3.45,4.847,4.847,0,0,0,.3.974A.282.282,0,0,1,13.6,19H5a2.652,2.652,0,0,1-3-3V7A2.652,2.652,0,0,1,5,4H17A2.652,2.652,0,0,1,20,7Z"/>
        <path class="pr-icon-duotone-secondary" d="M11,12.514a1.744,1.744,0,0,1-1.029-.335L5.059,8.606a.749.749,0,1,1,.882-1.212l4.913,3.572a.248.248,0,0,0,.292,0l4.913-3.572a.749.749,0,1,1,.882,1.212l-4.912,3.573A1.744,1.744,0,0,1,11,12.514Z"/>
        <path class="pr-icon-duotone-secondary" d="M21.938,17.354C21.482,19.668,18.5,21,18.5,21s-2.978-1.332-3.434-3.646c-.28-1.419.331-2.847,1.887-2.854A1.714,1.714,0,0,1,18.5,15.643,1.714,1.714,0,0,1,20.051,14.5C21.61,14.507,22.218,15.935,21.938,17.354Z"/>

</svg>