<svg id="Layer" xmlns="http://www.w3.org/2000/svg" viewBox="0 0 24 24">
    <defs>
        <style>.cls-1,.cls-2{fill:#25314c;}.cls-1{opacity:0.4;}</style>
    </defs>
    <g id="ethereum-square">
        <path class="cls-1"     d="M3,17.625V6.375Q3,3,6.375,3h11.25Q21,3,21,6.375v11.25Q21,21,17.625,21H6.375Q3,21,3,17.625Z"/>
        <path class="cls-2"     d="M12.24,14.72l2.469-.82a.2.2,0,0,1,.227.3L12.45,17.77a.552.552,0,0,1-.9,0L9.064,14.2a.2.2,0,0,1,.227-.3l2.469.82a.74.74,0,0,0,.48,0Zm3.05-2.606a.3.3,0,0,0,.167-.429L12.48,6.28a.554.554,0,0,0-.96,0L8.543,11.685a.3.3,0,0,0,.167.429L12,13.22Z"/>
    </g>
</svg>