<svg id="Layer" xmlns="http://www.w3.org/2000/svg" viewBox="0 0 24 24">
    <defs>
        <style>.cls-1,.cls-2{fill:#25314c;}.cls-1{opacity:0.4;}</style>
    </defs>

        <path class="pr-icon-duotone-primary" d="M21,9a1,1,0,0,1-1-1V4.5c0-.449-.052-.5-.5-.5H16a1,1,0,0,1,0-2h3.5A2.32,2.32,0,0,1,22,4.5V8A1,1,0,0,1,21,9Z"/>
        <path class="pr-icon-duotone-secondary" d="M3,9A1,1,0,0,1,2,8V4.5A2.32,2.32,0,0,1,4.5,2H8A1,1,0,0,1,8,4H4.5c-.448,0-.5.051-.5.5V8A1,1,0,0,1,3,9Z"/>
        <path class="pr-icon-duotone-primary" d="M8,22H4.5A2.32,2.32,0,0,1,2,19.5V16a1,1,0,0,1,2,0v3.5c0,.449.052.5.5.5H8a1,1,0,0,1,0,2Z"/>
        <path class="pr-icon-duotone-secondary" d="M19.5,22H16a1,1,0,0,1,0-2h3.5c.448,0,.5-.051.5-.5V16a1,1,0,0,1,2,0v3.5A2.32,2.32,0,0,1,19.5,22Z"/>

</svg>