<svg xmlns="http://www.w3.org/2000/svg" width="24" height="24" viewBox="0 0 24 24">
    <path class="pr-icon-duotone-secondary" d="m12,22c-5.523,0-10-4.477-10-10S6.477,2,12,2s10,4.477,10,10-4.477,10-10,10Z"/>
    <path class="pr-icon-duotone-primary" d="m15,16.75h-6c-.414,0-.75-.336-.75-.75s.336-.75.75-.75h6c.414,0,.75.336.75.75s-.336.75-.75.75Zm1.75-6.75c0-.414-.336-.75-.75-.75h-2c-.414,0-.75.336-.75.75s.336.75.75.75h2c.414,0,.75-.336.75-.75Zm-6,0c0-.414-.336-.75-.75-.75h-2c-.414,0-.75.336-.75.75s.336.75.75.75h2c.414,0,.75-.336.75-.75Z"/>
</svg>