<?xml version="1.0" encoding="UTF-8"?>
<svg id="Layer_7" data-name="Layer 7" xmlns="http://www.w3.org/2000/svg" viewBox="0 0 24 24">
    <defs>
        <style>   .cls-1, .cls-2 {   fill: #25314c;   }
   .cls-2 {   opacity: .4;   }
        </style>
    </defs>

        <path class="pr-icon-duotone-secondary" d="m12,22c-5.523,0-10-4.477-10-10S6.477,2,12,2s10,4.477,10,10-4.477,10-10,10Z"/>
        <path class="pr-icon-duotone-primary" d="m13.56,10.12v1.88h2.89l-.45,3h-2.44v6.87c-.51.09-1.03.13-1.56.13s-1.05-.04-1.56-.13v-6.87h-2.42v-3h2.42v-2.2c0-2.51,1.49-3.8,3.77-3.8,1.1,0,2.24.2,2.24.2v2.36h-1.26c-1.24,0-1.63.77-1.63,1.56Z"/>

</svg>