<svg id="Layer" xmlns="http://www.w3.org/2000/svg" viewBox="0 0 24 24">
    <defs>
        <style>.cls-1,.cls-2{fill:#25314c;}.cls-2{opacity:0.4;}</style>
    </defs>
    <g id="fast-forward">
        <path class="cls-1"     d="M11.255,10.457,6.144,6.421A1.943,1.943,0,0,0,3,7.963v8.074a1.943,1.943,0,0,0,3.144,1.542l5.111-4.037A1.97,1.97,0,0,0,11.255,10.457Z"/>
        <path class="cls-2"     d="M21,5.25a.75.75,0,0,0-.75.75v4.453L15.144,6.421A1.943,1.943,0,0,0,12,7.963v8.074a1.943,1.943,0,0,0,3.144,1.542l5.106-4.033V18a.75.75,0,0,0,1.5,0V6A.75.75,0,0,0,21,5.25Z"/>
    </g>
</svg>