<svg id="Layer" xmlns="http://www.w3.org/2000/svg" viewBox="0 0 24 24">
    <defs>
        <style>.cls-1,.cls-2{fill:#25314c;}.cls-1{opacity:0.4;}</style>
    </defs>

        <path class="pr-icon-duotone-primary" d="M17,9a2.652,2.652,0,0,1-3-3V3H8A2.652,2.652,0,0,0,5,6V18a2.652,2.652,0,0,0,3,3h9a2.652,2.652,0,0,0,3-3V9Z"/>
        <path class="pr-icon-duotone-secondary" d="M17,9h3L14,3V6A2.652,2.652,0,0,0,17,9Z"/>
        <path class="pr-icon-duotone-secondary" d="M14.75,13.69V12.5a2.25,2.25,0,0,0-4.5,0v1.19a1.17,1.17,0,0,0-.75,1.26v2.1a1.193,1.193,0,0,0,1.35,1.35h3.3a1.193,1.193,0,0,0,1.35-1.35v-2.1A1.17,1.17,0,0,0,14.75,13.69ZM12.5,11.75a.751.751,0,0,1,.75.75v1.1h-1.5V12.5A.751.751,0,0,1,12.5,11.75Z"/>

</svg>