<svg id="Layer" xmlns="http://www.w3.org/2000/svg" viewBox="0 0 24 24">
    <defs>
        <style>.cls-1,.cls-2{fill:#25314c;}.cls-1{opacity:0.4;}</style>
    </defs>

        <path class="pr-icon-duotone-primary" d="M17,9a2.652,2.652,0,0,1-3-3V3H8A2.652,2.652,0,0,0,5,6V18a2.652,2.652,0,0,0,3,3h9a2.652,2.652,0,0,0,3-3V9Z"/>
        <path class="pr-icon-duotone-secondary" d="M17,9h3L14,3V6A2.652,2.652,0,0,0,17,9Z"/>
        <path class="pr-icon-duotone-secondary" d="M12.5,10.25a4.25,4.25,0,1,0,4.25,4.25A4.254,4.254,0,0,0,12.5,10.25Zm0,1.5a2.711,2.711,0,0,1,1.331.359l-3.723,3.722A2.721,2.721,0,0,1,9.75,14.5,2.753,2.753,0,0,1,12.5,11.75Zm0,5.5a2.711,2.711,0,0,1-1.331-.359l3.723-3.722A2.721,2.721,0,0,1,15.25,14.5,2.753,2.753,0,0,1,12.5,17.25Z"/>

</svg>