<svg id="Layer" xmlns="http://www.w3.org/2000/svg" viewBox="0 0 24 24">
    <defs>
        <style>.cls-1,.cls-2{fill:#25314c;}.cls-2{opacity:0.4;}</style>
    </defs>

        <path class="pr-icon-duotone-primary" d="M12,6a2.652,2.652,0,0,0,3,3h3L12,3Z"/>
        <path class="pr-icon-duotone-secondary" d="M12,6V3H6A2.652,2.652,0,0,0,3,6V18a2.652,2.652,0,0,0,3,3h9a2.652,2.652,0,0,0,3-3V9H15A2.652,2.652,0,0,1,12,6Z"/>
        <path class="pr-icon-duotone-primary" d="M22.692,16.287a.751.751,0,0,0,0-.574.771.771,0,0,0-.162-.244l-2-2a.75.75,0,0,0-1.06,1.06l.719.72H13a.75.75,0,0,0,0,1.5h7.189l-.719.72a.75.75,0,1,0,1.06,1.06l2-2A.755.755,0,0,0,22.692,16.287Z"/>

</svg>