<svg id="Layer" xmlns="http://www.w3.org/2000/svg" viewBox="0 0 24 24">
    <defs>
        <style>.cls-1,.cls-2{fill:#25314c;}.cls-1{opacity:0.4;}</style>
    </defs>

        <path class="pr-icon-duotone-primary" d="M18,8v4.215a.3.3,0,0,1-.287.292A5.511,5.511,0,0,0,12.5,18a5.388,5.388,0,0,0,.238,1.6.3.3,0,0,1-.28.4H6a2.652,2.652,0,0,1-3-3V5A2.652,2.652,0,0,1,6,2h6V5a3,3,0,0,0,3,3Z"/>
        <path class="pr-icon-duotone-secondary" d="M15,8h3L12,2V5A2.652,2.652,0,0,0,15,8Z"/>
        <path class="pr-icon-duotone-secondary" d="M14,11.75H7a.75.75,0,0,1,0-1.5h7a.75.75,0,0,1,0,1.5ZM11.75,15a.75.75,0,0,0-.75-.75H7a.75.75,0,0,0,0,1.5h4A.75.75,0,0,0,11.75,15Z"/>
        <path class="pr-icon-duotone-secondary" d="M18,14a4,4,0,1,0,4,4A4,4,0,0,0,18,14Zm1.354,4.646a.5.5,0,0,1-.708.708L18,18.707l-.646.647a.5.5,0,0,1-.708-.708L17.293,18l-.647-.646a.5.5,0,0,1,.708-.708l.646.647.646-.647a.5.5,0,0,1,.708.708L18.707,18Z"/>

</svg>