<svg id="Layer" xmlns="http://www.w3.org/2000/svg" viewBox="0 0 24 24">
    <defs>
        <style>.cls-1,.cls-2{fill:#25314c;}.cls-1{opacity:0.4;}</style>
    </defs>

        <path class="pr-icon-duotone-primary" d="M17,9a2.652,2.652,0,0,1-3-3V3H8A2.652,2.652,0,0,0,5,6V18a2.652,2.652,0,0,0,3,3h9a2.652,2.652,0,0,0,3-3V9Z"/>
        <path class="pr-icon-duotone-secondary" d="M17,9h3L14,3V6A2.652,2.652,0,0,0,17,9Z"/>
        <path class="pr-icon-duotone-secondary" d="M15,13.25H13.25V11.5a.75.75,0,0,0-1.5,0v1.75H10a.75.75,0,0,0,0,1.5h1.75V16.5a.75.75,0,0,0,1.5,0V14.75H15a.75.75,0,0,0,0-1.5Z"/>

</svg>