<svg xmlns="http://www.w3.org/2000/svg" width="24" height="24" viewBox="0 0 24 24">
    <path class="pr-icon-duotone-secondary" d="M17,9a2.652,2.652,0,0,1-3-3V3H8A2.652,2.652,0,0,0,5,6V18a2.652,2.652,0,0,0,3,3h9a2.652,2.652,0,0,0,3-3V9Z"/>
    <path class="pr-icon-duotone-primary" d="M17,9h3L14,3V6A2.652,2.652,0,0,0,17,9Z"/>
    <path class="pr-icon-duotone-primary" d="M16,12.75H9a.75.75,0,0,1,0-1.5h7a.75.75,0,0,1,0,1.5ZM13.75,16a.75.75,0,0,0-.75-.75H9a.75.75,0,0,0,0,1.5h4A.75.75,0,0,0,13.75,16Z"/>
</svg>