<svg id="Layer" xmlns="http://www.w3.org/2000/svg" viewBox="0 0 24 24">
    <defs>
        <style>.cls-1,.cls-2{fill:#25314c;}.cls-1{opacity:0.4;}</style>
    </defs>
    <g id="file-text-shield">
        <path class="cls-1"     d="M18,9v4.222a.318.318,0,0,1-.241.3,1.5,1.5,0,0,0-.439.15,14.3,14.3,0,0,1-2.74,1.06,1.491,1.491,0,0,0-1.08,1.44v1.94a5.186,5.186,0,0,0,.6,2.462.3.3,0,0,1-.271.428H6a2.652,2.652,0,0,1-3-3V6A2.652,2.652,0,0,1,6,3h6V6a3,3,0,0,0,3,3Z"/>
        <path class="cls-2" d="M15,9h3L12,3V6A2.652,2.652,0,0,0,15,9Z"/>
        <path class="cls-2"     d="M14,12.75H7a.75.75,0,0,1,0-1.5h7a.75.75,0,0,1,0,1.5ZM11.75,16a.75.75,0,0,0-.75-.75H7a.75.75,0,0,0,0,1.5h4A.75.75,0,0,0,11.75,16Z"/>
        <path class="cls-2"     d="M21,16.116A12.584,12.584,0,0,1,18.006,15,15.248,15.248,0,0,1,15,16.167v1.944A4.206,4.206,0,0,0,18,22a4.206,4.206,0,0,0,3-3.889Z"/>
    </g>
</svg>