<svg id="Layer" xmlns="http://www.w3.org/2000/svg" viewBox="0 0 24 24">
    <defs>
        <style>.cls-1,.cls-2{fill:#25314c;}.cls-2{opacity:0.4;}</style>
    </defs>
    <g id="grid-square-circle">
        <path class="cls-1" d="M20,17a3,3,0,1,1-3-3A3,3,0,0,1,20,17Z"/>
        <path class="cls-2"     d="M20,5.5v3A1.326,1.326,0,0,1,18.5,10h-3A1.326,1.326,0,0,1,14,8.5v-3A1.326,1.326,0,0,1,15.5,4h3A1.326,1.326,0,0,1,20,5.5ZM8.5,4h-3A1.326,1.326,0,0,0,4,5.5v3A1.326,1.326,0,0,0,5.5,10h3A1.326,1.326,0,0,0,10,8.5v-3A1.326,1.326,0,0,0,8.5,4Zm0,10h-3A1.326,1.326,0,0,0,4,15.5v3A1.326,1.326,0,0,0,5.5,20h3A1.326,1.326,0,0,0,10,18.5v-3A1.326,1.326,0,0,0,8.5,14Z"/>
    </g>
</svg>