<svg id="Layer" xmlns="http://www.w3.org/2000/svg" viewBox="0 0 24 24">
    <defs>
        <style>.cls-1,.cls-2{fill:#25314c;}.cls-1{opacity:0.4;}</style>
    </defs>

        <path class="pr-icon-duotone-primary" d="M8.5,20h-3A1.326,1.326,0,0,1,4,18.5V5.5A1.326,1.326,0,0,1,5.5,4h3A1.326,1.326,0,0,1,10,5.5v13A1.326,1.326,0,0,1,8.5,20Z"/>
        <path class="pr-icon-duotone-secondary" d="M18.5,20h-3A1.326,1.326,0,0,1,14,18.5V5.5A1.326,1.326,0,0,1,15.5,4h3A1.326,1.326,0,0,1,20,5.5v13A1.326,1.326,0,0,1,18.5,20Z"/>

</svg>