<svg xmlns="http://www.w3.org/2000/svg" width="24" height="24" viewBox="0 0 24 24">
    <path class="pr-icon-duotone-primary" d="M20.9,13.468l-1.455-8A2.958,2.958,0,0,0,16.5,3H7.5A2.959,2.959,0,0,0,4.552,5.463l-1.455,8A5.94,5.94,0,0,0,3,14.541V16a2.652,2.652,0,0,1,3-3H18a2.652,2.652,0,0,1,3,3V14.541A5.94,5.94,0,0,0,20.9,13.468Z"/>
    <path class="pr-icon-duotone-secondary" d="M21,16v2a2.652,2.652,0,0,1-3,3H6a2.652,2.652,0,0,1-3-3V16a2.652,2.652,0,0,1,3-3H18A2.652,2.652,0,0,1,21,16Z"/>
    <path class="pr-icon-duotone-primary" d="M18,17a1,1,0,1,1-1-1A1,1,0,0,1,18,17Zm-4-1a1,1,0,1,0,1,1A1,1,0,0,0,14,16Z"/>
</svg>