<svg id="Layer" xmlns="http://www.w3.org/2000/svg" viewBox="0 0 24 24">
    <defs>
        <style>.cls-1,.cls-2{fill:#25314c;}.cls-1{fill-rule:evenodd;opacity:0.4;}</style>
    </defs>
    <g id="home-lock">
        <path class="cls-1"     d="M21,18V11.651c0-2-.523-2.3-1.43-3.065l-5.964-5a2.5,2.5,0,0,0-3.212,0l-5.964,5C3.523,9.346,3,9.652,3,11.651V18a2.652,2.652,0,0,0,3,3H18A2.652,2.652,0,0,0,21,18Z"/>
        <path class="cls-2"     d="M14.5,12.7V11.25a2.5,2.5,0,0,0-5,0V12.7a1.279,1.279,0,0,0-1,1.429v2.25a1.326,1.326,0,0,0,1.5,1.5h4a1.326,1.326,0,0,0,1.5-1.5v-2.25A1.279,1.279,0,0,0,14.5,12.7ZM12,10.25a1,1,0,0,1,1,1v1.375H11V11.25A1,1,0,0,1,12,10.25Z"/>
    </g>
</svg>