<svg xmlns="http://www.w3.org/2000/svg" width="24" height="24" viewBox="0 0 24 24">
    <path class="pr-icon-duotone-secondary" d="M21.477,9.085l-7.413-6.1a3.258,3.258,0,0,0-4.128,0l-7.413,6.1a.75.75,0,1,0,.954,1.158L4.5,9.4V18c0,2.29,1.21,3.5,3.5,3.5h8c2.29,0,3.5-1.21,3.5-3.5V9.4l1.023.841a.75.75,0,1,0,.954-1.158Z"/>
    <path class="pr-icon-duotone-primary" d="M15.5,10.775A14.874,14.874,0,0,1,12.007,9.5,17.973,17.973,0,0,1,8.5,10.833v2.223A4.829,4.829,0,0,0,12,17.5a4.829,4.829,0,0,0,3.5-4.444Z"/>
</svg>