<svg xmlns="http://www.w3.org/2000/svg" width="24" height="24" viewBox="0 0 24 24">
    <path class="pr-icon-duotone-secondary" fill-rule="evenodd" d="M21,18V11.651c0-2-.523-2.3-1.43-3.065l-5.964-5a2.5,2.5,0,0,0-3.212,0l-5.964,5C3.523,9.346,3,9.652,3,11.651V18a2.652,2.652,0,0,0,3,3H18A2.652,2.652,0,0,0,21,18Z"/>
    <path class="pr-icon-duotone-primary" d="M16.692,12.027A.752.752,0,0,0,16,11.563H13.5a.75.75,0,0,0,0,1.5h.727l-1.513,1.559-1.178-1.179a1.477,1.477,0,0,0-2.039,0L7.47,15.47a.75.75,0,1,0,1.06,1.06L10.475,14.5l1.178,1.18a1.477,1.477,0,0,0,2.038,0l1.559-1.558v.689a.75.75,0,1,0,1.5,0v-2.5A.75.75,0,0,0,16.692,12.027Z"/>
</svg>