<svg id="Layer" xmlns="http://www.w3.org/2000/svg" viewBox="0 0 24 24">
    <defs>
        <style>.cls-1,.cls-2{fill:#25314c;}.cls-1{fill-rule:evenodd;opacity:0.4;}</style>
    </defs>
    <g id="home-star">
        <path class="cls-1"     d="M21,18V11.651c0-2-.523-2.3-1.43-3.065l-5.964-5a2.5,2.5,0,0,0-3.212,0l-5.964,5C3.523,9.346,3,9.652,3,11.651V18a2.652,2.652,0,0,0,3,3H18A2.652,2.652,0,0,0,21,18Z"/>
        <path class="cls-2"     d="M12.454,9.78l.917,1.844a.473.473,0,0,0,.357.257l2.116.3a.469.469,0,0,1,.262.8l-1.53,1.48a.47.47,0,0,0-.137.417l.351,2.026a.505.505,0,0,1-.734.53l-1.836-.957a.475.475,0,0,0-.44,0l-1.834.957a.507.507,0,0,1-.735-.532l.35-2.024a.47.47,0,0,0-.137-.417l-1.53-1.48a.469.469,0,0,1,.262-.8l2.116-.3a.473.473,0,0,0,.357-.257l.917-1.844A.508.508,0,0,1,12.454,9.78Z"/>
    </g>
</svg>