<svg id="Layer" xmlns="http://www.w3.org/2000/svg" viewBox="0 0 24 24">
    <defs>
        <style>.cls-1,.cls-2{fill:#25314c;}.cls-1{opacity:0.4;}</style>
    </defs>

        <path class="pr-icon-duotone-primary" d="M21.477,9.085l-7.413-6.1a3.258,3.258,0,0,0-4.128,0l-7.413,6.1a.75.75,0,1,0,.954,1.158L4.5,9.4V18c0,2.29,1.21,3.5,3.5,3.5h8c2.29,0,3.5-1.21,3.5-3.5V9.4l1.023.841a.75.75,0,1,0,.954-1.158Z"/>
        <path class="pr-icon-duotone-secondary" d="M16.692,11.713A.753.753,0,0,0,16,11.25H13.5a.75.75,0,0,0,0,1.5h.727l-1.513,1.558-1.178-1.179a1.477,1.477,0,0,0-2.039,0L7.47,15.156a.75.75,0,1,0,1.06,1.061l1.945-2.028,1.178,1.18a1.477,1.477,0,0,0,2.038,0L15.25,13.81v.69a.75.75,0,0,0,1.5,0V12A.751.751,0,0,0,16.692,11.713Z"/>

</svg>