<svg xmlns="http://www.w3.org/2000/svg" width="24" height="24" viewBox="0 0 24 24">
    <path class="pr-icon-duotone-secondary" d="M21.477,9.085l-7.413-6.1a3.258,3.258,0,0,0-4.128,0l-7.413,6.1a.75.75,0,1,0,.954,1.158L4.5,9.4V18c0,2.29,1.21,3.5,3.5,3.5h8c2.29,0,3.5-1.21,3.5-3.5V9.4l1.023.841a.75.75,0,1,0,.954-1.158Z"/>
    <path class="pr-icon-duotone-primary" d="M14.5,12.7V11.25a2.5,2.5,0,0,0-5,0V12.7a1.279,1.279,0,0,0-1,1.429v2.25a1.326,1.326,0,0,0,1.5,1.5h4a1.326,1.326,0,0,0,1.5-1.5v-2.25A1.279,1.279,0,0,0,14.5,12.7ZM12,10.25a1,1,0,0,1,1,1v1.375H11V11.25A1,1,0,0,1,12,10.25Z"/>
</svg>