<?xml version="1.0" encoding="UTF-8"?>
<svg id="Layer_7" data-name="Layer 7" xmlns="http://www.w3.org/2000/svg" viewBox="0 0 24 24">
    <defs>
        <style>   .cls-1, .cls-2 {   fill: #25314c;   }
   .cls-2 {   opacity: .4;   }
        </style>
    </defs>
    <g id="jump-rope">
        <path class="cls-2"     d="m21.5,5v8c0,.28-.22.5-.5.5h-4c-.28,0-.5-.22-.5-.5V5c0-1.38,1.12-2.5,2.5-2.5s2.5,1.12,2.5,2.5Zm-14.5,5.5H3c-.28,0-.5.22-.5.5v8c0,1.38,1.12,2.5,2.5,2.5s2.5-1.12,2.5-2.5v-8c0-.28-.22-.5-.5-.5Z"/>
        <path class="cls-1"     d="m19.75,13.5v3c0,2.34-1.91,4.25-4.25,4.25s-4.25-1.91-4.25-4.25V7.5c0-1.52-1.23-2.75-2.75-2.75s-2.75,1.23-2.75,2.75v3h-1.5v-3c0-2.34,1.91-4.25,4.25-4.25s4.25,1.91,4.25,4.25v9c0,1.52,1.23,2.75,2.75,2.75s2.75-1.23,2.75-2.75v-3h1.5Zm-3.25-4.25v1.5h5v-1.5h-5ZM2.5,13.25v1.5h5v-1.5H2.5Z"/>
    </g>
</svg>