<svg xmlns="http://www.w3.org/2000/svg" width="24" height="24" viewBox="0 0 24 24">
    <path class="pr-icon-duotone-secondary" d="M6,4h7.95a.3.3,0,0,1,.3.3v6.65a.3.3,0,0,1-.3.3H3.3a.3.3,0,0,1-.3-.3V7A2.652,2.652,0,0,1,6,4Z"/>
    <path class="pr-icon-duotone-secondary" d="M3.3,12.75H13.95a.3.3,0,0,1,.3.3V19.7a.3.3,0,0,1-.3.3H6a2.652,2.652,0,0,1-3-3V13.05A.3.3,0,0,1,3.3,12.75Z"/>
    <path class="pr-icon-duotone-primary" d="M21,7V17a2.652,2.652,0,0,1-3,3H16.05a.3.3,0,0,1-.3-.3V4.3a.3.3,0,0,1,.3-.3H18A2.652,2.652,0,0,1,21,7Z"/>
</svg>