<svg id="Layer" xmlns="http://www.w3.org/2000/svg" viewBox="0 0 24 24">
    <defs>
        <style>.cls-1,.cls-2{fill:#25314c;}.cls-1{opacity:0.4;}</style>
    </defs>
    <g id="like-circle">
        <circle class="cls-1" cx="12" cy="12" r="10"/>
        <path class="cls-2"     d="M8.04,10.97H8.7a.3.3,0,0,1,.3.3v4.68a.3.3,0,0,1-.3.3H8.04a.79.79,0,0,1-.79-.79v-3.7A.792.792,0,0,1,8.04,10.97Zm7.079-1.05h-2.07V8.21a1.579,1.579,0,0,0-.7-1.32.778.778,0,0,0-.46-.14.838.838,0,0,0-.789.54l-1.085,3.3a.3.3,0,0,0-.015.094V15.95a.3.3,0,0,0,.3.3h3.759a1.3,1.3,0,0,0,1.5-1.08L16.619,12C16.959,10.98,16.7,9.92,15.119,9.92Z"/>
    </g>
</svg>