<svg xmlns="http://www.w3.org/2000/svg" width="24" height="24" viewBox="0 0 24 24">
    <path class="pr-icon-duotone-secondary" d="M15,15.75a.744.744,0,0,1-.53-.22L9,10.061,3.53,15.53a.75.75,0,0,1-1.06-1.06l6-6a.749.749,0,0,1,1.06,0L15,13.939,20.47,8.47a.75.75,0,0,1,1.06,1.06l-6,6A.744.744,0,0,1,15,15.75Z"/>
    <path class="pr-icon-duotone-primary" d="M21.02,11a2,2,0,0,1-.01-4h.01a2,2,0,0,1,0,4Z"/>
    <path class="pr-icon-duotone-primary" d="M9.02,11a2,2,0,0,1-.01-4h.01a2,2,0,0,1,0,4Z"/>
    <path class="pr-icon-duotone-primary" d="M15.02,17a2,2,0,0,1-.01-4h.01a2,2,0,0,1,0,4Z"/>
    <path class="pr-icon-duotone-primary" d="M3.02,17a2,2,0,0,1-.01-4h.01a2,2,0,0,1,0,4Z"/>
</svg>