<svg id="Layer" xmlns="http://www.w3.org/2000/svg" viewBox="0 0 24 24">
    <defs>
        <style>.cls-1,.cls-2{fill:#25314c;}.cls-1{opacity:0.4;}</style>
    </defs>
    <g id="location-pin-check">
        <path class="cls-1"     d="M12,2.5A8.51,8.51,0,0,0,3.5,11c0,4.983,4.629,8.041,7.692,10.064l.531.352a.5.5,0,0,0,.554,0l.531-.352C15.871,19.041,20.5,15.983,20.5,11A8.51,8.51,0,0,0,12,2.5Z"/>
        <path class="cls-2"     d="M11.167,13.75a.748.748,0,0,1-.531-.22L8.97,11.864A.75.75,0,1,1,10.03,10.8l1.137,1.136,2.8-2.8A.75.75,0,0,1,15.03,10.2L11.7,13.53A.747.747,0,0,1,11.167,13.75Z"/>
    </g>
</svg>