<svg xmlns="http://www.w3.org/2000/svg" width="24" height="24" viewBox="0 0 24 24">
    <path class="pr-icon-duotone-primary" fill-rule="evenodd" d="M21,3,16.61,9.91,16.6,9.9a6.489,6.489,0,0,0-3.81-1.85L16,3Z"/>
    <path class="pr-icon-duotone-primary" fill-rule="evenodd" d="M11.21,8.05A6.489,6.489,0,0,0,7.4,9.9l-.01.01L3,3H8Z"/>
    <path class="pr-icon-duotone-primary" fill-rule="evenodd" d="M21,3,16.61,9.91,16.6,9.9a6.489,6.489,0,0,0-3.81-1.85L16,3Z"/>
    <path class="pr-icon-duotone-primary" fill-rule="evenodd" d="M11.21,8.05A6.489,6.489,0,0,0,7.4,9.9l-.01.01L3,3H8Z"/>
    <circle class="pr-icon-duotone-secondary" cx="12" cy="14.5" r="6.5"/>
    <path class="pr-icon-duotone-primary" d="M11.167,16.917a.747.747,0,0,1-.53-.22L8.97,15.03a.75.75,0,0,1,1.06-1.06l1.137,1.136,2.8-2.8a.75.75,0,0,1,1.06,1.061L11.7,16.7A.747.747,0,0,1,11.167,16.917Z"/>
</svg>