<svg xmlns="http://www.w3.org/2000/svg" width="24" height="24" viewBox="0 0 24 24">
    <path class="pr-icon-duotone-secondary" d="M21,6v5.979a.3.3,0,0,1-.4.279A5.079,5.079,0,0,0,19,12a5,5,0,0,0-5,5,5.179,5.179,0,0,0,.041.661.3.3,0,0,1-.294.339H6L3,21V6A2.652,2.652,0,0,1,6,3H18A2.652,2.652,0,0,1,21,6Z"/>
    <path class="pr-icon-duotone-primary" d="M16,9.25H8a.75.75,0,0,1,0-1.5h8a.75.75,0,0,1,0,1.5ZM13.75,12.5a.75.75,0,0,0-.75-.75H8a.75.75,0,0,0,0,1.5h5A.75.75,0,0,0,13.75,12.5Z"/>
    <path class="pr-icon-duotone-primary" d="M20.061,17l1.469-1.47a.75.75,0,0,0-1.06-1.06L19,15.939,17.53,14.47a.75.75,0,0,0-1.06,1.06L17.939,17,16.47,18.47a.75.75,0,1,0,1.06,1.06L19,18.061l1.47,1.469a.75.75,0,0,0,1.06-1.06Z"/>
</svg>