<svg id="Layer" xmlns="http://www.w3.org/2000/svg" viewBox="0 0 24 24">
    <defs>
        <style>.cls-1,.cls-2{fill:#25314c;}.cls-1{opacity:0.4;}</style>
    </defs>

        <path class="pr-icon-duotone-primary" d="M21,6v5.979a.3.3,0,0,1-.4.279A5.079,5.079,0,0,0,19,12a5,5,0,0,0-5,5,5.179,5.179,0,0,0,.041.661.3.3,0,0,1-.294.339H6L3,21V6A2.652,2.652,0,0,1,6,3H18A2.652,2.652,0,0,1,21,6Z"/>
        <path class="pr-icon-duotone-secondary" d="M17.667,19.417a.748.748,0,0,1-.53-.22L15.47,17.53a.75.75,0,1,1,1.06-1.06l1.137,1.136,2.8-2.8a.75.75,0,0,1,1.06,1.061L18.2,19.2A.748.748,0,0,1,17.667,19.417Z"/>

</svg>