<svg id="Layer" xmlns="http://www.w3.org/2000/svg" viewBox="0 0 24 24">
    <defs>
        <style>.cls-1,.cls-2{fill:#25314c;}.cls-1{opacity:0.4;}</style>
    </defs>
    <g id="minimize">
        <path class="cls-1"     d="M15,10a1,1,0,0,1-.707-1.707l6-6a1,1,0,1,1,1.414,1.414l-6,6A1,1,0,0,1,15,10ZM9.707,9.707a1,1,0,0,0,0-1.414l-6-6A1,1,0,0,0,2.293,3.707l6,6a1,1,0,0,0,1.414,0Zm-6,12,6-6a1,1,0,0,0-1.414-1.414l-6,6a1,1,0,1,0,1.414,1.414Zm18,0a1,1,0,0,0,0-1.414l-6-6a1,1,0,0,0-1.414,1.414l6,6a1,1,0,0,0,1.414,0Z"/>
        <path class="cls-2"     d="M19,10H15a1,1,0,0,1-1-1V5a1,1,0,0,1,2,0V8h3a1,1,0,0,1,0,2ZM10,9V5A1,1,0,0,0,8,5V8H5a1,1,0,0,0,0,2H9A1,1,0,0,0,10,9Zm0,10V15a1,1,0,0,0-1-1H5a1,1,0,0,0,0,2H8v3a1,1,0,0,0,2,0Zm6,0V16h3a1,1,0,0,0,0-2H15a1,1,0,0,0-1,1v4a1,1,0,0,0,2,0Z"/>
    </g>
</svg>