<svg id="Layer" xmlns="http://www.w3.org/2000/svg" viewBox="0 0 24 24">
    <defs>
        <style>.cls-1,.cls-2{fill:#25314c;}.cls-1{opacity:0.4;}</style>
    </defs>

        <path class="pr-icon-duotone-primary" d="M21,7V17a2.652,2.652,0,0,1-3,3H6a2.652,2.652,0,0,1-3-3V7A2.652,2.652,0,0,1,6,4H18A2.652,2.652,0,0,1,21,7Z"/>
        <path class="pr-icon-duotone-secondary" d="M16.75,12a.755.755,0,0,1-.75.75H14.4l-1.78,2.67a.738.738,0,0,1-.62.33.34.34,0,0,1-.1-.01.735.735,0,0,1-.61-.5L9.77,10.69,8.62,12.42a.75.75,0,0,1-.62.33H3v-1.5H7.6L9.38,8.58a.751.751,0,0,1,1.33.18l1.52,4.55,1.15-1.73a.75.75,0,0,1,.62-.33h2A.755.755,0,0,1,16.75,12Z"/>

</svg>