<svg id="Layer" xmlns="http://www.w3.org/2000/svg" viewBox="0 0 24 24">
    <defs>
        <style>.cls-1,.cls-2{fill:#25314c;}.cls-1{opacity:0.4;}</style>
    </defs>

        <circle class="pr-icon-duotone-primary" cx="12" cy="12" r="10"/>
        <path class="pr-icon-duotone-secondary" d="M8.932,16h1.136a.6.6,0,0,0,.682-.667V8.667A.6.6,0,0,0,10.068,8H8.932a.6.6,0,0,0-.682.667v6.666A.6.6,0,0,0,8.932,16Z"/>
        <path class="pr-icon-duotone-secondary" d="M13.932,16h1.136a.6.6,0,0,0,.682-.667V8.667A.6.6,0,0,0,15.068,8H13.932a.6.6,0,0,0-.682.667v6.666A.6.6,0,0,0,13.932,16Z"/>

</svg>