<?xml version="1.0" encoding="UTF-8"?>
<svg id="Layer_7" data-name="Layer 7" xmlns="http://www.w3.org/2000/svg" viewBox="0 0 24 24">
    <defs>
        <style>   .cls-1, .cls-2 {   fill: #25314c;   }
   .cls-2 {   opacity: .4;   }
        </style>
    </defs>
    <g id="paypal">
        <path class="cls-1"     d="m19.947,11.29c-.4,2.48-2.585,4.31-5.16,4.31h-1.631c-.267,0-.492.19-.533.44l-.728,4.52c-.041.25-.267.44-.523.44h-2.78c-.021,0-.051,0-.072-.01-.236-.03-.39-.25-.359-.48l.503-3.11.01-.07.8-4.89c.041-.25.256-.44.523-.44h2.554c2.575,0,4.77-1.83,5.16-4.31.031-.19.051-.38.051-.56.174.09.339.18.492.29,1.252.85,1.949,2.29,1.693,3.87Z"/>
        <path class="cls-2"     d="m17.76,7.13c0,.18-.02.37-.05.56-.39,2.48-2.58,4.31-5.16,4.31h-2.55c-.27,0-.49.19-.53.44l-.8,4.89-.01.07h-3.23c-.24,0-.43-.19-.43-.42,0-.02,0-.04.01-.07L7.19,3.44c.04-.25.26-.44.52-.44h5.56c1.85,0,3.33.92,4.04,2.25.1.19.19.39.26.59.13.41.2.84.19,1.29Z"/>
    </g>
</svg>