<svg id="Layer" xmlns="http://www.w3.org/2000/svg" viewBox="0 0 24 24">
    <defs>
        <style>.cls-1,.cls-2{fill:#25314c;}.cls-1{opacity:0.4;}</style>
    </defs>
    <g id="phone-incoming">
        <path class="cls-1"     d="M14.869,14.794l-1.115,1.665a11.6,11.6,0,0,1-6.211-6.226L9.2,9.128a2.051,2.051,0,0,0,.629-2.752L8.269,3.736a1.5,1.5,0,0,0-1.587-.707l-.016,0a4.526,4.526,0,0,0-3.507,5.6A17.44,17.44,0,0,0,15.373,20.841a4.526,4.526,0,0,0,5.6-3.508h0a1.5,1.5,0,0,0-.7-1.583l-2.642-1.576A2.052,2.052,0,0,0,14.869,14.794Z"/>
        <path class="cls-2"     d="M20.53,3.47a.749.749,0,0,0-1.06,0L15.75,7.189V5.667a.75.75,0,0,0-1.5,0V9a.753.753,0,0,0,.75.75h3.333a.75.75,0,0,0,0-1.5H16.811L20.53,4.53A.749.749,0,0,0,20.53,3.47Z"/>
    </g>
</svg>