<svg id="Layer" xmlns="http://www.w3.org/2000/svg" viewBox="0 0 24 24">
    <defs>
        <style>.cls-1,.cls-2{fill:#25314c;}.cls-1{fill-rule:evenodd;opacity:0.4;}</style>
    </defs>

        <path class="pr-icon-duotone-primary" d="M3.016,17.715l.667-7A2.917,2.917,0,0,1,6.67,8H17.33a2.917,2.917,0,0,1,2.987,2.716l.667,7A2.877,2.877,0,0,1,18,21H6A2.877,2.877,0,0,1,3.016,17.715Z"/>
        <path class="pr-icon-duotone-secondary" d="M8.02,13a1,1,0,0,1-.01-2h.01a1,1,0,0,1,0,2Z"/>
        <path class="pr-icon-duotone-secondary" d="M16.02,13a1,1,0,0,1-.01-2h.01a1,1,0,0,1,0,2Z"/>
        <path class="pr-icon-duotone-secondary" d="M16.75,7V8h-1.5V7a3.25,3.25,0,0,0-6.5,0V8H7.25V7a4.75,4.75,0,0,1,9.5,0Z"/>

</svg>