<svg xmlns="http://www.w3.org/2000/svg" width="24" height="24" viewBox="0 0 24 24">
    <path class="pr-icon-duotone-primary" d="M9.021,22.25a1.25,1.25,0,0,1-.01-2.5h.01a1.25,1.25,0,0,1,0,2.5Z"/>
    <path class="pr-icon-duotone-primary" d="M17.021,22.25a1.25,1.25,0,0,1-.01-2.5h.01a1.25,1.25,0,0,1,0,2.5Z"/>
    <path class="pr-icon-duotone-secondary" d="M19.006,6H6.947L6.738,4.614A2.73,2.73,0,0,0,4.015,2.25H3.756a.75.75,0,0,0,0,1.5h.259a1.244,1.244,0,0,1,1.24,1.082l1.5,10.448A1.994,1.994,0,0,0,8.736,17h8.27a2.578,2.578,0,0,0,2.949-2.46l1.011-6.18A2,2,0,0,0,19.006,6Z"/>
    <path class="pr-icon-duotone-primary" d="M15.5,12.25h-4a.75.75,0,0,1,0-1.5h4a.75.75,0,0,1,0,1.5Z"/>
</svg>