<svg id="Layer" xmlns="http://www.w3.org/2000/svg" viewBox="0 0 24 24">
    <defs>
        <style>.cls-1,.cls-2{fill:#25314c;}.cls-1{opacity:0.4;}</style>
    </defs>
    <g id="sign-direction-right">
        <path class="cls-1"     d="M5.846,5h9.947a1.5,1.5,0,0,1,1.061.439l2.853,2.854a1,1,0,0,1,0,1.414l-2.853,2.854A1.5,1.5,0,0,1,15.793,13H5.846A1.631,1.631,0,0,1,4,11.154V6.846A1.631,1.631,0,0,1,5.846,5Z"/>
        <path class="cls-2"     d="M14.75,21a.75.75,0,0,1-.75.75H8a.75.75,0,0,1,0-1.5h2.25V14.5h1.5v5.75H14A.75.75,0,0,1,14.75,21ZM11,2.25a.755.755,0,0,0-.75.75V5h1.5V3A.755.755,0,0,0,11,2.25Z"/>
    </g>
</svg>