<svg id="Layer" xmlns="http://www.w3.org/2000/svg" viewBox="0 0 24 24">
    <defs>
        <style>.cls-1,.cls-2{fill:#25314c;}.cls-1{opacity:0.4;}</style>
    </defs>

        <path class="pr-icon-duotone-primary" d="M16,21H8a2.652,2.652,0,0,1-3-3V6A2.652,2.652,0,0,1,8,3h5.379a1.5,1.5,0,0,1,1.06.439l4.122,4.122A1.5,1.5,0,0,1,19,8.621V18A2.652,2.652,0,0,1,16,21Z"/>
        <path class="pr-icon-duotone-secondary" d="M12,16.75a.75.75,0,0,1-.75-.75V11.779L11.023,12a.749.749,0,1,1-1.046-1.073l1.5-1.464A.75.75,0,0,1,12.75,10v6A.75.75,0,0,1,12,16.75Z"/>

</svg>