<svg id="Layer" xmlns="http://www.w3.org/2000/svg" viewBox="0 0 24 24">
    <defs>
        <style>.cls-1,.cls-2{fill:#25314c;}.cls-1{opacity:0.4;}</style>
    </defs>
    <g id="sliders-vertical">
        <path class="cls-1" d="M5,22a1,1,0,0,1-1-1V16a1,1,0,0,1,2,0v5A1,1,0,0,1,5,22Z"/>
        <path class="cls-2" d="M7,17H3a1,1,0,0,1,0-2H7a1,1,0,0,1,0,2Z"/>
        <path class="cls-1" d="M5,13a1,1,0,0,1-1-1V3A1,1,0,0,1,6,3v9A1,1,0,0,1,5,13Z"/>
        <path class="cls-1" d="M12,22a1,1,0,0,1-1-1V12a1,1,0,0,1,2,0v9A1,1,0,0,1,12,22Z"/>
        <path class="cls-2" d="M14,9H10a1,1,0,0,1,0-2h4a1,1,0,0,1,0,2Z"/>
        <path class="cls-1" d="M12,9a1,1,0,0,1-1-1V3a1,1,0,0,1,2,0V8A1,1,0,0,1,12,9Z"/>
        <path class="cls-1" d="M19,22a1,1,0,0,1-1-1V16a1,1,0,0,1,2,0v5A1,1,0,0,1,19,22Z"/>
        <path class="cls-2" d="M21,17H17a1,1,0,0,1,0-2h4a1,1,0,0,1,0,2Z"/>
        <path class="cls-1" d="M19,13a1,1,0,0,1-1-1V3a1,1,0,0,1,2,0v9A1,1,0,0,1,19,13Z"/>
    </g>
</svg>