<svg id="Layer" xmlns="http://www.w3.org/2000/svg" viewBox="0 0 24 24">
    <defs>
        <style>.cls-1,.cls-2{fill:#25314c;}.cls-1{opacity:0.4;}</style>
    </defs>

        <path class="pr-icon-duotone-primary" d="M12,19a1,1,0,0,1-.707-.293l-4-4a1,1,0,1,1,1.414-1.414L12,16.586l3.293-3.293a1,1,0,0,1,1.414,1.414l-4,4A1,1,0,0,1,12,19Z"/>
        <path class="pr-icon-duotone-secondary" d="M16,11a1,1,0,0,1-.707-.293L12,7.414,8.707,10.707A1,1,0,1,1,7.293,9.293l4-4a1,1,0,0,1,1.414,0l4,4A1,1,0,0,1,16,11Z"/>

</svg>