<?xml version="1.0" encoding="UTF-8"?>
<svg id="Layer_7" data-name="Layer 7" xmlns="http://www.w3.org/2000/svg" viewBox="0 0 24 24">
    <defs>
        <style>   .cls-1, .cls-2 {   fill: #25314c;   }
   .cls-2 {   opacity: .4;   }
        </style>
    </defs>
    <g id="sticky-note-square-smile">
        <path class="cls-2"     d="m21,6.37v7.39c0,.43-.09.85-.27,1.24h-2.23c-1.93,0-3.5,1.57-3.5,3.5v2.23c-.39.18-.81.27-1.24.27h-7.39c-2.37,0-3.37-1-3.37-3.37V6.37c0-2.37,1-3.37,3.37-3.37h11.26c2.37,0,3.37,1,3.37,3.37Z"/>
        <path class="cls-1"     d="m15.02,11.25c-.689,0-1.255-.56-1.255-1.25s.555-1.25,1.245-1.25h.01c.69,0,1.25.56,1.25,1.25s-.56,1.25-1.25,1.25Zm-4.75-1.25c0-.69-.56-1.25-1.25-1.25h-.01c-.69,0-1.245.56-1.245,1.25s.565,1.25,1.255,1.25,1.25-.56,1.25-1.25Zm4.063,5.207c.371-.184.522-.634.339-1.005-.184-.37-.635-.523-1.005-.338-1.021.506-2.272.519-3.344.006-.372-.179-.821-.02-1,.353-.179.374-.021.822.354,1,.731.35,1.51.527,2.313.527.828,0,1.616-.183,2.343-.543Zm4.167-.207c-1.93,0-3.5,1.57-3.5,3.5v2.23c.32-.15.62-.35.88-.61l4.24-4.24c.26-.26.46-.56.61-.88h-2.23Z"/>
    </g>
</svg>