<svg id="Layer" xmlns="http://www.w3.org/2000/svg" viewBox="0 0 24 24">
    <defs>
        <style>.cls-1,.cls-2{fill:#25314c;}.cls-1{opacity:0.4;}</style>
    </defs>

        <path class="pr-icon-duotone-primary" d="M22,11.815A9.815,9.815,0,0,0,12.185,2h-.37A9.815,9.815,0,0,0,2,11.815v.37A9.815,9.815,0,0,0,11.815,22h0a6.467,6.467,0,0,0,2.407-.467V18.667a4.445,4.445,0,0,1,4.445-4.445h2.866A6.467,6.467,0,0,0,22,11.815Z"/>
        <path class="pr-icon-duotone-secondary" d="M14.222,18.667v2.866A6.492,6.492,0,0,0,16.4,20.1l3.7-3.7a6.478,6.478,0,0,0,1.431-2.176H18.667A4.445,4.445,0,0,0,14.222,18.667Z"/>

</svg>