<svg xmlns="http://www.w3.org/2000/svg" width="24" height="24" viewBox="0 0 24 24">
    <path class="pr-icon-duotone-secondary" fill-rule="evenodd" d="M12.5,17v2a5.905,5.905,0,0,0,.154,1.379.3.3,0,0,1-.207.363,7.44,7.44,0,0,1-2.435.242,7.5,7.5,0,1,1,7.862-8.84.308.308,0,0,1-.3.356H17A4.5,4.5,0,0,0,12.5,17Z"/>
    <path class="pr-icon-duotone-primary" d="M14.96,7.48l1.51-1.51a.75.75,0,0,1,1.06,1.06L16.07,8.49A7.6,7.6,0,0,0,14.96,7.48ZM13.75,3A.75.75,0,0,0,13,2.25H8a.75.75,0,0,0,0,1.5h5A.75.75,0,0,0,13.75,3Z"/>
    <path class="pr-icon-duotone-primary" d="M10.5,14.25a.75.75,0,0,1-.75-.75V10a.75.75,0,0,1,1.5,0v3.5A.75.75,0,0,1,10.5,14.25Z"/>
    <path class="pr-icon-duotone-primary" d="M19,14H17a2.652,2.652,0,0,0-3,3v2a2.652,2.652,0,0,0,3,3h2a2.652,2.652,0,0,0,3-3V17A2.652,2.652,0,0,0,19,14Zm.25,4.5h-2.5a.5.5,0,0,1,0-1h2.5a.5.5,0,0,1,0,1Z"/>
</svg>