<svg xmlns="http://www.w3.org/2000/svg" width="24" height="24" viewBox="0 0 24 24">
    <circle class="pr-icon-duotone-secondary" cx="11.5" cy="13.5" r="7.5"/>
    <path class="pr-icon-duotone-primary" d="M15.96,7.48l1.51-1.51a.75.75,0,0,1,1.06,1.06L17.07,8.49A7.6,7.6,0,0,0,15.96,7.48ZM14.75,3A.75.75,0,0,0,14,2.25H9a.75.75,0,0,0,0,1.5h5A.75.75,0,0,0,14.75,3Z"/>
    <path class="pr-icon-duotone-primary" d="M10.667,15.917a.748.748,0,0,1-.53-.22L8.47,14.03a.75.75,0,0,1,1.06-1.06l1.137,1.136,2.8-2.8a.75.75,0,0,1,1.06,1.061L11.2,15.7A.748.748,0,0,1,10.667,15.917Z"/>
</svg>