<svg id="Layer" xmlns="http://www.w3.org/2000/svg" viewBox="0 0 24 24">
    <defs>
        <style>.cls-1,.cls-2{fill:#25314c;}.cls-1{opacity:0.4;}</style>
    </defs>
    <g id="store">
        <path class="cls-1"     d="M20,11.34V18a2.652,2.652,0,0,1-3,3H14.33a.3.3,0,0,1-.3-.3V17.622a2.087,2.087,0,0,0-1.658-2.093A2.005,2.005,0,0,0,10.03,17.5v3.2a.3.3,0,0,1-.3.3H7a2.652,2.652,0,0,1-3-3V11.34a2.305,2.305,0,0,0,.36.25A3.08,3.08,0,0,0,5.9,12a3.267,3.267,0,0,0,3.05-2,3.326,3.326,0,0,0,6.1,0,3.267,3.267,0,0,0,3.05,2,3.08,3.08,0,0,0,1.54-.41A2.305,2.305,0,0,0,20,11.34Z"/>
        <path class="cls-2"     d="M16.505,3c2.5,0,2.883.82,3.3,2.038l1.039,3.073a2.923,2.923,0,0,1-1.2,3.481A3.058,3.058,0,0,1,18.105,12a3.281,3.281,0,0,1-3.055-2,3.318,3.318,0,0,1-6.09,0A3.281,3.281,0,0,1,5.9,12a3.054,3.054,0,0,1-1.535-.408,2.923,2.923,0,0,1-1.2-3.481L4.21,5.038C4.622,3.82,5.005,3,7.505,3Z"/>
    </g>
</svg>