<svg id="Layer" xmlns="http://www.w3.org/2000/svg" viewBox="0 0 24 24">
    <defs>
        <style>.cls-1,.cls-2{fill:#25314c;}.cls-2{opacity:0.4;}</style>
    </defs>
    <g id="tag">
        <path class="cls-1"     d="M19.96,15.21,15.2,19.98a2.61,2.61,0,0,1-4.14,0l-1.49-1.5,8.9-8.9,1.49,1.49C21.37,12.48,21.32,13.84,19.96,15.21Z"/>
        <path class="cls-2"     d="M18.47,9.58l-8.9,8.9L3.86,12.77A2.939,2.939,0,0,1,3,10.7V4.95A1.946,1.946,0,0,1,4.95,3h5.74a2.939,2.939,0,0,1,2.07.86Z"/>
        <path class="cls-1" d="M7,8a1,1,0,0,1-.009-2H7A1,1,0,0,1,7,8Z"/>
    </g>
</svg>