<?xml version="1.0" encoding="UTF-8"?>
<svg id="Layer_7" data-name="Layer 7" xmlns="http://www.w3.org/2000/svg" viewBox="0 0 24 24">
    <defs>
        <style>   .cls-1, .cls-2 {   fill: #25314c;   }
   .cls-2 {   opacity: .4;   }
        </style>
    </defs>
    <g id="taxi">
        <path class="cls-2"     d="m21.475,13.31l-.39,3.124c-.178,1.427-.69,3.066-3.084,3.066H6c-2.395,0-2.906-1.638-3.084-3.066l-.39-3.124c-.1-.795.096-1.516.55-2.031.313-.355.903-.779,1.929-.779h13.99c1.026,0,1.616.424,1.929.779.455.515.65,1.236.55,2.031Zm.275-4.31c0,.41-.34.75-.75.75h-1.04l-.19-1.5h1.23c.41,0,.75.34.75.75Zm-18.75-.75c-.41,0-.75.34-.75.75s.34.75.75.75h1.04l.19-1.5h-1.23Z"/>
        <path class="cls-1"     d="m19.25,19.31v1.69c0,.41-.34.75-.75.75s-.75-.34-.75-.75v-1.5h.25c.49,0,.91-.07,1.25-.19Zm-13.25.19c-.49,0-.91-.07-1.25-.19v1.69c0,.41.34.75.75.75s.75-.34.75-.75v-1.5h-.25ZM13.5,3.75h-3c-.414,0-.75-.336-.75-.75s.336-.75.75-.75h3c.414,0,.75.336.75.75s-.336.75-.75.75Zm6.16,3.64c-.24-1.47-.52-3.14-3.7-3.14h-7.92c-3.18,0-3.46,1.67-3.7,3.16l-.42,3.29c.29-.12.64-.2,1.08-.2h.45l.37-2.87c.23-1.41.31-1.88,2.22-1.88h7.92c1.91,0,1.99.47,2.22,1.86l.37,2.89h.45c.44,0,.79.08,1.08.2l-.42-3.31Zm-5.16,8.36h-5c-.414,0-.75-.336-.75-.75s.336-.75.75-.75h5c.414,0,.75.336.75.75s-.336.75-.75.75Zm3-1.495c-.414,0-.75.336-.75.75s.336.75.75.75.75-.336.75-.75-.336-.75-.75-.75Zm-11,0c-.414,0-.75.336-.75.75s.336.75.75.75.75-.336.75-.75-.336-.75-.75-.75Z"/>
    </g>
</svg>