<svg xmlns="http://www.w3.org/2000/svg" width="24" height="24" viewBox="0 0 24 24">
    <path class="pr-icon-duotone-secondary" d="M12.967,3.805,10.761,7.214A2.285,2.285,0,0,1,8.843,8.257h0a7.239,7.239,0,0,0-5.121,2.122h0l9.9,9.9h0a7.239,7.239,0,0,0,2.122-5.121h0a2.285,2.285,0,0,1,1.043-1.918L20.2,11.033a1.343,1.343,0,0,0,.246-2.32L15.287,3.559A1.343,1.343,0,0,0,12.967,3.805Z"/>
    <path class="pr-icon-duotone-primary" d="M9.2,15.86l-5.67,5.67a.75.75,0,0,1-1.061,0,.756.756,0,0,1,0-1.06L8.138,14.8Z"/>
</svg>