<svg id="Layer" xmlns="http://www.w3.org/2000/svg" viewBox="0 0 24 24">
    <defs>
        <style>.cls-1,.cls-2{fill:#25314c;}.cls-2{opacity:0.4;}</style>
    </defs>
    <g id="time-forward">
        <path class="cls-1"     d="M14,15a1,1,0,0,1-.707-.293l-2-2A1,1,0,0,1,11,12V8a1,1,0,0,1,2,0v3.586l1.707,1.707A1,1,0,0,1,14,15Z"/>
        <path class="cls-2"     d="M15,7a1,1,0,0,0,1,1h4a1,1,0,0,0,1-1V3a1,1,0,0,0-2,0V4.93A9.979,9.979,0,1,0,11.974,22,9.868,9.868,0,0,0,20.9,16.44a1,1,0,1,0-1.794-.88A7.886,7.886,0,0,1,11.974,20,8,8,0,1,1,17.239,6H16A1,1,0,0,0,15,7Z"/>
    </g>
</svg>