<svg id="Layer" xmlns="http://www.w3.org/2000/svg" viewBox="0 0 24 24">
    <defs>
        <style>.cls-1,.cls-2{fill:#25314c;}.cls-2{opacity:0.4;}</style>
    </defs>

        <path class="pr-icon-duotone-primary" d="M20,5.25H15.786a4.529,4.529,0,0,1-.242-.618l-.2-.607A1.5,1.5,0,0,0,13.919,3H10.081A1.5,1.5,0,0,0,8.658,4.025l-.2.607a4.529,4.529,0,0,1-.242.618H4a.75.75,0,0,0,0,1.5H20a.75.75,0,0,0,0-1.5Z"/>
        <path class="pr-icon-duotone-secondary" d="M18.95,6.75,18.19,18.2a2.718,2.718,0,0,1-3,2.8H8.81a2.718,2.718,0,0,1-3-2.8L5.05,6.75Z"/>
        <path class="pr-icon-duotone-primary" d="M14.5,13.25H12.75V11.5a.75.75,0,0,0-1.5,0v1.75H9.5a.75.75,0,0,0,0,1.5h1.75V16.5a.75.75,0,0,0,1.5,0V14.75H14.5a.75.75,0,0,0,0-1.5Z"/>

</svg>