<svg xmlns="http://www.w3.org/2000/svg" width="24" height="24" viewBox="0 0 24 24">
    <path class="pr-icon-duotone-secondary" d="M3,17.625V6.375Q3,3,6.375,3h11.25Q21,3,21,6.375v11.25Q21,21,17.625,21H6.375Q3,21,3,17.625Z"/>
    <path class="pr-icon-duotone-primary" d="M12,17.75a.75.75,0,0,1-.75-.75V14a.75.75,0,0,1,1.5,0v3A.75.75,0,0,1,12,17.75ZM16.75,17V12a.75.75,0,0,0-1.5,0v5a.75.75,0,0,0,1.5,0Zm-8,0V15.5a.75.75,0,0,0-1.5,0V17a.75.75,0,0,0,1.5,0Z"/>
    <path class="pr-icon-duotone-primary" d="M16.692,6.713A.753.753,0,0,0,16,6.25H13.8a.75.75,0,0,0,0,1.5h.389l-1.8,1.8L11.111,8.27a1.5,1.5,0,0,0-2.122,0L7.47,9.79a.75.75,0,1,0,1.06,1.06l1.52-1.519,1.279,1.278a1.536,1.536,0,0,0,2.122,0l1.8-1.8V9.2a.75.75,0,0,0,1.5,0V7A.751.751,0,0,0,16.692,6.713Z"/>
</svg>