<svg id="Layer" xmlns="http://www.w3.org/2000/svg" viewBox="0 0 24 24">
    <defs>
        <style>.cls-1,.cls-2{fill:#25314c;}.cls-1{opacity:0.4;}</style>
    </defs>

        <path class="pr-icon-duotone-primary" d="M3,18a1,1,0,0,1-.707-1.707L7.586,11a2,2,0,0,1,2.828,0L13,13.586l7.293-7.293a1,1,0,1,1,1.414,1.414L14.414,15a2,2,0,0,1-2.828,0L9,12.414,3.707,17.707A1,1,0,0,1,3,18Z"/>
        <path class="pr-icon-duotone-secondary" d="M21,12.154a1,1,0,0,1-1-1V8H16.846a1,1,0,0,1,0-2H21a1,1,0,0,1,1,1v4.154A1,1,0,0,1,21,12.154Z"/>

</svg>