<?xml version="1.0" encoding="UTF-8"?>
<svg id="Layer_7" data-name="Layer 7" xmlns="http://www.w3.org/2000/svg" viewBox="0 0 24 24">
    <defs>
        <style>   .cls-1, .cls-2 {   fill: #25314c;   }
   .cls-2 {   opacity: .4;   }
        </style>
    </defs>

        <path class="pr-icon-duotone-secondary" d="m13.839,19.501h-5.679c-.1,0-.194.05-.25.134l-.614.921c-.185.278-.498.445-.832.445h-1.965c-.828,0-1.5-.672-1.5-1.5v-3c0-.828.672-1.5,1.5-1.5h1.964c.335,0,.647.167.832.446l.614.922c.056.084.149.134.25.134h5.679c.1,0,.194-.05.25-.134l.614-.921c.185-.278.498-.445.832-.445h1.965c.828,0,1.5.672,1.5,1.5v2.998c0,.828-.671,1.499-1.499,1.499h-1.966c-.334,0-.646-.167-.832-.445l-.614-.921c-.056-.083-.149-.134-.25-.134Z"/>
        <path class="pr-icon-duotone-primary" d="m16.032,8.513l-5.38,1.818c-.095.032-.168.11-.194.206l-.287,1.069c-.087.323-.329.581-.646.688l-1.862.629c-.785.265-1.636-.156-1.901-.941l-.96-2.842c-.265-.785.156-1.636.941-1.901l1.861-.629c.317-.107.666-.049.931.156l.877.677c.079.061.184.079.279.047l5.38-1.818c.095-.032.168-.11.194-.206l.287-1.069c.087-.323.329-.581.646-.688l1.862-.629c.785-.265,1.636.156,1.901.941l.96,2.84c.265.784-.156,1.635-.94,1.9l-1.862.629c-.317.107-.666.049-.931-.155l-.876-.676c-.079-.061-.184-.079-.279-.047Z"/>

</svg>