<svg id="Layer" xmlns="http://www.w3.org/2000/svg" viewBox="0 0 24 24">
    <defs>
        <style>.cls-1,.cls-2{fill:#25314c;}.cls-2{opacity:0.4;}</style>
    </defs>
    <g id="user-edit">
        <circle class="cls-1" cx="10.009" cy="6.5" r="4"/>
        <path class="cls-2"     d="M16.057,14.18a.309.309,0,0,1-.087.21l-4.03,4.05a1.5,1.5,0,0,0-.44,1.06v1.7a.324.324,0,0,1-.09.215.272.272,0,0,1-.21.09H6c-2.29,0-3.5-1.2-3.5-3.48,0-2.55,1.44-5.52,5.5-5.52h4a5.356,5.356,0,0,1,3.93,1.44A.4.4,0,0,1,16.057,14.18Z"/>
        <path class="cls-1"     d="M20.038,17.481,15.5,22H13V19.5l4.519-4.539Zm1.67-3.069-1.12-1.12a1,1,0,0,0-1.41,0l-.959.97,2.519,2.519.97-.959A1,1,0,0,0,21.708,14.412Z"/>
    </g>
</svg>