<svg id="Layer" xmlns="http://www.w3.org/2000/svg" viewBox="0 0 24 24">
    <defs>
        <style>.cls-1,.cls-2{fill:#25314c;}.cls-2{opacity:0.4;}</style>
    </defs>
    <g id="user-heart">
        <circle class="cls-1" cx="10.009" cy="6.5" r="4"/>
        <path class="cls-2"     d="M14.59,13.2a.272.272,0,0,1-.09.21.911.911,0,0,1-.11.07,3.358,3.358,0,0,0-.99.81,4.527,4.527,0,0,0-.8,3.76,6.123,6.123,0,0,0,1.57,2.94.312.312,0,0,1,.09.21.3.3,0,0,1-.3.3H6c-2.29,0-3.5-1.2-3.5-3.48,0-2.55,1.44-5.52,5.5-5.52h4a6.39,6.39,0,0,1,2.36.41A.332.332,0,0,1,14.59,13.2Z"/>
        <path class="cls-1"     d="M21.929,17.762C21.407,20.406,18,21.929,18,21.929s-3.4-1.523-3.925-4.167c-.32-1.622.379-3.254,2.157-3.262A1.957,1.957,0,0,1,18,15.806,1.959,1.959,0,0,1,19.772,14.5C21.553,14.508,22.249,16.14,21.929,17.762Z"/>
    </g>
</svg>