<svg width="48" height="48" viewBox="0 0 93 120" fill="#229EFF" xmlns="http://www.w3.org/2000/svg" stroke-width="1px" stroke-linecap="round" stroke-linejoin="round"><path d="M52.55 93.2897C52.31 93.2097 52.0601 93.0997 51.8101 92.9697C52.0101 93.1597 52.2202 93.3397 52.4302 93.5197C52.4902 93.5597 52.5401 93.5697 52.5701 93.5497C52.6001 93.5297 52.6502 93.5397 52.7102 93.5797C52.6602 93.4797 52.6 93.3897 52.55 93.2897Z" stroke="white" stroke-linejoin="round"/><path d="M52.55 93.2897C52.31 93.2097 52.0601 93.0997 51.8101 92.9697C52.0101 93.1597 52.2202 93.3397 52.4302 93.5197C52.4902 93.5597 52.5401 93.5697 52.5701 93.5497C52.6001 93.5297 52.6502 93.5397 52.7102 93.5797C52.6602 93.4797 52.6 93.3897 52.55 93.2897Z" stroke="white" stroke-linejoin="round"/><path d="M57.04 89.4896C57.04 91.2996 56.4901 92.5196 55.3801 93.1496C54.5701 93.6096 53.63 93.6597 52.55 93.2897C52.31 93.2097 52.0601 93.0997 51.8101 92.9697C51.6601 92.8997 51.5101 92.8197 51.3601 92.7297C49.9001 91.8897 48.6401 90.6196 47.6001 88.9296C47.5101 88.7896 47.4201 88.6497 47.3401 88.5097C46.2301 86.5997 45.6802 84.7396 45.6802 82.9296C45.6802 81.4896 46.0302 80.4296 46.7302 79.7396C46.9102 79.5496 47.1101 79.3996 47.3401 79.2696C48.4401 78.6396 49.7801 78.7797 51.3601 79.6897C52.4201 80.3097 53.3702 81.1397 54.2102 82.1997C54.6302 82.7197 55.0201 83.2896 55.3801 83.9196C56.3101 85.5096 56.8402 87.0697 56.9902 88.5897C57.0302 88.8897 57.04 89.1896 57.04 89.4896Z" stroke="white" stroke-linejoin="round"/><path d="M62.7202 47.1497V71.8097C61.0802 69.9197 59.2302 68.1297 57.1802 66.4397C56.0702 65.5197 54.9902 64.6997 53.9502 63.9697C53.2702 63.4897 52.6002 63.0597 51.9502 62.6597C51.7502 62.5397 51.5601 62.4197 51.3601 62.3097C49.4201 61.1897 47.56 60.3297 45.78 59.7097C40.81 57.9997 36.4201 58.2297 32.6201 60.3997C31.6801 60.9297 30.8301 61.5597 30.0701 62.2697C26.5901 65.4897 24.8501 70.5497 24.8501 77.4297C24.8501 81.9197 25.6001 86.3997 27.0801 90.8797C28.5601 95.3497 30.4402 99.5897 32.7102 103.58C32.6502 103.54 32.6001 103.53 32.5701 103.55C32.5401 103.57 32.4902 103.56 32.4302 103.52C23.6602 95.9197 16.4102 85.9697 10.7002 73.6497C4.9902 61.3397 2.14014 49.6797 2.14014 38.6697V12.1697L22.1401 15.1097L32.4302 16.6197L62.7202 47.1497Z" stroke="white" stroke-linejoin="round"/><path d="M82.7202 37.1497V61.8097L76.6401 64.8497L68.5601 68.8896H68.55L66.5901 69.8697L66.5801 69.8797L62.7202 71.8097V47.1497L82.7202 37.1497Z" stroke="white" stroke-linejoin="round"/><path d="M82.7202 37.1496L62.7202 47.1496L32.4302 16.6196L52.4302 6.61963L82.7202 37.1496Z" stroke="white" stroke-linejoin="round"/><path d="M52.4302 6.61969L32.4302 16.6197L22.1401 15.1097L2.14014 12.1697L22.1401 2.16968L52.4302 6.61969Z" stroke="white" stroke-linejoin="round"/><path d="M90.2898 93.6597C90.2898 99.6697 88.45 103.73 84.75 105.83L83.71 106.35L64.75 115.83C68.42 113.75 70.2598 109.73 70.2898 103.79V103.66C70.2898 100.45 69.77 97.1897 68.71 93.8797C67.8 90.9897 66.47 88.0597 64.75 85.0897C64.66 84.9397 64.57 84.7896 64.48 84.6396C61.1 78.9296 57.0899 74.6097 52.4299 71.6597C52.0799 71.4297 51.7199 71.2097 51.3599 70.9997C49.0499 69.6697 46.8899 68.8297 44.8799 68.4997C42.7299 68.1397 40.76 68.3496 38.96 69.1396L44.8699 66.1897L51.95 62.6597C52.6 63.0597 53.27 63.4897 53.95 63.9697C54.99 64.6997 56.0699 65.5197 57.1799 66.4397C59.2299 68.1297 61.08 69.9197 62.72 71.8097L66.5798 69.8797H66.5898L68.5498 68.8896H68.5598L76.6399 64.8497C79.6599 67.5697 82.37 70.9797 84.75 75.0897C88.45 81.4597 90.2898 87.6497 90.2898 93.6597Z" stroke="white" stroke-linejoin="round"/><path d="M51.9502 62.6596L44.8701 66.1896L38.9602 69.1395L37.9702 69.6296C36.8302 70.2796 35.8701 71.1096 35.0801 72.1196C33.3101 74.4096 32.4302 77.6395 32.4302 81.7995C32.4302 87.8095 34.2702 93.9996 37.9702 100.37C38.0602 100.52 38.1502 100.67 38.2402 100.82L32.7102 103.58C30.4402 99.5895 28.5601 95.3496 27.0801 90.8796C25.6001 86.3996 24.8501 81.9196 24.8501 77.4296C24.8501 70.5496 26.5901 65.4895 30.0701 62.2695C30.8301 61.5595 31.6801 60.9296 32.6201 60.3996C36.4201 58.2296 40.81 57.9996 45.78 59.7096C47.56 60.3296 49.4201 61.1896 51.3601 62.3096C51.5601 62.4196 51.7502 62.5396 51.9502 62.6596Z" stroke="white" stroke-linejoin="round"/><path d="M68.7102 93.8798C67.8002 90.9898 66.4702 88.0598 64.7502 85.0898C64.6602 84.9398 64.5702 84.7898 64.4802 84.6398C61.1002 78.9298 57.0902 74.6098 52.4302 71.6598C52.0802 71.4298 51.7201 71.2098 51.3601 70.9998C49.0501 69.6698 46.8901 68.8298 44.8801 68.4998C42.7301 68.1398 40.7602 68.3498 38.9602 69.1398L37.9702 69.6298C36.8302 70.2798 35.8701 71.1098 35.0801 72.1198C33.3101 74.4098 32.4302 77.6398 32.4302 81.7998C32.4302 87.8098 34.2702 93.9998 37.9702 100.37C38.0602 100.52 38.1502 100.67 38.2402 100.82C41.8702 106.95 46.2401 111.5 51.3601 114.45C56.6001 117.48 61.0602 117.94 64.7502 115.83C68.4202 113.75 70.26 109.73 70.29 103.79V103.66C70.29 100.45 69.7702 97.1898 68.7102 93.8798ZM46.7302 79.7398C46.9102 79.5498 47.1101 79.3998 47.3401 79.2698C48.4401 78.6398 49.7801 78.7798 51.3601 79.6898C52.4201 80.3098 53.3702 81.1398 54.2102 82.1998C54.6302 82.7198 55.0201 83.2898 55.3801 83.9198C56.3101 85.5098 56.8402 87.0698 56.9902 88.5898C57.0302 88.8898 57.04 89.1898 57.04 89.4898C57.04 91.2998 56.4901 92.5198 55.3801 93.1498C54.5701 93.6098 53.63 93.6598 52.55 93.2898C52.6 93.3898 52.6602 93.4798 52.7102 93.5798C52.6502 93.5398 52.6001 93.5298 52.5701 93.5498C52.5401 93.5698 52.4902 93.5598 52.4302 93.5198C52.2202 93.3398 52.0101 93.1598 51.8101 92.9698C51.6601 92.8998 51.5101 92.8198 51.3601 92.7298C49.9001 91.8898 48.6401 90.6198 47.6001 88.9298C47.5101 88.7898 47.4201 88.6498 47.3401 88.5098C46.2301 86.5998 45.6802 84.7398 45.6802 82.9298C45.6802 81.4898 46.0302 80.4298 46.7302 79.7398ZM56.7603 107.3C55.1103 107.41 53.3201 106.89 51.3601 105.76C49.4001 104.64 47.6002 103.07 45.9602 101.07C45.1602 100.1 44.44 99.0898 43.79 98.0398C43.11 96.9398 42.5102 95.7898 41.9902 94.5998C43.3802 94.4598 44.8602 94.5898 46.4402 94.9898C47.1202 95.1698 47.8103 95.3898 48.5103 95.6798C49.4403 96.0498 50.3901 96.5098 51.3601 97.0698C53.0601 98.0598 54.7 99.2598 56.28 100.68C57.86 102.09 59.3402 103.68 60.7302 105.42C59.7202 106.57 58.4003 107.2 56.7603 107.3Z" stroke="white" stroke-linejoin="round"/><path d="M60.7302 105.42C59.7202 106.57 58.4003 107.2 56.7603 107.3C55.1103 107.41 53.3201 106.89 51.3601 105.76C49.4001 104.64 47.6002 103.07 45.9602 101.07C45.1602 100.1 44.44 99.0896 43.79 98.0396C43.11 96.9396 42.5102 95.7896 41.9902 94.5996C43.3802 94.4596 44.8602 94.5896 46.4402 94.9896C47.1202 95.1696 47.8103 95.3896 48.5103 95.6796C49.4403 96.0496 50.3901 96.5096 51.3601 97.0696C53.0601 98.0596 54.7 99.2596 56.28 100.68C57.86 102.09 59.3402 103.68 60.7302 105.42Z" stroke="white" stroke-linejoin="round"/></svg>