<svg width="48" height="48" viewBox="0 0 97 108" xmlns="http://www.w3.org/2000/svg" stroke-width="1px"
     stroke-linecap="round" stroke-linejoin="round">
    <path d="M71.74 61.7319C71.44 60.7519 71.12 59.7817 70.78 58.8117C70.54 58.1117 70.28 57.4119 70.02 56.7219C69.24 54.6619 68.3799 52.6418 67.4399 50.6418C66.3999 48.4118 65.25 46.2217 64 44.0617C63.41 43.0517 62.8099 42.0617 62.1799 41.0817C59.3399 36.5917 56.11 32.4117 52.49 28.5417C52.08 28.1017 51.66 27.6619 51.25 27.2419C48.79 24.7419 46.2499 22.5117 43.6199 20.5617C41.9099 19.2917 40.1499 18.1417 38.3599 17.1017C33.7899 14.4717 29.4799 12.8817 25.4099 12.3517C25.0099 12.2917 24.62 12.2519 24.23 12.2219C20.49 11.9119 17.15 12.4119 14.23 13.7119L12.73 14.4619C9.46998 16.3219 6.88999 19.2318 4.98999 23.1918C3.07999 27.1518 2.12988 32.0119 2.12988 37.7619C2.12988 43.5119 3.07999 49.4618 4.98999 55.6218C6.88999 61.7818 9.46998 67.6717 12.73 73.2917C15.99 78.9217 19.83 84.0917 24.23 88.8217C28.64 93.5517 33.3499 97.3619 38.3599 100.252C43.3699 103.142 48.08 104.772 52.49 105.132C56.9 105.502 60.73 104.752 64 102.892C67.02 101.172 69.4598 98.5419 71.3198 95.0119C71.4598 94.7319 71.6 94.4518 71.74 94.1618C73.64 90.2018 74.5898 85.3517 74.5898 79.5917C74.5898 73.8317 73.64 67.8919 71.74 61.7319ZM20.6099 54.4619L13.3599 33.6418L19.8899 33.6718L26.1599 51.6918L27.1299 54.4819L20.6099 54.4619ZM36.55 82.5817L29.3098 78.3918V50.3317L29.24 50.1418L22.4199 30.5617L28.9399 30.5817L34.76 47.3818L36.55 52.5417V82.5817ZM47.4199 60.6818V88.8517L40.1699 84.6718V54.5319L46.02 44.4819L46.72 43.2917L47.78 41.4619L49.3098 43.2219L53.3899 47.9218L54.3 48.9619L49.3098 57.4619L47.4199 60.6818ZM60.1699 67.9919L56.1199 74.9518L51.52 69.6718L50.0598 67.9919L49.5898 67.4518L56.55 55.5019L56.8398 55.0019L60.1699 58.8417L62.3599 61.3517L63.3599 62.5119L60.1699 67.9919Z" class="pr-icon-iso-solid-stroke" stroke-linejoin="round"/>
    <path d="M27.1294 54.4814L20.6094 54.4614L26.1594 51.6914L27.1294 54.4814Z" class="pr-icon-iso-solid-stroke" stroke-linejoin="round"/>
    <path d="M26.1594 51.6917L20.6094 54.4617L13.3594 33.6416L19.8894 33.6716L26.1594 51.6917Z" class="pr-icon-iso-solid-stroke" stroke-linejoin="round"/>
    <path d="M36.5498 74.7715V82.5813L29.3096 78.3914L36.5498 74.7715Z" class="pr-icon-iso-solid-stroke" stroke-linejoin="round"/>
    <path d="M36.5503 52.5417V74.772L29.3101 78.3918V50.3318L29.2402 50.1418L34.7603 47.3818L36.5503 52.5417Z" class="pr-icon-iso-solid-stroke" stroke-linejoin="round"/>
    <path d="M34.76 47.3816L29.24 50.1416L22.4199 30.5615L28.9399 30.5815L34.76 47.3816Z" class="pr-icon-iso-solid-stroke" stroke-linejoin="round"/>
    <path d="M53.3899 47.9219L40.1699 54.532L46.02 44.4819L46.72 43.2917L47.78 41.4619L49.3098 43.2219L53.3899 47.9219Z" class="pr-icon-iso-solid-stroke" stroke-linejoin="round"/>
    <path d="M54.3 48.9619L49.3098 57.4619L47.4199 60.6819V81.0518L46.74 81.3818L40.1699 84.6719V54.532L53.3899 47.9219L54.3 48.9619Z" class="pr-icon-iso-solid-stroke" stroke-linejoin="round"/>
    <path d="M62.3599 61.3518L60.1699 62.532L56.55 64.4819L50.0598 67.9919L49.5898 67.4519L56.55 55.502L56.8398 55.002L60.1699 58.8418L62.3599 61.3518Z" class="pr-icon-iso-solid-stroke" stroke-linejoin="round"/>
    <path d="M63.3596 62.5117L60.1697 67.9917L56.1196 74.9517L51.5198 69.6716L50.0596 67.9917L56.5498 64.4817L60.1697 62.5317L62.3596 61.3516L63.3596 62.5117Z" class="pr-icon-iso-solid-stroke" stroke-linejoin="round"/>
    <path d="M47.4199 81.0518V88.8518L40.1699 84.6719L46.74 81.3818L47.4199 81.0518Z" class="pr-icon-iso-solid-stroke" stroke-linejoin="round"/>
    <path d="M94.5903 69.5922C94.5903 75.3522 93.6405 80.2023 91.7405 84.1623C89.8405 88.1223 87.2605 91.0323 84.0005 92.8923L64.0005 102.892C67.0205 101.172 69.4603 98.5424 71.3203 95.0124C71.4603 94.7324 71.6005 94.4523 71.7405 94.1623C73.6405 90.2023 74.5903 85.3522 74.5903 79.5922C74.5903 73.8322 73.6405 67.8924 71.7405 61.7324C71.4405 60.7524 71.1205 59.7822 70.7805 58.8122C70.5405 58.1122 70.2805 57.4124 70.0205 56.7224C69.2405 54.6624 68.3804 52.6423 67.4404 50.6423C66.4004 48.4123 65.2505 46.2222 64.0005 44.0622C63.4105 43.0522 62.8104 42.0622 62.1804 41.0822C59.3404 36.5922 56.1105 32.4122 52.4905 28.5422C52.0805 28.1022 51.6605 27.6624 51.2505 27.2424C48.7905 24.7424 46.2504 22.5122 43.6204 20.5622C41.9104 19.2922 40.1504 18.1423 38.3604 17.1023C33.7904 14.4723 29.4804 12.8823 25.4104 12.3523C25.0104 12.2923 24.6205 12.2524 24.2305 12.2224C20.4905 11.9124 17.1505 12.4124 14.2305 13.7124L32.7305 4.46237C35.9905 2.61237 39.8305 1.86238 44.2305 2.22238C48.6405 2.58238 53.3504 4.21226 58.3604 7.10226C63.3704 10.0023 68.0805 13.8122 72.4905 18.5422C76.9005 23.2622 80.7305 28.4422 84.0005 34.0622C87.2605 39.6922 89.8405 45.5824 91.7405 51.7324C93.6405 57.8924 94.5903 63.8422 94.5903 69.5922Z" class="pr-icon-iso-solid-stroke" stroke-linejoin="round"/>
</svg>