<svg width="48" height="48" viewBox="0 0 102 114" fill="#229EFF" xmlns="http://www.w3.org/2000/svg" stroke-width="1px" stroke-linecap="round" stroke-linejoin="round"><path d="M59.74 72.79L53.75 69.33L57.29 67.56L58.3601 67.03C58.5101 67.49 58.65 67.96 58.78 68.42C59.19 69.87 59.51 71.32 59.74 72.79Z" stroke="white" stroke-linejoin="round"/><path d="M79.2994 80.2601C79.0894 77.0901 78.6094 73.8601 77.8694 70.5701C77.4594 68.7701 76.9694 66.9501 76.3994 65.1201C75.8394 63.3301 75.2395 61.5501 74.5695 59.8001C72.8095 55.1501 70.6694 50.6401 68.1394 46.2801C65.4394 41.6001 62.3494 37.2301 58.8994 33.1401C57.9194 31.9801 56.9194 30.8401 55.8794 29.7301C51.1794 24.6801 46.1594 20.6201 40.8094 17.5401C35.5994 14.5301 30.6995 12.8101 26.0995 12.3701C25.9795 12.3501 25.8694 12.3401 25.7494 12.3301C21.7294 12.0001 18.1594 12.5301 15.0394 13.9401L13.4894 14.7201C10.0094 16.7101 7.25943 19.8101 5.22943 24.0301C3.19943 28.2501 2.18945 33.4301 2.18945 39.5601C2.18945 45.6901 3.19943 52.0401 5.22943 58.6001C7.25943 65.1701 10.0094 71.4501 13.4894 77.4401C16.9594 83.4401 21.0494 88.9601 25.7494 94.0001C30.4494 99.0401 35.4694 103.1 40.8094 106.19C46.1594 109.27 51.1794 111.01 55.8794 111.39C60.1994 111.75 64.0094 111.1 67.2894 109.45C67.5794 109.31 67.8594 109.16 68.1394 109C68.3494 108.88 68.5694 108.75 68.7694 108.63C71.4894 106.92 73.7394 104.49 75.5094 101.35C75.8194 100.82 76.1094 100.26 76.3894 99.6901C78.4194 95.4701 79.4294 90.2901 79.4294 84.1601C79.4294 82.8701 79.3894 81.5701 79.2894 80.2601H79.2994ZM21.4994 32.9801L22.3295 33.4601L27.2894 36.3301V42.7501C29.0994 41.7301 31.1694 41.3401 33.5194 41.5801C34.8794 41.7201 36.2694 42.0701 37.6794 42.6201C38.7094 43.0101 39.7494 43.5201 40.8094 44.1301C41.1094 44.3001 41.4095 44.4801 41.6995 44.6701C45.9795 47.3401 49.7695 51.1801 53.0795 56.2001C53.0995 56.2301 53.1194 56.2701 53.1494 56.3001C55.4494 59.8101 57.1795 63.3801 58.3595 67.0301C58.5095 67.4901 58.6494 67.9601 58.7794 68.4201C59.1894 69.8701 59.5094 71.3201 59.7394 72.7901L53.7494 69.3301C53.3694 67.7301 52.8694 66.1601 52.2394 64.6401C51.3694 62.5101 50.2494 60.4601 48.8794 58.4801C46.7094 55.3501 44.2494 52.9301 41.4994 51.2101C41.2694 51.0501 41.0394 50.9101 40.8094 50.7801C39.0794 49.7801 37.3994 49.2001 35.7894 49.0401C34.1794 48.8901 32.7295 49.1401 31.4495 49.8001L36.9495 52.9801V59.6301L27.0695 53.9201L21.4994 50.7101V32.9801ZM60.1294 90.7401L42.9194 80.8001L21.4994 68.4401V59.5801L29.7195 64.3301L32.7095 66.0501L60.1294 81.8801V90.7401Z" stroke="white" stroke-linejoin="round"/><path d="M58.3593 67.03L57.2892 67.56L53.7491 69.33C53.3691 67.73 52.8691 66.16 52.2391 64.64C51.3691 62.51 50.2492 60.46 48.8792 58.48C46.7092 55.35 44.2491 52.93 41.4991 51.21C41.2691 51.05 41.0392 50.91 40.8092 50.78C39.0792 49.78 37.3992 49.2 35.7892 49.04C34.1792 48.89 32.7292 49.14 31.4492 49.8L41.6992 44.67C45.9792 47.34 49.7692 51.18 53.0792 56.2C53.0992 56.23 53.1192 56.27 53.1492 56.3C55.4492 59.81 57.1793 63.38 58.3593 67.03Z" stroke="white" stroke-linejoin="round"/><path d="M37.6801 42.62L25.3 48.81L21.5 50.71V32.98L22.3301 33.46L27.29 36.33V42.75C29.1 41.73 31.17 41.34 33.52 41.58C34.88 41.72 36.2701 42.07 37.6801 42.62Z" stroke="white" stroke-linejoin="round"/><path d="M31.4501 49.8001L36.9501 52.9801V59.6301L27.0701 53.9201L21.5 50.7101L25.3 48.8101L37.6801 42.6201C38.7101 43.0101 39.7501 43.5201 40.8101 44.1301C41.1101 44.3001 41.4101 44.4801 41.7001 44.6701L31.4501 49.8001Z" stroke="white" stroke-linejoin="round"/><path d="M29.7201 64.3301L21.5 68.4401V59.5801L29.7201 64.3301Z" stroke="white" stroke-linejoin="round"/><path d="M60.13 81.8801V90.7401L42.92 80.8001L21.5 68.4401L29.7201 64.3301L32.7101 66.0501L60.13 81.8801Z" stroke="white" stroke-linejoin="round"/><path d="M99.4393 74.16C99.4393 80.29 98.4293 85.47 96.3993 89.69C94.3693 93.91 91.6193 97.02 88.1393 99C87.8293 99.18 87.5093 99.35 87.1793 99.51L87.0293 99.58L67.2893 109.45C67.5793 109.31 67.8593 109.16 68.1393 109C68.3493 108.88 68.5693 108.75 68.7693 108.63C71.4893 106.92 73.7393 104.49 75.5093 101.35C75.8193 100.82 76.1093 100.26 76.3893 99.69C78.4193 95.47 79.4293 90.29 79.4293 84.16C79.4293 82.87 79.3893 81.57 79.2893 80.26C79.0793 77.09 78.5994 73.86 77.8594 70.57C77.4494 68.77 76.9593 66.95 76.3893 65.12C75.8293 63.33 75.2293 61.55 74.5593 59.8C72.7993 55.15 70.6593 50.64 68.1293 46.28C65.4293 41.6 62.3393 37.23 58.8893 33.14C57.9093 31.98 56.9093 30.84 55.8693 29.73C51.1693 24.68 46.1493 20.62 40.7993 17.54C35.5893 14.53 30.6894 12.81 26.0894 12.37C25.9694 12.35 25.8593 12.34 25.7393 12.33C21.7193 12 18.1493 12.53 15.0293 13.94L33.4794 4.72004C36.9494 2.74004 41.0393 1.94004 45.7393 2.33004C50.4393 2.72004 55.4593 4.45004 60.7993 7.54004C66.1493 10.62 71.1693 14.68 75.8693 19.73C80.5693 24.77 84.6593 30.28 88.1293 36.28C91.6093 42.28 94.3593 48.56 96.3893 55.12C98.4193 61.68 99.4293 68.03 99.4293 74.16H99.4393Z" stroke="white" stroke-linejoin="round"/><path d="M87.1793 99.51L87.0293 99.58" stroke="white" stroke-linejoin="round"/></svg>