<svg width="48" height="48" viewBox="0 0 91 124" fill="#229EFF" xmlns="http://www.w3.org/2000/svg" stroke-width="1px" stroke-linecap="round" stroke-linejoin="round"><path d="M68.23 60.9091V121.699L59.4102 116.599V65.939L51.96 61.639L51.71 61.499L45.1899 57.739L18.9001 42.559L34.79 69.9691L28.6101 73.619L2 27.739L28.5 12.639L29.1101 13.689L34.79 23.489L27.6702 27.499L18.9001 32.429L36.3701 42.519L48.8401 49.709L68.23 60.9091Z" stroke="white" stroke-linejoin="round"/><path d="M54.79 13.489L34.79 23.489L29.1101 13.689L28.5 12.639L48.5 2.63904L54.79 13.489Z" stroke="white" stroke-linejoin="round"/><path d="M54.7903 13.489L38.9004 22.429L27.9104 27.919L18.9004 32.429L27.6704 27.499L34.7903 23.489L54.7903 13.489Z" stroke="white" stroke-linejoin="round"/><path d="M88.2302 50.909L78.8403 55.6089L68.2302 60.909L48.8403 49.709L36.3704 42.519L18.9004 32.429L27.9104 27.9189L38.9004 22.429L88.2302 50.909Z" stroke="white" stroke-linejoin="round"/><path d="M51.9592 61.639L48.6094 63.619L28.6094 73.619L34.7893 69.9691L48.3594 63.189L51.7092 61.499L51.9592 61.639Z" stroke="white" stroke-linejoin="round"/><path d="M51.7102 61.4991L48.3604 63.1891L34.7903 69.9691L18.9004 42.5591L45.1902 57.7391L51.7102 61.4991Z" stroke="white" stroke-linejoin="round"/><path d="M88.2305 50.9091V111.699L68.2305 121.699V60.9091L78.8406 55.609L88.2305 50.9091Z" stroke="white" stroke-linejoin="round"/></svg>