<svg width="48" height="48" viewBox="0 0 102 116" xmlns="http://www.w3.org/2000/svg" stroke-width="1px"
     stroke-linecap="round" stroke-linejoin="round">
    <path d="M53.97 4.85519L33.97 14.8552C31.15 13.8352 28.48 13.1852 25.96 12.9252C21.7 12.4652 17.88 13.0852 14.49 14.7752L33.8899 5.08519L34.2799 4.88519C39.7199 2.07519 46.29 2.07519 53.97 4.85519Z" class="pr-icon-iso-solid-stroke" stroke-linejoin="round"/>
    <path d="M79.49 93.3753C78.83 97.2053 77.72 100.495 76.2 103.235C74.38 106.495 71.9499 108.975 68.9099 110.695C68.0299 111.195 67.1 111.625 66.12 111.995C58.89 114.715 50.5599 113.355 41.1299 107.905C35.7099 104.775 30.6199 100.655 25.8799 95.5453C21.1299 90.4353 17 84.8453 13.48 78.7753C9.95998 72.7053 7.16998 66.3453 5.09998 59.7153C3.03998 53.0753 2 46.6453 2 40.4153C2 29.5953 4.99989 21.7953 11.0099 16.9953C12.0999 16.1253 13.25 15.3853 14.45 14.7853H14.48C17.87 13.0853 21.69 12.4653 25.95 12.9253C28.47 13.1853 31.14 13.8353 33.96 14.8553C32.8 21.5253 33.1599 28.8953 35.0299 36.9753C36.8999 45.0653 40.13 53.0553 44.71 60.9653C49.3 68.8753 54.64 75.6653 60.74 81.3353C66.85 87.0053 73.09 91.0153 79.49 93.3753Z" class="pr-icon-iso-solid-stroke" stroke-linejoin="round"/>
    <path d="M99.49 83.375C97.97 92.165 94.16 98.085 88.08 101.135L68.9099 110.695C71.9499 108.975 74.38 106.495 76.2 103.235C77.72 100.495 78.83 97.205 79.49 93.375L99.49 83.375Z" class="pr-icon-iso-solid-stroke" stroke-linejoin="round"/>
    <path d="M99.49 83.375L79.49 93.375C73.09 91.015 66.85 87.005 60.74 81.335C54.64 75.665 49.2999 68.875 44.7099 60.965C40.1299 53.055 36.8999 45.065 35.0299 36.975C33.1599 28.895 32.7999 21.525 33.9599 14.855L53.9599 4.85498C52.7999 11.525 53.1599 18.895 55.0299 26.975C56.8999 35.065 60.1299 43.055 64.7099 50.965C69.2999 58.875 74.64 65.665 80.74 71.335C86.85 77.005 93.09 81.015 99.49 83.375Z" class="pr-icon-iso-solid-stroke" stroke-linejoin="round"/>
    <path d="M88.2699 101.045L88.08 101.135" class="pr-icon-iso-solid-stroke" stroke-linejoin="round"/>
</svg>