<svg viewBox="0 0 90 116" xmlns="http://www.w3.org/2000/svg" height="48" width="48" stroke-width="1px"
     stroke-linecap="round" stroke-linejoin="round">
    <path d="M25.325 24.5704L24.355 23.5904L14.785 13.8004L2.34497 12.1504V22.8604C2.34497 27.3804 3.51497 32.1804 5.87497 37.2604C8.23497 42.3404 11.205 46.4204 14.785 49.4904C17.245 50.2204 19.405 50.1404 21.285 49.2504L21.725 49.0304C22.425 48.6504 23.075 48.1504 23.685 47.5404C26.045 45.1904 27.225 41.7504 27.225 37.2304V26.5204L25.325 24.5704ZM12.525 38.3804L6.22497 27.5104L9.49497 25.5604L12.605 30.9304L20.065 26.6704L20.305 27.0804L23.255 32.2604L12.525 38.3804Z" class="pr-icon-iso-solid-stroke" stroke-linejoin="round"/>
    <path d="M23.255 32.2605L12.525 38.3805L6.22498 27.5105L9.49498 25.5605L12.605 30.9305L20.305 27.0805L23.255 32.2605Z" class="pr-icon-iso-solid-stroke" stroke-linejoin="round"/>
    <path d="M20.305 27.0799L12.605 30.9299L20.065 26.6699L20.305 27.0799Z" class="pr-icon-iso-solid-stroke" stroke-linejoin="round"/>
    <path d="M26.675 71.2605C24.245 67.0605 21.315 63.9705 17.895 62.0005C14.725 60.1605 11.975 59.7805 9.64496 60.8505L9.10496 61.1205C6.66496 62.5105 5.45496 65.1705 5.45496 69.0905C5.45496 73.0105 6.66496 77.0805 9.10496 81.2805C11.545 85.4905 14.475 88.5805 17.895 90.5505C21.315 92.5305 24.245 92.8205 26.675 91.4305C29.115 90.0405 30.335 87.3805 30.335 83.4605C30.335 79.5405 29.115 75.4705 26.675 71.2605ZM22.285 83.8505C21.065 84.5505 19.605 84.4005 17.895 83.4105C16.185 82.4305 14.715 80.8805 13.495 78.7805C12.285 76.6805 11.675 74.6505 11.675 72.6805C11.675 70.7105 12.285 69.3905 13.495 68.7005C14.715 68.0005 16.185 68.1505 17.895 69.1405C19.605 70.1205 21.065 71.6705 22.285 73.7705C23.505 75.8705 24.115 77.9005 24.115 79.8705C24.115 81.8405 23.505 83.1605 22.285 83.8505Z" class="pr-icon-iso-solid-stroke" stroke-linejoin="round"/>
    <path d="M24.1149 79.8706C24.1149 81.8306 23.5049 83.1606 22.2849 83.8506C21.0649 84.5506 19.6049 84.4006 17.8949 83.4106C16.1849 82.4306 14.7149 80.8806 13.4949 78.7806C12.2849 76.6806 11.6749 74.6506 11.6749 72.6806C11.6749 70.7106 12.2849 69.3906 13.4949 68.7006C14.7149 68.0006 16.1849 68.1506 17.8949 69.1406C19.6049 70.1206 21.0649 71.6706 22.2849 73.7706C23.5049 75.8706 24.1149 77.9006 24.1149 79.8706Z" class="pr-icon-iso-solid-stroke" stroke-linejoin="round"/>
    <path d="M34.785 3.80039L22.345 10.0204L14.785 13.8004L2.34497 12.1504L22.345 2.15039L34.785 3.80039Z" class="pr-icon-iso-solid-stroke" stroke-linejoin="round"/>
    <path d="M71.325 45.4307C71.325 47.1507 70.795 48.3207 69.735 48.9207L64.425 51.5507L59.895 53.8207L54.095 56.7307L49.735 58.9207C50.795 58.3207 51.325 57.1507 51.325 55.4307C51.325 53.7107 50.795 51.9207 49.735 50.0907C48.675 48.2607 47.385 46.9107 45.885 46.0407C45.425 45.7807 44.995 45.5807 44.575 45.4507C44.115 45.3107 43.675 45.2507 43.265 45.2807C42.955 45.2907 42.655 45.3607 42.365 45.4807L62.035 35.6407C63.095 35.0407 64.385 35.1707 65.885 36.0407C67.385 36.9107 68.675 38.2607 69.735 40.0907C70.795 41.9207 71.325 43.7007 71.325 45.4307Z" class="pr-icon-iso-solid-stroke" stroke-linejoin="round"/>
    <path d="M75.215 62.8405L69.415 65.7405L59.665 70.6205L55.215 72.8405C54.615 72.4905 54.025 72.1105 53.445 71.7005C52.855 71.2805 52.265 70.8305 51.685 70.3405C51.205 69.9305 50.725 69.4905 50.245 69.0305C50.055 68.8505 49.865 68.6605 49.695 68.4705C48.285 67.0605 46.995 65.4905 45.805 63.7505L40.905 55.9205C39.715 53.8705 38.265 52.3305 36.555 51.3105C36.515 51.2805 36.465 51.2605 36.415 51.2405C35.475 50.6905 34.605 50.4105 33.825 50.4005C33.375 50.3905 32.965 50.4705 32.575 50.6305L33.195 50.3105L41.275 46.2705C40.715 46.9305 40.435 47.8905 40.435 49.1405C40.435 50.8705 40.965 52.6505 42.025 54.4805C43.085 56.3105 44.375 57.6605 45.875 58.5305C47.115 59.2505 48.215 59.4605 49.155 59.1605C49.355 59.1105 49.545 59.0205 49.725 58.9205L54.085 56.7405L59.885 53.8205L64.415 51.5505L65.795 53.7505C67.145 55.7205 68.625 57.4805 70.235 59.0305C71.835 60.5805 73.495 61.8505 75.205 62.8405H75.215Z" class="pr-icon-iso-solid-stroke" stroke-linejoin="round"/>
    <path d="M33.445 75.7101V88.0401L26.675 91.4301C29.115 90.0401 30.335 87.3801 30.335 83.4601C30.335 79.5401 29.115 75.4701 26.675 71.2601C24.245 67.0601 21.315 63.9701 17.895 62.0001C14.725 60.1601 11.975 59.7801 9.64502 60.8501L29.105 51.1201C30.345 50.4201 31.705 50.1401 33.195 50.3101L32.575 50.6301L32.205 50.8101L26.555 53.7901L25.975 54.0901C24.635 54.7401 23.995 56.1201 24.075 58.2501C24.155 60.3801 24.865 62.5101 26.215 64.6601L26.275 64.7501L33.445 75.7101Z" class="pr-icon-iso-solid-stroke" stroke-linejoin="round"/>
    <path d="M75.215 62.8408V69.9808L71.235 71.9708L63.675 75.7508L59.665 77.7608L55.345 79.9208L55.215 79.9808V72.8408L59.665 70.6208L69.415 65.7408L75.215 62.8408Z" class="pr-icon-iso-solid-stroke" stroke-linejoin="round"/>
    <path d="M21.2849 49.25L21.1949 49.3" class="pr-icon-iso-solid-stroke" stroke-linejoin="round"/>
    <path d="M47.225 16.5195V27.2295C47.225 31.7495 46.045 35.1895 43.685 37.5395C43.035 38.1895 42.335 38.7095 41.595 39.0995L41.175 39.3095L21.725 49.0295C22.425 48.6495 23.075 48.1495 23.685 47.5395C26.045 45.1895 27.225 41.7495 27.225 37.2295V26.5195L30.495 24.8795L41.585 19.3395L47.225 16.5195Z" class="pr-icon-iso-solid-stroke" stroke-linejoin="round"/>
    <path d="M47.225 16.5198L41.585 19.3398L30.495 24.8798L27.225 26.5198L25.325 24.5698L24.355 23.5898L14.785 13.7998L22.345 10.0198L34.785 3.7998L47.225 16.5198Z" class="pr-icon-iso-solid-stroke" stroke-linejoin="round"/>
    <path d="M55.215 72.8403V79.9803C54.705 79.6803 54.195 79.3702 53.695 79.0402C52.455 78.2302 51.255 77.3203 50.075 76.3103C48.875 75.2803 47.705 74.1502 46.565 72.9002C46.525 72.8602 46.475 72.8103 46.435 72.7603C45.625 71.8803 44.855 70.9603 44.105 70.0103C42.295 67.7303 40.665 65.2702 39.195 62.6102L33.445 65.6203L37.995 73.4602L39.665 76.3502V92.4103L33.445 88.8202V75.7102L26.275 64.7502L26.215 64.6602C24.865 62.5102 24.155 60.3802 24.075 58.2502C23.995 56.1202 24.635 54.7402 25.975 54.0902L26.555 53.7902L32.205 50.8102L32.575 50.6302C32.965 50.4702 33.375 50.3902 33.825 50.4002C34.605 50.4102 35.475 50.6902 36.415 51.2402C36.465 51.2602 36.515 51.2802 36.555 51.3102C38.265 52.3302 39.715 53.8702 40.905 55.9202L45.805 63.7502C46.995 65.4902 48.285 67.0602 49.695 68.4702C49.865 68.6602 50.055 68.8502 50.245 69.0302C50.725 69.4902 51.205 69.9303 51.685 70.3403C52.265 70.8303 52.855 71.2803 53.445 71.7003C54.025 72.1103 54.615 72.4903 55.215 72.8403Z" class="pr-icon-iso-solid-stroke" stroke-linejoin="round"/>
    <path d="M46.5649 72.9004L39.6649 76.3503L37.9949 73.4604L33.4449 65.6204L39.1949 62.6104C40.6649 65.2704 42.2949 67.7304 44.1049 70.0104C44.8549 70.9604 45.6249 71.8804 46.4349 72.7604C46.4749 72.8104 46.5249 72.8604 46.5649 72.9004Z" class="pr-icon-iso-solid-stroke" stroke-linejoin="round"/>
    <path d="M53.695 79.0404L46.435 82.6704C43.995 84.0604 42.775 86.7104 42.775 90.6404V90.8504L39.665 92.4104V76.3504L46.565 72.9004C47.705 74.1504 48.875 75.2804 50.075 76.3104C51.255 77.3204 52.455 78.2304 53.695 79.0404Z" class="pr-icon-iso-solid-stroke" stroke-linejoin="round"/>
    <path d="M64.005 92.8103C61.795 89.0103 59.195 86.1203 56.185 84.1503C55.865 83.9403 55.545 83.7403 55.215 83.5503C52.045 81.7103 49.295 81.3303 46.975 82.4003L46.435 82.6703C43.995 84.0603 42.775 86.7103 42.775 90.6403V90.8503C42.815 94.7103 44.035 98.7003 46.435 102.83C48.865 107.04 51.795 110.12 55.215 112.1C58.635 114.08 61.565 114.37 64.005 112.98C66.445 111.59 67.655 108.93 67.655 105.01C67.655 101.09 66.445 97.0203 64.005 92.8103ZM59.615 105.4C58.395 106.1 56.925 105.95 55.215 104.96C53.505 103.97 52.045 102.43 50.825 100.33C49.605 98.2303 48.995 96.2003 48.995 94.2303C48.995 92.2603 49.605 90.9403 50.825 90.2503C52.045 89.5503 53.505 89.7003 55.215 90.6903C56.925 91.6703 58.395 93.2203 59.615 95.3203C60.825 97.4203 61.435 99.4503 61.435 101.42C61.435 103.39 60.825 104.71 59.615 105.4Z" class="pr-icon-iso-solid-stroke" stroke-linejoin="round"/>
    <path d="M61.435 101.42C61.435 103.38 60.825 104.71 59.615 105.4C58.395 106.1 56.925 105.95 55.215 104.96C53.505 103.97 52.045 102.43 50.825 100.33C49.605 98.2304 48.995 96.2004 48.995 94.2304C48.995 92.2604 49.605 90.9404 50.825 90.2504C52.045 89.5504 53.505 89.7004 55.215 90.6904C56.925 91.6704 58.395 93.2204 59.615 95.3204C60.825 97.4204 61.435 99.4504 61.435 101.42Z" class="pr-icon-iso-solid-stroke" stroke-linejoin="round"/>
    <path d="M51.3249 55.43C51.3249 57.15 50.7949 58.32 49.7349 58.92C49.5549 59.02 49.3649 59.11 49.1649 59.16C48.2249 59.46 47.1249 59.25 45.8849 58.53C44.3849 57.66 43.0949 56.31 42.0349 54.48C40.9749 52.65 40.4449 50.87 40.4449 49.14C40.4449 47.89 40.7249 46.93 41.2849 46.27C41.4949 46.02 41.7449 45.81 42.0349 45.64L42.3649 45.48C42.6549 45.36 42.9549 45.29 43.2649 45.28C43.6749 45.25 44.1149 45.31 44.5749 45.45C44.9949 45.58 45.4249 45.78 45.8849 46.04C47.3849 46.91 48.6749 48.26 49.7349 50.09C50.7949 51.92 51.3249 53.7 51.3249 55.43Z" class="pr-icon-iso-solid-stroke" stroke-linejoin="round"/>
    <path d="M87.655 95.0097C87.655 98.9297 86.445 101.59 84.005 102.98L83.465 103.25L64.005 112.98C66.445 111.59 67.655 108.93 67.655 105.01C67.655 101.09 66.445 97.0197 64.005 92.8097C61.795 89.0097 59.195 86.1197 56.185 84.1497C55.865 83.9397 55.545 83.7397 55.215 83.5497C52.045 81.7097 49.295 81.3297 46.975 82.3997L53.695 79.0397C54.195 79.3697 54.705 79.6797 55.215 79.9797L55.345 79.9197L59.665 77.7597L63.675 75.7497L71.235 71.9697C72.475 72.2097 73.805 72.7297 75.215 73.5497C78.635 75.5197 81.565 78.6097 84.005 82.8097C86.445 87.0197 87.655 91.0797 87.655 95.0097Z" class="pr-icon-iso-solid-stroke" stroke-linejoin="round"/>
</svg>