<svg width="48" height="48" viewBox="0 0 100 115" fill="#229EFF" xmlns="http://www.w3.org/2000/svg" stroke-width="1px" stroke-linecap="round" stroke-linejoin="round"><path d="M59.1 52.9156L40.31 42.0657L22.01 31.4957L10.79 25.0256L14.68 23.0757L22.01 27.3057L40.31 37.8657L55.99 46.9257L59.1 52.9156Z" stroke="white" stroke-linejoin="round"/><path d="M66.3301 88.5957L62.8601 90.5757L66.3301 96.5657L69.7201 94.4257L66.3301 88.5957Z" stroke="white" stroke-linejoin="round"/><path d="M97.58 88.9756L73.52 102.696L53.52 112.696L72.31 101.986L77.58 98.9756L97.58 88.9756Z" stroke="white" stroke-linejoin="round"/><path d="M97.5801 88.9761L77.5801 98.9761L66.9001 80.656L66.3301 79.666L86.3301 69.666L97.5801 88.9761Z" stroke="white" stroke-linejoin="round"/><path d="M66.9 80.656L66.32 79.666L54.94 86.1061L49.82 89.006L42.26 93.286V106.196L53.52 112.696L72.3 101.986L77.58 98.9761L66.9 80.656ZM66.33 96.566L62.86 90.576L66.33 88.5961L69.72 94.426L66.33 96.566Z" stroke="white" stroke-linejoin="round"/><path d="M62.5399 71.3657L54.9399 75.5957L34.9399 85.5957L39.5099 83.0557L42.5399 81.3657L62.5399 71.3657Z" stroke="white" stroke-linejoin="round"/><path d="M54.9399 75.5957V86.1057L49.8299 89.0056L42.2699 93.2856V98.3057L34.9399 101.966V85.5957L54.9399 75.5957Z" stroke="white" stroke-linejoin="round"/><path d="M62.5399 71.366L42.5399 81.366L34.9399 72.5759L49.5799 65.2559V77.3459L62.2499 71.0159L62.5399 71.366Z" stroke="white" stroke-linejoin="round"/><path d="M59.46 40.5358L40.3 29.4758L22.48 19.1758L22 18.9058L10.42 12.2158L2 19.1158V82.9558L34.94 101.966V85.5958L39.5 83.0558L42.54 81.3658L34.94 72.5758L22 72.5258H20.3V38.9258L22 39.9058L40.3 50.4658L49.58 55.8258V77.3458L61.73 70.4258L67.88 66.9158V57.1558L59.46 40.5358ZM40.31 42.0658L22.01 31.4958L10.8 25.0258L13.91 22.6257L14.69 23.0758L22.01 27.3058L40.31 37.8658L56 46.9258L59.11 52.9158L40.31 42.0658Z" stroke="white" stroke-linejoin="round"/><path d="M87.8801 56.916L69.5801 67.3461L62.2501 71.016L49.5801 77.3461L61.7301 70.426L67.8801 66.916L69.5801 66.066L87.8801 56.916Z" stroke="white" stroke-linejoin="round"/><path d="M79.4599 30.5358L71.6699 34.4358L67.7899 36.3757L59.9699 40.2758L59.4599 40.5358L40.3099 29.4758L22.4799 19.1758L22.0099 18.9058L10.4199 12.2158L30.4199 2.21582L79.4599 30.5358Z" stroke="white" stroke-linejoin="round"/><path d="M87.88 47.1556L69.58 56.3057L67.88 57.1556L59.46 40.5356L59.97 40.2756L67.79 36.3756L71.67 34.4357L79.46 30.5356L87.88 47.1556Z" stroke="white" stroke-linejoin="round"/><path d="M87.8799 47.1558V56.9158L69.5799 66.0658L67.8799 66.9158V57.1558L69.5799 56.3058L87.8799 47.1558Z" stroke="white" stroke-linejoin="round"/><path d="M49.5801 62.5557V65.2556L34.9401 72.5757L22.0101 72.5256L20.3101 72.5156L22.0101 71.6656L40.3101 62.5156L49.5801 62.5557Z" stroke="white" stroke-linejoin="round"/><path d="M40.3101 50.4658V62.5157L22.0101 71.6658L20.3101 72.5157V38.9258L22.0101 39.9058L40.3101 50.4658Z" stroke="white" stroke-linejoin="round"/></svg>