<svg width="24" height="24" viewBox="0 0 93 104" xmlns="http://www.w3.org/2000/svg" stroke-width="1px" stroke-linecap="round" stroke-linejoin="round">
    <path d="M12.0898 14.8102L13.4099 14.1501C12.9599 14.3401 12.5198 14.5702 12.0898 14.8102Z" class="pr-icon-iso-solid-stroke" stroke-linejoin="round"/>
    <path d="M91 27.2402V50.9902L83.65 54.6702L83.3101 54.8303L71.8301 60.5703V60.5803L71 60.9902V37.2402L80.65 32.4202L87.3201 29.0803L91 27.2402Z" class="pr-icon-iso-solid-stroke" stroke-linejoin="round"/>
    <path d="M63.24 64.4302C63.43 65.4302 63.59 66.4203 63.72 67.3903L62.63 67.9302L53.9301 72.2802L51.51 73.4902C51.68 72.2702 51.81 71.0303 51.9 69.7603C51.96 68.7803 52.01 67.7802 52.01 66.7702C52.03 66.4702 52.03 66.1702 52.03 65.8702C52.03 64.5502 51.98 63.2102 51.9 61.8402C51.86 61.2302 51.81 60.6202 51.75 60.0002C51.69 59.2202 51.6 58.4402 51.51 57.6602L56.8201 55.0103L58.86 53.9802L64.85 57.4402L70.59 60.7502L63.24 64.4302Z" class="pr-icon-iso-solid-stroke" stroke-linejoin="round"/>
    <path d="M64.1 72.8402C64.1 74.1602 64.03 75.4402 63.88 76.6802C63.74 77.9102 63.52 79.1103 63.24 80.2603L57.7001 77.0602L55.3101 75.6802L51.51 73.4902L53.9301 72.2802L62.63 67.9302L63.72 67.3903C63.78 67.8503 63.83 68.3103 63.88 68.7603C64.03 70.1603 64.1 71.5202 64.1 72.8402Z" class="pr-icon-iso-solid-stroke" stroke-linejoin="round"/>
    <path d="M90.9999 66.8303C90.9999 72.3003 90.0899 76.9303 88.2799 80.7003C86.4699 84.4703 84.0099 87.2403 80.9099 89.0103C80.5099 89.2403 80.0899 89.4502 79.6699 89.6302L60.4199 99.2702C60.5799 99.1902 60.7499 99.1003 60.9099 99.0103C63.9499 97.2703 66.3699 94.5802 68.1699 90.9202C68.2099 90.8502 68.2399 90.7703 68.2799 90.7003C69.4499 88.2503 70.2499 85.4502 70.6599 82.2802C70.8899 80.5702 70.9999 78.7503 70.9999 76.8303C70.9999 75.5103 70.94 74.1502 70.83 72.7702C70.78 72.1502 70.7099 71.5302 70.6399 70.9002C70.5499 70.1102 70.4399 69.3203 70.3099 68.5103L90.3099 58.5103C90.5399 59.9603 90.71 61.3802 90.83 62.7702C90.94 64.1502 90.9999 65.5103 90.9999 66.8303Z" class="pr-icon-iso-solid-stroke" stroke-linejoin="round"/>
    <path d="M90.3101 58.5102L70.3101 68.5102L66.21 66.1402L63.24 64.4302L70.59 60.7502L71 60.9902L71.8301 60.5802V60.5702L83.3101 54.8302L83.65 54.6702L90.3101 58.5102Z" class="pr-icon-iso-solid-stroke" stroke-linejoin="round"/>
    <path d="M70.8301 72.7703C70.7801 72.1503 70.71 71.5303 70.64 70.9003C70.55 70.1103 70.4401 69.3203 70.3101 68.5103L66.21 66.1403L63.24 64.4303C63.43 65.4303 63.59 66.4203 63.72 67.3903C63.78 67.8503 63.83 68.3103 63.88 68.7603C64.03 70.1603 64.1 71.5203 64.1 72.8403C64.1 74.1603 64.03 75.4403 63.88 76.6803C63.74 77.9103 63.52 79.1103 63.24 80.2603L57.7001 77.0603L55.3101 75.6803L51.51 73.4903C51.68 72.2703 51.81 71.0303 51.9 69.7603C51.96 68.7803 52.01 67.7803 52.01 66.7703C52.03 66.4703 52.03 66.1703 52.03 65.8703C52.03 64.5503 51.98 63.2103 51.9 61.8403C51.86 61.2303 51.81 60.6203 51.75 60.0003C51.69 59.2203 51.6 58.4403 51.51 57.6603L44.61 53.6703C44.78 55.0903 44.91 56.4803 45 57.8503C45.08 59.2203 45.13 60.5703 45.13 61.8903C45.13 62.6303 45.1101 63.3703 45.0801 64.0903C45.0601 64.6503 45.03 65.2103 45 65.7703C44.93 66.7703 44.83 67.7503 44.71 68.7103C44.68 68.9803 44.65 69.2503 44.61 69.5103L33.4401 63.0503L28.39 60.1403C28.22 58.7303 28.09 57.3303 28.01 55.9603C27.93 54.8003 27.89 53.6503 27.89 52.5303C27.88 52.3303 27.88 52.1303 27.88 51.9303C27.88 50.6103 27.92 49.3103 28.01 48.0403C28.09 46.7703 28.22 45.5303 28.39 44.3103L39.9501 50.9803V43.0703L29.97 37.3003H29.9501C30.6401 34.8503 31.53 32.6403 32.62 30.6703C33.41 29.2403 34.3001 27.9403 35.3101 26.7603C35.6801 26.3003 36.08 25.8603 36.5 25.4403C37.65 26.1003 38.8001 26.8503 39.9501 27.6803C41.1001 28.5003 42.25 29.3203 43.4 30.1103V22.0003C43.34 21.9603 43.28 21.9203 43.22 21.8703C42.13 21.1203 41.0401 20.3503 39.9501 19.5603C38.8001 18.7303 37.65 17.9903 36.5 17.3203C35.6 16.8003 34.7101 16.3303 33.8301 15.9003C30.7001 14.3503 27.7001 13.3503 24.8301 12.8903C24.2301 12.7903 23.64 12.7203 23.05 12.6703C19.43 12.3803 16.22 12.8603 13.41 14.1503L12.09 14.8103C8.98997 16.5803 6.52997 19.3503 4.71997 23.1203C2.90997 26.8903 2 31.5103 2 36.9903C2 42.4703 2.90997 48.1403 4.71997 54.0003C6.52997 59.8603 8.98997 65.4703 12.09 70.8203C15.2 76.1803 18.85 81.1103 23.05 85.6103C27.24 90.1103 31.73 93.7403 36.5 96.5003C41.27 99.2503 45.76 100.8 49.96 101.15C53.69 101.45 57 100.92 59.87 99.5403L60.42 99.2702C60.58 99.1902 60.75 99.1003 60.91 99.0103C63.95 97.2703 66.37 94.5803 68.17 90.9203C68.21 90.8503 68.24 90.7703 68.28 90.7003C69.45 88.2503 70.25 85.4503 70.66 82.2803C70.89 80.5703 71 78.7503 71 76.8303C71 75.5103 70.9401 74.1503 70.8301 72.7703ZM9.76001 49.3903C9.48001 47.9003 9.26 46.4603 9.12 45.0603C8.97 43.6503 8.90002 42.2903 8.90002 40.9703C8.90002 39.6503 8.97 38.3803 9.12 37.1403C9.26 35.9003 9.48001 34.7103 9.76001 33.5503L21.49 40.3303C21.34 41.4203 21.22 42.5303 21.14 43.6703L21.11 44.0603C21.02 45.3303 20.98 46.6303 20.98 47.9503C20.98 49.2703 21.02 50.6103 21.11 51.9803C21.19 53.3503 21.32 54.7403 21.49 56.1603L9.76001 49.3903ZM18.99 71.2903C16.46 67.4303 14.3601 63.3303 12.7001 59.0003L22.87 64.8803C23.39 67.6203 24.0401 70.3803 24.8101 73.1703C25.5901 75.9603 26.5 78.7803 27.53 81.6203C24.37 78.6003 21.52 75.1603 18.99 71.2903ZM24.8101 27.1503C24.0401 29.0503 23.39 31.0603 22.87 33.2103L22.35 32.9103L12.7001 27.3303C14.3601 24.9303 16.46 23.2503 18.99 22.3103C20.05 21.9103 21.17 21.6603 22.34 21.5403C23.01 21.4703 23.71 21.4503 24.42 21.4703C25.42 21.5003 26.46 21.6303 27.53 21.8403C26.5 23.4903 25.5901 25.2603 24.8101 27.1503ZM40.38 83.1503C39.29 85.1203 38 86.8703 36.5 88.3803C35.01 85.1403 33.71 81.9003 32.62 78.6703C31.53 75.4303 30.6401 72.1903 29.9501 68.9603L43.0601 76.5303C42.3701 78.9703 41.47 81.1703 40.38 83.1503ZM59.17 87.9203C57.73 89.5703 56 90.7603 54.01 91.5103C51.48 92.4603 48.63 92.6103 45.47 91.9803C46.51 90.3303 47.4101 88.5603 48.1901 86.6703C48.8001 85.1603 49.34 83.5703 49.8 81.9003C49.91 81.4703 50.02 81.0403 50.13 80.6103L58.51 85.4603L60.3 86.4903C59.95 87.0003 59.58 87.4803 59.17 87.9203Z" class="pr-icon-iso-solid-stroke" stroke-linejoin="round"/>
    <path d="M21.4899 40.3303C21.3399 41.4203 21.2199 42.5303 21.1399 43.6703L9.75989 49.3903C9.47989 47.9003 9.25987 46.4603 9.11987 45.0603C8.96987 43.6503 8.8999 42.2903 8.8999 40.9703C8.8999 39.6503 8.96987 38.3803 9.11987 37.1403C9.25987 35.9003 9.47989 34.7103 9.75989 33.5503L21.4899 40.3303Z" class="pr-icon-iso-solid-stroke" stroke-linejoin="round"/>
    <path d="M21.49 56.1602L9.76001 49.3902L21.14 43.6702L21.11 44.0602C21.02 45.3302 20.98 46.6302 20.98 47.9502C20.98 49.2702 21.02 50.6102 21.11 51.9802C21.19 53.3502 21.32 54.7402 21.49 56.1602Z" class="pr-icon-iso-solid-stroke" stroke-linejoin="round"/>
    <path d="M27.5302 81.6202C24.3702 78.6002 21.5201 75.1602 18.9901 71.2902C16.4601 67.4302 14.3602 63.3302 12.7002 59.0002L22.8701 64.8802C23.3901 67.6202 24.0402 70.3802 24.8102 73.1702C25.5902 75.9602 26.5002 78.7802 27.5302 81.6202Z" class="pr-icon-iso-solid-stroke" stroke-linejoin="round"/>
    <path d="M43.0602 76.5302C42.3702 78.9702 41.4701 81.1702 40.3801 83.1502C39.2901 85.1202 38.0001 86.8702 36.5001 88.3802C35.0101 85.1402 33.7101 81.9002 32.6201 78.6702C31.5301 75.4302 30.6402 72.1902 29.9502 68.9602L43.0602 76.5302Z" class="pr-icon-iso-solid-stroke" stroke-linejoin="round"/>
    <path d="M58.51 85.4602L56.47 86.4802L45.47 91.9802C46.51 90.3302 47.4101 88.5602 48.1901 86.6702C48.8001 85.1602 49.34 83.5702 49.8 81.9002C49.91 81.4702 50.02 81.0402 50.13 80.6102L58.51 85.4602Z" class="pr-icon-iso-solid-stroke" stroke-linejoin="round"/>
    <path d="M60.3 86.4902C59.95 87.0002 59.58 87.4802 59.17 87.9202C57.73 89.5702 56 90.7603 54.01 91.5103C51.48 92.4603 48.63 92.6102 45.47 91.9802L56.47 86.4802L58.51 85.4602L60.3 86.4902Z" class="pr-icon-iso-solid-stroke" stroke-linejoin="round"/>
    <path d="M45.0001 57.8502C45.0801 59.2202 45.1301 60.5703 45.1301 61.8903C45.1301 62.6303 45.1102 63.3702 45.0802 64.0902C45.0602 64.6502 45.0301 65.2102 45.0001 65.7702C44.9301 66.7702 44.8301 67.7502 44.7101 68.7102C44.6801 68.9802 44.6501 69.2503 44.6101 69.5103L33.4402 63.0502L28.3901 60.1403L30.9801 58.8402L36.0502 56.3102L48.3901 50.1403L49.9102 51.0202L44.6101 53.6702C44.7801 55.0902 44.9101 56.4802 45.0001 57.8502Z" class="pr-icon-iso-solid-stroke" stroke-linejoin="round"/>
    <path d="M50.1101 26.7602C50.0501 26.9402 50.0002 27.1102 49.9502 27.2902L41.3401 31.6002L29.9701 37.3002H29.9502C30.6402 34.8502 31.5301 32.6402 32.6201 30.6702C33.4101 29.2402 34.3002 27.9402 35.3102 26.7602C35.6802 26.3002 36.0801 25.8602 36.5001 25.4402C37.6501 26.1002 38.8002 26.8502 39.9502 27.6802C41.1002 28.5002 42.2501 29.3202 43.4001 30.1102L50.1101 26.7602Z" class="pr-icon-iso-solid-stroke" stroke-linejoin="round"/>
    <path d="M48.3899 50.1403L36.0499 56.3103L30.9799 58.8403L28.3899 60.1403C28.2199 58.7303 28.0899 57.3303 28.0099 55.9603C27.9299 54.8003 27.8899 53.6503 27.8899 52.5303C27.8799 52.3303 27.8799 52.1303 27.8799 51.9303C27.8799 50.6103 27.9199 49.3103 28.0099 48.0403C28.0899 46.7703 28.2199 45.5303 28.3899 44.3103L39.95 50.9803L48.08 46.9103C48.15 47.9703 48.2599 49.0503 48.3899 50.1403Z" class="pr-icon-iso-solid-stroke" stroke-linejoin="round"/>
    <path d="M24.4202 21.4702L22.2201 22.5703L12.7002 27.3303C14.3602 24.9303 16.4601 23.2503 18.9901 22.3103C20.0501 21.9103 21.1701 21.6602 22.3401 21.5402C23.0101 21.4702 23.7102 21.4502 24.4202 21.4702Z" class="pr-icon-iso-solid-stroke" stroke-linejoin="round"/>
    <path d="M27.5302 21.8402C26.5002 23.4902 25.5902 25.2602 24.8102 27.1502C24.0402 29.0502 23.3901 31.0602 22.8701 33.2102L22.3501 32.9102L12.7002 27.3303L22.2201 22.5703L24.4202 21.4702C25.4202 21.5002 26.4602 21.6302 27.5302 21.8402Z" class="pr-icon-iso-solid-stroke" stroke-linejoin="round"/>
    <path d="M63.3999 12.0002V18.7402L62.2499 19.3102L50.6399 25.1202L50.2999 25.2902V26.6602L50.1099 26.7502V26.7603L43.3999 30.1102V22.0002L56.4799 15.4602L56.5099 15.4503L63.3999 12.0002Z" class="pr-icon-iso-solid-stroke" stroke-linejoin="round"/>
    <path d="M63.3999 12.0002L56.5099 15.4502V15.4402L56.4899 15.4602L43.4099 22.0002C43.3499 21.9602 43.2899 21.9202 43.2299 21.8702C42.1399 21.1202 41.0498 20.3502 39.9598 19.5602C38.8098 18.7302 37.6599 17.9902 36.5099 17.3202C35.6099 16.8002 34.7198 16.3302 33.8398 15.9002C30.7098 14.3502 27.7098 13.3502 24.8398 12.8902C24.2398 12.7902 23.6499 12.7202 23.0599 12.6702C19.4399 12.3802 16.2299 12.8602 13.4199 14.1502L32.0999 4.81019C35.2099 3.04019 38.8599 2.33017 43.0599 2.67017C47.2499 3.02017 51.7399 4.5702 56.5099 7.3202C57.6599 7.9902 58.8098 8.73019 59.9598 9.56019C61.1098 10.3902 62.2599 11.2002 63.4099 12.0002H63.3999Z" class="pr-icon-iso-solid-stroke" stroke-linejoin="round"/>
    <path d="M70.3 36.8401L51.5701 26.0201L50.54 25.4302L50.3 25.2902V49.0402L51.96 50.0002L58.86 53.9802L64.85 57.4402L70.59 60.7502L71 60.9902V37.2402L70.3 36.8401ZM67.55 47.1202L64.8 45.5402L62.98 44.4802L60.65 43.1402V35.2202L67.55 39.2101V47.1202Z" class="pr-icon-iso-solid-stroke" stroke-linejoin="round"/>
    <path d="M91 27.2402L87.3201 29.0802L80.65 32.4202L71 37.2402L70.3 36.8401L51.5701 26.0201L50.54 25.4302L50.3 25.2902L50.64 25.1202L62.25 19.3102L63.4 18.7402L70.3 15.2902L91 27.2402Z" class="pr-icon-iso-solid-stroke" stroke-linejoin="round"/>
    <path d="M67.5499 39.2102V39.6902L60.6499 43.1403V35.2202L67.5499 39.2102Z" class="pr-icon-iso-solid-stroke" stroke-linejoin="round"/>
    <path d="M67.5499 39.6902V47.1202L64.7999 45.5402L62.9799 44.4802L60.6499 43.1402L67.5499 39.6902Z" class="pr-icon-iso-solid-stroke" stroke-linejoin="round"/>
    <path d="M58.8599 53.9802L56.8199 55.0103L51.5099 57.6602L44.6099 53.6702L49.9099 51.0202L51.9598 50.0002L58.8599 53.9802Z" class="pr-icon-iso-solid-stroke" stroke-linejoin="round"/>
    <path d="M29.9701 37.3002L29.9502 37.3102" class="pr-icon-iso-solid-stroke" stroke-linejoin="round"/>
    <path d="M50.3 27.4902V37.9001L47.96 39.0602V39.0702L41.15 42.4702L39.9501 43.0702L29.97 37.3002L41.34 31.6002L49.9501 27.2902L50.3 27.4902Z" class="pr-icon-iso-solid-stroke" stroke-linejoin="round"/>
    <path d="M50.3002 37.9001V45.8102L48.0802 46.9102L39.9502 50.9802V43.0702L41.1501 42.4702L47.9601 39.0702V39.0602L50.3002 37.9001Z" class="pr-icon-iso-solid-stroke" stroke-linejoin="round"/>
    <path d="M80.2 89.3701L79.6699 89.6301" class="pr-icon-iso-solid-stroke" stroke-linejoin="round"/>
</svg>