<svg width="48" height="48" viewBox="0 0 132 85" xmlns="http://www.w3.org/2000/svg" stroke-width="1px"
     stroke-linecap="round" stroke-linejoin="round">
    <path d="M109.935 43.05L59.4549 71.83L40.0649 82.88L2.49487 18.08L11.8849 12.72L40.0649 61.33L50.0649 55.63L59.4549 50.27L100.535 26.85L101.145 27.9L109.935 43.05Z" class="pr-icon-iso-solid-stroke" stroke-linejoin="round"/>
    <path d="M129.935 33.05L109.935 43.05L101.145 27.9L100.535 26.85L120.535 16.85L129.935 33.05Z" class="pr-icon-iso-solid-stroke" stroke-linejoin="round"/>
    <path d="M129.935 33.05L60.0649 72.88L40.0649 82.88L59.4549 71.83L109.935 43.05L129.935 33.05Z" class="pr-icon-iso-solid-stroke" stroke-linejoin="round"/>
    <path d="M59.4548 50.27L50.0648 55.63L40.0648 61.33L11.8848 12.72L31.8848 2.71997L59.4548 50.27Z" class="pr-icon-iso-solid-stroke" stroke-linejoin="round"/>
</svg>