<svg width="24" height="24" viewBox="0 0 94 104" xmlns="http://www.w3.org/2000/svg" stroke-width="1px" stroke-linecap="round" stroke-linejoin="round">
    <path d="M34.099 63.1693L34.0391 63.1993L34.1691 63.2693C34.1691 63.2693 34.119 63.2093 34.099 63.1693Z" class="pr-icon-iso-solid-stroke" stroke-linejoin="round"/>
    <path d="M34.0398 63.1993L34.0997 63.1693C34.1197 63.2093 34.1698 63.2693 34.1698 63.2693L34.0398 63.1993ZM34.0398 63.1993L26.7197 66.8593V35.3293L40.9098 43.5193L33.5897 47.1793V62.9393L34.0398 63.1993Z" class="pr-icon-iso-solid-stroke" stroke-linejoin="round"/>
    <path d="M68.6595 59.9393C67.2495 55.3593 65.4394 50.9393 63.2294 46.6793C62.6294 45.5093 61.9894 44.3393 61.3194 43.1893C61.0394 42.7093 60.7494 42.2193 60.4594 41.7493C60.2694 41.4293 60.0795 41.1193 59.8795 40.8093C57.1195 36.3893 53.9695 32.2693 50.4195 28.4693C49.6795 27.6793 48.9295 26.9093 48.1695 26.1693C44.6495 22.7393 40.9395 19.8893 37.0295 17.6393C32.9695 15.2893 29.1194 13.8293 25.4794 13.2393C24.8594 13.1293 24.2395 13.0593 23.6295 13.0093C20.0795 12.7093 16.9195 13.1793 14.1495 14.4193L12.7294 15.1293C9.63943 16.8993 7.18947 19.6493 5.38947 23.4093C3.58947 27.1593 2.68945 31.7593 2.68945 37.2093C2.68945 42.6593 3.58947 48.3093 5.38947 54.1393C7.18947 59.9793 9.63943 65.5593 12.7294 70.8893C15.8194 76.2193 19.4595 81.1293 23.6295 85.6093C27.8095 90.0893 32.2795 93.6993 37.0295 96.4493C41.7795 99.1893 46.2395 100.729 50.4195 101.079C54.5995 101.419 58.2294 100.709 61.3194 98.9493C64.3594 97.2193 66.7794 94.5193 68.5694 90.8493L68.6595 90.6693C70.4695 86.9193 71.3694 82.3193 71.3694 76.8693C71.3694 71.4193 70.4695 65.7693 68.6595 59.9393ZM47.3294 59.0493L45.0195 57.7093L40.4594 55.0793V51.1393L33.5894 47.1793V62.9393L34.0395 63.1993L34.0994 63.1693C34.0994 63.1693 34.1395 63.2393 34.1695 63.2693L40.4594 66.8993V62.9593L44.1194 65.0693L47.3294 66.9293V78.7493L45.8795 77.9193L26.7194 66.8593V35.3293L40.9095 43.5193L46.7194 46.8793L47.3294 47.2293V59.0493Z" class="pr-icon-iso-solid-stroke" stroke-linejoin="round"/>
    <path d="M47.329 51.6393V59.0493L45.019 57.7093L40.459 55.0793L47.329 51.6393Z" class="pr-icon-iso-solid-stroke" stroke-linejoin="round"/>
    <path d="M47.3298 47.2293V47.7093L40.4598 51.1493V51.1393L33.5898 47.1793L40.9099 43.5193L46.7198 46.8793L47.3298 47.2293Z" class="pr-icon-iso-solid-stroke" stroke-linejoin="round"/>
    <path d="M47.329 47.7094V51.6394L40.459 55.0794V51.1494L47.329 47.7094Z" class="pr-icon-iso-solid-stroke" stroke-linejoin="round"/>
    <path d="M44.12 65.0694L40.46 66.8994V62.9594L44.12 65.0694Z" class="pr-icon-iso-solid-stroke" stroke-linejoin="round"/>
    <path d="M47.3297 66.9293V78.7493L45.8798 77.9193L26.7197 66.8593L34.0398 63.1993L34.1698 63.2693L40.4597 66.8993L44.1198 65.0693L47.3297 66.9293Z" class="pr-icon-iso-solid-stroke" stroke-linejoin="round"/>
    <path d="M33.5897 62.9393L34.0398 63.1993L26.7197 66.8593V35.3293L40.9098 43.5193L33.5897 47.1793V62.9393Z" class="pr-icon-iso-solid-stroke" stroke-linejoin="round"/>
    <path d="M91.3694 66.8693C91.3694 72.3193 90.4694 76.9193 88.6594 80.6693C86.8594 84.4293 84.4093 87.1893 81.3193 88.9493L79.9094 89.6593L61.3193 98.9493C64.3593 97.2193 66.7793 94.5193 68.5693 90.8493L68.6594 90.6693C70.4694 86.9193 71.3694 82.3193 71.3694 76.8693C71.3694 71.4193 70.4694 65.7693 68.6594 59.9393C67.2494 55.3593 65.4394 50.9393 63.2294 46.6793C62.6294 45.5093 61.9893 44.3393 61.3193 43.1893C61.0393 42.7093 60.7494 42.2193 60.4594 41.7493C60.2694 41.4293 60.0794 41.1193 59.8794 40.8093C57.1194 36.3893 53.9694 32.2693 50.4194 28.4693C49.6794 27.6793 48.9294 26.9093 48.1694 26.1693C44.6494 22.7393 40.9394 19.8893 37.0294 17.6393C32.9694 15.2893 29.1194 13.8293 25.4794 13.2393C24.8594 13.1293 24.2394 13.0593 23.6294 13.0093C20.0794 12.7093 16.9194 13.1793 14.1494 14.4193L32.7294 5.12933C35.8194 3.36933 39.4594 2.65933 43.6294 3.00933C47.8094 3.34933 52.2794 4.88933 57.0294 7.63933C61.7794 10.3793 66.2394 13.9893 70.4194 18.4693C74.5994 22.9493 78.2293 27.8593 81.3193 33.1893C84.4093 38.5193 86.8594 44.0993 88.6594 49.9393C90.4694 55.7693 91.3694 61.4193 91.3694 66.8693Z" class="pr-icon-iso-solid-stroke" stroke-linejoin="round"/>
</svg>