<svg width="24" height="24" viewBox="0 0 92 90" xmlns="http://www.w3.org/2000/svg" stroke-width="1px" stroke-linecap="round" stroke-linejoin="round">
    <path d="M69.5503 23.9901V47.2401L69.2803 47.0801L65.9104 45.1401L52.8804 37.6201L49.5103 35.67L49.2803 35.54V12.29L69.2803 23.8301L69.5503 23.9901Z" class="pr-icon-iso-solid-stroke" stroke-linejoin="round"/>
    <path d="M45.9106 37.47V60.72L45.6406 60.56L29.2307 51.09L25.6406 49.02V25.77L42.2705 35.37L45.6406 37.31L45.9106 37.47Z" class="pr-icon-iso-solid-stroke" stroke-linejoin="round"/>
    <path d="M45.9106 64.5901V87.8501L25.6406 76.1501V52.8901L45.6406 64.4301L45.9106 64.5901Z" class="pr-icon-iso-solid-stroke" stroke-linejoin="round"/>
    <path d="M65.9102 72.2703V77.8503L45.9102 87.8503V64.5903L49.5 62.8003L65.9102 72.2703Z" class="pr-icon-iso-solid-stroke" stroke-linejoin="round"/>
    <path d="M69.5503 51.1199V74.3699L65.9104 72.27L49.5002 62.7999L49.2803 62.6699V39.4199L65.9104 49.02L69.2803 50.9599L69.5503 51.1199Z" class="pr-icon-iso-solid-stroke" stroke-linejoin="round"/>
    <path d="M89.5498 41.1201V64.3701L69.5498 74.3701V51.1201L89.5498 41.1201Z" class="pr-icon-iso-solid-stroke" stroke-linejoin="round"/>
    <path d="M89.5503 41.1201L69.5503 51.1201L69.2803 50.9601L65.9104 49.0201L49.2803 39.4201L52.8804 37.6201L65.9104 45.1401L69.2803 47.0801L69.5503 47.2401L85.9504 39.0401L89.5503 41.1201Z" class="pr-icon-iso-solid-stroke" stroke-linejoin="round"/>
    <path d="M52.8801 37.6199L49.28 39.4199V59.0399L45.9102 60.7199V37.4699L49.51 35.6699L52.8801 37.6199Z" class="pr-icon-iso-solid-stroke" stroke-linejoin="round"/>
    <path d="M49.5105 35.67L45.9106 37.47L45.6406 37.31L42.2705 35.37L25.6406 25.77L42.2705 17.46L45.6406 15.77L49.2805 17.87V35.54L49.5105 35.67Z" class="pr-icon-iso-solid-stroke" stroke-linejoin="round"/>
    <path d="M89.5498 13.9902V37.2402L85.95 39.0402L69.5498 47.2402V23.9902L89.5498 13.9902Z" class="pr-icon-iso-solid-stroke" stroke-linejoin="round"/>
    <path d="M89.5503 13.9901L69.5503 23.9901L69.2803 23.8301L49.2803 12.29L69.2803 2.29004L89.5503 13.9901Z" class="pr-icon-iso-solid-stroke" stroke-linejoin="round"/>
    <path d="M22.27 23.8201V47.0701L2 35.3701V12.1201L22 23.6601L22.27 23.8201Z" class="pr-icon-iso-solid-stroke" stroke-linejoin="round"/>
    <path d="M42.2695 13.8203V17.4603L25.6396 25.7703V45.3903L22.2695 47.0703V23.8203L42.2695 13.8203Z" class="pr-icon-iso-solid-stroke" stroke-linejoin="round"/>
    <path d="M42.27 13.8201L22.27 23.8201L22 23.6601L2 12.1201L22 2.12012L42.27 13.8201Z" class="pr-icon-iso-solid-stroke" stroke-linejoin="round"/>
    <path d="M49.5005 62.7999L45.9106 64.5898L45.6406 64.4299L25.6406 52.8899L29.2307 51.0898L45.6406 60.5599L45.9106 60.7198L49.2805 59.0399V62.6699L49.5005 62.7999Z" class="pr-icon-iso-solid-stroke" stroke-linejoin="round"/>
</svg>