<svg width="24" height="24" viewBox="0 0 84 122" xmlns="http://www.w3.org/2000/svg" stroke-width="1px" stroke-linecap="round" stroke-linejoin="round">
    <path d="M54.6292 80.9201L57.749 82.7201V92.4301L56.5991 91.7701L48.1292 86.8801L45.6091 85.4201L36.5991 80.2201V89.9301L48.1292 96.5901L56.5991 101.48L57.749 102.14V111.85L54.6292 110.05L36.5991 99.6401V119.06L28.1292 114.17V94.7501L6.979 82.5401V72.8301L28.1292 85.0401V75.3301L15.989 68.3201L6.979 63.1201V53.4001L24.219 63.3601L17.7791 48.0001L2.74902 12.1201L12.7991 17.9201L24.0791 44.8501L26.979 51.7901L27.719 53.5401L32.3691 64.6601L37.019 58.9201L42.3892 52.3001L43.2991 51.1701L48.3191 44.9901L51.9392 40.5201L60.0391 45.2001L61.979 46.3201L47.0491 64.7101L41.6892 71.3201L40.509 72.7701L54.6292 80.9201Z" class="pr-icon-iso-solid-stroke" stroke-linejoin="round"/>
    <path d="M32.7991 7.9201L26.499 11.0701L12.7991 17.9201L2.74902 12.1201L22.749 2.12012L32.7991 7.9201Z" class="pr-icon-iso-solid-stroke" stroke-linejoin="round"/>
    <path d="M48.3188 44.9901L43.2988 51.1701L42.3889 52.3001L37.0188 58.9201L32.3689 64.6601L27.7188 53.5401L26.9788 51.7901L24.0789 44.8501L12.7988 17.9201L26.4988 11.0701L32.7988 7.9201L48.3188 44.9901Z" class="pr-icon-iso-solid-stroke" stroke-linejoin="round"/>
    <path d="M81.9792 36.3201L61.9792 46.3201L60.0393 45.2001L51.9395 40.5201L71.9395 30.5201L81.9792 36.3201Z" class="pr-icon-iso-solid-stroke" stroke-linejoin="round"/>
    <path d="M81.9788 36.3201L60.5088 62.7701L40.5088 72.7701L41.689 71.3201L47.0488 64.7101L61.9788 46.3201L81.9788 36.3201Z" class="pr-icon-iso-solid-stroke" stroke-linejoin="round"/>
    <path d="M77.7488 72.7201L68.7388 77.2301L59.7188 81.7301L57.7488 82.7201L54.6289 80.9201L40.5088 72.7701L60.5088 62.7701L77.7488 72.7201Z" class="pr-icon-iso-solid-stroke" stroke-linejoin="round"/>
    <path d="M77.749 92.1401V101.85L57.749 111.85V102.14L68.739 96.6501L77.749 92.1401Z" class="pr-icon-iso-solid-stroke" stroke-linejoin="round"/>
    <path d="M77.749 72.7201V82.4301L68.739 86.9401L59.719 91.4401L57.749 92.4301V82.7201L59.719 81.7301L68.739 77.2301L77.749 72.7201Z" class="pr-icon-iso-solid-stroke" stroke-linejoin="round"/>
    <path d="M54.6296 110.05L36.5996 119.06V99.6401L54.6296 110.05Z" class="pr-icon-iso-solid-stroke" stroke-linejoin="round"/>
    <path d="M77.7495 92.1401L68.7395 96.6501L57.7495 102.14L56.5996 101.48L48.1296 96.5901L36.5996 89.9301L45.6096 85.4201L48.1296 86.8801L56.5996 91.7701L57.7495 92.4301L59.7195 91.4401L68.7395 86.9401L77.7495 92.1401Z" class="pr-icon-iso-solid-stroke" stroke-linejoin="round"/>
    <path d="M45.6096 85.4201L36.5996 89.9301V80.2201L45.6096 85.4201Z" class="pr-icon-iso-solid-stroke" stroke-linejoin="round"/>
    <path d="M28.1287 75.3301V85.0401L6.97852 72.8301L15.9885 68.3201L28.1287 75.3301Z" class="pr-icon-iso-solid-stroke" stroke-linejoin="round"/>
    <path d="M24.2185 63.3601L6.97852 53.4001L17.7786 48.0001L24.2185 63.3601Z" class="pr-icon-iso-solid-stroke" stroke-linejoin="round"/>
</svg>