<svg width="24" height="24" viewBox="0 0 92 117" xmlns="http://www.w3.org/2000/svg" stroke-width="1px" stroke-linecap="round" stroke-linejoin="round">
    <path d="M69.02 61.9955C69.02 62.7855 68.9801 63.8055 68.8801 65.0755C68.7901 66.3355 68.6502 67.7655 68.4602 69.3655L65.5601 92.1155L63.3401 109.466C63.0901 111.506 62.3401 112.936 61.1001 113.736L61.0801 113.756L60.1301 114.226C58.3001 114.886 56.2101 114.526 53.8501 113.166C52.4201 112.346 51.1001 111.226 49.8901 109.816C48.6801 108.406 47.6701 106.826 46.8701 105.076L38.01 85.1455L36.9102 82.6655C36.7802 82.3055 36.58 81.9955 36.3 81.7255C36.02 81.4555 35.7302 81.2355 35.4202 81.0555C35.1702 80.9055 34.6702 80.9455 33.9302 81.1555L24.25 91.6955C23.92 92.0355 23.5702 92.3255 23.1902 92.5355L22.98 92.6455C22.4 92.9355 21.75 93.0855 21.03 93.0955C19.76 93.1155 18.41 92.7055 16.99 91.8855C14.63 90.5255 12.55 88.4455 10.75 85.6655C8.95 82.8755 7.89008 80.0455 7.58008 77.1655L2.56006 31.3155C2.37006 29.4955 2.23014 27.9055 2.14014 26.5355C2.04014 25.1655 2 24.0855 2 23.3055C2 18.6055 3.46012 15.4255 6.37012 13.7555L7.06006 13.4155C9.84006 12.1655 13.1201 12.6255 16.8901 14.8155C19.1301 16.1055 20.91 17.4655 22.24 18.9155C22.27 18.9555 22.3101 18.9855 22.3401 19.0255C23.6401 20.4355 24.9001 21.8755 26.1101 23.3355C27.3501 24.8355 28.6701 26.3255 30.0601 27.8155C31.4601 29.2955 33.28 30.6755 35.51 31.9655C37.74 33.2555 39.5602 33.9655 40.9602 34.0955C42.3502 34.2255 43.6702 34.2555 44.9102 34.1955C46.1502 34.1255 47.4601 34.1455 48.8201 34.2655C50.1901 34.3755 51.9601 35.0555 54.1301 36.3055C58.2201 38.6755 61.7301 42.3755 64.6501 47.4055C67.5601 52.4355 69.02 57.2955 69.02 61.9955Z" class="pr-icon-iso-solid-stroke" stroke-linejoin="round"/>
    <path d="M61.0801 113.756C60.7901 113.946 60.4701 114.106 60.1301 114.226L61.0801 113.756Z" class="pr-icon-iso-solid-stroke" stroke-linejoin="round"/>
    <path d="M89.02 51.9955C89.02 52.7855 88.9801 53.8055 88.8801 55.0755C88.7901 56.3355 88.6502 57.7655 88.4602 59.3655L83.3401 99.4655C83.0301 101.986 81.9601 103.576 80.1301 104.226L61.1001 113.736C62.3401 112.936 63.0901 111.506 63.3401 109.466L65.5601 92.1155L68.4602 69.3655C68.6502 67.7655 68.7901 66.3355 68.8801 65.0755C68.9801 63.8055 69.02 62.7855 69.02 61.9955C69.02 57.2955 67.5601 52.4355 64.6501 47.4055C61.7301 42.3755 58.2201 38.6755 54.1301 36.3055C51.9601 35.0555 50.1901 34.3755 48.8201 34.2655C47.4601 34.1455 46.1502 34.1255 44.9102 34.1955C43.6702 34.2555 42.3502 34.2255 40.9602 34.0955C39.5602 33.9655 37.74 33.2555 35.51 31.9655C33.28 30.6755 31.4601 29.2955 30.0601 27.8155C28.6701 26.3255 27.3501 24.8355 26.1101 23.3355C24.9001 21.8755 23.6401 20.4355 22.3401 19.0255C22.3101 18.9855 22.27 18.9555 22.24 18.9155C20.91 17.4655 19.1301 16.1055 16.8901 14.8155C13.1201 12.6255 9.84006 12.1655 7.06006 13.4155L26.3701 3.75553C29.2901 2.09553 32.8001 2.44553 36.8901 4.81553C39.1301 6.10553 40.91 7.46554 42.24 8.91554C43.58 10.3655 44.8701 11.8355 46.1101 13.3355C47.3501 14.8355 48.6701 16.3255 50.0601 17.8155C51.4601 19.2955 53.28 20.6755 55.51 21.9655C57.74 23.2555 59.5602 23.9655 60.9602 24.0955C62.3502 24.2255 63.6702 24.2555 64.9102 24.1955C66.1502 24.1255 67.4601 24.1455 68.8201 24.2655C70.1901 24.3755 71.9601 25.0555 74.1301 26.3055C78.2201 28.6755 81.7301 32.3755 84.6501 37.4055C87.5601 42.4355 89.02 47.2955 89.02 51.9955Z" class="pr-icon-iso-solid-stroke" stroke-linejoin="round"/>
    <path d="M38.01 85.1354L23.1902 92.5354C23.5702 92.3254 23.92 92.0354 24.25 91.6954L33.9302 81.1554C34.6702 80.9454 35.1702 80.9054 35.4202 81.0554C35.7302 81.2354 36.02 81.4554 36.3 81.7254C36.58 81.9954 36.7802 82.3054 36.9102 82.6654L38.01 85.1354Z" class="pr-icon-iso-solid-stroke" stroke-linejoin="round"/>
</svg>