<svg width="48" height="48" viewBox="0 0 97 113" xmlns="http://www.w3.org/2000/svg" stroke-width="1px"
     stroke-linecap="round" stroke-linejoin="round">
    <path d="M39.1699 32.1145L40.4099 31.4845C39.9799 31.6545 39.5699 31.8645 39.1699 32.1145ZM22.3999 68.4244L23.2099 68.0144C22.9099 68.1244 22.6499 68.2544 22.3999 68.4244Z" class="pr-icon-iso-solid-stroke" stroke-linejoin="round"/>
    <path d="M17.61 64.4245C16.91 65.1745 16.39 66.1045 16.04 67.2245C15.69 68.3445 15.51 69.6445 15.51 71.1445V76.7446L2 68.9345V63.5145C2 61.6145 2.62 60.3645 3.88 59.7645C4.3 59.5545 4.79 59.4246 5.34 59.3646C7.56 59.1346 10.46 60.0345 14.01 62.0845C14.66 62.4645 15.29 62.8445 15.89 63.2145C16.49 63.5945 17.06 63.9945 17.61 64.4245Z" class="pr-icon-iso-solid-stroke" stroke-linejoin="round"/>
    <path d="M20.01 55.2145C20.01 57.1145 19.43 58.4045 18.28 59.0845C17.13 59.7745 15.7 59.6244 14 58.6444C12.94 58.0244 11.97 57.1944 11.11 56.1344C10.63 55.5444 10.18 54.8944 9.75999 54.1644C8.57999 52.1444 7.98999 50.1744 7.98999 48.2844C7.98999 46.3944 8.57999 45.0344 9.75999 44.3944C10.93 43.7444 12.35 43.9045 14 44.8545C15.7 45.8445 17.13 47.3245 18.28 49.3145C18.79 50.2045 19.2 51.0845 19.47 51.9645C19.83 53.0545 20.01 54.1345 20.01 55.2145Z" class="pr-icon-iso-solid-stroke" stroke-linejoin="round"/>
    <path d="M94.0701 95.1245V100.554L74.0701 110.554V105.125C74.0701 102.595 72.9701 99.9344 70.7701 97.1444C69.9501 96.0944 69.0301 95.1044 68.0101 94.1644C66.3001 92.5744 64.3101 91.1345 62.0601 89.8345C61.4601 89.4845 60.8701 89.1545 60.2901 88.8545C59.7201 88.5545 59.1601 88.2945 58.6101 88.0945L62.0501 86.3745L62.0601 86.3844C63.7601 87.3644 65.1901 87.5145 66.3401 86.8345L68.4701 85.7644L75.8201 82.0945L79.4301 80.2844L81.2601 79.3745C81.5201 79.5245 81.7901 79.6745 82.0601 79.8345C85.6601 81.9145 88.5701 84.3444 90.7701 87.1444C92.9701 89.9344 94.0701 92.5945 94.0701 95.1245Z" class="pr-icon-iso-solid-stroke" stroke-linejoin="round"/>
    <path d="M88.0701 72.9645C88.0701 74.8545 87.4901 76.1445 86.3401 76.8345L85.9801 77.0144L81.2601 79.3745L79.4301 80.2844L75.8201 82.0945L68.4701 85.7644L66.3401 86.8345C66.9301 86.4845 67.3701 85.9744 67.6601 85.3044C67.8901 84.7644 68.0201 84.1245 68.0501 83.3745C68.0701 83.2445 68.0701 83.1045 68.0701 82.9645C68.0701 81.0045 67.4901 79.0344 66.3401 77.0544C65.1901 75.0644 63.7601 73.5845 62.0601 72.6045C60.4101 71.6445 58.9901 71.4944 57.8201 72.1344L66.5401 67.7744L67.8601 67.1145C67.8101 67.4245 67.7601 67.7244 67.6901 68.0144C67.6401 68.2444 67.5801 68.4745 67.5201 68.6945C67.2901 69.5845 67.0001 70.4444 66.6401 71.2844C67.6401 72.3744 68.5201 73.5745 69.2701 74.8645C70.0201 76.1645 70.6701 77.5144 71.2201 78.9244L74.2001 77.4344L79.8301 74.6245L87.8001 70.6344C87.9801 71.4144 88.0701 72.1945 88.0701 72.9645Z" class="pr-icon-iso-solid-stroke" stroke-linejoin="round"/>
    <path d="M68.0701 82.9645C68.0701 83.1045 68.07 83.2446 68.05 83.3746C68.02 84.1246 67.89 84.7645 67.66 85.3045C67.37 85.9745 66.93 86.4845 66.34 86.8345C65.19 87.5145 63.7601 87.3645 62.0601 86.3845C62.0601 86.3845 62.05 86.3846 62.05 86.3746C60.4 85.4246 58.9901 83.9445 57.8201 81.9145C57.2101 80.8745 56.76 79.8445 56.47 78.8445C56.19 77.8845 56.05 76.9445 56.05 76.0245C56.05 74.0745 56.6401 72.7745 57.8201 72.1345C58.9901 71.4945 60.4101 71.6445 62.0601 72.6045C63.7601 73.5845 65.19 75.0645 66.34 77.0545C67.49 79.0345 68.0701 81.0045 68.0701 82.9645Z" class="pr-icon-iso-solid-stroke" stroke-linejoin="round"/>
    <path d="M66.74 56.5444C66.35 58.0144 65.59 59.0845 64.45 59.7545L63.91 60.0244L59.23 62.3645L44.45 69.7545C46.18 68.7445 47.04 66.8044 47.04 63.9344C47.04 61.8144 46.59 59.6844 45.68 57.5344C45.34 56.7144 44.93 55.8945 44.45 55.0745C42.88 52.3545 40.96 50.2644 38.69 48.8044C38.48 48.6544 38.25 48.5244 38.03 48.3944C35.83 47.1144 33.91 46.7744 32.29 47.3844C32.28 47.3744 32.28 47.3645 32.27 47.3645L39.88 43.5645L49.82 38.5845H49.83C50 38.6345 50.18 38.6845 50.36 38.7545C51.54 39.1145 52.84 39.7144 54.25 40.5244C58.15 42.7744 61.43 46.1944 64.09 50.7644C65.21 52.7044 66.09 54.6344 66.74 56.5444Z" class="pr-icon-iso-solid-stroke" stroke-linejoin="round"/>
    <path d="M39.88 43.5644L32.27 47.3645L31.97 47.5144L31.65 47.6744C30.73 48.1844 30.05 48.9644 29.62 50.0144C29.22 50.9544 29.02 52.1244 29.02 53.5244V53.6644L22 57.2144L18.29 59.0844C19.44 58.4044 20.02 57.1144 20.02 55.2144C20.02 54.1344 19.84 53.0544 19.48 51.9644C19.21 51.0844 18.8 50.2044 18.29 49.3144C17.14 47.3244 15.71 45.8444 14.01 44.8544C12.36 43.9044 10.94 43.7444 9.77002 44.3944L29.77 34.3944C30.72 33.8644 31.83 33.8744 33.1 34.4044C34.68 37.2544 36.33 40.3044 38.03 43.5644L39.71 42.7644C39.78 43.0344 39.84 43.2944 39.88 43.5644Z" class="pr-icon-iso-solid-stroke" stroke-linejoin="round"/>
    <path d="M94.0699 57.8144C94.0699 60.0044 93.8199 62.0144 93.3199 63.8444C92.8199 65.6844 92.1199 67.3744 91.2199 68.9244L87.7999 70.6343L79.8299 74.6245L74.1999 77.4344L71.2199 78.9244C71.8899 77.7644 72.4599 76.5244 72.9099 75.1944C73.0599 74.7544 73.1899 74.3044 73.3199 73.8444C73.8199 72.0144 74.0699 70.0044 74.0699 67.8144C74.0699 66.5844 73.9999 65.3444 73.8599 64.1144C73.2699 58.8944 71.4399 53.6344 68.3699 48.3244C65.0299 42.5744 61.0099 38.1044 56.2899 34.9144C55.6199 34.4644 54.9399 34.0343 54.2499 33.6343C51.0999 31.8143 48.0899 30.8344 45.2399 30.7144C43.4499 30.6344 41.8499 30.8844 40.4099 31.4844L53.4099 24.9644L57.9299 22.7044L59.4599 21.9344L59.8099 21.7545C61.3899 20.9645 63.1999 20.6244 65.2399 20.7144C68.0899 20.8344 71.0999 21.8143 74.2499 23.6343C79.8599 26.8643 84.5599 31.7644 88.3699 38.3244C92.1699 44.8944 94.0699 51.3844 94.0699 57.8144Z" class="pr-icon-iso-solid-stroke" stroke-linejoin="round"/>
    <path d="M57.9301 22.6945L53.4101 24.9645L40.4101 31.4846C39.9801 31.6546 39.5701 31.8646 39.1701 32.1146L39.1001 32.1445C38.7301 32.3645 38.3701 32.6145 38.0301 32.8845C36.0801 29.0545 33.6801 25.5645 30.8301 22.3945C29.9001 21.3645 28.9601 20.4045 28.0001 19.5345C26.0701 17.7345 24.0801 16.2345 22.0201 15.0245C21.9501 14.9845 21.8901 14.9445 21.8201 14.9045C16.6501 11.9345 12.2601 11.2345 8.62012 12.8445L27.7001 3.3045C31.5101 1.1345 36.2101 1.67447 41.8201 4.90447C44.9701 6.72447 47.9701 9.22446 50.8301 12.3945C53.6301 15.5145 56.0001 18.9345 57.9301 22.6945Z" class="pr-icon-iso-solid-stroke" stroke-linejoin="round"/>
    <path d="M29.36 28.2944L24.93 30.5045L24.83 30.5544L9.43 38.2545C8.98 36.6745 8.63 35.1744 8.38 33.7644C8.13 32.3644 8 30.9944 8 29.6744C8 25.1944 9.33 22.1944 11.98 20.6844C14.63 19.1744 17.91 19.5444 21.82 21.7944C22.08 21.9444 22.33 22.0945 22.58 22.2545C25.27 23.9145 27.52 25.9145 29.32 28.2545C29.34 28.2645 29.35 28.2844 29.36 28.2944Z" class="pr-icon-iso-solid-stroke" stroke-linejoin="round"/>
    <path d="M29.3901 28.3345L24.8501 30.6045L4.8501 40.6045C5.4001 39.8345 6.0501 39.2344 6.8001 38.8044C7.5501 38.3744 8.4301 38.1945 9.4301 38.2545L24.8301 30.5544L24.9301 30.5045L29.3601 28.2944C29.3601 28.2944 29.3801 28.3245 29.3901 28.3345Z" class="pr-icon-iso-solid-stroke" stroke-linejoin="round"/>
    <path d="M74.07 67.8145C74.07 70.0045 73.82 72.0145 73.32 73.8445C73.19 74.3045 73.06 74.7545 72.91 75.1945C72.46 76.5245 71.89 77.7645 71.22 78.9245C70.67 77.5145 70.02 76.1645 69.27 74.8645C68.52 73.5745 67.64 72.3745 66.64 71.2845C67 70.4445 67.29 69.5845 67.52 68.6945C67.58 68.4745 67.64 68.2445 67.69 68.0145C67.76 67.7245 67.81 67.4245 67.86 67.1145C68 66.2545 68.07 65.3345 68.07 64.3545C68.07 61.7645 67.63 59.1645 66.74 56.5445C66.09 54.6345 65.21 52.7045 64.09 50.7645C61.43 46.1944 58.15 42.7745 54.25 40.5245C52.84 39.7145 51.54 39.1146 50.36 38.7546C50.18 38.6846 50 38.6345 49.83 38.5845H49.82C49.52 38.5045 49.23 38.4445 48.94 38.3945C47.35 38.1145 46 38.3045 44.9 38.9645C43.22 39.9745 41.46 41.1145 39.63 42.4145C39.11 42.7845 38.57 43.1645 38.03 43.5645C36.33 40.3045 34.68 37.2545 33.1 34.4045C32.44 33.2245 31.8 32.0845 31.16 30.9845C30.63 30.0545 30.04 29.1745 29.39 28.3345C29.38 28.3245 29.37 28.3045 29.36 28.2945C29.35 28.2845 29.34 28.2646 29.32 28.2546C27.52 25.9146 25.27 23.9146 22.58 22.2546C22.33 22.0946 22.08 21.9445 21.82 21.7945C17.91 19.5445 14.63 19.1745 11.98 20.6845C9.33 22.1945 8 25.1945 8 29.6745C8 30.9945 8.13 32.3645 8.38 33.7645C8.63 35.1745 8.98 36.6746 9.43 38.2546C8.43 38.1946 7.55 38.3745 6.8 38.8045C6.05 39.2345 5.4 39.8345 4.85 40.6045C3.95 38.0145 3.25 35.5145 2.75 33.1045C2.25 30.6845 2 28.3845 2 26.2045C2 19.7745 3.9 15.4745 7.7 13.3045L8.62 12.8445C12.26 11.2345 16.65 11.9345 21.82 14.9045C21.89 14.9445 21.95 14.9845 22.02 15.0245C24.08 16.2345 26.07 17.7345 28 19.5345C28.96 20.4045 29.9 21.3645 30.83 22.3945C33.68 25.5645 36.08 29.0544 38.03 32.8844C38.37 32.6144 38.73 32.3645 39.1 32.1445L39.17 32.1145L40.41 31.4845C41.85 30.8845 43.45 30.6345 45.24 30.7145C48.09 30.8345 51.1 31.8144 54.25 33.6344C54.94 34.0344 55.62 34.4645 56.29 34.9145C61.01 38.1045 65.03 42.5745 68.37 48.3245C71.44 53.6345 73.27 58.8945 73.86 64.1145C74 65.3445 74.07 66.5845 74.07 67.8145Z" class="pr-icon-iso-solid-stroke" stroke-linejoin="round"/>
    <path d="M56.05 94.5444V100.144L20.02 79.3445V73.7445C20.02 71.2345 20.77 69.4845 22.28 68.4845L22.4 68.4244L23.21 68.0144L23.32 67.9645C23.82 67.7745 24.39 67.6444 25.01 67.5744C26.91 67.3644 29.14 67.7144 31.71 68.6444C33.63 69.3244 35.74 70.3344 38.03 71.6544C43.44 74.7744 47.79 78.4344 51.1 82.6444C54.4 86.8444 56.05 90.8144 56.05 94.5444Z" class="pr-icon-iso-solid-stroke" stroke-linejoin="round"/>
    <path d="M32.32 63.4545L30.98 64.1245L23.32 67.9645L23.21 68.0144C22.91 68.1244 22.65 68.2544 22.4 68.4244L22.28 68.4845C20.77 69.4845 20.02 71.2345 20.02 73.7445V74.4945L15.51 76.7445V71.1444C15.51 69.6444 15.69 68.3445 16.04 67.2245C16.39 66.1045 16.91 65.1744 17.61 64.4244L25.06 60.7045L29.81 58.3245C30.25 59.6545 30.86 61.0045 31.65 62.3645C31.87 62.7445 32.09 63.1045 32.32 63.4545Z" class="pr-icon-iso-solid-stroke" stroke-linejoin="round"/>
    <path d="M29.8099 58.3245L25.0599 60.7045L17.6099 64.4244C17.0599 63.9944 16.4899 63.5945 15.8899 63.2145C15.2899 62.8445 14.6599 62.4645 14.0099 62.0845C10.4599 60.0345 7.55988 59.1345 5.33988 59.3645C4.78988 59.4245 4.29988 59.5544 3.87988 59.7644L11.1199 56.1344C11.9799 57.1944 12.9499 58.0244 14.0099 58.6444C15.7099 59.6244 17.1399 59.7745 18.2899 59.0845L21.9999 57.2145L29.0199 53.6644C29.0399 55.2044 29.2999 56.7545 29.8099 58.3245Z" class="pr-icon-iso-solid-stroke" stroke-linejoin="round"/>
    <path d="M3.88004 59.7644L3.79004 59.8044" class="pr-icon-iso-solid-stroke" stroke-linejoin="round"/>
    <path d="M62.0501 86.3745L58.6101 88.0945C59.2601 89.6145 59.7401 91.1344 60.0701 92.6444C60.3901 94.1544 60.5601 95.6544 60.5601 97.1444V97.8944L56.0501 100.144V94.5444C56.0501 90.8144 54.4001 86.8444 51.1001 82.6444C47.7901 78.4344 43.4401 74.7744 38.0301 71.6544C35.7401 70.3344 33.6301 69.3244 31.7101 68.6444C29.1401 67.7144 26.9101 67.3645 25.0101 67.5745C24.3901 67.6445 23.8201 67.7745 23.3201 67.9645L30.9801 64.1245L32.3201 63.4545C32.9501 64.4245 33.6201 65.2945 34.3401 66.0745C34.6101 66.3745 34.8901 66.6544 35.1701 66.9144C36.0601 67.7644 37.0201 68.4845 38.0301 69.0645C39.4101 69.8645 40.6501 70.2845 41.7801 70.3545C42.7601 70.4345 43.6501 70.2245 44.4501 69.7545L59.2301 62.3645C61.9501 64.0245 64.3901 65.8244 66.5401 67.7744L57.8201 72.1344C56.6401 72.7744 56.0501 74.0744 56.0501 76.0244C56.0501 76.9444 56.1901 77.8845 56.4701 78.8445C56.7601 79.8445 57.2101 80.8744 57.8201 81.9144C58.9901 83.9444 60.4001 85.4245 62.0501 86.3745Z" class="pr-icon-iso-solid-stroke" stroke-linejoin="round"/>
    <path d="M47.03 63.9345C47.03 66.8045 46.17 68.7445 44.44 69.7545C43.64 70.2245 42.75 70.4345 41.77 70.3545C40.64 70.2845 39.4 69.8645 38.02 69.0645C37.01 68.4845 36.05 67.7645 35.16 66.9145C34.88 66.6545 34.6 66.3745 34.33 66.0745C33.61 65.2945 32.94 64.4245 32.31 63.4545C32.08 63.1045 31.86 62.7445 31.64 62.3645C30.85 61.0045 30.24 59.6545 29.8 58.3245C29.29 56.7545 29.03 55.2045 29.01 53.6645V53.5244C29.01 52.1244 29.21 50.9544 29.61 50.0144C30.04 48.9644 30.72 48.1845 31.64 47.6745L31.96 47.5144C32.06 47.4644 32.17 47.4244 32.28 47.3844C33.9 46.7744 35.82 47.1144 38.02 48.3944C38.24 48.5244 38.47 48.6545 38.68 48.8045C40.95 50.2645 42.87 52.3545 44.44 55.0745C44.92 55.8945 45.33 56.7144 45.67 57.5344C46.58 59.6844 47.03 61.8145 47.03 63.9345Z" class="pr-icon-iso-solid-stroke" stroke-linejoin="round"/>
    <path d="M74.0701 105.125V110.554L60.5601 102.745V97.1444C60.5601 95.6544 60.3901 94.1544 60.0701 92.6444C59.7401 91.1344 59.2601 89.6145 58.6101 88.0945C59.1601 88.2945 59.7201 88.5545 60.2901 88.8545C60.8701 89.1545 61.4601 89.4845 62.0601 89.8345C64.3101 91.1345 66.3001 92.5744 68.0101 94.1644C69.0301 95.1044 69.9501 96.0944 70.7701 97.1444C72.9701 99.9344 74.0701 102.595 74.0701 105.125Z" class="pr-icon-iso-solid-stroke" stroke-linejoin="round"/>
    <path d="M48.93 38.3944L39.7 42.7644L38.02 43.5644C38.56 43.1644 39.1 42.7844 39.62 42.4144C41.45 41.1144 43.21 39.9744 44.89 38.9644C45.99 38.3044 47.34 38.1144 48.93 38.3944Z" class="pr-icon-iso-solid-stroke" stroke-linejoin="round"/>
</svg>