<svg width="48" height="48" viewBox="0 0 97 94" xmlns="http://www.w3.org/2000/svg" stroke-width="1px"
     stroke-linecap="round" stroke-linejoin="round">
    <path d="M74.76 70.83V79.1801L71.0701 77.05L64.9402 73.51L62.3 63.95L55.5701 84.8L50.02 81.59L49.97 81.3199L49.8801 80.83L42.1001 37.86L42.02 37.42L42.01 37.47L38.8301 52.14L30.3801 91.12L24.8301 87.92L14.73 44.52L2 37.17V28.8199L20.1001 39.27L26.9202 68.5699L34.3901 34.3199L34.9302 31.86L36.01 26.91L39.1101 12.6801L44.9302 16.04L50.03 44.3101L53.48 63.45L55.6702 56.7L59.3901 45.26L64.5701 48.25L68.1501 61.27L70.03 68.1L74.76 70.83Z" class="pr-icon-iso-solid-stroke" stroke-linejoin="round"/>
    <path d="M36.01 26.91L34.9302 31.86L32.3501 33.15L20.1001 39.27L2 28.8199L22 18.8199L36.01 26.91Z" class="pr-icon-iso-solid-stroke" stroke-linejoin="round"/>
    <path d="M34.9297 31.86L34.3896 34.3199L26.9197 68.5699L20.0996 39.27L32.3496 33.15L34.9297 31.86Z" class="pr-icon-iso-solid-stroke" stroke-linejoin="round"/>
    <path d="M64.9304 6.04004L57.5803 9.70996V9.71997L44.9304 16.04L39.1104 12.6801L59.1104 2.68005L64.9304 6.04004Z" class="pr-icon-iso-solid-stroke" stroke-linejoin="round"/>
    <path d="M90.0303 58.1L84.2402 60.99L79.2202 63.5V63.51L70.0303 68.1L68.1504 61.27L64.5703 48.25L65.6904 47.6901L71.8804 44.59L77.2302 41.92L84.5703 38.25L90.0303 58.1Z" class="pr-icon-iso-solid-stroke" stroke-linejoin="round"/>
    <path d="M84.5706 38.25L77.2305 41.92L71.8806 44.59L65.6907 47.6901L64.5706 48.25L59.3906 45.26L64.7605 42.5699L70.9604 39.48L79.3906 35.26L84.5706 38.25Z" class="pr-icon-iso-solid-stroke" stroke-linejoin="round"/>
    <path d="M94.7603 60.83L87.0103 64.71L77.2502 69.58V69.59L74.7603 70.83L70.0303 68.1L79.2202 63.51V63.5L84.2402 60.99L90.0303 58.1L94.7603 60.83Z" class="pr-icon-iso-solid-stroke" stroke-linejoin="round"/>
    <path d="M94.7598 60.83V69.1801L74.7598 79.1801V70.83L77.2498 69.59V69.58L87.0098 64.71L94.7598 60.83Z" class="pr-icon-iso-solid-stroke" stroke-linejoin="round"/>
    <path d="M70.9595 39.48L64.7595 42.5699L59.3896 45.26L55.6697 56.7L53.4795 63.45L50.0295 44.3101L44.9297 16.04L57.5796 9.71997V9.70996L64.9297 6.04004L70.9595 39.48Z" class="pr-icon-iso-solid-stroke" stroke-linejoin="round"/>
    <path d="M71.0703 77.05L55.5703 84.8L62.3003 63.95L64.9404 73.51L71.0703 77.05Z" class="pr-icon-iso-solid-stroke" stroke-linejoin="round"/>
    <path d="M49.9697 81.3199L30.3799 91.12L38.8298 52.14L42.0098 37.47L42.0999 37.86L49.8799 80.83L49.9697 81.3199Z" class="pr-icon-iso-solid-stroke" stroke-linejoin="round"/>
</svg>