<svg width="48" height="48" viewBox="0 0 105 129" fill="#229EFF" xmlns="http://www.w3.org/2000/svg" stroke-width="1px" stroke-linecap="round" stroke-linejoin="round"><path d="M79.5451 87.7568C77.9651 84.1268 75.7652 79.7768 72.9552 74.7168C72.1752 73.3268 71.355 71.8868 70.485 70.3868C69.545 68.7668 68.6652 67.0868 67.8652 65.3568C67.0552 63.6168 66.2552 61.7468 65.4452 59.7368C63.9652 56.1868 62.4051 52.4968 60.7651 48.6568C59.4851 45.6868 57.9951 42.7368 56.2851 39.8168C55.7851 38.9568 55.265 38.1068 54.725 37.2568C52.335 33.4868 49.505 29.8668 46.215 26.3868C42.925 22.9068 38.8952 19.7968 34.1252 17.0368C30.8852 15.1668 27.8751 13.8468 25.0851 13.0768C20.6151 11.8168 16.7252 11.9968 13.4252 13.5768C12.3252 14.1168 11.2851 14.8068 10.3051 15.6568C4.6351 20.6268 1.86505 29.5768 2.00505 42.5268C2.06505 48.9568 3.20522 55.0068 5.42522 60.6768C7.64522 66.3468 10.3752 71.4868 13.6352 76.1068C16.8852 80.7168 20.3651 84.6868 24.0551 88.0168C27.7451 91.3468 31.1052 93.8768 34.1252 95.6268C35.9352 96.6668 37.4351 98.1068 38.6051 99.9468C39.7851 101.777 41.0051 103.837 42.2851 106.107C43.8951 108.967 45.8552 111.927 48.1752 114.997C50.4952 118.077 53.8952 120.907 58.3952 123.507C64.5052 127.027 70.0651 127.177 75.0651 123.937C78.0451 122.007 80.1351 119.017 81.3251 114.957C82.1551 112.197 82.5651 108.957 82.5651 105.217C82.5651 98.2068 81.5651 92.3868 79.5451 87.7568ZM52.8051 84.8268C52.6251 84.9468 52.4451 85.0668 52.2551 85.1768C49.5051 86.7368 46.1751 86.4068 42.2851 84.1568C38.3951 81.9068 35.0651 78.4068 32.3151 73.6568C29.5651 68.9168 28.1852 64.3068 28.1852 59.8368C28.1852 58.9168 28.2451 58.0568 28.3551 57.2668C28.8151 54.1868 30.1351 52.0268 32.3151 50.7768C35.0651 49.2068 38.3951 49.5468 42.2851 51.7968C45.1451 53.4568 47.705 55.7868 49.965 58.7968C50.765 59.8668 51.5351 61.0368 52.2551 62.2868C53.1951 63.9268 53.9851 65.5468 54.6051 67.1568C55.7951 70.1968 56.3852 73.1868 56.3852 76.1168C56.3852 80.2768 55.1851 83.1868 52.8051 84.8268Z" stroke="white" stroke-linejoin="round"/><path d="M56.3855 76.1167C56.3855 80.2767 55.1854 83.1867 52.8054 84.8267C52.6254 84.9467 52.4454 85.0667 52.2554 85.1767C49.5054 86.7367 46.1754 86.4067 42.2854 84.1567C38.3954 81.9067 35.0654 78.4067 32.3154 73.6567C29.5654 68.9167 28.1855 64.3067 28.1855 59.8367C28.1855 58.9167 28.2455 58.0567 28.3555 57.2667C28.8155 54.1867 30.1354 52.0267 32.3154 50.7767C35.0654 49.2067 38.3954 49.5467 42.2854 51.7967C45.1454 53.4567 47.7053 55.7867 49.9653 58.7967C50.5853 60.4067 51.3754 62.0267 52.3154 63.6567C53.0354 64.9067 53.8055 66.0767 54.6055 67.1567C55.7955 70.1967 56.3855 73.1867 56.3855 76.1167Z" stroke="white" stroke-linejoin="round"/><path d="M102.565 95.2168C102.565 104.457 100.065 110.697 95.0652 113.937C94.6152 114.227 94.1653 114.487 93.7053 114.717L93.0352 115.047L75.0652 123.937C78.0452 122.007 80.1352 119.017 81.3252 114.957C82.1552 112.197 82.5652 108.957 82.5652 105.217C82.5652 98.2068 81.5652 92.3868 79.5452 87.7568C77.9652 84.1268 75.7653 79.7768 72.9553 74.7168C72.1753 73.3268 71.3551 71.8868 70.4851 70.3868C69.5451 68.7668 68.6652 67.0868 67.8652 65.3568C67.0552 63.6168 66.2553 61.7468 65.4453 59.7368C63.9653 56.1868 62.4051 52.4968 60.7651 48.6568C59.4851 45.6868 57.9952 42.7368 56.2852 39.8168C55.7852 38.9568 55.2651 38.1068 54.7251 37.2568C52.3351 33.4868 49.5051 29.8668 46.2151 26.3868C42.9251 22.9068 38.8952 19.7968 34.1252 17.0368C30.8852 15.1668 27.8752 13.8468 25.0852 13.0768C20.6152 11.8168 16.7253 11.9968 13.4253 13.5768L32.8853 3.85682L33.4353 3.57682C38.7853 1.00682 45.6852 2.15683 54.1252 7.03683C58.8952 9.79683 62.9251 12.9068 66.2151 16.3868C69.5051 19.8668 72.3351 23.4868 74.7251 27.2568C77.1051 31.0168 79.1151 34.8168 80.7651 38.6568C82.4051 42.4968 83.9653 46.1868 85.4453 49.7368C86.2553 51.7468 87.0552 53.6168 87.8652 55.3568C88.6652 57.0868 89.5451 58.7668 90.4851 60.3868C94.5151 67.3368 97.5352 73.1268 99.5452 77.7568C101.565 82.3868 102.565 88.2068 102.565 95.2168Z" stroke="white" stroke-linejoin="round"/><path d="M13.425 13.5769L12.875 13.8469" stroke="white" stroke-linejoin="round"/></svg>