<svg width="24" height="24" viewBox="0 0 89 120" xmlns="http://www.w3.org/2000/svg" stroke-width="1px" stroke-linecap="round" stroke-linejoin="round">
    <path d="M57.3696 39.54L31.0996 24.37L24.4497 20.53L11.0198 12.77L2.34961 36.19V72.74L12.9597 78.87V70.75L20.4998 75.1L35.3396 83.67L38.6697 85.59L41.9597 87.49L55.4297 95.26V103.38L57.7297 104.71L66.0398 109.51V72.97L57.3696 39.54ZM22.3496 61.8C22.2496 61.88 22.1398 61.95 22.0298 62.02C20.9998 62.61 19.7498 62.48 18.2698 61.63C16.7998 60.78 15.5398 59.46 14.5098 57.68C13.4798 55.9 12.9597 54.16 12.9597 52.47C12.9597 50.78 13.4798 49.64 14.5098 49.05C15.5398 48.46 16.7998 48.6 18.2698 49.45C19.7498 50.3 20.9998 51.61 22.0298 53.39C22.1498 53.59 22.2496 53.79 22.3496 53.99C23.1696 55.56 23.5798 57.1 23.5798 58.6C23.5798 60.1 23.1696 61.17 22.3496 61.8ZM53.8796 80.41C52.8496 81 51.5896 80.87 50.1196 80.02C48.6496 79.16 47.3896 77.85 46.3596 76.07C45.3296 74.29 44.8098 72.55 44.8098 70.86C44.8098 69.64 45.0796 68.71 45.6296 68.06C45.8296 67.81 46.0696 67.6 46.3596 67.44C47.3896 66.85 48.6496 66.98 50.1196 67.83C51.5896 68.68 52.8496 70 53.8796 71.78C54.1596 72.27 54.4096 72.76 54.6096 73.25C55.1596 74.52 55.4297 75.77 55.4297 76.99C55.4297 78.68 54.9096 79.82 53.8796 80.41ZM42.7598 51.4L33.7798 46.22L22.3496 39.62L12.2598 33.79L15.9697 23.76L22.3496 27.44L23.5598 28.14L52.4197 44.8L56.1396 59.13L42.7598 51.4Z" class="pr-icon-iso-solid-stroke" stroke-linejoin="round"/>
    <path d="M51.8899 117.58L45.27 113.76L37.73 109.41V117.53L16.5 93.0901L30.6599 101.26V93.1401L47.5701 112.61L51.8899 117.58Z" class="pr-icon-iso-solid-stroke" stroke-linejoin="round"/>
    <path d="M23.5598 28.14L22.3496 28.75L12.2598 33.79L15.9697 23.76L22.3496 27.44L23.5598 28.14Z" class="pr-icon-iso-solid-stroke" stroke-linejoin="round"/>
    <path d="M55.4294 76.99C55.4294 78.68 54.9094 79.82 53.8794 80.41C52.8494 81 51.5894 80.87 50.1194 80.02C48.6494 79.16 47.3894 77.85 46.3594 76.07C45.3294 74.29 44.8096 72.55 44.8096 70.86C44.8096 69.64 45.0794 68.71 45.6294 68.06C45.8294 67.81 46.0694 67.6 46.3594 67.44C47.3894 66.85 48.6494 66.98 50.1194 67.83C51.5894 68.68 52.8494 70 53.8794 71.78C54.1594 72.27 54.4094 72.76 54.6094 73.25C55.1594 74.52 55.4294 75.77 55.4294 76.99Z" class="pr-icon-iso-solid-stroke" stroke-linejoin="round"/>
    <path d="M23.5801 58.5999C23.5801 60.0999 23.1699 61.1699 22.3499 61.7999C22.2499 61.8799 22.14 61.9499 22.03 62.0199C21 62.6099 19.75 62.4799 18.27 61.6299C16.8 60.7799 15.54 59.4599 14.51 57.6799C13.48 55.8999 12.96 54.1599 12.96 52.4699C12.96 50.7799 13.48 49.6399 14.51 49.0499C15.54 48.4599 16.8 48.5999 18.27 49.4499C19.75 50.2999 21 51.6099 22.03 53.3899C22.15 53.5899 22.2499 53.7899 22.3499 53.9899C23.1699 55.5599 23.5801 57.0999 23.5801 58.5999Z" class="pr-icon-iso-solid-stroke" stroke-linejoin="round"/>
    <path d="M71.8901 107.58L51.8901 117.58L47.5703 112.61L30.6602 93.14L40.8203 88.06L41.9602 87.49L55.4302 95.26V103.38L57.7302 104.71L66.0403 109.51L70.9702 107.05L71.2903 106.89L71.8901 107.58Z" class="pr-icon-iso-solid-stroke" stroke-linejoin="round"/>
    <path d="M86.04 62.97V99.5099L71.29 106.89L70.97 107.05L66.04 109.51V72.97L86.04 62.97Z" class="pr-icon-iso-solid-stroke" stroke-linejoin="round"/>
    <path d="M86.0393 62.9701L66.0393 72.9701L57.3691 39.54L58.5293 38.9601L69.8293 33.3101L77.3691 29.54L86.0393 62.9701Z" class="pr-icon-iso-solid-stroke" stroke-linejoin="round"/>
    <path d="M77.3694 29.54L69.8296 33.31L58.5295 38.96L57.3694 39.54L31.0994 24.37L24.4495 20.53L11.0195 12.77L31.0195 2.77002L77.3694 29.54Z" class="pr-icon-iso-solid-stroke" stroke-linejoin="round"/>
    <path d="M45.2695 113.76L37.7295 117.53V109.41L45.2695 113.76Z" class="pr-icon-iso-solid-stroke" stroke-linejoin="round"/>
    <path d="M41.96 87.4899L40.8201 88.0599L30.6599 93.14V101.26L16.5 93.09L35.3398 83.6699L38.6699 85.59L41.96 87.4899Z" class="pr-icon-iso-solid-stroke" stroke-linejoin="round"/>
    <path d="M20.5 75.1L12.96 78.87V70.75L20.5 75.1Z" class="pr-icon-iso-solid-stroke" stroke-linejoin="round"/>
    <path d="M56.1396 59.1301L42.7598 51.4001L33.7798 46.2202L22.3496 39.6201L12.2598 33.7901L22.3496 28.7501L23.5598 28.1401L52.4197 44.8001L56.1396 59.1301Z" class="pr-icon-iso-solid-stroke" stroke-linejoin="round"/>
</svg>