<svg width="48" height="48" viewBox="0 0 103 124" fill="#229EFF" xmlns="http://www.w3.org/2000/svg" stroke-width="1px" stroke-linecap="round" stroke-linejoin="round"><path d="M78.3 99.2776L76.6499 77.5176L76.4399 74.7976C76.0299 69.6776 74.9299 64.4576 73.1099 59.1276C73.1199 59.1076 73.1099 59.0976 73.0999 59.0776C72.9899 58.7176 72.87 58.3676 72.74 58.0176C71.6 54.8076 70.28 51.6876 68.78 48.6576C67.61 46.2876 66.34 43.9776 64.95 41.7176C62.55 37.8176 59.89 34.1776 56.96 30.7876C56.02 29.6976 55.05 28.6376 54.05 27.5976C49.96 23.3376 45.62 19.8776 41.01 17.2176C36.63 14.6976 32.4901 13.1576 28.5801 12.6176C28.3701 12.5876 28.17 12.5576 27.97 12.5376C23.87 12.0676 20.2401 12.5876 17.0701 14.0776C13.9001 15.5776 11.3 18.0076 9.27002 21.3776C7.24002 24.7376 6.01007 28.9076 5.57007 33.8776L2 76.7676L80.02 121.818L78.3101 99.2776H78.3ZM66.1899 76.8276C65.0799 81.1976 62.83 84.3576 59.45 86.3076C58.8 86.6776 58.14 86.9976 57.45 87.2476C52.81 88.9876 47.33 88.0276 41 84.3676C34.71 80.7376 29.2498 75.3676 24.5898 68.2676C23.8998 67.2276 23.2398 66.1476 22.5898 65.0276C22.4498 64.7876 22.3199 64.5576 22.1899 64.3176C17.3799 55.8276 14.99 47.5576 14.99 39.5076C14.99 37.5876 15.1299 35.8076 15.3999 34.1976C15.6699 32.5776 16.1 31.1076 16.7 29.7676C18.16 31.6776 19.7101 33.3776 21.3301 34.8676C22.3501 35.8076 23.3899 36.6476 24.4399 37.3876C25.0799 37.8276 25.7199 38.2376 26.3699 38.6176C29.2999 40.3076 32.0499 41.1376 34.6199 41.0976C35.2899 41.0976 35.94 41.0176 36.55 40.8776C38.28 40.5076 39.76 39.6476 41 38.2976C41.37 39.1276 41.7599 39.9376 42.1799 40.7376C43.6399 43.5476 45.3799 46.1176 47.3799 48.4676C47.8899 49.0676 48.42 49.6476 48.95 50.1976C50.93 52.2576 53.0099 53.9376 55.1899 55.2476C55.3299 55.3476 55.4799 55.4276 55.6299 55.5176C57.3599 56.5176 59.0399 57.2076 60.6699 57.5876C62.2899 57.9576 63.84 58.0476 65.3 57.8276C65.77 59.4176 66.1299 60.9676 66.3999 62.4876C66.4799 62.9176 66.5399 63.3376 66.5999 63.7576C66.8699 65.6876 67.01 67.6176 67.01 69.5476C67.01 72.2576 66.7399 74.6876 66.1899 76.8276Z" stroke="white" stroke-linejoin="round"/><path d="M35.3101 54.9776C35.3101 55.1376 35.3 55.2976 35.29 55.4476C35.28 55.5376 35.27 55.6276 35.26 55.7176V55.7376C35.26 55.8076 35.24 55.8876 35.22 55.9476C35.21 56.0276 35.1899 56.0976 35.1699 56.1576C35.1399 56.2876 35.1 56.4076 35.05 56.5276C35.02 56.5976 34.99 56.6676 34.95 56.7376C34.94 56.7576 34.9299 56.7776 34.9199 56.7976C34.8899 56.8676 34.85 56.9276 34.8 56.9876C34.76 57.0576 34.6999 57.1276 34.6499 57.1876C34.5699 57.2776 34.4899 57.3476 34.4099 57.4176C34.3199 57.4876 34.2299 57.5476 34.1299 57.6076C34.0599 57.6476 33.9799 57.6876 33.8999 57.7176C33.8699 57.7176 33.8501 57.7376 33.8201 57.7476C33.7601 57.7776 33.6999 57.7976 33.6399 57.8076C33.5799 57.8276 33.52 57.8376 33.46 57.8476C33.08 57.9176 32.66 57.8776 32.22 57.7376H32.21C32.13 57.7076 32.05 57.6776 31.98 57.6476C31.83 57.5976 31.67 57.5276 31.5 57.4276C31.46 57.4176 31.4199 57.3976 31.3799 57.3676C31.3299 57.3376 31.29 57.3176 31.25 57.2876C30.96 57.1276 30.6899 56.9376 30.4299 56.7376C30.2299 56.5776 30.0399 56.4076 29.8599 56.2276C29.6699 56.0476 29.5001 55.8576 29.3201 55.6576C29.2401 55.5476 29.1501 55.4376 29.0701 55.3376C28.9801 55.2276 28.9001 55.1176 28.8201 54.9976C28.6601 54.7676 28.5099 54.5276 28.3599 54.2776C27.5799 52.9176 27.1799 51.5876 27.1799 50.2776C27.1799 50.1176 27.19 49.9676 27.2 49.8176C27.21 49.6976 27.22 49.5876 27.24 49.4776C27.25 49.4276 27.25 49.3876 27.26 49.3476C27.29 49.2276 27.3099 49.1176 27.3499 49.0076C27.3899 48.8776 27.43 48.7576 27.48 48.6576C27.51 48.5876 27.5401 48.5276 27.5801 48.4676C27.6101 48.4076 27.6399 48.3476 27.6799 48.2976C27.7299 48.2176 27.7899 48.1476 27.8499 48.0776C27.9199 47.9976 28.0001 47.9176 28.0801 47.8476C28.1601 47.7776 28.2599 47.7076 28.3599 47.6476L28.5999 47.5276C28.7299 47.4776 28.86 47.4376 28.99 47.4276C29.12 47.3976 29.2399 47.3876 29.3699 47.3876H29.3999C29.5399 47.3876 29.6801 47.3976 29.8301 47.4276H29.8499C29.9899 47.4576 30.13 47.4876 30.28 47.5376C30.43 47.5876 30.59 47.6476 30.75 47.7176C30.91 47.7976 31.08 47.8776 31.25 47.9776C31.39 48.0576 31.5299 48.1476 31.6699 48.2376C31.8099 48.3276 31.9401 48.4176 32.0701 48.5276C32.3401 48.7376 32.5801 48.9676 32.8201 49.2176C33.0601 49.4676 33.29 49.7476 33.51 50.0376C33.73 50.3276 33.9399 50.6376 34.1299 50.9776C34.9199 52.3376 35.3101 53.6676 35.3101 54.9776Z" stroke="white" stroke-linejoin="round"/><path d="M66.1899 76.8276C65.0799 81.1976 62.83 84.3576 59.45 86.3076C58.8 86.6776 58.14 86.9976 57.45 87.2476C52.81 88.9876 47.33 88.0276 41 84.3676C34.71 80.7376 29.2498 75.3676 24.5898 68.2676C23.8998 67.2276 23.2398 66.1476 22.5898 65.0276C22.4498 64.7876 22.3199 64.5576 22.1899 64.3176C17.3799 55.8276 14.99 47.5576 14.99 39.5076C14.99 37.5876 15.1299 35.8076 15.3999 34.1976C15.6699 32.5776 16.1 31.1076 16.7 29.7676C18.16 31.6776 19.7101 33.3776 21.3301 34.8676C22.3501 35.8076 23.3899 36.6476 24.4399 37.3876C25.0799 37.8276 25.7199 38.2376 26.3699 38.6176C29.2999 40.3076 32.0499 41.1376 34.6199 41.0976C35.2899 41.0976 35.94 41.0176 36.55 40.8776C36.75 41.6576 36.98 42.4276 37.25 43.2076L28.5999 47.5276L28.3599 47.6476C28.2599 47.7076 28.1601 47.7776 28.0801 47.8476C27.9901 47.9176 27.9199 47.9976 27.8499 48.0776C27.7899 48.1476 27.7299 48.2176 27.6799 48.2976C27.6399 48.3476 27.6001 48.4076 27.5801 48.4676C27.5401 48.5276 27.51 48.5876 27.48 48.6576C27.43 48.7576 27.3899 48.8776 27.3499 48.9976C27.3099 49.1176 27.29 49.2276 27.26 49.3476C27.26 49.3876 27.26 49.4276 27.24 49.4776C27.22 49.5876 27.21 49.6976 27.2 49.8176C27.19 49.9676 27.1799 50.1176 27.1799 50.2776C27.1799 51.5876 27.5799 52.9176 28.3599 54.2676C28.5099 54.5276 28.6601 54.7676 28.8201 54.9976C28.9001 55.1176 28.9801 55.2276 29.0701 55.3376C29.1501 55.4376 29.2401 55.5476 29.3201 55.6476C29.5001 55.8576 29.6699 56.0476 29.8599 56.2276C30.0399 56.4076 30.2299 56.5776 30.4299 56.7376C30.6899 56.9376 30.96 57.1276 31.25 57.2876C31.29 57.3176 31.3299 57.3376 31.3799 57.3676C31.4199 57.3976 31.46 57.4176 31.5 57.4276C31.67 57.5276 31.83 57.5976 31.98 57.6476C32.05 57.6776 32.13 57.7076 32.21 57.7376H32.22C32.66 57.8776 33.08 57.9176 33.46 57.8476C33.52 57.8476 33.5799 57.8276 33.6399 57.8076C33.6999 57.7976 33.7601 57.7776 33.8201 57.7476C33.8501 57.7376 33.8699 57.7276 33.8999 57.7176C33.9799 57.6876 34.0599 57.6476 34.1299 57.6076L41.8699 53.7376C42.0999 54.1676 42.3398 54.5976 42.5898 55.0276C43.8798 57.2676 45.2499 59.3476 46.6899 61.2776V61.7376C46.6799 61.7976 46.69 61.8576 46.7 61.9176C46.7 62.0376 46.71 62.1676 46.73 62.2876C46.74 62.4076 46.75 62.5276 46.78 62.6576C46.8 62.7776 46.8199 62.8976 46.8499 63.0276C46.8899 63.1876 46.93 63.3576 46.98 63.5176C47.08 63.8576 47.1999 64.1976 47.3499 64.5276C47.4299 64.6876 47.5098 64.8576 47.5898 65.0276C47.6798 65.1976 47.7699 65.3676 47.8699 65.5376C47.9699 65.7076 48.0699 65.8676 48.1699 66.0276C48.2499 66.1476 48.3299 66.2676 48.4099 66.3776C48.4899 66.4976 48.5699 66.6076 48.6599 66.7076C48.7099 66.7776 48.7701 66.8476 48.8301 66.9176C48.9401 67.0576 49.0599 67.1876 49.1799 67.3076C49.4199 67.5576 49.6699 67.7876 49.9299 67.9976C50.1999 68.1976 50.47 68.3876 50.75 68.5476C50.82 68.5876 50.8799 68.6176 50.9399 68.6576C50.9999 68.6976 51.0599 68.7176 51.1199 68.7476C51.2499 68.8176 51.37 68.8676 51.48 68.9076C51.59 68.9576 51.7 68.9876 51.8 69.0176C51.92 69.0476 52.0399 69.0776 52.1599 69.0976C52.2899 69.1276 52.42 69.1376 52.54 69.1376H52.6799C52.7499 69.1376 52.8199 69.1276 52.8799 69.1176C52.9499 69.1076 53.0201 69.0976 53.0801 69.0776C53.2401 69.0476 53.39 68.9876 53.54 68.9076H53.5601C55.9001 71.0376 58.38 72.8576 61 74.3676C62.8 75.4076 64.5299 76.2276 66.1899 76.8276Z" stroke="white" stroke-linejoin="round"/><path d="M54.8 66.6776C54.81 66.5376 54.8201 66.3876 54.8201 66.2376C54.8201 65.9176 54.8 65.5876 54.74 65.2576C54.69 64.9276 54.61 64.5976 54.52 64.2676C54.42 63.9276 54.2999 63.5876 54.1499 63.2576C54.0799 63.0876 53.9999 62.9176 53.9099 62.7576C53.8199 62.5876 53.7299 62.4176 53.6299 62.2476C53.5299 62.0776 53.4301 61.9176 53.3301 61.7576C53.2301 61.5976 53.12 61.4476 53.01 61.2976C52.91 61.1576 52.7999 61.0176 52.6799 60.8776C52.5599 60.7276 52.4401 60.5976 52.3201 60.4776C52.0801 60.2176 51.8301 59.9876 51.5701 59.7876C51.4401 59.6776 51.3099 59.5876 51.1699 59.4976C51.0299 59.4076 50.89 59.3176 50.75 59.2376C49.9 58.7476 49.15 58.5676 48.49 58.6876C48.42 58.6976 48.36 58.7076 48.3 58.7276C48.24 58.7376 48.1799 58.7576 48.1099 58.7876L55.1899 55.2476C55.3299 55.3476 55.4799 55.4276 55.6299 55.5176C57.3599 56.5176 59.0399 57.2076 60.6699 57.5876C62.2899 57.9576 63.84 58.0476 65.3 57.8276C65.77 59.4176 66.1299 60.9676 66.3999 62.4876L53.71 68.8176C53.78 68.7776 53.8499 68.7276 53.9099 68.6776C53.9999 68.6076 54.0799 68.5376 54.1499 68.4476C54.2199 68.3776 54.2701 68.2976 54.3201 68.2176C54.3501 68.1776 54.3699 68.1476 54.3999 68.1076C54.4199 68.0576 54.44 68.0176 54.47 67.9676C54.5 67.9076 54.53 67.8576 54.55 67.7876C54.59 67.7076 54.6199 67.6176 54.6399 67.5276C54.6799 67.3976 54.71 67.2676 54.74 67.1276C54.74 67.1076 54.75 67.0976 54.75 67.0776C54.77 66.9576 54.78 66.8176 54.8 66.6776Z" stroke="white" stroke-linejoin="round"/><path d="M48.95 50.1976L34.1299 57.6076C34.2299 57.5476 34.3199 57.4876 34.4099 57.4176C34.4899 57.3476 34.5699 57.2776 34.6499 57.1876C34.6999 57.1276 34.76 57.0576 34.8 56.9876C34.85 56.9276 34.8899 56.8676 34.9199 56.7976C34.9299 56.7776 34.94 56.7576 34.95 56.7376C34.99 56.6676 35.02 56.5976 35.05 56.5276C35.1 56.4076 35.1399 56.2876 35.1699 56.1576C35.1899 56.0976 35.21 56.0276 35.22 55.9576C35.24 55.8876 35.25 55.8076 35.26 55.7376V55.7176C35.27 55.6276 35.28 55.5376 35.29 55.4476C35.29 55.2976 35.3101 55.1376 35.3101 54.9776C35.3101 53.6676 34.9199 52.3376 34.1299 50.9776C33.9399 50.6376 33.73 50.3276 33.51 50.0376C33.3 49.7376 33.0601 49.4676 32.8201 49.2176C32.5801 48.9676 32.3401 48.7376 32.0701 48.5276C31.9401 48.4176 31.8099 48.3276 31.6699 48.2376C31.5299 48.1476 31.39 48.0576 31.25 47.9776C31.08 47.8776 30.91 47.7976 30.75 47.7176C30.59 47.6476 30.43 47.5876 30.28 47.5376C30.13 47.4876 29.9899 47.4576 29.8499 47.4276H29.8301C29.6801 47.3976 29.5399 47.3876 29.3999 47.3876H29.3699C29.2399 47.3876 29.12 47.3976 28.99 47.4276C28.86 47.4376 28.7299 47.4776 28.5999 47.5276L37.25 43.2076L42.1799 40.7376C43.6399 43.5476 45.3799 46.1176 47.3799 48.4676C47.8899 49.0676 48.42 49.6476 48.95 50.1976Z" stroke="white" stroke-linejoin="round"/><path d="M54.8201 66.2376C54.8201 66.3876 54.82 66.5376 54.8 66.6776C54.78 66.8176 54.77 66.9576 54.75 67.0776C54.75 67.0976 54.74 67.1076 54.74 67.1276C54.71 67.2676 54.6799 67.3976 54.6399 67.5276C54.6199 67.6176 54.59 67.7076 54.55 67.7876C54.53 67.8576 54.5 67.9076 54.47 67.9676C54.44 68.0176 54.4199 68.0576 54.3999 68.1076C54.3699 68.1476 54.3501 68.1776 54.3201 68.2176C54.2701 68.2976 54.2199 68.3776 54.1499 68.4476C54.0799 68.5376 53.9999 68.6076 53.9099 68.6776C53.8499 68.7276 53.78 68.7776 53.71 68.8176L53.6599 68.8476L53.6299 68.8676L53.56 68.9076H53.54C53.39 68.9876 53.2401 69.0476 53.0801 69.0776C53.0201 69.0976 52.9499 69.1076 52.8799 69.1176C52.8199 69.1276 52.7499 69.1376 52.6799 69.1376H52.54C52.42 69.1376 52.2899 69.1276 52.1599 69.0976C52.0399 69.0776 51.92 69.0476 51.8 69.0176C51.7 68.9876 51.59 68.9576 51.48 68.9076C51.37 68.8676 51.2499 68.8176 51.1199 68.7476C51.0599 68.7176 50.9999 68.6976 50.9399 68.6576C50.8799 68.6176 50.82 68.5876 50.75 68.5476C50.47 68.3876 50.1999 68.1976 49.9299 67.9976C49.6699 67.7876 49.4199 67.5576 49.1799 67.3076C49.0599 67.1876 48.9401 67.0576 48.8301 66.9176C48.7701 66.8476 48.7099 66.7776 48.6599 66.7076C48.5699 66.6076 48.4899 66.4976 48.4099 66.3776C48.3299 66.2676 48.2499 66.1476 48.1699 66.0276C48.0699 65.8676 47.9699 65.7076 47.8699 65.5376C47.7699 65.3676 47.6798 65.1976 47.5898 65.0276C47.5098 64.8576 47.4298 64.6876 47.3498 64.5276C47.1998 64.1976 47.08 63.8576 46.98 63.5276C46.93 63.3576 46.8898 63.1876 46.8498 63.0276C46.8198 62.8976 46.8 62.7776 46.78 62.6576C46.75 62.5276 46.74 62.4076 46.73 62.2876C46.71 62.1676 46.6999 62.0376 46.6999 61.9176C46.6899 61.8576 46.6799 61.7976 46.6899 61.7376V61.5476C46.6899 61.4576 46.6899 61.3776 46.6999 61.2976C46.6999 61.2176 46.7 61.1476 46.71 61.0776C46.72 60.9276 46.74 60.7876 46.76 60.6576V60.6376C46.76 60.6376 46.77 60.6076 46.77 60.5976C46.77 60.5376 46.79 60.4876 46.81 60.4376C46.81 60.3776 46.8399 60.3176 46.8599 60.2576C46.8799 60.1576 46.9099 60.0776 46.9499 59.9876C46.9799 59.9176 47.01 59.8376 47.05 59.7776C47.08 59.6976 47.1299 59.6276 47.1699 59.5676C47.1799 59.5476 47.19 59.5276 47.21 59.5176C47.25 59.4476 47.3099 59.3776 47.3699 59.3076C47.5099 59.1476 47.6799 59.0176 47.8699 58.9076L48.1099 58.7876C48.1799 58.7576 48.24 58.7376 48.3 58.7276C48.36 58.7076 48.42 58.6976 48.49 58.6876C49.15 58.5676 49.9 58.7476 50.75 59.2376C50.89 59.3176 51.0299 59.4076 51.1699 59.4976C51.3099 59.5876 51.4401 59.6776 51.5701 59.7876C51.8301 59.9876 52.0801 60.2176 52.3201 60.4776C52.4401 60.5976 52.5599 60.7276 52.6799 60.8676C52.7999 61.0176 52.91 61.1576 53.01 61.2976C53.12 61.4476 53.2301 61.5976 53.3301 61.7576C53.4301 61.9176 53.5299 62.0776 53.6299 62.2476C53.7299 62.4176 53.8199 62.5876 53.9099 62.7576C53.9999 62.9176 54.0799 63.0876 54.1499 63.2576C54.2999 63.5876 54.42 63.9276 54.52 64.2576C54.61 64.5976 54.69 64.9276 54.74 65.2576C54.8 65.5876 54.8201 65.9176 54.8201 66.2376Z" stroke="white" stroke-linejoin="round"/><path d="M100.01 111.818L80.01 121.818L78.3 99.2776L76.6499 77.5176L76.4399 74.7976C76.0299 69.6776 74.9299 64.4576 73.1099 59.1276C73.1199 59.1076 73.1099 59.0976 73.0999 59.0776C72.9899 58.7176 72.87 58.3676 72.74 58.0176C71.6 54.8076 70.28 51.6876 68.78 48.6576C67.61 46.2876 66.34 43.9776 64.95 41.7176C62.55 37.8176 59.89 34.1776 56.96 30.7876C56.02 29.6976 55.05 28.6376 54.05 27.5976C49.96 23.3376 45.62 19.8776 41.01 17.2176C36.63 14.6976 32.4901 13.1576 28.5801 12.6176C28.3701 12.5876 28.17 12.5576 27.97 12.5376C23.87 12.0676 20.2401 12.5876 17.0701 14.0776L36.3999 4.41761L37.0701 4.07761C40.2401 2.58761 43.87 2.06761 47.97 2.53761C52.06 2.99761 56.4 4.56761 61.01 7.21761C65.62 9.87761 69.96 13.3376 74.05 17.5976C78.15 21.8576 81.78 26.5676 84.95 31.7176C88.12 36.8776 90.72 42.3076 92.75 48.0176C94.78 53.7376 96.01 59.3276 96.45 64.7976L100.02 111.818H100.01Z" stroke="white" stroke-linejoin="round"/></svg>