<svg width="48" height="48" viewBox="0 0 68 121" fill="#229EFF" xmlns="http://www.w3.org/2000/svg" stroke-width="1px" stroke-linecap="round" stroke-linejoin="round"><path d="M33.1198 29.6738C33.1198 30.8738 32.9697 31.9239 32.6697 32.8139C32.6697 32.8139 32.6597 32.8438 32.6597 32.8538C32.2197 34.1638 31.4497 35.1339 30.3497 35.7539C29.1197 36.4539 27.7197 36.5939 26.1597 36.1539C26.1297 36.1439 26.0997 36.1339 26.0697 36.1239H26.0597C25.2997 35.9139 24.4997 35.5638 23.6497 35.0738C21.0297 33.5638 18.7997 31.2138 16.9497 28.0238C15.0997 24.8338 14.1797 21.7338 14.1797 18.7338C14.1797 15.7338 15.0997 13.7039 16.9497 12.6539L17.5297 12.3638C19.2597 11.6538 21.2997 11.9838 23.6497 13.3338C26.2597 14.8438 28.4997 17.1939 30.3497 20.3839C32.1997 23.5739 33.1198 26.6738 33.1198 29.6738Z" stroke="white" stroke-linejoin="round"/><path d="M45.2999 100.364L34.47 94.114V118.964L12.8199 106.464V81.614L2 75.364L14.85 43.1941C15.43 41.8741 16.2799 40.964 17.3999 40.454C17.6799 40.324 17.9799 40.224 18.2999 40.144C19.8799 39.754 21.6599 40.144 23.6499 41.284C25.6299 42.434 27.41 44.104 28.99 46.314C29.13 46.504 29.26 46.6941 29.38 46.8841C30.76 48.9141 31.7799 51.074 32.4399 53.354L45.2999 100.364Z" stroke="white" stroke-linejoin="round"/><path d="M54.4697 95.784V108.964L34.4697 118.964V94.114L45.2997 100.364L54.4697 95.784Z" stroke="white" stroke-linejoin="round"/><path d="M65.2999 90.3639L54.47 95.7839L45.2999 100.364L32.4399 53.3539C31.7799 51.0739 30.76 48.9139 29.38 46.8839C29.26 46.6939 29.13 46.5039 28.99 46.3139C27.41 44.1039 25.6299 42.4339 23.6499 41.2839C21.6599 40.1439 19.8799 39.7539 18.2999 40.1439C17.9799 40.2239 17.6799 40.3239 17.3999 40.4539L26.0599 36.1239H26.0699C26.0699 36.1239 26.1299 36.1439 26.1599 36.1539C27.7199 36.5939 29.12 36.4539 30.35 35.7539L34.7 33.5839L41.3199 30.2739C42.0599 30.4839 42.8399 30.8239 43.6499 31.2839C45.6299 32.4339 47.41 34.1039 48.99 36.3139C50.57 38.5139 51.7199 40.8639 52.4399 43.3539L65.2999 90.3639Z" stroke="white" stroke-linejoin="round"/><path d="M53.1199 19.6739C53.1199 22.6739 52.1999 24.704 50.3499 25.754L49.7698 26.0439L41.3198 30.2739L34.6998 33.5839L30.3499 35.754C31.4499 35.134 32.2198 34.1639 32.6598 32.8539C32.6598 32.8439 32.6698 32.824 32.6698 32.814C32.9698 31.924 33.1199 30.8739 33.1199 29.6739C33.1199 26.6739 32.1999 23.574 30.3499 20.384C28.4999 17.194 26.2598 14.8439 23.6498 13.3339C21.2998 11.9839 19.2598 11.6539 17.5298 12.3639L36.9498 2.65395C38.7998 1.59395 41.0298 1.82395 43.6498 3.33395C46.2598 4.84395 48.4999 7.19396 50.3499 10.384C52.1999 13.574 53.1199 16.6739 53.1199 19.6739Z" stroke="white" stroke-linejoin="round"/></svg>