<svg width="48" height="48" viewBox="0 0 100 111" xmlns="http://www.w3.org/2000/svg" stroke-width="1px"
     stroke-linecap="round" stroke-linejoin="round">
    <path d="M76.4399 73.46C76.1699 71.66 75.8201 69.84 75.3801 68C75.0301 66.48 74.6101 64.95 74.1301 63.41C72.1601 57.03 69.4801 50.92 66.1001 45.1C62.7201 39.27 58.7499 33.9 54.1799 29.01C49.6099 24.11 44.73 20.16 39.54 17.16C34.62 14.32 29.9801 12.65 25.6201 12.17C25.3801 12.14 25.1401 12.12 24.9001 12.1C21.0101 11.78 17.56 12.29 14.54 13.64L12.98 14.42C9.59998 16.35 6.91995 19.37 4.94995 23.47C2.97995 27.57 2 32.6 2 38.56C2 44.52 2.97995 50.69 4.94995 57.07C6.91995 63.45 9.59998 69.56 12.98 75.38C16.36 81.21 20.3301 86.58 24.9001 91.47C29.4701 96.37 34.35 100.32 39.54 103.32C44.73 106.32 49.6099 108.01 54.1799 108.38C58.7499 108.76 62.7201 107.98 66.1001 106.06C69.1101 104.34 71.57 101.75 73.46 98.31C73.69 97.89 73.9101 97.46 74.1301 97.01C76.1001 92.91 77.0801 87.88 77.0801 81.92C77.0801 79.15 76.8699 76.33 76.4399 73.46ZM47.1401 52.68C47.3201 51.5 47.8499 50.66 48.6899 50.18C49.7899 49.55 51.1199 49.69 52.6799 50.59C54.2399 51.5 55.5699 52.89 56.6699 54.78C57.7599 56.67 58.3101 58.51 58.3101 60.31C58.3101 62.11 57.7599 63.31 56.6699 63.94C56.2499 64.18 55.79 64.3 55.3 64.32C54.52 64.34 53.6399 64.07 52.6799 63.52C51.1199 62.62 49.7899 61.22 48.6899 59.33C47.5999 57.44 47.05 55.6 47.05 53.8C47.05 53.4 47.0801 53.02 47.1401 52.68ZM22.3801 35.02C22.3801 35.02 22.3999 35.01 22.4099 35C23.5099 34.38 24.8401 34.52 26.4001 35.42C27.9601 36.32 29.2901 37.72 30.3901 39.61C31.4801 41.5 32.03 43.34 32.03 45.13C32.03 46.92 31.4801 48.14 30.3901 48.76C29.2901 49.39 27.9601 49.25 26.4001 48.35C25.9301 48.08 25.48 47.76 25.05 47.39C24.06 46.56 23.1799 45.48 22.4099 44.16C21.3199 42.27 20.77 40.43 20.77 38.63C20.77 36.83 21.3101 35.65 22.3801 35.02ZM51.1301 86.48C50.8301 86.55 50.54 86.6 50.23 86.64C47 87.08 43.44 86.18 39.54 83.93C35.29 81.48 31.42 77.86 27.95 73.1C24.48 68.33 21.9601 63.23 20.3901 57.8L26.5901 61.38C27.9601 64.83 29.7901 67.99 32.0801 70.85C34.3601 73.71 36.85 75.92 39.54 77.47C40.58 78.07 41.5901 78.54 42.5701 78.87C44.1301 79.41 45.6 79.6 47 79.46C49.29 79.24 51.12 78.2 52.49 76.33L58.6899 79.91C57.1199 83.53 54.6001 85.72 51.1301 86.48Z" class="pr-icon-iso-solid-stroke" stroke-linejoin="round"/>
    <path d="M58.6899 79.91C57.1199 83.53 54.6001 85.72 51.1301 86.48C50.8301 86.55 50.54 86.6 50.23 86.64C47 87.08 43.44 86.18 39.54 83.93C35.29 81.48 31.42 77.86 27.95 73.1C24.48 68.33 21.9601 63.23 20.3901 57.8L26.5901 61.38C27.9601 64.83 29.7901 67.99 32.0801 70.85C34.3601 73.71 36.85 75.92 39.54 77.47C40.58 78.07 41.5901 78.54 42.5701 78.87C44.1301 79.41 45.6 79.6 47 79.46C49.29 79.24 51.12 78.2 52.49 76.33L58.6899 79.91Z" class="pr-icon-iso-solid-stroke" stroke-linejoin="round"/>
    <path d="M58.3101 60.31C58.3101 62.1 57.7599 63.31 56.6699 63.94C56.2499 64.18 55.79 64.3 55.3 64.32C54.52 64.34 53.6399 64.07 52.6799 63.52C51.1199 62.62 49.7899 61.22 48.6899 59.33C47.5999 57.44 47.05 55.6 47.05 53.8C47.05 53.4 47.0801 53.02 47.1401 52.68C47.3201 51.5 47.8499 50.66 48.6899 50.18C49.7899 49.55 51.1199 49.69 52.6799 50.59C54.2399 51.5 55.5699 52.89 56.6699 54.78C57.7599 56.67 58.3101 58.51 58.3101 60.31Z" class="pr-icon-iso-solid-stroke" stroke-linejoin="round"/>
    <path d="M32.03 45.13C32.03 46.93 31.4801 48.14 30.3901 48.76C29.2901 49.39 27.9601 49.25 26.4001 48.35C25.9301 48.08 25.48 47.76 25.05 47.39C24.06 46.56 23.1799 45.48 22.4099 44.16C21.3199 42.27 20.77 40.43 20.77 38.63C20.77 36.83 21.3101 35.65 22.3801 35.02C22.3901 35.01 22.3999 35.01 22.4099 35C23.5099 34.38 24.8401 34.52 26.4001 35.42C27.9601 36.32 29.2901 37.72 30.3901 39.61C31.4801 41.5 32.03 43.34 32.03 45.13Z" class="pr-icon-iso-solid-stroke" stroke-linejoin="round"/>
    <path d="M97.0801 71.92C97.0801 77.88 96.1001 82.91 94.1301 87.01C92.1601 91.11 89.4801 94.13 86.1001 96.06L84.54 96.84L66.1001 106.06C69.1101 104.34 71.57 101.75 73.46 98.31C73.69 97.89 73.9101 97.46 74.1301 97.01C76.1001 92.91 77.0801 87.88 77.0801 81.92C77.0801 79.15 76.8699 76.33 76.4399 73.46C76.1699 71.66 75.8201 69.84 75.3801 68C75.0301 66.48 74.6101 64.95 74.1301 63.41C72.1601 57.03 69.4801 50.92 66.1001 45.1C62.7201 39.27 58.7499 33.9 54.1799 29.01C49.6099 24.11 44.73 20.16 39.54 17.16C34.62 14.32 29.9801 12.65 25.6201 12.17C25.3801 12.14 25.1401 12.12 24.9001 12.1C21.0101 11.78 17.56 12.29 14.54 13.64L32.98 4.41997C36.36 2.49997 40.3301 1.71998 44.9001 2.09998C49.4701 2.46998 54.35 4.15998 59.54 7.15998C64.73 10.16 69.6099 14.11 74.1799 19.01C78.7499 23.9 82.7201 29.27 86.1001 35.1C89.4801 40.92 92.1601 47.03 94.1301 53.41C96.1001 59.79 97.0801 65.96 97.0801 71.92Z" class="pr-icon-iso-solid-stroke" stroke-linejoin="round"/>
</svg>