<svg width="48" height="48" viewBox="0 0 89 117" fill="#229EFF" xmlns="http://www.w3.org/2000/svg" stroke-width="1px" stroke-linecap="round" stroke-linejoin="round"><path d="M84.4251 102.13L79.9551 104.68L59.9551 114.68L64.4251 112.13L79.8151 104.44L84.4251 102.13Z" stroke="white" stroke-linejoin="round"/><path d="M64.4253 112.13L59.9553 114.68L52.8153 102.36C50.2453 102.8 47.5153 102.7 44.6153 102.04C41.7053 101.38 38.6853 100.15 35.5453 98.34C31.2053 95.83 27.1253 92.53 23.3053 88.43C19.4853 84.34 16.1653 79.85 13.3353 74.98C10.5153 70.1 8.27531 65 6.62531 59.67C4.97531 54.33 4.15531 49.17 4.15531 44.19C4.15531 40.59 4.59531 37.38 5.48531 34.56C6.37531 31.74 7.66531 29.34 9.33531 27.37L2.19531 15.05L6.66531 12.5L25.3253 44.68L46.9953 82.06L64.4253 112.13Z" stroke="white" stroke-linejoin="round"/><path d="M84.4255 102.13L79.8155 104.44L64.4255 112.13L46.9955 82.06L25.3255 44.68L6.66553 12.5L26.6655 2.5L33.6655 14.58L29.0555 16.89L18.2855 22.27L24.1955 32.46L57.0655 89.17L61.7555 97.26L71.1455 92.57L77.1455 89.57L84.4255 102.13Z" stroke="white" stroke-linejoin="round"/><path d="M66.9352 80.4399C66.9352 84.0399 66.4952 87.2499 65.6052 90.0699C65.3852 90.7699 65.1452 91.4399 64.8752 92.0899C64.0552 94.0499 63.0152 95.7799 61.7552 97.2599L57.0652 89.1699L24.1952 32.4599L18.2852 22.2699C20.7652 21.8399 23.4052 21.9199 26.2152 22.5399C26.3052 22.5499 26.3952 22.5699 26.4852 22.5899C29.3852 23.2499 32.4052 24.4799 35.5452 26.2899C38.5152 28.0099 41.3652 30.0999 44.0952 32.5599C45.3552 33.6899 46.5852 34.9099 47.7852 36.1999C51.6052 40.2899 54.9352 44.78 57.7552 49.65C60.5852 54.53 62.8152 59.6299 64.4652 64.9599C64.9852 66.6399 65.4252 68.3099 65.7652 69.9499C66.5552 73.5299 66.9352 77.0299 66.9352 80.4399Z" stroke="white" stroke-linejoin="round"/><path d="M86.9352 70.44C86.9352 74.04 86.4952 77.25 85.6052 80.07C84.7152 82.89 83.4352 85.29 81.7552 87.26L77.1452 89.57L71.1452 92.57L61.7552 97.26C63.0152 95.78 64.0552 94.05 64.8752 92.09C65.1452 91.44 65.3852 90.77 65.6052 90.07C66.4952 87.25 66.9352 84.04 66.9352 80.44C66.9352 77.03 66.5552 73.53 65.7652 69.95C65.4252 68.31 64.9852 66.64 64.4652 64.96C62.8152 59.63 60.5852 54.53 57.7552 49.65C54.9352 44.78 51.6052 40.29 47.7852 36.2C46.5852 34.91 45.3552 33.69 44.0952 32.56C41.3652 30.1 38.5152 28.01 35.5452 26.29C32.4052 24.48 29.3852 23.25 26.4852 22.59C26.3952 22.57 26.3052 22.55 26.2152 22.54C23.4052 21.92 20.7652 21.84 18.2852 22.27L29.0552 16.89L33.6652 14.58L38.2852 12.27C40.8452 11.83 43.5752 11.93 46.4852 12.59C49.3852 13.25 52.4052 14.48 55.5452 16.29C59.8852 18.8 63.9752 22.1 67.7852 26.2C71.6052 30.29 74.9352 34.78 77.7552 39.65C80.5852 44.53 82.8151 49.63 84.4651 54.96C86.1151 60.3 86.9352 65.46 86.9352 70.44Z" stroke="white" stroke-linejoin="round"/></svg>