<svg width="48" height="48" viewBox="0 0 88 133" xmlns="http://www.w3.org/2000/svg" stroke-width="1px"
     stroke-linecap="round" stroke-linejoin="round">
    <path d="M85.7298 71.6602L68.0298 81.7602L52.9498 89.3002L48.0298 91.7602L52.6498 89.1202L65.7298 81.6602L85.7298 71.6602Z" class="pr-icon-iso-solid-stroke" stroke-linejoin="round"/>
    <path d="M85.73 71.6604L65.73 81.6604L60.77 73.1103L80.77 63.1104L85.73 71.6604Z" class="pr-icon-iso-solid-stroke" stroke-linejoin="round"/>
    <path d="M71.5698 39.1104V67.7103L60.7698 73.1103L51.5698 78.3603V49.1104L64.4898 42.6503L71.5698 39.1104Z" class="pr-icon-iso-solid-stroke" stroke-linejoin="round"/>
    <path d="M51.57 101.93V130.36L2 101.75V12.3701L22 23.9201L29.08 28.0001L33.87 30.7701V51.0801L29.08 48.3101L22 44.2301L9.08 36.7701V85.5201L44.49 105.96V97.8401L51.57 101.93Z" class="pr-icon-iso-solid-stroke" stroke-linejoin="round"/>
    <path d="M71.5698 91.9302V120.36L51.5698 130.36V101.93L64.0398 95.7002L64.4898 95.4702L71.5698 91.9302Z" class="pr-icon-iso-solid-stroke" stroke-linejoin="round"/>
    <path d="M71.5702 91.9303L64.4902 95.4703L64.0402 95.7003L51.5702 101.93L44.4902 97.8403C45.4702 97.4203 51.7302 94.2803 56.9902 91.6303C61.0402 89.5903 64.4902 87.8403 64.4902 87.8403L71.5702 91.9303Z" class="pr-icon-iso-solid-stroke" stroke-linejoin="round"/>
    <path d="M56.9901 91.63C51.7301 94.28 45.4701 97.42 44.4901 97.84V105.96L9.08008 85.52L22.0001 79.06L29.0801 75.52L43.4101 83.79L48.0301 91.76L52.9501 89.3L56.9901 91.63Z" class="pr-icon-iso-solid-stroke" stroke-linejoin="round"/>
    <path d="M53.8701 20.77V40.33L53.1701 40.68L44.4901 45.02V45.77L33.8701 51.08V30.77L35.0201 30.2L53.8701 20.77Z" class="pr-icon-iso-solid-stroke" stroke-linejoin="round"/>
    <path d="M53.87 20.7701L35.02 30.2001L33.87 30.7701L29.08 28.0001L22 23.9201L2 12.3701L22 2.37012L53.87 20.7701Z" class="pr-icon-iso-solid-stroke" stroke-linejoin="round"/>
    <path d="M65.7301 81.66L52.6501 89.12L48.0301 91.76L43.4101 83.79L30.3301 61.22L35.2801 58.4L44.4901 74.27V45.02L45.1901 45.42L51.5701 49.11V78.36L60.7701 73.11L65.7301 81.66Z" class="pr-icon-iso-solid-stroke" stroke-linejoin="round"/>
    <path d="M71.5702 39.11L64.4902 42.65L51.5702 49.11L45.1902 45.42L44.4902 45.02L53.1702 40.68L53.8702 40.33L64.4902 35.02L71.5702 39.11Z" class="pr-icon-iso-solid-stroke" stroke-linejoin="round"/>
    <path d="M44.4898 53.8003V74.2703L35.2798 58.4003L44.4898 53.8003Z" class="pr-icon-iso-solid-stroke" stroke-linejoin="round"/>
    <path d="M29.0801 48.31V75.52L22.0001 79.06L9.08008 85.52V36.77L22.0001 44.23L29.0801 48.31Z" class="pr-icon-iso-solid-stroke" stroke-linejoin="round"/>
</svg>