<svg width="48" height="48" viewBox="0 0 104 126" fill="#229EFF" xmlns="http://www.w3.org/2000/svg" stroke-width="1px" stroke-linecap="round" stroke-linejoin="round"><path d="M52.5796 24.59V106.52L30.7598 93.92V12L50.7598 23.54L52.5796 24.59Z" stroke="white" stroke-linejoin="round"/><path d="M23.8198 35.3V89.92L2 77.3199V22.7L22 34.2499L23.8198 35.3Z" stroke="white" stroke-linejoin="round"/><path d="M30.76 17.7599V31.83L23.8198 35.3L22 34.2499L2 22.7L22 12.7L30.76 17.7599Z" stroke="white" stroke-linejoin="round"/><path d="M72.5796 14.59L52.5796 24.59L50.7598 23.54L30.7598 12L50.7598 2L72.5796 14.59Z" stroke="white" stroke-linejoin="round"/><path d="M101.34 67.61V113.12L81.3398 123.12V77.61L101.34 67.61Z" stroke="white" stroke-linejoin="round"/><path d="M101.339 67.61L81.3394 77.61L79.5195 76.56L72.5793 72.55L59.5195 65.01L72.5793 58.48L79.5195 55.01L101.339 67.61Z" stroke="white" stroke-linejoin="round"/><path d="M81.3394 77.61V123.12L59.5195 110.53V65.01L72.5793 72.55L79.5195 76.56L81.3394 77.61Z" stroke="white" stroke-linejoin="round"/><path d="M72.5801 14.5901V58.4801L59.5203 65.0101V103.05L52.5801 106.52V24.5901L72.5801 14.5901Z" stroke="white" stroke-linejoin="round"/><path d="M30.7605 31.8301V86.4501L23.8203 89.9201V35.3001L30.7605 31.8301Z" stroke="white" stroke-linejoin="round"/></svg>