<svg width="24" height="24" viewBox="0 0 88 123" xmlns="http://www.w3.org/2000/svg" stroke-width="1px" stroke-linecap="round" stroke-linejoin="round">
    <path d="M58.3242 86.74V86.88L58.4543 86.8199L58.3242 86.74Z" class="pr-icon-iso-solid-stroke" stroke-linejoin="round"/>
    <path d="M58.3242 86.74V86.88L58.4543 86.8199L58.3242 86.74Z" class="pr-icon-iso-solid-stroke" stroke-linejoin="round"/>
    <path d="M85.3037 38.26V110.32L65.3037 120.32V48.26L77.8738 41.98L85.3037 38.26Z" class="pr-icon-iso-solid-stroke" stroke-linejoin="round"/>
    <path d="M46.9241 37.65L22.5039 23.5499L2.50391 12V84.0599L65.304 120.32V48.26L46.9241 37.65ZM58.324 86.88V108.29L26.9241 90.16V34.11L46.9241 45.66L58.324 52.24V86.74L58.4541 86.8199L58.324 86.88Z" class="pr-icon-iso-solid-stroke" stroke-linejoin="round"/>
    <path d="M58.3237 86.8799V108.29L26.9238 90.1599L39.4937 83.8699L44.0237 81.6099L48.2637 88.9398L49.6038 91.2399L51.0237 90.5299L58.3237 86.8799Z" class="pr-icon-iso-solid-stroke" stroke-linejoin="round"/>
    <path d="M46.9238 60.7399L35.6438 67.1698L44.0237 81.6099L39.4937 83.8699L26.9238 90.1599V34.1099L46.9238 45.6599V60.7399Z" class="pr-icon-iso-solid-stroke" stroke-linejoin="round"/>
    <path d="M49.6045 59.21V91.24L48.2644 88.9399L44.0244 81.61L35.6445 67.1699L46.9246 60.74L49.6045 59.21Z" class="pr-icon-iso-solid-stroke" stroke-linejoin="round"/>
    <path d="M58.3235 54.8501V86.8801L51.0234 90.5302L49.6035 91.2401V59.2101L58.3235 54.8501Z" class="pr-icon-iso-solid-stroke" stroke-linejoin="round"/>
    <path d="M85.304 38.26L77.874 41.98L65.304 48.26L46.9241 37.65L22.5039 23.5499L2.50391 12L22.5039 2L85.304 38.26Z" class="pr-icon-iso-solid-stroke" stroke-linejoin="round"/>
</svg>