<svg width="48" height="48" viewBox="0 0 111 131" xmlns="http://www.w3.org/2000/svg" stroke-width="1px"
     stroke-linecap="round" stroke-linejoin="round">
    <path d="M89.01 117.96V129L2.46997 79.0399V67.9999L89.01 117.96Z" class="pr-icon-iso-solid-stroke" stroke-linejoin="round"/>
    <path d="M89.01 90.38V101.42L22.47 63L17.83 60.32L2.46997 51.45V40.42L89.01 90.38Z" class="pr-icon-iso-solid-stroke" stroke-linejoin="round"/>
    <path d="M89.01 62.8V73.83L22.47 35.41L17.84 32.73L2.46997 23.86V12.83L89.01 62.8Z" class="pr-icon-iso-solid-stroke" stroke-linejoin="round"/>
    <path d="M109.01 107.96L98.76 113.08L89.01 117.96L2.46997 67.9999L17.83 60.3199L22.47 62.9999L89.01 101.42L93.66 99.0999L109.01 107.96Z" class="pr-icon-iso-solid-stroke" stroke-linejoin="round"/>
    <path d="M109.01 107.96V119L89.01 129V117.96L98.76 113.08L109.01 107.96Z" class="pr-icon-iso-solid-stroke" stroke-linejoin="round"/>
    <path d="M109.01 80.38L98.76 85.4999L89.01 90.38L2.46997 40.42L17.84 32.7299L22.47 35.41L89.01 73.8299L93.65 71.5099L109.01 80.38Z" class="pr-icon-iso-solid-stroke" stroke-linejoin="round"/>
    <path d="M109.01 80.3799V91.4199L93.66 99.0999L89.01 101.42V90.3799L98.76 85.4999L109.01 80.3799Z" class="pr-icon-iso-solid-stroke" stroke-linejoin="round"/>
    <path d="M109.01 52.8V63.83L89.01 73.83V62.8L109.01 52.8Z" class="pr-icon-iso-solid-stroke" stroke-linejoin="round"/>
    <path d="M109.01 52.8L89.01 62.8L2.46997 12.83L22.47 2.82996L109.01 52.8Z" class="pr-icon-iso-solid-stroke" stroke-linejoin="round"/>
</svg>