<svg width="48" height="48" viewBox="0 0 98 122" xmlns="http://www.w3.org/2000/svg" stroke-width="1px"
     stroke-linecap="round" stroke-linejoin="round">
    <path d="M75.17 96.1201V119.44L2 77.2001V53.8701L10.13 58.5701V72.5601L67.04 105.42V91.4201L75.17 96.1201Z" class="pr-icon-iso-solid-stroke" stroke-linejoin="round"/>
    <path d="M42.6495 72.68V82.01L34.5195 77.31V67.98L42.6495 72.68Z" class="pr-icon-iso-solid-stroke" stroke-linejoin="round"/>
    <path d="M42.6495 16.7V63.35L34.5195 58.65V12L42.6495 16.7Z" class="pr-icon-iso-solid-stroke" stroke-linejoin="round"/>
    <path d="M30.13 48.5701L22 52.6401L10.13 58.5701L2 53.8701L22 43.8701L30.13 48.5701Z" class="pr-icon-iso-solid-stroke" stroke-linejoin="round"/>
    <path d="M30.1299 48.5701V62.5601L21.9999 66.6301L10.1299 72.5601V58.5701L21.9999 52.6401L30.1299 48.5701Z" class="pr-icon-iso-solid-stroke" stroke-linejoin="round"/>
    <path d="M95.17 86.1199L87.04 90.1899L82.1801 92.6099L75.17 96.1199L67.04 91.4199L74.05 87.9199L87.04 81.4199L95.17 86.1199Z" class="pr-icon-iso-solid-stroke" stroke-linejoin="round"/>
    <path d="M74.0499 87.9201L67.0399 91.4201V105.42L10.1299 72.5601L21.9999 66.6301L30.1299 62.5601L37.2 66.6401L34.5199 67.9801V77.3101L42.6499 82.0101L45.33 80.6701L53.9899 76.3401L74.0499 87.9201Z" class="pr-icon-iso-solid-stroke" stroke-linejoin="round"/>
    <path d="M62.6504 62.6799V72.0099L53.9904 76.3399L45.3304 80.6699L42.6504 82.0099V72.6799L45.3304 71.3399L54.5204 66.7499L62.6504 62.6799Z" class="pr-icon-iso-solid-stroke" stroke-linejoin="round"/>
    <path d="M62.6495 62.68L54.5195 66.75L45.3296 71.34L42.6495 72.68L34.5195 67.98L37.1996 66.64L54.5195 57.98L62.6495 62.68Z" class="pr-icon-iso-solid-stroke" stroke-linejoin="round"/>
    <path d="M62.6495 6.7L54.5195 10.77L42.6495 16.7L34.5195 12L54.5195 2L62.6495 6.7Z" class="pr-icon-iso-solid-stroke" stroke-linejoin="round"/>
    <path d="M62.6504 6.69995V53.3499L42.6504 63.3499V16.7L54.5204 10.77L62.6504 6.69995Z" class="pr-icon-iso-solid-stroke" stroke-linejoin="round"/>
    <path d="M95.1699 86.1201V109.44L75.1699 119.44V96.1201L82.1799 92.6101L87.0399 90.1901L95.1699 86.1201Z" class="pr-icon-iso-solid-stroke" stroke-linejoin="round"/>
</svg>