<svg width="48" height="48" viewBox="0 0 99 111" xmlns="http://www.w3.org/2000/svg" stroke-width="1px"
     stroke-linecap="round" stroke-linejoin="round">
    <path d="M75.65 70.6364C75.49 69.8564 75.32 69.0764 75.13 68.2864C75.02 67.8064 74.9 67.3264 74.77 66.8464C74.63 66.3164 74.49 65.7864 74.34 65.2464C74.19 64.7164 74.04 64.1864 73.87 63.6464C71.9 57.2864 69.24 51.2064 65.87 45.4064C64.91 43.7564 63.91 42.1464 62.85 40.5764C61.43 38.4364 59.92 36.3664 58.31 34.3764C58.22 34.2564 58.13 34.1364 58.02 34.0164C56.74 32.4264 55.39 30.8764 53.99 29.3764C53.02 28.3364 52.04 27.3464 51.04 26.3864C47.36 22.8664 43.48 19.9264 39.41 17.5764C34.52 14.7564 29.91 13.0964 25.59 12.6064C25.33 12.5764 25.07 12.5464 24.82 12.5264C21 12.2164 17.58 12.7064 14.59 14.0264L12.94 14.8464C9.58 16.7664 6.91 19.7664 4.95 23.8564C2.99 27.9464 2 32.9564 2 38.8964C2 44.8364 2.99 50.9764 4.95 57.3364C6.91 63.6964 9.58 69.7764 12.94 75.5764C16.31 81.3864 20.27 86.7264 24.82 91.6064C29.37 96.4864 34.23 100.426 39.41 103.406C44.58 106.396 49.44 108.076 53.99 108.456C58.55 108.826 62.5 108.056 65.87 106.136C68.89 104.416 71.33 101.836 73.22 98.3764C73.45 97.9764 73.66 97.5564 73.87 97.1264C75.83 93.0364 76.81 88.0264 76.81 82.0864C76.81 78.3564 76.42 74.5364 75.65 70.6364ZM43.15 28.6364C43.46 28.8564 43.77 29.0764 44.07 29.2964C44.89 29.9164 45.71 30.5664 46.51 31.2464C48.04 32.5564 49.52 33.9664 50.96 35.5064C51.39 35.9664 51.82 36.4364 52.23 36.9164C52.76 37.5064 53.27 38.1064 53.75 38.7164C55.17 40.4164 56.49 42.1864 57.74 44.0364L55.12 45.5264C53.97 43.9164 52.76 42.3764 51.48 40.8864C50.83 40.1164 50.15 39.3564 49.46 38.6164C49.39 38.5464 49.33 38.4764 49.26 38.4064C47.29 36.3164 45.26 34.4964 43.15 32.9264V28.6364ZM22.44 22.3864C24.12 22.0164 25.92 21.9264 27.85 22.1164C29.33 22.2564 30.86 22.5864 32.45 23.0964C33.49 23.4164 34.57 23.8264 35.66 24.3164V28.6064C33.48 27.7064 31.39 27.1864 29.39 27.0364C27.4 26.8764 25.53 27.0164 23.78 27.4364L22.18 24.6664L21.07 22.7664C21.52 22.6164 21.97 22.4964 22.44 22.3864ZM15.74 67.8664C14.12 64.5664 12.79 61.2064 11.77 57.7864C10.74 54.3664 10.07 50.9964 9.76 47.6664L13.5 49.8264C13.81 52.5164 14.4 55.2464 15.27 58.0464C16.15 60.8364 17.21 63.5964 18.45 66.3164L15.74 67.8664ZM15.27 35.0864C14.4 36.8664 13.81 38.9164 13.5 41.2464L9.76 39.0864C10.07 36.1164 10.74 33.5164 11.77 31.2864C12.79 29.0564 14.12 27.2264 15.74 25.8064L18.45 30.4764C17.21 31.7664 16.15 33.2964 15.27 35.0864ZM35.67 92.3464C32.92 90.4064 30.32 88.1364 27.86 85.5264C25.4 82.9264 23.14 80.1064 21.08 77.0564L23.7 75.4564C25.44 77.8964 27.33 80.1964 29.36 82.3664C31.38 84.5464 33.49 86.4364 35.67 88.0564V92.3464ZM50.96 98.8664C48.49 98.6264 45.89 97.8864 43.15 96.6664V92.3764C43.42 92.4864 43.68 92.5864 43.94 92.6864C44.33 92.8364 44.71 92.9664 45.09 93.0864C45.3 93.1564 45.52 93.2164 45.73 93.2764C46.15 93.3964 46.57 93.5064 46.99 93.5964C47.14 93.6264 47.28 93.6664 47.43 93.6864C47.45 93.6964 47.46 93.6964 47.48 93.6964C47.63 93.7264 47.78 93.7564 47.92 93.7764C48.17 93.8264 48.42 93.8564 48.67 93.8864C48.67 93.8964 48.69 93.8964 48.7 93.8964C48.95 93.9264 49.21 93.9564 49.46 93.9764C51.49 94.1464 53.37 94.0164 55.12 93.5964L57.74 98.2164C55.68 98.8964 53.42 99.1064 50.96 98.8664ZM58.11 71.2864C58.11 77.2264 56.29 81.2364 52.64 83.3164C51.14 84.1664 49.53 84.5964 47.78 84.5964H47.77C45.25 84.5964 42.46 83.7064 39.41 81.9464C34.23 78.9664 29.82 74.3264 26.18 68.0364C22.53 61.7464 20.71 55.6264 20.71 49.6964C20.71 45.7164 21.53 42.6064 23.17 40.3564C23.97 39.2464 24.97 38.3564 26.18 37.6664C29.82 35.5864 34.23 36.0464 39.41 39.0364C39.85 39.2864 40.28 39.5564 40.71 39.8364C41.51 40.3464 42.29 40.9064 43.05 41.5064C46.27 44.0464 49.14 47.3264 51.67 51.3564C52 51.8764 52.32 52.4064 52.64 52.9464C54.34 55.8664 55.64 58.7664 56.54 61.6164C56.77 62.3264 56.97 63.0164 57.14 63.7164C57.54 65.2864 57.81 66.8364 57.96 68.3864C58.06 69.3064 58.11 70.2264 58.11 71.1464V71.2864ZM67.03 89.6964C66 91.9264 64.68 93.7564 63.06 95.1764L60.34 90.6064C61.59 89.3264 62.65 87.7764 63.52 85.9564C64.4 84.1364 64.99 82.0564 65.3 79.7364L69.04 81.8964C68.73 84.8664 68.06 87.4664 67.03 89.6964ZM65.3 71.1564C65.01 68.6764 64.49 66.1464 63.72 63.5464C63.66 63.3264 63.59 63.1064 63.52 62.8864C63.31 62.2064 63.09 61.5164 62.85 60.8464C62.13 58.7164 61.29 56.6164 60.34 54.5564L62.96 53.0664C63.99 55.1564 64.9 57.2764 65.71 59.4264C65.91 59.9764 66.11 60.5364 66.3 61.0864C66.54 61.7764 66.77 62.4664 66.98 63.1664C67.24 63.9964 67.47 64.8264 67.68 65.6464C67.74 65.8964 67.8 66.1364 67.86 66.3764C67.99 66.9064 68.11 67.4364 68.22 67.9664C68.25 68.0864 68.28 68.2064 68.3 68.3364C68.39 68.7364 68.46 69.1364 68.53 69.5464C68.64 70.1764 68.74 70.8064 68.82 71.4364C68.86 71.7464 68.9 72.0664 68.94 72.3764C68.98 72.6864 69.01 73.0064 69.04 73.3164L65.3 71.1564Z" class="pr-icon-iso-solid-stroke" stroke-linejoin="round"/>
    <path d="M18.4595 30.4766C17.2195 31.7666 16.1595 33.2966 15.2795 35.0866C14.4095 36.8666 13.8195 38.9166 13.5095 41.2466L9.76953 39.0866C10.0795 36.1166 10.7495 33.5166 11.7795 31.2866C12.7995 29.0566 14.1295 27.2266 15.7495 25.8066L18.4595 30.4766Z" class="pr-icon-iso-solid-stroke" stroke-linejoin="round"/>
    <path d="M18.4595 66.316L15.7495 67.866C14.1295 64.566 12.7995 61.206 11.7795 57.786C10.7495 54.366 10.0795 50.996 9.76953 47.666L13.5095 49.826C13.8195 52.516 14.4095 55.246 15.2795 58.046C16.1595 60.836 17.2195 63.596 18.4595 66.316Z" class="pr-icon-iso-solid-stroke" stroke-linejoin="round"/>
    <path d="M35.6701 88.0561V92.3461C32.9201 90.4061 30.3201 88.1361 27.8601 85.5261C25.4001 82.9261 23.1401 80.1061 21.0801 77.0561L23.7001 75.4561C25.4401 77.8961 27.3301 80.1961 29.3601 82.3661C31.3801 84.5461 33.4901 86.4361 35.6701 88.0561Z" class="pr-icon-iso-solid-stroke" stroke-linejoin="round"/>
    <path d="M57.7296 98.2167C55.6696 98.8967 53.4096 99.1067 50.9496 98.8667C48.4796 98.6267 45.8796 97.8867 43.1396 96.6667V96.6467L43.9996 96.2167L48.6596 93.8967H48.6896C48.9396 93.9267 49.1996 93.9567 49.4496 93.9767C51.4796 94.1467 53.3596 94.0167 55.1096 93.5967L57.7296 98.2167Z" class="pr-icon-iso-solid-stroke" stroke-linejoin="round"/>
    <path d="M48.6704 93.886L44.0104 96.216L43.1504 96.646V92.376C43.4204 92.486 43.6804 92.586 43.9404 92.686C44.3304 92.836 44.7104 92.966 45.0904 93.086C45.3004 93.156 45.5204 93.216 45.7304 93.276C46.1504 93.396 46.5704 93.506 46.9904 93.596C47.1404 93.626 47.2804 93.666 47.4304 93.686C47.4504 93.696 47.4604 93.696 47.4804 93.696C47.6304 93.726 47.7804 93.756 47.9204 93.776C48.1704 93.826 48.4204 93.856 48.6704 93.886Z" class="pr-icon-iso-solid-stroke" stroke-linejoin="round"/>
    <path d="M69.0398 73.3168L65.2998 71.1569L68.5298 69.5469C68.6398 70.1769 68.7398 70.8068 68.8198 71.4368C68.8598 71.7468 68.8998 72.0668 68.9398 72.3768C68.9798 72.6868 69.0098 73.0068 69.0398 73.3168Z" class="pr-icon-iso-solid-stroke" stroke-linejoin="round"/>
    <path d="M68.5298 69.5464L65.2998 71.1564C65.0098 68.6764 64.4898 66.1464 63.7198 63.5464C63.6598 63.3264 63.5898 63.1064 63.5198 62.8864C63.3098 62.2064 63.0898 61.5164 62.8498 60.8464C62.1298 58.7164 61.2898 56.6165 60.3398 54.5565L62.9598 53.0664C63.9898 55.1564 64.8998 57.2765 65.7098 59.4265C65.9098 59.9765 66.1098 60.5364 66.2998 61.0864C66.5398 61.7764 66.7698 62.4664 66.9798 63.1664C67.2398 63.9964 67.4698 64.8264 67.6798 65.6464C67.7398 65.8964 67.7998 66.1364 67.8598 66.3764C67.9898 66.9064 68.1098 67.4364 68.2198 67.9664C68.2498 68.0864 68.2798 68.2064 68.2998 68.3364C68.3798 68.7364 68.4598 69.1464 68.5298 69.5464Z" class="pr-icon-iso-solid-stroke" stroke-linejoin="round"/>
    <path d="M57.1402 63.7169L52.1802 66.1968L50.6302 66.9669L47.1602 59.6469L42.2902 49.3868L39.4102 43.3268L40.8602 42.6069L43.0502 41.5068C46.2702 44.0468 49.1402 47.3269 51.6702 51.3569C52.0002 51.8769 52.3202 52.4068 52.6402 52.9468C54.3402 55.8668 55.6402 58.7669 56.5402 61.6169C56.7702 62.3269 56.9702 63.0169 57.1402 63.7169Z" class="pr-icon-iso-solid-stroke" stroke-linejoin="round"/>
    <path d="M69.0398 81.8963C68.7298 84.8663 68.0598 87.4663 67.0298 89.6963C65.9998 91.9263 64.6798 93.7563 63.0598 95.1763L60.3398 90.6063C61.5898 89.3263 62.6498 87.7763 63.5198 85.9563C64.3998 84.1363 64.9898 82.0563 65.2998 79.7363L69.0398 81.8963Z" class="pr-icon-iso-solid-stroke" stroke-linejoin="round"/>
    <path d="M35.67 24.3167V28.6067C33.49 27.7067 31.4 27.1867 29.4 27.0367C27.41 26.8767 25.54 27.0166 23.79 27.4366L32.46 23.0967C33.5 23.4167 34.58 23.8267 35.67 24.3167Z" class="pr-icon-iso-solid-stroke" stroke-linejoin="round"/>
    <path d="M32.4601 23.0962L23.7901 27.4362L22.1901 24.6662L21.0801 22.7662C21.5301 22.6162 21.9801 22.4962 22.4501 22.3862C24.1301 22.0162 25.9301 21.9262 27.8601 22.1162C29.3401 22.2562 30.8701 22.5862 32.4601 23.0962Z" class="pr-icon-iso-solid-stroke" stroke-linejoin="round"/>
    <path d="M57.7296 44.0361L55.1096 45.5261C53.9596 43.9161 52.7496 42.376 51.4696 40.886C50.8196 40.116 50.1396 39.3561 49.4496 38.6161C49.3796 38.5461 49.3196 38.4761 49.2496 38.4061C47.2796 36.3161 45.2496 34.4961 43.1396 32.9261L46.4996 31.2461C48.0296 32.5561 49.5096 33.966 50.9496 35.506C51.3796 35.966 51.8096 36.4361 52.2196 36.9161C52.7496 37.5061 53.2596 38.1061 53.7396 38.7161C55.1596 40.4161 56.4796 42.1861 57.7296 44.0361Z" class="pr-icon-iso-solid-stroke" stroke-linejoin="round"/>
    <path d="M46.4996 31.2468L43.1396 32.9268V28.6367C43.4496 28.8567 43.7596 29.0768 44.0596 29.2968C44.8796 29.9168 45.6996 30.5668 46.4996 31.2468Z" class="pr-icon-iso-solid-stroke" stroke-linejoin="round"/>
    <path d="M58.11 71.1468V71.2868C58.11 77.2268 56.29 81.2368 52.64 83.3168C51.14 84.1668 49.53 84.5968 47.78 84.5968H47.77C45.25 84.5968 42.46 83.7068 39.41 81.9468C34.23 78.9668 29.82 74.3268 26.18 68.0368C22.53 61.7468 20.71 55.6268 20.71 49.6968C20.71 45.7168 21.53 42.6068 23.17 40.3568C23.97 39.2468 24.97 38.3568 26.18 37.6668C29.82 35.5868 34.23 36.0468 39.41 39.0368C39.85 39.2868 40.28 39.5568 40.71 39.8368C40.71 40.7568 40.76 41.6768 40.86 42.6068L39.41 43.3268L28.19 54.0168L35.99 70.4568L39.41 77.6568L40.79 76.9668L55.77 69.4768C56.53 70.0768 57.31 70.6368 58.11 71.1468Z" class="pr-icon-iso-solid-stroke" stroke-linejoin="round"/>
    <path d="M96.8001 72.0865C96.8001 78.0265 95.8201 83.0365 93.8601 87.1265C91.8901 91.2165 89.2301 94.2165 85.8601 96.1365L65.8601 106.137C68.8801 104.417 71.3201 101.837 73.2101 98.3765C73.4401 97.9765 73.6501 97.5565 73.8601 97.1265C75.8201 93.0365 76.8001 88.0265 76.8001 82.0865C76.8001 78.3565 76.4101 74.5365 75.6401 70.6365C75.1801 68.3365 74.5901 66.0065 73.8601 63.6465C71.8901 57.2865 69.2301 51.2066 65.8601 45.4066C64.9001 43.7566 63.9001 42.1465 62.8401 40.5765C61.4201 38.4365 59.9101 36.3665 58.3001 34.3765C58.2101 34.2565 58.1201 34.1365 58.0101 34.0165C56.7301 32.4265 55.3801 30.8765 53.9801 29.3765C53.0101 28.3365 52.0301 27.3465 51.0301 26.3865C47.3501 22.8665 43.4701 19.9265 39.4001 17.5765C34.5101 14.7565 29.9001 13.0966 25.5801 12.6066C25.3201 12.5766 25.0601 12.5465 24.8101 12.5265C20.9901 12.2165 17.5701 12.7065 14.5801 14.0265L32.9301 4.84655C36.3001 2.92655 40.2601 2.15655 44.8101 2.52655C49.3601 2.90655 54.2201 4.58653 59.4001 7.57653C64.5701 10.5565 69.4301 14.4965 73.9801 19.3765C78.5401 24.2565 82.4901 29.5966 85.8601 35.4066C89.2301 41.2066 91.8901 47.2865 93.8601 53.6465C95.8201 60.0065 96.8001 66.1465 96.8001 72.0865Z" class="pr-icon-iso-solid-stroke" stroke-linejoin="round"/>
    <path d="M50.6304 66.9662L40.5004 76.6062L39.4004 77.6562L35.9804 70.4562L28.1904 54.0162L39.4004 43.3262L42.2804 49.3862L47.1504 59.6462L50.6304 66.9662Z" class="pr-icon-iso-solid-stroke" stroke-linejoin="round"/>
    <path d="M57.9602 68.3868L55.7702 69.4768L40.7902 76.9668L39.4102 77.6568L40.5102 76.6068L50.6302 66.9668L52.1802 66.1968L57.1402 63.7168C57.5402 65.2868 57.8102 66.8368 57.9602 68.3868Z" class="pr-icon-iso-solid-stroke" stroke-linejoin="round"/>
    <path d="M43.1396 32.9268L43.0996 32.9467" class="pr-icon-iso-solid-stroke" stroke-linejoin="round"/>
</svg>