<svg width="48" height="48" viewBox="0 0 95 113" fill="#229EFF" xmlns="http://www.w3.org/2000/svg" stroke-width="1px" stroke-linecap="round" stroke-linejoin="round"><path d="M56.5 80.8302C55.95 80.5502 55.3501 80.2202 54.7001 79.8402C50.4901 77.4102 46.64 74.0802 43.15 69.8502C39.67 65.6202 36.8101 61.0502 34.5901 56.1302L22 48.8702L9.02002 41.3802V29.2802L20.25 35.7602L22 36.7702L30.37 41.6002C30.25 40.8602 30.18 40.1702 30.15 39.5102C30.12 38.8602 30.11 38.1602 30.11 37.4202C30.11 35.5602 30.2601 33.8402 30.5601 32.2702C30.7401 31.2902 30.99 30.3602 31.29 29.4902C32.08 27.2202 33.1801 25.3502 34.5901 23.8802C32.6401 22.7502 30.78 21.7102 29.02 20.7602C26.48 19.3802 24.14 18.1902 22 17.1702C16.42 14.5202 12.17 13.0702 9.23999 12.8202C7.80999 12.7002 6.58008 12.8602 5.58008 13.3102C3.19008 14.3602 2 16.9802 2 21.1902V59.4902C2 63.3902 3.2001 67.4102 5.6001 71.5502C8.0001 75.6902 10.9 78.7502 14.3 80.7102L9.02002 81.7002V85.7302L51.1901 110.07V106.04L45.92 98.9602C49.13 100.82 51.8801 101.18 54.2001 100.07L54.24 100.05C54.37 99.9902 54.5 99.9202 54.62 99.8502C56.89 98.5502 58.0901 96.1302 58.2101 92.5802C58.2201 92.3702 58.2201 92.1602 58.2201 91.9502V81.5702C57.6301 81.3702 57.06 81.1202 56.5 80.8302ZM33.8401 78.1302C33.7201 78.2002 33.6001 78.2602 33.4801 78.3002C32.5301 78.6702 31.4 78.4802 30.11 77.7402C28.64 76.8902 27.4 75.5902 26.37 73.8202C25.35 72.0502 24.8401 70.3302 24.8401 68.6502C24.8401 66.9702 25.35 65.8402 26.37 65.2502C26.82 65.0002 27.3001 64.8802 27.8301 64.8902C28.5201 64.9102 29.28 65.1602 30.11 65.6402C31.57 66.4902 32.8201 67.7902 33.8401 69.5602C34.8701 71.3302 35.38 73.0502 35.38 74.7302C35.38 76.4102 34.8701 77.5502 33.8401 78.1302Z" stroke="white" stroke-linejoin="round"/><path d="M71.1895 96.0402V100.07L51.1895 110.07V106.04L67.4495 97.9102L71.1895 96.0402Z" stroke="white" stroke-linejoin="round"/><path d="M78.2198 71.5701L58.2198 81.5701C57.6298 81.3701 57.0598 81.1201 56.4998 80.8301C55.9498 80.5501 55.3498 80.2201 54.6998 79.8401C50.4898 77.4101 46.6398 74.0801 43.1498 69.8501C39.6698 65.6201 36.8098 61.0501 34.5898 56.1301L39.7098 53.5701C40.4098 55.2701 41.2698 56.9801 42.2698 58.7101C45.6998 64.6201 49.8398 68.9701 54.6998 71.7801C59.5598 74.5901 63.7098 75.0101 67.1298 73.0601L74.1798 69.5301C74.3498 69.6401 74.5298 69.7401 74.6998 69.8401C75.3498 70.2201 75.9498 70.5501 76.4998 70.8301C77.0598 71.1201 77.6298 71.3701 78.2198 71.5701Z" stroke="white" stroke-linejoin="round"/><path d="M35.3798 74.7301C35.3798 76.4101 34.8698 77.5501 33.8398 78.1301C33.7198 78.2001 33.5999 78.2601 33.4799 78.3001C32.5299 78.6701 31.3997 78.4801 30.1097 77.7401C28.6397 76.8901 27.3998 75.5901 26.3698 73.8201C25.3498 72.0501 24.8398 70.3301 24.8398 68.6501C24.8398 66.9701 25.3498 65.8401 26.3698 65.2501C26.8198 65.0001 27.2998 64.8801 27.8298 64.8901C28.5198 64.9101 29.2797 65.1601 30.1097 65.6401C31.5697 66.4901 32.8198 67.7901 33.8398 69.5601C34.8698 71.3301 35.3798 73.0501 35.3798 74.7301Z" stroke="white" stroke-linejoin="round"/><path d="M78.2203 71.5701V81.9501C78.2203 85.8501 77.0202 88.4801 74.6202 89.8501L74.0603 90.1301L68.7603 92.7801L63.3003 95.5201L54.2402 100.05C54.3702 99.9901 54.5002 99.9201 54.6202 99.8501C56.8902 98.5501 58.0903 96.1301 58.2103 92.5801C58.2203 92.3701 58.2203 92.1601 58.2203 91.9501V81.5701L78.2203 71.5701Z" stroke="white" stroke-linejoin="round"/><path d="M54.5895 13.8801C53.1795 15.3501 52.0794 17.2201 51.2894 19.4901C50.5994 21.4601 50.2194 23.7101 50.1294 26.2601L45.2994 28.6701L43.3894 29.6301C42.9894 29.7901 42.6095 29.9901 42.2295 30.2101C39.9995 31.5201 38.4994 33.5901 37.7394 36.4101C37.5894 36.9401 37.4694 37.5001 37.3794 38.0901L30.3694 41.6001C30.2494 40.8601 30.1794 40.1701 30.1494 39.5101C30.1194 38.8601 30.1094 38.1601 30.1094 37.4201C30.1094 35.5601 30.2594 33.8401 30.5594 32.2701C30.7394 31.2901 30.9894 30.3601 31.2894 29.4901C32.0794 27.2201 33.1795 25.3501 34.5895 23.8801L35.8794 23.2401L54.5895 13.8801Z" stroke="white" stroke-linejoin="round"/><path d="M25.3798 3.42017L25.0098 3.60016" stroke="white" stroke-linejoin="round"/><path d="M54.5901 13.8802L35.88 23.2402L34.5901 23.8802C32.6401 22.7502 30.78 21.7102 29.02 20.7602C26.48 19.3802 24.14 18.1902 22 17.1702C16.42 14.5202 12.17 13.0702 9.23999 12.8202C7.80999 12.7002 6.58008 12.8602 5.58008 13.3102L24.9801 3.62019L25.01 3.6002C26.11 2.9402 27.52 2.6802 29.24 2.8202C34.08 3.2302 42.5201 6.91019 54.5901 13.8802Z" stroke="white" stroke-linejoin="round"/><path d="M5.57996 13.3102L5.12988 13.5302" stroke="white" stroke-linejoin="round"/><path d="M20.2495 35.7602L9.01953 41.3802V29.2802L20.2495 35.7602Z" stroke="white" stroke-linejoin="round"/><path d="M39.7096 53.5703L34.5896 56.1302L21.9995 48.8702L9.01953 41.3802L20.2495 35.7603L21.9995 36.7703L30.3695 41.6003L37.3795 38.1003C37.2095 39.1403 37.1295 40.2603 37.1295 41.4803C37.1295 45.4203 37.9896 49.4503 39.7096 53.5703Z" stroke="white" stroke-linejoin="round"/><path d="M71.1899 96.0402L67.45 97.9102L51.1899 106.04L45.9199 98.9602C49.1299 100.82 51.88 101.18 54.2 100.07L54.2399 100.05L63.2999 95.5202L68.7599 92.7802L71.1899 96.0402Z" stroke="white" stroke-linejoin="round"/><path d="M56.4602 40.5403V52.8903L52.9502 54.6403V38.5103L56.4602 40.5403Z" stroke="white" stroke-linejoin="round"/><path d="M56.4602 52.8901V56.6701L52.9502 54.6401L56.4602 52.8901Z" stroke="white" stroke-linejoin="round"/><path d="M52.9502 38.5103V54.6403L56.4602 56.6703V40.5403L52.9502 38.5103Z" stroke="white" stroke-linejoin="round"/><path d="M72.22 60.1702C71.97 55.8502 70.7099 51.4202 68.4199 46.9002C68.0199 46.1102 67.5899 45.3202 67.1299 44.5302C64.3099 39.6502 60.9899 35.8402 57.1799 33.0702C56.3699 32.4902 55.55 31.9502 54.7 31.4602C53.1 30.5402 51.5899 29.8702 50.1499 29.4702C48.6399 29.0302 47.2199 28.8802 45.8899 29.0102C45.0199 29.0902 44.1899 29.3002 43.3899 29.6302C42.9899 29.7902 42.61 29.9902 42.23 30.2102C40 31.5202 38.4999 33.5902 37.7399 36.4102C37.5899 36.9402 37.4699 37.5002 37.3799 38.0902C37.2099 39.1402 37.1299 40.2602 37.1299 41.4802C37.1299 45.4202 37.99 49.4502 39.71 53.5702C40.41 55.2702 41.2699 56.9802 42.2699 58.7102C45.6999 64.6202 49.84 68.9702 54.7 71.7802C59.56 74.5902 63.7099 75.0102 67.1299 73.0602C69.1599 71.9102 70.5899 70.1202 71.4099 67.6902C71.9799 66.0202 72.2699 64.0402 72.2699 61.7602C72.2699 61.2302 72.25 60.7002 72.22 60.1702ZM55.9299 63.8202C55.7499 63.9202 55.55 63.9602 55.34 63.9402C55.15 63.9202 54.93 63.8502 54.7 63.7202C54.24 63.4502 53.83 63.0102 53.47 62.4002C53.12 61.7902 52.95 61.2202 52.95 60.6902C52.95 60.1602 53.12 59.7802 53.47 59.5802C53.58 59.5202 53.6799 59.4802 53.7899 59.4702C54.0699 59.4202 54.37 59.4902 54.7 59.6802C55.17 59.9502 55.5799 60.3902 55.9299 61.0002C56.2799 61.6002 56.46 62.1802 56.46 62.7102C56.46 63.2402 56.2799 63.6202 55.9299 63.8202ZM56.46 56.6702L52.95 54.6402V38.5102L56.46 40.5402V56.6702Z" stroke="white" stroke-linejoin="round"/><path d="M56.4602 62.7102C56.4602 63.2502 56.2802 63.6202 55.9302 63.8202C55.7502 63.9202 55.5502 63.9602 55.3402 63.9402C55.1502 63.9202 54.9302 63.8502 54.7002 63.7202C54.2402 63.4502 53.8302 63.0102 53.4702 62.4002C53.1202 61.7902 52.9502 61.2202 52.9502 60.6902C52.9502 60.1602 53.1202 59.7802 53.4702 59.5802C53.5802 59.5202 53.6802 59.4802 53.7902 59.4702C54.0702 59.4202 54.3702 59.4902 54.7002 59.6802C55.1702 59.9502 55.5802 60.3902 55.9302 61.0002C56.2802 61.6002 56.4602 62.1802 56.4602 62.7102Z" stroke="white" stroke-linejoin="round"/><path d="M92.2697 51.7602C92.2697 57.3402 90.5596 61.1102 87.1296 63.0602L86.3297 63.4602L74.1797 69.5302L67.1296 73.0602C69.1596 71.9102 70.5897 70.1202 71.4097 67.6902C71.9797 66.0202 72.2697 64.0402 72.2697 61.7602C72.2697 61.2302 72.2497 60.7002 72.2197 60.1702C71.9697 55.8502 70.7097 51.4201 68.4197 46.9001C68.0197 46.1101 67.5896 45.3202 67.1296 44.5302C64.3096 39.6502 60.9897 35.8402 57.1797 33.0702C56.3697 32.4902 55.5497 31.9502 54.6997 31.4602C53.0997 30.5402 51.5897 29.8702 50.1497 29.4702C48.6397 29.0302 47.2196 28.8802 45.8896 29.0102C45.0196 29.0902 44.1896 29.3002 43.3896 29.6302L45.2997 28.6702L50.1296 26.2602L62.2297 20.2102C65.6297 18.2002 69.7797 18.6202 74.6997 21.4602C79.5597 24.2702 83.7096 28.6202 87.1296 34.5302C90.5596 40.4402 92.2697 46.1902 92.2697 51.7602Z" stroke="white" stroke-linejoin="round"/></svg>