<svg width="48" height="48" viewBox="0 0 101 123" xmlns="http://www.w3.org/2000/svg" stroke-width="1px"
     stroke-linecap="round" stroke-linejoin="round">
    <path d="M7.25 17.7509L10.31 16.2209C9.23 16.5609 8.21 17.0709 7.25 17.7509Z" class="pr-icon-iso-solid-stroke" stroke-linejoin="round"/>
    <path d="M26.67 92.2009C26.48 92.7209 26.19 93.1009 25.8 93.3309L25.42 93.5209C25.2 93.6009 24.97 93.6409 24.71 93.6509C23.76 93.6809 22.79 93.2109 21.8 92.2409C20.81 91.2709 20.07 90.0909 19.56 88.7009L13.83 72.2609C13.32 70.8709 13.24 69.7109 13.59 68.7809C13.85 68.1009 14.26 67.6609 14.85 67.4609L14.89 67.4409C15.09 67.3809 15.31 67.3409 15.55 67.3309C16.5 67.3009 17.47 67.7709 18.46 68.7409C19.45 69.7109 20.19 70.8909 20.7 72.2809L26.43 88.7309C26.94 90.1209 27.02 91.2709 26.67 92.2009Z" class="pr-icon-iso-solid-stroke" stroke-linejoin="round"/>
    <path d="M92.46 108.651C92.11 109.581 91.46 110.061 90.51 110.091L71.51 119.831C71.94 119.601 72.25 119.201 72.46 118.651C72.81 117.721 72.73 116.561 72.22 115.171L66.5 98.7311C66.39 98.4311 66.26 98.1311 66.13 97.8511C65.65 96.8311 65.02 95.9511 64.26 95.1911C63.27 94.2211 62.3 93.7511 61.35 93.7811C61.02 93.7911 60.73 93.8511 60.48 93.9711L62.82 92.8011L66.41 91.0111C67.34 91.2211 68.23 91.3111 69.09 91.2911C70.61 91.2611 72.01 90.8711 73.32 90.1311L79.24 87.1711L83.88 84.8511C84.01 84.9511 84.13 85.0711 84.26 85.1911C85.24 86.1611 85.99 87.3411 86.5 88.7311L92.22 105.171C92.73 106.561 92.81 107.721 92.46 108.651Z" class="pr-icon-iso-solid-stroke" stroke-linejoin="round"/>
    <path d="M66.42 91.0109L62.83 92.8009L60.49 93.9709L60.37 94.0309C59.93 94.2609 59.61 94.6609 59.4 95.2209C59.05 96.1509 59.13 97.3109 59.64 98.7009L60.35 100.741L48.69 106.571C49.08 106.331 49.37 105.951 49.57 105.431C49.92 104.501 49.84 103.341 49.33 101.951L43.61 85.5009C43.5 85.2009 43.37 84.9009 43.24 84.6209C42.76 83.6009 42.13 82.7209 41.36 81.9609C40.38 80.9909 39.41 80.5209 38.45 80.5609C38.14 80.5709 37.87 80.6309 37.63 80.7309L39.93 79.5809L42.71 78.1909L46.86 80.5909L61.16 88.8509C61.25 88.9009 61.35 88.9609 61.44 89.0009C63.2 90.0009 64.86 90.6709 66.42 91.0109Z" class="pr-icon-iso-solid-stroke" stroke-linejoin="round"/>
    <path d="M98.34 69.061C98.34 74.531 96.67 78.221 93.33 80.131L92.53 80.531L79.25 87.1709L73.33 90.131C75.09 89.121 76.39 87.6209 77.22 85.6109C77.97 83.8209 78.34 81.651 78.34 79.061C78.34 78.441 78.32 77.811 78.27 77.181C77.96 72.601 76.49 67.901 73.86 63.111C70.87 57.661 67.18 53.451 62.79 50.481L82.79 40.481C87.18 43.451 90.87 47.661 93.86 53.111C96.85 58.561 98.34 63.881 98.34 69.061Z" class="pr-icon-iso-solid-stroke" stroke-linejoin="round"/>
    <path d="M78.34 79.061C78.34 81.651 77.97 83.821 77.22 85.611C76.39 87.621 75.09 89.121 73.33 90.131C72.02 90.871 70.62 91.261 69.1 91.291C68.24 91.311 67.35 91.221 66.42 91.011C64.86 90.671 63.2 90.001 61.44 89.001C61.35 88.961 61.25 88.901 61.16 88.851L46.86 80.591L42.71 78.191L38.55 75.791L22.99 66.811C21.97 66.221 20.98 65.581 20.02 64.871C15.49 61.581 11.54 57.021 8.15 51.181C4.05 44.101 2 37.241 2 30.601C2 24.541 3.75 20.261 7.25 17.751L10.31 16.221C13.18 15.331 16.48 15.671 20.23 17.251C20.97 16.171 21.81 15.261 22.74 14.531C23.37 14.031 24.04 13.621 24.77 13.281L24.92 13.211C26.03 12.711 27.25 12.401 28.58 12.271C32.11 11.941 35.97 12.981 40.17 15.411C45.9 18.711 50.87 23.691 55.1 30.331C59.34 36.971 61.9 43.681 62.79 50.481C67.18 53.451 70.87 57.661 73.86 63.111C76.49 67.901 77.96 72.601 78.27 77.181C78.32 77.811 78.34 78.441 78.34 79.061Z" class="pr-icon-iso-solid-stroke" stroke-linejoin="round"/>
    <path d="M82.79 40.481L62.79 50.481C61.9 43.681 59.34 36.971 55.1 30.331C50.87 23.691 45.9 18.711 40.17 15.411C35.97 12.981 32.11 11.941 28.58 12.271C27.25 12.401 26.03 12.711 24.92 13.211L38.27 6.53102L44.24 3.54101C45.53 2.85101 46.98 2.42101 48.58 2.27101C52.11 1.94101 55.97 2.98102 60.17 5.41102C65.9 8.71102 70.87 13.691 75.1 20.331C79.34 26.971 81.9 33.681 82.79 40.481Z" class="pr-icon-iso-solid-stroke" stroke-linejoin="round"/>
    <path d="M38.27 6.53115L24.92 13.2111L24.77 13.2811C24.04 13.6211 23.37 14.0311 22.74 14.5211C21.81 15.2611 20.97 16.1711 20.23 17.2511C16.48 15.6711 13.18 15.3311 10.31 16.2211L27.25 7.75115C30.3 5.57115 33.96 5.16115 38.27 6.53115Z" class="pr-icon-iso-solid-stroke" stroke-linejoin="round"/>
    <path d="M72.46 118.651C72.25 119.201 71.94 119.601 71.51 119.831L71.38 119.901C71.13 120.021 70.84 120.081 70.51 120.091C69.55 120.131 68.58 119.661 67.6 118.691C66.61 117.721 65.86 116.541 65.35 115.151L60.34 100.741L59.63 98.7011C59.12 97.3111 59.04 96.1511 59.39 95.2211C59.6 94.6611 59.92 94.2611 60.36 94.0311L60.48 93.9711C60.73 93.8511 61.02 93.7911 61.35 93.7811C62.3 93.7511 63.27 94.2211 64.26 95.1911C65.02 95.9511 65.65 96.8311 66.13 97.8511C66.26 98.1311 66.39 98.4311 66.5 98.7311L72.22 115.171C72.73 116.561 72.81 117.721 72.46 118.651Z" class="pr-icon-iso-solid-stroke" stroke-linejoin="round"/>
    <path d="M49.57 105.431C49.37 105.951 49.08 106.331 48.69 106.571L48.61 106.611C48.33 106.781 47.99 106.861 47.61 106.871C46.66 106.901 45.69 106.441 44.7 105.461C43.72 104.491 42.97 103.311 42.46 101.931L37.44 87.5209L36.73 85.481C36.23 84.091 36.15 82.9309 36.5 82.0009C36.73 81.3909 37.09 80.9709 37.59 80.7509L37.63 80.731C37.87 80.631 38.14 80.5709 38.45 80.5609C39.41 80.5209 40.38 80.9909 41.36 81.9609C42.13 82.7209 42.76 83.6009 43.24 84.6209C43.37 84.9009 43.5 85.2009 43.61 85.5009L49.33 101.951C49.84 103.341 49.92 104.501 49.57 105.431Z" class="pr-icon-iso-solid-stroke" stroke-linejoin="round"/>
    <path d="M42.7 78.1911L39.92 79.5811L37.62 80.7311L37.58 80.7511C37.08 80.9711 36.72 81.3911 36.49 82.0011C36.14 82.9311 36.22 84.0911 36.72 85.4811L37.43 87.5211L25.79 93.3311C26.18 93.1011 26.47 92.7211 26.66 92.2011C27.01 91.2711 26.93 90.1211 26.42 88.7311L20.69 72.2811C20.18 70.8911 19.44 69.7111 18.45 68.7411C17.46 67.7711 16.49 67.3011 15.54 67.3311C15.3 67.3311 15.08 67.3811 14.88 67.4411L20.01 64.8711C20.97 65.5811 21.96 66.2211 22.98 66.8111L38.54 75.7911L42.7 78.1911Z" class="pr-icon-iso-solid-stroke" stroke-linejoin="round"/>
</svg>