<svg width="48" height="48" viewBox="0 0 101 131" xmlns="http://www.w3.org/2000/svg" stroke-width="1px"
     stroke-linecap="round" stroke-linejoin="round">
    <path d="M74.72 104.57L67.93 100.65L60.28 96.2296L49.61 90.0696L41.34 85.2896L32.62 80.2596C28.41 77.8296 24.81 74.0296 21.81 68.8596C18.81 63.6796 17.31 58.6796 17.31 53.8496L24.97 58.2696C24.97 60.6896 25.71 63.1896 27.21 65.7696C28.71 68.3596 30.51 70.2596 32.62 71.4796L44.49 78.3296L62.67 88.8196L32.62 49.5196V42.9296L42.81 44.4296L47.93 45.1796L45.78 42.9396L25.16 21.3796C24.1 20.2896 23.05 19.2096 22 18.1496C21.78 17.9196 21.55 17.6895 21.33 17.4695C20.05 16.1795 18.71 15.1296 17.31 14.3196C13.53 12.1396 10.25 11.6296 7.45 12.7696L7.33 12.8296L6.5 13.2396C3.5 14.9496 2 18.2196 2 23.0496V40.6196C2 48.5996 4.11 56.9496 8.32 65.6796C12.53 74.3996 18.01 81.7396 24.77 87.6996L19.22 99.9796L26.3 107.36L32.62 93.4396L40.28 97.8496V115.42L47.93 119.84V102.27L64.24 111.69L67.07 113.32L70.9 124.32L78.55 128.74L74.72 104.57ZM14.59 33.4496C13.86 32.1796 13.49 30.9296 13.49 29.6796C13.49 28.4296 13.86 27.6096 14.59 27.1896C15.33 26.7696 16.24 26.8696 17.32 27.4996C18.4 28.1296 19.31 29.0696 20.05 30.3396C20.78 31.5996 21.15 32.8596 21.15 34.0996C21.15 35.3396 20.78 36.1796 20.05 36.5996C19.31 37.0096 18.4 36.9096 17.32 36.2796C16.24 35.6596 15.33 34.7096 14.59 33.4496Z" class="pr-icon-iso-solid-stroke" stroke-linejoin="round"/>
    <path d="M21.1405 34.0993C21.1405 35.3493 20.7705 36.1793 20.0405 36.5993C19.3005 37.0093 18.3905 36.9093 17.3105 36.2793C16.2305 35.6593 15.3205 34.7093 14.5805 33.4493C13.8505 32.1793 13.4805 30.9293 13.4805 29.6793C13.4805 28.4293 13.8505 27.6093 14.5805 27.1893C15.3205 26.7693 16.2305 26.8693 17.3105 27.4993C18.3905 28.1293 19.3005 29.0693 20.0405 30.3393C20.7705 31.5993 21.1405 32.8593 21.1405 34.0993Z" class="pr-icon-iso-solid-stroke" stroke-linejoin="round"/>
    <path d="M98.5497 118.74L78.5497 128.74L74.7197 104.57L82.4997 100.68L94.7197 94.5698L98.5497 118.74Z" class="pr-icon-iso-solid-stroke" stroke-linejoin="round"/>
    <path d="M42.8101 44.4297L40.4001 45.6297L37.5301 47.0597L32.6201 49.5197V42.9297L42.8101 44.4297Z" class="pr-icon-iso-solid-stroke" stroke-linejoin="round"/>
    <path d="M67.9302 35.1796L47.9302 45.1796L45.7802 42.9396L25.1602 21.3796C24.1002 20.2896 23.0502 19.2097 22.0002 18.1497C21.7802 17.9197 21.5502 17.6896 21.3302 17.4696C20.0502 16.1796 18.7102 15.1296 17.3102 14.3196C13.5302 12.1396 10.2502 11.6297 7.4502 12.7697L26.5002 3.23963C29.5002 1.52963 33.1002 1.88964 37.3102 4.31964C38.7102 5.12964 40.0502 6.17961 41.3302 7.46961C42.6002 8.74961 43.8802 10.0596 45.1602 11.3796L67.9302 35.1796Z" class="pr-icon-iso-solid-stroke" stroke-linejoin="round"/>
    <path d="M82.6701 78.8195L74.5101 82.8995L62.6701 88.8195L32.6201 49.5195L37.5301 47.0594L40.4001 45.6295L42.8101 44.4294L47.9301 45.1794L54.4501 41.9194L82.6701 78.8195Z" class="pr-icon-iso-solid-stroke" stroke-linejoin="round"/>
    <path d="M94.7196 94.5696L82.4996 100.68L74.7196 104.57L67.9296 100.65L60.2796 96.2296L49.6096 90.0696L41.3396 85.2896L32.6196 80.2596C28.4096 77.8296 24.8096 74.0296 21.8096 68.8596C18.8096 63.6796 17.3096 58.6796 17.3096 53.8496L24.9696 58.2697C24.9696 60.6897 25.7096 63.1897 27.2096 65.7697C28.7096 68.3597 30.5096 70.2596 32.6196 71.4796L44.4896 78.3297L62.6696 88.8196L74.5096 82.8997L94.7196 94.5696Z" class="pr-icon-iso-solid-stroke" stroke-linejoin="round"/>
    <path d="M64.2397 111.69L47.9297 119.84V102.27L64.2397 111.69Z" class="pr-icon-iso-solid-stroke" stroke-linejoin="round"/>
    <path d="M40.2798 97.8494V100.369L26.2998 107.359L32.6198 93.4395L40.2798 97.8494Z" class="pr-icon-iso-solid-stroke" stroke-linejoin="round"/>
</svg>