<svg width="24" height="24" viewBox="0 0 92 122" xmlns="http://www.w3.org/2000/svg" stroke-width="1px" stroke-linecap="round" stroke-linejoin="round">
    <path d="M62.1839 93.8354V119.516L2.50391 85.0554V12.2854L9.96391 16.5854V80.8054L54.7239 106.645V89.5254L62.1839 93.8354Z" class="pr-icon-iso-solid-stroke" stroke-linejoin="round"/>
    <path d="M82.1836 83.8354L74.7236 87.5654L66.2836 91.7754L62.1836 93.8354L54.7236 89.5254L58.8336 87.4755L74.7236 79.5254L82.1836 83.8354Z" class="pr-icon-iso-solid-stroke" stroke-linejoin="round"/>
    <path d="M29.9639 6.58545L22.5039 10.3154L9.96391 16.5854L2.50391 12.2854L22.5039 2.2854L29.9639 6.58545Z" class="pr-icon-iso-solid-stroke" stroke-linejoin="round"/>
    <path d="M17.4239 33.7355V67.9855L22.5039 70.9154L24.8839 72.2954L29.9639 69.7555V70.8054L9.96387 80.8054V16.5854L22.5039 10.3154L29.9639 6.58545V27.4655L22.5039 31.1954L17.4239 33.7355Z" class="pr-icon-iso-solid-stroke" stroke-linejoin="round"/>
    <path d="M58.8339 87.4755L54.7239 89.5254V106.645L9.96387 80.8054L29.9639 70.8054L58.8339 87.4755Z" class="pr-icon-iso-solid-stroke" stroke-linejoin="round"/>
    <path d="M89.6541 58.1754L70.9941 68.8054L50.9941 78.8054L69.6541 68.1754L70.4041 67.7954L89.6541 58.1754Z" class="pr-icon-iso-solid-stroke" stroke-linejoin="round"/>
    <path d="M44.8838 58.1554V62.2954L24.8838 72.2954V46.6055L29.9638 49.5354L44.8838 58.1554Z" class="pr-icon-iso-solid-stroke" stroke-linejoin="round"/>
    <path d="M69.6538 68.1754L50.9938 78.8054L45.6838 69.7455L55.2838 64.1654L44.8838 58.1554L29.9638 49.5354L24.8838 46.6055V72.2954L22.5038 70.9154L17.4238 67.9855V33.7355L22.5038 36.6654L29.9638 40.9755L44.8838 49.5955L55.2838 55.6055L45.6838 39.0354L47.3938 38.0554L50.9938 36.0055L54.5938 42.2155L69.6538 68.1754Z" class="pr-icon-iso-solid-stroke" stroke-linejoin="round"/>
    <path d="M89.6541 58.1754L70.4041 67.7954L69.6541 68.1754L54.5941 42.2155L50.9941 36.0055L55.1041 33.9454L70.9941 26.0055L89.6541 58.1754Z" class="pr-icon-iso-solid-stroke" stroke-linejoin="round"/>
    <path d="M55.2838 55.6055L44.8838 49.5955L29.9638 40.9755L22.5038 36.6654L17.4238 33.7355L22.5038 31.1954L29.9638 27.4655L37.4238 23.7355L55.1038 33.9454L50.9938 36.0055L47.3938 38.0554L45.6838 39.0354L55.2838 55.6055Z" class="pr-icon-iso-solid-stroke" stroke-linejoin="round"/>
    <path d="M82.1836 83.8354V109.516L62.1836 119.516V93.8354L66.2836 91.7754L74.7236 87.5654L82.1836 83.8354Z" class="pr-icon-iso-solid-stroke" stroke-linejoin="round"/>
</svg>