<svg width="48" height="48" viewBox="0 0 97 114" xmlns="http://www.w3.org/2000/svg" stroke-width="1px"
     stroke-linecap="round" stroke-linejoin="round">
    <path d="M64.96 104.13V111.74L2 75.3799V25.9399L8.62 29.7699V71.5999L64.96 104.13Z" class="pr-icon-iso-solid-stroke" stroke-linejoin="round"/>
    <path d="M72.34 51.3397L58.45 43.3197L58.34 43.2598V28.0498L52.57 24.7197L35.25 14.7197L31.82 12.7397V27.9497L28.62 26.0997L22.74 22.7097L22 22.2798L16.11 18.8898L15.25 18.3898V67.8197L15.68 68.0697L72.02 100.6L74.91 102.27V52.8297L72.34 51.3397ZM38.45 24.1698L45.51 28.2498L51.71 31.8297V39.4298L38.45 31.7798V24.1698ZM52.33 67.6898L41.92 69.2798L38.45 69.8098V43.1898L53.18 62.4398L56.68 67.0198L52.33 67.6898Z" class="pr-icon-iso-solid-stroke" stroke-linejoin="round"/>
    <path d="M58.3398 43.2598L58.4498 43.3197V43.2097L58.3398 43.2598Z" class="pr-icon-iso-solid-stroke" stroke-linejoin="round"/>
    <path d="M84.9609 97.2498V101.74L64.9609 111.74V104.13L72.0209 100.6L74.9109 102.27L80.7909 99.3297L84.9609 97.2498Z" class="pr-icon-iso-solid-stroke" stroke-linejoin="round"/>
    <path d="M56.6792 67.0199L52.3292 67.6899L41.9192 69.2799L38.4492 69.8099L40.7992 68.6299L47.8592 65.0999L53.1792 62.4399L56.6792 67.0199Z" class="pr-icon-iso-solid-stroke" stroke-linejoin="round"/>
    <path d="M53.1792 62.4399L47.8592 65.0999L40.7992 68.6299L38.4492 69.8099V43.1899L53.1792 62.4399Z" class="pr-icon-iso-solid-stroke" stroke-linejoin="round"/>
    <path d="M94.9102 42.8296V92.2697L84.9602 97.2496L80.7902 99.3296L74.9102 102.27V52.8296L94.9102 42.8296Z" class="pr-icon-iso-solid-stroke" stroke-linejoin="round"/>
    <path d="M37.7 9.79968L35.25 11.0297L31.82 12.7396V27.9496L28.62 26.0996L22.74 22.7096L22 22.2797L16.11 18.8896L15.25 18.3896L35.25 8.38965L37.7 9.79968Z" class="pr-icon-iso-solid-stroke" stroke-linejoin="round"/>
    <path d="M78.3403 18.0498L71.2803 21.5797L64.2203 25.1097L58.3403 28.0498L52.5703 24.7197L35.2503 14.7197L31.8203 12.7397L35.2503 11.0298L37.7003 9.7998L51.8203 2.73975L78.3403 18.0498Z" class="pr-icon-iso-solid-stroke" stroke-linejoin="round"/>
    <path d="M78.3398 18.0498V33.2598L63.9898 40.4298L58.4498 43.2097L58.3398 43.2598V28.0498L64.2198 25.1097L71.2798 21.5797L78.3398 18.0498Z" class="pr-icon-iso-solid-stroke" stroke-linejoin="round"/>
    <path d="M94.9092 42.8297L74.9092 52.8297L72.3392 51.3397L58.4492 43.3197V43.2097L63.9892 40.4298L78.3392 33.2598L94.9092 42.8297Z" class="pr-icon-iso-solid-stroke" stroke-linejoin="round"/>
    <path d="M15.25 19.3198V26.4598L8.62 29.7699L2 25.9399L15.25 19.3198Z" class="pr-icon-iso-solid-stroke" stroke-linejoin="round"/>
    <path d="M72.0191 100.6L64.9591 104.13L8.61914 71.5999L15.6791 68.0698L72.0191 100.6Z" class="pr-icon-iso-solid-stroke" stroke-linejoin="round"/>
    <path d="M15.6791 68.0697L8.61914 71.5997V29.7698L15.2491 26.4597V67.8197L15.6791 68.0697Z" class="pr-icon-iso-solid-stroke" stroke-linejoin="round"/>
    <path d="M51.7092 31.8297V39.4298L38.4492 31.7798L45.5092 28.2498L51.7092 31.8297Z" class="pr-icon-iso-solid-stroke" stroke-linejoin="round"/>
    <path d="M45.5092 28.2499L38.4492 31.7799V24.1699L45.5092 28.2499Z" class="pr-icon-iso-solid-stroke" stroke-linejoin="round"/>
</svg>