<svg width="48" height="48" viewBox="0 0 96 127" xmlns="http://www.w3.org/2000/svg" stroke-width="1px"
     stroke-linecap="round" stroke-linejoin="round">
    <path d="M29.6503 100.022C29.6503 102.202 28.9703 103.682 27.6203 104.452C26.2603 105.222 24.6403 105.062 22.7303 103.962C20.8303 102.862 19.2103 101.152 17.8503 98.8123C16.5003 96.4823 15.8203 94.2223 15.8203 92.0423C15.8203 89.8623 16.5003 88.3823 17.8503 87.6123L18.2803 87.4023C19.5503 86.8723 21.0303 87.1123 22.7303 88.0923C24.6403 89.1923 26.2603 90.9123 27.6203 93.2423C28.9703 95.5823 29.6503 97.8423 29.6503 100.022Z" class="pr-icon-iso-solid-stroke" stroke-linejoin="round"/>
    <path d="M64.2106 119.973C64.2106 122.163 63.5406 123.633 62.1806 124.403C60.8306 125.183 59.2006 125.013 57.3006 123.923C55.4006 122.823 53.7706 121.103 52.4206 118.773C51.0606 116.433 50.3906 114.173 50.3906 111.993C50.3906 109.813 51.0606 108.333 52.4206 107.563L52.8506 107.353C54.1106 106.833 55.6006 107.063 57.3006 108.053C59.2006 109.153 60.8306 110.863 62.1806 113.203C63.5406 115.533 64.2106 117.793 64.2106 119.973Z" class="pr-icon-iso-solid-stroke" stroke-linejoin="round"/>
    <path d="M33.23 9.15211L25.87 12.8321L13.23 19.1521L2 12.6621L22 2.66211L33.23 9.15211Z" class="pr-icon-iso-solid-stroke" stroke-linejoin="round"/>
    <path d="M84.2096 109.972C84.2096 112.162 83.5396 113.632 82.1796 114.402L81.7496 114.612L62.1796 124.402C63.5396 123.632 64.2096 122.162 64.2096 119.972C64.2096 117.782 63.5396 115.532 62.1796 113.202C60.8296 110.862 59.1996 109.152 57.2996 108.052C55.5996 107.062 54.1096 106.832 52.8496 107.352L58.2596 104.642L64.2096 108.082L70.7596 104.812L79.9796 100.192C80.7796 101.042 81.5096 102.042 82.1796 103.202C83.5396 105.532 84.2096 107.792 84.2096 109.972Z" class="pr-icon-iso-solid-stroke" stroke-linejoin="round"/>
    <path d="M26.54 70.4621L22.73 76.2021L31.06 81.0121L35.98 83.8521L49.49 91.6421L64.21 100.142V108.082L58.26 104.642L43.86 96.3321L23.7 84.6821L11.07 77.3921L21.35 61.9121L8.91 24.5821L2 20.5921V12.6621L13.23 19.1521L16.51 28.9721L37.8 41.2621L73.54 61.9021L66.73 72.1121L62.9 77.8421L59.09 83.5721L56.35 87.6721L47.03 82.2921L38.46 77.3421L30.1 72.5221L26.54 70.4621Z" class="pr-icon-iso-solid-stroke" stroke-linejoin="round"/>
    <path d="M30.1005 72.5219L22.7305 76.2019L26.5405 70.4619L30.1005 72.5219Z" class="pr-icon-iso-solid-stroke" stroke-linejoin="round"/>
    <path d="M84.2105 90.142L76.8405 93.822L64.2105 100.142L49.4905 91.642L35.9805 83.852L31.0605 81.012L22.7305 76.202L30.1005 72.522L38.4605 77.342L47.0305 82.292L56.3505 87.672L61.6205 85.032L68.9805 81.352L84.2105 90.142Z" class="pr-icon-iso-solid-stroke" stroke-linejoin="round"/>
    <path d="M93.5396 51.9023L76.3496 77.6723L68.9796 81.3523L61.6196 85.0323L56.3496 87.6723L59.0896 83.5723L62.8996 77.8423L66.7296 72.1123L73.5396 61.9023L93.5396 51.9023Z" class="pr-icon-iso-solid-stroke" stroke-linejoin="round"/>
    <path d="M36.5105 18.9723L16.5105 28.9723L13.2305 19.1523L25.8705 12.8323L33.2305 9.15234L36.5105 18.9723Z" class="pr-icon-iso-solid-stroke" stroke-linejoin="round"/>
    <path d="M93.5398 51.9022L73.5398 61.9022L37.7998 41.2622L16.5098 28.9722L36.5098 18.9722L93.5398 51.9022Z" class="pr-icon-iso-solid-stroke" stroke-linejoin="round"/>
    <path d="M84.21 90.1421V98.0821L79.98 100.192L70.76 104.812L64.21 108.082V100.142L76.84 93.8221L84.21 90.1421Z" class="pr-icon-iso-solid-stroke" stroke-linejoin="round"/>
    <path d="M29.6503 100.022C29.6503 97.8421 28.9703 95.5821 27.6203 93.2421C26.2603 90.9121 24.6403 89.1921 22.7303 88.0921C21.0303 87.1121 19.5503 86.8721 18.2803 87.4021L23.7003 84.6821L43.8603 96.3321L27.6203 104.452C28.9703 103.682 29.6503 102.202 29.6503 100.022Z" class="pr-icon-iso-solid-stroke" stroke-linejoin="round"/>
</svg>