<svg width="48" height="48" viewBox="0 0 97 116" xmlns="http://www.w3.org/2000/svg" stroke-width="1px"
     stroke-linecap="round" stroke-linejoin="round">
    <path d="M72.24 61.6937C70.68 56.0037 68.19 50.3037 64.77 44.6237C64.56 44.2837 64.3501 43.9337 64.1401 43.5937C57.4001 32.7137 48.7301 24.2238 38.1301 18.1038C32.9401 15.1138 28.2202 13.2238 23.9602 12.4338C19.5102 11.6038 15.5601 11.9737 12.1201 13.5537C5.37012 16.6437 2 23.6437 2 34.5537C2 37.4637 2.3202 40.5137 2.9502 43.7037C3.5802 46.9037 4.52 50.1037 5.75 53.3037C6.98 56.5037 8.49002 59.6037 10.27 62.5937C12.04 65.5937 14.1002 68.3538 16.4502 70.8838V88.5037L27.29 94.7638V86.4737L34.52 90.6438V98.9337L41.74 103.104V94.8137L48.9702 98.9838V107.274L59.8101 113.534V95.9137C62.1601 96.0937 64.22 95.7137 66 94.7737C67.09 94.1937 68.0802 93.4537 68.9702 92.5637C69.5202 92.0037 70.04 91.3737 70.51 90.6937C71.75 88.9237 72.6801 86.8037 73.3101 84.3337C73.9401 81.8637 74.26 79.1737 74.26 76.2737C74.26 71.4137 73.59 66.5537 72.24 61.6937ZM30.5901 56.9137C29.1701 57.7237 27.47 57.5537 25.49 56.4037C23.5 55.2637 21.8001 53.4638 20.3801 51.0238C18.9701 48.5838 18.26 46.2237 18.26 43.9437C18.26 41.6637 18.9701 40.1237 20.3801 39.3137C21.5201 38.6637 22.8501 38.6437 24.3601 39.2737C24.7201 39.4137 25.1 39.6038 25.49 39.8238C27.47 40.9738 29.1701 42.7637 30.5901 45.2037C32.0001 47.6437 32.7102 50.0037 32.7102 52.2837C32.7102 53.5437 32.49 54.5738 32.05 55.3838C31.72 56.0438 31.2201 56.5537 30.5901 56.9137ZM36.4502 74.1437L32.7102 71.9837L36.4502 65.5637L38.1301 62.6737L40.0901 68.2938L43.55 78.2338L36.4502 74.1437ZM55.8801 71.5238C54.4601 72.3238 52.76 72.1537 50.78 71.0137C48.79 69.8637 47.0902 68.0637 45.6702 65.6237C45.6502 65.5937 45.6401 65.5637 45.6201 65.5337C44.2401 63.1237 43.55 60.7938 43.55 58.5438C43.55 56.2938 44.2602 54.7237 45.6702 53.9137C47.0902 53.1037 48.79 53.2737 50.78 54.4237C52.32 55.3137 53.6801 56.5937 54.8801 58.2637C55.2301 58.7437 55.5601 59.2537 55.8801 59.8037C56.8901 61.5537 57.5401 63.2638 57.8201 64.9338C57.9401 65.5938 58 66.2437 58 66.8937C58 69.1737 57.2901 70.7138 55.8801 71.5238Z" class="pr-icon-iso-solid-stroke" stroke-linejoin="round"/>
    <path d="M57.9998 66.8937C57.9998 69.1737 57.2899 70.7137 55.8799 71.5237C54.4599 72.3237 52.7598 72.1537 50.7798 71.0137C48.7898 69.8637 47.0899 68.0637 45.6699 65.6237C45.6499 65.5937 45.6399 65.5637 45.6199 65.5337C44.2399 63.1237 43.5498 60.7937 43.5498 58.5437C43.5498 56.2937 44.2599 54.7237 45.6699 53.9137C47.0899 53.1037 48.7898 53.2737 50.7798 54.4237C52.3198 55.3137 53.6799 56.5937 54.8799 58.2637C55.2299 58.7437 55.5599 59.2537 55.8799 59.8037C56.8899 61.5537 57.5398 63.2637 57.8198 64.9337C57.9398 65.5937 57.9998 66.2437 57.9998 66.8937Z" class="pr-icon-iso-solid-stroke" stroke-linejoin="round"/>
    <path d="M32.71 52.2837C32.71 53.5437 32.4898 54.5737 32.0498 55.3837C31.7198 56.0437 31.2198 56.5537 30.5898 56.9137C29.1698 57.7237 27.4697 57.5537 25.4897 56.4037C23.4997 55.2637 21.7999 53.4637 20.3799 51.0237C18.9699 48.5837 18.2598 46.2237 18.2598 43.9437C18.2598 41.6637 18.9699 40.1237 20.3799 39.3137C21.5199 38.6637 22.8499 38.6437 24.3599 39.2737C24.7199 39.4137 25.0997 39.6037 25.4897 39.8237C27.4697 40.9737 29.1698 42.7637 30.5898 45.2037C31.9998 47.6437 32.71 50.0037 32.71 52.2837Z" class="pr-icon-iso-solid-stroke" stroke-linejoin="round"/>
    <path d="M40.0898 68.2937L32.71 71.9837L36.45 65.5637L38.1299 62.6737L40.0898 68.2937Z" class="pr-icon-iso-solid-stroke" stroke-linejoin="round"/>
    <path d="M43.5498 78.2338L36.45 74.1438L32.71 71.9837L40.0898 68.2938L43.5498 78.2338Z" class="pr-icon-iso-solid-stroke" stroke-linejoin="round"/>
    <path d="M79.8101 87.8737V103.534L59.8101 113.534V95.9137C62.1601 96.0937 64.22 95.7137 66 94.7737L68.9702 93.2937L79.8101 87.8737Z" class="pr-icon-iso-solid-stroke" stroke-linejoin="round"/>
    <path d="M48.9705 98.9837V99.4937L41.7402 103.104V94.8137L48.9705 98.9837Z" class="pr-icon-iso-solid-stroke" stroke-linejoin="round"/>
    <path d="M34.52 90.6438V91.1537L27.29 94.7638V86.4738L34.52 90.6438Z" class="pr-icon-iso-solid-stroke" stroke-linejoin="round"/>
    <path d="M94.26 66.2738C94.26 69.1738 93.9401 71.8638 93.3101 74.3338C92.6801 76.8038 91.75 78.9238 90.51 80.6938C89.28 82.4738 87.77 83.8337 86 84.7737L85.4302 85.0537L79.8101 87.8737L68.9702 93.2938L66 94.7737C67.09 94.1937 68.0802 93.4538 68.9702 92.5638C69.5202 92.0038 70.04 91.3738 70.51 90.6938C71.75 88.9238 72.6801 86.8037 73.3101 84.3337C73.9401 81.8637 74.26 79.1737 74.26 76.2737C74.26 71.4137 73.59 66.5538 72.24 61.6938C70.68 56.0038 68.19 50.3037 64.77 44.6237C64.56 44.2837 64.3501 43.9337 64.1401 43.5937C57.4001 32.7137 48.7301 24.2238 38.1301 18.1038C32.9401 15.1138 28.2202 13.2238 23.9602 12.4338C19.5102 11.6038 15.5601 11.9738 12.1201 13.5538L32.1201 3.55375C38.8601 0.463754 47.5301 1.98376 58.1301 8.10376C68.7301 14.2238 77.4001 22.7137 84.1401 33.5937C90.8901 44.4637 94.26 55.3538 94.26 66.2738Z" class="pr-icon-iso-solid-stroke" stroke-linejoin="round"/>
</svg>