<svg width="24" height="24" viewBox="0 0 83 119" xmlns="http://www.w3.org/2000/svg" stroke-width="1px" stroke-linecap="round" stroke-linejoin="round">
    <path d="M59.01 45.1097L43.6899 36.2698L30.6401 28.7297L24.0701 24.9397L2 12.1997L9.18018 91.2097L53.54 116.82L55.6101 96.4697L60.6301 46.9597L60.72 46.1097L59.01 45.1097ZM35.97 70.7897C34.69 71.5197 33.1501 71.3597 31.3601 70.3297C30.0801 69.5797 28.9202 68.5397 27.9102 67.1997C27.5002 66.6697 27.11 66.0897 26.75 65.4697C25.47 63.2597 24.8401 61.1297 24.8401 59.0697C24.8401 57.0097 25.47 55.6198 26.75 54.8898C26.76 54.8898 26.78 54.8898 26.79 54.8698C28.06 54.1598 29.5901 54.3297 31.3601 55.3497C33.1501 56.3897 34.69 58.0097 35.97 60.2097C37.25 62.4197 37.8801 64.5497 37.8801 66.6097C37.8801 68.6697 37.25 70.0597 35.97 70.7897ZM53.3201 49.8497L52.25 60.7797L51.98 63.5198L39.99 56.5997C38.85 54.7597 37.5501 53.0797 36.0801 51.5797C34.6101 50.0797 33.0401 48.8398 31.3501 47.8698C29.6601 46.8898 28.0901 46.3098 26.6201 46.1198C26.4001 46.0898 26.19 46.0697 25.98 46.0597C24.77 45.9797 23.68 46.1698 22.71 46.6198L10.72 39.6997L9.25 23.8798L24.6201 32.7498L24.77 32.8397L36.6101 39.6697L46.25 45.2397L53.3701 49.3497L53.3201 49.8497Z" class="pr-icon-iso-solid-stroke" stroke-linejoin="round"/>
    <path d="M24.6199 32.7499L10.7297 39.6998L9.25977 23.8799L24.6199 32.7499Z" class="pr-icon-iso-solid-stroke" stroke-linejoin="round"/>
    <path d="M53.3701 49.3497L53.3201 49.8497L45.8201 53.6398L39.99 56.5997C38.85 54.7597 37.5501 53.0797 36.0801 51.5797C34.6101 50.0797 33.0401 48.8398 31.3501 47.8698C29.6601 46.8898 28.0901 46.3098 26.6201 46.1198C26.4001 46.0898 26.19 46.0697 25.98 46.0597C24.77 45.9797 23.68 46.1698 22.71 46.6198L25.8801 45.0297L36.6101 39.6697L46.25 45.2397L53.3701 49.3497Z" class="pr-icon-iso-solid-stroke" stroke-linejoin="round"/>
    <path d="M53.3201 49.8496L52.26 60.7795L51.99 63.5197L40 56.5996L45.8201 53.6396L53.3201 49.8496Z" class="pr-icon-iso-solid-stroke" stroke-linejoin="round"/>
    <path d="M37.8701 66.6096C37.8701 68.6696 37.24 70.0595 35.96 70.7895C34.68 71.5195 33.1401 71.3596 31.3501 70.3296C30.0701 69.5796 28.9101 68.5396 27.9001 67.1996C27.4901 66.6696 27.1 66.0896 26.74 65.4696C25.46 63.2596 24.8301 61.1296 24.8301 59.0696C24.8301 57.0096 25.46 55.6196 26.74 54.8896C26.75 54.8896 26.77 54.8896 26.78 54.8696C28.05 54.1596 29.5801 54.3296 31.3501 55.3496C33.1401 56.3896 34.68 58.0096 35.96 60.2096C37.24 62.4196 37.8701 64.5496 37.8701 66.6096Z" class="pr-icon-iso-solid-stroke" stroke-linejoin="round"/>
    <path d="M80.72 36.0997L60.72 46.0997L59.01 45.1097L43.6899 36.2698L30.6301 28.7297L24.0701 24.9397L2 12.1997L22 2.19971L80.72 36.0997Z" class="pr-icon-iso-solid-stroke" stroke-linejoin="round"/>
    <path d="M36.6101 39.6697L25.8801 45.0297L22.72 46.6198L10.73 39.6997L24.6201 32.7498L24.78 32.8397L36.6101 39.6697Z" class="pr-icon-iso-solid-stroke" stroke-linejoin="round"/>
    <path d="M80.72 36.0996L73.54 106.82L53.54 116.82L55.6101 96.4696L60.6201 46.9596L60.72 46.1096V46.0996L80.72 36.0996Z" class="pr-icon-iso-solid-stroke" stroke-linejoin="round"/>
</svg>