<svg width="48" height="48" viewBox="0 0 91 114" fill="#229EFF" xmlns="http://www.w3.org/2000/svg" stroke-width="1px" stroke-linecap="round" stroke-linejoin="round"><path d="M58.6492 44.995L51.9893 41.1549L35.3494 31.5449L22.0293 23.855L2.0293 12.3049V73.4349L68.6194 111.885V50.755L58.6492 44.995ZM31.9893 75.455L15.3494 65.845V35.2749L22.0293 39.135L31.9893 44.895V75.455ZM55.2993 88.9149L38.6492 79.2949V48.735L51.9893 56.4349L55.2993 58.345V88.9149Z" stroke="white" stroke-linejoin="round"/><path d="M55.2986 58.3448V70.9749L44.4585 76.3849L38.6484 79.2948V48.7349L51.9885 56.4348L55.2986 58.3448Z" stroke="white" stroke-linejoin="round"/><path d="M31.9895 57.5249V75.455L15.3496 65.845L22.0295 62.505L31.9895 57.5249Z" stroke="white" stroke-linejoin="round"/><path d="M55.2986 70.9751V88.915L38.6484 79.295L44.4585 76.3851L55.2986 70.9751Z" stroke="white" stroke-linejoin="round"/><path d="M31.9895 44.895V57.5249L22.0295 62.505L15.3496 65.845V35.2749L22.0295 39.135L31.9895 44.895Z" stroke="white" stroke-linejoin="round"/><path d="M88.6191 40.7549V101.885L68.6191 111.885V50.7549L74.439 47.8448L88.6191 40.7549Z" stroke="white" stroke-linejoin="round"/><path d="M88.6194 40.755L74.4392 47.845L68.6194 50.755L58.6492 44.995L51.9893 41.1549L35.3494 31.5449L22.0293 23.855L2.0293 12.3049L22.0293 2.30493L88.6194 40.755Z" stroke="white" stroke-linejoin="round"/></svg>