<svg width="48" height="48" viewBox="0 0 130 99" xmlns="http://www.w3.org/2000/svg" stroke-width="1px"
     stroke-linecap="round" stroke-linejoin="round">
    <path d="M33.4301 37.83C32.8201 34.1 31.39 30.3 29.15 26.43C27.16 23 24.89 20.14 22.35 17.87C20.95 16.61 19.46 15.53 17.89 14.62C13.8 12.25 10.2699 11.75 7.31995 13.1L6.64001 13.44C3.55001 15.2 2 18.61 2 23.68C2 28.75 3.55001 33.94 6.64001 39.27C9.73001 44.6 13.48 48.54 17.89 51.08C22.31 53.63 26.06 54.03 29.15 52.26C32.24 50.5 33.7799 47.09 33.7799 42.02C33.7799 40.63 33.6701 39.24 33.4301 37.83ZM21.67 39.36C20.65 39.94 19.39 39.79 17.89 38.93C16.39 38.06 15.13 36.75 14.12 35C13.1 33.25 12.6 31.51 12.6 29.79C12.6 28.07 13.1 26.92 14.12 26.34C15.13 25.76 16.39 25.91 17.89 26.77C19.39 27.64 20.65 28.95 21.67 30.7C22.68 32.45 23.1901 34.19 23.1901 35.91C23.1901 37.63 22.68 38.78 21.67 39.36Z" class="pr-icon-iso-solid-stroke" stroke-linejoin="round"/>
    <path d="M23.1897 35.9101C23.1897 37.6301 22.6797 38.78 21.6697 39.36C20.6497 39.94 19.3896 39.79 17.8896 38.93C16.3896 38.06 15.1296 36.75 14.1196 35C13.0996 33.25 12.5996 31.5101 12.5996 29.7901C12.5996 28.0701 13.0996 26.92 14.1196 26.34C15.1296 25.76 16.3896 25.91 17.8896 26.77C19.3896 27.64 20.6497 28.95 21.6697 30.7C22.6797 32.45 23.1897 34.1901 23.1897 35.9101Z" class="pr-icon-iso-solid-stroke" stroke-linejoin="round"/>
    <path d="M107.93 84.8401C107.93 89.9001 106.39 93.31 103.3 95.08C100.21 96.84 96.4603 96.4401 92.0403 93.9001C87.6303 91.3501 83.8803 87.41 80.7903 82.08C78.1403 77.51 76.6205 73.0401 76.2505 68.6601C76.1805 67.9401 76.1504 67.21 76.1504 66.49C76.1504 65.32 76.2304 64.24 76.4004 63.25C76.9504 59.93 78.4103 57.6 80.7903 56.25L81.4705 55.9101C84.0705 54.7201 87.1204 54.9701 90.6104 56.6701C91.0804 56.8901 91.5503 57.15 92.0403 57.43C93.6103 58.33 95.1005 59.42 96.5005 60.69C99.0405 62.96 101.31 65.82 103.3 69.25C105.54 73.11 106.97 76.9 107.58 80.63C107.81 82.04 107.93 83.4401 107.93 84.8401Z" class="pr-icon-iso-solid-stroke" stroke-linejoin="round"/>
    <path d="M70.51 59.2301C69.89 55.5001 68.4602 51.7101 66.2202 47.8401C64.2302 44.4101 61.9702 41.5501 59.4302 39.2801C58.0302 38.0101 56.5402 36.93 54.9702 36.02C54.4802 35.74 54 35.48 53.53 35.26C50.03 33.56 46.9901 33.31 44.3901 34.5L43.7102 34.8401C41.3302 36.1901 39.8701 38.5301 39.3301 41.8401C39.1601 42.8301 39.0801 43.91 39.0801 45.08C39.0801 45.8 39.1102 46.52 39.1702 47.25C39.5502 51.63 41.0602 56.1001 43.7102 60.6701C46.8002 66.0001 50.5502 69.94 54.9702 72.49C59.3802 75.04 63.1302 75.4301 66.2202 73.6701C69.3102 71.9101 70.8601 68.5 70.8601 63.43C70.8601 62.04 70.74 60.6401 70.51 59.2301ZM58.7402 60.77C57.7302 61.34 56.4702 61.2 54.9702 60.33C53.4702 59.47 52.2102 58.1601 51.1902 56.4101C50.1802 54.6601 49.6702 52.92 49.6702 51.2C49.6702 49.48 50.1802 48.33 51.1902 47.75C52.2102 47.17 53.4702 47.31 54.9702 48.18C56.4702 49.05 57.7302 50.35 58.7402 52.11C59.7602 53.86 60.27 55.59 60.27 57.31C60.27 59.03 59.7602 60.19 58.7402 60.77Z" class="pr-icon-iso-solid-stroke" stroke-linejoin="round"/>
    <path d="M60.2698 57.31C60.2698 59.04 59.76 60.19 58.74 60.77C57.73 61.34 56.47 61.2 54.97 60.33C53.47 59.47 52.2099 58.16 51.1899 56.41C50.1799 54.66 49.6699 52.92 49.6699 51.2C49.6699 49.48 50.1799 48.33 51.1899 47.75C52.2099 47.17 53.47 47.31 54.97 48.18C56.47 49.05 57.73 50.35 58.74 52.11C59.76 53.86 60.2698 55.59 60.2698 57.31Z" class="pr-icon-iso-solid-stroke" stroke-linejoin="round"/>
    <path d="M53.6804 29.85L44.3904 34.5L43.7104 34.84C41.3304 36.19 39.8703 38.53 39.3303 41.84C39.1603 42.83 39.0803 43.91 39.0803 45.08C39.0803 45.8 39.1104 46.52 39.1704 47.25L29.1504 52.26C32.2404 50.5 33.7803 47.09 33.7803 42.02C33.7803 40.63 33.6704 39.24 33.4304 37.83C32.8204 34.1 31.3904 30.3 29.1504 26.43C27.1604 23 24.8903 20.14 22.3503 17.87C20.9503 16.61 19.4604 15.53 17.8904 14.62C13.8004 12.25 10.2703 11.75 7.32031 13.1L26.6404 3.43998C29.7304 1.67998 33.4804 2.06998 37.8904 4.61998C42.3104 7.16998 46.0604 11.1 49.1504 16.43C51.8004 21 53.3104 25.47 53.6804 29.85Z" class="pr-icon-iso-solid-stroke" stroke-linejoin="round"/>
    <path d="M90.7595 51.26L81.4697 55.91L80.7896 56.25C78.4096 57.6 76.9497 59.93 76.3997 63.25C76.2297 64.24 76.1497 65.32 76.1497 66.49C76.1497 67.21 76.1798 67.94 76.2498 68.66L66.2197 73.67C69.3097 71.91 70.8596 68.5 70.8596 63.43C70.8596 62.04 70.7395 60.64 70.5095 59.23C69.8895 55.5 68.4597 51.71 66.2197 47.84C64.2297 44.41 61.9697 41.55 59.4297 39.28C58.0297 38.01 56.5397 36.93 54.9697 36.02C54.4797 35.74 53.9995 35.48 53.5295 35.26C50.0295 33.56 46.9896 33.31 44.3896 34.5L53.6797 29.85L63.7097 24.84C66.7997 23.08 70.5497 23.47 74.9697 26.02C79.3797 28.57 83.1297 32.51 86.2197 37.84C88.8697 42.41 90.3895 46.88 90.7595 51.26Z" class="pr-icon-iso-solid-stroke" stroke-linejoin="round"/>
    <path d="M127.93 74.84C127.93 79.9 126.39 83.31 123.3 85.08L122.62 85.42L103.3 95.08C106.39 93.31 107.93 89.9 107.93 84.84C107.93 83.44 107.81 82.04 107.58 80.63C106.97 76.9 105.54 73.11 103.3 69.25C101.31 65.82 99.0398 62.96 96.4998 60.69C95.0998 59.42 93.6096 58.33 92.0396 57.43C91.5496 57.15 91.0796 56.89 90.6096 56.67C87.1196 54.97 84.0697 54.72 81.4697 55.91L90.7595 51.26L100.79 46.25C103.88 44.49 107.63 44.88 112.04 47.43C116.46 49.98 120.21 53.92 123.3 59.25C126.39 64.57 127.93 69.77 127.93 74.84Z" class="pr-icon-iso-solid-stroke" stroke-linejoin="round"/>
</svg>