<svg width="48" height="48" viewBox="0 0 100 126" xmlns="http://www.w3.org/2000/svg" stroke-width="1px"
     stroke-linecap="round" stroke-linejoin="round">
    <path d="M77.0305 115.147L62.1907 123.607L57.0005 114.647L62.8406 111.207L61.3005 110.317L53.3906 105.757L47.3506 102.267V93.7469L52.9006 96.9468L61.3005 101.807L62.8406 102.697L62.1006 101.407L57.0005 92.5068L57.1606 92.4169L62.1907 89.5469L77.0305 115.147Z" class="pr-icon-iso-solid-stroke" stroke-linejoin="round"/>
    <path d="M28.8003 78.4565V80.9066C28.8003 86.2266 30.4204 91.6866 33.6704 97.2966C36.9104 102.897 40.8602 107.027 45.4902 109.707V118.227C38.8202 114.367 33.1304 108.387 28.4304 100.277C23.7304 92.1765 21.3804 84.2865 21.3804 76.6265V74.1766C16.0604 70.1066 11.6304 64.6965 8.11035 57.9465C4.58035 51.1965 2.82031 44.6266 2.82031 38.2366V12.6865L13.9504 19.1166V14.8566L21.3804 19.1365V36.1766L13.9504 31.8865V27.6265L10.2402 25.4866V42.5165C10.2402 47.2065 11.7003 52.0565 14.6003 57.0665C17.5103 62.0765 21.0003 65.7666 25.0903 68.1166C29.1703 70.4766 32.6603 70.8266 35.5703 69.1666C37.7703 67.9166 39.1404 65.7966 39.6704 62.7966C39.8504 61.8366 39.9304 60.7866 39.9304 59.6566V42.6265L36.2205 40.4866V44.7466L32.3403 42.4966L28.8003 40.4565V23.4266L30.2402 24.2565L36.2205 27.7065V31.9666L47.3503 38.3965V63.9465C47.3503 69.8765 45.8303 74.2265 42.7703 76.9565C42.5503 77.1665 42.3103 77.3566 42.0603 77.5466C41.6003 77.9066 41.1204 78.2166 40.6204 78.4866L39.8403 78.8765C36.7403 80.2565 33.0603 80.1165 28.8003 78.4565Z" class="pr-icon-iso-solid-stroke" stroke-linejoin="round"/>
    <path d="M97.0303 105.146L82.1904 113.607L62.1904 123.607L77.0303 115.146L81.7205 112.797L97.0303 105.146Z" class="pr-icon-iso-solid-stroke" stroke-linejoin="round"/>
    <path d="M57.1606 92.4161L57.0005 92.506L62.1006 101.406L62.8406 102.696L61.3005 101.806L52.9006 96.946L47.3506 93.7461L49.8005 92.5261L55.2405 89.7961L67.3506 83.7461L70.3406 85.4761L67.3506 86.9661L62.1907 89.5461L57.1606 92.4161Z" class="pr-icon-iso-solid-stroke" stroke-linejoin="round"/>
    <path d="M97.0303 105.147L81.7205 112.797L77.0303 115.147L62.1904 89.5469L67.3503 86.9669L70.3403 85.4769L82.1904 79.5469L97.0303 105.147Z" class="pr-icon-iso-solid-stroke" stroke-linejoin="round"/>
    <path d="M47.3503 102.266L53.3904 105.756L45.4902 109.706C40.8602 107.026 36.9104 102.896 33.6704 97.2961C30.4204 91.6861 28.8003 86.2261 28.8003 80.9061V78.4561C33.0603 80.1161 36.7403 80.2561 39.8403 78.8761L40.6204 78.4861L49.0203 74.2861C49.5503 78.5361 51.1004 82.8661 53.6704 87.2961C54.1704 88.1661 54.6902 88.9961 55.2402 89.7961L49.8003 92.5261L47.3503 93.7462V102.266Z" class="pr-icon-iso-solid-stroke" stroke-linejoin="round"/>
    <path d="M67.3501 28.3965V53.9465C67.3501 60.3265 65.5901 64.8665 62.0601 67.5465C61.6001 67.8965 61.1301 68.2065 60.6401 68.4765L59.7102 68.9365L49.02 74.2865L40.6201 78.4865C41.1201 78.2165 41.6001 77.9065 42.0601 77.5465C42.3101 77.3565 42.55 77.1665 42.77 76.9565C45.83 74.2265 47.3501 69.8765 47.3501 63.9465V38.3965L55.49 34.3265L56.2202 33.9665L59.4502 32.3465L67.3501 28.3965Z" class="pr-icon-iso-solid-stroke" stroke-linejoin="round"/>
    <path d="M67.3506 28.3968L59.4507 32.3468L56.2207 33.9668L55.4905 34.3268L47.3506 38.3968L36.2207 31.9668L56.2207 21.9668L67.3506 28.3968Z" class="pr-icon-iso-solid-stroke" stroke-linejoin="round"/>
    <path d="M56.2207 17.707V21.967L36.2207 31.967V27.707L40.4106 25.6171L41.3806 25.127L48.8005 21.4171L56.2207 17.707Z" class="pr-icon-iso-solid-stroke" stroke-linejoin="round"/>
    <path d="M56.2205 17.7067L48.8003 21.4167L41.3804 25.1267L40.4104 25.6168L36.2205 27.7067L30.2402 24.2567L28.8003 23.4268L30.2402 22.7067L33.9504 20.8568L41.3804 17.1367L48.8003 13.4268L56.2205 17.7067Z" class="pr-icon-iso-solid-stroke" stroke-linejoin="round"/>
    <path d="M39.9304 54.1363V59.6563C39.9304 60.7863 39.8504 61.8363 39.6704 62.7963C39.1404 65.7963 37.7703 67.9163 35.5703 69.1663C32.6603 70.8263 29.1703 70.4763 25.0903 68.1163C21.0003 65.7663 17.5103 62.0763 14.6003 57.0663C11.7003 52.0563 10.2402 47.2063 10.2402 42.5163V25.4863L13.9504 27.6263V31.8863L21.3804 36.1763L23.4902 35.1163L28.8003 32.4663V40.4563L32.3403 42.4963C32.9503 44.0063 33.7103 45.5263 34.6003 47.0663C36.2003 49.8263 37.9804 52.1863 39.9304 54.1363Z" class="pr-icon-iso-solid-stroke" stroke-linejoin="round"/>
    <path d="M41.3804 9.13672V17.1367L33.9504 20.8568L30.2402 22.7067L28.8003 23.4268V32.4667L23.4902 35.1168L21.3804 36.1768V19.1367L22.8203 18.4167L41.3804 9.13672Z" class="pr-icon-iso-solid-stroke" stroke-linejoin="round"/>
    <path d="M30.0002 6.83655L22.8203 10.4266L13.9504 14.8566V19.1166L2.82031 12.6865L22.8203 2.68652L30.0002 6.83655Z" class="pr-icon-iso-solid-stroke" stroke-linejoin="round"/>
    <path d="M41.3801 9.13641L22.8201 18.4164L21.3801 19.1364L13.9502 14.8564L22.8201 10.4265L30 6.83643L33.9502 4.85645L41.3801 9.13641Z" class="pr-icon-iso-solid-stroke" stroke-linejoin="round"/>
    <path d="M39.9307 42.8965L36.2207 44.7465" class="pr-icon-iso-solid-stroke" stroke-linejoin="round"/>
    <path d="M61.3003 110.317L45.4902 118.227V109.707L53.3904 105.757L61.3003 110.317Z" class="pr-icon-iso-solid-stroke" stroke-linejoin="round"/>
</svg>