<svg width="48" height="48" viewBox="0 0 87 108" xmlns="http://www.w3.org/2000/svg" stroke-width="1px"
     stroke-linecap="round" stroke-linejoin="round">
    <path d="M43.0142 42.5098V42.6998L43.1842 42.7998L43.0142 42.5098Z" class="pr-icon-iso-solid-stroke" stroke-linejoin="round"/>
    <path d="M49.244 62.0199L44.364 64.7999L38.134 68.3499L33.674 70.8899L29.214 63.1999L25.784 57.2899L22.544 51.6999L18.104 44.0399L22.464 41.5499L22.544 41.6899L28.764 52.4199L30.564 55.5199V28.3599L30.974 28.5999L36.784 31.9599V59.1099L44.884 54.4999L49.244 62.0199Z" class="pr-icon-iso-solid-stroke" stroke-linejoin="round"/>
    <path d="M58.5838 57.3499V58.0899L53.6738 60.8899L45.0538 65.1999L38.4238 68.5199L33.6738 70.8899L38.1338 68.3499L44.3638 64.7999L49.2438 62.0199L53.1838 60.0499L58.5838 57.3499Z" class="pr-icon-iso-solid-stroke" stroke-linejoin="round"/>
    <path d="M58.5838 51.69V57.35L53.1838 60.05L49.2438 62.02L44.8838 54.5L48.8238 52.53L54.8338 49.52L58.5838 51.69Z" class="pr-icon-iso-solid-stroke" stroke-linejoin="round"/>
    <path d="M43.0142 42.7L43.1842 42.8L54.8342 49.52L48.8242 52.53L44.8842 54.5L36.7842 59.11V31.96L50.5642 25.07L56.7842 21.96V28.68L50.5642 31.79L44.3942 34.87L43.0142 35.56V42.7Z" class="pr-icon-iso-solid-stroke" stroke-linejoin="round"/>
    <path d="M56.784 21.9599L50.564 25.0699L36.784 31.9599L30.974 28.5999L30.564 28.3599L43.924 21.6799L44.334 21.4799L50.564 18.3599L56.784 21.9599Z" class="pr-icon-iso-solid-stroke" stroke-linejoin="round"/>
    <path d="M22.4642 41.5499L18.1042 44.0399L22.5442 51.6999L25.7842 57.2899L22.5442 58.9099L8.76416 65.7999V22.9299L22.5442 30.8899L24.3342 31.9199L28.7642 29.7099V38.3999L22.5442 41.5099L22.4642 41.5499Z" class="pr-icon-iso-solid-stroke" stroke-linejoin="round"/>
    <path d="M44.334 14.77V21.48L43.924 21.68L30.564 28.36V28.81L28.764 29.71L24.334 31.92V24.77L28.764 22.56L37.694 18.09L44.334 14.77Z" class="pr-icon-iso-solid-stroke" stroke-linejoin="round"/>
    <path d="M64.8139 48.1399V105.3L2.54395 69.3499V12.1899L22.5439 23.7399L24.3339 24.7699V31.9199L22.5439 30.8899L8.76395 22.9299V65.7999L58.5839 94.5599V51.6899L54.8339 49.5199L43.1839 42.7999L43.0139 42.5099V35.5599L45.6839 37.0999L50.5639 39.9199L56.7839 43.5099L61.4639 46.2099L61.6739 46.3299L64.8139 48.1399Z" class="pr-icon-iso-solid-stroke" stroke-linejoin="round"/>
    <path d="M58.5842 73.01V94.56L8.76416 65.8L22.5442 58.91L25.7842 57.29L29.2142 63.2L33.6742 70.89L38.4242 68.52L45.0542 65.2L58.5842 73.01Z" class="pr-icon-iso-solid-stroke" stroke-linejoin="round"/>
    <path d="M84.8142 38.1401L78.1842 41.4601L66.5042 47.2901L64.8142 48.1401L61.6742 46.3301L61.4642 46.2101L56.7842 43.5101L50.5642 39.9201L45.6842 37.1001L43.0142 35.5601L44.3942 34.8701L50.5642 31.7901L56.7842 28.6801L63.0142 25.5601L84.8142 38.1401Z" class="pr-icon-iso-solid-stroke" stroke-linejoin="round"/>
    <path d="M44.3339 14.7699L37.6939 18.0899L28.7639 22.5599L24.3339 24.7699L22.5439 23.7399L2.54395 12.1899L22.5439 2.18994L44.3339 14.7699Z" class="pr-icon-iso-solid-stroke" stroke-linejoin="round"/>
    <path d="M30.5639 37.5V55.52L28.7639 52.42L22.5439 41.69V41.51L28.7639 38.4L30.5639 37.5Z" class="pr-icon-iso-solid-stroke" stroke-linejoin="round"/>
    <path d="M84.814 38.1399V95.2999L64.814 105.3V48.1399L66.504 47.2899L78.184 41.4599L84.814 38.1399Z" class="pr-icon-iso-solid-stroke" stroke-linejoin="round"/>
</svg>