<svg width="48" height="48" viewBox="0 0 96 121" fill="#229EFF" xmlns="http://www.w3.org/2000/svg" stroke-width="1px" stroke-linecap="round" stroke-linejoin="round"><path d="M59.4894 44.9193L22.5293 23.5793L2.5293 12.0293V73.7194L33.7793 91.7593C33.4393 90.3493 33.1894 88.9493 33.0194 87.5593C32.8494 86.1793 32.7694 84.8194 32.7694 83.4694C32.7694 78.3394 33.8494 74.3493 36.0094 71.4993C36.9994 70.2093 38.1994 69.1594 39.6194 68.3394C43.4494 66.1194 47.9693 66.1594 53.1793 68.4694C54.1593 68.8994 55.1694 69.4093 56.2094 70.0093C56.3994 70.1193 56.5993 70.2393 56.7893 70.3593C57.8793 71.0193 58.9693 71.7594 60.0393 72.5894C61.1393 73.4294 62.2193 74.3493 63.2993 75.3593C65.6293 77.5393 67.7694 79.9994 69.7294 82.7294V50.8293L59.4894 44.9193ZM63.0094 70.0793L61.5194 69.2194L60.3794 68.5593L54.1294 64.9493L39.4894 56.4993V41.0793L53.7993 49.3394L63.0094 54.6593V70.0793Z" stroke="white" stroke-linejoin="round"/><path d="M63.0103 54.6593V70.0793L61.5203 69.2194L60.3802 68.5593L54.1302 64.9493L39.4902 56.4993L53.8002 49.3394L63.0103 54.6593Z" stroke="white" stroke-linejoin="round"/><path d="M72.9502 104.039C72.4902 99.5593 70.9002 94.9693 68.1702 90.2693C68.1402 90.2193 68.1102 90.1693 68.0802 90.1193C65.6402 85.9393 62.8302 82.5793 59.6302 80.0493C58.5602 79.1893 57.4502 78.4393 56.2902 77.7693C55.1102 77.0893 53.9702 76.5493 52.8802 76.1793C50.0002 75.1493 47.4302 75.1393 45.1702 76.1793L44.5902 76.4594L44.4003 76.5593C41.1303 78.4193 39.4902 82.0193 39.4902 87.3593C39.4902 87.8693 39.4902 88.3793 39.5402 88.8893C39.8202 93.7393 41.4403 98.7194 44.4003 103.829C47.6803 109.479 51.6402 113.649 56.2902 116.329C60.9402 119.019 64.9002 119.419 68.1702 117.559C71.4502 115.689 73.0902 112.089 73.0902 106.759C73.0902 105.859 73.0402 104.959 72.9502 104.049V104.039ZM61.8302 109.309L54.6102 96.8494V84.5093L57.9702 86.4494V97.2393L64.1902 107.969L61.8302 109.309Z" stroke="white" stroke-linejoin="round"/><path d="M64.1893 107.969L61.8293 109.309L54.6094 96.8495L57.9694 95.1694V97.2394L64.1893 107.969Z" stroke="white" stroke-linejoin="round"/><path d="M57.9694 86.4493V95.1693L54.6094 96.8494V84.5093L57.9694 86.4493Z" stroke="white" stroke-linejoin="round"/><path d="M93.09 96.7491C93.09 102.079 91.4499 105.679 88.1699 107.549L87.33 107.969L68.1699 117.549C71.4499 115.679 73.09 112.079 73.09 106.749C73.09 105.849 73.04 104.949 72.95 104.039C72.49 99.5592 70.8999 94.9692 68.1699 90.2692C68.1399 90.2192 68.11 90.1691 68.08 90.1191C65.64 85.9391 62.83 82.5792 59.63 80.0492C58.56 79.1892 57.4499 78.4392 56.2899 77.7692C55.1099 77.0892 53.97 76.5492 52.88 76.1792C50 75.1492 47.4299 75.1392 45.1699 76.1792L52.7899 72.3691L56.7899 70.3691C57.8799 71.0291 58.9699 71.7692 60.0399 72.5992C61.1399 73.4392 62.2199 74.3591 63.2999 75.3691C65.6299 77.5491 67.77 80.0091 69.73 82.7391L84.75 75.2292C85.97 76.7492 87.1099 78.4392 88.1699 80.2792C91.4499 85.9292 93.09 91.4192 93.09 96.7592V96.7491Z" stroke="white" stroke-linejoin="round"/><path d="M53.8002 49.3394L39.4902 56.4993V41.0793L53.8002 49.3394Z" stroke="white" stroke-linejoin="round"/><path d="M89.7294 40.8293L69.7294 50.8293L59.4894 44.9193L22.5293 23.5793L2.5293 12.0293L22.5293 2.0293L89.7294 40.8293Z" stroke="white" stroke-linejoin="round"/><path d="M89.7285 40.8293V72.7294L69.7285 82.7294V50.8293L89.7285 40.8293Z" stroke="white" stroke-linejoin="round"/><path d="M53.1794 68.4694C52.9594 69.6694 52.8294 70.9694 52.7894 72.3494L45.1694 76.1694L44.5895 76.4494L44.3995 76.5494C41.1295 78.4094 39.4895 82.0094 39.4895 87.3494C39.4895 87.8594 39.4894 88.3693 39.5394 88.8793L33.7794 91.7593C33.4394 90.3493 33.1895 88.9494 33.0195 87.5594C32.8495 86.1794 32.7695 84.8194 32.7695 83.4694C32.7695 78.3394 33.8495 74.3493 36.0095 71.4993C36.9995 70.2093 38.1995 69.1594 39.6195 68.3394C43.4495 66.1194 47.9694 66.1594 53.1794 68.4694Z" stroke="white" stroke-linejoin="round"/></svg>