<svg width="48" height="48" viewBox="0 0 89 111" xmlns="http://www.w3.org/2000/svg" stroke-width="1px"
     stroke-linecap="round" stroke-linejoin="round">
    <path d="M8.41 75.4302V23.9401L2 20.2401V79.0901L53.28 108.69V101.34L8.41 75.4302ZM22 17.0801V17.1501L22.06 17.1101L22 17.0801Z" class="pr-icon-iso-solid-stroke" stroke-linejoin="round"/>
    <path d="M22 17.0801V17.1501L22.06 17.1101L22 17.0801Z" class="pr-icon-iso-solid-stroke" stroke-linejoin="round"/>
    <path d="M86.0996 32.54V91.38L73.2796 97.79L72.4396 98.21L66.0996 101.38V42.54L68.9096 41.13L86.0996 32.54Z" class="pr-icon-iso-solid-stroke" stroke-linejoin="round"/>
    <path d="M86.1003 32.5402L68.9103 41.1301L66.1003 42.5402L62.8403 40.6501L58.0803 37.9102L49.3803 32.8801L34.8203 24.4801L28.4103 20.7802L22.0603 17.1101L22.0003 17.0801L15.6603 13.4102L14.8203 12.9302L34.8203 2.93018L86.1003 32.5402Z" class="pr-icon-iso-solid-stroke" stroke-linejoin="round"/>
    <path d="M14.82 13.8301V20.7401L8.41 23.9401L2 20.2401L14.82 13.8301Z" class="pr-icon-iso-solid-stroke" stroke-linejoin="round"/>
    <path d="M62.8403 40.6501L58.0803 37.9102L49.3803 32.8801L34.8203 24.4801L28.4103 20.7802L22.0603 17.1101L22.0003 17.1501V17.0801L15.6603 13.4102L14.8203 12.9302V71.7802L15.2303 72.0201L60.1103 97.9202L66.1003 101.38V42.5402L62.8403 40.6501ZM45.0903 59.9901L51.6803 71.3601L51.5503 71.4401L47.1903 73.9202L42.8303 66.4102L40.4603 62.3102L38.0803 63.6602L33.7303 66.1401L29.2403 58.4001L34.8203 55.2201L35.9703 54.5701L34.8203 52.5901L29.2403 42.9601L33.7303 40.4001L34.8203 42.2802L40.4603 52.0101L47.1903 48.1702L47.5503 48.7802L47.7503 49.1401L51.6803 55.9102L44.9503 59.7501L45.0903 59.9901Z" class="pr-icon-iso-solid-stroke" stroke-linejoin="round"/>
    <path d="M51.68 71.3602L51.55 71.4402L47.19 73.9203L42.83 66.4103L40.46 62.3103L45.09 59.9902L51.68 71.3602Z" class="pr-icon-iso-solid-stroke" stroke-linejoin="round"/>
    <path d="M47.7502 49.1403L34.8202 55.6102L29.2402 58.4003L34.8202 55.2202L35.9702 54.5702L47.5502 48.7803L47.7502 49.1403Z" class="pr-icon-iso-solid-stroke" stroke-linejoin="round"/>
    <path d="M44.9502 59.7501L45.0902 59.9901L40.4602 62.3102L38.0802 63.6602L33.7302 66.1401L29.2402 58.4001L34.8202 55.6101L47.7502 49.1401L51.6802 55.9102L44.9502 59.7501Z" class="pr-icon-iso-solid-stroke" stroke-linejoin="round"/>
    <path d="M47.5502 48.7804L35.9702 54.5703L34.8202 52.5903L29.2402 42.9603L33.7302 40.4004L34.8202 42.2804L40.4602 52.0104L47.1902 48.1704L47.5502 48.7804Z" class="pr-icon-iso-solid-stroke" stroke-linejoin="round"/>
    <path d="M15.2302 72.0203L8.41016 75.4303V23.9402L14.8202 20.7402V71.7803L15.2302 72.0203Z" class="pr-icon-iso-solid-stroke" stroke-linejoin="round"/>
    <path d="M60.1102 97.92L53.2802 101.34L8.41016 75.4301L15.2302 72.02L60.1102 97.92Z" class="pr-icon-iso-solid-stroke" stroke-linejoin="round"/>
    <path d="M73.2803 97.79V98.6899L53.2803 108.69V101.34L60.1103 97.92L66.1003 101.38L72.4403 98.21L73.2803 97.79Z" class="pr-icon-iso-solid-stroke" stroke-linejoin="round"/>
</svg>