<svg width="48" height="48" viewBox="0 0 96 121" fill="#229EFF" xmlns="http://www.w3.org/2000/svg" stroke-width="1px" stroke-linecap="round" stroke-linejoin="round"><path d="M22.5 56.4698V65.0298L26.21 62.8698L22.5 56.4698ZM22.5 40.3398V43.9198L25.82 42.2598L22.5 40.3398Z" stroke="white" stroke-linejoin="round"/><path d="M43.06 35.92L41 34.72L40.95 34.7L29.61 28.15L22.5 24.05L2.5 12.5V77.71L73.54 118.73V53.51L43.06 35.92ZM66.44 106.47L9.61 73.66V32.9L22.5 40.34L25.82 42.26L29.61 44.45L45.21 53.45L55.17 59.2L55.23 59.24L66.44 65.71V106.47Z" stroke="white" stroke-linejoin="round"/><path d="M66.44 72.6998V86.5898L60.41 89.5998L59.34 90.1398L38.02 77.8398L39.1 77.2999L46.68 73.5098L58.02 67.8398L66.44 72.6998Z" stroke="white" stroke-linejoin="round"/><path d="M55.23 59.2402L42.04 66.7602L38.26 68.6502L30.69 72.4402L22.04 76.7602L30.16 72.1302L36.25 68.6602L37.33 68.1202L55.17 59.2002L55.23 59.2402Z" stroke="white" stroke-linejoin="round"/><path d="M66.44 94.7499V106.47L9.60999 73.6599L17.86 69.5399L22.04 76.7599L30.69 72.4399L38.26 68.6499L46.68 73.5099L39.1 77.2999L38.02 77.8399V85.9899L59.34 98.2999L66.44 94.7499Z" stroke="white" stroke-linejoin="round"/><path d="M36.25 68.6599L30.16 72.1299L22.04 76.7599L17.86 69.5399L17.07 68.1799L22.5 65.0299L26.21 62.8699L22.5 56.4699L16.98 46.9399L22.04 44.1499L22.5 44.9399L29.61 57.2099L35.23 66.9099L36.25 68.6599Z" stroke="white" stroke-linejoin="round"/><path d="M22.04 44.1499L16.98 46.9399L22.5 56.4699V65.0299L17.07 68.1799L17.86 69.5399L9.60999 73.6599V32.8999L22.5 40.3399V43.9199L22.04 44.1499Z" stroke="white" stroke-linejoin="round"/><path d="M55.17 59.1998L37.33 68.1198L36.25 68.6598L35.23 66.9098L29.61 57.2098L22.5 44.9398L22.04 44.1498L22.5 43.9198L25.82 42.2598L29.61 44.4498L45.21 53.4498L55.17 59.1998Z" stroke="white" stroke-linejoin="round"/><path d="M59.34 90.1398V98.2999L38.02 85.9898V77.8398L59.34 90.1398Z" stroke="white" stroke-linejoin="round"/><path d="M66.44 86.5898V94.7498L59.34 98.2999V90.1398L60.41 89.5998L66.44 86.5898Z" stroke="white" stroke-linejoin="round"/><path d="M93.54 43.5098V108.73L73.54 118.73V53.5098L78.41 51.0698L93.54 43.5098Z" stroke="white" stroke-linejoin="round"/><path d="M93.54 43.51L78.41 51.07L73.54 53.51L43.06 35.92L41 34.72L40.95 34.7L29.61 28.15L22.5 24.05L2.5 12.5L22.5 2.5L93.54 43.51Z" stroke="white" stroke-linejoin="round"/></svg>