<svg width="24" height="24" viewBox="0 0 110 108" xmlns="http://www.w3.org/2000/svg" stroke-width="1px" stroke-linecap="round" stroke-linejoin="round">
    <path d="M34.2002 28.1102L35.6002 27.4102C35.1202 27.6102 34.6602 27.8502 34.2002 28.1102Z" class="pr-icon-iso-solid-stroke" stroke-linejoin="round"/>
    <path d="M13.99 26.2001C11.15 29.1501 9.73 33.4701 9.73 39.1701C9.73 44.8701 11.15 50.8202 13.99 57.0502C16.83 63.2702 20.56 68.6502 25.2 73.1802V82.5002C18.37 76.4802 12.8 69.0402 8.48 60.1902C4.16 51.3302 2 42.8401 2 34.7001C2 26.5601 4.16 20.5601 8.48 16.7001C9.55 15.7401 10.7 14.9601 11.92 14.3501L11.99 14.3202C15.38 12.6602 19.34 12.3501 23.9 13.3901C24.33 13.4801 24.76 13.5901 25.2 13.7101V23.0301C24.1 22.8301 23.05 22.7402 22.05 22.7502C18.84 22.8002 16.15 23.9501 13.99 26.2001Z" class="pr-icon-iso-solid-stroke" stroke-linejoin="round"/>
    <path d="M45.2002 3.71012L25.2002 13.7101C24.7602 13.5901 24.3302 13.4801 23.9002 13.3901C19.3402 12.3501 15.3802 12.6602 11.9902 14.3202L31.3702 4.64012L31.5002 4.57017C35.3002 2.53017 39.8702 2.24012 45.2002 3.71012Z" class="pr-icon-iso-solid-stroke" stroke-linejoin="round"/>
    <path d="M45.2002 3.71014V13.0302L31.4902 19.8802V19.8901L25.2002 23.0302V13.7101L45.2002 3.71014Z" class="pr-icon-iso-solid-stroke" stroke-linejoin="round"/>
    <path d="M25.2005 48.1002C25.2005 55.5002 26.8705 63.0302 30.2205 70.6702L25.2005 73.1802C20.5605 68.6502 16.8305 63.2702 13.9905 57.0502C11.1505 50.8202 9.73047 44.8602 9.73047 39.1702C9.73047 33.4802 11.1505 29.1501 13.9905 26.2001C16.1505 23.9501 18.8405 22.8002 22.0505 22.7502C23.0505 22.7402 24.1005 22.8302 25.2005 23.0302L31.4905 19.8901C30.3205 22.4201 29.7305 25.5002 29.7305 29.1702C29.7305 30.0402 29.7605 30.9202 29.8405 31.8002C27.4905 34.6402 26.0505 38.4402 25.4905 43.1802C25.2905 44.7202 25.2005 46.3602 25.2005 48.1002Z" class="pr-icon-iso-solid-stroke" stroke-linejoin="round"/>
    <path d="M87.0902 83.8301C87.0902 88.3201 86.4702 92.1402 85.2402 95.3002C83.7602 99.1102 81.3702 101.95 78.0902 103.82C72.1002 107.24 64.7802 106.46 56.1502 101.47C47.5102 96.4802 40.1902 88.8202 34.2002 78.4802C34.1302 78.3602 34.0602 78.2302 33.9902 78.1102C32.5602 75.6202 31.3002 73.1402 30.2202 70.6702C26.8702 63.0302 25.2002 55.5002 25.2002 48.1002C25.2002 46.3602 25.2902 44.7202 25.4902 43.1802C26.0502 38.4402 27.4902 34.6402 29.8402 31.8002C31.0402 30.3102 32.5002 29.0802 34.2002 28.1102L35.6002 27.4102C39.0102 25.8702 42.8302 25.6102 47.0502 26.6302C49.9002 27.3302 52.9302 28.6001 56.1502 30.4601C64.7802 35.4501 72.1002 43.1101 78.0902 53.4501C84.0902 63.7901 87.0902 73.9201 87.0902 83.8301Z" class="pr-icon-iso-solid-stroke" stroke-linejoin="round"/>
    <path d="M33.9902 78.1102L25.2002 82.5002V73.1802L30.2202 70.6702C31.3002 73.1402 32.5602 75.6202 33.9902 78.1102Z" class="pr-icon-iso-solid-stroke" stroke-linejoin="round"/>
    <path d="M107.09 73.8302C107.09 83.7402 104.09 90.4002 98.0896 93.8202C97.4696 94.1702 96.8396 94.4802 96.1896 94.7402H96.1796L78.0896 103.82C81.3696 101.95 83.7596 99.1102 85.2396 95.3002C86.4696 92.1402 87.0896 88.3202 87.0896 83.8302C87.0896 73.9202 84.0896 63.7902 78.0896 53.4502C72.0996 43.1102 64.7796 35.4502 56.1496 30.4602C52.9296 28.6002 49.8996 27.3302 47.0496 26.6302C42.8296 25.6102 39.0096 25.8702 35.5996 27.4102L54.1996 18.1102C60.1896 14.6902 67.5096 15.4702 76.1496 20.4602C84.7796 25.4502 92.0996 33.1102 98.0896 43.4502C104.09 53.7902 107.09 63.9202 107.09 73.8302Z" class="pr-icon-iso-solid-stroke" stroke-linejoin="round"/>
</svg>