<svg width="48" height="48" viewBox="0 0 93 128" fill="#229EFF" xmlns="http://www.w3.org/2000/svg" stroke-width="1px" stroke-linecap="round" stroke-linejoin="round"><path d="M70.3296 62.7027V125.023L61.2795 119.803V57.4727C61.2795 51.7627 59.5095 45.8527 55.9595 39.7327C52.8795 34.4127 49.2496 30.3127 45.0696 27.4527C44.4496 27.0227 43.8194 26.6228 43.1794 26.2528C40.5994 24.7628 38.2095 23.9328 36.0195 23.7628C33.9795 23.5928 32.0996 24.0027 30.3896 24.9727C27.8096 26.4427 26.1595 28.9027 25.4695 32.3327C25.4395 32.4227 25.4297 32.5027 25.4097 32.5927C25.1797 33.8027 25.0696 35.1227 25.0696 36.5727V58.3828L32.3196 54.2528L38.6497 65.1827L20.5496 75.5028L2.43945 44.2827L8.77954 40.6727L16.0195 53.1627V31.3427C16.0195 22.6927 18.6595 16.8527 23.9395 13.8427L25.2295 13.1927C28.7095 11.6427 32.6596 11.6027 37.0596 13.0627C39.0096 13.7027 41.0494 14.6427 43.1794 15.8627C44.4794 16.6127 45.7395 17.4327 46.9695 18.3227C52.8895 22.6027 58.0397 28.5127 62.4097 36.0527C67.6897 45.1627 70.3296 54.0427 70.3296 62.7027Z" stroke="white" stroke-linejoin="round"/><path d="M45.0703 27.453V47.883L33.6404 53.593L32.3203 54.253L25.0703 58.383V36.573C25.0703 35.123 25.1804 33.803 25.4104 32.593C25.4304 32.503 25.4402 32.423 25.4702 32.333C26.1602 28.903 27.8104 26.443 30.3904 24.973C32.1004 24.003 33.9803 23.593 36.0203 23.763C38.2103 23.933 40.6002 24.763 43.1802 26.253C43.8202 26.623 44.4503 27.023 45.0703 27.453Z" stroke="white" stroke-linejoin="round"/><path d="M58.6499 55.1831L40.5498 65.5032L20.5498 75.5032L38.6499 65.1831L39.9797 64.5231L58.6499 55.1831Z" stroke="white" stroke-linejoin="round"/><path d="M90.3296 52.7028V115.023L70.3296 125.023V62.7028C70.3296 54.0428 67.6897 45.1628 62.4097 36.0528C58.0397 28.5128 52.8895 22.6028 46.9695 18.3228C45.7395 17.4328 44.4794 16.6129 43.1794 15.8629C41.0494 14.6429 39.0096 13.7028 37.0596 13.0628C32.6596 11.6028 28.7095 11.6428 25.2295 13.1928L43.9395 3.84284C49.2195 0.832836 55.6294 1.51286 63.1794 5.86286C70.7194 10.2229 77.1297 16.9528 82.4097 26.0528C87.6897 35.1628 90.3296 44.0428 90.3296 52.7028Z" stroke="white" stroke-linejoin="round"/><path d="M58.6494 55.1829L39.9792 64.5228L38.6494 65.1829L32.3193 54.2529L33.6394 53.5929L45.0693 47.8829L52.3193 44.2529L58.6494 55.1829Z" stroke="white" stroke-linejoin="round"/><path d="M16.0193 37.0527V53.1627L8.7793 40.6727L16.0193 37.0527Z" stroke="white" stroke-linejoin="round"/></svg>