<svg width="48" height="48" viewBox="0 0 98 131" xmlns="http://www.w3.org/2000/svg" stroke-width="1px"
     stroke-linecap="round" stroke-linejoin="round">
    <path d="M64.3701 99.6176L75.1001 118.138L75.73 118.508V106.178L64.3701 99.6176ZM64.3701 99.6176L75.1001 118.138L75.73 118.508V106.178L64.3701 99.6176ZM64.3701 99.6176L75.1001 118.138L75.73 118.508V106.178L64.3701 99.6176ZM45.6001 67.2576L45.6201 67.2776V67.2476H45.6001V67.2576Z" class="pr-icon-iso-solid-stroke" stroke-linejoin="round"/>
    <path d="M22.0503 75.1872V87.5072C19.7203 85.4772 17.3502 83.5972 14.9302 81.8572C12.5202 80.1272 10.1102 78.5672 7.73022 77.1872L4.15039 75.1172V66.9072L7.73022 68.9772C10.1102 70.3472 12.5202 71.5672 14.9302 72.6172C17.3502 73.6672 19.7203 74.5272 22.0503 75.1872Z" class="pr-icon-iso-solid-stroke" stroke-linejoin="round"/>
    <path d="M46.1699 79.8874L45.6201 78.9474L42.05 72.7874L40.3601 69.8774L38.6401 66.8974L36.55 63.2874L7.01001 12.2974L2 15.2574L27.1599 58.6474L33.45 69.4874L34.74 71.7274L35.1799 72.4674L38.98 79.0374L44.1501 87.9474L33.49 81.7874L25.6201 77.2474V89.5774L54.8801 106.467L67.77 128.687L72.78 125.837L46.1699 79.8874ZM35.8201 90.7374C35.4701 90.9474 35.0501 90.9073 34.5701 90.6273C34.0901 90.3573 33.6801 89.9074 33.3201 89.2974C32.9601 88.6774 32.78 88.0974 32.78 87.5474C32.78 86.9974 32.9601 86.6174 33.3201 86.4174C33.6801 86.2174 34.0901 86.2474 34.5701 86.5274C35.0501 86.7974 35.4701 87.2474 35.8201 87.8674C36.1801 88.4774 36.3601 89.0674 36.3601 89.6074C36.3601 90.1474 36.1801 90.5374 35.8201 90.7374Z" class="pr-icon-iso-solid-stroke" stroke-linejoin="round"/>
    <path d="M36.3604 89.6074C36.3604 90.1574 36.1803 90.5374 35.8203 90.7374C35.4703 90.9474 35.0503 90.9074 34.5703 90.6274C34.0903 90.3574 33.6803 89.9074 33.3203 89.2974C32.9603 88.6774 32.7803 88.0974 32.7803 87.5474C32.7803 86.9974 32.9603 86.6174 33.3203 86.4174C33.6803 86.2174 34.0903 86.2474 34.5703 86.5274C35.0503 86.7974 35.4703 87.2474 35.8203 87.8674C36.1803 88.4774 36.3604 89.0674 36.3604 89.6074Z" class="pr-icon-iso-solid-stroke" stroke-linejoin="round"/>
    <path d="M59.1304 46.1074L59.2302 46.2774H59.2603C59.2203 46.2074 59.1704 46.1574 59.1304 46.1074Z" class="pr-icon-iso-solid-stroke" stroke-linejoin="round"/>
    <path d="M66.7803 90.1275V96.9075L61.4102 93.8075V88.4675C61.4102 85.7975 60.7103 83.3275 59.3103 81.0475C57.9103 78.7675 56.2603 77.0675 54.3503 75.9675L48.8003 72.7675L45.6204 67.2775V67.2475H45.6003L36.9004 52.2375V52.1375C36.9004 48.3075 38.0604 45.7275 40.3904 44.3975L40.9302 44.1275C41.9402 43.6675 43.0502 43.4975 44.2502 43.6375C45.6602 43.7775 47.2204 44.3375 48.8904 45.2975V51.4575C48.8404 51.4275 48.7902 51.3975 48.7402 51.3775C46.9502 50.3875 45.4302 50.1775 44.1902 50.7475C42.9102 51.3475 42.2703 52.7075 42.2703 54.8275C42.2703 56.9475 42.9102 59.2175 44.1902 61.6375C45.4702 64.0575 47.0404 65.7975 48.8904 66.8675L54.3503 70.0175C57.0103 71.5475 59.3802 73.6775 61.4502 76.3875C62.0302 77.1375 62.5904 77.9375 63.1204 78.7775C65.5604 82.6475 66.7803 86.4375 66.7803 90.1275Z" class="pr-icon-iso-solid-stroke" stroke-linejoin="round"/>
    <path d="M70.3503 89.8374V95.1174L66.7703 96.9073V90.1273C66.7703 86.4373 65.5504 82.6473 63.1104 78.7773C62.5804 77.9373 62.0202 77.1373 61.4402 76.3873C59.3702 73.6773 57.0003 71.5473 54.3403 70.0173L48.8804 66.8673C47.0304 65.7973 45.4602 64.0573 44.1802 61.6373C42.9002 59.2173 42.2603 56.9473 42.2603 54.8273C42.2603 52.7073 42.9002 51.3473 44.1802 50.7473C45.4202 50.1773 46.9402 50.3873 48.7302 51.3773C48.7802 51.3973 48.8304 51.4274 48.8804 51.4574L54.0002 48.8974L59.2302 46.2773H59.2603C59.7903 46.9073 60.2802 47.6074 60.7302 48.3974C61.2302 49.2474 61.6302 50.0973 61.9302 50.9373C62.4202 52.2773 62.6602 53.5974 62.6602 54.8974C62.6602 55.0574 62.6604 55.2173 62.6404 55.3773L58.8503 57.2773L56.0403 58.6774V64.8373C56.3003 64.9873 56.5503 65.1373 56.8003 65.2973C60.5203 67.6373 63.6602 71.0774 66.2402 75.5974C68.9802 80.4374 70.3503 85.1874 70.3503 89.8374Z" class="pr-icon-iso-solid-stroke" stroke-linejoin="round"/>
    <path d="M63.5 33.5872L58.47 36.0972L56.04 37.3172V41.7172L51.23 44.1272L48.8801 45.2972C47.2101 44.3372 45.65 43.7772 44.24 43.6372C43.04 43.4972 41.9299 43.6672 40.9199 44.1272L48.9199 40.1272L60.3801 34.3972C61.3301 33.8472 62.37 33.5772 63.5 33.5872Z" class="pr-icon-iso-solid-stroke" stroke-linejoin="round"/>
    <path d="M95.7202 82.8375V92.0775L91.9102 93.9775L88.0203 95.9275L82.7603 98.5575L77.5803 101.148L75.7202 102.077V92.4375C75.6802 89.8375 75.3204 87.1975 74.6204 84.5075C74.1304 82.5875 73.4604 80.6475 72.6304 78.6775C70.5804 73.8275 67.8502 69.4975 64.4502 65.6875L69.4902 63.1675L75.0002 60.4175L80.1404 57.8375L84.4502 55.6875C87.8502 59.4975 90.5804 63.8275 92.6304 68.6775C94.6904 73.5275 95.7202 78.2475 95.7202 82.8375Z" class="pr-icon-iso-solid-stroke" stroke-linejoin="round"/>
    <path d="M95.7305 96.1772V108.507L90.1506 111.297L84.9805 113.877L75.7305 118.507V106.177L79.4404 104.327L84.6106 101.737L95.7305 96.1772Z" class="pr-icon-iso-solid-stroke" stroke-linejoin="round"/>
    <path d="M92.7805 115.837L87.7705 118.687L67.7705 128.687L72.7805 125.837L87.6106 118.417L92.7805 115.837Z" class="pr-icon-iso-solid-stroke" stroke-linejoin="round"/>
    <path d="M92.77 115.837L87.6001 118.417L72.77 125.837L46.1599 79.8874L45.6101 78.9474L42.04 72.7874L40.3501 69.8774L38.6301 66.8974L36.54 63.2874L7 12.2974L27 2.29736L48.9199 40.1274L40.9199 44.1274L40.3801 44.3974C38.0501 45.7274 36.8901 48.3074 36.8901 52.1374V52.2374L45.5901 67.2574L45.6101 67.2774L48.79 72.7674L54.3401 75.9674C56.2501 77.0674 57.9 78.7674 59.3 81.0474C60.7 83.3274 61.4001 85.7974 61.4001 88.4674V93.8074L66.77 96.9073L70.3501 95.1174V96.6273L64.3601 99.6174L75.0901 118.137L75.72 118.507L84.97 113.877L90.1401 111.297L92.77 115.837Z" class="pr-icon-iso-solid-stroke" stroke-linejoin="round"/>
    <path d="M33.4502 69.4872L32.3203 70.0572L22.0503 75.1872C19.7203 74.5272 17.3502 73.6672 14.9302 72.6172C12.5202 71.5672 10.1102 70.3472 7.73022 68.9772L4.15039 66.9072L24.1504 56.9072L27.1602 58.6472L33.4502 69.4872Z" class="pr-icon-iso-solid-stroke" stroke-linejoin="round"/>
    <path d="M95.7202 96.1776L84.6003 101.738L79.4302 104.328L75.7202 106.178L64.3604 99.6176L70.3503 96.6275V98.9775L75.7202 102.078L77.5803 101.148L82.7603 98.5576L88.0203 95.9276L91.9102 93.9775L95.7202 96.1776Z" class="pr-icon-iso-solid-stroke" stroke-linejoin="round"/>
    <path d="M35.1797 72.4673L25.6199 77.2473V85.7273L22.0498 87.5073V75.1873L32.3198 70.0573L33.4497 69.4873L34.7397 71.7273L35.1797 72.4673Z" class="pr-icon-iso-solid-stroke" stroke-linejoin="round"/>
    <path d="M44.1501 87.9473L33.49 81.7873L25.6201 77.2473L35.1799 72.4673L38.98 79.0373L44.1501 87.9473Z" class="pr-icon-iso-solid-stroke" stroke-linejoin="round"/>
    <path d="M62.6401 55.3774C62.5601 57.2374 61.92 58.5074 60.73 59.1774C60.53 59.2874 60.3301 59.3874 60.1101 59.4474C58.9601 59.8374 57.6 59.5774 56.04 58.6774L58.8501 57.2774L62.6401 55.3774Z" class="pr-icon-iso-solid-stroke" stroke-linejoin="round"/>
    <path d="M75.72 92.4374V102.077L70.3501 98.9774V89.8374C70.3501 85.1874 68.98 80.4374 66.24 75.5974C63.66 71.0774 60.52 67.6374 56.8 65.2974C56.55 65.1374 56.3 64.9874 56.04 64.8374V58.6774C57.6 59.5774 58.9601 59.8374 60.1101 59.4474C60.3301 59.3874 60.53 59.2874 60.73 59.1774C61.92 58.5074 62.5601 57.2374 62.6401 55.3774C62.6601 55.2174 62.6599 55.0574 62.6599 54.8974C62.6599 53.5974 62.4199 52.2774 61.9299 50.9374C61.6299 50.0974 61.23 49.2474 60.73 48.3974C60.28 47.6074 59.79 46.9074 59.26 46.2674C59.22 46.2074 59.1701 46.1574 59.1301 46.1074C58.2101 45.0174 57.18 44.1374 56.04 43.4774V37.3174C56.51 37.5974 56.9799 37.8874 57.4299 38.2074C58.1799 38.7274 58.9001 39.2974 59.5901 39.9374C60.6101 40.8674 61.56 41.9174 62.45 43.0874C62.74 43.4574 63.02 43.8474 63.29 44.2474C63.72 44.8774 64.14 45.5374 64.54 46.2274C65.86 48.5174 66.8101 50.7774 67.3801 53.0074C67.6601 54.0974 67.85 55.1774 67.95 56.2474C68 56.8374 68.03 57.4174 68.03 57.9974C68.03 59.0774 67.93 60.0574 67.73 60.9374C67.58 61.6374 67.3601 62.2674 67.0901 62.8474C66.4601 64.1674 65.58 65.1074 64.45 65.6874C67.85 69.4974 70.5801 73.8274 72.6301 78.6774C73.4601 80.6474 74.1301 82.5874 74.6201 84.5074C75.3201 87.1974 75.68 89.8374 75.72 92.4374Z" class="pr-icon-iso-solid-stroke" stroke-linejoin="round"/>
    <path d="M88.03 47.9974C88.03 49.9174 87.7101 51.5274 87.0901 52.8474C86.4601 54.1674 85.58 55.1074 84.45 55.6874L80.1401 57.8374L75 60.4174L69.49 63.1674L64.45 65.6874C65.58 65.1074 66.4601 64.1674 67.0901 62.8474C67.3601 62.2674 67.58 61.6374 67.73 60.9374C67.93 60.0574 68.03 59.0774 68.03 57.9974C68.03 57.4174 68 56.8374 67.95 56.2474C67.85 55.1774 67.6601 54.0974 67.3801 53.0074C66.8101 50.7774 65.86 48.5174 64.54 46.2274C64.14 45.5374 63.72 44.8774 63.29 44.2474C63.02 43.8474 62.74 43.4574 62.45 43.0874C61.56 41.9174 60.6101 40.8674 59.5901 39.9374C58.9001 39.2974 58.1799 38.7274 57.4299 38.2074C56.9799 37.8874 56.51 37.5974 56.04 37.3174L58.47 36.1074L63.5 33.5874L76.04 27.3174C79.38 29.2474 82.21 32.2174 84.54 36.2274C86.86 40.2474 88.03 44.1674 88.03 47.9974Z" class="pr-icon-iso-solid-stroke" stroke-linejoin="round"/>
    <path d="M59.2297 46.2773L53.9998 48.8973L48.8799 51.4573V45.2973L51.2297 44.1273L56.0398 41.7173V43.4773C57.1798 44.1373 58.2099 45.0173 59.1299 46.1073L59.2297 46.2773Z" class="pr-icon-iso-solid-stroke" stroke-linejoin="round"/>
</svg>