<svg width="48" height="48" viewBox="0 0 111 98" xmlns="http://www.w3.org/2000/svg" stroke-width="1px"
     stroke-linecap="round" stroke-linejoin="round">
    <path d="M88.38 74.1097V83.1198L66.0001 70.1997L63.39 60.7596L59.2201 45.6396L56.9701 37.5096L51.16 51.7297L46.9601 62.0197L33.41 95.1997L18.89 42.9998L2 33.2498V24.2397L24.38 37.1597L33.41 69.8597L42.7701 46.9397L46.9901 36.6097L56.9701 12.1597L63.42 35.3397L67.62 50.4097L71.5001 64.3698L88.38 74.1097Z" class="pr-icon-iso-solid-stroke" stroke-linejoin="round"/>
    <path d="M46.99 36.6097L42.77 46.9397L33.4099 69.8597L24.3799 37.1597L36.02 31.3397L44.3799 27.1597L46.99 36.6097Z" class="pr-icon-iso-solid-stroke" stroke-linejoin="round"/>
    <path d="M63.3901 60.7596L53.4102 85.1997L33.4102 95.1997L46.9602 62.0197L51.1602 51.7297L56.9702 37.5096L59.2202 45.6396L63.3901 60.7596Z" class="pr-icon-iso-solid-stroke" stroke-linejoin="round"/>
    <path d="M108.38 64.1097V73.1198L88.3799 83.1198V74.1097L100.02 68.2897L108.38 64.1097Z" class="pr-icon-iso-solid-stroke" stroke-linejoin="round"/>
    <path d="M91.4998 54.3698L85.2498 57.4897L71.4998 64.3698L67.6196 50.4097L63.4197 35.3397L56.9697 12.1597L76.9697 2.15967L91.4998 54.3698Z" class="pr-icon-iso-solid-stroke" stroke-linejoin="round"/>
    <path d="M108.38 64.1097L100.02 68.2897L88.3799 74.1097L71.5 64.3698L85.25 57.4897L91.5 54.3698L108.38 64.1097Z" class="pr-icon-iso-solid-stroke" stroke-linejoin="round"/>
    <path d="M44.38 27.1597L36.0201 31.3397L24.38 37.1597L2 24.2397L22.0001 14.2397L44.38 27.1597Z" class="pr-icon-iso-solid-stroke" stroke-linejoin="round"/>
</svg>