<svg width="48" height="48" viewBox="0 0 68 122" xmlns="http://www.w3.org/2000/svg" stroke-width="1px"
     stroke-linecap="round" stroke-linejoin="round">
    <path d="M43.6201 69.7367L45.51 71.8467L43.3 99.2867L41.6401 119.877L5.96997 99.2767L2 46.9567L3.89014 46.9067C4.41014 46.8267 4.88002 46.6467 5.27002 46.3367C5.62002 46.0767 5.81011 45.6367 5.86011 45.0267C5.87011 44.9367 5.87012 44.8467 5.87012 44.7467C5.87012 44.0667 5.73997 43.3467 5.46997 42.5867C5.20997 41.8267 4.81003 41.1467 4.28003 40.5367L2 37.8567L5.96997 21.9467L19.8401 29.9567V25.4167L13.8901 21.9767V12.8867L18.6201 15.6167L24.24 18.8667L33.7102 24.3267V33.4267L31.99 32.4267L27.77 29.9867V34.5367L41.6401 42.5467L45.51 62.7467L43.23 62.7967C42.7 62.7967 42.3 63.0167 42.04 63.4767C41.77 63.9267 41.6401 64.4967 41.6401 65.1767C41.6401 65.9367 41.84 66.7167 42.24 67.5067C42.63 68.3067 43.1001 69.0467 43.6201 69.7367Z" class="pr-icon-iso-solid-stroke" stroke-linejoin="round"/>
    <path d="M53.7107 14.3267L33.7107 24.3267L24.2405 18.8667L18.6206 15.6167L13.8906 12.8867L33.8906 2.88672L53.7107 14.3267Z" class="pr-icon-iso-solid-stroke" stroke-linejoin="round"/>
    <path d="M61.6406 32.5471L41.6406 42.5471L27.7705 34.5371L31.9905 32.4271L33.7107 33.4271L49.5005 25.5371L61.6406 32.5471Z" class="pr-icon-iso-solid-stroke" stroke-linejoin="round"/>
    <path d="M31.9905 32.4263L27.7705 34.5364V29.9863L31.9905 32.4263Z" class="pr-icon-iso-solid-stroke" stroke-linejoin="round"/>
    <path d="M53.7109 14.3271V23.4271L49.5007 25.5372L33.7109 33.4271V24.3271L53.7109 14.3271Z" class="pr-icon-iso-solid-stroke" stroke-linejoin="round"/>
    <path d="M65.5105 52.7469L61.6606 54.6669V54.6769L45.5105 62.7469L41.6406 42.5469L61.6406 32.5469L65.5105 52.7469Z" class="pr-icon-iso-solid-stroke" stroke-linejoin="round"/>
    <path d="M65.5105 61.8468L45.5105 71.8468L43.6206 69.7368C43.1006 69.0468 42.6305 68.3068 42.2405 67.5068C41.8405 66.7168 41.6406 65.9368 41.6406 65.1768C41.6406 64.4968 41.7705 63.9268 42.0405 63.4768C42.3005 63.0168 42.7005 62.7968 43.2305 62.7968L45.5105 62.7468L61.6606 54.6768C61.6506 54.8368 61.6406 54.9968 61.6406 55.1768C61.6406 55.9368 61.8405 56.7168 62.2405 57.5068C62.6305 58.3068 63.1006 59.0468 63.6206 59.7368L65.5105 61.8468Z" class="pr-icon-iso-solid-stroke" stroke-linejoin="round"/>
    <path d="M65.5105 61.8467L61.6406 109.877L41.6406 119.877L43.3005 99.2867L45.5105 71.8467L65.5105 61.8467Z" class="pr-icon-iso-solid-stroke" stroke-linejoin="round"/>
    <path d="M5.86011 45.0264L2 46.9564" class="pr-icon-iso-solid-stroke" stroke-linejoin="round"/>
    <path d="M19.8398 25.4164V29.9564L5.96973 21.9464L13.8899 17.9863V21.9764L19.8398 25.4164Z" class="pr-icon-iso-solid-stroke" stroke-linejoin="round"/>
</svg>