<svg width="24" height="24" viewBox="0 0 24 24" fill="none" xmlns="http://www.w3.org/2000/svg">
    <path d="M5 12H20M10.0001 17.6568C7.89122 16.6019 6.40854 14.9967 5.10279 13.1354C4.73058 12.6048 4.54448 12.3395 4.55238 12.0106C4.56029 11.6816 4.76077 11.4232 5.16175 10.9063C6.5381 9.13214 8.04367 7.54908 10.0001 6.34314" stroke="currentColor" stroke-width="2" stroke-linecap="round" stroke-linejoin="round"/>
    <path d="M5 12H20M10.0001 17.6568C7.94766 16.427 6.35623 14.926 5.0191 13.0275C4.68538 12.5537 4.51851 12.3168 4.51851 12C4.51851 11.6832 4.68537 11.4463 5.01909 10.9724C6.35619 9.07395 7.94762 7.57293 10.0001 6.34314" stroke="currentColor" stroke-width="2" stroke-linecap="round" stroke-linejoin="round"/>
</svg>
