<svg xmlns="http://www.w3.org/2000/svg" width="24" height="24" viewBox="0 0 24 24" fill="none">
    <path fill="currentColor" d="M13.278 5.181a1 1 0 1 0-.556 1.921zm1.54 4.119a1 1 0 1 0 1.908-.6zM11 21l-.894-.447A1 1 0 0 0 11 22zm2 0v1a1 1 0 0 0 .894-1.447zm-.278-13.898c.931.27 1.744 1.075 2.096 2.198l1.908-.6c-.527-1.68-1.794-3.04-3.448-3.519zm-1.616 11.45-1 2 1.788.895 1-2zM11 22h2v-2h-2zm2.894-1.447-1-2-1.788.894 1 2zM18 10.059c0 2.201-.893 4.213-2.137 5.676C14.593 17.23 13.096 18 12 18v2c1.904 0 3.908-1.23 5.387-2.97C18.893 15.258 20 12.799 20 10.059zM12 18c-1.096 0-2.592-.77-3.863-2.265C6.893 14.272 6 12.26 6 10.059H4c0 2.74 1.107 5.199 2.613 6.971C8.093 18.77 10.096 20 12 20zm-6-7.941C6 6.74 8.698 4 12 4V2c-4.43 0-8 3.66-8 8.059zM12 4c3.302 0 6 2.74 6 6.059h2C20 5.659 16.43 2 12 2z"/>
</svg>