<svg xmlns="http://www.w3.org/2000/svg" width="24" height="24" viewBox="0 0 24 24" fill="none">
    <path stroke="currentColor" stroke-linejoin="round" stroke-width="2" d="M12 5s-2-1.5-4.5-1.5c-.638 0-1.244.098-1.793.244-.975.259-1.463.389-2.085 1.197C3 5.75 3 6.5 3 8v7.186c0 .983 0 1.474.025 1.632.2 1.243.414 1.456 1.657 1.656.158.026 1.045.026 2.818.026.931 0 1.793.208 2.507.47 1.152.42 1.728.63 1.993.63.265 0 .841-.21 1.993-.63.714-.262 1.576-.47 2.507-.47 1.773 0 2.66 0 2.818-.026 1.243-.2 1.456-.413 1.656-1.656.026-.158.026-.65.026-1.632V8c0-1.5 0-2.25-.622-3.059-.622-.808-1.11-.938-2.085-1.197A6.994 6.994 0 0 0 16.5 3.5C14 3.5 12 5 12 5Zm0 0v14.5"/>
</svg>