<svg xmlns="http://www.w3.org/2000/svg" width="24" height="24" viewBox="0 0 24 24" fill="none">
    <path fill="currentColor" d="M13 14a1 1 0 1 0-2 0zm-2 5a1 1 0 1 0 2 0zm-.684-14.949a1 1 0 1 0-.632 1.898zm4 1.898a1 1 0 1 0-.632-1.898zM12 15l-.976.217h1.952zm-.635-2.859.976-.217zm1.27-.002-.976-.217zm1.001-4.503-.217-.976-.62.138-.139.621zM10.89 10l.976-.217zm2.222 0-.976-.217zM11.42 6l-.774.632.3.368h.474zm1.162 0v1h.474l.3-.368zm6.258 7.52-.218.975zm-13.678 0-.217-.976zM11 14v5h2v-5zm.676-7h.648V5h-.648zm1.3 7.783-.635-2.859-1.952.434.635 2.859zm-1.828-3.618-6.204 1.379.434 1.952 6.204-1.379zm.511.757-.635 2.861 1.952.434.636-2.86zm.76 1.193 6.202 1.38.435-1.952-6.203-1.38zm-.286-3.322-.473 2.13 1.952.433.473-2.13zm7.091-.783H13.11v2h6.115zm-5.37-.397 5.196-1.155-.434-1.953L13.42 6.66zM10.58 6.66 5.384 5.505 4.95 7.458l5.197 1.155zm1.284 3.123L11.34 7.42l-1.953.434.526 2.364zM4.78 11h6.109V9H4.78zm7.88-3.58-.525 2.363 1.952.434.526-2.364zm-.525 2.363-.002.01 1.952.434.002-.01zM19.22 9H13.11v2h6.108zm-6.88 2.924-.473-2.13-1.952.433.474 2.131zm-.473-2.13-.002-.01-1.952.433.002.01zM4.776 11.01h6.115v-2H4.776zm4.908-5.061c.42.14.732.403.96.683l1.55-1.264a4.095 4.095 0 0 0-1.878-1.317zm3.671.683c.23-.28.541-.543.961-.683l-.632-1.898a4.095 4.095 0 0 0-1.878 1.317zM11.42 7h1.162V5h-1.162zM22 8.22a2.78 2.78 0 0 0-3.384-2.715l.434 1.953a.78.78 0 0 1 .95.762zm-2 0a.78.78 0 0 1-.78.78v2A2.78 2.78 0 0 0 22 8.22zm0 3.566c0 .496-.46.865-.944.757l-.435 1.952A2.776 2.776 0 0 0 22 11.785zm2 0a2.776 2.776 0 0 0-2.776-2.776v2c.429 0 .776.347.776.776zM4 8.22c0-.5.462-.87.95-.762l.434-1.953A2.78 2.78 0 0 0 2 8.22zM12.324 7c.22 0 .384.204.336.42l1.953.433A2.345 2.345 0 0 0 12.323 5zM2 8.22A2.78 2.78 0 0 0 4.78 11V9A.78.78 0 0 1 4 8.22zM11.676 5a2.345 2.345 0 0 0-2.289 2.853l1.953-.434A.345.345 0 0 1 11.676 7zM2 11.786a2.776 2.776 0 0 0 3.378 2.71l-.434-1.953A.776.776 0 0 1 4 11.787zm2 0c0-.429.347-.776.776-.776v-2A2.776 2.776 0 0 0 2 11.786z"/>
</svg>