<svg xmlns="http://www.w3.org/2000/svg" width="24" height="24" viewBox="0 0 24 24" fill="none">
    <path stroke="currentColor" stroke-linecap="round" stroke-linejoin="round" stroke-width="2" d="M14 9.001h2m-2 5.5h2m-5.16-7.03a7.554 7.554 0 0 0-2.12 2.121 4.727 4.727 0 0 0-1.061-1.06M9.5 16c.466 0 .699 0 .883-.076a1 1 0 0 0 .54-.541C11 15.2 11 14.967 11 14.5v0c0-.466 0-.699-.076-.883a1 1 0 0 0-.541-.54C10.199 13 9.966 13 9.5 13v0c-.466 0-.699 0-.883.076a1 1 0 0 0-.54.541C8 13.802 8 14.035 8 14.501v0c0 .466 0 .699.076.883a1 1 0 0 0 .541.54c.184.077.417.077.883.077M12 21.5c3.287 0 4.931 0 6.038-.908.202-.166.388-.352.554-.554.908-1.107.908-2.75.908-6.038v-4c0-3.287 0-4.931-.908-6.038a4 4 0 0 0-.554-.554C16.93 2.5 15.288 2.5 12 2.5v0c-3.287 0-4.931 0-6.038.908a4 4 0 0 0-.554.554C4.5 5.07 4.5 6.712 4.5 10v4c0 3.288 0 4.931.908 6.038a4 4 0 0 0 .554.554c1.107.908 2.75.908 6.038.908"/>
</svg>