<svg xmlns="http://www.w3.org/2000/svg" width="24" height="24" viewBox="0 0 24 24" fill="none">
    <path stroke="currentColor" stroke-dasharray="1 3" stroke-linecap="round" stroke-width="2" d="M13.5 6.19a6.01 6.01 0 0 1 4.311 4.31"/>
    <path stroke="currentColor" stroke-linecap="round" stroke-linejoin="round" stroke-width="2" d="M12 3.01V3M5.643 5.643l-.007-.007M20.99 12H21m-2.643-6.357.007-.007M12 20.99V21m6.357-2.643.007.007M3.01 12H3m2.643 6.357-.007.007M15 14c.645 0 1.26-.122 1.826-.344.418-.164.906.178.738.594A6.002 6.002 0 0 1 6 12a6.002 6.002 0 0 1 3.75-5.564c.416-.168.758.32.594.738A5 5 0 0 0 15 14"/>
</svg>