<svg xmlns="http://www.w3.org/2000/svg" width="24" height="24" viewBox="0 0 24 24" fill="none">
    <path fill="currentColor" d="M13 4a1 1 0 1 0-2 0zm-2 8v1h2v-1zm2 6v-1h-2v1zm-2 2a1 1 0 1 0 2 0zm5.163-11.675a1 1 0 0 0-.326 1.973zM6.938 7.093a1 1 0 1 0-.156 1.994zm.01 2.867a1 1 0 0 0 .806 1.83zm1.215.338a1 1 0 1 0-.326-1.973zm.089-1.5.81-.588zm.157.935-.96-.28zm.038-.493-.985.171zM11 4v8h2V4zm0 14v2h2v-2zm9-6-.003.015a.292.292 0 0 1-.032.066c-.043.07-.13.174-.291.301-.33.26-.87.539-1.626.79-1.502.501-3.64.828-6.048.828v2c2.563 0 4.925-.345 6.68-.93.873-.29 1.651-.66 2.232-1.117C21.482 13.505 22 12.852 22 12zm-8 2c-2.408 0-4.546-.327-6.048-.827-.756-.252-1.296-.53-1.626-.79a1.237 1.237 0 0 1-.29-.301.295.295 0 0 1-.033-.067L4 12H2c0 .852.519 1.505 1.088 1.953.581.458 1.36.826 2.232 1.117 1.755.585 4.117.93 6.68.93zm3.837-3.702c1.422.236 2.558.59 3.308.985.376.198.61.383.74.53.063.071.092.123.104.152A.158.158 0 0 1 20 12h2c0-1.197-.998-2-1.923-2.486-1.008-.532-2.373-.933-3.914-1.189zM6.782 9.087c.4.031.55.145.66.298l1.62-1.175c-.53-.728-1.278-1.05-2.124-1.117zm.667.366c-.06.207-.166.36-.501.507l.806 1.83c.805-.354 1.369-.933 1.615-1.776zM4 12l.001-.007a.153.153 0 0 1 .01-.028.605.605 0 0 1 .103-.151c.13-.148.365-.333.74-.531.751-.395 1.887-.749 3.31-.985l-.327-1.973c-1.541.256-2.906.657-3.914 1.189C2.998 10 2 10.803 2 12zm3.443-2.615a5.505 5.505 0 0 1 .043.061l-.003-.005a.33.33 0 0 1-.028-.065c-.002-.004.001.004.007.035l1.97-.342a1.923 1.923 0 0 0-.157-.515c-.077-.16-.172-.287-.214-.344zm1.926.629c.02-.071.068-.223.087-.4a1.916 1.916 0 0 0-.024-.545l-1.97.342c.005.03.005.038.004.032v-.018l.002-.027c.002-.02.005-.03.004-.024a.82.82 0 0 1-.023.079z"/>
</svg>