<svg xmlns="http://www.w3.org/2000/svg" width="24" height="24" viewBox="0 0 24 24" fill="none">
    <path stroke="currentColor" stroke-linejoin="round" stroke-width="2" d="M13.646 5.14a5.999 5.999 0 0 1 1.518 5.924c-.123.422-.021.891.315 1.176l4.362 3.69a2.76 2.76 0 1 1-3.89 3.89L12.26 15.46c-.285-.336-.753-.438-1.176-.315a5.999 5.999 0 0 1-5.924-1.518 5.994 5.994 0 0 1-1.643-5.413c.138-.695.988-.835 1.468-.313l2.258 2.453a1.5 1.5 0 0 0 1.396.455l.844-.168a1.5 1.5 0 0 0 1.178-1.177l.17-.845a1.5 1.5 0 0 0-.457-1.398L7.922 4.965c-.522-.48-.383-1.33.313-1.468a5.994 5.994 0 0 1 5.41 1.643Z"/>
</svg>