<svg xmlns="http://www.w3.org/2000/svg" width="24" height="24" viewBox="0 0 24 24" fill="none">
    <path fill="currentColor" d="M1.5 18a1 1 0 1 0 0 2zm20 2a1 1 0 1 0 0-2zm-20-10a1 1 0 1 0 0 2zm20 2a1 1 0 1 0 0-2zM9 6a1 1 0 0 0-2 0zm-2 5a1 1 0 1 0 2 0zm6 0a1 1 0 1 0 2 0zM3 15.598l.5-.866zM6.5 7H12V5H6.499zm11 8H6.498v2H17.5zM12 7c2.78 0 5.199.928 6.909 2.181C20.667 10.471 21.5 11.96 21.5 13h2c0-1.96-1.417-3.97-3.409-5.431C18.051 6.072 15.221 5 12 5zm9.5 6c0 .408-.117.69-.287.906-.182.232-.466.441-.864.615-.814.357-1.903.479-2.849.479v2c1.054 0 2.465-.128 3.65-.646.603-.264 1.194-.648 1.637-1.213.455-.58.713-1.3.713-2.141zm-20 7h20v-2h-20zm0-8h20v-2h-20zM7 6v5h2V6zm6 0v5h2V6zm-6.502 9c-.953 0-1.6-.001-2.098-.046-.485-.044-.73-.123-.9-.222l-1 1.732c.526.303 1.096.425 1.72.482C4.828 17 5.581 17 6.497 17zM.5 11c0 .916-.001 1.67.054 2.28.057.624.178 1.194.482 1.72l1.732-1c-.098-.17-.178-.415-.222-.9-.045-.5-.046-1.147-.046-2.1zm3 3.732A2 2 0 0 1 2.768 14l-1.732 1A4 4 0 0 0 2.5 16.464zM6.5 5c-.917 0-1.67-.001-2.28.054-.624.057-1.194.178-1.72.482l1 1.732c.17-.099.415-.178.9-.222C4.9 7.001 5.547 7 6.5 7zm-4 6c0-.953.001-1.6.046-2.1.044-.485.124-.73.222-.9L1.036 7C.732 7.526.61 8.096.554 8.72.5 9.33.5 10.084.5 11zm0-5.464A4 4 0 0 0 1.036 7l1.732 1a2 2 0 0 1 .732-.732z"/>
</svg>