<svg xmlns="http://www.w3.org/2000/svg" width="24" height="24" viewBox="0 0 24 24" fill="none">
    <path stroke="currentColor" stroke-linecap="round" stroke-linejoin="round" stroke-width="2" d="M3.5 7.5h17M12 17v-5m-2.121 1.521c.477-.968 1.165-1.615 2.121-2.121.956.506 1.644 1.153 2.121 2.121M19 5c-.612-.612-.918-.918-1.284-1.122a2.999 2.999 0 0 0-.636-.263c-.403-.115-.836-.115-1.701-.115H8.62c-.865 0-1.298 0-1.7.115a3 3 0 0 0-.637.263C5.918 4.082 5.612 4.388 5 5v0c-.612.612-.918.918-1.122 1.284a3 3 0 0 0-.263.636c-.115.403-.115.836-.115 1.701V12.5c0 3.771 0 5.657 1.172 6.828C5.843 20.5 7.729 20.5 11.5 20.5h1c3.771 0 5.657 0 6.828-1.172C20.5 18.157 20.5 16.271 20.5 12.5V8.621c0-.865 0-1.298-.115-1.7a3.002 3.002 0 0 0-.263-.637C19.918 5.918 19.612 5.612 19 5"/>
</svg>