<svg xmlns="http://www.w3.org/2000/svg" width="24" height="24" viewBox="0 0 24 24" fill="none">
    <path fill="currentColor" d="M16 11a1 1 0 1 0 0 2zm.002 2a1 1 0 0 0 0-2zm4.807 1.588.809.588zm-.221.221L20 14zm0-5.618L20 10zm.221.221L20 10zm-15.93 8.71.707-.708zm15.019-1.346-.966-.258zM17.776 5.102l-.258.966zM10 6h6V4h-6zm6 12h-6v2h6zM5 13v-2H3v2zm10-3h4.2V8H15zm5 .8v2.4h2v-2.4zm-.8 3.2H15v2h4.2zM16 13h.002v-2H16zm-1 1a2 2 0 0 1-2-2h-2a4 4 0 0 0 4 4zm5-.8c0 .397-.001.615-.018.769-.015.135-.031.098.018.031l1.618 1.176c.24-.33.32-.686.352-.992.031-.286.03-.631.03-.984zm-.8 2.8c.353 0 .698.001.984-.03.306-.033.661-.112.992-.352L20 14c.067-.049.104-.033-.031-.018A8.303 8.303 0 0 1 19.2 14zm.8-2 1.176 1.618c.17-.123.319-.273.442-.442zm-.8-4c.397 0 .615.001.769.018.135.015.098.031.031-.018l1.176-1.618c-.33-.24-.686-.32-.992-.352-.287-.031-.631-.03-.984-.03zm2.8.8c0-.353.001-.698-.03-.984-.033-.306-.112-.661-.352-.992L20 10c-.049-.067-.033-.104-.018.031.017.154.018.372.018.769zm-2-.8 1.618-1.176a1.998 1.998 0 0 0-.442-.442zm-10 8c-1.442 0-2.424-.002-3.159-.1-.706-.096-1.033-.263-1.255-.486l-1.414 1.414c.656.657 1.475.928 2.403 1.053.899.121 2.04.119 3.425.119zm-7-5c0 1.386-.002 2.526.119 3.425.124.928.396 1.747 1.053 2.403l1.414-1.414c-.223-.222-.39-.55-.485-1.255C5.002 15.424 5 14.443 5 13zm13 7c.866 0 1.495.009 2.035-.136l-.517-1.932c-.223.06-.524.068-1.518.068zm3-5c0 .994-.009 1.295-.068 1.518l1.932.517c.145-.54.136-1.17.136-2.035zm-.965 4.864a4 4 0 0 0 2.829-2.829l-1.932-.517a2 2 0 0 1-1.414 1.414zM15 8a4 4 0 0 0-4 4h2a2 2 0 0 1 2-2zm1-2c.994 0 1.295.009 1.518.068l.517-1.932C17.495 3.991 16.865 4 16 4zm5 3c0-.866.009-1.495-.136-2.035l-1.932.517c.06.223.068.524.068 1.518zm-3.482-2.932a2 2 0 0 1 1.414 1.414l1.932-.517a4 4 0 0 0-2.829-2.829zM10 4c-1.386 0-2.526-.002-3.425.119-.928.125-1.747.396-2.403 1.053l1.414 1.414c.222-.223.55-.39 1.255-.485C7.576 6.002 8.558 6 10 6zm-5 7c0-1.442.002-2.424.1-3.159.096-.706.263-1.033.486-1.255L4.172 5.172c-.657.656-.928 1.475-1.053 2.403C2.998 8.474 3 9.615 3 11z"/>
</svg>