<svg xmlns="http://www.w3.org/2000/svg" width="24" height="24" viewBox="0 0 24 24" fill="none">
    <path stroke="currentColor" stroke-linecap="round" stroke-width="1.5" d="M11 10h2m-4 7h6m0-11v0a3 3 0 0 0-3-3v0a3 3 0 0 0-3 3v0zm0 15v-4c0-.932 0-1.398-.152-1.765a2 2 0 0 0-1.083-1.083C13.398 14 12.932 14 12 14v0c-.932 0-1.398 0-1.765.152a2 2 0 0 0-1.083 1.083C9 15.602 9 16.068 9 17v4zm-4 0h2c2.828 0 4.243 0 5.121-.879C19 19.243 19 17.828 19 15v-2c0-2.809 0-4.213-.674-5.222a4.002 4.002 0 0 0-1.104-1.104C16.213 6 14.81 6 12 6v0c-2.809 0-4.213 0-5.222.674a4 4 0 0 0-1.104 1.104C5 8.787 5 10.19 5 13v2c0 2.828 0 4.243.879 5.121C6.757 21 8.172 21 11 21Z"/>
</svg>