<svg xmlns="http://www.w3.org/2000/svg" width="24" height="24" viewbox="0 0 24 24" fill="none">
    <path stroke="currentColor" stroke-linecap="round" stroke-width="1.5" d="M15.5 21h3M17 16.5V21m0-4.5v0c1.588 0 2.814-1.4 2.604-2.974l-.417-3.124A1.616 1.616 0 0 0 17.585 9h-1.17c-.81 0-1.495.6-1.602 1.402l-.417 3.124A2.627 2.627 0 0 0 17 16.5ZM7.75 3v0c-.31 0-.464 0-.593.035a1 1 0 0 0-.676.622c-.046.126-.06.28-.085.589l-.27 3.247a6.459 6.459 0 0 1-.043.428 3 3 0 0 1-.933 1.75 6.46 6.46 0 0 1-.331.274v0c-.189.15-.283.226-.367.305a3 3 0 0 0-.943 1.962c-.009.115-.009.235-.009.477v4.061c0 1.163 0 1.745.16 2.214a3 3 0 0 0 1.876 1.877C6.005 21 6.586 21 7.75 21v0c1.164 0 1.745 0 2.214-.16a3 3 0 0 0 1.877-1.876c.159-.469.159-1.05.159-2.214v-4.061c0-.242 0-.362-.009-.477a3 3 0 0 0-.943-1.962 6.543 6.543 0 0 0-.367-.305v0a6.477 6.477 0 0 1-.331-.274 3 3 0 0 1-.933-1.75 6.459 6.459 0 0 1-.043-.428l-.27-3.247c-.026-.309-.039-.463-.085-.589a1 1 0 0 0-.676-.622C8.214 3 8.06 3 7.75 3Z"/>
</svg>