<svg xmlns="http://www.w3.org/2000/svg" width="24" height="24" viewbox="0 0 24 24" fill="none">
    <path fill="currentColor" d="m17.5 9.5-.394-.639-.356.22V9.5zm0 5h-.75v.419l.356.22zm.95.586-.393.638zM3.963 18.592l-.476.58zm-.554-.554-.58.475zm12.63-12.63.475-.58zm.554.554.58-.475zm1.859 2.952.393.638zM2.752 2.692a.75.75 0 1 0-1.06 1.061zM18.248 20.31a.75.75 0 0 0 1.06-1.06zm-.355-10.17.951-.587-.787-1.277-.95.586zm2.857.478v2.766h1.5v-2.766zm-1.906 3.83-.95-.586-.788 1.277.951.586zm-.594.053v-5h-1.5v5zm2.5-1.117c0 .818-.002 1.345-.056 1.709-.053.36-.127.33-.072.3l.731 1.31c.567-.317.75-.886.825-1.39.074-.5.072-1.162.072-1.93zm-2.693 2.341c.654.402 1.216.751 1.68.95.47.201 1.05.344 1.616.027l-.731-1.31c.054-.03.04.048-.294-.095-.338-.145-.787-.42-1.484-.849zM10 18.75c-1.662 0-2.843-.001-3.749-.108-.89-.105-1.416-.304-1.813-.63l-.952 1.16c.71.582 1.558.837 2.589.96 1.014.12 2.3.118 3.925.118zM1.75 12c0 1.625-.001 2.91.118 3.925.122 1.03.378 1.88.96 2.588l1.16-.951c-.327-.398-.525-.924-.63-1.813-.107-.906-.108-2.087-.108-3.749zm2.688 6.012a3.256 3.256 0 0 1-.45-.45l-1.16.951c.197.24.418.461.658.659zM16.75 12c0 1.662-.002 2.843-.109 3.749-.105.889-.303 1.415-.629 1.813l1.16.951c.581-.709.837-1.557.96-2.588.119-1.015.118-2.3.118-3.925zM10 5.25c1.662 0 2.842.001 3.748.108.89.105 1.416.304 1.814.63l.951-1.16c-.709-.582-1.558-.837-2.589-.96-1.014-.12-2.299-.118-3.924-.118zM18.25 12c0-1.625.001-2.91-.119-3.925-.122-1.03-.378-1.88-.96-2.588l-1.159.951c.326.398.524.924.63 1.813.107.906.108 2.087.108 3.749zm-2.688-6.012c.164.135.315.286.45.45l1.16-.951a4.752 4.752 0 0 0-.659-.659zm3.282 3.564c.697-.428 1.146-.703 1.484-.848.335-.143.348-.066.294-.096l.731-1.31c-.567-.316-1.147-.174-1.616.027-.464.2-1.026.548-1.68.95zm3.406 1.065c0-.767.002-1.429-.072-1.93-.075-.504-.258-1.072-.825-1.389l-.731 1.31c-.055-.03.018-.06.072.3.054.364.056.89.056 1.709zM10 3.75c-1.626 0-2.91-.001-3.925.119-1.031.122-1.88.377-2.589.96l.952 1.159c.397-.326.924-.525 1.813-.63.906-.107 2.087-.108 3.749-.108zM3.25 12c0-1.47 0-2.567.076-3.435l-1.494-.13c-.083.948-.082 2.12-.082 3.565zM10 20.25c1.445 0 2.617 0 3.565-.082l-.13-1.494c-.868.075-1.965.076-3.435.076zM1.69 3.753l16.557 16.556 1.06-1.06L2.752 2.692z"/>
</svg>