<svg xmlns="http://www.w3.org/2000/svg" width="24" height="24" viewbox="0 0 24 24" fill="none">
    <path stroke="currentColor" stroke-linejoin="round" stroke-width="1.5" d="M13.01 17.5c0-.93 0-1.394.121-1.769a2.5 2.5 0 0 1 1.61-1.61C15.116 14 15.58 14 16.505 14s1.389 0 1.764.121a2.5 2.5 0 0 1 1.61 1.61c.121.375.121.84.121 1.769 0 .93 0 1.394-.121 1.769a2.5 2.5 0 0 1-1.61 1.61c-.375.121-.838.121-1.764.121s-1.389 0-1.764-.121a2.5 2.5 0 0 1-1.61-1.61c-.121-.375-.121-.84-.121-1.769zM7.626 4.806C6.128 6.194 7.626 8 8.903 8 9.95 8 11 7.286 11 6.194c0-1.132-.897-2.335-1.881-2.953-.18-.113-.27-.17-.361-.137-.092.034-.132.155-.21.397-.172.53-.472.888-.922 1.305ZM15.47 8.444c-1.124 1.112 0 2.556.957 2.556.787 0 1.573-.571 1.573-1.444 0-.859-.604-1.768-1.296-2.282-.168-.125-.252-.188-.348-.16-.096.03-.142.154-.234.403-.133.363-.347.625-.652.927Z"/>
</svg>