<svg xmlns="http://www.w3.org/2000/svg" width="24" height="24" viewBox="0 0 24 24" fill="none">
    <path stroke="currentColor" stroke-width="1.5" d="M2.5 11.75c0-2.099 0-3.148.384-3.96A4 4 0 0 1 4.79 5.884C5.602 5.5 6.65 5.5 8.75 5.5h6.5c2.099 0 3.148 0 3.96.384a4 4 0 0 1 1.906 1.906c.384.812.384 1.861.384 3.96v2.054c0 .182 0 .273-.003.35a4 4 0 0 1-3.843 3.843c-.077.003-.168.003-.35.003h-.12a3 3 0 0 1-2.106-.922l-1.37-1.37a2.414 2.414 0 0 0-3.414 0l-1.372 1.37A3 3 0 0 1 6.815 18L6.696 18c-.182 0-.273 0-.35-.003a4 4 0 0 1-3.843-3.843c-.003-.077-.003-.168-.003-.35z"/>
    <path stroke="currentColor" stroke-width="1.5" d="M17 11a1 1 0 1 1-2 0 1 1 0 0 1 2 0ZM9 11a1 1 0 1 1-2 0 1 1 0 0 1 2 0Z"/>
</svg>