<svg xmlns="http://www.w3.org/2000/svg" width="24" height="24" fill="none">
    <path stroke="currentColor" stroke-linecap="round" stroke-linejoin="round" stroke-width="1.5" d="M3 20h13M4 20V8.5c0-2.346 0-3.518.62-4.326a3 3 0 0 1 .554-.554C5.982 3 7.154 3 9.5 3v0c2.346 0 3.518 0 4.326.62a3 3 0 0 1 .554.554c.62.808.62 1.98.62 4.326V20m0-7h.5c.465 0 .697 0 .89.038a2 2 0 0 1 1.572 1.572c.038.193.038.425.038.89v1a1.5 1.5 0 0 0 1.5 1.5v0a1.5 1.5 0 0 0 1.5-1.5v-4.843c0-.818 0-1.226-.152-1.594-.152-.367-.441-.657-1.02-1.235L18 7m.75.75L18 8.5m-8.5-1c-.864.874-1.442 1.792-1.766 2.884-.14.476-.211.714-.061.915.15.201.423.201.969.201h1.716c.546 0 .82 0 .97.2.15.202.079.44-.062.916-.324 1.092-.902 2.01-1.766 2.884"/>
</svg>