<svg xmlns="http://www.w3.org/2000/svg" width="24" height="24" viewBox="0 0 24 24" fill="none">
    <path stroke="currentColor" stroke-linecap="round" stroke-width="1.5" d="M9 3v1.5M15 3v1.5m-6 15V21m6-1.5V21M3 15h1.5M3 9h1.5m15 6H21m-1.5-6H21m-9 10.5v0c-3.287 0-4.931 0-6.038-.908a4 4 0 0 1-.554-.554C4.5 16.93 4.5 15.288 4.5 12v0c0-3.287 0-4.931.908-6.038a4 4 0 0 1 .554-.554C7.07 4.5 8.712 4.5 12 4.5v0c3.287 0 4.931 0 6.038.908a4 4 0 0 1 .554.554C19.5 7.07 19.5 8.712 19.5 12v0c0 3.287 0 4.931-.908 6.038a4.001 4.001 0 0 1-.554.554c-1.107.908-2.75.908-6.038.908Zm0-4.5v0c-.932 0-1.398 0-1.765-.152a2 2 0 0 1-1.083-1.083C9 13.398 9 12.932 9 12v0c0-.932 0-1.398.152-1.765a2 2 0 0 1 1.083-1.083C10.602 9 11.068 9 12 9v0c.932 0 1.398 0 1.765.152a2 2 0 0 1 1.083 1.083C15 10.602 15 11.068 15 12v0c0 .932 0 1.398-.152 1.765a2 2 0 0 1-1.083 1.083C13.398 15 12.932 15 12 15Z"/>
</svg>