<svg xmlns="http://www.w3.org/2000/svg" width="24" height="24" fill="none">
    <path stroke="currentColor" stroke-width="1.5" d="M17.149 3.75c.535 0 .803 0 1.043.048.914.18 1.69.907 1.93 1.807.064.237.08.487.113.986a82.171 82.171 0 0 1 0 10.818c-.033.5-.05.75-.113.986a2.551 2.551 0 0 1-1.93 1.807c-.24.048-.508.048-1.043.048-.603 0-.905 0-1.155-.052a2.5 2.5 0 0 1-1.942-1.942C14 18.006 14 17.704 14 17.101V6.899c0-.603 0-.905.052-1.155a2.5 2.5 0 0 1 1.942-1.942c.25-.052.552-.052 1.155-.052zM6.851 3.75c.603 0 .905 0 1.155.052a2.5 2.5 0 0 1 1.942 1.942c.052.25.052.552.052 1.155v10.202c0 .603 0 .905-.052 1.155a2.5 2.5 0 0 1-1.942 1.942c-.25.052-.552.052-1.155.052-.535 0-.803 0-1.043-.048a2.551 2.551 0 0 1-1.93-1.807c-.064-.237-.08-.486-.113-.986a82.2 82.2 0 0 1 0-10.818c.033-.5.05-.75.113-.986a2.551 2.551 0 0 1 1.93-1.807c.24-.048.508-.048 1.043-.048z"/>
</svg>