<svg xmlns="http://www.w3.org/2000/svg" width="24" height="24" viewBox="0 0 24 24" fill="none">
    <path stroke="currentColor" stroke-linecap="round" stroke-width="1.5" d="M10.5 2.69c-.482.1-.875.252-1.222.484a4 4 0 0 0-.9.826M14.5 2.5l1 .001M19.424 3c.103.052.203.11.298.174a4 4 0 0 1 1.104 1.104c.104.155.191.32.265.497M21.5 9.5l-.001-1m-.19 5c-.1.482-.251.875-.483 1.222a4 4 0 0 1-.826.9M9.5 21.5v0c2.809 0 4.213 0 5.222-.674a4.003 4.003 0 0 0 1.104-1.104c.674-1.009.674-2.413.674-5.222v0c0-2.809 0-4.213-.674-5.222a4.002 4.002 0 0 0-1.104-1.104C13.713 7.5 12.31 7.5 9.5 7.5v0c-2.809 0-4.213 0-5.222.674a4 4 0 0 0-1.104 1.104C2.5 10.287 2.5 11.69 2.5 14.5v0c0 2.809 0 4.213.674 5.222.292.437.667.812 1.104 1.104 1.009.674 2.413.674 5.222.674Z"/>
</svg>