<svg xmlns="http://www.w3.org/2000/svg" width="24" height="24" fill="none">
    <path stroke="currentColor" stroke-linejoin="round" stroke-width="1.5" d="M14 5c0-.465 0-.697-.051-.888a1.5 1.5 0 0 0-1.06-1.06C12.697 3 12.464 3 12 3s-.697 0-.888.051a1.5 1.5 0 0 0-1.06 1.06C10 4.304 10 4.536 10 5v3H7c-.465 0-.697 0-.888.051a1.5 1.5 0 0 0-1.06 1.06C5 9.304 5 9.536 5 10s0 .697.051.888a1.5 1.5 0 0 0 1.06 1.06C6.304 12 6.536 12 7 12h3v7c0 .465 0 .698.051.888a1.5 1.5 0 0 0 1.06 1.06c.191.052.424.052.889.052s.697 0 .888-.051a1.5 1.5 0 0 0 1.06-1.06C14 19.697 14 19.464 14 19v-7h3c.465 0 .698 0 .888-.051a1.5 1.5 0 0 0 1.06-1.06C19 10.697 19 10.464 19 10s0-.697-.051-.888a1.5 1.5 0 0 0-1.06-1.06C17.697 8 17.464 8 17 8h-3z"/>
</svg>