<svg xmlns="http://www.w3.org/2000/svg" width="24" height="24" viewbox="0 0 24 24" fill="none">
    <path fill="currentColor" d="M8.5 11.25a.75.75 0 0 0 0 1.5zM9.25 17a.75.75 0 0 0 1.5 0zm-.75-2.75a.75.75 0 0 0 0 1.5zm4.5 1.5a.75.75 0 0 0 0-1.5zm-2.111-8.413.417.624zm-.552.552.624.417zM20.25 12A8.25 8.25 0 0 1 12 20.25v1.5c5.385 0 9.75-4.365 9.75-9.75zM12 20.25A8.25 8.25 0 0 1 3.75 12h-1.5c0 5.385 4.365 9.75 9.75 9.75zM3.75 12A8.25 8.25 0 0 1 12 3.75v-1.5c-5.385 0-9.75 4.365-9.75 9.75zM12 3.75A8.25 8.25 0 0 1 20.25 12h1.5c0-5.385-4.365-9.75-9.75-9.75zm-3.5 9H10v-1.5H8.5zm1.5 0h3.5v-1.5H10zm-.75-2.25V12h1.5v-1.5zm0 1.5v5h1.5v-5zm7.5-2.5a3.25 3.25 0 0 0-3.25-3.25v1.5c.966 0 1.75.784 1.75 1.75zm-3.25 3.25a3.25 3.25 0 0 0 3.25-3.25h-1.5a1.75 1.75 0 0 1-1.75 1.75zm-5 3H13v-1.5H8.5zm5-9.5c-.687 0-1.258 0-1.719.046-.474.048-.913.153-1.309.417l.834 1.248c.108-.073.272-.137.627-.173.367-.037.85-.038 1.567-.038zm-2.75 4.25c0-.718 0-1.2.038-1.567.036-.355.1-.519.173-.627l-1.248-.834c-.264.396-.369.836-.417 1.309-.047.461-.046 1.032-.046 1.719zm-.278-3.787c-.3.201-.558.459-.759.76l1.248.833a1.25 1.25 0 0 1 .345-.345z"/>
</svg>