<svg xmlns="http://www.w3.org/2000/svg" width="24" height="24" viewbox="0 0 24 24" fill="none">
    <path stroke="currentColor" stroke-linecap="round" stroke-width="1.5" d="m10.172 14.829 5.656-5.657m0 5.657-5.656-5.657m-7.144 6.074v0c.822 1.747 1.233 2.62 1.835 3.285a6 6 0 0 0 2.69 1.707c.858.262 1.823.262 3.753.262H13.5c3.771 0 5.657 0 6.828-1.172C21.5 18.157 21.5 16.271 21.5 12.5v-1c0-3.771 0-5.657-1.172-6.828C19.157 3.5 17.271 3.5 13.5 3.5h-2.194c-1.93 0-2.895 0-3.753.262a6 6 0 0 0-2.69 1.707c-.602.665-1.013 1.538-1.835 3.285v0c-.515 1.094-.773 1.642-.893 2.209a5 5 0 0 0 0 2.074c.12.567.378 1.115.893 2.21Z"/>
</svg>