<svg xmlns="http://www.w3.org/2000/svg" width="24" height="24" viewBox="0 0 24 24" fill="none">
    <path fill="currentColor" d="M9.5 6a.5.5 0 1 1-1 0 .5.5 0 0 1 1 0M9.5 12a.5.5 0 1 1-1 0 .5.5 0 0 1 1 0M9.5 18a.5.5 0 1 1-1 0 .5.5 0 0 1 1 0M15.5 6a.5.5 0 1 1-1 0 .5.5 0 0 1 1 0M15.5 12a.5.5 0 1 1-1 0 .5.5 0 0 1 1 0M15.5 18a.5.5 0 1 1-1 0 .5.5 0 0 1 1 0"/>
    <path stroke="currentColor" stroke-width="1.5" d="M9.5 6a.5.5 0 1 1-1 0 .5.5 0 0 1 1 0ZM9.5 12a.5.5 0 1 1-1 0 .5.5 0 0 1 1 0ZM9.5 18a.5.5 0 1 1-1 0 .5.5 0 0 1 1 0ZM15.5 6a.5.5 0 1 1-1 0 .5.5 0 0 1 1 0ZM15.5 12a.5.5 0 1 1-1 0 .5.5 0 0 1 1 0ZM15.5 18a.5.5 0 1 1-1 0 .5.5 0 0 1 1 0Z"/>
</svg>