<svg xmlns="http://www.w3.org/2000/svg" width="24" height="24" viewBox="0 0 24 24" fill="none">
    <path fill="currentColor" d="M12.75 3a.75.75 0 0 0-1.5 0zm-1.5 13a.75.75 0 0 0 1.5 0zM9.1 12.31a.75.75 0 0 0-1.272.794zm7.07.797a.75.75 0 0 0-1.27-.8zm3.158-6.435.53-.53zm-7.067 9.407.407.63zm-.52-.002.412-.627zM11.25 3v13h1.5V3zm1.418 13.709c1.465-.947 2.574-2.126 3.502-3.602l-1.27-.8c-.825 1.313-1.785 2.327-3.046 3.142zm-4.84-3.605a11.379 11.379 0 0 0 3.5 3.6l.825-1.254A9.88 9.88 0 0 1 9.1 12.31zM12.5 20.75h-1v1.5h1zm-1 0c-1.907 0-3.261-.001-4.29-.14-1.005-.135-1.585-.388-2.008-.812l-1.06 1.061c.748.748 1.697 1.08 2.869 1.238 1.15.155 2.625.153 4.489.153zM2.75 13.5c0 1.865-.002 3.339.153 4.49.158 1.172.49 2.12 1.238 2.87l1.06-1.062c-.422-.423-.676-1.002-.811-2.008-.138-1.028-.14-2.383-.14-4.29zm17 0c0 1.907-.002 3.262-.14 4.29-.135 1.006-.389 1.585-.812 2.008l1.06 1.061c.75-.748 1.081-1.697 1.239-2.87.155-1.15.153-2.624.153-4.489zm-7.25 8.75c1.864 0 3.338.002 4.489-.153 1.172-.157 2.121-.49 2.87-1.238l-1.06-1.06c-.424.423-1.004.676-2.01.812-1.028.138-2.382.14-4.289.14zm8.75-8.75c0-1.864.002-3.338-.153-4.489-.158-1.172-.49-2.121-1.238-2.87l-1.06 1.061c.422.423.676 1.003.811 2.01.138 1.027.14 2.382.14 4.288zm-17 0c0-1.906.002-3.261.14-4.289.135-1.006.389-1.586.812-2.009l-1.06-1.06c-.75.748-1.081 1.697-1.239 2.87-.155 1.15-.153 2.624-.153 4.488zm3.701-8.687c-1.62.105-2.873.392-3.81 1.329l1.06 1.06c.532-.53 1.305-.792 2.848-.892zm8 1.497c1.543.1 2.316.362 2.847.892l1.06-1.06c-.936-.937-2.19-1.224-3.81-1.329zm-4.097 9.14a.274.274 0 0 1 .299 0l-.825 1.253c.405.267.93.27 1.34.006z"/>
</svg>