<svg xmlns="http://www.w3.org/2000/svg" width="24" height="24" fill="none">
    <path fill="currentColor" d="M15 6v-.75a.75.75 0 0 0-.75.75zm0 4h-.75c0 .414.336.75.75.75zm-3-6.75a.75.75 0 0 0 0 1.5zm6.69 6.455a.75.75 0 0 0-1.38.59zM4 17.75a.75.75 0 0 0 0-1.5zm4.25-.25a1.75 1.75 0 0 1-1.75 1.75v1.5a3.25 3.25 0 0 0 3.25-3.25zM6.5 19.25a1.75 1.75 0 0 1-1.75-1.75h-1.5a3.25 3.25 0 0 0 3.25 3.25zM4.75 17.5c0-.966.784-1.75 1.75-1.75v-1.5a3.25 3.25 0 0 0-3.25 3.25zm1.75-1.75c.966 0 1.75.784 1.75 1.75h1.5a3.25 3.25 0 0 0-3.25-3.25zm13.75 1.75a1.75 1.75 0 0 1-1.75 1.75v1.5a3.25 3.25 0 0 0 3.25-3.25zm-1.75 1.75a1.75 1.75 0 0 1-1.75-1.75h-1.5a3.25 3.25 0 0 0 3.25 3.25zm-1.75-1.75c0-.966.784-1.75 1.75-1.75v-1.5a3.25 3.25 0 0 0-3.25 3.25zm1.75-1.75c.966 0 1.75.784 1.75 1.75h1.5a3.25 3.25 0 0 0-3.25-3.25zM9 11.25H3v1.5h6zm6-4.5h3v-1.5h-3zm3 2.5h-3v1.5h3zm-2.25.75V6h-1.5v4zM9 18.75h7v-1.5H9zM8.25 10v1h1.5v-1zm7.5 1V7h-1.5v4zM7 7.25H5v1.5h2zM2.25 10v6h1.5v-6zm15.06.295 3 7 1.38-.59-3-7zM15.75 7A3.75 3.75 0 0 0 12 3.25v1.5A2.25 2.25 0 0 1 14.25 7zM12 14.75A3.75 3.75 0 0 0 15.75 11h-1.5A2.25 2.25 0 0 1 12 13.25zM8.25 11A3.75 3.75 0 0 0 12 14.75v-1.5A2.25 2.25 0 0 1 9.75 11zm-6 5c0 .966.784 1.75 1.75 1.75v-1.5a.25.25 0 0 1-.25-.25zm7.5-6A2.75 2.75 0 0 0 7 7.25v1.5c.69 0 1.25.56 1.25 1.25zm9.5-2c0 .69-.56 1.25-1.25 1.25v1.5A2.75 2.75 0 0 0 20.75 8zM5 7.25A2.75 2.75 0 0 0 2.25 10h1.5c0-.69.56-1.25 1.25-1.25zm13-.5c.69 0 1.25.56 1.25 1.25h1.5A2.75 2.75 0 0 0 18 5.25z"/>
</svg>