<svg xmlns="http://www.w3.org/2000/svg" width="24" height="24" viewBox="0 0 24 24" fill="none">
    <path fill="currentColor" d="M9 9.25a.75.75 0 0 0 0 1.5zm6 1.5a.75.75 0 0 0 0-1.5zm-6 2.5a.75.75 0 0 0 0 1.5zm6 1.5a.75.75 0 0 0 0-1.5zm-.691 4.046-.295-.69zm-2.186.766-.092-.744zm-1.22-.036-.136.738zm-5.75-6.162-.746.071zm.47 2.69.685-.307zm.804 1.172.533-.528zm12.478-4.481-.746-.071zm-.699 3.514.65.376zm-.5.687-.556-.504zM14.492 5.248l-.182.728zm4.225 1.805-.612.433zM5.245 7.008l-.62-.422zm13.02 4.559-.106 1.107 1.493.142.105-1.107zM5.9 13.293l-.18-1.897-1.494.142.181 1.897zM9.504 5.85l.657-.187L9.75 4.22l-.657.188zm3.373-.233 1.434.359.364-1.455-1.434-.359zm1.399 12.377-.262.113.59 1.378.263-.112zM3.25 12v-1.5h-1.5V12zm17.5-1.5V12h1.5v-1.5zM9 10.75h6v-1.5H9zm0 4h6v-1.5H9zm-3.5-.5A2.25 2.25 0 0 1 3.25 12h-1.5a3.75 3.75 0 0 0 3.75 3.75zm-1-6.5a2.75 2.75 0 0 0-2.75 2.75h1.5c0-.69.56-1.25 1.25-1.25zm9.514 10.357c-1.123.48-1.551.657-1.983.71l.185 1.49c.692-.087 1.346-.375 2.388-.822zM8.43 19.304c1.015.507 1.651.833 2.336.96l.273-1.475c-.428-.08-.846-.28-1.938-.827zm3.6-.486a3.25 3.25 0 0 1-.991-.03l-.273 1.476a4.75 4.75 0 0 0 1.449.042zM10.16 5.663c.805-.23 1.08-.303 1.353-.307l-.025-1.5c-.516.008-1.009.155-1.74.364zm3.08-1.5c-.738-.185-1.236-.316-1.752-.307l.025 1.5c.274-.005.55.058 1.363.261zm-8.834 9.272c.128 1.34.199 2.184.533 2.927l1.368-.615c-.209-.464-.27-1.01-.408-2.454zm4.695 4.527c-1.297-.648-1.785-.902-2.142-1.264l-1.067 1.055c.573.579 1.335.95 2.538 1.551zm-4.162-1.6c.232.517.555.988.953 1.39l1.067-1.054a3.25 3.25 0 0 1-.652-.951zm13.219-3.688c-.182 1.91-.267 2.63-.602 3.21l1.299.75c.537-.929.627-2.049.796-3.818zm-3.292 6.7c1.633-.701 2.672-1.129 3.394-1.924l-1.111-1.008c-.45.496-1.11.796-2.874 1.552zm2.69-3.49c-.115.2-.252.387-.407.558l1.11 1.008c.227-.25.427-.523.596-.815zM20.75 12a2.25 2.25 0 0 1-2.25 2.25v1.5A3.75 3.75 0 0 0 22.25 12zm-.993-.291c.115-1.206.21-2.18.186-2.965-.025-.805-.174-1.504-.612-2.124l-1.225.866c.204.288.318.656.337 1.303.02.669-.06 1.533-.179 2.778zm-5.446-5.733c1.213.303 2.055.515 2.678.757.604.234.913.464 1.117.753l1.225-.866c-.439-.62-1.048-.994-1.8-1.286-.73-.283-1.68-.52-2.856-.813zM19.5 9.25c.69 0 1.25.56 1.25 1.25h1.5a2.75 2.75 0 0 0-2.75-2.75zM5.72 11.396c-.115-1.207-.194-2.043-.175-2.692.017-.628.125-.988.32-1.273l-1.24-.845c-.417.61-.558 1.292-.58 2.076-.021.763.07 1.708.181 2.876zm3.372-6.988c-1.13.323-2.042.582-2.745.88-.722.307-1.305.686-1.722 1.298l1.24.845c.194-.285.49-.516 1.068-.762.598-.253 1.405-.486 2.57-.819z"/>
</svg>