<svg xmlns="http://www.w3.org/2000/svg" width="24" height="24" fill="none">
    <path fill="currentColor" d="M13.75 15.5a.75.75 0 0 0-1.5 0zm-1.5 1a.75.75 0 0 0 1.5 0zm6-1a.75.75 0 0 0-1.5 0zm-1.5 1a.75.75 0 0 0 1.5 0zM9.248 9.476a.75.75 0 1 0 .772 1.287zm5.008 1.566.366-.655zm-.51-3.094-.37.653zm6.022 11.82-.53-.53zm.22-11.351-.366.654zM4.923 20.116l-.4.634zm-.883-.958-.665.347zm5.746.798.668.343zm-.353.388-.403-.633zM8.076 3.611l-.283.694zm.81.79.687-.298zm-.608 1.363c.058 2.51.238 6.914.797 12.956l1.494-.138c-.556-6.005-.734-10.375-.792-12.853zm-3.612 10.17c.372-4.623.507-8.064.556-10.17l-1.5-.035c-.048 2.08-.181 5.492-.551 10.084zm15.084-4.855V15.5h1.5v-4.42zM15.5 19.75H8v1.5h7.5zM13.25 9.266v.444h1.5v-.444zm2.667 1.935 1.928-1.186-.786-1.278-1.928 1.186zM12.25 15.5v1h1.5v-1zm4.5 0v1h1.5v-1zm-6.73-4.737 2.851-1.711-.771-1.286-2.852 1.71zm3.23-1.053c0 .371-.002.735.04 1.02.043.288.162.721.6.966l.732-1.309a.389.389 0 0 1 .152.153c.017.033.01.036 0-.03a2.636 2.636 0 0 1-.02-.297 20.534 20.534 0 0 1-.004-.503zm1.881.213c-.171.106-.31.19-.43.26s-.204.114-.263.139c-.062.026-.063.018-.026.016a.388.388 0 0 1 .21.049l-.732 1.31c.438.244.87.119 1.138.004.264-.113.573-.306.89-.5zm-.381-.657c0-.366.002-.727-.04-1.009-.042-.287-.16-.716-.594-.962l-.74 1.306a.387.387 0 0 1-.15-.153c-.017-.033-.01-.036 0 .03.01.062.017.154.02.292.004.137.004.297.004.496zm-1.879-.214c.17-.102.308-.185.428-.252.12-.068.203-.11.26-.134.062-.025.063-.017.026-.015a.388.388 0 0 1-.208-.05l.739-1.306c-.433-.245-.862-.126-1.13-.014-.264.109-.572.296-.886.485zM19.75 15.5c0 1.2-.002 2.024-.085 2.643-.08.598-.224.89-.428 1.094l1.061 1.061c.529-.529.751-1.19.854-1.955.1-.742.098-1.686.098-2.843zm-4.25 5.75c1.157 0 2.1.002 2.843-.098.764-.103 1.426-.325 1.955-.854l-1.06-1.06c-.204.203-.497.347-1.095.427-.619.083-1.443.085-2.643.085zm5.75-10.17c0-.768.002-1.429-.072-1.929-.075-.504-.258-1.073-.824-1.39l-.732 1.31c-.054-.03.019-.06.072.3.054.364.056.89.056 1.708zm-3.405-1.065c.696-.429 1.146-.703 1.484-.848.334-.143.347-.065.293-.096l.732-1.31c-.567-.316-1.147-.174-1.616.027-.464.199-1.026.547-1.68.95zM8.143 19.75c-.884 0-1.495 0-1.963-.045-.46-.043-.695-.122-.857-.224l-.8 1.27c.449.281.953.395 1.516.448.555.052 1.249.051 2.104.051zM3.17 15.813c-.07.868-.127 1.57-.12 2.133.006.571.078 1.088.324 1.56l1.33-.695c-.089-.169-.149-.412-.155-.883-.005-.478.044-1.098.116-1.994zm2.152 3.668a1.722 1.722 0 0 1-.619-.67l-1.33.694c.27.514.659.936 1.15 1.245zm3.752-.76c.034.363.053.583.053.746 0 .154-.02.17-.01.147l1.335.684c.145-.28.174-.569.175-.828 0-.25-.028-.554-.06-.888zm-.932 2.529c.333 0 .636 0 .885-.023.258-.024.54-.081.807-.25l-.805-1.266c.02-.013.007.009-.144.023a8.97 8.97 0 0 1-.743.016zm.976-1.636a.246.246 0 0 1-.089.097l.805 1.266c.263-.167.476-.4.618-.678zM6.75 4.25c.361 0 .596 0 .775.012a.892.892 0 0 1 .268.043l.566-1.389a2.316 2.316 0 0 0-.735-.15c-.24-.016-.533-.016-.874-.016zm3.027 1.48c-.008-.35-.014-.647-.036-.89a2.33 2.33 0 0 0-.168-.737L8.198 4.7a.914.914 0 0 1 .05.272c.015.183.021.423.03.791zM7.793 4.304a.73.73 0 0 1 .405.396l1.375-.598A2.229 2.229 0 0 0 8.36 2.916zM6.75 2.75c-.341 0-.634 0-.874.015a2.316 2.316 0 0 0-.735.151l.566 1.39a.892.892 0 0 1 .268-.044c.18-.012.414-.012.775-.012zM5.222 5.764c.009-.368.015-.608.03-.791a.914.914 0 0 1 .05-.272l-1.375-.598a2.33 2.33 0 0 0-.168.738c-.022.242-.028.54-.036.888zm-.08-2.848c-.55.224-.979.642-1.215 1.187l1.375.598a.73.73 0 0 1 .405-.396z"/>
</svg>