<svg xmlns="http://www.w3.org/2000/svg" width="24" height="24" fill="none">
    <path fill="currentColor" d="M21 12.752a.75.75 0 0 0 0-1.5zm-18-1.5a.75.75 0 0 0 0 1.5zm2.224 8.203-.666.345zm1.37 1.04.153-.735zm-.687-5.372-.297-.69zm-.785.784-.688-.297zm13.585-.081.739-.131zM5.224 4.546l-.666-.344zm1.37-1.039.153.735zM5.908 8.88l-.297.69zm-.785-.784.69-.297zm13.585.081.739.131zM21 11.252H3v1.5h18zm-7.595-3H7.277v1.5h6.128zm.958-3.344c-1.8-.659-3.624-1.25-5.482-1.77l-.405 1.444c1.82.51 3.606 1.089 5.371 1.735zm-.958 9.342H7.277v1.5h6.128zm.442 3.435a72.888 72.888 0 0 1-5.37 1.735l.404 1.445a74.36 74.36 0 0 0 5.482-1.771zm-9.597-.408c0 .57 0 1.042.03 1.424.032.39.1.756.278 1.1l1.332-.69c-.047-.09-.09-.23-.114-.531-.025-.308-.026-.709-.026-1.303zm4.226 2.143c-.548.154-.914.256-1.204.312-.279.053-.423.05-.525.028l-.304 1.47c.374.077.736.047 1.112-.025.366-.07.803-.193 1.326-.34zm-3.918.38a2.804 2.804 0 0 0 1.885 1.43l.304-1.47a1.305 1.305 0 0 1-.857-.65zm2.719-5.55c-.352 0-.654 0-.903.017a2.3 2.3 0 0 0-.764.167l.593 1.377a.868.868 0 0 1 .277-.047c.184-.013.424-.014.797-.014zM5.75 17.277c0-.373 0-.613.013-.797a.867.867 0 0 1 .048-.276l-1.377-.594a2.3 2.3 0 0 0-.167.764c-.017.25-.017.552-.017.903zm-.14-2.843a2.25 2.25 0 0 0-1.176 1.176l1.377.594a.75.75 0 0 1 .392-.393zm7.795 1.316c1.74 0 2.975.002 3.797.098.415.05.648.115.767.173.09.045.016.03 0-.064l1.477-.262c-.09-.508-.434-.832-.814-1.02-.353-.173-.792-.262-1.255-.316-.932-.11-2.276-.109-3.972-.109zm.958 3.344c1.562-.572 2.802-1.024 3.625-1.443.409-.208.785-.44 1.053-.726.29-.309.494-.728.405-1.23l-1.477.262c-.016-.09.044-.128-.02-.06-.087.093-.276.232-.64.417-.724.367-1.858.784-3.462 1.371zM5.75 6.724c0-.594 0-.994.026-1.302.024-.3.067-.441.114-.53l-1.332-.69c-.178.342-.246.709-.278 1.099-.03.382-.03.854-.03 1.424zm3.131-3.587c-.523-.147-.96-.27-1.326-.34-.376-.072-.738-.102-1.112-.024l.304 1.469c.102-.022.246-.026.525.028.29.056.656.158 1.204.312zM5.89 4.891c.165-.319.505-.577.857-.65l-.304-1.468a2.804 2.804 0 0 0-1.885 1.429zm1.387 3.36c-.373 0-.613 0-.797-.013a.867.867 0 0 1-.277-.048L5.61 9.568a2.3 2.3 0 0 0 .764.166c.249.018.551.018.903.018zM4.25 6.726c0 .351 0 .654.017.903a2.3 2.3 0 0 0 .167.764l1.377-.594a.868.868 0 0 1-.048-.276 12.692 12.692 0 0 1-.013-.797zM6.203 8.19a.75.75 0 0 1-.392-.392l-1.377.594A2.25 2.25 0 0 0 5.61 9.568zm7.202 1.562c1.696 0 3.04 0 3.973-.109.462-.054.901-.143 1.254-.317.38-.188.723-.51.814-1.019l-1.477-.262c.016-.095.09-.109 0-.064-.119.058-.352.124-.767.173-.823.096-2.057.098-3.798.098zm.442-3.435c1.604.587 2.738 1.004 3.461 1.371.365.185.554.324.64.416.065.068.005.03.02-.059l1.478.262c.089-.502-.114-.922-.405-1.23-.268-.285-.644-.519-1.053-.726-.823-.419-2.063-.871-3.625-1.443z"/>
</svg>