<svg xmlns="http://www.w3.org/2000/svg" width="24" height="24" fill="none">
    <path stroke="currentColor" stroke-linecap="round" stroke-width="1.5" d="M9 13h6M7.9 3.5h-.882c-.946 0-1.42 0-1.81.091A3.5 3.5 0 0 0 2.59 6.207c-.091.391-.091.865-.091 1.811V12.5c0 3.771 0 5.657 1.172 6.828C4.843 20.5 6.729 20.5 10.5 20.5h3.75c3.048 0 4.571 0 5.633-.787.316-.235.596-.514.83-.83.787-1.062.787-2.585.787-5.633v-.496c0-2.575 0-3.863-.57-4.813a4 4 0 0 0-1.371-1.37C18.609 6 17.321 6 14.746 6h-1.645A3.33 3.33 0 0 1 10.5 4.75v0A3.33 3.33 0 0 0 7.9 3.5Z"/>
</svg>