<svg xmlns="http://www.w3.org/2000/svg" width="24" height="24" viewbox="0 0 24 24" fill="none">
    <path fill="currentColor" d="M16.75 4a.75.75 0 0 0-1.5 0zM4 15.25a.75.75 0 0 0 0 1.5zM9.75 8a.75.75 0 0 0-1.5 0zm-1.5 4a.75.75 0 0 0 1.5 0zm.334-2.124a.75.75 0 1 0 .832 1.248zm3.832-.752a.75.75 0 1 0-.832-1.248zm-3 .252a.75.75 0 0 0-.832 1.248zm2.168 3.248a.75.75 0 1 0 .832-1.248zm6.886 6.906a.75.75 0 1 0 1.06-1.06zm-13.798-.202-.53.53zm14.656 0 .53.53zm0-14.656.53-.53zm-4.207 10.45.53.53zM11.5 4.25h1v-1.5h-1zm8.25 7.25v1h1.5v-1zm-7.25 8.25h-1v1.5h1zM4.25 12.5v-1h-1.5v1zm11-8.5v6h1.5V4zM10 15.25H4v1.5h6zM8.25 8v4h1.5V8zm1.166 3.124 3-2-.832-1.248-3 2zm-.832-.5 3 2 .832-1.248-3-2zm6.386 5.406 3.5 3.5 1.06-1.06-3.5-3.5zm-3.47 3.72c-1.907 0-3.261-.002-4.29-.14-1.005-.135-1.585-.389-2.008-.812l-1.06 1.06c.748.75 1.697 1.081 2.869 1.239 1.15.155 2.625.153 4.489.153zM2.75 12.5c0 1.864-.002 3.338.153 4.489.158 1.172.49 2.121 1.238 2.87l1.06-1.06c-.422-.424-.676-1.004-.811-2.01-.138-1.028-.14-2.382-.14-4.289zm17 0c0 1.907-.002 3.262-.14 4.29-.135 1.005-.389 1.585-.812 2.008l1.06 1.06c.75-.748 1.081-1.697 1.239-2.869.155-1.15.153-2.625.153-4.489zm-7.25 8.75c1.864 0 3.338.002 4.489-.153 1.172-.158 2.121-.49 2.87-1.238l-1.06-1.06c-.424.422-1.004.676-2.01.811-1.028.138-2.382.14-4.289.14zm0-17c1.907 0 3.262.002 4.29.14 1.005.135 1.585.389 2.008.812l1.06-1.06c-.748-.75-1.697-1.081-2.869-1.239-1.15-.155-2.625-.153-4.489-.153zm8.75 7.25c0-1.864.002-3.338-.153-4.489-.158-1.172-.49-2.121-1.238-2.87l-1.06 1.06c.422.424.676 1.004.811 2.01.138 1.028.14 2.382.14 4.289zm-6-1.5c0 1.435-.002 2.437-.103 3.192-.099.734-.28 1.122-.556 1.399l1.06 1.06c.603-.601.861-1.36.983-2.26.118-.878.116-1.998.116-3.391zM10 16.75c1.393 0 2.513.002 3.392-.116.9-.122 1.658-.38 2.26-.982L14.59 14.59c-.277.277-.665.457-1.4.556-.755.101-1.756.103-3.191.103zm1.5-14c-1.864 0-3.338-.002-4.489.153-1.172.158-2.121.49-2.87 1.238l1.06 1.06c.424-.422 1.004-.676 2.01-.811 1.028-.138 2.382-.14 4.289-.14zM4.25 11.5c0-1.907.002-3.261.14-4.29.135-1.005.389-1.585.812-2.008l-1.06-1.06c-.75.748-1.081 1.697-1.239 2.869-.155 1.15-.153 2.625-.153 4.489z"/>
</svg>