<svg xmlns="http://www.w3.org/2000/svg" width="24" height="24" viewBox="0 0 24 24" fill="none">
    <path stroke="currentColor" stroke-linecap="round" stroke-linejoin="round" stroke-width="1.5" d="M4 19h17M7 9v5m0-5h13.5A1.5 1.5 0 0 0 22 7.5v0A1.5 1.5 0 0 0 20.5 6h-1.25a.25.25 0 0 1-.25-.25v0a.25.25 0 0 0-.25-.25h-2.5a.25.25 0 0 0-.25.25v0a.25.25 0 0 1-.25.25h-5.5a.25.25 0 0 1-.25-.25v0a.25.25 0 0 0-.25-.25h-2.5a.25.25 0 0 0-.25.25v0a.25.25 0 0 1-.25.25H3.667c-.417 0-.626 0-.916.28-.127.121-.3.506-.306.681-.016.403.032.457.128.564C3.885 9 7 9 7 9m0 5c0 3-2 5-2 5m2-5h4m5 0h4m-4 0V9m0 5c0 3-2 5-2 5M11 9v10m9-10v10"/>
</svg>