<svg xmlns="http://www.w3.org/2000/svg" width="24" height="24" viewBox="0 0 24 24" fill="none">
    <path stroke="currentColor" stroke-linejoin="round" stroke-width="1.5" d="m8 20 .507-3.04c.204-1.225.306-1.837.666-2.259.14-.164.306-.304.49-.415C10.14 14 10.76 14 12 14c1.24 0 1.861 0 2.337.286.184.111.35.251.49.415.36.422.462 1.034.666 2.258L16 20m-6-6v-2.563c0-.678 0-1.017.098-1.318a2 2 0 0 1 .499-.808c.226-.222.529-.374 1.135-.677.724-.362 1.086-.543 1.38-.51a1 1 0 0 1 .726.449c.162.248.162.653.162 1.462V14m7-2a9 9 0 1 1-18 0 9 9 0 0 1 18 0Z"/>
</svg>