<svg xmlns="http://www.w3.org/2000/svg" width="24" height="24" viewBox="0 0 24 24" fill="none">
    <path fill="currentColor" d="m4.962 18.592-.475.58zm-.554-.554-.58.475zm15.764.475a.75.75 0 1 0-1.16-.951zm-1.61-.5a.75.75 0 1 0 .951 1.159zm.951-13.185a.75.75 0 0 0-.951 1.16zm-.5 1.61a.75.75 0 1 0 1.159-.951zm-14.05-1.03-.476-.58zm-.555.555-.58-.476zM15.014 3.76a.75.75 0 0 0-.027 1.5zm.945 1.532a.75.75 0 0 0 .082-1.497zm5.246 3.666a.75.75 0 0 0-1.498.082zm-1.465 1.055a.75.75 0 1 0 1.5-.027zm1.5 4a.75.75 0 1 0-1.5-.027zm-1.533.945a.75.75 0 1 0 1.498.082zM16 19.456l.04.749a.75.75 0 0 0-.065-1.499zm-1 .033-.025-.75a.75.75 0 0 0 .039 1.5zM12.75 3a.75.75 0 0 0-1.5 0zm-1.5 18.5a.75.75 0 0 0 1.5 0zM2.75 12c0 1.625-.001 2.91.119 3.925.122 1.03.377 1.88.96 2.588l1.159-.951c-.326-.398-.525-.924-.63-1.813-.107-.906-.108-2.087-.108-3.749zm2.688 6.012a3.256 3.256 0 0 1-.45-.45l-1.16.951c.198.241.418.461.659.659zm13.574-.45a3.262 3.262 0 0 1-.45.45l.951 1.16c.24-.198.461-.418.659-.659zm-.45-11.574c.164.135.315.286.45.45l1.16-.951a4.751 4.751 0 0 0-.659-.659zM4.25 12c0-1.662.001-2.843.108-3.749.105-.889.304-1.415.63-1.813l-1.16-.951c-.582.709-.837 1.557-.96 2.588-.12 1.015-.118 2.3-.118 3.925zm.237-7.172a4.75 4.75 0 0 0-.659.659l1.16.951a3.25 3.25 0 0 1 .45-.45zm4.5-1.067c-1.98.036-3.418.179-4.5 1.067l.951 1.16c.627-.515 1.541-.69 3.576-.727zm.027 14.978c-2.035-.036-2.949-.212-3.576-.727l-.951 1.16c1.082.888 2.52 1.031 4.5 1.067zm5.973-13.478c.353.006.675.016.972.032l.082-1.497c-.32-.018-.663-.029-1.027-.035zm6.252 4.726a28.643 28.643 0 0 0-.034-1.028l-1.498.082c.016.297.026.62.032.973zm-1.5 4a27.2 27.2 0 0 1-.032.972l1.498.082c.017-.32.028-.663.034-1.027zm-4.725 6.252a28.64 28.64 0 0 0 1.027-.034l-.082-1.498c-.296.016-.62.026-.973.032zm.96-1.533-1 .034.051 1.499 1-.034zM11.25 3v18.5h1.5V3z"/>
</svg>