<svg xmlns="http://www.w3.org/2000/svg" width="24" height="24" viewBox="0 0 24 24" fill="none">
    <path stroke="currentColor" stroke-linecap="round" stroke-linejoin="round" stroke-width="1.5" d="M4 11s4.821 1 8 1c3.179 0 8-1 8-1m-14 .369V19M9 8.373V19m6-10.627V19m3-7.631V19M5 19h5m4 0h5M12 5.5c-1.769 0-4.356-.465-6.303-.877-.871-.184-1.307-.276-1.55-.162a.786.786 0 0 0-.447.578c-.049.264.147.655.538 1.438v0c.27.54.406.81.607 1.025.192.204.44.374.7.48.272.111.564.14 1.148.196 1.49.143 3.67.322 5.307.322 1.638 0 3.818-.179 5.307-.322.584-.057.876-.085 1.148-.196.26-.106.508-.276.7-.48.201-.214.336-.485.607-1.025v0c.39-.783.587-1.174.538-1.438a.786.786 0 0 0-.447-.578c-.243-.114-.679-.022-1.55.162-1.947.412-4.534.877-6.303.877"/>
</svg>