<svg xmlns="http://www.w3.org/2000/svg" width="24" height="24" viewbox="0 0 24 24" fill="none">
    <path fill="currentColor" d="M15.17 8.335a.75.75 0 0 0-1.34-.67zm-5.34 7.33a.75.75 0 1 0 1.34.67zm-7.56-2.493a.75.75 0 1 0 1.46-.344zm6.46-7.344a.75.75 0 0 0-1.46.344zm5.541 11.995a.75.75 0 0 0 1.458.354zm6 .354a.75.75 0 0 0 1.458-.354zm-4.485-2.927a.75.75 0 0 0 0 1.5zm4.428 1.5a.75.75 0 0 0 0-1.5zm-1.501-5.297-.681.314zm-10.65 1.266.734.16zm9.224-1.266-.68-.315zM3.605 6.183l-.651.373zm10.224 1.482-4 8 1.342.67 4-8zM2.954 6.555l3.79 6.634 1.302-.745-3.79-6.632zm.776 6.273c-.516-2.188-.536-4.214-.061-6.386l-1.466-.32c-.523 2.393-.5 4.647.067 7.05zm5.067.05c.523-2.393.5-4.647-.067-7.05l-1.46.344c.516 2.188.536 4.214.061 6.386zm9.235-1.11a34.734 34.734 0 0 1 2.24 6.41l1.457-.355a36.243 36.243 0 0 0-2.335-6.685zm-2.303 6.41a34.749 34.749 0 0 1 2.239-6.41l-1.362-.63a36.254 36.254 0 0 0-2.335 6.685zm.057-1.428h4.428v-1.5h-4.428zm2.214-5c.019 0 .029.01.032.017l1.362-.63A1.534 1.534 0 0 0 18 10.25zm-10.289 2a1.11 1.11 0 0 0 1.086-.871l-1.466-.32a.39.39 0 0 1 .38-.309zm-.967-.562c.198.348.568.562.967.562v-1.5c.139 0 .267.074.335.194zM18 10.25c-.592 0-1.14.34-1.394.888l1.362.63c.003-.008.013-.018.032-.018zM3.288 6.75a.386.386 0 0 1-.334-.194l1.302-.744a1.114 1.114 0 0 0-.968-.562zm0-1.5a1.11 1.11 0 0 0-1.085.871l1.466.32a.39.39 0 0 1-.38.309z"/>
</svg>