<svg xmlns="http://www.w3.org/2000/svg" width="24" height="24" fill="none">
    <path fill="currentColor" d="M10.191 17.324a.75.75 0 1 0 1.5 0zm6.794-7.942a.75.75 0 0 0-1.5 0zM20 6.465a.75.75 0 0 0-.115-1.496zM4.589 17.677l.6-.45zm4.435 2.645-.058-.748zM5.31 18.64l.6-.45zm12.227 1.027.057.748zm1.518-15.992-.416.624zm-3.45 12.958.639-.394zM18.511 3.31l-.417.624zm-6.941 6.762-.639.393zM6.03 4.12l9.864-.76-.115-1.495-9.863.759zm12.064-.184.546.364.832-1.248-.546-.364zm1.627 2.383V16.5h1.5V6.318zm-2.24 12.601-8.515.655.115 1.495 8.514-.654zM5.91 18.19l-.723-.963-1.2.9.723.963zM4.279 14.5V6.01h-1.5v8.49zm2.957-8.295L4.59 3.558l-1.06 1.06 2.646 2.648zm-1.28.53v13.236h1.5V6.735zm5.735 10.589V10.25h-1.5v7.073zm-.76-6.858 4.037 6.56 1.277-.787-4.036-6.559zm6.054 5.989V9.381h-1.5v7.073zm2.899-11.486L6.648 5.987l.115 1.496L20 6.465zm-8.193 5.282a.41.41 0 0 1-.41.41v-1.5a1.09 1.09 0 0 0-1.09 1.09zm-6.503 6.976A4.544 4.544 0 0 1 4.28 14.5h-1.5c0 1.308.424 2.58 1.21 3.627zm3.778 2.347a3.485 3.485 0 0 1-3.055-1.384l-1.2.9a4.985 4.985 0 0 0 4.37 1.98zM19.721 16.5a2.427 2.427 0 0 1-2.24 2.419l.114 1.496a3.927 3.927 0 0 0 3.626-3.915zm-3.825 1.044a1.09 1.09 0 0 0 1.09-1.09h-1.5a.41.41 0 0 1 .41-.41zM18.64 4.3a2.427 2.427 0 0 1 1.08 2.019h1.5a3.926 3.926 0 0 0-1.748-3.267zm-3.672 12.727c.198.322.55.518.928.518v-1.5a.41.41 0 0 1 .349.195zm.926-13.666a3.485 3.485 0 0 1 2.2.575l.832-1.248a4.985 4.985 0 0 0-3.147-.823zm-4.613 7.302a.41.41 0 0 1-.35-.196l1.278-.786a1.09 1.09 0 0 0-.928-.518zM5.916 2.623A3.397 3.397 0 0 0 2.779 6.01h1.5c0-.991.764-1.815 1.752-1.891z"/>
</svg>