<svg xmlns="http://www.w3.org/2000/svg" width="24" height="24" viewBox="0 0 24 24" fill="none">
    <path fill="currentColor" d="m13.707 7.257-.517-.543zm7.242-3.828-.242-.71zm.121.122.71.242zm-3.827 7.242-.544-.517zM6.238 19.676l.214-.719zm-.82-5.447.736.147zm-.196 1.514-.736-.147zm-1.53 2.284.487.57zm-.236.192-.463-.59a.75.75 0 0 0-.018 1.166zM14.224 7.801c.96-.913 2.448-1.75 3.863-2.41a32.897 32.897 0 0 1 3.105-1.252l-.485-1.42c-.477.163-1.789.63-3.254 1.313-1.449.675-3.12 1.595-4.263 2.682zm6.137-4.493c-.154.45-.6 1.707-1.253 3.105-.659 1.415-1.496 2.902-2.409 3.863l1.087 1.034c1.087-1.144 2.006-2.814 2.682-4.263a34.374 34.374 0 0 0 1.312-3.254zm-8.93 8.449c.73-1.326 1.758-2.972 2.793-3.956L13.19 6.714c-1.215 1.156-2.337 2.98-3.074 4.319zm5.268-1.48c-.984 1.034-2.63 2.063-3.956 2.793l.724 1.314c1.338-.737 3.163-1.859 4.32-3.074zm4.493-6.138a.656.656 0 0 1-.831-.83l1.42.484a.844.844 0 0 0-1.074-1.073zm-9.783 13.548c-1.7 1.7-3.51 1.7-4.957 1.27l-.427 1.438c1.826.543 4.257.54 6.445-1.647zm0-4.596a3.25 3.25 0 0 1 0 4.596l1.06 1.061a4.75 4.75 0 0 0 0-6.718zm-4.596 0a3.25 3.25 0 0 1 4.596 0l1.06-1.06a4.75 4.75 0 0 0-6.717 0zm-.66 1.285c.092-.456.263-.888.66-1.285l-1.06-1.06c-.664.663-.939 1.395-1.07 2.051zM4.18 18.597c.563-.482 1.517-1.4 1.778-2.707l-1.47-.294c-.156.777-.758 1.412-1.283 1.861zm-.26.212a8.02 8.02 0 0 0 .26-.212l-.975-1.14c-.07.059-.14.116-.211.173zm2.533.148c-.924-.274-1.82-.732-2.515-1.313l-.962 1.15c.872.73 1.957 1.276 3.05 1.601zm6.194-9.932-.154.734h-.003l-.002-.001h-.002a1.461 1.461 0 0 1 .086.025c.07.022.18.061.313.124a3.56 3.56 0 0 1 1 .71l1.06-1.061a5.06 5.06 0 0 0-1.423-1.007 4.153 4.153 0 0 0-.645-.24 1.984 1.984 0 0 0-.07-.017H12.8zm1.238 1.591c.364.365.583.73.709 1a2.654 2.654 0 0 1 .15.399v-.002l-.002-.002v-.003l.734-.154.734-.155v-.001l-.001-.003-.002-.006-.003-.017a2.271 2.271 0 0 0-.057-.2 4.135 4.135 0 0 0-.195-.493 5.058 5.058 0 0 0-1.007-1.423zM5.957 15.89c.06-.294.086-.586.11-.833.025-.26.046-.475.087-.68l-1.471-.295c-.059.294-.086.586-.11.833-.024.26-.045.475-.087.68z"/>
</svg>