<svg xmlns="http://www.w3.org/2000/svg" width="24" height="24" viewBox="0 0 24 24" fill="none">
    <path fill="currentColor" d="M4.599 6.45a.75.75 0 1 0-1.2-.9zm-1.2 12a.75.75 0 0 0 1.2-.9zM20.6 5.55a.75.75 0 1 0-1.199.9zm-1.199 12a.75.75 0 1 0 1.2.9zM9.25 15a.75.75 0 0 0 1.5 0zm9-3A6.25 6.25 0 0 1 12 18.25v1.5A7.75 7.75 0 0 0 19.75 12zM12 18.25A6.25 6.25 0 0 1 5.75 12h-1.5A7.75 7.75 0 0 0 12 19.75zM5.75 12A6.25 6.25 0 0 1 12 5.75v-1.5A7.75 7.75 0 0 0 4.25 12zM12 5.75A6.25 6.25 0 0 1 18.25 12h1.5A7.75 7.75 0 0 0 12 4.25zM2.75 12c0-2.083.688-4.004 1.849-5.55l-1.2-.9A10.706 10.706 0 0 0 1.25 12zm1.849 5.55A9.206 9.206 0 0 1 2.75 12h-1.5c0 2.42.8 4.654 2.15 6.45zM19.4 6.45A9.206 9.206 0 0 1 21.25 12h1.5c0-2.42-.8-4.654-2.15-6.45zM21.25 12a9.206 9.206 0 0 1-1.849 5.55l1.2.9A10.705 10.705 0 0 0 22.75 12zM10 13.75h3v-1.5h-3zm3-5.5h-1.5v1.5H13zM9.25 10.5V13h1.5v-2.5zm0 2.5v2h1.5v-2zm2.25-4.75a2.25 2.25 0 0 0-2.25 2.25h1.5a.75.75 0 0 1 .75-.75zM15.75 11A2.75 2.75 0 0 0 13 8.25v1.5c.69 0 1.25.56 1.25 1.25zM13 13.75A2.75 2.75 0 0 0 15.75 11h-1.5c0 .69-.56 1.25-1.25 1.25z"/>
</svg>