<svg xmlns="http://www.w3.org/2000/svg" width="24" height="24" viewbox="0 0 24 24" fill="none">
    <path fill="currentColor" d="M11.25 3.714V12h1.5V3.714zM12 11.25h-.5v1.5h.5zM7.75 7.5v-.214h-1.5V7.5zm4.75 3.75H12v1.5h.5zm-1.25.75v8.286h1.5V12zm6.5 4.714V16.5h-1.5v.214zM3.714 12.75H12v-1.5H3.714zM11.25 12v.5h1.5V12zM7.5 16.25h-.214v1.5H7.5zm3.75-4.75v.5h1.5v-.5zm.75 1.25h8.286v-1.5H12zm4.714-6.5H16.5v1.5h.214zm5.036 5.036a5.036 5.036 0 0 0-5.036-5.036v1.5a3.536 3.536 0 0 1 3.536 3.536zm-9 .214a3.75 3.75 0 0 1 3.75-3.75v-1.5a5.25 5.25 0 0 0-5.25 5.25zm-1.5 1a3.75 3.75 0 0 1-3.75 3.75v1.5c2.9 0 5.25-2.35 5.25-5.25zm-7.5.214c0 .02-.016.036-.036.036v-1.5c-.808 0-1.464.656-1.464 1.464zm-1.5 0a5.036 5.036 0 0 0 5.036 5.036v-1.5a3.536 3.536 0 0 1-3.536-3.536zm10.464 9.036a5.036 5.036 0 0 0 5.036-5.036h-1.5a3.536 3.536 0 0 1-3.536 3.536zm-.214-9a3.75 3.75 0 0 1 3.75 3.75h1.5c0-2.9-2.35-5.25-5.25-5.25zm-1-1.5A3.75 3.75 0 0 1 7.75 7.5h-1.5c0 2.9 2.35 5.25 5.25 5.25zm-.214-7.5a.036.036 0 0 1-.036-.036h1.5c0-.808-.656-1.464-1.464-1.464zm-.036 16.536c0 .808.656 1.464 1.464 1.464v-1.5c.02 0 .036.016.036.036zm9.036-7.536c.808 0 1.464-.656 1.464-1.464h-1.5c0-.02.016-.036.036-.036zm-9-10.5A5.036 5.036 0 0 0 6.25 7.286h1.5a3.536 3.536 0 0 1 3.536-3.536z"/>
</svg>