<svg xmlns="http://www.w3.org/2000/svg" width="24" height="24" fill="none">
    <path fill="currentColor" d="m7 7-.694-.284zm0 5-.73.17a.75.75 0 0 0 .73.58zm0 5-.284.694zm5 0 .17.73a.75.75 0 0 0 .58-.73zm5 0 .694.284zm0-5 .73-.17a.75.75 0 0 0-.73-.58zm0-5 .284-.694zm-5 0-.17-.73a.75.75 0 0 0-.58.73zm1.344 13.338-.361-.657zm6.994-9.682-.657.361zm-9.682-6.994-.362-.657zM7.694 7.284c.228-.556.717-1.121 1.359-1.655.631-.525 1.353-.973 1.964-1.31l-.723-1.314c-.658.362-1.469.862-2.2 1.47-.722.601-1.425 1.355-1.788 2.24zM11.25 4.5V12h1.5V4.5zM12 11.25H7v1.5h5zM7 12a266.282 266.282 0 0 1 .73-.17v.001-.006a3.062 3.062 0 0 1-.026-.118 14.908 14.908 0 0 1-.235-1.597c-.09-1.009-.072-2.101.225-2.826l-1.388-.568c-.444 1.082-.425 2.49-.33 3.529a16.412 16.412 0 0 0 .29 1.911l.002.01a.086.086 0 0 1 .001.003zm.284 4.306c-.556-.228-1.121-.718-1.655-1.359-.525-.631-.973-1.353-1.31-1.964l-1.314.723c.362.658.862 1.469 1.47 2.2.601.722 1.355 1.425 2.24 1.788zM4.5 12.75H12v-1.5H4.5zM11.25 12v5h1.5v-5zm.75 5-.17-.73h.001-.006a14.937 14.937 0 0 1-1.715.26c-1.009.092-2.101.073-2.826-.224l-.568 1.388c1.082.444 2.49.425 3.529.33a16.41 16.41 0 0 0 1.88-.283l.031-.007.01-.002.002-.001h.001zm4.306-.284c-.228.556-.718 1.121-1.359 1.655-.631.525-1.353.973-1.964 1.31l.723 1.314c.658-.362 1.469-.862 2.2-1.47.722-.601 1.425-1.355 1.788-2.24zM12.75 19.5V12h-1.5v7.5zM12 12.75h5v-1.5h-5zm5-.75-.73.17v-.001.006l.006.022.02.096a14.937 14.937 0 0 1 .235 1.597c.09 1.009.072 2.101-.225 2.826l1.388.568c.444-1.082.425-2.49.33-3.529a16.41 16.41 0 0 0-.283-1.88l-.007-.031-.002-.01-.001-.002v-.001zm-.284-4.306c.556.228 1.121.717 1.655 1.359.525.631.973 1.353 1.31 1.964l1.314-.723c-.362-.658-.862-1.469-1.47-2.2-.601-.722-1.355-1.425-2.24-1.788zM19.5 11.25H12v1.5h7.5zM12.75 12V7h-1.5v5zM12 7l.17.73h-.001.006a3.062 3.062 0 0 1 .118-.026 14.908 14.908 0 0 1 1.597-.235c1.009-.09 2.101-.072 2.826.225l.568-1.388c-1.082-.444-2.49-.425-3.529-.33a16.412 16.412 0 0 0-1.911.29l-.01.002a.086.086 0 0 1-.003.001zm.983 12.68a.15.15 0 0 1-.08.023.13.13 0 0 1-.065-.021c-.044-.028-.088-.086-.088-.181h-1.5c0 1.224 1.28 2.14 2.456 1.494zm-8.664-6.697a.15.15 0 0 1-.022-.08.13.13 0 0 1 .021-.065c.028-.044.086-.088.181-.088v-1.5c-1.224 0-2.14 1.28-1.494 2.456zm15.362-1.966a.15.15 0 0 1 .022.08.13.13 0 0 1-.021.065c-.028.044-.086.088-.181.088v1.5c1.224 0 2.14-1.28 1.494-2.456zM11.017 4.32a.15.15 0 0 1 .08-.022.13.13 0 0 1 .065.021c.044.028.088.086.088.181h1.5c0-1.224-1.28-2.14-2.456-1.494z"/>
</svg>