<svg xmlns="http://www.w3.org/2000/svg" width="24" height="24" viewbox="0 0 24 24" fill="none">
    <path fill="currentColor" d="m10.965 7.526.65-.375zm-5.93 0-.65-.375zm2.6 5.134-.008.75zm-2.78-4.817L4.2 7.475zm6.29 0-.654.367zm-.364-.631.645-.383zm-5.563 0-.645-.383zm10.023 5.787-.623.417zM8 11.912c-.115 0-.234 0-.356-.002l-.017 1.5.373.002zm2.136-4.318.18.307 1.298-.75c-.06-.105-.123-.212-.188-.322zm.18.307c.057.1.116.203.175.31l1.308-.736-.184-.324zm-4.808.31c.06-.107.118-.21.176-.31l-1.3-.75-.184.324zm.176-.31c.057-.1.117-.202.18-.307l-1.29-.765-.19.322zm1.96 4.01c-1.194-.014-1.994-.026-2.564-.127-.54-.096-.7-.242-.793-.402l-1.299.75c.406.703 1.077.995 1.83 1.129.72.128 1.67.136 2.81.149zM4.2 7.474c-.558.993-1.025 1.82-1.275 2.508-.26.718-.343 1.445.063 2.149l1.3-.75c-.093-.16-.14-.373.047-.888.198-.544.588-1.243 1.173-2.284zm7.226-.646c-.58-.98-1.062-1.797-1.534-2.358C9.4 3.886 8.812 3.451 8 3.451v1.5c.184 0 .392.067.744.486.373.443.783 1.13 1.392 2.157zm-5.562.765c.608-1.027 1.019-1.714 1.391-2.157.352-.42.56-.486.745-.486v-1.5c-.813 0-1.401.435-1.893 1.02-.471.56-.953 1.379-1.534 2.358zM19.25 9c0 .964-.002 1.612-.067 2.095-.062.461-.169.659-.3.79l1.061 1.06c.456-.456.642-1.022.726-1.65.081-.606.08-1.373.08-2.295zM16 13.75c.922 0 1.688.002 2.294-.08.628-.084 1.195-.27 1.65-.725l-1.06-1.06c-.13.13-.328.237-.79.299-.483.065-1.13.067-2.094.067zm0-8c.964 0 1.611.002 2.095.067.46.062.658.17.789.3l1.06-1.061c-.455-.456-1.022-.641-1.65-.726-.606-.081-1.372-.08-2.294-.08zM20.75 9c0-.921.002-1.688-.08-2.294-.084-.628-.27-1.195-.726-1.65l-1.06 1.06c.13.13.237.328.3.79.064.483.066 1.13.066 2.094zM16 4.25c-.922 0-1.688-.001-2.295.08-.627.085-1.194.27-1.65.726l1.061 1.06c.13-.13.328-.237.79-.299.482-.065 1.13-.067 2.094-.067zM12.75 9c0-.964.002-1.611.066-2.094.063-.462.17-.66.3-.79l-1.06-1.06c-.456.455-.642 1.022-.726 1.65-.082.606-.08 1.373-.08 2.294zm2.5 6.5a3.75 3.75 0 0 1-3.75 3.75v1.5c2.9 0 5.25-2.35 5.25-5.25zm-3.75 3.75a3.75 3.75 0 0 1-3.75-3.75h-1.5c0 2.9 2.35 5.25 5.25 5.25zM7.75 15.5a3.75 3.75 0 0 1 3.75-3.75v-1.5a5.25 5.25 0 0 0-5.25 5.25zm3.75-3.75c.157 0 .311.01.463.029l.182-1.49a5.297 5.297 0 0 0-.645-.038zm.463.029c.138.017.273.041.406.072l.346-1.459a5.243 5.243 0 0 0-.57-.102zm-.041-.006.488.087.264-1.476-.488-.088zm.447.079c.931.22 1.73.79 2.249 1.564l1.246-.835a5.256 5.256 0 0 0-3.149-2.189zm2.249 1.564c.399.596.632 1.312.632 2.085h1.5a5.23 5.23 0 0 0-.886-2.92zM16 12.251c-.273 0-.522 0-.754-.002l-.01 1.5c.237.002.492.002.764.002zM10.49 8.21c.343.609.623 1.107.84 1.536l1.339-.676c-.235-.465-.534-.996-.871-1.596zm.759.79v.41l1.5-.003V9zm0 .41c.001.654.008 1.222.058 1.7l1.492-.154c-.04-.391-.049-.886-.05-1.55z"/>
</svg>