<svg xmlns="http://www.w3.org/2000/svg" width="24" height="24" viewbox="0 0 24 24" fill="none">
    <path fill="currentColor" d="M14 2.25a.75.75 0 0 0 0 1.5zm4 1.5a.75.75 0 0 0 0-1.5zM19 14v.75a.75.75 0 0 0 .724-.947zM16.724 2.803a.75.75 0 0 0-1.448.394zM5 13.25a.75.75 0 0 0 0 1.5zm4.414 2.164.53-.53zM7.25 19c0 .69-.56 1.25-1.25 1.25v1.5A2.75 2.75 0 0 0 8.75 19zM6 20.25c-.69 0-1.25-.56-1.25-1.25h-1.5A2.75 2.75 0 0 0 6 21.75zM4.75 19c0-.69.56-1.25 1.25-1.25v-1.5A2.75 2.75 0 0 0 3.25 19zM6 17.75c.69 0 1.25.56 1.25 1.25h1.5A2.75 2.75 0 0 0 6 16.25zM20.25 19c0 .69-.56 1.25-1.25 1.25v1.5A2.75 2.75 0 0 0 21.75 19zM19 20.25c-.69 0-1.25-.56-1.25-1.25h-1.5A2.75 2.75 0 0 0 19 21.75zM17.75 19c0-.69.56-1.25 1.25-1.25v-1.5A2.75 2.75 0 0 0 16.25 19zM19 17.75c.69 0 1.25.56 1.25 1.25h1.5A2.75 2.75 0 0 0 19 16.25zm-5-14h4v-1.5h-4zm4.182 11H19v-1.5h-.819zm1.542-.947-3-11-1.448.394 3 11zm-4.779 1.447h-4.117v1.5h4.118zm-5-.366-.536-.536-1.06 1.061.535.535zM6.757 13.25H5v1.5h1.757zm4.071 2a1.25 1.25 0 0 1-.883-.366l-1.061 1.06a2.75 2.75 0 0 0 1.944.806zm3.526.366a.662.662 0 0 1 .591-.366v1.5c.318 0 .608-.18.75-.463zm-4.945-1.268a3.75 3.75 0 0 0-2.652-1.098v1.5a2.25 2.25 0 0 1 1.591.659zm8.772-1.098a4.28 4.28 0 0 0-3.827 2.366l1.341.67a2.78 2.78 0 0 1 2.486-1.536z"/>
</svg>