<svg xmlns="http://www.w3.org/2000/svg" width="24" height="24" viewbox="0 0 24 24" fill="none">
    <path fill="currentColor" d="m8 3 .53-.53a.75.75 0 0 0-1.251.736zm6 7-.416.624zm2-7 .72.206a.75.75 0 0 0-1.25-.736zM6 19l-.671.335zm12 0-.671-.335zM7.279 3.206l2 7 1.442-.412-2-7zm7.442 7 2-7-1.442-.412-2 7zM16 3l-.53-.53v-.001l-.002.002-.013.013-.057.054a8.8 8.8 0 0 1-1.064.838c-.713.475-1.56.874-2.334.874v1.5c1.225 0 2.378-.601 3.166-1.126a10.306 10.306 0 0 0 1.36-1.09l.003-.002V3.53zm-4 1.25c-.775 0-1.622-.399-2.334-.874a8.81 8.81 0 0 1-1.134-.905l-.003-.002L8 3l-.53.53h.001v.002l.003.002a1.021 1.021 0 0 0 .028.027l.077.073a10.31 10.31 0 0 0 1.256.99C9.62 5.149 10.774 5.75 12 5.75zM9.584 9.376c-.878.585-1.588 1.47-2.154 2.42-.57.956-1.02 2.023-1.36 3.026a19.607 19.607 0 0 0-.71 2.708 9.276 9.276 0 0 0-.131.97 3.19 3.19 0 0 0-.007.377c.004.083.016.276.107.458l1.342-.67c.06.12.052.203.049.135a1.758 1.758 0 0 1 .005-.196c.014-.193.05-.467.11-.806.123-.675.34-1.561.656-2.495.317-.935.727-1.899 1.227-2.74.505-.846 1.076-1.524 1.698-1.939zm-4.255 9.96c.142.284.397.435.544.51.173.086.372.153.571.206.403.108.918.192 1.487.256 1.147.129 2.614.192 4.069.192 1.454 0 2.922-.063 4.068-.192.57-.064 1.085-.148 1.487-.256.2-.053.399-.12.572-.207.146-.074.401-.225.544-.51l-1.342-.67c.08-.16.19-.194.12-.159a1.593 1.593 0 0 1-.282.098 9.17 9.17 0 0 1-1.267.213c-1.072.121-2.48.183-3.9.183s-2.828-.062-3.9-.183a9.17 9.17 0 0 1-1.267-.213 1.59 1.59 0 0 1-.283-.098c-.07-.035.04-.001.12.159zm13.342 0c.09-.183.103-.376.107-.46a3.183 3.183 0 0 0-.007-.377 9.273 9.273 0 0 0-.13-.969 19.602 19.602 0 0 0-.712-2.708c-.34-1.003-.79-2.07-1.36-3.026-.565-.95-1.275-1.835-2.153-2.42l-.832 1.248c.622.415 1.193 1.093 1.697 1.94.5.84.91 1.804 1.227 2.74.317.933.534 1.819.656 2.494.062.339.097.613.11.806.008.098.008.162.006.196-.003.068-.01-.016.049-.135zm-4.255-9.96c-.668-.445-1.582-.626-2.416-.626-.834 0-1.749.181-2.416.626l.832 1.248c.332-.222.918-.374 1.584-.374s1.251.152 1.584.374z"/>
</svg>