<svg xmlns="http://www.w3.org/2000/svg" width="24" height="24" viewBox="0 0 24 24" fill="none">
    <path stroke="currentColor" stroke-linecap="round" stroke-linejoin="round" stroke-width="1.5" d="m3 9 .121.121c.434.434.65.65.765.926.114.276.114.582.114 1.196V12c0 3.771 0 5.657 1.172 6.828C6.343 20 8.229 20 12 20v0c3.771 0 5.657 0 6.828-1.172C20 17.657 20 15.771 20 12v-.757c0-.614 0-.92.114-1.196.114-.275.331-.492.765-.926L21 9M4 11h9.5m5 0H20m-7-8-.216.323A1.725 1.725 0 0 0 13 5.5v0c.582.581.672 1.492.216 2.177L13 8M9 3l-.216.323A1.725 1.725 0 0 0 9 5.5v0c.581.581.672 1.492.216 2.177L9 8m10-3-5 10m-.6-1H9.6a.6.6 0 0 0-.6.6v0a2.4 2.4 0 0 0 2.4 2.4h.2a2.4 2.4 0 0 0 2.4-2.4v0a.6.6 0 0 0-.6-.6"/>
</svg>