<svg xmlns="http://www.w3.org/2000/svg" width="24" height="24" fill="none">
    <path fill="currentColor" fill-rule="evenodd" d="M10.68 2.683a.75.75 0 0 0-1.36 0l-.203.435-.434.202a.75.75 0 0 0 0 1.36l.434.203.203.434a.75.75 0 0 0 1.36 0l.202-.434.435-.203a.75.75 0 0 0 0-1.36l-.435-.202zM4.945 6.76a1.25 1.25 0 0 1 2.11 0l.46.724.725.461a1.25 1.25 0 0 1 0 2.11l-.725.46-.46.725a1.25 1.25 0 0 1-2.11 0l-.46-.725-.725-.46a1.25 1.25 0 0 1 0-2.11l.724-.46zM6 7.897l-.28.44a1.25 1.25 0 0 1-.383.383l-.44.28.44.28c.154.098.285.229.383.383l.28.44.28-.44a1.25 1.25 0 0 1 .383-.383l.44-.28-.44-.28a1.25 1.25 0 0 1-.383-.383zm6.355.291a1.95 1.95 0 0 1 3.29 0l1.567 2.462a.45.45 0 0 0 .138.138l2.462 1.567a1.95 1.95 0 0 1 0 3.29l-2.462 1.567a.45.45 0 0 0-.138.138l-1.567 2.462a1.95 1.95 0 0 1-3.29 0l-1.567-2.462a.45.45 0 0 0-.138-.138l-2.462-1.567a1.95 1.95 0 0 1 0-3.29l2.462-1.567a.45.45 0 0 0 .138-.138zm2.024.805a.45.45 0 0 0-.759 0l-1.567 2.462a1.95 1.95 0 0 1-.598.598L8.993 13.62a.45.45 0 0 0 0 .76l2.462 1.566c.241.154.445.358.598.599l1.567 2.462a.45.45 0 0 0 .76 0l1.566-2.462a1.95 1.95 0 0 1 .598-.599l2.462-1.566a.45.45 0 0 0 0-.76l-2.462-1.566a1.95 1.95 0 0 1-.598-.599z" clip-rule="evenodd"/>
</svg>