<svg xmlns="http://www.w3.org/2000/svg" width="24" height="24" fill="none">
    <path fill="currentColor" d="M6 10.25a.75.75 0 0 0 0 1.5zm3 1.5a.75.75 0 0 0 0-1.5zm3-1.5a.75.75 0 0 0 0 1.5zm3 1.5a.75.75 0 0 0 0-1.5zm-6 2.5a.75.75 0 0 0 0 1.5zm3 1.5a.75.75 0 0 0 0-1.5zM19 4l.57-.488a.75.75 0 0 0-1.14 0zM6 11.75h3v-1.5H6zm6 0h3v-1.5h-3zm-3 4h3v-1.5H9zM20.25 8c0 .636-.51 1.25-1.25 1.25v1.5c1.666 0 2.75-1.386 2.75-2.75zM19 9.25c-.74 0-1.25-.614-1.25-1.25h-1.5c0 1.364 1.084 2.75 2.75 2.75zM17.75 8c0-.278.087-.633.256-1.041.165-.401.392-.81.628-1.184a12.767 12.767 0 0 1 .919-1.267l.013-.016.003-.004L19 4a184.048 184.048 0 0 0-.57-.487l-.002.002a.75.75 0 0 1-.006.007l-.02.023a8.943 8.943 0 0 0-.31.39c-.197.257-.461.62-.726 1.04a9.508 9.508 0 0 0-.747 1.41c-.206.498-.369 1.06-.369 1.615zM19 4l-.57.488.003.004.014.016.058.07a12.765 12.765 0 0 1 .861 1.198c.236.373.463.782.628 1.183.17.408.256.763.256 1.041h1.5c0-.555-.163-1.117-.37-1.615a9.508 9.508 0 0 0-.746-1.41 14.248 14.248 0 0 0-1.037-1.43c-.008-.01-.014-.018-.02-.023a.727.727 0 0 1-.005-.007l-.002-.002zm1.25 8c0 3.781-1.4 5.782-3.041 6.876-1.694 1.13-3.769 1.374-5.209 1.374v1.5c1.56 0 3.986-.256 6.041-1.626 2.11-1.406 3.709-3.905 3.709-8.124zM12 20.25c-1.44 0-3.514-.244-5.209-1.374C5.151 17.782 3.75 15.781 3.75 12h-1.5c0 4.218 1.6 6.718 3.709 8.124C8.014 21.494 10.44 21.75 12 21.75zM3.75 12c0-2.823.942-4.86 2.394-6.198C7.606 4.455 9.661 3.75 12 3.75v-1.5c-2.632 0-5.077.795-6.872 2.448C3.323 6.361 2.25 8.823 2.25 12zM12 3.75c2.254 0 4.245.655 5.695 1.908l.98-1.135C16.9 2.99 14.538 2.25 12 2.25zm7.933 5.611c.205.787.317 1.665.317 2.639h1.5c0-1.09-.126-2.096-.366-3.017z"/>
</svg>