<svg xmlns="http://www.w3.org/2000/svg" width="24" height="24" fill="none">
    <path fill="currentColor" d="M4.469 18.414a.75.75 0 0 0-.938 1.172zm16 1.172a.75.75 0 0 0-.937-1.172zm-16-5.172a.75.75 0 0 0-.938 1.172zm16 1.172a.75.75 0 0 0-.937-1.172zM7 10.25a.75.75 0 0 0 0 1.5zm9 1.5a.75.75 0 0 0 0-1.5zM6.25 16a.75.75 0 0 0 1.5 0zm5-9.5a.75.75 0 1 0 1.5 0zm4 9.5a.75.75 0 0 0 1.5 0zm5-9.5a.75.75 0 0 0 1.5 0zm-6.892 9.414.469.585zm2.359-.103.416-.624zm-2.468.19-.468-.586zm-4.966-.19-.416-.624zm2.359.103.469-.586zm-2.925.275.416.624zm8.566 4 .416-.624zm2.359-.103-.469-.585zm-5.284-.172.469.585zm2.359-.103.416-.624zm-4.966.19.468-.586zm2.498 0 .469.585zm-4.966-.19.416.624zm2.359.103.469-.586zm5.641-3.725-.416.624zm2.359-.103-.469-.585zM7.717 20.19l.416.624zm-4.186-.603 1.359 1.086.937-1.171-1.358-1.087zm4.602 1.227.566-.378-.832-1.248-.566.378zm2.04-.314.11.087.936-1.171-.108-.087zm3.545.087.109-.087-.937-1.171-.11.087zm1.583-.15.566.377.832-1.248-.566-.378zm3.81.236 1.357-1.086-.936-1.172-1.359 1.087zM3.53 15.586l1.359 1.086.937-1.171-1.358-1.087zm4.602 1.227.566-.378-.832-1.248-.566.378zm2.04-.314.11.087.936-1.171-.108-.087zm3.545.087.109-.087-.937-1.171-.11.087zm1.583-.15.566.377.832-1.248-.566-.378zm3.81.236 1.357-1.086-.936-1.172-1.359 1.087zM7 11.75h9v-1.5H7zM7.75 16V6.5h-1.5V16zm9 0V6.5h-1.5V16zM18.5 4.75c.966 0 1.75.784 1.75 1.75h1.5a3.25 3.25 0 0 0-3.25-3.25zm0-1.5a3.25 3.25 0 0 0-3.25 3.25h1.5c0-.966.784-1.75 1.75-1.75zm-9 1.5c.966 0 1.75.784 1.75 1.75h1.5A3.25 3.25 0 0 0 9.5 3.25zm4.327 11.75a1.25 1.25 0 0 1 1.474-.065l.832-1.248a2.75 2.75 0 0 0-3.243.14zm-3.545.086a2.75 2.75 0 0 0 3.436 0l-.937-1.171a1.25 1.25 0 0 1-1.562 0zm-1.583-.15a1.25 1.25 0 0 1 1.474.063l.938-1.171a2.75 2.75 0 0 0-3.244-.14zm-3.81.236a2.75 2.75 0 0 0 3.244.14L7.3 15.566a1.25 1.25 0 0 1-1.474-.064zM9.5 3.25A3.25 3.25 0 0 0 6.25 6.5h1.5c0-.966.784-1.75 1.75-1.75zm6.367 17.563a2.75 2.75 0 0 0 3.243-.14l-.937-1.172a1.25 1.25 0 0 1-1.474.064zm-2.04-.314a1.25 1.25 0 0 1 1.474-.064l.832-1.248a2.75 2.75 0 0 0-3.243.14zm-3.545.087a2.75 2.75 0 0 0 3.436 0l-.937-1.171a1.25 1.25 0 0 1-1.562 0zm-1.583-.15a1.25 1.25 0 0 1 1.474.063l.938-1.171a2.75 2.75 0 0 0-3.244-.14zm7.168-3.623a2.75 2.75 0 0 0 3.243-.14l-.937-1.172a1.25 1.25 0 0 1-1.474.064zM4.89 20.673a2.75 2.75 0 0 0 3.243.14L7.3 19.565a1.25 1.25 0 0 1-1.474-.064z"/>
</svg>