<svg xmlns="http://www.w3.org/2000/svg" width="24" height="24" viewbox="0 0 24 24" fill="none">
    <path stroke="currentColor" stroke-width="1.5" d="M10 14a2 2 0 1 1 4 0v1a2 2 0 1 1-4 0zM9.298 8.363c.293.293.135.926-.353 1.414-.489.488-1.122.647-1.415.354-.293-.293-.134-.926.354-1.415.488-.488 1.121-.646 1.414-.353ZM14.702 8.363c-.293.293-.135.926.354 1.414.488.488 1.12.647 1.414.354.293-.293.134-.926-.354-1.415-.488-.488-1.121-.646-1.414-.353Z"/>
    <path stroke="currentColor" stroke-width="1.5" d="M21 12c0 8-6 9-9 9s-9-1-9-9c0-6 4.03-9 9-9s9 3 9 9Z"/>
</svg>