<svg xmlns="http://www.w3.org/2000/svg" width="24" height="24" viewBox="0 0 24 24" fill="none">
    <path fill="currentColor" d="M9.5 12.25a.75.75 0 0 0 0 1.5zm5 1.5a.75.75 0 0 0 0-1.5zM8.257 14.9a.75.75 0 1 0 1.486.2zm6 .2a.75.75 0 1 0 1.486-.2zm-1.502-6.67-.65.375zm-1.51 0-.65-.375zM9.5 13.75h5v-1.5h-5zm2.5-9.5c-1.292 0-2.33 0-3.168.07-.844.071-1.561.22-2.19.56L7.358 6.2c.365-.198.844-.32 1.6-.384.76-.064 1.725-.065 3.042-.065zM5.75 12c0-1.317 0-2.281.065-3.042.064-.756.186-1.235.384-1.6l-1.318-.716c-.342.629-.49 1.346-.56 2.19-.072.838-.071 1.876-.071 3.168zm14 0c0-1.292 0-2.33-.07-3.168-.071-.844-.22-1.561-.56-2.19l-1.319.716c.198.365.32.844.384 1.6.064.76.065 1.725.065 3.042zM12 5.75c1.317 0 2.281 0 3.042.065.756.064 1.235.186 1.6.384l.716-1.318c-.629-.342-1.346-.49-2.19-.56-.838-.072-1.876-.071-3.168-.071zm0 14c1.292 0 2.33 0 3.169-.07.843-.071 1.56-.22 2.189-.56l-.716-1.319c-.365.198-.844.32-1.6.384-.76.064-1.725.065-3.042.065zM18.25 12c0 1.317 0 2.281-.065 3.042-.064.756-.186 1.235-.384 1.6l1.318.716c.342-.629.49-1.346.56-2.19.072-.838.071-1.876.071-3.168zM12 18.25c-1.317 0-2.281 0-3.042-.065-.756-.064-1.235-.186-1.6-.384l-.716 1.318c.629.342 1.346.49 2.19.56.838.072 1.876.071 3.168.071zM4.25 12c0 1.292 0 2.33.07 3.169.071.843.22 1.56.56 2.189l1.319-.716c-.198-.365-.32-.844-.384-1.6-.064-.76-.065-1.725-.065-3.042zm7.855-3.195a16.758 16.758 0 0 1 2.152 6.296l1.486-.202a18.256 18.256 0 0 0-2.338-6.844zM9.743 15.1a16.757 16.757 0 0 1 2.152-6.296l-1.3-.75A18.256 18.256 0 0 0 8.257 14.9zM12 8.75a.12.12 0 0 1 .105.055l1.3-.75A1.618 1.618 0 0 0 12 7.25zm0-1.5c-.568 0-1.11.295-1.405.805l1.3.75A.12.12 0 0 1 12 8.75zm6.5-1a.75.75 0 0 1-.75-.75h-1.5a2.25 2.25 0 0 0 2.25 2.25zm.75-.75a.75.75 0 0 1-.75.75v1.5a2.25 2.25 0 0 0 2.25-2.25zm-.75-.75a.75.75 0 0 1 .75.75h1.5a2.25 2.25 0 0 0-2.25-2.25zm0-1.5a2.25 2.25 0 0 0-2.25 2.25h1.5a.75.75 0 0 1 .75-.75zm0 16a.75.75 0 0 1-.75-.75h-1.5a2.25 2.25 0 0 0 2.25 2.25zm.75-.75a.75.75 0 0 1-.75.75v1.5a2.25 2.25 0 0 0 2.25-2.25zm-.75-.75a.75.75 0 0 1 .75.75h1.5a2.25 2.25 0 0 0-2.25-2.25zm0-1.5a2.25 2.25 0 0 0-2.25 2.25h1.5a.75.75 0 0 1 .75-.75zm-13-10a.75.75 0 0 1-.75-.75h-1.5A2.25 2.25 0 0 0 5.5 7.75zm.75-.75a.75.75 0 0 1-.75.75v1.5A2.25 2.25 0 0 0 7.75 5.5zm-.75-.75a.75.75 0 0 1 .75.75h1.5A2.25 2.25 0 0 0 5.5 3.25zm0-1.5A2.25 2.25 0 0 0 3.25 5.5h1.5a.75.75 0 0 1 .75-.75zm0 16a.75.75 0 0 1-.75-.75h-1.5a2.25 2.25 0 0 0 2.25 2.25zm.75-.75a.75.75 0 0 1-.75.75v1.5a2.25 2.25 0 0 0 2.25-2.25zm-.75-.75a.75.75 0 0 1 .75.75h1.5a2.25 2.25 0 0 0-2.25-2.25zm0-1.5a2.25 2.25 0 0 0-2.25 2.25h1.5a.75.75 0 0 1 .75-.75z"/>
</svg>