<svg xmlns="http://www.w3.org/2000/svg" width="24" height="24" viewBox="0 0 24 24" fill="none">
    <path fill="currentColor" d="M5 20.25a.75.75 0 0 0 0 1.5zm14 1.5a.75.75 0 0 0 0-1.5zM7 8.25a.75.75 0 0 0 0 1.5zm10 1.5a.75.75 0 0 0 0-1.5zm-7-5.5a.75.75 0 0 0 0 1.5zm4 1.5a.75.75 0 0 0 0-1.5zM12.75 3a.75.75 0 0 0-1.5 0zm-1.5 2a.75.75 0 0 0 1.5 0zm3.107 4.386a.75.75 0 1 0 1.286-.772zM12.51 5.954l-.192.725zM5 21.75h14v-1.5H5zm2-12h10v-1.5H7zm3-4h4v-1.5h-4zM15.25 13A3.25 3.25 0 0 1 12 16.25v1.5A4.75 4.75 0 0 0 16.75 13zM12 16.25A3.25 3.25 0 0 1 8.75 13h-1.5A4.75 4.75 0 0 0 12 17.75zM8.75 13A3.25 3.25 0 0 1 12 9.75v-1.5A4.75 4.75 0 0 0 7.25 13zM12 9.75A3.25 3.25 0 0 1 15.25 13h1.5A4.75 4.75 0 0 0 12 8.25zM8.75 21A3.25 3.25 0 0 1 12 17.75v-1.5A4.75 4.75 0 0 0 7.25 21zM12 17.75A3.25 3.25 0 0 1 15.25 21h1.5A4.75 4.75 0 0 0 12 16.25zM11.25 3v2h1.5V3zM9.643 9.386c.577-.962.978-1.628 1.328-2.085.35-.457.56-.583.71-.622l-.383-1.45c-.637.168-1.104.62-1.518 1.16-.414.541-.865 1.295-1.423 2.225zm6-.772c-.558-.93-1.009-1.684-1.423-2.225-.414-.54-.88-.992-1.517-1.16l-.384 1.45c.15.04.36.165.71.622.35.457.75 1.123 1.328 2.085zM11.681 6.68c.209-.056.429-.056.638 0l.383-1.45a2.75 2.75 0 0 0-1.405 0z"/>
</svg>