<svg xmlns="http://www.w3.org/2000/svg" width="24" height="24" viewBox="0 0 24 24" fill="none">
    <path fill="currentColor" d="M11.219 9.784a.75.75 0 0 0-1.437.431zm1.978-1.063a.75.75 0 0 0-1.393.557zm-.838-.109.405.631a.75.75 0 0 0 .074-1.208zM12 8l-.252.706a.75.75 0 0 0 .98-.524zm-.5 0-.6-.45a.75.75 0 0 0 .322 1.146zm7.62 1.803.75-.005zm-1.236.75.279-.696zm-4.659 8.3.74.123zM6.258 4.552l-.36-.657zm.23 1.48-.252.707zM10.1 18.5l-.71-.24zm-.317-8.285c.93 3.102.216 6.245-.393 8.044l1.42.481c.648-1.912 1.472-5.413.41-8.956zm1.336 10.535h.711v-1.5h-.71zm2.847-1.774c.332-2.014.777-6.39-.768-10.255l-1.393.557c1.388 3.47 1.002 7.505.681 9.454zm-8.51-6.952c.175-1.677 1.11-2.966 2.299-3.546 1.16-.566 2.66-.505 4.126.712l.958-1.155C10.95 6.47 8.823 6.288 7.097 7.13c-1.698.827-2.91 2.596-3.134 4.739zm6.499-4.043-6.304 4.05.81 1.262 6.304-4.05zM6.62 5.208c1.277-.701 2.66-.678 3.586-.182.456.244.798.598.99 1.04.193.44.26 1.02.077 1.752l1.455.364c.252-1.007.186-1.93-.157-2.716-.342-.784-.938-1.377-1.658-1.763-1.426-.763-3.35-.725-5.016.19zm5.632 2.086L6.741 5.325l-.505 1.413 5.512 1.968zm7.618 2.504c-.016-2.382-1.46-4.051-3.355-4.534-1.883-.479-4.08.239-5.615 2.286l1.2.9c1.213-1.616 2.812-2.046 4.045-1.732 1.221.31 2.214 1.376 2.225 3.09zm-8.648-1.102 6.384 2.554.557-1.393-6.384-2.553zM18.37 9.81a.075.075 0 0 1-.002.02.015.015 0 0 1-.002.004c0 .001-.006.01-.023.02a.21.21 0 0 1-.18.004l-.557 1.393c.956.382 2.273-.171 2.264-1.452zm-14.407 2.06a1.506 1.506 0 0 0 .82 1.523c.507.26 1.147.242 1.677-.1l-.81-1.261c-.084.053-.155.04-.186.025-.014-.007-.013-.011-.01-.005.005.009-.002.006.001-.027zm7.866 8.88c1.025 0 1.96-.702 2.136-1.773l-1.48-.244c-.047.287-.304.518-.656.518zM5.897 3.895c-.62.34-.866.975-.763 1.566a1.677 1.677 0 0 0 1.102 1.278l.505-1.413c-.096-.034-.125-.098-.13-.123-.001-.01.002-.005-.004.008-.008.018-.015.014.013-.002zM9.39 18.259c-.385 1.136.416 2.49 1.73 2.49v-1.5c-.088 0-.182-.043-.255-.152a.412.412 0 0 1-.055-.357z"/>
</svg>