<svg xmlns="http://www.w3.org/2000/svg" width="24" height="24" fill="none">
    <path fill="currentColor" d="M6.13 18.914C7.46 17.717 9.592 16.75 12 16.75v-1.5c-2.792 0-5.28 1.113-6.874 2.55zM12 16.75c2.408 0 4.541.967 5.87 2.163l1.004-1.114C17.28 16.363 14.792 15.25 12 15.25zM20.25 12A8.25 8.25 0 0 1 12 20.25v1.5c5.385 0 9.75-4.365 9.75-9.75zM12 20.25A8.25 8.25 0 0 1 3.75 12h-1.5c0 5.385 4.365 9.75 9.75 9.75zM3.75 12A8.25 8.25 0 0 1 12 3.75v-1.5c-5.385 0-9.75 4.365-9.75 9.75zM12 3.75A8.25 8.25 0 0 1 20.25 12h1.5c0-5.385-4.365-9.75-9.75-9.75zM14.25 10A2.25 2.25 0 0 1 12 12.25v1.5A3.75 3.75 0 0 0 15.75 10zM12 12.25A2.25 2.25 0 0 1 9.75 10h-1.5A3.75 3.75 0 0 0 12 13.75zM9.75 10A2.25 2.25 0 0 1 12 7.75v-1.5A3.75 3.75 0 0 0 8.25 10zM12 7.75A2.25 2.25 0 0 1 14.25 10h1.5A3.75 3.75 0 0 0 12 6.25z"/>
</svg>