<svg xmlns="http://www.w3.org/2000/svg" width="24" height="24" fill="none">
    <path stroke="currentColor" stroke-linejoin="round" stroke-width="1.5" d="M11.915 14c1.781.572 3.389.572 5.17 0m-5.17-9c1.781-.572 3.389-.572 5.17 0M10 12.085c-.572-1.781-.572-3.389 0-5.17m9 5.17c1.184-1.779 1.184-3.391 0-5.17M6.915 19c1.781.572 3.389.572 5.17 0m-5.17-9c.915-.294 1.785-.437 2.656-.429M5 17.085c-.572-1.781-.572-3.389 0-5.17m9 5.17c.61-.917.906-1.791.887-2.666M10.5 15a1.5 1.5 0 1 1 0-3 1.5 1.5 0 0 1 0 3Zm0-8a1.5 1.5 0 1 1 0-3 1.5 1.5 0 0 1 0 3Zm8 8a1.5 1.5 0 1 1 0-3 1.5 1.5 0 0 1 0 3Zm0-8a1.5 1.5 0 1 1 0-3 1.5 1.5 0 0 1 0 3Zm-13 13a1.5 1.5 0 1 1 0-3 1.5 1.5 0 0 1 0 3Zm0-8a1.5 1.5 0 1 1 0-3 1.5 1.5 0 0 1 0 3Zm8 8a1.5 1.5 0 1 1 0-3 1.5 1.5 0 0 1 0 3Z"/>
</svg>