<svg xmlns="http://www.w3.org/2000/svg" width="24" height="24" viewbox="0 0 24 24" fill="none">
    <path stroke="currentColor" stroke-linejoin="round" stroke-width="1.5" d="M8.833 5.992c-2.82 0-4.23 0-4.818.933a2.054 2.054 0 0 0-.049.081c-.543.96.111 2.18 1.42 4.623a166.485 166.485 0 0 0 4.955 8.613c.734 1.191 1.1 1.787 1.659 1.787.559 0 .925-.596 1.659-1.787a166.536 166.536 0 0 0 4.954-8.613c1.31-2.442 1.964-3.663 1.42-4.623a1.9 1.9 0 0 0-.048-.081c-.589-.933-1.999-.933-4.818-.933m-4.024 3.579L9.346 6.577c-.168-.28-.251-.42-.244-.572.008-.152.106-.282.301-.543L11.2 3.067c.367-.49.55-.734.8-.734s.433.245.8.734l1.797 2.395c.195.26.293.391.3.543.008.153-.075.292-.243.572L12.858 9.57c-.383.638-.575.957-.858.957-.283 0-.475-.319-.857-.957Z"/>
</svg>