<svg xmlns="http://www.w3.org/2000/svg" width="24" height="24" fill="none">
    <path fill="currentColor" d="M12.707 12.422c-.23.05-.466.078-.707.078.24-.048.476-.073.707-.078"/>
    <path stroke="currentColor" stroke-linecap="round" stroke-linejoin="round" stroke-width="1.5" d="M12 9.5v3m0 0V15c-3 0-5-2.5-5-5.5m5 3c.24 0 .476-.028.707-.078M12 12.5c.24-.048.476-.073.707-.078M16.5 9.5s-1.634 2.45-3.793 2.922m0 0C14.87 12.375 16.548 14.096 17 15m-5.5 5.5h1c3.771 0 5.657 0 6.828-1.172C20.5 18.157 20.5 16.271 20.5 12.5v-1c0-3.771 0-5.657-1.172-6.828C18.157 3.5 16.271 3.5 12.5 3.5h-1c-3.771 0-5.657 0-6.828 1.172C3.5 5.843 3.5 7.729 3.5 11.5v1c0 3.771 0 5.657 1.172 6.828C5.843 20.5 7.729 20.5 11.5 20.5"/>
</svg>