<svg xmlns="http://www.w3.org/2000/svg" width="24" height="24" viewBox="0 0 512 512">
    <path class="pr-icon-duotone-secondary" d="M80 48l0 416 320 0 0-416L80 48zm48 336l32-96 160 0 32 96-224 0zM304 192a64 64 0 1 1 -128 0 64 64 0 1 1 128 0z"/>
    <path class="pr-icon-duotone-primary" d="M400 48l0 416L80 464 80 48l320 0zM80 0L32 0l0 48 0 416 0 48 48 0 320 0 48 0 0-48 0-416 0-48L400 0 80 0zM240 256a64 64 0 1 0 0-128 64 64 0 1 0 0 128zM128 384l224 0-32-96-160 0-32 96zM512 80l0-16-32 0 0 16 0 64 0 16 32 0 0-16 0-64zm0 112l-32 0 0 16 0 64 0 16 32 0 0-16 0-64 0-16zm0 144l0-16-32 0 0 16 0 64 0 16 32 0 0-16 0-64z"/>
</svg>