<svg xmlns="http://www.w3.org/2000/svg" width="24" height="24" viewBox="0 0 576 512"><path class="pr-icon-duotone-secondary" d="M48 80l0 352 480 0 0-352L48 80zM96 384l32-96 160 0 32 96L96 384zM272 192a64 64 0 1 1 -128 0 64 64 0 1 1 128 0zm80-48l24 0 80 0 24 0 0 48-24 0-80 0-24 0 0-48zm0 96l24 0 80 0 24 0 0 48-24 0-80 0-24 0 0-48z"/><path class="pr-icon-duotone-primary" d="M528 80l0 352L48 432 48 80l480 0zM48 32L0 32 0 80 0 432l0 48 48 0 480 0 48 0 0-48 0-352 0-48-48 0L48 32zM208 256a64 64 0 1 0 0-128 64 64 0 1 0 0 128zM96 384l224 0-32-96-160 0L96 384zM376 144l-24 0 0 48 24 0 80 0 24 0 0-48-24 0-80 0zm0 96l-24 0 0 48 24 0 80 0 24 0 0-48-24 0-80 0z"/></svg>