<svg xmlns="http://www.w3.org/2000/svg" width="24" height="24" viewBox="0 0 512 512"><path class="pr-icon-duotone-secondary" d="M48 80l72 0 24 0 0-48 88 0 0 247.2L160.7 210l-17.2-16.7-33.4 34.4 17.2 16.7 112 108.8L256 369.5l16.7-16.2 112-108.8 17.2-16.7-33.4-34.4L351.3 210 280 279.2 280 32l88 0 0 48 24 0 72 0 0 384L48 464 48 80z"/><path class="pr-icon-duotone-primary" d="M272.7 353.2l112-108.8 17.2-16.7-33.4-34.4L351.3 210 280 279.2 280 24l0-24L232 0l0 24 0 255.2L160.7 210l-17.2-16.7-33.4 34.4 17.2 16.7 112 108.8L256 369.5l16.7-16.2zM24 32L0 32 0 56 0 488l0 24 24 0 464 0 24 0 0-24 0-432 0-24-24 0-96 0-24 0 0 48 24 0 72 0 0 384L48 464 48 80l72 0 24 0 0-48-24 0L24 32z"/></svg>