<svg xmlns="http://www.w3.org/2000/svg" viewBox="0 0 576 512"><!--! Font Awesome Pro 6.7.2 by @fontawesome - https://fontawesome.com License - https://fontawesome.com/license (Commercial License) Copyright 2024 Fonticons, Inc. --><defs><style>.fa-secondary{opacity:.4}</style></defs><path class="fa-secondary" d="M1.3 380.8l33.9 33.9 17-17L192 257.9 303 369l17 17 17-17 191-191L528 296l0 24 48 0 0 192L1.3 512c-.1-43.7-.1-87.4 0-131.2z"/><path class="fa-primary" d="M352 96l24 0 176 0 24 0 0 24 0 176 0 24-48 0 0-24 0-118.1L337 369l-17 17-17-17-111-111L52.2 397.8l-17 17L1.3 380.8l17-17L175 207l17-17 17 17 111 111L494.1 144 376 144l-24 0 0-48z"/></svg>