<svg xmlns="http://www.w3.org/2000/svg" viewBox="0 0 448 512"><!--! Font Awesome Pro 6.7.2 by @fontawesome - https://fontawesome.com License - https://fontawesome.com/license (Commercial License) Copyright 2024 Fonticons, Inc. --><defs><style>.fa-secondary{opacity:.4}</style></defs><path class="fa-secondary" d="M32 96l32 0 0-32 32 0 0 32 64 0 0-32 32 0 0 32 64 0 0-32 32 0 0 32 64 0 0-32 48 0 0 384-48 0 0-32-64 0 0 32-32 0 0-32-64 0 0 32-32 0 0-32-64 0 0 32-32 0 0-32-32 0 0-32 32 0 0-64-32 0 0-32 32 0 0-64-32 0 0-32 32 0 0-64-32 0 0-32zM96 224l0 64 64 0 0-64-64 0zm96-96l0 64 64 0 0-64-64 0zm0 96l0 64 64 0 0-64-64 0zm0 96l0 64 64 0 0-64-64 0zm96-96l0 64 64 0 0-64-64 0z"/><path class="fa-primary" d="M448 32l0 448-48 0 0-448 48 0zm-96 0l0 64-64 0 0-64 64 0zm0 448l-64 0 0-64 64 0 0 64zm0-256l0 64-64 0 0-64 64 0zM160 96L96 96l0-64 64 0 0 64zm0 320l0 64-64 0 0-64 64 0zm0-128l-64 0 0-64 64 0 0 64zM256 32l0 64-64 0 0-64 64 0zm0 448l-64 0 0-64 64 0 0 64zm0-256l0 64-64 0 0-64 64 0zM64 96L0 96 0 32l64 0 0 64zm0 320l0 64L0 480l0-64 64 0zm0-128L0 288l0-64 64 0 0 64zM256 128l0 64-64 0 0-64 64 0zM64 192L0 192l0-64 64 0 0 64zm0 128l0 64L0 384l0-64 64 0zm192 64l-64 0 0-64 64 0 0 64z"/></svg>