<svg xmlns="http://www.w3.org/2000/svg" width="24" height="24" viewBox="0 0 640 512"><path class="pr-icon-duotone-secondary" d="M48 48l288 0 0 416-96 0 0-112-96 0 0 112-96 0L48 48zM88 88l0 80 80 0 0-80L88 88zm0 128l0 80 80 0 0-80-80 0zM216 88l0 80 80 0 0-80-80 0zm0 128l0 80 80 0 0-80-80 0zM328.2 486.5L352.5 431l0 .4c-8 18.4-16.1 36.7-24.3 55.1z"/><path class="pr-icon-duotone-primary" d="M48 48l0 416 96 0 0-112 96 0 0 112 96 0 0-416L48 48zM0 0L48 0 336 0l48 0 0 48 0 311L317.1 512 48 512 0 512l0-48L0 48 0 0zM88 88l80 0 0 80-80 0 0-80zm208 0l0 80-80 0 0-80 80 0zM88 216l80 0 0 80-80 0 0-80zm208 0l0 80-80 0 0-80 80 0zm120 56a80 80 0 1 1 160 0 80 80 0 1 1 -160 0zM584 384l56 128-288 0 56-128 176 0z"/></svg>