<svg xmlns="http://www.w3.org/2000/svg" width="24" height="24" viewBox="0 0 576 512">
    <path class="pr-icon-duotone-secondary" d="M144 80l288 0 0 280-288 0 0-280zm33.7 139.6l66.7 66.7 17 17 17-17 120-120-33.9-33.9-103 103-49.7-49.7-33.9 33.9z"/>
    <path class="pr-icon-duotone-primary" d="M144 80l0 280 288 0 0-280L144 80zM96 360L96 80l0-48 48 0 288 0 48 0 0 48 0 280 24 0 0 48-24 0-48 0-288 0-48 0-24 0 0-48 24 0zM64 288l0 48-16 0 0 96 480 0 0-96-16 0 0-48 16 0 48 0 0 48 0 96 0 48-48 0L48 480 0 480l0-48 0-96 0-48 48 0 16 0zm214.3-1.7l-17 17-17-17-66.7-66.7 33.9-33.9 49.7 49.7 103-103 33.9 33.9-120 120z"/>
</svg>