<svg xmlns="http://www.w3.org/2000/svg" viewBox="0 0 640 512"><!--! Font Awesome Pro 6.7.2 by @fontawesome - https://fontawesome.com License - https://fontawesome.com/license (Commercial License) Copyright 2024 Fonticons, Inc. --><defs><style>.fa-secondary{opacity:.4}</style></defs><path class="fa-secondary" d="M160.7 323.9L365.6 91.2 338.3 69.8 160.7 323.9zm162.8 15.5L570.3 150l-21.9-25.6-225 215z"/><path class="fa-primary" d="M347.9 16.3L328 .6 313.4 21.5 15.5 447.8l-13 18.6 17.8 14 21.4 16.8 17.8 14 15-17L418.4 103.9l16.8-19.1-20-15.7L347.9 16.3zM160.7 323.9L338.3 69.8l27.3 21.5L160.7 323.9zM568.4 74L551.9 54.7 533.6 72.3 149.8 439l-16.4 15.7L148.2 472l17.5 20.4 14.8 17.3 18-13.8L619.7 172.7l20.1-15.4L623.3 138 568.4 74zm2 76.1L323.5 339.5l225-215L570.3 150z"/></svg>