<svg xmlns="http://www.w3.org/2000/svg" viewBox="0 0 512 512"><!--! Font Awesome Pro 6.7.2 by @fontawesome - https://fontawesome.com License - https://fontawesome.com/license (Commercial License) Copyright 2024 Fonticons, Inc. --><defs><style>.fa-secondary{opacity:.4}</style></defs><path class="fa-secondary" d="M48 256a208 208 0 1 0 416 0A208 208 0 1 0 48 256zm80 0l96-112 32 0 0 64 128 0 0 96-128 0 0 64-32 0L128 256z"/><path class="fa-primary" d="M48 256a208 208 0 1 1 416 0A208 208 0 1 1 48 256zm464 0A256 256 0 1 0 0 256a256 256 0 1 0 512 0zM224 368l32 0 0-64 128 0 0-96-128 0 0-64-32 0L128 256l96 112z"/></svg>