<svg xmlns="http://www.w3.org/2000/svg" viewBox="0 0 512 512"><!--! Font Awesome Pro 6.7.2 by @fontawesome - https://fontawesome.com License - https://fontawesome.com/license (Commercial License) Copyright 2024 Fonticons, Inc. --><defs><style>.fa-secondary{opacity:.4}</style></defs><path class="fa-secondary" d="M48 256a208 208 0 1 0 416 0A208 208 0 1 0 48 256zm114.9 75.4l42.3-22.7 5.4 10c5.7 10.7 16.9 17.3 29 17.3l33 0c17.4 0 31.5-14.1 31.5-31.5c0-15.9-11.9-29.3-27.7-31.2l-79.1-9.5L174 261.1l2.1-23.2 8-88 2-21.8 21.9 0 104 0 24 0 0 48-24 0-82.1 0L226 218.9l56 6.7c39.9 4.8 70 38.7 70 78.9l0 24-3.7 0c-10.2 32.2-40.2 55.5-75.8 55.5l-33 0c-29.8 0-57.1-16.4-71.2-42.6l-5.4-10z"/><path class="fa-primary" d="M256 48a208 208 0 1 1 0 416 208 208 0 1 1 0-416zm0 464A256 256 0 1 0 256 0a256 256 0 1 0 0 512zM208 128l-21.9 0-2 21.8-8 88L174 261.1l23.2 2.8 79.1 9.5c15.8 1.9 27.7 15.3 27.7 31.2c0 17.4-14.1 31.5-31.5 31.5l-33 0c-12.1 0-23.2-6.7-29-17.3l-5.4-10-42.3 22.7 5.4 10c14.1 26.2 41.5 42.6 71.2 42.6l33 0c35.5 0 65.6-23.3 75.8-55.5l3.7 0 0-24c0-40.2-30.1-74.1-70-78.9l-56-6.7 3.9-42.9 82.1 0 24 0 0-48-24 0-104 0z"/></svg>