<svg xmlns="http://www.w3.org/2000/svg" viewBox="0 0 640 512"><!--! Font Awesome Pro 6.7.2 by @fontawesome - https://fontawesome.com License - https://fontawesome.com/license (Commercial License) Copyright 2024 Fonticons, Inc. --><defs><style>.fa-secondary{opacity:.4}</style></defs><path class="fa-secondary" d="M48 256c0 114.9 93.1 208 208 208c59.3 0 112.7-24.8 150.6-64.6l34.8 33.1c29-30.4 50.6-68 61.8-109.8L489 337l-17 17-17-17-80-80L409 223l63 63 39.8-39.8c-1.3-34.2-9.3-66.7-22.7-96.2l-43.7 19.9C412.7 98 340.1 48 256 48C141.1 48 48 141.1 48 256zM232 128l48 0 0 24 0 112 0 24-48 0 0-24 0-112 0-24zm0 192l48 0 0 48-48 0 0-48z"/><path class="fa-primary" d="M48 256C48 141.1 141.1 48 256 48c84.1 0 156.7 50 189.4 121.9l43.7-19.9C448.8 61.6 359.6 0 256 0C114.6 0 0 114.6 0 256S114.6 512 256 512c72.9 0 138.8-30.5 185.4-79.4l-34.8-33.1C368.7 439.2 315.3 464 256 464C141.1 464 48 370.9 48 256zM280 152l0-24-48 0 0 24 0 112 0 24 48 0 0-24 0-112zm0 216l0-48-48 0 0 48 48 0zM633 193L599 159l-127 127-63-63L375 257l80 80 17 17 17-17L633 193z"/></svg>