<svg xmlns="http://www.w3.org/2000/svg" width="24" height="24" viewBox="0 0 512 512">
    <path class="pr-icon-duotone-secondary" d="M48 256a208 208 0 1 0 416 0A208 208 0 1 0 48 256zm86.1 16L168 238.1l17 17 47 47L232 152l0-24 48 0 0 24 0 150.1 47-47 17-17L377.9 272l-17 17-88 88-17 17-17-17-88-88-17-17z"/>
    <path class="pr-icon-duotone-primary" d="M256 464a208 208 0 1 1 0-416 208 208 0 1 1 0 416zM256 0a256 256 0 1 0 0 512A256 256 0 1 0 256 0zM239 377l17 17 17-17 88-88 17-17L344 238.1l-17 17-47 47L280 152l0-24-48 0 0 24 0 150.1-47-47-17-17L134.1 272l17 17 88 88z"/>
</svg>