<svg xmlns="http://www.w3.org/2000/svg" viewBox="0 0 512 512"><!--! Font Awesome Pro 6.7.2 by @fontawesome - https://fontawesome.com License - https://fontawesome.com/license (Commercial License) Copyright 2024 Fonticons, Inc. --><defs><style>.fa-secondary{opacity:.4}</style></defs><path class="fa-secondary" d="M48 344c0 57.4 46.6 104 104 104c29.2 0 55.6-12 74.4-31.4C214.7 395 208 370.3 208 344c0-13.2 1.7-26 4.8-38.2c-35.1-10.4-64.9-33.1-84.4-63.1C82.3 253.4 48 294.7 48 344zM152 160c0 11.2 1.8 22 5 32.1c38.2 1.2 72.9 16.6 99 41.1c26-24.4 60.7-39.8 99-41.1c3.3-10.1 5-20.9 5-32.1c0-57.4-46.6-104-104-104s-104 46.6-104 104zM285.6 416.6C304.4 436 330.8 448 360 448c57.4 0 104-46.6 104-104c0-49.3-34.3-90.6-80.4-101.3c-19.5 30-49.3 52.7-84.4 63.1c3.2 12.2 4.8 25 4.8 38.2c0 26.3-6.7 51-18.4 72.6z"/><path class="fa-primary" d="M157 192.1c38.2 1.2 72.9 16.6 99 41.1c26-24.4 60.7-39.8 99-41.1c3.3-10.1 5-20.9 5-32.1c0-57.4-46.6-104-104-104s-104 46.6-104 104c0 11.2 1.8 22 5 32.1zm-48.2 6.1c-3.2-12.2-4.8-25-4.8-38.2C104 76.1 172.1 8 256 8s152 68.1 152 152c0 13.2-1.7 26-4.8 38.2C466.1 216.8 512 275 512 344c0 83.9-68.1 152-152 152c-40.2 0-76.8-15.6-104-41.1C228.8 480.4 192.2 496 152 496C68.1 496 0 427.9 0 344c0-69 45.9-127.2 108.8-145.8zm19.6 44.5C82.3 253.4 48 294.7 48 344c0 57.4 46.6 104 104 104c29.2 0 55.6-12 74.4-31.4C214.7 395 208 370.3 208 344c0-13.2 1.7-26 4.8-38.2c-35.1-10.4-64.9-33.1-84.4-63.1zm170.7 63.1c3.2 12.2 4.8 25 4.8 38.2c0 26.3-6.7 51-18.4 72.6C304.4 436 330.8 448 360 448c57.4 0 104-46.6 104-104c0-49.3-34.3-90.6-80.4-101.3c-19.5 30-49.3 52.7-84.4 63.1z"/></svg>