<svg xmlns="http://www.w3.org/2000/svg" viewBox="0 0 512 512"><!--! Font Awesome Pro 6.7.2 by @fontawesome - https://fontawesome.com License - https://fontawesome.com/license (Commercial License) Copyright 2024 Fonticons, Inc. --><defs><style>.fa-secondary{opacity:.4}</style></defs><path class="fa-secondary" d="M48 256c0 114.9 93.1 208 208 208c109.5 0 199.2-84.6 207.4-192L400 272l0-80 37.6-37.6C404.4 95.3 343.2 54 272 48.6L272 80l-32 32 0 16 32 32 0 32-80 0 0 32 32 32 128 0 0 80-64 64 0 32-64 0 0-48-32-32 0-64-48-48-48 0L55.7 199.7c-5 17.9-7.7 36.8-7.7 56.3z"/><path class="fa-primary" d="M437.6 154.4L400 192l0 80 63.4 0C455.2 379.4 365.5 464 256 464C141.1 464 48 370.9 48 256c0-19.5 2.7-38.4 7.7-56.3L96 240l48 0 48 48 0 64 32 32 0 48 64 0 0-32 64-64 0-80-128 0-32-32 0-32 80 0 0-32-32-32 0-16 32-32 0-31.4C343.2 54 404.4 95.3 437.6 154.4zM256 512A256 256 0 1 0 256 0a256 256 0 1 0 0 512z"/></svg>