<svg xmlns="http://www.w3.org/2000/svg" viewBox="0 0 512 512"><!--! Font Awesome Pro 6.7.2 by @fontawesome - https://fontawesome.com License - https://fontawesome.com/license (Commercial License) Copyright 2024 Fonticons, Inc. --><defs><style>.fa-secondary{opacity:.4}</style></defs><path class="fa-secondary" d="M72 232l48 0 0 48-48 0 0-48zm160 0l48 0 0 48-48 0 0-48zm160 0l48 0 0 48-48 0 0-48z"/><path class="fa-primary" d="M72 232l48 0 0 48-48 0 0-48zM32 280l0 40 40 0 48 0 40 0 0-40 0-48 0-40-40 0-48 0-40 0 0 40 0 48zm200-48l48 0 0 48-48 0 0-48zm-40 48l0 40 40 0 48 0 40 0 0-40 0-48 0-40-40 0-48 0-40 0 0 40 0 48zm200 0l0-48 48 0 0 48-48 0zm-40 40l40 0 48 0 40 0 0-40 0-48 0-40-40 0-48 0-40 0 0 40 0 48 0 40z"/></svg>