<svg xmlns="http://www.w3.org/2000/svg" viewBox="0 0 512 512"><!--! Font Awesome Pro 6.7.2 by @fontawesome - https://fontawesome.com License - https://fontawesome.com/license (Commercial License) Copyright 2024 Fonticons, Inc. --><defs><style>.fa-secondary{opacity:.4}</style></defs><path class="fa-secondary" d="M48 256a208 208 0 1 0 416 0A208 208 0 1 0 48 256zm43.8-90.1l15.2-5.1c13.4-4.5 48.5-22.9 71.7-57.7l8.9-13.3 26.6 17.8-8.9 13.3c-28 42-69.6 64.1-88.3 70.3l-15.2 5.1L91.8 165.9zm18.7 197l28.4-38.7 19.3 14.2 9.4 6.9c10.3 7.6 23.9 9.1 35.7 3.9l22-9.7 1.4 3.2c20.1-2.5 40.8 2.3 58 14.1l11.7 8.1c2.9 2 6.3 3 9.8 3c4.9 0 9.5-2.1 12.8-5.7l31.3-34.5 16.1-17.8 35.5 32.3-16.1 17.8-31.3 34.5c-6.8 7.5-15.1 13.2-24.3 16.8l0 4.6-24 0c-13.2 0-26.1-4-37-11.5l-11.7-8.1c-10.2-7-23.4-8.3-34.8-3.3c-27.4 12.1-59.3 8.6-83.4-9.1l-9.4-6.9-19.3-14.2zm4.4-140.3l23.3-5.8 64-16 23.3-5.8 11.6 46.6-23.3 5.8-64 16-23.3 5.8-11.6-46.6zM304 208c0-35.3 14.3-64 32-64s32 28.7 32 64s-14.3 64-32 64s-32-28.7-32-64z"/><path class="fa-primary" d="M256 48a208 208 0 1 1 0 416 208 208 0 1 1 0-416zm0 464A256 256 0 1 0 256 0a256 256 0 1 0 0 512zM368 208c0-35.3-14.3-64-32-64s-32 28.7-32 64s14.3 64 32 64s32-28.7 32-64zM213.8 247.3l23.3-5.8-11.6-46.6-23.3 5.8-64 16-23.3 5.8 11.6 46.6 23.3-5.8 64-16zm.4-139.7L187.6 89.8l-8.9 13.3c-23.2 34.8-58.4 53.2-71.7 57.7l-15.2 5.1 10.1 30.4 15.2-5.1c18.6-6.2 60.3-28.3 88.3-70.3l8.9-13.3zM385.8 360.1l16.1-17.8-35.5-32.3-16.1 17.8L319 362.3c-3.3 3.6-7.9 5.7-12.8 5.7c-3.5 0-6.9-1.1-9.8-3l-11.7-8.1c-17.2-11.8-37.8-16.7-58-14.1l-1.4-3.2-22 9.7c-11.7 5.2-25.3 3.7-35.7-3.9l-9.4-6.9-19.3-14.2-28.4 38.7 19.3 14.2 9.4 6.9c24.2 17.8 56 21.2 83.4 9.1c11.4-5 24.5-3.8 34.8 3.3l11.7 8.1c10.9 7.5 23.8 11.5 37 11.5l24 0 0-4.6c9.2-3.6 17.5-9.4 24.3-16.8l31.3-34.5z"/></svg>