<svg xmlns="http://www.w3.org/2000/svg" viewBox="0 0 640 512"><!--! Font Awesome Pro 6.7.2 by @fontawesome - https://fontawesome.com License - https://fontawesome.com/license (Commercial License) Copyright 2024 Fonticons, Inc. --><defs><style>.fa-secondary{opacity:.4}</style></defs><path class="fa-secondary" d="M123.1 303.9l.1 .3c8.2-3.7 16.2-8 23.8-13.4c-7.5 5.4-15.5 9.8-23.8 13.1zm23.8-13.1C163.5 389.1 249 464 352 464c114.9 0 208-93.1 208-208s-93.1-208-208-208c-16.4 0-32.3 1.9-47.6 5.5c1.9 2.8 3.8 5.6 5.7 8.4l-26.5 18-26.5 18-17.6 12 35.3 48.6c6.3 8.6 12.5 17.3 18.9 25.9c6.6 5.8 10.7 14.3 10.7 23.8c0 17.7-14.3 32-32 32c-12 0-22.4-6.6-27.9-16.4c-31.1 21.4-62.3 42.8-93.5 64.2l-3.7 2.7-.4 .3zm76.7 70.7l32.8-35c4.8 4.5 16.3 11.8 33.7 18c17 6 38.3 10.5 61.9 10.5s44.8-4.5 61.9-10.5c17.5-6.2 28.9-13.5 33.7-18l32.8 35c-11.2 10.5-29.2 20.7-50.5 28.2C408.2 397.5 381.5 403 352 403s-56.2-5.5-77.9-13.3c-21.3-7.6-39.3-17.7-50.5-28.2zm69.2-176.7c.4-.2 .7-.4 .9-.6c-.4 .2-.6 .4-.9 .6zM464.4 208a32 32 0 1 1 -64 0 32 32 0 1 1 64 0z"/><path class="fa-primary" d="M169.9 155.4l-9.9 7.2-14.2 10.4L128 185.8l0-39.1 27.3-18.5 26.5-18 26.5-18 30.9-21 26.5-18-18-26.5-2.5-3.6L229.7 .4l-26.5 18L35.1 132.5c-44.3 30.1-47.1 94.4-5.6 128.2l1.5 1.2c18.9 15.4 43.2 20.9 66 16.5c11.1-2.2 21.9-6.8 31.6-13.8L144 253.3l66.8-48.6 25.9-18.8-37.6-51.8L173.2 153l-3.3 2.4zm-23 135.4c-13.8 9.9-29.2 16.3-45.2 19.2C126.5 425.5 229.2 512 352 512c141.4 0 256-114.6 256-256S493.4 0 352 0c-26.5 0-52.1 4-76.1 11.5l16.2 23.9 12.3 18.1C319.7 49.9 335.6 48 352 48c114.9 0 208 93.1 208 208s-93.1 208-208 208c-103 0-188.6-74.9-205.1-173.2zm97.6-67.1c5.5 9.8 15.9 16.4 27.9 16.4c17.7 0 32-14.3 32-32c0-9.5-4.1-17.9-10.6-23.8l-49.3 39.4zm29.6 166.1c21.7 7.7 48.4 13.3 77.9 13.3s56.2-5.5 77.9-13.3c21.3-7.6 39.3-17.7 50.5-28.2l-32.8-35c-4.8 4.5-16.3 11.8-33.7 18c-17 6-38.3 10.5-61.9 10.5s-44.8-4.5-61.9-10.5c-17.5-6.2-28.9-13.5-33.7-18l-32.8 35c11.2 10.5 29.2 20.7 50.5 28.2zM464.4 208a32 32 0 1 0 -64 0 32 32 0 1 0 64 0z"/></svg>