<svg xmlns="http://www.w3.org/2000/svg" viewBox="0 0 640 512"><!--! Font Awesome Pro 6.7.2 by @fontawesome - https://fontawesome.com License - https://fontawesome.com/license (Commercial License) Copyright 2024 Fonticons, Inc. --><defs><style>.fa-secondary{opacity:.4}</style></defs><path class="fa-secondary" d="M48 112l40 0 48 0 40 0 0 16 0 48-96 0-32 0 0-48 0-16zM80 224l64 0 0 240-64 0 0-240zm112 0l32 0 192 0 32 0 0 240-64 0 0-80c0-35.3-28.7-64-64-64s-64 28.7-64 64l0 80-64 0 0-240zM464 112l40 0 48 0 40 0 0 16 0 48-32 0-96 0 0-48 0-16zm32 112l64 0 0 240-64 0 0-240z"/><path class="fa-primary" d="M136 112l-48 0-40 0 0 16 0 48 32 0 96 0 0-48 0-16-40 0zm56 112l0 240 64 0 0-80c0-35.3 28.7-64 64-64s64 28.7 64 64l0 80 64 0 0-240-32 0-192 0-32 0zM496 464l64 0 0-240-64 0 0 240zM144 224l-64 0 0 240 64 0 0-240zM256 512L80 512l-48 0 0-48 0-240L0 224l0-48 0-48 0-16L0 64 0 48 0 0 40 0l8 0 0 16 0 32 0 16 40 0 0-16 0-32L88 0l8 0 32 0 8 0 0 16 0 32 0 16 40 0 0-16 0-32 0-16 8 0 40 0 0 48 0 16 0 48 0 16 0 48 192 0 0-48 0-16 0-48 0-16 0-48 40 0 8 0 0 16 0 32 0 16 40 0 0-16 0-32 0-16 8 0 32 0 8 0 0 16 0 32 0 16 40 0 0-16 0-32 0-16 8 0 40 0 0 48 0 16 0 48 0 16 0 48 0 48-32 0 0 240 0 48-48 0-176 0-128 0zM592 176l0-48 0-16-40 0-48 0-40 0 0 16 0 48 96 0 32 0z"/></svg>