<svg xmlns="http://www.w3.org/2000/svg" viewBox="0 0 576 512"><!--! Font Awesome Pro 6.7.2 by @fontawesome - https://fontawesome.com License - https://fontawesome.com/license (Commercial License) Copyright 2024 Fonticons, Inc. --><defs><style>.fa-secondary{opacity:.4}</style></defs><path class="fa-secondary" d="M48 160c0 26.5 21.5 48 48 48l4 0 110.5 0 49.5 0 236 0 0-96-368 0-32 0c-26.5 0-48 21.5-48 48zm32-16l16 0 352 0 16 0 0 32-16 0L96 176l-16 0 0-32zM93.5 432l61 0 44-176-61 0-44 176z"/><path class="fa-primary" d="M128 56l0-24L80 32l0 24 0 9.3C34.6 72.9 0 112.4 0 160c0 50.4 38.8 91.7 88.1 95.7L44 432 32 480l49.5 0L192 480l26-104 54 0 0 16 0 24 48 0 0-24 0-40 0-40 0-24-48 0 0 24 0 16-42 0 18-72 272 0 24 0 0-24 0-40 32 0 0-64-32 0 0-40 0-24-24 0L128 64l0-8zm82.5 152L100 208l-4 0c-26.5 0-48-21.5-48-48s21.5-48 48-48l32 0 368 0 0 96-236 0-49.5 0zM93.5 432l44-176 61 0-44 176-61 0zM96 144l-16 0 0 32 16 0 352 0 16 0 0-32-16 0L96 144z"/></svg>