<svg xmlns="http://www.w3.org/2000/svg" viewBox="0 0 640 512"><!--! Font Awesome Pro 6.7.2 by @fontawesome - https://fontawesome.com License - https://fontawesome.com/license (Commercial License) Copyright 2024 Fonticons, Inc. --><defs><style>.fa-secondary{opacity:.4}</style></defs><path class="fa-secondary" d="M115.7 352l280.6 0L339.4 209.8l-10.6-26.6 44-44 23.8 6.5 26.9 7.3-25.8-30.4C374.9 95.6 341.3 80 305.9 80c-49.2 0-93.4 29.9-111.7 75.6L115.7 352z"/><path class="fa-primary" d="M442 207.8l25.6 7 .2-.3-2.6-19.4-4.4-32.5 30.8-3.4L434.4 91.6c-32-37.8-79-59.6-128.5-59.6c-68.8 0-130.7 41.9-156.3 105.8L64 352l51.7 0 78.6-196.4C212.5 109.9 256.8 80 305.9 80c35.4 0 69 15.6 91.8 42.6L423.5 153l-26.9-7.3-23.8-6.5-44 44 10.6 26.6L396.3 352l51.7 0L406.3 247.8 384 192l58 15.8zm108.2-47.2L530 187.1l-33.1 3.7 4.5 33-20.8 26L507.1 270l3.7 33.1 33-4.5 26 20.8L590 292.9l33.1-3.7-4.5-33 20.8-26L612.9 210l-3.7-33.1-33 4.5-26-20.8zM0 384l0 96 48 0 416 0 48 0 0-96-48 0L48 384 0 384z"/></svg>