<svg xmlns="http://www.w3.org/2000/svg" viewBox="0 0 640 512"><!--! Font Awesome Pro 6.7.2 by @fontawesome - https://fontawesome.com License - https://fontawesome.com/license (Commercial License) Copyright 2024 Fonticons, Inc. --><defs><style>.fa-secondary{opacity:.4}</style></defs><path class="fa-secondary" d="M197.7 274.2C232.2 282.5 272.9 288 320 288s87.8-5.5 122.3-13.8L393 99.2l-52.9 24.4L320 132.9l-20.1-9.3L247 99.2 197.7 274.2z"/><path class="fa-primary" d="M320 80L260.1 52.4 216 32 202.8 78.8 151.7 260.6c13.9 5 29.2 9.6 46 13.6L247 99.2l52.9 24.4 20.1 9.3 20.1-9.3L393 99.2l49.2 175.1c16.8-4 32.1-8.7 46-13.6L437.2 78.8 424 32 379.9 52.4 320 80zM24 224L0 256s96 192 320 192s320-192 320-192l-24-32s-94.5 96-296 96s-296-96-296-96z"/></svg>