<svg xmlns="http://www.w3.org/2000/svg" viewBox="0 0 576 512"><!--! Font Awesome Pro 6.7.2 by @fontawesome - https://fontawesome.com License - https://fontawesome.com/license (Commercial License) Copyright 2024 Fonticons, Inc. --><defs><style>.fa-secondary{opacity:.4}</style></defs><path class="fa-secondary" d="M112 212.8L112 464l108.8 0L192 416l96-80L224 224 384 336l-96 80 28.8 48L464 464l0-224 0-24 0-3.2L288 63.5 112 212.8z"/><path class="fa-primary" d="M303.5 13.7L288 .5 272.5 13.7l-264 224 31.1 36.6L64 253.5 64 488l0 24 24 0 400 0 24 0 0-24 0-234.5 24.5 20.8 31.1-36.6L512 190.6 512 88l0-24-48 0 0 24 0 61.9L303.5 13.7zM464 216l0 24 0 224-147.2 0L288 416l96-80L224 224l64 112-96 80 28.8 48L112 464l0-251.2L288 63.5 464 212.8l0 3.2z"/></svg>