<svg xmlns="http://www.w3.org/2000/svg" viewBox="0 0 576 512"><!--! Font Awesome Pro 6.7.2 by @fontawesome - https://fontawesome.com License - https://fontawesome.com/license (Commercial License) Copyright 2024 Fonticons, Inc. --><defs><style>.fa-secondary{opacity:.4}</style></defs><path class="fa-secondary" d="M112 212.8L112 464l352 0 0-251.2L288 63.5 112 212.8zM208 176l48 0 64 0 48 0 0 48 0 64 0 48-48 0-64 0-48 0 0-48 0-64 0-48z"/><path class="fa-primary" d="M303.5 13.7L288 .5 272.5 13.7l-264 224 31.1 36.6L64 253.5 64 488l0 24 24 0 400 0 24 0 0-24 0-234.5 24.5 20.8 31.1-36.6L511.3 190c.5-1.9 .7-3.9 .7-6l0-96 0-24-48 0 0 24 0 61.9L303.5 13.7zM464 212.8L464 464l-352 0 0-251.2L288 63.5 464 212.8zM256 288l0-64 64 0 0 64-64 0zM208 176l0 48 0 64 0 48 48 0 64 0 48 0 0-48 0-64 0-48-48 0-64 0-48 0z"/></svg>