<svg xmlns="http://www.w3.org/2000/svg" viewBox="0 0 640 512"><!--! Font Awesome Pro 6.7.2 by @fontawesome - https://fontawesome.com License - https://fontawesome.com/license (Commercial License) Copyright 2024 Fonticons, Inc. --><defs><style>.fa-secondary{opacity:.4}</style></defs><path class="fa-secondary" d="M48 278.5L48 464l288 0 0-185.5-144-120L48 278.5zm96-6.5l96 0 0 96-96 0 0-96zM336 48l0 126.3c16 13.3 32 26.7 48 40l0-22.3 64 0 0 64-32 0 0 32 32 0 0 64-32 0 0 112 176 0 0-416L336 48zm48 48l64 0 0 64-64 0 0-64zm96 0l64 0 0 64-64 0 0-64zm0 96l64 0 0 64-64 0 0-64zm0 96l64 0 0 64-64 0 0-64z"/><path class="fa-primary" d="M336 48l256 0 0 416-176 0 0 48 176 0 48 0 0-48 0-416 0-48L592 0 336 0 288 0l0 48 0 86.3 48 40L336 48zm80 208l32 0 0-64-64 0 0 22.3 20.5 17.1L416 241l0 15zm0 96l32 0 0-64-32 0 0 64zm64-160l0 64 64 0 0-64-64 0zm64 96l-64 0 0 64 64 0 0-64zM448 96l-64 0 0 64 64 0 0-64zm32 0l0 64 64 0 0-64-64 0zM48 278.5l144-120 144 120L336 464 48 464l0-185.5zM0 256L0 464l0 48 48 0 288 0 48 0 0-48 0-208L192 96 0 256zm240 16l-96 0 0 96 96 0 0-96z"/></svg>