<svg xmlns="http://www.w3.org/2000/svg" width="24" height="24" viewBox="0 0 512 512">
    <path class="pr-icon-duotone-secondary" d="M48 192l416 0 0 240L48 432l0-240zm56 40l0 48 24 0 256 0 24 0 0-48-24 0-256 0-24 0zm0 96l0 48 24 0 256 0 24 0 0-48-24 0-256 0-24 0z"/>
    <path class="pr-icon-duotone-primary" d="M48 192l0 240 416 0 0-240L48 192zM0 32l48 0 416 0 48 0 0 48 0 352 0 48-48 0L48 480 0 480l0-48L0 80 0 32zM352 96l48 48 48-48-96 0zM128 232l256 0 24 0 0 48-24 0-256 0-24 0 0-48 24 0zm0 96l256 0 24 0 0 48-24 0-256 0-24 0 0-48 24 0z"/>
</svg>