<svg xmlns="http://www.w3.org/2000/svg" viewBox="0 0 320 512"><!--! Font Awesome Pro 6.7.2 by @fontawesome - https://fontawesome.com License - https://fontawesome.com/license (Commercial License) Copyright 2024 Fonticons, Inc. --><defs><style>.fa-secondary{opacity:.4}</style></defs><path class="fa-secondary" d="M48 48l0 416 224 0 0-416L48 48zM72 304l48 0 0 48-48 0 0-48zm0 80l48 0 0 48-48 0 0-48zm8-256l160 0 0 128L80 256l0-128zm32-64l16 0 64 0 16 0 0 32-16 0-64 0-16 0 0-32zm24 240l48 0 0 48-48 0 0-48zm0 80l48 0 0 48-48 0 0-48zm64-80l48 0 0 48-48 0 0-48zm0 80l48 0 0 48-48 0 0-48z"/><path class="fa-primary" d="M272 48l0 416L48 464 48 48l224 0zM48 0L0 0 0 48 0 464l0 48 48 0 224 0 48 0 0-48 0-416 0-48L272 0 48 0zM80 128l0 128 160 0 0-128L80 128zm48-64l-16 0 0 32 16 0 64 0 16 0 0-32-16 0-64 0zM72 304l0 48 48 0 0-48-48 0zm48 80l-48 0 0 48 48 0 0-48zm16-80l0 48 48 0 0-48-48 0zm48 80l-48 0 0 48 48 0 0-48zm16-80l0 48 48 0 0-48-48 0zm48 80l-48 0 0 48 48 0 0-48z"/></svg>