<svg xmlns="http://www.w3.org/2000/svg" viewBox="0 0 640 512"><!--! Font Awesome Pro 6.7.2 by @fontawesome - https://fontawesome.com License - https://fontawesome.com/license (Commercial License) Copyright 2024 Fonticons, Inc. --><defs><style>.fa-secondary{opacity:.4}</style></defs><path class="fa-secondary" d="M144 144l0 128c35.3 0 64 28.7 64 64l320 0c0-35.3 28.7-64 64-64l0-128c-35.3 0-64-28.7-64-64L208 80c0 35.3-28.7 64-64 64zm304 64a80 80 0 1 1 -160 0 80 80 0 1 1 160 0z"/><path class="fa-primary" d="M528 80c0 35.3 28.7 64 64 64l0 128c-35.3 0-64 28.7-64 64l-320 0c0-35.3-28.7-64-64-64l0-128c35.3 0 64-28.7 64-64l320 0zM144 32L96 32l0 48 0 256 0 48 48 0 448 0 48 0 0-48 0-256 0-48-48 0L144 32zM448 208a80 80 0 1 0 -160 0 80 80 0 1 0 160 0zM48 120l0-24L0 96l0 24L0 456l0 24 24 0 496 0 24 0 0-48-24 0L48 432l0-312z"/></svg>