<svg xmlns="http://www.w3.org/2000/svg" viewBox="0 0 512 512"><!--! Font Awesome Pro 6.7.2 by @fontawesome - https://fontawesome.com License - https://fontawesome.com/license (Commercial License) Copyright 2024 Fonticons, Inc. --><defs><style>.fa-secondary{opacity:.4}</style></defs><path class="fa-secondary" d="M48 112l0 64 288 0 0-64L48 112zM176 336l0 64 160 0 0-64-160 0z"/><path class="fa-primary" d="M512 512L512 0 464 0l0 512 48 0zM336 176L48 176l0-64 288 0 0 64zm48-64l0-48-48 0L48 64 0 64l0 48 0 64 0 48 48 0 288 0 48 0 0-48 0-64zM336 400l-160 0 0-64 160 0 0 64zm48-64l0-48-48 0-160 0-48 0 0 48 0 64 0 48 48 0 160 0 48 0 0-48 0-64z"/></svg>