<svg xmlns="http://www.w3.org/2000/svg" viewBox="0 0 640 512"><!--! Font Awesome Pro 6.7.2 by @fontawesome - https://fontawesome.com License - https://fontawesome.com/license (Commercial License) Copyright 2024 Fonticons, Inc. --><defs><style>.fa-secondary{opacity:.4}</style></defs><path class="fa-secondary" d="M112 256a208 208 0 1 0 416 0 208 208 0 1 0 -416 0zm43.7-24l14.1-14.1 32-32L216 171.7 244.3 200l-14.1 14.1-32 32L184 260.3 155.7 232zm21.7 80l11.3-11.3 8-8 8-8L216 273.4 238.6 296l-8 8 16 16 33.4 0c30.9 0 56 25.1 56 56s-25.1 56-56 56s-56-25.1-56-56l0-33.4-16-16-8 8L177.4 312zM248 152c0-39.8 32.2-72 72-72s72 32.2 72 72l0 8-144 0 0-8zm96 72a24 24 0 1 1 -48 0 24 24 0 1 1 48 0zm8 64l96-96 11 11c13.4 13.4 21 31.6 21 50.6l0 4.8c0 18.7-8.5 36.4-23.1 48.1C446 315.2 432.4 320 418.4 320l-4.1 0c-19.4 0-38-7.7-51.8-21.4L352 288zm88 96a24 24 0 1 1 -48 0 24 24 0 1 1 48 0z"/><path class="fa-primary" d="M320 48a208 208 0 1 1 0 416 208 208 0 1 1 0-416zm0 464A256 256 0 1 0 320 0a256 256 0 1 0 0 512zM48 160L0 160l0 24L0 328l0 24 48 0 0-24 0-144 0-24zm592 24l0-24-48 0 0 24 0 144 0 24 48 0 0-24 0-144zM244.3 200L216 171.7l-14.1 14.1-32 32L155.7 232 184 260.3l14.1-14.1 32-32L244.3 200zM320 248a24 24 0 1 0 0-48 24 24 0 1 0 0 48zM440 384a24 24 0 1 0 -48 0 24 24 0 1 0 48 0zM230.6 304l8-8L216 273.4l-11.3 11.3-8 8-8 8L177.4 312 200 334.6l8-8 16 16 0 33.4c0 30.9 25.1 56 56 56s56-25.1 56-56s-25.1-56-56-56l-33.4 0-16-16zM448 192l-96 96 10.6 10.6c13.7 13.7 32.4 21.4 51.8 21.4l4.1 0c14 0 27.6-4.8 38.5-13.5c14.6-11.7 23.1-29.4 23.1-48.1l0-4.8c0-19-7.5-37.2-21-50.6l-11-11zM320 80c-39.8 0-72 32.2-72 72l0 8 144 0 0-8c0-39.8-32.2-72-72-72z"/></svg>