<svg xmlns="http://www.w3.org/2000/svg" viewBox="0 0 384 512"><!--! Font Awesome Pro 6.7.2 by @fontawesome - https://fontawesome.com License - https://fontawesome.com/license (Commercial License) Copyright 2024 Fonticons, Inc. --><defs><style>.fa-secondary{opacity:.4}</style></defs><path class="fa-secondary" d=""/><path class="fa-primary" d="M132 2.7L132 0l24 0c59.6 0 108 48.4 108 108l0 236c0 31.4-20 58-48 67.9l0 4.1-24 0c-39.8 0-72-32.2-72-72l0-192 0-24 48 0 0 24 0 192c0 13.3 10.7 24 24 24s24-10.7 24-24l0-236c0-33.1-26.9-60-60-60s-60 26.9-60 60l0 260c0 53 43 96 96 96s96-43 96-96l0-216 0-24 48 0 0 24 0 216c0 71.4-51.9 130.6-120 142l0 2-24 0c-79.5 0-144-64.5-144-144l0-260C48 56.6 83.9 13.6 132 2.7z"/></svg>