<svg xmlns="http://www.w3.org/2000/svg" viewBox="0 0 640 512"><!--! Font Awesome Pro 6.7.2 by @fontawesome - https://fontawesome.com License - https://fontawesome.com/license (Commercial License) Copyright 2024 Fonticons, Inc. --><defs><style>.fa-secondary{opacity:.4}</style></defs><path class="fa-secondary" d="M125.2 450.8l15-75.1L234.9 281c22.4 17.7 44.8 35.3 67.3 53L200.3 435.8l-75.1 15zm178-238.2l82.7-82.7 60.1 60.1-75.1 75.1-67.7-52.5z"/><path class="fa-primary" d="M409.1 294.9L620.9 459.3l19 14.7-29.4 37.9-19-14.7L19 52.7 0 38 29.4 .1l19 14.7L265 183l149-149L448 0l33.9 33.9 60.1 60.1L576 128l-33.9 33.9L409.1 294.9zM303.2 212.6l67.7 52.5 75.1-75.1-60.1-60.1-82.7 82.7zm36.8 151.3L224 480 115 501.8 64 512l10.2-51L96 352 196.9 251.1l38 29.9-94.6 94.6-15 75.1 75.1-15L302.1 334l38 29.9z"/></svg>