<svg xmlns="http://www.w3.org/2000/svg" viewBox="0 0 576 512"><!--! Font Awesome Pro 6.7.2 by @fontawesome - https://fontawesome.com License - https://fontawesome.com/license (Commercial License) Copyright 2024 Fonticons, Inc. --><defs><style>.fa-secondary{opacity:.4}</style></defs><path class="fa-secondary" d="M100.9 311l29.7 89 314.8 0 29.7-89c-4-1.9-7.9-3.8-11.9-5.7L376 337l-88-32-88 32-87.2-31.7L100.9 311z"/><path class="fa-primary" d="M544 240l-12.7 0C497.7 137.8 401.4 64 288 64S78.3 137.8 44.7 240L32 240 0 240l0 64 32 0 9.2 0 63.9-30.4 6-2.9 6.3 2.3L200 303l82.5-30 5.5-2 5.5 2L376 303l82.5-30 6.3-2.3 6.1 2.9L534.8 304l9.2 0 32 0 0-64-32 0zM96 448l384 0 38.7-116.2L475.1 311l-29.7 89-314.8 0-29.7-89L57.3 331.8 96 448zM206.3 151.2l-16 32-7.2 14.3-28.6-14.3 7.2-14.3 16-32 7.2-14.3 28.6 14.3-7.2 14.3zm192-14.3l16 32 7.2 14.3-28.6 14.3-7.2-14.3-16-32-7.2-14.3 28.6-14.3 7.2 14.3zM304 144l0 32 0 16-32 0 0-16 0-32 0-16 32 0 0 16z"/></svg>