<svg xmlns="http://www.w3.org/2000/svg" viewBox="0 0 512 512"><!--! Font Awesome Pro 6.7.2 by @fontawesome - https://fontawesome.com License - https://fontawesome.com/license (Commercial License) Copyright 2024 Fonticons, Inc. --><defs><style>.fa-secondary{opacity:.4}</style></defs><path class="fa-secondary" d="M32 256c0-14.3 7.5-26.8 18.7-33.9C66.9 123.4 152.7 48 256 48c48.8 0 93.7 16.8 129.1 44.9l-34.2 34.2C324.3 107.6 291.5 96 256 96c-78.2 0-143.3 56.1-157.2 130.3c8.1 7.3 13.2 17.9 13.2 29.7s-5.1 22.4-13.2 29.7c12.1 64.5 63 115.4 127.5 127.5c7.3-8.1 17.9-13.2 29.7-13.2s22.4 5.1 29.7 13.2C359.9 399.3 416 334.2 416 256l48 0c0 103.3-75.4 189.1-174.1 205.3C282.8 472.5 270.3 480 256 480s-26.8-7.5-33.9-18.7c-87.7-14.4-157-83.6-171.4-171.4C39.5 282.8 32 270.3 32 256zm112 0c0-61.9 50.1-112 112-112c22.2 0 43 6.5 60.4 17.7L281 197.1c-7.7-3.3-16.1-5.1-25-5.1c-35.3 0-64 28.7-64 64s28.7 64 64 64s64-28.7 64-64l48 0c0 61.9-50.1 112-112 112s-112-50.1-112-112z"/><path class="fa-primary" d="M316.4 161.7C299 150.5 278.2 144 256 144c-61.9 0-112 50.1-112 112s50.1 112 112 112s112-50.1 112-112l48 0c0 78.2-56.1 143.3-130.3 157.2c-7.3-8.1-17.9-13.2-29.7-13.2s-22.4 5.1-29.7 13.2c-64.5-12.1-115.4-63-127.5-127.5c8.1-7.3 13.2-17.9 13.2-29.7s-5.1-22.4-13.2-29.7C112.7 152.1 177.8 96 256 96c35.5 0 68.3 11.6 94.9 31.2l34.2-34.2C349.7 64.8 304.8 48 256 48C152.7 48 66.9 123.4 50.7 222.1C39.5 229.2 32 241.7 32 256s7.5 26.8 18.7 33.9c14.4 87.7 83.6 157 171.4 171.4c7.1 11.3 19.6 18.7 33.9 18.7s26.8-7.5 33.9-18.7C388.6 445.1 464 359.3 464 256l48 0c0 141.4-114.6 256-256 256S0 397.4 0 256S114.6 0 256 0c62.1 0 118.9 22.1 163.3 58.8L455 23l17-17L505.9 40 489 57l-174 174c3.3 7.7 5.1 16.1 5.1 25c0 35.3-28.7 64-64 64s-64-28.7-64-64s28.7-64 64-64c8.9 0 17.3 1.8 25 5.1l35.4-35.4z"/></svg>