<svg xmlns="http://www.w3.org/2000/svg" width="24" height="24" viewBox="0 0 512 512"><path class="pr-icon-duotone-secondary" d="M48 80l416 0 0 352L48 432 48 80zM158.1 192l17 17 47 47-47 47-17 17L192 353.9l17-17 47-47 47 47 17 17L353.9 320l-17-17-47-47 47-47 17-17L320 158.1l-17 17-47 47-47-47-17-17L158.1 192z"/><path class="pr-icon-duotone-primary" d="M48 80l0 352 416 0 0-352L48 80zM0 32l48 0 416 0 48 0 0 48 0 352 0 48-48 0L48 480 0 480l0-48L0 80 0 32zM353.9 192l-17 17-47 47 47 47 17 17L320 353.9l-17-17-47-47-47 47-17 17L158.1 320l17-17 47-47-47-47-17-17L192 158.1l17 17 47 47 47-47 17-17L353.9 192z"/></svg>