<svg xmlns="http://www.w3.org/2000/svg" viewBox="0 0 512 512"><!--! Font Awesome Pro 6.7.2 by @fontawesome - https://fontawesome.com License - https://fontawesome.com/license (Commercial License) Copyright 2024 Fonticons, Inc. --><defs><style>.fa-secondary{opacity:.4}</style></defs><path class="fa-secondary" d="M208 208l256 0 0 256-256 0 0-256z"/><path class="fa-primary" d="M352 0L0 0 0 352l128 0 0-192 0-32 32 0 192 0L352 0zM208 208l256 0 0 256-256 0 0-256zm-48-48l0 48 0 256 0 48 48 0 256 0 48 0 0-48 0-256 0-48-48 0-256 0-48 0z"/></svg>