<svg xmlns="http://www.w3.org/2000/svg" viewBox="0 0 512 512"><!--! Font Awesome Pro 6.7.2 by @fontawesome - https://fontawesome.com License - https://fontawesome.com/license (Commercial License) Copyright 2024 Fonticons, Inc. --><defs><style>.fa-secondary{opacity:.4}</style></defs><path class="fa-secondary" d="M48 80l416 0 0 96L48 176l0-96zm0 256l416 0 0 96L48 432l0-96zM328 128a24 24 0 1 0 48 0 24 24 0 1 0 -48 0zm0 256a24 24 0 1 0 48 0 24 24 0 1 0 -48 0zm64-256a24 24 0 1 0 48 0 24 24 0 1 0 -48 0zm0 256a24 24 0 1 0 48 0 24 24 0 1 0 -48 0z"/><path class="fa-primary" d="M48 80l0 96 416 0 0-96L48 80zM0 32l48 0 416 0 48 0 0 48 0 96 0 48-48 0L48 224 0 224l0-48L0 80 0 32zM48 336l0 96 416 0 0-96L48 336zM0 288l48 0 416 0 48 0 0 48 0 96 0 48-48 0L48 480 0 480l0-48 0-96 0-48zm392 96a24 24 0 1 1 48 0 24 24 0 1 1 -48 0zm24-280a24 24 0 1 1 0 48 24 24 0 1 1 0-48zM328 384a24 24 0 1 1 48 0 24 24 0 1 1 -48 0zm24-280a24 24 0 1 1 0 48 24 24 0 1 1 0-48z"/></svg>