<svg xmlns="http://www.w3.org/2000/svg" viewBox="0 0 448 512"><!--! Font Awesome Pro 6.7.2 by @fontawesome - https://fontawesome.com License - https://fontawesome.com/license (Commercial License) Copyright 2024 Fonticons, Inc. --><defs><style>.fa-secondary{opacity:.4}</style></defs><path class="fa-secondary" d="M48 80l0 352 352 0 0-352L48 80zm54.1 88L136 134.1l17 17 135 135L288 184l0-24 48 0 0 24 0 160 0 24-24 0-152 0-24 0 0-48 24 0 94.1 0L119 185l-17-17z"/><path class="fa-primary" d="M400 432l0-352L48 80l0 352 352 0zm48 48l-48 0L48 480 0 480l0-48L0 80 0 32l48 0 352 0 48 0 0 48 0 352 0 48zM312 368l-152 0-24 0 0-48 24 0 94.1 0L119 185l-17-17L136 134.1l17 17 135 135L288 184l0-24 48 0 0 24 0 160 0 24-24 0z"/></svg>