<svg xmlns="http://www.w3.org/2000/svg" width="24" height="24" viewBox="0 0 448 512">
    <path class="pr-icon-duotone-secondary" d="M48 80l0 352 352 0 0-352L48 80zm48 72l24 0 32 0 0-16 0-24 48 0 0 24 0 16 128 0 24 0 0 48-24 0-128 0 0 16 0 24-48 0 0-24 0-16-32 0-24 0 0-48zm0 160l24 0 128 0 0-16 0-24 48 0 0 24 0 16 32 0 24 0 0 48-24 0-32 0 0 16 0 24-48 0 0-24 0-16-128 0-24 0 0-48z"/>
    <path class="pr-icon-duotone-primary" d="M48 432l352 0 0-352L48 80l0 352zM0 80L0 32l48 0 352 0 48 0 0 48 0 352 0 48-48 0L48 480 0 480l0-48L0 80zM96 200l0-48 24 0 32 0 0-16 0-24 48 0 0 24 0 16 128 0 24 0 0 48-24 0-128 0 0 16 0 24-48 0 0-24 0-16-32 0-24 0zm24 160l-24 0 0-48 24 0 128 0 0-16 0-24 48 0 0 24 0 16 32 0 24 0 0 48-24 0-32 0 0 16 0 24-48 0 0-24 0-16-128 0z"/>
</svg>