<svg xmlns="http://www.w3.org/2000/svg" width="24" height="24" viewBox="0 0 448 512"><path class="pr-icon-duotone-secondary" d="M48 80l0 352 352 0 0-352L48 80zm54.1 192L136 238.1l17 17 47 47L200 152l0-24 48 0 0 24 0 150.1 47-47 17-17L345.9 272l-17 17-88 88-17 17-17-17-88-88-17-17z"/><path class="pr-icon-duotone-primary" d="M400 432l0-352L48 80l0 352 352 0zm48 48l-48 0L48 480 0 480l0-48L0 80 0 32l48 0 352 0 48 0 0 48 0 352 0 48zM207 377l-88-88-17-17L136 238.1l17 17 47 47L200 152l0-24 48 0 0 24 0 150.1 47-47 17-17L345.9 272l-17 17-88 88-17 17-17-17z"/></svg>