<svg xmlns="http://www.w3.org/2000/svg" viewBox="0 0 448 512"><!--! Font Awesome Pro 6.7.2 by @fontawesome - https://fontawesome.com License - https://fontawesome.com/license (Commercial License) Copyright 2024 Fonticons, Inc. --><defs><style>.fa-secondary{opacity:.4}</style></defs><path class="fa-secondary" d="M48 80l352 0 0 352L48 432 48 80zM160 224l0 48 24 0 24 0 0 64-24 0-24 0 0 48 24 0 80 0 24 0 0-48-24 0-8 0 0-88 0-24-24 0-48 0-24 0zm32-96l0 64 64 0 0-64-64 0z"/><path class="fa-primary" d="M48 80l0 352 352 0 0-352L48 80zM0 32l48 0 352 0 48 0 0 48 0 352 0 48-48 0L48 480 0 480l0-48L0 80 0 32zM184 336l24 0 0-64-24 0-24 0 0-48 24 0 48 0 24 0 0 24 0 88 8 0 24 0 0 48-24 0-80 0-24 0 0-48 24 0zm72-208l0 64-64 0 0-64 64 0z"/></svg>