<svg xmlns="http://www.w3.org/2000/svg" width="24" height="24" viewBox="0 0 448 512">
    <path class="pr-icon-duotone-secondary" d="M48 80l352 0 0 352L48 432 48 80zM96 256c0 26.5 21.5 48 48 48c9.8 0 18.9-2.9 26.5-7.9l85.6 42.8C257.6 364 278.5 384 304 384c26.5 0 48-21.5 48-48s-21.5-48-48-48c-9.8 0-18.9 2.9-26.5 7.9L197.7 256l79.9-39.9c7.6 5 16.7 7.9 26.5 7.9c26.5 0 48-21.5 48-48s-21.5-48-48-48c-25.5 0-46.4 20-47.9 45.1l-85.6 42.8c-7.6-5-16.7-7.9-26.5-7.9c-26.5 0-48 21.5-48 48z"/>
    <path class="pr-icon-duotone-primary" d="M48 80l0 352 352 0 0-352L48 80zM0 32l48 0 352 0 48 0 0 48 0 352 0 48-48 0L48 480 0 480l0-48L0 80 0 32zM352 176c0 26.5-21.5 48-48 48c-9.8 0-18.9-2.9-26.5-7.9L197.7 256l79.9 39.9c7.6-5 16.7-7.9 26.5-7.9c26.5 0 48 21.5 48 48s-21.5 48-48 48c-25.5 0-46.4-20-47.9-45.1l-85.6-42.8c-7.6 5-16.7 7.9-26.5 7.9c-26.5 0-48-21.5-48-48s21.5-48 48-48c9.8 0 18.9 2.9 26.5 7.9l85.6-42.8C257.6 148 278.5 128 304 128c26.5 0 48 21.5 48 48z"/>
</svg>