<svg xmlns="http://www.w3.org/2000/svg" viewBox="0 0 448 512"><!--! Font Awesome Pro 6.7.2 by @fontawesome - https://fontawesome.com License - https://fontawesome.com/license (Commercial License) Copyright 2024 Fonticons, Inc. --><defs><style>.fa-secondary{opacity:.4}</style></defs><path class="fa-secondary" d="M48 80l352 0 0 352L48 432 48 80zm48.1 48L202 369.6l6.3 14.4 31.4 0 6.3-14.4L351.9 128l-52.4 0L224 300.2 148.5 128l-52.4 0z"/><path class="fa-primary" d="M48 80l0 352 352 0 0-352L48 80zM0 32l48 0 352 0 48 0 0 48 0 352 0 48-48 0L48 480 0 480l0-48L0 80 0 32zm351.9 96L246 369.6 239.7 384l-31.4 0L202 369.6 96.1 128l52.4 0L224 300.2 299.5 128l52.4 0z"/></svg>