<svg xmlns="http://www.w3.org/2000/svg" width="24" height="24" viewBox="0 0 448 512"><path class="pr-icon-duotone-secondary" d="M23.8 55.1l0 400.8 400.4 0 0-400.8-400.4 0zM48 80l352 0 0 352L48 432 48 80zm48 32l0 48c123.7 0 224 100.3 224 224l48 0c0-150.2-121.8-272-272-272zm0 96l0 48c70.7 0 128 57.3 128 128l48 0c0-97.2-78.8-176-176-176zm0 144a32 32 0 1 0 64 0 32 32 0 1 0 -64 0z"/><path class="pr-icon-duotone-primary" d="M48 80l0 352 352 0 0-352L48 80zM0 32l48 0 352 0 48 0 0 48 0 352 0 48-48 0L48 480 0 480l0-48L0 80 0 32zm96 80c150.2 0 272 121.8 272 272l-48 0c0-123.7-100.3-224-224-224l0-48zm0 96c97.2 0 176 78.8 176 176l-48 0c0-70.7-57.3-128-128-128l0-48zm0 144a32 32 0 1 1 64 0 32 32 0 1 1 -64 0z"/></svg>