<svg xmlns="http://www.w3.org/2000/svg" width="24" height="24" viewBox="0 0 448 512"><path class="pr-icon-duotone-secondary" d="M48 80l352 0 0 352L48 432 48 80zm78.1 112l17 17 47 47-47 47-17 17L160 353.9l17-17 47-47 47 47 17 17L321.9 320l-17-17-47-47 47-47 17-17L288 158.1l-17 17-47 47-47-47-17-17L126.1 192z"/><path class="pr-icon-duotone-primary" d="M48 80l0 352 352 0 0-352L48 80zM0 32l48 0 352 0 48 0 0 48 0 352 0 48-48 0L48 480 0 480l0-48L0 80 0 32zM321.9 192l-17 17-47 47 47 47 17 17L288 353.9l-17-17-47-47-47 47-17 17L126.1 320l17-17 47-47-47-47-17-17L160 158.1l17 17 47 47 47-47 17-17L321.9 192z"/></svg>