<svg xmlns="http://www.w3.org/2000/svg" viewBox="0 0 512 512"><!--! Font Awesome Pro 6.7.2 by @fontawesome - https://fontawesome.com License - https://fontawesome.com/license (Commercial License) Copyright 2024 Fonticons, Inc. --><defs><style>.fa-secondary{opacity:.4}</style></defs><path class="fa-secondary" d="M72.3 160l30.8 50.1L133.8 160l-61.5 0zm0 192l61.5 0-30.8-50.1L72.3 352zm58.9-96l58.9 96 131.7 0 58.9-96-58.9-96-131.7 0-58.9 96zm88.4-144l72.8 0L256 52.7 219.6 112zm0 288L256 459.3 292.4 400l-72.8 0zM378.2 160l30.7 50.1L439.7 160l-61.5 0zm0 192l61.5 0-30.8-50.1L378.2 352z"/><path class="fa-primary" d="M16 400l48 0 99.3 0L232 512l48 0 68.7-112 99.3 0 48 0 0-48-58.9-96L496 160l0-48-48 0-99.3 0L280 0 232 0 163.3 112 64 112l-48 0 0 48 58.9 96L16 352l0 48zm87.1-98.1L133.8 352l-61.5 0 30.8-50.1zM190.1 352l-58.9-96 58.9-96 131.7 0 58.9 96-58.9 96-131.7 0zm29.5 48l72.8 0L256 459.3 219.6 400zm158.6-48l30.7-50.1L439.7 352l-61.5 0zm30.7-141.9L378.2 160l61.5 0-30.8 50.1zM292.4 112l-72.8 0L256 52.7 292.4 112zM133.8 160l-30.8 50.1L72.3 160l61.5 0z"/></svg>