<svg xmlns="http://www.w3.org/2000/svg" viewBox="0 0 576 512"><!--! Font Awesome Pro 6.7.2 by @fontawesome - https://fontawesome.com License - https://fontawesome.com/license (Commercial License) Copyright 2024 Fonticons, Inc. --><defs><style>.fa-secondary{opacity:.4}</style></defs><path class="fa-secondary" d="M48 112l480 0 0 176-112 0 0 112L48 400l0-288zm32 64a32 32 0 1 0 64 0 32 32 0 1 0 -64 0z"/><path class="fa-primary" d="M48 112l480 0 0 176-112 0 0 112L48 400l0-288zM576 320l0-208 0-48-48 0L48 64 0 64l0 48L0 400l0 48 48 0 400 0L576 320zM112 208a32 32 0 1 0 0-64 32 32 0 1 0 0 64z"/></svg>