<svg xmlns="http://www.w3.org/2000/svg" viewBox="0 0 576 512"><!--! Font Awesome Pro 6.7.2 by @fontawesome - https://fontawesome.com License - https://fontawesome.com/license (Commercial License) Copyright 2024 Fonticons, Inc. --><defs><style>.fa-secondary{opacity:.4}</style></defs><path class="fa-secondary" d="M48 112l0 288 288 0 0-288L48 112z"/><path class="fa-primary" d="M336 112L48 112l0 288 288 0 0-288zm48 336l-48 0L48 448 0 448l0-48L0 112 0 64l48 0 288 0 48 0 144 0 48 0 0 48 0 288 0 48-48 0-144 0zm0-336l0 288 144 0 0-288-144 0z"/></svg>