<svg xmlns="http://www.w3.org/2000/svg" viewBox="0 0 512 512"><!--! Font Awesome Pro 6.7.2 by @fontawesome - https://fontawesome.com License - https://fontawesome.com/license (Commercial License) Copyright 2024 Fonticons, Inc. --><defs><style>.fa-secondary{opacity:.4}</style></defs><path class="fa-secondary" d="M48 256c0-40.8 11.7-78.8 32-110.9L80 480l.8 0-32 32-.8 0 0-24 0-232zm57.9-144C143.8 72.6 197 48 256 48s112.2 24.6 150.1 64l-300.2 0zM160 304l192 0 0 96-192 0 0-96zm64 48a32 32 0 1 0 64 0 32 32 0 1 0 -64 0zM431.2 480l.8 0 0-334.9c20.3 32.1 32 70.1 32 110.9l0 232 0 24-.8 0-32-32z"/><path class="fa-primary" d="M48 256C48 141.1 141.1 48 256 48s208 93.1 208 208l0 232 0 24 48 0 0-24 0-232C512 122.7 410.1 13.2 280 1.1L280 0 256 0C114.6 0 0 114.6 0 256L0 488l0 24 48 0 0-24 0-232zm304 0l-192 0 0-64 192 0 0 64zM160 400l0-96 192 0 0 96-192 0zm0-256l-48 0 0 48 0 208 0 48 46 0-47 47-17 17s0 0 0 0l67.9 0 64-64 60.1 0 64 64 67.9 0-17-17-47-47 46.1 0 0-48 0-208 0-48-48 0-192 0zM288 352a32 32 0 1 0 -64 0 32 32 0 1 0 64 0z"/></svg>