<svg xmlns="http://www.w3.org/2000/svg" viewBox="0 0 448 512"><!--! Font Awesome Pro 6.7.2 by @fontawesome - https://fontawesome.com License - https://fontawesome.com/license (Commercial License) Copyright 2024 Fonticons, Inc. --><defs><style>.fa-secondary{opacity:.4}</style></defs><path class="fa-secondary" d="M80 128l0 336 288 0 0-336L80 128zm46.1 96L160 190.1l17 17 47 47 47-47 17-17L321.9 224l-17 17-47 47 47 47 17 17L288 385.9l-17-17-47-47-47 47-17 17L126.1 352l17-17 47-47-47-47-17-17zM151.5 80l145 0L275.2 48 172.8 48 151.5 80z"/><path class="fa-primary" d="M160 0L147.2 0 140 10.7 93.8 80 80 80 32 80 0 80l0 48 32 0 0 336 0 48 48 0 288 0 48 0 0-48 0-336 32 0 0-48-32 0-48 0-13.8 0L308 10.7 300.8 0 288 0 160 0zM296.5 80l-145 0 21.3-32 102.3 0 21.3 32zM80 464l0-336 288 0 0 336L80 464zM321.9 224L288 190.1l-17 17-47 47-47-47-17-17L126.1 224l17 17 47 47-47 47-17 17L160 385.9l17-17 47-47 47 47 17 17L321.9 352l-17-17-47-47 47-47 17-17z"/></svg>