<svg xmlns="http://www.w3.org/2000/svg" viewBox="0 0 640 512"><!--! Font Awesome Pro 6.7.2 by @fontawesome - https://fontawesome.com License - https://fontawesome.com/license (Commercial License) Copyright 2024 Fonticons, Inc. --><defs><style>.fa-secondary{opacity:.4}</style></defs><path class="fa-secondary" d="M64 128l176 0 16 0 0-32-16 0L112 96l0-48 256 0 0 320-48 0-76.8 0c-16.6-28.7-47.6-48-83.2-48c-17.5 0-33.9 4.7-48 12.8l0-44.8-48 0 0-32 176 0 16 0 0-32-16 0L64 224l0-32 208 0 16 0 0-32-16 0L64 160l0-32z"/><path class="fa-primary" d="M368 48L112 48l0 48 128 0 16 0 0 32-16 0L16 128 0 128 0 96l16 0 48 0 0-48L64 0l48 0L368 0l48 0 0 48 0 48 56 0 9.9 0 7 7L601 215l7 7 0 9.9 0 136 8 0 24 0 0 48-24 0-40 0c0 53-43 96-96 96s-96-43-96-96l-8 0-8 0-48 0-64 0c0 53-43 96-96 96s-96-43-96-96l0-48 0-80 48 0 0 44.8c14.1-8.2 30.5-12.8 48-12.8c35.5 0 66.6 19.3 83.2 48l76.8 0 48 0 0-320zm48 96l0 96 142.1 0-96-96L416 144zM208 416a48 48 0 1 0 -96 0 48 48 0 1 0 96 0zm272 48a48 48 0 1 0 0-96 48 48 0 1 0 0 96zM48 160l224 0 16 0 0 32-16 0L48 192l-16 0 0-32 16 0zM16 224l224 0 16 0 0 32-16 0L16 256 0 256l0-32 16 0z"/></svg>