<svg xmlns="http://www.w3.org/2000/svg" viewBox="0 0 512 512"><!--! Font Awesome Pro 6.7.2 by @fontawesome - https://fontawesome.com License - https://fontawesome.com/license (Commercial License) Copyright 2024 Fonticons, Inc. --><defs><style>.fa-secondary{opacity:.4}</style></defs><path class="fa-secondary" d="M48 48l416 0 0 160-20.4 0-45.8-98.1L391.3 96 376 96 136 96l-15.3 0-6.5 13.9L68.4 208 48 208 48 48zm0 208l416 0 0 144L48 400l0-144zm48 64a32 32 0 1 0 64 0 32 32 0 1 0 -64 0zm256 0a32 32 0 1 0 64 0 32 32 0 1 0 -64 0z"/><path class="fa-primary" d="M48 48l0 160 20.4 0 45.8-98.1L120.7 96 136 96l240 0 15.3 0 6.5 13.9L443.6 208l20.4 0 0-160L48 48zm0 208l0 144 416 0 0-144L48 256zM0 208L0 48 0 0 48 0 464 0l48 0 0 48 0 160 0 48 0 144 0 48-32 0 0 64-48 0 0-64L80 448l0 64-48 0 0-64L0 448l0-48L0 256l0-48zm121.4 0l269.2 0-29.9-64-209.4 0-29.9 64zM96 320a32 32 0 1 1 64 0 32 32 0 1 1 -64 0zm288-32a32 32 0 1 1 0 64 32 32 0 1 1 0-64z"/></svg>