<svg xmlns="http://www.w3.org/2000/svg" viewBox="0 0 512 512"><!--! Font Awesome Pro 6.7.2 by @fontawesome - https://fontawesome.com License - https://fontawesome.com/license (Commercial License) Copyright 2024 Fonticons, Inc. --><defs><style>.fa-secondary{opacity:.4}</style></defs><path class="fa-secondary" d="M48 256a208 208 0 1 0 416 0A208 208 0 1 0 48 256zm73.1-50L138 161.1l22.5 8.4L220.4 192l71.3 0 59.9-22.5 22.5-8.4L390.9 206l-22.5 8.4-64 24-.4 .2 0 53.5 30.8 92.3 7.6 22.8-45.5 15.2-7.6-22.8L262.7 320l-13.4 0-26.5 79.6-7.6 22.8-45.5-15.2 7.6-22.8L208 292.1l0-53.5-.4-.2-64-24L121.1 206zM296 120a40 40 0 1 1 -80 0 40 40 0 1 1 80 0z"/><path class="fa-primary" d="M464 256A208 208 0 1 0 48 256a208 208 0 1 0 416 0zM0 256a256 256 0 1 1 512 0A256 256 0 1 1 0 256zm160.4-86.5L220.4 192l71.3 0 59.9-22.5 22.5-8.4L390.9 206l-22.5 8.4-64 24-.4 .2 0 53.5 30.8 92.3 7.6 22.8-45.5 15.2-7.6-22.8L262.7 320l-13.4 0-26.5 79.6-7.6 22.8-45.5-15.2 7.6-22.8L208 292.1l0-53.5-.4-.2-64-24L121.1 206 138 161.1l22.5 8.4zM256 80a40 40 0 1 1 0 80 40 40 0 1 1 0-80z"/></svg>