<svg xmlns="http://www.w3.org/2000/svg" viewBox="0 0 448 512"><!--! Font Awesome Pro 6.7.2 by @fontawesome - https://fontawesome.com License - https://fontawesome.com/license (Commercial License) Copyright 2024 Fonticons, Inc. --><defs><style>.fa-secondary{opacity:.4}</style></defs><path class="fa-secondary" d="M66.6 464L200 464l-14.4-19.2L128 368l-29.4 0-32 96zM144 128l0 16c0 44.2 35.8 80 80 80s80-35.8 80-80l0-16c0-11.4-2.4-22.2-6.7-32L256 96 240 80l-32 32-62.4 0c-1 5.2-1.6 10.5-1.6 16zM248 464l133.4 0-32-96L320 368l-57.6 76.8L248 464z"/><path class="fa-primary" d="M304 144c0 44.2-35.8 80-80 80s-80-35.8-80-80l0-16c0-5.5 .6-10.8 1.6-16l62.4 0 32-32 16 16 41.3 0c4.3 9.8 6.7 20.6 6.7 32l0 16zM224 0C153.3 0 96 57.3 96 128l0 16 0 48L48 240l0 32 176 0 176 0 0-32-48-48 0-48 0-16C352 57.3 294.7 0 224 0zM185.6 444.8L200 464 66.6 464l32-96 29.4 0 57.6 76.8zM381.4 464L248 464l14.4-19.2L320 368l29.4 0 32 96zM384 320l-88 0-42 56-30 40-30-40-42-56-88 0L16 464 0 512l50.6 0 346.8 0 50.6 0-16-48L384 320z"/></svg>