<svg xmlns="http://www.w3.org/2000/svg" viewBox="0 0 512 512"><!--! Font Awesome Pro 6.7.2 by @fontawesome - https://fontawesome.com License - https://fontawesome.com/license (Commercial License) Copyright 2024 Fonticons, Inc. --><defs><style>.fa-secondary{opacity:.4}</style></defs><path class="fa-secondary" d="M80 48l0 176 152 0 0-176L80 48zm0 224l0 192 152 0 0-192L80 272zM280 48l0 176 152 0 0-176L280 48zm0 224l0 192 152 0 0-192-152 0z"/><path class="fa-primary" d="M80 464l152 0 0-192L80 272l0 192zm-48 0L32 48 32 0 80 0 432 0l48 0 0 48 0 416 8 0 24 0 0 48-24 0-8 0-48 0L80 512l-48 0-8 0L0 512l0-48 24 0 8 0zm400 0l0-192-152 0 0 192 152 0zM80 224l152 0 0-176L80 48l0 176zm200 0l152 0 0-176L280 48l0 176z"/></svg>