<svg xmlns="http://www.w3.org/2000/svg" width="24" height="24" viewBox="0 0 576 512">
    <path class="pr-icon-duotone-secondary" d="M144 80l288 0 0 280-288 0 0-280zm46.1 72l17 17 47 47-47 47-17 17L224 313.9l17-17 47-47 47 47 17 17L385.9 280l-17-17-47-47 47-47 17-17L352 118.1l-17 17-47 47-47-47-17-17L190.1 152z"/>
    <path class="pr-icon-duotone-primary" d="M144 80l0 280 288 0 0-280L144 80zM96 360L96 80l0-48 48 0 288 0 48 0 0 48 0 280 24 0 0 48-24 0-48 0-288 0-48 0-24 0 0-48 24 0zM64 288l0 48-16 0 0 96 480 0 0-96-16 0 0-48 16 0 48 0 0 48 0 96 0 48-48 0L48 480 0 480l0-48 0-96 0-48 48 0 16 0zM385.9 152l-17 17-47 47 47 47 17 17L352 313.9l-17-17-47-47-47 47-17 17L190.1 280l17-17 47-47-47-47-17-17L224 118.1l17 17 47 47 47-47 17-17L385.9 152z"/>
</svg>