<svg width="24" height="24" viewBox="0 0 24 24" xmlns="http://www.w3.org/2000/svg">
<path class="pr-icon-bulk-secondary" d="M2.74817 9.94352V9.94356V14.0564V14.0564C2.74815 15.8942 2.74814 17.3498 2.9013 18.489C3.05893 19.6614 3.39105 20.6104 4.13941 21.3588C4.88778 22.1071 5.83672 22.4392 7.00915 22.5969C8.14835 22.75 9.60397 22.75 11.4417 22.75H12.5546C14.3923 22.75 15.848 22.75 16.9872 22.5969C18.1596 22.4392 19.1086 22.1071 19.8569 21.3588C20.6053 20.6104 20.9374 19.6614 21.095 18.489C21.2482 17.3498 21.2482 15.8942 21.2482 14.0565V9.94359C21.2482 8.10585 21.2482 6.65018 21.095 5.51098C20.9374 4.33856 20.6053 3.38961 19.8569 2.64124C19.1086 1.89288 18.1596 1.56076 16.9872 1.40314C15.848 1.24997 14.3924 1.24999 12.5546 1.25H12.5546H11.4418H11.4417C10.7973 1.24999 10.1998 1.24999 9.64656 1.25659L10.4894 1.9599C10.8464 2.27107 11.2641 2.65891 11.6084 3.07471C11.7816 3.28393 11.9798 3.55169 12.1431 3.86555C12.2977 4.1627 12.4982 4.64699 12.4982 5.25C12.4982 5.85302 12.2977 6.3373 12.1431 6.63445C11.9798 6.94831 11.7816 7.21608 11.6084 7.42529C11.2641 7.84109 10.8464 8.22893 10.4894 8.5401L8.87406 9.88802C7.99213 10.7195 6.60299 10.7037 5.74031 9.84079C5.1074 9.20773 4.93053 8.2914 5.20963 7.5H2.76641C2.74816 8.22717 2.74816 9.03907 2.74817 9.94352Z" fill="currentColor"/>
<path class="pr-icon-bulk-primary" fill-rule="evenodd" clip-rule="evenodd" d="M8.03852 1.54281C7.64795 1.15233 7.01478 1.15241 6.62431 1.54298C6.23383 1.93355 6.23391 2.56672 6.62448 2.95719L8.1677 4.25H3.74817C3.19588 4.25 2.74817 4.69772 2.74817 5.25C2.74817 5.80228 3.19588 6.25 3.74817 6.25H8.1677L6.62448 7.54281C6.23391 7.93328 6.23383 8.56645 6.62431 8.95702C7.01478 9.34759 7.64795 9.34767 8.03852 8.95719L9.66811 7.59777C10.0088 7.30087 10.3663 6.96545 10.6456 6.62807C10.7857 6.45888 10.9256 6.26622 11.0342 6.05751C11.1389 5.85628 11.2482 5.57635 11.2482 5.25C11.2482 4.92364 11.1389 4.64372 11.0342 4.44249C10.9256 4.23378 10.7857 4.04112 10.6456 3.87193C10.3663 3.53455 10.0088 3.19913 9.66811 2.90222L8.03852 1.54281ZM12.7501 7C12.7501 6.58579 13.0859 6.25 13.5001 6.25H17.5001C17.9143 6.25 18.2501 6.58579 18.2501 7C18.2501 7.41421 17.9143 7.75 17.5001 7.75H13.5001C13.0859 7.75 12.7501 7.41421 12.7501 7ZM12.7501 17C12.7501 16.5858 13.0859 16.25 13.5001 16.25H17.5001C17.9143 16.25 18.2501 16.5858 18.2501 17C18.2501 17.4142 17.9143 17.75 17.5001 17.75H13.5001C13.0859 17.75 12.7501 17.4142 12.7501 17ZM13.5001 11.25C13.0859 11.25 12.7501 11.5858 12.7501 12C12.7501 12.4142 13.0859 12.75 13.5001 12.75H17.5001C17.9143 12.75 18.2501 12.4142 18.2501 12C18.2501 11.5858 17.9143 11.25 17.5001 11.25H13.5001ZM11.6711 13.6648C11.8564 14.0352 11.7062 14.4857 11.3357 14.671C10.5374 15.0702 9.87922 15.9112 9.40149 16.7473C9.1699 17.1525 8.99538 17.5305 8.87904 17.8068C8.82107 17.9445 8.73979 18.1622 8.71182 18.2373C8.61339 18.5322 8.34313 18.7361 8.03253 18.7495C7.72181 18.7628 7.43509 18.583 7.31178 18.2975C7.10635 17.8219 6.82639 17.5498 6.61396 17.3976C6.50591 17.3202 6.36926 17.2434 6.2886 17.2197C5.89669 17.1045 5.66822 16.6957 5.77737 16.3005C5.88764 15.9012 6.3007 15.667 6.69997 15.7772C6.90218 15.8331 7.28695 16.0346 7.48734 16.1781C7.60283 16.2608 7.72366 16.3589 7.84498 16.4744C7.9216 16.3237 8.0063 16.1655 8.09913 16.0031C8.6214 15.0891 9.46327 13.9302 10.6649 13.3293C11.0354 13.1441 11.4859 13.2943 11.6711 13.6648Z" fill="currentColor"/>
</svg>
