<svg width="24" height="24" viewBox="0 0 24 24" xmlns="http://www.w3.org/2000/svg">
<path class="pr-icon-bulk-secondary" d="M12.0572 1.75C14.2479 1.74999 15.9686 1.74998 17.312 1.93059C18.6886 2.11568 19.7809 2.50272 20.6391 3.36091C21.4973 4.21911 21.8843 5.31137 22.0694 6.68802C22.25 8.03144 22.25 9.7521 22.25 11.9428V11.9428V12.0572V12.0572C22.25 14.2479 22.25 15.9686 22.0694 17.312C21.8843 18.6886 21.4973 19.7809 20.6391 20.6391C19.7809 21.4973 18.6886 21.8843 17.312 22.0694C15.9686 22.25 14.2479 22.25 12.0572 22.25H12.0572H11.9428H11.9428C9.7521 22.25 8.03144 22.25 6.68802 22.0694C5.31137 21.8843 4.21911 21.4973 3.36091 20.6391C2.50272 19.7809 2.11568 18.6886 1.93059 17.312C1.74998 15.9686 1.74999 14.2479 1.75 12.0572V11.9428C1.74999 9.75212 1.74998 8.03144 1.93059 6.68802C2.11568 5.31137 2.50272 4.21911 3.36091 3.36091C4.21911 2.50272 5.31137 2.11568 6.68802 1.93059C8.03144 1.74998 9.75212 1.74999 11.9428 1.75H12.0572Z" fill="currentColor"/>
<path class="pr-icon-bulk-primary" fill-rule="evenodd" clip-rule="evenodd" d="M8.75008 9.02969C8.56125 9.45472 8.35618 10.113 8.05689 11.0806L7.63328 12.45H9.86688L9.44327 11.0806C9.14398 10.113 8.9389 9.45472 8.75008 9.02969ZM10.3309 13.95L11.0336 16.2216C11.156 16.6174 11.576 16.8389 11.9717 16.7165C12.3674 16.5941 12.589 16.1741 12.4666 15.7784L10.8598 10.584C10.579 9.67625 10.3472 8.92674 10.1155 8.40859C9.99751 8.14472 9.8529 7.87734 9.6584 7.66808C9.44766 7.44136 9.14428 7.25 8.75008 7.25C8.35588 7.25 8.05249 7.44136 7.84176 7.66808C7.64726 7.87733 7.50265 8.14472 7.38466 8.40859C7.15297 8.92674 6.92114 9.67625 6.64037 10.584C6.63489 10.6017 6.6294 10.6195 6.62389 10.6373L5.03358 15.7784C4.91117 16.1741 5.13272 16.5941 5.52844 16.7165C5.92415 16.8389 6.34417 16.6174 6.46658 16.2216L7.16928 13.95H10.3309ZM16.2499 10.75C15.5595 10.75 14.9999 11.3096 14.9999 12V12.1196H17.3802C17.4463 12.1196 17.4999 12.0661 17.4999 12C17.4999 11.3096 16.9402 10.75 16.2499 10.75ZM14.9999 13.6196H17.3802C18.2747 13.6196 18.9999 12.8945 18.9999 12C18.9999 10.4812 17.7687 9.25 16.2499 9.25C14.7311 9.25 13.4999 10.4812 13.4999 12V14C13.4999 15.5188 14.7311 16.75 16.2499 16.75C17.2723 16.75 18.1635 16.1916 18.6366 15.3667C18.8427 15.0074 18.7185 14.5491 18.3591 14.343C17.9998 14.1369 17.5415 14.2612 17.3354 14.6205C17.1187 14.9982 16.7132 15.25 16.2499 15.25C15.5595 15.25 14.9999 14.6904 14.9999 14V13.6196Z" fill="currentColor"/>
</svg>
