<svg width="24" height="24" viewBox="0 0 24 24" xmlns="http://www.w3.org/2000/svg">
<path class="pr-icon-bulk-secondary" d="M12.0572 1.75C14.2479 1.74999 15.9686 1.74998 17.312 1.93059C18.6886 2.11568 19.7809 2.50272 20.6391 3.36091C21.4973 4.21911 21.8843 5.31137 22.0694 6.68802C22.25 8.03144 22.25 9.7521 22.25 11.9428V11.9428V12.0572V12.0572C22.25 14.2479 22.25 15.9686 22.0694 17.312C21.8843 18.6886 21.4973 19.7809 20.6391 20.6391C19.7809 21.4973 18.6886 21.8843 17.312 22.0694C15.9686 22.25 14.2479 22.25 12.0572 22.25H12.0572H11.9428H11.9428C9.7521 22.25 8.03144 22.25 6.68802 22.0694C5.31137 21.8843 4.21911 21.4973 3.36091 20.6391C2.50272 19.7809 2.11568 18.6886 1.93059 17.312C1.74998 15.9686 1.74999 14.2479 1.75 12.0572V11.9428C1.74999 9.75212 1.74998 8.03144 1.93059 6.68802C2.11568 5.31137 2.50272 4.21911 3.36091 3.36091C4.21911 2.50272 5.31137 2.11568 6.68802 1.93059C8.03144 1.74998 9.75212 1.74999 11.9428 1.75H12.0572Z" fill="currentColor"/>
<path fill-rule="evenodd" clip-rule="evenodd" d="M6.88451 7.61746C7.14727 7.36005 7.48957 7.25 7.82143 7.25H9.25C10.7688 7.25 12 8.48122 12 10C12 11.5188 10.7688 12.75 9.25 12.75H8V16C8 16.4142 7.66421 16.75 7.25 16.75C6.83579 16.75 6.5 16.4142 6.5 16V8.57143C6.5 8.22371 6.61933 7.87725 6.88451 7.61746ZM8 11.25H9.25C9.94036 11.25 10.5 10.6904 10.5 10C10.5 9.30964 9.94036 8.75 9.25 8.75H8V11.25ZM14.9952 10.415C14.953 10.0408 14.6355 9.75 14.25 9.75C13.8358 9.75 13.5 10.0858 13.5 10.5V16C13.5 16.4142 13.8358 16.75 14.25 16.75C14.6642 16.75 15 16.4142 15 16V12.7462C15.0567 12.6679 15.1102 12.5926 15.1621 12.5198C15.3362 12.2751 15.4909 12.0576 15.6796 11.8432C15.9488 11.5373 16.1909 11.3608 16.45 11.2891C16.5386 11.2646 16.6373 11.25 16.75 11.25C17.1642 11.25 17.5 10.9142 17.5 10.5C17.5 10.0858 17.1642 9.75 16.75 9.75C16.5041 9.75 16.2708 9.78235 16.05 9.84343C15.6307 9.95943 15.2846 10.1707 14.9952 10.415Z" fill="currentColor"/>
</svg>
