<svg width="24" height="24" viewBox="0 0 24 24" xmlns="http://www.w3.org/2000/svg">
<path class="pr-icon-bulk-secondary" d="M12.0572 1.75C14.2479 1.74999 15.9686 1.74998 17.312 1.93059C18.6886 2.11568 19.7809 2.50272 20.6391 3.36091C21.4973 4.21911 21.8843 5.31137 22.0694 6.68802C22.25 8.03144 22.25 9.7521 22.25 11.9428V11.9428V12.0572V12.0572C22.25 14.2479 22.25 15.9686 22.0694 17.312C21.8843 18.6886 21.4973 19.7809 20.6391 20.6391C19.7809 21.4973 18.6886 21.8843 17.312 22.0694C15.9686 22.25 14.2479 22.25 12.0572 22.25H12.0572H11.9428H11.9428C9.7521 22.25 8.03144 22.25 6.68802 22.0694C5.31137 21.8843 4.21911 21.4973 3.36091 20.6391C2.50272 19.7809 2.11568 18.6886 1.93059 17.312C1.74998 15.9686 1.74999 14.2479 1.75 12.0572V11.9428C1.74999 9.75212 1.74998 8.03144 1.93059 6.68802C2.11568 5.31137 2.50272 4.21911 3.36091 3.36091C4.21911 2.50272 5.31137 2.11568 6.68802 1.93059C8.03144 1.74998 9.75212 1.74999 11.9428 1.75H12.0572Z" fill="currentColor"/>
<path class="pr-icon-bulk-primary" fill-rule="evenodd" clip-rule="evenodd" d="M14.5358 11.0394C14.3159 11.2043 14.25 11.3748 14.25 11.5C14.25 11.6252 14.3159 11.7958 14.5358 11.9607C14.7559 12.1258 15.0943 12.25 15.5 12.25C16.1989 12.25 16.8604 12.4615 17.3642 12.8394C17.8682 13.2174 18.25 13.7968 18.25 14.5C18.25 15.2032 17.8682 15.7827 17.3642 16.1607C16.8604 16.5385 16.1989 16.75 15.5 16.75C14.3111 16.75 13.0832 16.1011 12.8034 14.9467C12.7059 14.5441 12.9531 14.1387 13.3557 14.0411C13.7582 13.9436 14.1636 14.1908 14.2612 14.5934C14.3205 14.838 14.7256 15.25 15.5 15.25C15.9057 15.25 16.2441 15.1258 16.4642 14.9607C16.6841 14.7958 16.75 14.6252 16.75 14.5C16.75 14.3748 16.6841 14.2043 16.4642 14.0394C16.2441 13.8743 15.9057 13.75 15.5 13.75C14.8011 13.75 14.1396 13.5385 13.6358 13.1607C13.1318 12.7827 12.75 12.2032 12.75 11.5C12.75 10.7968 13.1318 10.2174 13.6358 9.83936C14.1396 9.46154 14.8011 9.25002 15.5 9.25002C16.6854 9.25002 17.9076 9.89438 18.1936 11.0411C18.2938 11.443 18.0492 11.85 17.6473 11.9503C17.2454 12.0505 16.8384 11.8059 16.7381 11.404C16.677 11.159 16.2709 10.75 15.5 10.75C15.0943 10.75 14.7559 10.8743 14.5358 11.0394Z" fill="currentColor"/>
<path class="pr-icon-bulk-primary" fill-rule="evenodd" clip-rule="evenodd" d="M7.60096 7.25001C7.51001 7.24994 7.41559 7.24987 7.32849 7.25845C6.49763 7.34028 5.84028 7.99763 5.75845 8.82849C5.74987 8.91559 5.74994 9.01001 5.75001 9.10096L5.75002 16C5.75002 16.4142 6.08581 16.75 6.50002 16.75C6.91424 16.75 7.25002 16.4142 7.25002 16V12.75H9.00002C10.5188 12.75 11.75 11.5188 11.75 10C11.75 8.48124 10.5188 7.25002 9.00002 7.25002L7.60096 7.25001ZM9 11.25H7.25L7.25131 8.97447C7.2634 8.8566 7.3566 8.7634 7.47447 8.75131L9 8.75C9.69036 8.75 10.25 9.30964 10.25 10C10.25 10.6904 9.69036 11.25 9 11.25Z" fill="currentColor"/>
</svg>
