<svg width="24" height="24" viewBox="0 0 24 24" xmlns="http://www.w3.org/2000/svg">
<path class="pr-icon-bulk-secondary" fill-rule="evenodd" clip-rule="evenodd" d="M16.989 1.40314C15.8498 1.24997 14.3942 1.24998 12.5564 1.25H11.4436C9.60583 1.24998 8.15019 1.24997 7.01098 1.40314C5.83856 1.56076 4.88961 1.89288 4.14124 2.64124C3.39288 3.38961 3.06076 4.33856 2.90314 5.51098C2.74997 6.65019 2.74998 8.10582 2.75 9.94357V19.5C2.75 21.2949 4.20508 22.75 6 22.75H20.5C20.9142 22.75 21.25 22.4142 21.25 22C21.25 21.5858 20.9142 21.25 20.5 21.25C19.5335 21.25 18.75 20.4665 18.75 19.5C18.75 18.5335 19.5335 17.75 20.5 17.75C20.9142 17.75 21.25 17.4142 21.25 17V9.94359C21.25 8.10585 21.25 6.65018 21.0969 5.51098C20.9392 4.33856 20.6071 3.38961 19.8588 2.64124C19.1104 1.89288 18.1614 1.56076 16.989 1.40314ZM6 21.25C5.0335 21.25 4.25 20.4665 4.25 19.5C4.25 18.5335 5.0335 17.75 6 17.75H17.7609C17.4375 18.2551 17.25 18.8557 17.25 19.5C17.25 20.1443 17.4375 20.7449 17.7609 21.25H6Z" fill="currentColor"/>
<path fill-rule="evenodd" clip-rule="evenodd" d="M8.74718 7.24834C8.94823 6.62604 9.53997 6.25 10.154 6.25C10.7681 6.25 11.3599 6.62604 11.5609 7.24834L13.0216 11.7694C13.1489 12.1636 12.9326 12.5863 12.5385 12.7137C12.1443 12.841 11.7216 12.6247 11.5942 12.2306L11.2774 11.25H9.03068L8.71388 12.2306C8.58654 12.6247 8.16378 12.841 7.76963 12.7137C7.37548 12.5863 7.15918 12.1636 7.28652 11.7694L8.74718 7.24834ZM9.5153 9.75H10.7928L10.154 7.77291L9.5153 9.75ZM15.0002 6.25C15.4144 6.25 15.7502 6.58579 15.7502 7V12C15.7502 12.4142 15.4144 12.75 15.0002 12.75C14.586 12.75 14.2502 12.4142 14.2502 12V7C14.2502 6.58579 14.586 6.25 15.0002 6.25Z" fill="currentColor"/>
</svg>
