<svg width="24" height="24" viewBox="0 0 24 24" xmlns="http://www.w3.org/2000/svg">
<path class="pr-icon-bulk-secondary" d="M10.9143 1.49784C11.2826 1.35888 11.6448 1.25 11.9995 1.25C12.3542 1.25 12.7164 1.35888 13.0848 1.49784C13.4576 1.63848 13.9233 1.8452 14.504 2.103C15.3577 2.48193 16.4843 2.91682 17.6927 3.26033L17.6928 3.26035C18.5746 3.51102 19.2876 3.71368 19.8277 3.9231C20.3705 4.13358 20.8626 4.39466 21.1939 4.83324C21.5147 5.258 21.6381 5.75424 21.6948 6.28941C21.7495 6.80597 21.7495 7.45411 21.7495 8.23883V11.1833C21.7495 14.2392 20.3701 16.6624 18.7028 18.4686C17.0407 20.2691 15.0607 21.4939 13.7556 22.1827L13.6926 22.216C13.1368 22.5098 12.6825 22.75 11.9995 22.75C11.3166 22.75 10.8622 22.5098 10.3064 22.216L10.2434 22.1827C8.93834 21.4939 6.95828 20.2691 5.2962 18.4686C3.62897 16.6624 2.24951 14.2392 2.24951 11.1833V8.23885V8.23883C2.2495 7.4541 2.24948 6.80596 2.3042 6.28941C2.36089 5.75424 2.48432 5.258 2.80517 4.83324C3.13645 4.39466 3.62856 4.13358 4.17134 3.9231C4.71143 3.71367 5.42439 3.51101 6.30626 3.26034L6.30627 3.26034C7.51471 2.91682 8.64133 2.48194 9.49495 2.10302C10.0757 1.84521 10.5414 1.63848 10.9143 1.49784Z" fill="currentColor"/>
<path class="pr-icon-bulk-primary" fill-rule="evenodd" clip-rule="evenodd" d="M8.63058 8.73717C8.82709 8.14764 9.37879 7.75 10.0002 7.75C10.6216 7.75 11.1733 8.14764 11.3698 8.73717L10.6583 8.97434L11.3698 8.73717L13.2117 14.2628C13.3427 14.6558 13.1303 15.0805 12.7374 15.2115C12.3444 15.3425 11.9197 15.1301 11.7887 14.7372L11.293 13.25H8.70744L8.21172 14.7372C8.08073 15.1301 7.65599 15.3425 7.26303 15.2115C6.87008 15.0805 6.65771 14.6558 6.78869 14.2628L8.63058 8.73717ZM9.20744 11.75H10.793L10.0002 9.37171L9.20744 11.75ZM15.5002 7.75C15.9144 7.75 16.2502 8.08579 16.2502 8.5V14.5C16.2502 14.9142 15.9144 15.25 15.5002 15.25C15.086 15.25 14.7502 14.9142 14.7502 14.5V8.5C14.7502 8.08579 15.086 7.75 15.5002 7.75Z" fill="currentColor"/>
</svg>
