<svg width="24" height="24" viewBox="0 0 24 24" xmlns="http://www.w3.org/2000/svg">
<path fill-rule="evenodd" clip-rule="evenodd" d="M18.75 6.74988C18.75 5.92145 19.4216 5.24988 20.25 5.24988C21.0784 5.24988 21.75 5.92145 21.75 6.74988C21.75 7.57831 21.0784 8.24988 20.25 8.24988C20.1156 8.24988 19.9854 8.23221 19.8615 8.19907L18.5303 9.53021C18.3897 9.67086 18.1989 9.74988 18 9.74988L16 9.74988C15.5858 9.74988 15.25 9.41409 15.25 8.99988C15.25 8.58566 15.5858 8.24988 16 8.24988L17.6893 8.24988L18.8008 7.13841C18.7677 7.01449 18.75 6.88425 18.75 6.74988Z" fill="currentColor"/>
<path fill-rule="evenodd" clip-rule="evenodd" d="M15.25 14.9999C15.25 14.5857 15.5858 14.2499 16 14.2499L18 14.2499C18.1989 14.2499 18.3897 14.3289 18.5303 14.4695L19.8615 15.8007C19.9854 15.7675 20.1156 15.7499 20.25 15.7499C21.0784 15.7499 21.75 16.4215 21.75 17.2499C21.75 18.0783 21.0784 18.7499 20.25 18.7499C19.4216 18.7499 18.75 18.0783 18.75 17.2499C18.75 17.1155 18.7677 16.9853 18.8008 16.8613L17.6893 15.7499L16 15.7499C15.5858 15.7499 15.25 15.4141 15.25 14.9999Z" fill="currentColor"/>
<path fill-rule="evenodd" clip-rule="evenodd" d="M18.9507 11.2499C19.21 10.8015 19.6948 10.4999 20.25 10.4999C21.0784 10.4999 21.75 11.1715 21.75 11.9999C21.75 12.8283 21.0784 13.4999 20.25 13.4999C19.6948 13.4999 19.21 13.1982 18.9507 12.7499L12 12.7499C11.5858 12.7499 11.25 12.4141 11.25 11.9999C11.25 11.5857 11.5858 11.2499 12 11.2499L18.9507 11.2499Z" fill="currentColor"/>
<path class="pr-icon-bulk-secondary" d="M15.1076 6.93381C14.9829 6.72473 14.8328 6.52942 14.6516 6.34823C14.0497 5.74631 13.2919 5.48742 12.3918 5.3664C11.5248 5.24984 10.4225 5.24986 9.0549 5.24988H8.94512C7.57755 5.24986 6.47521 5.24984 5.60825 5.3664C4.70814 5.48742 3.95026 5.74631 3.34835 6.34823C2.74643 6.95015 2.48754 7.70802 2.36652 8.60813C2.24996 9.47509 2.24998 10.5774 2.25 11.945V12.0548C2.24998 13.4223 2.24996 14.5247 2.36652 15.3916C2.48754 16.2917 2.74643 17.0496 3.34835 17.6515C3.95026 18.2534 4.70814 18.5123 5.60825 18.6334C6.47521 18.7499 7.57753 18.7499 8.94511 18.7499H9.05487C10.4225 18.7499 11.5248 18.7499 12.3918 18.6334C13.2919 18.5123 14.0497 18.2534 14.6516 17.6515C14.8328 17.4703 14.9829 17.275 15.1076 17.0659C14.3089 16.7205 13.75 15.9254 13.75 14.9999C13.75 14.7369 13.7951 14.4845 13.878 14.2499H12C10.7574 14.2499 9.75 13.2425 9.75 11.9999C9.75 10.7572 10.7574 9.74988 12 9.74988H13.878C13.7951 9.51529 13.75 9.26286 13.75 8.99988C13.75 8.07431 14.3089 7.27927 15.1076 6.93381Z" fill="currentColor"/>
<path d="M9.0523 1.24989C9.69821 1.24986 10.2624 1.24983 10.7271 1.30111C11.2272 1.35632 11.7128 1.4792 12.1598 1.79207C12.6742 2.15207 13.0139 2.67106 13.2307 3.25588C13.393 3.69399 13.5298 4.24103 13.6863 4.86727L13.9223 5.81121C13.4713 5.57383 12.9603 5.44271 12.3927 5.3664C12.1864 5.33866 11.9667 5.31752 11.7333 5.30142C11.5749 4.66873 11.4689 4.2573 11.3553 3.95088C11.212 3.56407 11.1269 3.5071 11.0387 3.44807C11.0302 3.44237 11.0217 3.43665 11.013 3.43062C10.9436 3.38204 10.8262 3.3242 10.5076 3.28904C10.1658 3.25131 9.7131 3.2499 9.00119 3.2499C8.28927 3.2499 7.83659 3.25131 7.49473 3.28904C7.17618 3.3242 7.05875 3.38204 6.98934 3.43062C6.98072 3.43665 6.97218 3.44237 6.96368 3.44807C6.8755 3.5071 6.79041 3.56408 6.64707 3.95088C6.53351 4.25729 6.4275 4.66872 6.26911 5.30138C6.03552 5.31749 5.81568 5.33864 5.6092 5.3664C5.04187 5.44268 4.53104 5.57373 4.08015 5.81092L4.31582 4.86827C4.47245 4.2416 4.60926 3.69422 4.77171 3.25588C4.98844 2.67106 5.32817 2.15207 5.84254 1.79207C6.28957 1.4792 6.77516 1.35632 7.27532 1.30111C7.74102 1.24971 8.31457 1.2498 8.95531 1.24989L9.0523 1.24989Z" fill="currentColor"/>
<path d="M4.08008 18.1888L4.31585 19.1319C4.47246 19.7585 4.60927 20.3058 4.77171 20.7441C4.98844 21.329 5.32817 21.848 5.84255 22.208C6.28957 22.5208 6.77516 22.6437 7.27532 22.6989C7.73997 22.7502 8.30418 22.7502 8.95011 22.7501H9.05224C9.69816 22.7502 10.2624 22.7502 10.7271 22.6989C11.2272 22.6437 11.7128 22.5208 12.1598 22.208C12.6742 21.848 13.0139 21.329 13.2307 20.7442C13.3931 20.3058 13.5299 19.7585 13.6865 19.1318L13.9224 18.1885C13.4713 18.4259 12.9603 18.557 12.3927 18.6334C12.1864 18.6611 11.9667 18.6822 11.7333 18.6983C11.5749 19.3312 11.4689 19.7427 11.3553 20.0491C11.212 20.4359 11.1269 20.4929 11.0387 20.552C11.0345 20.5548 11.0303 20.5576 11.0261 20.5604C11.0217 20.5634 11.0174 20.5664 11.013 20.5694C10.9436 20.618 10.8262 20.6758 10.5076 20.711C10.1658 20.7487 9.7131 20.7501 9.00119 20.7501C8.28927 20.7501 7.83659 20.7487 7.49473 20.711C7.17618 20.6758 7.05875 20.618 6.98934 20.5694C6.98078 20.5634 6.97231 20.5577 6.96387 20.5521C6.8757 20.4931 6.79041 20.4359 6.64707 20.0491C6.5335 19.7427 6.42747 19.3312 6.26904 18.6984C6.03548 18.6823 5.81567 18.6611 5.6092 18.6334C5.04184 18.5571 4.53098 18.426 4.08008 18.1888Z" fill="currentColor"/>
</svg>
