<svg width="24" height="24" viewBox="0 0 24 24" xmlns="http://www.w3.org/2000/svg">
<path opacity="0.4" d="M11.9995 21.75C11.011 21.7513 9.80311 21.7526 9.08767 21.2495C8.37366 20.7474 8.14283 20.103 7.86298 19.3219C7.8192 19.2001 7.74283 18.9813 7.7031 18.8588L3.72039 20.6267C3.4277 20.7566 3.0848 20.6863 2.86677 20.4518C1.17519 18.6319 1.0358 16.5 1.43979 14.7436C1.83627 13.0199 2.76958 11.5721 3.39022 10.9436C3.53113 10.8009 3.72333 10.7206 3.92388 10.7206C4.12443 10.7206 4.31663 10.8009 4.45754 10.9436C5.09114 11.5853 5.76851 12.6935 6.0516 14.4403C6.0516 14.4403 6.75285 14.1741 6.88567 14.1083C6.92767 14.0927 7.01666 14.0277 7.03671 13.8925C7.06636 13.7283 7.08677 13.5027 7.11893 13.1338C7.322 10.8042 7.98737 8.57934 8.80205 6.72968C9.6125 4.88961 10.5926 3.37172 11.4616 2.47736C11.6028 2.33201 11.7968 2.25 11.9995 2.25C12.2021 2.25 12.3953 2.33201 12.5365 2.47736C13.4055 3.37172 14.3855 4.88961 15.196 6.72968C16.0107 8.57934 16.6761 10.8042 16.8791 13.1338C16.9113 13.5027 16.9317 13.7283 16.9613 13.8925C16.9814 14.0277 17.0704 14.0927 17.1124 14.1083C17.2452 14.1741 17.9464 14.4403 17.9464 14.4403C18.2295 12.6935 18.9069 11.5853 19.5405 10.9436C19.6814 10.8009 19.8736 10.7206 20.0742 10.7206C20.2747 10.7206 20.4669 10.8009 20.6078 10.9436C21.2285 11.5721 22.1618 13.0199 22.5583 14.7436C22.9623 16.5 22.8229 18.6319 21.1313 20.4518C20.9132 20.6863 20.5704 20.7566 20.2777 20.6267L16.2949 18.8588C16.2552 18.9813 16.1789 19.2001 16.1351 19.3219C15.8552 20.103 15.6244 20.7474 14.9104 21.2495C14.1949 21.7526 12.9879 21.7513 11.9995 21.75Z" fill="currentColor"/>
<path fill-rule="evenodd" clip-rule="evenodd" d="M12 9C12.5523 9 13 9.44772 13 10L13 11C13 11.5523 12.5523 12 12 12C11.4477 12 11 11.5523 11 11L11 10C11 9.44772 11.4477 9 12 9Z" fill="currentColor"/>
<path fill-rule="evenodd" clip-rule="evenodd" d="M5 3.25C5 2.69772 4.55228 2.25 4 2.25C3.44772 2.25 3 2.69772 3 3.25V4.25C3 4.80228 3.44772 5.25 4 5.25C4.55228 5.25 5 4.80228 5 4.25V3.25ZM5 7.25C5 6.69772 4.55228 6.25 4 6.25C3.44772 6.25 3 6.69772 3 7.25V8.25C3 8.80228 3.44772 9.25 4 9.25C4.55228 9.25 5 8.80228 5 8.25V7.25ZM21 3.25C21 2.69772 20.5523 2.25 20 2.25C19.4477 2.25 19 2.69772 19 3.25V4.25C19 4.80228 19.4477 5.25 20 5.25C20.5523 5.25 21 4.80228 21 4.25V3.25ZM21 7.25C21 6.69772 20.5523 6.25 20 6.25C19.4477 6.25 19 6.69772 19 7.25V8.25C19 8.80228 19.4477 9.25 20 9.25C20.5523 9.25 21 8.80228 21 8.25V7.25Z" fill="currentColor"/>
</svg>
