<svg width="24" height="24" viewBox="0 0 24 24" xmlns="http://www.w3.org/2000/svg">
    <path class="pr-icon-bulk-primary" d="M3.2632 2.14768C3.87364 2.04951 4.41956 2.28618 4.85156 2.50218L5.44705 2.79993C5.94103 3.04692 6.14126 3.64759 5.89427 4.14157C5.64728 4.63555 5.0466 4.83577 4.55263 4.58878L3.95713 4.29103C3.76703 4.19599 3.65505 4.15258 3.58683 4.13355L3.58245 4.13234L3.57882 4.13477C3.5202 4.17418 3.42732 4.25079 3.27664 4.40146C3.12597 4.55213 3.04937 4.64501 3.00995 4.70364L3.00753 4.70727L3.00873 4.71165C3.02776 4.77987 3.07117 4.89185 3.16622 5.08195L3.46396 5.67744C3.71095 6.17142 3.51073 6.77209 3.01675 7.01908C2.52277 7.26607 1.9221 7.06585 1.67511 6.57187L1.37736 5.97637C1.16136 5.54437 0.924695 4.99845 1.02286 4.38802C1.12115 3.77681 1.51765 3.33203 1.86243 2.98725C2.20721 2.64247 2.65199 2.24597 3.2632 2.14768Z" />
    <path class="pr-icon-bulk-primary" d="M20.4128 4.13355C20.3446 4.15258 20.2326 4.19599 20.0425 4.29103L19.4471 4.58878C18.9531 4.83577 18.3524 4.63555 18.1054 4.14157C17.8584 3.64759 18.0586 3.04692 18.5526 2.79993L19.1481 2.50218C19.5801 2.28618 20.126 2.04951 20.7365 2.14768C21.3477 2.24597 21.7925 2.64247 22.1372 2.98725C22.482 3.33203 22.8785 3.77681 22.9768 4.38802C23.075 4.99845 22.8383 5.54438 22.6223 5.97637L22.3246 6.57187C22.0776 7.06585 21.4769 7.26607 20.9829 7.01908C20.4889 6.77209 20.2887 6.17142 20.5357 5.67744L20.8335 5.08195C20.9285 4.89185 20.9719 4.77987 20.9909 4.71165L20.9921 4.70727L20.9897 4.70364C20.9503 4.64501 20.8737 4.55213 20.723 4.40146C20.5724 4.25079 20.4795 4.17418 20.4209 4.13477L20.4172 4.13234L20.4128 4.13355Z" />
    <path class="pr-icon-bulk-secondary" d="M2.25 13.125C2.25 7.74022 6.61522 3.375 12 3.375C17.3848 3.375 21.75 7.74022 21.75 13.125C21.75 18.5098 17.3848 22.875 12 22.875C6.61522 22.875 2.25 18.5098 2.25 13.125Z" />
    <path class="pr-icon-bulk-primary" fill-rule="evenodd" clip-rule="evenodd" d="M8.99988 2.125C8.99988 1.57272 9.44759 1.125 9.99988 1.125H13.9999C14.5522 1.125 14.9999 1.57272 14.9999 2.125C14.9999 2.67728 14.5522 3.125 13.9999 3.125H12.9999V3.42566C12.6711 3.39216 12.3375 3.375 11.9999 3.375C11.6623 3.375 11.3287 3.39216 10.9999 3.42566V3.125H9.99988C9.44759 3.125 8.99988 2.67728 8.99988 2.125ZM4.00437 18.7063L2.29277 20.4179C1.90225 20.8084 1.90225 21.4416 2.29277 21.8321C2.6833 22.2226 3.31646 22.2226 3.70698 21.8321L5.31579 20.2233C4.82875 19.7645 4.38892 19.2562 4.00437 18.7063ZM18.684 20.2233L20.2928 21.8321C20.6833 22.2226 21.3165 22.2226 21.707 21.8321C22.0975 21.4416 22.0975 20.8084 21.707 20.4179L19.9954 18.7063C19.6108 19.2562 19.171 19.7645 18.684 20.2233Z" />
    <path class="pr-icon-bulk-primary" fill-rule="evenodd" clip-rule="evenodd" d="M12 8.625C12.5523 8.625 13 9.07272 13 9.625V13.2108L14.7071 14.9179C15.0976 15.3084 15.0976 15.9416 14.7071 16.3321C14.3166 16.7226 13.6834 16.7226 13.2929 16.3321L11.2929 14.3321C11.1054 14.1446 11 13.8902 11 13.625V9.625C11 9.07272 11.4477 8.625 12 8.625Z" />
</svg>
