<svg width="24" height="24" viewBox="0 0 24 24" xmlns="http://www.w3.org/2000/svg">
<path class="pr-icon-bulk-primary" d="M23 12.0037C23 12.556 22.5523 13.0037 22 13.0037L2 13.0037C1.44772 13.0037 1 12.556 1 12.0037C1 11.4514 1.44772 11.0037 2 11.0037L22 11.0037C22.5523 11.0037 23 11.4514 23 12.0037Z" fill="currentColor"/>
<path class="pr-icon-bulk-secondary" d="M19.75 13.5353C19.75 13.9748 19.75 14.3539 19.7218 14.665C19.692 14.994 19.6259 15.3198 19.4486 15.6268C19.0708 16.2807 18.4884 16.561 17.9352 16.6736C17.5083 16.7605 17.0393 16.7559 16.6832 16.7524C16.618 16.7518 16.5566 16.7512 16.5 16.7512C16.4434 16.7512 16.382 16.7518 16.3168 16.7524C15.9607 16.7559 15.4917 16.7605 15.0648 16.6736C14.5116 16.561 13.9292 16.2807 13.5514 15.6268C13.3741 15.3198 13.308 14.994 13.2782 14.665C13.25 14.3539 13.25 13.9748 13.25 13.5352L13.25 10.4726C13.25 10.033 13.25 9.65391 13.2782 9.3428C13.308 9.0138 13.3741 8.68804 13.5514 8.381C13.9292 7.72712 14.5116 7.44679 15.0648 7.33418C15.4917 7.24727 15.9607 7.2519 16.3168 7.25541C16.382 7.25605 16.4434 7.25665 16.5 7.25665C16.5566 7.25665 16.618 7.25605 16.6832 7.25541C17.0393 7.2519 17.5083 7.24727 17.9352 7.33418C18.4884 7.44679 19.0708 7.72712 19.4486 8.381C19.6259 8.68804 19.692 9.0138 19.7218 9.3428C19.75 9.6539 19.75 10.033 19.75 10.4725L19.75 10.4726L19.75 13.5352L19.75 13.5353Z" fill="currentColor"/>
<path class="pr-icon-bulk-secondary" d="M10.75 17.5344C10.75 17.9741 10.75 18.3533 10.7218 18.6645C10.692 18.9935 10.6259 19.3194 10.4486 19.6265C10.0708 20.2806 9.48842 20.561 8.93523 20.6736C8.50827 20.7605 8.03925 20.7559 7.68318 20.7524C7.61802 20.7518 7.55664 20.7512 7.5 20.7512C7.44335 20.7512 7.38198 20.7518 7.31682 20.7524C6.96075 20.7559 6.49173 20.7605 6.06477 20.6736C5.51157 20.561 4.92918 20.2806 4.55144 19.6265C4.37407 19.3194 4.30801 18.9935 4.27818 18.6645C4.24997 18.3533 4.24998 17.974 4.25 17.5344L4.25 6.47342C4.24998 6.03377 4.24997 5.65454 4.27818 5.34335C4.30802 5.01427 4.37407 4.68842 4.55144 4.3813C4.92918 3.72724 5.51157 3.44684 6.06477 3.3342C6.49173 3.24727 6.96075 3.2519 7.31682 3.25541C7.38198 3.25605 7.44335 3.25666 7.5 3.25666C7.55664 3.25666 7.61802 3.25605 7.68318 3.25541C8.03925 3.2519 8.50827 3.24727 8.93523 3.3342C9.48842 3.44684 10.0708 3.72724 10.4486 4.3813C10.6259 4.68842 10.692 5.01427 10.7218 5.34335C10.75 5.65454 10.75 6.03375 10.75 6.47338L10.75 6.47342L10.75 17.5344L10.75 17.5344Z" fill="currentColor"/>
</svg>
