<svg width="24" height="24" viewBox="0 0 24 24" xmlns="http://www.w3.org/2000/svg">
<path class="pr-icon-bulk-secondary" fill-rule="evenodd" clip-rule="evenodd" d="M9.96418 10.6389C10.1227 11.168 9.82243 11.7254 9.2934 11.8839C8.99441 11.9736 8.61748 12.1304 8.26562 12.3273C7.90164 12.531 7.63879 12.7362 7.50527 12.8941L7.49395 12.9073C7.1147 13.3402 7 13.6737 7 14.0004V21.0004C7 21.5527 6.55228 22.0004 6 22.0004C5.44772 22.0004 5 21.5527 5 21.0004V14.0004C5 13.0717 5.37755 12.2901 5.98411 11.5956C6.33813 11.1797 6.83164 10.8379 7.28893 10.582C7.76088 10.3179 8.27227 10.1021 8.71916 9.96815C9.24819 9.80958 9.8056 10.1099 9.96418 10.6389Z" fill="currentColor"/>
<path class="pr-icon-bulk-primary" fill-rule="evenodd" clip-rule="evenodd" d="M11.9603 4C10.8487 4 9.94394 4.20817 9.21271 4.58465L9.20386 4.58921C7.95705 5.2155 7.0011 6.41733 7 7.80607C7.00001 7.80657 7.00001 7.80727 7.00003 7.80818L7.00055 7.83155C7.00122 7.85447 7.00265 7.89084 7.00568 7.93723C7.01184 8.03149 7.02413 8.15941 7.04779 8.29586C7.07195 8.43517 7.10448 8.56275 7.14376 8.66442C7.18083 8.7604 7.2089 8.79411 7.20861 8.79435C7.20858 8.79438 7.20809 8.79387 7.20711 8.79289C7.26339 8.84917 7.31274 8.91197 7.35413 8.97995C7.40497 9.06344 7.60975 9.24101 8.08755 9.46626C8.29962 9.56624 8.52526 9.65791 8.75369 9.74764C8.79936 9.76559 8.84648 9.78395 8.89423 9.80256C9.06987 9.87102 9.25399 9.94278 9.40587 10.009C9.91214 10.2297 10.1437 10.819 9.92298 11.3253C9.70229 11.8315 9.11298 12.0631 8.6067 11.8424C8.49441 11.7934 8.36172 11.7417 8.19466 11.6765C8.14095 11.6556 8.08369 11.6332 8.02242 11.6092C7.78527 11.516 7.50911 11.4047 7.23472 11.2753C6.76551 11.0541 6.1062 10.6956 5.70918 10.1178C5.28825 9.63927 5.14016 9.00061 5.07721 8.63761C5.03837 8.41368 5.01941 8.21246 5.00994 8.06768C5.00516 7.99455 5.00269 7.93393 5.0014 7.88973C5.00076 7.86759 5.00041 7.84944 5.00022 7.83576L5.00004 7.81862L5.00001 7.81265L5 7.81033L5 7.80889C5 7.80868 5 7.80847 6 7.80847L5 7.80889C5 5.45811 6.58718 3.66713 8.30164 2.80421C9.37071 2.25483 10.6013 2 11.9603 2C13.1623 2 14.2954 2.22511 15.3473 2.68554C17.7968 3.71187 19 6.14418 19 8.71573V21C19 21.5523 18.5523 22 18 22C17.4477 22 17 21.5523 17 21V8.71573C17 6.73095 16.0971 5.16535 14.5687 4.52776L14.5516 4.52046C13.7692 4.17691 12.9095 4 11.9603 4Z" fill="currentColor"/>
</svg>
