<svg width="24" height="24" viewBox="0 0 24 24" xmlns="http://www.w3.org/2000/svg">
<path class="pr-icon-bulk-secondary" d="M12.0572 1.75C14.2479 1.74999 15.9686 1.74998 17.312 1.93059C18.6886 2.11568 19.7809 2.50272 20.6391 3.36091C21.4973 4.21911 21.8843 5.31137 22.0694 6.68802C22.25 8.03144 22.25 9.7521 22.25 11.9428V11.9428V12.0572V12.0572C22.25 14.2479 22.25 15.9686 22.0694 17.312C21.8843 18.6886 21.4973 19.7809 20.6391 20.6391C19.7809 21.4973 18.6886 21.8843 17.312 22.0694C15.9686 22.25 14.2479 22.25 12.0572 22.25H12.0572H11.9428H11.9428C9.7521 22.25 8.03144 22.25 6.68802 22.0694C5.31137 21.8843 4.21911 21.4973 3.36091 20.6391C2.50272 19.7809 2.11568 18.6886 1.93059 17.312C1.74998 15.9686 1.74999 14.2479 1.75 12.0572V11.9428C1.74999 9.75212 1.74998 8.03144 1.93059 6.68802C2.11568 5.31137 2.50272 4.21911 3.36091 3.36091C4.21911 2.50272 5.31137 2.11568 6.68802 1.93059C8.03144 1.74998 9.75212 1.74999 11.9428 1.75H12.0572Z" fill="currentColor"/>
<path fill-rule="evenodd" clip-rule="evenodd" d="M7 15.25C7.41421 15.25 7.75 15.5858 7.75 16L7.75 18C7.75 18.4142 7.41421 18.75 7 18.75C6.58579 18.75 6.25 18.4142 6.25 18L6.25 16C6.25 15.5858 6.58579 15.25 7 15.25Z" fill="currentColor"/>
<path fill-rule="evenodd" clip-rule="evenodd" d="M12 14.25C12.4142 14.25 12.75 14.5858 12.75 15L12.75 18C12.75 18.4142 12.4142 18.75 12 18.75C11.5858 18.75 11.25 18.4142 11.25 18L11.25 15C11.25 14.5858 11.5858 14.25 12 14.25Z" fill="currentColor"/>
<path fill-rule="evenodd" clip-rule="evenodd" d="M17 12.25C17.4142 12.25 17.75 12.5858 17.75 13L17.75 18C17.75 18.4142 17.4142 18.75 17 18.75C16.5858 18.75 16.25 18.4142 16.25 18L16.25 13C16.25 12.5858 16.5858 12.25 17 12.25Z" fill="currentColor"/>
<path fill-rule="evenodd" clip-rule="evenodd" d="M16.6447 5.41952C16.3693 5.26295 16.0902 5.24173 15.8589 5.25228C15.6546 5.2616 15.4162 5.30098 15.1788 5.34021C15.1677 5.34203 15.1566 5.34386 15.1456 5.34568L13.8779 5.55478C13.4692 5.6222 13.1926 6.00815 13.26 6.41685C13.3274 6.82554 13.7134 7.1022 14.1221 7.03478L14.8459 6.91538C12.9634 9.5578 9.95263 10.75 6 10.75C5.58579 10.75 5.25 11.0858 5.25 11.5C5.25 11.9142 5.58579 12.25 6 12.25C10.322 12.25 13.8986 10.9059 16.1323 7.69448L16.279 8.20656C16.3931 8.60476 16.8084 8.83508 17.2066 8.721C17.6048 8.60692 17.8351 8.19164 17.721 7.79345L17.4029 6.68297C17.3996 6.67158 17.3963 6.66011 17.393 6.64858C17.335 6.44566 17.2714 6.22344 17.1891 6.04105C17.0889 5.81911 16.9304 5.58187 16.6447 5.41952Z" fill="currentColor"/>
</svg>
