<svg width="24" height="24" viewBox="0 0 24 24" xmlns="http://www.w3.org/2000/svg">
<path class="pr-icon-bulk-secondary" fill-rule="evenodd" clip-rule="evenodd" d="M20 10C20.5523 10 21 10.4477 21 11V17C21 17.5523 20.5523 18 20 18C19.4477 18 19 17.5523 19 17V11C19 10.4477 19.4477 10 20 10Z" fill="currentColor"/>
<path class="pr-icon-bulk-secondary" fill-rule="evenodd" clip-rule="evenodd" d="M4 10C4.55228 10 5 10.4477 5 11V17C5 17.5523 4.55228 18 4 18C3.44772 18 3 17.5523 3 17V11C3 10.4477 3.44772 10 4 10Z" fill="currentColor"/>
<path class="pr-icon-bulk-secondary" fill-rule="evenodd" clip-rule="evenodd" d="M7.9 1.20006C8.34183 0.868688 8.96863 0.958231 9.3 1.40006L10.8 3.40006C11.1314 3.84189 11.0418 4.46869 10.6 4.80006C10.1582 5.13143 9.53137 5.04189 9.2 4.60006L7.7 2.60006C7.36863 2.15823 7.45817 1.53143 7.9 1.20006ZM16.1 1.20006C16.5418 1.53143 16.6314 2.15823 16.3 2.60006L14.8 4.60006C14.4686 5.04189 13.8418 5.13143 13.4 4.80006C12.9582 4.46869 12.8686 3.84189 13.2 3.40006L14.7 1.40006C15.0314 0.958231 15.6582 0.868688 16.1 1.20006Z" fill="currentColor"/>
<path class="pr-icon-bulk-primary" d="M6.7956 9.25C6.29466 9.25 6.04419 9.25 5.89412 9.06543C5.74405 8.88087 5.79006 8.66007 5.88208 8.21847C6.4733 5.38139 8.98803 3.25 12.0006 3.25C15.0131 3.25 17.5279 5.38139 18.1191 8.21847C18.2111 8.66007 18.2571 8.88087 18.107 9.06543C17.957 9.25 17.7065 9.25 17.2056 9.25H6.7956Z" fill="currentColor"/>
<path class="pr-icon-bulk-secondary" fill-rule="evenodd" clip-rule="evenodd" d="M10 19.75V22C10 22.5523 9.55229 23 9 23C8.44772 23 8 22.5523 8 22V19.715C7.91478 19.7077 7.83279 19.699 7.75416 19.6884C7.26253 19.6223 6.79126 19.4732 6.40902 19.091C6.02677 18.7087 5.87771 18.2375 5.81161 17.7458C5.74994 17.2871 5.74997 16.7142 5.75 16.0494V16.0494L5.75001 11.75C5.75001 11.2786 5.75001 11.0429 5.89645 10.8964C6.0429 10.75 6.2786 10.75 6.75001 10.75L17.25 10.75C17.7214 10.75 17.9571 10.75 18.1036 10.8964C18.25 11.0429 18.25 11.2786 18.25 11.75L18.25 16.0494V16.0494C18.25 16.7143 18.2501 17.2871 18.1884 17.7458C18.1223 18.2375 17.9732 18.7087 17.591 19.091C17.2088 19.4732 16.7375 19.6223 16.2459 19.6884C16.1672 19.699 16.0852 19.7077 16 19.715V22C16 22.5523 15.5523 23 15 23C14.4477 23 14 22.5523 14 22V19.75L10 19.75Z" fill="currentColor"/>
</svg>
