<svg width="24" height="24" viewBox="0 0 24 24" xmlns="http://www.w3.org/2000/svg">
<path opacity="0.4" d="M9.95367 3.25195H12.0463C13.8242 3.25193 15.2572 3.25191 16.3843 3.40353C17.5544 3.56095 18.5397 3.89772 19.3221 4.6807C20.1046 5.46369 20.4412 6.44954 20.5985 7.62041C20.75 8.74818 20.75 10.1821 20.75 11.9611V12.9971C20.75 13.5352 20.3137 13.9715 19.7756 13.9715C19.2374 13.9715 18.8012 13.5352 18.8012 12.9971V11.5324C18.8012 10.6564 18.8007 9.90463 18.7866 9.25195H3.21575C3.20163 9.90463 3.20117 10.6564 3.20117 11.5324V13.9715C3.20117 15.8387 3.20324 17.1409 3.33526 18.1235C3.46351 19.078 3.69809 19.5835 4.05789 19.9435C4.41768 20.3035 4.92282 20.5382 5.87673 20.6666C6.85868 20.7987 8.16013 20.8007 10.0262 20.8007H11.0006C11.5394 20.8007 11.9762 21.2375 11.9762 21.7763C11.9762 22.3152 11.5394 22.752 11.0006 22.752H9.9537C8.17582 22.752 6.74279 22.752 5.61573 22.6004C4.44559 22.443 3.46035 22.1062 2.67786 21.3232C1.89537 20.5402 1.55881 19.5544 1.40148 18.3835C1.24996 17.2558 1.24998 15.8218 1.25 14.0429V11.961C1.24998 10.1821 1.24996 8.74815 1.40148 7.62041C1.55881 6.44954 1.89537 5.46369 2.67786 4.6807C3.46035 3.89772 4.44559 3.56095 5.61573 3.40353C6.74277 3.25191 8.17584 3.25193 9.95367 3.25195Z" fill="currentColor"/>
<path fill-rule="evenodd" clip-rule="evenodd" d="M6 1.25195C6.55228 1.25195 7 1.69967 7 2.25195V3.29154C6.49505 3.31378 6.03428 3.34918 5.61573 3.40548C5.40442 3.43391 5.19914 3.46819 5 3.50988V2.25195C5 1.69967 5.44772 1.25195 6 1.25195ZM16.3843 3.40548C16.5956 3.43391 16.8009 3.46819 17 3.50988V2.25195C17 1.69967 16.5523 1.25195 16 1.25195C15.4477 1.25195 15 1.69967 15 2.25195V3.29153C15.505 3.31378 15.9657 3.34918 16.3843 3.40548ZM22.0841 16.6929C22.6047 16.5085 22.8773 15.937 22.6929 15.4164C22.5085 14.8958 21.937 14.6233 21.4164 14.8076C20.5383 15.1186 19.6989 15.7118 18.9622 16.3578C18.2152 17.0129 17.5169 17.7735 16.9236 18.4847C16.532 18.954 16.1809 19.4083 15.886 19.8065C15.652 19.4807 15.407 19.2179 15.1741 19.0087C14.907 18.769 14.6601 18.6033 14.4701 18.494C14.3859 18.4455 14.2111 18.3646 14.1288 18.3266C14.1182 18.3217 14.1092 18.3175 14.102 18.3142C13.585 18.1199 13.0084 18.3815 12.8142 18.8985C12.6221 19.4098 12.8758 19.9793 13.3814 20.1798C13.4647 20.2277 13.6863 20.3608 13.8378 20.4968C14.1357 20.7643 14.5325 21.2432 14.7998 22.061C14.92 22.4288 15.2416 22.6942 15.6256 22.7425C16.0094 22.7907 16.3868 22.613 16.5943 22.2865C16.6823 22.1544 16.9425 21.7641 17.1077 21.5301C17.4387 21.0611 17.9075 20.4274 18.4593 19.7659C19.0131 19.1021 19.6382 18.4251 20.2809 17.8615C20.934 17.2888 21.5505 16.8819 22.0841 16.6929Z" fill="currentColor"/>
</svg>
