<svg width="24" height="24" viewBox="0 0 24 24" xmlns="http://www.w3.org/2000/svg">
<path class="pr-icon-bulk-secondary" fill-rule="evenodd" clip-rule="evenodd" d="M2 12C2 11.4477 2.44772 11 3 11L21 11C21.5523 11 22 11.4477 22 12C22 12.5523 21.5523 13 21 13L3 13C2.44772 13 2 12.5523 2 12Z" fill="currentColor"/>
<path d="M5.29193 8.30917C5.56957 8.42649 5.75 8.69861 5.75 9.00002V15C5.75 15.3014 5.56957 15.5736 5.29193 15.6909C5.01429 15.8082 4.69339 15.7479 4.47726 15.5378C4.36071 15.4246 4.13501 15.2441 3.81197 14.9904C3.52107 14.7621 3.11067 14.4399 2.78758 14.1661C2.44084 13.8723 2.08603 13.5478 1.81244 13.2266C1.67538 13.0657 1.54343 12.888 1.44275 12.6999C1.34525 12.5177 1.25 12.2758 1.25 12C1.25 11.7242 1.34525 11.4824 1.44275 11.3002C1.54343 11.112 1.67538 10.9344 1.81244 10.7734C2.08603 10.4522 2.44084 10.1277 2.78758 9.8339C3.11067 9.56013 3.52108 9.23797 3.81197 9.00963C4.13501 8.7559 4.36071 8.57549 4.47726 8.46221C4.69339 8.25213 5.01429 8.19185 5.29193 8.30917Z" fill="currentColor"/>
<path d="M18.7081 8.30917C18.9857 8.19185 19.3066 8.25213 19.5227 8.46221C19.6393 8.57549 19.865 8.7559 20.188 9.00963C20.4789 9.23797 20.8893 9.56014 21.2124 9.8339C21.5592 10.1277 21.914 10.4522 22.1876 10.7734C22.3246 10.9344 22.4566 11.112 22.5572 11.3002C22.6547 11.4824 22.75 11.7242 22.75 12C22.75 12.2758 22.6547 12.5177 22.5573 12.6999C22.4566 12.888 22.3246 13.0657 22.1876 13.2266C21.914 13.5478 21.5592 13.8723 21.2124 14.1661C20.8893 14.4399 20.4789 14.7621 20.188 14.9904C19.865 15.2441 19.6393 15.4246 19.5227 15.5378C19.3066 15.7479 18.9857 15.8082 18.7081 15.6909C18.4304 15.5736 18.25 15.3014 18.25 15V9.00002C18.25 8.69861 18.4304 8.42649 18.7081 8.30917Z" fill="currentColor"/>
</svg>
