<svg width="24" height="24" viewBox="0 0 24 24" xmlns="http://www.w3.org/2000/svg">
    <path class="pr-icon-bulk-secondary" d="M8.19486 5.40705C8.52237 4.96235 9.14837 4.86736 9.59306 5.19488C9.93847 5.44927 10.2668 5.70372 10.5528 5.92689C11.1236 6.3724 11.8882 6.98573 12.6556 7.65208C13.4181 8.31412 14.2064 9.04815 14.8119 9.73344C15.1136 10.0749 15.3911 10.4279 15.5986 10.7721C15.7895 11.0888 16 11.524 16 12.0001C16 12.4762 15.7895 12.9115 15.5986 13.2282C15.3911 13.5724 15.1136 13.9253 14.8119 14.2668C14.2064 14.9521 13.4181 15.6861 12.6556 16.3482C11.8882 17.0145 11.1236 17.6278 10.5528 18.0734C10.2668 18.2965 9.93847 18.551 9.59307 18.8054C9.14837 19.1329 8.52237 19.0379 8.19486 18.5932C8.0632 18.4144 7.99983 18.2064 8.00001 18.0002L8 12.0001L8 6.00007C7.99983 5.79387 8.0632 5.58581 8.19486 5.40705Z" />
    <path class="pr-icon-bulk-primary" d="M14.8119 9.73344C15.1136 10.0749 15.3911 10.4279 15.5986 10.7721C15.7895 11.0888 16 11.524 16 12.0001C16 12.4762 15.7895 12.9115 15.5986 13.2282C15.3911 13.5724 15.1136 13.9253 14.8119 14.2668C14.2064 14.9521 13.4181 15.6861 12.6556 16.3482C11.8882 17.0145 11.1236 17.6278 10.5528 18.0734C10.2668 18.2965 9.93847 18.551 9.59307 18.8054C9.14837 19.1329 8.52237 19.0379 8.19486 18.5932C8.0632 18.4144 7.99983 18.2064 8.00001 18.0002L8 13L13.0509 8C13.6843 8.56556 14.3107 9.1662 14.8119 9.73344Z" />
</svg>
