<svg width="24" height="24" viewBox="0 0 24 24" xmlns="http://www.w3.org/2000/svg">
<path fill-rule="evenodd" clip-rule="evenodd" d="M16.4571 15.15C15.1829 15.15 14.15 16.1829 14.15 17.4571C14.15 18.7313 15.1829 19.7643 16.4571 19.7643C17.7313 19.7643 18.7643 18.7313 18.7643 17.4571C18.7643 16.1829 17.7313 15.15 16.4571 15.15ZM12.25 17.4571C12.25 15.1336 14.1336 13.25 16.4571 13.25C18.7807 13.25 20.6643 15.1336 20.6643 17.4571C20.6643 18.2748 20.431 19.0381 20.0274 19.6839L21.4718 21.1282C21.8427 21.4992 21.8427 22.1008 21.4718 22.4718C21.1008 22.8427 20.4992 22.8427 20.1282 22.4718L18.6839 21.0274C18.0381 21.431 17.2748 21.6643 16.4571 21.6643C14.1336 21.6643 12.25 19.7807 12.25 17.4571Z" fill="currentColor"/>
<path class="pr-icon-bulk-secondary" d="M15.489 1.40314C14.3498 1.24997 12.8942 1.24998 11.0564 1.25C9.21867 1.24998 7.65019 1.24997 6.51098 1.40314C5.33856 1.56076 4.38961 1.89288 3.64124 2.64124C2.89288 3.38961 2.56076 4.33856 2.40314 5.51098C2.24997 6.65019 2.24998 8.10582 2.25 9.94357V14.0564C2.24998 15.8942 2.24997 17.3498 2.40314 18.489C2.56076 19.6614 2.89288 20.6104 3.64124 21.3588C4.38961 22.1071 5.33856 22.4392 6.51098 22.5969C7.65019 22.75 9.21865 22.75 11.0564 22.75C12.2685 22.75 13.3144 22.75 14.2129 22.7061C12.1766 21.8343 10.75 19.8123 10.75 17.4571C10.75 14.3052 13.3052 11.75 16.4571 11.75C17.6836 11.75 18.8196 12.1368 19.75 12.7952V9.94359C19.75 8.10585 19.75 6.65018 19.5969 5.51098C19.4392 4.33856 19.1071 3.38961 18.3588 2.64124C17.6104 1.89288 16.6614 1.56076 15.489 1.40314Z" fill="currentColor"/>
<path fill-rule="evenodd" clip-rule="evenodd" d="M6.25 7C6.25 6.58579 6.58579 6.25 7 6.25H15C15.4142 6.25 15.75 6.58579 15.75 7C15.75 7.41421 15.4142 7.75 15 7.75H7C6.58579 7.75 6.25 7.41421 6.25 7ZM6.25 11C6.25 10.5858 6.58579 10.25 7 10.25H11C11.4142 10.25 11.75 10.5858 11.75 11C11.75 11.4142 11.4142 11.75 11 11.75H7C6.58579 11.75 6.25 11.4142 6.25 11Z" fill="currentColor"/>
</svg>
