<svg width="24" height="24" viewBox="0 0 24 24" xmlns="http://www.w3.org/2000/svg">
    <path class="pr-icon-bulk-primary" fill-rule="evenodd" clip-rule="evenodd" d="M10.5575 4.10418C11.0522 3.85871 11.6523 4.06078 11.8977 4.55552C12.4603 5.68931 12.9604 6.42047 13.7593 7.34695C14.1199 7.76522 14.0732 8.39666 13.655 8.75731C13.2367 9.11797 12.6053 9.07127 12.2446 8.653C11.3444 7.60902 10.7485 6.73905 10.1061 5.44444C9.86066 4.9497 10.0627 4.34965 10.5575 4.10418Z" />
    <path class="pr-icon-bulk-primary" d="M14.9123 15.546C15.5499 16.5391 16.0869 17.3755 16.4007 18.0663C16.7221 18.7741 16.9388 19.6043 16.5139 20.4193C16.0843 21.2433 15.2767 21.522 14.5165 21.6379C13.7805 21.7501 12.8043 21.7501 11.6521 21.75H11.652L2.21887 21.75C1.68386 21.75 1.25015 21.3135 1.25015 20.775C1.25015 20.2365 1.68386 19.8 2.21887 19.8H11.5716C12.8262 19.8 13.6531 19.7973 14.2264 19.7099C14.503 19.6677 14.6512 19.6145 14.7276 19.5735C14.7625 19.5567 14.8277 19.4988 14.8098 19.4014C14.7999 19.3043 14.7584 19.1409 14.6386 18.8769C14.3908 18.3314 13.934 17.6152 13.2426 16.5383L9.07061 10.0401C8.71746 10.3539 8.21193 10.6081 7.55488 10.5205C6.88117 10.4306 6.40938 10.0055 6.1518 9.77128C5.87572 9.51993 5.70081 9.36918 5.60475 9.33085C5.55057 9.35247 5.47734 9.41093 5.22276 9.63763C5.02668 9.81236 4.66358 10.136 4.15857 10.2682C3.46667 10.4494 2.72691 10.2354 2.23917 9.70394C1.8728 9.30472 1.68762 8.78351 1.57548 8.41546C1.57548 8.41546 1.33768 7.54585 1.30126 7.43751C1.21843 7.19112 1.23685 6.92162 1.35242 6.68897C1.60343 6.18248 2.12308 5.13399 2.68794 4.27744C2.98661 3.82454 3.33655 3.35924 3.72095 2.99529C4.07763 2.65758 4.61549 2.26101 5.28372 2.25023C5.9825 2.23895 6.4649 2.64913 6.79253 3.0251C7.1009 3.37896 7.423 3.88079 7.77664 4.43176L7.77665 4.43178L14.9122 15.546L14.9123 15.546Z" />
    <path class="pr-icon-bulk-secondary" d="M19.7723 21.6226C19.1518 21.7428 18.5055 21.75 17.9523 21.75L13.75 21.7141C14.0281 21.6976 14.2843 21.6733 14.5166 21.6379C15.2769 21.522 16.0844 21.2433 16.514 20.4193C16.9389 19.6043 16.7222 18.7741 16.4008 18.0663C16.087 17.3754 15.5501 16.5391 14.9124 15.546L11.9394 10.9154C12.3624 10.6823 12.8233 10.5299 13.2465 10.4309C13.8073 10.2996 14.354 10.25 14.7623 10.25C17.1638 10.25 19.2819 12.0469 19.4784 14.3597C21.3045 14.683 22.7503 16.1874 22.7503 18.0791C22.7503 19.1239 22.302 20.0621 21.5943 20.7386C21.0549 21.2541 20.4014 21.5008 19.7723 21.6226Z" />
</svg>
