<svg width="24" height="24" viewBox="0 0 24 24" xmlns="http://www.w3.org/2000/svg">
<path class="pr-icon-bulk-secondary" d="M10.6233 1.5798C11.0792 1.37809 11.5154 1.25 12 1.25C12.4846 1.25 12.9208 1.37809 13.3767 1.5798C13.8104 1.77167 14.3086 2.05237 14.9109 2.39171L14.9109 2.39172L16.7241 3.41326L16.7241 3.41327C17.3495 3.76558 17.8664 4.05678 18.2683 4.33905C18.6907 4.63574 19.0357 4.9553 19.2886 5.38845C19.5415 5.82152 19.6504 6.27911 19.7014 6.79307C19.75 7.28218 19.75 7.87606 19.75 8.59479V10.4052C19.75 11.1239 19.75 11.7178 19.7014 12.2069C19.6504 12.7209 19.5415 13.1785 19.2886 13.6116C19.0357 14.0447 18.6907 14.3643 18.2683 14.661C17.8664 14.9432 17.3495 15.2344 16.7242 15.5867L14.9109 16.6083L14.9109 16.6083C14.3086 16.9476 13.8104 17.2283 13.3767 17.4202C12.9208 17.6219 12.4846 17.75 12 17.75C11.5154 17.75 11.0792 17.6219 10.6233 17.4202C10.1896 17.2283 9.6914 16.9476 9.08909 16.6083L7.27593 15.5868C6.65053 15.2344 6.13362 14.9432 5.7317 14.661C5.30927 14.3643 4.96433 14.0447 4.71141 13.6116C4.45852 13.1785 4.34961 12.7209 4.29856 12.2069C4.24998 11.7178 4.24999 11.1239 4.25 10.4052V10.4052V8.5948V8.59478C4.24999 7.87605 4.24998 7.28217 4.29856 6.79307C4.34961 6.27911 4.45852 5.82152 4.71141 5.38845C4.96433 4.9553 5.30927 4.63574 5.7317 4.33905C6.13361 4.05678 6.65051 3.76558 7.27589 3.41326L7.2759 3.41326L9.0891 2.39173C9.69141 2.05238 10.1896 1.77167 10.6233 1.5798Z" fill="currentColor"/>
<path d="M15.9538 7.19998C16.1197 7.72678 15.8271 8.28827 15.3003 8.45412C14.5122 8.70221 13.5415 9.52207 12.6851 10.4346C12.2785 10.8678 11.5581 11.7738 11.3138 12.0814C11.1149 12.3595 10.7874 12.5173 10.446 12.4988C10.1045 12.4803 9.79609 12.2886 9.62842 11.9905C9.32472 11.4506 9.03125 11.207 8.89501 11.1615C8.39207 11.109 8 10.6838 8 10.1669C8 9.61465 8.44772 9.16693 9 9.16693C9.42578 9.16693 9.75281 9.33954 9.97855 9.47331C10.1516 9.57588 10.3297 9.70763 10.5084 9.87499C10.7173 9.62684 10.9596 9.35054 11.2267 9.06594C12.0909 8.14513 13.3701 6.96499 14.6997 6.54642C15.2265 6.38058 15.788 6.67319 15.9538 7.19998Z" fill="currentColor"/>
<path d="M6.06835 14.8839L5.45551 17.819C5.25142 18.7963 5.08018 19.6163 5.02254 20.251C4.96723 20.8602 4.97562 21.6313 5.50248 22.2135C5.77824 22.5182 6.13674 22.6996 6.54193 22.741C6.90507 22.7782 7.24788 22.697 7.52839 22.6018C8.05151 22.4242 8.692 22.0735 9.39254 21.6899L11.744 20.4028C11.8211 20.3515 12.0316 20.2796 12.2566 20.4028L14.608 21.6899C15.3086 22.0735 15.9491 22.4242 16.4722 22.6018C16.7527 22.697 17.0955 22.7782 17.4587 22.741C17.8638 22.6996 18.2223 22.5182 18.4981 22.2135C19.025 21.6313 19.0334 20.8602 18.978 20.251C18.9204 19.6163 18.7492 18.7963 18.5451 17.819L17.9322 14.8835C17.5907 15.0986 17.1872 15.3259 16.7242 15.5868L16.1083 15.9337L16.5741 18.1646C16.7948 19.2218 16.9404 19.9269 16.9862 20.4319C16.9947 20.5253 16.9987 20.6023 16.9998 20.6654C16.6698 20.535 16.2078 20.2855 15.4903 19.8928L13.1907 18.6341C13.0323 18.5473 12.8598 18.4528 12.7016 18.3843C12.5173 18.3046 12.2829 18.2275 12.0003 18.2275C11.7177 18.2275 11.4832 18.3046 11.299 18.3843C11.1408 18.4528 10.9683 18.5473 10.8099 18.6341L8.51023 19.8928C7.79276 20.2855 7.33078 20.535 7.00081 20.6654C7.00193 20.6023 7.00587 20.5253 7.01434 20.4319C7.06021 19.9269 7.20576 19.2218 7.42649 18.1646L7.89222 15.934L7.27593 15.5868C6.81311 15.3261 6.4097 15.0988 6.06835 14.8839Z" fill="currentColor"/>
</svg>
