<svg width="24" height="24" viewBox="0 0 24 24" xmlns="http://www.w3.org/2000/svg">
<path class="pr-icon-bulk-secondary" d="M3.75 9.49927C3.75 4.94292 7.44365 1.24927 12 1.24927C16.5563 1.24927 20.25 4.94292 20.25 9.49927C20.25 14.0556 16.5563 17.7493 12 17.7493C7.44365 17.7493 3.75 14.0556 3.75 9.49927Z" fill="currentColor"/>
<path class="pr-icon-bulk-primary" d="M15.9538 7.20023C16.1197 7.72702 15.8271 8.28852 15.3003 8.45436C14.5122 8.70246 13.5415 9.52232 12.6851 10.4348C12.2785 10.8681 11.5581 11.7741 11.3138 12.0817C11.1149 12.3598 10.7874 12.5175 10.446 12.4991C10.1045 12.4806 9.79609 12.2888 9.62842 11.9908C9.32472 11.4509 9.00137 11.2248 8.89501 11.1617C8.39207 11.1093 8 10.684 8 10.1672C8 9.61489 8.44772 9.16718 9 9.16718C9.51953 9.16718 9.75281 9.33978 9.97855 9.47355C10.1516 9.57612 10.3297 9.70787 10.5084 9.87523C10.7173 9.62709 10.9596 9.35079 11.2267 9.06618C12.0909 8.14537 13.3701 6.96524 14.6997 6.54666C15.2265 6.38082 15.788 6.67343 15.9538 7.20023Z" fill="currentColor"/>
<path class="pr-icon-bulk-primary" d="M6.00852 15.1709L5.45551 17.8195C5.25142 18.7968 5.08018 19.6169 5.02254 20.2516C4.96723 20.8607 4.97562 21.6318 5.50248 22.214C5.77824 22.5187 6.13674 22.7001 6.54193 22.7415C6.90507 22.7787 7.24788 22.6975 7.52839 22.6023C8.05151 22.4247 8.692 22.074 9.39254 21.6904L11.744 20.4033C11.837 20.3524 11.9079 20.3136 11.9694 20.2813L12.0003 20.2653L12.0311 20.2813C12.0926 20.3136 12.1635 20.3524 12.2566 20.4033L14.608 21.6904C15.3086 22.074 15.9491 22.4247 16.4722 22.6023C16.7527 22.6975 17.0955 22.7787 17.4587 22.7415C17.8638 22.7001 18.2223 22.5187 18.4981 22.214C19.025 21.6318 19.0334 20.8607 18.978 20.2516C18.9204 19.6168 18.7492 18.7968 18.5451 17.8195L17.992 15.1704C17.4768 15.7145 16.8884 16.1885 16.2424 16.5766L16.5741 18.1651C16.7948 19.2223 16.9404 19.9274 16.9862 20.4324C16.9947 20.5258 16.9987 20.6028 16.9998 20.6659C16.6698 20.5355 16.2078 20.286 15.4903 19.8933L13.1907 18.6346C13.0323 18.5478 12.8598 18.4533 12.7016 18.3849C12.5173 18.3051 12.2829 18.228 12.0003 18.228C11.7177 18.228 11.4832 18.3051 11.299 18.3849C11.1408 18.4533 10.9683 18.5478 10.8099 18.6346L8.51023 19.8933C7.79276 20.286 7.33078 20.5355 7.00081 20.6659C7.00193 20.6028 7.00587 20.5258 7.01434 20.4324C7.06021 19.9274 7.20576 19.2223 7.42649 18.1651L7.7581 16.5769C7.11214 16.1889 6.52368 15.715 6.00852 15.1709Z" fill="currentColor"/>
</svg>
