<svg width="24" height="24" viewBox="0 0 24 24" xmlns="http://www.w3.org/2000/svg">
<path class="pr-icon-bulk-secondary" d="M6.40402 2.25C5.85957 2.25 5.32258 2.48769 4.97814 2.92845L1.47488 7.4114C1.19233 7.77296 1.22862 8.19014 1.30303 8.45806C1.37956 8.7336 1.53081 8.99717 1.69644 9.22767C2.03307 9.69614 2.54453 10.1864 3.12179 10.6027C3.70064 11.0202 4.3889 11.3945 5.09708 11.5951C5.36068 11.6698 5.63848 11.7234 5.92111 11.7424L3.61472 16.126C3.33214 16.6631 3.20649 17.2064 3.26273 17.7417C3.31899 18.277 3.55019 18.738 3.87016 19.1222C4.488 19.8641 5.48358 20.3775 6.47883 20.7401C8.49262 21.4737 10.9672 21.75 11.9996 21.75C13.032 21.75 15.5066 21.4737 17.5204 20.7401C18.5157 20.3775 19.5113 19.8641 20.1291 19.1222C20.4491 18.738 20.6803 18.277 20.7365 17.7417C20.7928 17.2064 20.6671 16.6631 20.3845 16.126L18.0782 11.7424C18.361 11.7235 18.639 11.6699 18.9028 11.5951C19.6108 11.3945 20.2989 11.0202 20.8777 10.6027C21.4549 10.1864 21.9663 9.69611 22.3029 9.22764C22.4685 8.99715 22.6197 8.73358 22.6962 8.45804C22.7706 8.19013 22.8069 7.77296 22.5244 7.4114L19.0211 2.92845C18.6767 2.48769 18.1397 2.25 17.5952 2.25H15.4928C14.9103 2.25 14.4304 2.62812 14.2531 3.12281C14.1157 3.50646 13.7756 3.98891 13.3166 4.37624C12.852 4.76829 12.3741 4.97302 11.9996 4.97301C11.6251 4.97299 11.1472 4.76825 10.6826 4.37622C10.2236 3.9889 9.88359 3.50647 9.74613 3.12281C9.56889 2.62812 9.08898 2.25 8.50645 2.25H6.40402Z" fill="currentColor"/>
<path class="pr-icon-bulk-primary" fill-rule="evenodd" clip-rule="evenodd" d="M11.6897 11.7967C11.2679 11.5034 10.5657 11.3192 9.76123 11.7762C8.70542 12.3758 8.46652 14.3541 10.9019 16.0232C11.3657 16.3411 11.5976 16.5 12 16.5C12.4024 16.5 12.6343 16.3411 13.0981 16.0232C15.5335 14.3541 15.2946 12.3758 14.2388 11.7762C13.4343 11.3192 12.7321 11.5034 12.3103 11.7967C12.1374 11.9169 12.0509 11.9771 12 11.9771C11.9491 11.9771 11.8626 11.9169 11.6897 11.7967Z" fill="currentColor"/>
</svg>
