<svg width="24" height="24" viewBox="0 0 24 24" xmlns="http://www.w3.org/2000/svg">
<path class="pr-icon-bulk-primary" fill-rule="evenodd" clip-rule="evenodd" d="M9.30595 4.0036C8.02477 4.87025 7.1826 6.33678 7.1826 8C7.1826 10.6628 9.34123 12.8214 12.004 12.8214C14.6668 12.8214 16.8255 10.6628 16.8255 8C16.8255 5.3372 14.6668 3.17857 12.004 3.17857C11.5522 3.17857 11.2326 3.5278 11.2326 3.90179C11.2326 4.27578 11.5522 4.625 12.004 4.625C12.2102 4.625 12.3922 4.55043 12.5282 4.43216C12.9299 4.08256 13.539 4.12485 13.8886 4.5266C14.2382 4.92836 14.1959 5.53744 13.7942 5.88704C13.3159 6.30318 12.6869 6.55357 12.004 6.55357C10.5722 6.55357 9.36067 5.44435 9.30595 4.0036ZM12.004 1.25C8.27611 1.25 5.25403 4.27208 5.25403 8C5.25403 11.7279 8.27611 14.75 12.004 14.75C15.732 14.75 18.754 11.7279 18.754 8C18.754 4.27208 15.732 1.25 12.004 1.25Z" fill="currentColor"/>
<path class="pr-icon-bulk-primary" fill-rule="evenodd" clip-rule="evenodd" d="M9.25 8C9.25 7.58579 9.58579 7.25 10 7.25H10.0081C10.4223 7.25 10.7581 7.58579 10.7581 8C10.7581 8.41421 10.4223 8.75 10.0081 8.75H10C9.58579 8.75 9.25 8.41421 9.25 8ZM13.25 8C13.25 7.58579 13.5858 7.25 14 7.25H14.0081C14.4223 7.25 14.7581 7.58579 14.7581 8C14.7581 8.41421 14.4223 8.75 14.0081 8.75H14C13.5858 8.75 13.25 8.41421 13.25 8Z" fill="currentColor"/>
<g class="pr-icon-bulk-secondary">
<path class="pr-icon-bulk-primary" d="M6.39161 11.751C5.66942 12.8775 5.25 14.2318 5.25 15.6843C5.25 19.5499 8.23629 22.7501 12 22.7501C14.6194 22.7501 16.868 21.1938 17.9876 18.9492C16.4713 18.2906 14.8272 17.3473 13.3318 16.1763C12.767 15.734 12.2184 15.2554 11.7035 14.743C9.48843 14.646 7.5505 13.4814 6.39161 11.751Z" fill="currentColor"/>
<path class="pr-icon-bulk-primary" d="M13.694 14.5363C13.8779 14.6927 14.0656 14.8458 14.2566 14.9953C15.6278 16.069 17.1339 16.9358 18.5141 17.5423C18.668 16.9494 18.75 16.3263 18.75 15.6843C18.75 14.2344 18.3321 12.8824 17.6123 11.7571C16.7033 13.1112 15.3168 14.118 13.694 14.5363Z" fill="currentColor"/>
</g>
</svg>
