<svg width="24" height="24" viewBox="0 0 24 24" xmlns="http://www.w3.org/2000/svg">
<path class="pr-icon-bulk-secondary" d="M9.25003 2C9.25003 1.58579 9.58582 1.25 10 1.25H14C14.4142 1.25 14.75 1.58579 14.75 2V2.64298C14.75 3.27494 14.7561 3.44966 14.7909 3.58237C14.8894 3.95823 15.1571 4.26689 15.5153 4.41758C15.6417 4.47079 15.931 4.51822 16.5566 4.60759C17.6059 4.75729 18.2766 4.85297 18.8422 5.09094C20.2031 5.66356 21.2204 6.83648 21.5948 8.26472C21.7504 8.85828 21.7503 9.53572 21.75 10.5957L21.75 22C21.75 22.4142 21.4142 22.75 21 22.75H3.00003C2.58582 22.75 2.25003 22.4142 2.25003 22L2.25001 10.5957C2.24981 9.53571 2.24968 8.85828 2.40527 8.26472C2.77967 6.83648 3.79694 5.66356 5.15788 5.09094C5.72347 4.85297 6.39411 4.7573 7.44348 4.60759C8.06909 4.51822 8.35834 4.47079 8.48481 4.41758C8.84295 4.26689 9.11065 3.95823 9.20918 3.58237C9.24397 3.44966 9.25003 3.27494 9.25003 2.64298V2Z" fill="currentColor"/>
<path class="pr-icon-bulk-primary" fill-rule="evenodd" clip-rule="evenodd" d="M10.75 8.5C10.75 8.08579 10.4142 7.75 10 7.75C9.58579 7.75 9.25 8.08579 9.25 8.5C9.25 8.91421 8.91421 9.25 8.5 9.25C8.08579 9.25 7.75 9.58579 7.75 10C7.75 10.4142 8.08579 10.75 8.5 10.75C9.74264 10.75 10.75 9.74264 10.75 8.5ZM14.75 8.5C14.75 8.08579 14.4142 7.75 14 7.75C13.5858 7.75 13.25 8.08579 13.25 8.5C13.25 9.74264 14.2574 10.75 15.5 10.75C15.9142 10.75 16.25 10.4142 16.25 10C16.25 9.58579 15.9142 9.25 15.5 9.25C15.0858 9.25 14.75 8.91421 14.75 8.5ZM6.78444 22.75H5.27083C5.29448 22.5608 5.31832 22.3677 5.32798 22.2816C5.37183 21.8911 5.43061 21.3508 5.49036 20.7518C5.61075 19.5447 5.73185 18.1299 5.74723 17.2148C5.77051 15.83 5.65013 14.4353 5.52214 13.3802C5.45835 12.8544 5.39314 12.4166 5.34407 12.1114C5.31955 11.9588 5.27754 11.7207 5.26335 11.6403C5.18596 11.2334 5.45301 10.8408 5.85988 10.7634C6.26679 10.6859 6.65945 10.953 6.73691 11.3599L6.73765 11.3641C6.7538 11.4556 6.79963 11.7151 6.82505 11.8733C6.87669 12.1945 6.94475 12.6516 7.01123 13.1996C7.14377 14.2922 7.27188 15.7612 7.24702 17.24C7.23047 18.2247 7.10307 19.6963 6.98295 20.9006C6.92244 21.5073 6.86296 22.054 6.81862 22.449C6.80587 22.5625 6.79437 22.6636 6.78444 22.75ZM11.2502 22.75V13C11.2502 12.5858 11.586 12.25 12.0002 12.25C12.4144 12.25 12.7502 12.5858 12.7502 13V22.75H11.2502ZM17.2159 22.75H18.7369L18.7289 22.6951C18.709 22.5589 18.6853 22.3966 18.6723 22.2816C18.6285 21.8911 18.5697 21.3508 18.51 20.7518C18.3896 19.5447 18.2685 18.1299 18.2531 17.2148C18.2298 15.83 18.3502 14.4353 18.4782 13.3802C18.542 12.8544 18.6072 12.4166 18.6563 12.1114C18.6808 11.9588 18.7228 11.7206 18.737 11.6403C18.8144 11.2334 18.5473 10.8408 18.1404 10.7634C17.7335 10.6859 17.3409 10.953 17.2634 11.3599L17.2627 11.3642C17.2465 11.4557 17.2007 11.7152 17.1753 11.8733C17.1236 12.1945 17.0556 12.6516 16.9891 13.1996C16.8565 14.2922 16.7284 15.7612 16.7533 17.24C16.7699 18.2247 16.8973 19.6963 17.0174 20.9006C17.0779 21.5073 17.1374 22.054 17.1817 22.449C17.1945 22.5625 17.206 22.6636 17.2159 22.75Z" fill="currentColor"/>
</svg>
