<svg width="24" height="24" viewBox="0 0 24 24" xmlns="http://www.w3.org/2000/svg">
<path class="pr-icon-bulk-primary" d="M19.4983 19.5268C19.0237 20.9252 17.9256 22.0232 16.5272 22.4979C15.7829 22.7506 14.8911 22.7504 13.4927 22.75H10.5081C9.10976 22.7504 8.21792 22.7506 7.47358 22.4979C6.07522 22.0232 4.97717 20.9252 4.50249 19.5268C4.41426 19.2669 4.35687 18.989 4.31955 18.6778C4.26381 18.2131 4.23594 17.9807 4.35322 17.7247C4.47049 17.4687 4.68353 17.3254 5.10962 17.0387C7.09229 15.7047 9.19448 14.75 12.0004 14.75C14.4464 14.75 17.2494 15.724 19.0718 17.0999C19.3884 17.3389 19.5467 17.4584 19.6515 17.6981C19.7564 17.9378 19.7361 18.1408 19.6956 18.5469C19.6592 18.9119 19.5988 19.231 19.4983 19.5268Z" fill="currentColor"/>
<path class="pr-icon-bulk-secondary" d="M4.25002 12C4.25002 7.71979 7.71982 4.25 12 4.25C16.2802 4.25 19.75 7.71979 19.75 12L19.75 14.8896C19.75 15.2356 19.75 15.4086 19.6459 15.4654C19.5418 15.5223 19.392 15.4261 19.0924 15.2337C17.1487 13.9853 14.6735 13.25 12 13.25C9.32653 13.25 6.85129 13.9853 4.90764 15.2336C4.60805 15.426 4.45826 15.5222 4.35413 15.4654C4.25 15.4085 4.25001 15.2355 4.25001 14.8896L4.25002 12Z" fill="currentColor"/>
<path class="pr-icon-bulk-primary" fill-rule="evenodd" clip-rule="evenodd" d="M12.0253 1.25H11.9747H11.9747C11.5303 1.24999 11.1592 1.24999 10.8546 1.27077C10.5375 1.29241 10.238 1.33905 9.94762 1.45933C9.27379 1.73844 8.73844 2.27379 8.45933 2.94762C8.33905 3.23801 8.29241 3.53754 8.27077 3.85464C8.24999 4.15925 8.24999 4.53029 8.25 4.97475V4.97475V5.21605C8.72221 4.95447 9.22463 4.74075 9.75069 4.58146C9.75201 4.32318 9.75591 4.12357 9.76729 3.95674C9.78372 3.71602 9.81319 3.5988 9.84515 3.52165C9.97202 3.21536 10.2154 2.97202 10.5216 2.84515C10.5988 2.81319 10.716 2.78372 10.9567 2.76729C11.2042 2.75041 11.5238 2.75 12 2.75C12.4762 2.75 12.7958 2.75041 13.0433 2.76729C13.284 2.78372 13.4012 2.81319 13.4784 2.84515C13.7846 2.97202 14.028 3.21536 14.1549 3.52165C14.1868 3.5988 14.2163 3.71602 14.2327 3.95674C14.2441 4.12357 14.248 4.32318 14.2493 4.58145C14.7754 4.74074 15.2778 4.95445 15.75 5.21604V4.97474C15.75 4.53028 15.75 4.15925 15.7292 3.85464C15.7076 3.53754 15.661 3.23801 15.5407 2.94762C15.2616 2.27379 14.7262 1.73844 14.0524 1.45933C13.762 1.33905 13.4625 1.29241 13.1454 1.27077C12.8408 1.24999 12.4697 1.24999 12.0253 1.25H12.0253Z" fill="currentColor"/>
<path class="pr-icon-bulk-primary" fill-rule="evenodd" clip-rule="evenodd" d="M10.25 10C10.25 9.58579 10.5858 9.25 11 9.25H13C13.4142 9.25 13.75 9.58579 13.75 10C13.75 10.4142 13.4142 10.75 13 10.75H11C10.5858 10.75 10.25 10.4142 10.25 10Z" fill="currentColor"/>
<path class="pr-icon-bulk-primary" d="M2.99993 16.655L3.00002 13.5511C3.00003 13.2247 3.00004 13.0615 2.87927 13.0094C2.75849 12.9573 2.64815 13.0614 2.42746 13.2695C1.7025 13.9533 1.25 14.9228 1.25 15.998V17.2837C1.25 18.2584 1.81589 19.1009 2.63705 19.5007C2.87242 19.6153 2.9901 19.6726 3.08757 19.6005C3.18504 19.5284 3.16111 19.3762 3.11327 19.072C2.99869 18.3433 2.99928 17.541 2.99993 16.655Z" fill="currentColor"/>
<path class="pr-icon-bulk-primary" d="M21.0005 16.6551C21.0012 17.541 21.0018 18.3433 20.8872 19.0719C20.8394 19.3762 20.8154 19.5284 20.9129 19.6004C21.0104 19.6725 21.1281 19.6152 21.3635 19.5006C22.1844 19.1008 22.7502 18.2584 22.7502 17.2838V15.9981C22.7502 14.923 22.2978 13.9536 21.573 13.2698C21.3523 13.0617 21.242 12.9576 21.1212 13.0097C21.0004 13.0618 21.0004 13.225 21.0004 13.5514L21.0005 16.6551Z" fill="currentColor"/>
</svg>
