<svg width="24" height="24" viewBox="0 0 24 24" xmlns="http://www.w3.org/2000/svg">
<path class="pr-icon-bulk-secondary" d="M7.75 6.5C7.75 3.78684 9.4883 1.25 12 1.25C14.5117 1.25 16.25 3.78684 16.25 6.5C16.25 9.21316 14.5117 11.75 12 11.75C9.4883 11.75 7.75 9.21316 7.75 6.5Z" fill="currentColor"/>
<path class="pr-icon-bulk-primary" d="M11.4001 11.7003C11.4352 11.8738 11.4713 12.0879 11.4979 12.3316C11.5729 13.0181 11.5685 13.9024 11.2857 14.767C10.4531 17.3124 10.4381 19.1872 10.6617 20.461C10.7731 21.0958 10.9426 21.5736 11.0926 21.9035C11.1675 22.0682 11.2373 22.1955 11.2921 22.2865C11.316 22.3263 11.3676 22.402 11.3926 22.4388C11.3963 22.4441 11.3993 22.4487 11.4017 22.4521C11.6513 22.7827 12.1217 22.8482 12.4522 22.5986C12.78 22.351 12.8472 21.8864 12.6048 21.5564C12.5785 21.5126 12.5081 21.3926 12.458 21.2826C12.3582 21.063 12.2277 20.7064 12.1391 20.2016C11.9626 19.1961 11.9467 17.5709 12.7113 15.2333C13.0827 14.0979 13.0779 12.9821 12.9891 12.1687C12.9678 11.9737 12.9414 11.794 12.9135 11.6331C12.6227 11.7094 12.3175 11.7499 12 11.7499C11.7947 11.7499 11.5945 11.733 11.4001 11.7003Z" fill="currentColor"/>
<path class="pr-icon-bulk-secondary" d="M14.25 15.5C14.25 12.7868 15.9883 10.25 18.5 10.25C21.0117 10.25 22.75 12.7868 22.75 15.5C22.75 18.2132 21.0117 20.75 18.5 20.75C15.9883 20.75 14.25 18.2132 14.25 15.5Z" fill="currentColor"/>
<path class="pr-icon-bulk-primary" d="M17.702 20.6614C17.6913 20.7389 17.6786 20.8175 17.6636 20.895C17.6316 21.0603 17.5924 21.2036 17.5487 21.315C17.5062 21.4232 17.4738 21.4643 17.4699 21.4692C17.4695 21.4697 17.4697 21.4694 17.4699 21.4692C17.177 21.7621 17.1768 22.2374 17.4697 22.5303C17.7625 22.8232 18.2374 22.8232 18.5303 22.5303C18.7326 22.328 18.8605 22.0783 18.945 21.8631C19.0325 21.6401 19.0933 21.4021 19.1363 21.18C19.169 21.0111 19.1933 20.8414 19.2108 20.68C18.9818 20.7259 18.7446 20.75 18.5 20.75C18.2242 20.75 17.9578 20.7194 17.702 20.6614Z" fill="currentColor"/>
<path class="pr-icon-bulk-secondary" d="M1.25 15.5C1.25 12.7868 2.9883 10.25 5.5 10.25C8.0117 10.25 9.75 12.7868 9.75 15.5C9.75 18.2132 8.0117 20.75 5.5 20.75C2.9883 20.75 1.25 18.2132 1.25 15.5Z" fill="currentColor"/>
<path class="pr-icon-bulk-primary" d="M4.78918 20.68C4.80673 20.8414 4.83101 21.0111 4.8637 21.18C4.90669 21.4021 4.96748 21.6401 5.05502 21.8631C5.1395 22.0783 5.26744 22.328 5.4697 22.5303C5.7626 22.8232 6.23747 22.8232 6.53036 22.5303C6.82326 22.2374 6.82326 21.7625 6.53036 21.4696C6.53057 21.4699 6.53075 21.4701 6.53036 21.4696C6.52649 21.4647 6.49379 21.4232 6.4513 21.315C6.40759 21.2036 6.36838 21.0603 6.33637 20.895C6.32137 20.8175 6.30867 20.7389 6.29801 20.6614C6.04219 20.7194 5.77577 20.75 5.50003 20.75C5.25545 20.75 5.01821 20.7259 4.78918 20.68Z" fill="currentColor"/>
</svg>
