<svg width="24" height="24" viewBox="0 0 24 24" xmlns="http://www.w3.org/2000/svg">
<path class="pr-icon-bulk-secondary" d="M15.869 14.0222C15.5797 13.7258 15.1048 13.72 14.8084 14.0092C14.5119 14.2985 14.5061 14.7734 14.7954 15.0698C14.9982 15.2776 15.0838 15.6299 14.7352 16.419C14.3969 17.1851 13.7771 18.0535 13.1186 18.9758C12.8867 19.3006 12.6318 19.6576 12.399 20.0053C12.2531 20.2233 12.0327 20.3832 11.7757 20.4359C11.0632 20.5821 10.3099 20.6828 9.56391 20.7252C7.79113 20.8259 5.84907 20.6097 4.57722 19.684C4.1631 19.3826 3.49609 19.5343 3.02371 19.5343C2.32296 19.5343 1.80497 19.17 1.52069 18.6623C1.25821 18.1934 1.20721 17.6364 1.28041 17.1548C1.35322 16.6757 1.56744 16.1527 1.97705 15.7916C2.43028 15.392 3.05292 15.2583 3.70798 15.5117C3.95437 15.607 4.28158 15.708 4.61198 15.7423C4.94744 15.7771 5.21725 15.7365 5.41171 15.6263C6.5592 14.976 7.73765 14.4441 8.85339 13.9404C9.18257 13.7918 9.50676 13.6455 9.82262 13.4995C11.2315 12.8484 12.512 12.1892 13.6178 11.2886C13.6365 11.2713 13.6934 11.2278 13.7709 11.1922C16.17 10.058 19.0226 11.1348 20.2611 13.8746C21.2247 16.0065 20.6723 18.2215 19.4159 19.8701C18.1669 21.509 16.161 22.6798 14.0306 22.7449C13.6074 22.7579 13.1948 22.5842 12.8653 22.3257C12.7785 22.2389 12.835 22.1202 12.8653 22.0525C13.125 21.4705 13.7284 20.7032 14.3956 19.7688C15.0097 18.9089 15.7056 17.9346 16.1073 17.0251C16.5112 16.1107 16.7555 14.9307 15.869 14.0222Z" fill="currentColor"/>
<path fill-rule="evenodd" clip-rule="evenodd" d="M13.1445 11.6525C13.1098 11.0949 12.967 10.5616 12.6988 10.1077C12.4363 9.66331 12.0493 9.2926 11.5346 9.08299C11.0212 8.8739 10.4392 8.84872 9.82318 8.99386C9.04922 9.17622 8.56893 9.56 8.23135 9.84669C8.22442 9.85257 8.21228 9.86363 8.19626 9.87821L8.19625 9.87822C8.0639 9.99872 7.6669 10.3601 7.75738 10.0388C8.16144 8.60367 9.83983 7.72948 11.6618 7.75025C12.5426 7.76029 13.3408 7.98803 13.8962 8.37967C14.4275 8.75426 14.75 9.28147 14.75 10.0072C14.75 10.0664 14.7569 10.124 14.7699 10.1793C14.4222 10.5792 14.0506 10.9341 13.6599 11.2558C13.6875 11.2364 13.7257 11.213 13.7709 11.1922C14.5643 10.8171 15.4074 10.6839 16.2252 10.7726C17.2027 9.53051 17.9788 7.95924 18.475 5.88866C18.6701 5.0746 18.8259 4.45505 18.9699 3.97751C19.116 3.49313 19.2362 3.20378 19.3443 3.02561C19.509 2.75386 19.7508 2.74993 20.0522 2.74993C20.0809 2.74993 20.232 2.77181 20.4531 3.03195C20.6671 3.28378 20.8919 3.70304 21.0486 4.30816C21.3604 5.51249 21.3745 7.35485 20.6117 9.72896C20.3209 10.6339 19.9443 11.697 19.5173 12.6465C19.8037 13.0081 20.0548 13.4183 20.2611 13.8747C20.3151 13.9943 20.3644 14.1141 20.4091 14.2341C21.0836 12.9796 21.6516 11.3961 22.0398 10.1878C22.8698 7.60463 22.8983 5.46777 22.5007 3.93219C22.3027 3.16736 21.992 2.52649 21.5962 2.06068C21.2074 1.60319 20.6747 1.24993 20.0522 1.24993C19.225 1.24993 18.5065 1.51412 18.0616 2.2479C17.8533 2.59151 17.6898 3.02729 17.5338 3.54431C17.3758 4.06818 17.2111 4.7263 17.0163 5.5391C16.7372 6.70376 16.3661 7.6771 15.9215 8.50442C15.6591 7.95433 15.2541 7.50175 14.7606 7.15377C13.8967 6.54461 12.7801 6.26291 11.6789 6.25035C9.53705 6.22593 6.98314 7.25393 6.31352 9.63227C6.17915 10.1095 6.26396 10.6219 6.51135 11.0168C6.76764 11.4258 7.24637 11.7659 7.86882 11.7027C8.45266 11.6434 8.87417 11.2757 9.12759 11.0547C9.43667 10.7851 9.76056 10.5497 10.1672 10.4539C10.5389 10.3663 10.7954 10.4016 10.9688 10.4722C11.141 10.5423 11.2892 10.6706 11.4074 10.8707C11.6383 11.2615 11.7322 11.9027 11.5767 12.6303C12.1276 12.3304 12.6514 12.0105 13.1445 11.6525Z" fill="currentColor"/>
</svg>
