<svg width="24" height="24" viewBox="0 0 24 24" xmlns="http://www.w3.org/2000/svg">
<path class="pr-icon-bulk-secondary" d="M2.25 11.0564V10H2C1.44772 10 1 9.55229 1 9C1 8.44771 1.44772 8 2 8H9C9.86548 8 10.7076 8.28071 11.4 8.8L13.8 10.6C14.1462 10.8596 14.5673 11 15 11H22C22.5523 11 23 11.4477 23 12C23 12.5523 22.5523 13 22 13H21.7487C21.7447 13.9305 21.7284 14.7085 21.6619 15.3621C21.5716 16.2497 21.3826 16.9907 20.9495 17.639C20.6029 18.1576 20.1576 18.6029 19.639 18.9495C18.9907 19.3826 18.2497 19.5716 17.3621 19.6619C16.4957 19.75 15.4108 19.75 14.0416 19.75H10.9436C9.10583 19.75 7.65019 19.75 6.51098 19.5969C5.33856 19.4392 4.38961 19.1071 3.64124 18.3588C2.89288 17.6104 2.56076 16.6614 2.40314 15.489C2.24997 14.3498 2.24998 12.8942 2.25 11.0564Z" fill="currentColor"/>
<path class="pr-icon-bulk-primary" fill-rule="evenodd" clip-rule="evenodd" d="M9 10C9.43274 10 9.85381 10.1404 10.2 10.4L12.6 12.2C13.2924 12.7193 14.1345 13 15 13H22C22.5523 13 23 12.5523 23 12C23 11.4477 22.5523 11 22 11H15C14.5673 11 14.1462 10.8596 13.8 10.6L11.4 8.8C10.7076 8.28071 9.86548 8 9 8H2C1.44772 8 1 8.44772 1 9C1 9.55228 1.44772 10 2 10H9Z" fill="currentColor"/>
<path class="pr-icon-bulk-primary" d="M17 19.6948C17.1248 19.6859 17.2454 19.6756 17.3621 19.6638C17.9713 19.6018 18.5115 19.4933 19 19.2913V21.0019C19 21.5542 18.5523 22.0019 18 22.0019C17.4477 22.0019 17 21.5542 17 21.0019V19.6948Z" fill="currentColor"/>
<path class="pr-icon-bulk-primary" d="M7 19.6537C6.83087 19.638 6.66792 19.6199 6.51098 19.5988C5.95849 19.5245 5.45563 19.4114 5 19.2344V21.0019C5 21.5542 5.44771 22.0019 6 22.0019C6.55229 22.0019 7 21.5542 7 21.0019V19.6537Z" fill="currentColor"/>
<path class="pr-icon-bulk-primary" d="M4 8H6V4.5C6 4.22386 6.22386 4 6.5 4C6.77614 4 7 4.22386 7 4.5V5C7 5.55228 7.44772 6 8 6C8.55228 6 9 5.55228 9 5V4.5C9 3.11929 7.88071 2 6.5 2C5.11929 2 4 3.11929 4 4.5V8Z" fill="currentColor"/>
</svg>
