<svg width="24" height="24" viewBox="0 0 24 24" xmlns="http://www.w3.org/2000/svg">
<g class="pr-icon-bulk-secondary">
<path class="pr-icon-bulk-primary" fill-rule="evenodd" clip-rule="evenodd" d="M13.0549 18.7502H11.7499C11.2597 18.7502 11.0147 18.7502 10.9297 18.5926C10.8447 18.435 10.9793 18.2302 11.2485 17.8206L13.94 13.7253C14.1221 13.3433 14.5301 12.3335 13.9575 11.2301C13.6334 10.6058 13.1132 10.2504 12.6419 10.0469C12.2181 9.86393 12.0063 9.77246 11.9665 9.63763C11.9267 9.50281 12.0378 9.33675 12.26 9.00463L13.4326 7.25148C13.6731 6.89203 13.7964 6.48839 13.8113 6.08572C13.8278 5.6403 13.8361 5.41759 13.9248 5.33337C14.0136 5.24915 14.187 5.25178 14.534 5.25704C15.2455 5.26782 15.8625 5.29553 16.3918 5.36669C17.2919 5.48771 18.0497 5.7466 18.6517 6.34852C19.2536 6.95044 19.5125 7.70831 19.6335 8.60842C19.6361 8.62804 19.6374 8.63785 19.6386 8.64425C19.6606 8.7673 19.7495 8.85906 19.8718 8.88494C19.8782 8.88628 19.8864 8.88765 19.9027 8.89038L20.1751 8.93578C20.4949 8.98905 20.7732 9.03543 21.0025 9.09091C21.2462 9.14988 21.4848 9.23006 21.7115 9.37492C22.0929 9.61857 22.3919 9.97155 22.5695 10.3878C22.6751 10.6352 22.715 10.8838 22.7331 11.1339C22.7501 11.3691 22.7501 11.6513 22.7501 11.9754V12.0252C22.7501 12.3493 22.7501 12.6315 22.7331 12.8667C22.715 13.1168 22.6751 13.3653 22.5695 13.6128C22.3919 14.029 22.0929 14.382 21.7115 14.6257C21.4848 14.7705 21.2462 14.8507 21.0025 14.9097C20.7732 14.9651 20.4948 15.0115 20.1751 15.0648L19.9025 15.1102C19.8863 15.1129 19.8782 15.1143 19.872 15.1156C19.7495 15.1414 19.6605 15.2333 19.6385 15.3565C19.6374 15.3628 19.6361 15.3725 19.6335 15.3919C19.5125 16.292 19.2536 17.0499 18.6517 17.6518C18.0497 18.2537 17.2919 18.5126 16.3918 18.6336C15.5248 18.7502 14.4224 18.7502 13.0549 18.7502ZM19.9044 10.4115C19.82 10.3974 19.7436 10.4633 19.7447 10.5489C19.7504 10.9798 19.7504 11.4449 19.7504 11.9455V12.0552C19.7504 12.5559 19.7504 13.0211 19.7447 13.4521C19.7435 13.5377 19.82 13.6036 19.9044 13.5895C20.2557 13.5309 20.4799 13.4931 20.6501 13.4519C20.8116 13.4129 20.8726 13.3821 20.9043 13.3618C21.0314 13.2806 21.1311 13.1629 21.1903 13.0242C21.2051 12.9896 21.2254 12.9244 21.2374 12.7586C21.25 12.584 21.2505 12.3566 21.2505 12.0005C21.2505 11.6444 21.25 11.417 21.2374 11.2424C21.2254 11.0766 21.2051 11.0114 21.1903 10.9768C21.1311 10.838 21.0314 10.7204 20.9043 10.6392C20.8726 10.6189 20.8116 10.5881 20.6501 10.549C20.4799 10.5079 20.2557 10.47 19.9044 10.4115Z" fill="currentColor"/>
<path class="pr-icon-bulk-primary" d="M7.94511 5.25017H8.23338C8.72793 5.25017 8.97521 5.25017 9.05994 5.40888C9.14467 5.56759 9.0071 5.77305 8.73194 6.18399L6.6668 9.26826C6.48313 9.54215 6.23072 9.91853 6.06075 10.2752C5.87869 10.6572 5.47063 11.667 6.04329 12.7704C6.36732 13.3947 6.88757 13.7501 7.35891 13.9536C7.78262 14.1366 7.99448 14.228 8.03426 14.3629C8.07403 14.4977 7.96295 14.6637 7.7408 14.9959L6.56814 16.749C6.33184 17.1022 6.20873 17.498 6.19034 17.8936C6.16931 18.3458 6.1588 18.572 6.06588 18.6558C5.97296 18.7396 5.79956 18.7298 5.45277 18.7102C5.14955 18.6931 4.86831 18.6686 4.60825 18.6336C3.70814 18.5126 2.95027 18.2537 2.34835 17.6518C1.74644 17.0499 1.48754 16.292 1.36653 15.3919C1.24997 14.525 1.24998 13.4226 1.25 12.0551V11.9453C1.24998 10.5777 1.24997 9.47537 1.36653 8.60842C1.48754 7.70831 1.74644 6.95044 2.34835 6.34852C2.95027 5.7466 3.70814 5.48771 4.60825 5.36669C5.47521 5.25013 6.57754 5.25015 7.94511 5.25017Z" fill="currentColor"/>
</g>
<path class="pr-icon-bulk-primary" d="M11.98 5.37687C12.3242 5.60733 12.4164 6.07317 12.186 6.41735L8.95499 11.2477L10.6468 11.2501C11.0119 11.25 11.3668 11.2499 11.6449 11.2917C11.9386 11.3359 12.3872 11.4604 12.6262 11.921C12.8625 12.3761 12.7131 12.8133 12.5861 13.0798C12.4644 13.3352 12.2655 13.632 12.0591 13.9402L9.06135 18.4174C8.83089 18.7615 8.36505 18.8537 8.02087 18.6233C7.67668 18.3928 7.58448 17.927 7.81494 17.5828L11.0459 12.7524L9.35407 12.7501C8.98899 12.7502 8.63407 12.7503 8.35602 12.7084C8.06232 12.6643 7.6137 12.5398 7.37466 12.0792C7.13842 11.624 7.28782 11.1869 7.41484 10.9203C7.53653 10.665 7.73539 10.3681 7.94182 10.06L7.94183 10.06L10.9396 5.5828C11.17 5.23862 11.6358 5.14642 11.98 5.37687Z" fill="currentColor"/>
</svg>
