<svg width="24" height="24" viewBox="0 0 24 24" xmlns="http://www.w3.org/2000/svg">
<path class="pr-icon-bulk-secondary" d="M18.052 11.25C18.9505 11.2499 19.6997 11.2499 20.2945 11.3299C20.9223 11.4143 21.4891 11.6 21.9445 12.0554C22.4 12.5109 22.5857 13.0777 22.6701 13.7055C22.7501 14.3003 22.75 15.0495 22.75 15.948V17.5C22.75 17.9142 22.4142 18.25 22 18.25H2C1.58579 18.25 1.25 17.9142 1.25 17.5L1.25 15.948V15.9479C1.24997 15.0495 1.24995 14.3003 1.32991 13.7055C1.41432 13.0777 1.59999 12.5109 2.05546 12.0554C2.51093 11.6 3.07773 11.4143 3.70552 11.3299C4.3003 11.2499 5.04951 11.2499 5.94797 11.25H5.948H18.052H18.052Z" fill="currentColor"/>
<path d="M1.25 17.2187L1.25 17.5C1.25 17.9142 1.58579 18.25 2 18.25H3.25V20.75C3.25 21.3023 2.80228 21.75 2.25 21.75C1.69772 21.75 1.25 21.3023 1.25 20.75V17.2187Z" fill="currentColor"/>
<path d="M20.75 18.25V20.75C20.75 21.3023 21.1977 21.75 21.75 21.75C22.3023 21.75 22.75 21.3023 22.75 20.75V17.5017C22.7491 17.9151 22.4136 18.25 22 18.25H20.75Z" fill="currentColor"/>
<path d="M7.25 11.25H16.75V10.6178C16.75 10.3519 16.7346 9.99237 16.5323 9.6674C16.3231 9.33145 15.9989 9.16368 15.7339 9.05063C14.6888 8.60475 13.4026 8.24997 12 8.24997C10.5974 8.24997 9.31115 8.60475 8.26608 9.05063C8.00111 9.16368 7.67688 9.33145 7.4677 9.6674C7.26537 9.99237 7.25 10.3519 7.25 10.6178V11.25Z" fill="currentColor"/>
<path d="M2.2537 11.8791C2.67125 11.5498 3.16585 11.4024 3.70552 11.3299C3.85997 11.3091 4.02483 11.2937 4.20001 11.2824V8.93179C4.20001 8.22984 4.20208 7.7994 4.24486 7.48788C4.28246 7.21408 4.33594 7.16836 4.34228 7.16294L4.34325 7.16199C4.34879 7.15578 4.39548 7.10342 4.67516 7.06661C4.99335 7.02472 5.43301 7.0227 6.15 7.0227C6.18189 7.0227 6.22456 7.02487 6.30785 7.02982L6.31653 7.03033C6.388 7.03458 6.48799 7.04053 6.59091 7.04154C6.77923 7.04338 7.14402 7.03536 7.49291 6.85123C7.73412 6.72393 7.88792 6.5404 7.97196 6.43295C8.0558 6.32576 8.14569 6.19196 8.23062 6.06553L8.24437 6.04508C8.97953 4.95124 10.5647 4.15906 12 4.15906C13.4353 4.15906 15.0205 4.95124 15.7556 6.04508L15.7694 6.06556C15.8543 6.19198 15.9442 6.32577 16.028 6.43295C16.1121 6.5404 16.2659 6.72393 16.5071 6.85124C16.856 7.03536 17.2208 7.04338 17.4091 7.04153C17.512 7.04053 17.612 7.03458 17.6835 7.03033L17.6922 7.02982C17.7754 7.02487 17.8181 7.0227 17.85 7.0227C18.567 7.0227 19.0066 7.02472 19.3248 7.06661C19.6045 7.10342 19.6512 7.15577 19.6567 7.16198L19.6577 7.16294C19.6641 7.16836 19.7175 7.21408 19.7551 7.48788C19.7979 7.7994 19.8 8.22984 19.8 8.93179V11.2824C19.9752 11.2937 20.14 11.3091 20.2945 11.3299C20.8341 11.4024 21.3287 11.5498 21.7463 11.8791C21.7487 11.8515 21.75 11.8236 21.75 11.7954L21.75 8.873C21.7501 8.24861 21.7501 7.68758 21.6878 7.2335C21.6197 6.73775 21.4616 6.22916 21.0361 5.81256C20.6105 5.39595 20.091 5.24119 19.5847 5.17454C19.1209 5.11349 18.5478 5.11354 17.9101 5.1136L17.85 5.11361C17.7525 5.11361 17.653 5.11953 17.5838 5.12365L17.5742 5.12422C17.536 5.12649 17.5037 5.12836 17.4751 5.12976C17.449 5.09141 17.4195 5.04762 17.3846 4.9957C16.2546 3.31432 14.0267 2.24997 12 2.24997C9.9733 2.24997 7.74543 3.31432 6.61538 4.9957C6.58048 5.04763 6.55104 5.09141 6.52493 5.12976C6.49628 5.12836 6.46399 5.12649 6.42582 5.12422L6.41622 5.12365C6.34701 5.11953 6.24745 5.11361 6.15 5.11361L6.08994 5.1136C5.45217 5.11354 4.87914 5.11349 4.41533 5.17454C3.90895 5.24119 3.38946 5.39596 2.96393 5.81256C2.53841 6.22916 2.38033 6.73775 2.31225 7.2335C2.24989 7.68758 2.24994 8.24859 2.25 8.87298L2.25001 11.7954C2.25001 11.8236 2.25126 11.8515 2.2537 11.8791Z" fill="currentColor"/>
</svg>
