<svg width="24" height="24" viewBox="0 0 24 24" xmlns="http://www.w3.org/2000/svg">
<path d="M7.12052 8.375C6.29457 8.375 5.625 9.04657 5.625 9.875C5.625 9.90302 5.62577 9.93086 5.62728 9.95851L1.41789 14.1679C1.02737 14.5584 1.02737 15.1916 1.41789 15.5821C1.80842 15.9726 2.44158 15.9726 2.83211 15.5821L7.04128 11.3729C7.06752 11.3743 7.09394 11.375 7.12052 11.375H7.12948C7.95543 11.375 8.625 10.7034 8.625 9.875C8.625 9.04657 7.95543 8.375 7.12948 8.375H7.12052Z" fill="currentColor"/>
<path fill-rule="evenodd" clip-rule="evenodd" d="M15.4179 19.1679C15.0274 19.5584 15.0274 20.1916 15.4179 20.5821L17.4179 22.5821C17.8084 22.9726 18.4416 22.9726 18.8321 22.5821C19.2226 22.1916 19.2226 21.5584 18.8321 21.1679L16.8321 19.1679C16.4416 18.7774 15.8084 18.7774 15.4179 19.1679Z" fill="currentColor"/>
<path opacity="0.4" fill-rule="evenodd" clip-rule="evenodd" d="M6.96579 2.12897C8.52021 1.49463 10.4956 1.125 12.6251 1.125C14.8129 1.125 16.838 1.51511 18.411 2.18158C19.7885 2.73406 20.9237 3.61556 21.7052 4.91337C22.4822 6.20387 22.8751 7.84855 22.8751 9.875C22.8751 11.9015 22.4822 13.5461 21.7052 14.8366C20.9237 16.1344 19.7884 17.0159 18.411 17.5684C17.131 18.1107 15.5518 18.47 13.8291 18.5851L18.8321 13.5821C19.2226 13.1916 19.2226 12.5584 18.8321 12.1679C18.4416 11.7774 17.8084 11.7774 17.4179 12.1679L11.0311 18.5547C9.51579 18.4193 8.12381 18.0936 6.96559 17.6209C6.00286 17.5719 5.16537 17.0818 4.50726 16.3861C3.81667 15.656 3.28191 14.6622 2.92223 13.5413C2.75905 13.0328 3.03101 12.4857 3.52966 12.3193C4.02831 12.1529 4.56482 12.4302 4.728 12.9387C5.02329 13.8589 5.43224 14.5732 5.87475 15.041C6.31365 15.505 6.74235 15.6875 7.125 15.6875C7.6863 15.6875 8.38014 15.2727 8.98717 14.1894C9.57885 13.1336 9.975 11.6102 9.975 9.875C9.975 8.13976 9.57885 6.61643 8.98717 5.56057C8.38014 4.47729 7.6863 4.0625 7.125 4.0625C6.5637 4.0625 5.86986 4.47729 5.26283 5.56057C4.67115 6.61643 4.275 8.13976 4.275 9.875C4.275 10.41 3.84967 10.8438 3.325 10.8438C2.80033 10.8438 2.375 10.41 2.375 9.875C2.375 7.86506 2.82951 5.99776 3.61316 4.5993C4.35474 3.27593 5.50425 2.20207 6.96579 2.12897Z" fill="currentColor"/>
<path d="M11.0311 18.5547L8.41789 21.1679C8.02737 21.5584 8.02737 22.1916 8.41789 22.5821C8.80842 22.9726 9.44158 22.9726 9.83211 22.5821L13.8291 18.5851C13.4347 18.6115 13.0327 18.625 12.6251 18.625C12.0823 18.625 11.5495 18.601 11.0311 18.5547Z" fill="currentColor"/>
</svg>
