<svg width="24" height="24" viewBox="0 0 24 24" xmlns="http://www.w3.org/2000/svg">
<path class="pr-icon-bulk-secondary" d="M7.52522 8.34988C8.95364 8.28422 10.4042 8.25 12 8.25C13.5958 8.25 15.0464 8.28422 16.4748 8.34989C18.5328 8.4445 20.2039 10.0382 20.4755 12.0552C20.6236 13.1556 20.75 14.3118 20.75 15.5C20.75 16.6882 20.6236 17.8444 20.4755 18.9448C20.2039 20.9618 18.5328 22.5555 16.4748 22.6501C15.0464 22.7158 13.5958 22.75 12 22.75C10.4042 22.75 8.95364 22.7158 7.52522 22.6501C5.46716 22.5555 3.79609 20.9618 3.52452 18.9448C3.37636 17.8444 3.25 16.6882 3.25 15.5C3.25 14.3118 3.37636 13.1556 3.52452 12.0552C3.79609 10.0382 5.46716 8.4445 7.52522 8.34988Z" fill="currentColor"/>
<path fill-rule="evenodd" clip-rule="evenodd" d="M12 12.75C10.2051 12.75 8.75 14.2051 8.75 16V17.5C8.75 17.9142 8.41421 18.25 8 18.25C7.58579 18.25 7.25 17.9142 7.25 17.5V16C7.25 13.3766 9.37665 11.25 12 11.25C14.6234 11.25 16.75 13.3766 16.75 16V17.5C16.75 17.9142 16.4142 18.25 16 18.25C15.5858 18.25 15.25 17.9142 15.25 17.5V16C15.25 14.2051 13.7949 12.75 12 12.75Z" fill="currentColor"/>
<path fill-rule="evenodd" clip-rule="evenodd" d="M12 15.25C11.5858 15.25 11.25 15.5858 11.25 16V19C11.25 19.4142 10.9142 19.75 10.5 19.75C10.0858 19.75 9.75 19.4142 9.75 19V16C9.75 14.7574 10.7574 13.75 12 13.75C13.2426 13.75 14.25 14.7574 14.25 16C14.25 16.4142 13.9142 16.75 13.5 16.75C13.0858 16.75 12.75 16.4142 12.75 16C12.75 15.5858 12.4142 15.25 12 15.25ZM13.5 17.25C13.9142 17.25 14.25 17.5858 14.25 18V19C14.25 19.4142 13.9142 19.75 13.5 19.75C13.0858 19.75 12.75 19.4142 12.75 19V18C12.75 17.5858 13.0858 17.25 13.5 17.25Z" fill="currentColor"/>
<path d="M8.25 6.5C8.25 4.42893 9.92893 2.75 12 2.75C14.0711 2.75 15.75 4.42893 15.75 6.5V8.31937C15.9926 8.32864 16.234 8.33882 16.4748 8.34988C16.7404 8.36209 16.9995 8.39926 17.25 8.45909V6.5C17.25 3.6005 14.8995 1.25 12 1.25C9.1005 1.25 6.75 3.6005 6.75 6.5V8.45909C7.00051 8.39926 7.25964 8.36209 7.52522 8.34988C7.76599 8.33882 8.00738 8.32864 8.25 8.31937V6.5Z" fill="currentColor"/>
</svg>
