<svg width="24" height="24" viewBox="0 0 24 24" xmlns="http://www.w3.org/2000/svg">
<path class="pr-icon-bulk-secondary" d="M19.4595 1.57202C20.2081 1.74395 20.9664 2.02514 21.4706 2.52934C21.9748 3.03354 22.256 3.79178 22.4279 4.5404C22.6055 5.31374 22.6927 6.19901 22.7288 7.06901C22.8011 8.81153 22.6717 10.5921 22.5881 11.5022C22.5359 12.0701 22.3035 12.5945 21.9407 13.0167C19.2314 16.1691 16.4229 19.0388 13.3564 21.7845C11.9532 23.0408 9.8583 23.0541 8.39717 21.9228C5.98748 20.057 3.94288 18.0124 2.07714 15.6028C0.945835 14.1416 0.959159 12.0467 2.21547 10.6436C4.96115 7.57706 7.83086 4.76857 10.9832 2.05925C11.4054 1.69638 11.9298 1.46402 12.4977 1.41184C13.4078 1.32821 15.1884 1.19881 16.9309 1.2711C17.8009 1.30719 18.6862 1.3944 19.4595 1.57202Z" fill="currentColor"/>
<path class="pr-icon-bulk-primary" fill-rule="evenodd" clip-rule="evenodd" d="M10.5267 8.46961C10.8195 8.17672 11.2944 8.17672 11.5873 8.46961L12.8488 9.73111L13.2741 9.30579C13.567 9.0129 14.0419 9.0129 14.3348 9.30579C14.6277 9.59869 14.6277 10.0736 14.3348 10.3665L13.9095 10.7918L14.499 11.3813C15.1947 12.077 15.1102 13.1747 14.4542 13.8307L13.9764 14.3085C13.7164 14.5685 13.387 14.7387 13.0407 14.8062C12.9732 15.1525 12.803 15.4819 12.543 15.7419L12.0651 16.2198C11.4092 16.8757 10.3115 16.9603 9.61581 16.2646L9.02625 15.675L8.60094 16.1003C8.30804 16.3932 7.83317 16.3932 7.54028 16.1003C7.24738 15.8074 7.24738 15.3325 7.54028 15.0396L7.96559 14.6143L6.70409 13.3528C6.4112 13.0599 6.4112 12.5851 6.70409 12.2922C6.99698 11.9993 7.47186 11.9993 7.76475 12.2922L7.90636 12.4338L10.6683 9.67187L10.5267 9.53027C10.2338 9.23738 10.2338 8.7625 10.5267 8.46961ZM11.7289 10.7325L10.8783 11.5832L12.5878 13.2926C12.6342 13.3391 12.78 13.3835 12.9158 13.2478L13.3936 12.77C13.5293 12.6343 13.4849 12.4885 13.4384 12.442L11.7289 10.7325ZM11.5271 14.3533L9.81764 12.6438L8.96702 13.4944L10.6765 15.2039C10.723 15.2504 10.8688 15.2948 11.0045 15.1591L11.4823 14.6813C11.618 14.5456 11.5736 14.3998 11.5271 14.3533Z" fill="currentColor"/>
<path class="pr-icon-bulk-primary" d="M19.5 5.99994C19.5 5.17151 18.8285 4.49994 18 4.49994C17.1716 4.49994 16.5 5.17151 16.5 5.99994C16.5 6.82837 17.1716 7.49994 18 7.49994C18.8285 7.49994 19.5 6.82837 19.5 5.99994Z" fill="currentColor"/>
</svg>
