<svg width="24" height="24" viewBox="0 0 24 24" xmlns="http://www.w3.org/2000/svg">
<path class="pr-icon-bulk-secondary" d="M11.4459 1.41273C10.5371 1.15924 9.81487 1.35939 9.22116 1.77947C8.81626 2.06595 8.44707 2.48264 8.13793 2.83155C8.04847 2.93253 7.9586 3.0331 7.86718 3.13231C7.52136 3.50754 7.19719 3.85927 6.98365 4.19584C6.73508 4.58762 6.59176 5.02414 6.68277 5.54602C6.86679 6.60133 7.8116 7.11512 8.55034 7.34489C9.32824 7.58683 10.211 7.62926 10.8178 7.52909C11.1191 7.47934 11.6834 7.41392 11.9106 7.38826C11.9727 7.38124 12.0345 7.4038 12.0767 7.45003C12.3969 7.80112 12.6613 8.18099 12.9493 8.55777C13.0951 8.74769 13.2429 8.93646 13.3828 9.13082C13.4512 9.22586 13.4918 9.33743 13.5087 9.45331C13.5276 9.58283 13.5522 9.75495 13.5657 9.86521C13.6526 10.5719 13.6968 11.2885 13.8098 11.992C13.8215 12.0648 13.7538 12.1261 13.6824 12.1076C12.8171 11.8837 11.815 11.8056 10.7835 12.049C9.51106 11.0203 7.81416 10.5425 6.17081 10.5601C4.38286 10.5792 2.5458 11.1863 1.28277 12.4558C1.14294 12.5963 1.06445 12.7865 1.06445 12.9848V20.3645C1.06445 20.5528 1.13527 20.7342 1.26284 20.8727C2.45151 22.163 4.19135 22.7847 5.89028 22.8005C7.49365 22.8154 9.14392 22.2915 10.3474 21.1773C10.4026 21.1262 10.4816 21.1087 10.553 21.1323C13.006 21.9459 15.1823 21.8001 17.5853 21.0089L17.6513 20.9872C18.8183 20.603 19.7936 20.2819 20.5397 19.8663C21.3484 19.4157 21.9295 18.8342 22.2892 17.9326C22.6492 17.0304 22.6309 16.1796 22.3794 15.2434C22.1427 14.3625 21.6831 13.3527 21.1212 12.1181L21.0952 12.061C19.6151 8.80919 17.8747 6.258 15.2438 3.01258C15.0617 2.78739 14.8797 2.55434 14.6358 2.39223C14.3932 2.23097 14.11 2.15558 13.8326 2.07851L11.4459 1.41273Z" fill="currentColor"/>
<path d="M10.7825 12.048C10.3672 11.7122 9.90668 11.4352 9.41754 11.2148C9.0842 11.5164 8.77063 11.8815 8.5004 12.2651C8.02874 12.9347 7.62586 13.7502 7.47574 14.5549C7.39978 14.9621 7.6683 15.3538 8.07549 15.4298C8.48268 15.5057 8.87435 15.2372 8.95031 14.83C9.04985 14.2964 9.33889 13.6795 9.72671 13.1289C10.0881 12.6159 10.4753 12.237 10.7825 12.048Z" fill="currentColor"/>
</svg>
