<svg width="24" height="24" viewBox="0 0 24 24" xmlns="http://www.w3.org/2000/svg">
    <path class="pr-icon-bulk-secondary" fill-rule="evenodd" clip-rule="evenodd" d="M12.5564 1.25H11.4436H11.4436C9.60583 1.24999 8.15019 1.24997 7.01098 1.40314C5.83856 1.56076 4.88961 1.89288 4.14124 2.64124C3.39288 3.38961 3.06076 4.33856 2.90314 5.51098C2.74997 6.65019 2.74998 8.10582 2.75 9.94357V19.3327C2.74741 19.3882 2.74609 19.4439 2.74609 19.5C2.74609 21.4192 4.2832 23 6.2099 23H20.24C20.2401 23 20.2401 23 20.2402 23C20.2445 23 20.2487 23 20.2529 22.9999C20.267 22.9997 20.2811 22.9993 20.2951 22.9985C20.8219 22.97 21.2402 22.5339 21.2402 22C21.2402 21.4477 20.7925 21 20.2402 21C19.4118 21 18.7402 20.3284 18.7402 19.5C18.7402 18.6716 19.4118 18 20.2402 18C20.7117 18 21.1069 17.6738 21.2125 17.2348C21.2368 17.1609 21.25 17.082 21.25 17V9.94359C21.25 8.10585 21.25 6.65018 21.0969 5.51098C20.9392 4.33856 20.6071 3.38961 19.8588 2.64124C19.1104 1.89288 18.1614 1.56076 16.989 1.40314C15.8498 1.24997 14.3942 1.24999 12.5564 1.25H12.5564ZM17.0771 18H6.2099C5.41516 18 4.74609 18.6578 4.74609 19.5C4.74609 20.3422 5.41516 21 6.2099 21H17.0771C16.8611 20.5454 16.7402 20.0368 16.7402 19.5C16.7402 18.9632 16.8611 18.4546 17.0771 18Z" />
    <path class="pr-icon-bulk-primary" fill-rule="evenodd" clip-rule="evenodd" d="M15.75 7C15.75 7.41421 15.4142 7.75 15 7.75H9C8.58579 7.75 8.25 7.41421 8.25 7C8.25 6.58579 8.58579 6.25 9 6.25L15 6.25C15.4142 6.25 15.75 6.58579 15.75 7Z" />
    <path class="pr-icon-bulk-primary" fill-rule="evenodd" clip-rule="evenodd" d="M12.75 11C12.75 11.4142 12.4142 11.75 12 11.75H9C8.58579 11.75 8.25 11.4142 8.25 11C8.25 10.5858 8.58579 10.25 9 10.25H12C12.4142 10.25 12.75 10.5858 12.75 11Z" />
</svg>
