<svg width="24" height="24" viewBox="0 0 24 24" xmlns="http://www.w3.org/2000/svg">
<path class="pr-icon-bulk-secondary" d="M2.74219 5C2.74219 2.79086 4.53305 1 6.74219 1H18.7422C19.2945 1 19.7422 1.44772 19.7422 2C19.7422 2.55228 19.2945 3 18.7422 3H6.74219C5.63762 3 4.74219 3.89543 4.74219 5C4.74219 6.10457 5.63762 7 6.74219 7H16.499V6.5C16.499 6.22386 16.2752 6 15.999 6H7.49902C6.94674 6 6.49902 5.55228 6.49902 5C6.49902 4.44772 6.94674 4 7.49902 4H15.999C17.3797 4 18.499 5.11929 18.499 6.5L18.499 7.25C20.0178 7.25 21.249 8.48122 21.249 10V14.0564C21.249 15.8942 21.2491 17.3498 21.0959 18.489C20.9383 19.6614 20.6061 20.6104 19.8578 21.3588C19.1094 22.1071 18.1605 22.4392 16.988 22.5969C15.8488 22.75 14.3932 22.75 12.5555 22.75H11.4426C9.60487 22.75 8.14921 22.75 7.01 22.5969C5.83758 22.4392 4.88863 22.1071 4.14027 21.3588C3.3919 20.6104 3.05979 19.6614 2.90216 18.489C2.749 17.3498 2.74901 15.8942 2.74902 14.0564V5.23582C2.74449 5.15779 2.74219 5.07917 2.74219 5Z" fill="currentColor"/>
<path class="pr-icon-bulk-primary" fill-rule="evenodd" clip-rule="evenodd" d="M10.7184 12.0869C10.9404 11.569 11.4526 11.25 12.0002 11.25C12.5478 11.25 13.06 11.569 13.282 12.0869L15.6896 17.7046C15.8527 18.0853 15.6764 18.5262 15.2956 18.6894C14.9149 18.8525 14.474 18.6762 14.3108 18.2954L13.6485 16.75H10.3519L9.68955 18.2954C9.52638 18.6762 9.08548 18.8525 8.70475 18.6894C8.32403 18.5262 8.14767 18.0853 8.31083 17.7046L10.7184 12.0869ZM10.9947 15.25H13.0056L12.0002 12.9039L10.9947 15.25Z" fill="currentColor"/>
</svg>
