<svg width="24" height="24" viewBox="0 0 24 24" xmlns="http://www.w3.org/2000/svg">
<path class="pr-icon-bulk-secondary" fill-rule="evenodd" clip-rule="evenodd" d="M13.9085 1.50499C13.3198 1.5 12.6846 1.5 12.0028 1.5H12H11.9972C11.3154 1.5 10.6802 1.5 10.0915 1.50499C9.53924 1.50967 9.09534 1.96117 9.10002 2.51343C9.1047 3.0657 9.55619 3.5096 10.1085 3.50492C10.3937 3.5025 10.6904 3.50127 11 3.50065V4.4C11 4.95228 11.4477 5.4 12 5.4C12.5523 5.4 13 4.95228 13 4.4V3.50065C13.3096 3.50127 13.6063 3.5025 13.8915 3.50492C14.4438 3.5096 14.8953 3.0657 14.9 2.51343C14.9046 1.96117 14.4607 1.50967 13.9085 1.50499ZM6.48285 3.73457C7.02582 3.63358 7.38413 3.11155 7.28314 2.56858C7.18216 2.0256 6.66013 1.6673 6.11715 1.76828C4.94998 1.98536 3.97523 2.39304 3.18414 3.18414C2.39304 3.97523 1.98536 4.94998 1.76828 6.11715C1.6673 6.66013 2.0256 7.18216 2.56858 7.28314C3.11155 7.38413 3.63358 7.02582 3.73457 6.48285C3.90406 5.57153 4.1801 5.0166 4.59835 4.59835C5.0166 4.1801 5.57153 3.90406 6.48285 3.73457ZM17.8828 1.76828C17.3399 1.6673 16.8178 2.0256 16.7169 2.56858C16.6159 3.11155 16.9742 3.63358 17.5172 3.73457C18.4285 3.90406 18.9834 4.1801 19.4016 4.59835C19.8199 5.0166 20.0959 5.57154 20.2654 6.48285C20.3664 7.02582 20.8884 7.38413 21.4314 7.28314C21.9744 7.18216 22.3327 6.66013 22.2317 6.11715C22.0146 4.94998 21.607 3.97523 20.8159 3.18414C20.0248 2.39304 19.05 1.98536 17.8828 1.76828ZM3.50492 10.1085C3.5096 9.55621 3.0657 9.10472 2.51343 9.10004C1.96117 9.09535 1.50967 9.53926 1.50499 10.0915C1.5 10.6802 1.5 11.3154 1.5 11.9972V12.0028C1.5 12.6847 1.5 13.3199 1.50499 13.9086C1.50967 14.4608 1.96117 14.9047 2.51343 14.9C3.0657 14.8954 3.5096 14.4439 3.50492 13.8916C3.50001 13.3122 3.5 12.685 3.5 12C3.5 11.3151 3.50001 10.6878 3.50492 10.1085ZM22.495 10.0915C22.4903 9.53926 22.0388 9.09535 21.4866 9.10004C20.9343 9.10472 20.4904 9.55621 20.4951 10.1085C20.5 10.6878 20.5 11.3151 20.5 12C20.5 12.685 20.5 13.3122 20.4951 13.8916C20.4904 14.4439 20.9343 14.8954 21.4866 14.9C22.0388 14.9047 22.4903 14.4608 22.495 13.9086C22.5 13.3197 22.5 12.6844 22.5 12.0023V11.9977C22.5 11.3157 22.5 10.6803 22.495 10.0915ZM3.73457 17.5172C3.63358 16.9742 3.11155 16.6159 2.56858 16.7169C2.0256 16.8178 1.6673 17.3399 1.76828 17.8828C1.98536 19.05 2.39304 20.0248 3.18414 20.8159C3.97523 21.607 4.94998 22.0146 6.11715 22.2317C6.66013 22.3327 7.18216 21.9744 7.28314 21.4314C7.38413 20.8884 7.02582 20.3664 6.48285 20.2654C5.57153 20.0959 5.0166 19.8199 4.59835 19.4016C4.1801 18.9834 3.90406 18.4285 3.73457 17.5172ZM22.2317 17.8828C22.3327 17.3399 21.9744 16.8178 21.4314 16.7169C20.8884 16.6159 20.3664 16.9742 20.2654 17.5172C20.0959 18.4285 19.8199 18.9834 19.4016 19.4016C18.9834 19.8199 18.4285 20.0959 17.5172 20.2654C16.9742 20.3664 16.6159 20.8884 16.7169 21.4314C16.8178 21.9744 17.3399 22.3327 17.8828 22.2317C19.05 22.0146 20.0248 21.607 20.8159 20.8159C21.607 20.0248 22.0146 19.05 22.2317 17.8828ZM10.1086 20.4951C9.55637 20.4904 9.10487 20.9343 9.10019 21.4866C9.09551 22.0388 9.53941 22.4903 10.0917 22.495C10.6804 22.5 11.3157 22.5 11.9977 22.5H12H12.0031C12.6848 22.5 13.3199 22.5 13.9085 22.495C14.4607 22.4903 14.9046 22.0388 14.9 21.4866C14.8953 20.9343 14.4438 20.4904 13.8915 20.4951C13.6063 20.4975 13.3096 20.4987 13 20.4994V19.6C13 19.0477 12.5523 18.6 12 18.6C11.4477 18.6 11 19.0477 11 19.6V20.4994C10.6905 20.4987 10.3938 20.4975 10.1086 20.4951ZM13 9.15C13 8.59771 12.5523 8.15 12 8.15C11.4477 8.15 11 8.59772 11 9.15V14.85C11 15.4023 11.4477 15.85 12 15.85C12.5523 15.85 13 15.4023 13 14.85V9.15Z" fill="currentColor"/>
<path class="pr-icon-bulk-primary" fill-rule="evenodd" clip-rule="evenodd" d="M2.51343 9.1016C3.0657 9.10628 3.5096 9.55778 3.50492 10.11C3.50001 10.6894 3.5 11.3166 3.5 12.0016C3.5 12.6865 3.50001 13.3138 3.50492 13.8932C3.5096 14.4454 3.0657 14.8969 2.51343 14.9016C1.96117 14.9063 1.50967 14.4624 1.50499 13.9101C1.5 13.3214 1.5 12.6862 1.5 12.0044V11.9987C1.5 11.3169 1.5 10.6817 1.50499 10.0931C1.50967 9.54082 1.96117 9.09692 2.51343 9.1016ZM21.4866 9.1016C22.0388 9.09692 22.4903 9.54082 22.495 10.0931C22.5 10.6819 22.5 11.3172 22.5 11.9992V12.0039C22.5 12.6859 22.5 13.3213 22.495 13.9101C22.4903 14.4624 22.0388 14.9063 21.4866 14.9016C20.9343 14.8969 20.4904 14.4454 20.4951 13.8932C20.5 13.3138 20.5 12.6865 20.5 12.0016C20.5 11.3166 20.5 10.6894 20.4951 10.11C20.4904 9.55778 20.9343 9.10628 21.4866 9.1016Z" fill="currentColor"/>
<path class="pr-icon-bulk-primary" fill-rule="evenodd" clip-rule="evenodd" d="M1.5 12C1.5 11.4477 1.94772 11 2.5 11H21.5C22.0523 11 22.5 11.4477 22.5 12C22.5 12.5523 22.0523 13 21.5 13H2.5C1.94772 13 1.5 12.5523 1.5 12Z" fill="currentColor"/>
</svg>
