<svg width="24" height="24" viewBox="0 0 24 24" xmlns="http://www.w3.org/2000/svg">
<path opacity="0.4" fill-rule="evenodd" clip-rule="evenodd" d="M7 5C7 4.44771 6.55228 4 6 4C5.44772 4 5 4.44771 5 5L5 19C5 19.5523 5.44772 20 6 20C6.55228 20 7 19.5523 7 19L7 5ZM19 5C19 4.44771 18.5523 4 18 4C17.4477 4 17 4.44771 17 5V19C17 19.5523 17.4477 20 18 20C18.5523 20 19 19.5523 19 19V5ZM10 9C10.5523 9 11 9.44771 11 10V15C11 15.5523 10.5523 16 10 16C9.44772 16 9 15.5523 9 15V10C9 9.44771 9.44772 9 10 9ZM15 10C15 9.44771 14.5523 9 14 9C13.4477 9 13 9.44771 13 10L13 15C13 15.5523 13.4477 16 14 16C14.5523 16 15 15.5523 15 15L15 10Z" fill="currentColor"/>
<path fill-rule="evenodd" clip-rule="evenodd" d="M6 5C6.33435 5 6.64658 5.1671 6.83205 5.4453C7.83425 6.9486 9.56998 9 12 9C14.43 9 16.1658 6.9486 17.1679 5.4453C17.3534 5.1671 17.6656 5 18 5C18.3344 5 18.6466 5.1671 18.8321 5.4453C19.2315 6.04441 19.7293 6.44176 20.1731 6.68834C20.3953 6.81176 20.5976 6.8938 20.7573 6.94337C20.9007 6.98785 20.9811 6.99749 20.9979 6.99949C21.0014 6.99992 21.0021 7 21 7C21.5523 7 22 7.44772 22 8C22 8.55228 21.5523 9 21 9C20.5208 9 19.8507 8.79712 19.2019 8.43666C18.8323 8.23134 18.4418 7.96 18.0659 7.61082C16.8594 9.12862 14.8441 11 12 11C9.15594 11 7.14057 9.12863 5.93406 7.61082C5.55821 7.96 5.16772 8.23134 4.79814 8.43666C4.14931 8.79712 3.4792 9 3 9C2.44772 9 2 8.55228 2 8C2 7.44772 2.44772 7 3 7C2.99785 7 2.99856 6.99992 3.00209 6.99949C3.01886 6.99749 3.09935 6.98785 3.24266 6.94337C3.4024 6.8938 3.6047 6.81176 3.82686 6.68834C4.27071 6.44176 4.76854 6.04441 5.16795 5.4453C5.35342 5.1671 5.66565 5 6 5Z" fill="currentColor"/>
<path fill-rule="evenodd" clip-rule="evenodd" d="M1 15C1 14.4477 1.44772 14 2 14H22C22.5523 14 23 14.4477 23 15C23 15.5523 22.5523 16 22 16H2C1.44772 16 1 15.5523 1 15Z" fill="currentColor"/>
</svg>
