<svg width="24" height="24" viewBox="0 0 24 24" xmlns="http://www.w3.org/2000/svg">
<path class="pr-icon-bulk-primary" fill-rule="evenodd" clip-rule="evenodd" d="M15.1679 1.41789C15.5584 1.02737 16.1916 1.02737 16.5821 1.41789L18.875 3.71079L21.1679 1.41789C21.5584 1.02737 22.1916 1.02737 22.5821 1.41789C22.9726 1.80842 22.9726 2.44158 22.5821 2.83211L20.2892 5.125L22.5821 7.41789C22.9726 7.80842 22.9726 8.44158 22.5821 8.83211C22.1916 9.22263 21.5584 9.22263 21.1679 8.83211L18.875 6.53921L16.5821 8.83211C16.1916 9.22263 15.5584 9.22263 15.1679 8.83211C14.7774 8.44158 14.7774 7.80842 15.1679 7.41789L17.4608 5.125L15.1679 2.83211C14.7774 2.44158 14.7774 1.80842 15.1679 1.41789Z" fill="currentColor"/>
<path class="pr-icon-bulk-secondary" d="M13.3752 2.15348C13.3711 1.79517 13.3691 1.61602 13.2898 1.53101C13.2105 1.44601 13.0695 1.4346 12.7876 1.41178C12.4866 1.38742 12.1822 1.375 11.875 1.375C5.97023 1.375 1.125 5.96338 1.125 11.6917C1.125 14.4394 2.24472 16.9315 4.05951 18.7744C4.32727 19.0463 4.41437 19.325 4.37588 19.5302C4.23363 20.2763 3.91197 20.9695 3.44417 21.5449C3.27724 21.7502 3.23086 22.0283 3.32213 22.2767C3.4134 22.525 3.62881 22.7069 3.88896 22.7553C5.50004 23.055 7.17042 22.785 8.60214 22.0236C8.83568 21.8994 8.98822 21.8185 9.10275 21.7641C9.13431 21.7469 9.21834 21.7157 9.30196 21.7286C9.41409 21.7439 9.56479 21.772 9.80198 21.8166C10.4853 21.9449 11.1791 22.0093 11.875 22.0084C17.7798 22.0084 22.625 17.42 22.625 11.6917C22.625 11.5378 22.6215 11.3846 22.6146 11.2324C22.6013 10.9401 22.5946 10.7939 22.5082 10.7109C22.4218 10.6278 22.2352 10.6269 21.8621 10.625C21.2266 10.6217 20.5921 10.3776 20.1072 9.89277L19.2993 9.0848C19.0993 8.8848 18.9993 8.7848 18.875 8.7848C18.7507 8.7848 18.6507 8.8848 18.4507 9.0848L17.6428 9.89277C16.6665 10.8691 15.0835 10.8691 14.1072 9.89277C13.1309 8.91646 13.1309 7.33354 14.1072 6.35723L14.9152 5.54926C15.1152 5.34926 15.2152 5.24926 15.2152 5.125C15.2152 5.00074 15.1152 4.90074 14.9152 4.70074L14.1072 3.89277C13.6263 3.41186 13.3823 2.78376 13.3752 2.15348Z" fill="currentColor"/>
<path class="pr-icon-bulk-primary" fill-rule="evenodd" clip-rule="evenodd" d="M6.875 12.125C6.875 11.5727 7.32272 11.125 7.875 11.125H7.88397C8.43626 11.125 8.88397 11.5727 8.88397 12.125C8.88397 12.6773 8.43626 13.125 7.88397 13.125H7.875C7.32272 13.125 6.875 12.6773 6.875 12.125ZM10.8705 12.125C10.8705 11.5727 11.3182 11.125 11.8705 11.125H11.8795C12.4318 11.125 12.8795 11.5727 12.8795 12.125C12.8795 12.6773 12.4318 13.125 11.8795 13.125H11.8705C11.3182 13.125 10.8705 12.6773 10.8705 12.125Z" fill="currentColor"/>
</svg>
