<svg width="24" height="24" viewBox="0 0 24 24" xmlns="http://www.w3.org/2000/svg">
<path opacity="0.4" d="M12 1.25C6.09523 1.25 1.25 5.83838 1.25 11.5667C1.25 14.3144 2.36972 16.8065 4.18451 18.6494C4.45227 18.9213 4.53937 19.2 4.50088 19.4052C4.35863 20.1513 4.03697 20.8445 3.56917 21.4199C3.40224 21.6252 3.35586 21.9033 3.44713 22.1517C3.5384 22.4 3.75381 22.5819 4.01396 22.6303C5.62504 22.93 7.29542 22.66 8.72714 21.8986C8.96068 21.7744 9.11322 21.6935 9.22775 21.6391C9.25931 21.6219 9.34334 21.5907 9.42696 21.6036C9.53909 21.6189 9.68979 21.647 9.92698 21.6916C10.6103 21.8199 11.3041 21.8843 12 21.8834C17.9048 21.8834 22.75 17.295 22.75 11.5667C22.75 5.83838 17.9048 1.25 12 1.25Z" fill="currentColor"/>
<path d="M8 11C7.44772 11 7 11.4477 7 12C7 12.5523 7.44772 13 8 13H8.00897C8.56126 13 9.00897 12.5523 9.00897 12C9.00897 11.4477 8.56126 11 8.00897 11H8Z" fill="currentColor"/>
<path d="M11.9955 11C11.4432 11 10.9955 11.4477 10.9955 12C10.9955 12.5523 11.4432 13 11.9955 13H12.0045C12.5568 13 13.0045 12.5523 13.0045 12C13.0045 11.4477 12.5568 11 12.0045 11H11.9955Z" fill="currentColor"/>
<path d="M15.991 11C15.4387 11 14.991 11.4477 14.991 12C14.991 12.5523 15.4387 13 15.991 13H16C16.5523 13 17 12.5523 17 12C17 11.4477 16.5523 11 16 11H15.991Z" fill="currentColor"/>
</svg>
