<svg width="24" height="24" viewBox="0 0 24 24" xmlns="http://www.w3.org/2000/svg">
    <path class="pr-icon-bulk-primary" fill-rule="evenodd" clip-rule="evenodd" d="M22 5.50586C22.5523 5.50586 23 5.05814 23 4.50586C23 3.95357 22.5523 3.50586 22 3.50586L17.5 3.50586L17.5 2.9116C17.5001 2.73596 17.5003 2.52031 17.4782 2.34387L17.4778 2.34053C17.462 2.21408 17.3902 1.63804 16.8246 1.36368C16.2577 1.08872 15.7576 1.39065 15.6494 1.45597L15.6454 1.45841C15.4924 1.55062 15.3215 1.68477 15.1809 1.79511L15.1507 1.81885C14.7748 2.11348 14.2906 2.49545 13.8996 2.87588C13.7045 3.06571 13.5033 3.28297 13.3444 3.51388C13.2032 3.71914 13 4.06933 13 4.5C13 4.93067 13.2032 5.28086 13.3444 5.48612C13.5033 5.71703 13.7045 5.93429 13.8996 6.12412C14.2906 6.50455 14.7748 6.88652 15.1507 7.18115L15.1809 7.20488C15.3215 7.31523 15.4923 7.44938 15.6454 7.54159L15.6494 7.54403C15.7576 7.60935 16.2578 7.91128 16.8246 7.63632C17.3902 7.36196 17.462 6.78592 17.4778 6.65947L17.4782 6.65613C17.5003 6.47969 17.5001 6.26403 17.5 6.0884L17.5 5.50586L22 5.50586Z" />
    <path class="pr-icon-bulk-secondary" d="M12.8536 7.19927C13.3109 7.64417 14.0182 8.24221 14.8839 8.8341C15.0477 8.93399 16.1724 9.61991 17.4792 8.98596C18.2705 8.60211 18.6399 7.97189 18.8132 7.49213C18.9041 7.24061 18.9496 7.11481 19.0271 7.06036C19.1047 7.0059 19.2189 7.0059 19.4472 7.0059H21.2803C21.4603 7.0059 21.5503 7.0059 21.624 7.05269C21.6976 7.09948 21.7344 7.17779 21.8079 7.33441C22.4128 8.62363 22.75 10.0555 22.75 11.5667C22.75 17.295 17.9048 21.8834 12 21.8834C11.3041 21.8843 10.6103 21.8199 9.92698 21.6916C9.68979 21.647 9.53909 21.6189 9.42696 21.6036C9.34334 21.5907 9.25931 21.6219 9.22775 21.6391C9.11322 21.6935 8.96068 21.7744 8.72714 21.8986C7.29542 22.66 5.62504 22.93 4.01396 22.6303C3.75381 22.5819 3.5384 22.4 3.44713 22.1517C3.35586 21.9033 3.40224 21.6252 3.56917 21.4199C4.03697 20.8445 4.35863 20.1513 4.50088 19.4052C4.53937 19.2 4.45227 18.9213 4.18451 18.6494C2.36972 16.8065 1.25 14.3144 1.25 11.5667C1.25 5.83838 6.09523 1.25 12 1.25C12.2269 1.25 12.4522 1.25678 12.6758 1.27013L12.6866 1.27088C12.9391 1.29261 13.0526 1.59784 12.8756 1.77924L12.8536 1.80082C12.6255 2.02271 12.3466 2.31781 12.1086 2.66377C11.914 2.94666 11.5 3.60824 11.5 4.50004C11.5 5.39185 11.914 6.05343 12.1086 6.33632C12.3466 6.68227 12.6255 6.97738 12.8536 7.19927Z" />
    <path class="pr-icon-bulk-primary" fill-rule="evenodd" clip-rule="evenodd" d="M7 12C7 11.4477 7.44772 11 8 11H8.00897C8.56126 11 9.00897 11.4477 9.00897 12C9.00897 12.5523 8.56126 13 8.00897 13H8C7.44772 13 7 12.5523 7 12ZM10.9955 12C10.9955 11.4477 11.4432 11 11.9955 11H12.0045C12.5568 11 13.0045 11.4477 13.0045 12C13.0045 12.5523 12.5568 13 12.0045 13H11.9955C11.4432 13 10.9955 12.5523 10.9955 12ZM14.991 12C14.991 11.4477 15.4387 11 15.991 11H16C16.5523 11 17 11.4477 17 12C17 12.5523 16.5523 13 16 13H15.991C15.4387 13 14.991 12.5523 14.991 12Z" />
</svg>
