<svg width="24" height="24" viewBox="0 0 24 24" xmlns="http://www.w3.org/2000/svg">
<path opacity="0.4" d="M3 21.75C3 21.1977 3.44772 20.75 4 20.75H5.25V3.2C5.25 2.65805 5.41814 2.14599 5.80393 1.77108C6.18613 1.39966 6.69234 1.25 7.2 1.25L7.29034 1.25H7.29038C8.87711 1.24996 9.76693 1.24994 10.5252 1.37004C14.6972 2.03081 17.9692 5.30281 18.63 9.47477C18.7501 10.2331 18.75 11.1229 18.75 12.7096V12.7097L18.75 20.75H20C20.5523 20.75 21 21.1977 21 21.75C21 22.3023 20.5523 22.75 20 22.75H4C3.44772 22.75 3 22.3023 3 21.75Z" fill="currentColor"/>
<path d="M3 21.75C3 21.1977 3.44772 20.75 4 20.75H20C20.5523 20.75 21 21.1977 21 21.75C21 22.3023 20.5523 22.75 20 22.75H4C3.44772 22.75 3 22.3023 3 21.75Z" fill="currentColor"/>
<path d="M18.75 16.75H14C13.5858 16.75 13.25 16.4142 13.25 16C13.25 15.5858 13.5858 15.25 14 15.25H18.75L18.75 16.75Z" fill="currentColor"/>
<path d="M18.75 12.75H14C13.5858 12.75 13.25 12.4142 13.25 12C13.25 11.5858 13.5858 11.25 14 11.25H18.7446C18.75 11.6648 18.75 12.1427 18.75 12.7096V12.75Z" fill="currentColor"/>
<path d="M18.487 8.75H14C13.5858 8.75 13.25 8.41421 13.25 8C13.25 7.58579 13.5858 7.25 14 7.25H18.0007C18.2012 7.73139 18.3645 8.23258 18.487 8.75Z" fill="currentColor"/>
</svg>
