<svg width="24" height="24" viewBox="0 0 24 24" xmlns="http://www.w3.org/2000/svg">
<path fill-rule="evenodd" clip-rule="evenodd" d="M20.75 12.0715V11.8999C20.7505 11.8837 20.7505 11.8673 20.75 11.851V9.96321C20.9855 9.90482 21.2279 9.875 21.4721 9.875H22C22.5523 9.875 23 10.3227 23 10.875C23 11.4273 22.5523 11.875 22 11.875H21.4721C21.3169 11.875 21.1638 11.9111 21.0249 11.9806C20.9359 12.0251 20.8433 12.0551 20.75 12.0715ZM16.5 19.5818C16.7759 19.565 17.034 19.5417 17.2744 19.5094C17.7094 19.4508 18.12 19.3589 18.5 19.2077V21.875C18.5 22.4273 18.0523 22.875 17.5 22.875C16.9477 22.875 16.5 22.4273 16.5 21.875V19.5818ZM5.5 19.2077C5.88004 19.3589 6.29058 19.4508 6.72564 19.5094C6.96601 19.5417 7.22409 19.565 7.5 19.5818V21.875C7.5 22.4273 7.05228 22.875 6.5 22.875C5.94772 22.875 5.5 22.4273 5.5 21.875V19.2077ZM3.25 9.96321V12.0715C3.15669 12.0551 3.06415 12.0251 2.97508 11.9806C2.83622 11.9111 2.68311 11.875 2.52786 11.875H2C1.44772 11.875 1 11.4273 1 10.875C1 10.3227 1.44772 9.875 2 9.875H2.52786C2.77208 9.875 3.01454 9.90482 3.25 9.96321Z" fill="currentColor"/>
<path class="pr-icon-bulk-secondary" d="M12.0711 1.125H11.9289H11.9289C10.1561 1.12498 8.72712 1.12496 7.60329 1.27628C6.43648 1.43339 5.45405 1.76949 4.67379 2.55093C3.89353 3.33237 3.55792 4.31627 3.40105 5.48483C3.24996 6.61035 3.24998 8.04141 3.25 9.81684V9.81687V12.8779V12.878C3.24997 14.1964 3.24994 15.2837 3.36546 16.1441C3.48674 17.0476 3.75115 17.8454 4.38903 18.4843C5.02692 19.1231 5.82358 19.3879 6.72564 19.5094C7.58483 19.6251 8.67041 19.625 9.9869 19.625H14.013C15.3295 19.625 16.4152 19.6251 17.2744 19.5094C18.1764 19.3879 18.9731 19.1231 19.611 18.4843C20.2489 17.8454 20.5133 17.0476 20.6345 16.1441C20.7501 15.2836 20.75 14.1964 20.75 12.8779V11.8999C20.7505 11.8837 20.7505 11.8673 20.75 11.851V9.81695C20.75 8.04147 20.75 6.61038 20.599 5.48483C20.4421 4.31627 20.1065 3.33237 19.3262 2.55093C18.546 1.76949 17.5635 1.43339 16.3967 1.27628C15.2729 1.12496 13.8439 1.12498 12.0712 1.125H12.0711Z" fill="currentColor"/>
<path fill-rule="evenodd" clip-rule="evenodd" d="M18.4202 11.5089C18.6472 11.4605 18.8064 11.2584 18.8064 11.0263V9.89001C18.8064 8.02649 18.8044 6.72679 18.6727 5.74616C18.5448 4.79354 18.3109 4.28908 17.9522 3.92978C17.5934 3.57047 17.0897 3.33621 16.1385 3.20813C15.1593 3.07629 13.8616 3.07422 12.0009 3.07422C10.1401 3.07422 8.8424 3.07629 7.86325 3.20813C6.91206 3.33621 6.40835 3.57047 6.04958 3.92978C5.69082 4.28908 5.45691 4.79354 5.32902 5.74616C5.19738 6.72679 5.19531 8.02649 5.19531 9.89001V11.0262C5.19531 11.2583 5.35455 11.4604 5.58152 11.5088C7.30264 11.876 9.57267 12.1271 12.0011 12.1271C14.4293 12.1271 16.6991 11.876 18.4202 11.5089Z" fill="currentColor"/>
<path fill-rule="evenodd" clip-rule="evenodd" d="M4.5 15.875C4.5 15.4608 4.83579 15.125 5.25 15.125H5.75C6.16421 15.125 6.5 15.4608 6.5 15.875C6.5 16.2892 6.16421 16.625 5.75 16.625H5.25C4.83579 16.625 4.5 16.2892 4.5 15.875ZM9.25 15.875C9.25 15.4608 9.58579 15.125 10 15.125H14C14.4142 15.125 14.75 15.4608 14.75 15.875C14.75 16.2892 14.4142 16.625 14 16.625H10C9.58579 16.625 9.25 16.2892 9.25 15.875ZM17.5 15.875C17.5 15.4608 17.8358 15.125 18.25 15.125H18.75C19.1642 15.125 19.5 15.4608 19.5 15.875C19.5 16.2892 19.1642 16.625 18.75 16.625H18.25C17.8358 16.625 17.5 16.2892 17.5 15.875Z" fill="currentColor"/>
</svg>
