<svg width="24" height="24" viewBox="0 0 24 24" xmlns="http://www.w3.org/2000/svg">
<path class="pr-icon-bulk-secondary" d="M9.47557 7.34772C8.58818 7.34767 7.82432 7.34763 7.18577 7.43769C6.49007 7.53581 5.87664 7.74744 5.30657 8.20576C4.23723 9.06546 3.95623 10.3469 3.67691 11.6207L3.67391 11.6344C3.39612 12.8973 3.25 14.2078 3.25 15.5508C3.25 16.4744 3.3191 17.3826 3.45262 18.2707L3.45683 18.2988C3.65921 19.6511 3.86377 21.018 4.95986 21.9616C5.54377 22.4643 6.18445 22.6969 6.91582 22.8046C7.58646 22.9034 8.39284 22.9033 9.33077 22.9033H14.6692C15.6071 22.9033 16.4135 22.9034 17.0842 22.8046C17.8156 22.6969 18.4562 22.4643 19.0401 21.9616C20.1362 21.018 20.3408 19.651 20.5432 18.2987L20.5474 18.2707C20.6809 17.3826 20.75 16.4744 20.75 15.5508C20.75 14.2078 20.6039 12.8973 20.3261 11.6344L20.3231 11.6207C20.0438 10.3469 19.7628 9.06546 18.6934 8.20576C18.1234 7.74744 17.5099 7.53581 16.8142 7.43769C16.1757 7.34763 15.4118 7.34767 14.5244 7.34772H9.47557Z" fill="currentColor"/>
<path fill-rule="evenodd" clip-rule="evenodd" d="M6.52387 9.72199C6.75424 9.53678 7.01132 9.42664 7.4563 9.36388C7.94353 9.29516 8.56971 9.29297 9.53685 9.29297H10.3993C10.6822 9.29297 10.8236 9.29297 10.9115 9.38084C10.9993 9.4687 10.9993 9.61013 10.9993 9.89297V14.7485C10.9993 15.0314 10.9993 15.1728 10.9115 15.2607C10.8236 15.3485 10.6822 15.3485 10.3993 15.3485H5.80207C5.51399 15.3485 5.36995 15.3485 5.28127 15.2554C5.1926 15.1622 5.1995 15.022 5.21331 14.7414C5.25851 13.8229 5.38015 12.9248 5.57193 12.0529C5.91561 10.4903 6.03513 10.1149 6.52387 9.72199ZM12.9993 14.7485C12.9993 15.0314 12.9993 15.1728 13.0872 15.2607C13.1751 15.3485 13.3165 15.3485 13.5993 15.3485H18.1959C18.484 15.3485 18.628 15.3485 18.7167 15.2554C18.8053 15.1622 18.7984 15.022 18.7846 14.7414C18.7394 13.8229 18.6178 12.9248 18.426 12.0529C18.0823 10.4903 17.9628 10.1149 17.4741 9.72199C17.2437 9.53678 16.9866 9.42664 16.5416 9.36388C16.0544 9.29516 15.4282 9.29297 14.4611 9.29297H13.5993C13.3165 9.29297 13.1751 9.29297 13.0872 9.38084C12.9993 9.4687 12.9993 9.61013 12.9993 9.89297V14.7485Z" fill="currentColor"/>
<path class="pr-icon-bulk-secondary" d="M14.5806 3.09766L13.7234 4.59766H11.4199L12.2771 3.09766H14.5806Z" fill="currentColor"/>
<path d="M3 2.09766C3 1.54537 3.44772 1.09766 4 1.09766H20C20.5523 1.09766 21 1.54537 21 2.09766C21 2.64994 20.5523 3.09766 20 3.09766H4C3.44772 3.09766 3 2.64994 3 2.09766Z" fill="currentColor"/>
<path d="M15 4.59766C15.5523 4.59766 16 5.04537 16 5.59766C16 6.14994 15.5523 6.59766 15 6.59766H9C8.44772 6.59766 8 6.14994 8 5.59766C8 5.04537 8.44772 4.59766 9 4.59766H15Z" fill="currentColor"/>
</svg>
