<svg width="24" height="24" viewBox="0 0 24 24" xmlns="http://www.w3.org/2000/svg">
<path class="pr-icon-bulk-secondary" d="M5.31726 1.28657C5.88395 1.40369 6.33524 1.78443 6.61564 2.28746L7.50885 3.88991C7.83786 4.48011 8.11473 4.9768 8.29554 5.40857C8.48735 5.86658 8.60126 6.31824 8.54919 6.8176C8.49711 7.31696 8.29246 7.7354 8.01029 8.14399C7.74428 8.52917 7.37088 8.95804 6.92718 9.46767L5.61417 10.9759C5.37889 11.2461 5.26124 11.3812 5.25049 11.5501C5.23974 11.719 5.33616 11.8633 5.529 12.1518C7.17259 14.6109 9.38773 16.8268 11.8488 18.4718C12.1374 18.6647 12.2816 18.7611 12.4505 18.7503C12.6194 18.7396 12.7546 18.6219 13.0248 18.3866L14.5331 17.0736C15.0427 16.6299 15.4716 16.2565 15.8568 15.9905C16.2653 15.7083 16.6838 15.5036 17.1831 15.4516C17.6825 15.3995 18.1342 15.5134 18.5922 15.7052C19.0239 15.886 19.5206 16.1629 20.1107 16.4918L20.1109 16.4919L21.7133 17.3851C22.2163 17.6655 22.5971 18.1168 22.7142 18.6835C22.8325 19.2561 22.658 19.8316 22.2724 20.3047C20.8735 22.021 18.6322 23.1139 16.281 22.6396C14.8358 22.348 13.4098 21.8623 11.6851 20.8732C8.2197 18.8858 5.11263 15.777 3.12755 12.3157C2.13843 10.591 1.65272 9.165 1.36118 7.71974C0.88688 5.36852 1.97971 3.12724 3.69608 1.72833C4.16911 1.34279 4.74466 1.16822 5.31726 1.28657Z" fill="currentColor"/>
<path d="M20.9426 4.66643C21.127 5.18702 20.8544 5.75852 20.3338 5.9429C19.8002 6.1319 19.1837 6.53876 18.5307 7.11148C17.888 7.67513 17.2628 8.35205 16.7091 9.01586C16.1572 9.67736 15.6885 10.3111 15.3574 10.7801C15.1922 11.0141 15.0622 11.2058 14.9743 11.3379L14.8441 11.5365C14.6508 11.8406 14.3087 12.0174 13.9489 11.999C13.5889 11.9805 13.2668 11.7698 13.1056 11.4475C12.6649 10.5661 12.2696 10.2152 12.0703 10.0823C11.986 10.0261 11.929 10.0036 11.9064 9.99595C11.398 9.94874 11 9.52099 11 9.00027C11 8.44799 11.4477 8.00027 12 8.00027C12.0824 8.00107 12.2871 8.01614 12.4466 8.07C12.6545 8.12939 12.9053 8.23529 13.1797 8.41822C13.454 8.60107 13.7416 8.85384 14.0304 9.1997C14.3456 8.76895 14.734 8.26128 15.1733 7.73468C15.7666 7.02349 16.465 6.26292 17.212 5.60781C17.9486 4.96179 18.788 4.36865 19.6662 4.05765C20.1868 3.87327 20.7582 4.14583 20.9426 4.66643Z" fill="currentColor"/>
</svg>
