<svg width="24" height="24" viewBox="0 0 24 24" xmlns="http://www.w3.org/2000/svg">
<path class="pr-icon-bulk-secondary" d="M19.8551 3.35515C16.8741 1.52662 14.1999 2.25537 12.5844 3.46861C12.3186 3.6682 12.1362 3.8048 12.0004 3.89704C11.8646 3.8048 11.6822 3.6682 11.4164 3.46861C9.80088 2.25537 7.12665 1.52662 4.14567 3.35515C2.08443 4.61952 0.924601 7.2606 1.33158 10.2951C1.74053 13.3443 3.71412 16.7929 7.89372 19.8865C9.34509 20.9614 10.4103 21.7503 12.0004 21.7503C13.5904 21.7503 14.6557 20.9614 16.1071 19.8865C20.2867 16.7929 22.2602 13.3443 22.6692 10.2951C23.0762 7.2606 21.9163 4.61952 19.8551 3.35515Z" fill="currentColor"/>
<path class="pr-icon-bulk-primary" fill-rule="evenodd" clip-rule="evenodd" d="M11.4916 8.00022C11.8503 8.00772 12.1774 8.20675 12.349 8.5218L14.0256 11.601C14.1257 11.7611 14.1787 11.8444 14.2219 11.9037C14.2335 11.9197 14.2414 11.9296 14.2461 11.9352C14.2741 11.9545 14.3173 11.9743 14.414 11.9872C14.5253 12.002 14.6314 12.0015 14.8076 12.0005C14.8562 12.0003 14.91 12 14.9707 12H15.9707C16.523 12 16.9707 12.4477 16.9707 13C16.9707 13.5523 16.523 14 15.9707 14H14.9707C14.9392 14 14.9024 14.0008 14.861 14.0016C14.4748 14.0096 13.6843 14.0259 13.0184 13.5144C12.7136 13.2804 12.5172 12.9635 12.3553 12.7026C12.3412 12.6798 12.3273 12.6574 12.3137 12.6356C12.3031 12.6186 12.293 12.6013 12.2834 12.5838L11.4286 11.0138L9.3282 14.5145C9.155 14.8032 8.84819 14.9853 8.51184 14.9992C8.17549 15.013 7.85475 14.8567 7.65841 14.5832L6.12277 12.4445C5.99445 12.2905 5.91242 12.1924 5.8291 12.1122C5.76197 12.0476 5.7294 12.0307 5.72567 12.0289C5.68426 12.0141 5.60796 12 4.9707 12H2.9707C2.41842 12 1.9707 11.5523 1.9707 11C1.9707 10.4477 2.41842 10 2.9707 10H4.9707C5.0074 10 5.04415 9.99992 5.08091 9.99984C5.53524 9.99883 5.99285 9.99782 6.41103 10.15L6.41103 10.15C7.00643 10.3666 7.41721 10.8684 7.63095 11.1295C7.64956 11.1522 7.66668 11.1731 7.6823 11.1919C7.69767 11.2103 7.71237 11.2293 7.72638 11.2488L8.39582 12.1812L10.6132 8.48551C10.7978 8.1779 11.133 7.99272 11.4916 8.00022Z" fill="currentColor"/>
</svg>
