<svg width="24" height="24" viewBox="0 0 24 24" xmlns="http://www.w3.org/2000/svg">
<path fill-rule="evenodd" clip-rule="evenodd" d="M22.6025 15.8467C22.5134 15.75 22.3642 15.75 22.0657 15.75L1.93356 15.75C1.63509 15.75 1.48586 15.75 1.39675 15.8467C1.30764 15.9434 1.31952 16.0889 1.3433 16.3801C1.35229 16.4901 1.36213 16.5977 1.37292 16.7028C1.49834 17.9247 1.75794 18.9087 2.33675 19.7497C2.68895 20.2613 3.1164 20.713 3.6043 21.0872C4.41203 21.7066 5.36091 21.9853 6.53168 22.1191C7.67602 22.25 9.1175 22.25 10.9521 22.25H13.0472C14.8818 22.25 16.3233 22.25 17.4676 22.1191C18.6384 21.9853 19.5872 21.7066 20.395 21.0872C20.8829 20.713 21.3103 20.2613 21.6625 19.7497C22.2413 18.9087 22.5009 17.9247 22.6264 16.7028C22.6371 16.5977 22.647 16.4901 22.656 16.3801C22.6798 16.0889 22.6916 15.9434 22.6025 15.8467ZM7.00001 18C6.44772 18 6.00001 18.4477 6.00001 19C6.00001 19.5523 6.44772 20 7.00001 20H7.00897C7.56125 20 8.00897 19.5523 8.00897 19C8.00897 18.4477 7.56125 18 7.00897 18H7.00001ZM10.991 18C10.4388 18 9.99104 18.4477 9.99104 19C9.99104 19.5523 10.4388 20 10.991 20H11C11.5523 20 12 19.5523 12 19C12 18.4477 11.5523 18 11 18H10.991Z" fill="currentColor"/>
<path opacity="0.4" d="M20.3953 2.91283C19.5876 2.29337 18.6387 2.01475 17.468 1.88085C16.3236 1.74998 14.8821 1.74999 13.0475 1.75H10.9525C9.11788 1.74999 7.67639 1.74998 6.53204 1.88085C5.36127 2.01475 4.41239 2.29338 3.60466 2.91283C3.11677 3.287 2.68931 3.73866 2.33711 4.25035C1.7583 5.09127 1.4987 6.07528 1.37328 7.2972C1.24999 8.49844 1.24999 10.0143 1.25 11.9568V12.0432C1.25 12.6178 1.25 13.1551 1.25319 13.6579C1.25495 13.9364 1.25584 14.0756 1.34359 14.1628C1.43134 14.25 1.57121 14.25 1.85094 14.25H22.1491C22.4288 14.25 22.5687 14.25 22.6564 14.1628C22.7442 14.0756 22.745 13.9364 22.7468 13.6579C22.75 13.1551 22.75 12.6178 22.75 12.0432V11.9568C22.75 10.0143 22.75 8.49844 22.6267 7.2972C22.5013 6.07528 22.2417 5.09127 21.6629 4.25034C21.3107 3.73866 20.8832 3.287 20.3953 2.91283Z" fill="currentColor"/>
<path d="M13.1977 5.00137C13.5235 4.98431 13.8372 5.12726 14.038 5.38436L16.1077 8.03207C16.1481 8.08042 16.2667 8.17937 16.4172 8.18837C16.5429 8.20181 16.6654 8.20126 16.8453 8.20045C16.8926 8.20023 16.9438 8.2 17 8.2C17.5523 8.2 18 8.64772 18 9.2C18 9.75229 17.5523 10.2 17 10.2C16.9664 10.2 16.9281 10.2006 16.8855 10.2013C16.5 10.2075 15.7684 10.2193 15.1333 9.82912C14.8181 9.63544 14.608 9.36442 14.4438 9.15261L13.3411 7.74098L11.598 10.53C11.4384 10.7854 11.1722 10.9552 10.8733 10.9924C10.5744 11.0295 10.2747 10.93 10.0575 10.7214L8.23738 8.97411C8.10286 8.84495 8.02308 8.76835 7.94176 8.70571C7.86781 8.64875 7.83178 8.63564 7.81902 8.63193C7.74263 8.6097 7.63208 8.6 7 8.6C6.44772 8.6 6 8.15229 6 7.6C6 7.04772 6.44772 6.6 7 6.6L7.10413 6.59991C7.567 6.59929 7.99004 6.59872 8.37789 6.7116C8.95208 6.87871 9.36327 7.27904 9.58543 7.49532L10.5545 8.42607L12.402 5.47C12.5749 5.19334 12.8719 5.01843 13.1977 5.00137Z" fill="currentColor"/>
</svg>
