<svg width="24" height="24" viewBox="0 0 24 24" xmlns="http://www.w3.org/2000/svg">
<g opacity="0.4">
<path d="M5.33882 4.27458C5.13391 4.06966 5.14495 3.73311 5.37272 3.55394C7.20716 2.11083 9.52122 1.25 12.0363 1.25C17.5583 1.25 22.1112 5.39949 22.7468 10.7505C22.781 11.0381 22.5509 11.2838 22.2612 11.2838H16.3935C16.1533 11.2838 15.9503 11.1117 15.8813 10.8816C15.3853 9.22785 13.8515 8.02282 12.0363 8.02282C11.3481 8.02282 10.7002 8.19607 10.1341 8.50135C9.92272 8.61534 9.65762 8.59338 9.4878 8.42355L5.33882 4.27458Z" fill="currentColor"/>
<path d="M4.27458 5.33882C4.06966 5.13391 3.73311 5.14495 3.55394 5.37272C2.11083 7.20716 1.25 9.52122 1.25 12.0363C1.25 17.5583 5.39949 22.1112 10.7505 22.7468C11.0381 22.781 11.2838 22.5509 11.2838 22.2612V16.3935C11.2838 16.1533 11.1117 15.9503 10.8816 15.8813C9.22785 15.3853 8.02282 13.8515 8.02282 12.0363C8.02282 11.3481 8.19607 10.7002 8.50135 10.1341C8.61534 9.92272 8.59338 9.65762 8.42355 9.4878L4.27458 5.33882Z" fill="currentColor"/>
<path d="M13.191 15.8813C12.961 15.9503 12.7889 16.1533 12.7889 16.3935V22.2612C12.7889 22.5509 13.0346 22.781 13.3223 22.7468C18.2516 22.1612 22.1612 18.2516 22.7468 13.3223C22.781 13.0346 22.5509 12.7889 22.2612 12.7889H16.3935C16.1533 12.7889 15.9503 12.961 15.8813 13.191C15.495 14.4791 14.4791 15.495 13.191 15.8813Z" fill="currentColor"/>
</g>
<path d="M5.3391 4.27458C5.13419 4.06966 5.14524 3.73311 5.373 3.55394C7.20744 2.11083 9.5215 1.25 12.0366 1.25C17.5586 1.25 22.1115 5.39949 22.7471 10.7505C22.7813 11.0381 22.5511 11.2838 22.2615 11.2838H16.3938C16.1536 11.2838 15.9505 11.1117 15.8815 10.8816C15.3856 9.22785 13.8518 8.02282 12.0366 8.02282C11.3483 8.02282 10.7005 8.19607 10.1344 8.50135C9.92301 8.61534 9.65791 8.59338 9.48808 8.42355L5.3391 4.27458Z" fill="currentColor"/>
</svg>
