<svg width="24" height="24" viewBox="0 0 24 24" xmlns="http://www.w3.org/2000/svg">
<path class="pr-icon-bulk-primary" fill-rule="evenodd" clip-rule="evenodd" d="M13 9C13.5523 9 14 9.44772 14 10L14 21C14 21.5523 13.5523 22 13 22C12.4477 22 12 21.5523 12 21L12 10C12 9.44772 12.4477 9 13 9Z" fill="currentColor"/>
<path class="pr-icon-bulk-secondary" fill-rule="evenodd" clip-rule="evenodd" d="M18 12C18.5523 12 19 12.4477 19 13L19 21C19 21.5523 18.5523 22 18 22C17.4477 22 17 21.5523 17 21L17 13C17 12.4477 17.4477 12 18 12Z" fill="currentColor"/>
<path class="pr-icon-bulk-secondary" fill-rule="evenodd" clip-rule="evenodd" d="M8 12C8.55228 12 9 12.4477 9 13L9 20C9 20.5523 8.55229 21 8 21C7.44772 21 7 20.5523 7 20L7 13C7 12.4477 7.44772 12 8 12Z" fill="currentColor"/>
<path class="pr-icon-bulk-primary" fill-rule="evenodd" clip-rule="evenodd" d="M15.0778 7.09444C13.9806 5.63519 12.0194 5.63519 10.9222 7.09444C10.0786 8.21642 9.00629 8.69335 7.93028 8.88119C7.14035 9.0191 6.28338 9.00508 5.55227 8.99313C5.3581 8.98996 5.1728 8.98693 5 8.98693H3C2.44772 8.98693 2 8.53921 2 7.98693C2 7.43464 2.44772 6.98693 3 6.98693H5C5.24744 6.98693 5.48186 6.99042 5.70608 6.99377C6.40305 7.00416 7.00152 7.01308 7.58633 6.91099C8.28301 6.78937 8.85218 6.51956 9.32368 5.89249C11.221 3.36917 14.779 3.36917 16.6763 5.89249C17.1478 6.51956 17.717 6.78937 18.4137 6.91099C18.9985 7.01308 19.5969 7.00416 20.2939 6.99377C20.5181 6.99042 20.7526 6.98693 21 6.98693C21.5523 6.98693 22 7.43464 22 7.98693C22 8.53921 21.5523 8.98693 21 8.98693C20.8272 8.98693 20.6419 8.98996 20.4477 8.99313C19.7166 9.00508 18.8596 9.0191 18.0697 8.88119C16.9937 8.69335 15.9214 8.21642 15.0778 7.09444Z" fill="currentColor"/>
<path class="pr-icon-bulk-primary" fill-rule="evenodd" clip-rule="evenodd" d="M3 2C3.55229 2 4 2.44772 4 3V14C4 15.6782 4.00213 16.8362 4.11923 17.7072C4.23246 18.5494 4.43644 18.972 4.73223 19.2678C5.02803 19.5636 5.45059 19.7675 6.2928 19.8808C7.16377 19.9979 8.32182 20 10 20H21C21.5523 20 22 20.4477 22 21C22 21.5523 21.5523 22 21 22H9.92793C8.33929 22 7.04614 22.0001 6.0263 21.8629C4.96232 21.7199 4.04735 21.4113 3.31802 20.682C2.58869 19.9527 2.28011 19.0377 2.13706 17.9737C1.99994 16.9538 1.99997 15.6607 2 14.072L2 3C2 2.44772 2.44772 2 3 2Z" fill="currentColor"/>
</svg>
