<svg width="24" height="24" viewBox="0 0 24 24" xmlns="http://www.w3.org/2000/svg">
<path class="pr-icon-bulk-secondary" d="M22.75 12C22.75 17.9371 17.9371 22.75 12 22.75C6.06294 22.75 1.25 17.9371 1.25 12C1.25 6.06294 6.06294 1.25 12 1.25C17.9371 1.25 22.75 6.06294 22.75 12Z" />
<path class="pr-icon-bulk-primary" d="M14.2929 8.29289C14.6834 7.90237 15.3166 7.90237 15.7071 8.29289C16.0976 8.68342 16.0976 9.31658 15.7071 9.70711L12.4378 12.9764L12.5523 13.091C12.7577 13.2963 12.9751 13.5135 13.126 13.7055C13.2361 13.8454 13.6397 14.3618 13.4213 15.0046C13.2028 15.648 12.5751 15.7878 12.4053 15.8252C12.1714 15.8767 11.8704 15.9048 11.5857 15.9313L11.5368 15.9358C11.0883 15.9778 10.5671 16.0148 10.1024 15.9941C9.87025 15.9837 9.6158 15.9577 9.37332 15.8958C9.14853 15.8383 8.81922 15.7218 8.54869 15.4513C8.27815 15.1808 8.16171 14.8515 8.10425 14.6267C8.04227 14.3842 8.01628 14.1298 8.00593 13.8977C7.9852 13.4329 8.02223 12.9117 8.06416 12.4632L8.06872 12.4143C8.09524 12.1296 8.12328 11.8286 8.17478 11.5947C8.21219 11.4249 8.35203 10.7972 8.99535 10.5787C9.63816 10.3603 10.1546 10.7639 10.2945 10.874C10.4865 11.0249 10.7037 11.2422 10.909 11.4477L11.0236 11.5622L14.2929 8.29289Z" />
</svg>
