<svg width="24" height="24" viewBox="0 0 24 24" xmlns="http://www.w3.org/2000/svg">
<path class="pr-icon-bulk-secondary" d="M1.25 12C1.25 6.06294 6.06294 1.25 12 1.25C17.9371 1.25 22.75 6.06294 22.75 12C22.75 17.9371 17.9371 22.75 12 22.75C6.06294 22.75 1.25 17.9371 1.25 12Z" fill="currentColor"/>
<path class="pr-icon-bulk-primary" d="M13.2389 6.87201C13.5318 6.57912 14.0067 6.57912 14.2996 6.87201C14.5925 7.16491 14.5925 7.63978 14.2996 7.93267L8.58718 13.6451C8.40365 13.8287 8.22712 14.0053 8.07769 14.1275C7.99888 14.1919 7.88909 14.274 7.75729 14.334C7.6212 14.396 7.39822 14.4627 7.13782 14.3944C6.84164 14.3167 6.64772 14.1041 6.55801 13.8758C6.48738 13.6961 6.48625 13.5232 6.48906 13.4291C6.49448 13.2468 6.5341 13.015 6.5702 12.8039L6.95984 10.518C7.02944 10.1097 7.41687 9.83508 7.8252 9.90468C7.98448 9.93183 8.12342 10.0073 8.22951 10.1136L9.11343 10.9975L13.2389 6.87201Z" fill="currentColor"/>
<path class="pr-icon-bulk-primary" d="M17.0432 13.4791C16.9736 13.8874 16.5861 14.162 16.1778 14.0924C16.0185 14.0652 15.8795 13.9897 15.7734 13.8834L14.8896 12.9996L10.7641 17.1251C10.4712 17.418 9.9963 17.418 9.70341 17.1251C9.41052 16.8322 9.41052 16.3573 9.70341 16.0644L15.4159 10.3519C15.5994 10.1684 15.7759 9.9918 15.9253 9.8696C16.0041 9.80514 16.1139 9.72305 16.2457 9.66304C16.3818 9.60108 16.6048 9.53439 16.8652 9.60269C17.1614 9.68037 17.3553 9.89296 17.445 10.1213C17.5156 10.301 17.5168 10.4739 17.514 10.568C17.5085 10.7503 17.4689 10.9821 17.4328 11.1932L17.0432 13.4791Z" fill="currentColor"/>
</svg>
