<svg width="24" height="24" viewBox="0 0 24 24" xmlns="http://www.w3.org/2000/svg">
<path class="pr-icon-bulk-secondary" d="M12 22.75C6.06294 22.75 1.25 17.9371 1.25 12C1.25 6.06294 6.06294 1.25 12 1.25C17.9371 1.25 22.75 6.06294 22.75 12C22.75 17.9371 17.9371 22.75 12 22.75Z" fill="currentColor"/>
<path d="M16 11C16.5523 11 17 11.4477 17 12C17 12.5523 16.5523 13 16 13L11.5 13L11.5 13.162C11.5001 13.4524 11.5002 13.7597 11.4712 14.0022C11.45 14.179 11.3702 14.8295 10.7613 15.1296C10.1519 15.43 9.60918 15.0851 9.46263 14.9914C9.26085 14.8625 9.02819 14.6695 8.80807 14.4869L8.77029 14.4555C8.42352 14.168 8.02882 13.8257 7.71482 13.4824C7.55802 13.311 7.39647 13.1127 7.26884 12.8974C7.15052 12.6978 7 12.3826 7 12C7 11.6174 7.15052 11.3022 7.26884 11.1026C7.39647 10.8873 7.55802 10.689 7.71482 10.5176C8.02882 10.1743 8.42352 9.83196 8.77028 9.54449L8.80808 9.51314C9.02819 9.33054 9.26085 9.13753 9.46263 9.00859C9.60918 8.91494 10.1519 8.57002 10.7613 8.87038C11.3702 9.1705 11.45 9.82103 11.4712 9.99783C11.5002 10.2403 11.5001 10.5476 11.5 10.838L11.5 11L16 11Z" fill="currentColor"/>
</svg>
