<svg width="24" height="24" viewBox="0 0 24 24" xmlns="http://www.w3.org/2000/svg">
<path class="pr-icon-bulk-secondary" d="M22.75 12C22.75 6.06294 17.9371 1.25 12 1.25C6.06294 1.25 1.25 6.06294 1.25 12C1.25 17.9371 6.06294 22.75 12 22.75C17.9371 22.75 22.75 17.9371 22.75 12Z" />
<path class="pr-icon-bulk-primary" d="M11.1858 16.431C11.5994 16.4092 11.9171 16.0563 11.8954 15.6427C11.8911 15.5599 11.8978 15.4 11.9117 15.1409L11.9148 15.0842C11.9271 14.8573 11.9418 14.5868 11.9461 14.3186C11.9507 14.0314 11.9443 13.7146 11.9026 13.4291C11.8674 13.1876 11.7852 12.7852 11.5 12.5C11.2148 12.2149 10.8124 12.1326 10.5709 12.0974C10.2854 12.0557 9.96866 12.0493 9.6814 12.0539C9.41317 12.0582 9.14266 12.0729 8.91579 12.0852L8.85915 12.0883C8.60001 12.1023 8.44011 12.109 8.35735 12.1046C7.9437 12.0829 7.59077 12.4006 7.56905 12.8142C7.55746 13.035 7.64258 13.2386 7.78739 13.3836L8.4948 14.091L6.79289 15.7929C6.40237 16.1834 6.40237 16.8166 6.79289 17.2071C7.18342 17.5977 7.81658 17.5977 8.20711 17.2071L9.90901 15.5052L10.6161 16.2123C10.7612 16.3573 10.9648 16.4426 11.1858 16.431Z" />
<path class="pr-icon-bulk-primary" d="M12.8142 7.56904C12.4006 7.59076 12.0829 7.94369 12.1046 8.35734C12.1089 8.4401 12.1022 8.6 12.0883 8.85914L12.0852 8.91581C12.0729 9.14267 12.0582 9.41318 12.0539 9.68139C12.0493 9.96866 12.0557 10.2854 12.0974 10.5709C12.1326 10.8124 12.2148 11.2148 12.5 11.5C12.7852 11.7852 13.1876 11.8674 13.4291 11.9026C13.7146 11.9443 14.0313 11.9507 14.3186 11.9461C14.5868 11.9418 14.8573 11.9271 15.0842 11.9148L15.1408 11.9117C15.4 11.8978 15.5599 11.8911 15.6427 11.8954C16.0563 11.9171 16.4092 11.5994 16.4309 11.1858C16.4425 10.9648 16.3573 10.7612 16.2123 10.6161L15.5052 9.90901L17.2071 8.20711C17.5976 7.81658 17.5976 7.18342 17.2071 6.79289C16.8166 6.40237 16.1834 6.40237 15.7929 6.79289L14.091 8.49479L13.3836 7.78738C13.2385 7.64258 13.035 7.55745 12.8142 7.56904Z" />
</svg>
