<svg width="24" height="24" viewBox="0 0 24 24" xmlns="http://www.w3.org/2000/svg">
<path class="pr-icon-bulk-primary" fill-rule="evenodd" clip-rule="evenodd" d="M5.25 11.75C4.81469 11.75 4.39681 11.7714 4.02487 11.8531C3.64161 11.9373 3.24621 12.0986 2.92239 12.4224C2.59857 12.7462 2.4373 13.1416 2.3531 13.5249C2.27139 13.8968 2.25 14.3147 2.25 14.75L2.25 21.75C2.25 22.3023 2.69772 22.75 3.25 22.75C3.80228 22.75 4.25 22.3023 4.25 21.75L4.25 14.75C4.25 14.358 4.27177 14.1122 4.30652 13.954C4.31951 13.8949 4.33188 13.8594 4.34003 13.84C4.35937 13.8319 4.39488 13.8195 4.454 13.8065C4.61219 13.7718 4.85798 13.75 5.25 13.75H7.25L7.25 11.75H5.25ZM11 3.25V2.25C11 1.69772 11.4477 1.25 12 1.25C12.5523 1.25 13 1.69771 13 2.25V3.25H11ZM16.75 11.75H18.75C19.1853 11.75 19.6032 11.7714 19.9751 11.8531C20.3584 11.9373 20.7538 12.0986 21.0776 12.4224C21.4014 12.7462 21.5627 13.1416 21.6469 13.5249C21.7286 13.8968 21.75 14.3147 21.75 14.75V21.75C21.75 22.3023 21.3023 22.75 20.75 22.75C20.1977 22.75 19.75 22.3023 19.75 21.75V14.75C19.75 14.358 19.7282 14.1122 19.6935 13.954C19.6805 13.8949 19.6681 13.8594 19.66 13.84C19.6406 13.8319 19.6051 13.8195 19.546 13.8065C19.3878 13.7718 19.142 13.75 18.75 13.75H16.75V11.75ZM4.34972 13.8207C4.34976 13.8207 4.34913 13.8219 4.34772 13.8238C4.34898 13.8216 4.34969 13.8206 4.34972 13.8207ZM4.32067 13.8497L4.32102 13.8496L4.32384 13.8477L4.32122 13.8493C4.32082 13.8496 4.32064 13.8497 4.32067 13.8497Z" fill="currentColor"/>
<path class="pr-icon-bulk-secondary" d="M8 22.75H9.75H14.25H16C16.4142 22.75 16.75 22.4142 16.75 22V6C16.75 5.5701 16.7286 5.17373 16.6527 4.82851C16.575 4.4748 16.4303 4.12868 16.1508 3.84917C15.8713 3.56966 15.5252 3.42498 15.1715 3.34728C14.8263 3.27144 14.4299 3.25 14 3.25H10C9.5701 3.25 9.17373 3.27144 8.82851 3.34728C8.4748 3.42498 8.12868 3.56966 7.84917 3.84917C7.56966 4.12868 7.42498 4.4748 7.34728 4.82851C7.27144 5.17373 7.25 5.5701 7.25 6V22C7.25 22.4142 7.58579 22.75 8 22.75Z" fill="currentColor"/>
<path class="pr-icon-bulk-primary" fill-rule="evenodd" clip-rule="evenodd" d="M1 21.75C1 21.1977 1.44772 20.75 2 20.75H22C22.5523 20.75 23 21.1977 23 21.75C23 22.3023 22.5523 22.75 22 22.75H2C1.44772 22.75 1 22.3023 1 21.75Z" fill="currentColor"/>
<path class="pr-icon-bulk-primary" d="M13 18.75C13 18.1977 12.5523 17.75 12 17.75C11.4477 17.75 11 18.1977 11 18.75L11 22.75H9.75V18.75C9.75 17.5074 10.7574 16.5 12 16.5C13.2426 16.5 14.25 17.5074 14.25 18.75V22.75H13L13 18.75Z" fill="currentColor"/>
<path class="pr-icon-bulk-primary" fill-rule="evenodd" clip-rule="evenodd" d="M10.25 6.27344C10.25 5.85922 10.5858 5.52344 11 5.52344L13 5.52344C13.4142 5.52344 13.75 5.85922 13.75 6.27344C13.75 6.68765 13.4142 7.02344 13 7.02344H11C10.5858 7.02344 10.25 6.68765 10.25 6.27344ZM10.25 9.77344C10.25 9.35922 10.5858 9.02344 11 9.02344H13C13.4142 9.02344 13.75 9.35922 13.75 9.77344C13.75 10.1877 13.4142 10.5234 13 10.5234H11C10.5858 10.5234 10.25 10.1877 10.25 9.77344ZM10.25 13.2734C10.25 12.8592 10.5858 12.5234 11 12.5234H13C13.4142 12.5234 13.75 12.8592 13.75 13.2734C13.75 13.6877 13.4142 14.0234 13 14.0234H11C10.5858 14.0234 10.25 13.6877 10.25 13.2734Z" fill="currentColor"/>
</svg>
