<svg width="24" height="24" viewBox="0 0 24 24" xmlns="http://www.w3.org/2000/svg">
<g class="pr-icon-bulk-secondary">
<path d="M21.5645 8.78101C21.3266 8.51907 21.0305 8.43478 20.8006 8.40239C20.605 8.37482 20.3718 8.37492 20.1562 8.37501L11.1251 8.37502C10.7109 8.37502 10.3751 8.71081 10.3751 9.12502V11.775C10.3751 12.0578 10.3751 12.1993 10.4629 12.2871C10.5508 12.375 10.6922 12.375 10.9751 12.375H21.1296C21.3935 12.375 21.5255 12.375 21.6118 12.295C21.6981 12.2149 21.708 12.0833 21.7279 11.8201L21.8485 10.2222C21.8652 10.002 21.8829 9.76789 21.8711 9.57003C21.8575 9.34129 21.8003 9.04057 21.5645 8.78101Z" fill="currentColor"/>
<path d="M21.5242 14.5201C21.547 14.2181 21.5583 14.067 21.4693 13.971C21.3803 13.875 21.2288 13.875 20.9259 13.875H10.9751C10.6922 13.875 10.5508 13.875 10.4629 13.9629C10.3751 14.0507 10.3751 14.1922 10.3751 14.475V14.4887C10.3751 15.369 10.3732 15.9464 10.3099 16.374C10.2511 16.7721 10.1531 16.9299 10.0348 17.0375C9.93404 17.1291 9.77767 17.2147 9.46862 17.276C9.14791 17.3396 8.71988 17.3665 8.11444 17.3751C7.90759 17.378 7.71114 17.4663 7.57155 17.6189C7.43197 17.7716 7.36164 17.9752 7.3772 18.1815C7.3912 18.3669 7.39802 18.5664 7.40578 18.793C7.40842 18.8703 7.41118 18.9507 7.41436 19.0349C7.42638 19.3526 7.44427 19.7061 7.48945 20.0581C7.5766 20.7371 7.78088 21.5573 8.39582 22.1378C8.83609 22.5535 9.36707 22.7243 9.95199 22.8019C10.503 22.8751 11.1912 22.8751 12.0102 22.875H16.6149C17.4339 22.8751 18.1221 22.8751 18.6731 22.8019C19.258 22.7243 19.789 22.5535 20.2293 22.1378C20.6677 21.7239 20.8728 21.2024 20.9923 20.6202C21.1055 20.0685 21.1581 19.3715 21.2211 18.537L21.5242 14.5201Z" fill="currentColor"/>
</g>
<path fill-rule="evenodd" clip-rule="evenodd" d="M2.12507 14.129L2.12507 14.5579C2.125 15.3555 2.12493 16.0612 2.20905 16.63C2.30141 17.2545 2.51258 17.8546 3.03818 18.3324C3.55017 18.7979 4.16997 18.9729 4.8092 19.0511C5.41486 19.1251 6.17333 19.1251 7.06391 19.125H7.18623C8.07681 19.1251 8.83528 19.1251 9.44093 19.0511C10.0802 18.9729 10.7 18.7979 11.212 18.3324C11.7376 17.8546 11.9487 17.2545 12.0411 16.63C12.1252 16.0612 12.1251 15.3556 12.1251 14.5579L12.1251 8.99575C12.1253 8.81719 12.1255 8.58831 12.096 8.38906C12.0586 8.13591 11.9572 7.79634 11.6513 7.51822C11.359 7.25247 11.0258 7.17726 10.795 7.14905C10.5966 7.1248 10.3645 7.12491 10.1629 7.12501L9.05989 7.12502C7.70111 7.125 6.58972 7.12498 5.71193 7.23226C4.80039 7.34368 3.98951 7.58531 3.33108 8.18389C2.65903 8.79484 2.37463 9.56867 2.24566 10.4407C2.12498 11.2568 2.12502 12.2829 2.12507 13.5045L2.12507 14.121L2.12506 14.125L2.12507 14.129ZM9.52507 13.125C9.80791 13.125 9.94933 13.125 10.0372 13.0371C10.1251 12.9493 10.1251 12.8078 10.1251 12.525V9.72503C10.1251 9.44218 10.1251 9.30076 10.0372 9.21289C9.94933 9.12503 9.80791 9.12503 9.52507 9.12503H9.12507C7.6851 9.12503 6.69667 9.12679 5.95457 9.21749C5.23224 9.30578 4.89666 9.46355 4.67642 9.66377C4.46979 9.85161 4.31485 10.12 4.22414 10.7333C4.15609 11.1935 4.13475 11.7652 4.12808 12.5239C4.1256 12.8062 4.12436 12.9474 4.21238 13.0362C4.30041 13.125 4.44237 13.125 4.72629 13.125H9.52507ZM10.112 15.7292C10.1225 15.4489 10.1278 15.3088 10.0393 15.2169C9.95076 15.125 9.80692 15.125 9.51925 15.125H4.73089C4.44321 15.125 4.29938 15.125 4.21088 15.2169C4.12238 15.3088 4.12764 15.4489 4.13817 15.7292C4.14713 15.968 4.16221 16.1662 4.18753 16.3374C4.24162 16.7032 4.32335 16.7978 4.38353 16.8526C4.45732 16.9196 4.60182 17.0108 5.05185 17.0658C5.52163 17.1233 6.1565 17.125 7.12507 17.125C8.09364 17.125 8.72851 17.1233 9.19829 17.0658C9.64831 17.0108 9.79281 16.9196 9.86661 16.8526C9.92679 16.7978 10.0085 16.7032 10.0626 16.3374C10.0879 16.1662 10.103 15.968 10.112 15.7292Z" fill="currentColor"/>
<path d="M14.0998 1.125C12.467 1.125 11.047 1.96882 10.0209 3.21824C8.99644 4.46571 8.32191 6.15821 8.13043 8.02285C8.07401 8.57224 8.47365 9.06335 9.02305 9.11977C9.57244 9.17619 10.0636 8.77655 10.12 8.22715C10.2768 6.6995 10.8237 5.392 11.5665 4.48754C12.3077 3.58503 13.2007 3.125 14.0998 3.125C15.083 3.125 16.0655 3.67834 16.8409 4.75844C17.5024 5.67975 17.9709 6.93832 18.0935 8.37501L20.0993 8.37501C19.9725 6.54667 19.3857 4.87371 18.4656 3.59206C17.4222 2.13866 15.892 1.125 14.0998 1.125Z" fill="currentColor"/>
</svg>
