<svg width="24" height="24" viewBox="0 0 24 24" xmlns="http://www.w3.org/2000/svg">
<path fill-rule="evenodd" clip-rule="evenodd" d="M8.44743 13.8557C8.94141 14.1027 9.14164 14.7033 8.89465 15.1973L7.89465 17.1973C7.64766 17.6913 7.04698 17.8915 6.55301 17.6445C6.05903 17.3975 5.8588 16.7969 6.10579 16.3029L7.10579 14.3029C7.35278 13.8089 7.95345 13.6087 8.44743 13.8557ZM12.9474 13.8557C13.4414 14.1027 13.6416 14.7033 13.3946 15.1973L12.3946 17.1973C12.1477 17.6913 11.547 17.8915 11.053 17.6445C10.559 17.3975 10.3588 16.7969 10.6058 16.3029L11.6058 14.3029C11.8528 13.8089 12.4535 13.6087 12.9474 13.8557ZM17.4474 13.8557C17.9414 14.1027 18.1416 14.7033 17.8946 15.1973L16.8946 17.1973C16.6477 17.6913 16.047 17.8915 15.553 17.6445C15.059 17.3975 14.8588 16.7969 15.1058 16.3029L16.1058 14.3029C16.3528 13.8089 16.9535 13.6087 17.4474 13.8557ZM9.44743 17.8557C9.94141 18.1027 10.1416 18.7033 9.89465 19.1973L8.89465 21.1973C8.64766 21.6913 8.04698 21.8915 7.55301 21.6445C7.05903 21.3975 6.8588 20.7969 7.10579 20.3029L8.10579 18.3029C8.35278 17.8089 8.95345 17.6087 9.44743 17.8557ZM13.9474 17.8557C14.4414 18.1027 14.6416 18.7033 14.3946 19.1973L13.3946 21.1973C13.1477 21.6913 12.547 21.8915 12.053 21.6445C11.559 21.3975 11.3588 20.7969 11.6058 20.3029L12.6058 18.3029C12.8528 17.8089 13.4535 17.6087 13.9474 17.8557Z" fill="currentColor"/>
<path opacity="0.4" d="M5.90764 7.09942C5.87784 7.22955 5.86294 7.29462 5.82354 7.3349C5.78413 7.37518 5.71913 7.39158 5.58913 7.42439C3.09536 8.0536 1.25 10.3109 1.25 12.9999C1.25 14.976 2.24688 16.7193 3.76519 17.7543C4.20291 18.0527 4.42177 18.2019 4.53188 18.1349C4.642 18.0679 4.60074 17.7282 4.51823 17.0488C4.46113 16.5786 4.5368 16.087 4.76448 15.6317L5.76448 13.6317C6.38195 12.3967 7.88364 11.8962 9.11858 12.5136C9.3728 12.6407 9.5959 12.8053 9.78453 12.9973C10.0413 13.2587 10.1696 13.3893 10.253 13.3897C10.3364 13.39 10.4656 13.2608 10.7239 13.0023C11.4678 12.2581 12.6327 12.0207 13.6186 12.5136C13.8728 12.6407 14.0959 12.8053 14.2845 12.9973C14.5413 13.2587 14.6696 13.3893 14.753 13.3897C14.8364 13.39 14.9656 13.2608 15.2239 13.0023C15.9678 12.2581 17.1327 12.0207 18.1186 12.5136C19.3535 13.1311 19.8541 14.6328 19.2366 15.8677L18.2366 17.8677C18.0093 18.3223 17.8957 18.5496 17.9593 18.6459C17.9658 18.6558 17.971 18.6625 17.979 18.6712C18.0572 18.7562 18.2552 18.7119 18.6512 18.6233C20.9969 18.0985 22.75 16.0039 22.75 13.4999C22.75 10.97 20.9606 8.85809 18.5784 8.36074C18.4169 8.32702 18.3361 8.31016 18.2922 8.26051C18.2482 8.21085 18.2413 8.12948 18.2276 7.96673C17.9571 4.76451 15.2722 2.24988 12 2.24988C9.02957 2.24988 6.5437 4.32164 5.90764 7.09942Z" fill="currentColor"/>
</svg>
