<svg width="24" height="24" viewBox="0 0 24 24" xmlns="http://www.w3.org/2000/svg">
<path class="pr-icon-bulk-secondary" d="M14.0127 7.90374C14.391 7.52543 14.391 6.91205 14.0127 6.53374C13.6344 6.15542 13.021 6.15542 12.6427 6.53374L4.18561 14.9907C3.4274 15.7478 2.85912 16.3152 2.55389 17.0521C2.24867 17.789 2.24926 18.5921 2.25005 19.6636L2.25013 20.7811C2.25013 21.3161 2.68385 21.7498 3.21887 21.7498L4.33642 21.7499C5.40791 21.7507 6.21098 21.7513 6.94785 21.4461C7.68473 21.1409 8.25217 20.5726 9.00926 19.8144L17.4662 11.3573C17.8445 10.979 17.8445 10.3656 17.4662 9.98728C17.0879 9.60896 16.4745 9.60897 16.0962 9.98728L13.7334 12.3501C13.6467 12.4369 13.6033 12.4802 13.5482 12.503C13.493 12.5259 13.4317 12.5259 13.3091 12.5259H10.8391C10.2226 12.5259 9.91436 12.5259 9.83765 12.3407C9.76094 12.1555 9.9789 11.9375 10.4148 11.5016L14.0127 7.90374Z" fill="currentColor"/>
<path d="M14.8951 2.53227C14.5188 2.15591 13.9086 2.15591 13.5322 2.53227C13.1559 2.90862 13.1559 3.51882 13.5322 3.89517L20.1048 10.4677C20.4812 10.8441 21.0913 10.8441 21.4677 10.4677C21.8441 10.0914 21.8441 9.48118 21.4677 9.10483L20.5457 8.18279C20.4796 8.11668 20.4804 8.00883 20.5464 7.94263L20.5751 7.91391L20.6184 7.87059C20.858 7.63118 21.0397 7.44959 21.1736 7.26161C21.8522 6.30859 21.8522 5.03021 21.1736 4.07718C21.0397 3.8892 20.858 3.70762 20.6184 3.46822L20.5317 3.38147C20.2923 3.14193 20.1107 2.9602 19.9228 2.82637C18.9697 2.14779 17.6914 2.14779 16.7383 2.82637C16.5504 2.96022 16.3688 3.14194 16.1294 3.38153L16.086 3.42489L16.0573 3.45356C15.9911 3.51959 15.8833 3.5204 15.8172 3.45429L14.8951 2.53227Z" fill="currentColor"/>
</svg>
