<svg width="24" height="24" viewBox="0 0 24 24" xmlns="http://www.w3.org/2000/svg">
<g opacity="0.4">
<path d="M9.25 12C9.25 10.4812 10.4812 9.25 12 9.25C13.5188 9.25 14.75 10.4812 14.75 12C14.75 13.5188 13.5188 14.75 12 14.75C10.4812 14.75 9.25 13.5188 9.25 12Z" fill="currentColor"/>
<path d="M17.25 16C17.25 14.4812 18.4812 13.25 20 13.25C21.5188 13.25 22.75 14.4812 22.75 16C22.75 17.5188 21.5188 18.75 20 18.75C18.4812 18.75 17.25 17.5188 17.25 16Z" fill="currentColor"/>
<path d="M8.25 20C8.25 18.4812 9.48122 17.25 11 17.25C12.5188 17.25 13.75 18.4812 13.75 20C13.75 21.5188 12.5188 22.75 11 22.75C9.48122 22.75 8.25 21.5188 8.25 20Z" fill="currentColor"/>
<path d="M12.25 4C12.25 2.48122 13.4812 1.25 15 1.25C16.5188 1.25 17.75 2.48122 17.75 4C17.75 5.51878 16.5188 6.75 15 6.75C13.4812 6.75 12.25 5.51878 12.25 4Z" fill="currentColor"/>
<path d="M1.25 8C1.25 6.48122 2.48122 5.25 4 5.25C5.51878 5.25 6.75 6.48122 6.75 8C6.75 9.51878 5.51878 10.75 4 10.75C2.48122 10.75 1.25 9.51878 1.25 8Z" fill="currentColor"/>
</g>
<path d="M12.2516 3.93555L6.06641 6.18471C6.49247 6.66906 6.75087 7.30449 6.75087 8.00027C6.75087 8.02164 6.75062 8.04295 6.75014 8.06421L12.9348 5.81524C12.5091 5.33096 12.2509 4.69577 12.2509 4.00027C12.2509 3.97863 12.2511 3.95706 12.2516 3.93555Z" fill="currentColor"/>
<path d="M13.1643 6.04717C13.6512 6.48432 14.295 6.75027 15.0009 6.75027C15.0128 6.75027 15.0248 6.75019 15.0368 6.75004L13.836 9.95211C13.3492 9.5157 12.7061 9.25027 12.0009 9.25027C11.9883 9.25027 11.9757 9.25035 11.9631 9.25052L13.1643 6.04717Z" fill="currentColor"/>
<path d="M10.6899 14.4183L10.3255 17.3338C10.5416 17.2793 10.7678 17.2503 11.0009 17.2503C11.4748 17.2503 11.9208 17.3702 12.3101 17.5813L12.6744 14.6672C12.4588 14.7215 12.2332 14.7503 12.0009 14.7503C11.5262 14.7503 11.0796 14.63 10.6899 14.4183Z" fill="currentColor"/>
<path d="M13.8447 14.0406L17.2622 15.7494C17.3262 15.0415 17.6584 14.4111 18.1565 13.9604L14.7395 12.252C14.6753 12.9598 14.3429 13.5901 13.8447 14.0406Z" fill="currentColor"/>
<path d="M18.0657 17.9542C17.5904 17.4834 17.286 16.8404 17.2537 16.1264L12.9354 18.0457C13.4109 18.5164 13.7155 19.1593 13.748 19.8732L18.0657 17.9542Z" fill="currentColor"/>
</svg>
