<svg width="24" height="24" viewBox="0 0 24 24" xmlns="http://www.w3.org/2000/svg">
<path class="pr-icon-bulk-primary" fill-rule="evenodd" clip-rule="evenodd" d="M2 20.75C2 20.1977 2.44772 19.75 3 19.75H21C21.5523 19.75 22 20.1977 22 20.75C22 21.3023 21.5523 21.75 21 21.75H3C2.44772 21.75 2 21.3023 2 20.75Z" fill="currentColor"/>
<path class="pr-icon-bulk-secondary" d="M3.25 11C3.25 6.16751 7.16751 2.25 12 2.25C16.8325 2.25 20.75 6.16751 20.75 11V21C20.75 21.4142 20.4142 21.75 20 21.75H4C3.58579 21.75 3.25 21.4142 3.25 21V11Z" fill="currentColor"/>
<path class="pr-icon-bulk-primary" d="M12 13C10.8248 13 9.792 13.3614 9.0552 14.1196C8.32306 14.873 8 15.898 8 17V20C8 20.5523 8.44772 21 9 21C9.55228 21 10 20.5523 10 20V17C10 16.2799 10.2065 15.8047 10.4895 15.5135C10.7679 15.227 11.2353 15 12 15C12.7647 15 13.2321 15.227 13.5105 15.5135C13.7935 15.8047 14 16.2799 14 17V20C14 20.5523 14.4477 21 15 21C15.5523 21 16 20.5523 16 20V17C16 15.898 15.6769 14.873 14.9448 14.1196C14.208 13.3614 13.1752 13 12 13Z" fill="currentColor"/>
<circle cx="12" cy="8" r="2" fill="currentColor"/>
</svg>
