<svg width="24" height="24" viewBox="0 0 24 24" xmlns="http://www.w3.org/2000/svg">
    <path class="pr-icon-bulk-secondary" d="M9.52381 1.99594C10.3597 1.52688 11.1339 1.25 12 1.25C12.8661 1.25 13.6403 1.52688 14.4762 1.99594C15.2861 2.45043 16.2141 3.12145 17.3811 3.96524L17.3811 3.96525L18.8902 5.05633C19.8267 5.73347 20.5747 6.2743 21.1389 6.77487C21.7215 7.29173 22.1573 7.807 22.4337 8.45513C22.7108 9.10469 22.7778 9.77045 22.7406 10.5381C22.7047 11.2789 22.5674 12.1726 22.3961 13.2871L22.0808 15.3387C21.8374 16.9225 21.6437 18.1837 21.359 19.1662C21.0646 20.1821 20.6499 20.9887 19.9086 21.6052C19.1704 22.2192 18.2911 22.4926 17.2169 22.6231C16.172 22.75 14.8539 22.75 13.1889 22.75H10.8111C9.14615 22.75 7.828 22.75 6.78306 22.6231C5.7089 22.4926 4.82957 22.2192 4.0914 21.6052C3.35016 20.9887 2.93544 20.1821 2.64105 19.1662C2.35635 18.1836 2.16256 16.9225 1.91918 15.3387L1.60393 13.2872C1.43264 12.1727 1.29528 11.2789 1.25941 10.5381C1.22225 9.77045 1.28925 9.10469 1.5663 8.45513C1.84274 7.807 2.27855 7.29173 2.86109 6.77487C3.42528 6.27429 4.1733 5.73346 5.10984 5.05632L6.61887 3.96524C7.78586 3.12145 8.7139 2.45043 9.52381 1.99594Z" />
    <path class="pr-icon-bulk-primary" d="M13.1125 16.5303C13.4054 16.8232 13.8803 16.8232 14.1732 16.5303L17.0303 13.6732C17.3232 13.3803 17.3232 12.9054 17.0303 12.6125C16.8199 12.4021 16.5155 12.3428 16.2522 12.4348C16.1661 12.3292 16.0705 12.2132 15.9673 12.0896C15.5113 11.5429 14.8967 10.836 14.2803 10.2197C13.664 9.60332 12.9571 8.98874 12.4104 8.53265C12.2868 8.42947 12.1708 8.33394 12.0652 8.24782C12.1572 7.98449 12.0979 7.68011 11.8875 7.46967C11.5946 7.17678 11.1197 7.17678 10.8268 7.46967L7.96967 10.3268C7.67678 10.6197 7.67678 11.0946 7.96967 11.3875C8.18011 11.5979 8.48449 11.6572 8.74782 11.5652C8.83394 11.6708 8.92947 11.7868 9.03265 11.9104C9.31631 12.2504 9.66126 12.6524 10.0298 13.056L7.04289 16.0429C6.65237 16.4334 6.65237 17.0666 7.04289 17.4571C7.43342 17.8476 8.06658 17.8476 8.45711 17.4571L11.444 14.4702C11.8476 14.8387 12.2496 15.1837 12.5896 15.4673C12.7132 15.5705 12.8292 15.6661 12.9348 15.7522C12.8428 16.0155 12.9021 16.3199 13.1125 16.5303Z" />
</svg>
