<svg width="24" height="24" viewBox="0 0 24 24" xmlns="http://www.w3.org/2000/svg">
<path class="pr-icon-bulk-primary" fill-rule="evenodd" clip-rule="evenodd" d="M15.1679 13.1679C15.5584 12.7774 16.1916 12.7774 16.5821 13.1679L18.875 15.4608L21.1679 13.1679C21.5584 12.7774 22.1916 12.7774 22.5821 13.1679C22.9726 13.5584 22.9726 14.1916 22.5821 14.5821L20.2892 16.875L22.5821 19.1679C22.9726 19.5584 22.9726 20.1916 22.5821 20.5821C22.1916 20.9726 21.5584 20.9726 21.1679 20.5821L18.875 18.2892L16.5821 20.5821C16.1916 20.9726 15.5584 20.9726 15.1679 20.5821C14.7774 20.1916 14.7774 19.5584 15.1679 19.1679L17.4608 16.875L15.1679 14.5821C14.7774 14.1916 14.7774 13.5584 15.1679 13.1679Z" fill="currentColor"/>
<path class="pr-icon-bulk-secondary" d="M22.6233 10.6724C22.6249 11.0146 22.6257 11.1857 22.5401 11.2736C22.4545 11.3616 22.2428 11.3663 21.8194 11.3756C21.1982 11.3893 20.5812 11.6332 20.1072 12.1072L19.2993 12.9152C19.0993 13.1152 18.9993 13.2152 18.875 13.2152C18.7507 13.2152 18.6507 13.1152 18.4507 12.9152L17.6428 12.1072C16.6665 11.1309 15.0835 11.1309 14.1072 12.1072C13.1309 13.0835 13.1309 14.6665 14.1072 15.6428L14.9152 16.4507C15.1152 16.6507 15.2152 16.7507 15.2152 16.875C15.2152 16.9993 15.1152 17.0993 14.9152 17.2993L14.1072 18.1072C13.6331 18.5813 13.3893 19.1985 13.3756 19.8197C13.3663 20.2425 13.3617 20.4539 13.2742 20.5394C13.1868 20.625 13.0154 20.625 12.6727 20.625H10.3275C8.48845 20.625 7.04417 20.625 5.90558 20.4964C4.74342 20.3651 3.801 20.0914 3.01763 19.4727C2.78311 19.2875 2.56568 19.0829 2.36798 18.8612C1.70181 18.114 1.40432 17.2083 1.26263 16.0972C1.12498 15.0177 1.12499 13.6517 1.125 11.9277V11.8223C1.125 11.2465 1.12499 10.7107 1.13012 10.2121C1.13295 9.9364 1.13437 9.79856 1.22204 9.71178C1.30972 9.625 1.44861 9.625 1.72639 9.625H22.0236C22.3014 9.625 22.4403 9.625 22.528 9.71178C22.6156 9.79856 22.6171 9.9364 22.6199 10.2121C22.6214 10.3621 22.6225 10.5155 22.6233 10.6724Z" fill="currentColor"/>
<path class="pr-icon-bulk-primary" d="M17.8453 3.2536C16.7067 3.12498 15.2625 3.12499 13.4235 3.125H10.3284C8.48937 3.12499 7.04508 3.12498 5.90649 3.2536C4.74433 3.38488 3.80192 3.65862 3.01854 4.27729C2.78402 4.46249 2.56659 4.66705 2.36889 4.8888C1.70272 5.63601 1.40523 6.54169 1.26354 7.65285C1.24723 7.7807 1.23908 7.84463 1.25374 7.90079C1.27718 7.99054 1.34605 8.06875 1.43212 8.10335C1.48597 8.125 1.55336 8.125 1.68814 8.125H22.0637C22.1985 8.125 22.2659 8.125 22.3197 8.10335C22.4058 8.06875 22.4746 7.99053 22.4981 7.90079C22.5127 7.84463 22.5046 7.7807 22.4883 7.65285C22.3466 6.54169 22.0491 5.63601 21.3829 4.8888C21.1852 4.66705 20.9678 4.46249 20.7333 4.27729C19.9499 3.65862 19.0075 3.38488 17.8453 3.2536Z" fill="currentColor"/>
</svg>
