<svg width="24" height="24" viewBox="0 0 24 24" xmlns="http://www.w3.org/2000/svg">
    <path class="pr-icon-bulk-primary" d="M22.8175 13.5414C23.0019 14.062 22.7293 14.6335 22.2087 14.8179C21.6751 15.0069 21.0586 15.4138 20.4056 15.9865C19.7628 16.5501 19.1377 17.2271 18.5839 17.8909C18.0321 18.5524 17.5633 19.1861 17.2323 19.6551C17.0671 19.8891 16.9371 20.0808 16.8491 20.2129L16.7189 20.4115C16.5257 20.7156 16.1836 20.8924 15.8237 20.874C15.4638 20.8555 15.1416 20.6448 14.9805 20.3225C14.5398 19.4411 14.1444 19.0902 13.9452 18.9573C13.8609 18.9011 13.8039 18.8786 13.7813 18.8709C13.2729 18.8237 12.8749 18.396 12.8749 17.8753C12.8749 17.323 13.3226 16.8753 13.8749 16.8753C13.9573 16.8761 14.1619 16.8911 14.3215 16.945C14.5293 17.0044 14.7802 17.1103 15.0546 17.2932C15.3289 17.4761 15.6165 17.7288 15.9053 18.0747C16.2205 17.6439 16.6089 17.1363 17.0482 16.6097C17.6415 15.8985 18.3399 15.1379 19.0869 14.4828C19.8235 13.8368 20.6629 13.2436 21.541 12.9326C22.0616 12.7483 22.6331 13.0208 22.8175 13.5414Z" />
    <path class="pr-icon-bulk-secondary" d="M10.3272 20.625C8.4882 20.625 7.04393 20.625 5.90534 20.4964C4.74317 20.3651 3.80076 20.0914 3.01738 19.4727C2.78287 19.2875 2.56544 19.0829 2.36774 18.8612C1.70156 18.114 1.40408 17.2083 1.26238 16.0972C1.12473 15.0177 1.12474 13.6517 1.12476 11.9277V11.8223C1.12475 11.2465 1.12475 10.7106 1.12987 10.2121C1.1327 9.9364 1.13412 9.79856 1.2218 9.71178C1.30948 9.625 1.44837 9.625 1.72615 9.625H22.0234C22.3011 9.625 22.44 9.625 22.5277 9.71178C22.6154 9.79856 22.6168 9.93642 22.6196 10.2121C22.6212 10.3618 22.6223 10.5149 22.623 10.6714C22.6247 11.0135 22.6255 11.1846 22.5399 11.2725C22.4544 11.3604 22.2423 11.3653 21.818 11.375C21.5594 11.3809 21.2973 11.4274 21.0401 11.5185C19.9038 11.9209 18.8972 12.6536 18.0977 13.3548C17.2725 14.0785 16.5192 14.9018 15.8962 15.6486C15.8418 15.7138 15.8145 15.7465 15.7884 15.7666C15.7114 15.8259 15.6298 15.8433 15.5353 15.8207C15.5032 15.8129 15.4606 15.7921 15.3756 15.7505C15.1633 15.6467 14.9578 15.5685 14.763 15.5111C14.4014 15.3959 14.0382 15.3765 13.8894 15.3751L13.8748 15.375C12.494 15.375 11.3748 16.4943 11.3748 17.875C11.3748 18.9957 12.1113 19.9431 13.1275 20.2611L13.132 20.2625C13.1662 20.2732 13.186 20.2794 13.2101 20.3077C13.3147 20.4307 13.2275 20.625 13.066 20.625H10.3272Z" />
    <path class="pr-icon-bulk-primary" d="M13.4233 3.125C15.2623 3.12499 16.7066 3.12498 17.8452 3.2536C19.0074 3.38488 19.9498 3.65862 20.7332 4.27729C20.9677 4.46249 21.1851 4.66705 21.3828 4.8888C22.049 5.63601 22.3465 6.54169 22.4882 7.65285C22.5045 7.7807 22.5126 7.84463 22.498 7.90079C22.4745 7.99053 22.4056 8.06875 22.3196 8.10335C22.2657 8.125 22.1983 8.125 22.0636 8.125H1.68801C1.55324 8.125 1.48585 8.125 1.432 8.10335C1.34593 8.06875 1.27705 7.99054 1.25362 7.90079C1.23896 7.84463 1.24711 7.7807 1.26342 7.65285C1.40511 6.54169 1.7026 5.63601 2.36877 4.8888C2.56647 4.66705 2.7839 4.46249 3.01842 4.27729C3.80179 3.65862 4.74421 3.38488 5.90637 3.2536C7.04496 3.12498 8.48925 3.12499 10.3283 3.125H13.4233Z" />
</svg>
