<svg width="24" height="24" viewBox="0 0 24 24" xmlns="http://www.w3.org/2000/svg">
<path class="pr-icon-bulk-secondary" fill-rule="evenodd" clip-rule="evenodd" d="M6.26436 9.27266C6.33496 8.19779 6.67547 7.18157 7.4285 6.42854C8.18153 5.67551 9.19775 5.33501 10.2726 5.2644C11.3457 5.19391 12.5282 5.38708 13.7041 5.75366C16.0522 6.4857 18.5159 7.95414 20.2668 9.70502C22.0312 11.4695 22.812 13.2656 22.7462 15.0138C22.6809 16.7472 21.7886 18.2763 20.5324 19.5325C19.2763 20.7886 17.7471 21.6809 16.0137 21.7462C14.2655 21.8121 12.4694 21.0313 10.705 19.2668C8.9541 17.5159 7.48565 15.0522 6.75361 12.7041C6.38704 11.5283 6.19387 10.3458 6.26436 9.27266ZM7.80043 9.00467C7.78403 9.11539 7.86708 9.2153 7.97901 9.21434C8.55035 9.20941 9.11935 8.98871 9.5544 8.55365C9.98949 8.11857 10.2102 7.54952 10.2151 6.97814C10.216 6.86621 10.1161 6.78317 10.0054 6.79958C9.35171 6.89645 8.84658 7.13226 8.48986 7.48898C8.13311 7.84573 7.8973 8.3509 7.80043 9.00467ZM14.8145 14.5541C14.8147 14.1399 15.1507 13.8035 15.5649 13.8038C15.9756 13.804 16.3091 14.1344 16.3144 14.5438C16.3144 14.8449 16.4439 14.9295 16.4894 14.9593L16.4951 14.963C16.5295 14.9861 16.6089 15.0272 16.7815 15.0271C17.2179 15.0269 17.5951 15.1386 17.9031 15.3448C18.2063 15.5478 18.3986 15.8128 18.5188 16.0545C18.6376 16.2934 18.7493 16.6163 18.7493 17.0006C18.7491 17.4148 18.4132 17.7505 17.9989 17.7503C17.5882 17.7501 17.2547 17.4197 17.2493 17.0103C17.2474 16.8627 17.2162 16.8018 17.1857 16.7421L17.1758 16.7225C17.1439 16.6584 17.108 16.6176 17.0686 16.5912C17.0341 16.5682 16.9547 16.527 16.7821 16.5271C16.3456 16.5273 15.9684 16.4156 15.6604 16.2093C15.3573 16.0063 15.1649 15.7412 15.0448 15.4995C14.926 15.2606 14.8142 14.9683 14.8145 14.5541ZM13.2598 10.0008C13.26 9.58664 13.596 9.2503 14.0102 9.25053C14.421 9.25077 14.7544 9.58118 14.7597 9.99063C14.7597 10.2917 14.8892 10.3763 14.9347 10.4061L14.9404 10.4098C14.9748 10.4329 15.0542 10.474 15.2268 10.4739C15.6632 10.4737 16.0405 10.5854 16.3484 10.7916C16.6516 10.9945 16.8439 11.2596 16.9641 11.5013C17.0829 11.7401 17.1946 12.063 17.1946 12.4474C17.1944 12.8616 16.8585 13.1973 16.4443 13.1971C16.0335 13.1969 15.7 12.8665 15.6947 12.4571C15.6927 12.3095 15.6616 12.2485 15.631 12.1888L15.6211 12.1693C15.5892 12.1051 15.5533 12.0644 15.5139 12.038C15.4795 12.0149 15.4 11.9738 15.2274 11.9739C14.7909 11.9741 14.4137 11.8624 14.1057 11.6561C13.8026 11.4531 13.6103 11.188 13.4901 10.9463C13.3713 10.7074 13.2595 10.4151 13.2598 10.0008ZM11.0004 12.274C10.5862 12.2737 10.2502 12.6101 10.25 13.0243C10.2498 13.4385 10.3616 13.7309 10.4803 13.9697C10.6005 14.2114 10.7928 14.4766 11.0959 14.6796C11.4039 14.8858 11.7812 14.9975 12.2176 14.9973C12.3902 14.9973 12.4697 15.0384 12.5042 15.0615C12.5435 15.0878 12.5794 15.1286 12.6113 15.1927L12.6212 15.2123C12.6518 15.272 12.683 15.3329 12.6849 15.4805C12.6902 15.89 13.0237 16.2203 13.4345 16.2205C13.8487 16.2207 14.1846 15.8851 14.1848 15.4708C14.1848 15.0865 14.0732 14.7636 13.9544 14.5247C13.8342 14.283 13.6418 14.018 13.3387 13.815C13.0307 13.6088 12.6535 13.4972 12.217 13.4973C12.0445 13.4974 11.965 13.4563 11.9306 13.4332L11.925 13.4295C11.8794 13.3998 11.7499 13.3151 11.7499 13.0141C11.7446 12.6046 11.4112 12.2742 11.0004 12.274Z" fill="currentColor"/>
<path fill-rule="evenodd" clip-rule="evenodd" d="M8.58504 16.5942C8.08938 16.8012 7.53976 16.9838 6.99625 17.1034C6.87178 17.1308 6.75725 17.0323 6.75262 16.9049C6.71925 15.9885 6.34946 15.0818 5.64345 14.383C4.92865 13.6755 4.00097 13.3111 3.06744 13.2871C2.94244 13.2839 2.84377 13.1743 2.86549 13.0511C2.93935 12.6324 3.04803 12.1947 3.1898 11.7445C3.85797 9.62306 5.21504 7.37185 6.80642 5.79664C8.38386 4.23524 9.81481 3.70676 11.0498 3.75281C12.2993 3.79941 13.5054 4.43956 14.608 5.53098C14.8879 5.80801 15.1384 6.09178 15.3571 6.38104C16.1494 6.73438 16.9329 7.15895 17.6761 7.63751C17.3242 6.44977 16.5931 5.38532 15.6633 4.46491C14.3943 3.20881 12.8518 2.31897 11.1057 2.25385C9.34523 2.18821 7.53357 2.96632 5.75119 4.73057C3.98276 6.48103 2.49894 8.94486 1.75909 11.2939C1.45222 12.2682 1.26547 13.2475 1.25092 14.1656C1.25055 14.1762 1.2504 14.1868 1.25048 14.1975C1.24842 14.3768 1.25297 14.5538 1.26452 14.7279C1.33597 15.8046 1.68067 16.8216 2.44106 17.5743C3.32694 18.4511 4.56965 18.7667 5.85756 18.7494C7.08883 18.7328 8.43783 18.3113 9.46329 17.8478C9.15438 17.4472 8.86051 17.0273 8.58504 16.5942Z" fill="currentColor"/>
<path fill-rule="evenodd" clip-rule="evenodd" d="M7.8009 9.00406C7.78449 9.11479 7.86754 9.2147 7.97947 9.21374C8.55081 9.20881 9.11981 8.98811 9.55487 8.55305C9.98996 8.11797 10.2107 7.54892 10.2156 6.97754C10.2165 6.86561 10.1166 6.78257 10.0059 6.79898C9.35217 6.89585 8.84705 7.13165 8.49032 7.48838C8.13357 7.84513 7.89776 8.3503 7.8009 9.00406ZM14.8149 14.5535C14.8152 14.1393 15.1511 13.8029 15.5653 13.8032C15.9761 13.8034 16.3096 14.1338 16.3149 14.5432C16.3149 14.8443 16.4443 14.9289 16.4899 14.9587L16.4955 14.9624C16.53 14.9855 16.6094 15.0266 16.7819 15.0265C17.2184 15.0263 17.5956 15.138 17.9036 15.3442C18.2067 15.5472 18.3991 15.8122 18.5193 16.0539C18.6381 16.2928 18.7497 16.6157 18.7497 17C18.7496 17.4142 18.4136 17.7499 17.9994 17.7497C17.5886 17.7495 17.2552 17.4191 17.2498 17.0097C17.2479 16.8621 17.2167 16.8012 17.1862 16.7415L17.1762 16.7219C17.1443 16.6578 17.1084 16.617 17.0691 16.5906C17.0346 16.5676 16.9551 16.5264 16.7826 16.5265C16.3461 16.5267 15.9688 16.415 15.6608 16.2087C15.3577 16.0057 15.1654 15.7406 15.0452 15.4989C14.9265 15.26 14.8147 14.9677 14.8149 14.5535ZM13.2602 10.0002C13.2605 9.58603 13.5964 9.2497 14.0107 9.24993C14.4214 9.25017 14.7549 9.58057 14.7602 9.99003C14.7602 10.2911 14.8896 10.3757 14.9352 10.4055L14.9408 10.4092C14.9753 10.4323 15.0547 10.4734 15.2272 10.4733C15.6637 10.4731 16.0409 10.5848 16.3489 10.791C16.6521 10.9939 16.8444 11.259 16.9646 11.5007C17.0834 11.7395 17.1951 12.0624 17.1951 12.4468C17.1949 12.861 16.8589 13.1967 16.4447 13.1965C16.034 13.1963 15.7005 12.8659 15.6951 12.4565C15.6932 12.3089 15.662 12.2479 15.6315 12.1882L15.6215 12.1687C15.5896 12.1045 15.5537 12.0638 15.5144 12.0374C15.4799 12.0143 15.4004 11.9732 15.2279 11.9733C14.7914 11.9735 14.4142 11.8618 14.1062 11.6555C13.803 11.4525 13.6107 11.1874 13.4905 10.9457C13.3718 10.7068 13.26 10.4145 13.2602 10.0002ZM11.0009 12.2734C10.5867 12.2731 10.2507 12.6095 10.2505 13.0237C10.2502 13.4379 10.362 13.7303 10.4808 13.9691C10.601 14.2108 10.7933 14.476 11.0964 14.679C11.4044 14.8852 11.7816 14.9969 12.2181 14.9967C12.3907 14.9967 12.4702 15.0378 12.5046 15.0609C12.544 15.0872 12.5799 15.128 12.6118 15.1921L12.6217 15.2117C12.6523 15.2714 12.6834 15.3323 12.6854 15.4799C12.6907 15.8894 13.0242 16.2197 13.435 16.2199C13.8492 16.2201 14.1851 15.8845 14.1853 15.4702C14.1853 15.0859 14.0736 14.763 13.9548 14.5241C13.8346 14.2824 13.6423 14.0174 13.3391 13.8144C13.0312 13.6082 12.6539 13.4966 12.2175 13.4967C12.0449 13.4968 11.9655 13.4557 11.9311 13.4326L11.9254 13.4289C11.8799 13.3991 11.7504 13.3145 11.7504 13.0135C11.7451 12.604 11.4117 12.2736 11.0009 12.2734Z" fill="currentColor"/>
</svg>
