<svg width="24" height="24" viewBox="0 0 24 24" xmlns="http://www.w3.org/2000/svg">
<path fill-rule="evenodd" clip-rule="evenodd" d="M16.9999 14.25C15.6017 14.25 14.4204 14.8652 13.5293 15.5609C12.6367 16.2578 11.9521 17.1169 11.5878 17.6278C11.4661 17.7948 11.2499 18.0914 11.2499 18.5C11.2499 18.9086 11.4661 19.2052 11.5878 19.3722C11.9521 19.8831 12.6367 20.7422 13.5293 21.4391C14.4204 22.1348 15.6017 22.75 16.9999 22.75C18.3982 22.75 19.5794 22.1348 20.4705 21.4391C21.3632 20.7422 22.0477 19.8831 22.4121 19.3722C22.5338 19.2052 22.7499 18.9086 22.7499 18.5C22.7499 18.0914 22.5338 17.7948 22.4121 17.6278C22.0477 17.1169 21.3632 16.2578 20.4705 15.5609C19.5794 14.8652 18.3982 14.25 16.9999 14.25ZM16.9932 17C16.1685 17 15.4999 17.6716 15.4999 18.5C15.4999 19.3284 16.1685 20 16.9932 20H17.0066C17.8314 20 18.4999 19.3284 18.4999 18.5C18.4999 17.6716 17.8314 17 17.0066 17H16.9932Z" fill="currentColor"/>
<path class="pr-icon-bulk-secondary" d="M1.99994 7.25C1.58573 7.25 1.24994 7.58579 1.24994 8V13.4872C1.24992 15.4577 1.24991 17.0159 1.41984 18.2347C1.59487 19.4901 1.9629 20.4957 2.78109 21.2846C3.59546 22.0699 4.62704 22.4198 5.91564 22.5869C7.17412 22.75 8.78531 22.75 10.8338 22.75H11.0313C11.7512 22.75 12.1112 22.75 12.189 22.5679C12.2668 22.3857 12.0078 22.115 11.4899 21.5737C10.9989 21.0606 10.6003 20.5704 10.3717 20.2504L10.36 20.2345C10.2173 20.0405 9.74994 19.4052 9.74994 18.5C9.74994 17.5948 10.2173 16.9595 10.36 16.7655L10.3717 16.7497C10.7793 16.1791 11.5585 15.1966 12.6063 14.3785C13.6501 13.5636 15.1494 12.75 16.9999 12.75C18.8504 12.75 20.3498 13.5636 21.3936 14.3785C21.4731 14.4406 21.5511 14.5037 21.6275 14.5674C22.1453 14.9994 22.4042 15.2154 22.5771 15.1345C22.7499 15.0536 22.7499 14.7327 22.7499 14.0907C22.7499 13.7899 22.7499 13.5683 22.7499 13.4872V8C22.7499 7.58579 22.4142 7.25 21.9999 7.25H1.99994Z" fill="currentColor"/>
<path fill-rule="evenodd" clip-rule="evenodd" d="M9.24994 11C9.24994 10.5858 9.58573 10.25 9.99994 10.25H13.9999C14.4142 10.25 14.7499 10.5858 14.7499 11C14.7499 11.4142 14.4142 11.75 13.9999 11.75H9.99994C9.58573 11.75 9.24994 11.4142 9.24994 11Z" fill="currentColor"/>
<path d="M8.52743 1.25H15.4723C16.3754 1.24998 17.1307 1.24996 17.7498 1.31454C18.4046 1.38284 18.9965 1.53023 19.5431 1.87979C20.0897 2.22936 20.4592 2.69681 20.7767 3.2503C21.077 3.77368 21.3675 4.44256 21.7148 5.24222L22.6745 7.45172C22.7396 7.60176 22.7611 7.75879 22.7445 7.9098C22.7 7.53812 22.3836 7.25 21.9999 7.25H20.4695L19.9306 6.00946C19.5581 5.15173 19.3074 4.57789 19.0644 4.1543C18.8329 3.75079 18.6509 3.56262 18.4589 3.43984C18.2669 3.31706 18.0159 3.22828 17.5386 3.17849C17.0375 3.12622 16.3889 3.12494 15.4203 3.12494H12.9999V7.25H10.9999V3.12494H8.5795C7.61086 3.12494 6.96227 3.12622 6.4612 3.17849C5.9839 3.22828 5.73283 3.31706 5.54084 3.43984C5.34886 3.56262 5.16687 3.75079 4.93538 4.1543C4.69237 4.57789 4.44168 5.15173 4.06912 6.00946L3.5303 7.25H1.99988C1.6162 7.25 1.2998 7.53811 1.25525 7.90979C1.23865 7.75879 1.26014 7.60176 1.32531 7.45172L2.28499 5.24223C2.6323 4.44256 2.9228 3.77368 3.22306 3.2503C3.5406 2.69681 3.91009 2.22936 4.45668 1.87979C5.00328 1.53023 5.59519 1.38284 6.24992 1.31454C6.86901 1.24996 7.62441 1.24998 8.52743 1.25Z" fill="currentColor"/>
</svg>
