<svg width="24" height="24" viewBox="0 0 24 24" xmlns="http://www.w3.org/2000/svg">
<path opacity="0.4" d="M18.0003 1.25H16.0286C15.9089 1.25 15.7731 1.25 15.6522 1.26158C15.5194 1.27429 15.3517 1.30462 15.1793 1.39624C15.007 1.48786 14.888 1.60989 14.8032 1.71284C14.7259 1.80664 14.65 1.91912 14.583 2.01836L12.4738 5.14371C12.3228 5.36742 12.2324 5.49817 12.1583 5.58811C12.1177 5.63734 12.095 5.65789 12.0864 5.66484C12.0758 5.6681 12.046 5.67544 11.9825 5.68152C11.8665 5.69263 11.7076 5.69444 11.4377 5.69444H6.00025C5.77719 5.69444 5.54674 5.7051 5.33405 5.75182C5.11286 5.80041 4.86589 5.89764 4.65967 6.10386C4.45345 6.31009 4.35622 6.55706 4.30763 6.77824C4.2609 6.99093 4.25025 7.22138 4.25025 7.44444V9.88889C4.25025 10.112 4.2609 10.3424 4.30763 10.5551C4.35622 10.7763 4.45345 11.0232 4.65967 11.2295C4.86589 11.4357 5.11286 11.5329 5.33405 11.5815C5.54674 11.6282 5.77719 11.6389 6.00025 11.6389H7.61863C7.80695 11.6389 7.95923 11.6393 8.08409 11.6415C8.01609 11.7462 7.9312 11.8727 7.82585 12.0288L4.54975 16.8824L4.53244 16.9079C4.46799 17.0022 4.36134 17.1585 4.30493 17.3429C4.24852 17.5273 4.24953 17.7164 4.25014 17.8307L4.25025 17.8615V21C4.25025 21.2231 4.2609 21.4535 4.30763 21.6662C4.35622 21.8874 4.45345 22.1344 4.65967 22.3406C4.86589 22.5468 5.11286 22.644 5.33405 22.6926C5.54674 22.7393 5.77719 22.75 6.00025 22.75H7.97195C8.09167 22.75 8.22736 22.75 8.34835 22.7384C8.48112 22.7257 8.6488 22.6954 8.82118 22.6038C8.99355 22.5121 9.11249 22.3901 9.1973 22.2872C9.27457 22.1934 9.35046 22.0809 9.41743 21.9817L11.5267 18.8563C11.6777 18.6326 11.7681 18.5018 11.8422 18.4119C11.8828 18.3627 11.9055 18.3421 11.9141 18.3352C11.9247 18.3319 11.9545 18.3246 12.018 18.3185C12.134 18.3074 12.2929 18.3056 12.5628 18.3056H18.0003C18.2233 18.3056 18.4538 18.2949 18.6665 18.2482C18.8876 18.1996 19.1346 18.1024 19.3408 17.8961C19.5471 17.6899 19.6443 17.4429 19.6929 17.2218C19.7396 17.0091 19.7503 16.7786 19.7503 16.5556V14.1111C19.7503 13.888 19.7396 13.6576 19.6929 13.4449C19.6443 13.2237 19.5471 12.9768 19.3408 12.7705C19.1346 12.5643 18.8876 12.4671 18.6665 12.4185C18.4538 12.3718 18.2233 12.3611 18.0003 12.3611H16.3819C16.1936 12.3611 16.0413 12.3607 15.9164 12.3585C15.9844 12.2538 16.0693 12.1273 16.1747 11.9712L19.4508 7.11759L19.4681 7.09215C19.5325 6.99776 19.6392 6.84155 19.6956 6.65715C19.752 6.47275 19.751 6.2836 19.7504 6.16931L19.7503 6.13854V3C19.7503 2.77694 19.7396 2.54648 19.6929 2.3338C19.6443 2.11261 19.5471 1.86564 19.3408 1.65942C19.1346 1.4532 18.8876 1.35596 18.6665 1.30737C18.4538 1.26065 18.2233 1.25 18.0003 1.25Z" fill="currentColor"/>
<path d="M18.0003 1.25H16.0286C15.9089 1.25 15.7731 1.25 15.6522 1.26158C15.5194 1.27429 15.3517 1.30462 15.1793 1.39624C15.007 1.48786 14.888 1.60989 14.8032 1.71284C14.7259 1.80665 14.65 1.91914 14.583 2.01838L4.54975 16.8824L4.53244 16.9079C4.46799 17.0022 4.36134 17.1585 4.30493 17.3429C4.24852 17.5273 4.24953 17.7164 4.25014 17.8307L4.25025 17.8615V21C4.25025 21.2231 4.2609 21.4535 4.30763 21.6662C4.35622 21.8874 4.45345 22.1344 4.65967 22.3406C4.86589 22.5468 5.11286 22.644 5.33405 22.6926C5.54674 22.7393 5.77719 22.75 6.00025 22.75H7.97195C8.09167 22.75 8.22736 22.75 8.34835 22.7384C8.48112 22.7257 8.6488 22.6954 8.82118 22.6038C8.99355 22.5121 9.11249 22.3901 9.1973 22.2872C9.27458 22.1934 9.35049 22.0809 9.41746 21.9816L19.4508 7.11759L19.4681 7.09215C19.5325 6.99776 19.6392 6.84155 19.6956 6.65715C19.752 6.47275 19.751 6.2836 19.7504 6.16931L19.7503 6.13854V3C19.7503 2.77694 19.7396 2.54648 19.6929 2.3338C19.6443 2.11261 19.5471 1.86564 19.3408 1.65942C19.1346 1.4532 18.8876 1.35596 18.6665 1.30737C18.4538 1.26065 18.2233 1.25 18.0003 1.25Z" fill="currentColor"/>
</svg>
