<svg width="24" height="24" viewBox="0 0 24 24" xmlns="http://www.w3.org/2000/svg">
    <path class="pr-icon-bulk-secondary" d="M12.0572 1.75H12.0572H11.9428H11.9428C9.75212 1.74999 8.03144 1.74998 6.68802 1.93059C5.31137 2.11568 4.21911 2.50272 3.36091 3.36091C2.50272 4.21911 2.11568 5.31137 1.93059 6.68802C1.74998 8.03144 1.74999 9.75211 1.75 11.9428V11.9428V12.0572V12.0572C1.74999 14.2479 1.74998 15.9686 1.93059 17.312C2.11568 18.6886 2.50272 19.7809 3.36091 20.6391C4.21911 21.4973 5.31137 21.8843 6.68802 22.0694C8.03144 22.25 9.7521 22.25 11.9428 22.25H12.0572C14.2479 22.25 15.9686 22.25 17.312 22.0694C18.6886 21.8843 19.7809 21.4973 20.6391 20.6391C21.4973 19.7809 21.8843 18.6886 22.0694 17.312C22.25 15.9686 22.25 14.2479 22.25 12.0572V11.9428C22.25 9.75214 22.25 8.03144 22.0694 6.68802C21.8843 5.31137 21.4973 4.21911 20.6391 3.36091C19.7809 2.50272 18.6886 2.11568 17.312 1.93059C15.9686 1.74998 14.2479 1.74999 12.0572 1.75Z" />
    <path class="pr-icon-bulk-primary" fill-rule="evenodd" clip-rule="evenodd" d="M15.3213 7.32465L12.4014 8.29796C10.8912 8.80136 10.1361 9.05306 9.59457 9.59457C9.05306 10.1361 8.80136 10.8912 8.29796 12.4014L7.32465 15.3213C7.02924 16.2075 6.88153 16.6507 7.11544 16.8846C7.34935 17.1185 7.79247 16.9708 8.67871 16.6753L11.5986 15.702C13.1088 15.1986 13.8639 14.9469 14.4054 14.4054C14.9469 13.8639 15.1986 13.1088 15.702 11.5986L16.6754 8.6787C16.9708 7.79246 17.1185 7.34935 16.8846 7.11544C16.6507 6.88153 16.2075 7.02924 15.3213 7.32465ZM12.708 12.7017C13.0973 12.3124 13.0973 11.6813 12.708 11.292C12.3187 10.9027 11.6876 10.9027 11.2983 11.292L11.292 11.2983C10.9027 11.6876 10.9027 12.3187 11.292 12.708C11.6813 13.0973 12.3124 13.0973 12.7017 12.708L12.708 12.7017Z" />
</svg>
