<svg width="24" height="24" viewBox="0 0 24 24" xmlns="http://www.w3.org/2000/svg">
<path class="pr-icon-bulk-secondary" d="M7.75 5.5C7.75 3.15279 9.65279 1.25 12 1.25C14.3472 1.25 16.25 3.15279 16.25 5.5V6.5C16.25 8.84721 14.3472 10.75 12 10.75C9.65279 10.75 7.75 8.84721 7.75 6.5V5.5Z" fill="currentColor"/>
<path class="pr-icon-bulk-secondary" d="M10 12.25C10.1989 12.25 10.3897 12.329 10.5303 12.4697L12 13.9393L13.4697 12.4697C13.6103 12.329 13.8011 12.25 14 12.25H14C15.3676 12.25 16.5248 12.25 17.3918 12.3665C18.2919 12.4875 19.0497 12.7464 19.6517 13.3484C20.2536 13.9503 20.5125 14.7081 20.6335 15.6083C20.75 16.4752 20.75 17.5775 20.75 18.9451V22C20.75 22.4142 20.4142 22.75 20 22.75H4C3.58579 22.75 3.25 22.4142 3.25 22V18.9451V18.9451C3.24998 17.5775 3.24996 16.4752 3.36652 15.6082C3.48754 14.7081 3.74643 13.9503 4.34835 13.3484C4.95027 12.7464 5.70814 12.4875 6.60825 12.3665C7.47521 12.25 8.6324 12.25 9.99998 12.25H10Z" fill="currentColor"/>
<path d="M9.25 16.3537C10.4043 16.6802 11.25 17.7414 11.25 19.0002V20.0002C11.25 20.4144 10.9142 20.7502 10.5 20.7502C10.0858 20.7502 9.75 20.4144 9.75 20.0002V19.0002C9.75 18.3099 9.19036 17.7502 8.5 17.7502C7.80964 17.7502 7.25 18.3099 7.25 19.0002V20.0002C7.25 20.4144 6.91421 20.7502 6.5 20.7502C6.08579 20.7502 5.75 20.4144 5.75 20.0002V19.0002C5.75 17.7414 6.59575 16.6802 7.75 16.3537V12.2766C8.20592 12.2584 8.70792 12.2527 9.25 12.251V16.3537Z" fill="currentColor"/>
<path d="M15.25 17.9509C14.8016 18.2102 14.5 18.695 14.5 19.2502C14.5 20.0786 15.1716 20.7502 16 20.7502C16.8284 20.7502 17.5 20.0786 17.5 19.2502C17.5 18.695 17.1984 18.2102 16.75 17.9509V12.3035C16.3025 12.2724 15.8001 12.2594 15.25 12.2541V17.9509Z" fill="currentColor"/>
</svg>
