<svg width="24" height="24" viewBox="0 0 24 24" xmlns="http://www.w3.org/2000/svg">
<path class="pr-icon-bulk-secondary" d="M12.0572 1.75H12.0572H11.9428H11.9428C9.75212 1.74999 8.03144 1.74998 6.68802 1.93059C5.31137 2.11568 4.21911 2.50272 3.36091 3.36091C2.50272 4.21911 2.11568 5.31137 1.93059 6.68802C1.74998 8.03144 1.74999 9.75211 1.75 11.9428V11.9428V12.0572V12.0572C1.74999 14.2479 1.74998 15.9686 1.93059 17.312C2.11568 18.6886 2.50272 19.7809 3.36091 20.6391C4.21911 21.4973 5.31137 21.8843 6.68802 22.0694C8.03144 22.25 9.7521 22.25 11.9428 22.25H12.0572C14.2479 22.25 15.9686 22.25 17.312 22.0694C18.6886 21.8843 19.7809 21.4973 20.6391 20.6391C21.4973 19.7809 21.8843 18.6886 22.0694 17.312C22.25 15.9686 22.25 14.2479 22.25 12.0572V11.9428C22.25 9.75214 22.25 8.03144 22.0694 6.68802C21.8843 5.31137 21.4973 4.21911 20.6391 3.36091C19.7809 2.50272 18.6886 2.11568 17.312 1.93059C15.9686 1.74998 14.2479 1.74999 12.0572 1.75Z" fill="currentColor"/>
<path class="pr-icon-bulk-primary" fill-rule="evenodd" clip-rule="evenodd" d="M13 7C13 6.44772 12.5523 6 12 6C11.4477 6 11 6.44772 11 7V10.1284H10.4499L10.4308 10.1283C10.3585 10.1281 10.2144 10.1277 10.0869 10.146C9.97239 10.1624 9.45752 10.2468 9.2198 10.7816C8.98208 11.3164 9.26446 11.7551 9.32894 11.8511C9.40076 11.958 9.4977 12.0648 9.54626 12.1182L9.55915 12.1324L10.2309 12.8767C10.4509 13.1206 10.6785 13.3729 10.8951 13.556C11.1408 13.7636 11.5051 14 12 14C12.4949 14 12.8592 13.7636 13.1049 13.556C13.3215 13.3729 13.549 13.1206 13.7691 12.8767L14.4409 12.1324L14.4537 12.1182C14.5023 12.0648 14.5992 11.958 14.6711 11.8511C14.7355 11.7551 15.0179 11.3164 14.7802 10.7816C14.5425 10.2468 14.0276 10.1624 13.9131 10.146C13.7856 10.1277 13.6415 10.1281 13.5692 10.1283L13.5501 10.1284H13V7ZM9 16C8.44772 16 8 16.4477 8 17C8 17.5523 8.44772 18 9 18H15C15.5523 18 16 17.5523 16 17C16 16.4477 15.5523 16 15 16H9Z" fill="currentColor"/>
</svg>
