<svg width="24" height="24" viewBox="0 0 24 24" xmlns="http://www.w3.org/2000/svg">
    <path class="pr-icon-bulk-secondary" d="M8.10424 14.3918C8.2662 14.326 8.3719 14.1701 8.37191 13.9971L8.37208 5.44181C8.37209 4.78357 8.90572 4.24997 9.56395 4.25C10.2222 4.25003 10.7557 4.78362 10.7557 5.44183L10.7557 11.3494C10.7557 11.5852 10.9492 11.7764 11.1879 11.7764C11.4266 11.7764 11.6201 11.5852 11.6201 11.3494V9.45878C11.6201 9.28627 11.6201 9.20002 11.6916 9.116C11.763 9.03197 11.8293 9.02115 11.962 8.99951C12.0705 8.98182 12.1724 8.97398 12.235 8.97221C12.8222 8.97221 13.3634 9.16508 13.8002 9.49062C13.8935 9.5602 13.9402 9.59498 13.9721 9.65849C14.0039 9.722 14.0039 9.78914 14.0039 9.92343V12.4247C14.0039 12.6604 14.1974 12.8516 14.4361 12.8516C14.6748 12.8516 14.8683 12.6604 14.8683 12.4247V10.5266C14.8683 10.2354 14.8683 10.0898 14.9716 10.0001C15.0748 9.91042 15.2055 9.92884 15.4668 9.96568C16.2299 10.0733 16.7366 10.4015 17.1422 10.9288C17.194 10.9962 17.22 11.0299 17.236 11.0769C17.2519 11.1239 17.2519 11.1714 17.2519 11.2663V13.4999C17.2519 13.7356 17.4454 13.9268 17.6841 13.9268C17.9228 13.9268 18.1163 13.7356 18.1163 13.4999V11.758C18.1163 11.4191 18.1163 11.2497 18.2444 11.1601C18.3724 11.0705 18.5154 11.1228 18.8015 11.2272C19.7616 11.5776 20.5 12.3366 20.5 13.6834C20.5 14.688 20.4996 15.9493 20.4592 16.5883C20.4181 17.2388 20.3331 17.784 20.1395 18.2925C19.9053 18.9078 19.3409 19.6047 18.9672 20.0336C18.742 20.2921 18.6208 20.6007 18.6208 20.9002C18.6209 20.9728 18.6209 21.0675 18.6155 21.1371C18.548 21.9954 17.8663 22.6772 17.008 22.7447C16.9383 22.7501 16.8629 22.7501 16.7902 22.75L10.9133 22.75C10.5229 22.7501 10.1786 22.7501 9.90138 22.7241C9.61502 22.6973 9.28924 22.6356 9.00021 22.433C8.68615 22.2128 8.50457 21.8574 8.37494 21.5668C8.23509 21.2533 8.08279 20.8334 7.89853 20.3253L7.88826 20.297C7.74629 19.9055 7.56428 19.5608 7.35658 19.2941L3.77714 14.3694C3.59782 14.1296 3.50554 13.8047 3.5 13.521C3.50327 13.2173 3.60573 12.9148 3.80653 12.6647C4.32582 12.018 5.29157 11.9653 5.87855 12.55L7.63279 14.2977C7.75611 14.4205 7.94229 14.4577 8.10424 14.3918Z" />
    <path class="pr-icon-bulk-primary" fill-rule="evenodd" clip-rule="evenodd" d="M9.56445 2.74994C7.76953 2.74994 6.31445 4.20501 6.31445 5.99994C6.31445 7.37408 7.16727 8.54903 8.37249 9.0244L8.37246 10.5991C6.32603 10.0703 4.81445 8.21163 4.81445 5.99994C4.81445 3.37659 6.9411 1.24994 9.56445 1.24994C11.9326 1.24994 13.896 2.98296 14.2556 5.24995H16V3.99995C16 3.70733 16.1702 3.44144 16.4359 3.31889C16.7016 3.19634 17.0143 3.23953 17.2369 3.4295L18.4408 4.45706C18.6888 4.66869 18.9296 4.8741 19.1021 5.06706C19.2916 5.27907 19.5 5.58444 19.5 5.99995C19.5 6.41546 19.2916 6.72083 19.1021 6.93284C18.9296 7.1258 18.6888 7.33121 18.4408 7.54284L17.2369 8.5704C17.0143 8.76037 16.7016 8.80356 16.4359 8.68101C16.1702 8.55846 16 8.29257 16 7.99995V6.74995H13.75C13.7186 6.74995 13.6876 6.74802 13.6572 6.74426C13.6268 6.74801 13.5958 6.74994 13.5645 6.74994C13.1502 6.74994 12.8145 6.41415 12.8145 5.99994C12.8145 4.20501 11.3594 2.74994 9.56445 2.74994Z" />
</svg>
