<svg width="24" height="24" viewBox="0 0 24 24" xmlns="http://www.w3.org/2000/svg">
    <path class="pr-icon-bulk-secondary" d="M11.5874 22.7499C12.1574 22.7507 12.6619 22.7514 13.1373 22.5827C13.2353 22.5479 13.3314 22.5079 13.4251 22.4629C13.8799 22.2442 14.2362 21.8851 14.6387 21.4795L19.4215 16.6718C19.8889 16.2035 20.3037 15.7878 20.5277 15.2441C20.7518 14.7003 20.7509 14.1116 20.7499 13.4482L20.7497 9.97391C20.7498 8.19191 20.7498 6.75556 20.5987 5.62588C20.4418 4.45302 20.1062 3.46549 19.326 2.68119C18.5457 1.89688 17.5633 1.55954 16.3965 1.40185C15.2727 1.24997 13.8438 1.24999 12.071 1.25002C10.2982 1.24999 8.72705 1.24997 7.60322 1.40185C6.43643 1.55954 5.45402 1.89688 4.67377 2.68119C4.65111 2.70396 4.62883 2.7269 4.60692 2.75002H12.25C13.4926 2.75002 14.5 3.75738 14.5 5.00002C14.5 6.24266 13.4926 7.25002 12.25 7.25002H3.27817C3.24997 8.04992 3.24999 8.95545 3.25 9.97385V14.5474C3.24998 16.0811 3.24997 17.3176 3.36425 18.3015C3.48248 19.3194 3.73418 20.1916 4.32681 20.9305C4.54435 21.2017 4.79012 21.4487 5.05993 21.6674C5.79495 22.2631 6.66266 22.5161 7.67534 22.635C8.6541 22.7498 10.0617 22.7499 11.5874 22.7499Z" />
    <path class="pr-icon-bulk-primary" d="M13.1373 22.5827C13.2353 22.5479 13.3314 22.5079 13.4251 22.4629C13.8799 22.2442 14.2362 21.8851 14.6387 21.4795L14.6387 21.4795L19.4215 16.6718L19.4215 16.6718C19.8889 16.2035 20.3037 15.7878 20.5277 15.2441C20.6265 15.0043 20.6816 14.7559 20.7122 14.4961H18.7314C17.3638 14.4961 16.7152 14.4969 15.8483 14.6134C14.9481 14.7345 14.1903 14.9933 13.5884 15.5953C12.9864 16.1972 12.7275 16.9551 12.6065 17.8552C12.4902 18.7203 12.4902 19.3764 12.4902 20.7383V20.7383V22.7213C12.7136 22.6983 12.9283 22.6568 13.1373 22.5827Z" />
    <path class="pr-icon-bulk-primary" fill-rule="evenodd" clip-rule="evenodd" d="M3.25 5.00002C3.25 4.44773 3.69772 4.00002 4.25 4.00002H12.25C12.8023 4.00002 13.25 4.44773 13.25 5.00002C13.25 5.5523 12.8023 6.00002 12.25 6.00002H4.25C3.69772 6.00002 3.25 5.5523 3.25 5.00002Z" />
</svg>
