<svg width="24" height="24" viewBox="0 0 24 24" xmlns="http://www.w3.org/2000/svg">
<path class="pr-icon-bulk-secondary" d="M15.7237 22.5402C16.2322 22.3296 16.6227 21.9382 17.1163 21.4438L19.944 18.616C20.4385 18.1225 20.8298 17.7319 21.0404 17.2235C21.251 16.715 21.2505 16.1621 21.2498 15.4635L21.2498 10.9446C21.2498 9.57705 21.2498 8.47473 21.1332 7.60776C21.0122 6.70765 20.7533 5.94978 20.1514 5.34786C19.5495 4.74595 18.7916 4.48705 17.8915 4.36604C17.0245 4.24947 15.9222 4.24949 14.5546 4.24951L12.4449 4.24951C11.0773 4.24949 9.97498 4.24947 9.10801 4.36604C8.2079 4.48705 7.45002 4.74595 6.84811 5.34786C6.24619 5.94978 5.9873 6.70765 5.86628 7.60776C5.74972 8.47472 5.74974 9.57706 5.74976 10.9446L5.74976 16.0544C5.74974 17.422 5.74972 18.5243 5.86628 19.3913C5.9873 20.2914 6.24619 21.0492 6.84811 21.6512C7.45002 22.2531 8.2079 22.512 9.10801 22.633C9.97497 22.7495 12.5962 22.7496 13.9638 22.7496C14.6624 22.7503 15.2153 22.7508 15.7237 22.5402Z" fill="currentColor"/>
<path class="pr-icon-bulk-primary" d="M17.1167 21.445L17.1167 21.445L19.9445 18.6172C20.4389 18.1237 20.8303 17.7331 21.0409 17.2247C21.222 16.7873 21.247 16.317 21.25 15.7494L18.9488 15.7494H18.9488C18.0503 15.7494 17.3011 15.7493 16.7063 15.8293C16.0785 15.9137 15.5117 16.0994 15.0563 16.5548C14.6008 17.0103 14.4151 17.5771 14.3307 18.2049C14.2507 18.7997 14.2508 19.6009 14.2508 20.4993V20.4994V22.7505C14.8176 22.7474 15.2873 22.7224 15.7242 22.5414C16.2326 22.3308 16.6232 21.9395 17.1167 21.445Z" fill="currentColor"/>
<path class="pr-icon-bulk-primary" fill-rule="evenodd" clip-rule="evenodd" d="M9.25269 11.9994C9.25269 12.4136 9.58847 12.7494 10.0027 12.7494L14.0027 12.7494C14.4169 12.7494 14.7527 12.4136 14.7527 11.9994C14.7527 11.5852 14.4169 11.2494 14.0027 11.2494L10.0027 11.2494C9.58847 11.2494 9.25269 11.5852 9.25269 11.9994ZM9.25269 7.99939C9.25269 8.4136 9.58847 8.74939 10.0027 8.74939L17.0027 8.74939C17.4169 8.74939 17.7527 8.4136 17.7527 7.99939C17.7527 7.58518 17.4169 7.24939 17.0027 7.24939L10.0027 7.24939C9.58847 7.24939 9.25269 7.58518 9.25269 7.99939Z" fill="currentColor"/>
<path class="pr-icon-bulk-primary" d="M4.58919 19.2277C3.48816 18.5743 2.75012 17.3735 2.75012 16.0004L2.75012 7.94549C2.7501 6.57792 2.75009 5.47558 2.86665 4.60862C2.98766 3.70851 3.24656 2.95063 3.84847 2.34871C4.45039 1.7468 5.20827 1.48791 6.10837 1.36689C6.97534 1.25033 8.07766 1.25035 9.44526 1.25037L14.5005 1.25037C15.8734 1.25037 17.074 1.9882 17.7274 3.08895C16.8409 2.99981 15.7879 2.99987 14.6309 2.99993L12.3694 2.99993C11.0648 2.99986 9.89239 2.9998 8.94182 3.1276C7.9036 3.26719 6.83771 3.59129 5.9646 4.46439C5.09149 5.3375 4.76738 6.40339 4.6278 7.44162C4.5 8.39219 4.50006 9.56458 4.50013 10.8691L4.50013 16.1307C4.50007 17.2879 4.50001 18.341 4.58919 19.2277Z" fill="currentColor"/>
</svg>
