<svg width="24" height="24" viewBox="0 0 24 24" xmlns="http://www.w3.org/2000/svg">
<path opacity="0.4" d="M3.25 11.6803V14.5474C3.24998 16.0811 3.24997 17.3176 3.36424 18.3014C3.48248 19.3194 3.73418 20.1916 4.32681 20.9305C4.54435 21.2017 4.79012 21.4487 5.05993 21.6674C5.79495 22.2631 6.66266 22.5161 7.67534 22.635C8.6541 22.7498 10.0617 22.7499 11.5874 22.7499C12.1574 22.7507 12.6619 22.7513 13.1373 22.5827C13.2353 22.5479 13.3314 22.5079 13.4251 22.4629C13.8799 22.2442 14.2362 21.8851 14.6387 21.4795L19.4215 16.6718C19.8889 16.2035 20.3037 15.7878 20.5277 15.244C20.7518 14.7003 20.7509 14.1115 20.7499 13.4482L20.7497 9.9739C20.7498 8.19189 20.7498 6.75554 20.5987 5.62586C20.4418 4.453 20.1062 3.46548 19.326 2.68117C18.5457 1.89686 17.5633 1.55952 16.3965 1.40183C15.2727 1.24995 13.8438 1.24997 12.071 1.25C11.7682 1.25 11.4713 1.24999 11.1815 1.25074C11.675 1.85051 11.852 2.52442 11.9272 3.08113C12.0003 3.6229 12.0002 4.26557 12.0001 4.87962L12.0001 8.55581C12.0003 8.93051 12.0005 9.40059 11.9431 9.79406C11.8869 10.1794 11.6739 11.2597 10.5576 11.7804C9.44516 12.2994 8.48202 11.7734 8.15096 11.571C8.00915 11.4843 7.79872 11.3208 7.63934 11.1957C7.45013 11.0471 7.21115 10.8546 7.00005 10.6831C6.78895 10.8546 6.54997 11.0471 6.36076 11.1957C6.20138 11.3208 5.99096 11.4843 5.84914 11.571C5.51808 11.7734 4.55494 12.2994 3.44246 11.7804C3.37507 11.749 3.31097 11.7155 3.25 11.6803Z" fill="currentColor"/>
<path d="M13.1373 22.5827C13.2353 22.5479 13.3314 22.5079 13.4251 22.4629C13.8799 22.2442 14.2362 21.8851 14.6387 21.4795L14.6387 21.4795L19.4215 16.6718L19.4215 16.6718C19.8889 16.2035 20.3037 15.7878 20.5277 15.244C20.6265 15.0043 20.6816 14.7558 20.7122 14.4961H18.7314C17.3638 14.4961 16.7152 14.4969 15.8483 14.6134C14.9481 14.7344 14.1903 14.9933 13.5884 15.5952C12.9864 16.1972 12.7275 16.955 12.6065 17.8551C12.4902 18.7203 12.4902 19.3764 12.4902 20.7383V20.7383V22.7213C12.7136 22.6983 12.9283 22.6568 13.1373 22.5827Z" fill="currentColor"/>
<path d="M7.04928 1.25C7.71426 1.24996 8.28693 1.24993 8.74546 1.31134C9.23655 1.3771 9.70757 1.52536 10.0899 1.90619C10.4727 2.28743 10.6221 2.75778 10.6884 3.24833C10.7501 3.70564 10.7501 4.27656 10.75 4.93848L10.75 8.50493C10.7501 8.92037 10.7502 9.31202 10.7062 9.61365C10.6621 9.91583 10.536 10.4112 10.0292 10.6476C9.52368 10.8834 9.06327 10.6637 8.80289 10.5045C8.54246 10.3453 7.00001 9.06605 7.00001 9.06605C7.00001 9.06605 5.45756 10.3453 5.19713 10.5045C4.93676 10.6637 4.47634 10.8834 3.97087 10.6476C3.46402 10.4112 3.33793 9.91583 3.29385 9.61365C3.24986 9.31202 3.24993 8.92037 3.25001 8.50492L3.25001 4.98797L3.25001 4.93849C3.24997 4.27656 3.24994 3.70564 3.31167 3.24833C3.37789 2.75778 3.52731 2.28743 3.91009 1.90619C4.29245 1.52536 4.76347 1.3771 5.25456 1.31134C5.71311 1.24993 6.38424 1.24996 7.04923 1.25H7.04928Z" fill="currentColor"/>
</svg>
