<svg width="24" height="24" viewBox="0 0 24 24" xmlns="http://www.w3.org/2000/svg">
<path d="M16.0606 13.25L16.0992 13.25H17.9008L17.9394 13.25C18.2316 13.2499 18.5164 13.2499 18.7478 13.2786C18.9965 13.3094 19.3316 13.3879 19.5962 13.6674C19.8817 13.9691 19.921 14.3269 19.9036 14.5985C19.8893 14.8226 19.8289 15.0838 19.7735 15.3232L19.7735 15.3232L19.5374 16.3455L20.0609 17.1013C20.2675 17.3993 20.4717 17.6939 20.5937 17.9487C20.7246 18.2221 20.8776 18.693 20.5744 19.1568C20.3003 19.576 19.8475 19.675 19.5581 19.7122C19.2629 19.7501 18.8829 19.7501 18.4705 19.75L17.75 19.75V22C17.75 22.4142 17.4142 22.75 17 22.75C16.5858 22.75 16.25 22.4142 16.25 22V19.75L15.5294 19.75C15.1171 19.7501 14.7371 19.7501 14.4419 19.7122C14.1525 19.675 13.6997 19.576 13.4256 19.1568C13.1224 18.693 13.2754 18.2221 13.4063 17.9487C13.5283 17.6939 13.7325 17.3993 13.9391 17.1013L14.4626 16.3455L14.2265 15.3232C14.1711 15.0838 14.1107 14.8226 14.0963 14.5985C14.079 14.3269 14.1183 13.9691 14.4038 13.6674C14.6684 13.3879 15.0035 13.3094 15.2522 13.2786C15.4836 13.2499 15.7684 13.2499 16.0606 13.25Z" fill="currentColor"/>
<path class="pr-icon-bulk-secondary" d="M11.5869 1.2501C12.1569 1.24934 12.6614 1.24866 13.1368 1.41733C13.2348 1.45209 13.3309 1.49208 13.4246 1.53715C13.8794 1.75582 14.2357 2.11489 14.6382 2.52054L19.421 7.32819C19.8884 7.79654 20.3031 8.2122 20.5272 8.75596C20.7513 9.29971 20.7504 9.88846 20.7494 10.5518L20.7493 13.1117C20.6796 13.0089 20.5987 12.9073 20.5049 12.8082C19.9434 12.215 19.2571 12.082 18.9025 12.0381C18.5926 11.9997 18.2407 11.9999 17.9767 12H16.0251C15.7611 11.9999 15.4092 11.9997 15.0993 12.0381C14.7447 12.082 14.0584 12.215 13.4969 12.8082C12.8776 13.4624 12.821 14.2276 12.8498 14.6782C12.8708 15.0074 12.9518 15.356 13.0018 15.5714L13.0018 15.5714L13.1212 16.0882L12.8852 16.4287C12.6999 16.6957 12.446 17.0617 12.2798 17.4089C12.0955 17.7936 11.7058 18.8091 12.3802 19.8408C12.9738 20.7487 13.9257 20.9061 14.2835 20.952C14.5073 20.9808 14.7567 20.9924 15.0009 20.997V22C15.0009 22.2489 15.0464 22.4872 15.1294 22.707C14.2508 22.75 13.2348 22.75 12.0705 22.75C10.2977 22.75 8.72655 22.75 7.60272 22.5982C6.43593 22.4405 5.45351 22.1031 4.67326 21.3188C3.89301 20.5345 3.55742 19.547 3.40055 18.3741C3.24945 17.2445 3.24947 15.8082 3.2495 14.0262V14.0262V9.45263V9.45261C3.24948 7.91897 3.24947 6.68239 3.36374 5.69856C3.48198 4.6806 3.73368 3.80839 4.32631 3.06954C4.54385 2.79833 4.78961 2.55128 5.05942 2.33261C5.79445 1.7369 6.66215 1.48389 7.67484 1.36504C8.6536 1.25017 10.0612 1.25008 11.5869 1.2501Z" fill="currentColor"/>
<path d="M19.421 7.32881L19.421 7.32881L14.6382 2.52116C14.2357 2.11551 13.8794 1.75644 13.4246 1.53777C13.3309 1.49271 13.2348 1.45271 13.1368 1.41795C12.9278 1.34379 12.7131 1.30237 12.4897 1.2793V3.26234V3.27072C12.4897 4.63258 12.4897 5.28029 12.606 6.14548C12.727 7.04559 12.9859 7.80346 13.5879 8.40538C14.1898 9.0073 14.9476 9.26619 15.8478 9.38721C16.7147 9.50377 17.3633 9.50455 18.7309 9.50453H20.7117C20.6811 9.24478 20.626 8.99631 20.5272 8.75658C20.3031 8.21283 19.8884 7.79717 19.421 7.32881Z" fill="currentColor"/>
</svg>
