<svg width="24" height="24" viewBox="0 0 24 24" xmlns="http://www.w3.org/2000/svg">
<path class="pr-icon-bulk-secondary" d="M13.1374 22.5827C12.662 22.7514 12.1575 22.7507 11.5875 22.75C10.0618 22.75 8.65416 22.7499 7.67541 22.635C6.66272 22.5162 5.79501 22.2632 5.05999 21.6674C4.79018 21.4488 4.54441 21.2017 4.32687 20.9305C3.73424 20.1917 3.48254 19.3195 3.36431 18.3015C3.25003 17.3177 3.25004 16.0812 3.25006 14.5475V14.5475V9.97393V9.97392C3.25004 8.19195 3.25002 6.75558 3.40111 5.62592C3.55798 4.45306 3.89358 3.46554 4.67383 2.68123C5.45408 1.89692 6.43649 1.55958 7.60328 1.40189C8.72711 1.25001 10.2982 1.25003 12.071 1.25006C13.8438 1.25003 15.2727 1.25001 16.3966 1.40189C17.5634 1.55958 18.5458 1.89692 19.326 2.68123C20.1063 3.46554 20.4419 4.45306 20.5987 5.62592C20.7498 6.7556 20.7498 8.19195 20.7498 9.97396L20.7499 13.4482C20.7509 14.1116 20.7518 14.7003 20.5278 15.2441C20.3037 15.7879 19.8889 16.2035 19.4216 16.6719L14.6387 21.4795C14.2363 21.8852 13.88 22.2442 13.4252 22.4629C13.3314 22.508 13.2354 22.548 13.1374 22.5827Z" fill="currentColor"/>
<path class="pr-icon-bulk-primary" d="M13.1375 22.5828C13.2354 22.548 13.3315 22.508 13.4252 22.463C13.8801 22.2443 14.2363 21.8852 14.6388 21.4796L14.6388 21.4796L19.4216 16.6719L19.4216 16.6719C19.889 16.2036 20.3038 15.7879 20.5278 15.2442C20.6266 15.0044 20.6817 14.756 20.7123 14.4962H18.7315C17.3639 14.4962 16.7153 14.497 15.8484 14.6135C14.9483 14.7346 14.1904 14.9935 13.5885 15.5954C12.9866 16.1973 12.7277 16.9552 12.6066 17.8553C12.4903 18.7205 12.4903 19.3765 12.4904 20.7384V22.7214C12.7137 22.6984 12.9284 22.657 13.1375 22.5828Z" fill="currentColor"/>
<path class="pr-icon-bulk-primary" fill-rule="evenodd" clip-rule="evenodd" d="M16.7501 7.00006C16.7501 7.41427 16.4143 7.75006 16.0001 7.75006L8.00006 7.75006C7.58585 7.75006 7.25006 7.41428 7.25006 7.00006C7.25006 6.58585 7.58585 6.25006 8.00006 6.25006L16.0001 6.25006C16.4143 6.25006 16.7501 6.58585 16.7501 7.00006Z" fill="currentColor"/>
<path class="pr-icon-bulk-primary" fill-rule="evenodd" clip-rule="evenodd" d="M12.7501 11.0001C12.7501 11.4143 12.4143 11.7501 12.0001 11.7501L8.00006 11.7501C7.58585 11.7501 7.25006 11.4143 7.25006 11.0001C7.25006 10.5858 7.58585 10.2501 8.00006 10.2501L12.0001 10.2501C12.4143 10.2501 12.7501 10.5858 12.7501 11.0001Z" fill="currentColor"/>
</svg>
