<svg width="24" height="24" viewBox="0 0 24 24" xmlns="http://www.w3.org/2000/svg">
<path class="pr-icon-bulk-secondary" d="M1.75 11.9428V12.0572C1.74999 14.2479 1.74998 15.9686 1.93059 17.312C2.11568 18.6886 2.50272 19.7809 3.36091 20.6391C4.21911 21.4973 5.31137 21.8843 6.68802 22.0694C8.03144 22.25 9.75212 22.25 11.9428 22.25H12.0572C14.2479 22.25 15.9686 22.25 17.312 22.0694C18.6886 21.8843 19.7809 21.4973 20.6391 20.6391C21.4973 19.7809 21.8843 18.6886 22.0694 17.312C22.25 15.9686 22.25 14.2479 22.25 12.0572V11.9428C22.25 9.75214 22.25 8.03143 22.0694 6.68802C21.8843 5.31136 21.4973 4.21911 20.6391 3.36091C19.7809 2.50271 18.6886 2.11568 17.312 1.93059C15.9686 1.74998 14.2479 1.74999 12.0572 1.75H11.9428C9.75213 1.74999 8.03144 1.74998 6.68802 1.93059C5.31137 2.11568 4.21911 2.50271 3.36091 3.36091C2.50271 4.21911 2.11568 5.31137 1.93059 6.68802C1.74998 8.03144 1.74999 9.75212 1.75 11.9428Z" fill="currentColor"/>
<path class="pr-icon-bulk-primary" d="M11.0001 14.9998C11.0001 15.4713 11.0001 15.707 10.8537 15.8534C10.7072 15.9998 10.4715 15.9998 10.0001 15.9998L4.2564 15.9998C3.80823 15.9998 3.58414 15.9998 3.43858 15.8583C3.29303 15.7167 3.28692 15.4974 3.27472 15.0588C3.25056 14.1905 3.25012 13.1829 3.25012 11.9998C3.25012 10.8168 3.25056 9.80924 3.27472 8.94091C3.28692 8.50229 3.29303 8.28297 3.43858 8.14141C3.58414 7.99985 3.80823 7.99985 4.2564 7.99985H10.0001C10.4715 7.99985 10.7072 7.99985 10.8537 8.14629C11.0001 8.29274 11.0001 8.52844 11.0001 8.99985L11.0001 14.9998Z" fill="currentColor"/>
<path class="pr-icon-bulk-primary" d="M13.0001 8.99985C13.0001 8.52844 13.0001 8.29274 13.1466 8.14629C13.293 7.99985 13.5287 7.99985 14.0001 7.99985H19.7438C20.192 7.99985 20.4161 7.99985 20.5617 8.14141C20.7072 8.28298 20.7133 8.50229 20.7255 8.94091C20.7497 9.80924 20.7501 10.8168 20.7501 11.9998C20.7501 13.1829 20.7497 14.1905 20.7255 15.0588C20.7133 15.4974 20.7072 15.7167 20.5617 15.8583C20.4161 15.9999 20.192 15.9999 19.7438 15.9999L14.0001 15.9998C13.5287 15.9998 13.293 15.9998 13.1466 15.8534C13.0001 15.707 13.0001 15.4713 13.0001 14.9998L13.0001 8.99985Z" fill="currentColor"/>
<path class="pr-icon-bulk-primary" d="M8.58808 3.5121C8.78043 3.50441 8.87661 3.50057 8.93804 3.55959C8.99947 3.61862 8.99947 3.71565 8.99947 3.90971L8.99947 6.09828C8.99947 6.28684 8.99947 6.38112 8.94089 6.4397C8.88231 6.49828 8.78803 6.49828 8.59947 6.49828H7.40003C7.21123 6.49828 7.11682 6.49828 7.05823 6.4396C6.99963 6.38092 6.99977 6.28651 7.00003 6.09771L7.00303 3.98387C7.00327 3.81544 7.00339 3.73123 7.05517 3.67417C7.10695 3.6171 7.18899 3.609 7.35306 3.59281C7.73121 3.55547 8.14563 3.52978 8.58808 3.5121Z" fill="currentColor"/>
<path class="pr-icon-bulk-primary" d="M15.4108 3.5121C15.2185 3.50441 15.1223 3.50057 15.0609 3.55959C14.9995 3.61862 14.9995 3.71565 14.9995 3.90971V6.09828C14.9995 6.28684 14.9995 6.38112 15.058 6.4397C15.1166 6.49828 15.2109 6.49828 15.3995 6.49828H16.5989C16.7877 6.49828 16.8821 6.49828 16.9407 6.4396C16.9993 6.38092 16.9992 6.28651 16.9989 6.09771L16.9959 3.98387C16.9957 3.81544 16.9955 3.73123 16.9438 3.67417C16.892 3.6171 16.8099 3.609 16.6459 3.59281C16.2677 3.55547 15.8533 3.52978 15.4108 3.5121Z" fill="currentColor"/>
<path class="pr-icon-bulk-primary" d="M8.58808 20.4843C8.78043 20.4919 8.8766 20.4958 8.93804 20.4368C8.99947 20.3777 8.99947 20.2807 8.99947 20.0867L8.99947 17.8981C8.99947 17.7095 8.99947 17.6152 8.94089 17.5567C8.88231 17.4981 8.78803 17.4981 8.59947 17.4981H7.40003C7.21123 17.4981 7.11682 17.4981 7.05823 17.5568C6.99963 17.6154 6.99977 17.7098 7.00003 17.8987L7.00303 20.0125C7.00327 20.1809 7.00339 20.2651 7.05517 20.3222C7.10695 20.3793 7.18899 20.3874 7.35306 20.4036C7.7312 20.4409 8.14563 20.4666 8.58808 20.4843Z" fill="currentColor"/>
<path class="pr-icon-bulk-primary" d="M15.4108 20.4843C15.2185 20.4919 15.1223 20.4958 15.0609 20.4368C14.9995 20.3777 14.9995 20.2807 14.9995 20.0867V17.8981C14.9995 17.7095 14.9995 17.6152 15.058 17.5567C15.1166 17.4981 15.2109 17.4981 15.3995 17.4981H16.5989C16.7877 17.4981 16.8821 17.4981 16.9407 17.5568C16.9993 17.6154 16.9992 17.7098 16.9989 17.8987L16.9959 20.0125C16.9957 20.1809 16.9955 20.2651 16.9438 20.3222C16.892 20.3793 16.8099 20.3874 16.6459 20.4036C16.2677 20.4409 15.8533 20.4666 15.4108 20.4843Z" fill="currentColor"/>
</svg>
