<svg width="24" height="24" viewBox="0 0 24 24" xmlns="http://www.w3.org/2000/svg">
<path class="pr-icon-bulk-secondary" fill-rule="evenodd" clip-rule="evenodd" d="M7.00919 2.74945C11.3463 -0.212619 17.6007 1.37046 19.9031 6.11608C20.1385 6.60121 19.9381 7.18628 19.4555 7.42289C18.9729 7.65949 18.3908 7.45802 18.1555 6.97289C16.3861 3.326 11.4862 2.05492 8.10192 4.36621C7.65779 4.66954 7.05313 4.55351 6.75138 4.10705C6.44963 3.6606 6.56506 3.05278 7.00919 2.74945ZM5.38107 5.69027C5.86457 5.92501 6.06722 6.50931 5.8337 6.99534C5.42361 7.84886 5.19444 8.80137 5.19444 9.80822V14.1599C5.19444 16.4035 6.33599 18.3958 8.10192 19.6019C8.54606 19.9052 8.66148 20.513 8.35973 20.9595C8.05798 21.4059 7.45333 21.522 7.00919 21.2186C4.74516 19.6724 3.25 17.092 3.25 14.1599V9.80822C3.25 8.49941 3.54863 7.25697 4.08278 6.14526C4.3163 5.65923 4.89757 5.45552 5.38107 5.69027ZM19.7778 9.39362C20.3147 9.39362 20.75 9.83117 20.75 10.3709V14.1599C20.75 19.3654 15.9012 23.3869 10.7547 22.6661C10.2229 22.5916 9.85187 22.0979 9.92597 21.5633C10.0001 21.0287 10.4912 20.6557 11.023 20.7302C15.0675 21.2966 18.8056 18.1114 18.8056 14.1599V10.3709C18.8056 9.83117 19.2408 9.39362 19.7778 9.39362ZM12 9.5565C12.5369 9.5565 12.9722 9.99405 12.9722 10.5338V13.4657C12.9722 14.0055 12.5369 14.443 12 14.443C11.4631 14.443 11.0278 14.0055 11.0278 13.4657V10.5338C11.0278 9.99405 11.4631 9.5565 12 9.5565Z" fill="currentColor"/>
<path fill-rule="evenodd" clip-rule="evenodd" d="M11.0276 6.13734C11.0276 5.59759 11.4628 5.16003 11.9998 5.16003C14.7287 5.16003 16.8609 7.48079 16.8609 10.242C16.8609 10.7818 16.4256 11.2193 15.8887 11.2193C15.3517 11.2193 14.9164 10.7818 14.9164 10.242C14.9164 8.46933 13.5665 7.11464 11.9998 7.11464C11.4628 7.11464 11.0276 6.67708 11.0276 6.13734ZM8.88589 7.59245C9.37509 7.81493 9.59225 8.39395 9.37092 8.88571C9.18723 9.29383 9.08312 9.75307 9.08312 10.242V13.7603C9.08312 15.533 10.4331 16.8877 11.9998 16.8877C13.5665 16.8877 14.9164 15.533 14.9164 13.7603C14.9164 13.2205 15.3517 12.783 15.8887 12.783C16.4256 12.783 16.8609 13.2205 16.8609 13.7603C16.8609 16.5215 14.7287 18.8423 11.9998 18.8423C9.27091 18.8423 7.13867 16.5215 7.13867 13.7603V10.242C7.13867 9.47187 7.3031 8.73823 7.59935 8.08001C7.82068 7.58825 8.39668 7.36996 8.88589 7.59245Z" fill="currentColor"/>
</svg>
