<svg width="24" height="24" viewBox="0 0 24 24" xmlns="http://www.w3.org/2000/svg">
<path class="pr-icon-bulk-secondary" d="M15.3038 20.8345C15.1236 20.6895 14.9652 20.5454 14.8348 20.4185L13.7055 20.9774C13.5005 21.0788 13.2605 21.0812 13.0536 20.9838C12.8467 20.8865 12.6955 20.7001 12.6429 20.4776C12.1827 18.5296 12.1266 15.3975 12.4762 12.264C12.8255 9.1342 13.5953 5.85728 14.8815 3.65795C15.451 2.68416 16.5172 2.24998 17.4997 2.25C18.4822 2.25002 19.5484 2.68424 20.1179 3.65787C21.4045 5.85714 22.1744 9.13406 22.5238 12.2639C22.8736 15.3974 22.8174 18.5295 22.3572 20.4776C22.3046 20.7001 22.1534 20.8865 21.9465 20.9838C21.7396 21.0811 21.4996 21.0788 21.2947 20.9774L20.1654 20.4186C20.0351 20.5454 19.8769 20.6895 19.6968 20.8343C19.1997 21.2343 18.4031 21.75 17.5005 21.75C16.5979 21.75 15.8011 21.2344 15.3038 20.8345Z" fill="currentColor"/>
<path class="pr-icon-bulk-primary" fill-rule="evenodd" clip-rule="evenodd" d="M17.5 6.25C17.9142 6.25 18.25 6.58579 18.25 7V8C18.25 8.41421 17.9142 8.75 17.5 8.75C17.0858 8.75 16.75 8.41421 16.75 8V7C16.75 6.58579 17.0858 6.25 17.5 6.25Z" fill="currentColor"/>
<path class="pr-icon-bulk-secondary" d="M8.69617 3.16554C8.87643 3.3105 9.03478 3.4546 9.16519 3.58146L10.2945 3.02264C10.4995 2.92123 10.7395 2.91885 10.9464 3.01617C11.1533 3.11349 11.3045 3.29988 11.3571 3.52241C11.8173 5.47042 11.8735 8.60252 11.5238 11.736C11.1745 14.8658 10.4047 18.1427 9.11852 20.342C8.54903 21.3158 7.48282 21.75 6.50032 21.75C5.51783 21.75 4.45165 21.3158 3.88208 20.3421C2.59554 18.1429 1.82556 14.8659 1.47619 11.7361C1.12641 8.60263 1.18257 5.47049 1.64279 3.52241C1.69536 3.29989 1.84657 3.1135 2.05347 3.01617C2.26037 2.91885 2.50036 2.92123 2.7053 3.02262L3.83464 3.5814C3.96494 3.45458 4.12314 3.31054 4.30322 3.16566C4.80033 2.76569 5.59689 2.25 6.49953 2.25C7.4021 2.25 8.19887 2.76563 8.69617 3.16554Z" fill="currentColor"/>
<path class="pr-icon-bulk-primary" fill-rule="evenodd" clip-rule="evenodd" d="M6.5 15.25C6.91421 15.25 7.25 15.5858 7.25 16V17C7.25 17.4142 6.91421 17.75 6.5 17.75C6.08578 17.75 5.75 17.4142 5.75 17V16C5.75 15.5858 6.08578 15.25 6.5 15.25Z" fill="currentColor"/>
</svg>
