<svg width="24" height="24" viewBox="0 0 24 24" xmlns="http://www.w3.org/2000/svg">
    <path class="pr-icon-bulk-primary" d="M15.9077 16.466C16.0351 15.0932 15.6021 13.5377 13.9394 11.8828C13.9515 13.6439 13.2691 15.1105 12.5817 15.9492C12.3983 16.1729 12.1015 16.2714 11.8197 16.2019C11.5379 16.1324 11.3217 15.9075 11.2648 15.6245C10.99 14.2588 10.2094 13.6572 9.37798 13.2336C9.32161 14.3973 8.81097 15.2349 8.43933 15.8445L8.43933 15.8445C8.33436 16.0167 8.24048 16.1707 8.17106 16.3087C7.06532 18.507 8.40413 20.1024 9.33044 21.2063C10.0736 21.9384 11.1891 22.4498 11.9342 22.75C14.3598 21.619 15.7145 18.5473 15.9077 16.466Z" />
    <path class="pr-icon-bulk-secondary" d="M10.6456 1.30244C10.8632 1.21696 11.1087 1.23679 11.3094 1.35606C15.5753 3.89182 19.5158 8.22204 20.8067 12.3962C21.4574 14.5006 21.4551 16.6438 20.3707 18.4821C19.287 20.319 17.2107 21.7018 14.0349 22.472C12.0944 22.9426 9.642 22.7336 8.70576 22.4469C5.84185 21.3945 3.81629 19.4233 3.06629 17.0181C2.31167 14.598 2.89019 11.8717 4.97016 9.41957C5.63741 8.63294 6.22041 7.98045 6.73375 7.40592C8.53955 5.38487 9.48338 4.32854 10.2004 1.79173C10.2634 1.5689 10.4281 1.38791 10.6456 1.30244Z" />
</svg>
