<svg width="24" height="24" viewBox="0 0 24 24" xmlns="http://www.w3.org/2000/svg">
<path class="pr-icon-bulk-secondary" d="M15.6659 2.32479C15.6659 1.81803 15.6659 1.56465 15.5057 1.40722C15.3456 1.24979 15.0878 1.24979 14.5722 1.24979H11.5814C8.6046 1.24979 6.00818 3.94721 6.18197 8.23729H4.34375C3.82815 8.23729 3.57035 8.23729 3.41018 8.39472C3.25 8.55215 3.25 8.80553 3.25 9.31229V10.9248C3.25 11.4315 3.25 11.6849 3.41018 11.8424C3.57035 11.9998 3.82815 11.9998 4.34375 11.9998H6.53125V21.6748C6.53125 22.1815 6.53125 22.4349 6.69143 22.5924C6.8516 22.7498 7.1094 22.7498 7.625 22.7498H9.8125C10.3281 22.7498 10.5859 22.7498 10.7461 22.5924C10.9062 22.4349 10.9062 22.1815 10.9062 21.6748V11.9998H15.8616V21.6748C15.8616 22.1815 15.8616 22.4349 16.0217 22.5924C16.1819 22.7498 16.4397 22.7498 16.9553 22.7498H19.6562C20.1718 22.7498 20.4296 22.7498 20.5898 22.5924C20.75 22.4349 20.75 22.1815 20.75 21.6748V10.3873C20.75 9.37377 20.75 8.86701 20.4296 8.55215C20.1093 8.23729 19.5937 8.23729 18.5625 8.23729H10.9062V6.87121C10.9062 6.08729 11.4531 5.01229 12.8717 5.01229H14.5722C15.0878 5.01229 15.3456 5.01229 15.5057 4.85486C15.6659 4.69743 15.6659 4.44405 15.6659 3.93729V2.32479Z" fill="currentColor"/>
<path class="pr-icon-bulk-primary" d="M11.5814 1.24957H14.5722C15.0878 1.24957 15.3456 1.24957 15.5057 1.407C15.6659 1.56443 15.6659 1.81782 15.6659 2.32457V3.93707C15.6659 4.44383 15.6659 4.69721 15.5057 4.85464C15.3456 5.01207 15.0878 5.01207 14.5722 5.01207H12.8717C11.4531 5.01207 10.9062 6.08707 10.9062 6.871V8.23707L14.8616 8.23707C15.333 8.23707 15.5687 8.23707 15.7151 8.38352C15.8616 8.52997 15.8616 8.76567 15.8616 9.23707V10.9996C15.8616 11.471 15.8616 11.7067 15.7151 11.8531C15.5687 11.9996 15.333 11.9996 14.8616 11.9996H10.9062V21.6746C10.9062 22.1813 10.9062 22.4347 10.7461 22.5921C10.5859 22.7496 10.3281 22.7496 9.8125 22.7496H7.625C7.10941 22.7496 6.8516 22.7496 6.69143 22.5921C6.53125 22.4347 6.53125 22.1813 6.53125 21.6746V11.9996H4.34375C3.82815 11.9996 3.57035 11.9996 3.41018 11.8421C3.25 11.6847 3.25 11.4313 3.25 10.9246V9.31207C3.25 8.80531 3.25 8.55193 3.41018 8.3945C3.57035 8.23707 3.82815 8.23707 4.34375 8.23707H6.18197C6.00818 3.947 8.6046 1.24957 11.5814 1.24957Z" fill="currentColor"/>
</svg>
