<svg width="24" height="24" viewBox="0 0 24 24" xmlns="http://www.w3.org/2000/svg">
<path class="pr-icon-bulk-secondary" d="M20.3201 10.3679C21.1491 10.4898 21.8892 10.7615 22.3622 11.4571C22.8359 12.1536 22.8144 12.9409 22.6198 13.7542C22.432 14.5395 22.0405 15.5138 21.5612 16.7069L21.5611 16.707C21.2076 17.5871 20.582 19.1443 20.2833 19.702C19.9714 20.2844 19.6166 20.7557 19.0967 21.1061C18.577 21.4565 18.0065 21.6092 17.3484 21.6811C16.7179 21.7501 15.9426 21.7501 14.9903 21.75L6.82564 21.75H6.82562C5.53437 21.7501 4.48102 21.7501 3.67955 21.6322C2.85055 21.5103 2.11046 21.2386 1.63746 20.543C1.16382 19.8465 1.18526 19.0592 1.37984 18.2459C1.56772 17.4605 2.29668 15.6461 2.77606 14.453C3.12961 13.5729 3.41769 12.8558 3.71637 12.2981C4.02829 11.7157 4.38309 11.2444 4.90302 10.8939C5.42272 10.5436 5.99323 10.3909 6.65124 10.319C7.28177 10.25 8.05707 10.25 9.00939 10.25H9.00944H17.174H17.1741C18.4653 10.25 19.5187 10.25 20.3201 10.3679Z" fill="currentColor"/>
<path d="M7.14203 2.25009C8.02697 2.25009 8.86433 2.64958 9.41958 3.33668L10.8985 5.16676L15.9142 5.16676C16.5634 5.16674 17.1089 5.16673 17.5553 5.2031C18.0221 5.24113 18.4657 5.32371 18.8867 5.53764C19.5288 5.86387 20.0509 6.38443 20.3781 7.02471C20.5926 7.44457 20.6754 7.88689 20.7136 8.35232C20.75 8.79744 20.75 9.34143 20.75 9.98875V10.448C20.6101 10.4157 20.4665 10.3895 20.3201 10.3679C19.5187 10.25 18.4653 10.2501 17.1741 10.2501H9.00944C8.05712 10.2501 7.28177 10.2501 6.65124 10.319C5.99323 10.391 5.42272 10.5437 4.90302 10.894C4.38309 11.2445 4.02829 11.7157 3.71637 12.2981C3.41769 12.8558 3.12961 13.5729 2.77606 14.453C2.29668 15.6462 1.56772 17.4606 1.37984 18.2459C1.32416 18.4787 1.28265 18.7093 1.26287 18.9362C1.2544 18.8847 1.25 18.8318 1.25 18.7779V7.61054C1.24999 6.93793 1.24998 6.38272 1.28207 5.92856C1.31534 5.45753 1.38658 5.02223 1.56632 4.60478C1.96071 3.68878 2.6928 2.95878 3.61142 2.56551C4.02949 2.38653 4.46387 2.31532 4.93624 2.28208C5.39091 2.25008 5.94776 2.25008 6.62538 2.25009H7.14203Z" fill="currentColor"/>
</svg>
