<svg width="24" height="24" viewBox="0 0 24 24" xmlns="http://www.w3.org/2000/svg">
<path class="pr-icon-bulk-secondary" fill-rule="evenodd" clip-rule="evenodd" d="M12.0002 4C12.5525 4 13.0002 4.44772 13.0002 5V9C13.0002 9.55228 12.5525 10 12.0002 10C11.448 10 11.0002 9.55228 11.0002 9V5C11.0002 4.44772 11.448 4 12.0002 4ZM19.9366 9.14888C20.1305 9.666 19.8685 10.2424 19.3514 10.4363L15.3514 11.9363C14.8342 12.1302 14.2578 11.8682 14.0639 11.3511C13.87 10.834 14.132 10.2576 14.6491 10.0637L18.6491 8.56367C19.1662 8.36975 19.7426 8.63176 19.9366 9.14888ZM4.03009 10.2575C4.16404 9.72167 4.70698 9.39591 5.24277 9.52986L9.24277 10.5299C9.77857 10.6638 10.1043 11.2067 9.97038 11.7425C9.83643 12.2783 9.2935 12.6041 8.7577 12.4701L4.7577 11.4701C4.22191 11.3362 3.89615 10.7933 4.03009 10.2575ZM10.6249 13.7191C11.0562 14.0641 11.1261 14.6934 10.7811 15.1247L8.78111 17.6247C8.4361 18.056 7.8068 18.1259 7.37554 17.7809C6.94428 17.4359 6.87436 16.8066 7.21937 16.3753L9.21937 13.8753C9.56438 13.444 10.1937 13.3741 10.6249 13.7191ZM13.553 14.1056C14.047 13.8586 14.6477 14.0588 14.8947 14.5528L16.3947 17.5528C16.6417 18.0468 16.4414 18.6474 15.9474 18.8944C15.4535 19.1414 14.8528 18.9412 14.6058 18.4472L13.1058 15.4472C12.8588 14.9532 13.059 14.3526 13.553 14.1056Z" fill="currentColor"/>
<path d="M12.8956 8.55157C12.3644 8.14947 11.6353 8.14948 11.1041 8.55157L8.85132 10.2567C8.33054 10.6509 8.13133 11.3274 8.31956 11.9309L9.18004 14.6898C9.37009 15.2992 9.93215 15.75 10.6076 15.75H13.3921C14.0675 15.75 14.6296 15.2992 14.8196 14.6898L15.6801 11.9309C15.8683 11.3274 15.6691 10.6509 15.1484 10.2567L12.8956 8.55157Z" fill="currentColor"/>
<path d="M8.49138 3.06727L8.93728 2.43114L8.72234 1.75904C9.75662 1.42827 10.8582 1.25 12 1.25C13.1449 1.25 14.2494 1.42924 15.2861 1.76175C15.5569 1.8486 15.7553 2.08113 15.7984 2.36223C15.8415 2.64332 15.7219 2.92461 15.4896 3.08862L12.4491 5.23512C12.1905 5.41765 11.8452 5.41823 11.586 5.23656L8.49138 3.06727Z" fill="currentColor"/>
<path d="M20.694 5.67607C20.5328 5.45478 20.2638 5.33893 19.9922 5.37382C19.7207 5.40872 19.4897 5.58881 19.3897 5.84367L18.1053 9.11574C17.9813 9.43179 18.085 9.79176 18.3582 9.99332L21.5516 12.3491C21.7821 12.5191 22.0892 12.543 22.3432 12.4107C22.5972 12.2785 22.7537 12.0131 22.7466 11.7268C22.6902 9.46865 21.9368 7.38197 20.694 5.67607Z" fill="currentColor"/>
<path d="M4.23298 6.35681C4.12197 6.10249 3.87961 5.93025 3.60293 5.90905C3.32625 5.88785 3.06047 6.02114 2.912 6.25557C1.85933 7.91772 1.25 9.88885 1.25 12C1.25 12.2809 1.26079 12.5595 1.28201 12.8353C1.30293 13.1072 1.46983 13.3464 1.71788 13.4598C1.96592 13.5733 2.25599 13.5431 2.47538 13.3811L5.64213 11.0421C5.92356 10.8343 6.02389 10.4594 5.88391 10.1388L4.23298 6.35681Z" fill="currentColor"/>
<path d="M3.43633 16.4165C3.16567 16.4165 2.91601 16.5624 2.78305 16.7981C2.6501 17.0339 2.65448 17.323 2.79451 17.5546C3.94219 19.4528 5.66039 20.9674 7.71284 21.8609C7.9435 21.9613 8.20913 21.9394 8.42021 21.8025C8.63129 21.6657 8.7597 21.4321 8.76216 21.1806L8.80138 17.1739C8.80334 16.9737 8.72519 16.7811 8.58434 16.6388C8.44348 16.4966 8.2516 16.4165 8.05142 16.4165H3.43633Z" fill="currentColor"/>
<path d="M15.7494 17.4175C15.3868 17.3518 15.0303 17.5593 14.9082 17.9069L13.6566 21.4703C13.5655 21.7297 13.6236 22.0182 13.8081 22.2221C13.9925 22.4259 14.2737 22.5125 14.5409 22.4478C16.6139 21.9453 18.4507 20.8427 19.8579 19.336C20.0452 19.1354 20.1081 18.8485 20.0217 18.588C19.9353 18.3274 19.7134 18.1349 19.4434 18.0861L15.7494 17.4175Z" fill="currentColor"/>
<path fill-rule="evenodd" clip-rule="evenodd" d="M12 3C7.02944 3 3 7.02944 3 12C3 16.9706 7.02944 21 12 21C16.9706 21 21 16.9706 21 12C21 7.02944 16.9706 3 12 3ZM1 12C1 5.92487 5.92487 1 12 1C18.0751 1 23 5.92487 23 12C23 18.0751 18.0751 23 12 23C5.92487 23 1 18.0751 1 12Z" fill="currentColor"/>
</svg>
