<svg width="24" height="24" viewBox="0 0 24 24" xmlns="http://www.w3.org/2000/svg">
    <path class="pr-icon-bulk-secondary" d="M9.52404 3.71682C10.1994 2.86616 10.9642 2.25 12 2.25C13.0358 2.25 13.8006 2.86616 14.4759 3.71682C15.1372 4.54969 15.8403 5.77236 16.7191 7.30051L20.5431 13.9497C21.3773 15.4001 22.0473 16.5651 22.4143 17.508C22.7895 18.4718 22.9318 19.4123 22.4076 20.2729C21.8891 21.1242 20.9876 21.4533 19.9457 21.6027C18.919 21.75 17.5431 21.75 15.821 21.75H15.821H8.17891H8.17889C6.45683 21.75 5.08093 21.75 4.05431 21.6027C3.01237 21.4533 2.11088 21.1242 1.59239 20.2729C1.06815 19.4123 1.21048 18.4718 1.58565 17.508C1.95265 16.5651 2.62272 15.4 3.45689 13.9496L7.28084 7.30052C8.15968 5.77234 8.8628 4.5497 9.52404 3.71682Z" />
    <path class="pr-icon-bulk-primary" d="M11.9996 11C11.3783 11 11.0677 11 10.8226 11.0761C10.0026 11.3309 9.99955 11.9298 9.99955 12.5V14.4735C9.99955 14.8845 9.99955 15.09 9.87609 15.1411C9.75263 15.1923 9.60732 15.047 9.31671 14.7564L8.53002 13.9697C8.23713 13.6768 7.76226 13.6768 7.46936 13.9697C7.17647 14.2626 7.17647 14.7374 7.46936 15.0303L9.41332 16.9731C9.70257 17.2621 9.84719 17.4067 9.92337 17.5905C9.99955 17.7743 9.99955 17.9788 9.99955 18.3877V21.75H13.9996V20.3879C13.9996 19.979 13.9996 19.7746 14.0757 19.5907C14.1519 19.4069 14.2965 19.2624 14.5857 18.9733L17.03 16.5303C17.3229 16.2374 17.3229 15.7626 17.03 15.4697C16.7371 15.1768 16.2623 15.1768 15.9694 15.4697L14.6824 16.7566C14.3918 17.0472 14.2465 17.1926 14.123 17.1414C13.9996 17.0903 13.9996 16.8848 13.9996 16.4738V15.8079C13.9996 15.6852 13.9996 15.6238 14.0224 15.5686C14.0453 15.5135 14.0887 15.4701 14.1755 15.3834L15.53 14.0303C15.8229 13.7374 15.8229 13.2626 15.53 12.9697C15.2371 12.6768 14.7623 12.6768 14.4694 12.9697L13.9995 13.3851V12.4395C13.9983 11.888 13.9676 11.3219 13.1765 11.0761C12.9314 11 12.6208 11 11.9996 11Z" />
</svg>
