<svg width="24" height="24" viewBox="0 0 24 24" xmlns="http://www.w3.org/2000/svg">
<path class="pr-icon-bulk-primary" fill-rule="evenodd" clip-rule="evenodd" d="M9.25 12C9.25 11.5858 9.58579 11.25 10 11.25H14C14.4142 11.25 14.75 11.5858 14.75 12C14.75 12.4142 14.4142 12.75 14 12.75H10C9.58579 12.75 9.25 12.4142 9.25 12Z" fill="currentColor"/>
<path class="pr-icon-bulk-secondary" d="M16.25 11C16.25 10.0335 17.0335 9.25 18 9.25H20C20.9665 9.25 21.75 10.0335 21.75 11V13C21.75 13.9665 20.9665 14.75 20 14.75H18C17.0335 14.75 16.25 13.9665 16.25 13V11Z" fill="currentColor"/>
<path class="pr-icon-bulk-secondary" d="M2.25 11C2.25 10.0335 3.0335 9.25 4 9.25H6C6.9665 9.25 7.75 10.0335 7.75 11V13C7.75 13.9665 6.9665 14.75 6 14.75H4C3.0335 14.75 2.25 13.9665 2.25 13V11Z" fill="currentColor"/>
<path class="pr-icon-bulk-secondary" d="M9.25 3C9.25 2.0335 10.0335 1.25 11 1.25H13C13.9665 1.25 14.75 2.0335 14.75 3V5C14.75 5.9665 13.9665 6.75 13 6.75H11C10.0335 6.75 9.25 5.9665 9.25 5V3Z" fill="currentColor"/>
<path class="pr-icon-bulk-secondary" d="M9.25 19C9.25 18.0335 10.0335 17.25 11 17.25H13C13.9665 17.25 14.75 18.0335 14.75 19V21C14.75 21.9665 13.9665 22.75 13 22.75H11C10.0335 22.75 9.25 21.9665 9.25 21V19Z" fill="currentColor"/>
<path class="pr-icon-bulk-primary" d="M9.25 20.75L7.95063 20.75C7.28577 20.75 6.71291 20.7501 6.25416 20.6884C5.76252 20.6223 5.29126 20.4732 4.90902 20.091C4.52677 19.7087 4.37771 19.2375 4.31161 18.7458C4.24994 18.2871 4.24997 17.7143 4.25 17.0494L4.25001 17C4.25001 16.5858 4.58579 16.25 5.00001 16.25C5.41422 16.25 5.75001 16.5858 5.75001 17C5.75001 17.7283 5.7516 18.1991 5.79823 18.546C5.84197 18.8713 5.91258 18.9732 5.96968 19.0303C6.02677 19.0874 6.12873 19.158 6.45403 19.2018C6.80091 19.2484 7.2717 19.25 8.00001 19.25H9.25V20.75Z" fill="currentColor"/>
<path class="pr-icon-bulk-primary" d="M14.75 19.25V20.75L16.0494 20.75C16.7142 20.75 17.2871 20.7501 17.7458 20.6884C18.2375 20.6223 18.7087 20.4732 19.091 20.091C19.4732 19.7087 19.6223 19.2375 19.6884 18.7458C19.7501 18.2871 19.75 17.7142 19.75 17.0494L19.75 17C19.75 16.5858 19.4142 16.25 19 16.25C18.5858 16.25 18.25 16.5858 18.25 17C18.25 17.7283 18.2484 18.1991 18.2018 18.546C18.158 18.8713 18.0874 18.9732 18.0303 19.0303C17.9732 19.0874 17.8713 19.158 17.546 19.2018C17.1991 19.2484 16.7283 19.25 16 19.25H14.75Z" fill="currentColor"/>
<path class="pr-icon-bulk-primary" d="M7.95063 3.25C7.28577 3.24996 6.7129 3.24993 6.25416 3.31161C5.76252 3.37771 5.29126 3.52677 4.90901 3.90901C4.52677 4.29126 4.37771 4.76252 4.31161 5.25416C4.24994 5.71289 4.24997 6.28574 4.25 6.95058L4.25001 7C4.25001 7.41422 4.58579 7.75 5.00001 7.75C5.41422 7.75 5.75001 7.41422 5.75001 7C5.75001 6.27169 5.7516 5.80091 5.79823 5.45403C5.84197 5.12873 5.91258 5.02677 5.96968 4.96967C6.02677 4.91258 6.12873 4.84197 6.45403 4.79823C6.80091 4.7516 7.2717 4.75 8.00001 4.75H9.25V3.25L7.95063 3.25Z" fill="currentColor"/>
<path class="pr-icon-bulk-primary" d="M16 4.75C16.7283 4.75 17.1991 4.7516 17.546 4.79823C17.8713 4.84197 17.9732 4.91258 18.0303 4.96967C18.0874 5.02677 18.158 5.12873 18.2018 5.45403C18.2484 5.80091 18.25 6.27169 18.25 7C18.25 7.41422 18.5858 7.75 19 7.75C19.4142 7.75 19.75 7.41422 19.75 7L19.75 6.95064C19.75 6.28577 19.7501 5.71291 19.6884 5.25416C19.6223 4.76252 19.4732 4.29126 19.091 3.90901C18.7087 3.52677 18.2375 3.37771 17.7458 3.31161C17.2871 3.24993 16.7142 3.24996 16.0494 3.25L14.75 3.25V4.75H16Z" fill="currentColor"/>
</svg>
