<svg width="24" height="24" viewBox="0 0 24 24" xmlns="http://www.w3.org/2000/svg">
    <path class="pr-icon-bulk-secondary" d="M20.7981 2.20191C20.2694 1.67321 19.6071 1.45093 18.8431 1.34822C18.1123 1.24996 17.1865 1.24998 16.0537 1.25H14.6667C13.6152 1.25 12.7157 1.5127 12.09 2.16382C11.4698 2.80922 11.25 3.70056 11.25 4.66667C11.25 5.00025 11.1724 5.10891 11.1438 5.13859C11.1208 5.16254 11.0203 5.25 10.6667 5.25L6.948 5.25C6.04952 5.24997 5.3003 5.24995 4.70552 5.32991C4.07773 5.41432 3.51093 5.59999 3.05546 6.05546C2.59999 6.51093 2.41432 7.07773 2.32991 7.70552C2.24995 8.3003 2.24997 9.04951 2.25 9.94797V15.0557C2.24998 16.6583 2.24997 17.9373 2.38483 18.9404C2.52415 19.9767 2.81966 20.8301 3.4948 21.5052C4.16994 22.1803 5.02335 22.4759 6.05961 22.6152C7.0627 22.75 8.34166 22.75 9.94426 22.75H14.0557C15.6583 22.75 16.9373 22.75 17.9404 22.6152C18.9767 22.4759 19.8301 22.1803 20.5052 21.5052C21.1803 20.8301 21.4758 19.9767 21.6152 18.9404C21.75 17.9373 21.75 16.6583 21.75 15.0557V6.94632C21.75 5.81349 21.75 4.88775 21.6518 4.15689C21.5491 3.39294 21.3268 2.7306 20.7981 2.20191Z" />
    <path class="pr-icon-bulk-primary" fill-rule="evenodd" clip-rule="evenodd" d="M13.9992 5C13.9992 4.44772 14.4469 4 14.9992 4L17.9992 4C18.5515 4 18.9992 4.44772 18.9992 5C18.9992 5.55229 18.5515 6 17.9992 6L14.9992 6C14.4469 6 13.9992 5.55228 13.9992 5Z" />
    <path class="pr-icon-bulk-primary" d="M10.8089 10.4763C11.4832 9.84124 12.5184 9.84124 13.1927 10.4763C13.6518 10.9087 14.2196 11.5093 14.6758 12.2032C15.1281 12.8912 15.5008 13.7164 15.5008 14.5873C15.5008 16.2709 14.1685 18 12.0008 18C9.83307 18 8.50078 16.2709 8.50078 14.5873C8.50078 13.7164 8.87347 12.8912 9.32576 12.2032C9.78192 11.5093 10.3497 10.9087 10.8089 10.4763Z" />
    <path class="pr-icon-bulk-primary" d="M5.7495 5.25899C5.3605 5.26864 5.01201 5.2886 4.70474 5.32991C4.54888 5.35087 4.39678 5.37806 4.24921 5.41408C4.24921 4.99728 4.2505 4.61535 4.29252 4.3028C4.34031 3.94732 4.45276 3.57159 4.76178 3.26257C5.07081 2.95355 5.44653 2.8411 5.80201 2.79331C6.12483 2.74991 6.52166 2.74995 6.95448 2.75C6.96935 2.75001 6.98426 2.75001 6.99922 2.75001C7.01418 2.75001 7.0291 2.75001 7.04397 2.75C7.47679 2.74995 7.87362 2.74991 8.19643 2.79331C8.55191 2.8411 8.92763 2.95355 9.23666 3.26257C9.54568 3.57159 9.65813 3.94732 9.70592 4.3028C9.74236 4.57385 9.74817 4.89709 9.74907 5.25H8.24891C8.24775 4.9031 8.24247 4.67503 8.2193 4.50267C8.19642 4.33252 8.16781 4.30296 7.99656 4.27993C7.78583 4.2516 7.49183 4.25001 6.99922 4.25001C6.50661 4.25001 6.21261 4.2516 6.00189 4.27993C5.8236 4.3039 5.80259 4.32832 5.77914 4.50267C5.75577 4.67651 5.7506 4.90704 5.7495 5.25899Z" />
</svg>
