<svg width="24" height="24" viewBox="0 0 24 24" xmlns="http://www.w3.org/2000/svg">
<path class="pr-icon-bulk-primary" d="M16.9999 15.375C15.6192 15.375 14.4999 16.4942 14.4999 17.875C14.4999 19.2557 15.6192 20.375 16.9999 20.375C18.3807 20.375 19.4999 19.2557 19.4999 17.875C19.4999 16.4942 18.3807 15.375 16.9999 15.375Z" fill="currentColor"/>
<path class="pr-icon-bulk-primary" d="M6.99994 15.375C5.61923 15.375 4.49994 16.4942 4.49994 17.875C4.49994 19.2557 5.61923 20.375 6.99994 20.375C8.38065 20.375 9.49994 19.2557 9.49994 17.875C9.49994 16.4942 8.38065 15.375 6.99994 15.375Z" fill="currentColor"/>
<path class="pr-icon-bulk-primary" d="M6.99994 15.375C5.61923 15.375 4.49994 16.4942 4.49994 17.875C4.49994 19.2557 5.61923 20.375 6.99994 20.375C8.38065 20.375 9.49994 19.2557 9.49994 17.875C9.49994 16.4942 8.38065 15.375 6.99994 15.375Z" fill="currentColor"/>
<path class="pr-icon-bulk-secondary" fill-rule="evenodd" clip-rule="evenodd" d="M16.3499 5.62832H16.9958C17.548 5.62832 17.9957 5.17983 17.9957 4.62659C17.9957 4.07335 17.548 3.62486 16.9958 3.62486L9.34262 3.62491C8.25485 3.62439 7.4989 3.62402 6.80752 3.91091C6.11615 4.1978 5.58187 4.73354 4.81306 5.50444L2.83988 7.48111C2.20878 8.1125 1.7458 8.57569 1.49734 9.1766C1.24887 9.77751 1.2493 10.433 1.24989 11.3265L1.24994 13.446C1.24992 14.5809 1.2499 15.5083 1.34816 16.2404C1.45087 17.0057 1.67316 17.6692 2.20185 18.1989C2.50342 18.501 2.84964 18.704 3.23531 18.8418C3.29811 18.8642 3.35922 18.807 3.34434 18.7419C3.2825 18.4713 3.24983 18.1895 3.24983 17.9002C3.24983 15.8254 4.92876 14.1435 6.99983 14.1435C9.0709 14.1435 10.7498 15.8254 10.7498 17.9002C10.7498 18.2851 10.692 18.6565 10.5846 19.0062C10.5667 19.0648 10.6091 19.1249 10.6702 19.1249H13.3295C13.3906 19.1249 13.433 19.0648 13.415 19.0062C13.3076 18.6565 13.2498 18.2851 13.2498 17.9002C13.2498 15.8254 14.9288 14.1435 16.9998 14.1435C19.0709 14.1435 20.7498 15.8254 20.7498 17.9002C20.7498 18.1896 20.7172 18.4714 20.6553 18.742C20.6404 18.8071 20.7015 18.8643 20.7643 18.8419C21.1501 18.7041 21.4964 18.501 21.798 18.1989C22.3267 17.6692 22.549 17.0057 22.6517 16.2404C22.75 15.5083 22.75 14.5808 22.7499 13.4461V12.3905C22.7499 12.347 22.7461 12.3042 22.7485 12.2607C22.757 12.1043 22.7256 11.9436 22.6491 11.7936L21.5043 9.55019C21.217 8.98699 20.9714 8.50558 20.7293 8.1278C20.4718 7.72602 20.1763 7.37152 19.7549 7.10591C19.3296 6.83784 18.8823 6.72708 18.4096 6.67671C17.9725 6.63013 17.4478 6.63016 16.846 6.63019L16.1499 6.63019C15.9613 6.63019 15.867 6.63019 15.8084 6.57162C15.7498 6.51304 15.7498 6.41876 15.7498 6.23021L15.7498 6.02834C15.7498 5.83977 15.7498 5.74549 15.8084 5.68691C15.867 5.62832 15.9612 5.62832 16.1497 5.62832C16.2077 5.62832 16.274 5.62832 16.3499 5.62832ZM16.15 8.49057C15.9612 8.49057 15.8668 8.49057 15.8082 8.54948C15.7496 8.60839 15.7499 8.70273 15.7505 8.8914C15.7527 9.58524 15.7636 10.088 15.8165 10.4817C15.8785 10.944 15.9857 11.1418 16.1161 11.2724C16.2464 11.4029 16.4439 11.5103 16.9053 11.5725C17.3884 11.6376 18.0359 11.6392 18.9999 11.6392H19.8026C20.0952 11.6392 20.2415 11.6392 20.3 11.5434C20.3585 11.4476 20.2919 11.3171 20.1587 11.0561L19.8362 10.424C19.5239 9.81183 19.319 9.41261 19.132 9.12072C18.9548 8.84429 18.8374 8.7363 18.7367 8.67289C18.6401 8.61194 18.5057 8.55819 18.2064 8.5263C17.8829 8.49182 17.4612 8.49057 16.7996 8.49057H16.15Z" fill="currentColor"/>
<path class="pr-icon-bulk-primary" fill-rule="evenodd" clip-rule="evenodd" d="M16.1496 8.48433C15.9608 8.48433 15.8664 8.48433 15.8078 8.54314C15.7491 8.60194 15.7495 8.69611 15.7501 8.88445C15.7523 9.57706 15.7632 10.0789 15.816 10.4719C15.8781 10.9334 15.9853 11.1309 16.1156 11.2612C16.2459 11.3915 16.4434 11.4988 16.9049 11.5608C17.3879 11.6257 18.0355 11.6273 18.9995 11.6273H19.8021C20.0947 11.6273 20.2411 11.6273 20.2996 11.5317C20.3581 11.4361 20.2915 11.3058 20.1583 11.0453L19.8358 10.4143C19.5234 9.80325 19.3185 9.40473 19.1315 9.11337C18.9544 8.83742 18.8369 8.72962 18.7363 8.66632C18.6396 8.60548 18.5052 8.55183 18.206 8.52C17.8824 8.48558 17.4607 8.48433 16.7991 8.48433H16.1496Z" fill="currentColor"/>
<path class="pr-icon-bulk-primary" fill-rule="evenodd" clip-rule="evenodd" d="M10.9999 8.62495C11.4142 8.62495 11.7499 8.96074 11.7499 9.37495V12.375C11.7499 12.7892 11.4142 13.125 10.9999 13.125C10.5857 13.125 10.2499 12.7892 10.2499 12.375V9.37495C10.2499 8.96074 10.5857 8.62495 10.9999 8.62495ZM6.99994 9.62495C7.41416 9.62495 7.74994 9.96074 7.74994 10.375V12.375C7.74994 12.7892 7.41416 13.125 6.99994 13.125C6.58573 13.125 6.24994 12.7892 6.24994 12.375V10.375C6.24994 9.96074 6.58573 9.62495 6.99994 9.62495Z" fill="currentColor"/>
</svg>
