<svg width="24" height="24" viewBox="0 0 24 24" xmlns="http://www.w3.org/2000/svg">
<path class="pr-icon-bulk-primary" d="M14 8C7.37258 8 2 13.3726 2 20V8H14Z" fill="white"/>
<path class="pr-icon-bulk-secondary" d="M15.25 4.5C15.25 3.25736 16.2574 2.25 17.5 2.25C18.7426 2.25 19.75 3.25736 19.75 4.5C19.75 5.74264 18.7426 6.75 17.5 6.75C16.2574 6.75 15.25 5.74264 15.25 4.5Z" fill="currentColor"/>
<path class="pr-icon-bulk-primary" d="M2 5C2.55228 5 3 5.44772 3 6V7H20C20.5523 7 21 7.44772 21 8C21 8.55228 20.5523 9 20 9H14C7.92487 9 3 13.9249 3 20V21C3 21.5523 2.55228 22 2 22C1.44772 22 1 21.5523 1 21V6C1 5.44772 1.44772 5 2 5Z" fill="currentColor"/>
<path class="pr-icon-bulk-secondary" d="M12.25 15.5C12.25 12.6005 14.6005 10.25 17.5 10.25C20.3995 10.25 22.75 12.6005 22.75 15.5C22.75 18.3995 20.3995 20.75 17.5 20.75C14.6005 20.75 12.25 18.3995 12.25 15.5Z" fill="currentColor"/>
<path class="pr-icon-bulk-primary" fill-rule="evenodd" clip-rule="evenodd" d="M17.4998 13.25C17.0856 13.25 16.7498 13.5858 16.7498 14V16C16.7498 16.2841 16.9103 16.5438 17.1644 16.6708L18.1644 17.1708C18.5349 17.3561 18.9854 17.2059 19.1707 16.8354C19.3559 16.4649 19.2057 16.0144 18.8352 15.8292L18.2498 15.5365V14C18.2498 13.5858 17.914 13.25 17.4998 13.25Z" fill="currentColor"/>
<path class="pr-icon-bulk-primary" d="M17.5 10.2495C17.158 10.2495 16.8237 10.2822 16.5 10.3446V6.51562C16.8012 6.66533 17.1408 6.74951 17.5 6.74951C17.8592 6.74951 18.1988 6.66533 18.5 6.51562V10.3446C18.1763 10.2822 17.842 10.2495 17.5 10.2495Z" fill="currentColor"/>
</svg>
