<svg width="24" height="24" viewBox="0 0 24 24" xmlns="http://www.w3.org/2000/svg">
<path class="pr-icon-bulk-secondary" d="M19.8551 3.35515C16.8741 1.52662 14.1999 2.25537 12.5844 3.46861C12.3186 3.6682 12.1362 3.8048 12.0004 3.89704C11.8646 3.8048 11.6822 3.6682 11.4164 3.46861C9.80088 2.25537 7.12665 1.52662 4.14567 3.35515C2.08443 4.61952 0.924601 7.2606 1.33158 10.2951C1.74053 13.3443 3.71412 16.7929 7.89372 19.8865C9.34509 20.9614 10.4103 21.7503 12.0004 21.7503C13.5904 21.7503 14.6557 20.9614 16.1071 19.8865C20.2867 16.7929 22.2602 13.3443 22.6692 10.2951C23.0762 7.2606 21.9163 4.61952 19.8551 3.35515Z" fill="currentColor"/>
<path class="pr-icon-bulk-primary" fill-rule="evenodd" clip-rule="evenodd" d="M12 8C11.4477 8 11 8.44772 11 9V11H9C8.44772 11 8 11.4477 8 12C8 12.5523 8.44772 13 9 13H11V15C11 15.5523 11.4477 16 12 16C12.5523 16 13 15.5523 13 15V13H15C15.5523 13 16 12.5523 16 12C16 11.4477 15.5523 11 15 11H13V9C13 8.44772 12.5523 8 12 8Z" fill="currentColor"/>
</svg>
