<svg width="24" height="24" viewBox="0 0 24 24" xmlns="http://www.w3.org/2000/svg">
<path class="pr-icon-bulk-secondary" d="M9.94779 1.77037C10.6511 1.44359 11.2946 1.25 11.9992 1.25C12.7038 1.25 13.3474 1.44359 14.0506 1.77037L19.6384 5.07944C20.2661 5.54083 20.7474 6.01311 21.0959 6.63212C21.4437 7.25014 21.6008 7.91095 21.6762 8.69506V15.3049C21.6008 16.0891 21.4437 16.7499 21.0959 17.3679C20.7474 17.9869 20.2661 18.4592 19.6384 18.9206L14.0506 22.2296C13.3474 22.5564 12.7038 22.75 11.9992 22.75C11.2946 22.75 10.6511 22.5564 9.94779 22.2296L4.35997 18.9206C3.73236 18.4592 3.25098 17.9869 2.90255 17.3679C2.55469 16.7499 2.39762 16.0891 2.32227 15.3049V8.69506C2.39762 7.91095 2.55469 7.25014 2.90255 6.63212C3.25098 6.01311 3.73236 5.54083 4.35997 5.07944L9.94779 1.77037Z" fill="currentColor"/>
<path class="pr-icon-bulk-primary" d="M21.0957 6.63281C21.4435 7.25084 21.6006 7.91164 21.6759 8.69575V15.3056C21.6006 16.0897 21.4435 16.7505 21.0957 17.3686C20.7472 17.9876 20.2659 18.4599 19.6382 18.9213L14.0504 22.2303C13.3471 22.5571 12.7036 22.7507 11.999 22.7507C11.2944 22.7507 10.6509 22.5571 9.94758 22.2303L4.35976 18.9213C3.73214 18.4599 3.25077 17.9876 2.90234 17.3686L21.0957 6.63281Z" fill="currentColor"/>
</svg>
