<svg width="25" height="24" viewBox="0 0 25 24" fill="none" xmlns="http://www.w3.org/2000/svg">
<path class="pr-icon-bulk-primary" fill-rule="evenodd" clip-rule="evenodd" d="M16.2498 10.0185C16.2491 11.2746 16.1723 12.5264 15.5805 13.6799C14.9743 14.8613 13.887 15.8343 12.0848 16.6791C8.87949 18.1816 8.24983 20.1809 8.24983 21V21.0356L8.1886 21.6785C8.1654 21.9221 8.15379 22.044 8.21962 22.1355C8.28546 22.2269 8.4018 22.254 8.63447 22.308C13.0212 23.3272 17.7712 22.5838 21.6281 20.0778L21.6677 20.0521C22.0338 19.8143 22.373 19.594 22.6231 19.3748C22.9025 19.1301 23.156 18.8157 23.2311 18.368C23.3132 17.8786 23.1158 17.458 22.9089 17.1279C22.7066 16.8052 22.4023 16.4294 22.0533 15.9985L22.0245 15.9629C19.7595 13.1658 19.0522 9.49614 19.0522 7.51864C19.0522 4.0216 16.0828 1.25 12.5 1.25C8.91718 1.25 5.94781 4.0216 5.94781 7.51864C5.94781 9.49614 5.24049 13.1658 2.97553 15.9629L2.94668 15.9985C2.59771 16.4294 2.29338 16.8052 2.09108 17.1279C1.88415 17.458 1.68685 17.8786 1.76891 18.368C1.84397 18.8157 2.09746 19.1301 2.37685 19.3748C2.62698 19.5939 2.9662 19.8143 3.33222 20.052L3.37187 20.0778C4.19856 20.6149 5.06628 21.0711 5.96266 21.4463C6.27809 21.5783 6.43581 21.6443 6.56403 21.5712C6.56772 21.5691 6.57164 21.5668 6.57523 21.5645C6.70015 21.4859 6.71679 21.3113 6.75006 20.962C6.76793 19.4448 7.85697 17.0043 11.4482 15.3209C12.0294 15.0485 12.5023 14.7732 12.8886 14.4953C13.1173 14.3309 13.2316 14.2486 13.2648 14.1792C13.3357 14.0306 13.2827 13.8663 13.1384 13.787C13.0709 13.75 12.8806 13.75 12.4999 13.75C10.4288 13.75 8.74987 12.0711 8.74987 10V8C8.74987 7.91113 8.75296 7.82298 8.75904 7.73565C8.7741 7.51938 8.78163 7.41125 8.86807 7.33062C8.9545 7.25 9.07478 7.25 9.31533 7.25H15.6844C15.925 7.25 16.0452 7.25 16.1317 7.33062C16.2181 7.41125 16.2256 7.51938 16.2407 7.73565C16.2468 7.82298 16.2499 7.91113 16.2499 8V10C16.2499 10.0062 16.2499 10.0123 16.2498 10.0185Z" fill="currentColor"/>
</svg>
