<svg width="24" height="24" viewBox="0 0 24 24" xmlns="http://www.w3.org/2000/svg">
<path opacity="0.4" d="M14.25 6.57143C14.25 4.73705 15.7371 3.25 17.5714 3.25C18.2223 3.25 18.75 3.77766 18.75 4.42857V8.05573C18.75 8.64665 18.9384 9.19983 19.2485 9.82001C19.7201 10.7632 19.8277 11.8193 19.8348 12.7912C19.8385 13.2814 19.8162 13.7713 19.7942 14.2299C19.7731 14.6668 19.75 15.1472 19.75 15.5279C19.75 16.0745 20.0056 16.7281 20.4173 17.4838C20.5978 17.815 20.8605 18.2522 21.0592 18.5829C21.2752 18.9429 21.4952 19.3133 21.6708 19.6646C21.7726 19.8681 21.7764 20.1067 21.6814 20.3134C21.5863 20.5201 21.4026 20.6724 21.1819 20.7276L13.1819 22.7276C12.8744 22.8045 12.5518 22.6798 12.376 22.416L11.6149 21.2744C11.5164 21.1267 11.3877 21.0018 11.2373 20.9077L7.6025 18.636C7.31878 18.4587 7.18683 18.1149 7.27907 17.7932C7.3713 17.4716 7.66542 17.25 8 17.25H11C11.964 17.25 12.6116 17.2484 13.0946 17.1835C13.5561 17.1214 13.7536 17.0142 13.8839 16.8839C14.0142 16.7536 14.1214 16.5561 14.1835 16.0946C14.2484 15.6116 14.25 14.964 14.25 14V6.57143Z" fill="currentColor"/>
<path fill-rule="evenodd" clip-rule="evenodd" d="M9 15C9 14.4477 9.44571 14 9.99553 14H10.0045C10.5543 14 11 14.4477 11 15C11 15.5523 10.5543 16 10.0045 16H9.99553C9.44571 16 9 15.5523 9 15Z" fill="currentColor"/>
<g opacity="0.4">
<path d="M3.34544 6.42566H6.65456C7.25535 6.42566 7.74239 5.93862 7.74239 5.33783C7.74239 4.73704 7.25535 4.25 6.65456 4.25H3.34544C2.74465 4.25 2.25761 4.73704 2.25761 5.33783C2.25761 5.93862 2.74464 6.42566 3.34544 6.42566Z" fill="currentColor"/>
<path d="M7.66216 7.35809H3.33828C2.73749 7.35809 2.25045 7.84513 2.25045 8.44593C2.25045 9.04673 2.73749 9.53377 3.33828 9.53377L7.66216 9.53377C8.26296 9.53377 8.75 9.04673 8.75 8.44593C8.75 7.84513 8.26296 7.35809 7.66216 7.35809Z" fill="currentColor"/>
<path d="M6.66216 10.4662H3.33784C2.73704 10.4662 2.25 10.9532 2.25 11.554C2.25 12.1548 2.73704 12.6419 3.33784 12.6419H6.66216C7.26296 12.6419 7.75 12.1548 7.75 11.554C7.75 10.9532 7.26296 10.4662 6.66216 10.4662Z" fill="currentColor"/>
<path d="M3.34537 13.5743H6.15454C6.75534 13.5743 7.24239 14.0614 7.24239 14.6622C7.24239 15.263 6.75534 15.75 6.15454 15.75H3.34537C2.74453 15.75 2.25747 15.2629 2.25752 14.6621C2.25757 14.0613 2.7446 13.5743 3.34537 13.5743Z" fill="currentColor"/>
</g>
<path d="M10.0536 1.25H9.94622C8.81341 1.24998 7.88765 1.24996 7.1568 1.34822C6.39285 1.45093 5.73051 1.67321 5.20182 2.20191C4.65539 2.74833 4.43357 3.44133 4.33594 4.25H5.85058C5.93274 3.72629 6.06914 3.4559 6.26248 3.26257C6.46602 3.05903 6.75905 2.91519 7.35667 2.83484C7.97586 2.7516 8.8002 2.75 9.99991 2.75C11.1996 2.75 12.024 2.7516 12.6432 2.83484C13.2408 2.91519 13.5338 3.05903 13.7373 3.26257C13.9409 3.46611 14.0847 3.75914 14.1651 4.35676C14.2483 4.97595 14.2499 5.80029 14.2499 7V13C14.2499 14.1997 14.2483 15.0241 14.1651 15.6432C14.0847 16.2409 13.9409 16.5339 13.7373 16.7374C13.5338 16.941 13.2408 17.0848 12.6432 17.1652C12.024 17.2484 11.1996 17.25 9.99991 17.25C8.8002 17.25 7.97586 17.2484 7.35667 17.1652C6.75905 17.0848 6.46602 16.941 6.26248 16.7374C6.06914 16.5441 5.93274 16.2737 5.85058 15.75H4.33594C4.43357 16.5587 4.65539 17.2517 5.20182 17.7981C5.73051 18.3268 6.39285 18.5491 7.1568 18.6518C7.88766 18.75 8.81338 18.75 9.9462 18.75H10.0536C11.1864 18.75 12.1122 18.75 12.843 18.6518C13.607 18.5491 14.2693 18.3268 14.798 17.7981C15.3267 17.2694 15.549 16.6071 15.6517 15.8431C15.75 15.1123 15.7499 14.1865 15.7499 13.0537V6.94632C15.7499 5.81348 15.75 4.88775 15.6517 4.15689C15.549 3.39294 15.3267 2.7306 14.798 2.20191C14.2693 1.67321 13.607 1.45093 12.843 1.34822C12.1122 1.24996 11.1864 1.24998 10.0536 1.25Z" fill="currentColor"/>
</svg>
