<svg width="24" height="24" viewBox="0 0 24 24" xmlns="http://www.w3.org/2000/svg">
<path class="pr-icon-bulk-primary" fill-rule="evenodd" clip-rule="evenodd" d="M1.25 21C1.25 20.5858 1.58579 20.25 2 20.25L22 20.25C22.4142 20.25 22.75 20.5858 22.75 21C22.75 21.4142 22.4142 21.75 22 21.75L2 21.75C1.58579 21.75 1.25 21.4142 1.25 21Z" fill="currentColor"/>
<path class="pr-icon-bulk-secondary" d="M21.75 11.1513C21.75 10.9627 21.75 10.8684 21.6914 10.8098C21.6328 10.7513 21.5386 10.7513 21.35 10.7513H15.8699C15.427 10.7513 15.0131 10.5734 14.7002 10.2735L12.1318 7.81192C12.0511 7.73457 11.9489 7.73457 11.8682 7.81192L9.29983 10.2735C8.98693 10.5734 8.57296 10.7513 8.13008 10.7513H2.65C2.46144 10.7513 2.36716 10.7513 2.30858 10.8098C2.25 10.8684 2.25 10.9627 2.25 11.1513V21.0013C2.25 21.4155 2.58579 21.7513 3 21.7513H21C21.4142 21.7513 21.75 21.4155 21.75 21.0013V11.1513Z" fill="currentColor"/>
<path class="pr-icon-bulk-primary" d="M8.63744 2.25C7.53086 2.25 6.62717 2.34552 5.88918 2.83215C5.15118 3.31878 4.70741 4.11177 4.2715 5.12889L2.74427 8.69243C2.63634 8.94427 2.58237 9.0702 2.64165 9.1601C2.70093 9.25 2.83793 9.25 3.11193 9.25H8.12993C8.16447 9.25 8.21218 9.23687 8.26177 9.18934L10.8301 6.72773C11.4947 6.09076 12.505 6.09076 13.1696 6.72773L15.738 9.18934C15.7875 9.23687 15.8352 9.25 15.8698 9.25H20.8878C21.1618 9.25 21.2988 9.25 21.3581 9.1601C21.4173 9.0702 21.3634 8.94427 21.2554 8.69243L19.7282 5.12888C19.2923 4.11177 18.8485 3.31878 18.1105 2.83215C17.3725 2.34552 16.4689 2.25 15.3623 2.25H8.63744Z" fill="currentColor"/>
<path class="pr-icon-bulk-primary" fill-rule="evenodd" clip-rule="evenodd" d="M13 11C13 11.5523 12.5543 12 12.0045 12L11.9955 12C11.4457 12 11 11.5523 11 11C11 10.4477 11.4457 10 11.9955 10L12.0045 10C12.5543 10 13 10.4477 13 11Z" fill="currentColor"/>
<path class="pr-icon-bulk-primary" fill-rule="evenodd" clip-rule="evenodd" d="M11 15.75C10.5858 15.75 10.25 16.0858 10.25 16.5V21C10.25 21.4142 9.91421 21.75 9.5 21.75C9.08579 21.75 8.75 21.4142 8.75 21V16.5C8.75 15.2574 9.75736 14.25 11 14.25H13C14.2426 14.25 15.25 15.2574 15.25 16.5V21C15.25 21.4142 14.9142 21.75 14.5 21.75C14.0858 21.75 13.75 21.4142 13.75 21V16.5C13.75 16.0858 13.4142 15.75 13 15.75H11Z" fill="currentColor"/>
<path class="pr-icon-bulk-primary" fill-rule="evenodd" clip-rule="evenodd" d="M5.25 14C5.25 13.5858 5.58579 13.25 6 13.25H7C7.41421 13.25 7.75 13.5858 7.75 14C7.75 14.4142 7.41421 14.75 7 14.75H6C5.58579 14.75 5.25 14.4142 5.25 14Z" fill="currentColor"/>
<path class="pr-icon-bulk-primary" fill-rule="evenodd" clip-rule="evenodd" d="M16.25 14C16.25 13.5858 16.5858 13.25 17 13.25L18 13.25C18.4142 13.25 18.75 13.5858 18.75 14C18.75 14.4142 18.4142 14.75 18 14.75L17 14.75C16.5858 14.75 16.25 14.4142 16.25 14Z" fill="currentColor"/>
</svg>
