<svg width="24" height="24" viewBox="0 0 24 24" xmlns="http://www.w3.org/2000/svg">
<path class="pr-icon-bulk-secondary" d="M11.5745 2H11.5745H11.4256H11.4255C9.2496 1.99998 7.51484 1.99996 6.15471 2.18283C4.75033 2.37164 3.59653 2.77175 2.68414 3.68414C1.77175 4.59653 1.37164 5.75033 1.18283 7.15471C0.999962 8.51483 0.999979 10.2496 1 12.4255V12.4255V12.5745V12.5745C0.999979 14.7504 0.999962 16.4852 1.18283 17.8453C1.37164 19.2497 1.77175 20.4035 2.68414 21.3159C3.59653 22.2283 4.75033 22.6284 6.15471 22.8172C7.51486 23 9.24959 23 11.4256 23H11.5744C13.7504 23 15.4852 23 16.8453 22.8172C18.2497 22.6284 19.4035 22.2283 20.3159 21.3159C21.2283 20.4035 21.6284 19.2497 21.8172 17.8453C22 16.4852 22 14.7504 22 12.5744V12.4256C22 11.067 22 9.8805 21.9555 8.84973C21.9441 8.58591 21.9385 8.454 21.8512 8.37063C21.764 8.28726 21.63 8.2875 21.362 8.288L20.8967 8.28887C20.6143 8.28939 20.4731 8.28965 20.3855 8.37749C20.2978 8.46532 20.2978 8.6065 20.2978 8.88887V10.0159C20.2978 11.2862 19.268 12.3159 17.9978 12.3159C16.7275 12.3159 15.6978 11.2862 15.6978 10.0159V8.89964C15.6978 8.61632 15.6978 8.47466 15.6097 8.38675C15.5217 8.29885 15.38 8.29912 15.0967 8.29964L13.9965 8.30169C12.7262 8.30404 11.6946 7.27622 11.6922 6.00596C11.6898 4.73571 12.7177 3.70405 13.9879 3.70169L15.0989 3.69963C15.3813 3.6991 15.5225 3.69884 15.6101 3.61101C15.6978 3.52317 15.6978 3.38199 15.6978 3.09963V2.6364C15.6978 2.36865 15.6978 2.23478 15.6144 2.14775C15.531 2.06072 15.3992 2.0551 15.1357 2.04384C14.1083 1.99998 12.9266 1.99999 11.5745 2Z" fill="currentColor"/>
<path fill-rule="evenodd" clip-rule="evenodd" d="M18.9978 2.00781C18.9978 1.45553 18.5501 1.00781 17.9978 1.00781C17.4455 1.00781 16.9978 1.45553 16.9978 2.00781V4.9961L13.9903 5.00169C13.438 5.00272 12.9912 5.45126 12.9922 6.00355C12.9932 6.55583 13.4418 7.00271 13.994 7.00169L16.9978 6.99611V10.0159C16.9978 10.5682 17.4455 11.0159 17.9978 11.0159C18.5501 11.0159 18.9978 10.5682 18.9978 10.0159V6.99239L22.0053 6.9868C22.5575 6.98578 23.0044 6.53723 23.0034 5.98495C23.0024 5.43266 22.5538 4.98578 22.0015 4.98681L18.9978 4.99239V2.00781ZM6.17578 20.7989C6.25487 20.8116 6.33649 20.8237 6.42075 20.835C7.63212 20.9979 9.2321 21 11.4995 21C13.767 21 15.367 20.9979 16.5783 20.835C17.7609 20.676 18.4223 20.3805 18.9012 19.9016C19.38 19.4228 19.6756 18.7614 19.8346 17.5788C19.9321 16.8529 19.972 15.9876 19.9883 14.9227C18.5634 14.0838 17.2809 13.7497 16.114 13.75C14.7838 13.7504 13.5328 14.1854 12.3216 14.9232C10.1748 16.2309 8.27565 18.4003 6.40213 20.5404L6.17578 20.7989Z" fill="currentColor"/>
</svg>
