<svg width="24" height="24" viewBox="0 0 24 24" xmlns="http://www.w3.org/2000/svg">
<path opacity="0.4" d="M13.8603 4.77226C15.7539 5.7734 17.2369 6.55742 18.2038 7.22035C18.689 7.55304 19.1076 7.8965 19.3832 8.26882C19.675 8.66316 19.8513 9.15862 19.6882 9.70523C19.5286 10.2404 19.1204 10.5659 18.6767 10.7611C18.2477 10.9498 17.7076 11.0543 17.1046 11.12C15.9046 11.2506 14.1902 11.2506 11.9937 11.2506H11.9937L7.96932 11.2506H7.96931C7.29775 11.2506 6.72635 11.2507 6.27019 11.1951C5.78907 11.1364 5.32301 11.0052 4.93789 10.6561C4.54223 10.2975 4.38297 9.84679 4.31332 9.37722C4.2499 8.94974 4.24995 8.41939 4.25 7.81998L4.25 5.62698C4.24995 4.62761 4.24991 3.78452 4.35445 3.14619C4.46515 2.47028 4.7252 1.82173 5.41039 1.46505C6.07088 1.12121 6.76624 1.23917 7.42979 1.47987C8.07709 1.71468 8.87019 2.13401 9.83307 2.64311L13.8603 4.77226Z" fill="currentColor"/>
<path d="M13.8603 19.2288C15.7539 18.2277 17.2369 17.4437 18.2038 16.7807C18.689 16.4481 19.1076 16.1046 19.3832 15.7323C19.675 15.3379 19.8513 14.8425 19.6882 14.2959C19.5286 13.7607 19.1204 13.4351 18.6767 13.24C18.2477 13.0512 17.7076 12.9468 17.1046 12.8811C15.9046 12.7505 14.1902 12.7505 11.9937 12.7505L11.9937 12.7505L7.96932 12.7505H7.96927C7.29773 12.7505 6.72634 12.7504 6.27019 12.806C5.78907 12.8646 5.32301 12.9959 4.93789 13.345C4.54223 13.7036 4.38297 14.1543 4.31332 14.6239C4.2499 15.0514 4.24995 15.5817 4.25 16.1811L4.25 16.1811L4.25 18.3741C4.24995 19.3735 4.24991 20.2166 4.35445 20.8549C4.46515 21.5308 4.7252 22.1794 5.41039 22.536C6.07088 22.8799 6.76624 22.7619 7.42979 22.5212C8.07709 22.2864 8.87019 21.8671 9.83307 21.358L13.8603 19.2288Z" fill="currentColor"/>
</svg>
