<svg width="24" height="24" viewBox="0 0 24 24" xmlns="http://www.w3.org/2000/svg">
<path fill-rule="evenodd" clip-rule="evenodd" d="M2.95711 1.29289C2.56658 0.902369 1.93342 0.902369 1.54289 1.29289C1.15237 1.68342 1.15237 2.31658 1.54289 2.70711L2.80536 3.96957C2.32253 4.73271 2.07106 5.62655 1.93283 6.65469C1.74996 8.01481 1.74998 9.74954 1.75 11.9255V12.0744C1.74998 14.2504 1.74996 15.9851 1.93283 17.3453C2.12164 18.7496 2.52175 19.9035 3.43414 20.8158C4.34653 21.7282 5.50033 22.1283 6.90471 22.3172C8.26486 22.5 9.99959 22.5 12.1756 22.5H12.3244C14.5004 22.5 16.2352 22.5 17.5953 22.3172C18.6234 22.1789 19.5173 21.9274 20.2804 21.4446L21.5429 22.7071C21.9334 23.0976 22.5666 23.0976 22.9571 22.7071C23.3476 22.3166 23.3476 21.6834 22.9571 21.2929L21.6946 20.0304C21.6949 20.0301 21.6951 20.0297 21.6953 20.0294L20.2185 18.5526C20.2183 18.553 20.2182 18.5534 20.218 18.5538L15.1554 13.4912C15.1559 13.4911 15.1563 13.491 15.1568 13.4908L4.22061 2.55469C4.22026 2.55491 4.21991 2.55513 4.21956 2.55535L2.95711 1.29289ZM13.1898 14.354C13.1514 14.3768 13.113 14.3998 13.0746 14.4232C10.9278 15.7309 9.02866 17.9003 7.15512 20.0404L6.92857 20.2992C7.00713 20.3118 7.08818 20.3237 7.17183 20.335C8.3832 20.4978 9.98319 20.5 12.2506 20.5C14.5181 20.5 16.1181 20.4978 17.3294 20.335C17.9467 20.252 18.4221 20.1318 18.8035 19.9677L13.1898 14.354Z" fill="currentColor"/>
<path class="pr-icon-bulk-secondary" d="M20.8201 17.0333C20.7206 16.9338 20.6708 16.884 20.6481 16.8212C20.6253 16.7584 20.6319 16.6862 20.645 16.5419C20.7003 15.9339 20.7265 15.2361 20.739 14.4215C19.4802 13.6808 18.3326 13.334 17.2776 13.2637C17.1541 13.2554 17.0923 13.2513 17.0427 13.2288C16.9931 13.2063 16.9522 13.1654 16.8704 13.0836L6.43591 2.6491C6.10925 2.32244 5.94592 2.15911 6.00361 1.98376C6.06131 1.8084 6.27971 1.77546 6.71652 1.70958C6.77861 1.70022 6.8412 1.69131 6.9043 1.68283C8.26442 1.49996 9.99918 1.49998 12.1751 1.5H12.324C14.5 1.49998 16.2348 1.49996 17.5949 1.68283C18.9993 1.87164 20.1531 2.27175 21.0655 3.18414C21.9778 4.09653 22.378 5.25033 22.5668 6.65471C22.7496 8.01486 22.7496 9.74959 22.7496 11.9256V12.0744C22.7496 14.2504 22.7496 15.9852 22.5668 17.3453C22.5583 17.4084 22.5494 17.471 22.54 17.5331C22.4741 17.9699 22.4412 18.1883 22.2658 18.246C22.0905 18.3037 21.9271 18.1403 21.6005 17.8137L20.8201 17.0333Z" fill="currentColor"/>
</svg>
