<svg width="24" height="24" viewBox="0 0 24 24" xmlns="http://www.w3.org/2000/svg">
<path class="pr-icon-bulk-primary" d="M22.6077 18.03L21.6613 17.5653C20.5825 17.0189 19.4824 16.7489 18.3872 16.7501L18.3835 16.7501C17.118 16.7451 15.8427 17.0979 14.6015 17.818C15.5928 18.999 16.3184 20.3494 16.7219 21.7988C16.7258 21.8127 16.7292 21.8266 16.7323 21.8406L16.7833 22.0754C17.7981 21.7838 18.794 21.3977 19.759 20.9171L19.8552 20.8693C20.8862 20.3563 21.624 19.9893 22.1866 19.0807C22.3941 18.7454 22.5251 18.4008 22.6077 18.03Z" />
<path class="pr-icon-bulk-primary" d="M15.3248 22.4271L15.2712 22.1809C14.6989 20.1449 13.3668 18.3002 11.4444 16.9476C9.36306 15.4832 6.73524 14.6994 4.02981 14.7525L4.01336 14.7527C3.37734 14.7512 2.74249 14.7927 2.11463 14.8767L1.24818 15.0298L1.24811 15.8097C1.24726 17.1927 1.24665 18.1711 1.80979 19.0807C2.37233 19.9893 3.11013 20.3563 4.1412 20.8693L4.23731 20.9171C7.72061 22.6519 11.6074 23.1552 15.3248 22.4271Z" />
<path class="pr-icon-bulk-secondary" d="M19.7594 3.08326C14.8522 0.638881 9.14425 0.638947 4.23705 3.08326L4.14096 3.13109C3.10996 3.64405 2.37222 4.0111 1.80973 4.91969C1.24665 5.82923 1.24726 6.80754 1.24811 8.19052L1.24818 13.5066L1.86891 13.3969C1.87896 13.3951 1.88905 13.3935 1.89916 13.3922C2.59698 13.2981 3.30225 13.2514 4.00862 13.2527C7.01221 13.1954 9.95312 14.0642 12.3075 15.7208C12.7431 16.0273 13.1537 16.3573 13.5373 16.7084C15.0711 15.7491 16.7111 15.2438 18.3875 15.2501C19.7353 15.249 21.0647 15.5824 22.3349 16.225L22.7465 16.4271C22.7485 16.2302 22.7484 16.0249 22.7482 15.8097V8.19046C22.7491 6.8075 22.7497 5.82921 22.1866 4.91968C21.6242 4.0111 20.8864 3.64404 19.8555 3.13109L19.7594 3.08326Z" />
<path class="pr-icon-bulk-primary" fill-rule="evenodd" clip-rule="evenodd" d="M4.5 7.5C4.5 6.39543 5.39543 5.5 6.5 5.5C7.60457 5.5 8.5 6.39543 8.5 7.5C8.5 8.60457 7.60457 9.5 6.5 9.5C5.39543 9.5 4.5 8.60457 4.5 7.5Z" />
</svg>
