<svg width="24" height="24" viewBox="0 0 24 24" xmlns="http://www.w3.org/2000/svg">
    <path class="pr-icon-bulk-secondary" d="M21.8758 2.62441C21.2911 2.1554 20.4989 2.21117 19.78 2.34287C19.0182 2.48243 18.0153 2.7793 16.7593 3.15107L16.7119 3.1651C13.6387 4.07475 10.3613 4.07475 7.28809 3.1651L7.24069 3.15107C5.98473 2.7793 4.98179 2.48243 4.21999 2.34287C3.50106 2.21117 2.70886 2.1554 2.12418 2.62441C1.5749 3.06504 1.40543 3.76696 1.32873 4.46038C1.24997 5.17245 1.24999 6.12288 1.25 7.30355V16.6969C1.24999 17.8776 1.24997 18.828 1.32873 19.5401C1.40543 20.2335 1.5749 20.9354 2.12418 21.376C2.70886 21.8451 3.50106 21.7893 4.21999 21.6576C4.25748 21.6507 4.29555 21.6435 4.33421 21.6358C4.42447 21.6181 4.46961 21.6092 4.51148 21.5856C4.55334 21.5621 4.58566 21.5268 4.65028 21.4562L6.45568 19.4835C6.70641 19.2194 6.9617 18.9469 7.2216 18.6693C8.95935 16.8131 10.907 14.7328 13.1275 13.4704C14.4259 12.7322 15.851 12.2504 17.419 12.25C18.9898 12.2496 20.6438 12.7325 22.3971 13.8282L22.4025 13.8316C22.553 13.9274 22.75 13.8193 22.75 13.6409V7.30355C22.75 6.12288 22.75 5.17244 22.6713 4.46038C22.5946 3.76696 22.4251 3.06504 21.8758 2.62441Z" />
    <path class="pr-icon-bulk-primary" d="M22.75 16.1604C22.75 15.9993 22.75 15.9188 22.713 15.8514C22.676 15.784 22.6081 15.7407 22.4722 15.6542L21.6022 15.1003L21.5995 15.0986C20.0452 14.1279 18.664 13.7497 17.4193 13.75C16.1711 13.7503 14.9999 14.1313 13.8688 14.7744C11.8631 15.9146 10.0897 17.8053 8.33298 19.6782C8.07129 19.9572 7.80998 20.2358 7.54832 20.5114C7.49298 20.5722 7.46531 20.6026 7.4586 20.6192C7.43324 20.682 7.47447 20.7498 7.5419 20.7562C7.55974 20.7579 7.60004 20.7472 7.68065 20.7257C10.6295 19.9405 13.7848 19.969 16.7119 20.8354L16.7593 20.8494C18.0152 21.2211 19.0182 21.518 19.78 21.6576C20.4989 21.7893 21.2911 21.8451 21.8758 21.376C22.4251 20.9354 22.5946 20.2335 22.6712 19.5401C22.75 18.828 22.75 17.8776 22.75 16.6969V16.1604Z" />
    <path class="pr-icon-bulk-primary" fill-rule="evenodd" clip-rule="evenodd" d="M5.5 8.5C5.5 7.39543 6.39543 6.5 7.5 6.5C8.60457 6.5 9.5 7.39543 9.5 8.5C9.5 9.60457 8.60457 10.5 7.5 10.5C6.39543 10.5 5.5 9.60457 5.5 8.5Z" />
</svg>
