<svg width="24" height="24" viewBox="0 0 24 24" xmlns="http://www.w3.org/2000/svg">
<path class="pr-icon-bulk-secondary" d="M1.25 12C1.25 6.06294 6.06294 1.25 12 1.25C17.9371 1.25 22.75 6.06294 22.75 12C22.75 17.9371 17.9371 22.75 12 22.75C6.06294 22.75 1.25 17.9371 1.25 12Z" fill="currentColor"/>
<path fill-rule="evenodd" clip-rule="evenodd" d="M14.7502 6.33875C15.1154 6.75305 15.0756 7.38496 14.6613 7.75017L9.84012 12H16C16.5523 12 17 12.4477 17 13C17 13.5523 16.5523 14 16 14H8.5495C7.91475 14 7.37441 13.6377 7.1324 13.105C6.88413 12.5585 6.97691 11.8735 7.48798 11.4075L7.50046 11.3963L13.3387 6.24986C13.753 5.88465 14.3849 5.92445 14.7502 6.33875ZM7 17C7 16.4477 7.44772 16 8 16H16C16.5523 16 17 16.4477 17 17C17 17.5523 16.5523 18 16 18H8C7.44772 18 7 17.5523 7 17Z" fill="currentColor"/>
</svg>
