<svg width="24" height="24" viewBox="0 0 24 24" xmlns="http://www.w3.org/2000/svg">
<path fill-rule="evenodd" clip-rule="evenodd" d="M12.2168 12.25C12.7691 12.25 13.2168 12.6977 13.2168 13.25V16.25H16.2168C16.7691 16.25 17.2168 16.6977 17.2168 17.25C17.2168 17.8023 16.7691 18.25 16.2168 18.25H13.2168V21.25C13.2168 21.8023 12.7691 22.25 12.2168 22.25C11.6645 22.25 11.2168 21.8023 11.2168 21.25V18.25H8.2168C7.66451 18.25 7.2168 17.8023 7.2168 17.25C7.2168 16.6977 7.66451 16.25 8.2168 16.25H11.2168V13.25C11.2168 12.6977 11.6645 12.25 12.2168 12.25Z" fill="currentColor"/>
<path class="pr-icon-bulk-secondary" d="M22.25 12.0572C22.25 14.2479 22.25 15.9686 22.0694 17.312C21.8843 18.6886 21.4973 19.7809 20.6391 20.6391C19.7809 21.4973 18.6886 21.8843 17.312 22.0694C15.9686 22.25 14.1335 22.25 11.9428 22.25C9.75214 22.25 8.03144 22.25 6.68802 22.0694C5.31137 21.8843 4.21911 21.4973 3.36091 20.6391C2.50271 19.7809 2.11568 18.6886 1.93059 17.312C1.74998 15.9686 1.74999 14.1335 1.75 11.9428C1.74999 9.75214 1.74998 8.03144 1.93059 6.68802C2.11568 5.31137 2.50271 4.21911 3.36091 3.36091C4.21911 2.50272 5.31137 2.11568 6.68802 1.93059C8.03144 1.74998 9.75212 1.74999 11.9428 1.75C14.1335 1.74999 15.9686 1.74998 17.312 1.93059C18.6886 2.11568 19.7809 2.50272 20.6391 3.36091C21.4973 4.21911 21.8843 5.31137 22.0694 6.68802C22.25 8.03144 22.25 9.86647 22.25 12.0572Z" fill="currentColor"/>
<path d="M1.7985 8.25088C1.77671 8.71632 1.76457 9.21559 1.75781 9.75088H22.2398C22.2327 9.21807 22.2203 8.71708 22.1987 8.25088L16.2493 8.25088V1.82937C15.7877 1.79897 15.2865 1.78034 14.7493 1.76893L14.7493 8.25088L9.24933 8.25088V1.76758C8.71126 1.77872 8.21211 1.79729 7.74933 1.82824L7.74933 8.25088H1.7985Z" fill="currentColor"/>
</svg>
