<svg width="24" height="24" viewBox="0 0 24 24" xmlns="http://www.w3.org/2000/svg">
<path class="pr-icon-bulk-secondary" d="M21.372 22.1322C21.0469 22.5097 20.6157 22.6423 20.2118 22.6982C19.8377 22.7501 19.3679 22.7501 18.8426 22.75C18.1294 22.75 17.3938 22.8009 16.6837 22.7208C15.6294 22.6019 15.2494 21.7743 14.9572 20.8488L13.248 15.4385C12.979 14.5872 12.6823 13.759 12.3659 12.9332C12.214 12.5367 12.138 12.3384 12.0005 12.3384C11.8629 12.3384 11.787 12.5367 11.635 12.9332C11.3187 13.759 11.0219 14.5872 10.753 15.4385L9.04379 20.8488C8.75156 21.7743 8.37152 22.6019 7.31731 22.7208C6.60716 22.8009 5.87159 22.75 5.15838 22.75C4.63311 22.7501 4.16331 22.7501 3.78914 22.6982C3.38528 22.6423 2.95409 22.5097 2.62892 22.1322C2.01867 21.4238 2.28868 20.3937 2.43827 19.5686L5.21381 4.25H18.7872L21.5627 19.5686C21.7123 20.3937 21.9823 21.4238 21.372 22.1322Z" fill="currentColor"/>
<path class="pr-icon-bulk-primary" fill-rule="evenodd" clip-rule="evenodd" d="M7.84904 1.25C7.86375 1.25 7.8785 1.25001 7.8933 1.25001L16.1514 1.25C16.5973 1.24996 17.0023 1.24991 17.3311 1.29297C17.6903 1.34 18.0695 1.45015 18.3831 1.75562C18.6995 2.06378 18.8163 2.44103 18.8659 2.80018C18.9107 3.12432 18.9106 3.52236 18.9106 3.95444L18.9106 5.75001H5.08985V4.00001C5.08985 3.98478 5.08985 3.96959 5.08985 3.95445C5.08979 3.52236 5.08974 3.12432 5.13449 2.80018C5.18406 2.44103 5.30089 2.06378 5.61728 1.75562C5.93092 1.45015 6.31011 1.34 6.66933 1.29297C6.9981 1.24991 7.40315 1.24996 7.84904 1.25ZM6.66611 2.82837C6.66521 2.82895 6.66487 2.8292 6.66386 2.83018C6.66367 2.83037 6.66398 2.83006 6.66386 2.83018L6.66208 2.83291C6.66115 2.83464 6.65961 2.83771 6.65761 2.84246C6.64897 2.86292 6.63357 2.90986 6.6204 3.00529C6.59153 3.21442 6.58985 3.50685 6.58985 4.00001V4.25001H17.4106V4.00001C17.4106 3.50685 17.4089 3.21442 17.38 3.00529C17.3668 2.90986 17.3514 2.86292 17.3428 2.84246C17.3408 2.83771 17.3393 2.83464 17.3383 2.83291L17.337 2.83064C17.3369 2.83052 17.3372 2.83083 17.337 2.83064C17.336 2.82966 17.3352 2.82895 17.3343 2.82837C17.3332 2.82764 17.328 2.82447 17.3163 2.81976C17.2905 2.80943 17.2376 2.79353 17.1363 2.78027C16.9168 2.75152 16.6118 2.75001 16.1071 2.75001H7.8933C7.38863 2.75001 7.08364 2.75152 6.86408 2.78027C6.76279 2.79353 6.70993 2.80943 6.68414 2.81976C6.67239 2.82447 6.66725 2.82764 6.66611 2.82837Z" fill="currentColor"/>
<path class="pr-icon-bulk-primary" fill-rule="evenodd" clip-rule="evenodd" d="M12.0314 4.25066C12.2835 4.2612 12.5134 4.39778 12.6432 4.61413L15.6432 9.61413C15.8563 9.96932 15.7411 10.43 15.3859 10.6431C15.0307 10.8562 14.57 10.7411 14.3569 10.3859L12.2557 6.88374C12.1145 6.64846 12.0439 6.53082 11.9362 6.52632C11.8285 6.52181 11.7484 6.63315 11.588 6.85582L10.6087 8.21601C10.3667 8.55216 9.89798 8.62846 9.56183 8.38643C9.22568 8.1444 9.14938 7.6757 9.39141 7.33955L11.3914 4.56177C11.5388 4.35702 11.7793 4.24011 12.0314 4.25066Z" fill="currentColor"/>
</svg>
