<svg width="24" height="24" viewBox="0 0 24 24" xmlns="http://www.w3.org/2000/svg">
<path class="pr-icon-bulk-secondary" d="M3.25 16C3.25 11.1675 7.16751 7.25 12 7.25C16.8325 7.25 20.75 11.1675 20.75 16C20.75 18.0177 20.0661 19.8778 18.918 21.3582C18.499 21.8985 18.0503 22.2734 17.4927 22.4945C16.9552 22.7076 16.3822 22.75 15.7789 22.75H8.22111C7.61777 22.75 7.04482 22.7076 6.50735 22.4945C5.94969 22.2734 5.50103 21.8985 5.08198 21.3582C3.93385 19.8778 3.25 18.0177 3.25 16Z" fill="currentColor"/>
<path class="pr-icon-bulk-primary" fill-rule="evenodd" clip-rule="evenodd" d="M16.2882 8.37103C16.8883 8.7091 17.4446 9.11594 17.9462 9.58086C18.1114 9.19174 18.2695 8.82837 18.4169 8.48948C18.7762 7.66344 19.0723 6.9828 19.2537 6.42907C19.5352 5.5698 19.6312 4.76837 19.2403 3.90776C19.0355 3.45669 18.7432 3.05016 18.3817 2.70842C18.04 2.38536 17.5974 2.15502 17.1546 1.98386C16.7005 1.80837 16.1822 1.6709 15.636 1.56466C14.5434 1.35216 13.2626 1.25 12 1.25C10.7375 1.25 9.45668 1.35216 8.36406 1.56466C7.81783 1.6709 7.2995 1.80837 6.84548 1.98386C6.40267 2.15502 5.96003 2.38536 5.61833 2.70842C5.25687 3.05016 4.96457 3.45669 4.75969 3.90776C4.36875 4.7685 4.46503 5.57001 4.74662 6.4292C4.92794 6.98243 5.22378 7.66244 5.58276 8.48759L5.58279 8.48765L5.58287 8.48784C5.73047 8.82711 5.88874 9.19092 6.05411 9.58053C6.55579 9.11564 7.11206 8.70884 7.71223 8.3708C7.58715 8.07974 7.47191 7.81499 7.36624 7.57224C7.03526 6.81185 6.79825 6.26734 6.64715 5.80631C6.44399 5.18645 6.48104 4.95419 6.58066 4.73484C6.6763 4.52428 6.81511 4.32929 6.99234 4.16173C7.06845 4.08976 7.24287 3.97446 7.56655 3.84935C7.87901 3.72858 8.27659 3.61915 8.74588 3.52788C9.68432 3.34536 10.8331 3.25 12 3.25C13.167 3.25 14.3157 3.34536 15.2542 3.52788C15.7235 3.61915 16.121 3.72858 16.4335 3.84935C16.7572 3.97446 16.9316 4.08976 17.0077 4.16173C17.1849 4.32929 17.3237 4.52428 17.4194 4.73484C17.5191 4.95431 17.5561 5.18667 17.3531 5.80644C17.2019 6.26781 16.9647 6.81289 16.6333 7.57433L16.6333 7.57436C16.5279 7.81659 16.4129 8.08072 16.2882 8.37103Z" fill="currentColor"/>
<path class="pr-icon-bulk-primary" fill-rule="evenodd" clip-rule="evenodd" d="M10 16C10 14.8954 10.8954 14 12 14C13.1046 14 14 14.8954 14 16C14 17.1046 13.1046 18 12 18C10.8954 18 10 17.1046 10 16ZM8.12602 17H7.5C6.94772 17 6.5 16.5523 6.5 16C6.5 15.4477 6.94772 15 7.5 15H8.12602C8.57006 13.2748 10.1362 12 12 12C13.8638 12 15.4299 13.2748 15.874 15H16.5C17.0523 15 17.5 15.4477 17.5 16C17.5 16.5523 17.0523 17 16.5 17H15.874C15.4299 18.7252 13.8638 20 12 20C10.1362 20 8.57006 18.7252 8.12602 17Z" fill="currentColor"/>
</svg>
