<svg width="24" height="24" viewBox="0 0 24 24" xmlns="http://www.w3.org/2000/svg">
<path fill-rule="evenodd" clip-rule="evenodd" d="M4.00001 4.75001L3.95526 4.75C3.52244 4.74995 3.12561 4.74991 2.8028 4.79331C2.44732 4.8411 2.07159 4.95355 1.76257 5.26257C1.45355 5.57159 1.3411 5.94732 1.29331 6.3028C1.24991 6.62561 1.24995 7.02244 1.25 7.45526L1.25001 7.50001L1.25001 14.552C1.24998 15.4505 1.24995 16.1997 1.32992 16.7945C1.41432 17.4223 1.59999 17.9891 2.05546 18.4446C2.51093 18.9 3.07773 19.0857 3.70553 19.1701C4.3003 19.2501 5.04951 19.25 5.94798 19.25H5.94801L13.0253 19.25C13.4697 19.25 13.8408 19.25 14.1454 19.2292C14.4625 19.2076 14.762 19.161 15.0524 19.0407C15.7262 18.7616 16.2616 18.2262 16.5407 17.5524C16.661 17.262 16.7076 16.9625 16.7292 16.6454C16.7375 16.5242 16.7425 16.3926 16.7455 16.25H17C20.1756 16.25 22.75 13.6756 22.75 10.5C22.75 7.32437 20.1756 4.75001 17 4.75001H4.00001ZM2.82568 6.32187L2.82324 6.32324L2.82187 6.32568C2.82086 6.32761 2.81924 6.33093 2.81717 6.33597C2.80821 6.35775 2.79291 6.40611 2.77993 6.50267C2.7516 6.71339 2.75001 7.0074 2.75001 7.50001V14.5C2.75001 15.464 2.7516 16.1116 2.81654 16.5946C2.87858 17.0561 2.98581 17.2536 3.11612 17.3839C3.24644 17.5142 3.44394 17.6214 3.9054 17.6835C4.38844 17.7484 5.036 17.75 6.00001 17.75H13C13.4762 17.75 13.7958 17.7496 14.0433 17.7327C14.284 17.7163 14.4012 17.6868 14.4784 17.6549C14.7846 17.528 15.028 17.2846 15.1549 16.9784C15.1868 16.9012 15.2163 16.784 15.2327 16.5433C15.2496 16.2958 15.25 15.9762 15.25 15.5C15.25 15.0858 15.5858 14.75 16 14.75H17C19.3472 14.75 21.25 12.8472 21.25 10.5C21.25 8.1528 19.3472 6.25001 17 6.25001H4.00001C3.5074 6.25001 3.21339 6.2516 3.00267 6.27993C2.90611 6.29291 2.85775 6.30821 2.83597 6.31717C2.83093 6.31924 2.82761 6.32086 2.82568 6.32187ZM16 7.25C15.5858 7.25 15.25 7.58579 15.25 8V13C15.25 13.4142 15.5858 13.75 16 13.75H17C18.7949 13.75 20.25 12.2949 20.25 10.5C20.25 8.70507 18.7949 7.25 17 7.25H16ZM16.75 12.25V8.75H17C17.9665 8.75 18.75 9.5335 18.75 10.5C18.75 11.4665 17.9665 12.25 17 12.25H16.75Z" fill="currentColor"/>
<path class="pr-icon-bulk-secondary" fill-rule="evenodd" clip-rule="evenodd" d="M5.15901 8.68629C6.03769 7.77124 7.46231 7.77124 8.34099 8.68629L9 9.37258L9.65901 8.68629C10.5377 7.77124 11.9623 7.77124 12.841 8.68629C13.7197 9.60135 13.7197 11.0849 12.841 12L9 16L5.15901 12C4.28033 11.0849 4.28033 9.60135 5.15901 8.68629Z" fill="currentColor"/>
</svg>
