<svg width="24" height="24" viewBox="0 0 24 24" xmlns="http://www.w3.org/2000/svg">
<path class="pr-icon-bulk-secondary" d="M17.1701 16.0983C18.3137 16.4316 19.1395 17.036 19.9704 17.7232C20.6325 18.2708 20.9635 18.5447 21.2584 18.3925C21.5532 18.2403 21.5211 17.8232 21.4568 16.9892C21.133 12.787 19.6252 9.13626 14.988 8.20689C13.6892 7.94659 12.3336 7.99415 11 8.02375V15.7361C13.0575 15.6816 15.2121 15.5277 17.1701 16.0983Z" fill="currentColor"/>
<path class="pr-icon-bulk-primary" d="M8.72125 5.06975C9.07224 4.96932 9.42748 4.97754 9.7793 5.09313C10.3098 5.26739 10.6043 5.6611 10.7622 6.02285C10.9173 6.37798 10.9767 6.77707 11 7.12933V16.86C10.9767 17.2122 10.9173 17.6113 10.7622 17.9665C10.6043 18.3282 10.3098 18.7219 9.77927 18.8962C9.42138 19.0137 9.05656 19.037 8.68817 18.9374C8.34312 18.8441 8.05602 18.6588 7.81227 18.4654C7.20645 17.9848 6.69597 17.3999 6.13507 16.8752L4.06242 14.9364C3.46971 14.382 2.97108 13.9156 2.62759 13.4961C2.26441 13.0527 2 12.5751 2 11.9946C2 11.4142 2.26441 10.9366 2.62759 10.4932C2.97108 10.0737 3.46971 9.60733 4.06243 9.05292L4.06244 9.05291L6.13507 7.11408C6.82126 6.47219 7.39718 5.88158 7.86508 5.52665C8.11243 5.33902 8.39516 5.16307 8.72125 5.06975Z" fill="currentColor"/>
</svg>
