<svg width="24" height="24" viewBox="0 0 24 24" xmlns="http://www.w3.org/2000/svg">
    <path class="pr-icon-bulk-secondary" d="M2.25 10.9258C2.25 5.60954 6.72451 1.25 12 1.25C17.2755 1.25 21.75 5.60954 21.75 10.9258C21.75 13.6392 20.6003 15.9206 18.9866 17.8038C17.3793 19.6796 15.2855 21.1928 13.3185 22.3964L13.3072 22.4033L13.2957 22.4098C12.9004 22.6329 12.454 22.75 12 22.75C11.546 22.75 11.0996 22.6329 10.7043 22.4098L10.6911 22.4024L10.6782 22.3944C8.71834 21.1811 6.62496 19.6728 5.01689 17.8025C3.40187 15.9241 2.25 13.6482 2.25 10.9258Z" />
    <path class="pr-icon-bulk-primary" fill-rule="evenodd" clip-rule="evenodd" d="M12 6C12.5523 6 13 6.44772 13 7L13 10H16C16.5523 10 17 10.4477 17 11C17 11.5523 16.5523 12 16 12H13L13 15C13 15.5523 12.5523 16 12 16C11.4477 16 11 15.5523 11 15L11 12H8C7.44772 12 7 11.5523 7 11C7 10.4477 7.44772 10 8 10H11L11 7C11 6.44772 11.4477 6 12 6Z" />
</svg>
