<svg width="24" height="24" viewBox="0 0 24 24" xmlns="http://www.w3.org/2000/svg">
<path opacity="0.4" d="M2.25 10.9258C2.25 5.60954 6.72451 1.25 12 1.25C17.2755 1.25 21.75 5.60954 21.75 10.9258C21.75 13.6392 20.6003 15.9206 18.9866 17.8038C17.3793 19.6796 15.2855 21.1928 13.3185 22.3964L13.3072 22.4033L13.2957 22.4098C12.9004 22.6329 12.454 22.75 12 22.75C11.546 22.75 11.0996 22.6329 10.7043 22.4098L10.6911 22.4024L10.6782 22.3944C8.71834 21.1811 6.62496 19.6728 5.01689 17.8025C3.40187 15.9241 2.25 13.6482 2.25 10.9258Z" fill="currentColor"/>
<path d="M12.7774 7.14988L13.5693 8.74679C13.6773 8.96909 13.9653 9.18232 14.2083 9.22315L15.6436 9.46359C16.5615 9.61784 16.7775 10.2893 16.1161 10.9516L15.0002 12.0767C14.8112 12.2673 14.7077 12.6347 14.7662 12.8979L15.0857 14.2906C15.3377 15.393 14.7572 15.8195 13.7898 15.2433L12.4445 14.4403C12.2015 14.2952 11.801 14.2952 11.5536 14.4403L10.2082 15.2433C9.24533 15.8195 8.66039 15.3885 8.91236 14.2906L9.23183 12.8979C9.29032 12.6347 9.18683 12.2673 8.99785 12.0767L7.88198 10.9516C7.22505 10.2893 7.43653 9.61784 8.35443 9.46359L9.78977 9.22315C10.0282 9.18232 10.3162 8.96909 10.4242 8.74679L11.2161 7.14988C11.6481 6.28337 12.35 6.28337 12.7774 7.14988Z" fill="currentColor"/>
</svg>
