<svg width="24" height="24" viewBox="0 0 24 24" xmlns="http://www.w3.org/2000/svg">
<path class="pr-icon-bulk-secondary" d="M9.19831 7.09383C9.05416 8.23699 8.95 9.33522 8.95 10.1C8.95 11.4459 9.37731 12.6399 9.99304 13.4825C10.62 14.3405 11.3703 14.75 12 14.75C12.6297 14.75 13.38 14.3405 14.007 13.4825C14.6227 12.6399 15.05 11.4459 15.05 10.1C15.05 9.33522 14.9458 8.23699 14.8017 7.09383H21.8686C22.0851 8.45695 22.25 9.98913 22.25 11.5C22.25 17.3519 18.1739 22.25 12 22.25C5.82611 22.25 1.75 17.3519 1.75 11.5C1.75 9.98913 1.91489 8.45695 2.13138 7.09383H9.19831Z" fill="currentColor"/>
<path class="pr-icon-bulk-primary" d="M3.20801 2.27975C3.30473 1.9649 3.59556 1.75 3.92494 1.75H9.14994C9.37244 1.75 9.58346 1.8488 9.72595 2.01968C9.86845 2.19057 9.92771 2.4159 9.88773 2.63478C9.84486 2.88016 9.71658 3.61443 9.64768 4.03449C9.50972 4.87554 9.33736 5.99054 9.19826 7.09375H2.16213C2.15319 7.02275 2.15436 6.95012 2.16624 6.87802C2.38097 5.57539 2.64036 4.42969 2.84607 3.60938C2.948 3.20293 3.13984 2.52179 3.20607 2.28664L3.20801 2.27975Z" fill="currentColor"/>
<path class="pr-icon-bulk-primary" d="M21.8377 7.09375C21.8467 7.02275 21.8455 6.95012 21.8336 6.87802C21.6189 5.57539 21.3595 4.42969 21.1538 3.60938C21.0519 3.20283 20.86 2.52148 20.7938 2.28649L20.7919 2.27975C20.6951 1.9649 20.4043 1.75 20.0749 1.75H14.8499C14.6274 1.75 14.4164 1.8488 14.2739 2.01968C14.1314 2.19057 14.0722 2.41617 14.1122 2.63505C14.1551 2.88043 14.2833 3.61443 14.3522 4.03449C14.4902 4.87556 14.6625 5.99059 14.8016 7.09383L21.8377 7.09375Z" fill="currentColor"/>
</svg>
