<svg width="24" height="24" viewBox="0 0 24 24" xmlns="http://www.w3.org/2000/svg">
<path class="pr-icon-bulk-secondary" d="M14.795 1.66181C12.842 1.61273 10.908 1.61273 8.95499 1.6618L8.89682 1.66326C7.372 1.70155 6.14502 1.73235 5.1617 1.9036C4.1322 2.08289 3.29548 2.42677 2.58862 3.13632C1.88471 3.8429 1.54264 4.6676 1.36676 5.6804C1.19929 6.64478 1.17378 7.8418 1.14219 9.32465L1.14093 9.38339C1.11969 10.3797 1.11969 11.3703 1.14094 12.3666L1.14219 12.4254C1.17379 13.9082 1.19929 15.1052 1.36676 16.0696C1.54264 17.0824 1.88472 17.9071 2.58862 18.6137C3.29548 19.3232 4.1322 19.6671 5.1617 19.8464C6.14501 20.0176 7.37197 20.0485 8.89677 20.0867L8.95499 20.0882C9.3618 20.0984 9.76778 20.1065 10.1733 20.1125C10.6067 20.1189 10.8234 20.122 10.9148 19.9948C11.0063 19.8675 10.9285 19.6476 10.7731 19.2078C10.5153 18.4781 10.375 17.693 10.375 16.875C10.375 13.009 13.509 9.875 17.375 9.875C18.9069 9.875 20.3238 10.3671 21.4764 11.2018C22.0253 11.5993 22.2997 11.798 22.4635 11.7142C22.6272 11.6303 22.6264 11.3186 22.6248 10.6952C22.6236 10.2584 22.6184 9.82148 22.6091 9.3834L22.6078 9.32467C22.5762 7.84183 22.5507 6.64479 22.3832 5.68042C22.2074 4.66761 21.8653 3.84292 21.1614 3.13634C20.4545 2.42679 19.6178 2.08291 18.5883 1.90362C17.605 1.73237 16.378 1.70156 14.8532 1.66327L14.795 1.66181Z" fill="currentColor"/>
<path d="M6.01435 6.15137C6.29543 5.67597 6.90869 5.51843 7.3841 5.79951L10.3261 7.53894C11.1664 8.03578 11.5648 8.16031 11.8752 8.16031C12.1855 8.16031 12.5839 8.03578 13.4242 7.53894L16.3662 5.79951C16.8416 5.51843 17.4549 5.67597 17.736 6.15137C18.017 6.62678 17.8595 7.24004 17.3841 7.52112L14.4421 9.26055C13.5666 9.77819 12.7648 10.1603 11.8752 10.1603C10.9855 10.1603 10.1838 9.77819 9.30823 9.26055L6.36622 7.52112C5.89081 7.24004 5.73328 6.62678 6.01435 6.15137Z" fill="currentColor"/>
<path fill-rule="evenodd" clip-rule="evenodd" d="M17.375 13.375C15.442 13.375 13.875 14.942 13.875 16.875C13.875 18.808 15.442 20.375 17.375 20.375C17.9273 20.375 18.375 20.8227 18.375 21.375C18.375 21.9273 17.9273 22.375 17.375 22.375C14.3374 22.375 11.875 19.9126 11.875 16.875C11.875 13.8374 14.3374 11.375 17.375 11.375C20.4126 11.375 22.875 13.8374 22.875 16.875V17.375C22.875 18.7557 21.7557 19.875 20.375 19.875C19.6546 19.875 19.0053 19.5703 18.5491 19.0827C18.1991 19.2693 17.7994 19.375 17.375 19.375C15.9943 19.375 14.875 18.2557 14.875 16.875C14.875 15.4943 15.9943 14.375 17.375 14.375C18.7557 14.375 19.875 15.4943 19.875 16.875V17.375C19.875 17.6511 20.0989 17.875 20.375 17.875C20.6511 17.875 20.875 17.6511 20.875 17.375V16.875C20.875 14.942 19.308 13.375 17.375 13.375ZM17.875 16.875C17.875 16.5989 17.6511 16.375 17.375 16.375C17.0989 16.375 16.875 16.5989 16.875 16.875C16.875 17.1511 17.0989 17.375 17.375 17.375C17.6511 17.375 17.875 17.1511 17.875 16.875Z" fill="currentColor"/>
</svg>
