<svg width="24" height="24" viewBox="0 0 24 24" xmlns="http://www.w3.org/2000/svg">
<path class="pr-icon-bulk-primary" fill-rule="evenodd" clip-rule="evenodd" d="M16.1627 4.93495C15.5539 6.18095 15.15 7.97031 15.15 9.99988C15.15 12.0294 15.5539 13.8188 16.1627 15.0648C16.7999 16.369 17.5043 16.8054 18 16.8054C18.4957 16.8054 19.2001 16.369 19.8373 15.0648C20.4461 13.8188 20.85 12.0294 20.85 9.99988C20.85 7.97031 20.4461 6.18095 19.8373 4.93495C19.2001 3.6308 18.4957 3.19432 18 3.19432C17.5043 3.19432 16.7999 3.6308 16.1627 4.93495ZM14.4633 4.06537C15.2014 2.55451 16.397 1.24988 18 1.24988C19.603 1.24988 20.7986 2.55451 21.5367 4.06537C22.3033 5.63437 22.75 7.7339 22.75 9.99988C22.75 12.2659 22.3033 14.3654 21.5367 15.9344C20.7986 17.4452 19.603 18.7499 18 18.7499C16.397 18.7499 15.2014 17.4452 14.4633 15.9344C13.6967 14.3654 13.25 12.2659 13.25 9.99988C13.25 7.7339 13.6967 5.63437 14.4633 4.06537Z" fill="currentColor"/>
<path class="pr-icon-bulk-secondary" d="M18 1.24988C16.3184 1.24988 13.8327 1.88104 11.3805 2.65825C8.89814 3.44502 6.34768 4.41593 4.49275 5.15714C2.50639 5.95087 1.25 7.88218 1.25 9.99988C1.25 12.1176 2.50639 14.0489 4.49275 14.8426C6.34768 15.5838 8.89814 16.5547 11.3805 17.3415C13.8327 18.1187 16.3184 18.7499 18 18.7499C16.397 18.7499 15.2014 17.4452 14.4633 15.9344C13.6967 14.3654 13.25 12.2659 13.25 9.99988C13.25 7.7339 13.6967 5.63437 14.4633 4.06537C15.2014 2.55451 16.397 1.24988 18 1.24988Z" fill="currentColor"/>
<path class="pr-icon-bulk-primary" d="M5.01367 15.0507C5.62676 15.2926 6.30021 15.5532 7.01118 15.8198C7.12265 17.4784 8.06216 18.9924 9.53898 19.8053L11.4822 20.875C11.9661 21.1414 12.1424 21.7495 11.8761 22.2333C11.6097 22.7171 11.0016 22.8935 10.5178 22.6271L8.57452 21.5574C6.22118 20.262 4.84657 17.7159 5.01367 15.0507Z" fill="currentColor"/>
</svg>
