<svg width="24" height="24" viewBox="0 0 24 24" xmlns="http://www.w3.org/2000/svg">
<path opacity="0.4" d="M13.1378 2.2689C12.0178 2.23156 10.88 2.24959 9.77965 2.32273C5.213 2.62629 1.58972 6.31258 1.2918 10.9224C1.23607 11.7848 1.23607 12.6768 1.2918 13.5392C1.40272 15.2556 2.15148 16.804 2.98381 18.0604C3.23314 18.5419 3.10323 19.2641 2.6369 20.1478L2.61542 20.1885C2.45874 20.4852 2.30536 20.7757 2.21688 21.0234C2.12313 21.2858 2.02623 21.7025 2.26791 22.1145C2.48996 22.4931 2.84475 22.6318 3.13152 22.6873C3.36961 22.7334 3.66155 22.7403 3.93544 22.7469L3.98117 22.748C5.40092 22.7825 6.40136 22.3726 7.1938 21.7883C7.35108 21.6723 7.45909 21.5929 7.54041 21.537C7.65868 21.5804 7.8203 21.6467 8.05839 21.7448C8.59978 21.9677 9.21472 22.1013 9.77965 22.1389C11.2369 22.2357 12.7601 22.2359 14.2204 22.1389C18.787 21.8353 22.4103 18.149 22.7082 13.5392C22.7639 12.6768 22.7639 11.7848 22.7082 10.9224C22.6796 10.4794 22.6202 10.0449 22.5323 9.62113C22.1987 10.0213 21.8385 10.3579 21.4856 10.6351C20.8911 11.1023 20.306 11.4146 19.8718 11.611C19.756 11.6634 19.5603 11.7477 19.3536 11.8213C19.2107 11.8723 18.8517 11.9994 18.5 11.9992C18.1483 11.9994 17.7893 11.8723 17.6464 11.8213C17.4397 11.7477 17.244 11.6634 17.1282 11.611C16.694 11.4146 16.1089 11.1023 15.5144 10.6351C14.3012 9.68193 13 8.02653 13 5.5V3C13 2.74197 13.0489 2.49535 13.1378 2.2689Z" fill="currentColor"/>
<path fill-rule="evenodd" clip-rule="evenodd" d="M7.75171 15.0049C7.75171 15.4191 8.0875 15.7549 8.50171 15.7549H15.5017C15.9159 15.7549 16.2517 15.4191 16.2517 15.0049C16.2517 14.5907 15.9159 14.2549 15.5017 14.2549H8.50171C8.0875 14.2549 7.75171 14.5907 7.75171 15.0049ZM7.75171 10.0049C7.75171 10.4191 8.0875 10.7549 8.50171 10.7549H11.0017C11.4159 10.7549 11.7517 10.4191 11.7517 10.0049C11.7517 9.59067 11.4159 9.25488 11.0017 9.25488H8.50171C8.0875 9.25488 7.75171 9.59067 7.75171 10.0049Z" fill="currentColor"/>
<path d="M18.5 1.25C18.6311 1.25738 18.8021 1.30031 18.915 1.37528C19.0649 1.45704 19.4977 1.69129 19.7785 1.80364C20.3438 2.02975 21.1222 2.25 22 2.25C22.4142 2.25 22.75 2.58579 22.75 3V5.5C22.75 7.54083 21.7156 8.86481 20.7134 9.65224C20.2169 10.0423 19.7239 10.306 19.356 10.4724C19.1629 10.5599 18.7089 10.75 18.5 10.7492C18.2911 10.75 17.8371 10.5599 17.644 10.4724C17.2761 10.306 16.7831 10.0423 16.2866 9.65224C15.2844 8.86481 14.25 7.54083 14.25 5.5V3C14.25 2.58579 14.5858 2.25 15 2.25C15.8778 2.25 16.6562 2.02975 17.2215 1.80364C17.5023 1.69129 17.9358 1.45655 18.0857 1.37479C18.1986 1.29982 18.3689 1.25738 18.5 1.25Z" fill="currentColor"/>
</svg>
