<svg width="24" height="24" viewBox="0 0 24 24" xmlns="http://www.w3.org/2000/svg">
    <path class="pr-icon-bulk-primary" fill-rule="evenodd" clip-rule="evenodd" d="M21 4.74912V3.68744C21 2.31577 19.8548 1.24994 18.5 1.24994C17.1452 1.24994 16 2.31577 16 3.68744V4.74912C15.9249 4.7719 15.8502 4.79923 15.7761 4.83214C15.1559 5.10738 14.6789 5.62759 14.4337 6.26196C14.3278 6.53589 14.2871 6.8172 14.2682 7.11386C14.25 7.39933 14.25 7.74709 14.25 8.16383V8.21104C14.25 8.62778 14.25 8.97554 14.2682 9.26102C14.2871 9.55768 14.3278 9.83899 14.4337 10.1129C14.6789 10.7473 15.1559 11.2675 15.7761 11.5427C16.0484 11.6636 16.3272 11.7092 16.6128 11.7301C16.8844 11.75 17.2134 11.7499 17.5989 11.7499H19.4011C19.7866 11.7499 20.1156 11.75 20.3872 11.7301C20.6728 11.7092 20.9516 11.6636 21.2239 11.5427C21.8441 11.2675 22.3211 10.7473 22.5663 10.1129C22.6722 9.83899 22.7129 9.55768 22.7318 9.26102C22.75 8.97554 22.75 8.62779 22.75 8.21104V8.16386C22.75 7.74711 22.75 7.39933 22.7318 7.11386C22.7129 6.8172 22.6722 6.53589 22.5663 6.26196C22.3211 5.62759 21.8441 5.10738 21.2239 4.83214C21.1498 4.79923 21.0751 4.7719 21 4.74912ZM17.5 3.68744C17.5 3.19515 17.9218 2.74994 18.5 2.74994C19.0782 2.74994 19.5 3.19515 19.5 3.68744V4.62495H17.5V3.68744Z" />
    <path class="pr-icon-bulk-secondary" d="M13.933 2.32556C14.2983 2.343 14.481 2.35171 14.5654 2.45261C14.6498 2.55351 14.6239 2.75206 14.572 3.14917C14.5527 3.2972 14.5371 3.43964 14.5255 3.55623C14.5117 3.69363 14.5049 3.76233 14.4764 3.81509C14.448 3.86786 14.3899 3.91513 14.2735 4.00969C13.7161 4.4628 13.2913 5.0571 13.0346 5.72112C12.8502 6.19804 12.7946 6.65107 12.7712 7.01857C12.75 7.35226 12.75 7.74078 12.75 8.12907V8.24579C12.75 8.63408 12.75 9.0227 12.7712 9.35639C12.7946 9.72388 12.8502 10.1769 13.0346 10.6538C13.415 11.6377 14.1643 12.4686 15.1676 12.9138C15.6627 13.1335 16.1344 13.1992 16.5034 13.2261C16.8305 13.2501 17.2066 13.25 17.5625 13.25H19.4375C19.7934 13.25 20.1695 13.2501 20.4966 13.2261C20.8656 13.1992 21.3373 13.1335 21.8324 12.9138C22.2244 12.7398 22.4204 12.6529 22.5261 12.6839C22.5947 12.7041 22.6381 12.7342 22.6812 12.7914C22.7474 12.8794 22.7366 13.0622 22.7151 13.4276C22.7129 13.4648 22.7106 13.5021 22.7082 13.5392C22.4103 18.149 18.787 21.8353 14.2204 22.1389C12.7601 22.2359 11.2369 22.2357 9.77965 22.1389C9.21472 22.1013 8.59978 21.9677 8.05839 21.7447C7.97233 21.7093 7.89626 21.678 7.82861 21.6504C7.69203 21.5948 7.62373 21.5669 7.54604 21.5766C7.46835 21.5862 7.40859 21.6302 7.28907 21.7181C7.25946 21.7398 7.22778 21.7632 7.1938 21.7882C6.40136 22.3726 5.40092 22.7825 3.98117 22.7479L3.93544 22.7468C3.66155 22.7403 3.36961 22.7333 3.13152 22.6873C2.84475 22.6318 2.48996 22.4931 2.26791 22.1145C2.02623 21.7025 2.12313 21.2858 2.21688 21.0234C2.30536 20.7757 2.45874 20.4852 2.61542 20.1885L2.6369 20.1478C3.10323 19.2641 3.23314 18.5419 2.98381 18.0604C2.15148 16.804 1.40272 15.2556 1.2918 13.5392C1.23607 12.6768 1.23607 11.7847 1.2918 10.9223C1.58972 6.31255 5.213 2.62626 9.77965 2.3227C10.9877 2.2424 12.5888 2.26141 13.933 2.32556Z" />
    <path class="pr-icon-bulk-primary" fill-rule="evenodd" clip-rule="evenodd" d="M7 12.5001C7 11.9478 7.44772 11.5001 8 11.5001H8.00897C8.56126 11.5001 9.00897 11.9478 9.00897 12.5001C9.00897 13.0523 8.56126 13.5001 8.00897 13.5001H8C7.44772 13.5001 7 13.0523 7 12.5001ZM10.9955 12.5001C10.9955 11.9478 11.4432 11.5001 11.9955 11.5001H12.0045C12.5568 11.5001 13.0045 11.9478 13.0045 12.5001C13.0045 13.0523 12.5568 13.5001 12.0045 13.5001H11.9955C11.4432 13.5001 10.9955 13.0523 10.9955 12.5001Z" />
</svg>
