<svg width="24" height="24" viewBox="0 0 24 24" xmlns="http://www.w3.org/2000/svg">
<path class="pr-icon-bulk-secondary" d="M11.9836 6.33718C12.2159 6.67484 12.4872 6.96406 12.7121 7.18404C12.7201 7.19183 12.724 7.19573 12.7285 7.19975C12.733 7.20378 12.7372 7.20732 12.7457 7.2144C12.9289 7.36689 14.5243 8.69348 14.7453 8.82672L14.7493 8.82915L14.7589 8.83497C14.9227 8.93486 16.0474 9.62078 17.3542 8.98683C18.1455 8.60298 18.5149 7.97276 18.6882 7.493C18.7791 7.24148 18.8246 7.11568 18.9021 7.06123C18.9797 7.00677 19.0939 7.00677 19.3222 7.00677L21.0827 7.00677C21.2568 7.00677 21.3438 7.00677 21.4161 7.05116C21.4883 7.09556 21.526 7.1699 21.6013 7.31859C22.1549 8.41146 22.4997 9.63106 22.5832 10.9232C22.6389 11.7856 22.6389 12.6777 22.5832 13.5401C22.2853 18.1499 18.662 21.8362 14.0954 22.1397C12.6351 22.2368 11.1119 22.2366 9.65465 22.1397C9.08972 22.1022 8.47478 21.9686 7.93339 21.7456C7.84733 21.7102 7.77126 21.6789 7.70361 21.6513C7.56703 21.5957 7.49873 21.5678 7.42104 21.5775C7.34335 21.5871 7.28359 21.6311 7.16407 21.7189L7.0688 21.7891C6.27636 22.3735 5.27592 22.7834 3.85617 22.7488L3.81044 22.7477C3.53655 22.7412 3.24461 22.7342 3.00652 22.6882C2.71975 22.6327 2.36496 22.494 2.14291 22.1154C1.90123 21.7034 1.99813 21.2867 2.09188 21.0243C2.18036 20.7766 2.33374 20.4861 2.49042 20.1893L2.5119 20.1487C2.97823 19.265 3.10814 18.5428 2.85881 18.0613C2.02648 16.8049 1.27772 15.2565 1.1668 13.5401C1.11107 12.6777 1.11107 11.7856 1.1668 10.9232C1.46472 6.31344 5.088 2.62715 9.65465 2.32359C10.1563 2.29025 10.6657 2.2684 11.1776 2.25802C11.6482 2.24847 11.8835 2.2437 11.9742 2.38492C12.0649 2.52615 11.9534 2.75752 11.7303 3.22026C11.5378 3.61949 11.375 4.08031 11.375 4.50091C11.375 5.39272 11.789 6.0543 11.9836 6.33718Z" fill="currentColor"/>
<path fill-rule="evenodd" clip-rule="evenodd" d="M7.625 15C7.625 15.4142 7.96079 15.75 8.375 15.75H15.375C15.7892 15.75 16.125 15.4142 16.125 15C16.125 14.5858 15.7892 14.25 15.375 14.25H8.375C7.96079 14.25 7.625 14.5858 7.625 15ZM7.625 10C7.625 10.4142 7.96079 10.75 8.375 10.75H11.875C12.2892 10.75 12.625 10.4142 12.625 10C12.625 9.58579 12.2892 9.25 11.875 9.25H8.375C7.96079 9.25 7.625 9.58579 7.625 10Z" fill="currentColor"/>
<path fill-rule="evenodd" clip-rule="evenodd" d="M21.875 5.50586C22.4273 5.50586 22.875 5.05814 22.875 4.50586C22.875 3.95357 22.4273 3.50586 21.875 3.50586L17.375 3.50586L17.375 2.9116C17.3751 2.73596 17.3753 2.52031 17.3532 2.34387L17.3528 2.34053C17.337 2.21408 17.2652 1.63804 16.6996 1.36368C16.1327 1.08872 15.6326 1.39065 15.5244 1.45597L15.5204 1.45841C15.3674 1.55062 15.1965 1.68477 15.0559 1.79511L15.0257 1.81885C14.6498 2.11348 14.1656 2.49545 13.7746 2.87588C13.5795 3.06571 13.3783 3.28297 13.2194 3.51388C13.0782 3.71914 12.875 4.06934 12.875 4.5C12.875 4.93067 13.0782 5.28086 13.2194 5.48612C13.3783 5.71703 13.5795 5.93429 13.7746 6.12412C14.1656 6.50455 14.6498 6.88652 15.0257 7.18115L15.0559 7.20488C15.1965 7.31523 15.3673 7.44938 15.5204 7.54159L15.5244 7.54403C15.6326 7.60935 16.1328 7.91128 16.6996 7.63632C17.2652 7.36196 17.337 6.78592 17.3528 6.65947L17.3532 6.65613C17.3753 6.47969 17.3751 6.26403 17.375 6.0884L17.375 5.50586L21.875 5.50586Z" fill="currentColor"/>
</svg>
