<svg width="24" height="24" viewBox="0 0 24 24" xmlns="http://www.w3.org/2000/svg">
    <path class="pr-icon-bulk-secondary" d="M16.0057 3.20555L16.0057 4.67352C16.0057 4.90278 16.0057 5.01741 15.9509 5.09513C15.8962 5.17284 15.7697 5.21806 15.5168 5.3085C15.036 5.48045 14.4002 5.84944 14.0139 6.64576C13.3799 7.95264 14.0659 9.07736 14.1658 9.24116L14.1714 9.25048L14.1735 9.25385C14.3149 9.48857 14.4991 9.72286 14.599 9.84991L14.6382 9.89978C14.9259 10.2668 15.3555 10.8139 15.8006 11.2714C16.0225 11.4995 16.3176 11.7784 16.6635 12.0164C16.9464 12.211 17.608 12.625 18.4998 12.625C19.3916 12.625 20.0532 12.211 20.3361 12.0164C20.682 11.7784 20.9771 11.4995 21.199 11.2714L21.7315 10.6364C22.0794 10.2214 22.2534 10.014 22.4452 10.0753C22.637 10.1366 22.6575 10.3944 22.6983 10.91C22.7019 10.9557 22.7052 11.0015 22.7082 11.0474C22.7639 11.9098 22.7639 12.8018 22.7082 13.6642C22.4103 18.274 18.787 21.9603 14.2204 22.2639C12.7601 22.3609 11.2369 22.3607 9.77965 22.2639C9.21472 22.2263 8.59978 22.0927 8.05839 21.8698C7.97233 21.8343 7.89626 21.803 7.82861 21.7755C7.69203 21.7198 7.62373 21.692 7.54604 21.7016C7.46835 21.7112 7.40859 21.7552 7.28907 21.8431L7.1938 21.9133C6.40136 22.4976 5.40092 22.9075 3.98117 22.873L3.93544 22.8719C3.66155 22.8653 3.36961 22.8584 3.13152 22.8123C2.84475 22.7568 2.48996 22.6181 2.26791 22.2395C2.02623 21.8275 2.12313 21.4108 2.21688 21.1484C2.30536 20.9007 2.45874 20.6102 2.61542 20.3135L2.6369 20.2728C3.10323 19.3891 3.23314 18.6669 2.98381 18.1854C2.15148 16.929 1.40272 15.3806 1.2918 13.6642C1.23607 12.8018 1.23607 11.9098 1.2918 11.0474C1.58972 6.43758 5.213 2.75129 9.77965 2.44773C11.2369 2.35086 12.7601 2.35066 14.2204 2.44773C14.6776 2.47812 15.1253 2.54242 15.5612 2.63815C15.7692 2.68384 15.8732 2.70668 15.9394 2.78903C16.0057 2.87137 16.0057 2.98276 16.0057 3.20555Z" />
    <path class="pr-icon-bulk-primary" fill-rule="evenodd" clip-rule="evenodd" d="M7.75 15.125C7.75 15.5392 8.08579 15.875 8.5 15.875H15.5C15.9142 15.875 16.25 15.5392 16.25 15.125C16.25 14.7108 15.9142 14.375 15.5 14.375H8.5C8.08579 14.375 7.75 14.7108 7.75 15.125ZM7.75 10.125C7.75 10.5392 8.08579 10.875 8.5 10.875H12C12.4142 10.875 12.75 10.5392 12.75 10.125C12.75 9.71079 12.4142 9.375 12 9.375H8.5C8.08579 9.375 7.75 9.71079 7.75 10.125Z" />
    <path class="pr-icon-bulk-primary" fill-rule="evenodd" clip-rule="evenodd" d="M19.5059 2.125C19.5059 1.57272 19.0581 1.125 18.5059 1.125C17.9536 1.125 17.5059 1.57272 17.5059 2.125L17.5059 6.62504L16.9116 6.62502C16.736 6.62489 16.5203 6.62474 16.3439 6.64681L16.3405 6.64723C16.2141 6.663 15.638 6.73483 15.3637 7.30043C15.0887 7.86725 15.3907 8.36739 15.456 8.4756L15.4584 8.47963C15.5506 8.63265 15.6848 8.80353 15.7951 8.94408L15.8188 8.97433C16.1135 9.35015 16.4954 9.83437 16.8759 10.2254C17.0657 10.4205 17.283 10.6217 17.5139 10.7806C17.7191 10.9218 18.0693 11.125 18.5 11.125C18.9307 11.125 19.2809 10.9218 19.4861 10.7806C19.717 10.6217 19.9343 10.4205 20.1241 10.2254C20.5046 9.83437 20.8865 9.35015 21.1812 8.97433L21.2049 8.94409C21.3152 8.80353 21.4494 8.63265 21.5416 8.47963L21.544 8.47559C21.6093 8.36739 21.9113 7.86725 21.6363 7.30043C21.362 6.73483 20.7859 6.66299 20.6595 6.64723L20.6561 6.64681C20.4797 6.62474 20.264 6.62489 20.0884 6.62502L19.5059 6.62504L19.5059 2.125Z" />
</svg>
