<svg width="24" height="24" viewBox="0 0 24 24" xmlns="http://www.w3.org/2000/svg">
<path class="pr-icon-bulk-secondary" d="M6.25 7C6.25 3.82436 8.82436 1.25 12 1.25C15.1756 1.25 17.75 3.82436 17.75 7V11C17.75 14.1756 15.1756 16.75 12 16.75C8.82436 16.75 6.25 14.1756 6.25 11V7Z" fill="currentColor"/>
<path class="pr-icon-bulk-primary" d="M17.75 10.25V11C17.75 11.2542 17.7335 11.5045 17.7015 11.75H14C13.5858 11.75 13.25 11.4142 13.25 11C13.25 10.5858 13.5858 10.25 14 10.25H17.75Z" fill="currentColor"/>
<path class="pr-icon-bulk-primary" d="M17.7015 6.25C17.7335 6.49547 17.75 6.74581 17.75 7V7.75H14C13.5858 7.75 13.25 7.41421 13.25 7C13.25 6.58579 13.5858 6.25 14 6.25H17.7015Z" fill="currentColor"/>
<path class="pr-icon-bulk-primary" fill-rule="evenodd" clip-rule="evenodd" d="M4.22222 10.25C4.75917 10.25 5.19444 10.6805 5.19444 11.2115C5.19444 14.9288 8.2414 17.9423 12 17.9423C15.7586 17.9423 18.8056 14.9288 18.8056 11.2115C18.8056 10.6805 19.2408 10.25 19.7778 10.25C20.3147 10.25 20.75 10.6805 20.75 11.2115C20.75 15.6659 17.3472 19.3343 12.9722 19.8126V20.8269H14.9167C15.4536 20.8269 15.8889 21.2574 15.8889 21.7885C15.8889 22.3195 15.4536 22.75 14.9167 22.75H9.08333C8.54639 22.75 8.11111 22.3195 8.11111 21.7885C8.11111 21.2574 8.54639 20.8269 9.08333 20.8269H11.0278V19.8126C6.65283 19.3343 3.25 15.6659 3.25 11.2115C3.25 10.6805 3.68528 10.25 4.22222 10.25Z" fill="currentColor"/>
</svg>
