<svg width="24" height="24" viewBox="0 0 24 24" xmlns="http://www.w3.org/2000/svg">
<path d="M4 6.875C4.55228 6.875 5 7.32272 5 7.875V18.875H19V7.875C19 7.32272 19.4477 6.875 20 6.875C20.5523 6.875 21 7.32272 21 7.875V21.875C21 22.4273 20.5523 22.875 20 22.875C19.4477 22.875 19 22.4273 19 21.875V20.875H5V21.875C5 22.4273 4.55228 22.875 4 22.875C3.44772 22.875 3 22.4273 3 21.875V7.875C3 7.32272 3.44772 6.875 4 6.875Z" fill="currentColor"/>
<path class="pr-icon-bulk-secondary" d="M6.25 6.875C6.25 3.69936 8.82436 1.125 12 1.125C15.1756 1.125 17.75 3.69936 17.75 6.875V14.875C17.75 15.3049 17.7286 15.7013 17.6527 16.0465C17.575 16.4002 17.4303 16.7463 17.1508 17.0258C16.8713 17.3053 16.5252 17.45 16.1715 17.5277C15.8263 17.6036 15.4299 17.625 15 17.625H9C8.5701 17.625 8.17373 17.6036 7.82851 17.5277C7.4748 17.45 7.12868 17.3053 6.84917 17.0258C6.56966 16.7463 6.42498 16.4002 6.34728 16.0465C6.27144 15.7013 6.25 15.3049 6.25 14.875V6.875Z" fill="currentColor"/>
<path fill-rule="evenodd" clip-rule="evenodd" d="M11.5303 4.34467C11.8232 4.63756 11.8232 5.11244 11.5303 5.40533L10.5303 6.40533C10.2374 6.69822 9.76256 6.69822 9.46967 6.40533C9.17678 6.11244 9.17678 5.63756 9.46967 5.34467L10.4697 4.34467C10.7626 4.05178 11.2374 4.05178 11.5303 4.34467ZM13.5303 5.84467C13.8232 6.13756 13.8232 6.61244 13.5303 6.90533L11.5303 8.90533C11.2374 9.19822 10.7626 9.19822 10.4697 8.90533C10.1768 8.61244 10.1768 8.13756 10.4697 7.84467L12.4697 5.84467C12.7626 5.55178 13.2374 5.55178 13.5303 5.84467Z" fill="currentColor"/>
<path d="M17.75 10.875V12.875H20C20.5523 12.875 21 12.4273 21 11.875C21 11.3227 20.5523 10.875 20 10.875H17.75Z" fill="currentColor"/>
<path d="M6.25 12.875H4C3.44772 12.875 3 12.4273 3 11.875C3 11.3227 3.44772 10.875 4 10.875H6.25V12.875Z" fill="currentColor"/>
</svg>
