<svg width="24" height="24" viewBox="0 0 24 24" xmlns="http://www.w3.org/2000/svg">
<path class="pr-icon-bulk-primary" fill-rule="evenodd" clip-rule="evenodd" d="M19.7188 4.61063V4.025C19.7188 2.51247 18.5213 1.25 17 1.25C15.4787 1.25 14.2813 2.51247 14.2813 4.025V4.61063C13.5256 4.92366 12.9824 5.64097 12.8735 6.47252C12.808 6.97311 12.75 7.51394 12.75 8.075C12.75 8.63606 12.808 9.17688 12.8735 9.67748C13.0154 10.7614 13.8954 11.6513 15.0219 11.7046C15.6538 11.7345 16.2952 11.75 17 11.75C17.7048 11.75 18.3462 11.7345 18.9781 11.7046C20.1046 11.6513 20.9846 10.7615 21.1265 9.67748C21.192 9.17688 21.25 8.63606 21.25 8.075C21.25 7.51394 21.192 6.97311 21.1265 6.47252C21.0176 5.64097 20.4744 4.92366 19.7188 4.61063ZM15.7812 4.025C15.7812 3.30078 16.3467 2.75 17 2.75C17.6533 2.75 18.2188 3.30078 18.2188 4.025V4.41673C17.8277 4.40566 17.4254 4.4 17 4.4C16.5746 4.4 16.1723 4.40566 15.7812 4.41673V4.025Z" fill="currentColor"/>
<path class="pr-icon-bulk-secondary" d="M18.25 13.85C18.25 13.5607 18.25 13.416 18.1607 13.3279C18.0714 13.2398 17.9253 13.2418 17.6331 13.2458C17.4267 13.2486 17.2161 13.25 17 13.25C16.2723 13.25 15.6073 13.2339 14.9511 13.2029C13.0407 13.1126 11.6146 11.6168 11.3862 9.87217C11.318 9.35131 11.25 8.73426 11.25 8.075C11.25 7.41574 11.318 6.79869 11.3862 6.27783C11.5042 5.37638 11.9365 4.54983 12.5881 3.94438C12.6892 3.85047 12.7397 3.80351 12.7638 3.75614C12.788 3.70876 12.7962 3.64124 12.8125 3.50621C12.8639 3.08108 12.9778 2.67203 13.1453 2.29041C13.3621 1.79664 13.4705 1.54976 13.3844 1.41464C13.2983 1.27951 13.0636 1.27425 12.5942 1.26372C11.9821 1.24999 11.3042 1.24999 10.5558 1.25H10.4443C8.84167 1.24998 7.5627 1.24997 6.55961 1.38483C5.52335 1.52415 4.66994 1.81966 3.9948 2.4948C3.31966 3.16994 3.02415 4.02335 2.88483 5.05961C2.74997 6.0627 2.74998 7.34165 2.75 8.94424V15.0557C2.74998 16.6583 2.74997 17.9373 2.88483 18.9404C3.02415 19.9767 3.31966 20.8301 3.9948 21.5052C4.66994 22.1803 5.52335 22.4758 6.55961 22.6152C7.5627 22.75 8.84166 22.75 10.4443 22.75H10.5557C12.1583 22.75 13.4373 22.75 14.4404 22.6152C15.4767 22.4758 16.3301 22.1803 17.0052 21.5052C17.6803 20.8301 17.9759 19.9767 18.1152 18.9404C18.25 17.9373 18.25 16.6583 18.25 15.0557V13.85Z" fill="currentColor"/>
<path class="pr-icon-bulk-primary" fill-rule="evenodd" clip-rule="evenodd" d="M8.5 19C8.5 18.4477 8.94772 18 9.5 18H11.5C12.0523 18 12.5 18.4477 12.5 19C12.5 19.5523 12.0523 20 11.5 20H9.5C8.94772 20 8.5 19.5523 8.5 19Z" fill="currentColor"/>
</svg>
