<svg width="24" height="24" viewBox="0 0 24 24" xmlns="http://www.w3.org/2000/svg">
<path class="pr-icon-bulk-secondary" fill-rule="evenodd" clip-rule="evenodd" d="M1.25 12C1.25 17.9371 6.06294 22.75 12 22.75C17.9371 22.75 22.75 17.9371 22.75 12C22.75 6.06294 17.9371 1.25 12 1.25C6.06294 1.25 1.25 6.06294 1.25 12Z" />
<path class="pr-icon-bulk-primary" fill-rule="evenodd" clip-rule="evenodd" d="M10.7461 12C10.7461 11.3096 11.3057 10.75 11.9961 10.75H12.0051C12.6954 10.75 13.2551 11.3096 13.2551 12C13.2551 12.6904 12.6954 13.25 12.0051 13.25H11.9961C11.3057 13.25 10.7461 12.6904 10.7461 12Z" />
<path class="pr-icon-bulk-primary" fill-rule="evenodd" clip-rule="evenodd" d="M10.7344 16C10.7344 15.3096 11.294 14.75 11.9844 14.75H11.9934C12.6837 14.75 13.2434 15.3096 13.2434 16C13.2434 16.6904 12.6837 17.25 11.9934 17.25H11.9844C11.294 17.25 10.7344 16.6904 10.7344 16Z" />
<path class="pr-icon-bulk-primary" fill-rule="evenodd" clip-rule="evenodd" d="M10.75 8C10.75 7.30964 11.3096 6.75 12 6.75H12.009C12.6993 6.75 13.259 7.30964 13.259 8C13.259 8.69036 12.6993 9.25 12.009 9.25H12C11.3096 9.25 10.75 8.69036 10.75 8Z" />
</svg>
