<svg width="24" height="24" viewBox="0 0 24 24" xmlns="http://www.w3.org/2000/svg">
<path class="pr-icon-bulk-secondary" d="M6.17746 7.93469C7.31874 6.23621 9.20275 5.25 12 5.25C14.7972 5.25 16.6812 6.23622 17.8225 7.93469C18.9238 9.57365 19.25 11.7581 19.25 14C19.25 16.2419 18.9238 18.4264 17.8225 20.0653C16.6812 21.7638 14.7972 22.75 12 22.75C9.20274 22.75 7.31874 21.7638 6.17746 20.0653C5.07617 18.4264 4.75 16.242 4.75 14C4.75 11.758 5.07617 9.57364 6.17746 7.93469Z" fill="currentColor"/>
<path class="pr-icon-bulk-primary" fill-rule="evenodd" clip-rule="evenodd" d="M6 1.25C6.41421 1.25 6.75 1.58579 6.75 2C6.75 2.32899 6.82789 2.46462 6.87391 2.52115C6.92282 2.58123 7.01466 2.64847 7.21333 2.69856C7.41864 2.75033 7.68052 2.76921 8.00394 2.76905C8.16246 2.76897 8.32397 2.76454 8.4939 2.75976L8.50622 2.75941C8.6686 2.75484 8.84046 2.75 9.00657 2.75C10.015 2.75 10.9851 2.82822 11.6906 3.35135C12.457 3.91966 12.7143 4.84306 12.7496 5.9766C12.7499 5.9844 12.75 5.9922 12.75 6V9C12.75 9.41421 12.4142 9.75 12 9.75C11.5858 9.75 11.25 9.41421 11.25 9V6.012C11.2178 5.0312 10.9998 4.70653 10.7971 4.55623C10.5327 4.36016 10.0392 4.25 9.00657 4.25C8.86178 4.25 8.70801 4.25433 8.53763 4.25912L8.5361 4.25917C8.36904 4.26387 8.18719 4.26896 8.00468 4.26905C7.64604 4.26923 7.23517 4.25101 6.84661 4.15305C6.4514 4.0534 6.02826 3.85829 5.71066 3.46817C5.39016 3.07449 5.25 2.57208 5.25 2C5.25 1.58579 5.58579 1.25 6 1.25Z" fill="currentColor"/>
<path class="pr-icon-bulk-primary" fill-rule="evenodd" clip-rule="evenodd" d="M11.9782 8.25C11.9855 8.25 11.9927 8.25 12 8.25C12.0073 8.25 12.0145 8.25 12.0218 8.25C12.236 8.24999 12.4329 8.24998 12.5982 8.26126C12.7759 8.27338 12.9712 8.30099 13.1697 8.38321C13.5985 8.56083 13.9392 8.90151 14.1168 9.33031C14.199 9.52881 14.2266 9.72415 14.2387 9.90179C14.25 10.0671 14.25 10.264 14.25 10.4782V11.5218C14.25 11.736 14.25 11.9329 14.2387 12.0982C14.2266 12.2759 14.199 12.4712 14.1168 12.6697C13.9392 13.0985 13.5985 13.4392 13.1697 13.6168C12.9712 13.699 12.7759 13.7266 12.5982 13.7387C12.4329 13.75 12.236 13.75 12.0218 13.75H11.9782C11.764 13.75 11.5671 13.75 11.4018 13.7387C11.2241 13.7266 11.0288 13.699 10.8303 13.6168C10.4015 13.4392 10.0608 13.0985 9.88321 12.6697C9.80099 12.4712 9.77338 12.2759 9.76126 12.0982C9.74998 11.9329 9.74999 11.736 9.75 11.5218L9.75 10.5C9.75 10.4927 9.75 10.4855 9.75 10.4782C9.74999 10.264 9.74998 10.0671 9.76126 9.90179C9.77338 9.72415 9.80099 9.52881 9.88321 9.33031C10.0608 8.90151 10.4015 8.56083 10.8303 8.38321C11.0288 8.30099 11.2241 8.27338 11.4018 8.26126C11.5671 8.24998 11.764 8.24999 11.9782 8.25ZM11.4013 9.77031C11.3425 9.79558 11.2956 9.84248 11.2703 9.90131C11.2684 9.90867 11.2623 9.93707 11.2578 10.0039C11.2504 10.1119 11.25 10.2568 11.25 10.5V11.5C11.25 11.7432 11.2504 11.8881 11.2578 11.9961C11.2623 12.0629 11.2684 12.0913 11.2703 12.0987C11.2956 12.1575 11.3425 12.2044 11.4013 12.2297C11.4087 12.2316 11.4371 12.2377 11.5039 12.2422C11.6119 12.2496 11.7568 12.25 12 12.25C12.2432 12.25 12.3881 12.2496 12.4961 12.2422C12.5629 12.2377 12.5913 12.2316 12.5987 12.2297C12.6575 12.2044 12.7044 12.1575 12.7297 12.0987C12.7316 12.0913 12.7377 12.0629 12.7422 11.9961C12.7496 11.8881 12.75 11.7432 12.75 11.5V10.5C12.75 10.2568 12.7496 10.1119 12.7422 10.0039C12.7377 9.93707 12.7316 9.90867 12.7297 9.90131C12.7044 9.84248 12.6575 9.79558 12.5987 9.77031C12.5913 9.76844 12.5629 9.76234 12.4961 9.75778C12.3881 9.75041 12.2432 9.75 12 9.75C11.7568 9.75 11.6119 9.75041 11.5039 9.75778C11.4371 9.76234 11.4087 9.76844 11.4013 9.77031Z" fill="currentColor"/>
<path class="pr-icon-bulk-primary" d="M6.75 2C6.75 1.58579 6.41421 1.25 6 1.25C5.58579 1.25 5.25 1.58579 5.25 2C5.25 2.57208 5.39016 3.07449 5.71066 3.46817C6.02826 3.85829 6.4514 4.0534 6.84661 4.15305C7.23517 4.25101 7.64604 4.26923 8.00468 4.26905C8.18719 4.26896 8.36904 4.26387 8.5361 4.25917L8.53763 4.25912C8.70801 4.25433 8.86178 4.25 9.00657 4.25C10.0392 4.25 10.5327 4.36016 10.7971 4.55623C10.9376 4.6604 11.0854 4.84832 11.1736 5.28039C11.4397 5.26023 11.7151 5.25 12 5.25C12.2374 5.25 12.4682 5.2571 12.6925 5.27114C12.5789 4.45974 12.291 3.79657 11.6906 3.35135C10.9851 2.82822 10.015 2.75 9.00657 2.75C8.84046 2.75 8.66861 2.75484 8.50623 2.75941L8.4939 2.75976C8.32397 2.76454 8.16246 2.76897 8.00394 2.76905C7.68052 2.76921 7.41864 2.75033 7.21333 2.69856C7.01466 2.64847 6.92282 2.58123 6.87391 2.52115C6.82789 2.46462 6.75 2.32899 6.75 2Z" fill="currentColor"/>
</svg>
