<svg width="25" height="24" viewBox="0 0 25 24" fill="none" xmlns="http://www.w3.org/2000/svg">
<path opacity="0.4" d="M13.9397 1.62445C13.0448 1.12518 11.9552 1.12518 11.0603 1.62445C10.6543 1.85099 10.296 2.23483 9.81604 2.74907L9.73113 2.84C9.4604 3.12967 9.3804 3.21192 9.29843 3.27523C9.09386 3.43323 8.85088 3.53387 8.5945 3.56681C8.49178 3.58 8.37705 3.57841 7.98079 3.56502L7.85646 3.56076C7.15343 3.53653 6.62868 3.51845 6.18138 3.64537C5.19559 3.9251 4.4251 4.69559 4.14537 5.68138C4.01845 6.12868 4.03653 6.65343 4.06076 7.35646L4.06502 7.48079C4.07841 7.87705 4.08 7.99178 4.06681 8.09451C4.03387 8.35088 3.93323 8.59386 3.77523 8.79843C3.71192 8.8804 3.62967 8.9604 3.34 9.23113L3.24908 9.31604C2.73483 9.79602 2.35099 10.1543 2.12445 10.5603C1.62518 11.4552 1.62518 12.5448 2.12445 13.4397C2.35099 13.8457 2.73483 14.204 3.24908 14.684L3.34 14.7689C3.62967 15.0396 3.71192 15.1196 3.77523 15.2016C3.93323 15.4061 4.03387 15.6491 4.06681 15.9055C4.08 16.0082 4.07841 16.123 4.06502 16.5192L4.06076 16.6435C4.03653 17.3466 4.01845 17.8713 4.14537 18.3186C4.4251 19.3044 5.19559 20.0749 6.18138 20.3546C6.62868 20.4815 7.15342 20.4635 7.85645 20.4392L7.98079 20.435C8.37705 20.4216 8.49178 20.42 8.5945 20.4332C8.85088 20.4661 9.09386 20.5668 9.29843 20.7248C9.3804 20.7881 9.4604 20.8703 9.73113 21.16L9.81604 21.2509C10.296 21.7652 10.6543 22.149 11.0603 22.3755C11.9552 22.8748 13.0448 22.8748 13.9397 22.3755C14.3457 22.149 14.704 21.7652 15.184 21.2509L15.2689 21.16C15.5396 20.8703 15.6196 20.7881 15.7016 20.7248C15.9061 20.5668 16.1491 20.4661 16.4055 20.4332C16.5082 20.42 16.6229 20.4216 17.0192 20.435L17.1435 20.4392C17.8466 20.4635 18.3713 20.4815 18.8186 20.3546C19.8044 20.0749 20.5749 19.3044 20.8546 18.3186C20.9815 17.8713 20.9635 17.3466 20.9392 16.6435L20.935 16.5192C20.9216 16.1229 20.92 16.0082 20.9332 15.9055C20.9661 15.6491 21.0668 15.4061 21.2248 15.2016C21.2881 15.1196 21.3703 15.0396 21.66 14.7689L21.7509 14.684C22.2652 14.204 22.649 13.8457 22.8755 13.4397C23.3748 12.5448 23.3748 11.4552 22.8755 10.5603C22.649 10.1543 22.2652 9.79603 21.7509 9.31604L21.66 9.23113C21.3703 8.9604 21.2881 8.8804 21.2248 8.79843C21.0668 8.59386 20.9661 8.35088 20.9332 8.0945C20.92 7.99178 20.9216 7.87705 20.935 7.48079L20.9392 7.35645C20.9635 6.65342 20.9815 6.12868 20.8546 5.68138C20.5749 4.69559 19.8044 3.9251 18.8186 3.64537C18.3713 3.51845 17.8466 3.53653 17.1435 3.56076L17.0192 3.56502C16.623 3.57841 16.5082 3.58 16.4055 3.56681C16.1491 3.53387 15.9061 3.43323 15.7016 3.27523C15.6196 3.21192 15.5396 3.12967 15.2689 2.84L15.184 2.74907C14.704 2.23483 14.3457 1.85099 13.9397 1.62445Z" fill="currentColor"/>
<path fill-rule="evenodd" clip-rule="evenodd" d="M14.9117 8.97656C14.8868 9.07743 14.8134 9.3817 14.9203 9.45452C15.0763 9.56084 15.5849 9.2313 15.5668 9.0591C15.5328 8.73503 14.9992 8.62244 14.9117 8.97656ZM13.5566 10.2169C13.3543 9.69236 13.326 9.14082 13.4555 8.61686C13.5866 8.08619 13.9067 7.64368 14.3945 7.41241C14.8726 7.18572 15.4074 7.2111 15.888 7.39733C16.5714 7.66217 16.9915 8.26386 17.0586 8.90229C17.1275 9.55768 16.8185 10.2479 16.1095 10.5888C15.7908 10.742 15.4489 10.9118 15.0951 11.0951L17.6479 11.6084C18.0058 11.6804 18.2599 11.9997 18.2498 12.3646C18.2396 12.7296 17.9681 13.0342 17.6067 13.0861C16.5671 13.2354 15.0837 13.5639 14.1051 14.0898C13.6042 14.359 13.3681 14.6104 13.2931 14.7927C13.2513 14.8944 13.2007 15.1048 13.5414 15.5331C13.7607 15.8086 13.7587 16.1996 13.5366 16.4729C13.3146 16.7463 12.9323 16.8283 12.6177 16.6701C11.7652 16.2415 11.1061 15.8318 10.6579 15.2907C10.4906 15.0888 10.3603 14.8783 10.2588 14.6576C10.0325 14.8074 9.78419 14.9379 9.51964 15.0293C9.12042 15.1672 8.65323 15.2258 8.1694 15.0894C7.68016 14.9516 7.25174 14.6363 6.89887 14.1633C6.65121 13.8312 6.7196 13.3613 7.05162 13.1137C7.38363 12.866 7.85356 12.9344 8.10122 13.2664C8.34056 13.5873 8.63974 13.7463 9.02996 13.6115C9.27052 13.5284 9.51712 13.3637 9.73124 13.1756C9.90442 13.0234 9.91629 13.0063 9.90948 12.7379C9.89795 12.2826 9.9064 11.7558 9.91605 11.1542C9.92361 10.683 9.9319 10.1659 9.9319 9.60152C9.9319 9.18731 10.2677 8.85152 10.6819 8.85152C11.0961 8.85152 11.4319 9.18731 11.4319 9.60152C11.4319 10.2601 11.4226 10.8176 11.4145 11.2991C11.4011 12.1044 11.3912 12.6968 11.4344 13.1927C11.488 13.8071 11.611 14.1081 11.8497 14.3765C12.0848 13.6363 12.7349 13.1233 13.395 12.7685C13.6241 12.6455 13.8701 12.5329 14.1258 12.4302L12.8067 12.1649C12.5034 12.1039 12.2686 11.863 12.2156 11.5582C12.1626 11.2534 12.3022 10.9473 12.5671 10.7875C12.8954 10.5894 13.2278 10.3985 13.5566 10.2169Z" fill="currentColor"/>
</svg>
