<svg width="24" height="24" viewBox="0 0 24 24" xmlns="http://www.w3.org/2000/svg">
    <path class="pr-icon-bulk-primary" d="M2 18.4062C2 20.8915 4.01472 22.9062 6.5 22.9062C8.98528 22.9062 11 20.8915 11 18.4062C11 15.921 8.98528 13.9062 6.5 13.9062C4.01472 13.9062 2 15.921 2 18.4062Z" />
    <path class="pr-icon-bulk-primary" d="M14 15.9062C14 18.1154 15.7909 19.9062 18 19.9062C20.2091 19.9062 22 18.1154 22 15.9062C22 13.6971 20.2091 11.9062 18 11.9062C15.7909 11.9062 14 13.6971 14 15.9062Z" />
    <path class="pr-icon-bulk-secondary" d="M22 2.63834C22.0002 2.50355 22.0004 2.31281 21.9779 2.15047C21.9554 1.98781 21.8697 1.51504 21.3959 1.24399C20.9159 0.969391 20.4584 1.14388 20.3139 1.20447C20.1623 1.26796 19.9968 1.36557 19.8771 1.43608L19.8771 1.43609L19.8484 1.45298C18.5076 2.24129 15.7632 3.49593 11.9136 3.82438L11.8628 3.82871C11.4162 3.86676 10.9981 3.90237 10.6619 3.97099C10.302 4.04446 9.86802 4.18536 9.5269 4.55682C9.19408 4.91925 9.08528 5.34504 9.04046 5.70799C8.99986 6.03686 8.99992 6.43677 8.99999 6.85406L9 14.6632C10.206 15.4705 11 16.8452 11 18.4054V10.8835C15.086 10.7052 18.1779 9.46881 20 8.56883V12.4406C21.1956 13.1322 22 14.4249 22 15.9054V6.92382C22.0002 6.91088 22.0002 6.89791 22 6.88494L22 2.63834V2.63834Z" />
</svg>
