<svg width="24" height="24" viewBox="0 0 24 24" xmlns="http://www.w3.org/2000/svg">
<path class="pr-icon-bulk-secondary" d="M12.0572 1.75C14.2479 1.74999 15.9686 1.74998 17.312 1.93059C18.6886 2.11568 19.7809 2.50271 20.6391 3.36091C21.4973 4.21911 21.8843 5.31137 22.0694 6.68802C22.25 8.03144 22.25 9.7521 22.25 11.9428V11.9428V12.0572V12.0572C22.25 14.2479 22.25 15.9686 22.0694 17.312C21.8843 18.6886 21.4973 19.7809 20.6391 20.6391C19.7809 21.4973 18.6886 21.8843 17.312 22.0694C15.9686 22.25 14.2479 22.25 12.0572 22.25H12.0572H11.9428H11.9428C9.7521 22.25 8.03144 22.25 6.68802 22.0694C5.31137 21.8843 4.21911 21.4973 3.36091 20.6391C2.50271 19.7809 2.11568 18.6886 1.93059 17.312C1.74998 15.9686 1.74999 14.2479 1.75 12.0572V11.9428C1.74999 9.75212 1.74998 8.03144 1.93059 6.68802C2.11568 5.31137 2.50271 4.21911 3.36091 3.36091C4.21911 2.50271 5.31137 2.11568 6.68802 1.93059C8.03144 1.74998 9.75212 1.74999 11.9428 1.75H12.0572Z" />
<path class="pr-icon-bulk-primary" d="M12.7102 6.04299C13.132 5.91529 13.5876 6.07872 13.8321 6.44538C13.9328 6.59647 14.0047 6.76386 14.0502 6.87381C14.0782 6.94156 14.1132 7.03071 14.1459 7.11419L14.1459 7.1142C14.1655 7.16413 14.1843 7.21204 14.2004 7.25212C14.3022 7.50681 14.4141 7.75946 14.5671 7.99821C14.8507 8.44099 15.2904 8.86802 16.1644 9.01368C16.7092 9.10448 17.0772 9.61971 16.9864 10.1645C16.8956 10.7092 16.3804 11.0773 15.8356 10.9865C15.0795 10.8605 14.4787 10.5948 14 10.2577V14.5001C14 16.4331 12.433 18.0001 10.5 18.0001C8.567 18.0001 7 16.4331 7 14.5001C7 12.5671 8.567 11.0001 10.5 11.0001C11.0368 11.0001 11.5454 11.1209 12 11.3369V7.00008C12 6.55941 12.2885 6.17068 12.7102 6.04299Z" />
</svg>
