<svg width="24" height="24" viewBox="0 0 24 24" xmlns="http://www.w3.org/2000/svg">
<path class="pr-icon-bulk-secondary" d="M1.25 12C1.25 6.06294 6.06294 1.25 12 1.25C17.9371 1.25 22.75 6.06294 22.75 12C22.75 17.9371 17.9371 22.75 12 22.75C6.06294 22.75 1.25 17.9371 1.25 12Z" fill="currentColor"/>
<path class="pr-icon-bulk-primary" d="M15.7078 8.33055C16.6507 9.26482 15.1422 16.8628 13.5942 16.9967C12.2957 17.109 11.891 14.5478 11.6175 13.7361C11.3476 12.9349 11.0472 12.6465 10.2527 12.3836C8.23415 11.7159 7.22489 11.382 7.02507 10.8533C6.49595 9.45337 14.5036 7.13731 15.7078 8.33055Z" fill="currentColor"/>
</svg>
