<svg width="24" height="24" viewBox="0 0 24 24" xmlns="http://www.w3.org/2000/svg">
<path class="pr-icon-bulk-secondary" d="M11.2367 1.39651C11.7272 1.20116 12.2728 1.20116 12.7633 1.39651C13.0719 1.51947 13.3098 1.72566 13.5171 1.94349C13.7156 2.15216 13.9555 2.4509 14.2112 2.76948C14.389 2.9948 14.917 3.40133 15.6066 3.22484C15.995 3.1197 16.3588 3.02119 16.6373 2.96993C16.9274 2.91656 17.2363 2.88902 17.5533 2.96797C18.0854 3.10049 18.5418 3.43892 18.8265 3.90651C18.9948 4.18282 19.0634 4.48235 19.1023 4.77511C19.1397 5.05585 19.1589 5.43127 19.1795 5.83329L19.1795 5.83345C19.1929 6.12396 19.3845 6.77108 20.043 7.03554C20.4145 7.17872 20.7624 7.31281 21.0151 7.43473C21.2788 7.56188 21.5409 7.7198 21.7497 7.9657C22.1123 8.39279 22.2889 8.94766 22.2428 9.50548C22.2164 9.82498 22.0978 10.1052 21.9592 10.3632C21.8265 10.6103 21.6245 10.9228 21.4085 11.257L21.4084 11.2571C21.2248 11.5365 20.9678 12.2247 21.4084 12.7429L21.4085 12.7429C21.6245 13.0772 21.8265 13.3897 21.9592 13.6368C22.0978 13.8948 22.2164 14.175 22.2428 14.4945C22.2889 15.0523 22.1123 15.6072 21.7497 16.0343C21.5409 16.2802 21.2788 16.4381 21.0151 16.5653C20.7624 16.6872 20.4419 16.8107 20.0705 16.9539C19.7448 17.0053 19.1106 17.3199 19.1795 18.1665L19.1795 18.1667C19.1589 18.5687 19.1397 18.9442 19.1023 19.2249C19.0634 19.5177 18.9948 19.8172 18.8265 20.0935C18.5418 20.5611 18.0854 20.8995 17.5533 21.032C17.2363 21.111 16.9274 21.0834 16.6373 21.0301C16.3588 20.9788 16.0238 20.8881 15.6355 20.783L15.6354 20.783C15.3486 20.6727 14.6584 20.6125 14.1922 21.2543C13.9364 21.5728 13.7156 21.8478 13.5171 22.0565C13.3098 22.2743 13.072 22.4805 12.7633 22.6035C12.2728 22.7988 11.7272 22.7988 11.2367 22.6035C10.928 22.4805 10.6902 22.2743 10.4829 22.0565C10.2844 21.8478 10.0445 21.5491 9.78876 21.2305C9.32037 20.6644 8.66336 20.6911 8.39341 20.7752L8.39337 20.7752C8.00503 20.8803 7.64118 20.9788 7.36266 21.0301C7.07262 21.0834 6.76369 21.111 6.44667 21.032C5.91456 20.8995 5.45819 20.5611 5.17347 20.0935C5.00521 19.8172 4.9366 19.5177 4.89766 19.2249C4.86031 18.9441 4.8411 18.5686 4.82052 18.1665C4.76944 17.4082 4.22357 17.0492 3.95701 16.9645C3.58555 16.8213 3.23764 16.6872 2.98486 16.5653C2.72123 16.4381 2.45907 16.2802 2.2503 16.0343C1.88771 15.6072 1.71109 15.0523 1.7572 14.4945C1.78361 14.175 1.90216 13.8948 2.04077 13.6368C2.17355 13.3897 2.37552 13.0772 2.59157 12.7429C3.00356 12.0799 2.76323 11.4761 2.59157 11.2571L2.59155 11.2571C2.37551 10.9228 2.17355 10.6103 2.04077 10.3632C1.90216 10.1052 1.78361 9.82498 1.7572 9.50548C1.71109 8.94766 1.88771 8.39279 2.2503 7.9657C2.45907 7.7198 2.72123 7.56188 2.98486 7.43473C3.23764 7.31281 3.58553 7.17872 3.95699 7.03555L3.95701 7.03554C4.73473 6.80442 4.85674 6.13785 4.82052 5.83345C4.8411 5.43137 4.86031 5.05588 4.89766 4.77511C4.9366 4.48235 5.00521 4.18282 5.17347 3.90651C5.45819 3.43892 5.91456 3.10049 6.44667 2.96797C6.76369 2.88902 7.07262 2.91656 7.36266 2.96993C7.64119 3.02119 8.00505 3.1197 8.39341 3.22484C9.15741 3.41705 9.64198 3.00135 9.78876 2.76948C10.0445 2.45089 10.2844 2.15217 10.4829 1.94349C10.6902 1.72566 10.928 1.51947 11.2367 1.39651Z" fill="currentColor"/>
<path d="M16.9475 9.68066C17.1241 10.204 16.8429 10.7713 16.3196 10.9478C15.8696 11.0996 15.343 11.4291 14.7784 11.9006C14.2234 12.3641 13.682 12.9223 13.2008 13.4717C12.7214 14.0189 11.9214 15.0465 11.5819 15.5552C11.3861 15.8486 11.0499 16.0174 10.6976 15.9989C10.3452 15.9804 10.0286 15.7776 9.8646 15.4651C9.49129 14.754 9.125 14.3828 8.90025 14.3287C8.3948 14.2786 8 13.8522 8 13.3336C8 12.7813 8.44772 12.3336 9 12.3336C9.42188 12.3336 9.83248 12.5387 10.0829 12.6977C10.3061 12.8395 10.5377 13.0287 10.7701 13.2786C11.0323 12.9408 11.3459 12.5539 11.6963 12.1539C12.2188 11.5574 12.8354 10.9177 13.4964 10.3656C14.1478 9.82147 14.8951 9.31759 15.6804 9.05272C16.2037 8.87621 16.771 9.15734 16.9475 9.68066Z" fill="currentColor"/>
</svg>
