<svg width="24" height="24" viewBox="0 0 24 24" xmlns="http://www.w3.org/2000/svg">
<path fill-rule="evenodd" clip-rule="evenodd" d="M6.42476 5.96656C6.58145 6.49615 6.27914 7.05249 5.74955 7.20917C4.16184 7.67891 3.67122 7.99964 3.43 8.4151C3.27585 8.68059 3.19912 9.0304 3.28691 9.72268C3.37843 10.4444 3.62427 11.3754 3.9895 12.7462L5.00185 16.5459C5.36709 17.9168 5.61705 18.8466 5.89654 19.5175C6.16472 20.1613 6.40448 20.424 6.66771 20.5751C6.93178 20.7267 7.28263 20.8022 7.97972 20.7109C8.70497 20.616 9.64091 20.366 11.0171 19.9951L11.4898 19.8678C12.0231 19.7241 12.5719 20.0399 12.7155 20.5731C12.8592 21.1064 12.5434 21.6552 12.0102 21.7989L11.4697 21.9445C10.1785 22.2925 9.11292 22.5796 8.23931 22.694C7.32231 22.814 6.46842 22.7668 5.67196 22.3096C4.87467 21.8519 4.40521 21.1385 4.05034 20.2866C3.71275 19.4763 3.42985 18.4143 3.08748 17.1292L2.03873 13.1929C1.69626 11.9076 1.41331 10.8457 1.3028 9.97429C1.18661 9.05805 1.23879 8.20589 1.7004 7.41087C2.38641 6.22933 3.65434 5.74336 5.18215 5.29135C5.71174 5.13467 6.26808 5.43697 6.42476 5.96656Z" fill="currentColor"/>
<path class="pr-icon-bulk-secondary" d="M17.2694 2.32287C18.5745 2.67059 19.6271 2.95101 20.4253 3.28231C21.2538 3.62623 21.9135 4.06567 22.3361 4.79352C22.7591 5.52199 22.8122 6.31139 22.6973 7.19861C22.5866 8.05231 22.3044 9.09953 21.9548 10.3967L20.9031 14.2997C20.5535 15.597 20.2714 16.6442 19.9379 17.4385C19.5914 18.2641 19.1488 18.92 18.4179 19.3396C17.6877 19.7589 16.8967 19.8117 16.0061 19.6976C15.1484 19.5877 14.0959 19.3073 12.7907 18.9595L11.7306 18.677C10.4255 18.3293 9.3729 18.0489 8.57474 17.7176C7.74618 17.3737 7.08651 16.9342 6.66391 16.2064C6.24094 15.4779 6.18777 14.6885 6.30275 13.8013C6.41338 12.9476 6.69559 11.9004 7.04517 10.6032L7.04517 10.6032L8.09691 6.70016C8.44647 5.40287 8.72864 4.35566 9.06207 3.5614C9.40864 2.73583 9.85117 2.07986 10.5821 1.66025C11.3124 1.241 12.1033 1.18818 12.9939 1.30229C13.8516 1.4122 14.9041 1.69265 16.2094 2.04043L17.2694 2.32287Z" fill="currentColor"/>
<path fill-rule="evenodd" clip-rule="evenodd" d="M12.1561 6.82272C12.2627 6.42247 12.6736 6.18445 13.0739 6.29109L17.8468 7.56278C18.247 7.66942 18.4851 8.08034 18.3784 8.48059C18.2718 8.88084 17.8609 9.11885 17.4606 9.01221L12.6877 7.74053C12.2874 7.63389 12.0494 7.22297 12.1561 6.82272ZM11.133 10.6195C11.2396 10.2193 11.6505 9.98125 12.0508 10.0879L14.4372 10.7237C14.8375 10.8304 15.0755 11.2413 14.9688 11.6415C14.8622 12.0418 14.4513 12.2798 14.051 12.1732L11.6646 11.5373C11.2643 11.4307 11.0263 11.0198 11.133 10.6195Z" fill="currentColor"/>
</svg>
