<svg width="24" height="24" viewBox="0 0 24 24" xmlns="http://www.w3.org/2000/svg">
<path fill-rule="evenodd" clip-rule="evenodd" d="M6 1.125C6.55228 1.125 7 1.57272 7 2.125V4.125C7 4.67728 6.55228 5.125 6 5.125C5.44772 5.125 5 4.67728 5 4.125V2.125C5 1.57272 5.44772 1.125 6 1.125ZM11 1.125C11.5523 1.125 12 1.57272 12 2.125V4.125C12 4.67728 11.5523 5.125 11 5.125C10.4477 5.125 10 4.67728 10 4.125V2.125C10 1.57272 10.4477 1.125 11 1.125ZM16 1.125C16.5523 1.125 17 1.57272 17 2.125V4.125C17 4.67728 16.5523 5.125 16 5.125C15.4477 5.125 15 4.67728 15 4.125V2.125C15 1.57272 15.4477 1.125 16 1.125Z" fill="currentColor"/>
<path class="pr-icon-bulk-secondary" d="M9.44426 2.375H12.5558C14.1583 2.37498 15.4373 2.37497 16.4404 2.50983C17.4767 2.64915 18.3301 2.94466 19.0052 3.6198C19.6803 4.29494 19.9758 5.14835 20.1152 6.18461C20.25 7.1877 20.25 8.46666 20.25 10.0693V11.4718C20.25 11.6649 20.25 11.7614 20.1497 11.8509C20.0495 11.9404 19.9297 11.9267 19.6902 11.8994C18.9002 11.8092 18.0881 11.9694 17.3767 12.3802C16.9379 12.6335 16.5768 12.9968 16.341 13.2339L12.9295 16.6457C12.1944 17.3808 11.8859 18.2375 11.7251 18.8673C11.6482 19.1685 11.5952 19.4601 11.5554 19.6895C11.5176 19.869 11.4542 20.1907 11.3973 20.5014C11.3452 20.7858 11.272 21.1997 11.257 21.435C11.2433 21.6508 11.2408 21.9906 11.3355 22.3731C11.3797 22.552 11.4018 22.6414 11.3138 22.7559C11.2257 22.8705 11.1667 22.8716 11.0486 22.8737C10.9727 22.875 10.8861 22.875 10.7878 22.875H9.44426C7.84167 22.875 6.5627 22.875 5.55962 22.7402C4.52335 22.6008 3.66994 22.3053 2.9948 21.6302C2.31966 20.9551 2.02415 20.1017 1.88483 19.0654C1.74997 18.0623 1.74998 16.7833 1.75 15.1808V10.0692C1.74998 8.46666 1.74997 7.18769 1.88483 6.18462C2.02415 5.14835 2.31966 4.29494 2.9948 3.6198C3.66994 2.94466 4.52335 2.64915 5.55962 2.50983C6.5627 2.37497 7.84168 2.37498 9.44426 2.375Z" fill="currentColor"/>
<path fill-rule="evenodd" clip-rule="evenodd" d="M6.25 10.125C6.25 9.71079 6.58579 9.375 7 9.375H15C15.4142 9.375 15.75 9.71079 15.75 10.125C15.75 10.5392 15.4142 10.875 15 10.875H7C6.58579 10.875 6.25 10.5392 6.25 10.125ZM6.25 15.125C6.25 14.7108 6.58579 14.375 7 14.375H11C11.4142 14.375 11.75 14.7108 11.75 15.125C11.75 15.5392 11.4142 15.875 11 15.875H7C6.58579 15.875 6.25 15.5392 6.25 15.125Z" fill="currentColor"/>
<path d="M18.1269 13.6792C18.8294 13.2736 19.695 13.2736 20.3976 13.6792C20.6592 13.8303 20.9533 14.1249 21.2264 14.3985C21.5001 14.6717 21.7947 14.9657 21.9457 15.2273C22.3513 15.9299 22.3513 16.7955 21.9457 17.4981C21.7947 17.7597 21.5599 17.994 21.2862 18.2671L17.9784 21.5749C17.513 22.0402 16.8913 22.3174 16.3865 22.4463C16.1345 22.5106 15.8813 22.5565 15.6516 22.5962C15.3456 22.6617 14.348 22.8547 14.0947 22.8708C13.8157 22.8886 13.4113 22.8612 13.0875 22.5374C12.7637 22.2137 12.7364 21.8092 12.7541 21.5302C12.7702 21.277 12.9632 20.2793 13.0288 19.9733C13.0684 19.7436 13.1143 19.4904 13.1786 19.2384C13.3075 18.7336 13.525 18.1717 13.9903 17.7064L17.3579 14.3387C17.631 14.065 17.8653 13.8303 18.1269 13.6792Z" fill="currentColor"/>
</svg>
