<svg width="24" height="24" viewBox="0 0 24 24" xmlns="http://www.w3.org/2000/svg">
<path d="M13.9998 12.75V22.75C14.3485 22.75 14.6702 22.6236 14.9801 22.5018L19.7704 20.6323L19.7704 20.6323C20.2449 20.4472 20.6732 20.2801 20.9774 20.1103C21.2556 19.955 21.7498 19.6264 21.7498 19V9.02148C21.7387 9.63397 21.2526 9.95683 20.9776 10.1103C20.6734 10.2801 20.2451 10.4472 19.7706 10.6323L14.9803 12.5018C14.6704 12.6236 14.3485 12.75 13.9998 12.75Z" fill="currentColor"/>
<path class="pr-icon-bulk-secondary" d="M14 5.25C13.6513 5.25 13.3296 5.37644 13.0197 5.49825L8.22943 7.36771C7.75493 7.55282 7.32665 7.71989 7.02238 7.88972C6.74424 8.04497 6.25 8.37357 6.25 9V19C6.25 19.6264 6.74424 19.955 7.02238 20.1103C7.32664 20.2801 7.75489 20.4472 8.22938 20.6323L13.0197 22.5018C13.3296 22.6236 13.6513 22.75 14 22.75V12.75C14.3487 12.75 14.6704 12.6236 14.9803 12.5017L19.7706 10.6323C20.2451 10.4472 20.6734 10.2801 20.9776 10.1103C21.2558 9.95503 21.75 9.62643 21.75 9C21.75 8.37357 21.2558 8.04497 20.9776 7.88972C20.6734 7.71989 20.2451 7.55281 19.7706 7.36771L14.9803 5.49825C14.6704 5.37644 14.3487 5.25 14 5.25Z" fill="currentColor"/>
<path d="M11.25 10.9981V13.0001C11.25 13.4143 10.9142 13.7501 10.5 13.7501C10.0858 13.7501 9.75 13.4143 9.75 13.0001V10.5001C9.75 10.1984 9.93085 9.92599 10.209 9.80889L17.8171 6.60547L19.7706 7.36783L19.8232 7.38835L11.25 10.9981Z" fill="currentColor"/>
<path fill-rule="evenodd" clip-rule="evenodd" d="M7 1.25C7.41421 1.25 7.75 1.58579 7.75 2V2.25H20.25V2C20.25 1.58579 20.5858 1.25 21 1.25C21.4142 1.25 21.75 1.58579 21.75 2V4C21.75 4.41421 21.4142 4.75 21 4.75C20.5858 4.75 20.25 4.41421 20.25 4V3.75H7.75V4C7.75 4.41421 7.41421 4.75 7 4.75C6.58579 4.75 6.25 4.41421 6.25 4V2C6.25 1.58579 6.58579 1.25 7 1.25Z" fill="currentColor"/>
<path fill-rule="evenodd" clip-rule="evenodd" d="M2.25 7C2.25 6.58579 2.58579 6.25 3 6.25L5 6.25C5.41421 6.25 5.75 6.58579 5.75 7C5.75 7.41421 5.41421 7.75 5 7.75H4.75L4.75 20.25H5C5.41421 20.25 5.75 20.5858 5.75 21C5.75 21.4142 5.41421 21.75 5 21.75H3C2.58579 21.75 2.25 21.4142 2.25 21C2.25 20.5858 2.58579 20.25 3 20.25H3.25L3.25 7.75H3C2.58579 7.75 2.25 7.41421 2.25 7Z" fill="currentColor"/>
</svg>
