<svg width="24" height="24" viewBox="0 0 24 24" xmlns="http://www.w3.org/2000/svg">
<path d="M22.6768 15.3749C22.884 15.8869 22.637 16.4699 22.1251 16.6771C21.6911 16.8527 21.167 17.2427 20.5952 17.8158C20.0362 18.3761 19.4907 19.0509 19.0061 19.7147C18.5235 20.3758 18.1134 21.0095 17.8236 21.4788C17.679 21.7128 17.4519 22.1022 17.3748 22.2344L17.3739 22.236C17.1892 22.5681 16.8321 22.767 16.4524 22.749C16.0727 22.731 15.7361 22.4992 15.5837 22.151C15.1931 21.2581 14.8469 20.9146 14.6907 20.7956C14.6518 20.7659 14.623 20.7489 14.6058 20.7398C14.1218 20.67 13.7499 20.2535 13.7499 19.7501C13.7499 19.1979 14.1976 18.7501 14.7499 18.7501C14.9569 18.7501 15.1091 18.7976 15.2107 18.8308C15.4155 18.8977 15.6518 19.0135 15.9028 19.2047C16.1037 19.3578 16.3092 19.5553 16.5146 19.8085C16.7659 19.4223 17.062 18.9859 17.3907 18.5356C17.9098 17.8244 18.5224 17.0617 19.1794 16.4032C19.8236 15.7576 20.5734 15.1475 21.3747 14.8232C21.8866 14.616 22.4696 14.863 22.6768 15.3749Z" fill="currentColor"/>
<path class="pr-icon-bulk-secondary" fill-rule="evenodd" clip-rule="evenodd" d="M13.6987 22.0187C12.8429 21.6217 12.2498 20.756 12.2498 19.7501C12.2498 18.3694 13.369 17.2501 14.7498 17.2501C15.1978 17.2501 15.5312 17.3576 15.6762 17.4049C15.8475 17.4608 16.0226 17.5331 16.1992 17.6236C16.7403 16.8842 17.3959 16.0669 18.1174 15.3438C18.8027 14.6569 19.6999 13.8984 20.7498 13.4583V6.50015C20.7498 5.70435 20.1845 5.21581 19.7344 4.91814C19.2848 4.62084 18.6458 4.3182 17.9211 3.97495L14.8089 2.50051C13.2442 1.75835 12.1722 1.24985 10.9998 1.24985C9.82729 1.24985 8.75527 1.75835 7.19063 2.50051L4.07854 3.9749C3.35378 4.31817 2.71475 4.62083 2.26516 4.91814C1.81503 5.21581 1.24976 5.70435 1.24976 6.50015V17.1614C1.24976 18.2819 2.0671 19.027 3.07308 19.6306C4.09147 20.2417 5.80078 20.9638 7.69388 21.7635C9.11293 22.3634 10.0277 22.7502 10.9998 22.7502C11.8259 22.7502 12.6106 22.4708 13.6987 22.0187ZM10.9998 3.15897C10.3301 3.15897 9.68453 3.44005 7.84228 4.31279L4.99411 5.66208C4.18342 6.04613 3.67552 6.28944 3.35718 6.49987C3.67552 6.7103 4.18342 6.95362 4.99411 7.33767L8.28503 8.89601C9.79397 9.60526 10.3868 9.84078 10.9998 9.84078C11.6695 9.84078 12.3151 9.5597 14.1574 8.68696L17.0055 7.33767C17.8162 6.95362 18.3241 6.7103 18.6425 6.49987C18.3241 6.28944 17.8162 6.04613 17.0055 5.66208L13.7146 4.10374C12.2057 3.39449 11.6129 3.15897 10.9998 3.15897Z" fill="currentColor"/>
<path fill-rule="evenodd" clip-rule="evenodd" d="M4.32922 11.6648C4.51446 11.2943 4.96497 11.1441 5.33545 11.3293L7.33545 12.3293C7.70594 12.5146 7.8561 12.9651 7.67086 13.3356C7.48562 13.7061 7.03512 13.8562 6.66463 13.671L4.66463 12.671C4.29415 12.4857 4.14398 12.0352 4.32922 11.6648Z" fill="currentColor"/>
<path d="M6.06824 7.84835L13.7144 4.10547L15.931 5.15485L8.28482 8.89774L6.06824 7.84835Z" fill="currentColor"/>
</svg>
