<svg width="24" height="24" viewBox="0 0 24 24" xmlns="http://www.w3.org/2000/svg">
<path class="pr-icon-bulk-secondary" d="M1.75 12C1.75 6.33908 6.33908 1.75 12 1.75C17.6609 1.75 22.25 6.33908 22.25 12C22.25 17.6609 17.6609 22.25 12 22.25C6.33908 22.25 1.75 17.6609 1.75 12Z" fill="currentColor"/>
<path class="pr-icon-bulk-primary" fill-rule="evenodd" clip-rule="evenodd" d="M6.96398 2.03602C5.91595 0.987993 4.21676 0.987992 3.16873 2.03602L2.03602 3.16873C0.987991 4.21676 0.987994 5.91595 2.03602 6.96398L2.60237 7.53033C2.6406 7.56856 2.68193 7.60179 2.72554 7.63004C2.9457 7.16362 3.2 6.71649 3.48523 6.29186L3.09668 5.90332C2.63444 5.44107 2.63444 4.69163 3.09668 4.22939L4.22939 3.09668C4.69163 2.63444 5.44107 2.63444 5.90332 3.09668L6.29186 3.48522C6.71649 3.2 7.16362 2.9457 7.63004 2.72554C7.60179 2.68193 7.56856 2.6406 7.53033 2.60237L6.96398 2.03602ZM20.5148 17.7081C20.8 17.2835 21.0543 16.8364 21.2745 16.37C21.3181 16.3982 21.3594 16.4314 21.3976 16.4697L21.964 17.036C23.012 18.0841 23.012 19.7832 21.964 20.8313L20.8313 21.964C19.7832 23.012 18.0841 23.012 17.036 21.964L16.4697 21.3976C16.4314 21.3594 16.3982 21.3181 16.37 21.2745C16.8364 21.0543 17.2835 20.8 17.7081 20.5148L18.0967 20.9033C18.5589 21.3656 19.3084 21.3656 19.7706 20.9033L20.9033 19.7706C21.3656 19.3084 21.3656 18.5589 20.9033 18.0967L20.5148 17.7081ZM12.5028 13.2953C12.0391 13.4796 11.488 13.6375 10.8529 13.7646C10.4467 13.8458 10.1833 14.2409 10.2645 14.6471C10.3457 15.0533 10.7409 15.3167 11.147 15.2354C11.95 15.0749 12.6757 14.8611 13.3007 14.5875C14.7008 13.9745 15.7499 12.9743 15.7499 11.5C15.7499 10.5756 15.4357 9.72842 14.7438 9.12307C14.0651 8.52918 13.1167 8.25 11.9999 8.25C11.0524 8.25 10.1919 8.54344 9.58959 8.81722C9.28405 8.95611 9.03368 9.09511 8.85782 9.20063C8.77412 9.25085 8.6299 9.34613 8.57305 9.3837L8.57302 9.38371L8.56473 9.38919C8.2968 9.58057 8.18431 9.92481 8.28843 10.2372C8.57262 11.0897 9.71911 12.2328 11.9494 12.2498C12.0869 12.2697 12.2402 12.3093 12.3774 12.369C12.5313 12.4359 12.6248 12.5102 12.672 12.5705C12.706 12.6139 12.7295 12.6629 12.7204 12.7612C12.7111 12.8611 12.6637 13.0358 12.5028 13.2953ZM11.6133 10.7345C10.8716 10.6754 10.3986 10.4501 10.1094 10.229C10.142 10.2134 10.1755 10.1978 10.21 10.1821C10.5982 10.0057 11.0727 9.84117 11.5724 9.77734C11.7485 10.1983 11.6982 10.5264 11.6133 10.7345ZM13.0892 11.0453C13.185 10.7154 13.2241 10.3342 13.1621 9.91926C13.4144 10.0072 13.6091 10.123 13.7558 10.2513C14.0639 10.5209 14.2496 10.9237 14.2496 11.4994C14.2496 11.6994 14.2068 11.8987 14.108 12.094C14.0452 11.9302 13.9584 11.7799 13.8525 11.6448C13.6417 11.3756 13.3696 11.1824 13.0892 11.0453ZM14.75 6C14.75 5.58579 14.4142 5.25 14 5.25C13.5858 5.25 13.25 5.58579 13.25 6V6.01C13.25 6.42421 13.5858 6.76 14 6.76C14.4142 6.76 14.75 6.42421 14.75 6.01V6ZM18 12.7402C18.4142 12.7402 18.75 13.076 18.75 13.4902V13.5002C18.75 13.9144 18.4142 14.2502 18 14.2502C17.5858 14.2502 17.25 13.9144 17.25 13.5002V13.4902C17.25 13.076 17.5858 12.7402 18 12.7402ZM17.25 16.4902C17.25 16.076 16.9142 15.7402 16.5 15.7402C16.0858 15.7402 15.75 16.076 15.75 16.4902V16.5002C15.75 16.9144 16.0858 17.2502 16.5 17.2502C16.9142 17.2502 17.25 16.9144 17.25 16.5002V16.4902ZM8 16.25C8.41421 16.25 8.75 16.5858 8.75 17V17.01C8.75 17.4242 8.41421 17.76 8 17.76C7.58579 17.76 7.25 17.4242 7.25 17.01V17C7.25 16.5858 7.58579 16.25 8 16.25ZM6.75 9C6.75 8.58579 6.41421 8.25 6 8.25C5.58579 8.25 5.25 8.58579 5.25 9V9.01C5.25 9.42421 5.58579 9.76 6 9.76C6.41421 9.76 6.75 9.42421 6.75 9.01V9ZM13.5161 17.4185C13.8361 17.1578 14.307 17.2047 14.5693 17.5239C14.8322 17.844 14.7859 18.3166 14.4659 18.5795L14.451 18.59C14.3445 18.665 14.07 18.8584 13.9165 18.9433C13.6043 19.1161 13.1341 19.3254 12.5983 19.3698C12.0625 19.4143 11.5643 19.2855 11.2278 19.1665C11.0623 19.108 10.7595 18.9625 10.6424 18.9062L10.6263 18.8985C10.2673 18.6919 10.1434 18.2332 10.35 17.8742C10.556 17.5161 11.0127 17.3922 11.3713 17.5966C11.4356 17.6274 11.6143 17.7122 11.7279 17.7523C11.966 17.8365 12.2359 17.8948 12.4742 17.875C12.7126 17.8552 13.0254 17.7523 13.5161 17.4185ZM9.76796 6.80591C9.9751 6.68632 10.244 6.62387 10.4953 6.59842C10.6151 6.5863 10.813 6.5867 10.8842 6.58718C11.2958 6.619 11.656 6.31213 11.6895 5.90035C11.7232 5.4875 11.4154 5.12523 11.0026 5.09157C10.812 5.07534 10.5276 5.08749 10.3442 5.10605C9.98918 5.142 9.4836 5.23804 9.01796 5.50687C8.55233 5.77571 8.21637 6.16553 8.00771 6.45504C7.89996 6.60455 7.74154 6.85908 7.66608 7.01842C7.48881 7.39279 7.64858 7.83997 8.02294 8.01725C8.39603 8.19392 8.84186 8.03499 9.02036 7.66336C9.05565 7.60128 9.15425 7.42969 9.2246 7.33208C9.37227 7.12719 9.56082 6.9255 9.76796 6.80591ZM15.7879 8.06927C15.8878 7.66729 16.2947 7.42241 16.6967 7.52232L16.714 7.52801C16.8378 7.56873 17.1566 7.6736 17.3164 7.74606C17.6414 7.89348 18.0898 8.14591 18.4453 8.54933C18.8007 8.95276 18.9946 9.42944 19.0999 9.77042C19.1543 9.9465 19.2202 10.213 19.2437 10.413C19.2922 10.8244 18.9981 11.1975 18.5867 11.246C18.1764 11.2944 17.8045 11.0018 17.7545 10.5921C17.7409 10.5221 17.7022 10.3281 17.6667 10.213C17.5922 9.97173 17.4779 9.7204 17.3198 9.54093C17.1616 9.36147 16.9267 9.21642 16.6967 9.11208C16.5871 9.06234 16.4004 8.99979 16.3327 8.9775C15.9325 8.87628 15.6882 8.47022 15.7879 8.06927ZM7.16589 12.0757C7.11034 11.6667 6.74154 11.4223 6.33193 11.4762C5.92125 11.5302 5.63214 11.9069 5.68618 12.3176L5.6864 12.3192C5.68743 12.3241 5.68855 12.3295 5.68976 12.3354C5.71602 12.4616 5.7845 12.791 5.83876 12.9586C5.94867 13.2981 6.14902 13.7721 6.50989 14.1707C6.87075 14.5692 7.32259 14.8156 7.64954 14.9586C7.81039 15.0289 8.13079 15.1295 8.25486 15.1685L8.27187 15.1738C8.67517 15.2683 9.07905 15.018 9.17351 14.6147C9.26773 14.2124 9.01889 13.81 8.61741 13.7142C8.54942 13.6928 8.36097 13.6325 8.25064 13.5843C8.01925 13.4831 7.78238 13.3412 7.62185 13.1639C7.46132 12.9866 7.34363 12.7368 7.26584 12.4966C7.22875 12.382 7.17294 12.1185 7.16589 12.0757Z" fill="currentColor"/>
</svg>
