<svg width="24" height="24" viewBox="0 0 24 24" xmlns="http://www.w3.org/2000/svg">
    <path class="pr-icon-bulk-primary" fill-rule="evenodd" clip-rule="evenodd" d="M8.25262 1.53499C8.63338 1.15428 9.24989 1.15511 9.62962 1.53686L19.4657 11.425C19.8447 11.806 19.8447 12.4227 19.4657 12.8037L13.5213 18.7796C12.6896 19.6158 12.0042 20.3048 11.3911 20.7895C10.7502 21.2961 10.0896 21.6619 9.29251 21.7341C9.0581 21.7553 8.82227 21.7553 8.58787 21.7341C7.79081 21.6619 7.13017 21.2961 6.48927 20.7895C5.87613 20.3048 5.19074 19.6157 4.35899 18.7795L2.3491 16.759C0.883631 15.2857 0.883635 12.8983 2.3491 11.425L9.53227 4.20383L8.25076 2.91553C7.87103 2.53378 7.87186 1.91569 8.25262 1.53499ZM10.9074 5.58624L3.72796 12.8037C3.0205 13.5149 3.0205 14.6691 3.72796 15.3803L5.69518 17.3579C6.58035 18.2478 7.18417 18.8525 7.69502 19.2563C8.18857 19.6465 8.49469 19.7653 8.76304 19.7896C8.8809 19.8003 8.99947 19.8003 9.11733 19.7896C9.38568 19.7653 9.6918 19.6465 10.1854 19.2563C10.6962 18.8525 11.3 18.2478 12.1852 17.358L17.4011 12.1144L10.9074 5.58624Z" />
    <path class="pr-icon-bulk-secondary" d="M3.72786 12.8027C3.0204 13.5139 3.0204 14.6681 3.72786 15.3793L5.69508 17.357C6.58025 18.2468 7.18407 18.8515 7.69493 19.2554C8.18847 19.6455 8.49459 19.7643 8.76294 19.7886C8.8808 19.7993 8.99937 19.7993 9.11723 19.7886C9.38558 19.7643 9.6917 19.6455 10.1853 19.2554C10.6961 18.8515 11.2999 18.2468 12.1851 17.357L17.401 12.1134L16.4295 11.1367H5.3851L3.72786 12.8027Z" />
    <path class="pr-icon-bulk-secondary" d="M19.4841 16.4556C19.7734 16.1815 20.2266 16.1815 20.5159 16.4556L20.5236 16.4637C20.728 16.6762 21.3177 17.2893 21.5808 17.6112C21.8449 17.9345 22.1242 18.3122 22.341 18.6973C22.5466 19.0623 22.75 19.5266 22.75 20C22.75 21.5188 21.5188 22.75 20 22.75C18.4812 22.75 17.25 21.5188 17.25 20C17.25 19.5266 17.4534 19.0623 17.659 18.6973C17.8758 18.3122 18.1551 17.9345 18.4192 17.6112C18.6823 17.2893 19.272 16.6762 19.4764 16.4637L19.4841 16.4556Z" />
</svg>
