<svg width="24" height="24" viewBox="0 0 24 24" xmlns="http://www.w3.org/2000/svg">
<path class="pr-icon-bulk-secondary" d="M14.6742 8.02185C14.9276 8.0536 15.2722 8.14275 15.5648 8.43532C15.8574 8.72789 15.9465 9.07253 15.9783 9.32592C16.0043 9.53333 16.001 9.77363 15.9984 9.97359L15.9978 10.0135C15.9749 11.8101 15.8813 13.2291 15.0212 14.3077C14.8109 14.5713 14.5717 14.8106 14.308 15.0209C13.2295 15.8809 11.8103 15.9749 10.0134 15.9979L9.97352 15.9985C9.77356 16.0012 9.53326 16.0044 9.32584 15.9784C9.07244 15.9467 8.7278 15.8575 8.43522 15.5649C8.14264 15.2724 8.05349 14.9277 8.02172 14.6743C7.99573 14.4669 7.99896 14.2266 8.00165 14.0266L8.00218 13.9868C8.02515 12.19 8.11886 10.7709 8.97899 9.69232C9.18927 9.42863 9.42851 9.1894 9.69219 8.97912C10.7708 8.11899 12.1899 8.02528 13.9866 8.0023L14.0265 8.00178L14.0265 8.00177C14.2265 7.99908 14.4668 7.99585 14.6742 8.02185Z" fill="currentColor"/>
<path class="pr-icon-bulk-secondary" fill-rule="evenodd" clip-rule="evenodd" d="M15.3035 22.75L15.1813 22.75C13.8233 22.75 12.7177 22.75 11.8352 22.6478C10.9183 22.5416 10.1157 22.3137 9.43059 21.7673C9.16691 21.5571 8.92768 21.3178 8.7174 21.0542C8.01807 20.1772 7.83533 19.098 7.77083 17.8179C7.74304 17.2663 8.16766 16.7966 8.71924 16.7688C9.27083 16.741 9.7405 17.1657 9.7683 17.7172C9.82916 18.9252 9.99744 19.4515 10.2811 19.8072C10.398 19.9538 10.531 20.0868 10.6776 20.2037C10.9511 20.4218 11.3328 20.5762 12.0654 20.6611C12.8192 20.7484 13.8085 20.75 15.2424 20.75C16.6762 20.75 17.6655 20.7484 18.4194 20.6611C19.152 20.5762 19.5337 20.4218 19.8072 20.2037C19.9538 20.0868 20.0868 19.9538 20.2037 19.8072C20.4218 19.5337 20.5762 19.152 20.6611 18.4194C20.7484 17.6655 20.75 16.6762 20.75 15.2424C20.75 13.8085 20.7484 12.8192 20.6611 12.0654C20.5762 11.3328 20.4218 10.9511 20.2037 10.6776C20.0868 10.531 19.9538 10.398 19.8072 10.2811C19.4655 10.0086 18.9635 9.84081 17.8417 9.77507C17.2903 9.74275 16.8696 9.26961 16.9019 8.71827C16.9342 8.16694 17.4073 7.74618 17.9587 7.77849C19.1747 7.84976 20.2076 8.04227 21.0542 8.7174C21.3178 8.92768 21.5571 9.16691 21.7673 9.43059C22.3137 10.1157 22.5416 10.9183 22.6478 11.8352C22.75 12.7177 22.75 13.8233 22.75 15.1813L22.75 15.3035C22.75 16.6614 22.75 17.7671 22.6478 18.6495C22.5416 19.5665 22.3137 20.369 21.7673 21.0542C21.5571 21.3178 21.3178 21.5571 21.0542 21.7673C20.369 22.3137 19.5665 22.5416 18.6495 22.6478C17.767 22.75 16.6614 22.75 15.3035 22.75Z" fill="currentColor"/>
<path class="pr-icon-bulk-primary" fill-rule="evenodd" clip-rule="evenodd" d="M6.24726 2.17589C6.28822 2.72665 5.87494 3.20634 5.32417 3.24729C4.5081 3.30798 4.16109 3.44347 3.93247 3.6263C3.81908 3.71698 3.71615 3.82018 3.62563 3.934C3.44328 4.16331 3.30809 4.51119 3.24723 5.32466C3.20602 5.8754 2.72615 6.28847 2.1754 6.24726C1.62466 6.20605 1.2116 5.72618 1.2528 5.17543C1.3233 4.23322 1.50037 3.39321 2.06028 2.68915C2.24394 2.4582 2.45294 2.2486 2.68336 2.06433C3.3887 1.50028 4.23123 1.32305 5.17586 1.2528C5.72662 1.21184 6.20631 1.62512 6.24726 2.17589ZM11.2528 2.17544C11.294 1.62469 11.7739 1.21163 12.3246 1.25283C13.2668 1.32333 14.1069 1.5004 14.8109 2.06031C15.0419 2.24397 15.2515 2.45297 15.4357 2.68339C15.9998 3.38873 16.177 4.23126 16.2473 5.17589L16.25 5.21292V5.75005C16.25 6.30233 15.8023 6.75005 15.25 6.75005C14.6977 6.75005 14.25 6.30233 14.25 5.75005V5.28815C14.188 4.49785 14.0539 4.15773 13.8738 3.9325C13.7831 3.81911 13.6799 3.71618 13.5661 3.62566C13.3368 3.44331 12.9889 3.30812 12.1754 3.24726C11.6247 3.20605 11.2116 2.72618 11.2528 2.17544ZM6.75002 2.25005C6.75002 1.69776 7.19773 1.25005 7.75002 1.25005L9.75002 1.25005C10.3023 1.25005 10.75 1.69776 10.75 2.25005C10.75 2.80233 10.3023 3.25005 9.75002 3.25005L7.75002 3.25005C7.19773 3.25005 6.75002 2.80233 6.75002 2.25005ZM1.25002 7.75005C1.25002 7.19776 1.69773 6.75005 2.25002 6.75005C2.8023 6.75005 3.25002 7.19776 3.25002 7.75005L3.25002 9.75005C3.25002 10.3023 2.8023 10.75 2.25002 10.75C1.69773 10.75 1.25002 10.3023 1.25002 9.75005L1.25002 7.75005ZM1.25277 12.3242C1.21181 11.7734 1.62509 11.2938 2.17586 11.2528C2.72662 11.2118 3.20631 11.6251 3.24726 12.1759C3.30795 12.992 3.44343 13.339 3.62627 13.5676C3.71695 13.681 3.82015 13.7839 3.93397 13.8744C4.15984 14.0541 4.50076 14.1879 5.28835 14.25H5.75002C6.3023 14.25 6.75002 14.6978 6.75002 15.25C6.75002 15.8023 6.3023 16.25 5.75002 16.25H5.21266L5.1754 16.2473C4.23319 16.1768 3.39318 15.9997 2.68912 15.4398C2.45816 15.2561 2.24857 15.0471 2.0643 14.8167C1.50025 14.1114 1.32301 13.2688 1.25277 12.3242Z" fill="currentColor"/>
</svg>
