<svg width="24" height="24" viewBox="0 0 24 24" xmlns="http://www.w3.org/2000/svg">
    <path class="pr-icon-bulk-secondary" d="M17.6963 13.5207C17.8504 13.2971 17.9275 13.1854 17.9176 13.0772C17.9078 12.9691 17.8184 12.8797 17.6397 12.701L11.3001 6.36084C11.1214 6.18208 11.032 6.0927 10.9239 6.08284C10.8157 6.07298 10.704 6.15004 10.4804 6.30416C9.6026 6.90931 8.74755 7.15064 7.8487 7.23856L7.81046 7.2423C7.12161 7.30966 6.55055 7.3655 6.10479 7.45299C5.65131 7.54199 5.20712 7.68375 4.85627 8.00532C4.52067 8.31291 4.3417 8.69556 4.21706 9.10487C4.09983 9.48987 4.01 9.97373 3.90527 10.5379L2.50177 18.0963C2.37762 18.7646 2.26938 19.3472 2.25243 19.8126C2.2344 20.3076 2.31046 20.8455 2.73269 21.2678C3.15492 21.69 3.69283 21.7661 4.18788 21.7481C4.65319 21.7311 5.2358 21.6229 5.90407 21.4987L13.4621 20.0952C14.0262 19.9904 14.51 19.9006 14.895 19.7834C15.3043 19.6588 15.6869 19.4798 15.9945 19.1442C16.316 18.7934 16.4578 18.3492 16.5469 17.8958C16.6344 17.45 16.6903 16.8788 16.7578 16.1899L16.7615 16.1517C16.8496 15.2529 17.091 14.3983 17.6963 13.5207Z" />
    <path class="pr-icon-bulk-primary" d="M18.9947 4.74718C18.2225 3.97492 17.5836 3.33591 17.0124 2.91293C16.4108 2.46741 15.7737 2.17625 15.0173 2.26633C14.0173 2.38542 13.2604 3.04927 12.7141 3.68764C12.5171 3.91777 12.3301 4.16657 12.1565 4.41288C12.0232 4.60202 11.9565 4.6966 11.9659 4.80565C11.9752 4.91471 12.0591 4.99856 12.2268 5.16626L18.833 11.773C19.0007 11.9408 19.0845 12.0246 19.1936 12.034C19.3026 12.0434 19.3972 11.9767 19.5864 11.8433C19.8328 11.6697 20.0817 11.4826 20.312 11.2855C20.9503 10.7392 21.6142 9.98232 21.7333 8.98227C21.8234 8.2259 21.5322 7.58879 21.0867 6.98721C20.6637 6.41607 20.0247 5.77711 19.2525 5.00491L18.9947 4.74718Z" />
    <path class="pr-icon-bulk-primary" d="M15.6497 10.7109L11.4551 6.51594C11.4597 6.52081 11.4644 6.52564 11.4692 6.53041L15.6497 10.7109Z" />
    <path class="pr-icon-bulk-primary" d="M3.68671 21.7255L9.62578 15.7864C10.005 15.9936 10.4154 16.1292 10.8375 16.1977C11.3827 16.2862 11.8964 15.916 11.9849 15.3709C12.0734 14.8257 11.7032 14.3121 11.158 14.2236C10.7852 14.163 10.4714 14.0069 10.2312 13.7667C9.99106 13.5265 9.83488 13.2127 9.77435 12.8399C9.68584 12.2947 9.17217 11.9245 8.62702 12.013C8.08187 12.1015 7.71169 12.6152 7.80019 13.1604C7.86873 13.5825 8.00434 13.993 8.21156 14.3721L2.27347 20.3103C2.32135 20.6495 2.44884 20.9844 2.73182 21.2674C3.01419 21.5498 3.34829 21.6774 3.68671 21.7255Z" />
</svg>
