<svg width="24" height="24" viewBox="0 0 24 24" xmlns="http://www.w3.org/2000/svg">
    <g class="pr-icon-bulk-secondary">
        <path class="pr-icon-bulk-primary"     d="M18.2106 4.25018L20.482 16.0613C20.5863 16.6037 20.2312 17.1279 19.6888 17.2322C19.1465 17.3365 18.6223 16.9814 18.518 16.439L16.174 4.25018H18.2106Z"     />
        <path class="pr-icon-bulk-primary"     d="M12.5 4.25018V16.2502C12.5 16.8025 12.0523 17.2502 11.5 17.2502C10.9477 17.2502 10.5 16.8025 10.5 16.2502V4.25018L12.5 4.25018Z"     />
        <path class="pr-icon-bulk-primary"     d="M7.5 4.25018V16.2502C7.5 16.8025 7.05228 17.2502 6.5 17.2502C5.94772 17.2502 5.5 16.8025 5.5 16.2502V4.25018H7.5Z"     />
    </g>
    <path class="pr-icon-bulk-primary" d="M3.25 18.5C3.25 16.7051 4.70507 15.25 6.5 15.25C8.29493 15.25 9.75 16.7051 9.75 18.5C9.75 20.2949 8.29493 21.75 6.5 21.75C4.70507 21.75 3.25 20.2949 3.25 18.5Z" />
    <path class="pr-icon-bulk-primary" d="M8.25 18.5C8.25 16.7051 9.70507 15.25 11.5 15.25C13.2949 15.25 14.75 16.7051 14.75 18.5C14.75 20.2949 13.2949 21.75 11.5 21.75C9.70507 21.75 8.25 20.2949 8.25 18.5Z" />
    <path class="pr-icon-bulk-primary" d="M16.5 18.5C16.5 16.7051 17.9551 15.25 19.75 15.25C21.5449 15.25 23 16.7051 23 18.5C23 20.2949 21.5449 21.75 19.75 21.75C17.9551 21.75 16.5 20.2949 16.5 18.5Z" />
    <path class="pr-icon-bulk-primary" d="M21 3.25018C21 3.80247 20.5523 4.25019 20 4.25019L2 4.25018C1.44772 4.25018 1 3.80247 1 3.25018C1 2.6979 1.44772 2.25018 2 2.25018L6.49911 2.25019L6.50089 2.25019L11.4987 2.25019L11.5 2.25018L11.5013 2.25019L16.9819 2.25019C16.9947 2.24994 17.0076 2.24994 17.0203 2.25019L20 2.25019C20.5523 2.25019 21 2.6979 21 3.25018Z" />
</svg>
