<svg width="24" height="24" viewBox="0 0 24 24" xmlns="http://www.w3.org/2000/svg">
    <path class="pr-icon-bulk-secondary" d="M1.25 12C1.25 6.06294 6.06294 1.25 12 1.25C17.9371 1.25 22.75 6.06294 22.75 12C22.75 17.9371 17.9371 22.75 12 22.75C6.06294 22.75 1.25 17.9371 1.25 12Z" />
    <path class="pr-icon-bulk-primary" d="M16.7071 7.29289C17.0976 7.68342 17.0976 8.31658 16.7071 8.70711L8.70711 16.7071C8.31658 17.0976 7.68342 17.0976 7.29289 16.7071C6.90237 16.3166 6.90237 15.6834 7.29289 15.2929L15.2929 7.29289C15.6834 6.90237 16.3166 6.90237 16.7071 7.29289Z" />
    <path class="pr-icon-bulk-primary" d="M7.25 9C7.25 8.0335 8.0335 7.25 9 7.25C9.9665 7.25 10.75 8.0335 10.75 9C10.75 9.9665 9.9665 10.75 9 10.75C8.0335 10.75 7.25 9.9665 7.25 9Z" />
    <path class="pr-icon-bulk-primary" d="M13.25 14.8284C13.25 13.8619 14.0335 13.0784 15 13.0784C15.9665 13.0784 16.75 13.8619 16.75 14.8284C16.75 15.7949 15.9665 16.5784 15 16.5784C14.0335 16.5784 13.25 15.7949 13.25 14.8284Z" />
</svg>
