<svg width="24" height="24" viewBox="0 0 24 24" xmlns="http://www.w3.org/2000/svg">
<path class="pr-icon-bulk-secondary" d="M3.25 10.0807C3.25 5.21073 7.16043 1.25 12 1.25C16.8396 1.25 20.75 5.21073 20.75 10.0807C20.75 12.8754 19.6356 15.0556 17.4974 16.9503C16.1569 18.1382 14.543 20.1863 13.4849 21.8054C13.1545 22.311 12.6489 22.75 11.9867 22.75C11.3161 22.75 10.8169 22.3012 10.5025 21.7855C9.51277 20.162 7.85192 18.146 6.50258 16.9503C4.36442 15.0556 3.25 12.8754 3.25 10.0807Z" fill="currentColor"/>
<path class="pr-icon-bulk-primary" d="M12 14C14.2091 14 16 12.2091 16 10C16 7.79086 14.2091 6 12 6C11.888 6 11.832 6 11.7941 6.01632C11.7157 6.05009 11.6707 6.12095 11.6733 6.20625C11.6746 6.24748 11.7048 6.31192 11.7652 6.4408C11.9158 6.76242 12 7.12138 12 7.5C12 8.88071 10.8807 10 9.5 10C9.12138 10 8.76242 9.91583 8.4408 9.76519C8.31192 9.70482 8.24748 9.67463 8.20625 9.67334C8.12095 9.67068 8.05009 9.71574 8.01632 9.79411C8 9.832 8 9.888 8 10C8 12.2091 9.79086 14 12 14Z" fill="currentColor"/>
</svg>
