<svg width="24" height="24" viewBox="0 0 24 24" xmlns="http://www.w3.org/2000/svg">
    <g class="pr-icon-bulk-secondary">
        <path class="pr-icon-bulk-primary"     d="M7.24974 20.842C7.24974 21.2125 6.86156 21.452 6.54249 21.2636C4.83704 20.2567 3.43386 18.7923 2.50183 17.0392C2.40152 16.8505 2.44091 16.6195 2.592 16.4684L6.39619 12.6642C6.71117 12.3492 7.24974 12.5723 7.24974 13.0178L7.24974 20.842Z"     />
        <path class="pr-icon-bulk-primary"     d="M2.3202 14.6189C2.05435 14.8847 1.60392 14.7719 1.52014 14.4054C1.34337 13.6321 1.25 12.8269 1.25 12C1.25 7.88403 3.5632 4.30833 6.96048 2.50202C7.14915 2.4017 7.38017 2.44109 7.53126 2.59218L10.5855 5.64645C10.7808 5.84171 10.7808 6.15829 10.5855 6.35355L2.3202 14.6189Z"     />
        <path class="pr-icon-bulk-primary"     d="M9.3807 2.3203C9.11486 2.05445 9.22764 1.60404 9.59415 1.52024C10.3676 1.3434 11.1729 1.25 12 1.25C13.0044 1.25 13.9767 1.38775 14.8989 1.6454C15.1088 1.70406 15.2497 1.89807 15.2497 2.11605L15.2497 6.98223C15.2497 7.42769 14.7112 7.65077 14.3962 7.33579L9.3807 2.3203Z"     />
    </g>
    <path class="pr-icon-bulk-primary" d="M16.75 3.15932C16.75 2.7888 17.1382 2.54931 17.4573 2.73766C20.6252 4.60778 22.7503 8.05651 22.7503 12.0016C22.7503 13.0061 22.6125 13.9785 22.3548 14.9008C22.2961 15.1107 22.1021 15.2516 21.8841 15.2516H17.25C16.9739 15.2516 16.75 15.0277 16.75 14.7516L16.75 3.15932Z" />
    <path class="pr-icon-bulk-primary" d="M21.264 17.4589C21.4524 17.1398 21.2129 16.7516 20.8424 16.7516H9.25C8.97386 16.7516 8.75 16.9754 8.75 17.2516V21.8854C8.75 22.1034 8.89088 22.2974 9.10081 22.356C10.0232 22.6138 10.9956 22.7516 12.0003 22.7516C15.9452 22.7516 19.3939 20.6266 21.264 17.4589Z" />
</svg>
