<svg width="24" height="24" viewBox="0 0 24 24" xmlns="http://www.w3.org/2000/svg">
<path class="pr-icon-bulk-secondary" d="M14.679 4.18018C15.2347 4.23831 15.7233 4.36171 16.1889 4.6402C16.65 4.91592 17.0048 5.29368 17.3495 5.76508C17.6826 6.22048 18.0565 6.83964 18.4973 7.56968C19.093 8.55607 19.779 9.3026 20.6292 9.91855C21.4844 10.5377 22.1024 10.985 22.4422 11.717C22.6132 12.0853 22.6856 12.4641 22.7196 12.8842C22.7521 13.2855 22.7521 13.8447 22.7521 14.4319C22.7521 15.2016 22.7521 15.8432 22.6935 16.354C22.6323 16.8869 22.4979 17.3861 22.1476 17.8046C21.8948 18.0772 21.5851 18.2418 21.2488 18.3491C21.0239 18.4209 20.9115 18.4568 20.8292 18.396C20.7469 18.3352 20.7485 18.1968 20.7518 17.92C20.752 17.905 20.7521 17.89 20.7521 17.875C20.7521 15.8039 19.0731 14.125 17.0021 14.125C14.931 14.125 13.2521 15.8039 13.2521 17.875C13.2521 17.882 13.2521 17.889 13.2521 17.896C13.2541 18.2641 13.2552 18.4481 13.1672 18.5366C13.0792 18.625 12.9172 18.625 12.5931 18.625L11.4111 18.625C11.087 18.625 10.9249 18.625 10.837 18.5366C10.749 18.4481 10.75 18.2641 10.752 17.896C10.752 17.889 10.7521 17.882 10.7521 17.875C10.7521 15.8039 9.07314 14.125 7.00207 14.125C4.931 14.125 3.25207 15.8039 3.25207 17.875C3.25207 18.1684 3.25207 18.3151 3.16503 18.3747C3.15993 18.3782 3.15468 18.3814 3.14928 18.3844C3.05711 18.4357 2.94441 18.3795 2.71902 18.2669C2.21929 18.0175 1.70604 17.6452 1.46066 17.2343C1.28141 16.9342 1.25207 16.6183 1.25207 16.3398V11.75C1.25207 11.3358 1.58785 11 2.00207 11H10.5134C10.7962 11 10.9377 11 11.0255 10.9121C11.1134 10.8243 11.1134 10.6828 11.1134 10.4V4.875C11.1134 4.70567 11.2258 4.44282 11.3548 4.32381C11.493 4.19623 11.6745 4.125 11.8634 4.125H12.7396C13.5132 4.12499 14.1511 4.12498 14.679 4.18018Z" fill="currentColor"/>
<path class="pr-icon-bulk-primary" d="M22.7519 14.125C22.7521 14.226 22.7521 14.3285 22.7521 14.4319C22.7521 14.8716 22.7521 15.2694 22.7412 15.625H21.7521C21.3379 15.625 21.0021 15.2892 21.0021 14.875C21.0021 14.4608 21.3379 14.125 21.7521 14.125H22.7519Z" fill="currentColor"/>
<path class="pr-icon-bulk-primary" fill-rule="evenodd" clip-rule="evenodd" d="M13.2343 6.02089C13.1918 6.03643 13.1706 6.0442 13.1345 6.1146C13.0983 6.185 13.1133 6.22779 13.1433 6.31336L13.7488 8.03908C14.0488 8.89415 14.2573 9.48604 14.4634 9.92667C14.6656 10.359 14.8318 10.568 15.0014 10.699C15.1572 10.8192 15.3494 10.9004 15.725 10.9474C16.1322 10.9984 16.6641 11 17.481 11H18.2806C18.7922 11 19.048 11 19.1036 10.8794C19.1592 10.7588 18.973 10.5834 18.6007 10.2326C18.0582 9.72146 17.5969 9.14983 17.1586 8.47913C16.6785 7.74446 16.3522 7.24675 16.0617 6.87972C15.7813 6.52533 15.5834 6.35818 15.3945 6.25381C15.212 6.15296 14.9871 6.08237 14.5749 6.04253C14.2554 6.01165 13.8706 6.00263 13.3552 6C13.3125 5.99979 13.2717 6.00722 13.2343 6.02089Z" fill="currentColor"/>
<circle cx="17.002" cy="17.875" r="2.5" fill="currentColor"/>
<circle cx="7.00195" cy="17.875" r="2.5" fill="currentColor"/>
</svg>
