<svg width="24" height="24" viewBox="0 0 24 24" xmlns="http://www.w3.org/2000/svg">
<path d="M7.00001 15.125C5.6193 15.125 4.50001 16.2443 4.50001 17.625C4.50001 19.0057 5.6193 20.125 7.00001 20.125C8.38072 20.125 9.50001 19.0057 9.50001 17.625C9.50001 16.2443 8.38072 15.125 7.00001 15.125Z" fill="currentColor"/>
<path d="M17 15.125C15.6193 15.125 14.5 16.2443 14.5 17.625C14.5 19.0057 15.6193 20.125 17 20.125C18.3807 20.125 19.5 19.0057 19.5 17.625C19.5 16.2443 18.3807 15.125 17 15.125Z" fill="currentColor"/>
<path opacity="0.4" d="M16.3437 4.40729C15.8579 4.11422 15.3526 3.98811 14.7986 3.92966C14.2802 3.87497 13.658 3.87499 12.9254 3.875H12.9254L12.2083 3.87501C11.9542 3.87501 11.7104 3.97686 11.5307 4.15814C11.351 4.33943 11.25 4.5853 11.25 4.84168V10.475C11.25 10.6636 11.25 10.7578 11.1914 10.8164C11.1329 10.875 11.0386 10.875 10.85 10.875H2.00002C1.5858 10.875 1.25002 11.2108 1.25002 11.625V16.0898C1.25002 16.3683 1.27936 16.6842 1.45861 16.9843C1.62771 17.2675 1.8797 17.4462 2.07629 17.5772C2.29068 17.7203 2.50383 17.866 2.72712 17.9949C2.80341 18.039 2.84156 18.061 2.88854 18.0708C3.03353 18.1012 3.18882 18.0115 3.23504 17.8708C3.25002 17.8252 3.25002 17.7585 3.25002 17.625C3.25002 15.5539 4.92895 13.875 7.00002 13.875C9.07108 13.875 10.75 15.5539 10.75 17.625L10.75 17.646V17.646C10.7479 18.0141 10.7469 18.1981 10.8349 18.2866C10.9229 18.375 11.0849 18.375 11.409 18.375L12.591 18.375C12.9151 18.375 13.0772 18.375 13.1651 18.2866C13.2531 18.1981 13.2521 18.0141 13.2501 17.646L13.25 17.625C13.25 15.5539 14.9289 13.875 17 13.875C19.0711 13.875 20.75 15.5539 20.75 17.625C20.75 17.849 20.75 17.961 20.7929 18.0323C20.8401 18.1109 20.9322 18.1685 21.0235 18.1766C21.1064 18.184 21.179 18.1486 21.3242 18.078C21.6144 17.9369 21.8903 17.7396 22.1149 17.4954C22.4939 17.0387 22.6313 16.5016 22.6923 15.9656C22.7501 15.4578 22.75 14.7344 22.75 14.0003V14.0003C22.75 13.4396 22.75 12.9622 22.7181 12.5644C22.6843 12.1425 22.6109 11.7452 22.4308 11.3538C22.0782 10.5878 21.4372 10.1201 20.6421 9.54C19.8572 8.9664 19.195 8.25183 18.6381 7.3216C18.2197 6.62281 17.8519 6.00835 17.5264 5.55943C17.186 5.08993 16.8237 4.69679 16.3437 4.40729Z" fill="currentColor"/>
<path d="M22.7497 13.875H21.75C21.3358 13.875 21 14.2108 21 14.625C21 15.0392 21.3358 15.375 21.75 15.375H22.7334C22.7498 14.9601 22.7497 14.4825 22.7497 14.0003C22.7497 13.9581 22.7497 13.9163 22.7497 13.875Z" fill="currentColor"/>
<path fill-rule="evenodd" clip-rule="evenodd" d="M13.2715 6.12606L13.8335 7.87439C14.1119 8.74067 14.3055 9.34031 14.4968 9.78672C14.6845 10.2247 14.8387 10.4365 14.9961 10.5691C15.1407 10.691 15.3191 10.7732 15.6677 10.8208C16.0457 10.8725 16.5394 10.8741 17.2976 10.8741H18.0398C18.5146 10.8741 18.7521 10.8741 18.8037 10.7519C18.8553 10.6298 18.6825 10.4521 18.3369 10.0967C17.8333 9.57882 17.4052 8.99969 16.9984 8.32021C16.5528 7.57591 16.2499 7.07168 15.9803 6.69985C15.72 6.34081 15.5363 6.17147 15.361 6.06573C15.1916 5.96355 14.9829 5.89205 14.6003 5.85168C14.3038 5.8204 13.9466 5.81126 13.4682 5.8086C13.2858 5.80759 13.2184 5.96082 13.2715 6.12606Z" fill="currentColor"/>
</svg>
