<svg width="24" height="24" viewBox="0 0 24 24" xmlns="http://www.w3.org/2000/svg">
<path class="pr-icon-bulk-secondary" d="M22.2419 9.77941C22.2374 9.41371 22.2352 9.23087 22.1183 9.11543C22.0015 9 21.8169 9 21.4479 9H2.5521C2.18305 9 1.99853 9 1.88167 9.11543C1.76482 9.23087 1.76259 9.41371 1.75811 9.77941C1.74999 10.4438 1.75 11.1635 1.75 11.9427V12.0571C1.74999 14.2478 1.74998 15.9685 1.93059 17.3119C2.11568 18.6885 2.50272 19.7808 3.36091 20.639C4.21911 21.4972 5.31137 21.8842 6.68802 22.0693C8.03144 22.2499 9.7521 22.2499 11.9428 22.2499H12.0572C14.2479 22.2499 15.9686 22.2499 17.312 22.0693C18.6886 21.8842 19.7809 21.4972 20.6391 20.639C21.4973 19.7808 21.8843 18.6885 22.0694 17.3119C22.25 15.9685 22.25 14.2478 22.25 12.0571V11.9427C22.25 11.1636 22.25 10.4438 22.2419 9.77941Z" fill="currentColor"/>
<path d="M8.55563 1.7857C8.87238 1.77393 9.03075 1.76805 9.09142 1.87017C9.15209 1.97229 9.07058 2.10959 8.90754 2.38419L6.45801 6.5099C6.3161 6.74893 6.24514 6.86844 6.13013 6.93391C6.01511 6.99938 5.87612 6.99938 5.59814 6.99938H2.33974C2.12973 6.99938 2.02473 6.99938 1.96489 6.93C1.90506 6.86062 1.92011 6.75928 1.95022 6.5566C2.12518 5.37886 2.4987 4.22315 3.36164 3.36021C4.21984 2.50201 5.31209 2.11497 6.68875 1.92989C7.24433 1.85519 7.86444 1.81139 8.55563 1.7857Z" fill="currentColor"/>
<path d="M12.183 1.74831C11.906 1.7491 11.7674 1.74949 11.6532 1.81436C11.539 1.87924 11.4679 1.99773 11.3257 2.2347L8.8304 6.39359C8.66925 6.66217 8.58867 6.79646 8.64612 6.89792C8.70356 6.99938 8.86017 6.99938 9.17339 6.99938H12.6244C12.8999 6.99938 13.0376 6.99938 13.1519 6.93493C13.2662 6.87047 13.3375 6.75264 13.4801 6.51698L15.8063 2.67164C16.0346 2.29421 16.1487 2.1055 16.0674 1.95457C15.986 1.80364 15.7686 1.7954 15.3337 1.77893C14.2845 1.73918 13.2329 1.74535 12.183 1.74831Z" fill="currentColor"/>
<path d="M19.1719 2.39311C18.866 2.26727 18.7131 2.20434 18.5383 2.2612C18.3634 2.31805 18.2663 2.47586 18.0721 2.79148L15.8578 6.38975C15.6917 6.65958 15.6087 6.79451 15.6659 6.89694C15.7232 6.99938 15.8816 6.99938 16.1984 6.99938H21.6617C21.8717 6.99938 21.9767 6.99938 22.0366 6.93C22.0964 6.86062 22.0813 6.75928 22.0512 6.55661C21.8763 5.37886 21.5028 4.22314 20.6398 3.36021C20.211 2.93141 19.7238 2.62024 19.1719 2.39311Z" fill="currentColor"/>
<path d="M14.9531 14.8948C14.8016 15.5215 14.0857 15.9644 12.6539 16.8502C11.2697 17.7064 10.5777 18.1346 10.0199 17.9625C9.78934 17.8913 9.57925 17.7562 9.40982 17.57C9 17.1198 9 16.2465 9 14.5C9 12.7535 9 11.8802 9.40982 11.4299C9.57925 11.2438 9.78934 11.1087 10.0199 11.0375C10.5777 10.8654 11.2697 11.2936 12.6539 12.1498C14.0857 13.0356 14.8016 13.4785 14.9531 14.1052C15.0156 14.3639 15.0156 14.6361 14.9531 14.8948Z" fill="currentColor"/>
</svg>
