<svg width="24" height="24" viewBox="0 0 24 24" xmlns="http://www.w3.org/2000/svg">
<path class="pr-icon-bulk-secondary" d="M1.25 12C1.25 6.06294 6.06294 1.25 12 1.25C17.9371 1.25 22.75 6.06294 22.75 12C22.75 17.9371 17.9371 22.75 12 22.75C6.06294 22.75 1.25 17.9371 1.25 12Z" fill="currentColor"/>
<path class="pr-icon-bulk-primary" d="M10.0002 7.25C10.4145 7.25 10.7502 7.58579 10.7502 8V10.25H13.2502V8C13.2502 7.58579 13.586 7.25 14.0002 7.25C14.4145 7.25 14.7502 7.58579 14.7502 8V10.25H14.9802C15.9584 10.25 16.8292 11.0449 16.7448 12.0872L16.6223 13.6009C16.523 14.8267 16.0888 16.0041 15.3661 17.0203L14.9655 17.5834C14.4573 18.298 13.6279 18.7202 12.7502 18.7485V22.7242C12.5024 22.7413 12.2522 22.75 12 22.75C11.748 22.75 11.498 22.7413 11.2502 22.7243V18.7485C10.3726 18.7202 9.54322 18.298 9.03495 17.5834L8.63443 17.0203C7.91169 16.0041 7.47744 14.8267 7.37821 13.6009L7.25567 12.0872C7.17129 11.0449 8.0421 10.25 9.02034 10.25H9.25025V8C9.25025 7.58579 9.58603 7.25 10.0002 7.25Z" fill="currentColor"/>
</svg>
