<svg width="24" height="24" viewBox="0 0 24 24" xmlns="http://www.w3.org/2000/svg">
    <path class="pr-icon-bulk-secondary" d="M11.3019 12.8092C11.3019 13.0479 11.1144 13.2414 10.8831 13.2414L7.76547 13.2414C7.58805 13.2414 7.49934 13.2414 7.41655 13.3089C7.33377 13.3765 7.31985 13.4443 7.29201 13.58C7.25742 13.7487 7.24846 13.9111 7.25002 13.9999C7.25002 14.6086 7.44778 15.1711 7.78256 15.6267C7.85274 15.7222 7.88783 15.77 7.95171 15.8023C8.01559 15.8346 8.08354 15.8346 8.21944 15.8346L10.8831 15.8346C11.1144 15.8346 11.3019 16.0281 11.3019 16.2668C11.3019 16.5055 11.1144 16.699 10.8831 16.699L8.87579 16.699C8.58573 16.699 8.4407 16.699 8.35113 16.8005C8.26156 16.9021 8.27811 17.034 8.31121 17.2978C8.42267 18.1862 8.79126 18.777 9.33262 19.1874C9.39727 19.2365 9.42959 19.261 9.47612 19.2766C9.52264 19.2923 9.56892 19.2923 9.66146 19.2923L12 19.2923C12.2313 19.2923 12.4188 19.4858 12.4188 19.7245C12.4188 19.9632 12.2313 20.1567 12 20.1567L10.0817 20.1567C9.79026 20.1567 9.64455 20.1567 9.5545 20.2748C9.46445 20.393 9.49714 20.5118 9.56251 20.7495C9.87478 21.8849 11.0425 22.7488 12.1923 22.7499L14.0119 22.75C15.8578 22.7503 16.9881 22.7505 17.9223 22.4138C18.6449 22.1534 19.2988 21.7528 19.8532 21.2442C20.2513 20.879 20.663 20.6803 21.0449 20.6803C21.9866 20.6803 22.75 19.9169 22.75 18.9752L22.7501 11.7222C22.7504 11.5219 22.7507 11.3134 22.7093 11.1247C22.5629 10.4579 22.0421 9.93704 21.3753 9.79065C21.1865 9.74921 20.9251 9.74961 20.7249 9.74994C20.4413 9.74994 20.1661 9.65352 19.9446 9.47651L17.3696 7.42572C16.6526 6.93894 16.07 6.54338 15.5648 6.26755C15.04 5.98098 14.5402 5.78963 13.9817 5.75645C13.6616 5.73743 13.3405 5.76014 13.0262 5.824C12.478 5.93539 12.0095 6.19496 11.529 6.55233C11.0824 6.88455 10.4498 7.45725 9.83166 8.01698C9.51308 8.35146 9.3538 8.5187 9.37552 8.66379C9.38315 8.71476 9.40378 8.7629 9.43542 8.80358C9.5255 8.91937 9.75646 8.91937 10.2184 8.91937L13.6753 8.91937C13.9066 8.91937 14.0942 9.11288 14.0942 9.35158C14.0942 9.59028 13.9066 9.78378 13.6753 9.78378L2.54647 9.78378C1.83037 9.78378 1.24986 10.3643 1.24986 11.0804C1.24986 11.7965 1.83038 12.377 2.54647 12.377L10.8831 12.377C11.1144 12.377 11.3019 12.5705 11.3019 12.8092Z" />
    <path class="pr-icon-bulk-primary" d="M8.2499 5.50586C8.80219 5.50586 9.2499 5.05814 9.2499 4.50586C9.2499 3.95358 8.80219 3.50586 8.2499 3.50586L5.74986 3.50586L5.74988 2.9116C5.75001 2.73596 5.75016 2.52031 5.72809 2.34387L5.72767 2.34053C5.71191 2.21408 5.64007 1.63804 5.07447 1.36368C4.50765 1.08872 4.00751 1.39065 3.89931 1.45597L3.43082 1.79511C3.05499 2.08975 2.54053 2.49545 2.14952 2.87588C1.95441 3.06571 1.75318 3.28297 1.59433 3.51388C1.45313 3.71914 1.24986 4.06933 1.24986 4.5C1.24986 4.93067 1.45313 5.28086 1.59433 5.48612C1.75318 5.71703 1.95441 5.93429 2.14952 6.12412C2.54053 6.50455 3.05498 6.91025 3.43081 7.20488L3.89931 7.54403C4.00751 7.60935 4.50765 7.91128 5.07447 7.63632C5.64007 7.36196 5.71191 6.78592 5.72767 6.65947L5.72809 6.65613C5.75016 6.47969 5.75001 6.26403 5.74988 6.0884L5.74986 5.50586L8.2499 5.50586Z" />
</svg>
