<svg width="24" height="24" viewBox="0 0 24 24" xmlns="http://www.w3.org/2000/svg">
<path opacity="0.4" d="M11.9487 1.75C14.0202 1.74999 15.7462 1.74998 17.0242 1.90522C18.3302 2.06386 19.3754 2.39411 20.2343 3.12767C20.4634 3.32329 20.6767 3.53662 20.8723 3.76567C21.6059 4.62456 21.9361 5.66982 22.0948 6.97578C22.25 8.25376 22.25 9.97982 22.25 12.0513C22.25 14.1227 22.25 15.7462 22.0948 17.0242C21.9361 18.3302 21.6059 19.3754 20.8723 20.2343C20.6767 20.4634 20.4634 20.6767 20.2343 20.8723C19.3754 21.6059 18.3302 21.9361 17.0242 22.0948C15.7462 22.25 14.1227 22.25 12.0513 22.25C9.97982 22.25 8.25376 22.25 6.97578 22.0948C5.66982 21.9361 4.62456 21.6059 3.76567 20.8723C3.53662 20.6767 3.32329 20.4634 3.12767 20.2343C2.39411 19.3754 2.06386 18.3302 1.90522 17.0242C1.74998 15.7462 1.74999 14.1227 1.75 12.0513C1.74999 9.97982 1.74998 8.25376 1.90522 6.97578C2.06386 5.66982 2.39411 4.62456 3.12767 3.76567C3.3233 3.53662 3.53662 3.3233 3.76567 3.12767C4.62456 2.39411 5.66982 2.06386 6.97578 1.90522C8.25376 1.74998 9.87731 1.74999 11.9487 1.75Z" fill="currentColor"/>
<path fill-rule="evenodd" clip-rule="evenodd" d="M12 5.25C8.27208 5.25 5.25 8.27208 5.25 12C5.25 15.7279 8.27208 18.75 12 18.75C15.7279 18.75 18.75 15.7279 18.75 12C18.75 8.27208 15.7279 5.25 12 5.25ZM9.5 11C8.94772 11 8.5 11.4477 8.5 12C8.5 12.5523 8.94772 13 9.5 13H9.50897C10.0613 13 10.509 12.5523 10.509 12C10.509 11.4477 10.0613 11 9.50897 11H9.5ZM14.4912 11C13.9389 11 13.4912 11.4477 13.4912 12C13.4912 12.5523 13.9389 13 14.4912 13H14.5002C15.0525 13 15.5002 12.5523 15.5002 12C15.5002 11.4477 15.0525 11 14.5002 11H14.4912Z" fill="currentColor"/>
</svg>
