<svg width="24" height="24" viewBox="0 0 24 24" xmlns="http://www.w3.org/2000/svg">
<path opacity="0.4" d="M1.75 11.65C1.75 14.7613 1.75 16.3169 2.69805 17.2835C3.6461 18.25 5.17196 18.25 8.22368 18.25H15.7763C18.828 18.25 20.3539 18.25 21.302 17.2835C22.25 16.3169 22.25 14.7613 22.25 11.65V8.35C22.25 5.23873 22.25 3.6831 21.302 2.71655C20.3539 1.75 18.828 1.75 15.7763 1.75H8.22368C5.17196 1.75 3.6461 1.75 2.69805 2.71655C1.75 3.6831 1.75 5.23873 1.75 8.35V11.65Z" fill="currentColor"/>
<path fill-rule="evenodd" clip-rule="evenodd" d="M11 18.25H13V18.4337L17.5147 21.1425C17.9882 21.4267 18.1418 22.0409 17.8576 22.5145C17.5735 22.9881 16.9592 23.1416 16.4856 22.8575L13 20.7661V22C13 22.5523 12.5523 23 12 23C11.4477 23 11 22.5523 11 22V20.7663L7.51464 22.8575C7.04106 23.1416 6.4268 22.9881 6.14265 22.5145C5.85851 22.0409 6.01208 21.4266 6.48566 21.1425L11 18.4339V18.25Z" fill="currentColor"/>
</svg>
