<svg width="24" height="24" viewBox="0 0 24 24" xmlns="http://www.w3.org/2000/svg">
<path class="pr-icon-bulk-secondary" d="M1.75 11.6071C1.75 14.7386 1.75 16.3044 2.69805 17.2772C3.6461 18.25 5.17196 18.25 8.22368 18.25H15.7763C18.828 18.25 20.3539 18.25 21.302 17.2772C22.25 16.3044 22.25 14.7386 22.25 11.6071V9.39286C22.25 6.26138 22.25 4.69565 21.302 3.72282C20.3539 2.75 18.828 2.75 15.7763 2.75H8.22368C5.17196 2.75 3.6461 2.75 2.69805 3.72282C1.75 4.69565 1.75 6.26138 1.75 9.39286V11.6071Z" fill="currentColor"/>
<path class="pr-icon-bulk-primary" fill-rule="evenodd" clip-rule="evenodd" d="M13 2C13 1.44772 12.5523 1 12 1C11.4477 1 11 1.44772 11 2V2.75H13L13 2ZM11 18.25H13V18.4337L17.5147 21.1425C17.9882 21.4267 18.1418 22.0409 17.8576 22.5145C17.5735 22.9881 16.9592 23.1416 16.4856 22.8575L13 20.7661V22C13 22.5523 12.5523 23 12 23C11.4477 23 11 22.5523 11 22V20.7663L7.51464 22.8575C7.04106 23.1416 6.4268 22.9881 6.14265 22.5145C5.85851 22.0409 6.01208 21.4266 6.48566 21.1425L11 18.4339V18.25Z" fill="currentColor"/>
</svg>
