<svg width="24" height="24" viewBox="0 0 24 24" xmlns="http://www.w3.org/2000/svg">
<path class="pr-icon-bulk-secondary" fill-rule="evenodd" clip-rule="evenodd" d="M2.69805 1.96655C1.75 2.9331 1.75 4.48873 1.75 7.6V10.9C1.75 14.0113 1.75 15.5669 2.69805 16.5335C3.6461 17.5 5.17196 17.5 8.22368 17.5H15.7763C18.828 17.5 20.3539 17.5 21.302 16.5335C22.25 15.5669 22.25 14.0113 22.25 10.9V7.6C22.25 4.48873 22.25 2.9331 21.302 1.96655C20.3539 1 18.828 1 15.7763 1H8.22368C5.17196 1 3.6461 1 2.69805 1.96655Z" fill="currentColor"/>
<path fill-rule="evenodd" clip-rule="evenodd" d="M11 17.5H13V19.5035C13.473 19.5145 13.9088 19.5585 14.3194 19.7286C14.8758 19.9591 15.3012 20.3858 15.7804 20.8665L15.8785 20.9647L16.2069 21.2932C16.5974 21.6837 16.5974 22.3169 16.2069 22.7074C15.8164 23.0979 15.1832 23.0979 14.7927 22.7074L14.4643 22.379C13.8285 21.7432 13.6951 21.6348 13.5541 21.5764C13.4577 21.5365 13.3473 21.5156 13 21.5063V22C13 22.5523 12.5523 23 12 23C11.4477 23 11 22.5523 11 22V21.5063C10.6525 21.5156 10.542 21.5365 10.4456 21.5764C10.3046 21.6348 10.1711 21.7432 9.53536 22.3791L9.20715 22.7073C8.81665 23.0979 8.18349 23.0979 7.79294 22.7074C7.40239 22.3169 7.40235 21.6838 7.79285 21.2932L8.12106 20.965L8.21912 20.8667C8.69838 20.3859 9.12373 19.9592 9.68018 19.7287C10.091 19.5585 10.5268 19.5145 11 19.5035L11 17.5Z" fill="currentColor"/>
<path d="M9.49213 9.41604C9.74287 9.08683 10.0386 8.98707 10.2804 9.00138C10.5251 9.01586 10.8248 9.15446 11.0562 9.52733C11.583 10.3761 12.4119 10.906 13.328 10.9888C14.2479 11.0719 15.1563 10.6941 15.8036 9.92925L16.7634 8.79514C17.1202 8.37356 17.0676 7.74258 16.6461 7.3858C16.2245 7.02902 15.5935 7.08155 15.2367 7.50313L14.2769 8.63724C14.0268 8.93283 13.7432 9.01816 13.508 8.9969C13.2689 8.97529 12.9794 8.83331 12.7556 8.4727C12.2102 7.59401 11.3447 7.06085 10.3985 7.00487C9.44957 6.94872 8.529 7.3798 7.90108 8.2042L7.20453 9.11871C6.86989 9.55806 6.95478 10.1855 7.39413 10.5202C7.83349 10.8548 8.46094 10.7699 8.79558 10.3306L9.49213 9.41604Z" fill="currentColor"/>
</svg>
