<svg width="24" height="24" viewBox="0 0 24 24" xmlns="http://www.w3.org/2000/svg">
    <path class="pr-icon-bulk-primary" fill-rule="evenodd" clip-rule="evenodd" d="M15 8.75C13.2051 8.75 11.75 10.2051 11.75 12C11.75 13.7949 13.2051 15.25 15 15.25C16.7949 15.25 18.25 13.7949 18.25 12C18.25 10.2051 16.7949 8.75 15 8.75Z" />
    <g class="pr-icon-bulk-secondary">
        <path class="pr-icon-bulk-primary"     d="M14.0561 3.25H9.94326C8.10551 3.24999 6.64986 3.24997 5.51065 3.40314C4.33823 3.56076 3.38928 3.89288 2.64092 4.64124C1.89256 5.38961 1.56044 6.33856 1.40281 7.51098C1.26944 8.50295 1.25222 9.73483 1.25 11.25H10.3086C10.6681 8.98301 12.6315 7.25 14.9997 7.25C17.3678 7.25 19.3312 8.98301 19.6908 11.25H22.7494C22.7471 9.73483 22.7299 8.50295 22.5965 7.51098C22.4389 6.33856 22.1068 5.38961 21.3584 4.64124C20.6101 3.89288 19.6611 3.56076 18.4887 3.40314C17.3495 3.24997 15.8939 3.24999 14.0561 3.25Z"     />
        <path class="pr-icon-bulk-primary"     d="M22.7494 12.75H19.6908C19.3312 15.017 17.3678 16.75 14.9997 16.75C12.6315 16.75 10.6681 15.017 10.3086 12.75H1.25C1.25222 14.2652 1.26944 15.4971 1.40281 16.489C1.56044 17.6614 1.89256 18.6104 2.64092 19.3588C3.38928 20.1071 4.33823 20.4392 5.51065 20.5969C6.64986 20.75 8.10548 20.75 9.94322 20.75H14.0561C15.8938 20.75 17.3495 20.75 18.4887 20.5969C19.6611 20.4392 20.6101 20.1071 21.3584 19.3588C22.1068 18.6104 22.4389 17.6614 22.5965 16.489C22.7299 15.4971 22.7471 14.2652 22.7494 12.75Z"     />
    </g>
    <path class="pr-icon-bulk-primary" fill-rule="evenodd" clip-rule="evenodd" d="M5 16C5 15.4477 5.44772 15 6 15H6.00808C6.56037 15 7.00808 15.4477 7.00808 16C7.00808 16.5523 6.56037 17 6.00808 17H6C5.44772 17 5 16.5523 5 16Z" />
</svg>
