<svg width="24" height="24" viewBox="0 0 24 24" xmlns="http://www.w3.org/2000/svg">
<path class="pr-icon-bulk-primary" fill-rule="evenodd" clip-rule="evenodd" d="M13 17.6C13 15.0595 15.0595 13 17.6 13C20.1405 13 22.2 15.0595 22.2 17.6C22.2 18.5077 21.9371 19.354 21.4833 20.0669L22.7077 21.2935C23.0979 21.6844 23.0974 22.3175 22.7065 22.7077C22.3156 23.0979 21.6825 23.0974 21.2923 22.7065L20.0695 21.4816C19.3561 21.9364 18.5088 22.2 17.6 22.2C15.0595 22.2 13 20.1405 13 17.6ZM17.6 15C16.1641 15 15 16.1641 15 17.6C15 19.0359 16.1641 20.2 17.6 20.2C19.0359 20.2 20.2 19.0359 20.2 17.6C20.2 16.1641 19.0359 15 17.6 15Z" fill="currentColor"/>
<path class="pr-icon-bulk-secondary" d="M21.6396 8.33596C21.7271 8.4218 21.7297 8.55822 21.7349 8.83105C21.75 9.61687 21.75 10.4848 21.75 11.4425V11.5572C21.75 11.6261 21.75 11.6946 21.75 11.7626C21.75 12.3249 21.7499 12.606 21.5998 12.6926C21.4496 12.7791 21.1839 12.6253 20.6525 12.3175C19.7547 11.7976 18.7121 11.5 17.6 11.5C14.2311 11.5 11.5 14.2311 11.5 17.6C11.5 18.7121 11.7976 19.7547 12.3175 20.6525C12.6253 21.1839 12.7791 21.4496 12.6926 21.5998C12.606 21.7499 12.3249 21.75 11.7626 21.75C11.6946 21.75 11.6261 21.75 11.5572 21.75H11.4428C9.2521 21.75 7.53144 21.75 6.18802 21.5694C4.81137 21.3843 3.71911 20.9973 2.86091 20.1391C2.00272 19.2809 1.61568 18.1886 1.43059 16.812C1.24998 15.4686 1.24999 13.7479 1.25 11.5572V11.4428C1.24999 10.485 1.24999 9.61694 1.26508 8.83105C1.27032 8.55822 1.27294 8.4218 1.36045 8.33596C1.44795 8.25012 1.5856 8.25012 1.8609 8.25012H21.1391C21.4144 8.25012 21.552 8.25012 21.6396 8.33596Z" fill="currentColor"/>
<path class="pr-icon-bulk-primary" d="M11.4432 1.25H11.5575C13.7482 1.24999 15.4689 1.24998 16.8123 1.43059C18.189 1.61568 19.2812 2.00272 20.1394 2.86091C20.9976 3.71911 21.3847 4.81137 21.5697 6.18802C21.5981 6.39867 21.6122 6.50399 21.5687 6.58807C21.547 6.63001 21.5132 6.66865 21.4745 6.69577C21.397 6.75012 21.2871 6.75012 21.0675 6.75012H1.93319C1.71354 6.75012 1.60371 6.75012 1.52618 6.69577C1.4875 6.66865 1.45371 6.63001 1.43199 6.58807C1.38845 6.50399 1.40261 6.39867 1.43093 6.18802C1.61602 4.81137 2.00306 3.71911 2.86125 2.86091C3.71945 2.00272 4.81171 1.61568 6.18836 1.43059C7.53178 1.24998 9.25247 1.24999 11.4432 1.25Z" fill="currentColor"/>
<path class="pr-icon-bulk-primary" fill-rule="evenodd" clip-rule="evenodd" d="M5.25 12C5.25 11.5858 5.58579 11.25 6 11.25H7C7.41421 11.25 7.75 11.5858 7.75 12C7.75 12.4142 7.41421 12.75 7 12.75H6C5.58579 12.75 5.25 12.4142 5.25 12ZM9.25 12C9.25 11.5858 9.58579 11.25 10 11.25H12C12.4142 11.25 12.75 11.5858 12.75 12C12.75 12.4142 12.4142 12.75 12 12.75H10C9.58579 12.75 9.25 12.4142 9.25 12ZM5.25 16C5.25 15.5858 5.58579 15.25 6 15.25H7C7.41421 15.25 7.75 15.5858 7.75 16C7.75 16.4142 7.41421 16.75 7 16.75H6C5.58579 16.75 5.25 16.4142 5.25 16Z" fill="currentColor"/>
</svg>
