<svg width="24" height="24" viewBox="0 0 24 24" xmlns="http://www.w3.org/2000/svg">
<path class="pr-icon-bulk-secondary" d="M11.9431 2.25C14.0161 2.24999 15.7623 2.24997 17.0377 2.42144C18.3462 2.59737 19.3907 2.9661 20.2123 3.78769C21.0339 4.60928 21.4026 5.65376 21.5786 6.96234C21.75 8.23769 21.75 9.9839 21.75 12.0569C21.75 14.13 21.75 15.7623 21.5786 17.0377C21.4026 18.3462 21.0339 19.3907 20.2123 20.2123C19.3907 21.0339 18.3462 21.4026 17.0377 21.5786C15.7623 21.75 14.13 21.75 12.0569 21.75C9.9839 21.75 8.23769 21.75 6.96234 21.5786C5.65376 21.4026 4.60928 21.0339 3.78769 20.2123C2.9661 19.3907 2.59737 18.3462 2.42144 17.0377C2.24997 15.7623 2.24999 14.13 2.25 12.0569C2.24999 9.98391 2.24997 8.23769 2.42144 6.96234C2.59737 5.65376 2.9661 4.60928 3.78769 3.78769C4.60928 2.9661 5.65376 2.59737 6.96234 2.42144C8.23769 2.24997 9.87002 2.24999 11.9431 2.25Z" fill="currentColor"/>
<path class="pr-icon-bulk-primary" fill-rule="evenodd" clip-rule="evenodd" d="M12.5288 7.25056C12.862 7.26335 13.1467 7.49461 13.2276 7.8181L14.7359 13.8512L15.8292 11.6646C15.9562 11.4105 16.2159 11.25 16.5 11.25H18.5C18.9142 11.25 19.25 11.5858 19.25 12C19.25 12.4142 18.9142 12.75 18.5 12.75H16.9635L15.1708 16.3354C15.0305 16.6161 14.7301 16.7798 14.4182 16.7455C14.1062 16.7113 13.8485 16.4864 13.7724 16.1819L12.3971 10.6806L11.2115 14.2372C11.1094 14.5434 10.8228 14.75 10.5 14.75C10.1772 14.75 9.89057 14.5434 9.78849 14.2372L8.80415 11.2842L8.14312 12.3859C8.00758 12.6118 7.76345 12.75 7.5 12.75H5.5C5.08579 12.75 4.75 12.4142 4.75 12C4.75 11.5858 5.08579 11.25 5.5 11.25H7.07536L8.35688 9.11413C8.50757 8.86298 8.79069 8.72252 9.08184 8.75448C9.37299 8.78644 9.61889 8.98497 9.71151 9.26283L10.5 11.6283L11.7885 7.76283C11.8939 7.44649 12.1956 7.23776 12.5288 7.25056Z" fill="currentColor"/>
</svg>
