<svg width="24" height="24" viewBox="0 0 24 24" xmlns="http://www.w3.org/2000/svg">
<path class="pr-icon-bulk-secondary" d="M12.0572 1.75H12.0572H11.9428H11.9428C9.75212 1.74999 8.03144 1.74998 6.68802 1.93059C5.31137 2.11568 4.21911 2.50272 3.36091 3.36091C2.50272 4.21911 2.11568 5.31137 1.93059 6.68802C1.74998 8.03144 1.74999 9.75211 1.75 11.9428V11.9428V12.0572V12.0572C1.74999 14.2479 1.74998 15.9686 1.93059 17.312C2.11568 18.6886 2.50272 19.7809 3.36091 20.6391C4.21911 21.4973 5.31137 21.8843 6.68802 22.0694C8.03144 22.25 9.7521 22.25 11.9428 22.25H12.0572C14.2479 22.25 15.9686 22.25 17.312 22.0694C18.6886 21.8843 19.7809 21.4973 20.6391 20.6391C21.4973 19.7809 21.8843 18.6886 22.0694 17.312C22.25 15.9686 22.25 14.2479 22.25 12.0572V11.9428C22.25 9.75214 22.25 8.03144 22.0694 6.68802C21.8843 5.31137 21.4973 4.21911 20.6391 3.36091C19.7809 2.50272 18.6886 2.11568 17.312 1.93059C15.9686 1.74998 14.2479 1.74999 12.0572 1.75Z" fill="currentColor"/>
<path class="pr-icon-bulk-primary" fill-rule="evenodd" clip-rule="evenodd" d="M9.89551 8.7197C10.2929 8.603 10.5205 8.18622 10.4038 7.78878C10.2872 7.39135 9.87037 7.16376 9.47293 7.28045C7.36184 7.90029 5.75001 9.70888 5.75001 11.9314L5.75 14.0467C5.74994 14.4778 5.74989 14.8774 5.79639 15.2033C5.84833 15.5673 5.97091 15.9462 6.29658 16.2531C6.61594 16.5539 6.99955 16.6614 7.36392 16.7075C7.70052 16.7502 8.11631 16.7501 8.57913 16.7501C8.57913 16.7501 9.54511 16.7502 9.88171 16.7075C10.2461 16.6614 10.6297 16.5539 10.949 16.2531C11.2747 15.9462 11.3973 15.5673 11.4492 15.2033C11.4957 14.8774 11.4957 14.4778 11.4956 14.0467C11.4956 14.0467 11.4957 13.1227 11.4492 12.7968C11.3973 12.4329 11.2747 12.0539 10.949 11.7471C10.6297 11.4462 10.2461 11.3388 9.88171 11.2926C9.54511 11.25 8.66648 11.2501 8.66648 11.2501C8.20365 11.25 7.3185 11.2987 7.3185 11.2987C7.30339 11.3006 7.33367 11.2966 7.3185 11.2987C7.57652 10.1184 8.54441 9.11639 9.89551 8.7197ZM16.6499 8.7197C17.0473 8.603 17.2749 8.18622 17.1582 7.78878C17.0415 7.39135 16.6248 7.16376 16.2273 7.28045C14.1162 7.90029 12.5044 9.70888 12.5044 11.9314L12.5044 14.0467C12.5043 14.4778 12.5043 14.8774 12.5508 15.2033C12.6027 15.5673 12.7253 15.9462 13.051 16.2531C13.3703 16.5539 13.7539 16.6614 14.1183 16.7075C14.4549 16.7502 14.8707 16.7501 15.3335 16.7501C15.3335 16.7501 16.2995 16.7502 16.6361 16.7075C17.0005 16.6614 17.3841 16.5539 17.7034 16.2531C18.0291 15.9462 18.1517 15.5673 18.2036 15.2033C18.2501 14.8774 18.2501 14.4778 18.25 14.0467C18.25 14.0467 18.2501 13.1227 18.2036 12.7968C18.1517 12.4329 18.0291 12.0539 17.7034 11.7471C17.3841 11.4462 17.0005 11.3388 16.6361 11.2926C16.2995 11.25 15.4209 11.2501 15.4209 11.2501C14.958 11.25 14.0729 11.2987 14.0729 11.2987C14.0578 11.3006 14.0881 11.2966 14.0729 11.2987C14.3309 10.1184 15.2988 9.11639 16.6499 8.7197Z" fill="currentColor"/>
</svg>
