<svg width="25" height="24" viewBox="0 0 25 24" fill="none" xmlns="http://www.w3.org/2000/svg">
<path class="pr-icon-bulk-secondary" fill-rule="evenodd" clip-rule="evenodd" d="M6.75 23C4.817 23 3.25 21.433 3.25 19.5L3.25 5.5C3.25 3.15279 5.15279 1.25 7.5 1.25H17.5C19.8472 1.25 21.75 3.15279 21.75 5.5L21.75 17C21.75 17.5523 21.3023 18 20.75 18C19.9216 18 19.25 18.6716 19.25 19.5C19.25 20.3284 19.9216 21 20.75 21C21.3023 21 21.75 21.4477 21.75 22C21.75 22.5523 21.3023 23 20.75 23L6.75 23ZM17.25 19.5C17.25 18.9632 17.3708 18.4546 17.5868 18H6.75C5.92157 18 5.25 18.6716 5.25 19.5C5.25 20.3284 5.92157 21 6.75 21H17.5868C17.3708 20.5454 17.25 20.0368 17.25 19.5Z" fill="currentColor"/>
<path d="M14.0065 6.216C13.9141 6.216 13.8255 6.1793 13.7602 6.11398L12.7483 5.10202C12.6122 4.96599 12.3917 4.96599 12.2557 5.10202L11.2437 6.11398C11.1784 6.1793 11.0898 6.216 10.9974 6.216H9.56627C9.3739 6.216 9.21795 6.37195 9.21795 6.56432V7.99544C9.21795 8.08782 9.18125 8.17642 9.11593 8.24174L8.10397 9.2537C7.96795 9.38973 7.96795 9.61027 8.10397 9.7463L9.11593 10.7583C9.18125 10.8236 9.21795 10.9122 9.21795 11.0046V12.4357C9.21795 12.6281 9.3739 12.784 9.56627 12.784H10.9974C11.0898 12.784 11.1784 12.8207 11.2437 12.886L12.2557 13.898C12.3917 14.034 12.6122 14.034 12.7483 13.898L13.7602 12.886C13.8255 12.8207 13.9141 12.784 14.0065 12.784H15.4376C15.63 12.784 15.786 12.6281 15.786 12.4357V11.0046C15.786 10.9122 15.8227 10.8236 15.888 10.7583L16.8999 9.7463C17.036 9.61027 17.036 9.38973 16.8999 9.2537L15.888 8.24174C15.8227 8.17642 15.786 8.08782 15.786 7.99544V6.56432C15.786 6.37195 15.63 6.216 15.4376 6.216H14.0065Z" fill="currentColor"/>
</svg>
