<svg width="24" height="24" viewBox="0 0 24 24" xmlns="http://www.w3.org/2000/svg">
<path class="pr-icon-bulk-primary" fill-rule="evenodd" clip-rule="evenodd" d="M13.8975 1.36398C14.2488 1.58351 14.3555 2.04623 14.136 2.39748L12.3532 5.24998H15C15.2726 5.24998 15.5238 5.39794 15.656 5.6364C15.7882 5.87487 15.7805 6.16628 15.636 6.39748L13.136 10.3975C12.9165 10.7487 12.4538 10.8555 12.1025 10.636C11.7512 10.4164 11.6445 9.95373 11.864 9.60248L13.6468 6.74998H11C10.7274 6.74998 10.4762 6.60202 10.344 6.36355C10.2118 6.12509 10.2195 5.83368 10.364 5.60248L12.864 1.60248C13.0835 1.25123 13.5462 1.14445 13.8975 1.36398Z" fill="currentColor"/>
<path class="pr-icon-bulk-secondary" d="M8.75233 6.10252C8.3133 6.26832 7.93769 6.44217 7.63984 6.60524L7.63464 6.60811C5.70308 7.68557 4.22333 9.34734 3.5876 11.3381C3.49377 11.6087 3.15677 11.6779 3 11.6787C1.9856 11.6787 1.25 12.5438 1.25 13.5001V15.0584C1.25 15.7286 1.62349 16.2866 2.01729 16.7036C2.42306 17.1332 2.95227 17.5207 3.4751 17.8569C4.00277 18.1963 5.66469 19.1463 6.14191 19.4098C6.20959 19.4564 6.25 19.5334 6.25 19.6156V22.0001C6.25 22.4144 6.58579 22.7501 7 22.7501H9C9.24458 22.7501 9.47379 22.6309 9.61417 22.4306L10.313 21.4335C12.0688 21.8585 13.9312 21.8585 15.687 21.4335L16.3858 22.4306C16.5262 22.6309 16.7554 22.7501 17 22.7501H19C19.4142 22.7501 19.75 22.4144 19.75 22.0001V19.5921C19.75 19.521 19.7853 19.4292 19.876 19.3529C21.6296 17.8781 22.75 15.8135 22.75 13.5001C22.75 10.5734 20.9631 8.05713 18.3654 6.60809L18.3602 6.60524C17.9913 6.40329 17.6201 6.22874 17.2486 6.07898C17.235 6.46694 17.1211 6.85158 16.908 7.19256L14.408 11.1926C13.7494 12.2463 12.3613 12.5667 11.3075 11.9081C10.2537 11.2495 9.93341 9.86133 10.592 8.80757L10.9409 8.24929C10.1459 8.22849 9.419 7.78894 9.03206 7.0908C8.86084 6.78188 8.76783 6.44334 8.75233 6.10252Z" fill="currentColor"/>
<path class="pr-icon-bulk-primary" fill-rule="evenodd" clip-rule="evenodd" d="M6.5 11.9999C6.5 11.4476 6.94772 10.9999 7.5 10.9999H7.50898C8.06127 10.9999 8.50898 11.4476 8.50898 11.9999C8.50898 12.5522 8.06127 12.9999 7.50898 12.9999H7.5C6.94772 12.9999 6.5 12.5522 6.5 11.9999Z" fill="currentColor"/>
</svg>
