<svg width="24" height="24" viewBox="0 0 24 24" xmlns="http://www.w3.org/2000/svg">
    <path class="pr-icon-bulk-secondary" d="M12.902 6.34376C13.3508 6.53504 13.6486 6.98484 13.6486 7.50853V10.7425H15.0498C15.6175 10.7425 16.0012 11.1265 16.1555 11.5123C16.3097 11.8975 16.2905 12.396 15.9788 12.7962L12.4796 17.2877C12.1271 17.7403 11.5634 17.8546 11.098 17.6562C10.6492 17.465 10.3514 17.0152 10.3514 16.4915V13.2575H8.95018C8.38247 13.2575 7.99885 12.8735 7.84446 12.4877C7.69027 12.1025 7.70946 11.604 8.02124 11.2038L11.5204 6.71232C11.873 6.25974 12.4366 6.14539 12.902 6.34376Z" />
    <g class="pr-icon-bulk-secondary">
        <path class="pr-icon-bulk-primary"     d="M12.9965 2.03194C13.1045 1.50314 13.6208 1.16205 14.1496 1.2701C18.2433 2.10654 21.5129 5.20294 22.6258 9.20339C22.6598 9.32483 22.7207 9.54211 22.7398 9.70995C22.7628 9.91245 22.7718 10.375 22.3761 10.7327C21.971 11.0988 21.5002 11.031 21.3076 10.9865C21.1425 10.9483 20.9616 10.8751 20.8415 10.8265L18.9246 9.95807C18.4332 9.7348 17.8998 9.2034 18.4391 8.66409L19.7211 7.38214C18.4145 5.25199 16.2716 3.69856 13.7583 3.18504C13.2295 3.077 12.8884 2.56073 12.9965 2.03194Z"     />
        <path class="pr-icon-bulk-primary"     d="M5.07429 14.0422C5.56567 14.2654 6.09904 14.7969 5.55974 15.3362L4.27778 16.6181C5.58434 18.7483 7.72731 20.3017 10.2406 20.8152C10.7694 20.9232 11.1104 21.4395 11.0024 21.9683C10.8944 22.4971 10.3781 22.8382 9.84929 22.7301C5.75559 21.8937 2.48594 18.7973 1.3731 14.7969C1.33908 14.6754 1.27822 14.4582 1.25911 14.2903C1.23606 14.0878 1.22703 13.6252 1.62278 13.2675C2.02785 12.9014 2.49871 12.9693 2.69128 13.0138C2.85634 13.0519 3.0373 13.1251 3.15733 13.1737L5.07429 14.0422Z"     />
    </g>
    <path class="pr-icon-bulk-primary" d="M9.95801 5.07435C9.73474 5.56573 9.20333 6.0991 8.66403 5.5598L7.38208 4.27785C5.25193 5.5844 3.6985 7.72737 3.18498 10.2406C3.07694 10.7694 2.56067 11.1105 2.03187 11.0025C1.50308 10.8944 1.16199 10.3782 1.27004 9.84935C2.10648 5.75566 5.20288 2.486 9.20333 1.37316C9.32477 1.33914 9.54204 1.27828 9.70989 1.25917C9.91239 1.23612 10.375 1.22709 10.7326 1.62284C11.0987 2.0279 11.0309 2.49877 10.9864 2.69134C10.9483 2.8564 10.8751 3.03736 10.8265 3.15739L9.95801 5.07435Z" />
    <path class="pr-icon-bulk-primary" d="M21.9682 12.9965C22.497 13.1046 22.8381 13.6208 22.7301 14.1496C21.8936 18.2433 18.7972 21.513 14.7968 22.6258C14.6754 22.6599 14.4581 22.7207 14.2902 22.7398C14.0877 22.7629 13.6252 22.7719 13.2675 22.3762C12.9014 21.9711 12.9692 21.5002 13.0137 21.3076C13.0518 21.1426 13.1251 20.9616 13.1736 20.8416L14.0421 18.9246C14.2654 18.4333 14.7968 17.8999 15.3361 18.4392L16.618 19.7211C18.7482 18.4146 20.3016 16.2716 20.8151 13.7584C20.9232 13.2296 21.4395 12.8885 21.9682 12.9965Z" />
</svg>
