<svg width="24" height="24" viewBox="0 0 24 24" xmlns="http://www.w3.org/2000/svg">
<path class="pr-icon-bulk-secondary" d="M8.49452 2.33155C9.99939 1.67206 10.9625 1.25 12.0001 1.25C13.0376 1.25 14.0007 1.67206 15.5056 2.33155L17.4218 3.17071C18.6844 3.72358 19.708 4.1718 20.4096 4.6051C21.1006 5.03184 21.7501 5.60616 21.7501 6.5V17.5C21.7501 18.3938 21.1006 18.9682 20.4096 19.3949C19.7081 19.8282 18.6844 20.2764 17.4219 20.8293L15.5056 21.6684C14.0007 22.3279 13.0376 22.75 12.0001 22.75C10.9625 22.75 9.99939 22.3279 8.49451 21.6684L6.57816 20.8292C5.31561 20.2764 4.29205 19.8282 3.5905 19.3949C2.89955 18.9682 2.25006 18.3938 2.25006 17.5V6.5C2.25006 5.60616 2.89954 5.03184 3.5905 4.6051C4.29208 4.1718 5.31569 3.72358 6.57831 3.1707L8.49452 2.33155Z" fill="currentColor"/>
<path fill-rule="evenodd" clip-rule="evenodd" d="M7.8259 2.625L6.57813 3.17143C6.40108 3.24896 6.22872 3.32443 6.0613 3.39809L10.3743 5.64085L6.35753 7.72957L2.54931 5.52969C2.36477 5.80538 2.24988 6.1248 2.24988 6.50073V7.08901L5.74988 9.11084V13.8361L2.24988 12.2452V13.8928L5.74988 15.4837V20.4658C6.01274 20.5825 6.2891 20.7035 6.57798 20.83L7.24988 21.1242V16.1656L11.2499 17.9837V22.679C11.5014 22.7259 11.7484 22.7507 11.9999 22.7507C12.2513 22.7507 12.4984 22.7259 12.7499 22.679V17.9645L16.75 15.9644V21.1241L17.4217 20.83C17.7106 20.7035 17.9871 20.5824 18.25 20.4658V15.2144L21.7499 13.4645V11.7875L18.25 13.5374V9.11038L21.7499 7.08899V6.50073C21.7499 6.12481 21.635 5.8054 21.4505 5.52971L17.642 7.72936L13.6256 5.64085L17.9385 3.39812C17.7711 3.32446 17.5987 3.24898 17.4217 3.17144L16.1739 2.62504L12 4.79551L7.8259 2.625ZM12 6.48619L16.1016 8.61903L15.0174 9.24524C13.3446 9.97751 12.6874 10.2475 12.0119 10.2508L11.9999 10.2507L11.9876 10.2508C11.3118 10.2478 10.6548 9.97782 8.98135 9.24526L7.89778 8.61932L12 6.48619ZM8.49379 10.6693C9.63423 11.1691 10.4635 11.5325 11.2499 11.6792V16.3361L7.24988 14.5179V9.97734L8.26717 10.565C8.29122 10.5789 8.31603 10.5914 8.34147 10.6026L8.49379 10.6693ZM15.5049 10.6693C14.365 11.1689 13.5359 11.5322 12.7499 11.679V16.2875L16.75 14.2874V9.97673L15.7315 10.565C15.7074 10.5789 15.6826 10.5914 15.6572 10.6026L15.5049 10.6693Z" fill="currentColor"/>
</svg>
