<svg width="25" height="24" viewBox="0 0 25 24" fill="none" xmlns="http://www.w3.org/2000/svg">
<path fill-rule="evenodd" clip-rule="evenodd" d="M17.0048 4.25C16.8096 3.6882 16.4864 3.14973 16.0115 2.75H18.6247C20.3119 2.75 21.7501 4.05528 21.7501 5.74989C21.7501 7.5664 20.1119 8.90522 18.3177 8.73527L16.1115 8.52631L16.8987 7.45036C16.9728 7.34904 17.0339 7.23496 17.0837 7.11168L18.4591 7.24196C19.4615 7.3369 20.2501 6.59555 20.2501 5.74989C20.2501 4.95934 19.5612 4.25 18.6247 4.25H17.0048ZM8.25001 19.1364C8.71532 19.1843 9.21436 19.2198 9.75001 19.2374V20.55C9.75001 20.6443 9.75001 20.6914 9.7793 20.7207C9.80859 20.75 9.85573 20.75 9.95001 20.75H10.5C10.9142 20.75 11.25 21.0858 11.25 21.5C11.25 21.9142 10.9142 22.25 10.5 22.25H8.00001L7.95526 22.25C7.52244 22.2501 7.12561 22.2501 6.8028 22.2067C6.44732 22.1589 6.07159 22.0465 5.76257 21.7374C5.45355 21.4284 5.3411 21.0527 5.29331 20.6972C5.24991 20.3744 5.24995 19.9776 5.25 19.5447L5.25001 19.5V18.6012C5.69314 18.7118 6.19033 18.825 6.75001 18.9253V19.5C6.75001 19.9926 6.7516 20.2866 6.77993 20.4973C6.80231 20.6638 6.83635 20.6977 7.00267 20.7201C7.21339 20.7484 7.5074 20.75 8.00001 20.75H8.05001C8.14429 20.75 8.19143 20.75 8.22072 20.7207C8.25001 20.6914 8.25001 20.6443 8.25001 20.55V19.1364Z" fill="currentColor"/>
<path class="pr-icon-bulk-secondary" d="M11.1855 1.75C6.81041 1.75 3.25 5.26125 3.25 9.60937V17.5C3.25 18.1696 3.93858 18.256 4.43945 18.3898C5.75269 18.7407 7.65919 19.25 10.5207 19.25C10.9349 19.25 11.2707 18.9142 11.2707 18.5V16.1006C11.2707 16.0209 11.2706 16.0207 11.2498 15.9438L10.0042 11.3441C9.79181 10.5656 9.85095 10.0429 10.2319 9.3315L11.9296 6.1473C12.1245 5.78179 12.5788 5.64346 12.9443 5.83834C13.3098 6.03321 13.4481 6.48749 13.2532 6.853L11.5556 10.0372C11.3631 10.3982 11.3428 10.5487 11.452 10.952L11.905 12.6249C12.0467 13.1479 12.1175 13.4094 12.303 13.4439C12.4885 13.4783 12.6485 13.2597 12.9684 12.8223L16.8987 7.45036C17.3873 6.78256 17.309 5.56023 17.1563 4.8049C16.9345 3.70795 16.2597 2.55651 14.957 2.1966C14.0579 1.94819 12.808 1.75 11.1855 1.75Z" fill="currentColor"/>
</svg>
