<svg width="24" height="24" viewBox="0 0 24 24" xmlns="http://www.w3.org/2000/svg">
<path class="pr-icon-bulk-secondary" fill-rule="evenodd" clip-rule="evenodd" d="M10.7072 5.33019C11.0172 5.17406 11.3939 5.25107 11.6177 5.51635C12.8087 6.92774 14.5901 8.0682 16.4666 9.26954L16.4666 9.26955L16.467 9.26982C16.7722 9.46524 17.08 9.66228 17.3882 9.86235C19.4978 11.2322 21.6795 12.7776 22.5554 14.937C22.5878 15.0166 22.6159 15.0962 22.64 15.1756L22.6404 15.177C22.8166 15.7588 22.7668 16.2878 22.579 16.7445C22.4074 17.1662 22.0276 17.5931 21.7026 17.8686C20.9791 18.4384 19.9889 18.7502 19.0993 18.7502L7.8952 18.7502C6.48431 18.7502 5.33276 18.7502 4.42642 18.6005C3.46635 18.4418 2.68003 18.1006 2.08056 17.3516C1.6355 16.7955 1.40382 16.0956 1.30613 15.3525C1.28107 15.162 1.26493 14.9694 1.25618 14.7767C1.24542 14.5401 1.24557 14.2976 1.25522 14.0514C1.28417 13.3127 1.39867 12.5398 1.56122 11.7848C1.99381 9.77564 2.79519 7.76593 3.41743 6.63781C3.5717 6.3581 3.88623 6.2068 4.20106 6.26086C4.5159 6.31491 4.76194 6.56245 4.81409 6.8776C4.92979 7.57682 5.59571 8.0584 6.79343 8.28851C7.54964 8.4338 8.36841 8.44237 9.02623 8.38925C8.8496 7.64248 8.95752 7.00267 9.29256 6.47372C9.69532 5.83785 10.3863 5.49116 10.7072 5.33019ZM3.25233 16.4139C3.547 16.7821 3.94121 16.9995 4.6716 17.1202C5.44166 17.2474 6.46878 17.2498 7.96169 17.2498H19.1C20.0166 17.2498 20.5112 16.9017 20.946 16.5369C18.9714 17.0346 17.1127 16.5887 15.7225 15.9404C15.083 15.6421 14.6223 15.4275 14.2821 15.2836C13.778 15.059 13.4657 15.1189 13.3726 15.177C13.106 15.2474 12.7525 15.359 12.2465 15.5189C9.02206 16.5383 6.44112 16.2261 2.78125 15.0508C2.81428 15.3904 2.95473 16.1386 3.25233 16.4139Z" fill="currentColor"/>
<path class="pr-icon-bulk-primary" d="M14.1816 7.75672L14.4687 7.46967C14.7616 7.17678 15.2365 7.17678 15.5294 7.46967C15.8222 7.76256 15.8222 8.23744 15.5294 8.53033L15.4477 8.61198C15.0129 8.32839 14.5886 8.0448 14.1816 7.75672Z" fill="currentColor"/>
<path class="pr-icon-bulk-primary" d="M16.2858 9.15255L16.4687 8.96967C16.7616 8.67678 17.2365 8.67678 17.5294 8.96967C17.8066 9.24693 17.8214 9.68727 17.5737 9.98194C17.5125 9.94192 17.4513 9.90207 17.3901 9.86235C17.082 9.66228 16.7742 9.46524 16.469 9.26982C16.408 9.23076 16.3466 9.19149 16.2858 9.15255Z" fill="currentColor"/>
<path class="pr-icon-bulk-primary" d="M15.4463 8.61305C15.0115 8.32947 14.5873 8.04588 14.1803 7.75781L12.9677 8.97036C12.6748 9.26325 12.6748 9.73812 12.9677 10.031C13.2606 10.3239 13.7355 10.3239 14.0284 10.031L15.4463 8.61305Z" fill="currentColor"/>
<path class="pr-icon-bulk-primary" d="M17.5724 9.98304C17.511 9.94288 17.4495 9.90289 17.3882 9.86304C17.08 9.66296 16.7723 9.46593 16.467 9.27051C16.4062 9.23158 16.3451 9.19243 16.2845 9.15361L14.9677 10.4704C14.6748 10.7632 14.6748 11.2381 14.9677 11.531C15.2606 11.8239 15.7355 11.8239 16.0284 11.531L17.5284 10.031C17.5439 10.0155 17.5586 9.99951 17.5724 9.98304Z" fill="currentColor"/>
</svg>
