<svg width="24" height="24" viewBox="0 0 24 24" xmlns="http://www.w3.org/2000/svg">
<path opacity="0.4" d="M1.25 12C1.25 6.06294 6.06294 1.25 12 1.25C17.9371 1.25 22.75 6.06294 22.75 12C22.75 17.9371 17.9371 22.75 12 22.75C6.06294 22.75 1.25 17.9371 1.25 12Z" fill="currentColor"/>
<path fill-rule="evenodd" clip-rule="evenodd" d="M6.46967 7.46967C6.76256 7.17678 7.23744 7.17678 7.53033 7.46967L8.5 8.43934L9.46967 7.46967C9.76256 7.17678 10.2374 7.17678 10.5303 7.46967C10.8232 7.76256 10.8232 8.23744 10.5303 8.53033L9.56066 9.5L10.5303 10.4697C10.8232 10.7626 10.8232 11.2374 10.5303 11.5303C10.2374 11.8232 9.76256 11.8232 9.46967 11.5303L8.5 10.5607L7.53033 11.5303C7.23744 11.8232 6.76256 11.8232 6.46967 11.5303C6.17678 11.2374 6.17678 10.7626 6.46967 10.4697L7.43934 9.5L6.46967 8.53033C6.17678 8.23744 6.17678 7.76256 6.46967 7.46967ZM13.4697 7.46967C13.7626 7.17678 14.2374 7.17678 14.5303 7.46967L15.5 8.43934L16.4697 7.46967C16.7626 7.17678 17.2374 7.17678 17.5303 7.46967C17.8232 7.76256 17.8232 8.23744 17.5303 8.53033L16.5607 9.5L17.5303 10.4697C17.8232 10.7626 17.8232 11.2374 17.5303 11.5303C17.2374 11.8232 16.7626 11.8232 16.4697 11.5303L15.5 10.5607L14.5303 11.5303C14.2374 11.8232 13.7626 11.8232 13.4697 11.5303C13.1768 11.2374 13.1768 10.7626 13.4697 10.4697L14.4393 9.5L13.4697 8.53033C13.1768 8.23744 13.1768 7.76256 13.4697 7.46967Z" fill="currentColor"/>
<path fill-rule="evenodd" clip-rule="evenodd" d="M7.54964 17.5997C7.88084 17.8485 8.35099 17.7816 8.59974 17.4504C9.37631 16.4165 10.6103 15.75 12 15.75C13.3898 15.75 14.6238 16.4165 15.4003 17.4504C15.6491 17.7816 16.1192 17.8485 16.4505 17.5997C16.7817 17.351 16.8485 16.8808 16.5997 16.5496C15.5521 15.1547 13.8816 14.25 12 14.25C10.1185 14.25 8.44802 15.1547 7.40035 16.5496C7.1516 16.8808 7.21843 17.351 7.54964 17.5997Z" fill="currentColor"/>
</svg>
