<svg width="24" height="24" viewBox="0 0 24 24" xmlns="http://www.w3.org/2000/svg">
<g class="pr-icon-bulk-secondary">
<path d="M14.2612 14.2608C16.0029 12.5191 17.4925 10.7641 18.6248 9.17451C18.6456 9.14539 18.656 9.13083 18.6694 9.11494C18.8951 8.84822 19.3586 8.91108 19.5051 9.22827C19.5138 9.24717 19.5155 9.25187 19.5189 9.26129C19.8302 10.1156 20 11.038 20 12C20 16.4183 16.4183 20 12 20C11.0382 20 10.116 19.8303 9.26174 19.5191C9.25185 19.5155 9.24691 19.5137 9.22785 19.5049C8.91104 19.3583 8.84823 18.8953 9.11455 18.6696C9.13057 18.656 9.14536 18.6455 9.1749 18.6244C10.7645 17.4921 12.5195 16.0025 14.2612 14.2608Z" fill="currentColor"/>
<path d="M4 12C4 7.58172 7.58172 4 12 4C13.875 4 15.5993 4.64501 16.9631 5.72525C17.2455 5.94887 17.3866 6.06068 17.4178 6.25199C17.4489 6.4433 17.3456 6.60145 17.1392 6.91774C16.9715 7.17456 16.788 7.44361 16.5883 7.72401C15.5468 9.18601 14.1501 10.8359 12.493 12.493C10.8359 14.1501 9.18601 15.5468 7.72401 16.5883C7.44361 16.788 7.17456 16.9715 6.91774 17.1392C6.60145 17.3456 6.4433 17.4489 6.25199 17.4178C6.06068 17.3866 5.94887 17.2455 5.72525 16.9631C4.64501 15.5993 4 13.875 4 12Z" fill="currentColor"/>
</g>
<path d="M16.5508 5.41958C17.4384 4.85967 18.2214 4.45862 18.8605 4.22625C19.3139 4.06138 19.6415 4.00131 19.8537 4.00002C19.9182 3.99963 19.9621 4.00439 19.9904 4.00958C19.9956 4.03789 20.0004 4.0818 20 4.14629C19.9987 4.35846 19.9386 4.68614 19.7738 5.13952C19.4458 6.0413 18.7821 7.22975 17.81 8.59431C16.714 10.1329 15.2616 11.8458 13.5537 13.5537C11.8458 15.2616 10.1329 16.714 8.59431 17.81C7.22975 18.7821 6.0413 19.4458 5.13952 19.7738C4.68614 19.9386 4.35846 19.9987 4.14629 20C4.0818 20.0004 4.03789 19.9956 4.00958 19.9904C4.00439 19.9621 3.99963 19.9182 4.00002 19.8537C4.00131 19.6415 4.06138 19.3139 4.22625 18.8605C4.45862 18.2214 4.85967 17.4384 5.41958 16.5508C4.98349 15.9214 4.63538 15.2264 4.39302 14.4836C3.45318 15.8308 2.73848 17.0995 2.34666 18.177C2.14014 18.7449 2.00328 19.3133 2.00006 19.8415C1.99681 20.3732 2.13199 20.9645 2.58374 21.4163C3.03548 21.868 3.62683 22.0032 4.1585 21.9999C4.68665 21.9967 5.25506 21.8599 5.823 21.6533C6.96387 21.2385 8.31902 20.4617 9.75473 19.4389C11.3953 18.2702 13.1924 16.7435 14.9679 14.9679C16.7435 13.1924 18.2702 11.3953 19.4389 9.75473C20.4617 8.31902 21.2385 6.96387 21.6533 5.823C21.8599 5.25506 21.9967 4.68665 21.9999 4.1585C22.0032 3.62683 21.868 3.03548 21.4163 2.58374C20.9645 2.13199 20.3732 1.99681 19.8415 2.00006C19.3133 2.00328 18.7449 2.14014 18.177 2.34666C17.0995 2.73848 15.8308 3.45318 14.4836 4.39302C15.2264 4.63538 15.9214 4.98349 16.5508 5.41958Z" fill="currentColor"/>
</svg>
