<svg width="24" height="24" viewBox="0 0 24 24" xmlns="http://www.w3.org/2000/svg">
<path class="pr-icon-bulk-primary" d="M12.8246 16.1907L17.3961 14.615C18.1961 14.3353 19.0651 14.6648 19.572 15.4523C19.8933 15.9513 19.7576 16.6621 19.3001 16.9583L10.8148 22.4511C10.3417 22.7573 9.78499 22.8315 9.26613 22.6587L2.93194 20.55C2.52341 20.414 2.2478 20.0318 2.2478 19.6012V14.25C2.2478 13.6977 2.69552 13.25 3.2478 13.25H4.66936C4.95916 13.25 5.24465 13.3233 5.5031 13.4636L7.80854 14.715C8.14417 14.8972 8.51376 14.9918 8.88816 14.9918H10.0653C11.0076 14.9918 11.766 15.7777 11.8388 16.7584V16.8919L9.10943 17.7385C8.66441 17.8766 8.18796 17.8317 7.76777 17.6083L5.43779 16.1286C5.20469 15.9805 4.89571 16.0495 4.74767 16.2826C4.59962 16.5157 4.66858 16.8247 4.90169 16.9727L7.24699 18.4622C7.25663 18.4683 7.26648 18.4741 7.27651 18.4795C7.93419 18.8365 8.69499 18.9141 9.40569 18.6936L12.2744 17.8038C12.6653 17.6826 12.9081 17.3089 12.9081 16.9134C12.9081 16.6871 12.8853 16.4663 12.8417 16.2534C12.8373 16.2319 12.8316 16.211 12.8246 16.1907Z" fill="currentColor"/>
<path class="pr-icon-bulk-secondary" d="M12.4722 14.99C11.9354 14.2489 11.0865 13.7418 10.0653 13.7418H8.88816C8.72587 13.7418 8.56083 13.7011 8.40488 13.6164L7.40584 13.0741C6.67287 11.8904 6.24976 10.4946 6.24976 9C6.24976 4.71979 9.71955 1.25 13.9998 1.25C18.28 1.25 21.7498 4.71979 21.7498 9C21.7498 10.9009 21.0654 12.6421 19.9296 13.9903C19.1279 13.3248 18.0479 13.0641 16.9865 13.4339L12.4722 14.99Z" fill="currentColor"/>
<path class="pr-icon-bulk-primary" d="M13.423 3.33443C15.0991 2.94572 16.4953 3.95413 16.7367 5.23303C16.8136 5.64005 16.5459 6.0323 16.1389 6.10915C15.7319 6.186 15.3396 5.91834 15.2628 5.51132C15.1917 5.13505 14.6729 4.58436 13.7618 4.79565C13.344 4.89255 13.0276 5.18832 12.8641 5.5617C12.696 5.94576 12.7236 6.32637 12.8764 6.57398C13.0086 6.78821 13.1351 7.01278 13.2444 7.24943H14.9998C15.414 7.24943 15.7498 7.58522 15.7498 7.99943C15.7498 8.41364 15.414 8.74943 14.9998 8.74943H13.6043C13.6086 9.23642 13.5026 9.73289 13.2757 10.2494H15.9998C16.414 10.2494 16.7498 10.5852 16.7498 10.9994C16.7498 11.4136 16.414 11.7494 15.9998 11.7494L12.5965 11.7495C12.4801 11.7496 12.3242 11.7497 12.1934 11.7315C12.0678 11.7139 11.6862 11.6457 11.4854 11.2591C11.2899 10.8825 11.4445 10.5283 11.4856 10.4343C11.5389 10.3125 11.6343 10.1501 11.7022 10.0346C12.0131 9.50473 12.1097 9.09324 12.1041 8.74943H10.9998C10.5855 8.74943 10.2498 8.41364 10.2498 7.99943C10.2498 7.58522 10.5855 7.24943 10.9998 7.24943H11.5349C11.1419 6.52375 11.1821 5.66341 11.4901 4.96009C11.8187 4.20947 12.4866 3.55159 13.423 3.33443Z" fill="currentColor"/>
</svg>
