<svg width="24" height="24" viewBox="0 0 24 24" xmlns="http://www.w3.org/2000/svg">
<path fill-rule="evenodd" clip-rule="evenodd" d="M9.24997 18.6614L9.24996 20.804C9.24981 21.0054 9.24963 21.25 9.27992 21.4609C9.31743 21.7222 9.41767 22.07 9.72504 22.3576C10.0251 22.6384 10.3684 22.7205 10.6359 22.7425C10.8462 22.7597 11.0853 22.7436 11.2763 22.7308L11.3161 22.7281C17.1629 22.3401 22.1087 18.6762 22.247 13.0076L22.25 13.0038V12.5033C22.25 10.7066 20.7949 9.25009 19 9.25009C17.2051 9.25009 15.75 10.7066 15.75 12.5033C15.75 14.3 17.2051 15.7565 19 15.7565C19.2157 15.7565 19.4264 15.7354 19.6303 15.6953C18.3588 18.5209 15.2359 20.4446 11.25 20.728V18.7183C11.0028 18.7393 10.7526 18.75 10.4999 18.75C10.0755 18.75 9.65822 18.7198 9.24997 18.6614Z" fill="currentColor"/>
<path opacity="0.4" d="M1.74994 10C1.74994 5.16754 5.66745 1.25003 10.4999 1.25003C14.2833 1.25003 17.5058 3.6512 18.7267 7.01273C18.8396 7.32359 18.8961 7.47902 18.8257 7.60027C18.7553 7.72152 18.5664 7.75403 18.1887 7.81904C15.9518 8.20398 14.2499 10.1533 14.2499 12.5C14.2499 13.8825 14.8405 15.127 15.7832 15.995C16.0648 16.2544 16.2056 16.384 16.1991 16.5239C16.1926 16.6637 16.0611 16.7639 15.7981 16.9643C14.3275 18.0847 12.4914 18.75 10.4999 18.75C5.66745 18.75 1.74994 14.8325 1.74994 10Z" fill="currentColor"/>
<circle cx="10.4999" cy="10" r="2" fill="currentColor"/>
</svg>
