<svg width="24" height="24" viewBox="0 0 24 24" xmlns="http://www.w3.org/2000/svg">
    <path class="pr-icon-bulk-secondary" d="M10.9148 1.49784C11.2831 1.35888 11.6453 1.25 12 1.25C12.3547 1.25 12.7169 1.35888 13.0852 1.49784C13.4581 1.63848 13.9238 1.8452 14.5045 2.103C15.3581 2.48193 16.4848 2.91682 17.6932 3.26033L17.6933 3.26035C18.5751 3.51102 19.2881 3.71368 19.8282 3.9231C20.371 4.13358 20.8631 4.39466 21.1943 4.83324C21.5152 5.258 21.6386 5.75424 21.6953 6.28941C21.75 6.80597 21.75 7.45411 21.75 8.23883V11.1833C21.75 14.2392 20.3705 16.6624 18.7033 18.4686C17.0412 20.2691 15.0612 21.4939 13.7561 22.1827L13.6931 22.216C13.1373 22.5098 12.6829 22.75 12 22.75C11.3171 22.75 10.8627 22.5098 10.3069 22.216L10.2439 22.1827C8.93883 21.4939 6.95877 20.2691 5.29669 18.4686C3.62946 16.6624 2.25 14.2392 2.25 11.1833V8.23885V8.23883C2.24998 7.4541 2.24997 6.80596 2.30469 6.28941C2.36138 5.75424 2.48481 5.258 2.80565 4.83324C3.13694 4.39466 3.62904 4.13358 4.17183 3.9231C4.71192 3.71367 5.42488 3.51101 6.30675 3.26034L6.30676 3.26034C7.5152 2.91682 8.64182 2.48194 9.49543 2.10302C10.0762 1.84521 10.5419 1.63848 10.9148 1.49784Z" />
    <path class="pr-icon-bulk-primary" d="M17.9426 8.66643C18.127 9.18702 17.8544 9.75852 17.3338 9.9429C16.8002 10.1319 16.1837 10.5388 15.5307 11.1115C14.888 11.6751 14.2628 12.3521 13.7091 13.0159C13.1572 13.6774 12.6885 14.3111 12.3574 14.7801C12.1922 15.0141 11.8441 15.5365 11.8441 15.5365C11.6508 15.8406 11.3087 16.0174 10.9489 15.999C10.5889 15.9805 10.2668 15.7698 10.1056 15.4475C9.66489 14.5661 9.11042 14.0149 8.90638 13.9959C8.39799 13.9487 8 13.521 8 13.0003C8 12.448 8.44772 12.0003 9 12.0003C9.55228 12.0003 9.9053 12.2353 10.1797 12.4182C10.454 12.6011 10.7416 12.8538 11.0304 13.1997C11.3456 12.7689 11.734 12.2613 12.1733 11.7347C12.7666 11.0235 13.465 10.2629 14.212 9.60781C14.9486 8.96179 15.788 8.36865 16.6662 8.05765C17.1868 7.87327 17.7582 8.14583 17.9426 8.66643Z" />
</svg>
