<svg width="24" height="24" viewBox="0 0 24 24" xmlns="http://www.w3.org/2000/svg">
<path opacity="0.4" d="M10.9149 1.49784C11.2832 1.35888 11.6455 1.25 12.0001 1.25C12.3548 1.25 12.717 1.35888 13.0854 1.49784C13.4582 1.63848 13.9239 1.8452 14.5047 2.103C15.3583 2.48193 16.4849 2.91682 17.6934 3.26033L17.6934 3.26035C18.5753 3.51102 19.2882 3.71368 19.8283 3.9231C20.3711 4.13358 20.8632 4.39466 21.1945 4.83324C21.5153 5.258 21.6387 5.75424 21.6954 6.28941C21.7502 6.80597 21.7501 7.45411 21.7501 8.23883V11.1833C21.7501 14.2392 20.3707 16.6624 18.7034 18.4686C17.0414 20.2691 15.0613 21.4939 13.7562 22.1827L13.6932 22.216C13.1374 22.5098 12.6831 22.75 12.0001 22.75C11.3172 22.75 10.8629 22.5098 10.307 22.216L10.244 22.1827C8.93895 21.4939 6.95889 20.2691 5.29681 18.4686C3.62958 16.6624 2.25012 14.2392 2.25012 11.1833V8.23885V8.23883C2.25011 7.4541 2.25009 6.80596 2.30481 6.28941C2.3615 5.75424 2.48493 5.258 2.80578 4.83324C3.13706 4.39466 3.62917 4.13358 4.17196 3.9231C4.71204 3.71367 5.425 3.51101 6.30687 3.26034L6.30688 3.26034C7.51532 2.91682 8.64194 2.48194 9.49556 2.10302C10.0763 1.84521 10.542 1.63848 10.9149 1.49784Z" fill="currentColor"/>
<path fill-rule="evenodd" clip-rule="evenodd" d="M14.4698 7.46967C14.7627 7.17678 15.2376 7.17678 15.5305 7.46967L17.5305 9.46967C17.8234 9.76256 17.8234 10.2374 17.5305 10.5303C17.2376 10.8232 16.7627 10.8232 16.4698 10.5303L15.0001 9.06066L14.0608 10L15.0305 10.9697C15.3234 11.2626 15.3234 11.7374 15.0305 12.0303C14.7376 12.3232 14.2627 12.3232 13.9698 12.0303L13.0001 11.0607L11.5326 12.5282C11.9313 13.3638 11.7837 14.3965 11.0887 15.0916C10.2031 15.9772 8.78498 15.9637 7.9123 15.091C7.04286 14.2215 7.01794 12.7984 7.90667 11.9097C8.60286 11.2135 9.63642 11.0716 10.4709 11.4685L14.4698 7.46967ZM10.0336 12.9697C9.742 12.678 9.26235 12.6753 8.96733 12.9703C8.6764 13.2613 8.67722 13.7346 8.97296 14.0303C9.26546 14.3228 9.73385 14.3251 10.028 14.031C10.3262 13.7327 10.322 13.2581 10.0336 12.9697Z" fill="currentColor"/>
</svg>
