<svg width="24" height="24" viewBox="0 0 24 24" xmlns="http://www.w3.org/2000/svg">
<path opacity="0.4" d="M9.99342 6.625C8.01333 6.625 6.46283 6.86957 5.26681 7.72846C4.06216 8.59354 3.35657 9.97965 2.80418 11.9055L2.79194 11.9482C2.31799 13.6006 1.94592 14.8977 1.76024 15.9441C1.57165 17.0069 1.55359 17.9163 1.879 18.7579C2.24436 19.7027 2.89118 20.5172 3.73279 21.1015C4.52766 21.6533 5.7866 22.0189 7.16133 22.255C8.56616 22.4963 10.2002 22.6196 11.8279 22.6248C11.9081 22.6251 11.9653 22.5471 11.9463 22.4692C11.7465 21.6492 11.9668 20.7477 12.6072 20.1072L13.9152 18.7993C14.1152 18.5993 14.2152 18.4993 14.2152 18.375C14.2152 18.2507 14.1152 18.1507 13.9152 17.9507L12.6072 16.6428C11.6309 15.6665 11.6309 14.0835 12.6072 13.1072C13.5835 12.1309 15.1665 12.1309 16.1428 13.1072L17.4507 14.4152C17.6507 14.6152 17.7507 14.7152 17.875 14.7152C17.9993 14.7152 18.0993 14.6152 18.2993 14.4152L19.6072 13.1072C19.8935 12.8209 20.232 12.6186 20.592 12.5002C20.7603 12.4449 20.8445 12.4172 20.8843 12.387C20.9646 12.3262 20.9977 12.2637 21.0029 12.1631C21.0054 12.1132 20.9856 12.044 20.9458 11.9055C20.4175 10.0636 19.7558 8.67889 18.5714 7.79303C17.3899 6.90938 15.826 6.625 13.7566 6.625H9.99342Z" fill="currentColor"/>
<path fill-rule="evenodd" clip-rule="evenodd" d="M9.875 10.875C9.875 10.3227 10.3227 9.875 10.875 9.875H12.875C13.4273 9.875 13.875 10.3227 13.875 10.875C13.875 11.4273 13.4273 11.875 12.875 11.875H10.875C10.3227 11.875 9.875 11.4273 9.875 10.875Z" fill="currentColor"/>
<path fill-rule="evenodd" clip-rule="evenodd" d="M22.0821 14.1679C22.4726 14.5584 22.4726 15.1916 22.0821 15.5821L19.2892 18.375L22.0821 21.1679C22.4726 21.5584 22.4726 22.1916 22.0821 22.5821C21.6916 22.9726 21.0584 22.9726 20.6679 22.5821L17.875 19.7892L15.0821 22.5821C14.6916 22.9726 14.0584 22.9726 13.6679 22.5821C13.2774 22.1916 13.2774 21.5584 13.6679 21.1679L16.4608 18.375L13.6679 15.5821C13.2774 15.1916 13.2774 14.5584 13.6679 14.1679C14.0584 13.7774 14.6916 13.7774 15.0821 14.1679L17.875 16.9608L20.6679 14.1679C21.0584 13.7774 21.6916 13.7774 22.0821 14.1679Z" fill="currentColor"/>
<path d="M8.375 6.48864C8.375 4.65973 9.91277 3.125 11.875 3.125C13.8372 3.125 15.375 4.65973 15.375 6.48864V6.69842C16.1197 6.77445 16.7834 6.91445 17.375 7.14084V6.48864C17.375 3.4976 14.8833 1.125 11.875 1.125C8.86666 1.125 6.375 3.4976 6.375 6.48864V7.13621C6.97181 6.90689 7.63655 6.76961 8.375 6.69595V6.48864Z" fill="currentColor"/>
</svg>
