<svg width="24" height="24" viewBox="0 0 24 24" xmlns="http://www.w3.org/2000/svg">
<path class="pr-icon-bulk-secondary" d="M20.0949 7.24988H3.65516C3.36317 7.24987 3.10704 7.24986 2.89649 7.26422C2.67647 7.27923 2.44103 7.31285 2.21055 7.41446C1.82281 7.58541 1.52624 7.84726 1.34105 8.19152C1.16292 8.52268 1.12007 8.87016 1.12543 9.16743C1.13076 9.46275 1.18486 9.75151 1.23876 9.9925C1.26921 10.1286 1.37293 10.5615 1.38818 10.6251C1.38898 10.6284 1.38938 10.6301 1.38972 10.6316C1.39007 10.6331 1.39065 10.6358 1.39181 10.6411C1.47487 11.0223 1.73343 11.3301 2.07188 11.4907C2.44139 11.666 2.68215 11.9887 2.74437 12.343L3.44396 16.4056C3.52861 16.9807 3.62783 17.6548 3.78458 18.265C4.01701 19.1699 4.41862 20.1509 5.25667 20.8246L5.25955 20.8269C5.88909 21.328 6.62715 21.5464 7.50578 21.6498C8.35671 21.7499 9.42483 21.7499 10.7598 21.7499L13.0663 21.7498C13.2277 21.7497 13.3149 21.5555 13.2103 21.4325C13.1852 21.403 13.1647 21.3975 13.1277 21.386C12.1116 21.068 11.375 20.1206 11.375 18.9999C11.375 17.6192 12.4943 16.4999 13.875 16.4999C14.2877 16.4999 14.5945 16.5876 14.7317 16.6267L14.7337 16.6273C14.8908 16.6722 15.0551 16.7306 15.2245 16.8051C15.4634 16.9102 15.5828 16.9627 15.6793 16.9409C15.7757 16.919 15.8532 16.8292 16.0081 16.6494C16.6137 15.9468 17.4072 15.0855 18.0979 14.4797C18.7996 13.8643 19.6608 13.2246 20.6292 12.8052C20.7804 12.7397 20.856 12.707 20.8979 12.6632C20.9398 12.6194 20.9745 12.5287 21.0438 12.3472C21.1729 12.0092 21.4062 11.6197 21.6781 11.4907C22.0166 11.3301 22.2751 11.0223 22.3582 10.6411C22.3593 10.6358 22.3599 10.6331 22.3603 10.6316C22.3606 10.6301 22.361 10.6284 22.3618 10.6251C22.3771 10.5615 22.4808 10.1286 22.5112 9.9925C22.5651 9.75151 22.6192 9.46275 22.6246 9.16743C22.6299 8.87016 22.5871 8.52268 22.4089 8.19153C22.2238 7.84726 21.9272 7.58541 21.5394 7.41446C21.309 7.31285 21.0735 7.27923 20.8535 7.26422C20.643 7.24986 20.3869 7.24987 20.0949 7.24988Z" />
<path class="pr-icon-bulk-primary" fill-rule="evenodd" clip-rule="evenodd" d="M9.125 11.9999C9.125 11.5857 9.46079 11.2499 9.875 11.2499L13.875 11.2499C14.2892 11.2499 14.625 11.5857 14.625 11.9999C14.625 12.4141 14.2892 12.7499 13.875 12.7499L9.875 12.7499C9.46079 12.7499 9.125 12.4141 9.125 11.9999Z" />
<path class="pr-icon-bulk-primary" fill-rule="evenodd" clip-rule="evenodd" d="M10.2761 2.08397C10.7821 2.30534 11.0128 2.89497 10.7914 3.40095L7.29141 11.4009C7.07004 11.9069 6.48041 12.1377 5.97443 11.9163C5.46845 11.6949 5.23773 11.1053 5.4591 10.5993L8.9591 2.59931C9.18046 2.09333 9.77009 1.86261 10.2761 2.08397Z" />
<path class="pr-icon-bulk-primary" d="M22.8176 14.6663C23.002 15.1869 22.7294 15.7584 22.2088 15.9428C21.6752 16.1318 21.0587 16.5386 20.4057 17.1114C19.763 17.675 19.1378 18.3519 18.5841 19.0157C18.0322 19.6772 17.5635 20.311 17.2324 20.78C17.0672 21.0139 16.807 21.4043 16.7191 21.5364C16.5258 21.8405 16.1837 22.0173 15.8239 21.9988C15.4639 21.9804 15.1418 21.7697 14.9806 21.4474C14.5399 20.566 14.1446 20.215 13.9453 20.0822C13.861 20.026 13.804 20.0035 13.7814 19.9958C13.273 19.9486 12.875 19.5209 12.875 19.0002C12.875 18.4479 13.3227 18.0002 13.875 18.0002C14.0742 18.0002 14.2184 18.0404 14.3216 18.0699C14.5295 18.1293 14.7803 18.2352 15.0547 18.4181C15.329 18.601 15.6166 18.8537 15.9054 19.1996C16.2206 18.7688 16.609 18.2612 17.0483 17.7346C17.6416 17.0234 18.34 16.2628 19.087 15.6077C19.8236 14.9617 20.663 14.3685 21.5412 14.0575C22.0618 13.8731 22.6332 14.1457 22.8176 14.6663Z" />
<path class="pr-icon-bulk-primary" d="M15.7696 2.55288C15.5227 2.0589 14.922 1.85868 14.428 2.10567C13.934 2.35266 13.7338 2.95333 13.9808 3.44731L15.8822 7.25012H18.1183L15.7696 2.55288Z" />
</svg>
