<svg width="24" height="24" viewBox="0 0 24 24" xmlns="http://www.w3.org/2000/svg">
<path class="pr-icon-bulk-secondary" d="M20.2199 7.24988H3.78016C3.48817 7.24987 3.23204 7.24986 3.02149 7.26422C2.80147 7.27923 2.56603 7.31285 2.33555 7.41446C1.94781 7.58541 1.65124 7.84726 1.46605 8.19152C1.28792 8.52268 1.24507 8.87016 1.25043 9.16743C1.25576 9.46275 1.30986 9.75151 1.36376 9.9925C1.39531 10.1335 1.50551 10.5931 1.51448 10.6305L1.51502 10.6328L1.51563 10.6356C1.59741 11.0193 1.85682 11.3293 2.19688 11.4907C2.56639 11.666 2.80715 11.9887 2.86937 12.343L3.56896 16.4056C3.65361 16.9807 3.75283 17.6548 3.90958 18.265C4.14201 19.1699 4.54362 20.1509 5.38167 20.8246L5.38455 20.8269C6.01409 21.328 6.75215 21.5464 7.63078 21.6498C8.48171 21.7499 9.54983 21.7499 10.8848 21.7499H13.1152C13.4853 21.7499 13.835 21.7499 14.1652 21.7478C14.702 21.7443 14.9705 21.7426 15.0517 21.5742C15.133 21.4058 14.9631 21.1891 14.6233 20.7557C14.6203 20.7519 14.6174 20.7481 14.6144 20.7444L14.1658 20.116C14.0659 19.9522 13.3799 18.8275 14.0139 17.5206C14.4962 16.5263 15.3675 16.1982 15.8405 16.0881C15.9217 16.0692 15.9623 16.0597 15.984 16.0324C16.0057 16.0051 16.0057 15.9654 16.0057 15.886L16.0057 13.9998C16.0057 12.6191 17.1249 11.4998 18.5057 11.4998C19.3401 11.4998 20.079 11.9086 20.5332 12.5369C20.77 12.8645 20.8884 13.0283 20.9531 13.0133C21.0178 12.9983 21.0489 12.8177 21.1111 12.4563L21.1306 12.343C21.1928 11.9887 21.4336 11.666 21.8031 11.4907C22.1432 11.3293 22.4026 11.0193 22.4844 10.6356L22.485 10.6328L22.4855 10.6305C22.4945 10.5931 22.6047 10.1335 22.6362 9.9925C22.6901 9.75151 22.7442 9.46275 22.7496 9.16743C22.7549 8.87016 22.7121 8.52268 22.5339 8.19153C22.3488 7.84726 22.0522 7.58541 21.6644 7.41446C21.434 7.31285 21.1985 7.27923 20.9785 7.26422C20.768 7.24986 20.5119 7.24987 20.2199 7.24988Z" fill="currentColor"/>
<path class="pr-icon-bulk-primary" fill-rule="evenodd" clip-rule="evenodd" d="M9.25 11.9999C9.25 11.5857 9.58579 11.2499 10 11.2499L14 11.2499C14.4142 11.2499 14.75 11.5857 14.75 11.9999C14.75 12.4141 14.4142 12.7499 14 12.7499L10 12.7499C9.58579 12.7499 9.25 12.4141 9.25 11.9999Z" fill="currentColor"/>
<path class="pr-icon-bulk-primary" fill-rule="evenodd" clip-rule="evenodd" d="M10.4011 2.08397C10.9071 2.30534 11.1378 2.89497 10.9164 3.40095L7.41641 11.4009C7.19504 11.9069 6.60541 12.1377 6.09943 11.9163C5.59345 11.6949 5.36273 11.1053 5.5841 10.5993L9.0841 2.59931C9.30546 2.09333 9.89509 1.86261 10.4011 2.08397Z" fill="currentColor"/>
<path class="pr-icon-bulk-primary" d="M19.5059 14.0001C19.5059 13.4478 19.0581 13.0001 18.5059 13.0001C17.9536 13.0001 17.5059 13.4478 17.5059 14.0001L17.5059 17.5002L16.9116 17.5001C16.736 17.5 16.5203 17.4999 16.3439 17.5219L16.3405 17.5223C16.2141 17.5381 15.638 17.61 15.3637 18.1755C15.0887 18.7424 15.3907 19.2425 15.456 19.3507L15.7951 19.8192C16.0897 20.195 16.4954 20.7095 16.8759 21.1005C17.0657 21.2956 17.283 21.4968 17.5139 21.6557C17.7191 21.7969 18.0693 22.0002 18.5 22.0002C18.9307 22.0002 19.2809 21.7969 19.4861 21.6557C19.717 21.4968 19.9343 21.2956 20.1241 21.1005C20.5046 20.7095 20.9102 20.195 21.2049 19.8192L21.544 19.3507C21.6093 19.2425 21.9113 18.7424 21.6363 18.1755C21.362 17.61 20.7859 17.5381 20.6595 17.5223L20.6561 17.5219C20.4797 17.4999 20.264 17.5 20.0884 17.5001L19.5059 17.5002L19.5059 14.0001Z" fill="currentColor"/>
<path class="pr-icon-bulk-primary" d="M15.8946 2.55288C15.6477 2.0589 15.047 1.85868 14.553 2.10567C14.059 2.35266 13.8588 2.95333 14.1058 3.44731L16.0072 7.2501H18.2433L15.8946 2.55288Z" fill="currentColor"/>
</svg>
