<svg width="24" height="24" viewBox="0 0 24 24" xmlns="http://www.w3.org/2000/svg">
<path class="pr-icon-bulk-secondary" d="M3.154 4.96715C3.17158 4.5661 3.50184 4.25 3.90328 4.25H20.0983C20.4997 4.25 20.83 4.5661 20.8476 4.96715C20.8557 5.1529 20.8744 5.31666 20.909 5.46519C20.995 5.83435 21.1425 6.19125 21.3194 6.61907L21.3194 6.61912L21.3332 6.65238C21.5075 7.07416 21.7091 7.56656 21.8175 8.1046C22.1863 9.93518 22.3425 11.8284 22.4423 13.696C22.4791 14.3848 22.5082 15.0645 22.5369 15.7371C22.587 16.91 22.6361 18.0615 22.7242 19.2028C22.7837 19.9748 22.7853 20.7634 22.3131 21.3388C21.842 21.9129 21.0687 22.0673 20.3015 22.1629L16.0924 22.6875C15.6684 22.7404 15.2747 22.7682 14.9242 22.7367C14.565 22.7043 14.2058 22.6058 13.8935 22.3684C13.5809 22.1308 13.3899 21.8109 13.2631 21.4725C13.1395 21.1426 13.0624 20.7552 13.0017 20.3318L13.0014 20.3292L12.3606 15.7428H11.6409L11.0002 20.3292L10.9998 20.3318C10.9392 20.7552 10.862 21.1426 10.7384 21.4725C10.6117 21.8109 10.4206 22.1308 10.1081 22.3684C9.79577 22.6058 9.43654 22.7043 9.07737 22.7367C8.72682 22.7682 8.33311 22.7404 7.90912 22.6875L3.70005 22.1629C2.93288 22.0673 2.15956 21.9129 1.68842 21.3388C1.21627 20.7634 1.21784 19.9748 1.2774 19.2028L2.01726 9.61208C2.07044 8.9223 2.10216 8.51091 2.18402 8.10461C2.29241 7.56656 2.49405 7.07416 2.66838 6.65238L2.68213 6.61909C2.859 6.19126 3.00655 5.83435 3.09258 5.46519C3.1272 5.31666 3.14586 5.15291 3.154 4.96715Z" fill="currentColor"/>
<path class="pr-icon-bulk-primary" fill-rule="evenodd" clip-rule="evenodd" d="M5.80362 8.47494C6.24115 7.38064 6.25002 6.02668 6.25002 5V4.25H7.75003V5.04477C7.75016 6.02546 7.75038 7.6463 7.19642 9.03181C6.90836 9.7523 6.45774 10.4456 5.75129 10.9552C5.04009 11.4682 4.12924 11.7519 2.99875 11.75H1.85236L1.96807 10.25H3.00129C3.87081 10.2515 4.45996 10.0371 4.87375 9.73865C5.2923 9.43673 5.59168 9.00502 5.80362 8.47494ZM22.1589 10.25C22.2197 10.7485 22.2697 11.2491 22.3118 11.75H21.0013C19.8708 11.7519 18.96 11.4682 18.2488 10.9552C17.5423 10.4456 17.0917 9.7523 16.8036 9.03181C16.2497 7.6463 16.2499 6.02546 16.25 5.04477V4.25H17.75V5C17.75 6.02668 17.7589 7.38064 18.1964 8.47494C18.4084 9.00502 18.7078 9.43673 19.1263 9.73865C19.5401 10.0371 20.1293 10.2515 20.9988 10.25H22.1589Z" fill="currentColor"/>
<path class="pr-icon-bulk-primary" fill-rule="evenodd" clip-rule="evenodd" d="M8.46967 13.2197C8.76256 12.9268 9.23744 12.9268 9.53033 13.2197C9.67835 13.3677 9.82008 13.5204 9.94499 13.6551C9.98974 13.7033 10.0323 13.7492 10.0723 13.7917C10.2335 13.9633 10.3661 14.096 10.4973 14.2023C10.7314 14.3919 10.9611 14.5 11.3284 14.5H12.6716C13.0389 14.5 13.2686 14.3919 13.5027 14.2023C13.6339 14.096 13.7665 13.9633 13.9277 13.7917C13.9677 13.7492 14.0103 13.7033 14.055 13.6551C14.1799 13.5204 14.3217 13.3677 14.4697 13.2197C14.7626 12.9268 15.2374 12.9268 15.5303 13.2197C15.8232 13.5126 15.8232 13.9874 15.5303 14.2803C15.4036 14.4071 15.2913 14.5281 15.1728 14.6558C15.1237 14.7087 15.0736 14.7627 15.021 14.8187C14.851 14.9997 14.6611 15.1944 14.4466 15.3681C13.9893 15.7384 13.4351 16 12.6716 16H11.3284C10.5649 16 10.0107 15.7384 9.55336 15.3681C9.33894 15.1944 9.14897 14.9997 8.97901 14.8187C8.92638 14.7627 8.87628 14.7087 8.82723 14.6558C8.70874 14.5281 8.59642 14.4071 8.46967 14.2803C8.17678 13.9874 8.17678 13.5126 8.46967 13.2197Z" fill="currentColor"/>
<path class="pr-icon-bulk-primary" fill-rule="evenodd" clip-rule="evenodd" d="M4.71583 3.15956C4.67448 3.34672 4.65234 3.61717 4.65234 4.01893C4.65234 4.08869 4.65338 4.16672 4.65468 4.25H19.3479C19.3492 4.16672 19.3502 4.08869 19.3502 4.01893C19.3502 3.61717 19.3281 3.34672 19.2867 3.15956C19.2473 2.98104 19.2012 2.9289 19.1861 2.91381C19.1707 2.89846 19.1175 2.85228 18.9375 2.81294C18.749 2.77179 18.4776 2.75 18.0755 2.75H5.92708C5.52494 2.75 5.25354 2.77179 5.06511 2.81294C4.88502 2.85228 4.83191 2.89846 4.81648 2.91381C4.80132 2.9289 4.75528 2.98104 4.71583 3.15956ZM4.74503 1.34749C5.09305 1.27148 5.4929 1.25 5.92708 1.25H18.0755C18.5097 1.25 18.9095 1.27148 19.2575 1.34749C19.6139 1.42533 19.9624 1.57023 20.2441 1.85051C20.526 2.13105 20.6726 2.47909 20.7514 2.83595C20.8283 3.18416 20.8502 3.58429 20.8502 4.01893C20.8502 4.15815 20.8481 4.28199 20.846 4.3984C20.8426 4.59638 20.8395 4.77291 20.8481 4.96715C20.857 5.17157 20.7821 5.37077 20.6406 5.51859C20.4991 5.6664 20.3034 5.75 20.0988 5.75H3.90379C3.69917 5.75 3.50345 5.6664 3.36197 5.51859C3.22049 5.37077 3.14555 5.17157 3.15451 4.96715C3.16302 4.77291 3.15995 4.5964 3.15652 4.39843C3.15449 4.28201 3.15234 4.15816 3.15234 4.01893C3.15234 3.58429 3.17422 3.18416 3.25116 2.83595C3.33 2.47909 3.47653 2.13105 3.75846 1.85051C4.04015 1.57023 4.38867 1.42533 4.74503 1.34749Z" fill="currentColor"/>
</svg>
