<svg width="24" height="24" viewBox="0 0 24 24" xmlns="http://www.w3.org/2000/svg">
<path class="pr-icon-bulk-primary" fill-rule="evenodd" clip-rule="evenodd" d="M7 22.1252C7 21.5729 7.44772 21.1252 8 21.1252H16C16.5523 21.1252 17 21.5729 17 22.1252C17 22.6775 16.5523 23.1252 16 23.1252H8C7.44772 23.1252 7 22.6775 7 22.1252Z" fill="currentColor"/>
<path class="pr-icon-bulk-primary" d="M8.91147 16.7424C8.88628 16.3394 8.87369 16.1379 8.99063 16.0405C9.10758 15.9432 9.31354 15.9945 9.72546 16.0973C10.4534 16.279 11.2151 16.3754 11.9991 16.3754C12.7833 16.3754 13.5452 16.2789 14.2732 16.0972C14.6851 15.9944 14.8911 15.943 15.0081 16.0404C15.125 16.1378 15.1124 16.3393 15.0872 16.7423L14.7479 22.1719C14.7232 22.5671 14.3954 22.8751 13.9993 22.8751H9.99935C9.6033 22.8751 9.27552 22.5671 9.25081 22.1719L8.91147 16.7424Z" fill="currentColor"/>
<path class="pr-icon-bulk-secondary" d="M6.90446 6.37519H17.0955C17.5397 6.37509 17.9656 6.37499 18.315 6.43671C18.7255 6.50923 19.1189 6.68009 19.4162 7.07389C19.692 7.43913 19.7761 7.82531 19.7432 8.23026C19.7167 8.55488 19.5949 8.96621 19.4926 9.31148C18.5408 12.5299 15.5447 14.8752 12 14.8752C8.45532 14.8752 5.45916 12.5299 4.50738 9.31148C4.4051 8.96621 4.28326 8.55488 4.25684 8.23026C4.22388 7.82531 4.30802 7.43913 4.58378 7.07389C4.88111 6.68009 5.27452 6.50923 5.68499 6.43671C6.03436 6.37499 6.4603 6.37509 6.90446 6.37519Z" fill="currentColor"/>
<path class="pr-icon-bulk-primary" d="M9.00015 6.37525H11.0002L11.0002 6.07085C11.0002 5.64678 11.0003 5.23465 10.9546 4.89474C10.9031 4.51154 10.7776 4.07426 10.4144 3.71104C10.0512 3.34783 9.61387 3.22231 9.23067 3.17079C8.89076 3.12509 8.47863 3.12517 8.05456 3.12525L8.00015 3.12526C7.44787 3.12526 7.00015 3.57297 7.00015 4.12526C7.00015 4.67754 7.44787 5.12526 8.00015 5.12526C8.49983 5.12526 8.77398 5.12738 8.96418 5.15295L8.97146 5.15395L8.97246 5.16123C8.99803 5.35143 9.00015 5.62558 9.00015 6.12526V6.37525Z" fill="currentColor"/>
<path class="pr-icon-bulk-primary" d="M12.0002 6.37525H14.0002V3.62524C14.0002 3.3491 14.224 3.12524 14.5002 3.12524C14.7763 3.12524 15.0002 3.3491 15.0002 3.62524V4.12524C15.0002 4.67753 15.4479 5.12524 16.0002 5.12524C16.5524 5.12524 17.0002 4.67753 17.0002 4.12524V3.62524C17.0002 2.24453 15.8809 1.12524 14.5002 1.12524C13.1194 1.12524 12.0002 2.24453 12.0002 3.62524V6.37525Z" fill="currentColor"/>
</svg>
