<svg width="24" height="24" viewBox="0 0 24 24" xmlns="http://www.w3.org/2000/svg">
    <path class="pr-icon-bulk-secondary" fill-rule="evenodd" clip-rule="evenodd" d="M2.72351 8.55293C4.3514 9.02176 5.71342 9.08926 6.9797 8.90564C8.22419 8.72518 9.33657 8.30599 10.4301 7.87407C10.5365 7.83207 10.6432 7.7897 10.7505 7.7471L10.7513 7.74679L10.7514 7.74674L10.7519 7.74654C10.977 7.65722 11.2046 7.56687 11.4364 7.47675C11.2563 7.61661 11.0773 7.75402 10.9 7.88708C8.75149 9.49859 6.2143 10.9948 2.02235 11.0001L1.99977 11C1.44749 11 0.999771 11.4477 0.999771 12C0.999771 12.4434 1.28833 12.8194 1.68789 12.9504C1.78609 12.9826 1.89101 13.0001 2 13.0001L2.0172 13.0001C2.81751 13.0062 3.82776 13.4335 5.08926 14.2489C5.90237 14.7745 6.74083 15.4063 7.61936 16.0832C6.45845 16.6512 5.27448 17 4 17C3.44772 17 3 17.4477 3 18C3 18.5523 3.44772 19 4 19C5.97474 19 7.74313 18.3397 9.36101 17.4236C10.6722 18.4173 12.0613 19.4031 13.4603 20.0819C14.9591 20.8092 16.5923 21.2453 18.2327 20.8525C18.7698 20.7238 19.1009 20.1842 18.9723 19.6471C18.8437 19.11 18.304 18.7788 17.7669 18.9074C16.7667 19.147 15.6352 18.9142 14.3333 18.2826C13.3059 17.7841 12.2491 17.0752 11.1649 16.2755C11.8337 15.8091 12.4772 15.323 13.1003 14.8524L13.1723 14.798C15.8915 12.7444 18.2404 11 21 11C21.5523 11 22 10.5523 22 10C22 9.44772 21.5523 9 21 9C17.5267 9 14.6774 11.1535 12.1445 13.0679L12.1445 13.0679L11.967 13.202C11.1171 13.8439 10.2972 14.457 9.48397 14.9962C9.45739 14.9757 9.4308 14.9551 9.40419 14.9345C8.32393 14.0985 7.22475 13.2478 6.17496 12.5693L6.09167 12.5157C8.63147 11.8738 10.5063 10.6825 12.1 9.48702C12.5465 9.15211 12.951 8.83373 13.3344 8.53193L13.3344 8.53192L13.3344 8.53191L13.3344 8.5319C13.985 8.01979 14.5749 7.55543 15.2065 7.13915C16.0776 6.56507 16.9079 6.17251 17.8281 6.02967C18.2026 6.01029 18.5928 6 19.0003 6C19.5525 6 20.0003 5.55228 20.0003 5C20.0003 4.44772 19.5525 4 19.0003 4C18.715 4 18.4371 4.0047 18.1662 4.01373C18.0805 3.99933 17.9914 3.99597 17.9008 4.00501C17.8083 4.01423 17.7168 4.02521 17.6262 4.03786C14.1842 4.23142 11.92 5.13064 10.0252 5.88318C9.91404 5.92732 9.80417 5.97095 9.6954 6.01391C8.60145 6.44599 7.68257 6.7828 6.69269 6.92634C5.7246 7.06672 4.64912 7.02622 3.27701 6.63105C2.7463 6.4782 2.19216 6.78453 2.03932 7.31524C1.88647 7.84595 2.19279 8.40009 2.72351 8.55293Z" />
    <path class="pr-icon-bulk-primary" fill-rule="evenodd" clip-rule="evenodd" d="M12 3C7.02944 3 3 7.02944 3 12C3 16.9706 7.02944 21 12 21C16.9706 21 21 16.9706 21 12C21 7.02944 16.9706 3 12 3ZM1 12C1 5.92487 5.92487 1 12 1C18.0751 1 23 5.92487 23 12C23 18.0751 18.0751 23 12 23C5.92487 23 1 18.0751 1 12Z" />
</svg>
