<svg width="24" height="24" viewBox="0 0 24 24" xmlns="http://www.w3.org/2000/svg">
<path opacity="0.4" d="M1.25 12C1.25 6.06294 6.06294 1.25 12 1.25C17.9371 1.25 22.75 6.06294 22.75 12C22.75 17.9371 17.9371 22.75 12 22.75C6.06294 22.75 1.25 17.9371 1.25 12Z" fill="currentColor"/>
<path fill-rule="evenodd" clip-rule="evenodd" d="M17.3321 14.3274C17.7036 14.5107 17.8561 14.9605 17.6728 15.3319C16.4831 17.7424 13.8214 19.4036 10.7869 18.5034C10.3898 18.3856 10.1634 17.9682 10.2812 17.5711C10.399 17.174 10.8164 16.9475 11.2135 17.0653C13.4143 17.7182 15.3955 16.5568 16.3276 14.6681C16.511 14.2966 16.9607 14.1441 17.3321 14.3274Z" fill="currentColor"/>
<path d="M14.0671 9.75766C13.6548 9.79471 13.2903 9.49053 13.2531 9.07811C13.2158 8.66557 13.5201 8.30095 13.9326 8.2637C13.9819 8.26093 14.1377 8.25188 14.2213 8.25063C14.3875 8.24813 14.6185 8.25222 14.8797 8.27903C15.3737 8.32975 16.0986 8.47293 16.6624 8.92067C17.0532 9.23109 17.3496 9.60981 17.5554 9.92189C17.8349 10.3458 17.7984 10.8459 17.5422 11.2126C17.3008 11.5582 16.8975 11.75 16.4764 11.75C15.6943 11.75 14.9324 11.0217 15.2175 10.1172L15.292 9.88098C15.1212 9.82816 14.928 9.79188 14.7265 9.77119C14.537 9.75174 14.3665 9.74861 14.2438 9.75046C14.183 9.75137 14.098 9.75592 14.0671 9.75766Z" fill="currentColor"/>
<path d="M7.06715 9.75766C6.65475 9.79471 6.29032 9.49053 6.25309 9.07811C6.21584 8.66557 6.52007 8.30095 6.93261 8.2637C6.98187 8.26093 7.13769 8.25188 7.22129 8.25063C7.3875 8.24813 7.61848 8.25222 7.87965 8.27903C8.37374 8.32975 9.09859 8.47293 9.66236 8.92067C10.0532 9.23109 10.3496 9.60981 10.5554 9.92189C10.8349 10.3458 10.7984 10.8459 10.5422 11.2126C10.3008 11.5582 9.89752 11.75 9.47644 11.75C8.69425 11.75 7.93235 11.0217 8.2175 10.1172L8.29196 9.88098C8.12123 9.82816 7.92804 9.79188 7.72649 9.77119C7.537 9.75174 7.36647 9.74861 7.24383 9.75046C7.18301 9.75137 7.09803 9.75592 7.06715 9.75766Z" fill="currentColor"/>
</svg>
