<svg width="24" height="24" viewBox="0 0 24 24" xmlns="http://www.w3.org/2000/svg">
<path class="pr-icon-bulk-secondary" d="M12.0572 1.75C14.2479 1.74999 15.9686 1.74998 17.312 1.93059C18.6886 2.11568 19.7809 2.50272 20.6391 3.36091C21.4973 4.21911 21.8843 5.31137 22.0694 6.68802C22.25 8.03144 22.25 9.7521 22.25 11.9428V11.9428V12.0572V12.0572C22.25 14.2479 22.25 15.9686 22.0694 17.312C21.8843 18.6886 21.4973 19.7809 20.6391 20.6391C19.7809 21.4973 18.6886 21.8843 17.312 22.0694C15.9686 22.25 14.2479 22.25 12.0572 22.25H12.0572H11.9428H11.9428C9.7521 22.25 8.03144 22.25 6.68802 22.0694C5.31137 21.8843 4.21911 21.4973 3.36091 20.6391C2.50272 19.7809 2.11568 18.6886 1.93059 17.312C1.74998 15.9686 1.74999 14.2479 1.75 12.0572V11.9428C1.74999 9.75212 1.74998 8.03144 1.93059 6.68802C2.11568 5.31137 2.50272 4.21911 3.36091 3.36091C4.21911 2.50272 5.31137 2.11568 6.68802 1.93059C8.03144 1.74998 9.75212 1.74999 11.9428 1.75H12.0572Z" />
<path class="pr-icon-bulk-primary" fill-rule="evenodd" clip-rule="evenodd" d="M6.25 8L6.25 16C6.25 16.4142 6.58579 16.75 7 16.75C7.41421 16.75 7.75 16.4142 7.75 16L7.75 8C7.75 7.58579 7.41421 7.25 7 7.25C6.58579 7.25 6.25 7.58579 6.25 8Z" />
<path class="pr-icon-bulk-primary" d="M17 12.75C17.4142 12.75 17.75 12.4142 17.75 12C17.75 11.5858 17.4142 11.25 17 11.25L12.75 11.25L12.75 10.939C12.75 10.6653 12.7501 10.3967 12.7264 10.1889C12.7079 10.0261 12.6462 9.55368 12.2279 9.33716C11.8093 9.12048 11.43 9.36549 11.3014 9.4518C11.1367 9.56231 10.943 9.73106 10.7455 9.90312L10.7174 9.92757C10.4152 10.1907 10.0798 10.4968 9.81597 10.7998C9.68419 10.9511 9.55395 11.12 9.4532 11.2985C9.35855 11.4662 9.25 11.7115 9.25 12C9.25 12.2885 9.35855 12.5338 9.4532 12.7015C9.55395 12.88 9.68419 13.0488 9.81597 13.2002C10.0798 13.5032 10.4152 13.8093 10.7174 14.0724L10.7455 14.0969C10.943 14.2689 11.1367 14.4377 11.3014 14.5482C11.43 14.6345 11.8093 14.8795 12.2279 14.6628C12.6462 14.4463 12.7079 13.9739 12.7264 13.8111C12.7501 13.6033 12.75 13.3347 12.75 13.061L12.75 12.75L17 12.75Z" />
</svg>
