<svg width="24" height="24" viewBox="0 0 24 24" xmlns="http://www.w3.org/2000/svg">
<path opacity="0.4" d="M7.52522 8.34988C8.95364 8.28422 10.4042 8.25 12 8.25C13.5958 8.25 15.0464 8.28422 16.4748 8.34989C18.5328 8.4445 20.2039 10.0382 20.4755 12.0552C20.6236 13.1556 20.75 14.3118 20.75 15.5C20.75 16.6882 20.6236 17.8444 20.4755 18.9448C20.2039 20.9618 18.5328 22.5555 16.4748 22.6501C15.0464 22.7158 13.5958 22.75 12 22.75C10.4042 22.75 8.95364 22.7158 7.52522 22.6501C5.46716 22.5555 3.79609 20.9618 3.52452 18.9448C3.37636 17.8444 3.25 16.6882 3.25 15.5C3.25 14.3118 3.37636 13.1556 3.52452 12.0552C3.79609 10.0382 5.46716 8.4445 7.52522 8.34988Z" fill="currentColor"/>
<path fill-rule="evenodd" clip-rule="evenodd" d="M10.5 15.5C10.5 14.6716 11.1686 14 11.9933 14H12.0067C12.8314 14 13.5 14.6716 13.5 15.5C13.5 16.3284 12.8314 17 12.0067 17H11.9933C11.1686 17 10.5 16.3284 10.5 15.5Z" fill="currentColor"/>
<path d="M8.5 6.75C8.5 4.817 10.067 3.25 12 3.25C13.933 3.25 15.5 4.817 15.5 6.75V8.31016C15.827 8.32177 16.1515 8.33502 16.4748 8.34988C16.8298 8.3662 17.1732 8.42712 17.5 8.52712V6.75C17.5 3.71243 15.0376 1.25 12 1.25C8.96243 1.25 6.5 3.71243 6.5 6.75V8.52712C6.82676 8.42712 7.17023 8.3662 7.52522 8.34988C7.84854 8.33502 8.17299 8.32177 8.5 8.31016V6.75Z" fill="currentColor"/>
</svg>
