<svg width="24" height="24" viewBox="0 0 24 24" xmlns="http://www.w3.org/2000/svg">
<path opacity="0.4" d="M11.9428 1.75C9.75212 1.74999 8.03144 1.74998 6.68802 1.93059C5.31137 2.11568 4.21911 2.50272 3.36091 3.36091C2.50271 4.21911 2.11568 5.31137 1.93059 6.68802C1.74998 8.03144 1.74999 9.7521 1.75 11.9428V11.9428V12.0572V12.0572C1.74999 14.2479 1.74998 15.9686 1.93059 17.312C2.11568 18.6886 2.50271 19.7809 3.36091 20.6391C4.21911 21.4973 5.31137 21.8843 6.68802 22.0694C8.03144 22.25 9.7521 22.25 11.9428 22.25H11.9428H12.0572H12.0572C14.2479 22.25 15.9686 22.25 17.312 22.0694C18.6886 21.8843 19.7809 21.4973 20.6391 20.6391C21.4973 19.7809 21.8843 18.6886 22.0694 17.312C22.25 15.9686 22.25 14.2479 22.25 12.0572V11.9428C22.25 9.75212 22.25 8.03144 22.0694 6.68802C21.8843 5.31137 21.4973 4.21911 20.6391 3.36091C19.7809 2.50272 18.6886 2.11568 17.312 1.93059C15.9686 1.74998 14.2479 1.74999 12.0572 1.75H11.9428Z" fill="currentColor"/>
<path d="M11.3342 7.71864C11.3124 7.30499 10.9595 6.98727 10.5459 7.00899C10.4631 7.01334 10.3032 7.00665 10.0441 6.99267L9.98735 6.9896C9.76049 6.97729 9.49 6.96262 9.2218 6.95831C8.93454 6.9537 8.61781 6.9601 8.33233 7.00178C8.09082 7.03703 7.68837 7.11925 7.4032 7.40441C7.11804 7.68957 7.03582 8.09203 7.00057 8.33353C6.9589 8.61902 6.95249 8.93575 6.9571 9.22301C6.96141 9.49123 6.97609 9.76175 6.9884 9.98862L6.99147 10.0453C7.00544 10.3044 7.01213 10.4643 7.00779 10.5471C6.98607 10.9607 7.30379 11.3136 7.71743 11.3354C7.93823 11.347 8.14174 11.2618 8.2868 11.117L8.9942 10.4096L13.5904 15.0058L12.883 15.7132C12.7382 15.8583 12.653 16.0618 12.6646 16.2826C12.6864 16.6962 13.0393 17.0139 13.4529 16.9922C13.5357 16.9879 13.6956 16.9946 13.9547 17.0085L14.0114 17.0116C14.2383 17.0239 14.5088 17.0386 14.777 17.0429C15.0643 17.0475 15.381 17.0411 15.6665 16.9994C15.908 16.9642 16.3104 16.882 16.5956 16.5968C16.8808 16.3116 16.963 15.9092 16.9982 15.6677C17.0399 15.3822 17.0463 15.0655 17.0417 14.7782C17.0374 14.51 17.0227 14.2395 17.0104 14.0126L17.0073 13.9559C16.9934 13.6968 16.9867 13.5369 16.991 13.4541C17.0127 13.0405 16.695 12.6876 16.2814 12.6658C16.0604 12.6542 15.8568 12.7395 15.7117 12.8845L15.0046 13.5916L10.4084 8.99539L11.1155 8.28829C11.2605 8.14321 11.3458 7.93959 11.3342 7.71864Z" fill="currentColor"/>
</svg>
