<svg width="24" height="24" viewBox="0 0 24 24" xmlns="http://www.w3.org/2000/svg">
<path fill-rule="evenodd" clip-rule="evenodd" d="M9.94828 5.25H10.0517C11.8935 5.24999 13.3452 5.24998 14.4799 5.38831C15.6398 5.52971 16.5821 5.82656 17.3322 6.50675C18.0928 7.19645 18.4346 8.07914 18.5954 9.16426C18.75 10.2069 18.75 11.5352 18.75 13.1932V14.8068C18.75 16.4648 18.75 17.7931 18.5954 18.8357C18.4346 19.9209 18.0928 20.8035 17.3322 21.4933C16.5821 22.1734 15.6398 22.4703 14.4799 22.6117C13.3452 22.75 11.8935 22.75 10.0517 22.75H9.94827C8.1065 22.75 6.6548 22.75 5.52015 22.6117C4.36025 22.4703 3.4179 22.1734 2.66778 21.4933C1.90716 20.8035 1.56545 19.9209 1.40456 18.8357C1.24996 17.7931 1.24998 16.4648 1.25 14.8067V13.1933C1.24998 11.5352 1.24996 10.2069 1.40456 9.16426C1.56545 8.07914 1.90716 7.19645 2.66778 6.50675C3.4179 5.82656 4.36025 5.52971 5.52015 5.38831C6.6548 5.24998 8.1065 5.24999 9.94828 5.25ZM5.70168 6.87728C4.68307 7.00146 4.09682 7.23579 3.67537 7.61794C3.26442 7.99058 3.02034 8.49398 2.88834 9.38426C2.75193 10.3042 2.75 11.521 2.75 13.2541V14.7459C2.75 16.479 2.75193 17.6958 2.88834 18.6157C3.02034 19.506 3.26442 20.0094 3.67537 20.3821C4.09682 20.7642 4.68307 20.9985 5.70168 21.1227C6.73494 21.2487 8.09511 21.25 10 21.25C11.9049 21.25 13.2651 21.2487 14.2983 21.1227C15.3169 20.9985 15.9032 20.7642 16.3246 20.3821C16.7356 20.0094 16.9797 19.506 17.1117 18.6157C17.2481 17.6958 17.25 16.479 17.25 14.7459V13.2541C17.25 11.521 17.2481 10.3042 17.1117 9.38426C16.9797 8.49398 16.7356 7.99058 16.3246 7.61794C15.9032 7.23579 15.3169 7.00146 14.2983 6.87728C13.2651 6.75131 11.9049 6.75 10 6.75C8.09511 6.75 6.73494 6.75131 5.70168 6.87728Z" fill="currentColor"/>
<path class="pr-icon-bulk-secondary" d="M14.051 1.25C15.8927 1.24999 17.3444 1.24998 18.4791 1.38831C19.639 1.52971 20.5813 1.82656 21.3315 2.50675C22.0921 3.19645 22.4338 4.07914 22.5947 5.16426C22.7493 6.20695 22.7493 7.53517 22.7492 9.19327V9.1933V10.8067V10.8067C22.7493 12.4648 22.7493 13.793 22.5947 14.8357C22.4338 15.9209 22.0921 16.8035 21.3315 17.4933C20.4956 18.2512 19.4195 18.5343 18.0659 18.655L17.1915 17.8551C17.2496 17.0336 17.25 16.0279 17.25 14.7459V13.2541C17.25 11.521 17.2481 10.3043 17.1117 9.38426C16.9797 8.49398 16.7356 7.99058 16.3246 7.61794C15.9032 7.23579 15.3169 7.00146 14.2983 6.87728C13.2651 6.75131 11.9049 6.75 10 6.75C8.35461 6.75 7.11181 6.75061 6.12955 6.8336L5.31863 5.94233C5.43009 4.49713 5.73001 3.35639 6.66701 2.50675C7.41714 1.82656 8.35948 1.52971 9.51939 1.38831C10.654 1.24998 12.1057 1.24999 13.9475 1.25H13.9475H14.051H14.051Z" fill="currentColor"/>
<path class="pr-icon-bulk-secondary" d="M9.99864 9.25C10.6705 9.25 11.1206 9.75346 11.3633 10.2452L12.0592 11.6484L13.3631 11.8947C13.9033 11.9855 14.491 12.275 14.6898 12.8985C14.8882 13.521 14.578 14.0974 14.1904 14.486L14.1894 14.487L13.2137 15.5L13.474 16.7579C13.6 17.3093 13.6121 18.0753 13.0175 18.5123C12.4199 18.9516 11.6918 18.7048 11.2066 18.4159L10 17.7142L8.79197 18.4157C8.30507 18.7069 7.57876 18.9496 6.98197 18.5106C6.38883 18.0742 6.39745 17.3106 6.52445 16.7572L6.80362 15.5L5.80704 14.4851C5.42178 14.0967 5.11283 13.5211 5.30958 12.8998C5.50724 12.2757 6.09462 11.9855 6.63559 11.8946L7.93495 11.6487L8.6313 10.2445L8.63199 10.2431C8.87667 9.75224 9.32779 9.25 9.99864 9.25Z" fill="currentColor"/>
</svg>
