<svg width="24" height="24" viewBox="0 0 24 24" xmlns="http://www.w3.org/2000/svg">
    <path class="pr-icon-bulk-secondary" d="M4.25 9C4.25 4.71979 7.71979 1.25 12 1.25C16.2802 1.25 19.75 4.71979 19.75 9C19.75 13.2802 16.2802 16.75 12 16.75C7.71979 16.75 4.25 13.2802 4.25 9Z" />
    <path class="pr-icon-bulk-primary" d="M11.6213 4.79121C11.779 4.46803 12.221 4.46803 12.3787 4.79121L13.3085 6.69696C13.3702 6.82345 13.4861 6.91149 13.6203 6.93382L15.6414 7.27004C15.9839 7.32702 16.1204 7.76547 15.8755 8.02201L14.4286 9.53737C14.3328 9.63775 14.2886 9.77992 14.3097 9.91997L14.6286 12.0349C14.6826 12.393 14.3251 12.6641 14.0158 12.4995L12.1929 11.5295C12.0717 11.465 11.9283 11.465 11.8071 11.5295L9.98419 12.4995C9.6749 12.6641 9.31738 12.393 9.37139 12.0349L9.69029 9.91997C9.71141 9.77992 9.66722 9.63775 9.57138 9.53737L8.12453 8.02201C7.87959 7.76547 8.01609 7.32702 8.35863 7.27004L10.3797 6.93382C10.5139 6.91149 10.6298 6.82345 10.6915 6.69696L11.6213 4.79121Z" />
    <path class="pr-icon-bulk-primary" d="M5.24649 14.9492L3.69899 18.1217C3.55852 18.4095 3.42363 18.686 3.3446 18.9167C3.29073 19.0739 3.22036 19.3236 3.26325 19.5979C3.26752 19.6907 3.28808 19.7626 3.30147 19.8025C3.34418 19.9297 3.49692 20.1183 3.60384 20.1943C3.87895 20.3898 4.22826 20.4492 4.52787 20.4577C4.8535 20.4669 5.23131 20.419 5.64606 20.3069C5.99621 20.2122 6.20535 20.1566 6.36367 20.1305C6.54695 20.0918 6.63039 20.1953 6.6492 20.2519C6.71828 20.3825 6.79338 20.5691 6.92198 20.8936C7.10495 21.3552 7.30423 21.7516 7.51887 22.0523C7.70261 22.3097 8.01946 22.673 8.48759 22.7421C8.56392 22.7533 8.64154 22.7527 8.7177 22.7403C9.24251 22.6548 9.50451 22.2269 9.63274 21.9838C9.77246 21.7189 9.90931 21.3562 10.059 20.9595L11.1896 17.9641C8.82763 17.7533 6.72824 16.63 5.24649 14.9492Z" />
    <path class="pr-icon-bulk-primary" d="M12.8105 17.9642L13.9412 20.9596C14.0909 21.3563 14.2277 21.7191 14.3674 21.9839C14.4957 22.227 14.7577 22.655 15.2825 22.7405C15.3586 22.7529 15.4363 22.7535 15.5126 22.7422C15.9807 22.6731 16.2976 22.3098 16.4813 22.0524C16.696 21.7517 16.8952 21.3554 17.0782 20.8937C17.2068 20.5692 17.2819 20.3826 17.351 20.252C17.3698 20.1954 17.4532 20.0919 17.6365 20.1306C17.7948 20.1568 18.004 20.2124 18.3541 20.307C18.7689 20.4192 19.1467 20.4671 19.4723 20.4579C19.7719 20.4494 20.1212 20.3899 20.3963 20.1944C20.5033 20.1185 20.656 19.9298 20.6987 19.8026C20.7121 19.7627 20.7327 19.6908 20.7369 19.5981C20.7798 19.3238 20.7095 19.0741 20.6556 18.9168C20.5766 18.6861 20.4417 18.4097 20.3012 18.1218L18.7536 14.9492C17.2719 16.63 15.1725 17.7534 12.8105 17.9642Z" />
</svg>
