<svg width="24" height="24" viewBox="0 0 24 24" xmlns="http://www.w3.org/2000/svg">
<path fill-rule="evenodd" clip-rule="evenodd" d="M17 1.25C13.8244 1.25 11.25 3.82436 11.25 7C11.25 10.1756 13.8244 12.75 17 12.75C20.1756 12.75 22.75 10.1756 22.75 7C22.75 3.82436 20.1756 1.25 17 1.25ZM19.2504 6.20717C19.6408 6.06889 19.8453 5.64027 19.707 5.24982C19.5687 4.85937 19.1401 4.65495 18.7496 4.79323C18.2675 4.96399 17.8199 5.28384 17.4411 5.61601C17.0546 5.955 16.6963 6.34574 16.3947 6.70726C16.2485 6.88246 16.1135 7.05341 15.9928 7.21192C15.9046 7.12935 15.8162 7.05964 15.7285 7.00117C15.5696 6.89522 15.4205 6.83142 15.292 6.79469C15.2282 6.77648 15.1052 6.74377 15 6.7502C14.5858 6.7502 14.25 7.08599 14.25 7.5002C14.25 7.87492 14.5248 8.18546 14.8839 8.24127C14.9396 8.2784 15.1237 8.42459 15.3292 8.83561C15.4501 9.07738 15.6917 9.2354 15.9616 9.24922C16.2315 9.26304 16.4882 9.13018 16.6332 8.90213C16.796 8.67148 17.276 7.9924 17.5465 7.66815C17.8184 7.34217 18.1219 7.01416 18.4302 6.74377C18.7463 6.46657 19.0266 6.28642 19.2504 6.20717Z" fill="currentColor"/>
<path opacity="0.4" d="M10.0784 5.25009C9.86488 5.97202 9.75 6.73859 9.75 7.53297C9.75 10.4775 11.3284 13.0402 13.6566 14.3623C12.9088 14.8875 11.9879 15.1946 11 15.1946C9.6271 15.1946 8.38384 14.6016 7.55445 13.6545C6.93173 14.5851 5.86012 15.1946 4.65388 15.1946C3.80601 15.1946 3.02588 14.8941 2.42167 14.3938C1.96823 14.0183 1.60616 13.5131 1.39439 12.9516C1.35623 12.8507 1.30141 12.7058 1.2727 12.5251C1.24264 12.3357 1.24527 12.1421 1.26412 11.9184C1.31156 11.3557 1.5096 11.0163 1.74172 10.6185L2.63122 9.09232C2.8715 8.68005 2.99729 8.21459 2.99729 7.74179C2.99729 6.35182 4.14237 5.25016 5.5236 5.25015L10.0784 5.25009Z" fill="currentColor"/>
<path d="M2.14991 14.1416L2.1499 16.7961C2.14987 17.9341 2.14984 18.8844 2.25493 19.639C2.36605 20.4368 2.61064 21.156 3.20813 21.7328C3.80394 22.3079 4.54412 22.5418 5.36483 22.6483C6.14411 22.7495 7.12637 22.7494 8.30719 22.7494H13.6926C14.8734 22.7494 15.8557 22.7495 16.635 22.6483C17.4557 22.5418 18.1959 22.3079 18.7917 21.7328C19.3892 21.156 19.6338 20.4368 19.7449 19.639C19.85 18.8844 19.8499 17.9342 19.8499 16.7961V14.8417C19.2352 15.0753 18.5829 15.228 17.9049 15.2875V16.7295C17.9049 17.9516 17.9027 18.7713 17.8176 19.3826C17.7364 19.9652 17.5965 20.2146 17.4249 20.3802C17.2516 20.5475 16.9883 20.6848 16.379 20.7639C15.7428 20.8464 14.8907 20.8484 13.6257 20.8484H8.37408C7.1091 20.8484 6.257 20.8464 5.62086 20.7639C5.01147 20.6848 4.74819 20.5475 4.57492 20.3802C4.40332 20.2146 4.26337 19.9652 4.18221 19.3826C4.09708 18.7713 4.09496 17.9516 4.09496 16.7295L4.09497 15.1499C3.465 15.0493 2.8904 14.7815 2.42167 14.3933C2.32691 14.3149 2.23615 14.2307 2.14991 14.1416Z" fill="currentColor"/>
</svg>
