<svg width="24" height="24" viewBox="0 0 24 24" xmlns="http://www.w3.org/2000/svg">
<path class="pr-icon-bulk-secondary" d="M3.06643 3.83434C3.06643 2.33286 4.29103 1.125 5.79012 1.125H17.9599C19.459 1.125 20.6836 2.33286 20.6836 3.83434C20.6836 4.38472 20.8282 4.92589 21.1037 5.40439L22.0899 7.11774C22.3487 7.56695 22.5589 7.93169 22.6097 8.54169C22.6303 8.78956 22.6326 8.99812 22.601 9.19941C22.5708 9.39221 22.5131 9.54669 22.4706 9.66039L22.4644 9.67725C21.9315 11.1079 20.5473 12.125 18.9263 12.125C17.57 12.125 16.3773 11.412 15.7124 10.3394C14.8088 11.4325 13.4196 12.125 11.875 12.125C10.3304 12.125 8.94117 11.4325 8.03759 10.3394C7.37273 11.412 6.18006 12.125 4.82375 12.125C3.20268 12.125 1.81855 11.1079 1.28565 9.67725L1.27936 9.66038C1.2369 9.54669 1.17921 9.39221 1.14897 9.19941C1.1174 8.99812 1.11969 8.78957 1.14033 8.54169C1.19113 7.93168 1.40128 7.56695 1.66009 7.11774L2.64633 5.40439C2.92177 4.92589 3.06643 4.38472 3.06643 3.83434Z" fill="currentColor"/>
<path fill-rule="evenodd" clip-rule="evenodd" d="M5.875 16.875C5.875 16.3227 6.32272 15.875 6.875 15.875H10.875C11.4273 15.875 11.875 16.3227 11.875 16.875C11.875 17.4273 11.4273 17.875 10.875 17.875H6.875C6.32272 17.875 5.875 17.4273 5.875 16.875Z" fill="currentColor"/>
<path fill-rule="evenodd" clip-rule="evenodd" d="M22.5821 15.1679C22.9726 15.5584 22.9726 16.1916 22.5821 16.5821L20.2892 18.875L22.5821 21.1679C22.9726 21.5584 22.9726 22.1916 22.5821 22.5821C22.1916 22.9726 21.5584 22.9726 21.1679 22.5821L18.875 20.2892L16.5821 22.5821C16.1916 22.9726 15.5584 22.9726 15.1679 22.5821C14.7774 22.1916 14.7774 21.5584 15.1679 21.1679L17.4608 18.875L15.1679 16.5821C14.7774 16.1916 14.7774 15.5584 15.1679 15.1679C15.5584 14.7774 16.1916 14.7774 16.5821 15.1679L18.875 17.4608L21.1679 15.1679C21.5584 14.7774 22.1916 14.7774 22.5821 15.1679Z" fill="currentColor"/>
<path d="M1.875 10.7148L1.875 14.6969C1.87497 16.051 1.87494 17.1677 1.99376 18.0514C2.1185 18.9792 2.39047 19.7987 3.04658 20.4548C3.70269 21.1109 4.52211 21.3828 5.44994 21.5076C6.3337 21.6264 7.45031 21.6264 8.80443 21.6263H12.875C13.4273 21.6263 13.875 21.1786 13.875 20.6263C13.875 20.0741 13.4273 19.6263 12.875 19.6263H8.875C7.43252 19.6263 6.45126 19.6242 5.71644 19.5254C5.01038 19.4305 4.68336 19.2631 4.46079 19.0406C4.23822 18.818 4.07085 18.491 3.97592 17.7849C3.87713 17.0501 3.875 16.0688 3.875 14.6263V12.0067C3.07437 11.8004 2.37658 11.3392 1.875 10.7148Z" fill="currentColor"/>
<path d="M19.875 12.0067V12.8763C19.875 13.4286 20.3227 13.8763 20.875 13.8763C21.4273 13.8763 21.875 13.4286 21.875 12.8763V10.7148C21.3734 11.3392 20.6756 11.8004 19.875 12.0067Z" fill="currentColor"/>
</svg>
