<svg width="24" height="24" viewBox="0 0 24 24" xmlns="http://www.w3.org/2000/svg">
<path fill-rule="evenodd" clip-rule="evenodd" d="M8.25214 16.0862C8.61876 15.6731 9.25081 15.6355 9.66385 16.0021C10.1297 16.4156 10.9662 16.75 12 16.75C13.0338 16.75 13.8704 16.4156 14.3362 16.0021C14.7492 15.6355 15.3813 15.6731 15.7479 16.0862C16.1145 16.4992 16.0769 17.1313 15.6639 17.4979C14.7615 18.2989 13.4197 18.75 12 18.75C10.5803 18.75 9.23856 18.2989 8.33617 17.4979C7.92313 17.1313 7.88551 16.4992 8.25214 16.0862Z" fill="currentColor"/>
<path class="pr-icon-bulk-secondary" d="M17.4659 1.75C18.1014 1.74998 18.6428 1.74995 19.0862 1.80238C19.5603 1.85843 19.9974 1.9811 20.3931 2.27649C20.7867 2.57024 21.0328 2.95546 21.2305 3.39554C21.4172 3.811 21.5873 4.33952 21.789 4.96638L22.4853 7.12954L22.5002 7.17604C22.6763 7.72227 22.8175 8.16018 22.7141 8.82232C22.6713 9.09674 22.6166 9.32192 22.5239 9.53046C22.4367 9.72661 22.328 9.87688 22.2446 9.99204L22.2323 10.0092C21.2481 11.3718 19.4436 12.25 17.7543 12.25C16.6746 12.25 15.6772 11.8933 14.8766 11.2923C14.0759 11.8937 13.0789 12.25 11.9989 12.25C10.9195 12.25 9.92238 11.8935 9.12194 11.2928C8.32127 11.8939 7.32456 12.25 6.24489 12.25C4.55562 12.25 2.75108 11.3718 1.76692 10.0092L1.75455 9.99206C1.67123 9.8769 1.56251 9.72662 1.4753 9.53046C1.38259 9.32192 1.32789 9.09674 1.28506 8.82231C1.18173 8.16018 1.32288 7.72227 1.49895 7.17603L1.51393 7.12954L2.19765 5.0053L2.21018 4.9664L2.21018 4.96639C2.41192 4.33952 2.58202 3.811 2.76865 3.39554C2.96634 2.95546 3.2125 2.57024 3.60604 2.27649C4.00177 1.9811 4.43892 1.85843 4.91299 1.80238C5.35639 1.74995 5.89776 1.74998 6.53326 1.75H6.53329H17.4659H17.4659Z" fill="currentColor"/>
<path d="M2 10.3056L2 15.3209C1.99997 16.675 1.99994 17.7917 2.11876 18.6754C2.2435 19.6032 2.51547 20.4227 3.17158 21.0788C3.82769 21.7349 4.64711 22.0068 5.57494 22.1316C6.4587 22.2504 7.57531 22.2504 8.92943 22.2503H15.0706C16.4247 22.2504 17.5413 22.2504 18.4251 22.1316C19.3529 22.0068 20.1723 21.7349 20.8284 21.0788C21.4845 20.4227 21.7565 19.6032 21.8813 18.6754C22.0001 17.7916 22 16.675 22 15.3209V10.3047C21.4718 10.923 20.7707 11.4231 20 11.7613V15.2503C20 16.6928 19.9979 17.6741 19.8991 18.4089C19.8042 19.115 19.6368 19.442 19.4142 19.6645C19.1916 19.8871 18.8646 20.0545 18.1586 20.1494C17.4238 20.2482 16.4425 20.2503 15 20.2503H9C7.55752 20.2503 6.57626 20.2482 5.84144 20.1494C5.13538 20.0545 4.80836 19.8871 4.58579 19.6645C4.36322 19.442 4.19585 19.115 4.10092 18.4089C4.00213 17.6741 4 16.6928 4 15.2503V11.7617C3.22942 11.4236 2.52831 10.9238 2 10.3056Z" fill="currentColor"/>
</svg>
