<svg width="24" height="24" viewBox="0 0 24 24" xmlns="http://www.w3.org/2000/svg">
<path class="pr-icon-bulk-secondary" d="M1.82601 15.8232C3.37382 11.4282 7.3198 8.24997 11.9999 8.24997C16.68 8.24997 20.626 11.4282 22.1738 15.8232L22.1973 15.8899C22.4408 16.5809 22.6628 17.2109 22.7287 17.7746C22.805 18.4269 22.6798 19.0145 22.2599 19.5974C21.8149 20.2151 21.2207 20.5024 20.5155 20.6324C19.8772 20.7501 19.0773 20.75 18.146 20.75H18.146H5.85383H5.85379C4.92247 20.75 4.12257 20.7501 3.48426 20.6324C2.77906 20.5024 2.18489 20.2151 1.73989 19.5974C1.31997 19.0145 1.19477 18.4269 1.27108 17.7746C1.33701 17.2109 1.55902 16.5809 1.80249 15.8899L1.82601 15.8232Z" fill="currentColor"/>
<path class="pr-icon-bulk-primary" fill-rule="evenodd" clip-rule="evenodd" d="M15.0291 4.24897C13.2662 2.91705 10.7338 2.91705 8.97092 4.24897C8.52675 4.58456 7.97329 4.79228 7.39169 4.83343L7.19226 4.84754C5.01397 5.00165 3.21114 6.626 3.02038 8.74532C2.97693 9.22803 2.76446 9.6955 2.40642 10.068C1.00364 11.5274 0.874229 13.6862 2.03376 15.2757C2.35238 14.4932 2.74849 13.7539 3.212 13.0697C3.16178 12.477 3.36544 11.869 3.82648 11.3894C4.48024 10.7092 4.88418 9.83843 4.9673 8.91496C5.06693 7.80812 6.03524 6.85743 7.33245 6.76566L7.53187 6.75155C8.48866 6.68385 9.40864 6.34291 10.1613 5.77421C11.2221 4.97273 12.7779 4.97273 13.8387 5.77421C14.5914 6.34291 15.5113 6.68386 16.4681 6.75155L16.6676 6.76566C17.9648 6.85743 18.9331 7.80812 19.0327 8.91496C19.1158 9.83843 19.5198 10.7092 20.1735 11.3894C20.6346 11.8691 20.8383 12.4772 20.788 13.07C21.2514 13.7541 21.6475 14.4934 21.9661 15.2759C23.1258 13.6864 22.9964 11.5274 21.5936 10.068C21.2355 9.6955 21.0231 9.22803 20.9796 8.74532C20.7889 6.626 18.986 5.00165 16.8077 4.84754L16.6083 4.83343C16.0267 4.79228 15.4733 4.58456 15.0291 4.24897Z" fill="currentColor"/>
<path class="pr-icon-bulk-primary" fill-rule="evenodd" clip-rule="evenodd" d="M5.9895 14C5.9895 13.4477 6.43722 13 6.9895 13H6.99844C7.55073 13 7.99844 13.4477 7.99844 14C7.99844 14.5523 7.55073 15 6.99844 15H6.9895C6.43722 15 5.9895 14.5523 5.9895 14ZM4.48828 17C4.48828 16.4477 4.936 16 5.48828 16H5.49722C6.04951 16 6.49722 16.4477 6.49722 17C6.49722 17.5523 6.04951 18 5.49722 18H5.48828C4.936 18 4.48828 17.5523 4.48828 17Z" fill="currentColor"/>
</svg>
