<svg width="24" height="24" viewBox="0 0 24 24" xmlns="http://www.w3.org/2000/svg">
<path opacity="0.4" d="M17.7695 6.75001C18.2934 6.74999 18.7391 6.74997 19.1095 6.78597C19.5041 6.82433 19.8702 6.90748 20.2225 7.10696C20.5748 7.30644 20.8344 7.57754 21.0703 7.89618C21.2918 8.19526 21.5211 8.57752 21.7906 9.02673L23.1146 11.2332C23.3577 11.6379 23.5498 11.9575 23.6502 12.3199C23.7505 12.6823 23.7503 13.0552 23.75 13.5273V13.5273L23.7499 15.5448V15.5448C23.75 15.9776 23.75 16.3744 23.7066 16.6972C23.6589 17.0527 23.5464 17.4284 23.2374 17.7374C22.9284 18.0465 22.5526 18.1589 22.1972 18.2067C22.0318 18.2289 21.847 18.2398 21.6478 18.245C21.323 19.4018 20.2605 20.25 18.9999 20.25C17.7412 20.25 16.6799 19.4043 16.3535 18.25H14.9999C14.5857 18.25 14.2499 17.9142 14.2499 17.5L14.2499 9.45526C14.2499 9.02244 14.2498 8.62561 14.2932 8.3028C14.341 7.94732 14.4535 7.57159 14.7625 7.26257C15.0715 6.95355 15.4473 6.8411 15.8027 6.79331C16.1255 6.74991 16.5224 6.74995 16.9552 6.75L17.7695 6.75001Z" fill="currentColor"/>
<path d="M17.7499 8.25V10.5C17.7499 10.9926 17.7515 11.2866 17.7799 11.4973C17.7881 11.5656 17.8442 11.7057 18.0026 11.7201C18.2133 11.7484 18.5073 11.75 18.9999 11.75H21.6753L20.522 9.82789C20.2301 9.3413 20.0377 9.02232 19.8648 8.78873C19.7015 8.5682 19.5896 8.47237 19.4834 8.41225C19.3772 8.35213 19.2375 8.30548 18.9644 8.27893C18.6776 8.25106 18.3091 8.25002 17.7499 8.25Z" fill="currentColor"/>
<path d="M18.9999 16.25C18.3096 16.25 17.7499 16.8096 17.7499 17.5C17.7499 18.1904 18.3096 18.75 18.9999 18.75C19.6903 18.75 20.2499 18.1904 20.2499 17.5C20.2499 16.8096 19.6903 16.25 18.9999 16.25Z" fill="currentColor"/>
<path opacity="0.4" d="M12.9999 14.2501L2.20193 14.25C2.02002 14.2498 1.83071 14.2495 1.65863 14.2837C0.964419 14.4218 0.421748 14.9645 0.283661 15.6587C0.249432 15.8308 0.249715 16.1163 0.249988 16.2982C0.249715 16.4801 0.249432 16.6694 0.283661 16.8415C0.421749 17.5357 0.96442 18.0784 1.65863 18.2165C1.83071 18.2507 2.02002 18.2504 2.20194 18.2501L2.35355 18.2501C2.68002 19.4043 3.74126 20.2501 5.00004 20.2501C6.25881 20.2501 7.32006 19.4043 7.64652 18.2501H12.9999V14.2501Z" fill="currentColor"/>
<path fill-rule="evenodd" clip-rule="evenodd" d="M4.99994 16.25C4.30958 16.25 3.74994 16.8096 3.74994 17.5C3.74994 18.1904 4.30958 18.75 4.99994 18.75C5.69029 18.75 6.24994 18.1904 6.24994 17.5C6.24994 16.8096 5.69029 16.25 4.99994 16.25Z" fill="currentColor"/>
<path opacity="0.4" d="M4.07842 3.75011H9.42146C10.3982 3.74887 11.206 3.74785 11.9644 4.35909C12.3197 4.64549 12.558 4.9456 12.7233 5.3177C12.8659 5.63882 12.9438 5.99745 13.02 6.3488C13.1629 7.00624 13.2499 7.76105 13.2499 8.50022C13.2499 9.23939 13.1629 9.9942 13.02 10.6516C12.9438 11.003 12.8659 11.3616 12.7233 11.6827C12.558 12.0548 12.3197 12.355 11.9644 12.6414C11.206 13.2526 10.3982 13.2516 9.42146 13.2503H4.07842C3.10165 13.2516 2.29387 13.2526 1.53548 12.6414C1.18013 12.355 0.941833 12.0548 0.776563 11.6827C0.633938 11.3616 0.55611 11.003 0.479865 10.6516C0.33695 9.99421 0.249939 9.23939 0.249939 8.50022C0.249939 7.76105 0.33695 7.00624 0.479865 6.34879C0.55611 5.99745 0.633938 5.63882 0.776563 5.3177C0.941833 4.9456 1.18013 4.64549 1.53548 4.35909C2.29387 3.74785 3.10165 3.74887 4.07842 3.75011Z" fill="currentColor"/>
<path d="M3.99994 13.2504V3.75C4.02598 3.75002 4.05214 3.75005 4.07842 3.75009H5.49994V13.2503H4.07842C4.05214 13.2503 4.02598 13.2504 3.99994 13.2504Z" fill="currentColor"/>
<path d="M9.49994 13.2504C9.4739 13.2504 9.44774 13.2503 9.42146 13.2503H7.99994V3.75009H9.42146C9.44774 3.75005 9.4739 3.75002 9.49994 3.75V13.2504Z" fill="currentColor"/>
</svg>
