<svg width="24" height="24" viewBox="0 0 24 24" xmlns="http://www.w3.org/2000/svg">
<path class="pr-icon-bulk-secondary" d="M12.0572 1.75C14.2479 1.74999 15.9686 1.74998 17.312 1.93059C18.6886 2.11568 19.7809 2.50272 20.6391 3.36091C21.4973 4.21911 21.8843 5.31137 22.0694 6.68802C22.25 8.03144 22.25 9.7521 22.25 11.9428V11.9428V12.0572V12.0572C22.25 14.2479 22.25 15.9686 22.0694 17.312C21.8843 18.6886 21.4973 19.7809 20.6391 20.6391C19.7809 21.4973 18.6886 21.8843 17.312 22.0694C15.9686 22.25 14.2479 22.25 12.0572 22.25H12.0572H11.9428H11.9428C9.7521 22.25 8.03144 22.25 6.68802 22.0694C5.31137 21.8843 4.21911 21.4973 3.36091 20.6391C2.50272 19.7809 2.11568 18.6886 1.93059 17.312C1.74998 15.9686 1.74999 14.2479 1.75 12.0572V11.9428C1.74999 9.75212 1.74998 8.03144 1.93059 6.68802C2.11568 5.31137 2.50272 4.21911 3.36091 3.36091C4.21911 2.50272 5.31137 2.11568 6.68802 1.93059C8.03144 1.74998 9.75212 1.74999 11.9428 1.75H12.0572Z" />
<path class="pr-icon-bulk-primary" d="M12.6525 14.7136L12.475 14.1571C12.3295 13.701 12.2567 13.473 12.3127 13.293C12.3579 13.1473 12.4573 13.0217 12.5927 12.9391C12.76 12.8369 13.0131 12.8369 13.5194 12.8369H13.7887C15.5021 12.8369 16.3588 12.8369 16.7634 12.3447C16.8097 12.2884 16.8508 12.2286 16.8864 12.1659C17.1977 11.6168 16.8438 10.8773 16.136 9.39811C15.4865 8.04072 15.1617 7.36203 14.5587 6.96255C14.5003 6.92387 14.4403 6.8874 14.3789 6.8532C13.744 6.5 12.9574 6.5 11.3843 6.5H11.0431C9.13715 6.5 8.18419 6.5 7.59209 7.05681C7 7.61363 7 8.50981 7 10.3022V10.9321C7 11.8741 7 12.345 7.17223 12.7761C7.34445 13.2071 7.67424 13.5616 8.3338 14.2705L11.0614 17.202C11.1298 17.2755 11.164 17.3123 11.1942 17.3377C11.4757 17.5755 11.9102 17.5488 12.1563 17.2785C12.1826 17.2495 12.2115 17.2089 12.2691 17.1276C12.3592 17.0004 12.4043 16.9369 12.4436 16.8739C12.7952 16.31 12.9016 15.6401 12.7405 15.0042C12.7225 14.9332 12.6992 14.8599 12.6525 14.7136Z" />
</svg>
