<svg width="24" height="24" viewBox="0 0 24 24" xmlns="http://www.w3.org/2000/svg">
<path class="pr-icon-bulk-secondary" d="M8.51198 12.5835L7.19579 11.0933C5.77676 9.48658 3.23051 9.66526 2.04655 11.4526C1.21907 12.7018 1.34139 14.357 2.34429 15.4695L4.43319 17.7867C5.18388 18.6195 5.78061 19.2814 6.30715 19.7318C6.84593 20.1926 7.38218 20.4955 8.01732 20.5013C8.65975 20.5071 9.21741 20.1916 9.78507 19.7164C10.3454 19.2474 10.9939 18.5535 11.8149 17.675L11.815 17.675L11.8396 17.6486C12.1037 17.366 12.3669 17.0916 12.6298 16.8239C12.6298 16.8239 8.93154 13.003 8.51198 12.5835Z" fill="currentColor"/>
<path class="pr-icon-bulk-primary" d="M21.8556 4.79607C20.7806 3.35353 18.7215 3.05073 17.3184 4.21459C13.9462 7.0116 11.3229 9.70493 8.83856 12.5784L4.4545 16.9624C4.3931 17.0238 4.36237 17.0546 4.34021 17.0845C4.2153 17.2535 4.20937 17.4826 4.32537 17.6578C4.34595 17.6889 4.37503 17.7211 4.43319 17.7856C5.18388 18.6184 5.78061 19.2804 6.30715 19.7307C6.84593 20.1915 7.38218 20.4945 8.01732 20.5002C8.65975 20.5061 9.21741 20.1906 9.78507 19.7154C10.3454 19.2463 10.9939 18.5524 11.815 17.6739L11.8396 17.6475C14.1197 15.208 16.331 13.3751 18.8862 11.2574C19.678 10.601 20.5032 9.91712 21.3734 9.17948C22.6729 8.07799 22.8678 6.15429 21.8556 4.79607Z" fill="currentColor"/>
</svg>
