<svg width="24" height="24" viewBox="0 0 24 24" xmlns="http://www.w3.org/2000/svg">
<path opacity="0.4" d="M9.70802 11C10.0938 10.117 10.9748 9.5 12 9.5C13.3807 9.5 14.5 10.6193 14.5 12C14.5 13.0252 13.883 13.9062 13 14.292V16C13 16.5523 12.5523 17 12 17C11.4477 17 11 16.5523 11 16V14.292C10.4233 14.04 9.96 13.5767 9.70802 13H6C5.44772 13 5 12.5523 5 12C5 11.4477 5.44772 11 6 11H9.70802Z" fill="currentColor"/>
<path opacity="0.4" fill-rule="evenodd" clip-rule="evenodd" d="M1.9179 14.0047C2.42982 13.8337 2.98344 14.1101 3.15444 14.622C3.28153 15.0025 3.43058 15.3725 3.60002 15.7303C3.83099 16.2181 3.62278 16.8008 3.13498 17.0318C2.64717 17.2627 2.06448 17.0545 1.83351 16.5667C1.63082 16.1386 1.45257 15.6962 1.30061 15.2413C1.12961 14.7294 1.40598 14.1757 1.9179 14.0047ZM3.66734 17.8519C4.0765 17.4999 4.69353 17.5463 5.04551 17.9554C5.32659 18.2822 5.62827 18.5895 5.94838 18.8754C6.35096 19.2349 6.38588 19.8527 6.02639 20.2552C5.6669 20.6578 5.04911 20.6927 4.64654 20.3332C4.26231 19.9901 3.90057 19.6215 3.56381 19.2301C3.21183 18.8209 3.25818 18.2039 3.66734 17.8519ZM6.91199 20.8465C7.14394 20.3591 7.72705 20.1521 8.21439 20.384C8.58683 20.5613 8.97201 20.7147 9.36809 20.8423C9.8818 21.0079 10.1641 21.5585 9.99851 22.0722C9.83297 22.5859 9.28232 22.8682 8.76861 22.7026C8.28953 22.5483 7.82405 22.3629 7.37441 22.1489C6.88707 21.9169 6.68004 21.3338 6.91199 20.8465Z" fill="currentColor"/>
<path fill-rule="evenodd" clip-rule="evenodd" d="M2.22726 12.9774C1.68753 12.9774 1.25 12.5399 1.25 12.0001C1.25 6.06315 6.06288 1.25027 11.9999 1.25027C17.9369 1.25027 22.7497 6.06315 22.7497 12.0001C22.7497 17.9371 17.9369 22.75 11.9999 22.75C11.4601 22.75 11.0226 22.3125 11.0226 21.7727C11.0226 21.233 11.4601 20.7955 11.9999 20.7955C16.8574 20.7955 20.7952 16.8577 20.7952 12.0001C20.7952 7.1426 16.8574 3.20479 11.9999 3.20479C7.14233 3.20479 3.20452 7.1426 3.20452 12.0001C3.20452 12.5399 2.76699 12.9774 2.22726 12.9774Z" fill="currentColor"/>
</svg>
