<svg width="24" height="24" viewBox="0 0 24 24" xmlns="http://www.w3.org/2000/svg">
    <path class="pr-icon-bulk-secondary" d="M1.25 12C1.25 6.06294 6.06294 1.25 12 1.25C17.9371 1.25 22.75 6.06294 22.75 12C22.75 17.9371 17.9371 22.75 12 22.75C6.06294 22.75 1.25 17.9371 1.25 12Z" />
    <path class="pr-icon-bulk-primary" fill-rule="evenodd" clip-rule="evenodd" d="M16.7071 7.29289C17.0976 7.68342 17.0976 8.31658 16.7071 8.70711L13.4143 11.9999L13.707 12.2925C14.0975 12.683 14.0975 13.3162 13.707 13.7067C13.3165 14.0973 12.6833 14.0973 12.2928 13.7068L12.0001 13.4141L11.7071 13.7071C11.3166 14.0976 10.6834 14.0976 10.2929 13.7071C9.90237 13.3166 9.90237 12.6834 10.2929 12.2929L10.5858 11.9999L8.79292 10.2071C8.40238 9.81662 8.40236 9.18346 8.79287 8.79292C9.18338 8.40238 9.81654 8.40236 10.2071 8.79287L12.0001 10.5857L15.2929 7.29289C15.6834 6.90237 16.3166 6.90237 16.7071 7.29289Z" />
</svg>
