<svg width="24" height="24" viewBox="0 0 24 24" xmlns="http://www.w3.org/2000/svg">
<path opacity="0.4" d="M8.36333 1.84779C8.71985 1.64537 9.17284 1.76673 9.38041 2.12028C10.5548 4.12055 13.4469 4.12059 14.6212 2.12038C14.8287 1.76683 15.2817 1.64546 15.6383 1.84789L19.1024 3.8147C19.277 3.91384 19.4045 4.07886 19.4565 4.27281C19.5085 4.46677 19.4805 4.67346 19.3788 4.84662C18.2403 6.78596 19.6948 9.28324 22 9.28324C22.4142 9.28324 22.75 9.61902 22.75 10.0332V13.9669C22.75 14.3811 22.4142 14.7169 22 14.7169C19.6954 14.7169 18.2416 17.2136 19.3804 19.1534C19.4821 19.3265 19.51 19.5332 19.4581 19.7272C19.4061 19.9211 19.2786 20.0862 19.1039 20.1853L15.6398 22.1521C15.2833 22.3545 14.8303 22.2332 14.6228 21.8796C13.4477 19.8782 10.5539 19.8782 9.37882 21.8797C9.17126 22.2333 8.71827 22.3546 8.36175 22.1522L4.89765 20.1854C4.72303 20.0863 4.59546 19.9212 4.5435 19.7273C4.49154 19.5333 4.51952 19.3266 4.62118 19.1535C5.75974 17.2141 4.30517 14.7169 2 14.7169C1.58579 14.7169 1.25 14.3811 1.25 13.9669V10.0332C1.25 9.61902 1.58579 9.28324 2 9.28324C4.30575 9.28324 5.76109 6.78545 4.62276 4.84653C4.5211 4.67337 4.49312 4.46667 4.54508 4.27272C4.59704 4.07876 4.72461 3.91374 4.89923 3.8146L8.36333 1.84779Z" fill="currentColor"/>
<path fill-rule="evenodd" clip-rule="evenodd" d="M12 6.99988C12.5523 6.99988 13 7.44759 13 7.99988V11.4008L15.2754 12.6181C15.7624 12.8787 15.946 13.4846 15.6855 13.9716C15.4249 14.4586 14.8189 14.6422 14.332 14.3816L11.5283 12.8816C11.203 12.7076 11 12.3687 11 11.9999V7.99988C11 7.44759 11.4477 6.99988 12 6.99988Z" fill="currentColor"/>
</svg>
