<svg width="24" height="24" viewBox="0 0 24 24" xmlns="http://www.w3.org/2000/svg">
<path fill-rule="evenodd" clip-rule="evenodd" d="M12 2C14.3307 2 16.4902 2.47023 18.1041 3.27715C19.6581 4.05416 21 5.3126 21 7C21 8.6874 19.6581 9.94584 18.1041 10.7229C16.4902 11.5298 14.3307 12 12 12C9.66928 12 7.50977 11.5298 5.89593 10.7229C4.34191 9.94584 3 8.6874 3 7C3 5.3126 4.34191 4.05416 5.89593 3.27715C7.50977 2.47023 9.66928 2 12 2ZM6.79036 8.934C8.07196 9.5748 9.91244 10 12 10C14.0876 10 15.928 9.5748 17.2096 8.934C18.5511 8.26329 19 7.52174 19 7C19 6.47826 18.5511 5.73671 17.2096 5.066C15.928 4.4252 14.0876 4 12 4C9.91244 4 8.07196 4.4252 6.79036 5.066C5.44895 5.73671 5 6.47826 5 7C5 7.52174 5.44895 8.26329 6.79036 8.934Z" fill="currentColor"/>
<path class="pr-icon-bulk-secondary" d="M6.95502 11.1759C5.90519 11.7865 5 12.7302 5 14C5 15.4113 6.11805 16.4197 7.31015 17.0158C7.48586 17.1036 7.66961 17.1862 7.86059 17.2633C7.37287 17.6911 7 18.267 7 19C7 20.1351 7.8942 20.8936 8.72436 21.3087C9.61434 21.7537 10.7738 22 12 22C13.2262 22 14.3857 21.7537 15.2756 21.3087C16.1058 20.8936 17 20.1351 17 19C17 18.4477 16.5523 18 16 18C15.4477 18 15 18.4477 15 19C15 19 14.9999 19.0026 14.9994 19.0055C14.9988 19.0084 14.9972 19.0146 14.9932 19.0243C14.9852 19.0441 14.9658 19.0811 14.9222 19.1327C14.831 19.2405 14.6598 19.3805 14.3812 19.5198C13.8235 19.7987 12.983 20 12 20C11.017 20 10.1765 19.7987 9.61879 19.5198C9.3402 19.3805 9.16902 19.2405 9.07781 19.1327C9.03417 19.0811 9.01484 19.0441 9.00676 19.0243C9.00277 19.0146 9.00124 19.0084 9.00064 19.0055C9.00007 19.0026 9 18.9997 9 18.9997C9 18.9997 9.00012 18.9971 9.00064 18.9946C9.00124 18.9916 9.00277 18.9855 9.00676 18.9757C9.01484 18.956 9.03417 18.919 9.07781 18.8674C9.16902 18.7596 9.3402 18.6195 9.61879 18.4802C10.1765 18.2014 11.017 18 12 18C13.7784 18 15.4379 17.6417 16.6899 17.0158C17.8819 16.4197 19 15.4113 19 14C19 13.4477 18.5523 13 18 13C17.4477 13 17 13.4477 17 14C17 14.2456 16.7749 14.7372 15.7954 15.2269C14.8758 15.6868 13.5353 16 12 16C10.4647 16 9.12424 15.6868 8.20457 15.2269C7.22509 14.7372 7 14.2456 7 14C7 13.7544 7.22509 13.2629 8.20457 12.7731C9.12424 12.3133 10.4647 12 12 12C10.1475 12 8.40317 11.703 6.95502 11.1759Z" fill="currentColor"/>
</svg>
