<svg width="24" height="24" viewBox="0 0 24 24" xmlns="http://www.w3.org/2000/svg">
<path opacity="0.4" d="M12.0698 4.24988H11.9302H11.9302C10.3912 4.24985 9.13844 4.24983 8.15048 4.38291C7.11974 4.52175 6.23338 4.82126 5.52684 5.52914C4.8203 6.23702 4.52136 7.12507 4.38278 8.15776C4.24995 9.1476 4.24997 10.4027 4.25 11.9446V11.9446V13.0551V13.0551C4.24997 14.597 4.24995 15.8522 4.38278 16.842C4.52136 17.8747 4.8203 18.7627 5.52684 19.4706C6.23338 20.1785 7.11975 20.478 8.15048 20.6168C9.13847 20.7499 10.3912 20.7499 11.9302 20.7499H12.0698C13.6088 20.7499 14.8615 20.7499 15.8495 20.6168C16.8803 20.478 17.7666 20.1785 18.4732 19.4706C19.1797 18.7627 19.4786 17.8747 19.6172 16.842C19.7501 15.8522 19.75 14.597 19.75 13.0551V11.9446C19.75 10.4027 19.7501 9.14761 19.6172 8.15776C19.4786 7.12507 19.1797 6.23702 18.4732 5.52914C17.7666 4.82126 16.8803 4.52175 15.8495 4.38291C14.8616 4.24983 13.6088 4.24985 12.0698 4.24988H12.0698Z" fill="currentColor"/>
<path fill-rule="evenodd" clip-rule="evenodd" d="M4 1.99988C4 1.44759 4.44772 0.999878 5 0.999878H19C19.5523 0.999878 20 1.44759 20 1.99988C20 2.55216 19.5523 2.99988 19 2.99988H14.5352L13.697 4.25709C13.1949 4.24986 12.6529 4.24987 12.0698 4.24988H11.9302C11.7138 4.24987 11.5031 4.24987 11.2979 4.25024L12.1315 2.99988H5C4.44772 2.99988 4 2.55216 4 1.99988ZM6.74748 20.2695L6.10579 21.5529C5.8588 22.0469 6.05903 22.6475 6.55301 22.8945C7.04698 23.1415 7.64766 22.9413 7.89465 22.4473L8.77732 20.682C8.5576 20.6649 8.34871 20.6436 8.15048 20.6168C7.64699 20.549 7.17794 20.4429 6.74748 20.2695ZM15.2231 20.6819L16.1058 22.4473C16.3528 22.9413 16.9535 23.1415 17.4474 22.8945C17.9414 22.6475 18.1416 22.0469 17.8946 21.5529L17.2529 20.2694C16.8223 20.4428 16.3532 20.549 15.8495 20.6168C15.6514 20.6435 15.4427 20.6649 15.2231 20.6819Z" fill="currentColor"/>
<path fill-rule="evenodd" clip-rule="evenodd" d="M6.81235 8.74988C6.55299 8.74988 6.4233 8.74988 6.33622 8.83353C6.24914 8.91717 6.24409 9.04272 6.234 9.2938C6.19553 10.2504 6.1902 11.8782 6.18947 13.0624C6.18932 13.2906 6.18925 13.4047 6.25565 13.4872C6.32204 13.5697 6.43204 13.5936 6.65203 13.6415C6.83523 13.6814 7.03319 13.7225 7.24429 13.7636C8.49759 14.0078 10.1972 14.2498 12.0009 14.2498C13.8046 14.2498 15.5042 14.0078 16.7575 13.7636C16.969 13.7224 17.1673 13.6813 17.3509 13.6413C17.5709 13.5934 17.6809 13.5695 17.7473 13.487C17.8137 13.4045 17.8136 13.2904 17.8134 13.0622C17.8127 11.878 17.8072 10.2503 17.7687 9.2938C17.7586 9.04271 17.7535 8.91716 17.6664 8.83352C17.5794 8.74988 17.4497 8.74988 17.1903 8.74988H6.81235Z" fill="currentColor"/>
<path fill-rule="evenodd" clip-rule="evenodd" d="M19.6794 16.2499H17.75C17.3358 16.2499 17 16.5857 17 16.9999C17 17.4141 17.3358 17.7499 17.75 17.7499H19.4375C19.5172 17.4615 19.5747 17.1586 19.6172 16.842C19.6424 16.6542 19.6628 16.4569 19.6794 16.2499ZM4.56254 17.7499H6.25C6.66421 17.7499 7 17.4141 7 16.9999C7 16.5857 6.66421 16.2499 6.25 16.2499H4.32062C4.33716 16.4569 4.35758 16.6542 4.38278 16.842C4.42526 17.1586 4.4828 17.4615 4.56254 17.7499Z" fill="currentColor"/>
</svg>
