<svg width="24" height="24" viewBox="0 0 24 24" xmlns="http://www.w3.org/2000/svg">
    <path class="pr-icon-bulk-secondary" d="M3.25 10C3.25 5.16751 7.16751 1.25 12 1.25C16.8325 1.25 20.75 5.16751 20.75 10C20.75 14.8325 16.8325 18.75 12 18.75C7.16751 18.75 3.25 14.8325 3.25 10Z" />
    <path class="pr-icon-bulk-primary" d="M12 8.25C12.4142 8.25 12.75 8.58579 12.75 9V13.1893L13.9697 11.9697C14.2626 11.6768 14.7374 11.6768 15.0303 11.9697C15.3232 12.2626 15.3232 12.7374 15.0303 13.0303L12.75 15.3107V21.25H14C14.4142 21.25 14.75 21.5858 14.75 22C14.75 22.4142 14.4142 22.75 14 22.75H10C9.58579 22.75 9.25 22.4142 9.25 22C9.25 21.5858 9.58579 21.25 10 21.25H11.25V13.3107L8.96967 11.0303C8.67678 10.7374 8.67678 10.2626 8.96967 9.96967C9.26256 9.67678 9.73744 9.67678 10.0303 9.96967L11.25 11.1893V9C11.25 8.58579 11.5858 8.25 12 8.25Z" />
</svg>
