<svg width="24" height="24" viewBox="0 0 24 24" xmlns="http://www.w3.org/2000/svg">
<path fill-rule="evenodd" clip-rule="evenodd" d="M1 8C1 7.44772 1.44772 7 2 7H8C8.55228 7 9 7.44772 9 8C9 8.55228 8.55228 9 8 9H2C1.44772 9 1 8.55228 1 8ZM1 11C1 10.4477 1.44772 10 2 10H6C6.55228 10 7 10.4477 7 11C7 11.5523 6.55228 12 6 12H2C1.44772 12 1 11.5523 1 11Z" fill="currentColor"/>
<path opacity="0.4" d="M10.4482 3.25003C11.4314 3.24965 12.103 3.24938 12.6706 3.43372C13.5142 3.70769 14.2234 4.26737 14.6863 5.00109L16.134 5.00109H16.134C16.8222 5.00106 17.4116 5.00104 17.9006 5.05039C18.4232 5.10314 18.912 5.21811 19.3785 5.49659C19.845 5.77507 20.178 6.15069 20.4723 6.58564C20.7476 6.99257 21.027 7.51122 21.3532 8.11683L22.6535 10.5304C22.7327 10.6774 22.7714 10.8354 22.7733 10.9916L22.7734 11.0049V13.0599C22.7735 14.1934 22.7735 15.1197 22.6751 15.851C22.5723 16.6154 22.3497 17.2782 21.8204 17.8072C21.6205 18.007 21.401 18.1634 21.1634 18.2863C21.0702 18.3345 21.0236 18.3586 20.9789 18.3602C20.8998 18.3632 20.8239 18.317 20.7902 18.2455C20.7712 18.205 20.7712 18.1398 20.7712 18.0093C20.7712 15.9369 19.0903 14.257 17.0168 14.257C14.9434 14.257 13.2625 15.9369 13.2625 18.0093C13.2625 18.0955 13.2654 18.181 13.2711 18.2658V18.2658C13.2873 18.5048 13.2953 18.6242 13.2357 18.6878C13.176 18.7513 13.0656 18.7508 12.8449 18.7498H12.8449L11.1734 18.7421C10.9552 18.7411 10.8461 18.7406 10.7871 18.6773C10.728 18.614 10.7358 18.4959 10.7514 18.2596C10.7569 18.1769 10.7596 18.0934 10.7596 18.0093C10.7596 15.9369 9.07875 14.257 7.00529 14.257C4.93184 14.257 3.25097 15.9369 3.25097 18.0093C3.25097 18.1398 3.25097 18.205 3.23189 18.2455C3.19819 18.3171 3.12233 18.3632 3.04328 18.3603C2.99852 18.3586 2.95192 18.3345 2.85873 18.2863C2.6211 18.1635 2.40157 18.007 2.20164 17.8072C1.49997 17.1059 1.33294 16.1633 1.27715 15.0447C1.27656 15.0329 1.27625 15.0211 1.27622 15.0092L1.27354 13.9403C1.27295 13.7047 1.27266 13.5869 1.33693 13.5273C1.4012 13.4677 1.53518 13.4781 1.80315 13.4989C1.86795 13.5039 1.93344 13.5065 1.99953 13.5065H6.00414C7.38645 13.5065 8.50702 12.3865 8.50702 11.005C8.50702 10.7612 8.50702 10.6393 8.53496 10.5792C8.55271 10.541 8.5573 10.5341 8.58574 10.503C8.63051 10.4541 8.74348 10.407 8.96941 10.3128C9.87373 9.93572 10.5093 9.04359 10.5093 8.00309C10.5093 6.62152 9.38875 5.50154 8.00645 5.50154H1.99953C1.78739 5.50154 1.68132 5.50154 1.62782 5.46126C1.58985 5.43267 1.5652 5.39531 1.55386 5.34917C1.53787 5.28416 1.57122 5.20635 1.63791 5.05071C1.77065 4.74095 1.95294 4.45804 2.20504 4.20545C2.73465 3.67479 3.39891 3.45171 4.1652 3.34864C4.89835 3.25003 5.82721 3.25005 6.96399 3.25007L10.4482 3.25003Z" fill="currentColor"/>
<path fill-rule="evenodd" clip-rule="evenodd" d="M19.5617 10.2521C19.8609 10.2521 20.0105 10.2521 20.0688 10.1546C20.1271 10.0571 20.0561 9.92541 19.9143 9.66208L19.6141 9.10491C19.2592 8.44621 19.027 8.01767 18.815 7.70432C18.6157 7.40969 18.4796 7.28781 18.3532 7.21236C18.2268 7.13691 18.0549 7.07491 17.7008 7.03918C17.3243 7.00118 16.8367 7 16.0881 7H15.6709C15.4759 7 15.3784 7 15.3196 7.05952C15.2608 7.11904 15.262 7.21816 15.2646 7.41639C15.2671 7.61523 15.2668 7.81413 15.2664 8.01298L15.2662 8.20081C15.2662 9.0042 15.2755 9.22791 15.3275 9.38782C15.4512 9.7686 15.7499 10.0671 16.1309 10.1909C16.2909 10.2428 16.5148 10.2521 17.3186 10.2521H19.5617Z" fill="currentColor"/>
<circle cx="17" cy="18" r="2.5" fill="currentColor"/>
<circle cx="7" cy="18" r="2.5" fill="currentColor"/>
</svg>
