<svg width="24" height="24" viewBox="0 0 24 24" xmlns="http://www.w3.org/2000/svg">
    <path class="pr-icon-bulk-secondary" d="M12.0572 1.75C14.2479 1.74999 15.9686 1.74998 17.312 1.93059C18.6886 2.11568 19.7809 2.50272 20.6391 3.36091C21.4973 4.21911 21.8843 5.31137 22.0694 6.68802C22.25 8.03144 22.25 9.7521 22.25 11.9428V11.9428V12.0572V12.0572C22.25 14.2479 22.25 15.9686 22.0694 17.312C21.8843 18.6886 21.4973 19.7809 20.6391 20.6391C19.7809 21.4973 18.6886 21.8843 17.312 22.0694C15.9686 22.25 14.2479 22.25 12.0572 22.25H12.0572H11.9428H11.9428C9.7521 22.25 8.03144 22.25 6.68802 22.0694C5.31137 21.8843 4.21911 21.4973 3.36091 20.6391C2.50272 19.7809 2.11568 18.6886 1.93059 17.312C1.74998 15.9686 1.74999 14.2479 1.75 12.0572V11.9428C1.74999 9.75212 1.74998 8.03144 1.93059 6.68802C2.11568 5.31137 2.50272 4.21911 3.36091 3.36091C4.21911 2.50272 5.31137 2.11568 6.68802 1.93059C8.03144 1.74998 9.75212 1.74999 11.9428 1.75H12.0572Z" />
    <path class="pr-icon-bulk-primary" d="M14.6309 6.5C13.1219 6.5 11.8986 7.73122 11.8986 9.25C11.8986 9.48245 11.9272 9.70817 11.9812 9.92377C11.8409 9.93288 11.6995 9.9375 11.557 9.9375C9.41961 9.9375 7.52357 8.60071 6.34121 6.95399C6.23847 6.8109 6.00695 6.84437 5.96732 7.01435C5.82569 7.62187 5.75078 8.25525 5.75078 8.90625C5.75078 11.1793 6.66412 13.5813 8.14158 15.0735C8.14158 15.7417 6.74276 16.1378 5.67867 16.3139C5.48317 16.3462 5.43108 16.5984 5.60835 16.6845C6.68445 17.2071 7.89134 17.5 9.16621 17.5C13.5931 17.5 17.2004 13.968 17.3579 9.55111L18.4681 7.35954C18.5785 7.14154 18.3862 6.89524 18.135 6.93293L16.4382 7.1875C15.9566 6.75963 15.3238 6.5 14.6309 6.5Z" />
</svg>
