<svg width="24" height="24" viewBox="0 0 24 24" xmlns="http://www.w3.org/2000/svg">
    <path class="pr-icon-bulk-secondary" d="M22.7499 12C22.7499 17.9371 17.9369 22.75 11.9999 22.75C6.06284 22.75 1.2499 17.9371 1.2499 12C1.2499 6.06294 6.06284 1.25 11.9999 1.25C17.9369 1.25 22.7499 6.06294 22.7499 12Z" />
    <path class="pr-icon-bulk-primary" d="M1.29577 11H8.2499V10.5C8.2499 9.25736 9.25725 8.25 10.4999 8.25H13.4999C14.7425 8.25 15.7499 9.25736 15.7499 10.5V13.5C15.7499 14.7426 14.7425 15.75 13.4999 15.75H10.4999C9.25725 15.75 8.2499 14.7426 8.2499 13.5V13H1.29577C1.2654 12.6707 1.24988 12.3372 1.24988 12C1.24988 11.6628 1.2654 11.3293 1.29577 11Z" />
</svg>
