<svg width="24" height="24" viewBox="0 0 24 24" xmlns="http://www.w3.org/2000/svg">
<path class="pr-icon-bulk-secondary" d="M4.95069 4.25L5.00006 4.25L19.0494 4.25H19.0495C19.7143 4.24996 20.2872 4.24993 20.7459 4.31161C21.2375 4.37771 21.7088 4.52677 22.0911 4.90901C22.4733 5.29126 22.6224 5.76252 22.6885 6.25416C22.7501 6.71291 22.7501 7.28577 22.7501 7.95064V9.56091C22.7501 9.90758 22.7208 10.2531 22.6131 10.63C22.1662 12.193 21.159 14.0927 19.8058 15.7554C18.4556 17.4144 16.6978 18.9149 14.7086 19.5745C14.2842 19.7152 13.8968 19.75 13.5076 19.75H10.4925C10.1033 19.75 9.71594 19.7152 9.2915 19.5745C7.30234 18.9149 5.54452 17.4144 4.19436 15.7554C2.8411 14.0927 1.83394 12.193 1.38702 10.63C1.27929 10.2531 1.25006 9.90758 1.25006 9.56091V8L1.25006 7.95063V7.95058C1.25003 7.28574 1.24999 6.71289 1.31167 6.25416C1.37777 5.76252 1.52683 5.29126 1.90907 4.90901C2.29132 4.52677 2.76258 4.37771 3.25422 4.31161C3.71295 4.24993 4.2858 4.24996 4.95064 4.25H4.95069Z" fill="currentColor"/>
<path class="pr-icon-bulk-primary" fill-rule="evenodd" clip-rule="evenodd" d="M1.42225 10.75C1.41014 10.7098 1.3984 10.6698 1.38702 10.63C1.27928 10.2531 1.25006 9.90758 1.25006 9.56091V9.25H2.49904C5.60825 9.25 7.69668 10.8876 8.97621 12.8387C10.2368 14.7609 10.749 17.0308 10.749 18.5V19.75H10.4925C10.1033 19.75 9.71594 19.7152 9.2915 19.5745C9.27734 19.5698 9.26318 19.565 9.24904 19.5602V18.5C9.24904 17.3025 8.81128 15.3224 7.72188 13.6613C6.65141 12.029 4.98984 10.75 2.49904 10.75H1.42225ZM14.749 19.5609C14.7356 19.5655 14.7221 19.57 14.7086 19.5745C14.2842 19.7152 13.8968 19.75 13.5076 19.75H13.249V18.5C13.249 17.0308 13.7613 14.7609 15.0219 12.8387C16.3014 10.8876 18.3898 9.25 21.499 9.25H22.7501V9.56091C22.7501 9.90758 22.7208 10.2531 22.6131 10.63C22.6017 10.6698 22.59 10.7098 22.5779 10.75H21.499C19.0082 10.75 17.3467 12.029 16.2762 13.6613C15.1868 15.3224 14.749 17.3025 14.749 18.5V19.5609Z" fill="currentColor"/>
<path class="pr-icon-bulk-primary" fill-rule="evenodd" clip-rule="evenodd" d="M9.75006 8C9.75006 7.58579 10.0858 7.25 10.5001 7.25H13.5001C13.9143 7.25 14.2501 7.58579 14.2501 8C14.2501 8.41421 13.9143 8.75 13.5001 8.75H10.5001C10.0858 8.75 9.75006 8.41421 9.75006 8Z" fill="currentColor"/>
</svg>
