<svg width="24" height="24" viewBox="0 0 24 24" xmlns="http://www.w3.org/2000/svg">
<path opacity="0.4" d="M8.95726 1.25H9.03395H9.03397C9.70352 1.24999 10.2623 1.24997 10.7146 1.29599C11.1881 1.34415 11.6274 1.44886 12.0234 1.71346C12.3237 1.9141 12.5815 2.17191 12.7821 2.47218C13.0467 2.86818 13.1515 3.30755 13.1996 3.78102C13.2456 4.23335 13.2456 4.7921 13.2456 5.46166L13.2456 6.15134C13.2456 6.33735 13.2456 6.43035 13.2855 6.49976C13.3254 6.56916 13.4209 6.62487 13.612 6.73629C13.7916 6.84097 13.9623 6.96988 14.1215 7.12913C14.9224 7.93041 14.9787 9.06609 14.9956 10.237C15.0036 10.7892 14.5624 11.2433 14.0101 11.2513C13.4579 11.2593 13.0038 10.8181 12.9958 10.2659C12.9769 8.95601 12.8492 8.68526 12.707 8.54301C12.6308 8.46683 12.4949 8.37267 12.0613 8.31434C11.5988 8.25213 10.9711 8.25001 10 8.25001H8.00004C7.02895 8.25001 6.40127 8.25213 5.9388 8.31434C5.50515 8.37267 5.36924 8.46683 5.2931 8.54301C5.21689 8.61925 5.12268 8.75542 5.06435 9.1895C5.00216 9.6523 5.00004 10.2804 5.00004 11.2519V16.7545C5.00004 17.7321 5.00488 18.075 5.0577 18.3407C5.2945 19.5317 6.225 20.4624 7.41485 20.6992C7.54622 20.7253 7.71831 20.7424 8.02585 20.7503C8.57795 20.7646 9.01396 21.2237 8.9997 21.7758C8.98545 22.3279 8.52633 22.7639 7.97423 22.7497C7.62574 22.7407 7.32144 22.7198 7.0245 22.6607C5.04082 22.2659 3.49055 20.7146 3.09609 18.7307C2.99968 18.2457 2.99982 17.6883 3.00002 16.8702L3.00003 11.1861C2.99998 10.2991 2.99994 9.53501 3.08217 8.92312C3.17028 8.26744 3.36897 7.63895 3.87855 7.12913C4.03565 6.97195 4.20404 6.84433 4.38103 6.74039C4.57123 6.6287 4.66633 6.57285 4.70597 6.5036C4.74561 6.43435 4.74561 6.34167 4.74561 6.1563L4.74561 5.46166C4.74559 4.79208 4.74558 4.23335 4.79159 3.78102C4.83976 3.30755 4.94447 2.86818 5.20907 2.47218C5.4097 2.17191 5.66752 1.9141 5.96779 1.71346C6.36378 1.44886 6.80315 1.34415 7.27663 1.29599C7.72894 1.24997 8.28769 1.24999 8.95724 1.25H8.95726Z" fill="currentColor"/>
<path fill-rule="evenodd" clip-rule="evenodd" d="M7.99805 3.27734C7.58383 3.27734 7.24805 3.61313 7.24805 4.02734C7.24805 4.44156 7.58383 4.77734 7.99805 4.77734H9.99805C10.4123 4.77734 10.748 4.44156 10.748 4.02734C10.748 3.61313 10.4123 3.27734 9.99805 3.27734H7.99805Z" fill="currentColor"/>
<path fill-rule="evenodd" clip-rule="evenodd" d="M14.1105 12.6352C14.6863 12.4549 15.3059 12.4549 15.8817 12.6352C16.494 12.8269 16.9493 13.276 17.3655 13.8266C17.7764 14.3701 18.2256 15.1198 18.7838 16.0515L18.8288 16.1265C19.3868 17.0579 19.836 17.8076 20.1192 18.4228C20.4047 19.0429 20.587 19.6581 20.4491 20.283C20.3203 20.8671 20.0037 21.393 19.5494 21.7872C19.0684 22.2045 18.4399 22.3578 17.7443 22.4291C17.0529 22.5 16.1568 22.5 15.0382 22.5H15.0382H15.0382H14.9539H14.9539H14.9539C13.8353 22.5 12.9393 22.5 12.2479 22.4291C11.5523 22.3578 10.9238 22.2045 10.4428 21.7872C9.98852 21.393 9.6719 20.8671 9.54306 20.283C9.40521 19.6581 9.58747 19.0429 9.873 18.4228C10.1562 17.8076 10.6054 17.0578 11.1634 16.1265L11.2083 16.0516C11.7666 15.1198 12.2157 14.3701 12.6266 13.8266C13.0429 13.276 13.4982 12.8269 14.1105 12.6352ZM15.0022 15.1289C15.4164 15.1289 15.7522 15.4647 15.7522 15.8789V17.6289C15.7522 18.0431 15.4164 18.3789 15.0022 18.3789C14.588 18.3789 14.2522 18.0431 14.2522 17.6289V15.8789C14.2522 15.4647 14.588 15.1289 15.0022 15.1289ZM14.2422 19.8789C14.2422 19.4647 14.578 19.1289 14.9922 19.1289H15.0022C15.4164 19.1289 15.7522 19.4647 15.7522 19.8789C15.7522 20.2931 15.4164 20.6289 15.0022 20.6289H14.9922C14.578 20.6289 14.2422 20.2931 14.2422 19.8789Z" fill="currentColor"/>
</svg>
