<svg width="24" height="24" viewBox="0 0 24 24" xmlns="http://www.w3.org/2000/svg">
<path class="pr-icon-bulk-secondary" fill-rule="evenodd" clip-rule="evenodd" d="M12.0487 1.25H11.9515H11.9515C11.2908 1.24998 10.7209 1.24996 10.2558 1.29727C9.76254 1.34745 9.27727 1.45898 8.83335 1.7556C8.50578 1.97447 8.22453 2.25573 8.00566 2.5833C7.70904 3.02722 7.59751 3.51249 7.54733 4.00573C7.5419 4.0591 7.5371 4.11385 7.53284 4.16996C7.51307 4.43067 7.50319 4.56103 7.44219 4.63458C7.38119 4.70813 7.23163 4.74819 6.93252 4.82832C5.9122 5.10165 5.17054 6.05738 5.25661 7.1711L5.44042 9.54975C5.58268 11.3907 6.20539 13.1637 7.24744 14.6986L7.84823 15.5835C8.44205 16.4582 9.37311 17.0364 10.4049 17.2015C10.7059 17.2496 10.8564 17.2737 10.9281 17.3578C10.9998 17.4419 10.9998 17.5771 10.9998 17.8474V21.75C10.9998 22.3023 11.4475 22.75 11.9998 22.75C12.5521 22.75 12.9998 22.3023 12.9998 21.75V17.8475C12.9998 17.5771 12.9998 17.4419 13.0715 17.3578C13.1433 17.2737 13.2938 17.2496 13.5948 17.2015C14.6266 17.0365 15.5578 16.4582 16.1516 15.5835L16.7524 14.6986C17.7944 13.1637 18.4172 11.3907 18.5594 9.54975L18.7432 7.1711C18.8293 6.05745 18.0877 5.10178 17.0675 4.82838C16.7685 4.74823 16.6189 4.70815 16.5579 4.63461C16.4969 4.56106 16.4871 4.43072 16.4673 4.17004C16.463 4.1139 16.4582 4.05912 16.4528 4.00573C16.4026 3.51249 16.2911 3.02722 15.9945 2.5833C15.7756 2.25573 15.4943 1.97447 15.1668 1.7556C14.7229 1.45898 14.2376 1.34745 13.7443 1.29727C13.2792 1.24996 12.7094 1.24998 12.0487 1.25H12.0487ZM11.5036 3.25075C11.6547 3.25008 11.8196 3.25 12.0006 3.25C12.7236 3.25 13.1907 3.25121 13.5425 3.287C13.8776 3.32109 13.9956 3.37809 14.0562 3.41853C14.1654 3.49149 14.2591 3.58524 14.3321 3.69443C14.3725 3.75496 14.4295 3.87303 14.4636 4.20813V4.20814C14.4846 4.41506 14.4952 4.51852 14.4442 4.60384C14.4249 4.63609 14.3959 4.66823 14.3658 4.69066C14.3068 4.73453 14.2304 4.74596 14.1042 4.74894C14.0702 4.74975 14.0326 4.74994 13.9908 4.74999C13.9777 4.75 13.9642 4.75 13.9502 4.75H10.0499C9.82638 4.75 9.71462 4.75 9.63489 4.69066C9.60476 4.66824 9.57572 4.63609 9.55646 4.60385C9.50549 4.51852 9.51601 4.41506 9.53706 4.20814C9.57115 3.87303 9.62815 3.75496 9.66859 3.69444C9.74155 3.58525 9.8353 3.4915 9.94449 3.41854C10.005 3.37809 10.1231 3.32109 10.4582 3.287C10.6465 3.26785 10.8677 3.2586 11.1436 3.25414C11.2543 3.25235 11.3739 3.25133 11.5036 3.25075ZM10.0001 8C10.0001 7.44772 10.4478 7 11.0001 7H13.0001C13.5523 7 14.0001 7.44772 14.0001 8C14.0001 8.55229 13.5523 9 13.0001 9H11.0001C10.4478 9 10.0001 8.55229 10.0001 8Z" fill="currentColor"/>
<path class="pr-icon-bulk-primary" fill-rule="evenodd" clip-rule="evenodd" d="M10.9998 7C10.4475 7 9.99982 7.44772 9.99982 8C9.99982 8.55228 10.4475 9 10.9998 9H12.9998C13.5521 9 13.9998 8.55228 13.9998 8C13.9998 7.44772 13.5521 7 12.9998 7H10.9998Z" fill="currentColor"/>
</svg>
