<svg width="24" height="24" viewBox="0 0 24 24" xmlns="http://www.w3.org/2000/svg">
    <g class="pr-icon-bulk-secondary">
        <path class="pr-icon-bulk-primary"     d="M4.80112 14.6493C7.98432 12.7836 12.0163 12.7836 15.1995 14.6493C15.3003 14.7084 15.4258 14.7781 15.5687 14.8574C16.2013 15.2086 17.1732 15.7481 17.8386 16.3892C18.2541 16.7896 18.6637 17.3303 18.7384 18.0037C18.8186 18.7252 18.4962 19.3911 17.8799 19.9691C16.8298 20.9539 15.5619 21.75 13.9195 21.75H6.08109C4.43874 21.75 3.17083 20.9538 2.12074 19.9691C1.50442 19.3911 1.18207 18.7252 1.26219 18.0037C1.33697 17.3303 1.74652 16.7896 2.16201 16.3892C2.8274 15.7481 3.79931 15.2086 4.43195 14.8574C4.57477 14.7781 4.70032 14.7084 4.80112 14.6493Z"     />
        <path class="pr-icon-bulk-primary"     d="M5.25031 7C5.25031 4.37665 7.37696 2.25 10.0003 2.25C12.6237 2.25 14.7503 4.37665 14.7503 7C14.7503 9.62335 12.6237 11.75 10.0003 11.75C7.37696 11.75 5.25031 9.62335 5.25031 7Z"     />
    </g>
    <path class="pr-icon-bulk-primary" d="M19.2828 9.71812C19.2828 9.71812 18.9251 9.585 18.7866 9.51921C18.5113 9.38842 18.1429 9.18159 17.7717 8.87536C17.0184 8.25387 16.249 7.21313 16.249 5.62496V3.74996C16.249 3.33574 16.5848 2.99996 16.999 2.99996C17.5849 2.99996 18.1091 2.84527 18.4943 2.68347C18.685 2.60336 18.8361 2.52388 18.9366 2.46633C18.9866 2.43764 19.0691 2.38536 19.0691 2.38536C19.3272 2.20494 19.6707 2.20485 19.9288 2.38527C19.9288 2.38527 20.0114 2.43764 20.0615 2.46633C20.162 2.52388 20.313 2.60336 20.5037 2.68347C20.889 2.84527 21.4132 2.99996 21.999 2.99996C22.4132 2.99996 22.749 3.33574 22.749 3.74996V5.62496C22.749 7.21313 21.9796 8.25387 21.2263 8.87536C20.8551 9.18159 20.4868 9.38842 20.2114 9.51921C20.0729 9.585 19.8003 9.68616 19.7145 9.71833C19.574 9.7605 19.4234 9.76029 19.2828 9.71812Z" />
</svg>
