<svg width="24" height="24" viewBox="0 0 24 24" xmlns="http://www.w3.org/2000/svg">
    <path class="pr-icon-bulk-secondary" d="M12.0572 1.75H11.9428C9.75214 1.74999 8.03143 1.74998 6.68802 1.93059C5.31137 2.11568 4.21911 2.50271 3.36091 3.36091C2.50272 4.21911 2.11568 5.31137 1.93059 6.68802C1.74998 8.03144 1.74999 9.75212 1.75 11.9428V12.0572C1.74999 14.2479 1.74998 15.9686 1.93059 17.312C2.11568 18.6886 2.50272 19.7809 3.36091 20.6391C4.21911 21.4973 5.31137 21.8843 6.68802 22.0694C8.03144 22.25 9.7521 22.25 11.9428 22.25H12.0572C14.2479 22.25 15.9686 22.25 17.312 22.0694C18.6886 21.8843 19.7809 21.4973 20.6391 20.6391C21.4973 19.7809 21.8843 18.6886 22.0694 17.312C22.25 15.9686 22.25 14.2479 22.25 12.0572V11.9428C22.25 9.75214 22.25 8.03144 22.0694 6.68802C21.8843 5.31137 21.4973 4.21911 20.6391 3.36091C19.7809 2.50271 18.6886 2.11568 17.312 1.93059C15.9686 1.74998 14.2479 1.74999 12.0572 1.75Z" />
    <path class="pr-icon-bulk-primary" fill-rule="evenodd" clip-rule="evenodd" d="M15.1466 6.14369C16.4205 6.59032 17.2632 7.95132 17.2632 9.47648C17.2632 9.68117 17.2525 9.88788 17.2326 10.0953C17.18 10.6451 16.6916 11.0481 16.1419 10.9954C15.5921 10.9428 15.1891 10.4545 15.2417 9.90469C15.2561 9.75481 15.2632 9.61194 15.2632 9.47648C15.2632 8.62523 14.8032 8.14262 14.4849 8.03106C14.3456 7.9822 14.2116 7.98792 14.0665 8.0695C13.9085 8.15835 13.6606 8.38421 13.4338 8.91383C13.2662 9.40627 13.2174 10.0689 13.4608 10.6554C13.6877 11.2019 14.2314 11.8368 15.5723 12.1966C16.1964 12.3641 16.9925 12.4702 18 12.4702C18.5523 12.4702 19 12.9179 19 13.4702C19 14.0225 18.5523 14.4702 18 14.4702C17.2136 14.4702 16.5066 14.4135 15.8728 14.3058C15.0788 15.8612 14.0353 17.327 13.016 18.32C12.0692 19.2424 10.59 19.2269 9.66707 18.2703C8.27535 16.8279 7.36995 14.7924 6.81074 12.9077C6.24841 11.0125 6 9.1457 6 7.93975C6 7.38747 6.44772 6.93975 7 6.93975C7.55228 6.93975 8 7.38747 8 7.93975C8 8.92825 8.21305 10.6028 8.72812 12.3388C9.24631 14.0852 10.0343 15.7705 11.1063 16.8816C11.2552 17.0359 11.4628 17.041 11.6204 16.8875C12.3952 16.1326 13.2385 14.9842 13.9213 13.7204C12.7497 13.1724 12.0029 12.3599 11.6136 11.4222C11.1321 10.2621 11.2606 9.06058 11.5571 8.22136L11.5666 8.19452L11.5776 8.16826C11.9267 7.33456 12.433 6.69343 13.0864 6.3261C13.7555 5.94999 14.4899 5.91345 15.1466 6.14369Z" />
</svg>
