<svg width="24" height="24" viewBox="0 0 24 24" xmlns="http://www.w3.org/2000/svg">
<path class="pr-icon-bulk-secondary" d="M1.25391 12.0039C1.25391 6.06684 6.06684 1.25391 12.0039 1.25391C17.941 1.25391 22.7539 6.06684 22.7539 12.0039C22.7539 17.941 17.941 22.7539 12.0039 22.7539C6.06684 22.7539 1.25391 17.941 1.25391 12.0039Z" fill="currentColor"/>
<path fill-rule="evenodd" clip-rule="evenodd" d="M4.75391 4.0665V5.99121C4.83068 8.31944 5.62658 10.6292 6.7264 12.5123C7.74185 14.251 8.96714 15.544 10.0288 16.1671C10.6931 15.0156 11.1163 13.5902 10.9781 11.902C9.64795 10.8553 8.74584 9.68336 8.15709 8.51551C7.01632 6.25263 7.06599 4.03464 7.39812 2.81582L7.54265 2.22039C8.08364 1.9733 8.64869 1.76976 9.23333 1.61426L8.85321 3.18029C8.8514 3.18772 8.84948 3.19513 8.84745 3.20251C8.64238 3.94716 8.557 5.37862 9.12073 6.96277C10.3315 6.13859 12.0434 5.56771 13.8836 5.35101C16.0841 5.09189 18.5789 5.32478 20.8127 6.33424L20.8213 6.33812L20.8213 6.33818L21.2677 6.54671C21.6563 7.20495 21.9768 7.90822 22.2194 8.6468L20.1908 7.69923C18.2518 6.82417 16.0418 6.60723 14.059 6.84072C12.241 7.05481 10.7041 7.63572 9.77233 8.34077C10.2503 9.13791 10.9227 9.94031 11.8569 10.6846C13.7046 10.213 15.37 9.98729 16.8403 9.98816C19.2408 9.98957 21.1749 10.5971 22.4942 11.7854L22.7539 11.9996C22.7539 12.001 22.7539 12.0024 22.7539 12.0038C22.7539 12.6223 22.7017 13.2285 22.6014 13.8184L21.5266 12.9317C21.5176 12.9243 21.5088 12.9166 21.5002 12.9088C20.6795 12.1648 19.436 11.6521 17.7238 11.5211C17.8643 13.0679 17.5084 14.9759 16.7564 16.818C15.8858 18.9506 14.4434 21.0974 12.4566 22.6014L12.4504 22.6061L12.4503 22.606L12.2547 22.751C12.1713 22.7529 12.0877 22.7538 12.0039 22.7538C11.3142 22.7538 10.6396 22.6889 9.98602 22.5648L11.5543 21.4031C13.2803 20.0955 14.5758 18.1907 15.3677 16.251C16.0951 14.4692 16.3641 12.7423 16.2137 11.5025C15.1101 11.5526 13.869 11.7357 12.4925 12.0719C12.6061 14.3119 11.89 16.1694 10.9007 17.589C9.81059 19.1533 8.37793 20.204 7.31357 20.6865C7.29996 20.6926 7.28618 20.6984 7.27223 20.7037L6.25926 21.0918C5.75942 20.7752 5.28749 20.4185 4.848 20.0262L6.7138 19.3114C7.39238 18.9995 8.33033 18.352 9.15656 17.3927C7.82349 16.5719 6.48467 15.0727 5.43113 13.2688C4.22875 11.21 3.33818 8.65458 3.25429 6.02731C3.25403 6.01934 3.25391 6.01136 3.25391 6.00338V5.75741C3.69382 5.14228 4.19699 4.57547 4.75391 4.0665Z" fill="currentColor"/>
</svg>
