<svg width="24" height="24" viewBox="0 0 24 24" xmlns="http://www.w3.org/2000/svg">
    <path class="pr-icon-bulk-primary" fill-rule="evenodd" clip-rule="evenodd" d="M1.29289 1.29289C1.68342 0.902369 2.31658 0.902369 2.70711 1.29289L22.7071 21.2929C23.0976 21.6834 23.0976 22.3166 22.7071 22.7071C22.3166 23.0976 21.6834 23.0976 21.2929 22.7071L1.29289 2.70711C0.902369 2.31658 0.902369 1.68342 1.29289 1.29289Z" />
    <path class="pr-icon-bulk-secondary" d="M14.6688 1.29363C15.493 1.22142 16.9271 1.09578 17.8875 2.26628C18.5918 3.12467 18.756 4.30189 18.7504 5.28705C18.7475 5.80455 18.6971 6.32171 18.6222 6.80004C18.5777 7.08436 18.5554 7.22652 18.6169 7.32234C18.6783 7.41816 18.8211 7.45856 19.1067 7.53936C19.7516 7.7218 20.3102 8.00144 20.7434 8.46866C21.2993 9.06812 21.5339 9.81615 21.6439 10.6993C21.7506 11.5558 21.7506 12.6461 21.7505 14.005V16.1316C21.7505 16.367 21.7505 16.5947 21.7499 16.8151C21.7482 17.3978 21.7474 17.6892 21.5624 17.7655C21.3774 17.8418 21.1696 17.6341 20.7541 17.2185L11.3492 7.8137C10.8353 7.29982 10.5784 7.04288 10.6698 6.85146C10.7612 6.66004 11.1247 6.6986 11.8515 6.7757C12.8697 6.88372 13.9421 6.97908 15.0565 7.0563C15.4054 7.08048 15.7402 7.10367 16.0597 7.1274C16.3114 7.1461 16.4372 7.15546 16.5286 7.08399C16.62 7.01253 16.6402 6.89378 16.6808 6.65629C16.7554 6.21953 16.8069 5.7428 16.8096 5.2768C16.8144 4.4144 16.6503 3.77638 16.3663 3.43022C16.2318 3.26634 16.0789 3.18892 15.842 3.15136C15.5585 3.10642 15.2223 3.1284 14.7417 3.16921C12.0533 3.39752 9.81865 3.75944 8.0533 4.12947C7.89565 4.16252 7.81682 4.17904 7.74402 4.15736C7.67121 4.13569 7.61472 4.07919 7.50174 3.96621L6.92502 3.38949C6.58934 3.05382 6.4215 2.88598 6.47161 2.71522C6.52171 2.54446 6.75137 2.49441 7.2107 2.3943C9.1482 1.97202 11.6565 1.54944 14.6688 1.29363Z" />
    <path class="pr-icon-bulk-primary" d="M20.5222 21.8559C19.864 22.4574 19.0973 22.686 18.1943 22.7393C17.342 22.7897 16.2263 22.6807 14.9379 22.5547C12.3234 22.2993 9.39248 21.8515 6.59374 21.0953C5.06493 20.6833 3.79914 20.3422 3.02298 19.3234C2.61028 18.7816 2.42217 18.1916 2.33362 17.5053C2.24996 16.8569 2.24998 16.0683 2.25 15.1117V5.90194C2.25 5.122 2.56406 4.36378 3.12209 3.81984C3.27458 3.6712 3.35083 3.59688 3.47397 3.59766C3.59711 3.59845 3.68344 3.68478 3.8561 3.85745L20.7908 20.7922C20.9519 20.9532 21.0324 21.0338 21.0389 21.1481C21.0453 21.2625 20.9827 21.341 20.8574 21.498C20.7577 21.6231 20.6464 21.7424 20.5222 21.8559Z" />
</svg>
