<svg width="24" height="24" viewBox="0 0 24 24" xmlns="http://www.w3.org/2000/svg">
<path class="pr-icon-bulk-secondary" d="M1.25 12C1.25 6.06294 6.06294 1.25 12 1.25C17.9371 1.25 22.75 6.06294 22.75 12C22.75 17.9371 17.9371 22.75 12 22.75C6.06294 22.75 1.25 17.9371 1.25 12Z" fill="currentColor"/>
<path class="pr-icon-bulk-primary" fill-rule="evenodd" clip-rule="evenodd" d="M8.84028 6.7674C9.24498 6.6791 9.64462 6.93559 9.73292 7.34028C9.89457 8.08119 10.5874 9.71487 12.0002 10.6327C13.4129 9.71487 14.1057 8.08119 14.2674 7.34028C14.3557 6.93559 14.7553 6.6791 15.16 6.7674C15.5647 6.85569 15.8212 7.25534 15.7329 7.66003C15.5216 8.62849 14.6596 10.7323 12.7502 11.9337V12.7502H14.5002C14.9144 12.7502 15.2502 13.0859 15.2502 13.5002C15.2502 13.9144 14.9144 14.2502 14.5002 14.2502H12.7502V16.5002C12.7502 16.9144 12.4144 17.2502 12.0002 17.2502C11.5859 17.2502 11.2502 16.9144 11.2502 16.5002V14.2502H9.50016C9.08594 14.2502 8.75016 13.9144 8.75016 13.5002C8.75016 13.0859 9.08594 12.7502 9.50016 12.7502H11.2502V11.9337C9.34073 10.7323 8.4787 8.62849 8.2674 7.66003C8.1791 7.25534 8.43559 6.85569 8.84028 6.7674Z" fill="currentColor"/>
</svg>
