<svg xmlns="http://www.w3.org/2000/svg" width="24" height="24" viewBox="0 0 24 24">
    <g fill="none">
        <path fill="currentColor" d="M19.71 2.837c.733.147 1.306.72 1.453 1.453a3.557 3.557 0 0 1-.773 2.995l-2.751 3.252 1.944 7.131a1.25 1.25 0 0 1-.322 1.213l-1.302 1.302a1.01 1.01 0 0 1-1.597-.224l-2.993-5.387-3.258 2.255v.787c0 .331-.132.65-.366.884L8.062 20.18a1.01 1.01 0 0 1-1.673-.395l-.544-1.631-1.631-.544a1.01 1.01 0 0 1-.395-1.673l1.683-1.683a1.25 1.25 0 0 1 .884-.366h.787l2.255-3.258-5.387-2.993a1.01 1.01 0 0 1-.224-1.597l1.302-1.302a1.25 1.25 0 0 1 1.213-.322l7.13 1.944 3.253-2.751a3.557 3.557 0 0 1 2.995-.773Z"/>
    </g>
</svg>