<svg xmlns="http://www.w3.org/2000/svg" width="24" height="24"><g fill="none" fill-rule="evenodd"><path fill="#09244B" d="M10.759 13c1.377 0 2.09 1.61 1.226 2.628l-.095.103L8.62 19H11a1.5 1.5 0 0 1 .144 2.993L11 22H5.24c-1.378 0-2.09-1.61-1.226-2.628l.095-.103L7.379 16h-2.38a1.5 1.5 0 0 1-.144-2.993L5 13zm6.24-10a1.5 1.5 0 0 1 1.5 1.5v11.707l.269-.268a1.5 1.5 0 1 1 2.121 2.122l-2.828 2.828a1.5 1.5 0 0 1-2.122 0l-2.828-2.828a1.5 1.5 0 1 1 2.121-2.122l.268.268V4.5A1.5 1.5 0 0 1 17 3ZM8 2a2.21 2.21 0 0 1 2.017 1.305l.065.161 2.332 6.53a1.5 1.5 0 0 1-2.77 1.142L9.585 11H6.414a1.501 1.501 0 0 1-2.869-.866l.042-.139L5.92 3.467A2.21 2.21 0 0 1 8 2m0 4.56L7.487 8h1.028z"/></g></svg>