<svg xmlns="http://www.w3.org/2000/svg" width="24" height="24"><g fill="none" fill-rule="evenodd"><path fill="#09244B" d="M18.5 2a3.5 3.5 0 0 1 1.796 6.505A9 9 0 1 1 3 12c0-1.24.25-2.42.704-3.495a3.5 3.5 0 1 1 4.8-4.8A8.972 8.972 0 0 1 12 2.999c1.24 0 2.42.25 3.495.704A3.498 3.498 0 0 1 18.5 2M12 12a1.5 1.5 0 0 0-1.012 2.608.5.5 0 0 1-.488.392 1 1 0 1 0 0 2 2.49 2.49 0 0 0 1.5-.5c.418.314.937.5 1.5.5a1 1 0 1 0 0-2 .5.5 0 0 1-.488-.392A1.5 1.5 0 0 0 12 12M9 8a1 1 0 0 0-1 1v1a1 1 0 1 0 2 0V9a1 1 0 0 0-1-1m6 0a1 1 0 0 0-.993.883L14 9v1a1 1 0 0 0 1.993.117L16 10V9a1 1 0 0 0-1-1"/></g></svg>