<svg xmlns="http://www.w3.org/2000/svg" width="24" height="24"><g fill="none" fill-rule="evenodd"><path fill="#09244B" d="M12 1a1 1 0 0 1 .993.883L13 2v1.697l1.832 2.748c.042.064.077.132.104.203l.034.11L15.28 8H16a1 1 0 0 1 .993.883L17 9v6a1 1 0 0 1-.883.993L16 16v5a1 1 0 0 1 .117 1.993L16 23H8a1 1 0 0 1-.117-1.993L8 21v-5a1 1 0 0 1-.993-.883L7 15V9a1 1 0 0 1 .883-.993L8 8h.72l.31-1.243a1 1 0 0 1 .08-.213l.058-.099L11 3.697V2a1 1 0 0 1 1-1m0 8a1 1 0 0 0-1 1v2a1 1 0 0 0 1 1h1a1 1 0 1 0 0-2v-1a1 1 0 0 0-1-1"/></g></svg>