<svg xmlns="http://www.w3.org/2000/svg" width="24" height="24"><g fill="none"><path fill="#09244B" d="M14.866 19.345a1 1 0 0 1-.366 1.366l-1.25.722a2.5 2.5 0 0 1-2.5 0L9.5 20.71a1 1 0 0 1 1-1.732l1.25.722a.5.5 0 0 0 .5 0l1.25-.722a1 1 0 0 1 1.366.366Zm4.928-8.226a1 1 0 0 1 1 1v3.515a2.5 2.5 0 0 1-1.25 2.165L16.5 19.557a1 1 0 1 1-1-1.733l3.044-1.757a.5.5 0 0 0 .25-.433v-3.515a1 1 0 0 1 1-1m-15.588 0a1 1 0 0 1 1 1v3.515a.5.5 0 0 0 .25.433L8.5 17.824a1 1 0 0 1-1 1.732L4.456 17.8a2.5 2.5 0 0 1-1.25-2.165V12.12a1 1 0 0 1 1-1Zm11.419-3.654.119.057 1.513.858a1 1 0 0 1 .5.758l.006.12-.013 1.74a1 1 0 0 1-.402.793l-.098.065-2.75 1.588v3.176a1 1 0 0 1-.396.797l-.098.066-1.5.88a1 1 0 0 1-.892.06l-.12-.06-1.5-.88a1 1 0 0 1-.487-.746L9.5 16.62v-3.177l-2.75-1.587a1 1 0 0 1-.492-.742l-.008-.117-.013-1.74a1 1 0 0 1 .406-.811l.1-.066 1.514-.858a1 1 0 0 1 .875-.055l.118.059L12 9.113l2.75-1.587a1 1 0 0 1 .875-.061m2.004 5.805v1.403a1 1 0 0 1-.5.866l-1.215.701a.3.3 0 0 1-.45-.26v-1.403a1 1 0 0 1 .5-.866l1.215-.701a.3.3 0 0 1 .45.26m-10.87-.287.062.027 1.215.701a1 1 0 0 1 .493.749l.007.117v1.403a.3.3 0 0 1-.389.287l-.061-.027-1.215-.701a1 1 0 0 1-.493-.748l-.007-.118V13.27a.3.3 0 0 1 .326-.3l.063.013Zm11.49-7.53 1.295.748a2.5 2.5 0 0 1 1.25 2.165v1.443a1 1 0 1 1-2 0V8.366a.5.5 0 0 0-.25-.433l-1.295-.748a1 1 0 0 1 1-1.732m-11.177.392a1 1 0 0 1-.366 1.366l-1.25.722a.5.5 0 0 0-.25.433v1.443a1 1 0 1 1-2 0V8.366A2.5 2.5 0 0 1 4.456 6.2l1.25-.722a1 1 0 0 1 1.366.366ZM12.5 5.79l1.215.701a.3.3 0 0 1 0 .52L12.5 7.71a1 1 0 0 1-1 0l-1.215-.701a.3.3 0 0 1 0-.52L11.5 5.79a1 1 0 0 1 1 0m.75-3.222 3.044 1.757a1 1 0 1 1-1 1.733L12.25 4.299a.5.5 0 0 0-.5 0L8.706 6.056a1 1 0 1 1-1-1.732l3.044-1.757a2.5 2.5 0 0 1 2.5 0Z"/></g></svg>