<svg xmlns="http://www.w3.org/2000/svg" width="24" height="24"><g fill="none" fill-rule="evenodd"><path fill="#09244B" d="M4 2.5a1.5 1.5 0 1 0 0 3 1.5 1.5 0 0 0 0-3m4 0a1.5 1.5 0 1 0 0 3 1.5 1.5 0 0 0 0-3m-4 4a1.5 1.5 0 1 0 0 3 1.5 1.5 0 0 0 0-3m0 4a1.5 1.5 0 1 0 0 3 1.5 1.5 0 0 0 0-3m0 4a1.5 1.5 0 1 0 0 3 1.5 1.5 0 0 0 0-3m16 0a1.5 1.5 0 1 0 0 3 1.5 1.5 0 0 0 0-3m-16 4a1.5 1.5 0 1 0 0 3 1.5 1.5 0 0 0 0-3m4 0a1.5 1.5 0 1 0 0 3 1.5 1.5 0 0 0 0-3m4 0a1.5 1.5 0 1 0 0 3 1.5 1.5 0 0 0 0-3m4 0a1.5 1.5 0 1 0 0 3 1.5 1.5 0 0 0 0-3m4 0a1.5 1.5 0 1 0 0 3 1.5 1.5 0 0 0 0-3m-8-16a1.5 1.5 0 0 0 0 3h2a4.5 4.5 0 0 1 4.5 4.5v2a1.5 1.5 0 0 0 3 0v-2A7.5 7.5 0 0 0 14 2.5z"/></g></svg>