<svg xmlns="http://www.w3.org/2000/svg" width="24" height="24"><g fill="none" fill-rule="evenodd"><path fill="#09244B" d="M14.7 2.08c.552.397.926.6 1.273.714.342.113.722.162 1.317.158a1 1 0 0 1 1.007.959c.03.718.092 1.161.208 1.518.11.337.286.652.629 1.073a1 1 0 0 1-.216 1.461l-.114.066c-.322.163-.639.337-.953.515a8 8 0 1 1-11.701 0 21.562 21.562 0 0 0-.956-.516 1 1 0 0 1-.328-1.526c.343-.421.52-.736.63-1.073.115-.357.177-.8.207-1.518a1 1 0 0 1 1.007-.96c.595.005.975-.044 1.317-.157.347-.115.721-.317 1.272-.714a1 1 0 0 1 1.48.364c.188.375.392.743.602 1.108.18.314.39.664.619 1.02a24.927 24.927 0 0 0 1.213-2.11c.134-.267.372-.47.664-.542a1 1 0 0 1 .824.16Zm-1.367 8.148a1 1 0 0 0-.774 1.84l.108.045a2.01 2.01 0 0 1 1.159 1.068l.06.152a1 1 0 1 0 1.886-.666 4.008 4.008 0 0 0-2.439-2.44ZM9.514 4.315a4.87 4.87 0 0 1-1.88.596c-.047.402-.12.776-.237 1.136a4.54 4.54 0 0 1-.31.73l.462.265.249.149a7.95 7.95 0 0 1 2.827-1.073 23.34 23.34 0 0 1-.694-1.086l-.29-.492a29.887 29.887 0 0 1-.127-.225m4.972 0-.128.225-.29.492c-.206.343-.44.714-.693 1.086a7.95 7.95 0 0 1 2.827 1.073l.487-.287.223-.127a4.547 4.547 0 0 1-.31-.73 5.814 5.814 0 0 1-.236-1.136 4.919 4.919 0 0 1-1.02-.218 5.168 5.168 0 0 1-.86-.378"/></g></svg>