<svg xmlns="http://www.w3.org/2000/svg" width="24" height="24"><g fill="none" fill-rule="evenodd"><path fill="#09244B" d="M17.657 2.515a1 1 0 0 1 .993.883l.007.117v.414l.414-.414a1 1 0 0 1 1.497 1.32l-.083.094-.414.414h.414a1 1 0 0 1 .117 1.993l-.117.007h-2.057c1.265 2.176.654 5.066-1.553 6.5l-.205.126-11.01 6.423c-1.293.754-2.74-.634-2.114-1.934l.062-.118 6.423-11.01c1.344-2.304 4.209-3.02 6.426-1.868l.2.11V3.515a1 1 0 0 1 1-1m-4.95 10.192a1 1 0 0 0-1.497 1.32l.083.094 1.06 1.06a1 1 0 0 0 1.498-1.32l-.083-.093zm-2.121-4.95a1 1 0 0 0 0 1.414L12 10.586a1 1 0 0 0 1.414-1.415L12 7.757a1 1 0 0 0-1.414 0"/></g></svg>