<svg xmlns="http://www.w3.org/2000/svg" width="24" height="24" viewBox="0 0 24 24">
    <g fill="none" fill-rule="evenodd">
        <path fill="currentColor" d="M18.132 5.111a1.5 1.5 0 0 1 0 2.121l-4.95 4.95a1.5 1.5 0 0 1-2.122-2.121l4.95-4.95a1.5 1.5 0 0 1 2.121 0Zm5 0a1.5 1.5 0 0 1 0 2.121l-9.83 9.83a1.6 1.6 0 0 1-2.262 0l-4.172-4.173a1.5 1.5 0 1 1 2.121-2.121l3.182 3.182 8.84-8.839a1.5 1.5 0 0 1 2.12 0ZM1.867 10.768a1.5 1.5 0 0 1 2.121 0l4.243 4.243a1.5 1.5 0 1 1-2.121 2.12L1.868 12.89a1.5 1.5 0 0 1 0-2.121Z"/>
    </g>
</svg>