<svg xmlns="http://www.w3.org/2000/svg" width="24" height="24" viewBox="0 0 24 24">
    <g fill="none" fill-rule="evenodd">
        <path fill="currentColor" d="M3 6a3 3 0 0 1 3-3h9c1.737 0 3.301.738 4.397 1.917a24 24 0 0 1 .973-.611 1 1 0 1 1 .987 1.74c-.105.06-.876.553-.861.543A5.98 5.98 0 0 1 21 9v9a3 3 0 0 1-3 3H6a3 3 0 0 1-3-3zm16.656 1.174a5.005 5.005 0 0 0-1.09-1.68 30.96 30.96 0 0 0-1.69 1.31c-1.642 1.366-3.614 3.29-5.239 5.718a9.858 9.858 0 0 0-1.746-1.785 6.858 6.858 0 0 0-.965-.636 3.414 3.414 0 0 0-.451-.21 1 1 0 0 0-.689 1.878c.025.01.37.152.876.546.578.45 1.376 1.239 2.146 2.557a1 1 0 0 0 1.733-.01c1.584-2.792 3.787-5 5.614-6.52a29.008 29.008 0 0 1 1.501-1.168"/>
    </g>
</svg>