<svg xmlns="http://www.w3.org/2000/svg" width="24" height="24" viewBox="0 0 24 24">
    <g fill="none">
        <path fill="currentColor" d="M11.132 13.004a1 1 0 0 1 1.788.888l-.052.104L11.723 16h2.105a1.1 1.1 0 0 1 1.006 1.545l-.051.1-1.915 3.351a1 1 0 0 1-1.788-.888l.052-.104L12.277 18h-2.105a1.1 1.1 0 0 1-1.006-1.545l.051-.1zM11.5 2a6.502 6.502 0 0 1 6.086 4.212 6.002 6.002 0 0 1-.773 11.733c.449-1.555-.41-3.198-1.894-3.751a3.001 3.001 0 0 0-5.524-2.182l-1.914 3.35A3.06 3.06 0 0 0 7.273 18H7a5 5 0 0 1-2-9.584A6.5 6.5 0 0 1 11.5 2"/>
    </g>
</svg>