<svg xmlns="http://www.w3.org/2000/svg" width="24" height="24"><g fill="none" fill-rule="evenodd"><path fill="#09244B" d="m13.25 2.795 7.998 4.617a2.5 2.5 0 0 1 1.25 2.165v4.846a2.5 2.5 0 0 1-1.25 2.165l-7.998 4.617a2.5 2.5 0 0 1-2.5 0l-7.998-4.617a2.5 2.5 0 0 1-1.25-2.165V9.577a2.5 2.5 0 0 1 1.25-2.165l7.998-4.617a2.5 2.5 0 0 1 2.5 0M8.198 13.732 6.002 15l4.498 2.597V15.06zm7.604 0L13.5 15.061v2.536L17.998 15zM12 11.537l-.802.463.802.463.802-.463zm-7.498.061v.804L5.198 12zm14.996 0-.696.402.696.402zM13.5 6.403V8.94l2.302 1.329L17.998 9zm-3 0L6.002 9l2.196 1.268 2.302-1.33V6.404Z"/></g></svg>