<svg xmlns="http://www.w3.org/2000/svg" width="24" height="24"><g fill="none" fill-rule="evenodd"><path fill="#09244B" d="M16 3a2 2 0 0 1 1.995 1.85L18 5v14a2 2 0 0 1-1.85 1.995L16 21H6a2 2 0 0 1-1.995-1.85L4 19V5a2 2 0 0 1 1.85-1.995L6 3zm-5 10c-.841 0-1.74.137-2.469.461C7.837 13.77 7 14.404 7 15.5a1 1 0 0 0 1.992.13L9 15.515l.05-.051a1.21 1.21 0 0 1 .294-.175C9.74 15.113 10.34 15 11 15c.659 0 1.26.113 1.656.289.11.049.19.097.246.137l.047.038.051.051a1 1 0 0 0 2-.015c0-1.096-.837-1.73-1.531-2.039C12.74 13.137 11.84 13 11 13m0-5a2 2 0 1 0 0 4 2 2 0 0 0 0-4m8.974 11.063-.974.324V4.613l.974.324A1.5 1.5 0 0 1 21 6.36v11.28a1.5 1.5 0 0 1-1.026 1.423"/></g></svg>