<svg xmlns="http://www.w3.org/2000/svg" width="24" height="24"><g fill="none"><path fill="#09244B" d="M9.636 8.5c.93-1.238 2.334-2 3.835-2 1.315 0 2.53.566 3.438 1.53a1.5 1.5 0 1 0 2.182-2.06c-1.426-1.51-3.409-2.47-5.62-2.47-3.294 0-6.027 2.09-7.262 5H5a1.5 1.5 0 1 0 0 3h.514a9.12 9.12 0 0 0 0 1H5a1.5 1.5 0 0 0 0 3h1.209c1.235 2.91 3.968 5 7.262 5 2.211 0 4.194-.96 5.62-2.47a1.5 1.5 0 1 0-2.182-2.06c-.909.964-2.123 1.53-3.438 1.53-1.501 0-2.905-.762-3.835-2H13a1.5 1.5 0 0 0 0-3H8.52a6.357 6.357 0 0 1 0-1H13a1.5 1.5 0 0 0 0-3z"/></g></svg>