<svg xmlns="http://www.w3.org/2000/svg" width="24" height="24" viewBox="0 0 24 24">
    <g fill="none" fill-rule="evenodd">
        <path fill="currentColor" d="M20 12v6a2 2 0 0 1-1.85 1.995L18 20h-1.382l.276.553a1 1 0 0 1-1.73.996l-.058-.102L14.382 20H9.618l-.724 1.447a1 1 0 0 1-1.835-.787l.047-.107.276-.553H6a2 2 0 0 1-1.995-1.85L4 18v-6zm-7 3h-2a1 1 0 1 0 0 2h2a1 1 0 1 0 0-2m5-13a2 2 0 0 1 1.995 1.85L20 4v6H4V4a2 2 0 0 1 1.85-1.995L6 2zm-5 3h-2a1 1 0 0 0-.117 1.993L11 7h2a1 1 0 0 0 .117-1.993z"/>
    </g>
</svg>