<svg xmlns="http://www.w3.org/2000/svg" width="24" height="24"><g fill="none"><path fill="#09244B" d="M8.393 2.67c-.51.502-.97 1.09-1.367 1.731C5.795 6.381 5 9.067 5 12.001c0 2.945.847 5.632 2.1 7.606a9.69 9.69 0 0 0 1.426 1.773A10.004 10.004 0 0 1 2 12c0-4.25 2.653-7.883 6.393-9.33M11 3.236v17.499c-.71-.354-1.495-1.07-2.212-2.2C7.745 16.892 7 14.578 7 12c0-2.59.705-4.904 1.724-6.543.661-1.063 1.397-1.764 2.1-2.135zm4.607-.566A10.004 10.004 0 0 1 22 12c0 4.251-2.653 7.883-6.393 9.33.51-.502.97-1.09 1.367-1.73C18.205 17.618 19 14.932 19 12s-.795-5.619-2.026-7.599a9.373 9.373 0 0 0-1.367-1.73ZM13 3.236c.755.343 1.56 1.07 2.276 2.221C16.295 7.097 17 9.411 17 12c0 2.59-.705 4.904-1.724 6.543-.661 1.063-1.397 1.764-2.1 2.136l-.176.086V3.235Z"/></g></svg>