<svg xmlns="http://www.w3.org/2000/svg" width="24" height="24"><g fill="none"><path fill="#09244B" d="M18.141 7.577a1.5 1.5 0 0 1 .949 1.897l-.527 1.582a6.5 6.5 0 0 1-6.167 4.444H9.854a1.5 1.5 0 0 0-1.341.83l-2.171 4.34a1.5 1.5 0 1 1-2.684-1.34l2.171-4.342A4.5 4.5 0 0 1 9.854 12.5h2.542a3.5 3.5 0 0 0 3.32-2.393l.528-1.581a1.5 1.5 0 0 1 1.897-.949m-6.959-2.759a1.5 1.5 0 0 1 .103 2.007l-.103.114-2.121 2.122a1.5 1.5 0 0 1-2.012.1l-.11-.1-2.12-2.122a1.5 1.5 0 0 1 2.006-2.224l.114.103L8 5.878l1.06-1.06a1.5 1.5 0 0 1 2.122 0M18.5 3a1.5 1.5 0 1 1 0 3 1.5 1.5 0 0 1 0-3"/></g></svg>