<svg xmlns="http://www.w3.org/2000/svg" width="24" height="24"><g fill="none"><path fill="#09244B" d="M12 2v6.5a1.5 1.5 0 0 0 1.356 1.493L13.5 10H20v4.892l-2.367-.79a2 2 0 0 0-1.088-.05l-.178.05-3 1a2 2 0 0 0-1.36 1.738L12 17v1.671a5.33 5.33 0 0 0 1.01 3.129l.152.2H6a2 2 0 0 1-1.995-1.85L4 20V4a2 2 0 0 1 1.85-1.995L6 2zm5 14 3 1v1.671a3.346 3.346 0 0 1-2.977 3.326h-.046a3.347 3.347 0 0 1-2.972-3.144L14 18.671V17zM14 2.043a2 2 0 0 1 .877.43l.123.113L19.414 7a2 2 0 0 1 .502.84l.04.16H14z"/></g></svg>