<svg xmlns="http://www.w3.org/2000/svg" width="24" height="24"><g fill="none" fill-rule="evenodd"><path fill="#09244B" d="M4.5 4A1.5 1.5 0 0 1 6 2.5h1.5a1.5 1.5 0 1 1 0 3H6A1.5 1.5 0 0 1 4.5 4M10 4a1.5 1.5 0 0 1 1.5-1.5H20a1.5 1.5 0 0 1 0 3h-8.5A1.5 1.5 0 0 1 10 4M2.5 9A1.5 1.5 0 0 1 4 7.5h8.5a1.5 1.5 0 0 1 0 3H4A1.5 1.5 0 0 1 2.5 9M15 9a1.5 1.5 0 0 1 1.5-1.5H18a1.5 1.5 0 0 1 0 3h-1.5A1.5 1.5 0 0 1 15 9M4.5 14A1.5 1.5 0 0 1 6 12.5h1.5a1.5 1.5 0 0 1 0 3H6A1.5 1.5 0 0 1 4.5 14m5.5 0a1.5 1.5 0 0 1 1.5-1.5H20a1.5 1.5 0 0 1 0 3h-8.5A1.5 1.5 0 0 1 10 14m-7.5 5A1.5 1.5 0 0 1 4 17.5h8.5a1.5 1.5 0 0 1 0 3H4A1.5 1.5 0 0 1 2.5 19M15 19a1.5 1.5 0 0 1 1.5-1.5H18a1.5 1.5 0 0 1 0 3h-1.5A1.5 1.5 0 0 1 15 19"/></g></svg>