<svg xmlns="http://www.w3.org/2000/svg" width="24" height="24"><g fill="none"><path fill="#09244B" d="M6.025 3.047a1 1 0 0 1 1.022-1.021c.706.015 1.7.186 2.717.666.566.267 1.073.61 1.504 1.04.372.373.68.804.93 1.28.042-.089.088-.176.137-.262.367-.636.906-1.145 1.562-1.548a6.16 6.16 0 0 1 1.898-.778 1 1 0 0 1 1.155.667l.144.569c.158.783.194 1.603.022 2.401a4.079 4.079 0 0 1-.451 1.19 3.973 3.973 0 0 1-.562.75H18a2 2 0 0 1 2 2v2a2 2 0 0 1-1.014 1.74c-.139 3.664-1.275 6.217-1.837 7.27-.35.655-1.023.99-1.684.99h-6.93a1.895 1.895 0 0 1-1.684-.99c-.562-1.053-1.698-3.606-1.837-7.27A2 2 0 0 1 4 12v-2a2 2 0 0 1 2-2h2.665a5.07 5.07 0 0 1-.933-.733 5.314 5.314 0 0 1-1.04-1.504 6.906 6.906 0 0 1-.667-2.717Z"/></g></svg>