<svg xmlns="http://www.w3.org/2000/svg" width="24" height="24" viewBox="0 0 24 24">
    <g fill="none">
        <path fill="currentColor" d="M19 4a3 3 0 0 1 2.995 2.824L22 7v10a3 3 0 0 1-2.824 2.995L19 20H5a3 3 0 0 1-2.995-2.824L2 17V7a3 3 0 0 1 2.824-2.995L5 4zm-6.646 4.992L12 9.604l-.354-.612a2.6 2.6 0 0 0-3.552-.952l-.593.343a2.714 2.714 0 0 0-.994 3.708 3.286 3.286 0 0 0 3.115 1.632L8.654 15.4a1 1 0 0 0 1.732 1L12 13.605l1.614 2.795a1 1 0 1 0 1.732-1l-.968-1.677a3.286 3.286 0 0 0 3.115-1.632 2.714 2.714 0 0 0-.994-3.708l-.593-.343a2.6 2.6 0 0 0-3.552.952m2.463.738.088.042.594.343a.714.714 0 0 1 .262.976 1.286 1.286 0 0 1-1.64.53l-.117-.06-.618-.357.7-1.212a.6.6 0 0 1 .64-.288zm-4.903.262.7 1.212-.619.357a1.286 1.286 0 0 1-1.756-.47.714.714 0 0 1 .262-.976l.593-.343a.6.6 0 0 1 .82.22"/>
    </g>
</svg>