<svg xmlns="http://www.w3.org/2000/svg" width="24" height="24"><g fill="none"><path fill="#09244B" d="M18.8 6.4c-1.884-2.512-4.28-3.9-6.8-3.9-2.52 0-4.916 1.388-6.8 3.9-1.417 1.889-3.126 4.44-3.362 7.124-.121 1.384.147 2.801 1.019 4.15.861 1.332 2.268 2.531 4.315 3.58 1.259.645 2.63-.22 2.809-1.483a6.48 6.48 0 0 1-1.162-1.001c-1.013-1.105-1.82-2.723-1.82-4.77 0-3.428 1.77-5.735 3.9-6.344.282-.08.6.132.634.424a5 5 0 0 0 4.917 4.42c.674.006.55 1.06.55 1.5 0 2.047-.806 3.665-1.82 4.77-.362.396-.76.734-1.164 1.003.16 1.268 1.518 2.14 2.778 1.531 2.165-1.044 3.643-2.243 4.538-3.585.907-1.362 1.163-2.797 1.007-4.194-.3-2.69-2.138-5.257-3.54-7.125Z"/></g></svg>