<svg xmlns="http://www.w3.org/2000/svg" width="24" height="24" viewBox="0 0 24 24">
    <g fill="none" fill-rule="evenodd">
        <path fill="currentColor" d="M17 3a2 2 0 0 1 2 2v1h1a1 1 0 1 1 0 2v11a1 1 0 1 1 0 2h-6.5v-4.5a1.5 1.5 0 0 0-3 0V21H4a1 1 0 1 1 0-2V8a1 1 0 0 1 0-2h1V5a2 2 0 0 1 2-2zM8 13a1 1 0 0 0-1 1v1a1 1 0 1 0 2 0v-1a1 1 0 0 0-1-1m8 0a1 1 0 0 0-.993.883L15 14v1a1 1 0 0 0 1.993.117L17 15v-1a1 1 0 0 0-1-1M8 9a1 1 0 0 0-.993.883L7 10v1a1 1 0 0 0 1.993.117L9 11v-1a1 1 0 0 0-1-1m4 0a1 1 0 0 0-.993.883L11 10v1a1 1 0 0 0 1.993.117L13 11v-1a1 1 0 0 0-1-1m4 0a1 1 0 0 0-1 1v1a1 1 0 1 0 2 0v-1a1 1 0 0 0-1-1m1-4H7v1h10z"/>
    </g>
</svg>