<svg xmlns="http://www.w3.org/2000/svg" width="24" height="24"><g fill="none" fill-rule="evenodd"><path fill="#09244B" d="M11.5 4.719a5.5 5.5 0 0 1 7.953 7.596l-.174.182-6.717 6.718a2 2 0 0 1-2.702.116l-.127-.116-1.768-1.768-2.12 2.121a1 1 0 0 1-1.498-1.32l.083-.094 2.121-2.122-1.768-1.767a2 2 0 0 1-.116-2.701l.116-.128 6.718-6.717Zm3.89 4.596-4.243 4.243a1 1 0 1 0 1.415 1.414l4.242-4.243a1 1 0 0 0-1.414-1.414m-.707-2.121a1 1 0 0 0-1.32-.084l-.094.084-4.243 4.242a1 1 0 0 0 1.32 1.498l.094-.083 4.243-4.243a1 1 0 0 0 0-1.414"/></g></svg>