<svg xmlns="http://www.w3.org/2000/svg" width="24" height="24"><g fill="none"><path fill="#09244B" d="M18 3a3 3 0 0 1 3 3v12a3 3 0 0 1-3 3H6a3 3 0 0 1-3-3V6a3 3 0 0 1 3-3zm-6 3c-2.08 0-3.716.448-4.628.77-.947.336-1.377 1.303-1.203 2.175l.722 3.61c.196.977 1.232 1.45 2.079 1.112.645-.258 1.699-.604 2.748-.66l.3-.007c1.134.004 2.313.388 3.012.667.847.338 1.883-.135 2.079-1.113l.722-3.609c.174-.872-.256-1.839-1.203-2.174A14.023 14.023 0 0 0 12 6m0 2c1.604 0 2.897.309 3.693.566l.163.054-.6 2.997a12.086 12.086 0 0 0-1.394-.4l-.32-.065.352-.705a1 1 0 0 0-1.73-.996l-.058.102-.738 1.474c-.89.075-1.731.293-2.388.509l-.237.08-.6-2.996A12.1 12.1 0 0 1 12 8"/></g></svg>