<svg xmlns="http://www.w3.org/2000/svg" width="24" height="24"><g fill="none" fill-rule="evenodd"><path fill="#09244B" fill-rule="nonzero" d="M20 4a2 2 0 0 1 1.995 1.85L22 6v12a2 2 0 0 1-1.85 1.995L20 20H4a2 2 0 0 1-1.995-1.85L2 18V6a2 2 0 0 1 1.85-1.995L4 4zm-3 11H7a1 1 0 0 0-.117 1.993L7 17h10a1 1 0 0 0 .117-1.993zm-4.5-4h-1a1 1 0 0 0-.117 1.993L11.5 13h1a1 1 0 0 0 .117-1.993zM8 11H7a1 1 0 1 0 0 2h1a1 1 0 1 0 0-2m9 0h-1a1 1 0 1 0 0 2h1a1 1 0 1 0 0-2m0-4h-1a1 1 0 0 0-.117 1.993L16 9h1a1 1 0 0 0 .117-1.993zm-4.5 0h-1a1 1 0 1 0 0 2h1a1 1 0 1 0 0-2M8 7H7a1 1 0 0 0 0 2h1a1 1 0 0 0 0-2"/></g></svg>