<svg xmlns="http://www.w3.org/2000/svg" width="24" height="24"><g fill="none"><path fill="#09244B" d="M18.01 9.378a2.5 2.5 0 0 1 2.985 2.29l.005.162v5.53a3 3 0 0 1-2.239 2.902l-.173.04-5.598 1.12a2.5 2.5 0 0 1-2.985-2.29L10 18.97v-5.53a3 3 0 0 1 2.239-2.902l.173-.04zm-3.5-3.299a2.5 2.5 0 0 1 2.985 2.29l.005.162v.132L12.216 9.72a4 4 0 0 0-3.21 3.719L9 13.642v4.53a2.502 2.502 0 0 1-2.495-2.333l-.005-.168v-5.53a3 3 0 0 1 2.238-2.902l.174-.04zm-3.5-3.5a2.5 2.5 0 0 1 2.985 2.289L14 5.03v.132L8.716 6.218a4 4 0 0 0-3.21 3.72l-.006.203v4.53a2.502 2.502 0 0 1-2.495-2.333L3 12.17V6.64a3 3 0 0 1 2.238-2.902l.174-.04z"/></g></svg>