<svg xmlns="http://www.w3.org/2000/svg" width="24" height="24" viewBox="0 0 24 24">
    <g fill="none">
        <path fill="currentColor" d="M4 6.5a1.5 1.5 0 1 1 0-3h7.5a1.5 1.5 0 0 1 0 3zm17.312 1.674c.285.558-.145 1.22-.831 1.279l-.368.029-.44.027-.506.024a30.08 30.08 0 0 1-.567.016l-.624.006-.59-.005-.54-.015-.707-.033-.57-.04a22.894 22.894 0 0 1-.158-.014c-.64-.057-1.008-.658-.727-1.21l.247-.468.213-.382.254-.431a25.048 25.048 0 0 1 .94-1.448l.293-.41.137-.185.36-.468.1-.127c.398-.492 1.166-.51 1.542-.046l.213.268.252.328.138.187.298.415.158.228.33.496c.163.25.312.489.446.712l.249.423.21.378.175.325zm0 10c.285.558-.145 1.22-.831 1.279l-.368.028-.44.028-.506.024-.567.016a31.75 31.75 0 0 1-.624.006l-.59-.005-.54-.015-.707-.034-.57-.04a22.812 22.812 0 0 1-.158-.013c-.64-.057-1.008-.658-.727-1.21l.155-.298.092-.17.213-.382.254-.431.294-.477a25.588 25.588 0 0 1 .49-.745l.306-.438.28-.383.36-.468.1-.127c.398-.492 1.166-.51 1.542-.046l.213.268.252.328.138.187.298.415.158.228.33.496c.163.25.312.489.446.711l.249.424.21.377.175.325zM4 20.5a1.5 1.5 0 0 1 0-3h7.5a1.5 1.5 0 0 1 0 3zM2.5 12A1.5 1.5 0 0 0 4 13.5h7.5a1.5 1.5 0 0 0 0-3H4A1.5 1.5 0 0 0 2.5 12"/>
    </g>
</svg>