<svg xmlns="http://www.w3.org/2000/svg" width="24" height="24" viewBox="0 0 24 24">
    <defs>
        <linearGradient id="a" x1="50%" x2="50%" y1="5.271%" y2="91.793%">
            <stop offset="0%" stop-color="currentColor"/>
            <stop offset="100%" stop-color="currentColor" stop-opacity=".55"/>
        </linearGradient>
        <linearGradient id="b" x1="50%" x2="50%" y1="15.24%" y2="87.15%">
            <stop offset="0%" stop-color="currentColor" stop-opacity="0"/>
            <stop offset="100%" stop-color="currentColor" stop-opacity=".55"/>
        </linearGradient>
    </defs>
    <g fill="none">
        <path fill="url(#a)" d="M8.749.021a1.5 1.5 0 0 1 .497 2.958A7.502 7.502 0 0 0 3 10.375a7.5 7.5 0 0 0 7.5 7.5v3c-5.799 0-10.5-4.7-10.5-10.5C0 5.23 3.726.865 8.749.021" transform="translate(1.5 1.625)"/>
        <path fill="url(#b)" d="M15.392 2.673a1.5 1.5 0 0 1 2.119-.115A10.475 10.475 0 0 1 21 10.375c0 5.8-4.701 10.5-10.5 10.5v-3a7.5 7.5 0 0 0 5.007-13.084 1.5 1.5 0 0 1-.115-2.118" transform="translate(1.5 1.625)"/>
    </g>
</svg>