<svg xmlns="http://www.w3.org/2000/svg" width="24" height="24"><g fill="none"><path fill="#09244B" d="M9 16a1 1 0 0 1 1 1v.268l.232-.134a1 1 0 1 1 1 1.732L11 19l.232.134a1 1 0 0 1-1 1.732L10 20.732V21a1 1 0 1 1-2 0v-.268l-.232.134a1 1 0 1 1-1-1.732L7 19l-.232-.134a1 1 0 1 1 1-1.732l.232.134V17a1 1 0 0 1 1-1m2.5-14a6.502 6.502 0 0 1 6.086 4.212 6.002 6.002 0 0 1-1.346 11.783l.04-.046a2.993 2.993 0 0 0 2.05-1.449c.456-.79.512-1.702.23-2.5a2.993 2.993 0 0 0-.23-2.5 2.993 2.993 0 0 0-2.05-1.45A2.993 2.993 0 0 0 14 9c-.913 0-1.73.407-2.28 1.05a2.994 2.994 0 0 0-2.05 1.45 2.993 2.993 0 0 0-.23 2.5l-.011.03a2.993 2.993 0 0 0-2.71 1.02 2.993 2.993 0 0 0-2.356 2.199A5 5 0 0 1 5 8.416 6.5 6.5 0 0 1 11.5 2m2.5 9a1 1 0 0 1 1 1v.268l.232-.134a1 1 0 1 1 1 1.732L16 14l.232.134a1 1 0 0 1-1 1.732L15 15.732V16a1 1 0 1 1-2 0v-.268l-.232.134a1 1 0 1 1-1-1.732L12 14l-.232-.134a1 1 0 1 1 1-1.732l.232.134V12a1 1 0 0 1 1-1"/></g></svg>