<svg xmlns="http://www.w3.org/2000/svg" width="24" height="24"><g fill="none" fill-rule="evenodd"><path fill="#09244B" d="m9 16.042 8.002 4.62A9.954 9.954 0 0 1 12 22c-.915 0-1.8-.123-2.642-.353L9 21.542zm-2-4.62v9.24a10.02 10.02 0 0 1-4.687-6.171l-.076-.318zM22 12a9.97 9.97 0 0 1-3.012 7.153l-.227.215L14 16.618zM12 8.536l3 1.732v3.464l-3 1.732-3-1.732v-3.464zm5-5.198a10.015 10.015 0 0 1 4.763 6.49L17 12.577v-9.24ZM5.239 4.632 10 7.382 2 12l.006-.335a9.969 9.969 0 0 1 3.006-6.818zM12 2c.915 0 1.8.123 2.642.353l.358.105v5.5l-8.002-4.62A9.954 9.954 0 0 1 12 2"/></g></svg>