<svg xmlns="http://www.w3.org/2000/svg" width="24" height="24"><g fill="none"><path fill="#09244B" d="M12 2c5.523 0 10 4.477 10 10s-4.477 10-10 10S2 17.523 2 12 6.477 2 12 2m1 10c-.859 0-1.367.67-1.601 1.139C11.134 13.667 11 14.326 11 15c0 .674.134 1.333.399 1.861C11.633 17.33 12.14 18 13 18s1.367-.67 1.601-1.139c.265-.528.399-1.187.399-1.861 0-.674-.134-1.333-.399-1.861C14.368 12.67 13.86 12 13 12M8.5 8a2.5 2.5 0 1 0 0 5 2.5 2.5 0 0 0 0-5m7-1a2.5 2.5 0 1 0 0 5 2.5 2.5 0 0 0 0-5m-7 3a.5.5 0 1 1 0 1 .5.5 0 0 1 0-1m7-1a.5.5 0 1 1 0 1 .5.5 0 0 1 0-1"/></g></svg>