<svg xmlns="http://www.w3.org/2000/svg" width="24" height="24"><g fill="none"><path fill="#09244B" d="M4.707 16.293a1 1 0 0 1 0 1.414l-1 1a1 1 0 0 1-1.414-1.414l1-1a1 1 0 0 1 1.414 0m4.069-9.157a5.25 5.25 0 0 1 2.724 4.602v.524a5.25 5.25 0 0 1-2.724 4.603c-1.487.815-3.445-.006-3.63-1.846l-.057-.65a30.988 30.988 0 0 1 0-4.737l.058-.651C5.33 7.14 7.289 6.32 8.776 7.136M3 11a1 1 0 0 1 .117 1.993L3 13H2a1 1 0 0 1-.117-1.993L2 11zm.707-5.707 1 1a1 1 0 0 1-1.414 1.414l-1-1a1 1 0 0 1 1.414-1.414m18 0a1 1 0 0 0-1.414 0l-1 1a1 1 0 0 0 1.414 1.414l1-1a1 1 0 0 0 0-1.414m-2.414 11a1 1 0 0 0 0 1.414l1 1a1 1 0 0 0 1.414-1.414l-1-1a1 1 0 0 0-1.414 0M22 11a1 1 0 1 1 0 2h-1a1 1 0 1 1 0-2zm-3.147-2.02c-.184-1.839-2.143-2.66-3.629-1.844a5.25 5.25 0 0 0-2.724 4.602v.524a5.25 5.25 0 0 0 2.724 4.603c1.486.815 3.445-.006 3.63-1.846l.057-.65a30.997 30.997 0 0 0 0-4.737l-.058-.651Z"/></g></svg>