<svg xmlns="http://www.w3.org/2000/svg" width="24" height="24"><g fill="none"><path fill="#09244B" d="M3 9.5A1.5 1.5 0 0 1 4.5 11a5.5 5.5 0 0 0 5.279 5.496L10 16.5h2.382a1.5 1.5 0 0 1 2.065-2.164l.114.103 2.525 2.526a1.495 1.495 0 0 1 .07 1.99l-.097.108-2.498 2.498a1.5 1.5 0 0 1-2.272-1.947l.093-.114H10A8.5 8.5 0 0 1 1.5 11 1.5 1.5 0 0 1 3 9.5M19 7a1 1 0 0 1 .898.56l.048.117.13.378a3 3 0 0 0 1.684 1.8l.185.07.378.129a1 1 0 0 1 .118 1.844l-.118.048-.378.13a3 3 0 0 0-1.8 1.684l-.07.185-.129.378a1 1 0 0 1-1.844.118l-.048-.118-.13-.378a3 3 0 0 0-1.684-1.8l-.185-.07-.378-.129a1 1 0 0 1-.118-1.844l.118-.048.378-.13a3 3 0 0 0 1.8-1.684l.07-.185.129-.378A1 1 0 0 1 19 7M7.44 2.44a1.5 1.5 0 0 1 2.27 1.946l-.092.114H12a8.46 8.46 0 0 1 4.787 1.475 2.993 2.993 0 0 0-.551.86l-.075.196-.13.378a1 1 0 0 1-.516.58l-.106.043-.379.129a3.03 3.03 0 0 0-.244.096 5.468 5.468 0 0 0-2.483-.749L12 7.5H9.618a1.5 1.5 0 0 1-2.065 2.164L7.44 9.56l-2.5-2.5a1.5 1.5 0 0 1-.103-2.008l.103-.114z"/></g></svg>