<svg xmlns="http://www.w3.org/2000/svg" width="24" height="24" viewBox="0 0 24 24">
    <g fill="none">
        <path fill="currentColor" d="M22.142 9.282c1.5 5.602-1.823 11.36-7.425 12.86-4.828 1.294-9.77-.997-12.005-5.24a1.5 1.5 0 1 1 2.655-1.398 7.5 7.5 0 1 0-.046-6.917l.1-.023c1.726-.385 2.709 1.901 1.242 2.889L3.99 13.254c-1.043.703-2.502-.022-2.492-1.336a10.503 10.503 0 0 1 7.784-10.06c5.602-1.501 11.36 1.823 12.86 7.424M12 6a1 1 0 0 1 1 1v1h2a1 1 0 1 1 0 2h-5a.5.5 0 1 0 0 1h4a2.5 2.5 0 0 1 0 5h-1v1a1 1 0 1 1-2 0v-1H9a1 1 0 1 1 0-2h5a.5.5 0 0 0 0-1h-4a2.5 2.5 0 0 1 0-5h1V7a1 1 0 0 1 1-1"/>
    </g>
</svg>