<svg xmlns="http://www.w3.org/2000/svg" width="24" height="24" viewBox="0 0 24 24">
    <g fill="none" fill-rule="evenodd">
        <path fill="currentColor" d="M15.623 1.283a1.5 1.5 0 0 1 1.938.156l2.483 2.483c.95.952.277 2.578-1.068 2.578H6A1.5 1.5 0 0 0 4.5 8v8A1.5 1.5 0 0 0 6 17.5h12a1.5 1.5 0 0 0 1.5-1.5v-5a1.5 1.5 0 0 1 3 0v5a4.5 4.5 0 0 1-4.5 4.5H6A4.5 4.5 0 0 1 1.5 16V8A4.5 4.5 0 0 1 6 3.5h9.323l-.165-.33a1.5 1.5 0 0 1 .465-1.887M9.008 8.898c0-1.05.85-1.9 1.9-1.9h2.665a1.5 1.5 0 0 1 0 3h-1.565v.178h.032c2.025 0 3.416 1.577 3.416 3.416a3.416 3.416 0 0 1-3.416 3.415c-.44 0-.905-.102-1.282-.224-.361-.117-.836-.315-1.213-.626a1.5 1.5 0 0 1 1.888-2.331c.025.014.13.065.25.104.17.055.317.078.357.078.23 0 .416-.187.416-.416 0-.164-.057-.262-.105-.312-.042-.043-.126-.104-.31-.104-.512 0-1.023.004-1.533.004a1.5 1.5 0 0 1-1.5-1.5z"/>
    </g>
</svg>