<svg xmlns="http://www.w3.org/2000/svg" width="24" height="24" viewBox="0 0 24 24">
    <g fill="none">
        <path fill="currentColor" d="M12 9a1 1 0 0 1 1 1v4h6a2 2 0 0 1 2 2v3a2 2 0 0 1-2 2H5a2 2 0 0 1-2-2v-3a2 2 0 0 1 2-2h6v-4a1 1 0 0 1 1-1M6.662 3.959A1 1 0 0 1 6.75 5.37 6.97 6.97 0 0 0 5 10c0 .297.018.59.054.876a1 1 0 0 1-1.984.248A9.079 9.079 0 0 1 3 10a8.97 8.97 0 0 1 2.25-5.953 1 1 0 0 1 1.412-.088m12.088.088A8.97 8.97 0 0 1 21 10c0 .38-.024.755-.07 1.124a1 1 0 1 1-1.984-.248c.035-.286.054-.579.054-.876a6.97 6.97 0 0 0-1.75-4.63 1 1 0 1 1 1.5-1.323M9.662 6.604a1 1 0 0 1 .088 1.412 2.985 2.985 0 0 0-.727 2.36 1 1 0 0 1-1.984.248A4.985 4.985 0 0 1 8.25 6.693a1 1 0 0 1 1.41-.089Zm6.088.088a4.984 4.984 0 0 1 1.211 3.932 1 1 0 0 1-1.984-.248 2.985 2.985 0 0 0-.726-2.36 1 1 0 1 1 1.499-1.324"/>
    </g>
</svg>