<svg xmlns="http://www.w3.org/2000/svg" width="24" height="24" viewBox="0 0 24 24">
    <g fill="none">
        <path fill="currentColor" d="M6 16a3 3 0 1 1 0 6 3 3 0 0 1 0-6m13 0a3 3 0 1 1 0 6 3 3 0 0 1 0-6M18 2a1 1 0 1 1 0 2h-.69l2.651 9.724A1.01 1.01 0 0 1 18.987 15h-.756a2.61 2.61 0 0 0-2.334 1.442c-.171.342-.52.558-.903.558h-4.166c-1.143 0-1.902-.66-2.656-1.414A2 2 0 0 0 6.757 15H5a1 1 0 1 1 0-2h1.757a4 4 0 0 1 2.829 1.172l.29.303c.264.273.554.525.952.525h3.603a4.61 4.61 0 0 1 3.268-1.97L15.236 4H14a1 1 0 1 1 0-2z"/>
    </g>
</svg>