<svg xmlns="http://www.w3.org/2000/svg" width="24" height="24"><g fill="none"><path fill="#09244B" d="M10.5 2c1.251 0 2.44.27 3.509.756a3.001 3.001 0 0 0-.97 1.759A6.5 6.5 0 1 0 17 10.5l-.005-.269c.536.48 1.239.765 1.991.769a8.46 8.46 0 0 1-1.809 4.762l3.652 3.652a1 1 0 0 1-1.414 1.414l-3.652-3.652A8.5 8.5 0 1 1 10.5 2m0 3c.927 0 1.801.23 2.568.635a3 3 0 0 0 1.963 2.204l.348.119A5.5 5.5 0 1 1 10.5 5M19 1a1 1 0 0 1 .898.56l.048.117.13.378a3 3 0 0 0 1.684 1.8l.185.07.378.129a1 1 0 0 1 .118 1.844l-.118.048-.378.13a3 3 0 0 0-1.8 1.684l-.07.185-.129.378a1 1 0 0 1-1.844.117l-.048-.117-.13-.378a3 3 0 0 0-1.684-1.8l-.185-.07-.378-.129a1 1 0 0 1-.118-1.844l.118-.048.378-.13a3 3 0 0 0 1.8-1.684l.07-.185.129-.378A1 1 0 0 1 19 1"/></g></svg>