<svg xmlns="http://www.w3.org/2000/svg" width="24" height="24" viewBox="0 0 24 24">
    <g fill="none">
        <path fill="currentColor" d="M16 15c1.306 0 2.418.835 2.83 2H20a1 1 0 1 1 0 2h-1.17a3.001 3.001 0 0 1-5.66 0H4a1 1 0 1 1 0-2h9.17A3.001 3.001 0 0 1 16 15M8 9a3 3 0 0 1 2.762 1.828l.067.172H20a1 1 0 0 1 .117 1.993L20 13h-9.17a3.001 3.001 0 0 1-5.592.172L5.17 13H4a1 1 0 0 1-.117-1.993L4 11h1.17A3.001 3.001 0 0 1 8 9m8-6c1.306 0 2.418.835 2.83 2H20a1 1 0 1 1 0 2h-1.17a3.001 3.001 0 0 1-5.66 0H4a1 1 0 0 1 0-2h9.17A3.001 3.001 0 0 1 16 3"/>
    </g>
</svg>