<svg xmlns="http://www.w3.org/2000/svg" width="24" height="24" viewBox="0 0 24 24">
    <g fill="none" fill-rule="evenodd">
        <path fill="currentColor" d="M18.5 4a1.5 1.5 0 0 0-3 0v.5H4a1.5 1.5 0 1 0 0 3h11.5V8a1.5 1.5 0 0 0 3 0v-.5H20a1.5 1.5 0 0 0 0-3h-1.5zM4 10.5a1.5 1.5 0 0 0 0 3h1.5v.5a1.5 1.5 0 0 0 3 0v-.5H20a1.5 1.5 0 0 0 0-3H8.5V10a1.5 1.5 0 1 0-3 0v.5zM2.5 18A1.5 1.5 0 0 1 4 16.5h11.5V16a1.5 1.5 0 0 1 3 0v.5H20a1.5 1.5 0 0 1 0 3h-1.5v.5a1.5 1.5 0 0 1-3 0v-.5H4A1.5 1.5 0 0 1 2.5 18"/>
    </g>
</svg>