<svg xmlns="http://www.w3.org/2000/svg" width="24" height="24"><g fill="none" fill-rule="evenodd"><path fill="#09244B" d="M12 2a5 5 0 0 1 4.33 7.5c.427.337.814.722 1.152 1.147l.197.26 1.614-1.614a1 1 0 0 1 1.497 1.32l-.083.094-2 2-.07.064a7 7 0 1 1-13.275 0l-.07-.064-2-2a1 1 0 0 1 1.32-1.497l.095.083 1.614 1.614A7.042 7.042 0 0 1 7.669 9.5 5 5 0 0 1 12 2m0 14a1 1 0 1 0 0 2 1 1 0 0 0 0-2m0-3a1 1 0 1 0 0 2 1 1 0 0 0 0-2m-.207-6.207-.5.5a1 1 0 0 0 1.414 1.414l.5-.5a1 1 0 0 0-1.414-1.414"/></g></svg>