<svg xmlns="http://www.w3.org/2000/svg" width="24" height="24"><g fill="none"><path fill="#09244B" d="M12 10a6 6 0 0 1 5.33 8.756l-.133.244H20a1 1 0 0 1 .117 1.993L20 21H4a1 1 0 0 1-.117-1.993L4 19h2.803A6 6 0 0 1 12 10m9 5a1 1 0 1 1 0 2h-1a1 1 0 1 1 0-2zM4 15a1 1 0 1 1 0 2H3a1 1 0 1 1 0-2zm.929-6.071a1 1 0 0 1 1.32-.083l.094.083.707.707a1 1 0 0 1-1.32 1.497l-.094-.083-.707-.707a1 1 0 0 1 0-1.414m14.142 0a1 1 0 0 1 0 1.414l-.707.707a1 1 0 0 1-1.414-1.414l.707-.707a1 1 0 0 1 1.414 0M12 1.879a1 1 0 0 1 1 1v2.707l.414-.415a1 1 0 1 1 1.414 1.415l-2.12 2.121a1 1 0 0 1-1.415 0L9.172 6.586a1 1 0 1 1 1.414-1.415l.414.415V2.88a1 1 0 0 1 1-1Z"/></g></svg>