<svg xmlns="http://www.w3.org/2000/svg" width="24" height="24"><g fill="none"><path fill="#09244B" d="M17 2a4 4 0 0 1 4 4v9a4.002 4.002 0 0 1-3.127 3.904L19.6 20.2a1 1 0 0 1-1.2 1.6L14.667 19H9.333L5.6 21.8a1 1 0 1 1-1.2-1.6l1.727-1.296A4.001 4.001 0 0 1 3 15V6a4 4 0 0 1 4-4zM8.25 13.25a1.25 1.25 0 1 0 0 2.5 1.25 1.25 0 0 0 0-2.5m7.5 0a1.25 1.25 0 1 0 0 2.5 1.25 1.25 0 0 0 0-2.5M16.5 5h-9a1.5 1.5 0 0 0-1.493 1.356L6 6.5v3a1.5 1.5 0 0 0 1.356 1.493L7.5 11h9a1.5 1.5 0 0 0 1.493-1.356L18 9.5v-3a1.5 1.5 0 0 0-1.356-1.493zM16 7v2H8V7z"/></g></svg>