<svg xmlns="http://www.w3.org/2000/svg" width="24" height="24" viewBox="0 0 24 24">
    <g fill="none" fill-rule="nonzero">
        <path fill="currentColor" d="M11 12H8a1 1 0 0 0-1 1v2H5.205c-1.336 0-2.005 1.615-1.06 2.56l2.85 2.852v.002l1.94 1.94c.293.293.678.44 1.062.44.385 0 .769-.147 1.062-.44l1.94-1.94v-.002l2.85-2.852c.945-.945.276-2.56-1.06-2.56h-1.793v-.997h.002v-2h2.998a1 1 0 0 0 1-1v-2h1.793c1.336 0 2.005-1.615 1.06-2.56L17 3.59v-.003l-1.94-1.94a1.496 1.496 0 0 0-1.062-.439c-.384 0-.769.146-1.062.44l-1.94 1.94v.002l-2.85 2.852c-.945.945-.276 2.56 1.06 2.56H11V12Z"/>
    </g>
</svg>