<svg xmlns="http://www.w3.org/2000/svg" width="24" height="24" viewBox="0 0 24 24">
    <g fill="none" fill-rule="nonzero">
        <path fill="currentColor" d="M11.996 13v3a1 1 0 0 0 1 1h2v1.793c0 1.336 1.616 2.006 2.56 1.06l2.853-2.85h.002l1.94-1.94c.293-.293.44-.678.439-1.062 0-.384-.146-.768-.44-1.062L20.41 11h-.001l-2.852-2.851c-.945-.945-2.56-.276-2.56 1.06v1.793H14V11h-2V8.003a1 1 0 0 0-1-1H9V5.209c0-1.336-1.616-2.005-2.56-1.06L3.586 7h-.002l-1.94 1.94c-.293.292-.439.677-.439 1.06 0 .385.146.77.44 1.063l1.94 1.94h.001l2.852 2.85C7.384 16.8 9 16.13 9 14.794V13h2.996Z"/>
    </g>
</svg>