<svg xmlns="http://www.w3.org/2000/svg" width="24" height="24"><g fill="none"><path fill="#09244B" d="M11 2a5 5 0 1 0 0 10 5 5 0 0 0 0-10m0 11c-2.395 0-4.575.694-6.178 1.672-.8.488-1.484 1.064-1.978 1.69C2.358 16.976 2 17.713 2 18.5c0 .845.411 1.511 1.003 1.986.56.45 1.299.748 2.084.956C6.665 21.859 8.771 22 11 22l.685-.005a1 1 0 0 0 .89-1.428A5.973 5.973 0 0 1 12 18c0-1.252.383-2.412 1.037-3.373a1 1 0 0 0-.72-1.557c-.43-.046-.87-.07-1.317-.07m7.316 1.051a1 1 0 0 0-.632 0l-3 1A1 1 0 0 0 14 16v1.671a4.346 4.346 0 0 0 3.866 4.32c.09.01.179.01.268 0A4.346 4.346 0 0 0 22 17.671V16a1 1 0 0 0-.684-.949z"/></g></svg>