<svg xmlns="http://www.w3.org/2000/svg" width="24" height="24"><g fill="none" fill-rule="evenodd"><path fill="#09244B" d="M6.641 7.313C7.968 7.728 9.863 8 12 8s4.031-.272 5.358-.687c1.643-.513 1.786-1.068 0-1.626C16.032 5.272 14.138 5 12 5c-2.137 0-4.032.272-5.359.687-1.778.555-1.618 1.12 0 1.626M12 3c-2.282 0-4.387.288-5.955.778-1.555.486-3.329 1.454-3.033 3.374l1.535 9.982c.338 2.199 1.904 4.16 4.247 4.567.962.167 2.077.299 3.206.299a19.04 19.04 0 0 0 3.206-.299c2.343-.406 3.908-2.368 4.247-4.567l1.535-9.982c.296-1.92-1.478-2.888-3.033-3.374C16.387 3.288 14.281 3 12 3"/></g></svg>