<svg xmlns="http://www.w3.org/2000/svg" width="24" height="24"><g fill="none" fill-rule="evenodd"><path fill="#09244B" d="M16 10c3.154 0 6 2.186 6 5.213 0 1.696-.92 3.153-2.26 4.08-.044.265-.008.532-.008.799a.903.903 0 0 1-.897.908c-.68 0-1.31-.224-1.843-.645a6.895 6.895 0 0 1-.992.071c-3.154 0-6-2.186-6-5.213S12.846 10 16 10M9.5 3c3.777 0 7.149 2.535 7.474 6.062A7.686 7.686 0 0 0 16 9c-3.533 0-7 2.473-7 6.209 0 .354.031.697.09 1.027a8.506 8.506 0 0 1-.926-.094c-.67.549-1.443.858-2.31.858-.518 0-.937-.434-.937-.97l.004-.197.017-.397a2.103 2.103 0 0 0-.055-.59C3.17 13.667 2 11.794 2 9.624 2 5.807 5.525 3 9.5 3M14 13a1 1 0 1 0 0 2 1 1 0 0 0 0-2m4 0a1 1 0 1 0 0 2 1 1 0 0 0 0-2M7 6a1 1 0 1 0 0 2 1 1 0 0 0 0-2m5 0a1 1 0 1 0 0 2 1 1 0 0 0 0-2"/></g></svg>