<svg xmlns="http://www.w3.org/2000/svg" width="24" height="24"><g fill="none"><path fill="#09244B" d="M2.638 4.929a2.5 2.5 0 0 1 4.12.922 7.003 7.003 0 0 1 7.34 1.354l.207.199 7.778 7.778c.356.355.383.931.082 1.321l-.082.093-2.121 2.122a1 1 0 0 1-1.165.182l-.111-.067-3.584-2.481A7 7 0 0 1 3.255 8.917a2.5 2.5 0 0 1-.617-3.988m9.192 4.957a3.5 3.5 0 1 0-4.95 4.95 3.5 3.5 0 0 0 4.95-4.95M8.295 11.3a1.5 1.5 0 1 1 2.12 2.121 1.5 1.5 0 0 1-2.12-2.121M4.759 6.343a.5.5 0 1 0-.707.707.5.5 0 0 0 .707-.707"/></g></svg>