<svg xmlns="http://www.w3.org/2000/svg" width="24" height="24"><g fill="none" fill-rule="evenodd"><path fill="#09244B" d="M12 2v6.5a1.5 1.5 0 0 0 1.356 1.493L13.5 10H20v10a2 2 0 0 1-1.85 1.995L18 22H6a2 2 0 0 1-1.995-1.85L4 20V4a2 2 0 0 1 1.85-1.995L6 2zm-1.06 10.525a1 1 0 0 0-1.498 1.32l.083.094L10.585 15l-1.06 1.06a1 1 0 0 0 1.32 1.498l.094-.083L12 16.415l1.06 1.06a1 1 0 0 0 1.498-1.32l-.083-.094-1.06-1.06 1.06-1.062a1 1 0 0 0-1.32-1.497l-.094.083L12 13.585zM14 2.043a2 2 0 0 1 .877.43l.123.113L19.414 7a2 2 0 0 1 .502.84l.04.16H14z"/></g></svg>