<svg xmlns="http://www.w3.org/2000/svg" viewBox="0 0 512 512"><!--! Font Awesome Pro 6.7.2 by @fontawesome - https://fontawesome.com License - https://fontawesome.com/license (Commercial License) Copyright 2024 Fonticons, Inc. --><defs><style>.fa-secondary{opacity:.4}</style></defs><path class="fa-secondary" d="M32 256c0-22.7 3.4-44.6 9.7-65.3c1.9 .8 4.1 1.3 6.3 1.3l128 0c8.8 0 16-7.2 16-16s-7.2-16-16-16l-86.3 0c33.2-57.4 95.2-96 166.3-96c106 0 192 86 192 192s-86 192-192 192c-67.6 0-127.1-35-161.3-87.8c-3.2-5-8.7-8.2-14.7-8.2c-12.2 0-20.1 12.5-13.9 22.9C44.5 340.4 32 299.7 32 256z"/><path class="fa-primary" d="M48 192c-8.8 0-16-7.2-16-16L32 48c0-8.8 7.2-16 16-16s16 7.2 16 16l0 92.6C103.2 75.5 174.5 32 256 32c123.7 0 224 100.3 224 224s-100.3 224-224 224c-79.9 0-150-41.8-189.7-104.8C59.8 364.8 67.7 352 80 352c6 0 11.4 3.2 14.7 8.2C128.9 413 188.4 448 256 448c106 0 192-86 192-192s-86-192-192-192c-71.1 0-133.1 38.6-166.3 96l86.3 0c8.8 0 16 7.2 16 16s-7.2 16-16 16L48 192z"/></svg>