<svg xmlns="http://www.w3.org/2000/svg" viewBox="0 0 576 512"><!--! Font Awesome Pro 6.7.2 by @fontawesome - https://fontawesome.com License - https://fontawesome.com/license (Commercial License) Copyright 2024 Fonticons, Inc. --><defs><style>.fa-secondary{opacity:.4}</style></defs><path class="fa-secondary" d="M0 400c0 4.1 1.6 8.2 4.7 11.3s7.2 4.7 11.3 4.7s8.2-1.6 11.3-4.7L192 246.6 308.7 363.3c6.2 6.2 16.4 6.2 22.6 0L544 150.6 544 288c0 8.8 7.2 16 16 16s16-7.2 16-16l0 192c0 17.7-14.3 32-32 32L32 512c-17.7 0-32-14.3-32-32l0-80z"/><path class="fa-primary" d="M368 112c0-8.8 7.2-16 16-16l176 0c8.8 0 16 7.2 16 16l0 176c0 8.8-7.2 16-16 16s-16-7.2-16-16l0-137.4L331.3 363.3c-6.2 6.2-16.4 6.2-22.6 0L192 246.6 27.3 411.3c-6.2 6.2-16.4 6.2-22.6 0s-6.2-16.4 0-22.6l176-176c6.2-6.2 16.4-6.2 22.6 0L320 329.4 521.4 128 384 128c-8.8 0-16-7.2-16-16z"/></svg>