<svg xmlns="http://www.w3.org/2000/svg" viewBox="0 0 640 512"><!--! Font Awesome Pro 6.7.2 by @fontawesome - https://fontawesome.com License - https://fontawesome.com/license (Commercial License) Copyright 2024 Fonticons, Inc. --><defs><style>.fa-secondary{opacity:.4}</style></defs><path class="fa-secondary" d="M64 80l0 272 256 0 256 0 0-272c0-8.8-7.2-16-16-16L432 64l0 64 16 0c8.8 0 16 7.2 16 16s-7.2 16-16 16l-32 0-32 0c-8.8 0-16-7.2-16-16s7.2-16 16-16l16 0 0-64L240 64l0 64 16 0c8.8 0 16 7.2 16 16s-7.2 16-16 16l-32 0-32 0c-8.8 0-16-7.2-16-16s7.2-16 16-16l16 0 0-64L80 64c-8.8 0-16 7.2-16 16z"/><path class="fa-primary" d="M432 16c0-8.8-7.2-16-16-16s-16 7.2-16 16l0 16L240 32l0-16c0-8.8-7.2-16-16-16s-16 7.2-16 16l0 16L80 32C53.5 32 32 53.5 32 80l0 272-16 0c-8.8 0-16 7.2-16 16s7.2 16 16 16l16 0 32 0 240 0 0 104c0 8.8 7.2 16 16 16s16-7.2 16-16l0-104 240 0 32 0 16 0c8.8 0 16-7.2 16-16s-7.2-16-16-16l-16 0 0-272c0-26.5-21.5-48-48-48L432 32l0-16zM320 352L64 352 64 80c0-8.8 7.2-16 16-16l128 0 0 64-16 0c-8.8 0-16 7.2-16 16s7.2 16 16 16l32 0 32 0c8.8 0 16-7.2 16-16s-7.2-16-16-16l-16 0 0-64 160 0 0 64-16 0c-8.8 0-16 7.2-16 16s7.2 16 16 16l32 0 32 0c8.8 0 16-7.2 16-16s-7.2-16-16-16l-16 0 0-64 128 0c8.8 0 16 7.2 16 16l0 272-256 0z"/></svg>