<svg xmlns="http://www.w3.org/2000/svg" viewBox="0 0 640 512"><!--! Font Awesome Pro 6.7.2 by @fontawesome - https://fontawesome.com License - https://fontawesome.com/license (Commercial License) Copyright 2024 Fonticons, Inc. --><defs><style>.fa-secondary{opacity:.4}</style></defs><path class="fa-secondary" d="M32 144c0 8.8 7.2 16 16 16l80 0 128 0 128 0 128 0 16 0c-61.9 0-112 50.1-112 112l0 24.6c-2.3 1.3-4.5 2.8-6.6 4.4C395.3 265.2 360.6 240 320 240c-53 0-96 43-96 96l0 96c0 8.8-7.2 16-16 16l-32 0c-8.8 0-16-7.2-16-16l0-96c0-53-43-96-96-96l-16 0c-8.8 0-16 7.2-16 16l0-112z"/><path class="fa-primary" d="M48 32l80 0 128 0 128 0 128 0 80 0c8.8 0 16 7.2 16 16s-7.2 16-16 16l-64 0 0 64 64 0c8.8 0 16 7.2 16 16s-7.2 16-16 16l-64 0-16 0-128 0-128 0-128 0-80 0c-8.8 0-16-7.2-16-16s7.2-16 16-16l64 0 0-64L48 64c-8.8 0-16-7.2-16-16s7.2-16 16-16zM320 240c40.6 0 75.4 25.3 89.4 60.9C394 312.6 384 331.2 384 352l0-16c0-35.3-28.7-64-64-64s-64 28.7-64 64l0 96c0 26.5-21.5 48-48 48l-32 0c-26.5 0-48-21.5-48-48l0-96c0-35.3-28.7-64-64-64l-16 0c-8.8 0-16-7.2-16-16s7.2-16 16-16l16 0c53 0 96 43 96 96l0 96c0 8.8 7.2 16 16 16l32 0c8.8 0 16-7.2 16-16l0-96c0-53 43-96 96-96zM496 64l-96 0 0 64 96 0 0-64zM368 64l-96 0 0 64 96 0 0-64zM240 64l-96 0 0 64 96 0 0-64zM528 224c-26.5 0-48 21.5-48 48l0 48 96 0 0-48c0-26.5-21.5-48-48-48zm-80 48c0-44.2 35.8-80 80-80s80 35.8 80 80l0 48c17.7 0 32 14.3 32 32l0 128c0 17.7-14.3 32-32 32l-160 0c-17.7 0-32-14.3-32-32l0-128c0-17.7 14.3-32 32-32l0-48zm0 80l0 128 160 0 0-128-160 0z"/></svg>