<svg xmlns="http://www.w3.org/2000/svg" viewBox="0 0 512 512"><!--! Font Awesome Pro 6.7.2 by @fontawesome - https://fontawesome.com License - https://fontawesome.com/license (Commercial License) Copyright 2024 Fonticons, Inc. --><defs><style>.fa-secondary{opacity:.4}</style></defs><path class="fa-secondary" d="M32 256a224 224 0 1 0 448 0A224 224 0 1 0 32 256zm208 0c0-7.1 4.6-13.3 11.4-15.3s14 .6 17.9 6.4l64 96c4.9 7.4 2.9 17.3-4.4 22.2s-17.3 2.9-22.2-4.4l-34.7-52 0 91.2c0 8.8-7.2 16-16 16s-16-7.2-16-16l0-144z"/><path class="fa-primary" d="M32 256a224 224 0 1 1 448 0A224 224 0 1 1 32 256zm480 0A256 256 0 1 0 0 256a256 256 0 1 0 512 0zM272 400l0-91.2 34.7 52c4.9 7.4 14.8 9.3 22.2 4.4s9.3-14.8 4.4-22.2l-64-96c-3.9-5.9-11.2-8.5-17.9-6.4s-11.4 8.3-11.4 15.3l0 144c0 8.8 7.2 16 16 16s16-7.2 16-16z"/></svg>