<svg xmlns="http://www.w3.org/2000/svg" viewBox="0 0 512 512"><!--! Font Awesome Pro 6.7.2 by @fontawesome - https://fontawesome.com License - https://fontawesome.com/license (Commercial License) Copyright 2024 Fonticons, Inc. --><defs><style>.fa-secondary{opacity:.4}</style></defs><path class="fa-secondary" d="M480 256A224 224 0 1 1 32 256a224 224 0 1 1 448 0zM146.7 328.9c4.9 7.4 14.8 9.3 22.2 4.4L240 285.9 240 400c0 8.8 7.2 16 16 16s16-7.2 16-16l0-144c0-5.9-3.2-11.3-8.5-14.1s-11.5-2.5-16.4 .8l-96 64c-7.4 4.9-9.3 14.8-4.4 22.2z"/><path class="fa-primary" d="M32 256a224 224 0 1 0 448 0A224 224 0 1 0 32 256zm480 0A256 256 0 1 1 0 256a256 256 0 1 1 512 0zM240 400l0-114.1-71.1 47.4c-7.4 4.9-17.3 2.9-22.2-4.4s-2.9-17.3 4.4-22.2l96-64c4.9-3.3 11.2-3.6 16.4-.8s8.5 8.2 8.5 14.1l0 144c0 8.8-7.2 16-16 16s-16-7.2-16-16z"/></svg>