<svg xmlns="http://www.w3.org/2000/svg" viewBox="0 0 512 512"><!--! Font Awesome Pro 6.7.2 by @fontawesome - https://fontawesome.com License - https://fontawesome.com/license (Commercial License) Copyright 2024 Fonticons, Inc. --><defs><style>.fa-secondary{opacity:.4}</style></defs><path class="fa-secondary" d="M480 256A224 224 0 1 1 32 256a224 224 0 1 1 448 0zM240 112l0 144c0 8.8 7.2 16 16 16l112 0c8.8 0 16-7.2 16-16s-7.2-16-16-16l-96 0 0-128c0-8.8-7.2-16-16-16s-16 7.2-16 16z"/><path class="fa-primary" d="M480 256A224 224 0 1 1 32 256a224 224 0 1 1 448 0zM0 256a256 256 0 1 0 512 0A256 256 0 1 0 0 256zM240 112l0 144c0 8.8 7.2 16 16 16l112 0c8.8 0 16-7.2 16-16s-7.2-16-16-16l-96 0 0-128c0-8.8-7.2-16-16-16s-16 7.2-16 16z"/></svg>