<svg xmlns="http://www.w3.org/2000/svg" viewBox="0 0 512 512"><!--! Font Awesome Pro 6.7.2 by @fontawesome - https://fontawesome.com License - https://fontawesome.com/license (Commercial License) Copyright 2024 Fonticons, Inc. --><defs><style>.fa-secondary{opacity:.4}</style></defs><path class="fa-secondary" d="M128 256a32 32 0 1 1 -64 0 32 32 0 1 1 64 0zm160 0a32 32 0 1 1 -64 0 32 32 0 1 1 64 0zm160 0a32 32 0 1 1 -64 0 32 32 0 1 1 64 0z"/><path class="fa-primary" d="M416 288a32 32 0 1 1 0-64 32 32 0 1 1 0 64zm0-96a64 64 0 1 0 0 128 64 64 0 1 0 0-128zM256 288a32 32 0 1 1 0-64 32 32 0 1 1 0 64zm0-96a64 64 0 1 0 0 128 64 64 0 1 0 0-128zM128 256a32 32 0 1 1 -64 0 32 32 0 1 1 64 0zm-96 0a64 64 0 1 0 128 0A64 64 0 1 0 32 256z"/></svg>