<svg xmlns="http://www.w3.org/2000/svg" viewBox="0 0 640 512"><!--! Font Awesome Pro 6.7.2 by @fontawesome - https://fontawesome.com License - https://fontawesome.com/license (Commercial License) Copyright 2024 Fonticons, Inc. --><defs><style>.fa-secondary{opacity:.4}</style></defs><path class="fa-secondary" d="M51.1 167.2C14.7 204.4 15 264.1 51.9 301c17.9 17.9 42.1 27.9 67.3 27.9l64.8 0c8.8 0 16-7.2 16-16c0-.3 0-.6 0-.9c-.4-6.7-4.9-12.4-11.1-14.3c-1.5-.5-3.2-.8-4.9-.8l-14 0c-2.5 0-4.5-2-4.5-4.5s2-4.5 4.5-4.5l14 0 5.1 0 26.2 0 16.7 0c8.8 0 16-7.2 16-16c0-8.9-7.2-16-16-16l-42.8 0-19.6 0c-2.2 0-4-1.8-4-4s1.8-4 4-4l19.6 0 42.8 0 16 0c4.6 0 8.7-1.9 11.6-5c2.7-2.9 4.4-6.8 4.4-11s-1.7-8.2-4.4-11c-2.9-3.1-7-5-11.6-5l-16 0-42.8 0-19.6 0c-2.2 0-4-1.8-4-4s1.8-4 4-4l19.6 0 42.8 0c8.8 0 15.9-7.1 16-15.8c0-9-7.2-16.2-16-16.2l-99.2 0-.7 0-5.9 0-8 0c-7.1 0-10.7-8.6-5.7-13.7l5.7-5.7 4.2-4.2 .5-.5 18.4-18.4c7.8-7.8 7.8-20.5 0-28.3s-20.5-7.8-28.3 0L51.9 166.4l-.8 .8zm79.4 208.3C170.2 438.3 240.2 480 320 480c57.4 0 109.7-21.6 149.3-57c2.3-2.1 5.1-3.3 7.9-3.8l-21.7 0c-27.3 0-54.3-21.4-58.4-45.7c-3.6-.6-7-1.6-10.4-2.8C390 377 392 384.2 392 392c0 17.6-10 31.9-23.1 41.3C355.8 442.7 338.4 448 320 448s-35.8-5.3-48.9-14.7C258 423.9 248 409.6 248 392s10-31.9 23.1-41.3c13.1-9.4 30.5-14.7 48.9-14.7c11.9 0 23.3 2.2 33.4 6.3c-4.7-8.5-7.5-18.2-7.8-28.6c-7.5-8.3-12.8-18.6-14.9-30c-4.5 1-9.4-.6-12.3-4.5c-5.3-7.1-9.6-14.9-12.7-23.3c-2.7 6.6-6.6 12.7-11.3 17.9c-.8 29.9-22.7 54.6-51.4 59.7c-8.5 24.4-31.7 41.9-58.9 41.9c-17.9 0-35.7 0-53.5 .2zm49.7-296c11 14.6 15.3 32.9 12.6 50.2l39.3 0c33.9 0 61.5 27 62.4 60.7c3.2 3.5 6 7.4 8.3 11.7c7.7-31.2 31.3-56.1 61.7-65.7c3.6-1.1 7.4-.5 10.3 1.5c20.4-26.3 58.2-32 85.5-12.5L475.4 136l.3-.4c2.1-2.9 6.6-9 8.9-11.2c5.4-5.4 11.5-9.7 18-12.8c-5.5 1.3-11.6-.4-15.6-4.9C445.9 60.8 386.3 32 320 32c-50.4 0-97 16.7-134.4 44.8c-1.7 1.3-3.6 2.2-5.5 2.7zM376 272c0 4.3 1.7 8.2 4.4 11c2.9 3.1 7 5 11.6 5l16 0 48.4 0 19.6 0c2.2 0 4 1.8 4 4s-1.8 4-4 4l-19.6 0L408 296c-8.8 0-16 7.1-16 15.9c0 8.9 7.2 16.1 16 16.1l16.7 0 31.3 0 .5 0 19 0c2.5 0 4.5 2 4.5 4.5s-2 4.5-4.5 4.5l-19 0-.5 0c-8.5 0-15.5 6.7-16 15.1c0 .3 0 .6 0 .9c0 8.8 7.2 16 16 16l64.8 0c25.2 0 49.5-10 67.3-27.9c36.9-36.9 37.2-96.6 .8-133.8l-.8-.8L543 161.3c-7.8-7.8-20.5-7.8-28.3 0s-7.8 20.5 0 28.3l7.3 7.3 3.1 3.1 3.1 3.1 1.3 1.3c6.6 6.6 2.7 18-6.6 19c-2.8 .3-5.6-.4-7.8-2l-1.5-1.1-3.6-2.5-3.6-2.5L433.3 163c-7.2-5.1-17.2-3.5-22.3 3.7s-3.5 17.2 3.7 22.3l59.7 42.6c3.5 2.5 5.6 6.6 5.6 10.9c0 7.4-6 13.4-13.4 13.4L392 256c-8.8 0-16 7.2-16 16z"/><path class="fa-primary" d="M185.6 76.8C223 48.7 269.6 32 320 32c66.3 0 125.9 28.8 167 74.7c5.9 6.6 16 7.1 22.6 1.3s7.1-16 1.3-22.6C464 33 395.8 0 320 0C262.4 0 209.2 19.1 166.4 51.2c-7.1 5.3-8.5 15.3-3.2 22.4s15.3 8.5 22.4 3.2zM130.5 375.5c-4.7-7.5-14.6-9.7-22.1-5s-9.7 14.6-5 22.1C148.7 464.3 228.8 512 320 512c65.6 0 125.4-24.7 170.7-65.2c6.6-5.9 7.1-16 1.3-22.6s-16-7.1-22.6-1.3c-39.6 35.5-91.9 57-149.3 57c-79.8 0-149.8-41.7-189.5-104.5zM415 232c.7-2.6 1-5.2 1-8c0-1.6-.1-3.2-.4-4.8L433.6 232 415 232zm-53.8 14.5c-5.8 6.9-9.2 15.8-9.2 25.5c0 13.4 6.6 25.3 16.7 32.5c-.5 2.4-.7 4.9-.7 7.5c0 22.1 17.9 40 40 40l8 0c0 .3 0 .6 0 .9c0 22.1 17.9 40 40 40l64.8 0c31.6 0 61.9-12.6 84.3-34.9c46.2-46.2 46.5-120.9 1-167.6c0 0 0 0 0 0l-.2-.1-.8-.8c0 0 0 0-.1-.1L560 144.3c-17.2-17.2-45-17.2-62.2 0c-7.3 7.3-11.5 16.6-12.6 26.2l-37.9-27.1c-18-12.8-43-8.7-55.8 9.3c-8.5 11.9-9.6 26.9-4 39.4c-1.1-.1-2.3-.2-3.4-.2c-17.7 0-32 14.3-32 32c0 8.8 3.5 16.7 9.2 22.5zM289.7 376.7c7.1-5.1 17.8-8.7 30.3-8.7s23.2 3.6 30.3 8.7c7.2 5.1 9.7 10.7 9.7 15.3s-2.5 10.2-9.7 15.3c-7.1 5.1-17.8 8.7-30.3 8.7s-23.2-3.6-30.3-8.7c-7.2-5.1-9.7-10.7-9.7-15.3s2.5-10.2 9.7-15.3zm-18.6-26C258 360.1 248 374.4 248 392s10 31.9 23.1 41.3c13.1 9.4 30.5 14.7 48.9 14.7s35.8-5.3 48.9-14.7C382 423.9 392 409.6 392 392s-10-31.9-23.1-41.3C355.8 341.3 338.4 336 320 336s-35.8 5.3-48.9 14.7zM379.4 144.1c-2-6.3-8.7-9.8-15-7.9C327.1 147.9 300 182.8 300 224c0 20.7 6.8 39.8 18.4 55.2c4 5.3 11.5 6.4 16.8 2.4s6.4-11.5 2.4-16.8C329.1 253.4 324 239.3 324 224c0-30.4 20-56.2 47.6-64.9c6.3-2 9.8-8.7 7.9-15zM96 88.3L34.9 149.4c0 0 0 0 0 0l-.8 .8s0 0 0 0l-.1 .2c-45.5 46.6-45.2 121.3 1 167.6c22.4 22.4 52.7 34.9 84.3 34.9l64.8 0c22.1 0 40-17.9 40-40c0-.3 0-.6 0-.9l8 0c22.1 0 40-17.9 40-40c0-2.6-.2-5.1-.7-7.5c10.1-7.3 16.7-19.1 16.7-32.5s-6.6-25.3-16.7-32.5c.5-2.4 .7-4.9 .7-7.5c0-22.1-17.9-40-40-40l-75.2 0 1.5-1.5c17.2-17.2 17.2-45 0-62.2s-45-17.2-62.2 0zm92.9 209.3c6.2 2 10.7 7.6 11.1 14.3c0 .3 0 .6 0 .9c0 8.8-7.2 16-16 16l-64.8 0c-25.2 0-49.5-10-67.3-27.9c-36.9-36.9-37.2-96.6-.8-133.8l.8-.8L113 105.3c7.8-7.8 20.5-7.8 28.3 0s7.8 20.5 0 28.3L122.8 152l-.5 .5-4.2 4.2-5.7 5.7c-5 5-1.5 13.7 5.7 13.7l8 0 5.9 0 .7 0 99.2 0c8.8 0 16 7.2 16 16c0 0 0 0 0 0l0 .2s0 0 0 0c-.1 8.8-7.2 15.8-16 15.8l-42.8 0-19.6 0c-2.2 0-4 1.8-4 4s1.8 4 4 4l19.6 0 42.8 0 16 0c4.6 0 8.7 1.9 11.6 5c2.7 2.9 4.4 6.8 4.4 11s-1.7 8.2-4.4 11c-2.9 3.1-7 5-11.6 5l-16 0-42.8 0-19.6 0c-2.2 0-4 1.8-4 4s1.8 4 4 4l19.6 0 42.8 0c8.8 0 16 7.1 16 15.9c0 0 0 0 0 0c0 0 0 .1 0 .1c0 0 0 0 0 0c0 8.8-7.2 16-16 16l-16.7 0-26.2 0-5.1 0-14 0c-2.5 0-4.5 2-4.5 4.5s2 4.5 4.5 4.5l14 0c1.7 0 3.3 .3 4.9 .8zM376 272c0-8.8 7.2-16 16-16l74.6 0c7.4 0 13.4-6 13.4-13.4c0-4.3-2.1-8.4-5.6-10.9L414.7 189c-7.2-5.1-8.9-15.1-3.7-22.3s15.1-8.9 22.3-3.7l73.1 52.2 3.6 2.5 3.6 2.5 1.5 1.1c2.3 1.6 5.1 2.3 7.8 2c9.3-1.1 13.2-12.4 6.6-19l-1.3-1.3-3.1-3.1-3.1-3.1-7.3-7.3c-7.8-7.8-7.8-20.5 0-28.3s20.5-7.8 28.3 0l45.1 45.1 .8 .8c36.4 37.2 36.1 96.9-.8 133.8c-17.9 17.9-42.1 27.9-67.3 27.9l-64.8 0c-8.8 0-16-7.2-16-16c0-.3 0-.6 0-.9c.5-8.4 7.4-15.1 16-15.1l.5 0 19 0c2.5 0 4.5-2 4.5-4.5s-2-4.5-4.5-4.5l-19 0-.5 0-31.3 0L408 328c-8.8 0-16-7.2-16-16c0 0 0-.1 0-.1c0-8.8 7.2-15.9 16-15.9l48.4 0 19.6 0c2.2 0 4-1.8 4-4s-1.8-4-4-4l-19.6 0L408 288l-16 0c-4.6 0-8.7-1.9-11.6-5c-2.7-2.9-4.4-6.8-4.4-11z"/></svg>