<svg xmlns="http://www.w3.org/2000/svg" viewBox="0 0 448 512"><!--! Font Awesome Pro 6.7.2 by @fontawesome - https://fontawesome.com License - https://fontawesome.com/license (Commercial License) Copyright 2024 Fonticons, Inc. --><defs><style>.fa-secondary{opacity:.4}</style></defs><path class="fa-secondary" d="M32 40l0 278.2c17.8-20.2 41.9-35 69.8-41l22.8-4.9c8.6-1.9 17.1 3.7 19 12.3s-3.7 17.1-12.3 19l-22.8 4.9c-44.6 9.6-76.5 49-76.5 94.6c0 28.7 12.8 56 34.8 74.4l7.4 6.2c6.8 5.7 7.7 15.7 2 22.5C73.1 510 68.6 512 64 512l120 0c-30.9 0-56-25.1-56-56l0-6.1c0-27.6 22.3-49.9 49.9-49.9c28.8 0 56.2 12.3 75.3 33.8L292 477.4l2.3 2.6 34 0c48.5 0 87.7-39.3 87.7-87.7c0-25.9-11.4-50.8-30.5-69.6C333.7 272 235.8 165.7 161.8 23.4c-4.1-7.8-1-17.5 6.8-21.6c2.2-1.2 4.6-1.8 7-1.8L160 0 128 0 72 0C49.9 0 32 17.9 32 40zM160 449.9l0 6.1c0 13.3 10.7 24 24 24l67.5 0-22.1-24.9c-13.1-14.7-31.8-23.1-51.4-23.1c-9.9 0-17.9 8-17.9 17.9z"/><path class="fa-primary" d="M190.2 8.6c-4.1-7.8-13.7-10.9-21.6-6.8s-10.9 13.7-6.8 21.6c74 142.4 171.9 248.6 223.7 299.3c19.1 18.7 30.5 43.7 30.5 69.6c0 48.5-39.3 87.7-87.7 87.7l-34 0-2.3-2.6-38.7-43.5c-19.1-21.5-46.5-33.8-75.3-33.8c-27.6 0-49.9 22.3-49.9 49.9l0 6.1c0 30.9 25.1 56 56 56l144.3 0C394.4 512 448 458.4 448 392.3c0-35.3-15.5-68.3-40.1-92.4c-50.5-49.5-145.8-153-217.7-291.2zm39.1 446.5L251.5 480 184 480c-13.3 0-24-10.7-24-24l0-6.1c0-9.9 8-17.9 17.9-17.9c19.7 0 38.4 8.4 51.4 23.1zm-98-151.4c8.6-1.9 14.1-10.4 12.3-19s-10.4-14.1-19-12.3l-22.8 4.9C42.4 290 0 342.4 0 403.2c0 38.2 17 74.5 46.3 98.9l7.4 6.2c6.8 5.7 16.9 4.7 22.5-2s4.7-16.9-2-22.5l-7.4-6.2C44.8 459.1 32 431.9 32 403.2c0-45.6 31.9-85.1 76.5-94.6l22.8-4.9z"/></svg>