<svg xmlns="http://www.w3.org/2000/svg" viewBox="0 0 640 512"><!--! Font Awesome Pro 6.7.2 by @fontawesome - https://fontawesome.com License - https://fontawesome.com/license (Commercial License) Copyright 2024 Fonticons, Inc. --><defs><style>.fa-secondary{opacity:.4}</style></defs><path class="fa-secondary" d="M32 160l0 192 576 0 0-192-352 0L32 160z"/><path class="fa-primary" d="M32 112c0-8.8-7.2-16-16-16s-16 7.2-16 16l0 32L0 368l0 32c0 8.8 7.2 16 16 16s16-7.2 16-16l0-16 576 0 0 16c0 8.8 7.2 16 16 16s16-7.2 16-16l0-32 0-224 0-32c0-8.8-7.2-16-16-16s-16 7.2-16 16l0 16-352 0L32 128l0-16zM608 352L32 352l0-192 224 0 352 0 0 192z"/></svg>