<svg xmlns="http://www.w3.org/2000/svg" width="24" height="24" viewBox="0 0 640 512">
    <path class="pr-icon-duotone-secondary" d="M64 432l0 32c0 8.8 7.2 16 16 16s16-7.2 16-16l0-32c0-8.8-7.2-16-16-16s-16 7.2-16 16zM224 304l0 160c0 8.8 7.2 16 16 16s16-7.2 16-16l0-160c0-8.8-7.2-16-16-16s-16 7.2-16 16zM384 176l0 288c0 8.8 7.2 16 16 16s16-7.2 16-16l0-288c0-8.8-7.2-16-16-16s-16 7.2-16 16z"/>
    <path class="pr-icon-duotone-primary" d="M416 464c0 8.8-7.2 16-16 16s-16-7.2-16-16l0-288c0-8.8 7.2-16 16-16s16 7.2 16 16l0 288zM400 128c-26.5 0-48 21.5-48 48l0 288c0 26.5 21.5 48 48 48s48-21.5 48-48l0-288c0-26.5-21.5-48-48-48zM256 464c0 8.8-7.2 16-16 16s-16-7.2-16-16l0-160c0-8.8 7.2-16 16-16s16 7.2 16 16l0 160zM240 256c-26.5 0-48 21.5-48 48l0 160c0 26.5 21.5 48 48 48s48-21.5 48-48l0-160c0-26.5-21.5-48-48-48zM96 432l0 32c0 8.8-7.2 16-16 16s-16-7.2-16-16l0-32c0-8.8 7.2-16 16-16s16 7.2 16 16zm-64 0l0 32c0 26.5 21.5 48 48 48s48-21.5 48-48l0-32c0-26.5-21.5-48-48-48s-48 21.5-48 48z"/>
</svg>