<svg xmlns="http://www.w3.org/2000/svg" viewBox="0 0 576 512"><!--! Font Awesome Pro 6.7.2 by @fontawesome - https://fontawesome.com License - https://fontawesome.com/license (Commercial License) Copyright 2024 Fonticons, Inc. --><defs><style>.fa-secondary{opacity:.4}</style></defs><path class="fa-secondary" d="M32 128l0 256c0 17.7 14.3 32 32 32l320 0 0-112c0-26.5 21.5-48 48-48l112 0 0-128c0-17.7-14.3-32-32-32L64 96c-17.7 0-32 14.3-32 32zm88 32a24 24 0 1 1 -48 0 24 24 0 1 1 48 0z"/><path class="fa-primary" d="M32 384l0-256c0-17.7 14.3-32 32-32l448 0c17.7 0 32 14.3 32 32l0 128-112 0c-26.5 0-48 21.5-48 48l0 112L64 416c-17.7 0-32-14.3-32-32zm391.4 27.3c-2.1 2.1-4.6 3.5-7.4 4.2L416 304c0-8.8 7.2-16 16-16l111.5 0c-.7 2.8-2.1 5.4-4.2 7.4L423.4 411.3zM576 128c0-35.3-28.7-64-64-64L64 64C28.7 64 0 92.7 0 128L0 384c0 35.3 28.7 64 64 64l348.1 0c12.7 0 24.9-5.1 33.9-14.1L561.9 318.1c9-9 14.1-21.2 14.1-33.9L576 128zM96 184a24 24 0 1 0 0-48 24 24 0 1 0 0 48z"/></svg>