<svg xmlns="http://www.w3.org/2000/svg" viewBox="0 0 448 512"><!--! Font Awesome Pro 6.7.2 by @fontawesome - https://fontawesome.com License - https://fontawesome.com/license (Commercial License) Copyright 2024 Fonticons, Inc. --><defs><style>.fa-secondary{opacity:.4}</style></defs><path class="fa-secondary" d="M227.5 16.4l144 32c5.7 1.3 10.3 5.5 11.9 11.1s.1 11.7-4 15.8L352 102.6l0 8.2c0 10.7-5.2 20.9-14.7 25.9C317.3 147.5 282.8 160 224 160c0 0 0 0 0 0c-58.8 0-93.3-12.5-113.3-23.2c-9.5-5-14.7-15.2-14.7-25.9l0-8.2L68.7 75.3c-4.1-4.1-5.7-10.2-4-15.8s6.2-9.9 11.9-11.1l144-32c2.3-.5 4.7-.5 6.9 0zM224 160c38.4-16 48-53.3 48-76.8L224 64 176 83.2c0 23.5 9.6 60.8 48 76.8zM153 372.2l49.3 45.5c12.3 11.3 31.2 11.3 43.4 0L295 372.2c3-2.7 6.8-4.2 10.9-4.2l7.8 0C379 368 432 421 432 486.4c0 5.3-4.3 9.6-9.6 9.6L25.6 496c-5.3 0-9.6-4.3-9.6-9.6C16 421 69 368 134.4 368l7.8 0c4 0 7.9 1.5 10.9 4.2z"/><path class="fa-primary" d="M217.1 .8l-144 32C61.7 35.3 52.5 43.8 49.3 55.1s-.2 23.3 8.1 31.6L80 109.3l0 1.6c0 15.6 7.6 31.8 23.2 40.1l7.5-14.1L103.2 151c22.5 12 59.5 25 120.8 25s98.3-13.1 120.8-25c15.5-8.2 23.2-24.5 23.2-40.1l0-1.6 22.6-22.6-6.2-6.2 6.2 6.2c8.3-8.3 11.4-20.4 8.1-31.6s-12.4-19.8-23.8-22.3l-144-32c-4.6-1-9.3-1-13.9 0zM224 32L368 64 340.7 91.3c-3 3-4.7 7.1-4.7 11.3l0 8.2c0 5.8-2.8 10-6.2 11.8c-11.9 6.3-30.3 13.8-58.4 18C284.2 121.1 288 98.9 288 83.2c0-6.5-4-12.4-10.1-14.9l-48-19.2c-3.8-1.5-8.1-1.5-11.9 0l-48 19.2C164 70.8 160 76.7 160 83.2c0 15.7 3.8 37.9 16.5 57.5c-28.1-4.2-46.5-11.7-58.4-18c-3.4-1.8-6.2-6-6.2-11.8l0-8.2c0-4.2-1.7-8.3-4.7-11.3L80 64 224 32zM96 192c0 70.7 57.3 128 128 128s128-57.3 128-128c0-2.9-.1-5.8-.3-8.7c-9.1 4.3-19.6 8.5-31.8 12.1C318.1 246.9 275.9 288 224 288s-94.1-41.1-95.9-92.6c-12.2-3.6-22.7-7.8-31.8-12.1c-.2 2.9-.3 5.8-.3 8.7zm128-49.7C203.5 131 195.1 111 192.7 93.7L224 81.2l31.3 12.5C252.9 111 244.5 131 224 142.3zM191.4 429.5c18.4 17 46.7 17 65.1 0L305.8 384l7.8 0c54.4 0 98.9 42.4 102.2 96L336 480l0-16 16 0c8.8 0 16-7.2 16-16s-7.2-16-16-16l-16 0 0-16c0-8.8-7.2-16-16-16s-16 7.2-16 16l0 16-16 0c-8.8 0-16 7.2-16 16s7.2 16 16 16l16 0 0 16L32.2 480c3.3-53.6 47.8-96 102.2-96l7.8 0 49.3 45.5zM320.3 512l102.1 0c14.1 0 25.6-11.5 25.6-25.6C448 412.2 387.8 352 313.6 352l-7.8 0c-8 0-15.8 3-21.7 8.5L234.9 406c-6.1 5.7-15.6 5.7-21.7 0l-49.3-45.5c-5.9-5.5-13.7-8.5-21.7-8.5l-7.8 0C60.2 352 0 412.2 0 486.4C0 500.5 11.5 512 25.6 512l294.1 0c.1 0 .2 0 .3 0s.2 0 .3 0z"/></svg>