<svg width="48" height="48" viewBox="0 0 103 101" fill="none" xmlns="http://www.w3.org/2000/svg" stroke-width="1px" stroke-linecap="round" stroke-linejoin="round"><path d="M72.3912 58.3698V78.3698L65.4512 74.3598V62.3798L58.3312 58.2698L58.3612 58.2498L51.3712 54.2198L51.3412 54.2398L47.9512 52.2798V44.2598L51.3712 46.2298L72.3912 58.3698Z" stroke="#229EFF" stroke-linejoin="round"/><path d="M27.0007 32.1698V40.2298L16.6608 46.1998L2.55078 38.0498V18.0498L19.8707 28.0498L27.0007 32.1698Z" stroke="#229EFF" stroke-linejoin="round"/><path d="M44.391 30.1896L27.001 40.2297V32.1697L37.411 26.1597L44.391 30.1896Z" stroke="#229EFF" stroke-linejoin="round"/><path d="M58.3611 38.2497L51.3711 42.2897V34.2197L54.7311 36.1597L58.3611 38.2497Z" stroke="#229EFF" stroke-linejoin="round"/><path d="M65.4504 62.3799V82.3799L37.6904 98.4099V78.4099L48.1305 72.3799L55.0704 68.3699L65.4504 62.3799Z" stroke="#229EFF" stroke-linejoin="round"/><path d="M100.151 42.3499V62.3499L72.3906 78.3698V58.3698L82.8306 52.3499L100.151 42.3499Z" stroke="#229EFF" stroke-linejoin="round"/><path d="M100.151 42.3498L82.8307 52.3498L72.3907 58.3698L51.3707 46.2298L47.9507 44.2598L47.9807 44.2398L51.3707 42.2898L58.3607 38.2498L54.7307 36.1598L51.3707 34.2198L27.0007 48.2898L23.6407 50.2298L23.6107 50.2498L30.6007 54.2798L41.0107 48.2698L44.3607 50.2098L47.9507 52.2798L51.3407 54.2398L58.3307 58.2698L65.4507 62.3798L55.0707 68.3698L48.1307 72.3798L37.6907 78.4098L16.6007 66.2298L13.2507 64.2998L23.6608 58.2898L9.69067 50.2198L16.6608 46.1998L27.0007 40.2298L44.3907 30.1898L37.4108 26.1598L27.0007 32.1698L19.8707 28.0498L2.55078 18.0498L30.3108 2.02979L54.7607 16.1398L44.3507 22.1498L54.7607 28.1598L65.3008 34.2498L75.7107 28.2398L100.151 42.3498Z" stroke="#229EFF" stroke-linejoin="round"/><path d="M37.6909 78.4098V98.4098L13.251 84.2998V64.2998L16.601 66.2298L37.6909 78.4098Z" stroke="#229EFF" stroke-linejoin="round"/><path d="M23.6605 58.2897L13.2505 64.2997V72.2797L9.69043 70.2197V50.2197L23.6605 58.2897Z" stroke="#229EFF" stroke-linejoin="round"/><path d="M51.3704 34.2197V42.2897L47.9803 44.2397L47.9503 44.2597V52.2797L44.3604 50.2097L41.0104 48.2697L30.6003 54.2797L23.6104 50.2497L23.6404 50.2297L27.0004 48.2897L51.3704 34.2197Z" stroke="#229EFF" stroke-linejoin="round"/><path d="M54.7606 16.1396V28.1597L44.3506 22.1497L54.7606 16.1396Z" stroke="#229EFF" stroke-linejoin="round"/></svg>