<svg viewBox="0 0 106 83" fill="none" xmlns="http://www.w3.org/2000/svg" height="48" width="48" stroke-width="1px"
     stroke-linecap="round" stroke-linejoin="round">
    <path d="M63.4099 40.3586V40.4186L63.4598 40.3886L63.4099 40.3586ZM46.0898 40.4186L46.1399 40.4486V40.3886L46.0898 40.4186Z" stroke="currentColor" stroke-linejoin="round"/>
    <path d="M3.13959 60.2186V80.2186C2.41959 75.2586 2.05957 70.6386 2.05957 66.3486V46.3486C2.05957 49.6886 2.27957 53.2286 2.71957 56.9786C2.83957 58.0386 2.97959 59.1186 3.13959 60.2186Z" stroke="currentColor" stroke-linejoin="round"/>
    <path d="M63.4099 40.3586V40.4186L63.4598 40.3886L63.4099 40.3586ZM46.0898 40.4186L46.1399 40.4486V40.3886L46.0898 40.4186Z" stroke="currentColor" stroke-linejoin="round"/>
    <path d="M103.82 30.0287C103.24 22.3187 98.3696 15.8187 89.1996 10.5287C80.0396 5.23869 68.7796 2.41869 55.4296 2.08869C42.0796 1.74869 30.0296 4.68869 19.2696 10.8987C12.0996 15.0387 7.16958 21.1987 4.47958 29.3787C2.86958 34.2787 2.05957 39.9387 2.05957 46.3487C2.05957 49.6887 2.27957 53.2287 2.71957 56.9787C2.83957 58.0387 2.97959 59.1187 3.13959 60.2187C16.1396 60.8387 27.7996 60.9887 38.1296 60.6687C40.9596 60.5787 43.6796 60.4587 46.2996 60.2987C49.9096 60.0787 53.3196 59.7887 56.5496 59.4387C58.0396 59.2787 59.4796 59.0987 60.8896 58.9087C65.6696 58.2587 69.9996 57.4487 73.8896 56.4687C79.7996 54.9887 84.6796 53.1287 88.5596 50.8987C94.0996 47.6987 98.1296 44.2987 100.66 40.7087C102.56 38.0087 103.61 35.2087 103.82 32.2887C103.85 31.9187 103.86 31.5387 103.86 31.1587C103.86 30.7787 103.85 30.4087 103.82 30.0287ZM71.9896 40.4687L67.7896 42.8887L63.4596 40.3887L63.4096 40.4187V40.3587L54.7996 35.3887L54.7496 35.4187L46.1396 40.3887V40.4487L46.0896 40.4187L41.8896 42.8387L33.2296 37.8387L41.7596 32.9187L46.1396 30.3887L41.7596 27.8587L35.5096 24.2487L33.1496 22.8887L41.7596 17.9187L49.1396 22.1787L54.7496 25.4187L60.1296 22.3187L67.6596 17.9687L76.3196 22.9687L73.7896 24.4287L67.6596 27.9687L63.4096 30.4187L67.6596 32.8687L76.3996 37.9187L71.9896 40.4687Z" stroke="currentColor" stroke-linejoin="round"/>
    <path d="M76.3992 37.9187L71.9892 40.4687L67.7892 42.8887L63.4592 40.3887L63.4092 40.3587V30.4187L67.6592 32.8687L76.3992 37.9187Z" stroke="currentColor" stroke-linejoin="round"/>
    <path d="M67.66 17.9688V27.9688L63.41 30.4187V40.3587L54.8 35.3887L54.75 35.4187V25.4187L60.13 22.3187L67.66 17.9688Z" stroke="currentColor" stroke-linejoin="round"/>
    <path d="M76.3192 22.9688L73.7892 24.4287L67.6592 27.9688V17.9688L76.3192 22.9688Z" stroke="currentColor" stroke-linejoin="round"/>
    <path d="M54.7498 25.4187V35.4187L46.1398 40.3887V30.3887L41.7598 27.8587V17.9187L49.1398 22.1787L54.7498 25.4187Z" stroke="currentColor" stroke-linejoin="round"/>
    <path d="M41.7594 17.9187V27.8587L35.5094 24.2487L33.1494 22.8887L41.7594 17.9187Z" stroke="currentColor" stroke-linejoin="round"/>
    <path d="M46.1395 30.3887V40.3887L46.0895 40.4187L41.8895 42.8387L33.2295 37.8387L41.7595 32.9187L46.1395 30.3887Z" stroke="currentColor" stroke-linejoin="round"/>
    <path d="M2.05957 46.3486V45.5686" stroke="currentColor" stroke-linejoin="round"/>
    <path d="M103.86 31.1587V51.4487C103.75 58.5787 98.6496 65.0687 88.5596 70.8987C81.3796 75.0387 70.7196 77.8887 56.5496 79.4387C42.3896 80.9887 24.5796 81.2487 3.13965 80.2187V60.2187C16.1396 60.8387 27.7996 60.9887 38.1296 60.6687C40.9596 60.5787 43.6796 60.4587 46.2996 60.2987C49.9096 60.0787 53.3196 59.7887 56.5496 59.4387C58.0396 59.2787 59.4796 59.0987 60.8896 58.9087C65.6696 58.2587 69.9996 57.4487 73.8896 56.4687C79.7996 54.9887 84.6796 53.1287 88.5596 50.8987C94.0996 47.6987 98.1296 44.2987 100.66 40.7087C102.56 38.0087 103.61 35.2087 103.82 32.2887C103.85 31.9187 103.86 31.5387 103.86 31.1587Z" stroke="currentColor" stroke-linejoin="round"/>
    <path d="M103.859 31.1588V30.7588" stroke="currentColor" stroke-linejoin="round"/>
</svg>