<svg width="24" height="24" viewBox="0 0 106 95" fill="none" xmlns="http://www.w3.org/2000/svg" stroke-width="1px" stroke-linecap="round" stroke-linejoin="round">
    <path d="M82.6101 49.8896V69.8896C81.7801 68.4696 80.5602 67.0396 78.9502 65.6096C77.4502 64.2696 75.8501 63.0897 74.1501 62.0897V57.1196C74.1301 52.8696 71.5003 49.2296 66.2603 46.2096C61.0203 43.1896 54.7201 41.6696 47.3601 41.6496C40.0001 41.6396 33.7203 43.1396 28.5103 46.1396C23.3103 49.1496 20.7202 52.7797 20.7402 57.0297V61.8896C16.9502 64.1096 14.2501 66.5196 12.6301 69.1396C10.9801 71.7996 10.1301 74.4596 10.0801 77.1096V57.1096C10.1301 54.4596 10.9801 51.7996 12.6301 49.1396C14.2801 46.4696 17.0502 44.0196 20.9402 41.7696C28.2202 37.5696 37.0101 35.4797 47.3301 35.4997C57.6501 35.5197 66.47 37.6396 73.79 41.8696C75.62 42.9196 77.3402 44.1696 78.9502 45.6096C80.5602 47.0396 81.7801 48.4696 82.6101 49.8896Z" stroke="currentColor" stroke-linejoin="round"/>
    <path d="M10.0801 57.1096V77.1096C10.0101 77.0796 9.95014 77.0596 9.89014 77.0596C9.83014 77.0596 9.7602 77.0396 9.7002 77.0096C4.7102 72.1996 2.22021 66.9796 2.22021 61.3296V41.3296C2.22021 44.6696 3.0901 47.8696 4.8501 50.9196C6.0501 53.0196 7.6702 55.0496 9.7002 57.0096C9.7602 57.0396 9.83014 57.0596 9.89014 57.0596C9.95014 57.0596 10.0101 57.0796 10.0801 57.1096Z" stroke="currentColor" stroke-linejoin="round"/>
    <path d="M66.2604 46.2095C61.0204 43.1895 54.7202 41.6695 47.3602 41.6495C40.0002 41.6395 33.7204 43.1395 28.5104 46.1395C23.3104 49.1495 20.7203 52.7795 20.7403 57.0295C20.7503 58.5395 21.0804 59.9695 21.7504 61.3195C22.7704 63.3895 24.5602 65.2895 27.1302 66.9995C27.6002 67.3295 28.1002 67.6395 28.6302 67.9395C33.3602 70.6595 38.9503 72.1695 45.4003 72.4395C46.1003 72.4795 46.8101 72.4895 47.5301 72.4895C51.8401 72.4995 55.7802 71.9895 59.3502 70.9595C61.8802 70.2295 64.2202 69.2495 66.3802 67.9995C66.8602 67.7195 67.3204 67.4395 67.7604 67.1395C70.3304 65.4595 72.1203 63.5795 73.1403 61.5095C73.8103 60.1495 74.1503 58.7095 74.1503 57.1895V57.1195C74.1303 52.8695 71.5004 49.2295 66.2604 46.2095ZM42.9203 65.9195C40.3703 65.4995 38.1103 64.7195 36.1603 63.5895C35.9403 63.4595 35.7204 63.3295 35.5104 63.1995C33.9004 62.1595 32.7802 60.9895 32.1302 59.6895C31.7502 58.9395 31.5403 58.1795 31.4803 57.4395C31.4403 56.7195 31.5301 56.0095 31.7701 55.2995C33.4401 55.5495 35.0502 55.8995 36.6002 56.3295C37.1102 56.4695 37.6102 56.6195 38.1002 56.7795C40.1202 57.4395 41.9803 58.2595 43.6803 59.2495C44.9903 59.9995 46.1202 60.7995 47.0902 61.6495C47.3902 61.9195 47.6803 62.1895 47.9503 62.4695C49.0903 63.6295 49.9401 64.8495 50.5201 66.1195C48.0001 66.4095 45.4703 66.3395 42.9203 65.9195ZM59.4703 56.6295C59.2603 56.7895 59.0201 56.9495 58.7701 57.0895C57.2001 57.9995 55.3202 58.4495 53.1202 58.4495C50.9102 58.4495 49.0203 57.9795 47.4503 57.0695C46.6403 56.5995 46.0303 56.0895 45.6403 55.5195C45.2603 54.9895 45.0702 54.4195 45.0702 53.7995C45.0602 52.5295 45.8403 51.4395 47.4103 50.5395C48.9803 49.6295 50.8602 49.1795 53.0702 49.1795C55.2702 49.1895 57.1603 49.6395 58.7403 50.5595C60.3103 51.4695 61.1102 52.5595 61.1102 53.8295C61.1202 54.8895 60.5703 55.8295 59.4703 56.6295Z" stroke="currentColor" stroke-linejoin="round"/>
    <path d="M50.5197 66.1196C47.9997 66.4096 45.4698 66.3396 42.9198 65.9196C40.3698 65.4996 38.1098 64.7196 36.1598 63.5896C35.9398 63.4596 35.7199 63.3296 35.5099 63.1996C33.8999 62.1596 32.7798 60.9896 32.1298 59.6896C31.7498 58.9396 31.5399 58.1796 31.4799 57.4396C31.4399 56.7196 31.5297 56.0096 31.7697 55.2996C33.4397 55.5496 35.0497 55.8996 36.5997 56.3296C37.1097 56.4696 37.6097 56.6196 38.0997 56.7796C40.1197 57.4396 41.9798 58.2596 43.6798 59.2496C44.9898 59.9996 46.1197 60.7996 47.0897 61.6496C47.3897 61.9196 47.6798 62.1896 47.9498 62.4696C49.0898 63.6296 49.9397 64.8496 50.5197 66.1196Z" stroke="currentColor" stroke-linejoin="round"/>
    <path d="M61.1104 53.8297C61.1204 54.8897 60.5706 55.8297 59.4706 56.6297C59.2606 56.7897 59.0204 56.9497 58.7704 57.0897C57.2004 57.9997 55.3205 58.4497 53.1205 58.4497C50.9105 58.4497 49.0205 57.9797 47.4505 57.0697C46.6405 56.5997 46.0305 56.0897 45.6405 55.5197C45.2605 54.9897 45.0704 54.4197 45.0704 53.7997C45.0604 52.5297 45.8405 51.4397 47.4105 50.5397C48.9805 49.6297 50.8604 49.1797 53.0704 49.1797C55.2704 49.1897 57.1606 49.6397 58.7406 50.5597C60.3106 51.4697 61.1104 52.5597 61.1104 53.8297Z" stroke="currentColor" stroke-linejoin="round"/>
    <path d="M103.96 37.5596L93.1001 43.8296L82.6101 49.8896C81.7801 48.4696 80.5602 47.0396 78.9502 45.6096C77.3402 44.1696 75.62 42.9196 73.79 41.8696C66.47 37.6396 57.6501 35.5196 47.3301 35.4996C37.0101 35.4796 28.2202 37.5696 20.9402 41.7696C17.0502 44.0196 14.2801 46.4696 12.6301 49.1396C10.9801 51.7996 10.1301 54.4596 10.0801 57.1096C10.0101 57.0796 9.95014 57.0596 9.89014 57.0596C9.83014 57.0596 9.7602 57.0396 9.7002 57.0096C7.6702 55.0496 6.0501 53.0196 4.8501 50.9196C3.0901 47.8696 2.22021 44.6696 2.22021 41.3296C2.22021 39.5296 2.47022 37.6896 2.98022 35.7996C5.08022 27.9896 10.8902 21.3396 20.4202 15.8396L43.3801 2.57959L84.9602 13.5496L103.96 37.5596Z" stroke="currentColor" stroke-linejoin="round"/>
    <path d="M103.96 37.5596V57.5596L82.6104 69.8896V49.8896L93.1003 43.8296L103.96 37.5596Z" stroke="currentColor" stroke-linejoin="round"/>
    <path d="M2.22021 61.6496V61.3296" stroke="currentColor" stroke-linejoin="round"/>
    <path d="M2.22021 41.3297V40.9497" stroke="currentColor" stroke-linejoin="round"/>
    <path d="M74.1501 57.1895V77.1195C74.1801 81.3695 71.5901 84.9995 66.3801 87.9995C61.1701 91.0095 54.89 92.5095 47.53 92.4895C40.17 92.4795 33.8701 90.9595 28.6301 87.9395C23.3901 84.9095 20.7602 81.2695 20.7402 77.0295V57.0295C20.7502 58.5395 21.0802 59.9695 21.7502 61.3195C22.7702 63.3895 24.5601 65.2895 27.1301 66.9995C27.6001 67.3295 28.1001 67.6395 28.6301 67.9395C33.3601 70.6595 38.9501 72.1695 45.4001 72.4395C46.1001 72.4795 46.81 72.4895 47.53 72.4895C51.84 72.4995 55.7801 71.9895 59.3501 70.9595C61.8801 70.2295 64.2201 69.2495 66.3801 67.9995C66.8601 67.7195 67.3203 67.4395 67.7603 67.1395C70.3303 65.4595 72.1201 63.5796 73.1401 61.5096C73.8101 60.1496 74.1501 58.7095 74.1501 57.1895Z" stroke="currentColor" stroke-linejoin="round"/>
</svg>