<svg width="48" height="48" viewBox="0 0 101 81" fill="none" xmlns="http://www.w3.org/2000/svg" stroke-width="1px"
     stroke-linecap="round" stroke-linejoin="round">
    <path d="M98.96 58.14H98.85L85.3199 58.11L73.83 58.09L54.59 58.0601L50.87 58.05L50.86 55.9V55.78L50.83 50.28L75.71 50.25L50.75 35.84L60.34 30.3L85.2999 44.72L85.35 30.35L98.8099 30.37L98.96 58.14Z" stroke="currentColor" stroke-linejoin="round"/>
    <path d="M50.83 70.28L50.87 78.05V70.28H50.83ZM50.75 55.84L50.86 55.9V55.78L50.75 55.84Z" stroke="currentColor" stroke-linejoin="round"/>
    <path d="M98.9611 58.14V78.14L50.8711 78.05V58.05L54.5911 58.0601L73.8311 58.09L85.321 58.11L98.8511 58.14H98.9611Z" stroke="currentColor" stroke-linejoin="round"/>
    <path d="M16.0908 30.22V50.22L2.63086 50.2V30.2L16.0908 30.22Z" stroke="currentColor" stroke-linejoin="round"/>
    <path d="M41.1006 30.27V50.27L16.1406 35.86V15.86L27.6106 22.48L41.1006 30.27Z" stroke="currentColor" stroke-linejoin="round"/>
    <path d="M16.1399 15.86V35.86L16.0898 50.22V30.22L16.1199 22.46L16.1399 15.86Z" stroke="currentColor" stroke-linejoin="round"/>
    <path d="M50.6904 24.73L50.6105 24.78L50.5804 24.79L41.1005 30.27L27.6105 22.48L16.1405 15.86L16.1205 22.46L16.0905 30.22L2.63049 30.2L2.59045 22.4399L2.48047 2.43994L50.5704 2.52002L50.6105 10.3L25.7205 10.3199L46.8505 22.51L50.5804 24.67L50.6105 24.6801L50.6904 24.73Z" stroke="currentColor" stroke-linejoin="round"/>
    <path d="M50.6896 24.73V44.73L41.0996 50.27V30.27L50.5796 24.79L50.6096 24.78L50.6896 24.73Z" stroke="currentColor" stroke-linejoin="round"/>
    <path d="M50.83 50.28L50.86 55.78L50.75 55.84V35.84L75.71 50.25L50.83 50.28Z" stroke="currentColor" stroke-linejoin="round"/>
    <path d="M50.6107 10.3V24.6801L50.5807 24.67L46.8507 22.51L25.7207 10.3199L50.6107 10.3Z" stroke="currentColor" stroke-linejoin="round"/>
    <path d="M2.63049 30.2V50.2L2.48047 22.4399V2.43994L2.59045 22.4399L2.63049 30.2Z" stroke="currentColor" stroke-linejoin="round"/>
</svg>