<svg width="48" height="48" viewBox="0 0 115 88" fill="none" xmlns="http://www.w3.org/2000/svg" stroke-width="1px"
     stroke-linecap="round" stroke-linejoin="round">
    <path d="M112.43 34.5799V54.4899C112.45 58.5099 111.13 62.4599 108.48 66.3499C105.82 70.2399 101.82 73.7199 96.4899 76.7999C91.1499 79.8799 85.1199 82.1899 78.3799 83.7199C71.6499 85.2599 64.7999 86.0199 57.8299 85.9999C50.8699 85.9999 44.0099 85.2099 37.2599 83.6499C30.5099 82.0899 24.4499 79.7599 19.0799 76.6599C13.7099 73.5599 9.67992 70.0599 6.97992 66.1699C4.27992 62.2699 2.9199 58.3099 2.8999 54.2899V34.2899C2.9199 37.6399 3.8599 40.9399 5.7399 44.1999C6.1099 44.8599 6.52992 45.5199 6.97992 46.1699C9.67992 50.0599 13.7099 53.5599 19.0799 56.6599C24.4499 59.7599 30.5099 62.0899 37.2599 63.6499C40.8199 64.4699 44.4099 65.0799 48.0399 65.4699C51.2799 65.8199 54.5399 65.9999 57.8299 65.9999C59.5899 66.0099 61.3399 65.9599 63.0899 65.8699C68.2499 65.5899 73.3499 64.8699 78.3799 63.7199C85.1199 62.1899 91.1499 59.8799 96.4899 56.7999C101.82 53.7199 105.82 50.2399 108.48 46.3499C108.88 45.7599 109.26 45.1699 109.59 44.5699C111.48 41.2899 112.43 37.9599 112.43 34.5799Z" stroke="currentColor" stroke-linejoin="round"/>
    <path d="M108.35 22.6099C105.65 18.7099 101.62 15.2099 96.2401 12.1099C90.8701 9.00991 84.8101 6.67991 78.0601 5.11991C71.3201 3.56991 64.4601 2.77991 57.4901 2.76991C50.5201 2.74991 43.6701 3.51991 36.9401 5.04991C30.2101 6.57991 24.1801 8.88991 18.8401 11.9699C13.5001 15.0499 9.50014 18.5399 6.85014 22.4199C4.19014 26.3099 2.88013 30.2599 2.90013 34.2899C2.92013 37.6399 3.86012 40.9399 5.74012 44.1999C6.11012 44.8599 6.53014 45.5199 6.98014 46.1699C9.68015 50.0599 13.7101 53.5599 19.0801 56.6599C24.4501 59.7599 30.5101 62.0899 37.2601 63.6499C40.8201 64.4699 44.4101 65.0799 48.0401 65.4699C51.2801 65.8199 54.5401 65.9999 57.8301 65.9999C59.5901 66.0099 61.3401 65.9599 63.0901 65.8699C68.2501 65.5899 73.3501 64.8699 78.3801 63.7199C85.1201 62.1899 91.1501 59.8799 96.4901 56.7999C101.82 53.7199 105.82 50.2399 108.48 46.3499C108.88 45.7599 109.26 45.1699 109.59 44.5699C111.48 41.2899 112.43 37.9599 112.43 34.5799V34.4899C112.41 30.4599 111.05 26.4999 108.35 22.6099ZM77.9101 25.0899L63.6401 45.0999L56.9001 54.5499H54.0001L49.9401 48.3599L45.4101 41.4599L22.7401 36.4999V34.8299L69.8501 23.6299L80.8101 21.0199L77.9101 25.0899Z" stroke="currentColor" stroke-linejoin="round"/>
    <path d="M80.8102 21.0199L77.9102 25.0899L63.6403 45.0999L49.9402 48.3599L45.4102 41.4599L22.7402 36.4999V34.8299L69.8503 23.6299L80.8102 21.0199Z" stroke="currentColor" stroke-linejoin="round"/>
</svg>