<svg width="48" height="48" viewBox="0 0 131 98" fill="none" xmlns="http://www.w3.org/2000/svg" stroke-width="1px"
     stroke-linecap="round" stroke-linejoin="round">
    <path d="M65.4707 2.87988L2.35059 39.3199L19.6707 49.3199L65.8706 75.9999L80.1106 67.7798L104.661 53.5999L111.681 49.5499L129.001 39.5499L65.4707 2.87988ZM104.621 45.4799L97.6006 49.5298L85.9907 56.2299L85.9607 51.1499L58.2908 35.1699L51.2307 31.0999L45.3806 27.7198H36.5808L65.5208 10.9999L114.921 39.5298L104.621 45.4799Z" stroke="currentColor" stroke-linejoin="round"/>
    <path d="M114.92 39.53L104.62 45.48L97.6003 49.53L65.5205 31V11L114.92 39.53Z" stroke="currentColor" stroke-linejoin="round"/>
    <path d="M65.521 11V31L58.291 35.17L51.231 31.1L45.3809 27.72L36.5811 27.71L65.521 11Z" stroke="currentColor" stroke-linejoin="round"/>
    <path d="M129.001 39.5498V59.5498L65.8711 95.9998V75.9998L80.1111 67.7798L104.661 53.5998L111.681 49.5498L129.001 39.5498Z" stroke="currentColor" stroke-linejoin="round"/>
    <path d="M65.8706 75.9998V95.9998L2.35059 59.3198V39.3198L19.6707 49.3198L65.8706 75.9998Z" stroke="currentColor" stroke-linejoin="round"/>
</svg>