<svg width="24" height="24" viewBox="0 0 121 91" fill="none" xmlns="http://www.w3.org/2000/svg" stroke-width="1px" stroke-linecap="round" stroke-linejoin="round">
    <path d="M47.418 73.9201L47.4779 73.9501V73.8901L47.418 73.9201Z" stroke="currentColor" stroke-linejoin="round"/>
    <path d="M82.6782 39.1504V44.7304L79.2682 46.7004V53.8204L73.0981 50.2604L72.9082 50.3704V44.7904L82.6782 39.1504Z" stroke="currentColor" stroke-linejoin="round"/>
    <path d="M72.9083 44.7903V50.3703L70.1882 51.9403L65.3883 54.7103L64.9482 54.4603V43.8003C65.2382 43.8003 65.5283 43.8303 65.8083 43.8503C66.8883 43.9103 67.9483 44.0003 68.9683 44.1303C70.2583 44.2903 71.5683 44.5003 72.9083 44.7903Z" stroke="currentColor" stroke-linejoin="round"/>
    <path d="M73.0383 39.1304L65.3282 43.5804L64.9482 43.8004V54.4604L51.7083 46.8104V45.3004L44.0283 40.8704V22.3804L48.4583 24.9404L63.3083 33.5104L73.0383 39.1304Z" stroke="currentColor" stroke-linejoin="round"/>
    <path d="M65.3282 43.5801L64.9482 43.8001C65.2382 43.8001 65.5283 43.8301 65.8083 43.8501L65.3282 43.5801Z" stroke="currentColor" stroke-linejoin="round"/>
    <path d="M118.019 39.2102L100.698 49.2102L89.9186 55.4402C89.3186 54.1702 88.4185 52.9402 87.2085 51.7402C85.9885 50.5502 84.5286 49.4602 82.8086 48.4702C82.7686 48.4402 82.7186 48.4202 82.6786 48.4002C82.1286 48.0802 81.5985 47.7902 81.0785 47.5102C80.5085 47.2202 79.9086 46.9502 79.2686 46.7002L82.6786 44.7302L87.8086 41.7702L92.3185 39.1602L63.3086 22.4102L58.8086 25.0202L58.5085 25.1902L63.3086 27.9602L82.6786 39.1502L72.9086 44.7902C71.5686 44.5002 70.2585 44.2902 68.9685 44.1302C67.9485 44.0002 66.8886 43.9102 65.8086 43.8502L65.3285 43.5802L73.0386 39.1302L63.3086 33.5102L48.4585 24.9402L44.0286 22.3802L28.0186 31.6302L32.4385 34.1802L44.0286 40.8702L51.7085 45.3002C51.1185 45.4602 50.5385 45.6302 49.9685 45.8102C49.1885 46.0602 48.4385 46.3402 47.6985 46.6402C46.4085 47.1602 45.2085 47.7502 44.0885 48.4002C42.9685 49.0402 41.9685 49.7102 41.0885 50.4102C40.2085 51.1002 39.4486 51.8502 38.8086 52.6502L32.5286 49.0202L19.6285 41.5802L2.30859 31.5802L53.5586 1.99023L118.019 39.2102Z" stroke="currentColor" stroke-linejoin="round"/>
    <path d="M79.6083 65.1104V85.1104L73.1982 88.8103V68.8103L79.2683 65.3103L79.5483 65.1404L79.6083 65.1104Z" stroke="currentColor" stroke-linejoin="round"/>
    <path d="M79.6089 65.1102L79.549 65.1402L79.2689 65.3102L73.1989 68.8102L63.5289 63.2302L53.9189 68.7702L49.2289 66.0602L47.4789 65.0502L49.3789 63.9502L51.7089 62.6002L57.0789 59.5002L51.7089 56.4002L47.4189 53.9202L51.7089 51.4402L53.8188 50.2202L63.4889 55.8102L64.9489 54.9702L65.3889 54.7102L70.1888 51.9402L72.9089 50.3702L73.0989 50.2602L79.2689 53.8202L79.549 53.9802L79.2689 54.1402L76.6389 55.6602L72.9089 57.8102L71.8389 58.4302L69.9388 59.5302L71.1389 60.2202L72.9089 61.2402L75.9789 63.0202L79.2689 64.9102L79.549 65.0802L79.6089 65.1102Z" stroke="currentColor" stroke-linejoin="round"/>
    <path d="M57.0789 59.5004L51.7089 62.6004L49.3789 63.9504L47.4789 65.0504V73.8904L47.4189 73.9204V53.9204L51.7089 56.4004L57.0789 59.5004Z" stroke="currentColor" stroke-linejoin="round"/>
    <path d="M53.9186 68.7703V88.7703L47.4785 85.0503V65.0503L49.2285 66.0603L53.9186 68.7703Z" stroke="currentColor" stroke-linejoin="round"/>
    <path d="M44.0286 22.3804V40.8704L32.4385 34.1804L28.0186 31.6304L44.0286 22.3804Z" stroke="currentColor" stroke-linejoin="round"/>
    <path d="M51.7085 45.3003V51.4403L47.4186 53.9203V66.7603C46.2286 67.2503 45.1285 67.8003 44.0885 68.4003C42.9685 69.0403 41.9685 69.7103 41.0885 70.4103C40.2085 71.1003 39.4486 71.8503 38.8086 72.6503V52.6503C39.4486 51.8503 40.2085 51.1003 41.0885 50.4103C41.9685 49.7103 42.9685 49.0403 44.0885 48.4003C45.2085 47.7503 46.4085 47.1603 47.6985 46.6403C48.4385 46.3403 49.1885 46.0603 49.9685 45.8103C50.5385 45.6303 51.1185 45.4603 51.7085 45.3003Z" stroke="currentColor" stroke-linejoin="round"/>
    <path d="M38.8086 52.6501V72.6501L2.30859 51.5801V31.5801L19.6285 41.5801L32.5286 49.0201L38.8086 52.6501Z" stroke="currentColor" stroke-linejoin="round"/>
    <path d="M73.1982 68.8105V88.8105L63.5283 83.2305V63.2305L73.1982 68.8105Z" stroke="currentColor" stroke-linejoin="round"/>
    <path d="M63.5289 63.2305V83.2305L53.9189 88.7705V68.7705L63.5289 63.2305Z" stroke="currentColor" stroke-linejoin="round"/>
    <path d="M64.9482 54.9705V54.4604" stroke="currentColor" stroke-linejoin="round"/>
    <path d="M79.5486 53.9805V65.0805L79.2686 64.9105L75.9785 63.0205L72.9086 61.2405L71.1385 60.2205L69.9385 59.5305L71.8385 58.4305L72.9086 57.8105L76.6385 55.6605L79.2686 54.1405L79.5486 53.9805Z" stroke="currentColor" stroke-linejoin="round"/>
    <path d="M89.9186 55.4402V75.4402C89.3186 74.1702 88.4185 72.9402 87.2085 71.7402C85.9885 70.5502 84.5286 69.4602 82.8086 68.4702C82.2186 68.1302 81.6385 67.8102 81.0785 67.5102C80.6085 67.2702 80.1185 67.0502 79.6085 66.8402V65.1102L79.5486 65.0802V53.9802L79.2686 53.8202V46.7002C79.9086 46.9502 80.5085 47.2202 81.0785 47.5102C81.5985 47.7902 82.1286 48.0802 82.6786 48.4002C82.7186 48.4202 82.7686 48.4402 82.8086 48.4702C84.5286 49.4602 85.9885 50.5502 87.2085 51.7402C88.4185 52.9402 89.3186 54.1702 89.9186 55.4402Z" stroke="currentColor" stroke-linejoin="round"/>
    <path d="M63.3088 22.4102V27.9602L58.5088 25.1902L58.8088 25.0202L63.3088 22.4102Z" stroke="currentColor" stroke-linejoin="round"/>
    <path d="M92.3185 39.1602L87.8086 41.7702L82.6786 44.7302V39.1502L63.3086 27.9602V22.4102L92.3185 39.1602Z" stroke="currentColor" stroke-linejoin="round"/>
    <path d="M118.019 39.2104V59.2104L89.9189 75.4405V55.4405L100.699 49.2104L118.019 39.2104Z" stroke="currentColor" stroke-linejoin="round"/>
</svg>