<svg width="48" height="48" viewBox="0 0 131 106" fill="none" xmlns="http://www.w3.org/2000/svg" stroke-width="1px"
     stroke-linecap="round" stroke-linejoin="round">
    <path d="M54.2185 45.1697L49.2983 42.3297L46.8684 40.9297L54.1885 36.6997V39.5097L54.2185 45.1697Z" stroke="currentColor" stroke-linejoin="round"/>
    <path d="M76.8184 83.8596V103.86L2.31836 60.8496V40.8496L19.6284 50.8496L24.5784 53.6996L64.3384 76.6496L71.7783 80.9596L76.8184 83.8596Z" stroke="currentColor" stroke-linejoin="round"/>
    <path d="M84.0784 62.4001L84.0283 62.3701V62.4901L84.0784 62.4601L84.1284 62.4301L84.0784 62.4001Z" stroke="currentColor" stroke-linejoin="round"/>
    <path d="M69.0784 53.7402V53.9202L69.2283 53.8302L69.0784 53.7402Z" stroke="currentColor" stroke-linejoin="round"/>
    <path d="M39.4783 45.2002V53.7602L34.4883 50.8802L32.0684 49.4802L39.3684 45.2602L39.4783 45.2002Z" stroke="currentColor" stroke-linejoin="round"/>
    <path d="M46.9285 49.5002L44.3984 50.9502L39.5183 53.7802L39.4783 53.7602V45.2002L46.9285 49.5002Z" stroke="currentColor" stroke-linejoin="round"/>
    <path d="M69.2683 65.3103V70.9503L69.2583 65.3003L69.2683 65.3103Z" stroke="currentColor" stroke-linejoin="round"/>
    <path d="M69.2683 70.9501L64.2783 68.0801L61.8284 66.6601V58.1001L66.7085 55.2801L69.0784 53.9201L69.2283 53.8301L69.2583 65.3001L69.2683 70.9501Z" stroke="currentColor" stroke-linejoin="round"/>
    <path d="M61.8284 58.1003V66.6603L56.8384 63.7803L54.3684 62.3603V53.8003L61.8284 58.1003Z" stroke="currentColor" stroke-linejoin="round"/>
    <path d="M91.3384 23.8601L83.9385 28.1301L83.8784 28.1001V19.5601L91.3384 23.8601Z" stroke="currentColor" stroke-linejoin="round"/>
    <path d="M83.8784 19.5601V28.1001L76.4883 23.8301L83.8784 19.5601Z" stroke="currentColor" stroke-linejoin="round"/>
    <path d="M76.5283 32.4099L74.0183 33.8599L69.1184 36.6799L69.0283 36.6199L68.9983 30.9599V28.1599L69.0884 28.1099L76.5283 32.4099Z" stroke="currentColor" stroke-linejoin="round"/>
    <path d="M69.0283 36.6202L64.0984 33.7802L61.6885 32.3802L68.9983 28.1602V30.9602L69.0283 36.6202Z" stroke="currentColor" stroke-linejoin="round"/>
    <path d="M61.7283 40.9599L59.2185 42.4099L54.3284 45.2299L54.2185 45.1699L54.1885 39.5099V36.6999L54.2783 36.6499L61.7283 40.9599Z" stroke="currentColor" stroke-linejoin="round"/>
    <path d="M128.628 53.9399V73.9399L76.8184 103.86V83.8599L81.7085 81.0299L89.0984 76.7599L96.5183 72.4899L103.918 68.2099L111.318 63.9399L128.628 53.9399Z" stroke="currentColor" stroke-linejoin="round"/>
    <path d="M106.188 40.9799L91.3884 32.4299L106.188 23.8899L68.9485 2.37988L2.31836 40.8499L19.6384 50.8499L24.5784 53.6999L64.3384 76.6499L71.7883 80.9599L76.8184 83.8599L81.7085 81.0299L89.1084 76.7599L96.5183 72.4899L103.918 68.2099L111.318 63.9399L128.638 53.9399L106.188 40.9799ZM83.8784 19.5599L91.3284 23.8599L83.9285 28.1299L83.8784 28.0999L76.4783 23.8299L83.8784 19.5599ZM61.6885 32.3799L68.9983 28.1599L69.0884 28.1099L76.5383 32.4099L74.0183 33.8599L69.1284 36.6799L69.0283 36.6199L64.1084 33.7799L61.6885 32.3799ZM61.7283 40.9599L59.2185 42.4099L54.3284 45.2299L54.2185 45.1699L49.2983 42.3299L46.8784 40.9299L54.1885 36.6999L54.2783 36.6499L61.7283 40.9599ZM68.9983 10.9599L76.4385 15.2599L69.0383 19.5299L68.9983 19.5099L61.5884 15.2299L68.9983 10.9599ZM54.1885 19.5099L61.6384 23.8099L54.2383 28.0799L54.1885 28.0499L46.7883 23.7799L54.1885 19.5099ZM39.3684 28.0499L46.8184 32.3499L39.4185 36.6299L39.3684 36.5999L31.9685 32.3299L39.3684 28.0499ZM24.6184 45.1799L24.5684 45.1499L17.1685 40.8699L24.5684 36.5999L32.0183 40.8999L24.6184 45.1799ZM44.3984 50.9499L39.5083 53.7799L39.4685 53.7599L34.4783 50.8799L32.0583 49.4799L39.3684 45.2599L39.4685 45.1999L46.9185 49.4999L44.3984 50.9499ZM103.858 59.6299L98.9185 62.4799L96.4485 63.9099L91.4685 66.7899L84.0183 71.0899L76.7583 75.2799L76.7085 75.2499L76.6685 75.2299L69.2583 70.9499L64.2783 68.0799L61.8184 66.6599L56.8284 63.7799L54.3684 62.3599L49.3784 59.4799L46.9585 58.0799L54.2583 53.8699L54.3684 53.7999L61.8184 58.0999L66.6985 55.2799L69.0684 53.9199V53.7399L64.1885 50.9299L61.7683 49.5299L69.0684 45.3199L69.1685 45.2599L76.6184 49.5599L81.5083 46.7299L83.8784 45.3599L84.0183 45.2799L83.8784 45.1999L78.9883 42.3799L76.5684 40.9799L83.8784 36.7699L83.9783 36.7099L101.298 46.7099L113.768 53.9099L103.858 59.6299Z" stroke="currentColor" stroke-linejoin="round"/>
    <path d="M24.5784 36.6001V45.1501L17.1785 40.8701L24.5784 36.6001Z" stroke="currentColor" stroke-linejoin="round"/>
    <path d="M32.0283 40.9001L24.6184 45.1801L24.5784 45.1501V36.6001L32.0283 40.9001Z" stroke="currentColor" stroke-linejoin="round"/>
    <path d="M39.3684 28.0498V36.5998L31.9783 32.3298L39.3684 28.0498Z" stroke="currentColor" stroke-linejoin="round"/>
    <path d="M46.8284 32.3498L39.4285 36.6298L39.3684 36.5998V28.0498L46.8284 32.3498Z" stroke="currentColor" stroke-linejoin="round"/>
    <path d="M54.1885 19.5098V28.0498L46.7783 23.7798L54.1885 19.5098Z" stroke="currentColor" stroke-linejoin="round"/>
    <path d="M61.6284 23.8098L54.2383 28.0798L54.1885 28.0498V19.5098L61.6284 23.8098Z" stroke="currentColor" stroke-linejoin="round"/>
    <path d="M68.9983 10.96V19.51L61.5884 15.23L68.9983 10.96Z" stroke="currentColor" stroke-linejoin="round"/>
    <path d="M76.4385 15.26L69.0283 19.53L68.9983 19.51V10.96L76.4385 15.26Z" stroke="currentColor" stroke-linejoin="round"/>
    <path d="M98.9285 53.8799V62.4799L96.4585 63.9099L91.4783 66.7899V58.1299L91.5283 58.1599L96.4185 55.3299L98.9285 53.8799Z" stroke="currentColor" stroke-linejoin="round"/>
    <path d="M91.4783 58.1299V66.7899L84.0283 71.0899V62.4899L84.0784 62.4599L84.1184 62.4299L84.0784 62.3999V53.8599L91.4783 58.1299Z" stroke="currentColor" stroke-linejoin="round"/>
    <path d="M98.9285 53.8801L96.4185 55.3301L91.5283 58.1601L91.4783 58.1301L84.0784 53.8601L91.4783 49.5801L93.8884 50.9801L98.9285 53.8801Z" stroke="currentColor" stroke-linejoin="round"/>
    <path d="M69.0784 45.3198V53.7398L64.1985 50.9298L61.7783 49.5298L69.0784 45.3198Z" stroke="currentColor" stroke-linejoin="round"/>
    <path d="M54.3684 53.7998V62.3598L49.3784 59.4798L46.9685 58.0798L54.2683 53.8698L54.3684 53.7998Z" stroke="currentColor" stroke-linejoin="round"/>
    <path d="M76.7185 66.7097V75.2497L76.6785 75.2297L69.2683 70.9497V62.4097L76.6785 66.6897L76.7185 66.7097Z" stroke="currentColor" stroke-linejoin="round"/>
    <path d="M84.0283 62.3699V62.4899L81.5984 63.8799L76.7185 66.7099L76.6785 66.6899L69.2683 62.4099L76.6184 58.1599L76.6785 58.1299L79.0984 59.5299L84.0283 62.3699Z" stroke="currentColor" stroke-linejoin="round"/>
    <path d="M84.0283 45.2798V62.3698L79.0984 59.5298L76.6785 58.1298L76.6184 58.1598V49.5598L81.5183 46.7298L83.8784 45.3598L84.0283 45.2798Z" stroke="currentColor" stroke-linejoin="round"/>
    <path d="M76.6184 49.5598V58.1598L69.2683 62.4098V65.3098L69.2583 65.2998L69.2283 53.8298L69.0784 53.7398V45.3198L69.1785 45.2598L76.6184 49.5598Z" stroke="currentColor" stroke-linejoin="round"/>
    <path d="M113.778 53.91L103.858 59.63L98.9285 62.48V53.88L93.8884 50.98L91.4783 49.58L84.0784 53.86V56.76L84.0283 56.73V45.28L83.8784 45.2V36.77L83.9883 36.71L101.308 46.71L113.778 53.91Z" stroke="currentColor" stroke-linejoin="round"/>
    <path d="M83.8784 36.77V45.2L78.9983 42.38L76.5784 40.98L83.8784 36.77Z" stroke="currentColor" stroke-linejoin="round"/>
    <path d="M106.188 23.8896V40.9796L91.3784 32.4296L106.188 23.8896Z" stroke="currentColor" stroke-linejoin="round"/>
    <path d="M84.0784 62.3999V62.4599V70.8899" stroke="currentColor" stroke-linejoin="round"/>
    <path d="M84.0283 62.4897V71.0897L76.7683 75.2797L76.7185 75.2497V66.7097L81.5984 63.8797L84.0283 62.4897Z" stroke="currentColor" stroke-linejoin="round"/>
</svg>