<svg width="48" height="48" viewBox="0 0 104 82" fill="none" xmlns="http://www.w3.org/2000/svg" stroke-width="1px" stroke-linecap="round" stroke-linejoin="round"><path d="M25.9597 38.6099V38.6299C25.9597 40.5099 24.8197 42.1199 22.5397 43.4299C20.2497 44.7599 17.4597 45.4099 14.1897 45.4099C10.9197 45.3999 8.12968 44.7299 5.81968 43.3999C3.50968 42.0699 2.35967 40.4599 2.34967 38.5699C2.33967 36.6799 3.47966 35.0699 5.76966 33.7499C8.05966 32.4299 10.8397 31.7699 14.1197 31.7799C17.3897 31.7799 20.1797 32.4499 22.4797 33.7799C24.7897 35.1099 25.9497 36.7199 25.9597 38.6099Z" stroke="#229EFF" stroke-miterlimit="10"/><path d="M51.1096 53.1399V53.1599C51.1096 55.0399 49.9696 56.6399 47.6896 57.9599C45.3996 59.2799 42.6196 59.9399 39.3396 59.9299C36.0696 59.9299 33.2796 59.2599 30.9696 57.9299C28.6696 56.5899 27.5096 54.9799 27.4996 53.0899C27.4996 51.3799 28.4296 49.8999 30.3096 48.6599C30.4996 48.5199 30.7096 48.3899 30.9196 48.2699C33.2096 46.9499 35.9996 46.2899 39.2696 46.2999C42.5396 46.2999 45.3296 46.9699 47.6396 48.2999C47.8196 48.3999 47.9896 48.5099 48.1496 48.6099C50.1096 49.8899 51.0996 51.3999 51.1096 53.1399Z" stroke="#229EFF" stroke-miterlimit="10"/><path d="M50.9597 24.1798V24.1998C50.9597 26.0798 49.8197 27.6898 47.5297 28.9998C45.2397 30.3198 42.4597 30.9798 39.1897 30.9798C35.9097 30.9698 33.1197 30.2998 30.8197 28.9698C28.5097 27.6398 27.3497 26.0298 27.3397 24.1398C27.3297 22.2498 28.4697 20.6398 30.7597 19.3198C33.0597 17.9998 35.8397 17.3398 39.1097 17.3398C42.3897 17.3498 45.1797 18.0198 47.4797 19.3498C49.7897 20.6798 50.9497 22.2898 50.9597 24.1798Z" stroke="#229EFF" stroke-miterlimit="10"/><path d="M76.1096 38.7V38.72C76.1096 40.6 74.9696 42.21 72.6896 43.52C70.3996 44.85 67.6096 45.51 64.3396 45.5C61.0696 45.49 58.2796 44.82 55.9696 43.49C53.6696 42.16 52.5096 40.55 52.4996 38.66C52.4996 36.95 53.4196 35.47 55.2996 34.23C55.4996 34.09 55.6996 33.96 55.9196 33.84C58.2096 32.52 60.9896 31.86 64.2696 31.87C67.5396 31.87 70.3296 32.54 72.6396 33.87C72.8196 33.97 72.9896 34.07 73.1496 34.18C75.1096 35.45 76.0996 36.96 76.1096 38.7Z" stroke="#229EFF" stroke-miterlimit="10"/><path d="M101.11 24.2699V24.2899C101.11 26.1699 99.9697 27.7799 97.6797 29.0899C95.3897 30.4099 92.6097 31.0699 89.3397 31.0699C86.0597 31.0699 83.2697 30.3899 80.9697 29.0599C78.6597 27.7299 77.4997 26.1199 77.4897 24.2299C77.4797 22.3399 78.6197 20.7299 80.9197 19.4099C83.2097 18.0899 85.9897 17.4299 89.2597 17.4299C92.5397 17.4299 95.3297 18.1099 97.6297 19.4399C99.9397 20.7699 101.1 22.3799 101.11 24.2699Z" stroke="#229EFF" stroke-miterlimit="10"/><path d="M75.9497 9.74991V9.76991C75.9497 11.6499 74.8097 13.2599 72.5297 14.5699C70.2397 15.8899 67.4597 16.5499 64.1797 16.5399C60.9097 16.5399 58.1197 15.8699 55.8097 14.5399C53.5097 13.2099 52.3497 11.5999 52.3397 9.70991C52.3297 7.81991 53.4697 6.20991 55.7597 4.88991C58.0497 3.55991 60.8397 2.90991 64.1097 2.90991C67.3797 2.91991 70.1697 3.58991 72.4797 4.91991C74.7797 6.24991 75.9397 7.85991 75.9497 9.74991Z" stroke="#229EFF" stroke-miterlimit="10"/><path d="M101.11 24.29V44.27C101.11 46.16 99.9796 47.77 97.6796 49.09C95.3896 50.41 92.6096 51.07 89.3396 51.07C86.0596 51.07 83.2696 50.39 80.9696 49.06C78.6596 47.73 77.4996 46.12 77.4896 44.23V24.23C77.4896 26.12 78.6596 27.73 80.9696 29.06C83.2696 30.39 86.0596 31.06 89.3396 31.07C92.6096 31.07 95.3896 30.41 97.6796 29.09C99.9696 27.78 101.11 26.17 101.11 24.29Z" stroke="#229EFF" stroke-miterlimit="10"/><path d="M75.9496 9.76996V29.75C75.9596 31.46 75.0296 32.94 73.1496 34.18C72.9896 34.07 72.8196 33.97 72.6396 33.87C70.3296 32.54 67.5396 31.87 64.2696 31.87C60.9896 31.86 58.2096 32.52 55.9196 33.84C55.6996 33.96 55.4996 34.09 55.2996 34.23C53.3396 32.96 52.3496 31.45 52.3396 29.71V9.70996C52.3496 11.6 53.5096 13.21 55.8096 14.54C58.1196 15.87 60.9096 16.54 64.1796 16.54C67.4596 16.55 70.2396 15.89 72.5296 14.57C74.8096 13.26 75.9496 11.65 75.9496 9.76996Z" stroke="#229EFF" stroke-miterlimit="10"/><path d="M25.9596 38.6298V58.6098C25.9696 60.4998 24.8296 62.1098 22.5396 63.4298C20.2496 64.7598 17.4596 65.4098 14.1896 65.4098C10.9196 65.3998 8.12961 64.7298 5.81961 63.3998C3.50961 62.0698 2.35961 60.4598 2.34961 58.5698V38.5698C2.35961 40.4598 3.50961 42.0698 5.81961 43.3998C8.12961 44.7298 10.9196 45.3998 14.1896 45.4098C17.4596 45.4098 20.2496 44.7598 22.5396 43.4298C24.8196 42.1198 25.9596 40.5098 25.9596 38.6298Z" stroke="#229EFF" stroke-miterlimit="10"/><path d="M50.9596 24.1999V44.1799C50.9696 45.8899 50.0396 47.3699 48.1496 48.6099C47.9896 48.5099 47.8196 48.3999 47.6396 48.2999C45.3296 46.9699 42.5396 46.2999 39.2696 46.2999C35.9996 46.2899 33.2096 46.9499 30.9196 48.2699C30.7096 48.3899 30.4996 48.5199 30.3096 48.6599C28.3396 47.3899 27.3496 45.8799 27.3396 44.1399V24.1399C27.3496 26.0299 28.5096 27.6399 30.8196 28.9699C33.1196 30.2999 35.9096 30.9699 39.1896 30.9799C42.4596 30.9799 45.2396 30.3199 47.5296 28.9999C49.8196 27.6899 50.9596 26.0799 50.9596 24.1999Z" stroke="#229EFF" stroke-miterlimit="10"/><path d="M76.1096 38.7199V58.6999C76.1096 60.5899 74.9796 62.1999 72.6896 63.5199C70.3996 64.8499 67.6096 65.5099 64.3396 65.4999C61.0696 65.4899 58.2796 64.8199 55.9696 63.4899C53.6696 62.1599 52.5096 60.5499 52.4996 58.6599V38.6599C52.5096 40.5499 53.6696 42.1599 55.9696 43.4899C58.2796 44.8199 61.0696 45.4899 64.3396 45.4999C67.6096 45.4999 70.3996 44.8499 72.6896 43.5199C74.9696 42.2099 76.1096 40.5999 76.1096 38.7199Z" stroke="#229EFF" stroke-miterlimit="10"/><path d="M51.1096 53.1599V73.1398C51.1096 75.0298 49.9796 76.6298 47.6896 77.9598C45.3996 79.2798 42.6196 79.9398 39.3396 79.9298C36.0696 79.9298 33.2796 79.2598 30.9696 77.9298C28.6696 76.5898 27.5096 74.9798 27.4996 73.0898V53.0898C27.5096 54.9798 28.6696 56.5898 30.9696 57.9298C33.2796 59.2598 36.0696 59.9298 39.3396 59.9298C42.6196 59.9298 45.3996 59.2798 47.6896 57.9598C49.9696 56.6398 51.1096 55.0399 51.1096 53.1599Z" stroke="#229EFF" stroke-miterlimit="10"/></svg>