<svg viewBox="0 0 105 82" fill="none" xmlns="http://www.w3.org/2000/svg" height="24" width="24" stroke-width="1px" stroke-linecap="round" stroke-linejoin="round">
    <path d="M88.501 41.065C88.541 41.115 88.591 41.175 88.641 41.235V40.895C88.591 40.955 88.551 41.005 88.501 41.065Z" stroke="currentColor" stroke-linejoin="round"/>
    <path d="M88.501 41.065C88.541 41.115 88.591 41.175 88.641 41.235V40.895C88.591 40.955 88.551 41.005 88.501 41.065Z" stroke="currentColor" stroke-linejoin="round"/>
    <path d="M98.5409 20.255C96.0909 16.715 92.4309 13.545 87.5609 10.735C82.6909 7.91499 77.1909 5.80499 71.0709 4.39499C64.9509 2.98499 58.7309 2.26499 52.4109 2.25499C46.0909 2.24499 39.8808 2.93498 33.7708 4.32498C27.6708 5.71498 22.1909 7.80498 17.3509 10.605C12.5109 13.395 8.89087 16.555 6.48087 20.085C4.07087 23.615 2.87087 27.195 2.89087 30.845C2.91087 34.205 3.96086 37.505 6.03085 40.775C6.21085 41.055 6.39085 41.345 6.59085 41.625C8.20085 43.935 10.3209 46.095 12.9709 48.105C14.0409 48.915 15.2009 49.715 16.4509 50.475C16.6309 50.585 16.8109 50.695 17.0009 50.815C17.1909 50.925 17.3809 51.035 17.5709 51.145C17.6009 51.165 17.6309 51.175 17.6609 51.195C22.5109 53.985 27.9809 56.075 34.0609 57.475C40.1809 58.895 46.4009 59.605 52.7209 59.615C59.0409 59.615 65.2509 58.935 71.3609 57.545C77.4709 56.155 82.9409 54.065 87.7809 51.265C89.3709 50.355 90.8309 49.395 92.1609 48.395C94.8709 46.355 97.0409 44.155 98.6609 41.785C98.8109 41.565 98.9609 41.335 99.1009 41.105C101.201 37.835 102.241 34.505 102.241 31.115V31.025C102.221 27.375 100.991 23.785 98.5409 20.255ZM92.4109 31.295C92.4109 31.465 92.4009 31.635 92.3909 31.815C92.3809 32.135 92.3509 32.455 92.3109 32.775C92.3109 32.845 92.3109 32.915 92.2909 32.985C92.2509 33.245 92.2109 33.515 92.1609 33.775C92.1309 33.925 92.1009 34.065 92.0709 34.215C91.8809 35.065 91.6109 35.895 91.2609 36.705C91.1909 36.885 91.1109 37.055 91.0309 37.225C90.7109 37.905 90.3409 38.555 89.9109 39.205C89.7809 39.405 89.6408 39.605 89.4908 39.805C89.2308 40.175 88.9409 40.535 88.6409 40.895V41.235C88.5909 41.175 88.5409 41.115 88.5009 41.065C88.4809 41.085 88.4708 41.095 88.4608 41.115C88.2608 41.335 88.0509 41.565 87.8509 41.775C86.2809 43.445 84.3108 45.005 81.9308 46.485C81.7408 46.615 81.5409 46.735 81.3509 46.845C81.1509 46.965 80.9508 47.085 80.7408 47.205C79.9908 47.635 79.2309 48.045 78.4509 48.435C78.4109 48.455 78.3709 48.485 78.3209 48.495C78.0209 48.655 77.7108 48.795 77.4008 48.945C76.6608 49.295 75.9109 49.625 75.1409 49.935C74.9009 50.035 74.6409 50.145 74.3909 50.235C74.3709 50.235 74.3409 50.255 74.3209 50.265C73.8809 50.435 73.4408 50.605 72.9908 50.755C72.6608 50.875 72.3308 50.985 71.9908 51.095C71.6908 51.195 71.3909 51.295 71.0909 51.385C69.5509 51.865 67.9709 52.275 66.3309 52.615C66.0609 52.675 65.7809 52.725 65.5009 52.775C64.6809 52.945 63.8309 53.095 62.9709 53.215C62.6909 53.265 62.4009 53.305 62.1109 53.335C61.7109 53.395 61.3009 53.445 60.8909 53.495C60.7709 53.515 60.6409 53.525 60.5109 53.535C60.4409 53.545 60.3708 53.555 60.3008 53.555C59.7908 53.615 59.2809 53.665 58.7609 53.705C58.1309 53.765 57.5009 53.805 56.8609 53.835C56.8009 53.845 56.7408 53.845 56.6808 53.845C56.0708 53.875 55.4609 53.905 54.8409 53.915C54.1309 53.935 53.4109 53.945 52.6909 53.945H52.6109C51.9609 53.945 51.3109 53.935 50.6709 53.915C50.0609 53.895 49.4609 53.875 48.8609 53.845C48.0509 53.795 47.2409 53.745 46.4509 53.665C45.9509 53.635 45.4708 53.575 44.9908 53.525C43.6608 53.375 42.3609 53.195 41.0909 52.965C40.4809 52.865 39.8809 52.745 39.2809 52.615C38.6809 52.495 38.0909 52.355 37.5009 52.215C36.9809 52.085 36.4708 51.955 35.9608 51.815C35.5708 51.705 35.1808 51.595 34.8008 51.475C34.4508 51.375 34.1109 51.275 33.7809 51.165C32.9209 50.895 32.0708 50.595 31.2408 50.265C30.8608 50.125 30.4809 49.975 30.1109 49.815C30.0809 49.815 30.0508 49.795 30.0208 49.775C29.7608 49.675 29.5008 49.565 29.2408 49.455C28.9008 49.315 28.5609 49.155 28.2309 48.995C27.9209 48.855 27.6108 48.705 27.3008 48.555C26.3708 48.105 25.4609 47.615 24.5709 47.105C24.1409 46.855 23.7209 46.605 23.3209 46.345H23.3109C22.9009 46.095 22.5109 45.835 22.1309 45.575C22.0209 45.505 21.9109 45.435 21.8109 45.355C21.5409 45.175 21.2808 44.985 21.0208 44.795C20.6608 44.535 20.3109 44.265 19.9709 43.995C19.4009 43.535 18.8509 43.065 18.3509 42.585C18.2309 42.475 18.1209 42.365 18.0109 42.255C17.9809 42.235 17.9609 42.215 17.9409 42.185C17.7509 41.995 17.5609 41.815 17.3809 41.625C17.1209 41.355 16.8809 41.085 16.6409 40.805C16.5809 40.735 16.5109 40.655 16.4509 40.575C16.4109 40.535 16.3809 40.495 16.3409 40.445C16.1509 40.215 15.9709 39.975 15.7909 39.735C15.6809 39.595 15.5808 39.455 15.4908 39.315C15.3908 39.175 15.3009 39.035 15.2009 38.885C15.0109 38.605 14.8309 38.315 14.6709 38.025C14.5209 37.765 14.3809 37.495 14.2509 37.235C14.0009 36.755 13.7909 36.265 13.6109 35.765C13.5609 35.625 13.5108 35.475 13.4608 35.335C13.3608 35.025 13.2609 34.725 13.1909 34.415C13.1709 34.375 13.1609 34.345 13.1609 34.305C13.0909 34.035 13.0209 33.755 12.9809 33.475C12.9409 33.265 12.9009 33.045 12.8709 32.835C12.8309 32.625 12.8109 32.405 12.7909 32.185C12.7709 32.035 12.7609 31.875 12.7509 31.725C12.7309 31.435 12.7209 31.155 12.7209 30.865C12.6909 24.585 16.5809 19.185 24.3909 14.675C32.2109 10.155 41.5609 7.91498 52.4409 7.93498C63.3309 7.95498 72.7009 10.235 80.5609 14.775C88.4309 19.315 92.3809 24.725 92.4109 31.005V31.295Z" stroke="currentColor" stroke-linejoin="round"/>
    <path d="M16.4512 30.9351V31.1451C16.5312 31.0851 16.6212 31.0351 16.7012 30.9851L16.4512 30.9351Z" stroke="currentColor" stroke-linejoin="round"/>
    <path d="M88.6413 30.5552V40.8952C88.5913 40.9552 88.5513 41.0052 88.5013 41.0652C88.4813 41.0852 88.4713 41.0952 88.4613 41.1152C88.2613 41.3352 88.0513 41.5652 87.8513 41.7752C86.2813 43.4452 84.3113 45.0052 81.9313 46.4852C81.7413 46.6152 81.5413 46.7352 81.3513 46.8452C81.1513 46.9652 80.9513 47.0852 80.7413 47.2052C79.9913 47.6352 79.2313 48.0452 78.4513 48.4352C78.4113 48.4552 78.3713 48.4852 78.3213 48.4952C78.0213 48.6552 77.7113 48.7952 77.4013 48.9452C76.6613 49.2952 75.9113 49.6252 75.1413 49.9352C74.9013 50.0352 74.6413 50.1452 74.3913 50.2352C74.3713 50.2352 74.3413 50.2552 74.3213 50.2652C73.8813 50.4352 73.4413 50.6052 72.9913 50.7552C72.6613 50.8752 72.3313 50.9852 71.9913 51.0952C71.6913 51.1952 71.3913 51.2952 71.0913 51.3852C69.5513 51.8652 67.9713 52.2752 66.3313 52.6152C66.0613 52.6752 65.7813 52.7252 65.5013 52.7752C64.6813 52.9452 63.8313 53.0952 62.9713 53.2152C62.6913 53.2652 62.4013 53.3052 62.1113 53.3352C61.7113 53.3952 61.3013 53.4452 60.8913 53.4952C60.7713 53.5152 60.6413 53.5252 60.5113 53.5352C60.4413 53.5452 60.3713 53.5552 60.3013 53.5552C59.7913 53.6152 59.2813 53.6652 58.7613 53.7052C58.1313 53.7552 57.5013 53.8052 56.8613 53.8352C56.8013 53.8452 56.7413 53.8452 56.6813 53.8452C56.0713 53.8752 55.4613 53.9052 54.8413 53.9152C54.1313 53.9352 53.4113 53.9452 52.6913 53.9452H52.6113V38.8452L77.4313 33.1352H77.4413L87.6413 30.7852L87.7213 30.7652L88.6413 30.5552Z" stroke="currentColor" stroke-linejoin="round"/>
    <path d="M52.6112 38.8449V53.9449C51.9612 53.9449 51.3112 53.9349 50.6712 53.9149C50.0612 53.8949 49.4612 53.8749 48.8612 53.8449C48.0512 53.7949 47.2412 53.7449 46.4512 53.6649C45.9612 53.6249 45.4711 53.5749 44.9911 53.5249C43.6611 53.3749 42.3612 53.1949 41.0912 52.9649C40.4812 52.8549 39.8712 52.7449 39.2812 52.6149C38.6812 52.4949 38.0912 52.3549 37.5012 52.2149C36.9812 52.0849 36.4712 51.9549 35.9612 51.8149C35.5712 51.7049 35.1811 51.5949 34.8011 51.4749C34.4511 51.3749 34.1112 51.2749 33.7812 51.1649C32.9212 50.8949 32.0711 50.5949 31.2411 50.2649C30.8611 50.1249 30.4812 49.9749 30.1112 49.8149C30.0812 49.8149 30.0511 49.7949 30.0211 49.7749C29.7611 49.6749 29.5011 49.5649 29.2411 49.4549C28.9011 49.3149 28.5612 49.1549 28.2312 48.9949C27.9212 48.8549 27.6111 48.7049 27.3011 48.5549C26.3711 48.1049 25.4612 47.6149 24.5712 47.1049C24.1412 46.8549 23.7212 46.6049 23.3212 46.3449H23.3112C22.9012 46.0849 22.5112 45.8349 22.1312 45.5749C22.0212 45.5049 21.9112 45.4349 21.8112 45.3549C21.5412 45.1749 21.2811 44.9849 21.0211 44.7949C20.6611 44.5349 20.3112 44.2649 19.9712 43.9949C19.4012 43.5349 18.8512 43.0649 18.3512 42.5849C18.2312 42.4749 18.1212 42.3649 18.0112 42.2549C17.9812 42.2349 17.9612 42.2149 17.9412 42.1849C17.7512 41.9949 17.5612 41.8149 17.3812 41.6249C17.1212 41.3549 16.8812 41.0849 16.6412 40.8049C16.5812 40.7349 16.5112 40.6549 16.4512 40.5749V31.1449C16.5312 31.0849 16.6212 31.0349 16.7012 30.9849L17.4312 31.1449L27.0612 33.2549L52.6112 38.8449Z" stroke="currentColor" stroke-linejoin="round"/>
    <path d="M92.4109 31.0052V31.2952C92.4109 31.4652 92.4009 31.6352 92.3909 31.8152C92.3809 32.1352 92.3509 32.4552 92.3109 32.7752C92.3109 32.8452 92.3109 32.9152 92.2909 32.9852C92.2509 33.2452 92.2109 33.5152 92.1609 33.7752C92.1309 33.9252 92.1009 34.0652 92.0709 34.2152C91.8809 35.0652 91.6109 35.8952 91.2609 36.7052C91.1909 36.8852 91.1109 37.0552 91.0309 37.2252C90.7109 37.9052 90.3409 38.5552 89.9109 39.2052C89.7809 39.4052 89.6409 39.6052 89.4909 39.8052C89.2309 40.1752 88.9409 40.5352 88.6409 40.8952V30.5552L87.2809 30.2752L86.4009 30.0952H86.3809L52.5209 23.0352L17.3909 30.7252L17.0209 30.8052H17.0009L16.4509 30.9352V40.5752C16.4509 40.5752 16.3809 40.4952 16.3409 40.4452C16.1509 40.2152 15.9709 39.9752 15.7909 39.7352C15.6809 39.5952 15.5809 39.4552 15.4909 39.3152C15.3909 39.1752 15.3009 39.0352 15.2009 38.8852C15.0109 38.6052 14.8309 38.3152 14.6709 38.0252C14.5209 37.7652 14.3809 37.4952 14.2509 37.2352C14.0009 36.7552 13.7909 36.2652 13.6109 35.7652C13.5609 35.6252 13.5109 35.4752 13.4609 35.3352C13.3609 35.0352 13.2709 34.7252 13.1909 34.4152C13.1709 34.3752 13.1609 34.3452 13.1609 34.3052C13.0909 34.0252 13.0309 33.7552 12.9809 33.4752C12.9409 33.2652 12.9009 33.0452 12.8709 32.8352C12.8409 32.6152 12.8109 32.4052 12.7909 32.1852C12.7709 32.0352 12.7609 31.8752 12.7509 31.7252C12.7309 31.4352 12.7209 31.1552 12.7209 30.8652C12.6909 24.5852 16.5809 19.1852 24.3909 14.6752C32.2109 10.1552 41.5609 7.91519 52.4409 7.93519C63.3309 7.95519 72.7009 10.2352 80.5609 14.7752C88.4309 19.3152 92.3809 24.7252 92.4109 31.0052Z" stroke="currentColor" stroke-linejoin="round"/>
    <path d="M16.4512 30.9349L16.7012 30.9849C16.8012 30.9249 16.9012 30.8649 17.0012 30.8149L16.4512 30.9349Z" stroke="currentColor" stroke-linejoin="round"/>
    <path d="M87.2812 30.2751L86.4012 30.0952H86.3812L52.5211 23.0352L17.3912 30.7252L17.0211 30.8052H17.0012C16.9012 30.8652 16.8012 30.9252 16.7012 30.9852L17.4312 31.1452L27.0612 33.2552L52.6112 38.8452L77.4312 33.1351H77.4412L87.6412 30.7852L87.7212 30.7652L88.6412 30.5552L87.2812 30.2751ZM56.0912 32.9651C55.1012 33.5451 53.9312 33.8251 52.5812 33.8251C51.2312 33.8251 50.0712 33.5352 49.0712 32.9552C48.0712 32.3852 47.5712 31.7052 47.5612 30.9252C47.5612 30.1552 48.0511 29.4752 49.0511 28.9052C50.0411 28.3352 51.2111 28.0452 52.5511 28.0452C53.9011 28.0452 55.0712 28.3352 56.0712 28.9152C57.0612 29.4952 57.5712 30.1652 57.5712 30.9452C57.5712 31.7252 57.0812 32.3951 56.0912 32.9651Z" stroke="currentColor" stroke-linejoin="round"/>
    <path d="M57.5706 30.9449C57.5706 31.7249 57.0805 32.3949 56.0905 32.9649C55.1005 33.5449 53.9306 33.8249 52.5806 33.8249C51.2306 33.8249 50.0706 33.5349 49.0706 32.9549C48.0706 32.3849 47.5705 31.7049 47.5605 30.9249C47.5605 30.1549 48.0505 29.4749 49.0505 28.9049C50.0405 28.3349 51.2105 28.0449 52.5505 28.0449C53.9005 28.0449 55.0706 28.3349 56.0706 28.9149C57.0606 29.4949 57.5706 30.1649 57.5706 30.9449Z" stroke="currentColor" stroke-linejoin="round"/>
    <path d="M102.241 31.1152V51.0252C102.261 54.6752 101.071 58.2652 98.6606 61.7852C96.2506 65.3152 92.6206 68.4752 87.7806 71.2652C82.9406 74.0652 77.4706 76.1552 71.3606 77.5452C65.2506 78.9352 59.0406 79.6252 52.7206 79.6152C46.4006 79.6052 40.1806 78.8952 34.0606 77.4752C27.9406 76.0652 22.4406 73.9552 17.5706 71.1452C12.7006 68.3252 9.04061 65.1552 6.59061 61.6252C4.15061 58.0852 2.91062 54.4952 2.89062 50.8452V30.8452C2.91062 34.2052 3.96061 37.5052 6.03061 40.7752C6.21061 41.0552 6.39061 41.3452 6.59061 41.6252C8.20061 43.9352 10.3206 46.0952 12.9706 48.1052C14.0406 48.9152 15.2006 49.7152 16.4506 50.4752C16.6306 50.5852 16.8106 50.6952 17.0006 50.8152C17.1906 50.9252 17.3806 51.0352 17.5706 51.1452C17.6006 51.1652 17.6306 51.1752 17.6606 51.1952C22.5106 53.9852 27.9806 56.0752 34.0606 57.4752C40.1806 58.8952 46.4006 59.6052 52.7206 59.6152C59.0406 59.6152 65.2506 58.9352 71.3606 57.5452C77.4706 56.1552 82.9406 54.0652 87.7806 51.2652C89.3706 50.3552 90.8306 49.3952 92.1606 48.3952C94.8706 46.3552 97.0406 44.1552 98.6606 41.7852C98.8106 41.5652 98.9606 41.3352 99.1006 41.1052C101.201 37.8352 102.241 34.5052 102.241 31.1152Z" stroke="currentColor" stroke-linejoin="round"/>
</svg>