<svg viewBox="0 0 107 94" fill="none" xmlns="http://www.w3.org/2000/svg" height="24" width="24" stroke-width="1px" stroke-linecap="round" stroke-linejoin="round">
    <path d="M57.3806 34.6651C55.7006 34.3051 53.9506 33.9951 52.1406 33.7351C48.5806 33.1951 44.9806 33.2151 41.3306 33.7951C37.6806 34.3851 34.5506 35.4351 31.9406 36.9451L24.8506 41.0351V61.0351L31.9406 56.9451C32.0806 56.8651 32.2206 56.7851 32.3606 56.7151V45.3751L39.4506 41.2751C40.7606 40.5251 42.3106 40.0051 44.1206 39.7251C45.9306 39.4351 47.7406 39.4251 49.5506 39.6751C54.1106 40.3651 58.4006 41.3751 62.4306 42.6951C62.4706 42.7051 62.5006 42.7151 62.5406 42.7351V35.8651C60.7906 35.4251 59.0706 35.0251 57.3806 34.6651Z" stroke="currentColor" stroke-linejoin="round"/>
    <path d="M104.601 26.9752V46.9752C104.531 46.9452 104.451 46.9051 104.381 46.8751V39.0152C104.371 36.9752 103.341 35.1652 101.271 33.5952C100.791 33.2252 100.261 32.8652 99.671 32.5252C96.541 30.7252 92.791 29.8151 88.421 29.8051C84.061 29.7951 80.321 30.6952 77.211 32.4852C74.101 34.2852 72.551 36.4452 72.561 38.9652V46.7152C72.451 46.7552 72.341 46.8051 72.231 46.8651C69.241 45.2551 66.011 43.8752 62.541 42.7352V35.8651C63.031 34.4251 63.861 33.0552 65.041 31.7652C66.221 30.4652 67.771 29.2652 69.701 28.1552C72.281 26.6652 75.151 25.5451 78.301 24.8051C80.921 24.1851 83.731 23.8252 86.751 23.7252C93.391 23.5052 99.341 24.5852 104.601 26.9752Z" stroke="currentColor" stroke-linejoin="round"/>
    <path d="M104.381 39.0152V39.0352C104.381 40.1752 104.061 41.2452 103.421 42.2352C102.711 43.3552 101.601 44.3752 100.071 45.2952C99.9606 45.3652 99.8506 45.4351 99.7406 45.4951C96.6306 47.2851 92.8906 48.1851 88.5206 48.1751C84.1606 48.1651 80.4106 47.2552 77.2806 45.4552C77.1306 45.3652 76.9706 45.2751 76.8306 45.1851C74.0006 43.4351 72.5806 41.3652 72.5606 38.9652C72.5506 36.4452 74.1006 34.2852 77.2106 32.4852C80.3206 30.6952 84.0606 29.7951 88.4206 29.8051C92.7906 29.8151 96.5406 30.7252 99.6706 32.5252C100.261 32.8652 100.791 33.2252 101.271 33.5952C103.341 35.1652 104.371 36.9752 104.381 39.0152Z" stroke="currentColor" stroke-linejoin="round"/>
    <path d="M104.6 26.9751C99.3403 24.5851 93.3903 23.5051 86.7503 23.7251C83.7303 23.8251 80.9203 24.1851 78.3003 24.8051C75.1503 25.5451 72.2803 26.6651 69.7003 28.1551C67.7703 29.2651 66.2203 30.4651 65.0403 31.7651C63.8603 33.0551 63.0303 34.4251 62.5403 35.8651C60.7903 35.4251 59.0703 35.0251 57.3803 34.6651C55.7003 34.3051 53.9503 33.9951 52.1403 33.7351C48.5803 33.1951 44.9803 33.2151 41.3303 33.7951C37.6803 34.3851 34.5503 35.4351 31.9403 36.9451L24.8503 41.0351L19.6403 38.0251L2.32031 28.0251L47.1003 2.17505L99.5303 6.59509L104.6 26.9751Z" stroke="currentColor" stroke-linejoin="round"/>
    <path d="M87.5904 63.1551C87.5604 63.6351 87.4404 64.1151 87.2104 64.5951C86.7104 65.6351 85.8103 66.5351 84.5103 67.2951L83.7104 67.7551L78.4004 70.8251L77.4203 71.3851L62.2903 62.6451L46.2003 53.3651L32.3604 45.3751L39.4503 41.2751C40.7603 40.5251 42.3104 40.0051 44.1204 39.7251C45.9304 39.4351 47.7404 39.4251 49.5504 39.6751C54.1104 40.3651 58.4004 41.3751 62.4304 42.6951C62.4704 42.7051 62.5003 42.7151 62.5403 42.7351C66.0103 43.8751 69.2403 45.2551 72.2303 46.8651C72.3403 46.9251 72.4503 46.9851 72.5603 47.0451C72.8903 47.2351 73.2204 47.4151 73.5504 47.6051C75.6604 48.8251 77.5504 50.1151 79.2404 51.4851C80.2504 52.2951 81.1904 53.1451 82.0504 54.0251C84.3404 56.3551 86.0803 58.8351 87.2803 61.4651C87.5203 62.0251 87.6304 62.5951 87.5904 63.1551Z" stroke="currentColor" stroke-linejoin="round"/>
    <path d="M24.8503 41.0352V61.0352L2.32031 48.0251V28.0251L19.6403 38.0251L24.8503 41.0352Z" stroke="currentColor" stroke-linejoin="round"/>
    <path d="M87.5899 63.155V83.075C87.5799 83.585 87.4499 84.085 87.2099 84.595C86.7099 85.635 85.8099 86.535 84.5099 87.295L77.4199 91.385V71.385L78.3999 70.825L83.7099 67.755L84.5099 67.295C85.8099 66.535 86.7099 65.635 87.2099 64.595C87.4399 64.115 87.5599 63.635 87.5899 63.155Z" stroke="currentColor" stroke-linejoin="round"/>
    <path d="M87.5898 63.1551V62.925" stroke="currentColor" stroke-linejoin="round"/>
    <path d="M77.4203 71.385V91.385L32.3604 65.375V45.375L46.2003 53.365L62.2903 62.645L77.4203 71.385Z" stroke="currentColor" stroke-linejoin="round"/>
    <path d="M104.381 39.0351V59.0151C104.391 61.5451 102.851 63.6951 99.7406 65.4951C96.6306 67.2851 92.8906 68.185 88.5206 68.175C88.2106 68.175 87.9006 68.1751 87.5906 68.1651V63.1551C87.6306 62.5951 87.5205 62.0251 87.2805 61.4651C86.0805 58.8351 84.3406 56.3551 82.0506 54.0251C81.1906 53.1451 80.2506 52.2951 79.2406 51.4851C77.5506 50.1151 75.6606 48.8251 73.5506 47.6051C73.2206 47.4151 72.8905 47.2351 72.5605 47.0451V38.9651C72.5805 41.3651 74.0006 43.4351 76.8306 45.1851C76.9706 45.2751 77.1305 45.3651 77.2805 45.4551C80.4105 47.2551 84.1606 48.165 88.5206 48.175C92.8906 48.185 96.6306 47.2851 99.7406 45.4951C99.8506 45.4351 99.9606 45.3651 100.071 45.2951C101.601 44.3751 102.711 43.3551 103.421 42.2351C104.061 41.2451 104.381 40.1751 104.381 39.0351Z" stroke="currentColor" stroke-linejoin="round"/>
</svg>