<svg viewBox="0 0 109 85" fill="none" xmlns="http://www.w3.org/2000/svg" height="24" width="24" stroke-width="1px" stroke-linecap="round" stroke-linejoin="round">
    <path d="M2.53516 54.4064C2.53516 54.6764 2.54519 54.9364 2.56519 55.1964V53.3164C2.54519 53.6764 2.53516 54.0464 2.53516 54.4064Z" stroke="currentColor" stroke-linejoin="round"/>
    <path d="M92.0549 36.3264V56.3264C91.8049 57.4264 91.2849 58.4564 90.4949 59.4264C89.7049 60.3964 88.645 61.2664 87.325 62.0364C86.655 62.4264 85.9549 62.7664 85.2349 63.0764C85.2149 58.7464 85.2349 54.7363 85.2949 54.3463C82.5949 52.7863 79.6749 51.4463 76.5549 50.3363C74.2349 49.4963 71.8049 48.7963 69.2649 48.2163C66.7949 47.6463 64.3049 47.1963 61.7949 46.8763V40.9963C62.1149 41.1863 62.3847 41.3564 62.6047 41.5264C62.8347 41.6864 63.1048 41.8664 63.4248 42.0464C66.7348 43.9564 70.7248 44.9064 75.3848 44.8964C78.3348 44.8864 81.0048 44.5063 83.4048 43.7563C84.8048 43.3063 86.105 42.7364 87.325 42.0364C88.645 41.2664 89.7049 40.3964 90.4949 39.4264C91.2849 38.4564 91.8049 37.4264 92.0549 36.3264Z" stroke="currentColor" stroke-linejoin="round"/>
    <path d="M101.955 19.7963C101.785 19.6963 101.625 19.6163 101.465 19.5363C101.325 19.4563 101.185 19.3864 101.055 19.3264C100.765 19.1964 100.465 19.0463 100.145 18.8563C100.975 17.7263 101.415 16.5663 101.465 15.3763C101.505 14.6763 101.405 13.9763 101.165 13.2563C100.515 11.3063 98.9551 9.62636 96.4651 8.18636C93.9851 6.75636 91.0651 5.84627 87.6951 5.47627C84.3251 5.10627 81.0952 5.30636 77.9852 6.06636C77.6652 5.88636 77.3951 5.70634 77.1751 5.54634C76.9451 5.37634 76.675 5.20631 76.365 5.01631C73.045 3.10631 69.0651 2.15634 64.3951 2.16634C59.7351 2.17634 55.7551 3.12632 52.4651 5.02632C51.1351 5.79632 50.0752 6.66631 49.2852 7.63631C48.4952 8.60631 47.9852 9.63628 47.7352 10.7363C45.7652 10.8463 43.9452 11.1264 42.2652 11.5764C40.5852 12.0364 39.0752 12.6463 37.7452 13.4163C34.4552 15.3163 32.825 17.6163 32.835 20.3363C32.855 23.0463 34.5152 25.3563 37.8252 27.2663C38.1452 27.4463 38.4452 27.6063 38.7352 27.7363C39.0152 27.8663 39.3251 28.0164 39.6351 28.2064C38.6451 29.5564 38.2052 30.9463 38.3252 32.3863C38.3452 32.6063 38.3751 32.8264 38.4251 33.0564C38.4751 33.3064 38.545 33.5564 38.625 33.8064C39.265 35.7564 40.8352 37.4463 43.3152 38.8763C45.7952 40.3063 48.725 41.2163 52.085 41.5863C53.655 41.7563 55.1951 41.8063 56.7051 41.7263C58.4451 41.6563 60.1352 41.4063 61.7952 40.9963C62.1152 41.1863 62.385 41.3563 62.605 41.5263C62.835 41.6863 63.1051 41.8663 63.4251 42.0463C66.7351 43.9563 70.7251 44.9063 75.3851 44.8963C78.3351 44.8863 81.0051 44.5063 83.4051 43.7563C84.8051 43.3063 86.1052 42.7363 87.3252 42.0363C88.6452 41.2663 89.7052 40.3963 90.4952 39.4263C91.2852 38.4563 91.8052 37.4264 92.0552 36.3264C94.0152 36.2164 95.8251 35.9264 97.4751 35.4564C98.8851 35.0564 100.175 34.5463 101.345 33.9163C101.385 33.9063 101.425 33.8763 101.465 33.8463C101.625 33.7763 101.785 33.6863 101.935 33.5963C105.225 31.6963 106.885 29.3964 106.895 26.7064C106.915 24.0064 105.265 21.7063 101.955 19.7963ZM83.085 25.3363C82.545 26.7263 81.3351 27.9663 79.4451 29.0463C76.7851 30.5763 73.6151 31.3463 69.9351 31.3363C66.2551 31.3363 63.0751 30.5563 60.3951 29.0163C57.7251 27.4663 56.385 25.6363 56.375 23.5063C56.375 23.4363 56.3751 23.3764 56.3851 23.3064C56.4351 21.2664 57.765 19.5063 60.345 18.0163C62.995 16.4863 66.165 15.7163 69.845 15.7263C73.535 15.7363 76.7051 16.5064 79.3851 18.0564C82.0551 19.5964 83.4051 21.4264 83.4151 23.5564C83.4151 24.1764 83.305 24.7663 83.085 25.3363Z" stroke="currentColor" stroke-linejoin="round"/>
    <path d="M83.415 23.5564C83.415 24.1764 83.305 24.7663 83.085 25.3363C82.545 26.7263 81.3351 27.9664 79.4451 29.0464C76.7851 30.5764 73.6151 31.3463 69.9351 31.3363C66.2551 31.3363 63.075 30.5563 60.395 29.0163C57.725 27.4663 56.385 25.6363 56.375 23.5063C56.375 23.4363 56.375 23.3764 56.385 23.3064C56.435 21.2664 57.765 19.5063 60.345 18.0163C62.995 16.4863 66.165 15.7163 69.845 15.7263C73.535 15.7363 76.705 16.5064 79.385 18.0564C82.055 19.5964 83.405 21.4264 83.415 23.5564Z" stroke="currentColor" stroke-linejoin="round"/>
    <path d="M85.2954 54.3463C80.6154 57.0463 75.2854 59.0764 69.3254 60.4164C67.1454 60.9064 64.9554 61.3063 62.7454 61.6163C58.9054 62.1563 55.0054 62.4264 51.0554 62.4164C44.8354 62.4064 38.7454 61.7163 32.7654 60.3463C31.7954 60.1263 30.8453 59.8863 29.9153 59.6263C25.0853 58.3063 20.6954 56.4963 16.7354 54.2163C20.6354 51.9763 24.9654 50.1963 29.7354 48.8963C30.0654 48.7963 30.3953 48.7063 30.7253 48.6263C31.3753 48.4563 32.0353 48.2963 32.7053 48.1463C34.3653 47.7763 36.0253 47.4564 37.7053 47.1964C37.9053 47.1564 38.1154 47.1163 38.3154 47.0963C42.4754 46.4563 46.6953 46.1363 50.9753 46.1463C53.1153 46.1463 55.2352 46.2364 57.3352 46.4064C58.8352 46.5164 60.3154 46.6663 61.7954 46.8763C64.3054 47.1963 66.7954 47.6463 69.2654 48.2163C71.8054 48.7963 74.2354 49.4963 76.5554 50.3363C79.6754 51.4463 82.5954 52.7863 85.2954 54.3463Z" stroke="currentColor" stroke-linejoin="round"/>
    <path d="M30.7253 34.5464V48.6263C30.3953 48.7063 30.0654 48.7964 29.7354 48.8964C24.9654 50.1964 20.6354 51.9763 16.7354 54.2163C21.4254 51.5163 24.9254 48.4463 27.2554 45.0063C27.3654 44.8463 27.4654 44.6964 27.5654 44.5364C29.6654 41.2764 30.7253 37.9464 30.7253 34.5464Z" stroke="currentColor" stroke-linejoin="round"/>
    <path d="M30.7254 34.4564V34.5464C30.7254 37.9464 29.6654 41.2764 27.5654 44.5364C27.4654 44.6964 27.3654 44.8463 27.2554 45.0063C24.9254 48.4463 21.4254 51.5163 16.7354 54.2163C12.0254 51.4963 8.48524 48.4163 6.11524 44.9663C5.96524 44.7563 5.82532 44.5464 5.69532 44.3264C3.78532 41.3564 2.73544 38.3263 2.56544 35.2463V35.1864C2.54544 34.9264 2.53541 34.6664 2.53541 34.4064C2.51541 30.8164 3.67538 27.2963 6.00538 23.8563C8.33538 20.4163 11.8454 17.3464 16.5254 14.6364C21.2354 17.3564 24.7753 20.4464 27.1453 23.8964C29.5053 27.3464 30.7054 30.8664 30.7254 34.4564Z" stroke="currentColor" stroke-linejoin="round"/>
    <path d="M106.896 26.7064V46.7064C106.886 49.3964 105.226 51.6963 101.936 53.5963C100.606 54.3663 99.1256 54.9864 97.4756 55.4564C95.8256 55.9264 94.0157 56.2164 92.0557 56.3264V36.3264C94.0157 36.2164 95.8256 35.9264 97.4756 35.4564C98.8856 35.0564 100.175 34.5464 101.345 33.9164C101.385 33.9064 101.426 33.8763 101.466 33.8463C101.626 33.7763 101.786 33.6863 101.936 33.5963C105.226 31.6963 106.886 29.3964 106.896 26.7064Z" stroke="currentColor" stroke-linejoin="round"/>
    <path d="M38.3154 51.8264V51.6764" stroke="currentColor" stroke-linejoin="round"/>
    <path d="M38.3252 32.3864V32.2163" stroke="currentColor" stroke-linejoin="round"/>
    <path d="M61.7954 40.9963V46.8763C60.3154 46.6663 58.8352 46.5164 57.3352 46.4064C55.2352 46.2364 53.1153 46.1464 50.9753 46.1464C46.6953 46.1364 42.4754 46.4563 38.3154 47.0963V33.1063C38.3154 33.1063 38.3953 33.0664 38.4253 33.0564C38.4753 33.3064 38.5452 33.5564 38.6252 33.8064C39.2652 35.7564 40.8354 37.4463 43.3154 38.8763C45.7954 40.3063 48.7252 41.2163 52.0852 41.5863C53.6552 41.7563 55.1953 41.8063 56.7053 41.7263C58.4453 41.6563 60.1354 41.4063 61.7954 40.9963Z" stroke="currentColor" stroke-linejoin="round"/>
    <path d="M39.635 28.2064C38.645 29.5564 38.2052 30.9464 38.3252 32.3864V47.0963C38.1152 47.1163 37.9051 47.1564 37.7051 47.1964C34.4751 45.2964 32.855 43.0163 32.835 40.3363V20.3363C32.855 23.0463 34.5152 25.3564 37.8252 27.2664C38.1452 27.4464 38.4451 27.6063 38.7351 27.7363C39.0151 27.8663 39.325 28.0164 39.635 28.2064Z" stroke="currentColor" stroke-linejoin="round"/>
    <path d="M85.2354 63.0764C85.2454 68.4664 85.2954 74.3463 85.2954 74.3463C80.6154 77.0463 75.2854 79.0764 69.3254 80.4164C63.3754 81.7664 57.2854 82.4264 51.0554 82.4164C44.8354 82.4064 38.7454 81.7163 32.7654 80.3463C26.7954 78.9863 21.4554 76.9363 16.7354 74.2163C12.0254 71.4963 8.48523 68.4163 6.11523 64.9663C3.92523 61.7663 2.73543 58.5164 2.56543 55.1964V35.2463C2.73543 38.3263 3.78531 41.3564 5.69531 44.3264C5.82531 44.5464 5.96523 44.7563 6.11523 44.9663C8.48523 48.4163 12.0254 51.4963 16.7354 54.2163C20.6954 56.4963 25.0853 58.3063 29.9153 59.6263C30.8453 59.8863 31.7954 60.1263 32.7654 60.3463C38.7454 61.7163 44.8354 62.4064 51.0554 62.4164C55.0054 62.4264 58.9054 62.1563 62.7454 61.6163C64.9554 61.3063 67.1454 60.9064 69.3254 60.4164C75.2854 59.0764 80.6154 57.0463 85.2954 54.3463C85.2254 54.7363 85.2154 58.7464 85.2354 63.0764Z" stroke="currentColor" stroke-linejoin="round"/>
    <path d="M101.466 15.3763V19.5364C101.326 19.4564 101.186 19.3864 101.056 19.3264C100.766 19.1964 100.466 19.0463 100.146 18.8563C100.976 17.7263 101.416 16.5663 101.466 15.3763Z" stroke="currentColor" stroke-linejoin="round"/>
    <path d="M101.465 15.3763V15.0264" stroke="currentColor" stroke-linejoin="round"/>
</svg>