<svg width="48" height="48" viewBox="0 0 97 95" fill="none" xmlns="http://www.w3.org/2000/svg" stroke-width="1px"
     stroke-linecap="round" stroke-linejoin="round">
    <path d="M56.3799 43.6406C56.3799 43.6406 56.4698 43.6706 56.5098 43.7006V43.6506C56.5098 43.6506 56.4199 43.6506 56.3799 43.6406Z" stroke="currentColor" stroke-linejoin="round"/>
    <path d="M54.1094 72.7609V92.7609L43.8594 92.6909V72.6909L54.1094 72.7609Z" stroke="currentColor" stroke-linejoin="round"/>
    <path d="M43.6797 56.0907V76.0907C38.5997 75.7307 33.7098 74.9107 29.0198 73.6207C24.3298 72.3407 20.0698 70.6007 16.2498 68.3907C11.6998 65.7607 8.29979 62.8108 6.03979 59.5208C3.78979 56.2408 2.64988 52.9007 2.62988 49.5107V29.5107C2.64988 32.8707 3.76975 36.1908 5.98975 39.4408C5.99975 39.4708 6.01979 39.4908 6.03979 39.5208C7.74979 42.0108 10.1199 44.3108 13.1499 46.4108C14.1099 47.0908 15.1498 47.7507 16.2498 48.3907C19.8998 50.5007 23.9499 52.1808 28.3999 53.4408C28.5999 53.5108 28.8098 53.5607 29.0198 53.6207C33.2698 54.7907 37.6898 55.5707 42.2598 55.9707C42.7298 56.0207 43.2097 56.0607 43.6797 56.0907Z" stroke="currentColor" stroke-linejoin="round"/>
    <path d="M43.8599 72.6907V92.6907L43.6797 76.0906V56.4106L43.7397 61.8406L43.8298 70.1606L43.8599 72.6907Z" stroke="currentColor" stroke-linejoin="round"/>
    <path d="M41 35.4507V35.5308C41.06 35.5308 41.1299 35.5308 41.1899 35.5408C41.1299 35.5208 41.06 35.4907 41 35.4507Z" stroke="currentColor" stroke-linejoin="round"/>
    <path d="M91.47 19.6208C89.21 16.3308 85.8401 13.4009 81.3501 10.8009C76.8001 8.18089 71.68 6.21088 65.99 4.91088C60.3 3.61088 54.5101 2.96082 48.6101 2.97082C42.7101 2.98082 36.93 3.62087 31.25 4.90087C25.57 6.18087 20.5101 8.11091 16.0401 10.6909C11.5201 13.3009 8.14996 16.2409 5.92996 19.5209C3.70996 22.8009 2.61015 26.1309 2.63015 29.5109C2.65015 32.8709 3.77001 36.1909 5.99001 39.4409C6.00001 39.4709 6.02006 39.4909 6.04006 39.5209C7.75006 42.0109 10.1202 44.3109 13.1502 46.4109C14.1102 47.0909 15.15 47.7509 16.25 48.3909C19.9 50.5009 23.9502 52.1809 28.4002 53.4409C28.6002 53.5109 28.81 53.5608 29.02 53.6208C33.27 54.7908 37.69 55.5708 42.26 55.9708C42.73 56.0208 43.21 56.0608 43.68 56.0908V56.4109L43.74 61.8408L43.8301 70.1609L43.8601 72.6909L54.1101 72.7609V70.1809L54.0601 63.5209L54.02 56.4309V56.1008C54.49 56.0708 54.96 56.0308 55.43 55.9908C60.01 55.6108 64.43 54.8508 68.7 53.7208C69.35 53.5508 70.0002 53.3609 70.6402 53.1709C71.3802 52.9509 72.1101 52.7108 72.8301 52.4508C72.9201 52.4308 73.0101 52.4008 73.1001 52.3608C76.1201 51.3108 78.9401 50.0309 81.5601 48.5109C82.5601 47.9309 83.5001 47.3408 84.3801 46.7308C87.4401 44.6208 89.8401 42.3009 91.5601 39.7609C91.5701 39.7509 91.5701 39.7408 91.5801 39.7308C93.7701 36.4808 94.8801 33.1609 94.8801 29.7709V29.6809C94.8601 26.2609 93.72 22.9108 91.47 19.6208ZM84.3801 32.7208C83.8001 35.2308 82.4701 37.5608 80.3701 39.7108C78.7801 41.3508 76.7501 42.8809 74.2801 44.3109C73.8901 44.5309 73.5001 44.7508 73.1001 44.9608C72.3001 45.3908 71.4802 45.7909 70.6402 46.1609C70.3802 46.2909 70.1101 46.4109 69.8401 46.5109C67.2701 47.6109 64.5402 48.4708 61.6402 49.1008C59.9702 49.4608 58.25 49.7508 56.48 49.9508C54.04 50.2308 51.5101 50.3708 48.8701 50.3608C46.1501 50.3508 43.5301 50.1908 41.0301 49.8708C39.2501 49.6608 37.5301 49.3608 35.8701 48.9708C31.6901 48.0308 27.8601 46.6108 24.3601 44.7008C24.0601 44.5408 23.77 44.3808 23.48 44.2108C20.93 42.7408 18.83 41.1608 17.2 39.4808C15.1 37.3308 13.7502 35.0109 13.1502 32.5209C12.9102 31.5509 12.7901 30.5509 12.7901 29.5309C12.7601 23.8409 16.2701 18.9609 23.3201 14.8909C30.3201 10.8509 38.7602 8.8308 48.6402 8.8308C58.5202 8.8308 67.0201 10.8808 74.1201 14.9808C81.1501 19.0408 84.69 23.9409 84.72 29.6609C84.73 30.7109 84.6101 31.7308 84.3801 32.7208Z" stroke="currentColor" stroke-linejoin="round"/>
    <path d="M73.1006 35.4609V44.9609C72.3006 45.3909 71.4806 45.791 70.6406 46.161V42.2009C72.1906 40.0309 73.0106 37.7809 73.1006 35.4609Z" stroke="currentColor" stroke-linejoin="round"/>
    <path d="M73.0898 34.4208C73.0498 33.3908 72.8597 32.3408 72.5297 31.2908C71.9097 29.3008 70.7698 27.4508 69.1298 25.7208C67.6198 24.1108 65.6597 22.6208 63.2697 21.2408C58.2297 18.3408 52.3997 16.5408 45.7797 15.8508C39.1497 15.1508 32.8796 15.5308 26.9596 16.9908C25.1396 19.4308 24.2698 21.9509 24.3498 24.5709C24.3698 25.3009 24.4598 26.0308 24.6398 26.7808C24.7198 27.1408 24.8196 27.5108 24.9396 27.8808C25.4896 29.5808 26.4097 31.1807 27.7197 32.7007C28.7397 33.8907 29.9897 35.0208 31.4797 36.1008C32.3497 36.7408 33.2998 37.3507 34.3298 37.9507C36.4098 39.1507 38.6397 40.1608 40.9997 40.9808C42.5197 41.5108 44.0997 41.9708 45.7397 42.3408H45.7497C47.6497 42.7708 49.6296 43.1009 51.6896 43.3209C53.2696 43.4909 54.8298 43.6008 56.3798 43.6408C56.4198 43.6508 56.4597 43.6508 56.5097 43.6508C59.7797 43.7408 62.9798 43.5508 66.1098 43.0908C67.6398 42.8508 69.1498 42.5607 70.6398 42.2007C72.1898 40.0307 73.0098 37.7808 73.0998 35.4608V34.4208H73.0898ZM61.6498 30.1909C61.4398 31.9809 60.1898 33.5308 57.8998 34.8508C57.4498 35.1108 56.9897 35.3508 56.5097 35.5508C55.0897 36.2008 53.5398 36.6308 51.8798 36.8508C50.8898 37.0008 49.8597 37.0709 48.7897 37.0609C45.9497 37.0409 43.4096 36.5408 41.1896 35.5408C41.1296 35.5308 41.0597 35.5308 40.9997 35.5308V35.4507C40.5797 35.2707 40.1597 35.0509 39.7597 34.8209C37.3997 33.4509 36.0998 31.8908 35.8798 30.1308C35.8398 29.9508 35.8298 29.7609 35.8298 29.5709C35.8198 27.5809 37.1096 25.8408 39.6996 24.3408C40.4496 23.9108 41.2297 23.5408 42.0597 23.2508C44.0397 22.5108 46.2596 22.1408 48.7096 22.1308C51.1696 22.1308 53.3998 22.4908 55.4198 23.2508C56.2698 23.5608 57.0698 23.9408 57.8398 24.3808C60.3898 25.8508 61.6696 27.6008 61.6796 29.6208C61.6796 29.8108 61.6698 30.0109 61.6498 30.1909Z" stroke="currentColor" stroke-linejoin="round"/>
    <path d="M61.68 29.6208C61.68 29.8108 61.6702 30.0109 61.6502 30.1909C61.4402 31.9809 60.1902 33.5308 57.9002 34.8508C57.4502 35.1108 56.9901 35.3509 56.5101 35.5509V29.6108C56.5101 29.5008 56.5 29.4009 56.48 29.3009C56.36 28.2109 55.61 27.2708 54.23 26.4708C52.65 25.5508 50.82 25.1108 48.73 25.1208C46.64 25.1208 44.8501 25.5808 43.3401 26.4508C41.9101 27.2608 41.1401 28.2109 41.0301 29.2709C41.0001 29.3709 41.0001 29.4708 41.0001 29.5808V35.4508C40.5801 35.2708 40.1601 35.0509 39.7601 34.8209C37.4001 33.4509 36.1002 31.8909 35.8802 30.1309C35.8402 29.9509 35.8301 29.7609 35.8301 29.5709C35.8201 27.5809 37.11 25.8408 39.7 24.3408C40.45 23.9108 41.2301 23.5409 42.0601 23.2509C44.0401 22.5109 46.26 22.1409 48.71 22.1309C51.17 22.1309 53.4002 22.4909 55.4202 23.2509C56.2702 23.5609 57.0701 23.9409 57.8401 24.3809C60.3901 25.8509 61.67 27.6008 61.68 29.6208Z" stroke="currentColor" stroke-linejoin="round"/>
    <path d="M56.51 29.6108V29.6308C56.51 30.8408 55.76 31.8908 54.26 32.7508C52.69 33.6508 50.87 34.1008 48.78 34.0708C46.69 34.0508 44.8901 33.6108 43.3701 32.7308C41.8001 31.8208 41.01 30.7707 41 29.5807C41 29.4707 41 29.3708 41.03 29.2708C41.14 28.2108 41.9101 27.2607 43.3401 26.4507C44.8501 25.5807 46.64 25.1308 48.73 25.1208C50.82 25.1108 52.65 25.5507 54.23 26.4707C55.61 27.2707 56.36 28.2108 56.48 29.3008C56.5 29.4008 56.51 29.5008 56.51 29.6108Z" stroke="currentColor" stroke-linejoin="round"/>
    <path d="M56.51 29.6309V35.5509C55.09 36.2009 53.5401 36.6308 51.8801 36.8508C50.8901 37.0008 49.86 37.0709 48.79 37.0609C45.95 37.0409 43.4099 36.5409 41.1899 35.5409C41.1299 35.5209 41.06 35.4908 41 35.4508V29.5808C41.01 30.7708 41.8001 31.8208 43.3701 32.7308C44.8901 33.6108 46.69 34.0509 48.78 34.0709C50.87 34.1009 52.69 33.6509 54.26 32.7509C55.76 31.8909 56.51 30.8409 56.51 29.6309Z" stroke="currentColor" stroke-linejoin="round"/>
    <path d="M70.6399 42.2007V46.1608C70.3799 46.2908 70.1098 46.4107 69.8398 46.5107C67.2698 47.6107 64.5399 48.4707 61.6399 49.1007C59.9699 49.4607 58.2497 49.7507 56.4797 49.9507C54.0397 50.2307 51.5099 50.3707 48.8699 50.3607C46.1499 50.3507 43.5298 50.1907 41.0298 49.8707C39.2498 49.6607 37.5299 49.3607 35.8699 48.9707C31.6899 48.0307 27.8599 46.6107 24.3599 44.7007C24.3499 44.6207 24.3398 44.5507 24.3498 44.4807V24.5708C24.3698 25.3008 24.4599 26.0308 24.6399 26.7808C24.7199 27.1408 24.8197 27.5107 24.9397 27.8807C25.4897 29.5807 26.4097 31.1807 27.7197 32.7007C28.7397 33.8907 29.9897 35.0207 31.4797 36.1007C32.3497 36.7407 33.2998 37.3507 34.3298 37.9507C36.4098 39.1507 38.6397 40.1607 40.9997 40.9807C42.5197 41.5107 44.0997 41.9707 45.7397 42.3407H45.7497C47.6497 42.7707 49.6297 43.1008 51.6897 43.3208C53.2697 43.4908 54.8299 43.6007 56.3799 43.6407C56.4299 43.6507 56.4698 43.6707 56.5098 43.7007V43.6508C59.7798 43.7408 62.9799 43.5507 66.1099 43.0907C67.6399 42.8507 69.1499 42.5607 70.6399 42.2007Z" stroke="currentColor" stroke-linejoin="round"/>
    <path d="M84.7202 29.6609C84.7302 30.7109 84.6103 31.7308 84.3803 32.7208C83.8003 35.2308 82.4703 37.5608 80.3703 39.7108C78.7503 38.0308 76.6603 36.4508 74.1203 34.9808C73.7803 34.7908 73.4503 34.6009 73.1003 34.4209H73.0903C73.0503 33.3909 72.8602 32.3409 72.5302 31.2909C71.9102 29.3009 70.7703 27.4508 69.1303 25.7208C67.6203 24.1108 65.6602 22.6208 63.2702 21.2408C58.2302 18.3408 52.4002 16.5408 45.7802 15.8508C39.1502 15.1508 32.8802 15.5308 26.9602 16.9908C25.1402 19.4308 24.2703 21.9509 24.3503 24.5709V34.3209C24.0003 34.5009 23.6603 34.6909 23.3203 34.8909C20.8403 36.3209 18.8001 37.8508 17.2001 39.4808C15.1001 37.3308 13.7503 35.0109 13.1503 32.5209C12.9103 31.5509 12.7902 30.5509 12.7902 29.5309C12.7602 23.8409 16.2703 18.9609 23.3203 14.8909C30.3203 10.8509 38.7603 8.83081 48.6403 8.83081C58.5203 8.83081 67.0203 10.8808 74.1203 14.9808C81.1503 19.0408 84.6902 23.9409 84.7202 29.6609Z" stroke="currentColor" stroke-linejoin="round"/>
    <path d="M94.8796 29.771V49.681C94.8996 53.101 93.7896 56.451 91.5796 59.731C89.3596 63.011 86.0196 65.931 81.5596 68.511C77.6996 70.741 73.4095 72.4709 68.6995 73.7209C64.0195 74.9609 59.1596 75.7509 54.1096 76.0909V70.181L54.0596 63.521L54.0195 56.431V56.101C54.4895 56.071 54.9594 56.031 55.4294 55.991C60.0094 55.611 64.4295 54.8509 68.6995 53.7209C69.3495 53.5509 69.9996 53.361 70.6396 53.171C71.3796 52.951 72.1096 52.7109 72.8296 52.4509C72.9196 52.4309 73.0096 52.401 73.0996 52.361C76.1196 51.311 78.9396 50.031 81.5596 48.511C82.5596 47.931 83.4996 47.341 84.3796 46.731C87.4396 44.621 89.8396 42.301 91.5596 39.761C91.5696 39.751 91.5696 39.741 91.5796 39.731C93.7696 36.481 94.8796 33.161 94.8796 29.771Z" stroke="currentColor" stroke-linejoin="round"/>
    <path d="M73.0996 34.421V33.771" stroke="currentColor" stroke-linejoin="round"/>
</svg>