<svg width="48" height="48" viewBox="0 0 124 93" fill="none" xmlns="http://www.w3.org/2000/svg" stroke-width="1px"
     stroke-linecap="round" stroke-linejoin="round">
    <path d="M121.49 41.77V61.77L70.8398 91.01V71.01L104.17 51.77L121.49 41.77Z" stroke="currentColor" stroke-linejoin="round"/>
    <path d="M114.611 37.8L101.111 30L114.611 22.2001L87.4307 6.5L73.9207 14.3L53.5408 2.53003L2.89062 31.77L20.2107 41.77L46.8105 57.13L56.3306 62.63L70.8406 71.01L104.171 51.77L121.491 41.77L114.611 37.8ZM62.8706 42.64L45.2908 42.61L45.2607 37.13L62.8706 37.16L62.8206 27.89V26.99L72.3008 27.01L72.3306 33.38L72.3806 42.66L62.8706 42.64ZM94.3105 26.0701L87.4707 22.12L80.7207 18.23L87.4707 14.3301L101.061 22.17L94.3105 26.0701Z" stroke="currentColor" stroke-linejoin="round"/>
    <path d="M114.611 22.2002V37.8002L101.111 30.0001L114.611 22.2002Z" stroke="currentColor" stroke-linejoin="round"/>
    <path d="M101.061 22.17L94.3105 26.0701L87.4707 22.12V14.3301L101.061 22.17Z" stroke="currentColor" stroke-linejoin="round"/>
    <path d="M62.8716 37.1599V42.6399L45.2917 42.6099L45.2617 37.1299L62.8716 37.1599Z" stroke="currentColor" stroke-linejoin="round"/>
    <path d="M62.8706 42.64V37.16L62.8206 27.89L62.8105 26.99L72.3008 27.01L72.3306 33.38L72.3806 42.66L62.8706 42.64Z" stroke="currentColor" stroke-linejoin="round"/>
    <path d="M87.4707 14.3301V22.12L80.7207 18.23L87.4707 14.3301Z" stroke="currentColor" stroke-linejoin="round"/>
    <path d="M70.8406 71.01V91.01L2.89062 51.77V31.77L20.2107 41.77L46.8105 57.13L56.3306 62.63L70.8406 71.01Z" stroke="currentColor" stroke-linejoin="round"/>
</svg>