<svg width="48" height="48" viewBox="0 0 131 98" fill="none" xmlns="http://www.w3.org/2000/svg" stroke-width="1px"
     stroke-linecap="round" stroke-linejoin="round">
    <path d="M60.709 26.96V33.5599L60.739 33.5399L60.709 26.96Z" stroke="currentColor" stroke-linejoin="round"/>
    <path d="M34.2299 57.27V77.27L2.58984 59V39L19.9099 49L26.9398 53.0599L34.2299 57.27Z" stroke="currentColor" stroke-linejoin="round"/>
    <path d="M128.78 39.23V59.23L97.3301 77.38V57.38L104.47 53.26L111.45 49.23L128.78 39.23Z" stroke="currentColor" stroke-linejoin="round"/>
    <path d="M90.2891 61.39V61.45L90.3391 61.4199L90.2891 61.39Z" stroke="currentColor" stroke-linejoin="round"/>
    <path d="M128.78 39.23L111.45 49.23L104.47 53.26L97.3298 57.38L90.2899 53.3199L97.4298 49.2L104.42 45.1699L114.75 39.2L65.5298 10.7799L16.6098 39.02L26.8998 44.97L33.9199 49.02L41.2198 53.24L34.2299 57.27L26.9398 53.0599L19.9099 49L2.58984 39L65.4799 2.68994L128.78 39.23Z" stroke="currentColor" stroke-linejoin="round"/>
    <path d="M41.2205 53.24V73.24L34.2305 77.27V57.27L41.2205 53.24Z" stroke="currentColor" stroke-linejoin="round"/>
    <path d="M90.3389 61.4199V81.4199L65.8789 95.5399V75.5399L70.7189 72.75L90.2889 61.45L90.3389 61.4199Z" stroke="currentColor" stroke-linejoin="round"/>
    <path d="M97.329 57.38V77.38L90.3391 73.35V61.4199L90.2891 61.39V53.3199L97.329 57.38Z" stroke="currentColor" stroke-linejoin="round"/>
    <path d="M65.8798 75.5399V95.5399L41.2598 81.33V61.33L60.8498 72.63L65.8798 75.5399Z" stroke="currentColor" stroke-linejoin="round"/>
    <path d="M114.749 39.2L104.419 45.1699L97.4293 49.2L70.5693 33.6899L70.5193 26.98L65.5293 26.97V10.7799L114.749 39.2Z" stroke="currentColor" stroke-linejoin="round"/>
    <path d="M90.2898 61.39V61.45L70.7198 72.75L65.8798 75.5399L60.8498 72.63L41.2598 61.33L48.2498 57.2999L60.7997 64.5399L60.9098 64.6L60.8198 46.96L60.7397 33.5399L60.7097 26.96L65.5298 26.97L70.5197 26.98L70.5698 33.6899L70.8098 64.5699L83.3098 57.36L90.2898 61.39Z" stroke="currentColor" stroke-linejoin="round"/>
    <path d="M65.5294 10.7799V26.97L60.7094 26.96V33.5599L33.9194 49.02L26.8994 44.97L16.6094 39.02L65.5294 10.7799Z" stroke="currentColor" stroke-linejoin="round"/>
    <path d="M60.909 64.6L60.799 64.5399L60.709 46.96V33.5599L60.739 33.5399L60.819 46.96L60.909 64.6Z" stroke="currentColor" stroke-linejoin="round"/>
</svg>