<svg width="24" height="24" viewBox="0 0 119 91" fill="none" xmlns="http://www.w3.org/2000/svg" stroke-width="1px" stroke-linecap="round" stroke-linejoin="round">
    <path d="M102.159 52.3699V55.9299M2.13965 52.1899L2.24951 57.6799V52.1899H2.13965Z" stroke="currentColor" stroke-linejoin="round"/>
    <path d="M22.3994 60.2599V80.2599L15.6494 76.3599V56.3599L16.4692 56.8299L22.3994 60.2599Z" stroke="currentColor" stroke-linejoin="round"/>
    <path d="M96.4795 60.4V80.4L86.3496 74.55V54.55L92.4695 58.09L96.4795 60.4Z" stroke="currentColor" stroke-linejoin="round"/>
    <path d="M63.9199 2.06982L54.4099 2.09982L54.3701 10.3198H63.97L63.9199 2.06982Z" stroke="currentColor" stroke-linejoin="round"/>
    <path d="M32.26 15.5697L25.55 19.4497L15.4199 13.5997L22.1301 9.71973L32.26 15.5697Z" stroke="currentColor" stroke-linejoin="round"/>
    <path d="M64.24 59.8098L64.2 68.0198H63.6201L58.6799 68.0398L54.6899 68.0498L54.6401 59.7898H55.21L63.6201 59.8098H64.24Z" stroke="currentColor" stroke-linejoin="round"/>
    <path d="M92.8103 35.1698V35.2198C92.8103 36.5798 92.5904 37.8798 92.1504 39.1398C91.4104 41.3098 90.0202 43.3398 87.9702 45.1998C86.6102 46.4598 84.9603 47.6398 83.0303 48.7598C82.4503 49.0898 81.8602 49.4098 81.2502 49.7098C80.3302 50.1798 79.3704 50.6098 78.3704 51.0098C76.7204 51.6698 74.9704 52.2398 73.1204 52.7298C72.2704 51.9098 71.4702 51.0998 70.7102 50.2698C69.9502 49.4398 69.2504 48.5898 68.6304 47.7098C70.0904 47.3898 71.4302 46.9898 72.6702 46.4998C73.7002 46.0998 74.6804 45.6398 75.6304 45.1198C75.8204 45.0198 76.0102 44.9198 76.1902 44.8098C78.3802 43.5398 80.0502 42.1598 81.2002 40.6398C82.5002 38.9498 83.1404 37.0998 83.1304 35.0998C83.1004 31.3098 80.7603 28.0698 76.0903 25.3698C74.9603 24.7198 73.7803 24.1498 72.5403 23.6598C71.3003 23.1798 69.9602 22.7698 68.4902 22.4398C69.1102 21.5698 69.7903 20.7298 70.5403 19.9398C71.3003 19.1498 72.0902 18.3498 72.9302 17.5398C74.7802 18.0298 76.5402 18.6098 78.2002 19.2798C79.8602 19.9398 81.4204 20.6998 82.8804 21.5398C84.0704 22.2298 85.1504 22.9398 86.1304 23.6798C89.4604 26.1898 91.5504 28.9798 92.3804 32.0598C92.6704 33.0598 92.8103 34.0998 92.8103 35.1698Z" stroke="currentColor" stroke-linejoin="round"/>
    <path d="M102.96 13.7599L92.8899 19.5699L86.1299 15.6699L96.1997 9.85986L102.96 13.7599Z" stroke="currentColor" stroke-linejoin="round"/>
    <path d="M116.47 37.9299L102.16 37.9099L102.14 34.2299L102.13 33.2799V32.3699H102.96L116.36 32.4399L116.47 37.9299Z" stroke="currentColor" stroke-linejoin="round"/>
    <path d="M116.47 37.9299V57.9299L103.19 57.9099V56.5199L102.16 55.9299V37.9099L116.47 37.9299Z" stroke="currentColor" stroke-linejoin="round"/>
    <path d="M103.189 56.5199L102.159 57.1199L96.4795 60.3999L92.4695 58.0899L86.3496 54.5499L92.1196 51.2099L92.8096 50.8099L93.0596 50.6699L102.15 55.9199L102.159 55.9299L103.189 56.5199Z" stroke="currentColor" stroke-linejoin="round"/>
    <path d="M103.189 56.5198V76.5198L96.4795 80.3998V60.3998L102.159 57.1198L103.189 56.5198Z" stroke="currentColor" stroke-linejoin="round"/>
    <path d="M92.8899 19.5699V39.5699L92.8098 39.5199V35.1699C92.8098 34.0999 92.6699 33.0599 92.3799 32.0599C91.5499 28.9799 89.4599 26.1899 86.1299 23.6799V15.6699L92.8899 19.5699Z" stroke="currentColor" stroke-linejoin="round"/>
    <path d="M83.1299 35.0999C83.1399 37.0999 82.4997 38.9499 81.1997 40.6399C80.0497 42.1599 78.3797 43.5399 76.1897 44.8099C76.0097 44.9199 75.8199 45.0199 75.6299 45.1199C74.6399 44.5699 73.6098 44.0799 72.5398 43.6599C71.2998 43.1799 69.9597 42.7699 68.4897 42.4399V22.4399C69.9597 22.7699 71.2998 23.1799 72.5398 23.6599C73.7798 24.1499 74.9598 24.7199 76.0898 25.3699C80.7598 28.0699 83.0999 31.3099 83.1299 35.0999Z" stroke="currentColor" stroke-linejoin="round"/>
    <path d="M92.8101 35.2197V50.8097L92.1201 51.2097L86.3501 54.5497V66.5697C85.3601 67.3197 84.25 68.0597 83.03 68.7597C81.58 69.5997 80.0201 70.3497 78.3701 71.0097C76.7201 71.6697 74.9701 72.2397 73.1201 72.7297V52.7297C74.9701 52.2397 76.7201 51.6697 78.3701 51.0097C79.3701 50.6097 80.33 50.1797 81.25 49.7097C81.86 49.4097 82.45 49.0897 83.03 48.7597C84.96 47.6397 86.61 46.4597 87.97 45.1997C90.02 43.3397 91.4101 41.3097 92.1501 39.1397C92.5901 37.8797 92.8101 36.5797 92.8101 35.2197Z" stroke="currentColor" stroke-linejoin="round"/>
    <path d="M73.1199 52.7297V72.7297C72.2699 71.9097 71.4697 71.0997 70.7097 70.2697C69.9497 69.4397 69.2499 68.5897 68.6299 67.7097V47.7097C69.2499 48.5897 69.9497 49.4397 70.7097 50.2697C71.4697 51.0997 72.2699 51.9097 73.1199 52.7297Z" stroke="currentColor" stroke-linejoin="round"/>
    <path d="M63.6199 54.2198V59.8098L55.2097 59.7898H54.6399L54.6897 68.0498V74.1398C52.6597 73.9698 50.6597 73.6798 48.6697 73.2898C43.8097 72.3198 39.5499 70.7898 35.8899 68.6698C34.6299 67.9398 33.4897 67.1898 32.4697 66.3998V54.4498L26.6199 51.0698L25.9697 50.6898V35.0498C25.9697 36.3598 26.1898 37.6298 26.5898 38.8498C27.3498 41.0498 28.7498 43.1098 30.8098 45.0098C32.1998 46.2998 33.8999 47.5198 35.8899 48.6698C39.5499 50.7898 43.8097 52.3198 48.6697 53.2898C50.6597 53.6798 52.6697 53.9698 54.6997 54.1398C57.6297 54.3898 60.5999 54.4198 63.6199 54.2198Z" stroke="currentColor" stroke-linejoin="round"/>
    <path d="M64.1995 68.0198V88.0198L54.6895 88.0498V68.0498L58.6794 68.0398L63.6196 68.0198H64.1995Z" stroke="currentColor" stroke-linejoin="round"/>
    <path d="M102.13 32.3698V33.2798L102.14 34.2298L92.8896 39.5698V19.5698L102.959 13.7598V32.3698H102.13Z" stroke="currentColor" stroke-linejoin="round"/>
    <path d="M63.97 10.3298V30.3298H63.4099V16.0198C60.3499 15.7998 57.3401 15.8098 54.3701 16.0698V10.3198H63.97V10.3298Z" stroke="currentColor" stroke-linejoin="round"/>
    <path d="M63.4096 16.0198V36.0198C60.6096 38.8898 58.4697 41.8798 56.9997 44.9898C56.9897 44.9598 56.9697 44.9298 56.9597 44.8998C55.5897 41.9798 54.8397 39.0298 54.7097 36.0398C54.6897 35.7298 54.6796 35.4098 54.6796 35.0998C54.6696 33.4998 54.8296 31.8998 55.1796 30.3198C55.5396 28.6398 56.0898 26.9698 56.8498 25.3098C57.3498 24.2198 57.9298 23.1498 58.5998 22.0898C59.8798 20.0098 61.4896 17.9898 63.4096 16.0198Z" stroke="currentColor" stroke-linejoin="round"/>
    <path d="M63.62 54.2197C60.6 54.4197 57.6298 54.3897 54.6998 54.1397C52.6698 53.9697 50.6598 53.6797 48.6698 53.2897C43.8098 52.3197 39.55 50.7897 35.89 48.6697C33.9 47.5197 32.1999 46.2997 30.8099 45.0097C28.7499 43.1097 27.3499 41.0497 26.5899 38.8497C26.1899 37.6297 25.9698 36.3597 25.9698 35.0497C25.9598 34.0497 26.0799 33.0797 26.2999 32.1297C27.0499 29.0697 29.0399 26.2797 32.2599 23.7897C33.2999 22.9797 34.4598 22.1997 35.7498 21.4597C39.3798 19.3597 43.6198 17.8397 48.4698 16.8897C50.4198 16.5097 52.38 16.2297 54.37 16.0697C57.34 15.8097 60.3498 15.7997 63.4098 16.0197C61.4898 17.9897 59.8799 20.0097 58.5999 22.0897C57.9299 23.1497 57.3499 24.2197 56.8499 25.3097C56.0899 26.9697 55.5398 28.6397 55.1798 30.3197C54.8298 31.8997 54.6698 33.4997 54.6798 35.0997C54.6798 35.4097 54.6898 35.7297 54.7098 36.0397C54.8398 39.0297 55.5898 41.9797 56.9598 44.8997C56.9698 44.9297 56.9898 44.9597 56.9998 44.9897C58.4998 48.1797 60.71 51.2597 63.62 54.2197Z" stroke="currentColor" stroke-linejoin="round"/>
    <path d="M32.2598 15.5698V23.7898C29.0398 26.2798 27.0498 29.0698 26.2998 32.1298C26.0798 33.0798 25.9597 34.0498 25.9697 35.0498V39.2098L25.5498 39.4498V19.4498L32.2598 15.5698Z" stroke="currentColor" stroke-linejoin="round"/>
    <path d="M16.4695 37.7499L2.24951 37.6799L2.13965 32.1899L15.4194 32.2099H16.4395V33.0099L16.4495 34.1999L16.4695 37.7499Z" stroke="currentColor" stroke-linejoin="round"/>
    <path d="M25.55 19.4499V39.4499L16.45 34.1999L16.4399 33.0099V32.2099H15.4199V13.5999L25.55 19.4499Z" stroke="currentColor" stroke-linejoin="round"/>
    <path d="M2.12988 32.1799V52.1799" stroke="currentColor" stroke-linejoin="round"/>
    <path d="M32.4697 54.4498L26.3398 57.9898L22.3999 60.2598L16.4697 56.8298L15.6499 56.3598L16.4597 55.8898H16.4697L25.7197 50.5498L25.9697 50.6898L26.6199 51.0698L32.4697 54.4498Z" stroke="currentColor" stroke-linejoin="round"/>
    <path d="M32.4697 54.4497V74.4497L22.3999 80.2597V60.2597L26.3398 57.9897L32.4697 54.4497Z" stroke="currentColor" stroke-linejoin="round"/>
    <path d="M16.47 37.7499V55.8899H16.46L15.6501 56.3599V57.7499L2.25 57.6799V37.6799L16.47 37.7499Z" stroke="currentColor" stroke-linejoin="round"/>
</svg>