<svg width="48" height="48" viewBox="0 0 83 100" fill="none" xmlns="http://www.w3.org/2000/svg" stroke-width="1px" stroke-linecap="round" stroke-linejoin="round"><path d="M80.5296 24.8477V44.7677C80.5596 50.8977 76.7596 56.1677 69.1196 60.5877C66.0296 62.3677 62.6296 63.7577 58.9096 64.7677C55.2296 65.7677 51.4996 66.3877 47.7396 66.6277L47.6996 59.8677L47.6396 48.9377V46.6377C51.4296 46.3977 55.1896 45.7777 58.9096 44.7677C59.0896 44.7177 59.2596 44.6677 59.4296 44.6177C59.4396 44.6177 59.4496 44.6077 59.4496 44.6077C62.4596 43.7577 65.2596 42.6577 67.8496 41.2877C68.2796 41.0577 68.6996 40.8277 69.1196 40.5877C72.1996 38.8077 74.6496 36.8877 76.4896 34.8377C79.1796 31.8077 80.5296 28.4777 80.5296 24.8477Z" stroke="#229EFF" stroke-linejoin="round"/><path d="M47.7993 77.3178V97.3178L35.9893 97.2979V77.2979L47.6893 77.3178H47.7993Z" stroke="#229EFF" stroke-linejoin="round"/><path d="M68.9396 8.91744C61.2596 4.47744 52.0996 2.24744 41.4896 2.23744C30.8696 2.21744 21.7396 4.40744 14.0996 8.81744C6.45963 13.2274 2.65963 18.4974 2.68963 24.6274C2.70963 28.2374 4.05964 31.5574 6.72964 34.5774C8.58964 36.6974 11.1096 38.6574 14.2696 40.4874C14.6296 40.6974 14.9996 40.8974 15.3696 41.0974C18.1796 42.5974 21.2296 43.7974 24.5296 44.7074C26.1996 45.1674 27.8796 45.5474 29.5696 45.8374C29.5796 45.8374 29.5996 45.8374 29.6096 45.8374C31.6696 46.2074 33.7396 46.4574 35.8196 46.5974V48.9274L35.8896 59.8674L35.9896 77.2874L47.6896 77.3074H47.7996L47.7396 66.6174L47.6996 59.8574L47.6396 48.9274V46.6274C51.4296 46.3874 55.1896 45.7674 58.9096 44.7574C59.0896 44.7074 59.2596 44.6574 59.4296 44.6074C59.4396 44.6074 59.4496 44.5974 59.4496 44.5974C62.4596 43.7474 65.2596 42.6474 67.8496 41.2774C68.2796 41.0474 68.6996 40.8174 69.1196 40.5774C72.1996 38.7974 74.6496 36.8774 76.4896 34.8274C79.1796 31.7974 80.5296 28.4674 80.5296 24.8374V24.7574C80.4896 18.6274 76.6296 13.3474 68.9396 8.90744V8.91744ZM67.8396 28.3074C66.9296 30.6974 65.0296 32.8474 62.1296 34.7774C61.6596 35.0874 61.1696 35.3974 60.6496 35.6974C60.2596 35.9274 59.8496 36.1474 59.4496 36.3574C54.4396 38.9474 48.5196 40.2374 41.6896 40.2274C40.5396 40.2274 39.4096 40.1874 38.3096 40.1174C35.2096 39.8974 32.3096 39.3874 29.6096 38.5774C29.5596 38.5674 29.5096 38.5574 29.4596 38.5374C27.0296 37.8074 24.7696 36.8274 22.6796 35.6274C22.1196 35.2974 21.5796 34.9674 21.0796 34.6274C18.1896 32.6874 16.2796 30.5174 15.3696 28.1174C14.9296 27.0174 14.7196 25.8574 14.7096 24.6574C14.6896 20.3874 17.3096 16.7374 22.5596 13.7074C27.8196 10.6674 34.1396 9.15744 41.5196 9.17744C48.9096 9.18744 55.2396 10.7174 60.5296 13.7774C65.8196 16.8274 68.4796 20.4874 68.4996 24.7474C68.5096 25.9874 68.2896 27.1774 67.8396 28.3074Z" stroke="#229EFF" stroke-linejoin="round"/><path d="M29.6094 28.9376V38.5776C29.5594 38.5676 29.5094 38.5576 29.4594 38.5376L29.4395 37.1876V23.2876C29.4395 23.2876 29.4994 23.2676 29.5294 23.2676L29.6094 28.9376Z" stroke="#229EFF" stroke-linejoin="round"/><path d="M59.4494 28.9375V36.3575C54.4394 38.9475 48.5194 40.2375 41.6894 40.2275C40.5394 40.2275 39.4094 40.1875 38.3094 40.1175C35.2094 39.8975 32.3094 39.3875 29.6094 38.5775V28.9375H59.4494Z" stroke="#229EFF" stroke-linejoin="round"/><path d="M59.4495 28.9375H29.6094L29.5294 23.2675L29.4395 17.1875L38.2994 17.2075L38.3195 22.3075L38.3294 23.7775L55.8394 23.8075L59.4294 23.8175V24.7875L59.4495 28.9375Z" stroke="#229EFF" stroke-linejoin="round"/><path d="M68.5001 24.7474C68.5101 25.9874 68.2901 27.1774 67.8401 28.3074C66.9301 30.6974 65.0301 32.8474 62.1301 34.7774C61.6301 34.4374 61.0901 34.1074 60.5301 33.7774C60.1801 33.5774 59.8201 33.3774 59.4501 33.1774V28.9374L59.4301 24.7874V23.8174H55.8401L38.3301 23.7774V22.3074L38.3001 17.2074L29.4401 17.1874V30.7774C26.9701 31.5074 24.6801 32.4774 22.5601 33.7074C22.0401 34.0074 21.5501 34.3174 21.0801 34.6274C18.1901 32.6874 16.2801 30.5174 15.3701 28.1174C14.9301 27.0174 14.7201 25.8574 14.7101 24.6574C14.6901 20.3874 17.3101 16.7374 22.5601 13.7074C27.8201 10.6674 34.1401 9.15744 41.5201 9.17744C48.9101 9.18744 55.2401 10.7174 60.5301 13.7774C65.8201 16.8274 68.4801 20.4874 68.5001 24.7474Z" stroke="#229EFF" stroke-linejoin="round"/><path d="M35.8195 46.6074V66.6074C32.0195 66.3574 28.2594 65.7274 24.5294 64.7074C20.7894 63.6774 17.3794 62.2774 14.2694 60.4874C6.58944 56.0474 2.71945 50.7574 2.68945 44.6274V24.6274C2.70945 28.2374 4.05946 31.5574 6.72946 34.5774C8.58946 36.6974 11.1094 38.6574 14.2694 40.4874C14.6294 40.6974 14.9994 40.8974 15.3694 41.0974C18.1794 42.5974 21.2294 43.7974 24.5294 44.7074C26.1994 45.1674 27.8795 45.5474 29.5695 45.8374C29.5795 45.8374 29.5994 45.8374 29.6094 45.8374C31.6694 46.2074 33.7395 46.4574 35.8195 46.5974V46.6074Z" stroke="#229EFF" stroke-linejoin="round"/><path d="M35.9893 77.2974V97.2974L35.8193 66.6074V46.6074L35.8293 48.9374L35.8893 59.8774L35.9893 77.2974Z" stroke="#229EFF" stroke-linejoin="round"/><path d="M80.5293 24.8476V24.7676" stroke="#229EFF" stroke-linejoin="round"/></svg>