<svg width="24" height="24" viewBox="0 0 111 85" fill="none" xmlns="http://www.w3.org/2000/svg" stroke-width="1px" stroke-linecap="round" stroke-linejoin="round">
    <path d="M89.0009 40.2506L81.6509 42.0106C79.5209 39.0006 78.2209 36.3306 77.7409 34.0206C77.2609 31.7106 77.571 29.0806 78.681 26.1406L83.321 26.7406L86.321 27.1306C86.231 27.3606 86.151 27.5906 86.081 27.8106C85.361 30.0006 85.1709 31.9006 85.5209 33.5206C85.9009 35.3206 87.0609 37.5606 89.0009 40.2506Z" stroke="currentColor" stroke-linejoin="round"/>
    <path d="M104.311 21.1606C101.711 17.4106 97.831 14.0405 92.661 11.0605C87.491 8.07055 81.661 5.83057 75.161 4.33057C68.661 2.83057 62.0609 2.07055 55.3509 2.06055C48.6509 2.06055 42.051 2.78056 35.571 4.26056C29.091 5.73056 23.281 7.96056 18.141 10.9206C13.001 13.8906 9.16094 17.2406 6.60094 20.9806C4.04094 24.7306 2.78102 28.5306 2.80102 32.4106C2.82102 35.7606 3.80097 39.0606 5.75097 42.3206C6.05097 42.8306 6.37106 43.3405 6.72106 43.8405C9.32106 47.5905 13.211 50.9606 18.381 53.9406C19.121 54.3706 19.881 54.7906 20.661 55.1906C25.241 57.5606 30.321 59.3906 35.881 60.6706C38.421 61.2606 40.981 61.7306 43.551 62.0806C47.561 62.6506 51.601 62.9306 55.681 62.9406C57.651 62.9406 59.611 62.8805 61.551 62.7505C64.321 62.5805 67.071 62.2706 69.801 61.8306C71.701 61.5306 73.5811 61.1705 75.4611 60.7405C77.0311 60.3805 78.561 59.9806 80.051 59.5406C82.451 58.8206 84.751 58.0006 86.951 57.0406C89.021 56.1606 91.001 55.1706 92.891 54.0806C98.031 51.1106 101.881 47.7605 104.431 44.0205C104.741 43.5705 105.021 43.1305 105.291 42.6805C107.261 39.4005 108.241 36.0706 108.241 32.6906V32.6006C108.221 28.7206 106.911 24.9106 104.311 21.1606ZM42.001 13.1205C46.791 14.2405 50.751 14.9205 53.891 15.1505C57.021 15.3905 60.671 15.2506 64.831 14.7206L66.531 19.1306C65.961 19.2006 65.391 19.2706 64.831 19.3306C60.421 19.8106 56.4211 19.9306 52.8411 19.7006C49.6011 19.4906 45.991 18.9506 42.001 18.0706C41.011 17.8606 39.991 17.6206 38.951 17.3606L42.001 13.1205ZM63.991 49.1906C63.271 49.6106 62.541 49.9906 61.791 50.3306C61.291 50.5606 60.791 50.7806 60.281 50.9706C57.741 51.9506 55.101 52.5006 52.371 52.6106C52.241 52.6106 52.1109 52.6205 51.9809 52.6205C48.0409 52.7305 44.561 51.9106 41.551 50.1706C40.821 49.7506 40.201 49.2906 39.691 48.7906C39.461 48.5706 39.251 48.3305 39.071 48.0905C38.471 47.3205 37.961 46.5206 37.521 45.7006C37.251 45.1506 36.981 44.7106 36.711 44.3806C36.481 44.1006 36.251 43.8906 36.021 43.7606C35.581 43.5106 35.0709 43.3206 34.4809 43.1906C33.8909 43.0606 33.281 42.9706 32.661 42.8906C31.241 42.6406 29.861 42.3405 28.531 42.0005H28.511C27.171 41.6505 25.981 41.1806 24.921 40.5706C21.801 38.7706 20.391 36.6906 20.691 34.3206C20.991 31.9506 22.961 29.7206 26.621 27.6106C31.071 25.0406 36.051 23.9406 41.551 24.3306C41.701 24.3406 41.851 24.3505 42.001 24.3705C47.361 24.8105 52.8509 26.6705 58.4809 29.9305L59.9809 30.7906C61.8709 31.8806 63.491 32.9606 64.831 34.0406C67.611 36.2506 69.221 38.4306 69.671 40.5706C70.341 43.7406 68.451 46.6106 63.991 49.1906ZM81.651 42.0106C79.521 39.0006 78.221 36.3305 77.741 34.0205C77.261 31.7105 77.571 29.0806 78.681 26.1406L83.321 26.7405L86.321 27.1306C86.231 27.3606 86.151 27.5905 86.081 27.8105C85.361 30.0005 85.171 31.9005 85.521 33.5205C85.901 35.3205 87.061 37.5605 89.001 40.2505L81.651 42.0106Z" stroke="currentColor" stroke-linejoin="round"/>
    <path d="M42.0011 13.1201V18.0701C41.0111 17.8601 39.9912 17.6201 38.9512 17.3601L42.0011 13.1201Z" stroke="currentColor" stroke-linejoin="round"/>
    <path d="M64.8311 14.7201V19.3301C60.4211 19.8101 56.4211 19.9301 52.8411 19.7001C49.6011 19.4901 45.991 18.9501 42.001 18.0701V13.1201C46.791 14.2401 50.751 14.9201 53.891 15.1501C57.021 15.3901 60.6711 15.2501 64.8311 14.7201Z" stroke="currentColor" stroke-linejoin="round"/>
    <path d="M66.531 19.1307C65.961 19.2007 65.3911 19.2707 64.8311 19.3307V14.7207L66.531 19.1307Z" stroke="currentColor" stroke-linejoin="round"/>
    <path d="M61.7913 41.5603V50.3304C61.2913 50.5604 60.7912 50.7803 60.2812 50.9703C57.7413 51.9503 55.1012 52.5004 52.3712 52.6104C52.2412 52.6104 52.1112 52.6203 51.9812 52.6203C48.0412 52.7303 44.5613 51.9103 41.5513 50.1703C40.8213 49.7503 40.2013 49.2903 39.6913 48.7903C39.4613 48.5703 39.2513 48.3303 39.0713 48.0903C38.4713 47.3203 37.9612 46.5203 37.5212 45.7003C37.2512 45.1503 36.9813 44.7103 36.7113 44.3803C36.4813 44.1003 36.2512 43.8903 36.0212 43.7603C35.5812 43.5103 35.0712 43.3203 34.4812 43.1903C33.8912 43.0603 33.2813 42.9704 32.6613 42.8904C31.2413 42.6404 29.8613 42.3403 28.5312 42.0003V34.8604C28.5312 35.7704 29.1512 36.5803 30.3912 37.3003C30.9612 37.6203 31.6112 37.8703 32.3512 38.0503C33.1012 38.2303 33.8813 38.3803 34.6913 38.4903C35.9913 38.6703 37.2313 38.9203 38.4213 39.2503C39.6013 39.5703 40.6513 40.0003 41.5913 40.5403C42.5213 41.0803 43.2613 41.6803 43.7913 42.3503C44.3213 43.0103 44.7413 43.7203 45.0613 44.4703C45.1213 44.5903 45.1812 44.7003 45.2412 44.8103C45.8112 45.8503 46.4412 46.5603 47.1212 46.9503C48.6112 47.8203 50.3413 48.1503 52.2913 47.9603C52.8813 47.9003 53.4713 47.8004 54.0713 47.6404C55.4613 47.3104 56.8613 46.7303 58.2913 45.9003C60.6213 44.5503 61.7913 43.1003 61.7913 41.5603Z" stroke="currentColor" stroke-linejoin="round"/>
    <path d="M63.9908 49.1905C63.2708 49.6105 62.5408 49.9905 61.7908 50.3305V41.4605C61.7808 41.1505 61.7208 40.8405 61.6208 40.5205C61.5308 40.2305 61.3909 39.9505 61.2209 39.6505C60.4409 38.3005 58.8408 36.8405 56.4308 35.2505C55.7808 34.8205 55.0808 34.3905 54.3108 33.9505L52.9108 33.1405C48.8908 30.8205 45.2608 29.4305 42.0008 28.9705C41.8208 28.9405 41.6508 28.9205 41.4808 28.9005C38.0908 28.5205 34.9808 29.1505 32.1308 30.7905C30.0908 31.9705 28.9108 33.1305 28.6108 34.2805C28.5608 34.4805 28.5308 34.6705 28.5308 34.8605V42.0005H28.5108C27.1708 41.6505 25.9808 41.1805 24.9208 40.5705C21.8008 38.7705 20.3908 36.6905 20.6908 34.3205C20.9908 31.9505 22.9608 29.7205 26.6208 27.6105C31.0708 25.0405 36.0508 23.9405 41.5508 24.3305C41.7008 24.3405 41.8508 24.3505 42.0008 24.3705C47.3608 24.8105 52.8508 26.6705 58.4808 29.9305L59.9808 30.7905C61.8708 31.8805 63.4909 32.9605 64.8309 34.0405C67.6109 36.2505 69.2208 38.4305 69.6708 40.5705C70.3408 43.7405 68.4508 46.6105 63.9908 49.1905Z" stroke="currentColor" stroke-linejoin="round"/>
    <path d="M61.7913 41.4602V41.5602C61.7913 43.1002 60.6213 44.5502 58.2913 45.9002C56.8613 46.7302 55.4613 47.3102 54.0713 47.6402C53.4713 47.8002 52.8813 47.9002 52.2913 47.9602C50.3413 48.1502 48.6112 47.8202 47.1212 46.9502C46.4412 46.5602 45.8112 45.8502 45.2412 44.8102C45.1812 44.7002 45.1213 44.5902 45.0613 44.4702C44.7413 43.7202 44.3213 43.0102 43.7913 42.3502C43.2613 41.6802 42.5213 41.0802 41.5913 40.5402C40.6513 40.0002 39.6013 39.5702 38.4213 39.2502C37.2313 38.9202 35.9913 38.6702 34.6913 38.4902C33.8813 38.3802 33.1012 38.2302 32.3512 38.0502C31.6112 37.8702 30.9612 37.6202 30.3912 37.3002C29.1512 36.5802 28.5312 35.7702 28.5312 34.8602C28.5312 34.6702 28.5612 34.4802 28.6112 34.2802C28.9112 33.1302 30.0912 31.9702 32.1312 30.7902C34.9812 29.1502 38.0912 28.5202 41.4812 28.9002C41.6512 28.9202 41.8212 28.9402 42.0012 28.9702C45.2612 29.4302 48.8913 30.8202 52.9113 33.1402L54.3113 33.9502C55.0813 34.3902 55.7813 34.8202 56.4313 35.2502C58.8413 36.8402 60.4413 38.3002 61.2213 39.6502C61.3913 39.9502 61.5312 40.2302 61.6212 40.5202C61.7212 40.8402 61.7813 41.1502 61.7913 41.4602Z" stroke="currentColor" stroke-linejoin="round"/>
    <path d="M108.241 32.6902V52.6002C108.261 56.4702 106.991 60.2801 104.431 64.0201C101.881 67.7601 98.0307 71.1102 92.8907 74.0802C87.7507 77.0502 81.9408 79.2701 75.4608 80.7401C68.9808 82.2201 62.3908 82.9502 55.6808 82.9402C48.9808 82.9402 42.3707 82.1702 35.8807 80.6702C29.3807 79.1702 23.5507 76.9302 18.3807 73.9402C13.2107 70.9602 9.32083 67.5901 6.72083 63.8401C4.13083 60.0901 2.82078 56.2802 2.80078 52.4102V32.4102C2.82078 35.7602 3.80073 39.0602 5.75073 42.3202C6.05073 42.8302 6.37083 43.3401 6.72083 43.8401C9.32083 47.5901 13.2107 50.9602 18.3807 53.9402C19.1207 54.3702 19.8808 54.7902 20.6608 55.1902C25.2408 57.5602 30.3207 59.3902 35.8807 60.6702C38.4207 61.2602 40.9808 61.7302 43.5508 62.0802C47.5608 62.6502 51.6008 62.9302 55.6808 62.9402C57.6508 62.9402 59.6108 62.8802 61.5508 62.7502C64.3208 62.5802 67.0708 62.2702 69.8008 61.8302C71.7008 61.5302 73.5808 61.1701 75.4608 60.7401C77.0308 60.3801 78.5608 59.9802 80.0508 59.5402C82.4508 58.8202 84.7508 58.0002 86.9508 57.0402C89.0208 56.1602 91.0007 55.1702 92.8907 54.0802C98.0307 51.1102 101.881 47.7601 104.431 44.0201C104.741 43.5701 105.021 43.1301 105.291 42.6801C107.261 39.4001 108.241 36.0702 108.241 32.6902Z" stroke="currentColor" stroke-linejoin="round"/>
</svg>