<svg width="24" height="24" viewBox="0 0 127 88" fill="none" xmlns="http://www.w3.org/2000/svg" stroke-width="1px" stroke-linecap="round" stroke-linejoin="round">
    <path d="M80.2209 29.6901V36.1701C79.6909 35.8101 79.2709 35.4101 78.9509 34.9801C78.5409 34.4201 78.2809 33.8501 78.1809 33.2601L67.9209 31.2901V27.3401L75.281 28.7501L80.2209 29.6901Z" stroke="currentColor" stroke-linejoin="round"/>
    <path d="M76.291 65.56V85.56L27.291 57.27V37.27L32.3611 40.19L61.241 56.87L62.8711 57.81L76.291 65.56Z" stroke="currentColor" stroke-linejoin="round"/>
    <path d="M63.731 2.08008L2.87109 37.2201L27.291 37.2701L32.3611 40.1901L61.241 56.8701L62.8711 57.8101L76.291 65.5601L76.571 65.4001L90.071 57.6101L94.8311 54.8501L107.671 47.4401L124.991 37.4401L63.731 2.08008ZM92.9209 36.5001C92.1709 36.9301 91.3509 37.2701 90.4609 37.5101C89.3609 37.8001 88.1511 37.9501 86.8311 37.9501C84.4411 37.9501 82.4009 37.4501 80.7109 36.4801C80.5409 36.3801 80.3709 36.2801 80.2209 36.1701C79.6909 35.8101 79.2709 35.4101 78.9509 34.9801C78.5409 34.4201 78.2809 33.8501 78.1809 33.2601L67.9209 31.2901L65.8811 30.9001L64.9609 31.4301L67.9209 36.5701L69.051 38.5301C70.061 38.5901 71.061 38.7401 72.031 38.9801C72.991 39.2101 73.8611 39.5501 74.6311 40.0001C76.3111 40.9701 77.1609 42.1401 77.1609 43.5301C77.1709 44.9101 76.3409 46.08 74.6609 47.05C73.8409 47.52 72.9409 47.8701 71.9509 48.1101C71.0609 48.3301 70.091 48.4501 69.051 48.4801C68.891 48.4901 68.731 48.4901 68.571 48.4901C67.261 48.4901 66.0509 48.3401 64.9609 48.0401C64.2109 47.8501 63.5211 47.5801 62.8711 47.2401C62.7311 47.1801 62.5909 47.1001 62.4509 47.0201C60.7709 46.0501 59.9209 44.8801 59.9109 43.4901C59.9109 43.2101 59.941 42.9401 60.031 42.6701C60.281 41.6401 61.0809 40.7401 62.4109 39.9701L62.8711 39.7101L58.791 32.6101C57.771 32.5501 56.781 32.4001 55.811 32.1601C54.841 31.9301 53.9709 31.5901 53.2109 31.1401C52.2709 30.6001 51.5909 29.9901 51.1809 29.3201C50.8409 28.7901 50.6709 28.2201 50.6709 27.6101C50.6609 26.2301 51.4909 25.0601 53.1709 24.0901C54.8409 23.1301 56.881 22.6501 59.271 22.6501C60.331 22.6501 61.311 22.7501 62.231 22.9501C63.391 23.1801 64.4411 23.5701 65.3811 24.1201C66.1511 24.5601 66.7311 25.0601 67.1411 25.6201C67.5511 26.1801 67.8109 26.7501 67.9209 27.3401L75.281 28.7501L80.2209 29.6901L80.6709 29.4301C82.3509 28.4601 84.381 27.9801 86.771 27.9901C89.161 27.9901 91.2011 28.4801 92.8911 29.4501C94.5711 30.4301 95.4209 31.6001 95.4209 32.9801C95.4309 34.3601 94.6009 35.5401 92.9209 36.5001Z" stroke="currentColor" stroke-linejoin="round"/>
    <path d="M77.1606 43.53C77.1706 44.91 76.3406 46.08 74.6606 47.05C73.8406 47.52 72.9407 47.87 71.9507 48.11C71.0607 48.33 70.0908 48.45 69.0508 48.48V38.53C70.0608 38.59 71.0608 38.74 72.0308 38.98C72.9908 39.21 73.8609 39.55 74.6309 40C76.3109 40.97 77.1606 42.14 77.1606 43.53Z" stroke="currentColor" stroke-linejoin="round"/>
    <path d="M69.051 38.5301V48.4801C68.891 48.4901 68.731 48.4901 68.571 48.4901C67.261 48.4901 66.0509 48.3401 64.9609 48.0401V31.4301L67.9209 36.5701L69.051 38.5301Z" stroke="currentColor" stroke-linejoin="round"/>
    <path d="M27.291 37.2701V57.2701L2.87109 57.2201V37.2201L27.291 37.2701Z" stroke="currentColor" stroke-linejoin="round"/>
    <path d="M67.921 27.3401V31.2902L65.8812 30.9001L64.961 31.4301V43.9001C64.311 43.5501 63.6212 43.2901 62.8712 43.0901V39.7101L58.7911 32.6102C57.7711 32.5502 56.7811 32.4002 55.8111 32.1602C54.8411 31.9302 53.971 31.5901 53.211 31.1401C52.271 30.6001 51.591 29.9901 51.181 29.3201C50.841 28.7901 50.671 28.2202 50.671 27.6102C50.661 26.2302 51.491 25.0601 53.171 24.0901C54.841 23.1301 56.8811 22.6501 59.2711 22.6501C60.3311 22.6501 61.311 22.7501 62.231 22.9501C63.391 23.1801 64.4412 23.5701 65.3812 24.1201C66.1512 24.5601 66.7312 25.0601 67.1412 25.6201C67.5512 26.1801 67.811 26.7501 67.921 27.3401Z" stroke="currentColor" stroke-linejoin="round"/>
    <path d="M62.8713 39.7101V47.2401C62.7313 47.1801 62.5912 47.1001 62.4512 47.0201C60.7712 46.0501 59.9211 44.8801 59.9111 43.4901C59.9111 43.2101 59.9412 42.9401 60.0312 42.6701C60.2812 41.6401 61.0811 40.7401 62.4111 39.9701L62.8713 39.7101Z" stroke="currentColor" stroke-linejoin="round"/>
    <path d="M95.4207 32.9801C95.4307 34.3601 94.6007 35.54 92.9207 36.5C92.1707 36.93 91.3507 37.27 90.4607 37.51C89.3607 37.8 88.1508 37.95 86.8308 37.95C84.4408 37.95 82.4007 37.4501 80.7107 36.4801C80.5407 36.3801 80.3707 36.2801 80.2207 36.1701V29.69L80.6707 29.43C82.3507 28.46 84.3808 27.98 86.7708 27.99C89.1608 27.99 91.2009 28.48 92.8909 29.45C94.5709 30.43 95.4207 31.6001 95.4207 32.9801Z" stroke="currentColor" stroke-linejoin="round"/>
    <path d="M124.991 37.4401V57.4401L76.291 85.5601V65.7501C76.401 65.6401 76.491 65.5201 76.571 65.4001L90.071 57.6101L94.8311 54.8501L107.671 47.4401L124.991 37.4401Z" stroke="currentColor" stroke-linejoin="round"/>
</svg>