<svg width="48" height="48" viewBox="0 0 98 80" fill="none" xmlns="http://www.w3.org/2000/svg" stroke-width="1px" stroke-linecap="round" stroke-linejoin="round"><path d="M58.4792 49.6V68.9299C57.8592 69.6999 57.1293 70.42 56.2893 71.11C55.4493 71.79 54.4393 72.4799 53.2593 73.1599C47.2593 76.6299 40.4594 78.06 32.8594 77.46C25.2694 76.86 18.4893 74.8399 12.5193 71.3899C7.18929 68.3099 4.01929 64.67 3.01929 60.47C2.79929 59.55 2.68945 58.64 2.68945 57.72V37.72C2.68945 38.64 2.79929 39.55 3.01929 40.47C3.67929 43.26 5.30939 45.8 7.87939 48.09C9.17939 49.26 10.7293 50.3599 12.5193 51.3899C14.2593 52.3899 16.0594 53.2699 17.9294 54.0299C22.4994 55.8899 27.4794 57.03 32.8594 57.46C39.2894 57.97 45.1494 57.02 50.4294 54.62C51.3894 54.18 52.3393 53.6899 53.2593 53.1599C54.4393 52.4799 55.4493 51.79 56.2893 51.11C56.9593 50.56 57.5694 49.9799 58.0994 49.3799L58.4792 49.6Z" stroke="#229EFF" stroke-linejoin="round"/><path d="M87.4897 56.0099V76.0099L58.4797 59.2599V48.9299L46.6899 42.12C46.6899 42.34 46.6899 42.5599 46.6499 42.7699C46.5499 43.5099 46.2899 44.2199 45.8599 44.9099C45.3099 45.7999 44.3999 46.6 43.1499 47.33C42.1799 47.89 41.1599 48.3399 40.1099 48.6599L20.1799 37.1499V30.9199L6.93994 27.87C6.61994 28.24 6.31979 28.61 6.02979 28.98L3.25977 27.3799V7.37988L42.1099 29.8099L42.7197 30.1599L52.2197 35.6499L52.8799 36.0299L72.7498 47.5L73.4399 47.8999L76.3699 49.59L87.4897 56.0099Z" stroke="#229EFF" stroke-linejoin="round"/><path d="M88.9993 24.18C88.9993 26.6 88.0394 29.1299 86.0994 31.7699L72.7493 28.7799C74.1393 27.2399 74.7794 25.52 74.6694 23.6C74.5494 21.68 72.9494 19.83 69.8594 18.05C66.9794 16.38 63.9493 15.3799 60.7693 15.0299C57.5793 14.6799 54.7292 15.11 52.2192 16.32L42.1094 10.48C47.0594 7.78001 53.0694 6.51998 60.1394 6.69998C67.2094 6.86998 73.7292 8.68002 79.6992 12.12C84.3292 14.8 87.2492 17.79 88.4592 21.11C88.8192 22.11 88.9993 23.14 88.9993 24.18Z" stroke="#229EFF" stroke-linejoin="round"/><path d="M58.4792 48.9298C58.3592 49.0798 58.2294 49.2298 58.0994 49.3798C57.5694 49.9798 56.9593 50.5599 56.2893 51.1099C55.4493 51.7899 54.4393 52.4798 53.2593 53.1598C52.3393 53.6898 51.3894 54.1799 50.4294 54.6199C45.1494 57.0199 39.2894 57.9698 32.8594 57.4598C27.4794 57.0298 22.4994 55.8898 17.9294 54.0298C16.0594 53.2698 14.2593 52.3898 12.5193 51.3898C10.7293 50.3598 9.17939 49.2598 7.87939 48.0898C5.30939 45.7998 3.67929 43.2598 3.01929 40.4698C2.79929 39.5498 2.68945 38.6398 2.68945 37.7198C2.68945 34.7998 3.8093 31.8999 6.0293 28.9799C6.3193 28.6099 6.61945 28.2399 6.93945 27.8699L20.1794 30.9198C18.7594 32.4198 17.8094 33.9498 17.3394 35.5098C17.0194 36.5398 16.9193 37.5898 17.0193 38.6398C17.2093 40.5498 18.2594 42.3198 20.1794 43.9298C20.9194 44.5498 21.7793 45.1498 22.7793 45.7198C25.7293 47.4198 29.0894 48.5498 32.8694 49.1298C35.4494 49.5198 37.8594 49.3598 40.1094 48.6598C41.1594 48.3398 42.1794 47.8898 43.1494 47.3298C44.3994 46.5998 45.3094 45.7998 45.8594 44.9098C46.2894 44.2198 46.5494 43.5098 46.6494 42.7698C46.6794 42.5598 46.6895 42.3399 46.6895 42.1199L58.4792 48.9298Z" stroke="#229EFF" stroke-linejoin="round"/><path d="M95.8599 51.1798L87.4897 56.0098L76.3699 49.5898L73.4399 47.8998L72.7498 47.4999L52.8799 36.0298L52.2197 35.6498L42.7197 30.1598L42.1099 29.8098L3.25977 7.37976L11.6299 2.5498L42.1099 20.1498L52.2197 25.9799L53.8899 26.9498L72.7498 37.8398L86.0999 45.5498L88.5798 46.9799L95.8599 51.1798Z" stroke="#229EFF" stroke-linejoin="round"/><path d="M95.8584 51.1797V71.1797L87.4883 76.0096V56.0096L95.8584 51.1797Z" stroke="#229EFF" stroke-linejoin="round"/><path d="M20.1798 30.9199V43.9299C18.2598 42.3199 17.2096 40.5499 17.0196 38.6399C16.9196 37.5899 17.0197 36.5399 17.3397 35.5099C17.8097 33.9499 18.7598 32.4199 20.1798 30.9199Z" stroke="#229EFF" stroke-linejoin="round"/><path d="M2.68945 58.9297V57.7197" stroke="#229EFF" stroke-linejoin="round"/><path d="M2.68945 37.72V37.3999" stroke="#229EFF" stroke-linejoin="round"/><path d="M52.2192 16.3199V25.98L42.1094 20.1499V10.48L52.2192 16.3199Z" stroke="#229EFF" stroke-linejoin="round"/><path d="M86.1001 31.7698V45.5498L72.75 37.8398V28.7798L86.1001 31.7698Z" stroke="#229EFF" stroke-linejoin="round"/><path d="M88.9995 24.1797V44.0897C88.9995 45.0397 88.8796 45.9997 88.5796 46.9797L86.0996 45.5497V31.7697C88.0396 29.1297 88.9995 26.5997 88.9995 24.1797Z" stroke="#229EFF" stroke-linejoin="round"/><path d="M72.7488 28.7799V37.84L53.8889 26.9499L52.2188 25.98V16.3199C54.7287 15.1099 57.5788 14.6799 60.7688 15.0299C63.9488 15.3799 66.9789 16.3799 69.8589 18.0499C72.9489 19.8299 74.5489 21.68 74.6689 23.6C74.7789 25.52 74.1388 27.2399 72.7488 28.7799Z" stroke="#229EFF" stroke-linejoin="round"/><path d="M89 24.1799V23.9399" stroke="#229EFF" stroke-linejoin="round"/></svg>