<svg width="48" height="48" viewBox="0 0 118 100" fill="none" xmlns="http://www.w3.org/2000/svg" stroke-width="1px"
     stroke-linecap="round" stroke-linejoin="round">
    <path d="M68.8701 76.1139L68.9101 82.2339V76.1039C68.9101 76.1039 68.8801 76.1139 68.8701 76.1139Z" stroke="currentColor" stroke-linejoin="round"/>
    <path d="M23.3201 52.0639V72.0639L2.08008 59.8039V39.8039L21.5201 51.0239L23.3201 52.0639Z" stroke="currentColor" stroke-linejoin="round"/>
    <path d="M44.4303 39.8739V56.2239L41.2703 58.0539L38.3603 59.7339V63.3839L23.3203 72.0639V52.0639L44.4303 39.8739Z" stroke="currentColor" stroke-linejoin="round"/>
    <path d="M58.9301 77.3939V97.3939L48.8701 97.3739V77.3739L58.8201 77.3939H58.9301Z" stroke="currentColor" stroke-linejoin="round"/>
    <path d="M71.3502 24.3439V44.3439C70.9402 44.2339 70.5102 44.1239 70.0702 44.0039C69.6302 43.8839 69.1702 43.7939 68.7002 43.7239V23.7239C69.1702 23.7939 69.6302 23.8839 70.0702 24.0039C70.5102 24.1239 70.9402 24.2339 71.3502 24.3439Z" stroke="currentColor" stroke-linejoin="round"/>
    <path d="M98.4402 40.0239V59.9739C98.4502 63.3039 97.4401 66.3239 95.4001 69.0339C93.3501 71.7439 90.5701 74.1239 87.0501 76.1539C84.4101 77.6739 81.5702 78.9239 78.5102 79.9039C75.4602 80.8839 72.2602 81.6639 68.9102 82.2339V62.2339C70.8502 61.9039 72.7401 61.5039 74.5801 61.0239C75.9201 60.6939 77.2302 60.3139 78.5102 59.9039C78.9302 59.7739 79.3402 59.6339 79.7502 59.4839C82.3402 58.5739 84.7701 57.4639 87.0501 56.1539C90.5701 54.1239 93.3501 51.7439 95.4001 49.0339C95.4601 48.9539 95.5201 48.8639 95.5801 48.7839C97.4901 46.1539 98.4402 43.2339 98.4402 40.0239Z" stroke="currentColor" stroke-linejoin="round"/>
    <path d="M115.03 40.0039V60.0039L107.99 64.0639V44.0639L115.03 40.0039Z" stroke="currentColor" stroke-linejoin="round"/>
    <path d="M78.7399 20.0739L71.3499 24.3439C70.9399 24.2339 70.5099 24.1239 70.0699 24.0039C69.6299 23.8839 69.1699 23.7939 68.6999 23.7239L68.6699 17.6139C70.4299 17.8839 72.1399 18.2239 73.7899 18.6439C75.4399 19.0539 77.0899 19.5239 78.7399 20.0739Z" stroke="currentColor" stroke-linejoin="round"/>
    <path d="M107.99 44.0639L98.2501 38.4439L98.4401 39.9739V40.0239C98.4401 43.2339 97.4901 46.1539 95.5801 48.7839C95.5201 48.8639 95.4601 48.9539 95.4001 49.0339C93.3501 51.7439 90.5701 54.1239 87.0501 56.1539C84.7701 57.4639 82.3401 58.5739 79.7501 59.4839C79.3401 59.6339 78.9301 59.7739 78.5101 59.9039C77.2301 60.3139 75.9201 60.6939 74.5801 61.0239C72.7401 61.5039 70.8501 61.9039 68.9101 62.2339L68.8701 56.1139C70.1701 55.8439 71.4401 55.5139 72.6701 55.1339C73.3901 54.9239 74.0901 54.6939 74.7801 54.4439C76.5701 53.8039 78.2301 53.0439 79.7501 52.1839C79.8301 52.1439 79.9001 52.1039 79.9701 52.0639C82.6101 50.5439 84.6701 48.7739 86.1601 46.7539C87.6501 44.7339 88.3901 42.5039 88.3801 40.0539V39.0439L79.7501 44.0139L75.8401 41.7539L72.6701 39.9239L74.5501 38.8439L78.7401 36.4239L93.7801 27.7439L115.03 40.0039L107.99 44.0639Z" stroke="currentColor" stroke-linejoin="round"/>
    <path d="M78.7396 20.0739V36.4239L74.5496 38.8439L72.6696 39.9239V43.5839L71.3496 44.3439V24.3439L78.7396 20.0739Z" stroke="currentColor" stroke-linejoin="round"/>
    <path d="M107.99 44.0639V64.0639L98.44 58.5539V39.9739L98.25 38.4439L107.99 44.0639Z" stroke="currentColor" stroke-linejoin="round"/>
    <path d="M88.38 40.0539C88.39 42.5039 87.65 44.7339 86.16 46.7539C84.67 48.7739 82.61 50.5439 79.97 52.0639C79.9 52.1039 79.83 52.1439 79.75 52.1839V44.0139L88.37 39.0439V40.0539H88.38Z" stroke="currentColor" stroke-linejoin="round"/>
    <path d="M79.7499 44.0139V52.1839C78.2299 53.0439 76.5699 53.8039 74.7799 54.4439C74.0899 54.6939 73.3899 54.9239 72.6699 55.1339V39.9239L75.8399 41.7539L79.7499 44.0139Z" stroke="currentColor" stroke-linejoin="round"/>
    <path d="M48.7599 56.1839C48.7599 56.1839 48.6899 56.1739 48.6499 56.1639L48.5799 43.5839C47.1499 43.9039 45.7699 44.2639 44.4299 44.6739V39.8739L42.4899 38.7539L37.3499 35.7939L28.7299 40.7639V39.7439C28.7099 37.3039 29.4499 35.0739 30.9399 33.0539C32.4299 31.0339 34.4899 29.2639 37.1299 27.7439C38.7699 26.7939 40.5599 25.9839 42.4999 25.3039C44.4099 24.6439 46.3899 24.0739 48.4699 23.6139C48.5099 23.6039 48.5399 23.5939 48.5799 23.5839L48.7599 56.1839Z" stroke="currentColor" stroke-linejoin="round"/>
    <path d="M48.8704 77.3739V97.3739L48.7904 82.1939C47.0204 81.9239 45.2704 81.5839 43.5304 81.1939C41.8004 80.7939 40.0704 80.3139 38.3604 79.7339V59.7339C39.7504 60.2039 41.1604 60.6139 42.5604 60.9539C42.8804 61.0439 43.2104 61.1239 43.5304 61.1939C45.2304 61.5739 46.9504 61.9139 48.6804 62.1739C48.7204 62.1839 48.7504 62.1839 48.7904 62.1939L48.8704 77.3739Z" stroke="currentColor" stroke-linejoin="round"/>
    <path d="M68.6999 23.7239V43.7239L68.6699 37.6139V17.6139L68.6999 23.7239Z" stroke="currentColor" stroke-linejoin="round"/>
    <path d="M58.9301 77.3939H58.8201L48.8701 77.3739L48.7901 62.1939C48.7901 62.1939 48.7201 62.1939 48.6801 62.1739C46.9501 61.9139 45.2301 61.5739 43.5301 61.1939C43.2101 61.1239 42.8801 61.0439 42.5601 60.9539C41.1601 60.6139 39.7501 60.2039 38.3601 59.7339L41.2701 58.0539L44.4301 56.2239L45.7501 55.4639C46.2201 55.6039 46.7101 55.7339 47.2101 55.8539C47.6801 55.9639 48.1601 56.0639 48.6501 56.1639C48.6901 56.1739 48.7201 56.1739 48.7601 56.1839L48.5801 23.5839C48.5801 23.5839 48.5101 23.6039 48.4701 23.6139C46.3901 24.0739 44.4101 24.6439 42.5001 25.3039C40.5601 25.9839 38.7701 26.7939 37.1301 27.7439C34.4901 29.2639 32.4301 31.0339 30.9401 33.0539C29.4501 35.0739 28.7101 37.3039 28.7201 39.7439V40.7639L37.3501 35.7939L42.4901 38.7539L44.4301 39.8739L23.3201 52.0639L21.5201 51.0239L2.08008 39.8039L9.11008 35.7339L18.8501 41.3639L18.6701 39.8339C18.6501 36.5039 19.6601 33.4839 21.7001 30.7739C23.7501 28.0539 26.5301 25.6839 30.0501 23.6539C32.6901 22.1339 35.5601 20.8639 38.6801 19.8539C41.7901 18.8339 45.0801 18.0739 48.5501 17.5739L48.4601 2.39392L58.5201 2.41392L58.9301 77.3939Z" stroke="currentColor" stroke-linejoin="round"/>
    <path d="M68.9101 62.2339V76.1039C68.9101 76.1039 68.8801 76.1139 68.8701 76.1139V56.1139L68.9101 62.2339Z" stroke="currentColor" stroke-linejoin="round"/>
    <path d="M48.5801 23.5839V43.5839" stroke="currentColor" stroke-linejoin="round"/>
    <path d="M48.79 62.1939V82.1939" stroke="currentColor" stroke-linejoin="round"/>
</svg>