<svg width="24" height="24" viewBox="0 0 128 96" fill="none" xmlns="http://www.w3.org/2000/svg" stroke-width="1px" stroke-linecap="round" stroke-linejoin="round">
    <path d="M74.2109 68.1799H74.4209V68.0599L74.2109 68.1799Z" stroke="currentColor" stroke-linejoin="round"/>
    <path d="M105.292 42.29L101.652 44.39L87.9618 52.29L74.4118 44.46L74.3318 30.35L64.7118 30.33L64.6818 38.6L57.0918 34.22V14.46L105.292 42.29Z" stroke="currentColor" stroke-linejoin="round"/>
    <path d="M74.431 48.18V60.11L74.381 60.14L64.221 66L43.541 54.05V48.13H46.561L74.431 48.18Z" stroke="currentColor" stroke-linejoin="round"/>
    <path d="M26.25 32.22V32.26L26.29 32.24L26.25 32.22Z" stroke="currentColor" stroke-linejoin="round"/>
    <path d="M125.861 38.37L108.541 48.37L94.8608 56.27L74.4308 68.06L74.2108 68.18L64.2708 73.92L54.2708 68.15L44.6308 62.58L43.5408 61.95L26.2908 51.99L2.30078 38.14L19.4108 28.27L26.2508 32.22V32.26L16.0308 38.17L26.2508 44.07L26.2908 44.09L26.4608 44.2L43.5408 54.05L64.2208 66L74.3808 60.14L74.4308 60.11L87.9608 52.29L101.651 44.39L105.291 42.29L57.0908 14.46L46.8208 20.39L39.9408 16.41L63.8908 2.58997L125.861 38.37Z" stroke="currentColor" stroke-linejoin="round"/>
    <path d="M125.861 38.37V58.37L64.2715 93.92V73.92L74.2115 68.18H74.4315V68.06L94.8615 56.27L108.541 48.37L125.861 38.37Z" stroke="currentColor" stroke-linejoin="round"/>
    <path d="M26.2513 32.26V44.07L16.0312 38.17L26.2513 32.26Z" stroke="currentColor" stroke-linejoin="round"/>
    <path d="M74.43 48.18L46.56 48.13H43.54L43.53 46.39L43.51 42.58L57.84 42.55L50.45 38.29L46.82 36.19L43.57 34.32L39.94 32.22L26.25 24.32L33.09 20.36L39.94 24.32L46.82 28.29L50.42 30.36L57.09 34.22L64.68 38.6L64.71 30.33L74.33 30.35L74.41 44.46L74.43 48.18Z" stroke="currentColor" stroke-linejoin="round"/>
    <path d="M43.53 46.39L43.54 48.1299V54.0499L26.46 44.2L26.29 44.0899V32.2399L26.25 32.2199V24.3199L39.94 32.2199L43.57 34.3199L46.82 36.1899L50.45 38.2899L57.84 42.5499L43.51 42.5799L43.53 46.39Z" stroke="currentColor" stroke-linejoin="round"/>
    <path d="M46.8214 20.39V28.29L39.9414 24.32V16.41L46.8214 20.39Z" stroke="currentColor" stroke-linejoin="round"/>
    <path d="M57.0903 14.46V34.22L50.4203 30.36L46.8203 28.29V20.39L57.0903 14.46Z" stroke="currentColor" stroke-linejoin="round"/>
    <path d="M64.2708 73.92V93.92L2.30078 58.14V38.14L26.2908 51.99L43.5408 61.95L44.6308 62.58L54.2708 68.15L64.2708 73.92Z" stroke="currentColor" stroke-linejoin="round"/>
</svg>