<svg width="48" height="48" viewBox="0 0 132 99" fill="none" xmlns="http://www.w3.org/2000/svg" stroke-width="1px" stroke-linecap="round" stroke-linejoin="round"><path d="M58.73 2.81006L2.26001 35.4201L19.58 45.4201L26.68 49.5201L32.38 52.8101L35.93 54.8601L45.88 60.6001L48.37 62.0401L55.1 65.9201L69.68 74.3401L73.3 76.4301L73.63 76.2401L76.74 74.4401L98.34 61.9701L112.46 53.8201L129.78 43.8201L58.73 2.81006ZM105.35 49.7101L91.23 57.8601L76.74 66.2301L73.25 68.2401L69.68 66.1801L60.05 60.6201L50.02 54.8301L48.37 53.8801L33.74 45.4301L32.38 44.6401L26.64 41.3301L16.42 35.4301L51.72 15.0501L108.55 47.8601L105.35 49.7101Z" stroke="#229EFF" stroke-linejoin="round"/><path d="M76.7399 58.04V66.24L73.2499 68.25L69.6799 66.19V62.11L76.7399 58.04Z" stroke="#229EFF" stroke-linejoin="round"/><path d="M69.68 62.1101V66.1901L60.05 60.6301L50.02 54.8301L48.37 53.8801V49.8101L50.66 51.1301L60.69 56.9201L60.71 56.9301L69.68 62.1101Z" stroke="#229EFF" stroke-linejoin="round"/><path d="M76.74 58.04L69.68 62.11L60.71 56.93L60.69 56.92L50.66 51.13L48.37 49.81L50.64 48.5L55.43 45.73L60.64 48.74L60.71 48.77L76.74 58.04Z" stroke="#229EFF" stroke-linejoin="round"/><path d="M60.71 40.6298V48.7698L60.64 48.7398L55.43 45.7298L50.64 48.4998L48.37 49.8098V53.8798L33.74 45.4398L32.38 44.6398V40.5698L42.13 40.5998L60.71 40.6298Z" stroke="#229EFF" stroke-linejoin="round"/><path d="M51.72 24.2101L50.62 24.2001L50.64 27.4801L37.87 34.8501L32.35 34.8601L32.37 38.0201L26.64 41.3301L16.42 35.4401L51.72 15.0601V24.2101Z" stroke="#229EFF" stroke-linejoin="round"/><path d="M108.55 47.8701L105.35 49.7101L91.23 57.8701L60.71 40.2501L60.62 24.2701L56.24 24.2501L51.72 24.2101V15.0601L108.55 47.8701Z" stroke="#229EFF" stroke-linejoin="round"/><path d="M60.71 40.2502V40.6302L42.13 40.6002L32.38 40.5702L32.37 38.0202L32.35 34.8602L37.87 34.8502L50.68 34.8302L50.64 27.4802L50.62 24.2002L51.72 24.2102L56.24 24.2502L60.62 24.2702L60.71 40.2502Z" stroke="#229EFF" stroke-linejoin="round"/><path d="M73.3 76.4299V96.4299L2.26001 55.4199V35.4199L19.58 45.4199L26.68 49.5099L32.38 52.8099L35.93 54.8599L45.88 60.5999L48.37 62.0399L55.1 65.9199L69.68 74.3299L73.3 76.4299Z" stroke="#229EFF" stroke-linejoin="round"/><path d="M129.78 43.8101V63.8101L73.3 96.4301V76.4301L73.6301 76.2401L76.7401 74.4401L98.3401 61.9601L112.46 53.8101L129.78 43.8101Z" stroke="#229EFF" stroke-linejoin="round"/></svg>