<svg width="48" height="48" viewBox="0 0 102 93" fill="none" xmlns="http://www.w3.org/2000/svg" stroke-width="1px" stroke-linecap="round" stroke-linejoin="round"><path d="M39.0901 31.923V51.923L3 51.863V31.863L15.52 31.8831L28.51 31.903L39.0901 31.923Z" stroke="#229EFF" stroke-linejoin="round"/><path d="M3.00049 31.0229V51.863L2.89062 31.0229V11.0229L3.00049 31.0229Z" stroke="#229EFF" stroke-linejoin="round"/><path d="M87.1011 24.2032C87.1111 25.3332 86.921 26.4232 86.541 27.4632C85.621 29.9932 83.5611 32.2432 80.3511 34.2232C80.1111 34.0632 79.8611 33.9132 79.6011 33.7632C74.6211 30.8932 68.601 29.4432 61.531 29.4332C54.461 29.4232 48.451 30.8432 43.511 33.7032L39.0911 36.2532V31.9231L39.061 26.1731V24.6332L24.6211 24.6032L43.511 13.7032C48.451 10.8432 54.461 9.42316 61.531 9.43316C68.601 9.44316 74.6211 10.8932 79.6011 13.7632C84.5811 16.6432 87.0811 20.1132 87.1011 24.2032Z" stroke="#229EFF" stroke-linejoin="round"/><path d="M99.9604 24.223V24.293C99.9604 27.943 98.6106 31.273 95.9006 34.283C94.1106 36.273 91.7305 38.123 88.7705 39.833L86.5605 41.103L34.7905 70.9931L25.7405 65.7631L79.7104 34.603C79.9304 34.473 80.1406 34.353 80.3506 34.223C83.5606 32.243 85.6205 29.993 86.5405 27.463C86.9205 26.423 87.1106 25.333 87.1006 24.203C87.0806 20.113 84.5806 16.6431 79.6006 13.7631C74.6206 10.8931 68.6005 9.443 61.5305 9.433C54.4605 9.423 48.4505 10.843 43.5105 13.703L24.6206 24.603L39.0505 24.6331V26.173L39.0906 31.923L28.5105 31.903L15.5205 31.8831L3.00049 31.8631V31.023L2.89062 11.023L15.5205 11.043L15.5605 19.3831L34.4504 8.47304C41.9504 4.14304 50.9605 1.99308 61.4905 2.01308C72.0205 2.03308 81.0506 4.21301 88.6006 8.57301C96.1406 12.923 99.9304 18.143 99.9604 24.223Z" stroke="#229EFF" stroke-linejoin="round"/><path d="M34.7903 70.993V90.993L25.7402 85.7631V65.7631L34.7903 70.993Z" stroke="#229EFF" stroke-linejoin="round"/><path d="M99.9609 24.293V44.223C99.9909 50.303 96.261 55.503 88.771 59.833L34.791 90.993V70.993L86.561 41.103L88.771 39.833C91.731 38.123 94.1111 36.273 95.9011 34.283C98.6111 31.273 99.9609 27.943 99.9609 24.293Z" stroke="#229EFF" stroke-linejoin="round"/></svg>