<svg width="48" height="48" viewBox="0 0 91 75" fill="none" xmlns="http://www.w3.org/2000/svg" stroke-width="1px"
     stroke-linecap="round" stroke-linejoin="round">
    <path d="M35.1003 46.3062L35.0403 52.1662L30.1404 52.1562L20.0603 52.1362H20.0103L2.13037 52.1062L2.03027 33.1062L12.1003 33.1262L12.2603 46.2562L19.9802 46.2762H20.0603L30.0703 46.2962L35.1003 46.3062Z" stroke="currentColor" stroke-linejoin="round"/>
    <path d="M53.03 35.9462L53 38.6663L52.97 41.8162L20.0601 41.7562L19.96 22.7562L30.03 22.7762L30.1899 35.9062L37.1899 35.9163H37.2L53.03 35.9462Z" stroke="currentColor" stroke-linejoin="round"/>
    <path d="M77.9504 21.4562L77.9705 8.32623L55.1306 8.27625L55.1006 2.36621L88.1904 2.41626L88.2104 21.4763L77.9504 21.4562Z" stroke="currentColor" stroke-linejoin="round"/>
    <path d="M53 38.6663H53.03V35.9463L53 38.6663ZM37.1699 32.7163L37.1899 35.9163H37.2V32.7163H37.1699ZM52.97 55.9463V61.8163L53.03 55.9463H52.97Z" stroke="currentColor" stroke-linejoin="round"/>
    <path d="M35.1001 46.3063V66.3063L35.04 72.1663V52.1663L35.1001 46.3063Z" stroke="currentColor" stroke-linejoin="round"/>
    <path d="M60.0195 51.8063L60.0396 38.6763H60.0195V32.7563L70.2595 32.7764L70.2795 51.8264L60.0195 51.8063Z" stroke="currentColor" stroke-linejoin="round"/>
    <path d="M2.13037 52.1062V72.1062L2.03027 53.1062V33.1062L2.13037 52.1062Z" stroke="currentColor" stroke-linejoin="round"/>
    <path d="M52.9705 41.8162V61.8162L35.1006 61.7863V46.3062L30.0706 46.2963L20.0605 46.2762V41.7562L52.9705 41.8162Z" stroke="currentColor" stroke-linejoin="round"/>
    <path d="M35.0408 52.1662V72.1662L2.13086 72.1062V52.1062L20.0107 52.1362H20.0608L30.1409 52.1562L35.0408 52.1662Z" stroke="currentColor" stroke-linejoin="round"/>
    <path d="M20.0601 41.7562V46.2762H19.98L19.96 42.7562V22.7562L20.0601 41.7562Z" stroke="currentColor" stroke-linejoin="round"/>
    <path d="M53.0303 55.9462V38.6663" stroke="currentColor" stroke-linejoin="round"/>
    <path d="M60.0205 51.8063V38.6763" stroke="currentColor" stroke-linejoin="round"/>
    <path d="M88.2102 21.4763V41.4763L77.9502 41.4563L77.9702 28.3263H77.9502V21.4563L88.2102 21.4763Z" stroke="currentColor" stroke-linejoin="round"/>
    <path d="M77.9502 41.4562V28.3262" stroke="currentColor" stroke-linejoin="round"/>
    <path d="M77.9707 8.32623L77.9507 21.4562V28.3262L70.2808 28.3062L70.2708 22.3862L70.2607 12.7762L55.1309 12.7462V8.27625L77.9707 8.32623Z" stroke="currentColor" stroke-linejoin="round"/>
    <path d="M70.28 28.3063V51.8263L70.26 32.7763L60.02 32.7563V31.8063L60.03 28.2863V22.3763L60.04 18.6763L55.1301 18.6663H55.1001L37.2 18.6363L37.1699 12.7163L55.1001 12.7463H55.1301L70.26 12.7763L70.27 22.3863L70.28 28.3063Z" stroke="currentColor" stroke-linejoin="round"/>
    <path d="M60.0403 18.6762L60.0303 22.3762V28.2863L60.0203 31.8062V38.6762L53.0303 38.6663V35.9462L37.2002 35.9163V18.6362L55.1003 18.6663H55.1304L60.0403 18.6762Z" stroke="currentColor" stroke-linejoin="round"/>
    <path d="M55.1006 12.7462V2.36621" stroke="currentColor" stroke-linejoin="round"/>
    <path d="M37.1602 12.7063V32.7063" stroke="currentColor" stroke-linejoin="round"/>
</svg>