<svg width="48" height="48" viewBox="0 0 131 98" fill="none" xmlns="http://www.w3.org/2000/svg" stroke-width="1px" stroke-linecap="round" stroke-linejoin="round"><path d="M72.5405 75.13V95.13L2.19043 54.52V34.52L19.5105 44.52L72.5405 75.13Z" stroke="#229EFF" stroke-linejoin="round"/><path d="M58.1204 2.22998L2.19043 34.52L19.5105 44.52L72.5405 75.13L79.7405 70.97L90.1704 64.95L97.1504 60.92L104.15 56.88L111.14 52.85L128.46 42.85L58.1204 2.22998ZM98.6204 51.95L95.3103 51.78L79.9404 50.98L71.3503 50.54L59.0105 38.89L53.0603 33.28L47.7104 28.24L44.1804 24.91L39.9004 20.87L44.1804 18.4L54.4705 24.34L58.1604 26.47L100.45 50.89L98.6204 51.95ZM107.44 46.86L58.1604 18.41L51.1704 14.37L58.1604 10.33L114.44 42.82L107.44 46.86Z" stroke="#229EFF" stroke-linejoin="round"/><path d="M44.1804 18.3999V24.9099L39.9004 20.8699L44.1804 18.3999Z" stroke="#229EFF" stroke-linejoin="round"/><path d="M58.1599 10.3301V18.4101L51.1699 14.3701L58.1599 10.3301Z" stroke="#229EFF" stroke-linejoin="round"/><path d="M114.44 42.8201L107.44 46.8601L58.1602 18.4101V10.3301L114.44 42.8201Z" stroke="#229EFF" stroke-linejoin="round"/><path d="M100.451 50.8899L98.6206 51.9499L95.3105 51.7799L79.9407 50.9799L71.3506 50.5399L59.0107 38.8899L53.0605 33.2799L47.7107 28.2399L44.1807 24.9099V18.3999L54.4707 24.3399L58.1606 26.4699L100.451 50.8899Z" stroke="#229EFF" stroke-linejoin="round"/><path d="M128.461 42.8501V62.8501L72.541 95.1301V75.1301L79.741 70.9701L90.1709 64.9501L97.1509 60.9201L104.151 56.8801L111.141 52.8501L128.461 42.8501Z" stroke="#229EFF" stroke-linejoin="round"/></svg>