<svg width="48" height="48" viewBox="0 0 92 90" fill="none" xmlns="http://www.w3.org/2000/svg" stroke-width="1px" stroke-linecap="round" stroke-linejoin="round"><path d="M54.6519 32.7285L53.1819 35.0785C52.6919 35.7885 52.122 36.4585 51.482 37.0785C50.832 37.6985 50.052 38.2785 49.132 38.8085C47.962 39.4885 46.652 40.0285 45.202 40.4385C43.752 40.8385 42.262 41.2085 40.722 41.5185C38.872 41.8785 37.132 42.3485 35.502 42.9285C33.862 43.5185 32.3719 44.1985 31.0219 44.9785C29.8519 45.6585 28.802 46.3785 27.882 47.1685C26.962 47.9485 26.2319 48.7785 25.6719 49.6685L23.752 52.6085L31.072 54.2785L32.722 51.7185C33.152 51.0385 33.6919 50.4085 34.3319 49.8185C34.9819 49.2385 35.7319 48.6985 36.5919 48.1985C37.7619 47.5185 39.082 46.9685 40.562 46.5485C42.042 46.1185 43.5519 45.7485 45.0919 45.4285C46.9419 45.0785 48.6719 44.6185 50.2719 44.0485C51.8719 43.4885 53.352 42.8085 54.702 42.0285C55.932 41.3185 57.022 40.5685 57.972 39.7685C58.932 38.9685 59.682 38.1185 60.232 37.2285L61.972 34.3985L54.6519 32.7285Z" stroke="#229EFF" stroke-linejoin="round"/><path d="M84.2613 47.2686L83.1913 48.9987L82.5113 50.0986C81.9613 50.9886 81.2113 51.8286 80.2613 52.6286C79.3913 53.3586 78.4013 54.0586 77.2913 54.7186C77.1913 54.7786 77.0912 54.8386 76.9912 54.8986C75.8012 55.5786 74.5112 56.1886 73.1112 56.7186C72.9212 56.7986 72.7113 56.8786 72.5113 56.9486C70.8813 57.5286 69.1313 57.9986 67.2913 58.3486C65.7413 58.6686 64.2512 59.0286 62.8012 59.4386C61.3512 59.8486 60.0413 60.3887 58.8813 61.0587C58.0113 61.5587 57.2612 62.0986 56.6212 62.6886C55.9712 63.2786 55.4413 63.9086 55.0113 64.5886L53.3513 67.1486L46.0312 65.4786L46.2112 65.1986L47.9612 62.5386C48.5112 61.6486 49.2512 60.8186 50.1712 60.0286C51.0912 59.2486 52.1412 58.5186 53.3012 57.8486C54.6612 57.0686 56.1513 56.3786 57.7812 55.7986C59.0612 55.3386 60.4113 54.9486 61.8213 54.6386C62.2113 54.5486 62.6113 54.4686 63.0113 54.3886C64.5513 54.0686 66.0412 53.7086 67.4912 53.2986C68.9412 52.8986 70.2513 52.3586 71.4113 51.6786L71.7112 51.4987C72.2212 51.1887 72.6912 50.8686 73.1112 50.5286C73.3412 50.3386 73.5612 50.1486 73.7712 49.9486C74.4112 49.3286 74.9813 48.6586 75.4713 47.9486L76.9413 45.5986L83.1913 47.0286L84.2613 47.2686Z" stroke="#229EFF" stroke-linejoin="round"/><path d="M84.2616 47.2686V67.2686L82.5116 70.0986C81.9616 70.9886 81.2116 71.8285 80.2616 72.6285C79.3116 73.4285 78.2215 74.1886 76.9915 74.8986C75.6315 75.6786 74.1416 76.3585 72.5116 76.9485C70.8816 77.5285 69.1316 77.9986 67.2916 78.3486C65.7416 78.6686 64.2515 79.0285 62.8015 79.4385C61.3515 79.8485 60.0416 80.3886 58.8816 81.0586C58.0116 81.5586 57.2616 82.0985 56.6216 82.6885C55.9716 83.2785 55.4416 83.9086 55.0116 84.5886L53.3516 87.1486V67.1486L55.0116 64.5886C55.4416 63.9086 55.9716 63.2785 56.6216 62.6885C57.2616 62.0985 58.0116 61.5586 58.8816 61.0586C60.0416 60.3886 61.3515 59.8485 62.8015 59.4385C64.2515 59.0285 65.7416 58.6686 67.2916 58.3486C69.1316 57.9986 70.8816 57.5285 72.5116 56.9485C72.7116 56.8785 72.9215 56.7986 73.1115 56.7186C74.5115 56.1886 75.8015 55.5786 76.9915 54.8986C77.0915 54.8386 77.1916 54.7786 77.2916 54.7186C78.4016 54.0586 79.3916 53.3585 80.2616 52.6285C81.2116 51.8285 81.9616 50.9886 82.5116 50.0986L83.1916 48.9986L84.2616 47.2686Z" stroke="#229EFF" stroke-linejoin="round"/><path d="M73.1119 40.8389V50.5289C72.6919 50.8689 72.2219 51.1889 71.7119 51.4989L71.4119 51.6789C70.2519 52.3589 68.9419 52.8989 67.4919 53.2989C66.0419 53.7089 64.5519 54.0689 63.0119 54.3889C62.6119 54.4689 62.2119 54.5489 61.8219 54.6389C60.4119 54.9489 59.0619 55.3389 57.7819 55.7989C56.1519 56.3789 54.6619 57.0689 53.3019 57.8489C52.1419 58.5189 51.0919 59.2489 50.1719 60.0289C49.2519 60.8189 48.5119 61.6489 47.9619 62.5389L46.2119 65.1989L46.0319 65.4789V75.7889C45.8319 75.9389 45.6519 76.0989 45.4719 76.2589C44.8319 76.8389 44.2919 77.4789 43.8619 78.1489L42.2119 80.7089V60.7089L43.8619 58.1489C44.2919 57.4789 44.8319 56.8389 45.4719 56.2589C46.1219 55.6689 46.8719 55.1288 47.7319 54.6288C48.9019 53.9588 50.2319 53.4089 51.7019 52.9789C53.1819 52.5589 54.6919 52.1889 56.2319 51.8689C58.0819 51.5089 59.8119 51.0489 61.4119 50.4889C61.6019 50.4189 61.7919 50.3489 61.9719 50.2789C63.3619 49.7589 64.6519 49.1589 65.8419 48.4589C65.9419 48.3989 66.0419 48.3389 66.1419 48.2789C67.2519 47.6289 68.2319 46.9489 69.0719 46.2289C69.9919 45.4389 70.7619 44.5889 71.3719 43.6589L73.1119 40.8389Z" stroke="#229EFF" stroke-linejoin="round"/><path d="M61.9713 34.3984V44.0884C61.4713 44.4984 60.9013 44.8885 60.2713 45.2485C60.2413 45.2685 60.2013 45.2885 60.1713 45.2985C59.0313 45.9485 57.7513 46.4685 56.3513 46.8685C54.9013 47.2785 53.4013 47.6384 51.8613 47.9584C50.0113 48.3084 48.2713 48.7785 46.6413 49.3685C45.0113 49.9485 43.5113 50.6284 42.1613 51.4084C40.9913 52.0884 39.9513 52.8184 39.0313 53.5984C38.1013 54.3784 37.3713 55.2185 36.8213 56.1085L34.8913 59.0385V69.3484C34.6913 69.5084 34.5113 69.6584 34.3313 69.8184C33.6913 70.4084 33.1513 71.0384 32.7213 71.7184L31.0713 74.2784V54.2784L32.7213 51.7184C33.1513 51.0384 33.6913 50.4084 34.3313 49.8184C34.9813 49.2384 35.7313 48.6984 36.5913 48.1984C37.7613 47.5184 39.0813 46.9685 40.5613 46.5485C42.0413 46.1185 43.5513 45.7485 45.0913 45.4285C46.9413 45.0785 48.6713 44.6185 50.2713 44.0485C51.8713 43.4885 53.3513 42.8084 54.7013 42.0284C55.9313 41.3184 57.0213 40.5684 57.9713 39.7684C58.9313 38.9684 59.6813 38.1185 60.2313 37.2285L61.9713 34.3984Z" stroke="#229EFF" stroke-linejoin="round"/><path d="M83.1916 38.1288V47.0289L76.9416 45.5989L75.4716 47.9489C74.9816 48.6589 74.4115 49.3289 73.7715 49.9489C73.5615 50.1489 73.3415 50.3389 73.1115 50.5289V40.8389L65.7916 39.1689L64.3216 41.5089C63.8316 42.2289 63.2716 42.8889 62.6216 43.5189C62.4216 43.7189 62.2016 43.9089 61.9716 44.0889V34.3989L54.6516 32.7289L53.1815 35.0789C52.6915 35.7889 52.1216 36.4589 51.4816 37.0789C50.8316 37.6989 50.0516 38.2789 49.1316 38.8089C47.9616 39.4889 46.6516 40.0288 45.2016 40.4388C43.7516 40.8388 42.2616 41.2089 40.7216 41.5189C38.8716 41.8789 37.1316 42.3489 35.5016 42.9289C33.8616 43.5189 32.3715 44.1989 31.0215 44.9789C29.8515 45.6589 28.8016 46.3789 27.8816 47.1689C26.9616 47.9489 26.2315 48.7789 25.6715 49.6689L23.7516 52.6089V60.5989L15.1016 65.5889V45.5889L48.2316 26.4689C50.2616 25.2889 52.7216 24.7089 55.6216 24.7189C58.5216 24.7189 61.0016 25.3089 63.0416 26.4889L83.1916 38.1288Z" stroke="#229EFF" stroke-linejoin="round"/><path d="M54.6519 32.7295L53.1819 35.0795C52.6919 35.7895 52.122 36.4595 51.482 37.0795C50.832 37.6995 50.052 38.2795 49.132 38.8095C47.962 39.4895 46.652 40.0295 45.202 40.4395C43.752 40.8395 42.262 41.2095 40.722 41.5195C38.872 41.8795 37.132 42.3495 35.502 42.9295C33.862 43.5195 32.3719 44.1995 31.0219 44.9795C29.8519 45.6595 28.802 46.3795 27.882 47.1695C26.962 47.9495 26.2319 48.7795 25.6719 49.6695L23.752 52.6095L31.072 54.2795L32.722 51.7195C33.152 51.0395 33.6919 50.4095 34.3319 49.8195C34.9819 49.2395 35.7319 48.6995 36.5919 48.1995C37.7619 47.5195 39.082 46.9695 40.562 46.5495C42.042 46.1195 43.5519 45.7495 45.0919 45.4295C46.9419 45.0795 48.6719 44.6195 50.2719 44.0495C51.8719 43.4895 53.352 42.8095 54.702 42.0295C55.932 41.3195 57.022 40.5695 57.972 39.7695C58.932 38.9695 59.682 38.1195 60.232 37.2295L61.972 34.3995L54.6519 32.7295Z" stroke="#229EFF" stroke-linejoin="round"/><path d="M73.1116 40.8389L71.3716 43.6589C70.7616 44.5889 69.9916 45.4389 69.0716 46.2289C68.2316 46.9489 67.2516 47.6289 66.1416 48.2789C66.0416 48.3389 65.9416 48.3989 65.8416 48.4589C64.6516 49.1589 63.3616 49.7589 61.9716 50.2789C61.7916 50.3489 61.6016 50.419 61.4116 50.489C59.8116 51.049 58.0816 51.509 56.2316 51.869C54.6916 52.189 53.1816 52.5589 51.7016 52.9789C50.2316 53.4089 48.9016 53.9589 47.7316 54.6289C46.8716 55.1289 46.1216 55.6689 45.4716 56.2589C44.8316 56.8389 44.2916 57.4789 43.8616 58.1489L42.2116 60.7089L34.8916 59.0389L36.8216 56.1089C37.3716 55.2189 38.1016 54.3789 39.0316 53.5989C39.9516 52.8189 40.9916 52.0889 42.1616 51.4089C43.5116 50.6289 45.0116 49.949 46.6416 49.369C48.2716 48.779 50.0116 48.3089 51.8616 47.9589C53.4016 47.6389 54.9016 47.279 56.3516 46.869C57.7516 46.469 59.0316 45.949 60.1716 45.299C60.2016 45.289 60.2416 45.269 60.2716 45.249C60.9016 44.889 61.4716 44.4989 61.9716 44.0889C62.2016 43.9089 62.4216 43.7189 62.6216 43.5189C63.2716 42.8889 63.8316 42.2289 64.3216 41.5089L65.7916 39.1689L73.1116 40.8389Z" stroke="#229EFF" stroke-linejoin="round"/><path d="M89.8515 15.7092V15.8292C89.8015 18.4992 89.5715 21.0092 89.1715 23.3592C89.1415 23.5592 89.1015 23.7592 89.0615 23.9592C88.0515 29.5192 86.0915 34.2492 83.1915 38.1292L63.0415 26.4892C61.0015 25.3092 58.5215 24.7192 55.6215 24.7192C52.7215 24.7092 50.2615 25.2892 48.2315 26.4692L15.1015 45.5892C11.3215 43.4092 8.39153 41.0492 6.32153 38.5292C3.81153 35.4692 2.56152 32.1692 2.56152 28.6192V28.3392C2.67152 21.7292 7.04152 15.9392 15.6515 10.9592C21.8015 7.40918 30.9615 4.96917 43.1115 3.63917C55.2615 2.30917 70.5315 2.07919 88.9215 2.96919C89.6015 7.55919 89.9115 11.7992 89.8515 15.7092Z" stroke="#229EFF" stroke-linejoin="round"/><path d="M15.1011 45.5891V65.5891C6.62111 60.6991 2.44111 54.9391 2.56111 48.3391V28.6191C2.56111 32.1691 3.81112 35.4691 6.32112 38.5291C8.39112 41.0491 11.3211 43.4091 15.1011 45.5891Z" stroke="#229EFF" stroke-linejoin="round"/><path d="M89.8514 15.8291V35.9891C89.7914 38.5991 89.5614 41.0491 89.1714 43.3591C88.3114 48.4591 86.6714 52.8691 84.2614 56.5891V47.2691L83.1914 47.0291V38.1291C86.0914 34.2491 88.0514 29.5191 89.0614 23.9591C89.1014 23.7591 89.1414 23.5591 89.1714 23.3591C89.5714 21.0091 89.8014 18.4991 89.8514 15.8291Z" stroke="#229EFF" stroke-linejoin="round"/><path d="M89.8615 34.6696C89.8615 35.0596 89.8616 35.4395 89.8516 35.8195V33.5596C89.8616 33.9396 89.8615 34.2996 89.8615 34.6696Z" stroke="#229EFF" stroke-linejoin="round"/><path d="M53.3513 67.1495V87.1495L46.0312 85.4795V65.4795L53.3513 67.1495Z" stroke="#229EFF" stroke-linejoin="round"/><path d="M42.2106 60.709V80.709L34.8906 79.0391V59.0391L42.2106 60.709Z" stroke="#229EFF" stroke-linejoin="round"/><path d="M31.071 54.2794V74.2794L23.751 72.6094V52.6094L31.071 54.2794Z" stroke="#229EFF" stroke-linejoin="round"/></svg>