<svg width="48" height="48" viewBox="0 0 127 95" fill="none" xmlns="http://www.w3.org/2000/svg" stroke-width="1px"
     stroke-linecap="round" stroke-linejoin="round">
    <path d="M117.47 38.4798L103.52 30.4298L117.47 22.3798L89.4004 6.16982L75.4604 14.2198L54.4104 2.06982L2.11035 32.2598L19.4304 42.2598L72.2803 72.7698L107.25 52.5798L124.57 42.5798L117.47 38.4798ZM96.5105 26.3798L89.4504 22.2998L82.4705 18.2698L89.4504 14.2498L103.48 22.3498L96.5105 26.3798Z" stroke="currentColor" stroke-linejoin="round"/>
    <path d="M89.4507 14.2498V22.2998L82.4707 18.2698L89.4507 14.2498Z" stroke="currentColor" stroke-linejoin="round"/>
    <path d="M103.48 22.3498L96.5103 26.3798L89.4502 22.2998V14.2498L103.48 22.3498Z" stroke="currentColor" stroke-linejoin="round"/>
    <path d="M124.57 42.5798V62.5798L72.2803 92.7698V72.7698L107.25 52.5798L124.57 42.5798Z" stroke="currentColor" stroke-linejoin="round"/>
    <path d="M72.2803 72.7698V92.7698L2.11035 52.2598V32.2598L19.4304 42.2598L72.2803 72.7698Z" stroke="currentColor" stroke-linejoin="round"/>
    <path d="M117.471 22.3799V38.4799L103.521 30.4299L117.471 22.3799Z" stroke="currentColor" stroke-linejoin="round"/>
</svg>