<svg width="24" height="24" viewBox="0 0 24 24" fill="none" xmlns="http://www.w3.org/2000/svg">
<path d="M17.4776 8.0009C17.485 8.00087 17.4925 8.00085 17.5 8.00085C19.9853 8.00085 22 10.0156 22 12.5009C22 14.0611 21.206 15.4359 20 16.2431M17.4776 8.0009C17.4924 7.83621 17.5 7.66941 17.5 7.50085C17.5 4.46328 15.0376 2.00085 12 2.00085C9.12324 2.00085 6.76233 4.20947 6.52042 7.02355M17.4776 8.0009C17.4131 8.71579 17.2119 9.39123 16.9003 10.0009M6.52042 7.02355C3.98398 7.26492 2 9.40119 2 12.0009C2 13.79 2.93963 15.3596 4.35232 16.2431M6.52042 7.02355C6.67826 7.00853 6.83823 7.00085 7 7.00085C8.12582 7.00085 9.16474 7.37294 10.0005 8.00085" stroke="#141B34" stroke-width="1.5" stroke-linecap="round" stroke-linejoin="round"/>
<path opacity="0.4" d="M10.4521 12.0009V13.9799M6.97168 15.5012H9.01981M14.9797 15.5012H17.0278M14.9797 18.4745H17.0278M6.97168 18.4745H9.01981M10.4521 20.0201V21.9991M13.4719 20.0201V21.9991M13.4612 12.0009V13.9799M10.0179 19.9684H13.9816C14.5328 19.9684 14.9797 19.5207 14.9797 18.9684V14.9799C14.9797 14.4276 14.5328 13.9799 13.9816 13.9799H10.0179C9.46668 13.9799 9.01981 14.4276 9.01981 14.9799V18.9684C9.01981 19.5207 9.46668 19.9684 10.0179 19.9684Z" stroke="#141B34" stroke-width="1.5" stroke-linecap="round"/>
</svg>
