<svg width="24" height="24" viewBox="0 0 24 24" fill="none" xmlns="http://www.w3.org/2000/svg">
<path d="M7.01953 6.36752C7.89621 5.41201 13.0056 1.68945 16.6053 6.13758C17.0414 6.67646 17.2594 6.9459 17.6321 7.99921C18.0048 9.05252 18.0048 9.78494 18.0048 11.2498V20" stroke="#141B34" stroke-width="1.5" stroke-linecap="round" stroke-linejoin="round"/>
<path opacity="0.4" d="M18.0039 10C18.0039 7.72717 19.2023 4.62581 21.9986 5.03703" stroke="#141B34" stroke-width="1.5" stroke-linecap="round" stroke-linejoin="round"/>
<path d="M9.92017 10.7651C9.83938 10.0639 9.86336 8.55093 11.2138 7.80584C12.9789 6.83202 14.7941 8.46474 15.0013 10.2727C15.1028 11.1585 14.7461 13.992 13.2389 15.6892C12.6763 16.3227 12.1693 16.8767 11.2138 16.9748C10.3273 17.0659 9.60011 16.8283 8.75742 16.2714C7.41077 15.3814 6.00292 13.881 4.80888 11.8082C3.53342 9.59404 2.84404 8.08034 2 5.02637" stroke="#141B34" stroke-width="1.5" stroke-linecap="round" stroke-linejoin="round"/>
<path opacity="0.4" d="M14.7812 12.773C15.8134 12.7426 17.8275 14.1185 17.9732 19.8332" stroke="#141B34" stroke-width="1.5" stroke-linecap="round" stroke-linejoin="round"/>
</svg>
