<svg width="24" height="24" viewBox="0 0 24 24" fill="none" xmlns="http://www.w3.org/2000/svg">
<path opacity="0.4" d="M22 12.75C22.4142 12.75 22.75 12.4142 22.75 12C22.75 11.5858 22.4142 11.25 22 11.25V12.75ZM2 11.25C1.58579 11.25 1.25 11.5858 1.25 12C1.25 12.4142 1.58579 12.75 2 12.75L2 11.25ZM22 11.25L2 11.25L2 12.75L22 12.75V11.25Z" fill="#141B34"/>
<path d="M19 9C19.6068 9.58984 22 11.1597 22 12C22 12.8403 19.6068 14.4102 19 15M5 9C4.39316 9.58984 2 11.1597 2 12C2 12.8403 4.39316 14.4102 5 15" stroke="#141B34" stroke-width="1.5" stroke-linecap="round" stroke-linejoin="round"/>
</svg>
