<svg width="24" height="24" viewBox="0 0 24 24" fill="none" xmlns="http://www.w3.org/2000/svg">
<path d="M2 4.80005H9C10.6569 4.80005 12 6.41182 12 8.40005C12 10.3883 10.6569 12 9 12M9 12C10.6569 12 12 13.6118 12 15.6C12 17.5883 10.6569 19.2 9 19.2H2M9 12H3M2.83333 4.80005V19.2" stroke="#141B34" stroke-width="1.5" stroke-linecap="round"/>
<path opacity="0.4" d="M4.5 3.00024V4.80024M8.66667 3.00024V4.80024M4.5 19.2002V21.0002M8.66667 19.2002V21.0002" stroke="#141B34" stroke-width="1.5" stroke-linecap="round"/>
<path opacity="0.4" d="M14.5 12H22M14.5 12C14.5 12.7002 16.4943 14.0085 17 14.5M14.5 12C14.5 11.2998 16.4943 9.99153 17 9.5" stroke="#141B34" stroke-width="1.5" stroke-linecap="round" stroke-linejoin="round"/>
</svg>
