<svg width="24" height="24" viewBox="0 0 24 24" fill="none" xmlns="http://www.w3.org/2000/svg">
<path opacity="0.4" d="M4 15.5C2.89543 15.5 2 14.6046 2 13.5C2 12.3954 2.89543 11.5 4 11.5" stroke="#141B34" stroke-width="1.5" stroke-linecap="round" stroke-linejoin="round"/>
<path opacity="0.4" d="M20 15.5C21.1046 15.5 22 14.6046 22 13.5C22 12.3954 21.1046 11.5 20 11.5" stroke="#141B34" stroke-width="1.5" stroke-linecap="round" stroke-linejoin="round"/>
<path opacity="0.4" d="M7 7L7 4M7 4C7.55228 4 8 3.55228 8 3C8 2.44772 7.55228 2 7 2C6.44772 2 6 2.44772 6 3C6 3.55228 6.44772 4 7 4Z" stroke="#141B34" stroke-width="1.5" stroke-linejoin="round"/>
<path opacity="0.4" d="M17 7L17 4M17 4C17.5523 4 18 3.55228 18 3C18 2.44772 17.5523 2 17 2C16.4477 2 16 2.44772 16 3C16 3.55228 16.4477 4 17 4Z" stroke="#141B34" stroke-width="1.5" stroke-linejoin="round"/>
<path d="M13.5 7H10.5C7.67157 7 6.25736 7 5.37868 7.90898C4.5 8.81796 4.5 10.2809 4.5 13.2069C4.5 16.1329 4.5 17.5958 5.37868 18.5048C6.25736 19.4138 7.67157 19.4138 10.5 19.4138H11.5253C12.3169 19.4138 12.5962 19.5773 13.1417 20.1713C13.745 20.8283 14.6791 21.705 15.5242 21.9091C16.7254 22.1994 16.8599 21.7979 16.5919 20.6531C16.5156 20.327 16.3252 19.8056 16.526 19.5018C16.6385 19.3316 16.8259 19.2898 17.2008 19.2061C17.7922 19.074 18.2798 18.8581 18.6213 18.5048C19.5 17.5958 19.5 16.1329 19.5 13.2069C19.5 10.2809 19.5 8.81796 18.6213 7.90898C17.7426 7 16.3284 7 13.5 7Z" stroke="#141B34" stroke-width="1.5" stroke-linejoin="round"/>
<path opacity="0.4" d="M9.5 15C10.0701 15.6072 10.9777 16 12 16C13.0223 16 13.9299 15.6072 14.5 15" stroke="#141B34" stroke-width="1.5" stroke-linecap="round" stroke-linejoin="round"/>
<path opacity="0.4" d="M9.00896 11H9" stroke="#141B34" stroke-width="2" stroke-linecap="round" stroke-linejoin="round"/>
<path opacity="0.4" d="M15.009 11H15" stroke="#141B34" stroke-width="2" stroke-linecap="round" stroke-linejoin="round"/>
</svg>
