<svg width="24" height="24" viewBox="0 0 24 24" fill="none" xmlns="http://www.w3.org/2000/svg">
<path d="M16.5821 6.05737C18.9167 6.05737 19.5441 9.24441 18.5403 11.3422C18.0913 12.2806 17.3145 13.1051 16.6926 13.9357C16.0962 14.7322 15.798 15.1304 15.406 15.4091C14.5319 16.0304 13.52 16 12.4877 16H11.4563C8.91734 16 7.64782 16 6.809 15.2904C5.97019 14.5809 5.76484 13.3596 5.35415 10.917C5.12834 9.57401 4.96938 8.23222 5.00239 6.93135C5.06283 4.54904 6.88685 2.54273 9.35046 2.14874C10.524 1.96106 11.9691 1.94251 13.1434 2.14182C15.2402 2.49775 16.7187 4.30419 16.5721 6.33112C16.4827 7.56721 15.9811 8.83974 15.668 10.0344" stroke="#141B34" stroke-width="1.5" stroke-linecap="round"/>
<path opacity="0.4" d="M7.00195 15.5V18C7.00195 19.8856 7.00195 20.8284 7.58773 21.4142C8.17352 22 9.11633 22 11.0019 22H12.0019C13.8875 22 14.8303 22 15.4161 21.4142C16.0019 20.8284 16.0019 19.8856 16.0019 18V15M7.00195 19H10.0019" stroke="#141B34" stroke-width="1.5" stroke-linecap="round" stroke-linejoin="round"/>
</svg>
