<svg width="24" height="24" viewBox="0 0 24 24" fill="none" xmlns="http://www.w3.org/2000/svg">
<path d="M9 18C9 19.1046 8.10457 20 7 20C5.89543 20 5 19.1046 5 18C5 16.8954 5.89543 16 7 16C8.10457 16 9 16.8954 9 18Z" stroke="#141B34" stroke-width="1.5"/>
<path d="M19 18C19 19.1046 18.1046 20 17 20C15.8954 20 15 19.1046 15 18C15 16.8954 15.8954 16 17 16C18.1046 16 19 16.8954 19 18Z" stroke="#141B34" stroke-width="1.5"/>
<path d="M2 11H18" stroke="#141B34" stroke-width="1.5" stroke-linecap="round"/>
<path opacity="0.4" d="M9 11V6" stroke="#141B34" stroke-width="1.5" stroke-linecap="round"/>
<path d="M5.00854 17.9966C2.1667 17.5766 2.04679 16.9766 2.01082 16.2566C1.98684 14.0366 2.00683 11.7766 2.00683 10.9966C2.22266 9.25658 3.16194 7.19658 3.64158 6.41658M14.997 17.9966H9.00149M2.02281 5.99658H12.2391C12.2391 5.99658 12.7786 5.99658 13.2583 6.04458C14.1576 6.12858 14.913 6.53658 15.6684 7.55658C16.4683 8.63658 17.0834 10.0046 17.8987 10.7366C19.2537 11.953 21.8318 11.5766 21.9756 14.1566C22.0116 15.4766 22.0116 16.9166 21.9517 17.1566C21.8554 17.8633 21.3105 17.9787 20.6327 17.9966C20.0444 18.0122 19.3353 17.9687 18.9899 17.9966" stroke="#141B34" stroke-width="1.5" stroke-linecap="round"/>
</svg>
