<svg width="24" height="24" viewBox="0 0 24 24" fill="none" xmlns="http://www.w3.org/2000/svg">
<path d="M1.99976 12.7284V7.61723C1.99976 6.6845 1.99976 6.21815 2.21735 5.77717C2.43495 5.33619 2.74952 5.10017 3.37865 4.62812C3.62261 4.44508 3.87066 4.26959 4.1226 4.1019C5.42822 3.23291 6.08103 2.79843 6.97571 3.09006C7.87037 3.38169 8.21547 4.25701 8.90564 6.00767L9.98751 8.7519M1.99976 12.7284V16.8519C1.99976 18.7956 1.99976 19.7675 2.58465 20.3714C3.16953 20.9753 4.1109 20.9753 5.99363 20.9753H16.9768L12.4965 9.87369C12.2428 9.24506 12.1159 8.93075 11.8345 8.75629C11.553 8.58182 11.2538 8.61114 10.6551 8.66977C10.4313 8.69169 10.2088 8.71911 9.98751 8.7519M1.99976 12.7284C4.27917 10.6063 7.01276 9.1928 9.98751 8.7519" stroke="#141B34" stroke-width="1.5"/>
<path opacity="0.4" d="M11.9841 20.9755V18.9782" stroke="#141B34" stroke-width="1.5" stroke-linecap="round" stroke-linejoin="round"/>
<path opacity="0.4" d="M9.98706 14.9833V12.986" stroke="#141B34" stroke-width="1.5" stroke-linecap="round" stroke-linejoin="round"/>
<path opacity="0.4" d="M5.9939 15.4828V13.4855" stroke="#141B34" stroke-width="1.5" stroke-linecap="round" stroke-linejoin="round"/>
<path opacity="0.4" d="M7.99097 20.9755V18.9782" stroke="#141B34" stroke-width="1.5" stroke-linecap="round" stroke-linejoin="round"/>
<path d="M13.4099 12.0202H16.9503L16.9504 9.91571C18.9724 10.8158 20.3944 11.7294 21.2075 12.4122C21.6388 12.7744 21.9362 13.2807 21.9661 13.8454C22.04 15.2431 21.983 17.5278 21.8987 18.9714C21.8987 20.8303 20.4151 20.8936 19.7576 20.9857C19.5217 21.0187 17.0056 20.9843 14.464 20.9857" stroke="#141B34" stroke-width="1.5" stroke-linecap="round" stroke-linejoin="round"/>
<path d="M2.09448 16.9215C3.71508 16.208 8.49825 14.5325 14.3158 15.1222C15.9778 15.2907 19.4353 15.7217 21.5962 16.9215" stroke="#141B34" stroke-width="1.5" stroke-linecap="round" stroke-linejoin="round"/>
</svg>
