<svg width="24" height="24" viewBox="0 0 24 24" fill="none" xmlns="http://www.w3.org/2000/svg">
<path d="M12 22C6.47715 22 2 17.5228 2 12C2 9.20746 3.14465 6.68227 4.99037 4.86802C6.79495 3.09421 9.26969 2 12 2C12.6414 2 13.2687 2.06039 13.8766 2.17579C18.5024 3.05405 22 7.11857 22 12C22 12.5771 21.9511 13.1427 21.8573 13.693C21.053 18.4096 16.9458 22 12 22Z" stroke="#141B34" stroke-width="1.5" stroke-linejoin="round"/>
<path opacity="0.4" d="M12 22C11.037 21.2864 11.1907 20.4555 11.6738 19.6247C12.4166 18.3474 12.4166 18.3474 12.4166 16.6444C12.4166 14.9414 13.4286 14.1429 17 14.8571C18.6047 15.1781 19.7741 12.9609 21.8573 13.693M13.8765 2.1758C14.3872 3.11599 14.1816 4.23551 13.1027 4.66299C11.3428 5.3603 12.6029 6.64343 11.1035 7.43561C10.1038 7.96373 8.60439 7.83152 7.10495 6.24717C6.31515 5.41264 5.83964 4.95766 4.99036 4.86803" stroke="#141B34" stroke-width="1.5" stroke-linejoin="round"/>
</svg>
