<svg width="24" height="24" viewBox="0 0 24 24" fill="none" xmlns="http://www.w3.org/2000/svg">
<path d="M13.0002 20.8268V22H14.1736C14.583 22 14.7877 22 14.9717 21.9238C15.1558 21.8475 15.3005 21.7028 15.59 21.4134L20.4136 16.5894C20.6866 16.3164 20.8231 16.1799 20.8961 16.0327C21.035 15.7525 21.035 15.4236 20.8961 15.1434C20.8231 14.9961 20.6866 14.8596 20.4136 14.5866C20.1405 14.3136 20.004 14.1771 19.8567 14.1041C19.5765 13.9653 19.2475 13.9653 18.9673 14.1041C18.8201 14.1771 18.6835 14.3136 18.4105 14.5866L18.4105 14.5866L13.5869 19.4106C13.2975 19.7 13.1527 19.8447 13.0765 20.0287C13.0002 20.2128 13.0002 20.4174 13.0002 20.8268Z" stroke="#141B34" stroke-width="1.5" stroke-linejoin="round"/>
<path opacity="0.4" d="M19.0002 11C19.0002 11 19.0002 9.4306 18.848 9.06306C18.6958 8.69552 18.4067 8.40649 17.8287 7.82843L13.0921 3.09188C12.5932 2.593 12.3438 2.34355 12.0348 2.19575C11.9705 2.165 11.9046 2.13772 11.8374 2.11401C11.5144 2 11.1616 2 10.4561 2C7.21106 2 5.58855 2 4.48957 2.88607C4.26756 3.06508 4.06532 3.26731 3.88632 3.48933C3.00024 4.58831 3.00024 6.21082 3.00024 9.45584V14C3.00024 17.7712 3.00024 19.6569 4.17182 20.8284C5.23491 21.8915 6.88594 21.99 10.0002 21.9991M12.0002 2.5V3C12.0002 5.82843 12.0002 7.24264 12.8789 8.12132C13.7576 9 15.1718 9 18.0002 9H18.5002" stroke="#141B34" stroke-width="1.5" stroke-linecap="round" stroke-linejoin="round"/>
</svg>
