<svg width="25" height="24" viewBox="0 0 25 24" fill="none" xmlns="http://www.w3.org/2000/svg">
<path d="M2.5 6C2.5 2.69067 3.19067 2 6.5 2H18.5C21.8093 2 22.5 2.69067 22.5 6V18C22.5 21.3093 21.8093 22 18.5 22H6.5C3.19067 22 2.5 21.3093 2.5 18V6Z" stroke="#141B34" stroke-width="1.5" stroke-linecap="round" stroke-linejoin="round"/>
<path d="M6.5 19H10.5" stroke="#141B34" stroke-width="1.5" stroke-linecap="round"/>
<path d="M18.5 19.0089V19" stroke="#141B34" stroke-width="2" stroke-linecap="round" stroke-linejoin="round"/>
<path opacity="0.4" d="M16 10H17.5M12.5 13.5V15M9 10H7.5M12.5 6.5V5M16.5 10C16.5 12.2091 14.7091 14 12.5 14C10.2909 14 8.5 12.2091 8.5 10C8.5 7.79086 10.2909 6 12.5 6C14.7091 6 16.5 7.79086 16.5 10Z" stroke="#141B34" stroke-width="1.5" stroke-linecap="round"/>
</svg>
