<svg width="24" height="24" viewBox="0 0 24 24" fill="none" xmlns="http://www.w3.org/2000/svg">
<path d="M19.1737 12.9256V12.12C19.1737 10.6492 19.1737 9.91383 18.7234 9.45691C18.2732 9 17.5485 9 16.0992 9H7.90077C6.45147 9 5.72682 9 5.27658 9.45691C4.82634 9.91383 4.82634 10.6492 4.82634 12.12V12.9256C4.82634 13.3018 4.82634 13.4899 4.79345 13.6739C4.76056 13.858 4.69549 14.0341 4.56534 14.3863L4.34812 14.9742C3.16867 18.166 2.57895 19.7619 3.34312 20.8809C4.1073 22 5.78684 22 9.14591 22H14.8541C18.2132 22 19.8927 22 20.6569 20.8809C21.4211 19.7619 20.8313 18.166 19.6519 14.9742L19.4347 14.3863C19.3045 14.0341 19.2394 13.858 19.2065 13.6739C19.1737 13.4899 19.1737 13.3018 19.1737 12.9256Z" stroke="#141B34" stroke-width="1.5" stroke-linecap="round"/>
<path d="M16 11C16 5 13.8655 2 12 2C10.1345 2 8 5 8 11" stroke="#141B34" stroke-width="1.5" stroke-linecap="round"/>
<path opacity="0.4" d="M13.5226 17.0637C14.7932 16.9317 17.4476 16.1267 19.055 14.9424M10.357 17.0637C9.08648 16.9317 6.54684 16.1267 4.93945 14.9424M11.9398 15.9736C13.1902 15.9736 14.8838 18.6014 13.2945 18.869C12.4626 19.009 11.4109 19.008 10.5851 18.869C8.99585 18.6014 10.6894 15.9736 11.9398 15.9736Z" stroke="#141B34" stroke-width="1.5" stroke-linecap="round"/>
</svg>
