<svg width="24" height="24" viewBox="0 0 24 24" fill="none" xmlns="http://www.w3.org/2000/svg">
<path opacity="0.4" d="M16.5 17L17.4989 18M17.4989 18L18.5 19M17.4989 18L18.5 17M17.4989 18L16.5 19M21.5 18C21.5 20.2091 19.7091 22 17.5 22C15.2909 22 13.5 20.2091 13.5 18C13.5 15.7909 15.2909 14 17.5 14C19.7091 14 21.5 15.7909 21.5 18Z" stroke="#141B34" stroke-width="1.5" stroke-linecap="round"/>
<path opacity="0.4" d="M7.5 18C8.41684 17.0229 9.72299 16.5115 11.0315 16.5002M13 12C13 13.1046 12.1187 14 11.0315 14C9.94438 14 9.06307 13.1046 9.06307 12C9.06307 10.8954 9.94438 10 11.0315 10C12.1187 10 13 10.8954 13 12Z" stroke="#141B34" stroke-width="1.5" stroke-linecap="round"/>
<path d="M8.5 4.00195C5.85561 4.01181 4.44101 4.10427 3.52513 4.97195C2.5 5.94312 2.5 7.5062 2.5 10.6324V15.3692C2.5 18.4954 2.5 20.0584 3.52513 21.0296C4.55025 22.0008 6.20017 22.0008 9.5 22.0008H11.5M13.5 4.00195C16.1444 4.01181 17.559 4.10427 18.4749 4.97195C19.5 5.94312 19.5 7.5062 19.5 10.6324V11.5008" stroke="#141B34" stroke-width="1.5" stroke-linecap="round" stroke-linejoin="round"/>
<path d="M8.77216 3.63163C8.8681 3.21682 8.91608 3.00942 9.00821 2.84004C9.22285 2.44546 9.61879 2.15548 10.0914 2.0467C10.2943 2 10.5296 2 11 2C11.4704 2 11.7057 2 11.9086 2.0467C12.3812 2.15548 12.7771 2.44545 12.9918 2.84004C13.0839 3.00942 13.1319 3.21682 13.2278 3.63163L13.3111 3.99176C13.4813 4.72744 13.5664 5.09528 13.438 5.37824C13.3549 5.5615 13.2132 5.71842 13.031 5.82911C12.7496 6 12.3324 6 11.4981 6H10.5019C9.66755 6 9.25038 6 8.96901 5.82911C8.78677 5.71842 8.6451 5.5615 8.56197 5.37824C8.43361 5.09528 8.51869 4.72744 8.68886 3.99176L8.77216 3.63163Z" stroke="#141B34" stroke-width="1.5"/>
</svg>
