<svg width="24" height="24" viewBox="0 0 24 24" fill="none" xmlns="http://www.w3.org/2000/svg">
<path d="M11.1002 3C7.45057 3.00657 5.53942 3.09617 4.31806 4.31754C3 5.63559 3 7.75698 3 11.9997C3 16.2425 3 18.3639 4.31806 19.6819C5.63611 21 7.7575 21 12.0003 21C16.243 21 18.3644 21 19.6825 19.6819C20.9038 18.4606 20.9934 16.5494 21 12.8998" stroke="#141B34" stroke-width="1.5" stroke-linecap="round" stroke-linejoin="round"/>
<path opacity="0.4" d="M20.5317 3.44425L11.0244 13.0068M20.5317 3.44425C20.0378 2.94963 16.7101 2.99573 16.0066 3.00574M20.5317 3.44425C21.0257 3.93886 20.9797 7.27085 20.9697 7.97526" stroke="#141B34" stroke-width="1.5" stroke-linecap="round" stroke-linejoin="round"/>
</svg>
