<svg width="24" height="24" viewBox="0 0 24 24" fill="none" xmlns="http://www.w3.org/2000/svg">
<path opacity="0.4" d="M9.86305 4.36711C9.86305 4.36711 10.1083 2.14754 9.86305 1.90558M9.86305 1.90558C9.54481 1.59176 7.32668 1.85592 7.32668 1.85592M9.86305 1.90558L6.89561 4.84613M2.11 7.09526C2.11 7.09526 1.8647 9.31483 2.11 9.5568M2.11 9.5568C2.42823 9.87062 4.64636 9.60645 4.64636 9.60645M2.11 9.5568L5.07743 6.61624" stroke="#141B34" stroke-width="1.5" stroke-linecap="round" stroke-linejoin="round"/>
<path d="M19.9272 22.2496V20.6878C19.9272 20.2846 20.0532 19.8929 20.2645 19.5491C21.7582 17.1188 22.2275 14.512 21.9 13.4967C20.8573 11.332 17.3779 10.4803 15.7629 10.2772L16.799 5.10864C16.9728 4.28901 16.3539 3.46393 15.4166 3.26577C14.4793 3.0676 13.5786 3.57141 13.4048 4.39104L11.3513 14.0736L8.78103 12.4333C8.78103 12.4333 7.48675 11.3962 6.44799 12.4333C5.40925 13.4705 6.44799 14.7627 6.44799 14.7627L10.3544 19.7738C10.6058 20.0961 10.7522 20.4875 10.7742 20.8954L10.8455 22.2156" stroke="#141B34" stroke-width="1.5" stroke-linecap="round" stroke-linejoin="round"/>
</svg>
