<svg width="24" height="24" viewBox="0 0 24 24" fill="none" xmlns="http://www.w3.org/2000/svg">
<path d="M12 22C17.5228 22 22 17.5228 22 12C22 6.47715 17.5228 2 12 2C6.47715 2 2 6.47715 2 12C2 17.5228 6.47715 22 12 22Z" stroke="#141B34" stroke-width="1.5"/>
<path opacity="0.4" d="M16.5168 10.1733L13.6112 10.1734C12.7945 10.1734 12.5583 10.9272 12.3239 11.6814L11.0008 15.14C10.6687 16.4681 10.3742 16.5097 10.0435 16.5363C9.68351 16.4163 9.63644 16.2631 9.02667 15.0107L8.87683 14.6707C8.61418 14.1313 8.57991 14.1084 8.31439 14.0353C7.97543 13.9421 7.77591 14.0935 7.46875 14.2927" stroke="#141B34" stroke-width="1.5" stroke-linecap="round" stroke-linejoin="round"/>
<path opacity="0.4" d="M7.46875 10.665V9.03946M7.46875 9.03946C7.52528 8.23352 8.09201 7.51807 8.86084 7.51807C9.76764 7.51807 10.1775 8.43013 10.2393 9.03946V10.665M7.46875 9.03946V7.51807" stroke="#141B34" stroke-width="1.5" stroke-linecap="round" stroke-linejoin="round"/>
</svg>
