<svg width="24" height="24" viewBox="0 0 24 24" fill="none" xmlns="http://www.w3.org/2000/svg">
<path d="M2.00024 2L22.0002 22" stroke="#141B34" stroke-width="1.5" stroke-linecap="round" stroke-linejoin="round"/>
<path d="M12.0005 20.9999H8.00049C5.64347 20.9999 4.46495 20.9999 3.73272 20.2677C3.00049 19.5355 3.00049 18.357 3.00049 15.9999V7.99994C3.00049 5.64292 3.00049 4.46441 3.73272 3.73218M12.0005 20.9999C14.3575 20.9999 15.536 20.9999 16.2683 20.2677C16.889 19.647 16.9835 18.7056 16.9979 16.9974M12.0005 20.9999H17.0005C18.8861 20.9999 19.8289 20.9999 20.4147 20.4142" stroke="#141B34" stroke-width="1.5" stroke-linecap="round" stroke-linejoin="round"/>
<path opacity="0.4" d="M21.0002 16.9974V10C21.0002 8.11438 21.0002 7.17157 20.4144 6.58579C19.8286 6 18.8858 6 17.0002 6M17.0002 13.1109V8C17.0002 5.64298 17.0002 4.46447 16.268 3.73223C15.5358 3 14.3572 3 12.0002 3H8.00022C7.59803 3 7.23015 3 6.89294 3.00364" stroke="#141B34" stroke-width="1.5" stroke-linecap="round" stroke-linejoin="round"/>
</svg>
