<svg width="24" height="24" viewBox="0 0 24 24" fill="none" xmlns="http://www.w3.org/2000/svg">
<path d="M18.4896 10.8154L15.507 5.6705C14.2306 3.4687 13.5924 2.36781 12.7003 2.10134C12.248 1.96622 11.7634 1.96622 11.3111 2.10134C10.419 2.36781 9.78081 3.4687 8.50438 5.6705M18.4896 10.8154L15.0117 9.50645M18.4896 10.8154L19.0588 7.27638M6.81856 8.57849L3.73542 13.8968C2.43531 16.1395 1.78525 17.2608 2.06354 18.1613C2.17186 18.5119 2.36819 18.8316 2.63534 19.0926C3.32163 19.7631 4.66018 19.7631 7.33728 19.7631M6.81856 8.57849L7.36018 12.1215M6.81856 8.57849L3.33053 9.8626" stroke="#141B34" stroke-width="1.5" stroke-linecap="round" stroke-linejoin="round"/>
<path opacity="0.4" d="M10.8389 19.7633H16.4674C19.3327 19.7633 20.7654 19.7633 21.4625 19.004C21.6581 18.791 21.8096 18.5442 21.9089 18.2769C22.263 17.3241 21.5672 16.124 20.1757 13.7236M10.8389 19.7633L13.7566 17.5264M10.8389 19.7633L13.7566 22.0002" stroke="#141B34" stroke-width="1.5" stroke-linecap="round" stroke-linejoin="round"/>
</svg>
