<svg width="24" height="24" viewBox="0 0 24 24" fill="none" xmlns="http://www.w3.org/2000/svg">
<path d="M4 16C4 11.5817 7.58172 8 12 8C16.4183 8 20 11.5817 20 16V18.1818C20 18.9423 20 19.3225 19.9314 19.6377C19.6818 20.7854 18.7854 21.6818 17.6377 21.9314C17.3225 22 16.9423 22 16.1818 22H7.81818C7.05771 22 6.67747 22 6.3623 21.9314C5.21464 21.6818 4.31822 20.7854 4.06856 19.6377C4 19.3225 4 18.9423 4 18.1818V16Z" stroke="#141B34" stroke-width="1.5" stroke-linecap="round" stroke-linejoin="round"/>
<path opacity="0.4" d="M12 8V5M12 5C12.8284 5 13.5 4.32843 13.5 3.5C13.5 2.67157 12.8284 2 12 2C11.1716 2 10.5 2.67157 10.5 3.5C10.5 4.32843 11.1716 5 12 5Z" stroke="#141B34" stroke-width="1.5" stroke-linecap="round" stroke-linejoin="round"/>
<path d="M9 13V14M15 13V14" stroke="#141B34" stroke-width="1.5" stroke-linecap="round" stroke-linejoin="round"/>
<path opacity="0.4" d="M4 18.5H8.09861C8.66175 18.5 9.18763 18.2186 9.5 17.75C9.81237 17.2814 10.3383 17 10.9014 17H13.0986C13.6617 17 14.1876 17.2814 14.5 17.75C14.8124 18.2186 15.3383 18.5 15.9014 18.5H20" stroke="#141B34" stroke-width="1.5" stroke-linecap="round" stroke-linejoin="round"/>
</svg>
