<svg width="24" height="24" viewBox="0 0 24 24" fill="none" xmlns="http://www.w3.org/2000/svg">
<path d="M20.0072 14.5663L19.3588 14.1733C18.7986 13.8509 18.358 13.3566 18.1021 12.7636L15.6801 7.15119C15.5927 6.94883 15.4729 6.78006 15.3281 6.64115C14.6877 6.02707 13.5808 6.28715 13.0433 6.99244C12.0507 8.29466 13.384 9.52769 13.1023 10.6135L5.35914 6.26107C3.55805 5.28931 2.00246 7.87092 3.79283 9.06351L8.37613 11.6126C7.49346 12.7652 5.25518 18.3552 8.12347 20.06C8.28652 20.157 8.46726 20.2215 8.64858 20.2775C8.76523 20.3135 8.88192 20.3498 8.99767 20.3859C9.89796 20.6669 11.6004 21.0201 12.7668 20.9184C13.9812 20.8125 14.7422 21.4599 15.68 21.9997" stroke="#141B34" stroke-width="1.5" stroke-linecap="round" stroke-linejoin="round"/>
<path opacity="0.4" d="M9.3619 4.96465C9.75879 5.3603 11.4854 5.24616 12.1223 5.16671M9.3619 4.96465C8.96501 4.56901 8.95364 2.63697 9.03334 2.00208M9.3619 4.96465C10.383 3.19642 14.4425 0.375877 18.4709 3.19642C20.4176 4.55942 20.6923 5.41838 21.0001 5.99381" stroke="#141B34" stroke-width="1.5" stroke-linecap="round" stroke-linejoin="round"/>
</svg>
