<svg width="24" height="24" viewBox="0 0 24 24" fill="none" xmlns="http://www.w3.org/2000/svg">
<path d="M6.00047 19C4.5942 18.0625 3.80593 16.9647 3.39424 15.9482C3.10646 15.2376 2.96258 14.8823 3.25987 14.4411C3.55716 14 4.03827 14 5.00047 14H19.0005C19.9627 14 20.4438 14 20.7411 14.4411C21.0384 14.8823 20.8945 15.2376 20.6067 15.9482C20.195 16.9647 19.4068 18.0625 18.0005 19" stroke="#141B34" stroke-width="1.5" stroke-linecap="round"/>
<path d="M2 21.6083C2.79944 22.106 3.83288 22.106 4.65182 21.6083C5.95823 20.7972 7.6546 20.7972 8.9805 21.6083C8.9805 21.6267 9.00001 21.6267 9.00001 21.6267C9.79945 22.1244 10.8524 22.1244 11.6518 21.6267C12.9777 20.8157 14.6741 20.8157 16 21.6267C16.7994 22.1244 17.8329 22.106 18.6518 21.6083C19.6529 20.9868 20.8831 20.8415 22 21.1726" stroke="#141B34" stroke-width="1.5" stroke-linecap="round"/>
<path opacity="0.4" d="M14 14V3M15.1049 3.67393L17.0016 6.92522C17.7979 8.29018 18.1961 8.97266 17.9047 9.48633C17.6133 10 16.8281 10 15.2575 10H10.326C8.32157 10 7.31937 10 7.05561 9.38447C6.79185 8.76895 7.47873 8.03307 8.85247 6.56134L11.8873 3.31006C12.7349 2.40195 13.1587 1.9479 13.6615 2.00476C14.1643 2.06161 14.4778 2.59905 15.1049 3.67393Z" stroke="#141B34" stroke-width="1.5" stroke-linecap="round"/>
</svg>
