<svg width="24" height="24" viewBox="0 0 24 24" fill="none" xmlns="http://www.w3.org/2000/svg">
<path opacity="0.4" d="M14.0002 16.4885C14.8286 16.4885 15.5002 15.8175 15.5002 14.9898C15.5002 14.1621 14.8286 13.4911 14.0002 13.4911M14.0002 16.4885L20.1172 17.7347C20.9142 17.8629 21.5002 18.5502 21.5002 19.3568C21.5002 20.3551 20.6164 21.1227 19.6269 20.9837L10.8333 19.486C10.8333 19.486 7.81555 19.1582 6.95041 18.8274C5.31084 18.4234 4.25877 17.4877 2.5 17.4877M14.0002 16.4885H12.0002C11.1717 16.4885 10.5002 15.8175 10.5002 14.9898C10.5002 14.1621 11.1717 13.4911 12.0002 13.4911H12.5001M15.0002 10.4936C15.8283 10.4933 16.4995 9.82241 16.4995 8.9949C16.4995 8.16718 15.828 7.49618 14.9995 7.49618L13.0002 7.49639C12.1717 7.49639 11.5002 8.16739 11.5002 8.99511C11.5002 9.82284 12.1717 10.4938 13.0002 10.4938M15.0002 10.4936L13.0002 10.4938M15.0002 10.4936H14.5002C15.3286 10.4936 16.0002 11.1646 16.0002 11.9924C16.0002 12.8201 15.3286 13.4911 14.5002 13.4911H12.5001M13.0002 10.4938L12.5002 10.4938C11.6718 10.4937 11.0002 11.1647 11.0002 11.9924C11.0002 12.8201 11.6717 13.4911 12.5001 13.4911M11.0377 7.49618L12.6631 5.87725C13.3763 5.16693 13.3112 3.99687 12.5237 3.36934C11.9211 2.88917 11.0686 2.87591 10.4513 3.33709L5.85304 6.93373C4.97328 7.62186 3.61728 7.99575 2.5 7.99575" stroke="#141B34" stroke-width="1.5" stroke-linecap="round" stroke-linejoin="round"/>
<path d="M14.0002 16.4884C14.8286 16.4884 15.5002 15.8174 15.5002 14.9897C15.5002 14.162 14.8286 13.491 14.0002 13.491M14.0002 16.4884L20.1172 17.7346C20.9142 17.8628 21.5002 18.5501 21.5002 19.3567C21.5002 20.355 20.6164 21.1226 19.6269 20.9836L10.8333 19.4859C10.8333 19.4859 7.81555 19.1581 6.95041 18.8273C5.31084 18.4233 4.25877 17.4876 2.5 17.4876M14.0002 16.4884H12.0002C11.1717 16.4884 10.5002 15.8174 10.5002 14.9897C10.5002 14.162 11.1717 13.491 12.0002 13.491H12.5001M15.0002 10.4935C15.8283 10.4932 16.4995 9.82233 16.4995 8.99482C16.4995 8.1671 15.828 7.49609 14.9995 7.49609L13.0002 7.4963C12.1717 7.4963 11.5002 8.1673 11.5002 8.99503C11.5002 9.82275 12.1717 10.4938 13.0002 10.4938M15.0002 10.4935L13.0002 10.4938M15.0002 10.4935H14.5002C15.3286 10.4935 16.0002 11.1645 16.0002 11.9923C16.0002 12.82 15.3286 13.491 14.5002 13.491H12.5001M13.0002 10.4938L12.5002 10.4937C11.6718 10.4936 11.0002 11.1646 11.0002 11.9923C11.0002 12.82 11.6717 13.491 12.5001 13.491" stroke="#141B34" stroke-width="1.5" stroke-linecap="round" stroke-linejoin="round"/>
</svg>
