<svg width="24" height="24" viewBox="0 0 24 24" fill="none" xmlns="http://www.w3.org/2000/svg">
<path d="M3 11.0071V15.504C3 18.3304 3 19.7436 3.87868 20.6217C4.75736 21.4998 6.17157 21.4998 9 21.4998H15C17.8284 21.4998 19.2426 21.4998 20.1213 20.6217C21 19.7436 21 18.3304 21 15.504V11.0071" stroke="#141B34" stroke-width="1.5"/>
<path opacity="0.4" d="M7 18.0022H11" stroke="#141B34" stroke-width="1.5" stroke-linecap="round"/>
<path d="M17.7957 2.50294L6.14983 2.532C4.41166 2.44252 3.966 3.7817 3.966 4.43634C3.966 5.02184 3.89055 5.87539 2.82524 7.47964C1.75993 9.08389 1.83998 9.56047 2.44071 10.6711C2.93928 11.5928 4.20741 11.9529 4.86862 12.0134C6.96883 12.0612 7.99065 10.2463 7.99065 8.97074C9.03251 12.1758 11.9955 12.1758 13.3158 11.8093C14.6385 11.4421 15.7717 10.1278 16.0391 8.97074C16.195 10.4087 16.6682 11.2478 18.0663 11.8243C19.5145 12.4215 20.7599 11.5087 21.3848 10.9236C22.0096 10.3385 22.4107 9.03947 21.2967 7.61175C20.5285 6.62715 20.2084 5.69958 20.1032 4.73822C20.0423 4.18118 19.9888 3.58261 19.5971 3.20171C19.0247 2.64505 18.2035 2.47615 17.7957 2.50294Z" stroke="#141B34" stroke-width="1.5" stroke-linecap="round" stroke-linejoin="round"/>
</svg>
