<svg width="24" height="24" viewBox="0 0 24 24" fill="none" xmlns="http://www.w3.org/2000/svg">
<path opacity="0.4" d="M15.0049 4.49803H21.0011M15.0049 4.49803C15.0049 3.79835 16.9979 2.49114 17.5033 2M15.0049 4.49803C15.0049 5.1977 16.9979 6.50491 17.5033 6.99605" stroke="#141B34" stroke-width="1.5" stroke-linecap="round" stroke-linejoin="round"/>
<path d="M6.53208 14.4488V9.98304M6.53208 9.98304V4.46523C6.53208 3.64523 7.21618 2.98438 8.03712 2.98438C8.85806 2.98438 9.50495 3.64523 9.50495 4.46523V8.46313M6.53208 9.98304C5.2158 11.1745 3.79936 12.6795 3.60861 13.0651C2.72109 14.4145 2.81411 15.0678 3.80319 16.719C4.64328 18.1215 5.77306 19.6779 5.83902 19.7525C6.51027 20.5124 6.37681 20.5125 7.34973 21.2261C8.21853 21.8284 10.0207 22.248 14.2453 21.8284C17.687 21.2973 18.5116 18.2965 18.4937 16.8624V13.321C18.708 10.3775 17.4763 10.2447 15.2398 9.95498M9.50495 8.46313V10.9879M9.50495 8.46313C10.063 7.554 12.0901 7.9214 12.4852 9.63817M12.4852 9.63817C12.4868 9.64539 12.4885 9.65264 12.4901 9.65991C12.4964 9.68872 12.5016 9.71775 12.5058 9.74692M12.4852 9.63817C12.4893 9.67315 12.4961 9.7094 12.5058 9.74692M12.4852 9.63817C12.3449 8.44158 15.3804 8.73327 15.504 10.8377V11.9814M12.5209 10.9839V9.98304C12.5209 9.90413 12.517 9.82498 12.5058 9.74692" stroke="#141B34" stroke-width="1.5" stroke-linecap="round"/>
</svg>
