<svg width="24" height="24" viewBox="0 0 24 24" fill="none" xmlns="http://www.w3.org/2000/svg">
<path opacity="0.4" d="M19.5031 2V7.99606M19.5031 2C18.8034 2 17.496 3.99299 17.0049 4.49836M19.5031 2C20.2028 2 21.5102 3.99299 22.0013 4.49836" stroke="#141B34" stroke-width="1.5" stroke-linecap="round" stroke-linejoin="round"/>
<path d="M5.53358 14.4506V9.9841M5.53358 9.9841V4.46545C5.53358 3.64533 6.2178 2.98438 7.03884 2.98438C7.8599 2.98438 8.50689 3.64533 8.50689 4.46545V8.46396M5.53358 9.9841C4.2171 11.1757 2.80045 12.681 2.60968 13.0666C1.72202 14.4163 1.81506 15.0697 2.80429 16.7211C3.6445 18.1238 4.77446 19.6804 4.84042 19.7551C5.51177 20.5151 5.37829 20.5152 6.35135 21.2288C7.22029 21.8312 9.02264 22.251 13.248 21.8312C16.6902 21.3001 17.5149 18.2989 17.4969 16.8646V13.3226C17.7114 10.3787 16.4795 10.2458 14.2426 9.95604M8.50689 8.46396V10.9892M8.50689 8.46396C9.0651 7.55469 11.0925 7.92214 11.4876 9.63918M11.4876 9.63918C11.4893 9.6464 11.4909 9.65365 11.4925 9.66092C11.4989 9.68973 11.5041 9.71876 11.5082 9.74795M11.4876 9.63918C11.4917 9.67416 11.4985 9.71042 11.5082 9.74795M11.4876 9.63918C11.3473 8.4424 14.3832 8.73415 14.5068 10.8388V11.9827M11.5233 10.9852V9.9841C11.5233 9.90518 11.5194 9.82601 11.5082 9.74795" stroke="#141B34" stroke-width="1.5" stroke-linecap="round"/>
</svg>
