<svg width="24" height="24" viewBox="0 0 24 24" fill="none" xmlns="http://www.w3.org/2000/svg">
<path d="M22 18C21.8011 18.6891 21.4991 19.2323 21.0408 19.682C19.6974 21 17.5354 21 13.2113 21H11.1729C6.84873 21 4.68667 21 3.34333 19.682C2 18.364 2 16.2426 2 12C2 7.75736 2 5.63604 3.34333 4.31802C4.68667 3 6.84873 3 11.1729 3H13.2113C17.5354 3 19.6974 3 21.0408 4.31802C21.4991 4.76771 21.8011 5.31092 22 5.99999" stroke="#141B34" stroke-width="1.5" stroke-linecap="round"/>
<path d="M6.5 3.5V20.5" stroke="#141B34" stroke-width="1.5" stroke-linejoin="round"/>
<path opacity="0.4" d="M19.6098 11.9959C19.6098 12.6521 20.1417 13.184 20.7978 13.184C21.454 13.184 21.9859 12.6521 21.9859 11.9959C21.9859 11.3398 21.454 10.8078 20.7978 10.8078C20.1417 10.8078 19.6098 11.3398 19.6098 11.9959ZM19.6098 11.9959L10.0117 11.9998M12.3713 8.51416L13.493 8.55772C13.896 8.57337 14.2501 8.82951 14.3911 9.2073L15.423 11.9976M14.1803 15.4859L15.3021 15.4424C15.705 15.4267 16.0591 15.1706 16.2001 14.7928L17.2176 11.9969" stroke="#141B34" stroke-width="1.5" stroke-linecap="round" stroke-linejoin="round"/>
</svg>
