<svg width="24" height="24" viewBox="0 0 24 24" fill="none" xmlns="http://www.w3.org/2000/svg">
<path d="M13.9821 19L11.0933 10.7479C9.75191 6.91597 9.0812 5 7.99106 5C6.90092 5 6.23021 6.91597 4.88878 10.7479L2 19" stroke="#141B34" stroke-width="1.5" stroke-linecap="round"/>
<path d="M4.49609 12H11.4857" stroke="#141B34" stroke-width="1.5" stroke-linecap="round"/>
<path opacity="0.4" d="M21.9455 14.0331V18.5331M21.9455 14.0331C21.9927 13.21 22.0442 12.5882 21.9455 12.0763C21.7129 10.8699 20.857 10.0372 19.191 9.97963C17.9261 9.93596 16.9753 10.0583 16.1728 11.4997M21.9455 14.0331L19.1213 13.9721C18.6851 13.9721 18.1806 13.9861 17.7603 14.1031C15.3319 14.7792 15.4291 18.4942 18.0055 18.9389C18.2917 18.9882 18.5838 19.0094 18.8736 18.9965C19.5502 18.9662 20.1745 18.6389 20.7102 18.2239C21.2323 17.7636 21.9455 17.0593 21.9455 16.0331V14.0331Z" stroke="#141B34" stroke-width="1.5" stroke-linecap="round" stroke-linejoin="round"/>
</svg>
