<svg width="24" height="24" viewBox="0 0 24 24" fill="none" xmlns="http://www.w3.org/2000/svg">
<path d="M5.61785 16.9792L5.00367 17.4096C5.01492 17.4257 5.02678 17.4413 5.03925 17.4564L5.61785 16.9792ZM7.67744 19.4764L8.25604 18.9992H8.25604L7.67744 19.4764ZM8.09844 9.55121C8.40287 9.27033 8.42195 8.79584 8.14107 8.49141C7.86018 8.18698 7.38569 8.1679 7.08126 8.44879L8.09844 9.55121ZM4.00535 13.9372L3.25676 13.9831L4.00535 13.9372ZM4.06095 13.1756L4.79498 13.3295L4.06095 13.1756ZM19.6989 17.668L20.4018 17.9295V17.9295L19.6989 17.668ZM6.86291 13.5C6.86291 13.9142 7.19869 14.25 7.61291 14.25C8.02712 14.25 8.36291 13.9142 8.36291 13.5H6.86291ZM13.0565 11C13.0565 11.4142 13.3922 11.75 13.8065 11.75C14.2207 11.75 14.5565 11.4142 14.5565 11H13.0565ZM12.1975 8.04885L12.3573 7.31608L12.1975 8.04885ZM16.1532 12C16.1532 12.4142 16.489 12.75 16.9032 12.75C17.3174 12.75 17.6532 12.4142 17.6532 12H16.1532ZM17.8904 10.1594L17.7709 10.8998L17.7709 10.8998L17.8904 10.1594ZM20 12.1923H20.75V12.1915L20 12.1923ZM9.95968 11C9.95968 11.4142 10.2955 11.75 10.7097 11.75C11.1239 11.75 11.4597 11.4142 11.4597 11H9.95968ZM7.37903 22C7.37903 22.4142 7.71482 22.75 8.12903 22.75C8.54325 22.75 8.87903 22.4142 8.87903 22H7.37903ZM18.6493 19.3462L18.1048 18.8305H18.1048L18.6493 19.3462ZM17.1136 22C17.1136 22.4142 17.4494 22.75 17.8636 22.75C18.2778 22.75 18.6136 22.4142 18.6136 22H17.1136ZM5.03925 17.4564L7.09883 19.9536L8.25604 18.9992L6.19645 16.502L5.03925 17.4564ZM6.23202 16.5487C5.7026 15.7934 5.33736 15.2708 5.09299 14.8372C4.85546 14.4157 4.76922 14.1404 4.75395 13.8913L3.25676 13.9831C3.29131 14.5464 3.49043 15.0488 3.78625 15.5737C4.07522 16.0864 4.49131 16.6786 5.00367 17.4096L6.23202 16.5487ZM4.75395 13.8913C4.74242 13.7033 4.75617 13.5146 4.79498 13.3295L3.32692 13.0216C3.26061 13.3377 3.237 13.6609 3.25676 13.9831L4.75395 13.8913ZM19.25 13.8347C19.25 14.852 19.2497 15.5808 19.2138 16.1572C19.1783 16.7276 19.1101 17.0996 18.996 17.4065L20.4018 17.9295C20.5888 17.427 20.6711 16.8903 20.7109 16.2504C20.7503 15.6165 20.75 14.8334 20.75 13.8347H19.25ZM8.36291 13.5V3.5H6.86291V13.5H8.36291ZM9.95968 3.5V8.5H11.4597V3.5H9.95968ZM9.16129 2.75C9.62485 2.75 9.95968 3.10805 9.95968 3.5H11.4597C11.4597 2.23509 10.408 1.25 9.16129 1.25V2.75ZM8.36291 3.5C8.36291 3.10805 8.69773 2.75 9.16129 2.75V1.25C7.91455 1.25 6.86291 2.23509 6.86291 3.5H8.36291ZM13.0565 10V11H14.5565V10H13.0565ZM12.0376 8.78161C12.6371 8.91241 13.0565 9.42272 13.0565 10H14.5565C14.5565 8.6714 13.5998 7.58715 12.3573 7.31608L12.0376 8.78161ZM16.1532 11V12H17.6532V11H16.1532ZM14.8387 9.75C15.5873 9.75 16.1532 10.3319 16.1532 11H17.6532C17.6532 9.45895 16.3705 8.25 14.8387 8.25V9.75ZM9.95968 8.5V11H11.4597V8.5H9.95968ZM7.37903 20.7248V22H8.87903V20.7248H7.37903ZM18.996 17.4065C18.7988 17.9365 18.4944 18.419 18.1048 18.8305L19.1939 19.8619C19.7181 19.3083 20.1322 18.6541 20.4018 17.9295L18.996 17.4065ZM17.1136 21.0449V22H18.6136V21.0449H17.1136ZM18.1048 18.8305C17.589 19.3752 17.1136 20.1359 17.1136 21.0449H18.6136C18.6136 20.6714 18.8147 20.2623 19.1939 19.8619L18.1048 18.8305ZM7.09883 19.9536C7.28192 20.1756 7.37903 20.4477 7.37903 20.7248H8.87903C8.87903 20.0946 8.65765 19.4862 8.25604 18.9992L7.09883 19.9536ZM19.25 12.1923V13.8347H20.75V12.1923H19.25ZM17.6532 11C17.6532 10.9375 17.7092 10.8898 17.7709 10.8998L18.01 9.41898C17.0363 9.26177 16.1532 10.0137 16.1532 11H17.6532ZM14.5565 10C14.5565 9.88105 14.6582 9.75 14.8387 9.75V8.25C13.9061 8.25 13.0565 8.97833 13.0565 10H14.5565ZM17.7709 10.8998C18.2298 10.9739 18.6144 11.1314 18.8694 11.3467C19.1016 11.5427 19.2496 11.8018 19.25 12.193L20.75 12.1915C20.7491 11.3344 20.3871 10.665 19.8372 10.2006C19.3101 9.75557 18.6406 9.5208 18.01 9.41898L17.7709 10.8998ZM11.0366 9.17499C11.1594 9.11553 11.2994 9.0408 11.4015 8.9884C11.5154 8.92991 11.613 8.88267 11.7044 8.84622C11.8919 8.77142 11.9859 8.77033 12.0376 8.78161L12.3573 7.31608C11.8855 7.21314 11.4613 7.32828 11.1487 7.45294C10.8724 7.56315 10.5277 7.7548 10.3827 7.82501L11.0366 9.17499ZM4.79498 13.3295C4.92668 12.7016 5.37518 12.0678 6.0334 11.4035C6.35503 11.0789 6.70689 10.7662 7.06429 10.4567C7.41361 10.1541 7.78165 9.84351 8.09844 9.55121L7.08126 8.44879C6.7876 8.71975 6.45367 9.00116 6.08231 9.32275C5.71904 9.63735 5.33153 9.98076 4.9679 10.3477C4.25563 11.0665 3.55014 11.9573 3.32692 13.0216L4.79498 13.3295Z" fill="#141B34"/>
</svg>
