<svg width="24" height="24" viewBox="0 0 24 24" fill="none" xmlns="http://www.w3.org/2000/svg">
<path d="M6.93745 10C6.24652 10.0051 5.83075 10.0263 5.49959 10.114C3.99237 10.5131 2.96048 11.8639 3.0011 13.3847C3.01287 13.8252 3.18056 14.3696 3.51595 15.4585C4.32308 18.079 5.67958 20.3539 8.71839 20.8997C9.27698 21 9.90555 21 11.1627 21L12.8372 21C14.0943 21 14.7229 21 15.2815 20.8997C18.3203 20.3539 19.6768 18.079 20.4839 15.4585C20.8193 14.3696 20.987 13.8252 20.9988 13.3847C21.0394 11.8639 20.0075 10.5131 18.5003 10.114C18.1691 10.0263 17.7534 10.0051 17.0624 10" stroke="#141B34" stroke-width="1.5" stroke-linecap="round"/>
<path opacity="0.4" d="M11.9999 3L11.9999 14M11.9999 3C12.4683 3 12.8243 3.4381 13.5364 4.3143L14.4999 5.5M11.9999 3C11.5316 3 11.1756 3.4381 10.4635 4.3143L9.49995 5.5" stroke="#141B34" stroke-width="1.5" stroke-linecap="round" stroke-linejoin="round"/>
</svg>
