<svg width="24" height="24" viewBox="0 0 24 24" fill="none" xmlns="http://www.w3.org/2000/svg">
<path opacity="0.4" d="M2 21.195C2.68524 22.2461 3.57104 22.2461 4.27299 21.195C6.52985 17.7426 8.67954 23.6782 10.273 21.2339C12.703 17.5712 14.4508 23.9236 16.273 21.195C18.6492 17.56 20.1295 23.5794 22 21.586" stroke="#141B34" stroke-width="1.5" stroke-linecap="round"/>
<path d="M17.6184 17.006C18.3131 16.4016 19.9447 14.7083 20.3627 12.0873C20.7506 10.477 20.5232 6.89995 17.9129 4.44352C16.1746 2.70631 11.565 0.181035 6.5503 3.97758C5.54789 4.78547 3.71926 7.00928 3.51106 9.93124C3.30286 12.8532 4.57349 14.8434 5.22063 15.6261C5.53845 15.9699 5.6944 16.1714 6.02643 16.472C6.31267 16.7311 6.43154 16.8162 6.66416 17.0034C8.07023 17.0563 11.2393 16.4011 13.3709 15.0401C13.8436 14.8179 15.0503 14.05 16.0332 12.6862M4.17227 12.799C5.35359 13.2713 8.38935 13.8269 11.3207 11.103M11.5404 10.8708C12.976 10.5691 16.5886 10.8708 18.8331 14.8027M7.6968 3.48452C6.58965 5.42904 6.33215 10.5977 7.92835 12.521M11.6466 10.8853C10.8934 9.04905 10.3472 4.55529 12.095 2.24473M11.5124 6.33732C13.2591 6.07322 17.575 6.91806 20.4894 10.4974" stroke="#141B34" stroke-width="1.5" stroke-linecap="round" stroke-linejoin="round"/>
</svg>
