<svg width="24" height="24" viewBox="0 0 24 24" fill="none" xmlns="http://www.w3.org/2000/svg">
<path d="M15 22H10.7273C7.46607 22 5.83546 22 4.70307 21.2022C4.37862 20.9736 4.09058 20.7025 3.8477 20.3971C3 19.3313 3 17.7966 3 14.7273V12.1818C3 9.21865 3 7.73706 3.46894 6.55375C4.22281 4.65142 5.81714 3.15088 7.83836 2.44135C9.09563 2 10.6698 2 13.8182 2C15.6173 2 16.5168 2 17.2352 2.2522C18.3902 2.65765 19.3012 3.5151 19.732 4.60214C20 5.27832 20 6.12494 20 7.81818V10" stroke="#141B34" stroke-width="1.5" stroke-linecap="round" stroke-linejoin="round"/>
<path d="M3 12C3 10.1591 4.49238 8.66667 6.33333 8.66667C6.99912 8.66667 7.78404 8.78333 8.43137 8.60988C9.00652 8.45576 9.45576 8.00652 9.60988 7.43136C9.78333 6.78404 9.66667 5.99912 9.66667 5.33333C9.66667 3.49238 11.1591 2 13 2" stroke="#141B34" stroke-width="1.5" stroke-linecap="round" stroke-linejoin="round"/>
<path opacity="0.4" d="M7 12.9999H9.56051C9.81216 12.9999 10.4075 13.4521 10.2503 13.6485L7.3447 17.0558C7.0827 17.3832 7.21795 17.9999 7.63735 17.9999H10.3758M13.0021 12.9999H14.2526M14.2526 12.9999H15.503M14.2526 12.9999V17.8095M13.0021 17.9999H15.503M18.0039 17.9999V13.6485C18.0039 13.6485 17.9705 13.2316 18.2565 13.1049C18.5156 12.9902 19.2999 12.9972 19.4454 12.9995C19.461 12.9998 19.4765 12.9999 19.4921 13.0001C20.1352 13.0069 20.8197 13.2963 20.963 13.9219C21.0123 14.1367 21.0124 14.3459 20.963 14.5629C20.8173 15.2035 20.1126 15.4999 19.4555 15.4999H18.0039" stroke="#141B34" stroke-width="1.5" stroke-linecap="round" stroke-linejoin="round"/>
</svg>
