<svg xmlns="http://www.w3.org/2000/svg" viewBox="0 0 576 512"><!--! Font Awesome Pro 6.7.2 by @fontawesome - https://fontawesome.com License - https://fontawesome.com/license (Commercial License) Copyright 2024 Fonticons, Inc. --><defs><style>.fa-secondary{opacity:.4}</style></defs><path class="fa-secondary" d="M32 320c0-17.7 14.3-32 32-32l32 0 160 0 32 0 160 0 64 0c17.7 0 32 14.3 32 32l0 93.3c-8.2-3.5-16.1-8.3-22.8-13.8c-22.2-18.7-54.3-20.1-78.1-3.4c-18 12.4-40.1 20.3-59.2 20.3c-19.6 0-40.8-7.7-59.2-20.3c-22.1-15.5-51.6-15.5-73.7 0c-17.1 11.8-38 20.3-59.2 20.3c-19 0-41.2-7.9-59.2-20.3c-23.8-16.7-55.8-15.4-78.1 3.4c-6.7 5.5-14.6 10.3-22.8 13.8L32 320zM96 48c0-8.8 7.2-16 16-16l128 0c8.8 0 16 7.2 16 16l0 208L96 256 96 48z"/><path class="fa-primary" d="M112 32c-8.8 0-16 7.2-16 16l0 208 160 0 0-208c0-8.8-7.2-16-16-16L112 32zM288 48l0 208 144 0 0-201.4-68.7 68.7c-6.2 6.2-16.4 6.2-22.6 0s-6.2-16.4 0-22.6l96-96c6.2-6.2 16.4-6.2 22.6 0l96 96c6.2 6.2 6.2 16.4 0 22.6s-16.4 6.2-22.6 0L464 54.6 464 256l48 0c35.3 0 64 28.7 64 64l0 105c-5.3-3.1-11.2-5.4-17.5-6.9c-4.8-1.1-9.7-2.8-14.5-4.8l0-93.3c0-17.7-14.3-32-32-32l-64 0-160 0-32 0L96 288l-32 0c-17.7 0-32 14.3-32 32l0 93.3c-4.8 2.1-9.7 3.7-14.5 4.8C11.2 419.6 5.3 421.9 0 425L0 320c0-35.3 28.7-64 64-64L64 48C64 21.5 85.5 0 112 0L240 0c26.5 0 48 21.5 48 48zM192 480c20.9 0 41.6-9.9 58.2-21.2c9.8-6.7 18-14 25.9-21.9c6.6-6.5 17.2-6.5 23.7 0c7.9 7.9 16.2 15.2 26 21.9C342.3 470 363.1 480 384 480s41.6-9.9 58.2-21.2c9.8-6.7 18-14 25.9-21.9c6.6-6.5 17.2-6.6 23.7 0c7.9 7.9 16.2 15.2 26 21.9c12.8 8.7 28.1 16.6 44.1 19.8c7.7 1.5 14.1 7.8 14.1 15.7c0 9.8-8 17.9-17.7 16.2c-23.1-4-43.6-15-58.5-25.2c-7.9-5.4-14.7-10.8-19.8-15.3c-5.1 4.5-11.8 9.9-19.8 15.3C441.5 497.9 414.3 512 384 512s-57.6-14.1-76.2-26.8c-7.9-5.4-14.7-10.8-19.8-15.3c-5.1 4.5-11.8 9.9-19.8 15.3C249.5 497.9 222.3 512 192 512s-57.6-14.1-76.2-26.8c-7.9-5.4-14.6-10.8-19.8-15.3c-5.1 4.5-11.8 9.9-19.8 15.3c-14.9 10.2-35.4 21.2-58.5 25.2C8 512.1 0 504 0 494.2c0-7.9 6.4-14.1 14.1-15.7c15.9-3.1 31.3-11.1 44-19.8c9.8-6.7 18-14 25.9-21.9c6.6-6.5 17.2-6.6 23.8 0c7.9 7.9 16.2 15.2 25.9 21.9C150.3 470 171.1 480 192 480z"/></svg>