<svg xmlns="http://www.w3.org/2000/svg" viewBox="0 0 512 512"><!--! Font Awesome Pro 6.7.2 by @fontawesome - https://fontawesome.com License - https://fontawesome.com/license (Commercial License) Copyright 2024 Fonticons, Inc. --><defs><style>.fa-secondary{opacity:.4}</style></defs><path class="fa-secondary" d="M32 256c0 22.7 3.4 44.7 9.7 65.4c2-.9 4.2-1.4 6.5-1.4l15.1 0 80.9 0c8.8 0 16 7.2 16 16s-7.2 16-16 16l-54.5 0c33.2 57.4 95.2 96 166.3 96c90.4 0 166.2-62.5 186.6-146.6c1.9-7.7 8.6-13.4 16.5-13.4c9.7 0 17.3 8.5 15.3 18c3.7-16.1 5.6-32.8 5.6-50c0-22.7-3.4-44.6-9.7-65.3c-1.9 .8-4.1 1.3-6.3 1.3l-15.3 0L368 192c-8.8 0-16-7.2-16-16s7.2-16 16-16l54.3 0C389.1 102.6 327.1 64 256 64C165.6 64 89.8 126.5 69.4 210.6C67.5 218.3 60.9 224 53 224c-9.9 0-17.5-8.8-15.3-18.4c1-4.5 2.2-8.9 3.5-13.2c-6 20.2-9.2 41.5-9.2 63.6z"/><path class="fa-primary" d="M69.4 210.6C89.8 126.5 165.6 64 256 64c71.1 0 133.1 38.6 166.3 96L368 160c-8.8 0-16 7.2-16 16s7.2 16 16 16l80.7 0 15.3 0c8.8 0 16-7.2 16-16l0-96c0-8.8-7.2-16-16-16s-16 7.2-16 16l0 60.6C408.8 75.5 337.5 32 256 32C149.6 32 60.5 106.2 37.7 205.6C35.5 215.2 43.1 224 53 224c7.9 0 14.6-5.7 16.5-13.4zm373.2 90.9C422.2 385.5 346.4 448 256 448c-71.1 0-133.1-38.6-166.3-96l54.5 0c8.8 0 16-7.2 16-16s-7.2-16-16-16l-80.9 0-15.1 0c-8.8 0-16 7.2-16 16l0 96c0 8.8 7.2 16 16 16s16-7.2 16-16l0-60.2C103.4 436.6 174.7 480 256 480c106.4 0 195.5-74.2 218.3-173.6c2.2-9.6-5.4-18.4-15.3-18.4c-7.9 0-14.6 5.7-16.5 13.4z"/></svg>