<svg xmlns="http://www.w3.org/2000/svg" viewBox="0 0 640 512"><!--! Font Awesome Pro 6.7.2 by @fontawesome - https://fontawesome.com License - https://fontawesome.com/license (Commercial License) Copyright 2024 Fonticons, Inc. --><defs><style>.fa-secondary{opacity:.4}</style></defs><path class="fa-secondary" d="M32 384l240 0 336 0 0 32L32 416l0-32zM192 240a48 48 0 1 1 -96 0 48 48 0 1 1 96 0zm96-32c0-8.8 7.2-16 16-16l50.3 0c.9 1.8 1.8 3.6 2.7 5.5c8.5 16.9 26 27.3 44.9 26.5s35.6-12.6 42.6-30.1c.2-.6 .5-1.2 .7-1.8l82.7 0c44.2 0 80 35.8 80 80l0 80-320 0 0-144z"/><path class="fa-primary" d="M478.3 8.8L505.9 64 624 64c8.8 0 16 7.2 16 16s-7.2 16-16 16L496 96c-6.1 0-11.6-3.4-14.3-8.8L465.6 55 414.9 181.9c-2.3 5.8-7.9 9.8-14.2 10s-12.2-3.2-15-8.8L342.1 96 208 96c-8.8 0-16-7.2-16-16s7.2-16 16-16l144 0c6.1 0 11.6 3.4 14.3 8.8L398.4 137 449.1 10.1c2.3-5.9 7.9-9.8 14.2-10s12.2 3.2 15 8.8zM304 160l34.3 0 16 32L304 192c-8.8 0-16 7.2-16 16l0 144 320 0 0-80c0-44.2-35.8-80-80-80l-82.7 0 12.8-32 69.9 0c61.9 0 112 50.1 112 112l0 96 0 64 0 64c0 8.8-7.2 16-16 16s-16-7.2-16-16l0-48L32 448l0 48c0 8.8-7.2 16-16 16s-16-7.2-16-16l0-64 0-64L0 80c0-8.8 7.2-16 16-16s16 7.2 16 16l0 272 224 0 0-144c0-26.5 21.5-48 48-48zM608 416l0-32-336 0L32 384l0 32 576 0zM192 240a48 48 0 1 0 -96 0 48 48 0 1 0 96 0zM64 240a80 80 0 1 1 160 0A80 80 0 1 1 64 240z"/></svg>