<svg xmlns="http://www.w3.org/2000/svg" viewBox="0 0 448 512"><!--! Font Awesome Pro 6.7.2 by @fontawesome - https://fontawesome.com License - https://fontawesome.com/license (Commercial License) Copyright 2024 Fonticons, Inc. --><defs><style>.fa-secondary{opacity:.4}</style></defs><path class="fa-secondary" d="M32 96c0-17.7 14.3-32 32-32l352 0 0 72c-13.3 0-24 10.7-24 24s10.7 24 24 24l0 48c-13.3 0-24 10.7-24 24s10.7 24 24 24l0 48c-13.3 0-24 10.7-24 24s10.7 24 24 24l0 48c-13.3 0-24 10.7-24 24l-48 0c0-13.3-10.7-24-24-24s-24 10.7-24 24l-48 0c0-13.3-10.7-24-24-24s-24 10.7-24 24l-48 0c0-13.3-10.7-24-24-24s-24 10.7-24 24l-72 0L32 96z"/><path class="fa-primary" d="M0 448c0 8.8 7.2 16 16 16s16-7.2 16-16L32 96c0-17.7 14.3-32 32-32l352 0c8.8 0 16-7.2 16-16s-7.2-16-16-16L64 32C28.7 32 0 60.7 0 96L0 448zm128-24a24 24 0 1 0 0 48 24 24 0 1 0 0-48zm192 0a24 24 0 1 0 0 48 24 24 0 1 0 0-48zm-96 48a24 24 0 1 0 0-48 24 24 0 1 0 0 48zm192-48a24 24 0 1 0 0 48 24 24 0 1 0 0-48zm0-144a24 24 0 1 0 0-48 24 24 0 1 0 0 48zm0 48a24 24 0 1 0 0 48 24 24 0 1 0 0-48zm0-144a24 24 0 1 0 0-48 24 24 0 1 0 0 48z"/></svg>