<svg xmlns="http://www.w3.org/2000/svg" viewBox="0 0 512 512"><!--! Font Awesome Pro 6.7.2 by @fontawesome - https://fontawesome.com License - https://fontawesome.com/license (Commercial License) Copyright 2024 Fonticons, Inc. --><defs><style>.fa-secondary{opacity:.4}</style></defs><path class="fa-secondary" d="M32 192l0 256c0 17.7 14.3 32 32 32l133.5 0c-3.5-10-5.5-20.8-5.5-32l0-288L64 160c-17.7 0-32 14.3-32 32zm32 24c0-13.3 10.7-24 24-24l48 0c13.3 0 24 10.7 24 24l0 48c0 13.3-10.7 24-24 24l-48 0c-13.3 0-24-10.7-24-24l0-48zm0 128c0-13.3 10.7-24 24-24l48 0c13.3 0 24 10.7 24 24l0 48c0 13.3-10.7 24-24 24l-48 0c-13.3 0-24-10.7-24-24l0-48zM256 64l0 384c0 17.7 14.3 32 32 32l160 0c17.7 0 32-14.3 32-32l0-384c0-17.7-14.3-32-32-32L288 32c-17.7 0-32 14.3-32 32zm64 24c0-13.3 10.7-24 24-24l48 0c13.3 0 24 10.7 24 24l0 48c0 13.3-10.7 24-24 24l-48 0c-13.3 0-24-10.7-24-24l0-48zm0 128c0-13.3 10.7-24 24-24l48 0c13.3 0 24 10.7 24 24l0 48c0 13.3-10.7 24-24 24l-48 0c-13.3 0-24-10.7-24-24l0-48zm0 128c0-13.3 10.7-24 24-24l48 0c13.3 0 24 10.7 24 24l0 48c0 13.3-10.7 24-24 24l-48 0c-13.3 0-24-10.7-24-24l0-48z"/><path class="fa-primary" d="M448 32c17.7 0 32 14.3 32 32l0 384c0 17.7-14.3 32-32 32l-160 0c-17.7 0-32-14.3-32-32l0-384c0-17.7 14.3-32 32-32l160 0zM288 0c-35.3 0-64 28.7-64 64l0 384c0 35.3 28.7 64 64 64l160 0c35.3 0 64-28.7 64-64l0-384c0-35.3-28.7-64-64-64L288 0zM192 128L64 128c-35.3 0-64 28.7-64 64L0 448c0 35.3 28.7 64 64 64l152.4 0c-8.3-9.2-14.8-20.1-19-32L64 480c-17.7 0-32-14.3-32-32l0-256c0-17.7 14.3-32 32-32l128 0 0-32zM88 320c-13.3 0-24 10.7-24 24l0 48c0 13.3 10.7 24 24 24l48 0c13.3 0 24-10.7 24-24l0-48c0-13.3-10.7-24-24-24l-48 0zm8 64l0-32 32 0 0 32-32 0zm224 8c0 13.3 10.7 24 24 24l48 0c13.3 0 24-10.7 24-24l0-48c0-13.3-10.7-24-24-24l-48 0c-13.3 0-24 10.7-24 24l0 48zm32-8l0-32 32 0 0 32-32 0zM88 192c-13.3 0-24 10.7-24 24l0 48c0 13.3 10.7 24 24 24l48 0c13.3 0 24-10.7 24-24l0-48c0-13.3-10.7-24-24-24l-48 0zm8 64l0-32 32 0 0 32-32 0zM320 88l0 48c0 13.3 10.7 24 24 24l48 0c13.3 0 24-10.7 24-24l0-48c0-13.3-10.7-24-24-24l-48 0c-13.3 0-24 10.7-24 24zm32 8l32 0 0 32-32 0 0-32zm-8 192l48 0c13.3 0 24-10.7 24-24l0-48c0-13.3-10.7-24-24-24l-48 0c-13.3 0-24 10.7-24 24l0 48c0 13.3 10.7 24 24 24zm8-64l32 0 0 32-32 0 0-32z"/></svg>