<svg xmlns="http://www.w3.org/2000/svg" viewBox="0 0 512 512"><!--! Font Awesome Pro 6.7.2 by @fontawesome - https://fontawesome.com License - https://fontawesome.com/license (Commercial License) Copyright 2024 Fonticons, Inc. --><defs><style>.fa-secondary{opacity:.4}</style></defs><path class="fa-secondary" d="M16 32c8.8 0 16 7.2 16 16l0 352c0 26.5 21.5 48 48 48l416 0c8.8 0 16 7.2 16 16l0-368c0-35.3-28.7-64-64-64L16 32zM184 320a24 24 0 1 1 -48 0 24 24 0 1 1 48 0zm32-160a24 24 0 1 1 -48 0 24 24 0 1 1 48 0zm96 96a24 24 0 1 1 -48 0 24 24 0 1 1 48 0zm96 64a24 24 0 1 1 -48 0 24 24 0 1 1 48 0zm32-192a24 24 0 1 1 -48 0 24 24 0 1 1 48 0z"/><path class="fa-primary" d="M32 48c0-8.8-7.2-16-16-16S0 39.2 0 48L0 400c0 44.2 35.8 80 80 80l416 0c8.8 0 16-7.2 16-16s-7.2-16-16-16L80 448c-26.5 0-48-21.5-48-48L32 48zM192 184a24 24 0 1 0 0-48 24 24 0 1 0 0 48zm120 72a24 24 0 1 0 -48 0 24 24 0 1 0 48 0zm72 88a24 24 0 1 0 0-48 24 24 0 1 0 0 48zm56-216a24 24 0 1 0 -48 0 24 24 0 1 0 48 0zM160 344a24 24 0 1 0 0-48 24 24 0 1 0 0 48z"/></svg>