<svg xmlns="http://www.w3.org/2000/svg" viewBox="0 0 512 512"><!--! Font Awesome Pro 6.7.2 by @fontawesome - https://fontawesome.com License - https://fontawesome.com/license (Commercial License) Copyright 2024 Fonticons, Inc. --><defs><style>.fa-secondary{opacity:.4}</style></defs><path class="fa-secondary" d="M0 208c0 8.8 7.2 16 16 16l128 0c8.8 0 16-7.2 16-16l0-128c0-8.8-7.2-16-16-16l224 0c-8.8 0-16 7.2-16 16l0 128c0 8.8 7.2 16 16 16l128 0c8.8 0 16-7.2 16-16l0 96c0-8.8-7.2-16-16-16l-128 0c-8.8 0-16 7.2-16 16l0 128c0 8.8 7.2 16 16 16l-224 0c8.8 0 16-7.2 16-16l0-128c0-8.8-7.2-16-16-16L16 288c-8.8 0-16 7.2-16 16l0-96z"/><path class="fa-primary" d="M128 80c0-8.8 7.2-16 16-16s16 7.2 16 16l0 128c0 8.8-7.2 16-16 16L16 224c-8.8 0-16-7.2-16-16s7.2-16 16-16l112 0 0-112zm16 208c8.8 0 16 7.2 16 16l0 128c0 8.8-7.2 16-16 16s-16-7.2-16-16l0-112L16 320c-8.8 0-16-7.2-16-16s7.2-16 16-16l128 0zM352 80c0-8.8 7.2-16 16-16s16 7.2 16 16l0 112 112 0c8.8 0 16 7.2 16 16s-7.2 16-16 16l-128 0c-8.8 0-16-7.2-16-16l0-128zM496 288c8.8 0 16 7.2 16 16s-7.2 16-16 16l-112 0 0 112c0 8.8-7.2 16-16 16s-16-7.2-16-16l0-128c0-8.8 7.2-16 16-16l128 0z"/></svg>