<svg xmlns="http://www.w3.org/2000/svg" viewBox="0 0 384 512"><!--! Font Awesome Pro 6.7.2 by @fontawesome - https://fontawesome.com License - https://fontawesome.com/license (Commercial License) Copyright 2024 Fonticons, Inc. --><defs><style>.fa-secondary{opacity:.4}</style></defs><path class="fa-secondary" d="M32 64l0 224 320 0 0-96-112 0c-26.5 0-48-21.5-48-48l0-112L64 32C46.3 32 32 46.3 32 64z"/><path class="fa-primary" d="M32 288L32 64c0-17.7 14.3-32 32-32l128 0 0 112c0 26.5 21.5 48 48 48l112 0 0 96L32 288zm0 32l320 0 32 0 0-156.1c0-12.7-5.1-24.9-14.1-33.9L254.1 14.1c-9-9-21.2-14.1-33.9-14.1L64 0C28.7 0 0 28.7 0 64L0 320l32 0zM240 160c-8.8 0-16-7.2-16-16l0-111.5c2.8 .7 5.4 2.1 7.4 4.2L347.3 152.6c2.1 2.1 3.5 4.6 4.2 7.4L240 160zM0 352l0 64 32 0 0-64L0 352zM64 512l0-32c-17.7 0-32-14.3-32-32L0 448c0 35.3 28.7 64 64 64zm256-32l0 32c35.3 0 64-28.7 64-64l-32 0c0 17.7-14.3 32-32 32zm64-128l-32 0 0 64 32 0 0-64zM96 480l0 32 80 0 0-32-80 0zm112 0l0 32 80 0 0-32-80 0z"/></svg>