<svg xmlns="http://www.w3.org/2000/svg" viewBox="0 0 640 512"><!--! Font Awesome Pro 6.7.2 by @fontawesome - https://fontawesome.com License - https://fontawesome.com/license (Commercial License) Copyright 2024 Fonticons, Inc. --><defs><style>.fa-secondary{opacity:.4}</style></defs><path class="fa-secondary" d="M32 432l0 32c0 8.8 7.2 16 16 16l544 0c8.8 0 16-7.2 16-16l0-32c0-8.8-7.2-16-16-16L48 416c-8.8 0-16 7.2-16 16zm184 16a24 24 0 1 1 -48 0 24 24 0 1 1 48 0zM192 192.2c0 33.7 12.7 64.2 33.6 87c-1.1-5.4-1.6-10.9-1.6-16.6c0-57.4 63.8-110.5 87.4-128.2c5.2-3.9 12.1-3.9 17.3 0c23.6 17.7 87.4 70.8 87.4 128.2c0 5.5-.5 10.9-1.6 16.2C435.3 256 448 225.7 448 192.2c0-22.6-8.5-48-22.2-72.6c-13-23.4-30.1-44.9-46.7-60.7l-9.5 10.7c-5.9 6.7-14.4 10.6-23.4 10.8s-17.6-3.4-23.7-9.9l-19-19.9c-2.5-2.6-5.2-5.7-7.3-8.1l-1.7-1.9c-2.6-3-4.6-5-6.3-6.6c-.4-.3-.7-.6-1-.8c-21.7 19.8-45.5 44.9-63.9 72.5c-19 28.5-31.4 58.3-31.4 86.7zM344 448a24 24 0 1 1 -48 0 24 24 0 1 1 48 0zm128 0a24 24 0 1 1 -48 0 24 24 0 1 1 48 0z"/><path class="fa-primary" d="M346.3 80.3c-9 .2-17.6-3.4-23.7-9.9l-19-19.9c-2.5-2.6-5.2-5.7-7.3-8.1c0 0 0 0 0 0l-1.7-1.9c-2.6-3-4.6-5-6.3-6.6c-.4-.3-.7-.6-1-.8c-21.7 19.8-45.5 44.9-63.9 72.5c-19 28.5-31.4 58.3-31.4 86.7c0 33.7 12.7 64.2 33.6 87c-1.1-5.4-1.6-10.9-1.6-16.6c0-57.4 63.8-110.5 87.4-128.2c5.2-3.9 12.1-3.9 17.3 0c23.6 17.7 87.4 70.8 87.4 128.2c0 5.5-.5 10.9-1.6 16.2C435.3 256 448 225.7 448 192.2c0-22.6-8.5-48-22.2-72.6c-13-23.4-30.1-44.9-46.7-60.7l-9.5 10.7c-5.9 6.7-14.4 10.6-23.4 10.8zM320 320c2.4 0 4.8-.1 7.1-.2c33.7-3.3 56.9-29.4 56.9-57.3c0-17.4-10.1-37.7-27.4-58.5c-12.1-14.5-25.8-27-36.6-35.8c-10.8 8.8-24.5 21.3-36.6 35.8c-17.3 20.7-27.4 41.1-27.4 58.5c0 27.9 23.3 54 57 57.3c2.3 .1 4.7 .2 7 .2zM160 192.2c0-37.3 16-73.4 36.8-104.5c20.9-31.3 47.5-59 70.9-80.2C273.4 2.3 280.7-.2 288 0c14.1 .3 23.8 11.4 32.7 21.6c1 1.1 1.9 2.2 2.9 3.3c1 1.2 2.1 2.3 3.1 3.4l19 19.9L358 34.5c2.5-2.9 5.7-5 9-6.5c3.8-1.6 7.9-2.4 11.9-2.4c7.2 0 14.3 2.6 19.9 7.8c19.7 18.3 39.8 43.2 55 70.6C469 131.2 480 162.2 480 192.2c0 85.6-66.4 154.9-150.8 159.6c-3 .3-6.1 .4-9.2 .4c-3.1 0-6.1-.1-9.1-.4c-85.2-4.6-150.9-74-150.9-159.6zM285.6 31.7s0 0 .1 0c-.1 0-.1 0-.1 0zM32 272c0-8.8 7.2-16 16-16l64 0c8.8 0 16 7.2 16 16s-7.2 16-16 16l-48 0 0 96 512 0 0-96-48 0c-8.8 0-16-7.2-16-16s7.2-16 16-16l64 0c8.8 0 16 7.2 16 16l0 114.7c18.6 6.6 32 24.4 32 45.3l0 32c0 26.5-21.5 48-48 48L48 512c-26.5 0-48-21.5-48-48l0-32c0-20.9 13.4-38.7 32-45.3L32 272zm0 160l0 32c0 8.8 7.2 16 16 16l544 0c8.8 0 16-7.2 16-16l0-32c0-8.8-7.2-16-16-16L48 416c-8.8 0-16 7.2-16 16zm160-8a24 24 0 1 1 0 48 24 24 0 1 1 0-48zm104 24a24 24 0 1 1 48 0 24 24 0 1 1 -48 0zm152-24a24 24 0 1 1 0 48 24 24 0 1 1 0-48z"/></svg>