<svg xmlns="http://www.w3.org/2000/svg" viewBox="0 0 384 512"><!--! Font Awesome Pro 6.7.2 by @fontawesome - https://fontawesome.com License - https://fontawesome.com/license (Commercial License) Copyright 2024 Fonticons, Inc. --><defs><style>.fa-secondary{opacity:.4}</style></defs><path class="fa-secondary" d="M32.2 64c-.2 64-.2 127.9-.2 191.7c50.3-7.3 100.4-14.8 150.5-22.3c6.3-.9 12.7-.9 19 0L351.8 256c.2-64 .2-127.9 .2-191.7c-50.3 7.3-100.4 14.8-150.5 22.3c-6.3 .9-12.7 .9-19 0L32.2 64z"/><path class="fa-primary" d="M208 16c0-8.8-7.2-16-16-16s-16 7.2-16 16l0 37.2L36.7 32.4C17.7 29.5 0 44.7 0 64L0 256c0 19.3 17.7 34.5 36.7 31.6l150.5-22.6c3.1-.5 6.3-.5 9.5 0l150.5 22.6c19.1 2.9 36.7-12.4 36.7-31.6l0-192c0-19.3-17.7-34.5-36.7-31.6L208 53.2 208 16zm0 283.1l-16-2.4-16 2.4L176 496c0 8.8 7.2 16 16 16s16-7.2 16-16l0-196.9zM32 255.8L32 64.2c0 0 .1-.1 .1-.1s.1-.1 .1-.1L182.5 86.6c6.3 .9 12.7 .9 19 0L351.8 64c0 0 .1 .1 .1 .1s.1 .1 .1 .1l0 191.5c0 0-.1 .1-.1 .1c0 0 0 0-.1 0s0 0-.1 0L201.5 233.4c-6.3-.9-12.7-.9-19 0L32.2 256c0 0-.1-.1-.1-.1s-.1-.1-.1-.1z"/></svg>