<svg xmlns="http://www.w3.org/2000/svg" viewBox="0 0 576 512"><!--! Font Awesome Pro 6.7.2 by @fontawesome - https://fontawesome.com License - https://fontawesome.com/license (Commercial License) Copyright 2024 Fonticons, Inc. --><defs><style>.fa-secondary{opacity:.4}</style></defs><path class="fa-secondary" d="M0 384c0 8.8 7.2 16 16 16l64 0c3.2 0 6.2-.9 8.9-2.7l79.9-53.3c7.9-5.3 17.1-8.1 26.6-8.1L344 336c13.3 0 24 10.7 24 24s-10.7 24-24 24l-24 0-64 0c-8.8 0-16 7.2-16 16s7.2 16 16 16l64 0 24 0 60.6 0c2.9 0 5.7-.8 8.2-2.3L511.3 355c3.4-2 7.2-3 11.1-3l1.3 0c11.2 0 20.3 9.1 20.3 20.3c0 6.9-3.5 13.3-9.2 17L415.1 467.1c-13 8.4-28.1 12.9-43.6 12.9L16 480c-8.8 0-16 7.2-16 16l0-48 0-32 0-32z"/><path class="fa-primary" d="M125.1 0L144 0c88.4 0 160 71.6 160 160l0 16 0 80c0 8.8-7.2 16-16 16s-16-7.2-16-16l0-80-29.1 0C161.8 176 96 110.2 96 29.1C96 13 109 0 125.1 0zM242.9 144l28.1 0C263.1 80.9 209.3 32 144 32l-16 0c1.5 62.1 52.4 112 114.9 112zM336 176l0-16c0-5.4-.2-10.7-.7-16C396.8 142.8 446.4 93.4 448 32l-16 0c-45.7 0-85.8 23.9-108.4 59.9c-4.3-11.4-9.7-22.3-16-32.5C336.9 23.2 381.7 0 432 0l18.9 0C467 0 480 13 480 29.1c0 80.2-64.2 145.3-144 146.9zM151 317.4c13.1-8.8 28.6-13.4 44.4-13.4L344 304c30.9 0 56 25.1 56 56c0 8.6-1.9 16.7-5.4 24l5.6 0 94.7-56.4c8.3-4.9 17.8-7.6 27.5-7.6l1.3 0c28.9 0 52.3 23.4 52.3 52.3c0 17.7-9 34.2-23.8 43.8L432.6 493.9c-18.2 11.8-39.4 18.1-61 18.1L16 512c-8.8 0-16-7.2-16-16s7.2-16 16-16l355.5 0c15.5 0 30.6-4.5 43.6-12.9l119.6-77.8c5.8-3.7 9.2-10.2 9.2-17c0-11.2-9.1-20.3-20.3-20.3l-1.3 0c-3.9 0-7.7 1.1-11.1 3l-98.5 58.7c-2.5 1.5-5.3 2.3-8.2 2.3L344 416l-24 0-64 0c-8.8 0-16-7.2-16-16s7.2-16 16-16l64 0 24 0c13.3 0 24-10.7 24-24s-10.7-24-24-24l-148.6 0c-9.5 0-18.7 2.8-26.6 8.1L88.9 397.3c-2.6 1.8-5.7 2.7-8.9 2.7l-64 0c-8.8 0-16-7.2-16-16s7.2-16 16-16l59.2 0L151 317.4z"/></svg>