<svg xmlns="http://www.w3.org/2000/svg" viewBox="0 0 576 512"><!--! Font Awesome Pro 6.7.2 by @fontawesome - https://fontawesome.com License - https://fontawesome.com/license (Commercial License) Copyright 2024 Fonticons, Inc. --><defs><style>.fa-secondary{opacity:.4}</style></defs><path class="fa-secondary" d="M32 128l0 288c0 17.7 14.3 32 32 32l448 0c17.7 0 32-14.3 32-32l0-288L32 128zM80 400c0-44.2 35.8-80 80-80l64 0c44.2 0 80 35.8 80 80c0 8.8-7.2 16-16 16c-5.9 0-11.1-3.2-13.9-8l-164.3 0c-2.8 4.8-7.9 8-13.9 8c-8.8 0-16-7.2-16-16zM256 224a64 64 0 1 1 -128 0 64 64 0 1 1 128 0zm80-16c0-8.8 7.2-16 16-16l128 0c8.8 0 16 7.2 16 16s-7.2 16-16 16l-128 0c-8.8 0-16-7.2-16-16zm0 64c0-8.8 7.2-16 16-16l128 0c8.8 0 16 7.2 16 16s-7.2 16-16 16l-128 0c-8.8 0-16-7.2-16-16zm0 64c0-8.8 7.2-16 16-16l128 0c8.8 0 16 7.2 16 16s-7.2 16-16 16l-128 0c-8.8 0-16-7.2-16-16z"/><path class="fa-primary" d="M64 64C46.3 64 32 78.3 32 96l512 0c0-17.7-14.3-32-32-32L64 64zM0 112L0 96C0 60.7 28.7 32 64 32l448 0c35.3 0 64 28.7 64 64l0 16 0 304c0 35.3-28.7 64-64 64L64 480c-35.3 0-64-28.7-64-64L0 112zm544 16L32 128l0 288c0 17.7 14.3 32 32 32l448 0c17.7 0 32-14.3 32-32l0-288zM192 256a32 32 0 1 0 0-64 32 32 0 1 0 0 64zm0-96a64 64 0 1 1 0 128 64 64 0 1 1 0-128zM160 352c-26.5 0-48 21.5-48 48c0 8.8-7.2 16-16 16s-16-7.2-16-16c0-44.2 35.8-80 80-80l64 0c44.2 0 80 35.8 80 80c0 8.8-7.2 16-16 16s-16-7.2-16-16c0-26.5-21.5-48-48-48l-64 0zM336 208c0-8.8 7.2-16 16-16l128 0c8.8 0 16 7.2 16 16s-7.2 16-16 16l-128 0c-8.8 0-16-7.2-16-16zm0 64c0-8.8 7.2-16 16-16l128 0c8.8 0 16 7.2 16 16s-7.2 16-16 16l-128 0c-8.8 0-16-7.2-16-16zm0 64c0-8.8 7.2-16 16-16l128 0c8.8 0 16 7.2 16 16s-7.2 16-16 16l-128 0c-8.8 0-16-7.2-16-16z"/></svg>