<svg xmlns="http://www.w3.org/2000/svg" viewBox="0 0 576 512"><!--! Font Awesome Pro 6.7.2 by @fontawesome - https://fontawesome.com License - https://fontawesome.com/license (Commercial License) Copyright 2024 Fonticons, Inc. --><defs><style>.fa-secondary{opacity:.4}</style></defs><path class="fa-secondary" d="M.1 352c.9 9 8.5 16 17.6 14.5c23.1-4 43.6-15 58.5-25.2c7.9-5.4 14.6-10.8 19.8-15.3c5.1 4.5 11.9 9.9 19.8 15.3C134.4 353.9 161.7 368 192 368c1.4 0 2.7 0 4-.1C216.2 397 249.9 416 288 416s71.8-19 92-48.1c1.3 .1 2.7 .1 4 .1c30.3 0 57.5-14.1 76.2-26.8c7.9-5.4 14.6-10.8 19.8-15.3c5.1 4.5 11.9 9.9 19.8 15.3c15 10.2 35.4 21.2 58.5 25.2C567.4 368 575 361 576 352l0 142.2c0-7.9-6.4-14.1-14.1-15.7c-16-3.1-31.3-11.1-44.1-19.8c-9.8-6.7-18-14-26-21.9c-6.6-6.5-17.2-6.5-23.7 0c-7.9 7.9-16.1 15.2-25.9 21.9C425.6 470 404.9 480 384 480s-41.7-9.9-58.2-21.2c-9.8-6.7-18-14-26-21.9c-6.6-6.5-17.2-6.5-23.7 0c-7.9 7.9-16.1 15.2-25.9 21.9C233.6 470 212.9 480 192 480s-41.7-9.9-58.2-21.2c-9.7-6.6-18-14-25.9-21.9c-6.6-6.5-17.2-6.5-23.8 0c-7.9 7.9-16.1 15.2-25.9 21.9c-12.8 8.7-28.1 16.6-44 19.8C6.4 480.1 0 486.4 0 494.2C0 446.8 0 399.4 .1 352zM336 304a48 48 0 1 1 -96 0 48 48 0 1 1 96 0z"/><path class="fa-primary" d="M272 32c0-17.7 14.3-32 32-32l64 0c8.8 0 16 7.2 16 16s-7.2 16-16 16l-64 0 0 64 64 0c8.8 0 16 7.2 16 16s-7.2 16-16 16l-64 0 0 97.6c36.5 7.4 64 39.7 64 78.4c0 44.2-35.8 80-80 80s-80-35.8-80-80c0-38.7 27.5-71 64-78.4L272 112l0-80zm16 320a48 48 0 1 0 0-96 48 48 0 1 0 0 96zM133.8 314.8c13.5 9.2 29.7 17.5 46.6 20.2c3.4 11.9 8.8 23 15.7 32.9c-1.3 .1-2.7 .1-4 .1c-30.3 0-57.6-14.1-76.2-26.8c-7.9-5.4-14.6-10.8-19.8-15.3c-5.1 4.5-11.8 9.9-19.8 15.3c-14.9 10.2-35.4 21.2-58.5 25.2C8 368.1 0 360 0 350.2c0-7.9 6.4-14.1 14.1-15.7c15.9-3.1 31.3-11.1 44-19.8c9.8-6.7 18-14 25.9-21.9c6.6-6.5 17.2-6.6 23.8 0c7.9 7.9 16.2 15.2 25.9 21.9zM384 368c-1.3 0-2.7 0-4-.1c6.9-9.9 12.2-21 15.7-32.9c16.8-2.8 33.1-11.1 46.5-20.2c9.8-6.7 18-14 25.9-21.9c6.6-6.5 17.2-6.5 23.7 0c7.9 7.9 16.2 15.2 26 21.9c12.8 8.7 28.1 16.6 44.1 19.8c7.7 1.5 14.1 7.8 14.1 15.7c0 9.8-8 17.9-17.7 16.2c-23.1-4-43.6-15-58.5-25.2c-7.9-5.4-14.7-10.8-19.8-15.3c-5.1 4.5-11.8 9.9-19.8 15.3C441.5 353.9 414.3 368 384 368zM192 480c20.9 0 41.6-9.9 58.2-21.2c9.8-6.7 18-14 25.9-21.9c6.6-6.5 17.2-6.5 23.7 0c7.9 7.9 16.2 15.2 26 21.9C342.3 470 363.1 480 384 480s41.6-9.9 58.2-21.2c9.8-6.7 18-14 25.9-21.9c6.6-6.5 17.2-6.6 23.7 0c7.9 7.9 16.2 15.2 26 21.9c12.8 8.7 28.1 16.6 44.1 19.8c7.7 1.5 14.1 7.8 14.1 15.7c0 9.8-8 17.9-17.7 16.2c-23.1-4-43.6-15-58.5-25.2c-7.9-5.4-14.7-10.8-19.8-15.3c-5.1 4.5-11.8 9.9-19.8 15.3C441.5 497.9 414.3 512 384 512s-57.6-14.1-76.2-26.8c-7.9-5.4-14.7-10.8-19.8-15.3c-5.1 4.5-11.8 9.9-19.8 15.3C249.5 497.9 222.3 512 192 512s-57.6-14.1-76.2-26.8c-7.9-5.4-14.6-10.8-19.8-15.3c-5.1 4.5-11.8 9.9-19.8 15.3c-14.9 10.2-35.4 21.2-58.5 25.2C8 512.1 0 504 0 494.2c0-7.9 6.4-14.1 14.1-15.7c15.9-3.1 31.3-11.1 44-19.8c9.8-6.7 18-14 25.9-21.9c6.6-6.5 17.2-6.6 23.8 0c7.9 7.9 16.2 15.2 25.9 21.9C150.3 470 171.1 480 192 480z"/></svg>