<svg xmlns="http://www.w3.org/2000/svg" viewBox="0 0 448 512"><!--! Font Awesome Pro 6.7.2 by @fontawesome - https://fontawesome.com License - https://fontawesome.com/license (Commercial License) Copyright 2024 Fonticons, Inc. --><defs><style>.fa-secondary{opacity:.4}</style></defs><path class="fa-secondary" d="M32 320c0 70.7 57.3 128 128 128c84.8 0 148.3-39.8 191.4-91.7C395.3 303.5 416 240.5 416 200c0-18.4-9.7-39.8-22.6-59.2c-6.1-9.2-12.3-16.9-16.9-22.3c-2.3-2.7-4.2-4.8-5.4-6.1c-.6-.7-1.1-1.2-1.4-1.5l-.3-.3-.3-.3c-.3-.3-.8-.8-1.5-1.4c-1.3-1.3-3.4-3.1-6.1-5.4c-5.4-4.6-13.1-10.8-22.3-16.9C319.8 73.7 298.4 64 280 64c-40.5 0-103.5 20.7-156.3 64.6C71.8 171.7 32 235.2 32 320zM226.4 164.4c-4.7-18.8-3.2-39.9 11.4-54.5s35.8-16.1 54.5-11.4c19.1 4.8 39 16.5 55.9 33.4s28.6 36.7 33.4 55.9c4.7 18.8 3.2 39.9-11.4 54.5s-35.8 16.1-54.5 11.4c-19.1-4.8-39-16.5-55.9-33.4s-28.6-36.7-33.4-55.9z"/><path class="fa-primary" d="M160 448C89.3 448 32 390.7 32 320c0-84.8 39.8-148.3 91.7-191.4C176.5 84.7 239.5 64 280 64c18.4 0 39.8 9.7 59.3 22.6c9.2 6.1 16.9 12.3 22.3 16.9c2.7 2.3 4.8 4.2 6.1 5.4c.7 .6 1.2 1.1 1.5 1.4l.3 .3 .3 .3c.3 .3 .7 .8 1.4 1.5c1.3 1.3 3.1 3.4 5.4 6.1c4.6 5.4 10.8 13.1 16.9 22.3C406.3 160.2 416 181.6 416 200c0 40.5-20.7 103.5-64.6 156.3C308.3 408.2 244.8 448 160 448zM0 320c0 88.4 71.6 160 160 160c192 0 288-181.9 288-280c0-56-56-112-56-112s-56-56-112-56C181.9 32 0 128 0 320zM260.4 132.4c3.6-3.6 11.2-6.2 24.2-3c12.6 3.2 27.6 11.5 41 24.9s21.8 28.4 24.9 41c3.2 13 .6 20.6-3 24.2s-11.2 6.2-24.2 3c-12.6-3.2-27.6-11.5-41-24.9s-21.8-28.4-24.9-41c-3.2-13-.6-20.6 3-24.2zm87.8-.7c-16.9-16.9-36.7-28.6-55.9-33.4c-18.8-4.7-39.9-3.2-54.5 11.4s-16.1 35.8-11.4 54.5c4.8 19.1 16.5 39 33.4 55.9s36.7 28.6 55.9 33.4c18.8 4.7 39.9 3.2 54.5-11.4s16.1-35.8 11.4-54.5c-4.8-19.1-16.5-39-33.4-55.9z"/></svg>