<svg xmlns="http://www.w3.org/2000/svg" viewBox="0 0 384 512"><!--! Font Awesome Pro 6.7.2 by @fontawesome - https://fontawesome.com License - https://fontawesome.com/license (Commercial License) Copyright 2024 Fonticons, Inc. --><defs><style>.fa-secondary{opacity:.4}</style></defs><path class="fa-secondary" d="M32 64l0 384c0 17.7 14.3 32 32 32l128 0 0-112c0-26.5 21.5-48 48-48l112 0 0-256c0-17.7-14.3-32-32-32L64 32C46.3 32 32 46.3 32 64zM68.7 164.7l96-96c6.2-6.2 16.4-6.2 22.6 0s6.2 16.4 0 22.6l-96 96c-6.2 6.2-16.4 6.2-22.6 0s-6.2-16.4 0-22.6zm32 96l160-160c6.2-6.2 16.4-6.2 22.6 0s6.2 16.4 0 22.6l-160 160c-6.2 6.2-16.4 6.2-22.6 0s-6.2-16.4 0-22.6z"/><path class="fa-primary" d="M352 64l0 256-112 0c-26.5 0-48 21.5-48 48l0 112L64 480c-17.7 0-32-14.3-32-32L32 64c0-17.7 14.3-32 32-32l256 0c17.7 0 32 14.3 32 32zm-.5 288c-.7 2.8-2.1 5.4-4.2 7.4L231.4 475.3c-2.1 2.1-4.6 3.5-7.4 4.2L224 368c0-8.8 7.2-16 16-16l111.5 0zM0 448c0 35.3 28.7 64 64 64l156.1 0c12.7 0 24.9-5.1 33.9-14.1L369.9 382.1c9-9 14.1-21.2 14.1-33.9L384 64c0-35.3-28.7-64-64-64L64 0C28.7 0 0 28.7 0 64L0 448zM187.3 68.7c-6.2-6.2-16.4-6.2-22.6 0l-96 96c-6.2 6.2-6.2 16.4 0 22.6s16.4 6.2 22.6 0l96-96c6.2-6.2 6.2-16.4 0-22.6zm96 54.6c6.2-6.2 6.2-16.4 0-22.6s-16.4-6.2-22.6 0l-160 160c-6.2 6.2-6.2 16.4 0 22.6s16.4 6.2 22.6 0l160-160z"/></svg>