<svg xmlns="http://www.w3.org/2000/svg" viewBox="0 0 512 512"><!--! Font Awesome Pro 6.7.2 by @fontawesome - https://fontawesome.com License - https://fontawesome.com/license (Commercial License) Copyright 2024 Fonticons, Inc. --><defs><style>.fa-secondary{opacity:.4}</style></defs><path class="fa-secondary" d="M50.7 293.8c-7.4 50.2-5.3 100.6 1.5 143.4l94.5-94.5c-27.1-23.5-59.9-40.6-96-48.9zm5.9-31.5c42.6 9.6 81.1 29.8 112.7 57.7l64-64L116.1 138.8c-8.5 10-16.1 20.6-22.8 31.6c-17.4 28.4-29.2 59.8-36.7 92zM75 459.6c54.7 7.7 102.3 8.2 143.5 2.9c-8.3-36.6-25.5-69.8-49.2-97.2L75 459.6zm63.4-343.8L256 233.4l64-64c-28.3-32-48.6-71.2-58.1-114.4C247 58.2 233.1 62.3 220 67.1c-32.5 12-59.4 28.7-81.6 48.7zM192 342.6c28.3 32 48.7 71.2 58.1 114.4c14.9-3.3 28.8-7.4 41.9-12.2c32.5-12 59.4-28.7 81.6-48.7L256 278.6l-64 64zM278.6 256L395.9 373.2c8.5-10 16.1-20.6 22.8-31.6c17.4-28.4 29.2-59.8 36.7-92c-42.6-9.6-81.1-29.8-112.8-57.7l-64 64zM293.5 49.5c8.3 36.6 25.5 69.8 49.2 97.2l94.2-94.3c-54.7-7.7-102.3-8.2-143.5-2.9zm71.8 119.8c27.1 23.5 59.9 40.6 96 48.9c7.4-50.2 5.3-100.7-1.5-143.4l-94.5 94.5z"/><path class="fa-primary" d="M436.9 52.4l-94.2 94.3c-23.7-27.4-41-60.6-49.2-97.2c41.2-5.3 88.7-4.8 143.5 2.9zM261.9 55c9.5 43.2 29.8 82.4 58.1 114.4l-64 64L138.4 115.8c22.2-19.9 49.1-36.6 81.6-48.7c13-4.8 27-8.9 41.9-12.2zM116.1 138.8L233.4 256l-64 64c-31.6-27.9-70.2-48.1-112.7-57.7c7.5-32.2 19.3-63.5 36.7-92c6.7-11 14.3-21.6 22.8-31.6zm-65.5 155c36.1 8.4 68.9 25.4 96 48.9L52.2 437.2c-6.9-42.8-8.9-93.2-1.5-143.4zM75 459.6l94.3-94.3c23.7 27.4 41 60.6 49.2 97.2c-41.2 5.3-88.7 4.8-143.5-2.9zm175-2.5c-9.5-43.2-29.8-82.4-58.1-114.4l64-64L373.6 396.2c-22.2 19.9-49.1 36.6-81.6 48.7c-13 4.8-27 8.9-41.9 12.2zm145.8-83.8L278.6 256l64-64c31.6 27.9 70.2 48.1 112.8 57.7c-7.5 32.2-19.3 63.5-36.7 92c-6.7 11-14.3 21.6-22.8 31.6zm65.5-155c-36.1-8.4-68.9-25.5-96-48.9l94.5-94.5c6.9 42.8 8.9 93.2 1.5 143.4zm.2-194.4c-103.9-17.4-187-11-252.6 13.3C142.9 61.6 96.7 103.6 66 153.6C5.8 251.8 6.9 378.3 24.4 463.1c2.7 12.9 13 22.9 26.1 25.1c103.9 17.4 187 11 252.6-13.3c66-24.5 112.2-66.5 142.9-116.5c60.2-98.2 59.1-224.7 41.6-309.5c-2.7-12.9-13-22.9-26.1-25.1z"/></svg>