<svg xmlns="http://www.w3.org/2000/svg" viewBox="0 0 640 512"><!--! Font Awesome Pro 6.7.2 by @fontawesome - https://fontawesome.com License - https://fontawesome.com/license (Commercial License) Copyright 2024 Fonticons, Inc. --><defs><style>.fa-secondary{opacity:.4}</style></defs><path class="fa-secondary" d="M32 179.1c0 11.7 7.9 21.9 19.3 24.7L455.8 305c14.2 3.6 24.2 16.4 24.2 31l0 48 128 0 0-48 0-32 0-4.7c0-24.2-13.7-46.4-35.4-57.2L246.4 79c-19.7-9.9-41.4-15-63.5-15c-44.7 0-86.7 21-113.5 56.8L37.1 163.9c-3.3 4.4-5.1 9.8-5.1 15.3zM64 432c0 8.8 7.2 16 16 16l512 0c8.8 0 16-7.2 16-16l0-16-128 0-32 0L80 416c-8.8 0-16 7.2-16 16z"/><path class="fa-primary" d="M448 352l0 32L80 384c-26.5 0-48 21.5-48 48s21.5 48 48 48l512 0c26.5 0 48-21.5 48-48l0-16 0-32 0-48 0-32 0-4.7c0-36.4-20.5-69.6-53.1-85.9L260.7 50.4C236.6 38.3 209.9 32 182.9 32C128.2 32 76.7 57.8 43.8 101.6L11.5 144.7C4 154.6 0 166.7 0 179.1c0 26.4 17.9 49.3 43.5 55.7L72 242l0 78c0 17.7 14.3 32 32 32l344 0zm-64-32l-280 0 0-70 280 70zm224 64l-128 0 0-48c0-14.7-10-27.5-24.2-31L51.3 203.8C39.9 201 32 190.8 32 179.1c0-5.5 1.8-10.9 5.1-15.3l32.3-43.1C96.2 85 138.3 64 182.9 64c22 0 43.8 5.1 63.5 15L572.6 242.1c21.7 10.8 35.4 33 35.4 57.2l0 4.7 0 32 0 48zM480 416l128 0 0 16c0 8.8-7.2 16-16 16L80 448c-8.8 0-16-7.2-16-16s7.2-16 16-16l368 0 32 0z"/></svg>