<svg xmlns="http://www.w3.org/2000/svg" viewBox="0 0 512 512"><!--! Font Awesome Pro 6.7.2 by @fontawesome - https://fontawesome.com License - https://fontawesome.com/license (Commercial License) Copyright 2024 Fonticons, Inc. --><defs><style>.fa-secondary{opacity:.4}</style></defs><path class="fa-secondary" d="M16 512c8.8 0 16-7.2 16-16l0-240C32 132.3 132.3 32 256 32s224 100.3 224 224l0 240c0 8.8 7.2 16 16 16l-61.4 0c9.9-20.8 6.2-46.4-11-63.6l-13.7-13.7C423.8 416.1 432 393 432 368l0-160c0-61.9-50.1-112-112-112L192 96C130.1 96 80 146.1 80 208l0 160c0 25 8.2 48.1 22.1 66.7L88.4 448.4c-17.2 17.2-20.9 42.8-11 63.6L16 512zM144 288l96 0 32 0 96 0 0 80c0 26.5-21.5 48-48 48l-128 0c-26.5 0-48-21.5-48-48l0-80zm32 72a24 24 0 1 0 48 0 24 24 0 1 0 -48 0zm112 0a24 24 0 1 0 48 0 24 24 0 1 0 -48 0z"/><path class="fa-primary" d="M32 256C32 132.3 132.3 32 256 32s224 100.3 224 224l0 240c0 8.8 7.2 16 16 16s16-7.2 16-16l0-240C512 114.6 397.4 0 256 0S0 114.6 0 256L0 496c0 8.8 7.2 16 16 16s16-7.2 16-16l0-240zm336-48l0 48-96 0 0-96 48 0c26.5 0 48 21.5 48 48zM240 288l32 0 96 0 0 80c0 26.5-21.5 48-48 48l-128 0c-26.5 0-48-21.5-48-48l0-80 96 0zm0-128l0 96-96 0 0-48c0-26.5 21.5-48 48-48l48 0zm-48-32c-44.2 0-80 35.8-80 80l0 160c0 32.8 19.8 61 48 73.4l-43.3 43.3c-6.2 6.2-6.2 16.4 0 22.6s16.4 6.2 22.6 0L198.6 448l114.7 0 59.3 59.3c6.2 6.2 16.4 6.2 22.6 0s6.2-16.4 0-22.6L352 441.4c28.3-12.3 48-40.5 48-73.4l0-160c0-44.2-35.8-80-80-80l-128 0zm8 256a24 24 0 1 0 0-48 24 24 0 1 0 0 48zm136-24a24 24 0 1 0 -48 0 24 24 0 1 0 48 0z"/></svg>