<svg width="24" height="24" viewBox="0 0 24 24" fill="none" xmlns="http://www.w3.org/2000/svg">
<path fill-rule="evenodd" clip-rule="evenodd" d="M12.0572 1.75H12.0572H11.9428H11.9428C9.7521 1.74999 8.03143 1.74998 6.68802 1.93059C5.31137 2.11568 4.21911 2.50271 3.36091 3.36091C2.50272 4.21911 2.11568 5.31137 1.93059 6.68802C1.74998 8.03144 1.74999 9.75212 1.75 11.9428V12.0572C1.74999 14.2479 1.74998 15.9686 1.93059 17.312C2.11568 18.6886 2.50272 19.7809 3.36091 20.6391C4.21911 21.4973 5.31137 21.8843 6.68802 22.0694C8.03144 22.25 9.7521 22.25 11.9428 22.25H11.9428H12.0572H12.0572C14.2479 22.25 15.9686 22.25 17.312 22.0694C18.6886 21.8843 19.7809 21.4973 20.6391 20.6391C21.4973 19.7809 21.8843 18.6886 22.0694 17.312C22.25 15.9686 22.25 14.2479 22.25 12.0572V12.0572V11.9428V11.9428C22.25 9.7521 22.25 8.03144 22.0694 6.68802C21.8843 5.31137 21.4973 4.21911 20.6391 3.36091C19.7809 2.50271 18.6886 2.11568 17.312 1.93059C15.9686 1.74998 14.2479 1.74999 12.0572 1.75ZM7.32849 7.25845C7.41559 7.24987 7.51001 7.24994 7.60096 7.25001L9.00002 7.25002C10.5188 7.25002 11.75 8.48124 11.75 10C11.75 11.5188 10.5188 12.75 9.00002 12.75H7.25002V16C7.25002 16.4142 6.91424 16.75 6.50002 16.75C6.08581 16.75 5.75002 16.4142 5.75002 16L5.75001 9.10096C5.74994 9.01001 5.74987 8.91559 5.75845 8.82849C5.84028 7.99763 6.49763 7.34028 7.32849 7.25845ZM7.25 11.25H9C9.69036 11.25 10.25 10.6904 10.25 10C10.25 9.30964 9.69036 8.75 9 8.75L7.47447 8.75131C7.3566 8.7634 7.2634 8.8566 7.25131 8.97447L7.25 11.25ZM14.25 11.5C14.25 11.3748 14.3159 11.2043 14.5358 11.0394C14.7559 10.8743 15.0943 10.75 15.5 10.75C16.2709 10.75 16.677 11.159 16.7381 11.404C16.8384 11.8059 17.2454 12.0505 17.6473 11.9503C18.0492 11.85 18.2938 11.443 18.1936 11.0411C17.9076 9.89438 16.6854 9.25002 15.5 9.25002C14.8011 9.25002 14.1396 9.46154 13.6358 9.83936C13.1318 10.2174 12.75 10.7968 12.75 11.5C12.75 12.2032 13.1318 12.7827 13.6358 13.1607C14.1396 13.5385 14.8011 13.75 15.5 13.75C15.9057 13.75 16.2441 13.8743 16.4642 14.0394C16.6841 14.2043 16.75 14.3748 16.75 14.5C16.75 14.6252 16.6841 14.7958 16.4642 14.9607C16.2441 15.1258 15.9057 15.25 15.5 15.25C14.7256 15.25 14.3205 14.838 14.2612 14.5934C14.1636 14.1908 13.7582 13.9436 13.3557 14.0411C12.9531 14.1387 12.7059 14.5441 12.8034 14.9467C13.0832 16.1011 14.3111 16.75 15.5 16.75C16.1989 16.75 16.8604 16.5385 17.3642 16.1607C17.8682 15.7827 18.25 15.2032 18.25 14.5C18.25 13.7968 17.8682 13.2174 17.3642 12.8394C16.8604 12.4615 16.1989 12.25 15.5 12.25C15.0943 12.25 14.7559 12.1258 14.5358 11.9607C14.3159 11.7958 14.25 11.6252 14.25 11.5Z" fill="#141B34"/>
</svg>
