<svg width="24" height="24" viewBox="0 0 24 24" fill="none" xmlns="http://www.w3.org/2000/svg">
<path fill-rule="evenodd" clip-rule="evenodd" d="M11.0453 1.25C12.8818 1.24999 14.3214 1.24999 15.4635 1.37373C16.6291 1.50001 17.5734 1.76232 18.3798 2.34815C18.8679 2.70281 19.2972 3.13209 19.6518 3.62023C20.2377 4.42656 20.5 5.37094 20.6263 6.53648C20.75 7.6786 20.75 9.20885 20.75 11.0453V11.0454C20.75 12.5557 20.75 13.7975 20.6812 14.8263C20.4339 14.4908 20.2299 14.1255 20.08 13.7455C19.4251 12.0848 17.0749 12.0848 16.42 13.7455C15.9638 14.902 14.902 15.9638 13.7455 16.42C12.0848 17.0749 12.0848 19.4251 13.7455 20.08C14.1255 20.2299 14.4908 20.4339 14.8263 20.6812C13.7975 20.75 12.5556 20.75 11.0453 20.75H11.0452C9.20872 20.75 7.6786 20.75 6.53648 20.6263C5.37094 20.5 4.42656 20.2377 3.62024 19.6518C3.13209 19.2972 2.70281 18.8679 2.34815 18.3798C1.76232 17.5734 1.50001 16.6291 1.37373 15.4635C1.24999 14.3214 1.24999 12.8818 1.25 11.0453V11.0452C1.24999 9.20871 1.24999 7.67861 1.37373 6.53648C1.50001 5.37094 1.76232 4.42656 2.34815 3.62024C2.70281 3.13209 3.13209 2.70281 3.62024 2.34815C4.42656 1.76232 5.37094 1.50001 6.53648 1.37373C7.67861 1.24999 9.20871 1.24999 11.0452 1.25H11.0453ZM7 6.25C6.58579 6.25 6.25 6.58579 6.25 7V8C6.25 8.41421 6.58579 8.75 7 8.75C7.41421 8.75 7.75 8.41421 7.75 8V7.75H10.25V14.25H10C9.58579 14.25 9.25 14.5858 9.25 15C9.25 15.4142 9.58579 15.75 10 15.75H12C12.4142 15.75 12.75 15.4142 12.75 15C12.75 14.5858 12.4142 14.25 12 14.25H11.75V7.75H14.25V8C14.25 8.41421 14.5858 8.75 15 8.75C15.4142 8.75 15.75 8.41421 15.75 8V7C15.75 6.58579 15.4142 6.25 15 6.25H7Z" fill="#141B34"/>
<path d="M17.5828 14.2041C17.8216 13.5986 18.6784 13.5986 18.9172 14.2041L18.9586 14.309C19.5418 15.7877 20.7123 16.9582 22.191 17.5414L22.2959 17.5828C22.9014 17.8216 22.9014 18.6784 22.2959 18.9172L22.191 18.9586C20.7123 19.5418 19.5418 20.7123 18.9586 22.191L18.9172 22.2959C18.6784 22.9014 17.8216 22.9014 17.5828 22.2959L17.5414 22.191C16.9582 20.7123 15.7877 19.5418 14.309 18.9586L14.2041 18.9172C13.5986 18.6784 13.5986 17.8216 14.2041 17.5828L14.309 17.5414C15.7877 16.9582 16.9582 15.7877 17.5414 14.309L17.5828 14.2041Z" fill="#141B34"/>
</svg>
