<svg width="24" height="24" viewBox="0 0 24 24" fill="none" xmlns="http://www.w3.org/2000/svg">
<path d="M10.5 11.25C10.9142 11.25 11.25 11.5858 11.25 12V13.25H12.75V12C12.75 11.5858 13.0858 11.25 13.5 11.25C13.9142 11.25 14.25 11.5858 14.25 12V13.3009C14.5896 13.3527 14.9437 13.4688 15.2374 13.7626C15.5312 14.0563 15.6473 14.4104 15.6991 14.75H17C17.4142 14.75 17.75 15.0858 17.75 15.5C17.75 15.9142 17.4142 16.25 17 16.25H15.75V17.75H17C17.4142 17.75 17.75 18.0858 17.75 18.5C17.75 18.9142 17.4142 19.25 17 19.25H15.6991C15.6473 19.5896 15.5312 19.9437 15.2374 20.2374C14.9437 20.5312 14.5896 20.6473 14.25 20.6991V22C14.25 22.4142 13.9142 22.75 13.5 22.75C13.0858 22.75 12.75 22.4142 12.75 22V20.75H11.25V22C11.25 22.4142 10.9142 22.75 10.5 22.75C10.0858 22.75 9.75 22.4142 9.75 22V20.6991C9.41037 20.6473 9.05633 20.5312 8.76256 20.2374C8.4688 19.9437 8.35268 19.5896 8.30087 19.25H7C6.58579 19.25 6.25 18.9142 6.25 18.5C6.25 18.0858 6.58579 17.75 7 17.75H8.25V16.25H7C6.58579 16.25 6.25 15.9142 6.25 15.5C6.25 15.0858 6.58579 14.75 7 14.75H8.30087C8.35268 14.4104 8.4688 14.0563 8.76256 13.7626C9.05633 13.4688 9.41037 13.3527 9.75 13.3009V12C9.75 11.5858 10.0858 11.25 10.5 11.25Z" fill="#141B34"/>
<path d="M9.4626 1.4886C8.82373 1.24902 8.11205 1.24934 7.08264 1.24979C6.2039 1.24979 5.32205 1.24982 4.7497 1.30027C4.15996 1.35226 3.64388 1.46222 3.17258 1.72523C2.56533 2.06411 2.06428 2.56517 1.7254 3.17241C1.46238 3.64372 1.35242 4.15979 1.30044 4.74953C1.24998 5.32188 1.24999 6.0306 1.25 6.90934V10.0572C1.24999 12.3656 1.24998 14.1746 1.43975 15.5861C1.63399 17.0309 2.03933 18.1709 2.93414 19.0657C3.72979 19.8614 4.71933 20.27 5.94457 20.4874C5.23387 20.1092 4.75 19.361 4.75 18.4998C4.75 17.9235 4.96664 17.3978 5.32292 16.9998C4.96664 16.6017 4.75 16.076 4.75 15.4998C4.75 14.2571 6.02583 13.2498 7.26847 13.2498C7.38325 13.0633 7.52541 12.8781 7.7019 12.7017C7.87839 12.5252 8.06351 12.383 8.25 12.2682C8.25 11.0256 9.25736 9.74976 10.5 9.74976C11.0763 9.74976 11.6019 9.9664 12 10.3227C12.3981 9.9664 12.9237 9.74976 13.5 9.74976C14.7426 9.74976 15.75 11.0256 15.75 12.2682C15.9365 12.383 16.1216 12.5252 16.2981 12.7017C16.4746 12.8781 16.6167 13.0633 16.7315 13.2498C17.9742 13.2498 19.25 14.2571 19.25 15.4998C19.25 16.076 19.0334 16.6017 18.6771 16.9998C19.0334 17.3978 19.25 17.9235 19.25 18.4998C19.25 19.452 18.6584 20.2662 17.8227 20.5946C18.7427 20.4691 19.514 20.2355 20.1945 19.7808C20.8224 19.3613 21.3614 18.8222 21.781 18.1944C22.2983 17.42 22.5295 16.5282 22.6408 15.4334C22.75 14.36 22.75 13.0119 22.75 11.2921C22.75 10.2731 22.75 9.36864 22.683 8.70932C22.6137 8.02876 22.4669 7.43856 22.118 6.91645C21.8444 6.50698 21.4929 6.15542 21.0834 5.88182C20.5613 5.53296 19.9711 5.38612 19.2905 5.31688C18.6312 5.24981 17.8095 5.24982 16.7905 5.24984L13.2361 5.24984C12.92 5.24984 12.7396 5.24891 12.6064 5.23514C12.5044 5.22801 12.4348 5.15238 12.4128 5.11546C12.3409 5.00253 12.0838 4.48892 11.9425 4.20619C11.4704 3.25105 10.8581 2.01189 9.4626 1.4886Z" fill="#141B34"/>
</svg>
