<svg width="24" height="24" viewBox="0 0 24 24" fill="none" xmlns="http://www.w3.org/2000/svg">
<path fill-rule="evenodd" clip-rule="evenodd" d="M6.68115 6.83268C6.50242 6.84786 6.3308 6.86585 6.16601 6.88716C5.07638 7.02806 4.18615 7.32447 3.45595 7.99011C2.72575 8.65575 2.34842 9.5148 2.10753 10.5868C1.87381 11.6269 1.75022 12.9601 1.59453 14.6395L1.26282 18.2175L1.26152 18.2333C1.10655 20.4038 2.82492 22.2505 5.00083 22.2505H5.74751C7.2806 22.2505 8.65902 21.3167 9.22825 19.8931L9.97064 18.0364C10.0985 17.7166 10.173 17.5332 10.2418 17.4041C10.251 17.3625 10.3042 17.2769 10.4436 17.2675C10.5889 17.2515 10.7868 17.2505 11.1313 17.2505H12.8724C13.2168 17.2505 13.4148 17.2515 13.5601 17.2675C13.6858 17.2764 13.747 17.3623 13.7619 17.4041C13.8307 17.5332 13.9052 17.7166 14.033 18.0364L14.7754 19.8931C15.3447 21.3167 16.7231 22.2505 18.2562 22.2505H19.0029C21.1788 22.2505 22.8971 20.4038 22.7422 18.2333L22.7409 18.218L22.4123 14.6458C22.2577 12.9651 22.135 11.6309 21.9018 10.59C21.6615 9.51726 21.2845 8.65751 20.5541 7.99125C19.8238 7.32499 18.9331 7.02831 17.8428 6.88728C17.6753 6.86561 17.5008 6.84738 17.3188 6.83203C17.1021 7.30577 16.7037 7.68756 16.1939 7.87618L15.4969 8.1341C14.9979 8.31876 14.6616 8.45107 14.501 8.52506C14.4469 8.64256 14.3741 8.84151 14.2666 9.13521L14.2666 9.13534L14.2665 9.13538C14.2271 9.24313 14.183 9.36362 14.1335 9.49752L13.8755 10.1945C13.5851 10.9794 12.8367 11.5005 11.9998 11.5005C11.163 11.5005 10.4146 10.9794 10.1241 10.1945L9.86622 9.49752C9.81964 9.37165 9.77766 9.25713 9.73974 9.15366L9.73948 9.15297L9.73938 9.15269L9.73938 9.15268C9.62714 8.84649 9.55043 8.63723 9.49517 8.51724C9.33453 8.44325 9.00182 8.31876 8.5028 8.1341L7.80577 7.87618C7.29627 7.68764 6.89793 7.30612 6.68115 6.83268ZM15.9998 12.5C15.9998 11.9477 16.4476 11.5 16.9998 11.5H17.0088C17.5611 11.5 18.0088 11.9477 18.0088 12.5C18.0088 13.0523 17.5611 13.5 17.0088 13.5H16.9998C16.4476 13.5 15.9998 13.0523 15.9998 12.5ZM6.99985 11.5C6.44756 11.5 5.99985 11.9477 5.99985 12.5C5.99985 13.0523 6.44756 13.5 6.99985 13.5H7.00883C7.56111 13.5 8.00883 13.0523 8.00883 12.5C8.00883 11.9477 7.56111 11.5 7.00883 11.5H6.99985Z" fill="#141B34"/>
<path d="M11.998 1.75C12.3119 1.75 12.5925 1.9454 12.7014 2.23972L12.9594 2.93675C13.3214 3.9151 13.4368 4.18091 13.627 4.37106C13.8171 4.56121 14.083 4.67667 15.0613 5.03869L15.7583 5.29661C16.0527 5.40552 16.248 5.68617 16.248 6C16.248 6.31383 16.0527 6.59448 15.7583 6.70339L15.0613 6.96131C14.083 7.32333 13.8171 7.43879 13.627 7.62894C13.4368 7.81909 13.3214 8.0849 12.9594 9.06325L12.7014 9.76028C12.5925 10.0546 12.3119 10.25 11.998 10.25C11.6842 10.25 11.4036 10.0546 11.2947 9.76028L11.0367 9.06325C10.6747 8.0849 10.5593 7.81909 10.3691 7.62894C10.179 7.43879 9.91314 7.32333 8.9348 6.96131L8.23777 6.70339C7.94344 6.59448 7.74805 6.31383 7.74805 6C7.74805 5.68617 7.94344 5.40552 8.23777 5.29661L8.9348 5.03869C9.91314 4.67667 10.179 4.56121 10.3691 4.37106C10.5593 4.18091 10.6747 3.9151 11.0367 2.93675L11.2947 2.23972C11.4036 1.9454 11.6842 1.75 11.998 1.75Z" fill="#141B34"/>
</svg>
