<svg width="24" height="24" viewBox="0 0 24 24" fill="none" xmlns="http://www.w3.org/2000/svg">
<path d="M15.5 1.25C15.9142 1.25 16.25 1.58579 16.25 2V3.25H17.75V2C17.75 1.58579 18.0858 1.25 18.5 1.25C18.9142 1.25 19.25 1.58579 19.25 2V3.30087C19.5896 3.35268 19.9437 3.4688 20.2374 3.76256C20.5312 4.05633 20.6473 4.41037 20.6991 4.75H22C22.4142 4.75 22.75 5.08579 22.75 5.5C22.75 5.91421 22.4142 6.25 22 6.25H20.75V7.75H22C22.4142 7.75 22.75 8.08579 22.75 8.5C22.75 8.91421 22.4142 9.25 22 9.25H20.6991C20.6473 9.58963 20.5312 9.94367 20.2374 10.2374C19.9437 10.5312 19.5896 10.6473 19.25 10.6991V12C19.25 12.4142 18.9142 12.75 18.5 12.75C18.0858 12.75 17.75 12.4142 17.75 12V10.75H16.25V12C16.25 12.4142 15.9142 12.75 15.5 12.75C15.0858 12.75 14.75 12.4142 14.75 12V10.6991C14.4104 10.6473 14.0563 10.5312 13.7626 10.2374C13.4688 9.94367 13.3527 9.58963 13.3009 9.25H12C11.5858 9.25 11.25 8.91421 11.25 8.5C11.25 8.08579 11.5858 7.75 12 7.75H13.25V6.25H12C11.5858 6.25 11.25 5.91421 11.25 5.5C11.25 5.08579 11.5858 4.75 12 4.75H13.3009C13.3527 4.41037 13.4688 4.05633 13.7626 3.76256C14.0563 3.4688 14.4104 3.35268 14.75 3.30087V2C14.75 1.58579 15.0858 1.25 15.5 1.25Z" fill="#141B34"/>
<path d="M5.92221 2.33215C6.53387 2.24991 7.29769 2.24995 8.18417 2.25L10 2.24991C10.5523 2.24991 11 2.69763 11 3.24991C11 3.80219 10.5523 4.24991 10 4.24991L8.25 4.25C7.27892 4.25 6.65121 4.25212 6.1887 4.31431C5.75496 4.37262 5.61902 4.46677 5.54289 4.54289C5.46677 4.61902 5.37262 4.75497 5.31431 5.1887C5.25212 5.65121 5.25 6.27892 5.25 7.25V13.65C5.25 13.9328 5.25 14.0743 5.33787 14.1621C5.42574 14.25 5.56716 14.25 5.85 14.25H20.4063L21.1655 15.6653C21.8895 17.0014 22.3771 18.0653 22.6026 18.9487C22.8346 19.8577 22.8073 20.6495 22.413 21.3656C21.9723 22.1661 21.1848 22.4782 20.3015 22.6165C19.4479 22.7501 18.3095 22.75 16.913 22.75H7.08674C5.6903 22.75 4.55187 22.7501 3.69825 22.6165C2.81497 22.4782 2.02749 22.1661 1.58675 21.3656C1.1925 20.6495 1.16515 19.8577 1.39719 18.9487C1.62267 18.0653 2.11021 17.0014 2.83421 15.6653L3.21015 14.9338L3.22019 14.9141C3.2425 14.8679 3.24862 14.8426 3.24991 14.7913L3.25 14.75L3.25 7.18418C3.24995 6.29769 3.24991 5.53387 3.33215 4.92221C3.42028 4.2667 3.61902 3.63835 4.12868 3.12868C4.63835 2.61902 5.2667 2.42028 5.92221 2.33215Z" fill="#141B34"/>
</svg>
