<svg width="24" height="24" viewBox="0 0 24 24" fill="none" xmlns="http://www.w3.org/2000/svg">
<path fill-rule="evenodd" clip-rule="evenodd" d="M4 10.25C4.41421 10.25 4.75 10.5858 4.75 11C4.75 15.0041 7.99593 18.25 12 18.25C16.0041 18.25 19.25 15.0041 19.25 11C19.25 10.5858 19.5858 10.25 20 10.25C20.4142 10.25 20.75 10.5858 20.75 11C20.75 15.5799 17.2314 19.3379 12.75 19.7183V22C12.75 22.4142 12.4142 22.75 12 22.75C11.5858 22.75 11.25 22.4142 11.25 22V19.7183C6.7686 19.3379 3.25 15.5799 3.25 11C3.25 10.5858 3.58579 10.25 4 10.25Z" fill="#141B34"/>
<path d="M13.1936 4.77816C14.8026 4.57792 16.0779 3.30259 16.2782 1.69356C16.3085 1.44998 16.5045 1.25 16.75 1.25C16.9955 1.25 17.1915 1.44998 17.2218 1.69356C17.4221 3.30259 18.6974 4.57792 20.3064 4.77816C20.55 4.80847 20.75 5.00454 20.75 5.25C20.75 5.49546 20.55 5.69153 20.3064 5.72184C18.6974 5.92208 17.4221 7.19741 17.2218 8.80644C17.1915 9.05002 16.9955 9.25 16.75 9.25C16.5045 9.25 16.3085 9.05002 16.2782 8.80644C16.0779 7.19741 14.8026 5.92208 13.1936 5.72184C12.95 5.69153 12.75 5.49546 12.75 5.25C12.75 5.00454 12.95 4.80847 13.1936 4.77816Z" fill="#141B34"/>
<path d="M14.9158 2.04306C14.0609 1.53911 13.0642 1.25 12 1.25C8.82437 1.25 6.25 3.82437 6.25 7V11C6.25 14.1756 8.82436 16.75 12 16.75C15.1756 16.75 17.75 14.1756 17.75 11V10.1761C17.4791 10.3754 17.1408 10.5 16.75 10.5C15.7799 10.5 15.1337 9.7323 15.0377 8.9608C14.9082 7.91975 14.0803 7.09183 13.0392 6.96227C12.2677 6.86627 11.5 6.22007 11.5 5.25C11.5 4.27993 12.2677 3.63373 13.0392 3.53773C13.9055 3.42992 14.6243 2.83848 14.9158 2.04306Z" fill="#141B34"/>
</svg>
