<svg width="24" height="24" viewBox="0 0 24 24" fill="none" xmlns="http://www.w3.org/2000/svg">
<path d="M5.62436 6.58405C5.85413 6.9287 5.761 7.39435 5.41635 7.62412L4.19755 8.43665C3.74923 8.73553 3.45591 8.93199 3.24141 9.10594C3.03907 9.27003 2.95106 9.38007 2.89605 9.48327C2.87408 9.52449 2.85417 9.57047 2.83668 9.62723L9.29925 13.5048C10.0642 13.9637 10.5907 14.2786 11.0284 14.4844C11.4506 14.6829 11.7339 14.7515 12.0004 14.7515C12.2669 14.7515 12.5501 14.6829 12.9724 14.4844C13.41 14.2786 13.9366 13.9637 14.7015 13.5048L21.164 9.62726C21.1465 9.57049 21.1266 9.5245 21.1046 9.48327C21.0496 9.38007 20.9616 9.27003 20.7592 9.10594C20.5447 8.93198 20.2514 8.73553 19.8031 8.43665L18.5843 7.62412C18.2397 7.39435 18.1465 6.9287 18.3763 6.58405C18.6061 6.23941 19.0717 6.14628 19.4164 6.37604L20.6625 7.20679C21.076 7.48249 21.4286 7.71749 21.7041 7.9409C21.9978 8.17909 22.2466 8.43675 22.4283 8.7777C22.6289 9.15396 22.6998 9.54114 22.7286 9.96088C22.7508 10.286 22.7495 10.6716 22.748 11.1187L22.7479 11.1432C22.7437 12.4028 22.732 13.6895 22.6995 14.9929L22.698 15.0514C22.6609 16.539 22.631 17.7391 22.4607 18.7047C22.282 19.7181 21.9386 20.5427 21.2345 21.2468C20.529 21.9524 19.6977 22.2951 18.6756 22.4737C17.7002 22.644 16.4852 22.6744 14.9766 22.7121L14.9184 22.7135C12.9673 22.7623 11.0334 22.7623 9.08233 22.7135L9.02412 22.7121C7.51552 22.6744 6.30045 22.6441 5.32507 22.4737C4.303 22.2951 3.47173 21.9524 2.76615 21.2469C2.06205 20.5427 1.71874 19.7181 1.54001 18.7047C1.3697 17.7391 1.33977 16.539 1.30266 15.0514L1.3012 14.9929C1.26867 13.6895 1.25695 12.4028 1.25272 11.1432L1.25264 11.1188C1.25113 10.6716 1.24982 10.286 1.27208 9.96084C1.30082 9.54112 1.3718 9.15395 1.57235 8.77771C1.75409 8.43675 2.00288 8.17909 2.29659 7.9409C2.57209 7.71748 2.92459 7.4825 3.33818 7.20679L4.5843 6.37604C4.92895 6.14628 5.3946 6.23941 5.62436 6.58405Z" fill="#141B34"/>
<path d="M15.052 1.25C15.9505 1.24997 16.6997 1.24995 17.2944 1.32991C17.9222 1.41432 18.489 1.59999 18.9445 2.05546C19.4 2.51093 19.5856 3.07773 19.67 3.70552C19.75 4.3003 19.75 5.04951 19.75 5.94798V5.94801L19.75 12C19.75 12.4142 19.4142 12.75 19 12.75C18.5857 12.75 18.25 12.4142 18.25 12V6C18.25 5.03599 18.2484 4.38843 18.1834 3.90539C18.1214 3.44393 18.0142 3.24644 17.8838 3.11612C17.7535 2.9858 17.556 2.87858 17.0946 2.81654C16.6115 2.7516 15.964 2.75 15 2.75H8.99996C8.03595 2.75 7.38839 2.7516 6.90535 2.81654C6.44389 2.87858 6.24639 2.9858 6.11607 3.11612C5.98576 3.24644 5.87853 3.44393 5.81649 3.90539C5.75155 4.38843 5.74996 5.03599 5.74996 6V12C5.74996 12.4142 5.41417 12.75 4.99996 12.75C4.58574 12.75 4.24996 12.4142 4.24996 12L4.24995 5.948V5.94797C4.24993 5.0495 4.2499 4.3003 4.32987 3.70552C4.41427 3.07773 4.59994 2.51093 5.05541 2.05546C5.51088 1.59999 6.07768 1.41432 6.70548 1.32991C7.30025 1.24995 8.04946 1.24997 8.94793 1.25H8.94796H15.052H15.052Z" fill="#141B34"/>
<path fill-rule="evenodd" clip-rule="evenodd" d="M8.90375 5.14752C9.09787 4.59291 9.62673 4.25 10.1875 4.25C10.7483 4.25 11.2771 4.59291 11.4712 5.14752L10.7734 5.39176L11.4712 5.14752L13.0829 9.75224C13.2197 10.1432 13.0137 10.5711 12.6228 10.7079C12.2318 10.8447 11.8039 10.6387 11.6671 10.2478L11.2596 9.08333H9.11544L8.70789 10.2478C8.57106 10.6387 8.14319 10.8447 7.75224 10.7079C7.36128 10.5711 7.15527 10.1432 7.2921 9.75224L8.90375 5.14752ZM9.64044 7.58333H10.7346L10.1875 6.02032L9.64044 7.58333ZM15 4.25C15.4142 4.25 15.75 4.58579 15.75 5V10C15.75 10.4142 15.4142 10.75 15 10.75C14.5858 10.75 14.25 10.4142 14.25 10V5C14.25 4.58579 14.5858 4.25 15 4.25Z" fill="#141B34"/>
</svg>
