<svg width="24" height="24" viewBox="0 0 24 24" fill="none" xmlns="http://www.w3.org/2000/svg">
<path fill-rule="evenodd" clip-rule="evenodd" d="M6.25 1C6.80229 1 7.25 1.44772 7.25 2V2.56563C8.21836 2.49997 9.36752 2.49998 10.7143 2.5H10.7143H13.7857C15.1325 2.49998 16.2816 2.49997 17.25 2.56563V2C17.25 1.44772 17.6977 1 18.25 1C18.8023 1 19.25 1.44772 19.25 2V2.88215C19.9425 3.08677 20.5511 3.40972 21.0704 3.92875C21.8538 4.71173 22.1908 5.69758 22.3483 6.86846C22.5 7.99622 22.5 9.43015 22.5 11.2091V13.7909C22.5 15.5699 22.5 17.0038 22.3483 18.1315C22.1908 19.3024 21.8538 20.2883 21.0704 21.0713C20.287 21.8542 19.3005 22.191 18.1289 22.3484C17.0005 22.5 15.5657 22.5 13.7857 22.5H10.7143C8.93427 22.5 7.4995 22.5 6.37106 22.3484C5.19949 22.191 4.21305 21.8542 3.4296 21.0713C2.64616 20.2883 2.30918 19.3024 2.15167 18.1315C1.99996 17.0038 1.99998 15.5699 2 13.791V13.7909V13.7909V11.2091V11.2091V11.209C1.99998 9.43011 1.99996 7.9962 2.15167 6.86846C2.30918 5.69758 2.64616 4.71173 3.4296 3.92875C3.94894 3.40972 4.55747 3.08677 5.25 2.88216V2C5.25 1.44772 5.69772 1 6.25 1ZM3.97397 8.75C3.95371 9.45901 3.95313 10.2903 3.95313 11.2805V13.7195C3.95313 15.5867 3.9552 16.889 4.08738 17.8716C4.21579 18.8261 4.45065 19.3315 4.81089 19.6915C5.17112 20.0515 5.67688 20.2863 6.63195 20.4146C7.6151 20.5467 8.91814 20.5488 10.7865 20.5488H13.715C15.5834 20.5488 16.8864 20.5467 17.8695 20.4146C18.8246 20.2863 19.3304 20.0515 19.6906 19.6915C20.0508 19.3315 20.2857 18.8261 20.4141 17.8716C20.5463 16.889 20.5484 15.5867 20.5484 13.7195V11.2805C20.5484 10.2903 20.5478 9.45901 20.5275 8.75H3.97397ZM11.7782 11.1936C11.5779 12.8026 10.3026 14.0779 8.69356 14.2782C8.44998 14.3085 8.25 14.5045 8.25 14.75C8.25 14.9955 8.44998 15.1915 8.69356 15.2218C10.3026 15.4221 11.5779 16.6974 11.7782 18.3064C11.8085 18.55 12.0045 18.75 12.25 18.75C12.4955 18.75 12.6915 18.55 12.7218 18.3064C12.9221 16.6974 14.1974 15.4221 15.8064 15.2218C16.05 15.1915 16.25 14.9955 16.25 14.75C16.25 14.5045 16.05 14.3085 15.8064 14.2782C14.1974 14.0779 12.9221 12.8026 12.7218 11.1936C12.6915 10.95 12.4955 10.75 12.25 10.75C12.0045 10.75 11.8085 10.95 11.7782 11.1936Z" fill="#141B34"/>
</svg>
