<svg width="24" height="24" viewBox="0 0 24 24" fill="none" xmlns="http://www.w3.org/2000/svg">
<path fill-rule="evenodd" clip-rule="evenodd" d="M11.5513 2.25C13.4654 2.24999 14.9971 2.24998 16.2271 2.37248C16.1143 2.66571 16.0303 2.86761 15.9766 2.98438C15.8159 3.05836 15.502 3.18172 15.003 3.36637L14.3059 3.6243C13.5211 3.91473 13 4.66312 13 5.5C13 6.33688 13.5211 7.08528 14.3059 7.3757L15.003 7.63363C15.502 7.81828 15.8198 7.94164 15.9805 8.01563C16.0545 8.17626 16.1817 8.49803 16.3664 8.99705L16.6243 9.69407C16.9147 10.4789 17.6631 11 18.5 11C19.3369 11 20.0853 10.4789 20.3757 9.69407L20.6336 8.99705C20.8183 8.49803 20.9416 8.17626 21.0156 8.01562C21.1323 7.96186 21.3341 7.88203 21.6272 7.77156C21.75 9.01601 21.75 10.6414 21.75 12.5572C21.75 14.7479 21.75 16.4686 21.5694 17.812C21.3843 19.1886 20.9973 20.2809 20.1391 21.1391C19.2809 21.9973 18.1886 22.3843 16.812 22.5694C15.4686 22.75 13.7479 22.75 11.5572 22.75C9.36646 22.75 7.53144 22.75 6.18802 22.5694C4.81137 22.3843 3.71911 21.9973 2.86091 21.1391C2.00272 20.2809 1.61568 19.1886 1.43059 17.812C1.24998 16.4686 1.24999 14.7479 1.25 12.5572V12.5572C1.24999 10.3665 1.24998 8.53144 1.43059 7.18802C1.61568 5.81137 2.00272 4.71911 2.86091 3.86091C3.71911 3.00272 4.81137 2.61568 6.18802 2.43059C7.53144 2.24998 9.36056 2.24999 11.5513 2.25H11.5513ZM13.9951 10C13.9951 11.3807 12.8742 12.5 11.4915 12.5C10.1089 12.5 8.98797 11.3807 8.98797 10C8.98797 8.61929 10.1089 7.5 11.4915 7.5C12.8742 7.5 13.9951 8.61929 13.9951 10ZM16.6512 16.8779C14.3633 12.874 8.63674 12.874 6.34882 16.8779C6.21617 17.11 6.21713 17.3952 6.35132 17.6264C6.48551 17.8577 6.73265 18 7 18H16C16.2674 18 16.5145 17.8577 16.6487 17.6264C16.7829 17.3952 16.7838 17.11 16.6512 16.8779Z" fill="#141B34"/>
<path d="M18.5 1.25C18.8138 1.25 19.0945 1.4454 19.2034 1.73972L19.4613 2.43675C19.8233 3.4151 19.9388 3.68091 20.1289 3.87106C20.3191 4.06121 20.5849 4.17667 21.5633 4.53869L22.2603 4.79661C22.5546 4.90552 22.75 5.18617 22.75 5.5C22.75 5.81383 22.5546 6.09448 22.2603 6.20339L21.5633 6.46131C20.5849 6.82333 20.3191 6.93879 20.1289 7.12894C19.9388 7.31909 19.8233 7.5849 19.4613 8.56325L19.2034 9.26028C19.0945 9.5546 18.8138 9.75 18.5 9.75C18.1862 9.75 17.9055 9.5546 17.7966 9.26028L17.5387 8.56325C17.1767 7.5849 17.0612 7.31909 16.8711 7.12894C16.6809 6.93879 16.4151 6.82333 15.4367 6.46131L14.7397 6.20339C14.4454 6.09448 14.25 5.81383 14.25 5.5C14.25 5.18617 14.4454 4.90552 14.7397 4.79661L15.4367 4.53869C16.4151 4.17667 16.6809 4.06121 16.8711 3.87106C17.0612 3.68091 17.1767 3.4151 17.5387 2.43675L17.7966 1.73972C17.9055 1.4454 18.1862 1.25 18.5 1.25Z" fill="#141B34"/>
</svg>
