<svg width="24" height="24" viewBox="0 0 24 24" fill="none" xmlns="http://www.w3.org/2000/svg">
<path fill-rule="evenodd" clip-rule="evenodd" d="M12.0572 1.75H12.0572H11.9428H11.9428C9.75211 1.74999 8.03144 1.74998 6.68802 1.93059C5.31137 2.11568 4.21911 2.50272 3.36091 3.36091C2.50272 4.21911 2.11568 5.31137 1.93059 6.68802C1.9015 6.90442 1.87709 7.1306 1.85662 7.36695C1.83129 7.65935 1.81863 7.80554 1.90779 7.90277C1.99696 8 2.14686 8 2.44664 8H5.7464C5.94136 8 6.03883 8 6.11047 7.95663C6.1821 7.91326 6.23476 7.81261 6.34008 7.61129C6.84112 6.65357 7.84423 6 9 6H15C16.1558 6 17.1589 6.65357 17.6599 7.61129C17.7652 7.81261 17.8179 7.91326 17.8895 7.95663C17.9612 8 18.0586 8 18.2536 8H21.5534C21.8531 8 22.003 8 22.0922 7.90277C22.1814 7.80554 22.1687 7.65935 22.1434 7.36695C22.1229 7.1306 22.0985 6.90442 22.0694 6.68802C21.8843 5.31137 21.4973 4.21911 20.6391 3.36091C19.7809 2.50272 18.6886 2.11568 17.312 1.93059C15.9686 1.74998 14.2479 1.74999 12.0572 1.75ZM22.2482 10.5943C22.247 10.3147 22.2465 10.1748 22.1587 10.0874C22.0709 10 21.9306 10 21.65 10H18.2536C18.0586 10 17.9612 10 17.8895 10.0434C17.8179 10.0867 17.7652 10.1874 17.6599 10.3887C17.1589 11.3464 16.1558 12 15 12H9C7.84423 12 6.84112 11.3464 6.34008 10.3887C6.23476 10.1874 6.1821 10.0867 6.11047 10.0434C6.03883 10 5.94136 10 5.7464 10H2.35004C2.06943 10 1.92912 10 1.84133 10.0874C1.75354 10.1748 1.75296 10.3147 1.75179 10.5943C1.74999 11.0227 1.75 11.4719 1.75 11.9428V11.9428V12.0572V12.0572C1.74999 14.2479 1.74998 15.9686 1.93059 17.312C2.11568 18.6886 2.50272 19.7809 3.36091 20.6391C4.21911 21.4973 5.31137 21.8843 6.68802 22.0694C8.03143 22.25 9.7521 22.25 11.9428 22.25H11.9428H12.0572H12.0572C14.2479 22.25 15.9686 22.25 17.312 22.0694C18.6886 21.8843 19.7809 21.4973 20.6391 20.6391C21.4973 19.7809 21.8843 18.6886 22.0694 17.312C22.25 15.9686 22.25 14.2479 22.25 12.0572V12.0572V11.9428V11.9428C22.25 11.4719 22.25 11.0227 22.2482 10.5943ZM8 9C8 8.44772 8.44771 8 9 8H15C15.5523 8 16 8.44772 16 9C16 9.55228 15.5523 10 15 10H9C8.44771 10 8 9.55228 8 9Z" fill="#141B34"/>
</svg>
