<svg width="24" height="24" viewBox="0 0 24 24" fill="none" xmlns="http://www.w3.org/2000/svg">
<path d="M1.77778 6.33105C3.74748 3.64327 7.40103 2.7496 10.3955 4.16948C11.6588 4.76852 12.9186 5.37991 14.176 5.99012C14.8001 6.29302 15.4237 6.59565 16.0468 6.89631C16.6047 7.16551 16.8487 7.21025 17.0156 7.17936C17.1782 7.14925 17.387 7.0243 17.7991 6.56593C18.006 6.33581 18.1854 6.08274 18.3969 5.85635C18.6304 5.60628 18.9612 5.3119 19.3971 5.22241C19.5979 5.18119 19.7862 5.1944 19.973 5.22772C20.4723 5.3168 21.0152 5.44594 21.4872 5.63377C22.1916 5.91404 22.5886 6.51398 22.4798 7.26787C22.4427 7.52462 22.361 7.83126 22.2668 8.1848L21.9631 9.32458C21.7351 10.1801 21.5508 10.872 21.331 11.3966C21.1023 11.9427 20.808 12.377 20.3197 12.6528C19.8331 12.9276 19.3057 12.9589 18.7124 12.8802C18.1401 12.8042 17.437 12.6147 16.5642 12.3796L14.1274 11.723C14.0552 11.7035 13.988 11.7673 14.0036 11.8404L14.318 13.3132C14.475 14.0484 13.7922 14.6543 13.0897 14.465L10.8285 13.8557C10.1958 13.6852 9.65325 13.2747 9.32116 12.7119C9.31565 12.7025 9.31045 12.693 9.30555 12.6833L8.07822 10.2553C8.0175 10.1352 7.90942 10.0476 7.78179 10.0132L2.6225 8.62305C1.68208 8.36774 1.13885 7.2174 1.77546 6.33422L1.77778 6.33105Z" fill="#141B34"/>
<path fill-rule="evenodd" clip-rule="evenodd" d="M23.0001 20.0001C23.0001 19.4478 22.5524 19.0001 22.0001 19.0001H6.00012C5.44784 19.0001 5.00012 19.4478 5.00012 20.0001C5.00012 20.5524 5.44784 21.0001 6.00012 21.0001H22.0001C22.5524 21.0001 23.0001 20.5524 23.0001 20.0001Z" fill="#141B34"/>
</svg>
