<svg width="24" height="24" viewBox="0 0 24 24" fill="none" xmlns="http://www.w3.org/2000/svg">
<path fill-rule="evenodd" clip-rule="evenodd" d="M12.0572 1.75H12.0572C14.2479 1.74999 15.9686 1.74998 17.312 1.93059C18.6886 2.11568 19.7809 2.50272 20.6391 3.36091C21.183 3.90482 21.5376 4.54273 21.7716 5.28748C21.8695 5.59919 21.9184 5.75505 21.8285 5.87752C21.7386 6 21.5652 6 21.2183 6H2.78168C2.43481 6 2.26137 6 2.17146 5.87752C2.08156 5.75505 2.13051 5.59919 2.22843 5.28748C2.46236 4.54273 2.81701 3.90482 3.36091 3.36091C4.21911 2.50272 5.31137 2.11568 6.68802 1.93059C8.03144 1.74998 9.75211 1.74999 11.9428 1.75H11.9428H12.0572ZM17.9927 8.59672C17.9976 8.3136 18.0001 8.17205 18.0876 8.08602C18.1752 8 18.3155 8 18.5961 8H21.6207C21.8903 8 22.025 8 22.1122 8.084C22.1993 8.168 22.2042 8.30084 22.214 8.56653C22.25 9.54391 22.25 10.6632 22.25 11.9428V11.9428V12.0572V12.0572C22.25 14.2479 22.25 15.9686 22.0694 17.312C21.8843 18.6886 21.4973 19.7809 20.6391 20.6391C19.7809 21.4973 18.6886 21.8843 17.312 22.0694C15.9686 22.25 14.2479 22.25 12.0572 22.25H12.0572H11.9428H11.9428C9.7521 22.25 8.03143 22.25 6.68802 22.0694C5.31137 21.8843 4.21911 21.4973 3.36091 20.6391C2.50272 19.7809 2.11568 18.6886 1.93059 17.312C1.74998 15.9686 1.74999 14.2479 1.75 12.0572V12.0572V11.9428V11.9428C1.74999 10.6632 1.74999 9.54391 1.78598 8.56653C1.79576 8.30084 1.80066 8.168 1.88781 8.084C1.97496 8 2.10973 8 2.37928 8H5.4039C5.68452 8 5.82483 8 5.91237 8.08602C5.99991 8.17205 6.00238 8.3136 6.00733 8.59672C6.01509 9.04132 6.03106 9.53538 6.06383 9.77915C6.13366 10.2985 6.29579 10.8313 6.73223 11.2678C7.16867 11.7042 7.70148 11.8663 8.22084 11.9362C8.69655 12.0001 9.28426 12.0001 9.93839 12L10 12L14.0616 12C14.7157 12.0001 15.3034 12.0001 15.7792 11.9362C16.2985 11.8663 16.8313 11.7042 17.2678 11.2678C17.7042 10.8313 17.8663 10.2985 17.9362 9.77915C17.9689 9.53538 17.9849 9.04132 17.9927 8.59672ZM8.60453 8C8.31937 8 8.17679 8 8.08862 8.08965C8.00046 8.1793 8.00283 8.32069 8.00757 8.60347C8.01383 8.97738 8.02524 9.35829 8.046 9.51266C8.08456 9.7995 8.13941 9.8474 8.14592 9.85308L8.14692 9.85407C8.1526 9.86058 8.20049 9.91543 8.48734 9.954C8.81369 9.99787 9.26462 10 10 10H14C14.7354 10 15.1863 9.99787 15.5127 9.954C15.7995 9.91543 15.8474 9.86058 15.8531 9.85407L15.8541 9.85308C15.8606 9.8474 15.9154 9.7995 15.954 9.51266C15.9748 9.35829 15.9862 8.97738 15.9924 8.60347C15.9972 8.32069 15.9995 8.1793 15.9114 8.08965C15.8232 8 15.6806 8 15.3955 8H8.60453ZM11.9955 13C11.4457 13 11 13.4477 11 14C11 14.5523 11.4457 15 11.9955 15H12.0045C12.5543 15 13 14.5523 13 14C13 13.4477 12.5543 13 12.0045 13H11.9955Z" fill="#141B34"/>
</svg>
