<svg width="24" height="24" viewBox="0 0 24 24" fill="none" xmlns="http://www.w3.org/2000/svg">
<path fill-rule="evenodd" clip-rule="evenodd" d="M21.5303 5.46967C21.8232 5.76256 21.8232 6.23744 21.5303 6.53033L20.75 7.31066V10.5C20.75 10.9142 20.4142 11.25 20 11.25C19.5858 11.25 19.25 10.9142 19.25 10.5V8.81066L17.5303 10.5303C17.3897 10.671 17.1989 10.75 17 10.75H16C15.5858 10.75 15.25 10.4142 15.25 10C15.25 9.58579 15.5858 9.25 16 9.25H16.6893L18.1893 7.75H16.5C16.0858 7.75 15.75 7.41421 15.75 7C15.75 6.58579 16.0858 6.25 16.5 6.25H19.6893L20.4697 5.46967C20.7626 5.17678 21.2374 5.17678 21.5303 5.46967Z" fill="#141B34"/>
<path d="M10.6031 7.00006C11.2353 7.00003 11.7761 7.00001 12.1936 7.04914C12.6107 7.09823 13.1011 7.21383 13.4428 7.61589C13.8295 8.07095 13.7847 8.59322 13.664 8.99677C13.5574 9.35336 13.3448 9.77665 13.1189 10.2262L13.1189 10.2262L12.8794 10.7037C12.5775 11.309 12.2913 11.8828 11.6975 12.2039C11.3811 12.375 11.0494 12.4412 10.7049 12.4715C10.3787 12.5001 9.98242 12.5001 9.51809 12.5001H6.48218C6.01785 12.5001 5.62159 12.5001 5.2954 12.4715C4.95085 12.4412 4.61914 12.375 4.30281 12.2039C3.70899 11.8828 3.42278 11.309 3.12083 10.7037L2.88136 10.2263C2.65551 9.77666 2.44288 9.35337 2.33626 8.99677C2.2156 8.59322 2.1708 8.07095 2.55751 7.61589C2.89918 7.21383 3.38957 7.09823 3.8067 7.04914C4.22418 7.00001 4.76493 7.00003 5.39716 7.00006H5.39716H10.6031Z" fill="#141B34"/>
<path fill-rule="evenodd" clip-rule="evenodd" d="M8 1.25C8.41421 1.25 8.75 1.58579 8.75 2V4C8.75 4.41421 8.41421 4.75 8 4.75C7.58579 4.75 7.25 4.41421 7.25 4V2C7.25 1.58579 7.58579 1.25 8 1.25Z" fill="#141B34"/>
<path d="M7.62047 3.25C6.8773 3.25 6.24139 3.2824 5.73819 3.39138C5.24419 3.49837 4.67457 3.81032 4.373 4.29954C4.15707 4.8056 4.25734 5.30551 4.43868 5.75C4.73255 5.7421 5.03961 5.74215 5.34227 5.74219H10.6604C10.9627 5.74215 11.2693 5.7421 11.5629 5.74997C11.7442 5.30559 11.8446 4.80566 11.6287 4.29954C11.3271 3.81032 10.7575 3.49837 10.2635 3.39138C9.76029 3.2824 9.12437 3.25 8.3812 3.25H7.62047Z" fill="#141B34"/>
<path d="M5.24866 13.75L5.24866 19.0609V19.061C5.24862 19.7237 5.2486 20.2948 5.31027 20.7521C5.37637 21.2422 5.52543 21.712 5.90767 22.093C6.28992 22.4741 6.76118 22.6227 7.25282 22.6886C7.71156 22.7501 8.28441 22.75 8.94926 22.75H8.94927H10.7487V13.7501C10.3823 13.7782 9.96465 13.7781 9.55572 13.7781H6.44307C6.0336 13.7781 5.61536 13.7782 5.24866 13.75Z" fill="#141B34"/>
<path d="M11.9993 22.75L18.0506 22.75C18.7155 22.75 19.2884 22.7501 19.7471 22.6884C20.2387 22.6223 20.71 22.4732 21.0923 22.091C21.4745 21.7088 21.6236 21.2375 21.6897 20.7459C21.7513 20.2871 21.7513 19.7143 21.7513 19.0494V17.9506C21.7513 17.2858 21.7513 16.7129 21.6897 16.2542C21.6236 15.7625 21.4745 15.2913 21.0923 14.909C20.71 14.5268 20.2387 14.3777 19.7471 14.3116C19.2884 14.2499 18.7156 14.25 18.0507 14.25L11.9993 14.25V22.75Z" fill="#141B34"/>
</svg>
