<svg width="24" height="24" viewBox="0 0 24 24" fill="none" xmlns="http://www.w3.org/2000/svg">
<path fill-rule="evenodd" clip-rule="evenodd" d="M5.70711 18.4179C6.09763 18.8084 6.09763 19.4416 5.70711 19.8321L3.70711 21.8321C3.31658 22.2226 2.68342 22.2226 2.29289 21.8321C1.90237 21.4416 1.90237 20.8084 2.29289 20.4179L4.29289 18.4179C4.68342 18.0274 5.31658 18.0274 5.70711 18.4179ZM18.2929 18.4179C18.6834 18.0274 19.3166 18.0274 19.7071 18.4179L21.7071 20.4179C22.0976 20.8084 22.0976 21.4416 21.7071 21.8321C21.3166 22.2226 20.6834 22.2226 20.2929 21.8321L18.2929 19.8321C17.9024 19.4416 17.9024 18.8084 18.2929 18.4179Z" fill="#141B34"/>
<path d="M3.26338 2.14804C3.87382 2.04988 4.41974 2.28655 4.85174 2.50255L5.44724 2.80029C5.94121 3.04728 6.14144 3.64796 5.89445 4.14193C5.64746 4.63591 5.04679 4.83614 4.55281 4.58915L3.95731 4.2914C3.76722 4.19635 3.65523 4.15295 3.58701 4.13391L3.58264 4.13271L3.579 4.13513C3.52038 4.17455 3.4275 4.25115 3.27683 4.40183C3.12615 4.5525 3.04955 4.64538 3.01013 4.704L3.00771 4.70764L3.00891 4.71201C3.02795 4.78023 3.07135 4.89222 3.1664 5.08231L3.46415 5.67781C3.71114 6.17179 3.51091 6.77246 3.01693 7.01945C2.52296 7.26644 1.92228 7.06621 1.67529 6.57224L1.37755 5.97674C1.16155 5.54474 0.924878 4.99882 1.02304 4.38838C1.12133 3.77718 1.51783 3.3324 1.86261 2.98761C2.20739 2.64283 2.65218 2.24633 3.26338 2.14804Z" fill="#141B34"/>
<path d="M20.413 4.13391C20.3448 4.15295 20.2328 4.19635 20.0427 4.2914L19.4472 4.58915C18.9533 4.83614 18.3526 4.63591 18.1056 4.14193C17.8586 3.64795 18.0588 3.04728 18.5528 2.80029L19.1483 2.50255C19.5803 2.28655 20.1262 2.04988 20.7367 2.14804C21.3479 2.24633 21.7926 2.64283 22.1374 2.98761C22.4822 3.3324 22.8787 3.77718 22.977 4.38838C23.0752 4.99882 22.8385 5.54474 22.6225 5.97674L22.3248 6.57223C22.0778 7.06621 21.4771 7.26644 20.9831 7.01945C20.4891 6.77246 20.2889 6.17179 20.5359 5.67781L20.8336 5.08231C20.9287 4.89222 20.9721 4.78023 20.9911 4.71201L20.9923 4.70763L20.9899 4.704C20.9505 4.64538 20.8739 4.5525 20.7232 4.40183C20.5725 4.25115 20.4797 4.17455 20.421 4.13513L20.4174 4.13271L20.413 4.13391Z" fill="#141B34"/>
<path fill-rule="evenodd" clip-rule="evenodd" d="M12.0002 3.375C6.61541 3.375 2.25018 7.74022 2.25018 13.125C2.25018 18.5098 6.61541 22.875 12.0002 22.875C17.385 22.875 21.7502 18.5098 21.7502 13.125C21.7502 7.74022 17.385 3.375 12.0002 3.375ZM13.0002 9.625C13.0002 9.07272 12.5525 8.625 12.0002 8.625C11.4479 8.625 11.0002 9.07272 11.0002 9.625V13.625C11.0002 13.8902 11.1055 14.1446 11.2931 14.3321L13.2931 16.3321C13.6836 16.7226 14.3168 16.7226 14.7073 16.3321C15.0978 15.9416 15.0978 15.3084 14.7073 14.9179L13.0002 13.2108V9.625Z" fill="#141B34"/>
<path fill-rule="evenodd" clip-rule="evenodd" d="M9 2.125C9 1.57272 9.44772 1.125 10 1.125H14C14.5523 1.125 15 1.57272 15 2.125C15 2.67728 14.5523 3.125 14 3.125H13V3.625C13 4.17728 12.5523 4.625 12 4.625C11.4477 4.625 11 4.17728 11 3.625V3.125H10C9.44772 3.125 9 2.67728 9 2.125Z" fill="#141B34"/>
</svg>
