<svg width="24" height="24" viewBox="0 0 24 24" fill="none" xmlns="http://www.w3.org/2000/svg">
<path fill-rule="evenodd" clip-rule="evenodd" d="M12.0452 1.25H12.0453C13.8818 1.24999 15.3214 1.24999 16.4635 1.37373C17.6291 1.50001 18.5734 1.76232 19.3798 2.34815C19.8679 2.70281 20.2972 3.13209 20.6518 3.62024C21.2377 4.42656 21.5 5.37094 21.6263 6.53648C21.75 7.67859 21.75 9.11824 21.75 10.9547V13.0453C21.75 14.8818 21.75 16.3214 21.6263 17.4635C21.5 18.6291 21.2377 19.5734 20.6518 20.3798C20.2972 20.8679 19.8679 21.2972 19.3798 21.6518C18.5734 22.2377 17.6291 22.5 16.4635 22.6263C15.3214 22.75 13.8818 22.75 12.0453 22.75H11.9547C10.1182 22.75 8.67859 22.75 7.53648 22.6263C6.37094 22.5 5.42656 22.2377 4.62024 21.6518C4.13209 21.2972 3.70281 20.8679 3.34815 20.3798C2.76232 19.5734 2.50001 18.6291 2.37373 17.4635C2.24999 16.3214 2.24999 14.8818 2.25 13.0453V13.0452V10.9548V10.9547C2.24999 9.11821 2.24999 7.67861 2.37373 6.53648C2.50001 5.37094 2.76232 4.42656 3.34815 3.62024C3.70281 3.13209 4.13209 2.70281 4.62024 2.34815C5.42656 1.76232 6.37094 1.50001 7.53648 1.37373C8.67861 1.24999 10.1182 1.24999 11.9547 1.25H11.9548H12.0452ZM7 12C7 11.4477 7.44772 11 8 11H16C16.5523 11 17 11.4477 17 12C17 12.5523 16.5523 13 16 13H8C7.44772 13 7 12.5523 7 12ZM9.5 17C9.5 16.4477 9.94772 16 10.5 16H13.5C14.0523 16 14.5 16.4477 14.5 17C14.5 17.5523 14.0523 18 13.5 18H10.5C9.94772 18 9.5 17.5523 9.5 17Z" fill="#141B34"/>
</svg>
