<svg width="24" height="24" viewBox="0 0 24 24" fill="none" xmlns="http://www.w3.org/2000/svg">
<path fill-rule="evenodd" clip-rule="evenodd" d="M4.58708 2.08959C5.09002 1.8614 5.68271 2.08414 5.9109 2.58708C7.57988 6.26564 9.94167 8.72689 12.4913 11.2958C12.5942 11.3995 12.6974 11.5034 12.8009 11.6075C15.2502 14.0722 17.8484 16.6867 19.8841 20.5324C20.1424 21.0205 19.9562 21.6257 19.4681 21.8841C18.9799 22.1424 18.3748 21.9562 18.1164 21.4681C16.2226 17.8902 13.8109 15.4623 11.3377 12.9725C11.2491 12.8833 11.1605 12.7941 11.0717 12.7047C8.51716 10.1307 5.92061 7.44914 4.08959 3.41341C3.8614 2.91047 4.08414 2.31778 4.58708 2.08959Z" fill="#141B34"/>
<path d="M14.142 15.5135C13.8583 15.0396 14.0125 14.4255 14.4864 14.1418C17.7499 12.1883 18 8.74472 18 6.99985C18 5.75076 17.844 4.83218 17.6965 4.24238C17.6227 3.94716 17.5662 3.70693 17.4354 3.43991C17.1939 2.94732 17.3946 2.3512 17.8861 2.10542C18.3801 1.85843 18.9808 2.05866 19.2278 2.55263C19.4876 3.0724 19.5439 3.38587 19.6368 3.75731C19.8227 4.50085 20 5.58227 20 6.99985C20 8.83189 19.7675 13.3114 15.5136 15.8579C15.0398 16.1415 14.4256 15.9873 14.142 15.5135Z" fill="#141B34"/>
<path d="M9.80995 8.49372C10.1026 8.96211 9.9601 9.57904 9.49171 9.87166C6.2459 11.8995 6 15.2334 6 16.9291C6 18.1956 6.16948 19.1264 6.3294 19.7235C6.40946 20.0224 6.55856 20.4013 6.61236 20.5352C6.86725 21.0207 6.68341 21.6219 6.19909 21.8814C5.71225 22.1422 5.10619 21.9589 4.8454 21.4721C4.62171 21.0545 4.49915 20.6204 4.39749 20.2409C4.19397 19.481 4 18.3764 4 16.9291C4 15.1066 4.24565 10.7909 8.43201 8.17548C8.9004 7.88285 9.51733 8.02533 9.80995 8.49372Z" fill="#141B34"/>
</svg>
