<svg width="24" height="24" viewBox="0 0 24 24" fill="none" xmlns="http://www.w3.org/2000/svg">
<path fill-rule="evenodd" clip-rule="evenodd" d="M9 3C9.55228 3 10 3.44772 10 4L10 11C10 11.5523 9.55228 12 9 12C8.44771 12 8 11.5523 8 11L8 4C8 3.44772 8.44772 3 9 3Z" fill="#141B34"/>
<path d="M13 3C13.5523 3 14 3.44772 14 4V13H20.5734C19.6112 11.6744 18.3125 11 17.117 11C16.5647 11 16.117 10.5523 16.117 10C16.117 9.44772 16.5647 9 17.117 9C19.1871 9 21.1418 10.2136 22.4075 12.137L22.4379 12.1831C22.5841 12.4048 22.7623 12.675 22.8684 12.9293C23.0092 13.2668 23.0944 13.7425 22.8191 14.2311C22.5341 14.7369 22.0567 14.8977 21.7197 14.9539C21.4408 15.0004 21.1013 15.0002 20.7993 15L20.743 15H14L14 17.7183V17.7183C14.0001 18.2238 14.0001 18.6857 13.9568 19.0613C13.9103 19.4646 13.8006 19.9191 13.4664 20.3091C13.113 20.7213 12.6664 20.8802 12.2522 20.9452C11.9012 21.0003 11.4788 21.0001 11.0596 21H11.0596L11 21H10C9.44772 21 9 20.5523 9 20C9 19.4477 9.44772 19 10 19H11C11.5042 19 11.7653 18.9971 11.9423 18.9694L11.9486 18.9684C11.9553 18.937 11.963 18.8929 11.97 18.8323C11.9984 18.5853 12 18.241 12 17.6667V4C12 3.44772 12.4477 3 13 3Z" fill="#141B34"/>
<path fill-rule="evenodd" clip-rule="evenodd" d="M5 3C5.55228 3 6 3.44772 6 4L6 17.7183C6.00005 18.2238 6.0001 18.6857 5.95681 19.0613C5.91033 19.4646 5.80065 19.9191 5.46636 20.3091C5.11302 20.7213 4.6664 20.8802 4.25223 20.9452C3.90124 21.0003 3.47879 21.0001 3.05959 21C3.03971 21 3.01985 21 3 21H2C1.44772 21 1 20.5523 1 20C1 19.4477 1.44772 19 2 19H3C3.50423 19 3.76531 18.9971 3.94231 18.9694C3.94445 18.969 3.94653 18.9687 3.94856 18.9684C3.95533 18.937 3.96299 18.8929 3.96996 18.8323C3.99843 18.5853 4 18.241 4 17.6667V4C4 3.44772 4.44772 3 5 3Z" fill="#141B34"/>
</svg>
