<svg width="24" height="24" viewBox="0 0 24 24" fill="none" xmlns="http://www.w3.org/2000/svg">
<path fill-rule="evenodd" clip-rule="evenodd" d="M11.9603 4C10.8487 4 9.94394 4.20817 9.21271 4.58465L9.20386 4.58921C7.95705 5.2155 7.0011 6.41733 7 7.80607C7.00001 7.80657 7.00001 7.80727 7.00003 7.80818L7.00055 7.83155C7.00122 7.85447 7.00265 7.89084 7.00568 7.93723C7.01184 8.03149 7.02413 8.15941 7.04779 8.29586C7.07195 8.43517 7.10448 8.56275 7.14376 8.66442C7.18083 8.7604 7.2089 8.79411 7.20861 8.79435C7.20858 8.79438 7.20809 8.79387 7.20711 8.79289C7.26339 8.84917 7.31274 8.91197 7.35413 8.97995C7.40497 9.06344 7.60975 9.24101 8.08755 9.46626C8.29962 9.56624 8.52526 9.65791 8.75369 9.74764C8.79936 9.76559 8.84648 9.78395 8.89423 9.80256C9.06987 9.87102 9.25399 9.94278 9.40587 10.009C9.79055 10.1767 10.0296 10.5667 10.0045 10.9856C9.97936 11.4044 9.69537 11.7631 9.2934 11.8836C8.99441 11.9732 8.61748 12.1301 8.26562 12.327C7.90164 12.5307 7.63879 12.7359 7.50527 12.8937L7.49395 12.9069C7.1147 13.3399 7 13.6733 7 14V21C7 21.5523 6.55228 22 6 22C5.44772 22 5 21.5523 5 21V14C5 13.0714 5.37755 12.2898 5.98412 11.5952C6.17977 11.3654 6.41802 11.1582 6.66921 10.9756C6.32071 10.7644 5.96184 10.4855 5.70918 10.1178C5.28825 9.63927 5.14016 9.00061 5.07721 8.63761C5.03837 8.41368 5.01941 8.21246 5.00994 8.06768C5.00516 7.99455 5.00269 7.93393 5.0014 7.88973C5.00076 7.86759 5.00041 7.84944 5.00022 7.83576L5.00004 7.81862L5.00001 7.81265L5 7.81033L5 7.80889C5 7.80868 5 7.80847 6 7.80847L5 7.80889C5 5.45811 6.58718 3.66713 8.30164 2.80421C9.37071 2.25483 10.6013 2 11.9603 2C13.1623 2 14.2954 2.22511 15.3473 2.68554C17.7968 3.71187 19 6.14418 19 8.71573V21C19 21.5523 18.5523 22 18 22C17.4477 22 17 21.5523 17 21V8.71573C17 6.73095 16.0971 5.16535 14.5687 4.52776L14.5516 4.52046C13.7692 4.17691 12.9095 4 11.9603 4Z" fill="#141B34"/>
</svg>
