<svg width="24" height="24" viewBox="0 0 24 24" fill="none" xmlns="http://www.w3.org/2000/svg">
<path fill-rule="evenodd" clip-rule="evenodd" d="M6.08788 6.02157C6.02229 6.28473 6.21681 6.52951 6.48887 6.56653L8.9561 6.90233C9.23687 6.94055 9.49994 6.74322 9.59352 6.47923C9.81812 5.84567 10.4175 4.82602 11.9491 4.82602C13.5706 4.82602 13.7692 6.36545 13.6006 8C7.01341 8 6 11.5 6 13C6 14.5 6.5067 17 9.54693 17C11.9791 17 13.6006 15.6667 14.1073 15L15.3067 16.1836C15.4893 16.3637 15.7799 16.3796 15.9815 16.2204L17.8098 14.7772C18.0101 14.619 18.0591 14.3381 17.9238 14.123L17.5528 13.5333C17.2897 13.1871 17.1475 12.7661 17.1475 12.3333V8.5C17.1475 8.35628 17.1501 8.19966 17.1529 8.03272C17.1889 5.87651 17.2537 2 12.0804 2C8.05712 2 6.48144 4.44241 6.08788 6.02157ZM13.6005 10C13.7694 11.5 13.4992 14.5 11.067 14.5C8.53349 14.5 9.04019 9.5 13.6005 10Z" fill="#141B34"/>
<path d="M18.0327 18.5461C11.3534 22.4615 5.9409 18.945 2.92189 17.0902C2.62067 16.9051 2.2235 17.0154 2.06396 17.3244C1.94673 17.5515 1.99251 17.8245 2.18603 17.9957C3.27771 18.9616 7.0082 22 10.7387 22C15.5134 22 18.0394 20.1335 18.8355 19.4143C19.0147 19.2524 19.0461 18.9993 18.9365 18.787C18.7706 18.4657 18.35 18.3601 18.0327 18.5461Z" fill="#141B34"/>
<path d="M20.5047 17.4687C19.7115 17.3265 18.6757 17.4713 18.0472 17.6056C17.8571 17.6462 17.6594 17.5656 17.5603 17.3978C17.4593 17.2266 17.4852 17.0059 17.6378 16.879C18.8269 15.8909 20.3874 15.9064 21.3665 16.1129C21.6953 16.1823 21.9473 16.4484 21.9822 16.784C22.1412 18.3117 21.1994 19.6945 20.5138 20.3891C20.3865 20.5181 20.1878 20.5339 20.0331 20.4398C19.8066 20.3019 19.758 19.9815 19.8789 19.7448C20.2296 19.0584 20.4367 18.0037 20.5047 17.4687Z" fill="#141B34"/>
</svg>
