<svg width="24" height="24" viewBox="0 0 24 24" fill="none" xmlns="http://www.w3.org/2000/svg">
<path d="M18.6212 4.7158C19.0165 4.33013 19.0244 3.69702 18.6387 3.30169C18.253 2.90637 17.6199 2.89854 17.2246 3.2842L4.26731 15.9249C3.57068 16.6044 2.97032 17.19 2.5871 17.687C2.22051 18.1624 1.76615 18.9181 2.12935 19.7735C2.48712 20.6161 3.33457 20.831 3.9324 20.9135C4.56057 21.0001 5.40718 21.0001 6.39471 21L20.998 21C21.5503 21 21.998 20.5523 21.998 20C21.998 19.4477 21.5503 19 20.998 19H11.6935C11.4665 16.9318 10.5438 15.0996 9.17668 13.9296L18.6212 4.7158Z" fill="#141B34"/>
</svg>
