<svg width="24" height="24" viewBox="0 0 24 24" fill="none" xmlns="http://www.w3.org/2000/svg">
<path d="M8.46926 6.53859C8.71834 7.02855 8.5321 7.63235 8.05328 7.88723C6.20753 8.86971 4.87317 10.5017 4.3863 12.3924C4.27826 12.812 3.91918 13.1101 3.5003 13.1358C3.47992 13.1549 3.44532 13.1946 3.39998 13.2719C3.28209 13.4727 3.20455 13.7617 3.20455 14.0107C3.20455 14.5662 3.56584 14.9139 4.09242 14.9794C4.62582 15.0458 5.06009 14.7896 5.18926 14.27C5.29945 13.8268 5.68944 13.5166 6.13636 13.5166C6.58329 13.5166 6.97327 13.8268 7.08347 14.27C7.19643 14.7244 7.58414 15.0001 8.09091 15.0001C8.59767 15.0001 8.98538 14.7244 9.09835 14.27C9.20855 13.8268 9.59853 13.5166 10.0455 13.5166C10.4924 13.5166 10.8824 13.8268 10.9926 14.27C11.1055 14.7244 11.4932 15.0001 12 15.0001C12.5068 15.0001 12.8945 14.7244 13.0074 14.27C13.1176 13.8268 13.5076 13.5166 13.9545 13.5166C14.4015 13.5166 14.7915 13.8268 14.9016 14.27C15.0146 14.7244 15.4023 15.0001 15.9091 15.0001C16.4159 15.0001 16.8036 14.7244 16.9165 14.27C17.0267 13.8268 17.4167 13.5166 17.8636 13.5166C18.3106 13.5166 18.7005 13.8268 18.8107 14.27C18.9399 14.7896 19.3742 15.0458 19.9076 14.9794C20.4342 14.9139 20.7955 14.5662 20.7955 14.0107C20.7955 13.7617 20.7179 13.4727 20.6 13.2719C20.5547 13.1946 20.5201 13.1549 20.4997 13.1358C20.0808 13.1101 19.7217 12.812 19.6137 12.3924C19.1268 10.5017 17.7925 8.86971 15.9467 7.88723C15.4679 7.63235 15.2817 7.02855 15.5307 6.53859C15.7798 6.04864 16.3699 5.85806 16.8487 6.11294C18.956 7.23463 20.5952 9.08083 21.3387 11.3221C21.7714 11.5392 22.0817 11.9119 22.2755 12.2419C22.5832 12.7661 22.75 13.4136 22.75 14.0107C22.75 15.787 21.4332 16.8043 20.1435 16.9648C19.3694 17.0611 18.5088 16.8602 17.8549 16.3111C17.2934 16.7761 16.5825 17.0001 15.9091 17.0001C15.2321 17.0001 14.5174 16.7738 13.9545 16.3039C13.3917 16.7738 12.677 17.0001 12 17.0001C11.323 17.0001 10.6083 16.7738 10.0455 16.3039C9.48258 16.7738 8.76786 17.0001 8.09091 17.0001C7.41746 17.0001 6.70662 16.7761 6.1451 16.3111C5.49118 16.8602 4.63062 17.0611 3.85649 16.9648C2.56677 16.8043 1.25 15.787 1.25 14.0107C1.25 13.4136 1.41677 12.7661 1.72454 12.2419C1.91829 11.9119 2.22862 11.5392 2.66126 11.3221C3.40475 9.08083 5.044 7.23463 7.15127 6.11294C7.63009 5.85806 8.22017 6.04864 8.46926 6.53859Z" fill="#141B34"/>
<path d="M14.7276 1.81815C14.6272 1.41631 14.22 1.17199 13.8181 1.27245C12.3417 1.64154 11.6247 2.54359 11.3667 3.32334C10.1532 3.60937 9.25001 4.69924 9.25001 6.00006C9.25001 7.51884 10.4812 8.75006 12 8.75006C13.5188 8.75006 14.75 7.51884 14.75 6.00006C14.75 4.82848 14.0174 3.82802 12.9853 3.43182C13.1841 3.17042 13.5431 2.88736 14.1819 2.72766C14.5838 2.6272 14.8281 2.22 14.7276 1.81815Z" fill="#141B34"/>
<path fill-rule="evenodd" clip-rule="evenodd" d="M9.94722 9.60555C10.4412 9.85254 10.6414 10.4532 10.3944 10.9472L9.89443 11.9472C9.64744 12.4412 9.04677 12.6414 8.55279 12.3944C8.05881 12.1474 7.85859 11.5467 8.10558 11.0528L8.60558 10.0528C8.85257 9.55878 9.45324 9.35856 9.94722 9.60555ZM14.0528 9.60555C14.5468 9.35856 15.1474 9.55878 15.3944 10.0528L15.8944 11.0528C16.1414 11.5467 15.9412 12.1474 15.4472 12.3944C14.9532 12.6414 14.3526 12.4412 14.1056 11.9472L13.6056 10.9472C13.3586 10.4532 13.5588 9.85254 14.0528 9.60555Z" fill="#141B34"/>
<path d="M2.89157 15.5615C3.03254 15.3659 3.25892 15.25 3.50001 15.25H20.5C20.7411 15.25 20.9675 15.3659 21.1084 15.5615C21.2494 15.757 21.2878 16.0085 21.2115 16.2372L20.5651 18.1764L20.5651 18.1764C20.247 19.1309 19.9882 19.9073 19.7068 20.5121C19.4133 21.1431 19.0652 21.6567 18.5304 22.0422C17.9956 22.4276 17.3983 22.5954 16.7068 22.6744C16.0441 22.75 15.2257 22.75 14.2196 22.75H9.78042H9.78041C8.77434 22.75 7.95588 22.75 7.29322 22.6744C6.60173 22.5954 6.00444 22.4276 5.46962 22.0422C4.9348 21.6567 4.58673 21.1431 4.29317 20.5121C4.01185 19.9073 3.75304 19.1309 3.43491 18.1764L2.78849 16.2372C2.71226 16.0085 2.75061 15.757 2.89157 15.5615Z" fill="#141B34"/>
</svg>
