<svg width="24" height="24" viewBox="0 0 24 24" fill="none" xmlns="http://www.w3.org/2000/svg">
<path fill-rule="evenodd" clip-rule="evenodd" d="M13.4799 4.10015C13.1308 4.74657 13 5.57046 13 6.125C13 6.67728 12.5523 7.125 12 7.125C11.4477 7.125 11 6.67728 11 6.125C11 5.34621 11.1692 4.1701 11.7201 3.14985C12.2944 2.08628 13.3376 1.125 15 1.125C15.5523 1.125 16 1.57272 16 2.125C16 2.67728 15.5523 3.125 15 3.125C14.2624 3.125 13.8056 3.49706 13.4799 4.10015Z" fill="#141B34"/>
<path fill-rule="evenodd" clip-rule="evenodd" d="M9.5 5.375C5.35792 5.375 2.25 9.44554 2.25 14.125C2.25 18.8045 5.35792 22.875 9.5 22.875C10.3806 22.875 11.2232 22.6859 12.0002 22.3425C12.7751 22.6852 13.6167 22.875 14.5005 22.875C18.6426 22.875 21.7505 18.8045 21.7505 14.125C21.7505 9.44554 18.6426 5.375 14.5005 5.375C13.6132 5.375 12.7696 5.56282 11.9921 5.90398C11.2173 5.56284 10.3776 5.375 9.5 5.375ZM10.9297 8.78266C11.308 8.38029 11.2885 7.74743 10.8861 7.36911C10.4837 6.9908 9.85087 7.0103 9.47256 7.41266C8.12767 8.84306 7.22828 10.8217 7.00517 13.0238C6.9495 13.5733 7.3498 14.0638 7.89928 14.1195C8.44875 14.1752 8.93931 13.7749 8.99498 13.2254C9.17672 11.4317 9.90536 9.87207 10.9297 8.78266Z" fill="#141B34"/>
</svg>
