<svg width="24" height="24" viewBox="0 0 24 24" fill="none" xmlns="http://www.w3.org/2000/svg">
<path fill-rule="evenodd" clip-rule="evenodd" d="M11.6338 1.25013C12.1763 1.25473 12.7039 1.3848 13.1796 1.7907C13.675 2.21344 13.876 2.75308 13.9622 3.30341C14.0387 3.79156 14.0386 4.39236 14.0385 5.0472L14.0385 10.6502C14.0385 12.1106 14.0597 12.5328 14.2154 12.8731C14.3671 13.2047 14.6245 13.4652 15.012 13.7127L17.0741 14.7115C17.6175 14.9524 18.2188 15.219 18.7597 15.524C20.2644 16.3723 21.3212 17.8376 21.6472 19.5332C21.7443 20.0387 21.8314 20.764 21.618 21.4102C21.5025 21.7598 21.2881 22.1191 20.9178 22.3827C20.5495 22.6448 20.1144 22.75 19.6664 22.75H9.05958C7.72658 22.75 6.62888 22.7501 5.76041 22.6338C4.84968 22.5118 4.04618 22.2462 3.40235 21.605C2.75766 20.9629 2.48981 20.1601 2.36696 19.2501C2.25003 18.3839 2.25006 17.2895 2.2501 15.9629L2.25008 13.35C2.25008 13.0672 2.25008 12.9258 2.33795 12.8379C2.42582 12.75 2.56724 12.75 2.85008 12.75H5.00098C5.41519 12.75 5.75098 12.4142 5.75098 12C5.75098 11.5858 5.41519 11.25 5.00098 11.25H2.85007C2.56723 11.25 2.42581 11.25 2.33794 11.1621C2.25007 11.0743 2.25007 10.9329 2.25007 10.65L2.25006 9.85002C2.25006 9.56717 2.25006 9.42575 2.33793 9.33788C2.4258 9.25002 2.56722 9.25002 2.85006 9.25002H6.05957C6.47378 9.25002 6.80957 8.91423 6.80957 8.50002C6.80957 8.0858 6.47378 7.75002 6.05957 7.75002H2.84622C2.5671 7.75002 2.42755 7.75002 2.34006 7.66426C2.33863 7.66286 2.33721 7.66144 2.3358 7.66001C2.25005 7.57252 2.25005 7.43296 2.25005 7.15385C2.24953 6.63968 2.24905 6.17046 2.48249 5.61807C2.71502 5.06783 2.97531 4.81544 3.27126 4.52847C4.49808 3.33879 6.70714 1.98368 9.99078 1.44127C10.5598 1.34716 11.1702 1.24619 11.6338 1.25013ZM12.9574 14.8459C11.5939 15.0968 10.3792 15.8179 9.5829 16.7446C9.27114 17.1467 8.92047 17.4416 8.51019 17.5964C8.08559 17.7566 7.6818 17.7349 7.33323 17.6503C7.01855 17.5739 6.80538 17.4885 6.48667 17.3312C6.46771 17.3219 6.45823 17.3172 6.44993 17.3124C6.44168 17.3077 6.42792 17.2986 6.40051 17.2804C6.1731 17.1294 5.67714 16.9028 5.21312 17.0205C5.05744 17.0459 4.83478 17.1053 4.61926 17.17C4.42319 17.2289 4.32516 17.2583 4.26563 17.3406C4.20611 17.4228 4.20888 17.5275 4.21443 17.7368C4.22744 18.2278 4.25238 18.6367 4.29981 18.9881C4.39309 19.6791 4.55747 19.9997 4.77727 20.2186C4.99792 20.4383 5.32233 20.6032 6.01908 20.6965C6.74325 20.7935 7.70985 20.7955 9.1286 20.7955H14.8624C15.0984 20.7955 15.2163 20.7955 15.2976 20.7323C15.3788 20.6691 15.4098 20.547 15.4717 20.3029C15.7447 19.2262 16.2499 18.3648 16.8131 17.7064C17.0986 17.3726 17.2414 17.2057 17.2093 17.0597C17.1772 16.9138 16.992 16.8289 16.6218 16.659L15.3752 16.0871C14.9414 15.8898 14.4235 15.6542 13.9647 15.3612C13.7933 15.2518 13.6222 15.1298 13.457 14.9924C13.3384 14.8937 13.2791 14.8443 13.2145 14.8274C13.1499 14.8105 13.0858 14.8223 12.9574 14.8459ZM9 6.00002C9 5.44773 9.44772 5.00002 10 5.00002H10.009C10.5613 5.00002 11.009 5.44773 11.009 6.00002C11.009 6.5523 10.5613 7.00002 10.009 7.00002H10C9.44772 7.00002 9 6.5523 9 6.00002ZM10 9.00002C9.44772 9.00002 9 9.44773 9 10C9 10.5523 9.44772 11 10 11H10.009C10.5613 11 11.009 10.5523 11.009 10C11.009 9.44773 10.5613 9.00002 10.009 9.00002H10Z" fill="#141B34"/>
</svg>
