<svg width="24" height="24" viewBox="0 0 24 24" fill="none" xmlns="http://www.w3.org/2000/svg">
<path d="M15.9998 19C15.9998 19.5523 15.5521 20 14.9998 20C14.4475 20 13.9998 19.5523 13.9998 19L14 6.7395C13.9999 6.26801 13.9998 5.80423 14.0557 5.44568C14.109 5.10422 14.2783 4.39991 15.0634 4.10522C15.8365 3.81502 16.4872 4.19563 16.7859 4.39925C17.1027 4.61518 17.4627 4.94149 17.8317 5.27604L17.8317 5.27605L18.5521 5.92887C18.9307 6.27177 19.2981 6.60453 19.5418 6.89751C19.767 7.16831 20.2092 7.78044 19.8854 8.51516C19.5616 9.24988 18.783 9.40097 18.4174 9.44863C18.0219 9.5002 17.5079 9.5001 16.9782 9.49999L15.9998 9.49998L15.9998 19Z" fill="#141B34"/>
<path d="M8.00019 4.99999C8.00019 4.4477 8.44791 3.99999 9.00019 3.99999C9.55248 3.99999 10.0002 4.4477 10.0002 4.99999L9.99999 17.2605C10.0001 17.732 10.0002 18.1958 9.94429 18.5543C9.891 18.8958 9.72174 19.6001 8.93662 19.8948C8.16345 20.185 7.51278 19.8044 7.21405 19.6008C6.89727 19.3848 6.53733 19.0585 6.1683 18.724L6.16829 18.724L5.44786 18.0711C5.06928 17.7282 4.7019 17.3955 4.45822 17.1025C4.23298 16.8317 3.79078 16.2196 4.1146 15.4848C4.43843 14.7501 5.217 14.599 5.5826 14.5514C5.97814 14.4998 6.49214 14.4999 7.0218 14.5L8.00019 14.5L8.00019 4.99999Z" fill="#141B34"/>
</svg>
