<svg width="24" height="24" viewBox="0 0 24 24" fill="none" xmlns="http://www.w3.org/2000/svg">
<path d="M4 2C3.44772 2 3 2.44772 3 3L3 5.20428C2.99992 7.08446 2.99987 8.16375 3.16006 9.08649C4.04276 14.1711 8.38788 18.073 13.8143 18.8571C14.3224 18.9305 15.0896 18.9662 16 18.9836C16.0004 19.4971 16.0046 19.9701 16.0439 20.3387C16.0794 20.6702 16.1883 21.5004 16.8757 21.8623C17.5581 22.2217 18.1697 21.7854 18.4141 21.598C18.7116 21.37 19.0641 21.0199 19.4407 20.6457L19.4865 20.6003C19.816 20.273 20.1576 19.9055 20.4241 19.534C20.5578 19.3475 20.6916 19.134 20.7957 18.9012C20.8964 18.6756 21 18.3639 21 18C21 17.6361 20.8964 17.3244 20.7957 17.0988C20.6916 16.866 20.5578 16.6525 20.4241 16.4661C20.1576 16.0945 19.816 15.727 19.4865 15.3997L19.4407 15.3543C19.0641 14.9801 18.7116 14.63 18.4141 14.402C18.1697 14.2146 17.5581 13.7783 16.8757 14.1377C16.1883 14.4996 16.0794 15.3298 16.0439 15.6613C16.0054 16.022 16.0006 16.4825 16.0001 16.9832C15.1677 16.9675 14.5102 16.9369 14.1004 16.8777C9.42524 16.2021 5.84782 12.8759 5.13059 8.74441C5.00371 8.01354 5 7.11961 5 5.07692V3C5 2.44772 4.55228 2 4 2Z" fill="#141B34"/>
</svg>
