<svg width="24" height="24" viewBox="0 0 24 24" fill="none" xmlns="http://www.w3.org/2000/svg">
<path fill-rule="evenodd" clip-rule="evenodd" d="M5.41789 6.83217C5.02737 6.44164 5.02737 5.80848 5.41789 5.41795C5.80842 5.02743 6.44158 5.02743 6.83211 5.41795L13.8175 12.4033C14.4507 11.7703 14.9859 11.2408 15.4448 10.8983C15.9277 10.5379 16.553 10.2109 17.2566 10.4656C17.9601 10.7203 18.2311 11.3719 18.3713 11.9578C18.5115 12.5436 18.5841 13.3424 18.6707 14.2957L18.7939 15.6501C18.845 16.212 18.8905 16.7114 18.87 17.1134C18.8478 17.5481 18.7443 18.008 18.3757 18.3767C18.007 18.7454 17.5471 18.8488 17.1123 18.871C16.7104 18.8915 16.211 18.846 15.649 18.7949L14.2947 18.6718C13.3414 18.5852 12.5426 18.5126 11.9568 18.3724C11.3709 18.2321 10.7193 17.9612 10.4646 17.2576C10.2098 16.554 10.5369 15.9287 10.8973 15.4459C11.2399 14.9867 11.7698 14.4512 12.4033 13.8175L5.41789 6.83217Z" fill="#141B34"/>
</svg>
