<svg width="24" height="24" viewBox="0 0 24 24" fill="none" xmlns="http://www.w3.org/2000/svg">
<path d="M6.59132 2.17312C6.0323 2.10571 5.31245 2.01892 4.66935 2.00274C4.32935 1.99419 3.96837 2.0037 3.63906 2.05922C3.34584 2.10866 2.89773 2.22163 2.5597 2.55967C2.22166 2.89771 2.10868 3.34581 2.05925 3.63904C2.00373 3.96834 1.99422 4.32933 2.00277 4.66933C2.01894 5.31243 2.10573 6.0322 2.17314 6.59123L2.18923 6.72504C2.21033 6.90163 2.23607 7.11699 2.27898 7.29027L2.28001 7.29443C2.31043 7.4176 2.45035 7.98409 3.0455 8.18987C3.6391 8.39511 4.09715 8.03927 4.19854 7.96051L4.20052 7.95897C4.34097 7.8499 4.49312 7.69752 4.61629 7.57417L5.38811 6.80235L9.79289 11.2072C10.1834 11.5978 10.8166 11.5978 11.2071 11.2072C11.5976 10.8167 11.5976 10.1836 11.2071 9.79303L6.80232 5.38814L7.5742 4.61626L7.5742 4.61626C7.69756 4.49309 7.84992 4.34095 7.95899 4.20049L7.96053 4.19851C8.03929 4.09713 8.39513 3.63907 8.1899 3.04548C7.98412 2.45032 7.41763 2.31041 7.29445 2.27998L7.2903 2.27896C7.11706 2.23605 6.90154 2.21029 6.72498 2.18919L6.59132 2.17312Z" fill="#141B34"/>
<path d="M17.4087 21.8269C17.9677 21.8943 18.6876 21.9811 19.3307 21.9973C19.6707 22.0058 20.0317 21.9963 20.361 21.9408C20.6542 21.8913 21.1023 21.7784 21.4403 21.4403C21.7784 21.1023 21.8913 20.6542 21.9408 20.361C21.9963 20.0317 22.0058 19.6707 21.9973 19.3307C21.9811 18.6876 21.8943 17.9678 21.8269 17.4088L21.8108 17.275C21.7897 17.0984 21.764 16.883 21.721 16.7097L21.72 16.7056C21.6896 16.5824 21.5497 16.0159 20.9545 15.8101C20.3609 15.6049 19.9029 15.9607 19.8015 16.0395L19.7995 16.041C19.6591 16.1501 19.5069 16.3025 19.3837 16.4258L18.6119 17.1976L14.2071 12.7928C13.8166 12.4022 13.1834 12.4022 12.7929 12.7928C12.4024 13.1833 12.4024 13.8164 12.7929 14.207L17.1977 18.6119L16.4258 19.3837L16.4258 19.3837C16.3025 19.5069 16.1501 19.6591 16.041 19.7995L16.0395 19.8015C15.9607 19.9029 15.6049 20.3609 15.8101 20.9545C16.0159 21.5497 16.5824 21.6896 16.7056 21.72L16.7097 21.721C16.883 21.7639 17.0985 21.7897 17.2751 21.8108L17.4087 21.8269Z" fill="#141B34"/>
</svg>
