<svg width="24" height="24" viewBox="0 0 24 24" fill="none" xmlns="http://www.w3.org/2000/svg">
<path d="M20 2C20.5523 2 21 2.44772 21 3L21 5.20428C21.0001 7.08446 21.0001 8.16375 20.8399 9.08649C19.9572 14.1711 15.6121 18.073 10.1857 18.8571C9.67764 18.9305 8.91037 18.9662 7.99997 18.9836C7.99958 19.4971 7.99543 19.9701 7.95605 20.3387C7.92065 20.6702 7.8117 21.5004 7.12434 21.8623C6.44192 22.2217 5.83032 21.7854 5.58587 21.598C5.28839 21.37 4.93593 21.0199 4.55929 20.6457L4.51352 20.6003C4.18398 20.273 3.84245 19.9055 3.57595 19.534C3.44219 19.3475 3.30836 19.134 3.20433 18.9012C3.10358 18.6756 3 18.3639 3 18C3 17.6361 3.10358 17.3244 3.20433 17.0988C3.30836 16.866 3.44219 16.6525 3.57594 16.4661C3.84245 16.0945 4.18398 15.727 4.51351 15.3997L4.55928 15.3543C4.93593 14.9801 5.28838 14.63 5.58587 14.402C5.83032 14.2146 6.44192 13.7783 7.12434 14.1377C7.8117 14.4996 7.92065 15.3298 7.95605 15.6613C7.99458 16.022 7.99939 16.4825 7.99994 16.9832C8.83226 16.9675 9.48977 16.9369 9.89963 16.8777C14.5748 16.2021 18.1522 12.8759 18.8694 8.74441C18.9963 8.01354 19 7.11961 19 5.07692V3C19 2.44772 19.4477 2 20 2Z" fill="#141B34"/>
</svg>
