<svg width="24" height="24" viewBox="0 0 24 24" fill="none" xmlns="http://www.w3.org/2000/svg">
<path fill-rule="evenodd" clip-rule="evenodd" d="M21 12C21 12.5523 20.5523 13 20 13L4.00001 13C3.44773 13 3.00001 12.5523 3.00001 12C3.00001 11.4477 3.44773 11 4.00001 11L20 11C20.5523 11 21 11.4477 21 12Z" fill="#141B34"/>
<path d="M18.9722 12C18.8789 11.8452 18.6833 11.5671 18.4694 11.3251C18.0437 10.8432 17.4569 10.2928 16.8444 9.76105C16.2369 9.23357 15.6264 8.74365 15.1661 8.38437C14.9364 8.20515 14.5401 7.90576 14.4069 7.80521C13.9623 7.47768 13.8673 6.85173 14.1948 6.40706C14.5223 5.96236 15.1483 5.86736 15.593 6.19487L15.5967 6.19767C15.7411 6.30672 16.1598 6.62291 16.3965 6.80767C16.8736 7.18002 17.5132 7.69303 18.1556 8.25084C18.7931 8.80434 19.4564 9.4216 19.9682 10.0008C20.223 10.2892 20.4615 10.5918 20.6416 10.8906C20.8052 11.162 21 11.5568 21 12C21 12.4431 20.8052 12.838 20.6416 13.1094C20.4615 13.4082 20.223 13.7108 19.9682 13.9992C19.4564 14.5784 18.7931 15.1957 18.1556 15.7492C17.5132 16.307 16.8736 16.82 16.3965 17.1923C16.1598 17.3771 15.7414 17.6931 15.597 17.8021L15.593 17.8051C15.1483 18.1326 14.5223 18.0376 14.1948 17.5929C13.8673 17.1483 13.9623 16.5223 14.4069 16.1948C14.5401 16.0942 14.9364 15.7948 15.1661 15.6156C15.6264 15.2564 16.2369 14.7664 16.8444 14.2389C17.4569 13.7072 18.0437 13.1568 18.4694 12.6749C18.6833 12.4329 18.8789 12.1548 18.9722 12Z" fill="#141B34"/>
</svg>
