<svg width="24" height="24" viewBox="0 0 24 24" fill="none" xmlns="http://www.w3.org/2000/svg">
<path fill-rule="evenodd" clip-rule="evenodd" d="M16.7071 7.29289C16.3166 6.90237 15.6834 6.90237 15.2929 7.29289L7.29291 15.2929C6.90238 15.6834 6.90238 16.3166 7.29291 16.7071C7.68343 17.0976 8.3166 17.0976 8.70712 16.7071L16.7071 8.70711C17.0976 8.31658 17.0976 7.68342 16.7071 7.29289Z" fill="#141B34"/>
<path d="M8.29291 9.70708C8.68343 10.0976 9.3166 10.0976 9.70712 9.70708C10.0976 9.31656 10.0976 8.68339 9.70712 8.29287L6.80234 5.38814L7.57422 4.61626C7.69757 4.49309 7.84994 4.34095 7.95901 4.20049L7.96055 4.19851C8.03931 4.09713 8.39515 3.63907 8.18992 3.04548C7.98414 2.45032 7.41765 2.31041 7.29447 2.27998L7.29032 2.27896C7.11708 2.23605 6.90156 2.21029 6.725 2.18919L6.59134 2.17312C6.03232 2.10571 5.31247 2.01892 4.66937 2.00274C4.32937 1.99419 3.96839 2.0037 3.63908 2.05922C3.34586 2.10866 2.89775 2.22163 2.55972 2.55967C2.22168 2.89771 2.1087 3.34581 2.05927 3.63904C2.00375 3.96834 1.99423 4.32933 2.00279 4.66933C2.01896 5.31243 2.10575 6.0322 2.17316 6.59123L2.18925 6.72504C2.21035 6.90163 2.23609 7.11699 2.279 7.29027L2.28003 7.29443C2.31045 7.41761 2.45037 7.98409 3.04552 8.18987C3.63912 8.39511 4.09717 8.03927 4.19856 7.96051L4.20054 7.95897C4.34099 7.8499 4.49314 7.69752 4.61631 7.57417L5.38813 6.80235L8.29291 9.70708Z" fill="#141B34"/>
<path d="M15.7071 14.2929C15.3166 13.9024 14.6834 13.9024 14.2929 14.2929C13.9024 14.6834 13.9024 15.3166 14.2929 15.7071L17.1977 18.6119L16.4258 19.3837C16.3025 19.5069 16.1501 19.6591 16.041 19.7995L16.0395 19.8015C15.9607 19.9029 15.6049 20.3609 15.8101 20.9545C16.0159 21.5497 16.5824 21.6896 16.7056 21.72L16.7097 21.721C16.883 21.7639 17.0985 21.7897 17.275 21.8108L17.4087 21.8269C17.9677 21.8943 18.6876 21.9811 19.3307 21.9973C19.6707 22.0058 20.0316 21.9963 20.3609 21.9408C20.6542 21.8913 21.1023 21.7784 21.4403 21.4403C21.7784 21.1023 21.8913 20.6542 21.9408 20.361C21.9963 20.0317 22.0058 19.6707 21.9972 19.3307C21.9811 18.6876 21.8943 17.9678 21.8269 17.4088L21.8108 17.275C21.7897 17.0984 21.7639 16.883 21.721 16.7097L21.72 16.7056C21.6896 16.5824 21.5497 16.0159 20.9545 15.8101C20.3609 15.6049 19.9029 15.9607 19.8015 16.0395L19.7995 16.041C19.659 16.1501 19.5069 16.3025 19.3837 16.4258L18.6119 17.1976L15.7071 14.2929Z" fill="#141B34"/>
</svg>
