<svg width="24" height="24" viewBox="0 0 24 24" fill="none" xmlns="http://www.w3.org/2000/svg">
<path fill-rule="evenodd" clip-rule="evenodd" d="M15.5378 19.5227C15.7479 19.3066 15.8082 18.9857 15.6909 18.7081C15.5735 18.4304 15.3014 18.25 15 18.25L13 18.25L13 5.75L15 5.75C15.3014 5.75 15.5735 5.56957 15.6909 5.29193C15.8082 5.01429 15.7479 4.69339 15.5378 4.47726C15.4245 4.36071 15.2441 4.13501 14.9904 3.81197C14.7621 3.52108 14.4399 3.11067 14.1661 2.78758C13.8723 2.44084 13.5478 2.08603 13.2266 1.81244C13.0657 1.67538 12.888 1.54343 12.6998 1.44275C12.5177 1.34525 12.2758 1.25 12 1.25C11.7242 1.25 11.4824 1.34525 11.3002 1.44275C11.112 1.54343 10.9343 1.67538 10.7734 1.81244C10.4522 2.08603 10.1277 2.44084 9.83389 2.78758C9.56012 3.11067 9.23796 3.52107 9.00962 3.81197C8.75589 4.13501 8.57548 4.36071 8.4622 4.47726C8.25212 4.69339 8.19184 5.01429 8.30916 5.29193C8.42648 5.56957 8.6986 5.75 9.00001 5.75L11 5.75L11 18.25L9.00001 18.25C8.6986 18.25 8.42648 18.4304 8.30916 18.7081C8.19184 18.9857 8.25212 19.3066 8.4622 19.5227C8.57548 19.6393 8.75589 19.865 9.00962 20.188C9.23796 20.4789 9.56013 20.8893 9.83389 21.2124C10.1277 21.5592 10.4522 21.914 10.7734 22.1876C10.9343 22.3246 11.112 22.4566 11.3002 22.5573C11.4824 22.6547 11.7242 22.75 12 22.75C12.2758 22.75 12.5177 22.6547 12.6998 22.5572C12.888 22.4566 13.0657 22.3246 13.2266 22.1876C13.5478 21.914 13.8723 21.5592 14.1661 21.2124C14.4399 20.8893 14.7621 20.4789 14.9904 20.188C15.2441 19.865 15.4245 19.6393 15.5378 19.5227Z" fill="#141B34"/>
</svg>
