<svg width="24" height="24" viewBox="0 0 24 24" fill="none" xmlns="http://www.w3.org/2000/svg">
<path d="M6.80519 11.907C6.83674 11.9493 6.93033 12.0749 6.99092 12.1551C7.11213 12.3156 7.28769 12.5457 7.50349 12.8223C7.93593 13.3764 8.52614 14.1119 9.16215 14.8444C9.80247 15.5819 10.4696 16.2936 11.0576 16.8131C11.3527 17.0739 11.6043 17.2651 11.8045 17.3858C11.8998 17.4433 11.9638 17.4726 12 17.4873C12.0361 17.4726 12.1001 17.4433 12.1955 17.3858C12.3956 17.2651 12.6473 17.0739 12.9424 16.8131C13.5303 16.2936 14.1975 15.5819 14.8378 14.8444C15.4738 14.1119 16.0641 13.3764 16.4965 12.8223C16.7123 12.5458 17.0736 12.0675 17.1948 11.907C17.5223 11.4623 18.1483 11.3673 18.593 11.6949C19.0377 12.0224 19.1323 12.6489 18.8048 13.0936L18.8025 13.0967C18.6735 13.2674 18.295 13.7686 18.0732 14.0528C17.6277 14.6236 17.0144 15.3882 16.348 16.1556C15.686 16.9181 14.9519 17.7064 14.2666 18.3119C13.9251 18.6136 13.5722 18.8911 13.228 19.0986C12.9113 19.2895 12.4761 19.5 12 19.5C11.5238 19.5 11.0886 19.2895 10.7719 19.0986C10.4277 18.8911 10.0748 18.6136 9.73328 18.3119C9.048 17.7064 8.31397 16.9181 7.65194 16.1556C6.9856 15.3881 6.37229 14.6236 5.92679 14.0527C5.70362 13.7668 5.5216 13.5282 5.39498 13.3605C5.3322 13.2774 5.23092 13.1415 5.19609 13.0948L5.19519 13.0935C4.86768 12.6489 4.96229 12.0223 5.40698 11.6948C5.85168 11.3673 6.47768 11.4623 6.80519 11.907Z" fill="#141B34"/>
<path d="M5.10744 5.04889C5.2776 4.71225 5.62271 4.5 5.99992 4.5L17.9999 4.50005C18.3771 4.50005 18.7222 4.7123 18.8924 5.04895C19.0625 5.38559 19.0288 5.78934 18.8051 6.09306L18.8032 6.09561C18.7675 6.14356 18.6671 6.27823 18.6049 6.36057C18.4783 6.52821 18.2963 6.76681 18.0731 7.05277C17.6276 7.62364 17.0143 8.38817 16.3479 9.15563C15.6859 9.91813 14.9518 10.7064 14.2665 11.3119C13.925 11.6136 13.5721 11.8911 13.2279 12.0986C12.9112 12.2895 12.476 12.5 11.9999 12.5C11.5237 12.5 11.0885 12.2895 10.7718 12.0986C10.4276 11.8911 10.0747 11.6136 9.7332 11.3119C9.04792 10.7064 8.31389 9.91811 7.65187 9.15561C6.98553 8.38814 6.37221 7.6236 5.92671 7.05273C5.70354 6.76676 5.52153 6.52816 5.3949 6.36051C5.33212 6.27739 5.23084 6.14149 5.19601 6.09476L5.19511 6.09355C4.97143 5.78983 4.93728 5.38553 5.10744 5.04889Z" fill="#141B34"/>
</svg>
