<svg width="24" height="24" viewBox="0 0 24 24" fill="none" xmlns="http://www.w3.org/2000/svg">
<path fill-rule="evenodd" clip-rule="evenodd" d="M8 2C8.55228 2 9 2.44772 9 3V4.5C9 5.05228 8.55228 5.5 8 5.5C7.44772 5.5 7 5.05228 7 4.5V3C7 2.44772 7.44772 2 8 2ZM16 2C16.5523 2 17 2.44772 17 3V4.5C17 5.05228 16.5523 5.5 16 5.5C15.4477 5.5 15 5.05228 15 4.5V3C15 2.44772 15.4477 2 16 2Z" fill="#141B34"/>
<path fill-rule="evenodd" clip-rule="evenodd" d="M18.5 8C18.5 7.44772 18.9477 7 19.5 7L21 7C21.5523 7 22 7.44772 22 8C22 8.55228 21.5523 9 21 9H19.5C18.9477 9 18.5 8.55228 18.5 8ZM18.5 16C18.5 15.4477 18.9477 15 19.5 15H21C21.5523 15 22 15.4477 22 16C22 16.5523 21.5523 17 21 17H19.5C18.9477 17 18.5 16.5523 18.5 16Z" fill="#141B34"/>
<path fill-rule="evenodd" clip-rule="evenodd" d="M8 18.5C8.55228 18.5 9 18.9477 9 19.5V21C9 21.5523 8.55228 22 8 22C7.44772 22 7 21.5523 7 21V19.5C7 18.9477 7.44772 18.5 8 18.5ZM16 18.5C16.5523 18.5 17 18.9477 17 19.5V21C17 21.5523 16.5523 22 16 22C15.4477 22 15 21.5523 15 21V19.5C15 18.9477 15.4477 18.5 16 18.5Z" fill="#141B34"/>
<path fill-rule="evenodd" clip-rule="evenodd" d="M2 8C2 7.44772 2.44772 7 3 7L4.5 7C5.05229 7 5.5 7.44772 5.5 8C5.5 8.55228 5.05229 9 4.5 9H3C2.44772 9 2 8.55228 2 8ZM2 16C2 15.4477 2.44772 15 3 15H4.5C5.05228 15 5.5 15.4477 5.5 16C5.5 16.5523 5.05228 17 4.5 17H3C2.44772 17 2 16.5523 2 16Z" fill="#141B34"/>
<path d="M13.0616 7C13.7157 6.99994 14.3035 6.99989 14.7792 7.06384C15.2985 7.13367 15.8313 7.2958 16.2678 7.73224C16.7042 8.16868 16.8663 8.70149 16.9362 9.22085C17.0001 9.69656 17.0001 10.2843 17 10.9384V13.0616C17.0001 13.7157 17.0001 14.3035 16.9362 14.7792C16.8663 15.2985 16.7042 15.8313 16.2678 16.2678C15.8313 16.7042 15.2985 16.8663 14.7792 16.9362C14.3035 17.0001 13.7157 17.0001 13.0616 17H10.9384C10.2843 17.0001 9.69656 17.0001 9.22085 16.9362C8.70149 16.8663 8.16868 16.7042 7.73224 16.2678C7.2958 15.8313 7.13367 15.2985 7.06384 14.7792C6.99989 14.3035 6.99994 13.7157 7 13.0616V10.9384C6.99994 10.2843 6.99989 9.69656 7.06384 9.22085C7.13367 8.70149 7.2958 8.16868 7.73224 7.73224C8.16868 7.2958 8.70149 7.13367 9.22085 7.06384C9.69656 6.99989 10.2843 6.99994 10.9384 7H13.0616Z" fill="#141B34"/>
</svg>
