<svg width="24" height="24" viewBox="0 0 24 24" fill="none" xmlns="http://www.w3.org/2000/svg">
<path fill-rule="evenodd" clip-rule="evenodd" d="M11.9436 3.25C13.7813 3.24999 15.3498 3.24997 16.489 3.40314C17.6614 3.56076 18.6104 3.89288 19.3588 4.64124C20.1071 5.38961 20.4392 6.33856 20.5969 7.51098C20.75 8.65018 20.75 10.1058 20.75 11.9435V11.9436C20.75 13.7814 20.75 15.3498 20.5969 16.489C20.4392 17.6614 20.1071 18.6104 19.3588 19.3588C18.6104 20.1071 17.6614 20.4392 16.489 20.5969C15.3498 20.75 13.7814 20.75 11.9436 20.75H11.9435C10.1058 20.75 8.65018 20.75 7.51098 20.5969C6.33856 20.4392 5.38961 20.1071 4.64124 19.3588C3.89288 18.6104 3.56076 17.6614 3.40314 16.489C3.24997 15.3498 3.24999 13.7813 3.25 11.9436V11.9436V11.9436C3.24999 10.1058 3.24997 8.65019 3.40314 7.51098C3.56076 6.33856 3.89288 5.38961 4.64124 4.64124C5.38961 3.89288 6.33856 3.56076 7.51098 3.40314C8.65019 3.24997 10.1058 3.24999 11.9436 3.25H11.9436H11.9436ZM10.0002 9.87171L9.20744 12.25H10.793L10.0002 9.87171ZM11.293 13.75L11.7887 15.2372C11.9197 15.6301 12.3444 15.8425 12.7374 15.7115C13.1303 15.5805 13.3427 15.1558 13.2117 14.7628L11.3698 9.23717C11.1733 8.64764 10.6216 8.25 10.0002 8.25C9.37879 8.25 8.82709 8.64764 8.63058 9.23717L6.78869 14.7628C6.65771 15.1558 6.87008 15.5805 7.26303 15.7115C7.65599 15.8425 8.08073 15.6301 8.21172 15.2372L8.70744 13.75H11.293ZM16.25 9C16.25 8.58579 15.9142 8.25 15.5 8.25C15.0858 8.25 14.75 8.58579 14.75 9V15C14.75 15.4142 15.0858 15.75 15.5 15.75C15.9142 15.75 16.25 15.4142 16.25 15V9Z" fill="#141B34"/>
<path fill-rule="evenodd" clip-rule="evenodd" d="M1.25 8C1.25 7.58579 1.58579 7.25 2 7.25H4C4.41421 7.25 4.75 7.58579 4.75 8C4.75 8.41421 4.41421 8.75 4 8.75H2C1.58579 8.75 1.25 8.41421 1.25 8ZM19.25 8C19.25 7.58579 19.5858 7.25 20 7.25H22C22.4142 7.25 22.75 7.58579 22.75 8C22.75 8.41421 22.4142 8.75 22 8.75H20C19.5858 8.75 19.25 8.41421 19.25 8ZM1.25 12C1.25 11.5858 1.58579 11.25 2 11.25H4C4.41421 11.25 4.75 11.5858 4.75 12C4.75 12.4142 4.41421 12.75 4 12.75H2C1.58579 12.75 1.25 12.4142 1.25 12ZM19.25 12C19.25 11.5858 19.5858 11.25 20 11.25H22C22.4142 11.25 22.75 11.5858 22.75 12C22.75 12.4142 22.4142 12.75 22 12.75H20C19.5858 12.75 19.25 12.4142 19.25 12ZM1.25 16C1.25 15.5858 1.58579 15.25 2 15.25H4C4.41421 15.25 4.75 15.5858 4.75 16C4.75 16.4142 4.41421 16.75 4 16.75H2C1.58579 16.75 1.25 16.4142 1.25 16ZM19.25 16C19.25 15.5858 19.5858 15.25 20 15.25H22C22.4142 15.25 22.75 15.5858 22.75 16C22.75 16.4142 22.4142 16.75 22 16.75H20C19.5858 16.75 19.25 16.4142 19.25 16Z" fill="#141B34"/>
<path fill-rule="evenodd" clip-rule="evenodd" d="M8 1.25C8.41421 1.25 8.75 1.58579 8.75 2V4C8.75 4.41421 8.41421 4.75 8 4.75C7.58579 4.75 7.25 4.41421 7.25 4V2C7.25 1.58579 7.58579 1.25 8 1.25ZM12 1.25C12.4142 1.25 12.75 1.58579 12.75 2V4C12.75 4.41421 12.4142 4.75 12 4.75C11.5858 4.75 11.25 4.41421 11.25 4V2C11.25 1.58579 11.5858 1.25 12 1.25ZM16 1.25C16.4142 1.25 16.75 1.58579 16.75 2V4C16.75 4.41421 16.4142 4.75 16 4.75C15.5858 4.75 15.25 4.41421 15.25 4V2C15.25 1.58579 15.5858 1.25 16 1.25ZM8 19.25C8.41421 19.25 8.75 19.5858 8.75 20V22C8.75 22.4142 8.41421 22.75 8 22.75C7.58579 22.75 7.25 22.4142 7.25 22V20C7.25 19.5858 7.58579 19.25 8 19.25ZM12 19.25C12.4142 19.25 12.75 19.5858 12.75 20V22C12.75 22.4142 12.4142 22.75 12 22.75C11.5858 22.75 11.25 22.4142 11.25 22V20C11.25 19.5858 11.5858 19.25 12 19.25ZM16 19.25C16.4142 19.25 16.75 19.5858 16.75 20V22C16.75 22.4142 16.4142 22.75 16 22.75C15.5858 22.75 15.25 22.4142 15.25 22V20C15.25 19.5858 15.5858 19.25 16 19.25Z" fill="#141B34"/>
</svg>
