<svg width="24" height="24" viewBox="0 0 24 24" fill="none" xmlns="http://www.w3.org/2000/svg">
<path fill-rule="evenodd" clip-rule="evenodd" d="M1.25 3.25C1.25 2.42157 1.92157 1.75 2.75 1.75C3.57843 1.75 4.25 2.42157 4.25 3.25C4.25 3.29136 4.24833 3.33232 4.24504 3.37283L6.23428 4.75H10C10.4142 4.75 10.75 5.08579 10.75 5.5C10.75 5.91421 10.4142 6.25 10 6.25H6C5.84745 6.25 5.69852 6.20348 5.57309 6.11664L3.39149 4.6063C3.19699 4.69845 2.97952 4.75 2.75 4.75C1.92157 4.75 1.25 4.07843 1.25 3.25Z" fill="#141B34"/>
<path fill-rule="evenodd" clip-rule="evenodd" d="M1.25 8.75C1.25 7.92157 1.92157 7.25 2.75 7.25C3.30521 7.25 3.78997 7.55165 4.04933 8H10C10.4142 8 10.75 8.33579 10.75 8.75C10.75 9.16421 10.4142 9.5 10 9.5H4.04933C3.78997 9.94835 3.30521 10.25 2.75 10.25C1.92157 10.25 1.25 9.57843 1.25 8.75Z" fill="#141B34"/>
<path d="M2.37109 11.7262C2.7491 14.0163 3.99173 16.0147 5.75056 17.3744V22C5.75056 22.4142 6.08635 22.75 6.50056 22.75H16.0006C16.4148 22.75 16.7506 22.4142 16.7506 22V21.5C16.7506 20.8308 17.3506 20.1305 18.2552 19.6834C19.3051 19.1644 20.3982 18.2128 20.5425 16.9141L20.7009 15.4883L22.336 14.6708C22.5284 14.5746 22.6702 14.4004 22.7254 14.1925C22.7807 13.9846 22.7439 13.763 22.6246 13.584L20.2476 10.0185C20.1249 5.15495 16.1437 1.25 11.2506 1.25C9.34644 1.25 7.58043 1.84132 6.12614 2.85035L6.70341 3.25H10.0006C11.2432 3.25 12.2506 4.25736 12.2506 5.5C12.2506 6.13881 11.9843 6.71544 11.5568 7.125C11.9843 7.53456 12.2506 8.11119 12.2506 8.75C12.2506 9.99264 11.2432 11 10.0006 11H4.7346C4.20663 11.4658 3.5122 11.75 2.75056 11.75C2.62203 11.75 2.49538 11.7419 2.37109 11.7262Z" fill="#141B34"/>
</svg>
