<svg width="24" height="24" viewBox="0 0 24 24" fill="none" xmlns="http://www.w3.org/2000/svg">
<path d="M2.24207 5C2.24207 2.79086 4.03293 1 6.24207 1H18.2421C18.7943 1 19.2421 1.44772 19.2421 2C19.2421 2.55228 18.7943 3 18.2421 3H6.24207C5.1375 3 4.24207 3.89543 4.24207 5C4.24207 6.10457 5.1375 7 6.24207 7H15.5989C15.7875 7 15.8817 7 15.9403 6.94142C15.9989 6.88284 15.9989 6.78856 15.9989 6.6V6.5C15.9989 6.22386 15.775 6 15.4989 6H6.9989C6.44662 6 5.9989 5.55228 5.9989 5C5.9989 4.44772 6.44662 4 6.9989 4H15.4989C16.8796 4 17.9989 5.11929 17.9989 6.5V6.85C17.9989 7.0315 17.9989 7.12225 18.0477 7.1786C18.0964 7.23494 18.1968 7.24953 18.3976 7.2787C19.7275 7.47185 20.7489 8.61664 20.7489 10V10.3162C20.7489 10.5304 20.7489 10.6376 20.6896 10.6963C20.6302 10.755 20.5099 10.7537 20.2691 10.7512C19.2917 10.7409 18.5241 11.2548 18.171 11.516C17.6568 11.8964 17.0857 12.4582 16.5359 12.999C16.349 13.1828 16.1686 13.2452 15.915 13.2444C15.6227 13.2433 15.2381 13.242 14.8583 13.28C14.4425 13.3216 13.8578 13.4291 13.2816 13.8077C12.2735 14.4701 11.9276 15.446 11.8128 16.1335C11.7416 16.5597 11.7531 17.5025 11.7531 17.5025C11.7531 17.5025 11.7416 18.4454 11.8128 18.8715C11.9276 19.559 12.2735 20.5349 13.2816 21.1973C13.8578 21.5759 14.4425 21.6834 14.8583 21.725C15.2381 21.763 15.6227 21.7617 15.915 21.7606C16.1686 21.7598 16.349 21.8222 16.5359 22.0059C16.6143 22.0831 16.6932 22.1607 16.7723 22.2381C16.8929 22.3562 16.9533 22.4153 16.9343 22.4741C16.9154 22.533 16.8336 22.5455 16.6701 22.5707C16.61 22.5799 16.5493 22.5886 16.4879 22.5969C15.3487 22.75 13.8931 22.75 12.0554 22.75H10.9425C9.10475 22.75 7.64909 22.75 6.50988 22.5969C5.33746 22.4392 4.38851 22.1071 3.64015 21.3588C2.89178 20.6104 2.55967 19.6614 2.40204 18.489C2.24887 17.3498 2.24889 15.8942 2.2489 14.0564V5.23582C2.24437 5.15779 2.24207 5.07917 2.24207 5Z" fill="#141B34"/>
<path d="M20.7434 12.3503C20.0784 12.0793 19.4809 12.4104 19.0647 12.7184C18.6366 13.0353 18.1289 13.5349 17.5297 14.1245C17.3288 14.3222 17.1172 14.538 16.8502 14.6435C16.6894 14.7071 16.4764 14.7424 16.0421 14.7424C15.6981 14.7424 15.3517 14.7361 15.009 14.7704C14.7094 14.8003 14.3971 14.8684 14.1069 15.0592C13.5704 15.4119 13.3682 15.9331 13.2936 16.3799C13.2386 16.7093 13.2445 17.0761 13.2486 17.3377C13.2505 17.4594 13.2505 17.5433 13.2486 17.6649C13.2445 17.9265 13.2386 18.2934 13.2936 18.6227C13.3682 19.0696 13.5704 19.5907 14.1069 19.9434C14.3971 20.1342 14.7094 20.2023 15.009 20.2323C15.3517 20.2666 15.6981 20.2602 16.0421 20.2602C16.4764 20.2602 16.6894 20.2955 16.8502 20.3591C17.1172 20.4646 17.3288 20.6804 17.5297 20.8781C18.1289 21.4678 18.6366 21.9673 19.0647 22.2842C19.4809 22.5922 20.0784 22.9234 20.7434 22.6524C21.4143 22.3789 21.6019 21.7191 21.6753 21.2085C21.7505 20.685 21.7505 19.9774 21.7504 19.1448V15.8579C21.7505 15.0252 21.7505 14.3176 21.6753 13.7942C21.6019 13.2835 21.4143 12.6237 20.7434 12.3503Z" fill="#141B34"/>
</svg>
