<svg width="24" height="24" viewBox="0 0 24 24" fill="none" xmlns="http://www.w3.org/2000/svg">
<path fill-rule="evenodd" clip-rule="evenodd" d="M2.85003 12.25C2.56719 12.25 2.42577 12.25 2.33791 12.1621C2.25004 12.0743 2.25004 11.9328 2.25003 11.65L2.25002 10.1843C2.24983 9.81822 2.24969 9.52932 2.30995 9.24302C2.37021 8.95672 2.48672 8.69278 2.63433 8.35838L3.7238 5.88672C3.99246 5.27574 4.20502 4.79234 4.57748 4.42179C4.94994 4.05123 5.43217 3.84338 6.04168 3.58067L10.2438 1.76487C10.9071 1.47749 11.4321 1.25 12 1.25C12.5679 1.25 13.093 1.47749 13.7562 1.76487L18.0469 3.61893C18.6173 3.8648 19.0683 4.05925 19.4254 4.3987C19.7825 4.73816 20.0015 5.18076 20.2784 5.74038L21.2793 7.7588C21.4599 8.12242 21.6025 8.4095 21.6765 8.72555C21.7505 9.0416 21.7503 9.36265 21.7501 9.76929L21.75 11.65C21.75 11.9328 21.75 12.0743 21.6622 12.1621C21.5743 12.25 21.4329 12.25 21.15 12.25H2.85003ZM12 9.99999C13.1046 9.99999 14 9.10456 14 7.99999C14 6.89542 13.1046 5.99999 12 5.99999C10.8954 5.99999 10 6.89542 10 7.99999C10 9.10456 10.8954 9.99999 12 9.99999Z" fill="#141B34"/>
<path d="M21.15 13.75C21.4329 13.75 21.5743 13.75 21.6622 13.8379C21.75 13.9257 21.75 14.0672 21.75 14.35L21.75 20.0224C21.7501 20.4588 21.7501 20.8589 21.7067 21.1844C21.6589 21.5428 21.5465 21.9216 21.2375 22.2332C20.9285 22.5448 20.5527 22.6581 20.1972 22.7063C19.8744 22.7501 19.4776 22.75 19.0448 22.75H18.15C17.9614 22.75 17.8672 22.75 17.8086 22.6914C17.75 22.6328 17.75 22.5386 17.75 22.35V14.15C17.75 13.9614 17.75 13.8672 17.8086 13.8086C17.8672 13.75 17.9614 13.75 18.15 13.75H21.15Z" fill="#141B34"/>
<path d="M15.3479 22.4086C15.4932 22.5539 15.5659 22.6265 15.5403 22.6883C15.5147 22.75 15.412 22.75 15.2065 22.75H8.79351C8.58801 22.75 8.48527 22.75 8.4597 22.6883C8.43413 22.6265 8.50678 22.5539 8.65208 22.4086L11.7172 19.3435C11.8505 19.2102 11.9172 19.1435 12 19.1435C12.0828 19.1435 12.1495 19.2102 12.2828 19.3435L15.3479 22.4086Z" fill="#141B34"/>
<path d="M6.25 22.35C6.25 22.5386 6.25 22.6328 6.19142 22.6914C6.13284 22.75 6.03856 22.75 5.85 22.75H4.9553C4.52248 22.75 4.12564 22.7501 3.80283 22.7063C3.44735 22.6581 3.07163 22.5448 2.7626 22.2332C2.45358 21.9216 2.34113 21.5428 2.29334 21.1844C2.24994 20.8589 2.24999 20.4588 2.25004 20.0224L2.25004 14.35C2.25004 14.0672 2.25004 13.9257 2.33791 13.8379C2.42578 13.75 2.5672 13.75 2.85004 13.75H5.85C6.03856 13.75 6.13284 13.75 6.19142 13.8086C6.25 13.8672 6.25 13.9614 6.25 14.15V22.35Z" fill="#141B34"/>
<path d="M13.3435 17.7172C13.2102 17.8505 13.1435 17.9172 13.1435 18C13.1435 18.0828 13.2102 18.1495 13.3435 18.2828L15.9086 20.8479C16.0539 20.9932 16.1265 21.0659 16.1883 21.0403C16.25 21.0147 16.25 20.912 16.25 20.7065V15.2935C16.25 15.088 16.25 14.9853 16.1883 14.9597C16.1265 14.9341 16.0539 15.0068 15.9086 15.1521L13.3435 17.7172Z" fill="#141B34"/>
<path d="M11.7172 16.6565C11.8505 16.7898 11.9172 16.8565 12 16.8565C12.0828 16.8565 12.1495 16.7898 12.2828 16.6565L14.8479 14.0914C14.9932 13.9461 15.0659 13.8735 15.0403 13.8117C15.0147 13.75 14.912 13.75 14.7065 13.75H9.2935C9.08801 13.75 8.98526 13.75 8.95969 13.8117C8.93412 13.8735 9.00678 13.9461 9.15208 14.0914L11.7172 16.6565Z" fill="#141B34"/>
<path d="M10.6565 18.2828C10.7898 18.1495 10.8565 18.0828 10.8565 18C10.8565 17.9172 10.7898 17.8505 10.6565 17.7172L8.09142 15.1521C7.94612 15.0068 7.87346 14.9341 7.81173 14.9597C7.75 14.9853 7.75 15.088 7.75 15.2935V20.7065C7.75 20.912 7.75 21.0147 7.81173 21.0403C7.87346 21.0659 7.94612 20.9932 8.09142 20.8479L10.6565 18.2828Z" fill="#141B34"/>
</svg>
