<svg width="24" height="24" viewBox="0 0 24 24" fill="none" xmlns="http://www.w3.org/2000/svg">
<path d="M2.63466 20.345C4.97162 19.0415 8.32216 18.25 12 18.25C15.6779 18.25 19.0284 19.0415 21.3654 20.345C21.6636 20.5114 21.8118 20.8582 21.7259 21.1887C21.6399 21.5193 21.3415 21.75 21 21.75H3.00001C2.65849 21.75 2.36009 21.5193 2.27415 21.1887C2.1882 20.8582 2.3364 20.5114 2.63466 20.345Z" fill="#141B34"/>
<path fill-rule="evenodd" clip-rule="evenodd" d="M10.0033 5.50307C9.45455 4.64436 8.66782 3.86641 7.57208 3.48676C6.1997 3.01127 4.57622 3.23979 2.73376 4.28299C2.27203 4.54442 2.11285 5.12509 2.37822 5.57996C2.64359 6.03483 3.23302 6.19165 3.69475 5.93022C5.22724 5.06253 6.25552 5.04459 6.93223 5.27905C7.12231 5.34491 7.30248 5.43676 7.4725 5.5523C5.81585 5.7968 3.97395 6.71386 2.83206 8.98833C2.59596 9.4586 2.79154 10.0284 3.2689 10.261C3.74626 10.4936 4.32463 10.3009 4.56072 9.83062C5.7096 7.54225 7.8044 7.21596 9.14792 7.43381C9.6321 7.74588 10.4463 8.78123 10.4463 11.8C10.4463 12.3247 10.878 12.75 11.4106 12.75C11.9431 12.75 12.3749 12.3247 12.3749 11.8C12.3749 10.0176 12.1107 8.63896 11.6535 7.62198C11.9362 7.73068 12.2044 7.87768 12.448 8.06321C13.2057 8.64022 13.8213 9.66375 13.8213 11.322C13.8213 11.8467 14.253 12.272 14.7855 12.272C15.3181 12.272 15.7498 11.8467 15.7498 11.322C15.7498 9.15624 14.9189 7.54354 13.6275 6.56007C12.5643 5.75037 11.2549 5.41853 10.0033 5.50307Z" fill="#141B34"/>
<path fill-rule="evenodd" clip-rule="evenodd" d="M9.78063 5.86834C10.217 6.12398 10.3778 6.71116 10.1398 7.17984C9.30027 8.83295 7.54975 13.6695 7.54975 19.2835C7.54975 19.8173 7.14682 20.2501 6.64978 20.2501C6.15275 20.2501 5.74982 19.8173 5.74982 19.2835C5.74982 13.2976 7.59916 8.14537 8.5596 6.25407C8.79761 5.78539 9.34428 5.61269 9.78063 5.86834Z" fill="#141B34"/>
<path d="M16.25 5C16.25 3.48122 17.4812 2.25 19 2.25C20.5188 2.25 21.75 3.48122 21.75 5C21.75 6.51878 20.5188 7.75 19 7.75C17.4812 7.75 16.25 6.51878 16.25 5Z" fill="#141B34"/>
</svg>
