<svg width="24" height="24" viewBox="0 0 24 24" fill="none" xmlns="http://www.w3.org/2000/svg">
<path d="M3.25 4C3.25 2.48122 4.48122 1.25 6 1.25C7.51878 1.25 8.75 2.48122 8.75 4V14C8.75 15.7949 10.2051 17.25 12 17.25C13.7949 17.25 15.25 15.7949 15.25 14C15.25 13.1175 14.9763 12.4468 14.5216 11.9513C14.059 11.4472 13.3578 11.0698 12.4186 10.8815C11.3115 10.6595 10.25 9.74192 10.25 8.42476C10.25 6.75418 11.6452 5.1935 13.4841 5.52203C15.6808 5.91444 17.5088 6.85685 18.7883 8.32168C20.0707 9.78998 20.75 11.724 20.75 14C20.75 18.8325 16.8325 22.75 12 22.75C7.16751 22.75 3.25 18.8325 3.25 14V4Z" fill="#141B34"/>
</svg>
