<svg width="24" height="24" viewBox="0 0 24 24" fill="none" xmlns="http://www.w3.org/2000/svg">
<path d="M5.10188 6.45844L5.20065 6.48421C5.44474 6.54765 5.6944 6.61936 5.91598 6.69682C6.1208 6.76842 6.3633 6.86547 6.55188 6.99569C7.26143 7.48567 7.69509 8.28984 7.74379 9.1541C7.76925 9.60602 7.66641 10.0867 7.59366 10.4267C7.57678 10.5056 7.56152 10.5769 7.54986 10.6386C7.54674 10.655 7.54308 10.6714 7.53888 10.6876L7.44316 11.0564C7.38625 11.2756 7.23329 11.4574 7.02698 11.551C6.82067 11.6445 6.58313 11.6399 6.38069 11.5382L2.0921 9.38498C1.50596 9.09069 1.23514 8.40249 1.46353 7.78767C1.54428 7.57031 1.68244 7.37839 1.86383 7.23279L1.89417 7.20843L1.89417 7.20843C2.41612 6.78937 2.85876 6.43397 3.42311 6.30458C4.00384 6.17142 4.51476 6.30497 5.10188 6.45844Z" fill="#141B34"/>
<path d="M5.25 10.5C5.25 10.0858 5.58579 9.75 6 9.75H19C19.4142 9.75 19.75 10.0858 19.75 10.5V16.5C19.75 16.9299 19.7286 17.3263 19.6527 17.6715C19.575 18.0252 19.4303 18.3713 19.1508 18.6508C18.8713 18.9303 18.5252 19.075 18.1715 19.1527C17.8263 19.2286 17.4299 19.25 17 19.25H8C7.5701 19.25 7.17373 19.2286 6.82851 19.1527C6.4748 19.075 6.12868 18.9303 5.84917 18.6508C5.56966 18.3713 5.42498 18.0252 5.34728 17.6715C5.27144 17.3263 5.25 16.9299 5.25 16.5V10.5Z" fill="#141B34"/>
<path fill-rule="evenodd" clip-rule="evenodd" d="M2 2.5C2.55228 2.5 3 2.94772 3 3.5V20.5C3 21.0523 2.55228 21.5 2 21.5C1.44772 21.5 1 21.0523 1 20.5V3.5C1 2.94772 1.44772 2.5 2 2.5ZM22 7.5C22.5523 7.5 23 7.94772 23 8.5V20.5C23 21.0523 22.5523 21.5 22 21.5C21.4477 21.5 21 21.0523 21 20.5V8.5C21 7.94772 21.4477 7.5 22 7.5Z" fill="#141B34"/>
<path fill-rule="evenodd" clip-rule="evenodd" d="M1.47427 7.64935C1.76909 7.46714 2.13723 7.45058 2.44721 7.60557L6.23607 9.5H22C22.5523 9.5 23 9.94772 23 10.5V15.5C23 16.0523 22.5523 16.5 22 16.5H19C18.4477 16.5 18 16.0523 18 15.5V11.5H7V15.5C7 16.0523 6.55228 16.5 6 16.5H2C1.44772 16.5 1 16.0523 1 15.5V8.5C1 8.15342 1.17945 7.83156 1.47427 7.64935ZM5 11.118L3 10.118V14.5H5V11.118ZM20 11.5V14.5H21V11.5H20Z" fill="#141B34"/>
</svg>
