<svg width="24" height="24" viewBox="0 0 24 24" fill="none" xmlns="http://www.w3.org/2000/svg">
<path fill-rule="evenodd" clip-rule="evenodd" d="M5.26283 5.56057C4.67115 6.61643 4.275 8.13976 4.275 9.875C4.275 10.41 3.84967 10.8438 3.325 10.8438C2.80033 10.8438 2.375 10.41 2.375 9.875C2.375 7.86506 2.82951 5.99776 3.61316 4.5993C4.38146 3.22824 5.58762 2.125 7.125 2.125C8.66238 2.125 9.86854 3.22824 10.6368 4.5993C11.4205 5.99776 11.875 7.86506 11.875 9.875C11.875 11.8849 11.4205 13.7522 10.6368 15.1507C9.86854 16.5218 8.66238 17.625 7.125 17.625C6.0952 17.625 5.20144 17.1199 4.50726 16.3861C3.81667 15.656 3.28191 14.6622 2.92223 13.5413C2.75905 13.0328 3.03101 12.4857 3.52966 12.3193C4.02831 12.1529 4.56482 12.4302 4.728 12.9387C5.02329 13.8589 5.43224 14.5732 5.87475 15.041C6.31365 15.505 6.74235 15.6875 7.125 15.6875C7.6863 15.6875 8.38014 15.2727 8.98717 14.1894C9.57885 13.1336 9.975 11.6102 9.975 9.875C9.975 8.13976 9.57885 6.61643 8.98717 5.56057C8.38014 4.47729 7.6863 4.0625 7.125 4.0625C6.5637 4.0625 5.86986 4.47729 5.26283 5.56057Z" fill="#141B34"/>
<path d="M7.12052 8.375C6.29457 8.375 5.625 9.04657 5.625 9.875C5.625 9.90302 5.62577 9.93086 5.62728 9.95851L1.41789 14.1679C1.02737 14.5584 1.02737 15.1916 1.41789 15.5821C1.80842 15.9726 2.44158 15.9726 2.83211 15.5821L7.04128 11.3729C7.06752 11.3743 7.09394 11.375 7.12052 11.375H7.12948C7.95543 11.375 8.625 10.7034 8.625 9.875C8.625 9.04657 7.95543 8.375 7.12948 8.375H7.12052Z" fill="#141B34"/>
<path fill-rule="evenodd" clip-rule="evenodd" d="M15.4179 19.1679C15.0274 19.5584 15.0274 20.1916 15.4179 20.5821L17.4179 22.5821C17.8084 22.9726 18.4416 22.9726 18.8321 22.5821C19.2226 22.1916 19.2226 21.5584 18.8321 21.1679L16.8321 19.1679C16.4416 18.7774 15.8084 18.7774 15.4179 19.1679Z" fill="#141B34"/>
<path fill-rule="evenodd" clip-rule="evenodd" d="M6.83203 2.18465C8.40611 1.51631 10.4341 1.125 12.6251 1.125C14.8129 1.125 16.838 1.51511 18.411 2.18158C19.7885 2.73406 20.9237 3.61556 21.7052 4.91337C22.4822 6.20387 22.8751 7.84855 22.8751 9.875C22.8751 11.9015 22.4822 13.5461 21.7052 14.8366C20.9237 16.1344 19.7884 17.0159 18.411 17.5684C17.131 18.1107 15.5518 18.47 13.8291 18.5851L18.8321 13.5821C19.2226 13.1916 19.2226 12.5584 18.8321 12.1679C18.4416 11.7774 17.8084 11.7774 17.4179 12.1679L11.0311 18.5547C9.45709 18.4141 8.01613 18.0681 6.83203 17.5653C8.20815 16.683 10.9234 14.0391 10.7757 10.5222C10.591 6.12608 8.94692 3.2443 6.83203 2.18465ZM8.41789 21.1679L11.0311 18.5547C11.5495 18.601 12.0823 18.625 12.6251 18.625C13.0327 18.625 13.4347 18.6115 13.8291 18.5851L9.83211 22.5821C9.44158 22.9726 8.80842 22.9726 8.41789 22.5821C8.02737 22.1916 8.02737 21.5584 8.41789 21.1679Z" fill="#141B34"/>
</svg>
