<svg width="24" height="24" viewBox="0 0 24 24" fill="none" xmlns="http://www.w3.org/2000/svg">
<path d="M7 9C7 6.23858 9.23858 4 12 4C14.7614 4 17 6.23858 17 9C17 11.7614 14.7614 14 12 14C9.23858 14 7 11.7614 7 9Z" fill="#141B34"/>
<path fill-rule="evenodd" clip-rule="evenodd" d="M12 1C12.5523 1 13 1.44772 13 2V5C13 5.55228 12.5523 6 12 6C11.4477 6 11 5.55228 11 5V2C11 1.44772 11.4477 1 12 1ZM9.99997 12C10.5523 12 11 12.4477 11 13C11 13.7663 10.8177 14.8481 10.5492 16H13.4508C13.1822 14.8481 13 13.7663 13 13C13 12.4477 13.4477 12 14 12C14.5523 12 15 12.4477 15 13C15 13.6432 15.1946 14.7402 15.5083 16C16.0568 16.0045 16.5 16.4505 16.5 17C16.5 17.3612 16.3085 17.6777 16.0214 17.8534C16.4754 19.3514 16.9911 20.7463 17.3944 21.5528C17.6414 22.0468 17.4412 22.6474 16.9472 22.8944C16.4532 23.1414 15.8525 22.9412 15.6055 22.4472C15.0877 21.4114 14.4742 19.6996 13.9785 18H10.0215C9.52572 19.6996 8.9123 21.4114 8.3944 22.4472C8.14741 22.9412 7.54674 23.1414 7.05276 22.8944C6.55878 22.6474 6.35856 22.0468 6.60555 21.5528C7.00881 20.7463 7.52454 19.3514 7.97852 17.8534C7.69149 17.6777 7.49997 17.3612 7.49997 17C7.49997 16.4505 7.94318 16.0045 8.49162 16C8.8053 14.7402 8.99997 13.6432 8.99997 13C8.99997 12.4477 9.44769 12 9.99997 12Z" fill="#141B34"/>
</svg>
