<svg width="24" height="24" viewBox="0 0 24 24" fill="none" xmlns="http://www.w3.org/2000/svg">
<path fill-rule="evenodd" clip-rule="evenodd" d="M5.75 13C4.09315 13 2.75 14.3431 2.75 16C2.75 17.6569 4.09315 19 5.75 19C7.40685 19 8.75 17.6569 8.75 16C8.75 14.3431 7.40685 13 5.75 13ZM0.75 16C0.75 13.2386 2.98858 11 5.75 11C8.51142 11 10.75 13.2386 10.75 16C10.75 18.7614 8.51142 21 5.75 21C2.98858 21 0.75 18.7614 0.75 16Z" fill="#141B34"/>
<path fill-rule="evenodd" clip-rule="evenodd" d="M18.25 13C16.5931 13 15.25 14.3431 15.25 16C15.25 17.6569 16.5931 19 18.25 19C19.9069 19 21.25 17.6569 21.25 16C21.25 14.3431 19.9069 13 18.25 13ZM13.25 16C13.25 13.2386 15.4886 11 18.25 11C21.0114 11 23.25 13.2386 23.25 16C23.25 18.7614 21.0114 21 18.25 21C15.4886 21 13.25 18.7614 13.25 16Z" fill="#141B34"/>
<path fill-rule="evenodd" clip-rule="evenodd" d="M7.76825 6.35984C7.41468 5.93556 6.78412 5.87824 6.35984 6.2318C5.93556 6.58537 5.87824 7.21593 6.2318 7.64021L11.1794 13.5773L10.3706 15.0002H6C5.44772 15.0002 5 15.4479 5 16.0002C5 16.5525 5.44772 17.0002 6 17.0002H10.3706C11.0899 17.0002 11.7538 16.6139 12.1093 15.9885L16.3694 8.49436C16.6423 8.01423 16.4743 7.40375 15.9942 7.13082C15.5141 6.85789 14.9036 7.02585 14.6306 7.50599L12.2351 11.7201L7.76825 6.35984Z" fill="#141B34"/>
<path fill-rule="evenodd" clip-rule="evenodd" d="M4 7C4 6.44772 4.44772 6 5 6H9C9.55228 6 10 6.44772 10 7C10 7.55228 9.55228 8 9 8H5C4.44772 8 4 7.55228 4 7Z" fill="#141B34"/>
<path fill-rule="evenodd" clip-rule="evenodd" d="M14.3828 3.52466C14.8162 3.05074 15.4321 3 15.7941 3C16.6845 3 17.7619 3.05235 18.715 3.43536C19.7327 3.84431 20.5875 4.62352 20.9619 5.95145C21.1117 6.48301 20.8023 7.03541 20.2707 7.18526C19.7391 7.33511 19.1867 7.02567 19.0369 6.4941C18.8488 5.82698 18.4761 5.49481 17.9693 5.29113C17.4695 5.09028 16.8377 5.01806 16.1117 5.00311L18.9911 15.741C19.1342 16.2744 18.8177 16.8228 18.2842 16.9659C17.7508 17.1089 17.2024 16.7924 17.0594 16.259L14.0833 5.16035C13.9667 4.71665 13.9027 4.04977 14.3828 3.52466Z" fill="#141B34"/>
</svg>
