<svg width="24" height="24" viewBox="0 0 24 24" fill="none" xmlns="http://www.w3.org/2000/svg">
<path fill-rule="evenodd" clip-rule="evenodd" d="M1.25 12C1.25 6.06294 6.06294 1.25 12 1.25C17.9371 1.25 22.75 6.06294 22.75 12C22.75 17.9371 17.9371 22.75 12 22.75C6.06294 22.75 1.25 17.9371 1.25 12ZM12 5.75C8.54822 5.75 5.75 8.54822 5.75 12C5.75 15.4518 8.54822 18.25 12 18.25C15.4518 18.25 18.25 15.4518 18.25 12C18.25 8.54822 15.4518 5.75 12 5.75ZM4.25 12C4.25 7.71979 7.71979 4.25 12 4.25C16.2802 4.25 19.75 7.71979 19.75 12C19.75 16.2802 16.2802 19.75 12 19.75C7.71979 19.75 4.25 16.2802 4.25 12ZM11.25 10.75C11.25 10.5961 11.4519 10.25 12 10.25C12.5481 10.25 12.75 10.5961 12.75 10.75C12.75 10.9039 12.5481 11.25 12 11.25C11.4519 11.25 11.25 10.9039 11.25 10.75ZM13.7988 12C13.7988 12.0335 13.8257 12.0691 13.8794 12.1402C14.1096 12.4451 14.25 12.8196 14.25 13.25C14.25 14.4768 13.1088 15.25 12 15.25C10.8912 15.25 9.75 14.4768 9.75 13.25C9.75 12.8196 9.89043 12.4451 10.1206 12.1402L10.1206 12.1402C10.1743 12.0691 10.2012 12.0335 10.2012 12C10.2012 11.9665 10.1743 11.9309 10.1206 11.8598L10.1206 11.8598C9.89043 11.5549 9.75 11.1804 9.75 10.75C9.75 9.5232 10.8912 8.75 12 8.75C13.1088 8.75 14.25 9.5232 14.25 10.75C14.25 11.1804 14.1096 11.5549 13.8794 11.8598L13.8794 11.8598C13.8257 11.9309 13.7988 11.9665 13.7988 12ZM11.25 13.25C11.25 13.0961 11.4519 12.75 12 12.75C12.5481 12.75 12.75 13.0961 12.75 13.25C12.75 13.4039 12.5481 13.75 12 13.75C11.4519 13.75 11.25 13.4039 11.25 13.25Z" fill="#141B34"/>
</svg>
