<svg width="24" height="24" viewBox="0 0 24 24" fill="none" xmlns="http://www.w3.org/2000/svg">
<path d="M21 14.4986C21 19.2534 16.909 23 12 23C7.09103 23 3 19.2534 3 14.4986L2.99998 14.2227C2.99982 13.9065 2.99964 13.5606 3.04399 13.2802C3.09449 12.9611 3.24494 12.4467 3.78473 12.1601C4.32321 11.8742 4.86251 12.034 5.13072 12.1416C5.4379 12.2648 5.71969 12.4524 5.93262 12.612C6.15438 12.7781 6.34936 12.9504 6.48601 13.0777C6.55211 13.1393 6.66987 13.2563 6.71557 13.3017L6.72171 13.3078C7.10386 13.7065 7.09066 14.3398 6.69194 14.722L5.23718 16.1767C6.02861 18.9223 8.71523 21 12 21C15.9276 21 19 18.0296 19 14.4986C19 13.9463 19.4477 13.4986 20 13.4986C20.5523 13.4986 21 13.9463 21 14.4986Z" fill="#141B34"/>
<path d="M3.00018 9.50139C3.00018 4.74656 7.09122 1 12.0002 0.999999C16.9092 0.999999 21.0002 4.74655 21.0002 9.50139L21.0002 9.77729C21.0004 10.0935 21.0005 10.4394 20.9562 10.7198C20.9057 11.0389 20.7552 11.5533 20.2154 11.8399C19.677 12.1258 19.1377 11.966 18.8695 11.8584C18.5623 11.7352 18.2805 11.5476 18.0676 11.388C17.8458 11.2219 17.6508 11.0496 17.5142 10.9223C17.4481 10.8607 17.3303 10.7437 17.2846 10.6983L17.2785 10.6922C16.8963 10.2935 16.9095 9.66019 17.3082 9.27804L18.763 7.82328C17.9716 5.07766 15.285 3 12.0002 3C8.07259 3 5.00018 5.97042 5.00018 9.50139C5.00018 10.0537 4.55247 10.5014 4.00018 10.5014C3.4479 10.5014 3.00018 10.0537 3.00018 9.50139Z" fill="#141B34"/>
<path fill-rule="evenodd" clip-rule="evenodd" d="M12.6564 5.86115C12.8645 5.77019 13.1295 5.70734 13.4352 5.78524C13.7435 5.86383 13.9467 6.04865 14.0852 6.23076C14.1929 6.37234 14.288 6.5503 14.3663 6.69669L14.382 6.72594C15.1741 8.20443 15.9254 10.226 15.7137 12.0189C15.6046 12.9432 15.2355 13.8313 14.4678 14.5214C13.8429 15.0832 13.0021 15.4705 11.9376 15.6711C11.9936 16.1854 12.1025 16.7216 12.2775 17.2729C12.4028 17.6677 12.1844 18.0894 11.7896 18.2147C11.3948 18.34 10.9731 18.1216 10.8478 17.7268C10.5941 16.9275 10.4575 16.1531 10.4102 15.418C10.5063 15.4924 10.6058 15.5662 10.7087 15.6393C10.8572 15.745 11.0391 15.793 11.2204 15.7742C11.4697 15.7485 11.7087 15.7141 11.9373 15.671C11.7504 13.9543 12.1526 12.4812 12.6491 11.4989C12.8359 11.1292 12.6877 10.6781 12.318 10.4912C11.9484 10.3044 11.4972 10.4526 11.3104 10.8222C10.7413 11.9481 10.2899 13.5574 10.4098 15.4182C9.43311 14.6624 8.7973 13.8412 8.48167 12.9666C8.13145 11.9961 8.20436 11.0397 8.52617 10.1692C9.15183 8.47682 10.7311 7.05834 12.1563 6.14818L12.1841 6.13041C12.3244 6.04065 12.494 5.9322 12.6564 5.86115Z" fill="#141B34"/>
</svg>
