<svg width="24" height="24" viewBox="0 0 24 24" fill="none" xmlns="http://www.w3.org/2000/svg">
<path d="M11.0714 19.7578C10.8968 19.5367 10.5002 19.0351 10.3444 18.8759C9.98699 18.5103 9.39911 18.502 9.03137 18.8573C8.66362 19.2126 8.65527 19.797 9.01271 20.1626C9.0845 20.236 9.25492 20.4479 9.45613 20.7026C9.63224 20.9256 9.84189 21.1911 10.0582 21.4449C10.2893 21.7161 10.5548 22.0059 10.8251 22.2347C10.9606 22.3495 11.119 22.4676 11.2942 22.5608C11.4619 22.65 11.7073 22.75 12 22.75C12.2927 22.75 12.5381 22.65 12.7058 22.5608C12.881 22.4676 13.0394 22.3495 13.1749 22.2347C13.4452 22.0059 13.7107 21.7161 13.9418 21.4449C14.1581 21.1911 14.3678 20.9256 14.5439 20.7026C14.7451 20.4479 14.9155 20.236 14.9873 20.1626C15.3447 19.797 15.3364 19.2126 14.9686 18.8573C14.6009 18.502 14.013 18.5103 13.6556 18.8759C13.4998 19.0351 13.1032 19.5367 12.9286 19.7578V17.6731C12.9286 17.1633 12.5128 16.75 12 16.75C11.4872 16.75 11.0714 17.1633 11.0714 17.6731V19.7578Z" fill="#141B34"/>
<path fill-rule="evenodd" clip-rule="evenodd" d="M12 15.75C16.0041 15.75 19.25 12.5041 19.25 8.5C19.25 4.49593 16.0041 1.25 12 1.25C7.99594 1.25 4.75 4.49593 4.75 8.5C4.75 12.5041 7.99594 15.75 12 15.75ZM12.75 4.5C12.75 4.08579 12.4142 3.75 12 3.75C11.5858 3.75 11.25 4.08579 11.25 4.5V5.08333H9.5C9.08579 5.08333 8.75 5.41912 8.75 5.83333C8.75 6.24755 9.08579 6.58333 9.5 6.58333H9.6875V10.4167H9.5C9.08579 10.4167 8.75 10.7525 8.75 11.1667C8.75 11.5809 9.08579 11.9167 9.5 11.9167H11.25V12.5C11.25 12.9142 11.5858 13.25 12 13.25C12.4142 13.25 12.75 12.9142 12.75 12.5V11.9167H13.5625C14.5393 11.9167 15.25 11.0868 15.25 10.1667V9.5C15.25 9.1376 15.1398 8.7892 14.9465 8.5C15.1398 8.2108 15.25 7.8624 15.25 7.5V6.83333C15.25 5.91317 14.5393 5.08333 13.5625 5.08333H12.75V4.5ZM11.1875 7.75V6.58333H13.5625C13.6212 6.58333 13.75 6.64893 13.75 6.83333V7.5C13.75 7.6844 13.6212 7.75 13.5625 7.75H11.1875ZM11.1875 9.25H13.5625C13.6212 9.25 13.75 9.3156 13.75 9.5V10.1667C13.75 10.3511 13.6212 10.4167 13.5625 10.4167H11.1875V9.25Z" fill="#141B34"/>
</svg>
