<svg width="24" height="24" viewBox="0 0 24 24" fill="none" xmlns="http://www.w3.org/2000/svg">
<path fill-rule="evenodd" clip-rule="evenodd" d="M16.5453 3.24927L7.3947 3.24936C7.63233 3.88104 7.74945 4.59064 7.74945 4.99953C7.74945 7.62288 5.6228 9.74953 2.99945 9.74953C2.61134 9.74953 1.85284 9.74953 1.24998 9.49539L1.24994 14.5482C1.46484 14.4767 1.66488 14.4253 1.83876 14.3925C2.21099 14.299 2.59996 14.2495 2.99945 14.2495C5.6228 14.2495 7.74945 16.3762 7.74945 18.9995C7.74945 19.3899 7.68132 20.1367 7.48015 20.7489L16.5414 20.7488C16.3215 20.142 16.2494 19.3933 16.2494 18.9995C16.2494 16.3762 18.3761 14.2495 20.9994 14.2495C21.3874 14.2495 22.1255 14.3133 22.7481 14.4985L22.7479 9.43988C21.9832 9.70045 21.4009 9.74953 20.9994 9.74953C18.3761 9.74953 16.2494 7.62288 16.2494 4.99953C16.2494 4.60059 16.2494 4.01599 16.5453 3.24927ZM22.7162 7.82963C22.6991 7.45364 22.673 7.10899 22.6333 6.79399C22.5141 5.84787 22.2606 5.05597 21.6675 4.42335C21.068 3.78388 20.3066 3.50421 19.3973 3.3738C19.0208 3.3198 18.6003 3.28917 18.1337 3.2718C17.7973 3.89041 17.7494 4.71782 17.7494 4.99953C17.7494 6.79446 19.2045 8.24953 20.9994 8.24953C21.2812 8.24953 22.092 8.19353 22.7162 7.82963ZM22.7212 16.0514C21.9648 15.7495 21.2812 15.7495 20.9994 15.7495C19.2045 15.7495 17.7494 17.2046 17.7494 18.9995C17.7494 19.8344 17.9707 20.3516 18.1507 20.7257C18.6105 20.7082 19.0254 20.6776 19.3973 20.6243C20.3066 20.4939 21.068 20.2142 21.6675 19.5747C22.2606 18.9421 22.5141 18.1502 22.6333 17.2041C22.6771 16.8567 22.7043 16.4732 22.7212 16.0514ZM6.24945 18.9995C6.24945 19.2812 6.24945 19.9299 5.90092 20.7276C5.41978 20.7105 4.98711 20.6797 4.60075 20.6243C3.69144 20.4939 2.93007 20.2142 2.33056 19.5747C1.73748 18.9421 1.48401 18.1502 1.36476 17.2041C1.32438 16.8838 1.2981 16.5328 1.28098 16.1494C1.61017 15.9937 1.97279 15.8904 2.18639 15.8519C2.44546 15.7852 2.71774 15.7495 2.99945 15.7495C4.79438 15.7495 6.24945 17.2046 6.24945 18.9995ZM1.27721 7.93718C1.98126 8.24953 2.71774 8.24953 2.99945 8.24953C4.79437 8.24953 6.24945 6.79446 6.24945 4.99953C6.24945 4.72439 6.21543 4.45823 6.15172 4.20461C6.08281 3.98804 5.9476 3.65159 5.75197 3.27629C5.33004 3.29429 4.94682 3.32417 4.60075 3.3738C3.69144 3.50421 2.93007 3.78388 2.33056 4.42335C1.73748 5.05597 1.48401 5.84787 1.36476 6.79399C1.3213 7.13879 1.29416 7.51912 1.27721 7.93718ZM12.7499 8.00024C12.7499 7.58603 12.4142 7.25024 11.9999 7.25024C11.5857 7.25024 11.2499 7.58603 11.2499 8.00024V8.58358H9.49994C9.08573 8.58358 8.74994 8.91936 8.74994 9.33358C8.74994 9.74779 9.08573 10.0836 9.49994 10.0836H9.68744V13.9169H9.49994C9.08573 13.9169 8.74994 14.2527 8.74994 14.6669C8.74994 15.0811 9.08573 15.4169 9.49994 15.4169H11.2499V16.0002C11.2499 16.4145 11.5857 16.7502 11.9999 16.7502C12.4142 16.7502 12.7499 16.4145 12.7499 16.0002V15.4169H13.5624C14.5393 15.4169 15.2499 14.5871 15.2499 13.6669V13.0002C15.2499 12.6378 15.1397 12.2894 14.9464 12.0002C15.1397 11.711 15.2499 11.3626 15.2499 11.0002V10.3336C15.2499 9.41341 14.5393 8.58358 13.5624 8.58358H12.7499V8.00024ZM11.1874 11.2502V10.0836H13.5624C13.6211 10.0836 13.7499 10.1492 13.7499 10.3336V11.0002C13.7499 11.1846 13.6211 11.2502 13.5624 11.2502H11.1874ZM11.1874 12.7502H13.5624C13.6211 12.7502 13.7499 12.8158 13.7499 13.0002V13.6669C13.7499 13.8513 13.6211 13.9169 13.5624 13.9169H11.1874V12.7502Z" fill="#141B34"/>
</svg>
