<svg width="24" height="24" viewBox="0 0 24 24" fill="none" xmlns="http://www.w3.org/2000/svg">
<path fill-rule="evenodd" clip-rule="evenodd" d="M8.5 1.25C5.32436 1.25 2.75 3.82436 2.75 7C2.75 8.97049 3.74152 10.7086 5.25 11.744L5.24992 17.964C5.24925 18.6626 5.24872 19.2155 5.45933 19.724C5.66994 20.2324 6.06127 20.623 6.55573 21.1165L7.96967 22.5303C8.26256 22.8232 8.73744 22.8232 9.03033 22.5303L11.1577 20.403C11.2355 20.3254 11.3185 20.2425 11.3902 20.1487C11.5755 19.9063 11.6943 19.6197 11.7346 19.3172C11.7502 19.2002 11.7501 19.0829 11.75 18.973C11.7501 18.8838 11.7502 18.7396 11.7397 18.6436C11.7126 18.3955 11.6328 18.1561 11.5056 17.9413C11.4563 17.8582 11.3991 17.782 11.3456 17.7107L11.3455 17.7107L10.4375 16.5L10.8583 15.939C11.1982 15.4865 11.4669 15.1289 11.6089 14.703C11.7508 14.2771 11.7505 13.8297 11.7501 13.2638L11.75 11.744C13.2585 10.7086 14.25 8.97049 14.25 7C14.25 3.82436 11.6756 1.25 8.5 1.25ZM8.49329 5.5C7.66857 5.5 7 6.17157 7 7C7 7.82843 7.66857 8.5 8.49329 8.5H8.50671C9.33143 8.5 10 7.82843 10 7C10 6.17157 9.33143 5.5 8.50671 5.5H8.49329Z" fill="#141B34"/>
<path fill-rule="evenodd" clip-rule="evenodd" d="M17.5 11.25C17.9142 11.25 18.25 11.5858 18.25 12V12.75H19.375C20.4105 12.75 21.25 13.5895 21.25 14.625V15.375C21.25 15.7971 21.1105 16.1866 20.8751 16.5C21.1105 16.8134 21.25 17.2029 21.25 17.625V18.375C21.25 19.4105 20.4105 20.25 19.375 20.25H18.25V21C18.25 21.4142 17.9142 21.75 17.5 21.75C17.0858 21.75 16.75 21.4142 16.75 21V20.25H14.5C14.0858 20.25 13.75 19.9142 13.75 19.5C13.75 19.0858 14.0858 18.75 14.5 18.75H14.875V16.5002C14.875 16.5001 14.875 16.5002 14.875 16.5002L14.875 14.25H14.5C14.0858 14.25 13.75 13.9142 13.75 13.5C13.75 13.0858 14.0858 12.75 14.5 12.75H16.75V12C16.75 11.5858 17.0858 11.25 17.5 11.25ZM16.375 14.25V15.75H19.375C19.5821 15.75 19.75 15.5821 19.75 15.375V14.625C19.75 14.4179 19.5821 14.25 19.375 14.25H16.375ZM19.375 17.25H16.375L16.375 18.75H19.375C19.5821 18.75 19.75 18.5821 19.75 18.375V17.625C19.75 17.4179 19.5821 17.25 19.375 17.25Z" fill="#141B34"/>
</svg>
