<svg width="24" height="24" viewBox="0 0 24 24" fill="none" xmlns="http://www.w3.org/2000/svg">
<path fill-rule="evenodd" clip-rule="evenodd" d="M19.75 18V10C19.75 9.29659 19.2768 8.84122 18.8221 8.52528C18.3729 8.21311 17.7266 7.8914 16.9652 7.51241L13.1716 5.62362C12.8103 5.44228 12.4271 5.25 12 5.25C11.5728 5.25 11.1897 5.44228 10.8283 5.62362L7.03475 7.5124C6.27336 7.89139 5.62704 8.21311 5.17782 8.52528C4.72318 8.84122 4.24997 9.29659 4.24997 10V18C4.24997 18.7034 4.72318 19.1588 5.17782 19.4747C5.62704 19.7869 6.27337 20.1086 7.03475 20.4876L10.8283 22.3764C11.1897 22.5577 11.5728 22.75 12 22.75C12.4271 22.75 12.8103 22.5577 13.1716 22.3764L16.9652 20.4876C17.7266 20.1086 18.3729 19.7869 18.8221 19.4747C19.2768 19.1588 19.75 18.7034 19.75 18ZM11.25 14.5767V20.9109L7.75758 19.1723C6.92698 18.7588 6.38172 18.4851 6.03381 18.2434C5.86536 18.1263 5.74997 17.9906 5.74997 17.9906V11.8262C6.11849 12.032 6.608 12.2756 7.08909 12.5151L10.8283 14.3768C10.9653 14.4456 11.1055 14.5159 11.25 14.5767ZM16.9652 12.488C17.4463 12.2486 17.8814 12.032 18.25 11.8262L18.2405 18.0049C18.2405 18.0049 18.1346 18.1263 17.9661 18.2434C17.6182 18.4851 17.073 18.7588 16.2424 19.1723L12.75 20.9109V14.5767C12.8945 14.5159 13.1228 14.4014 13.2599 14.3326L16.9652 12.488Z" fill="#141B34"/>
<path fill-rule="evenodd" clip-rule="evenodd" d="M18.4238 18.0199C18.689 17.7017 19.1619 17.6587 19.4801 17.9238L22.4801 20.4238C22.7983 20.689 22.8413 21.1619 22.5762 21.4801C22.311 21.7983 21.8381 21.8413 21.5199 21.5762L18.5199 19.0762C18.2017 18.811 18.1587 18.3381 18.4238 18.0199Z" fill="#141B34"/>
<path fill-rule="evenodd" clip-rule="evenodd" d="M12 1.25C12.4142 1.25 12.75 1.58579 12.75 2V6C12.75 6.41421 12.4142 6.75 12 6.75C11.5858 6.75 11.25 6.41421 11.25 6V2C11.25 1.58579 11.5858 1.25 12 1.25Z" fill="#141B34"/>
<path fill-rule="evenodd" clip-rule="evenodd" d="M5.57617 18.0199C5.84134 18.3381 5.79835 18.811 5.48014 19.0762L2.48014 21.5762C2.16193 21.8413 1.68901 21.7983 1.42384 21.4801C1.15866 21.1619 1.20166 20.689 1.51987 20.4238L4.51987 17.9238C4.83807 17.6587 5.311 17.7017 5.57617 18.0199Z" fill="#141B34"/>
</svg>
