<svg width="24" height="24" viewBox="0 0 24 24" fill="none" xmlns="http://www.w3.org/2000/svg">
<path fill-rule="evenodd" clip-rule="evenodd" d="M9.75 8V4C9.75 3.4558 9.37777 3.1303 9.12507 2.9547C8.87741 2.78259 8.53242 2.61092 8.16799 2.42958L8.16797 2.42957L8.16797 2.42957L6.24986 1.47434C6.08237 1.38913 5.80889 1.25 5.5 1.25C5.19111 1.25 4.91763 1.38913 4.75014 1.47434L2.83203 2.42958L2.83202 2.42958C2.46759 2.61092 2.12259 2.78259 1.87493 2.9547C1.62223 3.1303 1.25 3.4558 1.25 4V8C1.25 8.5442 1.62224 8.8697 1.87493 9.04531C2.12259 9.21741 2.46758 9.38908 2.83201 9.57042L2.83202 9.57042L4.75014 10.5257C4.91763 10.6109 5.19111 10.75 5.5 10.75C5.80889 10.75 6.08237 10.6109 6.24987 10.5257L8.16796 9.57043C8.5324 9.38909 8.87741 9.21741 9.12507 9.04531C9.37777 8.8697 9.75 8.5442 9.75 8ZM4.75 8.84935L2.75 7.82625V5.5293L4.75 6.5253V8.84935ZM6.25 6.5253L8.25 5.5293V7.82625L6.25 8.84935V6.5253Z" fill="#141B34"/>
<path fill-rule="evenodd" clip-rule="evenodd" d="M22.75 8V4C22.75 3.4558 22.3778 3.1303 22.1251 2.9547C21.8774 2.78259 21.5324 2.61092 21.168 2.42958L21.168 2.42957L21.168 2.42957L19.2499 1.47434C19.0824 1.38913 18.8089 1.25 18.5 1.25C18.1911 1.25 17.9176 1.38913 17.7501 1.47434L15.832 2.42958L15.832 2.42958C15.4676 2.61092 15.1226 2.78259 14.8749 2.9547C14.6222 3.1303 14.25 3.4558 14.25 4V8C14.25 8.5442 14.6222 8.8697 14.8749 9.04531C15.1226 9.21741 15.4676 9.38908 15.832 9.57042L15.832 9.57042L17.7501 10.5257C17.9176 10.6109 18.1911 10.75 18.5 10.75C18.8089 10.75 19.0824 10.6109 19.2499 10.5257L21.168 9.57043C21.5324 9.38909 21.8774 9.21741 22.1251 9.04531C22.3778 8.8697 22.75 8.5442 22.75 8ZM17.75 8.84935L15.75 7.82625V5.5293L17.75 6.5253V8.84935ZM19.25 6.5253L21.25 5.5293V7.82625L19.25 8.84935V6.5253Z" fill="#141B34"/>
<path fill-rule="evenodd" clip-rule="evenodd" d="M16.25 20V16C16.25 15.4558 15.8778 15.1303 15.6251 14.9547C15.3774 14.7826 15.0324 14.6109 14.668 14.4296L14.668 14.4296L14.668 14.4296L12.7499 13.4743C12.5824 13.3891 12.3089 13.25 12 13.25C11.6911 13.25 11.4176 13.3891 11.2501 13.4743L9.33203 14.4296L9.33202 14.4296C8.96759 14.6109 8.62259 14.7826 8.37493 14.9547C8.12223 15.1303 7.75 15.4558 7.75 16V20C7.75 20.5442 8.12224 20.8697 8.37493 21.0453C8.62259 21.2174 8.96758 21.3891 9.33201 21.5704L9.33202 21.5704L11.2501 22.5257C11.4176 22.6109 11.6911 22.75 12 22.75C12.3089 22.75 12.5824 22.6109 12.7499 22.5257L14.668 21.5704C15.0324 21.3891 15.3774 21.2174 15.6251 21.0453C15.8778 20.8697 16.25 20.5442 16.25 20ZM11.25 20.8494L9.25 19.8263V17.5293L11.25 18.5253V20.8494ZM12.75 18.5253L14.75 17.5293V19.8263L12.75 20.8494V18.5253Z" fill="#141B34"/>
<path d="M10.75 6C10.75 5.58579 11.0858 5.25 11.5 5.25H12.5C12.9142 5.25 13.25 5.58579 13.25 6C13.25 6.41421 12.9142 6.75 12.5 6.75H11.5C11.0858 6.75 10.75 6.41421 10.75 6Z" fill="#141B34"/>
<path d="M2 11.25C2.41421 11.25 2.75 11.5858 2.75 12V15.5C2.75 16.2178 2.75091 16.6998 2.78828 17.0672C2.82438 17.422 2.8882 17.586 2.96066 17.6945C3.05186 17.8309 3.16905 17.9481 3.30554 18.0393C3.41399 18.1118 3.57796 18.1756 3.93283 18.2117C4.30023 18.2491 4.78216 18.25 5.5 18.25C5.91422 18.25 6.25 18.5858 6.25 19C6.25 19.4142 5.91422 19.75 5.5 19.75L5.46166 19.75C4.79208 19.75 4.23335 19.75 3.78102 19.704C3.30755 19.6559 2.86818 19.5511 2.47218 19.2865C2.17191 19.0859 1.9141 18.8281 1.71346 18.5278C1.44886 18.1318 1.34415 17.6925 1.29598 17.219C1.24997 16.7667 1.24998 16.2079 1.25 15.5384V15.5383V12C1.25 11.5858 1.58579 11.25 2 11.25Z" fill="#141B34"/>
<path d="M22 11.25C22.4142 11.25 22.75 11.5858 22.75 12V15.5383V15.5384C22.75 16.2079 22.75 16.7667 22.704 17.219C22.6559 17.6925 22.5511 18.1318 22.2865 18.5278C22.0859 18.8281 21.8281 19.0859 21.5278 19.2865C21.1318 19.5511 20.6925 19.6559 20.219 19.704C19.7666 19.75 19.2079 19.75 18.5383 19.75L18.5 19.75C18.0858 19.75 17.75 19.4142 17.75 19C17.75 18.5858 18.0858 18.25 18.5 18.25C19.2178 18.25 19.6998 18.2491 20.0672 18.2117C20.422 18.1756 20.586 18.1118 20.6945 18.0393C20.831 17.9481 20.9481 17.8309 21.0393 17.6945C21.1118 17.586 21.1756 17.422 21.2117 17.0672C21.2491 16.6998 21.25 16.2178 21.25 15.5V12C21.25 11.5858 21.5858 11.25 22 11.25Z" fill="#141B34"/>
</svg>
