<svg width="24" height="24" viewBox="0 0 24 24" fill="none" xmlns="http://www.w3.org/2000/svg">
<path fill-rule="evenodd" clip-rule="evenodd" d="M14.9223 2.42838C13.2679 0.857205 10.7321 0.857205 9.07766 2.42838C7.79766 3.64397 6.22927 5.31956 4.97628 7.24155C3.72892 9.1549 2.75 11.3797 2.75 13.678C2.75 18.1459 6.25744 22.75 12 22.75C17.7426 22.75 21.25 18.1459 21.25 13.678C21.25 11.3797 20.2711 9.15491 19.0237 7.24155C17.7707 5.31956 16.2023 3.64397 14.9223 2.42838ZM12.671 8.66459C12.5439 8.4105 12.2842 8.25 12.0002 8.25C11.7161 8.25 11.4564 8.4105 11.3293 8.66459L9.19323 12.9368C9.18837 12.946 9.1837 12.9554 9.17922 12.9648L8.32934 14.6646C8.1441 15.0351 8.29427 15.4856 8.66475 15.6708C9.03524 15.8561 9.48574 15.7059 9.67098 15.3354L10.3208 14.0357H13.6795L14.3293 15.3354C14.5146 15.7059 14.9651 15.8561 15.3356 15.6708C15.7061 15.4856 15.8562 15.0351 15.671 14.6646L14.8211 12.9648C14.8166 12.9554 14.812 12.946 14.8071 12.9368L12.671 8.66459ZM12.0002 10.6771L12.9295 12.5357H11.0708L12.0002 10.6771Z" fill="#141B34"/>
</svg>
