<svg width="24" height="24" viewBox="0 0 24 24" fill="none" xmlns="http://www.w3.org/2000/svg">
<path fill-rule="evenodd" clip-rule="evenodd" d="M12.5 16.6C12.5 14.0595 14.5595 12 17.1 12C19.6405 12 21.7 14.0595 21.7 16.6C21.7 17.5083 21.4368 18.355 20.9824 19.0682L22.2071 20.2929C22.5976 20.6834 22.5976 21.3166 22.2071 21.7071C21.8166 22.0976 21.1834 22.0976 20.7929 21.7071L19.5682 20.4824C18.855 20.9368 18.0083 21.2 17.1 21.2C14.5595 21.2 12.5 19.1405 12.5 16.6ZM17.1 14C15.6641 14 14.5 15.1641 14.5 16.6C14.5 18.0359 15.6641 19.2 17.1 19.2C18.5359 19.2 19.7 18.0359 19.7 16.6C19.7 15.1641 18.5359 14 17.1 14Z" fill="#141B34"/>
<path fill-rule="evenodd" clip-rule="evenodd" d="M12.7828 3.61572C13.0561 3.82228 13.3306 4.02978 13.6026 4.23521C14.0748 4.59194 14.5129 4.92294 14.8236 5.23771C15.1638 5.58248 15.5001 6.05322 15.5001 6.70025C15.5001 7.34728 15.1638 7.81802 14.8236 8.16279C14.5129 8.47756 14.0748 8.80856 13.6026 9.1653C12.5721 9.94371 11.542 10.7224 10.5117 11.501L11.9833 12.6131C12.424 12.946 12.5112 13.5732 12.1783 14.0138C11.8453 14.4544 11.2182 14.5417 10.7776 14.2087L10.0133 13.6312C9.94741 13.5814 9.853 13.6284 9.853 13.711V16.8351C9.853 17.7999 9.85559 18.4097 9.91572 18.8226C9.94437 19.0193 10.1166 18.835 10.2414 18.756C10.7079 18.4605 11.3257 18.5991 11.6212 19.0657C11.9168 19.5323 11.7781 20.1501 11.3116 20.4456C10.7401 20.8075 9.87919 21.2648 8.98839 20.8161C8.23886 20.4385 8.02145 19.6935 7.9366 19.1108C7.85286 18.5359 7.85292 17.7769 7.85299 16.9114L7.853 13.5101L3.10295 17.0995C2.66232 17.4325 2.0352 17.3452 1.70223 16.9046C1.36927 16.464 1.45654 15.8369 1.89716 15.5039L7.19432 11.501L1.89716 7.49807C1.45654 7.16511 1.36927 6.53798 1.70223 6.09736C2.0352 5.65673 2.66232 5.56946 3.10295 5.90243L7.853 9.4919V6.16684C7.853 6.14132 7.853 6.11589 7.85299 6.09056C7.85292 5.22503 7.85286 4.4661 7.9366 3.89111C8.02145 3.30851 8.23886 2.5635 8.98839 2.18591C9.74117 1.80667 10.469 2.0802 10.9851 2.3628C11.493 2.64087 12.0963 3.09687 12.7828 3.61572ZM10.0133 9.37077C9.94741 9.42056 9.853 9.37356 9.853 9.29099V6.16684C9.853 5.20206 9.85559 4.59225 9.91572 4.17935C9.93122 4.07291 9.92891 4.06466 10.0246 4.11704C10.3872 4.3156 10.8719 4.67853 11.6383 5.25773L12.3442 5.79115C12.8873 6.20156 13.2046 6.44445 13.4001 6.64256C13.4553 6.69851 13.4553 6.70199 13.4001 6.75794C13.2046 6.95605 12.8873 7.19894 12.3442 7.60935L10.0133 9.37077Z" fill="#141B34"/>
</svg>
