<svg width="24" height="24" viewBox="0 0 24 24" fill="none" xmlns="http://www.w3.org/2000/svg">
<path fill-rule="evenodd" clip-rule="evenodd" d="M7.44743 14.8558C7.94141 15.1028 8.14164 15.7035 7.89465 16.1974L4.89465 22.1974C4.64766 22.6914 4.04698 22.8916 3.55301 22.6446C3.05903 22.3977 2.8588 21.797 3.10579 21.303L6.10579 15.303C6.35278 14.809 6.95345 14.6088 7.44743 14.8558ZM16.553 14.8558C17.047 14.6088 17.6477 14.809 17.8946 15.303L20.8946 21.303C21.1416 21.797 20.9414 22.3977 20.4474 22.6446C19.9535 22.8916 19.3528 22.6914 19.1058 22.1974L16.1058 16.1974C15.8588 15.7035 16.059 15.1028 16.553 14.8558ZM12.0002 14.7502C12.5525 14.7502 13.0002 15.1979 13.0002 15.7502V19.7502C13.0002 20.3025 12.5525 20.7502 12.0002 20.7502C11.4479 20.7502 11.0002 20.3025 11.0002 19.7502V15.7502C11.0002 15.1979 11.4479 14.7502 12.0002 14.7502Z" fill="#141B34"/>
<path fill-rule="evenodd" clip-rule="evenodd" d="M13.0564 1.25C14.8942 1.24999 16.3498 1.24997 17.489 1.40314C18.6614 1.56076 19.6104 1.89288 20.3588 2.64124C21.1071 3.38961 21.4392 4.33856 21.5969 5.51098C21.75 6.65018 21.75 8.10585 21.75 9.94359V15H22C22.5523 15 23 15.4477 23 16C23 16.5523 22.5523 17 22 17H2C1.44772 17 1 16.5523 1 16C1 15.4477 1.44772 15 2 15H2.25V9.94357C2.24998 8.10582 2.24997 6.65019 2.40314 5.51098C2.56076 4.33856 2.89288 3.38961 3.64124 2.64124C4.38961 1.89288 5.33856 1.56076 6.51098 1.40314C7.65019 1.24997 9.10583 1.24999 10.9436 1.25H10.9436H13.0564H13.0564ZM11 8.25C10.5858 8.25 10.25 8.58579 10.25 9C10.25 9.41421 10.5858 9.75 11 9.75H13C13.4142 9.75 13.75 9.41421 13.75 9C13.75 8.58579 13.4142 8.25 13 8.25H11ZM8.28701 6.30711C8.56727 6.4232 8.75 6.69668 8.75 7.00002V11C8.75 11.4142 8.41421 11.75 8 11.75C7.58579 11.75 7.25 11.4142 7.25 11V8.70731C6.98617 8.80036 6.68069 8.74137 6.46967 8.53035C6.17678 8.23746 6.17678 7.76259 6.46967 7.46969L7.46967 6.46969C7.68417 6.25519 8.00676 6.19103 8.28701 6.30711ZM17.75 7.00002C17.75 6.69668 17.5673 6.4232 17.287 6.30711C17.0068 6.19103 16.6842 6.25519 16.4697 6.46969L15.4697 7.46969C15.1768 7.76259 15.1768 8.23746 15.4697 8.53035C15.6807 8.74137 15.9862 8.80036 16.25 8.70731V11C16.25 11.4142 16.5858 11.75 17 11.75C17.4142 11.75 17.75 11.4142 17.75 11V7.00002Z" fill="#141B34"/>
</svg>
