<svg width="24" height="24" viewBox="0 0 24 24" fill="none" xmlns="http://www.w3.org/2000/svg">
<path fill-rule="evenodd" clip-rule="evenodd" d="M9.5 7.25C6.32437 7.25 3.75 9.82436 3.75 13L3.75 18.052C3.74997 18.9505 3.74995 19.6997 3.82991 20.2945C3.91432 20.9223 4.09999 21.4891 4.55546 21.9445C5.01093 22.4 5.57773 22.5857 6.20552 22.6701C6.8003 22.7501 7.54951 22.75 8.44798 22.75H8.44801H10.552H10.552C11.4505 22.75 12.1997 22.7501 12.7945 22.6701C13.4223 22.5857 13.9891 22.4 14.4445 21.9445C14.9 21.4891 15.0857 20.9223 15.1701 20.2945C15.2501 19.6997 15.25 18.9505 15.25 18.052V18.052L15.25 13C15.25 9.82436 12.6756 7.25 9.5 7.25ZM5.25 13C5.25 10.6528 7.15279 8.75 9.5 8.75C11.5433 8.75 13.2498 10.192 13.6575 12.1138C13.6931 12.2816 13.7109 12.3656 13.6617 12.404C13.6125 12.4425 13.5291 12.4019 13.3622 12.3207C11.884 11.6011 10.6477 12.2233 9.29329 12.905C8.15891 13.476 6.94171 14.0886 5.43019 13.9894C5.34608 13.9838 5.30402 13.9811 5.27701 13.9522C5.25 13.9234 5.25 13.8801 5.25 13.7936V13Z" fill="#141B34"/>
<path d="M9.45526 4.25C9.02244 4.24995 8.62561 4.24991 8.3028 4.29331C7.94732 4.3411 7.57159 4.45355 7.26257 4.76257C6.95355 5.07159 6.8411 5.44732 6.79331 5.8028C6.74991 6.12561 6.74995 6.52244 6.75 6.95526L6.75001 8.00001C6.75001 8.41422 7.08579 8.75001 7.50001 8.75001H11.5C11.9142 8.75001 12.25 8.41422 12.25 8.00001L12.25 6.95526C12.2501 6.52245 12.2501 6.12561 12.2067 5.8028C12.1589 5.44732 12.0465 5.07159 11.7374 4.76257C11.4284 4.45355 11.0527 4.3411 10.6972 4.29331C10.3744 4.24991 9.97757 4.24995 9.54476 4.25H9.45526Z" fill="#141B34"/>
<path fill-rule="evenodd" clip-rule="evenodd" d="M6.75 2C6.75 1.58579 7.08579 1.25 7.5 1.25H12.9229C14.1291 1.25 15.1284 1.73173 15.9729 2.41792C16.2944 2.67912 16.3433 3.15147 16.0821 3.47295C15.8209 3.79442 15.3485 3.84329 15.0271 3.58208C14.3703 3.04846 13.6943 2.75 12.9229 2.75H10.25V5C10.25 5.41421 9.91421 5.75 9.5 5.75C9.08579 5.75 8.75 5.41421 8.75 5V2.75H7.5C7.08579 2.75 6.75 2.41421 6.75 2Z" fill="#141B34"/>
<path d="M18.6044 11.6725C19.8553 11.3305 20.4872 9.9964 20.168 8.781C19.9088 7.79383 18.8701 7.08475 18.0745 6.55824C17.8004 6.37686 17.5236 6.18079 17.1764 6.27398C16.8279 6.3675 16.6868 6.67656 16.539 6.97211C16.1103 7.82934 15.5568 8.96645 15.8168 9.95651C16.1369 11.1756 17.3469 12.0164 18.6044 11.6725Z" fill="#141B34"/>
</svg>
