<svg width="24" height="24" viewBox="0 0 24 24" fill="none" xmlns="http://www.w3.org/2000/svg">
<path fill-rule="evenodd" clip-rule="evenodd" d="M20.3943 1.36201C20.6154 1.49867 20.75 1.74007 20.75 2V11.5276V11.5276V11.5277V11.5277C20.75 12.4363 20.75 13.1564 20.7102 13.7398C20.6695 14.3358 20.5848 14.8437 20.3884 15.3179C20.0845 16.0516 19.6047 16.6902 19 17.1829V21.0001H19.7383C20.2906 21.0001 20.7383 21.4479 20.7383 22.0001C20.7383 22.5524 20.2906 23.0001 19.7383 23.0001H6.74609C4.8131 23.0001 3.24609 21.4331 3.24609 19.5001C3.24609 19.4483 3.24741 19.3969 3.25 19.3457V10.6395C3.24999 9.18469 3.24998 8.03206 3.3489 7.11462C3.45032 6.17399 3.6628 5.39251 4.14849 4.71962C4.44602 4.30741 4.8078 3.94563 5.22001 3.6481C5.8929 3.16242 6.67437 2.94993 7.61501 2.84851C8.53244 2.7496 9.68509 2.7496 11.1399 2.74961L11.1841 2.74961C11.7561 2.74961 12.426 2.76774 13.0721 2.78522C13.5219 2.79739 13.9602 2.80925 14.3459 2.81447C15.238 2.82654 15.628 2.83103 16.3916 2.69608C17.1676 2.55896 17.2461 2.52839 17.3403 2.49176L17.3616 2.48351C17.825 2.30732 18.2413 2.08286 18.7311 1.81876C19.0108 1.66795 19.3145 1.50422 19.6646 1.32918C19.8971 1.21293 20.1732 1.22536 20.3943 1.36201ZM17 18.5001V21.0001H6.74609C5.91767 21.0001 5.24609 20.3286 5.24609 19.5001C5.24609 18.9479 5.69381 18.5001 6.24609 18.5001H17ZM8 5.1V8.19003C8 8.93013 8 9.30019 8.23811 9.44372C8.24836 9.44989 8.25883 9.45571 8.26951 9.46115C8.51756 9.58747 8.84124 9.39708 9.48859 9.0163L9.4886 9.01629C9.97254 8.73164 10.2145 8.58931 10.4815 8.58447C10.4938 8.58425 10.5062 8.58425 10.5185 8.58447C10.7855 8.58931 11.0275 8.73164 11.5114 9.01629C12.1588 9.39707 12.4824 9.58747 12.7305 9.46115C12.7412 9.45571 12.7516 9.44989 12.7619 9.44372C13 9.30019 13 8.93013 13 8.19003V5.1C13 4.81716 13 4.67574 12.9121 4.58787C12.8243 4.5 12.6828 4.5 12.4 4.5H8.6C8.31716 4.5 8.17574 4.5 8.08787 4.58787C8 4.67574 8 4.81716 8 5.1Z" fill="#141B34"/>
</svg>
