<svg width="24" height="24" viewBox="0 0 24 24" fill="none" xmlns="http://www.w3.org/2000/svg">
<path fill-rule="evenodd" clip-rule="evenodd" d="M21.6784 7.48375C22.2218 7.38513 22.5824 6.86466 22.4838 6.32126C22.2628 5.10353 21.8488 4.0899 21.0447 3.26589C20.1145 2.31261 18.9341 1.8912 17.49 1.69224C16.0931 1.49978 14.3114 1.4998 12.0761 1.49983L11.9236 1.49983C9.68826 1.4998 7.90651 1.49978 6.50961 1.69224C5.06553 1.8912 3.88516 2.31261 2.95493 3.26589C2.15084 4.0899 1.7369 5.10353 1.5159 6.32126C1.41728 6.86466 1.77785 7.38513 2.32126 7.48375C2.86466 7.58237 3.38513 7.2218 3.48375 6.6784C3.65982 5.70825 3.9482 5.11168 4.38633 4.6627C4.88516 4.15151 5.56935 3.84068 6.78258 3.67353C8.02714 3.50205 9.67083 3.49983 11.9998 3.49983C14.3288 3.49983 15.9725 3.50205 17.2171 3.67353C18.4303 3.84068 19.1145 4.15151 19.6133 4.6627C20.0515 5.11168 20.3398 5.70825 20.5159 6.6784C20.6145 7.22181 21.135 7.58238 21.6784 7.48375Z" fill="#141B34"/>
<path fill-rule="evenodd" clip-rule="evenodd" d="M22.5 11.9773L22.5 11.9711C22.5 11.2875 22.5 10.5818 22.495 9.99154C22.4903 9.43928 22.0389 8.99537 21.4866 9.00004C20.9343 9.00471 20.4904 9.45619 20.4951 10.0085C20.5 10.5894 20.5 11.2871 20.5 11.9741C20.5 12.6613 20.5 13.4216 20.4951 14.0024C20.4904 14.5547 20.9343 15.0062 21.4866 15.0109C22.0389 15.0155 22.4903 14.5716 22.495 14.0194C22.5 13.4291 22.5 12.6609 22.5 11.9773ZM21.4309 16.7064C20.8879 16.6057 20.3661 16.9643 20.2653 17.5073C20.0957 18.4219 19.8193 18.9791 19.4007 19.3988C18.9823 19.8183 18.4275 20.095 17.5167 20.2648C16.9737 20.3661 16.6157 20.8883 16.7169 21.4312C16.8182 21.9741 17.3404 22.3322 17.8833 22.2309C19.051 22.0132 20.0259 21.6042 20.8168 20.8111C21.6075 20.0182 22.0149 19.0415 22.2318 17.872C22.3325 17.329 21.974 16.8071 21.4309 16.7064ZM14.9 21.4865C14.8953 20.9343 14.4438 20.4904 13.8915 20.4951C13.3121 20.5 12.6849 20.5 12 20.5C11.315 20.5 10.6878 20.5 10.1084 20.4951C9.55616 20.4904 9.10466 20.9343 9.09996 21.4865C9.09526 22.0388 9.53916 22.4903 10.0914 22.495C10.6801 22.5 11.3154 22.5 11.9972 22.5L12.0028 22.5C12.6846 22.5 13.3198 22.5 13.9085 22.495C14.4608 22.4903 14.9047 22.0388 14.9 21.4865ZM7.28305 21.4312C7.3843 20.8883 7.02625 20.3661 6.48333 20.2648C5.57248 20.095 5.01769 19.8183 4.59931 19.3988C4.18069 18.9791 3.9043 18.4219 3.73466 17.5073C3.63394 16.9643 3.11208 16.6057 2.56906 16.7064C2.02603 16.8071 1.66747 17.329 1.76819 17.872C1.98512 19.0415 2.39246 20.0182 3.18317 20.8111C3.97414 21.6042 4.94904 22.0132 6.11667 22.2309C6.6596 22.3322 7.1818 21.9741 7.28305 21.4312ZM2.51341 15.0109C3.06567 15.0062 3.50959 14.5547 3.50492 14.0024C3.50001 13.4216 3.5 12.6612 3.5 11.9741C3.5 11.2871 3.50001 10.5894 3.50492 10.0085C3.50959 9.45619 3.06567 9.0047 2.51341 9.00003C1.96114 8.99537 1.50966 9.43928 1.50499 9.99154C1.5 10.5815 1.5 11.2869 1.5 11.9702L1.5 11.9772C1.5 12.6607 1.5 13.4291 1.50499 14.0194C1.50966 14.5716 1.96114 15.0155 2.51341 15.0109Z" fill="#141B34"/>
<path fill-rule="evenodd" clip-rule="evenodd" d="M22.5 12C22.5 12.5523 22.0523 13 21.5 13L20 13C19.4477 13 19 12.5523 19 12C19 11.4477 19.4477 11 20 11L21.5 11C22.0523 11 22.5 11.4477 22.5 12ZM16 12C16 12.5523 15.5523 13 15 13L13 13L13 15C13 15.5523 12.5523 16 12 16C11.4477 16 11 15.5523 11 15L11 13L9 13C8.44772 13 8 12.5523 8 12C8 11.4477 8.44771 11 9 11L11 11L11 9C11 8.44771 11.4477 8 12 8C12.5523 8 13 8.44771 13 9L13 11L15 11C15.5523 11 16 11.4477 16 12ZM12 18.5312C12.5523 18.5312 13 18.979 13 19.5312L13 21C13 21.5523 12.5523 22 12 22C11.4477 22 11 21.5523 11 21L11 19.5312C11 18.979 11.4477 18.5312 12 18.5312ZM5 12C5 12.5523 4.55228 13 4 13L2.5 13C1.94772 13 1.5 12.5523 1.5 12C1.5 11.4477 1.94772 11 2.5 11L4 11C4.55228 11 5 11.4477 5 12Z" fill="#141B34"/>
</svg>
