<svg width="24" height="24" viewBox="0 0 24 24" fill="none" xmlns="http://www.w3.org/2000/svg">
<path d="M12.4886 5.19429C11.4454 5.19429 10.5525 5.84523 10.2027 6.76445C10.1073 7.01497 9.9123 7.21525 9.66365 7.31802C9.415 7.42079 9.13474 7.41695 8.88902 7.30741C8.64657 7.19932 8.37717 7.13871 8.09091 7.13871C7.01144 7.13871 6.13636 8.00925 6.13636 9.08312L6.13663 9.11591C6.14462 9.6013 6.33043 10.0419 6.63382 10.3792C6.99378 10.7792 6.95955 11.3939 6.55738 11.752C6.15521 12.1101 5.53738 12.076 5.17742 11.6759C4.7771 11.231 4.4778 10.6926 4.31653 10.0981C3.67791 10.2556 3.20455 10.8296 3.20455 11.5136C3.20455 12.319 3.86086 12.972 4.67045 12.972H8.1256C8.25698 12.0594 8.75256 11.2638 9.45819 10.7364C9.88971 10.4138 10.5023 10.5004 10.8265 10.9297C11.1507 11.3589 11.0638 11.9684 10.6322 12.2909C10.2741 12.5586 10.0455 12.9816 10.0455 13.4581C10.0455 13.5592 10.0557 13.657 10.0748 13.7508C10.2105 14.416 10.8033 14.9164 11.5114 14.9164L12.115 14.9367C12.9737 15.0382 13.7435 15.5115 14.2187 16.2301L15.8059 19.3426C16.0473 19.8229 15.8516 20.4069 15.3689 20.647C14.8861 20.8871 14.2991 20.6924 14.0577 20.2122L12.5858 17.2987C12.3739 16.8793 11.7812 16.832 11.5114 16.8608C10.1463 16.8608 8.9693 16.0659 8.42038 14.9164H4.67045C2.78139 14.9164 1.25 13.3929 1.25 11.5136C1.25 9.75892 2.58513 8.31441 4.29992 8.13065C4.72693 6.44337 6.26229 5.19429 8.09091 5.19429C8.32935 5.19429 8.56324 5.21564 8.79059 5.25658C9.57287 4.05004 10.936 3.24988 12.4886 3.24988C13.5909 3.24988 14.5991 3.65415 15.3702 4.31987C15.7033 4.25564 16.047 4.22209 16.3977 4.22209C19.3663 4.22209 21.7727 6.61608 21.7727 9.56923C21.7727 10.0329 21.7132 10.4838 21.601 10.9142C22.305 11.5367 22.75 12.4452 22.75 13.4581C22.75 15.3373 21.2186 16.8608 19.3295 16.8608C18.8297 16.8608 18.4838 17.3574 18.6593 17.823L19.2673 19.436C19.4568 19.9388 19.2008 20.4992 18.6954 20.6877C18.1901 20.8762 17.6267 20.6215 17.4372 20.1188L16.8292 18.5057C16.1745 16.769 17.4651 14.9164 19.3295 14.9164C20.1391 14.9164 20.7955 14.2635 20.7955 13.4581C20.7955 12.8929 20.4726 12.4012 19.9958 12.1585C19.797 12.0573 19.5714 11.9997 19.3295 11.9997C18.6215 11.9997 18.0287 12.5001 17.893 13.1654C17.7856 13.6916 17.2698 14.0315 16.7408 13.9247C16.2119 13.8179 15.8701 13.3048 15.9775 12.7786C16.2945 11.225 17.6736 10.0553 19.3295 10.0553C19.4818 10.0553 19.632 10.0653 19.7793 10.0846C19.8049 9.91679 19.8182 9.74472 19.8182 9.56923C19.8182 7.68995 18.2868 6.1665 16.3977 6.1665C16.0371 6.1665 15.6913 6.22169 15.3674 6.32333C14.3449 6.64416 13.5279 7.43233 13.1717 8.4349C13.0863 8.67502 13.0273 8.92774 12.9982 9.18994C12.9389 9.72363 12.4559 10.1084 11.9195 10.0494C11.383 9.99045 10.9962 9.50999 11.0555 8.9763C11.1013 8.56432 11.1942 8.16594 11.3288 7.78693C11.6854 6.78332 12.3338 5.91774 13.1732 5.29081C12.956 5.22794 12.7263 5.19429 12.4886 5.19429Z" fill="#141B34"/>
</svg>
