<svg width="24" height="24" viewBox="0 0 24 24" fill="none" xmlns="http://www.w3.org/2000/svg">
<path fill-rule="evenodd" clip-rule="evenodd" d="M18.4305 5.37695C17.4234 5.24998 16.1516 5.24999 14.5518 5.25H9.44821C7.84841 5.24999 6.57657 5.24998 5.56947 5.37695C4.53118 5.50786 3.6776 5.78336 2.96842 6.40417C2.72853 6.61417 2.50927 6.84818 2.31354 7.10258C1.74054 7.84732 1.48866 8.73658 1.36806 9.8249C1.33019 10.1666 1.30447 10.5375 1.28699 10.9403C1.27965 11.1096 1.41571 11.25 1.5852 11.25H5C5.41421 11.25 5.75 11.5858 5.75 12C5.75 12.4142 5.41421 12.75 5 12.75H1.55037C1.38523 12.75 1.25113 12.8835 1.25072 13.0486C1.25 13.3371 1.25 13.6372 1.25 13.9494V14.0464C1.24999 15.7604 1.24998 17.1096 1.36806 18.1751C1.48866 19.2634 1.74054 20.1527 2.31354 20.8974C2.50927 21.1518 2.72853 21.3858 2.96842 21.5958C3.6776 22.2166 4.53118 22.4921 5.56947 22.623C6.57657 22.75 7.8484 22.75 9.44819 22.75H14.5518C16.1516 22.75 17.4234 22.75 18.4305 22.623C19.4688 22.4921 20.3224 22.2166 21.0316 21.5958C21.2715 21.3858 21.4907 21.1518 21.6865 20.8974C22.2595 20.1527 22.5113 19.2634 22.6319 18.1751C22.75 17.1096 22.75 15.7604 22.75 14.0464V13.9536V13.9535C22.75 13.6398 22.75 13.3383 22.7493 13.0486C22.7489 12.8835 22.6148 12.75 22.4496 12.75L19 12.75C18.5858 12.75 18.25 12.4142 18.25 12C18.25 11.5858 18.5858 11.25 19 11.25L22.4148 11.25C22.5843 11.25 22.7204 11.1096 22.713 10.9403C22.6955 10.5375 22.6698 10.1666 22.6319 9.8249C22.5113 8.73658 22.2595 7.84732 21.6865 7.10258C21.4907 6.84818 21.2715 6.61417 21.0316 6.40417C20.3224 5.78336 19.4688 5.50786 18.4305 5.37695ZM12.75 10C12.75 9.58578 12.4142 9.25 12 9.25C11.5858 9.25 11.25 9.58578 11.25 10V10.3336C10.8358 10.4281 10.4543 10.6005 10.1358 10.8393C9.63179 11.2173 9.25 11.7968 9.25 12.5C9.25 13.2032 9.63179 13.7827 10.1358 14.1607C10.6396 14.5385 11.3011 14.75 12 14.75C12.4057 14.75 12.7441 14.8743 12.9642 15.0393C13.1841 15.2042 13.25 15.3748 13.25 15.5C13.25 15.6252 13.1841 15.7958 12.9642 15.9607C12.7441 16.1257 12.4057 16.25 12 16.25C11.3316 16.25 10.9095 15.929 10.7922 15.6803C10.6157 15.3056 10.1688 15.145 9.79408 15.3216C9.41939 15.4981 9.25879 15.945 9.43537 16.3197C9.76526 17.0197 10.4613 17.4848 11.25 17.6655V18C11.25 18.4142 11.5858 18.75 12 18.75C12.4142 18.75 12.75 18.4142 12.75 18V17.6664C13.1642 17.5719 13.5457 17.3995 13.8642 17.1607C14.3682 16.7827 14.75 16.2032 14.75 15.5C14.75 14.7968 14.3682 14.2173 13.8642 13.8393C13.3604 13.4615 12.6989 13.25 12 13.25C11.5943 13.25 11.2559 13.1257 11.0358 12.9607C10.8159 12.7958 10.75 12.6252 10.75 12.5C10.75 12.3748 10.8159 12.2042 11.0358 12.0393C11.2559 11.8743 11.5943 11.75 12 11.75C12.6684 11.75 13.0905 12.071 13.2078 12.3197C13.3843 12.6944 13.8312 12.855 14.2059 12.6784C14.5806 12.5019 14.7412 12.055 14.5646 11.6803C14.2347 10.9803 13.5387 10.5152 12.75 10.3345V10Z" fill="#141B34"/>
<path fill-rule="evenodd" clip-rule="evenodd" d="M12 1C12.9145 1 13.701 0.997881 14.3278 1.08215C14.9833 1.17028 15.6117 1.36902 16.1213 1.87868C16.631 2.38835 16.8297 3.0167 16.9179 3.67221C17.0212 4.44118 17 5.22604 17 6C17 6.55229 16.5523 7 16 7C15.4477 7 15 6.55229 15 6C15 5.02893 14.9979 4.40122 14.9357 3.93871C14.8774 3.50497 14.7832 3.36902 14.7071 3.2929C14.631 3.21677 14.495 3.12263 14.0613 3.06431C13.5988 3.00213 12.9711 3 12 3C11.0289 3 10.4012 3.00213 9.93871 3.06431C9.50497 3.12263 9.36902 3.21677 9.2929 3.2929C9.21677 3.36902 9.12263 3.50497 9.06431 3.93871C9.00213 4.40122 9 5.02893 9 6C9 6.55229 8.55229 7 8 7C7.44772 7 7 6.55229 7 6C7 5.08547 6.99788 4.29896 7.08215 3.67221C7.17028 3.0167 7.36902 2.38835 7.87868 1.87868C8.38835 1.36902 9.0167 1.17028 9.67221 1.08215C10.299 0.997881 11.0855 1 12 1Z" fill="#141B34"/>
</svg>
