<svg width="24" height="24" viewBox="0 0 24 24" fill="none" xmlns="http://www.w3.org/2000/svg">
<path fill-rule="evenodd" clip-rule="evenodd" d="M2.25195 12.8203C2.25195 12.7297 2.36363 12.6849 2.42799 12.7486C3.30923 13.621 4.41772 14.2621 5.67454 14.5643C6.45935 14.753 7.33522 14.7525 8.35089 14.752L8.49418 14.7519L15.6531 14.752C16.6688 14.7525 17.5445 14.753 18.3294 14.5643C19.5862 14.2621 20.6947 13.621 21.5759 12.7486C21.6403 12.6849 21.752 12.7297 21.752 12.8203V17.9877C21.752 20.431 19.5311 22.2516 17.002 22.2516H7.00195C4.47285 22.2516 2.25195 20.431 2.25195 17.9877V12.8203ZM7.00195 17.25C6.58774 17.25 6.25195 17.5858 6.25195 18C6.25195 18.4142 6.58774 18.75 7.00195 18.75H10.002C10.4162 18.75 10.752 18.4142 10.752 18C10.752 17.5858 10.4162 17.25 10.002 17.25H7.00195Z" fill="#141B34"/>
<path d="M1.81568 4.89619C1.9814 4.13193 2.4541 3.47799 3.1088 3.09874C3.24293 3.02104 3.31 2.9822 3.36112 3.01436C3.41224 3.04653 3.40557 3.1323 3.39225 3.30386L3.37617 3.98745C3.37603 4.21096 3.37423 4.43474 3.38945 4.65786C3.40464 4.88043 3.44233 5.18196 3.57598 5.50463C3.8424 6.14783 4.35342 6.65885 4.99662 6.92527C5.46453 7.11909 5.96446 7.12517 6.46229 7.12509H7.54004C8.03787 7.12517 8.5378 7.11909 9.00571 6.92527C9.64891 6.65885 10.1599 6.14783 10.4263 5.50463C10.56 5.18196 10.5977 4.88043 10.6129 4.65786C10.6287 4.42592 10.6263 4.19328 10.6262 3.96094C10.6262 3.76052 10.6262 3.53788 10.6129 3.34232C10.5976 3.11848 10.59 3.00657 10.6121 2.94639C10.6437 2.86067 10.6876 2.81369 10.771 2.77634C10.8295 2.75012 10.9251 2.75012 11.1162 2.75012H12.8862C13.0773 2.75012 13.1728 2.75012 13.2313 2.77634C13.3147 2.81369 13.3586 2.86067 13.3902 2.94639C13.4124 3.00657 13.4047 3.11848 13.3894 3.34232C13.3759 3.54141 13.376 3.74116 13.3761 3.94066C13.3761 4.17975 13.3732 4.41919 13.3895 4.65787C13.4046 4.88043 13.4423 5.18196 13.576 5.50463C13.8424 6.14783 14.3534 6.65885 14.9966 6.92527C15.4645 7.11909 15.9645 7.12517 16.4623 7.12509H17.54C18.0379 7.12517 18.5378 7.11909 19.0057 6.92527C19.6489 6.65885 20.1599 6.14783 20.4263 5.50463C20.56 5.18196 20.5977 4.88042 20.6129 4.65786C20.6292 4.41922 20.6262 4.17983 20.6262 3.94079L20.6262 3.91738C20.6264 3.7136 20.6265 3.51585 20.6101 3.30403C20.5968 3.13246 20.5901 3.04668 20.6412 3.01451C20.6924 2.98235 20.7594 3.02121 20.8936 3.09894C21.5481 3.47822 22.0207 4.13206 22.1863 4.89619C22.2514 5.19639 22.2513 5.53879 22.251 5.98988C22.251 6.90966 22.3111 7.86685 22.1149 8.7717C21.6515 10.9087 20.0585 12.6054 17.9832 13.104C17.3739 13.2504 16.6606 13.2503 15.5119 13.2502H8.49016C7.34147 13.2503 6.62813 13.2504 6.01883 13.104C3.94353 12.6054 2.3505 10.9087 1.88714 8.7717C1.69094 7.86683 1.75108 6.90963 1.75099 5.98983C1.75076 5.53875 1.75059 5.19638 1.81568 4.89619Z" fill="#141B34"/>
<path d="M7.51263 2.125H6.48738C6.26515 2.125 6.07962 2.12499 5.92732 2.13539C5.76877 2.1462 5.61901 2.16952 5.47381 2.22967C5.1369 2.36922 4.86922 2.6369 4.72967 2.97381C4.66952 3.11901 4.6462 3.26877 4.63539 3.42732C4.62499 3.57962 4.625 3.76514 4.625 3.98736V4.01263C4.625 4.23485 4.62499 4.42038 4.63539 4.57268C4.6462 4.73123 4.66952 4.881 4.72967 5.02619C4.86922 5.3631 5.1369 5.63078 5.47381 5.77033C5.61901 5.83048 5.76877 5.8538 5.92732 5.86462C6.07962 5.87501 6.26514 5.875 6.48737 5.875H7.51263C7.73486 5.875 7.92038 5.87501 8.07268 5.86462C8.23123 5.8538 8.381 5.83048 8.52619 5.77033C8.8631 5.63078 9.13078 5.3631 9.27033 5.02619C9.33048 4.881 9.3538 4.73123 9.36462 4.57268C9.37501 4.42038 9.375 4.23486 9.375 4.01263V3.98737C9.375 3.76514 9.37501 3.57962 9.36462 3.42732C9.3538 3.26877 9.33048 3.11901 9.27033 2.97381C9.13078 2.6369 8.8631 2.36922 8.52619 2.22967C8.381 2.16952 8.23123 2.1462 8.07268 2.13539C7.92038 2.12499 7.73485 2.125 7.51263 2.125Z" fill="#141B34"/>
<path d="M17.5126 2.125H16.4874C16.2651 2.125 16.0796 2.12499 15.9273 2.13539C15.7688 2.1462 15.619 2.16952 15.4738 2.22967C15.1369 2.36922 14.8692 2.6369 14.7297 2.97381C14.6695 3.11901 14.6462 3.26877 14.6354 3.42732C14.625 3.57962 14.625 3.76514 14.625 3.98737V4.01263C14.625 4.23486 14.625 4.42038 14.6354 4.57268C14.6462 4.73123 14.6695 4.881 14.7297 5.02619C14.8692 5.3631 15.1369 5.63078 15.4738 5.77033C15.619 5.83048 15.7688 5.8538 15.9273 5.86462C16.0796 5.87501 16.2651 5.875 16.4874 5.875H17.5126C17.7349 5.875 17.9204 5.87501 18.0727 5.86462C18.2312 5.8538 18.381 5.83048 18.5262 5.77033C18.8631 5.63078 19.1308 5.3631 19.2703 5.02619C19.3305 4.881 19.3538 4.73123 19.3646 4.57268C19.375 4.42038 19.375 4.23486 19.375 4.01263V3.98737C19.375 3.76514 19.375 3.57962 19.3646 3.42732C19.3538 3.26877 19.3305 3.11901 19.2703 2.97381C19.1308 2.6369 18.8631 2.36922 18.5262 2.22967C18.381 2.16952 18.2312 2.1462 18.0727 2.13539C17.9204 2.12499 17.7349 2.125 17.5126 2.125Z" fill="#141B34"/>
</svg>
