<svg width="24" height="24" viewBox="0 0 24 24" fill="none" xmlns="http://www.w3.org/2000/svg">
<path fill-rule="evenodd" clip-rule="evenodd" d="M10.9054 9.01384C9.61937 10.3071 7.93132 12.109 6.93851 13.3047C5.86809 13.2456 4.77791 13.6225 3.95976 14.4353C3.41805 14.9734 3.09297 15.5144 2.91314 16.0801C2.73746 16.6328 2.71511 17.1664 2.71511 17.6473C2.71511 17.7698 2.71638 17.8902 2.71763 18.0093C2.72636 18.8373 2.73443 19.6039 2.31135 20.5846C2.22163 20.7925 2.2307 21.0299 2.33604 21.2304C2.44137 21.431 2.63168 21.5731 2.85384 21.6173C2.96809 21.6395 3.26703 21.6891 3.54881 21.7095C3.96344 21.7469 4.54117 21.772 5.19664 21.7219C6.49173 21.6229 8.18634 21.2223 9.48196 19.9352C10.3001 19.1224 10.6803 18.0386 10.6224 16.974C11.8265 15.9872 13.6377 14.3129 14.9394 13.0353C17.1539 10.8353 19.0048 8.66276 20.2054 6.91947C20.8021 6.05304 21.2605 5.26085 21.5149 4.60552C21.6411 4.28052 21.7343 3.94644 21.7482 3.62996C21.762 3.31485 21.6987 2.91467 21.3888 2.60675C21.0799 2.29992 20.6804 2.23812 20.3665 2.25173C20.0501 2.26545 19.7154 2.35744 19.3887 2.48261C18.7301 2.73496 17.9333 3.18988 17.0612 3.78266C15.3067 4.9752 13.1199 6.81383 10.9054 9.01384ZM11.1934 10.8555L13.0928 12.7424C12.129 13.6686 11.0884 14.6171 10.1858 15.3844C10.0061 15.0426 9.77185 14.7217 9.48292 14.4347C9.19622 14.1499 8.87611 13.9186 8.53516 13.7408C9.30802 12.8443 10.2621 11.8115 11.1934 10.8555Z" fill="#141B34"/>
</svg>
