<svg width="24" height="24" viewBox="0 0 24 24" fill="none" xmlns="http://www.w3.org/2000/svg">
<path fill-rule="evenodd" clip-rule="evenodd" d="M17.5 1.24997C16.23 1.24997 15.1557 1.78233 14.3443 2.3856C13.5323 2.98936 12.9365 3.69823 12.6049 4.14114C12.4977 4.28013 12.25 4.60162 12.25 4.99997C12.25 5.39832 12.4977 5.71981 12.6049 5.8588C12.9365 6.30171 13.5323 7.01057 14.3443 7.61434C15.1557 8.21761 16.23 8.74997 17.5 8.74997C18.77 8.74997 19.8443 8.21761 20.6557 7.61434C21.4677 7.01057 22.0635 6.30171 22.3951 5.8588C22.5023 5.71981 22.75 5.39832 22.75 4.99997C22.75 4.60162 22.5023 4.28013 22.3951 4.14114C22.0635 3.69823 21.4677 2.98936 20.6557 2.3856C19.8443 1.78233 18.77 1.24997 17.5 1.24997ZM17.4933 3.49997C16.6686 3.49997 16 4.17154 16 4.99997C16 5.8284 16.6686 6.49997 17.4933 6.49997H17.5067C18.3314 6.49997 19 5.8284 19 4.99997C19 4.17154 18.3314 3.49997 17.5067 3.49997H17.4933Z" fill="#141B34"/>
<path fill-rule="evenodd" clip-rule="evenodd" d="M12.8091 1.52401C12.821 1.66132 12.6552 1.83073 12.3235 2.16954C11.9293 2.57227 11.6233 2.95016 11.4121 3.23146L11.4029 3.24324C11.281 3.39842 10.75 4.0743 10.75 4.99997C10.75 5.92564 11.281 6.60152 11.4029 6.7567L11.4121 6.76848C11.7941 7.27723 12.4861 8.10192 13.4493 8.81808C14.4169 9.5375 15.7997 10.25 17.5 10.25C19.2003 10.25 20.5831 9.5375 21.5507 8.81808C21.8415 8.60185 21.9869 8.49374 22.118 8.52029C22.1457 8.52589 22.1722 8.53526 22.1972 8.54832C22.3159 8.61018 22.3568 8.76973 22.4386 9.08884C22.642 9.88174 22.75 10.7115 22.75 11.5667C22.75 17.295 17.9048 21.8834 12 21.8834C11.3041 21.8842 10.6103 21.8199 9.92698 21.6915C9.68979 21.647 9.53909 21.6189 9.42696 21.6035C9.34334 21.5907 9.25931 21.6219 9.22775 21.639C9.11322 21.6934 8.96068 21.7743 8.72714 21.8985C7.29542 22.6599 5.62504 22.93 4.01396 22.6303C3.75381 22.5819 3.5384 22.4 3.44713 22.1516C3.35586 21.9032 3.40224 21.6251 3.56917 21.4198C4.03697 20.8444 4.35863 20.1513 4.50088 19.4052C4.53937 19.2 4.45227 18.9213 4.18451 18.6493C2.36972 16.8065 1.25 14.3144 1.25 11.5667C1.25 5.83835 6.09523 1.24997 12 1.24997C12.432 1.24997 12.648 1.24997 12.7378 1.35455C12.779 1.40256 12.8036 1.46096 12.8091 1.52401ZM8 11C7.44772 11 7 11.4477 7 12C7 12.5523 7.44772 13 8 13H8.00897C8.56126 13 9.00897 12.5523 9.00897 12C9.00897 11.4477 8.56126 11 8.00897 11H8ZM11.9955 11C11.4432 11 10.9955 11.4477 10.9955 12C10.9955 12.5523 11.4432 13 11.9955 13H12.0045C12.5568 13 13.0045 12.5523 13.0045 12C13.0045 11.4477 12.5568 11 12.0045 11H11.9955ZM15.9955 11C15.4432 11 14.9955 11.4477 14.9955 12C14.9955 12.5523 15.4432 13 15.9955 13H16.0045C16.5568 13 17.0045 12.5523 17.0045 12C17.0045 11.4477 16.5568 11 16.0045 11H15.9955Z" fill="#141B34"/>
</svg>
