<svg width="24" height="24" viewBox="0 0 24 24" fill="none" xmlns="http://www.w3.org/2000/svg">
<path fill-rule="evenodd" clip-rule="evenodd" d="M21 4.74918V3.6875C21 2.31583 19.8548 1.25 18.5 1.25C17.1452 1.25 16 2.31583 16 3.6875V4.74918C15.9249 4.77196 15.8502 4.79929 15.7761 4.8322C15.1559 5.10744 14.6789 5.62765 14.4337 6.26203C14.3278 6.53595 14.2871 6.81726 14.2682 7.11392C14.25 7.39939 14.25 7.74715 14.25 8.16389V8.2111C14.25 8.62784 14.25 8.97561 14.2682 9.26108C14.2871 9.55774 14.3278 9.83905 14.4337 10.113C14.6789 10.7474 15.1559 11.2676 15.7761 11.5428C16.0484 11.6637 16.3272 11.7093 16.6128 11.7302C16.8844 11.75 17.2134 11.75 17.5989 11.75H19.4011C19.7866 11.75 20.1156 11.75 20.3872 11.7302C20.6728 11.7093 20.9516 11.6637 21.2239 11.5428C21.8441 11.2676 22.3211 10.7474 22.5663 10.113C22.6722 9.83905 22.7129 9.55774 22.7318 9.26108C22.75 8.97561 22.75 8.62785 22.75 8.2111V8.16392C22.75 7.74717 22.75 7.39939 22.7318 7.11392C22.7129 6.81726 22.6722 6.53595 22.5663 6.26203C22.3211 5.62765 21.8441 5.10744 21.2239 4.8322C21.1498 4.79929 21.0751 4.77196 21 4.74918ZM17.5 3.6875C17.5 3.19521 17.9218 2.75 18.5 2.75C19.0782 2.75 19.5 3.19521 19.5 3.6875V4.62501H17.5V3.6875Z" fill="#141B34"/>
<path fill-rule="evenodd" clip-rule="evenodd" d="M14.8229 1.70387C14.7564 1.5827 14.6024 1.5505 14.2944 1.48611C13.5543 1.33142 12.7866 1.25 12 1.25C6.09523 1.25 1.25 5.83838 1.25 11.5667C1.25 14.3144 2.36971 16.8065 4.18451 18.6494C4.45227 18.9213 4.53937 19.2 4.50088 19.4052C4.35863 20.1513 4.03697 20.8445 3.56917 21.4199C3.40224 21.6252 3.35586 21.9033 3.44713 22.1517C3.5384 22.4 3.75381 22.5819 4.01396 22.6303C5.62504 22.93 7.29542 22.66 8.72713 21.8986C8.96068 21.7744 9.11322 21.6935 9.22775 21.6391C9.25931 21.6219 9.34333 21.5907 9.42696 21.6036C9.53909 21.6189 9.68979 21.647 9.92698 21.6916C10.6103 21.8199 11.3041 21.8843 12 21.8834C17.2579 21.8834 21.6756 18.2453 22.5805 13.4038L22.5805 13.4038C22.6323 13.1265 22.6583 12.9879 22.6305 12.911C22.5887 12.7957 22.5044 12.729 22.3825 12.715C22.3013 12.7057 22.145 12.7751 21.8324 12.9138C21.3373 13.1336 20.8656 13.1992 20.4966 13.2262C20.1695 13.2501 19.7934 13.25 19.4375 13.25H17.5625C17.2066 13.25 16.8305 13.2501 16.5034 13.2262C16.1344 13.1992 15.6627 13.1336 15.1676 12.9138C14.1643 12.4686 13.415 11.6378 13.0346 10.6539C12.8502 10.1769 12.7946 9.7239 12.7712 9.35641C12.75 9.02272 12.75 8.51739 12.75 8.1291C12.75 7.7408 12.75 7.35228 12.7712 7.01859C12.7946 6.6511 12.8502 6.19807 13.0346 5.72114C13.2879 5.06583 13.705 4.47842 14.2517 4.02761C14.3776 3.9238 14.4405 3.87189 14.469 3.81361C14.4976 3.75534 14.4998 3.67886 14.5043 3.5259C14.5206 2.96959 14.5829 2.63456 14.6847 2.36553C14.8211 2.0052 14.8893 1.82504 14.8229 1.70387ZM7.49609 11C6.94381 11 6.49609 11.4477 6.49609 12C6.49609 12.5523 6.94381 13 7.49609 13H7.50507C8.05735 13 8.50507 12.5523 8.50507 12C8.50507 11.4477 8.05735 11 7.50507 11H7.49609ZM11.4916 11C10.9393 11 10.4916 11.4477 10.4916 12C10.4916 12.5523 10.9393 13 11.4916 13H11.5006C12.0529 13 12.5006 12.5523 12.5006 12C12.5006 11.4477 12.0529 11 11.5006 11H11.4916Z" fill="#141B34"/>
</svg>
