<svg width="24" height="24" viewBox="0 0 24 24" fill="none" xmlns="http://www.w3.org/2000/svg">
<path fill-rule="evenodd" clip-rule="evenodd" d="M3.42628 4.68649C3.89253 4.62489 4.46875 4.62494 5.11092 4.625L12.1397 4.62501C13.7987 4.625 15.1063 4.62499 16.159 4.71363C17.234 4.80414 18.1305 4.99223 18.9441 5.41877C20.0592 6.0034 20.9889 6.87956 21.6304 7.95112C22.0986 8.7334 22.3275 9.6072 22.4644 10.6599C22.5984 11.6902 22.6528 12.9745 22.7219 14.6029C22.7395 15.0192 22.7589 15.4764 22.7442 15.7869C22.7283 16.119 22.6755 16.4734 22.4948 16.8185C22.2766 17.2353 21.9399 17.5801 21.5263 17.811C21.3675 17.8997 20.9848 18.1249 20.8167 18.0019C20.7307 17.939 20.7362 17.8012 20.747 17.5255C20.8298 15.4273 19.1025 13.625 17 13.625C14.8526 13.625 13.1099 15.5043 13.2592 17.6404C13.2759 17.8787 13.2842 17.9978 13.2249 18.0614C13.1656 18.125 13.0556 18.125 12.8357 18.125H11.1643C10.9444 18.125 10.8344 18.125 10.7751 18.0614C10.7158 17.9978 10.7241 17.8787 10.7408 17.6404C10.8901 15.5043 9.14744 13.625 7 13.625C4.9131 13.625 3.19119 15.4013 3.2516 17.4857C3.25969 17.7646 3.26373 17.904 3.1784 17.9661C3.09308 18.0281 2.98304 17.989 2.76296 17.9106C1.91395 17.6084 1.43227 16.8581 1.31268 15.984C1.24989 15.525 1.24994 14.958 1.25 14.3274L1.25001 10.3785L1.25 10.375L1.25001 10.3715L1.25 8.42257C1.24994 7.79196 1.24989 7.225 1.31268 6.76602C1.38129 6.2645 1.54065 5.7504 1.96875 5.32971C2.39629 4.90955 2.91782 4.75367 3.42628 4.68649ZM20.5253 10.9056C20.5349 10.9793 20.5465 11.0823 20.5577 11.1874C20.5794 11.391 20.5902 11.4928 20.5305 11.5592C20.4708 11.6255 20.3678 11.6253 20.1619 11.6249C19.5194 11.6238 18.5448 11.6193 18.3707 11.6013C18.1645 11.5799 18.0835 11.5449 18.0324 11.5133C17.753 11.3406 17.386 11.0031 17.0828 10.639C17.0097 10.5512 17.0002 10.4918 17.0002 10.3751V7.26315C17.0002 7.03159 17.0002 6.91581 17.0821 6.85588C17.1639 6.79595 17.2677 6.82884 17.4752 6.89461C17.679 6.95917 17.8597 7.03462 18.0266 7.12213C18.8246 7.54052 19.489 8.16705 19.947 8.93218C20.2252 9.39696 20.4049 9.97999 20.5253 10.9056ZM15.0002 6.96737C15.0002 6.78413 15.0002 6.69251 14.9432 6.63421C14.8862 6.57592 14.7953 6.57389 14.6135 6.56984C13.9077 6.55413 13.0823 6.55386 12.0941 6.55386C12.0422 6.55386 12.0001 6.59593 12.0001 6.64783L12.0002 9.22529C12.0002 9.41385 12.0002 9.50813 12.0588 9.5667C12.1173 9.62528 12.2116 9.62528 12.4002 9.62528H14.6002C14.7888 9.62528 14.8831 9.62528 14.9416 9.5667C15.0002 9.50812 15.0002 9.41384 15.0002 9.22528V6.96737ZM9.60018 9.62528C9.78875 9.62528 9.88303 9.62528 9.94161 9.5667C10.0002 9.50812 10.0002 9.41383 10.0002 9.22527L10.0001 6.95384C10.0001 6.76529 10.0001 6.67101 9.94152 6.61243C9.88294 6.55386 9.78866 6.55386 9.60011 6.55386H7.40011C7.21154 6.55386 7.11725 6.55386 7.05868 6.61244C7.0001 6.67102 7.0001 6.7653 7.00011 6.95387L7.00018 9.22529C7.00019 9.41385 7.00019 9.50813 7.05877 9.5667C7.11735 9.62528 7.21163 9.62528 7.40018 9.62528H9.60018ZM4.60018 9.62528C4.78875 9.62528 4.88303 9.62528 4.94161 9.5667C5.00019 9.50812 5.00019 9.41383 5.00018 9.22527L5.00011 6.95425C5.0001 6.76506 5.0001 6.67047 4.94095 6.6118C4.88181 6.55313 4.78775 6.55388 4.59962 6.55538C4.19788 6.55859 3.91127 6.56843 3.68529 6.59828C3.40296 6.63558 3.354 6.68945 3.34763 6.69645C3.34105 6.70211 3.28699 6.74861 3.24927 7.0243C3.20626 7.33868 3.20417 7.77321 3.20417 8.48243V9.22528C3.20417 9.41384 3.20417 9.50812 3.26275 9.5667C3.32133 9.62528 3.41561 9.62528 3.60417 9.62528H4.60018Z" fill="#141B34"/>
<circle cx="17" cy="17.375" r="2.5" fill="#141B34"/>
<circle cx="7" cy="17.375" r="2.5" fill="#141B34"/>
</svg>
