<svg width="24" height="24" viewBox="0 0 24 24" fill="none" xmlns="http://www.w3.org/2000/svg">
<path d="M13.2036 14.375C14.1846 14.375 14.9943 14.375 15.6189 14.4558C16.261 14.5389 16.8731 14.7248 17.3073 15.2364C17.7601 15.7698 17.802 16.3975 17.7087 17.0138C17.622 17.5872 17.395 18.2931 17.1296 19.1184L17.1296 19.1184C16.9196 19.7717 16.614 20.7223 16.409 21.1609C16.1886 21.6323 15.9106 22.0316 15.4681 22.3328C15.0288 22.6228 14.5081 22.7661 13.968 22.8217C13.451 22.875 12.813 22.875 12.0389 22.875H12.0389H11.9603H11.9603C11.1862 22.875 10.5482 22.875 10.0311 22.8217C9.49109 22.7661 9.00123 22.6435 8.56193 22.3535C8.11946 22.0523 7.81054 21.6323 7.59019 21.1609C7.38515 20.7223 7.0796 19.7717 6.86961 19.1185C6.60422 18.2931 6.37722 17.5872 6.29043 17.0138C6.19715 16.3975 6.23912 15.7698 6.69188 15.2364C7.12608 14.7248 7.73815 14.5389 8.38023 14.4558C9.00492 14.375 9.81461 14.375 10.7955 14.375H10.7956H13.2036H13.2036Z" fill="#141B34"/>
<path fill-rule="evenodd" clip-rule="evenodd" d="M12 11.125C12.5523 11.125 13 11.5727 13 12.125L13 15.125C13 15.6773 12.5523 16.125 12 16.125C11.4477 16.125 11 15.6773 11 15.125L11 12.125C11 11.5727 11.4477 11.125 12 11.125Z" fill="#141B34"/>
<path fill-rule="evenodd" clip-rule="evenodd" d="M12 1.125C12.5523 1.125 13 1.57272 13 2.125V3.23315C14.0532 3.46469 14.9681 4.05346 15.5982 4.85764L16.4453 4.29295C16.9048 3.9866 17.5257 4.11077 17.832 4.5703C18.1384 5.02983 18.0142 5.6507 17.5547 5.95705L16.4344 6.70393C16.5241 7.19593 16.5262 7.71569 16.4249 8.24768L16.2064 9.39409L17.5547 10.2929C18.0142 10.5993 18.1384 11.2202 17.832 11.6797C17.5257 12.1392 16.9048 12.2634 16.4453 11.9571L15.8 11.5268L15.0786 15.3122C14.9752 15.8547 14.4516 16.2107 13.9091 16.1073C13.3665 16.0039 13.0105 15.4803 13.1139 14.9378L14.4602 7.87328C14.7227 6.49609 13.6137 5.125 12 5.125C10.3862 5.125 9.2773 6.49609 9.53975 7.87328L10.886 14.9378C10.9894 15.4803 10.6334 16.0039 10.0909 16.1073C9.5484 16.2107 9.02478 15.8547 8.92139 15.3122L8.20002 11.5268L7.55468 11.9571C7.09516 12.2634 6.47429 12.1392 6.16793 11.6797C5.86158 11.2202 5.98576 10.5993 6.44528 10.2929L7.79358 9.39409L7.57511 8.24768C7.47373 7.7157 7.47591 7.19593 7.56561 6.70393L6.44528 5.95705C5.98576 5.6507 5.86158 5.02983 6.16793 4.5703C6.47429 4.11077 7.09516 3.9866 7.55468 4.29295L8.40173 4.85765C9.03192 4.05346 9.94679 3.46469 11 3.23315V2.125C11 1.57272 11.4477 1.125 12 1.125Z" fill="#141B34"/>
</svg>
