<svg width="24" height="24" viewBox="0 0 24 24" fill="none" xmlns="http://www.w3.org/2000/svg">
<path fill-rule="evenodd" clip-rule="evenodd" d="M12.052 1.75H12.052H11.948H11.948C9.75287 1.74999 8.03639 1.74998 6.69787 1.91195C5.33462 2.0769 4.24953 2.42064 3.38952 3.19465C2.5182 3.97883 2.12077 4.98563 1.93214 6.24835C1.74997 7.46783 1.74998 9.02533 1.75 10.9878V10.9878V10.9878V13.0122V13.0122V13.0122C1.74998 14.9747 1.74997 16.5322 1.93214 17.7516C2.12077 19.0144 2.5182 20.0212 3.38952 20.8054C4.24953 21.5794 5.33462 21.9231 6.69787 22.0881C8.03639 22.25 9.75287 22.25 11.948 22.25H12.052C14.2471 22.25 15.9636 22.25 17.3021 22.0881C18.6654 21.9231 19.7505 21.5794 20.6105 20.8054C21.4818 20.0212 21.8792 19.0144 22.0679 17.7516C22.25 16.5322 22.25 14.9747 22.25 13.0123V10.9877C22.25 9.02532 22.25 7.46783 22.0679 6.24835C21.8792 4.98563 21.4818 3.97883 20.6105 3.19465C19.7505 2.42064 18.6654 2.0769 17.3021 1.91195C15.9636 1.74998 14.2471 1.74999 12.052 1.75ZM16.75 6C16.75 5.58579 16.4142 5.25 16 5.25C15.5858 5.25 15.25 5.58579 15.25 6V7.25H14C13.5858 7.25 13.25 7.58579 13.25 8C13.25 8.41421 13.5858 8.75 14 8.75H15.25V10C15.25 10.4142 15.5858 10.75 16 10.75C16.4142 10.75 16.75 10.4142 16.75 10V8.75H18C18.4142 8.75 18.75 8.41421 18.75 8C18.75 7.58579 18.4142 7.25 18 7.25H16.75V6ZM13.25 17.5C13.25 17.0858 13.5858 16.75 14 16.75H18C18.4142 16.75 18.75 17.0858 18.75 17.5C18.75 17.9142 18.4142 18.25 18 18.25H14C13.5858 18.25 13.25 17.9142 13.25 17.5ZM14 13.75C13.5858 13.75 13.25 14.0858 13.25 14.5C13.25 14.9142 13.5858 15.25 14 15.25H18C18.4142 15.25 18.75 14.9142 18.75 14.5C18.75 14.0858 18.4142 13.75 18 13.75H14ZM10.5303 13.4697C10.8232 13.7626 10.8232 14.2374 10.5303 14.5303L9.31066 15.75L10.5303 16.9697C10.8232 17.2626 10.8232 17.7374 10.5303 18.0303C10.2374 18.3232 9.76256 18.3232 9.46967 18.0303L8.25 16.8107L7.03033 18.0303C6.73744 18.3232 6.26256 18.3232 5.96967 18.0303C5.67678 17.7374 5.67678 17.2626 5.96967 16.9697L7.18934 15.75L5.96967 14.5303C5.67678 14.2374 5.67678 13.7626 5.96967 13.4697C6.26256 13.1768 6.73744 13.1768 7.03033 13.4697L8.25 14.6893L9.46967 13.4697C9.76256 13.1768 10.2374 13.1768 10.5303 13.4697ZM6 7.25C5.58579 7.25 5.25 7.58579 5.25 8C5.25 8.41421 5.58579 8.75 6 8.75H10C10.4142 8.75 10.75 8.41421 10.75 8C10.75 7.58579 10.4142 7.25 10 7.25H6Z" fill="#141B34"/>
</svg>
