<svg width="24" height="24" viewBox="0 0 24 24" fill="none" xmlns="http://www.w3.org/2000/svg">
<path d="M7 2C7 1.44772 6.55228 1 6 1C5.44772 1 5 1.44772 5 2V2.44885C5.38032 2.32821 5.78554 2.24208 6.21533 2.17961C6.46328 2.14357 6.72472 2.11476 7 2.09173V2Z" fill="#141B34"/>
<path d="M19 2.44885C18.6197 2.32821 18.2145 2.24208 17.7847 2.17961C17.5367 2.14357 17.2753 2.11476 17 2.09173V2C17 1.44772 17.4477 1 18 1C18.5523 1 19 1.44772 19 2V2.44885Z" fill="#141B34"/>
<path d="M13.0288 2H10.9712C9.02294 1.99997 7.45141 1.99994 6.21533 2.17961C4.92535 2.3671 3.8568 2.76781 3.01802 3.6746C2.18949 4.57031 1.83279 5.69272 1.66416 7.04866C1.49997 8.36894 1.49998 10.0541 1.5 12.1739V12.8261C1.49998 14.9459 1.49997 16.6311 1.66416 17.9513C1.83279 19.3073 2.18949 20.4297 3.01802 21.3254C3.8568 22.2322 4.92535 22.6329 6.21533 22.8204C7.45142 23.0001 9.02293 23 10.9712 23H11.05C11.6023 23 12.05 22.5523 12.05 22C12.05 21.4477 11.6023 21 11.05 21C9.00425 21 7.57858 20.9975 6.503 20.8412C5.4647 20.6903 4.89956 20.4142 4.48622 19.9673C4.06263 19.5094 3.79327 18.8656 3.64887 17.7045C3.50182 16.5221 3.5 14.9616 3.5 12.7568V12.2432C3.5 11.3942 3.50027 10.6407 3.509 9.96751C3.51487 9.51472 3.51781 9.28833 3.66385 9.14417C3.8099 9 4.03921 9 4.49783 9H19.5021C19.9608 9 20.1901 9 20.3361 9.14416C20.4822 9.28832 20.4851 9.51471 20.491 9.96749C20.4989 10.5753 20.4999 11.2491 20.5 12.0001C20.5 12.5524 20.9478 13.0001 21.5001 13C22.0524 12.9999 22.5 12.5522 22.5 11.9999C22.4998 9.92553 22.4958 8.27198 22.3261 6.97211C22.1536 5.65047 21.7949 4.55343 20.982 3.6746C20.1432 2.76781 19.0747 2.3671 17.7847 2.17961C16.5486 1.99994 14.9771 1.99997 13.0288 2Z" fill="#141B34"/>
<path d="M21 17C21.5523 17 22 17.4477 22 18C22 18.5523 21.5523 19 21 19H13C12.4477 19 12 18.5523 12 18C12 17.4477 12.4477 17 13 17H21Z" fill="#141B34"/>
</svg>
