<svg width="24" height="24" viewBox="0 0 24 24" fill="none" xmlns="http://www.w3.org/2000/svg">
<path d="M21.0002 18.5059C21.5525 18.5059 22.0002 18.0581 22.0002 17.5059C22.0002 16.9536 21.5525 16.5059 21.0002 16.5059L16.5002 16.5059L16.5002 15.9116C16.5003 15.736 16.5005 15.5203 16.4784 15.3439L16.478 15.3405C16.4622 15.2141 16.3904 14.638 15.8248 14.3637C15.258 14.0887 14.7578 14.3907 14.6496 14.456L14.1811 14.7951C13.8053 15.0897 13.2909 15.4954 12.8998 15.8759C12.7047 16.0657 12.5035 16.283 12.3447 16.5139C12.2034 16.7191 12.0002 17.0693 12.0002 17.5C12.0002 17.9307 12.2034 18.2809 12.3447 18.4861C12.5035 18.717 12.7047 18.9343 12.8998 19.1241C13.2909 19.5046 13.8053 19.9102 14.1811 20.2049L14.6496 20.544C14.7578 20.6093 15.258 20.9113 15.8248 20.6363C16.3904 20.362 16.4622 19.7859 16.478 19.6595L16.4784 19.6561C16.5005 19.4797 16.5003 19.264 16.5002 19.0884L16.5002 18.5059H21.0002Z" fill="#141B34"/>
<path d="M13.0288 2H10.9712C9.02294 1.99997 7.45141 1.99994 6.21533 2.17961C4.92535 2.3671 3.8568 2.76781 3.01802 3.6746C2.18949 4.57031 1.83279 5.69272 1.66416 7.04866C1.49997 8.36894 1.49998 10.0541 1.5 12.1739V12.8261C1.49998 14.9459 1.49997 16.6311 1.66416 17.9513C1.83279 19.3073 2.18949 20.4297 3.01802 21.3254C3.8568 22.2322 4.92535 22.6329 6.21533 22.8204C7.45142 23.0001 9.02293 23 10.9712 23H11.05C11.6023 23 12.05 22.5523 12.05 22C12.05 21.4477 11.6023 21 11.05 21C9.00425 21 7.57858 20.9975 6.503 20.8412C5.4647 20.6903 4.89956 20.4142 4.48622 19.9673C4.06263 19.5094 3.79327 18.8656 3.64887 17.7045C3.50182 16.5221 3.5 14.9616 3.5 12.7568V12.2432C3.5 11.1847 3.50042 10.2746 3.51713 9.48363C3.52283 9.2139 3.74413 9 4.01391 9H19.986C20.2558 9 20.4771 9.21402 20.4828 9.48374C20.4955 10.0821 20.499 10.7502 20.4997 11.501V13C20.4997 13.5523 20.9475 14 21.4997 14C22.052 14 22.4997 13.5523 22.4997 13V11.499C22.4977 9.58334 22.4813 8.04001 22.3041 6.81198C22.1236 5.56147 21.7617 4.51759 20.982 3.6746C20.1432 2.76781 19.0747 2.3671 17.7847 2.17961C16.5486 1.99994 14.9771 1.99997 13.0288 2Z" fill="#141B34"/>
<path d="M7 2C7 1.44772 6.55228 1 6 1C5.44772 1 5 1.44772 5 2V2.44885C5.38032 2.32821 5.78554 2.24208 6.21533 2.17961C6.46328 2.14357 6.72472 2.11476 7 2.09173V2Z" fill="#141B34"/>
<path d="M19 2.44885C18.6197 2.32821 18.2145 2.24208 17.7847 2.17961C17.5367 2.14357 17.2753 2.11476 17 2.09173V2C17 1.44772 17.4477 1 18 1C18.5523 1 19 1.44772 19 2V2.44885Z" fill="#141B34"/>
</svg>
