<svg width="24" height="24" viewBox="0 0 24 24" fill="none" xmlns="http://www.w3.org/2000/svg">
<path d="M5.31726 1.28657C5.88395 1.40369 6.33524 1.78443 6.61564 2.28746L7.50885 3.88991C7.83786 4.48011 8.11473 4.9768 8.29554 5.40857C8.48735 5.86658 8.60126 6.31824 8.54919 6.8176C8.49711 7.31696 8.29246 7.7354 8.01029 8.14399C7.74428 8.52917 7.37088 8.95804 6.92718 9.46767L5.61417 10.9759C5.37889 11.2461 5.26124 11.3812 5.25049 11.5501C5.23974 11.719 5.33616 11.8633 5.529 12.1518C7.17259 14.6109 9.38773 16.8268 11.8488 18.4718C12.1374 18.6647 12.2816 18.7611 12.4505 18.7503C12.6194 18.7396 12.7546 18.6219 13.0248 18.3866L14.5331 17.0736C15.0427 16.6299 15.4716 16.2565 15.8568 15.9905C16.2653 15.7083 16.6838 15.5036 17.1831 15.4516C17.6825 15.3995 18.1342 15.5134 18.5922 15.7052C19.0239 15.886 19.5206 16.1629 20.1107 16.4918L21.7133 17.3851C22.2163 17.6655 22.5971 18.1168 22.7142 18.6835C22.8325 19.2561 22.658 19.8316 22.2724 20.3047C20.8735 22.021 18.6322 23.1139 16.281 22.6396C14.8358 22.348 13.4098 21.8623 11.6851 20.8732C8.2197 18.8858 5.11263 15.777 3.12755 12.3157C2.13843 10.591 1.65272 9.165 1.36118 7.71974C0.88688 5.36852 1.97971 3.12724 3.69608 1.72833C4.16911 1.34279 4.74466 1.16822 5.31726 1.28657Z" fill="#141B34"/>
<path d="M20.7068 4.70711C21.0973 4.31658 21.0973 3.68342 20.7068 3.29289C20.3163 2.90237 19.6831 2.90237 19.2926 3.29289L15.0308 7.55464L14.2687 6.79248L14.2538 6.77761C14.1982 6.7217 14.0989 6.62198 14.0009 6.54638L13.9977 6.5439C13.927 6.4891 13.5065 6.16348 12.9521 6.35815C12.3952 6.5537 12.2716 7.07546 12.2517 7.15971L12.2506 7.1645C12.2217 7.28454 12.2065 7.4246 12.1978 7.50491L12.1955 7.52625C12.1839 7.63134 12.1692 7.75347 12.153 7.88731C12.1012 8.3173 12.0348 8.86821 12.0104 9.36362C11.9942 9.69257 11.9929 10.0493 12.0364 10.3747C12.0722 10.6426 12.1617 11.0998 12.4894 11.4489C12.4991 11.4595 12.5092 11.4699 12.5195 11.4802C12.5295 11.4902 12.5396 11.5 12.5499 11.5095C12.8992 11.8381 13.3571 11.9278 13.6253 11.9636C13.9507 12.0071 14.3074 12.0058 14.6364 11.9896C15.1318 11.9652 15.6827 11.8988 16.1127 11.847C16.2465 11.8308 16.3687 11.8161 16.4737 11.8045L16.4951 11.8022C16.5754 11.7935 16.7155 11.7783 16.8355 11.7495L16.8403 11.7483C16.9245 11.7284 17.4463 11.6048 17.6419 11.0479C17.8365 10.4935 17.5109 10.073 17.4561 10.0023L17.4536 9.99908C17.378 9.90108 17.2783 9.80181 17.2224 9.74616L17.2075 9.73133L16.445 8.96886L20.7068 4.70711Z" fill="#141B34"/>
</svg>
