<svg width="24" height="24" viewBox="0 0 24 24" fill="none" xmlns="http://www.w3.org/2000/svg">
<path fill-rule="evenodd" clip-rule="evenodd" d="M21.1757 3.26285C21.5828 3.63604 21.6103 4.26861 21.2372 4.67573L15.7372 10.6757C15.5528 10.8768 15.2944 10.9938 15.0217 10.9998C14.749 11.0057 14.4858 10.9 14.2929 10.7071L11.7929 8.20711C11.4024 7.81659 11.4024 7.18342 11.7929 6.7929C12.1834 6.40237 12.8166 6.40237 13.2071 6.7929L14.9686 8.55438L19.7628 3.32428C20.136 2.91716 20.7686 2.88966 21.1757 3.26285Z" fill="#141B34"/>
<path d="M9.09121 5.05609L8.83795 4.48626C8.49683 3.71873 8.32626 3.33496 8.04556 3.06369C7.86027 2.88463 7.64223 2.74293 7.40335 2.64634C7.04146 2.5 6.6215 2.5 5.78157 2.5C4.53091 2.5 3.90558 2.5 3.41836 2.80363C3.11954 2.98986 2.83374 3.30601 2.67852 3.62206C2.42545 4.13735 2.48286 4.70507 2.59768 5.84052C3.55041 15.2623 8.73768 20.4496 18.1595 21.4023C19.2949 21.5171 19.8626 21.5745 20.3779 21.3215C20.694 21.1663 21.0101 20.8805 21.1964 20.5816C21.5 20.0944 21.5 19.4691 21.5 18.2184C21.5 17.3785 21.5 16.9585 21.3537 16.5966C21.2571 16.3578 21.1154 16.1397 20.9363 15.9544C20.665 15.6737 20.2813 15.5032 19.5137 15.162L18.9439 14.9088C18.2714 14.6099 17.9351 14.4604 17.5978 14.432C17.239 14.4018 16.8786 14.4687 16.5546 14.6257C16.2499 14.7733 15.9897 15.0335 15.4693 15.5539C14.9573 16.0659 14.7013 16.3219 14.3679 16.4727C14.0435 16.6194 13.5876 16.6818 13.2357 16.6276C12.874 16.5719 12.6082 16.4219 12.0767 16.1221C10.1922 15.0593 8.94074 13.8078 7.87787 11.9233C7.57805 11.3918 7.42815 11.126 7.37245 10.7643C7.31825 10.4124 7.38061 9.9565 7.52731 9.63208C7.67807 9.29869 7.93406 9.04269 8.44605 8.5307C8.96647 8.01029 9.22668 7.75008 9.37427 7.44543C9.53126 7.12138 9.59817 6.76105 9.56797 6.40224C9.53957 6.06491 9.39012 5.72863 9.09121 5.05609Z" fill="#141B34"/>
</svg>
