<svg width="24" height="24" viewBox="0 0 24 24" fill="none" xmlns="http://www.w3.org/2000/svg">
<path fill-rule="evenodd" clip-rule="evenodd" d="M21.2072 2.79289C21.5977 3.18342 21.5977 3.81658 21.2072 4.20711L16.9143 8.5H18.5001C19.0523 8.5 19.5001 8.94772 19.5001 9.5C19.5001 10.0523 19.0523 10.5 18.5001 10.5H14.5001C13.9478 10.5 13.5001 10.0523 13.5001 9.5V5.5C13.5001 4.94772 13.9478 4.5 14.5001 4.5C15.0523 4.5 15.5001 4.94772 15.5001 5.5V7.08579L19.793 2.79289C20.1835 2.40237 20.8166 2.40237 21.2072 2.79289Z" fill="#141B34"/>
<path d="M9.09127 5.05609L8.83802 4.48626C8.49689 3.71873 8.32632 3.33496 8.04562 3.06369C7.86033 2.88463 7.64229 2.74293 7.40341 2.64634C7.04153 2.5 6.62156 2.5 5.78163 2.5C4.53097 2.5 3.90564 2.5 3.41843 2.80363C3.1196 2.98986 2.8338 3.30601 2.67858 3.62206C2.42551 4.13735 2.48292 4.70507 2.59774 5.84052C3.55047 15.2623 8.73774 20.4496 18.1595 21.4023C19.295 21.5171 19.8627 21.5745 20.378 21.3215C20.694 21.1663 21.0102 20.8805 21.1964 20.5816C21.5001 20.0944 21.5001 19.4691 21.5001 18.2184C21.5001 17.3785 21.5001 16.9585 21.3537 16.5966C21.2571 16.3578 21.1154 16.1397 20.9364 15.9544C20.6651 15.6737 20.2813 15.5032 19.5138 15.162L18.944 14.9088C18.2714 14.6099 17.9352 14.4604 17.5978 14.432C17.239 14.4018 16.8787 14.4687 16.5546 14.6257C16.25 14.7733 15.9898 15.0335 15.4694 15.5539C14.9574 16.0659 14.7014 16.3219 14.368 16.4727C14.0436 16.6194 13.5876 16.6818 13.2357 16.6276C12.8741 16.5719 12.6083 16.4219 12.0767 16.1221C10.1923 15.0593 8.9408 13.8078 7.87793 11.9233C7.57812 11.3918 7.42821 11.126 7.37251 10.7643C7.31831 10.4124 7.38067 9.9565 7.52737 9.63208C7.67813 9.29869 7.93412 9.04269 8.44612 8.5307C8.96653 8.01029 9.22674 7.75008 9.37433 7.44543C9.53132 7.12138 9.59823 6.76105 9.56803 6.40224C9.53964 6.06491 9.39018 5.72863 9.09127 5.05609Z" fill="#141B34"/>
</svg>
