<svg width="24" height="24" viewBox="0 0 24 24" fill="none" xmlns="http://www.w3.org/2000/svg">
<path fill-rule="evenodd" clip-rule="evenodd" d="M17.293 2.79289C17.6835 2.40237 18.3167 2.40237 18.7072 2.79289L21.2072 5.29289C21.5978 5.68342 21.5978 6.31658 21.2072 6.70711L18.7072 9.20711C18.3167 9.59763 17.6835 9.59763 17.293 9.20711C16.9025 8.81658 16.9025 8.18342 17.293 7.79289L18.0859 7H13.5001C12.9478 7 12.5001 6.55228 12.5001 6C12.5001 5.44772 12.9478 5 13.5001 5H18.0859L17.293 4.20711C16.9025 3.81658 16.9025 3.18342 17.293 2.79289Z" fill="#141B34"/>
<path d="M9.09133 5.05609L8.83808 4.48626C8.49695 3.71873 8.32638 3.33496 8.04568 3.06369C7.8604 2.88463 7.64236 2.74293 7.40348 2.64634C7.04159 2.5 6.62162 2.5 5.78169 2.5C4.53103 2.5 3.90571 2.5 3.41849 2.80363C3.11966 2.98986 2.83386 3.30601 2.67865 3.62206C2.42557 4.13735 2.48298 4.70507 2.5978 5.84052C3.55053 15.2623 8.7378 20.4496 18.1596 21.4023C19.295 21.5171 19.8628 21.5745 20.3781 21.3215C20.6941 21.1663 21.0103 20.8805 21.1965 20.5816C21.5001 20.0944 21.5001 19.4691 21.5001 18.2184C21.5001 17.3785 21.5001 16.9585 21.3538 16.5966C21.2572 16.3578 21.1155 16.1397 20.9364 15.9544C20.6652 15.6737 20.2814 15.5032 19.5139 15.162L18.944 14.9088C18.2715 14.6099 17.9352 14.4604 17.5979 14.432C17.2391 14.4018 16.8787 14.4687 16.5547 14.6257C16.25 14.7733 15.9898 15.0335 15.4694 15.5539C14.9574 16.0659 14.7014 16.3219 14.368 16.4727C14.0436 16.6194 13.5877 16.6818 13.2358 16.6276C12.8742 16.5719 12.6084 16.4219 12.0768 16.1221C10.1923 15.0593 8.94086 13.8078 7.87799 11.9233C7.57818 11.3918 7.42827 11.126 7.37257 10.7643C7.31837 10.4124 7.38073 9.9565 7.52743 9.63208C7.67819 9.29869 7.93418 9.04269 8.44618 8.5307C8.96659 8.01029 9.2268 7.75008 9.37439 7.44543C9.53139 7.12138 9.59829 6.76105 9.56809 6.40224C9.5397 6.06491 9.39024 5.72863 9.09133 5.05609Z" fill="#141B34"/>
</svg>
