<svg width="24" height="24" viewBox="0 0 24 24" fill="none" xmlns="http://www.w3.org/2000/svg">
<path d="M5.19226 1.28657C5.75895 1.40369 6.21024 1.78443 6.49064 2.28746L7.38385 3.88991C7.71286 4.48011 7.98973 4.9768 8.17054 5.40857C8.36235 5.86658 8.47626 6.31824 8.42419 6.8176C8.37211 7.31696 8.16746 7.7354 7.88529 8.14399C7.61928 8.52917 7.24588 8.95804 6.80218 9.46767L5.48917 10.9759C5.25389 11.2461 5.13624 11.3812 5.12549 11.5501C5.11474 11.719 5.21116 11.8633 5.404 12.1518C7.04759 14.6109 9.26273 16.8268 11.7238 18.4718C12.0124 18.6647 12.1566 18.7611 12.3255 18.7503C12.4944 18.7396 12.6296 18.6219 12.8998 18.3866L14.4081 17.0736C14.9177 16.6299 15.3466 16.2565 15.7318 15.9905C16.1403 15.7083 16.5588 15.5036 17.0581 15.4516C17.5575 15.3995 18.0092 15.5134 18.4672 15.7052C18.8989 15.886 19.3956 16.1629 19.9857 16.4918L21.5883 17.3851C22.0913 17.6655 22.4721 18.1168 22.5892 18.6835C22.7075 19.2561 22.533 19.8316 22.1474 20.3047C20.7485 22.021 18.5072 23.1139 16.156 22.6396C14.7108 22.348 13.2848 21.8623 11.5601 20.8732C8.0947 18.8858 4.98763 15.777 3.00255 12.3157C2.01343 10.591 1.52772 9.165 1.23618 7.71974C0.76188 5.36852 1.85471 3.12724 3.57108 1.72833C4.04411 1.34279 4.61966 1.16822 5.19226 1.28657Z" fill="#141B34"/>
<path d="M19.4559 2.2568C19.8664 1.88729 20.4987 1.92049 20.8682 2.33095C20.9126 2.38031 21.0185 2.47838 21.2158 2.65547L21.2584 2.69368C21.427 2.84497 21.6321 3.02893 21.8284 3.21903C22.0381 3.42205 22.2688 3.66149 22.4532 3.90892C22.6022 4.10884 22.875 4.50898 22.875 5.00001C22.875 5.49103 22.6022 5.89117 22.4532 6.09109C22.2688 6.33853 22.0381 6.57797 21.8284 6.78098C21.6321 6.9711 21.427 7.15509 21.2583 7.30639L21.2158 7.34455C21.0185 7.52164 20.9126 7.61971 20.8682 7.66906C20.4987 8.07953 19.8664 8.11273 19.4559 7.74322C19.2367 7.54584 19.1251 7.27348 19.125 7V6.00001H14.625V7C14.6249 7.27348 14.5133 7.54584 14.2941 7.74322C13.8836 8.11273 13.2513 8.07953 12.8818 7.66906C12.8374 7.61971 12.7315 7.52164 12.5342 7.34455L12.4917 7.30637C12.323 7.15508 12.1179 6.9711 11.9216 6.78098C11.7119 6.57797 11.4812 6.33853 11.2968 6.09109C11.1478 5.89117 10.875 5.49103 10.875 5.00001C10.875 4.50898 11.1478 4.10884 11.2968 3.90892C11.4812 3.66149 11.7119 3.42205 11.9216 3.21903C12.1179 3.02892 12.323 2.84495 12.4917 2.69366L12.5342 2.65547C12.7315 2.47838 12.8374 2.38031 12.8818 2.33095C13.2513 1.92049 13.8836 1.88729 14.2941 2.2568C14.5135 2.45433 14.6251 2.72697 14.625 3.00066V4.00001L19.125 4.00001V3C19.1251 2.72653 19.2367 2.45417 19.4559 2.2568Z" fill="#141B34"/>
</svg>
