<svg width="24" height="24" viewBox="0 0 24 24" fill="none" xmlns="http://www.w3.org/2000/svg">
<path fill-rule="evenodd" clip-rule="evenodd" d="M16.7071 2.79289C17.0977 3.18342 17.0977 3.81658 16.7071 4.20711L15.9142 5H17.5C19.7092 5 21.5 6.79086 21.5 9V11.5C21.5 12.0523 21.0523 12.5 20.5 12.5C19.9477 12.5 19.5 12.0523 19.5 11.5V9C19.5 7.89543 18.6046 7 17.5 7H15.9142L16.7071 7.79289C17.0977 8.18342 17.0977 8.81658 16.7071 9.20711C16.3166 9.59763 15.6834 9.59763 15.2929 9.20711L12.7929 6.70711C12.4024 6.31658 12.4024 5.68342 12.7929 5.29289L15.2929 2.79289C15.6834 2.40237 16.3166 2.40237 16.7071 2.79289Z" fill="#141B34"/>
<path d="M9.09124 5.05609L8.83799 4.48626C8.49686 3.71873 8.32629 3.33496 8.04559 3.06369C7.8603 2.88463 7.64226 2.74293 7.40338 2.64634C7.04149 2.5 6.62153 2.5 5.7816 2.5C4.53094 2.5 3.90561 2.5 3.4184 2.80363C3.11957 2.98986 2.83377 3.30601 2.67855 3.62206C2.42548 4.13735 2.48289 4.70507 2.59771 5.84052C3.55044 15.2623 8.73771 20.4496 18.1595 21.4023C19.295 21.5171 19.8627 21.5745 20.378 21.3215C20.694 21.1663 21.0102 20.8805 21.1964 20.5816C21.5 20.0944 21.5 19.4691 21.5 18.2184C21.5 17.3785 21.5 16.9585 21.3537 16.5966C21.2571 16.3578 21.1154 16.1397 20.9363 15.9544C20.6651 15.6737 20.2813 15.5032 19.5138 15.162L18.9439 14.9088C18.2714 14.6099 17.9351 14.4604 17.5978 14.432C17.239 14.4018 16.8787 14.4687 16.5546 14.6257C16.25 14.7733 15.9897 15.0335 15.4693 15.5539C14.9573 16.0659 14.7013 16.3219 14.3679 16.4727C14.0435 16.6194 13.5876 16.6818 13.2357 16.6276C12.8741 16.5719 12.6083 16.4219 12.0767 16.1221C10.1922 15.0593 8.94077 13.8078 7.8779 11.9233C7.57808 11.3918 7.42818 11.126 7.37248 10.7643C7.31828 10.4124 7.38064 9.9565 7.52734 9.63208C7.6781 9.29869 7.93409 9.04269 8.44608 8.5307C8.9665 8.01029 9.22671 7.75008 9.3743 7.44543C9.53129 7.12138 9.5982 6.76105 9.568 6.40224C9.53961 6.06491 9.39015 5.72863 9.09124 5.05609Z" fill="#141B34"/>
</svg>
