<svg width="24" height="24" viewBox="0 0 24 24" fill="none" xmlns="http://www.w3.org/2000/svg">
<path fill-rule="evenodd" clip-rule="evenodd" d="M12.0314 1.25H11.9686H11.9686C11.3645 1.24999 10.8644 1.24998 10.4515 1.28515C10.0188 1.32201 9.62775 1.40069 9.25059 1.58742C8.57866 1.92009 8.15388 2.44877 7.85567 2.979C7.62451 3.39004 7.44502 3.85184 7.2929 4.2432C7.25701 4.33554 7.22264 4.42397 7.18947 4.50689L7.0431 4.87283C6.97009 5.05536 6.93358 5.14662 6.85754 5.19819C6.78151 5.24975 6.68298 5.24991 6.48592 5.25022C5.60137 5.2516 4.93626 5.26171 4.40786 5.33452C3.72467 5.42866 3.23063 5.63092 2.71715 6.02493C2.45715 6.22443 2.22443 6.45715 2.02493 6.71715C1.59808 7.27343 1.41725 7.92195 1.33222 8.67622C1.24998 9.4057 1.24999 10.3204 1.25 11.4548V11.4548V16.0549V16.0549C1.24998 17.4225 1.24997 18.5248 1.36653 19.3918C1.48754 20.2919 1.74644 21.0497 2.34835 21.6517C2.95027 22.2536 3.70814 22.5125 4.60825 22.6335C5.47522 22.75 6.57754 22.75 7.94513 22.75H16.0549C17.4225 22.75 18.5248 22.75 19.3918 22.6335C20.2919 22.5125 21.0497 22.2536 21.6517 21.6517C22.2536 21.0497 22.5125 20.2919 22.6335 19.3918C22.75 18.5248 22.75 17.4225 22.75 16.0549V11.4548C22.75 10.3204 22.75 9.40571 22.6678 8.67622C22.5828 7.92195 22.4019 7.27343 21.9751 6.71715C21.7756 6.45715 21.5429 6.22443 21.2829 6.02493C20.7694 5.63092 20.2753 5.42866 19.5921 5.33452C19.0637 5.26171 18.3986 5.2516 17.5141 5.25022C17.317 5.24991 17.2185 5.24975 17.1425 5.19819C17.0664 5.14662 17.0299 5.05536 16.9569 4.87283L16.8105 4.50689C16.7774 4.42396 16.743 4.33553 16.7071 4.24318C16.555 3.85182 16.3755 3.39004 16.1443 2.979C15.8461 2.44877 15.4214 1.92009 14.7494 1.58742C14.3723 1.40069 13.9812 1.32201 13.5485 1.28515C13.1356 1.24998 12.6355 1.24999 12.0314 1.25H12.0314ZM9 10.5C8.44772 10.5 8 10.9477 8 11.5C8 12.0523 8.44772 12.5 9 12.5H9.00897C9.56125 12.5 10.009 12.0523 10.009 11.5C10.009 10.9477 9.56125 10.5 9.00897 10.5H9ZM14.991 10.5C14.4387 10.5 13.991 10.9477 13.991 11.5C13.991 12.0523 14.4387 12.5 14.991 12.5H15C15.5523 12.5 16 12.0523 16 11.5C16 10.9477 15.5523 10.5 15 10.5H14.991ZM10.288 14.7532C9.87701 14.3871 9.24699 14.422 8.8789 14.8318C8.50989 15.2428 8.54386 15.875 8.95477 16.244L8.95662 16.2457L8.95889 16.2477L8.96471 16.2529L8.98135 16.2674C8.99463 16.2789 9.01231 16.294 9.03413 16.3121C9.07772 16.3483 9.13822 16.397 9.21369 16.4541C9.36378 16.5675 9.57762 16.7172 9.83935 16.8674C10.345 17.1575 11.1165 17.5 11.9951 17.5C12.8736 17.5 13.6451 17.1575 14.1508 16.8674L14.1536 16.8657C14.4151 16.7157 14.7723 16.5107 15.0353 16.244C15.4463 15.875 15.4802 15.2428 15.1112 14.8318C14.7431 14.422 14.1131 14.3871 13.7021 14.7532L13.7005 14.7547L13.6975 14.7573L13.6778 14.7738C13.6556 14.7923 13.6192 14.8217 13.5706 14.8584C13.4726 14.9325 13.3294 15.0328 13.1554 15.1326C12.7896 15.3425 12.3751 15.5 11.9951 15.5C11.615 15.5 11.2005 15.3425 10.8347 15.1326C10.6607 15.0328 10.5175 14.9325 10.4195 14.8584C10.3709 14.8217 10.3346 14.7923 10.3123 14.7738C10.3013 14.7646 10.2938 14.7582 10.2901 14.7551L10.288 14.7532Z" fill="#141B34"/>
</svg>
