<svg width="24" height="24" viewBox="0 0 24 24" fill="none" xmlns="http://www.w3.org/2000/svg">
<path d="M9.17361 11.1731L3.96267 5.96212C3.86698 5.86644 3.71845 5.84572 3.60482 5.91921C2.95763 6.3378 2.43288 6.9301 2.09258 7.63484C1.89241 8.04939 1.79049 8.49473 1.72303 9.01191C1.65726 9.51609 1.6189 10.1382 1.5709 10.9166L1.41085 13.5117C1.29098 15.4551 1.19625 16.9909 1.28469 18.1953C1.37551 19.4323 1.66555 20.4411 2.41353 21.248C3.16298 22.0565 4.14282 22.4148 5.36028 22.5845C6.54301 22.7494 8.06311 22.7494 9.98273 22.7493H14.017C15.9366 22.7494 17.4567 22.7494 18.6395 22.5845C19.0416 22.5284 19.4179 22.4518 19.7685 22.3451C19.974 22.2826 20.0271 22.0265 19.8752 21.8746L14.8305 16.8299C14.1067 17.5527 13.1075 17.9996 12.0039 17.9996C9.79477 17.9996 8.00391 16.2088 8.00391 13.9996C8.00391 12.896 8.45085 11.8968 9.17361 11.1731Z" fill="#141B34"/>
<path fill-rule="evenodd" clip-rule="evenodd" d="M12.0307 1.25085C12.6347 1.25085 13.1348 1.25084 13.5477 1.28601C13.9805 1.32286 14.3715 1.40154 14.7487 1.58827C15.4206 1.92094 15.8454 2.44962 16.1436 2.97986C16.3747 3.39089 16.5542 3.85267 16.7063 4.24403C16.8129 4.51817 16.923 4.79088 17.0322 5.06396C17.0776 5.17744 17.1874 5.25194 17.3096 5.25285C18.3325 5.2605 19.0853 5.3006 19.7406 5.57564C21.1881 6.18319 22.0777 7.49363 22.2759 9.0134C22.3417 9.51761 22.3801 10.1398 22.4281 10.9182L22.5881 13.5132C22.708 15.4566 22.8027 16.9923 22.7143 18.1968C22.659 18.9493 22.53 19.6174 22.2691 20.207C22.1889 20.3881 21.954 20.4201 21.8139 20.2801L16.2933 14.7595C16.1577 14.6238 16.0899 14.556 16.0531 14.48C16.0435 14.4602 16.0381 14.4473 16.0309 14.4265C16.0031 14.3467 16.0031 14.2315 16.0031 14.0011C16.0031 11.792 14.2123 10.0011 12.0031 10.0011C11.7727 10.0011 11.6576 10.0011 11.5778 9.97334C11.557 9.96611 11.5441 9.96077 11.5243 9.95118C11.4482 9.91438 11.3804 9.84658 11.2448 9.71096L7.32896 5.79513C7.0962 5.56238 6.97983 5.446 6.95037 5.29683C6.92091 5.14767 6.9859 4.99198 7.11587 4.6806C7.17631 4.53581 7.23526 4.39038 7.29213 4.24406C7.44425 3.85269 7.62374 3.3909 7.85491 2.97986C8.15311 2.44962 8.57789 1.92094 9.24982 1.58827C9.62699 1.40154 10.018 1.32286 10.4508 1.28601C10.9755 1.24131 11.5045 1.25085 12.0307 1.25085ZM10.9992 6.0011C10.9992 5.44881 11.4469 5.0011 11.9992 5.0011H12.0082C12.5605 5.0011 13.0082 5.44881 13.0082 6.0011C13.0082 6.55338 12.5605 7.0011 12.0082 7.0011H11.9992C11.4469 7.0011 10.9992 6.55338 10.9992 6.0011Z" fill="#141B34"/>
<path fill-rule="evenodd" clip-rule="evenodd" d="M0.292893 2.29289C0.683417 1.90237 1.31658 1.90237 1.70711 2.29289L21.7071 22.2929C22.0976 22.6834 22.0976 23.3166 21.7071 23.7071C21.3166 24.0976 20.6834 24.0976 20.2929 23.7071L0.292893 3.70711C-0.0976311 3.31658 -0.0976311 2.68342 0.292893 2.29289Z" fill="#141B34"/>
</svg>
