<svg width="24" height="24" viewBox="0 0 24 24" fill="none" xmlns="http://www.w3.org/2000/svg">
<path fill-rule="evenodd" clip-rule="evenodd" d="M11.9705 1.25H12.0334H12.0334C12.6375 1.24999 13.1375 1.24998 13.5504 1.28515C13.9832 1.32201 14.3742 1.40069 14.7514 1.58742C15.4233 1.92009 15.8481 2.44877 16.1463 2.979C16.3775 3.39004 16.5569 3.85182 16.7091 4.24318C16.7449 4.33553 16.7793 4.42396 16.8125 4.50689L17.1101 5.25086C18.2373 5.25543 19.0456 5.28193 19.7434 5.57479C20.6912 5.97261 21.4604 6.70632 21.9091 7.63547C22.1093 8.05002 22.2112 8.49536 22.2787 9.01254C22.3444 9.51676 22.3828 10.1389 22.4308 10.9174L22.5908 13.5123C22.7107 15.4557 22.8054 16.9915 22.717 18.196C22.6262 19.4329 22.3361 20.4418 21.5882 21.2486C20.8387 22.0571 19.8589 22.4154 18.6414 22.5851C17.4587 22.75 15.9386 22.75 14.0189 22.75H9.98469C8.06507 22.75 6.54496 22.75 5.36223 22.5851C4.14477 22.4154 3.16493 22.0571 2.41548 21.2486C1.66751 20.4418 1.37747 19.4329 1.28665 18.196C1.19821 16.9915 1.29294 15.4557 1.41281 13.5123L1.57285 10.9172C1.62085 10.1388 1.65922 9.51672 1.72498 9.01254C1.79244 8.49536 1.89437 8.05002 2.09454 7.63547C2.54319 6.70632 3.31248 5.97261 4.26029 5.57479C4.95809 5.2819 5.76651 5.25543 6.89384 5.25086L7.19143 4.50689C7.2246 4.42397 7.25897 4.33554 7.29486 4.2432L7.29486 4.2432L7.29487 4.24317C7.44698 3.85181 7.62646 3.39003 7.85763 2.979C8.15583 2.44877 8.58061 1.92009 9.25254 1.58742C9.62971 1.40069 10.0207 1.32201 10.4535 1.28515C10.8664 1.24998 11.3665 1.24999 11.9705 1.25H11.9705ZM11.0039 6C11.0039 5.44772 11.4516 5 12.0039 5H12.0129C12.5652 5 13.0129 5.44772 13.0129 6C13.0129 6.55229 12.5652 7 12.0129 7H12.0039C11.4516 7 11.0039 6.55229 11.0039 6ZM13 11C13 10.4477 12.5523 10 12 10C11.4477 10 11 10.4477 11 11V13.5H8.5C7.94772 13.5 7.5 13.9477 7.5 14.5C7.5 15.0523 7.94772 15.5 8.5 15.5H11V18C11 18.5523 11.4477 19 12 19C12.5523 19 13 18.5523 13 18V15.5H15.5C16.0523 15.5 16.5 15.0523 16.5 14.5C16.5 13.9477 16.0523 13.5 15.5 13.5H13V11Z" fill="#141B34"/>
</svg>
