<svg width="24" height="24" viewBox="0 0 24 24" fill="none" xmlns="http://www.w3.org/2000/svg">
<path fill-rule="evenodd" clip-rule="evenodd" d="M12.0314 1.25H11.9686H11.9686C11.3645 1.24999 10.8644 1.24998 10.4515 1.28515C10.0188 1.32201 9.62775 1.40069 9.25059 1.58742C8.57866 1.92009 8.15388 2.44877 7.85567 2.979C7.62451 3.39004 7.44502 3.85183 7.2929 4.2432L7.2929 4.2432C7.25701 4.33554 7.22264 4.42397 7.18947 4.50689L6.89188 5.25086C5.76456 5.25543 4.95614 5.2819 4.25833 5.57479C3.31053 5.97261 2.54124 6.70632 2.09258 7.63547C1.89241 8.05002 1.79049 8.49536 1.72303 9.01254C1.65726 9.51672 1.6189 10.1388 1.5709 10.9172L1.41085 13.5123C1.29098 15.4557 1.19625 16.9915 1.28469 18.196C1.37551 19.4329 1.66555 20.4418 2.41353 21.2486C3.16298 22.0571 4.14282 22.4154 5.36028 22.5851C6.54301 22.75 8.06311 22.75 9.98273 22.75H14.017C15.9366 22.75 17.4567 22.75 18.6395 22.5851C19.8569 22.4154 20.8368 22.0571 21.5862 21.2486C22.3342 20.4418 22.6242 19.4329 22.715 18.196C22.8035 16.9915 22.7087 15.4557 22.5889 13.5123L22.4288 10.9174C22.3808 10.1389 22.3425 9.51676 22.2767 9.01254C22.2092 8.49536 22.1073 8.05002 21.9071 7.63547C21.4585 6.70632 20.6892 5.97261 19.7414 5.57479C19.0437 5.28193 18.2353 5.25543 17.1081 5.25086L16.8105 4.50689C16.7774 4.42396 16.743 4.33553 16.7071 4.24318C16.555 3.85182 16.3755 3.39004 16.1443 2.979C15.8461 2.44877 15.4213 1.92009 14.7494 1.58742C14.3723 1.40069 13.9812 1.32201 13.5485 1.28515C13.1356 1.24998 12.6355 1.24999 12.0314 1.25H12.0314ZM14.5003 12.0001V10C14.5003 8.61929 13.381 7.5 12.0003 7.5C10.6196 7.5 9.50029 8.61929 9.50029 10V12.0001C9.50029 13.3808 10.6196 14.5001 12.0003 14.5001C13.381 14.5001 14.5003 13.3808 14.5003 12.0001ZM9.35552 14.482C9.06943 14.0096 8.45454 13.8585 7.98213 14.1446C7.50973 14.4307 7.35868 15.0456 7.64477 15.518C8.37498 16.7238 9.57861 17.6124 11.0001 17.9002V19C11.0001 19.5523 11.4479 20 12.0001 20C12.5524 20 13.0001 19.5523 13.0001 19V17.9002C14.4217 17.6124 15.6253 16.7238 16.3555 15.518C16.6416 15.0456 16.4906 14.4307 16.0182 14.1446C15.5457 13.8585 14.9309 14.0096 14.6448 14.482C14.0866 15.4037 13.1046 16 12.0001 16C10.8957 16 9.91373 15.4037 9.35552 14.482Z" fill="#141B34"/>
</svg>
