<svg width="24" height="24" viewBox="0 0 24 24" fill="none" xmlns="http://www.w3.org/2000/svg">
<path fill-rule="evenodd" clip-rule="evenodd" d="M11.9666 1.25H12.0295H12.0295C12.6335 1.24999 13.1336 1.24998 13.5465 1.28515C13.9793 1.32201 14.3703 1.40069 14.7475 1.58742C15.4194 1.92009 15.8442 2.44877 16.1424 2.979C16.3735 3.39004 16.553 3.85182 16.7051 4.24318C16.741 4.33553 16.7754 4.42396 16.8086 4.50689L16.956 4.87534C17.0285 5.0566 17.0647 5.14722 17.1397 5.19869C17.2146 5.25016 17.3133 5.25145 17.5106 5.25403C18.4319 5.26608 19.1281 5.31819 19.7394 5.57479C20.6872 5.97261 21.4565 6.70632 21.9052 7.63547C22.1054 8.05002 22.2073 8.49536 22.2747 9.01254C22.3405 9.51676 22.3789 10.1389 22.4269 10.9174L22.5869 13.5123C22.7068 15.4557 22.8015 16.9915 22.7131 18.196C22.6223 19.4329 22.3322 20.4418 21.5842 21.2486C20.8348 22.0571 19.855 22.4154 18.6375 22.5851C17.4548 22.75 15.9347 22.75 14.015 22.75H9.98078C8.06116 22.75 6.54105 22.75 5.35833 22.5851C4.14086 22.4154 3.16102 22.0571 2.41158 21.2486C1.6636 20.4418 1.37356 19.4329 1.28274 18.196C1.1943 16.9915 1.28903 15.4557 1.4089 13.5123L1.56895 10.9172C1.61695 10.1388 1.65531 9.51672 1.72108 9.01254C1.78854 8.49536 1.89046 8.05002 2.09063 7.63547C2.53929 6.70632 3.30858 5.97261 4.25638 5.57479C4.86778 5.31817 5.56411 5.26607 6.48546 5.25403C6.68279 5.25145 6.78146 5.25016 6.85642 5.19869C6.93139 5.14722 6.96764 5.0566 7.04014 4.87534L7.18752 4.50689C7.22069 4.42397 7.25506 4.33554 7.29095 4.2432L7.29095 4.2432L7.29096 4.24317C7.44307 3.85181 7.62256 3.39003 7.85372 2.979C8.15192 2.44877 8.5767 1.92009 9.24864 1.58742C9.6258 1.40069 10.0168 1.32201 10.4496 1.28515C10.8625 1.24998 11.3625 1.24999 11.9666 1.25H11.9666ZM11 6C11 5.44772 11.4457 5 11.9955 5C12.5414 5 13 5.44791 13 6C13 6.55209 12.5414 7 11.9955 7C11.4457 7 11 6.55229 11 6ZM12 10C9.79086 10 8 11.7909 8 14C8 16.2091 9.79086 18 12 18C14.2091 18 16 16.2091 16 14C16 11.7909 14.2091 10 12 10Z" fill="#141B34"/>
</svg>
