<svg width="24" height="24" viewBox="0 0 24 24" fill="none" xmlns="http://www.w3.org/2000/svg">
<path fill-rule="evenodd" clip-rule="evenodd" d="M11.9686 1.25H12.0314H12.0314C12.6355 1.24999 13.1356 1.24998 13.5485 1.28515C13.9812 1.32201 14.3723 1.40069 14.7494 1.58742C15.4213 1.92009 15.8461 2.44877 16.1443 2.979C16.3755 3.39004 16.555 3.85182 16.7071 4.24318C16.743 4.33553 16.7774 4.42396 16.8105 4.50689L17.1081 5.25086C18.2353 5.25543 19.0437 5.28193 19.7414 5.57479C20.6892 5.97261 21.4585 6.70632 21.9071 7.63547C22.1073 8.05002 22.2092 8.49536 22.2767 9.01254C22.3425 9.51676 22.3808 10.1389 22.4288 10.9174L22.5889 13.5123C22.7087 15.4557 22.8035 16.9915 22.715 18.196C22.6242 19.4329 22.3342 20.4418 21.5862 21.2486C20.8368 22.0571 19.8569 22.4154 18.6395 22.5851C17.4567 22.75 15.9366 22.75 14.017 22.75H9.98273C8.06311 22.75 6.54301 22.75 5.36028 22.5851C4.14282 22.4154 3.16298 22.0571 2.41353 21.2486C1.66555 20.4418 1.37551 19.4329 1.28469 18.196C1.19625 16.9915 1.29098 15.4557 1.41085 13.5123L1.5709 10.9172C1.6189 10.1388 1.65726 9.51672 1.72303 9.01254C1.79049 8.49536 1.89241 8.05002 2.09258 7.63547C2.54124 6.70632 3.31053 5.97261 4.25833 5.57479C4.95614 5.2819 5.76456 5.25543 6.89188 5.25086L7.18947 4.50689C7.22264 4.42397 7.25701 4.33554 7.2929 4.2432L7.2929 4.2432L7.29291 4.24317C7.44503 3.85181 7.62451 3.39003 7.85567 2.979C8.15388 2.44877 8.57866 1.92009 9.25059 1.58742C9.62775 1.40069 10.0188 1.32201 10.4515 1.28515C10.8644 1.24998 11.3645 1.24999 11.9686 1.25H11.9686ZM11.002 6C11.002 5.44772 11.4497 5 12.002 5H12.0109C12.5632 5 13.0109 5.44772 13.0109 6C13.0109 6.55229 12.5632 7 12.0109 7H12.002C11.4497 7 11.002 6.55229 11.002 6ZM12.7475 10.9181C12.6221 10.62 12.328 10.4258 12.002 10.4258C11.6759 10.4258 11.3818 10.62 11.2564 10.9181L9.34042 15.4729C9.33546 15.484 9.33074 15.4952 9.32628 15.5065L8.56429 17.3179C8.39273 17.7257 8.58744 18.1941 8.99918 18.364C9.41091 18.534 9.88377 18.3411 10.0553 17.9333L10.6174 16.597H13.3865L13.9486 17.9333C14.1201 18.3411 14.593 18.534 15.0047 18.364C15.4165 18.1941 15.6112 17.7257 15.4396 17.3179L14.6776 15.5065C14.6732 15.4952 14.6684 15.4839 14.6635 15.4729L12.7475 10.9181ZM12.002 13.3057L12.7134 14.9971H11.2905L12.002 13.3057Z" fill="#141B34"/>
</svg>
