<svg width="24" height="24" viewBox="0 0 24 24" fill="none" xmlns="http://www.w3.org/2000/svg">
<path fill-rule="evenodd" clip-rule="evenodd" d="M15.8568 3.31738C15.2369 3.24998 14.4757 3.24999 13.5416 3.25H13.5416H10.4584H10.4584C9.52428 3.24999 8.76304 3.24998 8.14319 3.31738C7.49592 3.38776 6.93382 3.53717 6.41986 3.87981C5.9059 4.22245 5.55179 4.68385 5.23787 5.25426C4.93724 5.80052 4.64447 6.50319 4.28522 7.36543L3.67855 8.82143L2.44998 7.9C2.11861 7.65147 1.64851 7.71863 1.39998 8.05C1.15145 8.38137 1.21861 8.85147 1.54998 9.1L2.98239 10.1743L2.65643 10.6632L2.65642 10.6632C2.04984 11.5727 1.65801 12.1602 1.4538 12.8346C1.24958 13.5091 1.24973 14.2153 1.24997 15.3085L1.24998 20C1.24998 20.4142 1.58577 20.75 1.99998 20.75H4.24994C4.66415 20.75 4.99994 20.4142 4.99994 20V19C4.99994 18.5074 5.00153 18.2134 5.02986 18.0027C5.0446 17.8383 5.1845 17.7857 5.2526 17.7799C5.46333 17.7516 6.50738 17.75 6.99998 17.75H17C17.4926 17.75 18.5366 17.7516 18.7473 17.7799C18.8156 17.7902 18.9559 17.8493 18.97 18.0027C18.9983 18.2134 18.9999 18.5074 18.9999 19V20C18.9999 20.4142 19.3357 20.75 19.7499 20.75H22C22.4142 20.75 22.75 20.4142 22.75 20L22.75 15.3085C22.7502 14.2153 22.7504 13.5091 22.5462 12.8346C22.342 12.1602 21.9501 11.5727 21.3435 10.6632L21.0176 10.1743L22.45 9.1C22.7814 8.85147 22.8485 8.38137 22.6 8.05C22.3515 7.71863 21.8814 7.65147 21.55 7.9L20.3214 8.82143L19.7147 7.36537L19.7147 7.36531L19.7146 7.36516C19.3554 6.50306 19.0627 5.80045 18.7621 5.25426C18.4482 4.68385 18.0941 4.22245 17.5801 3.87981C17.0661 3.53717 16.504 3.38776 15.8568 3.31738ZM6.11878 9.75L5.02728 9.48381L5.65355 7.98077C6.03269 7.07084 6.295 6.44397 6.55172 5.97748C6.79961 5.52706 7.00982 5.2891 7.25163 5.12789C7.49344 4.96668 7.79395 4.86416 8.30506 4.80859C8.83441 4.75103 9.51395 4.75 10.4997 4.75H13.4997C14.4855 4.75 15.165 4.75103 15.6943 4.80859C16.2055 4.86416 16.506 4.96668 16.7478 5.12789C16.9896 5.2891 17.1998 5.52706 17.4477 5.97748C17.7044 6.44397 17.9667 7.07084 18.3459 7.98077L18.9721 9.48381L17.9165 9.75H6.11878ZM17.9999 13C18.5522 13 18.9999 13.4477 18.9999 14V14.01C18.9999 14.5623 18.5522 15.01 17.9999 15.01C17.4477 15.01 16.9999 14.5623 16.9999 14.01V14C16.9999 13.4477 17.4477 13 17.9999 13ZM6.99994 14C6.99994 13.4477 6.55222 13 5.99994 13C5.44765 13 4.99994 13.4477 4.99994 14V14.01C4.99994 14.5623 5.44765 15.01 5.99994 15.01C6.55222 15.01 6.99994 14.5623 6.99994 14.01V14Z" fill="#141B34"/>
</svg>
