<svg width="24" height="24" viewBox="0 0 24 24" fill="none" xmlns="http://www.w3.org/2000/svg">
<path fill-rule="evenodd" clip-rule="evenodd" d="M22.6025 15.8467C22.5134 15.75 22.3642 15.75 22.0657 15.75L1.93356 15.75C1.63509 15.75 1.48586 15.75 1.39675 15.8467C1.30764 15.9434 1.31952 16.0889 1.3433 16.3801C1.35229 16.4901 1.36213 16.5977 1.37292 16.7028C1.49834 17.9247 1.75794 18.9087 2.33675 19.7497C2.68895 20.2613 3.1164 20.713 3.6043 21.0872C4.41203 21.7066 5.36091 21.9853 6.53168 22.1191C7.67602 22.25 9.1175 22.25 10.9521 22.25H13.0472C14.8818 22.25 16.3233 22.25 17.4676 22.1191C18.6384 21.9853 19.5872 21.7066 20.395 21.0872C20.8829 20.713 21.3103 20.2613 21.6625 19.7497C22.2413 18.9087 22.5009 17.9247 22.6264 16.7028C22.6371 16.5977 22.647 16.4901 22.656 16.3801C22.6798 16.0889 22.6916 15.9434 22.6025 15.8467ZM7.00001 18C6.44772 18 6.00001 18.4477 6.00001 19C6.00001 19.5523 6.44772 20 7.00001 20H7.00897C7.56125 20 8.00897 19.5523 8.00897 19C8.00897 18.4477 7.56125 18 7.00897 18H7.00001ZM10.991 18C10.4388 18 9.99104 18.4477 9.99104 19C9.99104 19.5523 10.4388 20 10.991 20H11C11.5523 20 12 19.5523 12 19C12 18.4477 11.5523 18 11 18H10.991Z" fill="#141B34"/>
<path fill-rule="evenodd" clip-rule="evenodd" d="M17.468 1.88085C18.6387 2.01475 19.5876 2.29338 20.3953 2.91283C20.8832 3.287 21.3107 3.73866 21.6629 4.25034C22.2417 5.09127 22.5013 6.07528 22.6267 7.2972C22.75 8.49844 22.75 10.0143 22.75 11.9568V12.0432V12.0434C22.75 12.6179 22.75 13.1551 22.7468 13.6579C22.745 13.9364 22.7442 14.0756 22.6564 14.1628C22.5687 14.25 22.4288 14.25 22.1491 14.25L1.85094 14.25C1.57121 14.25 1.43134 14.25 1.34359 14.1628C1.25584 14.0756 1.25495 13.9364 1.25319 13.6579C1.25 13.1554 1.25 12.6184 1.25 12.0443V12.0432V11.9568C1.24999 10.0143 1.24999 8.49844 1.37328 7.2972C1.4987 6.07528 1.7583 5.09127 2.33711 4.25035C2.68931 3.73866 3.11677 3.287 3.60466 2.91283C4.41239 2.29338 5.36127 2.01475 6.53204 1.88085C7.67639 1.74998 9.11788 1.74999 10.9525 1.75H10.9525L13.0475 1.75C14.8821 1.74999 16.3236 1.74998 17.468 1.88085ZM14.038 5.38436C13.8372 5.12726 13.5235 4.98431 13.1977 5.00137C12.8719 5.01843 12.5749 5.19334 12.402 5.47L10.5545 8.42607L9.58543 7.49532C9.36327 7.27904 8.95208 6.87871 8.37789 6.7116C7.99004 6.59872 7.567 6.59929 7.10413 6.59991L7 6.6C6.44772 6.6 6 7.04772 6 7.6C6 8.15229 6.44772 8.6 7 8.6C7.63208 8.6 7.74263 8.6097 7.81902 8.63193C7.83178 8.63564 7.86781 8.64875 7.94176 8.70571C8.02308 8.76835 8.10285 8.84494 8.23736 8.97408L8.23738 8.97411L10.0575 10.7214C10.2747 10.93 10.5744 11.0295 10.8733 10.9924C11.1722 10.9552 11.4384 10.7854 11.598 10.53L13.3411 7.74098L14.4438 9.15261C14.608 9.36442 14.8181 9.63544 15.1333 9.82912C15.7684 10.2193 16.5 10.2075 16.8855 10.2013H16.8855L16.8856 10.2013C16.9281 10.2006 16.9665 10.2 17 10.2C17.5523 10.2 18 9.75229 18 9.2C18 8.64772 17.5523 8.2 17 8.2C16.9438 8.2 16.8926 8.20023 16.8453 8.20045H16.8453C16.6654 8.20125 16.5429 8.20181 16.4172 8.18837C16.2667 8.17937 16.1481 8.08042 16.1077 8.03207L14.038 5.38436Z" fill="#141B34"/>
</svg>
