<svg width="24" height="24" viewBox="0 0 24 24" fill="none" xmlns="http://www.w3.org/2000/svg">
<path fill-rule="evenodd" clip-rule="evenodd" d="M4.99997 5C4.44768 5 3.99997 5.44772 3.99997 6C3.99997 6.55228 4.44768 7 4.99997 7C5.55225 7 5.99997 6.55228 5.99997 6C5.99997 5.44772 5.55225 5 4.99997 5ZM1.99997 6C1.99997 4.34315 3.34312 3 4.99997 3C6.65682 3 7.99997 4.34315 7.99997 6C7.99997 7.65685 6.65682 9 4.99997 9C3.34312 9 1.99997 7.65685 1.99997 6Z" fill="#141B34"/>
<path fill-rule="evenodd" clip-rule="evenodd" d="M15.9718 3H16.0636C16.9625 2.99998 17.7038 2.99997 18.3053 3.05429C18.9306 3.11077 19.5022 3.23217 20.0288 3.53514C20.6383 3.88581 21.1449 4.39045 21.4973 4.99867C21.8351 5.58172 21.9496 6.22287 21.9977 6.93236C22.035 7.48338 21.6186 7.96035 21.0676 7.99771C20.5166 8.03507 20.0396 7.61866 20.0023 7.06764C19.9618 6.47094 19.8771 6.19161 19.7668 6.00133C19.5907 5.69744 19.3372 5.44465 19.0314 5.26871C18.8594 5.16975 18.6127 5.09019 18.1254 5.04619C17.6245 5.00095 16.974 5 16.0177 5C15.0614 5 14.4108 5.00095 13.91 5.04619C13.4227 5.09019 13.176 5.16975 13.004 5.26871C12.6982 5.44465 12.4446 5.69744 12.2686 6.00133C12.1699 6.17157 12.0904 6.41604 12.0463 6.90068C12.0009 7.3992 12 8.04692 12 9V15C12 15.9531 12.0009 16.6008 12.0463 17.0993C12.0904 17.584 12.1699 17.8284 12.2686 17.9987C12.4446 18.3026 12.6982 18.5554 13.004 18.7313C13.176 18.8303 13.4227 18.9098 13.91 18.9538C14.4108 18.999 15.0614 19 16.0177 19C16.974 19 17.6245 18.999 18.1254 18.9538C18.6127 18.9098 18.8594 18.8303 19.0314 18.7313C19.3372 18.5554 19.5907 18.3026 19.7668 17.9987C19.8771 17.8084 19.9618 17.5291 20.0023 16.9324C20.0396 16.3813 20.5166 15.9649 21.0676 16.0023C21.6186 16.0397 22.035 16.5166 21.9977 17.0676C21.9496 17.7771 21.8351 18.4183 21.4973 19.0013C21.1449 19.6096 20.6383 20.1142 20.0288 20.4649C19.5022 20.7678 18.9306 20.8892 18.3053 20.9457C17.7038 21 16.9625 21 16.0636 21H15.9717C15.0729 21 14.3316 21 13.7301 20.9457C13.1048 20.8892 12.5332 20.7678 12.0066 20.4649C11.3971 20.1142 10.8905 19.6096 10.5381 19.0013C10.2333 18.4754 10.1113 17.9045 10.0545 17.2805C9.99994 16.6806 9.99995 15.9415 9.99997 15.0462V8.95382C9.99995 8.05848 9.99994 7.31937 10.0545 6.71952C10.1113 6.0955 10.2333 5.52459 10.5381 4.99867C10.8905 4.39045 11.3971 3.88581 12.0066 3.53514C12.5332 3.23217 13.1048 3.11077 13.7301 3.05429C14.3316 2.99997 15.0729 2.99998 15.9718 3Z" fill="#141B34"/>
</svg>
