<svg width="24" height="24" viewBox="0 0 24 24" fill="none" xmlns="http://www.w3.org/2000/svg">
<path fill-rule="evenodd" clip-rule="evenodd" d="M8.19631 16.0196C8.73787 16.1279 9.08909 16.6547 8.98077 17.1963L7.98077 22.1963C7.87246 22.7379 7.34564 23.0891 6.80408 22.9808C6.26252 22.8725 5.9113 22.3456 6.01961 21.8041L7.01961 16.8041C7.12792 16.2625 7.65475 15.9113 8.19631 16.0196ZM15.8041 16.0196C16.3456 15.9113 16.8725 16.2625 16.9808 16.8041L17.9808 21.8041C18.0891 22.3456 17.7379 22.8725 17.1963 22.9808C16.6547 23.0891 16.1279 22.7379 16.0196 22.1963L15.0196 17.1963C14.9113 16.6547 15.2625 16.1279 15.8041 16.0196Z" fill="#141B34"/>
<path d="M12 12.25C13.6077 12.25 15.2919 12.5572 16.6142 12.9674C17.3288 13.1891 17.8867 13.7654 18.2392 14.3737C18.5962 14.9897 18.8132 15.7569 18.7337 16.4932C18.691 16.8892 18.5042 17.2252 18.2101 17.4519C17.9299 17.6679 17.5992 17.75 17.302 17.75H12H6.69811C6.40087 17.75 6.07014 17.6679 5.79002 17.4519C5.49593 17.2252 5.30907 16.8892 5.26636 16.4932C5.18694 15.7569 5.40392 14.9897 5.76087 14.3737C6.11338 13.7654 6.67129 13.1891 7.38584 12.9674C8.70822 12.5572 10.3924 12.25 12 12.25Z" fill="#141B34"/>
<path fill-rule="evenodd" clip-rule="evenodd" d="M8.46342 4.36708C7.59027 5.23765 7 6.5594 7 8.3553C7 9.91654 7.71223 11.6 8.72841 13.0058C9.05195 13.4534 8.95139 14.0785 8.50379 14.4021C8.0562 14.7256 7.43107 14.625 7.10753 14.1774C5.94281 12.5661 5 10.4782 5 8.3553C5 6.10127 5.75287 4.24537 7.0513 2.95078C7.87531 2.12919 8.88995 1.56288 10.0066 1.25991C10.0248 1.25447 10.0433 1.24954 10.0619 1.24514C10.6821 1.08217 11.3332 1 12 1C12.6668 1 13.3179 1.08217 13.9381 1.24514C13.9567 1.24954 13.9752 1.25447 13.9934 1.25991C15.1101 1.56288 16.1247 2.1292 16.9487 2.95078C18.2471 4.24537 19 6.10127 19 8.3553C19 10.4782 18.0572 12.5661 16.8925 14.1774C16.5689 14.625 15.9438 14.7256 15.4962 14.4021C15.0486 14.0785 14.948 13.4534 15.2716 13.0058C16.2878 11.6 17 9.91654 17 8.3553C17 6.5594 16.4097 5.23765 15.5366 4.36708C15.3445 4.17552 15.1352 4.00232 14.9105 3.84862C14.9691 4.59104 15 5.4011 15 6.2739C15 8.78195 14.6244 11.3464 14.1655 13.236C14.0351 13.7727 13.4944 14.1021 12.9577 13.9718C12.421 13.8414 12.0916 13.3007 12.222 12.764C12.6481 11.0095 13 8.60412 13 6.2739C13 5.03837 12.9344 3.96264 12.8206 3.05684C12.5553 3.01923 12.2813 3 12 3C11.7187 3 11.4447 3.01923 11.1794 3.05684C11.0656 3.96264 11 5.03837 11 6.2739C11 8.60412 11.3519 11.0095 11.778 12.764C11.9084 13.3007 11.579 13.8414 11.0423 13.9718C10.5056 14.1021 9.96487 13.7727 9.83453 13.236C9.3756 11.3464 9 8.78195 9 6.2739C9 5.4011 9.03094 4.59104 9.08951 3.84862C8.86484 4.00233 8.65554 4.17552 8.46342 4.36708Z" fill="#141B34"/>
</svg>
