<svg width="24" height="24" viewBox="0 0 24 24" fill="none" xmlns="http://www.w3.org/2000/svg">
<path d="M16.0585 1.25C17.423 1.24998 18.5286 1.24996 19.3993 1.37603C20.31 1.50789 21.0719 1.79079 21.6709 2.43593C22.2627 3.07319 22.5154 3.87028 22.6344 4.8236C22.75 5.74987 22.75 6.93067 22.75 8.40963V8.40968V9.59033V9.59037C22.75 11.0693 22.75 12.2501 22.6344 13.1764C22.5154 14.1297 22.2627 14.9268 21.6709 15.5641C21.0719 16.2092 20.31 16.4921 19.3993 16.624C18.5286 16.75 17.423 16.75 16.0584 16.75H11.9416C10.577 16.75 9.47144 16.75 8.60071 16.624C7.68997 16.4921 6.92815 16.2092 6.32909 15.5641C5.73735 14.9268 5.48463 14.1297 5.36561 13.1764C5.24997 12.2501 5.24998 11.0693 5.25 9.59033V9.59032V8.40968V8.40967C5.24998 6.93069 5.24997 5.74988 5.36561 4.8236C5.48463 3.87028 5.73735 3.07319 6.32909 2.43593C6.92815 1.79079 7.68997 1.50789 8.60071 1.37603C9.47143 1.24996 10.577 1.24998 11.9415 1.25H11.9416H16.0584H16.0585Z" fill="#141B34"/>
<path fill-rule="evenodd" clip-rule="evenodd" d="M7.08324 8.1873C7.10068 8.72205 6.67976 9.16963 6.1431 9.187C4.62769 9.23605 4.11421 9.4284 3.78943 9.77734C3.55957 10.0243 3.38871 10.391 3.29377 11.1497C3.19623 11.9292 3.19445 12.9658 3.19445 14.4686V15.5133C3.19445 17.0161 3.19623 18.0528 3.29377 18.8322C3.38871 19.5909 3.55957 19.9576 3.78943 20.2046C4.00964 20.4412 4.32244 20.6106 4.99495 20.7078C5.7034 20.8101 6.65154 20.8125 8.05619 20.8125H11.9455C13.3502 20.8125 14.2983 20.8101 15.0067 20.7078C15.6792 20.6106 15.9921 20.4412 16.2123 20.2046C16.4141 19.9877 16.5695 19.6796 16.6688 19.099C16.7718 18.4962 16.7996 17.6963 16.8056 16.5529C16.8083 16.0179 17.2459 15.5864 17.7828 15.5892C18.3197 15.592 18.7528 16.0279 18.75 16.5629C18.7441 17.6917 18.7192 18.6432 18.5856 19.4244C18.4483 20.2278 18.1832 20.9362 17.6379 21.5221C17.0038 22.2034 16.2019 22.4929 15.2857 22.6252C14.4214 22.7501 13.3313 22.75 12.0185 22.75H7.98322C6.67034 22.75 5.58025 22.7501 4.71599 22.6252C3.79982 22.4929 2.9979 22.2034 2.36375 21.5221C1.73924 20.8511 1.48292 20.0202 1.36427 19.072C1.24995 18.1585 1.24997 17.0004 1.25 15.5781V14.4038C1.24997 12.9815 1.24995 11.8234 1.36427 10.9099C1.48292 9.96172 1.73924 9.1308 2.36375 8.45983C3.28608 7.46888 4.57446 7.29925 6.07997 7.25052C6.61663 7.23315 7.06581 7.65256 7.08324 8.1873Z" fill="#141B34"/>
</svg>
