<svg width="24" height="24" viewBox="0 0 24 24" fill="none" xmlns="http://www.w3.org/2000/svg">
<path fill-rule="evenodd" clip-rule="evenodd" d="M3 3C3.55229 3 4 3.44772 4 4V14C4 15.4425 4.00213 16.4237 4.10092 17.1586C4.19585 17.8646 4.36322 18.1916 4.58579 18.4142C4.80836 18.6368 5.13538 18.8042 5.84143 18.8991C6.57625 18.9979 7.55752 19 9 19H21C21.5523 19 22 19.4477 22 20C22 20.5523 21.5523 21 21 21H8.92946C7.57533 21 6.4587 21.0001 5.57494 20.8812C4.64711 20.7565 3.82768 20.4845 3.17158 19.8284C2.51547 19.1723 2.2435 18.3529 2.11875 17.4251C1.99994 16.5413 1.99997 15.4247 2 14.0706L2 4C2 3.44772 2.44772 3 3 3Z" fill="#141B34"/>
<path d="M20.287 6.30711C20.5673 6.4232 20.75 6.69668 20.75 7.00002V17C20.75 17.4142 20.4142 17.75 20 17.75H6C5.58579 17.75 5.25 17.4142 5.25 17V14C5.25 13.8011 5.32902 13.6103 5.46967 13.4697L8.74187 10.1975L8.74187 10.1975C9.04493 9.89441 9.30635 9.63297 9.54007 9.43721C9.7871 9.23031 10.0565 9.04969 10.3891 8.95586C10.7886 8.84317 11.2114 8.84317 11.6109 8.95586C11.9435 9.04969 12.2129 9.23031 12.4599 9.43722C12.6937 9.63297 12.9551 9.89441 13.2581 10.1975C13.5897 10.529 13.8264 10.7648 14.0032 10.9129C14.1724 11.0546 14.2523 11.0881 14.2964 11.1005C14.4295 11.1381 14.5705 11.1381 14.7036 11.1005C14.7477 11.0881 14.8276 11.0546 14.9968 10.9129C15.1736 10.7648 15.3881 10.5512 15.7197 10.2197L19.4697 6.46969C19.6842 6.25519 20.0068 6.19103 20.287 6.30711Z" fill="#141B34"/>
</svg>
