<svg width="24" height="24" viewBox="0 0 24 24" fill="none" xmlns="http://www.w3.org/2000/svg">
<path fill-rule="evenodd" clip-rule="evenodd" d="M16.8442 3.50001C16.8751 3.50002 16.9065 3.50002 16.9384 3.50002C16.9703 3.50002 17.0017 3.50002 17.0327 3.50001C17.7065 3.49988 18.1636 3.49979 18.5636 3.56394C20.7592 3.91603 22.4694 5.65642 22.8142 7.86032C22.8174 7.88119 22.8207 7.90201 22.8239 7.92278C22.9144 8.50035 22.9989 9.03981 23 9.5024C23.0013 10.0315 22.8971 10.5464 22.5537 11.0363C22.4657 11.1619 22.3485 11.3002 22.2391 11.4076C21.782 11.8566 21.2255 12.0254 20.6716 12.0989C20.1602 12.1668 19.5264 12.1667 18.81 12.1667C18.7893 12.1667 18.7686 12.1667 18.7477 12.1667H13V14.5C13 15.312 13.003 15.6029 13.0386 15.8306C13.2517 17.1925 14.3037 18.2487 15.6299 18.4613C15.8513 18.4968 16.1351 18.5 16.9384 18.5C17.7417 18.5 18.0255 18.4968 18.2469 18.4613C19.5732 18.2487 20.6252 17.1925 20.8382 15.8306C20.9236 15.285 21.4351 14.9118 21.9807 14.9972C22.5264 15.0825 22.8995 15.5941 22.8142 16.1397C22.4694 18.3436 20.7592 20.084 18.5636 20.4361C18.1636 20.5003 17.7065 20.5002 17.0327 20.5C17.0017 20.5 16.9703 20.5 16.9384 20.5C16.9065 20.5 16.8751 20.5 16.8442 20.5C16.1703 20.5002 15.7132 20.5003 15.3132 20.4361C13.1176 20.084 11.4074 18.3436 11.0627 16.1397C10.9998 15.7376 10.9999 15.2777 11 14.5932C11 14.5626 11 14.5316 11 14.5V9.50002C11 9.46849 11 9.43742 11 9.40681C10.9999 8.72234 10.9998 8.2624 11.0627 7.86033C11.4074 5.65642 13.1176 3.91603 15.3132 3.56394C15.7132 3.49979 16.1703 3.49988 16.8442 3.50001ZM13 10.1667H18.7477C19.5455 10.1667 20.0445 10.1646 20.4085 10.1163C20.7447 10.0717 20.8137 10.0043 20.8377 9.98074C20.8599 9.95895 20.898 9.91403 20.916 9.8883C20.9603 9.82517 21.0006 9.74788 21 9.50724C20.9993 9.21673 20.9417 8.83125 20.8382 8.16943C20.6252 6.80757 19.5732 5.75138 18.2469 5.53871C18.0255 5.5032 17.7417 5.50002 16.9384 5.50002C16.1351 5.50002 15.8513 5.5032 15.6299 5.53871C14.3037 5.75138 13.2517 6.80757 13.0386 8.16943C13.003 8.39715 13 8.68809 13 9.50002V10.1667Z" fill="#141B34"/>
<path fill-rule="evenodd" clip-rule="evenodd" d="M6.90606 3.50001C6.93692 3.50002 6.96822 3.50002 7 3.50002C7.03178 3.50002 7.06308 3.50002 7.09394 3.50001C7.77767 3.49988 8.23855 3.4998 8.64158 3.56363C10.8524 3.91379 12.5862 5.64767 12.9364 7.85844C12.9615 8.01676 12.9714 8.27836 12.9779 8.5063C12.9854 8.76581 12.9903 9.08437 12.9935 9.41207C13 10.0676 13 10.7785 13 11.1653V13.7857C13 17.4939 9.99391 20.5 6.28571 20.5C3.46462 20.5 1 18.2939 1 15.3334C1 12.4799 3.3132 10.1667 6.16667 10.1667H10.9985C10.9975 9.9269 10.996 9.67527 10.9936 9.43178C10.9905 9.10879 10.9857 8.8048 10.9788 8.56394C10.9753 8.44319 10.9714 8.34312 10.9672 8.26683C10.9632 8.19497 10.96 8.16696 10.9603 8.16694C10.9603 8.16693 10.9606 8.16846 10.961 8.17131C10.7464 6.81632 9.6837 5.75362 8.32871 5.53901C8.10215 5.50313 7.81238 5.50002 7 5.50002C6.18761 5.50002 5.89785 5.50313 5.67129 5.53901C4.58694 5.71075 3.68911 6.42586 3.26408 7.39995C3.0432 7.90614 2.4538 8.13744 1.9476 7.91657C1.44141 7.6957 1.21011 7.10629 1.43098 6.6001C2.12412 5.01158 3.58802 3.84404 5.35842 3.56363C5.76145 3.4998 6.22233 3.49988 6.90606 3.50001ZM11 12.1667H6.16667C4.41776 12.1667 3 13.5845 3 15.3334C3 17.1014 4.47915 18.5 6.28571 18.5C8.88934 18.5 11 16.3894 11 13.7857V12.1667Z" fill="#141B34"/>
</svg>
