<svg width="24" height="24" viewBox="0 0 24 24" fill="none" xmlns="http://www.w3.org/2000/svg">
<path fill-rule="evenodd" clip-rule="evenodd" d="M3 2C3.55229 2 4 2.44772 4 3V14C4 15.6782 4.00213 16.8362 4.11923 17.7072C4.15723 17.9899 4.20546 18.2253 4.26396 18.4245C4.601 16.7966 5.17465 14.7015 5.91746 12.8297C6.41053 11.5872 7.00028 10.3858 7.68019 9.47697C8.32468 8.61549 9.24077 7.76427 10.4282 7.76427C11.2859 7.76427 11.9181 8.21375 12.3608 8.68248C12.7786 9.12486 13.1245 9.68862 13.4045 10.1452L13.4239 10.1768C13.736 10.6853 13.9781 11.0741 14.234 11.3489C14.476 11.6087 14.6102 11.6353 14.6864 11.6353C14.941 11.6353 15.2513 11.4959 15.6554 10.7894C16.0437 10.1108 16.3558 9.1885 16.7162 8.12361C16.7304 8.08158 16.7447 8.03933 16.7591 7.99686C17.1165 6.9416 17.5281 5.7445 18.1109 4.81711C18.7062 3.86991 19.6143 2.99997 21 2.99997C21.5523 2.99997 22 3.44769 22 3.99997C22 4.55226 21.5523 4.99997 21 4.99997C20.5998 4.99997 20.2266 5.20945 19.8043 5.88136C19.3695 6.57309 19.0272 7.53481 18.6534 8.63838C18.6305 8.70606 18.6075 8.77438 18.5842 8.84321C18.2502 9.83243 17.8802 10.9283 17.3914 11.7826C16.8693 12.6952 16.0351 13.6353 14.6864 13.6353C13.8308 13.6353 13.2045 13.178 12.7705 12.712C12.3663 12.278 12.0276 11.7256 11.7515 11.2754C11.7407 11.2577 11.7299 11.2402 11.7193 11.2228C11.4089 10.717 11.1648 10.3289 10.9068 10.0557C10.664 9.79867 10.5214 9.76427 10.4282 9.76427C10.2397 9.76427 9.84426 9.92299 9.28164 10.675C8.75444 11.3797 8.24152 12.3955 7.77643 13.5674C6.90696 15.7583 6.28208 18.295 6.03497 19.841C6.11629 19.8553 6.20211 19.8686 6.2928 19.8808C7.16378 19.9979 8.32182 20 10 20H21C21.5523 20 22 20.4477 22 21C22 21.5523 21.5523 22 21 22H9.928C8.33933 22 7.04616 22.0001 6.0263 21.8629C4.96232 21.7199 4.04735 21.4113 3.31802 20.682C2.58869 19.9526 2.28011 19.0377 2.13706 17.9737C1.99994 16.9538 1.99997 15.6607 2 14.072L2 3C2 2.44772 2.44772 2 3 2Z" fill="#141B34"/>
</svg>
