<svg width="24" height="24" viewBox="0 0 24 24" fill="none" xmlns="http://www.w3.org/2000/svg">
<path fill-rule="evenodd" clip-rule="evenodd" d="M3 2C3.55229 2 4 2.44772 4 3V14C4 15.6782 4.00213 16.8362 4.11923 17.7072C4.23246 18.5494 4.43644 18.972 4.73223 19.2678C5.02803 19.5636 5.45059 19.7675 6.2928 19.8808C7.16378 19.9979 8.32182 20 10 20H21C21.5523 20 22 20.4477 22 21C22 21.5523 21.5523 22 21 22H9.928C8.33933 22 7.04616 22.0001 6.0263 21.8629C4.96232 21.7199 4.04735 21.4113 3.31802 20.682C2.58869 19.9526 2.28011 19.0377 2.13706 17.9737C1.99994 16.9538 1.99997 15.6607 2 14.072L2 3C2 2.44772 2.44772 2 3 2Z" fill="#141B34"/>
<circle cx="8" cy="8" r="2" fill="#141B34"/>
<circle cx="11.5" cy="15.5" r="2.5" fill="#141B34"/>
<circle cx="17.5" cy="7.5" r="3.5" fill="#141B34"/>
</svg>
