<svg width="24" height="24" viewBox="0 0 24 24" fill="none" xmlns="http://www.w3.org/2000/svg">
<path d="M12.0063 3.15156C14.6502 0.507672 18.4235 0.726822 20.8482 3.15156C22.7739 5.07725 23.3245 7.87106 22.0971 10.2882C21.9799 10.5189 21.7521 10.6729 21.4944 10.6957C21.2367 10.7185 20.9854 10.6068 20.8296 10.4003C20.198 9.56297 19.1635 9.43156 18.288 9.84027C17.4218 10.2447 16.8633 11.1073 17.1325 12.1721C17.202 12.4474 17.1102 12.7383 16.8953 12.9237C16.6804 13.1092 16.3792 13.1574 16.1171 13.0483C15.6805 12.8666 15.2709 13.0306 15.0143 13.4013C14.7505 13.7822 14.7473 14.2382 15.0378 14.5643C15.1999 14.7462 15.2635 14.9956 15.2083 15.2329C15.1532 15.4702 14.9862 15.666 14.7605 15.7578C13.5339 16.2571 12.2688 16.6297 11.1396 16.7257C10.0343 16.8196 8.89174 16.6603 8.11564 15.8842C7.34649 15.115 7.1833 13.9858 7.27154 12.8916C7.36161 11.7745 7.72483 10.523 8.21442 9.3073C9.18965 6.8857 10.7481 4.40974 12.0063 3.15156Z" fill="#141B34"/>
<path d="M6.08798 15.431C6.03426 15.2878 6.00741 15.2162 5.9541 15.2046C5.90079 15.1931 5.84845 15.2454 5.74378 15.3501L4.92977 16.1641C4.87655 16.2173 4.84994 16.2439 4.81715 16.2487C4.78436 16.2535 4.74907 16.2345 4.67849 16.1965C3.81094 15.7286 2.6773 15.8341 1.92789 16.5835C1.02375 17.4877 1.02375 18.9536 1.9279 19.8577C2.28582 20.2156 2.76513 20.459 3.27045 20.5463C3.34867 20.5598 3.38778 20.5665 3.41022 20.5889C3.43265 20.6114 3.4394 20.6505 3.45291 20.7287C3.54013 21.234 3.78351 21.7133 4.14143 22.0713C5.04558 22.9754 6.51149 22.9754 7.41563 22.0713C8.16503 21.3219 8.27058 20.1882 7.8027 19.3207C7.76464 19.2501 7.74561 19.2148 7.75041 19.182C7.75521 19.1492 7.78182 19.1226 7.83505 19.0694L8.64921 18.2552C8.7539 18.1505 8.80624 18.0982 8.7947 18.0449C8.78315 17.9916 8.71153 17.9647 8.56831 17.911C8.03155 17.7097 7.51211 17.4017 7.05455 16.9442C6.5971 16.4867 6.2892 15.9674 6.08798 15.431Z" fill="#141B34"/>
</svg>
