<svg width="24" height="24" viewBox="0 0 24 24" fill="none" xmlns="http://www.w3.org/2000/svg">
<path fill-rule="evenodd" clip-rule="evenodd" d="M1.2498 12C1.2498 17.9371 6.06274 22.75 11.9998 22.75C17.9369 22.75 22.7498 17.9371 22.7498 12C22.7498 6.06294 17.9369 1.25 11.9998 1.25C6.06274 1.25 1.2498 6.06294 1.2498 12ZM10.2855 6.49708C9.73324 6.49708 9.28552 6.9448 9.28552 7.49708L9.28552 13.4329L7.9998 13.4329C7.75988 13.4329 7.51917 13.5186 7.32756 13.6926C6.91869 14.0639 6.88821 14.6963 7.25948 15.1052L8.6041 16.586C8.78027 16.7802 8.97888 16.9992 9.16119 17.1502C9.30934 17.273 9.85222 17.6975 10.5242 17.391C11.1426 17.1089 11.2317 16.4793 11.2553 16.2957C11.2858 16.0587 11.2856 15.7593 11.2855 15.4802L11.2855 7.49708C11.2855 6.9448 10.8378 6.49708 10.2855 6.49708ZM16.6721 10.3016C17.0809 9.93029 17.1114 9.29786 16.7401 8.88899L15.3955 7.40817L15.3955 7.40814L15.3955 7.40812C15.2193 7.2139 15.0207 6.99496 14.8384 6.84394C14.6903 6.72121 14.1474 6.29664 13.4754 6.60316C12.857 6.88526 12.7679 7.51481 12.7443 7.69848C12.7139 7.93545 12.714 8.23484 12.7141 8.51393L12.7141 16.4971C12.7141 17.0494 13.1618 17.4971 13.7141 17.4971C14.2664 17.4971 14.7141 17.0494 14.7141 16.4971L14.7141 10.5612L15.9998 10.5612C16.2397 10.5613 16.4804 10.4756 16.6721 10.3016Z" fill="#141B34"/>
</svg>
