<svg width="24" height="24" viewBox="0 0 24 24" fill="none" xmlns="http://www.w3.org/2000/svg">
<path fill-rule="evenodd" clip-rule="evenodd" d="M12 22.75C17.937 22.75 22.75 17.9371 22.75 12C22.75 6.06294 17.937 1.25 12 1.25C6.06293 1.25 1.24999 6.06294 1.24999 12C1.24999 17.9371 6.06292 22.75 12 22.75ZM12 18.5C11.5858 18.5 11.25 18.1642 11.25 17.75L11.25 13.5L10.939 13.5C10.6653 13.5 10.3967 13.5001 10.1889 13.4764C10.0261 13.4579 9.55367 13.3962 9.33715 12.9779C9.12047 12.5593 9.36547 12.18 9.45179 12.0514C9.5623 11.8867 9.73105 11.693 9.9031 11.4955L9.92756 11.4674C10.1907 11.1652 10.4968 10.8298 10.7998 10.566C10.9511 10.4342 11.12 10.304 11.2985 10.2032C11.4662 10.1086 11.7115 10 12 10C12.2885 10 12.5338 10.1086 12.7014 10.2032C12.88 10.304 13.0488 10.4342 13.2002 10.566C13.5031 10.8298 13.8093 11.1652 14.0724 11.4674L14.0969 11.4955C14.2689 11.693 14.4377 11.8867 14.5482 12.0514C14.6345 12.18 14.8795 12.5593 14.6628 12.9779C14.4463 13.3962 13.9739 13.4579 13.8111 13.4764C13.6033 13.5001 13.3347 13.5 13.061 13.5L12.75 13.5L12.75 17.75C12.75 18.1642 12.4142 18.5 12 18.5ZM7.24999 7.75C7.24999 7.33579 7.58577 7 7.99999 7L16 7C16.4142 7 16.75 7.33579 16.75 7.75C16.75 8.16421 16.4142 8.5 16 8.5L7.99999 8.5C7.58577 8.5 7.24999 8.16421 7.24999 7.75Z" fill="#141B34"/>
</svg>
