<svg width="24" height="24" viewBox="0 0 24 24" fill="none" xmlns="http://www.w3.org/2000/svg">
<path fill-rule="evenodd" clip-rule="evenodd" d="M22.75 12C22.75 6.06294 17.9371 1.25 12 1.25C6.06294 1.25 1.25 6.06294 1.25 12C1.25 17.9371 6.06294 22.75 12 22.75C17.9371 22.75 22.75 17.9371 22.75 12ZM14.5018 16.0574C14.8096 15.7803 14.8345 15.3061 14.5574 14.9982C14.4094 14.8338 14.2051 14.7501 14 14.75L13 14.75L13 9.25L14 9.25001C14.2051 9.24994 14.4094 9.16623 14.5574 9.00179C14.8345 8.69394 14.8096 8.21972 14.5018 7.94259C14.4402 7.88714 14.3319 7.76934 14.1585 7.57622L14.1206 7.53399C13.9689 7.36486 13.788 7.16321 13.6014 6.9705C13.4015 6.76412 13.173 6.54469 12.9417 6.37229C12.746 6.22644 12.4033 6 12 6C11.5967 6 11.254 6.22644 11.0583 6.37229C10.827 6.54469 10.5985 6.76412 10.3986 6.9705C10.212 7.16321 10.0311 7.36486 9.87939 7.53398L9.84149 7.57622C9.66813 7.76934 9.55979 7.88714 9.4982 7.94259C9.19035 8.21972 9.16545 8.69394 9.44258 9.00179C9.59052 9.16612 9.79461 9.24983 9.99958 9.25001L11 9.25L11 14.75L9.99958 14.75C9.79461 14.7502 9.59052 14.8339 9.44258 14.9982C9.16545 15.3061 9.19035 15.7803 9.4982 16.0574C9.55979 16.1129 9.66813 16.2307 9.84149 16.4238L9.87937 16.466C10.0311 16.6351 10.212 16.8368 10.3986 17.0295C10.5985 17.2359 10.827 17.4553 11.0583 17.6277C11.254 17.7736 11.5967 18 12 18C12.4033 18 12.746 17.7736 12.9417 17.6277C13.173 17.4553 13.4015 17.2359 13.6014 17.0295C13.788 16.8368 13.9689 16.6352 14.1206 16.466L14.1585 16.4238C14.3319 16.2307 14.4402 16.1129 14.5018 16.0574Z" fill="#141B34"/>
</svg>
