<svg width="24" height="24" viewBox="0 0 24 24" fill="none" xmlns="http://www.w3.org/2000/svg">
<path fill-rule="evenodd" clip-rule="evenodd" d="M12 1.25C6.06294 1.25 1.25 6.06294 1.25 12C1.25 17.9371 6.06294 22.75 12 22.75C17.9371 22.75 22.75 17.9371 22.75 12C22.75 6.06294 17.9371 1.25 12 1.25ZM14.2996 6.87201C14.0067 6.57912 13.5318 6.57912 13.2389 6.87201L9.11343 10.9975L8.22951 10.1136C8.12342 10.0073 7.98448 9.93183 7.8252 9.90468C7.41687 9.83508 7.02944 10.1097 6.95984 10.518L6.5702 12.8039C6.5341 13.015 6.49448 13.2468 6.48906 13.4291C6.48626 13.5232 6.48738 13.6961 6.55801 13.8758C6.64772 14.1041 6.84164 14.3167 7.13781 14.3944C7.39822 14.4627 7.6212 14.396 7.75729 14.334C7.88909 14.274 7.99888 14.1919 8.07769 14.1275C8.2271 14.0053 8.4036 13.8287 8.5871 13.6452L8.58717 13.6451L8.58718 13.6451L14.2996 7.93267C14.5925 7.63978 14.5925 7.16491 14.2996 6.87201ZM16.1778 14.0924C16.5861 14.162 16.9736 13.8874 17.0432 13.4791L17.4328 11.1932C17.4689 10.9821 17.5085 10.7503 17.514 10.568C17.5168 10.4739 17.5156 10.301 17.445 10.1213C17.3553 9.89296 17.1614 9.68037 16.8652 9.60269C16.6048 9.53439 16.3818 9.60108 16.2457 9.66304C16.1139 9.72305 16.0041 9.80514 15.9253 9.8696C15.7759 9.9918 15.5994 10.1684 15.4159 10.3519L9.70341 16.0644C9.41052 16.3573 9.41052 16.8322 9.70341 17.1251C9.9963 17.418 10.4712 17.418 10.7641 17.1251L14.8896 12.9996L15.7734 13.8834C15.8795 13.9897 16.0185 14.0652 16.1778 14.0924Z" fill="#141B34"/>
</svg>
