<svg width="24" height="24" viewBox="0 0 24 24" fill="none" xmlns="http://www.w3.org/2000/svg">
<path d="M8.71717 21.3879C8.79371 21.0052 9.05236 20.8748 9.2 20.8748C9.34764 20.8748 9.60629 21.0052 9.68283 21.3879C9.72826 21.6151 9.81939 21.9542 10.0397 22.2552C10.295 22.604 10.7097 22.8748 11.2556 22.8748H12.7444C13.2903 22.8748 13.705 22.604 13.9603 22.2552C14.1806 21.9542 14.2717 21.6151 14.3172 21.3879C14.3937 21.0052 14.6524 20.8748 14.8 20.8748C14.9476 20.8748 15.2063 21.0052 15.2828 21.3879C15.3283 21.6151 15.4194 21.9542 15.6397 22.2552C15.895 22.604 16.3097 22.8748 16.8556 22.8748H20C20.5523 22.8748 21 22.427 21 21.8748C21 21.3225 20.5523 20.8748 20 20.8748H17.217C16.9451 19.772 16.0115 18.8748 14.8 18.8748C13.5885 18.8748 12.6549 19.772 12.383 20.8748H11.617C11.3451 19.772 10.4115 18.8748 9.2 18.8748C7.98852 18.8748 7.05493 19.772 6.783 20.8748H4C3.44772 20.8748 3 21.3225 3 21.8748C3 22.427 3.44772 22.8748 4 22.8748H7.14444C7.6903 22.8748 8.105 22.604 8.3603 22.2552C8.58061 21.9542 8.67174 21.6151 8.71717 21.3879Z" fill="#141B34"/>
<path d="M8.24255 15.6349C8.11649 16.8048 7.33362 21.2687 7.24894 22.0727H4.27655L2.95403 17.2361C2.95156 17.227 2.94926 17.2179 2.94713 17.2088L2.93365 17.1511C2.61342 15.78 2.35479 14.6727 2.27584 13.7909C2.19419 12.8789 2.28848 12.0604 2.82115 11.3688C3.35693 10.6731 4.12153 10.3842 5.01593 10.2519C5.87515 10.1249 6.98984 10.1249 8.36282 10.1249H8.86244C8.69641 11.4737 8.45474 13.6656 8.24255 15.6349Z" fill="#141B34"/>
<path d="M13.1228 10.1249H10.8779C10.7156 11.4109 10.4582 13.7405 10.231 15.8491C10.1052 17.017 9.98916 18.1118 9.90458 18.9148C9.8623 19.3163 9.82788 19.6447 9.80404 19.8728L9.76799 20.2183C10.2996 20.6592 10.7732 21.4213 11 21.8749L13 21.6771C13.1257 21.2239 13.517 20.429 14.2167 20.0657L14.1966 19.8728C14.1727 19.6447 14.1383 19.3163 14.096 18.9148C14.0114 18.1118 13.8954 17.017 13.7696 15.8491C13.5424 13.7405 13.285 11.4109 13.1228 10.1249Z" fill="#141B34"/>
<path d="M16.5 22.0727H19.7234L21.046 17.236C21.0484 17.227 21.0507 17.2179 21.0529 17.2088L21.0663 17.1511C21.3866 15.78 21.6452 14.6726 21.7241 13.7909C21.8058 12.8788 21.7115 12.0603 21.1788 11.3687C20.6431 10.6731 19.8785 10.3841 18.9841 10.2519C18.1248 10.1248 17.0102 10.1249 15.6372 10.1249H15.1382C15.3042 11.4736 15.5459 13.6655 15.7581 15.6349C15.8841 16.8047 16.4153 21.2687 16.5 22.0727Z" fill="#141B34"/>
<path d="M9.33468 4.03837C10.2349 3.40992 11.135 3.1246 11.9999 3.12463C12.8648 3.12467 13.7649 3.41009 14.6652 4.03853C14.985 4.26176 15.0059 4.42146 14.9993 4.57578C14.9878 4.84489 14.847 5.2271 14.543 5.78811C14.4263 6.00345 14.3008 6.21896 14.1663 6.44993L14.0649 6.62418C13.897 6.91361 13.7191 7.22592 13.5633 7.54164C13.2675 8.14136 12.9628 8.92098 13.0725 9.73693C13.088 9.85217 13.1048 9.98198 13.1228 10.1246H15.1382C15.1076 9.87566 15.0795 9.65542 15.0547 9.4706C15.0288 9.27842 15.0943 8.95899 15.357 8.42644C15.4805 8.17601 15.629 7.91387 15.7949 7.62775L15.8877 7.4682C16.0235 7.23512 16.1685 6.98614 16.3014 6.74107C16.6157 6.16098 16.9648 5.42652 16.9975 4.66107C17.035 3.78083 16.6544 2.98805 15.81 2.39857C14.621 1.56861 13.3281 1.12469 12 1.12463C10.6718 1.12457 9.37884 1.56839 8.18983 2.39846C7.34536 2.988 6.96483 3.78086 7.00255 4.66114C7.03534 5.42659 7.38451 6.16104 7.69899 6.74113C7.83184 6.98619 7.97686 7.2351 8.11266 7.46817L8.20554 7.62781C8.37156 7.91393 8.52003 8.17607 8.6436 8.4265C8.90637 8.95907 8.9718 9.27847 8.94599 9.4706C8.92116 9.65542 8.89309 9.87566 8.86244 10.1246H10.8779C10.8959 9.98198 10.9127 9.85217 10.9282 9.73693C11.0378 8.92092 10.7331 8.14127 10.4372 7.54153C10.2814 7.22581 10.1034 6.9135 9.93542 6.62406L9.83401 6.44972C9.6995 6.21878 9.57397 6.00328 9.45724 5.78795C9.1531 5.22692 9.01224 4.84467 9.00071 4.57553C8.9941 4.42121 9.01496 4.26157 9.33468 4.03837Z" fill="#141B34"/>
</svg>
