<svg width="24" height="24" viewBox="0 0 24 24" fill="none" xmlns="http://www.w3.org/2000/svg">
<path d="M11.5382 11.4457C11.8384 11.1721 12.302 11.1872 12.5837 11.4798L13.6004 12.5358C14.4698 13.3912 14.4665 14.7945 13.5905 15.6458C13.5811 15.655 13.5715 15.6639 13.5616 15.6725C13.1484 16.0339 12.6433 16.25 12.0434 16.25C11.4464 16.25 10.8423 16.0069 10.4131 15.5898C9.53631 14.7377 9.53602 13.3656 10.3707 12.5117C10.3807 12.5014 10.3911 12.4914 10.4017 12.4817L11.5382 11.4457Z" fill="#141B34"/>
<path d="M8.03817 16.9457C8.3384 16.6721 8.80196 16.6872 9.08373 16.9798L10.1004 18.0358C10.9698 18.8912 10.9665 20.2945 10.0905 21.1458C10.0811 21.155 10.0715 21.1639 10.0616 21.1725C9.64845 21.5339 9.14333 21.75 8.54344 21.75C7.94636 21.75 7.34229 21.5069 6.91314 21.0898C6.03631 20.2377 6.03602 18.8656 6.87068 18.0117C6.88074 18.0014 6.8911 17.9914 6.90174 17.9817L8.03817 16.9457Z" fill="#141B34"/>
<path d="M15.0382 16.9457C15.3384 16.6721 15.802 16.6872 16.0837 16.9798L17.1004 18.0358C17.9698 18.8912 17.9665 20.2945 17.0905 21.1458C17.0811 21.155 17.0715 21.1639 17.0616 21.1725C16.6484 21.5339 16.1433 21.75 15.5434 21.75C14.9464 21.75 14.3423 21.5069 13.9131 21.0898C13.0363 20.2377 13.036 18.8656 13.8707 18.0117C13.8807 18.0014 13.8911 17.9914 13.9017 17.9817L15.0382 16.9457Z" fill="#141B34"/>
<path d="M5.93931 6.96783C5.88991 7.16384 5.8652 7.26184 5.80872 7.3197C5.75224 7.37755 5.65424 7.40476 5.45825 7.45919C3.03106 8.1332 1.25 10.3583 1.25 13C1.25 15.2264 2.51532 17.1572 4.36606 18.1126C4.60297 18.2349 4.72143 18.2961 4.83872 18.2597C4.95601 18.2234 5.03299 18.0802 5.18695 17.7939C5.34702 17.4961 5.55083 17.2161 5.79802 16.9632C5.82821 16.9323 5.85929 16.9023 5.89119 16.8732L7.02762 15.8372C7.22143 15.6606 7.43792 15.524 7.66679 15.4272C8.04822 15.2659 8.23894 15.1853 8.28926 15.0988C8.33957 15.0124 8.31799 14.8278 8.27484 14.4587C8.15013 13.3917 8.49555 12.2841 9.29802 11.4632C9.3282 11.4323 9.35927 11.4023 9.39118 11.3732L10.5276 10.3372C11.4283 9.51615 12.819 9.56148 13.6643 10.4395L14.6686 11.4826C15.4811 12.2918 15.8357 13.3864 15.7325 14.4447C15.6961 14.8181 15.6779 15.0049 15.7305 15.0906C15.783 15.1764 15.9777 15.2528 16.3672 15.4057C16.6597 15.5205 16.9325 15.6987 17.1643 15.9395L18.1686 16.9826C18.4586 17.2715 18.6903 17.5967 18.8637 17.9437C19.0045 18.2256 19.0749 18.3665 19.1887 18.407C19.3024 18.4475 19.4196 18.3948 19.6538 18.2893C21.4792 17.4671 22.75 15.6319 22.75 13.5C22.75 11.0285 21.0422 8.95589 18.7423 8.39786C18.4989 8.3388 18.3772 8.30927 18.3147 8.23828C18.2522 8.1673 18.2385 8.04461 18.2112 7.79924C17.8628 4.67731 15.2149 2.25 12 2.25C9.07671 2.25 6.62272 4.25653 5.93931 6.96783Z" fill="#141B34"/>
</svg>
