<svg width="24" height="24" viewBox="0 0 24 24" fill="none" xmlns="http://www.w3.org/2000/svg">
<path fill-rule="evenodd" clip-rule="evenodd" d="M12 1.25C6.06294 1.25 1.25 6.06294 1.25 12C1.25 17.9371 6.06294 22.75 12 22.75C17.9371 22.75 22.75 17.9371 22.75 12C22.75 6.06294 17.9371 1.25 12 1.25ZM16 7.25C15.5858 7.25 15.25 7.58579 15.25 8C15.25 8.41421 15.5858 8.75 16 8.75C16.1849 8.75 16.3655 8.90866 16.3655 9.14286V10.3838C16.3655 10.88 16.5578 11.3595 16.9055 11.7157L17.183 12L16.9055 12.2843C16.5578 12.6405 16.3655 13.12 16.3655 13.6162V14.8571C16.3655 15.0913 16.1849 15.25 16 15.25C15.5858 15.25 15.25 15.5858 15.25 16C15.25 16.4142 15.5858 16.75 16 16.75C17.0473 16.75 17.8655 15.8853 17.8655 14.8571V13.6162C17.8655 13.5063 17.9083 13.4044 17.979 13.332L18.3733 12.9279C18.8755 12.4134 18.8756 11.5866 18.3733 11.0721L17.979 10.668C17.9083 10.5956 17.8655 10.4937 17.8655 10.3838V9.14286C17.8655 8.11469 17.0473 7.25 16 7.25ZM8.75 8C8.75 7.58579 8.41421 7.25 8 7.25C6.95269 7.25 6.13448 8.11469 6.13448 9.14286V10.3838C6.13448 10.4937 6.09167 10.5956 6.02105 10.668L5.62665 11.0721C5.12445 11.5866 5.12445 12.4134 5.62665 12.9279L6.02105 13.332C6.09167 13.4044 6.13448 13.5063 6.13448 13.6162V14.8571C6.13448 15.8853 6.95269 16.75 8 16.75C8.41421 16.75 8.75 16.4142 8.75 16C8.75 15.5858 8.41421 15.25 8 15.25C7.81515 15.25 7.63448 15.0913 7.63448 14.8571V13.6162C7.63448 13.12 7.44224 12.6405 7.09447 12.2843L6.81702 12L7.09447 11.7157C7.44224 11.3595 7.63448 10.88 7.63448 10.3838V9.14286C7.63448 8.90866 7.81515 8.75 8 8.75C8.41421 8.75 8.75 8.41421 8.75 8ZM10 11C9.44771 11 9 11.4477 9 12C9 12.5523 9.44771 13 10 13H10.009C10.5612 13 11.009 12.5523 11.009 12C11.009 11.4477 10.5612 11 10.009 11H10ZM13.991 11C13.4388 11 12.991 11.4477 12.991 12C12.991 12.5523 13.4388 13 13.991 13H14C14.5523 13 15 12.5523 15 12C15 11.4477 14.5523 11 14 11H13.991Z" fill="#141B34"/>
</svg>
