<svg width="24" height="24" viewBox="0 0 24 24" fill="none" xmlns="http://www.w3.org/2000/svg">
<path d="M2.98518 10.205C3.25477 9.87578 3.38957 9.71117 3.52054 9.75808C3.65152 9.80499 3.65113 10.0334 3.65034 10.4901C3.65033 10.4959 3.65032 10.5017 3.65032 10.5075C3.65032 15.9432 8.05682 20.3497 13.4925 20.3497C13.4983 20.3497 13.5041 20.3497 13.5099 20.3497C13.9666 20.3489 14.195 20.3485 14.2419 20.4795C14.2888 20.6104 14.1242 20.7452 13.795 21.0148C12.4705 22.0994 10.777 22.7502 8.9315 22.7502C4.68901 22.7502 1.24979 19.311 1.24979 15.0685C1.24979 13.223 1.90057 11.5295 2.98518 10.205Z" fill="#141B34"/>
<path fill-rule="evenodd" clip-rule="evenodd" d="M13.9998 1.25021C9.16729 1.25021 5.24979 5.16772 5.24979 10.0002C5.24979 14.8327 9.16729 18.7502 13.9998 18.7502C18.8323 18.7502 22.7498 14.8327 22.7498 10.0002C22.7498 5.16772 18.8323 1.25021 13.9998 1.25021ZM12.2303 6.32966C12.136 5.92632 11.7326 5.67578 11.3292 5.77007C10.9259 5.86436 10.6754 6.26776 10.7696 6.6711C10.952 7.45097 11.6736 9.09041 13.25 10.0549V10.417H11.9166C11.5024 10.417 11.1666 10.7528 11.1666 11.167C11.1666 11.5813 11.5024 11.917 11.9166 11.917H13.25V13.5004C13.25 13.9146 13.5857 14.2504 14 14.2504C14.4142 14.2504 14.75 13.9146 14.75 13.5004V11.917H16.0833C16.4975 11.917 16.8333 11.5813 16.8333 11.167C16.8333 10.7528 16.4975 10.417 16.0833 10.417H14.75V10.0549C16.3263 9.09041 17.048 7.45097 17.2303 6.6711C17.3246 6.26776 17.074 5.86436 16.6707 5.77007C16.2673 5.67578 15.8639 5.92632 15.7696 6.32966C15.6458 6.85931 15.106 8.05909 14 8.75472C12.8939 8.05909 12.3541 6.85931 12.2303 6.32966Z" fill="#141B34"/>
</svg>
