<svg width="24" height="24" viewBox="0 0 24 24" fill="none" xmlns="http://www.w3.org/2000/svg">
<path d="M2.98539 10.205C3.25498 9.8758 3.38978 9.71118 3.52076 9.75809C3.65173 9.805 3.65134 10.0334 3.65055 10.4901C3.65054 10.4959 3.65054 10.5017 3.65054 10.5075C3.65054 15.9432 8.05704 20.3497 13.4927 20.3497C13.4985 20.3497 13.5043 20.3497 13.5101 20.3497C13.9668 20.3489 14.1952 20.3485 14.2421 20.4795C14.289 20.6104 14.1244 20.7452 13.7952 21.0148C12.4707 22.0994 10.7772 22.7502 8.93172 22.7502C4.68922 22.7502 1.25 19.311 1.25 15.0685C1.25 13.223 1.90079 11.5295 2.98539 10.205Z" fill="#141B34"/>
<path d="M5.25 10.0002C5.25 5.16773 9.16751 1.25023 14 1.25023C18.8325 1.25023 22.75 5.16773 22.75 10.0002C22.75 14.8327 18.8325 18.7502 14 18.7502C9.16751 18.7502 5.25 14.8327 5.25 10.0002Z" fill="#141B34"/>
</svg>
