<svg width="24" height="24" viewBox="0 0 24 24" fill="none" xmlns="http://www.w3.org/2000/svg">
<path fill-rule="evenodd" clip-rule="evenodd" d="M17.875 1.125C18.4273 1.125 18.875 1.57272 18.875 2.125V5.125H21.875C22.4273 5.125 22.875 5.57272 22.875 6.125C22.875 6.67728 22.4273 7.125 21.875 7.125H18.875V10.125C18.875 10.6773 18.4273 11.125 17.875 11.125C17.3227 11.125 16.875 10.6773 16.875 10.125V7.125H13.875C13.3227 7.125 12.875 6.67728 12.875 6.125C12.875 5.57272 13.3227 5.125 13.875 5.125H16.875V2.125C16.875 1.57272 17.3227 1.125 17.875 1.125Z" fill="#141B34"/>
<path d="M15.375 2.97414C15.375 2.69244 15.375 2.55159 15.2873 2.46375C15.1996 2.3759 15.059 2.37571 14.7779 2.37533C14.535 2.375 14.2842 2.375 14.025 2.375H9.725C5.67092 2.375 3.64388 2.375 2.38444 3.63907C1.125 4.90313 1.125 6.93761 1.125 11.0066V11.5461C1.125 15.615 1.125 17.6495 2.38444 18.9136C2.96538 19.4966 3.78236 19.8857 4.83865 20.0808C5.16308 20.1408 5.32529 20.1707 5.39574 20.2724C5.4662 20.3742 5.43726 20.5362 5.3794 20.8601C5.23931 21.6444 5.26144 22.3535 5.76437 22.7295C6.29145 23.1143 7.13133 22.7032 8.81111 21.8812C8.99744 21.79 9.18412 21.6967 9.37148 21.603L9.3735 21.602C10.3708 21.1035 11.3874 20.5953 12.4712 20.3449C12.9426 20.2371 13.4225 20.1911 14.025 20.1776C18.0791 20.1776 20.1061 20.1776 21.3656 18.9136C22.625 17.6495 22.625 15.615 22.625 11.5461V11.0066C22.625 10.3776 22.625 9.79728 22.6203 9.26087C22.6178 8.96391 22.6165 8.81543 22.5481 8.73318C22.5335 8.71569 22.5248 8.70707 22.5072 8.69268C22.4244 8.625 22.2413 8.625 21.875 8.625H20.975C20.6922 8.625 20.5507 8.625 20.4629 8.71287C20.375 8.80074 20.375 8.94216 20.375 9.225V10.125C20.375 11.5057 19.2557 12.625 17.875 12.625C16.4943 12.625 15.375 11.5057 15.375 10.125V9.225C15.375 8.94216 15.375 8.80074 15.2871 8.71287C15.1993 8.625 15.0578 8.625 14.775 8.625H13.875C12.4943 8.625 11.375 7.50571 11.375 6.125C11.375 4.74429 12.4943 3.625 13.875 3.625H14.775C15.0578 3.625 15.1993 3.625 15.2871 3.53713C15.375 3.44926 15.375 3.30784 15.375 3.025V2.97414Z" fill="#141B34"/>
</svg>
