<svg width="24" height="24" viewBox="0 0 24 24" fill="none" xmlns="http://www.w3.org/2000/svg">
<path fill-rule="evenodd" clip-rule="evenodd" d="M17.875 1.125C18.4273 1.125 18.875 1.57272 18.875 2.125V5.125H21.875C22.4273 5.125 22.875 5.57272 22.875 6.125C22.875 6.67728 22.4273 7.125 21.875 7.125H18.875V10.125C18.875 10.6773 18.4273 11.125 17.875 11.125C17.3227 11.125 16.875 10.6773 16.875 10.125V7.125H13.875C13.3227 7.125 12.875 6.67728 12.875 6.125C12.875 5.57272 13.3227 5.125 13.875 5.125H16.875V2.125C16.875 1.57272 17.3227 1.125 17.875 1.125Z" fill="#141B34"/>
<path fill-rule="evenodd" clip-rule="evenodd" d="M15.2873 2.46375C15.375 2.55159 15.375 2.69244 15.375 2.97414V3.025C15.375 3.30784 15.375 3.44926 15.2871 3.53713C15.1993 3.625 15.0578 3.625 14.775 3.625H13.875C12.4943 3.625 11.375 4.74429 11.375 6.125C11.375 7.50571 12.4943 8.625 13.875 8.625H14.775C15.0578 8.625 15.1993 8.625 15.2871 8.71287C15.375 8.80074 15.375 8.94216 15.375 9.225V10.125C15.375 11.5057 16.4943 12.625 17.875 12.625C19.2557 12.625 20.375 11.5057 20.375 10.125V9.225C20.375 8.94216 20.375 8.80074 20.4629 8.71287C20.5507 8.625 20.6922 8.625 20.975 8.625H21.875C22.2413 8.625 22.4244 8.625 22.5072 8.69268C22.5248 8.70707 22.5335 8.71569 22.5481 8.73318C22.6165 8.81543 22.6178 8.96391 22.6203 9.26087C22.625 9.79728 22.625 10.3776 22.625 11.0066V11.5461C22.625 15.615 22.625 17.6495 21.3656 18.9136C20.1061 20.1776 18.0791 20.1776 14.025 20.1776C13.4225 20.1911 12.9426 20.2371 12.4712 20.3449C11.3874 20.5953 10.3708 21.1035 9.37352 21.602L9.3735 21.602L9.37148 21.603L9.37109 21.6032C9.18387 21.6968 8.99731 21.79 8.81111 21.8812C7.13133 22.7032 6.29145 23.1143 5.76437 22.7295C5.26144 22.3535 5.23931 21.6444 5.3794 20.8601C5.43726 20.5362 5.4662 20.3742 5.39574 20.2724C5.32529 20.1707 5.16308 20.1408 4.83865 20.0808C3.78236 19.8857 2.96538 19.4966 2.38444 18.9136C1.125 17.6495 1.125 15.615 1.125 11.5461V11.0066C1.125 6.93761 1.125 4.90313 2.38444 3.63907C3.64388 2.375 5.67092 2.375 9.725 2.375H14.025C14.2842 2.375 14.535 2.375 14.7779 2.37533C15.059 2.37571 15.1996 2.3759 15.2873 2.46375ZM7.875 8.375C7.46079 8.375 7.125 8.71079 7.125 9.125C7.125 9.53921 7.46079 9.875 7.875 9.875H10.875C11.2892 9.875 11.625 9.53921 11.625 9.125C11.625 8.71079 11.2892 8.375 10.875 8.375H7.875ZM7.875 13.375C7.46079 13.375 7.125 13.7108 7.125 14.125C7.125 14.5392 7.46079 14.875 7.875 14.875H13.875C14.2892 14.875 14.625 14.5392 14.625 14.125C14.625 13.7108 14.2892 13.375 13.875 13.375H7.875Z" fill="#141B34"/>
</svg>
