<svg width="24" height="24" viewBox="0 0 24 24" fill="none" xmlns="http://www.w3.org/2000/svg">
<path fill-rule="evenodd" clip-rule="evenodd" d="M10 14C10 13.4477 10.4477 13 11 13H13C13.5523 13 14 13.4477 14 14C14 14.5523 13.5523 15 13 15H11C10.4477 15 10 14.5523 10 14Z" fill="#141B34"/>
<path fill-rule="evenodd" clip-rule="evenodd" d="M10 1.99682C10.0018 2.5491 9.55547 2.99824 9.00318 2.99999C7.68287 3.0042 6.73643 3.02687 5.99979 3.12783C5.28059 3.2264 4.83666 3.39097 4.49248 3.63196C4.15804 3.86614 3.86715 4.15703 3.63297 4.49148C3.36317 4.87679 3.18926 5.38671 3.09622 6.26941C3.0013 7.16991 3 8.33776 3 9.999C3 11.6602 3.0013 12.8281 3.09622 13.7286C3.18926 14.6113 3.36317 15.1212 3.63297 15.5065C3.86715 15.841 4.15804 16.1318 4.49248 16.366C4.8778 16.6358 5.38772 16.8097 6.27041 16.9028C7.17091 16.9977 8.33876 16.999 10 16.999H14C15.6612 16.999 16.8291 16.9977 17.7296 16.9028C18.6123 16.8097 19.1222 16.6358 19.5075 16.366C19.842 16.1318 20.1329 15.841 20.367 15.5065C20.608 15.1623 20.7726 14.7184 20.8712 13.9992C20.9721 13.2626 20.9948 12.3161 20.999 10.9958C21.0008 10.4435 21.4499 9.99724 22.0022 9.999C22.5545 10.0008 23.0007 10.4499 22.999 11.0022C22.9948 12.3073 22.9744 13.3826 22.8526 14.2708C22.7285 15.1764 22.4909 15.9602 22.0053 16.6537C21.6373 17.1792 21.1802 17.6363 20.6547 18.0043C19.8777 18.5483 18.9867 18.7813 17.9392 18.8918C16.9216 18.999 15.6482 18.999 14.0567 18.999H13.4C13.0229 18.999 13 19.0219 13 19.399V19.999C13 20.8263 13.1727 20.999 14 20.999H16C16.5523 20.999 17 21.4467 17 21.999C17 22.5513 16.5523 22.999 16 22.999H8C7.44772 22.999 7 22.5513 7 21.999C7 21.4467 7.44772 20.999 8 20.999H10C10.8273 20.999 11 20.8263 11 19.999V19.399C11 19.0219 10.9771 18.999 10.6 18.999H9.94335C8.35183 18.999 7.07839 18.999 6.06076 18.8918C5.01328 18.7813 4.12227 18.5483 3.34533 18.0043C2.81978 17.6363 2.36266 17.1792 1.99466 16.6537C1.45065 15.8767 1.21765 14.9857 1.10724 13.9382C0.999973 12.9206 0.999985 11.6472 1 10.0557V9.94227C0.999985 8.35078 0.999973 7.07737 1.10724 6.05976C1.21765 5.01227 1.45065 4.12126 1.99466 3.34433C2.36266 2.81877 2.81978 2.36166 3.34533 1.99366C4.03875 1.50812 4.82263 1.27047 5.72822 1.14635C6.61636 1.02463 7.69168 1.00416 8.99682 1.00001C9.5491 0.998247 9.99824 1.44453 10 1.99682Z" fill="#141B34"/>
<path fill-rule="evenodd" clip-rule="evenodd" d="M16.2957 1H15.7043C14.9183 0.99998 14.2627 0.999962 13.7422 1.0612C13.1991 1.12509 12.6894 1.26594 12.2687 1.63406C11.8336 2.0148 11.6527 2.49838 11.5728 3.0184C11.4999 3.49266 11.5 4.08285 11.5 4.75767V5.74233C11.5 6.41715 11.4999 7.00734 11.5728 7.4816C11.6527 8.00163 11.8336 8.48521 12.2687 8.86594C12.6894 9.23407 13.1991 9.37492 13.7422 9.43881C14.2627 9.50005 14.9183 9.50003 15.7043 9.5H16.2957C17.0817 9.50003 17.7373 9.50005 18.2579 9.43881C18.8009 9.37492 19.3106 9.23407 19.7313 8.86594C20.0399 8.59597 20.2206 8.27429 20.3281 7.92458C20.461 8.01012 20.587 8.08562 20.7058 8.14841C21.0766 8.34444 21.5857 8.5317 22.1234 8.29848C22.6917 8.05198 22.8703 7.52506 22.9373 7.11029C23.0002 6.72117 23.0002 6.21155 23.0001 5.65184V4.84823C23.0002 4.28852 23.0002 3.77889 22.9373 3.38976C22.8703 2.975 22.6917 2.44808 22.1234 2.20158C21.5857 1.96836 21.0766 2.15562 20.7058 2.35165C20.587 2.41444 20.461 2.48994 20.3281 2.57547C20.2206 2.22574 20.0399 1.90404 19.7313 1.63406C19.3106 1.26594 18.8009 1.12509 18.2579 1.0612C17.7373 0.999962 17.0817 0.99998 16.2957 1ZM20.499 4.28104C20.5 4.43462 20.5 4.59365 20.5 4.75768V5.74233C20.5 5.90638 20.5 6.06542 20.499 6.21902C20.9085 6.5131 21.1881 6.7067 21.4068 6.82229C21.426 6.83246 21.4437 6.84142 21.4599 6.84932C21.4978 6.59477 21.5001 6.21376 21.5001 5.59212V4.90794C21.5001 4.2863 21.4978 3.90528 21.4599 3.65074C21.4437 3.65863 21.426 3.6676 21.4068 3.67777C21.1881 3.79336 20.9085 3.98696 20.499 4.28104Z" fill="#141B34"/>
</svg>
