<svg width="24" height="24" viewBox="0 0 24 24" fill="none" xmlns="http://www.w3.org/2000/svg">
<path fill-rule="evenodd" clip-rule="evenodd" d="M12.0452 2.25H12.0453C13.8818 2.24999 15.3214 2.24999 16.4635 2.37373C17.6291 2.50001 18.5734 2.76232 19.3798 3.34815C19.8679 3.70281 20.2972 4.13209 20.6518 4.62024C21.2377 5.42656 21.5 6.37094 21.6263 7.53648C21.75 8.6786 21.75 10.2087 21.75 12.0452V12.0453V12.0453C21.75 13.8818 21.75 15.3214 21.6263 16.4635C21.5 17.6291 21.2377 18.5734 20.6518 19.3798C20.2972 19.8679 19.8679 20.2972 19.3798 20.6518C18.5734 21.2377 17.6291 21.5 16.4635 21.6263C15.3214 21.75 13.7913 21.75 11.9548 21.75H11.9547H11.9547C10.1182 21.75 8.67859 21.75 7.53648 21.6263C6.37094 21.5 5.42656 21.2377 4.62024 20.6518C4.13209 20.2972 3.70281 19.8679 3.34815 19.3798C2.76232 18.5734 2.50001 17.6291 2.37373 16.4635C2.24999 15.3214 2.24999 13.8818 2.25 12.0453V12.0452C2.24999 10.2087 2.24999 8.67861 2.37373 7.53648C2.50001 6.37094 2.76232 5.42656 3.34815 4.62024C3.70281 4.13209 4.13209 3.70281 4.62024 3.34815C5.42656 2.76232 6.37094 2.50001 7.53648 2.37373C8.67861 2.24999 10.2087 2.24999 12.0452 2.25ZM6.24255 6.34714C6.60313 5.9288 7.23456 5.88198 7.6529 6.24255L8.91648 7.33166L8.91648 7.33166C9.14151 7.52548 9.3806 7.7314 9.55543 7.92891C9.75311 8.15222 10 8.50662 10 9.00002C10 9.49341 9.75311 9.84782 9.55543 10.0711C9.38061 10.2686 9.14153 10.4745 8.91651 10.6684L8.91649 10.6684L7.6529 11.7575C7.23456 12.1181 6.60313 12.0712 6.24255 11.6529C5.88198 11.2346 5.9288 10.6031 6.34714 10.2426L7.57368 9.18536C7.65525 9.11506 7.72557 9.05441 7.7876 9.00002C7.72557 8.94562 7.65525 8.88498 7.57368 8.81467L6.34714 7.75748C5.9288 7.3969 5.88198 6.76547 6.24255 6.34714ZM12 10C11.4477 10 11 10.4477 11 11C11 11.5523 11.4477 12 12 12H15C15.5523 12 16 11.5523 16 11C16 10.4477 15.5523 10 15 10H12Z" fill="#141B34"/>
</svg>
