<svg width="24" height="24" viewBox="0 0 24 24" fill="none" xmlns="http://www.w3.org/2000/svg">
<path fill-rule="evenodd" clip-rule="evenodd" d="M13.4142 17.2069C12.6332 16.4258 11.3668 16.4258 10.5858 17.2069C9.80474 17.9879 9.80474 19.2543 10.5858 20.0353C11.3668 20.8164 12.6332 20.8164 13.4142 20.0353C13.541 19.9085 13.6472 19.7691 13.7329 19.6211H12C11.4477 19.6211 11 19.1734 11 18.6211C11 18.0688 11.4477 17.6211 12 17.6211H13.7329C13.6472 17.4731 13.541 17.3337 13.4142 17.2069ZM9.17157 15.7927C10.7337 14.2306 13.2663 14.2306 14.8284 15.7927C15.6093 16.5735 16 17.599 16 18.6211C16 19.6432 15.6093 20.6687 14.8284 21.4495C13.2663 23.0116 10.7337 23.0116 9.17157 21.4495C7.60948 19.8874 7.60948 17.3548 9.17157 15.7927Z" fill="#141B34"/>
<path fill-rule="evenodd" clip-rule="evenodd" d="M10.6329 1.26125C10.8036 1.16938 11.0002 1.29839 11.0002 1.49223V5.62109C11.0002 6.17338 11.4479 6.62109 12.0002 6.62109C12.5525 6.62109 13.0002 6.17338 13.0002 5.62109V1.49194C13.0002 1.29834 13.1966 1.16949 13.3671 1.26125C13.7764 1.48155 14.2403 1.80222 14.7915 2.18327L20.3831 6.04843C20.9802 6.46104 21.5014 6.82129 21.8831 7.19115C22.3058 7.60076 22.5997 8.05973 22.7062 8.67564C22.8058 9.25168 22.7327 9.73836 22.5132 10.2227C22.3225 10.6433 22.0174 11.0635 21.692 11.5117L21.6583 11.5581C19.5428 14.4727 15.9989 16.3711 12 16.3711C8.00107 16.3711 4.45718 14.4727 2.34168 11.5581L2.30796 11.5116C1.98253 11.0635 1.67745 10.6433 1.4868 10.2227C1.26725 9.73836 1.19413 9.25168 1.29372 8.67564C1.40021 8.05973 1.69418 7.60076 2.11687 7.19115C2.49853 6.8213 3.01979 6.46105 3.61679 6.04845L3.66313 6.01642L9.20846 2.18328C9.75969 1.80222 10.2236 1.48156 10.6329 1.26125ZM11 8.62109C11 8.06881 11.4477 7.62109 12 7.62109H12.009C12.5613 7.62109 13.009 8.06881 13.009 8.62109C13.009 9.17338 12.5613 9.62109 12.009 9.62109H12C11.4477 9.62109 11 9.17338 11 8.62109ZM12 10.6211C11.4477 10.6211 11 11.0688 11 11.6211C11 12.1734 11.4477 12.6211 12 12.6211H12.009C12.5613 12.6211 13.009 12.1734 13.009 11.6211C13.009 11.0688 12.5613 10.6211 12.009 10.6211H12Z" fill="#141B34"/>
</svg>
