<svg width="24" height="24" viewBox="0 0 24 24" fill="none" xmlns="http://www.w3.org/2000/svg">
<path d="M11.414 1.24991H12.5861C12.8889 1.24985 13.1924 1.24979 13.4504 1.27931C13.7452 1.31305 14.0763 1.39349 14.3889 1.61939C14.7014 1.84517 14.8819 2.13425 15.0068 2.4034L15.6386 4.20466C15.7122 4.38681 15.8386 4.54221 16.0012 4.65084L16.2831 4.81359C16.477 4.90834 16.6967 4.93569 16.9076 4.89143L18.0712 4.56351L18.0723 4.56322C18.386 4.47408 18.74 4.37349 19.0128 4.33015C19.324 4.28071 19.6874 4.27074 20.0685 4.42581C20.4494 4.58083 20.7028 4.84167 20.8912 5.09415C21.0566 5.31568 21.7439 6.50922 21.9069 6.79241C22.0596 7.05753 22.2125 7.32275 22.3164 7.56287C22.4351 7.8371 22.5311 8.16632 22.4906 8.55224C22.4501 8.9382 22.2877 9.24027 22.1146 9.48382C21.963 9.69703 21.7585 9.92458 21.554 10.152L20.5472 11.278C20.4615 11.4004 20.3485 11.7043 20.3485 11.9997C20.3485 12.2955 20.4615 12.5993 20.5472 12.7217C20.7517 12.9491 21.963 14.3027 22.1146 14.5159C22.2877 14.7595 22.4501 15.0615 22.4906 15.4475C22.5311 15.8334 22.4351 16.1626 22.3164 16.4369C22.2125 16.677 22.0596 16.9422 21.9069 17.2073C21.9069 17.2073 21.0566 18.684 20.8912 18.9056C20.7028 19.158 20.4494 19.4189 20.0685 19.5739C19.6874 19.729 19.324 19.719 19.0128 19.6696C18.74 19.6262 18.4275 19.5374 18.1138 19.4483L16.9077 19.1083C16.6967 19.064 16.4769 19.0913 16.283 19.1861L16.0011 19.3489C15.8386 19.4575 15.7122 19.6129 15.6386 19.7951L15.3077 20.7841C15.3077 20.7841 15.1162 21.3607 15.0068 21.5964C14.8819 21.8656 14.7014 22.1546 14.3889 22.3804C14.0763 22.6063 13.7452 22.6868 13.4504 22.7205C13.1924 22.75 12.8889 22.75 12.5861 22.7499H11.414C11.1111 22.75 10.8076 22.75 10.5497 22.7205C10.2549 22.6868 9.92378 22.6063 9.61115 22.3804C9.29868 22.1546 9.11818 21.8656 8.99328 21.5964C8.8839 21.3607 8.6792 20.7447 8.6792 20.7447C8.50892 20.2325 8.78582 19.6792 9.29767 19.5089C9.80953 19.3385 10.3625 19.6155 10.5328 20.1277C10.6471 20.4715 10.7084 20.6512 10.7651 20.7733C11.1267 20.7733 13.0951 20.7939 13.2283 20.7786L13.8083 19.1114C14.0322 18.5274 14.4367 18.0302 14.9631 17.6929L15.3725 17.4566C15.9867 17.1407 16.6926 17.0526 17.3656 17.2079C17.7393 17.314 19.176 17.7165 19.3191 17.7392L20.5226 15.6487C20.444 15.5381 20.3173 15.3949 20.0734 15.1235L19.0262 13.9493C18.6205 13.4355 18.3951 12.6676 18.3951 11.9997C18.3951 11.3321 18.6206 10.5641 19.0262 10.0504L20.5226 8.35106C20.3285 8.01394 19.4131 6.38031 19.3261 6.26373L17.3655 6.79182C16.6927 6.94706 15.9869 6.85897 15.3727 6.54326L14.9633 6.307C14.4368 5.96962 14.0322 5.47239 13.8083 4.88835C13.694 4.54451 13.2916 3.34866 13.235 3.2265C12.8733 3.2265 10.9049 3.20595 10.7717 3.22119L10.1918 4.88835C9.96788 5.47239 9.56326 5.96962 9.03677 6.307L8.62731 6.54326C8.01318 6.85897 7.30735 6.94706 6.63455 6.79182C6.26086 6.68572 4.8241 6.28326 4.68092 6.26051L3.47742 8.35106C3.55602 8.46164 4.72996 9.77904 4.97385 10.0504C5.37941 10.5641 5.605 11.3321 5.605 11.9997C5.605 12.6676 5.37951 13.4355 4.97388 13.9493L3.92833 15.1216L3.92661 15.1235C3.68273 15.3949 3.52536 15.5842 3.44677 15.6948C3.36992 16.2092 2.90081 16.5764 2.3788 16.5215C1.84231 16.4651 1.4531 15.9843 1.50946 15.4475C1.54998 15.0615 1.71236 14.7595 1.88547 14.5159C2.03702 14.3027 2.2416 14.0752 2.44604 13.8478L3.45284 12.7217C3.53853 12.5993 3.65152 12.2955 3.65152 11.9997C3.65152 11.7043 3.53851 11.4004 3.45282 11.278C3.24837 11.0506 2.03702 9.69704 1.88547 9.48382C1.71236 9.24027 1.54998 8.93821 1.50946 8.55225C1.46894 8.16633 1.565 7.8371 1.68368 7.56287C1.78759 7.32276 1.9404 7.05755 2.09315 6.79244L2.61822 5.88072C2.78124 5.59751 2.94347 5.31569 3.10884 5.09415C3.29731 4.84167 3.55064 4.58083 3.93156 4.42581C4.31264 4.27074 4.67606 4.28071 4.98724 4.33015C5.26007 4.37349 5.61426 4.47413 5.92796 4.56327L7.09243 4.89143C7.30337 4.93569 7.52306 4.90835 7.71695 4.81359L7.99887 4.65084C8.16141 4.54221 8.28787 4.38681 8.36145 4.20466L8.6792 3.25516C8.77495 2.96699 8.8839 2.63911 8.99328 2.4034C9.11818 2.13425 9.29868 1.84517 9.61115 1.61939C9.92378 1.39349 10.2549 1.31305 10.5497 1.27931C10.8076 1.24979 11.1111 1.24985 11.414 1.24991Z" fill="#141B34"/>
<path d="M15.469 15.4281C14.7551 16.1418 13.4893 16.2052 11.6045 16.21C11.1937 16.211 10.9884 16.2116 10.8053 16.2877C10.6222 16.3638 10.4781 16.5079 10.19 16.7961L5.55372 21.433C4.79796 22.1888 3.57263 22.1888 2.81688 21.433C2.06112 20.6772 2.06112 19.4519 2.81688 18.6962L7.45395 14.0588C7.74207 13.7707 7.88613 13.6266 7.96222 13.4436C8.03832 13.2605 8.03884 13.0552 8.03989 12.6445C8.04469 10.7608 8.10809 9.49445 8.8219 8.78076C9.63574 7.96706 9.99518 8 13.6004 8C13.9488 7.99851 14.1241 8.41985 13.8778 8.6662L12.0215 10.5226C11.5504 10.9938 11.5491 11.7577 12.0203 12.2289C12.4915 12.7 13.2555 12.7001 13.7268 12.229L15.5836 10.373C15.8299 10.1267 16.2514 10.3021 16.2499 10.6504C16.2499 14.255 16.2828 14.6144 15.469 15.4281Z" fill="#141B34"/>
</svg>
