<svg width="24" height="24" viewBox="0 0 24 24" fill="none" xmlns="http://www.w3.org/2000/svg">
<path d="M14.9342 17.5173L14.3079 17.726C13.4855 18.0002 13.0742 18.1373 12.8571 17.9202C12.6401 17.7031 12.7771 17.2919 13.0513 16.4694L13.2601 15.8431C13.3339 15.6216 13.3708 15.5109 13.4316 15.4125C13.4924 15.3141 13.575 15.2315 13.7401 15.0664L18.4843 10.3223L20.4551 12.2931L15.7109 17.0373C15.5458 17.2024 15.4633 17.2849 15.3649 17.3457C15.2665 17.4065 15.1557 17.4434 14.9342 17.5173Z" fill="#141B34"/>
<path d="M21.5158 11.2324L22.1728 10.5754C22.4414 10.3068 22.5757 10.1725 22.6475 10.0276C22.7842 9.75186 22.7842 9.42817 22.6475 9.15247C22.5757 9.00757 22.4414 8.87325 22.1728 8.60461C21.9041 8.33595 21.7698 8.20162 21.6249 8.12981C21.3492 7.99319 21.0255 7.99319 20.7498 8.12981C20.6049 8.20161 20.4706 8.33594 20.2019 8.60458L19.5449 9.2616L21.5158 11.2324Z" fill="#141B34"/>
<path fill-rule="evenodd" clip-rule="evenodd" d="M12.0549 1.25C13.4225 1.24998 14.5248 1.24997 15.3918 1.36653C16.2919 1.48754 17.0497 1.74644 17.6517 2.34835C18.2536 2.95027 18.5125 3.70814 18.6335 4.60825C18.75 5.47522 18.75 6.57754 18.75 7.94513V8.28811L12.8207 14.2172C12.6941 14.3429 12.5089 14.5268 12.3677 14.7553C12.2809 14.8957 12.2129 15.0771 12.1912 15.1349L11.8436 16.1378C11.7254 16.4918 11.5966 16.8777 11.5387 17.2029C11.479 17.5387 11.4122 18.2436 11.9727 18.8041C12.5331 19.3646 13.2381 19.2978 13.5739 19.238C13.8991 19.1802 14.285 19.0513 14.639 18.9332L15.6418 18.5855C15.6996 18.5638 15.881 18.4958 16.0215 18.409C16.25 18.2678 16.4338 18.0826 16.5595 17.956L18.75 15.7655V16.0549C18.75 17.4225 18.75 18.5248 18.6335 19.3918C18.5125 20.2919 18.2536 21.0497 17.6517 21.6517C17.0497 22.2536 16.2919 22.5125 15.3918 22.6335C14.5248 22.75 13.4225 22.75 12.0549 22.75H7.94513C6.57754 22.75 5.47522 22.75 4.60825 22.6335C3.70814 22.5125 2.95027 22.2536 2.34835 21.6517C1.74643 21.0497 1.48754 20.2919 1.36653 19.3918C1.24997 18.5248 1.24998 17.4225 1.25 16.0549V16.0549V7.94511V7.9451C1.24998 6.57752 1.24997 5.47521 1.36653 4.60825C1.48754 3.70814 1.74644 2.95027 2.34835 2.34835C2.95027 1.74644 3.70814 1.48754 4.60825 1.36653C5.47521 1.24997 6.57754 1.24998 7.94511 1.25H7.94513H12.0549H12.0549ZM7.92082 16.1646C7.79378 15.9105 7.53408 15.75 7.25 15.75C6.96592 15.75 6.70622 15.9105 6.57918 16.1646L5.53647 18.25H5C4.58579 18.25 4.25 18.5858 4.25 19C4.25 19.4142 4.58579 19.75 5 19.75H6C6.28408 19.75 6.54378 19.5895 6.67082 19.3354L7.25 18.1771L7.82918 19.3354C7.95622 19.5895 8.21592 19.75 8.5 19.75H9.5C9.91421 19.75 10.25 19.4142 10.25 19C10.25 18.5858 9.91421 18.25 9.5 18.25H8.96353L7.92082 16.1646ZM5.25 6C5.25 5.58579 5.58579 5.25 6 5.25H14C14.4142 5.25 14.75 5.58579 14.75 6C14.75 6.41421 14.4142 6.75 14 6.75H6C5.58579 6.75 5.25 6.41421 5.25 6ZM6 9.25C5.58579 9.25 5.25 9.58579 5.25 10C5.25 10.4142 5.58579 10.75 6 10.75H12C12.4142 10.75 12.75 10.4142 12.75 10C12.75 9.58579 12.4142 9.25 12 9.25H6Z" fill="#141B34"/>
</svg>
