<svg width="24" height="24" viewBox="0 0 24 24" fill="none" xmlns="http://www.w3.org/2000/svg">
<path fill-rule="evenodd" clip-rule="evenodd" d="M2.91157 7.9678C2.74998 9.24043 2.74999 10.8704 2.75 12.9459V12.9459C2.74999 15.0214 2.74998 16.7596 2.91157 18.0322C3.07678 19.3333 3.42236 20.3741 4.19954 21.1969C4.98243 22.0259 5.98228 22.4 7.23089 22.5778C8.44104 22.75 10.1068 22.75 12.0596 22.75C14.0125 22.75 15.559 22.75 16.7691 22.5778C18.0177 22.4 19.0176 22.0259 19.8005 21.1969C20.5776 20.3741 20.9232 19.3333 21.0884 18.0322C21.25 16.7596 21.25 15.0214 21.25 12.9459V12.9459V12.9459C21.25 10.8704 21.25 9.24043 21.0884 7.9678C20.9232 6.66674 20.5776 5.62594 19.8005 4.80305C19.0176 3.97411 18.0177 3.59998 16.7691 3.42224C15.559 3.24997 14.0125 3.24998 12.0597 3.25H12.0596H12.0596H12.0596C10.1067 3.24998 8.44103 3.24997 7.23089 3.42224C5.98228 3.59999 4.98243 3.97411 4.19954 4.80305C3.42236 5.62594 3.07678 6.66674 2.91157 7.9678ZM12.0001 6.75C10.4813 6.75 9.2501 7.98122 9.2501 9.5C9.2501 11.0188 10.4813 12.25 12.0001 12.25C13.5189 12.25 14.7501 11.0188 14.7501 9.5C14.7501 7.98122 13.5189 6.75 12.0001 6.75ZM16.2143 15.6697C15.8435 15.2614 15.1375 14.8137 14.8275 14.6177C13.1004 13.4608 10.8998 13.4608 9.17272 14.6177C8.86266 14.8137 8.15667 15.2614 7.78592 15.6697C7.55059 15.9288 7.30253 16.2967 7.25726 16.7626C7.20867 17.2627 7.40665 17.7221 7.76846 18.1099C8.31558 18.6963 9.04719 19.25 10.0405 19.25H13.9597C14.953 19.25 15.6846 18.6963 16.2317 18.1099C16.5935 17.7221 16.7915 17.2627 16.7429 16.7626C16.6977 16.2967 16.4496 15.9288 16.2143 15.6697Z" fill="#141B34"/>
<path fill-rule="evenodd" clip-rule="evenodd" d="M8 1.25C8.55228 1.25 9 1.69772 9 2.25V4.25C9 4.80228 8.55228 5.25 8 5.25C7.44772 5.25 7 4.80228 7 4.25V2.25C7 1.69772 7.44772 1.25 8 1.25ZM16 1.25C16.5523 1.25 17 1.69772 17 2.25V4.25C17 4.80228 16.5523 5.25 16 5.25C15.4477 5.25 15 4.80228 15 4.25V2.25C15 1.69772 15.4477 1.25 16 1.25Z" fill="#141B34"/>
</svg>
