<svg width="24" height="24" viewBox="0 0 24 24" fill="none" xmlns="http://www.w3.org/2000/svg">
<path fill-rule="evenodd" clip-rule="evenodd" d="M10.2762 5.90347C9.62098 7.36732 9.08458 9.52486 8.65637 12.2032C8.65413 12.2172 8.65179 12.2319 8.64936 12.2471C8.51396 13.0952 8.08216 15.7998 7.16638 18.0883C6.70639 19.2377 6.07341 20.4173 5.18696 21.1752C4.72915 21.5667 4.17757 21.868 3.53192 21.9662C2.88074 22.0653 2.21748 21.945 1.56429 21.6288C1.06719 21.3882 0.859277 20.7902 1.09991 20.2931C1.34055 19.7959 1.93861 19.588 2.43571 19.8287C2.78252 19.9966 3.03837 20.0183 3.23102 19.989C3.42919 19.9588 3.64616 19.8613 3.8872 19.6552C4.39846 19.218 4.88446 18.4074 5.30953 17.3452C6.14128 15.2667 6.54524 12.7396 6.67855 11.9056L6.68145 11.8874C7.11776 9.15848 7.68668 6.79336 8.45075 5.08637C9.17575 3.46665 10.2829 2 12 2C13.7171 2 14.8242 3.46665 15.5493 5.08637C16.3133 6.79336 16.8822 9.15848 17.3185 11.8874L17.3214 11.9056C17.4548 12.7396 17.8587 15.2667 18.6905 17.3452C19.1155 18.4074 19.6015 19.218 20.1128 19.6552C20.3538 19.8613 20.5708 19.9588 20.769 19.989C20.9616 20.0183 21.2175 19.9966 21.5643 19.8287C22.0614 19.588 22.6595 19.7959 22.9001 20.2931C23.1407 20.7902 22.9328 21.3882 22.4357 21.6288C21.7825 21.945 21.1193 22.0653 20.4681 21.9662C19.8224 21.868 19.2709 21.5667 18.813 21.1752C17.9266 20.4173 17.2936 19.2377 16.8336 18.0883C15.9178 15.7998 15.486 13.0952 15.3506 12.2471C15.3482 12.2319 15.3459 12.2172 15.3436 12.2032C14.9154 9.52486 14.379 7.36732 13.7238 5.90347C13.0295 4.35236 12.4034 4 12 4C11.5966 4 10.9705 4.35236 10.2762 5.90347Z" fill="#141B34"/>
<path fill-rule="evenodd" clip-rule="evenodd" d="M1 12C1 11.4477 1.44772 11 2 11H4.5C5.05228 11 5.5 11.4477 5.5 12C5.5 12.5523 5.05228 13 4.5 13H2C1.44772 13 1 12.5523 1 12ZM9.5 12C9.5 11.4477 9.94772 11 10.5 11H13.5C14.0523 11 14.5 11.4477 14.5 12C14.5 12.5523 14.0523 13 13.5 13H10.5C9.94772 13 9.5 12.5523 9.5 12ZM18.5 12C18.5 11.4477 18.9477 11 19.5 11H22C22.5523 11 23 11.4477 23 12C23 12.5523 22.5523 13 22 13H19.5C18.9477 13 18.5 12.5523 18.5 12Z" fill="#141B34"/>
</svg>
