<svg width="24" height="24" viewBox="0 0 24 24" fill="none" xmlns="http://www.w3.org/2000/svg">
<path fill-rule="evenodd" clip-rule="evenodd" d="M13.5476 3.25C15.3866 3.24999 16.8308 3.24998 17.9694 3.3786C19.1316 3.50988 20.074 3.78362 20.8574 4.40228C21.0919 4.58749 21.3093 4.79205 21.507 5.0138C22.1732 5.76101 22.4707 6.66669 22.6124 7.77785C22.6287 7.9057 22.6368 7.96963 22.6222 8.02578C22.5987 8.11553 22.5299 8.19375 22.4438 8.22835C22.39 8.25 22.3226 8.25 22.1878 8.25H1.81224H1.81223C1.67746 8.25 1.61007 8.25 1.55622 8.22835C1.47015 8.19375 1.40128 8.11553 1.37784 8.02578C1.36318 7.96963 1.37133 7.9057 1.38764 7.77785C1.52933 6.66669 1.82682 5.76101 2.49299 5.0138C2.69069 4.79205 2.90812 4.58749 3.14264 4.40228C3.92602 3.78362 4.86843 3.50988 6.03059 3.3786C7.16918 3.24998 8.61347 3.24999 10.4525 3.25H13.5476ZM22.75 12.0527C22.75 13.7768 22.75 15.1427 22.6124 16.2222C22.4707 17.3333 22.1732 18.239 21.507 18.9862C21.3093 19.2079 21.0919 19.4125 20.8574 19.5977C20.074 20.2164 19.1316 20.4901 17.9694 20.6214C16.8308 20.75 15.3866 20.75 13.5475 20.75H10.4525C8.61345 20.75 7.16917 20.75 6.03058 20.6214C4.86842 20.4901 3.926 20.2164 3.14263 19.5977C2.90811 19.4125 2.69068 19.2079 2.49298 18.9862C1.82681 18.239 1.52932 17.3333 1.38763 16.2222C1.24998 15.1427 1.24999 13.7767 1.25 12.0527V11.9473C1.25 11.3715 1.24999 10.8357 1.25512 10.3371C1.25795 10.0614 1.25937 9.92356 1.34704 9.83678C1.43472 9.75 1.57361 9.75 1.85139 9.75H22.1486C22.4264 9.75 22.5653 9.75 22.653 9.83678C22.7406 9.92356 22.7421 10.0614 22.7449 10.3371C22.75 10.8355 22.75 11.3712 22.75 11.9467V11.9468V11.947V11.9471V11.9472V12.0527ZM10.25 16C10.25 15.5858 10.5858 15.25 11 15.25H12.5C12.9142 15.25 13.25 15.5858 13.25 16C13.25 16.4142 12.9142 16.75 12.5 16.75H11C10.5858 16.75 10.25 16.4142 10.25 16ZM15.5 15.25C15.0858 15.25 14.75 15.5858 14.75 16C14.75 16.4142 15.0858 16.75 15.5 16.75H19C19.4142 16.75 19.75 16.4142 19.75 16C19.75 15.5858 19.4142 15.25 19 15.25H15.5Z" fill="#141B34"/>
</svg>
