<svg width="24" height="24" viewBox="0 0 24 24" fill="none" xmlns="http://www.w3.org/2000/svg">
<path fill-rule="evenodd" clip-rule="evenodd" d="M12 1.25C6.06294 1.25 1.25 6.06294 1.25 12C1.25 14.9288 2.42126 17.5841 4.32094 19.5229C4.6915 19.9011 4.87678 20.0902 5.06339 20.0141C5.25 19.9379 5.25 19.6623 5.25 19.1111L5.25 13C5.25 12.5858 5.58579 12.25 6 12.25C6.41421 12.25 6.75 12.5858 6.75 13L6.75 21.0316C6.75 21.2046 6.75 21.2912 6.79366 21.363C6.83732 21.4348 6.91131 21.4732 7.05931 21.5499C8.53859 22.3167 10.2187 22.75 12 22.75C13.7813 22.75 15.4614 22.3167 16.9407 21.5499C17.0887 21.4732 17.1627 21.4348 17.2063 21.363C17.25 21.2912 17.25 21.2046 17.25 21.0316V13C17.25 12.5858 17.5858 12.25 18 12.25C18.4142 12.25 18.75 12.5858 18.75 13V19.1111C18.75 19.6623 18.75 19.9379 18.9366 20.0141C19.1232 20.0902 19.3085 19.9011 19.6791 19.5229C21.5787 17.5841 22.75 14.9288 22.75 12C22.75 6.06294 17.9371 1.25 12 1.25ZM12 14.25C10.7064 14.25 9.5106 14.6782 8.54954 15.4002C8.21838 15.649 8.15161 16.1192 8.40042 16.4503C8.64922 16.7815 9.11938 16.8483 9.45054 16.5995C10.1607 16.0659 11.0424 15.75 12 15.75C12.9577 15.75 13.8393 16.0659 14.5495 16.5995C14.8807 16.8483 15.3509 16.7815 15.5997 16.4503C15.8485 16.1192 15.7817 15.649 15.4505 15.4002C14.4895 14.6782 13.2937 14.25 12 14.25ZM6.46967 9.46967C6.93047 9.00887 7.55544 8.75 8.20711 8.75L9.5 8.75C9.91421 8.75 10.25 9.08579 10.25 9.5C10.25 9.91421 9.91421 10.25 9.5 10.25L8.20711 10.25C7.95327 10.25 7.70982 10.3508 7.53033 10.5303C7.23744 10.8232 6.76256 10.8232 6.46967 10.5303C6.17678 10.2374 6.17678 9.76256 6.46967 9.46967ZM13.75 9.5C13.75 9.08579 14.0858 8.75 14.5 8.75H15.7929C16.4446 8.75 17.0695 9.00887 17.5303 9.46967C17.8232 9.76256 17.8232 10.2374 17.5303 10.5303C17.2374 10.8232 16.7626 10.8232 16.4697 10.5303C16.2902 10.3508 16.0467 10.25 15.7929 10.25H14.5C14.0858 10.25 13.75 9.91421 13.75 9.5Z" fill="#141B34"/>
</svg>
