<svg width="24" height="24" viewBox="0 0 24 24" fill="none" xmlns="http://www.w3.org/2000/svg">
<path d="M12 1.25C11.6967 1.25 11.4232 1.43273 11.3071 1.71299C11.191 1.99324 11.2552 2.31583 11.4697 2.53033C11.5525 2.60649 11.6461 2.83043 11.3586 3.11697C11.0192 3.52898 10.3785 3.97225 9.66459 4.32918C8.52386 4.69703 7.53292 5.86957 7.21415 7.02498C7.05569 7.6624 7.08564 8.08959 7.19006 8.3724C7.2875 8.63632 7.47824 8.85322 7.8237 9.02624C8.58118 9.40563 9.94052 9.50158 11.9071 9.25575C12.3181 9.20438 12.693 9.49592 12.7443 9.90694C12.7957 10.318 12.5042 10.6928 12.0932 10.7442C10.1008 10.9932 8.34217 10.9635 7.15196 10.3674C6.52358 10.0527 6.03303 9.56938 5.78291 8.89194C5.69473 8.65312 5.64065 8.40158 5.6172 8.13909C5.57017 7.61285 5.54665 7.34973 5.37287 7.28236C5.19909 7.21499 5.04663 7.35476 4.74172 7.6343C4.49556 7.85997 4.27902 8.11547 4.09522 8.38325C3.57419 9.14233 3.25 10.0913 3.25 11C3.25 11.9751 3.54516 12.9202 4.19832 13.6294C4.86079 14.3487 5.82262 14.75 7 14.75C8.03296 14.75 13.8857 14.0182 16.0034 13.7534L16.1471 13.7354C18.7963 13.2056 20.75 11.5291 20.75 9.5C20.75 8.17341 20.2037 7.08599 19.3065 6.3437C18.5905 5.75135 17.6796 5.40047 16.6971 5.28897C16.354 3.0029 14.3817 1.25 12 1.25Z" fill="#141B34"/>
<path d="M6.06032 17.0458L6.3409 18.2174C6.51707 18.953 6.65927 19.5468 6.81305 20.0231C6.97187 20.5151 7.15868 20.9347 7.44997 21.3057C7.80209 21.7542 8.24737 22.118 8.75515 22.3686C9.17813 22.5773 9.6222 22.6663 10.1246 22.7084C10.6081 22.7489 11.1975 22.7488 11.9212 22.7488H11.9859C12.7433 22.7488 13.3594 22.7489 13.8633 22.7055C14.3864 22.6605 14.8478 22.5652 15.2836 22.3413C15.8056 22.0732 16.2583 21.6847 16.6086 21.2084C16.8989 20.8137 17.0754 20.3695 17.2183 19.8499C17.3568 19.3463 17.477 18.719 17.6261 17.9409L18.0458 15.7502C18.137 15.2745 18.1826 15.0366 18.0587 14.9235C17.9349 14.8103 17.6899 14.8806 17.1998 15.0211C16.9489 15.093 16.6958 15.1544 16.4422 15.2051C15.3834 15.3375 13.1323 15.623 11.2692 15.8398C9.46782 16.0494 7.62889 16.2488 7.00094 16.2488C6.92257 16.2488 6.84457 16.2474 6.76699 16.2447C6.32659 16.2288 6.10639 16.2209 6.01215 16.3361C5.91792 16.4512 5.96538 16.6494 6.06032 17.0458Z" fill="#141B34"/>
</svg>
