<svg width="24" height="24" viewBox="0 0 24 24" fill="none" xmlns="http://www.w3.org/2000/svg">
<path d="M1.25 6C1.25 3.37665 3.37665 1.25 6 1.25C8.62335 1.25 10.75 3.37665 10.75 6C10.75 8.62335 8.62335 10.75 6 10.75C3.37665 10.75 1.25 8.62335 1.25 6Z" fill="#141B34"/>
<path d="M1.25 18C1.25 15.3766 3.37665 13.25 6 13.25C8.62335 13.25 10.75 15.3766 10.75 18C10.75 20.6234 8.62335 22.75 6 22.75C3.37665 22.75 1.25 20.6234 1.25 18Z" fill="#141B34"/>
<path d="M13.25 18C13.25 15.3766 15.3766 13.25 18 13.25C20.6234 13.25 22.75 15.3766 22.75 18C22.75 20.6234 20.6234 22.75 18 22.75C15.3766 22.75 13.25 20.6234 13.25 18Z" fill="#141B34"/>
<path d="M13.25 6C13.25 3.37665 15.3766 1.25 18 1.25C20.6234 1.25 22.75 3.37665 22.75 6C22.75 8.62335 20.6234 10.75 18 10.75C15.3766 10.75 13.25 8.62335 13.25 6Z" fill="#141B34"/>
</svg>
