<svg width="24" height="24" viewBox="0 0 24 24" fill="none" xmlns="http://www.w3.org/2000/svg">
<path fill-rule="evenodd" clip-rule="evenodd" d="M2 5C2 4.19711 2.43749 3.55194 2.96527 3.08401C3.49422 2.61504 4.20256 2.2384 4.99202 1.94235C6.57833 1.34749 8.70269 1 11 1C13.2973 1 15.4217 1.34749 17.008 1.94235C17.7974 2.2384 18.5058 2.61504 19.0347 3.08401C19.5625 3.55194 20 4.19711 20 5V9.98763C20 10.6889 19.9155 11.1623 19.5429 11.5753C19.4158 11.7162 19.3522 11.7867 19.2457 11.8025C19.1391 11.8183 19.022 11.7478 18.7879 11.6068C18.4118 11.3803 17.9711 11.25 17.5 11.25C16.4699 11.25 15.5853 11.8731 15.2025 12.7629C15.1775 12.8211 15.1649 12.8501 15.1537 12.8686C15.1296 12.9077 15.1104 12.9285 15.0731 12.9553C15.0556 12.9679 15.0302 12.9811 14.9796 13.0075C14.9251 13.0358 14.8979 13.05 14.8759 13.0574C14.8292 13.0732 14.7991 13.0766 14.75 13.0717C14.727 13.0694 14.6938 13.0608 14.6275 13.0436C13.7521 12.8166 12.8035 13.0816 12.1739 13.7563C12.0664 13.8715 12.0127 13.9291 11.9587 13.9538C11.9048 13.9785 11.8405 13.981 11.7119 13.986C11.4731 13.9953 11.2355 14 11 14C8.6113 14 6.01354 13.5188 4.0508 12.5952C3.64779 12.4055 3.28325 12.2037 2.95806 11.9907C2.15337 11.4637 2 10.9324 2 9.98763V5ZM5.57313 6.13845C4.97883 5.9045 4.55524 5.65279 4.29209 5.41948C3.9354 5.10324 3.9354 4.89676 4.29209 4.58052C4.57279 4.33166 5.03602 4.06185 5.69427 3.81501C7.0034 3.32409 8.87903 3 11 3C13.121 3 14.9966 3.32409 16.3057 3.81501C16.964 4.06185 17.4272 4.33166 17.7079 4.58052C18.0646 4.89676 18.0646 5.10324 17.7079 5.41948C17.4272 5.66834 16.964 5.93815 16.3057 6.18499C14.9966 6.67591 13.121 7 11 7C10.1029 7 9.24969 6.94202 8.46467 6.83796C7.48782 6.70847 6.52272 6.51225 5.57313 6.13845ZM6.21587 10.1237C5.81919 10.0045 5.40095 10.2294 5.2817 10.6261C5.16246 11.0228 5.38736 11.441 5.78404 11.5602C6.42365 11.7525 7.13136 11.9087 7.8874 12.0234C8.29692 12.0856 8.6793 11.804 8.74146 11.3945C8.80362 10.9849 8.52203 10.6026 8.11251 10.5404C7.41722 10.4349 6.77942 10.2932 6.21587 10.1237Z" fill="#141B34"/>
<path fill-rule="evenodd" clip-rule="evenodd" d="M11.7089 16.4654C11.6018 16.2197 11.5483 16.0968 11.4732 16.0478C11.398 15.9987 11.2848 15.9991 11.0583 15.9997C11.0389 15.9998 11.0194 15.9998 11 15.9998C8.346 15.9998 5.60931 15.5388 3.1992 14.4046C3.00604 14.3137 2.81512 14.2177 2.62747 14.1164C2.3392 13.9608 2.19506 13.883 2.09753 13.9412C2 13.9993 2 14.1584 2 14.4765V18.9998C2 19.8027 2.43749 20.4479 2.96527 20.9158C3.49422 21.3848 4.20256 21.7614 4.99202 22.0575C6.57833 22.6523 8.70269 22.9998 11 22.9998C12.3606 22.9998 13.6606 22.8779 14.824 22.6549C14.8724 22.6456 14.8967 22.641 14.9098 22.6341C14.968 22.6035 14.9811 22.5242 14.9357 22.4766C14.9255 22.4659 14.9037 22.4535 14.86 22.4288C14.8505 22.4234 14.8458 22.4207 14.8412 22.4187C14.8215 22.41 14.8012 22.4078 14.78 22.4123C14.7752 22.4134 14.7695 22.4152 14.7582 22.4188C13.7141 22.7514 12.5356 22.3649 11.9073 21.4027C11.331 20.5203 11.384 19.4089 11.9555 18.5964C12.0399 18.4764 12.0821 18.4165 12.0959 18.3667C12.1098 18.3169 12.1052 18.2509 12.0961 18.1188C12.0877 17.9968 12.0834 17.8739 12.0834 17.75C12.0834 17.6263 12.0877 17.5034 12.0961 17.3816C12.1052 17.2495 12.1098 17.1834 12.0959 17.1337C12.082 17.0839 12.0398 17.0239 11.9554 16.904C11.858 16.7656 11.7757 16.6185 11.7089 16.4654ZM6.21587 17.1237C5.81919 17.0045 5.40095 17.2294 5.2817 17.6261C5.16246 18.0228 5.38736 18.441 5.78404 18.5602C6.42365 18.7525 7.13136 18.9087 7.8874 19.0234C8.29692 19.0856 8.6793 18.804 8.74146 18.3945C8.80362 17.9849 8.52203 17.6026 8.11251 17.5404C7.41722 17.4349 6.77942 17.2932 6.21587 17.1237Z" fill="#141B34"/>
<path fill-rule="evenodd" clip-rule="evenodd" d="M17.5001 12.75C18.0524 12.75 18.5001 13.1977 18.5001 13.75V14.0199C19.0994 14.1754 19.6436 14.4674 20.0951 14.8609L20.4533 14.627C20.9157 14.325 21.5354 14.4551 21.8374 14.9175C22.1394 15.3799 22.0093 15.9995 21.5469 16.3015L21.213 16.5196C21.345 16.9061 21.4168 17.3201 21.4168 17.75C21.4168 18.18 21.345 18.594 21.2129 18.9806L21.5466 19.1985C22.009 19.5005 22.139 20.1201 21.837 20.5825C21.535 21.0449 20.9153 21.175 20.4529 20.873L20.095 20.6392C19.6434 21.0327 19.0994 21.3246 18.5001 21.4801V21.75C18.5001 22.3023 18.0524 22.75 17.5001 22.75C16.9478 22.75 16.5001 22.3023 16.5001 21.75V21.4801C15.9009 21.3246 15.3568 21.0327 14.9053 20.6392L14.5473 20.873C14.0849 21.175 13.4652 21.0449 13.1632 20.5825C12.8612 20.1201 12.9913 19.5005 13.4537 19.1985L13.7873 18.9806C13.6552 18.594 13.5834 18.18 13.5834 17.75C13.5834 17.3201 13.6552 16.9061 13.7872 16.5196L13.4533 16.3015C12.9909 15.9995 12.8609 15.3799 13.1629 14.9175C13.4649 14.4551 14.0845 14.325 14.5469 14.627L14.9051 14.8609C15.3567 14.4674 15.9008 14.1754 16.5001 14.0199V13.75C16.5001 13.1977 16.9478 12.75 17.5001 12.75ZM17.5001 15.8929C16.8267 15.8929 16.2406 16.2277 15.8992 16.7284C15.6989 17.0222 15.5834 17.3722 15.5834 17.75C15.5834 18.1279 15.6989 18.4779 15.8993 18.7717C16.2407 19.2724 16.8268 19.6071 17.5001 19.6071C18.1735 19.6071 18.7595 19.2724 19.1009 18.7717C19.3013 18.4779 19.4168 18.1279 19.4168 17.75C19.4168 17.3722 19.3014 17.0222 19.101 16.7284C18.7596 16.2277 18.1735 15.8929 17.5001 15.8929Z" fill="#141B34"/>
</svg>
