<svg width="24" height="24" viewBox="0 0 24 24" fill="none" xmlns="http://www.w3.org/2000/svg">
<path fill-rule="evenodd" clip-rule="evenodd" d="M11.5591 0.75H11.4448C9.25347 0.749988 7.5323 0.749978 6.18852 0.930595C4.81149 1.11568 3.71893 1.50272 2.8605 2.36091C2.00207 3.21911 1.61492 4.31137 1.42979 5.68802C1.29853 6.66402 1.26264 7.83914 1.25283 9.24895C1.24956 9.71941 1.24792 9.95464 1.39461 10.1023C1.54131 10.25 1.77775 10.25 2.25064 10.25H20.7533C21.2262 10.25 21.4626 10.25 21.6093 10.1023C21.756 9.95464 21.7544 9.71941 21.7511 9.24895C21.7413 7.83914 21.7054 6.66402 21.5741 5.68802C21.389 4.31137 21.0018 3.21911 20.1434 2.36091C19.285 1.50272 18.1924 1.11568 16.8154 0.930595C15.4716 0.749978 13.7504 0.749988 11.5591 0.75ZM6 5.50009C6 4.67166 6.67158 4.00009 7.5 4.00009C8.32843 4.00009 9 4.67166 9 5.50009C9 6.32851 8.32843 7.00009 7.5 7.00009C6.67158 7.00009 6 6.32851 6 5.50009ZM11.5 5.50009C11.5 5.08587 11.8358 4.75009 12.25 4.75009H16.25C16.6642 4.75009 17 5.08587 17 5.50009C17 5.9143 16.6642 6.25009 16.25 6.25009H12.25C11.8358 6.25009 11.5 5.9143 11.5 5.50009Z" fill="#141B34"/>
<path fill-rule="evenodd" clip-rule="evenodd" d="M20.7533 11.75H2.25064C1.77775 11.75 1.54131 11.75 1.39461 11.8977C1.24792 12.0454 1.24956 12.2806 1.25283 12.7511C1.26264 14.1609 1.29853 15.336 1.42979 16.312C1.61492 17.6886 2.00206 18.7809 2.8605 19.6391C3.71893 20.4973 4.81149 20.8843 6.18852 21.0694C7.63638 21.264 9.11005 21.258 10.5732 21.2519C10.8879 21.2507 11.2022 21.2494 11.5156 21.2501C11.7118 21.2505 11.8099 21.2507 11.868 21.1958C11.926 21.1409 11.9319 21.0291 11.9437 20.8056C11.9564 20.5648 12.0037 20.3261 12.0848 20.0977C12.1403 19.9413 12.1681 19.8631 12.1548 19.8061C12.1416 19.7491 12.0843 19.6932 11.9697 19.5815C11.6689 19.288 11.41 18.9382 11.1563 18.5953C11.0366 18.4335 10.918 18.2733 10.7968 18.1213C9.9356 17.0419 10.1128 15.4689 11.1925 14.608C11.7399 14.1716 12.4142 14.0019 13.0582 14.0813C13.2203 14.1013 13.3013 14.1113 13.3569 14.0968C13.4126 14.0822 13.4714 14.0389 13.5892 13.9522C15.0411 12.8828 16.9538 12.4665 18.8152 12.9511C19.685 13.1776 20.4673 13.5808 21.1274 14.1146C21.379 14.3179 21.728 14.194 21.7354 13.8706C21.7436 13.515 21.7484 13.142 21.7511 12.7511C21.7544 12.2806 21.756 12.0454 21.6093 11.8977C21.4626 11.75 21.2262 11.75 20.7533 11.75ZM7.5 15C6.67157 15 6 15.6716 6 16.5C6 17.3284 6.67157 18 7.5 18C8.32843 18 9 17.3284 9 16.5C9 15.6716 8.32843 15 7.5 15Z" fill="#141B34"/>
<path fill-rule="evenodd" clip-rule="evenodd" d="M13.5938 16.0161C14.6959 14.6064 16.5947 13.9231 18.4337 14.4021C19.4118 14.6568 20.2375 15.204 20.832 15.9265C21.1829 16.353 21.1216 16.9832 20.6952 17.3341C20.2687 17.685 19.6385 17.6237 19.2876 17.1972C18.9565 16.7949 18.4926 16.4841 17.9296 16.3375C16.5162 15.9694 15.0999 16.792 14.7366 18.1098C14.6367 18.4724 14.3418 18.7482 13.9734 18.8237C13.6049 18.8992 13.2253 18.7616 12.9908 18.4676L11.9682 17.1854C11.6238 16.7536 11.6947 16.1244 12.1264 15.7801C12.5582 15.4357 13.1874 15.5066 13.5318 15.9383L13.5938 16.0161ZM20.5262 18.6758C20.1579 18.7514 19.8631 19.0271 19.7632 19.3896C19.3999 20.7074 17.9837 21.53 16.5702 21.1619C16.0067 21.0151 15.5424 20.7038 15.2113 20.3009C14.8606 19.8742 14.2305 19.8125 13.8038 20.1632C13.3771 20.5138 13.3154 21.144 13.6661 21.5707C14.2606 22.2942 15.087 22.8423 16.0662 23.0973C17.9055 23.5764 19.8047 22.8927 20.9068 21.4824L20.9686 21.5599C21.3133 21.9914 21.9425 22.0618 22.374 21.7171C22.8056 21.3725 22.876 20.7432 22.5313 20.3117L21.5086 19.0313C21.274 18.7375 20.8944 18.6002 20.5262 18.6758Z" fill="#141B34"/>
</svg>
