<svg width="24" height="24" viewBox="0 0 24 24" fill="none" xmlns="http://www.w3.org/2000/svg">
<path fill-rule="evenodd" clip-rule="evenodd" d="M1.25 12C1.25 6.06294 6.06294 1.25 12 1.25C17.9371 1.25 22.75 6.06294 22.75 12C22.75 17.9371 17.9371 22.75 12 22.75C6.06294 22.75 1.25 17.9371 1.25 12ZM8.25 16C8.25 15.5858 8.58579 15.25 9 15.25L15 15.25C15.4142 15.25 15.75 15.5858 15.75 16C15.75 16.4142 15.4142 16.75 15 16.75H9C8.58579 16.75 8.25 16.4142 8.25 16ZM7.53033 7.46967C7.23744 7.17678 6.76256 7.17678 6.46967 7.46967C6.17678 7.76256 6.17678 8.23744 6.46967 8.53033L7.43934 9.5L6.46967 10.4697C6.17678 10.7626 6.17678 11.2374 6.46967 11.5303C6.76256 11.8232 7.23744 11.8232 7.53033 11.5303L8.5 10.5607L9.46967 11.5303C9.76256 11.8232 10.2374 11.8232 10.5303 11.5303C10.8232 11.2374 10.8232 10.7626 10.5303 10.4697L9.56066 9.5L10.5303 8.53033C10.8232 8.23744 10.8232 7.76256 10.5303 7.46967C10.2374 7.17678 9.76256 7.17678 9.46967 7.46967L8.5 8.43934L7.53033 7.46967ZM14.5303 7.46967C14.2374 7.17678 13.7626 7.17678 13.4697 7.46967C13.1768 7.76256 13.1768 8.23744 13.4697 8.53033L14.4393 9.5L13.4697 10.4697C13.1768 10.7626 13.1768 11.2374 13.4697 11.5303C13.7626 11.8232 14.2374 11.8232 14.5303 11.5303L15.5 10.5607L16.4697 11.5303C16.7626 11.8232 17.2374 11.8232 17.5303 11.5303C17.8232 11.2374 17.8232 10.7626 17.5303 10.4697L16.5607 9.5L17.5303 8.53033C17.8232 8.23744 17.8232 7.76256 17.5303 7.46967C17.2374 7.17678 16.7626 7.17678 16.4697 7.46967L15.5 8.43934L14.5303 7.46967Z" fill="#141B34"/>
</svg>
