<svg width="24" height="24" viewBox="0 0 24 24" fill="none" xmlns="http://www.w3.org/2000/svg">
<path d="M10.3821 1.47378C11.4401 1.17541 12.5599 1.17541 13.6179 1.47378C14.4165 1.69901 15.1181 2.14452 15.8799 2.78263L21.2174 8.12005C21.8555 8.88193 22.301 9.5835 22.5262 10.3821C22.8246 11.4401 22.8246 12.5599 22.5262 13.6179C22.301 14.4165 21.8555 15.1181 21.2174 15.8799L15.8799 21.2174C15.1181 21.8555 14.4165 22.301 13.6179 22.5262C12.5599 22.8246 11.4401 22.8246 10.3821 22.5262C9.5835 22.301 8.88193 21.8555 8.12005 21.2174L2.78263 15.8799C2.14452 15.1181 1.69901 14.4165 1.47378 13.6179C1.17541 12.5599 1.17541 11.4401 1.47378 10.3821C1.69901 9.5835 2.14452 8.88193 2.78263 8.12005L8.12005 2.78263C8.88193 2.14452 9.5835 1.69901 10.3821 1.47378Z" fill="#141B34"/>
</svg>
