<svg width="24" height="24" viewBox="0 0 24 24" fill="none" xmlns="http://www.w3.org/2000/svg">
<path d="M10.2849 3.25008C9.36962 3.24929 8.67636 3.24868 8.05698 3.54308C7.43909 3.83677 6.99768 4.37523 6.41229 5.08933C6.14131 5.41926 5.50808 6.19045 5.33646 6.46124C5.14815 6.75837 5 7.09388 5 7.50017C5 7.90645 5.14814 8.24196 5.33646 8.53909C5.50808 8.80988 6.14131 9.58107 6.41229 9.911C6.99767 10.6251 7.43909 11.1636 8.05698 11.4573C8.67636 11.7516 9.36962 11.751 10.2849 11.7502L16.2947 11.7502H16.2947C16.7276 11.7502 17.1244 11.7503 17.4472 11.7069C17.8027 11.6591 18.1784 11.5466 18.4874 11.2376C18.7965 10.9286 18.9089 10.5529 18.9567 10.1974C19.0001 9.87456 19 9.47773 19 9.04491V5.95542C19 5.5226 19.0001 5.12577 18.9567 4.80296C18.9089 4.44748 18.7965 4.07175 18.4874 3.76273C18.1784 3.45371 17.8027 3.34126 17.4472 3.29346C17.1244 3.25006 16.7276 3.25011 16.2947 3.25016L10.2849 3.25008Z" fill="#141B34"/>
<path fill-rule="evenodd" clip-rule="evenodd" d="M14 2C13.4477 2 13 2.44772 13 3V4C13 4.55228 13.4477 5 14 5C14.5523 5 15 4.55228 15 4V3C15 2.44772 14.5523 2 14 2ZM14 10C13.4477 10 13 10.4477 13 11L13 20H10C9.44771 20 9 20.4477 9 21C9 21.5523 9.44771 22 10 22H18C18.5523 22 19 21.5523 19 21C19 20.4477 18.5523 20 18 20H15L15 11C15 10.4477 14.5523 10 14 10Z" fill="#141B34"/>
</svg>
