<svg width="24" height="24" viewBox="0 0 24 24" fill="none" xmlns="http://www.w3.org/2000/svg">
<path d="M13.9999 5.875C12.8953 5.875 11.9999 4.97957 11.9999 3.875C11.9999 2.77043 12.8953 1.875 13.9999 1.875C15.1045 1.875 15.9999 2.77043 15.9999 3.875C15.9999 4.97957 15.1045 5.875 13.9999 5.875Z" fill="white"/>
<path d="M11.2499 3.875C11.2499 2.35622 12.4811 1.125 13.9999 1.125C15.5187 1.125 16.7499 2.35622 16.7499 3.875C16.7499 5.39378 15.5187 6.625 13.9999 6.625C12.4811 6.625 11.2499 5.39378 11.2499 3.875Z" fill="#141B34"/>
<path fill-rule="evenodd" clip-rule="evenodd" d="M5.40875 12.4626C5.91277 12.6884 6.13831 13.2801 5.91251 13.7841C5.63997 14.3924 5.49991 15.0828 5.49991 15.8335C5.49991 18.6137 7.76529 20.8752 10.5695 20.8752C12.2668 20.8752 13.7682 20.0468 14.6894 18.7721C15.0129 18.3245 15.638 18.2239 16.0856 18.5473C16.5333 18.8708 16.6339 19.496 16.3104 19.9436C15.028 21.7181 12.9337 22.8752 10.5695 22.8752C6.66938 22.8752 3.49991 19.7269 3.49991 15.8335C3.49991 14.8334 3.68698 13.86 4.0873 12.9664C4.3131 12.4624 4.90473 12.2368 5.40875 12.4626Z" fill="#141B34"/>
<path fill-rule="evenodd" clip-rule="evenodd" d="M12.8682 7.33601C13.3796 7.54455 13.6252 8.12817 13.4166 8.63957L12.8224 10.0968C12.4272 11.066 12.1751 11.6908 12.0597 12.1566C12.0048 12.3784 11.9964 12.5077 12.001 12.5795C12.0044 12.634 12.0142 12.6489 12.0201 12.6579C12.0203 12.6581 12.0205 12.6584 12.0206 12.6587C12.0209 12.6591 12.0212 12.6595 12.0215 12.6599C12.0267 12.6681 12.0337 12.679 12.073 12.6988C12.1293 12.7273 12.2428 12.7678 12.4608 12.8008C12.9208 12.8703 13.577 12.8731 14.6066 12.8731C14.7059 12.8731 14.7933 12.869 14.901 12.8639C14.9546 12.8614 15.0131 12.8587 15.0807 12.8561C15.2572 12.8493 15.488 12.8445 15.7269 12.8756C16.2752 12.947 16.848 13.2108 17.2263 13.8734L20.3684 19.3773C20.6422 19.8569 20.4753 20.4677 19.9957 20.7415C19.5161 21.0153 18.9053 20.8485 18.6315 20.3688L15.4894 14.865C15.4887 14.8638 15.4881 14.8627 15.4875 14.8617C15.4822 14.8608 15.4759 14.8598 15.4687 14.8589C15.4049 14.8506 15.3139 14.8486 15.1572 14.8546C15.1244 14.8559 15.0857 14.8577 15.0429 14.8597C14.9166 14.8655 14.755 14.8731 14.6066 14.8731C14.5809 14.8731 14.5553 14.8731 14.5298 14.8731C13.5998 14.8731 12.7895 14.8732 12.1619 14.7783C11.4936 14.6773 10.7921 14.4359 10.3456 13.7515C9.90327 13.0735 9.95539 12.3337 10.1184 11.6757C10.2054 11.3244 10.3417 10.9299 10.5083 10.4953L9.76112 10.1217L7.76815 12.5132C7.41459 12.9375 6.78403 12.9948 6.35975 12.6413C5.93547 12.2877 5.87815 11.6571 6.23171 11.2329L8.73171 8.23287C9.02879 7.87637 9.53209 7.77109 9.94715 7.97862L11.2588 8.63446L11.5647 7.88439C11.7732 7.37299 12.3568 7.12747 12.8682 7.33601Z" fill="#141B34"/>
</svg>
