<svg width="24" height="24" viewBox="0 0 24 24" fill="none" xmlns="http://www.w3.org/2000/svg">
<path fill-rule="evenodd" clip-rule="evenodd" d="M6 1.25C5.15644 1.25 4.42823 1.29303 3.81795 1.42709C3.19918 1.56303 2.65477 1.80257 2.22867 2.22867C1.80257 2.65476 1.56303 3.19918 1.42709 3.81795C1.29303 4.42823 1.25 5.15644 1.25 6V6.65C1.25 6.93284 1.25 7.07426 1.33787 7.16213C1.42574 7.25 1.56716 7.25 1.85 7.25H22.15C22.4328 7.25 22.5743 7.25 22.6621 7.16213C22.75 7.07426 22.75 6.93284 22.75 6.65V6C22.75 5.15644 22.707 4.42823 22.5729 3.81795C22.437 3.19918 22.1974 2.65477 21.7713 2.22867C21.3452 1.80257 20.8008 1.56303 20.182 1.42709C19.5718 1.29303 18.8436 1.25 18 1.25H6ZM22.75 9.35C22.75 9.06716 22.75 8.92574 22.6621 8.83787C22.5743 8.75 22.4328 8.75 22.15 8.75H1.85C1.56716 8.75 1.42574 8.75 1.33787 8.83787C1.25 8.92574 1.25 9.06716 1.25 9.35V18C1.25 18.8436 1.29303 19.5718 1.42709 20.182C1.56303 20.8008 1.80257 21.3452 2.22867 21.7713C2.65477 22.1974 3.19918 22.437 3.81795 22.5729C4.42823 22.707 5.15644 22.75 6 22.75H18C18.8436 22.75 19.5718 22.707 20.182 22.5729C20.8008 22.437 21.3452 22.1974 21.7713 21.7713C22.1974 21.3452 22.437 20.8008 22.5729 20.182C22.707 19.5718 22.75 18.8436 22.75 18V9.35ZM4.125 4.24609C4.125 3.83188 4.46079 3.49609 4.875 3.49609H8.875C9.28921 3.49609 9.625 3.83188 9.625 4.24609C9.625 4.66031 9.28921 4.99609 8.875 4.99609H4.875C4.46079 4.99609 4.125 4.66031 4.125 4.24609ZM19.875 4.24609C19.875 3.69381 19.4273 3.24609 18.875 3.24609C18.3227 3.24609 17.875 3.69381 17.875 4.24609V4.25504C17.875 4.80733 18.3227 5.25504 18.875 5.25504C19.4273 5.25504 19.875 4.80733 19.875 4.25504V4.24609ZM9 12.75C7.75736 12.75 6.75 13.7574 6.75 15C6.75 16.2426 7.75736 17.25 9 17.25C10.2426 17.25 11.25 16.2426 11.25 15C11.25 13.7574 10.2426 12.75 9 12.75ZM5.25 15C5.25 12.9289 6.92893 11.25 9 11.25C11.0711 11.25 12.75 12.9289 12.75 15C12.75 17.0711 11.0711 18.75 9 18.75C6.92893 18.75 5.25 17.0711 5.25 15ZM15.1378 11.2627C14.9185 11.2218 14.6925 11.2806 14.521 11.4231C14.3494 11.5656 14.2502 11.777 14.2502 12V15.6498C14.2499 15.6607 14.2499 15.6715 14.2502 15.6824V18C14.2502 18.4142 14.586 18.75 15.0002 18.75C15.4144 18.75 15.7502 18.4142 15.7502 18V16.366C15.8465 16.3654 15.9564 16.3651 16.0834 16.3649L16.1423 16.3648C16.5277 16.3642 16.9934 16.3636 17.346 16.2714C17.5391 16.2209 17.8247 16.1136 18.0307 15.8489C18.2626 15.5509 18.2806 15.2059 18.2205 14.9261L17.8317 13.1161C17.7022 12.5133 17.2683 12.1002 16.8054 11.8306C16.3394 11.5591 15.7571 11.3783 15.1378 11.2627Z" fill="#141B34"/>
</svg>
