<svg width="24" height="24" viewBox="0 0 24 24" fill="none" xmlns="http://www.w3.org/2000/svg">
<path fill-rule="evenodd" clip-rule="evenodd" d="M0.999969 21.875C0.999969 21.3227 1.44768 20.875 1.99997 20.875L22 20.875C22.5523 20.875 23 21.3227 23 21.875C23 22.4273 22.5523 22.875 22 22.875H1.99997C1.44768 22.875 0.999969 22.4273 0.999969 21.875Z" fill="#141B34"/>
<path fill-rule="evenodd" clip-rule="evenodd" d="M1.00006 9.875C1.00006 9.32272 1.44778 8.875 2.00006 8.875L22.0001 8.875C22.5523 8.875 23.0001 9.32272 23.0001 9.875C23.0001 10.4273 22.5523 10.875 22.0001 10.875H2.00006C1.44778 10.875 1.00006 10.4273 1.00006 9.875Z" fill="#141B34"/>
<path d="M13.535 1.125C13.9748 1.12498 14.3541 1.12497 14.6654 1.15318C14.9946 1.18302 15.3205 1.24908 15.6277 1.42644C16.282 1.80418 16.5625 2.38658 16.6751 2.93977C16.7621 3.36673 16.7575 3.83575 16.754 4.19182V4.19186C16.7533 4.25701 16.7527 4.31837 16.7527 4.375C16.7527 4.43163 16.7533 4.493 16.754 4.55814V4.55818C16.7575 4.91425 16.7621 5.38327 16.6751 5.81023C16.5625 6.36343 16.282 6.94582 15.6277 7.32356C15.3205 7.50093 14.9946 7.56698 14.6654 7.59682C14.3541 7.62503 13.9747 7.62502 13.5349 7.625H10.4705C10.0307 7.62502 9.65136 7.62503 9.34007 7.59682C9.01089 7.56699 8.68493 7.50093 8.37772 7.32356C7.72346 6.94582 7.44296 6.36343 7.33029 5.81023C7.24333 5.38327 7.24796 4.91425 7.25147 4.55818C7.25211 4.49302 7.25272 4.43165 7.25272 4.375C7.25272 4.31836 7.25211 4.25698 7.25147 4.19182C7.24796 3.83575 7.24333 3.36673 7.33029 2.93977C7.44296 2.38658 7.72346 1.80418 8.37772 1.42644C8.68493 1.24908 9.01089 1.18302 9.34007 1.15318C9.65136 1.12497 10.0307 1.12498 10.4705 1.125H10.4705H13.5349H13.535Z" fill="#141B34"/>
<path d="M17.6654 13.1532C17.9946 13.183 18.3205 13.2491 18.6277 13.4264C19.282 13.8042 19.5625 14.3866 19.6751 14.9398C19.7621 15.3667 19.7575 15.8357 19.754 16.1918V16.1919C19.7533 16.257 19.7527 16.3184 19.7527 16.375C19.7527 16.4316 19.7533 16.493 19.754 16.5581V16.5582C19.7575 16.9143 19.7621 17.3833 19.6751 17.8102C19.5625 18.3634 19.282 18.9458 18.6277 19.3236C18.3205 19.5009 17.9946 19.567 17.6654 19.5968C17.3541 19.625 16.9747 19.625 16.5349 19.625L7.47049 19.625C7.0307 19.625 6.65136 19.625 6.34007 19.5968C6.01089 19.567 5.68493 19.5009 5.37772 19.3236C4.72346 18.9458 4.44296 18.3634 4.33029 17.8102C4.24333 17.3833 4.24796 16.9143 4.25147 16.5582C4.25211 16.493 4.25272 16.4316 4.25272 16.375C4.25272 16.3184 4.25211 16.257 4.25147 16.1918C4.24796 15.8357 4.24333 15.3667 4.33029 14.9398C4.44296 14.3866 4.72346 13.8042 5.37772 13.4264C5.68493 13.2491 6.01089 13.183 6.34007 13.1532C6.65135 13.125 7.03067 13.125 7.47044 13.125H7.47049H16.5349H16.535C16.9748 13.125 17.3541 13.125 17.6654 13.1532Z" fill="#141B34"/>
</svg>
