<svg width="24" height="24" viewBox="0 0 24 24" fill="none" xmlns="http://www.w3.org/2000/svg">
<path fill-rule="evenodd" clip-rule="evenodd" d="M1.25 12C1.25 6.06294 6.06294 1.25 12 1.25C17.9371 1.25 22.75 6.06294 22.75 12C22.75 17.9371 17.9371 22.75 12 22.75C6.06294 22.75 1.25 17.9371 1.25 12ZM10.25 8C10.25 7.0335 11.0335 6.25 12 6.25C12.9665 6.25 13.75 7.0335 13.75 8C13.75 8.9665 12.9665 9.75 12 9.75C11.0335 9.75 10.25 8.9665 10.25 8ZM10.25 16C10.25 15.0335 11.0335 14.25 12 14.25C12.9665 14.25 13.75 15.0335 13.75 16C13.75 16.9665 12.9665 17.75 12 17.75C11.0335 17.75 10.25 16.9665 10.25 16ZM7 11C6.44772 11 6 11.4477 6 12C6 12.5523 6.44772 13 7 13H17C17.5523 13 18 12.5523 18 12C18 11.4477 17.5523 11 17 11H7Z" fill="#141B34"/>
</svg>
