<svg width="24" height="24" viewBox="0 0 24 24" fill="none" xmlns="http://www.w3.org/2000/svg">
<path fill-rule="evenodd" clip-rule="evenodd" d="M4.44243 15.25C6.45823 15.25 8.01596 16.9724 8.01596 19C8.01596 21.0276 6.45823 22.75 4.44243 22.75C4.43426 22.75 4.42606 22.75 4.41782 22.75C4.26357 22.75 4.09942 22.7501 3.95833 22.7365C3.79755 22.721 3.59346 22.6828 3.39144 22.5589C2.99796 22.3175 2.84465 21.95 2.78819 21.6554C2.74628 21.4368 2.74914 21.1955 2.75076 21.0583C2.75103 21.0359 2.75126 21.0163 2.75126 21V17C2.75126 16.9837 2.75103 16.9641 2.75076 16.9417C2.74914 16.8045 2.74628 16.5632 2.78819 16.3446C2.84465 16.05 2.99796 15.6825 3.39144 15.4411C3.59346 15.3172 3.79755 15.279 3.95833 15.2635C4.09941 15.2499 4.28818 15.25 4.44243 15.25ZM4.25124 16.7507C4.25124 16.7507 4.36612 16.75 4.44243 16.75C5.54543 16.75 6.51596 17.7139 6.51596 19C6.51596 20.2861 5.54543 21.25 4.44243 21.25C4.36612 21.25 4.25124 21.2493 4.25124 21.2493L4.25124 16.7507Z" fill="#141B34"/>
<path fill-rule="evenodd" clip-rule="evenodd" d="M11.9995 15.25C12.4036 15.2499 12.8284 15.2499 13.1383 15.2942C13.4864 15.3439 13.8542 15.4621 14.1524 15.7789C14.4445 16.0893 14.5475 16.4611 14.5915 16.8086C14.632 17.1285 14.6319 17.5226 14.6319 17.9571V20.0429C14.6319 20.4774 14.632 20.8716 14.5915 21.1914C14.5475 21.539 14.4445 21.9108 14.1524 22.2211C13.8542 22.5379 13.4864 22.6561 13.1383 22.7059C12.8284 22.7501 12.4036 22.7501 11.9995 22.75C11.5955 22.7501 11.1707 22.7501 10.8608 22.7059C10.5127 22.6561 10.1449 22.5379 9.84671 22.2211C9.55458 21.9108 9.45156 21.539 9.40758 21.1914C9.36711 20.8715 9.36715 20.4774 9.36719 20.0429C9.36719 20.0286 9.36719 20.0143 9.36719 20V18C9.36719 17.9857 9.36719 17.9714 9.36719 17.9571C9.36715 17.5226 9.36711 17.1285 9.40758 16.8086C9.45156 16.4611 9.55458 16.0893 9.84671 15.7789C10.1449 15.4621 10.5127 15.3439 10.8608 15.2942C11.1707 15.2499 11.5955 15.2499 11.9995 15.25ZM10.9378 16.8099C10.9366 16.8125 10.9349 16.8162 10.9329 16.8214C10.9233 16.8463 10.9082 16.8979 10.8957 16.9969C10.8686 17.2111 10.8672 17.5086 10.8672 18V20C10.8672 20.4914 10.8686 20.7889 10.8957 21.0031C10.9082 21.1022 10.9233 21.1537 10.9329 21.1786C10.9349 21.1838 10.9366 21.1875 10.9378 21.1901C10.9524 21.1962 10.991 21.2092 11.0729 21.2209C11.2639 21.2482 11.5334 21.25 11.9995 21.25C12.4657 21.25 12.7352 21.2482 12.9262 21.2209C13.0081 21.2092 13.0467 21.1962 13.0613 21.1901C13.0625 21.1875 13.0642 21.1838 13.0662 21.1786C13.0758 21.1537 13.0908 21.1022 13.1034 21.0031C13.1305 20.7889 13.1319 20.4914 13.1319 20V18C13.1319 17.5086 13.1305 17.2111 13.1034 16.9969C13.0908 16.8979 13.0758 16.8463 13.0662 16.8214C13.0642 16.8162 13.0625 16.8125 13.0613 16.8099C13.0467 16.8039 13.0081 16.7908 12.9262 16.7791C12.7352 16.7518 12.4657 16.75 11.9995 16.75C11.5334 16.75 11.2639 16.7518 11.0729 16.7791C10.991 16.7908 10.9524 16.8039 10.9378 16.8099Z" fill="#141B34"/>
<path fill-rule="evenodd" clip-rule="evenodd" d="M16.5123 15.9018C17.0267 15.3276 17.8285 15.25 18.6215 15.25C18.8805 15.25 19.1606 15.2513 19.4229 15.2766C19.6845 15.3019 19.9779 15.3547 20.2543 15.4849C20.5464 15.6224 20.804 15.8393 20.984 16.1572C21.1567 16.462 21.232 16.8134 21.2484 17.1868C21.2665 17.6006 20.9457 17.9507 20.5319 17.9689C20.1181 17.987 19.7679 17.6662 19.7498 17.2524C19.7401 17.0306 19.699 16.932 19.6789 16.8965C19.6662 16.8741 19.6547 16.8605 19.6153 16.842C19.5602 16.816 19.4596 16.7871 19.2788 16.7697C19.0987 16.7523 18.8879 16.75 18.6215 16.75C17.7957 16.75 17.654 16.8754 17.6295 16.9027C17.6171 16.9166 17.5736 16.9723 17.5381 17.1568C17.5015 17.3467 17.4844 17.6129 17.4844 18V20C17.4844 20.3871 17.5015 20.6533 17.5381 20.8432C17.5736 21.0277 17.6171 21.0834 17.6295 21.0973C17.654 21.1246 17.7957 21.25 18.6215 21.25C18.8879 21.25 19.0987 21.2477 19.2788 21.2303C19.4596 21.2129 19.5602 21.184 19.6153 21.158C19.6547 21.1395 19.6662 21.1259 19.6789 21.1035C19.699 21.068 19.7401 20.9694 19.7498 20.7476C19.7679 20.3338 20.1181 20.013 20.5319 20.0311C20.9457 20.0493 21.2665 20.3994 21.2484 20.8132C21.232 21.1866 21.1567 21.538 20.984 21.8428C20.804 22.1607 20.5464 22.3776 20.2543 22.5151C19.9779 22.6453 19.6845 22.6981 19.4229 22.7234C19.1606 22.7487 18.8805 22.75 18.6215 22.75C17.8285 22.75 17.0267 22.6724 16.5123 22.0982C16.2553 21.8113 16.1305 21.4666 16.0651 21.1267C16.0007 20.7922 15.9844 20.4099 15.9844 20V18C15.9844 17.5901 16.0007 17.2078 16.0651 16.8733C16.1305 16.5334 16.2553 16.1887 16.5123 15.9018Z" fill="#141B34"/>
<path fill-rule="evenodd" clip-rule="evenodd" d="M13.1373 1.41745C12.6619 1.24878 12.1574 1.24946 11.5874 1.25022C10.0617 1.2502 8.6541 1.25029 7.67534 1.36516C6.66265 1.48402 5.79495 1.73702 5.05992 2.33274C4.79012 2.55141 4.54435 2.79845 4.32681 3.06966C3.73418 3.80851 3.48248 4.68073 3.36424 5.69868C3.24997 6.68252 3.24998 7.91904 3.25 9.45269V9.4527V10.7501C3.25 12.1643 3.25 12.8714 3.68934 13.3108C4.12868 13.7501 4.83579 13.7501 6.25 13.7501L17.7499 13.7501C19.164 13.7501 19.8711 13.7501 20.3104 13.3108C20.7498 12.8715 20.7498 12.1644 20.7499 10.7502L20.7499 10.552C20.7509 9.88858 20.7518 9.29983 20.5277 8.75608C20.3036 8.21233 19.8889 7.79666 19.4215 7.32831L14.6387 2.52066C14.2362 2.11501 13.8799 1.75594 13.4251 1.53727C13.3314 1.49221 13.2353 1.45221 13.1373 1.41745ZM17.9511 8.61452C18.5692 9.23582 18.6746 9.3662 18.7314 9.50403C17.3638 9.50405 16.7152 9.50327 15.8483 9.38671C14.9481 9.26569 14.1903 9.0068 13.5884 8.40488C12.9864 7.80296 12.7275 7.04509 12.6065 6.14498C12.4902 5.27979 12.4902 4.63207 12.4902 3.27022V3.26184C12.6719 3.31653 12.8133 3.44995 13.3462 3.98567L17.9511 8.61452Z" fill="#141B34"/>
</svg>
