<svg width="24" height="24" viewBox="0 0 24 24" fill="none" xmlns="http://www.w3.org/2000/svg">
<path d="M7.75 5.50012C7.75 3.15291 9.65279 1.25012 12 1.25012C14.3472 1.25012 16.25 3.15291 16.25 5.50012V6.50012C16.25 8.84733 14.3472 10.7501 12 10.7501C9.65279 10.7501 7.75 8.84733 7.75 6.50012V5.50012Z" fill="#141B34"/>
<path fill-rule="evenodd" clip-rule="evenodd" d="M10.5303 12.4699C10.3897 12.3293 10.1989 12.2502 10 12.2502H9.99998H9.99994C8.63238 12.2502 7.4752 12.2502 6.60825 12.3668C5.70814 12.4878 4.95027 12.7467 4.34835 13.3486C3.74643 13.9505 3.48754 14.7084 3.36652 15.6085C3.24996 16.4755 3.24998 17.5778 3.25 18.9454V18.9454L3.25 22.0002C3.25 22.4145 3.58579 22.7502 4 22.7502L20 22.7502C20.4142 22.7502 20.75 22.4145 20.75 22.0002V18.9454C20.75 17.5778 20.75 16.4755 20.6335 15.6085C20.5125 14.7084 20.2536 13.9505 19.6517 13.3486C19.0497 12.7467 18.2919 12.4878 17.3918 12.3668C16.5248 12.2502 15.3676 12.2502 14.0001 12.2502H14H14C13.8011 12.2502 13.6103 12.3293 13.4697 12.4699L12 13.9396L10.5303 12.4699ZM16.75 15.5002C16.75 15.086 16.4142 14.7502 16 14.7502C15.5858 14.7502 15.25 15.086 15.25 15.5002V16.7502H14C13.5858 16.7502 13.25 17.086 13.25 17.5002C13.25 17.9145 13.5858 18.2502 14 18.2502H15.25V19.5002C15.25 19.9145 15.5858 20.2502 16 20.2502C16.4142 20.2502 16.75 19.9145 16.75 19.5002V18.2502H18C18.4142 18.2502 18.75 17.9145 18.75 17.5002C18.75 17.086 18.4142 16.7502 18 16.7502H16.75V15.5002Z" fill="#141B34"/>
</svg>
