<svg width="24" height="24" viewBox="0 0 24 24" fill="none" xmlns="http://www.w3.org/2000/svg">
<path fill-rule="evenodd" clip-rule="evenodd" d="M6.5 2C7.05228 2 7.5 2.44772 7.5 3V4.08978C9.77476 4.50174 11.625 6.29148 11.625 8.62963C11.625 9.18191 11.1773 9.62963 10.625 9.62963C10.0727 9.62963 9.625 9.18191 9.625 8.62963C9.625 7.55102 8.79383 6.49995 7.5 6.13505L7.5 10.7809C8.66694 10.8806 9.69599 11.1772 10.4889 11.794C11.5578 12.6253 12 13.8754 12 15.3704C12 16.964 11.3606 18.1851 10.2643 18.9704C9.4758 19.5352 8.50983 19.8335 7.5 19.9461V21C7.5 21.5523 7.05229 22 6.5 22C5.94772 22 5.5 21.5523 5.5 21V19.9214C3.07434 19.5388 1 17.7898 1 15.3704C1 14.8181 1.44772 14.3704 2 14.3704C2.55228 14.3704 3 14.8181 3 15.3704C3 16.4231 3.94292 17.549 5.5 17.8937L5.5 12.698C4.35877 12.594 3.40382 12.293 2.68621 11.7165C1.7182 10.9388 1.375 9.82271 1.375 8.62963C1.375 6.29148 3.22524 4.50174 5.5 4.08978V3C5.5 2.44772 5.94772 2 6.5 2ZM5.5 6.13505C4.20617 6.49994 3.375 7.55102 3.375 8.62963C3.375 9.44114 3.5943 9.88057 3.93879 10.1573C4.22725 10.3891 4.7092 10.594 5.5 10.6873L5.5 6.13505ZM7.5 12.7901L7.5 17.9297C8.16133 17.8304 8.70236 17.629 9.09964 17.3445C9.63205 16.9631 10 16.3693 10 15.3704C10 14.2728 9.6922 13.708 9.26106 13.3727C8.90091 13.0926 8.34143 12.8813 7.5 12.7901Z" fill="#141B34"/>
<path fill-rule="evenodd" clip-rule="evenodd" d="M22 10.9941C22.5523 10.9941 23 11.4419 23 11.9941C23 12.5464 22.5523 12.9941 22 12.9941L18.5 12.9941L18.5 13.5884C18.5001 13.764 18.5003 13.9797 18.4782 14.1561L18.4778 14.1595C18.462 14.2859 18.3902 14.862 17.8246 15.1363C17.2577 15.4113 16.7576 15.1093 16.6494 15.044L16.6454 15.0416C16.4924 14.9494 16.3215 14.8152 16.1809 14.7049L16.1507 14.6812C15.7748 14.3865 15.2906 14.0046 14.8996 13.6241C14.7045 13.4343 14.5033 13.217 14.3444 12.9861C14.2032 12.7809 14 12.4307 14 12C14 11.5693 14.2032 11.2191 14.3444 11.0139C14.5033 10.783 14.7045 10.5657 14.8996 10.3759C15.2906 9.99545 15.7748 9.61348 16.1507 9.31885L16.1809 9.29512C16.3215 9.18477 16.4923 9.05062 16.6454 8.95841L16.6494 8.95597C16.7576 8.89065 17.2578 8.58872 17.8246 8.86368C18.3902 9.13804 18.462 9.71408 18.4778 9.84053L18.4782 9.84387C18.5003 10.0203 18.5001 10.236 18.5 10.4116L18.5 10.9941L22 10.9941Z" fill="#141B34"/>
</svg>
