<svg width="24" height="24" viewBox="0 0 24 24" fill="none" xmlns="http://www.w3.org/2000/svg">
<path fill-rule="evenodd" clip-rule="evenodd" d="M12.5 1.5C13.0523 1.5 13.5 1.94772 13.5 2.5V3.61161C14.7308 3.79776 15.854 4.21042 16.7597 4.80161C18.0138 5.62008 18.9583 6.86662 18.9583 8.38889C18.9583 8.94117 18.5106 9.38889 17.9583 9.38889C17.406 9.38889 16.9583 8.94117 16.9583 8.38889C16.9583 7.76338 16.5691 7.06548 15.6666 6.47645C14.7732 5.89332 13.4797 5.5 12 5.5C10.5203 5.5 9.22681 5.89332 8.33339 6.47645C7.4309 7.06548 7.04167 7.76338 7.04167 8.38889C7.04167 8.79941 7.11882 9.10711 7.24591 9.34574C7.3704 9.57948 7.57161 9.80163 7.90774 10.0019C8.61889 10.4257 9.88525 10.7222 12 10.7222C14.2118 10.7222 16.0565 10.9983 17.3747 11.7588C18.054 12.1507 18.601 12.6756 18.9709 13.3515C19.3385 14.0229 19.5 14.786 19.5 15.6111C19.5 17.4379 18.5035 18.7162 17.0654 19.4803C16.0579 20.0157 14.8215 20.3125 13.5 20.434V21.5C13.5 22.0523 13.0523 22.5 12.5 22.5C11.9477 22.5 11.5 22.0523 11.5 21.5V20.4896C9.74677 20.4165 8.12961 19.9605 6.89039 19.2191C5.55453 18.4199 4.5 17.1757 4.5 15.6111C4.5 15.0588 4.94772 14.6111 5.5 14.6111C6.05228 14.6111 6.5 15.0588 6.5 15.6111C6.5 16.1943 6.90055 16.8946 7.91722 17.5028C8.91355 18.0989 10.3547 18.5 12 18.5C13.718 18.5 15.1561 18.23 16.127 17.7141C17.0414 17.2282 17.5 16.5621 17.5 15.6111C17.5 15.0473 17.3907 14.6299 17.2166 14.3117C17.0448 13.998 16.7793 13.7243 16.3753 13.4912C15.5268 13.0017 14.1216 12.7222 12 12.7222C9.78141 12.7222 8.06861 12.426 6.88393 11.72C6.27214 11.3554 5.79627 10.8785 5.48065 10.2859C5.16764 9.69817 5.04167 9.05226 5.04167 8.38889C5.04167 6.86662 5.98625 5.62008 7.24026 4.80161C8.38628 4.05363 9.88019 3.59143 11.5 3.51219V2.5C11.5 1.94772 11.9477 1.5 12.5 1.5Z" fill="#141B34"/>
</svg>
