<svg width="24" height="24" viewBox="0 0 24 24" fill="none" xmlns="http://www.w3.org/2000/svg">
<path fill-rule="evenodd" clip-rule="evenodd" d="M2.5 21.75C2.5 21.1977 2.94772 20.75 3.5 20.75H20.5C21.0523 20.75 21.5 21.1977 21.5 21.75C21.5 22.3023 21.0523 22.75 20.5 22.75H3.5C2.94772 22.75 2.5 22.3023 2.5 21.75Z" fill="#141B34"/>
<path fill-rule="evenodd" clip-rule="evenodd" d="M13.0549 1.25C14.4225 1.24998 15.5248 1.24996 16.3918 1.36652C17.2919 1.48754 18.0497 1.74643 18.6517 2.34835C19.2536 2.95027 19.5125 3.70814 19.6335 4.60825C19.75 5.47521 19.75 6.57753 19.75 7.9451V7.94511V7.94512V7.94513V22C19.75 22.4142 19.4142 22.75 19 22.75L5 22.75C4.58579 22.75 4.25 22.4142 4.25 22L4.25 7.94512V7.94511V7.94509C4.24998 6.57752 4.24997 5.47521 4.36653 4.60825C4.48754 3.70814 4.74644 2.95027 5.34835 2.34835C5.95027 1.74643 6.70814 1.48754 7.60825 1.36652C8.47521 1.24996 9.57753 1.24998 10.9451 1.25H10.9451H13.0549H13.0549ZM8.81235 6.15036C8.77173 6.33526 8.75 6.60256 8.75 7V8.25H11.25V5.75H10C9.60257 5.75 9.33527 5.77172 9.15036 5.81234C8.97395 5.8511 8.92349 5.89617 8.90983 5.90983C8.89618 5.92348 8.8511 5.97395 8.81235 6.15036ZM10 4.25C9.5701 4.25 9.17374 4.27144 8.82852 4.34728C8.4748 4.42498 8.12868 4.56966 7.84917 4.84917C7.56966 5.12868 7.42499 5.4748 7.34728 5.82851C7.27144 6.17373 7.25 6.5701 7.25 7V11C7.25 11.4299 7.27144 11.8263 7.34728 12.1715C7.42499 12.5252 7.56966 12.8713 7.84917 13.1508C8.12868 13.4303 8.4748 13.575 8.82852 13.6527C9.17374 13.7286 9.5701 13.75 10 13.75L14 13.75C14.4299 13.75 14.8263 13.7286 15.1715 13.6527C15.5252 13.575 15.8713 13.4303 16.1508 13.1508C16.4303 12.8713 16.575 12.5252 16.6527 12.1715C16.7286 11.8263 16.75 11.4299 16.75 11V7C16.75 6.5701 16.7286 6.17373 16.6527 5.82851C16.575 5.4748 16.4303 5.12868 16.1508 4.84917C15.8713 4.56966 15.5252 4.42498 15.1715 4.34728C14.8263 4.27144 14.4299 4.25 14 4.25H10ZM12.75 5.75V8.25H15.25V7C15.25 6.60256 15.2283 6.33526 15.1877 6.15036C15.1489 5.97395 15.1038 5.92348 15.0902 5.90983C15.0765 5.89617 15.0261 5.8511 14.8496 5.81234C14.6647 5.77172 14.3974 5.75 14 5.75H12.75ZM15.25 9.75H12.75V12.25H14C14.3974 12.25 14.6647 12.2283 14.8496 12.1877C15.0261 12.1489 15.0765 12.1038 15.0902 12.0902C15.1038 12.0765 15.1489 12.026 15.1877 11.8496C15.2283 11.6647 15.25 11.3974 15.25 11V9.75ZM8.75 9.75V11C8.75 11.3974 8.77173 11.6647 8.81235 11.8496C8.8511 12.026 8.89618 12.0765 8.90983 12.0902C8.92349 12.1038 8.97395 12.1489 9.15036 12.1877C9.33527 12.2283 9.60257 12.25 10 12.25H11.25L11.25 9.75H8.75ZM8.01228 18C8.5621 18 9.00781 17.5523 9.00781 17C9.00781 16.4477 8.5621 16 8.01228 16H8.00334C7.45353 16 7.00781 16.4477 7.00781 17C7.00781 17.5523 7.45353 18 8.00334 18H8.01228Z" fill="#141B34"/>
</svg>
