<svg width="24" height="24" viewBox="0 0 24 24" fill="none" xmlns="http://www.w3.org/2000/svg">
<path d="M18.1617 4.49433C18.9421 3.56119 20.3314 3.33373 21.3297 4.14819C22.2631 4.90961 22.5401 6.39431 21.6972 7.40217L18.9775 10.6541C20.286 11.7412 21.9371 13.7168 22.235 16.4035C22.3704 17.6258 21.5999 18.6173 20.8318 19.2916C20.0364 19.9899 19.0552 20.5187 18.353 20.8286C18.1481 20.919 17.9253 21.001 17.7215 21.0758L17.7212 21.0759C17.5171 21.1508 17.3061 21.2282 17.1228 21.3054C16.7297 21.4708 16.477 21.6281 16.3372 21.7951C16.1382 22.0343 15.8772 22.348 15.6171 22.503C15.1662 22.7718 14.6184 22.824 14.1249 22.6452C13.8402 22.5421 13.5881 22.3353 13.3475 22.138L9.29312 18.8303C9.12197 18.6907 8.96475 18.5624 8.84037 18.4455C8.70668 18.3198 8.56937 18.17 8.46673 17.9737C8.41277 17.8706 8.3543 17.7484 8.31619 17.6002C8.27808 17.452 8.27034 17.3167 8.26783 17.2003C8.26236 16.9461 8.34555 16.6849 8.41774 16.4794C8.49723 16.2531 8.6486 15.8731 8.79123 15.5192C8.87911 15.2715 8.89486 14.9947 8.91794 14.1131L9.04312 9.33084C9.05389 8.26078 9.81651 7.35369 10.8619 7.14008C12.1169 6.88364 13.3536 7.70332 13.5785 8.97109L13.7254 9.79884L18.1617 4.49433Z" fill="#141B34"/>
<path d="M8.75 3.5C8.75 2.25736 9.75736 1.25 11 1.25C12.2426 1.25 13.25 2.25736 13.25 3.5C13.25 4.74264 12.2426 5.75 11 5.75C9.75736 5.75 8.75 4.74264 8.75 3.5Z" fill="#141B34"/>
<path d="M1.75 10.5C1.75 9.25736 2.75736 8.25 4 8.25C5.24264 8.25 6.25 9.25736 6.25 10.5C6.25 11.7426 5.24264 12.75 4 12.75C2.75736 12.75 1.75 11.7426 1.75 10.5Z" fill="#141B34"/>
<path fill-rule="evenodd" clip-rule="evenodd" d="M9.41663 2.49994C9.44485 2.49997 9.47265 2.49999 9.5 2.49999C10.0523 2.49999 10.5 2.94771 10.5 3.49999C10.5 4.05228 10.0523 4.49999 9.5 4.49999L9.47221 4.49999C9.00732 4.49997 8.65505 4.49995 8.31356 4.55912C7.76939 4.6534 7.25181 4.28869 7.15753 3.74451C7.06325 3.20033 7.42796 2.68276 7.97214 2.58847C8.48861 2.49899 8.99916 2.49951 9.41663 2.49994ZM6.5616 4.02122C6.91587 4.44491 6.85959 5.07557 6.43589 5.42984C6.2525 5.58319 6.08302 5.75278 5.92961 5.93641C5.57553 6.36025 4.94489 6.41681 4.52105 6.06273C4.0972 5.70865 4.04065 5.07801 4.39473 4.65417C4.62432 4.37934 4.8781 4.12536 5.15299 3.89551C5.57668 3.54125 6.20734 3.59753 6.5616 4.02122ZM4.23264 6.66106C4.7781 6.74764 5.15009 7.26001 5.0635 7.80547C5.00645 8.16489 5 8.54027 5 8.99999C5 9.55228 4.55228 9.99999 4 9.99999C3.44772 9.99999 3 9.55228 3 8.99999C3 8.54494 3.00359 8.02516 3.08824 7.49192C3.17482 6.94646 3.68719 6.57448 4.23264 6.66106Z" fill="#141B34"/>
</svg>
