<svg width="24" height="24" viewBox="0 0 24 24" fill="none" xmlns="http://www.w3.org/2000/svg">
<path d="M9.85424 14.3918C10.0162 14.326 10.1219 14.1701 10.1219 13.9971L10.1221 5.44181C10.1221 4.78357 10.6557 4.24997 11.314 4.25C11.9722 4.25003 12.5057 4.78362 12.5057 5.44183L12.5057 11.3494C12.5057 11.5852 12.6992 11.7764 12.9379 11.7764C13.1766 11.7764 13.3701 11.5852 13.3701 11.3494V9.45878C13.3701 9.28627 13.3701 9.20002 13.4416 9.116C13.513 9.03197 13.5793 9.02115 13.712 8.99951C13.8205 8.98182 13.9224 8.97398 13.985 8.97221C14.5722 8.97221 15.1134 9.16508 15.5502 9.49062C15.6435 9.5602 15.6902 9.59498 15.7221 9.65849C15.7539 9.722 15.7539 9.78914 15.7539 9.92343V12.4247C15.7539 12.6604 15.9474 12.8516 16.1861 12.8516C16.4248 12.8516 16.6183 12.6604 16.6183 12.4247V10.5266C16.6183 10.2354 16.6183 10.0898 16.7216 10.0001C16.8248 9.91042 16.9555 9.92884 17.2168 9.96568C17.9799 10.0733 18.4866 10.4015 18.8922 10.9288C18.944 10.9962 18.97 11.0299 18.986 11.0769C19.0019 11.1239 19.0019 11.1714 19.0019 11.2663V13.4999C19.0019 13.7356 19.1954 13.9268 19.4341 13.9268C19.6728 13.9268 19.8663 13.7356 19.8663 13.4999V11.758C19.8663 11.4191 19.8663 11.2497 19.9944 11.1601C20.1224 11.0705 20.2654 11.1228 20.5515 11.2272C21.5116 11.5776 22.25 12.3366 22.25 13.6834C22.25 14.688 22.2496 15.9493 22.2092 16.5883C22.1681 17.2388 22.0831 17.784 21.8895 18.2925C21.6553 18.9078 21.0909 19.6047 20.7172 20.0336C20.492 20.2921 20.3708 20.6007 20.3708 20.9002C20.3709 20.9728 20.3709 21.0675 20.3655 21.1371C20.298 21.9954 19.6163 22.6772 18.758 22.7447C18.6883 22.7501 18.6129 22.7501 18.5402 22.75L12.6633 22.75C12.2729 22.7501 11.9286 22.7501 11.6514 22.7241C11.365 22.6973 11.0392 22.6356 10.7502 22.433C10.4361 22.2128 10.2546 21.8574 10.1249 21.5668C9.98509 21.2533 9.83279 20.8334 9.64853 20.3253L9.63826 20.297C9.49629 19.9055 9.31428 19.5608 9.10658 19.2941L5.52714 14.3694C5.34782 14.1296 5.25554 13.8047 5.25 13.521C5.25327 13.2173 5.35573 12.9148 5.55653 12.6647C6.07582 12.018 7.04157 11.9653 7.62855 12.55L9.38279 14.2977C9.50611 14.4205 9.69229 14.4577 9.85424 14.3918Z" fill="#141B34"/>
<path fill-rule="evenodd" clip-rule="evenodd" d="M8.06445 6C8.06445 4.20507 9.51953 2.75 11.3145 2.75C13.1094 2.75 14.5645 4.20507 14.5645 6C14.5645 6.41421 14.9002 6.75 15.3145 6.75C15.7287 6.75 16.0645 6.41421 16.0645 6C16.0645 3.37665 13.9378 1.25 11.3145 1.25C8.9463 1.25 6.98291 2.98302 6.62333 5.25001H5.25V4.00001C5.25 3.70739 5.07982 3.4415 4.8141 3.31895C4.54838 3.1964 4.23565 3.23959 4.01309 3.42956L2.80922 4.45712C2.56117 4.66875 2.32042 4.87416 2.14794 5.06712C1.95843 5.27913 1.75 5.58451 1.75 6.00001C1.75 6.41552 1.95843 6.72089 2.14794 6.9329C2.32042 7.12586 2.56117 7.33127 2.80921 7.5429L2.80922 7.54291L4.01309 8.57046C4.23565 8.76043 4.54838 8.80362 4.8141 8.68107C5.07982 8.55852 5.25 8.29263 5.25 8.00001V6.75001H6.62333C6.98292 9.01699 8.94631 10.75 11.3145 10.75C11.7287 10.75 12.0645 10.4142 12.0645 10C12.0645 9.58579 11.7287 9.25 11.3145 9.25C9.51953 9.25 8.06445 7.79493 8.06445 6Z" fill="#141B34"/>
</svg>
