<svg width="24" height="24" viewBox="0 0 24 24" fill="none" xmlns="http://www.w3.org/2000/svg">
<path d="M11.9008 7.53374C12.2791 7.91206 12.2791 8.52544 11.9008 8.90376L5.50169 15.3028C5.07499 15.7295 4.85497 16.2823 4.84063 16.8422L4.84013 16.8617L4.84013 16.8618C4.82679 17.3829 4.81614 17.7988 4.79812 18.1073C4.78897 18.264 4.77691 18.4125 4.75838 18.5444C4.74185 18.6621 4.71173 18.8342 4.63947 19.0025C4.53898 19.2366 4.34816 19.6518 4.34816 19.6518C4.34816 19.6518 4.76338 19.461 4.99747 19.3605C5.1658 19.2883 5.33791 19.2582 5.45555 19.2416C5.58746 19.2231 5.73601 19.211 5.89271 19.2019C6.20124 19.1839 6.61727 19.1732 7.13849 19.1599L7.13853 19.1599L7.15779 19.1594C7.71772 19.145 8.27047 18.925 8.69717 18.4983L9.88009 17.3154L9.04327 16.4786C8.66495 16.1002 8.66495 15.4869 9.04327 15.1085C9.42159 14.7302 10.035 14.7302 10.4133 15.1085L11.2501 15.9454L12.8894 14.3061L12.0526 13.4693C11.6743 13.0909 11.6743 12.4776 12.0526 12.0992C12.4309 11.7209 13.0443 11.7209 13.4226 12.0992L14.2594 12.9361L15.0962 12.0992C15.4746 11.7209 16.0879 11.7209 16.4663 12.0992C16.8446 12.4776 16.8446 13.0909 16.4663 13.4693L10.0672 19.8683C9.27547 20.66 8.24398 21.0697 7.20739 21.0962C6.66242 21.1102 6.27849 21.1201 6.00567 21.1361C5.8891 21.1429 5.80724 21.15 5.75099 21.1569C5.66181 21.2357 5.51102 21.3808 5.3163 21.5756L4.74077 22.1511C3.94221 22.9496 2.64748 22.9496 1.84892 22.1511C1.05036 21.3525 1.05036 20.0578 1.84892 19.2592L2.42444 18.6837C2.61916 18.489 2.76427 18.3382 2.8431 18.249C2.84996 18.1928 2.85711 18.1109 2.86392 17.9943C2.87985 17.7215 2.88981 17.3376 2.90377 16.7926C2.93031 15.756 3.33995 14.7245 4.13167 13.9328L10.5307 7.53374C10.9091 7.15542 11.5224 7.15542 11.9008 7.53374Z" fill="#141B34"/>
<path d="M16.0375 2.40168C17.5731 0.866108 20.0628 0.866109 21.5983 2.40168C23.1339 3.93725 23.1339 6.42689 21.5983 7.96246L20.0305 9.53025C19.495 10.0658 19.495 10.9341 20.0305 11.4697C20.3234 11.7626 20.3234 12.2374 20.0305 12.5303C19.7376 12.8232 19.2628 12.8232 18.9699 12.5303L11.4697 5.03012C11.1768 4.73723 11.1768 4.26235 11.4697 3.96946C11.7626 3.67657 12.2374 3.67657 12.5303 3.96946C13.0659 4.50477 13.9343 4.50494 14.4698 3.96946L16.0375 2.40168Z" fill="#141B34"/>
</svg>
