<svg width="24" height="24" viewBox="0 0 24 24" fill="none" xmlns="http://www.w3.org/2000/svg">
<path d="M13.5419 2.11909C15.6386 0.947836 18.0704 0.501653 20.0698 1.73983C22.0485 2.9652 22.8882 5.40389 22.9896 7.90636C23.0922 10.4374 22.4571 13.2426 21.2485 15.4879C20.4022 17.0603 19.2147 18.0456 17.9381 18.6153C17.5028 18.8096 17.2852 18.9067 17.1419 18.789C16.9986 18.6712 17.0578 18.4117 17.1763 17.8926C17.3496 17.1334 17.438 16.3225 17.438 15.4672C17.438 12.7915 16.611 9.95447 15.2036 7.73594C14.3858 6.44674 13.2569 5.20507 11.8466 4.41114C11.4587 4.1928 11.2648 4.08363 11.2508 3.92621C11.2369 3.76879 11.3927 3.64033 11.7043 3.3834C12.2921 2.8988 12.9098 2.47218 13.5419 2.11909Z" fill="#141B34"/>
<path d="M8.49998 5.24986C6.27722 5.24986 4.45161 6.76318 3.2245 8.69015C1.98682 10.6337 1.24998 13.1486 1.24998 15.4999C1.24998 17.8828 2.04085 19.7228 3.39841 20.9609C4.74444 22.1884 6.56577 22.7499 8.49998 22.7499C10.4342 22.7499 12.2555 22.1884 13.6015 20.9609C14.9591 19.7228 15.75 17.8828 15.75 15.4999C15.75 13.1486 15.0131 10.6337 13.7755 8.69015C12.5483 6.76318 10.7227 5.24986 8.49998 5.24986Z" fill="#141B34"/>
</svg>
