<svg width="24" height="24" viewBox="0 0 24 24" fill="none" xmlns="http://www.w3.org/2000/svg">
<path fill-rule="evenodd" clip-rule="evenodd" d="M20.75 10.3414L21.4809 11.0423C21.7799 11.3289 22.2547 11.319 22.5413 11.02C22.828 10.721 22.8181 10.2463 22.5191 9.95957L18.1359 5.75663C16.8365 4.51072 15.8068 3.5233 14.8926 2.85448C13.9505 2.16527 13.0488 1.75092 12 1.75092C10.9512 1.75092 10.0495 2.16527 9.10742 2.85448C8.19322 3.5233 7.16347 4.51072 5.86414 5.75662L1.48092 9.95957C1.18194 10.2463 1.17197 10.721 1.45866 11.02C1.74534 11.319 2.2201 11.3289 2.51908 11.0423L3.25 10.3414L3.25 13.5573C3.24998 15.3951 3.24997 16.8507 3.40314 17.9899C3.56076 19.1624 3.89288 20.1113 4.64124 20.8597C5.31931 21.5377 6.16309 21.8749 7.19106 22.0493C8.19721 22.2201 9.45057 22.2455 10.9976 22.25L11.2503 22.2478V18.244C10.4951 18.1936 9.78309 17.826 9.33649 17.2109L8.98603 16.7282C8.34243 15.8418 7.95433 14.8126 7.86562 13.7391L7.75839 12.4417C7.68187 11.5157 8.4205 10.8284 9.25129 10.7562V8.99994C9.25129 8.58573 9.58708 8.24994 10.0013 8.24994C10.4155 8.24994 10.7513 8.58573 10.7513 8.99994V10.7499H13.2513V8.99994C13.2513 8.58573 13.5871 8.24994 14.0013 8.24994C14.4155 8.24994 14.7513 8.58573 14.7513 8.99994V10.7559C15.5837 10.8263 16.3247 11.5143 16.2481 12.4417L16.1409 13.7391C16.0522 14.8126 15.6641 15.8418 15.0205 16.7282L14.67 17.2109C14.2222 17.8276 13.5077 18.1955 12.7503 18.2444V22.2351L15.0064 22.2159C15.01 22.2159 15.0136 22.2158 15.0172 22.2158C15.0218 22.2156 15.0265 22.2155 15.0311 22.2153C16.9126 22.1372 18.3299 21.8885 19.3588 20.8597C20.1071 20.1113 20.4392 19.1624 20.5969 17.9899C20.75 16.8507 20.75 15.3951 20.75 13.5574V13.5573V10.3414Z" fill="#141B34"/>
</svg>
