<svg width="24" height="24" viewBox="0 0 24 24" fill="none" xmlns="http://www.w3.org/2000/svg">
<path fill-rule="evenodd" clip-rule="evenodd" d="M12 1.25C11.1339 1.25 10.3597 1.52688 9.52381 1.99594C8.7139 2.45043 7.78586 3.12145 6.61887 3.96524L5.10984 5.05632L5.10983 5.05633C4.17329 5.73347 3.42528 6.2743 2.86109 6.77487C2.27855 7.29173 1.84274 7.807 1.5663 8.45513C1.28925 9.10469 1.22225 9.77045 1.25941 10.5381C1.29528 11.2789 1.43264 12.1727 1.60393 13.2872L1.91918 15.3387C2.16256 16.9225 2.35635 18.1836 2.64105 19.1662C2.93544 20.1821 3.35016 20.9887 4.0914 21.6052C4.82957 22.2192 5.7089 22.4926 6.78306 22.6231C7.828 22.75 9.14615 22.75 10.8111 22.75H10.8612L11.2503 22.7493V19.2441C10.4948 19.194 9.78231 18.8263 9.33551 18.211L8.98505 17.7283C8.34145 16.8419 7.95335 15.8127 7.86464 14.7392L7.75742 13.4418C7.68089 12.5158 8.41953 11.8285 9.25032 11.7563V10C9.25032 9.58579 9.5861 9.25 10.0003 9.25C10.4145 9.25 10.7503 9.58579 10.7503 10V11.75H13.2503V10C13.2503 9.58579 13.5861 9.25 14.0003 9.25C14.4145 9.25 14.7503 9.58579 14.7503 10V11.7559C15.5827 11.8263 16.3238 12.5143 16.2471 13.4418L16.1399 14.7392C16.0512 15.8127 15.6631 16.8419 15.0195 17.7283L14.669 18.211C14.2215 18.8274 13.5073 19.1952 12.7503 19.2444V22.7464L15.0014 22.7422L15.0106 22.742C17.1925 22.7112 18.7429 22.5748 19.9086 21.6052C20.6499 20.9887 21.0646 20.1821 21.359 19.1661C21.6437 18.1836 21.8375 16.9225 22.0808 15.3387L22.3961 13.2871C22.5674 12.1726 22.7047 11.2789 22.7406 10.5381C22.7778 9.77045 22.7108 9.10469 22.4337 8.45514C22.1573 7.807 21.7215 7.29173 21.1389 6.77487C20.5747 6.27431 19.8268 5.7335 18.8902 5.05638L18.8902 5.05634L18.8902 5.05632L17.3811 3.96523C16.2141 3.12144 15.2861 2.45043 14.4762 1.99594C13.6403 1.52688 12.8661 1.25 12 1.25Z" fill="#141B34"/>
</svg>
