<svg width="24" height="24" viewBox="0 0 24 24" fill="none" xmlns="http://www.w3.org/2000/svg">
<path fill-rule="evenodd" clip-rule="evenodd" d="M5.89977 11.454C6.45983 10.9388 7.24525 10.875 7.90176 10.875L16.0982 10.875C16.7919 10.875 17.5833 10.9539 18.1358 11.4876C18.6823 12.0156 18.75 12.7561 18.75 13.375C18.75 13.9603 18.683 14.6192 18.2632 15.1245C18.6931 15.6388 18.75 16.3079 18.75 16.875C18.75 17.4603 18.683 18.1192 18.2632 18.6245C18.6931 19.1388 18.75 19.8079 18.75 20.375C18.75 21.029 18.6663 21.7751 18.1002 22.296C17.5401 22.8112 16.7547 22.875 16.0982 22.875H7.90176C7.20801 22.875 6.4166 22.7961 5.86417 22.2624C5.31766 21.7344 5.24997 20.9939 5.24997 20.375C5.24997 19.7897 5.31697 19.1308 5.7367 18.6255C5.3068 18.1112 5.24997 17.4421 5.24997 16.875C5.24997 16.2897 5.31697 15.6308 5.7367 15.1255C5.3068 14.6112 5.24997 13.9421 5.24997 13.375C5.24997 12.721 5.33364 11.9749 5.89977 11.454ZM7.22969 12.8199C7.20155 12.9224 7.17854 13.0938 7.17854 13.375C7.17854 13.6487 7.19895 13.8181 7.22597 13.9227C7.23422 13.9547 7.24186 13.9758 7.24741 13.9888C7.26057 13.994 7.28154 14.0009 7.31292 14.0086C7.42171 14.0351 7.60347 14.0568 7.90176 14.0568L16.0982 14.0568C16.3885 14.0568 16.5682 14.0376 16.6791 14.0121C16.7131 14.0043 16.7355 13.9971 16.7493 13.9919C16.7547 13.9795 16.7621 13.9597 16.7702 13.9301C16.7984 13.8276 16.8214 13.6562 16.8214 13.375C16.8214 13.1013 16.801 12.9319 16.774 12.8273C16.7657 12.7953 16.7581 12.7742 16.7525 12.7612C16.7394 12.756 16.7184 12.7491 16.687 12.7414C16.5782 12.7149 16.3965 12.6932 16.0982 12.6932L7.90176 12.6932C7.61148 12.6932 7.43177 12.7124 7.3208 12.7379C7.28688 12.7457 7.26447 12.7529 7.25065 12.7581C7.24521 12.7705 7.23781 12.7903 7.22969 12.8199ZM7.22969 16.3199C7.20155 16.4224 7.17854 16.5938 7.17854 16.875C7.17854 17.1487 7.19895 17.3181 7.22597 17.4227C7.23422 17.4547 7.24186 17.4758 7.24741 17.4888C7.26057 17.494 7.28154 17.5009 7.31292 17.5086C7.42171 17.5351 7.60347 17.5568 7.90176 17.5568L16.0982 17.5568C16.3885 17.5568 16.5682 17.5376 16.6791 17.5121C16.7131 17.5043 16.7355 17.4971 16.7493 17.4919C16.7547 17.4795 16.7621 17.4597 16.7702 17.4301C16.7984 17.3276 16.8214 17.1562 16.8214 16.875C16.8214 16.6013 16.801 16.4319 16.774 16.3273C16.7657 16.2953 16.7581 16.2742 16.7525 16.2612C16.7394 16.256 16.7184 16.2491 16.687 16.2414C16.5782 16.2149 16.3965 16.1932 16.0982 16.1932H7.90176C7.61148 16.1932 7.43177 16.2124 7.3208 16.2379C7.28688 16.2457 7.26447 16.2529 7.25065 16.2581C7.24521 16.2705 7.23781 16.2903 7.22969 16.3199ZM7.17854 20.375C7.17854 20.0938 7.20155 19.9224 7.22969 19.8199C7.23781 19.7903 7.24521 19.7705 7.25065 19.7581C7.26447 19.7529 7.28688 19.7457 7.3208 19.7379C7.43177 19.7124 7.61148 19.6932 7.90176 19.6932H16.0982C16.3965 19.6932 16.5782 19.7149 16.687 19.7414C16.7184 19.7491 16.7394 19.756 16.7525 19.7612C16.7581 19.7742 16.7657 19.7953 16.774 19.8273C16.801 19.9319 16.8214 20.1013 16.8214 20.375C16.8214 20.6562 16.7984 20.8276 16.7702 20.9301C16.7621 20.9597 16.7547 20.9795 16.7493 20.9919C16.7355 20.9971 16.7131 21.0043 16.6791 21.0121C16.5682 21.0376 16.3885 21.0568 16.0982 21.0568H7.90176C7.60347 21.0568 7.42171 21.0351 7.31292 21.0086C7.28154 21.0009 7.26057 20.994 7.24741 20.9888C7.24186 20.9758 7.23422 20.9547 7.22597 20.9227C7.19895 20.8181 7.17854 20.6487 7.17854 20.375Z" fill="#141B34"/>
<path fill-rule="evenodd" clip-rule="evenodd" d="M16.9999 5.125C16.9999 4.57272 16.5522 4.125 15.9999 4.125L7.99993 4.125C7.44765 4.125 6.99993 4.57272 6.99993 5.125C6.99993 5.67728 7.44765 6.125 7.99993 6.125L15.9999 6.125C16.5522 6.125 16.9999 5.67728 16.9999 5.125ZM17.9708 5.09108C17.9466 5.64284 18.3743 6.10974 18.926 6.13393C19.279 6.14942 19.3981 6.18739 19.4719 6.22287C19.6291 6.29843 19.7699 6.43744 20.42 7.25008L21.2191 8.24886C21.5641 8.68013 22.1934 8.75005 22.6246 8.40504C23.0559 8.06003 23.1258 7.43074 22.7808 6.99947L21.9818 6.00069C21.948 5.95844 21.9145 5.91645 21.8813 5.87478C21.3935 5.26289 20.9601 4.71912 20.3382 4.42026C19.9018 4.21048 19.463 4.15556 19.0137 4.13586C18.4619 4.11166 17.995 4.53933 17.9708 5.09108ZM6.02905 5.09108C6.00485 4.53933 5.53795 4.11166 4.9862 4.13586C4.53689 4.15556 4.09809 4.21048 3.66162 4.42026C3.03979 4.71912 2.60634 5.26288 2.11859 5.87476C2.08537 5.91644 2.05189 5.95844 2.01809 6.00069L1.21906 6.99947C0.874056 7.43073 0.943975 8.06003 1.37524 8.40504C1.8065 8.75005 2.43579 8.68013 2.7808 8.24886L3.57983 7.25008C4.22994 6.43744 4.37077 6.29843 4.52799 6.22286C4.6018 6.18739 4.72082 6.14942 5.07383 6.13393C5.62558 6.10974 6.05325 5.64284 6.02905 5.09108Z" fill="#141B34"/>
<path fill-rule="evenodd" clip-rule="evenodd" d="M8.00038 1.125C8.55267 1.125 9.00038 1.57272 9.00038 2.125L8.99997 11.0927C8.99997 11.645 8.55225 12.0927 7.99997 12.0927C7.44768 12.0927 6.99997 11.645 6.99997 11.0927L7.00038 2.125C7.00038 1.57272 7.4481 1.125 8.00038 1.125ZM16.0004 1.125C16.5527 1.125 17.0004 1.57272 17.0004 2.125L17 11.0927C17 11.645 16.5523 12.0927 16 12.0927C15.4477 12.0927 15 11.645 15 11.0927L15.0004 2.125C15.0004 1.57272 15.4481 1.125 16.0004 1.125Z" fill="#141B34"/>
</svg>
