<svg width="24" height="24" viewBox="0 0 24 24" fill="none" xmlns="http://www.w3.org/2000/svg">
<path fill-rule="evenodd" clip-rule="evenodd" d="M5.62533 1.12488C6.0041 1.12488 6.35036 1.33888 6.51976 1.67766L10.0198 8.67766C10.2667 9.17164 10.0665 9.77232 9.57254 10.0193C9.07856 10.2663 8.47789 10.0661 8.2309 9.57209L7.25228 7.61485H3.99837L3.01976 9.57209C2.77277 10.0661 2.17209 10.2663 1.67812 10.0193C1.18414 9.77232 0.983912 9.17164 1.2309 8.67766L4.7309 1.67766C4.90029 1.33888 5.24656 1.12488 5.62533 1.12488ZM4.99837 5.61485H6.25228L5.62533 4.36095L4.99837 5.61485Z" fill="#141B34"/>
<path d="M17.1163 7.375C17.0987 7.37484 17.0811 7.37484 17.0635 7.375C16.409 7.38114 15.8678 7.65931 15.3525 8.05597C14.8628 8.43298 14.318 8.98073 13.6617 9.64058L12.5812 10.7268C12.3827 10.9264 12.2834 11.0261 12.2834 11.1499C12.2834 11.2737 12.3827 11.3735 12.5812 11.5731L18.7083 17.7327C18.9087 17.9342 19.0089 18.035 19.1337 18.035C19.2584 18.035 19.3586 17.9342 19.559 17.7327L20.5912 16.6951C21.2581 16.0246 21.811 15.4688 22.1913 14.9689C22.5917 14.4427 22.8689 13.8936 22.875 13.2313C22.8752 13.2134 22.8752 13.1956 22.875 13.1778C22.8689 12.5155 22.5917 11.9663 22.1913 11.4401C21.811 10.9402 21.2581 10.3844 20.5912 9.71402L20.5181 9.64058C19.8618 8.98074 19.317 8.43297 18.8273 8.05597C18.312 7.65931 17.7708 7.38114 17.1163 7.375Z" fill="#141B34"/>
<path d="M17.6549 19.647C17.8534 19.4474 17.9527 19.3477 17.9527 19.2239C17.9527 19.1001 17.8534 19.0003 17.6549 18.8007L11.5278 12.6411C11.3274 12.4396 11.2271 12.3388 11.1024 12.3388C10.9777 12.3388 10.8775 12.4396 10.677 12.6411L8.67634 14.6524C8.00119 15.3311 7.44149 15.8937 7.05755 16.3999C6.6532 16.933 6.37511 17.4895 6.37511 18.1603C6.37511 18.8311 6.6532 19.3876 7.05755 19.9207C7.44149 20.4268 8.42756 21.4183 9.10271 22.097C9.34376 22.3407 9.59785 22.5975 9.93207 22.737C10.2673 22.877 10.6282 22.876 10.9687 22.875H13.3519C13.6925 22.876 14.0533 22.877 14.3886 22.737C14.7228 22.5975 14.9769 22.3407 15.2179 22.097L17.6549 19.647Z" fill="#141B34"/>
</svg>
