<svg width="24" height="24" viewBox="0 0 24 24" fill="none" xmlns="http://www.w3.org/2000/svg">
<path d="M4.1449 3.35515C7.12587 1.52662 9.8001 2.25537 11.4156 3.46861C11.6814 3.6682 11.8638 3.8048 11.9996 3.89704C12.1354 3.8048 12.3178 3.6682 12.5836 3.46861C14.1991 2.25537 16.8734 1.52662 19.8543 3.35515C21.9156 4.61952 23.0754 7.2606 22.6684 10.2951C22.2595 13.3443 20.2859 16.7929 16.1063 19.8865C14.6549 20.9614 13.5897 21.7503 11.9996 21.7503C10.4095 21.7503 9.34433 20.9614 7.89294 19.8865C3.71334 16.7929 1.73976 13.3443 1.33081 10.2951C0.923824 7.2606 2.08365 4.61952 4.1449 3.35515Z" fill="#141B34"/>
</svg>
