<svg width="24" height="24" viewBox="0 0 24 24" fill="none" xmlns="http://www.w3.org/2000/svg">
<path fill-rule="evenodd" clip-rule="evenodd" d="M1.29289 1.29289C1.68342 0.902369 2.31658 0.902369 2.70711 1.29289L22.7071 21.2929C23.0976 21.6834 23.0976 22.3166 22.7071 22.7071C22.3166 23.0976 21.6834 23.0976 21.2929 22.7071L1.29289 2.70711C0.902369 2.31658 0.902369 1.68342 1.29289 1.29289Z" fill="#141B34"/>
<path fill-rule="evenodd" clip-rule="evenodd" d="M20.5277 15.244C20.3684 15.6306 20.1127 15.9525 19.8103 16.2745L5.55341 2.01769C6.15431 1.68536 6.83924 1.50508 7.60322 1.40183C8.72706 1.24996 10.2982 1.24997 12.071 1.25C13.8438 1.24997 15.2727 1.24996 16.3965 1.40183C17.5633 1.55952 18.5457 1.89686 19.326 2.68117C20.1062 3.46548 20.4418 4.453 20.5987 5.62586C20.7498 6.75554 20.7498 8.19189 20.7497 9.9739L20.7499 13.4482C20.7509 14.1115 20.7518 14.7003 20.5277 15.244ZM3.40105 5.62586C3.48717 4.982 3.62715 4.39399 3.86498 3.86479L18.0503 18.0501L14.6387 21.4795C14.2362 21.8851 13.8799 22.2442 13.4251 22.4629C13.3314 22.5079 13.2353 22.5479 13.1373 22.5827C12.6619 22.7513 12.1574 22.7507 11.5874 22.7499C10.0617 22.7499 8.6541 22.7498 7.67535 22.635C6.66266 22.5161 5.79495 22.2631 5.05993 21.6674C4.79012 21.4487 4.54435 21.2017 4.32681 20.9305C3.73418 20.1916 3.48248 19.3194 3.36425 18.3014C3.24997 17.3176 3.24998 16.0811 3.25 14.5474V14.5474V9.97384V9.97383C3.24998 8.19187 3.24996 6.75552 3.40105 5.62586ZM13.5884 15.5954C13.9497 15.2341 14.3672 14.9964 14.8379 14.8379L16.6718 16.6717L13.3462 20.0146C12.8133 20.5503 12.6719 20.6837 12.4902 20.7384V20.7384C12.4902 19.3766 12.4902 18.7205 12.6065 17.8553C12.7275 16.9552 12.9864 16.1973 13.5884 15.5954Z" fill="#141B34"/>
</svg>
