<svg width="24" height="24" viewBox="0 0 24 24" fill="none" xmlns="http://www.w3.org/2000/svg">
<path d="M5.18213 2.25C4.41159 2.24997 3.7574 2.24994 3.2413 2.32026C2.69502 2.3947 2.17269 2.56273 1.7728 3.00266C1.36942 3.44644 1.259 3.98125 1.25053 4.52794C1.24262 5.0385 1.32429 5.67272 1.41951 6.41217L1.42644 6.46603C1.46012 6.7277 1.51062 6.98078 1.61595 7.23417C1.72289 7.49143 1.87013 7.71054 2.05351 7.9283C3.03182 9.09 4.84956 11.1885 7.40839 13.1005C7.45034 13.1318 7.50273 13.206 7.51176 13.3161C7.79286 16.7485 8.0506 19.0959 8.18796 20.2555C8.25434 20.8158 8.56871 21.3055 9.04285 21.5646C9.5353 21.8337 10.1464 21.8198 10.6591 21.4574C10.8463 21.3251 11.0743 21.1867 11.3465 21.0214L11.4259 20.9732C11.7217 20.7934 12.0559 20.588 12.3719 20.3592C12.9733 19.9238 13.68 19.2866 13.8513 18.3729C13.8861 18.1869 13.9231 17.9769 13.962 17.7355C13.9968 17.5198 14.0142 17.4119 13.9626 17.3437C13.911 17.2755 13.7868 17.2612 13.5382 17.2325C13.0878 17.1806 12.6618 17.0033 12.3292 16.6707C11.7608 16.1023 11.7307 15.403 11.7561 15.005C11.8155 14.0709 12.0454 13.0819 12.2779 12.1714C12.4439 11.5212 12.7391 10.7342 13.4012 10.072L17.3293 6.14395C17.6728 5.7994 18.0147 5.43825 18.4396 5.19291C19.0615 4.83386 19.7712 4.69312 20.4618 4.77066C20.6115 4.78747 20.7518 4.67856 20.7494 4.52794C20.741 3.98125 20.6306 3.44644 20.2272 3.00266C19.8273 2.56273 19.3049 2.3947 18.7587 2.32026C18.2426 2.24994 17.5884 2.24997 16.8179 2.25H5.18213Z" fill="#141B34"/>
<path d="M18.3901 7.20461C18.786 6.80875 18.9839 6.61083 19.1898 6.49195C19.7485 6.16935 20.437 6.16935 20.9957 6.49195C21.2016 6.61083 21.3995 6.80875 21.7954 7.2046C22.1912 7.60046 22.3892 7.79838 22.5081 8.00429C22.8306 8.56304 22.8306 9.25146 22.5081 9.81021C22.3892 10.0161 22.1912 10.214 21.7954 10.6099L17.8673 14.538C17.0826 15.3227 15.8982 15.3546 14.8504 15.5787C14.0311 15.7539 13.6214 15.8415 13.39 15.61C13.1585 15.3786 13.2461 14.9689 13.4213 14.1496C13.6454 13.1018 13.6773 11.9174 14.462 11.1327L18.3901 7.20461Z" fill="#141B34"/>
</svg>
