<svg width="24" height="24" viewBox="0 0 24 24" fill="none" xmlns="http://www.w3.org/2000/svg">
<path fill-rule="evenodd" clip-rule="evenodd" d="M7 22C6.44772 22 6 21.5523 6 21L6 18C6 17.4477 6.44772 17 7 17C7.55228 17 8 17.4477 8 18L8 21C8 21.5523 7.55228 22 7 22Z" fill="#141B34"/>
<path fill-rule="evenodd" clip-rule="evenodd" d="M17 22C16.4477 22 16 21.5523 16 21L16 15C16 14.4477 16.4477 14 17 14C17.5523 14 18 14.4477 18 15L18 21C18 21.5523 17.5523 22 17 22Z" fill="#141B34"/>
<path fill-rule="evenodd" clip-rule="evenodd" d="M17 7C16.4477 7 16 6.55228 16 6L16 3C16 2.44772 16.4477 2 17 2C17.5523 2 18 2.44772 18 3L18 6C18 6.55228 17.5523 7 17 7Z" fill="#141B34"/>
<path fill-rule="evenodd" clip-rule="evenodd" d="M7 10C6.44772 10 6 9.55228 6 9L6 3C6 2.44772 6.44772 2 7 2C7.55229 2 8 2.44772 8 3L8 9C8 9.55228 7.55228 10 7 10Z" fill="#141B34"/>
<path fill-rule="evenodd" clip-rule="evenodd" d="M6.97475 11.25H7.02525C7.46972 11.25 7.84075 11.25 8.14537 11.2708C8.46247 11.2924 8.76199 11.339 9.05238 11.4593C9.72621 11.7384 10.2616 12.2738 10.5407 12.9476C10.661 13.238 10.7076 13.5375 10.7292 13.8546C10.75 14.1592 10.75 14.5303 10.75 14.9747V15.0253C10.75 15.4697 10.75 15.8408 10.7292 16.1454C10.7076 16.4625 10.661 16.762 10.5407 17.0524C10.2616 17.7262 9.72621 18.2616 9.05238 18.5407C8.76199 18.661 8.46247 18.7076 8.14537 18.7292C7.84075 18.75 7.46972 18.75 7.02526 18.75H6.97474C6.53028 18.75 6.15925 18.75 5.85464 18.7292C5.53754 18.7076 5.23801 18.661 4.94762 18.5407C4.27379 18.2616 3.73844 17.7262 3.45933 17.0524C3.33905 16.762 3.29241 16.4625 3.27077 16.1454C3.24999 15.8408 3.24999 15.4697 3.25 15.0253V14.9747C3.24999 14.5303 3.24999 14.1592 3.27077 13.8546C3.29241 13.5375 3.33905 13.238 3.45933 12.9476C3.73844 12.2738 4.27379 11.7384 4.94762 11.4593C5.23801 11.339 5.53754 11.2924 5.85464 11.2708C6.15925 11.25 6.53029 11.25 6.97475 11.25Z" fill="#141B34"/>
<path fill-rule="evenodd" clip-rule="evenodd" d="M16.9747 5.25H17.0253C17.4697 5.24999 17.8408 5.24999 18.1454 5.27077C18.4625 5.29241 18.762 5.33905 19.0524 5.45933C19.7262 5.73844 20.2616 6.27379 20.5407 6.94762C20.661 7.23801 20.7076 7.53754 20.7292 7.85464C20.75 8.15925 20.75 8.53028 20.75 8.97474V9.02526C20.75 9.46972 20.75 9.84075 20.7292 10.1454C20.7076 10.4625 20.661 10.762 20.5407 11.0524C20.2616 11.7262 19.7262 12.2616 19.0524 12.5407C18.762 12.661 18.4625 12.7076 18.1454 12.7292C17.8408 12.75 17.4697 12.75 17.0253 12.75H16.9747C16.5303 12.75 16.1592 12.75 15.8546 12.7292C15.5375 12.7076 15.238 12.661 14.9476 12.5407C14.2738 12.2616 13.7384 11.7262 13.4593 11.0524C13.339 10.762 13.2924 10.4625 13.2708 10.1454C13.25 9.84075 13.25 9.46971 13.25 9.02525V8.97475C13.25 8.53029 13.25 8.15925 13.2708 7.85464C13.2924 7.53754 13.339 7.23801 13.4593 6.94762C13.7384 6.27379 14.2738 5.73844 14.9476 5.45933C15.238 5.33905 15.5375 5.29241 15.8546 5.27077C16.1592 5.24999 16.5303 5.24999 16.9747 5.25Z" fill="#141B34"/>
</svg>
