<svg width="24" height="24" viewBox="0 0 24 24" fill="none" xmlns="http://www.w3.org/2000/svg">
<path fill-rule="evenodd" clip-rule="evenodd" d="M5.30368 3.72141C5.45752 3.33682 5.894 3.14976 6.27858 3.3036C9.02807 4.40339 10.7493 6.4302 11.7298 8.22784C12.439 6.2499 13.7709 4.91802 14.584 4.37592C14.9287 4.14615 15.3943 4.23928 15.6241 4.58393C15.8538 4.92858 15.7607 5.39423 15.4161 5.62399C14.8004 6.03446 13.6799 7.15496 13.1074 8.83611C15.0536 7.32193 18.2127 6.03909 22.2228 7.28662C22.6183 7.40967 22.8392 7.83004 22.7162 8.22556C22.5931 8.62107 22.1728 8.84196 21.7773 8.71891C17.7434 7.46399 14.7504 9.19744 13.2818 10.675C13.8443 10.918 14.5795 11.287 15.3593 11.8173C17.0208 12.9471 18.9131 14.8308 19.7236 17.8026C19.8326 18.2022 19.597 18.6145 19.1974 18.7235C18.7978 18.8325 18.3855 18.5969 18.2765 18.1973C17.587 15.6691 15.9792 14.0528 14.5158 13.0577C14.2289 12.8625 13.9486 12.6921 13.6835 12.5443C14.1632 13.8272 14.4012 15.5676 14.1459 18.0759C14.1039 18.488 13.7359 18.788 13.3238 18.7461C12.9117 18.7041 12.6116 18.3361 12.6536 17.924C12.9607 14.9076 12.4913 13.2619 11.8733 12.2189C11.5316 12.6183 11.0891 13.1959 10.6453 13.9448C9.69962 15.5406 8.75004 17.9099 8.75004 21C8.75004 21.4142 8.41426 21.75 8.00004 21.75C7.58583 21.75 7.25004 21.4142 7.25004 21C7.25004 17.59 8.30046 14.9593 9.35482 13.1801C9.57471 12.809 9.79485 12.4748 10.0058 12.178C9.60618 12.3415 9.20828 12.5439 8.82271 12.7711C7.82257 13.3605 6.9854 14.0691 6.53393 14.5267C6.24301 14.8216 5.76815 14.8248 5.47329 14.5338C5.17843 14.2429 5.17524 13.7681 5.46615 13.4732C6.00131 12.9308 6.94007 12.1394 8.06118 11.4788C8.59441 11.1646 9.18778 10.8687 9.81319 10.646C6.13585 8.91406 3.37527 9.92389 2.45297 10.6227C2.12282 10.8728 1.65239 10.808 1.40225 10.4778C1.1521 10.1477 1.21696 9.67724 1.54711 9.4271C2.95639 8.35934 6.39072 7.29974 10.6367 9.37786C9.84652 7.74714 8.31091 5.73208 5.7215 4.69631C5.33691 4.54248 5.14985 4.106 5.30368 3.72141Z" fill="#141B34"/>
<path fill-rule="evenodd" clip-rule="evenodd" d="M13 19.7422C13.4142 19.7422 13.75 20.078 13.75 20.4922V20.5022C13.75 20.9164 13.4142 21.2522 13 21.2522C12.5858 21.2522 12.25 20.9164 12.25 20.5022V20.4922C12.25 20.078 12.5858 19.7422 13 19.7422Z" fill="#141B34"/>
<path fill-rule="evenodd" clip-rule="evenodd" d="M17 2.25C17.4142 2.25 17.75 2.58579 17.75 3V3.01C17.75 3.42421 17.4142 3.76 17 3.76C16.5858 3.76 16.25 3.42421 16.25 3.01V3C16.25 2.58579 16.5858 2.25 17 2.25Z" fill="#141B34"/>
<path fill-rule="evenodd" clip-rule="evenodd" d="M20 11.25C20.4142 11.25 20.75 11.5858 20.75 12V12.01C20.75 12.4242 20.4142 12.76 20 12.76C19.5858 12.76 19.25 12.4242 19.25 12.01V12C19.25 11.5858 19.5858 11.25 20 11.25Z" fill="#141B34"/>
<path fill-rule="evenodd" clip-rule="evenodd" d="M11 3.25C11.4142 3.25 11.75 3.58579 11.75 4V4.01C11.75 4.42421 11.4142 4.76 11 4.76C10.5858 4.76 10.25 4.42421 10.25 4.01V4C10.25 3.58579 10.5858 3.25 11 3.25Z" fill="#141B34"/>
<path fill-rule="evenodd" clip-rule="evenodd" d="M18 10.25C18.4142 10.25 18.75 10.5858 18.75 11V11.01C18.75 11.4242 18.4142 11.76 18 11.76C17.5858 11.76 17.25 11.4242 17.25 11.01V11C17.25 10.5858 17.5858 10.25 18 10.25Z" fill="#141B34"/>
<path fill-rule="evenodd" clip-rule="evenodd" d="M3 2.25C3.41421 2.25 3.75 2.58579 3.75 3V3.01C3.75 3.42421 3.41421 3.76 3 3.76C2.58579 3.76 2.25 3.42421 2.25 3.01V3C2.25 2.58579 2.58579 2.25 3 2.25Z" fill="#141B34"/>
<path fill-rule="evenodd" clip-rule="evenodd" d="M4 15.25C4.41421 15.25 4.75 15.5858 4.75 16V16.01C4.75 16.4242 4.41421 16.76 4 16.76C3.58579 16.76 3.25 16.4242 3.25 16.01V16C3.25 15.5858 3.58579 15.25 4 15.25Z" fill="#141B34"/>
</svg>
