<svg width="24" height="24" viewBox="0 0 24 24" fill="none" xmlns="http://www.w3.org/2000/svg">
<path fill-rule="evenodd" clip-rule="evenodd" d="M9.24701 4.2001C8.74835 4.19865 8.26396 4.1996 7.78431 4.21565C7.23235 4.23413 6.76954 3.81292 6.75059 3.27486C6.73164 2.73681 7.16373 2.28566 7.71569 2.26719C8.23528 2.2498 8.75146 2.24903 9.25299 2.2505C9.80528 2.25211 10.2516 2.68985 10.25 3.22822C10.2483 3.76659 9.79929 4.20172 9.24701 4.2001ZM5.8879 3.31074C6.13692 3.79127 5.93918 4.37762 5.44622 4.62037C4.67966 4.99785 4.05684 5.60728 3.67254 6.35624C3.42547 6.83774 2.82477 7.03283 2.33083 6.79199C1.83689 6.55115 1.63676 5.96557 1.88382 5.48408C2.46044 4.36032 3.3943 3.44656 4.54443 2.88019C5.03738 2.63744 5.63888 2.8302 5.8879 3.31074ZM2.25 8.75072C2.80228 8.75072 3.25 9.18715 3.25 9.72553V14.2746C3.25 14.813 2.80228 15.2494 2.25 15.2494C1.69772 15.2494 1.25 14.813 1.25 14.2746V9.72553C1.25 9.18715 1.69772 8.75072 2.25 8.75072ZM2.31412 17.1467C2.81118 16.912 3.40927 17.1146 3.65 17.5991C4.03224 18.3685 4.66448 18.9947 5.44623 19.3796C5.93918 19.6224 6.13692 20.2087 5.8879 20.6893C5.63887 21.1698 5.03738 21.3626 4.54443 21.1198C3.37155 20.5422 2.42355 19.6034 1.85 18.4489C1.60927 17.9644 1.81706 17.3814 2.31412 17.1467ZM6.75059 20.7251C6.76954 20.1871 7.23235 19.7659 7.78431 19.7843C8.26396 19.8004 8.74835 19.8013 9.247 19.7999C9.79929 19.7983 10.2483 20.2334 10.25 20.7718C10.2516 21.3102 9.80528 21.7479 9.25299 21.7495C8.75147 21.751 8.23528 21.7502 7.71569 21.7328C7.16373 21.7143 6.73164 21.2632 6.75059 20.7251Z" fill="#141B34"/>
<path d="M18.5062 2.45976C19.8775 2.73883 21.1875 3.39376 22.0465 4.88042C22.4249 5.53536 22.5915 6.2686 22.6716 7.15152C22.75 8.0163 22.75 9.09506 22.75 10.4644V13.5365C22.75 14.9058 22.75 15.9846 22.6716 16.8493C22.5915 17.7323 22.4249 18.4655 22.0465 19.1204C21.1875 20.6071 19.8775 21.262 18.5062 21.5411C17.3971 21.7668 16.1829 21.7563 15.1063 21.747H15.1063H15.1061C14.8984 21.7452 14.6958 21.7435 14.5 21.7435C13.5469 21.7435 12.6501 21.618 12.03 21.0175C11.4038 20.4113 11.25 19.5087 11.25 18.4954V5.50545C11.25 4.49218 11.4038 3.58959 12.03 2.98332C12.6501 2.38285 13.5469 2.25738 14.5 2.25738C14.6958 2.25738 14.8985 2.25563 15.1063 2.25383C16.1828 2.24452 17.3971 2.23402 18.5062 2.45976Z" fill="#141B34"/>
</svg>
