<svg width="24" height="24" viewBox="0 0 24 24" fill="none" xmlns="http://www.w3.org/2000/svg">
<path d="M5.94916 1.25L6 1.25L6.05085 1.25H6.05089C6.83242 1.24997 7.49342 1.24994 8.02016 1.32076C8.57988 1.39601 9.09891 1.56338 9.51777 1.98224C9.93663 2.40109 10.104 2.92013 10.1792 3.47984C10.2501 4.00659 10.25 4.66759 10.25 5.44912V5.44916V5.55084V5.55088C10.25 6.33241 10.2501 6.99342 10.1792 7.52016C10.104 8.07988 9.93663 8.59891 9.51777 9.01777C9.09891 9.43663 8.57988 9.60399 8.02016 9.67924C7.49342 9.75006 6.83241 9.75004 6.05088 9.75H6.05084H5.94916H5.94912C5.16759 9.75004 4.50659 9.75006 3.97984 9.67924C3.42013 9.60399 2.90109 9.43663 2.48224 9.01777C2.06338 8.59891 1.89601 8.07988 1.82076 7.52016C1.74994 6.99342 1.74997 6.33242 1.75 5.55089V5.55085L1.75 5.5L1.75 5.44916V5.44912C1.74997 4.66759 1.74994 4.00659 1.82076 3.47984C1.89601 2.92013 2.06338 2.40109 2.48224 1.98224C2.90109 1.56338 3.42013 1.39601 3.97984 1.32076C4.50659 1.24994 5.16759 1.24997 5.94912 1.25H5.94916Z" fill="#141B34"/>
<path d="M4.53035 13.8179C4.95899 13.4909 5.42694 13.25 6 13.25C6.57306 13.25 7.04101 13.4909 7.46965 13.8179C7.87188 14.1248 8.38723 14.6402 8.90907 15.1621C9.43097 15.684 9.87517 16.1281 10.1821 16.5303C10.5091 16.959 10.75 17.4269 10.75 18C10.75 18.5731 10.5091 19.041 10.1821 19.4697C9.87517 19.8719 9.43097 20.316 8.90907 20.8379C8.38723 21.3598 7.87187 21.8752 7.46965 22.1821C7.04101 22.5091 6.57306 22.75 6 22.75C5.42694 22.75 4.95899 22.5091 4.53035 22.1821C4.12812 21.8752 3.61278 21.3598 3.09093 20.8379C2.56903 20.316 2.12483 19.8719 1.81795 19.4697C1.4909 19.041 1.25 18.5731 1.25 18C1.25 17.4269 1.4909 16.959 1.81795 16.5303C2.12483 16.1281 2.64022 15.6128 3.16212 15.0909C3.68397 14.569 4.12812 14.1248 4.53035 13.8179Z" fill="#141B34"/>
<path fill-rule="evenodd" clip-rule="evenodd" d="M6 8C5.44771 8 5 8.44772 5 9V14C5 14.5523 5.44771 15 6 15C6.55229 15 7 14.5523 7 14V9C7 8.44772 6.55229 8 6 8ZM16 18C16 17.4477 15.5523 17 15 17H10C9.44772 17 9 17.4477 9 18C9 18.5523 9.44772 19 10 19H15C15.5523 19 16 18.5523 16 18Z" fill="#141B34"/>
<path d="M18.4492 13.75L18.5 13.75L18.5508 13.75H18.5509C19.3324 13.75 19.9934 13.7499 20.5202 13.8208C21.0799 13.896 21.5989 14.0634 22.0178 14.4822C22.4366 14.9011 22.604 15.4201 22.6792 15.9798C22.7501 16.5066 22.75 17.1676 22.75 17.9491V17.9492V18.0508V18.0509C22.75 18.8324 22.7501 19.4934 22.6792 20.0202C22.604 20.5799 22.4366 21.0989 22.0178 21.5178C21.5989 21.9366 21.0799 22.104 20.5202 22.1792C19.9934 22.2501 19.3324 22.25 18.5509 22.25H18.5508H18.4492H18.4491C17.6676 22.25 17.0066 22.2501 16.4798 22.1792C15.9201 22.104 15.4011 21.9366 14.9822 21.5178C14.5634 21.0989 14.396 20.5799 14.3208 20.0202C14.2499 19.4934 14.25 18.8324 14.25 18.0509V18.0508L14.25 18L14.25 17.9492V17.9491C14.25 17.1676 14.2499 16.5066 14.3208 15.9798C14.396 15.4201 14.5634 14.9011 14.9822 14.4822C15.4011 14.0634 15.9201 13.896 16.4798 13.8208C17.0066 13.7499 17.6676 13.75 18.4491 13.75H18.4492Z" fill="#141B34"/>
</svg>
