<svg width="24" height="24" viewBox="0 0 24 24" fill="none" xmlns="http://www.w3.org/2000/svg">
<path d="M13.25 6.5C13.25 4.15279 15.1528 2.25 17.5 2.25C19.8472 2.25 21.75 4.15279 21.75 6.5C21.75 8.84721 19.8472 10.75 17.5 10.75C15.1528 10.75 13.25 8.84721 13.25 6.5Z" fill="#141B34"/>
<path d="M6.44916 2.25L6.5 2.25L6.55085 2.25H6.55089C7.33242 2.24997 7.99342 2.24994 8.52016 2.32076C9.07988 2.39601 9.59891 2.56338 10.0178 2.98224C10.4366 3.40109 10.604 3.92013 10.6792 4.47984C10.7501 5.00659 10.75 5.66759 10.75 6.44912V6.44916V6.55084V6.55088C10.75 7.33241 10.7501 7.99342 10.6792 8.52016C10.604 9.07988 10.4366 9.59891 10.0178 10.0178C9.59891 10.4366 9.07988 10.604 8.52016 10.6792C7.99342 10.7501 7.33241 10.75 6.55088 10.75H6.55084H6.44916H6.44912C5.66759 10.75 5.00659 10.7501 4.47984 10.6792C3.92013 10.604 3.40109 10.4366 2.98224 10.0178C2.56338 9.59891 2.39601 9.07988 2.32076 8.52016C2.24994 7.99342 2.24997 7.33242 2.25 6.55089V6.55085L2.25 6.5L2.25 6.44916V6.44912C2.24997 5.66759 2.24994 5.00659 2.32076 4.47984C2.39601 3.92013 2.56338 3.40109 2.98224 2.98224C3.40109 2.56338 3.92013 2.39601 4.47984 2.32076C5.00659 2.24994 5.66759 2.24997 6.44912 2.25H6.44916Z" fill="#141B34"/>
<path d="M6.44916 13.25L6.5 13.25L6.55085 13.25H6.55089C7.33242 13.25 7.99342 13.2499 8.52016 13.3208C9.07988 13.396 9.59891 13.5634 10.0178 13.9822C10.4366 14.4011 10.604 14.9201 10.6792 15.4798C10.7501 16.0066 10.75 16.6676 10.75 17.4491V17.4492V17.5508V17.5509C10.75 18.3324 10.7501 18.9934 10.6792 19.5202C10.604 20.0799 10.4366 20.5989 10.0178 21.0178C9.59891 21.4366 9.07988 21.604 8.52016 21.6792C7.99342 21.7501 7.33241 21.75 6.55088 21.75H6.55084H6.44916H6.44912C5.66759 21.75 5.00659 21.7501 4.47984 21.6792C3.92013 21.604 3.40109 21.4366 2.98224 21.0178C2.56338 20.5989 2.39601 20.0799 2.32076 19.5202C2.24994 18.9934 2.24997 18.3324 2.25 17.5509V17.5508L2.25 17.5L2.25 17.4492V17.4491C2.24997 16.6676 2.24994 16.0066 2.32076 15.4798C2.39601 14.9201 2.56338 14.4011 2.98224 13.9822C3.40109 13.5634 3.92013 13.396 4.47984 13.3208C5.00659 13.2499 5.66759 13.25 6.44912 13.25H6.44916Z" fill="#141B34"/>
<path d="M17.4492 13.25L17.5 13.25L17.5508 13.25H17.5509C18.3324 13.25 18.9934 13.2499 19.5202 13.3208C20.0799 13.396 20.5989 13.5634 21.0178 13.9822C21.4366 14.4011 21.604 14.9201 21.6792 15.4798C21.7501 16.0066 21.75 16.6676 21.75 17.4491V17.4492V17.5508V17.5509C21.75 18.3324 21.7501 18.9934 21.6792 19.5202C21.604 20.0799 21.4366 20.5989 21.0178 21.0178C20.5989 21.4366 20.0799 21.604 19.5202 21.6792C18.9934 21.7501 18.3324 21.75 17.5509 21.75H17.5508H17.4492H17.4491C16.6676 21.75 16.0066 21.7501 15.4798 21.6792C14.9201 21.604 14.4011 21.4366 13.9822 21.0178C13.5634 20.5989 13.396 20.0799 13.3208 19.5202C13.2499 18.9934 13.25 18.3324 13.25 17.5509V17.5508L13.25 17.5L13.25 17.4492V17.4491C13.25 16.6676 13.2499 16.0066 13.3208 15.4798C13.396 14.9201 13.5634 14.4011 13.9822 13.9822C14.4011 13.5634 14.9201 13.396 15.4798 13.3208C16.0066 13.2499 16.6676 13.25 17.4491 13.25H17.4492Z" fill="#141B34"/>
<path fill-rule="evenodd" clip-rule="evenodd" d="M9 6.5C9 5.94772 9.44772 5.5 10 5.5H14C14.5523 5.5 15 5.94772 15 6.5C15 7.05228 14.5523 7.5 14 7.5H10C9.44772 7.5 9 7.05228 9 6.5ZM17.5 9C18.0523 9 18.5 9.44772 18.5 10V14C18.5 14.5523 18.0523 15 17.5 15C16.9477 15 16.5 14.5523 16.5 14V10C16.5 9.44772 16.9477 9 17.5 9ZM9 17.5C9 16.9477 9.44772 16.5 10 16.5H14C14.5523 16.5 15 16.9477 15 17.5C15 18.0523 14.5523 18.5 14 18.5H10C9.44772 18.5 9 18.0523 9 17.5Z" fill="#141B34"/>
</svg>
