<svg width="24" height="24" viewBox="0 0 24 24" fill="none" xmlns="http://www.w3.org/2000/svg">
<path fill-rule="evenodd" clip-rule="evenodd" d="M9.4626 2.48875C8.82373 2.24918 8.11205 2.24949 7.08264 2.24995C6.2039 2.24994 5.32205 2.24997 4.7497 2.30042C4.15996 2.35241 3.64388 2.46237 3.17258 2.72538C2.56533 3.06426 2.06428 3.56532 1.7254 4.17257C1.46238 4.64387 1.35242 5.15995 1.30044 5.74968C1.24999 6.32203 1.24999 7.03075 1.25 7.90948V7.90949V7.9095V11.0574V11.0574C1.24999 13.3658 1.24998 15.1748 1.43975 16.5863C1.63399 18.031 2.03933 19.171 2.93414 20.0659C3.82895 20.9607 4.96897 21.366 6.41371 21.5602C7.82519 21.75 9.63423 21.75 11.9426 21.75H13.2923C15.012 21.75 16.3602 21.75 17.4336 21.6408C18.5283 21.5294 19.4202 21.2983 20.1945 20.7809C20.8224 20.3614 21.3614 19.8224 21.781 19.1945C22.2983 18.4202 22.5295 17.5283 22.6408 16.4336C22.75 15.3602 22.75 14.012 22.75 12.2923C22.75 11.2732 22.75 10.3688 22.683 9.70947C22.6137 9.02891 22.4669 8.43871 22.118 7.9166C21.8444 7.50714 21.4929 7.15557 21.0834 6.88198C20.5613 6.53312 19.9711 6.38627 19.2905 6.31704C18.6312 6.24997 17.8095 6.24998 16.7905 6.24999H16.7905H16V9.99682H17C17.5523 9.99682 18 10.4445 18 10.9968C18 11.5491 17.5523 11.9968 17 11.9968H16V13.9996H17C17.5523 13.9996 18 14.4473 18 14.9996C18 15.5519 17.5523 15.9996 17 15.9996H13C12.4477 15.9996 12 15.5519 12 14.9996C12 14.4473 12.4477 13.9996 13 13.9996H14V11.9968H13C12.4477 11.9968 12 11.5491 12 10.9968C12 10.4445 12.4477 9.99682 13 9.99682H14V6.24999H13.2361C12.92 6.24999 12.7396 6.24906 12.6064 6.2353C12.5044 6.22816 12.4348 6.15254 12.4128 6.11562C12.3409 6.00268 12.0838 5.48907 11.9425 5.20634C11.4704 4.2512 10.8581 3.01204 9.4626 2.48875Z" fill="#141B34"/>
</svg>
