<svg width="24" height="24" viewBox="0 0 24 24" fill="none" xmlns="http://www.w3.org/2000/svg">
<path fill-rule="evenodd" clip-rule="evenodd" d="M17.25 14.7499C15.9789 14.7499 14.9113 15.6933 14.7399 16.8915C14.678 17.3245 14.3419 17.667 13.9101 17.737C13.4783 17.8071 13.0512 17.5884 12.8556 17.1972L11.8556 15.1972C11.6086 14.7032 11.8088 14.1025 12.3028 13.8555C12.7968 13.6085 13.3974 13.8087 13.6444 14.3027L13.712 14.4379C14.5493 13.4063 15.8337 12.7499 17.25 12.7499C18.78 12.7499 20.1314 13.5145 20.9428 14.6778C21.2588 15.1308 21.1477 15.7542 20.6947 16.0701C20.2418 16.3861 19.6184 16.275 19.3025 15.822C18.849 15.1719 18.0987 14.7499 17.25 14.7499ZM20.5899 16.7628C21.0217 16.6928 21.4488 16.9115 21.6444 17.3027L22.6444 19.3027C22.8914 19.7967 22.6912 20.3974 22.1972 20.6444C21.7032 20.8914 21.1026 20.6911 20.8556 20.1972L20.788 20.0619C19.9507 21.0936 18.6663 21.7499 17.25 21.7499C15.7199 21.7499 14.3686 20.9854 13.5572 19.822C13.2412 19.3691 13.3523 18.7457 13.8052 18.4298C14.2582 18.1138 14.8816 18.2249 15.1975 18.6778C15.651 19.328 16.4013 19.7499 17.25 19.7499C18.5211 19.7499 19.5887 18.8066 19.7601 17.6083C19.822 17.1754 20.1582 16.8329 20.5899 16.7628Z" fill="#141B34"/>
<path d="M9.46238 2.48878C8.82352 2.24921 8.11183 2.24952 7.08242 2.24998C6.20369 2.24997 5.32183 2.25 4.74948 2.30046C4.15974 2.35244 3.64367 2.4624 3.17237 2.72541C2.56512 3.06429 2.06406 3.56535 1.72518 4.1726C1.46217 4.6439 1.35221 5.15998 1.30022 5.74971C1.24977 6.32206 1.24978 7.03078 1.24979 7.90951V11.0574C1.24977 13.3658 1.24976 15.1748 1.43953 16.5863C1.63377 18.031 2.03911 19.1711 2.93392 20.0659C3.82873 20.9607 4.96876 21.366 6.41349 21.5603C7.82498 21.75 9.63402 21.75 11.9424 21.75H13.292C13.4204 21.75 13.5467 21.75 13.671 21.75C13.2349 21.4028 12.8508 20.9939 12.5322 20.5372C12.0899 19.9031 12.0195 19.1207 12.2748 18.4488C12.0567 18.2594 11.8728 18.026 11.7378 17.7562L10.7378 15.7562C10.1821 14.6447 10.6326 13.2932 11.744 12.7375C12.3835 12.4177 13.1025 12.4311 13.7036 12.7118C14.6879 11.9518 15.9227 11.4999 17.2503 11.4999C19.2065 11.4999 20.9333 12.4789 21.9683 13.9627H22.7451C22.7498 13.4485 22.7498 12.8931 22.7498 12.2923C22.7498 11.2733 22.7498 10.3688 22.6827 9.7095C22.6135 9.02894 22.4667 8.43874 22.1178 7.91663C21.8442 7.50717 21.4926 7.1556 21.0832 6.88201C20.5611 6.53315 19.9709 6.3863 19.2903 6.31707C18.631 6.25 17.8093 6.25001 16.7903 6.25002L13.2359 6.25002C12.9198 6.25002 12.7393 6.24909 12.6062 6.23533C12.5042 6.22819 12.4346 6.15257 12.4126 6.11565C12.3407 6.00271 12.0836 5.4891 11.9422 5.20637C11.4702 4.25123 10.8578 3.01207 9.46238 2.48878Z" fill="#141B34"/>
</svg>
