<svg width="24" height="24" viewBox="0 0 24 24" fill="none" xmlns="http://www.w3.org/2000/svg">
<path d="M21.1004 12.643C19.0047 11.5131 17.5 13.1787 17.5 13.1787C17.5 13.1787 15.9953 11.5131 13.8996 12.643C11.3614 14.0116 11.1791 19.3708 17.5 21.75C23.8209 19.3708 23.6386 14.0116 21.1004 12.643Z" fill="#141B34"/>
<path d="M9.4626 2.48884C8.82373 2.24927 8.11205 2.24958 7.08264 2.25004C6.2039 2.25003 5.32205 2.25006 4.7497 2.30052C4.15996 2.3525 3.64388 2.46246 3.17258 2.72548C2.56533 3.06435 2.06428 3.56541 1.7254 4.17266C1.46238 4.64396 1.35242 5.16004 1.30044 5.74978C1.24999 6.32212 1.24999 7.03084 1.25 7.90957V11.0575C1.24999 13.3658 1.24998 15.1749 1.43975 16.5864C1.63399 18.0311 2.03933 19.1711 2.93414 20.0659C3.82895 20.9608 4.96897 21.3661 6.41371 21.5603C7.82519 21.7501 9.63423 21.7501 11.9426 21.7501H13.2923C13.7905 21.7501 14.2575 21.7501 14.6957 21.7474C12.7135 20.4723 11.5644 18.8118 11.1611 17.1049C10.6352 14.8792 11.4288 12.5551 13.3063 11.5427C14.7491 10.7648 16.0575 10.9413 16.9806 11.3393C17.1719 11.4218 17.3454 11.5129 17.5 11.6051C17.6545 11.5129 17.828 11.4218 18.0193 11.3393C18.9424 10.9413 20.2508 10.7648 21.6935 11.5428C22.0964 11.7599 22.4493 12.0375 22.75 12.3616C22.75 12.3385 22.75 12.3155 22.75 12.2923C22.75 11.2733 22.75 10.3689 22.683 9.70956C22.6137 9.029 22.4669 8.4388 22.118 7.91669C21.8444 7.50723 21.4929 7.15566 21.0834 6.88207C20.5613 6.53321 19.9711 6.38636 19.2905 6.31713C18.6312 6.25006 17.8095 6.25007 16.7905 6.25008L13.2361 6.25008C12.92 6.25008 12.7396 6.24915 12.6064 6.23539C12.5044 6.22825 12.4348 6.15263 12.4128 6.11571C12.3409 6.00277 12.0838 5.48916 11.9425 5.20644C11.4704 4.25129 10.8581 3.01213 9.4626 2.48884Z" fill="#141B34"/>
</svg>
