<svg width="24" height="24" viewBox="0 0 24 24" fill="none" xmlns="http://www.w3.org/2000/svg">
<path fill-rule="evenodd" clip-rule="evenodd" d="M14.7251 2.60335C15.3586 2.15874 16.0642 2 16.813 2C17.7982 2 18.5485 2.38622 19.0747 2.975C19.5659 3.52469 19.8164 4.19882 19.9642 4.7338C20.1112 5.26616 19.7988 5.8169 19.2665 5.96392C18.7341 6.11094 18.1834 5.79856 18.0363 5.2662C17.92 4.84477 17.7721 4.5189 17.5834 4.30769C17.4296 4.13557 17.2183 4 16.813 4C16.3585 4 16.0866 4.09126 15.8741 4.2404C15.6423 4.40303 15.3781 4.70728 15.0782 5.31661C14.4582 6.57621 13.8832 8.70208 12.9686 12.2497C12.0785 15.7021 11.4503 18.0762 10.7167 19.5666C10.3398 20.3323 9.88966 20.9655 9.27539 21.3966C8.6419 21.8413 7.93631 22 7.18755 22C6.20227 22 5.45199 21.6138 4.92583 21.025C4.43461 20.4753 4.18408 19.8012 4.03633 19.2662C3.88932 18.7338 4.2017 18.1831 4.73406 18.0361C5.26641 17.8891 5.81715 18.2014 5.96417 18.7338C6.08055 19.1552 6.22838 19.4811 6.41712 19.6923C6.57093 19.8644 6.78224 20 7.18755 20C7.64197 20 7.91395 19.9087 8.12644 19.7596C8.35816 19.597 8.62237 19.2927 8.92229 18.6834C9.54227 17.4238 10.1173 15.2979 11.0319 11.7503C11.922 8.29792 12.5502 5.92379 13.2838 4.43339C13.6607 3.66772 14.1108 3.03447 14.7251 2.60335Z" fill="#141B34"/>
<path fill-rule="evenodd" clip-rule="evenodd" d="M8 10C8 9.44772 8.44772 9 9 9H17C17.5523 9 18 9.44772 18 10C18 10.5523 17.5523 11 17 11H9C8.44772 11 8 10.5523 8 10Z" fill="#141B34"/>
</svg>
