<svg width="24" height="24" viewBox="0 0 24 24" fill="none" xmlns="http://www.w3.org/2000/svg">
<path fill-rule="evenodd" clip-rule="evenodd" d="M17.312 1.93059C15.9686 1.74998 14.2479 1.74999 12.0572 1.75H11.9428C9.75212 1.74999 8.03144 1.74998 6.68802 1.93059C5.31137 2.11568 4.21911 2.50272 3.36091 3.36091C2.50272 4.21911 2.11568 5.31137 1.93059 6.68802C1.74998 8.03144 1.74999 9.75212 1.75 11.9428V12.0572C1.74999 14.2479 1.74998 15.9686 1.93059 17.312C2.11568 18.6886 2.50272 19.7809 3.36091 20.6391C4.21911 21.4973 5.31137 21.8843 6.68802 22.0694C8.03144 22.25 9.7521 22.25 11.9428 22.25H11.9428H12.0572H12.0572C14.2479 22.25 15.9686 22.25 17.312 22.0694C18.6886 21.8843 19.7809 21.4973 20.6391 20.6391C21.4973 19.7809 21.8843 18.6886 22.0694 17.312C22.25 15.9686 22.25 14.2479 22.25 12.0572V12.0572V11.9428V11.9428C22.25 9.7521 22.25 8.03144 22.0694 6.68802C21.8843 5.31137 21.4973 4.21911 20.6391 3.36091C19.7809 2.50272 18.6886 2.11568 17.312 1.93059ZM14.7504 6C14.2647 6 13.7727 6.10078 13.322 6.40835C12.8879 6.7045 12.5883 7.12759 12.3542 7.58998C12.0972 8.09766 11.8649 8.76982 11.6179 9.61111H10.3336C9.78131 9.61111 9.33359 10.0588 9.33359 10.6111C9.33359 11.1634 9.78131 11.6111 10.3336 11.6111H11.0688L11.0337 11.7437C10.5052 13.7364 10.1893 14.8599 9.86193 15.5066C9.70929 15.8082 9.60069 15.9059 9.55129 15.9396C9.51862 15.9619 9.45195 16 9.25014 16C9.17595 16 9.14667 15.9872 9.14302 15.9856L9.14294 15.9855C9.13943 15.984 9.13313 15.9812 9.12005 15.967C9.08088 15.9244 9.02081 15.822 8.9622 15.6156C8.81129 15.0844 8.25828 14.776 7.72701 14.9269C7.19575 15.0779 6.8874 15.6309 7.03831 16.1621C7.13063 16.4871 7.2982 16.9403 7.64758 17.3204C8.03107 17.7376 8.57277 18 9.25014 18C9.73586 18 10.2278 17.8992 10.6786 17.5916C11.1126 17.2955 11.4122 16.8724 11.6463 16.41C12.0923 15.529 12.464 14.1525 12.9668 12.2563C13.0268 12.0303 13.084 11.8154 13.1388 11.6111H14.7504C15.3027 11.6111 15.7504 11.1634 15.7504 10.6111C15.7504 10.0588 15.3027 9.61111 14.7504 9.61111H13.7087C13.8615 9.13156 13.999 8.76911 14.1386 8.49335C14.2912 8.19185 14.3998 8.09411 14.4492 8.0604C14.4819 8.03811 14.5486 8 14.7504 8C14.8246 8 14.8538 8.01285 14.8575 8.01445L14.8576 8.01448C14.8611 8.01603 14.8674 8.01879 14.8805 8.03303C14.9196 8.07565 14.9797 8.17802 15.0383 8.38435C15.1892 8.91562 15.7422 9.22396 16.2735 9.07306C16.8048 8.92215 17.1131 8.36914 16.9622 7.83787C16.8699 7.51286 16.7023 7.05968 16.3529 6.67957C15.9694 6.26236 15.4277 6 14.7504 6Z" fill="#141B34"/>
</svg>
