<svg width="24" height="24" viewBox="0 0 24 24" fill="none" xmlns="http://www.w3.org/2000/svg">
<path d="M18.527 6.25C18.9713 6.24999 19.3447 6.24998 19.6492 6.27206C19.9652 6.29497 20.2721 6.34483 20.5645 6.47989C20.8957 6.63285 21.1916 6.86234 21.4072 7.1611C21.6109 7.44339 21.687 7.7475 21.7201 8.03961C21.7501 8.30406 21.75 8.62116 21.75 8.96402V9.03598C21.75 9.37885 21.7501 9.69594 21.7201 9.96039C21.687 10.2525 21.6109 10.5566 21.4072 10.8389C21.1916 11.1377 20.8957 11.3671 20.5645 11.5201C20.2721 11.6552 19.9652 11.705 19.6492 11.7279C19.3447 11.75 18.9713 11.75 18.5269 11.75H5.47308C5.0287 11.75 4.6553 11.75 4.35082 11.7279C4.03479 11.705 3.72793 11.6552 3.43552 11.5201C3.10434 11.3671 2.80841 11.1377 2.5928 10.8389C2.38907 10.5566 2.31299 10.2525 2.27989 9.96039C2.24993 9.69594 2.24997 9.37884 2.25 9.03597V8.96403C2.24997 8.62116 2.24993 8.30406 2.27989 8.03961C2.31299 7.7475 2.38907 7.44339 2.5928 7.1611C2.80841 6.86234 3.10434 6.63285 3.43552 6.47989C3.72793 6.34483 4.03479 6.29497 4.35082 6.27206C4.65529 6.24998 5.02869 6.24999 5.47306 6.25H18.527Z" fill="#141B34"/>
<path d="M3.78678 12.9182C3.52341 12.8739 3.39172 12.8517 3.32086 12.9116C3.25 12.9715 3.25 13.0943 3.25 13.34V15.0544C3.24998 16.657 3.24997 17.936 3.38483 18.939C3.52415 19.9753 3.81966 20.8287 4.4948 21.5039C5.16994 22.179 6.02335 22.4745 7.05961 22.6138C8.0627 22.7487 9.34166 22.7487 10.9443 22.7487C10.975 22.7487 11 22.7237 11 22.6929L11 13.3987C11 13.2101 11 13.1158 10.9414 13.0572C10.8828 12.9987 10.7886 12.9987 10.6 12.9987H5.43911C5.02245 12.9987 4.61055 12.9987 4.26041 12.9733C4.11504 12.9628 3.95558 12.9467 3.78678 12.9182Z" fill="#141B34"/>
<path d="M13.4 12.9987C13.2114 12.9987 13.1172 12.9987 13.0586 13.0572C13 13.1158 13 13.2101 13 13.3987V22.6929C13 22.7237 13.025 22.7487 13.0557 22.7487C14.6583 22.7487 15.9373 22.7487 16.9404 22.6138C17.9767 22.4745 18.8301 22.179 19.5052 21.5039C20.1803 20.8287 20.4758 19.9753 20.6152 18.939C20.75 17.936 20.75 16.657 20.75 15.0544V13.34C20.75 13.0943 20.75 12.9715 20.6791 12.9116C20.6083 12.8517 20.4766 12.8738 20.2132 12.9182C20.0444 12.9467 19.8849 12.9628 19.7396 12.9733C19.3894 12.9987 18.9776 12.9987 18.5609 12.9987H13.4Z" fill="#141B34"/>
<path fill-rule="evenodd" clip-rule="evenodd" d="M7.78571 1.25006C6.24721 1.25006 5 2.49727 5 4.03578C5 6.36326 6.8868 8.25006 9.21429 8.25006H12H14.7857C17.1132 8.25006 19 6.36326 19 4.03578C19 2.49727 17.7528 1.25006 16.2143 1.25006H15.8571C14.2852 1.25006 12.8877 1.99676 12 3.1548C11.1123 1.99676 9.71476 1.25006 8.14286 1.25006H7.78571ZM11 6.1072C11 4.52925 9.72081 3.25006 8.14286 3.25006H7.78571C7.35178 3.25006 7 3.60184 7 4.03578C7 5.25869 7.99137 6.25006 9.21429 6.25006H11V6.1072ZM13 6.25006H14.7857C16.0086 6.25006 17 5.25869 17 4.03578C17 3.60184 16.6482 3.25006 16.2143 3.25006H15.8571C14.2792 3.25006 13 4.52925 13 6.1072V6.25006Z" fill="#141B34"/>
</svg>
