<svg width="24" height="24" viewBox="0 0 24 24" fill="none" xmlns="http://www.w3.org/2000/svg">
<path fill-rule="evenodd" clip-rule="evenodd" d="M5.02799 21.363C3.7594 20.7472 2.70468 19.7093 1.87557 18.3139C1.59346 17.8391 1.80778 17.2382 2.30557 16.999C2.80337 16.7598 3.39448 16.9744 3.6865 17.4431C4.33618 18.486 5.09168 19.1707 5.9014 19.5638C6.91266 20.0547 8.12341 20.1467 9.5396 19.756L10.0715 21.6839C8.2818 22.1778 6.55768 22.1056 5.02799 21.363Z" fill="#141B34"/>
<path d="M5.89322 1.25C6.32429 1.25 6.92392 1.3505 7.32982 1.44894C8.04979 1.62356 8.97224 1.95848 9.8331 2.60631C10.5823 2.42952 11.6434 2.22317 13 2.22315C14.3566 2.22312 15.4177 2.42953 16.1669 2.60634C17.0278 1.95849 17.9502 1.62357 18.6702 1.44895C19.0761 1.3505 19.6906 1.25 20.1068 1.25H20.6195L20.8056 1.72771C21.0649 2.3931 21.1586 3.20254 21.1599 3.96175C21.161 4.60091 21.0965 5.24848 20.984 5.81333C21.2885 6.295 21.5728 6.86589 21.7936 7.45193C22.0569 8.15071 22.25 8.92404 22.25 9.6286C22.25 12.0507 21.4385 13.7613 20.1549 14.9682C19.1799 15.8849 17.9698 16.4752 16.7459 16.8944C17.0081 17.2892 17.25 17.811 17.25 18.4951V20.75C17.25 21.6928 17.25 22.1642 16.9571 22.4571C16.6642 22.75 16.1928 22.75 15.25 22.75H10.75C9.80719 22.75 9.33579 22.75 9.04289 22.4571C8.75 22.1642 8.75 21.6928 8.75 20.75V18.4951C8.75 17.811 8.99194 17.2892 9.25414 16.8944C8.03018 16.4752 6.82008 15.8849 5.84507 14.9682C4.56153 13.7613 3.75 12.0507 3.75 9.6286C3.75 8.92404 3.94309 8.15071 4.20638 7.45193C4.4272 6.86589 4.71153 6.29499 5.01601 5.81332C4.90345 5.24848 4.83899 4.6009 4.8401 3.96175C4.8414 3.20254 4.93514 2.3931 5.1944 1.72771L5.38053 1.25H5.89322Z" fill="#141B34"/>
</svg>
