<svg width="24" height="24" viewBox="0 0 24 24" fill="none" xmlns="http://www.w3.org/2000/svg">
<path fill-rule="evenodd" clip-rule="evenodd" d="M3.29543 10.7304C3.27742 10.8549 3.26842 10.9172 3.29804 10.9743C3.32766 11.0314 3.38207 11.059 3.49089 11.1143C3.97452 11.3599 4.51328 11.518 5.08868 11.518C5.75479 11.518 6.32882 11.5492 6.81096 11.6395C7.2942 11.73 7.73809 11.8893 8.09855 12.1845C8.84877 12.7988 8.95831 13.7613 8.95831 14.7516C8.95831 15.7706 8.96034 16.1996 9.01506 16.5655C9.06747 16.916 9.1694 17.2164 9.43638 17.9816C9.59051 18.4233 9.80449 19.0504 9.79227 19.7264C9.79011 19.8462 9.78094 19.9665 9.76394 20.0866C9.73477 20.2929 9.72019 20.396 9.7647 20.4604C9.80922 20.5247 9.89744 20.5444 10.0739 20.5838C10.3848 20.6533 10.7019 20.7063 11.0242 20.7419C11.5607 20.8011 11.9999 21.2329 11.9999 21.7727C11.9999 22.3124 11.561 22.7546 11.0234 22.7062C5.54397 22.2128 1.24994 17.6078 1.24994 11.9999C1.24994 11.9999 1.24994 11.9998 1.24994 11.9998C1.24994 11.9468 1.25032 11.8938 1.25109 11.8409C1.33546 6.0221 6.04299 1.32244 11.8649 1.25075C11.9098 1.2502 11.9548 1.24992 11.9998 1.24992H11.9999C17.6078 1.24992 22.2128 5.54395 22.7062 11.0234C22.7546 11.5609 22.3124 11.9999 21.7727 11.9999C21.2329 11.9999 20.8011 11.5607 20.7419 11.0242C20.5739 9.50175 20.0173 8.09635 19.1734 6.90939C19.091 6.79343 19.0498 6.73545 18.9794 6.7171C18.9089 6.69875 18.8477 6.72779 18.7253 6.78586C18.3245 6.976 17.9436 7.25727 17.6314 7.6614C16.8187 8.71338 15.9471 9.36054 15.0629 9.62071C14.1617 9.88588 13.3114 9.72811 12.6319 9.28836C11.6258 8.6372 11.4958 7.72714 11.4106 7.13122C11.3643 6.81983 11.308 6.52834 11.2243 6.37349C11.1546 6.24447 11.0279 6.08999 10.7126 5.93697C9.92009 5.55229 9.47094 4.84879 9.31514 4.09088C9.27615 3.90118 9.25665 3.80633 9.20551 3.76192C9.18259 3.74202 9.15957 3.72946 9.13044 3.72096C9.06542 3.70197 8.98635 3.73255 8.82821 3.79372C5.91733 4.91954 3.75529 7.54955 3.29543 10.7304Z" fill="#141B34"/>
<path d="M19.1831 14.5984C19.5184 14.2351 19.6861 14.0534 19.8643 13.9474C20.2942 13.6918 20.8235 13.6838 21.2606 13.9265C21.4417 14.027 21.6146 14.2036 21.9602 14.5567C22.3058 14.9098 22.4787 15.0863 22.5771 15.2713C22.8147 15.7178 22.8069 16.2586 22.5566 16.6977C22.4529 16.8797 22.275 17.051 21.9194 17.3936L17.6877 21.4694C17.0137 22.1185 16.6767 22.4431 16.2556 22.6076C15.8344 22.7721 15.3714 22.76 14.4454 22.7358L14.3194 22.7325C14.0374 22.7251 13.8965 22.7214 13.8146 22.6284C13.7326 22.5355 13.7438 22.3919 13.7662 22.1047L13.7783 21.9488C13.8413 21.1405 13.8728 20.7364 14.0306 20.3731C14.1884 20.0099 14.4607 19.7149 15.0052 19.1249L19.1831 14.5984Z" fill="#141B34"/>
</svg>
