<svg width="25" height="24" viewBox="0 0 25 24" fill="none" xmlns="http://www.w3.org/2000/svg">
<path d="M15.9863 2.26244C15.7831 2.24989 15.0604 2.24991 15.0604 2.24991C14.7033 2.2499 14.4914 2.2499 14.3075 2.26017C10.9049 2.45028 8.20216 5.20144 8.01577 8.62896C8.00568 8.8145 8.00568 9.02846 8.00569 9.39137V11.7254L7.83216 11.4909C6.80284 10.0997 4.78899 9.95269 3.57293 11.1853C2.58365 12.1881 2.47373 13.7709 3.31148 14.9031L5.8983 18.3992C6.94956 19.821 7.63131 20.743 8.62495 21.2466C9.62015 21.751 10.7602 21.7506 12.5127 21.75L13.8198 21.7499C14.9668 21.7499 15.8805 21.7499 16.6196 21.68C17.3799 21.608 18.0232 21.4575 18.6104 21.1151C19.1028 20.8281 19.5391 20.4532 19.8986 20.0091C20.2032 19.6329 20.4175 19.2158 20.5862 18.7357C20.6993 18.4139 20.7559 18.253 20.6662 18.1265C20.5765 17.9999 20.3961 17.9999 20.0352 17.9999H14.5C13.9477 17.9999 13.5 17.5522 13.5 16.9999C13.5 16.4476 13.9477 15.9999 14.5 15.9999H20.5138C20.8358 15.9999 20.9967 15.9999 21.1084 15.9057C21.1091 15.9051 21.1098 15.9045 21.1105 15.904C21.2216 15.809 21.2477 15.6504 21.2998 15.3332L22.084 10.5638C22.1522 10.1494 22.1922 9.90589 22.2133 9.70159C22.6069 5.89011 19.7856 2.49708 15.9863 2.26244Z" fill="#141B34"/>
</svg>
