<svg width="24" height="24" viewBox="0 0 24 24" fill="none" xmlns="http://www.w3.org/2000/svg">
<path d="M20.7953 11.9998C20.7953 16.8574 16.8575 20.7953 11.9999 20.7953C7.14228 20.7953 3.20442 16.8574 3.20442 11.9998C3.20442 9.12293 4.58464 6.56865 6.72317 4.96234C7.15472 4.63819 7.24179 4.02557 6.91764 3.59402C6.59348 3.16247 5.98087 3.0754 5.54931 3.39956C2.94046 5.35914 1.24988 8.48221 1.24988 11.9998C1.24988 17.9369 6.06282 22.7498 11.9999 22.7498C17.9369 22.7498 22.7499 17.9369 22.7499 11.9998C22.7499 6.06279 17.9369 1.24985 11.9999 1.24985C11.8303 1.24985 11.6074 1.25627 11.4396 1.26405C11.1669 1.27649 10.8462 1.29111 10.582 1.35101C10.2452 1.42736 9.808 1.61916 9.56626 2.11695C9.31503 2.63428 9.46028 3.11188 9.60679 3.41202C9.72816 3.66063 9.92175 3.9313 10.0937 4.17169L11.2046 5.72697C11.5022 6.14349 12.0665 6.25649 12.4986 5.99945C12.5202 5.98661 12.531 5.98018 12.5556 5.96107C12.5801 5.94195 12.5956 5.92652 12.6264 5.89566L14.406 4.11612C14.6243 3.89781 14.7334 3.78866 14.8834 3.75946C15.0334 3.73027 15.1652 3.78615 15.429 3.89793C18.5829 5.23446 20.7953 8.35878 20.7953 11.9998Z" fill="#141B34"/>
<path fill-rule="evenodd" clip-rule="evenodd" d="M8.40044 9.27851C9.33292 8.54242 10.5001 9.32253 10.5001 10.316L10.5001 15.9997C10.5001 16.552 10.0523 16.9997 9.50005 16.9997C8.94777 16.9997 8.50005 16.552 8.50005 15.9997L8.50005 11.8659C8.10306 12.0956 7.58628 12.0278 7.2633 11.6759C6.88984 11.269 6.91692 10.6364 7.3238 10.263L8.34384 9.32671C8.36211 9.30995 8.38099 9.29387 8.40044 9.27851ZM14.2098 8.9997C14.2232 8.9997 14.2366 8.9997 14.25 8.9997C14.2634 8.9997 14.2768 8.9997 14.2902 8.9997C14.6064 8.99965 14.9142 8.9996 15.1727 9.0259C15.4589 9.05501 15.7933 9.12441 16.1111 9.33676C16.3295 9.48268 16.517 9.67018 16.6629 9.88856C16.8753 10.2064 16.9447 10.5408 16.9738 10.827C17.0001 11.0855 17.0001 11.3933 17 11.7095C17 11.7229 17 11.7363 17 11.7497V14.2497C17 14.2631 17 14.2765 17 14.2899C17.0001 14.6061 17.0001 14.9139 16.9738 15.1724C16.9447 15.4586 16.8753 15.793 16.6629 16.1108C16.517 16.3292 16.3295 16.5167 16.1111 16.6626C15.7933 16.875 15.4589 16.9444 15.1727 16.9735C14.9142 16.9998 14.6064 16.9998 14.2902 16.9997C14.2768 16.9997 14.2634 16.9997 14.25 16.9997C14.2366 16.9997 14.2232 16.9997 14.2098 16.9997C13.8936 16.9998 13.5858 16.9998 13.3273 16.9735C13.0411 16.9444 12.7067 16.875 12.3889 16.6626C12.1705 16.5167 11.983 16.3292 11.8371 16.1108C11.6247 15.793 11.5553 15.4586 11.5262 15.1724C11.4999 14.9139 11.5 14.6061 11.5 14.2899C11.5 14.2765 11.5 14.2631 11.5 14.2497V11.7497C11.5 11.7363 11.5 11.7229 11.5 11.7095C11.5 11.3933 11.4999 11.0855 11.5262 10.827C11.5553 10.5408 11.6247 10.2064 11.8371 9.88856C11.983 9.67018 12.1705 9.48268 12.3889 9.33676C12.7067 9.12441 13.0411 9.05501 13.3273 9.0259C13.5858 8.9996 13.8936 8.99965 14.2098 8.9997ZM13.5173 11.017C13.5168 11.0209 13.5164 11.025 13.5159 11.0294C13.5012 11.1741 13.5 11.3778 13.5 11.7497V14.2497C13.5 14.6216 13.5012 14.8253 13.5159 14.97C13.5164 14.9744 13.5168 14.9785 13.5173 14.9824C13.5212 14.9829 13.5254 14.9833 13.5297 14.9838C13.6744 14.9985 13.8781 14.9997 14.25 14.9997C14.6219 14.9997 14.8256 14.9985 14.9703 14.9838C14.9747 14.9833 14.9788 14.9829 14.9828 14.9824C14.9832 14.9785 14.9836 14.9744 14.9841 14.97C14.9988 14.8253 15 14.6216 15 14.2497V11.7497C15 11.3778 14.9988 11.1741 14.9841 11.0294C14.9836 11.025 14.9832 11.0209 14.9827 11.017C14.9788 11.0165 14.9747 11.0161 14.9703 11.0156C14.8256 11.0009 14.6219 10.9997 14.25 10.9997C13.8781 10.9997 13.6744 11.0009 13.5297 11.0156C13.5254 11.0161 13.5212 11.0165 13.5173 11.017Z" fill="#141B34"/>
</svg>
