<svg width="24" height="24" viewBox="0 0 24 24" fill="none" xmlns="http://www.w3.org/2000/svg">
<path fill-rule="evenodd" clip-rule="evenodd" d="M13.4977 16.9191C13.5791 16.3728 14.088 15.996 14.6342 16.0775C16.0242 16.2847 17.2686 16.6337 18.1959 17.1095C19.0337 17.5395 20 18.2818 20 19.4276C20 20.2083 19.5371 20.8031 19.0406 21.2059C18.5359 21.6153 17.8665 21.9396 17.1278 22.193C15.6408 22.7032 13.6511 23.0008 11.5 23.0008C9.34891 23.0008 7.35917 22.7032 5.87218 22.193C5.13355 21.9396 4.46414 21.6153 3.95942 21.2059C3.46294 20.8031 3 20.2083 3 19.4276C3 18.4153 3.76422 17.7022 4.47741 17.2623C5.24578 16.7884 6.27597 16.4223 7.43354 16.1771C7.97384 16.0627 8.5046 16.408 8.61903 16.9483C8.73345 17.4886 8.38821 18.0193 7.84791 18.1337C6.82413 18.3506 6.03396 18.6521 5.5273 18.9646C5.13227 19.2082 5.03206 19.3754 5.00738 19.427C5.02653 19.463 5.07967 19.5393 5.21936 19.6526C5.47368 19.8589 5.90262 20.089 6.52123 20.3013C7.7487 20.7224 9.50897 21.0008 11.5 21.0008C13.491 21.0008 15.2513 20.7224 16.4788 20.3013C17.0974 20.089 17.5263 19.8589 17.7806 19.6526C17.9169 19.5421 17.9708 19.4669 17.9911 19.4298C17.9604 19.3726 17.8292 19.1693 17.2828 18.8889C16.6174 18.5475 15.6053 18.2444 14.3393 18.0556C13.793 17.9742 13.4162 17.4653 13.4977 16.9191ZM18.0026 19.4032C18.0027 19.4032 18.0025 19.4045 18.0015 19.4073C18.0021 19.4045 18.0025 19.4032 18.0026 19.4032ZM4.99738 19.4032C4.99748 19.4032 4.99795 19.4045 4.99846 19.4073C4.99753 19.4045 4.99727 19.4032 4.99738 19.4032Z" fill="#141B34"/>
<path d="M15.6873 2.21102C14.7781 1.76756 13.996 1.38609 13.3523 1.18221C12.6777 0.968534 11.9021 0.865748 11.1779 1.31604C10.4526 1.76702 10.2034 2.50871 10.0992 3.20826C10.05 3.5386 10.0252 3.91851 10.0127 4.34047L10 19C10 19.5523 10.4477 20 11 20C11.5523 20 12 19.5523 12 19V12.6249L16.731 10.3176C17.9252 9.73532 18.9316 9.2446 19.6288 8.75378C20.3597 8.23931 21 7.55101 21 6.51883C21 5.48665 20.3597 4.79835 19.6288 4.28389C18.9316 3.79307 16.8815 2.79333 15.6873 2.21102Z" fill="#141B34"/>
</svg>
