<svg width="24" height="24" viewBox="0 0 24 24" fill="none" xmlns="http://www.w3.org/2000/svg">
<path fill-rule="evenodd" clip-rule="evenodd" d="M19.5 12C19.5 11.4477 19.9477 11 20.5 11H22.5C23.0523 11 23.5 11.4477 23.5 12C23.5 12.5523 23.0523 13 22.5 13H20.5C19.9477 13 19.5 12.5523 19.5 12Z" fill="#141B34"/>
<path fill-rule="evenodd" clip-rule="evenodd" d="M0.5 12C0.5 11.4477 0.947715 11 1.5 11H3.5C4.05228 11 4.5 11.4477 4.5 12C4.5 12.5523 4.05228 13 3.5 13H1.5C0.947715 13 0.5 12.5523 0.5 12Z" fill="#141B34"/>
<path fill-rule="evenodd" clip-rule="evenodd" d="M12 4.5C11.4477 4.5 11 4.05228 11 3.5V1.5C11 0.947715 11.4477 0.5 12 0.5C12.5523 0.5 13 0.947715 13 1.5V3.5C13 4.05228 12.5523 4.5 12 4.5Z" fill="#141B34"/>
<path fill-rule="evenodd" clip-rule="evenodd" d="M12 23.5C11.4477 23.5 11 23.0523 11 22.5V20.5C11 19.9477 11.4477 19.5 12 19.5C12.5523 19.5 13 19.9477 13 20.5V22.5C13 23.0523 12.5523 23.5 12 23.5Z" fill="#141B34"/>
<path fill-rule="evenodd" clip-rule="evenodd" d="M12.0137 4.5C7.87154 4.5 4.51367 7.85786 4.51367 12C4.51367 16.1421 7.87154 19.5 12.0137 19.5C16.1558 19.5 19.5137 16.1421 19.5137 12C19.5137 7.85786 16.1558 4.5 12.0137 4.5ZM2.51367 12C2.51367 6.75329 6.76697 2.5 12.0137 2.5C17.2604 2.5 21.5137 6.75329 21.5137 12C21.5137 17.2467 17.2604 21.5 12.0137 21.5C6.76697 21.5 2.51367 17.2467 2.51367 12Z" fill="#141B34"/>
</svg>
