<svg width="24" height="24" viewBox="0 0 24 24" fill="none" xmlns="http://www.w3.org/2000/svg">
<path fill-rule="evenodd" clip-rule="evenodd" d="M11.9999 4.5C11.4477 4.5 10.9999 4.05228 10.9999 3.5V1.5C10.9999 0.947715 11.4477 0.5 11.9999 0.5C12.5522 0.5 12.9999 0.947715 12.9999 1.5V3.5C12.9999 4.05228 12.5522 4.5 11.9999 4.5ZM1.49994 11C0.947654 11 0.499939 11.4477 0.499939 12C0.499939 12.5523 0.947654 13 1.49994 13H3.49994C4.05222 13 4.49994 12.5523 4.49994 12C4.49994 11.4477 4.05222 11 3.49994 11H1.49994ZM20.4999 11C19.9477 11 19.4999 11.4477 19.4999 12C19.4999 12.5523 19.9477 13 20.4999 13H22.4999C23.0522 13 23.4999 12.5523 23.4999 12C23.4999 11.4477 23.0522 11 22.4999 11H20.4999ZM10.9999 22.5C10.9999 23.0523 11.4477 23.5 11.9999 23.5C12.5522 23.5 12.9999 23.0523 12.9999 22.5V20.5C12.9999 19.9477 12.5522 19.5 11.9999 19.5C11.4477 19.5 10.9999 19.9477 10.9999 20.5V22.5Z" fill="#141B34"/>
<path d="M8.24994 12C8.24994 9.92893 9.92887 8.25 11.9999 8.25C14.071 8.25 15.7499 9.92893 15.7499 12C15.7499 14.0711 14.071 15.75 11.9999 15.75C9.92887 15.75 8.24994 14.0711 8.24994 12Z" fill="#141B34"/>
<path fill-rule="evenodd" clip-rule="evenodd" d="M12.0136 4.5C7.87148 4.5 4.51361 7.85786 4.51361 12C4.51361 16.1421 7.87148 19.5 12.0136 19.5C16.1557 19.5 19.5136 16.1421 19.5136 12C19.5136 7.85786 16.1557 4.5 12.0136 4.5ZM2.51361 12C2.51361 6.75329 6.76691 2.5 12.0136 2.5C17.2603 2.5 21.5136 6.75329 21.5136 12C21.5136 17.2467 17.2603 21.5 12.0136 21.5C6.76691 21.5 2.51361 17.2467 2.51361 12Z" fill="#141B34"/>
</svg>
