<svg width="24" height="24" viewBox="0 0 24 24" fill="none" xmlns="http://www.w3.org/2000/svg">
<path fill-rule="evenodd" clip-rule="evenodd" d="M2.56359 4.2054C2.46557 4.20042 2.33624 4.20018 2.12489 4.20018C1.64167 4.20018 1.24994 3.76366 1.24994 3.22519C1.24994 2.68672 1.64167 2.2502 2.12489 2.2502C2.15207 2.2502 2.17922 2.25015 2.20633 2.2501C2.52895 2.2495 2.84604 2.24891 3.12851 2.33326C3.88336 2.55864 4.47296 3.21566 4.67523 4.05681C4.75091 4.37158 4.75039 4.72492 4.74985 5.08442C4.7498 5.11463 4.74976 5.14489 4.74976 5.17517V20.775C4.74976 21.3135 4.35803 21.75 3.8748 21.75C3.39158 21.75 2.99985 21.3135 2.99985 20.775V5.17517C2.99985 4.93966 2.99964 4.79554 2.99517 4.68632C2.99091 4.58233 2.98407 4.55786 2.98494 4.5615C2.94449 4.39327 2.82657 4.26187 2.6756 4.21679C2.67599 4.21691 2.67602 4.2169 2.6756 4.21679C2.67253 4.21597 2.64565 4.20957 2.56359 4.2054Z" fill="#141B34"/>
<path fill-rule="evenodd" clip-rule="evenodd" d="M5.99994 18.25H8.88207C9.2832 18.25 9.6499 18.4766 9.82929 18.8354C10.2628 19.7024 11.1489 20.25 12.1181 20.25L17.0538 20.25H17.0538H17.0538C18.1867 20.25 19.1124 20.25 19.8432 20.1518C20.6072 20.0491 21.2695 19.8268 21.7982 19.2981C22.3269 18.7694 22.5492 18.1071 22.6519 17.3431C22.7502 16.6123 22.7501 15.6866 22.7501 14.5538V14.5538V14.5537L22.7501 9.94632V9.94629V9.94627C22.7501 8.81348 22.7502 7.88773 22.6519 7.15689C22.5492 6.39294 22.3269 5.7306 21.7982 5.20191C21.2695 4.67321 20.6072 4.45093 19.8432 4.34822C19.1124 4.24996 18.1867 4.24998 17.0539 4.25H17.0538L6.00001 4.25L5.99994 18.25ZM16.7499 9.25C15.5073 9.25 14.4999 10.2574 14.4999 11.5C14.4999 12.7426 15.5073 13.75 16.7499 13.75C17.9926 13.75 18.9999 12.7426 18.9999 11.5C18.9999 10.2574 17.9926 9.25 16.7499 9.25ZM12.9999 11.5C12.9999 9.42893 14.6789 7.75 16.7499 7.75C18.821 7.75 20.4999 9.42893 20.4999 11.5C20.4999 13.571 18.821 15.25 16.7499 15.25C14.6789 15.25 12.9999 13.571 12.9999 11.5ZM8.49994 7.75C8.08573 7.75 7.74994 8.08579 7.74994 8.5C7.74994 8.91421 8.08573 9.25 8.49994 9.25L10.4999 9.25C10.9142 9.25 11.2499 8.91421 11.2499 8.5C11.2499 8.08579 10.9142 7.75 10.4999 7.75L8.49994 7.75ZM8.49994 10.75C8.08573 10.75 7.74994 11.0858 7.74994 11.5C7.74994 11.9142 8.08573 12.25 8.49994 12.25L10.4999 12.25C10.9142 12.25 11.2499 11.9142 11.2499 11.5C11.2499 11.0858 10.9142 10.75 10.4999 10.75L8.49994 10.75ZM8.49994 13.75C8.08573 13.75 7.74994 14.0858 7.74994 14.5C7.74994 14.9142 8.08573 15.25 8.49994 15.25L10.4999 15.25C10.9142 15.25 11.2499 14.9142 11.2499 14.5C11.2499 14.0858 10.9142 13.75 10.4999 13.75L8.49994 13.75Z" fill="#141B34"/>
</svg>
