<svg width="24" height="24" viewBox="0 0 24 24" fill="none" xmlns="http://www.w3.org/2000/svg">
<path d="M9.00382 10.7019C9.97208 8.7028 11.8829 7.25024 14.4972 7.25024C16.2617 7.25024 17.7691 7.70294 18.8961 8.63371C20.0294 9.56964 20.6982 10.9233 20.901 12.5664C20.9548 13.0022 20.9726 13.5933 20.5336 14.0154C20.3294 14.2118 20.0879 14.3074 19.8847 14.3616C19.6833 14.4153 19.4618 14.4427 19.2494 14.4629C18.6847 14.5166 18.1 14.6891 17.505 15.307C17.8757 15.736 18.6115 16.3007 19.5471 16.4959C19.8461 16.5581 20.252 16.6426 20.564 16.9028C20.9252 17.2041 21.0456 17.6253 21.1202 17.9966L21.5623 20.1954C21.6487 20.6248 21.7294 21.0257 21.7464 21.3422C21.7634 21.6577 21.7363 22.1801 21.2746 22.5153C20.9903 22.7218 20.6721 22.7631 20.413 22.7471C20.1583 22.7314 19.9094 22.6584 19.6902 22.5737C19.253 22.405 18.7789 22.1276 18.3515 21.8618L17.1277 21.0928C16.7535 20.8709 16.4812 20.7748 16.4812 20.7748C15.9105 20.7118 15.1727 20.8832 14.3161 21.1776C13.9676 21.2974 13.6218 21.4291 13.2746 21.5612C12.5207 21.7818 10.4613 22.4704 10.0137 22.5646C9.78806 22.6121 9.55784 22.6487 9.34751 22.647C9.15892 22.6454 8.824 22.6136 8.55858 22.3562C8.27198 22.0782 8.25061 21.7066 8.25001 21.5295C8.24926 21.312 8.28571 21.0653 8.33501 20.8138C8.43244 20.3168 8.66099 19.4644 8.89262 18.6003L8.89905 18.5764C8.96567 18.3313 9.02489 18.1134 9.05525 17.895C9.09094 17.6382 9.06797 17.4898 9.0295 17.4065C8.00356 15.1868 8.04657 12.6783 9.00382 10.7019Z" fill="#141B34"/>
<path d="M21.1108 6.69624L21.113 6.69588L21.1144 6.69567C21.3751 6.65546 21.5955 6.4812 21.6948 6.23674C21.7943 5.99186 21.7576 5.71269 21.5981 5.50191C20.4952 4.04429 19.0253 2.87635 17.3242 2.13308C16.958 1.97152 16.4682 1.7556 15.9685 1.82797C15.5515 1.88835 15.1697 2.07829 14.8472 2.28779C14.5192 2.50085 14.1414 2.82504 13.858 3.08638C13.8536 2.90503 13.8402 2.72189 13.8122 2.54787C13.7667 2.26495 13.6603 1.85132 13.3394 1.56014C13.0908 1.33458 12.8086 1.26687 12.5674 1.25295C12.3749 1.24186 12.1189 1.26722 11.9275 1.28617C6.49809 1.82059 2.25 6.3687 2.25 11.9106C2.25 14.899 3.48704 17.6009 5.4768 19.5373C5.70474 19.7591 6.04783 19.8131 6.33284 19.6719C6.61785 19.5306 6.78279 19.225 6.74439 18.9093C6.71709 18.6848 6.74127 18.2941 6.84958 17.8015C6.92494 17.4588 7.03536 17.0927 7.17714 16.7356C6.50138 14.4687 6.68299 12.0532 7.65432 10.0477C8.84683 7.58557 11.2502 5.74988 14.4977 5.74988C16.2293 5.74988 17.861 6.13197 19.2141 7.00683C19.3622 7.1026 19.4363 7.15048 19.5073 7.15808C19.5783 7.16568 19.6625 7.1339 19.831 7.07033C20.2237 6.9222 20.7097 6.78324 21.1108 6.69624Z" fill="#141B34"/>
</svg>
