<svg width="24" height="24" viewBox="0 0 24 24" fill="none" xmlns="http://www.w3.org/2000/svg">
<path fill-rule="evenodd" clip-rule="evenodd" d="M5 4C5 3.44772 5.44772 3 6 3H18C18.5523 3 19 3.44772 19 4C19 4.55228 18.5523 5 18 5H6C5.44772 5 5 4.55228 5 4ZM4 5C4.55228 5 5 5.44772 5 6V18C5 18.5523 4.55228 19 4 19C3.44772 19 3 18.5523 3 18V6C3 5.44772 3.44772 5 4 5ZM20 5C20.5523 5 21 5.44772 21 6V18C21 18.5523 20.5523 19 20 19C19.4477 19 19 18.5523 19 18V6C19 5.44772 19.4477 5 20 5ZM5 20C5 19.4477 5.44772 19 6 19H18C18.5523 19 19 19.4477 19 20C19 20.5523 18.5523 21 18 21H6C5.44772 21 5 20.5523 5 20Z" fill="#141B34"/>
<path d="M14.5218 6.75C14.7361 6.74999 14.9329 6.74998 15.0982 6.76126C15.2759 6.77338 15.4712 6.80099 15.6697 6.88321C16.0985 7.06083 16.4392 7.40151 16.6168 7.83031C16.699 8.02881 16.7266 8.22415 16.7387 8.40179C16.75 8.56712 16.75 8.80749 16.75 9.02176V9.02177C16.75 9.23604 16.75 9.43289 16.7387 9.59821C16.7266 9.77585 16.699 9.97119 16.6168 10.1697C16.4392 10.5985 16.0985 10.9392 15.6697 11.1168C15.4712 11.199 15.2759 11.2266 15.0982 11.2387C14.9329 11.25 14.736 11.25 14.5218 11.25H9.47824C9.26396 11.25 9.06712 11.25 8.90179 11.2387C8.72415 11.2266 8.52881 11.199 8.3303 11.1168C7.9015 10.9392 7.56082 10.5985 7.38321 10.1697C7.30099 9.97119 7.27338 9.77585 7.26125 9.59821C7.24998 9.4329 7.24999 9.21433 7.25 9.00007V9V8.99993C7.24999 8.78568 7.24998 8.5671 7.26125 8.40179C7.27338 8.22415 7.30099 8.02881 7.38321 7.83031C7.56082 7.40151 7.9015 7.06083 8.3303 6.88321C8.52881 6.80099 8.72415 6.77338 8.90179 6.76126C9.06711 6.74998 9.26394 6.74999 9.4782 6.75H9.47824H14.5218H14.5218Z" fill="#141B34"/>
<path d="M14.5218 12.75C14.736 12.75 14.9329 12.75 15.0982 12.7613C15.2759 12.7734 15.4712 12.801 15.6697 12.8832C16.0985 13.0608 16.4392 13.4015 16.6168 13.8303C16.699 14.0288 16.7266 14.2241 16.7387 14.4018C16.75 14.5671 16.75 14.8075 16.75 15.0218V15.0218C16.75 15.236 16.75 15.4329 16.7387 15.5982C16.7266 15.7759 16.699 15.9712 16.6168 16.1697C16.4392 16.5985 16.0985 16.9392 15.6697 17.1168C15.4712 17.199 15.2759 17.2266 15.0982 17.2387C14.9329 17.25 14.736 17.25 14.5218 17.25H14.5218H9.47824H9.47823C9.26396 17.25 9.06711 17.25 8.90179 17.2387C8.72415 17.2266 8.52881 17.199 8.3303 17.1168C7.9015 16.9392 7.56083 16.5985 7.38321 16.1697C7.30099 15.9712 7.27338 15.7759 7.26125 15.5982C7.24998 15.4329 7.24999 15.2361 7.25 15.0218V15.0218C7.24999 14.8075 7.24997 14.5671 7.26125 14.4018C7.27338 14.2241 7.30099 14.0288 7.38321 13.8303C7.56082 13.4015 7.9015 13.0608 8.3303 12.8832C8.52881 12.801 8.72415 12.7734 8.90179 12.7613C9.06712 12.75 9.26396 12.75 9.47824 12.75H14.5218Z" fill="#141B34"/>
<path d="M1.25 4C1.25 2.48122 2.48122 1.25 4 1.25C5.51878 1.25 6.75 2.48122 6.75 4C6.75 5.51878 5.51878 6.75 4 6.75C2.48122 6.75 1.25 5.51878 1.25 4Z" fill="#141B34"/>
<path d="M17.25 4C17.25 2.48122 18.4812 1.25 20 1.25C21.5188 1.25 22.75 2.48122 22.75 4C22.75 5.51878 21.5188 6.75 20 6.75C18.4812 6.75 17.25 5.51878 17.25 4Z" fill="#141B34"/>
<path d="M17.25 20C17.25 18.4812 18.4812 17.25 20 17.25C21.5188 17.25 22.75 18.4812 22.75 20C22.75 21.5188 21.5188 22.75 20 22.75C18.4812 22.75 17.25 21.5188 17.25 20Z" fill="#141B34"/>
<path d="M1.25 20C1.25 18.4812 2.48122 17.25 4 17.25C5.51878 17.25 6.75 18.4812 6.75 20C6.75 21.5188 5.51878 22.75 4 22.75C2.48122 22.75 1.25 21.5188 1.25 20Z" fill="#141B34"/>
</svg>
