<svg width="24" height="24" viewBox="0 0 24 24" fill="none" xmlns="http://www.w3.org/2000/svg">
<path d="M1.25 4C1.25 2.48122 2.48122 1.25 4 1.25C5.51878 1.25 6.75 2.48122 6.75 4C6.75 5.51878 5.51878 6.75 4 6.75C2.48122 6.75 1.25 5.51878 1.25 4Z" fill="#141B34"/>
<path d="M17.25 4C17.25 2.48122 18.4812 1.25 20 1.25C21.5188 1.25 22.75 2.48122 22.75 4C22.75 5.51878 21.5188 6.75 20 6.75C18.4812 6.75 17.25 5.51878 17.25 4Z" fill="#141B34"/>
<path d="M17.25 20C17.25 18.4812 18.4812 17.25 20 17.25C21.5188 17.25 22.75 18.4812 22.75 20C22.75 21.5188 21.5188 22.75 20 22.75C18.4812 22.75 17.25 21.5188 17.25 20Z" fill="#141B34"/>
<path d="M1.25 20C1.25 18.4812 2.48122 17.25 4 17.25C5.51878 17.25 6.75 18.4812 6.75 20C6.75 21.5188 5.51878 22.75 4 22.75C2.48122 22.75 1.25 21.5188 1.25 20Z" fill="#141B34"/>
<path fill-rule="evenodd" clip-rule="evenodd" d="M5 4C5 3.44772 5.44772 3 6 3H18C18.5523 3 19 3.44772 19 4C19 4.55228 18.5523 5 18 5H6C5.44772 5 5 4.55228 5 4ZM4 5C4.55228 5 5 5.44772 5 6V18C5 18.5523 4.55228 19 4 19C3.44772 19 3 18.5523 3 18V6C3 5.44772 3.44772 5 4 5ZM20 5C20.5523 5 21 5.44772 21 6V18C21 18.5523 20.5523 19 20 19C19.4477 19 19 18.5523 19 18V6C19 5.44772 19.4477 5 20 5ZM5 20C5 19.4477 5.44772 19 6 19H18C18.5523 19 19 19.4477 19 20C19 20.5523 18.5523 21 18 21H6C5.44772 21 5 20.5523 5 20Z" fill="#141B34"/>
<path d="M10.4261 7.75476C10.9746 7.48527 11.4534 7.25 12 7.25C12.5466 7.25 13.0254 7.48527 13.5739 7.75476L14.8178 8.3636L14.8178 8.3636C15.4628 8.67923 16.0145 8.94917 16.3993 9.20447C16.7625 9.44539 17.25 9.84533 17.25 10.5C17.25 11.1547 16.7625 11.5546 16.3993 11.7955C16.0145 12.0508 15.4628 12.3208 14.8177 12.6364L13.5739 13.2452C13.0254 13.5147 12.5466 13.75 12 13.75C11.4534 13.75 10.9746 13.5147 10.4261 13.2452L10.4261 13.2452L9.18225 12.6364C8.5372 12.3208 7.98551 12.0508 7.60067 11.7955C7.23749 11.5546 6.75 11.1547 6.75 10.5C6.75 9.84533 7.23749 9.44539 7.60067 9.20447C7.98551 8.94917 8.5372 8.67923 9.18225 8.3636L9.18225 8.3636L10.4261 7.75476Z" fill="#141B34"/>
<path d="M7.70455 12.75C8.15634 12.75 8.53482 13.0423 8.63383 13.4349C8.89672 13.5973 9.40917 13.8511 10.0915 14.1621L11.1307 14.6356C11.833 14.9557 11.9193 14.9722 12 14.9722C12.0807 14.9722 12.167 14.9557 12.8693 14.6356L13.9085 14.1621C14.5908 13.8511 15.1033 13.5973 15.3662 13.4349C15.4652 13.0423 15.8437 12.75 16.2955 12.75C16.8226 12.75 17.25 13.148 17.25 13.6389C17.25 14.344 16.6842 14.7576 16.3313 14.9757C15.9506 15.2108 15.4117 15.4564 14.8062 15.7322L14.7477 15.7589L13.7085 16.2325L13.5949 16.2845C13.0863 16.5177 12.5797 16.75 12 16.75C11.4203 16.75 10.9137 16.5177 10.4051 16.2845L10.2915 16.2325L9.25234 15.7589L9.19382 15.7322C8.58832 15.4564 8.04939 15.2108 7.66872 14.9757C7.31579 14.7576 6.75 14.344 6.75 13.6389C6.75 13.148 7.17736 12.75 7.70455 12.75Z" fill="#141B34"/>
</svg>
