<svg width="24" height="24" viewBox="0 0 24 24" fill="none" xmlns="http://www.w3.org/2000/svg">
<path fill-rule="evenodd" clip-rule="evenodd" d="M19.75 2C20.3023 2 20.75 2.44772 20.75 3V4.59767C20.75 5.14995 20.3023 5.59767 19.75 5.59767C19.1977 5.59767 18.75 5.14995 18.75 4.59767V3C18.75 2.44772 19.1977 2 19.75 2Z" fill="#141B34"/>
<path fill-rule="evenodd" clip-rule="evenodd" d="M15 22C15 22.5523 14.5523 23 14 23L10 23C9.44772 23 9 22.5523 9 22C9 21.4477 9.44772 21 10 21L14 21C14.5523 21 15 21.4477 15 22Z" fill="#141B34"/>
<path fill-rule="evenodd" clip-rule="evenodd" d="M11.0359 3.21458L3.33416 5.94261C2.81357 6.12701 2.24206 5.85448 2.05766 5.33388C1.87326 4.81329 2.1458 4.24179 2.66639 4.05739L10.4015 1.31753C10.4236 1.30968 10.4461 1.30261 10.4687 1.29634C10.4959 1.28882 10.5229 1.28135 10.5496 1.27394C11.091 1.12385 11.5378 1 12.0003 1C12.4627 1 12.9095 1.12385 13.4509 1.27394C13.4777 1.28135 13.5046 1.28882 13.5318 1.29634C13.5545 1.30261 13.5769 1.30968 13.5991 1.31753L21.3342 4.05739C21.8547 4.24179 22.1273 4.81329 21.9429 5.33388C21.7585 5.85448 21.187 6.12701 20.6664 5.94261L12.9647 3.21458C12.3172 3.03581 12.1504 3 12.0003 3C11.8501 3 11.6833 3.03581 11.0359 3.21458Z" fill="#141B34"/>
<path fill-rule="evenodd" clip-rule="evenodd" d="M13.4649 1.53729L13.4007 1.51953C12.8429 1.36506 12.4275 1.25 12 1.25C11.5725 1.25 11.1571 1.36506 10.5993 1.51953L10.5351 1.53729C10.5181 1.54199 10.5013 1.54729 10.4847 1.55318L3.74959 3.93883C3.45014 4.0449 3.25 4.32811 3.25 4.64579V19C3.25 19.4142 3.58579 19.75 4 19.75H9.25V13.5372C9.25 12.755 9.66344 12.1643 10.1988 11.7945C10.7173 11.4363 11.3671 11.2656 11.9822 11.251C12.596 11.2365 13.2598 11.3756 13.7946 11.7365C14.3569 12.116 14.75 12.7296 14.75 13.5372V19.75H20C20.4142 19.75 20.75 19.4142 20.75 19V4.64579C20.75 4.32811 20.5499 4.0449 20.2504 3.93883L13.5153 1.55318C13.4987 1.54729 13.4819 1.54199 13.4649 1.53729ZM13.25 13.5372V19.75H10.75V13.5372C10.75 13.3426 10.8366 13.177 11.0512 13.0287C11.2827 12.8688 11.6329 12.7597 12.0178 12.7506C12.404 12.7414 12.7402 12.8346 12.9554 12.9799C13.1431 13.1065 13.25 13.273 13.25 13.5372ZM12 6.5C11.1716 6.5 10.5 7.17157 10.5 8C10.5 8.82843 11.1716 9.5 12 9.5H12.0119C12.8404 9.5 13.5119 8.82843 13.5119 8C13.5119 7.17157 12.8404 6.5 12.0119 6.5H12Z" fill="#141B34"/>
</svg>
