<svg width="24" height="24" viewBox="0 0 24 24" fill="none" xmlns="http://www.w3.org/2000/svg">
<path d="M2.53568 8.14191H13.6335C13.803 8.14191 13.9558 8.03735 14.0206 7.87704C14.0853 7.71673 14.0492 7.5323 13.9292 7.40984L12.1138 5.55812C11.4946 4.92647 11.5509 3.88643 12.235 3.32814C12.4904 3.11977 12.7974 3.01012 13.1072 2.99997C13.2537 3.00436 13.3999 3.02188 13.5439 3.05255C13.6538 3.08325 13.761 3.12722 13.8632 3.18449L19.1093 7.09538C19.419 7.33784 19.824 7.54609 20.2804 7.70235L20.3096 7.71237C20.8147 7.88529 21.234 8.02886 21.5481 8.16325C21.8418 8.28892 22.1988 8.46615 22.4239 8.78107C22.6319 9.07223 22.6957 9.40169 22.7234 9.6919C22.7501 9.97227 22.7501 10.3204 22.75 10.7148L22.7501 17.116C22.7502 17.2357 22.7503 17.3601 22.7354 17.4744C22.6331 18.262 22.0132 18.8819 21.2256 18.9843C21.1113 18.9991 20.9552 18.999 20.8355 18.9989C20.5077 18.9989 20.1714 19.1321 19.8904 19.3782C19.4359 19.7763 18.7035 20.372 18.0599 20.6183C17.527 20.8222 16.9543 20.9123 16.2674 20.956C15.5921 20.9989 14.7574 20.9989 13.6927 20.9989L12.1941 20.9993C10.8498 20.9993 9.70255 20.0274 9.48155 18.7014C9.45768 18.5582 9.56811 18.4278 9.71328 18.4278H12.0001C12.2314 18.4278 12.419 18.236 12.419 17.9993C12.419 17.7626 12.2314 17.5707 12.0001 17.5707H9.66973C9.57955 17.5707 9.53446 17.5707 9.4908 17.5571C9.44714 17.5435 9.41229 17.5193 9.3426 17.4711C8.77548 17.0788 8.39327 16.6518 8.29351 15.5992C8.268 15.3301 8.25525 15.1956 8.34451 15.0975C8.43378 14.9994 8.57838 14.9994 8.86759 14.9994H10.8833C11.1146 14.9994 11.3021 14.8075 11.3021 14.5708C11.3021 14.3341 11.1146 14.1422 10.8833 14.1422H8.26279C8.13196 14.1422 8.06654 14.1422 8.00445 14.1121C7.94237 14.0819 7.90711 14.037 7.83659 13.9473C7.46908 13.4798 7.24988 12.8901 7.24988 12.2493C7.25548 12.1335 7.29443 11.9551 7.37572 11.7899C7.41791 11.7041 7.439 11.6613 7.51179 11.6159C7.58459 11.5706 7.65185 11.5706 7.78638 11.5706H9.76639C9.9977 11.5706 10.1852 11.3788 10.1852 11.1421C10.1852 10.9054 9.9977 10.7135 9.76639 10.7135L2.53568 10.7135C1.82555 10.7135 1.24988 10.1378 1.24988 9.42771C1.24988 8.71759 1.82555 8.14191 2.53568 8.14191Z" fill="#141B34"/>
</svg>
