<svg width="24" height="24" viewBox="0 0 24 24" fill="none" xmlns="http://www.w3.org/2000/svg">
<path d="M8.14194 21.4644L8.14194 10.3666C8.14194 10.1971 8.03738 10.0443 7.87707 9.97952C7.71677 9.91477 7.53233 9.95085 7.40987 10.0709L5.55815 11.8863C4.9265 12.5055 3.88646 12.4492 3.32817 11.7651C3.1198 11.5097 3.01015 11.2027 3 10.8929C3.00439 10.7464 3.02191 10.6002 3.05258 10.4561C3.08328 10.3462 3.12725 10.2391 3.18452 10.1369L7.09541 4.89077C7.33787 4.58105 7.54612 4.17608 7.70238 3.71972L7.7124 3.69045C7.88532 3.1854 8.02889 2.76611 8.16328 2.45197C8.28895 2.15825 8.46618 1.80125 8.7811 1.57621C9.07226 1.36815 9.40172 1.30439 9.69193 1.27672C9.9723 1.25 10.3204 1.25002 10.7148 1.25004L17.116 1.25002C17.2357 1.2499 17.3601 1.24978 17.4745 1.26464C18.262 1.36701 18.8819 1.98691 18.9843 2.77449C18.9992 2.88881 18.999 3.04487 18.9989 3.16461C18.9989 3.49237 19.1321 3.82869 19.3782 4.10966C19.7763 4.56415 20.372 5.29662 20.6183 5.94016C20.8222 6.47307 20.9124 7.04581 20.956 7.73267C20.9989 8.40794 20.9989 9.24269 20.9989 10.3074L20.9993 11.806C20.9993 13.1503 20.0274 14.2975 18.7014 14.5185C18.5582 14.5424 18.4279 14.432 18.4279 14.2868V12C18.4279 11.7686 18.236 11.5811 17.9993 11.5811C17.7626 11.5811 17.5707 11.7686 17.5707 12V14.3304C17.5707 14.4205 17.5707 14.4656 17.5571 14.5093C17.5435 14.5529 17.5194 14.5878 17.4712 14.6575C17.0788 15.2246 16.6518 15.6068 15.5993 15.7066C15.3302 15.7321 15.1956 15.7448 15.0975 15.6556C14.9994 15.5663 14.9994 15.4217 14.9994 15.1325V13.1168C14.9994 12.8855 14.8075 12.698 14.5708 12.698C14.3341 12.698 14.1423 12.8855 14.1423 13.1168V15.7373C14.1423 15.8681 14.1423 15.9335 14.1121 15.9956C14.0819 16.0577 14.0371 16.093 13.9473 16.1635C13.4798 16.531 12.8902 16.7502 12.2493 16.7502C12.1335 16.7446 11.9551 16.7057 11.7899 16.6244C11.7042 16.5822 11.6613 16.5611 11.616 16.4883C11.5707 16.4155 11.5707 16.3482 11.5707 16.2137V14.2337C11.5707 14.0024 11.3788 13.8149 11.1421 13.8149C10.9054 13.8149 10.7135 14.0024 10.7135 14.2337L10.7135 21.4644C10.7135 22.1745 10.1379 22.7502 9.42774 22.7502C8.71762 22.7502 8.14194 22.1745 8.14194 21.4644Z" fill="#141B34"/>
</svg>
