<svg width="24" height="24" viewBox="0 0 24 24" fill="none" xmlns="http://www.w3.org/2000/svg">
<path fill-rule="evenodd" clip-rule="evenodd" d="M17.7494 11.7502C18.3017 11.7502 18.7494 12.198 18.7494 12.7502V15.7502H21.7494C22.3017 15.7502 22.7494 16.198 22.7494 16.7502C22.7494 17.3025 22.3017 17.7502 21.7494 17.7502H18.7494V20.7502C18.7494 21.3025 18.3017 21.7502 17.7494 21.7502C17.1971 21.7502 16.7494 21.3025 16.7494 20.7502V17.7502H13.7494C13.1971 17.7502 12.7494 17.3025 12.7494 16.7502C12.7494 16.198 13.1971 15.7502 13.7494 15.7502H16.7494V12.7502C16.7494 12.198 17.1971 11.7502 17.7494 11.7502Z" fill="#141B34"/>
<path d="M11.4159 3.46855C9.8004 2.25531 7.12617 1.52656 4.1452 3.35509C2.08396 4.61946 0.924129 7.26054 1.33111 10.2951C1.74006 13.3442 3.71365 16.7928 7.89325 19.8864C9.34463 20.9613 10.4099 21.7502 11.9999 21.7502C13.2618 21.7502 14.1932 21.2534 15.2493 20.511V19.2504H13.7493C12.3686 19.2504 11.2493 18.1311 11.2493 16.7504C11.2493 15.3697 12.3686 14.2504 13.7493 14.2504H15.2493V12.7504C15.2493 11.3697 16.3686 10.2504 17.7493 10.2504C19.13 10.2504 20.2493 11.3697 20.2493 12.7504V14.2504H21.3016C22.0584 12.8991 22.4987 11.5625 22.6687 10.2951C23.0757 7.26054 21.9159 4.61946 19.8546 3.35509C16.8737 1.52656 14.1994 2.25531 12.5839 3.46855C12.3181 3.66814 12.1357 3.80474 11.9999 3.89698C11.8641 3.80474 11.6817 3.66814 11.4159 3.46855Z" fill="#141B34"/>
</svg>
