<svg width="24" height="24" viewBox="0 0 24 24" fill="none" xmlns="http://www.w3.org/2000/svg">
<path d="M22.6918 14.4164C22.8762 14.937 22.6036 15.5085 22.083 15.6929C21.5494 15.8819 20.9329 16.2887 20.2798 16.8615C19.6371 17.4251 19.012 18.102 18.4582 18.7658C17.9064 19.4273 17.4376 20.0611 17.1066 20.5301C16.9414 20.764 16.6812 21.1544 16.5932 21.2865C16.3999 21.5906 16.0579 21.7674 15.698 21.7489C15.3381 21.7305 15.0159 21.5198 14.8547 21.1975C14.414 20.3161 14.0187 19.9651 13.8194 19.8323C13.7351 19.7761 13.6782 19.7536 13.6555 19.7459C13.1471 19.6987 12.7491 19.271 12.7491 18.7502C12.7491 18.198 13.1969 17.7502 13.7491 17.7502C13.9746 17.7537 14.5263 17.8422 14.9288 18.1682C15.2031 18.351 15.4908 18.6038 15.7795 18.9497C16.0947 18.5189 16.4831 18.0112 16.9224 17.4847C17.5157 16.7735 18.2141 16.0129 18.9611 15.3578C19.6978 14.7118 20.5372 14.1186 21.4153 13.8076C21.9359 13.6232 22.5074 13.8958 22.6918 14.4164Z" fill="#141B34"/>
<path d="M11.4159 3.46855C9.8004 2.25531 7.12617 1.52656 4.1452 3.35509C2.08396 4.61946 0.924129 7.26054 1.33111 10.2951C1.74006 13.3442 3.71365 16.7928 7.89325 19.8864C9.34463 20.9613 10.4099 21.7502 11.9999 21.7502C12.4856 21.7502 12.9223 21.6766 13.3361 21.5438C13.2176 21.3456 13.1214 21.2234 13.0584 21.1533C12.013 20.8533 11.2488 19.8916 11.2488 18.7501C11.2488 17.3694 12.3681 16.2501 13.7488 16.2501C14.1077 16.2557 14.874 16.3552 15.5591 16.7799C16.182 16.0332 17.1466 14.9536 17.9718 14.2299C18.7713 13.5287 19.7779 12.796 20.9142 12.3936C21.3382 12.2434 21.7757 12.2145 22.1889 12.2887C22.4238 11.6109 22.5817 10.9439 22.6687 10.2951C23.0757 7.26054 21.9159 4.61946 19.8546 3.35509C16.8737 1.52656 14.1994 2.25531 12.5839 3.46855C12.3181 3.66814 12.1357 3.80474 11.9999 3.89698C11.8641 3.80474 11.6817 3.66814 11.4159 3.46855Z" fill="#141B34"/>
</svg>
