<svg width="24" height="24" viewBox="0 0 24 24" fill="none" xmlns="http://www.w3.org/2000/svg">
<path d="M15.25 19C15.25 16.9289 16.9289 15.25 19 15.25C21.0711 15.25 22.75 16.9289 22.75 19C22.75 21.0711 21.0711 22.75 19 22.75C16.9289 22.75 15.25 21.0711 15.25 19Z" fill="#141B34"/>
<path d="M15.25 5C15.25 2.92893 16.9289 1.25 19 1.25C21.0711 1.25 22.75 2.92893 22.75 5C22.75 7.07107 21.0711 8.75 19 8.75C16.9289 8.75 15.25 7.07107 15.25 5Z" fill="#141B34"/>
<path fill-rule="evenodd" clip-rule="evenodd" d="M16.9972 4.92567C17.0383 5.47643 16.6251 5.95618 16.0743 5.99722C14.9533 6.08076 14.615 6.33242 14.428 6.63145C14.1566 7.06566 14 7.90074 14 9.65277V14.3472C14 16.0992 14.1566 16.9343 14.428 17.3685C14.615 17.6676 14.9533 17.9192 16.0743 18.0027C16.6251 18.0438 17.0383 18.5235 16.9972 19.0743C16.9562 19.6251 16.4764 20.0383 15.9257 19.9972C14.5937 19.898 13.432 19.548 12.7322 18.4288C12.1169 17.4447 12 16.0448 12 14.3472L12 13H10C9.44772 13 9 12.5523 9 12C9 11.4477 9.44772 11 10 11H12V9.65277C12 7.95516 12.1169 6.55525 12.7322 5.57117C13.432 4.45193 14.5937 4.10201 15.9257 4.00275C16.4764 3.96171 16.9562 4.37491 16.9972 4.92567Z" fill="#141B34"/>
<path d="M1.25 12C1.25 9.37665 3.37665 7.25 6 7.25C8.62335 7.25 10.75 9.37665 10.75 12C10.75 14.6234 8.62335 16.75 6 16.75C3.37665 16.75 1.25 14.6234 1.25 12Z" fill="#141B34"/>
</svg>
