<svg width="24" height="24" viewBox="0 0 24 24" fill="none" xmlns="http://www.w3.org/2000/svg">
<path fill-rule="evenodd" clip-rule="evenodd" d="M8.41841 1.32121L8.4171 1.32067C8.4056 1.31585 8.32844 1.28356 8.23539 1.26575C8.12559 1.24475 8.03113 1.2486 7.96375 1.25539L7.94376 1.25732L7.93153 1.2582C7.9236 1.25884 7.89318 1.26126 7.85504 1.2683C7.80818 1.27696 7.7446 1.2933 7.6742 1.32614C7.64221 1.34106 7.61708 1.35554 7.60079 1.36548C7.59297 1.37025 7.5868 1.3742 7.58338 1.37642L7.57939 1.37902L7.57813 1.37985C7.38135 1.50966 7.28758 1.68751 7.24338 1.81093C7.20368 1.92178 7.19118 2.02491 7.18591 2.07049C7.17963 2.12469 7.17664 2.15827 7.17441 2.18324L7.17441 2.18327V2.18327C7.17115 2.21987 7.16954 2.23797 7.16164 2.27544C7.08002 2.66266 6.93569 3.18849 6.69813 3.66991C6.45602 4.16055 6.15686 4.52479 5.80825 4.70536C4.98029 5.13421 4.16843 5.79583 3.53144 6.57237C2.89783 7.34478 2.39644 8.28155 2.26971 9.27029C2.16503 10.087 2.49128 10.7289 2.91587 11.2003C3.32031 11.6492 3.84892 11.9838 4.24681 12.2276C6.56897 13.6506 7.82896 16.0493 8.91895 18.2713L9.05883 18.5571L9.05884 18.5572C9.53664 19.5345 10.007 20.4966 10.5324 21.2223C11.1117 22.0224 11.8831 22.7106 12.9819 22.7182L12.9866 22.7184L13.0454 22.7208C13.0965 22.7229 13.1708 22.7257 13.2654 22.7288C13.4544 22.7349 13.7245 22.742 14.0514 22.7463C14.7039 22.7548 15.5881 22.7517 16.5072 22.7051C17.4209 22.6586 18.3948 22.5679 19.2172 22.3941C19.6278 22.3073 20.0245 22.195 20.366 22.0451C20.695 21.9007 21.0483 21.6893 21.2852 21.3621C21.7597 20.7067 21.9055 19.9936 21.564 19.3315C21.2727 18.7669 20.7023 18.4112 20.2182 18.177C19.7084 17.9305 19.1297 17.7437 18.6558 17.5956L18.5248 17.5547C18.0768 17.415 17.7869 17.3245 17.6348 17.2457C16.8274 16.8275 16.1954 15.9355 15.8869 14.5149C15.5787 13.096 15.6161 11.2296 16.0864 9.04084C16.6843 6.25828 16.4713 4.3786 16.3152 3.57555C16.2309 3.14161 15.8554 3.00407 15.8008 2.98406C15.6955 2.94548 15.5942 2.93138 15.5409 2.92478C15.4293 2.91094 15.2829 2.9039 15.1434 2.89718L15.1185 2.89598C14.8048 2.88084 14.3592 2.85933 13.7697 2.78584C12.5865 2.63834 10.7991 2.27798 8.41841 1.32121ZM6.14472 11.7455C6.85157 11.3805 7.42322 10.9781 7.72586 10.672C8.37925 10.011 7.76659 9.43283 6.94101 8.65368C6.41025 8.15277 5.79148 7.5688 5.36455 6.82641C5.12432 7.03916 4.89645 7.274 4.6909 7.52458C4.17297 8.15597 3.83759 8.83654 3.75753 9.46121C3.72356 9.72621 3.80829 9.94922 4.03006 10.1954C4.27199 10.464 4.62514 10.6995 5.03019 10.9477C5.42859 11.1918 5.7991 11.4595 6.14472 11.7455ZM7.93794 4.53684C7.97506 4.46897 8.01008 4.40134 8.04312 4.33437C8.2755 3.86345 8.4326 3.37997 8.53725 2.97706C10.7127 3.79119 12.3989 4.12743 13.5843 4.27519C14.1543 4.34625 14.6037 4.37307 14.9223 4.38905C14.967 4.78098 14.9993 5.31393 14.9756 5.9797C12.406 6.09235 9.66662 5.39012 7.93794 4.53684ZM17.1616 18.6774C16.555 19.2687 16.0197 20.0895 16.0012 21.2249C16.1432 21.2197 16.2868 21.2134 16.4312 21.2061C17.3137 21.1613 18.1975 21.0756 18.9072 20.9257C19.2625 20.8505 19.5505 20.7641 19.7636 20.6706C19.9893 20.5715 20.0608 20.4949 20.0704 20.4816C20.3104 20.1501 20.2444 20.0419 20.2324 20.0221L20.231 20.0199C20.1746 19.9104 19.9888 19.7331 19.5654 19.5283C19.1677 19.336 18.6876 19.1779 18.2086 19.0282L18.0503 18.979C17.7484 18.8856 17.423 18.7848 17.1616 18.6774Z" fill="#141B34"/>
</svg>
