<svg width="24" height="24" viewBox="0 0 24 24" fill="none" xmlns="http://www.w3.org/2000/svg">
<path d="M11.5 1.25C10.7273 1.25 10.0441 1.51244 9.32411 1.94023C8.62969 2.35284 7.83639 2.96017 6.8491 3.71603L5.55725 4.70503C4.76436 5.31202 4.12488 5.80157 3.64151 6.25567C3.13923 6.72754 2.76128 7.20036 2.52207 7.7942C2.28315 8.38732 2.22634 8.99266 2.25804 9.68588C2.28861 10.3544 2.40559 11.1604 2.55099 12.1621L2.81957 14.0126C3.02611 15.4358 3.19112 16.5729 3.43381 17.4596C3.68453 18.3758 4.04078 19.1171 4.68967 19.6886C5.34028 20.2616 6.11598 20.5149 7.0468 20.6346C7.94443 20.75 9.07286 20.75 10.4801 20.75H12.5198C12.5905 20.75 12.6258 20.75 12.6366 20.7488C12.791 20.7321 12.8632 20.6003 12.7942 20.4611C12.7894 20.4514 12.7657 20.4143 12.7183 20.3401C12.7122 20.3305 12.7061 20.3209 12.7001 20.3113C12.4848 19.9639 12.3648 19.5844 12.3331 19.2033C12.3199 19.0441 12.3132 18.9645 12.2804 18.9193C12.2477 18.8742 12.1741 18.8431 12.0269 18.7811C11.6619 18.6272 11.3282 18.3842 11.0608 18.0554C10.1894 16.9844 10.3513 15.4098 11.4224 14.5385C12.9643 13.2841 14.8817 12.5 16.9946 12.5C17.9858 12.5 18.9338 12.6725 19.8203 12.9851C20.0497 13.066 20.1644 13.1065 20.2453 13.0576C20.3262 13.0087 20.343 12.8924 20.3768 12.6597L20.449 12.162C20.5944 11.1603 20.7114 10.3544 20.742 9.68588C20.7737 8.99266 20.7169 8.38732 20.4779 7.7942C20.2387 7.20036 19.8608 6.72754 19.3585 6.25567C18.8751 5.80157 18.2357 5.31202 17.4428 4.70503L16.1509 3.71601C15.1636 2.96017 14.3703 2.35283 13.6759 1.94023C12.9559 1.51244 12.2727 1.25 11.5 1.25Z" fill="#141B34"/>
<path fill-rule="evenodd" clip-rule="evenodd" d="M12.369 15.702C13.6751 14.6395 15.2653 14 16.9946 14C18.7294 14 20.3241 14.6435 21.6326 15.7121C22.0603 16.0614 22.1239 16.6914 21.7746 17.1192C21.4252 17.5469 20.7952 17.6105 20.3675 17.2611C19.3738 16.4496 18.2165 16 16.9946 16C15.7765 16 14.6227 16.4468 13.6311 17.2535C13.2027 17.602 12.5728 17.5373 12.2243 17.1088C11.8758 16.6804 11.9405 16.0506 12.369 15.702ZM14.2978 18.144C15.0971 17.6484 16.0147 17.3607 16.9946 17.3607C17.9795 17.3607 18.9013 17.6513 19.7034 18.1515C20.1721 18.4437 20.3151 19.0605 20.0228 19.5291C19.7306 19.9978 19.1138 20.1408 18.6452 19.8485C18.1351 19.5304 17.5764 19.3607 16.9946 19.3607C16.4157 19.3607 15.8598 19.5288 15.3518 19.8437C14.8824 20.1348 14.2659 19.9902 13.9749 19.5208C13.6839 19.0514 13.8285 18.435 14.2978 18.144ZM16 22C16 21.4477 16.4477 21 17 21H17.0064C17.5587 21 18.0064 21.4477 18.0064 22C18.0064 22.5523 17.5587 23 17.0064 23H17C16.4477 23 16 22.5523 16 22Z" fill="#141B34"/>
</svg>
