<svg width="24" height="24" viewBox="0 0 24 24" fill="none" xmlns="http://www.w3.org/2000/svg">
<path fill-rule="evenodd" clip-rule="evenodd" d="M10 21C9.44772 21 9 20.5523 9 20L9 4C9 3.44772 9.44771 3 10 3C10.5523 3 11 3.44772 11 4L11 20C11 20.5523 10.5523 21 10 21Z" fill="#141B34"/>
<path fill-rule="evenodd" clip-rule="evenodd" d="M14 21C13.4477 21 13 20.5523 13 20L13 4C13 3.44772 13.4477 3 14 3C14.5523 3 15 3.44772 15 4L15 20C15 20.5523 14.5523 21 14 21Z" fill="#141B34"/>
<path fill-rule="evenodd" clip-rule="evenodd" d="M5 12C5 11.4477 5.44772 11 6 11L10 11C10.5523 11 11 11.4477 11 12C11 12.5523 10.5523 13 10 13L6 13C5.44772 13 5 12.5523 5 12Z" fill="#141B34"/>
<path d="M16.7586 9.45539C16.7336 9.22176 16.753 8.9105 16.9551 8.62955L16.9566 8.62749L16.9601 8.62269C17.1343 8.38387 17.3772 8.2984 17.5371 8.26879C17.696 8.23936 17.8463 8.24955 17.9599 8.26535C18.1903 8.29736 18.4412 8.37805 18.6777 8.47091C19.1619 8.66102 19.7435 8.96553 20.2985 9.30851C20.8538 9.65172 21.4152 10.0536 21.8498 10.4505C22.0661 10.648 22.2695 10.8611 22.4258 11.0801C22.569 11.2809 22.7391 11.5777 22.7494 11.9275C22.76 12.2863 22.601 12.5959 22.4623 12.807C22.3122 13.0354 22.113 13.2569 21.9008 13.4614C21.4742 13.8724 20.9176 14.2884 20.3653 14.6438C19.8132 14.9991 19.232 15.3152 18.7454 15.5142C18.5075 15.6115 18.2554 15.6962 18.023 15.7316C17.908 15.7491 17.7581 15.761 17.5993 15.7344C17.44 15.7077 17.2006 15.6285 17.0217 15.4011C16.7121 15.0077 16.7373 14.5302 16.7866 14.2344C16.841 13.9082 16.9643 13.5721 17.0895 13.2815C17.2177 12.9842 17.6568 12.1205 17.7811 11.883C17.4399 11.2137 17.1077 10.5593 16.9421 10.1342C16.8575 9.91726 16.783 9.68429 16.7586 9.45539Z" fill="#141B34"/>
<path d="M7.24142 9.45539C7.26638 9.22176 7.24701 8.9105 7.0449 8.62955L7.04342 8.62749L7.03993 8.62269C6.86566 8.38387 6.62284 8.2984 6.46291 8.26879C6.30397 8.23936 6.15374 8.24955 6.04006 8.26535C5.80969 8.29736 5.55882 8.37805 5.32228 8.47091C4.83805 8.66102 4.2565 8.96553 3.70152 9.30851C3.14617 9.65172 2.58479 10.0536 2.15017 10.4505C1.93391 10.648 1.73046 10.8611 1.57424 11.0801C1.43103 11.2809 1.26094 11.5777 1.25061 11.9275C1.24002 12.2863 1.39897 12.5959 1.53767 12.807C1.68775 13.0354 1.88701 13.2569 2.09924 13.4614C2.52583 13.8724 3.08241 14.2884 3.63465 14.6438C4.18685 14.9991 4.76802 15.3152 5.25456 15.5142C5.49248 15.6115 5.7446 15.6962 5.97699 15.7316C6.09196 15.7491 6.24189 15.761 6.40067 15.7344C6.56 15.7077 6.79939 15.6285 6.97834 15.4011C7.2879 15.0077 7.26267 14.5302 7.21336 14.2344C7.15897 13.9082 7.03569 13.5721 6.91046 13.2815C6.7823 12.9842 6.34324 12.1205 6.21885 11.883C6.56005 11.2137 6.89231 10.5593 7.05792 10.1342C7.14245 9.91726 7.21698 9.68429 7.24142 9.45539Z" fill="#141B34"/>
<path fill-rule="evenodd" clip-rule="evenodd" d="M13 12C13 11.4477 13.4477 11 14 11L18 11C18.5523 11 19 11.4477 19 12C19 12.5523 18.5523 13 18 13L14 13C13.4477 13 13 12.5523 13 12Z" fill="#141B34"/>
</svg>
