<svg width="24" height="24" viewBox="0 0 24 24" fill="none" xmlns="http://www.w3.org/2000/svg">
<path d="M4.36935 5.25392L19.6307 5.25392C19.8236 5.2538 19.9944 5.2537 20.1611 5.27894C20.9262 5.39481 21.5605 5.89162 21.9747 6.55768C22.0654 6.70354 22.1992 6.97493 22.3125 7.20493C22.475 7.53409 22.6067 7.80089 22.6673 8.0305C22.8068 8.55857 22.7646 9.11006 22.5804 9.57564C22.3995 10.0329 22.0442 10.4884 21.4932 10.6747C21.3326 10.729 21.1733 10.7423 21.0509 10.7481C20.9283 10.754 20.7783 10.7539 20.6125 10.7539L3.38747 10.7539H3.38746C3.22173 10.7539 3.07169 10.754 2.9491 10.7481C2.82668 10.7423 2.66742 10.7289 2.50685 10.6747C1.95585 10.4884 1.60048 10.0329 1.41959 9.57564C1.23541 9.11006 1.19325 8.55857 1.33271 8.0305C1.39335 7.80087 1.52504 7.53411 1.68756 7.20491L1.68756 7.2049C1.80081 6.975 1.93461 6.70351 2.0253 6.55768C2.43954 5.89162 3.07377 5.39481 3.83888 5.27894C4.0056 5.2537 4.17643 5.2538 4.36935 5.25392Z" fill="#141B34"/>
<path fill-rule="evenodd" clip-rule="evenodd" d="M5 14.0039C5 13.4516 5.44772 13.0039 6 13.0039L18 13.0039C18.5523 13.0039 19 13.4516 19 14.0039C19 14.5562 18.5523 15.0039 18 15.0039L6 15.0039C5.44772 15.0039 5 14.5562 5 14.0039Z" fill="#141B34"/>
<path fill-rule="evenodd" clip-rule="evenodd" d="M3.38082 9.21873C3.81449 8.87674 4.44328 8.95107 4.78526 9.38473L6.03771 10.9729C6.93693 12.1132 7.22841 13.6133 6.81701 15.0045L6.14188 17.2875C5.98526 17.8171 5.42896 18.1195 4.89935 17.9629C4.36973 17.8063 4.06736 17.25 4.22398 16.7204L4.89911 14.4374C5.12549 13.6719 4.96647 12.8444 4.46727 12.2114L3.21482 10.6232C2.87284 10.1895 2.94716 9.56071 3.38082 9.21873Z" fill="#141B34"/>
<path fill-rule="evenodd" clip-rule="evenodd" d="M20.6192 9.21873C21.0529 9.56071 21.1272 10.1895 20.7852 10.6232L19.5328 12.2114C19.0336 12.8444 18.8746 13.6719 19.101 14.4374L19.7761 16.7204C19.9327 17.25 19.6303 17.8063 19.1007 17.9629C18.5711 18.1195 18.0148 17.8171 17.8582 17.2875L17.1831 15.0045C16.7717 13.6133 17.0631 12.1132 17.9624 10.9729L19.2148 9.38473C19.5568 8.95107 20.1856 8.87674 20.6192 9.21873Z" fill="#141B34"/>
<path fill-rule="evenodd" clip-rule="evenodd" d="M5 18.0039C4.44772 18.0039 4 18.4516 4 19.0039C4 19.5562 4.44772 20.0039 5 20.0039C5.55228 20.0039 6 19.5562 6 19.0039C6 18.4516 5.55228 18.0039 5 18.0039ZM2 19.0039C2 17.3471 3.34315 16.0039 5 16.0039C6.65685 16.0039 8 17.3471 8 19.0039C8 20.6608 6.65685 22.0039 5 22.0039C3.34315 22.0039 2 20.6608 2 19.0039Z" fill="#141B34"/>
<path fill-rule="evenodd" clip-rule="evenodd" d="M19 18.0039C18.4477 18.0039 18 18.4516 18 19.0039C18 19.5562 18.4477 20.0039 19 20.0039C19.5523 20.0039 20 19.5562 20 19.0039C20 18.4516 19.5523 18.0039 19 18.0039ZM16 19.0039C16 17.3471 17.3431 16.0039 19 16.0039C20.6569 16.0039 22 17.3471 22 19.0039C22 20.6608 20.6569 22.0039 19 22.0039C17.3431 22.0039 16 20.6608 16 19.0039Z" fill="#141B34"/>
<path fill-rule="evenodd" clip-rule="evenodd" d="M7.02258 4.01468C7.01188 4.0322 7 4.06224 7 4.10813V6.00453C7 6.55681 6.55228 7.00453 6 7.00453C5.44772 7.00453 5 6.55681 5 6.00453V4.10813C5 2.86523 6.1159 1.68999 7.50838 2.07399L9.50838 2.62552C10.4423 2.88307 11 3.76341 11 4.65966V6.00453C11 6.55681 10.5523 7.00453 10 7.00453C9.44772 7.00453 9 6.55681 9 6.00453V4.65966C9 4.61158 8.98501 4.57696 8.97199 4.55857C8.96938 4.55488 8.9672 4.55226 8.96557 4.55048L7.02258 4.01468Z" fill="#141B34"/>
</svg>
