<svg width="24" height="24" viewBox="0 0 24 24" fill="none" xmlns="http://www.w3.org/2000/svg">
<path fill-rule="evenodd" clip-rule="evenodd" d="M12 1.25C6.92757 1.25 2.75 5.16832 2.75 10.0807C2.75 12.893 3.94277 15.0764 6.20712 16.965C7.64344 18.1629 9.40869 20.18 10.4598 21.8028C10.7996 22.3274 11.3185 22.75 11.9859 22.75C12.6456 22.75 13.1704 22.3361 13.5267 21.8228C14.6504 20.2044 16.3659 18.1551 17.7929 16.965C20.0572 15.0764 21.25 12.893 21.25 10.0807C21.25 5.16832 17.0724 1.25 12 1.25ZM11 7C11 6.44772 10.5523 6 10 6C9.44771 6 9 6.44772 9 7L9 13C9 13.5523 9.44771 14 10 14C10.5523 14 11 13.5523 11 13V11H13V13C13 13.5523 13.4477 14 14 14C14.5523 14 15 13.5523 15 13L15 7C15 6.44772 14.5523 6 14 6C13.4477 6 13 6.44772 13 7L13 9H11L11 7Z" fill="#141B34"/>
</svg>
