<svg width="24" height="24" viewBox="0 0 24 24" fill="none" xmlns="http://www.w3.org/2000/svg">
<path fill-rule="evenodd" clip-rule="evenodd" d="M6.1875 2.25V5.11364C6.1875 8.27672 8.78984 10.8409 12 10.8409C15.2102 10.8409 17.8125 8.27672 17.8125 5.11364V2.25H19.75V5.11364C19.75 9.33108 16.2802 12.75 12 12.75C7.71979 12.75 4.25 9.33108 4.25 5.11364V2.25H6.1875Z" fill="#141B34"/>
<path d="M4.25 21.75H19.75V18.8864C19.75 14.6689 16.2802 11.25 12 11.25C7.71979 11.25 4.25 14.6689 4.25 18.8864V21.75Z" fill="#141B34"/>
<path fill-rule="evenodd" clip-rule="evenodd" d="M3 2C3 1.44772 3.44772 1 4 1H20C20.5523 1 21 1.44772 21 2C21 2.55228 20.5523 3 20 3H4C3.44772 3 3 2.55228 3 2ZM3 22C3 21.4477 3.44772 21 4 21H20C20.5523 21 21 21.4477 21 22C21 22.5523 20.5523 23 20 23H4C3.44772 23 3 22.5523 3 22Z" fill="#141B34"/>
</svg>
