<svg width="24" height="24" viewBox="0 0 24 24" fill="none" xmlns="http://www.w3.org/2000/svg">
<path fill-rule="evenodd" clip-rule="evenodd" d="M3.34388 12.8094C3.82364 12.6313 4.36015 12.8674 4.5422 13.3368C4.87694 14.1998 4.9802 14.9178 5.00233 15.5267C5.00943 15.7221 5.01298 15.8198 5.07103 15.8758C5.12909 15.9319 5.22333 15.9319 5.4118 15.9321C5.77512 15.9323 6.13844 15.9327 6.50176 15.9323C6.61663 15.9322 6.67407 15.9321 6.71875 15.9078C6.7483 15.8916 6.77379 15.8678 6.79182 15.8394C6.81909 15.7964 6.82294 15.7393 6.83062 15.6251C6.86902 15.0545 7.05888 14.1555 7.88969 13.6435C8.32387 13.3759 8.89756 13.5034 9.17105 13.9282C9.44455 14.353 9.31428 14.9143 8.8801 15.1818C8.70683 15.2886 8.69415 15.6062 8.68244 15.7805C8.66416 16.0527 8.64647 16.3161 8.61279 16.5249C8.58368 16.7053 8.51296 17.0928 8.19752 17.3818C7.90659 17.6483 7.55979 17.7075 7.35656 17.7292C7.16157 17.7501 6.92655 17.75 6.70605 17.75C6.11369 17.7498 5.53077 17.7496 4.94321 17.75C4.76366 17.7501 4.54451 17.7503 4.35468 17.7242C4.11967 17.692 3.80764 17.6064 3.5429 17.3437C3.27533 17.0782 3.19409 16.7675 3.16529 16.5388C3.14013 16.3391 3.14557 16.106 3.14827 15.9197C3.15601 15.3846 3.11406 14.7791 2.80483 13.9818C2.62278 13.5124 2.86412 12.9875 3.34388 12.8094Z" fill="#141B34"/>
<path d="M19.259 16.4338C19.6905 16.1297 20.3031 16.2114 20.6273 16.6161L21.259 17.4049C21.7334 17.9972 22.1539 18.5221 22.4109 18.965C22.6725 19.4157 22.9334 20.064 22.574 20.7371C22.215 21.4096 21.5059 21.6026 20.9646 21.677C20.4322 21.7501 19.7317 21.7501 18.9409 21.75L2.22723 21.75C1.68752 21.75 1.25 21.3396 1.25 20.8333C1.25 20.3271 1.68752 19.9167 2.22723 19.9167H5.15892V17.1667C5.15892 16.6605 5.59644 16.2501 6.13615 16.2501C6.67586 16.2501 7.11338 16.6605 7.11338 17.1667V19.9167H13.954V17.1667C13.954 16.6605 14.3915 16.2501 14.9312 16.2501C15.4709 16.2501 15.9085 16.6605 15.9085 17.1667V19.9167H20.168C20.4141 19.9167 20.555 19.6373 20.4077 19.4401C20.1643 19.1145 19.8505 18.6985 19.6519 18.4506L19.0646 17.7173C18.7405 17.3125 18.8275 16.7379 19.259 16.4338Z" fill="#141B34"/>
<path d="M12.6527 6.01201C12.8964 5.91215 13.0183 5.86222 13.0682 5.75814C13.1181 5.65406 13.0799 5.52465 13.0034 5.26582C12.7331 4.35134 12.5727 3.53714 12.52 3.02789C12.4761 2.60313 12.3158 2.44131 11.9082 2.36716C11.0677 2.21421 9.71423 2.16833 8.28055 2.49616C6.84046 2.82545 5.26959 3.54432 4.07653 4.96589C3.93332 5.13654 3.87338 5.36202 3.91295 5.58126C3.96318 5.85956 3.94469 6.24902 3.84598 6.67939C3.74851 7.10436 3.58509 7.5153 3.39418 7.82866C2.78287 8.83204 1.60792 10.9595 2.68675 13.5033C2.72483 13.5931 2.75997 13.6806 2.79238 13.7661C2.90292 14.0574 3.18204 14.25 3.4936 14.25L6.12636 14.25C6.85043 14.25 7.05111 14.261 7.21582 14.3168C7.37795 14.3718 7.53979 14.4821 8.10392 14.9208L10.0065 16.4006C10.7213 16.957 11.2177 17.3434 11.8112 17.547C12.4046 17.7506 13.0337 17.7504 13.9395 17.75L18.8242 17.75C19.7959 17.75 20.5732 17.3909 21.085 16.7278C21.5727 16.0958 21.7488 15.2791 21.7488 14.4736C21.7488 13.726 21.2542 13.1926 20.7861 12.8333C20.3025 12.4621 19.6644 12.1368 19.033 11.8361C18.8178 11.7336 18.6018 11.6329 18.3874 11.533C17.2681 11.0113 16.1887 10.5082 15.4562 9.85824C15.405 9.81276 15.3542 9.76522 15.304 9.71573C15.0644 9.47967 14.9445 9.36164 14.8209 9.36211C14.6973 9.36257 14.5893 9.47061 14.3732 9.6867L13.5296 10.5304C13.2367 10.8232 12.7618 10.8232 12.4689 10.5304C12.176 10.2375 12.176 9.76259 12.4689 9.4697L13.804 8.13458C13.8803 8.05831 13.9184 8.02017 13.94 7.97749C13.968 7.92223 13.978 7.86379 13.9698 7.80238C13.9635 7.75494 13.9397 7.70532 13.8919 7.60607C13.8278 7.47277 13.7957 7.40612 13.752 7.36665C13.6955 7.31557 13.6267 7.28912 13.5505 7.28923C13.4916 7.28931 13.4266 7.31596 13.2965 7.36927L11.2836 8.19403C10.9003 8.35108 10.4623 8.16767 10.3052 7.78439C10.1482 7.4011 10.3316 6.96307 10.7149 6.80602L12.6527 6.01201Z" fill="#141B34"/>
</svg>
