<svg width="24" height="24" viewBox="0 0 24 24" fill="none" xmlns="http://www.w3.org/2000/svg">
<path fill-rule="evenodd" clip-rule="evenodd" d="M15.2975 16.0039H15.2974H15.2973H8.70099H8.70091H8.70083C8.59097 16.0039 8.47711 16.0039 8.38011 16.0099C8.27651 16.0163 8.12848 16.032 7.97269 16.0952C7.49843 16.2878 7.20125 16.7416 7.17886 17.2308C7.17154 17.3908 7.20121 17.5311 7.22718 17.6322C7.25169 17.7276 7.2869 17.8382 7.32204 17.9486L7.32204 17.9486L7.32204 17.9486C7.44422 18.3335 7.57107 18.7331 7.73075 18.9966C7.97324 19.3967 8.31935 19.7194 8.72961 19.9277L8.81818 20.3719C8.90919 20.8314 8.99149 21.2469 9.18893 21.5958C9.49156 22.1305 9.98794 22.5433 10.5904 22.7423C10.9856 22.8728 11.5348 22.872 11.9977 22.8712C12.4607 22.872 13.0099 22.8728 13.405 22.7423C14.0075 22.5433 14.5039 22.1305 14.8065 21.5958C15.004 21.2469 15.0863 20.8314 15.1773 20.3719L15.1773 20.3719L15.2655 19.9293C15.6772 19.7211 16.0244 19.3977 16.2676 18.9966C16.4272 18.7331 16.5541 18.3335 16.6763 17.9486C16.7114 17.8382 16.7466 17.7276 16.7711 17.6322C16.7971 17.5311 16.8268 17.3908 16.8194 17.2308C16.7971 16.7416 16.4999 16.2878 16.0256 16.0952C15.8698 16.032 15.7218 16.0163 15.6182 16.0099C15.5212 16.0039 15.4073 16.0039 15.2975 16.0039ZM13.3201 20.1881H10.6753C10.7593 20.594 10.7885 20.6837 10.8225 20.7439C10.9103 20.8989 11.0464 21.0057 11.1954 21.0549C11.2554 21.0747 11.3516 21.0866 11.9977 21.0866C12.6438 21.0866 12.7401 21.0747 12.8 21.0549C12.9491 21.0057 13.0852 20.8989 13.1729 20.7439C13.207 20.6837 13.2362 20.594 13.3201 20.1881Z" fill="#141B34"/>
<path fill-rule="evenodd" clip-rule="evenodd" d="M12 6.625C8.9916 6.625 6.5 9.14999 6.5 12.3309C6.5 13.186 6.68072 13.994 7.00304 14.7185C7.22753 15.2231 7.00045 15.8142 6.49585 16.0387C5.99124 16.2632 5.4002 16.0361 5.17571 15.5315C4.74122 14.5548 4.5 13.4701 4.5 12.3309C4.5 8.10466 7.8287 4.625 12 4.625C16.1713 4.625 19.5 8.10466 19.5 12.3309C19.5 13.4701 19.2588 14.5548 18.8243 15.5315C18.5998 16.0361 18.0088 16.2632 17.5042 16.0387C16.9996 15.8142 16.7725 15.2231 16.997 14.7185C17.3193 13.994 17.5 13.186 17.5 12.3309C17.5 9.14999 15.0084 6.625 12 6.625Z" fill="#141B34"/>
<path fill-rule="evenodd" clip-rule="evenodd" d="M12 1.125C12.5523 1.125 13 1.57272 13 2.125V3.125C13 3.67728 12.5523 4.125 12 4.125C11.4477 4.125 11 3.67728 11 3.125V2.125C11 1.57272 11.4477 1.125 12 1.125ZM19.7774 4.34685C20.1679 4.73737 20.1679 5.37054 19.7774 5.76106L19.0703 6.46817C18.6798 6.85869 18.0466 6.85869 17.6561 6.46817C17.2656 6.07764 17.2656 5.44448 17.6561 5.05395L18.3632 4.34685C18.7537 3.95632 19.3869 3.95632 19.7774 4.34685ZM4.22251 4.34726C4.61303 3.95674 5.24619 3.95674 5.63672 4.34726L6.34383 5.05437C6.73435 5.44489 6.73435 6.07806 6.34383 6.46858C5.9533 6.85911 5.32014 6.85911 4.92961 6.46858L4.22251 5.76147C3.83198 5.37095 3.83198 4.73779 4.22251 4.34726ZM1 12.125C1 11.5727 1.44772 11.125 2 11.125H3C3.55228 11.125 4 11.5727 4 12.125C4 12.6773 3.55228 13.125 3 13.125H2C1.44772 13.125 1 12.6773 1 12.125ZM20 12.125C20 11.5727 20.4477 11.125 21 11.125H22C22.5523 11.125 23 11.5727 23 12.125C23 12.6773 22.5523 13.125 22 13.125H21C20.4477 13.125 20 12.6773 20 12.125Z" fill="#141B34"/>
</svg>
