<svg width="24" height="24" viewBox="0 0 24 24" fill="none" xmlns="http://www.w3.org/2000/svg">
<path fill-rule="evenodd" clip-rule="evenodd" d="M15.7071 1.29289C15.3166 0.902369 14.6834 0.902369 14.2929 1.29289C13.9024 1.68342 13.9024 2.31658 14.2929 2.70711L17.0858 5.5L14.2929 8.29289C13.9024 8.68342 13.9024 9.31658 14.2929 9.70711C14.6834 10.0976 15.3166 10.0976 15.7071 9.70711L18.5 6.91421L21.2929 9.70711C21.6834 10.0976 22.3166 10.0976 22.7071 9.70711C23.0976 9.31658 23.0976 8.68342 22.7071 8.29289L19.9142 5.5L22.7071 2.70711C23.0976 2.31658 23.0976 1.68342 22.7071 1.29289C22.3166 0.902369 21.6834 0.902369 21.2929 1.29289L18.5 4.08579L15.7071 1.29289ZM12.5742 2.06252C12.655 2.12472 12.6964 2.2806 12.7791 2.59236C12.8797 2.97115 13.0785 3.32927 13.3756 3.62635L14.825 5.07574C15.025 5.27574 15.125 5.37574 15.125 5.5C15.125 5.62426 15.025 5.72426 14.825 5.92426L13.3756 7.37365C12.4774 8.27186 12.4774 9.72814 13.3756 10.6263C14.2738 11.5246 15.7301 11.5246 16.6283 10.6263L18.0777 9.17696C18.2777 8.97696 18.3777 8.87696 18.502 8.87696C18.6262 8.87696 18.7262 8.97696 18.9262 9.17695L20.3756 10.6263C20.6723 10.9231 21.0299 11.1217 21.4082 11.2224C21.7197 11.3053 21.8754 11.3468 21.9375 11.4276C21.9997 11.5084 21.9998 11.6381 21.9999 11.8975L22 12.4256V12.5744C22 14.7504 22 16.4852 21.8172 17.8453C21.6284 19.2497 21.2283 20.4035 20.3159 21.3159C19.4035 22.2283 18.2497 22.6284 16.8453 22.8172C15.4852 23 13.7504 23 11.5744 23H11.4256C9.24959 23 7.51486 23 6.15472 22.8172C4.75034 22.6284 3.59653 22.2283 2.68414 21.3159C1.77175 20.4035 1.37164 19.2497 1.18283 17.8453C0.999963 16.4852 0.99998 14.7504 1 12.5745V12.5745V12.4255V12.4255C0.99998 10.2495 0.999963 8.51483 1.18283 7.15471C1.37164 5.75033 1.77175 4.59653 2.68414 3.68414C3.59653 2.77175 4.75034 2.37164 6.15472 2.18283C7.51484 1.99996 9.24961 1.99998 11.4256 2H11.5745L12.104 2.0001C12.3636 2.00025 12.4934 2.00032 12.5742 2.06252ZM6.17857 20.7992C6.25713 20.8118 6.33818 20.8237 6.42183 20.835C7.6332 20.9979 9.23319 21 11.5006 21C13.7681 21 15.3681 20.9979 16.5794 20.835C17.762 20.676 18.4234 20.3805 18.9023 19.9016C19.3811 19.4228 19.6766 18.7614 19.8356 17.5788C19.9333 16.8527 19.9731 15.9869 19.9894 14.9215C18.5653 14.0835 17.2834 13.7497 16.117 13.75C14.7868 13.7503 13.5359 14.1854 12.3246 14.9232C10.1778 16.2309 8.27866 18.4003 6.40512 20.5405L6.17857 20.7992Z" fill="#141B34"/>
</svg>
