<svg width="24" height="24" viewBox="0 0 24 24" fill="none" xmlns="http://www.w3.org/2000/svg">
<path fill-rule="evenodd" clip-rule="evenodd" d="M15.7071 1.29289C15.3166 0.902369 14.6834 0.902369 14.2929 1.29289C13.9024 1.68342 13.9024 2.31658 14.2929 2.70711L17.0858 5.5L14.2929 8.29289C13.9024 8.68342 13.9024 9.31658 14.2929 9.70711C14.6834 10.0976 15.3166 10.0976 15.7071 9.70711L18.5 6.91421L21.2929 9.70711C21.6834 10.0976 22.3166 10.0976 22.7071 9.70711C23.0976 9.31658 23.0976 8.68342 22.7071 8.29289L19.9142 5.5L22.7071 2.70711C23.0976 2.31658 23.0976 1.68342 22.7071 1.29289C22.3166 0.902369 21.6834 0.902369 21.2929 1.29289L18.5 4.08579L15.7071 1.29289ZM12.7194 2.2992C12.698 2.13529 12.5663 2.00064 12.401 2.00039C12.1332 2 11.8582 2 11.5757 2H11.5755H11.5745H11.4256H11.4255C9.24959 1.99998 7.51484 1.99996 6.15472 2.18283C4.75034 2.37164 3.59653 2.77175 2.68414 3.68414C1.77175 4.59653 1.37164 5.75033 1.18283 7.15471C0.999963 8.51483 0.99998 10.2495 1 12.4255V12.4255V12.4255V12.5745V12.5745V12.5745C0.99998 14.7504 0.999963 16.4852 1.18283 17.8453C1.37164 19.2497 1.77175 20.4035 2.68414 21.3159C3.59653 22.2283 4.75034 22.6284 6.15472 22.8172C7.51486 23 9.24959 23 11.4256 23H11.5744C13.7504 23 15.4852 23 16.8453 22.8172C18.2497 22.6284 19.4035 22.2283 20.3159 21.3159C21.2283 20.4035 21.6284 19.2497 21.8172 17.8453C22 16.4852 22 14.7504 22 12.5744V12.4256C22 12.1426 22 11.8672 21.9996 11.599C21.9994 11.4337 21.8647 11.302 21.7008 11.2806C21.2155 11.2173 20.7465 10.9992 20.3737 10.6263L18.7121 8.96482C18.595 8.84767 18.405 8.84767 18.2879 8.96482L16.6263 10.6263C15.7281 11.5246 14.2719 11.5246 13.3737 10.6263C12.4755 9.72814 12.4755 8.27186 13.3737 7.37366L15.0352 5.71213C15.1523 5.59498 15.1523 5.40503 15.0352 5.28787L13.3737 3.62635C13.0008 3.25351 12.7827 2.78452 12.7194 2.2992ZM19.8388 17.5367C19.19 17.3447 18.5334 17.2494 17.8817 17.2501C16.6165 17.2451 15.3415 17.5978 14.1006 18.3175C14.7701 19.115 15.3184 19.9898 15.7282 20.9201C16.0315 20.8983 16.3135 20.8705 16.577 20.835C17.7597 20.676 18.4211 20.3805 18.8999 19.9017C19.3788 19.4228 19.6743 18.7614 19.8333 17.5788L19.8388 17.5367ZM3.16324 17.5788C3.07618 16.9312 3.03505 16.1726 3.01563 15.2603C3.18125 15.2548 3.3635 15.2521 3.52937 15.2525C6.23479 15.1994 8.86262 15.9832 10.9439 17.4476C12.3158 18.4128 13.3871 19.6287 14.0961 20.9858C13.3407 20.9996 12.4823 21 11.4983 21C9.23081 21 7.63083 20.9979 6.41946 20.835C5.23686 20.676 4.57546 20.3805 4.09661 19.9017C3.61775 19.4228 3.32224 18.7614 3.16324 17.5788Z" fill="#141B34"/>
</svg>
