<svg width="24" height="24" viewBox="0 0 24 24" fill="none" xmlns="http://www.w3.org/2000/svg">
<path fill-rule="evenodd" clip-rule="evenodd" d="M11.5745 1.5H11.4256H11.4255H11.4255C9.24958 1.49998 7.51484 1.49996 6.15471 1.68283C4.75033 1.87164 3.59653 2.27175 2.68414 3.18414C1.77175 4.09653 1.37164 5.25033 1.18283 6.65471C0.999962 8.01484 0.999979 9.74956 1 11.9255V11.9255V11.9255V12.0745V12.0745V12.0745C0.999979 14.2504 0.999962 15.9852 1.18283 17.3453C1.37164 18.7497 1.77175 19.9035 2.68414 20.8159C3.59653 21.7283 4.75033 22.1284 6.15471 22.3172C7.51486 22.5 9.24959 22.5 11.4256 22.5H11.5744C13.7504 22.5 15.4852 22.5 16.8453 22.3172C18.2497 22.1284 19.4035 21.7283 20.3159 20.8159C21.2283 19.9035 21.6284 18.7497 21.8172 17.3453C22 15.9852 22 14.2504 22 12.0744V11.9256C22 10.4473 22 9.17269 21.9427 8.08082C21.9344 7.92278 21.8032 7.8 21.645 7.8H14C12.7297 7.8 11.7 6.77026 11.7 5.5C11.7 4.22975 12.7297 3.2 14 3.2H19.6074C19.8747 3.2 19.9978 2.88707 19.7815 2.73009C18.9644 2.13715 17.9817 1.83561 16.8453 1.68283C15.4852 1.49996 13.7504 1.49998 11.5745 1.5H11.5745H11.5745ZM19.8408 17.0367C19.192 16.8447 18.5353 16.7494 17.8837 16.7501C16.6185 16.7451 15.3435 17.0978 14.1026 17.8175C14.7721 18.615 15.3204 19.4898 15.7302 20.4201C16.0334 20.3983 16.3154 20.3705 16.579 20.335C17.7616 20.176 18.423 19.8805 18.9019 19.4017C19.3807 18.9228 19.6762 18.2614 19.8352 17.0788L19.8408 17.0367ZM3.1652 17.0788C3.07813 16.4312 3.037 15.6726 3.01758 14.7603C3.1832 14.7548 3.349 14.7523 3.51487 14.7527L3.53132 14.7525C6.23674 14.6994 8.86457 15.4832 10.9459 16.9476C12.3178 17.9128 13.3891 19.1287 14.0981 20.4858C13.3427 20.4996 12.4843 20.5 11.5002 20.5C9.23277 20.5 7.63278 20.4979 6.42141 20.335C5.23881 20.176 4.57741 19.8805 4.09856 19.4017C3.61971 18.9228 3.32419 18.2614 3.1652 17.0788ZM14 4.5C13.4477 4.5 13 4.94772 13 5.5C13 6.05229 13.4477 6.5 14 6.5H22C22.5523 6.5 23 6.05229 23 5.5C23 4.94772 22.5523 4.5 22 4.5H14Z" fill="#141B34"/>
</svg>
