<svg width="24" height="24" viewBox="0 0 24 24" fill="none" xmlns="http://www.w3.org/2000/svg">
<path fill-rule="evenodd" clip-rule="evenodd" d="M1.75011 20C1.75011 19.3096 2.30975 18.75 3.00011 18.75H21.0001C21.6905 18.75 22.2501 19.3096 22.2501 20C22.2501 20.6904 21.6905 21.25 21.0001 21.25H3.00011C2.30975 21.25 1.75011 20.6904 1.75011 20Z" fill="#141B34"/>
<path fill-rule="evenodd" clip-rule="evenodd" d="M18.3058 3.25578C18.7169 3.81042 18.6005 4.59327 18.0459 5.00433L6.35013 13.6726C5.76132 14.1089 5.30232 14.4504 4.95121 14.7303C5.42843 14.749 6.04258 14.7501 6.83793 14.7501H21.0001C21.6905 14.7501 22.2501 15.3097 22.2501 16.0001C22.2501 16.6904 21.6905 17.2501 21.0001 17.2501L6.74895 17.2501C5.63463 17.2501 4.67756 17.2502 3.97486 17.1619C3.6118 17.1163 3.20865 17.0361 2.84564 16.8596C2.44914 16.6668 2.05815 16.3354 1.86254 15.8064C1.66403 15.2696 1.74982 14.7533 1.94983 14.338C2.12871 13.9666 2.4053 13.6566 2.66277 13.4071C3.16099 12.9242 3.91641 12.3644 4.78666 11.7195C4.81152 11.7011 4.83649 11.6826 4.86154 11.664L16.5573 2.99583C17.1119 2.58476 17.8948 2.70115 18.3058 3.25578Z" fill="#141B34"/>
</svg>
