<svg width="24" height="24" viewBox="0 0 24 24" fill="none" xmlns="http://www.w3.org/2000/svg">
<path fill-rule="evenodd" clip-rule="evenodd" d="M17.312 1.93059C15.9686 1.74998 14.2479 1.74999 12.0572 1.75H11.9428C9.75212 1.74999 8.03144 1.74998 6.68802 1.93059C5.31137 2.11568 4.21911 2.50272 3.36091 3.36091C2.50272 4.21911 2.11568 5.31137 1.93059 6.68802C1.74998 8.03144 1.74999 9.75212 1.75 11.9428V12.0572C1.74999 14.2479 1.74998 15.9686 1.93059 17.312C2.11568 18.6886 2.50272 19.7809 3.36091 20.6391C4.21911 21.4973 5.31137 21.8843 6.68802 22.0694C8.03144 22.25 9.7521 22.25 11.9428 22.25H11.9428H12.0572H12.0572C14.2479 22.25 15.9686 22.25 17.312 22.0694C18.6886 21.8843 19.7809 21.4973 20.6391 20.6391C21.4973 19.7809 21.8843 18.6886 22.0694 17.312C22.25 15.9686 22.25 14.2479 22.25 12.0572V12.0572V11.9428V11.9428C22.25 9.7521 22.25 8.03144 22.0694 6.68802C21.8843 5.31137 21.4973 4.21911 20.6391 3.36091C19.7809 2.50272 18.6886 2.11568 17.312 1.93059ZM7 12C7 11.203 7.56345 10.5 8.7 10.5C8.86652 10.5 9.09875 10.5656 9.39662 10.746C9.68924 10.9232 9.98532 11.175 10.2602 11.4531C10.4461 11.6411 10.6124 11.831 10.7509 12C10.6124 12.169 10.4461 12.3589 10.2602 12.5469C9.98532 12.825 9.68924 13.0768 9.39662 13.254C9.09875 13.4344 8.86652 13.5 8.7 13.5C7.56345 13.5 7 12.797 7 12ZM13.7398 12.5469C13.5539 12.3589 13.3876 12.169 13.2491 12C13.3876 11.831 13.5539 11.6411 13.7398 11.4531C14.0147 11.175 14.3108 10.9232 14.6034 10.746C14.9012 10.5656 15.1335 10.5 15.3 10.5C16.4366 10.5 17 11.203 17 12C17 12.797 16.4366 13.5 15.3 13.5C15.1335 13.5 14.9012 13.4344 14.6034 13.254C14.3108 13.0768 14.0147 12.825 13.7398 12.5469ZM11.6825 13.9531C11.7951 13.8391 11.9013 13.7255 12 13.6153C12.0987 13.7255 12.2049 13.8391 12.3175 13.9531C12.6606 14.3 13.0859 14.6732 13.5674 14.9648C14.0436 15.2531 14.6381 15.5 15.3 15.5C17.4772 15.5 19 13.9644 19 12C19 10.0356 17.4772 8.5 15.3 8.5C14.6381 8.5 14.0436 8.74686 13.5674 9.03524C13.0859 9.32679 12.6606 9.69997 12.3175 10.0469C12.2049 10.1609 12.0987 10.2745 12 10.3847C11.9013 10.2745 11.7951 10.1609 11.6825 10.0469C11.3394 9.69997 10.9141 9.32679 10.4326 9.03524C9.95639 8.74686 9.3619 8.5 8.7 8.5C6.52284 8.5 5 10.0356 5 12C5 13.9644 6.52284 15.5 8.7 15.5C9.3619 15.5 9.95639 15.2531 10.4326 14.9648C10.9141 14.6732 11.3394 14.3 11.6825 13.9531Z" fill="#141B34"/>
</svg>
