<svg width="24" height="24" viewBox="0 0 24 24" fill="none" xmlns="http://www.w3.org/2000/svg">
<path fill-rule="evenodd" clip-rule="evenodd" d="M2.25 3C2.25 2.44772 2.69771 2 3.25 2H19.25C19.8023 2 20.25 2.44772 20.25 3C20.25 3.55228 19.8023 4 19.25 4H3.25C2.69771 4 2.25 3.55228 2.25 3Z" fill="#141B34"/>
<path fill-rule="evenodd" clip-rule="evenodd" d="M2.25 21C2.25 20.4477 2.69771 20 3.25 20H12.25C12.8023 20 13.25 20.4477 13.25 21C13.25 21.5523 12.8023 22 12.25 22H3.25C2.69771 22 2.25 21.5523 2.25 21Z" fill="#141B34"/>
<path d="M16.0537 6.25C17.1865 6.24998 18.1123 6.24996 18.8431 6.34822C19.6071 6.45093 20.2694 6.67321 20.7981 7.2019C21.3268 7.7306 21.5491 8.39294 21.6518 9.15689C21.75 9.88774 21.75 10.8135 21.75 11.9463V11.9463V12.0537V12.0537C21.75 13.1865 21.75 14.1123 21.6518 14.8431C21.5491 15.6071 21.3268 16.2694 20.7981 16.7981C20.2694 17.3268 19.6071 17.5491 18.8431 17.6518C18.1123 17.75 17.1865 17.75 16.0537 17.75H7.94631C6.81348 17.75 5.88775 17.75 5.15689 17.6518C4.39293 17.5491 3.7306 17.3268 3.2019 16.7981C2.67321 16.2694 2.45093 15.6071 2.34822 14.8431C2.24996 14.1123 2.24998 13.1865 2.25 12.0537V12.0537V11.9463V11.9463C2.24998 10.8135 2.24996 9.88774 2.34822 9.15689C2.45093 8.39294 2.67321 7.7306 3.2019 7.2019C3.7306 6.67321 4.39293 6.45093 5.15689 6.34822C5.88774 6.24996 6.81346 6.24998 7.94628 6.25H7.94631H16.0537H16.0537Z" fill="#141B34"/>
</svg>
