<svg width="24" height="24" viewBox="0 0 24 24" fill="none" xmlns="http://www.w3.org/2000/svg">
<path fill-rule="evenodd" clip-rule="evenodd" d="M12.2168 12.25C12.7691 12.25 13.2168 12.6977 13.2168 13.25V16.25H16.2168C16.7691 16.25 17.2168 16.6977 17.2168 17.25C17.2168 17.8023 16.7691 18.25 16.2168 18.25H13.2168V21.25C13.2168 21.8023 12.7691 22.25 12.2168 22.25C11.6645 22.25 11.2168 21.8023 11.2168 21.25V18.25H8.2168C7.66451 18.25 7.2168 17.8023 7.2168 17.25C7.2168 16.6977 7.66451 16.25 8.2168 16.25H11.2168V13.25C11.2168 12.6977 11.6645 12.25 12.2168 12.25Z" fill="#141B34"/>
<path fill-rule="evenodd" clip-rule="evenodd" d="M1.75 11.9428C1.75 11.1521 1.74999 10.4226 1.75848 9.75H22.2405C22.25 10.4642 22.25 11.2357 22.25 12.0571V12.0572V12.0572C22.25 14.2479 22.25 15.9686 22.0694 17.312C21.8843 18.6886 21.4973 19.7809 20.6391 20.6391C19.7809 21.4973 18.6886 21.8843 17.312 22.0694C16.5351 22.1738 15.5939 22.2179 14.5146 22.2365C14.6447 21.9338 14.7168 21.6003 14.7168 21.25V19.75H16.2168C17.5975 19.75 18.7168 18.6307 18.7168 17.25C18.7168 15.8693 17.5975 14.75 16.2168 14.75H14.7168V13.25C14.7168 11.8693 13.5975 10.75 12.2168 10.75C10.8361 10.75 9.7168 11.8693 9.7168 13.25V14.75H8.2168C6.83608 14.75 5.7168 15.8693 5.7168 17.25C5.7168 18.6307 6.83608 19.75 8.2168 19.75H9.7168V21.25C9.7168 21.603 9.78998 21.939 9.92199 22.2435C8.65628 22.2303 7.58757 22.1903 6.68802 22.0694C5.31137 21.8843 4.21911 21.4973 3.36091 20.6391C2.50271 19.7809 2.11568 18.6886 1.93059 17.312C1.74998 15.9686 1.74999 14.1336 1.75 11.9429V11.9428V11.9428ZM22.0694 6.68802C22.1318 7.15193 22.1726 7.67445 22.1993 8.25L16.25 8.25V1.8285C16.6316 1.85363 16.9862 1.8868 17.312 1.93059C18.6886 2.11568 19.7809 2.50272 20.6391 3.36091C21.4973 4.21911 21.8843 5.31137 22.0694 6.68802ZM11.9428 1.75C12.9597 1.74999 13.9 1.74999 14.75 1.76805L14.75 8.25L9.25 8.25V1.7667C10.0572 1.74999 10.9519 1.74999 11.9428 1.75H11.9428H11.9428H11.9428ZM7.75 8.25L7.75 1.82736C7.37223 1.85262 7.0187 1.88614 6.68802 1.93059C5.31137 2.11568 4.21911 2.50272 3.36091 3.36091C2.50272 4.21911 2.11568 5.31137 1.93059 6.68802C1.86705 7.16064 1.82587 7.67996 1.79917 8.25H7.75Z" fill="#141B34"/>
</svg>
