<svg width="24" height="24" viewBox="0 0 24 24" fill="none" xmlns="http://www.w3.org/2000/svg">
<path fill-rule="evenodd" clip-rule="evenodd" d="M9.9447 1.25H14.0553H14.0553C15.4225 1.24998 16.5252 1.24996 17.3926 1.36764C18.294 1.48992 19.0524 1.75161 19.654 2.35869C20.2547 2.96484 20.5128 3.72735 20.6336 4.63362C20.75 5.50754 20.75 6.61907 20.75 7.99979L20.75 18.7008C20.75 19.4095 20.7501 20.0198 20.6851 20.4869C20.6185 20.9658 20.4575 21.5107 19.9442 21.8414C19.1857 22.3299 18.345 21.9917 17.8729 21.7447C17.6026 21.6033 17.3485 21.4359 17.1378 21.2911C17.0415 21.2303 16.8882 21.1297 16.7285 21.0249C16.4654 20.8523 16.1851 20.6683 16.114 20.6327C16.0093 20.5753 15.933 20.6036 15.9079 20.6249C15.7948 20.678 15.6438 20.7696 15.371 20.9417L13.4333 22.1636L13.4332 22.1637L13.4331 22.1638C13.1986 22.3117 12.9764 22.4518 12.7761 22.5507C12.5524 22.6611 12.2993 22.75 12 22.75C11.7007 22.75 11.4476 22.6611 11.2239 22.5507C11.0235 22.4518 10.8013 22.3116 10.5667 22.1636L8.62906 20.9417C8.37416 20.7809 8.22825 20.6899 8.11405 20.6327C8.0012 20.5706 7.9296 20.6016 7.90791 20.6249C7.7948 20.678 7.64377 20.7696 7.37096 20.9417C7.16019 21.0865 6.39744 21.6033 6.12709 21.7447C5.65501 21.9917 4.81435 22.3299 4.05585 21.8414C3.54247 21.5107 3.38152 20.9658 3.3149 20.4869C3.24992 20.0198 3.24996 19.4095 3.25 18.7008L3.25 7.99974V7.99973C3.24998 6.61904 3.24997 5.50753 3.36641 4.63362C3.48716 3.72735 3.74526 2.96484 4.34597 2.35869C4.94761 1.75161 5.70602 1.48992 6.60736 1.36764C7.47477 1.24996 8.57748 1.24998 9.94469 1.25H9.9447ZM16 6.75C16.4142 6.75 16.75 6.41421 16.75 6C16.75 5.58579 16.4142 5.25 16 5.25H8C7.58579 5.25 7.25 5.58579 7.25 6C7.25 6.41421 7.58579 6.75 8 6.75H16ZM10.75 10C10.75 10.4142 10.4142 10.75 10 10.75H8C7.58579 10.75 7.25 10.4142 7.25 10C7.25 9.58579 7.58579 9.25 8 9.25H10C10.4142 9.25 10.75 9.58579 10.75 10ZM15.25 9C15.25 8.58579 14.9142 8.25 14.5 8.25C14.0858 8.25 13.75 8.58579 13.75 9V9.24489C12.916 9.51697 12.25 10.2324 12.25 11.1875C12.25 12.4175 13.3546 13.25 14.5 13.25C15.0114 13.25 15.25 13.5928 15.25 13.8125C15.25 14.0322 15.0114 14.375 14.5 14.375C14.1136 14.375 13.8582 14.1608 13.7808 13.9691C13.6256 13.585 13.1885 13.3995 12.8044 13.5546C12.4204 13.7097 12.2348 14.1468 12.3899 14.5309C12.6304 15.1261 13.1404 15.5603 13.75 15.7573V16C13.75 16.4142 14.0858 16.75 14.5 16.75C14.9142 16.75 15.25 16.4142 15.25 16V15.7551C16.084 15.483 16.75 14.7676 16.75 13.8125C16.75 12.5825 15.6454 11.75 14.5 11.75C13.9886 11.75 13.75 11.4072 13.75 11.1875C13.75 10.9678 13.9886 10.625 14.5 10.625C14.8864 10.625 15.1418 10.8392 15.2192 11.0309C15.3744 11.415 15.8115 11.6005 16.1956 11.4454C16.5796 11.2903 16.7652 10.8532 16.6101 10.4691C16.3696 9.87386 15.8596 9.4397 15.25 9.24272V9Z" fill="#141B34"/>
</svg>
