<svg width="24" height="24" viewBox="0 0 24 24" fill="none" xmlns="http://www.w3.org/2000/svg">
<path d="M9.1033 6.33525C9.16408 6.88418 8.76836 7.37845 8.21943 7.43923C6.80978 7.59533 5.66107 7.86619 4.89485 8.18279C4.5676 8.318 4.34843 8.44607 4.21442 8.54936C4.23495 8.56503 4.25849 8.5821 4.28543 8.60055C4.55548 8.7854 5.01177 8.99168 5.66553 9.18095C5.85822 9.23674 6.06315 9.28966 6.27928 9.33933C6.35406 9.34723 6.42729 9.36354 6.49766 9.3876C7.70082 9.64327 9.21856 9.80104 10.8872 9.80104C12.9964 9.80104 14.8638 9.54894 16.1594 9.16616C16.689 9.00967 17.2452 9.31218 17.4017 9.84183C17.5582 10.3715 17.2557 10.9277 16.726 11.0842C15.1983 11.5356 13.1305 11.801 10.8872 11.801C9.18064 11.801 7.57629 11.6474 6.23406 11.3755C5.83003 11.531 5.54527 11.6907 5.36868 11.8316C5.32062 11.87 5.28641 11.9019 5.26231 11.9271C5.31767 11.9869 5.43167 12.086 5.66052 12.2144C6.13396 12.4801 6.87745 12.7339 7.84411 12.9149C8.73411 13.0815 9.77234 13.1787 10.8872 13.1787C12.5191 13.1787 13.976 12.9705 15.0422 12.6481C15.5709 12.4883 16.129 12.7873 16.2888 13.316C16.4486 13.8446 16.1496 14.4028 15.621 14.5626C14.3283 14.9534 12.6701 15.1787 10.8872 15.1787C9.80377 15.1787 8.77061 15.0956 7.83964 14.9442C7.686 15.0427 7.58124 15.1334 7.51555 15.2078C7.47396 15.2549 7.45498 15.2869 7.44671 15.3045C7.45807 15.3292 7.48947 15.3808 7.57118 15.4591C7.73028 15.6116 8.01342 15.795 8.44553 15.9701C9.30458 16.3183 10.5602 16.5564 11.9983 16.5564C12.7331 16.5564 13.4262 16.4941 14.0461 16.3844C14.5899 16.2881 15.1089 16.6508 15.2052 17.1947C15.3015 17.7385 14.9387 18.2574 14.3949 18.3537C13.6537 18.485 12.8436 18.5564 11.9983 18.5564C10.3681 18.5564 8.84592 18.2904 7.69425 17.8237C7.12101 17.5913 6.59055 17.2895 6.1874 16.9031C5.78163 16.5143 5.44271 15.9741 5.44271 15.3046C5.44271 14.9689 5.52431 14.6677 5.66056 14.3991C5.3017 14.2687 4.97262 14.1218 4.68172 13.9585C4.01605 13.5849 3.22049 12.931 3.22049 11.9269C3.22049 11.383 3.46014 10.9407 3.76622 10.6008C3.54461 10.4933 3.3397 10.3769 3.15575 10.2509C2.67099 9.91913 2.10938 9.36146 2.10938 8.54925C2.10938 7.92054 2.45291 7.44044 2.80937 7.11864C3.16737 6.79545 3.63337 6.54002 4.1311 6.33436C5.13393 5.92 6.48522 5.61904 7.99932 5.45138C8.54825 5.3906 9.04252 5.78632 9.1033 6.33525Z" fill="#141B34"/>
<path fill-rule="evenodd" clip-rule="evenodd" d="M3.00197 19.0519C3.01434 18.9826 3.10357 18.7294 3.7403 18.3856C4.43296 18.0117 5.55323 17.6657 7.14409 17.4341C7.69061 17.3545 8.06914 16.847 7.98956 16.3004C7.90998 15.7539 7.40243 15.3754 6.85591 15.455C5.15406 15.7028 3.77433 16.0944 2.79017 16.6257C1.84168 17.1378 1 17.936 1 19.07C1 19.9703 1.61669 20.6171 2.2164 21.0326C2.84622 21.4689 3.69226 21.8216 4.64775 22.1015C6.57189 22.6653 9.17101 23.0001 12 23.0001C14.829 23.0001 17.4281 22.6653 19.3523 22.1015C20.3077 21.8216 21.1538 21.4689 21.7836 21.0326C22.3833 20.6171 23 19.9703 23 19.07C23 18.5177 22.5523 18.07 22 18.07C21.4555 18.07 21.0126 18.5053 21.0003 19.0469C20.9884 19.0748 20.925 19.1943 20.6447 19.3885C20.2625 19.6533 19.644 19.932 18.7899 20.1822C17.0947 20.6789 14.6939 21.0001 12 21.0001C9.30614 21.0001 6.90526 20.6789 5.21012 20.1822C4.35596 19.932 3.73754 19.6533 3.3553 19.3885C3.08926 19.2042 3.01861 19.0872 3.00197 19.0519Z" fill="#141B34"/>
<path fill-rule="evenodd" clip-rule="evenodd" d="M20.5304 9.96251C20.2744 9.73404 19.8112 9.54951 19.0105 9.75725C18.4759 9.89594 17.9301 9.57501 17.7914 9.04042C17.6527 8.50584 17.9736 7.96003 18.5082 7.82134C19.8151 7.48227 21.0079 7.70786 21.8622 8.47051C22.692 9.21126 23.0423 10.3169 22.9952 11.4291C22.9 13.6768 21.2223 16.1768 17.8964 17.385C17.3773 17.5736 16.8036 17.3056 16.6151 16.7865C16.4265 16.2674 16.6944 15.6938 17.2135 15.5052C19.9095 14.5258 20.9416 12.6511 20.997 11.3444C21.0251 10.6793 20.8108 10.2129 20.5304 9.96251Z" fill="#141B34"/>
<path fill-rule="evenodd" clip-rule="evenodd" d="M18.5446 1.83571C18.6353 2.38048 18.2673 2.89571 17.7225 2.98649C17.51 3.02192 17.191 3.1494 16.9774 3.37061C16.8113 3.54272 16.6467 3.82628 16.7608 4.39655C17.155 6.36754 16.664 7.75058 15.9762 8.32382C15.5519 8.67742 14.9214 8.62014 14.5678 8.19589C14.2142 7.77164 14.2714 7.14107 14.6957 6.78748C14.6791 6.80127 14.681 6.79778 14.6938 6.77428C14.7546 6.6625 15.0615 6.09811 14.7996 4.78882C14.5581 3.58132 14.9121 2.63031 15.5386 1.98143C16.1177 1.38165 16.8655 1.10173 17.3938 1.0137C17.9385 0.922912 18.4538 1.29094 18.5446 1.83571Z" fill="#141B34"/>
<path fill-rule="evenodd" clip-rule="evenodd" d="M14.0934 1.804C14.2017 2.34556 13.8505 2.87238 13.3089 2.98068C13.1354 3.01539 12.8215 3.15262 12.5918 3.43808C12.3907 3.68805 12.1859 4.13437 12.3213 4.94679C12.5121 6.09156 12.4919 6.92306 12.3237 7.55669C12.1431 8.23703 11.8138 8.60218 11.5978 8.81826C11.2073 9.20881 10.5741 9.20886 10.1836 8.81836C9.79302 8.42787 9.79297 7.7947 10.1835 7.40415L10.1872 7.40043C10.2659 7.32179 10.3352 7.25246 10.3907 7.0435C10.4594 6.78453 10.5133 6.26418 10.3485 5.27562C10.1283 3.95471 10.442 2.91955 11.0336 2.18433C11.5966 1.4846 12.3495 1.13295 12.9167 1.01951C13.4583 0.911208 13.9851 1.26243 14.0934 1.804Z" fill="#141B34"/>
</svg>
