<svg width="24" height="24" viewBox="0 0 24 24" fill="none" xmlns="http://www.w3.org/2000/svg">
<path d="M9.29455 1.32991C9.92235 1.41432 10.4891 1.59999 10.9446 2.05546C11.4001 2.51093 11.5858 3.07773 11.6702 3.70552C11.7501 4.3003 11.7501 5.04951 11.7501 5.94798V5.94801L11.7501 9C11.7501 9.96401 11.7517 10.6116 11.8166 11.0946C11.8787 11.5561 11.9859 11.7536 12.1162 11.8839C12.2465 12.0142 12.444 12.1214 12.9055 12.1835C13.3885 12.2484 14.0361 12.25 15.0001 12.25L18.0521 12.25H18.0521C18.9506 12.25 19.6998 12.2499 20.2946 12.3299C20.9223 12.4143 21.4891 12.6 21.9446 13.0555C22.4001 13.5109 22.5858 14.0777 22.6702 14.7055C22.7501 15.3003 22.7501 16.0495 22.7501 16.948V18.052C22.7501 18.9505 22.7501 19.6997 22.6702 20.2945C22.5858 20.9223 22.4001 21.4891 21.9446 21.9445C21.4891 22.4 20.9223 22.5857 20.2946 22.6701C19.6998 22.7501 18.9506 22.75 18.0521 22.75H10.6569L10.5361 22.7501C9.83748 22.7507 9.28457 22.7513 8.77612 22.5407C8.26768 22.3301 7.87709 21.9387 7.38358 21.4443L7.38357 21.4443L7.29817 21.3588L2.64132 16.7019L2.5558 16.6165C2.06135 16.123 1.67001 15.7324 1.45941 15.224C1.2488 14.7155 1.24933 14.1626 1.25 13.464L1.25008 13.3431L1.25007 5.948C1.25004 5.04952 1.25002 4.3003 1.32999 3.70552C1.41439 3.07773 1.60006 2.51093 2.05553 2.05546C2.511 1.59999 3.0778 1.41432 3.7056 1.32991C4.30037 1.24995 5.04958 1.24997 5.94804 1.25H5.94808H7.05207H7.0521C7.95057 1.24997 8.69978 1.24995 9.29455 1.32991Z" fill="#141B34"/>
</svg>
