<svg width="24" height="24" viewBox="0 0 24 24" fill="none" xmlns="http://www.w3.org/2000/svg">
<path d="M1.25015 4.99997C1.25015 3.48119 2.48137 2.24997 4.00015 2.24997C5.51894 2.24997 6.75015 3.48119 6.75015 4.99997C6.75015 6.51875 5.51894 7.74997 4.00015 7.74997C2.48137 7.74997 1.25015 6.51875 1.25015 4.99997Z" fill="#141B34"/>
<path d="M17.25 7.00005C17.25 5.48126 18.4812 4.25005 20 4.25005C21.5188 4.25005 22.75 5.48126 22.75 7.00005C22.75 8.51883 21.5188 9.75005 20 9.75005C18.4812 9.75005 17.25 8.51883 17.25 7.00005Z" fill="#141B34"/>
<path fill-rule="evenodd" clip-rule="evenodd" d="M3.02864 19.5134C3.15933 18.9768 3.70028 18.6478 4.23688 18.7785C10.0141 20.1856 13.4162 19.9607 19.8169 18.767C20.3598 18.6657 20.882 19.0238 20.9833 19.5667C21.0845 20.1096 20.7265 20.6318 20.1836 20.7331C13.6207 21.9571 9.9115 22.2191 3.76358 20.7216C3.22699 20.5909 2.89794 20.05 3.02864 19.5134Z" fill="#141B34"/>
<path d="M15.7671 6.07329C15.9192 5.9968 16.0889 6.14039 16.0596 6.30808C16.0204 6.53283 16 6.76403 16 7C16 8.09176 16.4374 9.08137 17.1465 9.80314C17.2065 9.86424 17.2231 9.95541 17.1957 10.0366C17.0894 10.3513 17.1086 10.6949 17.3104 11.0709C17.631 11.6682 17.9299 12.119 18.2043 12.5122C18.2661 12.6006 18.3287 12.689 18.3914 12.7775C18.5975 13.0683 18.8037 13.3592 18.9782 13.6526C19.4523 14.4496 19.7226 15.55 19.7499 17C19.7499 17.397 19.4415 17.7219 19.0513 17.7483C19.0404 17.749 19.0295 17.7504 19.0188 17.7526C16.2595 18.338 14.0038 18.7171 11.8337 18.7479C11.6553 18.7504 11.3598 18.749 11.1821 18.7469C9.24628 18.7136 7.3249 18.4055 5.02648 17.7743C4.75517 17.7368 4.50135 17.5859 4.34201 17.3381C3.394 15.8644 3.11347 14.5962 3.30836 13.4462C3.49505 12.3444 4.10331 11.4977 4.5516 10.8758C5.06001 10.1705 5.3128 9.80002 5.35907 9.42586C5.3903 9.17327 5.34027 8.69822 4.46807 7.83614C4.0876 7.46008 4.08526 6.84802 4.46284 6.46908C4.84042 6.09013 5.45494 6.0878 5.83542 6.46386C6.91923 7.53511 7.42063 8.57048 7.28565 9.66216C7.17411 10.5642 6.62038 11.3261 6.21669 11.8816L6.21604 11.8825C6.1859 11.9239 6.15661 11.9642 6.1284 12.0034C5.66206 12.6503 5.32495 13.1629 5.22242 13.7679C5.13891 14.2607 5.19703 14.9332 5.74005 15.9028C5.76601 15.9492 5.81022 15.983 5.86158 15.9966C7.42181 16.4101 8.7696 16.654 10.0614 16.7577C10.184 16.7675 10.285 16.6642 10.2765 16.5415C10.1492 14.6952 10.4763 12.6068 11.3552 10.7182C12.2328 8.83218 13.6711 7.12756 15.7671 6.07329Z" fill="#141B34"/>
<path d="M5.55881 5.21667C5.55881 4.68279 5.99335 4.25 6.52938 4.25C6.98097 4.25 7.48443 4.39356 7.93936 4.58403C8.41331 4.78246 8.9172 5.06657 9.38251 5.42095C10.2729 6.09902 11.2234 7.19765 11.2234 8.61103C11.2234 9.14491 10.7889 9.5777 10.2529 9.5777C9.71685 9.5777 9.28231 9.14491 9.28231 8.61103C9.28231 8.09109 8.90693 7.49253 8.20342 6.95675C7.87181 6.7042 7.5118 6.50223 7.18714 6.3663C6.84345 6.2224 6.61357 6.18333 6.52938 6.18333C5.99335 6.18333 5.55881 5.75054 5.55881 5.21667Z" fill="#141B34"/>
</svg>
