<svg width="24" height="24" viewBox="0 0 24 24" fill="none" xmlns="http://www.w3.org/2000/svg">
<path d="M10.2805 11.7793C10.0474 11.3133 9.46806 11.1183 8.98646 11.3438C8.82274 11.4205 8.6497 11.5024 8.46766 11.5886L6.93463 12.3145C6.2499 12.6387 5.65903 12.9184 5.24518 13.1752C5.0306 13.3084 4.80105 13.4724 4.6188 13.6793C4.49938 13.8149 4.38731 13.9845 4.31874 14.1861C4.27462 14.2817 4.25 14.3881 4.25 14.5002V18.2669C4.25 18.9316 4.75672 19.3565 5.13742 19.6226C5.5528 19.9129 6.15248 20.2327 6.86935 20.615L8.57833 21.5265C9.95605 22.262 10.8708 22.7502 12 22.7502C13.1292 22.7502 14.044 22.262 15.4217 21.5265L17.1306 20.615C17.8475 20.2327 18.4472 19.9129 18.8626 19.6226C19.2433 19.3565 19.75 18.9316 19.75 18.2669V14.5002C19.75 14.3881 19.7254 14.2817 19.6813 14.1861C19.6127 13.9845 19.5006 13.8149 19.3812 13.6793C19.1989 13.4724 18.9694 13.3084 18.7548 13.1752C18.341 12.9184 17.7501 12.6387 17.0654 12.3145L15.5313 11.5881C15.3497 11.5022 15.1768 11.4203 15.0135 11.3438C14.5319 11.1183 13.9526 11.3133 13.7195 11.7793C13.4865 12.2454 13.688 12.806 14.1695 13.0315C14.3292 13.1063 14.4987 13.1866 14.682 13.2734L16.4448 14.1082C16.871 14.3108 17.0842 14.4121 17.0842 14.6016C17.0842 14.7912 16.871 14.8925 16.4448 15.0951L14.682 15.9299C13.1522 16.6543 12.6393 16.8751 12 16.8751C11.3607 16.8751 10.8478 16.6543 9.31797 15.9299L7.55522 15.0951C7.12897 14.8925 6.91584 14.7912 6.91584 14.6016C6.91584 14.4121 7.12897 14.3108 7.55522 14.1082L9.31797 13.2734C9.50131 13.1866 9.67084 13.1063 9.83045 13.0315C10.312 12.806 10.5135 12.2454 10.2805 11.7793Z" fill="#141B34"/>
<path d="M7.75 5.5C7.75 3.15279 9.65279 1.25 12 1.25C14.3472 1.25 16.25 3.15279 16.25 5.5C16.25 7.84721 14.3472 9.75 12 9.75C9.65279 9.75 7.75 7.84721 7.75 5.5Z" fill="#141B34"/>
<path fill-rule="evenodd" clip-rule="evenodd" d="M12 8C12.5523 8 13 8.44772 13 9V14.5C13 15.0523 12.5523 15.5 12 15.5C11.4477 15.5 11 15.0523 11 14.5V9C11 8.44772 11.4477 8 12 8Z" fill="#141B34"/>
</svg>
