<svg width="24" height="24" viewBox="0 0 24 24" fill="none" xmlns="http://www.w3.org/2000/svg">
<path d="M6.40104 4.68773C6.81519 4.32138 7.32908 4 8 4C8.67092 4 9.18481 4.32138 9.59896 4.68773C9.98123 5.02589 10.393 5.5081 10.8532 6.04705L10.8532 6.04706L13.2406 8.84265C13.7272 9.41225 14.1515 9.90909 14.4461 10.3573C14.7642 10.8413 15 11.3675 15 12C15 12.6325 14.7642 13.1587 14.4461 13.6427C14.1515 14.0909 13.7272 14.5877 13.2407 15.1573L13.2406 15.1574L10.8532 17.9529C10.393 18.4919 9.98124 18.9741 9.59896 19.3123C9.18481 19.6786 8.67092 20 8 20C7.32908 20 6.81519 19.6786 6.40104 19.3123C6.01877 18.9741 5.60703 18.4919 5.14684 17.9529L2.75937 15.1574L2.75937 15.1574C2.27285 14.5878 1.84849 14.0909 1.55391 13.6427C1.2358 13.1587 1 12.6325 1 12C1 11.3675 1.2358 10.8413 1.55391 10.3573C1.84848 9.90909 2.27285 9.41224 2.75936 8.84264L2.75937 8.84263L5.14683 6.04707C5.60702 5.50811 6.01876 5.02589 6.40104 4.68773Z" fill="#141B34"/>
<path fill-rule="evenodd" clip-rule="evenodd" d="M12.3759 4.21864C12.8075 3.87398 13.4367 3.9444 13.7814 4.37593L17.2931 8.77276C17.3051 8.78778 17.3171 8.80275 17.329 8.81766C17.7944 9.40033 18.1991 9.90695 18.4796 10.3627C18.7825 10.8549 19 11.3784 19 12C19 12.6216 18.7825 13.1452 18.4796 13.6373C18.1991 14.0931 17.7944 14.5997 17.329 15.1824L13.7814 19.6241C13.4367 20.0556 12.8075 20.126 12.3759 19.7814C11.9444 19.4367 11.874 18.8075 12.2186 18.3759L15.7304 13.9791C16.2421 13.3385 16.5679 12.9277 16.7763 12.5891C16.9695 12.2752 17 12.1182 17 12C17 11.8818 16.9695 11.7248 16.7763 11.4109C16.5679 11.0723 16.2421 10.6615 15.7304 10.0209L12.2186 5.62408C11.874 5.19255 11.9444 4.56331 12.3759 4.21864Z" fill="#141B34"/>
<path fill-rule="evenodd" clip-rule="evenodd" d="M16.3759 4.21864C16.8075 3.87398 17.4367 3.9444 17.7814 4.37593L21.2931 8.77276C21.3051 8.78778 21.3171 8.80275 21.329 8.81766C21.7944 9.40033 22.1991 9.90695 22.4796 10.3627C22.7825 10.8549 23 11.3784 23 12C23 12.6216 22.7825 13.1452 22.4796 13.6373C22.1991 14.0931 21.7944 14.5997 21.329 15.1824L17.7814 19.6241C17.4367 20.0556 16.8075 20.126 16.3759 19.7814C15.9444 19.4367 15.874 18.8075 16.2186 18.3759L19.7304 13.9791C20.2421 13.3385 20.5679 12.9277 20.7763 12.5891C20.9695 12.2752 21 12.1182 21 12C21 11.8818 20.9695 11.7248 20.7763 11.4109C20.5679 11.0723 20.2421 10.6615 19.7304 10.0209L16.2186 5.62408C15.874 5.19255 15.9444 4.56331 16.3759 4.21864Z" fill="#141B34"/>
</svg>
