<svg width="24" height="24" viewBox="0 0 24 24" fill="none" xmlns="http://www.w3.org/2000/svg">
<path d="M7.13826 7.48175C7.50895 7.22257 7.95138 7 8.5 7C9.04862 7 9.49106 7.22256 9.86174 7.48175C10.201 7.71893 10.5742 8.05636 10.9829 8.42592L11.0243 8.4633L12.668 9.94909L12.7096 9.98669C13.0075 10.2558 13.3051 10.5246 13.519 10.7824C13.7652 11.0792 14 11.4755 14 12C14 12.5245 13.7652 12.9208 13.519 13.2176C13.3051 13.4754 13.0075 13.7442 12.7096 14.0133L12.668 14.0509L11.0243 15.5367L10.9829 15.5741C10.5742 15.9436 10.201 16.2811 9.86174 16.5183C9.49105 16.7774 9.04862 17 8.5 17C7.95138 17 7.50894 16.7774 7.13826 16.5183C6.79904 16.2811 6.42584 15.9437 6.01709 15.5741L6.01708 15.5741L5.97571 15.5367L4.33197 14.0509L4.29035 14.0133C3.9925 13.7442 3.6949 13.4754 3.48103 13.2176C3.23478 12.9208 3 12.5245 3 12C3 11.4755 3.23478 11.0792 3.48103 10.7824C3.6949 10.5246 3.9925 10.2558 4.29035 9.98669L4.29035 9.98669L4.33197 9.94909L5.97571 8.4633L6.01706 8.42592C6.42582 8.05636 6.79904 7.71893 7.13826 7.48175Z" fill="#141B34"/>
<path fill-rule="evenodd" clip-rule="evenodd" d="M20 2C20.5523 2 21 2.44772 21 3L21 21C21 21.5523 20.5523 22 20 22C19.4477 22 19 21.5523 19 21L19 13H16C15.4477 13 15 12.5523 15 12C15 11.4477 15.4477 11 16 11H19L19 3C19 2.44772 19.4477 2 20 2Z" fill="#141B34"/>
</svg>
