<svg width="24" height="24" viewBox="0 0 24 24" fill="none" xmlns="http://www.w3.org/2000/svg">
<path fill-rule="evenodd" clip-rule="evenodd" d="M14.9704 5.02627C14.9103 5.05517 14.814 5.1163 14.6658 5.24785C14.2528 5.6145 13.6208 5.57689 13.2541 5.16386C12.8875 4.75083 12.9251 4.11879 13.3381 3.75215C13.7958 3.34589 14.3459 3 15.068 3C15.7485 3 16.2772 3.30746 16.7196 3.68406C17.1241 4.02827 17.5572 4.51995 18.0423 5.07058C18.0571 5.08739 18.0719 5.10426 18.0869 5.12119L20.703 8.09035C21.3639 8.84034 21.9206 9.47217 22.304 10.0346C22.7096 10.6297 22.9998 11.2563 22.9998 12C22.9998 12.7437 22.7096 13.3703 22.304 13.9654C21.9206 14.5278 21.3639 15.1597 20.703 15.9096L18.0423 18.9294C17.5572 19.4801 17.1241 19.9717 16.7196 20.3159C16.2772 20.6925 15.7485 21 15.068 21C14.3459 21 13.7958 20.6541 13.3381 20.2479C12.9251 19.8812 12.8875 19.2492 13.2541 18.8361C13.6208 18.4231 14.2528 18.3855 14.6658 18.7521C14.814 18.8837 14.9103 18.9448 14.9704 18.9737C15.0193 18.9972 15.0446 19 15.068 19C15.0687 19 15.0695 19 15.0703 19C15.0921 19.0005 15.1775 19.0021 15.4233 18.7929C15.7046 18.5535 16.0425 18.1737 16.5863 17.5566L19.161 14.6344C19.8743 13.8249 20.3465 13.2862 20.6514 12.839C20.9419 12.4126 20.9998 12.1815 20.9998 12C20.9998 11.8185 20.9419 11.5874 20.6514 11.161C20.3465 10.7138 19.8743 10.1751 19.161 9.36558L16.5863 6.44338C16.0425 5.82626 15.7046 5.44645 15.4233 5.20708C15.1775 4.99786 15.0921 4.99954 15.0703 4.99997C15.0695 4.99998 15.0687 5 15.068 5C15.0446 5 15.0193 5.00275 14.9704 5.02627Z" fill="#141B34"/>
<path fill-rule="evenodd" clip-rule="evenodd" d="M1 12C1 11.4477 1.44772 11 2 11H9C9.55228 11 10 11.4477 10 12C10 12.5523 9.55228 13 9 13H2C1.44772 13 1 12.5523 1 12Z" fill="#141B34"/>
<path d="M7.3345 3.68584C7.77626 3.30775 8.30295 3 8.98785 3C9.66858 3 10.1993 3.30397 10.6467 3.68042C11.0554 4.0243 11.4933 4.51574 11.9842 5.06665L14.6752 8.08616C15.3437 8.83612 15.9067 9.46783 16.2944 10.0302C16.7044 10.6249 16.9992 11.253 16.9992 12C16.9992 12.747 16.7044 13.3751 16.2944 13.9698C15.9067 14.5322 15.3436 15.1639 14.6752 15.9139L11.9842 18.9334C11.4933 19.4843 11.0554 19.9757 10.6467 20.3196C10.1993 20.696 9.66858 21 8.98785 21C8.30295 21 7.77625 20.6922 7.3345 20.3142C6.95535 19.9896 6.5463 19.53 6.09007 19.0174L3.32427 15.9139C3.18198 15.7542 3.04445 15.5999 2.91239 15.4505C2.56052 15.0525 2.38459 14.8535 2.46424 14.6767C2.5439 14.5 2.8131 14.5 3.3515 14.5H8.99957C10.3803 14.5 11.4996 13.3807 11.4996 12C11.4996 10.6193 10.3803 9.5 8.99957 9.5H3.35151C2.8131 9.5 2.5439 9.5 2.46425 9.32327C2.38459 9.14655 2.56053 8.94752 2.9124 8.54946C3.04445 8.40007 3.18199 8.24576 3.32426 8.08613L6.09008 4.98263C6.54634 4.46994 6.95533 4.01037 7.3345 3.68584Z" fill="#141B34"/>
</svg>
