<svg width="24" height="24" viewBox="0 0 24 24" fill="none" xmlns="http://www.w3.org/2000/svg">
<path d="M13.189 3.24996C14.9682 3.24936 16.1193 3.24898 17.1243 3.75148C18.1293 4.25398 18.8196 5.17504 19.8866 6.59881C20.7295 7.72254 21.5428 8.80701 21.9982 9.58937C22.4686 10.3975 22.75 11.1522 22.75 12C22.75 12.8478 22.4686 13.6025 21.9982 14.4106C21.5428 15.193 20.7295 16.2775 19.8866 17.4012C18.8196 18.825 18.1293 19.746 17.1243 20.2485C16.1193 20.751 14.9682 20.7506 13.189 20.75L6.17217 20.75H6.17211C5.00504 20.75 4.04582 20.7501 3.32833 20.6465C2.59985 20.5414 1.82556 20.192 1.43411 19.4937C1.08058 18.7755 1.28748 18.0461 1.61363 17.3863C1.93486 16.7364 2.51377 15.8946 3.17512 14.933C3.73584 14.1176 4.12181 13.5546 4.37556 13.0841C4.62075 12.6294 4.70687 12.3232 4.71117 12.0334C4.70687 11.7436 4.62075 11.3706 4.37556 10.9159C4.12181 10.4454 3.73584 9.88239 3.17512 9.06702C2.51376 8.10538 1.93486 7.26363 1.61363 6.61374C1.28748 5.95392 1.08058 5.22451 1.43411 4.50631C1.82556 3.80805 2.59985 3.45866 3.32834 3.35351C4.04584 3.24995 5.00509 3.24997 6.17219 3.25001L13 3.25001L13.189 3.24996Z" fill="#141B34"/>
</svg>
