<svg width="24" height="24" viewBox="0 0 24 24" fill="none" xmlns="http://www.w3.org/2000/svg">
<path d="M13.189 3.24995C14.9682 3.24935 16.1193 3.24896 17.1243 3.75146C18.1293 4.25396 18.8196 5.17501 19.8866 6.59877L20 6.74999L20.0281 6.7875L20.0282 6.78754C20.871 7.91126 21.5428 8.807 21.9982 9.58936C22.4686 10.3975 22.75 11.1522 22.75 12C22.75 12.8478 22.4686 13.6025 21.9982 14.4106C21.5428 15.193 20.871 16.0887 20.0282 17.2125L20.0281 17.2125L20 17.25L19.8866 17.4012C18.8196 18.825 18.1293 19.746 17.1243 20.2485C16.1193 20.751 14.9682 20.7506 13.189 20.75L13 20.75H9.94359H9.94354C8.1058 20.75 6.65018 20.75 5.51098 20.5969C4.33856 20.4392 3.38961 20.1071 2.64124 19.3587C1.89288 18.6104 1.56076 17.6614 1.40314 16.489C1.24997 15.3498 1.24998 13.8942 1.25 12.0564V12.0564V11.9436V11.9436C1.24998 10.1058 1.24997 8.65018 1.40314 7.51097C1.56076 6.33855 1.89288 5.3896 2.64124 4.64123C3.38961 3.89287 4.33856 3.56075 5.51098 3.40313C6.65019 3.24996 8.10582 3.24998 9.94358 3.24999L13 3.24999L13.189 3.24995Z" fill="#141B34"/>
</svg>
