<svg width="24" height="24" viewBox="0 0 24 24" fill="none" xmlns="http://www.w3.org/2000/svg">
<path d="M9.75 17.375C9.75 16.1324 10.7574 15.125 12 15.125C13.2426 15.125 14.25 16.1324 14.25 17.375C14.25 18.6176 13.2426 19.625 12 19.625C10.7574 19.625 9.75 18.6176 9.75 17.375Z" fill="#141B34"/>
<path fill-rule="evenodd" clip-rule="evenodd" d="M12 10.875C12.5523 10.875 13 11.3227 13 11.875V15.875C13 16.4273 12.5523 16.875 12 16.875C11.4477 16.875 11 16.4273 11 15.875V11.875C11 11.3227 11.4477 10.875 12 10.875ZM12 17.875C12.5523 17.875 13 18.3227 13 18.875V20.875H16C16.5523 20.875 17 21.3227 17 21.875C17 22.4273 16.5523 22.875 16 22.875H8C7.44772 22.875 7 22.4273 7 21.875C7 21.3227 7.44772 20.875 8 20.875H11V18.875C11 18.3227 11.4477 17.875 12 17.875Z" fill="#141B34"/>
<path d="M12.4745 1.125C13.1073 1.12498 13.6373 1.12497 14.0727 1.16884C14.5324 1.21515 14.9523 1.31513 15.3456 1.55556C15.7417 1.79764 16.0166 2.12435 16.2556 2.51081C16.4793 2.87242 16.6987 3.33341 16.9569 3.87587L16.957 3.87591L18.6246 7.37896L18.6247 7.37898C19.0552 8.28328 19.4162 9.04144 19.6012 9.65956C19.7948 10.3065 19.8557 10.9931 19.4318 11.6129C19.0171 12.2191 18.3586 12.4366 17.677 12.5321C17.0132 12.6251 16.1406 12.625 15.0846 12.625H15.0845H8.91545H8.91544C7.85942 12.625 6.98679 12.6251 6.323 12.5321C5.64144 12.4366 4.98292 12.2191 4.56825 11.6129C4.14429 10.9931 4.20522 10.3065 4.39883 9.65956C4.58383 9.04143 4.94481 8.28326 5.37537 7.37894L5.40271 7.32152L7.02626 3.91116L7.04303 3.87592L7.04303 3.87592C7.30127 3.33343 7.52071 2.87243 7.74437 2.51081C7.98339 2.12435 8.25827 1.79764 8.65436 1.55556C9.04773 1.31513 9.46757 1.21515 9.92726 1.16884C10.3627 1.12497 10.8927 1.12498 11.5255 1.125H11.5255H12.4745H12.4745Z" fill="#141B34"/>
</svg>
