<svg width="24" height="24" viewBox="0 0 24 24" fill="none" xmlns="http://www.w3.org/2000/svg">
<path fill-rule="evenodd" clip-rule="evenodd" d="M8.04745 1.75C7.18559 1.74995 6.44299 1.74991 5.84832 1.82921C5.21101 1.9142 4.60012 2.10584 4.10461 2.5973C3.60911 3.08876 3.41588 3.69467 3.3302 4.32678C3.25025 4.91659 3.25029 5.65313 3.25034 6.50795L3.25034 14.2857C3.25034 14.3291 3.24212 14.3723 3.22231 14.4109L2.83455 15.1653C2.11055 16.5014 1.62301 17.5653 1.39753 18.4487C1.16549 19.3577 1.19284 20.1495 1.58709 20.8656C2.02783 21.6661 2.8153 21.9782 3.69859 22.1165C4.55223 22.2501 5.6906 22.25 7.08709 22.25H16.9134C18.3098 22.25 19.4482 22.2501 20.3019 22.1165C21.1852 21.9782 21.9726 21.6661 22.4134 20.8656C22.8076 20.1495 22.8349 19.3576 22.6029 18.4486C22.377 17.5637 21.888 16.4975 21.1619 15.158L20.7941 14.4796C20.7878 14.4681 20.7847 14.4623 20.7829 14.4588C20.7583 14.4104 20.7519 14.385 20.7504 14.3307C20.7503 14.3268 20.7503 14.3131 20.7503 14.2857L20.7503 6.50798C20.7504 5.65314 20.7504 4.9166 20.6705 4.32678C20.5848 3.69467 20.3916 3.08876 19.8961 2.5973C19.4006 2.10584 18.7897 1.9142 18.1524 1.82921C17.5577 1.74991 16.8151 1.74995 15.9532 1.75H8.04745ZM18.2059 13.75C18.4887 13.75 18.6302 13.75 18.718 13.6621C18.8059 13.5743 18.8059 13.4328 18.8059 13.15V6.57143C18.8059 5.63503 18.8038 5.02974 18.7434 4.58375C18.6867 4.16551 18.5951 4.03441 18.5211 3.96101C18.4471 3.8876 18.3149 3.79682 17.8933 3.74058C17.4436 3.68062 16.8333 3.67858 15.8892 3.67858H8.11145C7.16734 3.67858 6.55707 3.68062 6.10741 3.74058C5.68572 3.79682 5.55355 3.8876 5.47954 3.96101C5.40553 4.03441 5.314 4.16551 5.2573 4.58375C5.19685 5.02974 5.19478 5.63503 5.19478 6.57143V13.15C5.19478 13.4328 5.19478 13.5743 5.28265 13.6621C5.37052 13.75 5.51194 13.75 5.79478 13.75H18.2059Z" fill="#141B34"/>
<path d="M14.7427 6.56198C14.3821 6.98032 14.4289 7.61175 14.8472 7.97232L15.7087 8.71486L14.8472 9.4574C14.4289 9.81797 14.3821 10.4494 14.7427 10.8677C15.1032 11.2861 15.7347 11.3329 16.153 10.9723L17.0729 10.1794L17.1048 10.1519C17.2693 10.0103 17.461 9.84531 17.6039 9.6839C17.7693 9.49699 18.0001 9.17374 18.0001 8.71486C18.0001 8.25598 17.7693 7.93273 17.6039 7.74583C17.461 7.58441 17.2693 7.41937 17.1048 7.27778L17.0729 7.25029L16.153 6.4574C15.7347 6.09682 15.1032 6.14365 14.7427 6.56198Z" fill="#141B34"/>
<path d="M9.25758 6.56198C9.61816 6.98032 9.57134 7.61175 9.153 7.97232L8.29152 8.71486L9.153 9.4574C9.57134 9.81797 9.61816 10.4494 9.25758 10.8677C8.89701 11.2861 8.26558 11.3329 7.84724 10.9723L6.92734 10.1794L6.89542 10.1519C6.73095 10.0103 6.53925 9.84531 6.39636 9.6839C6.23092 9.49699 6.00012 9.17374 6.00012 8.71486C6.00012 8.25598 6.23092 7.93273 6.39636 7.74583C6.53925 7.58441 6.73095 7.41937 6.89542 7.27778L6.92734 7.25029L7.84724 6.4574C8.26558 6.09682 8.89701 6.14365 9.25758 6.56198Z" fill="#141B34"/>
<path fill-rule="evenodd" clip-rule="evenodd" d="M13.3718 5.28663C13.8846 5.49175 14.134 6.07372 13.9289 6.5865L11.9289 11.5865C11.7238 12.0993 11.1418 12.3487 10.629 12.1436C10.1162 11.9385 9.8668 11.3565 10.0719 10.8437L12.0719 5.84372C12.277 5.33094 12.859 5.08152 13.3718 5.28663Z" fill="#141B34"/>
</svg>
