<svg width="24" height="24" viewBox="0 0 24 24" fill="none" xmlns="http://www.w3.org/2000/svg">
<path fill-rule="evenodd" clip-rule="evenodd" d="M12.0001 1.25C6.063 1.25 1.25006 6.06294 1.25006 12C1.25006 12.3629 1.25006 12.5443 1.30172 12.6205C1.36834 12.7188 1.4586 12.7616 1.57687 12.751C1.66859 12.7428 1.83646 12.6056 2.17221 12.3313L2.17221 12.3313C2.29727 12.2291 2.42502 12.1351 2.55304 12.0487C3.61007 11.3353 4.9251 10.985 5.68977 10.7891C6.20363 10.6574 6.74463 10.8644 7.03934 11.3055C7.33404 11.7466 7.31828 12.3256 7 12.75C6.55811 13.3391 6.58111 13.7466 6.62135 14.4595L6.62488 14.5223C6.64552 14.8916 6.67714 15.461 6.49154 16.0521C6.28988 16.6945 5.87868 17.2411 5.24523 17.7115C5.03532 17.8674 4.80577 17.9888 4.56546 18.0765L4.56544 18.0765C3.95666 18.2986 3.65227 18.4097 3.61435 18.5656C3.57643 18.7216 3.74665 18.9066 4.08709 19.2766C6.05174 21.412 8.86964 22.75 12.0001 22.75C15.1305 22.75 17.9483 21.412 19.913 19.2766C20.2535 18.9066 20.4237 18.7216 20.3858 18.5656C20.3478 18.4097 20.0434 18.2986 19.4346 18.0765C19.1943 17.9888 18.9647 17.8674 18.7548 17.7115C18.1213 17.2411 17.7101 16.6945 17.5085 16.0521C17.3229 15.461 17.3545 14.8916 17.3751 14.5223L17.3787 14.4595C17.4189 13.7466 17.4419 13.3391 17 12.75C16.6817 12.3256 16.666 11.7466 16.9607 11.3055C17.2554 10.8644 17.7964 10.6574 18.3102 10.7891C19.0749 10.985 20.3899 11.3353 21.447 12.0487C21.575 12.1351 21.7028 12.2291 21.8278 12.3313C22.1636 12.6057 22.3315 12.7429 22.4233 12.7511C22.5415 12.7617 22.6318 12.7189 22.6984 12.6207C22.7501 12.5444 22.7501 12.363 22.7501 12C22.7501 6.06294 17.9371 1.25 12.0001 1.25ZM12.0001 18C13.8963 18 15.489 16.7202 15.9363 14.9899C16.1444 14.1848 15.8423 14 15.0462 14H8.95392C8.15782 14 7.85576 14.1848 8.06386 14.9899C8.51115 16.7202 10.1039 18 12.0001 18ZM7.75006 9.5C7.75006 9.08579 8.08585 8.75 8.50006 8.75C8.91427 8.75 9.25006 9.08579 9.25006 9.5C9.25006 9.91421 9.58585 10.25 10.0001 10.25C10.4143 10.25 10.7501 9.91421 10.7501 9.5C10.7501 8.25736 9.7427 7.25 8.50006 7.25C7.25742 7.25 6.25006 8.25736 6.25006 9.5C6.25006 9.91421 6.58585 10.25 7.00006 10.25C7.41427 10.25 7.75006 9.91421 7.75006 9.5ZM14.7501 9.5C14.7501 9.08579 15.0858 8.75 15.5001 8.75C15.9143 8.75 16.2501 9.08579 16.2501 9.5C16.2501 9.91421 16.5858 10.25 17.0001 10.25C17.4143 10.25 17.7501 9.91421 17.7501 9.5C17.7501 8.25736 16.7427 7.25 15.5001 7.25C14.2574 7.25 13.2501 8.25736 13.2501 9.5C13.2501 9.91421 13.5858 10.25 14.0001 10.25C14.4143 10.25 14.7501 9.91421 14.7501 9.5Z" fill="#141B34"/>
<path d="M6 12C4.44452 12.3985 1.54103 13.2338 2.06165 15.782C2.33013 17.0421 3.73652 17.275 4.5 16.708C6.33821 15.343 4.5 14 6 12Z" fill="#141B34"/>
<path d="M18 12C19.5555 12.3985 22.459 13.2338 21.9383 15.782C21.6699 17.0421 20.2635 17.275 19.5 16.708C17.6618 15.343 19.5 14 18 12Z" fill="#141B34"/>
</svg>
