<svg width="24" height="24" viewBox="0 0 24 24" fill="none" xmlns="http://www.w3.org/2000/svg">
<path fill-rule="evenodd" clip-rule="evenodd" d="M1.5 11.9256V12.0745C1.5 12.3958 1.49999 12.7074 1.50058 13.0096C1.50148 13.4751 1.50193 13.7079 1.64832 13.854C1.79471 14.0001 2.02855 14.0001 2.49623 14.0001L21.5038 14.0001C21.9715 14.0001 22.2053 14.0001 22.3517 13.854C22.4981 13.7079 22.4985 13.4751 22.4994 13.0096C22.5 12.7074 22.5 12.3957 22.5 12.0745V11.9257C22.5 9.74968 22.5 8.01495 22.3172 6.6548C22.1284 5.25043 21.7283 4.09662 20.8159 3.18423C19.9035 2.27184 18.7497 1.87173 17.3453 1.68292C15.9851 1.50005 14.2504 1.50007 12.0744 1.50009L11.9256 1.50009C9.74959 1.50007 8.01485 1.50005 6.65471 1.68292C5.25033 1.87173 4.09653 2.27184 3.18414 3.18423C2.27175 4.09662 1.87164 5.25043 1.68282 6.65481C1.49996 8.01494 1.49998 9.74967 1.5 11.9256Z" fill="#141B34"/>
<path fill-rule="evenodd" clip-rule="evenodd" d="M22.353 17.0537C22.4067 16.5735 22.4336 16.3335 22.2845 16.1668C22.1355 16.0001 21.884 16.0001 21.3812 16.0001L2.61881 16.0001C2.11596 16.0001 1.86454 16.0001 1.71547 16.1668C1.5664 16.3335 1.59326 16.5735 1.64699 17.0537C1.65807 17.1528 1.67 17.25 1.68282 17.3454C1.87164 18.7498 2.27175 19.9036 3.18414 20.816C4.09653 21.7283 5.25033 22.1285 6.65471 22.3173C8.01485 22.5001 9.74957 22.5001 11.9255 22.5001H12.0745C14.2504 22.5001 15.9852 22.5001 17.3453 22.3173C18.7497 22.1285 19.9035 21.7283 20.8159 20.816C21.7283 19.9036 22.1284 18.7498 22.3172 17.3454C22.33 17.25 22.3419 17.1528 22.353 17.0537Z" fill="#141B34"/>
</svg>
