<svg width="24" height="24" viewBox="0 0 24 24" fill="none" xmlns="http://www.w3.org/2000/svg">
<path fill-rule="evenodd" clip-rule="evenodd" d="M10.9907 1.50065C10.5252 1.50156 10.2924 1.50201 10.1463 1.64839C10.0002 1.79478 10.0002 2.02862 10.0002 2.4963V6.00008C10.0002 6.47148 10.0002 6.70719 10.1466 6.85363C10.2931 7.00008 10.5288 7.00008 11.0002 7.00008H22.0113C22.197 7.00008 22.3421 6.83886 22.3174 6.65479C22.1285 5.25041 21.7284 4.0966 20.816 3.18421C19.9037 2.27182 18.7499 1.87171 17.3455 1.6829C15.9853 1.50003 14.2506 1.50005 12.0746 1.50008L11.9258 1.50008C11.6045 1.50007 11.2929 1.50007 10.9907 1.50065ZM22.4943 9.97444C22.4898 9.51783 22.4875 9.28952 22.3414 9.1448C22.1953 9.00008 21.9646 9.00008 21.5032 9.00008H11.0002C10.5288 9.00008 10.2931 9.00008 10.1466 9.14653C10.0002 9.29297 10.0002 9.52868 10.0002 10.0001L10.0002 14.0001C10.0002 14.4715 10.0002 14.7072 10.1466 14.8536C10.2931 15.0001 10.5288 15.0001 11.0002 15.0001H21.5032C21.9646 15.0001 22.1953 15.0001 22.3414 14.8554C22.4875 14.7106 22.4898 14.4823 22.4943 14.0257C22.5002 13.4188 22.5002 12.7692 22.5002 12.0745V11.9257C22.5002 11.231 22.5002 10.5813 22.4943 9.97444ZM22.3174 17.3454C22.3421 17.1613 22.197 17.0001 22.0113 17.0001H11.0002C10.5288 17.0001 10.2931 17.0001 10.1466 17.1465C10.0002 17.293 10.0002 17.5287 10.0002 18.0001L10.0002 21.5039C10.0002 21.9715 10.0002 22.2054 10.1463 22.3518C10.2924 22.4981 10.5252 22.4986 10.9907 22.4995C11.2929 22.5001 11.6045 22.5001 11.9257 22.5001H12.0746C14.2506 22.5001 15.9853 22.5001 17.3455 22.3173C18.7499 22.1284 19.9037 21.7283 20.816 20.8159C21.7284 19.9036 22.1285 18.7497 22.3174 17.3454Z" fill="#141B34"/>
<path fill-rule="evenodd" clip-rule="evenodd" d="M1.50018 11.9267V12.0756C1.50016 14.2516 1.50014 15.9863 1.68301 17.3465C1.87182 18.7509 2.27193 19.9047 3.18432 20.8171C4.09671 21.7294 5.25052 22.1296 6.6549 22.3184C6.75028 22.3312 6.84751 22.3431 6.9466 22.3542C7.42674 22.4079 7.66682 22.4348 7.8335 22.2857C8.00018 22.1367 8.00018 21.8852 8.00018 21.3824V2.62C8.00018 2.11715 8.00018 1.86573 7.8335 1.71666C7.66682 1.56759 7.42674 1.59445 6.9466 1.64818C6.84751 1.65926 6.75028 1.67119 6.65489 1.68401C5.25052 1.87283 4.09671 2.27294 3.18432 3.18533C2.27193 4.09772 1.87182 5.25152 1.68301 6.6559C1.50014 8.01604 1.50016 9.75076 1.50018 11.9267Z" fill="#141B34"/>
</svg>
