<svg width="24" height="24" viewBox="0 0 24 24" fill="none" xmlns="http://www.w3.org/2000/svg">
<path fill-rule="evenodd" clip-rule="evenodd" d="M1.5 11.9256V12.0745C1.49998 14.2505 1.49996 15.9852 1.68282 17.3454C1.87164 18.7498 2.27175 19.9036 3.18414 20.816C4.09653 21.7283 5.25033 22.1285 6.65471 22.3173C7.58626 22.4425 8.69353 22.482 9.99792 22.4944C10.4685 22.4989 10.7037 22.5011 10.8519 22.3544C11 22.2077 11 21.971 11 21.4976V11.0001C11 10.5287 11 10.293 10.8536 10.1465C10.7071 10.0001 10.4714 10.0001 10 10.0001H2.49623C2.02855 10.0001 1.79471 10.0001 1.64832 10.1462C1.50193 10.2923 1.50148 10.5251 1.50058 10.9906C1.49999 11.2928 1.5 11.6044 1.5 11.9256ZM22.4994 10.9906C22.4985 10.5251 22.4981 10.2923 22.3517 10.1462C22.2053 10.0001 21.9715 10.0001 21.5038 10.0001H14C13.5286 10.0001 13.2929 10.0001 13.1464 10.1465C13 10.293 13 10.5287 13 11.0001V21.4976C13 21.971 13 22.2077 13.1481 22.3544C13.2963 22.5011 13.5315 22.4989 14.0021 22.4944C15.3065 22.482 16.4137 22.4425 17.3453 22.3173C18.7497 22.1285 19.9035 21.7283 20.8159 20.816C21.7283 19.9036 22.1284 18.7498 22.3172 17.3454C22.5 15.9852 22.5 14.2505 22.5 12.0745V11.9257C22.5 11.6044 22.5 11.2928 22.4994 10.9906Z" fill="#141B34"/>
<path fill-rule="evenodd" clip-rule="evenodd" d="M1.64615 6.94651C1.59242 7.42665 1.56556 7.66673 1.71463 7.83341C1.8637 8.00009 2.11513 8.00009 2.61797 8.00009H21.3804C21.8832 8.00009 22.1346 8.00009 22.2837 7.83341C22.4328 7.66673 22.4059 7.42665 22.3522 6.94651C22.3411 6.84742 22.3292 6.75019 22.3163 6.6548C22.1275 5.25043 21.7274 4.09662 20.815 3.18423C19.9026 2.27184 18.7488 1.87173 17.3444 1.68292C15.9843 1.50005 14.2496 1.50007 12.0736 1.50009L11.9247 1.50009C9.74875 1.50007 8.01401 1.50005 6.65387 1.68292C5.24949 1.87173 4.09569 2.27184 3.1833 3.18423C2.27091 4.09662 1.8708 5.25043 1.68198 6.65481C1.66916 6.75019 1.65724 6.84742 1.64615 6.94651Z" fill="#141B34"/>
</svg>
