<svg width="24" height="24" viewBox="0 0 24 24" fill="none" xmlns="http://www.w3.org/2000/svg">
<path fill-rule="evenodd" clip-rule="evenodd" d="M20.7241 2.80504C20.6545 2.54646 20.4523 2.34461 20.1936 2.27546C19.9349 2.2063 19.6589 2.28033 19.4696 2.46969C19.343 2.59622 19.2121 2.73232 19.0747 2.8752C17.9141 4.08222 16.2886 5.77259 12.8938 6.25756C9.13927 6.79392 6.24989 9.30622 6.24989 13C6.24989 13.826 6.39826 14.6174 6.6698 15.3489C7.5729 14.9264 8.61929 14.5719 9.8181 14.2722C12.8148 13.5231 14.9255 11.6428 16.3923 9.61515C16.6351 9.27955 17.104 9.2043 17.4396 9.44707C17.7752 9.68985 17.8504 10.1587 17.6077 10.4943C16.0012 12.715 13.6186 14.8683 10.1819 15.7274C9.06243 16.0073 8.12639 16.3276 7.34598 16.6887C8.55105 18.532 10.6332 19.75 12.9999 19.75C15.162 19.75 18.0546 18.9402 19.9238 16.3094C21.7942 13.677 22.5032 9.413 20.7241 2.80504Z" fill="#141B34"/>
<path fill-rule="evenodd" clip-rule="evenodd" d="M6.6698 15.3489C5.81812 15.7473 5.09387 16.2063 4.4894 16.737C3.22312 17.8487 2.5348 19.2289 2.26021 20.8765C2.19211 21.2851 2.46813 21.6715 2.8767 21.7396C3.28528 21.8077 3.6717 21.5317 3.7398 21.1231C3.9652 19.7707 4.50584 18.7186 5.47903 17.8642C5.97017 17.4331 6.58386 17.0414 7.34598 16.6887C7.07344 16.2718 6.84576 15.8229 6.6698 15.3489Z" fill="#141B34"/>
</svg>
