<svg width="24" height="24" viewBox="0 0 24 24" fill="none" xmlns="http://www.w3.org/2000/svg">
<path fill-rule="evenodd" clip-rule="evenodd" d="M6.03143 2.25C6.7048 2.24999 7.25551 2.24998 7.70307 2.28655C8.16633 2.3244 8.58473 2.40514 8.97547 2.60423C9.587 2.91582 10.0842 3.413 10.3958 4.02453C10.5949 4.41527 10.6756 4.83367 10.7134 5.29693C10.75 5.74448 10.75 6.29518 10.75 6.96853V6.96856V17.0314V17.0315C10.75 17.7048 10.75 18.2555 10.7134 18.7031C10.6756 19.1663 10.5949 19.5847 10.3958 19.9755C10.0842 20.587 9.587 21.0842 8.97547 21.3958C8.58473 21.5949 8.16633 21.6756 7.70307 21.7134C7.25551 21.75 6.70481 21.75 6.03144 21.75H5.96856C5.29519 21.75 4.74449 21.75 4.29693 21.7134C3.83367 21.6756 3.41527 21.5949 3.02453 21.3958C2.413 21.0842 1.91582 20.587 1.60423 19.9755C1.40514 19.5847 1.3244 19.1663 1.28655 18.7031C1.24998 18.2555 1.24999 17.7048 1.25 17.0314V17.0314V6.96858V6.96857C1.24999 6.2952 1.24998 5.74449 1.28655 5.29693C1.3244 4.83367 1.40514 4.41527 1.60423 4.02453C1.91582 3.413 2.413 2.91582 3.02453 2.60423C3.41527 2.40514 3.83367 2.3244 4.29693 2.28655C4.74449 2.24998 5.2952 2.24999 5.96857 2.25H5.96858H6.03142H6.03143ZM5 17C5 16.4477 5.44772 16 6 16H6.00898C6.56127 16 7.00898 16.4477 7.00898 17C7.00898 17.5523 6.56127 18 6.00898 18H6C5.44772 18 5 17.5523 5 17ZM8.75251 6.25C9.02683 6.25 9.24967 6.47103 9.24992 6.74535L9.25 7.25C9.25 7.52614 9.02614 7.75 8.75 7.75H3.25C2.97386 7.75 2.75 7.52614 2.75 7.25L2.75008 6.74535C2.75033 6.47103 2.97318 6.25 3.2475 6.25H8.75251Z" fill="#141B34"/>
<path fill-rule="evenodd" clip-rule="evenodd" d="M15.6456 2.32715C16.0946 2.24499 16.5135 2.21478 16.937 2.30516C17.5983 2.44631 18.1976 2.79397 18.6493 3.29771C18.9383 3.61998 19.1213 3.99851 19.2747 4.42946C19.4229 4.8457 19.5626 5.36916 19.7331 6.00851L19.7332 6.00853L19.7332 6.00856L19.7332 6.00857L22.284 15.5683L22.284 15.5683L22.2841 15.5684C22.4547 16.2078 22.5944 16.7312 22.6733 17.1661C22.755 17.6164 22.7849 18.0357 22.6952 18.4593C22.5551 19.1215 22.2097 19.7226 21.7079 20.1763C21.3867 20.4667 21.0091 20.6508 20.5794 20.8051C20.1646 20.954 19.6432 21.0943 19.0068 21.2655L19.0067 21.2655L19.0066 21.2655L19.0065 21.2656L18.9457 21.2819C18.3093 21.4532 17.7877 21.5935 17.3544 21.6728C16.9054 21.755 16.4864 21.7852 16.063 21.6948C15.4017 21.5537 14.8024 21.206 14.3507 20.7023C14.0617 20.38 13.8787 20.0015 13.7253 19.5705C13.5771 19.1543 13.4374 18.6309 13.2669 17.9916L13.2668 17.9915L13.2668 17.9914L13.2668 17.9914L10.7159 8.43159C10.5453 7.79221 10.4056 7.26874 10.3267 6.83388C10.245 6.38359 10.2151 5.96423 10.3047 5.54067C10.4449 4.87851 10.7903 4.27739 11.2921 3.82372C11.6133 3.53327 11.9908 3.34917 12.4206 3.1949C12.8354 3.04599 13.357 2.90566 13.9935 2.73441L14.0542 2.71808C14.6906 2.54682 15.2122 2.40647 15.6456 2.32715ZM16.8156 16.9528C16.6726 16.4193 16.9892 15.871 17.5227 15.7281L17.5314 15.7257C18.0648 15.5828 18.6132 15.8994 18.7561 16.4328C18.899 16.9663 18.5825 17.5146 18.049 17.6576L18.0403 17.6599C17.5069 17.8028 16.9585 17.4863 16.8156 16.9528ZM18.1391 5.85617C18.1859 6.02786 18.2364 6.21694 18.2923 6.4264C18.3506 6.64479 18.2258 6.87017 18.0098 6.93664L12.8318 8.52996C12.5608 8.61335 12.2748 8.45494 12.2017 8.18098L12.1737 8.07597C12.1372 7.93918 12.103 7.81106 12.0712 7.69067C12.0032 7.43347 12.1515 7.16991 12.4057 7.09167L17.5187 5.51833C17.7847 5.43648 18.0659 5.58767 18.1391 5.85617Z" fill="#141B34"/>
</svg>
