<svg width="24" height="24" viewBox="0 0 24 24" fill="none" xmlns="http://www.w3.org/2000/svg">
<path fill-rule="evenodd" clip-rule="evenodd" d="M11.5559 1.25H10.4431H10.4431C8.60539 1.24999 7.14976 1.24997 6.01056 1.40313C4.83815 1.56076 3.88921 1.89287 3.14084 2.64123C2.39248 3.38958 2.06036 4.33853 1.90272 5.51094C1.74955 6.65014 1.74955 8.10576 1.74955 9.94351L1.74951 14.0563V14.0564V14.0564C1.74948 15.8941 1.74946 17.3498 1.90261 18.489C2.06023 19.6614 2.39235 20.6104 3.14071 21.3587C3.88907 22.1071 4.83803 22.4392 6.01046 22.5969C7.14967 22.75 8.6053 22.75 10.4431 22.75H11.5559C13.3936 22.75 14.8493 22.75 15.9885 22.5969C16.1643 22.5732 16.3351 22.5457 16.5009 22.5134V20.997C16.2568 20.9924 16.0073 20.9808 15.7835 20.952C15.4258 20.9061 14.4738 20.7487 13.8803 19.8408C13.2058 18.8091 13.5955 17.7936 13.7798 17.4089C13.8902 17.1782 14.1696 16.7585 14.3663 16.4659C14.4526 16.3375 14.5403 16.2086 14.6216 16.0898L14.5018 15.5714L14.5018 15.5714L14.5018 15.5714C14.4518 15.3559 14.3708 15.0074 14.3498 14.6782C14.321 14.2276 14.3776 13.4624 14.9969 12.8082C15.5584 12.215 16.2447 12.082 16.5993 12.0381C16.9092 11.9997 17.2611 11.9999 17.5251 12H19.4767C19.698 11.9999 19.9811 11.9998 20.2494 12.0223V9.94359C20.2495 8.10585 20.2495 6.65019 20.0963 5.51098C19.9387 4.33856 19.6066 3.38961 18.8582 2.64124C18.1098 1.89288 17.1609 1.56076 15.9885 1.40314C14.8493 1.24997 13.3936 1.24999 11.5559 1.25H11.5559H11.5559ZM6.24951 7C6.24951 6.58579 6.5853 6.25 6.99951 6.25H14.9995C15.4137 6.25 15.7495 6.58579 15.7495 7C15.7495 7.41421 15.4137 7.75 14.9995 7.75H6.99951C6.5853 7.75 6.24951 7.41421 6.24951 7ZM6.24951 12C6.24951 11.5858 6.5853 11.25 6.99951 11.25H12.4995C12.9137 11.25 13.2495 11.5858 13.2495 12C13.2495 12.4142 12.9137 12.75 12.4995 12.75H6.99951C6.5853 12.75 6.24951 12.4142 6.24951 12ZM6.24951 17C6.24951 16.5858 6.5853 16.25 6.99951 16.25L10.9995 16.25C11.4137 16.25 11.7495 16.5858 11.7495 17C11.7495 17.4142 11.4137 17.75 10.9995 17.75H6.99951C6.5853 17.75 6.24951 17.4142 6.24951 17ZM19.4394 13.25H17.5606C17.2684 13.2499 16.9836 13.2499 16.7522 13.2786C16.5035 13.3094 16.1684 13.3879 15.9038 13.6674C15.6183 13.9691 15.579 14.3269 15.5964 14.5985C15.6107 14.8226 15.6711 15.0838 15.7265 15.3232L15.9626 16.3455C15.756 16.6435 15.0283 17.6939 14.9063 17.9487C14.7754 18.2221 14.6224 18.693 14.9256 19.1567C15.1997 19.576 15.6525 19.675 15.9419 19.7122C16.2371 19.7501 16.6171 19.7501 17.0295 19.75L17.75 19.75V22C17.75 22.4142 18.0858 22.75 18.5 22.75C18.9142 22.75 19.25 22.4142 19.25 22V19.75L19.9706 19.75C20.3829 19.7501 20.7629 19.7501 21.0581 19.7122C21.3475 19.675 21.8003 19.576 22.0744 19.1567C22.3776 18.693 22.2246 18.2221 22.0937 17.9487C21.9717 17.6939 21.244 16.6435 21.0374 16.3455L21.2735 15.3232C21.3289 15.0838 21.3893 14.8226 21.4037 14.5985C21.421 14.3269 21.3817 13.9691 21.0962 13.6674C20.8317 13.3879 20.4965 13.3094 20.2479 13.2786C20.0164 13.2499 19.7316 13.2499 19.4394 13.25Z" fill="#141B34"/>
</svg>
