<svg width="24" height="24" viewBox="0 0 24 24" fill="none" xmlns="http://www.w3.org/2000/svg">
<path fill-rule="evenodd" clip-rule="evenodd" d="M11.5562 1.25H11.5562H11.5562H10.4434H10.4434H10.4434C8.60567 1.24999 7.15005 1.24997 6.01085 1.40313C4.83844 1.56076 3.88949 1.89287 3.14113 2.64123C2.39277 3.38958 2.06065 4.33853 1.90301 5.51094C1.74984 6.65014 1.74984 8.10576 1.74984 9.94351L1.7498 14.0563V14.0564V14.0564C1.74977 15.8941 1.74975 17.3498 1.9029 18.489C2.06052 19.6614 2.39263 20.6104 3.141 21.3587C3.88936 22.1071 4.83832 22.4392 6.01075 22.5969C7.14996 22.75 8.60559 22.75 10.4433 22.75H11.5561C12.9939 22.75 14.1978 22.75 15.1992 22.6767C15.1468 22.5608 15.1039 22.4397 15.0715 22.3143C14.737 22.1665 14.4209 21.9859 14.1268 21.7771C13.1188 22.2049 11.9225 21.8429 11.3324 20.8814C10.7321 19.9031 10.9692 18.6464 11.8436 17.9481C11.8149 17.719 11.8001 17.4859 11.8001 17.25C11.8001 17.014 11.8149 16.7808 11.8436 16.5516C10.9696 15.8532 10.7326 14.5967 11.3329 13.6186C11.9229 12.6572 13.1191 12.2952 14.127 12.7228C14.421 12.514 14.7371 12.3335 15.0715 12.1857C15.3219 11.2162 16.2024 10.5 17.2501 10.5C18.2979 10.5 19.1784 11.2162 19.4288 12.1857C19.7168 12.313 19.9913 12.4646 20.2497 12.6376V9.94359C20.2498 8.10585 20.2498 6.65019 20.0966 5.51098C19.939 4.33856 19.6069 3.38961 18.8585 2.64124C18.1101 1.89288 17.1612 1.56076 15.9888 1.40314C14.8495 1.24997 13.3939 1.24999 11.5562 1.25ZM6.2498 6C6.2498 5.58579 6.58559 5.25 6.9998 5.25H14.9998C15.414 5.25 15.7498 5.58579 15.7498 6C15.7498 6.41421 15.414 6.75 14.9998 6.75H6.9998C6.58559 6.75 6.2498 6.41421 6.2498 6ZM6.2498 10C6.2498 9.58579 6.58559 9.25 6.9998 9.25H11.4998C11.914 9.25 12.2498 9.58579 12.2498 10C12.2498 10.4142 11.914 10.75 11.4998 10.75H6.9998C6.58559 10.75 6.2498 10.4142 6.2498 10ZM18.2499 12.75C18.2499 12.1977 17.8022 11.75 17.2499 11.75C16.6977 11.75 16.2499 12.1977 16.2499 12.75V13.0986C15.4819 13.289 14.7997 13.6936 14.2646 14.2445L13.7734 13.9431C13.3027 13.6543 12.6869 13.8017 12.3981 14.2724C12.1092 14.7431 12.2566 15.3589 12.7274 15.6478L13.2439 15.9648C13.1178 16.3713 13.0499 16.8033 13.0499 17.25C13.0499 17.6966 13.1178 18.1285 13.2438 18.535L12.7269 18.8522C12.2562 19.1411 12.1088 19.7569 12.3976 20.2276C12.6865 20.6983 13.3023 20.8457 13.773 20.5569L14.2644 20.2553C14.7995 20.8063 15.4818 21.211 16.2499 21.4014V21.75C16.2499 22.3023 16.6977 22.75 17.2499 22.75C17.8022 22.75 18.2499 22.3023 18.2499 21.75V21.4014C19.0181 21.211 19.7003 20.8063 20.2355 20.2553L20.7269 20.5569C21.1976 20.8457 21.8134 20.6983 22.1023 20.2276C22.3911 19.7569 22.2437 19.1411 21.773 18.8522L21.2561 18.535C21.3821 18.1285 21.4499 17.6966 21.4499 17.25C21.4499 16.8033 21.3821 16.3713 21.256 15.9648L21.7725 15.6478C22.2432 15.3589 22.3907 14.7431 22.1018 14.2724C21.8129 13.8017 21.1972 13.6543 20.7265 13.9431L20.2353 14.2445C19.7002 13.6936 19.018 13.289 18.2499 13.0986V12.75ZM15.0499 17.25C15.0499 15.9735 16.056 14.9773 17.2499 14.9773C18.4439 14.9773 19.4499 15.9735 19.4499 17.25C19.4499 18.5265 18.4439 19.5227 17.2499 19.5227C16.056 19.5227 15.0499 18.5265 15.0499 17.25Z" fill="#141B34"/>
</svg>
