<svg width="24" height="24" viewBox="0 0 24 24" fill="none" xmlns="http://www.w3.org/2000/svg">
<path fill-rule="evenodd" clip-rule="evenodd" d="M10.6935 1.24988H11.8062H11.8062C13.644 1.24986 15.0996 1.24985 16.2388 1.40301C17.4112 1.56064 18.3602 1.89276 19.1085 2.64112C19.8569 3.38949 20.189 4.33843 20.3466 5.51086C20.4998 6.65006 20.4998 8.10573 20.4998 9.94347V12.119C19.7839 11.911 19.009 11.9753 18.3297 12.3119C17.8765 12.5365 17.5241 12.8924 17.3341 13.0843L12.3351 18.0836C12.1206 18.2956 11.7128 18.6989 11.479 19.2632C11.2453 19.8274 11.2485 20.401 11.2502 20.7026L11.2505 22C11.2506 22.2652 11.3022 22.5183 11.3959 22.7499H10.6934C8.85564 22.7499 7.40001 22.7499 6.26079 22.5967C5.08836 22.4391 4.13941 22.107 3.39104 21.3586C2.64268 20.6102 2.31057 19.6613 2.15295 18.4889C1.9998 17.3497 1.99982 15.894 1.99985 14.0562V14.0562L1.99989 9.94338C1.99989 8.10564 1.99989 6.65002 2.15306 5.51082C2.3107 4.3384 2.64282 3.38946 3.39118 2.64111C4.13954 1.89275 5.08848 1.56064 6.2609 1.40301C7.4001 1.24985 8.85573 1.24986 10.6935 1.24988ZM7.24985 5.99988C6.69756 5.99988 6.24985 6.44759 6.24985 6.99988C6.24985 7.55216 6.69756 7.99988 7.24985 7.99988H15.2498C15.8021 7.99988 16.2498 7.55216 16.2498 6.99988C16.2498 6.44759 15.8021 5.99988 15.2498 5.99988H7.24985ZM7.24985 10.9999C6.69756 10.9999 6.24985 11.4476 6.24985 11.9999C6.24985 12.5522 6.69756 12.9999 7.24985 12.9999H13.2498C13.8021 12.9999 14.2498 12.5522 14.2498 11.9999C14.2498 11.4476 13.8021 10.9999 13.2498 10.9999H7.24985Z" fill="#141B34"/>
<path d="M18.8843 13.432C19.3743 13.1892 19.9496 13.1892 20.4396 13.432C20.7018 13.5619 21.0372 13.8984 21.2502 14.1124C21.4643 14.3254 21.6881 14.548 21.818 14.8102C22.0609 15.3002 22.0609 15.8756 21.818 16.3656C21.6881 16.6278 21.4643 16.8504 21.2502 17.0634L16.3136 22.0004C16.0836 22.2317 15.8356 22.4812 15.5086 22.6166C15.1817 22.752 14.8299 22.751 14.5037 22.75L13.2502 22.7499C12.8359 22.7499 12.5002 22.4141 12.5002 21.9999L12.5 20.7465C12.4991 20.4203 12.4981 20.0685 12.6335 19.7416C12.7689 19.4146 13.0184 19.1666 13.2498 18.9366L18.1864 13.9997C18.3994 13.7856 18.6221 13.5619 18.8843 13.432Z" fill="#141B34"/>
</svg>
