<svg width="24" height="24" viewBox="0 0 24 24" fill="none" xmlns="http://www.w3.org/2000/svg">
<path d="M14 15.5C12.6193 15.5 11.5 16.6193 11.5 18C11.5 19.3807 12.6193 20.5 14 20.5C15.3807 20.5 16.5 19.3807 16.5 18C16.5 16.6193 15.3807 15.5 14 15.5Z" fill="#141B34"/>
<path d="M6.49998 18C6.49998 19.3807 5.3807 20.5 3.99998 20.5C2.61927 20.5 1.49998 19.3807 1.49998 18C1.49998 16.6193 2.61927 15.5 3.99998 15.5C5.3807 15.5 6.49998 16.6193 6.49998 18Z" fill="#141B34"/>
<path fill-rule="evenodd" clip-rule="evenodd" d="M19.5 3.5C20.0523 3.5 20.5 3.94772 20.5 4.5V15.5106C20.5 15.9906 20.5005 16.3006 20.5167 16.5379C20.5323 16.7662 20.5589 16.8534 20.5762 16.8953C20.7236 17.2514 21.0428 17.4753 21.5511 17.5013C22.1027 17.5296 22.5269 17.9996 22.4987 18.5511C22.4704 19.1027 22.0004 19.5269 21.4488 19.4987C20.3364 19.4417 19.2298 18.872 18.7282 17.66C18.5933 17.334 18.5438 17.004 18.5213 16.6739C18.5 16.3604 18.5 15.9816 18.5 15.5425L18.5 14.5H17.5C16.9477 14.5 16.5 14.0523 16.5 13.5C16.5 12.9477 16.9477 12.5 17.5 12.5H18.5V4.5C18.5 3.94772 18.9477 3.5 19.5 3.5Z" fill="#141B34"/>
<path fill-rule="evenodd" clip-rule="evenodd" d="M14.2364 7.52502C14.8795 8.07662 15.25 8.88429 15.25 9.73473L15.25 13.8978C15.25 14.1474 15.25 14.2722 15.1775 14.3322C15.1051 14.3922 14.9715 14.3668 14.7044 14.3161C14.4763 14.2727 14.2408 14.25 14 14.25C11.9289 14.25 10.25 15.9289 10.25 18C10.25 18.0892 10.2531 18.1778 10.2592 18.2654C10.2759 18.5037 10.2842 18.6228 10.2249 18.6864C10.1656 18.75 10.0556 18.75 9.83564 18.75H8.16433C7.94435 18.75 7.83436 18.75 7.77505 18.6864C7.71575 18.6228 7.72408 18.5037 7.74074 18.2654C7.74687 18.1778 7.74998 18.0892 7.74998 18C7.74998 15.9289 6.07105 14.25 3.99998 14.25C3.75919 14.25 3.5237 14.2727 3.29552 14.3161C3.02845 14.3668 2.89491 14.3922 2.82245 14.3322C2.74998 14.2722 2.74998 14.1474 2.74998 13.8978V6.65323C2.74998 5.04982 4.04147 3.75 5.6346 3.75H8.41837C9.33269 3.75 10.2171 4.07783 10.913 4.67469L14.2364 7.52502ZM5.63341 5.6875C5.10237 5.6875 4.67187 6.12077 4.67187 6.65524V8.35193C4.67187 8.54022 4.67187 8.63437 4.73018 8.6929C4.78849 8.75143 4.88296 8.7518 5.07191 8.75252C6.3205 8.75731 7.49842 8.77508 8.50686 9.60125C8.95155 9.96557 9.26383 10.4477 9.57528 10.9285C9.88509 11.4069 10.1941 11.8839 10.6318 12.2425C11.2521 12.7507 11.9915 12.7509 12.7516 12.7511C12.8095 12.7511 12.8675 12.7511 12.9256 12.7514C13.1139 12.7522 13.208 12.7525 13.2668 12.6939C13.3257 12.6353 13.3257 12.5409 13.3257 12.3521V9.73675C13.3257 9.45327 13.2022 9.18404 12.9878 9.00018L9.66451 6.14984C9.31655 5.85141 8.87434 5.6875 8.41718 5.6875H5.63341Z" fill="#141B34"/>
</svg>
