<svg width="24" height="24" viewBox="0 0 24 24" fill="none" xmlns="http://www.w3.org/2000/svg">
<path fill-rule="evenodd" clip-rule="evenodd" d="M12 4C7.01173 4 3 7.96404 3 12.8147C3 15.5112 4.23546 17.9285 6.19315 19.5495C6.34295 19.6736 6.45707 19.7679 6.55754 19.8457C6.64178 19.9108 6.70019 19.9515 6.74206 19.9774C6.77435 19.9452 6.82047 19.8942 6.88627 19.8129C6.96921 19.7104 7.06695 19.5805 7.19502 19.4067C7.52269 18.9621 8.14873 18.8673 8.5933 19.195C9.03788 19.5227 9.13265 20.1487 8.80498 20.5933C8.56236 20.9225 8.32287 21.2435 8.06719 21.4768C7.75459 21.7621 7.40744 21.9316 6.97865 21.9852C6.50584 22.0442 6.11005 21.9216 5.76726 21.7245C5.47739 21.5578 5.18365 21.3102 4.9176 21.09C2.52673 19.1102 1 16.1395 1 12.8147C1 6.82438 5.94258 2 12 2C18.0574 2 23 6.82438 23 12.8147C23 16.1395 21.4733 19.1102 19.0824 21.09C18.8163 21.3102 18.5226 21.5578 18.2327 21.7245C17.8899 21.9216 17.4942 22.0442 17.0214 21.9852C16.5926 21.9316 16.2454 21.7621 15.9328 21.4768C15.6771 21.2435 15.4376 20.9225 15.195 20.5933C14.8673 20.1487 14.9621 19.5227 15.4067 19.195C15.8513 18.8673 16.4773 18.9621 16.805 19.4067C16.933 19.5805 17.0308 19.7104 17.1137 19.8129C17.1795 19.8942 17.2256 19.9452 17.2579 19.9774C17.2998 19.9515 17.3582 19.9108 17.4425 19.8457C17.5429 19.7679 17.6571 19.6736 17.8069 19.5495C19.7645 17.9285 21 15.5112 21 12.8147C21 7.96404 16.9883 4 12 4Z" fill="#141B34"/>
<path fill-rule="evenodd" clip-rule="evenodd" d="M18.6333 4.22595C19.0607 4.57568 19.1237 5.2057 18.774 5.63315L14.274 11.1331C13.9243 11.5606 13.2942 11.6236 12.8668 11.2739C12.4393 10.9241 12.3763 10.2941 12.7261 9.86667L17.2261 4.36667C17.5758 3.93923 18.2058 3.87622 18.6333 4.22595Z" fill="#141B34"/>
<path fill-rule="evenodd" clip-rule="evenodd" d="M12 9.5C10.6193 9.5 9.5 10.6193 9.5 12C9.5 13.3807 10.6193 14.5 12 14.5C13.3807 14.5 14.5 13.3807 14.5 12C14.5 10.6193 13.3807 9.5 12 9.5ZM11.25 12C11.25 11.5858 11.5858 11.25 12 11.25C12.4142 11.25 12.75 11.5858 12.75 12C12.75 12.4142 12.4142 12.75 12 12.75C11.5858 12.75 11.25 12.4142 11.25 12Z" fill="#141B34"/>
</svg>
