<svg width="24" height="24" viewBox="0 0 24 24" fill="none" xmlns="http://www.w3.org/2000/svg">
<path d="M5 9H4.5C3.55719 9 3.08579 9 2.79289 9.29289C2.5 9.58579 2.5 10.0572 2.5 11V19.5C2.5 20.4428 2.5 20.9142 2.79289 21.2071C3.08579 21.5 3.55719 21.5 4.5 21.5H5C5.94281 21.5 6.41421 21.5 6.70711 21.2071C7 20.9142 7 20.4428 7 19.5V11C7 10.0572 7 9.58579 6.70711 9.29289C6.41421 9 5.94281 9 5 9Z" fill="#141B34"/>
<path d="M7 4.75C7 5.99264 5.99264 7 4.75 7C3.50736 7 2.5 5.99264 2.5 4.75C2.5 3.50736 3.50736 2.5 4.75 2.5C5.99264 2.5 7 3.50736 7 4.75Z" fill="#141B34"/>
<path d="M11.826 9H11C10.0572 9 9.58579 9 9.29289 9.29289C9 9.58579 9 10.0572 9 11V19.5C9 20.4428 9 20.9142 9.29289 21.2071C9.58579 21.5 10.0572 21.5 11 21.5H11.5C12.4428 21.5 12.9142 21.5 13.2071 21.2071C13.5 20.9142 13.5 20.4428 13.5 19.5L13.5001 16.0001C13.5001 14.3433 14.0281 13.0001 15.5879 13.0001C16.3677 13.0001 17 13.6717 17 14.5001V19.0001C17 19.9429 17 20.4143 17.2929 20.7072C17.5857 21.0001 18.0572 21.0001 19 21.0001H19.4987C20.4413 21.0001 20.9126 21.0001 21.2055 20.7073C21.4984 20.4145 21.4985 19.9432 21.4987 19.0006L21.5001 13.5002C21.5001 11.015 19.1364 9.00024 16.7968 9.00024C15.4649 9.00024 14.2767 9.65309 13.5001 10.674C13.5 10.0439 13.5 9.72893 13.3632 9.495C13.2765 9.34686 13.1531 9.22353 13.005 9.13687C12.7711 9 12.4561 9 11.826 9Z" fill="#141B34"/>
</svg>
