<svg width="24" height="24" viewBox="0 0 24 24" fill="none" xmlns="http://www.w3.org/2000/svg">
<path d="M9 12C9 10.3431 10.3431 9 12 9C13.6569 9 15 10.3431 15 12C15 13.6569 13.6569 15 12 15C10.3431 15 9 13.6569 9 12Z" fill="#141B34"/>
<path fill-rule="evenodd" clip-rule="evenodd" d="M8.20711 7.29289C8.59763 7.68342 8.59763 8.31658 8.20711 8.70711C7.43708 9.47713 7 10.6985 7 12C7 13.3015 7.43708 14.5229 8.20711 15.2929C8.59763 15.6834 8.59763 16.3166 8.20711 16.7071C7.81658 17.0976 7.18342 17.0976 6.79289 16.7071C5.56292 15.4771 5 13.6985 5 12C5 10.3015 5.56292 8.52287 6.79289 7.29289C7.18342 6.90237 7.81658 6.90237 8.20711 7.29289Z" fill="#141B34"/>
<path fill-rule="evenodd" clip-rule="evenodd" d="M5.20711 5.29289C5.59763 5.68342 5.59763 6.31658 5.20711 6.70711C3.87405 8.04016 3 9.79298 3 12C3 14.207 3.87405 15.9598 5.20711 17.2929C5.59763 17.6834 5.59763 18.3166 5.20711 18.7071C4.81658 19.0976 4.18342 19.0976 3.79289 18.7071C2.12595 17.0402 1 14.793 1 12C1 9.20702 2.12595 6.95984 3.79289 5.29289C4.18342 4.90237 4.81658 4.90237 5.20711 5.29289Z" fill="#141B34"/>
<path fill-rule="evenodd" clip-rule="evenodd" d="M15.7929 7.29289C16.1834 6.90237 16.8166 6.90237 17.2071 7.29289C18.4371 8.52287 19 10.3015 19 12C19 13.6985 18.4371 15.4771 17.2071 16.7071C16.8166 17.0976 16.1834 17.0976 15.7929 16.7071C15.4024 16.3166 15.4024 15.6834 15.7929 15.2929C16.5629 14.5229 17 13.3015 17 12C17 10.6985 16.5629 9.47713 15.7929 8.70711C15.4024 8.31658 15.4024 7.68342 15.7929 7.29289Z" fill="#141B34"/>
<path fill-rule="evenodd" clip-rule="evenodd" d="M18.7929 5.29289C19.1834 4.90237 19.8166 4.90237 20.2071 5.29289C21.8741 6.95984 23 9.20702 23 12C23 14.793 21.8741 17.0402 20.2071 18.7071C19.8166 19.0976 19.1834 19.0976 18.7929 18.7071C18.4024 18.3166 18.4024 17.6834 18.7929 17.2929C20.1259 15.9598 21 14.207 21 12C21 9.79298 20.126 8.04016 18.7929 6.70711C18.4024 6.31658 18.4024 5.68342 18.7929 5.29289Z" fill="#141B34"/>
</svg>
