<svg width="24" height="24" viewBox="0 0 24 24" fill="none" xmlns="http://www.w3.org/2000/svg">
<path fill-rule="evenodd" clip-rule="evenodd" d="M12 1.25C10.3431 1.25 9 2.59315 9 4.25C9 5.32282 9.56313 6.26411 10.4099 6.79442C7.47495 7.21056 5.69103 10.4748 6.86508 13.3582C7.12056 13.9857 7.71969 14.4167 8.40809 14.4167H8.9002L9.72805 17.9022C9.98103 18.9673 10.9033 19.75 12 19.75C13.0967 19.75 14.019 18.9673 14.2719 17.9022L15.0998 14.4167H15.5919C16.2803 14.4167 16.8794 13.9857 17.1349 13.3582C18.309 10.4748 16.525 7.21056 13.5901 6.79442C14.4369 6.26411 15 5.32282 15 4.25C15 2.59315 13.6569 1.25 12 1.25Z" fill="#141B34"/>
<path fill-rule="evenodd" clip-rule="evenodd" d="M6.64689 15.2554C6.92006 15.7354 6.75239 16.3459 6.27239 16.6191C5.26751 17.191 5 17.7343 5 18.0658C5 18.4568 5.38667 19.1295 6.76144 19.7626C8.05051 20.3563 9.90162 20.75 12 20.75C14.0984 20.75 15.9495 20.3563 17.2386 19.7626C18.6133 19.1295 19 18.4568 19 18.0658C19 17.7343 18.7325 17.191 17.7276 16.6191C17.2476 16.3459 17.0799 15.7354 17.3531 15.2554C17.6263 14.7754 18.2368 14.6077 18.7168 14.8809C19.9356 15.5745 21 16.6426 21 18.0658C21 19.7095 19.5958 20.8789 18.0752 21.5792C16.4688 22.319 14.3199 22.75 12 22.75C9.6801 22.75 7.53121 22.319 5.92485 21.5792C4.4042 20.8789 3 19.7095 3 18.0658C3 16.6426 4.0644 15.5745 5.28316 14.8809C5.76316 14.6077 6.37372 14.7754 6.64689 15.2554Z" fill="#141B34"/>
</svg>
