<svg width="24" height="24" viewBox="0 0 24 24" fill="none" xmlns="http://www.w3.org/2000/svg">
<path fill-rule="evenodd" clip-rule="evenodd" d="M5.96694 16.3881C6.30488 16.6276 6.38468 17.0957 6.14517 17.4337C5.44353 18.4237 5.0493 19.1199 4.86801 19.6386C4.69664 20.129 4.73698 20.3947 4.83185 20.5963C4.85462 20.6447 4.88149 20.6919 4.91237 20.7373C5.0086 20.8789 5.23551 21.0523 5.99683 21.1511C6.7471 21.2485 7.79637 21.25 9.29589 21.25H14.7041C16.2036 21.25 17.2529 21.2485 18.0032 21.1511C18.7645 21.0523 18.9914 20.8789 19.0876 20.7373C19.1185 20.6919 19.1454 20.6447 19.1682 20.5963C19.2631 20.3946 19.3034 20.1288 19.1322 19.6385C18.9511 19.1198 18.557 18.4236 17.8554 17.4337C17.6159 17.0957 17.6957 16.6276 18.0336 16.3881C18.3716 16.1486 18.8397 16.2284 19.0792 16.5663C19.7994 17.5826 20.2952 18.419 20.5483 19.1439C20.8114 19.8973 20.8306 20.5862 20.5254 21.2349C20.4689 21.3551 20.4029 21.4706 20.3282 21.5805C19.8528 22.28 19.0552 22.5272 18.1962 22.6386C17.3377 22.75 16.1903 22.75 14.7619 22.75H9.23813C7.80973 22.75 6.66228 22.75 5.80379 22.6386C4.9448 22.5272 4.14719 22.28 3.67178 21.5805C3.59707 21.4706 3.53109 21.3551 3.47456 21.2349C3.16931 20.5861 3.18876 19.897 3.45199 19.1438C3.70529 18.4189 4.20116 17.5825 4.92136 16.5663C5.16087 16.2284 5.62899 16.1486 5.96694 16.3881Z" fill="#141B34"/>
<path d="M6.11149 15.9341C6.56209 16.2535 6.66848 16.8777 6.34914 17.3282C5.65059 18.3139 5.27331 18.9867 5.10402 19.4711C4.94795 19.9177 4.99826 20.1128 5.05806 20.2399C5.07521 20.2764 5.09555 20.3121 5.11913 20.3468C5.15217 20.3954 5.28397 20.5565 6.029 20.6532C6.75931 20.748 7.78899 20.75 9.29589 20.75H14.7041C16.211 20.75 17.2407 20.748 17.971 20.6532C18.716 20.5565 18.8478 20.3954 18.8809 20.3468C18.9044 20.3121 18.9248 20.2764 18.9419 20.2399C19.0018 20.1126 19.0521 19.9174 18.8962 19.4709C18.727 18.9866 18.3499 18.3138 17.6514 17.3282C17.3321 16.8777 17.4385 16.2535 17.8891 15.9341C18.3397 15.6148 18.9638 15.7212 19.2832 16.1718C20.0065 17.1924 20.5192 18.0522 20.7844 18.8115C21.0628 19.6087 21.0919 20.3682 20.7516 21.0914C20.6895 21.2235 20.617 21.3504 20.535 21.471C19.9964 22.2635 19.1036 22.523 18.2284 22.6366C17.3537 22.7501 16.1926 22.7501 14.7784 22.75H9.22159C7.80739 22.7501 6.64633 22.7501 5.77161 22.6366C4.89635 22.523 4.00362 22.2635 3.46501 21.471C3.383 21.3504 3.3105 21.2235 3.24835 21.0914C2.90803 20.368 2.93745 19.6084 3.21598 18.8113C3.48129 18.0521 3.9941 17.1923 4.71739 16.1718C5.03673 15.7212 5.6609 15.6148 6.11149 15.9341Z" fill="#141B34"/>
<path fill-rule="evenodd" clip-rule="evenodd" d="M12 1.25C10.3431 1.25 9 2.59315 9 4.25C9 5.32282 9.56313 6.26411 10.4099 6.79442C7.47495 7.21056 5.69103 10.4748 6.86508 13.3582C7.12056 13.9857 7.71969 14.4167 8.40809 14.4167H8.9002L9.72805 17.9022C9.98103 18.9673 10.9033 19.75 12 19.75C13.0967 19.75 14.019 18.9673 14.2719 17.9022L15.0998 14.4167H15.5919C16.2803 14.4167 16.8794 13.9857 17.1349 13.3582C18.309 10.4748 16.525 7.21056 13.5901 6.79442C14.4369 6.26411 15 5.32282 15 4.25C15 2.59315 13.6569 1.25 12 1.25Z" fill="#141B34"/>
</svg>
