<svg width="24" height="24" viewBox="0 0 24 24" fill="none" xmlns="http://www.w3.org/2000/svg">
<path d="M11.9998 3C8.31083 3 5.138 5.21965 3.74829 8.40037C3.52717 8.90646 2.93765 9.13747 2.43156 8.91635C1.92548 8.69523 1.69446 8.10572 1.91558 7.59963C3.61209 3.71673 7.48759 1 11.9998 1C18.075 1 22.9998 5.92487 22.9998 12C22.9998 12.3466 22.8204 12.6684 22.5256 12.8507C22.2308 13.0329 21.8626 13.0494 21.5526 12.8944L19.5526 11.8944C19.088 11.6621 18.8833 11.1169 19.0661 10.6419C19.0792 10.608 19.0857 10.591 19.1028 10.5646C19.12 10.5382 19.1381 10.5201 19.1743 10.4839L20.2684 9.38983C20.3978 9.26038 20.4625 9.19566 20.481 9.10875C20.4995 9.02184 20.4681 8.94011 20.4054 8.77665C19.1091 5.39824 15.8345 3 11.9998 3Z" fill="#141B34"/>
<path d="M1.47412 11.1493C1.76893 10.9671 2.13707 10.9506 2.44706 11.1056L4.44706 12.1056C4.91169 12.3379 5.11644 12.8831 4.93359 13.3581C4.92054 13.3921 4.91401 13.409 4.89686 13.4354C4.87971 13.4618 4.86162 13.4799 4.82543 13.5161L3.73132 14.6102C3.60187 14.7396 3.53715 14.8043 3.51867 14.8913C3.50019 14.9782 3.53155 15.0599 3.59427 15.2233C4.89062 18.6018 8.16517 21 11.9998 21C15.6889 21 18.8617 18.7803 20.2514 15.5996C20.4725 15.0935 21.062 14.8625 21.5681 15.0836C22.0742 15.3048 22.3052 15.8943 22.0841 16.4004C20.3876 20.2833 16.5121 23 11.9998 23C5.92472 23 0.999847 18.0751 0.999847 12C0.999847 11.6534 1.1793 11.3316 1.47412 11.1493Z" fill="#141B34"/>
<path fill-rule="evenodd" clip-rule="evenodd" d="M11.9998 6.25C9.15964 6.25 6.74985 8.59305 6.74985 11.4629C6.74985 12.9384 7.37623 14.1598 8.22394 15.1457C9.0647 16.1236 10.149 16.9016 11.1416 17.516L11.1545 17.524L11.1677 17.5315C11.4217 17.6748 11.7084 17.75 11.9998 17.75C12.2913 17.75 12.578 17.6748 12.832 17.5315L12.8435 17.525L12.8548 17.5181C13.8527 16.9074 14.9374 16.1268 15.7779 15.1459C16.6247 14.1576 17.2498 12.9337 17.2498 11.4629C17.2498 8.59305 14.8401 6.25 11.9998 6.25ZM11.9909 9.5C10.8913 9.5 9.99985 10.3954 9.99985 11.5C9.99985 12.6046 10.8913 13.5 11.9909 13.5H12.0088C13.1084 13.5 13.9998 12.6046 13.9998 11.5C13.9998 10.3954 13.1084 9.5 12.0088 9.5H11.9909Z" fill="#141B34"/>
</svg>
