<svg width="24" height="24" viewBox="0 0 24 24" fill="none" xmlns="http://www.w3.org/2000/svg">
<path fill-rule="evenodd" clip-rule="evenodd" d="M6.68802 1.93059C8.03144 1.74998 9.75212 1.74999 11.9428 1.75H12.0572C14.2479 1.74999 15.9686 1.74998 17.312 1.93059C18.6886 2.11568 19.7809 2.50272 20.6391 3.36091C21.4973 4.21911 21.8843 5.31137 22.0694 6.68802C22.25 8.03144 22.25 9.75212 22.25 11.9428V12.0572C22.25 14.2479 22.25 15.9686 22.0694 17.312C21.8843 18.6886 21.4973 19.7809 20.6391 20.6391C19.7809 21.4973 18.6886 21.8843 17.312 22.0694C15.9686 22.25 14.2479 22.25 12.0572 22.25H12.0572H11.9428H11.9428C9.7521 22.25 8.03144 22.25 6.68802 22.0694C5.31137 21.8843 4.21911 21.4973 3.36091 20.6391C2.50271 19.7809 2.11568 18.6886 1.93059 17.312C1.74998 15.9686 1.74999 14.2479 1.75 12.0572V12.0572V11.9428V11.9428C1.74999 9.7521 1.74998 8.03144 1.93059 6.68802C2.11568 5.31137 2.50271 4.21911 3.36091 3.36091C4.21911 2.50272 5.31137 2.11568 6.68802 1.93059ZM17.75 16L17.75 8C17.75 7.58579 17.4142 7.25 17 7.25C16.5858 7.25 16.25 7.58579 16.25 8L16.25 16C16.25 16.4142 16.5858 16.75 17 16.75C17.4142 16.75 17.75 16.4142 17.75 16ZM6.25 12C6.25 12.4142 6.58579 12.75 7 12.75H11.25V13.061C11.25 13.3347 11.2499 13.6033 11.2736 13.8111C11.2921 13.9739 11.3538 14.4463 11.7721 14.6628C12.1907 14.8795 12.57 14.6345 12.6986 14.5482C12.8633 14.4377 13.057 14.2689 13.2545 14.0969L13.2826 14.0724C13.5848 13.8093 13.9202 13.5032 14.184 13.2002C14.3158 13.0489 14.446 12.88 14.5468 12.7015C14.6414 12.5338 14.75 12.2885 14.75 12C14.75 11.7115 14.6414 11.4662 14.5468 11.2985C14.446 11.12 14.3158 10.9511 14.184 10.7998C13.9202 10.4968 13.5848 10.1907 13.2826 9.92757L13.2545 9.90312C13.057 9.73106 12.8633 9.56231 12.6986 9.4518C12.57 9.36549 12.1907 9.12048 11.7721 9.33716C11.3538 9.55368 11.2921 10.0261 11.2736 10.1889C11.2499 10.3967 11.25 10.6653 11.25 10.939V11.25H7C6.58579 11.25 6.25 11.5858 6.25 12Z" fill="#141B34"/>
</svg>
