<svg width="24" height="24" viewBox="0 0 24 24" fill="none" xmlns="http://www.w3.org/2000/svg">
<path fill-rule="evenodd" clip-rule="evenodd" d="M8.95499 2.7868C10.908 2.73773 12.842 2.73773 14.795 2.78681L14.8532 2.78827C16.378 2.82656 17.605 2.85737 18.5883 3.02862C19.6178 3.20791 20.4545 3.55179 21.1614 4.26134C21.8653 4.96792 22.2074 5.79261 22.3832 6.80542C22.5507 7.76979 22.5762 8.96683 22.6078 10.4497L22.6091 10.5084C22.6303 11.5047 22.6303 12.4953 22.6091 13.4916C22.6091 13.4917 22.5978 14.0219 22.5849 14.5101C22.5775 14.7883 22.5738 14.9274 22.4837 15.0129C22.3936 15.0984 22.2538 15.0948 21.9741 15.0876L19.3132 15.0187C19.0894 15.0129 18.9775 15.01 18.9021 14.9551C18.8266 14.9002 18.783 14.7766 18.6959 14.5293C18.5258 14.0471 18.1574 13.4037 17.3542 13.0141C16.0474 12.3802 14.9226 13.0661 14.7588 13.166L14.7492 13.1719L14.7461 13.1737C14.5114 13.3152 14.2771 13.4994 14.1501 13.5993L14.1002 13.6384C13.7332 13.9261 13.1861 14.3557 12.7286 14.8008C12.5005 15.0227 12.2216 15.3178 11.9836 15.6638C11.789 15.9467 11.375 16.6082 11.375 17.5C11.375 18.3918 11.789 19.0534 11.9836 19.3363C12.2216 19.6823 12.5005 19.9774 12.7286 20.1993C13.1762 20.6348 13.4 20.8525 13.3565 21.0211C13.3497 21.0475 13.3405 21.0701 13.3271 21.0938C13.2414 21.2454 12.9431 21.2466 12.3465 21.249C11.2174 21.2537 10.0894 21.2417 8.95499 21.2132L8.89677 21.2117C7.37197 21.1735 6.14501 21.1426 5.1617 20.9714C4.1322 20.7921 3.29548 20.4482 2.58862 19.7387C1.88472 19.0321 1.54264 18.2074 1.36676 17.1946C1.19929 16.2302 1.17379 15.0332 1.14219 13.5504L1.14094 13.4916C1.11969 12.4953 1.11969 11.5047 1.14093 10.5084L1.14219 10.4496C1.17378 8.9668 1.19929 7.76978 1.36676 6.8054C1.54264 5.7926 1.88471 4.9679 2.58862 4.26132C3.29548 3.55177 4.1322 3.20789 5.1617 3.0286C6.14502 2.85735 7.372 2.82655 8.89682 2.78826L8.95499 2.7868ZM7.25682 7.8544C6.90027 7.64359 6.44033 7.76174 6.22952 8.11829C6.01871 8.47485 6.13686 8.93479 6.49341 9.1456L9.43543 10.885C10.3063 11.3999 11.0577 11.75 11.8751 11.75C12.6925 11.75 13.444 11.3999 14.3148 10.885L17.2568 9.1456C17.6134 8.93479 17.7315 8.47485 17.5207 8.11829C17.3099 7.76174 16.85 7.64359 16.4934 7.8544L13.5514 9.59383C12.707 10.093 12.2581 10.25 11.8751 10.25C11.4921 10.25 11.0432 10.093 10.1988 9.59383L7.25682 7.8544Z" fill="#141B34"/>
<path fill-rule="evenodd" clip-rule="evenodd" d="M21.875 18.5059C22.4273 18.5059 22.875 18.0581 22.875 17.5059C22.875 16.9536 22.4273 16.5059 21.875 16.5059L17.375 16.5059L17.375 15.9116C17.3751 15.736 17.3753 15.5203 17.3532 15.3439L17.3528 15.3405C17.337 15.2141 17.2652 14.638 16.6996 14.3637C16.1327 14.0887 15.6326 14.3907 15.5244 14.456L15.5204 14.4584C15.3674 14.5506 15.1965 14.6848 15.0559 14.7951L15.0257 14.8188C14.6498 15.1135 14.1656 15.4954 13.7746 15.8759C13.5795 16.0657 13.3783 16.283 13.2194 16.5139C13.0782 16.7191 12.875 17.0693 12.875 17.5C12.875 17.9307 13.0782 18.2809 13.2194 18.4861C13.3783 18.717 13.5795 18.9343 13.7746 19.1241C14.1656 19.5046 14.6498 19.8865 15.0257 20.1812L15.0559 20.2049C15.1965 20.3152 15.3673 20.4494 15.5204 20.5416L15.5244 20.544C15.6326 20.6093 16.1328 20.9113 16.6996 20.6363C17.2652 20.362 17.337 19.7859 17.3528 19.6595L17.3532 19.6561C17.3753 19.4797 17.3751 19.264 17.375 19.0884L17.375 18.5059L21.875 18.5059Z" fill="#141B34"/>
</svg>
