<svg width="24" height="24" viewBox="0 0 24 24" fill="none" xmlns="http://www.w3.org/2000/svg">
<path fill-rule="evenodd" clip-rule="evenodd" d="M8.95499 1.6618C10.908 1.61273 12.842 1.61273 14.795 1.66181L14.8532 1.66327C16.378 1.70156 17.605 1.73237 18.5883 1.90362C19.6178 2.08291 20.4545 2.42679 21.1614 3.13634C21.8653 3.84292 22.2074 4.66761 22.3832 5.68042C22.5507 6.64479 22.5762 7.84183 22.6078 9.32467L22.6091 9.3834C22.6303 10.3797 22.6303 11.3703 22.6091 12.3666L22.6078 12.4255L22.6078 12.4258C22.5931 13.1145 22.5798 13.7416 22.5529 14.3124C22.5412 14.5591 22.5354 14.6825 22.4788 14.7568C22.4567 14.7858 22.4405 14.8012 22.4106 14.8219C22.3336 14.875 22.1808 14.875 21.875 14.875H20.975C20.6922 14.875 20.5507 14.875 20.4629 14.7871C20.375 14.6993 20.375 14.5578 20.375 14.275V13.375C20.375 11.9943 19.2557 10.875 17.875 10.875C16.4943 10.875 15.375 11.9943 15.375 13.375V14.275C15.375 14.5578 15.375 14.6993 15.2871 14.7871C15.1993 14.875 15.0578 14.875 14.775 14.875H13.875C12.4943 14.875 11.375 15.9943 11.375 17.375V19.5213C11.375 19.8056 11.375 19.9477 11.2861 20.0358C11.1972 20.1238 11.0556 20.1224 10.7724 20.1197C10.1677 20.114 9.56226 20.1035 8.95499 20.0882L8.89677 20.0867C7.37197 20.0485 6.14501 20.0176 5.1617 19.8464C4.1322 19.6671 3.29548 19.3232 2.58862 18.6137C1.88472 17.9071 1.54264 17.0824 1.36676 16.0696C1.19929 15.1052 1.17379 13.9082 1.14219 12.4254L1.14094 12.3666C1.11969 11.3703 1.11969 10.3797 1.14093 9.38339L1.14219 9.32465C1.17378 7.8418 1.19929 6.64478 1.36676 5.6804C1.54264 4.6676 1.88471 3.8429 2.58862 3.13632C3.29548 2.42677 4.1322 2.08289 5.1617 1.9036C6.14502 1.73235 7.372 1.70155 8.89682 1.66326L8.95499 1.6618ZM7.25682 6.72939C6.90027 6.51858 6.44033 6.63674 6.22952 6.99329C6.01871 7.34985 6.13686 7.80979 6.49341 8.0206L9.43543 9.76003C10.3063 10.2749 11.0577 10.625 11.8751 10.625C12.6925 10.625 13.444 10.2749 14.3148 9.76003L17.2568 8.0206C17.6134 7.80979 17.7315 7.34985 17.5207 6.99329C17.3099 6.63674 16.85 6.51858 16.4934 6.72939L13.5514 8.46882C12.707 8.96804 12.2581 9.125 11.8751 9.125C11.4921 9.125 11.0432 8.96804 10.1988 8.46882L7.25682 6.72939Z" fill="#141B34"/>
<path fill-rule="evenodd" clip-rule="evenodd" d="M17.875 12.375C18.4273 12.375 18.875 12.8227 18.875 13.375V16.375H21.875C22.4273 16.375 22.875 16.8227 22.875 17.375C22.875 17.9273 22.4273 18.375 21.875 18.375H18.875V21.375C18.875 21.9273 18.4273 22.375 17.875 22.375C17.3227 22.375 16.875 21.9273 16.875 21.375V18.375H13.875C13.3227 18.375 12.875 17.9273 12.875 17.375C12.875 16.8227 13.3227 16.375 13.875 16.375H16.875L16.875 13.375C16.875 12.8227 17.3227 12.375 17.875 12.375Z" fill="#141B34"/>
</svg>
