<svg width="24" height="24" viewBox="0 0 24 24" fill="none" xmlns="http://www.w3.org/2000/svg">
<path d="M7.948 12.25L8 12.25C8.29639 12.25 8.56499 12.4246 8.68536 12.6954L12 20.1533L15.3146 12.6954C15.435 12.4246 15.7036 12.25 16 12.25L16.052 12.25C16.9505 12.25 17.6997 12.2499 18.2945 12.3299C18.9223 12.4143 19.4891 12.6 19.9445 13.0555C20.4 13.5109 20.5857 14.0777 20.6701 14.7055C20.7501 15.3003 20.75 16.0495 20.75 16.948V18.7505C20.75 20.6361 20.75 21.5789 20.1642 22.1647C19.5784 22.7505 18.6356 22.7505 16.75 22.7505H7.25C5.36438 22.7505 4.42158 22.7505 3.83579 22.1647C3.25 21.5789 3.25 20.6361 3.25 18.7505V16.948C3.24997 16.0495 3.24995 15.3003 3.32991 14.7055C3.41432 14.0777 3.59999 13.5109 4.05546 13.0555C4.51093 12.6 5.07773 12.4143 5.70552 12.3299C6.3003 12.2499 7.04954 12.25 7.948 12.25Z" fill="#141B34"/>
<path fill-rule="evenodd" clip-rule="evenodd" d="M10.362 12.6057C10.4987 12.3846 10.7401 12.25 11 12.25H13C13.2599 12.25 13.5013 12.3846 13.638 12.6057C13.7746 12.8268 13.7871 13.1029 13.6708 13.3354L12.7724 15.1323L13.2442 18.907C13.2581 19.0181 13.2469 19.1309 13.2115 19.2372L12.7115 20.7372C12.6094 21.0434 12.3228 21.25 12 21.25C11.6772 21.25 11.3906 21.0434 11.2885 20.7372L10.7885 19.2372C10.7531 19.1309 10.7419 19.0181 10.7558 18.907L11.2276 15.1323L10.3292 13.3354C10.2129 13.1029 10.2254 12.8268 10.362 12.6057Z" fill="#141B34"/>
<path d="M7.75 5.5C7.75 3.15279 9.65279 1.25 12 1.25C14.3472 1.25 16.25 3.15279 16.25 5.5V6.5C16.25 8.84721 14.3472 10.75 12 10.75C9.65279 10.75 7.75 8.84721 7.75 6.5V5.5Z" fill="#141B34"/>
</svg>
