<svg width="24" height="24" viewBox="0 0 24 24" fill="none" xmlns="http://www.w3.org/2000/svg">
<path d="M13.7509 12.7992C15.2543 11.8884 16.6561 12.2607 17.4977 12.885C18.3393 12.2607 19.741 11.8884 21.2444 12.7992C22.3383 13.4619 22.9087 14.8145 22.7073 16.2976C22.5042 17.7934 21.5342 19.4182 19.5875 20.8413C18.9616 21.2999 18.349 21.7488 17.4977 21.7488C16.6464 21.7488 16.0337 21.2999 15.4078 20.8413C13.4611 19.4182 12.4912 17.7934 12.288 16.2976C12.0866 14.8145 12.657 13.4619 13.7509 12.7992Z" fill="#141B34"/>
<path fill-rule="evenodd" clip-rule="evenodd" d="M2.65346 3.07898C2.97508 2.67299 3.48417 2.25012 4.18182 2.25012C4.87947 2.25012 5.38856 2.67299 5.71018 3.07898C6.04048 3.49593 6.29519 4.03901 6.49101 4.62344C6.66322 5.1374 6.80605 5.76278 6.91064 6.41749C6.94474 6.63094 6.96179 6.73767 7.03474 6.78617C7.10769 6.83466 7.2129 6.80904 7.42333 6.75778C8.75733 6.43286 10.331 6.25012 12.0002 6.25012C13.661 6.25012 15.2272 6.43102 16.5568 6.75287C16.7663 6.80358 16.8711 6.82893 16.9437 6.78108C17.0163 6.73323 17.0343 6.62672 17.0704 6.41372C17.181 5.76087 17.3378 5.13446 17.509 4.62344C17.7048 4.03901 17.9595 3.49593 18.2898 3.07898C18.6114 2.67299 19.1205 2.25012 19.8182 2.25012C20.5158 2.25012 21.0249 2.67299 21.3465 3.07898C21.6768 3.49593 21.9316 4.03901 22.1274 4.62344C22.5224 5.80247 22.75 7.36943 22.75 9.05568C22.75 9.77948 22.7252 10.5216 22.6323 11.2585C22.6014 11.5037 22.5859 11.6263 22.5107 11.6771C22.4942 11.6882 22.4783 11.6959 22.4594 11.7019C22.3728 11.7293 22.2562 11.6587 22.0228 11.5173C21.6889 11.315 21.3561 11.1576 21.0275 11.0398C20.8691 10.983 20.7899 10.9546 20.7531 10.8972C20.7163 10.8398 20.7234 10.7588 20.7376 10.5966C20.7802 10.1093 20.796 9.5956 20.796 9.05566C20.796 7.52024 20.586 6.17054 20.2737 5.23831C20.2085 5.04387 20.1419 4.87667 20.0765 4.73516C19.9899 4.54787 19.9466 4.45423 19.8187 4.45423C19.6908 4.45423 19.6475 4.54787 19.561 4.73516C19.4955 4.87667 19.4289 5.04387 19.3638 5.23831C19.0514 6.17054 18.8414 7.52024 18.8414 9.05566C18.8414 9.50787 18.8826 9.91839 18.9537 10.2883C18.9974 10.5154 19.0192 10.629 18.972 10.6979C18.9248 10.7667 18.8098 10.7876 18.5798 10.8293C18.2567 10.8879 17.9494 10.9786 17.6621 11.0934C17.5789 11.1266 17.5373 11.1433 17.4988 11.1433C17.4604 11.1433 17.4188 11.1266 17.3356 11.0934C16.128 10.6107 14.5646 10.5542 12.9748 11.5173C11.2742 12.5476 10.5373 14.5449 10.8028 16.5004C10.9474 17.5649 11.3735 18.6176 12.0708 19.6108C12.1118 19.6691 12.0712 19.7501 12 19.7501C7.89676 19.7501 4.25559 17.5402 2.3242 14.3433C1.39798 12.7002 1.25 10.8233 1.25 9.05568C1.25 7.36943 1.47758 5.80247 1.87262 4.62344C2.06845 4.03901 2.32316 3.49593 2.65346 3.07898ZM3.20508 9.05566C3.20508 7.52024 3.41504 6.17054 3.7274 5.23831C3.79255 5.04387 3.85917 4.87667 3.92459 4.73516C4.01118 4.54787 4.05448 4.45423 4.18235 4.45423C4.31022 4.45423 4.35352 4.54787 4.44011 4.73516C4.50554 4.87667 4.57215 5.04387 4.6373 5.23831C4.94966 6.17054 5.15962 7.52024 5.15962 9.05566C5.15962 10.454 4.76593 11.4538 4.31109 12.0872C4.23832 12.1886 4.16572 12.2786 4.09442 12.3585C3.94662 12.5242 3.87272 12.607 3.75753 12.5806C3.64234 12.5543 3.61009 12.4415 3.54559 12.2158C3.28026 11.2877 3.20508 10.2343 3.20508 9.05566Z" fill="#141B34"/>
</svg>
