<svg width="24" height="24" viewBox="0 0 24 24" fill="none" xmlns="http://www.w3.org/2000/svg">
<path fill-rule="evenodd" clip-rule="evenodd" d="M15.9285 2.62166C16.1336 2.10887 15.8842 1.5269 15.3714 1.32179C14.8586 1.11668 14.2766 1.36609 14.0715 1.87888L13.0715 4.37888C12.8664 4.89166 13.1158 5.47363 13.6286 5.67874C14.1414 5.88386 14.7234 5.63444 14.9285 5.12166L15.9285 2.62166ZM10.4191 1.85635C10.2016 1.34872 9.61371 1.11357 9.10608 1.33112C8.59845 1.54867 8.36329 2.13655 8.58085 2.64418L11.0119 8.31674C10.522 8.38347 10.0478 8.49914 9.59411 8.65866L6.40618 1.82738C6.17262 1.32691 5.57758 1.11053 5.07711 1.34408C4.57664 1.57764 4.36026 2.17268 4.59381 2.67315L7.81614 9.57814C5.96089 10.8912 4.74976 13.0542 4.74976 15.5C4.74976 19.5041 7.99569 22.75 11.9998 22.75C16.0038 22.75 19.2498 19.5041 19.2498 15.5C19.2498 13.0543 18.0388 10.8915 16.1837 9.57839L19.4062 2.67315C19.6397 2.17268 19.4234 1.57764 18.9229 1.34408C18.4224 1.11053 17.8274 1.32691 17.5938 1.82738L14.4058 8.6588C14.0185 8.52257 13.6161 8.41831 13.2017 8.34918L10.4191 1.85635ZM12.3942 12.362C12.6153 12.4987 12.7499 12.7401 12.7499 13V17.25H12.9999C13.4141 17.25 13.7499 17.5858 13.7499 18C13.7499 18.4142 13.4141 18.75 12.9999 18.75H10.9999C10.5857 18.75 10.2499 18.4142 10.2499 18C10.2499 17.5858 10.5857 17.25 10.9999 17.25H11.2499V14.2072C10.8981 14.3321 10.5003 14.1778 10.3291 13.8354C10.1439 13.4649 10.294 13.0144 10.6645 12.8292L11.6645 12.3292C11.897 12.2129 12.1731 12.2254 12.3942 12.362Z" fill="#141B34"/>
</svg>
