<svg width="24" height="24" viewBox="0 0 24 24" fill="none" xmlns="http://www.w3.org/2000/svg">
<path fill-rule="evenodd" clip-rule="evenodd" d="M7.13803 1.25001C7.1555 1.25001 7.17298 1.25001 7.19047 1.25001H12.8093C12.8268 1.25001 12.8443 1.25001 12.8617 1.25001C13.2575 1.24992 13.6462 1.24984 13.9675 1.29213C14.3328 1.34021 14.7494 1.45785 15.0934 1.7945C15.4172 2.11146 15.5591 2.55295 15.6316 2.86788C15.7135 3.22385 15.7499 3.62047 15.7499 4C15.7499 4.37953 15.7135 4.77615 15.6316 5.13212C15.5591 5.44705 15.4172 5.88854 15.0934 6.2055C14.7494 6.54215 14.3328 6.65979 13.9675 6.70787C13.6462 6.75016 13.2575 6.75008 12.8617 6.74999C12.8443 6.74999 12.8268 6.74999 12.8093 6.74999H7.19047C7.17298 6.74999 7.1555 6.74999 7.13804 6.74999C6.74228 6.75008 6.3536 6.75016 6.03229 6.70787C5.66691 6.65979 5.25033 6.54215 4.9064 6.2055C4.5826 5.88854 4.44069 5.44705 4.3682 5.13212C4.28626 4.77615 4.24988 4.37953 4.24988 4C4.24988 3.62047 4.28626 3.22385 4.3682 2.86788C4.44069 2.55295 4.5826 2.11146 4.9064 1.7945C5.25033 1.45785 5.66691 1.34021 6.03229 1.29213C6.3536 1.24984 6.74228 1.24992 7.13803 1.25001ZM6.28301 3.10977C6.27079 3.14465 6.25563 3.19431 6.24003 3.26208C6.1941 3.46164 6.16654 3.72227 6.16654 4C6.16654 4.27773 6.1941 4.53836 6.24003 4.73792C6.25563 4.80569 6.27079 4.85535 6.28301 4.89023C6.28639 4.8907 6.2899 4.89118 6.29353 4.89166C6.46806 4.91462 6.72131 4.91666 7.19047 4.91666H12.8093C13.2784 4.91666 13.5317 4.91462 13.7062 4.89166C13.7099 4.89118 13.7134 4.8907 13.7167 4.89023C13.729 4.85535 13.7441 4.80569 13.7597 4.73792C13.8057 4.53836 13.8332 4.27773 13.8332 4C13.8332 3.72227 13.8057 3.46164 13.7597 3.26208C13.7441 3.19431 13.729 3.14465 13.7167 3.10977C13.7134 3.1093 13.7099 3.10882 13.7062 3.10834C13.5317 3.08538 13.2784 3.08334 12.8093 3.08334H7.19047C6.72131 3.08334 6.46806 3.08538 6.29353 3.10834C6.2899 3.10882 6.28639 3.1093 6.28301 3.10977Z" fill="#141B34"/>
<path d="M17.9495 14.4396C18.1608 14.1817 18.2664 14.0528 18.2285 13.9055C18.1906 13.7582 18.0484 13.7014 17.764 13.5877C15.8914 12.8393 13.6734 13.347 12.3275 14.99C10.9816 16.633 10.9204 18.9074 12.0228 20.5961C12.1902 20.8526 12.2739 20.9808 12.4257 20.989C12.5776 20.9972 12.6833 20.8682 12.8945 20.6103L17.9495 14.4396Z" fill="#141B34"/>
<path d="M19.1097 15.3904C19.3211 15.1324 19.4267 15.0035 19.5786 15.0117C19.7305 15.0199 19.8142 15.1482 19.9816 15.4047C21.0835 17.0933 21.022 19.3673 19.6763 21.0101C18.3306 22.6528 16.1131 23.1606 14.2407 22.4127C13.9562 22.299 13.814 22.2422 13.776 22.0949C13.7381 21.9476 13.8437 21.8187 14.055 21.5607L19.1097 15.3904Z" fill="#141B34"/>
<path d="M5.32925 6.33538L5.22071 6.1183C5.02612 5.72912 4.92883 5.53453 5.01676 5.39225C5.1047 5.24997 5.32225 5.24997 5.75737 5.24997H14.2428C14.6779 5.24997 14.8954 5.24997 14.9834 5.39225C15.0713 5.53453 14.974 5.72912 14.7794 6.1183L14.6709 6.33538C14.4978 6.68151 14.4391 6.8015 14.3986 6.91257C14.1691 7.54215 14.2321 8.24128 14.5706 8.81965C14.6303 8.92168 14.7095 9.02923 14.9417 9.33882L15.3879 9.93369C15.7972 10.4794 16.0611 10.8311 16.2552 11.2223C16.2992 11.3109 16.3212 11.3553 16.3285 11.3993C16.3526 11.5435 16.2641 11.6891 16.125 11.7341C16.0826 11.7478 16.0192 11.749 15.8923 11.7512C14.1229 11.7829 12.3778 12.5617 11.1672 14.0394C9.39485 16.2029 9.31703 19.1953 10.7668 21.416C10.7959 21.4686 10.8309 21.5275 10.8716 21.5914C11.2308 22.156 11.4104 22.4384 11.325 22.594C11.2396 22.7496 10.9391 22.7497 10.3383 22.7499C10.2451 22.75 10.1507 22.75 10.0549 22.75C8.68735 22.75 7.47529 22.75 6.60832 22.6334C5.70821 22.5124 4.95034 22.2535 4.34842 21.6516C3.74651 21.0497 3.48761 20.2918 3.3666 19.3917C3.25003 18.5248 3.25005 17.4224 3.25007 16.0549L3.25007 14.0203C3.24997 13.3382 3.24992 12.8984 3.32936 12.4691C3.40945 12.0362 3.54932 11.6166 3.74495 11.2223C3.939 10.8311 4.20289 10.4794 4.61226 9.93371L5.05843 9.33882C5.29063 9.02923 5.36984 8.92168 5.42954 8.81965C5.768 8.24128 5.83104 7.54215 5.6015 6.91256C5.56101 6.80151 5.50231 6.6815 5.32925 6.33538Z" fill="#141B34"/>
</svg>
