<svg width="24" height="24" viewBox="0 0 24 24" fill="none" xmlns="http://www.w3.org/2000/svg">
<path d="M6.31154 22.6472C7.29379 22.75 9.85661 22.75 11.3977 22.75C11.9375 22.75 12.375 22.3124 12.375 21.7727C12.375 21.233 11.9375 20.7954 11.3977 20.7954C9.78909 20.7954 7.38285 20.7941 6.5134 20.7032C5.65948 20.6138 5.17555 20.4471 4.81772 20.194C4.57627 20.0233 4.36389 19.8222 4.1861 19.5978C3.93053 19.2753 3.76109 18.8425 3.66886 18.0558C3.57393 17.246 3.57235 16.1887 3.57235 14.6652L3.57227 11.765C3.57225 11.498 3.57242 10.8595 3.85304 10.3873C4.02597 10.0963 4.24739 9.8532 4.47484 9.72938C4.84135 9.52986 5.26154 9.4165 5.70821 9.4165L6.74858 9.45299C7.12867 9.46088 7.57221 9.44887 8.00036 9.33415C8.83433 9.11069 9.48574 8.45928 9.7092 7.62531C9.82392 7.19716 9.83593 6.75362 9.82804 6.37353L9.79155 5.33316C9.79155 4.86547 9.91593 4.45834 10.1333 4.07993C10.26 3.85934 10.4807 3.65745 10.7855 3.48014C11.2476 3.21123 11.801 3.20874 12.1392 3.20722C12.4773 3.20569 12.8341 3.20452 13.1322 3.20452C14.9663 3.20452 15.6334 3.21847 16.1368 3.39582C17.0094 3.70328 17.6751 4.34492 17.9852 5.13029C18.0628 5.32693 18.1177 5.58535 18.1471 6.0333C18.1771 6.48997 18.1776 7.07292 18.1776 7.91318V9.02627C18.1776 9.56402 18.6136 9.99996 19.1513 9.99996C19.6891 9.99996 20.125 9.56402 20.125 9.02627V7.88C20.125 7.08084 20.125 6.43328 20.0903 5.9047C20.0545 5.36007 19.9789 4.8744 19.7956 4.41024C19.2668 3.07093 18.1584 2.03666 16.7818 1.55166C15.923 1.24907 14.4509 1.24946 12.8959 1.25C10.0563 1.24964 8.36965 1.24943 6.98721 1.73651C4.76721 2.51869 2.99348 4.18143 2.15009 6.31749C1.86897 7.02945 1.74444 7.79416 1.68419 8.711C1.625 9.61171 1.625 10.7243 1.625 12.1426V12.1426V14.7261C1.62498 16.1742 1.62496 17.3469 1.73485 18.2842C1.84896 19.2576 2.09221 20.0955 2.66204 20.8145C2.95722 21.187 3.30577 21.5158 3.69614 21.7919C4.4409 22.3185 5.30212 22.5416 6.31154 22.6472Z" fill="#141B34"/>
<path fill-rule="evenodd" clip-rule="evenodd" d="M16.907 11.0023C17.3179 10.9743 17.7039 11.2011 17.8795 11.5736L19.4715 14.9504C19.6279 15.2824 19.715 15.4644 19.7905 15.5902C19.8051 15.6145 19.8169 15.6326 19.8259 15.6456C19.8366 15.6473 19.8499 15.6491 19.8662 15.6509C19.9979 15.6653 20.1821 15.6667 20.5347 15.6667H21.375C21.9273 15.6667 22.375 16.1144 22.375 16.6667C22.375 17.219 21.9273 17.6667 21.375 17.6667H20.5347C20.5213 17.6667 20.5078 17.6667 20.4944 17.6667C20.1987 17.6667 19.9023 17.6668 19.6482 17.6389C19.3566 17.607 19.038 17.5318 18.7283 17.3288C18.4224 17.1282 18.2249 16.8681 18.0755 16.6191C17.9421 16.3968 17.8125 16.1218 17.679 15.8385C17.6735 15.8268 17.668 15.815 17.6624 15.8033L17.1617 14.7412L15.729 19.2998C15.6055 19.6927 15.2538 19.9697 14.843 19.9977C14.4321 20.0257 14.0461 19.7989 13.8705 19.4264L12.2785 16.0496C12.1221 15.7177 12.035 15.5357 11.9595 15.4098C11.9449 15.3855 11.9331 15.3675 11.9241 15.3544C11.9134 15.3527 11.9001 15.351 11.8838 15.3492C11.7521 15.3347 11.5679 15.3333 11.2153 15.3333H10.375C9.82272 15.3333 9.375 14.8856 9.375 14.3333C9.375 13.7811 9.82272 13.3333 10.375 13.3333H11.2153C11.2287 13.3333 11.2422 13.3333 11.2556 13.3333C11.5513 13.3333 11.8477 13.3332 12.1018 13.3611C12.3934 13.3931 12.712 13.4682 13.0217 13.6712C13.3276 13.8718 13.5251 14.1319 13.6745 14.3809C13.8079 14.6032 13.9375 14.8782 14.071 15.1615C14.0765 15.1732 14.082 15.185 14.0876 15.1968L14.5883 16.2588L16.021 11.7002C16.1445 11.3073 16.4962 11.0303 16.907 11.0023ZM11.9609 15.3618C11.9609 15.3618 11.9604 15.3617 11.9595 15.3614L11.9609 15.3618ZM11.9028 15.3262C11.9018 15.3252 11.9013 15.3246 11.9013 15.3246C11.9012 15.3245 11.9018 15.325 11.9028 15.3262ZM19.7891 15.6382C19.7891 15.6382 19.7896 15.6384 19.7905 15.6387L19.7891 15.6382ZM19.8472 15.6738C19.8482 15.6748 19.8487 15.6754 19.8487 15.6755C19.8488 15.6755 19.8483 15.675 19.8472 15.6738Z" fill="#141B34"/>
</svg>
