<svg width="24" height="24" viewBox="0 0 24 24" fill="none" xmlns="http://www.w3.org/2000/svg">
<path d="M8.25 6.25013C8.25 5.94617 8.25 5.79419 8.32601 5.67259C8.40202 5.55098 8.53863 5.48439 8.81186 5.35122L15.1701 2.25213C16.8246 1.44574 17.6518 1.04254 18.5741 1.35681C19.4964 1.67109 19.8129 2.34544 20.4461 3.69416C22.1846 7.39773 22.1846 11.6023 20.4461 15.3058C19.8129 16.6546 19.4964 17.3289 18.5741 17.6432C17.6518 17.9575 16.8246 17.5543 15.1701 16.7479L8.81186 13.6488C8.53863 13.5156 8.40202 13.449 8.32601 13.3274C8.25 13.2058 8.25 13.0538 8.25 12.7499L8.25 6.25013Z" fill="#141B34"/>
<path d="M6.75 6.57769C6.75 6.50442 6.75 6.46778 6.7485 6.44846C6.73013 6.21185 6.62495 6.08005 6.3983 6.00966C6.3798 6.00391 6.32369 5.99115 6.21148 5.96562C5.81616 5.87571 5.61835 5.83071 5.45916 5.81226C3.48222 5.58303 2.25 7.17177 2.25 8.99869V10.0013C2.25 11.8282 3.48222 13.417 5.45916 13.1877C5.61835 13.1693 5.81606 13.1243 6.21136 13.0344C6.32367 13.0089 6.37983 12.9961 6.39837 12.9903C6.62494 12.9199 6.73009 12.7882 6.74849 12.5516C6.75 12.5323 6.75 12.4956 6.75 12.4222L6.75 6.57769Z" fill="#141B34"/>
<path d="M9.91624 15.9033C10.3623 16.6113 10.9223 17.1232 11.6033 17.5693C12.8574 18.3907 13.2525 20.2631 11.9346 21.3493L10.4433 22.5784C10.1704 22.8033 9.77737 22.807 9.50025 22.5872C7.76024 21.2072 6.87686 20.0933 6.50219 18.5783C6.32275 17.8528 6.26814 17.0682 6.25385 16.1787C6.24665 15.7305 6.25085 15.1153 6.25593 14.5413C6.25715 14.4029 6.35339 14.2836 6.48834 14.2529C6.81637 14.1783 7.11787 14.2135 7.41494 14.3583L9.48067 15.3651C9.56867 15.408 9.61268 15.4295 9.64628 15.4614C9.67989 15.4934 9.70534 15.5396 9.75623 15.6319C9.80817 15.7261 9.86154 15.8165 9.91624 15.9033Z" fill="#141B34"/>
</svg>
