<svg width="24" height="24" viewBox="0 0 24 24" fill="none" xmlns="http://www.w3.org/2000/svg">
<path fill-rule="evenodd" clip-rule="evenodd" d="M15.168 1.41789C15.5585 1.02737 16.1916 1.02737 16.5822 1.41789L18.8751 3.71079L21.168 1.41789C21.5585 1.02737 22.1916 1.02737 22.5822 1.41789C22.9727 1.80842 22.9727 2.44158 22.5822 2.83211L20.2893 5.125L22.5822 7.41789C22.9727 7.80842 22.9727 8.44158 22.5822 8.83211C22.1916 9.22263 21.5585 9.22263 21.168 8.83211L18.8751 6.53921L16.5822 8.83211C16.1916 9.22263 15.5585 9.22263 15.168 8.83211C14.7774 8.44158 14.7774 7.80842 15.168 7.41789L17.4608 5.125L15.168 2.83211C14.7774 2.44158 14.7774 1.80842 15.168 1.41789Z" fill="#141B34"/>
<path fill-rule="evenodd" clip-rule="evenodd" d="M13.5002 2.90808L13.5002 2.90809C13.6186 3.26808 13.821 3.6065 14.1072 3.89277L14.9152 4.70074C15.1152 4.90074 15.2152 5.00074 15.2152 5.125C15.2152 5.24926 15.1152 5.34926 14.9152 5.54926L14.1072 6.35723C13.1309 7.33354 13.1309 8.91646 14.1072 9.89277C15.0835 10.8691 16.6665 10.8691 17.6428 9.89277L18.4507 9.0848C18.6507 8.8848 18.7507 8.7848 18.875 8.7848C18.9993 8.7848 19.0993 8.8848 19.2993 9.0848L20.1072 9.89277C20.635 10.4206 21.3401 10.663 22.0308 10.6202L22.0309 10.6202C22.2178 10.6086 22.3112 10.6028 22.365 10.62C22.4525 10.6481 22.5064 10.6956 22.5453 10.7788C22.5692 10.83 22.5738 10.9024 22.5832 11.0474C22.6389 11.9098 22.6389 12.8018 22.5832 13.6642C22.2853 18.274 18.662 21.9603 14.0954 22.2639C12.6351 22.3609 11.1119 22.3607 9.65465 22.2639C9.08972 22.2263 8.47478 22.0927 7.93339 21.8698C7.84733 21.8343 7.77126 21.803 7.70361 21.7755C7.56703 21.7198 7.49873 21.692 7.42104 21.7016C7.34335 21.7112 7.28359 21.7552 7.16407 21.8431L7.0688 21.9133C6.27636 22.4976 5.27592 22.9075 3.85617 22.873L3.81044 22.8719C3.53655 22.8653 3.24461 22.8584 3.00652 22.8123C2.71975 22.7568 2.36496 22.6181 2.14291 22.2395C1.90123 21.8275 1.99813 21.4108 2.09188 21.1484C2.18036 20.9007 2.33374 20.6102 2.49042 20.3135L2.5119 20.2728C2.97823 19.3891 3.10814 18.6669 2.85881 18.1854C2.02648 16.929 1.27772 15.3806 1.1668 13.6642C1.11107 12.8018 1.11107 11.9098 1.1668 11.0474C1.46472 6.43758 5.088 2.75129 9.65465 2.44773C10.7112 2.37749 11.8025 2.35808 12.8793 2.38971C13.1054 2.39635 13.2185 2.39967 13.2944 2.45635C13.3703 2.51303 13.4136 2.64471 13.5002 2.90808ZM8.37502 15.875C7.96081 15.875 7.62502 15.5392 7.62502 15.125C7.62502 14.7108 7.96081 14.375 8.37502 14.375H15.375C15.7892 14.375 16.125 14.7108 16.125 15.125C16.125 15.5392 15.7892 15.875 15.375 15.875H8.37502ZM8.37502 10.875C7.96081 10.875 7.62502 10.5392 7.62502 10.125C7.62502 9.71078 7.96081 9.375 8.37502 9.375H11.875C12.2892 9.375 12.625 9.71078 12.625 10.125C12.625 10.5392 12.2892 10.875 11.875 10.875H8.37502Z" fill="#141B34"/>
</svg>
