<svg width="24" height="24" viewBox="0 0 24 24" fill="none" xmlns="http://www.w3.org/2000/svg">
<path fill-rule="evenodd" clip-rule="evenodd" d="M21.875 5.50592C22.4273 5.50592 22.875 5.05821 22.875 4.50592C22.875 3.95364 22.4273 3.50592 21.875 3.50592L17.375 3.50592L17.375 2.91166C17.3751 2.73603 17.3753 2.52037 17.3532 2.34393L17.3528 2.34059C17.337 2.21414 17.2652 1.6381 16.6996 1.36374C16.1327 1.08878 15.6326 1.39071 15.5244 1.45604L15.5204 1.45847C15.3674 1.55068 15.1965 1.68483 15.0559 1.79518L15.0257 1.81891C14.6498 2.11354 14.1656 2.49551 13.7746 2.87594C13.5795 3.06577 13.3783 3.28303 13.2194 3.51394C13.0782 3.7192 12.875 4.0694 12.875 4.50006C12.875 4.93073 13.0782 5.28092 13.2194 5.48618C13.3783 5.71709 13.5795 5.93435 13.7746 6.12418C14.1656 6.50461 14.6498 6.88658 15.0257 7.18121L15.0559 7.20494C15.1965 7.31529 15.3673 7.44944 15.5204 7.54165L15.5244 7.54409C15.6326 7.60941 16.1328 7.91134 16.6996 7.63639C17.2652 7.36202 17.337 6.78598 17.3528 6.65953L17.3532 6.65619C17.3753 6.47975 17.3751 6.26409 17.375 6.08846L17.375 5.50592L21.875 5.50592Z" fill="#141B34"/>
<path fill-rule="evenodd" clip-rule="evenodd" d="M12.7121 7.18404C12.4872 6.96406 12.2159 6.67484 11.9836 6.33718C11.789 6.0543 11.375 5.39272 11.375 4.50091C11.375 4.08031 11.5378 3.61949 11.7303 3.22026C11.9534 2.75752 12.0649 2.52615 11.9742 2.38492C11.8835 2.2437 11.6482 2.24847 11.1776 2.25802C10.6657 2.2684 10.1563 2.29025 9.65465 2.32359C5.088 2.62715 1.46472 6.31344 1.1668 10.9232C1.11107 11.7856 1.11107 12.6777 1.1668 13.5401C1.27772 15.2565 2.02648 16.8049 2.85881 18.0613C3.10814 18.5428 2.97823 19.265 2.5119 20.1487L2.49042 20.1893C2.33374 20.4861 2.18036 20.7766 2.09188 21.0243C1.99813 21.2867 1.90123 21.7034 2.14291 22.1154C2.36496 22.494 2.71975 22.6327 3.00652 22.6882C3.24461 22.7342 3.53655 22.7412 3.81044 22.7477L3.85617 22.7488C5.27592 22.7834 6.27636 22.3735 7.0688 21.7891L7.16407 21.7189C7.28359 21.6311 7.34335 21.5871 7.42104 21.5775C7.49873 21.5678 7.56703 21.5957 7.70361 21.6513C7.77126 21.6789 7.84733 21.7102 7.93339 21.7456C8.47478 21.9686 9.08972 22.1022 9.65465 22.1397C11.1119 22.2366 12.6351 22.2368 14.0954 22.1397C18.662 21.8362 22.2853 18.1499 22.5832 13.5401C22.6389 12.6777 22.6389 11.7856 22.5832 10.9232C22.4997 9.63106 22.1549 8.41146 21.6013 7.31859C21.526 7.1699 21.4883 7.09556 21.4161 7.05116C21.3438 7.00677 21.2568 7.00677 21.0827 7.00677L19.3222 7.00677C19.0939 7.00677 18.9797 7.00677 18.9021 7.06123C18.8246 7.11568 18.7791 7.24148 18.6882 7.493C18.5149 7.97276 18.1455 8.60298 17.3542 8.98683C16.0474 9.62078 14.9227 8.93486 14.7589 8.83497L14.7493 8.82915L14.7453 8.82672C14.5243 8.69348 12.9289 7.36689 12.7457 7.2144C12.7372 7.20732 12.733 7.20378 12.7285 7.19975C12.724 7.19573 12.7201 7.19183 12.7121 7.18404ZM7.87502 11.5C7.32273 11.5 6.87502 11.9477 6.87502 12.5C6.87502 13.0523 7.32273 13.5 7.87502 13.5H7.88399C8.43628 13.5 8.88399 13.0523 8.88399 12.5C8.88399 11.9477 8.43628 11.5 7.88399 11.5H7.87502ZM11.8705 11.5C11.3182 11.5 10.8705 11.9477 10.8705 12.5C10.8705 13.0523 11.3182 13.5 11.8705 13.5H11.8795C12.4318 13.5 12.8795 13.0523 12.8795 12.5C12.8795 11.9477 12.4318 11.5 11.8795 11.5H11.8705ZM15.866 11.5C15.3138 11.5 14.866 11.9477 14.866 12.5C14.866 13.0523 15.3138 13.5 15.866 13.5H15.875C16.4273 13.5 16.875 13.0523 16.875 12.5C16.875 11.9477 16.4273 11.5 15.875 11.5H15.866Z" fill="#141B34"/>
</svg>
