<svg width="24" height="24" viewBox="0 0 24 24" fill="none" xmlns="http://www.w3.org/2000/svg">
<path d="M22.8176 1.79143C23.002 2.31202 22.7294 2.88352 22.2088 3.0679C21.6752 3.2569 21.0587 3.66376 20.4057 4.23648C19.763 4.80013 19.1378 5.47705 18.5841 6.14086C18.0322 6.80236 17.5635 7.43609 17.2324 7.90508C17.0672 8.13907 16.9372 8.33079 16.8493 8.46286L16.7191 8.66151C16.5258 8.96559 16.1837 9.14239 15.8239 9.12396C15.4639 9.10553 15.1418 8.89485 14.9806 8.57249C14.5399 7.69112 14.1446 7.34017 13.9453 7.20732C13.861 7.15111 13.804 7.12859 13.7814 7.12095C13.273 7.07374 12.875 6.64599 12.875 6.12527C12.875 5.57299 13.3227 5.12527 13.875 5.12527C13.9574 5.12607 14.1621 5.14114 14.3216 5.195C14.5295 5.25439 14.7803 5.36029 15.0547 5.54322C15.329 5.72607 15.6166 5.97884 15.9054 6.3247C16.2206 5.89395 16.609 5.38628 17.0483 4.85968C17.6416 4.14849 18.34 3.38792 19.087 2.73281C19.8236 2.08679 20.663 1.49365 21.5412 1.18265C22.0618 0.998267 22.6332 1.27083 22.8176 1.79143Z" fill="#141B34"/>
<path fill-rule="evenodd" clip-rule="evenodd" d="M16.4433 3.03926C16.4924 3.1972 16.3586 3.35404 16.0909 3.66774C16.0248 3.74524 15.9599 3.82213 15.8965 3.89823L15.8965 3.89824C15.842 3.96351 15.8148 3.99615 15.7886 4.0163C15.7116 4.07558 15.63 4.09301 15.5356 4.07033C15.5034 4.06262 15.4609 4.04182 15.3758 4.00022L15.3758 4.00021C15.1635 3.8964 14.958 3.81816 14.7633 3.76073C14.4016 3.64561 14.0384 3.62622 13.8896 3.62478L13.875 3.6247C12.4943 3.6247 11.375 4.74399 11.375 6.1247C11.375 7.20563 12.0602 8.12532 13.0206 8.47458C13.1137 8.50842 13.1602 8.52534 13.1956 8.55178C13.231 8.57822 13.2516 8.60608 13.2928 8.66179C13.384 8.78498 13.503 8.97081 13.6389 9.24274C14.0419 10.0486 14.8473 10.5754 15.7472 10.6214C16.6429 10.6673 17.4939 10.2296 17.9781 9.47635L18.1007 9.28929C18.1821 9.16721 18.3033 8.98847 18.4579 8.76954C18.7726 8.32363 19.2166 7.72368 19.7359 7.10118C19.8984 6.90641 20.0653 6.71299 20.2351 6.52406C20.45 6.28492 20.5574 6.16535 20.7051 6.17693C20.8527 6.18851 20.9384 6.3206 21.1098 6.58478C21.9503 7.88029 22.4772 9.40342 22.5832 11.0434C22.6389 11.9059 22.6389 12.7979 22.5832 13.6603C22.2853 18.2701 18.662 21.9564 14.0954 22.26C12.6351 22.357 11.1119 22.3568 9.65465 22.26C9.08972 22.2224 8.47478 22.0888 7.93339 21.8659C7.84733 21.8304 7.77126 21.7991 7.70361 21.7715C7.56703 21.7159 7.49873 21.688 7.42104 21.6977C7.34335 21.7073 7.28359 21.7513 7.16407 21.8392L7.0688 21.9093C6.27636 22.4937 5.27592 22.9036 3.85617 22.8691L3.81044 22.868C3.53655 22.8614 3.24461 22.8544 3.00652 22.8084C2.71975 22.7529 2.36496 22.6142 2.14291 22.2356C1.90123 21.8236 1.99813 21.4069 2.09188 21.1445C2.18036 20.8968 2.33374 20.6063 2.49042 20.3096L2.5119 20.2689C2.97823 19.3852 3.10814 18.663 2.85881 18.1815C2.02648 16.9251 1.27772 15.3767 1.1668 13.6603C1.11107 12.7979 1.11107 11.9059 1.1668 11.0434C1.46472 6.43367 5.088 2.74738 9.65465 2.44382C11.1119 2.34695 12.6351 2.34675 14.0954 2.44382C14.6929 2.48354 15.2744 2.58119 15.8343 2.73126C16.2076 2.8313 16.3943 2.88132 16.4433 3.03926ZM8.375 15.875C7.96079 15.875 7.625 15.5393 7.625 15.125C7.625 14.7108 7.96079 14.375 8.375 14.375H15.375C15.7892 14.375 16.125 14.7108 16.125 15.125C16.125 15.5393 15.7892 15.875 15.375 15.875H8.375ZM8.375 10.875C7.96079 10.875 7.625 10.5393 7.625 10.125C7.625 9.71082 7.96079 9.37504 8.375 9.37504H11.875C12.2892 9.37504 12.625 9.71082 12.625 10.125C12.625 10.5393 12.2892 10.875 11.875 10.875H8.375Z" fill="#141B34"/>
</svg>
