<svg width="24" height="24" viewBox="0 0 24 24" fill="none" xmlns="http://www.w3.org/2000/svg">
<path d="M6.30921 11.2891C6.2967 11.2842 6.28374 11.2949 6.28612 11.3081C6.31327 11.459 6.35567 11.6089 6.4139 11.7555L6.42018 11.7708L8.52707 16.7529C8.85134 17.5197 8.87324 18.6479 8.63946 19.526C8.53314 19.9253 8.76992 20.3354 9.16894 20.4431L17.6228 22.7229C17.8153 22.7748 18.0205 22.7479 18.1931 22.6482C18.3657 22.5486 18.4916 22.3843 18.5429 22.1917L18.8205 21.1487C18.8951 20.8684 19.0853 20.6099 19.3608 20.4245C19.8229 20.1133 20.536 19.5951 20.9152 19.0687C21.2283 18.6341 21.4471 18.1371 21.6504 17.5302C21.8501 16.9341 22.0495 16.1852 22.303 15.2329L22.6611 13.8896C22.9311 12.8753 22.5803 11.8157 21.7436 11.1635C21.5174 10.9872 21.4044 10.8991 21.2533 10.9476C21.1023 10.996 21.0556 11.1539 20.9623 11.4695L20.4929 13.0562C20.4312 13.2807 20.1933 13.4143 19.9616 13.3545C19.7298 13.2947 19.592 13.0643 19.6537 12.8397L20.2138 10.8271C20.2395 10.735 20.2523 10.6889 20.2487 10.6372C20.245 10.5855 20.2286 10.5481 20.1959 10.4734C19.9544 9.92215 19.4863 9.41588 18.9206 9.11227C18.7049 8.99654 18.5971 8.93867 18.4656 8.99333C18.334 9.048 18.2935 9.18371 18.2124 9.45514L17.6778 11.2438C17.6161 11.4683 17.3782 11.6019 17.1465 11.5421C16.9148 11.4823 16.7769 11.2519 16.8386 11.0273L17.5065 8.74454C17.5433 8.61884 17.5616 8.556 17.5499 8.48758C17.5381 8.41916 17.505 8.37317 17.4386 8.28119C17.1024 7.81515 16.6106 7.45728 16.0127 7.29603C15.7755 7.23273 15.6569 7.20107 15.5505 7.26095C15.549 7.26181 15.5472 7.26282 15.5457 7.2637C15.4404 7.32553 15.4048 7.45561 15.3337 7.71577L15.3026 7.82969L14.8625 9.43134C14.8008 9.65586 14.5629 9.78941 14.3312 9.72964C14.0994 9.66986 13.9616 9.4394 14.0233 9.21487L15.8911 2.82141C16.0693 2.21138 15.7122 1.57385 15.0989 1.40711C14.5017 1.24472 13.8844 1.59053 13.7109 2.18468L10.8151 12.1025C10.7698 12.2674 10.6262 12.3894 10.4516 12.4114C10.277 12.4335 10.1059 12.3511 10.0186 12.203L8.79777 10.1337C8.39079 9.44382 7.46355 9.25584 6.80882 9.72701C6.52384 9.93209 6.33909 10.2298 6.27486 10.5527C6.26056 10.6487 6.25222 10.7458 6.25 10.8433C6.2537 10.9852 6.2805 11.128 6.33199 11.2665C6.33725 11.2807 6.32325 11.2946 6.30921 11.2891Z" fill="#141B34"/>
<path d="M10.5303 1.46955C10.2374 1.17665 9.76256 1.17665 9.46967 1.46955L8.26195 2.67727L7.49896 1.91428C7.29205 1.70737 6.9837 1.63969 6.70915 1.74093C6.43461 1.84217 6.24401 2.09383 6.22097 2.38554L6.11004 3.78947L6.10721 3.82532C6.08367 4.12259 6.06035 4.41701 6.07423 4.65948C6.08949 4.9261 6.15487 5.27636 6.4392 5.56069C6.72375 5.84524 7.07416 5.91033 7.34067 5.92538C7.58168 5.93899 7.87446 5.91579 8.17 5.89238L8.2098 5.88923L9.61375 5.7783C9.90545 5.75525 10.1571 5.56466 10.2584 5.29011C10.3596 5.01557 10.2919 4.70721 10.085 4.5003L9.32262 3.73792L10.5303 2.53021C10.8232 2.23731 10.8232 1.76244 10.5303 1.46955Z" fill="#141B34"/>
<path d="M3.83187 6.1077L3.78932 6.11107L2.38537 6.22199C2.09367 6.24504 1.842 6.43564 1.74076 6.71018C1.63952 6.98473 1.7072 7.29309 1.91412 7.5L2.67667 8.26254L1.46967 9.46955C1.17678 9.76244 1.17678 10.2373 1.46967 10.5302C1.76256 10.8231 2.23744 10.8231 2.53033 10.5302L3.73734 9.3232L4.50015 10.086C4.70707 10.2929 5.01542 10.3606 5.28996 10.2594C5.56451 10.1581 5.75511 9.90646 5.77815 9.61475L5.88908 8.21082L5.89231 8.17004C5.9157 7.87486 5.93888 7.5823 5.92539 7.34145C5.91048 7.07533 5.84581 6.72405 5.56081 6.43905C5.27571 6.15396 4.92437 6.08942 4.6583 6.07461C4.4181 6.06123 4.12627 6.08437 3.83187 6.1077Z" fill="#141B34"/>
</svg>
