<svg width="24" height="24" viewBox="0 0 24 24" fill="none" xmlns="http://www.w3.org/2000/svg">
<path fill-rule="evenodd" clip-rule="evenodd" d="M18.9385 12.246C20.0871 13.5304 20.8125 15.1856 20.8125 16.7135C20.8125 17.6054 20.5677 18.247 20.1967 18.7269C19.8173 19.2175 19.2549 19.6039 18.524 19.8867C18.0253 20.0797 17.7782 20.6385 17.9721 21.1348C18.1659 21.6312 18.7273 21.8772 19.226 21.6842C20.1918 21.3105 21.0825 20.7432 21.7321 19.9031C22.39 19.0523 22.75 17.9862 22.75 16.7135C22.75 14.6175 21.7801 12.523 20.3857 10.9638C18.9974 9.41131 17.0587 8.25 15 8.25C12.9413 8.25 11.0026 9.41131 9.61429 10.9638C8.21993 12.523 7.25 14.6175 7.25 16.7135C7.25 17.9862 7.61001 19.0523 8.26792 19.9031C8.91748 20.7432 9.80821 21.3105 10.774 21.6842C11.2727 21.8772 11.8341 21.6312 12.0279 21.1348C12.2218 20.6385 11.9747 20.0797 11.476 19.8867C10.7451 19.6039 10.1827 19.2175 9.80332 18.7269C9.43227 18.247 9.1875 17.6054 9.1875 16.7135C9.1875 15.1856 9.91288 13.5304 11.0615 12.246C12.2161 10.9548 13.668 10.1785 15 10.1785C16.332 10.1785 17.7839 10.9548 18.9385 12.246Z" fill="#141B34"/>
<path fill-rule="evenodd" clip-rule="evenodd" d="M14.0644 3.65026C12.7016 2.24879 10.9115 1.25 9.03788 1.25C6.98988 1.25 5.04061 2.4419 3.63318 4.06175C2.21974 5.68853 1.25 7.8599 1.25 10.0107C1.25 12.0638 2.13807 13.5052 3.51207 14.4208C4.02809 14.7647 4.60473 15.0296 5.21616 15.2298C5.49515 15.3212 5.63465 15.3669 5.74999 15.3014C5.86534 15.236 5.90089 15.0788 5.97198 14.7643C6.38179 12.9516 7.32287 11.2756 8.49593 9.96386C10.0653 8.20894 12.3803 6.75 14.9998 6.75C15.0317 6.75 15.0635 6.75022 15.0953 6.75065C15.5969 6.75744 15.8477 6.76083 15.9366 6.61337C16.0255 6.46591 15.9179 6.26895 15.7029 5.87504C15.2568 5.05778 14.6981 4.30201 14.0644 3.65026ZM8.03099 5.12408C8.32388 4.83119 8.32388 4.35631 8.03099 4.06342C7.7381 3.77053 7.26322 3.77053 6.97033 4.06342L6.28608 4.74767C5.99318 5.04057 5.99318 5.51544 6.28608 5.80833C6.57897 6.10123 7.05384 6.10123 7.34674 5.80833L8.03099 5.12408ZM11.031 4.06342C10.7381 3.77053 10.2632 3.77053 9.97033 4.06342C9.67744 4.35631 9.67744 4.83119 9.97033 5.12408L10.6546 5.80833C10.9475 6.10123 11.4223 6.10123 11.7152 5.80833C12.0081 5.51544 12.0081 5.04057 11.7152 4.74767L11.031 4.06342Z" fill="#141B34"/>
<path d="M12.0452 13.2254C12.8 12.3866 13.8617 11.75 15 11.75C16.1383 11.75 17.2 12.3866 17.9548 13.2254C18.7123 14.0672 19.25 15.2089 19.25 16.3679C19.25 17.9176 18.1817 18.7602 17.0993 19.1529C16.9056 19.2232 16.8361 19.3666 16.8361 19.4544V20.8947C16.8361 21.9193 16.0221 22.75 15.018 22.75C14.0138 22.75 13.1999 21.9193 13.1999 20.8947V19.4544C13.1999 19.3661 13.1301 19.2236 12.9386 19.1549C11.8568 18.7671 10.75 17.9292 10.75 16.3679C10.75 15.2089 11.2877 14.0672 12.0452 13.2254Z" fill="#141B34"/>
</svg>
