<svg width="24" height="24" viewBox="0 0 24 24" fill="none" xmlns="http://www.w3.org/2000/svg">
<path fill-rule="evenodd" clip-rule="evenodd" d="M1.29289 1.29289C1.68342 0.902369 2.31658 0.902369 2.70711 1.29289L22.7071 21.2929C23.0976 21.6834 23.0976 22.3166 22.7071 22.7071C22.3166 23.0976 21.6834 23.0976 21.2929 22.7071L1.29289 2.70711C0.902369 2.31658 0.902369 1.68342 1.29289 1.29289Z" fill="#141B34"/>
<path fill-rule="evenodd" clip-rule="evenodd" d="M13.5475 3.25H10.4525C9.61522 3.25 8.85978 3.24999 8.17775 3.26213C7.61232 3.27219 7.3296 3.27722 7.25526 3.4613C7.18092 3.64539 7.38337 3.84784 7.78828 4.25274L12.4661 8.93056C12.527 8.9915 12.5575 9.02197 12.5919 9.04177C12.6263 9.06158 12.6746 9.07437 12.7711 9.09995C13.8084 9.37496 14.6253 10.1918 14.9003 11.2292C14.9259 11.3257 14.9387 11.374 14.9585 11.4084C14.9783 11.4428 15.0088 11.4732 15.0697 11.5342L21.3935 17.858C21.6483 18.1128 21.7757 18.2401 21.9357 18.2054C22.0957 18.1707 22.1532 18.0168 22.2683 17.709C22.4367 17.2588 22.5432 16.765 22.6124 16.2222C22.75 15.1427 22.75 13.7768 22.75 12.0528V11.9473C22.75 10.2232 22.75 8.85727 22.6124 7.77785C22.4707 6.66669 22.1732 5.76101 21.507 5.0138C21.3093 4.79205 21.0919 4.58749 20.8574 4.40229C20.074 3.78362 19.1316 3.50988 17.9694 3.3786C16.8308 3.24998 15.3865 3.24999 13.5475 3.25ZM18 11.25C17.5858 11.25 17.25 11.5858 17.25 12C17.25 12.4142 17.5858 12.75 18 12.75H19C19.4142 12.75 19.75 12.4142 19.75 12C19.75 11.5858 19.4142 11.25 19 11.25H18Z" fill="#141B34"/>
<path fill-rule="evenodd" clip-rule="evenodd" d="M3.14263 4.40229C2.90811 4.58749 2.69068 4.79205 2.49298 5.0138C1.82681 5.76101 1.52932 6.66669 1.38763 7.77785C1.24998 8.85727 1.24999 10.2232 1.25 11.9472V12.0527C1.24999 13.7767 1.24998 15.1427 1.38763 16.2222C1.52932 17.3333 1.82681 18.239 2.49298 18.9862C2.69068 19.208 2.90811 19.4125 3.14263 19.5977C3.926 20.2164 4.86842 20.4901 6.03058 20.6214C7.16917 20.75 8.61345 20.75 10.4525 20.75H13.5475C15.3866 20.75 16.8308 20.75 17.9694 20.6214C18.4434 20.5679 18.8809 20.4906 19.2859 20.3759C19.6345 20.2772 19.8088 20.2279 19.8521 20.0616C19.8954 19.8954 19.757 19.757 19.4801 19.4801L14.5457 14.5457C14.3567 14.3567 14.2623 14.2623 14.1557 14.2516C14.0491 14.241 13.9187 14.3276 13.6579 14.5008C13.183 14.8162 12.6131 15 12.0002 15C10.3434 15 9.00025 13.6569 9.00025 12C9.00025 11.3872 9.18401 10.8172 9.49943 10.3423C9.67265 10.0815 9.75926 9.95112 9.74862 9.84455C9.73797 9.73797 9.6435 9.6435 9.45456 9.45456L4.21984 4.21984C4.07154 4.07154 3.99739 3.99739 3.89439 3.98502C3.79138 3.97266 3.70984 4.02225 3.54675 4.12143C3.40746 4.20614 3.27285 4.29945 3.14263 4.40229ZM4.25 12C4.25 11.5858 4.58579 11.25 5 11.25H6C6.41421 11.25 6.75 11.5858 6.75 12C6.75 12.4142 6.41421 12.75 6 12.75H5C4.58579 12.75 4.25 12.4142 4.25 12Z" fill="#141B34"/>
</svg>
