<svg width="24" height="25" viewBox="0 0 24 25" fill="none" xmlns="http://www.w3.org/2000/svg">
<path d="M1.125 8.37109C1.125 4.64317 4.14708 1.62109 7.875 1.62109C11.6029 1.62109 14.625 4.64317 14.625 8.37109C14.625 12.099 11.6029 15.1211 7.875 15.1211C4.14708 15.1211 1.125 12.099 1.125 8.37109Z" fill="#141B34"/>
<path fill-rule="evenodd" clip-rule="evenodd" d="M22.875 5.37109C22.875 4.81881 22.4273 4.37109 21.875 4.37109C21.3227 4.37109 20.875 4.81881 20.875 5.37109V8.37109C20.875 8.92338 21.3227 9.37109 21.875 9.37109C22.4273 9.37109 22.875 8.92338 22.875 8.37109V5.37109ZM16.875 11.2004V14.3711C16.875 14.9234 16.4273 15.3711 15.875 15.3711C15.3227 15.3711 14.875 14.9234 14.875 14.3711L14.875 11.2004C13.7098 10.7886 12.875 9.67731 12.875 8.37109C12.875 6.71424 14.2181 5.37109 15.875 5.37109C17.5319 5.37109 18.875 6.71424 18.875 8.37109C18.875 9.67731 18.0402 10.7886 16.875 11.2004ZM22.875 11.3711C22.875 10.8188 22.4273 10.3711 21.875 10.3711C21.3227 10.3711 20.875 10.8188 20.875 11.3711V14.3711C20.875 14.9234 21.3227 15.3711 21.875 15.3711C22.4273 15.3711 22.875 14.9234 22.875 14.3711V11.3711ZM16.875 17.3711C16.875 16.8188 16.4273 16.3711 15.875 16.3711C15.3227 16.3711 14.875 16.8188 14.875 17.3711V19.3711C14.875 19.8368 14.955 20.286 15.1029 20.7043C15.2869 21.2251 15.8582 21.498 16.379 21.3139C16.8997 21.1299 17.1726 20.5586 16.9885 20.0378C16.9153 19.8306 16.875 19.6066 16.875 19.3711V17.3711ZM22.875 17.3711C22.875 16.8188 22.4273 16.3711 21.875 16.3711C21.3227 16.3711 20.875 16.8188 20.875 17.3711V19.3711C20.875 19.6066 20.8347 19.8306 20.7615 20.0378C20.5774 20.5586 20.8503 21.1299 21.371 21.3139C21.8918 21.498 22.4631 21.2251 22.6471 20.7043C22.795 20.286 22.875 19.8368 22.875 19.3711V17.3711ZM18.2082 21.2575C17.6875 21.0735 17.1162 21.3464 16.9322 21.8671C16.7481 22.3879 17.021 22.9592 17.5418 23.1432C17.9601 23.2911 18.4093 23.3711 18.875 23.3711C19.3407 23.3711 19.7899 23.2911 20.2082 23.1432C20.729 22.9592 21.0019 22.3879 20.8178 21.8671C20.6338 21.3464 20.0625 21.0735 19.5418 21.2575C19.3345 21.3308 19.1105 21.3711 18.875 21.3711C18.6395 21.3711 18.4155 21.3308 18.2082 21.2575ZM14.875 8.37109C14.875 7.81881 15.3227 7.37109 15.875 7.37109C16.4273 7.37109 16.875 7.81881 16.875 8.37109C16.875 8.92338 16.4273 9.37109 15.875 9.37109C15.3227 9.37109 14.875 8.92338 14.875 8.37109Z" fill="#141B34"/>
</svg>
