<svg width="24" height="24" viewBox="0 0 24 24" fill="none" xmlns="http://www.w3.org/2000/svg">
<path fill-rule="evenodd" clip-rule="evenodd" d="M8.57048 14.9808C9.06446 15.2278 9.26468 15.8285 9.01769 16.3224L8.01769 18.3224C7.7707 18.8164 7.17003 19.0166 6.67605 18.7696C6.18207 18.5227 5.98185 17.922 6.22884 17.428L7.22884 15.428C7.47583 14.934 8.0765 14.7338 8.57048 14.9808ZM13.0705 14.9808C13.5645 15.2278 13.7647 15.8285 13.5177 16.3224L12.5177 18.3224C12.2707 18.8164 11.67 19.0166 11.1761 18.7696C10.6821 18.5227 10.4818 17.922 10.7288 17.428L11.7288 15.428C11.9758 14.934 12.5765 14.7338 13.0705 14.9808ZM17.5705 14.9808C18.0645 15.2278 18.2647 15.8285 18.0177 16.3224L17.0177 18.3224C16.7707 18.8164 16.17 19.0166 15.6761 18.7696C15.1821 18.5227 14.9818 17.922 15.2288 17.428L16.2288 15.428C16.4758 14.934 17.0765 14.7338 17.5705 14.9808ZM9.57048 18.9808C10.0645 19.2278 10.2647 19.8285 10.0177 20.3224L9.01769 22.3224C8.7707 22.8164 8.17003 23.0166 7.67605 22.7696C7.18207 22.5227 6.98185 21.922 7.22884 21.428L8.22884 19.428C8.47583 18.934 9.0765 18.7338 9.57048 18.9808ZM14.0705 18.9808C14.5645 19.2278 14.7647 19.8285 14.5177 20.3224L13.5177 22.3224C13.2707 22.8164 12.67 23.0166 12.1761 22.7696C11.6821 22.5227 11.4818 21.922 11.7288 21.428L12.7288 19.428C12.9758 18.934 13.5765 18.7338 14.0705 18.9808Z" fill="#141B34"/>
<path d="M5.58521 9.58419C3.15802 10.2582 1.37695 12.4833 1.37695 15.125C1.37695 17.3134 2.59949 19.2163 4.39886 20.1879C4.91248 20.4652 5.16928 20.6039 5.22169 20.5566C5.27409 20.5093 5.14168 20.19 4.87686 19.5513C4.50918 18.6646 4.49934 17.5332 4.88753 16.7568L5.88753 14.7568C6.505 13.5218 8.00668 13.0213 9.24163 13.6387C9.74504 13.8905 10.1264 14.2891 10.3598 14.7567C10.3655 14.7681 10.3818 14.7682 10.3875 14.7568C11.005 13.5218 12.5067 13.0213 13.7416 13.6387C14.245 13.8905 14.6264 14.2891 14.8598 14.7567C14.8655 14.7681 14.8818 14.7682 14.8875 14.7568C15.505 13.5218 17.0067 13.0213 18.2416 13.6387C19.4766 14.2562 19.9771 15.7579 19.3597 16.9928L18.0039 20.0305C17.8305 20.4188 17.7439 20.6131 17.8549 20.7552C17.9659 20.8974 18.1598 20.8631 18.5475 20.7946C21.008 20.3594 22.877 18.2105 22.877 15.625C22.877 13.1535 21.1692 11.0809 18.8693 10.5229C18.6259 10.4638 18.5042 10.4343 18.4417 10.3633C18.3792 10.2923 18.3655 10.1696 18.3381 9.92424C17.9898 6.80231 15.3418 4.375 12.127 4.375C9.20367 4.375 6.74967 6.38153 6.06626 9.09283C6.01686 9.28884 5.99216 9.38684 5.93567 9.4447C5.87919 9.50255 5.7812 9.52976 5.58521 9.58419Z" fill="#141B34"/>
<path d="M3.53464 7.58974C3.34883 7.26475 3.22818 6.91997 3.16873 6.5705C4.16676 6.81452 5.25681 6.68739 6.21764 6.1272C7.17742 5.56763 7.82842 4.68113 8.11633 3.69119C8.37873 3.91448 8.60815 4.18719 8.79038 4.50591C8.9132 4.72074 9.00724 4.9435 9.07406 5.17003C9.65082 4.84654 10.2841 4.61188 10.9555 4.48459C10.8485 4.15244 10.706 3.82687 10.5266 3.51324C9.8454 2.32171 8.75422 1.51131 7.53491 1.1634C7.21244 1.07138 6.86531 1.14713 6.61048 1.36511C6.35565 1.5831 6.22705 1.91431 6.26801 2.24714C6.37227 3.09444 5.9761 3.95292 5.2103 4.39941C4.44656 4.84468 3.52222 4.76024 2.85603 4.25176C2.58866 4.04769 2.23662 3.9917 1.91913 4.10275C1.60165 4.21381 1.36126 4.47702 1.27938 4.80325C0.969895 6.0364 1.11741 7.39136 1.79838 8.58242C2.27334 9.41317 2.94644 10.0579 3.72335 10.4902C4.27672 10.0832 4.90566 9.77289 5.58525 9.58417C5.78124 9.52974 5.87923 9.50253 5.93571 9.44468C5.98921 9.38989 6.0142 9.29909 6.05866 9.12312C5.05016 9.087 4.07943 8.54262 3.53464 7.58974Z" fill="#141B34"/>
</svg>
