<svg width="24" height="24" viewBox="0 0 24 24" fill="none" xmlns="http://www.w3.org/2000/svg">
<path fill-rule="evenodd" clip-rule="evenodd" d="M16.6783 3.43926L17.3888 2.69628C19.0333 3.65069 20.4011 5.02832 21.3436 6.68053L20.581 7.29832L20.5418 7.34169C20.0375 7.90024 19.3101 8.24953 18.5 8.24953C16.9812 8.24953 15.75 7.01832 15.75 5.49953C15.75 4.68947 16.0993 3.96202 16.6578 3.45769L16.6783 3.43926ZM22.75 12C22.75 10.6148 22.4876 9.28927 22.0094 8.07162L21.6138 8.39208C20.8387 9.22611 19.73 9.74953 18.5 9.74953C16.1528 9.74953 14.25 7.84674 14.25 5.49953C14.25 4.25787 14.7834 3.13979 15.6313 2.36376L15.9717 2.00774C14.7422 1.51865 13.4017 1.25 12 1.25C6.06294 1.25 1.25 6.06294 1.25 12C1.25 17.9371 6.06294 22.75 12 22.75C17.9371 22.75 22.75 17.9371 22.75 12ZM10 7C9.44771 7 9 7.44772 9 8C9 8.55228 9.44771 9 10 9H10.0064C10.5586 9 11.0064 8.55228 11.0064 8C11.0064 7.44772 10.5586 7 10.0064 7H10ZM6 14C6 13.4477 6.44772 13 7 13H7.00635C7.55864 13 8.00635 13.4477 8.00635 14C8.00635 14.5523 7.55864 15 7.00635 15H7C6.44772 15 6 14.5523 6 14ZM12.75 16C12.75 15.3096 13.3096 14.75 14 14.75C14.6904 14.75 15.25 15.3096 15.25 16C15.25 16.6904 14.6904 17.25 14 17.25C13.3096 17.25 12.75 16.6904 12.75 16ZM14 13.25C12.4812 13.25 11.25 14.4812 11.25 16C11.25 17.5188 12.4812 18.75 14 18.75C15.5188 18.75 16.75 17.5188 16.75 16C16.75 14.4812 15.5188 13.25 14 13.25Z" fill="#141B34"/>
</svg>
