<svg width="24" height="24" viewBox="0 0 24 24" fill="none" xmlns="http://www.w3.org/2000/svg">
<path fill-rule="evenodd" clip-rule="evenodd" d="M19.4782 17.25C19.4855 17.25 19.4927 17.25 19.5 17.25C19.5073 17.25 19.5145 17.25 19.5218 17.25C19.736 17.25 19.9329 17.25 20.0982 17.2613C20.2759 17.2734 20.4712 17.301 20.6697 17.3832C21.0985 17.5608 21.4392 17.9015 21.6168 18.3303C21.699 18.5288 21.7266 18.7241 21.7387 18.9018C21.75 19.0671 21.75 19.264 21.75 19.4782V19.5218C21.75 19.736 21.75 19.9329 21.7387 20.0982C21.7266 20.2759 21.699 20.4712 21.6168 20.6697C21.4392 21.0985 21.0985 21.4392 20.6697 21.6168C20.4712 21.699 20.2759 21.7266 20.0982 21.7387C19.9329 21.75 19.736 21.75 19.5218 21.75H19.4782C19.264 21.75 19.0671 21.75 18.9018 21.7387C18.7241 21.7266 18.5288 21.699 18.3303 21.6168C17.9015 21.4392 17.5608 21.0985 17.3832 20.6697C17.301 20.4712 17.2734 20.2759 17.2613 20.0982C17.25 19.9329 17.25 19.736 17.25 19.5218C17.25 19.5145 17.25 19.5073 17.25 19.5C17.25 19.4927 17.25 19.4855 17.25 19.4782C17.25 19.264 17.25 19.0671 17.2613 18.9018C17.2734 18.7241 17.301 18.5288 17.3832 18.3303C17.5608 17.9015 17.9015 17.5608 18.3303 17.3832C18.5288 17.301 18.7241 17.2734 18.9018 17.2613C19.0671 17.25 19.264 17.25 19.4782 17.25Z" fill="#141B34"/>
<path fill-rule="evenodd" clip-rule="evenodd" d="M19.4782 9.75C19.4855 9.75 19.4927 9.75 19.5 9.75C19.5073 9.75 19.5145 9.75 19.5218 9.75C19.736 9.74999 19.9329 9.74998 20.0982 9.76126C20.2759 9.77338 20.4712 9.80099 20.6697 9.88321C21.0985 10.0608 21.4392 10.4015 21.6168 10.8303C21.699 11.0288 21.7266 11.2241 21.7387 11.4018C21.75 11.5671 21.75 11.764 21.75 11.9782V12.0218C21.75 12.236 21.75 12.4329 21.7387 12.5982C21.7266 12.7759 21.699 12.9712 21.6168 13.1697C21.4392 13.5985 21.0985 13.9392 20.6697 14.1168C20.4712 14.199 20.2759 14.2266 20.0982 14.2387C19.9329 14.25 19.736 14.25 19.5218 14.25H19.4782C19.264 14.25 19.0671 14.25 18.9018 14.2387C18.7241 14.2266 18.5288 14.199 18.3303 14.1168C17.9015 13.9392 17.5608 13.5985 17.3832 13.1697C17.301 12.9712 17.2734 12.7759 17.2613 12.5982C17.25 12.4329 17.25 12.236 17.25 12.0218C17.25 12.0145 17.25 12.0073 17.25 12C17.25 11.9927 17.25 11.9855 17.25 11.9782C17.25 11.764 17.25 11.5671 17.2613 11.4018C17.2734 11.2241 17.301 11.0288 17.3832 10.8303C17.5608 10.4015 17.9015 10.0608 18.3303 9.88321C18.5288 9.80099 18.7241 9.77338 18.9018 9.76126C19.0671 9.74998 19.264 9.74999 19.4782 9.75Z" fill="#141B34"/>
<path fill-rule="evenodd" clip-rule="evenodd" d="M19.4782 2.25C19.4855 2.25 19.4927 2.25 19.5 2.25C19.5073 2.25 19.5145 2.25 19.5218 2.25C19.736 2.24999 19.9329 2.24998 20.0982 2.26126C20.2759 2.27338 20.4712 2.30099 20.6697 2.38321C21.0985 2.56083 21.4392 2.90151 21.6168 3.33031C21.699 3.52881 21.7266 3.72415 21.7387 3.90179C21.75 4.06712 21.75 4.26396 21.75 4.47824V4.52176C21.75 4.73604 21.75 4.93289 21.7387 5.09821C21.7266 5.27585 21.699 5.47119 21.6168 5.6697C21.4392 6.0985 21.0985 6.43918 20.6697 6.61679C20.4712 6.69901 20.2759 6.72663 20.0982 6.73875C19.9329 6.75003 19.736 6.75002 19.5218 6.75H19.4782C19.264 6.75002 19.0671 6.75003 18.9018 6.73875C18.7241 6.72663 18.5288 6.69901 18.3303 6.61679C17.9015 6.43918 17.5608 6.0985 17.3832 5.6697C17.301 5.47119 17.2734 5.27585 17.2613 5.09821C17.25 4.93288 17.25 4.73604 17.25 4.52176C17.25 4.51453 17.25 4.50727 17.25 4.5C17.25 4.49273 17.25 4.48548 17.25 4.47825C17.25 4.26397 17.25 4.06712 17.2613 3.90179C17.2734 3.72415 17.301 3.52881 17.3832 3.33031C17.5608 2.90151 17.9015 2.56083 18.3303 2.38321C18.5288 2.30099 18.7241 2.27338 18.9018 2.26126C19.0671 2.24998 19.264 2.24999 19.4782 2.25Z" fill="#141B34"/>
<path fill-rule="evenodd" clip-rule="evenodd" d="M11.9782 17.25C11.9855 17.25 11.9927 17.25 12 17.25C12.0073 17.25 12.0145 17.25 12.0218 17.25C12.236 17.25 12.4329 17.25 12.5982 17.2613C12.7759 17.2734 12.9712 17.301 13.1697 17.3832C13.5985 17.5608 13.9392 17.9015 14.1168 18.3303C14.199 18.5288 14.2266 18.7241 14.2387 18.9018C14.25 19.0671 14.25 19.264 14.25 19.4782V19.5218C14.25 19.736 14.25 19.9329 14.2387 20.0982C14.2266 20.2759 14.199 20.4712 14.1168 20.6697C13.9392 21.0985 13.5985 21.4392 13.1697 21.6168C12.9712 21.699 12.7759 21.7266 12.5982 21.7387C12.4329 21.75 12.236 21.75 12.0218 21.75H11.9782C11.764 21.75 11.5671 21.75 11.4018 21.7387C11.2241 21.7266 11.0288 21.699 10.8303 21.6168C10.4015 21.4392 10.0608 21.0985 9.88321 20.6697C9.80099 20.4712 9.77338 20.2759 9.76126 20.0982C9.74998 19.9329 9.74999 19.736 9.75 19.5218C9.75 19.5145 9.75 19.5073 9.75 19.5C9.75 19.4927 9.75 19.4855 9.75 19.4782C9.74999 19.264 9.74998 19.0671 9.76126 18.9018C9.77338 18.7241 9.80099 18.5288 9.88321 18.3303C10.0608 17.9015 10.4015 17.5608 10.8303 17.3832C11.0288 17.301 11.2241 17.2734 11.4018 17.2613C11.5671 17.25 11.764 17.25 11.9782 17.25Z" fill="#141B34"/>
<path fill-rule="evenodd" clip-rule="evenodd" d="M11.9782 9.75C11.9855 9.75 11.9927 9.75 12 9.75C12.0073 9.75 12.0145 9.75 12.0218 9.75C12.236 9.74999 12.4329 9.74998 12.5982 9.76126C12.7759 9.77338 12.9712 9.80099 13.1697 9.88321C13.5985 10.0608 13.9392 10.4015 14.1168 10.8303C14.199 11.0288 14.2266 11.2241 14.2387 11.4018C14.25 11.5671 14.25 11.764 14.25 11.9782V12.0218C14.25 12.236 14.25 12.4329 14.2387 12.5982C14.2266 12.7759 14.199 12.9712 14.1168 13.1697C13.9392 13.5985 13.5985 13.9392 13.1697 14.1168C12.9712 14.199 12.7759 14.2266 12.5982 14.2387C12.4329 14.25 12.236 14.25 12.0218 14.25H11.9782C11.764 14.25 11.5671 14.25 11.4018 14.2387C11.2241 14.2266 11.0288 14.199 10.8303 14.1168C10.4015 13.9392 10.0608 13.5985 9.88321 13.1697C9.80099 12.9712 9.77338 12.7759 9.76126 12.5982C9.74998 12.4329 9.74999 12.236 9.75 12.0218C9.75 12.0145 9.75 12.0073 9.75 12C9.75 11.9927 9.75 11.9855 9.75 11.9782C9.74999 11.764 9.74998 11.5671 9.76126 11.4018C9.77338 11.2241 9.80099 11.0288 9.88321 10.8303C10.0608 10.4015 10.4015 10.0608 10.8303 9.88321C11.0288 9.80099 11.2241 9.77338 11.4018 9.76126C11.5671 9.74998 11.764 9.74999 11.9782 9.75Z" fill="#141B34"/>
<path fill-rule="evenodd" clip-rule="evenodd" d="M11.9782 2.25C11.9855 2.25 11.9927 2.25 12 2.25C12.0073 2.25 12.0145 2.25 12.0218 2.25C12.236 2.24999 12.4329 2.24998 12.5982 2.26126C12.7759 2.27338 12.9712 2.30099 13.1697 2.38321C13.5985 2.56083 13.9392 2.90151 14.1168 3.33031C14.199 3.52881 14.2266 3.72415 14.2387 3.90179C14.25 4.06712 14.25 4.26396 14.25 4.47824V4.52176C14.25 4.73604 14.25 4.93289 14.2387 5.09821C14.2266 5.27585 14.199 5.47119 14.1168 5.6697C13.9392 6.0985 13.5985 6.43918 13.1697 6.61679C12.9712 6.69901 12.7759 6.72663 12.5982 6.73875C12.4329 6.75003 12.236 6.75002 12.0218 6.75H11.9782C11.764 6.75002 11.5671 6.75003 11.4018 6.73875C11.2241 6.72663 11.0288 6.69901 10.8303 6.61679C10.4015 6.43918 10.0608 6.0985 9.88321 5.6697C9.80099 5.47119 9.77338 5.27585 9.76126 5.09821C9.74998 4.93288 9.74999 4.73604 9.75 4.52176C9.75 4.51453 9.75 4.50727 9.75 4.5C9.75 4.49273 9.75 4.48548 9.75 4.47825C9.74999 4.26397 9.74998 4.06712 9.76126 3.90179C9.77338 3.72415 9.80099 3.52881 9.88321 3.33031C10.0608 2.90151 10.4015 2.56083 10.8303 2.38321C11.0288 2.30099 11.2241 2.27338 11.4018 2.26126C11.5671 2.24998 11.764 2.24999 11.9782 2.25Z" fill="#141B34"/>
<path fill-rule="evenodd" clip-rule="evenodd" d="M4.47825 17.25C4.48548 17.25 4.49273 17.25 4.5 17.25C4.50727 17.25 4.51453 17.25 4.52176 17.25C4.73604 17.25 4.93288 17.25 5.09821 17.2613C5.27585 17.2734 5.47119 17.301 5.6697 17.3832C6.0985 17.5608 6.43918 17.9015 6.61679 18.3303C6.69901 18.5288 6.72663 18.7241 6.73875 18.9018C6.75003 19.0671 6.75002 19.264 6.75 19.4782V19.5218C6.75002 19.736 6.75003 19.9329 6.73875 20.0982C6.72663 20.2759 6.69901 20.4712 6.61679 20.6697C6.43918 21.0985 6.0985 21.4392 5.6697 21.6168C5.47119 21.699 5.27585 21.7266 5.09821 21.7387C4.93289 21.75 4.73604 21.75 4.52176 21.75H4.47824C4.26396 21.75 4.06712 21.75 3.90179 21.7387C3.72415 21.7266 3.52881 21.699 3.33031 21.6168C2.90151 21.4392 2.56083 21.0985 2.38321 20.6697C2.30099 20.4712 2.27338 20.2759 2.26126 20.0982C2.24998 19.9329 2.24999 19.736 2.25 19.5218C2.25 19.5145 2.25 19.5073 2.25 19.5C2.25 19.4927 2.25 19.4855 2.25 19.4782C2.24999 19.264 2.24998 19.0671 2.26126 18.9018C2.27338 18.7241 2.30099 18.5288 2.38321 18.3303C2.56083 17.9015 2.90151 17.5608 3.33031 17.3832C3.52881 17.301 3.72415 17.2734 3.90179 17.2613C4.06712 17.25 4.26397 17.25 4.47825 17.25Z" fill="#141B34"/>
<path fill-rule="evenodd" clip-rule="evenodd" d="M4.47825 9.75C4.48548 9.75 4.49273 9.75 4.5 9.75C4.50727 9.75 4.51453 9.75 4.52176 9.75C4.73604 9.74999 4.93288 9.74998 5.09821 9.76126C5.27585 9.77338 5.47119 9.80099 5.6697 9.88321C6.0985 10.0608 6.43918 10.4015 6.61679 10.8303C6.69901 11.0288 6.72663 11.2241 6.73875 11.4018C6.75003 11.5671 6.75002 11.764 6.75 11.9782V12.0218C6.75002 12.236 6.75003 12.4329 6.73875 12.5982C6.72663 12.7759 6.69901 12.9712 6.61679 13.1697C6.43918 13.5985 6.0985 13.9392 5.6697 14.1168C5.47119 14.199 5.27585 14.2266 5.09821 14.2387C4.93289 14.25 4.73604 14.25 4.52176 14.25H4.47824C4.26396 14.25 4.06712 14.25 3.90179 14.2387C3.72415 14.2266 3.52881 14.199 3.33031 14.1168C2.90151 13.9392 2.56083 13.5985 2.38321 13.1697C2.30099 12.9712 2.27338 12.7759 2.26126 12.5982C2.24998 12.4329 2.24999 12.236 2.25 12.0218C2.25 12.0145 2.25 12.0073 2.25 12C2.25 11.9927 2.25 11.9855 2.25 11.9782C2.24999 11.764 2.24998 11.5671 2.26126 11.4018C2.27338 11.2241 2.30099 11.0288 2.38321 10.8303C2.56083 10.4015 2.90151 10.0608 3.33031 9.88321C3.52881 9.80099 3.72415 9.77338 3.90179 9.76126C4.06712 9.74998 4.26397 9.74999 4.47825 9.75Z" fill="#141B34"/>
<path fill-rule="evenodd" clip-rule="evenodd" d="M4.47825 2.25C4.48548 2.25 4.49273 2.25 4.5 2.25C4.50727 2.25 4.51453 2.25 4.52176 2.25C4.73604 2.24999 4.93288 2.24998 5.09821 2.26126C5.27585 2.27338 5.47119 2.30099 5.6697 2.38321C6.0985 2.56083 6.43918 2.90151 6.61679 3.33031C6.69901 3.52881 6.72663 3.72415 6.73875 3.90179C6.75003 4.06712 6.75002 4.26396 6.75 4.47824V4.52176C6.75002 4.73604 6.75003 4.93289 6.73875 5.09821C6.72663 5.27585 6.69901 5.47119 6.61679 5.6697C6.43918 6.0985 6.0985 6.43918 5.6697 6.61679C5.47119 6.69901 5.27585 6.72663 5.09821 6.73875C4.93289 6.75003 4.73604 6.75002 4.52176 6.75H4.47824C4.26396 6.75002 4.06712 6.75003 3.90179 6.73875C3.72415 6.72663 3.52881 6.69901 3.33031 6.61679C2.90151 6.43918 2.56083 6.0985 2.38321 5.6697C2.30099 5.47119 2.27338 5.27585 2.26126 5.09821C2.24998 4.93288 2.24999 4.73604 2.25 4.52176C2.25 4.51453 2.25 4.50727 2.25 4.5C2.25 4.49273 2.25 4.48548 2.25 4.47825C2.24999 4.26397 2.24998 4.06712 2.26126 3.90179C2.27338 3.72415 2.30099 3.52881 2.38321 3.33031C2.56083 2.90151 2.90151 2.56083 3.33031 2.38321C3.52881 2.30099 3.72415 2.27338 3.90179 2.26126C4.06712 2.24998 4.26397 2.24999 4.47825 2.25Z" fill="#141B34"/>
</svg>
