<svg width="24" height="24" viewBox="0 0 24 24" fill="none" xmlns="http://www.w3.org/2000/svg">
<path fill-rule="evenodd" clip-rule="evenodd" d="M5.25 7.92971C5.25 4.68583 7.53825 1.97639 10.5887 1.32749C10.8813 1.26524 11.0276 1.23412 11.1388 1.32417C11.25 1.41422 11.25 1.57311 11.25 1.89089V3.77096C11.25 3.92118 11.25 3.99629 11.2286 4.04984C11.2095 4.09775 11.1963 4.11748 11.1594 4.15349C11.1181 4.19373 11.0222 4.23346 10.8303 4.31293C10.4015 4.49054 10.0608 4.83122 9.88321 5.26002C9.80099 5.45852 9.77338 5.65386 9.76126 5.83151C9.74998 5.99683 9.74999 6.19368 9.75 6.40795V6.40796L9.75 6.42971L9.75 7.45147V7.45148C9.74999 7.66575 9.74998 7.8626 9.76126 8.02792C9.77338 8.20557 9.80099 8.40091 9.88321 8.59941C10.0608 9.02821 10.4015 9.36889 10.8303 9.5465C11.0222 9.62597 11.1181 9.6657 11.1594 9.70594C11.1963 9.74195 11.2095 9.76168 11.2286 9.80959C11.25 9.86314 11.25 9.93825 11.25 10.0885V10.9297C11.25 11.3439 11.5858 11.6797 12 11.6797C12.4142 11.6797 12.75 11.3439 12.75 10.9297V10.0885C12.75 9.93825 12.75 9.86314 12.7714 9.80959C12.7905 9.76168 12.8037 9.74195 12.8406 9.70594C12.8819 9.6657 12.9778 9.62597 13.1697 9.5465C13.5985 9.36889 13.9392 9.02821 14.1168 8.59941C14.199 8.40091 14.2266 8.20557 14.2387 8.02792C14.25 7.8626 14.25 7.66575 14.25 7.45148V6.40795C14.25 6.19368 14.25 5.99683 14.2387 5.83151C14.2266 5.65386 14.199 5.45852 14.1168 5.26002C13.9392 4.83122 13.5985 4.49054 13.1697 4.31293C12.9778 4.23346 12.8819 4.19373 12.8406 4.15349C12.8037 4.11748 12.7905 4.09775 12.7714 4.04984C12.75 3.99629 12.75 3.92118 12.75 3.77096V1.89089C12.75 1.57311 12.75 1.41422 12.8612 1.32417C12.9724 1.23412 13.1187 1.26524 13.4113 1.32749C16.4618 1.97639 18.75 4.68583 18.75 7.92971C18.75 8.58114 18.6575 9.21223 18.4845 9.80996C18.0847 11.1908 17.9534 12.851 18.2911 14.1654C18.3857 14.5389 18.5487 15.1811 18.665 15.5493C18.7176 15.7157 18.753 15.9067 18.7476 16.1124C18.6506 19.7561 15.6668 22.6797 12 22.6797C8.33317 22.6797 5.34944 19.7561 5.25243 16.1124C5.24695 15.9067 5.28238 15.7157 5.33495 15.5493C5.45132 15.181 5.61427 14.5389 5.70885 14.1654C6.04663 12.851 5.91533 11.1908 5.51554 9.80996C5.3425 9.21223 5.25 8.58114 5.25 7.92971ZM12.0024 8.17972C12.2442 8.17972 12.3885 8.17928 12.4961 8.17194C12.5191 8.17037 12.5375 8.16862 12.5521 8.16692C12.5625 8.16572 12.5676 8.16512 12.6015 8.15257C12.6353 8.14002 12.6369 8.13895 12.6401 8.1368C12.6665 8.11894 12.6892 8.09619 12.7071 8.06978C12.7092 8.06661 12.7103 8.06502 12.7229 8.03118C12.7354 7.99734 12.736 7.99216 12.7372 7.98181C12.7389 7.96721 12.7407 7.94878 12.7422 7.92582C12.7496 7.81781 12.75 7.67295 12.75 7.42971V6.42971C12.75 6.18648 12.7496 6.04162 12.7422 5.93361C12.7407 5.91064 12.7389 5.8922 12.7372 5.87761C12.736 5.86726 12.7354 5.86209 12.7229 5.82825C12.7103 5.79441 12.7092 5.79283 12.7071 5.78966C12.6892 5.76325 12.6665 5.7405 12.6401 5.72264C12.6369 5.72049 12.6353 5.71942 12.6015 5.70686C12.5676 5.69431 12.5624 5.69371 12.5521 5.6925C12.5375 5.69081 12.5191 5.68906 12.4961 5.68749C12.3881 5.68012 12.2432 5.67971 12 5.67971C11.7568 5.67971 11.6119 5.68012 11.5039 5.68749C11.4809 5.68906 11.4625 5.69081 11.4479 5.6925C11.4376 5.69371 11.4324 5.69431 11.3985 5.70686C11.3647 5.71941 11.3631 5.72049 11.3599 5.72263C11.3335 5.74049 11.3108 5.76325 11.2929 5.78966C11.2908 5.79283 11.2897 5.79441 11.2771 5.82825C11.2646 5.86209 11.264 5.86726 11.2628 5.87761C11.2611 5.8922 11.2593 5.91064 11.2578 5.93361C11.2504 6.04162 11.25 6.18648 11.25 6.42971V7.42971C11.25 7.67295 11.2504 7.81781 11.2578 7.92582C11.2593 7.94879 11.2611 7.96723 11.2628 7.98183C11.264 7.99217 11.2646 7.99734 11.2771 8.03118C11.2897 8.06501 11.2908 8.0666 11.2929 8.06977C11.3108 8.09618 11.3335 8.11894 11.36 8.1368C11.3631 8.13895 11.3647 8.14002 11.3985 8.15257C11.4324 8.16512 11.4375 8.16572 11.4479 8.16692C11.4625 8.16862 11.4809 8.17037 11.5039 8.17194C11.6117 8.17929 11.7561 8.17971 11.9983 8.17971C11.9989 8.17971 11.9994 8.17971 12 8.17971C12.0008 8.17971 12.0016 8.17971 12.0024 8.17972Z" fill="#141B34"/>
</svg>
