<svg width="24" height="24" viewBox="0 0 24 24" fill="none" xmlns="http://www.w3.org/2000/svg">
<path fill-rule="evenodd" clip-rule="evenodd" d="M7.07247 4.80318C8.72429 4.00783 10.6162 4.03213 12.7562 5.12268C12.5486 5.46828 12.3299 5.86201 12.0887 6.29612L12.0637 6.3412L11.53 7.30176C11.3751 7.22733 11.1989 7.15871 10.9952 7.1319C10.5351 7.07132 10.0697 7.19601 9.70147 7.47856C9.53101 7.60935 9.40943 7.76472 9.31011 7.9125C9.21768 8.05004 9.11927 8.22052 9.01214 8.40609L8.49038 9.30981C8.38323 9.49537 8.2848 9.66584 8.2119 9.81465C8.13358 9.97456 8.05982 10.1575 8.03178 10.3706C7.97119 10.8307 8.09589 11.2961 8.37844 11.6643C8.50923 11.8348 8.6646 11.9564 8.81238 12.0557C8.94992 12.1481 9.1204 12.2465 9.30597 12.3536L9.34366 12.3754C9.52922 12.4826 9.69969 12.581 9.84851 12.6539C10.0084 12.7322 10.1914 12.806 10.4044 12.834C10.8646 12.8946 11.3299 12.7699 11.6982 12.4873C11.8686 12.3565 11.9902 12.2012 12.0895 12.0534C12.1819 11.9159 12.2804 11.7454 12.3875 11.5599L12.3875 11.5598L12.8984 10.6749L12.9093 10.6561L12.9093 10.656C13.0164 10.4705 13.1148 10.3 13.1877 10.1512C13.2661 9.99134 13.3398 9.80837 13.3679 9.59535C13.4284 9.13519 13.3037 8.66981 13.0212 8.30159C12.9565 8.21725 12.8857 8.14487 12.8129 8.08123L13.3749 7.0697C13.6384 6.59548 13.853 6.21025 14.0417 5.89545C15.7757 7.12119 16.6193 8.61988 16.7359 10.3012C16.8652 12.1659 16.0856 14.1043 15.0153 15.9263C13.9439 17.75 12.6275 19.3783 10.9274 20.1968C9.1661 21.0449 7.13183 20.9611 4.81491 19.6464C2.49858 18.332 1.39835 16.6367 1.26397 14.6988C1.13466 12.8341 1.91433 10.8958 2.98462 9.07379C4.05597 7.25004 5.3724 5.62177 7.07247 4.80318ZM11.8811 9.3963C11.8886 9.33272 11.8715 9.26865 11.8331 9.21735C11.8277 9.21205 11.8062 9.19257 11.7506 9.1552C11.6607 9.09482 11.5355 9.02203 11.3248 8.90042C11.1142 8.7788 10.9885 8.70672 10.8913 8.6591C10.8311 8.62963 10.8035 8.62072 10.7962 8.61866C10.7326 8.61113 10.6685 8.6283 10.6172 8.66661C10.6119 8.67204 10.5924 8.69359 10.5551 8.74919C10.4947 8.83904 10.4219 8.96429 10.3003 9.17494L9.8003 10.041C9.67868 10.2516 9.6066 10.3773 9.55898 10.4745C9.52952 10.5346 9.5206 10.5623 9.51854 10.5696C9.51101 10.6332 9.52818 10.6972 9.56649 10.7486C9.57193 10.7539 9.59347 10.7733 9.64907 10.8107C9.73892 10.8711 9.86417 10.9439 10.0748 11.0655C10.2855 11.1871 10.4111 11.2592 10.5083 11.3068C10.5685 11.3363 10.5961 11.3452 10.6034 11.3472C10.667 11.3548 10.7311 11.3376 10.7824 11.2993C10.7877 11.2939 10.8072 11.2723 10.8446 11.2167C10.9049 11.1269 10.9777 11.0016 11.0993 10.791L11.5993 9.92494C11.721 9.71429 11.793 9.58863 11.8407 9.49141C11.8701 9.43126 11.879 9.40361 11.8811 9.3963Z" fill="#141B34"/>
<path d="M20.4226 5.84897L18.301 4.57606C17.5568 4.12956 16.9326 3.75503 16.3976 3.52652C15.8312 3.28463 15.2573 3.15738 14.6432 3.32837C14.032 3.49854 13.6016 3.90287 13.2318 4.40091C13.077 4.60928 12.9208 4.85112 12.7578 5.12268C12.8996 5.19496 13.0425 5.27192 13.1865 5.35364C13.4932 5.52767 13.7786 5.70838 14.0432 5.89545C14.1856 5.65793 14.3133 5.4605 14.436 5.29521C14.71 4.9262 14.8893 4.81688 15.0455 4.7734C15.1988 4.73072 15.4 4.73152 15.8084 4.90597C16.2373 5.08915 16.773 5.40862 17.5747 5.88961L19.6509 7.13523C20.7146 7.77343 22.0611 7.38225 22.6573 6.30923C22.8584 5.94715 22.728 5.49054 22.3659 5.28937C22.0038 5.08821 21.5472 5.21865 21.346 5.58073C21.1478 5.93757 20.7348 6.03629 20.4226 5.84897Z" fill="#141B34"/>
</svg>
