<svg width="24" height="24" viewBox="0 0 24 24" fill="none" xmlns="http://www.w3.org/2000/svg">
<path fill-rule="evenodd" clip-rule="evenodd" d="M12 1.25C8.77681 1.25 6.64252 2.48241 5.36262 4.54591C4.12483 6.54151 3.75 9.21526 3.75 12C3.75 14.7847 4.12483 17.4585 5.36262 19.4541C6.64252 21.5176 8.7768 22.75 12 22.75C15.2231 22.75 17.3574 21.5176 18.6373 19.4541C19.8751 17.4585 20.25 14.7847 20.25 12C20.25 9.21527 19.8751 6.54152 18.6373 4.54592C17.3574 2.48242 15.2231 1.25 12 1.25ZM9.49278 8.41184C9.18766 8.13171 9.1674 7.65727 9.44754 7.35215L10.4755 6.23249C10.6868 6.00228 10.8934 5.77707 11.0876 5.61573C11.3045 5.4355 11.6032 5.25 12 5.25C12.3968 5.25 12.6955 5.4355 12.9124 5.61573C13.1066 5.77706 13.3132 6.00225 13.5245 6.23246L13.5245 6.23248L13.5245 6.23249L14.5525 7.35215C14.8326 7.65727 14.8124 8.13171 14.5072 8.41184C14.3631 8.54413 14.1813 8.60943 14 8.60938H13V10.3906H14C14.1813 10.3906 14.3631 10.4559 14.5072 10.5882C14.8124 10.8683 14.8326 11.3427 14.5525 11.6479L13.5245 12.7675L13.5245 12.7675C13.3132 12.9977 13.1066 13.2229 12.9124 13.3843C12.6955 13.5645 12.3968 13.75 12 13.75C11.6032 13.75 11.3045 13.5645 11.0876 13.3843C10.8934 13.2229 10.6868 12.9977 10.4755 12.7675L9.44754 11.6479C9.1674 11.3427 9.18766 10.8683 9.49278 10.5882C9.63686 10.4559 9.8187 10.3906 10 10.3906H11V8.60938H10C9.8187 8.60943 9.63686 8.54413 9.49278 8.41184Z" fill="#141B34"/>
</svg>
