<svg width="24" height="24" viewBox="0 0 24 24" fill="none" xmlns="http://www.w3.org/2000/svg">
<path d="M20.3329 6.14339C20.6555 6.3482 21.1037 6.26062 21.3359 5.81835C21.5285 5.45162 21.9819 5.31043 22.3486 5.503C22.7153 5.69557 22.8565 6.14897 22.6639 6.5157C22.0597 7.66648 20.6552 8.12471 19.529 7.40978L17.3428 6.02199C16.4991 5.48641 15.9331 5.12928 15.4798 4.92443C15.0473 4.72896 14.8361 4.72879 14.6753 4.77616C14.4316 4.84795 14.1597 5.07199 13.6496 5.95644C13.4427 6.31526 12.9841 6.43839 12.6252 6.23146C12.2664 6.02453 12.1433 5.5659 12.3502 5.20707C12.8534 4.33449 13.3803 3.59394 14.2514 3.33731C14.8986 3.14664 15.5036 3.28913 16.0975 3.55752C16.6595 3.81147 17.3153 4.22782 18.0997 4.7258L20.3329 6.14339Z" fill="#141B34"/>
<path fill-rule="evenodd" clip-rule="evenodd" d="M13.1849 5.35364C10.868 4.03895 8.83375 3.95511 7.07246 4.80318C5.37238 5.62177 4.05595 7.25004 2.98461 9.07379C1.91431 10.8958 1.13464 12.8341 1.26395 14.6988C1.39834 16.6367 2.49856 18.332 4.81489 19.6464C7.13181 20.9611 9.16608 21.0449 10.9274 20.1968C12.6275 19.3783 13.9439 17.75 15.0153 15.9263C16.0856 14.1043 16.8652 12.1659 16.7359 10.3012C16.6015 8.36328 15.5013 6.668 13.1849 5.35364ZM10.6194 7.49865C10.8956 7.02036 11.5072 6.85649 11.9855 7.13263C12.4638 7.40877 12.6276 8.02036 12.3515 8.49865L11.3515 10.2307C11.0753 10.709 10.4638 10.8729 9.98546 10.5967C9.50717 10.3206 9.34329 9.709 9.61944 9.23071L10.6194 7.49865Z" fill="#141B34"/>
</svg>
