<svg width="24" height="24" viewBox="0 0 24 24" fill="none" xmlns="http://www.w3.org/2000/svg">
<path fill-rule="evenodd" clip-rule="evenodd" d="M16 19C16 18.4477 16.4477 18 17 18H20C20.5523 18 21 18.4477 21 19C21 19.5523 20.5523 20 20 20H17C16.4477 20 16 19.5523 16 19Z" fill="#141B34"/>
<path fill-rule="evenodd" clip-rule="evenodd" d="M9.5 19C9.5 18.4477 9.94772 18 10.5 18H13.5C14.0523 18 14.5 18.4477 14.5 19C14.5 19.5523 14.0523 20 13.5 20H10.5C9.94772 20 9.5 19.5523 9.5 19Z" fill="#141B34"/>
<path fill-rule="evenodd" clip-rule="evenodd" d="M3 19C3 18.4477 3.44772 18 4 18H7C7.55228 18 8 18.4477 8 19C8 19.5523 7.55228 20 7 20H4C3.44772 20 3 19.5523 3 19Z" fill="#141B34"/>
</svg>
