<svg width="24" height="24" viewBox="0 0 24 24" fill="none" xmlns="http://www.w3.org/2000/svg">
<path fill-rule="evenodd" clip-rule="evenodd" d="M6 7C6.55229 7 7 7.44771 7 8V10.5H11.5C12.0523 10.5 12.5 10.9477 12.5 11.5C12.5 12.0523 12.0523 12.5 11.5 12.5H7V13.5C7 14.9425 7.00213 15.9237 7.10092 16.6586C7.19585 17.3646 7.36322 17.6916 7.58579 17.9142C7.80836 18.1368 8.13538 18.3042 8.84143 18.3991C9.57625 18.4979 10.5575 18.5 12 18.5H13C13.5523 18.5 14 18.9477 14 19.5C14 20.0523 13.5523 20.5 13 20.5L11.9294 20.5C10.5753 20.5 9.4587 20.5001 8.57494 20.3812C7.64711 20.2565 6.82768 19.9845 6.17158 19.3284C5.51547 18.6723 5.2435 17.8529 5.11875 16.9251C4.99994 16.0413 4.99997 14.9247 5 13.5706L5 8C5 7.44771 5.44772 7 6 7Z" fill="#141B34"/>
<path d="M15.3516 16.25L15.4 16.25H16.6L16.6484 16.25C17.1725 16.2499 17.6415 16.2499 18.0208 16.303C18.4364 16.3612 18.8527 16.4958 19.1896 16.8467C19.5224 17.1934 19.6459 17.6143 19.6999 18.0324C19.7501 18.4212 19.75 18.9042 19.75 19.454V19.546C19.75 20.0958 19.7501 20.5788 19.6999 20.9676C19.6459 21.3857 19.5224 21.8066 19.1896 22.1533C18.8527 22.5042 18.4364 22.6388 18.0208 22.697C17.6415 22.7501 17.1725 22.7501 16.6484 22.75L16.6 22.75H15.4L15.3516 22.75C14.8275 22.7501 14.3585 22.7501 13.9793 22.697C13.5636 22.6388 13.1473 22.5042 12.8104 22.1533C12.4777 21.8066 12.3541 21.3857 12.3001 20.9676C12.2499 20.5788 12.25 20.0958 12.25 19.546L12.25 19.5L12.25 19.454C12.25 18.9042 12.2499 18.4212 12.3001 18.0324C12.3541 17.6143 12.4777 17.1934 12.8104 16.8467C13.1473 16.4958 13.5636 16.3612 13.9793 16.303C14.3585 16.2499 14.8275 16.2499 15.3516 16.25L15.3516 16.25Z" fill="#141B34"/>
<path d="M1.72393 2.4018C2.22979 1.56916 3.12113 1.25 4.28571 1.25H7.71429C8.87887 1.25 9.77021 1.56916 10.2761 2.4018C10.7139 3.12248 10.75 4.08766 10.75 5C10.75 5.91233 10.7139 6.87751 10.2761 7.59819C9.77021 8.43084 8.87887 8.75 7.71429 8.75H4.28571C3.12113 8.75 2.22979 8.43084 1.72393 7.59819C1.2861 6.87751 1.25 5.91233 1.25 5C1.25 4.08766 1.2861 3.12248 1.72393 2.4018Z" fill="#141B34"/>
<path d="M19.0017 4.52875C19.6454 4.15708 20.4386 4.15708 21.0824 4.52875C21.3225 4.66742 21.5915 4.93706 21.8269 5.17306C22.0629 5.40846 22.3326 5.67745 22.4712 5.91763C22.8429 6.56139 22.8429 7.35455 22.4712 7.99831C22.3326 8.23848 22.1181 8.45236 21.8821 8.68775L21.8821 8.68776L18.9326 11.6372C18.5086 12.0612 17.9984 12.2572 17.5489 12.372C17.3245 12.4292 17.0999 12.4699 16.8987 12.5047C16.6339 12.5614 15.7551 12.7316 15.5264 12.7461C15.272 12.7623 14.8844 12.7388 14.5728 12.4272C14.2612 12.1156 14.2377 11.728 14.2538 11.4736C14.2684 11.2448 14.4386 10.3661 14.4953 10.1013C14.5301 9.90012 14.5707 9.67543 14.628 9.45104C14.7428 9.00154 14.9387 8.49143 15.3627 8.06742L18.3122 5.11784C18.5476 4.88184 18.7615 4.66742 19.0017 4.52875Z" fill="#141B34"/>
</svg>
