<svg width="24" height="24" viewBox="0 0 24 24" fill="none" xmlns="http://www.w3.org/2000/svg">
<path d="M6.30469 17.0085C5.89047 17.0085 5.55469 17.3445 5.55469 17.7589C5.55469 18.1734 5.89047 18.5094 6.30469 18.5094C6.30572 18.5094 6.30674 18.5096 6.30773 18.5099C6.31124 18.511 6.32093 18.5145 6.3363 18.5228C6.37953 18.5461 6.4649 18.6049 6.59873 18.7471C6.86031 19.0251 7.11417 19.4065 7.48022 19.9625L7.65152 20.2224C7.75798 20.3837 7.68371 20.6039 7.49602 20.6502C6.87485 20.8035 6.13139 20.8373 5.41206 20.4901C4.51871 20.0589 3.91731 19.4172 3.58043 18.6399C3.25045 17.8784 3.19637 17.0395 3.29299 16.2273C3.48463 14.6165 4.28913 12.9363 5.11177 11.7018C6.09436 10.2272 7.11581 7.21252 7.54625 4.85176C7.63295 4.37612 7.71463 3.92802 7.806 3.6093C7.89807 3.28811 8.04232 2.92091 8.35934 2.65634C8.66542 2.4009 9.02486 2.31876 9.34711 2.28348C9.65341 2.24995 10.0338 2.24997 10.4613 2.25H13.5386C13.9661 2.24997 14.3465 2.24995 14.6529 2.28348C14.9751 2.31876 15.3345 2.40089 15.6406 2.65632C15.9576 2.92089 16.1019 3.28808 16.194 3.60927C16.2853 3.928 16.367 4.37606 16.4538 4.85173C16.8842 7.21235 17.9057 10.2273 18.8882 11.7018C19.7108 12.9363 20.5153 14.6165 20.707 16.2273C20.8036 17.0396 20.7495 17.8784 20.4195 18.6399C20.0826 19.4172 19.4812 20.0589 18.5879 20.4901C17.8686 20.8373 17.1251 20.8035 16.504 20.6502C16.3163 20.6039 16.242 20.3837 16.3485 20.2224L16.52 19.9622C16.8861 19.4061 17.1397 19.0252 17.4013 18.7471C17.5351 18.6049 17.6205 18.5461 17.6637 18.5228C17.6791 18.5145 17.6888 18.511 17.6923 18.5099C17.6933 18.5096 17.6943 18.5094 17.6953 18.5094C18.1095 18.5094 18.4453 18.1734 18.4453 17.7589C18.4453 17.3445 18.1095 17.0085 17.6953 17.0085C17.1558 17.0085 16.7156 17.2864 16.3091 17.7183C15.9485 18.1016 15.6264 18.5911 15.2924 19.0985L15.1394 19.3308C14.3578 20.5137 13.4739 21.75 12 21.75C10.5262 21.75 9.64195 20.5134 8.86046 19.3305L8.70757 19.0985C8.37362 18.5911 8.05146 18.1016 7.69088 17.7183C7.28442 17.2864 6.84422 17.0085 6.30469 17.0085Z" fill="#141B34"/>
</svg>
