<svg width="24" height="24" viewBox="0 0 24 24" fill="none" xmlns="http://www.w3.org/2000/svg">
<path fill-rule="evenodd" clip-rule="evenodd" d="M17.312 1.93059C15.9686 1.74998 14.2479 1.74999 12.0572 1.75H11.9428C9.75212 1.74999 8.03144 1.74998 6.68802 1.93059C5.31137 2.11568 4.21911 2.50272 3.36091 3.36091C2.50272 4.21911 2.11568 5.31137 1.93059 6.68802C1.74998 8.03144 1.74999 9.75212 1.75 11.9428V12.0572C1.74999 14.2479 1.74998 15.9686 1.93059 17.312C2.11568 18.6886 2.50272 19.7809 3.36091 20.6391C4.21911 21.4973 5.31137 21.8843 6.68802 22.0694C8.03144 22.25 9.7521 22.25 11.9428 22.25H11.9428H12.0572H12.0572C14.2479 22.25 15.9686 22.25 17.312 22.0694C18.6886 21.8843 19.7809 21.4973 20.6391 20.6391C21.4973 19.7809 21.8843 18.6886 22.0694 17.312C22.25 15.9686 22.25 14.2479 22.25 12.0572V12.0572V11.9428V11.9428C22.25 9.7521 22.25 8.03144 22.0694 6.68802C21.8843 5.31137 21.4973 4.21911 20.6391 3.36091C19.7809 2.50272 18.6886 2.11568 17.312 1.93059ZM16.1654 7.55472C16.4717 7.09519 16.3476 6.47432 15.888 6.16796C15.4285 5.86161 14.8076 5.98579 14.5013 6.44531L12.9463 8.77779H7C6.44772 8.77779 6 9.22551 6 9.77779C6 10.3301 6.44772 10.7778 7 10.7778H11.613L9.98334 13.2222H7C6.44772 13.2222 6 13.67 6 14.2222C6 14.7745 6.44772 15.2222 7 15.2222H8.65L7.83462 16.4453C7.52826 16.9048 7.65244 17.5257 8.11197 17.8321C8.5715 18.1384 9.19236 18.0142 9.49872 17.5547L11.0537 15.2222H17C17.5523 15.2222 18 14.7745 18 14.2222C18 13.67 17.5523 13.2222 17 13.2222H12.387L14.0167 10.7778H17C17.5523 10.7778 18 10.3301 18 9.77779C18 9.22551 17.5523 8.77779 17 8.77779H15.35L16.1654 7.55472Z" fill="#141B34"/>
</svg>
