<svg width="24" height="24" viewBox="0 0 24 24" fill="none" xmlns="http://www.w3.org/2000/svg">
<path fill-rule="evenodd" clip-rule="evenodd" d="M5.875 1C6.42728 1 6.875 1.44772 6.875 2V4C6.875 4.55228 6.42728 5 5.875 5C5.32272 5 4.875 4.55228 4.875 4V2C4.875 1.44772 5.32272 1 5.875 1ZM10.875 1C11.4273 1 11.875 1.44772 11.875 2V4C11.875 4.55228 11.4273 5 10.875 5C10.3227 5 9.875 4.55228 9.875 4V2C9.875 1.44772 10.3227 1 10.875 1ZM15.875 1C16.4273 1 16.875 1.44772 16.875 2V4C16.875 4.55228 16.4273 5 15.875 5C15.3227 5 14.875 4.55228 14.875 4V2C14.875 1.44772 15.3227 1 15.875 1Z" fill="#141B34"/>
<path fill-rule="evenodd" clip-rule="evenodd" d="M12.4308 2.25H9.31926H9.31925C7.71668 2.24998 6.43769 2.24997 5.43462 2.38483C4.39835 2.52415 3.54494 2.81966 2.8698 3.4948C2.19466 4.16994 1.89915 5.02335 1.75983 6.05962C1.62497 7.06269 1.62498 8.34166 1.625 9.94422V9.94424V15.0558V15.0558C1.62498 16.6583 1.62497 17.9373 1.75983 18.9404C1.89915 19.9767 2.19466 20.8301 2.8698 21.5052C3.54494 22.1803 4.39835 22.4758 5.43462 22.6152C6.4377 22.75 7.71667 22.75 9.31926 22.75H12.4307C13.1993 22.75 13.8934 22.75 14.5183 22.7351C14.6464 22.7321 14.7104 22.7306 14.789 22.6687C14.813 22.6497 14.8433 22.6157 14.8592 22.5896C14.9114 22.5043 14.903 22.4158 14.8863 22.2388C14.8788 22.1602 14.875 22.0806 14.875 22V21.1C14.875 20.8172 14.875 20.6757 14.7871 20.5879C14.6993 20.5 14.5578 20.5 14.275 20.5H13.375C11.9943 20.5 10.875 19.3807 10.875 18C10.875 16.6193 11.9943 15.5 13.375 15.5L14.275 15.5C14.5578 15.5 14.6993 15.5 14.7871 15.4121C14.875 15.3243 14.875 15.1828 14.875 14.9V14.9V14C14.875 12.6193 15.9943 11.5 17.375 11.5C18.7557 11.5 19.875 12.6193 19.875 14C20.0131 14 20.125 13.8881 20.125 13.75V9.94426C20.125 8.34167 20.125 7.0627 19.9902 6.05962C19.8508 5.02335 19.5553 4.16994 18.8802 3.4948C18.2051 2.81966 17.3517 2.52415 16.3154 2.38483C15.3123 2.24997 14.0333 2.24998 12.4308 2.25H12.4308ZM6.875 8.25C6.46079 8.25 6.125 8.58579 6.125 9C6.125 9.41421 6.46079 9.75 6.875 9.75H14.875C15.2892 9.75 15.625 9.41421 15.625 9C15.625 8.58579 15.2892 8.25 14.875 8.25H6.875ZM6.875 13.25C6.46079 13.25 6.125 13.5858 6.125 14C6.125 14.4142 6.46079 14.75 6.875 14.75H10.875C11.2892 14.75 11.625 14.4142 11.625 14C11.625 13.5858 11.2892 13.25 10.875 13.25H6.875Z" fill="#141B34"/>
<path fill-rule="evenodd" clip-rule="evenodd" d="M17.375 13C17.9273 13 18.375 13.4477 18.375 14V17H21.375C21.9273 17 22.375 17.4477 22.375 18C22.375 18.5523 21.9273 19 21.375 19H18.375V22C18.375 22.5523 17.9273 23 17.375 23C16.8227 23 16.375 22.5523 16.375 22V19H13.375C12.8227 19 12.375 18.5523 12.375 18C12.375 17.4477 12.8227 17 13.375 17L16.375 17V14C16.375 13.4477 16.8227 13 17.375 13Z" fill="#141B34"/>
</svg>
