<svg width="24" height="24" viewBox="0 0 24 24" fill="none" xmlns="http://www.w3.org/2000/svg">
<path fill-rule="evenodd" clip-rule="evenodd" d="M10.5286 1.37434C10.9737 1.08296 11.517 1 12 1C12.483 1 13.0263 1.08296 13.4714 1.37434C13.9652 1.69759 14.25 2.22083 14.25 2.875C14.25 3.47116 14.017 4.09375 13.6626 4.57057C13.3138 5.03989 12.7415 5.5 12 5.5C11.2585 5.5 10.6862 5.03989 10.3374 4.57057C9.98299 4.09375 9.75 3.47116 9.75 2.875C9.75 2.22083 10.0348 1.69759 10.5286 1.37434Z" fill="#141B34"/>
<path fill-rule="evenodd" clip-rule="evenodd" d="M9 18C9.55228 18 10 18.4477 10 19C10 20.1046 10.8954 21 12 21C13.1046 21 14 20.1046 14 19C14 18.4477 14.4477 18 15 18C15.5523 18 16 18.4477 16 19C16 21.2091 14.2091 23 12 23C9.79086 23 8 21.2091 8 19C8 18.4477 8.44772 18 9 18Z" fill="#141B34"/>
<path fill-rule="evenodd" clip-rule="evenodd" d="M1.29289 1.29289C1.68342 0.902369 2.31658 0.902369 2.70711 1.29289L22.7071 21.2929C23.0976 21.6834 23.0976 22.3166 22.7071 22.7071C22.3166 23.0976 21.6834 23.0976 21.2929 22.7071L1.29289 2.70711C0.902369 2.31658 0.902369 1.68342 1.29289 1.29289Z" fill="#141B34"/>
<path d="M7.30917 5.87109C5.63957 7.18177 4.52909 9.17888 4.4094 11.4529C4.40032 11.6254 4.39357 11.7906 4.38705 11.9497C4.3649 12.4912 4.34561 12.9628 4.24749 13.4145C4.13025 13.9544 3.91329 14.3788 3.47213 14.7097C2.70278 15.2867 2.25 16.1922 2.25 17.1539C2.25 18.5352 3.33719 19.7513 4.8 19.7513H19.2C19.7702 19.7513 20.2833 19.5665 20.6973 19.2592L7.30917 5.87109Z" fill="#141B34"/>
<path d="M21.1488 17.5891C21.3543 17.7946 21.457 17.8973 21.5761 17.855C21.6951 17.8127 21.7085 17.6821 21.7353 17.4209C21.7444 17.3324 21.749 17.2429 21.749 17.1527C21.749 16.191 21.2962 15.2854 20.5269 14.7084C20.0857 14.3775 19.8688 13.9531 19.7515 13.4133C19.6534 12.9615 19.6341 12.49 19.612 11.9485C19.6055 11.7893 19.5987 11.6241 19.5896 11.4516C19.3771 7.41446 16.0418 4.25 11.999 4.25C10.9789 4.25 10.0037 4.45151 9.11244 4.81771C8.88423 4.91148 8.77013 4.95836 8.74909 5.06336C8.72805 5.16836 8.81859 5.2589 8.99968 5.43999L21.1488 17.5891Z" fill="#141B34"/>
</svg>
