<svg width="24" height="24" viewBox="0 0 24 24" fill="none" xmlns="http://www.w3.org/2000/svg">
<path d="M20.5764 1.29099C20.9021 1.17875 21.2624 1.30286 21.4499 1.5919C22.4084 3.06939 22.8092 4.30015 22.743 5.36732C22.675 6.4633 22.1245 7.24484 21.4998 7.82646C21.072 8.22482 20.545 8.57972 20.1115 8.87169L20.1115 8.87169C19.9536 8.97799 19.8082 9.07594 19.6844 9.16461C19.1225 9.56721 18.978 9.78774 18.9589 9.9344C18.9554 9.9614 18.9541 9.99756 19.0186 10.0653C19.095 10.1457 19.2461 10.2422 19.4751 10.303C19.942 10.4271 20.5043 10.3469 20.8883 10.0268C21.1413 9.81576 21.5023 9.79456 21.7783 9.97449C22.0542 10.1544 22.1804 10.4933 22.0894 10.8099C21.9347 11.3483 21.3965 12.5418 20.2565 13.479C19.079 14.4471 17.313 15.0948 14.8396 14.5533C14.7026 14.5233 14.5768 14.4556 14.4764 14.3577L9.47644 9.4836C9.32993 9.34078 9.24813 9.14429 9.25 8.93969C9.26291 7.52884 9.846 5.90713 11.1772 4.79698C12.0818 4.04251 13.2426 3.83242 14.3249 3.78968C15.0548 3.76087 15.8496 3.80936 16.573 3.8535L16.573 3.85351L16.573 3.85351C16.9013 3.87354 17.215 3.89268 17.5012 3.90329C18.5122 3.94075 19.1911 3.87471 19.5944 3.6371C19.7648 3.53672 19.8893 3.40238 19.9734 3.19194C20.0641 2.96526 20.1219 2.61237 20.0736 2.06615C20.0433 1.72296 20.2506 1.40323 20.5764 1.29099Z" fill="#141B34"/>
<path fill-rule="evenodd" clip-rule="evenodd" d="M8.54082 6.46982C8.33075 6.25975 8.01648 6.19347 7.73947 6.30082C7.46246 6.40817 7.27491 6.66917 7.26126 6.96595L7.26112 6.97174C7.25812 7.09204 7.24961 7.43304 7.24998 7.62909C7.25073 8.02649 7.26381 8.5715 7.31389 9.1565C7.36364 9.73778 7.45162 10.3797 7.60884 10.9632C7.76026 11.5252 8.00211 12.1359 8.42438 12.5582L11.4423 15.5747C11.8645 15.9968 12.4749 16.2386 13.0368 16.3902C13.6203 16.5476 14.2621 16.6357 14.8434 16.6857C15.4284 16.7359 15.9734 16.7492 16.3707 16.7501C16.5667 16.7505 16.9075 16.7422 17.0281 16.7392L17.0341 16.739C17.331 16.7255 17.5918 16.538 17.6992 16.261C17.8066 15.9839 17.7404 15.6696 17.5303 15.4595L8.54082 6.46982ZM8.80847 9.02861C8.80317 8.96669 8.79832 8.90518 8.79389 8.84424L15.1553 15.2058C15.0947 15.2014 15.0335 15.1965 14.9719 15.1912C14.4367 15.1452 13.8919 15.0672 13.4274 14.942C12.9414 14.8109 12.6424 14.6535 12.5028 14.5138L9.48498 11.4974C9.34541 11.3579 9.18819 11.059 9.05725 10.573C8.9321 10.1085 8.85428 9.56376 8.80847 9.02861Z" fill="#141B34"/>
<path d="M6.46965 9.46979C6.76254 9.1769 7.23741 9.1769 7.53031 9.46979L9.02133 10.9608C9.02786 10.9671 9.03427 10.9735 9.04054 10.98L13.0201 14.9596C13.0266 14.9658 13.033 14.9722 13.0393 14.9788L14.5303 16.4698C14.8232 16.7627 14.8232 17.2376 14.5303 17.5305C14.2374 17.8233 13.7625 17.8233 13.4696 17.5305L12.4161 16.4769L4.46278 22.3555C3.66066 22.9484 2.54549 22.8652 1.84019 22.1599C1.13489 21.4546 1.05172 20.3394 1.64459 19.5373L7.52316 11.584L6.46965 10.5305C6.17675 10.2376 6.17675 9.76269 6.46965 9.46979Z" fill="#141B34"/>
</svg>
