<svg width="24" height="24" viewBox="0 0 24 24" fill="none" xmlns="http://www.w3.org/2000/svg">
<path fill-rule="evenodd" clip-rule="evenodd" d="M7 1.25C7.41421 1.25 7.75 1.58579 7.75 2V2.25H20.25V2C20.25 1.58579 20.5858 1.25 21 1.25C21.4142 1.25 21.75 1.58579 21.75 2V4C21.75 4.41421 21.4142 4.75 21 4.75C20.5858 4.75 20.25 4.41421 20.25 4V3.75H7.75V4C7.75 4.41421 7.41421 4.75 7 4.75C6.58579 4.75 6.25 4.41421 6.25 4V2C6.25 1.58579 6.58579 1.25 7 1.25ZM21.75 9V19C21.75 19.6264 21.2558 19.955 20.9776 20.1103C20.6734 20.2801 20.2451 20.4472 19.7706 20.6323L19.7706 20.6323L19.7706 20.6323L14.9803 22.5017C14.6704 22.6236 14.3487 22.75 14 22.75C13.6513 22.75 13.3296 22.6236 13.0197 22.5018L13.0197 22.5018L8.22946 20.6323L8.22942 20.6323C7.75492 20.4472 7.32665 20.2801 7.02238 20.1103C6.74424 19.955 6.25 19.6264 6.25 19V9C6.25 8.37357 6.74424 8.04497 7.02238 7.88972C7.32665 7.71989 7.75492 7.55282 8.22943 7.36771L8.22943 7.36771L13.0197 5.49825C13.3296 5.37644 13.6513 5.25 14 5.25C14.3487 5.25 14.6704 5.37644 14.9803 5.49825L19.7706 7.36771C20.2451 7.55281 20.6734 7.71989 20.9776 7.88972C21.2558 8.04497 21.75 8.37357 21.75 9ZM14 6.75L8.18459 9L10.2405 9.79543L15.7588 7.43047L14 6.75ZM17.76 8.20475L12.2417 10.5697L14 11.25L19.8154 9L17.76 8.20475ZM11.25 11.8094L13.25 12.5902V20.9813L7.75 18.7986V10.443L9.75 11.2238V13.0002C9.75 13.4144 10.0858 13.7502 10.5 13.7502C10.9142 13.7502 11.25 13.4144 11.25 13.0002V11.8094ZM3 6.25C2.58579 6.25 2.25 6.58579 2.25 7C2.25 7.41421 2.58579 7.75 3 7.75H3.25L3.25 20.25H3C2.58579 20.25 2.25 20.5858 2.25 21C2.25 21.4142 2.58579 21.75 3 21.75H5C5.41421 21.75 5.75 21.4142 5.75 21C5.75 20.5858 5.41421 20.25 5 20.25H4.75L4.75 7.75H5C5.41421 7.75 5.75 7.41421 5.75 7C5.75 6.58579 5.41421 6.25 5 6.25H3Z" fill="#141B34"/>
</svg>
