<svg width="24" height="24" viewBox="0 0 24 24" fill="none" xmlns="http://www.w3.org/2000/svg">
<path d="M4.83597 22.1352C4.01563 22.9555 2.68559 22.9555 1.86525 22.1352C1.04492 21.3148 1.04492 19.9848 1.86525 19.1645C2.50898 18.5207 3.24962 18.0052 3.97761 17.4984C4.72096 16.981 5.45112 16.4727 6.05144 15.8466C6.32759 15.5585 6.46566 15.4145 6.5983 15.418C6.73095 15.4215 6.85683 15.5675 7.10859 15.8595C7.26638 16.0426 7.43209 16.2211 7.60571 16.3947C7.77933 16.5683 7.95787 16.734 8.14089 16.8918C8.4329 17.1436 8.5789 17.2695 8.5824 17.4021C8.58591 17.5348 8.44189 17.6728 8.15385 17.949C7.52769 18.5493 7.01943 19.2795 6.50199 20.0228C5.99525 20.7508 5.4797 21.4914 4.83597 22.1352Z" fill="#141B34"/>
<path fill-rule="evenodd" clip-rule="evenodd" d="M20.3336 3.66637C17.1118 0.444544 11.8882 0.444544 8.66637 3.66637C5.44454 6.8882 5.44454 12.1118 8.66637 15.3336C11.8882 18.5555 17.1118 18.5555 20.3336 15.3336C23.5555 12.1118 23.5555 6.8882 20.3336 3.66637ZM12.2019 7.2019C13.4711 5.9327 15.5289 5.9327 16.7981 7.2019C18.0673 8.47111 18.0673 10.5289 16.7981 11.7981C15.5289 13.0673 13.4711 13.0673 12.2019 11.7981C10.9327 10.5289 10.9327 8.47111 12.2019 7.2019ZM17.8588 6.14124C16.0038 4.28625 12.9962 4.28625 11.1412 6.14124C9.28625 7.99623 9.28625 11.0038 11.1412 12.8588C12.9962 14.7137 16.0038 14.7137 17.8588 12.8588C19.7137 11.0038 19.7137 7.99623 17.8588 6.14124Z" fill="#141B34"/>
</svg>
