<svg width="24" height="24" viewBox="0 0 24 24" fill="none" xmlns="http://www.w3.org/2000/svg">
<path fill-rule="evenodd" clip-rule="evenodd" d="M12 1.25C6.06294 1.25 1.25 6.06294 1.25 12C1.25 17.9371 6.06294 22.75 12 22.75C17.9371 22.75 22.75 17.9371 22.75 12C22.75 6.06294 17.9371 1.25 12 1.25ZM10.4004 6.00041L10.3194 6.00021C10.0377 5.99919 9.6913 5.99792 9.38238 6.0983C8.7735 6.29613 8.29614 6.7735 8.0983 7.38238C7.99792 7.6913 7.99919 8.03766 8.00021 8.31943L8.00041 8.40041L8.00041 18.0004C8.00041 18.5527 8.44813 19.0004 9.00041 19.0004C9.5527 19.0004 10.0004 18.5527 10.0004 18.0004L10.0004 14.0004H13.0004C15.2096 14.0004 17.0004 12.2096 17.0004 10.0004C17.0004 7.79127 15.2096 6.00041 13.0004 6.00041H10.4004ZM13.0004 12.0004H10.0004V8.40041C10.0004 8.20338 10.0008 8.09565 10.005 8.01739L10.0057 8.00573L10.0174 8.00504C10.0957 8.00076 10.2034 8.00041 10.4004 8.00041H13.0004C14.105 8.00041 15.0004 8.89584 15.0004 10.0004C15.0004 11.105 14.105 12.0004 13.0004 12.0004Z" fill="#141B34"/>
</svg>
