<svg width="24" height="24" viewBox="0 0 24 24" fill="none" xmlns="http://www.w3.org/2000/svg">
<path fill-rule="evenodd" clip-rule="evenodd" d="M11.9156 14.9999C15.6577 14.9999 18.9461 12.5064 20.1153 9.00435C20.2395 8.63225 20.3016 8.4462 20.4362 8.43784C20.5708 8.42948 20.6476 8.58991 20.8011 8.91077C21.2273 9.80155 21.3738 10.8393 21.1358 11.8991C20.4978 14.7388 17.9548 16.75 15.0282 16.75H13.225C13.091 16.75 12.9868 16.8449 12.9674 16.9602L12.2379 21.289C12.0949 22.138 11.3555 22.75 10.5011 22.75H8.51054C7.96887 22.75 7.48773 22.5075 7.16574 22.1299C7.10873 22.063 7.15499 21.9645 7.24216 21.9534C7.69411 21.896 8.30556 21.7449 8.85849 21.2629C9.41025 20.7819 9.64358 20.1981 9.7629 19.7606C9.8606 19.4023 9.91934 18.988 9.96785 18.6458L10.447 15.2747C10.4473 15.1831 10.5091 14.9999 10.7535 14.9999H11.9156ZM18.3496 7.97928C19.128 4.53685 16.5253 1.25003 13.001 1.25003H9.091H9.09098C8.56142 1.25002 8.11583 1.25 7.74945 1.28227C7.36397 1.31622 7.00322 1.38978 6.65982 1.57363C6.31433 1.7586 6.01257 2.01564 5.77466 2.32722C5.53846 2.63656 5.4074 2.98096 5.31095 3.35666C5.21917 3.71414 5.14599 4.15551 5.05889 4.68087L2.91715 17.5971C2.83441 18.0958 2.75976 18.5457 2.75092 18.9136C2.7413 19.3139 2.8034 19.7532 3.12078 20.1297C3.4388 20.5071 3.86153 20.6417 4.25801 20.6983C4.58564 20.745 4.98742 20.7496 5.43168 20.75C5.7611 20.7497 6.06641 20.7461 6.32329 20.7135C6.64349 20.6728 6.98078 20.5779 7.27568 20.3208C7.57014 20.0641 7.71061 19.7431 7.79551 19.4318C7.87222 19.1506 7.92153 18.8033 7.97476 18.4285L7.97476 18.4285L8.44798 15.0989C8.48774 14.8192 8.50007 14.7411 8.5156 14.6816C8.6462 14.1818 9.06732 13.5669 9.57278 13.5082C9.63275 13.5013 9.71066 13.5 9.9921 13.5L11.1541 13.5C14.6021 13.5 17.587 11.3522 18.3496 7.97928ZM5.43168 20.75L5.37872 20.75H5.49373L5.43168 20.75Z" fill="#141B34"/>
</svg>
