<svg width="24" height="24" viewBox="0 0 24 24" fill="none" xmlns="http://www.w3.org/2000/svg">
<path fill-rule="evenodd" clip-rule="evenodd" d="M5.12494 1.125C5.67722 1.125 6.12494 1.57272 6.12494 2.125V4.125H8.12494C8.67722 4.125 9.12494 4.57272 9.12494 5.125C9.12494 5.67729 8.67722 6.125 8.12494 6.125H6.12494V8.125C6.12494 8.67728 5.67722 9.125 5.12494 9.125C4.57265 9.125 4.12494 8.67729 4.12494 8.125L4.12494 6.125H2.12494C1.57265 6.125 1.12494 5.67729 1.12494 5.125C1.12494 4.57272 1.57265 4.125 2.12494 4.125H4.12494V2.125C4.12494 1.57272 4.57265 1.125 5.12494 1.125Z" fill="#141B34"/>
<path d="M20.5937 6.81058L20.4399 6.65681C19.7569 5.97374 19.1436 5.36039 18.6308 4.98067C18.0877 4.57845 17.5002 4.30652 16.798 4.39014C16.3182 4.44728 15.8806 4.66165 15.5088 4.91408C15.1327 5.16943 14.7826 5.49207 14.4715 5.82171C14.2294 6.07832 14.0017 6.34917 13.7951 6.61214C13.6462 6.80175 13.5717 6.89656 13.5785 7.01024C13.5853 7.12392 13.6729 7.2115 13.848 7.38666L19.8635 13.4027C20.0386 13.5778 20.1262 13.6654 20.2399 13.6722C20.3536 13.679 20.4484 13.6046 20.638 13.4556C20.9011 13.2489 21.172 13.0212 21.4288 12.779C21.7584 12.4679 22.081 12.1177 22.3364 11.7416C22.5888 11.3699 22.8032 10.9323 22.8603 10.4525C22.944 9.75031 22.672 9.16276 22.2698 8.61963C21.8901 8.1069 21.2767 7.4936 20.5937 6.81058Z" fill="#141B34"/>
<path fill-rule="evenodd" clip-rule="evenodd" d="M18.8317 15.2473L18.8317 15.2473C18.3092 16.0327 18.0977 16.799 18.0188 17.6043L18.0151 17.6423L18.015 17.6423C17.9523 18.2834 17.8999 18.8185 17.8177 19.2369C17.734 19.663 17.5994 20.0886 17.2899 20.4263C16.9944 20.7487 16.6278 20.9192 16.2415 21.0369C15.8794 21.1471 15.4254 21.2314 14.9008 21.3288L7.84165 22.6397C7.22043 22.7551 6.67347 22.8568 6.23542 22.8727C6.00025 22.8813 5.75211 22.8675 5.51157 22.7998L11.7128 16.5983C12.109 16.8444 12.5487 17.0017 13.0052 17.0758C13.414 17.1422 13.7993 16.8646 13.8657 16.4557C13.9321 16.0468 13.6544 15.6616 13.2456 15.5952C12.8261 15.5271 12.4628 15.3491 12.182 15.0683C11.9012 14.7876 11.7233 14.4243 11.6552 14.0048C11.5888 13.5959 11.2035 13.3183 10.7947 13.3847C10.3858 13.4511 10.1082 13.8363 10.1745 14.2452C10.2487 14.7017 10.406 15.1414 10.6521 15.5376L4.45051 21.7395C4.38248 21.4986 4.36863 21.25 4.37721 21.0145C4.39317 20.5764 4.49479 20.0294 4.61021 19.4081L5.92106 12.3487C6.01847 11.8239 6.10275 11.3699 6.213 11.0079C6.33065 10.6215 6.50119 10.2549 6.82364 9.95931C7.16134 9.64979 7.58693 9.51524 8.01308 9.4316C8.43153 9.34947 8.96657 9.29715 9.60765 9.23446L9.64549 9.23076C10.4509 9.15199 11.2176 8.94056 12.0031 8.41813C12.2284 8.26829 12.3411 8.19337 12.4477 8.20399C12.5544 8.21462 12.6428 8.30304 12.8196 8.47987L18.77 14.4309C18.9469 14.6077 19.0353 14.6961 19.0459 14.8028C19.0565 14.9094 18.9816 15.022 18.8317 15.2473Z" fill="#141B34"/>
</svg>
