<svg width="24" height="24" viewBox="0 0 24 24" fill="none" xmlns="http://www.w3.org/2000/svg">
<path fill-rule="evenodd" clip-rule="evenodd" d="M10 19.75C10 19.1977 10.4477 18.75 11 18.75H17C17.5523 18.75 18 19.1977 18 19.75C18 20.3023 17.5523 20.75 17 20.75H11C10.4477 20.75 10 20.3023 10 19.75Z" fill="#141B34"/>
<path fill-rule="evenodd" clip-rule="evenodd" d="M14.1538 5.98196L6.36945 13.7663C5.40084 14.7347 4.80884 15.3265 4.40167 16.0552C4.17455 16.4616 3.97615 17.0781 3.8006 17.709C3.62 18.3579 3.44221 19.1047 3.27249 19.8175L3.27041 19.8262C3.21009 20.0796 3.28552 20.3461 3.46969 20.5303C3.65385 20.7144 3.92037 20.7899 4.17373 20.7295L4.18242 20.7275L4.18262 20.7274L4.18294 20.7273C4.8956 20.5577 5.64214 20.3799 6.29098 20.1993C6.92183 20.0238 7.53832 19.8254 7.94476 19.5983C8.67342 19.1911 9.26526 18.5991 10.2337 17.6305L18.018 9.84614L14.1538 5.98196ZM19.0786 8.78548L19.9497 7.9144C21.0168 6.84734 21.0168 5.11729 19.9497 4.05022C18.8827 2.98316 17.1526 2.98316 16.0855 4.05022L15.2145 4.9213L19.0786 8.78548Z" fill="#141B34"/>
</svg>
