<svg width="24" height="24" viewBox="0 0 24 24" fill="none" xmlns="http://www.w3.org/2000/svg">
<path fill-rule="evenodd" clip-rule="evenodd" d="M12.0631 1.25H12.0631C13.6472 1.24998 14.9235 1.24996 15.927 1.38588C16.9733 1.52761 17.8387 1.83022 18.5182 2.51479C19.1899 3.19147 19.4796 4.04001 19.6166 5.06664C19.75 6.0662 19.75 7.34214 19.75 8.94767V8.94768V8.94769V8.9477V8.94771V15.0523C19.75 15.4201 19.75 15.604 19.6746 15.6892C19.6136 15.7581 19.5237 15.7953 19.4319 15.7897C19.3183 15.7829 19.188 15.6526 18.9275 15.392L6.25766 2.72221C6.03036 2.4949 5.91671 2.38125 5.94017 2.23068C5.96364 2.08011 6.09136 2.01423 6.34679 1.88248C6.85281 1.62149 7.42862 1.47317 8.07305 1.38588C9.07655 1.24996 10.3528 1.24998 11.9369 1.25H11.9369H12.0631ZM18.5182 21.4852C17.8387 22.1698 16.9733 22.4724 15.927 22.6141C14.9234 22.75 13.6472 22.75 12.0631 22.75H11.9369C10.3528 22.75 9.07656 22.75 8.07305 22.6141C7.02672 22.4724 6.16129 22.1698 5.48178 21.4852C4.8101 20.8085 4.52038 19.96 4.38337 18.9334C4.24998 17.9338 4.24999 16.6578 4.25 15.0523V15.0523V8.94776V8.94775C4.24999 7.34218 4.24998 6.06622 4.38337 5.06664C4.38456 5.05773 4.38516 5.05327 4.3878 5.04117C4.43405 4.82954 4.70954 4.7363 4.87481 4.87634C4.88426 4.88434 4.89012 4.8902 4.90183 4.90191L4.90184 4.90191L4.90184 4.90192L19.2857 19.2858C19.4008 19.4009 19.4583 19.4584 19.479 19.5367C19.4996 19.615 19.4795 19.6881 19.4391 19.8341C19.2641 20.4679 18.9824 21.0176 18.5182 21.4852ZM11 19C11 18.4477 11.4457 18 11.9955 18H12.0045C12.5543 18 13 18.4477 13 19C13 19.5523 12.5543 20 12.0045 20H11.9955C11.4457 20 11 19.5523 11 19ZM11 3.25C10.5858 3.25 10.25 3.58579 10.25 4C10.25 4.41421 10.5858 4.75 11 4.75H13C13.4142 4.75 13.75 4.41421 13.75 4C13.75 3.58579 13.4142 3.25 13 3.25H11Z" fill="#141B34"/>
<path fill-rule="evenodd" clip-rule="evenodd" d="M1.29289 1.29289C1.68342 0.902369 2.31658 0.902369 2.70711 1.29289L22.7071 21.2929C23.0976 21.6834 23.0976 22.3166 22.7071 22.7071C22.3166 23.0976 21.6834 23.0976 21.2929 22.7071L1.29289 2.70711C0.902369 2.31658 0.902369 1.68342 1.29289 1.29289Z" fill="#141B34"/>
</svg>
