<svg width="24" height="24" viewBox="0 0 24 24" fill="none" xmlns="http://www.w3.org/2000/svg">
<path d="M14.0261 3.25C15.8081 3.24997 17.2445 3.24995 18.3742 3.40105C19.5471 3.55792 20.5346 3.89353 21.3189 4.67379C22.0672 5.41822 22.4091 6.34722 22.5757 7.44606C22.7381 8.51648 22.7489 9.37525 22.75 11.0271C22.7504 11.5641 22.3131 11.9996 21.7734 12C21.2336 12.0004 20.7958 11.5654 20.7954 11.0284C20.7943 9.33561 20.7793 8.63405 20.6431 7.73621C20.5112 6.86679 20.2817 6.39182 19.9368 6.04872C19.5762 5.68995 19.0699 5.45604 18.1137 5.32815C17.1295 5.19651 15.825 5.19445 13.9546 5.19445H10.0455C8.1751 5.19445 6.87061 5.19651 5.88636 5.32815C4.93023 5.45604 4.4239 5.68995 4.06327 6.04872C3.70264 6.40748 3.46751 6.91119 3.33896 7.86238C3.20663 8.84154 3.20456 10.1393 3.20456 12C3.20456 13.8607 3.20663 15.1585 3.33896 16.1376C3.46751 17.0888 3.70264 17.5925 4.06327 17.9513C4.4239 18.3101 4.93023 18.544 5.88636 18.6718C6.87061 18.8035 8.1751 18.8056 10.0455 18.8056H11.0227C11.5625 18.8056 12 19.2408 12 19.7778C12 20.3147 11.5625 20.75 11.0227 20.75H9.97402C8.19199 20.75 6.75562 20.75 5.62592 20.599C4.45305 20.4421 3.46551 20.1065 2.68119 19.3262C1.89687 18.546 1.55952 17.5635 1.40184 16.3967C1.24995 15.2729 1.24997 13.8439 1.25 12.0712V12.0711V11.9289V11.9288C1.24997 10.1561 1.24995 8.72713 1.40184 7.60329C1.55952 6.43648 1.89687 5.45405 2.68119 4.67379C3.46551 3.89353 4.45305 3.55792 5.62592 3.40105C6.75561 3.24995 8.19197 3.24997 9.97398 3.25H9.974H14.0261H14.0261Z" fill="#141B34"/>
<path d="M5.29301 7.29289C5.68354 6.90237 6.3167 6.90237 6.70723 7.29289L9.22324 9.8089L10.3251 8.70711C10.472 8.59393 10.6519 8.52026 10.8503 8.50353C11.4007 8.45713 11.8844 8.86565 11.9308 9.41598C11.9996 10.0156 11.9965 10.5533 11.9996 10.954C12.0027 11.3487 11.9925 11.7884 11.9476 12.1729C11.9253 12.3639 11.8914 12.5698 11.8352 12.7622C11.7877 12.925 11.6871 13.2157 11.4515 13.4513C11.2158 13.687 10.9251 13.7876 10.7624 13.8351C10.57 13.8912 10.3641 13.9252 10.1731 13.9475C9.78854 13.9924 9.34883 14.0026 8.95411 13.9995C8.55339 13.9964 7.96497 13.9995 7.41612 13.9307C6.86579 13.8843 6.45726 13.4006 6.50366 12.8502C6.52039 12.6517 6.59405 12.4716 6.70723 12.3247L7.80896 11.223L5.29302 8.70711C4.90249 8.31658 4.90249 7.68342 5.29301 7.29289Z" fill="#141B34"/>
<path d="M16.9508 13.25L17.0001 13.25L19.0495 13.25H19.0496C19.7144 13.25 20.2872 13.2499 20.746 13.3116C21.2376 13.3777 21.7089 13.5268 22.0911 13.909C22.4734 14.2913 22.6224 14.7625 22.6885 15.2542C22.7502 15.7129 22.7502 16.2858 22.7501 16.9506V16.9506V17.0494V17.0494C22.7502 17.7142 22.7502 18.2871 22.6885 18.7458C22.6224 19.2375 22.4734 19.7087 22.0911 20.091C21.7089 20.4732 21.2376 20.6223 20.746 20.6884C20.2872 20.7501 19.7144 20.75 19.0495 20.75H16.9508C16.2859 20.75 15.713 20.7501 15.2543 20.6884C14.7626 20.6223 14.2914 20.4732 13.9091 20.091C13.5269 19.7087 13.3778 19.2375 13.3117 18.7458C13.2501 18.2871 13.2501 17.7143 13.2501 17.0494V17.0494L13.2501 17L13.2501 16.9506V16.9506C13.2501 16.2857 13.2501 15.7129 13.3117 15.2542C13.3778 14.7625 13.5269 14.2913 13.9091 13.909C14.2914 13.5268 14.7626 13.3777 15.2543 13.3116C15.713 13.2499 16.2859 13.25 16.9507 13.25H16.9508Z" fill="#141B34"/>
</svg>
