<svg width="24" height="24" viewBox="0 0 24 24" fill="none" xmlns="http://www.w3.org/2000/svg">
<path fill-rule="evenodd" clip-rule="evenodd" d="M12 1.25C9.37665 1.25 7.25 3.37665 7.25 6C7.25 8.19587 8.74003 10.0437 10.7642 10.5876C10.9008 10.6244 11 10.7456 11 10.8871L11 17.75C11 18.3023 11.4477 18.75 12 18.75C12.5523 18.75 13 18.3023 13 17.75L13 10.8871C13 10.7456 13.0992 10.6244 13.2358 10.5876C15.26 10.0437 16.75 8.19587 16.75 6C16.75 3.37665 14.6234 1.25 12 1.25Z" fill="#141B34"/>
<path fill-rule="evenodd" clip-rule="evenodd" d="M7.99924 19.7106C7.97855 19.1766 7.53909 18.75 7 18.75C6.44772 18.75 6 19.1977 6 19.75C6 20.3897 6.32823 20.898 6.70582 21.255C7.08129 21.6101 7.57094 21.8838 8.09308 22.0927C9.1429 22.5126 10.5246 22.75 12 22.75C13.4754 22.75 14.8571 22.5126 15.9069 22.0927C16.4291 21.8838 16.9187 21.6101 17.2942 21.255C17.6718 20.898 18 20.3897 18 19.75C18 19.1977 17.5523 18.75 17 18.75C16.4609 18.75 16.0215 19.1766 16.0008 19.7106C15.99 19.7273 15.9667 19.7578 15.92 19.8019C15.7894 19.9254 15.5468 20.0827 15.1641 20.2357C14.4043 20.5397 13.2861 20.75 12 20.75C10.7139 20.75 9.59568 20.5397 8.83586 20.2357C8.45317 20.0827 8.21059 19.9254 8.08003 19.8019C8.03333 19.7578 8.01 19.7273 7.99924 19.7106Z" fill="#141B34"/>
</svg>
