<svg width="24" height="24" viewBox="0 0 24 24" fill="none" xmlns="http://www.w3.org/2000/svg">
<path d="M12.9751 13.9455H14.9251C18.6944 13.9455 21.7501 10.8986 21.7501 7.13997V6.16775C21.7501 5.6308 21.3136 5.19553 20.7751 5.19553H17.8501C14.0817 5.19553 11.0266 8.24092 11.0251 11.9982V19.7776C11.0251 20.3145 11.4616 20.7498 12.0001 20.7498C12.5386 20.7498 12.9751 20.3145 12.9751 19.7776V13.9455Z" fill="#141B34"/>
<path d="M3.22469 3.25021C2.68622 3.25021 2.24969 3.68549 2.24969 4.22244V5.19466C2.24969 8.95326 5.30535 12.0002 9.0747 12.0002H9.77509V11.9977C9.77597 9.86513 10.607 7.92757 11.9626 6.48774C10.7608 4.54503 8.60688 3.25021 6.14969 3.25021H3.22469Z" fill="#141B34"/>
</svg>
