<svg width="24" height="24" viewBox="0 0 24 24" fill="none" xmlns="http://www.w3.org/2000/svg">
<path fill-rule="evenodd" clip-rule="evenodd" d="M12 1.25C6.06294 1.25 1.25 6.06294 1.25 12C1.25 17.9371 6.06294 22.75 12 22.75C17.9371 22.75 22.75 17.9371 22.75 12C22.75 6.06294 17.9371 1.25 12 1.25ZM9.95576 15.3862C9.5 15.0791 9.5 14.3195 9.5 12.8002V11.1998C9.5 9.6805 9.5 8.92086 9.95576 8.61382C10.4115 8.30678 11.0348 8.6465 12.2815 9.32594L13.7497 10.1262C15.2499 10.9438 16 11.3526 16 12C16 12.6474 15.2499 13.0562 13.7497 13.8738L12.2815 14.6741C11.0348 15.3535 10.4115 15.6932 9.95576 15.3862Z" fill="#141B34"/>
</svg>
