<svg width="24" height="24" viewBox="0 0 24 24" fill="none" xmlns="http://www.w3.org/2000/svg">
<path fill-rule="evenodd" clip-rule="evenodd" d="M11.6525 1.81436C11.7667 1.74949 11.9052 1.7491 12.1823 1.74831L12.3881 1.74771C13.3696 1.74474 14.3524 1.74177 15.333 1.77893C15.7678 1.7954 15.9853 1.80364 16.0666 1.95457C16.148 2.1055 16.0338 2.29421 15.8055 2.67164L13.4793 6.51698L13.4793 6.51699C13.3368 6.75265 13.2655 6.87048 13.1512 6.93493C13.0368 6.99938 12.8991 6.99938 12.6237 6.99938H9.17267C8.85945 6.99938 8.70283 6.99938 8.64539 6.89792C8.58794 6.79646 8.66852 6.66217 8.82967 6.39359L11.325 2.2347C11.4672 1.99773 11.5383 1.87924 11.6525 1.81436ZM9.0907 1.87017C9.03003 1.76805 8.87165 1.77393 8.5549 1.7857C7.86371 1.81139 7.2436 1.85519 6.68802 1.92989C5.31137 2.11497 4.21911 2.50201 3.36091 3.36021C2.49797 4.22315 2.12446 5.37886 1.94949 6.5566C1.91938 6.75928 1.90433 6.86062 1.96417 6.93C2.024 6.99938 2.12901 6.99938 2.33901 6.99938H5.59742C5.87539 6.99938 6.01438 6.99938 6.1294 6.93391C6.24441 6.86844 6.31537 6.74893 6.45728 6.5099L8.90681 2.38419C9.06985 2.10959 9.15137 1.97229 9.0907 1.87017ZM19.1711 2.39311C18.8653 2.26727 18.7124 2.20434 18.5375 2.2612C18.3627 2.31805 18.2656 2.47586 18.0714 2.79148L15.857 6.38975C15.691 6.65958 15.608 6.79451 15.6652 6.89694C15.7224 6.99938 15.8809 6.99938 16.1977 6.99938H21.661C21.871 6.99938 21.976 6.99938 22.0358 6.93C22.0957 6.86062 22.0806 6.75928 22.0505 6.55661C21.8756 5.37886 21.502 4.22314 20.6391 3.36021C20.2103 2.93141 19.7231 2.62024 19.1711 2.39311ZM22.1183 9.11482C22.2352 9.23025 22.2374 9.4131 22.2419 9.77879C22.25 10.4432 22.25 11.1628 22.25 11.9419V11.942V11.942V11.9421V12.0565C22.25 14.2472 22.25 15.9679 22.0694 17.3113C21.8843 18.6879 21.4973 19.7802 20.6391 20.6384C19.7809 21.4966 18.6886 21.8836 17.312 22.0687C15.9686 22.2493 14.2479 22.2493 12.0572 22.2493H11.9428C9.7521 22.2493 8.03144 22.2493 6.68802 22.0687C5.31137 21.8836 4.21911 21.4966 3.36091 20.6384C2.50272 19.7802 2.11568 18.6879 1.93059 17.3113C1.74998 15.9679 1.74999 14.2472 1.75 12.0565V11.9421V11.942C1.75 11.1629 1.74999 10.4432 1.75811 9.77879C1.76259 9.4131 1.76482 9.23025 1.88167 9.11482C1.99853 8.99938 2.18305 8.99938 2.5521 8.99938H21.4479C21.8169 8.99938 22.0015 8.99938 22.1183 9.11482ZM12.6539 16.8502C14.0857 15.9644 14.8016 15.5215 14.9531 14.8948C15.0156 14.6361 15.0156 14.3639 14.9531 14.1052C14.8016 13.4785 14.0857 13.0356 12.6539 12.1498C11.2697 11.2936 10.5777 10.8654 10.0199 11.0375C9.78934 11.1087 9.57925 11.2438 9.40982 11.4299C9 11.8802 9 12.7535 9 14.5C9 16.2465 9 17.1198 9.40982 17.57C9.57925 17.7562 9.78934 17.8913 10.0199 17.9625C10.5777 18.1346 11.2697 17.7064 12.6539 16.8502Z" fill="#141B34"/>
</svg>
