<svg width="24" height="24" viewBox="0 0 24 24" fill="none" xmlns="http://www.w3.org/2000/svg">
<path fill-rule="evenodd" clip-rule="evenodd" d="M12 1.25C6.06294 1.25 1.25 6.06294 1.25 12C1.25 17.9371 6.06294 22.75 12 22.75C17.9371 22.75 22.75 17.9371 22.75 12C22.75 6.06294 17.9371 1.25 12 1.25ZM16.7071 7.29289C16.3166 6.90237 15.6834 6.90237 15.2929 7.29289L7.29289 15.2929C6.90237 15.6834 6.90237 16.3166 7.29289 16.7071C7.68342 17.0976 8.31658 17.0976 8.70711 16.7071L16.7071 8.70711C17.0976 8.31658 17.0976 7.68342 16.7071 7.29289ZM9.5 8C9.5 7.44772 9.05228 7 8.5 7C7.94771 7 7.5 7.44772 7.5 8V8.5H7C6.44772 8.5 6 8.94772 6 9.5C6 10.0523 6.44772 10.5 7 10.5H7.5V11C7.5 11.5523 7.94772 12 8.5 12C9.05229 12 9.5 11.5523 9.5 11V10.5H10C10.5523 10.5 11 10.0523 11 9.5C11 8.94772 10.5523 8.5 10 8.5H9.5V8ZM17 13.5H14C13.4477 13.5 13 13.9477 13 14.5C13 15.0523 13.4477 15.5 14 15.5H17C17.5523 15.5 18 15.0523 18 14.5C18 13.9477 17.5523 13.5 17 13.5Z" fill="#141B34"/>
</svg>
