<svg width="24" height="24" viewBox="0 0 24 24" fill="none" xmlns="http://www.w3.org/2000/svg">
<path fill-rule="evenodd" clip-rule="evenodd" d="M11.5874 1.24906C12.1574 1.2483 12.6619 1.24763 13.1373 1.41629C13.2353 1.45105 13.3314 1.49105 13.4251 1.53611C13.8799 1.75478 14.2362 2.11385 14.6387 2.5195L19.4215 7.32715C19.8889 7.7955 20.3036 8.21117 20.5277 8.75492C20.7518 9.29867 20.7509 9.88742 20.7499 10.5508L20.7499 10.7491C20.7498 12.1632 20.7498 12.8703 20.3104 13.3096C19.8711 13.749 19.164 13.749 17.7499 13.749L6.25 13.7489C4.83579 13.7489 4.12868 13.7489 3.68934 13.3096C3.25 12.8703 3.25 12.1632 3.25 10.7489V9.45154V9.45153V9.45151C3.24998 7.91787 3.24997 6.68136 3.36424 5.69752C3.48248 4.67957 3.73418 3.80735 4.32681 3.0685C4.54435 2.79729 4.79012 2.55025 5.05992 2.33158C5.79495 1.73586 6.66265 1.48286 7.67534 1.364C8.6541 1.24913 10.0617 1.24904 11.5874 1.24906ZM18.7314 9.50287C18.6746 9.36504 18.5692 9.23466 17.9511 8.61336L13.3462 3.98451C12.8133 3.44879 12.6719 3.31537 12.4902 3.26068V3.26906C12.4902 4.63092 12.4902 5.27863 12.6065 6.14382C12.7275 7.04393 12.9864 7.8018 13.5884 8.40372C14.1903 9.00564 14.9481 9.26453 15.8483 9.38555C16.7152 9.50211 17.3638 9.50289 18.7314 9.50287ZM10.624 15.5849C10.4407 15.31 10.099 15.1874 9.78266 15.2832C9.46634 15.3789 9.25 15.6705 9.25 16.001V22.001C9.25 22.4152 9.58579 22.751 10 22.751C10.4142 22.751 10.75 22.4152 10.75 22.001V18.4781L13.376 22.417C13.5593 22.692 13.901 22.8146 14.2173 22.7188C14.5337 22.623 14.75 22.3315 14.75 22.001V16.001C14.75 15.5868 14.4142 15.251 14 15.251C13.5858 15.251 13.25 15.5868 13.25 16.001V19.5239L10.624 15.5849ZM4 15.251C3.58579 15.251 3.25 15.5868 3.25 16.001V22.001C3.25 22.4152 3.58579 22.751 4 22.751C4.41421 22.751 4.75 22.4152 4.75 22.001V19.751H6C7.24264 19.751 8.25 18.7436 8.25 17.501C8.25 16.2583 7.24264 15.251 6 15.251H4ZM6 18.251H4.75V16.751H6C6.41421 16.751 6.75 17.0868 6.75 17.501C6.75 17.9152 6.41421 18.251 6 18.251ZM17.5 15.251C16.5335 15.251 15.75 16.0345 15.75 17.001V21.001C15.75 21.9675 16.5335 22.751 17.5 22.751H19C19.9665 22.751 20.75 21.9675 20.75 21.001V19.501C20.75 19.0868 20.4142 18.751 20 18.751H19C18.5858 18.751 18.25 19.0868 18.25 19.501C18.25 19.9152 18.5858 20.251 19 20.251H19.25V21.001C19.25 21.139 19.1381 21.251 19 21.251H17.5C17.3619 21.251 17.25 21.139 17.25 21.001V17.001C17.25 16.8629 17.3619 16.751 17.5 16.751H19C19.1381 16.751 19.25 16.8629 19.25 17.001C19.25 17.4152 19.5858 17.751 20 17.751C20.4142 17.751 20.75 17.4152 20.75 17.001C20.75 16.0345 19.9665 15.251 19 15.251H17.5Z" fill="#141B34"/>
</svg>
