<svg width="24" height="24" viewBox="0 0 24 24" fill="none" xmlns="http://www.w3.org/2000/svg">
<path d="M13.2818 9.16601L19.25 9.16601C20.6307 9.16601 21.75 10.2853 21.75 11.666C21.75 13.0467 20.6307 14.166 19.25 14.166H14.6426L14.2642 16.6043L14.2636 16.608L14.2602 16.6306C14.1189 17.5726 14.0074 18.3158 13.879 18.9068C13.7486 19.5075 13.5892 20.0095 13.325 20.4506C12.5597 21.7281 11.3367 22.75 9.52642 22.75C8.43946 22.75 7.65543 22.4875 6.11761 21.9727C5.05529 21.6188 3.86415 21.2216 3.31119 20.8418C2.40277 20.218 1.73951 19.2978 1.435 18.2388C1.24963 17.5941 1.24978 16.8758 1.25002 15.7561L1.25 14.0544C1.24951 12.4387 1.24919 11.3971 1.64778 10.4854C1.82748 10.0744 2.0645 9.69085 2.35179 9.3463C2.989 8.58206 3.92073 8.11655 5.36612 7.3944C5.98991 7.0825 6.68172 6.73662 7.11771 6.56139C7.5713 6.37909 7.99398 6.26179 8.45228 6.25103C8.83052 6.24216 9.20793 6.29057 9.57169 6.39464C10.0124 6.52073 10.3918 6.74093 10.7847 7.03182C11.1623 7.31143 11.5901 7.68574 12.115 8.145L13.2818 9.16601Z" fill="#141B34"/>
<path d="M15.75 5.50586C15.1977 5.50586 14.75 5.05814 14.75 4.50586C14.75 3.95357 15.1977 3.50586 15.75 3.50586L18.25 3.50586L18.25 2.9116C18.2499 2.73596 18.2497 2.52031 18.2718 2.34387L18.2722 2.34053C18.288 2.21408 18.3598 1.63804 18.9254 1.36368C19.4922 1.08872 19.9924 1.39065 20.1006 1.45597L20.5691 1.79511C20.9449 2.08975 21.4594 2.49545 21.8504 2.87588C22.0455 3.06571 22.2467 3.28297 22.4056 3.51388C22.5468 3.71914 22.75 4.06933 22.75 4.5C22.75 4.93067 22.5468 5.28086 22.4056 5.48612C22.2467 5.71703 22.0455 5.93429 21.8504 6.12412C21.4594 6.50455 20.9449 6.91025 20.5691 7.20488L20.1006 7.54403C19.9924 7.60935 19.4922 7.91128 18.9254 7.63632C18.3598 7.36196 18.288 6.78592 18.2722 6.65947L18.2718 6.65613C18.2497 6.47969 18.2499 6.26403 18.25 6.0884L18.25 5.50586L15.75 5.50586Z" fill="#141B34"/>
</svg>
