<svg width="24" height="24" viewBox="0 0 24 24" fill="none" xmlns="http://www.w3.org/2000/svg">
<path d="M11.302 12.8092C11.302 13.0479 11.1144 13.2414 10.8831 13.2414L7.76549 13.2414C7.58807 13.2414 7.49936 13.2414 7.41657 13.3089C7.33378 13.3765 7.31986 13.4443 7.29203 13.58C7.25744 13.7487 7.24848 13.9111 7.25003 13.9999C7.25003 14.6086 7.4478 15.1711 7.78258 15.6267C7.85276 15.7222 7.88785 15.77 7.95173 15.8023C8.0156 15.8346 8.08355 15.8346 8.21945 15.8346L10.8831 15.8346C11.1144 15.8346 11.302 16.0281 11.302 16.2668C11.302 16.5055 11.1144 16.699 10.8831 16.699L8.87581 16.699C8.58575 16.699 8.44072 16.699 8.35115 16.8005C8.26158 16.9021 8.27813 17.034 8.31122 17.2978C8.42268 18.1862 8.79127 18.777 9.33264 19.1874C9.39728 19.2365 9.42961 19.261 9.47613 19.2766C9.52266 19.2923 9.56893 19.2923 9.66147 19.2923L12 19.2923C12.2313 19.2923 12.4188 19.4858 12.4188 19.7245C12.4188 19.9632 12.2313 20.1567 12 20.1567L10.0817 20.1567C9.79028 20.1567 9.64456 20.1567 9.55452 20.2748C9.46447 20.393 9.49715 20.5118 9.56252 20.7495C9.8748 21.8849 11.0425 22.7488 12.1923 22.7499L14.0119 22.75C15.8578 22.7503 16.9881 22.7505 17.9223 22.4138C18.6449 22.1534 19.2988 21.7528 19.8532 21.2442C20.2513 20.879 20.663 20.6803 21.0449 20.6803C21.9866 20.6803 22.75 19.9169 22.75 18.9752L22.7501 11.7222C22.7504 11.5219 22.7508 11.3134 22.7093 11.1247C22.5629 10.4579 22.0421 9.93704 21.3753 9.79065C21.1865 9.74921 20.9251 9.74961 20.7249 9.74994C20.4413 9.74994 20.1662 9.65352 19.9446 9.47651L17.3696 7.42572C16.6526 6.93894 16.0701 6.54338 15.5649 6.26755C15.04 5.98098 14.5403 5.78963 13.9817 5.75645C13.6617 5.73743 13.3405 5.76014 13.0263 5.824C12.478 5.93539 12.0096 6.19496 11.5291 6.55233C11.0824 6.88455 10.4499 7.45725 9.83167 8.01698C9.5131 8.35146 9.35381 8.5187 9.37553 8.66379C9.38317 8.71476 9.4038 8.7629 9.43544 8.80358C9.52552 8.91937 9.75648 8.91937 10.2184 8.91937L13.6753 8.91937C13.9066 8.91937 14.0942 9.11288 14.0942 9.35158C14.0942 9.59028 13.9066 9.78378 13.6753 9.78378L2.54649 9.78378C1.83039 9.78378 1.24988 10.3643 1.24988 11.0804C1.24988 11.7965 1.83039 12.377 2.54649 12.377L10.8831 12.377C11.1144 12.377 11.302 12.5705 11.302 12.8092Z" fill="#141B34"/>
<path d="M8.24992 5.50586C8.8022 5.50586 9.24992 5.05814 9.24992 4.50586C9.24992 3.95358 8.8022 3.50586 8.24992 3.50586L5.74988 3.50586L5.7499 2.9116C5.75002 2.73596 5.75018 2.52031 5.72811 2.34387L5.72769 2.34053C5.71192 2.21408 5.64008 1.63804 5.07449 1.36368C4.50766 1.08872 4.00752 1.39065 3.89932 1.45597L3.43083 1.79511C3.05501 2.08975 2.54055 2.49545 2.14954 2.87588C1.95443 3.06571 1.75319 3.28297 1.59434 3.51388C1.45314 3.71914 1.24988 4.06933 1.24988 4.5C1.24988 4.93067 1.45314 5.28086 1.59434 5.48612C1.75319 5.71703 1.95443 5.93429 2.14954 6.12412C2.54055 6.50455 3.055 6.91025 3.43082 7.20488L3.89932 7.54403C4.00753 7.60935 4.50767 7.91128 5.07449 7.63632C5.64008 7.36196 5.71192 6.78592 5.72769 6.65947L5.72811 6.65613C5.75018 6.47969 5.75002 6.26403 5.7499 6.0884L5.74988 5.50586L8.24992 5.50586Z" fill="#141B34"/>
</svg>
