<svg width="24" height="24" viewBox="0 0 24 24" fill="none" xmlns="http://www.w3.org/2000/svg">
<path d="M11 20.7651V22C11 22.5523 11.4477 23 12 23C12.5523 23 13 22.5523 13 22V20.7672L16.4837 22.8575C16.9573 23.1416 17.5715 22.9881 17.8557 22.5145C18.1398 22.0409 17.9863 21.4267 17.5127 21.1425L13 18.4349V17H11V18.4328L6.48371 21.1425C6.01013 21.4266 5.85656 22.0409 6.1407 22.5145C6.42485 22.9881 7.03911 23.1416 7.51269 22.8575L11 20.7651Z" fill="#141B34"/>
<path fill-rule="evenodd" clip-rule="evenodd" d="M1.75 7.6C1.75 4.48873 1.75 2.9331 2.69805 1.96655C3.6461 1 5.17196 1 8.22368 1H15.7763C18.828 1 20.3539 1 21.302 1.96655C22.25 2.9331 22.25 4.48873 22.25 7.6V10.9C22.25 14.0113 22.25 15.5669 21.302 16.5335C20.3539 17.5 18.828 17.5 15.7763 17.5H8.22368C5.17196 17.5 3.6461 17.5 2.69805 16.5335C1.75 15.5669 1.75 14.0113 1.75 10.9V7.6ZM10.2804 9.00138C10.0386 8.98707 9.74287 9.08683 9.49213 9.41604L8.79558 10.3306C8.46094 10.7699 7.83349 10.8548 7.39413 10.5202C6.95478 10.1855 6.86989 9.55806 7.20453 9.11871L7.90108 8.2042C8.529 7.3798 9.44957 6.94872 10.3985 7.00487C11.3447 7.06085 12.2102 7.59401 12.7556 8.4727C12.9794 8.83331 13.2689 8.97529 13.508 8.9969C13.7432 9.01816 14.0268 8.93283 14.2769 8.63724L15.2367 7.50313C15.5935 7.08155 16.2245 7.02902 16.6461 7.3858C17.0676 7.74258 17.1202 8.37356 16.7634 8.79514L15.8036 9.92925C15.1563 10.6941 14.2479 11.0719 13.328 10.9888C12.4119 10.906 11.583 10.3761 11.0562 9.52733C10.8248 9.15446 10.5251 9.01586 10.2804 9.00138Z" fill="#141B34"/>
</svg>
