<svg width="24" height="24" viewBox="0 0 24 24" fill="none" xmlns="http://www.w3.org/2000/svg">
<path fill-rule="evenodd" clip-rule="evenodd" d="M11.0001 21.5063V22C11.0001 22.5523 11.4478 23 12.0001 23C12.5524 23 13.0001 22.5523 13.0001 22V21.5064C13.3474 21.5156 13.4578 21.5365 13.5542 21.5764C13.6952 21.6348 13.8286 21.7432 14.4644 22.379L14.7928 22.7074C15.1834 23.0979 15.8165 23.0979 16.207 22.7074C16.5976 22.3169 16.5976 21.6837 16.207 21.2932L15.8786 20.9648L15.7806 20.8665C15.3013 20.3858 14.876 19.9591 14.3196 19.7287C13.9089 19.5586 13.4731 19.5145 13.0001 19.5035V17H11.0001L11.0001 19.5035C10.527 19.5145 10.0911 19.5585 9.6803 19.7287C9.12385 19.9592 8.69851 20.3859 8.21924 20.8667L8.21924 20.8667L8.12118 20.965L7.79297 21.2932C7.40247 21.6838 7.40251 22.317 7.79306 22.7075C8.18361 23.098 8.81677 23.0979 9.20727 22.7074L9.53548 22.3791C10.1713 21.7433 10.3047 21.6349 10.4457 21.5764C10.5422 21.5365 10.6526 21.5156 11.0001 21.5063Z" fill="#141B34"/>
<path d="M1.75012 11.4C1.75012 14.5113 1.75012 16.0669 2.69817 17.0335C3.64622 18 5.17208 18 8.22381 18H15.7764C18.8282 18 20.354 18 21.3021 17.0335C22.2501 16.0669 22.2501 14.5113 22.2501 11.4V8.10002C22.2501 4.98875 22.2501 3.43312 21.3021 2.46657C20.354 1.50002 18.8282 1.50002 15.7764 1.50002H8.22381C5.17208 1.50002 3.64622 1.50002 2.69817 2.46657C1.75012 3.43312 1.75012 4.98875 1.75012 8.10003V11.4Z" fill="#141B34"/>
</svg>
