<svg width="24" height="24" viewBox="0 0 24 24" fill="none" xmlns="http://www.w3.org/2000/svg">
<path fill-rule="evenodd" clip-rule="evenodd" d="M9.40754 1.25012L14.5925 1.25012H14.5925H14.5926C15.26 1.2501 15.829 1.25009 16.2976 1.29287C16.7948 1.33825 17.2654 1.43745 17.7097 1.68608C18.1614 1.9389 18.4684 2.28023 18.725 2.67167C18.9595 3.02937 19.1836 3.48098 19.4369 3.99128L19.4369 3.9913L20.158 5.44423C20.2343 5.59789 20.2615 5.76137 20.2457 5.91891C20.2485 5.94551 20.25 5.97253 20.25 5.99988V10.3202C20.25 11.8609 20.25 13.0925 20.1214 14.059C19.9885 15.0578 19.7061 15.8852 19.0567 16.5412C18.4063 17.1983 17.5841 17.485 16.5918 17.6198C15.6336 17.7499 14.4131 17.7499 12.8893 17.7499H11.1107C9.58689 17.7499 8.36638 17.7499 7.40816 17.6198C6.41588 17.485 5.59372 17.1983 4.9433 16.5412C4.29392 15.8852 4.01152 15.0578 3.8786 14.059C3.74997 13.0926 3.74998 11.8609 3.75 10.3203V10.3203V10.3202V10.3202L3.75 5.99988C3.75 5.97252 3.75147 5.94551 3.75432 5.91891C3.73851 5.76137 3.76572 5.59789 3.84199 5.44423L4.54191 4.03403L4.56311 3.99132L4.56311 3.99131C4.81635 3.481 5.04046 3.02938 5.27496 2.67167C5.53158 2.28023 5.83857 1.9389 6.29031 1.68608C6.73456 1.43745 7.20516 1.33825 7.70236 1.29287C8.17096 1.25009 8.73996 1.2501 9.40744 1.25012H9.40751H9.40754ZM17.7005 4.81213L17.9178 5.24988L6.08225 5.24988L6.29952 4.81213C6.58037 4.24627 6.75744 3.89287 6.92537 3.63671C7.0777 3.40434 7.18149 3.3183 7.2799 3.26322C7.38579 3.20396 7.5431 3.14921 7.88911 3.11762C8.25327 3.08438 8.7278 3.08339 9.45228 3.08339L14.5477 3.08339C15.2722 3.08339 15.7467 3.08438 16.1109 3.11762C16.4569 3.14921 16.6142 3.20396 16.7201 3.26322C16.8185 3.3183 16.9223 3.40434 17.0746 3.63671C17.2426 3.89287 17.4196 4.24628 17.7005 4.81213ZM13.2498 8H10.75C10.1977 8 9.75 8.44772 9.75 9C9.75 9.55229 10.1977 10 10.75 10L13.2498 10C13.8021 10 14.2498 9.55229 14.2498 9C14.2498 8.44772 13.8021 8 13.2498 8Z" fill="#141B34"/>
<path fill-rule="evenodd" clip-rule="evenodd" d="M22.75 21.9999C22.75 20.205 21.2949 18.7499 19.5 18.7499L4.5 18.7499C2.70507 18.7499 1.25 20.205 1.25 21.9999C1.25 22.4141 1.58579 22.7499 2 22.7499C2.41421 22.7499 2.75 22.4141 2.75 21.9999C2.75 21.0334 3.5335 20.2499 4.5 20.2499H6.25V21.9999C6.25 22.4141 6.58579 22.7499 7 22.7499C7.41421 22.7499 7.75 22.4141 7.75 21.9999V20.2499H11.25V21.9999C11.25 22.4141 11.5858 22.7499 12 22.7499C12.4142 22.7499 12.75 22.4141 12.75 21.9999V20.2499H16.25V21.9999C16.25 22.4141 16.5858 22.7499 17 22.7499C17.4142 22.7499 17.75 22.4141 17.75 21.9999V20.2499H19.5C20.4665 20.2499 21.25 21.0334 21.25 21.9999C21.25 22.4141 21.5858 22.7499 22 22.7499C22.4142 22.7499 22.75 22.4141 22.75 21.9999Z" fill="#141B34"/>
</svg>
