<svg width="24" height="24" viewBox="0 0 24 24" fill="none" xmlns="http://www.w3.org/2000/svg">
<path fill-rule="evenodd" clip-rule="evenodd" d="M17.312 1.93059C15.9686 1.74998 14.2479 1.74999 12.0572 1.75C9.86647 1.74999 8.03144 1.74998 6.68802 1.93059C5.31137 2.11568 4.21911 2.50272 3.36091 3.36091C2.50272 4.21911 2.11568 5.31137 1.93059 6.68802C1.74998 8.03144 1.74999 9.86647 1.75 12.0572C1.74999 14.2479 1.74998 15.9686 1.93059 17.312C2.11568 18.6886 2.50272 19.7809 3.36091 20.6391C4.21911 21.4973 5.31137 21.8843 6.68802 22.0694C8.03144 22.25 9.86646 22.25 12.0572 22.25H12.0572C14.2479 22.25 15.9686 22.25 17.312 22.0694C18.6886 21.8843 19.7809 21.4973 20.6391 20.6391C21.4973 19.7809 21.8843 18.6886 22.0694 17.312C22.25 15.9686 22.25 14.2479 22.25 12.0572V12.0572C22.25 9.86646 22.25 8.03144 22.0694 6.68802C21.8843 5.31137 21.4973 4.21911 20.6391 3.36091C19.7809 2.50272 18.6886 2.11568 17.312 1.93059ZM6.5 6C5.94772 6 5.5 6.44771 5.5 7C5.5 7.55228 5.94771 8 6.5 8L7.5 8C8.05228 8 8.5 7.55229 8.5 7C8.5 6.44772 8.05229 6 7.5 6L6.5 6ZM11.5 6C10.9477 6 10.5 6.44772 10.5 7C10.5 7.55228 10.9477 8 11.5 8L17.5 8C18.0523 8 18.5 7.55229 18.5 7C18.5 6.44772 18.0523 6 17.5 6L11.5 6ZM6.5 11C5.94772 11 5.5 11.4477 5.5 12C5.5 12.5523 5.94771 13 6.5 13H7.5C8.05228 13 8.5 12.5523 8.5 12C8.5 11.4477 8.05229 11 7.5 11H6.5ZM11.5 11C10.9477 11 10.5 11.4477 10.5 12C10.5 12.5523 10.9477 13 11.5 13H17.5C18.0523 13 18.5 12.5523 18.5 12C18.5 11.4477 18.0523 11 17.5 11H11.5ZM6.5 16C5.94772 16 5.5 16.4477 5.5 17C5.5 17.5523 5.94772 18 6.5 18H7.5C8.05228 18 8.5 17.5523 8.5 17C8.5 16.4477 8.05228 16 7.5 16H6.5ZM11.5 16C10.9477 16 10.5 16.4477 10.5 17C10.5 17.5523 10.9477 18 11.5 18H17.5C18.0523 18 18.5 17.5523 18.5 17C18.5 16.4477 18.0523 16 17.5 16L11.5 16Z" fill="#141B34"/>
</svg>
