<svg width="24" height="24" viewBox="0 0 24 24" fill="none" xmlns="http://www.w3.org/2000/svg">
<path fill-rule="evenodd" clip-rule="evenodd" d="M12 1.25C6.06294 1.25 1.25 6.06294 1.25 12C1.25 17.9371 6.06294 22.75 12 22.75C17.9371 22.75 22.75 17.9371 22.75 12C22.75 6.06294 17.9371 1.25 12 1.25ZM12.9969 4.5664C12.4495 4.49298 11.9998 4.94755 11.9998 5.49984V10.9998C11.9998 11.5521 11.5521 11.9998 10.9998 11.9998H5.49984C4.94755 11.9998 4.49298 12.4495 4.5664 12.9969C4.71794 14.1266 5.12568 15.2116 5.76381 16.1666C6.58793 17.4 7.75927 18.3613 9.12971 18.9289C10.5002 19.4966 12.0082 19.6451 13.463 19.3557C14.9179 19.0663 16.2542 18.352 17.3031 17.3031C18.352 16.2542 19.0663 14.9179 19.3557 13.463C19.6451 12.0082 19.4966 10.5002 18.9289 9.12971C18.3613 7.75927 17.4 6.58793 16.1666 5.76381C15.2116 5.12568 14.1266 4.71794 12.9969 4.5664Z" fill="#141B34"/>
</svg>
