<svg width="24" height="24" viewBox="0 0 24 24" fill="none" xmlns="http://www.w3.org/2000/svg">
<path fill-rule="evenodd" clip-rule="evenodd" d="M13.4799 4.10796C13.1308 4.75438 13 5.57827 13 6.13281C13 6.6851 12.5523 7.13281 12 7.13281C11.4477 7.13281 11 6.6851 11 6.13281C11 5.35402 11.1692 4.17791 11.7201 3.15766C12.2944 2.09409 13.3376 1.13281 15 1.13281C15.5523 1.13281 16 1.58053 16 2.13281C16 2.6851 15.5523 3.13281 15 3.13281C14.2624 3.13281 13.8056 3.50487 13.4799 4.10796Z" fill="#141B34"/>
<path d="M7.70703 6.05924C7.36167 6.49292 7.06717 6.97255 6.83086 7.48068C6.6562 7.85626 6.81907 8.30233 7.19466 8.477C7.57024 8.65167 8.01631 8.48879 8.19098 8.11321C8.74876 6.91382 9.65237 6.01092 10.7205 5.60462C11.1211 5.46124 11.5503 5.38281 12 5.38281C12.4435 5.38281 12.8672 5.4591 13.263 5.59877C14.3379 6.0022 15.2476 6.90803 15.808 8.11321C15.9827 8.48879 16.4288 8.65167 16.8044 8.477C17.1799 8.30233 17.3428 7.85626 17.1682 7.48068C16.9319 6.9726 16.6374 6.49301 16.2921 6.05936C16.0988 5.81661 16.0021 5.69523 16.045 5.58745C16.0879 5.47967 16.2252 5.46019 16.4999 5.42123C16.6797 5.39572 16.8574 5.38281 17.0313 5.38281C18.6962 5.38281 20.1431 6.29497 21.1472 7.64973C22.1514 9.0046 22.75 10.8409 22.75 12.8367C22.75 14.8084 22.1316 17.2503 20.8973 18.9206C20.2737 19.7644 19.4547 20.461 18.4289 20.7463C18.3153 20.7779 18.2005 20.8041 18.0846 20.8248C17.8064 20.8745 17.6672 20.8993 17.5931 20.8047C17.5189 20.7101 17.5834 20.5645 17.7125 20.2735C18.048 19.5171 18.2432 18.7015 18.2432 17.8724C18.2432 17.4582 17.9074 17.1224 17.4932 17.1224C17.079 17.1224 16.7432 17.4582 16.7432 17.8724C16.7432 19.0769 16.1607 20.3359 15.2344 21.305C14.306 22.2762 13.1172 22.869 12 22.869C10.8828 22.869 9.69398 22.2762 8.7656 21.305C7.83927 20.3359 7.25684 19.0769 7.25684 17.8724C7.25684 17.4582 6.92105 17.1224 6.50684 17.1224C6.09262 17.1224 5.75684 17.4582 5.75684 17.8724C5.75684 18.7015 5.95203 19.5171 6.28747 20.2735C6.41658 20.5645 6.48113 20.7101 6.40695 20.8047C6.33276 20.8993 6.19364 20.8745 5.9154 20.8248C5.79946 20.8041 5.68467 20.7779 5.57109 20.7463C4.54528 20.461 3.72626 19.7644 3.1027 18.9206C1.8684 17.2503 1.25 14.8084 1.25 12.8367C1.25 10.8409 1.84857 9.0046 2.85275 7.64973C3.85686 6.29497 5.30378 5.38281 6.9687 5.38281C7.14234 5.38281 7.31964 5.39568 7.49914 5.4211C7.77388 5.46 7.91124 5.47945 7.95415 5.58724C7.99706 5.69504 7.90038 5.81644 7.70703 6.05924Z" fill="#141B34"/>
</svg>
