<svg width="24" height="24" viewBox="0 0 24 24" fill="none" xmlns="http://www.w3.org/2000/svg">
<path fill-rule="evenodd" clip-rule="evenodd" d="M12 1.25C6.09523 1.25 1.25 5.83838 1.25 11.5667C1.25 14.3144 2.36972 16.8065 4.18451 18.6494C4.45227 18.9213 4.53937 19.2 4.50088 19.4052C4.35863 20.1513 4.03697 20.8445 3.56917 21.4199C3.40224 21.6252 3.35586 21.9033 3.44713 22.1517C3.5384 22.4 3.75381 22.5819 4.01396 22.6303C5.62504 22.93 7.29542 22.66 8.72714 21.8986C8.96068 21.7744 9.11322 21.6935 9.22775 21.6391C9.24264 21.6191 9.30334 21.5839 9.42696 21.6036C9.53909 21.6189 9.68979 21.647 9.92698 21.6916C10.6103 21.8199 11.3041 21.8843 12 21.8834C17.9048 21.8834 22.75 17.295 22.75 11.5667C22.75 5.83838 17.9048 1.25 12 1.25ZM16.6361 7.29256C16.2995 7.24992 15.8837 7.24996 15.4208 7.25C14.958 7.24996 14.4549 7.24992 14.1183 7.29256C13.7539 7.33872 13.3703 7.44613 13.051 7.74701C12.7253 8.05385 12.6027 8.43283 12.5508 8.79678C12.5043 9.12264 12.5043 9.52224 12.5044 9.95339V9.95341C12.5043 10.3846 12.5043 10.8774 12.5508 11.2032C12.6027 11.5672 12.7253 11.9462 13.051 12.253C13.3703 12.5539 13.7539 12.6613 14.1183 12.7074C14.4549 12.7501 14.958 12.75 15.4208 12.75C15.8837 12.75 16.3449 12.744 16.6815 12.7014C16.4235 13.8817 15.4556 14.8837 14.1045 15.2804C13.7071 15.3971 13.4795 15.8139 13.5962 16.2113C13.7129 16.6087 14.1297 16.8363 14.5271 16.7196C16.6382 16.0998 18.25 14.2912 18.25 12.0687L18.25 9.95341C18.2501 9.52226 18.2501 9.12264 18.2036 8.79678C18.1517 8.43283 18.0291 8.05385 17.7034 7.74701C17.3841 7.44613 17.0005 7.33872 16.6361 7.29256ZM9.88171 7.29256C9.5451 7.24992 9.12928 7.24996 8.66643 7.25C8.20359 7.24996 7.70053 7.24992 7.36392 7.29256C6.99954 7.33872 6.61594 7.44613 6.29658 7.74701C5.97091 8.05385 5.84833 8.43283 5.79639 8.79678C5.74989 9.12264 5.74994 9.52226 5.75 9.95341C5.74994 10.3846 5.74989 10.8774 5.79639 11.2032C5.84833 11.5672 5.97091 11.9462 6.29658 12.253C6.61594 12.5539 6.99955 12.6613 7.36392 12.7074C7.70053 12.7501 8.11634 12.75 8.57917 12.75H8.5792C9.04204 12.75 9.59052 12.744 9.92713 12.7014C9.66912 13.8817 8.70122 14.8837 7.35012 15.2804C6.95269 15.3971 6.7251 15.8139 6.84179 16.2113C6.95848 16.6087 7.37526 16.8363 7.7727 16.7196C9.88379 16.0998 11.4956 14.2912 11.4956 12.0687L11.4956 9.95342V9.9534V9.95339C11.4957 9.52224 11.4957 9.12263 11.4492 8.79678C11.3973 8.43283 11.2747 8.05385 10.949 7.74701C10.6297 7.44613 10.2461 7.33872 9.88171 7.29256Z" fill="#141B34"/>
</svg>
