<svg width="24" height="24" viewBox="0 0 24 24" fill="none" xmlns="http://www.w3.org/2000/svg">
<path d="M12 3.20455C7.1424 3.20455 3.20455 7.1424 3.20455 12C3.20455 16.8576 7.1424 20.7955 12 20.7955C16.8576 20.7955 20.7955 16.8576 20.7955 12C20.7955 11.4603 21.233 11.0227 21.7727 11.0227C22.3125 11.0227 22.75 11.4603 22.75 12C22.75 17.9371 17.9371 22.75 12 22.75C6.06294 22.75 1.25 17.9371 1.25 12C1.25 6.06294 6.06294 1.25 12 1.25C14.1254 1.25 16.1072 1.86735 17.7751 2.93159L19 1.70668C19.173 1.43228 19.4788 1.25 19.8272 1.25C20.367 1.25 20.8045 1.68754 20.8045 2.22727V5.28828C20.8045 6.48198 19.3213 7.02646 18.548 6.12763C16.9364 4.33189 14.6005 3.20455 12 3.20455Z" fill="#141B34"/>
</svg>
