<svg width="24" height="24" viewBox="0 0 24 24" fill="none" xmlns="http://www.w3.org/2000/svg">
<path fill-rule="evenodd" clip-rule="evenodd" d="M1.25 12C1.25 6.06294 6.06294 1.25 12 1.25C17.9371 1.25 22.75 6.06294 22.75 12C22.75 17.9371 17.9371 22.75 12 22.75C6.06294 22.75 1.25 17.9371 1.25 12ZM8.43942 9.25C8.09461 9.25 7.80952 9.0342 7.70596 8.74622C7.5658 8.35644 7.1362 8.15408 6.74642 8.29424C6.35664 8.4344 6.15429 8.864 6.29445 9.25378C6.60988 10.131 7.45533 10.75 8.43942 10.75C9.42351 10.75 10.269 10.131 10.5844 9.25378C10.7246 8.864 10.5222 8.4344 10.1324 8.29424C9.74264 8.15408 9.31304 8.35644 9.17288 8.74622C9.06932 9.0342 8.78423 9.25 8.43942 9.25ZM15.561 9.25C15.2162 9.25 14.9311 9.0342 14.8275 8.74622C14.6874 8.35644 14.2578 8.15408 13.868 8.29424C13.4782 8.4344 13.2759 8.864 13.416 9.25378C13.7314 10.131 14.5769 10.75 15.561 10.75C16.5451 10.75 17.3905 10.131 17.706 9.25378C17.8461 8.864 17.6438 8.4344 17.254 8.29424C16.8642 8.15408 16.4346 8.35644 16.2944 8.74622C16.1909 9.0342 15.9058 9.25 15.561 9.25ZM8.59974 14.5496C8.35099 14.2184 7.88084 14.1515 7.54964 14.4003C7.21843 14.649 7.1516 15.1192 7.40035 15.4504C8.44802 16.8453 10.1185 17.75 12 17.75C13.8816 17.75 15.5521 16.8453 16.5997 15.4504C16.8485 15.1192 16.7817 14.649 16.4505 14.4003C16.1192 14.1515 15.6491 14.2184 15.4003 14.5496C14.6238 15.5835 13.3898 16.25 12 16.25C10.6103 16.25 9.37631 15.5835 8.59974 14.5496Z" fill="#141B34"/>
</svg>
