<svg width="24" height="24" viewBox="0 0 24 24" fill="none" xmlns="http://www.w3.org/2000/svg">
<path d="M5.15689 8.74995L5.25001 8.75001H18.75L18.8431 8.74995C19.2729 8.74946 19.6407 8.74905 19.9633 8.84508C20.8301 9.10317 21.4602 9.83708 21.6716 10.7139C21.7505 11.0412 21.7503 11.4171 21.75 11.9096L21.75 12L21.75 12.0904C21.7503 12.5829 21.7505 12.9588 21.6716 13.2861C21.4602 14.163 20.8301 14.8969 19.9633 15.1549C19.6407 15.251 19.2729 15.2506 18.8431 15.2501L18.75 15.25H5.25001L5.15688 15.2501C4.72716 15.2506 4.35931 15.251 4.03674 15.1549C3.16987 14.8969 2.53986 14.163 2.32841 13.2861C2.24948 12.9588 2.24969 12.5829 2.24997 12.0904L2.25001 12L2.24997 11.9097C2.24969 11.4171 2.24948 11.0412 2.32841 10.7139C2.53986 9.83708 3.16987 9.10317 4.03674 8.84508C4.35931 8.74905 4.72716 8.74946 5.15689 8.74995Z" fill="#141B34"/>
</svg>
