<svg width="24" height="24" viewBox="0 0 24 24" fill="none" xmlns="http://www.w3.org/2000/svg">
<path fill-rule="evenodd" clip-rule="evenodd" d="M17.5377 1.92144C16.2623 1.74998 14.073 1.74999 12 1.75C9.92697 1.74999 7.73769 1.74998 6.46234 1.92144C5.15376 2.09737 4.10928 2.4661 3.28769 3.28769C2.4661 4.10928 2.09738 5.15376 1.92144 6.46234C1.74997 7.73769 1.74999 9.37002 1.75 11.4431L1.75 12.5569C1.74999 14.63 1.74997 16.2623 1.92144 17.5377C2.09738 18.8462 2.4661 19.8907 3.28769 20.7123C4.10928 21.5339 5.15376 21.9026 6.46234 22.0786C7.73769 22.25 9.37002 22.25 11.4431 22.25H12.5569C14.63 22.25 16.2623 22.25 17.5377 22.0786C18.8462 21.9026 19.8907 21.5339 20.7123 20.7123C21.5339 19.8907 21.9026 18.8462 22.0786 17.5377C22.25 16.2623 22.25 14.63 22.25 12.5569V11.4431C22.25 9.37002 22.25 7.73769 22.0786 6.46234C21.9026 5.15376 21.5339 4.10928 20.7123 3.28769C19.8907 2.4661 18.8462 2.09737 17.5377 1.92144ZM18.75 11C18.75 10.5858 18.4142 10.25 18 10.25C17.5858 10.25 17.25 10.5858 17.25 11V12C17.25 13.2426 16.2426 14.25 15 14.25C14.5858 14.25 14.25 14.5858 14.25 15C14.25 15.4142 14.5858 15.75 15 15.75C17.0711 15.75 18.75 14.0711 18.75 12V11ZM11 7.25C11.4142 7.25 11.75 7.58579 11.75 8V12.5C11.75 12.6381 11.8619 12.75 12 12.75H13C13.1381 12.75 13.25 12.6381 13.25 12.5C13.25 12.0858 13.5858 11.75 14 11.75C14.4142 11.75 14.75 12.0858 14.75 12.5C14.75 13.4665 13.9665 14.25 13 14.25L12 14.25C11.0335 14.25 10.25 13.4665 10.25 12.5V8C10.25 7.58579 10.5858 7.25 11 7.25ZM9.25 8C9.25 7.58579 8.91421 7.25 8.5 7.25C8.08579 7.25 7.75 7.58579 7.75 8L7.75 12.5C7.75 12.6381 7.63807 12.75 7.5 12.75H6.5C6.36193 12.75 6.25 12.6381 6.25 12.5C6.25 12.0858 5.91421 11.75 5.5 11.75C5.08579 11.75 4.75 12.0858 4.75 12.5C4.75 13.4665 5.5335 14.25 6.5 14.25H7.5C8.4665 14.25 9.25 13.4665 9.25 12.5L9.25 8ZM11 14.7402C11.4142 14.7402 11.75 15.076 11.75 15.4902V15.5002C11.75 15.9144 11.4142 16.2502 11 16.2502C10.5858 16.2502 10.25 15.9144 10.25 15.5002V15.4902C10.25 15.076 10.5858 14.7402 11 14.7402ZM13.75 15.5C13.75 15.0858 13.4142 14.75 13 14.75C12.5858 14.75 12.25 15.0858 12.25 15.5V15.51C12.25 15.9242 12.5858 16.26 13 16.26C13.4142 16.26 13.75 15.9242 13.75 15.51V15.5Z" fill="#141B34"/>
</svg>
