<svg width="24" height="24" viewBox="0 0 24 24" fill="none" xmlns="http://www.w3.org/2000/svg">
<path fill-rule="evenodd" clip-rule="evenodd" d="M11 7C11.5523 7 12 7.44772 12 8V14C12 14.5523 11.5523 15 11 15C10.4477 15 10 14.5523 10 14V8C10 7.44772 10.4477 7 11 7ZM15 7C15.5523 7 16 7.44772 16 8V14C16 14.5523 15.5523 15 15 15C14.4477 15 14 14.5523 14 14V8C14 7.44772 14.4477 7 15 7Z" fill="#141B34"/>
<path fill-rule="evenodd" clip-rule="evenodd" d="M5.18877 7.41529C5.37672 7.15452 5.67856 7 6.00001 7H16.5C17.8807 7 19 8.11929 19 9.5C19 10.0523 18.5523 10.5 18 10.5C17.4477 10.5 17 10.0523 17 9.5C17 9.22386 16.7761 9 16.5 9H16V13L18 13C18.5523 13 19 13.4477 19 14C19 14.5523 18.5523 15 18 15L7.00001 15C6.44772 15 6.00001 14.5523 6.00001 14C6.00001 13.5764 6.26344 13.2142 6.63543 13.0685L5.05132 8.31623C4.94967 8.01128 5.00081 7.67606 5.18877 7.41529ZM8.72077 13L14 13V9H7.38743L8.72077 13Z" fill="#141B34"/>
<path fill-rule="evenodd" clip-rule="evenodd" d="M3.68404 1.05159C4.20799 0.87694 4.77431 1.1601 4.94895 1.68404L8.72103 13.0003L18.0003 13.0003C18.5526 13.0003 19.0003 13.448 19.0003 14.0003C19.0003 14.5526 18.5526 15.0003 18.0003 15.0003H17.3877L18.4796 18.2759C18.7357 18.0052 18.9721 17.7187 19.187 17.4184C19.5084 16.9692 20.133 16.8656 20.5822 17.187C21.0313 17.5084 21.1349 18.133 20.8135 18.5822C20.2047 19.4331 19.462 20.1889 18.6156 20.8241C16.7966 22.1893 14.4948 23.0003 12.0003 23.0003C9.50447 23.0003 7.20157 22.1885 5.38214 20.8221C4.53694 20.1873 3.79517 19.4322 3.187 18.5822C2.86563 18.133 2.96923 17.5084 3.41839 17.187C3.86754 16.8656 4.49218 16.9692 4.81354 17.4184C5.02843 17.7187 5.26487 18.0052 5.52097 18.2759L6.63569 14.9317C6.2637 14.786 6.00027 14.4239 6.00027 14.0003C6.00027 13.5766 6.2637 13.2145 6.63569 13.0688L3.05159 2.3165C2.87694 1.79256 3.1601 1.22624 3.68404 1.05159ZM8.72103 15.0003L7.17733 19.6314C8.55027 20.4936 10.2083 21.0003 12.0003 21.0003C13.7922 21.0003 15.4503 20.4936 16.8232 19.6314L15.2795 15.0003H8.72103Z" fill="#141B34"/>
</svg>
