<svg width="24" height="24" viewBox="0 0 24 24" fill="none" xmlns="http://www.w3.org/2000/svg">
<path d="M9.05575 2.25C10.6583 2.24998 11.9373 2.24997 12.9404 2.38483C13.9767 2.52415 14.8301 2.81966 15.5052 3.4948C16.1803 4.16994 16.4759 5.02335 16.6152 6.05961C16.75 7.0627 16.75 8.34166 16.75 9.94426V10.0557C16.75 11.6583 16.75 12.9373 16.6152 13.9404C16.4758 14.9767 16.1803 15.8301 15.5052 16.5052C14.8301 17.1803 13.9767 17.4759 12.9404 17.6152C11.9373 17.75 10.6583 17.75 9.05574 17.75H8.94426C7.34166 17.75 6.0627 17.75 5.05961 17.6152C4.02335 17.4759 3.16994 17.1803 2.4948 16.5052C1.81966 15.8301 1.52415 14.9767 1.38483 13.9404C1.24997 12.9373 1.24998 11.6583 1.25 10.0557V10.0557V9.94426V9.94425C1.24998 8.34166 1.24997 7.0627 1.38483 6.05961C1.52415 5.02335 1.81966 4.16994 2.4948 3.4948C3.16994 2.81966 4.02335 2.52415 5.05961 2.38483C6.0627 2.24997 7.34166 2.24998 8.94425 2.25H8.94426H9.05574H9.05575Z" fill="#141B34"/>
<path fill-rule="evenodd" clip-rule="evenodd" d="M18.3864 11.75C18.3864 11.1977 18.8341 10.75 19.3864 10.75C19.9408 10.75 20.3414 11.0377 20.6082 11.2845C20.8523 11.5103 21.1114 11.8244 21.3756 12.1449C21.3875 12.1593 21.3994 12.1737 21.4113 12.1881L22.5214 13.5338C22.8728 13.9598 22.8124 14.5901 22.3864 14.9415C21.9603 15.293 21.3301 15.2325 20.9786 14.8065L20.3842 14.0859C20.3773 15.3399 20.3488 16.3962 20.231 17.2723C20.0696 18.4725 19.7245 19.483 18.9219 20.2855C18.1193 21.0881 17.1088 21.4333 15.9087 21.5946C14.7527 21.75 13.283 21.75 11.4595 21.75H10.75C10.1977 21.75 9.75 21.3023 9.75 20.75C9.75 20.1977 10.1977 19.75 10.75 19.75H11.3864C13.3002 19.75 14.6351 19.7479 15.6422 19.6125C16.6206 19.4809 17.1387 19.2403 17.5077 18.8713C17.8767 18.5023 18.1173 17.9842 18.2488 17.0058C18.3842 15.9987 18.3864 14.6639 18.3864 12.75V11.75Z" fill="#141B34"/>
</svg>
