<svg width="24" height="24" viewBox="0 0 24 24" fill="none" xmlns="http://www.w3.org/2000/svg">
<path d="M16.0919 2.07346C16.0966 2.15274 16.1094 2.3704 16.114 2.49334C16.1235 2.74419 16.1306 3.08875 16.1197 3.45489C16.109 3.81491 16.0803 4.22659 16.0094 4.60084C15.9739 4.78823 15.9234 4.99054 15.8476 5.18329C15.7757 5.36628 15.6557 5.60652 15.4462 5.80909C15.0728 6.17017 14.5548 6.27486 14.2538 6.31899C13.8944 6.37169 13.5066 6.37876 13.1728 6.37048C12.8327 6.36205 12.5149 6.33664 12.2844 6.31381C12.1717 6.30266 11.9715 6.27816 11.8977 6.26913L11.8913 6.26834C11.5179 6.21587 11.2054 5.95775 11.0837 5.60083C10.962 5.24391 11.0514 4.84887 11.3149 4.57914L12.0324 3.84489C9.32782 2.28084 5.6469 3.33231 4.01903 6.57689C3.77136 7.07053 3.17041 7.26992 2.67677 7.02225C2.18314 6.77459 1.98374 6.17364 2.23141 5.68C4.41127 1.33522 9.72925 -0.189101 13.4741 2.36948L14.3791 1.44328C14.6537 1.16224 15.0675 1.06807 15.4367 1.20259C15.8058 1.3371 16.0621 1.67562 16.0915 2.06745L16.0919 2.07346Z" fill="#141B34"/>
<path d="M20.2216 8.45576C20.7366 8.15822 21.4119 8.34108 21.7228 8.88034C22.0314 9.41578 21.8539 10.0828 21.3431 10.3779L14.7507 14.1871C14.5403 14.3087 14.4667 14.5807 14.5862 14.7947C14.7058 15.0086 14.9733 15.0835 15.1837 14.962L20.0181 12.1686C20.5331 11.871 21.2085 12.0539 21.5193 12.5932C21.8279 13.1286 21.6504 13.7956 21.1396 14.0908L15.4262 17.392C15.2158 17.5136 15.1422 17.7856 15.2617 17.9996C15.3813 18.2136 15.6488 18.2885 15.8592 18.1669L19.8146 15.8814C20.3296 15.5838 21.005 15.7667 21.3158 16.306C21.6244 16.8414 21.4469 17.5084 20.9361 17.8036L15.5156 20.9356C14.5555 21.4904 13.8533 21.8959 13.2749 22.1818C12.6998 22.4661 12.2734 22.6185 11.8697 22.6799C11.4164 22.7488 10.6638 22.6373 10.0409 22.5067C9.41862 22.3761 8.75043 22.4478 8.17805 22.7785C7.82056 22.9851 7.36304 22.8626 7.15701 22.5051L3.51117 16.1795C3.24635 15.7201 3.38538 15.1393 3.77619 14.7805C4.40792 14.2005 4.95662 13.4791 5.2521 12.7228L7.42666 7.15622C7.65126 6.62252 8.2088 6.30904 8.79088 6.40322C9.55846 6.52741 10.0503 7.295 9.85908 8.03574L9.26996 10.3179C9.22521 10.4913 9.28697 10.6751 9.42672 10.7844C9.56647 10.8936 9.75699 10.9071 9.91026 10.8185L17.3481 6.52107C17.8632 6.22348 18.5385 6.40637 18.8493 6.94564C19.1578 7.48089 18.9806 8.14759 18.4702 8.44291L14.0753 10.9823C13.8649 11.1039 13.7913 11.3759 13.9108 11.5899C14.0304 11.8039 14.2979 11.8788 14.5083 11.7572L20.2216 8.45576Z" fill="#141B34"/>
</svg>
