<svg width="24" height="24" viewBox="0 0 24 24" fill="none" xmlns="http://www.w3.org/2000/svg">
<path d="M16.5919 2.07346C16.5966 2.15274 16.6094 2.3704 16.614 2.49334C16.6235 2.74419 16.6306 3.08875 16.6197 3.45489C16.609 3.81491 16.5803 4.22659 16.5094 4.60084C16.4739 4.78823 16.4234 4.99054 16.3476 5.18329C16.2757 5.36628 16.1557 5.60652 15.9462 5.80909C15.5728 6.17017 15.0548 6.27486 14.7538 6.31899C14.3944 6.37169 14.0066 6.37876 13.6728 6.37048C13.3327 6.36205 13.0149 6.33664 12.7844 6.31381C12.6717 6.30266 12.4715 6.27816 12.3977 6.26913L12.3913 6.26834C12.0179 6.21587 11.7054 5.95775 11.5837 5.60083C11.462 5.24391 11.5514 4.84887 11.8149 4.57914L12.5324 3.84489C9.82782 2.28084 6.1469 3.33231 4.51903 6.57689C4.27136 7.07053 3.67041 7.26992 3.17677 7.02225C2.68314 6.77459 2.48374 6.17364 2.73141 5.68C4.91127 1.33522 10.2293 -0.189101 13.9741 2.36948L14.8791 1.44328C15.1537 1.16224 15.5675 1.06807 15.9367 1.20259C16.3058 1.3371 16.5621 1.67562 16.5915 2.06745L16.5919 2.07346Z" fill="#141B34"/>
<path d="M16.2483 11.0812C16.4915 10.9426 16.6131 10.8733 16.7322 10.9052C16.8512 10.9371 16.9219 11.0579 17.0633 11.2996L17.0681 11.3078C17.5255 12.0898 17.2549 13.0907 16.4604 13.5435L15.5484 14.0633C15.3354 14.1846 15.262 14.4543 15.3843 14.6656C15.5067 14.8769 15.7786 14.9498 15.9916 14.8284L16.9035 14.3087C17.1957 14.1422 17.5683 14.2419 17.7357 14.528C18.193 15.31 17.9225 16.3109 17.1279 16.7638L16.216 17.2835C16.003 17.4049 15.9295 17.6746 16.0519 17.8859C16.1743 18.0971 16.4461 18.17 16.6591 18.0486L17.5711 17.5289C17.8122 17.3915 18.1184 17.502 18.2146 17.7555L18.3428 18.0933C18.6268 18.8416 18.3218 19.6841 17.6184 20.0849C16.6225 20.6525 14.5503 21.8327 13.95 22.1264C13.3529 22.4185 12.9099 22.5766 12.4909 22.6426C12.0206 22.7166 11.2437 22.6112 10.6025 22.4857C9.96165 22.3603 9.2743 22.4393 8.68482 22.7752C8.3099 22.9889 7.83141 22.8617 7.61442 22.4907L4.55422 17.2587C4.08674 16.4594 3.853 16.0598 3.87663 15.7023C3.90026 15.3447 4.28408 14.8508 5.05171 13.8629C5.34265 13.4885 5.58557 13.0877 5.75296 12.6776L8.04897 7.0524C8.28973 6.50358 8.87714 6.18063 9.47962 6.27027C10.2678 6.38756 10.7709 7.15194 10.565 7.90553L9.93586 10.2088C9.8888 10.3811 9.95103 10.5646 10.0935 10.6736C10.236 10.7826 10.4307 10.7957 10.5867 10.7068L19.6719 5.52937C20.2159 5.21934 20.9106 5.40419 21.2233 5.9389C21.5353 6.47232 21.351 7.15541 20.8083 7.46472L14.8807 10.8428C14.6677 10.9642 14.5943 11.2339 14.7166 11.4452C14.839 11.6565 15.1109 11.7294 15.3239 11.608L16.2483 11.0812Z" fill="#141B34"/>
</svg>
