<svg width="24" height="24" viewBox="0 0 24 24" fill="none" xmlns="http://www.w3.org/2000/svg">
<path d="M21.2679 5.30531C21.5156 5.79895 21.3162 6.3999 20.8225 6.64756C20.3289 6.89523 19.728 6.69584 19.4803 6.2022C17.7983 2.84975 13.9209 1.84135 11.2016 3.63209L11.7996 4.23009C11.8739 4.25378 12.1883 4.63287 12.2117 4.79901C12.2693 5.20919 11.9835 5.58843 11.5733 5.64606C11.2588 5.69025 10.6522 5.73765 10.3201 5.74588C9.99278 5.754 9.62095 5.74672 9.28156 5.69696C8.98604 5.65363 8.53892 5.55662 8.22672 5.2547C8.05316 5.08686 7.94947 4.88323 7.88416 4.71713C7.81596 4.5437 7.7691 4.35772 7.73537 4.17964C7.66799 3.82388 7.63979 3.42698 7.62928 3.0728C7.6188 2.71993 7.64672 1.98333 7.65655 1.72389L7.65703 1.71126C7.68808 1.29821 8.04797 0.988547 8.46102 1.0196C8.65118 1.0196 8.8739 1.25378 9.12392 1.55441L9.75806 2.18855C13.518 -0.637827 19.0359 0.856709 21.2679 5.30531Z" fill="#141B34"/>
<path d="M2.9553 6.95662C3.6293 5.80323 5.11405 5.41483 6.27197 6.07533L12.9763 9.89963L12.7817 8.8723C12.527 7.5279 13.4516 6.25712 14.7984 6.05446C15.9181 5.88597 17.0136 6.51054 17.4228 7.56905L19.3061 12.4402C19.8159 13.7573 20.1499 14.6204 20.126 15.5245C20.1217 15.6863 20.1087 15.8477 20.0871 16.0081C19.9661 16.9043 19.4984 17.7039 18.7843 18.925L18.14 20.0277C17.604 20.9453 17.2564 21.5405 16.7886 21.9861C16.0208 22.7176 15.021 23.1613 13.9607 23.2434C13.3151 23.2933 12.6361 23.1559 11.584 22.9429C10.0585 22.6366 8.76623 22.3767 7.8579 21.8586C6.33952 20.9925 5.80656 19.5574 5.78324 18.1304C5.77514 17.6347 5.8855 17.1407 6.06612 16.583C6.24371 16.0346 6.50851 15.3694 6.84312 14.5288L6.8517 14.5073L7.65572 12.4291L3.84685 10.2564C2.68372 9.59296 2.27814 8.11542 2.9553 6.95662Z" fill="#141B34"/>
</svg>
