<svg width="24" height="24" viewBox="0 0 24 24" fill="none" xmlns="http://www.w3.org/2000/svg">
<path fill-rule="evenodd" clip-rule="evenodd" d="M7.49609 5.99603C7.49609 5.16761 8.16767 4.49603 8.99609 4.49603H9.00244C9.83087 4.49603 10.5024 5.16761 10.5024 5.99603C10.5024 6.44146 10.3083 6.84154 10 7.11627L10 13.2499H18.052H18.052H18.0521C18.9505 13.2499 19.6997 13.2499 20.2945 13.3299C20.9223 13.4143 21.4891 13.5999 21.9445 14.0554C22.4 14.5109 22.5857 15.0777 22.6701 15.7055C22.7501 16.3002 22.75 17.0495 22.75 17.9479V18.0519C22.75 18.9504 22.7501 19.6996 22.6701 20.2944C22.5857 20.9222 22.4 21.489 21.9445 21.9445C21.4891 22.4 20.9223 22.5856 20.2945 22.67C19.6997 22.75 18.9505 22.75 18.052 22.7499H18.052H5.94801H5.94798C5.04951 22.75 4.3003 22.75 3.70552 22.67C3.07773 22.5856 2.51093 22.4 2.05546 21.9445C1.59999 21.489 1.41432 20.9222 1.32991 20.2944C1.24995 19.6996 1.24997 18.9504 1.25 18.052V18.0519V17.9479V17.9479C1.24997 17.0494 1.24995 16.3002 1.32991 15.7055C1.41432 15.0777 1.59999 14.5109 2.05546 14.0554C2.51093 13.5999 3.07773 13.4143 3.70552 13.3299C4.30029 13.2499 5.04949 13.2499 5.94794 13.2499H5.94797H5.948H8L8 7.11757C7.69086 6.84281 7.49609 6.44216 7.49609 5.99603ZM5 17.9999C5 17.4477 5.44772 16.9999 6 16.9999H6.00897C6.56126 16.9999 7.00897 17.4477 7.00897 17.9999C7.00897 18.5522 6.56126 18.9999 6.00897 18.9999H6C5.44772 18.9999 5 18.5522 5 17.9999ZM8.99551 17.9999C8.99551 17.4477 9.44323 16.9999 9.99551 16.9999H10.0045C10.5568 16.9999 11.0045 17.4477 11.0045 17.9999C11.0045 18.5522 10.5568 18.9999 10.0045 18.9999H9.99551C9.44323 18.9999 8.99551 18.5522 8.99551 17.9999ZM12.991 17.9999C12.991 17.4477 13.4387 16.9999 13.991 16.9999H14C14.5523 16.9999 15 17.4477 15 17.9999C15 18.5522 14.5523 18.9999 14 18.9999H13.991C13.4387 18.9999 12.991 18.5522 12.991 17.9999Z" fill="#141B34"/>
<path fill-rule="evenodd" clip-rule="evenodd" d="M4.11916 1.22544C4.54691 1.57479 4.61048 2.20475 4.26114 2.63251C3.44963 3.62618 3 4.78352 3 6.0054C3 7.22348 3.44682 8.37735 4.25348 9.36889C4.60201 9.79731 4.53725 10.4272 4.10883 10.7757C3.68041 11.1242 3.05057 11.0595 2.70203 10.631C1.63946 9.32492 1 7.73472 1 6.0054C1 4.27059 1.64352 2.67585 2.71209 1.36743C3.06143 0.939668 3.6914 0.8761 4.11916 1.22544ZM6.52913 2.97717C6.99777 3.2694 7.14077 3.88621 6.84854 4.35484C6.53045 4.86495 6.36068 5.42361 6.36068 6.0054C6.36068 6.58432 6.52876 7.14025 6.84373 7.64824C7.13477 8.11762 6.99019 8.73405 6.52081 9.02509C6.05143 9.31612 5.43499 9.17154 5.14396 8.70216C4.64836 7.90286 4.36068 6.9853 4.36068 6.0054C4.36068 5.02052 4.65129 4.09867 5.15146 3.29658C5.44369 2.82794 6.0605 2.68494 6.52913 2.97717Z" fill="#141B34"/>
</svg>
