<svg width="24" height="24" viewBox="0 0 24 24" fill="none" xmlns="http://www.w3.org/2000/svg">
<path d="M11.9904 4.69737C9.66122 4.69737 7.99799 4.69887 6.73454 4.84259C5.48503 4.98472 4.77578 5.25301 4.27359 5.6779C3.54072 6.29798 3.20423 7.11788 3.20423 9.08601C3.19042 9.62358 2.74183 10.0482 2.20228 10.0345C1.66272 10.0207 1.23652 9.57377 1.25033 9.03619C1.25033 7.20996 1.54676 5.43023 3.00843 4.19354C3.93877 3.4064 5.09859 3.06866 6.51283 2.90779C7.90017 2.74998 9.73836 2.74999 11.9904 2.75C14.2424 2.74999 16.0802 2.74998 17.4676 2.90779C18.8818 3.06866 20.0416 3.4064 20.972 4.19354C21.9254 5.0002 22.3568 6.04006 22.5581 7.30706C22.7493 8.51006 22.7496 10.1193 22.7496 12C22.7496 13.8807 22.7496 15.4899 22.5585 16.6929C22.3571 17.9599 21.9258 18.9998 20.9723 19.8065C20.1841 20.4734 19.2317 20.8173 18.1005 21.0047C16.9868 21.1893 15.6221 21.2336 13.9575 21.2456C13.7985 21.2467 13.759 21.25 13.4049 21.25C12.8652 21.25 12.4276 20.8141 12.4276 20.2763C12.4276 19.7386 12.8652 19.3026 13.4049 19.3026C13.755 19.3026 13.7857 19.2994 13.9397 19.2983C15.6122 19.2863 16.8358 19.2402 17.7798 19.0838C18.7069 18.9301 19.2816 18.6821 19.7072 18.3221C20.1863 17.9167 20.4712 17.3752 20.628 16.3884C20.7922 15.3552 20.795 13.983 20.795 12C20.795 10.017 20.7918 8.64481 20.6276 7.61157C20.4708 6.62482 20.1859 6.08328 19.7068 5.6779C19.2046 5.25301 18.4954 4.98472 17.2459 4.84259C15.9824 4.69887 14.3196 4.69737 11.9904 4.69737Z" fill="#141B34"/>
<path fill-rule="evenodd" clip-rule="evenodd" d="M1.25 20.2991C1.25 19.7744 1.67493 19.3491 2.19912 19.3491H2.20764C2.73182 19.3491 3.15676 19.7744 3.15676 20.2991C3.15676 20.8238 2.73182 21.2491 2.20764 21.2491H2.19912C1.67493 21.2491 1.25 20.8238 1.25 20.2991Z" fill="#141B34"/>
<path fill-rule="evenodd" clip-rule="evenodd" d="M1.30175 12.7C1.30175 12.1753 1.72668 11.75 2.25087 11.75C6.48852 11.75 10.75 15.4657 10.75 20.2999C10.75 20.8246 10.3251 21.2499 9.80088 21.2499C9.2767 21.2499 8.85177 20.8246 8.85177 20.2999C8.85177 16.5846 5.51103 13.6501 2.25087 13.6501C1.72668 13.6501 1.30175 13.2247 1.30175 12.7ZM1.31934 16.1418C1.41978 15.6269 1.91826 15.2909 2.43273 15.3914C4.71641 15.8377 6.6405 17.8429 6.92317 20.186C6.98601 20.7069 6.61509 21.1802 6.09468 21.2431C5.57428 21.306 5.10147 20.9347 5.03863 20.4138C4.85742 18.9117 3.56772 17.5492 2.069 17.2563C1.55453 17.1557 1.2189 16.6568 1.31934 16.1418Z" fill="#141B34"/>
</svg>
