<svg width="24" height="24" viewBox="0 0 24 24" fill="none" xmlns="http://www.w3.org/2000/svg">
<path fill-rule="evenodd" clip-rule="evenodd" d="M1.25 12C1.25 6.06294 6.06294 1.25 12 1.25C17.9371 1.25 22.75 6.06294 22.75 12C22.75 17.9371 17.9371 22.75 12 22.75C6.06294 22.75 1.25 17.9371 1.25 12ZM7.54964 17.5997C7.88084 17.8484 8.35099 17.7816 8.59974 17.4504C9.37631 16.4164 10.6103 15.75 12 15.75C13.3898 15.75 14.6238 16.4164 15.4003 17.4504C15.6491 17.7816 16.1192 17.8484 16.4505 17.5997C16.7817 17.3509 16.8485 16.8808 16.5997 16.5495C15.5521 15.1546 13.8816 14.25 12 14.25C10.1185 14.25 8.44802 15.1546 7.40035 16.5495C7.1516 16.8808 7.21843 17.3509 7.54964 17.5997ZM8 7.75C7.30964 7.75 6.75 8.30964 6.75 9C6.75 9.69036 7.30964 10.25 8 10.25H8.00897C8.69933 10.25 9.25897 9.69036 9.25897 9C9.25897 8.30964 8.69933 7.75 8.00897 7.75H8ZM15.991 7.75C15.3007 7.75 14.741 8.30964 14.741 9C14.741 9.69036 15.3007 10.25 15.991 10.25H16C16.6904 10.25 17.25 9.69036 17.25 9C17.25 8.30964 16.6904 7.75 16 7.75H15.991Z" fill="#141B34"/>
</svg>
