<svg width="24" height="24" viewBox="0 0 24 24" fill="none" xmlns="http://www.w3.org/2000/svg">
<path d="M13.0936 1.87746C13.4692 1.63629 13.8899 1.46157 14.3932 1.50722C14.9033 1.55349 15.2807 1.80626 15.5941 2.122C15.8748 2.40469 16.1603 2.79738 16.4759 3.23142L18.6142 6.17122C19.0155 6.7229 19.3719 7.21281 19.5775 7.62387C19.794 8.05662 19.971 8.66193 19.5667 9.23358C19.2099 9.73808 18.6223 9.87855 18.1231 9.93846C17.6101 10 16.9307 10 16.117 9.99999L10.6341 9.99999C9.58538 10 8.7305 10 8.10466 9.92771C7.53322 9.86168 6.80065 9.70715 6.45748 9.06481C6.27583 8.7248 6.27163 8.3651 6.38319 8.03753C6.48284 7.74491 6.67059 7.48654 6.8634 7.26493C7.2382 6.83417 7.83373 6.32248 8.541 5.71477L11.9384 2.79542L11.9384 2.79541C12.3687 2.42558 12.7493 2.09847 13.0936 1.87746Z" fill="#141B34"/>
<path fill-rule="evenodd" clip-rule="evenodd" d="M14.0584 2.24994C14.6107 2.24994 15.0584 2.69766 15.0584 3.24994L15.0584 13.2499C15.0584 13.8022 14.6107 14.2499 14.0584 14.2499C13.5061 14.2499 13.0584 13.8022 13.0584 13.2499L13.0584 3.24994C13.0584 2.69766 13.5061 2.24994 14.0584 2.24994Z" fill="#141B34"/>
<path fill-rule="evenodd" clip-rule="evenodd" d="M9.33321 20.1562C9.39007 20.188 9.44643 20.221 9.50226 20.2552L9.64766 20.3441C10.1078 20.5721 10.686 20.5499 11.1232 20.2777L11.1299 20.2736L11.1299 20.2736C12.7761 19.2666 14.8756 19.2666 16.5218 20.2736L16.5285 20.2777L16.5284 20.2777C16.9864 20.5629 17.6123 20.5681 18.129 20.2557C19.3811 19.4804 20.9058 19.3052 22.2841 19.7137C22.8136 19.8707 23.1157 20.4272 22.9587 20.9567C22.8018 21.4862 22.2453 21.7882 21.7158 21.6313C20.862 21.3782 19.9285 21.4926 19.1792 21.9578L19.1711 21.9628L19.1711 21.9628C18.0519 22.643 16.6146 22.6851 15.4753 21.978C14.471 21.3652 13.1807 21.3652 12.1764 21.978C11.0772 22.6603 9.65348 22.6737 8.54153 22.0181C8.48852 21.9915 8.42888 21.9557 8.3684 21.9082C7.3745 21.3455 6.13118 21.3668 5.17921 21.9578L5.17113 21.9628L5.1711 21.9628C4.037 22.652 2.59825 22.6587 1.47143 21.9572C1.00258 21.6653 0.859121 21.0486 1.15101 20.5797C1.44289 20.1109 2.05959 19.9674 2.52844 20.2593C2.99947 20.5525 3.62585 20.5598 4.12906 20.2557C5.68737 19.2907 7.67347 19.2522 9.27963 20.1266L9.28568 20.1266L9.33321 20.1562Z" fill="#141B34"/>
<path d="M10.6215 18.952C10.5585 18.9499 10.4912 18.9405 10.4276 18.9249C10.406 18.9196 10.3866 18.914 10.3695 18.9085C10.3556 18.904 10.3486 18.9017 10.3339 18.8951C10.3191 18.8885 10.3083 18.8822 10.2866 18.8696C8.79757 18.0018 7.02322 17.7805 5.39269 18.2191C5.22734 18.2636 5.14467 18.2858 5.07072 18.2682C4.99676 18.2506 4.93983 18.1997 4.82596 18.0978C3.89538 17.2652 3.30164 16.3557 2.94686 15.4797L2.92598 15.4282C2.80037 15.1187 2.66195 14.7776 2.61366 14.4544C2.55152 14.0385 2.63096 13.65 2.88569 13.272C3.16811 12.8529 3.5554 12.6543 3.98253 12.5695C4.33403 12.4997 4.75987 12.4998 5.19059 12.5L19.302 12.5C19.7323 12.4999 20.1481 12.4998 20.4905 12.5607C20.895 12.6326 21.2809 12.8018 21.5756 13.1874C21.8518 13.5488 21.9364 13.9324 21.9099 14.3327C21.8886 14.6563 21.79 15.0176 21.6945 15.3682L21.6805 15.4195C21.4774 16.1658 21.1552 16.9955 20.6636 17.7834C20.5934 17.8961 20.5582 17.9524 20.5016 17.9888C20.4449 18.0252 20.371 18.0349 20.223 18.0542C19.3526 18.1678 18.4999 18.461 17.7269 18.9381C17.6645 18.975 17.6004 18.9904 17.5451 18.9908C17.4881 18.9913 17.4528 18.9762 17.4372 18.9665L17.4221 18.9573C15.4131 17.7284 12.8677 17.7058 10.839 18.8896C10.7903 18.918 10.7659 18.9322 10.7265 18.9426C10.6871 18.953 10.6711 18.9528 10.639 18.9524C10.6334 18.9524 10.6275 18.9522 10.6215 18.952Z" fill="#141B34"/>
</svg>
