<svg width="25" height="24" viewBox="0 0 25 24" fill="none" xmlns="http://www.w3.org/2000/svg">
<path fill-rule="evenodd" clip-rule="evenodd" d="M14.5 1.25C12.7051 1.25 11.25 2.70507 11.25 4.5C11.25 4.76889 11.1542 4.9762 10.9397 5.1754C10.7019 5.39618 10.3167 5.60386 9.76283 5.78849C8.95972 6.05619 7.90711 6.49478 7.0827 7.61898C6.26697 8.73134 5.75 10.4094 5.75 13C5.75 15.1222 6.23848 16.5894 6.85431 17.6315C7.03225 17.9327 7.221 18.1967 7.40596 18.4264C6.47235 18.6514 5.7678 19.0756 5.25896 19.6056C4.51137 20.3843 4.25 21.3268 4.25 22C4.25 22.4142 4.58579 22.75 5 22.75H18C19.5188 22.75 20.75 21.5188 20.75 20C20.75 18.6692 19.8047 17.5592 18.5489 17.3048C18.449 17.0209 18.3251 16.6834 18.1751 16.3757C17.92 15.8524 17.5414 15.2928 16.916 14.876C16.586 14.6559 16.2543 14.4579 15.9549 14.2792L15.9548 14.2791L15.9548 14.2791L15.7843 14.1772C15.4322 13.9659 15.1395 13.7834 14.898 13.5955C14.4365 13.2366 14.25 12.9318 14.25 12.5C14.25 11.6943 14.1182 10.5241 13.9934 9.58838C13.9301 9.11342 13.8668 8.6864 13.8194 8.37814L13.7992 8.24774L13.9158 8.12505C14.9515 8.34398 15.8849 7.84586 16.5149 7.21578C17.2371 6.49342 17.75 5.43065 17.75 4.5C17.75 2.70507 16.2949 1.25 14.5 1.25ZM10.7364 11.1391C10.8132 10.7321 10.5454 10.3399 10.1384 10.2631C9.73136 10.1864 9.33916 10.4541 9.26239 10.8611C9.07066 11.8777 9.06995 13.2956 9.66445 14.6654C10.2706 16.062 11.4714 17.3491 13.5642 18.0898C13.9546 18.228 14.3832 18.0235 14.5214 17.633C14.6596 17.2425 14.4551 16.8139 14.0646 16.6757C12.3542 16.0704 11.4765 15.073 11.0404 14.0682C10.5927 13.0366 10.5861 11.9361 10.7364 11.1391Z" fill="#141B34"/>
</svg>
