<svg width="24" height="24" viewBox="0 0 24 24" fill="none" xmlns="http://www.w3.org/2000/svg">
<path fill-rule="evenodd" clip-rule="evenodd" d="M14.4845 1.42051C15.5267 1.13257 16.7206 1.13058 17.7445 2.04238C18.8593 3.03512 19.1476 4.53968 18.934 5.94126C18.7184 7.35569 17.9819 8.81711 16.8227 9.96099C16.4296 10.3489 15.7965 10.3447 15.4086 9.9516C15.0206 9.55849 15.0248 8.92534 15.4179 8.53742C16.2855 7.68129 16.8093 6.60786 16.9568 5.63985C17.1063 4.659 16.8609 3.93355 16.4144 3.536C16.0816 3.23966 15.6848 3.16382 15.0172 3.34828C14.3468 3.53349 13.6117 3.92606 12.7385 4.39236C12.6716 4.42811 12.6038 4.4643 12.5352 4.50086C11.6427 4.97648 10.5858 5.52685 9.54048 5.71165C8.99747 5.80765 8.41675 5.81425 7.83531 5.64149C7.24612 5.46642 6.71622 5.12479 6.25721 4.61554C5.88745 4.2053 5.92026 3.57299 6.33049 3.20322C6.74073 2.83346 7.37305 2.86627 7.74281 3.27651C7.97894 3.53848 8.20058 3.6636 8.40496 3.72433C8.61711 3.78737 8.87202 3.79881 9.19231 3.74219C9.8736 3.62175 10.654 3.23706 11.5946 2.73583C11.6741 2.69349 11.7549 2.65019 11.8369 2.60625C12.6526 2.16915 13.5867 1.66856 14.4845 1.42051Z" fill="#141B34"/>
<path fill-rule="evenodd" clip-rule="evenodd" d="M19.4951 6.50448C19.1067 6.11604 18.6375 5.91753 18.1097 5.79074L14.6696 5.34239C13.8299 5.24823 13.1751 5.1748 12.5613 5.3901C11.9475 5.60541 11.482 6.07184 10.8852 6.66988L10.784 6.77122L5.52109 12.0341L5.52109 12.0341C4.85647 12.6987 4.3046 13.2505 3.92584 13.7469C3.52687 14.2699 3.25 14.8185 3.25 15.4809C3.25 16.1434 3.52687 16.692 3.92584 17.2149C4.3046 17.7113 4.85645 18.2631 5.52105 18.9277L5.52107 18.9277L5.52109 18.9277L7.07187 20.4785L7.0719 20.4785L7.07191 20.4785C7.73648 21.1431 8.2883 21.695 8.78472 22.0738C9.30764 22.4727 9.85625 22.7496 10.5187 22.7496C11.1811 22.7496 11.7298 22.4727 12.2527 22.0738C12.7491 21.695 13.3009 21.1431 13.9655 20.4785L13.9655 20.4785L19.3297 15.1144C19.9278 14.5176 20.3942 14.0521 20.6095 13.4383C20.8248 12.8245 20.7514 12.1697 20.6572 11.33L20.4886 9.81368C20.4044 9.05579 20.3339 8.42064 20.2144 7.91334C20.088 7.37616 19.8894 6.89877 19.4951 6.50448ZM14.5299 12.5308C14.823 12.2381 14.8234 11.7632 14.5308 11.4701C14.2381 11.177 13.7632 11.1766 13.4701 11.4692L13.3525 11.5867C12.5447 11.2063 11.552 11.3378 10.8814 12.0074C10.5197 12.3684 10.222 12.8493 10.2543 13.4508C10.2853 14.0273 10.6119 14.5254 11.042 14.9549C11.3635 15.2758 11.4224 15.4649 11.4282 15.5472C11.4318 15.5987 11.4252 15.7431 11.1518 16.0161C10.9266 16.2409 10.7664 16.2589 10.6623 16.2474C10.524 16.2321 10.3214 16.1421 10.0853 15.9065C9.8728 15.6943 9.79167 15.4304 9.81095 15.2119C9.84737 14.7993 9.54241 14.4353 9.1298 14.3989C8.71719 14.3624 8.35318 14.6674 8.31676 15.08C8.27843 15.5142 8.36885 15.9574 8.57566 16.3556L8.47011 16.461C8.17697 16.7537 8.17658 17.2286 8.46923 17.5217C8.76189 17.8148 9.23676 17.8152 9.52989 17.5226L9.61836 17.4342C9.88173 17.5906 10.1764 17.7028 10.4978 17.7383C11.1224 17.8073 11.7166 17.5718 12.2116 17.0776C12.6583 16.6316 12.9695 16.0867 12.9245 15.4426C12.8817 14.8293 12.5257 14.3165 12.1018 13.8933C11.7866 13.5787 11.7544 13.4118 11.7522 13.3703L11.7522 13.3702C11.7513 13.3534 11.7464 13.2633 11.9412 13.0689C12.1971 12.8134 12.633 12.8046 12.9144 13.0855C13.1032 13.274 13.1624 13.5358 13.0998 13.7643C12.9902 14.1638 13.2252 14.5764 13.6247 14.686C14.0241 14.7955 14.4368 14.5605 14.5463 14.1611C14.6833 13.6615 14.6379 13.1226 14.4136 12.6469L14.5299 12.5308Z" fill="#141B34"/>
</svg>
