<svg width="24" height="24" viewBox="0 0 24 24" fill="none" xmlns="http://www.w3.org/2000/svg">
<path fill-rule="evenodd" clip-rule="evenodd" d="M6.49988 17.75C7.05216 17.75 7.49988 18.1977 7.49988 18.75V21.75C7.49988 22.3023 7.05216 22.75 6.49988 22.75C5.94759 22.75 5.49988 22.3023 5.49988 21.75V18.75C5.49988 18.1977 5.94759 17.75 6.49988 17.75ZM17.4999 17.75C18.0522 17.75 18.4999 18.1977 18.4999 18.75V21.75C18.4999 22.3023 18.0522 22.75 17.4999 22.75C16.9476 22.75 16.4999 22.3023 16.4999 21.75V18.75C16.4999 18.1977 16.9476 17.75 17.4999 17.75Z" fill="#141B34"/>
<path fill-rule="evenodd" clip-rule="evenodd" d="M11.9288 1.25H12.071C13.8438 1.24998 15.2728 1.24996 16.3966 1.40128C17.5634 1.55839 18.5458 1.8945 19.3261 2.67593C20.1064 3.45737 20.442 4.44128 20.5988 5.60984C20.7499 6.73538 20.7499 8.16647 20.7499 9.94195V13.003C20.7499 14.3215 20.7499 15.4087 20.6344 16.2691C20.5132 17.1726 20.2487 17.9704 19.6109 18.6093C18.973 19.2481 18.1763 19.5129 17.2742 19.6344C16.4151 19.7501 15.3295 19.75 14.013 19.75H9.98683C8.67036 19.75 7.58471 19.7501 6.72552 19.6344C5.82346 19.5129 5.0268 19.2481 4.38891 18.6093C3.75103 17.9704 3.48662 17.1726 3.36534 16.2691C3.24982 15.4087 3.24985 14.3214 3.24988 13.003V9.94188C3.24986 8.16647 3.24984 6.73534 3.40093 5.60984C3.55781 4.44128 3.89341 3.45737 4.67367 2.67593C5.45393 1.8945 6.43636 1.55839 7.60317 1.40128C8.72699 1.24996 10.156 1.24998 11.9288 1.25ZM5.19422 10.0132C5.19422 8.54006 5.19551 7.41928 5.26108 6.52993C5.27924 6.28359 5.28832 6.16042 5.37466 6.08021C5.46099 6 5.58865 6 5.84396 6H10.3999C10.6827 6 10.8241 6 10.912 6.08787C10.9999 6.17574 10.9999 6.31716 10.9999 6.6V11.4C10.9999 11.6828 10.9999 11.8243 10.912 11.9121C10.8241 12 10.6827 12 10.3999 12H5.79422C5.51137 12 5.36995 12 5.28208 11.9121C5.19422 11.8243 5.19422 11.6828 5.19422 11.4V10.0132ZM13.5999 12C13.317 12 13.1756 12 13.0877 11.9121C12.9999 11.8243 12.9999 11.6828 12.9999 11.4V6.6C12.9999 6.31716 12.9999 6.17574 13.0877 6.08787C13.1756 6 13.317 6 13.5999 6H18.1556C18.4109 6 18.5385 6 18.6249 6.08021C18.7112 6.16042 18.7203 6.28359 18.7385 6.52993C18.804 7.41928 18.8053 8.54006 18.8053 10.0132V11.4C18.8053 11.6828 18.8053 11.8243 18.7175 11.9121C18.6296 12 18.4882 12 18.2053 12H13.5999ZM6.99988 15C6.44759 15 5.99988 15.4477 5.99988 16C5.99988 16.5523 6.44759 17 6.99988 17H7.99988C8.55216 17 8.99988 16.5523 8.99988 16C8.99988 15.4477 8.55216 15 7.99988 15H6.99988ZM15.9999 15C15.4476 15 14.9999 15.4477 14.9999 16C14.9999 16.5523 15.4476 17 15.9999 17H16.9999C17.5522 17 17.9999 16.5523 17.9999 16C17.9999 15.4477 17.5522 15 16.9999 15H15.9999Z" fill="#141B34"/>
<path fill-rule="evenodd" clip-rule="evenodd" d="M1.5 7C2.05228 7 2.5 7.44772 2.5 8V10C2.5 10.5523 2.05228 11 1.5 11C0.947715 11 0.5 10.5523 0.5 10L0.5 8C0.5 7.44772 0.947715 7 1.5 7ZM22.5 7C23.0523 7 23.5 7.44772 23.5 8V10C23.5 10.5523 23.0523 11 22.5 11C21.9477 11 21.5 10.5523 21.5 10V8C21.5 7.44772 21.9477 7 22.5 7Z" fill="#141B34"/>
</svg>
