<svg width="24" height="24" viewBox="0 0 24 24" fill="none" xmlns="http://www.w3.org/2000/svg">
<path d="M1.08163 14.4062C1.77389 11.1507 3.9167 9.125 6.62275 9.125C9.42822 9.125 11.6189 11.2965 12.2314 14.7529L12.2403 14.803C12.3081 15.1849 12.3748 15.5611 12.375 15.8856C12.3751 16.2726 12.2835 16.6545 11.9921 17.0007C11.6868 17.3634 11.296 17.5093 10.9063 17.5711C10.5652 17.6252 10.1476 17.6251 9.70307 17.625L9.65251 17.625H3.60076L3.54286 17.625C3.09931 17.6251 2.66465 17.6253 2.30689 17.5551C1.87492 17.4703 1.48146 17.2718 1.19486 16.8482C0.933893 16.4625 0.859817 16.064 0.877469 15.6501C0.892653 15.2941 0.979567 14.8857 1.07117 14.4553L1.08163 14.4062Z" fill="#141B34"/>
<path fill-rule="evenodd" clip-rule="evenodd" d="M3.625 6.875C3.625 6.32272 4.07272 5.875 4.625 5.875H8.625C9.17728 5.875 9.625 6.32272 9.625 6.875C9.625 7.42728 9.17728 7.875 8.625 7.875H4.625C4.07272 7.875 3.625 7.42728 3.625 6.875Z" fill="#141B34"/>
<path fill-rule="evenodd" clip-rule="evenodd" d="M3.625 15.875C4.17728 15.875 4.625 16.3227 4.625 16.875C4.625 17.9796 5.52043 18.875 6.625 18.875C7.72957 18.875 8.625 17.9796 8.625 16.875C8.625 16.3227 9.07272 15.875 9.625 15.875C10.1773 15.875 10.625 16.3227 10.625 16.875C10.625 19.0841 8.83414 20.875 6.625 20.875C4.41586 20.875 2.625 19.0841 2.625 16.875C2.625 16.3227 3.07272 15.875 3.625 15.875Z" fill="#141B34"/>
<path fill-rule="evenodd" clip-rule="evenodd" d="M20.125 15.375C19.5727 15.375 19.125 15.8227 19.125 16.375C19.125 16.9273 19.5727 17.375 20.125 17.375C20.6773 17.375 21.125 16.9273 21.125 16.375C21.125 15.8227 20.6773 15.375 20.125 15.375ZM17.125 16.375C17.125 14.7181 18.4681 13.375 20.125 13.375C21.7819 13.375 23.125 14.7181 23.125 16.375C23.125 18.0319 21.7819 19.375 20.125 19.375C18.4681 19.375 17.125 18.0319 17.125 16.375Z" fill="#141B34"/>
<path fill-rule="evenodd" clip-rule="evenodd" d="M15.6038 5.12695C15.2344 5.12257 14.8647 5.12671 14.4953 5.12671C13.943 5.12671 13.4953 4.679 13.4953 4.12671C13.4953 3.57443 13.943 3.12671 14.4953 3.12671C14.8726 3.12671 15.2501 3.12262 15.6274 3.12709C17.5421 3.14974 19.3729 4.24263 20.2223 5.97254C20.7321 7.01088 19.9324 8.10363 18.8879 8.12635C18.4085 8.13678 17.928 8.13038 17.4481 8.12771C17.3053 8.12692 17.2339 8.12652 17.2042 8.17345C17.1746 8.22037 17.2058 8.28483 17.2681 8.41374C17.4289 8.74649 17.5897 9.07925 17.7505 9.41198C17.9256 9.77412 18.0885 10.1111 18.1963 10.4096C18.3159 10.7404 18.3989 11.1023 18.3549 11.5124C18.311 11.9219 18.1534 12.2583 17.9673 12.5567C17.7989 12.8269 17.5685 13.124 17.3199 13.4446L15.7014 15.5323C15.3018 16.0477 14.9178 16.5828 14.3266 16.868C13.7836 17.13 13.1737 17.1285 12.5527 17.127C12.1601 17.126 11.7676 17.1267 11.375 17.1267C10.8227 17.1267 10.375 16.679 10.375 16.1267C10.375 15.5744 10.8227 15.1267 11.375 15.1267H12.4093C13.4139 15.1267 13.5079 15.0975 14.1208 14.3069L15.7132 12.2528C15.9967 11.8872 16.1625 11.6714 16.2702 11.4986C16.3735 11.3328 16.3817 11.2728 16.3154 11.0894C16.2471 10.9003 16.1312 10.6576 15.9311 10.2437C15.5865 9.53064 15.2433 8.81693 14.8973 8.1046C14.8485 8.00407 14.7698 7.84219 14.723 7.6901C14.6662 7.50552 14.5757 7.08388 14.8529 6.6662C15.1216 6.26129 15.5308 6.17364 15.7086 6.14828C15.877 6.12426 16.0728 6.12671 16.1875 6.12671H17.4562C17.6568 6.12671 17.7572 6.12671 17.7805 6.05937C17.8037 5.99203 17.7284 5.93288 17.5776 5.81458C17.0345 5.38832 16.3437 5.1357 15.6038 5.12695Z" fill="#141B34"/>
</svg>
