<svg width="24" height="24" viewBox="0 0 24 24" fill="none" xmlns="http://www.w3.org/2000/svg">
<path fill-rule="evenodd" clip-rule="evenodd" d="M12 17C12.5523 17 13 17.4477 13 18V22C13 22.5523 12.5523 23 12 23C11.4477 23 11 22.5523 11 22V18C11 17.4477 11.4477 17 12 17Z" fill="#141B34"/>
<path d="M12.0262 7.25H11.9738C11.2501 7.25 10.6696 7.24999 10.1953 7.28181C9.70763 7.31453 9.28282 7.38311 8.87706 7.54362C8.14563 7.83297 7.51592 8.32374 7.07694 8.96061C6.83022 9.31855 6.68231 9.7106 6.56472 10.1611C6.45143 10.595 6.35515 11.1306 6.23695 11.788L5.60955 15.2772C5.42411 16.3083 5.26972 17.1668 5.25181 17.8539C5.23283 18.5819 5.36106 19.2556 5.86817 19.8105C6.58961 20.5999 7.69257 20.7153 8.97997 20.7497L8.98999 20.75H9.15003C9.43287 20.75 9.57429 20.75 9.66216 20.6621C9.75003 20.5743 9.75003 20.4328 9.75003 20.15V18C9.75003 16.7574 10.7574 15.75 12 15.75C13.2427 15.75 14.25 16.7574 14.25 18V20.15C14.25 20.4328 14.25 20.5743 14.3379 20.6621C14.4258 20.75 14.5672 20.75 14.85 20.75H15.0284L15.0387 20.7497C16.3173 20.7144 17.4134 20.5966 18.1319 19.8105C18.639 19.2556 18.7672 18.5819 18.7482 17.8539C18.7303 17.1668 18.5759 16.3083 18.3905 15.2772L17.7631 11.788C17.6449 11.1306 17.5486 10.595 17.4353 10.1611C17.3177 9.7106 17.1698 9.31855 16.9231 8.96061C16.4841 8.32374 15.8544 7.83297 15.123 7.54362C14.7172 7.38311 14.2924 7.31453 13.8047 7.28181C13.3304 7.24999 12.7499 7.25 12.0262 7.25Z" fill="#141B34"/>
<path fill-rule="evenodd" clip-rule="evenodd" d="M9.41794 4.75H6C5.44772 4.75 5 4.30228 5 3.75C5 3.19772 5.44772 2.75 6 2.75H9.41794C9.81797 1.72566 10.8145 1 11.9805 1C13.1465 1 14.143 1.72566 14.543 2.75H18C18.5523 2.75 19 3.19772 19 3.75C19 4.30228 18.5523 4.75 18 4.75H14.543C14.143 5.77434 13.1465 6.5 11.9805 6.5C10.8145 6.5 9.81797 5.77434 9.41794 4.75Z" fill="#141B34"/>
</svg>
