<svg width="24" height="24" viewBox="0 0 24 24" fill="none" xmlns="http://www.w3.org/2000/svg">
<path fill-rule="evenodd" clip-rule="evenodd" d="M17.752 12.75C14.9905 12.75 12.752 14.9886 12.752 17.75C12.752 20.5114 14.9905 22.75 17.752 22.75C20.5134 22.75 22.752 20.5114 22.752 17.75C22.752 14.9886 20.5134 12.75 17.752 12.75ZM18.502 15.75C18.502 15.3358 18.1662 15 17.752 15C17.3377 15 17.002 15.3358 17.002 15.75V17.75C17.002 18.1642 17.3377 18.5 17.752 18.5C18.1662 18.5 18.502 18.1642 18.502 17.75V15.75ZM17.752 19C17.3377 19 17.002 19.3358 17.002 19.75C17.002 20.1642 17.3377 20.5 17.752 20.5H17.7609C18.1751 20.5 18.5109 20.1642 18.5109 19.75C18.5109 19.3358 18.1751 19 17.7609 19H17.752Z" fill="#141B34"/>
<path d="M10.3458 22.75C10.0662 22.7181 9.77215 22.6444 9.49779 22.4469C9.22355 22.2495 9.06079 21.9946 8.94229 21.7402C8.84812 21.538 8.41748 20.2619 8.31947 19.9704C8.30938 19.9404 8.30434 19.9254 8.29669 19.9093C8.28904 19.8932 8.28152 19.8812 8.26647 19.8573C8.18936 19.7349 7.99148 19.4375 7.82248 19.3266C7.40897 19.0554 6.99181 18.992 6.71386 19.0458C6.70755 19.0471 6.7044 19.0477 6.69836 19.0491C6.69232 19.0505 6.68792 19.0518 6.67912 19.0543C6.49187 19.1069 4.79972 19.5816 4.54876 19.6213C4.25324 19.6681 3.92995 19.674 3.59565 19.5385C3.26146 19.4031 3.03405 19.1739 2.85502 18.935L1.41648 16.4526C1.30388 16.1934 1.2208 15.9008 1.25638 15.5633C1.29195 15.2258 1.43424 14.9568 1.59848 14.7266C1.74001 14.5283 2.89043 13.246 3.17304 12.9323C3.1885 12.9151 3.19623 12.9066 3.20571 12.8934C3.21518 12.8803 3.21947 12.8728 3.22803 12.8578C3.2925 12.7446 3.46396 12.4054 3.46396 11.9998C3.46396 11.473 3.25291 11.1666 3.21106 11.1111C3.21101 11.111 3.21115 11.1112 3.21105 11.111C3.21095 11.1109 3.2111 11.1111 3.21104 11.111C3.21089 11.1108 3.2091 11.1085 3.20516 11.1037C3.20104 11.0987 3.19964 11.0971 3.19685 11.094C3.08743 10.9722 1.73996 9.47157 1.59848 9.2733C1.43424 9.04311 1.29195 8.7741 1.25637 8.4366C1.2208 8.09914 1.30387 7.80652 1.41648 7.54733C1.51106 7.32964 2.68693 5.34791 2.83889 5.09204C2.84713 5.07817 2.85125 5.07124 2.85621 5.0639C2.86118 5.05656 2.86558 5.05082 2.87439 5.03934C3.05043 4.80972 3.27339 4.59201 3.59564 4.46138C3.92994 4.32586 4.25322 4.33183 4.54874 4.3786C4.81009 4.41995 6.31538 4.84275 6.67874 4.94548C6.68654 4.94768 6.69043 4.94878 6.69898 4.95067C6.70752 4.95255 6.70974 4.95291 6.71416 4.95362C6.81186 4.96927 7.29022 5.02231 7.82243 4.67329C8.03297 4.53522 8.19711 4.3369 8.29335 4.10416C8.29587 4.09807 8.29712 4.09503 8.29892 4.09024C8.30071 4.08544 8.30205 4.08147 8.30471 4.07352C8.35964 3.90985 8.84195 2.4752 8.94229 2.25981C9.06079 2.00543 9.22356 1.75047 9.49779 1.55308C9.77215 1.3556 10.0662 1.28188 10.3458 1.25H13.1503C13.4299 1.28188 13.7239 1.3556 13.9983 1.55308C14.2725 1.75047 14.4353 2.00543 14.5538 2.25981C14.6541 2.4752 15.1365 3.90985 15.1914 4.07352C15.194 4.08147 15.1954 4.08544 15.1972 4.09024C15.199 4.09503 15.2002 4.09807 15.2027 4.10416C15.299 4.3369 15.4631 4.53522 15.6737 4.67329C16.2059 5.02231 16.6842 4.96927 16.7819 4.95362C16.7864 4.95291 16.7886 4.95255 16.7971 4.95067C16.8057 4.94878 16.8096 4.94768 16.8173 4.94548C17.1807 4.84275 18.686 4.41995 18.9474 4.3786C19.2429 4.33183 19.5662 4.32586 19.9004 4.46138C20.2227 4.59201 20.4457 4.80972 20.6217 5.03934C20.6305 5.05082 20.6349 5.05656 20.6399 5.0639C20.6448 5.07124 20.649 5.07817 20.6572 5.09204C20.8092 5.34791 21.985 7.32964 22.0796 7.54733C22.1922 7.80652 22.2753 8.09914 22.2397 8.4366C22.2041 8.7741 22.0619 9.04311 21.8976 9.2733C21.7557 9.47221 20.3999 10.982 20.2982 11.0951C20.2962 11.0974 20.2951 11.0986 20.2936 11.1004L20.2909 11.1035C20.2894 11.1053 20.2939 11.0998 20.2921 11.102C20.0796 11.3609 19.9734 11.4904 19.9199 11.5187C19.8717 11.5441 19.8728 11.5437 19.8188 11.5508C19.7587 11.5586 19.6662 11.5332 19.4811 11.4823C18.9308 11.3309 18.3513 11.25 17.7529 11.25C17.1623 11.25 16.5901 11.3288 16.0462 11.4764C15.6811 11.5755 15.4985 11.625 15.3928 11.5676C15.2871 11.5102 15.2251 11.3167 15.1009 10.9297C14.6487 9.5202 13.3273 8.5 11.7676 8.5C9.83458 8.5 8.26758 10.067 8.26758 12C8.26758 13.6091 9.35339 14.9645 10.8323 15.3736C11.2236 15.4819 11.4193 15.536 11.481 15.6393C11.5427 15.7427 11.5005 15.927 11.4163 16.2955C11.3094 16.7631 11.2529 17.25 11.2529 17.75C11.2529 19.5871 12.015 21.2461 13.2403 22.4283C13.3557 22.5396 13.3096 22.7318 13.1503 22.75H10.3458Z" fill="#141B34"/>
</svg>
