<svg width="24" height="24" viewBox="0 0 24 24" fill="none" xmlns="http://www.w3.org/2000/svg">
<path fill-rule="evenodd" clip-rule="evenodd" d="M17.9374 13.013C17.8747 13.0941 17.7185 13.1347 17.4061 13.2161C16.2489 13.5176 15.5205 14.6759 15.7975 15.7867C15.8805 16.1194 15.922 16.2858 15.881 16.3795C15.84 16.4732 15.7232 16.5372 15.4895 16.6652L14.4646 17.2267C14.2459 17.3465 14.1366 17.4064 14.0389 17.3932C13.9412 17.3801 13.8291 17.2717 13.605 17.0549L13.605 17.0549C12.7282 16.2067 11.2728 16.2067 10.3959 17.055C10.1718 17.2717 10.0598 17.3801 9.9621 17.3933C9.86439 17.4064 9.75506 17.3465 9.53639 17.2267L8.51143 16.6652L8.51142 16.6652C8.2778 16.5372 8.16098 16.4732 8.11998 16.3796C8.07897 16.2859 8.12045 16.1195 8.2034 15.7867C8.48025 14.6759 7.75127 13.5175 6.59386 13.2161C6.28147 13.1348 6.12527 13.0941 6.06264 13.013C6 12.932 6 12.8016 6 12.5409V11.4636C6 11.2028 6 11.0725 6.06264 10.9914C6.12528 10.9104 6.28148 10.8697 6.59386 10.7884C7.75147 10.487 8.48101 9.32854 8.20431 8.21775L8.20431 8.21775C8.12139 7.88491 8.07994 7.7185 8.12095 7.62485C8.16195 7.5312 8.27876 7.46721 8.51238 7.33922L9.53734 6.7777C9.756 6.65791 9.86532 6.59801 9.96302 6.61116C10.0607 6.6243 10.1728 6.73268 10.3969 6.94945C11.2733 7.79702 12.7276 7.79706 13.604 6.9495L13.604 6.9495C13.8282 6.73274 13.9402 6.62436 14.0379 6.61121C14.1356 6.59807 14.245 6.65796 14.4636 6.77775L15.4886 7.33927C15.7222 7.46727 15.839 7.53127 15.88 7.62493C15.921 7.71859 15.8796 7.88498 15.7966 8.21777L15.7966 8.21779C15.5197 9.32855 16.2487 10.4869 17.4061 10.7884C17.7185 10.8697 17.8747 10.9104 17.9374 10.9915C18 11.0725 18 11.2029 18 11.4636V12.5409C18 12.8016 18 12.932 17.9374 13.013ZM12 13.75C12.9665 13.75 13.75 12.9665 13.75 12C13.75 11.0335 12.9665 10.25 12 10.25C11.0335 10.25 10.25 11.0335 10.25 12C10.25 12.9665 11.0335 13.75 12 13.75Z" fill="#141B34"/>
<path d="M12 3.20455C7.1424 3.20455 3.20455 7.1424 3.20455 12C3.20455 13.2527 3.46584 14.4418 3.93598 15.5178C4.15207 16.0124 3.92631 16.5885 3.43172 16.8046C2.93714 17.0207 2.36102 16.7949 2.14492 16.3004C1.569 14.9822 1.25 13.5271 1.25 12C1.25 6.06294 6.06294 1.25 12 1.25C13.8587 1.25 15.608 1.72226 17.1334 2.55278L18.1568 1.5294C18.3331 1.35657 18.5745 1.25 18.8409 1.25C19.3806 1.25 19.8182 1.68754 19.8182 2.22727V5.02087C19.8182 5.41438 19.5822 5.76949 19.2194 5.92189C18.8566 6.07428 18.4378 5.99421 18.1568 5.71874C16.5693 4.16251 14.3975 3.20455 12 3.20455Z" fill="#141B34"/>
<path d="M20.5683 7.19538C21.0629 6.97929 21.639 7.20505 21.8551 7.69964C22.431 9.01779 22.75 10.4729 22.75 12C22.75 17.9371 17.9371 22.75 12 22.75C10.1413 22.75 8.39203 22.2777 6.8666 21.4472L5.84323 22.4706C5.66695 22.6434 5.42546 22.75 5.15909 22.75C4.61936 22.75 4.18182 22.3125 4.18182 21.7727V18.9791C4.18182 18.5856 4.41783 18.2305 4.78062 18.0781C5.14342 17.9257 5.56223 18.0058 5.84323 18.2813C7.43071 19.8375 9.6025 20.7955 12 20.7955C16.8576 20.7955 20.7955 16.8576 20.7955 12C20.7955 10.7473 20.5342 9.5582 20.064 8.48218C19.8479 7.9876 20.0737 7.41148 20.5683 7.19538Z" fill="#141B34"/>
</svg>
