<svg width="24" height="24" viewBox="0 0 24 24" fill="none" xmlns="http://www.w3.org/2000/svg">
<path d="M2.75 4.75C2.75 3.39014 3.82613 2.25 5.1995 2.25C6.57287 2.25 7.649 3.39014 7.649 4.75V9.09182L10.748 8.4966L10.7481 8.49659C11.394 8.39682 11.9144 8.31643 12.3395 8.27861C12.7747 8.2399 13.1676 8.23937 13.5494 8.32953C14.7359 8.6097 15.7006 9.47186 16.1383 10.6194C16.2784 10.9866 16.3355 11.3792 16.3627 11.8249L16.3647 11.8594L17.2153 11.1086C18.2682 10.1794 19.8625 10.3384 20.7221 11.4449C21.4302 12.3562 21.4255 13.6469 20.7106 14.5529L17.2766 18.905C16.4378 19.9687 15.8937 20.6587 15.164 21.0973C14.9391 21.2325 14.7033 21.3481 14.4591 21.4427C13.6648 21.7507 12.6181 21.7504 11.289 21.75H11.2889C10.0001 21.75 8.98961 21.75 8.1759 21.6875C7.34756 21.6238 6.66132 21.492 6.03503 21.1948C4.83766 20.6267 3.87331 19.6623 3.30515 18.465C3.00798 17.8387 2.87623 17.1524 2.81255 16.3241C2.74999 15.5104 2.75 14.4999 2.75 13.211V13.211V4.75Z" fill="#141B34"/>
</svg>
