<svg width="24" height="24" viewBox="0 0 24 24" fill="none" xmlns="http://www.w3.org/2000/svg">
<path d="M12 3C10.4962 3 9.08033 3.36812 7.83568 4.01906C7.9421 4.3266 8 4.65677 8 5C8 6.65685 6.65685 8 5 8C4.2261 8 3.51861 7.70565 2.98706 7.22445C2.38224 6.67692 2 5.8824 2 5C2 3.34315 3.34315 2 5 2C5.57126 2 6.10569 2.16021 6.56011 2.43729C8.16497 1.52257 10.0226 1 12 1C12.7521 1 13.4876 1.07563 14.1989 1.22002C14.7402 1.32989 15.0899 1.85772 14.98 2.39897C14.8701 2.94021 14.3423 3.28992 13.8011 3.18005C13.22 3.06209 12.6177 3 12 3Z" fill="#141B34"/>
<path d="M16.7755 2.98707C17.3231 2.38225 18.1176 2 19 2C20.6569 2 22 3.34315 22 5C22 5.57151 21.8402 6.10569 21.5628 6.5603C22.4775 8.16513 23 10.0227 23 12C23 12.7521 22.9244 13.4876 22.78 14.1989C22.6701 14.7402 22.1423 15.0899 21.601 14.98C21.0598 14.8701 20.7101 14.3423 20.82 13.8011C20.9379 13.22 21 12.6177 21 12C21 10.4962 20.6319 9.0805 19.9811 7.83592C19.6737 7.94225 19.3436 8 19 8C17.3431 8 16 6.65685 16 5C16 4.2261 16.2944 3.51861 16.7755 2.98707Z" fill="#141B34"/>
<path d="M2.39897 9.01999C2.94021 9.12985 3.28992 9.65769 3.18005 10.1989C3.06209 10.78 3 11.3823 3 12C3 13.5038 3.36812 14.9197 4.01906 16.1643C4.32661 16.0579 4.65677 16 5 16C6.65685 16 8 17.3431 8 19C8 19.7739 7.70565 20.4814 7.22445 21.0129C6.67692 21.6178 5.88241 22 5 22C3.34315 22 2 20.6569 2 19C2 18.4287 2.16021 17.8943 2.43729 17.4399C1.52257 15.835 1 13.9774 1 12C1 11.2479 1.07563 10.5124 1.22002 9.80107C1.32989 9.25982 1.85772 8.91012 2.39897 9.01999Z" fill="#141B34"/>
<path d="M16 19C16 17.3431 17.3431 16 19 16C19.7739 16 20.4814 16.2944 21.0129 16.7755C21.6178 17.3231 22 18.1176 22 19C22 20.6569 20.6569 22 19 22C18.4287 22 17.8943 21.8398 17.4399 21.5627C15.835 22.4774 13.9774 23 12 23C11.2479 23 10.5124 22.9244 9.80107 22.78C9.25982 22.6701 8.91012 22.1423 9.01999 21.601C9.12985 21.0598 9.65769 20.7101 10.1989 20.82C10.78 20.9379 11.3823 21 12 21C13.5038 21 14.9197 20.6319 16.1643 19.9809C16.0579 19.6734 16 19.3432 16 19Z" fill="#141B34"/>
<path d="M11.9946 8C10.2653 8 8.67505 8.63946 7.36893 9.70203C6.94051 10.0506 6.87575 10.6804 7.22428 11.1088C7.57281 11.5373 8.20266 11.602 8.63108 11.2535C9.62262 10.4468 10.7765 10 11.9946 10C13.2164 10 14.3738 10.4496 15.3675 11.2611C15.7952 11.6105 16.4252 11.5469 16.7745 11.1192C17.1239 10.6914 17.0603 10.0614 16.6325 9.71209C15.3241 8.64352 13.7294 8 11.9946 8Z" fill="#141B34"/>
<path d="M11.9946 11.3607C11.0147 11.3607 10.0971 11.6484 9.29781 12.144C8.82843 12.435 8.68385 13.0514 8.97488 13.5208C9.26592 13.9902 9.88236 14.1348 10.3517 13.8437C10.8597 13.5288 11.4157 13.3607 11.9946 13.3607C12.5764 13.3607 13.135 13.5304 13.6451 13.8485C14.1138 14.1408 14.7306 13.9978 15.0228 13.5291C15.315 13.0605 15.172 12.4437 14.7034 12.1515C13.9013 11.6513 12.9795 11.3607 11.9946 11.3607Z" fill="#141B34"/>
<path d="M12 15C11.4477 15 11 15.4477 11 16C11 16.5523 11.4477 17 12 17H12.0064C12.5586 17 13.0064 16.5523 13.0064 16C13.0064 15.4477 12.5586 15 12.0064 15H12Z" fill="#141B34"/>
</svg>
