<svg width="24" height="24" viewBox="0 0 24 24" fill="none" xmlns="http://www.w3.org/2000/svg">
<path fill-rule="evenodd" clip-rule="evenodd" d="M10.2945 11.3299C9.69971 11.2499 8.9505 11.25 8.05203 11.25H8.052H5.948H5.94797C5.04951 11.25 4.3003 11.2499 3.70552 11.3299C3.07773 11.4143 2.51093 11.6 2.05546 12.0555C1.59999 12.5109 1.41432 13.0777 1.32991 13.7055C1.24995 14.3003 1.24997 15.0495 1.25 15.948V15.948L1.25 18.052V18.052C1.24997 18.9505 1.24995 19.6997 1.32991 20.2945C1.41432 20.9223 1.59999 21.4891 2.05546 21.9445C2.51093 22.4 3.07773 22.5857 3.70552 22.6701C4.3003 22.7501 5.04951 22.75 5.94798 22.75H5.94801H8.052H8.05203C8.9505 22.75 9.69971 22.7501 10.2945 22.6701C10.9223 22.5857 11.4891 22.4 11.9445 21.9445C12.4 21.4891 12.5857 20.9223 12.6701 20.2945C12.7501 19.6997 12.75 18.9505 12.75 18.052V18.052V15.948V15.948C12.75 15.0495 12.7501 14.3003 12.6701 13.7055C12.5857 13.0777 12.4 12.5109 11.9445 12.0555C11.4891 11.6 10.9223 11.4143 10.2945 11.3299ZM6 14C5.44772 14 5 14.4477 5 15C5 15.5523 5.44772 16 6 16L8 16C8.55229 16 9 15.5523 9 15C9 14.4477 8.55229 14 8 14H6Z" fill="#141B34"/>
<path fill-rule="evenodd" clip-rule="evenodd" d="M18 13.75C18.5523 13.75 19 14.1978 19 14.75L19 17.8052C19 18.701 19.0001 19.4531 18.9357 20.0515C18.8689 20.6722 18.7209 21.2781 18.3122 21.7889C17.8993 22.3052 17.3676 22.5419 16.7993 22.6491C16.2846 22.7462 15.6629 22.7494 15.0008 22.75C14.4485 22.7504 14.0005 22.3031 14 21.7508C13.9995 21.1985 14.4469 20.7504 14.9992 20.75C15.7132 20.7494 16.1335 20.7394 16.4286 20.6838C16.6701 20.6382 16.716 20.5826 16.7505 20.5396C16.8105 20.4646 16.8968 20.3062 16.9472 19.8376C16.9986 19.3591 17 18.7156 17 17.75V14.75C17 14.1978 17.4477 13.75 18 13.75Z" fill="#141B34"/>
<path fill-rule="evenodd" clip-rule="evenodd" d="M18 1.25C15.3696 1.25 13.25 3.40181 13.25 6.04033C13.25 7.55918 13.8644 8.74722 15.0026 9.75581C15.6471 10.3269 16.454 11.3054 16.9311 12.0879C17.1225 12.402 17.4733 12.75 17.9934 12.75C18.5049 12.75 18.8578 12.4118 19.0564 12.1078C19.5758 11.313 20.3617 10.3191 20.9974 9.75581C22.1356 8.74722 22.75 7.55918 22.75 6.04033C22.75 3.40181 20.6304 1.25 18 1.25ZM18.0145 7.5C18.8392 7.5 19.5078 6.82843 19.5078 6C19.5078 5.17157 18.8392 4.5 18.0145 4.5H18.0011C17.1764 4.5 16.5078 5.17157 16.5078 6C16.5078 6.82843 17.1764 7.5 18.0011 7.5H18.0145Z" fill="#141B34"/>
</svg>
