<svg width="24" height="24" viewBox="0 0 24 24" fill="none" xmlns="http://www.w3.org/2000/svg">
<path fill-rule="evenodd" clip-rule="evenodd" d="M1 17.875C1 15.6659 2.79086 13.875 5 13.875H19C21.2091 13.875 23 15.6659 23 17.875C23 20.0841 21.2091 21.875 19 21.875H5C2.79086 21.875 1 20.0841 1 17.875ZM5 15.875C3.89543 15.875 3 16.7704 3 17.875C3 18.9796 3.89543 19.875 5 19.875H19C20.1046 19.875 21 18.9796 21 17.875C21 16.7704 20.1046 15.875 19 15.875H5Z" fill="#141B34"/>
<path fill-rule="evenodd" clip-rule="evenodd" d="M6 17.875C6 17.3227 6.44772 16.875 7 16.875H7.00897C7.56126 16.875 8.00897 17.3227 8.00897 17.875C8.00897 18.4273 7.56126 18.875 7.00897 18.875H7C6.44772 18.875 6 18.4273 6 17.875ZM10.9955 17.875C10.9955 17.3227 11.4432 16.875 11.9955 16.875H12.0045C12.5568 16.875 13.0045 17.3227 13.0045 17.875C13.0045 18.4273 12.5568 18.875 12.0045 18.875H11.9955C11.4432 18.875 10.9955 18.4273 10.9955 17.875ZM15.991 17.875C15.991 17.3227 16.4387 16.875 16.991 16.875H17C17.5523 16.875 18 17.3227 18 17.875C18 18.4273 17.5523 18.875 17 18.875H16.991C16.4387 18.875 15.991 18.4273 15.991 17.875Z" fill="#141B34"/>
<path fill-rule="evenodd" clip-rule="evenodd" d="M12.0549 2.125H12.0549H12.0549H11.9451H11.9451H11.9451C10.5775 2.12498 9.47521 2.12497 8.60825 2.24153C7.70814 2.36254 6.95027 2.62144 6.34835 3.22335C5.74644 3.82527 5.48754 4.58314 5.36653 5.48325C5.24997 6.35021 5.24998 7.45252 5.25 8.8201V8.82011V8.82013V8.92988V8.92989V8.92991C5.24998 10.2975 5.24997 11.3998 5.36653 12.2668C5.48754 13.1669 5.74644 13.9247 6.34835 14.5267C6.95027 15.1286 7.70814 15.3875 8.60825 15.5085C9.47521 15.625 10.5775 15.625 11.9451 15.625H11.9451H11.9451H12.0549H12.0549H12.0549C13.4225 15.625 14.5248 15.625 15.3918 15.5085C16.2919 15.3875 17.0497 15.1286 17.6517 14.5267C18.2536 13.9247 18.5125 13.1669 18.6335 12.2668C18.75 11.3998 18.75 10.2975 18.75 8.92989V8.92988V8.92987V8.82013V8.82012V8.82012C18.75 7.45253 18.75 6.35022 18.6335 5.48325C18.5125 4.58314 18.2536 3.82527 17.6517 3.22335C17.0497 2.62144 16.2919 2.36254 15.3918 2.24153C14.5248 2.12497 13.4225 2.12498 12.0549 2.125ZM10.5 4.875C9.94772 4.875 9.5 5.32272 9.5 5.875C9.5 6.42729 9.94772 6.875 10.5 6.875H13.5C14.0523 6.875 14.5 6.42729 14.5 5.875C14.5 5.32272 14.0523 4.875 13.5 4.875H10.5Z" fill="#141B34"/>
</svg>
