<svg width="24" height="24" viewBox="0 0 24 24" fill="none" xmlns="http://www.w3.org/2000/svg">
<path fill-rule="evenodd" clip-rule="evenodd" d="M22.5821 14.2928C22.9726 14.6833 22.9726 15.3165 22.5821 15.707L20.2892 17.9999L22.5821 20.2928C22.9726 20.6833 22.9726 21.3165 22.5821 21.707C22.1916 22.0975 21.5584 22.0975 21.1679 21.707L18.875 19.4141L16.5821 21.707C16.1916 22.0975 15.5584 22.0975 15.1679 21.707C14.7774 21.3165 14.7774 20.6833 15.1679 20.2928L17.4608 17.9999L15.1679 15.707C14.7774 15.3165 14.7774 14.6833 15.1679 14.2928C15.5584 13.9022 16.1916 13.9022 16.5821 14.2928L18.875 16.5857L21.1679 14.2928C21.5584 13.9022 22.1916 13.9022 22.5821 14.2928Z" fill="#141B34"/>
<path fill-rule="evenodd" clip-rule="evenodd" d="M3.65516 7.24988L20.0949 7.24988H20.0949C20.3869 7.24987 20.643 7.24986 20.8535 7.26423C21.0735 7.27923 21.309 7.31285 21.5394 7.41447C21.9272 7.58541 22.2238 7.84726 22.4089 8.19153C22.5871 8.52268 22.6299 8.87016 22.6246 9.16743C22.6192 9.46275 22.5651 9.75151 22.5112 9.9925C22.4808 10.1286 22.3771 10.5615 22.3618 10.6251L22.3603 10.6316L22.3582 10.6411C22.2751 11.0223 22.0166 11.3301 21.6781 11.4907C21.3086 11.666 21.0678 11.9887 21.0056 12.343V12.343C20.979 12.4976 20.9657 12.5748 20.9268 12.63C20.888 12.6853 20.8071 12.731 20.6453 12.8225L20.6453 12.8225C20.4526 12.9315 20.2714 13.068 20.1072 13.2321L19.2993 14.0401C19.0993 14.2401 18.9993 14.3401 18.875 14.3401C18.7507 14.3401 18.6507 14.2401 18.4507 14.0401L17.6428 13.2321C16.6665 12.2558 15.0835 12.2558 14.1072 13.2321C13.1309 14.2084 13.1309 15.7913 14.1072 16.7676L14.9152 17.5756L14.9152 17.5756C15.1152 17.7756 15.2152 17.8756 15.2152 17.9999C15.2152 18.1241 15.1152 18.2241 14.9152 18.4241L14.1072 19.2321C13.6332 19.7062 13.3893 20.3233 13.3756 20.9445C13.3663 21.3672 13.3617 21.5786 13.2742 21.6642C13.1868 21.7497 13.0154 21.7497 12.6728 21.7497L10.7598 21.7499C9.42483 21.7499 8.35671 21.7499 7.50578 21.6498C6.62715 21.5464 5.88909 21.328 5.25955 20.8269L5.25667 20.8246C4.41862 20.1509 4.01701 19.1699 3.78458 18.265C3.62783 17.6548 3.52861 16.9807 3.44396 16.4056L2.74437 12.343C2.68215 11.9887 2.44139 11.666 2.07188 11.4907C1.73343 11.3301 1.47487 11.0223 1.39181 10.6411L1.38972 10.6316L1.38818 10.6251C1.37293 10.5615 1.26921 10.1286 1.23876 9.9925C1.18486 9.75151 1.13076 9.46275 1.12543 9.16743C1.12007 8.87016 1.16292 8.52268 1.34105 8.19152C1.52624 7.84726 1.82281 7.58541 2.21055 7.41446C2.44103 7.31285 2.67647 7.27923 2.89649 7.26423C3.10704 7.24986 3.36316 7.24987 3.65514 7.24988H3.65516ZM9.875 11.2499C9.46079 11.2499 9.125 11.5857 9.125 11.9999C9.125 12.4141 9.46079 12.7499 9.875 12.7499L13.875 12.7499C14.2892 12.7499 14.625 12.4141 14.625 11.9999C14.625 11.5857 14.2892 11.2499 13.875 11.2499L9.875 11.2499Z" fill="#141B34"/>
<path fill-rule="evenodd" clip-rule="evenodd" d="M10.2761 2.08397C10.7821 2.30534 11.0128 2.89497 10.7914 3.40095L7.29141 11.4009C7.07004 11.9069 6.48041 12.1377 5.97443 11.9163C5.46845 11.6949 5.23773 11.1053 5.4591 10.5993L8.9591 2.59931C9.18046 2.09333 9.77009 1.86261 10.2761 2.08397Z" fill="#141B34"/>
<path fill-rule="evenodd" clip-rule="evenodd" d="M14.428 2.10567C14.922 1.85868 15.5227 2.0589 15.7696 2.55288L18.2696 7.55288C18.5166 8.04686 18.3164 8.64754 17.8224 8.89452C17.3285 9.14151 16.7278 8.94129 16.4808 8.44731L13.9808 3.44731C13.7338 2.95333 13.934 2.35266 14.428 2.10567Z" fill="#141B34"/>
</svg>
