<svg width="24" height="24" viewBox="0 0 24 24" fill="none" xmlns="http://www.w3.org/2000/svg">
<path fill-rule="evenodd" clip-rule="evenodd" d="M3.78016 7.24988L20.2199 7.24988H20.2199C20.5119 7.24987 20.768 7.24986 20.9785 7.26423C21.1985 7.27923 21.434 7.31285 21.6644 7.41447C22.0522 7.58541 22.3488 7.84726 22.5339 8.19153C22.7121 8.52268 22.7549 8.87016 22.7496 9.16743C22.7442 9.46275 22.6901 9.75151 22.6362 9.9925C22.6058 10.1286 22.5021 10.5615 22.4868 10.6251L22.4853 10.6316L22.4832 10.6411C22.4001 11.0223 22.1416 11.3301 21.8031 11.4907C21.4336 11.666 21.1928 11.9887 21.1306 12.343C21.1032 12.5022 20.9074 12.566 20.7857 12.4598C20.6484 12.34 20.4978 12.2198 20.3361 12.1085C20.0532 11.9139 19.3916 11.4998 18.4998 11.4998C17.608 11.4998 16.9464 11.9139 16.6635 12.1085C16.3176 12.3465 16.0225 12.6254 15.8006 12.8535C15.3548 13.3116 14.9005 13.8904 14.6144 14.2553L14.1658 14.8837C14.0659 15.0475 13.3799 16.1722 14.0139 17.4791C14.4002 18.2754 15.036 18.6444 15.5168 18.8164C15.7697 18.9068 15.8962 18.952 15.9509 19.0298C16.0057 19.1075 16.0057 19.2221 16.0057 19.4514L16.0057 20.9999C16.0057 21.3441 16.0057 21.5162 15.9374 21.5992C15.9263 21.6127 15.9189 21.6205 15.9059 21.6321C15.8259 21.7039 15.6886 21.7098 15.4139 21.7215H15.4139C14.7534 21.7499 13.9918 21.7499 13.1152 21.7499H13.1152L10.8848 21.7499C9.54983 21.7499 8.48171 21.7499 7.63078 21.6498C6.75215 21.5464 6.01409 21.328 5.38455 20.8269L5.38167 20.8246C4.54362 20.1509 4.14201 19.1699 3.90958 18.265C3.75283 17.6548 3.65361 16.9807 3.56896 16.4056L2.86937 12.343C2.80715 11.9887 2.56639 11.666 2.19688 11.4907C1.85843 11.3301 1.59987 11.0223 1.51681 10.6411L1.51472 10.6316L1.51318 10.6251C1.49793 10.5615 1.39421 10.1286 1.36376 9.9925C1.30986 9.75151 1.25576 9.46275 1.25043 9.16743C1.24507 8.87016 1.28792 8.52268 1.46605 8.19152C1.65124 7.84726 1.94781 7.58541 2.33555 7.41446C2.56603 7.31285 2.80147 7.27923 3.02149 7.26423C3.23204 7.24986 3.48816 7.24987 3.78014 7.24988H3.78016ZM10 11.2499C9.58579 11.2499 9.25 11.5857 9.25 11.9999C9.25 12.4141 9.58579 12.7499 10 12.7499L14 12.7499C14.4142 12.7499 14.75 12.4141 14.75 11.9999C14.75 11.5857 14.4142 11.2499 14 11.2499L10 11.2499Z" fill="#141B34"/>
<path fill-rule="evenodd" clip-rule="evenodd" d="M10.4011 2.08397C10.9071 2.30534 11.1378 2.89497 10.9164 3.40095L7.41641 11.4009C7.19504 11.9069 6.60541 12.1377 6.09943 11.9163C5.59345 11.6949 5.36273 11.1053 5.5841 10.5993L9.0841 2.59931C9.30546 2.09333 9.89509 1.86261 10.4011 2.08397Z" fill="#141B34"/>
<path fill-rule="evenodd" clip-rule="evenodd" d="M14.553 2.10573C15.047 1.85874 15.6477 2.05897 15.8946 2.55294L18.3946 7.55294C18.6416 8.04692 18.4414 8.6476 17.9474 8.89459C17.4535 9.14157 16.8528 8.94135 16.6058 8.44737L14.1058 3.44737C13.8588 2.95339 14.059 2.35272 14.553 2.10573Z" fill="#141B34"/>
<path d="M19.5059 20.9999C19.5059 21.5522 19.0581 21.9999 18.5059 21.9999C17.9536 21.9999 17.5059 21.5522 17.5059 20.9999L17.5059 17.4998L16.9116 17.4999C16.736 17.5 16.5203 17.5001 16.3439 17.4781L16.3405 17.4777C16.2141 17.4619 15.638 17.39 15.3637 16.8245C15.0887 16.2576 15.3907 15.7575 15.456 15.6493L15.7951 15.1808C16.0897 14.805 16.4954 14.2905 16.8759 13.8995C17.0657 13.7044 17.283 13.5032 17.5139 13.3443C17.7191 13.2031 18.0693 12.9998 18.5 12.9998C18.9307 12.9998 19.2809 13.2031 19.4861 13.3443C19.717 13.5032 19.9343 13.7044 20.1241 13.8995C20.5046 14.2905 20.9102 14.805 21.2049 15.1808L21.544 15.6493C21.6093 15.7575 21.9113 16.2576 21.6363 16.8245C21.362 17.39 20.7859 17.4619 20.6595 17.4777L20.6561 17.4781C20.4797 17.5001 20.264 17.5 20.0884 17.4999L19.5059 17.4998L19.5059 20.9999Z" fill="#141B34"/>
</svg>
