<svg width="24" height="24" viewBox="0 0 24 24" fill="none" xmlns="http://www.w3.org/2000/svg">
<path fill-rule="evenodd" clip-rule="evenodd" d="M14.5528 2.23067C15.0468 1.98368 15.6474 2.1839 15.8944 2.67788L18.2429 7.37488H20.2198H20.2199H20.2199C20.5119 7.37487 20.768 7.37486 20.9785 7.38922C21.1985 7.40423 21.434 7.43785 21.6644 7.53946C22.0522 7.71041 22.3488 7.97226 22.5339 8.31652C22.7121 8.64768 22.7549 8.99516 22.7496 9.29243C22.7442 9.58775 22.6901 9.87651 22.6362 10.1175C22.6033 10.2645 22.4849 10.7579 22.4849 10.7579C22.4038 11.1429 22.144 11.4539 21.8031 11.6157C21.4336 11.791 21.1928 12.1137 21.1306 12.468L20.431 16.5305C20.3464 17.1057 20.2472 17.7798 20.0904 18.39C19.858 19.2949 19.4564 20.2759 18.6183 20.9496L18.6154 20.9519C17.9859 21.453 17.2478 21.6714 16.3692 21.7748C15.5183 21.8749 14.4502 21.8749 13.1152 21.8749H10.8848C9.54983 21.8749 8.48171 21.8749 7.63078 21.7748C6.75215 21.6714 6.01409 21.453 5.38455 20.9519L5.38167 20.9496C4.54362 20.2759 4.14201 19.2949 3.90958 18.39C3.75283 17.7798 3.65361 17.1057 3.56896 16.5306L2.86937 12.468C2.80715 12.1137 2.56639 11.791 2.19688 11.6157C1.85601 11.4539 1.59618 11.1429 1.51506 10.7579C1.51506 10.7579 1.39665 10.2645 1.36376 10.1175C1.30986 9.87651 1.25576 9.58775 1.25043 9.29243C1.24507 8.99516 1.28792 8.64768 1.46605 8.31652C1.65124 7.97226 1.94781 7.71041 2.33555 7.53946C2.56603 7.43785 2.80147 7.40423 3.02149 7.38922C3.23204 7.37486 3.48812 7.37487 3.7801 7.37488H3.78013H3.78016L7.04925 7.37488L9.08387 2.72431C9.30524 2.21833 9.89487 1.98761 10.4009 2.20897C10.9068 2.43034 11.1376 3.01997 10.9162 3.52595L9.23228 7.37488L16.0069 7.37488L14.1056 3.57231C13.8586 3.07833 14.0588 2.47766 14.5528 2.23067ZM9.25 12.1249C9.25 11.7107 9.58579 11.3749 10 11.3749L14 11.3749C14.4142 11.3749 14.75 11.7107 14.75 12.1249C14.75 12.5391 14.4142 12.8749 14 12.8749L10 12.8749C9.58579 12.8749 9.25 12.5391 9.25 12.1249Z" fill="#141B34"/>
</svg>
