<svg width="24" height="24" viewBox="0 0 24 24" fill="none" xmlns="http://www.w3.org/2000/svg">
<path fill-rule="evenodd" clip-rule="evenodd" d="M11.2 5.8882C11.2 5.95638 11.1505 6.01398 11.0836 6.0271C10.6232 6.1174 9.69814 6.41203 9.20431 7.414C8.57496 8.69095 9.28892 9.79519 9.40529 9.97518L9.41314 9.98737C9.58654 10.2587 9.82402 10.5448 9.98952 10.7441L10.0439 10.8096C10.3377 11.164 10.7272 11.6167 11.1402 11.9945C11.3467 12.1833 11.6186 12.409 11.9397 12.5994C12.2268 12.7697 12.7807 13.05 13.5 13.05C14.2193 13.05 14.7732 12.7697 15.0603 12.5994C15.3814 12.409 15.6533 12.1833 15.8598 11.9945C16.2728 11.6167 16.6625 11.1638 16.9563 10.8094L17.0105 10.7441C17.176 10.5447 17.4135 10.2587 17.5869 9.98737L17.5947 9.97518C17.7111 9.79519 18.425 8.69095 17.7957 7.414C17.3019 6.41203 16.3768 6.1174 15.9164 6.0271C15.8495 6.01398 15.8 5.95638 15.8 5.8882C15.8 5.81188 15.8619 5.75001 15.9382 5.75001L19.4483 5.75001C19.952 5.74993 20.4157 5.74986 20.7861 5.80867C21.2009 5.87453 21.6333 6.03323 21.9392 6.45417C22.2336 6.85935 22.2712 7.31751 22.2424 7.73698C22.2152 8.13213 22.1174 8.61746 22.0061 9.17024L21.9967 9.2171C21.5912 11.2313 21.1921 13.1307 20.2536 14.5004C19.7674 15.21 19.1348 15.785 18.2933 16.1756C17.4602 16.5622 16.4615 16.75 15.2636 16.75L9.1535 16.75C9.10346 16.7577 9.0522 16.7617 9 16.7617H8.46857C8.1416 16.7617 7.78529 16.9293 7.48481 17.2826C7.30846 17.49 7.17262 17.7388 7.09019 18.0016L10.3415 18.0016C10.3939 17.9979 10.4467 17.9961 10.5 17.9961C10.5533 17.9961 10.6061 17.9979 10.6585 18.0016H17.3415C17.3939 17.9979 17.4467 17.9961 17.5 17.9961C18.7426 17.9961 19.75 19.0035 19.75 20.2461C19.75 21.4887 18.7426 22.4961 17.5 22.4961C16.2574 22.4961 15.25 21.4887 15.25 20.2461C15.25 20.1635 15.2545 20.0819 15.2631 20.0016H12.7369C12.7455 20.0819 12.75 20.1635 12.75 20.2461C12.75 21.4887 11.7426 22.4961 10.5 22.4961C9.25736 22.4961 8.25 21.4887 8.25 20.2461C8.25 20.1635 8.25445 20.0819 8.26313 20.0016H6.41143C5.59384 20.0016 5 19.3231 5 18.573C5 17.6124 5.36948 16.6828 5.96124 15.987C6.20356 15.702 6.49347 15.4454 6.82234 15.2414C6.81461 15.2154 6.80787 15.1887 6.80218 15.1616L4.40464 3.74218C4.28811 3.30517 3.89205 3 3.43845 3L2.5 3C1.94772 3 1.5 2.55228 1.5 2C1.5 1.44772 1.94772 1 2.5 1L3.43845 1C4.81505 1 6.015 1.93689 6.34887 3.27239L6.35349 3.29084L6.86979 5.75001L11.0618 5.75001C11.1381 5.75001 11.2 5.81188 11.2 5.8882ZM9.75 20.2461C9.75 19.8319 10.0858 19.4961 10.5 19.4961C10.9142 19.4961 11.25 19.8319 11.25 20.2461C11.25 20.6603 10.9142 20.9961 10.5 20.9961C10.0858 20.9961 9.75 20.6603 9.75 20.2461ZM17.5 19.4961C17.0858 19.4961 16.75 19.8319 16.75 20.2461C16.75 20.6603 17.0858 20.9961 17.5 20.9961C17.9142 20.9961 18.25 20.6603 18.25 20.2461C18.25 19.8319 17.9142 19.4961 17.5 19.4961ZM13.5 1.75C12.9477 1.75 12.5 2.19772 12.5 2.75L12.5 7.24999H12.338C12.0476 7.24989 11.7403 7.24979 11.4978 7.27882C11.321 7.29999 10.6705 7.37975 10.3704 7.9887C10.07 8.59813 10.4149 9.14082 10.5086 9.28737C10.6375 9.48915 10.8305 9.7218 11.0131 9.94192L11.0131 9.94192L11.0445 9.97972C11.332 10.3265 11.6743 10.7212 12.0176 11.0352C12.189 11.192 12.3873 11.3535 12.6026 11.4812C12.8022 11.5995 13.1174 11.75 13.5 11.75C13.8826 11.75 14.1978 11.5995 14.3974 11.4812C14.6127 11.3535 14.811 11.192 14.9824 11.0352C15.3257 10.7212 15.668 10.3265 15.9555 9.97972L15.9869 9.94193L15.9869 9.94192C16.1695 9.72181 16.3625 9.48915 16.4914 9.28737C16.5851 9.14082 16.93 8.59813 16.6296 7.9887C16.3295 7.37975 15.679 7.29999 15.5022 7.27882C15.2597 7.24979 14.9524 7.24989 14.662 7.24999H14.5L14.5 2.75C14.5 2.19772 14.0523 1.75 13.5 1.75Z" fill="#141B34"/>
</svg>
