<svg width="24" height="24" viewBox="0 0 24 24" fill="none" xmlns="http://www.w3.org/2000/svg">
<path fill-rule="evenodd" clip-rule="evenodd" d="M4.94126 4.25C4.13124 4.24996 3.44377 4.24993 2.92457 4.32238C2.40094 4.39545 1.80255 4.57213 1.47113 5.14674C1.41903 5.23707 1.3748 5.33168 1.33887 5.42948C1.11338 6.04322 1.34661 6.61855 1.61509 7.07905C1.88288 7.53838 2.31089 8.08813 2.8184 8.73999L3.62355 9.77426C3.74709 9.93306 3.87332 10.0953 3.99805 10.2332L3.99805 19C3.99805 19.5523 4.44576 20 4.99805 20C5.55033 20 5.99805 19.5523 5.99805 19L5.99805 10.2343C6.12311 10.0962 6.2497 9.9335 6.37359 9.77426L7.17874 8.73999C7.68624 8.08815 8.11426 7.53837 8.38205 7.07905C8.65053 6.61855 8.88376 6.04322 8.65827 5.42948C8.62234 5.33168 8.57811 5.23707 8.52601 5.14674C8.19459 4.57213 7.5962 4.39545 7.07257 4.32238C6.55337 4.24993 5.86596 4.24996 5.05593 4.25H4.94126Z" fill="#141B34"/>
<path fill-rule="evenodd" clip-rule="evenodd" d="M9 12C9.55228 12 10 12.4477 10 13V19C10 19.5523 9.55228 20 9 20C8.44772 20 8 19.5523 8 19V13C8 12.4477 8.44772 12 9 12Z" fill="#141B34"/>
<path fill-rule="evenodd" clip-rule="evenodd" d="M13 10C13.5523 10 14 10.4477 14 11L14 19C14 19.5523 13.5523 20 13 20C12.4477 20 12 19.5523 12 19L12 11C12 10.4477 12.4477 10 13 10Z" fill="#141B34"/>
<path fill-rule="evenodd" clip-rule="evenodd" d="M16 19C16 18.4477 16.4477 18 17 18L18 18C18.5523 18 19 18.4477 19 19C19 19.5523 18.5523 20 18 20H17C16.4477 20 16 19.5523 16 19Z" fill="#141B34"/>
<path fill-rule="evenodd" clip-rule="evenodd" d="M20 19C20 18.4477 20.4477 18 21 18L22 18C22.5523 18 23 18.4477 23 19C23 19.5523 22.5523 20 22 20H21C20.4477 20 20 19.5523 20 19Z" fill="#141B34"/>
</svg>
