<svg width="24" height="24" viewBox="0 0 24 24" fill="none" xmlns="http://www.w3.org/2000/svg">
<path fill-rule="evenodd" clip-rule="evenodd" d="M4.60577 3.87213C5.34619 2.83446 6.40217 2 7.82263 2C8.66253 2 9.36864 2.38177 9.92892 2.94348C10.4745 3.49051 10.9152 4.23685 11.2829 5.08446C12.0191 6.78121 12.5674 9.13258 12.9881 11.8469C13.4013 14.5127 13.919 16.6613 14.5517 18.1196C14.8684 18.8494 15.188 19.3443 15.4871 19.6441C15.7715 19.9293 15.9946 20 16.1774 20C16.7116 20 17.2359 19.7094 17.7662 18.9662C18.3025 18.2146 18.7449 17.126 19.0901 15.8628C19.7777 13.3467 20 10.4421 20 9.011C20 8.45871 20.4477 8.011 21 8.011C21.5523 8.011 22 8.45871 22 9.011C22 10.569 21.7657 13.6589 21.0194 16.39C20.6476 17.7504 20.1287 19.0986 19.3942 20.1279C18.6538 21.1656 17.5978 22 16.1774 22C15.3375 22 14.6314 21.6183 14.0711 21.0566C13.5254 20.5096 13.0848 19.7633 12.717 18.9157C11.9808 17.219 11.4324 14.8676 11.0117 12.1533C10.5986 9.48745 10.0809 7.33878 9.44817 5.88051C9.13149 5.15062 8.81196 4.65572 8.51289 4.35588C8.22847 4.07073 8.00534 4 7.82263 4C7.28836 4 6.76415 4.29055 6.23381 5.0338C5.69752 5.78539 5.25511 6.87405 4.9099 8.13727C4.22231 10.6534 4 13.558 4 14.989C4 15.5413 3.55228 15.989 3 15.989C2.44772 15.989 2 15.5413 2 14.989C2 13.4311 2.23428 10.3412 2.98064 7.61005C3.35241 6.24963 3.87131 4.90146 4.60577 3.87213Z" fill="#141B34"/>
<path fill-rule="evenodd" clip-rule="evenodd" d="M1 11.9999C1 11.4476 1.44772 10.9999 2 10.9999H5C5.55228 10.9999 6 11.4476 6 11.9999C6 12.5522 5.55228 12.9999 5 12.9999H2C1.44772 12.9999 1 12.5522 1 11.9999ZM7 12C7 11.4477 7.44772 11 8 11H9.5C10.0523 11 10.5 11.4477 10.5 12C10.5 12.5523 10.0523 13 9.5 13H8C7.44772 13 7 12.5523 7 12ZM13.5 12C13.5 11.4477 13.9477 11 14.5 11H16C16.5523 11 17 11.4477 17 12C17 12.5523 16.5523 13 16 13H14.5C13.9477 13 13.5 12.5523 13.5 12ZM18 12C18 11.4477 18.4477 11 19 11H22C22.5523 11 23 11.4477 23 12C23 12.5523 22.5523 13 22 13H19C18.4477 13 18 12.5523 18 12Z" fill="#141B34"/>
</svg>
