<svg width="24" height="24" viewBox="0 0 24 24" fill="none" xmlns="http://www.w3.org/2000/svg">
<path fill-rule="evenodd" clip-rule="evenodd" d="M4.99988 13.0001C5.55216 13 5.9999 13.4477 5.99992 14L6.00016 20C6.00019 20.5523 5.55249 21 5.0002 21.0001C4.44792 21.0001 4.00019 20.5524 4.00016 20.0001L3.99992 14.0001C3.9999 13.4478 4.44759 13.0001 4.99988 13.0001Z" fill="#141B34"/>
<path fill-rule="evenodd" clip-rule="evenodd" d="M4.99994 3.00006C5.55222 3.00006 5.99994 3.44778 5.99994 4.00006V11.0001C5.99994 11.5523 5.55222 12.0001 4.99994 12.0001C4.44765 12.0001 3.99994 11.5523 3.99994 11.0001V4.00006C3.99994 3.44778 4.44765 3.00006 4.99994 3.00006Z" fill="#141B34"/>
<path fill-rule="evenodd" clip-rule="evenodd" d="M15.9999 8.00006C15.9999 8.55235 15.5522 9.00006 14.9999 9.00006H8.99994C8.44765 9.00006 7.99994 8.55235 7.99994 8.00006C7.99994 7.44778 8.44765 7.00006 8.99994 7.00006H14.9999C15.5522 7.00006 15.9999 7.44778 15.9999 8.00006Z" fill="#141B34"/>
<path fill-rule="evenodd" clip-rule="evenodd" d="M8.99994 14.0001C8.99994 14.5523 8.55222 15.0001 7.99994 15.0001H1.99994C1.44765 15.0001 0.999939 14.5523 0.999939 14.0001C0.999939 13.4478 1.44765 13.0001 1.99994 13.0001H7.99994C8.55222 13.0001 8.99994 13.4478 8.99994 14.0001Z" fill="#141B34"/>
<path fill-rule="evenodd" clip-rule="evenodd" d="M22.9999 12.0001C22.9999 12.5523 22.5522 13.0001 21.9999 13.0001H15.9999C15.4477 13.0001 14.9999 12.5523 14.9999 12.0001C14.9999 11.4478 15.4477 11.0001 15.9999 11.0001H21.9999C22.5522 11.0001 22.9999 11.4478 22.9999 12.0001Z" fill="#141B34"/>
<path fill-rule="evenodd" clip-rule="evenodd" d="M12 3.00006C12.5523 3.00009 13 3.44784 12.9999 4.00012L12.9997 8.00012C12.9997 8.55241 12.5519 9.00009 11.9996 9.00006C11.4473 9.00003 10.9997 8.55228 10.9997 8L10.9999 4C11 3.44772 11.4477 3.00003 12 3.00006Z" fill="#141B34"/>
<path fill-rule="evenodd" clip-rule="evenodd" d="M11.9999 10.0001C12.5522 10 13 10.4478 13 11L13.0002 20C13.0002 20.5523 12.5525 21 12.0002 21.0001C11.448 21.0001 11.0002 20.5524 11.0002 20.0001L11 11.0001C11 10.4478 11.4477 10.0001 11.9999 10.0001Z" fill="#141B34"/>
<path fill-rule="evenodd" clip-rule="evenodd" d="M18.9999 3.00006C19.5522 3.00006 19.9999 3.44778 19.9999 4.00006L19.9999 12.0001C19.9999 12.5523 19.5522 13.0001 18.9999 13.0001C18.4477 13.0001 17.9999 12.5523 17.9999 12.0001L17.9999 4.00006C17.9999 3.44778 18.4477 3.00006 18.9999 3.00006Z" fill="#141B34"/>
<path fill-rule="evenodd" clip-rule="evenodd" d="M18.9999 14.0001C19.5522 14 19.9999 14.4477 19.9999 15L20.0002 20C20.0002 20.5523 19.5525 21 19.0002 21.0001C18.4479 21.0001 18.0002 20.5524 18.0002 20.0001L17.9999 15.0001C17.9999 14.4478 18.4476 14.0001 18.9999 14.0001Z" fill="#141B34"/>
</svg>
