<svg width="24" height="24" viewBox="0 0 24 24" fill="none" xmlns="http://www.w3.org/2000/svg">
<path fill-rule="evenodd" clip-rule="evenodd" d="M8 22C8 21.4477 8.44772 21 9 21H15C15.5523 21 16 21.4477 16 22C16 22.5523 15.5523 23 15 23H9C8.44772 23 8 22.5523 8 22Z" fill="#141B34"/>
<path fill-rule="evenodd" clip-rule="evenodd" d="M8 2C8 1.44772 8.44772 1 9 1H15C15.5523 1 16 1.44772 16 2C16 2.55228 15.5523 3 15 3H9C8.44772 3 8 2.55228 8 2Z" fill="#141B34"/>
<path fill-rule="evenodd" clip-rule="evenodd" d="M12.0489 3.75H12.0489H11.9511H11.9511C10.3488 3.74999 9.07947 3.74998 8.07525 3.86868C7.04428 3.99055 6.19558 4.24638 5.48663 4.8282C5.24612 5.02558 5.02558 5.24612 4.8282 5.48663C4.24638 6.19558 3.99055 7.04428 3.86868 8.07525C3.74998 9.07947 3.74999 10.3488 3.75 11.9511V11.9511V12.0489V12.0489C3.74999 13.6512 3.74998 14.9205 3.86868 15.9248C3.99055 16.9557 4.24638 17.8044 4.8282 18.5134C5.02558 18.7539 5.24612 18.9744 5.48663 19.1718C6.19558 19.7536 7.04428 20.0095 8.07525 20.1313C9.07945 20.25 10.3488 20.25 11.951 20.25H11.951H11.9511H12.0489H12.049H12.049C13.6512 20.25 14.9206 20.25 15.9248 20.1313C16.9557 20.0095 17.8044 19.7536 18.5134 19.1718C18.7539 18.9744 18.9744 18.7539 19.1718 18.5134C19.7536 17.8044 20.0095 16.9557 20.1313 15.9248C20.25 14.9206 20.25 13.6512 20.25 12.049V12.049V12.0489V11.9511V11.951V11.951C20.25 10.3488 20.25 9.07944 20.1313 8.07525C20.0095 7.04428 19.7536 6.19558 19.1718 5.48663C18.9744 5.24612 18.7539 5.02558 18.5134 4.8282C17.8044 4.24638 16.9557 3.99055 15.9248 3.86868C14.9205 3.74998 13.6512 3.74999 12.0489 3.75ZM15.7071 8.29289C15.3166 7.90237 14.6834 7.90237 14.2929 8.29289L12 10.5858L10.7071 9.29289C10.3166 8.90237 9.68342 8.90237 9.29289 9.29289C8.90237 9.68342 8.90237 10.3166 9.29289 10.7071L10.5858 12L10.2929 12.2929C9.90237 12.6834 9.90237 13.3166 10.2929 13.7071C10.6834 14.0976 11.3166 14.0976 11.7071 13.7071L12 13.4142L12.2929 13.7071C12.6834 14.0976 13.3166 14.0976 13.7071 13.7071C14.0976 13.3166 14.0976 12.6834 13.7071 12.2929L13.4142 12L15.7071 9.70711C16.0976 9.31658 16.0976 8.68342 15.7071 8.29289Z" fill="#141B34"/>
</svg>
