<svg width="24" height="24" viewBox="0 0 24 24" fill="none" xmlns="http://www.w3.org/2000/svg">
<path fill-rule="evenodd" clip-rule="evenodd" d="M20.4889 6.76901C21.8788 8.09641 22.75 9.94346 22.75 11.9922C22.75 14.0409 21.8788 15.888 20.4889 17.2154C20.0895 17.5968 19.4565 17.5822 19.075 17.1828C18.6936 16.7834 18.7082 16.1504 19.1076 15.769C20.1294 14.7931 20.75 13.4582 20.75 11.9922C20.75 10.5262 20.1294 9.19127 19.1076 8.21537C18.7082 7.83393 18.6936 7.20093 19.075 6.80153C19.4565 6.40213 20.0895 6.38757 20.4889 6.76901ZM18.1036 9.01901C18.8906 9.77059 19.3888 10.8221 19.3888 11.9922C19.3888 13.1622 18.8906 14.2138 18.1036 14.9654C17.7042 15.3468 17.0712 15.3322 16.6897 14.9328C16.3083 14.5334 16.3229 13.9004 16.7223 13.519C17.1412 13.1189 17.3888 12.5795 17.3888 11.9922C17.3888 11.4049 17.1412 10.8654 16.7223 10.4654C16.3229 10.0839 16.3083 9.45093 16.6897 9.05153C17.0712 8.65213 17.7042 8.63757 18.1036 9.01901ZM14.75 10.9918C15.3022 10.9918 15.75 11.4395 15.75 11.9918L15.75 12.0008C15.75 12.5531 15.3022 13.0008 14.75 13.0008C14.1977 13.0008 13.75 12.5531 13.75 12.0008L13.75 11.9918C13.75 11.4395 14.1977 10.9918 14.75 10.9918Z" fill="#141B34"/>
<path fill-rule="evenodd" clip-rule="evenodd" d="M11.1698 1.41553C11.1819 1.33623 11.1218 1.26427 11.0416 1.26258C10.4432 1.24999 9.78265 1.24999 9.05547 1.25H9.05541H9.05536H8.94378H8.94372H8.94367C8.21806 1.24999 7.55872 1.24999 6.96137 1.2625C6.87944 1.26422 6.81777 1.33739 6.82952 1.41849C6.92828 2.01096 6.99291 2.39014 7.07466 2.66868C7.15121 2.92953 7.21926 3.01384 7.27235 3.06094C7.33077 3.11277 7.42172 3.16922 7.68599 3.20574C7.97535 3.24574 8.37036 3.24992 8.99941 3.24992C9.62847 3.24992 10.0235 3.24574 10.3128 3.20574C10.5771 3.16922 10.6681 3.11277 10.7265 3.06094C10.7796 3.01384 10.8476 2.92953 10.9242 2.66868C11.006 2.38967 11.0708 2.00969 11.1698 1.41553ZM5.05957 1.38505C5.19632 1.36667 5.32077 1.46348 5.34056 1.60003L5.3466 1.64173L5.34905 1.65746L5.35608 1.69961C5.44647 2.24219 5.52511 2.71416 5.6358 3.09132C5.7549 3.49714 5.93351 3.8782 6.27728 4.18321C6.63286 4.49868 7.04239 4.63121 7.48106 4.69184C7.89464 4.749 8.40505 4.75015 8.99985 4.75015C9.59464 4.75015 10.105 4.749 10.5186 4.69184C10.9573 4.63121 11.3668 4.49868 11.7224 4.18321C12.0662 3.8782 12.2448 3.49714 12.3639 3.09132C12.4746 2.71416 12.5532 2.24219 12.6436 1.69962L12.6507 1.65747L12.6598 1.59788C12.6806 1.46236 12.8045 1.36679 12.9403 1.38505C13.9766 1.52438 14.83 1.81988 15.5052 2.49502C16.1803 3.17016 16.4758 4.02357 16.6151 5.05984C16.6857 5.58512 16.7194 6.18605 16.7354 6.8695C16.7402 7.07608 16.7427 7.17938 16.6971 7.25439C16.6516 7.3294 16.5383 7.38493 16.3118 7.496C16.0544 7.6222 15.8145 7.79515 15.605 8.01455C15.2466 8.38981 15.028 8.84757 14.9478 9.32342C14.9316 9.41948 14.8474 9.4908 14.75 9.4908C13.3692 9.4908 12.25 10.6101 12.25 11.9908V11.9998C12.25 13.3805 13.3692 14.4998 14.75 14.4998C14.8479 14.4998 14.9327 14.5713 14.9493 14.6678C15.0307 15.1405 15.2488 15.5949 15.605 15.9678C15.8146 16.1873 16.0546 16.3603 16.3121 16.4865C16.5386 16.5975 16.6518 16.653 16.6974 16.728C16.7429 16.803 16.7406 16.9063 16.7358 17.1129C16.72 17.8038 16.6864 18.4107 16.6151 18.9406C16.4758 19.9769 16.1803 20.8303 15.5052 21.5054C14.83 22.1806 13.9766 22.4761 12.9403 22.6154C11.9373 22.7503 10.6583 22.7502 9.0557 22.7502H8.94422C7.34162 22.7502 6.06266 22.7503 5.05957 22.6154C4.02331 22.4761 3.16989 22.1806 2.49475 21.5054C1.81961 20.8303 1.52411 19.9769 1.38479 18.9406C1.24993 17.9375 1.24994 16.6586 1.24995 15.056V15.056V15.056V8.94444V8.94443V8.94442C1.24994 7.34187 1.24993 6.06291 1.38479 5.05984C1.52411 4.02357 1.81961 3.17016 2.49475 2.49502C3.16989 1.81988 4.02331 1.52438 5.05957 1.38505ZM7.24995 20C7.24995 19.5858 7.58574 19.25 7.99995 19.25H9.99995C10.4142 19.25 10.75 19.5858 10.75 20C10.75 20.4142 10.4142 20.75 9.99995 20.75H7.99995C7.58574 20.75 7.24995 20.4142 7.24995 20Z" fill="#141B34"/>
</svg>
