<svg width="24" height="24" viewBox="0 0 24 24" fill="none" xmlns="http://www.w3.org/2000/svg">
<path d="M1.89284 12.57C2.14719 12.4253 2.43193 12.375 2.70848 12.375H21.2916C21.5681 12.375 21.8529 12.4253 22.1072 12.57C22.3747 12.7223 22.5587 12.9514 22.6583 13.2142C22.838 13.6882 22.7197 14.195 22.5927 14.5437C22.4535 14.9257 22.2356 15.3022 22.0049 15.6088C21.7903 15.8942 21.4957 16.2119 21.1663 16.3768L18.8054 17.5582C18.6809 17.6205 18.6122 17.6551 18.5615 17.6838C18.539 17.6965 18.5269 17.7043 18.5206 17.7087L18.5153 17.7125C18.241 17.9548 18.0636 18.2737 17.8121 18.7267L17.8116 18.7276C17.7715 18.8 17.7294 18.8758 17.6847 18.9553C17.3899 19.4796 16.9841 20.1425 16.2243 20.5495C15.8848 20.7313 15.5359 20.8072 15.1606 20.8422C14.8085 20.875 14.3861 20.875 13.8905 20.875H10.1096C9.61393 20.875 9.19153 20.875 8.83945 20.8422C8.46416 20.8072 8.11522 20.7313 7.77577 20.5495C7.01597 20.1425 6.61021 19.4796 6.31539 18.9553C6.27053 18.8755 6.2283 18.7994 6.18798 18.7268L6.18792 18.7267L6.18791 18.7267C5.93649 18.2737 5.75981 17.9554 5.4855 17.713L5.47949 17.7087C5.4732 17.7043 5.46104 17.6965 5.43853 17.6838C5.38783 17.6551 5.3192 17.6205 5.1947 17.5582L2.8338 16.3768C2.50433 16.2119 2.20973 15.8942 1.99513 15.6088C1.7645 15.3022 1.54661 14.9257 1.40739 14.5437C1.28033 14.195 1.16204 13.6882 1.34173 13.2142C1.44137 12.9514 1.62536 12.7223 1.89284 12.57Z" fill="#141B34"/>
<path fill-rule="evenodd" clip-rule="evenodd" d="M9 8.125C6.23858 8.125 4 10.3636 4 13.125C4 13.6773 3.55228 14.125 3 14.125C2.44772 14.125 2 13.6773 2 13.125C2 9.25901 5.13401 6.125 9 6.125C12.866 6.125 16 9.25901 16 13.125C16 13.6773 15.5523 14.125 15 14.125C14.4477 14.125 14 13.6773 14 13.125C14 10.3636 11.7614 8.125 9 8.125Z" fill="#141B34"/>
<path fill-rule="evenodd" clip-rule="evenodd" d="M16.0302 9.125C15.2919 9.125 14.6032 9.3273 14.0123 9.67964C13.538 9.9625 12.9241 9.80727 12.6413 9.33293C12.3584 8.85858 12.5136 8.24474 12.988 7.96187C13.8793 7.43034 14.9206 7.125 16.0302 7.125C19.333 7.125 22.0002 9.81698 22.0002 13.125C22.0002 13.6773 21.5524 14.125 21.0002 14.125C20.4479 14.125 20.0002 13.6773 20.0002 13.125C20.0002 10.9102 18.2171 9.125 16.0302 9.125Z" fill="#141B34"/>
<path fill-rule="evenodd" clip-rule="evenodd" d="M9 11.125C8.54421 11.125 8 11.5705 8 12.3472C8 12.8995 7.55228 13.3472 7 13.3472C6.44772 13.3472 6 12.8995 6 12.3472C6 10.6694 7.24665 9.125 9 9.125C10.7534 9.125 12 10.6694 12 12.3472V14.125C12 14.6773 11.5523 15.125 11 15.125C10.4477 15.125 10 14.6773 10 14.125V12.3472C10 11.5705 9.45579 11.125 9 11.125Z" fill="#141B34"/>
<path fill-rule="evenodd" clip-rule="evenodd" d="M13.0324 5.18418C11.5886 4.88247 10.2601 5.7356 9.97149 6.91694C9.84043 7.45345 9.29926 7.78214 8.76275 7.65108C8.22624 7.52002 7.89756 6.97885 8.02861 6.44234C8.60253 4.09291 11.0678 2.73045 13.4415 3.22646C15.8342 3.72645 17.4653 5.98004 16.8836 8.36134C16.7525 8.89785 16.2114 9.22653 15.6749 9.09547C15.1384 8.96442 14.8097 8.42325 14.9407 7.88674C15.2215 6.73726 14.4572 5.4819 13.0324 5.18418Z" fill="#141B34"/>
</svg>
