<svg width="24" height="24" viewBox="0 0 24 24" fill="none" xmlns="http://www.w3.org/2000/svg">
<path fill-rule="evenodd" clip-rule="evenodd" d="M22.0694 17.312C22.25 15.9686 22.25 14.2479 22.25 12.0572L22.25 11.9428C22.25 9.75212 22.25 8.03144 22.0694 6.68802C21.8843 5.31137 21.4973 4.21911 20.6391 3.36091C19.7809 2.50272 18.6886 2.11568 17.312 1.93059C15.9686 1.74998 14.2479 1.74999 12.0572 1.75L11.9428 1.75C9.75212 1.74999 8.03144 1.74998 6.68802 1.93059C5.31137 2.11568 4.21911 2.50271 3.36091 3.36091C2.50271 4.21911 2.11568 5.31137 1.93059 6.68802C1.74998 8.03143 1.74999 9.7521 1.75 11.9428L1.75 11.9428L1.75 12.0572L1.75 12.0572C1.74999 14.2479 1.74998 15.9686 1.93059 17.312C2.11568 18.6886 2.50271 19.7809 3.36091 20.6391C4.21911 21.4973 5.31136 21.8843 6.68802 22.0694C8.03143 22.25 9.7521 22.25 11.9428 22.25L11.9428 22.25L12.0572 22.25L12.0572 22.25C14.2479 22.25 15.9686 22.25 17.312 22.0694C18.6886 21.8843 19.7809 21.4973 20.6391 20.6391C21.4973 19.7809 21.8843 18.6886 22.0694 17.312ZM11.5402 12.0626C11.5288 12.0373 11.5202 12.0166 11.5139 12.0001C11.5202 11.9836 11.5288 11.9628 11.5402 11.9375C11.5923 11.8223 11.6785 11.6697 11.8024 11.4827C12.0497 11.1095 12.3935 10.6791 12.7568 10.2584C13.1166 9.8419 13.4788 9.45435 13.7523 9.16969L14.2007 8.71354C14.5946 8.32658 14.6005 7.69337 14.2136 7.29935C13.8266 6.90529 13.1935 6.89954 12.7994 7.2865L12.3103 7.78386C12.0214 8.0845 11.6335 8.49932 11.2433 8.95105C10.8567 9.39864 10.4504 9.90231 10.1353 10.3779C9.97793 10.6154 9.82979 10.8659 9.7178 11.1135C9.61378 11.3436 9.50009 11.6584 9.50009 12.0001C9.50009 12.3417 9.61378 12.6565 9.7178 12.8866C9.82979 13.1342 9.97793 13.3847 10.1353 13.6222C10.4504 14.0978 10.8567 14.6015 11.2433 15.0491C11.6335 15.5008 12.0214 15.9156 12.3103 16.2162L12.7994 16.7136C13.1935 17.1006 13.8266 17.0948 14.2136 16.7008C14.6005 16.3067 14.5946 15.6735 14.2007 15.2866L13.7523 14.8304C13.4788 14.5457 13.1166 14.1582 12.7568 13.7417C12.3935 13.321 12.0497 12.8906 11.8024 12.5174C11.6785 12.3304 11.5923 12.1778 11.5402 12.0626Z" fill="#141B34"/>
</svg>
