<svg width="24" height="24" viewBox="0 0 24 24" fill="none" xmlns="http://www.w3.org/2000/svg">
<path fill-rule="evenodd" clip-rule="evenodd" d="M10.5 3.25C8.567 3.25 7 4.817 7 6.75V9.25C7 9.80228 6.55228 10.25 6 10.25C5.44772 10.25 5 9.80228 5 9.25V6.75C5 3.71243 7.46243 1.25 10.5 1.25C13.5376 1.25 16 3.71243 16 6.75V9.25C16 9.80228 15.5523 10.25 15 10.25C14.4477 10.25 14 9.80228 14 9.25V6.75C14 4.817 12.433 3.25 10.5 3.25Z" fill="#141B34"/>
<path d="M10.5 8.25C8.90416 8.25 7.45364 8.28422 6.02522 8.34988C3.96716 8.4445 2.29609 10.0382 2.02452 12.0552C1.87636 13.1556 1.75 14.3118 1.75 15.5C1.75 16.6882 1.87636 17.8444 2.02452 18.9448C2.29609 20.9618 3.96716 22.5555 6.02522 22.6501C7.45364 22.7158 8.90416 22.75 10.5 22.75C11.7656 22.75 12.9398 22.7285 14.084 22.6868C14.4313 22.6742 14.605 22.6679 14.6896 22.577C14.7742 22.4862 14.7666 22.2704 14.7515 21.8388C14.7505 21.8093 14.75 21.7797 14.75 21.75V20.85C14.75 20.5672 14.75 20.4257 14.6621 20.3379C14.5743 20.25 14.4328 20.25 14.15 20.25H13.25C11.8693 20.25 10.75 19.1307 10.75 17.75C10.75 16.3693 11.8693 15.25 13.25 15.25H14.15C14.4328 15.25 14.5743 15.25 14.6621 15.1621C14.75 15.0743 14.75 14.9328 14.75 14.65V13.75C14.75 12.3693 15.8693 11.25 17.25 11.25C17.2869 11.25 17.3236 11.2508 17.3601 11.2524C18.1825 11.288 18.5936 11.3058 18.6844 11.147C18.7751 10.9882 18.6233 10.7544 18.3196 10.2866C17.5966 9.17282 16.3753 8.41427 14.9748 8.34989C13.5464 8.28422 12.0958 8.25 10.5 8.25Z" fill="#141B34"/>
<path fill-rule="evenodd" clip-rule="evenodd" d="M17.25 12.75C17.8023 12.75 18.25 13.1977 18.25 13.75L18.25 16.75H21.25C21.8023 16.75 22.25 17.1977 22.25 17.75C22.25 18.3023 21.8023 18.75 21.25 18.75H18.25L18.25 21.75C18.25 22.3023 17.8023 22.75 17.25 22.75C16.6977 22.75 16.25 22.3023 16.25 21.75L16.25 18.75H13.25C12.6977 18.75 12.25 18.3023 12.25 17.75C12.25 17.1977 12.6977 16.75 13.25 16.75H16.25L16.25 13.75C16.25 13.1977 16.6977 12.75 17.25 12.75Z" fill="#141B34"/>
</svg>
