<svg width="24" height="24" viewBox="0 0 24 24" fill="none" xmlns="http://www.w3.org/2000/svg">
<path fill-rule="evenodd" clip-rule="evenodd" d="M1.93065 6.68815C1.75004 8.03156 1.75005 9.75224 1.75006 11.9429L1.75006 12.0573C1.75005 14.248 1.75004 15.9687 1.93065 17.3121C2.11574 18.6888 2.50278 19.781 3.36097 20.6392C4.21917 21.4974 5.31143 21.8844 6.68808 22.0695C8.0315 22.2501 9.75218 22.2501 11.9429 22.2501L12.0572 22.2501C14.2479 22.2501 15.9686 22.2501 17.312 22.0695C18.6887 21.8844 19.781 21.4974 20.6391 20.6392C21.4973 19.781 21.8844 18.6888 22.0695 17.3121C22.2501 15.9687 22.2501 14.248 22.2501 12.0573L22.2501 12.0573L22.2501 11.943L22.2501 11.9429C22.2501 9.75223 22.2501 8.03156 22.0695 6.68814C21.8844 5.31149 21.4973 4.21923 20.6391 3.36103C19.7809 2.50284 18.6887 2.1158 17.312 1.93071C15.9686 1.7501 14.248 1.75011 12.0573 1.75012L12.0572 1.75012L11.9429 1.75012L11.9429 1.75012C9.75216 1.75011 8.0315 1.7501 6.68808 1.93072C5.31143 2.1158 4.21917 2.50284 3.36097 3.36103C2.50278 4.21923 2.11574 5.31149 1.93065 6.68815ZM12.4599 11.9375C12.4713 11.9628 12.4798 11.9836 12.4862 12.0001C12.4798 12.0165 12.4713 12.0373 12.4599 12.0626C12.4078 12.1778 12.3216 12.3304 12.1976 12.5174C11.9503 12.8906 11.6066 13.321 11.2432 13.7417C10.8834 14.1582 10.5213 14.5458 10.2477 14.8304L9.79938 15.2866C9.40542 15.6735 9.39956 16.3068 9.78649 16.7008C10.1735 17.0948 10.8066 17.1006 11.2006 16.7136L11.6898 16.2163C11.9787 15.9156 12.3665 15.5008 12.7567 15.0491C13.1434 14.6015 13.5496 14.0978 13.8648 13.6222C14.0221 13.3848 14.1703 13.1343 14.2823 12.8866C14.3863 12.6565 14.5 12.3417 14.5 12C14.5 11.6584 14.3863 11.3436 14.2823 11.1136C14.1703 10.8659 14.0221 10.6154 13.8648 10.378C13.5496 9.90233 13.1434 9.39866 12.7567 8.95107C12.3665 8.49934 11.9787 8.08452 11.6898 7.78388L11.2006 7.28652C10.8066 6.89956 10.1735 6.90531 9.78649 7.29937C9.39956 7.69339 9.40542 8.32659 9.79938 8.71356L10.2477 9.16971C10.5213 9.45437 10.8834 9.84192 11.2432 10.2584C11.6066 10.6791 11.9503 11.1096 12.1976 11.4828C12.3216 11.6698 12.4078 11.8223 12.4599 11.9375Z" fill="#141B34"/>
</svg>
