<svg width="24" height="24" viewBox="0 0 24 24" fill="none" xmlns="http://www.w3.org/2000/svg">
<path fill-rule="evenodd" clip-rule="evenodd" d="M17.312 1.93059C15.9686 1.74998 14.2479 1.74999 12.0572 1.75H11.9428C9.75212 1.74999 8.03144 1.74998 6.68802 1.93059C5.31137 2.11568 4.21911 2.50272 3.36091 3.36091C2.50272 4.21911 2.11568 5.31137 1.93059 6.68802C1.74998 8.03144 1.74999 9.75212 1.75 11.9428V12.0572C1.74999 14.2479 1.74998 15.9686 1.93059 17.312C2.11568 18.6886 2.50272 19.7809 3.36091 20.6391C4.21911 21.4973 5.31137 21.8843 6.68802 22.0694C8.03144 22.25 9.7521 22.25 11.9428 22.25H11.9428H12.0572H12.0572C14.2479 22.25 15.9686 22.25 17.312 22.0694C18.6886 21.8843 19.7809 21.4973 20.6391 20.6391C21.4973 19.7809 21.8843 18.6886 22.0694 17.312C22.25 15.9686 22.25 14.2479 22.25 12.0572V12.0572V11.9428V11.9428C22.25 9.7521 22.25 8.03144 22.0694 6.68802C21.8843 5.31137 21.4973 4.21911 20.6391 3.36091C19.7809 2.50272 18.6886 2.11568 17.312 1.93059ZM12.0626 12.4598C12.0373 12.4712 12.0166 12.4798 12.0001 12.4861C11.9836 12.4798 11.9628 12.4712 11.9375 12.4598C11.8223 12.4077 11.6697 12.3215 11.4827 12.1976C11.1095 11.9503 10.6791 11.6065 10.2584 11.2432C9.8419 10.8834 9.45435 10.5212 9.16969 10.2477L8.71355 9.79932C8.32658 9.40536 7.69337 9.3995 7.29935 9.78643C6.90529 10.1734 6.89954 10.8065 7.2865 11.2006L7.78386 11.6897C8.08451 11.9786 8.49932 12.3665 8.95105 12.7567C9.39864 13.1433 9.90231 13.5496 10.3779 13.8647C10.6154 14.0221 10.8659 14.1702 11.1135 14.2822C11.3436 14.3862 11.6584 14.4999 12.0001 14.4999C12.3417 14.4999 12.6565 14.3862 12.8866 14.2822C13.1342 14.1702 13.3848 14.0221 13.6222 13.8647C14.0978 13.5496 14.6015 13.1433 15.0491 12.7567C15.5008 12.3665 15.9156 11.9786 16.2162 11.6897L16.7136 11.2006C17.1006 10.8065 17.0948 10.1734 16.7008 9.78643C16.3067 9.3995 15.6735 9.40536 15.2866 9.79932L14.8304 10.2477C14.5457 10.5212 14.1582 10.8834 13.7417 11.2432C13.321 11.6065 12.8906 11.9503 12.5174 12.1976C12.3304 12.3215 12.1778 12.4077 12.0626 12.4598Z" fill="#141B34"/>
</svg>
