<svg width="24" height="24" viewBox="0 0 24 24" fill="none" xmlns="http://www.w3.org/2000/svg">
<path fill-rule="evenodd" clip-rule="evenodd" d="M6.68802 1.93059C8.03144 1.74998 9.75212 1.74999 11.9428 1.75H12.0572C14.2479 1.74999 15.9686 1.74998 17.312 1.93059C18.6886 2.11568 19.7809 2.50272 20.6391 3.36091C21.4973 4.21911 21.8843 5.31137 22.0694 6.68802C22.25 8.03144 22.25 9.75212 22.25 11.9428V12.0572C22.25 14.2479 22.25 15.9686 22.0694 17.312C21.8843 18.6886 21.4973 19.7809 20.6391 20.6391C19.7809 21.4973 18.6886 21.8843 17.312 22.0694C15.9686 22.25 14.2479 22.25 12.0572 22.25H12.0572H11.9428H11.9428C9.7521 22.25 8.03144 22.25 6.68802 22.0694C5.31137 21.8843 4.21911 21.4973 3.36091 20.6391C2.50271 19.7809 2.11568 18.6886 1.93059 17.312C1.74998 15.9686 1.74999 14.2479 1.75 12.0572V12.0572V11.9428V11.9428C1.74999 9.7521 1.74998 8.03144 1.93059 6.68802C2.11568 5.31137 2.50271 4.21911 3.36091 3.36091C4.21911 2.50272 5.31137 2.11568 6.68802 1.93059ZM12.1046 8.35734C12.0829 7.9437 12.4006 7.59076 12.8142 7.56904C13.035 7.55745 13.2385 7.64258 13.3836 7.78738L14.091 8.49479L15.7929 6.79289C16.1834 6.40237 16.8166 6.40237 17.2071 6.79289C17.5976 7.18342 17.5976 7.81658 17.2071 8.20711L15.5052 9.90901L16.2123 10.6161C16.3573 10.7612 16.4425 10.9648 16.4309 11.1858C16.4092 11.5994 16.0563 11.9171 15.6427 11.8954C15.5599 11.8911 15.4 11.8978 15.1408 11.9117L15.0842 11.9148C14.8573 11.9271 14.5868 11.9418 14.3186 11.9461C14.0313 11.9507 13.7146 11.9443 13.4291 11.9026C13.1876 11.8674 12.7852 11.7852 12.5 11.5C12.2148 11.2148 12.1326 10.8124 12.0974 10.5709C12.0557 10.2854 12.0493 9.96866 12.0539 9.68139C12.0582 9.41318 12.0729 9.14267 12.0852 8.91581L12.0883 8.85914C12.1022 8.6 12.1089 8.4401 12.1046 8.35734ZM11.8954 15.6427C11.9171 16.0563 11.5994 16.4092 11.1858 16.431C10.9648 16.4426 10.7612 16.3573 10.6161 16.2123L9.90901 15.5052L8.20711 17.2071C7.81658 17.5977 7.18342 17.5977 6.79289 17.2071C6.40237 16.8166 6.40237 16.1834 6.79289 15.7929L8.4948 14.091L7.78739 13.3836C7.64258 13.2386 7.55746 13.035 7.56905 12.8142C7.59077 12.4006 7.9437 12.0829 8.35735 12.1046C8.44011 12.109 8.60001 12.1023 8.85915 12.0883L8.91579 12.0852C9.14266 12.0729 9.41317 12.0582 9.6814 12.0539C9.96866 12.0493 10.2854 12.0557 10.5709 12.0974C10.8124 12.1326 11.2148 12.2149 11.5 12.5C11.7852 12.7852 11.8674 13.1876 11.9026 13.4291C11.9443 13.7146 11.9507 14.0314 11.9461 14.3186C11.9418 14.5868 11.9271 14.8573 11.9148 15.0842L11.9117 15.1409C11.8978 15.4 11.8911 15.5599 11.8954 15.6427Z" fill="#141B34"/>
</svg>
