<svg width="24" height="24" viewBox="0 0 24 24" fill="none" xmlns="http://www.w3.org/2000/svg">
<path fill-rule="evenodd" clip-rule="evenodd" d="M18.4793 1.38831C17.3447 1.24998 15.893 1.24999 14.0512 1.25H14.0512H13.9477H13.9477C12.1059 1.24999 10.6542 1.24998 9.5196 1.38831C8.3597 1.52971 7.41735 1.82656 6.66723 2.50675C5.84898 3.24871 5.51656 4.21266 5.37122 5.4075C4.27928 5.55604 3.38554 5.85591 2.66778 6.50675C1.90716 7.19645 1.56545 8.07914 1.40456 9.16426C1.24996 10.2069 1.24998 11.5352 1.25 13.1932V13.1933V14.8067V14.8068C1.24998 16.4648 1.24996 17.7931 1.40456 18.8357C1.56545 19.9209 1.90716 20.8036 2.66778 21.4933C3.4179 22.1734 4.36025 22.4703 5.52015 22.6117C6.65479 22.75 8.10649 22.75 9.94826 22.75H9.94828H10.0517H10.0517C11.8935 22.75 13.3452 22.75 14.4799 22.6117C15.6398 22.4703 16.5821 22.1734 17.3322 21.4933C18.0928 20.8036 18.4346 19.9209 18.5954 18.8357C18.6072 18.7563 18.6181 18.6753 18.6281 18.5926C19.7216 18.4439 20.615 18.1431 21.3317 17.4933C22.0923 16.8035 22.434 15.9209 22.5949 14.8357C22.7495 13.7931 22.7495 12.4648 22.7495 10.8067V10.8067V10.8067V9.1933V9.19327V9.19325C22.7495 7.53516 22.7495 6.20695 22.5949 5.16426C22.434 4.07914 22.0923 3.19645 21.3317 2.50675C20.5815 1.82656 19.6392 1.52971 18.4793 1.38831ZM12.8663 6.77733C12.073 6.75047 11.1329 6.75 10.0002 6.75L12.8663 6.77733ZM12.8663 6.77733C13.407 6.79564 13.8795 6.82622 14.2983 6.87728C15.3169 7.00146 15.9032 7.23579 16.3246 7.61794C16.7356 7.99058 16.9797 8.49398 17.1117 9.38426C17.2481 10.3042 17.25 11.521 17.25 13.2541V14.7459C17.25 16.479 17.2481 17.6958 17.1117 18.6157C16.9797 19.506 16.7356 20.0094 16.3246 20.3821C15.9032 20.7642 15.3169 20.9985 14.2983 21.1227C13.2651 21.2487 11.9049 21.25 10 21.25C8.09511 21.25 6.73494 21.2487 5.70168 21.1227C4.68307 20.9985 4.09682 20.7642 3.67537 20.3821C3.26442 20.0094 3.02034 19.506 2.88834 18.6157C2.75193 17.6958 2.75 16.479 2.75 14.7459V13.2541C2.75 11.521 2.75193 10.3042 2.88834 9.38426C3.02034 8.49398 3.26442 7.99058 3.67537 7.61794C4.09682 7.23579 4.68307 7.00146 5.70168 6.87728C5.83845 6.86061 5.98096 6.84612 6.1297 6.83352L6.12977 6.8336C6.49366 6.80286 6.89332 6.78342 7.33596 6.77113C8.08572 6.75039 8.96199 6.75 10 6.75" fill="#141B34"/>
<path d="M9.99864 9.25C10.6705 9.25 11.1206 9.75346 11.3633 10.2452L12.0592 11.6484L13.3631 11.8947C13.9033 11.9855 14.491 12.275 14.6898 12.8985C14.8882 13.521 14.578 14.0974 14.1904 14.486L14.1894 14.487L13.2137 15.5L13.474 16.7579C13.6 17.3093 13.6121 18.0753 13.0175 18.5123C12.4199 18.9516 11.6918 18.7048 11.2066 18.4159L10 17.7142L8.79197 18.4157C8.30507 18.7069 7.57876 18.9496 6.98197 18.5106C6.38883 18.0742 6.39745 17.3106 6.52445 16.7572L6.80362 15.5L5.80704 14.4851C5.42178 14.0967 5.11283 13.5211 5.30958 12.8998C5.50724 12.2757 6.09462 11.9855 6.63559 11.8946L7.93495 11.6487L8.6313 10.2445L8.63199 10.2431C8.87667 9.75224 9.32779 9.25 9.99864 9.25Z" fill="#141B34"/>
</svg>
