<svg width="24" height="24" viewBox="0 0 24 24" fill="none" xmlns="http://www.w3.org/2000/svg">
<path fill-rule="evenodd" clip-rule="evenodd" d="M4.98743 17.7501C5.53967 17.743 5.99306 18.185 6.0001 18.7372C6.00797 19.3541 6.03258 19.7625 6.08889 20.058C6.14158 20.3346 6.2098 20.4425 6.26297 20.5028C6.31198 20.5584 6.3947 20.6357 6.73931 20.6882C7.12688 20.7473 7.66058 20.75 8.52398 20.75H15.4764C16.3398 20.75 16.8735 20.7473 17.2611 20.6882C17.6057 20.6357 17.6884 20.5584 17.7374 20.5028C17.7906 20.4425 17.8588 20.3346 17.9115 20.058C17.9678 19.7625 17.9924 19.3541 18.0003 18.7372C18.0073 18.185 18.4607 17.743 19.0129 17.7501C19.5652 17.7571 20.0071 18.2105 20.0001 18.7627C19.9922 19.3856 19.9683 19.9486 19.8761 20.4323C19.7804 20.9351 19.6001 21.4144 19.2374 21.8256C18.7698 22.3558 18.1785 22.5714 17.5625 22.6653C17.0063 22.7501 16.3177 22.7501 15.5466 22.75C15.5233 22.75 15.4999 22.75 15.4764 22.75H8.52398C8.5005 22.75 8.4771 22.75 8.45377 22.75C7.68266 22.7501 6.99411 22.7501 6.43789 22.6653C5.82187 22.5714 5.23055 22.3558 4.76296 21.8256C4.40027 21.4144 4.22001 20.9351 4.12423 20.4323C4.03206 19.9486 4.00821 19.3856 4.00027 18.7627C3.99322 18.2105 4.43519 17.7571 4.98743 17.7501Z" fill="#141B34"/>
<path d="M7.47221 5.55653C7.47221 3.15947 9.51878 1.25 12 1.25C14.4812 1.25 16.5278 3.15947 16.5278 5.55653C16.5278 6.69294 16.0618 7.55475 15.5936 8.42076C15.0727 9.39338 14.8685 10.5887 15.1247 11.3442C15.3723 12.0747 15.959 12.6695 16.9661 12.9098C16.9661 12.9098 17.7249 13.0872 18.0698 13.2461C20.2794 14.2643 21.2333 15.8405 21.2455 17.4656C21.3128 18.3639 20.6017 19.1776 19.6381 19.1776C17.6871 19.1776 15.9485 19.1971 14.2738 19.2158H14.2738C11.0957 19.2514 8.14792 19.2843 4.41617 19.1769C3.35906 19.1465 2.63459 18.212 2.76544 17.2539C2.84475 15.8568 3.92693 14.1718 6.0412 13.2583C6.32694 13.1348 6.92898 12.9871 6.92898 12.9871C7.97944 12.7263 8.59763 12.1146 8.8618 11.376C9.13345 10.6164 8.93942 9.41572 8.40632 8.41956C7.93835 7.55337 7.47221 6.69055 7.47221 5.55653Z" fill="#141B34"/>
</svg>
