<svg width="24" height="24" viewBox="0 0 24 24" fill="none" xmlns="http://www.w3.org/2000/svg">
<path d="M11.0343 1.29202C11.6659 1.23599 12.3341 1.23599 12.9657 1.29202C13.7793 1.3642 14.5682 1.60865 15.2798 2.00915C15.5022 2.1343 15.7143 2.27976 16.0588 2.51606L16.0887 2.53657C16.4523 2.78595 16.8892 3.12852 17.0496 3.81247C17.3675 5.1681 17.3874 6.9237 16.5075 8.61557C14.8271 11.8465 14.7587 14.0867 14.7587 15C14.7587 15.4142 14.423 15.75 14.0087 15.75H9.99131C9.5771 15.75 9.24131 15.4142 9.24131 15C9.24131 14.0867 9.17297 11.8465 7.4926 8.61557C6.61267 6.9237 6.63252 5.16811 6.95043 3.81248C7.11083 3.12852 7.54775 2.78594 7.91135 2.53657L7.94128 2.51604C8.28578 2.27975 8.49785 2.13429 8.72022 2.00915C9.43186 1.60865 10.2207 1.3642 11.0343 1.29202Z" fill="#141B34"/>
<path fill-rule="evenodd" clip-rule="evenodd" d="M10.8309 14C10.8483 14 10.8658 14 10.8833 14L13.1696 14C13.8205 14 14.391 13.9999 14.8615 14.0536C15.3702 14.1117 15.8617 14.2411 16.3129 14.5663C16.7641 14.8915 17.0422 15.3169 17.2582 15.7811C17.4579 16.2104 17.6383 16.7516 17.8441 17.3691L17.949 17.6838C18.1236 18.2077 17.8404 18.774 17.3165 18.9487C16.7926 19.1233 16.2262 18.8402 16.0516 18.3162L15.9633 18.0513C15.736 17.3695 15.5906 16.9382 15.4448 16.6247C15.3098 16.3344 15.216 16.2411 15.1435 16.1888C15.0709 16.1365 14.9527 16.077 14.6346 16.0407C14.2911 16.0015 13.836 16 13.1172 16H10.8833C10.1646 16 9.70946 16.0015 9.36589 16.0407C9.04788 16.077 8.92965 16.1365 8.85708 16.1888C8.78451 16.2411 8.69076 16.3344 8.55575 16.6247C8.40989 16.9382 8.26455 17.3695 8.03726 18.0513L7.94895 18.3162C7.77431 18.8402 7.20799 19.1233 6.68404 18.9487C6.1601 18.774 5.87694 18.2077 6.05159 17.6838L6.13989 17.4189C6.14543 17.4022 6.15096 17.3857 6.15646 17.3691C6.36225 16.7517 6.54262 16.2104 6.74237 15.7811C6.95831 15.3169 7.23646 14.8915 7.68766 14.5663C8.13886 14.2411 8.63038 14.1117 9.13903 14.0536C9.60954 13.9999 10.18 14 10.8309 14Z" fill="#141B34"/>
<path d="M7.50989 17.75H16.4901C17.0238 17.7499 17.398 17.7498 17.7443 17.8129C18.6232 17.9732 19.4028 18.432 19.8994 19.1002C20.0954 19.3639 20.2305 19.6737 20.4157 20.0982C20.4923 20.2736 20.5965 20.5122 20.6449 20.6438C20.6948 20.7793 20.7441 20.9402 20.7494 21.1173C20.7708 21.8362 20.2491 22.4498 19.5206 22.6663C19.3418 22.7194 19.1627 22.7356 19.0012 22.7429C18.8438 22.75 18.6516 22.75 18.4315 22.75H5.56854C5.3484 22.75 5.15622 22.75 4.99885 22.7429C4.83736 22.7356 4.65819 22.7194 4.47943 22.6663C3.75096 22.4498 3.22918 21.8362 3.25064 21.1173C3.25592 20.9402 3.30518 20.7793 3.35509 20.6438C3.40355 20.5122 3.50772 20.2737 3.58434 20.0982L3.58434 20.0982C3.76952 19.6737 3.90462 19.364 4.10063 19.1002C4.59722 18.432 5.37678 17.9732 6.25575 17.8129C6.60198 17.7498 6.97626 17.7499 7.50989 17.75Z" fill="#141B34"/>
</svg>
