<svg width="24" height="24" viewBox="0 0 24 24" fill="none" xmlns="http://www.w3.org/2000/svg">
<path fill-rule="evenodd" clip-rule="evenodd" d="M9 13C9.55228 13 10 13.4477 10 14V17.4998C10 19.4329 11.5672 21.0001 13.5003 21.0001C15.4335 21.0001 17.0007 19.4329 17.0007 17.4998V16C17.0007 15.4477 17.4484 15 18.0007 15C18.553 15 19.0007 15.4477 19.0007 16V17.4998C19.0007 20.5375 16.5381 23.0001 13.5003 23.0001C10.4626 23.0001 8 20.5375 8 17.4998V14C8 13.4477 8.44772 13 9 13Z" fill="#141B34"/>
<path d="M3.99965 4.07981C3.99965 3.44556 4.4839 3 4.99831 3C5.5506 3 5.99831 2.55228 5.99831 2C5.99831 1.44772 5.5506 1 4.99831 1C3.30506 1 1.99965 2.41676 1.99965 4.07981C1.99965 4.13523 1.99927 4.19268 1.99889 4.25196L1.99889 4.25197C1.99333 5.10193 1.98532 6.32709 3.04678 7.30161L4.43224 10.7727L4.43225 10.7727C4.7269 11.5106 4.95033 12.0701 5.33046 12.5409C5.71059 13.0116 6.21053 13.3479 6.86982 13.7914L8.41125 14.8294C8.74611 15.055 9.18374 15.057 9.52069 14.8346L11.0901 13.799C11.7643 13.3546 12.2756 13.0176 12.664 12.5411C13.0524 12.0647 13.2795 11.496 13.5789 10.7461L14.9543 7.30001C16.0139 6.32577 16.006 5.10155 16.0004 4.25206L16.0004 4.25162C16 4.19261 15.9996 4.13521 15.9996 4.08003C15.9996 2.41686 14.6941 1 13.0008 1C12.4485 1 12.0008 1.44772 12.0008 2C12.0008 2.55228 12.4485 3 13.0008 3C13.5153 3 13.9996 3.44566 13.9996 4.08003C13.9996 5.12559 13.9827 5.47992 13.5954 5.83247C12.3204 6.99309 11.4335 7.79791 10.6826 8.32398C9.95394 8.83444 9.4651 9 8.99965 9C8.5342 9 8.04536 8.83444 7.31674 8.32398C6.56583 7.79791 5.67886 6.99309 4.40388 5.83247C4.01656 5.47989 3.99965 5.12552 3.99965 4.07981Z" fill="#141B34"/>
<path fill-rule="evenodd" clip-rule="evenodd" d="M18 9C15.7909 9 14 10.7909 14 13C14 15.2091 15.7909 17 18 17C20.2091 17 22 15.2091 22 13C22 10.7909 20.2091 9 18 9ZM18.0067 14.5C18.8314 14.5 19.5 13.8284 19.5 13C19.5 12.1716 18.8314 11.5 18.0067 11.5H17.9933C17.1686 11.5 16.5 12.1716 16.5 13C16.5 13.8284 17.1686 14.5 17.9933 14.5H18.0067Z" fill="#141B34"/>
</svg>
