<svg width="24" height="24" viewBox="0 0 24 24" fill="none" xmlns="http://www.w3.org/2000/svg">
<path fill-rule="evenodd" clip-rule="evenodd" d="M12 1.25C6.06294 1.25 1.25 6.06294 1.25 12C1.25 17.9371 6.06294 22.75 12 22.75C17.9371 22.75 22.75 17.9371 22.75 12C22.75 6.06294 17.9371 1.25 12 1.25ZM12 16C10.3949 16 9.59235 16 9.01584 15.6148C8.76626 15.448 8.55198 15.2337 8.38521 14.9842C8 14.4076 8 13.6051 8 12C8 10.3949 8 9.59235 8.38521 9.01584C8.55198 8.76626 8.76626 8.55197 9.01584 8.38521C9.59235 8 10.3949 8 12 8C13.6051 8 14.4076 8 14.9842 8.38521C15.2337 8.55197 15.448 8.76626 15.6148 9.01584C16 9.59235 16 10.3949 16 12C16 13.6051 16 14.4076 15.6148 14.9842C15.448 15.2337 15.2337 15.448 14.9842 15.6148C14.4076 16 13.6051 16 12 16Z" fill="#141B34"/>
</svg>
