<svg width="24" height="24" viewBox="0 0 24 24" fill="none" xmlns="http://www.w3.org/2000/svg">
<path fill-rule="evenodd" clip-rule="evenodd" d="M19.0862 1.30238C18.6428 1.24996 18.1014 1.24998 17.4659 1.25H17.4659L6.53329 1.25H6.53326C5.89776 1.24998 5.35639 1.24996 4.91299 1.30238C4.43892 1.35843 4.00177 1.4811 3.60604 1.77649C3.2125 2.07024 2.96634 2.45546 2.76865 2.89554C2.58202 3.311 2.41192 3.83953 2.21018 4.46639L2.21018 4.4664L2.19765 4.5053L1.51393 6.62954L1.49895 6.67603C1.32288 7.22227 1.18173 7.66018 1.28506 8.32231C1.32789 8.59674 1.38259 8.82192 1.4753 9.03046C1.56251 9.22662 1.67123 9.3769 1.75455 9.49206L1.76692 9.50917C1.8402 9.61062 1.91802 9.70939 2 9.80531L2 14.8206C1.99997 16.1747 1.99994 17.2913 2.11876 18.1751C2.2435 19.1029 2.51547 19.9223 3.17158 20.5784C3.82769 21.2345 4.64711 21.5065 5.57494 21.6313C6.4587 21.7501 7.57531 21.75 8.92943 21.75H12.0347C12.6008 21.75 13.054 21.2805 13.034 20.7147C13.0151 20.1765 12.5732 19.75 12.0347 19.75H9C7.55752 19.75 6.57626 19.7479 5.84144 19.6491C5.13538 19.5542 4.80836 19.3868 4.58579 19.1642C4.36322 18.9416 4.19585 18.6146 4.10092 17.9086C4.00213 17.1737 4 16.1925 4 14.75L4 11.2614C4.71595 11.5755 5.49188 11.75 6.24489 11.75C7.32456 11.75 8.32127 11.3939 9.12194 10.7928C9.92238 11.3935 10.9195 11.75 11.9989 11.75C13.0789 11.75 14.0759 11.3937 14.8766 10.7923C15.6772 11.3933 16.6746 11.75 17.7543 11.75C19.4436 11.75 21.2481 10.8718 22.2323 9.50917L22.2446 9.49204C22.328 9.37688 22.4367 9.22661 22.5239 9.03046C22.6166 8.82192 22.6713 8.59674 22.7141 8.32232C22.8175 7.66018 22.6763 7.22227 22.5002 6.67604L22.4853 6.62954L21.789 4.46639C21.5873 3.83952 21.4172 3.311 21.2305 2.89554C21.0328 2.45546 20.7867 2.07024 20.3931 1.77649C19.9974 1.4811 19.5603 1.35843 19.0862 1.30238Z" fill="#141B34"/>
<path fill-rule="evenodd" clip-rule="evenodd" d="M6 17C6 16.4477 6.44772 16 7 16H11C11.5523 16 12 16.4477 12 17C12 17.5523 11.5523 18 11 18H7C6.44772 18 6 17.5523 6 17Z" fill="#141B34"/>
<path fill-rule="evenodd" clip-rule="evenodd" d="M18.5 12.75C16.1663 12.75 14.25 14.61 14.25 16.9343C14.25 18.2585 14.9163 19.2477 15.6071 20.0393C15.8533 20.3214 16.1238 20.6012 16.3766 20.8626L16.3766 20.8626L16.3767 20.8626L16.3767 20.8627L16.3769 20.8629C16.4727 20.9619 16.5659 21.0583 16.6543 21.1512C16.9905 21.5046 17.2795 21.8297 17.5027 22.1615C17.6895 22.4392 18.0234 22.75 18.5058 22.75C18.9964 22.75 19.3293 22.43 19.5103 22.1416C19.7223 21.8037 20.0026 21.4793 20.3331 21.131C20.4411 21.0172 20.56 20.8954 20.6833 20.7691L20.6833 20.7691L20.6834 20.769C20.9131 20.5338 21.1579 20.283 21.3752 20.0398C22.0714 19.2609 22.75 18.2853 22.75 16.9343C22.75 14.61 20.8337 12.75 18.5 12.75ZM18.4933 18.5C17.6686 18.5 17 17.8284 17 17C17 16.1716 17.6686 15.5 18.4933 15.5H18.5067C19.3314 15.5 20 16.1716 20 17C20 17.8284 19.3314 18.5 18.5067 18.5H18.4933Z" fill="#141B34"/>
</svg>
