<svg width="24" height="24" viewBox="0 0 24 24" fill="none" xmlns="http://www.w3.org/2000/svg">
<path fill-rule="evenodd" clip-rule="evenodd" d="M10.9294 2H13.0706C14.4247 1.99997 15.5413 1.99994 16.4251 2.11875C17.3529 2.2435 18.1723 2.51547 18.8284 3.17158C19.4845 3.82768 19.7565 4.64711 19.8813 5.57494C20.0001 6.4587 20 7.57531 20 8.92943L20 17C20 17.5523 19.5523 18 19 18C18.4477 18 18 17.5523 18 17V9C18 7.55752 17.9979 6.57625 17.8991 5.84143C17.8042 5.13538 17.6368 4.80836 17.4142 4.58579C17.1916 4.36322 16.8646 4.19585 16.1586 4.10092C15.4238 4.00213 14.4425 4 13 4H11C9.55752 4 8.57625 4.00213 7.84143 4.10092C7.13538 4.19585 6.80836 4.36322 6.58579 4.58579C6.36322 4.80836 6.19585 5.13538 6.10092 5.84144C6.00213 6.57626 6 7.55752 6 9V17C6 17.5523 5.55229 18 5 18C4.44772 18 4 17.5523 4 17L4 8.92943C3.99997 7.57531 3.99994 6.4587 4.11875 5.57494C4.2435 4.64711 4.51547 3.82768 5.17158 3.17158C5.82768 2.51547 6.64711 2.2435 7.57494 2.11875C8.4587 1.99994 9.57531 1.99997 10.9294 2Z" fill="#141B34"/>
<path fill-rule="evenodd" clip-rule="evenodd" d="M21 22L3 22C2.44772 22 2 21.5523 2 21C2 20.4477 2.44772 20 3 20L21 20C21.5523 20 22 20.4477 22 21C22 21.5523 21.5523 22 21 22Z" fill="#141B34"/>
</svg>
