<svg width="24" height="24" viewBox="0 0 24 24" fill="none" xmlns="http://www.w3.org/2000/svg">
<path d="M8.75 16.375C8.75 14.5801 10.2051 13.125 12 13.125C13.7949 13.125 15.25 14.5801 15.25 16.375C15.25 18.1699 13.7949 19.625 12 19.625C10.2051 19.625 8.75 18.1699 8.75 16.375Z" fill="#141B34"/>
<path d="M7.75887 2.09252C8.28551 1.37015 9.16897 1.125 10.2857 1.125H13.7143C14.831 1.125 15.7145 1.37015 16.2411 2.09252C16.7171 2.74538 16.75 3.61777 16.75 4.375C16.75 5.13223 16.7171 6.00462 16.2411 6.65748C15.7145 7.37985 14.831 7.625 13.7143 7.625H10.2857C9.16897 7.625 8.28551 7.37985 7.75887 6.65748C7.28291 6.00462 7.25 5.13223 7.25 4.375C7.25 3.61777 7.28291 2.74538 7.75887 2.09252Z" fill="#141B34"/>
<path d="M3.95526 12.125L4.00001 12.125L4.04476 12.125C4.47757 12.125 4.8744 12.1249 5.19721 12.1683C5.55269 12.2161 5.92842 12.3285 6.23744 12.6376C6.54647 12.9466 6.65891 13.3223 6.70671 13.6778C6.75011 14.0006 6.75006 14.3974 6.75001 14.8302V14.8303L6.75001 14.875L6.75001 14.9198V14.9198C6.75006 15.3526 6.75011 15.7494 6.70671 16.0722C6.65891 16.4277 6.54647 16.8034 6.23744 17.1124C5.92842 17.4215 5.55269 17.5339 5.19721 17.5817C4.8744 17.6251 4.47758 17.6251 4.04476 17.625H4.04475L4.00001 17.625L3.95526 17.625H3.95525C3.52244 17.6251 3.12561 17.6251 2.8028 17.5817C2.44732 17.5339 2.07159 17.4215 1.76257 17.1124C1.45355 16.8034 1.3411 16.4277 1.29331 16.0722C1.24991 15.7494 1.24995 15.3526 1.25 14.9198L1.25001 14.875L1.25 14.8303C1.24995 14.3974 1.24991 14.0006 1.29331 13.6778C1.3411 13.3223 1.45355 12.9466 1.76257 12.6376C2.07159 12.3285 2.44732 12.2161 2.8028 12.1683C3.12561 12.1249 3.52244 12.125 3.95526 12.125Z" fill="#141B34"/>
<path d="M19.9553 12.125L20 12.125L20.0448 12.125C20.4776 12.125 20.8744 12.1249 21.1972 12.1683C21.5527 12.2161 21.9284 12.3285 22.2374 12.6376C22.5465 12.9466 22.6589 13.3223 22.7067 13.6778C22.7501 14.0006 22.7501 14.3974 22.75 14.8302V14.8303L22.75 14.875L22.75 14.9198V14.9198C22.7501 15.3526 22.7501 15.7494 22.7067 16.0722C22.6589 16.4277 22.5465 16.8034 22.2374 17.1124C21.9284 17.4215 21.5527 17.5339 21.1972 17.5817C20.8744 17.6251 20.4776 17.6251 20.0448 17.625H20.0448L20 17.625L19.9553 17.625H19.9553C19.5224 17.6251 19.1256 17.6251 18.8028 17.5817C18.4473 17.5339 18.0716 17.4215 17.7626 17.1124C17.4535 16.8034 17.3411 16.4277 17.2933 16.0722C17.2499 15.7494 17.25 15.3526 17.25 14.9198L17.25 14.875L17.25 14.8303C17.25 14.3974 17.2499 14.0006 17.2933 13.6778C17.3411 13.3223 17.4535 12.9466 17.7626 12.6376C18.0716 12.3285 18.4473 12.2161 18.8028 12.1683C19.1256 12.1249 19.5224 12.125 19.9553 12.125Z" fill="#141B34"/>
<path fill-rule="evenodd" clip-rule="evenodd" d="M12 5.875C12.5523 5.875 13 6.32272 13 6.875V9.875H16.0153C17.3739 9.875 18.523 9.95754 19.3742 10.3639C19.835 10.5839 20.2167 10.9003 20.4977 11.3338C20.7702 11.7541 20.9133 12.2308 20.9886 12.7242C21.0719 13.2701 20.6968 13.7803 20.1508 13.8636C19.6049 13.9469 19.0947 13.5718 19.0114 13.0258C18.9629 12.7077 18.8888 12.5287 18.8196 12.4218C18.7588 12.3281 18.6741 12.2459 18.5126 12.1688C18.1191 11.9809 17.3997 11.875 16.0153 11.875H13V13.875C13 14.4273 12.5523 14.875 12 14.875C11.4477 14.875 11 14.4273 11 13.875V11.875H7.98759C6.60334 11.875 5.88295 11.9809 5.4885 12.169C5.32634 12.2463 5.24135 12.3287 5.18051 12.4224C5.11115 12.5292 5.03705 12.708 4.98856 13.0258C4.90526 13.5718 4.39513 13.9469 3.84917 13.8636C3.3032 13.7803 2.92814 13.2701 3.01144 12.7242C3.08678 12.2304 3.23017 11.7535 3.50312 11.3332C3.7846 10.8997 4.16674 10.5835 4.62765 10.3637C5.47936 9.95759 6.62894 9.875 7.98759 9.875H11V6.875C11 6.32272 11.4477 5.875 12 5.875ZM12 17.875C12.5523 17.875 13 18.3227 13 18.875V21.875C13 22.4273 12.5523 22.875 12 22.875C11.4477 22.875 11 22.4273 11 21.875V18.875C11 18.3227 11.4477 17.875 12 17.875Z" fill="#141B34"/>
</svg>
