<svg width="24" height="24" viewBox="0 0 24 24" fill="none" xmlns="http://www.w3.org/2000/svg">
<path d="M7.74369 3.29515C7.90926 3.23495 8.09074 3.23495 8.25631 3.29515L13.7563 5.29516C14.0281 5.394 14.2189 5.64034 14.2466 5.92824C14.2742 6.21615 14.1339 6.49431 13.8859 6.64312L11.75 7.92464V9C11.75 9.28408 11.5895 9.54378 11.3354 9.67082C11.0914 9.79284 10.8012 9.77237 10.5773 9.61955C10.5214 9.59305 10.3679 9.52545 10.1777 9.47357C9.79629 9.36956 9.11453 9.25 8 9.25C6.88547 9.25 6.20371 9.36956 5.82234 9.47357C5.63214 9.52545 5.47863 9.59305 5.42268 9.61955C5.19876 9.77237 4.90863 9.79284 4.66459 9.67082C4.4105 9.54378 4.25 9.28408 4.25 9V7.92464L3.25 7.32464V10C3.25 10.4142 2.91421 10.75 2.5 10.75C2.08579 10.75 1.75 10.4142 1.75 10V6C1.75 5.68462 1.9473 5.40293 2.24369 5.29516L7.74369 3.29515Z" fill="#141B34"/>
<path fill-rule="evenodd" clip-rule="evenodd" d="M5 7.75C5.41421 7.75 5.75 8.08579 5.75 8.5V9.38889C5.75 10.7188 6.78283 11.75 8 11.75C9.21717 11.75 10.25 10.7188 10.25 9.38889V8.5C10.25 8.08579 10.5858 7.75 11 7.75C11.4142 7.75 11.75 8.08579 11.75 8.5V9.38889C11.75 11.4954 10.0965 13.25 8 13.25C5.90346 13.25 4.25 11.4954 4.25 9.38889V8.5C4.25 8.08579 4.58579 7.75 5 7.75Z" fill="#141B34"/>
<path d="M17.2369 6.79775C17.4067 6.73408 17.5938 6.73408 17.7636 6.79775L21.7636 8.29775C22.0379 8.40062 22.2272 8.65381 22.2483 8.94602C22.2694 9.23823 22.1184 9.51597 21.8617 9.65716L20.4321 10.4435V11.0294C20.4321 11.3116 20.2737 11.5698 20.0223 11.6978C19.7841 11.819 19.5006 11.8039 19.2774 11.6609C19.2479 11.6473 19.1643 11.612 19.0356 11.578C18.7773 11.5096 18.2982 11.4265 17.5003 11.4265C16.7023 11.4265 16.2232 11.5096 15.9649 11.578C15.8363 11.612 15.7527 11.6473 15.7231 11.6609C15.4999 11.8039 15.2164 11.819 14.9782 11.6978C14.7268 11.5698 14.5684 11.3116 14.5684 11.0294V10.4435L13.1388 9.65716C12.8821 9.51597 12.7311 9.23823 12.7522 8.94602C12.7733 8.65381 12.9626 8.40062 13.2369 8.29775L17.2369 6.79775Z" fill="#141B34"/>
<path fill-rule="evenodd" clip-rule="evenodd" d="M15.3185 10.2794C15.7327 10.2794 16.0685 10.6152 16.0685 11.0294V11.3182C16.0685 12.109 16.7095 12.75 17.5003 12.75C18.2911 12.75 18.9321 12.109 18.9321 11.3182V11.0294C18.9321 10.6152 19.2679 10.2794 19.6821 10.2794C20.0963 10.2794 20.4321 10.6152 20.4321 11.0294V11.3182C20.4321 12.9374 19.1195 14.25 17.5003 14.25C15.8811 14.25 14.5685 12.9374 14.5685 11.3182V11.0294C14.5685 10.6152 14.9043 10.2794 15.3185 10.2794Z" fill="#141B34"/>
<path d="M4.01973 15.2711C6.45868 13.9096 9.54181 13.9096 11.9808 15.2711C12.4525 15.5202 13.4757 16.0625 13.9958 16.5398C14.3179 16.8353 14.6739 17.2671 14.7397 17.832C14.8119 18.4514 14.515 18.9943 14.0247 19.4322C13.2163 20.1543 12.2257 20.75 10.9397 20.75H5.06082C3.77474 20.75 2.78414 20.1543 1.97575 19.4322C1.48546 18.9943 1.18856 18.4514 1.26077 17.832C1.32663 17.2671 1.68263 16.8354 2.00472 16.5398C2.52479 16.0625 3.54795 15.5202 4.01973 15.2711Z" fill="#141B34"/>
<path d="M14.5215 20.6504C14.763 20.7141 15.0206 20.75 15.2958 20.75H19.705C20.7506 20.75 21.5418 20.2316 22.1614 19.6413C22.558 19.2634 22.8006 18.7909 22.7419 18.2536C22.6882 17.7626 22.3976 17.3887 22.1414 17.1379C21.7314 16.7367 20.9457 16.2934 20.5953 16.0964C18.8967 15.0849 16.7931 14.98 15.0105 15.7816C15.3985 16.1752 15.8798 16.8107 15.982 17.6873C16.117 18.8456 15.5341 19.7607 14.8581 20.3645C14.7506 20.4605 14.6384 20.5562 14.5215 20.6504Z" fill="#141B34"/>
</svg>
