<svg width="24" height="24" viewBox="0 0 24 24" fill="none" xmlns="http://www.w3.org/2000/svg">
<path d="M10.4082 2.26942C9.6991 2.14698 9.03002 2.61118 8.90687 3.29512L6.74897 15.2195C6.71927 15.3737 6.60549 15.4987 6.45374 15.5439C6.30198 15.5892 6.13741 15.5471 6.02672 15.4348L3.79895 13.1745C3.16909 12.5528 2.13322 12.6102 1.57741 13.2982C1.15175 13.8251 1.13999 14.5704 1.54883 15.1102L4.96708 19.6234C5.75424 20.6627 6.11122 21.1302 6.53476 21.4913C7.19348 22.0531 7.98283 22.4439 8.83186 22.6287C9.37776 22.7475 9.96961 22.7498 11.2816 22.7498H14.0063C16.5022 22.7498 18.6525 21.0086 19.1481 18.5863L20.2303 13.2313C20.3532 12.5487 19.8883 11.8906 19.1804 11.7683C18.4713 11.6459 17.8022 12.1101 17.679 12.794L17.5795 13.3471C17.5382 13.5762 17.3173 13.7287 17.086 13.6879C16.8547 13.6471 16.7007 13.4283 16.7419 13.1993L16.8415 12.6462L17.0407 11.54C17.1636 10.8573 16.6986 10.1992 15.9907 10.077C15.2816 9.95453 14.6126 10.4187 14.4894 11.1027L14.3898 11.6558C14.3486 11.8848 14.1277 12.0374 13.8964 11.9965C13.6651 11.9557 13.511 11.7369 13.5523 11.5079L13.8511 9.84859C13.974 9.16593 13.509 8.50785 12.8011 8.38561C12.0922 8.2632 11.4232 8.72714 11.2999 9.41083L11.001 11.0706C10.9598 11.2996 10.7389 11.4522 10.5076 11.4114C10.2763 11.3705 10.1222 11.1518 10.1635 10.9227L11.4581 3.73241C11.5811 3.04974 11.1161 2.39166 10.4082 2.26942Z" fill="#141B34"/>
<path d="M15.75 3.49396C15.1977 3.49396 14.75 3.94167 14.75 4.49396C14.75 5.04624 15.1977 5.49396 15.75 5.49396L18.25 5.49396L18.25 6.08822C18.2499 6.26385 18.2497 6.47951 18.2718 6.65594L18.2722 6.65929C18.288 6.78574 18.3598 7.36178 18.9254 7.63614C19.4922 7.9111 19.9924 7.60917 20.1006 7.54384L20.569 7.2047C20.9449 6.91007 21.4593 6.50437 21.8503 6.12394C22.0454 5.93411 22.2467 5.71684 22.4055 5.48594C22.5467 5.28068 22.75 4.93048 22.75 4.49982C22.75 4.06915 22.5467 3.71896 22.4055 3.5137C22.2467 3.28279 22.0454 3.06553 21.8503 2.8757C21.4593 2.49526 20.9449 2.08957 20.5691 1.79494L20.1006 1.45579C19.9924 1.39047 19.4922 1.08853 18.9254 1.36349C18.3598 1.63786 18.288 2.2139 18.2722 2.34034L18.2718 2.34369C18.2497 2.52013 18.2499 2.73578 18.25 2.91142L18.25 3.49396L15.75 3.49396Z" fill="#141B34"/>
</svg>
