<svg width="24" height="24" viewBox="0 0 24 24" fill="none" xmlns="http://www.w3.org/2000/svg">
<path d="M7.25514 4.75C7.25514 3.36929 8.37442 2.25 9.75514 2.25C11.1358 2.25 12.2551 3.36929 12.2551 4.75V9.36036L14.6078 9.73641L14.6306 9.73982C15.5726 9.88112 16.3158 9.9926 16.9068 10.121C17.5075 10.2515 18.0095 10.4108 18.4506 10.6751C19.7281 11.4404 20.75 12.6633 20.75 14.4736C20.75 15.5606 20.4875 16.3446 19.9726 17.8824C19.6188 18.9448 19.2216 20.1359 18.8418 20.6888C18.218 21.5973 17.2978 22.2605 16.2388 22.565C15.5941 22.7504 14.8759 22.7503 13.7561 22.75L12.4266 22.75H12.4265C10.9341 22.7505 9.97018 22.7507 9.09879 22.3915C8.94285 22.3273 8.79043 22.2547 8.6422 22.1742C7.81393 21.7244 7.20629 20.9761 6.26549 19.8175L2.80732 15.5613C2.06869 14.6522 2.06376 13.3511 2.79549 12.4365C3.67497 11.3371 5.29041 11.1853 6.35934 12.1015L7.25514 12.8693V4.75Z" fill="#141B34"/>
<path d="M19.5059 2.24996C19.5059 1.69768 19.0581 1.24996 18.5059 1.24996C17.9536 1.24996 17.5059 1.69768 17.5059 2.24996L17.5059 4.75L16.9116 4.74998C16.736 4.74986 16.5203 4.7497 16.3439 4.77177L16.3405 4.77219C16.2141 4.78796 15.638 4.85979 15.3637 5.42539C15.0887 5.99221 15.3907 6.49235 15.456 6.60056L15.7951 7.06905C16.0897 7.44487 16.4954 7.95933 16.8759 8.35034C17.0657 8.54545 17.283 8.74669 17.5139 8.90553C17.7191 9.04674 18.0693 9.25 18.5 9.25C18.9307 9.25 19.2809 9.04674 19.4861 8.90553C19.717 8.74669 19.9343 8.54545 20.1241 8.35034C20.5046 7.95933 20.9102 7.44488 21.2049 7.06905L21.544 6.60056C21.6093 6.49235 21.9113 5.99221 21.6363 5.42539C21.362 4.85979 20.7859 4.78796 20.6595 4.77219L20.6561 4.77177C20.4797 4.7497 20.264 4.74986 20.0884 4.74998L19.5059 4.75L19.5059 2.24996Z" fill="#141B34"/>
</svg>
