<svg width="24" height="24" viewBox="0 0 24 24" fill="none" xmlns="http://www.w3.org/2000/svg">
<path d="M8.55788 6.74026C8.55788 5.4339 9.61689 4.37488 10.9233 4.37488C12.2296 4.37488 13.2886 5.4339 13.2886 6.74026V10.7311C14.9122 10.8061 17.1674 11.3326 18.9304 13.0561C19.7899 13.8964 19.8335 15.1206 19.6819 16.1039C19.5251 17.1217 19.1252 18.1255 18.7965 18.7923C18.7004 18.9873 18.5858 19.1868 18.4813 19.3683C18.3765 19.5504 18.2686 19.7377 18.181 19.908C17.9934 20.2726 17.9056 20.5423 17.9056 20.7496C17.9062 21.0227 17.9069 21.3802 17.8301 21.6333C17.6604 22.1923 17.223 22.6297 16.664 22.7994C16.4109 22.8762 16.1256 22.8756 15.8524 22.875L10.2699 22.864C9.68236 22.864 9.20027 22.4528 9.02385 22.2472C8.86806 22.0608 8.77046 21.8168 8.69829 21.621C8.61863 21.4048 8.49709 21.0305 8.38511 20.6809C8.29736 20.4417 8.13871 20.2247 7.60987 19.5459L4.7429 15.8663C4.08823 15.053 4.08552 13.8929 4.73735 13.0765C5.52344 12.0918 6.96837 11.9554 7.92434 12.7765L7.92573 12.7777L8.55788 13.3234V6.74026Z" fill="#141B34"/>
<path fill-rule="evenodd" clip-rule="evenodd" d="M11.0002 3.12488C9.34333 3.12488 8.00018 4.46802 8.00018 6.12488C8.00018 6.67716 7.55247 7.12488 7.00018 7.12488C6.4479 7.12488 6.00018 6.67716 6.00018 6.12488C6.00018 3.36345 8.23876 1.12488 11.0002 1.12488C13.7616 1.12488 16.0002 3.36345 16.0002 6.12488C16.0002 6.67716 15.5525 7.12488 15.0002 7.12488C14.4479 7.12488 14.0002 6.67716 14.0002 6.12488C14.0002 4.46802 12.657 3.12488 11.0002 3.12488Z" fill="#141B34"/>
</svg>
