<svg width="24" height="24" viewBox="0 0 24 24" fill="none" xmlns="http://www.w3.org/2000/svg">
<path fill-rule="evenodd" clip-rule="evenodd" d="M4.96129 2.7279C5.04909 2.71579 5.125 2.7875 5.125 2.87613C5.125 4.53298 6.46815 5.87613 8.125 5.87613L13.625 5.87613C15.2819 5.87613 16.625 4.53298 16.625 2.87613C16.625 2.7875 16.7009 2.71579 16.7887 2.7279C17.6888 2.85205 18.4365 3.11736 19.0269 3.70832C19.6287 4.31067 19.8875 5.06903 20.0085 5.96977C20.125 6.83746 20.125 7.94074 20.125 9.30969L20.125 13.2906C20.125 13.4784 20.125 13.5722 20.0803 13.6447C20.0355 13.7171 19.9465 13.7617 19.7685 13.8509C18.9472 14.2625 18.2127 14.8185 17.5999 15.356C16.7747 16.0796 16.0214 16.9029 15.3984 17.6497L15.3984 17.6497C15.344 17.715 15.3167 17.7476 15.2906 17.7678C15.2136 17.827 15.132 17.8445 15.0375 17.8218C15.0054 17.8141 14.9629 17.7933 14.8778 17.7517L14.8778 17.7517C14.6547 17.6426 14.4391 17.5617 14.2356 17.5036C14.1112 17.4668 13.8042 17.3762 13.377 17.3762C11.9962 17.3762 10.877 18.4955 10.877 19.8762C10.877 20.9969 11.6135 21.9442 12.6297 22.2623L12.6342 22.2637C12.6684 22.2743 12.6882 22.2805 12.7123 22.3088C12.8169 22.4318 12.7297 22.6261 12.5682 22.6261L8.32006 22.6261C6.95252 22.6261 5.85017 22.6262 4.98316 22.5095C4.08293 22.3883 3.325 22.1292 2.72311 21.5267C2.12131 20.9244 1.8625 20.166 1.74152 19.2653C1.62497 18.3976 1.62498 17.2943 1.625 15.9255V15.9254L1.625 9.30963V9.3096C1.62498 7.94071 1.62497 6.83743 1.74151 5.96977C1.8625 5.06903 2.12131 4.31067 2.72311 3.70832C3.31352 3.11736 4.06119 2.85205 4.96129 2.7279ZM6.87695 10.125C6.46274 10.125 6.12695 10.4608 6.12695 10.875C6.12695 11.2892 6.46274 11.625 6.87695 11.625L14.877 11.625C15.2912 11.625 15.627 11.2892 15.627 10.875C15.627 10.4608 15.2912 10.125 14.877 10.125L6.87695 10.125ZM6.87695 15.125C6.46274 15.125 6.12695 15.4608 6.12695 15.875C6.12695 16.2892 6.46274 16.625 6.87695 16.625H10.877C11.2912 16.625 11.627 16.2892 11.627 15.875C11.627 15.4608 11.2912 15.125 10.877 15.125H6.87695Z" fill="#141B34"/>
<path d="M22.3176 15.5414C22.502 16.062 22.2294 16.6335 21.7088 16.8179C21.1752 17.0069 20.5587 17.4138 19.9057 17.9865C19.263 18.5501 18.6378 19.2271 18.0841 19.8909C17.5322 20.5524 17.0635 21.1861 16.7324 21.6551C16.5672 21.8891 16.307 22.2794 16.2191 22.4115C16.0258 22.7156 15.6837 22.8924 15.3239 22.874C14.9639 22.8555 14.6418 22.6448 14.4806 22.3225C14.0399 21.4411 13.6446 21.0902 13.4453 20.9573C13.361 20.9011 13.304 20.8786 13.2814 20.8709C12.773 20.8237 12.375 20.396 12.375 19.8753C12.375 19.323 12.8227 18.8753 13.375 18.8753C13.6094 18.8753 13.7184 18.9155 13.8216 18.945C14.0295 19.0044 14.2803 19.1103 14.5547 19.2932C14.829 19.4761 15.1166 19.7288 15.4054 20.0747C15.7206 19.6439 16.109 19.1363 16.5483 18.6097C17.1416 17.8985 17.84 17.1379 18.587 16.4828C19.3236 15.8368 20.163 15.2436 21.0412 14.9326C21.5618 14.7483 22.1332 15.0208 22.3176 15.5414Z" fill="#141B34"/>
<path d="M6.375 2.875C6.375 1.9085 7.1585 1.125 8.125 1.125H13.625C14.5915 1.125 15.375 1.9085 15.375 2.875C15.375 3.8415 14.5915 4.625 13.625 4.625H8.125C7.1585 4.625 6.375 3.8415 6.375 2.875Z" fill="#141B34"/>
</svg>
