<svg width="24" height="24" viewBox="0 0 24 24" fill="none" xmlns="http://www.w3.org/2000/svg">
<path d="M16.4434 1.57027C17.5849 0.910918 19.0444 1.30235 19.7032 2.44402L22.4302 7.16954C23.089 8.311 22.6982 9.77075 21.5569 10.43C20.4154 11.0893 18.9559 10.6979 18.297 9.55624L15.57 4.83073C14.9113 3.68926 15.3021 2.22951 16.4434 1.57027Z" fill="#141B34"/>
<path fill-rule="evenodd" clip-rule="evenodd" d="M13.7502 11.75C14.1133 11.75 14.448 11.9469 14.6243 12.2644L19.6243 21.2644C19.8926 21.7471 19.7186 22.3559 19.2358 22.6242C18.753 22.8924 18.1442 22.7184 17.876 22.2356L13.7502 14.8091L9.62434 22.2356C9.35613 22.7184 8.74732 22.8924 8.26454 22.6242C7.78176 22.3559 7.60781 21.7471 7.87602 21.2644L12.876 12.2644C13.0524 11.9469 13.387 11.75 13.7502 11.75Z" fill="#141B34"/>
<path d="M6.7113 14.4207C7.50793 15.704 9.17333 16.1403 10.4894 15.3625L17.4071 11.2738C17.6101 11.1538 17.7116 11.0938 17.7283 11.0047C17.745 10.9155 17.6656 10.8144 17.5067 10.6121C17.4007 10.477 17.3029 10.3328 17.2145 10.1797L14.4875 5.45423C14.365 5.24196 14.2663 5.02247 14.1907 4.79885C14.1009 4.53366 14.056 4.40107 13.9667 4.36792C13.8774 4.33478 13.7671 4.39996 13.5465 4.53033L6.6457 8.60909C5.30509 9.40146 4.85868 11.1409 5.62237 12.495L5.72661 12.6799L3.38348 14.008L3.13021 13.5387C2.86791 13.0527 2.26127 12.8713 1.77525 13.1336C1.28923 13.396 1.10787 14.0026 1.37018 14.4886L2.84652 17.2241C3.10882 17.7101 3.71546 17.8915 4.20148 17.6292C4.6875 17.3669 4.86885 16.7603 4.60655 16.2742L4.33356 15.7684L6.7113 14.4207Z" fill="#141B34"/>
</svg>
