<svg width="24" height="24" viewBox="0 0 24 24" fill="none" xmlns="http://www.w3.org/2000/svg">
<path fill-rule="evenodd" clip-rule="evenodd" d="M10.65 13.25C10.9328 13.25 11.0743 13.25 11.1621 13.3379C11.25 13.4257 11.25 13.5672 11.25 13.85L11.25 22.15C11.25 22.4328 11.25 22.5743 11.1621 22.6621C11.0743 22.75 10.9328 22.75 10.65 22.75H6C5.36327 22.75 4.80098 22.7178 4.32323 22.6128C3.83699 22.506 3.39172 22.3139 3.03892 21.9611C2.68612 21.6083 2.49401 21.163 2.38719 20.6768C2.28223 20.199 2.25 19.6367 2.25 19L2.25 17C2.25 16.3633 2.28223 15.801 2.38719 15.3232C2.49401 14.837 2.68612 14.3917 3.03892 14.0389C3.39172 13.6861 3.83699 13.494 4.32323 13.3872C4.80098 13.2822 5.36327 13.25 6 13.25L10.65 13.25ZM12.75 13.85C12.75 13.5672 12.75 13.4257 12.8379 13.3379C12.9257 13.25 13.0672 13.25 13.35 13.25H18C18.6367 13.25 19.199 13.2822 19.6768 13.3872C20.163 13.494 20.6083 13.6861 20.9611 14.0389C21.3139 14.3917 21.506 14.837 21.6128 15.3232C21.7178 15.801 21.75 16.3633 21.75 17V19C21.75 19.6367 21.7178 20.199 21.6128 20.6768C21.506 21.163 21.3139 21.6083 20.9611 21.9611C20.6083 22.3139 20.163 22.506 19.6768 22.6128C19.199 22.7178 18.6367 22.75 18 22.75L13.35 22.75C13.0672 22.75 12.9257 22.75 12.8379 22.6621C12.75 22.5743 12.75 22.4328 12.75 22.15L12.75 13.85ZM6.25 18C6.25 17.5858 6.58579 17.25 7 17.25H8C8.41421 17.25 8.75 17.5858 8.75 18C8.75 18.4142 8.41421 18.75 8 18.75H7C6.58579 18.75 6.25 18.4142 6.25 18ZM16 17.25C15.5858 17.25 15.25 17.5858 15.25 18C15.25 18.4142 15.5858 18.75 16 18.75H17C17.4142 18.75 17.75 18.4142 17.75 18C17.75 17.5858 17.4142 17.25 17 17.25H16Z" fill="#141B34"/>
<path d="M14.052 1.25C14.9505 1.24997 15.6997 1.24995 16.2945 1.32991C16.9223 1.41432 17.4891 1.59999 17.9445 2.05546C18.4 2.51093 18.5857 3.07773 18.6701 3.70552C18.7501 4.3003 18.75 5.04951 18.75 5.94798V5.94801V7.052V7.05203C18.75 7.9505 18.7501 8.69971 18.6701 9.29448C18.5857 9.92228 18.4 10.4891 17.9445 10.9445C17.4891 11.4 16.9223 11.5857 16.2945 11.6701C15.6997 11.7501 14.9505 11.75 14.052 11.75H14.052H9.94801H9.94798C9.04951 11.75 8.3003 11.7501 7.70552 11.6701C7.07773 11.5857 6.51093 11.4 6.05546 10.9445C5.59999 10.4891 5.41432 9.92228 5.32991 9.29448C5.24995 8.69971 5.24997 7.9505 5.25 7.05203V7.052V5.948V5.94797C5.24997 5.0495 5.24995 4.3003 5.32991 3.70552C5.41432 3.07773 5.59999 2.51093 6.05546 2.05546C6.51093 1.59999 7.07773 1.41432 7.70552 1.32991C8.3003 1.24995 9.0495 1.24997 9.94797 1.25H9.948H14.052H14.052Z" fill="#141B34"/>
<path d="M9.76021 10.8767C9.82048 10.5151 10.1334 10.25 10.5 10.25H13.5C13.8666 10.25 14.1795 10.5151 14.2398 10.8767L14.7398 13.8767C14.776 14.0942 14.7148 14.3166 14.5723 14.4848C14.4298 14.653 14.2205 14.75 14 14.75H10C9.77954 14.75 9.57024 14.653 9.42774 14.4848C9.28524 14.3166 9.22397 14.0942 9.26021 13.8767L9.76021 10.8767Z" fill="#141B34"/>
</svg>
