<svg width="24" height="24" viewBox="0 0 24 24" fill="none" xmlns="http://www.w3.org/2000/svg">
<path fill-rule="evenodd" clip-rule="evenodd" d="M7.99998 4.02187C6.86511 4.06724 5.59365 4.17658 4.51324 4.28698C3.85362 4.35437 3.72441 4.37712 3.62291 4.41844C3.35293 4.52836 3.12217 4.78389 3.04027 5.06365C3.00973 5.16796 2.99998 5.30827 2.99998 6C2.99998 6.55228 2.55227 7 1.99998 7C1.4477 7 0.999981 6.55228 0.999981 6C0.999981 5.96303 0.999939 5.92639 0.999898 5.89007C0.999307 5.37184 0.99879 4.91856 1.12084 4.50169C1.3741 3.63663 2.03392 2.90596 2.86877 2.56607C3.2709 2.40235 3.70914 2.35808 4.20685 2.30779C4.24093 2.30435 4.2753 2.30087 4.30995 2.29733C5.73455 2.15178 7.55892 2 8.99998 2C10.441 2 12.2654 2.15178 13.69 2.29733C13.7247 2.30087 13.759 2.30435 13.7931 2.30779C14.2908 2.35808 14.7291 2.40235 15.1312 2.56607C15.966 2.90596 16.6259 3.63663 16.8791 4.50169C17.0012 4.91856 17.0007 5.37184 17.0001 5.89007C17 5.92639 17 5.96303 17 6C17 6.55228 16.5523 7 16 7C15.4477 7 15 6.55228 15 6C15 5.30827 14.9902 5.16796 14.9597 5.06365C14.8778 4.78389 14.647 4.52836 14.3771 4.41844C14.2756 4.37712 14.1463 4.35437 13.4867 4.28698C12.4063 4.17658 11.1349 4.06724 9.99998 4.02187V20H12C12.5523 20 13 20.4477 13 21C13 21.5523 12.5523 22 12 22H5.99998C5.4477 22 4.99998 21.5523 4.99998 21C4.99998 20.4477 5.4477 20 5.99998 20H7.99998V4.02187Z" fill="#141B34"/>
<path fill-rule="evenodd" clip-rule="evenodd" d="M19.7502 6C20.3025 6.00012 20.7501 6.44793 20.75 7.00022L20.7497 8.28591L21.5881 7.90695C22.0914 7.67947 22.6838 7.90303 22.9112 8.40629C23.1387 8.90955 22.9152 9.50193 22.4119 9.72941L21.3582 10.2057L22.3188 11.3605C22.672 11.7851 22.6141 12.4156 22.1895 12.7688C21.7649 13.122 21.1344 13.0641 20.7812 12.6395L19.7496 11.3995L18.719 12.6393C18.3659 13.064 17.7354 13.122 17.3107 12.769C16.886 12.4159 16.828 11.7854 17.181 11.3607L18.1412 10.2057L17.0879 9.72933C16.5847 9.50174 16.3613 8.90932 16.5889 8.4061C16.8164 7.90289 17.4089 7.67945 17.9121 7.90703L18.7497 8.28587L18.75 6.99978C18.7501 6.4475 19.1979 5.99988 19.7502 6Z" fill="#141B34"/>
</svg>
