<svg width="24" height="24" viewBox="0 0 24 24" fill="none" xmlns="http://www.w3.org/2000/svg">
<path d="M10.8095 10.1849C11.0482 10.1849 11.2417 9.99741 11.2417 9.76609V2.54637C11.2417 1.83034 11.8222 1.24988 12.5382 1.24988C13.2542 1.24988 13.8347 1.83034 13.8347 2.54637V10.883C13.8347 11.1143 14.0282 11.3018 14.2669 11.3018C14.5056 11.3018 14.6991 11.1143 14.6991 10.883V4.6143C14.6991 3.8982 15.2796 3.31769 15.9957 3.31769C16.7118 3.31769 17.2923 3.8982 17.2923 4.6143V11.9999C17.2923 12.2312 17.4858 12.4187 17.7245 12.4187C17.9632 12.4187 18.1567 12.2312 18.1567 11.9999V10.1822C18.1567 9.84427 18.1567 9.67531 18.2933 9.58659C18.4298 9.49786 18.5643 9.55768 18.8333 9.6773C19.8127 10.1129 20.4989 11.0881 20.5 12.1914L20.5 14.0117C20.5003 15.8576 20.5005 16.9879 20.1639 17.9221C19.9035 18.6447 19.5029 19.2985 18.9942 19.853C18.6291 20.251 18.4304 20.6628 18.4304 21.0447C18.4304 21.9864 17.667 22.7498 16.7253 22.7498H9.52517L9.47222 22.7499C9.27199 22.7502 9.06349 22.7505 8.87474 22.7091C8.20791 22.5627 7.6871 22.0419 7.54071 21.3751C7.49927 21.1863 7.49961 20.9778 7.49994 20.7776L7.5 20.7246C7.5 20.4411 7.40358 20.1659 7.22657 19.9444L5.23135 17.4472C5.21923 17.432 5.2077 17.4164 5.19679 17.4003L5.17578 17.3693C4.689 16.6524 4.29344 16.0698 4.01761 15.5646C3.73104 15.0398 3.53969 14.54 3.50651 13.9815C3.48749 13.6614 3.5102 13.3403 3.57406 13.026C3.68545 12.4778 3.94502 12.0093 4.30239 11.5288C4.63461 11.0821 5.1469 10.5163 5.70663 9.89816L5.76704 9.83144L5.90566 9.69942C6.33909 9.28659 6.55581 9.08018 6.73764 9.15811C6.91947 9.23603 6.91947 9.53532 6.91946 10.1339L6.91943 13.6332C6.91943 13.8645 7.11293 14.0521 7.35163 14.0521C7.59033 14.0521 7.78383 13.8646 7.78384 13.6332V4.04717C7.78384 3.33101 8.36441 2.75044 9.08057 2.75044C9.79673 2.75044 10.3773 3.33101 10.3773 4.04718V9.76609C10.3773 9.99741 10.5708 10.1849 10.8095 10.1849Z" fill="#141B34"/>
</svg>
