<svg width="24" height="24" viewBox="0 0 24 24" fill="none" xmlns="http://www.w3.org/2000/svg">
<path fill-rule="evenodd" clip-rule="evenodd" d="M17.312 1.93059C15.9686 1.74998 14.2479 1.74999 12.0572 1.75C9.86647 1.74999 8.03144 1.74998 6.68802 1.93059C5.31137 2.11568 4.21911 2.50272 3.36091 3.36091C2.50272 4.21911 2.11568 5.31137 1.93059 6.68802C1.74998 8.03144 1.74999 9.86647 1.75 12.0572C1.74999 14.2479 1.74998 15.9686 1.93059 17.312C2.11568 18.6886 2.50272 19.7809 3.36091 20.6391C4.21911 21.4973 5.31137 21.8843 6.68802 22.0694C8.03144 22.25 9.86646 22.25 12.0572 22.25H12.0572C14.2479 22.25 15.9686 22.25 17.312 22.0694C18.6886 21.8843 19.7809 21.4973 20.6391 20.6391C21.4973 19.7809 21.8843 18.6886 22.0694 17.312C22.25 15.9686 22.25 14.2479 22.25 12.0572V12.0572C22.25 9.86646 22.25 8.03144 22.0694 6.68802C21.8843 5.31137 21.4973 4.21911 20.6391 3.36091C19.7809 2.50272 18.6886 2.11568 17.312 1.93059ZM11.257 5.10025C11.5332 5.06037 11.7654 5.04623 11.9323 5.04225C12.1194 5.03551 12.5657 5.03202 12.854 5.07208C13.2739 5.11723 13.8482 5.22547 14.4648 5.4803C15.7249 6.00106 17.1129 7.11836 17.7243 9.3927C17.8318 9.79272 17.5947 10.2042 17.1947 10.3117C16.7947 10.4192 16.3832 10.1821 16.2757 9.7821C15.7994 8.01034 14.7736 7.23097 13.8919 6.86658C13.4376 6.67884 13.0088 6.59738 12.6936 6.56348C12.5026 6.53761 12.1303 6.53827 11.968 6.54183C11.852 6.54459 11.6802 6.55471 11.4714 6.58485C11.051 6.64557 10.4999 6.78478 9.95584 7.09296C8.92548 7.67656 7.75 8.96052 7.75 11.9978C7.75 15.0351 8.92548 16.3191 9.95584 16.9027C10.4999 17.2109 11.051 17.3501 11.4714 17.4108C11.6802 17.4409 11.852 17.4511 11.968 17.4538C12.0952 17.4595 12.402 17.4649 12.6116 17.4408C12.8772 17.4184 13.2457 17.3622 13.6503 17.2286C14.4419 16.967 15.3652 16.4142 15.962 15.2102C16.1342 14.7029 16.1603 14.033 15.8148 13.5126C15.7043 13.3461 15.5381 13.1689 15.2886 13.0062C14.9194 14.6547 13.4688 15.5098 12.1724 15.5098C10.8305 15.5098 9.69828 14.5673 9.69828 13.3805C9.69828 12.7867 9.88091 12.2965 10.1859 11.9152C10.4815 11.5457 10.8588 11.3194 11.1943 11.1796C11.4275 11.0885 12.0187 10.9064 12.5172 10.9064C12.9928 10.9064 13.4315 10.9338 13.8349 10.9866C13.7979 10.8364 13.7506 10.7046 13.6968 10.5895C13.5057 10.1811 13.2119 9.93747 12.8905 9.8117C12.1897 9.53747 11.3939 9.81398 11.0914 10.3181C10.8783 10.6733 10.4176 10.7885 10.0624 10.5753C9.70722 10.3622 9.59204 9.90154 9.80516 9.54636C10.5372 8.32634 12.1551 7.9132 13.4371 8.41483C14.1071 8.67699 14.6969 9.18762 15.0554 9.95382C15.2505 10.3709 15.3705 10.8486 15.4073 11.3841C16.1559 11.691 16.7005 12.1347 17.0645 12.6829C17.7739 13.7515 17.6374 14.9834 17.3611 15.7533L17.3476 15.791L17.3301 15.8271C16.5176 17.5035 15.2104 18.2928 14.1209 18.6528C13.5809 18.8312 13.0927 18.9055 12.7379 18.9355C12.429 18.9719 12.0721 18.9626 11.9323 18.9534C11.7654 18.9494 11.5332 18.9353 11.257 18.8954C10.7076 18.8161 9.96558 18.6321 9.21658 18.2079C7.66073 17.3266 6.25 15.5087 6.25 11.9978C6.25 8.48695 7.66073 6.66902 9.21658 5.78778C9.96558 5.36354 10.7076 5.17959 11.257 5.10025ZM13.8565 12.5045C13.4799 12.4426 13.0383 12.4064 12.5206 12.4062C12.1871 12.4062 11.882 12.5115 11.7712 12.5641C11.5895 12.6398 11.4495 12.7367 11.3572 12.8521C11.2742 12.9558 11.1982 13.1121 11.1982 13.3804C11.1982 13.5403 11.4454 14.0097 12.1724 14.0097C12.8955 14.0097 13.6885 13.5144 13.8464 12.5674C13.8499 12.5463 13.8533 12.5254 13.8565 12.5045Z" fill="#141B34"/>
</svg>
