<svg width="24" height="24" viewBox="0 0 24 24" fill="none" xmlns="http://www.w3.org/2000/svg">
<path d="M11.1641 10.1849C11.4017 10.1849 11.5944 9.99739 11.5944 9.76607V2.48866C11.5944 1.80457 12.149 1.25 12.8331 1.25C13.5171 1.25 14.0717 1.80457 14.0717 2.48867V10.8829C14.0717 11.1143 14.2644 11.3018 14.502 11.3018C14.7397 11.3018 14.9324 11.1143 14.9324 10.8829V4.60476C14.9324 3.9205 15.4871 3.36581 16.1713 3.36581C16.8556 3.36581 17.4103 3.92054 17.4103 4.60482L17.4099 11.9997C17.4098 12.231 17.6024 12.4186 17.8401 12.4187C18.0778 12.4187 18.2705 12.2313 18.2706 12L18.2707 10.0417C18.2707 9.74889 18.2707 9.60248 18.3872 9.51241C18.5038 9.42234 18.6241 9.45367 18.8647 9.51633C20.0537 9.82596 20.749 11.0473 20.749 12.194L20.7486 13.6916C20.7486 14.757 20.7486 15.5912 20.707 16.2658C20.6648 16.9514 20.5776 17.5219 20.3807 18.0526C20.1426 18.6943 19.5656 19.4263 19.1789 19.8816C18.9412 20.1615 18.8092 20.6652 18.8092 20.9998C18.8092 21.9663 18.0257 22.7498 17.0592 22.7498H9.84734C8.85881 22.7498 8.16142 21.9612 8.02103 21.1296C7.8904 20.3558 7.60367 19.6067 7.21927 19.1003L3.5395 14.0389C3.43165 13.8932 3.35388 13.7324 3.30604 13.565C3.27243 13.4104 3.25368 13.2533 3.24976 13.0959C3.26177 12.7878 3.36881 12.483 3.57003 12.2298C4.10962 11.5507 5.10574 11.4972 5.71324 12.1089L7.51621 13.9243C7.6381 14.047 7.82432 14.0855 7.98691 14.0215C8.1495 13.9575 8.25594 13.8039 8.25594 13.6332V3.98936C8.25594 3.30514 8.81061 2.75047 9.49484 2.75047C10.1791 2.75047 10.7337 3.30514 10.7337 3.98936V9.76607C10.7337 9.99739 10.9264 10.1849 11.1641 10.1849Z" fill="#141B34"/>
</svg>
