<svg width="24" height="24" viewBox="0 0 24 24" fill="none" xmlns="http://www.w3.org/2000/svg">
<path d="M8.86606 9.91243C8.91995 9.68039 8.94689 9.56437 9.02775 9.52172C9.10861 9.47907 9.22869 9.52599 9.46884 9.61984C9.68987 9.70622 9.88935 9.7628 10.0497 9.80828C10.6848 9.98917 11.3353 10.1411 11.9995 10.1411C12.6889 10.1411 13.3949 9.96679 13.8487 9.83692C14.0802 9.77099 14.3076 9.69915 14.5279 9.61254C14.7639 9.51973 14.8819 9.47332 14.9629 9.51595C15.044 9.55857 15.0707 9.6739 15.1243 9.90456L16.3111 15.0154C16.3432 15.1534 16.3773 15.2935 16.4119 15.4351C16.6474 16.401 16.9004 17.4387 16.6282 18.4034C16.3459 19.404 15.5513 20.1628 14.808 20.8727C14.6948 20.9808 14.5828 21.0878 14.4739 21.1943C14.0369 21.622 13.6577 21.9932 13.3135 22.2518C12.9398 22.5326 12.5191 22.7482 12.0038 22.75C11.4834 22.7518 11.0561 22.5354 10.6786 22.2518C10.3049 21.971 9.97173 21.6421 9.63947 21.314C9.5793 21.2546 9.51917 21.1952 9.45882 21.1361C9.36135 21.0408 9.26142 20.9449 9.16048 20.8481C8.42818 20.1456 7.64301 19.3924 7.36398 18.4034C7.0918 17.4387 7.34482 16.401 7.58032 15.4351C7.61485 15.2935 7.649 15.1534 7.68106 15.0153L8.86606 9.91243Z" fill="#141B34"/>
<path d="M12.0001 1.25C11.5328 1.25 11.0928 1.40632 10.5411 1.60228L9.49743 1.97206C9.01023 2.1446 8.57033 2.30038 8.23711 2.4758C7.87268 2.66764 7.51454 2.94367 7.34207 3.41689C7.1706 3.88739 7.2642 4.32963 7.4147 4.71305C7.55344 5.06651 7.78523 5.47698 8.04384 5.93494L8.6261 6.96643C8.84987 7.36406 9.05087 7.72125 9.40001 7.99834C9.75025 8.27631 10.098 8.37533 10.4773 8.48334L10.5358 8.50004C10.9617 8.62184 11.5136 8.75 12.0001 8.75C12.4867 8.75 13.0385 8.62184 13.4644 8.50004L13.523 8.48334C13.9023 8.37533 14.25 8.27631 14.6003 7.99834C14.9494 7.72125 15.1504 7.36406 15.3742 6.96643L15.9564 5.93496C16.215 5.477 16.4468 5.06652 16.5856 4.71305C16.7361 4.32963 16.8297 3.88739 16.6582 3.41689C16.4857 2.94367 16.1276 2.66764 15.7631 2.4758C15.4299 2.30038 14.99 2.1446 14.5028 1.97207L13.4592 1.60228C12.9075 1.40632 12.4675 1.25 12.0001 1.25Z" fill="#141B34"/>
</svg>
