<svg width="24" height="24" viewBox="0 0 24 24" fill="none" xmlns="http://www.w3.org/2000/svg">
<path fill-rule="evenodd" clip-rule="evenodd" d="M4.79302 3.91789C5.18354 3.52737 5.8167 3.52737 6.20723 3.91789L7.20723 4.91789C7.59775 5.30842 7.59775 5.94158 7.20723 6.33211C6.8167 6.72263 6.18354 6.72263 5.79302 6.33211L4.79302 5.33211C4.40249 4.94158 4.40249 4.30842 4.79302 3.91789ZM20.2072 3.91789C20.5978 4.30842 20.5978 4.94158 20.2072 5.33211L19.2072 6.33211C18.8167 6.72263 18.1835 6.72263 17.793 6.33211C17.4025 5.94158 17.4025 5.30842 17.793 4.91789L18.793 3.91789C19.1835 3.52737 19.8167 3.52737 20.2072 3.91789Z" fill="#141B34"/>
<path d="M17.2071 8.41789C17.5976 8.80842 17.5976 9.44158 17.2071 9.83211L14.8276 12.2116C14.9388 12.4946 15 12.8029 15 13.125C15 14.5057 13.8807 15.625 12.5 15.625C11.1193 15.625 10 14.5057 10 13.125C10 11.7443 11.1193 10.625 12.5 10.625C12.8221 10.625 13.1304 10.6862 13.4134 10.7974L15.7929 8.41789C16.1834 8.02737 16.8166 8.02737 17.2071 8.41789Z" fill="#141B34"/>
<path fill-rule="evenodd" clip-rule="evenodd" d="M9.5 2.125C9.5 1.57272 9.94772 1.125 10.5 1.125H14.5C15.0523 1.125 15.5 1.57272 15.5 2.125C15.5 2.67728 15.0523 3.125 14.5 3.125H13.5V3.625C13.5 4.17728 13.0523 4.625 12.5 4.625C11.9477 4.625 11.5 4.17728 11.5 3.625V3.125H10.5C9.94772 3.125 9.5 2.67728 9.5 2.125Z" fill="#141B34"/>
<path fill-rule="evenodd" clip-rule="evenodd" d="M12.9773 5.325C8.94624 5.325 5.58436 8.36561 5.15317 12.2571C5.09387 12.7923 4.61091 13.1783 4.07444 13.1191C3.53798 13.0599 3.15116 12.5781 3.21046 12.0429C3.75155 7.15949 7.95376 3.375 12.9773 3.375C18.3746 3.375 22.75 7.74022 22.75 13.125C22.75 18.5098 18.3746 22.875 12.9773 22.875H2.22727C1.68754 22.875 1.25 22.4385 1.25 21.9C1.25 21.3615 1.68754 20.925 2.22727 20.925H12.9773C17.2951 20.925 20.7955 17.4328 20.7955 13.125C20.7955 8.81718 17.2951 5.325 12.9773 5.325ZM1.25 15.075C1.25 14.5365 1.68754 14.1 2.22727 14.1H5.15909C5.69882 14.1 6.13636 14.5365 6.13636 15.075C6.13636 15.6135 5.69882 16.05 5.15909 16.05H2.22727C1.68754 16.05 1.25 15.6135 1.25 15.075ZM1.25 18.4875C1.25 17.949 1.68754 17.5125 2.22727 17.5125H7.11364C7.65337 17.5125 8.09091 17.949 8.09091 18.4875C8.09091 19.026 7.65337 19.4625 7.11364 19.4625H2.22727C1.68754 19.4625 1.25 19.026 1.25 18.4875Z" fill="#141B34"/>
</svg>
