<svg width="24" height="24" viewBox="0 0 24 24" fill="none" xmlns="http://www.w3.org/2000/svg">
<path d="M5.04282 16.25C5.71341 16.25 6.27894 16.25 6.72941 16.3004C7.19908 16.3531 7.65702 16.4701 8.04079 16.79C8.44432 17.1262 8.61266 17.5575 8.6855 18.009C8.75013 18.4096 8.75007 18.9033 8.75 19.446L8.74999 19.5L8.75 19.554C8.75007 20.0967 8.75013 20.5905 8.6855 20.991C8.61266 21.4425 8.44432 21.8738 8.04079 22.2101C7.65702 22.5299 7.19908 22.647 6.72941 22.6996C6.27894 22.75 5.71339 22.75 5.04279 22.75H5.04279H4.9572H4.9572C4.28659 22.75 3.72105 22.75 3.27058 22.6996C2.8009 22.647 2.34297 22.5299 1.9592 22.2101C1.55567 21.8738 1.38733 21.4425 1.31449 20.991C1.24986 20.5905 1.24992 20.0967 1.24999 19.554L1.24999 19.554L1.24999 19.5L1.24999 19.446L1.24999 19.446C1.24992 18.9033 1.24986 18.4096 1.31449 18.009C1.38733 17.5575 1.55567 17.1262 1.9592 16.79C2.34297 16.4701 2.8009 16.3531 3.27058 16.3004C3.72105 16.25 4.28658 16.25 4.95717 16.25H4.9572H5.04278H5.04282Z" fill="#141B34"/>
<path d="M19.0428 16.25C19.7134 16.25 20.2789 16.25 20.7294 16.3004C21.1991 16.3531 21.657 16.4701 22.0408 16.79C22.4443 17.1262 22.6127 17.5575 22.6855 18.009C22.7501 18.4096 22.7501 18.9033 22.75 19.446L22.75 19.5L22.75 19.554C22.7501 20.0967 22.7501 20.5905 22.6855 20.991C22.6127 21.4425 22.4443 21.8738 22.0408 22.2101C21.657 22.5299 21.1991 22.647 20.7294 22.6996C20.2789 22.75 19.7134 22.75 19.0428 22.75H19.0428H18.9572H18.9572C18.2866 22.75 17.7211 22.75 17.2706 22.6996C16.8009 22.647 16.343 22.5299 15.9592 22.2101C15.5557 21.8738 15.3873 21.4425 15.3145 20.991C15.2499 20.5905 15.2499 20.0967 15.25 19.554L15.25 19.554L15.25 19.5L15.25 19.446L15.25 19.446C15.2499 18.9033 15.2499 18.4096 15.3145 18.009C15.3873 17.5575 15.5557 17.1262 15.9592 16.79C16.343 16.4701 16.8009 16.3531 17.2706 16.3004C17.721 16.25 18.2866 16.25 18.9572 16.25H18.9572H19.0428H19.0428Z" fill="#141B34"/>
<path fill-rule="evenodd" clip-rule="evenodd" d="M6.97986 13.1312C7.62694 13.0322 8.40211 13 9.30769 13H14.6923C15.5979 13 16.3731 13.0322 17.0201 13.1312C17.6633 13.2296 18.2608 13.4051 18.7541 13.7486C19.8334 14.5003 20 15.7391 20 17C20 17.5523 19.5523 18 19 18C18.4477 18 18 17.5523 18 17C18 15.7789 17.7947 15.5177 17.6111 15.3899C17.473 15.2936 17.2163 15.1845 16.7177 15.1082C16.2229 15.0325 15.5687 15 14.6923 15H9.30769C8.43133 15 7.77706 15.0325 7.28233 15.1082C6.78373 15.1845 6.52703 15.2936 6.38888 15.3899C6.20526 15.5177 6 15.7789 6 17C6 17.5523 5.55228 18 5 18C4.44772 18 4 17.5523 4 17C4 15.7391 4.16664 14.5003 5.24589 13.7486C5.73917 13.4051 6.33666 13.2296 6.97986 13.1312Z" fill="#141B34"/>
<path fill-rule="evenodd" clip-rule="evenodd" d="M12 1.25C9.10049 1.25 6.74998 3.6005 6.74998 6.5C6.74998 9.3995 9.10049 11.75 12 11.75C14.8995 11.75 17.25 9.3995 17.25 6.5C17.25 3.6005 14.8995 1.25 12 1.25ZM13.8321 5.55481C14.1385 5.09528 14.0143 4.47441 13.5548 4.16806C13.0953 3.8617 12.4744 3.98588 12.168 4.44541L11.168 5.94541C10.8617 6.40493 10.9859 7.0258 11.4454 7.33216C11.9049 7.63851 12.5258 7.51434 12.8321 7.05481L13.8321 5.55481Z" fill="#141B34"/>
</svg>
