<svg width="24" height="24" viewBox="0 0 24 24" fill="none" xmlns="http://www.w3.org/2000/svg">
<path fill-rule="evenodd" clip-rule="evenodd" d="M6.07061 1.12499C6.08872 1.125 6.10686 1.125 6.12501 1.125C6.14317 1.125 6.16131 1.125 6.17942 1.12499C6.60349 1.12491 7.01562 1.12483 7.35553 1.17053C7.73874 1.22205 8.17601 1.34757 8.53923 1.71079C8.90244 2.074 9.02797 2.51128 9.07949 2.89448C9.12519 3.23439 9.1251 3.64652 9.12502 4.07059C9.12502 4.08871 9.12501 4.10684 9.12501 4.125V11.125C9.12501 11.1432 9.12502 11.1613 9.12502 11.1794C9.1251 11.6035 9.12519 12.0156 9.07949 12.3555C9.02797 12.7387 8.90244 13.176 8.53923 13.5392C8.17601 13.9024 7.73874 14.028 7.35553 14.0795C7.01562 14.1252 6.60349 14.1251 6.17942 14.125C6.16131 14.125 6.14317 14.125 6.12501 14.125C6.10686 14.125 6.08872 14.125 6.0706 14.125C5.64654 14.1251 5.23441 14.1252 4.89449 14.0795C4.51129 14.028 4.07402 13.9024 3.7108 13.5392C3.34759 13.176 3.22206 12.7387 3.17054 12.3555C3.12484 12.0156 3.12492 11.6035 3.12501 11.1794C3.12501 11.1613 3.12501 11.1432 3.12501 11.125V4.125C3.12501 4.10684 3.12501 4.08871 3.12501 4.07059C3.12492 3.64652 3.12484 3.23439 3.17054 2.89448C3.22206 2.51128 3.34759 2.074 3.7108 1.71079C4.07402 1.34757 4.51129 1.22205 4.89449 1.17053C5.23441 1.12483 5.64654 1.12491 6.07061 1.12499ZM5.15371 3.15369C5.15338 3.15607 5.15304 3.1585 5.15271 3.16097C5.12714 3.35117 5.12501 3.62532 5.12501 4.125V11.125C5.12501 11.6247 5.12714 11.8988 5.15271 12.089C5.15304 12.0915 5.15338 12.0939 5.15371 12.0963C5.15608 12.0966 5.15851 12.097 5.16099 12.0973C5.35118 12.1229 5.62534 12.125 6.12501 12.125C6.62469 12.125 6.89885 12.1229 7.08904 12.0973C7.09152 12.097 7.09394 12.0966 7.09632 12.0963C7.09665 12.0939 7.09699 12.0915 7.09732 12.089C7.12289 11.8988 7.12501 11.6247 7.12501 11.125V4.125C7.12501 3.62532 7.12289 3.35117 7.09732 3.16097C7.09699 3.1585 7.09665 3.15607 7.09632 3.15369C7.09394 3.15336 7.09152 3.15303 7.08904 3.15269C6.89885 3.12712 6.62469 3.125 6.12501 3.125C5.62534 3.125 5.35118 3.12712 5.16099 3.15269C5.15851 3.15303 5.15608 3.15336 5.15371 3.15369Z" fill="#141B34"/>
<path fill-rule="evenodd" clip-rule="evenodd" d="M6.125 7.125C6.125 6.57272 6.57272 6.125 7.125 6.125L10.125 6.125C10.6773 6.125 11.125 6.57272 11.125 7.125C11.125 7.67729 10.6773 8.125 10.125 8.125L7.125 8.125C6.57272 8.125 6.125 7.67728 6.125 7.125Z" fill="#141B34"/>
<path d="M20.2163 14.3662C19.9505 14.8445 19.5391 15.2255 19.0515 15.4738C17.8854 16.0674 16.6163 16.3751 15.2148 16.3751C13.8136 16.3751 12.9153 16.2368 12.2609 16.0149C11.6227 15.7985 11.1717 15.4879 10.6786 15.0591C10.366 14.7873 9.89232 14.8204 9.62052 15.1329C9.34872 15.4455 9.38177 15.9192 9.69434 16.191C10.2748 16.6958 10.8937 17.1352 11.7792 17.4354C12.6484 17.7302 13.7275 17.8751 15.2148 17.8751C15.6781 17.8751 16.129 17.8461 16.5679 17.7891C16.5259 17.8827 16.4908 18.0196 16.4839 18.2143C16.4725 18.5319 16.5412 18.9323 16.7022 19.3617C17.0287 20.2326 17.6705 21.0594 18.46 21.4542C18.7711 21.6098 18.9344 21.9589 18.8545 22.2974C18.7745 22.6359 18.4724 22.875 18.1245 22.875H4.12496C3.82161 22.875 3.54814 22.6923 3.43205 22.412C3.31597 22.1318 3.38013 21.8092 3.59463 21.5947C4.39735 20.792 6.03732 17.8668 4.89735 13.3069C4.84134 13.0829 4.89168 12.8455 5.03381 12.6635C5.17594 12.4814 5.39401 12.375 5.62496 12.375H7.12496C7.26303 12.375 7.37496 12.2631 7.37496 12.125V11.125C7.37496 10.7108 7.71075 10.375 8.12496 10.375L17.3305 10.375C18.0021 10.3749 18.6216 10.3748 19.1233 10.4841C19.7136 10.6129 20.1987 10.9021 20.5425 11.4737C20.8506 11.9859 20.9463 12.484 20.8224 13.0232C20.7232 13.4552 20.4471 13.9513 20.2163 14.3662Z" fill="#141B34"/>
</svg>
