<svg width="24" height="24" viewBox="0 0 24 24" fill="none" xmlns="http://www.w3.org/2000/svg">
<path fill-rule="evenodd" clip-rule="evenodd" d="M6.79036 5.066C5.44895 5.73671 5 6.47826 5 7C5 7.52174 5.44895 8.26329 6.79036 8.934C8.07196 9.5748 9.91244 10 12 10C14.0876 10 15.928 9.5748 17.2096 8.934C18.5511 8.26329 19 7.52174 19 7C19 6.47826 18.5511 5.73671 17.2096 5.066C15.928 4.4252 14.0876 4 12 4C9.91244 4 8.07196 4.4252 6.79036 5.066ZM6.95502 11.1759C6.58117 11.0398 6.22707 10.8884 5.89593 10.7229C4.34191 9.94584 3 8.6874 3 7C3 5.3126 4.34191 4.05416 5.89593 3.27715C7.50977 2.47023 9.66928 2 12 2C14.3307 2 16.4902 2.47023 18.1041 3.27715C19.6581 4.05416 21 5.3126 21 7C21 8.6874 19.6581 9.94584 18.1041 10.7229C16.4902 11.5298 14.3307 12 12 12C10.4647 12 9.12424 12.3133 8.20457 12.7731C7.22509 13.2628 7 13.7544 7 14C7 14.2456 7.22509 14.7372 8.20457 15.2269C9.12424 15.6867 10.4647 16 12 16C13.5353 16 14.8758 15.6867 15.7954 15.2269C16.7749 14.7372 17 14.2456 17 14C17 13.4477 17.4477 13 18 13C18.5523 13 19 13.4477 19 14C19 15.4113 17.8819 16.4197 16.6899 17.0157C15.4379 17.6417 13.7784 18 12 18C11.017 18 10.1765 18.2013 9.61879 18.4802C9.3402 18.6195 9.16902 18.7595 9.07781 18.8674C9.03417 18.9189 9.01484 18.956 9.00676 18.9757C9.00277 18.9854 9.00124 18.9916 9.00064 18.9946C9.00012 18.9971 9 18.9997 9 18.9997C9 18.9997 9.00007 19.0026 9.00064 19.0054C9.00124 19.0084 9.00277 19.0146 9.00676 19.0243C9.01484 19.044 9.03417 19.0811 9.07781 19.1326C9.16902 19.2405 9.3402 19.3805 9.61879 19.5198C10.1765 19.7987 11.017 20 12 20C12.983 20 13.8235 19.7987 14.3812 19.5198C14.6598 19.3805 14.831 19.2405 14.9222 19.1326C14.9658 19.0811 14.9852 19.044 14.9932 19.0243C14.9972 19.0146 14.9988 19.0084 14.9994 19.0054C14.9999 19.0026 15 19 15 19C15 18.4477 15.4477 18 16 18C16.5523 18 17 18.4477 17 19C17 20.1351 16.1058 20.8936 15.2756 21.3086C14.3857 21.7536 13.2262 22 12 22C10.7738 22 9.61434 21.7536 8.72436 21.3086C7.8942 20.8936 7 20.1351 7 19C7 18.267 7.37287 17.6911 7.86059 17.2633C7.66961 17.1862 7.48586 17.1036 7.31015 17.0157C6.11805 16.4197 5 15.4113 5 14C5 12.7302 5.90519 11.7865 6.95502 11.1759Z" fill="#141B34"/>
</svg>
