<svg width="24" height="24" viewBox="0 0 24 24" fill="none" xmlns="http://www.w3.org/2000/svg">
<path d="M6.66968 10.8115C6.66968 10.2713 6.66968 10.0013 6.51751 9.91509C6.49805 9.90407 6.47741 9.89526 6.45598 9.88882C6.2885 9.83851 6.09343 10.0253 5.70329 10.3989C5.12016 11.043 4.64652 11.5662 4.30239 12.0289C3.94502 12.5094 3.68545 12.9779 3.57406 13.5261C3.5102 13.8404 3.48749 14.1615 3.50651 14.4816C3.53969 15.0401 3.73104 15.5399 4.01761 16.0647C4.29344 16.5699 4.689 17.1525 5.17578 17.8694L5.81233 18.807C6.40022 19.673 6.76124 20.2049 7.21051 20.6327C7.99531 21.3799 8.97624 21.8948 10.0414 22.1208C10.6507 22.2501 11.565 22.25 12.6268 22.2499C14.513 22.2502 15.6574 22.2504 16.6027 21.9219C18.2621 21.3454 19.5731 20.0615 20.1639 18.4222C20.5005 17.488 20.5003 16.3577 20.5 14.5118L20.5 12.4999C20.5 12.2344 20.4803 11.5833 20.4705 11.2909C20.4705 10.2883 19.636 9.31 18.5021 9.04905C18.2562 8.99248 18.1333 8.96419 18.0201 9.05427C17.907 9.14435 17.907 9.29009 17.907 9.58156V11.4382C17.907 11.6709 17.7135 11.8595 17.4748 11.8595C17.2361 11.8595 17.0426 11.6709 17.0426 11.4382V9.00222C17.0426 8.89297 17.0426 8.83834 17.0206 8.78419C16.9987 8.73003 16.966 8.6962 16.9004 8.62855C16.4823 8.19682 15.8807 7.88462 15.0483 7.78434C14.7836 7.75246 14.6513 7.73652 14.5503 7.82604C14.4493 7.91557 14.4493 8.06034 14.4493 8.34989V10.3149C14.4493 10.5476 14.2558 10.7362 14.0171 10.7362C13.7784 10.7362 13.5849 10.5476 13.5849 10.3149V7.71949C13.5849 7.58361 13.5849 7.51567 13.5526 7.4518C13.5203 7.38793 13.4726 7.35284 13.3771 7.28266C12.9215 6.94774 12.3588 6.74989 11.75 6.74989C11.6676 6.75032 11.519 6.76016 11.3596 6.78928C11.2071 6.81715 11.1309 6.83108 11.0613 6.91454C10.9917 6.998 10.9917 7.09288 10.9917 7.28263V10.3149C10.9917 10.5476 10.7982 10.7362 10.5595 10.7362C10.3208 10.7362 10.1273 10.5476 10.1273 10.3149V3.04643C10.1273 2.33033 9.5468 1.74982 8.8307 1.74982C8.1146 1.74982 7.53409 2.33033 7.53409 3.04643V14.2464C7.53409 14.4791 7.34058 14.6677 7.10188 14.6677C6.86319 14.6677 6.66968 14.4791 6.66968 14.2464V10.8115Z" fill="#141B34"/>
</svg>
