<svg width="24" height="24" viewBox="0 0 24 24" fill="none" xmlns="http://www.w3.org/2000/svg">
<path d="M21.0372 20.7056C21.0375 20.9198 21.038 21.1997 20.9906 21.4011C20.8385 22.047 20.3341 22.5513 19.6882 22.7034C19.4868 22.7508 19.2636 22.7504 19.0494 22.7501H19.0494L14.3786 22.7501C14.0732 22.7509 13.7542 22.7517 13.4757 22.6571C13.3281 22.607 13.1604 22.5405 12.9971 22.4208C12.8339 22.3012 12.7199 22.1614 12.6276 22.0358C12.505 21.8688 12.4241 21.6552 12.3636 21.4849C12.296 21.2946 12.1897 20.9629 12.0917 20.6531C12.0128 20.4351 11.8705 20.2367 11.378 19.596L8.71607 16.1332C8.09671 15.353 8.09428 14.2432 8.71102 13.4602C9.45892 12.5106 10.8407 12.3763 11.754 13.1713L11.7554 13.1725L12.25 13.6053V7.5C12.25 6.25736 13.2574 5.25 14.5 5.25C15.7426 5.25 16.75 6.25736 16.75 7.5V11.2349C18.2645 11.3148 20.3454 11.8207 21.9763 13.4367C22.7898 14.2428 22.8272 15.4112 22.6862 16.3384C22.5398 17.3011 22.167 18.2497 21.8607 18.8794C21.7708 19.0643 21.3858 19.7594 21.2889 19.93C21.1154 20.2715 21.0372 20.519 21.0372 20.7056Z" fill="#141B34"/>
<path d="M14.0261 1.25C15.8081 1.24997 17.2444 1.24995 18.3741 1.40107C19.547 1.55796 20.5345 1.89361 21.3188 2.67397C22.1031 3.45434 22.4405 4.43689 22.5982 5.60385C22.75 6.72785 22.75 8.15698 22.75 9.93002V10.0011C22.75 10.5382 22.3125 10.9735 21.7727 10.9735C21.233 10.9735 20.7955 10.5382 20.7955 10.0011C20.7955 8.14017 20.7934 6.84226 20.6611 5.86298C20.5325 4.91166 20.2974 4.40789 19.9367 4.04908C19.5761 3.69027 19.0698 3.45633 18.1137 3.32842C17.1294 3.19676 15.8249 3.1947 13.9545 3.1947H10.0455C8.17507 3.1947 6.87058 3.19676 5.88634 3.32842C4.93021 3.45633 4.42389 3.69027 4.06326 4.04908C3.70263 4.40789 3.4675 4.91166 3.33895 5.86298C3.20662 6.84226 3.20455 8.14017 3.20455 10.0011V11.9458C3.20455 12.8653 3.20508 13.5061 3.23948 14.0078C3.27328 14.5006 3.33648 14.7877 3.42772 15.0068C3.72528 15.7216 4.29603 16.2895 5.01441 16.5855C5.38829 16.7396 5.89873 16.7959 7.12123 16.8053C7.66095 16.8095 8.09508 17.2482 8.09088 17.7852C8.08668 18.3222 7.64576 18.7541 7.10604 18.75C5.93651 18.7409 5.04583 18.7034 4.26643 18.3822C3.06914 17.8888 2.11789 16.9423 1.62195 15.751C1.41563 15.2554 1.33005 14.732 1.28946 14.1401C1.24999 13.5645 1.24999 12.8572 1.25 11.9804V11.9804V9.93V9.92998C1.24997 8.15695 1.24995 6.72784 1.40183 5.60385C1.55952 4.43689 1.89687 3.45434 2.68118 2.67397C3.4655 1.89361 4.45303 1.55796 5.6259 1.40107C6.75558 1.24995 8.19193 1.24997 9.97393 1.25H9.97395H14.026H14.0261Z" fill="#141B34"/>
</svg>
