<svg width="24" height="24" viewBox="0 0 24 24" fill="none" xmlns="http://www.w3.org/2000/svg">
<path d="M6.66601 10.2181V4.24994C6.66601 2.86923 7.78529 1.74994 9.16601 1.74994C10.5467 1.74994 11.666 2.86923 11.666 4.24994V8.85736L14.1043 9.23581L14.108 9.23639L14.1306 9.23976C15.0726 9.38106 15.8158 9.49254 16.4068 9.62093C17.0075 9.75141 17.5095 9.91072 17.9506 10.175C19.2281 10.9403 20.25 12.1632 20.25 13.9735C20.25 15.0605 19.9875 15.8445 19.4727 17.3823L19.4727 17.3824C19.1188 18.4447 18.7216 19.6358 18.3418 20.1888C17.718 21.0972 16.7978 21.7605 15.7388 22.065C15.0941 22.2503 12.6741 22.2502 11.5544 22.25C9.93867 22.2505 8.89712 22.2508 7.9854 21.8522C7.57436 21.6725 7.19085 21.4355 6.8463 21.1482C6.08206 20.511 5.61655 19.5792 4.8944 18.1338C4.5825 17.5101 4.23662 16.8183 4.06139 16.3823C3.87909 15.9287 3.76179 15.506 3.75103 15.0477C3.74216 14.6694 3.79057 14.292 3.89464 13.9283C4.02073 13.4875 4.24093 13.1082 4.53182 12.7153C4.81144 12.3376 5.18574 11.9099 5.645 11.385L6.66601 10.2181Z" fill="#141B34"/>
</svg>
