<svg width="24" height="24" viewBox="0 0 24 24" fill="none" xmlns="http://www.w3.org/2000/svg">
<path d="M6.49963 11.2495C3.60014 11.2495 1.24963 13.6 1.24963 16.4995C1.24963 19.399 3.60014 21.7495 6.49963 21.7495C9.39913 21.7495 11.7496 19.399 11.7496 16.4995C11.7496 13.6 9.39913 11.2495 6.49963 11.2495Z" fill="#141B34"/>
<path d="M19.5 15C17.567 15 16 16.567 16 18.5C16 20.433 17.567 22 19.5 22C21.433 22 23 20.433 23 18.5C23 16.567 21.433 15 19.5 15Z" fill="#141B34"/>
<path fill-rule="evenodd" clip-rule="evenodd" d="M13.3111 8.01955C13.0171 7.96019 12.712 8.03591 12.4799 8.22584C12.2478 8.41577 12.1132 8.69985 12.1132 8.99976V9.23205C12.1132 9.60733 12.1132 9.79497 12.0049 9.85084C11.8966 9.90672 11.7377 9.79372 11.4198 9.56773C10.0317 8.5807 8.33386 7.99976 6.49988 7.99976C4.58749 7.99976 2.82001 8.63251 1.3993 9.69965C0.957709 10.0313 0.868619 10.6582 1.20031 11.0998C1.532 11.5414 2.15886 11.6305 2.60045 11.2988C3.68672 10.4829 5.03544 9.99976 6.49988 9.99976C8.97856 9.99976 11.1348 11.3868 12.232 13.4318C12.7217 14.3446 12.9999 15.3882 12.9999 16.4998C12.9999 16.6361 12.9952 16.7755 12.9907 16.9129C12.983 17.1422 12.9756 17.3658 12.9902 17.5605C13.0474 18.3244 13.5539 18.8785 14.3187 18.9731L14.3266 18.974C14.5213 18.9974 14.6187 19.0091 14.6861 18.9487C14.7536 18.8882 14.7524 18.7754 14.7501 18.5496L14.7498 18.4998C14.7498 15.8764 16.8765 13.7498 19.4998 13.7498C20.1931 13.7498 20.8518 13.8983 21.4456 14.1653C21.7633 14.3081 21.9221 14.3795 22.0145 14.317C22.1069 14.2544 22.1001 14.0941 22.0865 13.7736C22.0727 13.4492 22.0519 13.1491 22.0203 12.8722C22.0123 12.8021 21.9526 12.7498 21.8821 12.7498L20.1131 12.7498C19.6989 12.7498 19.3631 12.414 19.3631 11.9998C19.3631 11.5855 19.6989 11.2498 20.1131 11.2498L20.9645 11.2498C21.255 11.2498 21.4003 11.2498 21.456 11.1407C21.5117 11.0317 21.433 10.923 21.2756 10.7056C21.2555 10.6778 21.2349 10.6502 21.2138 10.6227C20.7071 9.96523 20.0437 9.59254 19.2632 9.32488C18.5289 9.07308 17.5968 8.88489 16.4812 8.65968L13.3111 8.01955Z" fill="#141B34"/>
<path fill-rule="evenodd" clip-rule="evenodd" d="M11.2622 2.02868C11.7986 1.89734 12.34 2.22574 12.4713 2.76218L13.7968 8.1763C13.9316 8.6344 14 9.10948 14 9.58706V12.5C14 13.0523 13.5523 13.5 13 13.5C12.4477 13.5 12 13.0523 12 12.5V9.58706C12 9.29509 11.9574 9.00468 11.8735 8.72502C11.8686 8.70862 11.8641 8.69211 11.86 8.67548L10.5287 3.23779C10.3974 2.70135 10.7258 2.16001 11.2622 2.02868ZM4 1.99999C4.55228 1.99999 5 2.4477 5 2.99999V8.99999C5 9.55227 4.55228 9.99999 4 9.99999C3.44772 9.99999 3 9.55227 3 8.99999V2.99999C3 2.4477 3.44772 1.99999 4 1.99999Z" fill="#141B34"/>
<path fill-rule="evenodd" clip-rule="evenodd" d="M2 3C2 2.44772 2.44772 2 3 2H13C13.5523 2 14 2.44772 14 3C14 3.55228 13.5523 4 13 4H3C2.44772 4 2 3.55228 2 3Z" fill="#141B34"/>
<path fill-rule="evenodd" clip-rule="evenodd" d="M20 7C19.4477 7 19 7.44772 19 8V9.5C19 10.0523 18.5523 10.5 18 10.5C17.4477 10.5 17 10.0523 17 9.5V8C17 6.34315 18.3431 5 20 5C20.5523 5 21 5.44772 21 6C21 6.55228 20.5523 7 20 7Z" fill="#141B34"/>
<path fill-rule="evenodd" clip-rule="evenodd" d="M7 2C7.55228 2 8 2.44772 8 3V9C8 9.55229 7.55228 10 7 10C6.44772 10 6 9.55229 6 9V3C6 2.44772 6.44772 2 7 2Z" fill="#141B34"/>
</svg>
