<svg width="24" height="24" viewBox="0 0 24 24" fill="none" xmlns="http://www.w3.org/2000/svg">
<path fill-rule="evenodd" clip-rule="evenodd" d="M4 15C7.86599 15 11 18.134 11 22C11 22.5523 11.4477 23 12 23C12.5523 23 13 22.5523 13 22C13 17.0294 8.97056 13 4 13C3.44771 13 3 13.4477 3 14C3 14.5523 3.44771 15 4 15ZM4 18.2C6.09868 18.2 7.8 19.9013 7.8 22C7.8 22.5523 8.24772 23 8.8 23C9.35228 23 9.8 22.5523 9.8 22C9.8 18.7967 7.20325 16.2 4 16.2C3.44771 16.2 3 16.6477 3 17.2C3 17.7523 3.44771 18.2 4 18.2ZM4 21.4C4.33137 21.4 4.6 21.6686 4.6 22C4.6 22.5523 5.04772 23 5.6 23C6.15228 23 6.6 22.5523 6.6 22C6.6 20.5641 5.43594 19.4 4 19.4C3.44771 19.4 3 19.8477 3 20.4C3 20.9523 3.44771 21.4 4 21.4Z" fill="#141B34"/>
<path fill-rule="evenodd" clip-rule="evenodd" d="M12.4365 1H12.5634C14.1533 0.999979 15.4351 0.999962 16.4541 1.12041C17.5087 1.24507 18.4111 1.51053 19.172 2.13497C19.4251 2.34273 19.6573 2.57486 19.865 2.82801C20.4895 3.58888 20.7549 4.49132 20.8796 5.5459C21 6.56489 21 7.84672 21 9.4366V17C21 17.0392 21 17.0777 21 17.1157C21.0002 17.9334 21.0004 18.4906 20.9039 18.9755C20.5094 20.9589 18.9589 22.5094 16.9755 22.9039C16.4907 23.0004 15.9334 23.0002 15.1157 23C15.0777 23 15.0392 23 15 23C14.4477 23 14 22.5523 14 22C14 21.4477 14.4477 21 15 21C15.9772 21 16.3198 20.9952 16.5853 20.9424C17.7753 20.7056 18.7056 19.7753 18.9424 18.5853C18.9952 18.3198 19 17.9772 19 17V9.50003C19 7.83178 18.9984 6.66851 18.8934 5.78067C18.7911 4.91491 18.6026 4.44229 18.319 4.09681C18.1944 3.94492 18.0551 3.80564 17.9032 3.68098C17.5577 3.39745 17.0851 3.20892 16.2193 3.10658C15.3315 3.00164 14.1682 3 12.5 3C10.8317 3 9.66845 3.00164 8.78061 3.10658C7.91485 3.20892 7.44223 3.39745 7.09675 3.68098C6.94485 3.80564 6.80558 3.94491 6.68092 4.09681C6.39739 4.44229 6.20886 4.91491 6.10652 5.78067C6.00158 6.66851 5.99994 7.83178 5.99994 9.50003V11C5.99994 11.5523 5.55222 12 4.99994 12C4.44766 12 3.99994 11.5523 3.99994 11L3.99994 9.4366C3.99992 7.84672 3.9999 6.56489 4.12035 5.5459C4.24501 4.49132 4.51047 3.58889 5.13491 2.82801C5.34267 2.57486 5.5748 2.34273 5.82795 2.13497C6.58882 1.51053 7.49126 1.24507 8.54584 1.12041C9.56483 0.999962 10.8467 0.999979 12.4365 1Z" fill="#141B34"/>
</svg>
