<svg width="24" height="24" viewBox="0 0 24 24" fill="none" xmlns="http://www.w3.org/2000/svg">
<path d="M1.24994 6.03137C1.24993 6.70474 1.24992 7.25545 1.28649 7.70301C1.32434 8.16627 1.40508 8.58467 1.60417 8.97541C1.91576 9.58694 2.41294 10.0841 3.02447 10.3957C3.41521 10.5948 3.83361 10.6755 4.29687 10.7134C4.74442 10.75 5.29511 10.7499 5.96847 10.7499L5.9685 10.7499L18.0314 10.7499L18.0314 10.7499C18.7048 10.7499 19.2555 10.75 19.703 10.7134C20.1663 10.6755 20.5847 10.5948 20.9754 10.3957C21.5869 10.0841 22.0841 9.58694 22.3957 8.97541C22.5948 8.58467 22.6755 8.16627 22.7134 7.70301C22.75 7.25545 22.7499 6.70474 22.7499 6.03138L22.7499 5.9685C22.7499 5.29513 22.75 4.74443 22.7134 4.29687C22.6755 3.83361 22.5948 3.41521 22.3957 3.02447C22.0841 2.41294 21.5869 1.91576 20.9754 1.60417C20.5847 1.40508 20.1663 1.32434 19.703 1.28649C19.2554 1.24992 18.7047 1.24993 18.0314 1.24994L5.96852 1.24994L5.96851 1.24994C5.29514 1.24993 4.74443 1.24992 4.29687 1.28649C3.83361 1.32434 3.41521 1.40508 3.02447 1.60417C2.41294 1.91576 1.91576 2.41294 1.60417 3.02447C1.40508 3.41521 1.32434 3.83361 1.28649 4.29687C1.24992 4.74443 1.24993 5.29514 1.24994 5.96851L1.24994 5.96852L1.24994 6.03136L1.24994 6.03137Z" fill="#141B34"/>
<path d="M3.31233 18.3914C3.25104 17.7594 3.24994 16.9392 3.24994 15.7499C3.24994 15.1977 2.80223 14.7499 2.24994 14.7499C1.69766 14.7499 1.24994 15.1977 1.24994 15.7499L1.24994 15.8004L1.24994 15.8004C1.24992 16.927 1.24991 17.8446 1.32167 18.5844C1.39599 19.3507 1.5546 20.0312 1.93968 20.6441C2.29936 21.2165 2.78338 21.7005 3.3558 22.0602C3.96865 22.4453 4.64913 22.6039 5.41544 22.6782C6.15533 22.75 7.0729 22.75 8.19946 22.7499L15.8004 22.7499C16.927 22.75 17.8445 22.75 18.5844 22.6782C19.3507 22.6039 20.0312 22.4453 20.6441 22.0602C21.2165 21.7005 21.7005 21.2165 22.0602 20.6441C22.4453 20.0312 22.6039 19.3507 22.6782 18.5844C22.75 17.8446 22.75 16.927 22.7499 15.8005L22.7499 15.8004L22.7499 15.7499C22.7499 15.1977 22.3022 14.7499 21.7499 14.7499C21.1977 14.7499 20.7499 15.1977 20.7499 15.7499C20.7499 16.9392 20.7488 17.7594 20.6875 18.3914C20.6278 19.008 20.5181 19.3391 20.3667 19.58C20.1669 19.898 19.898 20.1669 19.58 20.3667C19.3391 20.5181 19.008 20.6278 18.3914 20.6875C17.7594 20.7488 16.9392 20.7499 15.7499 20.7499L8.24994 20.7499C7.06072 20.7499 6.24047 20.7488 5.6085 20.6876C4.99192 20.6278 4.66079 20.5181 4.41986 20.3667C4.10185 20.1669 3.83295 19.898 3.63313 19.58C3.48174 19.3391 3.37213 19.008 3.31233 18.3914Z" fill="#141B34"/>
<path d="M11.9999 8.99994C11.4477 8.99994 10.9999 9.44765 10.9999 9.99994L10.9999 15L10.1962 15L10.1775 15C10.1072 14.9998 9.98201 14.9995 9.87279 15.0136L9.86917 15.0141C9.79027 15.0241 9.32071 15.0836 9.09424 15.5543C8.86676 16.027 9.11714 16.4327 9.15753 16.4982L9.15984 16.5019C9.21716 16.5955 9.29568 16.6931 9.34073 16.7491L9.34074 16.7491L9.3527 16.764C9.40919 16.8345 9.47383 16.9167 9.54451 17.0067C9.77845 17.3044 10.0788 17.6867 10.3712 18.0085C10.5639 18.2205 10.7833 18.441 11.0115 18.6149C11.2048 18.7621 11.5599 18.9999 11.9999 18.9999C12.44 18.9999 12.795 18.7621 12.9883 18.6149C13.2166 18.441 13.436 18.2205 13.6287 18.0085C13.921 17.6867 14.2214 17.3044 14.4554 17.0067C14.5261 16.9167 14.5907 16.8345 14.6472 16.764L14.6591 16.7491C14.7042 16.6931 14.7827 16.5955 14.84 16.5019L14.8423 16.4982C14.8827 16.4327 15.1331 16.027 14.9056 15.5543C14.6792 15.0836 14.2096 15.0241 14.1307 15.0141L14.1271 15.0136C14.0179 14.9995 13.8927 14.9998 13.8224 15L13.8037 15L12.9999 15L12.9999 9.99994C12.9999 9.44765 12.5522 8.99994 11.9999 8.99994Z" fill="#141B34"/>
</svg>
