<svg width="24" height="24" viewBox="0 0 24 24" fill="none" xmlns="http://www.w3.org/2000/svg">
<path fill-rule="evenodd" clip-rule="evenodd" d="M11.9012 6.75C12.4535 6.75 12.9012 7.19772 12.9012 7.75V7.83327C13.5904 8.0297 14.1984 8.42925 14.5972 8.99566C14.9152 9.44721 14.8069 10.0711 14.3554 10.389C13.9038 10.707 13.28 10.5988 12.962 10.1472C12.8092 9.9302 12.4352 9.69463 11.9012 9.69463C11.0405 9.69463 10.749 10.2147 10.749 10.4086C10.749 10.5446 10.7704 10.6115 10.7817 10.6375C10.7893 10.6548 10.7974 10.6684 10.8262 10.6894C10.9127 10.7523 11.1925 10.8778 11.9012 10.8778C12.7488 10.8778 13.5909 11.0026 14.2377 11.4579C14.9612 11.9673 15.249 12.7446 15.249 13.5917C15.249 14.5444 14.8133 15.288 14.1054 15.7469C13.7405 15.9835 13.3266 16.1306 12.9012 16.2141V16.25C12.9012 16.8023 12.4535 17.25 11.9012 17.25C11.3489 17.25 10.9012 16.8023 10.9012 16.25V16.1846C10.2988 16.0347 9.75171 15.7487 9.33216 15.3434C8.93494 14.9597 8.92399 14.3266 9.3077 13.9294C9.69141 13.5322 10.3245 13.5212 10.7217 13.905C10.9356 14.1116 11.3527 14.3057 11.9012 14.3057C12.4484 14.3057 12.8174 14.1984 13.0174 14.0688C13.1592 13.9768 13.249 13.8634 13.249 13.5917C13.249 13.2147 13.1455 13.1349 13.0864 13.0934C12.9507 12.9978 12.6188 12.8778 11.9012 12.8778C11.0446 12.8778 10.2483 12.742 9.65007 12.307C8.98112 11.8206 8.74902 11.1077 8.74902 10.4086C8.74902 9.08338 9.74387 8.17449 10.9012 7.83859V7.75C10.9012 7.19771 11.3489 6.75 11.9012 6.75Z" fill="#141B34"/>
<path fill-rule="evenodd" clip-rule="evenodd" d="M3.20356 11.0242C3.20356 10.4844 2.76602 10.0469 2.22628 10.0469C1.68654 10.0469 1.249 10.4844 1.249 11.0242C1.249 11.1077 1.24982 11.191 1.25146 11.2742C1.2621 11.8138 1.70818 12.2427 2.24781 12.232C2.78745 12.2214 3.21628 11.7753 3.20565 11.2357C3.20426 11.1653 3.20356 11.0948 3.20356 11.0242ZM3.55447 13.7332C3.41635 13.2115 2.88141 12.9005 2.35964 13.0386C1.83788 13.1767 1.52687 13.7117 1.665 14.2334C1.70774 14.3949 1.75362 14.555 1.80256 14.7137C1.9616 15.2295 2.50865 15.5187 3.02442 15.3597C3.54019 15.2006 3.82938 14.6536 3.67034 14.1378C3.62913 14.0042 3.59049 13.8693 3.55447 13.7332ZM4.69865 16.433C4.41898 15.9714 3.81804 15.8239 3.35641 16.1036C2.89478 16.3832 2.74727 16.9842 3.02694 17.4458C3.11369 17.589 3.20325 17.7301 3.29554 17.869C3.59428 18.3185 4.20087 18.4407 4.65039 18.142C5.09991 17.8432 5.22215 17.2367 4.92341 16.7871C4.84624 16.671 4.77129 16.553 4.69865 16.433ZM6.5626 18.6743C6.15805 18.317 5.54045 18.3553 5.18317 18.7599C4.82588 19.1644 4.8642 19.782 5.26875 20.1393C5.39498 20.2508 5.52362 20.3593 5.65455 20.4647C6.07496 20.8032 6.69017 20.7368 7.02866 20.3164C7.36715 19.896 7.30074 19.2808 6.88033 18.9423C6.77266 18.8556 6.66672 18.7663 6.5626 18.6743ZM9.00449 20.2037C8.50504 19.9991 7.93429 20.2381 7.72967 20.7376C7.52505 21.237 7.76406 21.8078 8.26351 22.0124C8.42057 22.0767 8.57942 22.1372 8.73996 22.1936C9.24914 22.3727 9.80705 22.1051 9.98609 21.5959C10.1651 21.0867 9.8975 20.5288 9.38832 20.3497C9.25917 20.3043 9.1312 20.2556 9.00449 20.2037ZM11.7938 20.7943C11.2542 20.7802 10.8054 21.2062 10.7914 21.7458C10.7773 22.2853 11.2033 22.7341 11.7428 22.7482C11.828 22.7504 11.9135 22.7515 11.9991 22.7515C12.044 22.7515 12.0881 22.7485 12.1314 22.7426C16.8234 22.5598 21.0786 19.4651 22.3688 14.7956C23.9613 9.03181 20.4139 3.14835 14.5251 1.61816C9.00305 0.183264 3.30807 3.06182 1.31543 8.18008C1.20206 8.47126 1.23478 8.7991 1.40344 9.06215C1.57211 9.32519 1.8564 9.49172 2.16833 9.5102L4.68922 9.65955C5.22802 9.69147 5.69067 9.28057 5.72259 8.74178C5.75451 8.20298 5.34361 7.74033 4.80482 7.70841L3.74051 7.64536C5.73381 4.26136 9.91849 2.44061 14.0336 3.5099C18.9196 4.77953 21.7723 9.61549 20.4848 14.275C19.418 18.1359 15.8301 20.7306 11.8433 20.7954C11.8268 20.7951 11.8103 20.7947 11.7938 20.7943Z" fill="#141B34"/>
</svg>
