<svg width="24" height="24" viewBox="0 0 24 24" fill="none" xmlns="http://www.w3.org/2000/svg">
<path fill-rule="evenodd" clip-rule="evenodd" d="M8.5 4.25C7.11929 4.25 6 5.36929 6 6.75V9.5C6 9.91421 5.66421 10.25 5.25 10.25C4.83579 10.25 4.5 9.91421 4.5 9.5V6.75C4.5 4.54086 6.29086 2.75 8.5 2.75C10.7091 2.75 12.5 4.54086 12.5 6.75V9.5C12.5 9.91421 12.1642 10.25 11.75 10.25C11.3358 10.25 11 9.91421 11 9.5V6.75C11 5.36929 9.88071 4.25 8.5 4.25Z" fill="#141B34"/>
<path fill-rule="evenodd" clip-rule="evenodd" d="M15.5 4.25C15.0824 4.25 14.6909 4.35176 14.3466 4.53119C13.9793 4.72264 13.5263 4.58006 13.3349 4.21274C13.1434 3.84543 13.286 3.39246 13.6533 3.20102C14.2066 2.91267 14.8354 2.75 15.5 2.75C17.7091 2.75 19.5 4.54086 19.5 6.75V8.85416C20.1798 8.94732 20.7704 9.13173 21.2828 9.52492C21.5428 9.72443 21.7755 9.95715 21.975 10.2171C22.4019 10.7734 22.5827 11.4219 22.6678 12.1762C22.75 12.9057 22.75 13.8204 22.75 14.9548V15.0452C22.75 16.1796 22.75 17.0943 22.6678 17.8238C22.5827 18.5781 22.4019 19.2266 21.975 19.7829C21.7755 20.0429 21.5428 20.2756 21.2828 20.4751C20.7677 20.8703 20.1737 21.0546 19.4893 21.1473C18.8202 21.2379 17.9996 21.2482 17.0011 21.2498C16.5869 21.2504 16.2506 20.9151 16.25 20.5009C16.2493 20.0867 16.5846 19.7504 16.9988 19.7498C18.0169 19.7482 18.7353 19.7357 19.288 19.6609C19.8256 19.588 20.1364 19.464 20.3697 19.285C20.5257 19.1653 20.6653 19.0257 20.785 18.8697C20.9781 18.6181 21.1072 18.2762 21.1772 17.6557C21.2489 17.0201 21.25 16.1902 21.25 15C21.25 13.8098 21.2489 12.9799 21.1772 12.3443C21.1072 11.7238 20.9781 11.3819 20.785 11.1303C20.6653 10.9743 20.5257 10.8347 20.3697 10.715C20.1364 10.536 19.8256 10.412 19.288 10.3391C18.7353 10.2643 18.0169 10.2518 16.9988 10.2502C16.5846 10.2496 16.2493 9.9133 16.25 9.49909C16.2506 9.08487 16.5869 8.74961 17.0011 8.75025C17.3562 8.7508 17.6887 8.75245 18 8.75843V6.75C18 5.36929 16.8807 4.25 15.5 4.25Z" fill="#141B34"/>
<path fill-rule="evenodd" clip-rule="evenodd" d="M9.54521 8.75H9.5452H9.54519H7.45481H7.45481H7.4548C6.32039 8.74999 5.40571 8.74998 4.67622 8.83221C3.92195 8.91725 3.27343 9.09808 2.71715 9.52493C2.45715 9.72443 2.22443 9.95715 2.02493 10.2171C1.59808 10.7734 1.41725 11.4219 1.33221 12.1762C1.24998 12.9057 1.24999 13.9108 1.25 15.0452V15.0452V15.0452C1.24999 16.1796 1.24998 17.0943 1.33221 17.8238C1.41725 18.5781 1.59808 19.2266 2.02493 19.7829C2.22443 20.0429 2.45715 20.2756 2.71715 20.4751C3.27343 20.9019 3.92195 21.0828 4.67622 21.1678C5.4057 21.25 6.32037 21.25 7.45477 21.25H7.4548H9.5452H9.54523C10.6796 21.25 11.5943 21.25 12.3238 21.1678C13.0781 21.0828 13.7266 20.9019 14.2829 20.4751C14.5429 20.2756 14.7756 20.0429 14.9751 19.7829C15.4019 19.2266 15.5828 18.5781 15.6678 17.8238C15.75 17.0943 15.75 16.1796 15.75 15.0452V15.0452C15.75 13.9108 15.75 12.9057 15.6678 12.1762C15.5828 11.4219 15.4019 10.7734 14.9751 10.2171C14.7756 9.95715 14.5429 9.72443 14.2829 9.52493C13.7266 9.09808 13.0781 8.91725 12.3238 8.83221C11.5943 8.74998 10.6796 8.74999 9.54521 8.75ZM11.3356 13.671C11.7061 13.4857 11.8562 13.0352 11.671 12.6648C11.4857 12.2943 11.0352 12.1441 10.6648 12.3293C9.49462 12.9144 8.53173 14.0406 7.88987 14.9392C7.76548 15.1134 7.6506 15.2826 7.54604 15.4427C7.39437 15.2312 7.2395 15.0538 7.093 14.9073C6.90146 14.7158 6.55963 14.4414 6.33558 14.3293C5.96509 14.1441 5.51459 14.2943 5.32934 14.6648C5.14568 15.0321 5.29174 15.4781 5.65536 15.6662C5.65536 15.6662 5.91137 15.847 6.03234 15.968C6.27233 16.208 6.57963 16.6103 6.78865 17.2373C6.88458 17.5251 7.14441 17.7268 7.447 17.7483C7.7495 17.7698 8.03531 17.6067 8.17102 17.3355C8.2124 17.2581 8.33357 17.032 8.41486 16.8916C8.57786 16.61 8.815 16.2247 9.11047 15.8111C9.7186 14.9597 10.5057 14.0859 11.3356 13.671Z" fill="#141B34"/>
<path d="M15.3072 21.25H16.5452C17.6796 21.25 18.5943 21.25 19.3238 21.1678C20.078 21.0828 20.7266 20.9019 21.2828 20.4751C21.5428 20.2756 21.7756 20.0429 21.9751 19.7829C22.4019 19.2266 22.5827 18.5781 22.6678 17.8238C22.75 17.0943 22.75 16.1796 22.75 15.0452C22.75 13.9108 22.75 12.9057 22.6678 12.1762C22.5827 11.4219 22.4019 10.7734 21.9751 10.2171C21.7756 9.95715 21.5428 9.72443 21.2828 9.52493C20.7704 9.13169 20.1796 8.94725 19.5 8.85416V6.75C19.5 4.54086 17.7091 2.75 15.5 2.75C14.4721 2.75 13.5348 3.13772 12.8262 3.77489C13.128 4.21285 13.365 4.6989 13.5233 5.2192C13.9806 4.62953 14.696 4.25 15.5 4.25C16.8807 4.25 18 5.36929 18 6.75V8.75847C17.561 8.74999 17.0773 8.74999 16.5452 8.75H15.3072C15.5491 8.96337 15.7701 9.19984 15.9668 9.4562C16.5884 10.2664 16.8123 11.1705 16.9099 12.0362C17.0001 12.8361 17 14.0252 17 15.1077C17 16.1903 17.0001 17.164 16.9099 17.9638C16.8123 18.8295 16.5884 19.7336 15.9668 20.5438C15.7701 20.8002 15.5491 21.0366 15.3072 21.25Z" fill="#141B34"/>
</svg>
