<svg width="24" height="24" viewBox="0 0 24 24" fill="none" xmlns="http://www.w3.org/2000/svg">
<path d="M10.8093 10.7365C11.048 10.7365 11.2415 10.5479 11.2415 10.3152V3.04685C11.2415 2.33076 11.822 1.75024 12.5381 1.75024C13.2542 1.75024 13.8347 2.33076 13.8347 3.04685V10.3152C13.8347 10.5479 14.0282 10.7365 14.2669 10.7365C14.5056 10.7365 14.6991 10.5479 14.6991 10.3152V8.35019C14.6991 8.06118 14.6991 7.91668 14.8005 7.82711C14.9019 7.73755 15.0338 7.75396 15.2976 7.78676C15.9803 7.87164 16.7173 8.11937 17.1822 8.68304C17.2321 8.74348 17.257 8.77371 17.2747 8.82288C17.2923 8.87205 17.2923 8.9194 17.2923 9.01408V11.4385C17.2923 11.6712 17.4858 11.8598 17.7245 11.8598C17.9632 11.8598 18.1567 11.6712 18.1567 11.4385V9.68258C18.1567 9.34677 18.1567 9.17886 18.2947 9.09032C18.4327 9.00178 18.5655 9.06266 18.831 9.18442C19.748 9.60498 20.5 10.5212 20.5 11.5002L20.5 14.5121C20.5003 16.358 20.5005 17.4883 20.1639 18.4225C19.5731 20.0618 18.2621 21.3457 16.6027 21.9222C15.6574 22.2507 14.513 22.2505 12.6268 22.2502C11.565 22.2503 10.6507 22.2504 10.0414 22.1211C8.97624 21.8951 7.99531 21.3802 7.21051 20.6329C6.76124 20.2052 6.40024 19.6734 5.81235 18.8073L5.17578 17.8697C4.689 17.1528 4.29344 16.5702 4.01761 16.065C3.73104 15.5402 3.53969 15.0404 3.50651 14.4819C3.48749 14.1618 3.5102 13.8407 3.57406 13.5264C3.68545 12.9782 3.94502 12.5097 4.30239 12.0292C4.63461 11.5825 5.1469 11.0167 5.70663 10.3986L5.90391 10.2092C6.33776 9.79266 6.55469 9.58441 6.73706 9.66214C6.91943 9.73987 6.91943 10.0406 6.91943 10.642V14.2467C6.91943 14.4794 7.11294 14.668 7.35164 14.668C7.59034 14.668 7.78384 14.4794 7.78384 14.2467V5.0468C7.78384 4.33071 8.36435 3.75019 9.08045 3.75019C9.79655 3.75019 10.3771 4.3307 10.3771 5.0468V10.3152C10.3771 10.5479 10.5706 10.7365 10.8093 10.7365Z" fill="#141B34"/>
</svg>
