<svg width="24" height="24" viewBox="0 0 24 24" fill="none" xmlns="http://www.w3.org/2000/svg">
<path fill-rule="evenodd" clip-rule="evenodd" d="M12.0572 1.75012C14.2479 1.75011 15.9686 1.7501 17.312 1.93072C18.6886 2.1158 19.7809 2.50284 20.6391 3.36104C21.4973 4.21923 21.8843 5.31149 22.0694 6.68815C22.25 8.03156 22.25 9.86658 22.25 12.0573V12.0573C22.25 14.248 22.25 15.9687 22.0694 17.3121C21.8843 18.6888 21.4973 19.781 20.6391 20.6392C19.7809 21.4974 18.6886 21.8844 17.312 22.0695C15.9686 22.2501 14.1335 22.2501 11.9428 22.2501H11.9428H11.9428C9.7521 22.2501 8.03144 22.2501 6.68802 22.0695C5.31137 21.8844 4.21911 21.4974 3.36091 20.6392C2.50272 19.781 2.11568 18.6888 1.93059 17.3121C1.74998 15.9687 1.74999 14.248 1.75 12.0573V12.0573C1.74999 9.86659 1.74998 8.03156 1.93059 6.68815C2.11568 5.31149 2.50272 4.21923 3.36091 3.36104C4.21911 2.50284 5.31137 2.1158 6.68802 1.93072C8.03144 1.7501 9.86647 1.75011 12.0572 1.75012ZM14.25 13.2001C14.25 12.1232 15.123 11.2501 16.2 11.2501H18C18.4142 11.2501 18.75 11.5859 18.75 12.0001C18.75 12.4143 18.4142 12.7501 18 12.7501H16.2C15.9515 12.7501 15.75 12.9516 15.75 13.2001V13.8001C15.75 14.0487 15.9515 14.2501 16.2 14.2501H16.8C17.877 14.2501 18.75 15.1232 18.75 16.2001V16.8001C18.75 17.8771 17.877 18.7501 16.8 18.7501H15C14.5858 18.7501 14.25 18.4143 14.25 18.0001C14.25 17.5859 14.5858 17.2501 15 17.2501H16.8C17.0485 17.2501 17.25 17.0487 17.25 16.8001V16.2001C17.25 15.9516 17.0485 15.7501 16.8 15.7501H16.2C15.123 15.7501 14.25 14.8771 14.25 13.8001V13.2001ZM8.5 11.2501C8.08579 11.2501 7.75 11.5859 7.75 12.0001C7.75 12.4143 8.08579 12.7501 8.5 12.7501H9.75V18.0001C9.75 18.4143 10.0858 18.7501 10.5 18.7501C10.9142 18.7501 11.25 18.4143 11.25 18.0001V12.7501H12.5C12.9142 12.7501 13.25 12.4143 13.25 12.0001C13.25 11.5859 12.9142 11.2501 12.5 11.2501H8.5Z" fill="#141B34"/>
</svg>
