<svg width="24" height="24" viewBox="0 0 24 24" fill="none" xmlns="http://www.w3.org/2000/svg">
<path fill-rule="evenodd" clip-rule="evenodd" d="M17.705 7.25127C19.0022 7.52984 20.1299 7.90757 20.98 8.37124C21.8937 8.8696 22.75 9.61816 22.75 10.6599C22.75 11.444 22.2561 12.0614 21.668 12.5085C21.0681 12.9644 20.2475 13.3429 19.3006 13.6473C17.3984 14.2589 14.8174 14.625 12 14.625C9.18262 14.625 6.60156 14.2589 4.69938 13.6473C3.75252 13.3429 2.93185 12.9644 2.33199 12.5085C1.74387 12.0614 1.25 11.444 1.25 10.6599C1.25 9.61816 2.10629 8.8696 3.02 8.37124C3.87011 7.90757 4.99781 7.52984 6.29498 7.25127C6.32748 7.05618 6.37268 6.86927 6.41355 6.70026L6.42752 6.6424C7.01996 4.18024 9.21298 2.12593 12 2.12593C14.787 2.12593 16.98 4.18025 17.5725 6.6424L17.5865 6.70026L17.5865 6.70029C17.6273 6.86929 17.6725 7.05619 17.705 7.25127ZM8.29249 7.07822C8.71018 5.34231 10.2257 4.01481 12 4.01481C13.7743 4.01481 15.2898 5.34231 15.7075 7.07822C15.8081 7.49635 15.8366 7.64503 15.8332 7.75612L15.8331 7.75803C15.8319 7.79755 15.8299 7.86281 15.7043 8.03523C15.6853 8.06135 15.6045 8.1461 15.3833 8.25126C15.1697 8.35275 14.879 8.4477 14.5153 8.52619C13.7878 8.68316 12.8717 8.75249 11.9346 8.73416C10.9988 8.71587 10.0882 8.6111 9.37594 8.44328C9.01886 8.35915 8.73647 8.26492 8.53454 8.17129C8.34875 8.08515 8.29086 8.02857 8.29086 8.02857C8.17006 7.86113 8.1681 7.79704 8.1669 7.75803L8.16685 7.75612C8.16335 7.64503 8.19188 7.49635 8.29249 7.07822Z" fill="#141B34"/>
<path fill-rule="evenodd" clip-rule="evenodd" d="M7.27498 12.9137C7.80601 13.0655 8.11351 13.6189 7.96178 14.15L5.96178 21.15C5.81006 21.681 5.25657 21.9885 4.72554 21.8368C4.1945 21.6851 3.88701 21.1316 4.03873 20.6005L6.03873 13.6005C6.19046 13.0695 6.74394 12.762 7.27498 12.9137ZM16.7255 12.9137C17.2566 12.762 17.8101 13.0695 17.9618 13.6005L19.9618 20.6005C20.1135 21.1316 19.806 21.6851 19.275 21.8368C18.7439 21.9885 18.1905 21.681 18.0387 21.15L16.0387 14.15C15.887 13.6189 16.1945 13.0655 16.7255 12.9137Z" fill="#141B34"/>
<path fill-rule="evenodd" clip-rule="evenodd" d="M10.5 18.875C10.5 18.0466 11.1686 17.375 11.9933 17.375H12.0067C12.8314 17.375 13.5 18.0466 13.5 18.875C13.5 19.7034 12.8314 20.375 12.0067 20.375H11.9933C11.1686 20.375 10.5 19.7034 10.5 18.875Z" fill="#141B34"/>
</svg>
