<svg width="24" height="24" viewBox="0 0 24 24" fill="none" xmlns="http://www.w3.org/2000/svg">
<path fill-rule="evenodd" clip-rule="evenodd" d="M18.8088 11.1912C17.2602 9.64256 14.7729 9.60392 13.1781 11.0753C12.7721 11.4497 12.1395 11.4243 11.765 11.0183C11.3905 10.6124 11.416 9.97975 11.8219 9.60526C14.2024 7.40914 17.9125 7.46636 20.2231 9.77694C22.5923 12.1462 22.5923 15.9875 20.2231 18.3568L17.3568 21.223C14.9875 23.5923 11.1462 23.5923 8.77695 21.223C6.40768 18.8538 6.40768 15.0125 8.77695 12.6432L9.24129 12.1788C9.63182 11.7883 10.265 11.7883 10.6555 12.1789C11.046 12.5694 11.046 13.2025 10.6555 13.5931L10.1912 14.0574C8.60295 15.6456 8.60295 18.2206 10.1912 19.8088C11.7794 21.397 14.3544 21.397 15.9426 19.8088L18.8088 16.9426C20.3971 15.3544 20.3971 12.7794 18.8088 11.1912Z" fill="#141B34"/>
<path fill-rule="evenodd" clip-rule="evenodd" d="M19.8088 4.19116C18.2206 2.60295 15.6456 2.60295 14.0574 4.19116L11.1912 7.05741C9.60295 8.64563 9.60295 11.2206 11.1912 12.8088C12.7398 14.3574 15.2271 14.3961 16.8219 12.9247C17.2279 12.5503 17.8605 12.5757 18.235 12.9817C18.6095 13.3876 18.584 14.0202 18.1781 14.3947C15.7976 16.5909 12.0875 16.5336 9.77695 14.2231C7.40768 11.8538 7.40768 8.01246 9.77695 5.6432L12.6432 2.77695C15.0125 0.407685 18.8538 0.407685 21.2231 2.77695C23.5923 5.14621 23.5923 8.98754 21.2231 11.3568L20.7587 11.8211C20.3682 12.2117 19.735 12.2117 19.3445 11.8211C18.954 11.4306 18.954 10.7975 19.3445 10.4069L19.8088 9.94258C21.3971 8.35437 21.3971 5.77937 19.8088 4.19116Z" fill="#141B34"/>
<path fill-rule="evenodd" clip-rule="evenodd" d="M3.90027 3.2C4.3421 2.86863 4.9689 2.95817 5.30027 3.4L6.80027 5.4C7.13164 5.84183 7.0421 6.46863 6.60027 6.8C6.15844 7.13137 5.53164 7.04183 5.20027 6.6L3.70027 4.6C3.3689 4.15817 3.45844 3.53137 3.90027 3.2ZM1.05159 7.68377C1.22624 7.15983 1.79256 6.87667 2.3165 7.05131L5.3165 8.05131C5.84044 8.22596 6.1236 8.79228 5.94895 9.31623C5.77431 9.84017 5.20799 10.1233 4.68404 9.94868L1.68404 8.94868C1.1601 8.77403 0.87694 8.20771 1.05159 7.68377ZM5.80027 11.4C6.13164 11.8418 6.0421 12.4686 5.60027 12.8L3.60027 14.3C3.15844 14.6314 2.53164 14.5418 2.20027 14.1C1.8689 13.6582 1.95844 13.0314 2.40027 12.7L4.40027 11.2C4.8421 10.8686 5.4689 10.9582 5.80027 11.4Z" fill="#141B34"/>
</svg>
