<svg width="24" height="24" viewBox="0 0 24 24" fill="none" xmlns="http://www.w3.org/2000/svg">
<path fill-rule="evenodd" clip-rule="evenodd" d="M10.4285 4.12862C10.2504 3.68353 9.78161 3.4274 9.31089 3.51805C8.84017 3.6087 8.5 4.02064 8.5 4.50001L8.5 10.75C8.5 12.2402 7.24022 13.5 5.75 13.5C4.25978 13.5 3 12.2402 3 10.75L3 4.50001C3 3.94772 2.55228 3.50001 2 3.50001C1.44772 3.50001 1 3.94772 1 4.50001L1 10.75C1 13.3448 3.15521 15.5 5.75 15.5C8.34479 15.5 10.5 13.3448 10.5 10.75V9.4203C10.7998 10.0231 11.127 10.6249 11.4834 11.1991C11.5915 11.3734 11.7037 11.5475 11.8202 11.7203C11.6362 12.7037 11.422 13.8442 11.2163 14.9387C11.0008 16.0846 10.7949 17.1786 10.6427 17.9862L10.3923 19.3146C10.29 19.8573 10.6469 20.3803 11.1897 20.4827C11.7324 20.585 12.2554 20.2277 12.3577 19.685L12.6081 18.3564C12.7603 17.5487 12.9663 16.4545 13.1818 15.3082L13.4816 13.7128C14.5997 14.7614 15.9669 15.5 17.625 15.5C20.5602 15.5 23 13.0602 23 10.125C23 7.1898 20.5602 4.75001 17.625 4.75001C14.7614 4.75001 12.9921 6.70946 12.4008 8.74977C11.7147 7.40523 11.1692 6.01365 10.7199 4.86743C10.618 4.60739 10.521 4.35998 10.4285 4.12862ZM17.6522 13.4999C16.285 13.4999 15.079 12.6533 14 11.2475C14.1286 10.5529 14.2311 9.99575 14.2883 9.67892C14.5628 8.15807 15.7308 6.74991 17.6522 6.74991C19.4681 6.74991 21 8.29428 21 10.1249C21 11.9555 19.4681 13.4999 17.6522 13.4999Z" fill="#141B34"/>
</svg>
