<svg width="24" height="24" viewBox="0 0 24 24" fill="none" xmlns="http://www.w3.org/2000/svg">
<path fill-rule="evenodd" clip-rule="evenodd" d="M17.312 1.93059C15.9686 1.74998 14.2479 1.74999 12.0572 1.75H11.9428C9.75212 1.74999 8.03144 1.74998 6.68802 1.93059C5.31137 2.11568 4.21911 2.50272 3.36091 3.36091C2.50272 4.21911 2.11568 5.31137 1.93059 6.68802C1.74998 8.03144 1.74999 9.75212 1.75 11.9428V12.0572C1.74999 14.2479 1.74998 15.9686 1.93059 17.312C2.11568 18.6886 2.50272 19.7809 3.36091 20.6391C4.21911 21.4973 5.31137 21.8843 6.68802 22.0694C8.03144 22.25 9.7521 22.25 11.9428 22.25H11.9428H12.0572H12.0572C14.2479 22.25 15.9686 22.25 17.312 22.0694C18.6886 21.8843 19.7809 21.4973 20.6391 20.6391C21.4973 19.7809 21.8843 18.6886 22.0694 17.312C22.25 15.9686 22.25 14.2479 22.25 12.0572V12.0572V11.9428V11.9428C22.25 9.7521 22.25 8.03144 22.0694 6.68802C21.8843 5.31137 21.4973 4.21911 20.6391 3.36091C19.7809 2.50272 18.6886 2.11568 17.312 1.93059ZM11.9915 6.25C10.1956 6.25 8.73797 7.70407 8.73797 9.5C8.73797 11.2959 10.1956 12.75 11.9915 12.75C13.7874 12.75 15.2451 11.2959 15.2451 9.5C15.2451 7.70407 13.7874 6.25 11.9915 6.25ZM6.95754 16.4821C6.6715 16.7817 6.68249 17.2564 6.98208 17.5425C7.12736 17.6812 7.31383 17.75 7.5 17.75H16.5C16.6818 17.75 16.8641 17.6844 17.0083 17.5515C17.3129 17.2708 17.3322 16.7963 17.0515 16.4917C14.3841 13.5975 9.57054 13.7453 6.95754 16.4821Z" fill="#141B34"/>
</svg>
