<svg width="24" height="24" viewBox="0 0 24 24" fill="none" xmlns="http://www.w3.org/2000/svg">
<path d="M14.6306 14.7427C15.9799 13.9381 17.2269 14.2397 17.9997 14.7893C18.7726 14.2397 20.0196 13.9381 21.3689 14.7427C22.3752 15.3429 22.8969 16.5671 22.7129 17.9009C22.5275 19.2448 21.6451 20.6871 19.902 21.9415L19.828 21.9948C19.274 22.3945 18.781 22.7503 17.9997 22.7503C17.2184 22.7503 16.7254 22.3945 16.1715 21.9948L16.0975 21.9415C14.3543 20.6871 13.472 19.2448 13.2866 17.9009C13.1026 16.5671 13.6242 15.3429 14.6306 14.7427Z" fill="#141B34"/>
<path d="M5.75037 6.5C5.75037 3.6005 8.10087 1.25 11.0004 1.25C13.8999 1.25 16.2504 3.6005 16.2504 6.5C16.2504 9.39949 13.8999 11.75 11.0004 11.75C8.10087 11.75 5.75037 9.39949 5.75037 6.5Z" fill="#141B34"/>
<path d="M12.8598 14.2886C13.1223 13.9883 13.2535 13.8382 13.2611 13.7387C13.2683 13.644 13.2408 13.57 13.1735 13.5031C13.1027 13.4327 12.9368 13.4093 12.6049 13.3625C11.5411 13.2125 10.4593 13.2125 9.39545 13.3625C7.93097 13.5691 6.4989 14.0602 5.19406 14.8372C5.07777 14.9064 4.93413 14.9874 4.77151 15.0792C4.0587 15.4813 2.98108 16.0893 2.24291 16.8118C1.78124 17.2637 1.34259 17.8592 1.26284 18.5888C1.17804 19.3646 1.5165 20.0927 2.19552 20.7396C3.36697 21.8556 4.77275 22.75 6.59106 22.75H12.9968C13.6794 22.75 14.0207 22.75 14.1007 22.5744C14.1807 22.3988 13.9437 22.1261 13.4696 21.5806C12.5367 20.5074 11.9679 19.3236 11.7998 18.1054C11.609 16.7223 11.9672 15.3094 12.8598 14.2886Z" fill="#141B34"/>
</svg>
