<svg width="24" height="24" viewBox="0 0 24 24" fill="none" xmlns="http://www.w3.org/2000/svg">
<path fill-rule="evenodd" clip-rule="evenodd" d="M20.1018 8.2359C19.5443 8.54875 18.8185 9.10184 17.7343 9.93277L17.6083 10.0293C17.17 10.3652 16.5423 10.2822 16.2063 9.84383C15.8704 9.40548 15.9534 8.77778 16.3918 8.44183L16.5177 8.34533C16.5391 8.32888 16.5605 8.31249 16.5818 8.29615C17.585 7.5273 18.4251 6.88344 19.1231 6.49173C19.8273 6.09659 20.6866 5.78411 21.5681 6.18995C22.4678 6.60419 22.762 7.47353 22.8824 8.26363C23.0002 9.03709 23.0001 10.073 23.0001 11.2982C23.0001 11.3265 23.0001 11.3548 23.0001 11.3832L23.0001 12.8993C23.0001 14.0332 23.0001 14.9981 22.9116 15.7394C22.8712 16.0774 22.8065 16.4355 22.6808 16.7737C22.2465 17.9425 20.3372 17.3376 20.8394 15.9064C20.8777 15.7971 20.9057 15.6698 20.9257 15.5022C20.9983 14.8939 21.0001 14.0493 21.0001 12.8357V11.3832C21.0001 10.0499 20.9972 9.16915 20.9052 8.56474C20.8606 8.27197 20.8048 8.12186 20.7653 8.05005C20.7565 8.03415 20.7496 8.0241 20.7453 8.01834C20.7412 8.01294 20.7384 8.01018 20.7384 8.01018M20.7384 8.01018L20.7371 8.00939C20.7371 8.00939 20.7343 8.00788 20.7316 8.00663C20.7285 8.00465 20.7123 7.99436 20.6408 8.00751C20.5417 8.02573 20.3729 8.08381 20.1018 8.2359" fill="#141B34"/>
<path d="M17.662 16.6005L4.51851 3.45703L4.09228 3.58124C3.47251 3.76184 2.94214 4.04664 2.4948 4.49398C1.81966 5.16912 1.52415 6.02253 1.38483 7.0588C1.24997 8.06188 1.24998 9.34083 1.25 10.9434V13.0549C1.24998 14.6575 1.24997 15.9365 1.38483 16.9396C1.52415 17.9758 1.81966 18.8293 2.4948 19.5044C3.16994 20.1795 4.02335 20.475 5.05961 20.6144C6.0627 20.7492 7.34165 20.7492 8.94424 20.7492H10.0558C11.6583 20.7492 12.9373 20.7492 13.9404 20.6144C14.9767 20.475 15.8301 20.1795 16.5052 19.5044C17.1737 18.8359 17.4701 17.9925 17.6111 16.9697L17.662 16.6005Z" fill="#141B34"/>
<path fill-rule="evenodd" clip-rule="evenodd" d="M13.7062 5.11923C12.8353 5.00213 11.6772 5 9.99904 5H8.99904C8.73626 5 9.24305 5 9.00213 5.00052C8.44985 5.00169 8.00118 4.55493 8 4.00265C7.99882 3.45037 8.44558 3.0017 8.99787 3.00052C8.73573 3.00052 9.24114 3 8.99787 3.00052L9.99904 3C10.0231 3 10.0471 3 10.0711 3C11.6597 2.99997 12.9529 2.99994 13.9727 3.13706C15.0367 3.28011 15.9517 3.58869 16.681 4.31802C17.4103 5.04735 17.7189 5.96232 17.862 7.0263C17.9991 8.04615 17.9991 9.33931 17.999 10.928L17.999 12C17.999 12.5523 17.5513 13 16.999 13C16.4467 13 15.999 12.5523 15.999 12L15.999 11C15.999 9.32182 15.9969 8.16377 15.8798 7.2928C15.7666 6.45059 15.5626 6.02803 15.2668 5.73223C14.971 5.43644 14.5485 5.23246 13.7062 5.11923Z" fill="#141B34"/>
<path fill-rule="evenodd" clip-rule="evenodd" d="M1.29289 1.29289C1.68342 0.902369 2.31658 0.902369 2.70711 1.29289L22.7071 21.2929C23.0976 21.6834 23.0976 22.3166 22.7071 22.7071C22.3166 23.0976 21.6834 23.0976 21.2929 22.7071L1.29289 2.70711C0.902369 2.31658 0.902369 1.68342 1.29289 1.29289Z" fill="#141B34"/>
</svg>
