<svg width="24" height="24" viewBox="0 0 24 24" fill="none" xmlns="http://www.w3.org/2000/svg">
<path d="M13.9072 7.42297C13.8131 7.20441 13.8284 6.9542 13.9482 6.74867C14.4654 5.86194 15.6931 4.69404 17.0876 3.97899C18.4724 3.26889 20.3093 2.8731 21.8123 4.06625C23.0893 5.08007 22.8183 6.99044 22.4331 8.36464C21.9602 10.0517 20.9958 12.0059 19.8377 13.8341C18.6773 15.6658 17.2928 17.418 15.9473 18.6916C14.925 19.6593 13.4741 20.9054 11.9515 20.7358C9.58121 20.7021 8.45861 18.2301 7.84737 16.295C7.44636 15.0255 7.15113 13.6229 6.88675 12.3669L6.87912 12.3306C6.67355 11.3541 6.48713 10.4685 6.27908 9.7428C6.08553 9.06769 5.7687 8.54528 5.0368 8.85916C4.43118 9.11889 3.7161 9.22624 3.05082 9.10672C2.37466 8.98525 1.69817 8.6136 1.32966 7.87901C1.17624 7.57319 1.24925 7.2023 1.50712 6.97744C3.52076 5.22158 5.09761 4.12507 6.36589 3.60919C7.6665 3.08015 8.7881 3.11417 9.66966 3.85398C10.4532 4.51149 10.8918 5.61945 11.2279 6.77223C11.437 7.48967 11.6311 8.325 11.8337 9.19716C12.1156 10.4103 12.2719 11.9806 13.1279 12.9381C13.5834 13.4476 14.1142 13.0955 14.5258 12.7025C15.4119 11.8563 16.112 10.5194 16.2751 9.31205C16.3641 8.65301 16.1043 8.30073 15.4887 8.10494C14.9804 7.94329 14.1545 7.99767 13.9072 7.42297Z" fill="#141B34"/>
</svg>
