<svg width="24" height="24" viewBox="0 0 24 24" fill="none" xmlns="http://www.w3.org/2000/svg">
<path d="M10.9916 3.9756C11.6784 3.44801 12.4957 3.01957 13.367 3.38808C14.2302 3.75318 14.5076 4.63267 14.6274 5.49785C14.7502 6.38459 14.7502 7.60557 14.7502 9.12365V14.8794C14.7502 16.3975 14.7502 17.6185 14.6274 18.5052C14.5076 19.3704 14.2302 20.2499 13.367 20.615C12.4957 20.9835 11.6784 20.5551 10.9916 20.0275C10.2892 19.488 9.3966 18.5765 8.34667 17.5044L8.34663 17.5044C7.80717 16.9535 7.44921 16.6873 7.08663 16.5374C6.72221 16.3868 6.27914 16.3229 5.50619 16.3229C4.83768 16.3229 4.23963 16.3229 3.78679 16.2758C3.31184 16.2265 2.87088 16.1191 2.47421 15.8485C1.7184 15.3328 1.42917 14.5777 1.31957 13.8838C1.23785 13.3663 1.24723 12.7981 1.25479 12.3405V11.6626C1.24723 11.205 1.23785 10.6368 1.31957 10.1193C1.42917 9.42536 1.7184 8.67029 2.47421 8.15462C2.87088 7.88398 3.31184 7.77657 3.78679 7.72723C4.23963 7.68019 4.83768 7.68021 5.50619 7.68023C6.27914 7.68023 6.72221 7.61628 7.08663 7.46563C7.44922 7.31574 7.80717 7.04954 8.34663 6.49869L8.34664 6.49869C9.39659 5.42655 10.2892 4.51511 10.9916 3.9756Z" fill="#141B34"/>
<path fill-rule="evenodd" clip-rule="evenodd" d="M17.2929 9.29289C17.6834 8.90237 18.3166 8.90237 18.7071 9.29289L20 10.5858L21.2929 9.29289C21.6834 8.90237 22.3166 8.90237 22.7071 9.29289C23.0976 9.68342 23.0976 10.3166 22.7071 10.7071L21.4142 12L22.7071 13.2929C23.0976 13.6834 23.0976 14.3166 22.7071 14.7071C22.3166 15.0976 21.6834 15.0976 21.2929 14.7071L20 13.4142L18.7071 14.7071C18.3166 15.0976 17.6834 15.0976 17.2929 14.7071C16.9024 14.3166 16.9024 13.6834 17.2929 13.2929L18.5858 12L17.2929 10.7071C16.9024 10.3166 16.9024 9.68342 17.2929 9.29289Z" fill="#141B34"/>
</svg>
