<svg width="24" height="24" viewBox="0 0 24 24" fill="none" xmlns="http://www.w3.org/2000/svg">
<path d="M6.97475 12.2517C7.38896 12.2517 7.75 12.5875 7.75 13.0017C7.75 15.2228 8.8526 16.7851 10.0017 17.8193C10.5769 18.3369 11.566 18.9311 12 19.177C12.4339 18.9311 13.4231 18.3369 13.9983 17.8193C15.1474 16.7851 16.25 15.2228 16.25 13.0017C16.25 12.8017 16.3299 12.61 16.4719 12.4691C16.614 12.3283 16.8322 12.2503 17.0322 12.252C17.4847 12.2559 17.8625 12.2591 18.1726 12.2834C18.4955 12.3087 18.8001 12.3599 19.0942 12.4874C19.742 12.7684 20.2568 13.2877 20.5322 13.9378C20.6573 14.233 20.7059 14.538 20.7284 14.8612C20.75 15.1714 20.75 15.5492 20.75 16.0017V16.0018V22.0017C20.75 22.416 20.4142 22.7517 20 22.7517H4C3.58579 22.7517 3.25 22.416 3.25 22.0017V15.9765V15.9765C3.24999 15.532 3.24999 15.161 3.27077 14.8564C3.29241 14.5393 3.33905 14.2397 3.45933 13.9494C3.73844 13.2755 4.27379 12.7402 4.94762 12.4611C5.23801 12.3408 5.53754 12.2941 5.85464 12.2725C6.15925 12.2517 6.53028 12.2517 6.97474 12.2517H6.97475Z" fill="#141B34"/>
<path fill-rule="evenodd" clip-rule="evenodd" d="M14.3943 11.862C14.6154 11.9987 14.75 12.2401 14.75 12.5V14.5C14.75 14.7599 14.6154 15.0013 14.3943 15.138C14.1732 15.2746 13.8971 15.2871 13.6646 15.1708L12 14.3385L10.3355 15.171C10.103 15.2873 9.82686 15.2749 9.60573 15.1382C9.3846 15.0016 9.25 14.7602 9.25 14.5002V12.5002C9.25 12.2403 9.38458 11.9989 9.60567 11.8622C9.82677 11.7256 10.1029 11.7131 10.3354 11.8294L12 12.6615L13.6646 11.8292C13.8971 11.7129 14.1732 11.7254 14.3943 11.862Z" fill="#141B34"/>
<path d="M7.75 5.50012C7.75 3.15291 9.65279 1.25012 12 1.25012C14.3472 1.25012 16.25 3.15291 16.25 5.50012V6.50012C16.25 8.84733 14.3472 10.7501 12 10.7501C9.65279 10.7501 7.75 8.84733 7.75 6.50012V5.50012Z" fill="#141B34"/>
</svg>
