<svg width="24" height="24" viewBox="0 0 24 24" fill="none" xmlns="http://www.w3.org/2000/svg">
<path d="M5 12.25C5.38531 12.25 5.70798 12.542 5.74633 12.9254C5.97464 15.2085 6.98866 16.5337 7.91433 17.2961C8.38416 17.683 8.83976 17.9312 9.17443 18.0814C9.30429 18.1397 9.415 18.1829 9.49999 18.2133C9.58499 18.1828 9.69571 18.1397 9.82559 18.0814C10.1603 17.9311 10.6159 17.6828 11.0857 17.2958C12.0115 16.5334 13.0255 15.2081 13.2538 12.9254C13.2921 12.542 13.6147 12.25 14 12.25C14 12.25 14.862 12.2681 15.0365 12.3028C16.1274 12.5198 16.9802 13.3726 17.1972 14.4635C17.2504 14.731 17.2503 15.034 17.2501 15.4267V15.4267L17.25 21C17.25 21.4142 16.9143 21.75 16.5 21.75H2.50005C2.08583 21.75 1.75005 21.4142 1.75005 21L1.75002 15.4267C1.74983 15.034 1.74968 14.731 1.80289 14.4635C2.01988 13.3726 2.87265 12.5198 3.96355 12.3028C4.1381 12.2681 5 12.25 5 12.25Z" fill="#141B34"/>
<path d="M20.0364 12.3039C19.2038 12.0721 18.0073 12.0043 17.1332 11.9888C17.7837 12.5579 18.2471 13.3349 18.4231 14.2195C18.501 14.6111 18.5004 15.0259 18.5 15.3689L18.4999 20.9998C18.4999 21.2655 18.4481 21.5191 18.3541 21.7511H21.4999C21.9141 21.7511 22.2499 21.4153 22.2499 21.0011L22.2499 15.4278C22.2501 15.035 22.2503 14.7321 22.1971 14.4646C21.9801 13.3737 21.1273 12.5209 20.0364 12.3039Z" fill="#141B34"/>
<path d="M5.75 6.0625C5.75 3.97157 7.41443 2.25 9.5 2.25C11.5856 2.25 13.25 3.97157 13.25 6.0625V6.9375C13.25 9.02843 11.5856 10.75 9.5 10.75C7.41443 10.75 5.75 9.02843 5.75 6.9375V6.0625Z" fill="#141B34"/>
<path d="M11.8943 11.8618C12.1154 11.9985 12.25 12.2399 12.25 12.4998V14.4998C12.25 14.7597 12.1154 15.0011 11.8943 15.1378C11.6732 15.2744 11.3971 15.2869 11.1646 15.1706L9.50004 14.3383L7.83547 15.1708C7.60298 15.2871 7.32686 15.2747 7.10573 15.138C6.8846 15.0014 6.75 14.7599 6.75 14.5V12.5C6.75 12.2401 6.88458 11.9987 7.10567 11.862C7.32677 11.7254 7.60286 11.7129 7.83535 11.8292L9.49996 12.6613L11.1646 11.829C11.3971 11.7127 11.6732 11.7251 11.8943 11.8618Z" fill="#141B34"/>
<path d="M13.777 3.43945C14.237 4.20831 14.5 5.10771 14.5 6.06073V6.93573C14.5 7.88875 14.237 8.78815 13.777 9.55701C14.4582 10.2891 15.4229 10.7482 16.5 10.7482C18.5855 10.7482 20.25 9.02666 20.25 6.93573V6.06073C20.25 3.9698 18.5855 2.24823 16.5 2.24823C15.4229 2.24823 14.4582 2.70739 13.777 3.43945Z" fill="#141B34"/>
</svg>
