<svg width="24" height="24" viewBox="0 0 24 24" fill="none" xmlns="http://www.w3.org/2000/svg">
<path d="M21.1695 20.8671C21.191 20.852 21.2248 20.8241 21.2709 20.775C21.6488 20.3723 22.2816 20.3521 22.6844 20.73C23.0871 21.108 23.1073 21.7408 22.7293 22.1435C22.3863 22.5091 21.9657 22.78 21.4613 22.8549C20.9632 22.9288 20.5268 22.7901 20.1906 22.6161C19.8628 22.4464 19.5722 22.2131 19.3358 22.0072C19.221 21.9072 19.061 21.7603 18.9173 21.6283L18.9173 21.6283C18.8173 21.5364 18.7252 21.4519 18.6617 21.3954C18.1898 20.9757 17.9684 20.8798 17.8636 20.8752L17.8625 20.8752C17.8491 20.8745 17.8003 20.8721 17.6923 20.9466C17.5637 21.0351 17.3649 21.2257 17.1101 21.6155L17.1048 21.6237C16.8135 22.0598 16.4492 22.4292 15.9766 22.6262C15.4785 22.8338 14.9945 22.7949 14.5888 22.658C14.2095 22.5299 13.878 22.3104 13.6168 22.1156C13.429 21.9755 13.2292 21.81 13.0526 21.6637L13.0526 21.6637L13.0525 21.6637C12.9878 21.61 12.9261 21.559 12.8693 21.5127C12.3534 21.0923 12.0827 20.9495 11.9089 20.9372L11.907 20.937C11.877 20.9338 11.6078 20.9055 11.1083 21.6571C10.8344 22.0762 10.4735 22.4306 9.99186 22.6056C9.49979 22.7844 9.03114 22.7219 8.65499 22.5923C8.29441 22.4681 7.96776 22.2653 7.70206 22.0822C7.5273 21.9618 7.33467 21.8176 7.16045 21.6872L7.16043 21.6871C7.0785 21.6258 7.00065 21.5675 6.93064 21.5162C6.39912 21.1266 6.09061 20.9726 5.87847 20.9598L5.87529 20.9596C5.81232 20.9556 5.55243 20.9389 5.11013 21.6155L5.10476 21.6237C4.66792 22.2778 4.00577 22.8566 3.13034 22.8566C2.25087 22.8566 1.59186 22.2732 1.1624 21.6144C0.860794 21.1517 0.991351 20.5322 1.45401 20.2306C1.91667 19.929 2.53622 20.0595 2.83783 20.5222C2.98185 20.7431 3.08489 20.8213 3.13141 20.8474C3.17891 20.8219 3.28685 20.7436 3.43912 20.5165C4.11687 19.4819 4.96968 18.9014 5.99881 18.9634C6.87427 19.0162 7.62594 19.5461 8.11313 19.9032C8.22083 19.9822 8.31656 20.054 8.4061 20.1211L8.40612 20.1211C8.55808 20.235 8.69225 20.3356 8.83692 20.4353C9.05809 20.5877 9.20619 20.6668 9.30649 20.7014L9.32246 20.7066C9.34742 20.6817 9.38582 20.6371 9.43538 20.5611L9.43979 20.5543C10.1406 19.498 10.9996 18.8677 12.0502 18.9422C12.9444 19.0055 13.6802 19.5935 14.1328 19.9623C14.219 20.0326 14.2975 20.0976 14.3713 20.1587L14.3713 20.1588C14.5308 20.2909 14.6679 20.4045 14.8125 20.5124C15.0194 20.6667 15.1496 20.7364 15.2284 20.763L15.2301 20.7635C15.2659 20.7353 15.3381 20.6671 15.4391 20.5165C16.1051 19.4995 16.9223 18.8321 17.9511 18.8771C18.8507 18.9166 19.5618 19.5194 19.9909 19.901C20.131 20.0256 20.2312 20.1185 20.3239 20.2045L20.324 20.2046C20.4269 20.3 20.5206 20.3868 20.6494 20.499C20.8527 20.6761 20.9989 20.7824 21.11 20.8399C21.1358 20.8532 21.1554 20.8617 21.1695 20.8671Z" fill="#141B34"/>
<path d="M3.22618 13.3478C3.76908 14.9275 4.77531 16.3252 6.24003 17.4294C6.41769 17.5634 6.63606 17.6325 6.8587 17.6254C9.06934 17.5544 11.2754 16.9138 13.0725 16.0021C14.4785 15.2889 15.7341 14.3577 16.5178 13.3119C16.5606 13.2452 16.5821 13.2118 16.5897 13.1763C16.5995 13.1304 16.5919 13.079 16.5692 13.0379C16.5517 13.0061 16.5229 12.9814 16.4653 12.9322C16.3062 12.7961 16.1371 12.6639 15.9582 12.5379C14.9505 11.8282 13.6451 11.3239 12.053 11.4239C11.9859 11.4281 11.9524 11.4302 11.9206 11.4439C11.8888 11.4575 11.8625 11.4819 11.8099 11.5307C10.7566 12.508 9.62191 13.1615 8.45675 13.5082C8.44219 13.513 8.42752 13.5173 8.41276 13.5211C6.76907 13.999 5.06599 13.8672 3.4459 13.1728L3.43388 13.1677C3.31434 13.1139 3.18358 13.2239 3.22618 13.3478Z" fill="#141B34"/>
<path d="M17.7276 14.9753C17.4561 15.32 17.1546 15.6397 16.8271 15.9303C16.4254 16.2867 16.3896 16.9002 16.7471 17.3006C17.1046 17.701 17.7201 17.7367 18.1218 17.3803C18.2867 17.234 18.4465 17.0818 18.6006 16.9241C18.6746 16.8484 18.7116 16.8106 18.7249 16.7585C18.7381 16.7065 18.7237 16.6555 18.6949 16.5535C18.5041 15.8779 18.2765 15.3457 18.1379 15.0844C18.1293 15.0653 18.1196 15.0443 18.1091 15.0221C18.0914 14.9846 18.0825 14.9658 18.0701 14.9495C18.006 14.8644 17.8746 14.8461 17.7897 14.9105C17.7733 14.9229 17.7581 14.9403 17.7276 14.9753Z" fill="#141B34"/>
<path d="M20.2654 14.5905C20.5643 13.9947 20.8013 13.3621 20.9677 12.7017C20.987 12.6253 20.9966 12.5872 20.9904 12.5472C20.9843 12.5072 20.9634 12.4733 20.9217 12.4054C20.8842 12.3444 20.8461 12.2832 20.8074 12.2218C20.4689 11.6857 20.1172 11.1873 19.9002 10.8969C18.8028 9.4352 17.2008 8.33526 15.5664 7.66241C14.2863 7.1354 13.0475 6.89487 12.0739 6.91246C11.8992 6.91561 11.8119 6.91719 11.7538 6.98142C11.6957 7.04565 11.7031 7.13566 11.7179 7.3157C11.7754 8.01543 11.8918 8.77593 12.0737 9.59656C12.1071 9.74717 12.1238 9.82248 12.1785 9.86648C12.2331 9.91048 12.3142 9.91071 12.4764 9.91116C14.2254 9.91608 15.6873 10.5124 16.8219 11.3115C18.1541 12.2497 19.0533 13.4785 19.4745 14.4034C19.4978 14.4479 19.5225 14.497 19.5483 14.5504C19.7075 14.8806 19.7872 15.0456 19.9117 15.0466C20.0362 15.0476 20.1126 14.8952 20.2654 14.5905Z" fill="#141B34"/>
<path d="M21.2386 9.95006C21.0324 5.76013 18.0597 2.29238 14.1075 1.36794C14.0103 1.34519 13.9617 1.33382 13.913 1.34705C13.8642 1.36028 13.8276 1.39508 13.7543 1.46468C13.3901 1.81075 13.0583 2.15474 12.854 2.37896C12.329 2.96378 11.938 3.81412 11.7682 4.96099C11.7375 5.1687 11.7221 5.27255 11.7819 5.34188C11.8417 5.4112 11.9551 5.41131 12.1819 5.41153C13.3954 5.41272 14.7903 5.72077 16.1374 6.27535C17.9652 7.02778 19.8078 8.2752 21.1003 9.99699L21.1013 9.99832C21.1465 10.0588 21.2423 10.0254 21.2386 9.95006Z" fill="#141B34"/>
<path d="M11.6368 1.13293C10.9743 1.15859 10.3299 1.25417 9.71058 1.41247C9.63443 1.43194 9.59635 1.44167 9.56423 1.46597C9.53212 1.49027 9.51201 1.52493 9.47179 1.59425C9.41026 1.70032 9.34716 1.81065 9.28319 1.92389C8.95756 2.50041 8.63722 3.10261 8.43877 3.48682C7.69778 5.1495 7.43134 6.97956 7.53856 8.59979C7.61999 9.83028 7.9119 10.881 8.32401 11.6349C8.39575 11.7661 8.43162 11.8317 8.5059 11.8567C8.58019 11.8816 8.64979 11.8503 8.78899 11.7876C9.39173 11.5162 9.98571 11.1347 10.5621 10.6353C10.6475 10.5613 10.6903 10.5243 10.7074 10.4711C10.7246 10.4179 10.711 10.3606 10.6838 10.2458C10.339 8.79167 10.1735 7.47092 10.175 6.29285C10.1777 4.2172 10.7013 2.52986 11.74 1.37444L11.7432 1.37086C11.828 1.27776 11.7627 1.12805 11.6368 1.13293Z" fill="#141B34"/>
<path d="M6.91738 2.65251C4.40532 4.31503 2.75006 7.17398 2.75006 10.4158C2.75006 10.6188 2.75631 10.8203 2.76879 11.0201C2.76895 11.0227 2.77021 11.025 2.77225 11.0266C3.24832 11.3896 3.74501 11.6622 4.04296 11.7967C4.8016 12.121 5.58396 12.2957 6.37116 12.3042C6.62757 12.3069 6.75577 12.3083 6.816 12.2189C6.87623 12.1295 6.82185 11.9994 6.71309 11.7391C6.33898 10.8437 6.11429 9.79367 6.04184 8.69883C5.91947 6.84976 6.22231 4.76487 7.07822 2.85486C7.08383 2.84234 7.08978 2.82999 7.09607 2.8178C7.15675 2.70012 7.02779 2.57944 6.91738 2.65251Z" fill="#141B34"/>
</svg>
