<svg width="24" height="24" viewBox="0 0 24 24" fill="none" xmlns="http://www.w3.org/2000/svg">
<path fill-rule="evenodd" clip-rule="evenodd" d="M11.9435 1.75H12.0579C14.2486 1.74999 15.9693 1.74998 17.3127 1.93059C18.6893 2.11568 19.7816 2.50272 20.6398 3.36091C21.498 4.21911 21.885 5.31137 22.0701 6.68802C22.1095 6.98118 22.1403 7.29229 22.1644 7.62234C22.1856 7.91313 22.1963 8.05853 22.1073 8.15427C22.0183 8.25 21.8698 8.25 21.5728 8.25H2.42863C2.13164 8.25 1.98315 8.25 1.89415 8.15427C1.80515 8.05853 1.81576 7.91313 1.83698 7.62234C1.86107 7.29229 1.89188 6.98118 1.9313 6.68802C2.11638 5.31137 2.50342 4.21911 3.36161 3.36091C4.21981 2.50272 5.31207 2.11568 6.68872 1.93059C8.03214 1.74998 9.75283 1.74999 11.9435 1.75ZM22.1566 9.83722C22.2444 9.92444 22.2452 10.0638 22.2469 10.3424C22.25 10.8458 22.25 11.3787 22.25 11.9428V12.0572C22.25 14.2479 22.25 15.9686 22.0694 17.312C21.8843 18.6886 21.4973 19.7809 20.6391 20.6391C19.7809 21.4973 18.6886 21.8843 17.312 22.0694C15.9686 22.25 14.2479 22.25 12.0572 22.25H11.9428C9.7521 22.25 8.03144 22.25 6.68802 22.0694C5.31137 21.8843 4.21911 21.4973 3.36091 20.6391C2.50272 19.7809 2.11568 18.6886 1.93059 17.312C1.74998 15.9686 1.74999 14.2479 1.75 12.0572V11.9428V11.9427C1.75 11.3786 1.74999 10.8457 1.75307 10.3424C1.75478 10.0638 1.75563 9.92444 1.84339 9.83722C1.93114 9.75 2.07108 9.75 2.35096 9.75H21.649C21.9289 9.75 22.0689 9.75 22.1566 9.83722ZM6.99553 4C6.44571 4 6 4.44772 6 5C6 5.55228 6.44571 6 6.99553 6H7.00447C7.55429 6 8 5.55228 8 5C8 4.44772 7.55429 4 7.00447 4H6.99553ZM10 5C10 4.44772 10.4457 4 10.9955 4H11.0045C11.5543 4 12 4.44772 12 5C12 5.55228 11.5543 6 11.0045 6H10.9955C10.4457 6 10 5.55228 10 5ZM7.25 15.5C7.25 15.0858 7.58579 14.75 8 14.75C8.22205 14.75 8.4208 14.8455 8.5592 15.0002C8.83545 15.3088 9.30959 15.3351 9.61824 15.0589C9.92688 14.7826 9.95315 14.3085 9.6769 13.9998C9.26599 13.5407 8.66645 13.25 8 13.25C6.75736 13.25 5.75 14.2574 5.75 15.5V16.5C5.75 17.7426 6.75736 18.75 8 18.75C8.66645 18.75 9.26599 18.4593 9.6769 18.0002C9.95315 17.6915 9.92688 17.2174 9.61824 16.9411C9.30959 16.6649 8.83545 16.6912 8.5592 16.9998C8.4208 17.1545 8.22205 17.25 8 17.25C7.58579 17.25 7.25 16.9142 7.25 16.5V15.5ZM15.1644 13.3293C14.7939 13.5146 14.6438 13.9651 14.829 14.3356L16.829 18.3356C17.0143 18.7061 17.4648 18.8562 17.8352 18.671C18.2057 18.4857 18.3559 18.0352 18.1707 17.6648L16.1707 13.6648C15.9854 13.2943 15.5349 13.1441 15.1644 13.3293ZM12.4922 13.5C11.9399 13.5 11.4922 13.9477 11.4922 14.5C11.4922 15.0523 11.9399 15.5 12.4922 15.5H12.5012C13.0535 15.5 13.5012 15.0523 13.5012 14.5C13.5012 13.9477 13.0535 13.5 12.5012 13.5H12.4922ZM12.4922 16.5C11.9399 16.5 11.4922 16.9477 11.4922 17.5C11.4922 18.0523 11.9399 18.5 12.4922 18.5H12.5012C13.0535 18.5 13.5012 18.0523 13.5012 17.5C13.5012 16.9477 13.0535 16.5 12.5012 16.5H12.4922Z" fill="#141B34"/>
</svg>
