<svg width="24" height="24" viewBox="0 0 24 24" fill="none" xmlns="http://www.w3.org/2000/svg">
<path fill-rule="evenodd" clip-rule="evenodd" d="M12 1.24998C6.06296 1.24998 1.25002 6.06292 1.25002 12C1.25002 13.4809 1.54989 14.8937 2.09293 16.1794C2.23539 16.5167 2.33142 16.7447 2.39557 16.9198C2.46099 17.0985 2.47018 17.1631 2.47134 17.1797C2.47783 17.2736 2.45407 17.4013 2.29192 18.0074L1.2755 21.8061C1.20627 22.0649 1.28029 22.3409 1.46969 22.5303C1.65909 22.7197 1.93512 22.7937 2.19387 22.7245L5.99264 21.7081C6.59867 21.5459 6.72635 21.5222 6.82026 21.5287C6.83692 21.5298 6.90154 21.539 7.08019 21.6044C7.25534 21.6686 7.48326 21.7646 7.82056 21.9071C9.10634 22.4501 10.5191 22.75 12 22.75C17.9371 22.75 22.75 17.937 22.75 12C22.75 6.06292 17.9371 1.24998 12 1.24998ZM10.4118 6.74999L10.3723 6.74999C10.0739 6.74993 9.78119 6.74987 9.53919 6.78178C9.26642 6.81774 8.94808 6.90596 8.6816 7.16731C8.4131 7.43066 8.32042 7.74872 8.28281 8.0231C8.24987 8.26337 8.24994 8.55318 8.25001 8.84452V8.84453L8.25001 8.88461L8.25001 15.1154L8.25001 15.1555V15.1555C8.24994 15.4468 8.24987 15.7366 8.28281 15.9769C8.32042 16.2513 8.4131 16.5693 8.6816 16.8327C8.94808 17.094 9.26642 17.1822 9.53919 17.2182C9.78119 17.2501 10.0739 17.2501 10.3723 17.25L10.4118 17.25H12.8824C14.5083 17.25 15.75 15.8634 15.75 14.25C15.75 13.3697 15.3803 12.5569 14.7803 12C15.3803 11.4431 15.75 10.6303 15.75 9.74999C15.75 8.13662 14.5083 6.74999 12.8824 6.74999H10.4118ZM14.25 9.74999C14.25 10.6219 13.5955 11.25 12.8824 11.25H9.75001V8.88461C9.75001 8.57063 9.75136 8.3901 9.76429 8.26544C9.89503 8.25132 10.0833 8.24999 10.4118 8.24999H12.8824C13.5955 8.24999 14.25 8.87808 14.25 9.74999ZM12.8824 12.75H9.75001V15.1154C9.75001 15.4294 9.75136 15.6099 9.76429 15.7345C9.89503 15.7487 10.0833 15.75 10.4118 15.75L12.8824 15.75C13.5955 15.75 14.25 15.1219 14.25 14.25C14.25 13.3781 13.5955 12.75 12.8824 12.75Z" fill="#141B34"/>
</svg>
