<svg width="24" height="24" viewBox="0 0 24 24" fill="none" xmlns="http://www.w3.org/2000/svg">
<path fill-rule="evenodd" clip-rule="evenodd" d="M16.5 19C16.2239 19 16 19.2239 16 19.5C16 19.7761 16.2239 20 16.5 20C16.7761 20 17 19.7761 17 19.5C17 19.2239 16.7761 19 16.5 19ZM14 19.5C14 18.1193 15.1193 17 16.5 17C17.8807 17 19 18.1193 19 19.5C19 20.8807 17.8807 22 16.5 22C15.1193 22 14 20.8807 14 19.5Z" fill="#141B34"/>
<path fill-rule="evenodd" clip-rule="evenodd" d="M8.50012 16C8.50012 16.8284 7.83055 17.5 7.0046 17.5L6.99564 17.5C6.16969 17.5 5.50012 16.8284 5.50012 16C5.50012 15.1716 6.16969 14.5 6.99565 14.5L7.0046 14.5C7.83055 14.5 8.50012 15.1716 8.50012 16Z" fill="#141B34"/>
<path fill-rule="evenodd" clip-rule="evenodd" d="M7 12C4.79086 12 3 13.7909 3 16C3 18.2091 4.79086 20 7 20C9.20914 20 11 18.2091 11 16C11 13.7909 9.20914 12 7 12ZM1 16C1 12.6863 3.68629 10 7 10C10.3137 10 13 12.6863 13 16C13 19.3137 10.3137 22 7 22C3.68629 22 1 19.3137 1 16Z" fill="#141B34"/>
<path d="M3.28042 4.02728C2.98712 4.00094 2.60177 4 2 4C1.44772 4 1 3.55229 1 3C1 2.44772 1.44772 2 2 2C2.54807 1.99998 3.06584 1.99996 3.45932 2.0353C3.87823 2.07292 4.29157 2.15617 4.68758 2.37543C5.06977 2.58704 5.40112 2.87955 5.6585 3.23254C5.92519 3.5983 6.05906 3.99812 6.14835 4.40913C6.23222 4.79518 6.31526 5.45617 6.38322 6L11.5686 6C12.6886 5.99996 13.6287 5.99992 14.3764 6.10045C15.1681 6.20689 15.892 6.44224 16.4749 7.02513C17.0578 7.60801 17.2931 8.3319 17.3996 9.12358C17.5001 9.87124 17.5 10.8114 17.5 11.9313V11.9314L17.5 13.074C17.7343 13.1169 17.96 13.1845 18.1767 13.2904C18.3175 13.3593 18.4524 13.4394 18.5804 13.5297C19.1131 13.9055 19.4638 14.4903 19.8684 15.1652C20.0717 15.503 20.2723 15.8342 20.3673 15.9618C20.495 15.9048 21.2125 15.5088 21.5154 15.341C21.9985 15.0734 22.6071 15.2481 22.8748 15.7312C23.1424 16.2143 22.9677 16.8229 22.4846 17.0905C22.2016 17.2474 21.3383 17.7257 21.0864 17.8294C20.8027 17.9462 20.4452 18.0461 20.0315 17.9777C19.877 17.9521 19.7269 17.9078 19.5842 17.8463C19.2092 17.6847 18.9595 17.4168 18.7764 17.174C18.6094 16.9524 18.4386 16.6685 18.2611 16.3734L18.2611 16.3734C17.8117 15.6266 17.6247 15.3435 17.5 15.2238V18C17.5 18.5523 17.0523 19 16.5 19C15.9477 19 15.5 18.5523 15.5 18V15H10.9296L10.6676 14.4004C10.0494 12.9856 8.6387 12 7 12C6.08948 12 5.05607 11.3875 4.91057 10.2501L4.37982 6.10087C4.30518 5.50375 4.25646 5.12149 4.19394 4.83372C4.13473 4.56115 4.08019 4.4626 4.04246 4.41085C3.95667 4.29319 3.84621 4.19568 3.71882 4.12515C3.66278 4.09412 3.55823 4.05223 3.28042 4.02728Z" fill="#141B34"/>
</svg>
