<svg width="24" height="24" viewBox="0 0 24 24" fill="none" xmlns="http://www.w3.org/2000/svg">
<path fill-rule="evenodd" clip-rule="evenodd" d="M10.75 17.9999C10.75 17.3096 11.307 16.7499 11.9941 16.7499C12.6765 16.7499 13.25 17.3094 13.25 17.9999C13.25 18.6905 12.6765 19.2499 11.9941 19.2499C11.307 19.2499 10.75 18.6903 10.75 17.9999Z" fill="#141B34"/>
<path fill-rule="evenodd" clip-rule="evenodd" d="M7.54285 14.2928C9.93338 11.9022 14.0665 11.9022 16.4571 14.2928C16.8476 14.6833 16.8476 15.3165 16.4571 15.707C16.0665 16.0975 15.4334 16.0975 15.0429 15.707C13.4334 14.0975 10.5665 14.0975 8.95707 15.707C8.56654 16.0975 7.93338 16.0975 7.54285 15.707C7.15233 15.3165 7.15233 14.6833 7.54285 14.2928Z" fill="#141B34"/>
<path fill-rule="evenodd" clip-rule="evenodd" d="M4.85978 11.2317C7.47884 9.0491 10.6278 8.15466 13.6518 8.61925C14.1977 8.70312 14.5722 9.21363 14.4884 9.75951C14.4045 10.3054 13.894 10.6799 13.3481 10.5961C10.9318 10.2248 8.35162 10.9252 6.14015 12.7681C5.71587 13.1217 5.0853 13.0643 4.73174 12.6401C4.37818 12.2158 4.4355 11.5852 4.85978 11.2317ZM17.7144 11.3105C18.0786 10.8953 18.7104 10.8541 19.1256 11.2183L19.1626 11.2509C19.5762 11.6169 19.6149 12.2489 19.2489 12.6625C18.883 13.0761 18.251 13.1148 17.8373 12.7488L17.8065 12.7217C17.3914 12.3574 17.3501 11.7256 17.7144 11.3105Z" fill="#141B34"/>
<path fill-rule="evenodd" clip-rule="evenodd" d="M1.35478 8.23584C4.98605 5.16946 9.02023 3.73245 13.0758 4.04074C13.6265 4.0826 14.0389 4.56297 13.9971 5.11366C13.9552 5.66436 13.4749 6.07685 12.9242 6.03499C9.47624 5.77288 5.9452 6.9772 2.64514 9.76391C2.22318 10.1202 1.59225 10.067 1.23593 9.64505C0.879607 9.22309 0.932819 8.59217 1.35478 8.23584Z" fill="#141B34"/>
<path fill-rule="evenodd" clip-rule="evenodd" d="M15.2931 4.29289C15.6836 3.90237 16.3168 3.90237 16.7073 4.29289L19.0002 6.58579L21.2931 4.29289C21.6836 3.90237 22.3168 3.90237 22.7073 4.29289C23.0978 4.68342 23.0978 5.31658 22.7073 5.70711L20.4144 8L22.7073 10.2929C23.0978 10.6834 23.0978 11.3166 22.7073 11.7071C22.3168 12.0976 21.6836 12.0976 21.2931 11.7071L19.0002 9.41421L16.7073 11.7071C16.3168 12.0976 15.6836 12.0976 15.2931 11.7071C14.9026 11.3166 14.9026 10.6834 15.2931 10.2929L17.586 8L15.2931 5.70711C14.9026 5.31658 14.9026 4.68342 15.2931 4.29289Z" fill="#141B34"/>
</svg>
