<svg width="24" height="24" viewBox="0 0 24 24" fill="none" xmlns="http://www.w3.org/2000/svg">
<path fill-rule="evenodd" clip-rule="evenodd" d="M8.79308 14.2929C9.1836 13.9024 9.81677 13.9024 10.2073 14.2929L12.0002 16.0858L13.7931 14.2929C14.1836 13.9024 14.8168 13.9024 15.2073 14.2929C15.5978 14.6834 15.5978 15.3166 15.2073 15.7071L13.4144 17.5L15.2073 19.2929C15.5978 19.6834 15.5978 20.3166 15.2073 20.7071C14.8168 21.0976 14.1836 21.0976 13.7931 20.7071L12.0002 18.9142L10.2073 20.7071C9.81677 21.0976 9.1836 21.0976 8.79308 20.7071C8.40255 20.3166 8.40255 19.6834 8.79308 19.2929L10.586 17.5L8.79308 15.7071C8.40255 15.3166 8.40255 14.6834 8.79308 14.2929Z" fill="#141B34"/>
<path fill-rule="evenodd" clip-rule="evenodd" d="M12 3C15.695 2.99998 19.3379 4.44312 22.6452 7.23585C23.0672 7.59217 23.1204 8.22309 22.7641 8.64506C22.4077 9.06703 21.7768 9.12024 21.3548 8.76393C18.3463 6.22345 15.1472 4.99999 12 5C8.85288 5.00001 5.65374 6.2235 2.6452 8.76403C2.22324 9.12035 1.59231 9.06714 1.23599 8.64518C0.879668 8.22322 0.93288 7.59229 1.35484 7.23597C4.6621 4.44319 8.30506 3.00002 12 3ZM12.0872 9C14.677 9 17.1807 10.1408 19.228 12.3144C19.6066 12.7164 19.5877 13.3493 19.1857 13.7279C18.7836 14.1066 18.1508 14.0877 17.7721 13.6856C16.0517 11.8592 14.0555 11 12.0872 11C10.1149 11 8.05119 11.863 6.20713 13.7071C5.8166 14.0976 5.18344 14.0976 4.79291 13.7071C4.40239 13.3166 4.40239 12.6834 4.79291 12.2929C6.94886 10.137 9.50133 9 12.0872 9Z" fill="#141B34"/>
</svg>
