<svg width="24" height="24" viewBox="0 0 24 24" fill="none" xmlns="http://www.w3.org/2000/svg">
<path d="M7.00011 1C6.6458 1 6.31793 1.18749 6.13825 1.49287C5.95856 1.79824 5.95388 2.1759 6.12595 2.48563L8.25956 6.32626L4.29292 10.2929C4.00692 10.5789 3.92137 11.009 4.07615 11.3827C4.23093 11.7564 4.59557 12 5.00003 12H13.923L10.0716 21.6286C9.86644 22.1414 10.1159 22.7234 10.6286 22.9285C11.1414 23.1336 11.7234 22.8842 11.9285 22.3714L19.9286 2.37139C20.0518 2.0633 20.0142 1.71415 19.8282 1.43937C19.6422 1.1646 19.3319 1 19.0001 1H7.00011Z" fill="#141B34"/>
</svg>
