<svg width="24" height="24" viewBox="0 0 24 24" fill="none" xmlns="http://www.w3.org/2000/svg">
<path fill-rule="evenodd" clip-rule="evenodd" d="M7.00003 5C7.55231 5 8.00003 5.44772 8.00003 6C8.00003 6.51259 8.00487 6.62284 8.01924 6.69509C8.09815 7.09178 8.40825 7.40188 8.80494 7.48079C8.87718 7.49516 8.98744 7.5 9.50003 7.5H14.5C14.5283 7.5 14.5562 7.49998 14.5839 7.49996C14.9646 7.49965 15.2924 7.49939 15.5853 7.55764C16.7754 7.79436 17.7057 8.72466 17.9424 9.91473C18.0006 10.2076 18.0004 10.5354 18.0001 10.9161C18 10.9438 18 10.9718 18 11C18 11.5523 17.5523 12 17 12C16.4477 12 16 11.5523 16 11C16 10.4874 15.9952 10.3772 15.9808 10.3049C15.9019 9.90822 15.5918 9.59812 15.1951 9.51921C15.1229 9.50484 15.0126 9.5 14.5 9.5H9.50003C9.47178 9.5 9.44382 9.50002 9.41614 9.50004C9.03545 9.50035 8.70761 9.50061 8.41476 9.44236C7.22468 9.20564 6.29439 8.27534 6.05767 7.08527C5.99942 6.79242 5.99968 6.46458 5.99998 6.08388C6 6.0562 6.00003 6.02825 6.00003 6C6.00003 5.44772 6.44774 5 7.00003 5Z" fill="#141B34"/>
<path fill-rule="evenodd" clip-rule="evenodd" d="M17 14C17.5523 14 18 14.4477 18 15V18C18 18.5523 17.5523 19 17 19C16.4477 19 16 18.5523 16 18V15C16 14.4477 16.4477 14 17 14Z" fill="#141B34"/>
<path d="M3.82851 1.34728C4.17373 1.27144 4.5701 1.25 5 1.25H9C9.4299 1.25 9.82627 1.27144 10.1715 1.34728C10.5252 1.42498 10.8713 1.56966 11.1508 1.84917C11.4303 2.12868 11.575 2.4748 11.6527 2.82851C11.7286 3.17373 11.75 3.5701 11.75 4C11.75 4.4299 11.7286 4.82627 11.6527 5.17149C11.575 5.5252 11.4303 5.87132 11.1508 6.15083C10.8713 6.43034 10.5252 6.57502 10.1715 6.65272C9.82627 6.72856 9.4299 6.75 9 6.75H5C4.5701 6.75 4.17373 6.72856 3.82851 6.65272C3.4748 6.57502 3.12868 6.43034 2.84917 6.15083C2.56966 5.87132 2.42498 5.5252 2.34728 5.17149C2.27144 4.82627 2.25 4.4299 2.25 4C2.25 3.5701 2.27144 3.17373 2.34728 2.82851C2.42498 2.4748 2.56966 2.12868 2.84917 1.84917C3.12868 1.56966 3.4748 1.42498 3.82851 1.34728Z" fill="#141B34"/>
<path d="M13.8285 10.3473C14.1737 10.2714 14.5701 10.25 15 10.25H19C19.4299 10.25 19.8263 10.2714 20.1715 10.3473C20.5252 10.425 20.8713 10.5697 21.1508 10.8492C21.4303 11.1287 21.575 11.4748 21.6527 11.8285C21.7286 12.1737 21.75 12.5701 21.75 13C21.75 13.4299 21.7286 13.8263 21.6527 14.1715C21.575 14.5252 21.4303 14.8713 21.1508 15.1508C20.8713 15.4303 20.5252 15.575 20.1715 15.6527C19.8263 15.7286 19.4299 15.75 19 15.75H15C14.5701 15.75 14.1737 15.7286 13.8285 15.6527C13.4748 15.575 13.1287 15.4303 12.8492 15.1508C12.5697 14.8713 12.425 14.5252 12.3473 14.1715C12.2714 13.8263 12.25 13.4299 12.25 13C12.25 12.5701 12.2714 12.1737 12.3473 11.8285C12.425 11.4748 12.5697 11.1287 12.8492 10.8492C13.1287 10.5697 13.4748 10.425 13.8285 10.3473Z" fill="#141B34"/>
<path d="M13.8285 17.3473C14.1737 17.2714 14.5701 17.25 15 17.25H19C19.4299 17.25 19.8263 17.2714 20.1715 17.3473C20.5252 17.425 20.8713 17.5697 21.1508 17.8492C21.4303 18.1287 21.575 18.4748 21.6527 18.8285C21.7286 19.1737 21.75 19.5701 21.75 20C21.75 20.4299 21.7286 20.8263 21.6527 21.1715C21.575 21.5252 21.4303 21.8713 21.1508 22.1508C20.8713 22.4303 20.5252 22.575 20.1715 22.6527C19.8263 22.7286 19.4299 22.75 19 22.75H15C14.5701 22.75 14.1737 22.7286 13.8285 22.6527C13.4748 22.575 13.1287 22.4303 12.8492 22.1508C12.5697 21.8713 12.425 21.5252 12.3473 21.1715C12.2714 20.8263 12.25 20.4299 12.25 20C12.25 19.5701 12.2714 19.1737 12.3473 18.8285C12.425 18.4748 12.5697 18.1287 12.8492 17.8492C13.1287 17.5697 13.4748 17.425 13.8285 17.3473Z" fill="#141B34"/>
</svg>
