<svg width="24" height="24" viewBox="0 0 24 24" fill="none" xmlns="http://www.w3.org/2000/svg">
<path fill-rule="evenodd" clip-rule="evenodd" d="M6 7C6.55228 7 7 7.44772 7 8V12.5351C7.58835 12.1948 8.27143 12 9 12H15C16.1046 12 17 11.1046 17 10C17 9.44772 17.4477 9 18 9C18.5523 9 19 9.44772 19 10C19 12.2091 17.2091 14 15 14H9C7.89543 14 7 14.8954 7 16C7 16.5523 6.55228 17 6 17C5.44772 17 5 16.5523 5 16V8C5 7.44772 5.44772 7 6 7Z" fill="#141B34"/>
<path d="M5.95063 1.25L6 1.25L6.04938 1.25H6.04943C6.71427 1.24996 7.28711 1.24993 7.74585 1.31161C8.23748 1.37771 8.70875 1.52677 9.09099 1.90901C9.47324 2.29126 9.6223 2.76252 9.6884 3.25416C9.75007 3.71291 9.75004 4.28577 9.75001 4.95064V5.04937C9.75004 5.71424 9.75007 6.2871 9.6884 6.74585C9.6223 7.23748 9.47324 7.70875 9.09099 8.09099C8.70875 8.47324 8.23748 8.6223 7.74585 8.6884C7.2871 8.75007 6.71424 8.75004 6.04937 8.75001H5.95064C5.28577 8.75004 4.71291 8.75007 4.25416 8.6884C3.76252 8.6223 3.29126 8.47324 2.90901 8.09099C2.52677 7.70875 2.37771 7.23748 2.31161 6.74585C2.24993 6.28711 2.24996 5.71427 2.25 5.04943V5.04938L2.25 5L2.25 4.95063V4.95058C2.24996 4.28574 2.24993 3.71289 2.31161 3.25416C2.37771 2.76252 2.52677 2.29126 2.90901 1.90901C3.29126 1.52677 3.76252 1.37771 4.25416 1.31161C4.71289 1.24993 5.28574 1.24996 5.95058 1.25H5.95063Z" fill="#141B34"/>
<path d="M5.95063 15.25L6 15.25L6.04938 15.25H6.04943C6.71427 15.25 7.28711 15.2499 7.74585 15.3116C8.23748 15.3777 8.70875 15.5268 9.09099 15.909C9.47324 16.2913 9.6223 16.7625 9.6884 17.2542C9.75007 17.7129 9.75004 18.2858 9.75001 18.9506V19.0494C9.75004 19.7142 9.75007 20.2871 9.6884 20.7458C9.6223 21.2375 9.47324 21.7087 9.09099 22.091C8.70875 22.4732 8.23748 22.6223 7.74585 22.6884C7.2871 22.7501 6.71424 22.75 6.04937 22.75H5.95064C5.28577 22.75 4.71291 22.7501 4.25416 22.6884C3.76252 22.6223 3.29126 22.4732 2.90901 22.091C2.52677 21.7087 2.37771 21.2375 2.31161 20.7458C2.24993 20.2871 2.24996 19.7143 2.25 19.0494V19.0494L2.25 19L2.25 18.9506V18.9506C2.24996 18.2857 2.24993 17.7129 2.31161 17.2542C2.37771 16.7625 2.52677 16.2913 2.90901 15.909C3.29126 15.5268 3.76252 15.3777 4.25416 15.3116C4.71289 15.2499 5.28574 15.25 5.95058 15.25H5.95063Z" fill="#141B34"/>
<path d="M17.9506 3.25L18 3.25L18.0494 3.25H18.0494C18.7143 3.24996 19.2871 3.24993 19.7458 3.31161C20.2375 3.37771 20.7087 3.52677 21.091 3.90901C21.4732 4.29126 21.6223 4.76252 21.6884 5.25416C21.7501 5.71291 21.75 6.28577 21.75 6.95064V7.04937C21.75 7.71424 21.7501 8.2871 21.6884 8.74585C21.6223 9.23748 21.4732 9.70875 21.091 10.091C20.7087 10.4732 20.2375 10.6223 19.7458 10.6884C19.2871 10.7501 18.7142 10.75 18.0494 10.75H17.9506C17.2858 10.75 16.7129 10.7501 16.2542 10.6884C15.7625 10.6223 15.2913 10.4732 14.909 10.091C14.5268 9.70875 14.3777 9.23748 14.3116 8.74585C14.2499 8.28711 14.25 7.71427 14.25 7.04943V7.04938L14.25 7L14.25 6.95063V6.95058C14.25 6.28574 14.2499 5.71289 14.3116 5.25416C14.3777 4.76252 14.5268 4.29126 14.909 3.90901C15.2913 3.52677 15.7625 3.37771 16.2542 3.31161C16.7129 3.24993 17.2857 3.24996 17.9506 3.25H17.9506Z" fill="#141B34"/>
</svg>
