<svg width="24" height="24" viewBox="0 0 24 24" fill="none" xmlns="http://www.w3.org/2000/svg">
<path fill-rule="evenodd" clip-rule="evenodd" d="M7.16793 3.94531C7.47429 3.48579 8.09516 3.36161 8.55468 3.66796L16.0547 8.66796C16.3281 8.85026 16.4946 9.15529 16.4999 9.48389C16.5052 9.8125 16.3487 10.1227 16.0812 10.3137L10.2602 14.4716L16.5547 18.668C17.0142 18.9743 17.1384 19.5952 16.832 20.0547C16.5257 20.5142 15.9048 20.6384 15.4453 20.3321L7.94528 15.3321C7.67183 15.1498 7.50541 14.8447 7.50011 14.5161C7.49482 14.1875 7.65132 13.8773 7.91875 13.6863L13.7398 9.5284L7.44528 5.33206C6.98576 5.02571 6.86158 4.40484 7.16793 3.94531Z" fill="#141B34"/>
<path d="M15.25 19.5C15.25 17.7051 16.7051 16.25 18.5 16.25C20.2949 16.25 21.75 17.7051 21.75 19.5C21.75 21.2949 20.2949 22.75 18.5 22.75C16.7051 22.75 15.25 21.2949 15.25 19.5Z" fill="#141B34"/>
<path d="M15.25 9.5C15.25 7.70507 16.7051 6.25 18.5 6.25C20.2949 6.25 21.75 7.70507 21.75 9.5C21.75 11.2949 20.2949 12.75 18.5 12.75C16.7051 12.75 15.25 11.2949 15.25 9.5Z" fill="#141B34"/>
<path d="M2.25 14.5C2.25 12.7051 3.70507 11.25 5.5 11.25C7.29493 11.25 8.75 12.7051 8.75 14.5C8.75 16.2949 7.29493 17.75 5.5 17.75C3.70507 17.75 2.25 16.2949 2.25 14.5Z" fill="#141B34"/>
<path d="M2.25 4.5C2.25 2.70507 3.70507 1.25 5.5 1.25C7.29493 1.25 8.75 2.70507 8.75 4.5C8.75 6.29493 7.29493 7.75 5.5 7.75C3.70507 7.75 2.25 6.29493 2.25 4.5Z" fill="#141B34"/>
</svg>
