<svg width="24" height="24" viewBox="0 0 24 24" fill="none" xmlns="http://www.w3.org/2000/svg">
<path d="M20.6311 1.28713C20.9096 1.32673 21.3178 1.43429 21.5735 1.83053C21.8363 2.23779 21.7526 2.65912 21.6599 2.93032C21.5755 3.17736 21.4253 3.46492 21.2752 3.75226L21.2752 3.75227L21.2533 3.79428L15.7545 14.3288C15.6178 14.5906 15.5415 14.7387 15.4957 14.8531C15.4729 14.9099 15.4661 14.9387 15.4643 14.9498C15.4673 14.9608 15.4774 14.9891 15.507 15.0444C15.5656 15.1539 15.6584 15.2936 15.8235 15.5397L18.8446 20.0413L18.8724 20.0827C19.0764 20.3864 19.2749 20.6821 19.395 20.9368C19.5217 21.2053 19.6702 21.6538 19.4096 22.111C19.1564 22.5552 18.707 22.6689 18.417 22.71C18.134 22.7502 17.772 22.7501 17.3919 22.75H17.3918L17.3437 22.75H15.2187C14.9481 22.75 14.6956 22.7501 14.4815 22.7298C14.2447 22.7073 13.9978 22.6562 13.7536 22.5205C13.5076 22.3837 13.3348 22.2005 13.1929 22.0092C13.0664 21.8386 12.9396 21.6259 12.8061 21.4022L12.8061 21.4021L9.7561 16.2894L9.7561 16.2894C9.63285 16.0828 9.51503 15.8854 9.4307 15.7074C9.33637 15.5084 9.25831 15.2836 9.25062 15.018C9.24292 14.7523 9.30789 14.5234 9.39071 14.3192C9.46468 14.1369 9.57097 13.9333 9.68203 13.7207L15.404 2.75854L15.4186 2.73056C15.5464 2.48571 15.6677 2.25337 15.7916 2.06678C15.9307 1.85744 16.1042 1.65559 16.3603 1.50398C16.6145 1.3535 16.8749 1.29707 17.1246 1.27233C17.3506 1.24996 17.6182 1.24998 17.9058 1.25001L19.6547 1.25001L19.7004 1.25001C20.039 1.24993 20.3691 1.24986 20.6311 1.28713Z" fill="#141B34"/>
<path d="M4.23125 5.25001L4.27746 5.25002H5.4134L5.44464 5.25001C5.71577 5.24998 5.97342 5.24995 6.19185 5.27273C6.43626 5.29822 6.69373 5.35688 6.94402 5.51293C7.1939 5.66872 7.36014 5.87391 7.49117 6.08164C7.60864 6.26788 7.72351 6.49972 7.8449 6.74468L7.85869 6.77252L9.34566 9.77252L9.38849 9.85846C9.56249 10.2066 9.74999 10.5817 9.74999 11C9.74999 11.4183 9.56249 11.7935 9.3885 12.1416L9.34565 12.2275L7.8449 15.2553C7.72352 15.5003 7.60864 15.7321 7.49117 15.9184C7.36014 16.1261 7.1939 16.3313 6.94402 16.4871C6.69372 16.6432 6.43626 16.7018 6.19185 16.7273C5.97343 16.7501 5.71579 16.7501 5.44467 16.75H5.44465L4.27746 16.75L4.23124 16.75C3.91239 16.7501 3.59382 16.7502 3.33945 16.7121C3.06052 16.6703 2.65992 16.5555 2.41433 16.1547C2.17006 15.756 2.24721 15.3479 2.33388 15.0807C2.41345 14.8354 2.55549 14.5491 2.69843 14.2609L2.71882 14.2197L4.03645 11.5614C4.15094 11.3304 4.21494 11.1998 4.25458 11.0983C4.2723 11.0529 4.2795 11.027 4.28254 11.0135C4.28397 11.0071 4.2846 11.0022 4.2846 11.0022L4.28475 11L4.2846 10.9978C4.2846 10.9978 4.28397 10.9929 4.28254 10.9865C4.2795 10.973 4.2723 10.9471 4.25458 10.9017C4.21494 10.8003 4.15094 10.6696 4.03645 10.4387L2.71882 7.7803L2.69843 7.73918C2.55549 7.45098 2.41345 7.1646 2.33388 6.91929C2.24721 6.65211 2.17006 6.24404 2.41433 5.84534C2.65992 5.44449 3.06052 5.32972 3.33945 5.28793C3.59382 5.24983 3.91239 5.24992 4.23125 5.25001Z" fill="#141B34"/>
</svg>
