<svg width="24" height="24" viewBox="0 0 24 24" fill="none" xmlns="http://www.w3.org/2000/svg">
<path d="M14.75 4C14.75 2.48122 13.5188 1.25 12 1.25C10.4812 1.25 9.25 2.48122 9.25 4C9.25 5.51878 10.4812 6.75 12 6.75C13.5188 6.75 14.75 5.51878 14.75 4Z" fill="#141B34"/>
<path d="M12 7.25C15.7279 7.25 18.75 10.2721 18.75 14C18.75 14.4142 18.4142 14.75 18 14.75C15.3878 14.75 13.1222 13.2662 12 11.0954C10.8778 13.2662 8.6122 14.75 6 14.75C5.58579 14.75 5.25 14.4142 5.25 14C5.25 10.2721 8.27208 7.25 12 7.25Z" fill="#141B34"/>
<path d="M3.44436 18.5591L7.09061 16.652C7.51434 16.4304 7.84418 16.1512 8.05613 15.9339C8.20257 15.7837 8.27579 15.7086 8.32511 15.6774C8.37442 15.6461 8.4541 15.6185 8.61346 15.5634C9.78682 15.1578 10.8361 14.4869 11.6897 13.623C11.8402 13.4707 11.9155 13.3945 11.999 13.3945C12.0826 13.3945 12.1578 13.4707 12.3083 13.623C13.162 14.4869 14.2112 15.1578 15.3846 15.5634C15.5439 15.6185 15.6236 15.6461 15.6729 15.6774C15.7223 15.7086 15.7955 15.7837 15.9419 15.9339C16.1539 16.1512 16.4837 16.4304 16.9074 16.652L20.5537 18.5591C21.6361 19.1253 21.9391 20.214 21.6382 21.1327C21.3481 22.0181 20.5001 22.7504 19.3689 22.7504C17.497 22.7504 15.8375 22.2953 14.268 21.6901C13.6871 21.4661 12.8602 21.1047 12.1626 20.7932C12.082 20.7572 12.0417 20.7391 11.999 20.7391C11.9564 20.7391 11.9161 20.7572 11.8354 20.7932C11.1379 21.1047 10.3109 21.4661 9.73007 21.6901C8.16052 22.2953 6.50105 22.7504 4.62919 22.7504C3.49796 22.7504 2.64991 22.0181 2.3599 21.1327C2.05894 20.214 2.36197 19.1253 3.44436 18.5591Z" fill="#141B34"/>
</svg>
