<svg width="24" height="24" viewBox="0 0 24 24" fill="none" xmlns="http://www.w3.org/2000/svg">
<path d="M9.92394 1.74199C10.6718 1.4479 11.1751 1.25 12.0009 1.25C12.8268 1.25 13.3301 1.4479 14.0779 1.74199C16.896 2.84975 19.2349 4.57534 20.7095 5.95067C20.9861 6.20856 21.2618 6.46552 21.4433 6.70566C21.6532 6.98337 21.8631 7.40639 21.6845 7.91548C21.6016 8.15179 21.4501 8.34715 21.2419 8.48498C21.0524 8.61049 20.8486 8.66662 20.6816 8.6966C20.3827 8.75028 19.9986 8.75015 19.6147 8.75001H4.38715C4.00327 8.75015 3.61922 8.75028 3.32027 8.6966C3.15331 8.66662 2.9495 8.61049 2.75993 8.48498C2.55173 8.34715 2.40024 8.15179 2.31735 7.91548C2.13878 7.40639 2.34868 6.98336 2.55856 6.70566C2.74005 6.46552 3.01573 6.20856 3.29241 5.95067C4.76698 4.57535 7.10585 2.84975 9.92394 1.74199Z" fill="#141B34"/>
<path fill-rule="evenodd" clip-rule="evenodd" d="M2.25 22C2.25 21.5858 2.58579 21.25 3 21.25H21C21.4142 21.25 21.75 21.5858 21.75 22C21.75 22.4142 21.4142 22.75 21 22.75H3C2.58579 22.75 2.25 22.4142 2.25 22Z" fill="#141B34"/>
<path d="M21.5702 12.8385L21.57 12.8365L21.5699 12.835C21.504 12.0655 21.4316 11.2185 21.3751 10.55C21.353 10.2889 21.342 10.1583 21.2559 10.0792C21.1698 10.0001 21.0388 10.0001 20.7768 10.0001L3.22486 10C2.96286 10 2.83186 10 2.74578 10.0791C2.65969 10.1582 2.64866 10.2888 2.62659 10.5499C2.57002 11.2192 2.49746 12.0674 2.43157 12.8376C2.37415 13.5088 2.29655 14.1791 2.2747 14.8519C2.26872 15.0361 2.26573 15.1282 2.32467 15.1891C2.38362 15.25 2.47809 15.25 2.66704 15.25H7.85107C8.03831 15.25 8.13193 15.25 8.19035 15.1923C8.24878 15.1346 8.24996 15.0397 8.25233 14.85C8.25662 14.5071 8.2746 14.1642 8.34835 13.8285C8.42606 13.4748 8.57073 13.1287 8.85024 12.8492C9.12975 12.5697 9.47587 12.425 9.82959 12.3473C10.1748 12.2714 10.5712 12.25 11.0011 12.25H13.0011C13.431 12.25 13.8273 12.2714 14.1726 12.3473C14.5263 12.425 14.8724 12.5697 15.1519 12.8492C15.4314 13.1287 15.5761 13.4748 15.6538 13.8285C15.7275 14.1642 15.7455 14.5071 15.7498 14.85C15.7522 15.0397 15.7534 15.1346 15.8118 15.1923C15.8702 15.25 15.9638 15.25 16.1511 15.25H21.3346C21.5236 15.25 21.618 15.25 21.677 15.1891C21.7359 15.1282 21.7329 15.0361 21.727 14.8519C21.7051 14.1794 21.6276 13.5094 21.5702 12.8385Z" fill="#141B34"/>
<path fill-rule="evenodd" clip-rule="evenodd" d="M8.25107 22V17.15C8.25107 16.9614 8.25107 16.8672 8.19249 16.8086C8.13391 16.75 8.03963 16.75 7.85107 16.75H2.82675C2.6235 16.75 2.52187 16.75 2.46246 16.8145C2.40304 16.879 2.4114 16.9803 2.42811 17.1828C2.4995 18.0481 2.57797 18.9972 2.63264 19.653C2.72701 20.785 3.14727 21.7103 3.96764 22.5304C4.10829 22.671 4.29901 22.75 4.49788 22.75H19.5038C19.7026 22.75 19.8934 22.671 20.034 22.5304C20.8544 21.7103 21.2746 20.785 21.369 19.653C21.4237 18.9972 21.5022 18.0481 21.5735 17.1828C21.5903 16.9803 21.5986 16.879 21.5392 16.8145C21.4798 16.75 21.3782 16.75 21.1749 16.75H16.1511C15.9625 16.75 15.8682 16.75 15.8096 16.8086C15.7511 16.8672 15.7511 16.9614 15.7511 17.15V22C15.7511 22.4142 15.4153 22.75 15.0011 22.75C14.5869 22.75 14.2511 22.4142 14.2511 22V15C14.2511 14.6026 14.2293 14.3353 14.1887 14.1504C14.1406 13.9311 14.07 13.8605 13.8507 13.8123C13.6658 13.7717 13.3985 13.75 13.0011 13.75H11.0011C10.6036 13.75 10.3363 13.7717 10.1514 13.8123C9.93217 13.8605 9.86158 13.9311 9.81342 14.1504C9.7728 14.3353 9.75107 14.6026 9.75107 15V22C9.75107 22.4142 9.41529 22.75 9.00107 22.75C8.58686 22.75 8.25107 22.4142 8.25107 22ZM12.0011 15C11.4488 15 11.0011 15.4477 11.0011 16C11.0011 16.5523 11.4488 17 12.0011 17H12.01C12.5623 17 13.01 16.5523 13.01 16C13.01 15.4477 12.5623 15 12.01 15H12.0011Z" fill="#141B34"/>
</svg>
