<svg xmlns="http://www.w3.org/2000/svg" width="24" height="24" viewBox="0 0 24 24">
    <path d="M16.008 7.008c1.090-0.014 1.968-0.9 1.968-1.992 0-1.1-0.892-1.992-1.992-1.992-1.092 0-1.978 0.878-1.992 1.967l-0 0.001c-0 0.007-0 0.016-0 0.024 0 1.1 0.892 1.992 1.992 1.992 0.008 0 0.017-0 0.025-0l-0.001 0zM12.696 18.408c-0.74 0.965-1.893 1.582-3.19 1.582-2.214 0-4.008-1.794-4.008-4.008 0-2.052 1.542-3.744 3.531-3.98l0.019-0.002c0.001 0 0.002 0 0.003 0 0.557 0 1.008-0.451 1.008-1.008s-0.451-1.008-1.008-1.008c-0.077 0-0.153 0.009-0.225 0.025l0.007-0.001c-3.171 0.183-5.673 2.799-5.673 6 0 3.319 2.691 6.009 6.009 6.009 0.118 0 0.236-0.003 0.352-0.010l-0.016 0.001c1.956 0 3.694-0.936 4.789-2.385l0.011-0.015c0.091-0.149 0.145-0.329 0.145-0.521 0-0.557-0.451-1.008-1.008-1.008-0.295 0-0.56 0.127-0.745 0.329l-0.001 0.001zM19.512 19.992h-1.008v-4.992c0-0.557-0.451-1.008-1.008-1.008v0h-4.56l1.68-4.656v-0.312c0.002-0.025 0.003-0.054 0.003-0.084s-0.001-0.059-0.003-0.088l0 0.004c0.003-0.029 0.004-0.062 0.004-0.096s-0.002-0.067-0.005-0.1l0 0.004c-0.032-0.065-0.064-0.12-0.099-0.173l0.003 0.005c-0.028-0.055-0.060-0.102-0.097-0.145l0.001 0.001c-0.041-0.056-0.088-0.103-0.142-0.143l-0.002-0.001s0-0.048-0.096-0.072l-4.464-2.592h-0.12c-0.055-0.020-0.119-0.037-0.186-0.047l-0.006-0.001h-0.408c-0.073 0.017-0.137 0.042-0.196 0.074l0.004-0.002h-0.12l-2.688 1.56c-0.296 0.179-0.49 0.499-0.49 0.865 0 0.543 0.43 0.986 0.968 1.007l0.002 0c0.015 0.001 0.032 0.001 0.049 0.001 0.176 0 0.341-0.045 0.484-0.124l-0.005 0.003 2.232-1.32 3.24 1.896-1.896 5.208c-0.002 0.022-0.003 0.047-0.003 0.072s0.001 0.050 0.003 0.075l-0-0.003c-0.005 0.029-0.008 0.062-0.008 0.096s0.003 0.067 0.009 0.099l-0-0.003c0.018 0.148 0.043 0.278 0.077 0.405l-0.005-0.021 0.12 0.144c0.024 0.064 0.056 0.12 0.097 0.169l-0.001-0.001c0.041 0.028 0.089 0.052 0.139 0.071l0.005 0.001c0.056 0.043 0.119 0.083 0.185 0.117l0.007 0.003c0.099 0.041 0.214 0.067 0.334 0.072l0.002 0h5.016v4.992c0 0 0 0 0 0 0 0.548 0.438 0.994 0.983 1.008l0.001 0h2.016c0.486-0.078 0.853-0.494 0.853-0.996s-0.367-0.918-0.847-0.995l-0.006-0.001z"></path>
</svg>
