<svg xmlns="http://www.w3.org/2000/svg" width="24" height="24" viewBox="0 0 24 24">
    <path d="M21.72 7.296c-0.183-0.187-0.438-0.303-0.72-0.303s-0.537 0.116-0.72 0.302l-6.288 6.288-4.272-4.296c-0.183-0.187-0.438-0.303-0.72-0.303s-0.537 0.116-0.72 0.302l-6 6c-0.18 0.182-0.291 0.432-0.291 0.708s0.111 0.526 0.291 0.708l-0-0c0.183 0.187 0.438 0.303 0.72 0.303s0.537-0.116 0.72-0.302l0-0 5.28-5.304 4.296 4.32c0.182 0.18 0.432 0.291 0.708 0.291s0.526-0.111 0.708-0.291l7.008-7.008c0.18-0.182 0.291-0.432 0.291-0.708s-0.111-0.526-0.291-0.708l0 0z"></path>
</svg>
