<svg xmlns="http://www.w3.org/2000/svg" width="24" height="24" viewBox="0 0 24 24">
<path d="M11.28 12l3.552-3.552c0.173-0.181 0.279-0.426 0.279-0.696s-0.106-0.515-0.279-0.696l0 0c-0.182-0.18-0.432-0.291-0.708-0.291s-0.526 0.111-0.708 0.291l0-0-4.248 4.224c-0.187 0.183-0.303 0.438-0.303 0.72s0.116 0.537 0.302 0.72l0 0 4.248 4.272c0.179 0.176 0.425 0.285 0.695 0.288h0.001c0.004 0 0.009 0 0.014 0 0.275 0 0.524-0.11 0.706-0.288l-0 0c0.173-0.181 0.279-0.426 0.279-0.696s-0.106-0.515-0.279-0.696l0 0z"></path>
</svg>
