<svg xmlns="http://www.w3.org/2000/svg" width="24" height="24" viewBox="0 0 24 24">
    <path d="M12.72 12.528c-0.183-0.187-0.438-0.303-0.72-0.303s-0.537 0.116-0.72 0.302l-3 3c-0.189 0.186-0.307 0.445-0.307 0.732 0 0.567 0.46 1.027 1.027 1.027 0.281 0 0.535-0.113 0.72-0.295l-0 0 2.28-2.328 2.28 2.328c0.183 0.187 0.438 0.303 0.72 0.303s0.537-0.116 0.72-0.302l0-0c0.18-0.182 0.291-0.432 0.291-0.708s-0.111-0.526-0.291-0.708l0 0zM9.72 11.448l2.28-2.28 2.28 2.28c0.183 0.187 0.438 0.303 0.72 0.303s0.537-0.116 0.72-0.302l0-0c0.18-0.182 0.291-0.432 0.291-0.708s-0.111-0.526-0.291-0.708l-3-3c-0.183-0.187-0.438-0.303-0.72-0.303s-0.537 0.116-0.72 0.302l-3 3c-0.179 0.182-0.29 0.432-0.29 0.708 0 0.558 0.452 1.010 1.010 1.010 0.282 0 0.537-0.115 0.72-0.302l0-0z"></path>
</svg>
