<svg xmlns="http://www.w3.org/2000/svg" width="24" height="24" viewBox="0 0 24 24">
    <path d="M17.712 11.28l-4.008-3.984c-0.186-0.234-0.471-0.382-0.79-0.382-0.557 0-1.008 0.451-1.008 1.008 0 0.319 0.149 0.604 0.38 0.789l0.002 0.002 2.304 2.28h-11.592c-0.557 0-1.008 0.451-1.008 1.008s0.451 1.008 1.008 1.008v0h11.592l-2.304 2.28c-0.18 0.182-0.291 0.432-0.291 0.708s0.111 0.526 0.291 0.708l-0-0c0.182 0.18 0.432 0.291 0.708 0.291s0.526-0.111 0.708-0.291l-0 0 4.008-3.984c0.091-0.094 0.164-0.205 0.214-0.329l0.002-0.007c0.048-0.114 0.076-0.245 0.076-0.384s-0.028-0.27-0.078-0.391l0.002 0.007c-0.052-0.131-0.125-0.242-0.216-0.336l0 0zM21 4.008c-0 0-0 0-0 0-0.548 0-0.994 0.438-1.008 0.983l-0 0.001v14.016c0 0.557 0.451 1.008 1.008 1.008s1.008-0.451 1.008-1.008v0-14.016c-0.013-0.546-0.459-0.984-1.008-0.984-0 0-0 0-0 0h0z"></path>
</svg>
