<svg xmlns="http://www.w3.org/2000/svg" width="24" height="24" viewBox="0 0 24 24">
    <path d="M8.28 11.28c-0.082 0.095-0.147 0.206-0.19 0.329l-0.002 0.007c-0.048 0.114-0.076 0.245-0.076 0.384s0.028 0.27 0.078 0.391l-0.002-0.007c0.045 0.13 0.11 0.241 0.193 0.337l-0.001-0.001 3 3c0.184 0.184 0.439 0.298 0.72 0.298 0.562 0 1.018-0.456 1.018-1.018 0-0.281-0.114-0.536-0.298-0.72v0l-1.32-1.272h3.6c0.557 0 1.008-0.451 1.008-1.008s-0.451-1.008-1.008-1.008v0h-3.6l1.32-1.272c0.187-0.183 0.303-0.438 0.303-0.72s-0.116-0.537-0.302-0.72l-0-0c-0.183-0.187-0.438-0.303-0.72-0.303s-0.537 0.116-0.72 0.302l-0 0zM1.992 12c0 5.527 4.481 10.008 10.008 10.008s10.008-4.481 10.008-10.008c0-5.527-4.481-10.008-10.008-10.008v0c-5.527 0-10.008 4.481-10.008 10.008v0zM19.992 12c0 4.414-3.578 7.992-7.992 7.992s-7.992-3.578-7.992-7.992c0-4.414 3.578-7.992 7.992-7.992v0c4.414 0 7.992 3.578 7.992 7.992v0z"></path>
</svg>
