<svg xmlns="http://www.w3.org/2000/svg" width="24" height="24" viewBox="0 0 24 24">
<path d="M19.008 6.504h-3v-1.008c0-1.657-1.343-3-3-3v0h-2.016c-1.657 0-3 1.343-3 3v0 1.008h-3c-1.657 0-3 1.343-3 3v0 9c0 1.657 1.343 3 3 3v0h14.016c1.657 0 3-1.343 3-3v0-9c0-1.657-1.343-3-3-3v0zM10.008 5.496c0-0 0-0 0-0 0-0.548 0.438-0.994 0.983-1.008l0.001-0h2.016c0.546 0.013 0.984 0.459 0.984 1.008 0 0 0 0 0 0v-0 1.008h-3.984zM19.992 18.504c-0.013 0.538-0.446 0.971-0.983 0.984l-0.001 0h-14.016c-0.538-0.013-0.971-0.446-0.984-0.983l-0-0.001v-5.496c2.359 0.957 5.096 1.512 7.962 1.512 0.010 0 0.021 0 0.031-0h-0.002c0.008 0 0.016 0 0.025 0 2.868 0 5.606-0.555 8.113-1.564l-0.146 0.052zM19.992 10.8c-2.353 1.059-5.1 1.676-7.992 1.676s-5.639-0.617-8.118-1.726l0.126 0.050v-1.296c0-0 0-0 0-0 0-0.548 0.438-0.994 0.983-1.008l0.001-0h14.016c0.546 0.013 0.984 0.459 0.984 1.008 0 0 0 0 0 0v-0z"></path>
</svg>
