<svg xmlns="http://www.w3.org/2000/svg" width="24" height="24" viewBox="0 0 24 24">
<path d="M19.992 3.504h-15.984c-1.657 0-3 1.343-3 3v0 12.984c0 0 0 0 0 0 0 0.548 0.438 0.994 0.983 1.008l0.001 0h4.008c0.35-0.001 0.658-0.181 0.838-0.452l0.002-0.004 1.704-2.544h6.912l1.704 2.544c0.182 0.275 0.49 0.455 0.84 0.456h4.008c0.546-0.013 0.984-0.459 0.984-1.008 0-0 0-0 0-0v0-12.984c0-1.657-1.343-3-3-3v0zM21 18.504h-2.472l-1.704-2.496c-0.168-0.288-0.467-0.483-0.813-0.504l-0.003-0h-8.016c-0.341 0.010-0.638 0.187-0.814 0.452l-0.002 0.004-1.728 2.544h-2.448v-5.016h18zM7.008 11.496v-1.008c0.013-0.538 0.446-0.971 0.983-0.984l0.001-0h2.016c0.538 0.013 0.971 0.446 0.984 0.983l0 0.001v1.008zM13.008 11.496v-1.008c0.013-0.538 0.446-0.971 0.983-0.984l0.001-0h2.016c0.538 0.013 0.971 0.446 0.984 0.983l0 0.001v1.008zM21 11.496h-1.992v-1.008c0-1.657-1.343-3-3-3v0h-2.016c-0.77 0.010-1.469 0.31-1.994 0.794l0.002-0.002c-0.523-0.482-1.222-0.782-1.99-0.792l-0.002-0h-2.016c-1.657 0-3 1.343-3 3v0 1.008h-1.992v-4.992c0-0.557 0.451-1.008 1.008-1.008v0h15.984c0.557 0 1.008 0.451 1.008 1.008v0z"></path>
</svg>
