<svg xmlns="http://www.w3.org/2000/svg" width="24" height="24" viewBox="0 0 24 24">
<path d="M11.136 12.12l-0.6 2.4c0.744 0.192 3 0.936 3.336-0.432 0.36-1.416-1.992-1.776-2.736-1.968zM11.952 8.808l-0.552 2.208c0.624 0.144 2.52 0.768 2.808-0.456 0.336-1.296-1.656-1.584-2.256-1.752zM12 1.992c-5.527 0-10.008 4.481-10.008 10.008s4.481 10.008 10.008 10.008c5.527 0 10.008-4.481 10.008-10.008v0c0-5.527-4.481-10.008-10.008-10.008v0zM16.368 10.584c-0.050 0.796-0.625 1.444-1.381 1.606l-0.011 0.002c0.705 0.302 1.191 0.99 1.191 1.792 0 0.318-0.076 0.618-0.212 0.883l0.005-0.011c-0.576 1.68-1.968 1.824-3.816 1.464l-0.456 1.824-1.080-0.264 0.432-1.8c-0.264-0.072-0.552-0.144-0.864-0.216l-0.432 1.8-1.080-0.288 0.456-1.824c-0.264-0.048-0.528-0.12-0.792-0.192l-1.416-0.36 0.552-1.248s0.792 0.216 0.792 0.192c0.033 0.010 0.071 0.016 0.11 0.016 0.175 0 0.323-0.117 0.369-0.277l0.001-0.003 1.224-4.944c0.002-0.016 0.002-0.034 0.002-0.052 0-0.294-0.22-0.536-0.504-0.571l-0.003-0c0.024-0.024-0.792-0.192-0.792-0.192l0.288-1.176 1.512 0.36v0.024c0.216 0.048 0.456 0.096 0.672 0.168l0.456-1.824 1.080 0.288-0.432 1.752c0.288 0.072 0.576 0.144 0.864 0.216l0.432-1.752 1.080 0.264-0.432 1.8c1.368 0.48 2.376 1.2 2.184 2.544z"></path>
</svg>
