<svg xmlns="http://www.w3.org/2000/svg" width="24" height="24" viewBox="0 0 24 24">
<path d="M8.664 4.224c0.081 0.023 0.173 0.036 0.269 0.036 0.256 0 0.49-0.096 0.668-0.253l-0.001 0.001h5.088l-1.248 4.728c-0.021 0.078-0.034 0.167-0.034 0.259 0 0.228 0.076 0.439 0.204 0.608l-0.002-0.003c0.182 0.244 0.468 0.402 0.791 0.408l0.001 0h3.6l-1.128 1.224c-0.159 0.177-0.256 0.413-0.256 0.672 0 0.294 0.126 0.559 0.328 0.744l0.001 0.001c0.177 0.162 0.412 0.262 0.672 0.264h0c0.295-0.002 0.56-0.131 0.743-0.335l0.001-0.001 2.64-2.904c0.159-0.178 0.257-0.413 0.257-0.672 0-0.557-0.451-1.008-1.008-1.008-0.006 0-0.012 0-0.018 0l0.001-0h-4.536l1.296-4.728c0.021-0.078 0.034-0.167 0.034-0.259 0-0.228-0.076-0.439-0.204-0.608l0.002 0.003c-0.186-0.249-0.479-0.408-0.81-0.408-0.002 0-0.004 0-0.006 0h-7.008c-0.010-0-0.023-0.001-0.035-0.001-0.463 0-0.853 0.312-0.971 0.738l-0.002 0.007v0.264c-0.022 0.079-0.035 0.169-0.035 0.262 0 0.449 0.294 0.83 0.7 0.96l0.007 0.002zM21.672 20.28l-18-18c-0.168-0.13-0.381-0.208-0.613-0.208-0.557 0-1.008 0.451-1.008 1.008 0 0.244 0.087 0.467 0.231 0.642l-0.001-0.002 4.32 4.272-1.248 4.752c-0.021 0.078-0.034 0.167-0.034 0.259 0 0.228 0.076 0.439 0.204 0.608l-0.002-0.003c0.186 0.235 0.472 0.384 0.792 0.384 0 0 0 0 0 0h3.84l-1.8 6.744c-0.024 0.081-0.037 0.175-0.037 0.272 0 0.377 0.206 0.705 0.512 0.878l0.005 0.003c0.138 0.076 0.302 0.12 0.477 0.12 0.001 0 0.002 0 0.003 0h-0c0.295-0.002 0.56-0.131 0.743-0.335l0.001-0.001 4.848-5.352 5.376 5.4c0.183 0.187 0.438 0.303 0.72 0.303s0.537-0.116 0.72-0.302l0-0c0.187-0.183 0.303-0.438 0.303-0.72s-0.116-0.537-0.302-0.72l-0-0zM7.632 12l0.624-2.352 2.328 2.352zM11.352 17.28l1.008-3.552 1.2 1.176z"></path>
</svg>
