<svg xmlns="http://www.w3.org/2000/svg" width="24" height="24" viewBox="0 0 24 24">
    <path d="M15 6h-6c-0.557 0-1.008 0.451-1.008 1.008v0 3.984c0 0.557 0.451 1.008 1.008 1.008v0h6c0.557 0 1.008-0.451 1.008-1.008v0-3.984c0-0.557-0.451-1.008-1.008-1.008v0zM13.992 10.008h-3.984v-2.016h3.984zM16.992 1.992h-12c-0.546 0.013-0.984 0.459-0.984 1.008 0 0 0 0 0 0v-0 18c0 0 0 0 0 0 0 0.548 0.438 0.994 0.983 1.008l0.001 0h12c1.657 0 3-1.343 3-3v0-14.016c0-1.657-1.343-3-3-3v0zM18 19.008c-0.013 0.546-0.459 0.984-1.008 0.984-0 0-0 0-0 0h-10.992v-15.984h10.992c0 0 0 0 0 0 0.548 0 0.994 0.438 1.008 0.983l0 0.001z"></path>
</svg>
