<svg xmlns="http://www.w3.org/2000/svg" width="24" height="24" viewBox="0 0 24 24">
<path d="M7.992 18.504c-0.557 0-1.008 0.451-1.008 1.008s0.451 1.008 1.008 1.008 1.008-0.451 1.008-1.008c0-0.008-0-0.017-0-0.025l0 0.001c-0.013-0.546-0.459-0.984-1.008-0.984-0 0-0 0-0 0h0zM7.992 10.488c-0.557 0-1.008 0.451-1.008 1.008s0.451 1.008 1.008 1.008c0.557 0 1.008-0.451 1.008-1.008v0c0-0.557-0.451-1.008-1.008-1.008v0zM12 18.504c-0.557 0-1.008 0.451-1.008 1.008s0.451 1.008 1.008 1.008 1.008-0.451 1.008-1.008c0-0.008-0-0.017-0-0.025l0 0.001c-0.013-0.546-0.459-0.984-1.008-0.984-0 0-0 0-0 0h0zM4.008 6.504c-0.007-0-0.015-0-0.024-0-0.557 0-1.008 0.451-1.008 1.008s0.451 1.008 1.008 1.008c0.557 0 1.008-0.451 1.008-1.008 0-0.008-0-0.017-0-0.025l0 0.001c-0.013-0.538-0.446-0.971-0.983-0.984l-0.001-0zM4.008 18.504c-0.007-0-0.015-0-0.024-0-0.557 0-1.008 0.451-1.008 1.008s0.451 1.008 1.008 1.008c0.557 0 1.008-0.451 1.008-1.008 0-0.008-0-0.017-0-0.025l0 0.001c-0.013-0.538-0.446-0.971-0.983-0.984l-0.001-0zM4.008 4.488h15.984c0.486-0.078 0.853-0.494 0.853-0.996s-0.367-0.918-0.847-0.995l-0.006-0.001h-15.984c-0.486 0.078-0.853 0.494-0.853 0.996s0.367 0.918 0.847 0.995l0.006 0.001zM4.008 14.496c-0.007-0-0.016-0-0.024-0-0.557 0-1.008 0.451-1.008 1.008s0.451 1.008 1.008 1.008c0.557 0 1.008-0.451 1.008-1.008v-0c0-0 0-0 0-0 0-0.548-0.438-0.994-0.983-1.008l-0.001-0zM4.008 10.488c-0.007-0-0.016-0-0.024-0-0.557 0-1.008 0.451-1.008 1.008s0.451 1.008 1.008 1.008c0.557 0 1.008-0.451 1.008-1.008v-0c0-0 0-0 0-0 0-0.548-0.438-0.994-0.983-1.008l-0.001-0zM12 6.504c-0.557 0-1.008 0.451-1.008 1.008s0.451 1.008 1.008 1.008 1.008-0.451 1.008-1.008c0-0.008-0-0.017-0-0.025l0 0.001c-0.013-0.546-0.459-0.984-1.008-0.984-0 0-0 0-0 0h0zM19.992 14.496c-0.557 0-1.008 0.451-1.008 1.008s0.451 1.008 1.008 1.008c0.557 0 1.008-0.451 1.008-1.008v0c0-0.557-0.451-1.008-1.008-1.008v0zM19.992 18.504c-0.557 0-1.008 0.451-1.008 1.008s0.451 1.008 1.008 1.008 1.008-0.451 1.008-1.008c0-0.008-0-0.017-0-0.025l0 0.001c-0.013-0.546-0.459-0.984-1.008-0.984-0 0-0 0-0 0h0zM12 14.496c-0.557 0-1.008 0.451-1.008 1.008s0.451 1.008 1.008 1.008c0.557 0 1.008-0.451 1.008-1.008v0c0-0.557-0.451-1.008-1.008-1.008v0zM19.992 6.504c-0.557 0-1.008 0.451-1.008 1.008s0.451 1.008 1.008 1.008c0.557 0 1.008-0.451 1.008-1.008v0c0-0.557-0.451-1.008-1.008-1.008v0zM19.992 10.512c-0.557 0-1.008 0.451-1.008 1.008s0.451 1.008 1.008 1.008 1.008-0.451 1.008-1.008c0-0.008-0-0.017-0-0.025l0 0.001c-0.013-0.546-0.459-0.984-1.008-0.984-0 0-0 0-0 0h0zM12 10.512c-0.557 0-1.008 0.451-1.008 1.008s0.451 1.008 1.008 1.008 1.008-0.451 1.008-1.008c0-0.008-0-0.017-0-0.025l0 0.001c-0.013-0.546-0.459-0.984-1.008-0.984-0 0-0 0-0 0h0zM16.008 10.512c-0.007-0-0.015-0-0.024-0-0.557 0-1.008 0.451-1.008 1.008s0.451 1.008 1.008 1.008c0.557 0 1.008-0.451 1.008-1.008 0-0.008-0-0.017-0-0.025l0 0.001c-0.013-0.538-0.446-0.971-0.983-0.984l-0.001-0zM16.008 18.504c-0.007-0-0.016-0-0.024-0-0.557 0-1.008 0.451-1.008 1.008s0.451 1.008 1.008 1.008c0.557 0 1.008-0.451 1.008-1.008v-0c0-0 0-0 0-0 0-0.548-0.438-0.994-0.983-1.008l-0.001-0z"></path>
</svg>
