<svg xmlns="http://www.w3.org/2000/svg" width="24" height="24" viewBox="0 0 24 24">
<path d="M19.008 13.992h1.992c0.486-0.078 0.853-0.494 0.853-0.996s-0.367-0.918-0.847-0.995l-0.006-0.001h-1.992v-1.008c-0.013-0.484-0.091-0.945-0.226-1.381l0.010 0.037c1.893-0.735 3.212-2.541 3.216-4.655v-0.001c0-0.557-0.451-1.008-1.008-1.008s-1.008 0.451-1.008 1.008v0c0 0.002 0 0.005 0 0.007 0 1.349-0.89 2.49-2.115 2.867l-0.021 0.006c-0.488-0.622-1.107-1.118-1.817-1.451l-0.031-0.013c0.005-0.061 0.008-0.132 0.008-0.204s-0.003-0.143-0.009-0.213l0.001 0.009c0-2.214-1.794-4.008-4.008-4.008s-4.008 1.794-4.008 4.008v0c-0.005 0.061-0.008 0.132-0.008 0.204s0.003 0.143 0.009 0.213l-0.001-0.009c-0.76 0.34-1.396 0.837-1.888 1.454l-0.008 0.010c-1.221-0.398-2.088-1.527-2.088-2.858 0-0.008 0-0.015 0-0.023v0.001c0-0.557-0.451-1.008-1.008-1.008s-1.008 0.451-1.008 1.008v0c0.004 2.115 1.323 3.921 3.182 4.644l0.034 0.012c-0.125 0.399-0.203 0.86-0.216 1.337l-0 0.007v1.008h-1.992c-0.486 0.078-0.853 0.494-0.853 0.996s0.367 0.918 0.847 0.995l0.006 0.001h1.992v1.008c0.003 0.486 0.056 0.958 0.152 1.414l-0.008-0.046c-1.856 0.754-3.142 2.543-3.144 4.632v0c0 0.557 0.451 1.008 1.008 1.008s1.008-0.451 1.008-1.008v0c0.006-1.217 0.736-2.263 1.781-2.728l0.019-0.008c1.202 2.233 3.522 3.726 6.192 3.726s4.99-1.493 6.174-3.689l0.018-0.037c1.064 0.473 1.794 1.519 1.8 2.735v0.001c0 0.557 0.451 1.008 1.008 1.008s1.008-0.451 1.008-1.008v0c-0.002-2.089-1.288-3.878-3.111-4.62l-0.033-0.012c0.088-0.41 0.141-0.882 0.144-1.366l0-0.002zM10.992 19.896c-2.29-0.485-3.984-2.489-3.984-4.889 0-0.002 0-0.005 0-0.007v0-4.008c0-1.657 1.343-3 3-3v0h0.984zM10.008 6c0-1.1 0.892-1.992 1.992-1.992s1.992 0.892 1.992 1.992v0zM16.992 15c0 0.002 0 0.004 0 0.007 0 2.4-1.694 4.405-3.951 4.883l-0.033 0.006v-11.904h0.984c1.657 0 3 1.343 3 3v0z"></path>
</svg>
