<svg xmlns="http://www.w3.org/2000/svg" width="24" height="24" viewBox="0 0 24 24">
    <path d="M8.496 16.992c0 0 0 0 0 0 0.548 0 0.994-0.438 1.008-0.983l0-0.001c0.003-0.032 0.004-0.070 0.004-0.108s-0.002-0.076-0.005-0.113l0 0.005c-0.017-0.064-0.042-0.12-0.074-0.171l0.002 0.003c-0.017-0.073-0.042-0.137-0.074-0.196l0.002 0.004-0.12-0.144c-0.094-0.091-0.205-0.164-0.329-0.214l-0.007-0.002c-0.122-0.056-0.264-0.089-0.415-0.089-0.066 0-0.13 0.006-0.192 0.018l0.006-0.001-0.192 0.048-0.168 0.096c-0.053 0.040-0.1 0.079-0.145 0.121l0.001-0.001-0.12 0.144c-0.039 0.055-0.071 0.119-0.094 0.187l-0.002 0.005c-0.030 0.048-0.055 0.104-0.071 0.163l-0.001 0.005c-0.003 0.032-0.004 0.070-0.004 0.108s0.002 0.076 0.005 0.113l-0-0.005c0.013 0.546 0.459 0.984 1.008 0.984 0 0 0 0 0 0h-0zM16.512 16.992c0.538-0.013 0.971-0.446 0.984-0.983l0-0.001c0.003-0.032 0.004-0.070 0.004-0.108s-0.002-0.076-0.005-0.113l0 0.005c-0.009-0.063-0.026-0.119-0.050-0.172l0.002 0.004c-0.025-0.073-0.057-0.137-0.098-0.195l0.002 0.003-0.12-0.144c-0.095-0.088-0.206-0.161-0.328-0.213l-0.008-0.003c-0.11-0.045-0.238-0.071-0.372-0.071s-0.262 0.026-0.379 0.074l0.007-0.002c-0.13 0.055-0.241 0.128-0.337 0.217l0.001-0.001-0.12 0.144c-0.039 0.055-0.071 0.119-0.094 0.187l-0.002 0.005c-0.022 0.049-0.039 0.105-0.048 0.164l-0 0.004c-0.003 0.032-0.004 0.070-0.004 0.108s0.002 0.076 0.005 0.113l-0-0.005c0.003 0.271 0.112 0.517 0.288 0.696l-0-0c0.174 0.171 0.409 0.279 0.67 0.288l0.002 0zM13.512 4.992h-2.016c-0.557 0-1.008 0.451-1.008 1.008s0.451 1.008 1.008 1.008v0h2.016c0.557 0 1.008-0.451 1.008-1.008s-0.451-1.008-1.008-1.008v0zM18.504 1.992h-12c-1.657 0-3 1.343-3 3v0 12c0 0.002 0 0.004 0 0.006 0 1.295 0.821 2.399 1.971 2.819l0.021 0.007v1.176c0.078 0.486 0.494 0.853 0.996 0.853s0.918-0.367 0.995-0.847l0.001-0.006v-1.008h10.008v1.008c0.078 0.486 0.494 0.853 0.996 0.853s0.918-0.367 0.995-0.847l0.001-0.006v-1.176c1.183-0.42 2.015-1.528 2.016-2.832v-12c0-1.657-1.343-3-3-3v0zM19.488 16.992c0 0 0 0 0 0 0 0.548-0.438 0.994-0.983 1.008l-0.001 0h-12c-0.557 0-1.008-0.451-1.008-1.008v0-3h13.992zM19.488 12h-13.992v-7.008c0.013-0.546 0.459-0.984 1.008-0.984 0 0 0 0 0 0h12c0.538 0.013 0.971 0.446 0.984 0.983l0 0.001z"></path>
</svg>
