<svg xmlns="http://www.w3.org/2000/svg" width="24" height="24" viewBox="0 0 24 24">
<path d="M3.72 2.28c-0.184-0.184-0.439-0.298-0.72-0.298-0.562 0-1.018 0.456-1.018 1.018 0 0.281 0.114 0.536 0.298 0.72v0l2.808 2.784h-0.096c-1.657 0-3 1.343-3 3v0 7.992c0 1.657 1.343 3 3 3v0h14.088l1.2 1.224c0.183 0.187 0.438 0.303 0.72 0.303s0.537-0.116 0.72-0.302l0-0c0.18-0.182 0.291-0.432 0.291-0.708s-0.111-0.526-0.291-0.708l0 0zM10.2 11.616l2.688 2.688c-0.25 0.121-0.544 0.192-0.854 0.192-0.012 0-0.024-0-0.036-0l0.002 0c-1.1 0-1.992-0.892-1.992-1.992v0c-0-0.010-0-0.022-0-0.034 0-0.31 0.071-0.604 0.197-0.866l-0.005 0.012zM4.992 18.504c-0.546-0.013-0.984-0.459-0.984-1.008 0-0 0-0 0-0v0-7.992c0-0 0-0 0-0 0-0.548 0.438-0.994 0.983-1.008l0.001-0h2.088l1.68 1.704c-0.475 0.636-0.763 1.436-0.768 2.303v0.001c0.014 2.203 1.803 3.984 4.008 3.984 0 0 0 0 0 0v0c0 0 0 0 0 0 0.877 0 1.686-0.288 2.338-0.775l-0.010 0.007 2.76 2.784zM19.008 6.504h-1.296l-0.312-1.008c-0.427-1.171-1.53-1.992-2.826-1.992-0.002 0-0.005 0-0.007 0h-4.416c-0.486 0.078-0.853 0.494-0.853 0.996s0.367 0.918 0.847 0.995l0.006 0.001h4.416c0.431 0.006 0.795 0.282 0.934 0.665l0.002 0.007 0.552 1.632c0.133 0.4 0.5 0.686 0.935 0.696l0.001 0h2.016c0.546 0.013 0.984 0.459 0.984 1.008 0 0 0 0 0 0v-0 5.832c0 0.557 0.451 1.008 1.008 1.008s1.008-0.451 1.008-1.008v0-5.832c0-1.657-1.343-3-3-3v0z"></path>
</svg>
