<svg xmlns="http://www.w3.org/2000/svg" width="24" height="24" viewBox="0 0 24 24">
    <path d="M7.008 13.008c-0.007-0-0.015-0-0.024-0-0.557 0-1.008 0.451-1.008 1.008s0.451 1.008 1.008 1.008c0.557 0 1.008-0.451 1.008-1.008 0-0.008-0-0.017-0-0.025l0 0.001c-0.013-0.538-0.446-0.971-0.983-0.984l-0.001-0zM19.752 9.12l-1.344-4.080c-0.426-1.171-1.53-1.992-2.826-1.992-0.011 0-0.021 0-0.032 0l0.002-0h-5.904c-0.486 0.078-0.853 0.494-0.853 0.996s0.367 0.918 0.847 0.995l0.006 0.001h5.904c0.015-0.001 0.032-0.001 0.049-0.001 0.446 0 0.824 0.289 0.957 0.69l0.002 0.007 1.056 3.264h-1.968c-0.486 0.078-0.853 0.494-0.853 0.996s0.367 0.918 0.847 0.995l0.006 0.001h3.36c0.546 0.013 0.984 0.459 0.984 1.008 0 0 0 0 0 0v-0 3.336c0 0.557 0.451 1.008 1.008 1.008s1.008-0.451 1.008-1.008v0-3.336c-0.013-1.382-0.957-2.539-2.235-2.875l-0.021-0.005zM3.768 2.28c-0.188-0.195-0.452-0.315-0.744-0.315-0.572 0-1.035 0.464-1.035 1.035 0 0.28 0.111 0.534 0.292 0.72l-0-0 2.832 2.808-0.864 2.592c-1.299 0.341-2.243 1.498-2.256 2.879v4.009c0.012 1.294 0.841 2.391 1.995 2.802l0.021 0.006v1.176c0.078 0.486 0.494 0.853 0.996 0.853s0.918-0.367 0.995-0.847l0.001-0.006v-0.984h11.592l0.408 0.408v0.576c0 0.557 0.451 1.008 1.008 1.008v0c0.001 0 0.002 0 0.004 0 0.166 0 0.322-0.045 0.457-0.122l-0.004 0.002 0.816 0.84c0.183 0.187 0.438 0.303 0.72 0.303s0.537-0.116 0.72-0.302l0-0c0.187-0.183 0.303-0.438 0.303-0.72s-0.116-0.537-0.302-0.72l-0-0zM6.768 8.088l0.888 0.912h-1.272zM4.992 16.992c-0.538-0.013-0.971-0.446-0.984-0.983l-0-0.001v-4.008c0-0 0-0 0-0 0-0.548 0.438-0.994 0.983-1.008l0.001-0h4.608l1.992 2.016h-0.6c-0.486 0.078-0.853 0.494-0.853 0.996s0.367 0.918 0.847 0.995l0.006 0.001h2.016c0.001 0 0.002 0 0.004 0 0.166 0 0.322-0.045 0.457-0.122l-0.004 0.002 2.136 2.112z"></path>
</svg>
