<svg xmlns="http://www.w3.org/2000/svg" width="24" height="24" viewBox="0 0 24 24">
    <path d="M19.008 12h-7.008v-7.008c0-0.6-0.408-0.984-1.008-0.984-4.992 0-9 3.984-9 9s4.008 9 9 9 9-4.008 9-9c0-0.6-0.384-1.008-0.984-1.008zM12 19.896c-3.792 0.6-7.392-2.088-7.896-5.904-0.6-3.792 2.088-7.392 5.904-7.896v6.912c0 0.6 0.384 0.984 0.984 0.984h6.912c-0.408 3.096-2.808 5.496-5.904 5.904zM15 1.992c-0.6 0-1.008 0.408-1.008 1.008v6c0 0.6 0.408 1.008 1.008 1.008h6c0.6 0 1.008-0.408 1.008-1.008 0-3.912-3.096-7.008-7.008-7.008zM16.008 7.992v-3.888c1.992 0.384 3.504 1.896 3.888 3.888h-3.888z"></path>
</svg>
