<svg xmlns="http://www.w3.org/2000/svg" width="24" height="24" viewBox="0 0 24 24">
    <path d="M7.008 16.008c0.825-0.014 1.488-0.685 1.488-1.512 0-0 0-0 0-0v0c0.002-0.022 0.003-0.047 0.003-0.072s-0.001-0.050-0.004-0.075l0 0.003 2.784-2.784h0.48l1.608 1.608v0.072c-0.008 0.057-0.012 0.123-0.012 0.19 0 0.835 0.677 1.512 1.512 1.512s1.512-0.677 1.512-1.512c0-0.067-0.004-0.133-0.013-0.198l0.001 0.008v-0.072l3.624-3.672c0.007 0 0.016 0 0.024 0 0.835 0 1.512-0.677 1.512-1.512s-0.677-1.512-1.512-1.512c-0.835 0-1.512 0.677-1.512 1.512v0c-0.003 0.025-0.005 0.054-0.005 0.084s0.002 0.059 0.005 0.088l-0-0.004-3.624 3.6h-0.144l-1.728-1.752c0-0.828-0.672-1.5-1.5-1.5s-1.5 0.672-1.5 1.5v0l-3 3c-0.749 0.098-1.322 0.732-1.322 1.5s0.573 1.402 1.314 1.499l0.008 0.001zM20.496 19.992h-16.992v-16.992c-0.078-0.486-0.494-0.853-0.996-0.853s-0.918 0.367-0.995 0.847l-0.001 0.006v18c0 0 0 0 0 0 0 0.548 0.438 0.994 0.983 1.008l0.001 0h18c0.557 0 1.008-0.451 1.008-1.008s-0.451-1.008-1.008-1.008v0z"></path>
</svg>
