<svg xmlns="http://www.w3.org/2000/svg" width="24" height="24" viewBox="0 0 24 24">
    <path d="M14.28 14.184l-3.288 3.288-1.272-1.272c-0.183-0.187-0.438-0.303-0.72-0.303s-0.537 0.116-0.72 0.302l-0 0c-0.173 0.181-0.279 0.426-0.279 0.696s0.106 0.515 0.279 0.696l-0-0 2.016 2.016c0.182 0.18 0.432 0.291 0.708 0.291s0.526-0.111 0.708-0.291l4.008-4.008c0.18-0.182 0.291-0.432 0.291-0.708s-0.111-0.526-0.291-0.708l0 0c-0.183-0.187-0.438-0.303-0.72-0.303s-0.537 0.116-0.72 0.302l-0 0zM18.432 8.328c-1.111-2.492-3.566-4.198-6.42-4.198-3.548 0-6.48 2.637-6.944 6.058l-0.004 0.036c-1.754 0.453-3.029 2.021-3.029 3.887 0 1.725 1.089 3.195 2.618 3.76l0.028 0.009c0.144 0.084 0.317 0.133 0.501 0.133 0.557 0 1.008-0.451 1.008-1.008 0-0.505-0.371-0.923-0.855-0.996l-0.006-0.001c-0.776-0.284-1.32-1.016-1.32-1.875 0-0.016 0-0.031 0.001-0.047l-0 0.002c0-1.1 0.892-1.992 1.992-1.992v0c0.557 0 1.008-0.451 1.008-1.008v0c0.010-2.749 2.241-4.974 4.992-4.974 2.184 0 4.040 1.402 4.717 3.355l0.011 0.035c0.128 0.34 0.425 0.59 0.786 0.647l0.006 0.001c1.417 0.257 2.478 1.482 2.478 2.954 0 1.386-0.94 2.553-2.217 2.897l-0.021 0.005c-0.456 0.103-0.79 0.505-0.79 0.984 0 0.557 0.451 1.008 1.008 1.008 0.008 0 0.016-0 0.024-0l-0.001 0h0.24c2.18-0.567 3.763-2.518 3.763-4.838 0-2.25-1.489-4.153-3.536-4.776l-0.035-0.009z"></path>
</svg>
