<svg xmlns="http://www.w3.org/2000/svg" width="24" height="24" viewBox="0 0 24 24">
    <path d="M18.432 8.208c-1.111-2.492-3.566-4.198-6.42-4.198-3.548 0-6.48 2.637-6.944 6.058l-0.004 0.036c-1.757 0.45-3.035 2.020-3.035 3.888 0 2.201 1.774 3.987 3.969 4.008l0.002 0h1.992c0.486-0.078 0.853-0.494 0.853-0.996s-0.367-0.918-0.847-0.995l-0.006-0.001h-1.992c-1.107 0-2.004-0.897-2.004-2.004s0.897-2.004 2.004-2.004v0c0.557 0 1.008-0.451 1.008-1.008v0c0-0.002 0-0.004 0-0.006 0-2.757 2.235-4.992 4.992-4.992 2.184 0 4.040 1.402 4.717 3.355l0.011 0.035c0.121 0.35 0.42 0.609 0.786 0.671l0.006 0.001c1.414 0.26 2.471 1.482 2.472 2.952v0c0 1.657-1.343 3-3 3v0c-0.486 0.078-0.853 0.494-0.853 0.996s0.367 0.918 0.847 0.995l0.006 0.001c2.741-0.020 4.956-2.248 4.956-4.992 0-2.239-1.474-4.134-3.505-4.767l-0.035-0.009zM12.912 18.624c-0.016-0.064-0.041-0.12-0.073-0.17l0.001 0.002-0.12-0.168c-0.095-0.088-0.206-0.161-0.329-0.213l-0.008-0.003c-0.116-0.050-0.25-0.079-0.391-0.079-0.278 0-0.53 0.113-0.713 0.295v0l-0.12 0.168c-0.031 0.048-0.056 0.104-0.071 0.164l-0.001 0.004c-0.030 0.048-0.055 0.104-0.071 0.163l-0.001 0.005c-0.002 0.032-0.004 0.070-0.004 0.108s0.001 0.076 0.004 0.113l-0-0.005c-0.002 0.029-0.004 0.062-0.004 0.096s0.001 0.067 0.004 0.1l-0-0.004c0.017 0.064 0.041 0.12 0.073 0.17l-0.001-0.002c0.013 0.072 0.038 0.137 0.073 0.194l-0.001-0.002 0.12 0.144c0.188 0.177 0.441 0.287 0.72 0.288h0c0.003 0 0.006 0 0.010 0 0.135 0 0.263-0.026 0.381-0.074l-0.007 0.002c0.13-0.055 0.241-0.128 0.337-0.217l-0.001 0.001 0.12-0.144c0.034-0.055 0.059-0.12 0.072-0.189l0-0.003c0.031-0.048 0.055-0.104 0.071-0.164l0.001-0.004c0.012-0.056 0.021-0.122 0.024-0.189l0-0.003c0.002-0.032 0.004-0.070 0.004-0.108s-0.001-0.076-0.004-0.113l0 0.005c-0.025-0.064-0.058-0.12-0.097-0.169l0.001 0.001zM12 10.992c-1.104 0.005-2.067 0.606-2.584 1.498l-0.008 0.014c-0.084 0.144-0.133 0.317-0.133 0.501 0 0.367 0.196 0.688 0.489 0.864l0.005 0.003c0.141 0.080 0.311 0.128 0.491 0.128 0.374 0 0.701-0.204 0.875-0.507l0.003-0.005c0.18-0.29 0.497-0.48 0.859-0.48 0.002 0 0.004 0 0.006 0h-0c0.486 0.078 0.853 0.494 0.853 0.996s-0.367 0.918-0.847 0.995l-0.006 0.001c-0.486 0.078-0.853 0.494-0.853 0.996s0.367 0.918 0.847 0.995l0.006 0.001c1.657 0 3-1.343 3-3s-1.343-3-3-3v0z"></path>
</svg>
