<svg xmlns="http://www.w3.org/2000/svg" width="24" height="24" viewBox="0 0 24 24">
<path d="M14.496 15.912h-0.768l0.384-0.672c0.039-0.103 0.062-0.223 0.062-0.348 0-0.557-0.451-1.008-1.008-1.008-0.315 0-0.596 0.144-0.781 0.37l-0.001 0.002-0.384 0.672-0.384-0.672c-0.186-0.228-0.467-0.372-0.782-0.372-0.557 0-1.008 0.451-1.008 1.008 0 0.125 0.023 0.244 0.064 0.355l-0.002-0.007 0.384 0.672h-0.768c-0.557 0-1.008 0.451-1.008 1.008s0.451 1.008 1.008 1.008v0h0.768l-0.384 0.648c-0.051 0.117-0.081 0.253-0.081 0.396 0 0.557 0.451 1.008 1.008 1.008 0.326 0 0.615-0.154 0.799-0.394l0.002-0.002 0.384-0.672 0.384 0.672c0.186 0.242 0.476 0.396 0.801 0.396 0.557 0 1.008-0.451 1.008-1.008 0-0.143-0.030-0.279-0.084-0.403l0.003 0.006-0.384-0.648h0.768c0.557 0 1.008-0.451 1.008-1.008s-0.451-1.008-1.008-1.008v0zM18.432 8.136c-1.11-2.495-3.566-4.203-6.422-4.203-3.542 0-6.47 2.627-6.942 6.039l-0.004 0.037c-1.776 0.437-3.072 2.016-3.072 3.897 0 0.005 0 0.010 0 0.016v-0.001c0.010 1.977 1.449 3.614 3.336 3.933l0.024 0.003h0.144c0.025 0.002 0.054 0.003 0.084 0.003 0.559 0 1.011-0.453 1.011-1.011 0-0.529-0.406-0.963-0.924-1.008l-0.004-0c-0.946-0.166-1.656-0.982-1.656-1.963 0-0.010 0-0.020 0-0.030l-0 0.002c0-1.1 0.892-1.992 1.992-1.992v0c0.557 0 1.008-0.451 1.008-1.008v0c0-0.002 0-0.004 0-0.006 0-2.757 2.235-4.992 4.992-4.992 2.184 0 4.040 1.402 4.717 3.355l0.011 0.035c0.128 0.34 0.425 0.59 0.786 0.647l0.006 0.001c1.417 0.258 2.477 1.482 2.477 2.954 0 1.252-0.767 2.325-1.857 2.775l-0.020 0.007c-0.45 0.107-0.779 0.506-0.779 0.982 0 0.557 0.451 1.008 1.008 1.008 0.19 0 0.368-0.053 0.52-0.144l-0.005 0.003c1.845-0.761 3.121-2.545 3.121-4.628 0-2.244-1.48-4.142-3.517-4.771l-0.035-0.009z"></path>
</svg>
