<svg xmlns="http://www.w3.org/2000/svg" width="24" height="24" viewBox="0 0 24 24">
<path d="M10.992 9h2.016c0.546 0.013 0.984 0.459 0.984 1.008 0 0 0 0 0 0v-0c0 0.557 0.451 1.008 1.008 1.008s1.008-0.451 1.008-1.008v0c0-1.657-1.343-3-3-3v0h-2.016c-1.657 0-3 1.343-3 3v0 3.984c0 1.657 1.343 3 3 3v0h2.016c1.657 0 3-1.343 3-3v0c0-0.557-0.451-1.008-1.008-1.008s-1.008 0.451-1.008 1.008v0c0 0 0 0 0 0 0 0.548-0.438 0.994-0.983 1.008l-0.001 0h-2.016c-0.546-0.013-0.984-0.459-0.984-1.008 0-0 0-0 0-0v0-3.984c0-0 0-0 0-0 0-0.548 0.438-0.994 0.983-1.008l0.001-0zM12 1.992c-5.527 0-10.008 4.481-10.008 10.008s4.481 10.008 10.008 10.008c5.527 0 10.008-4.481 10.008-10.008v0c0-5.527-4.481-10.008-10.008-10.008v0zM12 19.992c-4.414 0-7.992-3.578-7.992-7.992s3.578-7.992 7.992-7.992c4.414 0 7.992 3.578 7.992 7.992v0c0 4.414-3.578 7.992-7.992 7.992v0z"></path>
</svg>
