<svg xmlns="http://www.w3.org/2000/svg" width="24" height="24" viewBox="0 0 24 24">
    <path d="M19.992 17.568c0.393-0.636 0.625-1.407 0.625-2.232 0-2.373-1.923-4.296-4.296-4.296s-4.296 1.923-4.296 4.296c0 2.372 1.923 4.295 4.295 4.296h0c0.002 0 0.004 0 0.006 0 0.831 0 1.608-0.232 2.269-0.635l-0.019 0.011 1.704 1.728c0.183 0.187 0.438 0.303 0.72 0.303s0.537-0.116 0.72-0.302l0-0c0.18-0.182 0.291-0.432 0.291-0.708s-0.111-0.526-0.291-0.708l0 0zM18 16.992c-0.425 0.402-0.999 0.649-1.632 0.649s-1.207-0.247-1.633-0.65l0.001 0.001c-0.413-0.42-0.668-0.996-0.668-1.632s0.255-1.212 0.668-1.632l-0 0c0.417-0.419 0.994-0.678 1.632-0.678s1.215 0.259 1.632 0.678l0 0c0.413 0.42 0.668 0.996 0.668 1.632s-0.255 1.212-0.668 1.632l0-0zM19.008 3h-14.016c-1.657 0-3 1.343-3 3v0 9c0 1.657 1.343 3 3 3v0h4.008c0.486-0.078 0.853-0.494 0.853-0.996s-0.367-0.918-0.847-0.995l-0.006-0.001h-4.008c-0.546-0.013-0.984-0.459-0.984-1.008 0-0 0-0 0-0v0-6h15.984v1.008c0 0.557 0.451 1.008 1.008 1.008s1.008-0.451 1.008-1.008v0-4.008c0-1.657-1.343-3-3-3v0zM19.992 7.008h-15.984v-1.008c0-0 0-0 0-0 0-0.548 0.438-0.994 0.983-1.008l0.001-0h14.016c0.546 0.013 0.984 0.459 0.984 1.008 0 0 0 0 0 0v-0zM10.008 10.992h-3c-0.557 0-1.008 0.451-1.008 1.008s0.451 1.008 1.008 1.008v0h3c0.557 0 1.008-0.451 1.008-1.008s-0.451-1.008-1.008-1.008v0z"></path>
</svg>
