<svg xmlns="http://www.w3.org/2000/svg" width="24" height="24" viewBox="0 0 24 24">
<path d="M18 1.992c-2.214 0-4.008 1.794-4.008 4.008s1.794 4.008 4.008 4.008c2.214 0 4.008-1.794 4.008-4.008v0c0-2.214-1.794-4.008-4.008-4.008v0zM18 7.992c-1.1 0-1.992-0.892-1.992-1.992s0.892-1.992 1.992-1.992c1.1 0 1.992 0.892 1.992 1.992v0c0 1.1-0.892 1.992-1.992 1.992v0zM15 19.992h-1.992v-1.992c0-0.557-0.451-1.008-1.008-1.008s-1.008 0.451-1.008 1.008v0 1.992h-1.992v-3.384l3.456-1.728c0.327-0.168 0.548-0.502 0.552-0.887v-3.985c0-0.557-0.451-1.008-1.008-1.008s-1.008 0.451-1.008 1.008v0 3.36l-1.992 1.008v-6.384c-0.078-0.486-0.494-0.853-0.996-0.853s-0.918 0.367-0.995 0.847l-0.001 0.006v8.376l-2.016-0.984v-2.376c-0.078-0.486-0.494-0.853-0.996-0.853s-0.918 0.367-0.995 0.847l-0.001 0.006v3c0.004 0.386 0.225 0.72 0.546 0.885l0.006 0.003 3.456 1.728v1.368h-4.008c-0.557 0-1.008 0.451-1.008 1.008s0.451 1.008 1.008 1.008v0h12c0.557 0 1.008-0.451 1.008-1.008s-0.451-1.008-1.008-1.008v0z"></path>
</svg>
