<svg xmlns="http://www.w3.org/2000/svg" width="24" height="24" viewBox="0 0 24 24">
    <path d="M15.696 9c-0.135-0.69-0.497-1.279-1.003-1.7l-0.005-0.004c-0.525-0.462-1.218-0.744-1.978-0.744-0.005 0-0.010 0-0.015 0h-7.895c-0.018-0-0.039-0.001-0.060-0.001-0.891 0-1.692 0.389-2.241 1.006l-0.003 0.003v0.072c-0.426 0.514-0.685 1.181-0.685 1.908 0 0.165 0.013 0.327 0.039 0.486l-0.002-0.017 0.864 4.992c0.26 1.415 1.483 2.472 2.953 2.472 0.016 0 0.033-0 0.049-0l-0.002 0h7.944c0.006 0 0.012 0 0.019 0 0.913 0 1.731-0.408 2.282-1.052l0.003-0.004c0.406-0.507 0.652-1.159 0.652-1.867 0-0.197-0.019-0.389-0.055-0.575l0.003 0.019zM12.288 8.496l-2.352 2.64c-0.185 0.205-0.452 0.333-0.748 0.333-0.235 0-0.45-0.080-0.622-0.214l0.002 0.002-3.408-2.76zM14.376 15.144c-0.185 0.22-0.46 0.359-0.768 0.36h-7.92c-0.004 0-0.009 0-0.014 0-0.497 0-0.911-0.36-0.993-0.834l-0.001-0.006-0.816-4.656 3.432 2.784c0.513 0.423 1.178 0.68 1.902 0.68 0.895 0 1.698-0.392 2.247-1.013l0.003-0.003 2.352-2.664 0.792 4.536c0.010 0.052 0.015 0.112 0.015 0.174 0 0.245-0.087 0.469-0.232 0.644l0.001-0.002zM21.216 10.488h-2.016c-0.557 0-1.008 0.451-1.008 1.008s0.451 1.008 1.008 1.008v0h2.016c0.557 0 1.008-0.451 1.008-1.008s-0.451-1.008-1.008-1.008v0zM21.216 8.496c0.486-0.078 0.853-0.494 0.853-0.996s-0.367-0.918-0.847-0.995l-0.006-0.001h-3c-0.486 0.078-0.853 0.494-0.853 0.996s0.367 0.918 0.847 0.995l0.006 0.001z"></path>
</svg>
