<svg xmlns="http://www.w3.org/2000/svg" width="24" height="24" viewBox="0 0 24 24">
    <path d="M12 19.992h-7.008c-0.538-0.013-0.971-0.446-0.984-0.983l-0-0.001v-14.016c0.013-0.538 0.446-0.971 0.983-0.984l0.001-0h5.016v3c0 1.657 1.343 3 3 3v0h3v0.984c0.078 0.486 0.494 0.853 0.996 0.853s0.918-0.367 0.995-0.847l0.001-0.006v-2.064c-0.008-0.097-0.025-0.187-0.050-0.273l0.002 0.009v-0.096c-0.053-0.101-0.117-0.188-0.192-0.264l-6-6c-0.082-0.077-0.177-0.141-0.281-0.189l-0.007-0.003c-0.014-0.002-0.031-0.004-0.048-0.004s-0.034 0.001-0.050 0.004l0.002-0c-0.096-0.059-0.21-0.102-0.331-0.119l-0.005-0.001h-6.048c-1.657 0-3 1.343-3 3v0 14.016c0 1.657 1.343 3 3 3v0h7.008c0.557 0 1.008-0.451 1.008-1.008s-0.451-1.008-1.008-1.008v0zM12 5.4l2.592 2.592h-1.584c-0 0-0 0-0 0-0.548 0-0.994-0.438-1.008-0.983l-0-0.001zM7.008 7.992c-0.557 0-1.008 0.451-1.008 1.008s0.451 1.008 1.008 1.008v0h0.984c0.557 0 1.008-0.451 1.008-1.008s-0.451-1.008-1.008-1.008v0zM21.72 20.28l-1.176-1.152c0.284-0.489 0.452-1.076 0.452-1.702 0-0.947-0.384-1.805-1.004-2.426l0 0c-0.635-0.667-1.53-1.081-2.521-1.081-1.922 0-3.48 1.558-3.48 3.48 0 0.034 0 0.068 0.001 0.102l-0-0.005c-0 0.008-0 0.018-0 0.028 0 1.909 1.547 3.456 3.456 3.456 0.617 0 1.196-0.162 1.697-0.445l-0.017 0.009 1.152 1.176c0.183 0.187 0.438 0.303 0.72 0.303s0.537-0.116 0.72-0.302l0-0c0.187-0.183 0.303-0.438 0.303-0.72s-0.116-0.537-0.302-0.72l-0-0zM18.552 18.528c-0.275 0.26-0.647 0.421-1.056 0.421s-0.781-0.16-1.057-0.421l0.001 0.001c-0.261-0.266-0.425-0.629-0.432-1.031l-0-0.001c-0-0.005-0-0.011-0-0.018 0-0.406 0.165-0.773 0.432-1.038l0-0c0.26-0.258 0.614-0.421 1.006-0.432l0.002-0c0.029-0.002 0.062-0.003 0.096-0.003 0.809 0 1.464 0.655 1.464 1.464 0 0.010-0 0.019-0 0.029l0-0.001c-0.014 0.406-0.186 0.769-0.456 1.032l-0 0zM13.008 12h-6c-0.486 0.078-0.853 0.494-0.853 0.996s0.367 0.918 0.847 0.995l0.006 0.001h6c0.486-0.078 0.853-0.494 0.853-0.996s-0.367-0.918-0.847-0.995l-0.006-0.001zM10.992 18c0.486-0.078 0.853-0.494 0.853-0.996s-0.367-0.918-0.847-0.995l-0.006-0.001h-3.984c-0.486 0.078-0.853 0.494-0.853 0.996s0.367 0.918 0.847 0.995l0.006 0.001z"></path>
</svg>
