<svg xmlns="http://www.w3.org/2000/svg" width="24" height="24" viewBox="0 0 24 24">
    <path d="M22.008 10.944c-0.017-0.1-0.042-0.188-0.075-0.273l0.003 0.009v-0.096c-0.051-0.111-0.115-0.206-0.193-0.289l0.001 0.001-6-6c-0.076-0.075-0.163-0.139-0.258-0.189l-0.006-0.003h-0.12c-0.083-0.042-0.18-0.075-0.281-0.095l-0.007-0.001h-10.080c-1.657 0-3 1.343-3 3v0 9.984c0 1.657 1.343 3 3 3v0h14.016c1.657 0 3-1.343 3-3v0-6.048zM16.008 7.416l2.592 2.592h-1.608c-0.546-0.013-0.984-0.459-0.984-1.008 0-0 0-0 0-0v0zM19.992 16.992c0 0 0 0 0 0 0 0.548-0.438 0.994-0.983 1.008l-0.001 0h-14.016c-0.546-0.013-0.984-0.459-0.984-1.008 0-0 0-0 0-0v0-9.984c0-0 0-0 0-0 0-0.548 0.438-0.994 0.983-1.008l0.001-0h9v3c0 1.657 1.343 3 3 3v0h3z"></path>
</svg>
