<svg xmlns="http://www.w3.org/2000/svg" width="24" height="24" viewBox="0 0 24 24">
<path d="M10.008 19.992h-5.016c-0.538-0.013-0.971-0.446-0.984-0.983l-0-0.001v-14.016c0.013-0.538 0.446-0.971 0.983-0.984l0.001-0h5.016v3c0 1.657 1.343 3 3 3v0h3.984c0.001 0 0.003 0 0.004 0 0.418 0 0.777-0.255 0.93-0.617l0.002-0.007c0.050-0.116 0.079-0.25 0.079-0.391 0-0.278-0.113-0.53-0.295-0.713l-6-6c-0.082-0.077-0.177-0.141-0.281-0.189l-0.007-0.003c-0.014-0.002-0.031-0.004-0.048-0.004s-0.034 0.001-0.050 0.004l0.002-0-0.264-0.096h-6.072c-1.657 0-3 1.343-3 3v0 14.016c0 1.657 1.343 3 3 3v0h5.016c0.557 0 1.008-0.451 1.008-1.008s-0.451-1.008-1.008-1.008v0zM12 5.4l2.592 2.592h-1.584c-0 0-0 0-0 0-0.548 0-0.994-0.438-1.008-0.983l-0-0.001zM13.008 13.008c0-0.557-0.451-1.008-1.008-1.008v0h-4.992c-0.486 0.078-0.853 0.494-0.853 0.996s0.367 0.918 0.847 0.995l0.006 0.001h4.992c0 0 0 0 0 0 0.548 0 0.994-0.438 1.008-0.983l0-0.001zM7.008 10.008h0.984c0.557 0 1.008-0.451 1.008-1.008s-0.451-1.008-1.008-1.008v0h-0.984c-0.557 0-1.008 0.451-1.008 1.008s0.451 1.008 1.008 1.008v0zM7.008 16.008c-0.486 0.078-0.853 0.494-0.853 0.996s0.367 0.918 0.847 0.995l0.006 0.001h1.992c0.486-0.078 0.853-0.494 0.853-0.996s-0.367-0.918-0.847-0.995l-0.006-0.001zM19.992 15.168v-0.168c0-1.657-1.343-3-3-3s-3 1.343-3 3v0 0.168c-1.171 0.427-1.992 1.53-1.992 2.826 0 0.002 0 0.005 0 0.007v-0 1.008c0 1.657 1.343 3 3 3v0h4.008c1.657 0 3-1.343 3-3v0-1.008c-0.001-1.304-0.833-2.412-1.995-2.826l-0.021-0.006zM16.992 13.992c0.557 0 1.008 0.451 1.008 1.008v0h-1.992c0-0 0-0 0-0 0-0.548 0.438-0.994 0.983-1.008l0.001-0zM19.992 19.008c-0.013 0.538-0.446 0.971-0.983 0.984l-0.001 0h-4.008c-0 0-0 0-0 0-0.548 0-0.994-0.438-1.008-0.983l-0-0.001v-1.008c0-0.557 0.451-1.008 1.008-1.008v0h4.008c0.546 0.013 0.984 0.459 0.984 1.008 0 0 0 0 0 0v-0z"></path>
</svg>
