<svg xmlns="http://www.w3.org/2000/svg" width="24" height="24" viewBox="0 0 24 24">
    <path d="M22.992 9.936c-0.008-0.097-0.025-0.187-0.050-0.273l0.002 0.009v-0.096c-0.051-0.111-0.115-0.206-0.193-0.289l0.001 0.001-6-6c-0.083-0.068-0.178-0.124-0.281-0.165l-0.007-0.003h-0.072c-0.096-0.059-0.21-0.102-0.331-0.119l-0.005-0.001h-8.064c-1.657 0-3 1.343-3 3v0 1.008h-0.984c-1.657 0-3 1.343-3 3v0 7.992c0 1.657 1.343 3 3 3v0h12c1.657 0 3-1.343 3-3v0-1.008h0.984c1.657 0 3-1.343 3-3v0-4.056zM16.992 6.408l2.592 2.592h-1.584c-0.557 0-1.008-0.451-1.008-1.008v0zM16.992 18c0 0 0 0 0 0 0 0.548-0.438 0.994-0.983 1.008l-0.001 0h-12c-0.557 0-1.008-0.451-1.008-1.008v0-7.992c0-0.557 0.451-1.008 1.008-1.008v0h0.984v4.992c0 1.657 1.343 3 3 3v0h9zM21 13.992c0 0.557-0.451 1.008-1.008 1.008v0h-12c-0.546-0.013-0.984-0.459-0.984-1.008 0-0 0-0 0-0v0-7.992c0-0 0-0 0-0 0-0.548 0.438-0.994 0.983-1.008l0.001-0h7.008v3c0 1.657 1.343 3 3 3v0h3z"></path>
</svg>
