<svg xmlns="http://www.w3.org/2000/svg" width="24" height="24" viewBox="0 0 24 24">
    <path d="M7.608 15.168c-0.182-0.179-0.432-0.29-0.708-0.29-0.558 0-1.010 0.452-1.010 1.010 0 0.282 0.115 0.537 0.302 0.72l1.056 1.056c0.182 0.18 0.432 0.291 0.708 0.291s0.526-0.111 0.708-0.291l-0 0c0.18-0.182 0.291-0.432 0.291-0.708s-0.111-0.526-0.291-0.708l0 0zM3.816 9.768l-1.056 1.080c-0.076 0.068-0.14 0.147-0.19 0.235l-0.002 0.005c-0.349 0.163-0.587 0.512-0.587 0.916 0 0.28 0.114 0.533 0.299 0.716l0 0 1.080 1.056c0.182 0.18 0.432 0.291 0.708 0.291s0.526-0.111 0.708-0.291l-0 0c0.18-0.182 0.291-0.432 0.291-0.708s-0.111-0.526-0.291-0.708l-0.36-0.36 0.816-0.816c0.136-0.17 0.218-0.388 0.218-0.626 0-0.557-0.451-1.008-1.008-1.008-0.237 0-0.456 0.082-0.628 0.219l0.002-0.002zM7.992 10.56c-0.546 0.013-0.984 0.459-0.984 1.008 0 0 0 0 0 0v-0 1.512c0.078 0.486 0.494 0.853 0.996 0.853s0.918-0.367 0.995-0.847l0.001-0.006v-1.512c0-0.557-0.451-1.008-1.008-1.008v0zM21.72 11.28l-5.016-4.992c-0.182-0.178-0.431-0.288-0.706-0.288-0.135 0-0.264 0.026-0.381 0.075l0.007-0.002c-0.369 0.155-0.624 0.514-0.624 0.932 0 0.001 0 0.003 0 0.004v-0 9.984c0 0.001 0 0.003 0 0.004 0 0.418 0.255 0.777 0.617 0.93l0.007 0.002c0.101 0.046 0.219 0.073 0.343 0.073 0.015 0 0.029-0 0.043-0.001l-0.002 0c0.271-0.003 0.517-0.112 0.696-0.288l-0 0 5.016-4.992c0.187-0.183 0.303-0.438 0.303-0.72s-0.116-0.537-0.302-0.72l-0-0zM16.992 14.592v-5.184l2.592 2.592zM12 1.992c-0.557 0-1.008 0.451-1.008 1.008v0 18c0 0.557 0.451 1.008 1.008 1.008s1.008-0.451 1.008-1.008v0-18c0-0.557-0.451-1.008-1.008-1.008v0zM8.376 6.072c-0.111-0.046-0.24-0.072-0.374-0.072-0.275 0-0.524 0.11-0.706 0.288l0-0-0.648 0.72c-0.173 0.181-0.279 0.426-0.279 0.696s0.106 0.515 0.279 0.696l-0-0c0.176 0.185 0.422 0.303 0.694 0.312l0.002 0c0.168-0.004 0.324-0.048 0.461-0.123l-0.005 0.003c0.058 0.012 0.125 0.019 0.193 0.019 0.557 0 1.008-0.451 1.008-1.008 0-0.015-0-0.030-0.001-0.045l0 0.002v-0.552c0-0.001 0-0.003 0-0.004 0-0.418-0.255-0.777-0.617-0.93l-0.007-0.002z"></path>
</svg>
