<svg xmlns="http://www.w3.org/2000/svg" width="24" height="24" viewBox="0 0 24 24">
    <path d="M14.28 10.8l-3.288 3.288-1.272-1.296c-0.183-0.186-0.438-0.302-0.72-0.302-0.558 0-1.010 0.452-1.010 1.010 0 0.276 0.111 0.526 0.29 0.708l-0-0 2.016 1.992c0.182 0.18 0.432 0.291 0.708 0.291s0.526-0.111 0.708-0.291l-0 0 4.008-3.984c0.179-0.182 0.29-0.432 0.29-0.708 0-0.558-0.452-1.010-1.010-1.010-0.282 0-0.537 0.115-0.72 0.302l-0 0zM19.008 5.496h-6.288l-0.312-1.008c-0.426-1.171-1.53-1.992-2.826-1.992-0.011 0-0.021 0-0.032 0l0.002-0h-4.56c-1.657 0-3 1.343-3 3v0 13.008c0 1.657 1.343 3 3 3v0h14.016c1.657 0 3-1.343 3-3v0-10.008c0-1.657-1.343-3-3-3v0zM19.992 18.504c-0.013 0.538-0.446 0.971-0.983 0.984l-0.001 0h-14.016c-0.538-0.013-0.971-0.446-0.984-0.983l-0-0.001v-13.008c0-0 0-0 0-0 0-0.548 0.438-0.994 0.983-1.008l0.001-0h4.56c0 0 0.001 0 0.002 0 0.445 0 0.823 0.289 0.956 0.689l0.002 0.007 0.528 1.632c0.143 0.395 0.514 0.672 0.95 0.672 0.003 0 0.007-0 0.010-0h7.007c0.546 0.013 0.984 0.459 0.984 1.008 0 0 0 0 0 0v-0z"></path>
</svg>
