<svg xmlns="http://www.w3.org/2000/svg" width="24" height="24" viewBox="0 0 24 24">
    <path d="M12 9.84c-0.391-0.207-0.856-0.329-1.348-0.329-1.617 0-2.928 1.311-2.928 2.928 0 0.802 0.322 1.528 0.844 2.057l2.712 2.712c0.183 0.187 0.438 0.303 0.72 0.303s0.537-0.116 0.72-0.302l2.712-2.712c0.522-0.528 0.844-1.255 0.844-2.057 0-1.617-1.311-2.928-2.928-2.928-0.493 0-0.957 0.122-1.364 0.336l0.016-0.008zM13.992 13.080l-1.992 1.992-1.992-1.992c-0.174-0.166-0.283-0.401-0.283-0.66s0.108-0.494 0.282-0.66l0-0c0.165-0.167 0.395-0.27 0.648-0.27s0.483 0.103 0.648 0.27l0 0c0.182 0.18 0.432 0.291 0.708 0.291s0.526-0.111 0.708-0.291l-0 0c0.167-0.164 0.396-0.265 0.648-0.265 0.511 0 0.925 0.414 0.925 0.925 0 0.258-0.106 0.492-0.277 0.66l-0 0zM19.008 5.496h-6.288l-0.312-1.008c-0.426-1.171-1.53-1.992-2.826-1.992-0.011 0-0.021 0-0.032 0l0.002-0h-4.56c-1.657 0-3 1.343-3 3v0 13.008c0 1.657 1.343 3 3 3v0h14.016c1.657 0 3-1.343 3-3v0-10.008c0-1.657-1.343-3-3-3v0zM19.992 18.504c-0.013 0.538-0.446 0.971-0.983 0.984l-0.001 0h-14.016c-0.538-0.013-0.971-0.446-0.984-0.983l-0-0.001v-13.008c0-0 0-0 0-0 0-0.548 0.438-0.994 0.983-1.008l0.001-0h4.56c0 0 0.001 0 0.002 0 0.445 0 0.823 0.289 0.956 0.689l0.002 0.007 0.528 1.632c0.143 0.395 0.514 0.672 0.95 0.672 0.003 0 0.007-0 0.010-0h7.007c0.546 0.013 0.984 0.459 0.984 1.008 0 0 0 0 0 0v-0z"></path>
</svg>
