<svg xmlns="http://www.w3.org/2000/svg" width="24" height="24" viewBox="0 0 24 24">
    <path d="M21.84 5.568c-0.144-0.889-0.557-1.664-1.152-2.256l-0-0c-0.586-0.591-1.352-1.003-2.208-1.149l-0.024-0.003c-0.615-0.098-1.324-0.154-2.046-0.154-1.156 0-2.279 0.144-3.352 0.414l0.094-0.020c-0.074 0.021-0.138 0.045-0.199 0.075l0.007-0.003c-2.635 0.675-4.9 1.998-6.696 3.792l0-0c-1.804 1.81-3.135 4.091-3.794 6.643l-0.022 0.101c0 0.048 0 0.12-0.048 0.192-0.248 0.976-0.391 2.097-0.391 3.251 0 0.716 0.055 1.419 0.161 2.106l-0.010-0.077c0.154 0.871 0.565 1.628 1.152 2.208l0 0c0.586 0.591 1.352 1.003 2.208 1.149l0.024 0.003c0.627 0.107 1.35 0.168 2.088 0.168h0c1.162-0.006 2.286-0.154 3.36-0.429l-0.096 0.021h0.144c5.173-1.347 9.165-5.339 10.49-10.411l0.022-0.101c0-0.048 0-0.12 0.048-0.192 0.251-0.982 0.396-2.108 0.396-3.269 0-0.727-0.057-1.44-0.166-2.136l0.010 0.077zM16.368 4.008c0.049-0.001 0.107-0.001 0.165-0.001 0.56 0 1.11 0.044 1.646 0.129l-0.059-0.008c0.094 0.021 0.174 0.046 0.251 0.076l-0.011-0.004-1.368 1.392-1.536-1.536c0.312-0.048 0.624-0.048 0.912-0.048zM7.68 7.68c1.463-1.457 3.28-2.559 5.31-3.169l0.090-0.023 2.52 2.52-2.16 2.136-0.72-0.72c-0.183-0.187-0.438-0.303-0.72-0.303s-0.537 0.116-0.72 0.302l-0 0c-0.18 0.182-0.291 0.432-0.291 0.708s0.111 0.526 0.291 0.708l-0-0 0.744 0.72-1.464 1.44-0.72-0.72c-0.182-0.18-0.432-0.291-0.708-0.291s-0.526 0.111-0.708 0.291l0-0c-0.18 0.182-0.291 0.432-0.291 0.708s0.111 0.526 0.291 0.708l0.72 0.72-2.136 2.184-2.52-2.52c0.631-2.121 1.734-3.938 3.192-5.4l-0 0zM4.2 18.36c-0.020-0.067-0.036-0.148-0.047-0.232l-0.001-0.008c-0.106-0.584-0.167-1.256-0.167-1.942 0-0.254 0.008-0.506 0.025-0.756l-0.002 0.034 1.584 1.536zM5.88 19.848c-0.092-0.012-0.173-0.028-0.252-0.051l0.012 0.003 1.368-1.392 1.536 1.584c-0.216 0.015-0.468 0.023-0.722 0.023-0.686 0-1.358-0.061-2.011-0.177l0.069 0.010zM16.32 16.32c-1.462 1.458-3.279 2.561-5.31 3.169l-0.090 0.023-2.52-2.52 2.16-2.136 0.72 0.72c0.183 0.186 0.438 0.302 0.72 0.302 0.558 0 1.010-0.452 1.010-1.010 0-0.276-0.111-0.526-0.29-0.708l-0.72-0.72 1.44-1.44 0.72 0.72c0.182 0.178 0.431 0.288 0.706 0.288 0.005 0 0.010-0 0.015-0h-0.001c0.542-0.018 0.975-0.462 0.975-1.007 0-0.27-0.106-0.516-0.28-0.697l0 0-0.72-0.72 2.136-2.184 2.52 2.52c-0.631 2.121-1.734 3.938-3.192 5.4l0-0zM19.992 8.544l-1.584-1.536 1.392-1.368c0.020 0.067 0.036 0.148 0.047 0.232l0.001 0.008c0.106 0.584 0.167 1.256 0.167 1.942 0 0.254-0.008 0.506-0.025 0.756l0.002-0.034z"></path>
</svg>
