<svg xmlns="http://www.w3.org/2000/svg" width="24" height="24" viewBox="0 0 24 24">
    <path d="M9 10.992c0.557-0 1.008-0.451 1.008-1.008s-0.451-1.008-1.008-1.008-1.008 0.451-1.008 1.008c0 0.008 0 0.017 0 0.025l-0-0.001c0.013 0.546 0.459 0.984 1.008 0.984 0 0 0 0 0 0h-0zM12 1.992c-5.527 0-10.008 4.481-10.008 10.008s4.481 10.008 10.008 10.008c5.527 0 10.008-4.481 10.008-10.008v0c0-5.527-4.481-10.008-10.008-10.008v0zM12 19.992c-4.414 0-7.992-3.578-7.992-7.992s3.578-7.992 7.992-7.992c4.414 0 7.992 3.578 7.992 7.992v0c0 4.414-3.578 7.992-7.992 7.992v0zM15 13.008h-6c-0 0-0 0-0 0-0.548 0-0.994 0.438-1.008 0.983l-0 0.001c0 2.214 1.794 4.008 4.008 4.008s4.008-1.794 4.008-4.008v0c-0.013-0.546-0.459-0.984-1.008-0.984-0 0-0 0-0 0h0zM12 16.008c-0.737-0.002-1.379-0.403-1.723-0.998l-0.005-0.010h3.456c-0.349 0.605-0.991 1.006-1.728 1.008h-0zM15 9c-0.557 0-1.008 0.451-1.008 1.008s0.451 1.008 1.008 1.008c0.557 0 1.008-0.451 1.008-1.008v0c0-0.557-0.451-1.008-1.008-1.008v0z"></path>
</svg>
