<svg xmlns="http://www.w3.org/2000/svg" width="24" height="24" viewBox="0 0 24 24">
<path d="M9.216 10.536c0.182 0.18 0.432 0.291 0.708 0.291s0.526-0.111 0.708-0.291l-0 0c0.18-0.182 0.291-0.432 0.291-0.708s-0.111-0.526-0.291-0.708l0 0c-0.551-0.528-1.299-0.853-2.124-0.853s-1.573 0.325-2.125 0.854l0.001-0.001c-0.234 0.186-0.382 0.471-0.382 0.79 0 0.557 0.451 1.008 1.008 1.008 0.319 0 0.604-0.149 0.789-0.38l0.002-0.002c0.182-0.18 0.432-0.291 0.708-0.291s0.526 0.111 0.708 0.291l-0-0zM12 1.992c-5.527 0-10.008 4.481-10.008 10.008s4.481 10.008 10.008 10.008c5.527 0 10.008-4.481 10.008-10.008v0c0-5.527-4.481-10.008-10.008-10.008v0zM12 19.992c-4.414 0-7.992-3.578-7.992-7.992s3.578-7.992 7.992-7.992c4.414 0 7.992 3.578 7.992 7.992v0c0 4.414-3.578 7.992-7.992 7.992v0zM15 9c-0.557 0-1.008 0.451-1.008 1.008s0.451 1.008 1.008 1.008c0.557 0 1.008-0.451 1.008-1.008v0c0-0.557-0.451-1.008-1.008-1.008v0zM15 13.008h-6c-0.486 0.078-0.853 0.494-0.853 0.996s0.367 0.918 0.847 0.995l0.006 0.001c0 1.657 1.343 3 3 3s3-1.343 3-3v0c0.486-0.078 0.853-0.494 0.853-0.996s-0.367-0.918-0.847-0.995l-0.006-0.001zM12 16.008c-0.557 0-1.008-0.451-1.008-1.008v0h2.016c0 0.557-0.451 1.008-1.008 1.008v0z"></path>
</svg>
