<svg xmlns="http://www.w3.org/2000/svg" width="24" height="24" viewBox="0 0 24 24">
<path d="M21.888 9.6c-0.192-0.504-0.792-0.696-1.296-0.504l-2.904 1.392-4.2-4.2 1.416-2.88c0.192-0.504 0-1.104-0.504-1.32-0.504-0.192-1.104 0-1.296 0.504l-1.512 3.096-6.384 1.008c-0.408 0.096-0.72 0.408-0.816 0.792l-2.4 11.616c-0.096 0.288 0 0.696 0.312 0.888l1.704 1.704c0.192 0.216 0.504 0.312 0.696 0.312h0.192l11.616-2.4c0.384-0.12 0.696-0.408 0.792-0.816l1.008-6.384 3.096-1.512c0.504-0.192 0.696-0.792 0.504-1.296zM15.408 17.808l-9.816 1.992 3.696-3.696c1.512 0.696 3.312 0.096 4.008-1.416s0.096-3.288-1.392-3.984c-1.104-0.504-2.496-0.312-3.408 0.6-0.888 0.888-1.104 2.304-0.6 3.384l-3.696 3.72 1.992-9.816 5.808-0.984 2.208 2.184 2.184 2.208-0.984 5.808zM9.6 13.392c0-0.288 0.096-0.504 0.288-0.696 0.408-0.408 1.008-0.408 1.416 0 0.384 0.408 0.384 1.008 0 1.392-0.408 0.408-1.008 0.408-1.416 0-0.192-0.192-0.288-0.48-0.288-0.696z"></path>
</svg>
