<svg xmlns="http://www.w3.org/2000/svg" width="24" height="24" viewBox="0 0 24 24">
    <path d="M6.72 10.296c-0.183-0.187-0.438-0.303-0.72-0.303-0.553 0-1.003 0.446-1.008 0.998v0.001c-0.001 0.013-0.001 0.028-0.001 0.043 0 0.557 0.451 1.008 1.008 1.008s1.008-0.451 1.008-1.008c0-0.155-0.035-0.302-0.098-0.433l0.003 0.006c-0.047-0.12-0.112-0.224-0.193-0.313l0.001 0.001zM9.288 7.704c0.182 0.178 0.431 0.288 0.706 0.288 0.005 0 0.010-0 0.015-0h-0.001c0.271-0.003 0.517-0.112 0.696-0.288l-0 0c0.088-0.095 0.161-0.206 0.213-0.329l0.003-0.008c0.044-0.106 0.070-0.23 0.072-0.359v-0.001c-0.001-0.279-0.111-0.532-0.288-0.72l0 0-0.144-0.12-0.168-0.096c-0.055-0.033-0.12-0.058-0.188-0.071l-0.004-0.001c-0.063-0.014-0.135-0.022-0.209-0.022-0.274 0-0.522 0.109-0.703 0.286l0-0c-0.091 0.094-0.164 0.205-0.214 0.329l-0.002 0.007c-0.052 0.113-0.082 0.245-0.082 0.384s0.030 0.271 0.085 0.39l-0.002-0.006c0.055 0.13 0.128 0.241 0.217 0.337l-0.001-0.001zM6.552 6.168c-0.049-0.037-0.104-0.069-0.163-0.094l-0.197-0.074c-0.063-0.014-0.135-0.022-0.209-0.022-0.274 0-0.522 0.109-0.703 0.286l0-0c-0.082 0.095-0.147 0.206-0.19 0.329l-0.002 0.007c-0.052 0.113-0.082 0.245-0.082 0.384s0.030 0.271 0.085 0.39l-0.002-0.006c0.050 0.12 0.115 0.223 0.193 0.313l-0.001-0.001c0.095 0.088 0.206 0.161 0.328 0.213l0.008 0.003c0.111 0.060 0.243 0.095 0.384 0.096h0c0.004 0 0.009 0 0.014 0 0.275 0 0.524-0.11 0.706-0.288l-0 0c0.079-0.096 0.144-0.207 0.189-0.328l0.003-0.008c0.051-0.105 0.086-0.227 0.096-0.357l0-0.003c-0.001-0.279-0.111-0.532-0.288-0.72l0 0zM12.72 18.288c-0.183-0.187-0.438-0.303-0.72-0.303s-0.537 0.116-0.72 0.302l-1.992 1.992c-0.186 0.183-0.302 0.438-0.302 0.72 0 0.558 0.452 1.010 1.010 1.010 0.276 0 0.526-0.111 0.708-0.29l-0 0 1.296-1.32 1.296 1.32c0.182 0.18 0.432 0.291 0.708 0.291s0.526-0.111 0.708-0.291l-0 0c0.187-0.183 0.303-0.438 0.303-0.72s-0.116-0.537-0.302-0.72l-0-0zM18.72 10.296c-0.183-0.187-0.438-0.303-0.72-0.303s-0.537 0.116-0.72 0.302l-0 0c-0.080 0.088-0.145 0.192-0.19 0.305l-0.002 0.007c-0.047 0.112-0.074 0.243-0.074 0.379 0 0.557 0.451 1.008 1.008 1.008 0.13 0 0.255-0.025 0.369-0.070l-0.007 0.002c0.13-0.055 0.241-0.128 0.337-0.217l-0.001 0.001c0.178-0.182 0.288-0.431 0.288-0.706 0-0.005-0-0.010-0-0.015v0.001c-0.001-0.141-0.036-0.273-0.098-0.389l0.002 0.005c-0.047-0.12-0.112-0.224-0.193-0.313l0.001 0.001zM13.992 10.008h-3.984c-0.486 0.078-0.853 0.494-0.853 0.996s0.367 0.918 0.847 0.995l0.006 0.001h3.984c0.486-0.078 0.853-0.494 0.853-0.996s-0.367-0.918-0.847-0.995l-0.006-0.001zM19.992 1.992h-15.984c-1.657 0-3 1.343-3 3v0 8.016c0 1.657 1.343 3 3 3v0h15.984c1.657 0 3-1.343 3-3v0-8.016c0-1.657-1.343-3-3-3v0zM21 13.008c-0.013 0.546-0.459 0.984-1.008 0.984-0 0-0 0-0 0h-15.984c-0 0-0 0-0 0-0.548 0-0.994-0.438-1.008-0.983l-0-0.001v-8.016c0.013-0.546 0.459-0.984 1.008-0.984 0 0 0 0 0 0h15.984c0 0 0 0 0 0 0.548 0 0.994 0.438 1.008 0.983l0 0.001zM17.616 6.072c-0.131 0.050-0.243 0.123-0.336 0.216l-0 0c-0.177 0.188-0.287 0.441-0.288 0.72v0c0.010 0.133 0.045 0.255 0.099 0.366l-0.003-0.006c0.048 0.129 0.113 0.24 0.194 0.338l-0.002-0.002c0.182 0.178 0.431 0.288 0.706 0.288 0.005 0 0.010-0 0.015-0h-0.001c0.004 0 0.009 0 0.014 0 0.275 0 0.524-0.11 0.706-0.288l-0 0c0.079-0.096 0.144-0.207 0.189-0.328l0.003-0.008c0.051-0.105 0.086-0.227 0.096-0.357l0-0.003c-0.001-0.279-0.111-0.532-0.288-0.72l0 0c-0.182-0.182-0.434-0.295-0.713-0.295-0.141 0-0.276 0.029-0.398 0.082l0.007-0.003zM14.568 6.168l-0.192-0.096-0.168-0.072c-0.062-0.014-0.134-0.022-0.208-0.022-0.133 0-0.259 0.026-0.375 0.072l0.007-0.002c-0.131 0.050-0.243 0.123-0.336 0.216l-0 0c-0.091 0.094-0.164 0.205-0.214 0.329l-0.002 0.007c-0.052 0.113-0.082 0.245-0.082 0.384s0.030 0.271 0.085 0.39l-0.002-0.006c0.057 0.12 0.13 0.223 0.216 0.312l-0-0c0.176 0.185 0.422 0.303 0.694 0.312l0.002 0c0.004 0 0.009 0 0.014 0 0.275 0 0.524-0.11 0.706-0.288l-0 0c0.088-0.095 0.161-0.206 0.213-0.329l0.003-0.008c0.044-0.106 0.070-0.23 0.072-0.359v-0.001c-0.001-0.279-0.111-0.532-0.288-0.72l0 0z"></path>
</svg>
