<svg xmlns="http://www.w3.org/2000/svg" width="24" height="24" viewBox="0 0 24 24">
    <path d="M19.008 1.992h-14.016c-1.657 0-3 1.343-3 3v0 14.016c0 1.657 1.343 3 3 3v0h14.016c1.657 0 3-1.343 3-3v0-14.016c0-1.657-1.343-3-3-3v0zM19.992 19.008c-0.013 0.538-0.446 0.971-0.983 0.984l-0.001 0h-14.016c-0.538-0.013-0.971-0.446-0.984-0.983l-0-0.001v-14.016c0.013-0.538 0.446-0.971 0.983-0.984l0.001-0h14.016c0.538 0.013 0.971 0.446 0.984 0.983l0 0.001zM12 7.992c-0 0-0 0-0 0-1.1 0-1.992 0.892-1.992 1.992 0 0.008 0 0.017 0 0.025l-0-0.001c0.005 0.723 0.395 1.354 0.975 1.699l0.009 0.005v3.288c0 0.557 0.451 1.008 1.008 1.008s1.008-0.451 1.008-1.008v0-3.288c0.589-0.35 0.979-0.981 0.984-1.703v-0.001c0-0.007 0-0.016 0-0.024 0-1.1-0.892-1.992-1.992-1.992-0 0-0 0-0 0v0z"></path>
</svg>
