<svg xmlns="http://www.w3.org/2000/svg" width="24" height="24" viewBox="0 0 24 24">
    <path d="M10.008 10.008c0-0.007 0-0.016 0-0.024 0-0.557-0.451-1.008-1.008-1.008s-1.008 0.451-1.008 1.008c0 0.557 0.451 1.008 1.008 1.008h0c0 0 0 0 0 0 0.548 0 0.994-0.438 1.008-0.983l0-0.001zM14.496 14.064c-0.144-0.084-0.317-0.133-0.501-0.133-0.367 0-0.688 0.196-0.864 0.489l-0.003 0.005c-0.227 0.396-0.647 0.658-1.128 0.658s-0.901-0.262-1.125-0.652l-0.003-0.006c-0.179-0.297-0.5-0.493-0.867-0.493-0.184 0-0.357 0.050-0.506 0.136l0.005-0.003c-0.302 0.178-0.502 0.501-0.502 0.872 0 0.173 0.044 0.336 0.12 0.478l-0.003-0.005c0.581 1.008 1.652 1.676 2.88 1.676s2.299-0.668 2.871-1.66l0.009-0.016c0.074-0.137 0.118-0.3 0.118-0.472 0-0.37-0.2-0.694-0.497-0.869l-0.005-0.003zM15 9c-0.557 0-1.008 0.451-1.008 1.008s0.451 1.008 1.008 1.008c0.557 0 1.008-0.451 1.008-1.008v0c0-0.557-0.451-1.008-1.008-1.008v0zM12 1.992c-5.527 0-10.008 4.481-10.008 10.008s4.481 10.008 10.008 10.008c5.527 0 10.008-4.481 10.008-10.008v0c0-5.527-4.481-10.008-10.008-10.008v0zM12 19.992c-0.024 0-0.053 0-0.082 0-4.414 0-7.992-3.578-7.992-7.992 0-3.364 2.078-6.242 5.021-7.421l0.054-0.019c-0.005 0.065-0.008 0.14-0.008 0.216s0.003 0.151 0.008 0.226l-0.001-0.010c0 1.657 1.343 3 3 3v0c0.486-0.078 0.853-0.494 0.853-0.996s-0.367-0.918-0.847-0.995l-0.006-0.001c-0.486-0.078-0.853-0.494-0.853-0.996s0.367-0.918 0.847-0.995l0.006-0.001c4.414 0 7.992 3.578 7.992 7.992s-3.578 7.992-7.992 7.992v0z"></path>
</svg>
