<svg xmlns="http://www.w3.org/2000/svg" width="24" height="24" viewBox="0 0 24 24">
    <path d="M18 4.488c-1.536-1.536-3.657-2.485-6-2.485-4.686 0-8.485 3.799-8.485 8.485 0 2.343 0.95 4.464 2.485 6l5.28 5.28c0.182 0.18 0.432 0.291 0.708 0.291s0.526-0.111 0.708-0.291l-0 0 5.304-5.328c1.53-1.529 2.477-3.642 2.477-5.976s-0.947-4.447-2.477-5.976l-0-0zM16.56 15l-4.56 4.584-4.56-4.584c-1.171-1.169-1.896-2.785-1.896-4.57 0-3.566 2.89-6.456 6.456-6.456s6.456 2.89 6.456 6.456c0 1.785-0.725 3.401-1.896 4.57l-0 0zM9 7.416c-0.778 0.781-1.259 1.858-1.259 3.048s0.481 2.267 1.259 3.048l-0-0c0.781 0.778 1.859 1.259 3.048 1.259 2.364 0 4.285-1.9 4.32-4.256l0-0.003c0-0.005 0-0.011 0-0.017 0-1.187-0.487-2.26-1.271-3.031l-0.001-0.001c-0.781-0.798-1.868-1.293-3.072-1.293-1.18 0-2.248 0.475-3.024 1.245l0-0zM13.68 12.096c-0.422 0.427-1.008 0.692-1.656 0.692-1.286 0-2.328-1.042-2.328-2.328s1.042-2.328 2.328-2.328c1.286 0 2.328 1.042 2.328 2.328 0 0.002 0 0.003 0 0.004v-0c-0.015 0.643-0.288 1.219-0.719 1.631l-0.001 0.001z"></path>
</svg>
