<svg xmlns="http://www.w3.org/2000/svg" width="24" height="24" viewBox="0 0 24 24">
<path d="M5.4 4.008h1.608c0.557 0 1.008-0.451 1.008-1.008s-0.451-1.008-1.008-1.008v0h-4.008c-0.141 0.007-0.272 0.042-0.39 0.099l0.006-0.003c-0.238 0.104-0.424 0.29-0.525 0.522l-0.003 0.006c-0.054 0.112-0.089 0.243-0.096 0.382l-0 0.002v4.008c0 0.557 0.451 1.008 1.008 1.008s1.008-0.451 1.008-1.008v0-1.608l5.784 5.808c0.182 0.18 0.432 0.291 0.708 0.291s0.526-0.111 0.708-0.291l-0 0c0.18-0.182 0.291-0.432 0.291-0.708s-0.111-0.526-0.291-0.708l0 0zM21 16.008c-0 0-0 0-0 0-0.548 0-0.994 0.438-1.008 0.983l-0 0.001v1.608l-5.784-5.808c-0.17-0.136-0.388-0.218-0.626-0.218-0.557 0-1.008 0.451-1.008 1.008 0 0.237 0.082 0.456 0.219 0.628l-0.002-0.002 5.808 5.784h-1.608c-0.557 0-1.008 0.451-1.008 1.008s0.451 1.008 1.008 1.008v0h4.008c0.141-0.007 0.272-0.042 0.39-0.099l-0.006 0.003c0.238-0.104 0.424-0.29 0.525-0.522l0.003-0.006c0.054-0.112 0.089-0.243 0.096-0.382l0-0.002v-4.008c-0.013-0.546-0.459-0.984-1.008-0.984-0 0-0 0-0 0h0z"></path>
</svg>
