<svg xmlns="http://www.w3.org/2000/svg" width="24" height="24" viewBox="0 0 24 24">
    <path d="M19.008 1.992h-14.016c-1.657 0-3 1.343-3 3v0 14.016c0 1.657 1.343 3 3 3v0h14.016c1.657 0 3-1.343 3-3v0-14.016c0-1.657-1.343-3-3-3v0zM19.992 19.008c-0.013 0.538-0.446 0.971-0.983 0.984l-0.001 0h-14.016c-0.538-0.013-0.971-0.446-0.984-0.983l-0-0.001v-14.016c0.013-0.538 0.446-0.971 0.983-0.984l0.001-0h14.016c0.538 0.013 0.971 0.446 0.984 0.983l0 0.001zM16.992 9h-1.992v-1.992c0-0.557-0.451-1.008-1.008-1.008v0h-3.984c-0.557 0-1.008 0.451-1.008 1.008v0 1.992h-1.992c-0.557 0-1.008 0.451-1.008 1.008v0 3.984c0 0.557 0.451 1.008 1.008 1.008v0h1.992v1.992c0 0.557 0.451 1.008 1.008 1.008v0h3.984c0.557 0 1.008-0.451 1.008-1.008v0-1.992h1.992c0.557 0 1.008-0.451 1.008-1.008v0-3.984c0-0.557-0.451-1.008-1.008-1.008v0zM16.008 13.008h-2.016c-0.538 0.013-0.971 0.446-0.984 0.983l-0 0.001v2.016h-2.016v-2.016c-0.013-0.538-0.446-0.971-0.983-0.984l-0.001-0h-2.016v-2.016h2.016c0.538-0.013 0.971-0.446 0.984-0.983l0-0.001v-2.016h2.016v2.016c0.013 0.538 0.446 0.971 0.983 0.984l0.001 0h2.016z"></path>
</svg>
