<svg xmlns="http://www.w3.org/2000/svg" width="24" height="24" viewBox="0 0 24 24">
    <path d="M21 1.992h-18c-0.557 0-1.008 0.451-1.008 1.008v0 18c0 0.557 0.451 1.008 1.008 1.008v0h18c0.557 0 1.008-0.451 1.008-1.008v0-18c0-0.557-0.451-1.008-1.008-1.008v0zM19.992 19.992h-15.984v-15.984h15.984zM7.008 14.784h1.992v2.016c0.013 0.546 0.459 0.984 1.008 0.984 0 0 0 0 0 0h3.984c0 0 0 0 0 0 0.548 0 0.994-0.438 1.008-0.983l0-0.001v-2.016h1.992c0 0 0 0 0 0 0.548 0 0.994-0.438 1.008-0.983l0-0.001v-4.008c0-0.557-0.451-1.008-1.008-1.008v0h-1.992v-1.992c0-0.557-0.451-1.008-1.008-1.008v0h-3.984c-0.557 0-1.008 0.451-1.008 1.008v0 1.992h-1.992c-0.557 0-1.008 0.451-1.008 1.008v0 4.008c0.013 0.546 0.459 0.984 1.008 0.984 0 0 0 0 0 0h-0zM7.992 10.8h2.016c0.546-0.013 0.984-0.459 0.984-1.008 0-0 0-0 0-0v0-1.992h2.016v1.992c0 0 0 0 0 0 0 0.548 0.438 0.994 0.983 1.008l0.001 0h2.016v1.992h-2.016c-0.546 0.013-0.984 0.459-0.984 1.008 0 0 0 0 0 0v-0 1.992h-2.016v-1.992c0-0 0-0 0-0 0-0.548-0.438-0.994-0.983-1.008l-0.001-0h-2.016z"></path>
</svg>
