<svg xmlns="http://www.w3.org/2000/svg" width="24" height="24" viewBox="0 0 24 24">
    <path d="M21.84 17.472l-4.992-7.992c-0.182-0.284-0.495-0.469-0.852-0.469s-0.67 0.185-0.85 0.465l-0.002 0.004-0.984 1.608-3.312-5.592c-0.182-0.284-0.495-0.469-0.852-0.469s-0.67 0.185-0.85 0.465l-0.002 0.004-7.008 12c-0.085 0.145-0.135 0.318-0.135 0.504 0 0.554 0.446 1.003 0.999 1.008h18c0.549-0.010 0.989-0.458 0.989-1.008 0-0.195-0.056-0.378-0.152-0.532l0.002 0.004zM10.44 16.992h-5.688l5.256-9 2.928 5.016zM12.792 16.992l2.208-3.432 1.008-1.68 3.192 5.112z"></path>
</svg>
