<svg xmlns="http://www.w3.org/2000/svg" width="24" height="24" viewBox="0 0 24 24">
<path d="M13.416 12l6.288-6.288c0.234-0.186 0.382-0.471 0.382-0.79 0-0.557-0.451-1.008-1.008-1.008-0.319 0-0.604 0.149-0.789 0.38l-0.002 0.002-6.288 6.288-6.288-6.288c-0.17-0.136-0.388-0.218-0.626-0.218-0.557 0-1.008 0.451-1.008 1.008 0 0.237 0.082 0.456 0.219 0.628l-0.002-0.002 6.288 6.288-6.288 6.288c-0.18 0.182-0.291 0.432-0.291 0.708s0.111 0.526 0.291 0.708l-0-0c0.182 0.18 0.432 0.291 0.708 0.291s0.526-0.111 0.708-0.291l6.288-6.288 6.288 6.288c0.182 0.18 0.432 0.291 0.708 0.291s0.526-0.111 0.708-0.291l-0 0c0.18-0.182 0.291-0.432 0.291-0.708s-0.111-0.526-0.291-0.708l0 0z"></path>
</svg>
