<svg xmlns="http://www.w3.org/2000/svg" width="24" height="24" viewBox="0 0 24 24">
<path d="M19.44 5.328l-0.048-0.048c-1.836-1.999-4.462-3.248-7.38-3.248s-5.544 1.249-7.373 3.241l-0.007 0.007-0.072 0.048c-1.593 1.765-2.568 4.116-2.568 6.694 0 5.527 4.481 10.008 10.008 10.008s10.008-4.481 10.008-10.008c0-0.008 0-0.015-0-0.023v0.001c0-0.002 0-0.004 0-0.006 0-2.569-0.975-4.911-2.575-6.674l0.007 0.008zM12 4.008c0.016-0 0.034-0 0.053-0 1.399 0 2.712 0.365 3.851 1.005l-0.040-0.020h-7.728c1.099-0.619 2.412-0.984 3.811-0.984 0.019 0 0.037 0 0.056 0l-0.003-0zM5.76 7.008h12.48c0.882 1.098 1.483 2.457 1.676 3.944l0.004 0.040h-15.84c0.197-1.527 0.798-2.886 1.692-4l-0.012 0.016zM12 19.992c-4.055-0.004-7.403-3.028-7.916-6.944l-0.004-0.040h15.84c-0.517 3.956-3.865 6.98-7.92 6.984h-0zM7.992 7.992c-0.557 0-1.008 0.451-1.008 1.008s0.451 1.008 1.008 1.008c0.557 0 1.008-0.451 1.008-1.008v0c0-0.557-0.451-1.008-1.008-1.008v0zM13.992 7.992c-0.557 0-1.008 0.451-1.008 1.008s0.451 1.008 1.008 1.008c0.557 0 1.008-0.451 1.008-1.008v0c0-0.557-0.451-1.008-1.008-1.008v0zM10.992 17.928c0.138 0.076 0.303 0.12 0.478 0.12 0.009 0 0.019-0 0.028-0l-0.001 0c0.368-0.003 0.688-0.203 0.861-0.499l0.003-0.005c0.523-0.923 1.499-1.536 2.619-1.536 0.008 0 0.015 0 0.023 0h-0.001c0.557 0 1.008-0.451 1.008-1.008s-0.451-1.008-1.008-1.008v0c-0.001 0-0.003 0-0.004 0-1.867 0-3.495 1.025-4.351 2.543l-0.013 0.025c-0.084 0.144-0.133 0.317-0.133 0.501 0 0.367 0.196 0.688 0.489 0.864l0.005 0.003z"></path>
</svg>
