<svg xmlns="http://www.w3.org/2000/svg" width="24" height="24" viewBox="0 0 24 24">
<path d="M21.528 5.16c-0.156-0.105-0.349-0.167-0.556-0.167-0.155 0-0.303 0.035-0.434 0.098l0.006-0.003c-2.415 1.034-5.226 1.635-8.177 1.635-0.129 0-0.258-0.001-0.386-0.003l0.019 0c-0.116 0.002-0.253 0.004-0.39 0.004-2.951 0-5.763-0.601-8.317-1.688l0.139 0.053c-0.129-0.064-0.281-0.102-0.442-0.102-0.211 0-0.408 0.065-0.57 0.176l0.003-0.002c-0.263 0.185-0.432 0.486-0.432 0.827 0 0.004 0 0.009 0 0.013v-0.001 12c0.007 0.354 0.195 0.663 0.476 0.838l0.004 0.002c0.156 0.105 0.349 0.167 0.556 0.167 0.155 0 0.303-0.035 0.434-0.098l-0.006 0.003c2.415-1.034 5.226-1.635 8.177-1.635 0.129 0 0.258 0.001 0.386 0.003l-0.019-0c0.123-0.003 0.268-0.004 0.413-0.004 2.952 0 5.763 0.601 8.318 1.689l-0.139-0.053c0.12 0.056 0.259 0.091 0.406 0.096l0.002 0c0.206-0.001 0.397-0.064 0.556-0.17l-0.004 0.002c0.275-0.182 0.455-0.49 0.456-0.84v-12c-0.001-0.35-0.181-0.658-0.452-0.838l-0.004-0.002zM19.992 16.512c-2.318-0.792-4.989-1.249-7.766-1.249-0.079 0-0.159 0-0.238 0.001l0.012-0c-0.067-0.001-0.147-0.001-0.226-0.001-2.777 0-5.448 0.457-7.941 1.3l0.175-0.051v-9c2.318 0.792 4.989 1.249 7.766 1.249 0.079 0 0.159-0 0.238-0.001l-0.012 0c0.067 0.001 0.147 0.001 0.226 0.001 2.777 0 5.448-0.457 7.941-1.3l-0.175 0.051z"></path>
</svg>
