<svg xmlns="http://www.w3.org/2000/svg" width="24" height="24" viewBox="0 0 24 24">
    <path d="M22.008 5.088c0-0.007 0-0.015 0-0.024 0-1.697-1.375-3.072-3.072-3.072-0.854 0-1.627 0.349-2.184 0.911l-0 0-2.832 2.808-6.48-2.16c-0.091-0.030-0.195-0.047-0.304-0.047-0.274 0-0.523 0.109-0.704 0.287l0-0-2.376 2.352c-0.175 0.181-0.283 0.428-0.283 0.7 0 0.398 0.23 0.741 0.565 0.906l0.006 0.003 5.184 2.352-2.592 2.616-1.728-0.864c-0.137-0.074-0.3-0.118-0.474-0.118-0.262 0-0.5 0.1-0.679 0.263l0.001-0.001-1.776 1.8c-0.18 0.182-0.291 0.432-0.291 0.708s0.111 0.526 0.291 0.708l6.504 6.504c0.182 0.18 0.432 0.291 0.708 0.291s0.526-0.111 0.708-0.291l-0 0 1.8-1.776c0.186-0.183 0.302-0.438 0.302-0.719 0-0.167-0.040-0.324-0.112-0.463l0.003 0.006-0.864-1.704 2.592-2.592 2.352 5.184c0.167 0.34 0.511 0.571 0.908 0.571 0.272 0 0.519-0.108 0.7-0.283l2.376-2.376c0.174-0.181 0.281-0.427 0.281-0.699 0-0.102-0.015-0.2-0.043-0.293l0.002 0.007-2.16-6.504 2.76-2.832c0.56-0.55 0.908-1.314 0.912-2.159v-0.001zM19.68 5.856l-3.24 3.24c-0.174 0.181-0.281 0.427-0.281 0.699 0 0.102 0.015 0.2 0.043 0.293l-0.002-0.007 2.16 6.48-0.888 0.912-2.352-5.16c-0.138-0.299-0.411-0.516-0.738-0.575l-0.006-0.001c-0.057-0.011-0.122-0.018-0.189-0.018-0.272 0-0.518 0.107-0.699 0.282l0-0-4.128 4.176c-0.172 0.18-0.278 0.425-0.278 0.695 0 0.167 0.041 0.324 0.112 0.463l-0.003-0.006 0.816 1.68-0.576 0.552-5.016-5.040 0.576-0.528 1.728 0.864c0.129 0.064 0.28 0.102 0.441 0.102 0.278 0 0.529-0.112 0.711-0.294l-0 0 4.128-4.152c0.184-0.183 0.299-0.436 0.299-0.716 0-0.404-0.238-0.752-0.581-0.913l-0.006-0.003-5.208-2.352 0.888-0.888 6.48 2.16c0.091 0.030 0.195 0.047 0.304 0.047 0.274 0 0.523-0.109 0.704-0.287l3.24-3.24c0.196-0.198 0.468-0.321 0.768-0.321s0.572 0.123 0.768 0.321l0 0c0.193 0.184 0.313 0.443 0.313 0.73 0 0.013-0 0.027-0.001 0.040l0-0.002c0.001 0.013 0.001 0.027 0.001 0.042 0 0.281-0.11 0.537-0.289 0.726l0-0z"></path>
</svg>
