<svg xmlns="http://www.w3.org/2000/svg" width="24" height="24" viewBox="0 0 24 24">
<path d="M19.008 6h-3v-3c0-0.557-0.451-1.008-1.008-1.008s-1.008 0.451-1.008 1.008v0 3h-3.984v-3c0-0.557-0.451-1.008-1.008-1.008s-1.008 0.451-1.008 1.008v0 3h-3c-0.486 0.078-0.853 0.494-0.853 0.996s0.367 0.918 0.847 0.995l0.006 0.001h1.008v5.016c0.003 0.271 0.112 0.517 0.288 0.696l2.712 2.712v4.584c0.078 0.486 0.494 0.853 0.996 0.853s0.918-0.367 0.995-0.847l0.001-0.006v-4.008h2.016v4.008c0.078 0.486 0.494 0.853 0.996 0.853s0.918-0.367 0.995-0.847l0.001-0.006v-4.584l2.712-2.712c0.176-0.179 0.285-0.425 0.288-0.695v-5.017h1.008c0.486-0.078 0.853-0.494 0.853-0.996s-0.367-0.918-0.847-0.995l-0.006-0.001zM16.008 12.6l-2.424 2.4h-3.168l-2.424-2.4v-4.608h8.016zM10.992 13.008h2.016c0.557 0 1.008-0.451 1.008-1.008s-0.451-1.008-1.008-1.008v0h-2.016c-0.557 0-1.008 0.451-1.008 1.008s0.451 1.008 1.008 1.008v0z"></path>
</svg>
