<svg xmlns="http://www.w3.org/2000/svg" width="24" height="24" viewBox="0 0 24 24">
    <path d="M21.864 11.496l-4.488-7.776c-0.176-0.301-0.496-0.501-0.864-0.504h-9c-0.004-0-0.010-0-0.015-0-0.371 0-0.696 0.201-0.87 0.499l-0.003 0.005-4.488 7.776c-0.085 0.145-0.135 0.318-0.135 0.504s0.050 0.359 0.138 0.509l-0.003-0.005 4.488 7.776c0.178 0.303 0.502 0.504 0.873 0.504 0.005 0 0.011-0 0.016-0h8.999c0.368-0.003 0.688-0.203 0.861-0.499l0.003-0.005 4.488-7.776c0.085-0.145 0.135-0.318 0.135-0.504s-0.050-0.359-0.138-0.509l0.003 0.005zM15.864 18.792h-7.776l-3.936-6.792 3.936-6.792h7.824l3.936 6.792z"></path>
</svg>
