<svg xmlns="http://www.w3.org/2000/svg" width="24" height="24" viewBox="0 0 24 24">
<path d="M13.992 9h-3.984c-0.557 0-1.008 0.451-1.008 1.008v0 3.984c0 0.557 0.451 1.008 1.008 1.008v0h3.984c0.557 0 1.008-0.451 1.008-1.008v0-3.984c0-0.557-0.451-1.008-1.008-1.008v0zM13.008 13.008h-2.016v-2.016h2.016zM21 13.008c0.557 0 1.008-0.451 1.008-1.008s-0.451-1.008-1.008-1.008v0h-1.992v-1.992h1.992c0.486-0.078 0.853-0.494 0.853-0.996s-0.367-0.918-0.847-0.995l-0.006-0.001h-2.184c-0.309-0.854-0.97-1.515-1.803-1.817l-0.021-0.007v-2.184c-0.078-0.486-0.494-0.853-0.996-0.853s-0.918 0.367-0.995 0.847l-0.001 0.006v1.992h-1.992v-1.992c0-0.557-0.451-1.008-1.008-1.008s-1.008 0.451-1.008 1.008v0 1.992h-1.992v-1.992c-0.078-0.486-0.494-0.853-0.996-0.853s-0.918 0.367-0.995 0.847l-0.001 0.006v2.184c-0.854 0.309-1.515 0.97-1.817 1.803l-0.007 0.021h-2.184c-0.486 0.078-0.853 0.494-0.853 0.996s0.367 0.918 0.847 0.995l0.006 0.001h1.992v1.992h-1.992c-0.557 0-1.008 0.451-1.008 1.008s0.451 1.008 1.008 1.008v0h1.992v1.992h-1.992c-0.486 0.078-0.853 0.494-0.853 0.996s0.367 0.918 0.847 0.995l0.006 0.001h2.184c0.309 0.854 0.97 1.515 1.803 1.817l0.021 0.007v2.184c0.078 0.486 0.494 0.853 0.996 0.853s0.918-0.367 0.995-0.847l0.001-0.006v-1.992h1.992v1.992c0 0.557 0.451 1.008 1.008 1.008s1.008-0.451 1.008-1.008v0-1.992h1.992v1.992c0.078 0.486 0.494 0.853 0.996 0.853s0.918-0.367 0.995-0.847l0.001-0.006v-2.184c0.854-0.309 1.515-0.97 1.817-1.803l0.007-0.021h2.184c0.486-0.078 0.853-0.494 0.853-0.996s-0.367-0.918-0.847-0.995l-0.006-0.001h-1.992v-1.992zM16.992 16.008c-0.013 0.538-0.446 0.971-0.983 0.984l-0.001 0h-8.016c-0.538-0.013-0.971-0.446-0.984-0.983l-0-0.001v-8.016c0.013-0.538 0.446-0.971 0.983-0.984l0.001-0h8.016c0.538 0.013 0.971 0.446 0.984 0.983l0 0.001z"></path>
</svg>
