<svg xmlns="http://www.w3.org/2000/svg" width="24" height="24" viewBox="0 0 24 24">
    <path d="M15 16.992c-0.557 0-1.008 0.451-1.008 1.008s0.451 1.008 1.008 1.008c0.557 0 1.008-0.451 1.008-1.008v0c0-0.557-0.451-1.008-1.008-1.008v0zM9 16.992h-3c-0.557 0-1.008 0.451-1.008 1.008s0.451 1.008 1.008 1.008v0h3c0.557 0 1.008-0.451 1.008-1.008s-0.451-1.008-1.008-1.008v0zM18 16.992c-0.557 0-1.008 0.451-1.008 1.008s0.451 1.008 1.008 1.008c0.557 0 1.008-0.451 1.008-1.008v0c0-0.557-0.451-1.008-1.008-1.008v0zM15 10.992c-0.557 0-1.008 0.451-1.008 1.008s0.451 1.008 1.008 1.008c0.557 0 1.008-0.451 1.008-1.008v0c0-0.557-0.451-1.008-1.008-1.008v0zM9 10.992h-3c-0.557 0-1.008 0.451-1.008 1.008s0.451 1.008 1.008 1.008v0h3c0.557 0 1.008-0.451 1.008-1.008s-0.451-1.008-1.008-1.008v0zM18 4.992c-0.557 0-1.008 0.451-1.008 1.008s0.451 1.008 1.008 1.008c0.557 0 1.008-0.451 1.008-1.008v0c0-0.557-0.451-1.008-1.008-1.008v0zM18 10.992c-0.557 0-1.008 0.451-1.008 1.008s0.451 1.008 1.008 1.008c0.557 0 1.008-0.451 1.008-1.008v0c0-0.557-0.451-1.008-1.008-1.008v0zM22.008 4.992c0-1.657-1.343-3-3-3v0h-14.016c-1.657 0-3 1.343-3 3v0 2.016c0.010 0.77 0.31 1.469 0.794 1.994l-0.002-0.002c-0.482 0.523-0.782 1.222-0.792 1.99l-0 0.002v2.016c0.010 0.77 0.31 1.469 0.794 1.994l-0.002-0.002c-0.482 0.523-0.782 1.222-0.792 1.99l-0 0.002v2.016c0 1.657 1.343 3 3 3v0h14.016c1.657 0 3-1.343 3-3v0-2.016c-0.010-0.77-0.31-1.469-0.794-1.994l0.002 0.002c0.482-0.523 0.782-1.222 0.792-1.99l0-0.002v-2.016c-0.010-0.77-0.31-1.469-0.794-1.994l0.002 0.002c0.482-0.523 0.782-1.222 0.792-1.99l0-0.002zM19.992 19.008c-0.013 0.538-0.446 0.971-0.983 0.984l-0.001 0h-14.016c-0.538-0.013-0.971-0.446-0.984-0.983l-0-0.001v-2.016c0.013-0.538 0.446-0.971 0.983-0.984l0.001-0h14.016c0.538 0.013 0.971 0.446 0.984 0.983l0 0.001zM19.992 13.008c-0.013 0.538-0.446 0.971-0.983 0.984l-0.001 0h-14.016c-0.538-0.013-0.971-0.446-0.984-0.983l-0-0.001v-2.016c0.013-0.538 0.446-0.971 0.983-0.984l0.001-0h14.016c0.538 0.013 0.971 0.446 0.984 0.983l0 0.001zM19.992 7.008c-0.013 0.538-0.446 0.971-0.983 0.984l-0.001 0h-14.016c-0.538-0.013-0.971-0.446-0.984-0.983l-0-0.001v-2.016c0.013-0.538 0.446-0.971 0.983-0.984l0.001-0h14.016c0.538 0.013 0.971 0.446 0.984 0.983l0 0.001zM15 4.992c-0.557 0-1.008 0.451-1.008 1.008s0.451 1.008 1.008 1.008c0.557 0 1.008-0.451 1.008-1.008v0c0-0.557-0.451-1.008-1.008-1.008v0zM9 4.992h-3c-0.557 0-1.008 0.451-1.008 1.008s0.451 1.008 1.008 1.008v0h3c0.557 0 1.008-0.451 1.008-1.008s-0.451-1.008-1.008-1.008v0z"></path>
</svg>
