<svg xmlns="http://www.w3.org/2000/svg" width="24" height="24" viewBox="0 0 24 24">
    <path d="M21.504 15c-0.002-1.257-0.778-2.333-1.876-2.777l-0.020-0.007 1.872-7.008c0.018-0.071 0.028-0.152 0.028-0.236 0-0.239-0.083-0.458-0.221-0.63l0.002 0.002c-0.185-0.207-0.454-0.337-0.752-0.337-0.014 0-0.028 0-0.042 0.001l0.002-0h-13.704l-0.312-1.272c-0.12-0.432-0.51-0.744-0.973-0.744-0.004 0-0.008 0-0.012 0h-1.991v2.016h1.224l2.472 9.24c0.12 0.432 0.51 0.745 0.973 0.745 0.012 0 0.025-0 0.037-0.001l-0.002 0h10.296c0.557 0 1.008 0.451 1.008 1.008s-0.451 1.008-1.008 1.008v0h-13.008c-0.486 0.078-0.853 0.494-0.853 0.996s0.367 0.918 0.847 0.995l0.006 0.001h1.176c-0.114 0.304-0.18 0.656-0.18 1.024 0 1.657 1.343 3 3 3s3-1.343 3-3c0-0.367-0.066-0.719-0.187-1.044l0.007 0.021h2.376c-0.121 0.313-0.192 0.676-0.192 1.055 0 1.657 1.343 3 3 3s3-1.343 3-3c0-0.017-0-0.033-0-0.049l0 0.002c0-0.011 0-0.025 0-0.038 0-0.533-0.143-1.033-0.392-1.464l0.008 0.014c0.839-0.538 1.387-1.465 1.392-2.519v-0.001zM17.592 12h-8.592l-1.656-6h11.856zM9.504 19.992c-0.557-0-1.008-0.451-1.008-1.008s0.451-1.008 1.008-1.008 1.008 0.451 1.008 1.008c0 0.008-0 0.017-0 0.025l0-0.001c-0.013 0.546-0.459 0.984-1.008 0.984-0 0-0 0-0 0h0zM17.496 19.992c-0.557-0-1.008-0.451-1.008-1.008s0.451-1.008 1.008-1.008 1.008 0.451 1.008 1.008c0 0.008-0 0.017-0 0.025l0-0.001c-0.013 0.546-0.459 0.984-1.008 0.984-0 0-0 0-0 0h0z"></path>
</svg>
