<svg xmlns="http://www.w3.org/2000/svg" width="24" height="24" viewBox="0 0 24 24">
<path d="M21.72 7.368l-5.088-5.088c-0.182-0.18-0.432-0.291-0.708-0.291s-0.526 0.111-0.708 0.291l0-0c-0.187 0.183-0.303 0.438-0.303 0.72s0.116 0.537 0.302 0.72l0 0 1.776 1.824-5.4 5.448-1.008-0.984c-0.543-0.545-1.294-0.881-2.124-0.881s-1.581 0.337-2.124 0.881l-0 0-3.456 3.408c-0.548 0.544-0.888 1.298-0.888 2.131 0 0.002 0 0.004 0 0.006v-0 3.456c0 1.657 1.343 3 3 3v0h3.456c0.002 0 0.003 0 0.005 0 0.833 0 1.587-0.34 2.13-0.888l0-0 3.408-3.432c0.544-0.543 0.881-1.294 0.881-2.124s-0.337-1.581-0.881-2.124l-0-0-0.984-1.008 5.448-5.424 1.824 1.824c0.183 0.187 0.438 0.303 0.72 0.303s0.537-0.116 0.72-0.302l0-0c0.194-0.184 0.315-0.444 0.315-0.732s-0.121-0.548-0.315-0.732l-0-0zM12.6 16.272l-3.432 3.432c-0.182 0.178-0.431 0.288-0.706 0.288-0.005 0-0.010-0-0.015-0h-3.455c-0.538-0.013-0.971-0.446-0.984-0.983l-0-0.001v-3.456c-0-0.004-0-0.009-0-0.014 0-0.275 0.11-0.524 0.288-0.706l3.432-3.432c0.182-0.18 0.432-0.291 0.708-0.291s0.526 0.111 0.708 0.291l1.008 1.008-0.912 0.888c-0.18 0.182-0.291 0.432-0.291 0.708s0.111 0.526 0.291 0.708l-0-0c0.182 0.179 0.432 0.29 0.707 0.29 0.021 0 0.043-0.001 0.064-0.002l-0.003 0c0.271-0.003 0.517-0.112 0.696-0.288l0.888-0.888 1.008 0.984c0.194 0.184 0.315 0.444 0.315 0.732s-0.121 0.548-0.315 0.732l-0 0z"></path>
</svg>
