<svg xmlns="http://www.w3.org/2000/svg" width="24" height="24" viewBox="0 0 24 24">
    <path d="M22.008 10.992c-0.002-0.022-0.003-0.047-0.003-0.072s0.001-0.050 0.003-0.075l-0 0.003c0-0.288-0.096-0.576-0.144-0.84-0.198-0.907-0.496-1.708-0.889-2.452l0.025 0.052c-1.375-2.756-3.908-4.76-6.943-5.389l-0.065-0.011-0.84-0.12h-0.528l-0.624-0.096h-1.152l-0.84 0.216c-3.931 0.825-6.975 3.869-7.789 7.735l-0.011 0.065c-0.048 0.264-0.096 0.552-0.12 0.84 0.002 0.022 0.003 0.047 0.003 0.072s-0.001 0.050-0.003 0.075l0-0.003v2.016c0.002 0.022 0.003 0.047 0.003 0.072s-0.001 0.050-0.003 0.075l0-0.003c0 0.288 0.072 0.576 0.12 0.84 0.175 0.895 0.449 1.691 0.817 2.431l-0.025-0.055c1.37 2.766 3.903 4.779 6.943 5.413l0.065 0.011 0.84 0.12 0.144 0.096h1.008c0.36 0 0.696 0 1.008-0.048h0.168l0.816-0.168c3.931-0.825 6.975-3.869 7.789-7.735l0.011-0.065c0.048-0.264 0.096-0.552 0.12-0.84 0.030-0.055 0.062-0.102 0.098-0.146l-0.002 0.002c0-0.336 0.048-0.672 0.048-1.008s-0.048-0.672-0.048-1.008zM13.152 4.104l0.504 0.072c1.866 0.406 3.449 1.419 4.572 2.816l0.012 0.016h-6.816zM10.416 4.176l0.408-0.048-3.432 5.88-1.68-2.928c1.142-1.454 2.754-2.495 4.603-2.894l0.053-0.010zM4.584 15c-0.159-0.385-0.3-0.843-0.399-1.316l-0.009-0.052c0-0.216-0.096-0.456-0.096-0.672-0.002-0.018-0.004-0.039-0.004-0.060s0.001-0.042 0.004-0.062l-0 0.002c-0.026-0.245-0.041-0.529-0.041-0.816s0.015-0.571 0.043-0.851l-0.003 0.035c-0.002-0.018-0.004-0.039-0.004-0.060s0.001-0.042 0.004-0.062l-0 0.002c0-0.24 0.048-0.456 0.096-0.672 0.101-0.506 0.233-0.949 0.402-1.372l-0.018 0.052 3.432 5.904zM10.896 19.92l-0.504-0.072c-1.888-0.402-3.489-1.425-4.62-2.84l-0.012-0.016h6.816zM10.272 15l-1.728-3 1.728-3h3.456l1.728 3-1.728 3zM13.632 19.824l-0.408 0.072 3.408-5.904 1.68 2.928c-1.148 1.459-2.768 2.5-4.628 2.895l-0.052 0.009zM19.968 12.84c0.002 0.018 0.004 0.039 0.004 0.060s-0.001 0.042-0.004 0.062l0-0.002c0 0.216-0.072 0.456-0.096 0.672-0.104 0.49-0.237 0.916-0.403 1.324l0.019-0.052-3.48-5.904h3.36c0.167 0.385 0.315 0.842 0.422 1.315l0.010 0.053c0 0.216 0.072 0.456 0.096 0.672 0.002 0.018 0.004 0.039 0.004 0.060s-0.001 0.042-0.004 0.062l0-0.002c0.026 0.245 0.041 0.529 0.041 0.816s-0.015 0.571-0.043 0.851l0.003-0.035z"></path>
</svg>
