<svg xmlns="http://www.w3.org/2000/svg" width="24" height="24" viewBox="0 0 24 24">
<path d="M13.992 9h-3.984c-0.557 0-1.008 0.451-1.008 1.008v0 12c0.013 0.546 0.459 0.984 1.008 0.984 0 0 0 0 0 0h3.984c0 0 0 0 0 0 0.548 0 0.994-0.438 1.008-0.983l0-0.001v-12c0-0.557-0.451-1.008-1.008-1.008v0zM13.008 21h-2.016v-10.008h2.016zM22.008 1.008h-4.008c-0 0-0 0-0 0-0.548 0-0.994 0.438-1.008 0.983l-0 0.001v20.016c0.013 0.546 0.459 0.984 1.008 0.984 0 0 0 0 0 0h4.008c0.538-0.013 0.971-0.446 0.984-0.983l0-0.001v-20.016c-0.013-0.538-0.446-0.971-0.983-0.984l-0.001-0zM21 21h-1.992v-18h1.992zM6 15h-4.008c-0.546 0.013-0.984 0.459-0.984 1.008 0 0 0 0 0 0v-0 6c0.013 0.538 0.446 0.971 0.983 0.984l0.001 0h4.008c0 0 0 0 0 0 0.548 0 0.994-0.438 1.008-0.983l0-0.001v-6c0-0.557-0.451-1.008-1.008-1.008v0zM4.992 21h-1.992v-4.008h1.992z"></path>
</svg>
