<svg xmlns="http://www.w3.org/2000/svg" width="24" height="24" viewBox="0 0 24 24">
    <path d="M15.144 11.808c-0.373-0.245-0.803-0.449-1.26-0.59l-0.036-0.010c-0.288-0.072-0.6-0.168-0.912-0.24-0.288-0.072-0.6-0.144-1.008-0.24-0.558-0.121-1.040-0.269-1.503-0.454l0.063 0.022c-0.249-0.092-0.459-0.24-0.622-0.43l-0.002-0.002c-0.107-0.139-0.171-0.316-0.171-0.508 0-0.024 0.001-0.048 0.003-0.071l-0 0.003c0.002-0.229 0.083-0.438 0.217-0.602l-0.001 0.002c0.182-0.215 0.417-0.38 0.685-0.476l0.011-0.004c0.388-0.138 0.836-0.218 1.303-0.218 0.040 0 0.080 0.001 0.119 0.002l-0.006-0c0.020-0 0.043-0.001 0.067-0.001 0.369 0 0.726 0.053 1.064 0.151l-0.027-0.007c0.257 0.076 0.481 0.191 0.677 0.34l-0.005-0.004c0.134 0.090 0.246 0.202 0.333 0.332l0.003 0.004c0.137 0.405 0.513 0.692 0.957 0.692 0.557 0 1.008-0.451 1.008-1.008 0-0.235-0.080-0.451-0.215-0.622l0.002 0.002c-0.218-0.381-0.499-0.7-0.832-0.954l-0.008-0.006c-0.375-0.291-0.815-0.521-1.292-0.665l-0.028-0.007c-0.493-0.152-1.059-0.24-1.646-0.24-0.020 0-0.041 0-0.061 0l0.003-0c-0.028-0-0.062-0.001-0.095-0.001-0.732 0-1.434 0.132-2.082 0.374l0.041-0.013c-0.64 0.232-1.176 0.621-1.579 1.121l-0.005 0.007c-0.375 0.492-0.6 1.116-0.6 1.792 0 0.003 0 0.006 0 0.008v-0c-0.001 0.026-0.001 0.056-0.001 0.086 0 0.647 0.217 1.244 0.582 1.72l-0.005-0.007c0.377 0.463 0.861 0.824 1.416 1.048l0.024 0.008c0.355 0.142 0.796 0.282 1.247 0.393l0.073 0.015c0 0 0 0.024 0.024 0.024 0.192 0.048 0.48 0.12 0.936 0.216 0.168 0.048 0.336 0.096 0.48 0.12 0.024 0.024 0.048 0.024 0.072 0.024v0c0.264 0.072 0.504 0.12 0.72 0.192 0.292 0.091 0.547 0.213 0.779 0.367l-0.011-0.007c0.147 0.093 0.267 0.213 0.357 0.355l0.003 0.005c0.076 0.153 0.121 0.334 0.121 0.525 0 0.018-0 0.036-0.001 0.053l0-0.003c0.001 0.021 0.002 0.045 0.002 0.070 0 0.253-0.082 0.488-0.22 0.678l0.002-0.003c-0.208 0.263-0.485 0.462-0.804 0.572l-0.012 0.004c-0.413 0.168-0.892 0.265-1.393 0.265-0.033 0-0.067-0-0.1-0.001l0.005 0c-0.033 0.001-0.071 0.002-0.11 0.002-0.58 0-1.128-0.133-1.616-0.371l0.022 0.010c-0.242-0.131-0.443-0.309-0.596-0.523l-0.004-0.005c-0.113-0.139-0.19-0.311-0.215-0.499l-0.001-0.005c-0.078-0.486-0.494-0.853-0.996-0.853s-0.918 0.367-0.995 0.847l-0.001 0.006c0.017 0.615 0.222 1.179 0.558 1.64l-0.006-0.008c0.349 0.492 0.8 0.889 1.323 1.166l0.021 0.010c0.724 0.364 1.577 0.578 2.481 0.578 0.048 0 0.095-0.001 0.142-0.002l-0.007 0c0.039 0.001 0.086 0.002 0.132 0.002 0.765 0 1.495-0.15 2.162-0.423l-0.038 0.014c0.687-0.264 1.257-0.702 1.673-1.262l0.007-0.010c0.361-0.505 0.578-1.135 0.578-1.816 0-0.036-0.001-0.073-0.002-0.109l0 0.005c0-0.013 0-0.027 0-0.042 0-0.548-0.142-1.063-0.392-1.51l0.008 0.016c-0.248-0.428-0.579-0.782-0.973-1.049l-0.011-0.007zM22.368 13.68c0.088-0.511 0.138-1.099 0.138-1.698 0-5.792-4.696-10.488-10.488-10.488-0.6 0-1.188 0.050-1.76 0.147l0.062-0.009c-0.828-0.41-1.803-0.65-2.834-0.65-3.592 0-6.504 2.912-6.504 6.504 0 1.031 0.24 2.006 0.667 2.872l-0.017-0.038c-0.088 0.511-0.138 1.099-0.138 1.698 0 5.792 4.696 10.488 10.488 10.488 0.6 0 1.188-0.050 1.76-0.147l-0.062 0.009c0.828 0.41 1.803 0.65 2.834 0.65 3.592 0 6.504-2.912 6.504-6.504 0-1.031-0.24-2.006-0.667-2.872l0.017 0.038zM16.512 21c-0.006 0-0.014 0-0.021 0-0.793 0-1.538-0.205-2.186-0.564l0.023 0.012c-0.144-0.084-0.318-0.134-0.503-0.134-0.060 0-0.118 0.005-0.175 0.015l0.006-0.001c-0.498 0.104-1.070 0.163-1.656 0.163-4.69 0-8.493-3.801-8.496-8.491v-0c0.002-0.587 0.064-1.159 0.178-1.712l-0.010 0.056c0.009-0.051 0.014-0.109 0.014-0.169 0-0.185-0.050-0.358-0.137-0.508l0.003 0.005c-0.346-0.623-0.549-1.366-0.549-2.157 0-2.492 2.020-4.512 4.512-4.512 0.791 0 1.534 0.203 2.18 0.561l-0.023-0.012c0.144 0.084 0.318 0.134 0.503 0.134 0.060 0 0.118-0.005 0.175-0.015l-0.006 0.001c0.498-0.104 1.070-0.163 1.656-0.163 4.69 0 8.493 3.801 8.496 8.491v0c-0.002 0.587-0.064 1.159-0.178 1.712l0.010-0.056c-0.009 0.051-0.014 0.109-0.014 0.169 0 0.185 0.050 0.358 0.137 0.508l-0.003-0.005c0.357 0.629 0.567 1.382 0.567 2.184 0 2.479-2.009 4.488-4.488 4.488-0.005 0-0.011 0-0.016-0h0.001z"></path>
</svg>
