<svg xmlns="http://www.w3.org/2000/svg" width="24" height="24" viewBox="0 0 24 24">
<path d="M19.992 8.184v-5.184c-0.078-0.486-0.494-0.853-0.996-0.853s-0.918 0.367-0.995 0.847l-0.001 0.006v5.184c-1.163 0.431-1.976 1.53-1.976 2.82s0.814 2.389 1.956 2.813l0.021 0.007v7.176c0.078 0.486 0.494 0.853 0.996 0.853s0.918-0.367 0.995-0.847l0.001-0.006v-7.176c1.163-0.431 1.976-1.53 1.976-2.82s-0.814-2.389-1.956-2.813l-0.021-0.007zM19.008 12c-0.007 0-0.016 0-0.024 0-0.557 0-1.008-0.451-1.008-1.008s0.451-1.008 1.008-1.008c0.557 0 1.008 0.451 1.008 1.008v0c0 0 0 0 0 0 0 0.548-0.438 0.994-0.983 1.008l-0.001 0zM13.008 14.184v-11.184c0-0.557-0.451-1.008-1.008-1.008s-1.008 0.451-1.008 1.008v0 11.184c-1.163 0.431-1.976 1.53-1.976 2.82s0.814 2.389 1.956 2.813l0.021 0.007v1.176c0 0.557 0.451 1.008 1.008 1.008s1.008-0.451 1.008-1.008v0-1.176c1.163-0.431 1.976-1.53 1.976-2.82s-0.814-2.389-1.956-2.813l-0.021-0.007zM12 18c-0.557 0-1.008-0.451-1.008-1.008s0.451-1.008 1.008-1.008c0.557 0 1.008 0.451 1.008 1.008v0c0 0.557-0.451 1.008-1.008 1.008v0zM6 6.168v-3.168c-0.078-0.486-0.494-0.853-0.996-0.853s-0.918 0.367-0.995 0.847l-0.001 0.006v3.168c-1.163 0.431-1.976 1.53-1.976 2.82s0.814 2.389 1.956 2.813l0.021 0.007v9.192c0.078 0.486 0.494 0.853 0.996 0.853s0.918-0.367 0.995-0.847l0.001-0.006v-9.168c1.163-0.431 1.976-1.53 1.976-2.82s-0.814-2.389-1.956-2.813l-0.021-0.007zM4.992 10.008c-0.557 0-1.008-0.451-1.008-1.008s0.451-1.008 1.008-1.008c0.557 0 1.008 0.451 1.008 1.008v0c0 0.557-0.451 1.008-1.008 1.008v0z"></path>
</svg>
