<svg xmlns="http://www.w3.org/2000/svg" width="24" height="24" viewBox="0 0 24 24">
    <path d="M21.96 15.624c-1.283-0.302-2.341-1.094-2.988-2.163l-0.012-0.021c-0.173-0.321-0.507-0.536-0.891-0.536-0.557 0-1.008 0.451-1.008 1.008 0 0.251 0.092 0.481 0.244 0.657l-0.001-0.001c0.634 0.948 1.445 1.728 2.391 2.309l0.033 0.019c-0.144 0.024-0.288 0.048-0.456 0.072-0.579 0.125-1.017 0.603-1.079 1.194l-0.001 0.006c-0.303-0.054-0.652-0.084-1.008-0.084s-0.705 0.031-1.044 0.089l0.036-0.005c-0.75 0.173-1.404 0.508-1.951 0.966l0.007-0.006c-0.564 0.499-1.297 0.818-2.103 0.864l-0.009 0h-0.264c-0.807-0.051-1.53-0.37-2.092-0.867l0.004 0.003c-0.54-0.452-1.194-0.787-1.913-0.954l-0.031-0.006c-0.284-0.045-0.612-0.070-0.946-0.070-0.387 0-0.765 0.034-1.133 0.1l0.039-0.006c-0.049-0.6-0.48-1.088-1.047-1.222l-0.009-0.002c-0.219-0.032-0.366-0.057-0.511-0.085l0.079 0.013c0.698-0.404 1.293-0.899 1.792-1.479l0.008-0.009c0.218-0.261 0.425-0.551 0.607-0.857l0.017-0.031c0.063-0.128 0.1-0.278 0.1-0.437 0-0.557-0.451-1.008-1.008-1.008-0.322 0-0.61 0.151-0.794 0.387l-0.002 0.002c-0.139 0.237-0.282 0.441-0.439 0.633l0.007-0.009c-0.63 0.787-1.522 1.342-2.542 1.532l-0.026 0.004c-0.588 0.096-1.032 0.601-1.032 1.209 0 0.005 0 0.011 0 0.016v-0.001c0.002 0.192 0.046 0.373 0.123 0.536l-0.003-0.008c0.312 0.72 1.152 1.176 2.784 1.488l0.024 0.12c0.048 0.12 0.072 0.24 0.096 0.36 0.161 0.546 0.657 0.937 1.245 0.937 0.018 0 0.036-0 0.053-0.001l-0.003 0c0.217-0.009 0.423-0.044 0.618-0.101l-0.018 0.005c0.259-0.051 0.557-0.080 0.862-0.080 0.255 0 0.505 0.020 0.749 0.060l-0.027-0.004c0.435 0.125 0.813 0.331 1.132 0.603l-0.004-0.003c0.876 0.732 1.999 1.194 3.229 1.248l0.011 0h0.264c1.258-0.044 2.399-0.508 3.297-1.255l-0.009 0.007c0.313-0.28 0.691-0.495 1.107-0.619l0.021-0.005c0.174-0.031 0.374-0.048 0.578-0.048 0.016 0 0.032 0 0.049 0l-0.002-0c0.335 0.006 0.657 0.049 0.965 0.126l-0.029-0.006c0.181 0.031 0.389 0.048 0.602 0.048 0.008 0 0.016-0 0.023-0h-0.001c0.014 0.001 0.030 0.001 0.046 0.001 0.57 0 1.051-0.382 1.2-0.904l0.002-0.009c0.048-0.12 0.072-0.24 0.096-0.36l0.024-0.12c1.632-0.312 2.472-0.768 2.76-1.44 0.078-0.139 0.13-0.302 0.144-0.476l0-0.004c0.002-0.027 0.003-0.058 0.003-0.090 0-0.614-0.444-1.125-1.028-1.229l-0.008-0.001zM3.792 11.136c0.056 0.011 0.121 0.017 0.187 0.017 0.368 0 0.691-0.198 0.867-0.493l0.003-0.005c0.377 0.195 0.82 0.317 1.29 0.336l0.006 0c0.007 0 0.016 0 0.024 0 0.473 0 0.904-0.183 1.225-0.481l-0.001 0.001c0.194-0.184 0.314-0.443 0.314-0.731 0-0.021-0.001-0.043-0.002-0.064l0 0.003-0.024-0.6c-0.063-0.419-0.099-0.903-0.099-1.396 0-0.773 0.088-1.525 0.256-2.247l-0.013 0.067c0.673-1.511 2.162-2.545 3.892-2.545 0.032 0 0.065 0 0.097 0.001l-0.005-0h0.384c0.016-0 0.034-0 0.053-0 1.734 0 3.227 1.033 3.896 2.517l0.011 0.027c0.154 0.655 0.243 1.407 0.243 2.18 0 0.492-0.036 0.976-0.105 1.449l0.006-0.054v0.144l-0.024 0.456c-0 0.008-0 0.018-0 0.028 0 0.29 0.12 0.552 0.312 0.739l0 0c0.323 0.312 0.763 0.504 1.248 0.504h0c0.462-0.038 0.886-0.167 1.266-0.369l-0.018 0.009c0.159 0.353 0.507 0.596 0.911 0.6h0.025c0.546-0.013 0.984-0.459 0.984-1.008 0-0 0-0 0-0v0c-0.049-0.703-0.537-1.279-1.189-1.461l-0.011-0.003c-0.208-0.084-0.45-0.133-0.703-0.133-0.275 0-0.537 0.058-0.773 0.162l0.012-0.005c0.049-0.363 0.077-0.783 0.077-1.209 0-1.017-0.16-1.996-0.456-2.914l0.019 0.067c-0.993-2.21-3.174-3.721-5.709-3.721-0.035 0-0.070 0-0.104 0.001l0.005-0h-0.384c-0.027-0-0.059-0.001-0.091-0.001-2.53 0-4.707 1.512-5.677 3.681l-0.016 0.039c-0.268 0.842-0.423 1.81-0.423 2.815 0 0.455 0.032 0.902 0.093 1.339l-0.006-0.050-0.12-0.048c-0.211-0.087-0.457-0.138-0.714-0.138-0.852 0-1.575 0.556-1.826 1.324l-0.004 0.014c-0.009 0.049-0.014 0.106-0.014 0.165 0 0.485 0.343 0.89 0.799 0.986l0.007 0.001z"></path>
</svg>
