<svg xmlns="http://www.w3.org/2000/svg" width="24" height="24" viewBox="0 0 24 24">
    <path d="M22.008 9.672c-0.132-0.369-0.463-0.636-0.86-0.672l-0.004-0-5.688-0.84-2.544-5.16c-0.17-0.331-0.509-0.554-0.9-0.554s-0.73 0.223-0.897 0.548l-0.003 0.006-2.568 5.16-5.688 0.84c-0.382 0.054-0.691 0.316-0.814 0.665l-0.002 0.007c-0.026 0.085-0.041 0.184-0.041 0.285 0 0.283 0.117 0.539 0.305 0.722l0 0 4.128 4.008-1.008 5.664c-0.012 0.057-0.018 0.123-0.018 0.19 0 0.557 0.451 1.008 1.008 1.008 0.174 0 0.337-0.044 0.479-0.121l-0.005 0.003 5.112-2.664 5.088 2.664c0.132 0.076 0.29 0.12 0.459 0.12 0.007 0 0.015-0 0.022-0l-0.001 0c0.217-0.004 0.416-0.075 0.579-0.194l-0.003 0.002c0.256-0.185 0.421-0.483 0.421-0.82 0-0.058-0.005-0.115-0.014-0.17l0.001 0.006-1.008-5.688 4.128-4.008c0.223-0.186 0.363-0.464 0.363-0.775 0-0.083-0.010-0.163-0.029-0.24l0.001 0.007zM10.992 16.992l-3.216 1.704 0.72-4.2c0.009-0.051 0.014-0.109 0.014-0.168 0-0.282-0.116-0.537-0.302-0.719l-3-3 4.2-0.6c0.339-0.047 0.62-0.257 0.765-0.546l0.003-0.006 0.816-1.728zM15.792 13.608c-0.187 0.183-0.302 0.438-0.302 0.72 0 0.059 0.005 0.118 0.015 0.174l-0.001-0.006 0.72 4.2-3.216-1.704v-9.264l0.864 1.8c0.148 0.295 0.429 0.505 0.763 0.551l0.005 0.001 4.2 0.6z"></path>
</svg>
