<svg xmlns="http://www.w3.org/2000/svg" width="24" height="24" viewBox="0 0 24 24">
    <path d="M22.008 6.552c-0.011-0.469-0.045-0.918-0.103-1.359l0.007 0.063c-0.087-0.408-0.22-0.769-0.395-1.104l0.011 0.024c-0.184-0.389-0.417-0.722-0.697-1.009l0.001 0.001c-0.288-0.275-0.621-0.508-0.985-0.686l-0.023-0.010c-0.312-0.157-0.673-0.281-1.053-0.356l-0.027-0.004c-0.371-0.062-0.81-0.105-1.256-0.12l-0.016-0h-10.92c-0.469 0.011-0.918 0.045-1.359 0.103l0.063-0.007c-0.408 0.087-0.769 0.22-1.104 0.395l0.024-0.011c-0.389 0.184-0.722 0.417-1.009 0.697l0.001-0.001c-0.275 0.288-0.508 0.621-0.686 0.985l-0.010 0.023c-0.157 0.312-0.281 0.673-0.356 1.053l-0.004 0.027c-0.062 0.371-0.105 0.81-0.12 1.256l-0 0.016v10.92c0.020 0.479 0.063 0.926 0.128 1.365l-0.008-0.069c0.079 0.407 0.204 0.768 0.371 1.105l-0.011-0.025c0.193 0.38 0.433 0.705 0.719 0.983l0.001 0.001c0.282 0.283 0.606 0.523 0.962 0.71l0.022 0.010c0.312 0.157 0.673 0.281 1.053 0.356l0.027 0.004c0.379 0.063 0.826 0.106 1.281 0.12l0.015 0h10.896c0.469-0.011 0.918-0.045 1.359-0.103l-0.063 0.007c0.408-0.087 0.769-0.22 1.104-0.395l-0.024 0.011c0.379-0.186 0.704-0.419 0.984-0.696l-0 0c0.285-0.288 0.525-0.62 0.71-0.986l0.010-0.022c0.157-0.312 0.281-0.673 0.356-1.053l0.004-0.027c0.063-0.379 0.106-0.826 0.12-1.281l0-0.015v-10.896zM12.24 19.008c-1.262-0.010-2.444-0.347-3.467-0.93l0.035 0.018-3.816 1.008 1.008-3.72c-0.621-1.021-0.994-2.254-1.008-3.572l-0-0.004c0.014-3.953 3.221-7.152 7.176-7.152 3.963 0 7.176 3.213 7.176 7.176 0 3.938-3.172 7.135-7.1 7.176l-0.004 0zM12.24 5.88c-3.287 0.034-5.939 2.707-5.939 6 0 1.154 0.326 2.231 0.89 3.146l-0.015-0.026 0.144 0.24-0.6 2.184 2.28-0.624 0.216 0.12c0.858 0.517 1.891 0.828 2.997 0.84l0.003 0c3.314 0 6-2.686 6-6v0c0-3.314-2.686-6-6-6v0zM15.72 14.4c-0.264 0.428-0.689 0.735-1.188 0.838l-0.012 0.002c-0.126 0.024-0.272 0.038-0.42 0.038-0.253 0-0.496-0.040-0.724-0.115l0.016 0.005c-0.397-0.129-0.723-0.259-1.038-0.407l0.054 0.023c-1.258-0.633-2.294-1.546-3.054-2.66l-0.018-0.028c-0.399-0.509-0.66-1.143-0.719-1.835l-0.001-0.013c-0.001-0.019-0.001-0.041-0.001-0.063 0-0.57 0.24-1.085 0.624-1.448l0.001-0.001c0.119-0.132 0.289-0.215 0.48-0.216h0.288c0.096 0 0.24 0 0.384 0.312s0.528 1.248 0.576 1.32c0.024 0.045 0.038 0.099 0.038 0.156s-0.014 0.111-0.039 0.158l0.001-0.002c-0.050 0.12-0.114 0.223-0.193 0.313l0.001-0.001c-0.096 0.096-0.192 0.24-0.264 0.312s-0.192 0.192-0.072 0.36c0.279 0.477 0.605 0.888 0.982 1.246l0.002 0.002c0.41 0.363 0.886 0.662 1.407 0.876l0.033 0.012c0.192 0.096 0.288 0.072 0.408 0s0.432-0.528 0.552-0.696 0.24-0.168 0.408-0.096 1.056 0.48 1.224 0.576 0.288 0.12 0.336 0.216c0.012 0.073 0.019 0.157 0.019 0.243 0 0.188-0.033 0.369-0.095 0.536l0.003-0.011z"></path>
</svg>
