<svg xmlns="http://www.w3.org/2000/svg" viewBox="0 0 512 512"><!--! Font Awesome Pro 6.7.2 by @fontawesome - https://fontawesome.com License - https://fontawesome.com/license (Commercial License) Copyright 2024 Fonticons, Inc. --><path d="M432 80l0 32L80 112l0-32 352 0zM80 32L32 32l0 48 0 32 0 48 48 0 152 0 0 16-9.9 9.9-28.1 28.1L184 224 64 224l-24 0 0 24 0 104L0 352l0 48 0 32 0 48 48 0 32 0 48 0 0-48 0-32 0-48-40 0 0-80 96 0 9.9 9.9 28.1 28.1L232 320l0 32-40 0 0 48 0 32 0 48 48 0 32 0 48 0 0-48 0-32 0-48-40 0 0-32 9.9-9.9 28.1-28.1L328 272l96 0 0 80-40 0 0 48 0 32 0 48 48 0 32 0 48 0 0-48 0-32 0-48-40 0 0-104 0-24-24 0-120 0-9.9-9.9-28.1-28.1L280 176l0-16 152 0 48 0 0-48 0-32 0-48-48 0L80 32zM48 432l0-32 32 0 0 32-32 0zm224-32l0 32-32 0 0-32 32 0zm160 32l0-32 32 0 0 32-32 0zM227.9 248L256 219.9 284.1 248 256 276.1 227.9 248z"/></svg>