<svg xmlns="http://www.w3.org/2000/svg" viewBox="0 0 448 512"><!--! Font Awesome Pro 6.7.2 by @fontawesome - https://fontawesome.com License - https://fontawesome.com/license (Commercial License) Copyright 2024 Fonticons, Inc. --><path d="M400 80l0 352L48 432 48 80l352 0zM48 32L0 32 0 80 0 432l0 48 48 0 352 0 48 0 0-48 0-352 0-48-48 0L48 32zm72 76l-20 0 0 20 0 88 0 20 20 0 80 0 20 0 0-20 0-88 0-20-20 0-80 0zm20 88l0-48 40 0 0 48-40 0zm140-88l-20 0 0 40 16 0 0 68 0 20 40 0 0-20 0-88 0-20-20 0-16 0zM132 276l0 40 16 0 0 68 0 20 40 0 0-20 0-88 0-20-20 0-16 0-20 0zm96 0l0 20 0 88 0 20 20 0 80 0 20 0 0-20 0-88 0-20-20 0-80 0-20 0zm40 40l40 0 0 48-40 0 0-48z"/></svg>