<svg width="48" height="48" viewBox="0 0 99 117" class="pr-icon-iso-duotone-secondary"
     xmlns="http://www.w3.org/2000/svg" stroke-width="1px" stroke-linecap="round" stroke-linejoin="round">
    <path d="M87.8404 22.8095C87.8404 27.1795 86.4803 31.7095 83.7603 36.3995C81.0503 41.0795 77.7804 44.5194 73.9704 46.7194C70.1604 48.9194 66.9004 49.2494 64.1804 47.6994C61.4704 46.1494 60.1104 43.1894 60.1104 38.8194C60.1104 35.3894 60.9404 31.8795 62.6004 28.2695C63.0704 27.2595 63.5904 26.2494 64.1804 25.2294C64.5604 24.5694 64.9604 23.9394 65.3604 23.3294C67.8304 19.6094 70.7004 16.7995 73.9704 14.9095C77.4304 12.9095 80.4603 12.4495 83.0103 13.5595L83.7603 13.9295C86.4803 15.4695 87.8404 18.4395 87.8404 22.8095Z" class="pr-icon-iso-duotone-primary-stroke" stroke-linejoin="round"/>
    <path d="M45.0002 79.3595C43.9102 78.8695 42.7402 78.6596 41.4802 78.7496C39.7602 78.8496 37.8902 79.4896 35.8502 80.6596C32.5602 82.5596 29.6702 85.3896 27.2002 89.1396C26.8102 89.7296 26.4302 90.3496 26.0602 90.9896C25.4702 92.0096 24.9402 93.0196 24.4802 94.0196C22.8202 97.6296 21.9902 101.15 21.9902 104.58C21.9902 108.95 23.3402 111.91 26.0602 113.46L6.06023 103.46C3.34023 101.91 1.99023 98.9495 1.99023 94.5795C1.99023 90.2095 3.34023 85.6696 6.06023 80.9896C8.77023 76.3096 12.0402 72.8596 15.8502 70.6596C19.6602 68.4596 22.9202 68.1396 25.6402 69.6796L40.8102 77.2596L45.0002 79.3595Z" class="pr-icon-iso-duotone-primary-stroke" stroke-linejoin="round"/>
    <path d="M49.7102 88.5695C49.7102 92.9395 48.3502 97.4696 45.6402 102.15C42.9202 106.84 39.6602 110.28 35.8502 112.48C32.0402 114.68 28.7702 115.01 26.0602 113.46C23.3402 111.91 21.9902 108.95 21.9902 104.58C21.9902 101.15 22.8202 97.6296 24.4802 94.0196C24.9402 93.0196 25.4702 92.0096 26.0602 90.9896C26.4302 90.3496 26.8102 89.7296 27.2002 89.1396C29.6702 85.3896 32.5602 82.5596 35.8502 80.6596C37.8902 79.4896 39.7602 78.8496 41.4802 78.7496C42.7402 78.6596 43.9102 78.8696 45.0002 79.3596L45.6402 79.6796C46.7802 80.3396 47.6802 81.2396 48.3402 82.3896C48.6102 82.8396 48.8302 83.3296 49.0102 83.8596C49.4802 85.1896 49.7102 86.7595 49.7102 88.5695Z" class="pr-icon-iso-duotone-primary-stroke" stroke-linejoin="round"/>
    <path d="M85.8404 75.8594C86.4804 74.2994 86.9703 72.7395 87.3203 71.1795C87.6603 69.6195 87.8404 68.0795 87.8404 66.5595C87.8404 62.1795 86.4803 59.2195 83.7603 57.6695L83.1204 57.3494C80.5404 56.1894 77.4804 56.6195 73.9704 58.6495C71.0204 60.3495 68.4004 62.8095 66.1004 66.0095C65.4304 66.9395 64.7904 67.9294 64.1804 68.9794C63.0904 70.8594 62.2204 72.7195 61.5704 74.5495C60.6004 77.2795 60.1104 79.9495 60.1104 82.5595C60.1104 86.9395 61.4704 89.8994 64.1804 91.4494C66.9004 92.9994 70.1604 92.6694 73.9704 90.4694C75.2404 89.7294 76.4704 88.8395 77.6504 87.7995C78.7004 86.8695 79.6904 85.8394 80.6104 84.6894C80.7504 84.5394 80.8704 84.3894 80.9904 84.2294L91.6504 90.2094L96.5004 81.8394L85.8404 75.8594ZM80.4203 73.7995C80.0903 74.9595 79.5704 76.1494 78.8704 77.3494C77.7504 79.2794 76.4403 80.7894 74.9503 81.8594C74.6303 82.0994 74.3104 82.3195 73.9704 82.5095C72.0704 83.6195 70.4304 83.7795 69.0804 82.9995C67.7204 82.2295 67.0404 80.7495 67.0404 78.5595C67.0404 78.2595 67.0404 77.9495 67.0804 77.6495C67.2404 75.7495 67.9104 73.7895 69.0804 71.7695C69.7204 70.6595 70.4304 69.6894 71.1904 68.8594C72.0404 67.9394 72.9704 67.1894 73.9704 66.6094C75.8804 65.5094 77.5104 65.3394 78.8704 66.1194C80.2304 66.8894 80.9004 68.3695 80.9004 70.5595C80.9004 71.6195 80.7403 72.6995 80.4203 73.7995Z" class="pr-icon-iso-duotone-primary-stroke" stroke-linejoin="round"/>
    <path d="M80.9 70.5596C80.9 71.6196 80.74 72.6996 80.42 73.7996C80.09 74.9596 79.57 76.1495 78.87 77.3495C77.75 79.2795 76.44 80.7895 74.95 81.8595C74.63 82.0995 74.31 82.3195 73.97 82.5095C72.07 83.6195 70.43 83.7795 69.08 82.9995C67.72 82.2295 67.04 80.7496 67.04 78.5596C67.04 78.2596 67.04 77.9496 67.08 77.6496C67.24 75.7496 67.91 73.7896 69.08 71.7696C69.72 70.6596 70.43 69.6895 71.19 68.8595C72.04 67.9395 72.97 67.1895 73.97 66.6095C75.88 65.5095 77.51 65.3395 78.87 66.1195C80.23 66.8895 80.9 68.3696 80.9 70.5596Z" class="pr-icon-iso-duotone-primary-stroke" stroke-linejoin="round"/>
    <path d="M45.0002 35.6195C43.9102 35.1295 42.7402 34.9195 41.4902 34.9995C39.7702 35.0995 37.8902 35.7496 35.8502 36.9196C32.5602 38.8196 29.6802 41.6395 27.2102 45.3795C26.8102 45.9795 26.4302 46.5995 26.0602 47.2395C25.4602 48.2695 24.9302 49.2896 24.4702 50.2996C22.8102 53.9096 21.9902 57.4095 21.9902 60.8295C21.9902 65.1995 23.3402 68.1595 26.0602 69.7095C26.1402 69.7595 26.2302 69.7995 26.3102 69.8495L6.77023 60.0596L6.06023 59.7095C3.34023 58.1595 1.99023 55.1995 1.99023 50.8295C1.99023 46.4595 3.34023 41.9295 6.06023 37.2395C8.77023 32.5595 12.0402 29.1196 15.8502 26.9196C19.6602 24.7196 22.9202 24.3895 25.6402 25.9395L40.8102 33.5195L45.0002 35.6195Z" class="pr-icon-iso-duotone-primary-stroke" stroke-linejoin="round"/>
    <path d="M49.7102 44.8194C49.7102 47.7194 49.1202 50.6694 47.9202 53.6994C47.3202 55.2494 46.5502 56.8195 45.6402 58.4095C44.4902 60.3895 43.2502 62.1495 41.9002 63.6795C40.0602 65.7795 38.0502 67.4595 35.8502 68.7295C32.1602 70.8595 28.9702 71.2395 26.3102 69.8495C26.2302 69.7995 26.1402 69.7594 26.0602 69.7094C23.3402 68.1594 21.9902 65.1994 21.9902 60.8294C21.9902 57.4094 22.8102 53.9095 24.4702 50.2995C24.9302 49.2895 25.4602 48.2695 26.0602 47.2395C26.4302 46.5995 26.8102 45.9795 27.2102 45.3795C29.6802 41.6395 32.5602 38.8195 35.8502 36.9195C37.8902 35.7495 39.7702 35.0995 41.4902 34.9995C42.7402 34.9195 43.9102 35.1295 45.0002 35.6195L45.6402 35.9394C46.7702 36.5994 47.6802 37.4895 48.3302 38.6395C48.6002 39.0995 48.8302 39.5895 49.0102 40.1195C49.0202 40.1395 49.0202 40.1495 49.0302 40.1695C49.4802 41.4795 49.7102 43.0394 49.7102 44.8194Z" class="pr-icon-iso-duotone-primary-stroke" stroke-linejoin="round"/>
    <path d="M83.0103 13.5596C80.4603 12.4496 77.4304 12.9096 73.9704 14.9096C70.7004 16.7996 67.8304 19.6095 65.3604 23.3295C64.9604 23.9395 64.5604 24.5695 64.1804 25.2295C63.5904 26.2495 63.0704 27.2596 62.6004 28.2696C60.9404 31.8796 60.1104 35.3895 60.1104 38.8195C60.1104 43.1895 61.4704 46.1495 64.1804 47.6995L49.0104 40.1196C48.8304 39.5896 48.6004 39.0996 48.3304 38.6396C47.6804 37.4896 46.7704 36.5995 45.6404 35.9395L45.0004 35.6196L40.8103 33.5296C40.3403 32.1896 40.1104 30.6295 40.1104 28.8195C40.1104 24.4395 41.4704 19.9095 44.1804 15.2295C46.9004 10.5495 50.1604 7.10959 53.9704 4.90959C57.7804 2.70959 61.0504 2.37961 63.7604 3.92961L83.0103 13.5596Z" class="pr-icon-iso-duotone-primary-stroke" stroke-linejoin="round"/>
    <path d="M83.1204 57.3495C80.5404 56.1895 77.4804 56.6195 73.9704 58.6495C71.0204 60.3495 68.4004 62.8095 66.1004 66.0095C65.4304 66.9395 64.7904 67.9295 64.1804 68.9795C63.0904 70.8595 62.2204 72.7195 61.5704 74.5495C60.6004 77.2795 60.1104 79.9495 60.1104 82.5595C60.1104 86.9395 61.4704 89.8994 64.1804 91.4494L49.0104 83.8695C48.8304 83.3295 48.6103 82.8395 48.3403 82.3895C47.6803 81.2395 46.7804 80.3395 45.6404 79.6795L45.0004 79.3595L40.8103 77.2695C40.3403 75.9295 40.1104 74.3695 40.1104 72.5595C40.1104 69.6695 40.7004 66.7095 41.9004 63.6795C43.2504 62.1495 44.4904 60.3895 45.6404 58.4095C46.5504 56.8195 47.3203 55.2494 47.9203 53.6994C49.7603 51.5994 51.7704 49.9195 53.9704 48.6495C57.5304 46.5895 60.6303 46.1795 63.2303 47.3995L63.7604 47.6695L83.1204 57.3495Z" class="pr-icon-iso-duotone-primary-stroke" stroke-linejoin="round"/>
    <path d="M91.6504 90.2095L80.6104 84.6895C80.7504 84.5395 80.8704 84.3895 80.9904 84.2295L91.6504 90.2095Z" class="pr-icon-iso-duotone-primary-stroke" stroke-linejoin="round"/>
</svg>