<svg width="24" height="24" viewBox="0 0 75 102" class="pr-icon-iso-duotone-secondary" xmlns="http://www.w3.org/2000/svg" stroke-width="1px" stroke-linecap="round" stroke-linejoin="round">
    <path d="M72.3247 12.4722V70.0723L22.1348 99.0522C22.1348 91.3022 23.2747 83.4622 25.5447 75.5422C27.9647 67.0422 31.6949 58.4522 36.7249 49.7722C41.4249 41.6622 46.6247 34.5722 52.3247 28.5022C58.4147 22.0022 65.0847 16.6622 72.3247 12.4722Z" class="pr-icon-iso-duotone-primary-stroke" stroke-linejoin="round"/>
    <path d="M72.3247 12.4722C65.0847 16.6622 58.4147 22.0022 52.3247 28.5022C46.6247 34.5722 41.4249 41.6622 36.7249 49.7722C31.6949 58.4522 27.9647 67.0422 25.5447 75.5422C23.2747 83.4622 22.1348 91.3022 22.1348 99.0522L2.13477 89.0522C2.13477 72.9822 7.00485 56.5522 16.7249 39.7722C26.4449 23.0022 38.3147 10.5722 52.3247 2.47217L72.3247 12.4722Z" class="pr-icon-iso-duotone-primary-stroke" stroke-linejoin="round"/>
</svg>