<svg width="48" height="48" viewBox="0 0 107 86" fill="#c8e7ff" xmlns="http://www.w3.org/2000/svg" stroke-width="1px" stroke-linecap="round" stroke-linejoin="round"><path d="M84.2332 12.6282L83.623 13.6781L78.4531 22.6082L58.4531 12.6082L64.2332 2.62817L84.2332 12.6282Z" stroke="#229EFF" stroke-linejoin="round"/><path d="M104.903 24.4082L84.2334 60.0581L78.4534 56.7582L89.0933 38.2782L67.0034 51.0381L66.6233 51.2582L38.0432 67.7582L48.6833 73.9381L42.9033 83.9281L23.5134 72.8682L22.2334 72.1382L27.4133 63.1981L36.8733 46.8782L42.9033 36.4882L48.6833 39.7881L48.4434 40.1981L38.0432 58.2682L58.6833 46.3481L70.2534 39.6781L89.0933 28.7981L79.7234 23.3481L78.4534 22.6082L83.6233 13.6781L84.2334 12.6282L104.903 24.4082Z" stroke="#229EFF" stroke-linejoin="round"/><path d="M89.093 28.7981L79.373 23.9381L69.093 18.7981L58.4531 12.6082L78.4531 22.6082L79.7231 23.3481L89.093 28.7981Z" stroke="#229EFF" stroke-linejoin="round"/><path d="M89.0938 38.2783L78.4539 56.7583L67.0039 51.0382L89.0938 38.2783Z" stroke="#229EFF" stroke-linejoin="round"/><path d="M84.2332 60.0581L66.623 51.2582L67.0032 51.0381L78.4531 56.7582L84.2332 60.0581Z" stroke="#229EFF" stroke-linejoin="round"/><path d="M42.9033 83.9281L22.9033 73.9281L2.2334 62.1382L22.2334 72.1382L23.5134 72.8682L42.9033 83.9281Z" stroke="#229EFF" stroke-linejoin="round"/><path d="M89.093 28.7981L70.2532 39.6781L58.6831 46.3481L38.043 58.2682L48.4431 40.1981L48.6831 39.7881L42.9031 36.4882L40.5132 35.2981L69.093 18.7981L79.373 23.9381L89.093 28.7981Z" stroke="#229EFF" stroke-linejoin="round"/><path d="M42.9033 36.4883L36.8733 46.8783L27.4133 63.1982L22.2334 72.1383L2.2334 62.1383L22.9033 26.4883L40.5134 35.2982L42.9033 36.4883Z" stroke="#229EFF" stroke-linejoin="round"/></svg>