<svg width="48" height="48" viewBox="0 0 88 114" fill="#c8e7ff" xmlns="http://www.w3.org/2000/svg" stroke-width="1px" stroke-linecap="round" stroke-linejoin="round"><path d="M85.24 43.45C85.24 53.54 82.19 63.89 76.09 74.49C69.99 85.09 62.54 92.92 53.75 98L53.06 98.4L59.36 101.99L53.85 111.49L38.1 102.52L53.85 75.36L59.36 78.5L53.06 89.36L53.75 88.96C60.31 85.18 65.89 79.3 70.48 71.34C75.07 63.39 77.37 55.6 77.37 48C77.37 46.04 77.17 44.24 76.78 42.58C76.39 40.93 75.79 39.42 75.01 38.07L80.91 27.89C82.36 29.91 83.44 32.22 84.16 34.82C84.88 37.41 85.24 40.29 85.24 43.45Z" stroke="#229EFF" stroke-linejoin="round"/><path d="M77.37 48C77.37 55.6 75.07 63.39 70.48 71.34C65.89 79.3 60.31 85.18 53.75 88.96L53.06 89.36L59.36 78.5L53.85 75.36L44.01 70.44C46.35 67.79 48.51 64.76 50.48 61.34C54.19 54.91 56.41 48.59 57.12 42.39L63.08 32.11L65.24 33.18L75.01 38.07C75.79 39.42 76.39 40.93 76.78 42.58C77.17 44.24 77.37 46.04 77.37 48Z" stroke="#229EFF" stroke-linejoin="round"/><path d="M53.85 75.36L38.1 102.52L18.1 92.52L18.52 91.8L26.59 95.84L32.49 85.65C31.71 84.3 31.12 82.8 30.72 81.14C30.33 79.49 30.13 77.68 30.13 75.72C30.13 74.27 30.21 72.8 30.38 71.34L33.85 65.36L53.85 75.36Z" stroke="#229EFF" stroke-linejoin="round"/><path d="M53.65 12.23L48.14 21.74L44.38 19.86L34.62 14.97L28.14 11.74L33.65 2.22998L53.65 12.23Z" stroke="#229EFF" stroke-linejoin="round"/><path d="M69.4 21.21L68.98 21.93L64.96 28.86L63.08 32.11L57.12 42.39L53.65 48.37L48.14 45.23L54.44 34.36L53.75 34.76C50.1 36.87 46.75 39.62 43.72 43.02C43.64 43.11 43.56 43.2 43.48 43.29C41.14 45.93 38.99 48.96 37.02 52.38C33.31 58.82 31.09 65.14 30.38 71.34C30.21 72.8 30.13 74.27 30.13 75.72C30.13 77.68 30.33 79.49 30.72 81.14C31.12 82.8 31.71 84.3 32.49 85.65L26.59 95.84C25.15 93.81 24.06 91.5 23.34 88.9C22.99 87.62 22.72 86.28 22.54 84.86C22.35 83.4 22.26 81.87 22.26 80.27C22.26 70.18 25.31 59.84 31.41 49.24C33.28 45.98 35.29 42.98 37.41 40.25C37.49 40.15 37.56 40.06 37.63 39.97C42.38 33.94 47.75 29.19 53.75 25.73L54.44 25.33L48.14 21.74L53.65 12.23L69.4 21.21Z" stroke="#229EFF" stroke-linejoin="round"/><path d="M80.9101 27.8899L75.0101 38.0699L65.2401 33.1799L63.0801 32.1099L64.9601 28.8599L68.9801 21.9299L80.9101 27.8899Z" stroke="#229EFF" stroke-linejoin="round"/><path d="M53.85 111.49L33.85 101.49L18.1 92.52L38.1 102.52L53.85 111.49Z" stroke="#229EFF" stroke-linejoin="round"/><path d="M54.44 34.36L48.14 45.23L43.72 43.02C46.75 39.62 50.1 36.87 53.75 34.76L54.44 34.36Z" stroke="#229EFF" stroke-linejoin="round"/><path d="M54.44 25.33L44.19 20.2L34.44 15.33L28.14 11.74L34.62 14.97L44.38 19.86L48.14 21.74L54.44 25.33Z" stroke="#229EFF" stroke-linejoin="round"/><path d="M54.44 25.33L53.75 25.73C47.75 29.19 42.38 33.94 37.63 39.97C37.56 40.06 37.49 40.15 37.41 40.25C35.29 42.98 33.28 45.98 31.41 49.24C25.31 59.84 22.26 70.18 22.26 80.27C22.26 81.87 22.35 83.4 22.54 84.86C22.72 86.28 22.99 87.62 23.34 88.9C24.06 91.5 25.15 93.81 26.59 95.84L18.52 91.8L6.59001 85.84C5.15001 83.81 4.06001 81.5 3.34001 78.9C2.62001 76.31 2.26001 73.43 2.26001 70.27C2.26001 60.18 5.31002 49.84 11.41 39.24C17.51 28.64 24.96 20.8 33.75 15.73L34.44 15.33L44.19 20.2L54.44 25.33Z" stroke="#229EFF" stroke-linejoin="round"/><path d="M53.65 48.37L43.48 43.29" stroke="#229EFF" stroke-linejoin="round"/></svg>