<svg width="24" height="24" viewBox="0 0 88 122" class="pr-icon-iso-duotone-secondary" xmlns="http://www.w3.org/2000/svg" stroke-width="1px" stroke-linecap="round" stroke-linejoin="round">
    <path d="M65.03 23.55L58.0801 27.56L22.4502 48.13V119.94L85.03 83.81V12L65.03 23.55ZM78.0801 63.89L65.03 71.42L29.4001 91.99V52.09L58.0801 35.53L65.03 31.52L78.0801 23.99V63.89Z" class="pr-icon-iso-duotone-primary-stroke" stroke-linejoin="round"/>
    <path d="M85.03 12L65.03 23.55L58.0801 27.56L22.4502 48.13L9.8501 41.83L2.4502 38.13L65.03 2L85.03 12Z" class="pr-icon-iso-duotone-primary-stroke" stroke-linejoin="round"/>
    <path d="M22.4502 48.1299V119.94L2.4502 109.94V38.1299L9.8501 41.8299L22.4502 48.1299Z" class="pr-icon-iso-duotone-primary-stroke" stroke-linejoin="round"/>
    <path d="M78.0801 23.99V63.89L65.03 57.37L58.0801 53.89V35.53L65.03 31.52L78.0801 23.99Z" class="pr-icon-iso-duotone-primary-stroke" stroke-linejoin="round"/>
    <path d="M78.0803 63.8901L65.0303 71.4201L29.4004 91.9901V70.4501L58.0803 53.8901L65.0303 57.3701L78.0803 63.8901Z" class="pr-icon-iso-duotone-primary-stroke" stroke-linejoin="round"/>
</svg>