<svg width="48" height="48" viewBox="0 0 84 121" fill="#c8e7ff" xmlns="http://www.w3.org/2000/svg" stroke-width="1px" stroke-linecap="round" stroke-linejoin="round"><path d="M43.74 72.65L29.6301 80.79L26.5 82.6L24.53 81.62L15.52 77.11L6.5 72.6L23.74 62.65L36.1201 68.84L41.77 71.66L43.74 72.65Z" stroke="#229EFF" stroke-linejoin="round"/><path d="M43.7405 72.65L41.7705 71.66L36.1206 68.84L23.7405 62.65L2.27051 36.2L22.2705 46.2L37.2007 64.59L42.5605 71.2L43.7405 72.65Z" stroke="#229EFF" stroke-linejoin="round"/><path d="M81.5107 12L71.4609 17.8L57.7607 10.95L51.4609 7.80002L61.5107 2L81.5107 12Z" stroke="#229EFF" stroke-linejoin="round"/><path d="M32.3206 40.4L24.2205 45.08L22.2705 46.2L2.27051 36.2L12.3206 30.4L32.3206 40.4Z" stroke="#229EFF" stroke-linejoin="round"/><path d="M60.0305 63.24L77.2805 53.28V63L68.2605 68.2L56.1206 75.21V84.92L77.2805 72.71V82.42L56.1206 94.63V114.05L47.6606 118.94V99.52L29.6306 109.92L26.5005 111.73V102.02L27.6606 101.35L36.1206 96.47L47.6606 89.81V80.1L38.6406 85.3L36.1206 86.76L27.6606 91.64L26.5005 92.31V82.6L29.6306 80.79L43.7405 72.65L42.5605 71.2L37.2007 64.59L22.2705 46.2L24.2205 45.08L32.3206 40.4L35.9407 44.87L40.9507 51.05L41.8706 52.18L47.2305 58.8L51.8906 64.54L56.5405 53.42L57.2805 51.67L60.1807 44.73L71.4607 17.8L81.5105 12L66.4705 47.88L60.0305 63.24Z" stroke="#229EFF" stroke-linejoin="round"/><path d="M71.4604 17.8L60.1804 44.73L57.2803 51.67L56.5403 53.42L51.8904 64.54L47.2302 58.8L41.8704 52.18L40.9504 51.05L35.9404 44.87L51.4604 7.80002L57.7603 10.95L71.4604 17.8Z" stroke="#229EFF" stroke-linejoin="round"/><path d="M77.2803 53.28L60.0303 63.24L66.4702 47.88L77.2803 53.28Z" stroke="#229EFF" stroke-linejoin="round"/><path d="M77.281 72.71L56.1211 84.92V75.21L68.261 68.2L77.281 72.71Z" stroke="#229EFF" stroke-linejoin="round"/><path d="M26.5 82.6V92.31L24.53 91.33L15.52 86.82L6.5 82.31V72.6L15.52 77.11L24.53 81.62L26.5 82.6Z" stroke="#229EFF" stroke-linejoin="round"/><path d="M47.6606 80.1V89.81L38.6406 85.3L47.6606 80.1Z" stroke="#229EFF" stroke-linejoin="round"/><path d="M47.6602 89.81L36.1201 96.47L27.6602 101.35L26.5 102.02L6.5 92.02L15.52 86.82L24.53 91.33L26.5 92.31L27.6602 91.64L36.1201 86.76L38.6401 85.3L47.6602 89.81Z" stroke="#229EFF" stroke-linejoin="round"/><path d="M26.5 102.02V111.73L6.5 101.73V92.02L26.5 102.02Z" stroke="#229EFF" stroke-linejoin="round"/><path d="M47.6609 99.52V118.94L29.6309 109.92L47.6609 99.52Z" stroke="#229EFF" stroke-linejoin="round"/></svg>