<svg width="48" height="48" viewBox="0 0 90 127" fill="#c8e7ff" xmlns="http://www.w3.org/2000/svg" stroke-width="1px" stroke-linecap="round" stroke-linejoin="round"><path d="M67.1696 23.59L54.3596 30.98L44.2297 36.83L29.9497 45.08L29.7897 45.18L22.1396 49.59V124.21L87.1696 86.66V12.04L67.1696 23.59ZM44.6096 64.11L49.6396 55.43L49.8697 55.03L57.0897 59.15L67.1696 41.77L70.3697 36.25L75.4297 39.14L67.1696 53.43L60.1797 65.51L57.0897 70.86L56.8497 70.72L53.0097 68.53L50.0797 66.86L49.8697 66.74L39.6597 84.25L38.9397 85.49L38.2197 85.08L35.3596 83.45L33.8797 82.61L44.6096 64.11ZM29.3697 111.74V106.46L35.3896 96.07L35.5997 95.71L43.2796 91.28L39.3497 98.05L32.4397 109.97L29.3697 111.74ZM39.0296 106.16L42.7496 99.75L49.2697 88.51L49.8697 87.47L57.5497 83.04L53.2297 90.49L46.7097 101.73L39.0296 106.16ZM52.4897 98.39L56.2097 91.98L62.7697 80.67L63.3297 79.7L70.9996 75.27L66.7297 82.65L60.1696 93.96L52.4897 98.39ZM79.9397 75.39L73.7097 86.14L66.0397 90.57L69.7496 84.16L75.9797 73.41L76.8697 71.88L79.9397 70.11V75.39Z" stroke="#229EFF" stroke-linejoin="round"/><path d="M79.9395 70.1099V75.3899L75.9795 73.4099L76.8695 71.8799L79.9395 70.1099Z" stroke="#229EFF" stroke-linejoin="round"/><path d="M60.1697 93.96L52.4897 98.39L56.2097 91.98L60.1697 93.96Z" stroke="#229EFF" stroke-linejoin="round"/><path d="M32.4396 109.97L29.3696 111.74V108.44L32.4396 109.97Z" stroke="#229EFF" stroke-linejoin="round"/><path d="M46.7098 101.73L39.0298 106.16L42.7498 99.75L46.7098 101.73Z" stroke="#229EFF" stroke-linejoin="round"/><path d="M73.7095 86.1402L66.0396 90.5702L69.7495 84.1602L73.7095 86.1402Z" stroke="#229EFF" stroke-linejoin="round"/><path d="M79.9395 75.3902L73.7095 86.1402L69.7495 84.1602L75.9795 73.4102L79.9395 75.3902Z" stroke="#229EFF" stroke-linejoin="round"/><path d="M70.9995 75.27L66.7295 82.65L60.1695 93.96L56.2095 91.98L62.7695 80.67L63.3295 79.7L70.9995 75.27Z" stroke="#229EFF" stroke-linejoin="round"/><path d="M57.5495 83.04L53.2295 90.49L46.7095 101.73L42.7495 99.75L49.2695 88.51L49.8695 87.47L57.5495 83.04Z" stroke="#229EFF" stroke-linejoin="round"/><path d="M43.2796 91.2803L39.3496 98.0503L32.4396 109.97L29.3696 108.44V106.46L35.3896 96.0703L35.5996 95.7103L43.2796 91.2803Z" stroke="#229EFF" stroke-linejoin="round"/><path d="M57.0897 59.1503L49.6396 55.4303L49.8697 55.0303L57.0897 59.1503Z" stroke="#229EFF" stroke-linejoin="round"/><path d="M75.4299 39.14L67.1699 53.43L60.1799 65.51L57.0899 70.86L56.8499 70.72L53.0099 68.53L50.0799 66.86L49.8699 66.74L44.6099 64.11L49.6399 55.43L57.0899 59.15L67.1699 41.77L70.3699 36.25L75.4299 39.14Z" stroke="#229EFF" stroke-linejoin="round"/><path d="M49.8699 66.7399L39.6599 84.2499L38.9399 85.4899L38.2199 85.0799L35.3599 83.4499L33.8799 82.6099L44.6099 64.1099L49.8699 66.7399Z" stroke="#229EFF" stroke-linejoin="round"/><path d="M22.1396 49.5898V124.21L2.13965 114.21V39.5898L22.1396 49.5898Z" stroke="#229EFF" stroke-linejoin="round"/><path d="M87.1696 12.04L67.1696 23.59L54.3596 30.98L44.2297 36.83L29.9497 45.08L29.8697 45.03L29.7897 45.18L22.1396 49.59L2.13965 39.59L67.1696 2.04004L87.1696 12.04Z" stroke="#229EFF" stroke-linejoin="round"/></svg>