<svg width="48" height="48" viewBox="0 0 98 101" class="pr-icon-iso-duotone-secondary"
     xmlns="http://www.w3.org/2000/svg" stroke-width="1px" stroke-linecap="round" stroke-linejoin="round">
    <path d="M67.9497 13.66L55.1096 12.6001L32.4097 40.6801L25.1296 49.6901L22.2598 53.23V96.16L54.1897 98.76L53.2798 96.88C52.6698 95.56 52.2197 94.0801 51.9097 92.4401C51.6797 91.1601 51.5297 89.8 51.4897 88.37C51.4697 87.97 51.4597 87.56 51.4597 87.15C51.4597 86.64 51.4697 86.12 51.4897 85.61C51.7397 79.05 53.6196 72.32 57.1296 65.41C57.6896 64.31 58.2997 63.2101 58.9397 62.1001C59.1597 61.7101 59.3896 61.3301 59.6196 60.9601C59.6296 60.9401 59.6297 60.93 59.6497 60.92C63.7697 54.1 68.5798 48.7801 74.0698 44.9601C74.8598 44.4101 75.6497 43.89 76.4697 43.41C76.6397 43.3 76.8198 43.1901 76.9998 43.0901C78.9498 41.9601 80.8497 41.11 82.7097 40.53C84.5597 39.95 86.3097 39.6301 87.9497 39.5901V15.3L67.9497 13.66ZM80.6497 28.8401L71.0798 40.7201L70.9797 40.8501L58.8298 55.9301L55.1797 60.4601L55.1096 60.55L41.8596 59.4L35.5198 58.86L29.5598 58.3401V53.9401L32.4697 50.3201L33.4797 49.0601L36.1296 49.29L40.4297 49.65L47.2798 50.24L55.1096 50.91L64.7898 38.9L75.1296 26.0801L76.7297 24.0901L80.6497 24.4401V28.8401Z"
          class="pr-icon-iso-duotone-primary-stroke" stroke-linejoin="round"/>
    <path d="M89.9097 50.1301L89.0498 49.7001C85.6698 48.2001 81.6498 48.7801 76.9998 51.4601C76.3998 51.8101 75.8197 52.1701 75.2397 52.5701C71.3397 55.2001 67.9197 58.8701 64.9797 63.5801C64.9097 63.6801 64.8398 63.7901 64.7798 63.9001C64.5398 64.2701 64.3098 64.6501 64.0898 65.0401C63.4398 66.1601 62.8498 67.2701 62.3298 68.3801C60.0598 73.1001 58.8798 77.72 58.7698 82.23C58.7598 82.47 58.7598 82.7001 58.7598 82.9401C58.7598 88.7301 60.5298 92.6401 64.0898 94.6701C67.6498 96.7001 71.9498 96.2601 76.9998 93.3401C82.0498 90.4301 86.3497 85.9001 89.9097 79.7601C93.4697 73.6301 95.2498 67.6601 95.2498 61.8701C95.2498 56.0801 93.4697 52.1601 89.9097 50.1301ZM83.0098 78.7701L75.1697 74.2901V60.8901L78.8198 58.7901V70.5101L85.5698 74.36L83.0098 78.7701Z"
          class="pr-icon-iso-duotone-primary-stroke" stroke-linejoin="round"/>
    <path d="M85.5698 74.36L83.0098 78.77L75.1797 74.29V68.6901L78.8198 70.51L85.5698 74.36Z"
          class="pr-icon-iso-duotone-primary-stroke" stroke-linejoin="round"/>
    <path d="M78.8198 58.79V70.51L75.1797 68.6901V60.89L78.8198 58.79Z" class="pr-icon-iso-duotone-primary-stroke"
          stroke-linejoin="round"/>
    <path d="M80.6489 24.4401V28.8401L75.1289 26.0801L76.719 24.0901L80.6489 24.4401Z"
          class="pr-icon-iso-duotone-primary-stroke" stroke-linejoin="round"/>
    <path d="M80.6494 28.8401L71.0696 40.7201L70.9695 40.8501L58.8196 55.9301L55.1794 60.4601L55.0996 60.55L44.0796 55.04L38.7695 52.38L35.0996 50.55L36.1294 49.29L40.4294 49.65L47.2695 50.24L55.0996 50.91L64.7795 38.9L75.1294 26.0801L80.6494 28.8401Z"
          class="pr-icon-iso-duotone-primary-stroke" stroke-linejoin="round"/>
    <path d="M55.1008 60.55L41.8606 59.4L35.5107 58.86L29.5508 58.3401V53.9401L32.4707 50.3201L35.1008 50.55L38.7708 52.38L44.0808 55.04L55.1008 60.55Z"
          class="pr-icon-iso-duotone-primary-stroke" stroke-linejoin="round"/>
    <path d="M22.25 53.23V96.16L2.25 86.16V43.23L9.55005 46.88L13.0801 48.65H13.0901L22.25 53.23Z"
          class="pr-icon-iso-duotone-primary-stroke" stroke-linejoin="round"/>
    <path d="M55.1001 12.6001L32.4099 40.6801L25.1299 49.6901L22.25 53.23L13.0901 48.65H13.0801L9.55005 46.88L2.25 43.23L35.1001 2.6001L55.1001 12.6001Z"
          class="pr-icon-iso-duotone-primary-stroke" stroke-linejoin="round"/>
    <path d="M87.9495 15.3L67.9495 13.66L55.0996 12.6001L35.0996 2.6001L67.9495 5.30005L87.9495 15.3Z"
          class="pr-icon-iso-duotone-primary-stroke" stroke-linejoin="round"/>
    <path d="M89.0393 49.7001C85.6593 48.2001 81.6393 48.7801 76.9893 51.4601C76.3893 51.8101 75.8092 52.1701 75.2292 52.5701C71.3292 55.2001 67.9092 58.8701 64.9692 63.5801C64.8992 63.6801 64.8293 63.79 64.7693 63.9C64.5293 64.27 64.2993 64.65 64.0793 65.04C63.4293 66.16 62.8393 67.27 62.3193 68.38C60.0493 73.1 58.8693 77.72 58.7593 82.23C58.7493 82.47 58.7493 82.7001 58.7493 82.9401C58.7493 88.7301 60.5193 92.64 64.0793 94.67L51.4792 88.37C51.4592 87.97 51.4492 87.56 51.4492 87.15C51.4492 86.64 51.4592 86.12 51.4792 85.61C51.7292 79.05 53.6091 72.32 57.1191 65.41C57.6791 64.31 58.2892 63.2101 58.9292 62.1001C59.1492 61.7101 59.3791 61.3301 59.6091 60.9601C59.6191 60.9401 59.6192 60.93 59.6392 60.92C63.7592 54.1 68.5693 48.7801 74.0593 44.9601C74.8493 44.4101 75.6392 43.89 76.4592 43.41L89.0393 49.7001Z"
          class="pr-icon-iso-duotone-primary-stroke" stroke-linejoin="round"/>
</svg>