<svg width="24" height="24" viewBox="0 0 100 118" class="pr-icon-iso-duotone-secondary" xmlns="http://www.w3.org/2000/svg" stroke-width="1px" stroke-linecap="round" stroke-linejoin="round">
    <path d="M77.2791 24.1203L69.8291 28.4203L66.509 30.3303L62.3792 32.7203L60.0391 34.0703V16.9803L36.7192 30.4403L22.7891 38.4803V115.41L97.2791 72.4003V12.5703L77.2791 24.1203ZM37.6892 98.2603L30.239 102.56V94.0103L37.6892 89.7103V98.2603ZM37.6892 81.1703L36.7192 81.7303L30.239 85.4703V76.9203L32.5891 75.5603L37.6892 72.6203V81.1703ZM37.6892 64.0703L36.7192 64.6303L30.239 68.3703V59.8203L32.5891 58.4603L37.6892 55.5203V64.0703ZM37.6892 46.9703L36.7192 47.5303L30.239 51.2803V42.7303L32.5891 41.3703L37.6892 38.4303V46.9703ZM52.5891 89.6603L45.1392 93.9603V85.4103L52.5891 81.1103V89.6603ZM52.5891 72.5603L45.1392 76.8703V68.3203L52.5891 64.0203V72.5603ZM52.5891 55.4703L51.6191 56.0303L47.489 58.4103L45.1392 59.7703V51.2203L52.5891 46.9203V55.4703ZM52.5891 38.3703L51.6191 38.9303L47.489 41.3103L45.1392 42.6703V34.1303L52.5891 29.8303V38.3703ZM89.8291 68.1603L60.0391 85.3603V76.8103L67.489 72.5103V63.9603L66.999 64.2403L60.0391 68.2603V59.7203L67.009 55.7003L67.489 55.4203V46.8703L67.009 47.1503L66.519 47.4303L62.3792 49.8203L60.0391 51.1703V42.6203L66.999 38.6003L69.8291 36.9703L74.4492 34.3003L77.2791 32.6703L89.8291 25.4203V68.1603Z" class="pr-icon-iso-duotone-primary-stroke" stroke-linejoin="round"/>
    <path d="M89.8291 68.1604L60.0391 85.3604V76.8104L67.489 72.5104V64.4904L74.9292 68.2104L81.8892 64.1904L89.8291 68.1604Z" class="pr-icon-iso-duotone-primary-stroke" stroke-linejoin="round"/>
    <path d="M89.8291 25.4204V68.1604L81.8892 64.1904L82.3792 63.9104V55.3604L69.8291 49.0904V48.5604L74.9292 51.1104L77.2791 49.7504L82.3792 46.8104V38.2704L77.2791 35.7204L74.4492 34.3004L77.2791 32.6704L89.8291 25.4204Z" class="pr-icon-iso-duotone-primary-stroke" stroke-linejoin="round"/>
    <path d="M82.3792 38.2705V46.8105L77.2791 49.7505L74.9292 51.1105V42.5705L77.2791 41.2105L82.3792 38.2705Z" class="pr-icon-iso-duotone-primary-stroke" stroke-linejoin="round"/>
    <path d="M82.3792 38.2703L77.2791 41.2103L74.9292 42.5703L69.8291 40.0203L66.999 38.6003L69.8291 36.9703L74.4492 34.3003L77.2791 35.7203L82.3792 38.2703Z" class="pr-icon-iso-duotone-primary-stroke" stroke-linejoin="round"/>
    <path d="M82.3792 55.3604V63.9104L81.8892 64.1904L74.9292 68.2104V59.6604L77.2791 58.3004L82.3792 55.3604Z" class="pr-icon-iso-duotone-primary-stroke" stroke-linejoin="round"/>
    <path d="M67.489 63.9602L66.999 64.2402L60.0391 68.2602V60.2402L63.3591 61.9002L67.489 63.9602Z" class="pr-icon-iso-duotone-primary-stroke" stroke-linejoin="round"/>
    <path d="M52.5891 89.6604L45.1392 93.9604V85.9404L52.5891 89.6604Z" class="pr-icon-iso-duotone-primary-stroke" stroke-linejoin="round"/>
    <path d="M52.5891 81.1104V89.6604L45.1392 85.9404V85.4104L52.5891 81.1104Z" class="pr-icon-iso-duotone-primary-stroke" stroke-linejoin="round"/>
    <path d="M52.5891 72.5603L45.1392 76.8703V68.8403L48.4592 70.5003L52.5891 72.5603Z" class="pr-icon-iso-duotone-primary-stroke" stroke-linejoin="round"/>
    <path d="M52.5891 64.0205V72.5605L48.4592 70.5005L45.1392 68.8405V68.3205L52.5891 64.0205Z" class="pr-icon-iso-duotone-primary-stroke" stroke-linejoin="round"/>
    <path d="M52.5891 46.9204V55.4704L45.1392 51.7504V51.2204L52.5891 46.9204Z" class="pr-icon-iso-duotone-primary-stroke" stroke-linejoin="round"/>
    <path d="M52.5891 55.4705L51.6191 56.0305L47.489 58.4105L45.1392 59.7705V51.7505L52.5891 55.4705Z" class="pr-icon-iso-duotone-primary-stroke" stroke-linejoin="round"/>
    <path d="M52.5891 29.8301V38.3701L45.1392 34.6501V34.1301L52.5891 29.8301Z" class="pr-icon-iso-duotone-primary-stroke" stroke-linejoin="round"/>
    <path d="M52.5891 38.3704L51.6191 38.9304L47.489 41.3104L45.1392 42.6704V34.6504L52.5891 38.3704Z" class="pr-icon-iso-duotone-primary-stroke" stroke-linejoin="round"/>
    <path d="M37.6892 55.5205V64.0705L32.5891 61.5205L30.239 60.3505V59.8205L32.5891 58.4605L37.6892 55.5205Z" class="pr-icon-iso-duotone-primary-stroke" stroke-linejoin="round"/>
    <path d="M37.6892 64.0701L36.7192 64.6301L30.239 68.3701V60.3501L32.5891 61.5201L37.6892 64.0701Z" class="pr-icon-iso-duotone-primary-stroke" stroke-linejoin="round"/>
    <path d="M37.6892 72.6201V81.1701L32.5891 78.6201L30.239 77.4501V76.9201L32.5891 75.5601L37.6892 72.6201Z" class="pr-icon-iso-duotone-primary-stroke" stroke-linejoin="round"/>
    <path d="M37.6892 98.2605L30.239 102.561V94.5405L37.6892 98.2605Z" class="pr-icon-iso-duotone-primary-stroke" stroke-linejoin="round"/>
    <path d="M37.6892 89.7104V98.2605L30.239 94.5405V94.0105L37.6892 89.7104Z" class="pr-icon-iso-duotone-primary-stroke" stroke-linejoin="round"/>
    <path d="M37.6892 46.9705L36.7192 47.5305L30.239 51.2805V43.2505L32.5891 44.4205L37.6892 46.9705Z" class="pr-icon-iso-duotone-primary-stroke" stroke-linejoin="round"/>
    <path d="M74.9292 59.6602V68.2102L67.489 64.4902V63.9602L63.3591 61.9002L60.0391 60.2402V59.7202L67.009 55.7002L69.8291 57.1102L74.9292 59.6602Z" class="pr-icon-iso-duotone-primary-stroke" stroke-linejoin="round"/>
    <path d="M37.6892 81.1702L36.7192 81.7302L30.239 85.4702V77.4502L32.5891 78.6202L37.6892 81.1702Z" class="pr-icon-iso-duotone-primary-stroke" stroke-linejoin="round"/>
    <path d="M37.6892 38.4302V46.9702L32.5891 44.4202L30.239 43.2502V42.7302L32.5891 41.3702L37.6892 38.4302Z" class="pr-icon-iso-duotone-primary-stroke" stroke-linejoin="round"/>
    <path d="M97.2791 12.5703L77.2791 24.1203L69.8291 28.4203L66.509 30.3303L62.3792 32.7203L60.0391 34.0703V16.9803L55.8992 14.9103L77.2791 2.57031L97.2791 12.5703Z" class="pr-icon-iso-duotone-primary-stroke" stroke-linejoin="round"/>
    <path d="M60.0391 16.9805L36.7192 30.4405L22.7891 38.4805L17.6892 35.9305L10.729 32.4505L2.78906 28.4805L40.0391 6.98047L55.8992 14.9105L60.0391 16.9805Z" class="pr-icon-iso-duotone-primary-stroke" stroke-linejoin="round"/>
    <path d="M22.7891 38.4805V115.41L2.78906 105.41V28.4805L10.729 32.4505L17.6892 35.9305L22.7891 38.4805Z" class="pr-icon-iso-duotone-primary-stroke" stroke-linejoin="round"/>
    <path d="M67.489 46.8704L67.009 47.1504L66.519 47.4304L62.3792 49.8204L60.0391 51.1704V43.1504L67.489 46.8704Z" class="pr-icon-iso-duotone-primary-stroke" stroke-linejoin="round"/>
    <path d="M82.3792 55.3604L77.2791 58.3004L74.9292 59.6604L69.8291 57.1104L67.009 55.7004L67.489 55.4204V47.9204L69.8291 49.0904L82.3792 55.3604Z" class="pr-icon-iso-duotone-primary-stroke" stroke-linejoin="round"/>
    <path d="M74.9292 42.5701V51.1101L69.8291 48.5601L67.489 47.3901V46.8701L60.0391 43.1501V42.6201L66.999 38.6001L69.8291 40.0201L74.9292 42.5701Z" class="pr-icon-iso-duotone-primary-stroke" stroke-linejoin="round"/>
</svg>