<svg width="24" height="24" viewBox="0 0 95 124" class="pr-icon-iso-duotone-secondary" xmlns="http://www.w3.org/2000/svg" stroke-width="1px" stroke-linecap="round" stroke-linejoin="round">
    <path d="M75.0699 50.5V78.84L65.6599 74.14L55.6699 69.14V61.7L72.71 51.86L75.0699 50.5Z" class="pr-icon-iso-duotone-primary-stroke" stroke-linejoin="round"/>
    <path d="M85.6594 36.29L92.7095 32.22V24.12L85.6594 28.1899V12L77.6794 16.61L72.7095 19.48L55.0695 29.66L35.6694 40.86L32.1394 42.9L22.1494 48.6699V121.54L85.6594 84.87V68.6799L92.7095 64.6V56.51L85.6594 60.58V52.48L92.7095 48.41V40.3099L85.6594 44.39V36.29ZM52.1394 92.08L32.7295 103.28V87.09L37.1094 84.5599L52.1394 75.88V92.08ZM52.1394 71.84L33.3495 82.6799L32.7295 83.04V54.7L35.6694 53L52.1394 43.5V71.84ZM75.0695 78.84L55.6694 90.04V61.7L72.7095 51.86L75.0695 50.5V78.84ZM75.0695 46.45L73.9194 47.11L72.7095 47.8099L55.6694 57.65V41.46L60.0394 38.9399L72.7095 31.62L73.9294 30.9199L75.0695 30.26V46.45Z" class="pr-icon-iso-duotone-primary-stroke" stroke-linejoin="round"/>
    <path d="M75.0699 78.8401L55.6699 90.0402V69.1401L65.6599 74.1401L75.0699 78.8401Z" class="pr-icon-iso-duotone-primary-stroke" stroke-linejoin="round"/>
    <path d="M75.0691 30.26V46.45L66.3391 42.09L60.0391 38.9399L72.7091 31.62L73.9291 30.9199L75.0691 30.26Z" class="pr-icon-iso-duotone-primary-stroke" stroke-linejoin="round"/>
    <path d="M75.0699 46.45L73.9199 47.11L72.71 47.8099L55.6699 57.65V41.46L60.0399 38.9399L66.34 42.09L75.0699 46.45Z" class="pr-icon-iso-duotone-primary-stroke" stroke-linejoin="round"/>
    <path d="M52.1394 43.5V71.84L50.9294 71.23L35.6694 63.61L32.7295 62.14V54.7L35.6694 53L52.1394 43.5Z" class="pr-icon-iso-duotone-primary-stroke" stroke-linejoin="round"/>
    <path d="M52.1394 71.8401L33.3495 82.6801L32.7295 83.0402V62.1401L35.6694 63.6101L50.9294 71.2301L52.1394 71.8401Z" class="pr-icon-iso-duotone-primary-stroke" stroke-linejoin="round"/>
    <path d="M52.1394 75.8799V92.0798L43.4094 87.7198L37.1094 84.5598L52.1394 75.8799Z" class="pr-icon-iso-duotone-primary-stroke" stroke-linejoin="round"/>
    <path d="M52.1394 92.0801L32.7295 103.28V87.0901L37.1094 84.5601L43.4094 87.7201L52.1394 92.0801Z" class="pr-icon-iso-duotone-primary-stroke" stroke-linejoin="round"/>
    <path d="M85.6594 12L77.6794 16.61L72.7095 19.48L55.0695 29.66L35.6694 40.86L32.1394 42.9L22.1494 48.6699L13.4194 44.2999L2.14941 38.6699L65.6594 2L85.6594 12Z" class="pr-icon-iso-duotone-primary-stroke" stroke-linejoin="round"/>
    <path d="M22.1494 48.6699V121.54L2.14941 111.54V38.6699L13.4194 44.2999L22.1494 48.6699Z" class="pr-icon-iso-duotone-primary-stroke" stroke-linejoin="round"/>
    <path d="M92.7092 24.1201L85.6592 20.6001" class="pr-icon-iso-duotone-primary-stroke" stroke-linejoin="round"/>
    <path d="M92.7092 40.3099L85.6592 44.39V36.79L92.7092 40.3099Z" class="pr-icon-iso-duotone-primary-stroke" stroke-linejoin="round"/>
    <path d="M92.7092 56.51L85.6592 60.58V52.99L92.7092 56.51Z" class="pr-icon-iso-duotone-primary-stroke" stroke-linejoin="round"/>
</svg>