<svg width="48" height="48" viewBox="0 0 90 116" fill="#c8e7ff" xmlns="http://www.w3.org/2000/svg" stroke-width="1px" stroke-linecap="round" stroke-linejoin="round"><path d="M65.46 40.8995L65.27 40.8095C64.69 40.5695 63.9799 40.6895 63.1399 41.1695C62.2199 41.6995 61.4498 42.5095 60.8198 43.5795C60.1998 44.6595 59.8799 45.7295 59.8799 46.7895C59.8799 47.8495 60.1998 48.5495 60.8198 48.9095C61.4498 49.2695 62.2199 49.1795 63.1399 48.6495C64.0699 48.1095 64.84 47.3095 65.46 46.2295C66.09 45.1495 66.3999 44.0895 66.3999 43.0295C66.3999 41.9695 66.09 41.2595 65.46 40.8995Z" stroke="#229EFF" stroke-linejoin="round"/><path d="M87.5798 56.9697V75.6597L82.6899 78.4797V70.9097C81.4199 72.8397 80.1 74.6997 78.73 76.4997C75.93 80.2197 72.92 83.6597 69.74 86.7997C65.02 91.4597 60.1 95.2597 55 98.2097C49.89 101.16 44.98 103.03 40.25 103.83C35.53 104.62 31.2098 104.31 27.2998 102.89V110.46L22.4199 113.28V94.5897L26.7 92.1197L38.71 85.1797V90.7897L29.26 96.2497C32.84 97.7897 36.83 98.2597 41.23 97.6497C45.63 97.0497 50.22 95.3597 55 92.5997C59.78 89.8397 64.36 86.2297 68.76 81.7597C70.95 79.5397 73.04 77.1597 75.02 74.6397C77.03 72.0897 78.94 69.3897 80.74 66.5297L71.2898 71.9797V66.3697L87.5798 56.9697Z" stroke="#229EFF" stroke-linejoin="round"/><path d="M73.4897 13.9799L72.1997 13.3399C68.6997 11.8099 64.7097 11.8599 60.2397 13.4799C58.5597 14.0799 56.8098 14.9099 54.9998 15.9599C50.6398 18.4699 46.6796 21.7999 43.1396 25.9299C40.7396 28.6999 38.5298 31.8299 36.5098 35.3299C35.1698 37.6499 33.9998 39.9499 33.0298 42.2399C31.7398 45.2099 30.7596 48.1699 30.0796 51.0999C29.3196 54.3599 28.9397 57.5799 28.9297 60.7799V60.9199C28.9297 63.6599 29.1998 66.1199 29.7598 68.2699C30.8698 72.6699 33.1198 75.8299 36.5098 77.7599C37.6798 78.4299 38.9197 78.9099 40.2197 79.1899C42.4597 79.6899 44.8697 79.6099 47.4597 78.9599C49.8297 78.3799 52.3398 77.3099 54.9998 75.7799C58.1498 73.9599 61.0896 71.7099 63.8296 69.0499C64.0096 68.8699 64.1896 68.6999 64.3596 68.5199C65.0596 67.8199 65.7397 67.0899 66.3997 66.3399C66.8097 65.8899 67.1996 65.4299 67.5796 64.9599C67.6796 64.8599 67.7596 64.7499 67.8396 64.6499C69.8596 62.1699 71.7497 59.4299 73.4897 56.4099C74.4897 54.6899 75.3797 52.9699 76.1797 51.2699C79.4397 44.3399 81.0596 37.5199 81.0596 30.8199C81.0596 22.4699 78.5397 16.8599 73.4897 13.9799ZM71.3496 48.8599C70.6296 50.4899 69.7896 52.1199 68.8396 53.7699C68.4296 54.4799 68.0096 55.1699 67.5796 55.8299C66.0896 58.1599 64.4697 60.2399 62.7397 62.0899C62.7297 62.1099 62.7097 62.1299 62.6897 62.1499C61.8597 63.0299 61.0096 63.8499 60.1296 64.6099C59.6896 64.9999 59.2396 65.3699 58.7896 65.7299C57.5696 66.6899 56.3098 67.5399 54.9998 68.2999C53.2198 69.3199 51.5397 70.0599 49.9397 70.5199C46.5597 71.5099 43.5697 71.2199 40.9897 69.6599C39.0897 68.5099 37.6798 66.8599 36.7598 64.6999C35.9698 62.8499 35.5297 60.6199 35.4597 58.0199C35.4397 57.5899 35.4397 57.1399 35.4497 56.6899C36.1897 56.1099 36.9196 55.5099 37.6396 54.8699C39.9696 52.8399 42.1996 50.5099 44.3196 47.8799C44.5896 47.5599 44.8396 47.2399 45.0996 46.9099C46.1896 45.5099 47.2197 44.0699 48.1897 42.5999C49.8797 40.0199 51.3897 37.3299 52.6997 34.5199C52.7097 34.5199 52.7097 34.4899 52.7197 34.4799C52.7897 34.5199 52.8597 34.5599 52.9397 34.5999C54.5597 35.5299 56.3398 36.0799 58.2698 36.2399C59.6298 36.3599 61.0596 36.2899 62.5696 36.0299C66.3196 35.3899 70.1997 33.6699 74.2197 30.8499C74.3297 31.4699 74.4097 32.0799 74.4597 32.6699C74.5197 33.2599 74.5496 33.8999 74.5496 34.5799C74.5496 39.2499 73.4796 44.0099 71.3496 48.8599Z" stroke="#229EFF" stroke-linejoin="round"/><path d="M39.01 55.5601C37.87 56.4701 36.6799 57.2901 35.4599 58.0201C35.4399 57.5901 35.4399 57.1401 35.4499 56.6901C36.1899 56.1101 36.9199 55.5101 37.6399 54.8701L39.01 55.5601Z" stroke="#229EFF" stroke-linejoin="round"/><path d="M49.21 43.1096C49.09 43.3296 48.9698 43.5496 48.8398 43.7696C47.8398 45.4896 46.7899 47.0896 45.6799 48.5696L44.3198 47.8796C44.5898 47.5596 44.8399 47.2396 45.0999 46.9096C46.1899 45.5096 47.2199 44.0696 48.1899 42.5996L49.21 43.1096Z" stroke="#229EFF" stroke-linejoin="round"/><path d="M62.6899 62.0703V62.1503C62.6899 62.1503 62.73 62.1103 62.74 62.0903L62.6899 62.0703Z" stroke="#229EFF" stroke-linejoin="round"/><path d="M71.2898 66.3704V71.9804L64.3599 68.5204C65.0599 67.8204 65.7399 67.0904 66.3999 66.3404C66.8099 65.8904 67.1998 65.4304 67.5798 64.9604C67.6798 64.8604 67.7598 64.7504 67.8398 64.6504L71.2898 66.3704Z" stroke="#229EFF" stroke-linejoin="round"/><path d="M80.7397 66.5303C78.9397 69.3903 77.0298 72.0903 75.0198 74.6403C73.0398 77.1603 70.9498 79.5403 68.7598 81.7603C64.3598 86.2303 59.7798 89.8403 54.9998 92.6003C50.2198 95.3603 45.6297 97.0503 41.2297 97.6503C36.8297 98.2603 32.8398 97.7903 29.2598 96.2503L38.7097 90.7903V85.1803L34.3196 82.9803C34.5396 82.8603 34.7698 82.7303 34.9998 82.6003C36.7698 81.5803 38.5097 80.4403 40.2197 79.1903C42.4597 79.6903 44.8697 79.6103 47.4597 78.9603C49.8297 78.3803 52.3398 77.3103 54.9998 75.7803C58.1498 73.9603 61.0896 71.7103 63.8296 69.0503C64.0096 68.8703 64.1896 68.7003 64.3596 68.5203L71.2896 71.9803L80.7397 66.5303Z" stroke="#229EFF" stroke-linejoin="round"/><path d="M38.71 85.1797L26.7 92.1197L22.4199 94.5897L20.73 93.7397H20.72L2.41992 84.5897L18.71 75.1797L34.3198 82.9797L38.71 85.1797Z" stroke="#229EFF" stroke-linejoin="round"/><path d="M74.5498 34.5796C74.5498 39.2496 73.4799 44.0096 71.3499 48.8596C70.6299 50.4896 69.7898 52.1196 68.8398 53.7696C68.4298 54.4796 68.0098 55.1696 67.5798 55.8296C66.0898 58.1596 64.47 60.2396 62.74 62.0896L62.6899 62.0696V62.1496C61.8599 63.0296 61.0099 63.8496 60.1299 64.6096C59.6899 64.9996 59.2398 65.3696 58.7898 65.7296C57.5698 66.6896 56.31 67.5396 55 68.2996C53.22 69.3196 51.5399 70.0596 49.9399 70.5196C46.5599 71.5096 43.57 71.2196 40.99 69.6596C39.09 68.5096 37.68 66.8596 36.76 64.6996C35.97 62.8496 35.53 60.6196 35.46 58.0196C36.68 57.2896 37.87 56.4696 39.01 55.5596L44.53 58.3196C44.53 58.3196 44.5398 58.3296 44.5498 58.3296C45.1798 58.6696 45.9399 58.5696 46.8499 58.0496C47.7799 57.5196 48.5499 56.7096 49.1699 55.6396C49.7999 54.5596 50.1099 53.4896 50.1099 52.4296C50.1099 52.1796 50.0898 51.9496 50.0598 51.7396C49.9498 51.0596 49.6499 50.5796 49.1699 50.3096L48.98 50.2196L45.6799 48.5696C46.7899 47.0896 47.8398 45.4896 48.8398 43.7696C48.9698 43.5496 49.09 43.3296 49.21 43.1096L54 45.4996L60.8198 48.9096C61.4498 49.2696 62.2199 49.1796 63.1399 48.6496C64.0699 48.1096 64.84 47.3096 65.46 46.2296C66.09 45.1496 66.3999 44.0896 66.3999 43.0296C66.3999 41.9696 66.09 41.2596 65.46 40.8996L65.27 40.8096L57.9299 37.1396L52.9299 34.6396C52.9299 34.6396 52.9499 34.6096 52.9399 34.5996C54.5599 35.5296 56.34 36.0796 58.27 36.2396C59.63 36.3596 61.0598 36.2896 62.5698 36.0296C66.3198 35.3896 70.2 33.6696 74.22 30.8496C74.33 31.4696 74.41 32.0796 74.46 32.6696C74.52 33.2596 74.5498 33.8996 74.5498 34.5796Z" stroke="#229EFF" stroke-linejoin="round"/><path d="M50.1099 52.4299C50.1099 53.4899 49.7999 54.5598 49.1699 55.6398C48.5499 56.7098 47.7799 57.5199 46.8499 58.0499C45.9399 58.5699 45.1798 58.6699 44.5498 58.3299C44.5398 58.3299 44.54 58.3198 44.53 58.3198C43.91 57.9598 43.5898 57.2499 43.5898 56.1899C43.5898 55.1299 43.91 54.0699 44.53 52.9899C45.16 51.9099 45.9299 51.1098 46.8499 50.5698C47.6899 50.0898 48.39 49.9699 48.98 50.2199L49.1699 50.3099C49.6499 50.5799 49.9498 51.0599 50.0598 51.7399C50.0898 51.9499 50.1099 52.1799 50.1099 52.4299Z" stroke="#229EFF" stroke-linejoin="round"/><path d="M48.9797 50.2199C48.3897 49.9699 47.6896 50.0899 46.8496 50.5699C45.9296 51.1099 45.1598 51.9099 44.5298 52.9899C43.9098 54.0699 43.5896 55.1299 43.5896 56.1899C43.5896 57.2499 43.9098 57.9599 44.5298 58.3199L39.0098 55.5599L37.6396 54.8699C39.9696 52.8399 42.1996 50.5099 44.3196 47.8799L45.6797 48.5699L48.9797 50.2199Z" stroke="#229EFF" stroke-linejoin="round"/><path d="M72.1997 13.3399C68.6997 11.8099 64.7097 11.8599 60.2397 13.4799C58.5597 14.0799 56.8098 14.9099 54.9998 15.9599C50.6398 18.4699 46.6796 21.7999 43.1396 25.9299C40.7396 28.6999 38.5298 31.8299 36.5098 35.3299C35.1698 37.6499 33.9998 39.9499 33.0298 42.2399C31.7398 45.2099 30.7596 48.1699 30.0796 51.0999C29.3196 54.3599 28.9397 57.5799 28.9297 60.7799V60.9199C28.9297 63.6599 29.1998 66.1199 29.7598 68.2699C30.8698 72.6699 33.1198 75.8299 36.5098 77.7599L17.7996 68.3999L16.5098 67.7599C11.4598 64.8799 8.92969 59.2699 8.92969 50.9199C8.92969 42.5699 11.4598 34.0399 16.5098 25.3299C21.5598 16.6199 27.7198 10.1599 34.9998 5.95994C42.2698 1.75994 48.4397 1.09994 53.4897 3.97994L72.1997 13.3399Z" stroke="#229EFF" stroke-linejoin="round"/><path d="M22.4199 94.5898V113.28L2.41992 103.28V84.5898L20.72 93.7398H20.73L22.4199 94.5898Z" stroke="#229EFF" stroke-linejoin="round"/><path d="M87.5798 56.9695L71.2898 66.3695L67.8398 64.6495C69.8598 62.1695 71.75 59.4295 73.49 56.4095C74.49 54.6895 75.3799 52.9695 76.1799 51.2695L87.5798 56.9695Z" stroke="#229EFF" stroke-linejoin="round"/><path d="M82.6899 70.9102V78.4802L78.73 76.5002C80.1 74.7002 81.4199 72.8402 82.6899 70.9102Z" stroke="#229EFF" stroke-linejoin="round"/><path d="M65.27 40.8095C64.69 40.5695 63.9799 40.6895 63.1399 41.1695C62.2199 41.6995 61.4498 42.5095 60.8198 43.5795C60.1998 44.6595 59.8799 45.7295 59.8799 46.7895C59.8799 47.8495 60.1998 48.5495 60.8198 48.9095L54 45.4995L49.21 43.1095L48.1899 42.5995C49.8799 40.0195 51.39 37.3295 52.7 34.5195L52.9299 34.6395L57.9299 37.1395L65.27 40.8095Z" stroke="#229EFF" stroke-linejoin="round"/></svg>