<svg width="48" height="48" viewBox="0 0 98 104" class="pr-icon-iso-duotone-secondary"
     xmlns="http://www.w3.org/2000/svg" stroke-width="1px" stroke-linecap="round" stroke-linejoin="round">
    <path d="M56.7557 32.2499C56.2857 32.0499 55.8057 31.8699 55.3057 31.7399C54.1357 31.4099 52.8857 31.2799 51.5257 31.3299C48.6557 31.4499 45.6357 32.4199 42.4657 34.2499C36.7257 37.5699 31.9357 42.5399 28.0857 49.1799C24.2457 55.7999 22.3157 62.4199 22.3157 68.9999C22.3157 72.2299 22.7957 75.1099 23.7357 77.6399C24.6857 80.1699 26.3457 82.5999 28.7257 84.8999C30.8057 86.9099 33.5157 88.9099 36.8457 90.9199L36.8757 90.9399C37.3557 91.2299 37.8457 91.5099 38.3457 91.7999C38.3757 91.8199 38.4157 91.8399 38.4457 91.8599C40.1957 92.8599 42.1557 93.8999 44.3157 94.9999L28.4157 87.0199C24.5757 85.1699 21.2557 83.4599 18.4457 81.8599C18.4157 81.8399 18.3757 81.8199 18.3457 81.7999C14.3157 79.4999 11.1157 77.1999 8.72568 74.8999C6.34568 72.5999 4.68567 70.1699 3.73567 67.6399C2.79567 65.1099 2.31567 62.2299 2.31567 58.9999C2.31567 52.4199 4.24568 45.7999 8.08568 39.1799C11.9357 32.5399 16.7257 27.5699 22.4657 24.2499C25.6357 22.4199 28.6557 21.4499 31.5257 21.3299C32.8857 21.2799 34.1357 21.4099 35.3057 21.7399C36.1057 21.9599 36.8557 22.2699 37.5757 22.6599L37.6657 22.7099L39.0357 23.3999L56.7557 32.2499Z" class="pr-icon-iso-duotone-primary-stroke" stroke-linejoin="round"/>
    <path d="M95.5757 26.7099C95.5757 29.9299 95.1057 33.3499 94.1557 36.9799C93.2057 40.6099 91.5457 44.9499 89.1657 50.0099C86.7857 55.0599 83.5757 61.0599 79.5457 68.0099C75.5157 74.9599 70.4257 83.3999 64.2557 93.3399L58.9457 101.87L53.6357 99.4699C50.5257 98.0499 47.6857 96.6899 45.1257 95.4099L44.3157 94.9999C42.1557 93.8999 40.1957 92.8599 38.4457 91.8599C38.4157 91.8399 38.3757 91.8199 38.3457 91.7999C37.8457 91.5099 37.3557 91.2299 36.8757 90.9399L36.8457 90.9199C33.5157 88.9099 30.8057 86.9099 28.7257 84.8999C26.3457 82.5999 24.6857 80.1699 23.7357 77.6399C22.7957 75.1099 22.3157 72.2299 22.3157 68.9999C22.3157 62.4199 24.2457 55.7999 28.0857 49.1799C31.9357 42.5399 36.7257 37.5699 42.4657 34.2499C45.6357 32.4199 48.6557 31.4499 51.5257 31.3299C52.8857 31.2799 54.1357 31.4099 55.3057 31.7399C55.8057 31.8699 56.2857 32.0499 56.7557 32.2499L56.8557 32.2999C57.5957 32.6299 58.2857 33.0599 58.9457 33.5599C61.0257 29.5599 63.4957 25.9599 66.3657 22.7699C69.2357 19.5699 72.2557 17.0499 75.4257 15.2199C75.4657 15.1999 75.4957 15.1799 75.5357 15.1599C76.8957 14.3799 78.1957 13.7599 79.4557 13.2999C83.0257 11.9599 86.1657 11.8799 88.8757 13.0799C88.8957 13.0899 88.9157 13.0899 88.9257 13.0999L89.8057 13.5399C93.6457 15.7299 95.5757 20.1199 95.5757 26.7099Z" class="pr-icon-iso-duotone-primary-stroke" stroke-linejoin="round"/>
    <path d="M88.8756 13.0799C86.1656 11.8799 83.0256 11.9599 79.4556 13.2999C78.1956 13.7599 76.8956 14.3799 75.5356 15.1599C75.4956 15.1799 75.4656 15.1999 75.4256 15.2199C72.2556 17.0499 69.2356 19.5699 66.3656 22.7699C63.4956 25.9599 61.0256 29.5599 58.9456 33.5599C58.2856 33.0599 57.5956 32.6299 56.8556 32.2999L56.7556 32.2499L39.0356 23.3999C41.0956 19.4599 43.5356 15.9199 46.3656 12.7699C49.2356 9.56993 52.2556 7.04993 55.4256 5.21993C56.8256 4.40993 58.1656 3.76993 59.4556 3.29993C63.0456 1.94993 66.2056 1.87993 68.9256 3.09993C68.9256 3.09993 69.2656 3.26993 69.8456 3.55993C73.6056 5.43993 87.7056 12.4899 88.8756 13.0799Z" class="pr-icon-iso-duotone-primary-stroke" stroke-linejoin="round"/>
</svg>