<svg width="48" height="48" viewBox="0 0 91 119" class="pr-icon-iso-duotone-secondary"
     xmlns="http://www.w3.org/2000/svg" stroke-width="1px" stroke-linecap="round" stroke-linejoin="round">
    <path d="M55.5255 12.9131L22.6755 60.1431L2.67554 50.1431L35.5255 2.91309L55.5255 12.9131Z" class="pr-icon-iso-duotone-primary-stroke" stroke-linejoin="round"/>
    <path d="M88.3655 22.2131L71.2955 17.3831L68.3655 16.5531L55.5255 12.9131L35.5255 2.91309L51.2955 7.38309L68.3655 12.2131L88.3655 22.2131Z" class="pr-icon-iso-duotone-primary-stroke" stroke-linejoin="round"/>
    <path d="M88.3655 22.2131V78.7431L63.7155 92.9631V59.9831L47.3155 69.4631V102.443L22.6755 116.663V60.1431L55.5255 12.9131L68.3655 16.5531L71.2955 17.3831L88.3655 22.2131Z" class="pr-icon-iso-duotone-primary-stroke" stroke-linejoin="round"/>
    <path d="M22.6755 60.1431V116.663L2.67554 106.663V50.1431L22.6755 60.1431Z" class="pr-icon-iso-duotone-primary-stroke" stroke-linejoin="round"/>
    <path d="M63.7155 59.9831V92.9631L47.3156 84.7631V69.4631L63.7155 59.9831Z" class="pr-icon-iso-duotone-primary-stroke" stroke-linejoin="round"/>
</svg>