<svg width="24" height="24" viewBox="0 0 97 120" class="pr-icon-iso-duotone-secondary" xmlns="http://www.w3.org/2000/svg" stroke-width="1px" stroke-linecap="round" stroke-linejoin="round">
    <path d="M46.8194 24.1301L39.9494 28.0901L36.2094 30.2501L31.1794 33.1602L22.1494 38.3701V117.23L66.8194 91.4401V12.5801L46.8194 24.1301ZM54.7894 78.67L47.9194 82.6301V90.5201L41.0494 94.4901V86.6001L40.5994 86.8601L34.1794 90.5701V82.6801L40.6094 78.9701L41.0494 78.7201V70.8301L46.8194 67.5001L47.9194 66.8601V74.7501L54.7894 70.7802V78.67ZM59.9494 50.1602C58.9194 50.0302 57.8294 50.1401 56.6794 50.4701C55.5394 50.8001 54.3394 51.3301 53.0794 52.0601L46.8194 55.67L35.8994 61.9801C35.5294 62.1901 35.1594 62.4202 34.7894 62.6602C33.9294 63.2202 33.0894 63.85 32.2894 64.55C31.7294 65.03 31.1794 65.5601 30.6494 66.1201C30.0994 66.7101 29.5594 67.3401 29.0294 68.0101V42.2902L39.9494 35.9801L43.5294 33.9102L46.8194 32.0101L58.9694 25.0001L59.9494 24.4301V50.1602Z" class="pr-icon-iso-duotone-primary-stroke" stroke-linejoin="round"/>
    <path d="M94.3093 40.0802L83.3993 46.3802L87.0893 48.5802L82.2793 56.8802L70.2593 50.0203L82.2793 29.2803L87.0893 32.0203L83.3993 38.4902L94.3093 32.2002V40.0802Z" class="pr-icon-iso-duotone-primary-stroke" stroke-linejoin="round"/>
    <path d="M66.8193 21.8701V22.4901L67.0893 22.0201L66.8193 21.8701Z" class="pr-icon-iso-duotone-primary-stroke" stroke-linejoin="round"/>
    <path d="M47.9193 66.8604V74.7504L46.8193 74.2003L41.0493 71.3203V70.8303L46.8193 67.5004L47.9193 66.8604Z" class="pr-icon-iso-duotone-primary-stroke" stroke-linejoin="round"/>
    <path d="M66.8194 12.5801L46.8194 24.1301L39.9494 28.0901L36.2094 30.2501L31.1794 33.1602L22.1494 38.3701L17.9994 36.3L9.47942 32.0302L2.14941 28.3701L46.8194 2.58008L66.8194 12.5801Z" class="pr-icon-iso-duotone-primary-stroke" stroke-linejoin="round"/>
    <path d="M22.1494 38.3701V117.23L2.14941 107.23V28.3701L9.47942 32.0302L17.9994 36.3L22.1494 38.3701Z" class="pr-icon-iso-duotone-primary-stroke" stroke-linejoin="round"/>
    <path d="M47.9193 90.5199L41.0493 94.4899V87.0898L47.9193 90.5199Z" class="pr-icon-iso-duotone-primary-stroke" stroke-linejoin="round"/>
    <path d="M41.0492 86.6L40.5992 86.86L34.1792 90.5699V83.1699L39.3492 85.75L41.0492 86.6Z" class="pr-icon-iso-duotone-primary-stroke" stroke-linejoin="round"/>
    <path d="M47.9192 82.6298V90.5198L41.0492 87.0897V86.5997L39.3492 85.7498L34.1792 83.1697V82.6797L40.6092 78.9697L46.2292 81.7798L47.9192 82.6298Z" class="pr-icon-iso-duotone-primary-stroke" stroke-linejoin="round"/>
    <path d="M54.7894 78.6698L47.9194 82.6299L46.2294 81.7799L40.6094 78.9698L41.0494 78.7198V71.7998L46.8194 74.6898L54.7894 78.6698Z" class="pr-icon-iso-duotone-primary-stroke" stroke-linejoin="round"/>
    <path d="M54.7893 70.7803V78.6702L46.8193 74.6902L41.0493 71.8002V71.3202L46.8193 74.2002L47.9193 74.7502L54.7893 70.7803Z" class="pr-icon-iso-duotone-primary-stroke" stroke-linejoin="round"/>
    <path d="M82.2793 56.8799L66.8193 49.1499V48.2998L70.2593 50.0199L82.2793 56.8799Z" class="pr-icon-iso-duotone-primary-stroke" stroke-linejoin="round"/>
    <path d="M83.3994 38.4902L87.0894 32.0203L82.2794 29.2803L74.3094 25.3002L71.4395 23.8602L74.3094 22.2002L94.3094 32.2002L83.3994 38.4902Z" class="pr-icon-iso-duotone-primary-stroke" stroke-linejoin="round"/>
    <path d="M82.2793 29.2799L70.2593 50.0199L66.8193 48.2998V22.4899L67.0893 22.0199L66.8193 21.8699V21.5498L71.4393 23.8599L74.3093 25.2998L82.2793 29.2799Z" class="pr-icon-iso-duotone-primary-stroke" stroke-linejoin="round"/>
    <path d="M59.9493 24.4297V50.1598L50.5393 45.4597C51.0893 44.0197 51.3593 42.5997 51.3593 41.2197C51.3593 41.0197 51.3493 40.8198 51.3393 40.6298C51.3393 40.5998 51.3393 40.5797 51.3293 40.5597C51.2893 39.8797 51.1693 39.2998 50.9693 38.7898C50.6493 37.9098 50.0993 37.2597 49.3393 36.8197L48.9093 36.6097L46.8193 35.5597L43.5293 33.9098L46.8193 32.0098L58.9693 24.9998L59.9493 24.4297Z" class="pr-icon-iso-duotone-primary-stroke" stroke-linejoin="round"/>
    <path d="M51.3596 41.2205C51.3596 42.6005 51.0896 44.0205 50.5396 45.4605C50.2296 46.2805 49.8296 47.1205 49.3396 47.9605C48.5796 49.2605 47.7496 50.3706 46.8196 51.2806C46.0996 51.9906 45.3196 52.5905 44.4896 53.0705C42.5996 54.1705 40.9796 54.3305 39.6296 53.5605C38.2896 52.7905 37.6196 51.3306 37.6196 49.1606C37.6196 46.9906 38.2896 44.7405 39.6296 42.4205C40.0096 41.7605 40.4196 41.1606 40.8396 40.6006C41.9196 39.1806 43.1296 38.0805 44.4896 37.3005C45.3196 36.8205 46.0996 36.5206 46.8196 36.4006C47.5696 36.2806 48.2696 36.3506 48.9096 36.6106L49.3396 36.8205C50.0996 37.2605 50.6496 37.9106 50.9696 38.7906C51.1696 39.3006 51.2896 39.8805 51.3296 40.5505C51.3296 40.5505 51.3396 40.6006 51.3396 40.6306C51.3496 40.8206 51.3596 41.0205 51.3596 41.2205Z" class="pr-icon-iso-duotone-primary-stroke" stroke-linejoin="round"/>
    <path d="M59.9493 50.16C58.9193 50.03 57.8293 50.14 56.6793 50.47C55.5393 50.8 54.3393 51.3299 53.0793 52.0599L46.8193 55.6699L35.8993 61.98C35.5293 62.19 35.1593 62.42 34.7893 62.66C33.9293 63.22 33.0893 63.8499 32.2893 64.5499C31.7293 65.0299 31.1793 65.56 30.6493 66.12C30.0993 66.71 29.5593 67.34 29.0293 68.01V48.26L39.6293 53.5599C40.9793 54.3299 42.5993 54.1699 44.4893 53.0699C45.3193 52.5899 46.0993 51.99 46.8193 51.28C47.7493 50.37 48.5793 49.26 49.3393 47.96C49.8293 47.12 50.2293 46.28 50.5393 45.46L59.9493 50.16Z" class="pr-icon-iso-duotone-primary-stroke" stroke-linejoin="round"/>
    <path d="M48.9093 36.6101C48.2693 36.3501 47.5693 36.2801 46.8193 36.4001C46.0993 36.5201 45.3193 36.82 44.4893 37.3C43.1293 38.08 41.9193 39.1801 40.8393 40.6001C40.4193 41.1601 40.0093 41.76 39.6293 42.42C38.2893 44.74 37.6193 46.9902 37.6193 49.1602C37.6193 51.3302 38.2893 52.7901 39.6293 53.5601L29.0293 48.2601V42.2902L39.9493 35.9801L43.5293 33.9102L46.8193 35.5601L48.9093 36.6101Z" class="pr-icon-iso-duotone-primary-stroke" stroke-linejoin="round"/>
</svg>