<svg width="48" height="48" viewBox="0 0 96 126" fill="#c8e7ff" xmlns="http://www.w3.org/2000/svg" stroke-width="1px" stroke-linecap="round" stroke-linejoin="round"><path d="M89.7299 63.5924L89.0899 63.2724C86.4999 62.1024 83.4199 62.5524 79.8699 64.6024L73.8999 68.0524V49.7724L79.8699 46.3224C83.7199 44.1024 87.0099 40.6424 89.7299 35.9524C92.4499 31.2524 93.8099 26.7024 93.8099 22.2824C93.8099 17.8624 92.4499 14.8824 89.7299 13.3324L89.0199 12.9724C86.4399 11.8424 83.3899 12.3024 79.8699 14.3324C76.7599 16.1324 74.0199 18.7324 71.6499 22.1524C71.0799 22.9624 70.5299 23.8124 70.0099 24.7124C69.2599 26.0024 68.6199 27.2824 68.0699 28.5524C66.6399 31.9024 65.9299 35.1724 65.9299 38.3724V45.2324L53.8999 52.1724L49.9999 54.4224V47.5724C49.9999 43.1524 48.6399 40.1724 45.9199 38.6224L45.2799 38.3024C44.1699 37.7924 42.9599 37.5924 41.6699 37.6924C39.9599 37.8024 38.0899 38.4524 36.0699 39.6224C34.0499 40.7924 32.1799 42.3024 30.4699 44.1524C28.9199 45.8224 27.4999 47.7724 26.2099 50.0024C26.0399 50.2924 25.8799 50.5724 25.7299 50.8624C23.3299 55.2524 22.1299 59.5224 22.1299 63.6624C22.1299 68.0824 23.4899 71.0724 26.2099 72.6224C28.9299 74.1724 32.2199 73.8324 36.0699 71.6124L42.0399 68.1624V86.4424L36.0699 89.8923C32.9499 91.6923 30.2099 94.3023 27.8299 97.7123C27.2699 98.5223 26.7299 99.3724 26.2099 100.262C25.4699 101.542 24.8299 102.802 24.2899 104.062C22.8499 107.422 22.1299 110.712 22.1299 113.932C22.1299 118.352 23.4899 121.332 26.2099 122.882C28.9299 124.432 32.2199 124.102 36.0699 121.882C39.9199 119.652 43.1999 116.192 45.9199 111.502C48.6399 106.812 49.9999 102.252 49.9999 97.8324V90.9824L53.1499 89.1624L54.2499 88.5324L65.4799 82.0424L65.9299 81.7824V88.6423C65.9299 93.0623 67.2899 96.0424 70.0099 97.5924C72.7399 99.1424 76.0199 98.8124 79.8699 96.5824C83.7199 94.3624 87.0099 90.9023 89.7299 86.2123C92.4499 81.5223 93.8099 76.9624 93.8099 72.5424C93.8099 68.1224 92.4499 65.1424 89.7299 63.5924ZM73.8999 33.7724C73.8999 31.8724 74.4799 29.9224 75.6399 27.9124C76.7999 25.9124 78.2099 24.4324 79.8699 23.4724C81.5299 22.5124 82.9399 22.3724 84.0999 23.0324C85.2599 23.6924 85.8399 24.9724 85.8399 26.8824C85.8399 28.7924 85.2599 30.7424 84.0999 32.7424C82.9399 34.7424 81.5299 36.2224 79.8699 37.1824L73.8999 40.6324V33.7724ZM42.0399 102.432C42.0399 104.342 41.4599 106.292 40.2999 108.292C39.1399 110.302 37.7299 111.782 36.0699 112.742C34.4099 113.692 32.9999 113.842 31.8399 113.182C30.6699 112.522 30.0899 111.232 30.0899 109.332C30.0899 107.432 30.6699 105.472 31.8399 103.472C32.9999 101.472 34.4099 99.9924 36.0699 99.0324L42.0399 95.5824V102.432ZM42.0399 59.0224L36.0699 62.4724C34.4099 63.4324 32.9999 63.5824 31.8399 62.9124C30.6699 62.2524 30.0899 60.9724 30.0899 59.0724C30.0899 57.3424 30.5699 55.5824 31.5299 53.7724C31.6199 53.5824 31.7299 53.3924 31.8399 53.2024C32.0699 52.8124 32.3099 52.4324 32.5599 52.0824C33.5599 50.6424 34.7399 49.5324 36.0699 48.7624C37.4099 47.9924 38.5799 47.7524 39.5999 48.0224C39.8399 48.0924 40.0699 48.1924 40.2999 48.3224C41.4599 48.9824 42.0399 50.2624 42.0399 52.1724V59.0224ZM65.9299 72.6423L63.3899 74.1124L56.3399 78.1824L49.9999 81.8424V63.5624L65.9299 54.3724V72.6423ZM84.0999 83.0023C82.9399 85.0123 81.5299 86.4924 79.8699 87.4524C78.2099 88.4024 76.7999 88.5523 75.6399 87.8923C74.4799 87.2323 73.8999 85.9424 73.8999 84.0424V77.1924L79.8699 73.7424C81.5299 72.7824 82.9399 72.6324 84.0999 73.2924C85.2599 73.9624 85.8399 75.2423 85.8399 77.1423C85.8399 79.0423 85.2599 81.0023 84.0999 83.0023Z" stroke="#229EFF" stroke-linejoin="round"/><path d="M42.0398 59.0225L36.0699 62.4725C34.4099 63.4325 32.9998 63.5825 31.8398 62.9125C30.6698 62.2525 30.0898 60.9725 30.0898 59.0725C30.0898 57.3425 30.5698 55.5825 31.5298 53.7725L42.0398 59.0225Z" stroke="#229EFF" stroke-linejoin="round"/><path d="M42.0398 95.5825V102.433C42.0398 104.343 41.4599 106.293 40.2999 108.293C39.1399 110.303 37.7299 111.783 36.0699 112.743C34.4099 113.693 32.9998 113.843 31.8398 113.183C30.6698 112.523 30.0898 111.233 30.0898 109.333C30.0898 107.433 30.6698 105.473 31.8398 103.473C32.9998 101.473 34.4099 99.9925 36.0699 99.0325L42.0398 95.5825Z" stroke="#229EFF" stroke-linejoin="round"/><path d="M42.0398 52.1724V59.0224L31.5298 53.7724C31.6198 53.5824 31.7298 53.3924 31.8398 53.2024C32.0698 52.8124 32.3098 52.4324 32.5598 52.0824C33.5598 50.6424 34.7398 49.5324 36.0698 48.7624C37.4098 47.9924 38.5798 47.7524 39.5998 48.0224C39.8398 48.0924 40.0698 48.1924 40.2998 48.3224C41.4598 48.9824 42.0398 50.2624 42.0398 52.1724Z" stroke="#229EFF" stroke-linejoin="round"/><path d="M85.8399 77.1425C85.8399 79.0525 85.2599 81.0025 84.0999 83.0025C82.9399 85.0125 81.5299 86.4925 79.8699 87.4525C78.2099 88.4025 76.7999 88.5525 75.6399 87.8925C74.4799 87.2325 73.8999 85.9425 73.8999 84.0425V77.1925L79.8699 73.7425C81.5299 72.7825 82.9399 72.6325 84.0999 73.2925C85.2599 73.9625 85.8399 75.2425 85.8399 77.1425Z" stroke="#229EFF" stroke-linejoin="round"/><path d="M85.8399 26.8825C85.8399 28.7825 85.2599 30.7425 84.0999 32.7425C82.9399 34.7425 81.5299 36.2225 79.8699 37.1825L73.8999 40.6325V33.7725C73.8999 31.8725 74.4799 29.9225 75.6399 27.9125C76.7999 25.9125 78.2099 24.4325 79.8699 23.4725C81.5299 22.5125 82.9399 22.3725 84.0999 23.0325C85.2599 23.6925 85.8399 24.9725 85.8399 26.8825Z" stroke="#229EFF" stroke-linejoin="round"/><path d="M42.04 68.1621V86.4421L30.5201 80.6821L22.04 76.4421V70.5421L26.2101 72.6221C28.9301 74.1721 32.2201 73.8321 36.0701 71.6121L42.04 68.1621Z" stroke="#229EFF" stroke-linejoin="round"/><path d="M45.2799 38.3023C44.1699 37.7923 42.9599 37.5923 41.6699 37.6923C39.9599 37.8023 38.0899 38.4523 36.0699 39.6223C34.0499 40.7923 32.1799 42.3023 30.4699 44.1523C28.9199 45.8223 27.4999 47.7723 26.2099 50.0023C26.0399 50.2923 25.8799 50.5723 25.7299 50.8623C23.3299 55.2523 22.1299 59.5223 22.1299 63.6623C22.1299 68.0823 23.4899 71.0723 26.2099 72.6223L22.0399 70.5423L6.84988 62.9423L6.20988 62.6223C3.48988 61.0723 2.12988 58.0823 2.12988 53.6623C2.12988 49.2423 3.48988 44.6923 6.20988 40.0023C8.92988 35.3023 12.2199 31.8523 16.0699 29.6223C19.9199 27.4023 23.1999 27.0723 25.9199 28.6223L45.2799 38.3023Z" stroke="#229EFF" stroke-linejoin="round"/><path d="M65.9298 45.2324L53.8998 52.1724L49.9998 54.4224V47.5724C49.9998 43.1524 48.6398 40.1724 45.9198 38.6224L42.7798 37.0524L45.9298 35.2324L65.9298 45.2324Z" stroke="#229EFF" stroke-linejoin="round"/><path d="M70.0099 97.5922L53.1499 89.1622L54.2499 88.5322L65.4799 82.0422L65.9299 81.7822V88.6422C65.9299 93.0622 67.2899 96.0422 70.0099 97.5922Z" stroke="#229EFF" stroke-linejoin="round"/><path d="M65.93 72.6425L63.39 74.1125L56.34 78.1825L50 81.8425V63.5625L55.13 66.4825L64.67 71.9225L65.93 72.6425Z" stroke="#229EFF" stroke-linejoin="round"/><path d="M65.93 54.3721V72.6421L64.67 71.9221L55.13 66.4821L50 63.5621L65.93 54.3721Z" stroke="#229EFF" stroke-linejoin="round"/><path d="M89.0197 12.9721C86.4397 11.8421 83.3897 12.3021 79.8697 14.3321C76.7597 16.1321 74.0197 18.7321 71.6497 22.1521C71.0797 22.9621 70.5297 23.8121 70.0097 24.7121C69.2597 26.0021 68.6197 27.2821 68.0697 28.5521C66.6397 31.9021 65.9297 35.1721 65.9297 38.3721V45.2321L45.9297 35.2321V28.3721C45.9297 23.9621 47.2897 19.4021 50.0097 14.7121C52.7397 10.0121 56.0197 6.56214 59.8697 4.33214C63.7197 2.11214 67.0097 1.77214 69.7297 3.33214L89.0197 12.9721Z" stroke="#229EFF" stroke-linejoin="round"/><path d="M89.0899 63.2721C86.4999 62.1021 83.4199 62.5521 79.8699 64.6021L73.8999 68.0521V55.6821L89.0899 63.2721Z" stroke="#229EFF" stroke-linejoin="round"/><path d="M42.0399 86.4424L36.0699 89.8924C32.9499 91.6924 30.2099 94.3024 27.8299 97.7124C27.2699 98.5224 26.7299 99.3724 26.2099 100.262C25.4699 101.542 24.8299 102.802 24.2899 104.062C22.8499 107.422 22.1299 110.712 22.1299 113.932C22.1299 118.352 23.4899 121.332 26.2099 122.882L6.84988 113.202L6.20988 112.882C3.48988 111.332 2.12988 108.352 2.12988 103.932C2.12988 99.5124 3.48988 94.9624 6.20988 90.2624C8.92988 85.5724 12.2199 82.1124 16.0699 79.8924L22.0399 76.4424L30.5199 80.6824L42.0399 86.4424Z" stroke="#229EFF" stroke-linejoin="round"/></svg>