<svg width="48" height="48" viewBox="0 0 90 126" class="pr-icon-iso-duotone-secondary"
     xmlns="http://www.w3.org/2000/svg" stroke-width="1px" stroke-linecap="round" stroke-linejoin="round">
    <path d="M29.06 98.32V98.53L29.26 98.42L29.06 98.32ZM22.38 94.98L22.61 95.09V94.85L22.38 94.98ZM58.1 66.75V66.96L58.3 66.84L58.1 66.75Z" class="pr-icon-iso-duotone-primary-stroke" stroke-linejoin="round"/>
    <path d="M35.51 42.2998V101.54L29.26 98.4198L29.06 98.3198V60.8398L15.51 54.0698V32.2998L35.51 42.2998Z" class="pr-icon-iso-duotone-primary-stroke" stroke-linejoin="round"/>
    <path d="M67.14 24.04L44.55 37.08L38.1 40.81L35.51 42.3V101.54L67.36 83.16L87.14 71.74V12.5L67.14 24.04ZM74.23 53.27L67.14 57.36L64.55 58.86V69.97L58.1 73.69V62.59L54.24 64.82L48.42 68.17V60.77L51.22 59.15L57.68 55.42L58.1 55.18V44.07L64.55 40.35V51.46L67.14 49.96L67.36 49.84L74.23 45.87V53.27Z" class="pr-icon-iso-duotone-primary-stroke" stroke-linejoin="round"/>
    <path d="M58.0999 62.5899L54.2399 64.8199L48.4199 68.1699V60.7699L51.2199 59.1499L58.0999 62.5899Z" class="pr-icon-iso-duotone-primary-stroke" stroke-linejoin="round"/>
    <path d="M64.5501 69.9698L58.1001 73.6898V66.9598L58.3001 66.8398L64.5501 69.9698Z" class="pr-icon-iso-duotone-primary-stroke" stroke-linejoin="round"/>
    <path d="M64.55 58.8599V69.9699L58.3 66.8399L58.1 66.7499V62.5899L51.22 59.1499L57.68 55.4199L64.55 58.8599Z" class="pr-icon-iso-duotone-primary-stroke" stroke-linejoin="round"/>
    <path d="M64.5501 40.3501V51.4601L58.1001 48.2401V44.0701L64.5501 40.3501Z" class="pr-icon-iso-duotone-primary-stroke" stroke-linejoin="round"/>
    <path d="M74.2299 45.8701V53.2701L67.3599 49.8401L74.2299 45.8701Z" class="pr-icon-iso-duotone-primary-stroke" stroke-linejoin="round"/>
    <path d="M74.2299 53.2702L67.1399 57.3602L64.5499 58.8602L57.6799 55.4202L58.0999 55.1802V48.2402L64.5499 51.4602L67.1399 49.9602L67.3599 49.8402L74.2299 53.2702Z" class="pr-icon-iso-duotone-primary-stroke" stroke-linejoin="round"/>
    <path d="M87.14 12.5L67.14 24.04L44.55 37.08L38.1 40.81L35.51 42.3L15.51 32.3L67.14 2.5L87.14 12.5Z" class="pr-icon-iso-duotone-primary-stroke" stroke-linejoin="round"/>
    <path d="M74.23 86.5898V93.9998L22.61 123.8V64.5598L29.06 60.8398V112.67L74.23 86.5898Z" class="pr-icon-iso-duotone-primary-stroke" stroke-linejoin="round"/>
    <path d="M29.06 60.8398L22.61 64.5598L15.51 61.0098L9.05998 57.7898L2.60999 54.5598L9.05998 50.8398L15.51 54.0698L29.06 60.8398Z" class="pr-icon-iso-duotone-primary-stroke" stroke-linejoin="round"/>
    <path d="M22.61 94.8501L22.38 94.9801L22.61 95.0901V123.8L2.60999 113.8V54.5601L9.05998 57.7901L15.51 61.0101L22.61 64.5601V94.8501Z" class="pr-icon-iso-duotone-primary-stroke" stroke-linejoin="round"/>
    <path d="M74.2299 86.5901L29.0599 112.67V98.5302L29.2599 98.4202L35.5099 101.54L67.3599 83.1602L74.2299 86.5901Z" class="pr-icon-iso-duotone-primary-stroke" stroke-linejoin="round"/>
</svg>