<svg viewBox="0 0 91 111" class="pr-icon-iso-duotone-secondary" xmlns="http://www.w3.org/2000/svg" height="24" width="24" stroke-width="1px" stroke-linecap="round" stroke-linejoin="round">
    <path d="M22.959 62.5078V108.558L2.95898 98.5578V52.5078L22.959 62.5078Z" class="pr-icon-iso-duotone-primary-stroke" stroke-linejoin="round"/>
    <path d="M88.6289 24.5979V70.6479C82.3589 74.2579 76.4191 78.9479 70.7891 84.7079C65.1691 90.4679 60.1691 96.9779 55.7891 104.258C51.4091 102.038 46.399 101.308 40.739 102.058C35.089 102.808 29.159 104.978 22.959 108.558V62.5079C29.099 58.9679 34.9989 56.8279 40.6489 56.1179C46.0389 55.4279 50.8689 56.0879 55.1589 58.1079L55.7891 58.4179C59.6091 52.0579 63.8889 46.2779 68.6289 41.0879C69.3789 40.2479 70.149 39.4279 70.929 38.6279C76.589 32.8179 82.4789 28.1379 88.6289 24.5979Z" class="pr-icon-iso-duotone-primary-stroke" stroke-linejoin="round"/>
    <path d="M55.1589 58.1079C50.8689 56.0879 46.0389 55.4279 40.6489 56.1179C34.9989 56.8279 29.099 58.9679 22.959 62.5079L2.95898 52.5079C9.09898 48.9679 14.9989 46.8279 20.6489 46.1179C26.3089 45.3979 31.3491 46.1579 35.7891 48.4179L55.1589 58.1079Z" class="pr-icon-iso-duotone-primary-stroke" stroke-linejoin="round"/>
    <path d="M70.3792 22.5679C70.3792 25.5179 69.7992 28.5279 68.6292 31.5979C67.9792 33.3379 67.1291 35.0979 66.0991 36.8679C63.2391 41.7979 59.7993 45.4179 55.7893 47.7379C51.7793 50.0579 48.3392 50.3979 45.4792 48.7679C42.7992 47.2279 41.3692 44.3879 41.2192 40.2079C41.1992 39.9479 41.1992 39.6879 41.1992 39.4179C41.1992 37.0679 41.5691 34.6779 42.3191 32.2379C43.0291 29.9079 44.0892 27.5379 45.4792 25.1179C46.6492 23.1079 47.8993 21.3179 49.2593 19.7479C51.2393 17.4579 53.4093 15.6179 55.7893 14.2479C59.4693 12.1179 62.6692 11.6579 65.3792 12.8579L66.0991 13.2179C66.8791 13.6579 67.5592 14.2179 68.1292 14.8979C68.3092 15.1079 68.4792 15.3279 68.6292 15.5679C69.7992 17.2879 70.3792 19.6279 70.3792 22.5679Z" class="pr-icon-iso-duotone-primary-stroke" stroke-linejoin="round"/>
    <path d="M88.6289 24.5979C82.4789 28.1379 76.589 32.8179 70.929 38.6279C70.149 39.4279 69.3789 40.2479 68.6289 41.0879C63.8889 46.2779 59.6091 52.0579 55.7891 58.4179L55.1589 58.1079L35.7891 48.4179C36.4891 47.2579 37.199 46.1179 37.939 44.9979L45.479 48.7679C48.339 50.3979 51.7791 50.0579 55.7891 47.7379C59.7991 45.4179 63.2389 41.7979 66.0989 36.8679C67.1289 35.0979 67.9789 33.3379 68.6289 31.5979C69.7989 28.5279 70.3789 25.5179 70.3789 22.5679C70.3789 19.6179 69.7989 17.2879 68.6289 15.5679C68.4789 15.3279 68.3089 15.1079 68.1289 14.8979C68.2989 14.7879 68.4589 14.6979 68.6289 14.5979L88.6289 24.5979Z" class="pr-icon-iso-duotone-primary-stroke" stroke-linejoin="round"/>
    <path d="M65.3792 12.8578C62.6692 11.6578 59.4693 12.1179 55.7893 14.2479C53.4093 15.6179 51.2393 17.4579 49.2593 19.7479C47.8993 21.3179 46.6492 23.1078 45.4792 25.1178C44.0892 27.5378 43.0291 29.9078 42.3191 32.2378C41.5691 34.6778 41.1992 37.0678 41.1992 39.4178C41.1992 39.6878 41.1992 39.9478 41.2192 40.2078C41.3692 44.3878 42.7992 47.2278 45.4792 48.7678L37.9392 44.9979L26.1992 39.1279L25.4792 38.7678C22.6292 37.1378 21.1992 34.0278 21.1992 29.4178C21.1992 24.8078 22.6292 20.0478 25.4792 15.1178C28.3392 10.1878 31.7793 6.56785 35.7893 4.24785C39.7993 1.92785 43.2391 1.58782 46.0991 3.21782L65.3792 12.8578Z" class="pr-icon-iso-duotone-primary-stroke" stroke-linejoin="round"/>
</svg>