<svg width="24" height="24" viewBox="0 0 93 90" class="pr-icon-iso-duotone-secondary" xmlns="http://www.w3.org/2000/svg" stroke-width="1px" stroke-linecap="round" stroke-linejoin="round">
    <path d="M27.5703 31.945L26.9705 32.995L22.7803 40.195L2.78027 30.195L7.57031 21.945L27.5703 31.945Z" class="pr-icon-iso-duotone-primary-stroke" stroke-linejoin="round"/>
    <path d="M90.4202 67.775L85.6401 76.025L69.9302 67.065C69.7702 67.345 69.5901 67.625 69.4001 67.905C68.6201 69.105 67.6302 70.295 66.4302 71.495C64.9502 72.965 63.6102 74.115 62.4102 74.935V83.165L55.5801 87.105V78.685C52.4001 79.605 49.7301 79.475 47.6001 78.295C45.4601 77.115 43.9102 74.965 42.9502 71.865L49.78 64.785C50.46 67.135 51.61 68.825 53.24 69.845C54.86 70.875 57.0102 70.615 59.6802 69.065C60.7102 68.475 61.65 67.785 62.5 66.995C63.08 66.465 63.6502 65.865 64.2002 65.205C64.4702 64.895 64.7302 64.575 64.9802 64.245L22.79 40.195L26.9702 32.995L27.5801 31.945L90.4202 67.775Z" class="pr-icon-iso-duotone-primary-stroke" stroke-linejoin="round"/>
    <path d="M73.51 24.825L67.02 31.705C66.33 30.145 65.3202 29.195 63.9802 28.855C63.2402 28.665 62.42 28.695 61.51 28.945C60.78 29.145 60.0102 29.485 59.1702 29.975C58.1502 30.565 57.1502 31.305 56.1802 32.185C55.2102 33.075 54.33 34.205 53.53 35.575L48.5801 32.755C49.3801 31.375 50.4601 29.925 51.8301 28.385C52.8301 27.245 53.7902 26.295 54.6702 25.525C54.9802 25.265 55.2801 25.015 55.5801 24.795V16.565L58.4302 14.915L62.4102 12.615V20.655C64.9802 19.765 67.2202 19.655 69.1602 20.335C69.3702 20.405 69.57 20.495 69.77 20.585C71.41 21.345 72.65 22.755 73.52 24.825H73.51Z" class="pr-icon-iso-duotone-primary-stroke" stroke-linejoin="round"/>
    <path d="M55.5703 78.685V87.105L35.5703 77.105V72.285L40.0503 74.525L47.5903 78.295C49.7203 79.475 52.3903 79.605 55.5703 78.685Z" class="pr-icon-iso-duotone-primary-stroke" stroke-linejoin="round"/>
    <path d="M64.9805 64.245L44.9805 54.245L2.78027 30.195L22.7803 40.195L64.9805 64.245Z" class="pr-icon-iso-duotone-primary-stroke" stroke-linejoin="round"/>
    <path d="M64.9802 64.245C64.7302 64.575 64.4702 64.895 64.2002 65.205C63.6502 65.865 63.08 66.465 62.5 66.995C61.65 67.785 60.7102 68.475 59.6802 69.065C57.0102 70.615 54.86 70.875 53.24 69.845C51.61 68.825 50.46 67.135 49.78 64.785L45.3301 62.555L39.04 59.415C39.25 59.305 39.4602 59.195 39.6802 59.065C40.7102 58.475 41.65 57.785 42.5 56.995C43.35 56.215 44.1802 55.295 44.9802 54.245L64.9802 64.245Z" class="pr-icon-iso-duotone-primary-stroke" stroke-linejoin="round"/>
    <path d="M53.5303 35.575L33.5303 25.575L28.5703 22.755L33.6904 25.305L48.5703 32.755L53.5303 35.575Z" class="pr-icon-iso-duotone-primary-stroke" stroke-linejoin="round"/>
    <path d="M55.5703 16.565V24.795L47.7803 20.895L45.8403 19.935L45.8303 19.925L43.5303 18.775L35.5703 14.795V6.56497L42.4104 9.98499L43.2402 10.395L53.0503 15.305L55.5703 16.565Z" class="pr-icon-iso-duotone-primary-stroke" stroke-linejoin="round"/>
    <path d="M69.7603 20.585C69.5603 20.495 69.3604 20.405 69.1504 20.335C67.2104 19.655 64.9704 19.765 62.4004 20.655V16.905L69.7603 20.585Z" class="pr-icon-iso-duotone-primary-stroke" stroke-linejoin="round"/>
    <path d="M62.4104 12.615L58.4304 14.915L55.5703 16.565L53.0503 15.305L43.2402 10.395L42.4104 9.98499L35.5703 6.56497L42.4104 2.61499L62.4104 12.615Z" class="pr-icon-iso-duotone-primary-stroke" stroke-linejoin="round"/>
    <path d="M67.0305 31.705L61.5205 28.945C62.4305 28.695 63.2505 28.665 63.9905 28.855C65.3305 29.195 66.3405 30.145 67.0305 31.705Z" class="pr-icon-iso-duotone-primary-stroke" stroke-linejoin="round"/>
    <path d="M55.5703 24.795C55.2703 25.015 54.9704 25.265 54.6604 25.525C53.7804 26.295 52.8203 27.245 51.8203 28.385C50.4503 29.925 49.3703 31.375 48.5703 32.755L33.6804 25.305L28.5703 22.755C29.3703 21.375 30.4503 19.925 31.8203 18.385C33.1803 16.845 34.4403 15.645 35.5703 14.795L43.5203 18.775L45.8203 19.925H45.8303L47.7703 20.895L55.5603 24.795H55.5703Z" class="pr-icon-iso-duotone-primary-stroke" stroke-linejoin="round"/>
    <path d="M85.6404 76.025L69.4004 67.905" class="pr-icon-iso-duotone-primary-stroke" stroke-linejoin="round"/>
    <path d="M49.78 64.785L42.9502 71.865L22.9502 61.865L29.78 54.785L39.03 59.415L45.3201 62.555L49.78 64.785Z" class="pr-icon-iso-duotone-primary-stroke" stroke-linejoin="round"/>
    <path d="M47.5903 78.295L40.0503 74.525L28.0503 68.525L27.5903 68.295C25.4503 67.115 23.9004 64.965 22.9404 61.865L42.9404 71.865C43.9004 74.965 45.4503 77.115 47.5903 78.295Z" class="pr-icon-iso-duotone-primary-stroke" stroke-linejoin="round"/>
</svg>