<svg width="48" height="48" viewBox="0 0 98 99" fill="#c8e7ff" xmlns="http://www.w3.org/2000/svg" stroke-width="1px" stroke-linecap="round" stroke-linejoin="round"><path d="M77.46 13.8206L78.78 14.4805C78.35 14.2405 77.91 14.0106 77.46 13.8206Z" stroke="#229EFF" stroke-linejoin="round"/><path d="M81.23 63.0707C83.48 58.5107 85.24 53.8707 86.51 49.1707C87.79 44.4707 88.4202 39.8907 88.4202 35.4307C88.4202 30.2807 87.5601 25.9306 85.8301 22.3706C84.1001 18.8006 81.75 16.1806 78.78 14.4806L77.46 13.8207C74.8 12.6107 71.7601 12.1306 68.3601 12.4007C67.5801 12.4607 66.79 12.5706 65.99 12.7206C63.14 13.2606 60.15 14.3506 57.04 16.0006C56.59 16.2406 56.1302 16.5006 55.6702 16.7606C52.1502 18.7906 48.8001 21.3206 45.6201 24.3506C44.6901 25.2306 43.7801 26.1506 42.8801 27.1106C41.1701 28.9506 39.56 30.8706 38.05 32.8606C36.23 35.2406 34.56 37.7207 33.03 40.3207H33.02C32.84 40.6107 32.68 40.9007 32.51 41.1907C31.87 42.3007 31.2599 43.4207 30.6899 44.5507C29.2999 47.2407 28.07 50.0007 27.02 52.8107C26.47 54.2507 25.97 55.7107 25.51 57.1907C24.99 58.8607 24.5499 60.5006 24.1899 62.1306C24.0199 62.8806 23.87 63.6306 23.73 64.3706C23.68 64.6606 23.6301 64.9606 23.5801 65.2606C23.1301 67.9806 22.9102 70.6406 22.9102 73.2606C22.9102 74.6206 22.9701 75.9207 23.0901 77.1707C23.4001 80.5307 24.1501 83.4806 25.3201 86.0206C25.3801 86.1606 25.44 86.3007 25.51 86.4307C27.23 89.9907 29.57 92.6107 32.51 94.2807C35.45 95.9607 38.9101 96.6506 42.8801 96.3406C46.8601 96.0306 51.1202 94.5607 55.6702 91.9307C59.4902 89.7207 63.1301 86.9106 66.5901 83.4906C69.8601 80.2406 72.8601 76.6507 75.5801 72.6907C75.7501 72.4707 75.9 72.2406 76.05 72.0206L90.52 80.1607L95.7 71.3207L81.23 63.0707ZM75.55 61.2306C74.97 62.3706 74.3499 63.5207 73.6799 64.6707C72.5799 66.5607 71.44 68.3306 70.23 70.0006C66 75.8906 61.1502 80.4206 55.6702 83.5806C48.5702 87.6806 42.5501 88.3106 37.6101 85.5006C36.3101 84.7606 35.18 83.8306 34.23 82.7206C32.66 80.9206 31.5601 78.6406 30.9001 75.8706C30.4301 73.8606 30.1899 71.5807 30.1899 69.0507C30.1899 68.8907 30.19 68.7307 30.2 68.5707C30.2 67.4607 30.2701 66.3506 30.3801 65.2306C30.4301 64.6306 30.5001 64.0207 30.5901 63.4107C30.9201 60.9907 31.48 58.5406 32.25 56.0806C32.67 54.7506 33.15 53.4107 33.7 52.0607C33.79 51.8207 33.89 51.5707 34.01 51.3207C35.01 48.9307 36.2101 46.5306 37.6101 44.1006C38.6201 42.3506 39.68 40.6906 40.78 39.1306C40.92 38.9306 41.06 38.7206 41.22 38.5206C42.09 37.3106 42.9902 36.1507 43.9202 35.0607C46.8002 31.6607 49.9601 28.8207 53.3801 26.5407C53.4201 26.5107 53.46 26.4806 53.5 26.4606C54.21 25.9806 54.9302 25.5406 55.6702 25.1106C57.3102 24.1706 58.8902 23.4106 60.4102 22.8406C63.2102 21.7806 65.83 21.3606 68.25 21.5806C70.18 21.7406 71.9899 22.3006 73.6799 23.2706C78.6599 26.1106 81.1401 31.5606 81.1401 39.6406C81.1401 46.6906 79.28 53.8806 75.55 61.2306Z" stroke="#229EFF" stroke-linejoin="round"/><path d="M71.3398 35.4005C70.6098 35.0705 69.8298 34.8205 68.9998 34.6405C68.5398 34.5405 68.0698 34.4605 67.5898 34.4105C65.4498 34.1805 63.1697 34.4805 60.7397 35.3005C59.1097 35.8505 57.4199 36.6305 55.6699 37.6405C55.5299 37.7205 55.3898 37.8005 55.2498 37.8905C53.0898 39.1705 51.0298 40.6906 49.0798 42.4406C46.6398 44.6206 44.3598 47.1705 42.2498 50.0905C41.1198 51.6405 40.0899 53.2105 39.1499 54.7905C37.9799 56.7705 36.9398 58.7806 36.0598 60.8206C35.1698 62.8306 34.4298 64.8804 33.8298 66.9504L30.3799 65.2305C30.4299 64.6305 30.4998 64.0205 30.5898 63.4105C30.9198 60.9905 31.4798 58.5404 32.2498 56.0804C32.6698 54.7504 33.1497 53.4105 33.6997 52.0605C33.7897 51.8205 33.8898 51.5706 34.0098 51.3206C35.0098 48.9306 36.2099 46.5305 37.6099 44.1005C38.6199 42.3505 39.6798 40.6905 40.7798 39.1305C40.9198 38.9305 41.0597 38.7205 41.2197 38.5205C42.0897 37.3105 42.9899 36.1505 43.9199 35.0605C46.7999 31.6605 49.9599 28.8205 53.3799 26.5405C53.4199 26.5105 53.4598 26.4804 53.4998 26.4604L61.1299 30.2805L67.7297 33.5905L71.3398 35.4005Z" stroke="#229EFF" stroke-linejoin="round"/><path d="M71.54 35.5004L71.3401 35.4004C70.6101 35.0704 69.83 34.8204 69 34.6404C68.54 34.5404 68.0701 34.4604 67.5901 34.4104C65.4501 34.1804 63.17 34.4804 60.74 35.3004C59.11 35.8504 57.4202 36.6304 55.6702 37.6404C55.5302 37.7204 55.39 37.8004 55.25 37.8904C53.09 39.1704 51.0301 40.6904 49.0801 42.4404C46.6401 44.6204 44.36 47.1703 42.25 50.0903C41.12 51.6403 40.0901 53.2104 39.1501 54.7904C37.9801 56.7704 36.9401 58.7804 36.0601 60.8204C35.1701 62.8304 34.4301 64.8803 33.8301 66.9503C34.8101 69.2203 36.1401 70.9803 37.8501 72.2203C38.1801 72.4703 38.5401 72.7004 38.9001 72.9104L39.45 73.1904C40.31 73.6204 41.24 73.9304 42.25 74.1504C43.33 74.3804 44.4501 74.4704 45.6201 74.4204C48.6801 74.2804 52.0202 73.1604 55.6702 71.0504C58.1602 69.6104 60.52 67.8604 62.75 65.7904C64.96 63.7404 67.05 61.3803 69 58.7103C69.21 58.4203 69.4101 58.1403 69.6101 57.8503C73.2101 52.7503 75.84 47.3704 77.5 41.7404C76.12 38.8004 74.16 36.6804 71.54 35.5004ZM63.8 54.5304C63.38 55.7104 62.8201 56.9003 62.1301 58.0803C60.9401 60.1203 59.56 61.8004 58 63.1204C57.27 63.7604 56.4902 64.3104 55.6702 64.7804C54.8302 65.2704 54.03 65.6203 53.28 65.8503C51.71 66.3303 50.3302 66.2304 49.1602 65.5604C48.4002 65.1304 47.8001 64.5004 47.3701 63.6604C46.8401 62.6204 46.5701 61.2703 46.5701 59.6003C46.5701 59.2403 46.5801 58.8804 46.6101 58.5204C46.7901 55.9404 47.6402 53.3304 49.1602 50.6904C50.5302 48.3004 52.1801 46.3803 54.1001 44.9503C54.6001 44.5603 55.1302 44.2104 55.6702 43.9004C56.9002 43.1904 58.0401 42.7704 59.0801 42.6404C60.2001 42.4904 61.2201 42.6803 62.1301 43.2003C63.1601 43.7903 63.8901 44.7003 64.3101 45.9603C64.6201 46.8403 64.77 47.8803 64.77 49.0903C64.77 50.9003 64.45 52.7104 63.8 54.5304Z" stroke="#229EFF" stroke-linejoin="round"/><path d="M64.7703 49.0905C64.7703 50.9005 64.4503 52.7106 63.8003 54.5306C63.3803 55.7106 62.8204 56.9005 62.1304 58.0805C60.9404 60.1205 59.5602 61.8005 58.0002 63.1205C57.2702 63.7605 56.4904 64.3106 55.6704 64.7806C54.8304 65.2706 54.0303 65.6205 53.2803 65.8505C51.7103 66.3305 50.3304 66.2306 49.1604 65.5606C48.4004 65.1306 47.8004 64.5006 47.3704 63.6606C46.8404 62.6206 46.5703 61.2705 46.5703 59.6005C46.5703 59.2405 46.5804 58.8806 46.6104 58.5206L50.0603 60.2405L51.7502 61.0905C52.7902 61.6805 54.0904 61.5205 55.6704 60.6105C57.1804 59.7305 58.4703 58.4005 59.5303 56.6005C60.6003 54.8005 61.1304 53.0006 61.1304 51.1906C61.1304 49.3806 60.6003 48.2806 59.5303 47.6706L59.2002 47.5106L57.6204 46.7105L54.1003 44.9505C54.6003 44.5605 55.1304 44.2106 55.6704 43.9006C56.9004 43.1906 58.0403 42.7706 59.0803 42.6406C60.2003 42.4906 61.2204 42.6805 62.1304 43.2005C63.1604 43.7905 63.8903 44.7005 64.3103 45.9605C64.6203 46.8405 64.7703 47.8805 64.7703 49.0905Z" stroke="#229EFF" stroke-linejoin="round"/><path d="M61.1301 51.1906C61.1301 53.0006 60.6 54.8005 59.53 56.6005C58.47 58.4005 57.1802 59.7305 55.6702 60.6105C54.0902 61.5205 52.79 61.6805 51.75 61.0905C51.19 60.7705 50.78 60.2705 50.53 59.5805C50.31 59.0105 50.21 58.3206 50.21 57.5006C50.21 55.7606 50.72 53.9806 51.75 52.1706C52.79 50.3506 54.0902 48.9905 55.6702 48.0805C56.2602 47.7405 56.8101 47.5106 57.3301 47.3906C58.0101 47.2406 58.64 47.2806 59.2 47.5106L59.53 47.6706C60.6 48.2806 61.1301 49.4506 61.1301 51.1906Z" stroke="#229EFF" stroke-linejoin="round"/><path d="M59.2002 47.5105C58.6402 47.2805 58.0103 47.2405 57.3303 47.3905C56.8103 47.5105 56.2604 47.7404 55.6704 48.0804C54.0904 48.9904 52.7902 50.3505 51.7502 52.1705C50.7202 53.9805 50.2102 55.7605 50.2102 57.5005C50.2102 58.3205 50.3103 59.0104 50.5303 59.5804C50.7803 60.2704 51.1902 60.7705 51.7502 61.0905L50.0603 60.2405L46.6104 58.5205C46.7904 55.9405 47.6404 53.3306 49.1604 50.6906C50.5304 48.3006 52.1803 46.3804 54.1003 44.9504L57.6204 46.7104L59.2002 47.5105Z" stroke="#229EFF" stroke-linejoin="round"/><path d="M81.1404 39.6405C81.1404 46.6905 79.2803 53.8804 75.5503 61.2304C74.9703 62.3704 74.3502 63.5205 73.6802 64.6705C72.5802 66.5605 71.4402 68.3304 70.2302 70.0004C66.0002 75.8904 61.1504 80.4204 55.6704 83.5804C48.5704 87.6804 42.5504 88.3104 37.6104 85.5004C36.3104 84.7604 35.1802 83.8304 34.2302 82.7204C32.6602 80.9204 31.5604 78.6404 30.9004 75.8704C32.4304 75.3004 34.0204 74.5304 35.6704 73.5804C36.3604 73.1804 37.0302 72.7605 37.7002 72.3205L38.9004 72.9105L39.4502 73.1905C40.3102 73.6205 41.2402 73.9305 42.2502 74.1505C43.3302 74.3805 44.4504 74.4705 45.6204 74.4205C48.6804 74.2805 52.0204 73.1605 55.6704 71.0505C58.1604 69.6105 60.5202 67.8605 62.7502 65.7905C64.9602 63.7405 67.0502 61.3804 69.0002 58.7104C69.2102 58.4204 69.4104 58.1404 69.6104 57.8504C73.2104 52.7504 75.8402 47.3704 77.5002 41.7404C76.1202 38.8004 74.1603 36.6804 71.5403 35.5004L71.3403 35.4005L67.7302 33.5904L61.1304 30.2805C61.1404 30.0705 61.1404 29.8505 61.1404 29.6405C61.1404 27.1105 60.9004 24.8504 60.4104 22.8404C63.2104 21.7804 65.8302 21.3604 68.2502 21.5804C70.1802 21.7404 71.9902 22.3005 73.6802 23.2705C78.6602 26.1105 81.1404 31.5605 81.1404 39.6405Z" stroke="#229EFF" stroke-linejoin="round"/><path d="M71.9202 35.6906L71.54 35.5005" stroke="#229EFF" stroke-linejoin="round"/><path d="M38.9004 72.9105L37.7002 72.3206L30.2002 68.5706C30.2002 67.4606 30.2704 66.3505 30.3804 65.2305L33.8303 66.9504C34.8103 69.2204 36.1403 70.9805 37.8503 72.2205C38.1803 72.4705 38.5404 72.7005 38.9004 72.9105Z" stroke="#229EFF" stroke-linejoin="round"/><path d="M77.46 13.8206C74.8 12.6106 71.7601 12.1305 68.3601 12.4005C67.5801 12.4605 66.79 12.5705 65.99 12.7205C63.14 13.2605 60.15 14.3505 57.04 16.0005C56.59 16.2405 56.1302 16.5005 55.6702 16.7605C52.1502 18.7905 48.8001 21.3205 45.6201 24.3505C44.6901 25.2305 43.7801 26.1505 42.8801 27.1105C41.1701 28.9505 39.56 30.8705 38.05 32.8605C36.23 35.2405 34.56 37.7206 33.03 40.3206H33.02C32.84 40.6106 32.68 40.9006 32.51 41.1906C31.87 42.3006 31.2599 43.4206 30.6899 44.5506C29.2999 47.2406 28.07 50.0006 27.02 52.8106C26.47 54.2506 25.97 55.7106 25.51 57.1906C24.99 58.8606 24.5499 60.5005 24.1899 62.1305C24.0199 62.8805 23.87 63.6305 23.73 64.3705C23.68 64.6605 23.6301 64.9605 23.5801 65.2605C23.1301 67.9805 22.9102 70.6405 22.9102 73.2605C22.9102 74.6205 22.9701 75.9206 23.0901 77.1706C23.4001 80.5306 24.1501 83.4805 25.3201 86.0205C25.3801 86.1605 25.44 86.3006 25.51 86.4306C27.23 89.9906 29.57 92.6105 32.51 94.2805L13.46 84.7805L13.29 84.7005C13.03 84.5605 12.77 84.4305 12.51 84.2805C9.57001 82.6105 7.23001 79.9906 5.51001 76.4306C3.78001 72.8706 2.91016 68.4805 2.91016 63.2605C2.91016 58.0405 3.78001 52.7506 5.51001 47.1906C7.23001 41.6406 9.57001 36.3006 12.51 31.1906C15.45 26.0806 18.9101 21.3905 22.8801 17.1105C26.8601 12.8405 31.1202 9.38052 35.6702 6.76052C40.1602 4.17052 44.3901 2.72054 48.3601 2.40054C52.3301 2.09054 55.81 2.79049 58.78 4.48049L77.46 13.8206Z" stroke="#229EFF" stroke-linejoin="round"/><path d="M90.52 80.1604L75.5801 72.6904" stroke="#229EFF" stroke-linejoin="round"/></svg>