<svg width="24" height="24" viewBox="0 0 99 118" class="pr-icon-iso-duotone-secondary" xmlns="http://www.w3.org/2000/svg" stroke-width="1px" stroke-linecap="round" stroke-linejoin="round">
    <path d="M93.0212 55.1319L92.3811 54.8119C89.9811 53.7419 87.1311 54.1619 83.8411 56.0619C82.7311 56.7119 81.6611 57.4819 80.6411 58.3919C79.6211 59.3019 78.6512 60.3019 77.7212 61.4119L75.7112 60.2819L69.3311 56.6919L64.7812 54.1219L63.4412 53.3719V41.6619C66.1612 39.1719 68.3811 36.1319 70.1111 32.5419C71.8411 28.9519 72.7112 25.4519 72.7112 22.0519C72.7112 17.9319 71.4411 15.1519 68.9111 13.7019L68.2712 13.3819C65.8612 12.3219 63.0112 12.7419 59.7312 14.6419C56.1412 16.7119 53.081 19.9319 50.541 24.3119C48.011 28.6819 46.7412 32.9219 46.7412 37.0419C46.7412 40.4519 47.6111 42.9419 49.3411 44.5319C49.7511 44.9119 50.1911 45.2219 50.6611 45.4619L51.0112 45.6419C52.4312 46.3019 54.1012 46.4019 56.0212 45.9519V57.6519L53.9712 61.1919L50.9812 66.3319L41.821 82.1319C40.901 82.1019 39.9111 82.2319 38.8611 82.5119C37.8111 82.8019 36.7211 83.2719 35.6111 83.9119C32.0211 85.9819 28.9612 89.2019 26.4312 93.5719C23.8912 97.9519 22.6211 102.192 22.6211 106.312C22.6211 110.432 23.8912 113.202 26.4312 114.652C28.9612 116.092 32.0211 115.782 35.6111 113.712C39.2011 111.642 42.261 108.422 44.791 104.052C47.331 99.6719 48.6011 95.4319 48.6011 91.3119C48.6011 90.0419 48.4612 88.8719 48.1812 87.8319C47.9012 86.7819 47.5112 85.8719 47.0212 85.0919L52.7612 75.1919L58.4011 65.4719L59.3311 63.8719L59.7312 63.1719L65.2612 66.3319L70.8311 69.5119L72.4312 70.4219C71.9412 71.7719 71.5512 73.1319 71.2712 74.4919C70.9912 75.8619 70.8611 77.1819 70.8611 78.4619C70.8611 82.5819 72.1211 85.3619 74.6611 86.8019C77.1911 88.2519 80.2511 87.9319 83.8411 85.8619C87.4311 83.7919 90.4912 80.5719 93.0212 76.2019C95.5612 71.8319 96.8311 67.5819 96.8311 63.4719C96.8311 59.3619 95.5612 56.5719 93.0212 55.1319ZM39.551 101.062C38.471 102.922 37.1611 104.302 35.6111 105.202C34.0611 106.092 32.7511 106.232 31.6711 105.612C30.5911 104.992 30.041 103.802 30.041 102.022C30.041 100.242 30.5911 98.4319 31.6711 96.5619C32.7511 94.7019 34.0611 93.3219 35.6111 92.4219C37.1611 91.5319 38.471 91.3919 39.551 92.0119C40.631 92.6319 41.1812 93.8219 41.1812 95.6019C41.1812 97.3819 40.631 99.1919 39.551 101.062ZM59.7312 35.9319C58.1812 36.8219 56.8713 36.9619 55.7812 36.3419C54.7012 35.7219 54.1611 34.5319 54.1611 32.7619C54.1611 30.9919 54.7012 29.1619 55.7812 27.3019C56.8713 25.4319 58.1812 24.0519 59.7312 23.1619C61.2712 22.2619 62.5911 22.1319 63.6711 22.7419C64.7511 23.3619 65.291 24.5619 65.291 26.3319C65.291 28.1019 64.7511 29.9219 63.6711 31.7919C62.5911 33.6619 61.2712 35.0419 59.7312 35.9319ZM87.7812 73.2119C86.7012 75.0819 85.3911 76.4619 83.8411 77.3519C82.2911 78.2419 80.9811 78.3819 79.9011 77.7619C78.8211 77.1519 78.2812 75.9519 78.2812 74.1819C78.2812 72.4119 78.8211 70.5819 79.9011 68.7219C80.9811 66.8519 82.2911 65.4719 83.8411 64.5819C85.3911 63.6919 86.7012 63.5519 87.7812 64.1619C88.8613 64.7819 89.4111 65.9819 89.4111 67.7519C89.4111 69.5219 88.8613 71.3419 87.7812 73.2119Z" class="pr-icon-iso-duotone-primary-stroke" stroke-linejoin="round"/>
    <path d="M41.1812 95.6019C41.1812 97.3719 40.631 99.1919 39.551 101.062C38.471 102.922 37.1611 104.302 35.6111 105.202C34.0611 106.092 32.7511 106.232 31.6711 105.612C30.5911 104.992 30.041 103.802 30.041 102.022C30.041 100.242 30.5911 98.4319 31.6711 96.5619C32.7511 94.7019 34.0611 93.3219 35.6111 92.4219C37.1611 91.5319 38.471 91.3919 39.551 92.0119C40.631 92.6319 41.1812 93.8219 41.1812 95.6019Z" class="pr-icon-iso-duotone-primary-stroke" stroke-linejoin="round"/>
    <path d="M89.4111 67.7521C89.4111 69.5221 88.8613 71.3421 87.7812 73.2121C86.7012 75.0821 85.3911 76.4621 83.8411 77.3521C82.2911 78.2421 80.9811 78.3821 79.9011 77.7621C78.8211 77.1521 78.2812 75.9521 78.2812 74.1821C78.2812 72.4121 78.8211 70.5821 79.9011 68.7221C80.9811 66.8521 82.2911 65.4721 83.8411 64.5821C85.3911 63.6921 86.7012 63.5521 87.7812 64.1621C88.8613 64.7821 89.4111 65.9821 89.4111 67.7521Z" class="pr-icon-iso-duotone-primary-stroke" stroke-linejoin="round"/>
    <path d="M65.291 26.3317C65.291 28.1017 64.7511 29.9217 63.6711 31.7917C62.5911 33.6617 61.2712 35.0418 59.7312 35.9318C58.1812 36.8218 56.8713 36.9618 55.7812 36.3418C54.7012 35.7218 54.1611 34.5317 54.1611 32.7617C54.1611 30.9917 54.7012 29.1617 55.7812 27.3017C56.8713 25.4317 58.1812 24.0518 59.7312 23.1618C61.2712 22.2618 62.5911 22.1317 63.6711 22.7417C64.7511 23.3617 65.291 24.5617 65.291 26.3317Z" class="pr-icon-iso-duotone-primary-stroke" stroke-linejoin="round"/>
    <path d="M92.3811 54.8118C89.9811 53.7418 87.1311 54.1618 83.8411 56.0618C82.7311 56.7118 81.6611 57.4818 80.6411 58.3918C79.6211 59.3018 78.6512 60.3018 77.7212 61.4118L75.7112 60.2818L69.3311 56.6918L64.7812 54.1218L63.4412 53.3718V46.3118C63.5712 46.2218 63.7011 46.1418 63.8411 46.0618C67.4311 43.9918 70.4912 43.6818 73.0212 45.1318L92.3811 54.8118Z" class="pr-icon-iso-duotone-primary-stroke" stroke-linejoin="round"/>
    <path d="M68.2712 13.3819C65.8612 12.3219 63.0112 12.742 59.7312 14.642C56.1412 16.712 53.081 19.932 50.541 24.312C48.011 28.682 46.7412 32.922 46.7412 37.042C46.7412 40.452 47.6111 42.942 49.3411 44.532C49.7511 44.912 50.1911 45.222 50.6611 45.462L43.4412 41.862L36.0212 38.152L31.0112 35.642L30.6611 35.462C30.1911 35.222 29.7511 34.912 29.3411 34.532C27.6111 32.942 26.7412 30.452 26.7412 27.042C26.7412 22.922 28.011 18.682 30.541 14.312C33.081 9.93197 36.1412 6.71196 39.7312 4.64196C43.3112 2.57196 46.3711 2.26195 48.9111 3.70195L68.2712 13.3819Z" class="pr-icon-iso-duotone-primary-stroke" stroke-linejoin="round"/>
    <path d="M51.2312 45.7521L51.0112 45.6421" class="pr-icon-iso-duotone-primary-stroke" stroke-linejoin="round"/>
    <path d="M30.6611 35.4618L30.4111 35.3418" class="pr-icon-iso-duotone-primary-stroke" stroke-linejoin="round"/>
    <path d="M56.0212 45.9518V57.6519L36.0212 47.6519V38.1519L43.4412 41.8618L50.6611 45.4619L51.0112 45.6418C52.4312 46.3018 54.1012 46.4018 56.0212 45.9518Z" class="pr-icon-iso-duotone-primary-stroke" stroke-linejoin="round"/>
    <path d="M56.0212 57.6519L53.9712 61.1919L50.9812 66.3318L41.821 82.1318L21.821 72.1318L36.0212 47.6519L56.0212 57.6519Z" class="pr-icon-iso-duotone-primary-stroke" stroke-linejoin="round"/>
    <path d="M41.821 82.1322C40.901 82.1022 39.9111 82.2322 38.8611 82.5122C37.8111 82.8022 36.7211 83.2722 35.6111 83.9122C32.0211 85.9822 28.9612 89.2022 26.4312 93.5722C23.8912 97.9522 22.6211 102.192 22.6211 106.312C22.6211 110.432 23.8912 113.202 26.4312 114.652L6.43115 104.652C3.89115 103.202 2.62109 100.422 2.62109 96.3122C2.62109 92.2022 3.89115 87.9522 6.43115 83.5722C8.96115 79.2022 12.0211 75.9822 15.6111 73.9122C16.7211 73.2722 17.8111 72.8022 18.8611 72.5122C19.9111 72.2322 20.901 72.1022 21.821 72.1322L41.821 82.1322Z" class="pr-icon-iso-duotone-primary-stroke" stroke-linejoin="round"/>
    <path d="M72.4312 70.4219L70.7712 69.5919L64.8811 66.6519L59.3311 63.8719L59.7312 63.1719L65.2612 66.3319L70.8311 69.5119L72.4312 70.4219Z" class="pr-icon-iso-duotone-primary-stroke" stroke-linejoin="round"/>
    <path d="M74.6611 86.8021L54.6611 76.8021C53.9211 76.3821 53.2812 75.8421 52.7612 75.1921L58.4011 65.4721L59.3311 63.8721L64.8811 66.6521L70.7712 69.5921L72.4312 70.4221C71.9412 71.7721 71.5512 73.1321 71.2712 74.4921C70.9912 75.8621 70.8611 77.1821 70.8611 78.4621C70.8611 82.5821 72.1211 85.3621 74.6611 86.8021Z" class="pr-icon-iso-duotone-primary-stroke" stroke-linejoin="round"/>
</svg>