<svg width="24" height="24" viewBox="0 0 90 129" class="pr-icon-iso-duotone-secondary" xmlns="http://www.w3.org/2000/svg" stroke-width="1px" stroke-linecap="round" stroke-linejoin="round">
    <path d="M67.9191 24.1495L22.1191 50.5896V126.09L87.9191 88.0996V12.5996L67.9191 24.1495ZM76.9491 77.6495L44.0491 96.6495V84.0596L65.2691 71.8096L67.9191 70.2795L76.9491 65.0696V77.6495Z"      class="pr-icon-iso-duotone-primary-stroke" stroke-linejoin="round"/>
    <path d="M76.9488 77.6495L44.0488 96.6495V84.0596L65.2688 71.8096L67.9188 73.1395L76.9488 77.6495Z"      class="pr-icon-iso-duotone-primary-stroke" stroke-linejoin="round"/>
    <path d="M76.9495 65.0696V77.6495L67.9195 73.1395L65.2695 71.8096L67.9195 70.2795L76.9495 65.0696Z"      class="pr-icon-iso-duotone-primary-stroke" stroke-linejoin="round"/>
    <path d="M22.1191 50.5896V126.09L2.11914 116.09V40.5896L22.1191 50.5896Z" class="pr-icon-iso-duotone-primary-stroke"      stroke-linejoin="round"/>
    <path d="M87.9191 12.5996L67.9191 24.1495L22.1191 50.5896L2.11914 40.5896L67.9191 2.59961L87.9191 12.5996Z"      class="pr-icon-iso-duotone-primary-stroke" stroke-linejoin="round"/>
</svg>