<svg width="24" height="24" viewBox="0 0 88 125" class="pr-icon-iso-duotone-secondary" xmlns="http://www.w3.org/2000/svg" stroke-width="1px" stroke-linecap="round" stroke-linejoin="round">
    <path d="M65.8696 24.5082L22.5195 49.5383V122.238L85.8696 85.6583V12.9583L65.8696 24.5082ZM64.7595 81.6982L33.0796 99.9883V87.8682L53.5095 76.0782L64.7595 69.5782V81.6982Z"      class="pr-icon-iso-duotone-primary-stroke" stroke-linejoin="round"/>
    <path d="M64.7598 69.5781V81.6981L59.7498 79.1881L53.5098 76.0781L64.7598 69.5781Z"      class="pr-icon-iso-duotone-primary-stroke" stroke-linejoin="round"/>
    <path d="M64.76 81.6981L33.0801 99.9981V87.8681L53.51 76.0781L59.75 79.1881L64.76 81.6981Z"      class="pr-icon-iso-duotone-primary-stroke" stroke-linejoin="round"/>
    <path d="M85.8696 12.9583L65.8696 24.5082L22.5195 49.5383L2.51953 39.5383L65.8696 2.95825L85.8696 12.9583Z"      class="pr-icon-iso-duotone-primary-stroke" stroke-linejoin="round"/>
    <path d="M22.5195 49.5383V122.248L2.51953 112.248V39.5383L22.5195 49.5383Z"      class="pr-icon-iso-duotone-primary-stroke" stroke-linejoin="round"/>
</svg>