<svg width="48" height="48" viewBox="0 0 84 106" class="pr-icon-iso-duotone-secondary"
     xmlns="http://www.w3.org/2000/svg" stroke-width="1px" stroke-linecap="round" stroke-linejoin="round">
    <path d="M54.4201 38.1632C53.7101 37.7532 52.8301 37.8532 51.7801 38.4632C50.7301 39.0632 49.8501 39.9832 49.1401 41.2032C48.4301 42.4332 48.0801 43.6432 48.0801 44.8432C48.0801 46.0432 48.4301 46.8532 49.1401 47.2632C49.8501 47.6632 50.7301 47.5632 51.7801 46.9532C52.8301 46.3532 53.7101 45.4332 54.4201 44.2132C55.1301 42.9932 55.4801 41.7732 55.4801 40.5732C55.4801 39.3732 55.1301 38.5632 54.4201 38.1632Z" class="pr-icon-iso-duotone-primary-stroke" stroke-linejoin="round"/>
    <path d="M81.4003 12.8633L61.4003 15.8033L51.7803 17.2233L31.7803 7.22327L61.4003 2.86328L81.4003 12.8633Z" class="pr-icon-iso-duotone-primary-stroke" stroke-linejoin="round"/>
    <path d="M51.7802 17.2231L22.1602 47.0632L2.16016 37.0632L31.7802 7.22314L51.7802 17.2231Z" class="pr-icon-iso-duotone-primary-stroke" stroke-linejoin="round"/>
    <path d="M61.4001 15.8033L51.7802 17.2233L22.1602 47.0633V72.9733C22.1602 81.2233 23.8002 87.9533 27.0802 93.1533C28.0802 94.7433 29.2301 96.1933 30.5401 97.5033C31.6601 98.6233 32.8402 99.5833 34.0802 100.383C39.0202 103.563 44.9202 104.163 51.7802 102.183C60.3602 94.7533 67.4402 85.0233 73.0202 72.9833C78.6102 60.9433 81.4001 49.5433 81.4001 38.7833V12.8633L61.4001 15.8033ZM55.4801 78.8033L48.0802 83.0833V57.5933L55.4801 53.3133V78.8033ZM54.4202 44.2133C53.7102 45.4333 52.8302 46.3532 51.7802 46.9532C50.7302 47.5632 49.8502 47.6632 49.1402 47.2632C48.4302 46.8532 48.0802 46.0533 48.0802 44.8433C48.0802 43.6333 48.4302 42.4332 49.1402 41.2032C49.8502 39.9832 50.7302 39.0633 51.7802 38.4633C52.8302 37.8533 53.7102 37.7533 54.4202 38.1633C55.1302 38.5633 55.4801 39.3632 55.4801 40.5732C55.4801 41.7832 55.1302 42.9933 54.4202 44.2133Z" class="pr-icon-iso-duotone-primary-stroke" stroke-linejoin="round"/>
    <path d="M55.4801 78.8033L48.0801 83.0833V75.1033L55.4801 78.8033Z" class="pr-icon-iso-duotone-primary-stroke" stroke-linejoin="round"/>
    <path d="M55.4801 53.3132V78.8032L48.0801 75.1032V57.5932L55.4801 53.3132Z" class="pr-icon-iso-duotone-primary-stroke" stroke-linejoin="round"/>
    <path d="M34.0802 100.383L16.0701 91.5032L15.7301 91.3332C13.8801 90.3932 12.1501 89.1132 10.5401 87.5032C4.95015 81.9132 2.16016 73.7432 2.16016 62.9732V37.0632L22.1602 47.0632V72.9732C22.1602 81.2232 23.8002 87.9532 27.0802 93.1532C28.0802 94.7432 29.2301 96.1932 30.5401 97.5032C31.6601 98.6232 32.8402 99.5832 34.0802 100.383Z" class="pr-icon-iso-duotone-primary-stroke" stroke-linejoin="round"/>
</svg>