<svg width="48" height="48" viewBox="0 0 96 114" fill="#c8e7ff" xmlns="http://www.w3.org/2000/svg" stroke-width="1px" stroke-linecap="round" stroke-linejoin="round"><path d="M81.5901 20.8899L83.3101 21.7499C82.7501 21.4299 82.1701 21.1399 81.5901 20.8899Z" stroke="#229EFF" stroke-linejoin="round"/><path d="M53.45 98.6797V108.95C45.61 112.35 38.95 112.66 33.45 109.85H33.43C32.6 109.41 31.8 108.92 31.02 108.35C28.58 106.57 26.64 104.28 25.22 101.46C23.57 98.2597 22.59 94.3997 22.25 89.8597C22.16 88.6897 22.12 87.4697 22.12 86.2097C22.12 80.5597 23.09 74.5897 25.03 68.2997C26.97 61.9997 29.73 55.8897 33.31 49.9797L39.69 53.6097C36.85 58.1597 34.71 62.7697 33.25 67.4597C31.8 72.1497 31.07 76.6797 31.07 81.0497C31.07 84.0897 31.41 86.7997 32.1 89.1597C32.45 90.3997 32.9 91.5297 33.45 92.5797C34.43 94.4897 35.73 96.0997 37.34 97.3897C41.35 100.62 46.48 101.14 52.72 98.9497H52.73C52.97 98.8597 53.2 98.7697 53.45 98.6797Z" stroke="#229EFF" stroke-linejoin="round"/><path d="M93.7099 44.8799C93.7099 55.2299 90.75 65.9899 84.82 77.1599C78.89 88.3299 71.42 97.1998 62.39 103.78V93.5099C68.88 88.3999 74.23 81.7599 78.45 73.5899C82.66 65.4299 84.77 57.5799 84.77 50.0499C84.77 41.4899 82.16 35.7199 76.94 32.7499C75.87 32.1399 74.75 31.6799 73.59 31.3799C70.63 30.5999 67.3599 30.8099 63.7899 32.0299C61.9199 32.6499 59.96 33.5599 57.92 34.7399L57.58 34.9299L62.5099 37.7399L56.24 48.5399L40.58 39.6199L51.38 20.9899L56.24 12.5999L62.5099 16.1799L58.21 23.5799L57.58 24.6699L57.92 24.4699C58.21 24.2999 58.49 24.1399 58.78 23.9899C63.03 21.6299 67 20.1599 70.69 19.5999C74.65 18.9999 78.29 19.4199 81.59 20.8899L83.31 21.7499C90.25 25.6999 93.7099 33.4099 93.7099 44.8799Z" stroke="#229EFF" stroke-linejoin="round"/><path d="M56.24 12.5999L51.38 20.9899L40.58 39.6199L36.7299 37.6999L20.58 29.6199L36.24 2.59985L50.34 9.64985H50.35L56.24 12.5999Z" stroke="#229EFF" stroke-linejoin="round"/><path d="M84.77 50.0499C84.77 57.5799 82.66 65.4299 78.45 73.5899C74.23 81.7599 68.88 88.3999 62.39 93.5099L42.39 83.5099C48.88 78.3999 54.23 71.7599 58.45 63.5899C62.66 55.4299 64.77 47.5799 64.77 40.0499C64.77 37.0299 64.45 34.3599 63.79 32.0299C67.36 30.8099 70.63 30.5999 73.59 31.3799C74.75 31.6799 75.87 32.1399 76.94 32.7499C82.16 35.7199 84.77 41.4899 84.77 50.0499Z" stroke="#229EFF" stroke-linejoin="round"/><path d="M81.59 20.8898C78.29 19.4198 74.65 18.9998 70.69 19.5998C67 20.1598 63.03 21.6298 58.78 23.9898C58.49 24.1398 58.21 24.2998 57.92 24.4698L57.58 24.6698L58.21 23.5798L62.51 16.1798L56.24 12.5998L50.35 9.64976C54.88 8.89976 59 9.47976 62.68 11.4098L81.59 20.8898Z" stroke="#229EFF" stroke-linejoin="round"/><path d="M56.24 48.5399L36.24 38.5399L20.58 29.6199L36.7299 37.6999L40.58 39.6199L56.24 48.5399Z" stroke="#229EFF" stroke-linejoin="round"/><path d="M62.39 93.5098V103.78L53.45 99.3098V98.6798L42.89 93.3998L42.39 93.1498V83.5098L62.39 93.5098Z" stroke="#229EFF" stroke-linejoin="round"/><path d="M53.45 98.6799C53.2 98.7699 52.97 98.8599 52.73 98.9499H52.72C46.48 101.14 41.35 100.62 37.34 97.3899C35.73 96.0999 34.43 94.4899 33.45 92.5799C32.9 91.5299 32.45 90.3999 32.1 89.1599C32.54 89.0099 32.99 88.8499 33.45 88.6799L42.39 93.1499L42.89 93.3999L53.45 98.6799Z" stroke="#229EFF" stroke-linejoin="round"/><path d="M33.43 109.84L13.43 99.8397L13.21 99.7297C12.46 99.3297 11.73 98.8697 11.02 98.3497C5.09 94.0297 2.12 86.6497 2.12 76.2097C2.12 70.5597 3.09 64.5897 5.03 58.2997C6.97 51.9997 9.73 45.8897 13.31 39.9797L33.31 49.9797C29.73 55.8897 26.97 61.9997 25.03 68.2997C23.09 74.5897 22.12 80.5597 22.12 86.2097C22.12 87.4697 22.16 88.6897 22.25 89.8597C22.59 94.3997 23.57 98.2597 25.22 101.46C26.64 104.28 28.58 106.57 31.02 108.35C31.8 108.92 32.6 109.41 33.43 109.84Z" stroke="#229EFF" stroke-linejoin="round"/></svg>