<svg width="24" height="24" viewBox="0 0 88 109" class="pr-icon-iso-duotone-secondary" xmlns="http://www.w3.org/2000/svg" stroke-width="1px" stroke-linecap="round" stroke-linejoin="round">
    <path d="M29.3691 63.8017L29.1392 63.6917C28.4292 63.4117 27.5891 63.5416 26.5891 64.1216C25.4891 64.7616 24.5591 65.7216 23.8191 67.0116C23.0691 68.3016 22.6992 69.5717 22.6992 70.8417C22.6992 72.1117 23.0691 72.9516 23.8191 73.3816C24.5591 73.8016 25.4891 73.7017 26.5891 73.0617C27.6991 72.4217 28.6191 71.4617 29.3691 70.1717C30.1191 68.8817 30.4893 67.6117 30.4893 66.3417C30.4893 65.0717 30.1191 64.2317 29.3691 63.8017Z" class="pr-icon-iso-duotone-primary-stroke" stroke-linejoin="round"/>
    <path d="M85.0293 34.852C85.0293 36.122 84.6592 37.392 83.9092 38.682C83.1692 39.972 82.2392 40.932 81.1392 41.572C80.0292 42.212 79.1091 42.3119 78.3591 41.8919C77.6091 41.4619 77.2393 40.612 77.2393 39.352C77.2393 38.092 77.6091 36.8019 78.3591 35.5219C79.1091 34.2319 80.0292 33.2719 81.1392 32.6319C82.1292 32.0519 82.9792 31.912 83.6792 32.202L83.9092 32.312C84.6592 32.742 85.0293 33.582 85.0293 34.852Z" class="pr-icon-iso-duotone-primary-stroke" stroke-linejoin="round"/>
    <path d="M76.2695 27.6218C76.2695 27.9018 76.2495 28.1819 76.2095 28.4619C76.0795 29.4519 75.7294 30.4519 75.1494 31.4519C74.3994 32.7419 73.4794 33.7019 72.3694 34.3419C71.2694 34.9719 70.3394 35.0818 69.5994 34.6518C68.8494 34.2318 68.4795 33.3818 68.4795 32.1118C68.4795 30.8418 68.8494 29.5718 69.5994 28.2818C70.1194 27.3818 70.7294 26.6419 71.4194 26.0719C71.7194 25.8119 72.0394 25.5818 72.3694 25.3918C73.3694 24.8218 74.2094 24.6819 74.9194 24.9719L75.1494 25.0819C75.8894 25.5019 76.2695 26.3518 76.2695 27.6218Z" class="pr-icon-iso-duotone-primary-stroke" stroke-linejoin="round"/>
    <path d="M48.0195 31.6319C48.0195 32.1418 47.9594 32.6519 47.8394 33.1619C47.7494 33.5519 47.6195 33.9419 47.4595 34.3319C47.3095 34.7019 47.1194 35.0819 46.8994 35.4619C46.1494 36.7519 45.2294 37.7119 44.1294 38.3519C43.0194 38.9919 42.0994 39.0919 41.3494 38.6719C40.7294 38.3219 40.3795 37.6919 40.2695 36.7719C40.2395 36.5719 40.2295 36.3619 40.2295 36.1319C40.2295 34.8619 40.5994 33.5819 41.3494 32.3019C42.0994 31.0119 43.0194 30.0519 44.1294 29.4119C44.5194 29.1819 44.8895 29.0219 45.2395 28.9419C45.7695 28.7919 46.2394 28.8118 46.6694 28.9818L46.8994 29.0919C47.3294 29.3319 47.6296 29.7119 47.7996 30.2219C47.9496 30.6119 48.0195 31.0818 48.0195 31.6319Z" class="pr-icon-iso-duotone-primary-stroke" stroke-linejoin="round"/>
    <path d="M67.499 44.9721C67.499 46.2421 67.1289 47.522 66.3789 48.802C65.6289 50.092 64.7089 51.052 63.6089 51.692C63.4289 51.792 63.2489 51.8821 63.0789 51.9521C62.1989 52.3521 61.4589 52.362 60.8289 52.012C60.0789 51.582 59.709 50.7421 59.709 49.4721C59.709 48.2021 60.0789 46.932 60.8289 45.642C61.5789 44.352 62.4989 43.392 63.6089 42.752C64.0289 42.512 64.4291 42.342 64.7991 42.262C65.2991 42.132 65.7489 42.1621 66.1489 42.3221L66.3789 42.432C67.1289 42.862 67.499 43.7021 67.499 44.9721Z" class="pr-icon-iso-duotone-primary-stroke" stroke-linejoin="round"/>
    <path d="M85.0293 47.3721C85.0293 57.8021 82.0591 68.2321 76.1191 78.6721C70.1791 89.1021 62.7591 96.8921 53.8691 102.022C44.9691 107.162 37.5491 107.942 31.6091 104.372C28.4991 102.492 26.1992 99.6821 24.7192 95.9121C23.3692 92.5121 22.6992 88.3221 22.6992 83.3621L59.4392 62.1521L85.0293 47.3721Z" class="pr-icon-iso-duotone-primary-stroke" stroke-linejoin="round"/>
    <path d="M29.3691 63.8026L29.1392 63.6927C28.4292 63.4127 27.5891 63.5426 26.5891 64.1226C25.4891 64.7626 24.5591 65.7226 23.8191 67.0126C23.0691 68.3026 22.6992 69.5727 22.6992 70.8427C22.6992 72.1127 23.0691 72.9526 23.8191 73.3826C24.5591 73.8026 25.4891 73.7027 26.5891 73.0627C27.6991 72.4227 28.6191 71.4626 29.3691 70.1726C30.1191 68.8826 30.4893 67.6127 30.4893 66.3427C30.4893 65.0727 30.1191 64.2326 29.3691 63.8026Z" class="pr-icon-iso-duotone-primary-stroke" stroke-linejoin="round"/>
    <path d="M85.0293 47.3721L59.4392 62.1521L22.6992 83.3621L2.69922 73.3621L12.4792 67.7122L23.8191 73.3821C24.5591 73.8021 25.4891 73.7021 26.5891 73.0621C27.6991 72.4221 28.6191 71.4621 29.3691 70.1721C30.1191 68.8821 30.4893 67.6122 30.4893 66.3422C30.4893 65.0722 30.1191 64.2321 29.3691 63.8021L29.1392 63.6921L23.9492 61.0922L30.0093 57.5922L41.3491 63.2621C42.0991 63.6821 43.0192 63.5821 44.1292 62.9421C45.2292 62.3021 46.1492 61.3421 46.8992 60.0521C47.6492 58.7621 48.0193 57.4922 48.0193 56.2222C48.0193 54.9522 47.6492 54.1121 46.8992 53.6821L46.6692 53.5721L41.4792 50.9722L49.4893 46.3422L60.8291 52.0121C61.4591 52.3621 62.1991 52.3521 63.0791 51.9521C63.2491 51.8821 63.4291 51.7921 63.6091 51.6921C64.7091 51.0521 65.6292 50.0921 66.3792 48.8021C67.1292 47.5221 67.4993 46.2422 67.4993 44.9722C67.4993 43.7022 67.1292 42.8621 66.3792 42.4321L66.1492 42.3221L64.8591 41.6721L60.9592 39.7222L65.0293 37.3721L85.0293 47.3721Z" class="pr-icon-iso-duotone-primary-stroke" stroke-linejoin="round"/>
    <path d="M83.6792 32.2019C82.9792 31.9119 82.1292 32.0518 81.1392 32.6318C80.0292 33.2718 79.1091 34.2319 78.3591 35.5219C77.6091 36.8019 77.2393 38.0819 77.2393 39.3519C77.2393 40.6219 77.6091 41.4618 78.3591 41.8918L58.5891 32.0018L58.3591 31.8918C57.6091 31.4618 57.2393 30.6119 57.2393 29.3519C57.2393 29.0719 57.2593 28.7818 57.2993 28.5018L62.0891 30.8918L69.5991 34.6519C70.3391 35.0819 71.2691 34.9719 72.3691 34.3419C73.4791 33.7019 74.3992 32.7419 75.1492 31.4519C75.7292 30.4519 76.0792 29.4519 76.2092 28.4619L83.6792 32.2019Z" class="pr-icon-iso-duotone-primary-stroke" stroke-linejoin="round"/>
    <path d="M74.9194 24.9725C74.2094 24.6825 73.3694 24.8225 72.3694 25.3925C72.0394 25.5825 71.7194 25.8125 71.4194 26.0725C70.7294 26.6425 70.1194 27.3825 69.5994 28.2825C68.8494 29.5725 68.4795 30.8524 68.4795 32.1124C68.4795 33.3724 68.8494 34.2325 69.5994 34.6525L62.0894 30.8925L57.2996 28.5024L49.8293 24.7625L49.5994 24.6525C48.8494 24.2325 48.4795 23.3824 48.4795 22.1124C48.4795 21.8324 48.4996 21.5525 48.5396 21.2725L53.3193 23.6725L58.0793 26.0425L60.8293 27.4225C61.5793 27.8525 62.4994 27.7425 63.6094 27.1025C64.0694 26.8425 64.4994 26.5124 64.8994 26.1224C65.4494 25.6024 65.9494 24.9625 66.3794 24.2125C66.4794 24.0425 66.5794 23.8625 66.6594 23.6925C67.0794 22.8725 67.3395 22.0524 67.4395 21.2324L74.9194 24.9725Z" class="pr-icon-iso-duotone-primary-stroke" stroke-linejoin="round"/>
    <path d="M66.1492 17.7318C65.4392 17.4518 64.5991 17.5819 63.6091 18.1619C63.2791 18.3519 62.9592 18.5719 62.6592 18.8319C61.9592 19.4119 61.3491 20.1519 60.8291 21.0519C60.3291 21.9119 59.9991 22.7618 59.8391 23.6118C59.7491 24.0318 59.7092 24.4618 59.7092 24.8818C59.7092 26.1518 60.0791 26.9919 60.8291 27.4219L58.0791 26.0419L53.3191 23.6719L48.5393 21.2719L41.0593 17.5319L40.8291 17.4219C40.4091 17.1819 40.0992 16.8019 39.9292 16.2919L42.4893 17.5719L48.6492 20.6519L51.0891 21.8718C51.8391 22.2918 52.7591 22.1919 53.8691 21.5519C54.6391 21.1019 55.3192 20.5018 55.9192 19.7318C56.1692 19.4018 56.4092 19.0519 56.6392 18.6619C57.0992 17.8719 57.4191 17.0819 57.5891 16.3019C57.7091 15.8119 57.7593 15.3219 57.7593 14.8319C57.7593 14.2819 57.6893 13.8119 57.5393 13.4219L66.1492 17.7318Z" class="pr-icon-iso-duotone-primary-stroke" stroke-linejoin="round"/>
    <path d="M56.4092 12.1822C55.9792 12.0122 55.5092 11.9922 54.9792 12.1422C54.6292 12.2222 54.2591 12.3821 53.8691 12.6121C52.7591 13.2521 51.8391 14.2122 51.0891 15.5022C50.7591 16.0722 50.4991 16.6422 50.3191 17.2122C50.0791 17.9222 49.9692 18.6322 49.9692 19.3322C49.9692 20.5922 50.3391 21.4422 51.0891 21.8722L48.6492 20.6522L42.4893 17.5722L39.9292 16.2922L31.3191 11.9821L31.0891 11.8722C30.3391 11.4422 29.9692 10.5922 29.9692 9.33224C29.9692 8.07224 30.3391 6.78216 31.0891 5.50216C31.8391 4.21216 32.7591 3.25215 33.8691 2.61215C34.9691 1.97215 35.8892 1.8722 36.6392 2.2922L56.4092 12.1822Z" class="pr-icon-iso-duotone-primary-stroke" stroke-linejoin="round"/>
    <path d="M56.4094 34.5326C55.6994 34.2526 54.8594 34.3826 53.8694 34.9626C53.5194 35.1626 53.1794 35.4026 52.8694 35.6726C52.1894 36.2426 51.5994 36.9727 51.0894 37.8527C50.3394 39.1427 49.9695 40.4126 49.9695 41.6826C49.9695 42.9526 50.3394 43.7927 51.0894 44.2227L44.5994 40.9825L39.7795 38.5626L31.3193 34.3326L31.0894 34.2227C30.6694 33.9827 30.3595 33.6027 30.1895 33.0927L32.7495 34.3726L39.8894 37.9426L41.3494 38.6726C42.0994 39.0926 43.0194 38.9927 44.1294 38.3527C45.2294 37.7127 46.1494 36.7526 46.8994 35.4626C47.1194 35.0826 47.3095 34.7026 47.4595 34.3326C47.6195 33.9426 47.7494 33.5526 47.8394 33.1626C47.9594 32.6526 48.0195 32.1426 48.0195 31.6326C48.0195 31.0826 47.9496 30.6127 47.7996 30.2227L56.4094 34.5326Z" class="pr-icon-iso-duotone-primary-stroke" stroke-linejoin="round"/>
    <path d="M46.6694 28.9819C46.2394 28.8119 45.7695 28.792 45.2395 28.942C44.8895 29.022 44.5194 29.182 44.1294 29.412C43.0194 30.052 42.0994 31.012 41.3494 32.302C40.5994 33.582 40.2295 34.8619 40.2295 36.1319C40.2295 36.3619 40.2395 36.5719 40.2695 36.7719C40.3795 37.6919 40.7294 38.322 41.3494 38.672L39.8894 37.942L32.7495 34.3719L30.1895 33.092L21.5793 28.7819L21.3494 28.672C20.5994 28.242 20.2295 27.4019 20.2295 26.1319C20.2295 24.8619 20.5994 23.582 21.3494 22.302C22.0994 21.012 23.0194 20.052 24.1294 19.412C25.2294 18.772 26.1494 18.672 26.8994 19.092L46.6694 28.9819Z" class="pr-icon-iso-duotone-primary-stroke" stroke-linejoin="round"/>
    <path d="M31.6091 104.372L13.6692 95.4023L11.6091 94.3723C5.66913 90.7923 2.69922 83.7923 2.69922 73.3623L22.6992 83.3623C22.6992 88.3223 23.3692 92.5124 24.7192 95.9124C26.1992 99.6824 28.4991 102.492 31.6091 104.372Z" class="pr-icon-iso-duotone-primary-stroke" stroke-linejoin="round"/>
    <path d="M29.1392 63.692C28.4292 63.412 27.5891 63.5419 26.5891 64.1219C25.4891 64.7619 24.5591 65.7219 23.8191 67.0119C23.0691 68.3019 22.6992 69.572 22.6992 70.842C22.6992 72.112 23.0691 72.9519 23.8191 73.3819L12.4792 67.712L4.04932 63.4919L3.81909 63.3819C3.06909 62.9519 2.69922 62.112 2.69922 60.842C2.69922 59.572 3.06909 58.3019 3.81909 57.0119C4.55909 55.7219 5.48911 54.7619 6.58911 54.1219C7.69911 53.4819 8.61914 53.382 9.36914 53.802L23.9492 61.092L29.1392 63.692Z" class="pr-icon-iso-duotone-primary-stroke" stroke-linejoin="round"/>
    <path d="M46.6694 53.572C45.9594 53.282 45.1194 53.422 44.1294 54.002C43.0194 54.632 42.0994 55.602 41.3494 56.892C40.5994 58.172 40.2295 59.452 40.2295 60.722C40.2295 61.992 40.5994 62.832 41.3494 63.262L30.0095 57.592L21.5793 53.3719L21.3494 53.262C20.5994 52.832 20.2295 51.982 20.2295 50.722C20.2295 50.442 20.2496 50.1519 20.2896 49.8719L25.0693 52.272L32.5793 56.022C32.5793 56.022 32.6294 56.052 32.6594 56.062C33.3994 56.442 34.2994 56.322 35.3594 55.712C36.4194 55.092 37.3293 54.172 38.0693 52.942C38.0893 52.902 38.1194 52.862 38.1394 52.822C38.7194 51.822 39.0695 50.822 39.1995 49.832L41.4795 50.972L46.6694 53.572Z" class="pr-icon-iso-duotone-primary-stroke" stroke-linejoin="round"/>
    <path d="M48.0195 56.2221C48.0195 57.4921 47.6494 58.7621 46.8994 60.0521C46.1494 61.3421 45.2294 62.3021 44.1294 62.9421C43.0194 63.5821 42.0994 63.682 41.3494 63.262C40.5994 62.832 40.2295 61.9821 40.2295 60.7221C40.2295 59.4621 40.5994 58.1721 41.3494 56.8921C42.0994 55.6021 43.0194 54.632 44.1294 54.002C45.1194 53.422 45.9594 53.2821 46.6694 53.5721L46.8994 53.6821C47.6494 54.1121 48.0195 54.9521 48.0195 56.2221Z" class="pr-icon-iso-duotone-primary-stroke" stroke-linejoin="round"/>
    <path d="M39.259 48.9919C39.259 49.2719 39.239 49.552 39.199 49.832C39.069 50.822 38.7189 51.822 38.1389 52.822C38.1189 52.862 38.0888 52.902 38.0688 52.942C37.3288 54.172 36.4189 55.092 35.3589 55.712C34.2989 56.322 33.3989 56.442 32.6589 56.062C32.6289 56.052 32.6089 56.032 32.5789 56.022C31.8389 55.602 31.459 54.7519 31.459 53.4819C31.459 52.2119 31.8389 50.942 32.5789 49.652C33.0989 48.752 33.7089 48.012 34.4089 47.432C34.7089 47.182 35.0289 46.9519 35.3589 46.7619C36.3489 46.1919 37.1989 46.052 37.9089 46.342L38.1389 46.452C38.8789 46.872 39.259 47.7219 39.259 48.9919Z" class="pr-icon-iso-duotone-primary-stroke" stroke-linejoin="round"/>
    <path d="M37.9089 46.3425C37.1989 46.0525 36.3489 46.1924 35.3589 46.7624C35.0289 46.9524 34.7089 47.1824 34.4089 47.4324C33.7089 48.0124 33.0989 48.7524 32.5789 49.6524C31.8389 50.9424 31.459 52.2223 31.459 53.4823C31.459 54.7423 31.8389 55.6024 32.5789 56.0224L25.0688 52.2724L20.2891 49.8724L12.8091 46.1324L12.5789 46.0224C11.8389 45.6024 11.459 44.7523 11.459 43.4823C11.459 42.2123 11.8389 40.9424 12.5789 39.6524C13.3289 38.3624 14.2589 37.4024 15.3589 36.7624C16.4589 36.1324 17.3889 36.0224 18.1389 36.4524L37.9089 46.3425Z" class="pr-icon-iso-duotone-primary-stroke" stroke-linejoin="round"/>
    <path d="M66.1489 42.3218C65.7489 42.1618 65.2991 42.1317 64.7991 42.2617C64.4291 42.3417 64.0289 42.5117 63.6089 42.7517C62.4989 43.3917 61.5789 44.3517 60.8289 45.6417C60.0789 46.9317 59.709 48.2018 59.709 49.4718C59.709 50.7418 60.0789 51.5817 60.8289 52.0117L49.489 46.3418L41.0591 42.1217L40.8289 42.0117C40.0789 41.5817 39.709 40.7418 39.709 39.4718C39.709 39.1718 39.7291 38.8618 39.7791 38.5618L44.5989 40.9817L51.0889 44.2218C51.6589 44.5418 52.3189 44.5617 53.0889 44.2617C53.3389 44.1817 53.5989 44.0517 53.8689 43.9017C54.1489 43.7417 54.4089 43.5617 54.6589 43.3617H54.6689C55.4289 42.7617 56.0789 41.9717 56.6389 41.0117C57.2089 40.0417 57.559 39.0618 57.689 38.0918L60.959 39.7218L64.8589 41.6718L66.1489 42.3218Z" class="pr-icon-iso-duotone-primary-stroke" stroke-linejoin="round"/>
    <path d="M57.7593 37.1825C57.7593 37.4825 57.7392 37.7925 57.6892 38.0925C57.5592 39.0625 57.2092 40.0425 56.6392 41.0125C56.0792 41.9725 55.4292 42.7625 54.6692 43.3525H54.6592C54.4092 43.5625 54.1491 43.7425 53.8691 43.9025C53.5991 44.0525 53.3391 44.1825 53.0891 44.2625C52.3191 44.5625 51.6591 44.5425 51.0891 44.2225C50.3391 43.7925 49.9692 42.9525 49.9692 41.6825C49.9692 40.4125 50.3391 39.1425 51.0891 37.8525C51.5991 36.9725 52.1891 36.2425 52.8691 35.6725C53.1791 35.4025 53.5191 35.1625 53.8691 34.9625C54.8591 34.3825 55.6992 34.2525 56.4092 34.5325L56.6392 34.6425C57.3892 35.0725 57.7593 35.9225 57.7593 37.1825Z" class="pr-icon-iso-duotone-primary-stroke" stroke-linejoin="round"/>
    <path d="M57.7593 14.8321C57.7593 15.3221 57.7091 15.8121 57.5891 16.3021C57.4191 17.0821 57.0992 17.8721 56.6392 18.6621C56.4092 19.0521 56.1692 19.402 55.9192 19.732C55.3192 20.502 54.6391 21.1021 53.8691 21.5521C52.7591 22.1921 51.8391 22.292 51.0891 21.872C50.3391 21.442 49.9692 20.5921 49.9692 19.3321C49.9692 18.6321 50.0791 17.9221 50.3191 17.2121C50.4991 16.6421 50.7591 16.072 51.0891 15.502C51.8391 14.212 52.7591 13.252 53.8691 12.612C54.2591 12.382 54.6292 12.2221 54.9792 12.1421C55.5092 11.9921 55.9792 12.0121 56.4092 12.1821L56.6392 12.2921C57.0692 12.5321 57.3693 12.9121 57.5393 13.4221C57.6893 13.8121 57.7593 14.2821 57.7593 14.8321Z" class="pr-icon-iso-duotone-primary-stroke" stroke-linejoin="round"/>
    <path d="M67.499 20.3817C67.499 20.6617 67.479 20.9517 67.439 21.2317C67.339 22.0517 67.0789 22.8718 66.6589 23.6918C66.5789 23.8618 66.4789 24.0418 66.3789 24.2118C65.9489 24.9618 65.4489 25.6017 64.8989 26.1217C64.4989 26.5117 64.0689 26.8418 63.6089 27.1018C62.4989 27.7418 61.5789 27.8518 60.8289 27.4218C60.0789 26.9918 59.709 26.1517 59.709 24.8817C59.709 24.4617 59.7489 24.0317 59.8389 23.6117C59.9989 22.7617 60.3289 21.9118 60.8289 21.0518C61.3489 20.1518 61.9589 19.4118 62.6589 18.8318C62.9589 18.5718 63.2789 18.3517 63.6089 18.1617C64.5989 17.5817 65.4389 17.4517 66.1489 17.7317L66.3789 17.8418C67.1289 18.2718 67.499 19.1217 67.499 20.3817Z" class="pr-icon-iso-duotone-primary-stroke" stroke-linejoin="round"/>
</svg>