<svg width="48" height="48" viewBox="0 0 86 109" class="pr-icon-iso-duotone-secondary"
     xmlns="http://www.w3.org/2000/svg" stroke-width="1px" stroke-linecap="round" stroke-linejoin="round">
    <path d="M52.8901 61.04V95.84C59.1001 90.06 64.2802 82.72 68.4402 73.82C72.6002 64.92 75.0302 56.26 75.7302 47.85L57.7102 58.26L52.8901 61.04ZM52.8901 61.04L48.5703 63.53L32.8901 72.59L30.0503 74.23C29.9203 73.5 29.8604 72.87 29.8604 72.36V49.56L32.8901 46.51L52.8901 26.35V61.04ZM63.6003 15.41L52.8901 16.99L32.8901 37.15L22.1802 47.94V74.81C22.1802 83.58 23.9603 90.69 27.5503 96.15C28.5103 97.64 29.6204 99.01 30.8604 100.25C32.0604 101.45 33.3202 102.47 34.6602 103.31C39.7602 106.53 45.8401 107.13 52.8901 105.1C61.7801 97.39 69.1302 87.3 74.9202 74.81C80.7102 62.33 83.6003 50.5 83.6003 39.34V12.47L63.6003 15.41Z" class="pr-icon-iso-duotone-primary-stroke" stroke-linejoin="round"/>
    <path d="M75.7302 47.8501C75.0302 56.2601 72.6002 64.9201 68.4402 73.8201C64.2802 82.7201 59.1001 90.0601 52.8901 95.8401V68.9701C53.5901 67.6101 54.2602 66.2301 54.9202 64.8101C55.9402 62.6101 56.8702 60.4201 57.7102 58.2601L75.7302 47.8501Z" class="pr-icon-iso-duotone-primary-stroke" stroke-linejoin="round"/>
    <path d="M52.8901 61.04L48.5703 63.53L32.8901 72.59L30.0503 74.23C29.9203 73.5 29.8604 72.87 29.8604 72.36V52.79L32.8901 51.04L50.2402 59.71L52.8901 61.04Z" class="pr-icon-iso-duotone-primary-stroke" stroke-linejoin="round"/>
    <path d="M52.8901 26.3501V61.0401L50.2402 59.7101L32.8901 51.0401V46.5101L52.8901 26.3501Z" class="pr-icon-iso-duotone-primary-stroke" stroke-linejoin="round"/>
    <path d="M52.8901 16.99L32.8901 37.15L22.1802 47.94L9.86035 41.78L2.18018 37.94L32.8901 6.98999L52.8901 16.99Z" class="pr-icon-iso-duotone-primary-stroke" stroke-linejoin="round"/>
    <path d="M83.6003 12.47L63.6003 15.41L52.8901 16.99L32.8901 6.98997L63.6003 2.46997L83.6003 12.47Z" class="pr-icon-iso-duotone-primary-stroke" stroke-linejoin="round"/>
    <path d="M34.6602 103.31L16.8203 94.4899L16.4702 94.3199C14.4602 93.3399 12.5904 91.9799 10.8604 90.2499C5.07035 84.4499 2.18018 75.9699 2.18018 64.8099V37.9399L9.86035 41.7799L22.1802 47.9399V74.8099C22.1802 83.5799 23.9603 90.6899 27.5503 96.1499C28.5103 97.6399 29.6204 99.0099 30.8604 100.25C32.0604 101.45 33.3202 102.47 34.6602 103.31Z" class="pr-icon-iso-duotone-primary-stroke" stroke-linejoin="round"/>
</svg>