<svg width="48" height="48" viewBox="0 0 99 111" class="pr-icon-iso-duotone-secondary"
     xmlns="http://www.w3.org/2000/svg" stroke-width="1px" stroke-linecap="round" stroke-linejoin="round">
    <path d="M84.4404 14.29L85.9104 15.02C85.4304 14.75 84.9404 14.5 84.4404 14.29Z"
          class="pr-icon-iso-duotone-primary-stroke" stroke-linejoin="round"/>
    <path d="M93.9008 24.0293C91.9408 19.9393 89.2808 16.9393 85.9108 15.0193L84.4408 14.2893C81.4208 12.9093 77.9408 12.3793 74.0408 12.7093C73.7808 12.7293 73.5207 12.7593 73.2607 12.7893C68.9407 13.2793 64.3408 14.9293 59.4708 17.7493C56.8508 19.2593 54.3207 21.0093 51.8607 23.0093C49.9307 24.5793 48.0408 26.2993 46.2108 28.1693C45.7608 28.6193 45.3307 29.0693 44.8907 29.5393C40.3507 34.4193 36.3908 39.7593 33.0308 45.5593C31.2508 48.6193 29.6708 51.7593 28.2908 54.9793C27.0508 57.8493 25.9708 60.7893 25.0408 63.7893C23.3208 69.3393 22.3507 74.7293 22.1407 79.9593C22.1107 80.7193 22.0908 81.4693 22.0908 82.2093C22.0908 88.1393 23.0708 93.1493 25.0408 97.2393C25.2508 97.6693 25.4608 98.0893 25.6908 98.4893C27.5708 101.939 30.0108 104.529 33.0308 106.239C36.3908 108.159 40.3507 108.929 44.8907 108.559C49.4407 108.189 54.3008 106.509 59.4708 103.519C64.6408 100.539 69.5008 96.5993 74.0408 91.7293C78.5908 86.8493 82.5508 81.5093 85.9108 75.7093C89.2808 69.9093 91.9408 63.8293 93.9008 57.4793C95.8608 51.1293 96.8408 44.9893 96.8408 39.0493C96.8408 33.1093 95.8608 28.1093 93.9008 24.0293ZM35.9208 62.6493C39.2908 59.0593 41.8607 55.9693 43.6307 53.3693C44.3807 52.2793 45.1108 51.0693 45.8308 49.7493C46.8208 47.9393 47.7808 45.9093 48.7208 43.6793L53.4008 44.4093C52.5708 46.3693 51.7208 48.2093 50.8408 49.9393C50.8408 49.9593 50.8408 49.9693 50.8208 49.9893C49.6008 52.4093 48.3408 54.5893 47.0408 56.5493C44.8008 59.9193 41.8108 63.5393 38.0708 67.4093L35.9208 62.6493ZM75.3108 73.4193C73.4108 77.0493 70.9008 79.7693 67.7808 81.5593C66.7308 82.1793 65.7107 82.5493 64.7507 82.6693C63.7807 82.7993 62.8308 82.8493 61.9008 82.8193C60.7808 82.7493 59.9708 82.8593 59.4708 83.1493C59.0308 83.3993 58.6108 83.7493 58.2108 84.1993C57.8008 84.6493 57.4108 85.1193 57.0408 85.6193C56.1008 86.7393 55.1508 87.7793 54.1908 88.7693C53.2208 89.7593 52.2108 90.5593 51.1508 91.1693C48.0408 92.9693 45.5307 93.1393 43.6307 91.6993C43.4407 91.5593 43.2707 91.4093 43.1007 91.2293C41.5507 89.6893 40.7808 87.0193 40.7808 83.2193C40.7808 82.6693 40.8008 82.1293 40.8308 81.5893C41.0308 78.5593 41.7708 75.6393 43.0608 72.8193C43.7008 71.3993 44.4908 70.0093 45.4108 68.6493C46.4008 67.1693 47.5408 65.7693 48.8208 64.4193C48.8308 64.4093 48.8308 64.3993 48.8408 64.3993C49.1808 64.0293 49.5408 63.6693 49.9108 63.3093C52.0808 61.2093 54.6107 59.2693 57.5107 57.4993C57.9107 57.2593 58.3108 57.0193 58.7208 56.7793L60.2208 55.9093C60.6308 55.6693 61.0408 55.4393 61.4408 55.2293C65.9408 52.7893 69.5708 51.7593 72.3208 52.1393C72.7408 52.1893 73.1508 52.2893 73.5308 52.4093C76.6108 53.4093 78.1608 56.4893 78.1608 61.6393C78.1608 65.8593 77.2108 69.7793 75.3108 73.4193ZM80.7708 42.7593C78.6808 42.9493 76.8108 42.9593 75.1808 42.7993C73.9508 42.6793 72.8608 42.4693 71.9008 42.1493C69.6508 41.3993 67.5408 39.8193 65.5408 37.3993L66.7808 35.7693L70.2108 31.2693C71.9008 33.2993 73.6107 34.5993 75.3507 35.1693C75.6907 35.2793 76.0708 35.3693 76.4708 35.4393C78.1208 35.7593 80.2708 35.7793 82.9208 35.5093L80.7708 42.7593Z"
          class="pr-icon-iso-duotone-primary-stroke" stroke-linejoin="round"/>
    <path d="M70.051 59.5395C69.871 59.4595 69.6811 59.4095 69.4711 59.3595C69.4011 59.3495 69.341 59.3295 69.271 59.3295C67.261 59.0095 64.221 60.0295 60.121 62.3995L58.7211 63.2095C56.3411 64.5795 54.311 66.0095 52.621 67.4795C51.741 68.2495 50.961 69.0295 50.261 69.8295C49.931 70.2095 49.6211 70.5995 49.3311 70.9895C47.3111 73.7295 46.291 76.7495 46.291 80.0295C46.291 82.3895 46.711 83.9895 47.561 84.8295C47.751 85.0195 47.961 85.1695 48.191 85.2695L40.8311 81.5895C41.0311 78.5595 41.771 75.6395 43.061 72.8195C43.701 71.3995 44.491 70.0095 45.411 68.6495C46.401 67.1695 47.541 65.7695 48.821 64.4195C48.831 64.4095 48.8311 64.3995 48.8411 64.3995C49.1811 64.0295 49.541 63.6695 49.911 63.3095C52.081 61.2095 54.611 59.2695 57.511 57.4995C57.911 57.2595 58.3111 57.0195 58.7211 56.7795L60.2211 55.9095C60.6311 55.6695 61.041 55.4395 61.441 55.2295L69.3411 59.1795L70.051 59.5395Z"
          class="pr-icon-iso-duotone-primary-stroke" stroke-linejoin="round"/>
    <path d="M78.1613 61.6393C78.1613 65.8593 77.2113 69.7793 75.3113 73.4193C73.4113 77.0493 70.9012 79.7693 67.7812 81.5593C66.7313 82.1793 65.7112 82.5493 64.7512 82.6693C63.7812 82.7993 62.8312 82.8493 61.9012 82.8193C60.7812 82.7493 59.9713 82.8593 59.4713 83.1493C59.0313 83.3993 58.6113 83.7493 58.2113 84.1993C57.8013 84.6493 57.4113 85.1193 57.0413 85.6193C56.1013 86.7393 55.1513 87.7793 54.1913 88.7693C53.2213 89.7593 52.2112 90.5593 51.1512 91.1693C48.0412 92.9693 45.5312 93.1393 43.6312 91.6993C43.4412 91.5593 43.2712 91.4093 43.1012 91.2293C41.5512 89.6893 40.7812 87.0193 40.7812 83.2193C40.7812 82.6693 40.8013 82.1293 40.8313 81.5893L48.1913 85.2693C48.9213 85.5993 49.8413 85.4593 50.9513 84.8493C50.9913 84.8293 51.0213 84.8093 51.0613 84.7893C51.6213 84.4593 52.1613 84.0193 52.6913 83.4693C53.2213 82.9093 53.7412 82.3093 54.2412 81.6693C55.0512 80.6293 55.8912 79.6793 56.7612 78.8193C57.6312 77.9593 58.5313 77.2593 59.4713 76.7193C60.4013 76.1793 61.2912 75.8393 62.1312 75.7093C62.9712 75.5893 63.8012 75.5693 64.6112 75.6793C65.9812 75.7493 67.0412 75.5593 67.7812 75.1293C69.2812 74.2693 70.4312 72.9393 71.2412 71.1493C72.0512 69.3593 72.4613 67.2893 72.4613 64.9293C72.4613 62.1493 71.7413 60.3993 70.3213 59.6693L70.0513 59.5393L69.3413 59.1793L61.4413 55.2293C65.9413 52.7893 69.5713 51.7593 72.3213 52.1393C72.7413 52.1893 73.1513 52.2893 73.5312 52.4093C76.6112 53.4093 78.1613 56.4893 78.1613 61.6393Z"
          class="pr-icon-iso-duotone-primary-stroke" stroke-linejoin="round"/>
    <path d="M72.4611 64.9297C72.4611 67.2897 72.051 69.3597 71.241 71.1497C70.431 72.9397 69.281 74.2697 67.781 75.1297C67.041 75.5597 65.981 75.7497 64.611 75.6797C63.801 75.5697 62.971 75.5897 62.131 75.7097C61.291 75.8397 60.4011 76.1797 59.4711 76.7197C58.5311 77.2597 57.631 77.9597 56.761 78.8197C55.891 79.6797 55.051 80.6298 54.241 81.6698C53.741 82.3098 53.221 82.9097 52.691 83.4697C52.161 84.0197 51.621 84.4597 51.061 84.7897C51.021 84.8097 50.991 84.8297 50.951 84.8497C49.841 85.4597 48.921 85.5997 48.191 85.2697C47.961 85.1697 47.751 85.0198 47.561 84.8298C46.711 83.9898 46.291 82.3897 46.291 80.0297C46.291 76.7497 47.3111 73.7297 49.3311 70.9897C49.6211 70.5997 49.931 70.2098 50.261 69.8298C50.961 69.0298 51.741 68.2498 52.621 67.4798C54.311 66.0098 56.3411 64.5797 58.7211 63.2097L60.121 62.3997C64.221 60.0297 67.261 59.0098 69.271 59.3298C69.341 59.3298 69.4011 59.3498 69.4711 59.3598C69.6811 59.4098 69.871 59.4597 70.051 59.5397L70.321 59.6698C71.741 60.3998 72.4611 62.1497 72.4611 64.9297Z"
          class="pr-icon-iso-duotone-primary-stroke" stroke-linejoin="round"/>
    <path d="M53.4009 44.4097C52.5709 46.3697 51.7209 48.2097 50.8409 49.9397C50.8409 49.9597 50.8409 49.9697 50.8209 49.9897C49.6009 52.4097 48.3409 54.5897 47.0409 56.5497C44.8009 59.9197 41.8109 63.5397 38.0709 67.4097L35.9209 62.6497C39.2909 59.0597 41.8609 55.9697 43.6309 53.3697C44.3809 52.2797 45.1109 51.0697 45.8309 49.7497C46.8209 47.9397 47.7809 45.9097 48.7209 43.6797L53.4009 44.4097Z"
          class="pr-icon-iso-duotone-primary-stroke" stroke-linejoin="round"/>
    <path d="M80.771 42.7596C78.681 42.9496 76.811 42.9595 75.181 42.7995C73.951 42.6795 72.861 42.4695 71.901 42.1495C69.651 41.3995 67.541 39.8195 65.541 37.3995L66.781 35.7695L75.7211 40.2395L80.771 42.7596Z"
          class="pr-icon-iso-duotone-primary-stroke" stroke-linejoin="round"/>
    <path d="M82.9213 35.5096L80.7712 42.7596L75.7213 40.2395L66.7812 35.7695L70.2113 31.2695C71.9013 33.2995 73.6112 34.5996 75.3512 35.1696C75.6912 35.2796 76.0713 35.3695 76.4713 35.4395C78.1213 35.7595 80.2713 35.7796 82.9213 35.5096Z"
          class="pr-icon-iso-duotone-primary-stroke" stroke-linejoin="round"/>
    <path d="M84.4408 14.2897C81.4208 12.9097 77.9408 12.3797 74.0408 12.7097C73.7808 12.7297 73.5207 12.7597 73.2607 12.7897C68.9407 13.2797 64.3408 14.9297 59.4708 17.7497C56.8508 19.2597 54.3207 21.0097 51.8607 23.0097C49.9307 24.5797 48.0408 26.2997 46.2108 28.1697C45.7608 28.6197 45.3307 29.0697 44.8907 29.5397C40.3507 34.4197 36.3908 39.7597 33.0308 45.5597C31.2508 48.6197 29.6708 51.7597 28.2908 54.9797C27.0508 57.8497 25.9708 60.7897 25.0408 63.7897C23.3208 69.3397 22.3507 74.7297 22.1407 79.9597C22.1107 80.7197 22.0908 81.4697 22.0908 82.2097C22.0908 88.1397 23.0708 93.1497 25.0408 97.2397C25.2508 97.6697 25.4608 98.0897 25.6908 98.4897C27.5708 101.94 30.0108 104.53 33.0308 106.24L14.6207 97.0397L13.0308 96.2397C9.66076 94.3297 7.00077 91.3197 5.04077 87.2397C3.07077 83.1497 2.09082 78.1397 2.09082 72.2097C2.09082 66.2797 3.07077 60.1397 5.04077 53.7897C7.00077 47.4397 9.66076 41.3597 13.0308 35.5597C16.3908 29.7597 20.3507 24.4197 24.8907 19.5397C29.4407 14.6597 34.3008 10.7297 39.4708 7.74971C44.6408 4.75971 49.5008 3.07971 54.0408 2.70971C58.5908 2.32971 62.5508 3.1097 65.9108 5.0197L84.4408 14.2897Z"
          class="pr-icon-iso-duotone-primary-stroke" stroke-linejoin="round"/>
</svg>