<svg width="24" height="24" viewBox="0 0 90 117" class="pr-icon-iso-duotone-secondary" xmlns="http://www.w3.org/2000/svg" stroke-width="1px" stroke-linecap="round" stroke-linejoin="round">
    <path d="M87.2695 37.07L59.7695 88.59L46.8293 81.21L46.4194 81.92L27.4194 114.69L22.5693 111.92L41.4094 79.41L46.8293 70.07L59.7695 77.45L82.7395 34.49L87.2695 37.07Z" class="pr-icon-iso-duotone-primary-stroke" stroke-linejoin="round"/>
    <path d="M82.7397 34.49L59.7698 77.45L46.8296 70.07L44.8496 69.08L49.1597 61L59.7698 66.31L78.0198 32.13L82.7397 34.49Z" class="pr-icon-iso-duotone-primary-stroke" stroke-linejoin="round"/>
    <path d="M87.2695 14.8L78.0195 32.13L59.7695 66.31L49.4595 60.44L46.8293 58.94L46.4294 59.64L41.8293 67.57L36.5095 76.73L27.4194 92.42L22.5693 89.65L31.6594 73.97L36.5195 65.59L36.8193 65.07L41.4194 57.13L46.8293 47.8L49.4695 49.31L54.0195 51.9L59.7695 55.18L73.3394 29.79L82.7395 12.22L87.2695 14.8Z" class="pr-icon-iso-duotone-primary-stroke" stroke-linejoin="round"/>
    <path d="M27.4194 114.69L7.41943 104.69L2.56934 101.92L7.57935 104.42L22.5693 111.92L27.4194 114.69Z" class="pr-icon-iso-duotone-primary-stroke" stroke-linejoin="round"/>
    <path d="M46.8293 47.8L41.4194 57.13L36.8193 65.07L36.5195 65.59L31.6594 73.97L22.5693 89.65L17.5793 87.16L12.5793 84.65L7.57935 82.15L2.56934 79.65L26.8293 37.8L40.1494 44.46L44.8394 46.81L46.8293 47.8Z" class="pr-icon-iso-duotone-primary-stroke" stroke-linejoin="round"/>
    <path d="M82.7395 12.22L73.3394 29.79L59.7695 55.18L54.0195 51.9L49.4695 49.31L46.8293 47.8L44.8394 46.81L40.1494 44.46L62.7395 2.21997L82.7395 12.22Z" class="pr-icon-iso-duotone-primary-stroke" stroke-linejoin="round"/>
    <path d="M27.4194 92.42L17.4294 87.42L12.4194 84.92L7.41943 82.42L2.56934 79.65L7.57935 82.15L12.5793 84.65L17.5793 87.16L22.5693 89.65L27.4194 92.42Z" class="pr-icon-iso-duotone-primary-stroke" stroke-linejoin="round"/>
    <path d="M59.7698 66.31L49.1597 61L46.4297 59.64L46.8296 58.94L49.4597 60.44L59.7698 66.31Z" class="pr-icon-iso-duotone-primary-stroke" stroke-linejoin="round"/>
    <path d="M46.8293 70.07L41.4094 79.41L22.5693 111.92L7.57935 104.42L2.56934 101.92L12.4194 84.92L17.4294 87.42L27.4194 92.42L36.5095 76.73L41.8293 67.57L44.8494 69.08L46.8293 70.07Z" class="pr-icon-iso-duotone-primary-stroke" stroke-linejoin="round"/>
    <path d="M59.77 88.59L46.4199 81.92" class="pr-icon-iso-duotone-primary-stroke" stroke-linejoin="round"/>
</svg>