<svg width="48" height="48" viewBox="0 0 135 113" class="pr-icon-iso-duotone-secondary"
     xmlns="http://www.w3.org/2000/svg" stroke-width="1px" stroke-linecap="round" stroke-linejoin="round">
    <path d="M132.19 25.86L107.87 67.8L99.21 63.03L108.94 46.26L88.8601 57.85L88.45 58.09L82.96 61.26C81.54 70.1 78.07 78.76 72.55 87.23C67.03 95.71 60.5699 102.08 53.1699 106.35C44.7699 111.21 37.5999 111.94 31.6699 108.57C28.3799 106.69 26 103.84 24.54 100.01C23.37 96.97 22.79 93.3 22.79 89.03C22.79 79.38 25.7499 69.44 31.6699 59.22C37.5999 49 44.7699 41.46 53.1699 36.61C56.1799 34.87 59.04 33.66 61.74 32.98C64.97 32.17 67.98 32.11 70.76 32.81C71.37 32.95 71.97 33.14 72.55 33.36C76.22 34.76 78.9901 37.28 80.8401 40.94C81.7101 42.64 82.3801 44.58 82.8401 46.77C82.8901 46.95 82.92 47.13 82.96 47.31L99.49 37.77L108.94 32.31L104.25 29.55L99.3699 26.68L107.26 13.05L107.87 12L132.19 25.86Z" class="pr-icon-iso-duotone-primary-stroke" stroke-linejoin="round"/>
    <path d="M13.1499 99.3101C12.6499 99.0901 12.1499 98.8501 11.6699 98.5701L13.1499 99.3101Z" class="pr-icon-iso-duotone-primary-stroke" stroke-linejoin="round"/>
    <path d="M72.5498 33.3601C71.9698 33.1401 71.3698 32.9501 70.7598 32.8101L71.0798 32.6201L72.5498 33.3601Z" class="pr-icon-iso-duotone-primary-stroke" stroke-linejoin="round"/>
    <path d="M107.87 12L107.26 13.05L99.3701 26.68L79.3701 16.68L87.8701 2L107.87 12Z" class="pr-icon-iso-duotone-primary-stroke" stroke-linejoin="round"/>
    <path d="M108.94 32.3099L88.9402 22.3099L79.3701 16.6799L99.3701 26.6799L104.25 29.5499L108.94 32.3099Z" class="pr-icon-iso-duotone-primary-stroke" stroke-linejoin="round"/>
    <path d="M108.94 32.3101L99.49 37.7701L82.96 47.3101C82.92 47.1301 82.8901 46.9501 82.8401 46.7701C82.3801 44.5801 81.7101 42.6401 80.8401 40.9401C78.9901 37.2801 76.22 34.7601 72.55 33.3601L71.0801 32.6201L88.9399 22.3101L108.94 32.3101Z" class="pr-icon-iso-duotone-primary-stroke" stroke-linejoin="round"/>
    <path d="M108.94 46.26L99.2102 63.03L88.8604 57.85L108.94 46.26Z" class="pr-icon-iso-duotone-primary-stroke" stroke-linejoin="round"/>
    <path d="M107.87 67.8001L88.4502 58.0901" class="pr-icon-iso-duotone-primary-stroke" stroke-linejoin="round"/>
    <path d="M71.0801 32.62L70.76 32.81C67.98 32.11 64.97 32.17 61.74 32.98C59.04 33.66 56.1799 34.87 53.1699 36.61C44.7699 41.46 37.5999 49 31.6699 59.22C25.7499 69.44 22.79 79.38 22.79 89.03C22.79 93.3 23.37 96.97 24.54 100.01C26 103.84 28.3799 106.69 31.6699 108.57L11.6699 98.57C5.74992 95.19 2.79004 88.67 2.79004 79.03C2.79004 69.39 5.74992 59.44 11.6699 49.22C17.5999 39 24.7699 31.46 33.1699 26.61C40.5699 22.34 47.03 21.26 52.55 23.36C53.13 23.58 53.69 23.83 54.23 24.12L54.52 24.2701L71.0801 32.62Z" class="pr-icon-iso-duotone-primary-stroke" stroke-linejoin="round"/>
</svg>