<svg width="48" height="48" viewBox="0 0 105 90" class="pr-icon-iso-duotone-secondary"
     xmlns="http://www.w3.org/2000/svg" stroke-width="1px" stroke-linecap="round" stroke-linejoin="round">
    <path d="M102.59 26.3698C102.23 27.6298 101.85 28.8598 101.45 30.0698C101.05 31.2798 100.61 32.4698 100.12 33.6598L88.1504 27.4698L82.7104 36.3798L81.5604 38.2498L78.6404 43.0298C78.7004 42.4998 78.7504 41.9998 78.7804 41.5298C78.8104 41.0598 78.8304 40.5798 78.8304 40.0898C78.8304 37.7698 78.5204 35.7898 77.8904 34.1398C77.8704 34.0698 77.8404 33.9998 77.8104 33.9298C77.0204 31.9498 75.7604 30.4698 74.0304 29.4798C70.8304 27.6598 66.9404 28.0698 62.3704 30.7098C61.3904 31.2798 60.4404 31.9098 59.5304 32.6098C59.3004 32.7798 59.0704 32.9498 58.8504 33.1398C55.7704 35.6298 53.0604 38.8998 50.7204 42.9398C48.1704 47.3298 46.6404 51.6298 46.1304 55.8498C46.0704 56.2298 46.0404 56.5998 46.0104 56.9698C45.9504 57.6798 45.9204 58.3898 45.9204 59.0898C45.9204 60.1298 45.9804 61.0998 46.1104 62.0098C46.6204 65.6698 48.1604 68.2298 50.7204 69.6898C52.9204 70.9398 55.4404 71.1398 58.2904 70.2798H58.3104C59.6004 69.8998 60.9504 69.2898 62.3704 68.4698C63.2904 67.9398 64.1704 67.3598 65.0204 66.7298C65.8804 66.0998 66.7304 65.3598 67.5804 64.5198C67.0804 66.2598 66.6904 67.9798 66.4204 69.6698C66.2904 70.4198 66.1904 71.1698 66.1204 71.9198C66.0404 72.6598 66.0004 73.3998 65.9904 74.1198C65.9504 75.7098 66.0504 77.2298 66.3004 78.6798C65.6304 79.1398 64.9804 79.5498 64.3404 79.9198L62.3704 81.0498C53.4704 86.1898 45.3704 88.0198 38.0604 86.5398C36.1204 86.1498 34.3304 85.5398 32.6804 84.7198C29.3204 83.0498 26.5404 80.4798 24.3504 77.0098C23.5304 75.7298 22.8004 74.3298 22.1504 72.8098C23.6904 67.4698 25.6504 62.2898 28.0604 57.2898C29.5104 54.2598 31.1204 51.2898 32.9004 48.3898C34.4804 45.7798 36.2104 43.2198 38.0604 40.7098C41.7104 35.7698 45.5404 31.4198 49.5804 27.6598C49.5904 27.6498 49.5904 27.6398 49.6004 27.6398C51.8904 25.5098 54.2404 23.5798 56.6504 21.8298C58.5204 20.4798 60.4204 19.2398 62.3704 18.1198C68.7904 14.4098 74.7904 12.4298 80.3804 12.1598C82.5504 12.0598 84.6504 12.2198 86.6904 12.6298C88.4204 12.9798 90.0304 13.4998 91.5404 14.1998C96.4004 16.4498 100.08 20.5098 102.59 26.3698Z" class="pr-icon-iso-duotone-primary-stroke" stroke-linejoin="round"/>
    <path d="M102.59 53.42C102.59 58.17 101.16 63.02 98.3 67.96C95.43 72.9 91.99 76.53 87.97 78.85C83.88 81.21 80.43 81.57 77.59 79.91C74.76 78.26 73.31 75.11 73.25 70.46C73.25 68.25 73.65 65.91 74.43 63.43C74.46 63.33 74.5 63.22 74.53 63.12C75.38 60.53 76.54 58 78 55.55L81.94 49.01L87.97 39L97.84 44.1C99.3 44.86 100.44 46.04 101.27 47.63C102.09 49.22 102.53 51.15 102.59 53.42Z" class="pr-icon-iso-duotone-primary-stroke" stroke-linejoin="round"/>
    <path d="M68.9207 37.2996C68.1307 36.9296 67.2707 36.7896 66.3407 36.8696C65.1407 36.9596 63.8308 37.4196 62.4108 38.2296C62.4008 38.2296 62.3807 38.2396 62.3707 38.2496C59.6307 39.8296 57.3008 42.2796 55.3808 45.5896C53.4608 48.8996 52.5007 52.1296 52.5007 55.2796C52.5007 55.8996 52.5407 56.4796 52.6107 57.0196C52.7407 57.9096 52.9607 58.6896 53.2907 59.3596C53.7607 60.3596 54.4608 61.1096 55.3808 61.6396L53.2507 60.5796L46.8507 57.3696L46.0107 56.9596C46.0407 56.5896 46.0708 56.2196 46.1308 55.8396C46.6408 51.6196 48.1707 47.3196 50.7207 42.9296C53.0607 38.8896 55.7707 35.6196 58.8507 33.1296C59.0707 32.9396 59.3007 32.7696 59.5307 32.5996L64.3507 35.0096L68.9207 37.2996Z" class="pr-icon-iso-duotone-primary-stroke" stroke-linejoin="round"/>
    <path d="M67.5799 64.5099C66.7299 65.3499 65.8799 66.0899 65.0199 66.7199C64.1699 67.3499 63.2899 67.93 62.3699 68.46C60.9499 69.28 59.5999 69.89 58.3099 70.27H58.2899C55.4399 71.13 52.9199 70.93 50.7199 69.68C48.1599 68.22 46.6199 65.6599 46.1099 61.9999C45.9799 61.0899 45.9199 60.12 45.9199 59.08C45.9199 58.38 45.9499 57.67 46.0099 56.96L46.8499 57.37L53.2499 60.58L55.3799 61.64C57.0699 62.6 59.0799 62.53 61.3999 61.42L67.5799 64.5099Z" class="pr-icon-iso-duotone-primary-stroke" stroke-linejoin="round"/>
    <path d="M78.8303 40.0795C78.8303 40.5695 78.8103 41.0495 78.7803 41.5195C78.7503 41.9895 78.7003 42.4895 78.6403 43.0195L71.1903 39.2995C70.7203 38.5395 70.1203 37.9495 69.3703 37.5195L68.9203 37.2995L64.3503 35.0095L59.5303 32.5995C60.4403 31.8995 61.3903 31.2695 62.3703 30.6995C66.9403 28.0595 70.8303 27.6495 74.0303 29.4695C75.7603 30.4595 77.0203 31.9395 77.8103 33.9195C77.8403 33.9895 77.8703 34.0595 77.8903 34.1295C78.5203 35.7795 78.8303 37.7595 78.8303 40.0795Z" class="pr-icon-iso-duotone-primary-stroke" stroke-linejoin="round"/>
    <path d="M91.5404 14.2001C90.0304 13.5001 88.4204 12.9801 86.6904 12.6301C84.6504 12.2201 82.5504 12.0601 80.3804 12.1601C74.7904 12.4301 68.7904 14.4101 62.3704 18.1201C60.4204 19.2401 58.5204 20.4801 56.6504 21.8301C54.2404 23.5801 51.8904 25.5101 49.6004 27.6401C49.5904 27.6401 49.5904 27.6501 49.5804 27.6601C45.5404 31.4201 41.7104 35.7701 38.0604 40.7101C36.2104 43.2201 34.4804 45.7801 32.9004 48.3901C31.1204 51.2901 29.5104 54.2601 28.0604 57.2901C25.6504 62.2901 23.6904 67.4701 22.1504 72.8101L2.15039 62.8101C5.44039 51.3301 10.7404 40.6301 18.0604 30.7101C25.3704 20.7901 33.4704 13.2601 42.3704 8.12009C51.2704 2.98009 59.3704 1.1501 66.6904 2.6301C68.5804 3.0101 70.3404 3.60009 71.9604 4.40009L91.5404 14.2001Z" class="pr-icon-iso-duotone-primary-stroke" stroke-linejoin="round"/>
    <path d="M87.9704 39.0001L81.9404 49.0101L78.0004 55.5501C76.5404 58.0001 75.3804 60.5301 74.5304 63.1201C74.5004 63.2201 74.4604 63.3301 74.4304 63.4301C73.6504 65.9101 73.2504 68.2501 73.2504 70.4601C73.3104 75.1101 74.7604 78.2601 77.5904 79.9101L65.9904 74.1101C66.0004 73.3901 66.0404 72.6501 66.1204 71.9101C66.1904 71.1601 66.2904 70.4101 66.4204 69.6601C66.6904 67.9701 67.0804 66.2501 67.5804 64.5101L61.4004 61.4201C61.7204 61.2701 62.0404 61.1001 62.3704 60.9101C65.1104 59.3201 67.4504 56.8801 69.3704 53.5601C71.2804 50.2501 72.2404 47.0201 72.2404 43.8801C72.2404 41.9801 71.8904 40.4501 71.1904 39.3001L78.6404 43.0201L81.5604 38.2401L82.7104 36.3701L87.9704 39.0001Z" class="pr-icon-iso-duotone-primary-stroke" stroke-linejoin="round"/>
    <path d="M72.24 43.8804C72.24 47.0204 71.28 50.2504 69.37 53.5604C67.45 56.8804 65.11 59.3204 62.37 60.9104C62.04 61.1004 61.72 61.2704 61.4 61.4204C59.08 62.5304 57.07 62.6004 55.38 61.6404C54.46 61.1104 53.76 60.3604 53.29 59.3604C52.96 58.6904 52.74 57.9104 52.61 57.0304C52.54 56.4804 52.5 55.9004 52.5 55.2804C52.5 52.1304 53.46 48.9004 55.38 45.5904C57.3 42.2804 59.63 39.8304 62.37 38.2504C62.38 38.2404 62.4 38.2304 62.41 38.2304C63.83 37.4204 65.14 36.9604 66.34 36.8704C67.27 36.7904 68.13 36.9304 68.92 37.3004L69.37 37.5204C70.12 37.9504 70.72 38.5404 71.19 39.2904C71.89 40.4504 72.24 41.9804 72.24 43.8804Z" class="pr-icon-iso-duotone-primary-stroke" stroke-linejoin="round"/>
    <path d="M32.6804 84.7205L13.0304 74.8805C12.9104 74.8405 12.8004 74.7805 12.6804 74.7105C8.08039 72.4305 4.57039 68.4605 2.15039 62.8105L22.1504 72.8105C22.8004 74.3305 23.5304 75.7305 24.3504 77.0105C26.5404 80.4805 29.3204 83.0505 32.6804 84.7205Z" class="pr-icon-iso-duotone-primary-stroke" stroke-linejoin="round"/>
    <path d="M12.68 74.6999L12.04 74.3799" class="pr-icon-iso-duotone-primary-stroke" stroke-linejoin="round"/>
</svg>