<svg width="48" height="48" viewBox="0 0 122 108" class="pr-icon-iso-duotone-secondary"
     xmlns="http://www.w3.org/2000/svg" stroke-width="1px" stroke-linecap="round" stroke-linejoin="round">
    <path d="M110.765 13.4803C107.265 11.9203 103.285 11.9303 98.825 13.5003C97.065 14.1103 95.225 14.9703 93.315 16.0703L49.285 41.4903C46.315 43.2103 43.525 45.3003 40.915 47.7803C37.075 51.4103 33.635 55.8703 30.575 61.1403C27.095 67.1403 24.795 73.0403 23.685 78.8303C23.145 81.6003 22.875 84.3403 22.875 87.0603C22.875 89.9203 23.175 92.4603 23.775 94.6903C24.915 99.0103 27.185 102.15 30.575 104.08L10.575 94.0803C5.435 91.1503 2.875 85.4703 2.875 77.0603C2.875 68.6503 5.435 60.0003 10.575 51.1403C15.715 42.2803 21.945 35.7303 29.285 31.4903L73.315 6.07029C80.645 1.84029 86.885 1.18029 92.025 4.11029L110.765 13.4803Z" class="pr-icon-iso-duotone-primary-stroke" stroke-linejoin="round"/>
    <path d="M112.025 14.1103L110.765 13.4803C107.265 11.9203 103.285 11.9303 98.825 13.5003C97.065 14.1103 95.225 14.9703 93.315 16.0703L49.285 41.4903C46.315 43.2103 43.525 45.3003 40.915 47.7803C37.075 51.4103 33.635 55.8703 30.575 61.1403C27.095 67.1403 24.795 73.0403 23.685 78.8303C23.145 81.6003 22.875 84.3403 22.875 87.0603C22.875 89.9203 23.175 92.4603 23.775 94.6903C24.915 99.0103 27.185 102.15 30.575 104.08C35.715 107.01 41.945 106.35 49.285 102.12L93.315 76.7003C100.645 72.4603 106.885 65.9103 112.025 57.0503C117.155 48.1903 119.725 39.5603 119.725 31.1403C119.725 22.7203 117.155 17.0403 112.025 14.1103ZM60.105 74.3303C59.675 75.2603 59.185 76.2003 58.645 77.1403C56.075 81.5703 52.955 84.8403 49.285 86.9603C45.615 89.0803 42.495 89.4103 39.935 87.9403C39.385 87.6303 38.895 87.2603 38.475 86.8203C36.875 85.2103 36.075 82.7503 36.075 79.4303C36.075 75.2203 37.365 70.9003 39.935 66.4703C42.495 62.0403 45.615 58.7703 49.285 56.6503C52.955 54.5303 56.075 54.2003 58.645 55.6703C61.215 57.1303 62.495 59.9703 62.495 64.1803C62.495 67.4903 61.705 70.8803 60.105 74.3303Z" class="pr-icon-iso-duotone-primary-stroke" stroke-linejoin="round"/>
    <path d="M62.4949 64.1803C62.4949 67.4903 61.7049 70.8803 60.1049 74.3303C59.6749 75.2603 59.1849 76.2003 58.6449 77.1403C56.0749 81.5703 52.955 84.8403 49.285 86.9603C45.615 89.0803 42.495 89.4103 39.935 87.9403C39.385 87.6303 38.8949 87.2603 38.4749 86.8203C36.8749 85.2103 36.075 82.7503 36.075 79.4303C36.075 75.2203 37.365 70.9003 39.935 66.4703C42.495 62.0403 45.615 58.7703 49.285 56.6503C52.955 54.5303 56.0749 54.2003 58.6449 55.6703C61.2149 57.1303 62.4949 59.9703 62.4949 64.1803Z" class="pr-icon-iso-duotone-primary-stroke" stroke-linejoin="round"/>
</svg>