<svg width="24" height="24" viewBox="0 0 96 105" class="pr-icon-iso-duotone-secondary" xmlns="http://www.w3.org/2000/svg" stroke-width="1px" stroke-linecap="round" stroke-linejoin="round">
    <path d="M56.5003 23.4902L55.4403 24.1002L49.0503 27.7902L47.5303 28.6702L44.9003 30.1902V23.7902L45.3403 23.5402L49.5003 21.1302L50.4703 20.5702V12.0303L45.9003 14.6702L39.7703 18.2102L31.8803 22.7703V31.3002L36.0503 28.8903L37.4603 28.0802V34.4802L36.0503 35.2902L34.7503 36.0402L28.6103 39.5902L25.4603 41.4103L22.5903 43.0702V51.6002L26.3003 49.4502V89.9802L37.4603 83.5402V100.61L44.9003 102.72V79.2502L56.0503 72.8102V32.2803L59.7703 30.1302V21.6002L56.5003 23.4902ZM48.6103 42.9702L43.4903 45.9302L39.3203 48.3402V54.7402L42.6703 52.8002L43.4903 52.3302L48.6103 49.3702V55.7703L43.4903 58.7302L39.3203 61.1403V67.5402L42.6703 65.6002L43.4903 65.1302L48.6103 62.1702V68.5702L43.4903 71.5303L33.7403 77.1603V45.1603L36.0503 43.8302L42.6703 40.0002L44.0103 39.2202L48.6103 36.5702V42.9702Z" class="pr-icon-iso-duotone-primary-stroke" stroke-linejoin="round"/>
    <path d="M39.3203 61.1403V67.5402L33.7403 64.7502V58.3502L36.0503 59.5103L39.3203 61.1403Z" class="pr-icon-iso-duotone-primary-stroke" stroke-linejoin="round"/>
    <path d="M92.4403 32.0702C91.9103 31.0202 91.3103 30.2002 90.6303 29.6002C89.8803 29.0302 89.2003 28.5702 88.5803 28.2202C87.9603 27.8602 87.6503 27.4002 87.6503 26.8302V24.7002L91.3703 22.5502V14.0203L73.1303 24.5502L65.4303 29.0002L65.3403 29.0502V37.5802L69.0603 35.4302V37.5702C69.0603 38.1402 68.7803 38.8802 68.2303 39.8102C67.6703 40.7402 67.0503 41.8903 66.3703 43.2803C65.6903 44.6703 65.0303 46.2202 64.4203 47.9302C63.8203 49.5802 63.5103 51.3902 63.4903 53.3702V89.8502L93.2303 72.6802V36.4103C93.2303 34.5603 92.9703 33.1202 92.4403 32.0702ZM85.7903 68.4402L70.9203 77.0203V70.6202L79.8503 65.4702L85.7903 62.0402V68.4402ZM85.7903 42.8402L73.2303 50.1002L70.9203 51.4302V49.2902C70.9203 48.2302 71.2203 47.1102 71.8003 45.9602C72.2503 45.0802 72.7303 44.1502 73.2303 43.1802C73.3903 42.8702 73.5503 42.5602 73.7103 42.2402C74.3903 40.9202 75.0303 39.5302 75.6203 38.0502C75.6503 37.9702 75.6803 37.8802 75.7103 37.8002C76.2303 36.3902 76.5003 34.8803 76.5003 33.2703V31.1403L80.2203 28.9902V31.1302C80.2203 32.9002 80.5303 34.1802 81.1503 34.9602C81.7703 35.7402 82.4203 36.4002 83.1003 36.9302C83.7803 37.4602 84.4003 37.9602 84.9603 38.4202C85.5203 38.8802 85.7903 39.6402 85.7903 40.7102V42.8402Z" class="pr-icon-iso-duotone-primary-stroke" stroke-linejoin="round"/>
    <path d="M85.7903 68.4402L70.9203 77.0203V70.6202L79.8503 65.4702L85.7903 68.4402Z" class="pr-icon-iso-duotone-primary-stroke" stroke-linejoin="round"/>
    <path d="M85.7903 62.0402V68.4402L79.8503 65.4702L85.7903 62.0402Z" class="pr-icon-iso-duotone-primary-stroke" stroke-linejoin="round"/>
    <path d="M85.7903 40.7102V42.8402L75.7103 37.8002C76.2303 36.3902 76.5003 34.8803 76.5003 33.2703V31.1403L80.2203 28.9902V31.1302C80.2203 32.9002 80.5303 34.1802 81.1503 34.9602C81.7703 35.7402 82.4203 36.4002 83.1003 36.9302C83.7803 37.4602 84.4003 37.9602 84.9603 38.4202C85.5203 38.8802 85.7903 39.6402 85.7903 40.7102Z" class="pr-icon-iso-duotone-primary-stroke" stroke-linejoin="round"/>
    <path d="M85.7903 42.8402L73.2303 50.1002L70.9203 51.4302V49.2902C70.9203 48.2302 71.2204 47.1102 71.8004 45.9602C72.2504 45.0802 72.7303 44.1502 73.2303 43.1802C73.3903 42.8702 73.5503 42.5602 73.7103 42.2402C74.3903 40.9202 75.0303 39.5302 75.6203 38.0502C75.6503 37.9702 75.6803 37.8802 75.7103 37.8002L85.7903 42.8402Z" class="pr-icon-iso-duotone-primary-stroke" stroke-linejoin="round"/>
    <path d="M39.3203 48.3402V54.7402L36.0503 53.1102L33.7403 51.9502V45.5502L36.0503 46.7102L39.3203 48.3402Z" class="pr-icon-iso-duotone-primary-stroke" stroke-linejoin="round"/>
    <path d="M48.6104 36.5702V42.9702L43.7504 40.5402L42.6703 40.0002L44.0103 39.2202L48.6104 36.5702Z" class="pr-icon-iso-duotone-primary-stroke" stroke-linejoin="round"/>
    <path d="M48.6103 42.9702L43.4903 45.9302L39.3203 48.3402L36.0503 46.7102L33.7403 45.5502V45.1603L36.0503 43.8302L42.6703 40.0002L43.7503 40.5402L48.6103 42.9702Z" class="pr-icon-iso-duotone-primary-stroke" stroke-linejoin="round"/>
    <path d="M48.6104 49.3702V55.7703L43.4903 53.2102L42.6703 52.8002L43.4903 52.3302L48.6104 49.3702Z" class="pr-icon-iso-duotone-primary-stroke" stroke-linejoin="round"/>
    <path d="M48.6103 55.7703L43.4903 58.7302L39.3203 61.1403L36.0503 59.5103L33.7403 58.3502V51.9502L36.0503 53.1102L39.3203 54.7402L42.6703 52.8002L43.4903 53.2102L48.6103 55.7703Z" class="pr-icon-iso-duotone-primary-stroke" stroke-linejoin="round"/>
    <path d="M48.6104 62.1702V68.5702L43.4903 66.0103L42.6703 65.6002L43.4903 65.1302L48.6104 62.1702Z" class="pr-icon-iso-duotone-primary-stroke" stroke-linejoin="round"/>
    <path d="M48.6103 68.5702L43.4903 71.5303L33.7403 77.1603V64.7502L39.3203 67.5402L42.6703 65.6002L43.4903 66.0103L48.6103 68.5702Z" class="pr-icon-iso-duotone-primary-stroke" stroke-linejoin="round"/>
    <path d="M26.3004 49.4502V89.9802L24.9003 89.2803L17.4603 85.5602L6.30035 79.9802V43.4602L13.7403 47.1802L20.4104 50.5103L22.5903 51.6002L26.3004 49.4502Z" class="pr-icon-iso-duotone-primary-stroke" stroke-linejoin="round"/>
    <path d="M22.5903 43.0702V51.6002L20.4103 50.5103L13.7403 47.1802L6.30034 43.4602L2.59033 41.6002V33.0702L13.7403 38.6503L19.3203 41.4402L22.3903 42.9702L22.5903 43.0702Z" class="pr-icon-iso-duotone-primary-stroke" stroke-linejoin="round"/>
    <path d="M65.3403 29.0502V37.5802L61.1803 35.5002L56.0504 32.9402V32.2803L59.7704 30.1302V26.2703L65.3403 29.0502Z" class="pr-icon-iso-duotone-primary-stroke" stroke-linejoin="round"/>
    <path d="M31.8803 22.7703V31.3002L28.6103 29.6702L25.7403 28.2302L11.8803 21.3002V12.7703L24.9003 19.2803L25.7403 19.7002L31.8803 22.7703Z" class="pr-icon-iso-duotone-primary-stroke" stroke-linejoin="round"/>
    <path d="M37.4603 83.5402V100.61L17.4603 90.6102V85.5602L24.9003 89.2803L26.3003 89.9802L37.4603 83.5402Z" class="pr-icon-iso-duotone-primary-stroke" stroke-linejoin="round"/>
    <path d="M37.4603 28.0802V34.4802L36.0503 33.7803L28.6103 30.0602L25.3803 28.4402L17.4603 24.4802V24.0902L25.7403 28.2302L28.6103 29.6702L31.8803 31.3002L36.0503 28.8903L37.4603 28.0802Z" class="pr-icon-iso-duotone-primary-stroke" stroke-linejoin="round"/>
    <path d="M50.4703 12.0303L45.9003 14.6702L39.7703 18.2102L31.8803 22.7703L25.7403 19.7002L24.9003 19.2803L11.8803 12.7703L30.4703 2.03027L50.4703 12.0303Z" class="pr-icon-iso-duotone-primary-stroke" stroke-linejoin="round"/>
    <path d="M91.3703 14.0203L73.1303 24.5502L65.4303 29.0002L65.3403 29.0502L59.7703 26.2703V21.6002L50.4703 16.9502V16.0902L71.3703 4.02026L91.3703 14.0203Z" class="pr-icon-iso-duotone-primary-stroke" stroke-linejoin="round"/>
    <path d="M37.4603 34.4802L36.0503 35.2902L34.7503 36.0402L28.6103 39.5902L25.4603 41.4103L22.5903 43.0702L22.3903 42.9702L19.3203 41.4402L13.7403 38.6503L2.59033 33.0702L17.4603 24.4802L25.3803 28.4402L28.6103 30.0602L36.0503 33.7803L37.4603 34.4802Z" class="pr-icon-iso-duotone-primary-stroke" stroke-linejoin="round"/>
    <path d="M59.7703 21.6002L56.5003 23.4902L55.4403 24.1002L49.0503 27.7902L47.5303 28.6702L44.9003 30.1902V23.7902L45.3403 23.5402L49.5003 21.1302L50.4703 20.5702V16.9502L59.7703 21.6002Z" class="pr-icon-iso-duotone-primary-stroke" stroke-linejoin="round"/>
    <path d="M69.0603 35.4302V37.5702C69.0603 38.1402 68.7803 38.8802 68.2303 39.8102C67.6703 40.7402 67.0503 41.8903 66.3703 43.2803C65.6903 44.6703 65.0303 46.2202 64.4203 47.9302C63.8203 49.5802 63.5103 51.3902 63.4903 53.3702V89.8502L44.9003 80.5602V79.2502L56.0503 72.8102V32.9402L61.1803 35.5002L65.3403 37.5802L69.0603 35.4302Z" class="pr-icon-iso-duotone-primary-stroke" stroke-linejoin="round"/>
</svg>