<svg width="48" height="48" viewBox="0 0 96 100" fill="#c8e7ff" xmlns="http://www.w3.org/2000/svg" stroke-width="1px" stroke-linecap="round" stroke-linejoin="round"><path d="M78.8707 44.1321V44.9421L73.1108 48.2722L73.0208 48.322L72.6407 48.542L67.8008 51.332L64.2607 53.3721L55.3408 58.5222L51.8008 60.572L49.5508 61.8721L47.0508 63.312V95.572C41.1108 98.212 36.0408 98.5821 31.8308 96.6721L30.6808 96.092C30.2008 95.812 29.7308 95.5121 29.2808 95.1721C26.6808 93.2321 24.8008 90.4621 23.6608 86.8621C22.7508 84.0221 22.3008 80.662 22.3008 76.792C22.3008 71.232 23.8808 64.3621 27.0508 56.1821C27.5208 54.9621 28.0308 53.7121 28.5708 52.4321C28.8208 51.8521 29.0708 51.2621 29.3308 50.6721C33.8608 40.3521 40.6608 28.1221 49.7208 13.9521C50.0008 13.5021 50.3008 13.042 50.5908 12.582C52.3108 13.272 53.9507 13.9822 55.5107 14.7122C62.5707 18.0322 68.0108 21.8321 71.8508 26.1221C74.9108 29.5521 76.9708 33.3121 78.0208 37.3921C78.5408 39.3621 78.8208 41.4022 78.8608 43.5222C78.8708 43.7222 78.8707 43.9321 78.8707 44.1321Z" stroke="#229EFF" stroke-linejoin="round"/><path d="M80.6407 52.0325L80.1708 52.3022L75.3408 55.1023L73.0208 53.9424L67.8008 51.3323L72.6407 48.5422L73.0208 48.3223L73.1108 48.2725L80.6407 52.0325Z" stroke="#229EFF" stroke-linejoin="round"/><path d="M67.7112 59.5027L60.6411 63.5825L57.0812 65.6326L55.3412 66.6426L54.1211 67.3425V91.6926L59.4312 88.6326V80.5127L67.8112 75.6726L71.8011 73.3726V57.1426L67.7112 59.5027ZM66.5011 70.3425L62.1611 72.8525L59.4312 74.4326V70.3726L62.7412 68.4626L66.5011 66.2925V70.3425Z" stroke="#229EFF" stroke-linejoin="round"/><path d="M66.5011 66.292V70.342L62.7412 68.4622L66.5011 66.292Z" stroke="#229EFF" stroke-linejoin="round"/><path d="M66.5006 70.3418L62.1606 72.8518L59.4307 74.4319V70.3718L62.7407 68.4619L66.5006 70.3418Z" stroke="#229EFF" stroke-linejoin="round"/><path d="M71.8008 57.1421L67.7108 59.5022L60.6407 63.582L57.0808 65.6321L55.3408 66.6421L54.1207 67.342L49.1908 64.8821L47.0508 63.812V63.312L49.5508 61.8721L51.8008 60.572L55.3408 58.5222L64.2607 53.3721L64.9808 53.7322L67.7108 55.1021L71.8008 57.1421Z" stroke="#229EFF" stroke-linejoin="round"/><path d="M55.5107 14.7122C53.9507 13.9822 52.3108 13.272 50.5908 12.582L42.8907 8.73218L30.5908 2.58203C33.5008 3.75203 36.1908 4.98223 38.6508 6.28223L38.7808 6.35205L55.5107 14.7122Z" stroke="#229EFF" stroke-linejoin="round"/><path d="M27.0508 56.1821C23.8808 64.3621 22.3008 71.232 22.3008 76.792C22.3008 80.662 22.7508 84.0221 23.6608 86.8621C24.8008 90.4621 26.6808 93.2321 29.2808 95.1721C29.7308 95.5121 30.2008 95.812 30.6808 96.092L11.7507 86.6421L11.1608 86.3521C10.5108 86.0121 9.89076 85.6221 9.28076 85.1721C4.63076 81.7121 2.30078 75.582 2.30078 66.792C2.30078 60.032 4.64081 51.3221 9.33081 40.6721C14.0108 30.0221 21.1008 17.332 30.5908 2.58203L42.8907 8.73218L50.5908 12.582C50.3008 13.042 50.0008 13.5021 49.7208 13.9521C40.6608 28.1221 33.8608 40.3521 29.3308 50.6721C29.0708 51.2621 28.8208 51.8521 28.5708 52.4321C28.0308 53.7121 27.5208 54.9621 27.0508 56.1821Z" stroke="#229EFF" stroke-linejoin="round"/><path d="M11.1604 86.3525L10.9004 86.2227" stroke="#229EFF" stroke-linejoin="round"/><path d="M93.0205 44.8926L87.7106 47.9526L78.8606 43.5227C78.8206 41.4027 78.5405 39.3626 78.0205 37.3926L93.0205 44.8926Z" stroke="#229EFF" stroke-linejoin="round"/><path d="M93.0208 44.8926V69.2327L87.7108 72.2925V62.1526L80.6407 66.2327V76.3826L75.3408 79.4426V55.1025L80.1708 52.3025L80.6407 52.0327V60.1526L87.7108 56.0725V47.9526L93.0208 44.8926Z" stroke="#229EFF" stroke-linejoin="round"/><path d="M87.7113 47.9524V56.0723L80.6412 52.5422V52.0325L73.1113 48.2725L78.8712 44.9424V44.1323C78.8712 43.9323 78.8713 43.7225 78.8613 43.5225L87.7113 47.9524Z" stroke="#229EFF" stroke-linejoin="round"/><path d="M87.7107 56.072L80.6406 60.1521V52.542L87.7107 56.072Z" stroke="#229EFF" stroke-linejoin="round"/><path d="M75.3408 55.1021V79.4421L67.8108 75.6721L71.8008 73.3721V57.1421L67.7108 55.1021L64.9808 53.7322L64.2607 53.3721L67.8008 51.332L73.0208 53.9421L75.3408 55.1021Z" stroke="#229EFF" stroke-linejoin="round"/><path d="M87.7107 62.1523V72.2922L80.6406 68.7625V66.2324L87.7107 62.1523Z" stroke="#229EFF" stroke-linejoin="round"/><path d="M54.1207 67.3425V91.6926L47.0508 88.1626V63.8125L49.1908 64.8826L54.1207 67.3425Z" stroke="#229EFF" stroke-linejoin="round"/></svg>