<svg viewBox="0 0 107 83" class="pr-icon-iso-duotone-secondary" xmlns="http://www.w3.org/2000/svg" height="48"
     width="48" stroke-width="1px" stroke-linecap="round" stroke-linejoin="round">
    <path d="M104.56 21.7899L38.4598 59.9499L57.2598 70.6699L51.4398 80.5999L32.0598 69.5499L22.8398 64.2899L27.9998 55.3899L37.5398 38.9399L45.6998 24.8499L51.4398 14.9499L57.1598 18.2099L57.1398 18.2499L49.0098 32.3099L38.4598 50.5799L104.56 12.4199V21.7899Z" class="pr-icon-iso-duotone-primary-stroke" stroke-linejoin="round"/>
    <path d="M51.4398 14.95L45.6998 24.85L37.5398 38.9399L27.9998 55.39L22.8398 64.29L2.83984 54.29L31.4398 4.94995L51.4398 14.95Z" class="pr-icon-iso-duotone-primary-stroke" stroke-linejoin="round"/>
    <path d="M104.56 12.4199L38.46 50.5799L49.01 32.3099L57.14 18.2499L84.56 2.41992L104.56 12.4199Z" class="pr-icon-iso-duotone-primary-stroke" stroke-linejoin="round"/>
    <path d="M51.4398 80.5999L31.4398 70.5999L2.83984 54.2899L22.8398 64.2899L32.0598 69.5499L51.4398 80.5999Z" class="pr-icon-iso-duotone-primary-stroke" stroke-linejoin="round"/>
</svg>