<svg width="48" height="48" viewBox="0 0 112 117" fill="#c8e7ff" xmlns="http://www.w3.org/2000/svg" stroke-width="1px" stroke-linecap="round" stroke-linejoin="round"><path d="M89.0949 86.8304L81.5249 91.3104L71.2149 73.5304L60.3849 54.8504L51.2149 39.0304V114.65L40.3849 108.4V32.7804L29.4649 39.0004L10.0749 50.0604L2.49487 36.8304L45.7949 12.1504L46.4049 13.2004L54.0549 26.3904L60.3849 37.3104L71.2149 55.9904L89.0949 86.8304Z" stroke="#229EFF" stroke-linejoin="round"/><path d="M40.385 32.7804V34.1804L30.075 40.0604L10.075 50.0604L29.465 39.0004L40.385 32.7804Z" stroke="#229EFF" stroke-linejoin="round"/><path d="M109.095 76.8304L101.525 81.3104L81.5249 91.3104L89.0949 86.8304L109.095 76.8304Z" stroke="#229EFF" stroke-linejoin="round"/><path d="M109.095 76.8304L89.0949 86.8304L71.2149 55.9904L60.3849 37.3104L54.0549 26.3904L46.4049 13.2004L45.7949 12.1504L65.7949 2.15039L109.095 76.8304Z" stroke="#229EFF" stroke-linejoin="round"/><path d="M71.2148 73.5304V104.65L51.2148 114.65V39.0304L60.3848 54.8504L71.2148 73.5304Z" stroke="#229EFF" stroke-linejoin="round"/></svg>