<svg width="48" height="48" viewBox="0 0 98 103" fill="#c8e7ff" xmlns="http://www.w3.org/2000/svg" stroke-width="1px" stroke-linecap="round" stroke-linejoin="round"><path d="M29.5204 39.7665L28.7204 40.1666L15.4404 46.8066V38.4266C16.6604 38.6466 17.7404 38.5565 18.6904 38.1465L19.1904 37.8965L28.7204 33.1266L29.0804 32.9465C28.9404 33.6465 28.8704 34.4366 28.8704 35.2866C28.8704 36.7466 29.0804 38.2365 29.5204 39.7665Z" stroke="#229EFF" stroke-linejoin="round"/><path d="M75.9 62.4366C75.9 64.4066 75.51 65.9965 74.73 67.1965C74.52 67.5265 74.28 67.8265 74.01 68.0965C73.71 68.3965 73.4 68.6465 73.06 68.8565L72.99 68.8965C71.92 69.5365 70.65 69.7165 69.18 69.4465V85.5365L68.86 85.3465L50.09 74.5165L49.04 73.9165L42.31 70.0265V78.4065C44.27 80.3065 45.88 82.6165 47.14 85.3365C48.4 88.0565 49.03 90.6666 49.03 93.1766C49.03 96.3866 48.05 98.5465 46.09 99.6665C44.13 100.787 41.75 100.537 38.95 98.9165C36.15 97.3065 33.77 94.8066 31.81 91.4266C29.85 88.0466 28.87 84.7565 28.87 81.5365C28.87 80.6965 28.94 79.9165 29.1 79.2165C29.37 77.8365 29.92 76.7265 30.76 75.8865C31.18 75.4665 31.64 75.1365 32.14 74.8965C32.77 74.5865 33.47 74.4265 34.23 74.4065C34.66 74.4065 35.11 74.4365 35.59 74.5265V66.1465L23.22 59.0065L22.18 58.4065L15.44 54.5165V62.8965C17.4 64.7965 19.01 67.1065 20.27 69.8265C21.53 72.5465 22.16 75.1565 22.16 77.6665C22.16 80.8765 21.18 83.0365 19.22 84.1565C17.26 85.2765 14.88 85.0265 12.08 83.4065C9.28 81.7865 6.9 79.2965 4.94 75.9165C2.98 72.5365 2 69.2365 2 66.0265C2 63.5265 2.63 61.6366 3.89 60.3766C4.19 60.0666 4.52 59.8165 4.86 59.6065L5.58 59.2466C6.5 58.8766 7.55 58.7965 8.72 59.0165V34.5466C6.76 32.6466 5.15 30.3366 3.89 27.6166C2.63 24.8966 2 22.2865 2 19.7765C2 16.5665 2.98 14.4065 4.94 13.2865L5.45 13.0365L5.55 12.9866C7.39 12.2366 9.57 12.5865 12.08 14.0365C14.88 15.6465 17.26 18.1465 19.22 21.5265C21.18 24.9065 22.16 28.1965 22.16 31.4165C22.16 33.9165 21.53 35.8066 20.27 37.0666C19.94 37.3966 19.58 37.6765 19.19 37.8965L18.69 38.1465C17.74 38.5565 16.66 38.6466 15.44 38.4266V46.8066L22.4 50.8265L23.18 51.2665L30.38 55.4266L35.59 58.4366V50.0566L35.44 49.9065C33.55 48.0365 31.99 45.7766 30.76 43.1266C30.23 41.9866 29.81 40.8665 29.52 39.7665C29.08 38.2365 28.87 36.7465 28.87 35.2865C28.87 34.4365 28.94 33.6465 29.08 32.9465C29.46 30.9965 30.37 29.6166 31.81 28.7966L32.32 28.5466L32.42 28.4966C33.71 27.9666 35.17 27.9766 36.8 28.5466C37 28.6066 37.2 28.6865 37.41 28.7765C37.91 28.9865 38.42 29.2366 38.95 29.5466C41.75 31.1666 44.13 33.6565 46.09 37.0365C47.57 39.5865 48.49 42.0866 48.86 44.5466C48.97 45.3466 49.03 46.1366 49.03 46.9266C49.03 48.8966 48.64 50.4866 47.85 51.6866C47.65 52.0166 47.41 52.3065 47.14 52.5765C46.83 52.8865 46.52 53.1365 46.17 53.3565L46.05 53.4165C44.99 54.0265 43.74 54.1966 42.31 53.9366V62.3166L50.04 66.7865L57.24 70.9366L62.46 73.9565V65.5666C62.41 65.5166 62.36 65.4665 62.31 65.4165C60.42 63.5465 58.86 61.2865 57.63 58.6365C57.1 57.4965 56.68 56.3765 56.39 55.2765C55.95 53.7465 55.74 52.2566 55.74 50.8066C55.74 49.9466 55.81 49.1665 55.96 48.4565C56.34 46.5065 57.25 45.1266 58.68 44.3066L59.29 44.0065C60.57 43.4865 62.02 43.4966 63.63 44.0566C63.84 44.1166 64.06 44.1966 64.28 44.2966C64.78 44.4966 65.29 44.7566 65.82 45.0566C68.62 46.6766 71 49.1766 72.96 52.5566C74.44 55.1166 75.36 57.6166 75.72 60.0666C75.84 60.8666 75.9 61.6466 75.9 62.4366Z" stroke="#229EFF" stroke-linejoin="round"/><path d="M23.2204 59.0066L15.4404 62.8966V54.5166L22.1804 58.4066L23.2204 59.0066Z" stroke="#229EFF" stroke-linejoin="round"/><path d="M68.8596 85.3466C68.4896 87.3866 67.5696 88.8166 66.0896 89.6666L65.4796 89.9666L46.0896 99.6666C48.0496 98.5466 49.0296 96.3866 49.0296 93.1766C49.0296 90.6666 48.3996 88.0566 47.1396 85.3366C45.8796 82.6166 44.2696 80.3066 42.3096 78.4066L49.2296 74.9466L50.0896 74.5166L68.8596 85.3466Z" stroke="#229EFF" stroke-linejoin="round"/><path d="M50.0896 74.5166L49.2296 74.9466L42.3096 78.4066V70.0266L49.0396 73.9166L50.0896 74.5166Z" stroke="#229EFF" stroke-linejoin="round"/><path d="M56.3896 55.2766L55.1496 55.8965L42.3096 62.3166V53.9366C43.7396 54.1966 44.9896 54.0266 46.0496 53.4166L48.6296 52.1266L55.9596 48.4565C55.8096 49.1665 55.7396 49.9466 55.7396 50.8066C55.7396 52.2566 55.9496 53.7466 56.3896 55.2766Z" stroke="#229EFF" stroke-linejoin="round"/><path d="M62.4596 65.5667V73.9566L57.2396 70.9366L50.0396 66.7866L42.3096 62.3167L55.1496 55.8966L56.3896 55.2766C56.6796 56.3766 57.0996 57.4966 57.6296 58.6366C58.8596 61.2866 60.4196 63.5466 62.3096 65.4166C62.3596 65.4666 62.4096 65.5167 62.4596 65.5667Z" stroke="#229EFF" stroke-linejoin="round"/><path d="M95.9 52.4367C95.9 54.9467 95.27 56.8266 94.01 58.0966C93.63 58.4766 93.23 58.7767 92.79 58.9967L92.38 59.1966L75.5 67.6366L73.06 68.8567C73.4 68.6467 73.71 68.3966 74.01 68.0966C74.28 67.8266 74.52 67.5266 74.73 67.1966C75.51 65.9966 75.9 64.4067 75.9 62.4367C75.9 61.6467 75.84 60.8667 75.72 60.0667C75.36 57.6167 74.44 55.1167 72.96 52.5567C71 49.1767 68.62 46.6767 65.82 45.0567C65.29 44.7567 64.78 44.4967 64.28 44.2967C64.06 44.1967 63.84 44.1167 63.63 44.0567C62.02 43.4967 60.57 43.4866 59.29 44.0066L68.8 39.2467L78.68 34.3067C80.64 33.1967 83.02 33.4467 85.82 35.0567C88.62 36.6767 91 39.1767 92.96 42.5567C94.92 45.9367 95.9 49.2267 95.9 52.4367Z" stroke="#229EFF" stroke-linejoin="round"/><path d="M89.1797 60.7966V75.5366L69.1797 85.5366V69.4466C70.6497 69.7166 71.9197 69.5366 72.9897 68.8966L73.0597 68.8566L75.4997 67.6366L89.1797 60.7966Z" stroke="#229EFF" stroke-linejoin="round"/><path d="M42.1598 21.4166C42.1598 22.2566 42.0898 23.0366 41.9298 23.7366L32.4198 28.4966L32.3198 28.5466C32.1498 28.6166 31.9798 28.6966 31.8098 28.7966C30.3698 29.6166 29.4598 30.9965 29.0798 32.9465L28.7198 33.1266L19.1898 37.8966C19.5798 37.6766 19.9398 37.3966 20.2698 37.0666C21.5298 35.8066 22.1598 33.9166 22.1598 31.4166C22.1598 28.1966 21.1798 24.9066 19.2198 21.5266C17.2598 18.1466 14.8798 15.6466 12.0798 14.0366C9.5698 12.5866 7.3898 12.2366 5.5498 12.9866L24.9398 3.28657C26.8998 2.16657 29.2798 2.41657 32.0798 4.03657C34.8798 5.64657 37.2598 8.14656 39.2198 11.5266C41.1798 14.9066 42.1598 18.1966 42.1598 21.4166Z" stroke="#229EFF" stroke-linejoin="round"/><path d="M69.0299 36.9266C69.0299 37.7666 68.9599 38.5466 68.7999 39.2466L59.2899 44.0065L58.6799 44.3066C57.2499 45.1266 56.3399 46.5066 55.9599 48.4566L48.6299 52.1266L46.1699 53.3566C46.5199 53.1366 46.8299 52.8865 47.1399 52.5765C47.4099 52.3065 47.6499 52.0166 47.8499 51.6866C48.6399 50.4866 49.0299 48.8966 49.0299 46.9266C49.0299 46.1366 48.9699 45.3466 48.8599 44.5466C48.4899 42.0866 47.5699 39.5866 46.0899 37.0366C44.1299 33.6566 41.7499 31.1666 38.9499 29.5466C38.4199 29.2366 37.9099 28.9866 37.4099 28.7766C37.1999 28.6866 36.9999 28.6066 36.7999 28.5466C35.1699 27.9766 33.7099 27.9666 32.4199 28.4966L41.9299 23.7366L51.8099 18.7966C53.7699 17.6766 56.1499 17.9266 58.9499 19.5466C61.7499 21.1666 64.1299 23.6566 66.0899 27.0366C68.0499 30.4166 69.0299 33.7166 69.0299 36.9266Z" stroke="#229EFF" stroke-linejoin="round"/><path d="M72.9898 68.8965L72.7598 69.0065" stroke="#229EFF" stroke-linejoin="round"/><path d="M35.5904 66.1466V73.1666L32.1404 74.8966C31.6404 75.1366 31.1804 75.4666 30.7604 75.8866C29.9204 76.7266 29.3704 77.8366 29.1004 79.2166L19.2204 84.1566C21.1804 83.0366 22.1604 80.8766 22.1604 77.6666C22.1604 75.1566 21.5304 72.5466 20.2704 69.8266C19.0104 67.1066 17.4004 64.7966 15.4404 62.8966L23.2204 59.0066L35.5904 66.1466Z" stroke="#229EFF" stroke-linejoin="round"/><path d="M35.5904 50.0566V58.4366L30.3804 55.4266L23.1804 51.2666L22.4004 50.8266L15.4404 46.8066L28.7204 40.1666L29.5204 39.7666C29.8104 40.8666 30.2304 41.9866 30.7604 43.1266C31.9904 45.7766 33.5504 48.0366 35.4404 49.9066L35.5904 50.0566Z" stroke="#229EFF" stroke-linejoin="round"/><path d="M8.72008 57.6765V59.0165C7.55008 58.7965 6.50008 58.8765 5.58008 59.2465L8.72008 57.6765Z" stroke="#229EFF" stroke-linejoin="round"/><path d="M35.5896 73.1665V74.5265C35.1096 74.4365 34.6596 74.3965 34.2296 74.4065C33.4696 74.4265 32.7696 74.5865 32.1396 74.8965L35.5896 73.1665Z" stroke="#229EFF" stroke-linejoin="round"/></svg>