<svg width="24" height="24" viewBox="0 0 90 113" class="pr-icon-iso-duotone-secondary" xmlns="http://www.w3.org/2000/svg" stroke-width="1px" stroke-linecap="round" stroke-linejoin="round">
    <path d="M34.8801 84.0499V91.6L2 72.6199V46.21L8.58008 50.0099V68.8699L34.8801 84.0499Z" class="pr-icon-iso-duotone-primary-stroke" stroke-linejoin="round"/>
    <path d="M67.749 91.7199V110.58L41.4492 95.3899V76.5299L45.3792 78.7999L52.3892 82.8499L67.749 91.7199Z" class="pr-icon-iso-duotone-primary-stroke" stroke-linejoin="round"/>
    <path d="M87.75 81.72V100.58L67.75 110.58V91.72L87.75 81.72Z" class="pr-icon-iso-duotone-primary-stroke" stroke-linejoin="round"/>
    <path d="M87.749 81.72L67.749 91.72L52.3892 82.8501L45.3792 78.8L41.4492 76.53L43.9392 75.28L50.9492 71.78L61.1792 66.67V80.3801L61.4492 80.5401L67.749 84.1701L80.739 77.6701L87.749 81.72Z" class="pr-icon-iso-duotone-primary-stroke" stroke-linejoin="round"/>
    <path d="M87.75 40.22V74.17L80.74 77.67L67.75 84.17V50.22L87.75 40.22Z" class="pr-icon-iso-duotone-primary-stroke" stroke-linejoin="round"/>
    <path d="M50.9502 71.78L43.9402 75.28L41.4502 76.53V80.77L34.8801 84.05L8.58008 68.87L22 62.16L28.5801 58.87L50.9502 71.78Z" class="pr-icon-iso-duotone-primary-stroke" stroke-linejoin="round"/>
    <path d="M27.3201 50.55L22.6301 53.22L22 52.13L18.03 45.28L14.8401 39.79L14.6401 39.43L8.58008 28.98V42.46L2 38.67V12.26L22 23.81L25.02 25.55V33.09L13.1802 26.26L19.4502 37.03L19.6501 37.38L22 41.41L22.8501 42.87L27.3201 50.55Z" class="pr-icon-iso-duotone-primary-stroke" stroke-linejoin="round"/>
    <path d="M45.02 15.55L38.02 19.05L35.53 20.3L30.7302 22.69L28.5801 23.77L25.02 25.55L22 23.81L2 12.26L22 2.26001L45.02 15.55Z" class="pr-icon-iso-duotone-primary-stroke" stroke-linejoin="round"/>
    <path d="M45.0195 15.55V22.64L44.5996 22.8501L38.7197 25.78L33.9197 28.19L31.5896 29.3501V29.81L28.5796 31.31L27.5095 31.84L25.0195 33.09V25.55L28.5796 23.7701L30.7297 22.69L35.5295 20.3L38.0195 19.05L45.0195 15.55Z" class="pr-icon-iso-duotone-primary-stroke" stroke-linejoin="round"/>
    <path d="M14.6401 39.43L8.58008 42.46V28.98L14.6401 39.43Z" class="pr-icon-iso-duotone-primary-stroke" stroke-linejoin="round"/>
    <path d="M87.7498 40.22L67.7498 50.22L45.46 37.36L36.0999 31.95L32.0098 29.59L31.5898 29.35L33.9199 28.19L38.72 25.78L44.5999 22.85L45.0198 22.64L51.5898 19.35L87.7498 40.22Z" class="pr-icon-iso-duotone-primary-stroke" stroke-linejoin="round"/>
    <path d="M67.7498 50.22V84.17L61.45 80.54L61.1799 80.38V53.97L42.5898 43.24L42.2898 43.07L31.5898 36.89V29.35L32.0098 29.59L36.0999 31.95L45.46 37.36L67.7498 50.22Z" class="pr-icon-iso-duotone-primary-stroke" stroke-linejoin="round"/>
    <path d="M42.5908 43.24L28.5808 50.25L22.6309 53.22L27.3208 50.55L28.5808 49.92L42.2908 43.07L42.5908 43.24Z" class="pr-icon-iso-duotone-primary-stroke" stroke-linejoin="round"/>
    <path d="M41.4509 80.77V88.32L34.8809 91.6V84.05L41.4509 80.77Z" class="pr-icon-iso-duotone-primary-stroke" stroke-linejoin="round"/>
    <path d="M42.2896 43.07L28.5796 49.92L27.3196 50.55L22.8496 42.87L21.9995 41.41L19.6497 37.38L19.4497 37.03L13.1797 26.26L25.0195 33.09L27.5095 31.84L28.5796 31.31L31.5896 29.81V36.89L42.2896 43.07Z" class="pr-icon-iso-duotone-primary-stroke" stroke-linejoin="round"/>
    <path d="M28.5801 50.25V58.87L22 62.16L8.58008 68.87V50.01L18.03 45.28L22 52.13L22.6301 53.22L28.5801 50.25Z" class="pr-icon-iso-duotone-primary-stroke" stroke-linejoin="round"/>
    <path d="M18.03 45.28L8.58008 50.01L2 46.2101L14.8401 39.79L18.03 45.28Z" class="pr-icon-iso-duotone-primary-stroke" stroke-linejoin="round"/>
</svg>