<svg width="24" height="24" viewBox="0 0 57 121" class="pr-icon-iso-duotone-secondary" xmlns="http://www.w3.org/2000/svg" stroke-width="1px" stroke-linecap="round" stroke-linejoin="round">
    <path d="M49.0598 83.7397V108.96L29.0598 118.96V87.8997L34.48 91.0297L49.0598 83.7397Z" class="pr-icon-iso-duotone-primary-stroke" stroke-linejoin="round"/>
    <path d="M34.48 63.08V91.03L29.0598 87.9V118.96L7.40991 106.46V75.4L2 72.28V44.33C2 40.91 3.05993 38.6 5.17993 37.39L5.84985 37.06C7.82985 36.25 10.1598 36.62 12.8198 38.16L22 43.46L23.6499 44.41C26.6299 46.13 29.1798 48.81 31.2998 52.47C33.4198 56.13 34.48 59.66 34.48 63.08Z" class="pr-icon-iso-duotone-primary-stroke" stroke-linejoin="round"/>
    <path d="M27.71 29.6698C27.71 32.6698 26.7899 34.6998 24.9399 35.7598C24.0499 36.2598 23.07 36.4698 22 36.3898C20.85 36.2998 19.6 35.8498 18.24 35.0698C17.06 34.3898 15.9599 33.5398 14.9399 32.5098C13.6899 31.2698 12.56 29.7698 11.54 28.0198C9.69004 24.8298 8.77002 21.7398 8.77002 18.7298C8.77002 15.7198 9.69004 13.6998 11.54 12.6498L11.9299 12.4598C13.6999 11.6398 15.8 11.9198 18.24 13.3298C20.85 14.8398 23.0899 17.1898 24.9399 20.3798C26.1799 22.5198 26.9999 24.6198 27.4099 26.6798C27.6099 27.6898 27.71 28.6798 27.71 29.6698Z" class="pr-icon-iso-duotone-primary-stroke" stroke-linejoin="round"/>
    <path d="M54.48 53.0796V81.0296L49.0598 83.7396L34.48 91.0296V63.0796C34.48 59.6596 33.4198 56.1296 31.2998 52.4696C29.1798 48.8096 26.6299 46.1296 23.6499 44.4096L22 43.4596L12.8198 38.1596C10.1598 36.6196 7.82985 36.2496 5.84985 37.0596L14.9399 32.5096C15.9599 33.5396 17.06 34.3896 18.24 35.0696C19.6 35.8496 20.85 36.2996 22 36.3896C23.07 36.4696 24.0499 36.2596 24.9399 35.7596L36.22 30.1196L43.6499 34.4096C46.6299 36.1296 49.1798 38.8096 51.2998 42.4696C53.4198 46.1296 54.48 49.6596 54.48 53.0796Z" class="pr-icon-iso-duotone-primary-stroke" stroke-linejoin="round"/>
    <path d="M47.71 19.6697C47.71 22.6697 46.7899 24.6997 44.9399 25.7597L44.5498 25.9497L36.22 30.1197L24.9399 35.7597C26.7899 34.6997 27.71 32.6697 27.71 29.6697C27.71 28.6797 27.6099 27.6897 27.4099 26.6797C26.9999 24.6197 26.1799 22.5197 24.9399 20.3797C23.0899 17.1897 20.85 14.8397 18.24 13.3297C15.8 11.9197 13.6999 11.6397 11.9299 12.4597L31.54 2.64968C33.39 1.59968 35.62 1.81968 38.24 3.32968C40.85 4.83968 43.0899 7.18968 44.9399 10.3797C46.7899 13.5697 47.71 16.6697 47.71 19.6697Z" class="pr-icon-iso-duotone-primary-stroke" stroke-linejoin="round"/>
</svg>