<svg width="48" height="48" viewBox="0 0 85 119" fill="#c8e7ff" xmlns="http://www.w3.org/2000/svg" stroke-width="1px" stroke-linecap="round" stroke-linejoin="round"><path d="M50.46 68.7241L50.51 68.7541V68.7041L50.46 68.7241Z" stroke="#229EFF" stroke-linejoin="round"/><path d="M35.74 71.1941L35.54 71.0741V76.8441L40.8999 74.1641L35.74 71.1941Z" stroke="#229EFF" stroke-linejoin="round"/><path d="M59.9401 45.6941L59.89 45.6641L49.67 39.7641L32.9 30.0841L22.0001 23.7941L2 12.2441V81.5341L62.38 116.404V47.1041L59.9401 45.6941ZM12.9 36.6341L18.2601 39.7241L22.0001 41.8841L29.67 46.3141V52.0941L22.0001 47.6641L12.9 42.4041V36.6341ZM30.5101 78.7541L25.91 76.1041L23.8002 74.8841V82.5841L18.7701 79.6741V71.9741L12.0599 68.1041V62.3241L17.42 65.4241L18.7701 66.2041V58.5041L22.0001 60.3641L23.8002 61.4041V69.1041L24.13 69.2941L29.17 72.2041L30.5101 72.9741V78.7541ZM38.7701 52.5741L35.7101 47.3041L39.2401 45.2941L39.34 45.4741L42.2701 50.5241L43.8002 53.1741L43.9301 53.3941L48.63 50.7141L48.89 51.1641L49.09 51.5141L52.15 56.7941L47.4601 59.4641L47.66 59.8141L48.9301 62.0641L50.5101 64.8641L52.15 67.7641L50.5101 68.7041V68.7541L50.4601 68.7241L48.63 69.7741L46.7902 66.6141L43.9301 61.6741L39.2401 64.3441L38.7701 63.5341L38.0699 62.3241L37.4 61.1841L35.7101 58.2741L35.7401 58.2541H35.7601L40.41 55.4041L38.7701 52.5741ZM52.3199 96.1541L35.5402 86.4741V80.6941L40.9 83.7941L52.3199 90.3841V96.1541ZM52.3199 86.5341L44.4801 82.0041L35.5402 76.8441V71.0741L35.7401 71.1941L40.9 74.1641L49.84 79.3241L52.3199 80.7541V86.5341Z" stroke="#229EFF" stroke-linejoin="round"/><path d="M40.8999 83.7941L35.54 86.4741V80.6941L40.8999 83.7941Z" stroke="#229EFF" stroke-linejoin="round"/><path d="M17.4197 65.4241L12.0596 68.1041V62.3241L17.4197 65.4241Z" stroke="#229EFF" stroke-linejoin="round"/><path d="M23.8005 77.1642V82.5842L18.7705 79.6742L23.8005 77.1642Z" stroke="#229EFF" stroke-linejoin="round"/><path d="M30.5098 72.9741V78.7541L25.9097 76.1041L23.7998 74.8841L25.9397 73.8141L29.1697 72.2041L30.5098 72.9741Z" stroke="#229EFF" stroke-linejoin="round"/><path d="M29.1704 72.2042L25.9404 73.8142L23.8005 74.8842V77.1642L18.7705 79.6742V71.9742L22.0005 70.3642L24.1304 69.2942L29.1704 72.2042Z" stroke="#229EFF" stroke-linejoin="round"/><path d="M24.1296 69.2941L21.9998 70.3641L18.7698 71.9741L12.0596 68.1041L17.4197 65.4241L18.7698 66.2041L21.9998 64.5941L23.7998 63.6941V69.1041L24.1296 69.2941Z" stroke="#229EFF" stroke-linejoin="round"/><path d="M23.8005 61.4042V63.6942L22.0005 64.5942L18.7705 66.2042V58.5042L22.0005 60.3642L23.8005 61.4042Z" stroke="#229EFF" stroke-linejoin="round"/><path d="M48.8899 51.1641L43.8 53.7141L40.4099 55.4041L38.77 52.5741L35.71 47.3041L39.3398 45.4741L42.27 50.5241L43.8 53.1741L43.9299 53.3941L48.6299 50.7141L48.8899 51.1641Z" stroke="#229EFF" stroke-linejoin="round"/><path d="M47.46 59.4642L47.6599 59.8142L46.25 60.5142L43.9299 61.6742L39.24 64.3442L38.77 63.5342L38.0698 62.3242L37.3999 61.1842L35.71 58.2742L35.74 58.2542L35.76 58.2442L49.0898 51.5142L52.1499 56.7942L47.46 59.4642Z" stroke="#229EFF" stroke-linejoin="round"/><path d="M52.1497 67.7642L50.5098 68.7042L50.4597 68.7242L48.6296 69.7742L46.7898 66.6142L43.9297 61.6742L46.2498 60.5142L47.6597 59.8142L48.9297 62.0642L50.5098 64.8642L52.1497 67.7642Z" stroke="#229EFF" stroke-linejoin="round"/><path d="M52.3198 90.3842V96.1542L35.54 86.4742L40.8999 83.7942L52.3198 90.3842Z" stroke="#229EFF" stroke-linejoin="round"/><path d="M52.3198 80.7542V86.5342L44.48 82.0042L35.54 76.8442L40.8999 74.1642L49.8398 79.3242L52.3198 80.7542Z" stroke="#229EFF" stroke-linejoin="round"/><path d="M18.2605 39.7242L12.9004 42.4042V36.6342L18.2605 39.7242Z" stroke="#229EFF" stroke-linejoin="round"/><path d="M29.6704 46.3141V52.0941L22.0005 47.6641L12.9004 42.4041L18.2605 39.7241L22.0005 41.8841L29.6704 46.3141Z" stroke="#229EFF" stroke-linejoin="round"/><path d="M82.3799 37.1041V106.404L62.3799 116.404V47.1041L82.3799 37.1041Z" stroke="#229EFF" stroke-linejoin="round"/><path d="M82.38 37.1041L62.38 47.1041L59.9401 45.6941L59.89 45.6641L49.67 39.7641L32.9 30.0841L22.0001 23.7941L2 12.2441L22.0001 2.24414L82.38 37.1041Z" stroke="#229EFF" stroke-linejoin="round"/><path d="M35.74 71.1941L35.54 71.2941" stroke="#229EFF" stroke-linejoin="round"/><path d="M49.0896 51.5142L35.7598 58.2442L40.4097 55.4042L43.7998 53.7142L48.8896 51.1642L49.0896 51.5142Z" stroke="#229EFF" stroke-linejoin="round"/><path d="M35.71 58.2741L35.74 58.2541L35.76 58.2441" stroke="#229EFF" stroke-linejoin="round"/><path d="M39.3398 45.4742L35.71 47.3042L39.24 45.2942L39.3398 45.4742Z" stroke="#229EFF" stroke-linejoin="round"/></svg>