<svg width="48" height="48" viewBox="0 0 87 121" fill="#c8e7ff" xmlns="http://www.w3.org/2000/svg" stroke-width="1px" stroke-linecap="round" stroke-linejoin="round"><path d="M22.9648 24.27L2.96484 12.72V82.94L64.1648 118.27V48.05L22.9648 24.27ZM48.1948 68.08L31.2648 77.73L28.8048 79.13L26.3448 74.89L22.9648 69.06L14.3548 54.21L19.1148 51.5L22.9648 58.14L28.8048 68.21L43.4348 59.87L48.0148 57.26L48.6148 58.3L52.7748 65.47L48.1948 68.08Z" stroke="#229EFF" stroke-linejoin="round"/><path d="M52.7747 65.47L48.1947 68.08L31.2647 77.73L28.8047 79.13L26.3447 74.89L22.9647 69.06L14.3547 54.21L19.1147 51.5L22.9647 58.14L28.8047 68.21L43.8947 60.66L48.6147 58.3L52.7747 65.47Z" stroke="#229EFF" stroke-linejoin="round"/><path d="M48.6149 58.2999L43.8949 60.6599L28.8049 68.2099L43.4349 59.8699L48.0149 57.2599L48.6149 58.2999Z" stroke="#229EFF" stroke-linejoin="round"/><path d="M84.1648 38.05V108.27L64.1648 118.27V48.05L84.1648 38.05Z" stroke="#229EFF" stroke-linejoin="round"/><path d="M84.1648 38.05L64.1648 48.05L22.9648 24.27L2.96484 12.72L22.9648 2.71997L84.1648 38.05Z" stroke="#229EFF" stroke-linejoin="round"/></svg>