<svg width="48" height="48" viewBox="0 0 100 123" fill="#c8e7ff" xmlns="http://www.w3.org/2000/svg" stroke-width="1px" stroke-linecap="round" stroke-linejoin="round"><path d="M67.11 87.8529L77.71 117.863L72.6399 120.753L51.0099 95.6329L39.9099 101.963L28.7999 82.8129L13.11 73.7529V55.7429L2 36.5929L13.11 30.2629V12.2529L28.7999 21.3129L33.11 18.8529L39.9099 14.9829L51.0099 34.1329L66.7 43.1929V61.2029L77.8099 80.3529L66.7 86.6829L67.11 87.8529Z" stroke="#229EFF" stroke-linejoin="round"/><path d="M48.0803 10.8929L39.9103 14.9829L33.1104 18.8529L28.8003 21.3129L13.1104 12.2529L33.1104 2.25293L48.0803 10.8929Z" stroke="#229EFF" stroke-linejoin="round"/><path d="M71.0101 24.1324L51.0101 34.1324L39.9102 14.9824L48.0802 10.8925L59.9102 4.98242L71.0101 24.1324Z" stroke="#229EFF" stroke-linejoin="round"/><path d="M86.6998 33.1927L66.6998 43.1927L51.0098 34.1328L71.0098 24.1328L86.6998 33.1927Z" stroke="#229EFF" stroke-linejoin="round"/><path d="M86.7002 33.1934V51.2034L66.7002 61.2034V43.1934L86.7002 33.1934Z" stroke="#229EFF" stroke-linejoin="round"/><path d="M97.8102 70.3531L77.8102 80.3531L66.7002 61.2031L86.7002 51.2031L97.8102 70.3531Z" stroke="#229EFF" stroke-linejoin="round"/><path d="M97.7102 107.863L92.4302 110.503L77.7102 117.863L67.1102 87.8527L66.7002 86.6826L86.7002 76.6826L97.7102 107.863Z" stroke="#229EFF" stroke-linejoin="round"/><path d="M97.7097 107.863L92.6396 110.753L72.6396 120.753L77.7097 117.863L92.4297 110.503L97.7097 107.863Z" stroke="#229EFF" stroke-linejoin="round"/><path d="M97.8102 70.3525L86.7002 76.6825L66.7002 86.6825L77.8102 80.3525L97.8102 70.3525Z" stroke="#229EFF" stroke-linejoin="round"/></svg>