<svg width="24" height="24" viewBox="0 0 99 116" class="pr-icon-iso-duotone-secondary" xmlns="http://www.w3.org/2000/svg" stroke-width="1px" stroke-linecap="round" stroke-linejoin="round">
    <path d="M76.2 87.145V87.165C76.23 93.005 75.29 97.915 73.38 101.905C73.21 102.265 73.04 102.605 72.85 102.945C71 106.425 68.57 109.025 65.55 110.775C65.5 110.805 65.45 110.825 65.41 110.855L64.23 111.455C61.22 112.875 57.78 113.435 53.91 113.145C49.46 112.825 44.68 111.205 39.58 108.295C34.47 105.385 29.68 101.545 25.21 96.785C20.73 92.025 16.82 86.785 13.47 81.075C10.12 75.375 7.46 69.415 5.49 63.205C3.53 56.995 2.53 50.975 2.5 45.125C2.46 39.285 3.4 34.365 5.32 30.365C7.23 26.375 9.84 23.415 13.15 21.505L14.71 20.715C17.66 19.375 21.01 18.855 24.78 19.125C25.11 19.145 25.45 19.185 25.79 19.225C29.95 19.705 34.39 21.295 39.12 23.985L39.06 12.895L45.53 23.915L54.67 39.485L50.61 41.825L41.87 46.875L39.25 48.385L39.19 37.295C38.15 36.705 37.14 36.185 36.15 35.745C35.67 35.535 35.19 35.335 34.71 35.155C30.1 33.395 26.01 33.355 22.44 35.015C22.08 35.175 21.73 35.355 21.39 35.555C16.51 38.375 14.09 43.775 14.13 51.765C14.16 56.645 15.17 61.735 17.16 67.035C19.16 72.345 21.81 77.225 25.12 81.695C25.72 80.825 26.49 80.165 27.44 79.715L27.63 79.625C28.25 79.345 28.94 79.165 29.7 79.055C31.73 78.775 34.07 79.205 36.72 80.345C36.53 78.725 36.27 77.085 35.95 75.405C35.94 75.355 35.93 75.295 35.92 75.245C35.89 75.115 35.87 74.985 35.84 74.855C35.52 73.255 35.16 71.725 34.73 70.255C34.24 70.435 33.72 70.525 33.16 70.525C32.92 70.525 32.67 70.505 32.41 70.475C31.57 70.365 30.67 70.035 29.7 69.485C27.56 68.265 25.73 66.355 24.2 63.755C22.68 61.145 21.9 58.625 21.89 56.185L21.87 51.745C21.86 50.495 21.68 49.205 21.31 47.895C20.95 46.585 20.48 45.285 19.89 43.985C21.2 44.705 22.45 45.455 23.64 46.235C25.39 47.385 27.02 48.605 28.53 49.905C30.73 51.825 32.74 54.055 34.56 56.605C36.38 59.155 37.33 61.965 37.41 65.035C37.41 65.695 37.37 66.285 37.27 66.785C37.18 67.285 37 67.755 36.75 68.195C35.9 66.975 35.06 65.835 34.22 64.765C33.37 63.695 32.5 62.675 31.59 61.715C32.69 63.305 33.96 65.505 35.4 68.305C36.35 70.165 37.26 72.165 38.12 74.305C38.56 75.395 38.99 76.515 39.41 77.675C40.28 75.695 41.3 73.845 42.48 72.095C42.95 71.385 43.44 70.705 43.97 70.035C44.04 69.935 44.12 69.835 44.2 69.735C46.12 67.325 48.37 65.385 50.94 63.895C49.46 64.235 48.04 64.685 46.69 65.235C45.34 65.795 44.02 66.445 42.74 67.185C42.5 66.625 42.29 66.055 42.11 65.475C41.93 64.945 41.78 64.405 41.66 63.865C41.39 62.715 41.26 61.625 41.25 60.585C41.23 57.485 42.16 55.395 44.02 54.315L44.44 54.105L44.6 54.025C46.35 53.295 48.45 53.635 50.89 55.025L54.77 57.235C54.77 57.235 54.84 57.275 54.87 57.295C55.49 57.645 56.06 57.925 56.58 58.145C57.29 58.435 57.91 58.615 58.45 58.675C59.42 58.785 60.22 58.725 60.87 58.505C61.57 58.245 62.12 57.815 62.5 57.225C62.59 58.785 62.63 60.275 62.63 61.685C62.63 64.885 62.38 67.715 61.9 70.145C61.52 72.165 60.9 73.925 60.04 75.415C59.64 76.155 59.17 76.815 58.65 77.415C58.36 77.745 58.05 78.025 57.7 78.225L57.41 78.375C56.46 78.835 55.31 78.875 53.96 78.505C53.07 78.255 52.09 77.825 51.01 77.215C50.04 76.655 49.12 75.985 48.24 75.195C47.37 74.395 46.57 73.535 45.86 72.615C45.42 73.765 44.91 75.335 44.34 77.335C43.77 79.335 43.33 81.575 43.02 84.045C45.48 85.965 47.65 88.165 49.54 90.635C49.77 90.945 50 91.255 50.22 91.565C51.77 93.735 52.97 95.895 53.83 98.065C55.05 97.795 56.19 97.375 57.22 96.785C58.97 95.805 60.46 94.365 61.68 92.475C63.63 89.455 64.59 85.465 64.56 80.515L72.36 84.965L76.2 87.145Z" class="pr-icon-iso-duotone-primary-stroke" stroke-linejoin="round"/>
    <path d="M96.14 77.045L77.45 86.515L76.2 87.145L72.36 84.965L64.56 80.515L68.04 78.755L84.51 70.405L96.14 77.045Z" class="pr-icon-iso-duotone-primary-stroke" stroke-linejoin="round"/>
    <path d="M68.04 78.7551L64.56 80.5151C64.59 85.4651 63.63 89.4551 61.68 92.4751C60.46 94.3651 58.97 95.8051 57.22 96.7851C56.19 97.3751 55.05 97.7951 53.83 98.0651C52.97 95.8951 51.77 93.7351 50.22 91.5651C50 91.2551 49.77 90.9451 49.54 90.6351C47.65 88.1651 45.48 85.9651 43.02 84.0451L53.96 78.5051C55.31 78.8751 56.46 78.8351 57.41 78.3751L57.7 78.2251L64.19 74.9351C65.57 76.1151 66.86 77.3851 68.04 78.7551Z" class="pr-icon-iso-duotone-primary-stroke" stroke-linejoin="round"/>
    <path d="M39.06 12.8951L39.12 23.9851C34.39 21.2951 29.95 19.7051 25.79 19.2251C25.45 19.1851 25.11 19.1451 24.78 19.1251C21.01 18.8551 17.66 19.3751 14.71 20.7151L33.09 11.3951C36.4 9.48507 40.28 8.69507 44.73 9.02507C45.27 9.06507 45.81 9.12507 46.35 9.19507L39.06 12.8951Z" class="pr-icon-iso-duotone-primary-stroke" stroke-linejoin="round"/>
    <path d="M74.62 29.3751L59.2 38.2851L51.13 42.3751L41.89 47.0451V47.0551L39.25 48.3851L41.87 46.8751L50.61 41.8251L54.67 39.4851L59.19 37.1951L74.62 29.3751Z" class="pr-icon-iso-duotone-primary-stroke" stroke-linejoin="round"/>
    <path d="M53.96 78.5051L43.02 84.0451C43.33 81.5751 43.77 79.3351 44.34 77.3351C44.91 75.3351 45.42 73.7651 45.86 72.6151C46.57 73.5351 47.37 74.3951 48.24 75.1951C49.12 75.9851 50.04 76.6551 51.01 77.2151C52.09 77.8251 53.07 78.2551 53.96 78.5051Z" class="pr-icon-iso-duotone-primary-stroke" stroke-linejoin="round"/>
    <path d="M50.94 63.8951C48.37 65.3851 46.12 67.3251 44.2 69.7351C44.12 69.8351 44.04 69.9351 43.97 70.0351C43.44 70.7051 42.95 71.3851 42.48 72.0951C41.3 73.8451 40.28 75.6951 39.41 77.6751C38.99 76.5151 38.56 75.3951 38.12 74.3051C37.26 72.1651 36.35 70.1651 35.4 68.3051C33.96 65.5051 32.69 63.3051 31.59 61.7151C32.5 62.6751 33.37 63.6951 34.22 64.7651C35.06 65.8351 35.9 66.9751 36.75 68.1951L41.33 65.8751L42.11 65.4751C42.29 66.0551 42.5 66.6251 42.74 67.1851C44.02 66.4451 45.34 65.7951 46.69 65.2351C48.04 64.6851 49.46 64.2351 50.94 63.8951Z" class="pr-icon-iso-duotone-primary-stroke" stroke-linejoin="round"/>
    <path d="M55.67 48.4051L44.6 54.0251L44.44 54.1051L44.02 54.3151C42.16 55.3951 41.23 57.4851 41.25 60.5851C41.25 61.6251 41.39 62.7151 41.66 63.8651C41.78 64.4051 41.93 64.9451 42.11 65.4751L41.33 65.8751L36.75 68.1951C37 67.7551 37.18 67.2851 37.27 66.7851C37.37 66.2851 37.41 65.6951 37.41 65.0351C37.33 61.9651 36.38 59.1551 34.56 56.6051C32.74 54.0551 30.73 51.8251 28.53 49.9051C27.02 48.6051 25.39 47.3851 23.64 46.2351C22.45 45.4551 21.2 44.7051 19.89 43.9851L22.98 42.4151L34.44 36.6151L36.15 35.7451C37.14 36.1851 38.15 36.7051 39.19 37.2951L39.25 48.3851L41.89 47.0551L51.13 42.3751C52.32 43.6451 53.45 45.0151 54.5 46.4951C54.94 47.1151 55.33 47.7451 55.67 48.4051Z" class="pr-icon-iso-duotone-primary-stroke" stroke-linejoin="round"/>
    <path d="M79.47 48.615L66.66 55.115H66.64L62.5 57.225C62.12 57.815 61.57 58.245 60.87 58.505C60.22 58.725 59.42 58.785 58.45 58.675C57.91 58.615 57.29 58.435 56.58 58.145C56.06 57.925 55.49 57.645 54.87 57.295C54.84 57.275 54.8 57.255 54.77 57.235L50.89 55.025C48.45 53.635 46.35 53.295 44.6 54.025L55.67 48.405L63.97 44.205C65.83 43.135 68.12 43.365 70.83 44.915L74.71 47.125C76.2 47.975 77.43 48.455 78.39 48.565C78.78 48.605 79.14 48.625 79.47 48.615Z" class="pr-icon-iso-duotone-primary-stroke" stroke-linejoin="round"/>
    <path d="M74.62 29.375L59.19 37.195L54.67 39.485L45.53 23.915L39.06 12.895L46.35 9.19503H46.36L59 2.78503L74.62 29.375Z" class="pr-icon-iso-duotone-primary-stroke" stroke-linejoin="round"/>
    <path d="M35.92 75.245C35.92 75.245 35.94 75.355 35.95 75.405L27.63 79.625L27.44 79.715C26.49 80.165 25.72 80.825 25.12 81.695C21.81 77.225 19.16 72.345 17.16 67.035C15.17 61.735 14.16 56.645 14.13 51.765C14.09 43.775 16.51 38.375 21.39 35.555C21.73 35.355 22.08 35.175 22.44 35.015C26.01 33.355 30.1 33.395 34.71 35.155C35.19 35.335 35.67 35.535 36.15 35.745L34.44 36.615L22.98 42.415L19.89 43.985C20.48 45.285 20.95 46.585 21.31 47.895C21.68 49.205 21.86 50.495 21.87 51.745L21.89 56.185C21.9 58.625 22.68 61.145 24.2 63.755C25.73 66.355 27.56 68.265 29.7 69.485C30.67 70.035 31.57 70.365 32.41 70.475C32.67 70.505 32.92 70.525 33.16 70.525C33.72 70.525 34.24 70.435 34.73 70.255C35.16 71.725 35.52 73.255 35.84 74.855C35.87 74.985 35.89 75.115 35.92 75.245Z" class="pr-icon-iso-duotone-primary-stroke" stroke-linejoin="round"/>
    <path d="M36.72 80.345C34.07 79.205 31.73 78.775 29.7 79.055C28.94 79.165 28.25 79.345 27.63 79.625L35.95 75.405C36.27 77.085 36.53 78.725 36.72 80.345Z" class="pr-icon-iso-duotone-primary-stroke" stroke-linejoin="round"/>
    <path d="M81.84 60.035C81.28 63.035 80.19 65.455 78.59 67.315C78.17 67.795 77.7 68.145 77.15 68.365L64.19 74.935L57.7 78.225C58.05 78.025 58.36 77.745 58.65 77.415C59.17 76.815 59.64 76.155 60.04 75.425C60.9 73.925 61.52 72.165 61.9 70.145C62.38 67.715 62.62 64.885 62.63 61.685C62.63 60.275 62.59 58.785 62.5 57.225L66.64 55.125H66.66L79.47 48.615H79.49L82.45 47.115C82.73 52.215 82.53 56.525 81.84 60.035Z" class="pr-icon-iso-duotone-primary-stroke" stroke-linejoin="round"/>
    <path d="M96.14 77.045C96.18 82.885 95.24 87.805 93.32 91.805C91.41 95.795 88.8 98.755 85.49 100.665C84.81 101.055 84.11 101.395 83.39 101.695L65.41 110.855C65.41 110.855 65.5 110.805 65.55 110.775C68.57 109.025 71 106.425 72.85 102.945C73.04 102.605 73.21 102.265 73.38 101.905C75.29 97.915 76.23 93.005 76.2 87.165C76.63 86.975 77.05 86.755 77.45 86.515L96.14 77.045Z" class="pr-icon-iso-duotone-primary-stroke" stroke-linejoin="round"/>
</svg>