<svg width="24" height="24" viewBox="0 0 77 104" class="pr-icon-iso-duotone-secondary" xmlns="http://www.w3.org/2000/svg" stroke-width="1px" stroke-linecap="round" stroke-linejoin="round">
    <path d="M31.2004 71.6801L29.5803 72.48L18.2305 78.16V64.1899L22.0005 66.37L31.2004 71.6801Z" class="pr-icon-iso-duotone-primary-stroke" stroke-linejoin="round"/>
    <path d="M18.23 26.9399V54.88L30.1099 61.74L38.23 66.4301L50.6899 73.62V82.9301L47.4299 81.05L31.2 71.6801L22 66.37L18.23 64.1899V78.16L30.1099 85.02L34.46 87.53V96.84L31.2 94.96L18.23 87.47V101.44L10.1099 96.76V82.79L2 78.1V68.79L10.1099 73.48V12.95L30.1099 24.5L38.23 29.1899L54.74 38.72V48.03L38.23 38.49L30.1099 33.8L18.23 26.9399Z" class="pr-icon-iso-duotone-primary-stroke" stroke-linejoin="round"/>
    <path d="M54.4609 81.05V86.84L34.4609 96.84V87.53L38.231 85.65L45.821 81.85L47.4309 81.05L50.6909 82.9301L54.4609 81.05Z" class="pr-icon-iso-duotone-primary-stroke" stroke-linejoin="round"/>
    <path d="M70.6904 63.6199L50.6904 73.6199L38.2305 66.4299L30.1104 61.7399L18.2305 54.8799L38.2305 44.8799L70.6904 63.6199Z" class="pr-icon-iso-duotone-primary-stroke" stroke-linejoin="round"/>
    <path d="M38.2305 38.49V44.88L18.2305 54.88V26.9399L30.1104 33.8L38.2305 38.49Z" class="pr-icon-iso-duotone-primary-stroke" stroke-linejoin="round"/>
    <path d="M74.7402 28.72V38.03L54.7402 48.03V38.72L66.1001 33.04L74.7402 28.72Z" class="pr-icon-iso-duotone-primary-stroke" stroke-linejoin="round"/>
    <path d="M74.7395 28.72L66.0994 33.04L54.7395 38.72L38.2295 29.1899L30.1094 24.5L10.1094 12.95L30.1094 2.94995L74.7395 28.72Z" class="pr-icon-iso-duotone-primary-stroke" stroke-linejoin="round"/>
    <path d="M70.6895 63.6201V72.9302L54.4595 81.0502L50.6895 82.9302V73.6201L70.6895 63.6201Z" class="pr-icon-iso-duotone-primary-stroke" stroke-linejoin="round"/>
    <path d="M47.4304 81.0502L45.8206 81.8501L38.2305 85.6501L34.4604 87.5302L30.1104 85.0201L18.2305 78.1602L29.5803 72.4801L31.2004 71.6802L47.4304 81.0502Z" class="pr-icon-iso-duotone-primary-stroke" stroke-linejoin="round"/>
    <path d="M10.1099 64.74V73.48L2 68.79L10.1099 64.74Z" class="pr-icon-iso-duotone-primary-stroke" stroke-linejoin="round"/>
    <path d="M31.2004 94.96L18.2305 101.44V87.47L31.2004 94.96Z" class="pr-icon-iso-duotone-primary-stroke" stroke-linejoin="round"/>
</svg>