<svg width="48" height="48" viewBox="0 0 105 119" class="pr-icon-iso-duotone-secondary"
     xmlns="http://www.w3.org/2000/svg" stroke-width="1px" stroke-linecap="round" stroke-linejoin="round">
    <path d="M75.3098 92.6582L75.23 92.6882C75.29 92.7382 75.3499 92.7782 75.4099 92.8082C75.3799 92.7582 75.3498 92.7082 75.3098 92.6582Z" class="pr-icon-iso-duotone-primary-stroke" stroke-linejoin="round"/>
    <path d="M81.22 104.268C79.74 100.358 77.7999 96.5382 75.4099 92.8082C75.3499 92.7782 75.29 92.7382 75.23 92.6882L75.3098 92.6582C74.4598 91.3282 73.5398 89.9982 72.5598 88.6882C70.2498 85.5782 67.7799 82.8282 65.1599 80.4282C64.0099 79.3782 62.8199 78.3882 61.6099 77.4782C60.0799 76.3182 58.5099 75.2682 56.8799 74.3282C55.3899 73.4682 53.94 72.7482 52.54 72.1682C49.52 70.9182 46.6998 70.2982 44.0598 70.3082C43.0698 70.3082 42.1199 70.3982 41.1899 70.5782C40.9299 70.6282 40.6699 70.6782 40.4099 70.7482H40.3699C39.3499 70.9882 38.39 71.3382 37.51 71.7882C34.78 73.1182 32.7 75.3382 31.27 78.4382C31.52 79.2882 31.7998 80.1282 32.0898 80.9682C34.0898 86.6082 37.0199 92.0682 40.8899 97.3482C40.9899 97.4882 41.0899 97.6182 41.1899 97.7582C45.7999 103.948 51.0199 108.738 56.8799 112.108C62.7299 115.488 67.9598 116.748 72.5598 115.868C73.8798 115.618 75.0899 115.228 76.1899 114.688L76.5898 114.488C79.1498 113.138 81.12 110.968 82.49 108.008C82.11 106.758 81.69 105.508 81.22 104.268ZM66.8899 106.668C63.8099 106.778 60.4699 105.798 56.8799 103.718C53.2799 101.638 49.9399 98.7682 46.8599 95.0982C46.7099 94.9282 46.5699 94.7482 46.4299 94.5682C43.5499 91.0582 41.24 87.2682 39.5 83.1882C40.81 81.6382 42.4399 80.6182 44.3899 80.1282C45.1599 79.9182 45.9799 79.8082 46.8599 79.7782C47.8699 79.7382 48.9 79.8182 49.97 80.0182C52.16 80.4282 54.4599 81.3282 56.8799 82.7282C57.3799 83.0182 57.8699 83.3182 58.3499 83.6382C58.4099 83.6782 58.47 83.7082 58.52 83.7582C61.49 85.7082 64.2899 88.2382 66.8899 91.3382C67.9799 92.6382 68.9899 93.9782 69.9199 95.3482C70.7299 96.5282 71.4699 97.7382 72.1399 98.9682C72.9299 100.358 73.63 101.788 74.25 103.258C72.43 105.418 69.9699 106.558 66.8899 106.668Z" class="pr-icon-iso-duotone-primary-stroke" stroke-linejoin="round"/>
    <path d="M69.9197 95.3483L68.5996 96.0083L60.7598 99.9283C61.8298 99.3183 62.3696 98.1383 62.3696 96.3883C62.3696 94.6383 61.8298 92.8483 60.7598 91.0083C59.6998 89.1683 58.3996 87.8083 56.8796 86.9283C55.5996 86.1883 54.4798 85.9683 53.5298 86.2883C53.5298 86.2783 53.5198 86.2683 53.5098 86.2583L58.4497 83.7883L58.5198 83.7583C61.4898 85.7083 64.2896 88.2383 66.8896 91.3383C67.9796 92.6383 68.9897 93.9783 69.9197 95.3483Z" class="pr-icon-iso-duotone-primary-stroke" stroke-linejoin="round"/>
    <path d="M62.3696 96.3882C62.3696 98.1382 61.8298 99.3183 60.7598 99.9283C59.6998 100.538 58.3996 100.398 56.8796 99.5182C55.3496 98.6382 54.0597 97.2783 52.9897 95.4383C52.3097 94.2683 51.8496 93.1183 51.5996 91.9883C51.4596 91.3383 51.3896 90.6983 51.3896 90.0583C51.3896 88.8283 51.6497 87.8782 52.1797 87.2182C52.3997 86.9282 52.6697 86.6982 52.9897 86.5182L53.2498 86.3882C53.3398 86.3482 53.4298 86.3083 53.5298 86.2883C54.4798 85.9683 55.5996 86.1883 56.8796 86.9283C58.3996 87.8083 59.6998 89.1682 60.7598 91.0082C61.8298 92.8482 62.3696 94.6382 62.3696 96.3882Z" class="pr-icon-iso-duotone-primary-stroke" stroke-linejoin="round"/>
    <path d="M74.25 103.258C72.43 105.418 69.9699 106.558 66.8899 106.668C63.8099 106.778 60.4699 105.798 56.8799 103.718C53.2799 101.638 49.9399 98.7681 46.8599 95.0981C46.7099 94.9281 46.5699 94.748 46.4299 94.568C43.5499 91.058 41.24 87.2681 39.5 83.1881C40.81 81.6381 42.4399 80.6181 44.3899 80.1281C45.1599 79.9181 45.9799 79.8081 46.8599 79.7781C47.8699 79.7381 48.9 79.8181 49.97 80.0181C52.16 80.4281 54.4599 81.3281 56.8799 82.7281C57.3799 83.0181 57.8699 83.3181 58.3499 83.6381C58.3699 83.6881 58.41 83.7381 58.45 83.7881L53.51 86.258L52.99 86.5181C52.67 86.6981 52.3999 86.9281 52.1799 87.2181C51.6499 87.8781 51.3899 88.8281 51.3899 90.0581C51.3899 90.6981 51.4599 91.3381 51.5999 91.9881C51.8499 93.1181 52.31 94.2681 52.99 95.4381C54.06 97.2781 55.3499 98.6381 56.8799 99.5181C58.3999 100.398 59.7 100.538 60.76 99.9281L68.5999 96.008C69.7499 97.068 70.9299 98.0581 72.1399 98.9681C72.9299 100.358 73.63 101.788 74.25 103.258Z" class="pr-icon-iso-duotone-primary-stroke" stroke-linejoin="round"/>
    <path d="M58.3499 83.6382C58.3499 83.6382 58.41 83.7382 58.45 83.7882L58.52 83.7582C58.47 83.7082 58.4099 83.6782 58.3499 83.6382ZM53.51 86.2582L53.25 86.3882C53.34 86.3482 53.43 86.3082 53.53 86.2882C53.53 86.2782 53.52 86.2682 53.51 86.2582Z" class="pr-icon-iso-duotone-primary-stroke" stroke-linejoin="round"/>
    <path d="M102.49 98.0083C101.08 101.058 99.0399 103.258 96.3699 104.598L96.1699 104.698L76.5898 114.488C79.1498 113.138 81.12 110.968 82.49 108.008L86.71 105.898L102.48 98.0083H102.49Z" class="pr-icon-iso-duotone-primary-stroke" stroke-linejoin="round"/>
    <path d="M102.49 98.0083L86.72 105.898L82.5 108.008C82.12 106.758 81.7 105.508 81.23 104.268C79.75 100.358 77.8099 96.5384 75.4199 92.8084C75.3899 92.7584 75.3598 92.7084 75.3198 92.6584C74.4698 91.3284 73.5498 89.9984 72.5698 88.6884C70.2598 85.5784 67.7899 82.8284 65.1699 80.4284C64.0199 79.3784 62.8299 78.3884 61.6199 77.4784C60.0899 76.3184 58.5199 75.2683 56.8899 74.3283C55.3999 73.4683 53.95 72.7484 52.55 72.1684C49.53 70.9184 46.7098 70.2984 44.0698 70.3084C43.0798 70.3084 42.13 70.3983 41.2 70.5783C40.94 70.6283 40.6799 70.6784 40.4199 70.7484H40.3799C39.3599 70.9884 38.4 71.3384 37.52 71.7884L43.05 69.0284L57.8298 61.6383C58.8598 61.1583 59.99 60.8083 61.2 60.5783C62.43 60.3383 63.71 60.2584 65.04 60.3384C66.1 63.4984 66.86 66.6383 67.3 69.7683C67.53 71.2883 67.69 72.8083 67.77 74.3183C68.73 75.2783 69.7599 76.3683 70.8699 77.5783C71.0999 77.8283 71.3298 78.0884 71.5698 78.3484C71.5798 78.3584 71.5899 78.3783 71.6099 78.3883C72.9599 79.8983 74.1499 81.3284 75.1799 82.6884L80.24 80.1584L84.05 78.2583L89.8999 75.3283C90.8099 76.3983 91.6998 77.5184 92.5698 78.6884C97.1798 84.8784 100.48 91.3183 102.5 98.0083H102.49Z" class="pr-icon-iso-duotone-primary-stroke" stroke-linejoin="round"/>
    <path d="M43.04 69.0283L37.51 71.7883C34.78 73.1183 32.7 75.3383 31.27 78.4383C31.52 79.2883 31.7998 80.1283 32.0898 80.9683L26.8799 83.5682C21.6999 77.9782 17.47 71.5083 14.21 64.1283C10.95 56.7583 9.31982 49.5983 9.31982 42.6783C9.31982 38.7583 9.86997 35.3883 10.97 32.5583C12.06 29.7283 13.59 27.4382 15.54 25.6982L22.8999 38.3882L36.5698 61.9783C37.0698 61.8583 37.5698 61.7583 38.0798 61.6783C39.5898 64.2583 41.24 66.7083 43.04 69.0283Z" class="pr-icon-iso-duotone-primary-stroke" stroke-linejoin="round"/>
    <path d="M61.6301 52.1483L43.0701 61.4283L29.6902 38.3483L22.1001 25.2683L20.6602 22.7783C21.2302 22.5983 21.8101 22.4483 22.4001 22.3383C24.4201 21.9383 26.6002 21.9383 28.9402 22.3083C29.5902 22.4083 30.2402 22.5483 30.9102 22.7283C33.3402 23.3483 35.9001 24.4383 38.5901 25.9883C40.2201 26.9283 41.8001 27.9783 43.3301 29.1383C49.1401 33.4883 54.2502 39.3483 58.6602 46.7083C59.5902 48.2583 60.4502 49.8083 61.2302 51.3483C61.3702 51.6083 61.5001 51.8783 61.6301 52.1483Z" class="pr-icon-iso-duotone-primary-stroke" stroke-linejoin="round"/>
    <path d="M75.1699 80.6983V82.6884C74.1399 81.3284 72.9499 79.8983 71.5999 78.3883C71.5799 78.3783 71.5698 78.3584 71.5598 78.3484C71.3198 78.0884 71.0899 77.8283 70.8599 77.5783C69.7499 76.3683 68.72 75.2783 67.76 74.3183C67.68 72.8083 67.52 71.2883 67.29 69.7683C66.85 66.6383 66.09 63.4983 65.03 60.3383C64.12 57.6183 62.9899 54.8883 61.6299 52.1483C61.4999 51.8783 61.37 51.6083 61.23 51.3483C60.45 49.8083 59.5899 48.2583 58.6599 46.7083C54.2499 39.3483 49.1398 33.4883 43.3298 29.1383C41.7998 27.9783 40.2198 26.9284 38.5898 25.9884C35.8998 24.4384 33.3399 23.3484 30.9099 22.7284C30.2399 22.5484 29.5899 22.4084 28.9399 22.3084C26.5999 21.9384 24.4199 21.9383 22.3999 22.3383C21.8099 22.4483 21.2299 22.5983 20.6599 22.7783L22.0999 25.2683L29.6899 38.3483L43.0698 61.4284C41.9098 61.3184 40.8 61.3184 39.73 61.4284C39.17 61.4884 38.6198 61.5684 38.0798 61.6684C37.5698 61.7484 37.0698 61.8483 36.5698 61.9683L22.8999 38.3784L15.54 25.6884C13.59 27.4284 12.06 29.7184 10.97 32.5484C9.86997 35.3784 9.31982 38.7484 9.31982 42.6684C9.31982 49.5884 10.95 56.7484 14.21 64.1184C17.47 71.4984 21.6999 77.9684 26.8799 83.5584C27.9799 86.1484 29.35 88.9283 30.99 91.9083C32.64 94.8883 34.2598 97.5384 35.8398 99.8584C31.0898 96.6884 26.65 92.7583 22.53 88.0783C18.42 83.3883 14.84 78.2984 11.79 72.7984C8.74004 67.2884 6.34986 61.5683 4.60986 55.6383C2.86986 49.6983 2 43.9684 2 38.4384C2 32.6384 2.95988 27.7284 4.87988 23.7284C6.79988 19.7384 9.40995 16.7984 12.7 14.9184L14.26 14.1383L14.3098 14.1184C17.2398 12.8284 20.5698 12.3483 24.3198 12.6483C24.6698 12.6783 25.0199 12.7183 25.3699 12.7683C28.5399 13.1583 31.8699 14.1984 35.3499 15.8684C35.4799 15.9284 35.62 15.9984 35.76 16.0584C36.69 16.5284 37.6298 17.0383 38.5898 17.5883C41.4198 19.2183 44.16 21.1484 46.8 23.3584C48.88 25.0984 50.8999 27.0284 52.8499 29.1284C57.2999 33.8984 61.18 39.1284 64.47 44.8084C67.64 50.2784 70.1798 55.9983 72.0698 61.9683C72.1498 62.1883 72.22 62.4183 72.29 62.6483C73.21 65.6283 73.9099 68.5584 74.3799 71.4284C74.6499 73.0384 74.85 74.6184 74.98 76.1884C75.11 77.6984 75.1699 79.1984 75.1699 80.6884V80.6983Z" class="pr-icon-iso-duotone-primary-stroke" stroke-linejoin="round"/>
    <path d="M34.7097 3.95825L32.3496 5.1283" class="pr-icon-iso-duotone-primary-stroke" stroke-linejoin="round"/>
    <path d="M40.8899 97.3483L35.8398 99.8683C34.2598 97.5483 32.64 94.8983 30.99 91.9183C29.35 88.9383 27.9799 86.1582 26.8799 83.5682L32.0898 80.9683C34.0898 86.6083 37.0199 92.0683 40.8899 97.3483Z" class="pr-icon-iso-duotone-primary-stroke" stroke-linejoin="round"/>
    <path d="M95.1697 70.6983V72.6883L89.8896 75.3283L84.0398 78.2583L80.2297 80.1583L75.1697 82.6883V80.6983C75.1697 79.2083 75.1097 77.7083 74.9797 76.1983C74.8497 74.6283 74.6496 73.0483 74.3796 71.4383C73.9096 68.5683 73.2098 65.6383 72.2898 62.6583C72.2198 62.4283 72.1496 62.1983 72.0696 61.9783C70.1796 56.0083 67.6397 50.2883 64.4697 44.8183C61.1797 39.1383 57.2996 33.9083 52.8496 29.1383C50.8996 27.0383 48.8798 25.1083 46.7998 23.3683C44.1598 21.1583 41.4196 19.2283 38.5896 17.5983C37.6296 17.0483 36.6898 16.5383 35.7598 16.0683L35.5398 15.6983C35.4698 15.7583 35.4096 15.8183 35.3496 15.8783C31.8696 14.2083 28.5396 13.1683 25.3696 12.7783C25.0196 12.7283 24.6696 12.6883 24.3196 12.6583C20.5696 12.3583 17.2396 12.8383 14.3096 14.1283L32.3096 5.15828L32.3496 5.12831C32.4596 5.06831 32.5797 4.9983 32.6997 4.9283C35.9997 3.0483 39.8696 2.29828 44.3196 2.65828C48.7696 3.02828 53.5196 4.66828 58.5896 7.59828C63.6496 10.5183 68.3996 14.3583 72.8496 19.1383C77.2996 23.9083 81.1797 29.1383 84.4697 34.8183C87.7597 40.4983 90.3698 46.4383 92.2898 52.6583C94.2098 58.8783 95.1697 64.8883 95.1697 70.6983Z" class="pr-icon-iso-duotone-primary-stroke" stroke-linejoin="round"/>
</svg>