<svg width="48" height="48" viewBox="0 0 94 122" fill="#c8e7ff" xmlns="http://www.w3.org/2000/svg" stroke-width="1px" stroke-linecap="round" stroke-linejoin="round"><path d="M22 49.5741C21.82 49.6441 21.64 49.7441 21.47 49.8541L22 49.5941L22.1499 49.5141C22.0999 49.5141 22.05 49.5441 22 49.5741ZM27.5498 86.3141C21.2798 76.0841 17.18 68.6841 15.25 64.1041C13.32 59.5241 12.3599 55.2541 12.3599 51.2841C12.3599 49.6341 12.56 48.1141 12.96 46.7341C13.36 45.3441 13.9399 44.1741 14.6899 43.2241L2 35.8941V79.4841L35.1499 98.6241L27.5498 86.3141Z" stroke="#229EFF" stroke-linejoin="round"/><path d="M71.0596 59.9141C71.0596 60.7041 71.0096 61.4241 70.8896 62.0841C70.5396 64.2641 69.5796 65.7841 68.0396 66.6441C66.3396 67.5741 64.3496 67.5341 62.0496 66.5141C61.6096 66.3241 61.1697 66.0941 60.7097 65.8241C57.7797 64.1341 55.3196 61.5741 53.3296 58.1441C52.6496 56.9741 52.0896 55.8141 51.6396 54.6541C50.7796 52.4141 50.3496 50.1741 50.3496 47.9541C50.3496 47.3041 50.3897 46.7141 50.4597 46.1541C50.5797 45.2841 50.7796 44.5141 51.0696 43.8441C51.5696 42.7041 52.3196 41.8441 53.3296 41.2541L53.9497 40.9441C55.5797 40.2641 57.4997 40.4541 59.7097 41.5241C60.0397 41.6741 60.3697 41.8541 60.7097 42.0541C63.5897 43.7141 66.0296 46.2841 68.0496 49.7541C69.2096 51.7541 70.0395 53.7342 70.5295 55.6842C70.8895 57.1142 71.0696 58.5241 71.0696 59.9141H71.0596Z" stroke="#229EFF" stroke-linejoin="round"/><path d="M22.72 32.0041C22.72 33.6341 22.48 35.0142 22 36.1142C21.5 37.2842 20.73 38.1542 19.7 38.7342C17.68 39.8442 15.2399 39.5742 12.3599 37.9142C10.3899 36.7842 8.63985 35.2641 7.09985 33.3441C6.33985 32.4041 5.62998 31.3642 4.97998 30.2342C2.98998 26.8142 2 23.4142 2 20.0442C2 16.6742 2.98998 14.5141 4.97998 13.3441L5.59985 13.0341C7.46985 12.2541 9.71986 12.6141 12.3599 14.1441C15.2399 15.8041 17.68 18.3741 19.7 21.8441C20.52 23.2641 21.1799 24.6741 21.6599 26.0641C21.7899 26.4141 21.9 26.7741 22 27.1241C22.48 28.7741 22.72 30.4041 22.72 32.0041Z" stroke="#229EFF" stroke-linejoin="round"/><path d="M22 49.5741V49.5941L22.1499 49.5141C22.0999 49.5141 22.05 49.5441 22 49.5741Z" stroke="#229EFF" stroke-linejoin="round"/><path d="M91.0593 49.9141C91.0593 53.2841 90.0493 55.5241 88.0393 56.6441L87.5093 56.9041L81.1895 60.0741L79.2593 61.0341L73.7095 63.8141L68.0393 66.6441C69.5793 65.7841 70.5394 64.2641 70.8894 62.0941C71.0094 61.4241 71.0593 60.7041 71.0593 59.9141C71.0593 58.5241 70.8793 57.1141 70.5193 55.6841C70.0293 53.7341 69.1993 51.7541 68.0393 49.7541C66.0193 46.2841 63.5795 43.7141 60.6995 42.0541C60.3595 41.8541 60.0295 41.6741 59.6995 41.5241C57.4895 40.4541 55.5695 40.2641 53.9395 40.9441L58.2793 38.7741L68.3794 33.7241L73.3193 31.2541C75.3093 30.0941 77.7695 30.3541 80.6995 32.0541C83.5795 33.7141 86.0193 36.2841 88.0393 39.7541C90.0493 43.2241 91.0593 46.6141 91.0593 49.9141Z" stroke="#229EFF" stroke-linejoin="round"/><path d="M91.0596 65.7641V109.354L71.0596 119.354V75.7641L80.6196 70.9841L91.0596 65.7641Z" stroke="#229EFF" stroke-linejoin="round"/><path d="M91.0593 65.7641L80.6194 70.9841L71.0593 75.7641L68.0193 74.0141L58.2793 68.3941L62.0393 66.5141C64.3393 67.5341 66.3293 67.5741 68.0293 66.6441L73.6995 63.8141L79.2495 61.0341L81.1794 60.0741L91.0493 65.7641H91.0593Z" stroke="#229EFF" stroke-linejoin="round"/><path d="M71.0591 75.7641V119.354L37.9092 100.214L45.4192 96.6241C51.5792 93.5741 55.6592 90.9041 57.6792 88.5941C59.6892 86.2941 60.6992 83.1641 60.6992 79.1941C60.6992 78.8241 60.6892 78.4441 60.6592 78.0641C60.6692 78.0541 60.6692 78.0441 60.6592 78.0241C60.5992 76.6941 60.4091 75.3441 60.0991 73.9941C59.6891 72.2441 59.0891 70.3741 58.2791 68.3941L68.019 74.0141L71.0591 75.7641Z" stroke="#229EFF" stroke-linejoin="round"/><path d="M55.1494 88.6241L35.1494 98.6241L27.5493 86.3141C21.2793 76.0841 17.1795 68.6841 15.2495 64.1041C13.3195 59.5241 12.3594 55.2541 12.3594 51.2841C12.3594 49.6341 12.5595 48.1141 12.9595 46.7341C13.3595 45.3441 13.9395 44.1741 14.6895 43.2241L21.9995 39.5741L26.9595 37.0941C27.2595 37.7041 27.5895 38.3241 27.9395 38.9341C29.1895 41.0941 30.5894 42.9541 32.1494 44.5141L22.1494 49.5141C22.0994 49.5141 22.0495 49.5441 21.9995 49.5741C21.8195 49.6441 21.6395 49.7441 21.4695 49.8541C19.9995 50.8241 19.2593 52.6341 19.2593 55.2741C19.2593 57.6841 20.1695 60.8841 21.9995 64.8641C22.2195 65.3641 22.4595 65.8641 22.7195 66.3841C23.4095 67.7841 24.2994 69.4641 25.3894 71.4441C27.9494 76.0741 31.6395 82.2841 36.4395 90.0541C38.8395 88.9641 40.9493 87.9441 42.7993 86.9941L43.1494 86.8141L47.8894 84.4341L51.4595 82.6441L55.1494 88.6241Z" stroke="#229EFF" stroke-linejoin="round"/><path d="M48.6094 41.0141C48.6094 41.1441 48.6094 41.2641 48.5994 41.3841C48.5294 45.0841 47.3593 47.5541 45.0793 48.8341C43.5593 49.6841 41.8294 49.8541 39.8994 49.3441C38.8394 49.0641 37.7093 48.5841 36.5293 47.9041C35.1393 47.1041 33.8394 46.1341 32.6294 44.9841C32.4694 44.8341 32.2994 44.6741 32.1494 44.5141C30.5894 42.9541 29.1895 41.0941 27.9395 38.9341C27.5895 38.3241 27.2595 37.7041 26.9595 37.0941C26.6895 36.5541 26.4395 36.0141 26.2195 35.4741C25.0695 32.7241 24.4695 29.9941 24.4395 27.3041V27.0641C24.4395 24.7441 24.8695 22.8741 25.7295 21.4641C26.2795 20.5441 27.0195 19.8141 27.9395 19.2741L28.6694 18.9041H28.7095C30.8895 17.9941 33.4993 18.4241 36.5293 20.1741C38.6593 21.4041 40.5993 23.0641 42.3293 25.1741C43.3093 26.3641 44.2293 27.6941 45.0793 29.1641C47.4393 33.2341 48.6094 37.1841 48.6094 41.0141Z" stroke="#229EFF" stroke-linejoin="round"/><path d="M40.3596 13.0641L28.7097 18.8941H28.6697C28.4197 19.0141 28.1797 19.1341 27.9397 19.2741C27.0197 19.8141 26.2797 20.5441 25.7297 21.4641C24.8697 22.8741 24.4397 24.7441 24.4397 27.0641V27.3041C24.4697 29.9941 25.0697 32.7241 26.2197 35.4741L21.9998 37.5841L19.6997 38.7341C20.7297 38.1541 21.4998 37.2841 21.9998 36.1141C22.4798 35.0141 22.7197 33.6341 22.7197 32.0041C22.7197 30.3741 22.4798 28.7741 21.9998 27.1241C21.8998 26.7741 21.7897 26.4141 21.6597 26.0641C21.1797 24.6741 20.5197 23.2641 19.6997 21.8441C17.6797 18.3741 15.2396 15.8041 12.3596 14.1441C9.71962 12.6141 7.46961 12.2541 5.59961 13.0341L24.9797 3.34412C26.9597 2.18412 29.4196 2.44411 32.3596 4.14411C35.2396 5.80411 37.6797 8.37412 39.6997 11.8441C39.9297 12.2541 40.1596 12.6541 40.3596 13.0641Z" stroke="#229EFF" stroke-linejoin="round"/><path d="M68.6099 31.0141C68.6099 32.0041 68.5399 32.9041 68.3799 33.7241L58.2798 38.7741L53.9399 40.9441L53.3198 41.2541C52.3098 41.8441 51.5598 42.7041 51.0598 43.8441C50.7698 44.5141 50.57 45.2841 50.45 46.1441L45.0798 48.8341C47.3598 47.5541 48.5299 45.0841 48.5999 41.3841C48.6099 41.2641 48.6099 41.1441 48.6099 41.0141C48.6099 37.1841 47.4398 33.2341 45.0798 29.1641C44.2298 27.6941 43.3098 26.3642 42.3298 25.1742C40.5998 23.0642 38.6598 21.4042 36.5298 20.1742C33.4998 18.4242 30.89 17.9941 28.71 18.8941L40.3599 13.0641L47.9399 9.27413C50.2699 7.91413 53.1298 8.21415 56.5298 10.1742C59.8698 12.0942 62.7198 15.0941 65.0798 19.1641C67.4398 23.2341 68.6099 27.1841 68.6099 31.0141Z" stroke="#229EFF" stroke-linejoin="round"/><path d="M51.6304 54.6541C49.0104 55.9141 46.1403 57.3141 43.8003 58.5041C41.4403 59.7041 39.6104 60.6841 39.1204 61.0941L38.7903 61.2941L36.4404 62.7141L33.8503 58.1541C33.0503 56.6941 32.1303 55.2741 31.0903 53.8841C30.0503 52.4941 28.7604 51.3441 27.2104 50.4441C25.2004 49.2841 23.5104 48.9741 22.1504 49.5141L32.1504 44.5141C32.3004 44.6741 32.4704 44.8341 32.6304 44.9841C33.8404 46.1341 35.1403 47.1041 36.5303 47.9041C37.7103 48.5841 38.8404 49.0641 39.9004 49.3441C41.8304 49.8541 43.5603 49.6841 45.0803 48.8341L50.4504 46.1541C50.3804 46.7141 50.3403 47.3041 50.3403 47.9541C50.3403 50.1741 50.7704 52.4141 51.6304 54.6541Z" stroke="#229EFF" stroke-linejoin="round"/><path d="M26.96 37.0941L22 39.5741L14.6899 43.2241L2 35.8941L7.09985 33.3441C8.63985 35.2641 10.3899 36.7841 12.3599 37.9141C15.2399 39.5741 17.68 39.8441 19.7 38.7341L22 37.5841L26.22 35.4741C26.44 36.0141 26.69 36.5541 26.96 37.0941Z" stroke="#229EFF" stroke-linejoin="round"/><path d="M53.7898 75.2141C53.7898 75.3841 53.7898 75.5441 53.7798 75.7141C53.6598 77.9841 52.7099 80.0041 50.9099 81.7541C50.6899 81.9841 50.46 82.1941 50.21 82.4041C49.53 82.9841 48.6599 83.6041 47.6099 84.2741C46.3799 85.0541 44.8899 85.9041 43.1499 86.8141L42.7998 86.9941C40.9498 87.9441 38.8399 88.9641 36.4399 90.0541C31.6399 82.2841 27.9499 76.0741 25.3899 71.4441C24.2999 69.4641 23.41 67.7841 22.72 66.3841C22.46 65.8641 22.22 65.3641 22 64.8641C20.17 60.8841 19.2598 57.6841 19.2598 55.2741C19.2598 52.6341 20 50.8241 21.47 49.8541L22 49.5941L22.1499 49.5141C23.5099 48.9741 25.2 49.2841 27.21 50.4441C28.76 51.3441 30.0498 52.4941 31.0898 53.8841C32.1298 55.2741 33.0499 56.6941 33.8499 58.1541L36.4399 62.7141L38.7898 61.2941L39.1199 61.0941C39.9799 60.5341 40.9899 60.2241 42.1399 60.1641C43.0499 60.1141 44.0098 60.3241 45.0298 60.7941C45.2998 60.9141 45.5699 61.0541 45.8499 61.2141C48.0399 62.4741 49.91 64.4641 51.46 67.1741C53.02 69.8941 53.7898 72.5641 53.7898 75.2141Z" stroke="#229EFF" stroke-linejoin="round"/><path d="M60.1001 73.9941C60.4101 75.3441 60.6002 76.6941 60.6602 78.0241C60.6702 78.0441 60.6702 78.0541 60.6602 78.0641C59.9702 78.4041 59.26 78.7441 58.51 79.1041L58.4402 79.1341L51.4602 82.6441L47.8901 84.4341L43.1501 86.8141C44.8901 85.9041 46.3801 85.0541 47.6101 84.2741C48.6601 83.6041 49.5302 82.9841 50.2102 82.4041C50.4602 82.1941 50.6902 81.9841 50.9102 81.7541C52.7102 80.0041 53.66 77.9841 53.78 75.7141C53.79 75.5441 53.79 75.3841 53.79 75.2141C53.79 72.5641 53.0202 69.8941 51.4602 67.1741C49.9102 64.4641 48.0401 62.4741 45.8501 61.2141C45.5701 61.0541 45.3 60.9141 45.03 60.7941C44.01 60.3241 43.0501 60.1141 42.1401 60.1641C40.9901 60.2241 39.9801 60.5341 39.1201 61.0941C39.6101 60.6841 41.44 59.7041 43.8 58.5041C46.14 57.3141 49.0101 55.9141 51.6301 54.6541C52.0801 55.8141 52.6401 56.9741 53.3201 58.1441C55.3101 61.5741 57.7702 64.1341 60.7002 65.8241C61.1602 66.0941 61.6 66.3241 62.04 66.5141L58.28 68.3941C59.09 70.3741 59.6901 72.2441 60.1001 73.9941Z" stroke="#229EFF" stroke-linejoin="round"/></svg>