<svg width="24" height="24" viewBox="0 0 97 123" class="pr-icon-iso-duotone-secondary" xmlns="http://www.w3.org/2000/svg" stroke-width="1px" stroke-linecap="round" stroke-linejoin="round">
    <path d="M29.8105 51.3079C29.8105 51.3679 29.8206 51.4279 29.8306 51.4879L29.8906 51.4479L29.8105 51.3079Z" class="pr-icon-iso-duotone-primary-stroke" stroke-linejoin="round"/>
    <path d="M74.3505 95.0379C74.3505 97.2279 74.2204 99.278 73.9304 101.198C73.4904 104.298 72.6905 107.068 71.5205 109.488C71.4005 109.738 71.2804 109.988 71.1504 110.238C69.3104 113.788 66.8705 116.428 63.8405 118.148C60.6105 119.998 56.8004 120.738 52.4304 120.378C48.0604 120.018 43.3904 118.398 38.4204 115.528C33.4404 112.658 28.7704 108.878 24.4004 104.188C20.0304 99.5079 16.2205 94.3679 12.9905 88.7879C9.76048 83.2079 7.20042 77.3679 5.31042 71.2579C3.42042 65.1579 2.48047 59.248 2.48047 53.548V51.688C2.48047 51.068 2.5404 50.488 2.6604 49.938L9.67041 56.4579V57.698C9.67041 66.908 12.4505 76.318 18.0205 85.918C23.5905 95.528 30.3904 102.648 38.4204 107.288C46.4404 111.918 53.2404 112.648 58.8104 109.468C59.8904 108.848 60.8705 108.118 61.7305 107.278C63.5505 105.528 64.9104 103.288 65.8004 100.548C66.4604 98.598 66.8704 96.408 67.0504 93.958C67.1004 93.348 67.1404 92.7179 67.1504 92.0679C67.1604 91.6779 67.1704 91.288 67.1704 90.888C67.1704 88.148 66.9204 85.3979 66.4204 82.6279C65.2704 76.0779 62.7304 69.428 58.8104 62.668C58.4304 62.008 58.0405 61.358 57.6405 60.718C57.6105 60.668 57.5804 60.628 57.5504 60.578C54.1704 55.148 50.3605 50.568 46.1305 46.858C44.8105 45.688 43.4404 44.608 42.0304 43.628C41.8504 43.488 41.6705 43.358 41.4805 43.238C40.4805 42.548 39.4604 41.908 38.4204 41.308L37.3405 40.6779L36.9604 39.0679L35.1804 31.3979C35.7204 31.5679 36.2604 31.808 36.8004 32.118L38.4204 33.058C41.9004 35.068 45.2304 37.5179 48.4104 40.4279C49.0804 41.0279 49.7405 41.658 50.3905 42.308C50.9305 42.828 51.4605 43.3779 51.9905 43.9279C52.1305 44.0779 52.2804 44.2379 52.4304 44.3979C56.8004 49.0879 60.6105 54.218 63.8405 59.798C67.0805 65.378 69.6405 71.218 71.5205 77.328C71.6105 77.618 71.7004 77.8979 71.7804 78.1879C73.0104 82.3279 73.7904 86.3879 74.1504 90.3479C74.2804 91.9279 74.3505 93.4879 74.3505 95.0379Z" class="pr-icon-iso-duotone-primary-stroke" stroke-linejoin="round"/>
    <path d="M40.2104 69.2479L35.7904 71.7679L33.1105 73.2979L29.6804 67.3779L24.8605 59.0679L24.5105 58.4479L22.5704 55.1079L20.2804 51.1579L17.7505 46.7979L15.4004 53.5879L13.2605 59.7679L12.2205 55.1879L10.1704 46.1779L2.48047 12.3079L30.6504 38.2679L35.6504 42.8679L38.4204 45.4279L35.0005 44.7479L31.9905 44.1579L25.9104 42.9579L24.8505 42.7479L27.6005 47.4879L29.8104 51.3079C29.8104 51.3679 29.8204 51.4279 29.8304 51.4879L29.8905 51.4479L32.1904 55.4079L37.0005 63.7179L40.2104 69.2479Z" class="pr-icon-iso-duotone-primary-stroke" stroke-linejoin="round"/>
    <path d="M59.9806 86.7477C59.9806 87.8177 59.9306 88.8377 59.8206 89.7977C59.5306 92.6077 58.8006 94.9377 57.6406 96.8177C56.6406 98.4277 55.3206 99.6977 53.6906 100.638C53.2106 100.918 52.7106 101.158 52.2006 101.348C48.3106 102.868 43.7205 102.098 38.4205 99.0377C32.6105 95.6777 27.6306 90.5478 23.5006 83.6178C19.3706 76.6978 17.1506 69.8577 16.8506 63.0777L24.4005 70.0177C25.1805 74.1777 26.8605 78.1877 29.4305 82.0477C32.0105 85.9077 35.0005 88.8177 38.4205 90.7877C40.0305 91.7177 41.5506 92.3277 42.9606 92.5977C45.0306 93.0277 46.9006 92.7578 48.5706 91.8078C49.0206 91.5478 49.4305 91.2577 49.8105 90.9177C51.3705 89.5477 52.3205 87.5278 52.6505 84.8678C52.7505 84.1578 52.7905 83.3977 52.7905 82.5977C52.7905 80.0477 52.3606 77.4577 51.4806 74.8177C51.0106 73.3877 50.4106 71.9477 49.6906 70.4977C48.9406 68.9877 48.1106 67.5677 47.2106 66.2477C47.1206 66.1177 47.0306 65.9977 46.9506 65.8777C46.4506 65.1677 45.9306 64.4877 45.3806 63.8277C44.5106 62.7877 43.5906 61.8077 42.6106 60.9177C42.3206 60.6377 42.0306 60.3777 41.7406 60.1277L41.0106 56.8977L39.4906 50.1777C44.4006 53.2977 48.6506 57.6477 52.2506 63.2277C52.3406 63.3477 52.4206 63.4777 52.5006 63.5977C53.0306 64.4477 53.5505 65.3077 54.0505 66.2077C56.9505 71.3577 58.7905 76.4177 59.5605 81.3877C59.8405 83.1877 59.9806 84.9777 59.9806 86.7477Z" class="pr-icon-iso-duotone-primary-stroke" stroke-linejoin="round"/>
    <path d="M41.4807 43.2378L41.7806 43.7478L42.0306 43.6278C41.8506 43.4878 41.6707 43.3578 41.4807 43.2378ZM82.3207 108.908C82.8407 108.688 83.3507 108.428 83.8407 108.148L82.3207 108.908ZM24.5107 58.4478C24.5607 58.6878 24.6307 58.9178 24.6907 59.1578L24.8607 59.0678L24.5107 58.4478Z" class="pr-icon-iso-duotone-primary-stroke" stroke-linejoin="round"/>
    <path d="M65.7999 100.548C64.9099 103.288 63.55 105.528 61.73 107.278C60.87 108.118 59.8899 108.848 58.8099 109.468C53.2399 112.648 46.4399 111.918 38.4199 107.288C30.3899 102.648 23.59 95.5279 18.02 85.9179C12.45 76.3179 9.66992 66.9079 9.66992 57.6979V56.4579L12.22 55.1879L13.26 59.7679L22.5699 55.1079L24.51 58.4479C24.56 58.6879 24.6299 58.9179 24.6899 59.1579L16.85 63.0779C17.15 69.8579 19.37 76.6979 23.5 83.6179C27.63 90.5479 32.6099 95.6779 38.4199 99.0379C43.7199 102.098 48.31 102.868 52.2 101.348C52.71 101.158 53.2099 100.918 53.6899 100.638L59.35 97.8079C61.6 99.0379 63.7499 99.9579 65.7999 100.548Z" class="pr-icon-iso-duotone-primary-stroke" stroke-linejoin="round"/>
    <path d="M41.4805 43.2379L41.7804 43.7479L38.4204 45.4279L35.6504 42.8679L30.6504 38.2679L2.48047 12.3079L22.4805 2.30786L47.4104 25.2779L35.1804 31.3979L36.9604 39.0679L37.3405 40.6779L38.4204 41.3079C39.4604 41.9079 40.4805 42.5479 41.4805 43.2379Z" class="pr-icon-iso-duotone-primary-stroke" stroke-linejoin="round"/>
    <path d="M42.0303 43.6279L41.7803 43.7479" class="pr-icon-iso-duotone-primary-stroke" stroke-linejoin="round"/>
    <path d="M12.2202 55.1877L9.67017 56.4577L2.66016 49.9377L10.1702 46.1777L12.2202 55.1877Z" class="pr-icon-iso-duotone-primary-stroke" stroke-linejoin="round"/>
    <path d="M94.3507 85.0379C94.3507 90.7479 93.4108 95.568 91.5208 99.488C89.6408 103.418 87.0807 106.308 83.8407 108.148L63.8407 118.148C66.8707 116.428 69.3106 113.788 71.1506 110.238C71.2806 109.988 71.4008 109.738 71.5208 109.488C72.6908 107.068 73.4907 104.298 73.9307 101.198C74.2207 99.278 74.3507 97.2279 74.3507 95.0379C74.3507 93.4879 74.2806 91.9279 74.1506 90.3479C73.7906 86.3879 73.0106 82.3279 71.7806 78.1879C71.7006 77.8979 71.6108 77.618 71.5208 77.328C69.6408 71.218 67.0807 65.378 63.8407 59.798C60.6107 54.218 56.8007 49.0879 52.4307 44.3979C52.2807 44.2379 52.1307 44.0779 51.9907 43.9279C51.4607 43.3779 50.9307 42.828 50.3907 42.308C49.7407 41.658 49.0806 41.0279 48.4106 40.4279C45.2306 37.5179 41.9007 35.068 38.4207 33.058L36.8007 32.118C36.2607 31.808 35.7207 31.5679 35.1807 31.3979L47.4106 25.278L55.1807 21.3979C55.7207 21.5679 56.2607 21.808 56.8007 22.118L58.4207 23.058C63.3907 25.928 68.0607 29.7079 72.4307 34.3979C76.8007 39.0879 80.6107 44.218 83.8407 49.798C87.0807 55.378 89.6408 61.218 91.5208 67.328C93.4108 73.428 94.3507 79.3379 94.3507 85.0379Z" class="pr-icon-iso-duotone-primary-stroke" stroke-linejoin="round"/>
    <path d="M29.6805 67.3779L27.8406 68.2979L24.4005 70.0179L16.8506 63.0779L24.6906 59.1579L24.8606 59.0679L29.6805 67.3779Z" class="pr-icon-iso-duotone-primary-stroke" stroke-linejoin="round"/>
    <path d="M46.9506 65.8778L46.2706 66.2178L40.9706 68.8678L40.2106 69.2478L37.0006 63.7178L32.1906 55.4078L29.8906 51.4478L29.8105 51.3078L27.6006 47.4878L24.8506 42.7478L25.9105 42.9578L31.9906 44.1578L35.0006 44.7478L38.4205 45.4278L41.7805 43.7478L44.1505 47.8478L39.4906 50.1778L41.0106 56.8978L41.7406 60.1278C42.0306 60.3778 42.3206 60.6378 42.6106 60.9178C43.5906 61.8078 44.5106 62.7878 45.3806 63.8278C45.9306 64.4878 46.4506 65.1678 46.9506 65.8778Z" class="pr-icon-iso-duotone-primary-stroke" stroke-linejoin="round"/>
    <path d="M52.7904 82.5979C52.7904 83.3979 52.7504 84.1579 52.6504 84.8679C52.3204 87.5279 51.3704 89.5479 49.8104 90.9179C49.4304 91.2579 49.0204 91.5479 48.5704 91.8079C46.9004 92.7579 45.0304 93.0279 42.9604 92.5979C41.5504 92.3279 40.0304 91.7179 38.4204 90.7879C35.0004 88.8179 32.0104 85.9079 29.4304 82.0479C26.8604 78.1879 25.1804 74.1779 24.4004 70.0179L27.8405 68.2979L29.6804 67.3779L33.1105 73.2979L35.8605 71.9179L41.1604 69.2779L46.4504 66.6279C47.2504 68.4579 48.2404 70.2679 49.4304 72.0479C50.0904 73.0279 50.7705 73.9579 51.4805 74.8179C52.3605 77.4579 52.7904 80.0479 52.7904 82.5979Z" class="pr-icon-iso-duotone-primary-stroke" stroke-linejoin="round"/>
    <path d="M47.2103 66.2479L46.4503 66.6279L41.1603 69.2779L35.8604 71.9179L33.1104 73.2979L35.7903 71.7679L40.2103 69.2479L40.9703 68.8679L46.2704 66.2179L46.9503 65.8779C47.0303 65.9979 47.1203 66.1179 47.2103 66.2479Z" class="pr-icon-iso-duotone-primary-stroke" stroke-linejoin="round"/>
    <path d="M67.1702 90.8879C67.1702 91.2879 67.1601 91.6779 67.1501 92.0679C67.1401 92.7179 67.1002 93.3479 67.0502 93.9579L59.3502 97.8079L53.6902 100.638C55.3202 99.6979 56.6403 98.4279 57.6403 96.8179C58.8003 94.9379 59.5302 92.6079 59.8202 89.7979C59.9302 88.8379 59.9802 87.8179 59.9802 86.7479C59.9802 84.9779 59.8402 83.1879 59.5602 81.3879C58.7902 76.4179 56.9502 71.3579 54.0502 66.2079C53.5502 65.3079 53.0302 64.4479 52.5002 63.5979C52.4202 63.4779 52.3402 63.3479 52.2502 63.2279C48.6502 57.6479 44.4002 53.2979 39.4902 50.1779L44.1501 47.8479L46.1302 46.8579C50.3602 50.5679 54.1702 55.1479 57.5502 60.5779C57.5802 60.6279 57.6103 60.6679 57.6403 60.7179C58.0403 61.3579 58.4302 62.0079 58.8102 62.6679C62.7302 69.4279 65.2702 76.0779 66.4202 82.6279C66.9202 85.3979 67.1702 88.1479 67.1702 90.8879Z" class="pr-icon-iso-duotone-primary-stroke" stroke-linejoin="round"/>
    <path d="M22.5707 55.1078L13.2607 59.7679L15.4006 53.5978V53.5878L17.7507 46.7979L20.2806 51.1579L22.5707 55.1078Z" class="pr-icon-iso-duotone-primary-stroke" stroke-linejoin="round"/>
</svg>