<svg width="48" height="48" viewBox="0 0 81 130" fill="#c8e7ff" xmlns="http://www.w3.org/2000/svg" stroke-width="1px" stroke-linecap="round" stroke-linejoin="round"><path d="M58.39 79.3174V127.857L54.37 125.527V76.9973C54.37 76.3773 54.16 75.7274 53.76 75.0274C53.36 74.3374 52.89 73.8273 52.35 73.5173C51.82 73.2073 51.3501 73.1673 50.9401 73.3973C50.5401 73.6273 50.3401 74.0574 50.3401 74.6674V80.4473L50.2001 80.3673L50.05 80.2774L46.3101 78.1173V75.9273C44.9401 74.4573 43.68 73.0274 42.53 71.6374C40.66 69.3574 39.1 67.1673 37.85 65.0873C36.49 62.8173 35.2401 60.2673 34.0901 57.4273C33.5401 56.0773 33.01 54.6573 32.51 53.1673C31.78 54.8973 31.19 57.1974 30.75 60.0674C30.32 62.9374 30.16 65.7973 30.3 68.6473L32.0801 72.5873L36.11 81.4574L36.97 83.3573L38.25 86.1773V116.227L30.2001 111.577V88.4673L28.7101 85.1473L25.77 78.6073L23.05 72.5473L22.14 88.4373L10.0601 99.9473L3.60999 90.6773L14.0901 80.6674V56.0473C14.0901 53.6673 14.2501 51.1573 14.5901 48.5373C14.9301 45.9273 15.43 43.6173 16.1 41.6173L10.0601 41.9373V58.3474L2 53.6973V31.9674L19.73 30.6474C20.54 30.5974 21.29 30.5673 22 30.5773C22.76 30.5873 23.47 30.6274 24.11 30.6974C25.35 30.8374 26.5101 31.2173 27.5801 31.8373C28.4501 32.3373 29.2801 33.0274 30.0601 33.9274C30.8001 34.7674 31.5 35.7774 32.16 36.9674C32.82 38.1474 33.54 39.5773 34.3 41.2573C35.13 43.0573 36.0101 45.1473 36.9501 47.5273C39.0901 52.9273 41.04 57.1673 42.79 60.2573C44.53 63.3473 46.4101 66.0073 48.4301 68.2473C49.1601 68.0573 49.8001 68.0073 50.3401 68.0873C50.8801 68.1573 51.51 68.4173 52.25 68.8373C53.93 69.8073 55.3701 71.3374 56.5801 73.4174C57.1601 74.4274 57.6 75.3974 57.9 76.3474C57.93 76.4374 57.96 76.5373 57.99 76.6273C58.1 77.0073 58.19 77.3873 58.25 77.7573C58.34 78.2873 58.39 78.8074 58.39 79.3174Z" stroke="#229EFF" stroke-linejoin="round"/><path d="M40.2701 27.2573C40.2701 29.7973 39.4801 31.5173 37.9001 32.4173C37.2201 32.8073 36.4902 32.9874 35.6902 32.9774C34.6302 32.9574 33.4702 32.5773 32.2102 31.8473C32.2002 31.8373 32.1802 31.8273 32.1702 31.8273C29.9802 30.5473 28.0901 28.5473 26.5201 25.8473C25.7201 24.4673 25.1201 23.0974 24.7301 21.7674C24.3501 20.4774 24.1602 19.2073 24.1602 17.9573C24.1602 15.4073 24.9401 13.6873 26.5201 12.7873C28.1001 11.8873 30.0002 12.0774 32.2102 13.3574C34.4302 14.6374 36.3201 16.6374 37.9001 19.3574C38.1701 19.8174 38.4101 20.2774 38.6301 20.7274C39.7201 22.9674 40.2701 25.1473 40.2701 27.2573Z" stroke="#229EFF" stroke-linejoin="round"/><path d="M28.7102 85.1473L27.2401 85.8874L22.1401 88.4373L23.0502 72.5473L25.7701 78.6073L28.7102 85.1473Z" stroke="#229EFF" stroke-linejoin="round"/><path d="M30.2001 88.4673V89.8173L30.0601 89.9473L10.0601 99.9473L22.14 88.4373L27.24 85.8873L28.7101 85.1473L30.2001 88.4673Z" stroke="#229EFF" stroke-linejoin="round"/><path d="M54.3698 76.9973V78.4373L50.3398 80.4473V74.6673C50.3398 74.0573 50.5398 73.6273 50.9398 73.3973C51.3498 73.1673 51.8197 73.2073 52.3497 73.5173C52.8897 73.8273 53.3598 74.3373 53.7598 75.0273C54.1598 75.7273 54.3698 76.3773 54.3698 76.9973Z" stroke="#229EFF" stroke-linejoin="round"/><path d="M78.3901 69.3174V117.857L58.3901 127.857V79.3174C58.3901 78.8074 58.3401 78.2874 58.2501 77.7574C58.1901 77.3874 58.1001 77.0074 57.9901 76.6274C57.9601 76.5374 57.9301 76.4374 57.9001 76.3474C57.6001 75.3974 57.1602 74.4274 56.5802 73.4174C55.3702 71.3374 53.9301 69.8074 52.2501 68.8374C51.5101 68.4174 50.8802 68.1574 50.3402 68.0874C49.8002 68.0074 49.1602 68.0574 48.4302 68.2474L53.5001 65.7074L62.2802 61.3274L68.4302 58.2474C69.1602 58.0574 69.8002 58.0074 70.3402 58.0874C70.8802 58.1574 71.5101 58.4174 72.2501 58.8374C73.9301 59.8074 75.3702 61.3374 76.5802 63.4174C77.7902 65.5074 78.3901 67.4674 78.3901 69.3174Z" stroke="#229EFF" stroke-linejoin="round"/><path d="M68.4301 58.2473L62.28 61.3273L53.5 65.7074L48.4301 68.2473C46.4101 66.0073 44.53 63.3473 42.79 60.2573C41.04 57.1673 39.0901 52.9273 36.9501 47.5273C36.0101 45.1473 35.13 43.0573 34.3 41.2573C33.54 39.5773 32.82 38.1473 32.16 36.9674C31.5 35.7773 30.8001 34.7673 30.0601 33.9273C29.2801 33.0273 28.4501 32.3373 27.5801 31.8373C26.5101 31.2173 25.35 30.8373 24.11 30.6973C23.47 30.6273 22.76 30.5873 22 30.5773C21.29 30.5673 20.54 30.5974 19.73 30.6474L2 31.9674L22 21.9674L24.73 21.7673C25.12 23.0973 25.72 24.4673 26.52 25.8473C28.09 28.5473 29.98 30.5473 32.17 31.8273C32.17 31.8273 32.2001 31.8373 32.2101 31.8473C33.4701 32.5773 34.6301 32.9573 35.6901 32.9773C36.4901 32.9873 37.22 32.8073 37.9 32.4173L51.38 25.6773C51.65 26.0773 51.91 26.5073 52.16 26.9674C53.54 29.4174 55.1301 32.9373 56.9501 37.5273C59.0901 42.9273 61.04 47.1673 62.79 50.2573C64.53 53.3473 66.4101 56.0073 68.4301 58.2473Z" stroke="#229EFF" stroke-linejoin="round"/><path d="M60.27 17.2574C60.27 19.7974 59.48 21.5173 57.9 22.4173L37.9 32.4173C39.48 31.5173 40.27 29.7973 40.27 27.2573C40.27 25.1473 39.72 22.9674 38.63 20.7274C38.41 20.2774 38.17 19.8174 37.9 19.3574C36.32 16.6374 34.4301 14.6374 32.2101 13.3574C30.0001 12.0774 28.1 11.8873 26.52 12.7873L46.52 2.78735C48.1 1.88735 50.0001 2.07735 52.2101 3.35735C54.4301 4.63735 56.32 6.63735 57.9 9.35735C59.48 12.0874 60.27 14.7174 60.27 17.2574Z" stroke="#229EFF" stroke-linejoin="round"/><path d="M16.1 41.6173C15.43 43.6173 14.9301 45.9273 14.5901 48.5373C14.2501 51.1573 14.0901 53.6673 14.0901 56.0473V56.3373L10.0601 58.3474V41.9373L16.1 41.6173Z" stroke="#229EFF" stroke-linejoin="round"/><path d="M50.0499 80.2774L38.2498 86.1774L36.9698 83.3574L36.1098 81.4574L32.0799 72.5874L30.2999 68.6474C30.1599 65.7974 30.3198 62.9374 30.7498 60.0674C31.1898 57.1974 31.7798 54.8974 32.5098 53.1674C33.0098 54.6574 33.5399 56.0774 34.0899 57.4274C35.2399 60.2674 36.4898 62.8174 37.8498 65.0874C39.0998 67.1674 40.6599 69.3574 42.5299 71.6374C43.6799 73.0274 44.9399 74.4574 46.3099 75.9274V78.1174L50.0499 80.2774Z" stroke="#229EFF" stroke-linejoin="round"/><path d="M54.37 78.4373V108.167L38.25 116.227V86.1773L50.05 80.2774L50.2001 80.3673L50.3401 80.4473L54.37 78.4373Z" stroke="#229EFF" stroke-linejoin="round"/></svg>