<svg width="48" height="48" viewBox="0 0 92 117" fill="#c8e7ff" xmlns="http://www.w3.org/2000/svg" stroke-width="1px" stroke-linecap="round" stroke-linejoin="round"><path d="M60.49 35.3959L53.48 38.8959L46.06 42.6158L40.49 45.3959L36.44 38.4059L21.25 12.2058L41.25 2.20581L60.49 35.3959Z" stroke="#229EFF" stroke-linejoin="round"/><path d="M60.4898 35.396L53.7598 39.376L46.0598 43.226L36.4398 48.036L33.7598 49.376L36.4398 47.7959L40.4898 45.396L46.0598 42.616L53.4798 38.896L60.4898 35.396Z" stroke="#229EFF" stroke-linejoin="round"/><path d="M46.0596 43.2257V62.1257L26.0596 72.1257V36.0957L33.7596 49.3757L36.4396 48.0358L46.0596 43.2257Z" stroke="#229EFF" stroke-linejoin="round"/><path d="M46.0596 92.9658L43.3796 94.5458L46.0596 99.1758V104.356L26.0596 114.356V92.2958L41.6896 84.4758C42.9796 84.9458 44.2996 85.5658 45.6596 86.3458C45.7896 86.4258 45.9296 86.4958 46.0596 86.5758V92.9658Z" stroke="#229EFF" stroke-linejoin="round"/><path d="M49.2696 76.0958L50.9596 79.0457C50.2296 78.4457 49.4696 77.8657 48.6696 77.3157C48.5796 77.2557 48.4996 77.1958 48.4096 77.1458C47.6896 76.6458 46.9396 76.1758 46.1496 75.7158C42.9096 73.8458 39.6796 72.5057 36.4396 71.6857C36.1496 71.6057 35.8496 71.5358 35.5596 71.4658C32.0296 70.6758 28.8596 70.8958 26.0596 72.1258L46.0596 62.1258C47.8996 61.3158 49.8896 60.9458 52.0496 61.0258L50.1096 61.9958L43.3796 65.8357L49.2696 76.0958Z" stroke="#229EFF" stroke-linejoin="round"/><path d="M69.36 95.1958L50.11 106.166L46.06 99.1758L43.38 94.5458L46.06 92.9658L50.96 90.0858C50.07 89.3958 49.19 88.7258 48.31 88.0758C47.56 87.5258 46.81 87.0258 46.06 86.5758C45.93 86.4958 45.79 86.4258 45.66 86.3458C44.3 85.5658 42.98 84.9458 41.69 84.4758C39.87 83.8158 38.12 83.4658 36.44 83.4258C35.5 83.3958 34.59 83.4759 33.7 83.6459C30.05 84.3459 27.5 87.2159 26.06 92.2759V114.356L16.44 108.806V30.5458L8.74 34.7958L2 23.1758L21.25 12.2058L36.44 38.4059L40.49 45.3959L36.44 47.7958L33.76 49.3759L26.06 36.0958V72.1259C28.86 70.8959 32.03 70.6758 35.56 71.4658C35.85 71.5358 36.15 71.6058 36.44 71.6858C39.68 72.5058 42.91 73.8458 46.15 75.7158C46.94 76.1758 47.69 76.6459 48.41 77.1459C48.5 77.1959 48.58 77.2558 48.67 77.3158C49.47 77.8658 50.23 78.4458 50.96 79.0458L49.27 76.0958L43.38 65.8358L50.11 61.9958L56.74 73.4258L69.36 95.1958Z" stroke="#229EFF" stroke-linejoin="round"/><path d="M89.3604 85.1958L69.5104 95.1259L69.3604 95.1958L56.7403 73.4258L50.1104 61.9958L52.0504 61.0259H52.0603L70.1104 51.9958L89.3604 85.1958Z" stroke="#229EFF" stroke-linejoin="round"/><path d="M89.3604 85.1958L70.1104 96.1658L50.1104 106.166L69.3604 95.1958L69.5104 95.1259L89.3604 85.1958Z" stroke="#229EFF" stroke-linejoin="round"/><path d="M41.6896 84.4757L26.0596 92.2956V92.2757C27.4996 87.2157 30.0496 84.3457 33.6996 83.6457C34.5896 83.4757 35.4996 83.3956 36.4396 83.4256C38.1196 83.4656 39.8696 83.8157 41.6896 84.4757Z" stroke="#229EFF" stroke-linejoin="round"/></svg>