<svg width="24" height="24" viewBox="0 0 120 124" class="pr-icon-iso-duotone-secondary" xmlns="http://www.w3.org/2000/svg" stroke-width="1px" stroke-linecap="round" stroke-linejoin="round">
    <path d="M90.7594 30.0904L79.3195 35.8104L70.7594 40.0904C67.8194 36.6304 64.7394 33.5504 61.5194 30.8604C61.2794 30.6504 61.0294 30.4405 60.7794 30.2405C58.1694 28.1205 55.5294 26.2005 52.8594 24.5205C51.9594 23.9405 51.0594 23.3904 50.1494 22.8704C47.5594 21.3804 45.0194 20.1104 42.5294 19.0904C41.4794 18.6504 40.4494 18.2605 39.4194 17.9105C38.8794 17.7305 38.3495 17.5605 37.8195 17.4105C37.7195 17.3805 37.6094 17.3504 37.5094 17.3204C37.2694 17.2604 37.0394 17.1905 36.7994 17.1305C36.1294 16.9605 35.4694 16.8104 34.7994 16.6904C34.6694 16.6604 34.5394 16.6404 34.4094 16.6104C34.2694 16.5904 34.1195 16.5705 33.9795 16.5505C33.6995 16.5005 33.4194 16.4604 33.1394 16.4304H33.1294C33.1294 16.4304 33.0895 16.4204 33.0695 16.4204C32.7895 16.3804 32.5194 16.3504 32.2494 16.3304C31.8594 16.2904 31.4795 16.2604 31.0995 16.2504C30.7295 16.2304 30.3495 16.2204 29.9795 16.2204C29.7995 16.2204 29.6195 16.2304 29.4395 16.2304L49.4395 6.23044C52.5995 6.16044 55.9294 6.72045 59.4194 7.91045C62.8994 9.10045 66.4794 10.7504 70.1494 12.8704C73.7494 14.9404 77.2894 17.4005 80.7794 20.2405C84.2694 23.0805 87.5894 26.3604 90.7594 30.0904Z" class="pr-icon-iso-duotone-primary-stroke" stroke-linejoin="round"/>
    <path d="M25.4991 23.5799L23.1992 24.7199L20.1992 26.2299C20.5592 24.8499 21.2992 23.9299 22.4192 23.4499C22.5792 23.3799 22.7492 23.3199 22.9292 23.2799C23.7092 23.0899 24.5691 23.1899 25.4991 23.5799Z" class="pr-icon-iso-duotone-primary-stroke" stroke-linejoin="round"/>
    <path d="M61.5197 41.0698V41.7898C60.6997 42.6398 60.0597 43.6898 59.5897 44.9698C59.0497 46.4298 58.7797 48.1499 58.7797 50.1299V68.9498C58.7797 70.1098 58.5797 71.1298 58.1897 72.0098C57.7897 72.8998 57.3797 73.7898 56.9497 74.6998C56.1597 75.8898 55.5297 77.1999 55.0597 78.6199C54.5897 80.0499 54.3596 81.7098 54.3596 83.5998C54.3596 85.4898 54.5797 87.4498 55.0297 89.5098C55.0697 89.7198 55.1197 89.9298 55.1697 90.1398C55.7097 92.4298 56.4796 94.6898 57.4896 96.9198C57.9196 97.9998 58.2797 99.0699 58.5697 100.15C58.5897 100.24 58.6196 100.33 58.6296 100.41L45.3997 107.03L42.2697 98.0499C41.9197 97.1799 41.6597 96.3298 41.5197 95.5098C41.3797 94.6798 41.2997 93.8498 41.2997 93.0298C41.2997 92.0398 41.4297 91.1599 41.6797 90.3999C41.9297 89.6399 42.3097 88.9898 42.8097 88.4498C43.8197 87.2998 44.5896 85.9098 45.1296 84.2798C45.6696 82.6598 45.9397 80.8098 45.9397 78.7498C45.9397 76.8498 45.6897 74.9099 45.1897 72.9299C44.6797 70.9399 44.0697 68.9198 43.3497 66.8498C42.8497 65.4898 42.4197 64.1298 42.0597 62.7598C41.6997 61.3998 41.5197 60.1398 41.5197 58.9798V40.1698C41.5197 38.1898 41.2497 36.1498 40.7097 34.0698C40.1697 31.9798 39.3996 29.9098 38.3896 27.8398C40.2596 28.2598 42.1797 28.8898 44.1597 29.7498C45.5297 30.3398 46.8997 30.9999 48.2797 31.7399C48.8997 32.0699 49.5297 32.4099 50.1497 32.7699C51.0597 33.2999 51.9796 33.8498 52.8896 34.4398C53.9796 35.1398 55.0596 35.8799 56.1396 36.6599C57.9796 37.9899 59.7697 39.4598 61.5197 41.0698Z" class="pr-icon-iso-duotone-primary-stroke" stroke-linejoin="round"/>
    <path d="M49.4401 6.23014L29.4401 16.2301C28.9301 15.7801 28.4301 15.3801 27.9301 15.0501C27.4201 14.7201 26.9201 14.4101 26.4201 14.1201C25.8401 13.7901 25.2802 13.4901 24.7302 13.2501C24.5102 13.1501 24.2901 13.0501 24.0701 12.9601H24.0601C21.1601 11.7601 18.5801 11.7001 16.3301 12.7501L36.3301 2.75014C39.1701 1.42014 42.5301 1.87014 46.4201 4.12014C46.9201 4.41014 47.4201 4.72015 47.9301 5.05015C48.4301 5.38015 48.9301 5.78014 49.4401 6.23014Z" class="pr-icon-iso-duotone-primary-stroke" stroke-linejoin="round"/>
    <path d="M108.77 55.7198L88.7698 65.7198C88.5998 63.4898 88.1498 61.2798 87.4098 59.0698C87.1098 58.1598 86.7597 57.2498 86.3597 56.3398C85.6997 54.8198 84.8998 53.3099 83.9698 51.7999C82.4098 49.2699 80.6798 47.0798 78.7798 45.2598C77.2198 43.7498 75.5598 42.4898 73.7798 41.4598C73.2698 41.1698 72.7698 40.8998 72.2698 40.6498C71.7598 40.3998 71.2598 40.2098 70.7598 40.0898L79.3198 35.8098L90.7598 30.0898C91.2598 30.2098 91.7598 30.3998 92.2698 30.6498C92.7698 30.8998 93.2698 31.1698 93.7798 31.4598C97.7298 33.7398 101.13 37.1899 103.97 41.7999C106.81 46.4099 108.41 51.0498 108.77 55.7198Z" class="pr-icon-iso-duotone-primary-stroke" stroke-linejoin="round"/>
    <path d="M80.1393 60.9801C79.5893 60.9001 79.0593 60.8801 78.5493 60.9001C77.7393 60.9301 76.9793 61.1001 76.2793 61.3901L78.6793 60.1901L79.8093 59.6201C79.9393 60.0701 80.0493 60.5301 80.1393 60.9801Z" class="pr-icon-iso-duotone-primary-stroke" stroke-linejoin="round"/>
    <path d="M97.6196 84.9406C97.6196 89.0606 96.3597 91.8406 93.8397 93.2806C91.9297 94.3706 89.6997 94.4406 87.1497 93.5006C86.3497 93.2006 85.5297 92.8106 84.6697 92.3206C81.4597 90.4606 78.6697 87.6906 76.3097 84.0206C76.0397 83.5906 75.7596 83.1506 75.4996 82.6906C72.9896 78.3506 71.7297 74.1106 71.7297 69.9906C71.7297 66.8506 72.5197 64.4806 74.0997 62.8806C74.5597 62.4106 75.0597 62.0206 75.5997 61.7306L76.1797 61.4406L76.2797 61.3906C76.9797 61.1006 77.7397 60.9306 78.5497 60.9006C79.0597 60.8806 79.5896 60.9006 80.1396 60.9806C80.0496 60.5306 79.9397 60.0706 79.8097 59.6206C79.5497 58.7606 79.2097 57.9006 78.7797 57.0506C78.5097 56.5206 78.2096 55.9906 77.8796 55.4606C76.7296 53.6406 75.3597 52.2806 73.7797 51.3606C71.9797 50.3306 70.4696 50.1806 69.2496 50.9106C68.0196 51.6506 67.4097 53.0506 67.4097 55.1206V73.9306C67.4097 75.6706 67.1597 77.2106 66.6597 78.5706C66.1497 79.9306 65.5797 81.2106 64.9297 82.4106C64.4297 83.2706 63.9797 84.1706 63.5797 85.0906C63.1897 86.0206 62.9896 87.1406 62.9896 88.4606C62.9896 89.1606 63.0397 89.8806 63.1597 90.5906C63.2197 91.0606 63.3097 91.5206 63.4197 91.9906C63.7097 93.1906 64.1397 94.4106 64.7097 95.6506C64.9097 96.1106 65.0997 96.5706 65.2697 97.0306C65.2797 97.0506 65.2897 97.0706 65.2897 97.0906C65.9597 98.7906 66.4796 100.481 66.8696 102.161C67.3796 104.311 67.6296 106.331 67.6296 108.231C67.6296 109.791 67.4696 111.231 67.1396 112.531C66.8196 113.831 66.3697 115.011 65.7897 116.081L62.6697 121.461L54.8997 112.511L58.0297 107.141C58.3897 106.691 58.6397 106.131 58.7797 105.471C58.9197 104.811 58.9996 104.071 58.9996 103.241C58.9996 102.331 58.8696 101.391 58.6296 100.411C58.6196 100.331 58.5897 100.241 58.5697 100.151C58.2797 99.0706 57.9196 98.0006 57.4896 96.9206C56.4796 94.6906 55.7097 92.4306 55.1697 90.1406C55.1197 89.9306 55.0697 89.7206 55.0297 89.5106C54.5797 87.4506 54.3596 85.4806 54.3596 83.6006C54.3596 81.7206 54.5897 80.0506 55.0597 78.6206C55.5297 77.2006 56.1597 75.8906 56.9497 74.7006C57.3797 73.7906 57.7897 72.9006 58.1897 72.0106C58.5797 71.1306 58.7797 70.1106 58.7797 68.9506V50.1306C58.7797 48.1506 59.0497 46.4306 59.5897 44.9706C60.0597 43.6906 60.6997 42.6406 61.5197 41.7906C61.6497 41.6606 61.7797 41.5406 61.9097 41.4206C61.7797 41.3006 61.6497 41.1806 61.5197 41.0706C59.7697 39.4606 57.9796 37.9906 56.1396 36.6606C55.0596 35.8806 53.9796 35.1406 52.8896 34.4406C51.9796 33.8506 51.0597 33.3006 50.1497 32.7706C49.5297 32.4106 48.8997 32.0706 48.2797 31.7406C46.8997 31.0006 45.5297 30.3406 44.1597 29.7506C42.1797 28.8906 40.2596 28.2606 38.3896 27.8406C39.3996 29.9106 40.1697 31.9806 40.7097 34.0706C41.2497 36.1506 41.5197 38.1906 41.5197 40.1706V58.9806C41.5197 60.1406 41.6997 61.4006 42.0597 62.7606C42.4197 64.1306 42.8497 65.4906 43.3497 66.8506C44.0697 68.9206 44.6797 70.9406 45.1897 72.9306C45.6897 74.9106 45.9397 76.8506 45.9397 78.7506C45.9397 80.8106 45.6696 82.6606 45.1296 84.2806C44.5896 85.9106 43.8197 87.3006 42.8097 88.4506C42.3097 88.9906 41.9297 89.6406 41.6797 90.4006C41.4297 91.1606 41.2997 92.0406 41.2997 93.0306C41.2997 93.8506 41.3797 94.6806 41.5197 95.5106C41.6597 96.3306 41.9197 97.1806 42.2697 98.0506L45.3997 107.031L37.6396 107.001L34.5096 98.0206C33.8596 96.2406 33.3897 94.5306 33.0997 92.8806C32.8197 91.2206 32.6697 89.6106 32.6697 88.0506C32.6697 86.1506 32.9096 84.4006 33.3696 82.8206C33.8396 81.2306 34.5797 79.9006 35.5897 78.8306C36.1597 78.2606 36.5896 77.5406 36.8796 76.6706C37.1696 75.8106 37.3097 74.8006 37.3097 73.6406C37.3097 72.3206 37.0997 70.9606 36.6597 69.5506L35.3696 65.3406C34.6496 63.3506 34.0597 61.4006 33.5897 59.4806C33.1197 57.5606 32.8896 55.7306 32.8896 54.0006V35.1806C32.8896 33.1206 32.2596 31.0006 30.9996 28.8306C29.7396 26.6606 28.2097 25.0606 26.4197 24.0206C26.0997 23.8406 25.7996 23.6906 25.4996 23.5806C24.5696 23.1906 23.7097 23.0906 22.9297 23.2806C22.7497 23.3206 22.5797 23.3806 22.4197 23.4506C21.2997 23.9306 20.5597 24.8506 20.1997 26.2306C20.1797 26.2706 20.1697 26.3106 20.1597 26.3506C22.5997 28.8306 24.6197 31.7906 26.1997 35.2206C27.7797 38.6506 28.5697 41.9406 28.5697 45.0706C28.5697 49.2006 27.3097 51.9806 24.7997 53.4206C22.2797 54.8506 19.2197 54.5306 15.6297 52.4506C12.0297 50.3806 8.96966 47.1706 6.45966 42.8306C3.93966 38.4806 2.67969 34.2506 2.67969 30.1206C2.67969 26.8206 3.50967 24.3706 5.15967 22.7706C5.62967 22.3106 6.1397 21.9406 6.6897 21.6506L7.03967 21.4806C8.33967 20.9106 9.82966 20.7906 11.5297 21.1206C11.5897 20.4006 11.6897 19.7306 11.8197 19.0906C12.4697 15.9606 13.9697 13.8506 16.3297 12.7506C18.5797 11.7006 21.1597 11.7606 24.0597 12.9606H24.0697C24.2897 13.0506 24.5097 13.1506 24.7297 13.2506C25.2797 13.4906 25.8397 13.7906 26.4197 14.1206C26.9197 14.4106 27.4197 14.7206 27.9297 15.0506C28.4297 15.3806 28.9297 15.7806 29.4397 16.2306C29.6197 16.2306 29.7997 16.2206 29.9797 16.2206C30.3497 16.2206 30.7297 16.2306 31.0997 16.2506C31.4797 16.2606 31.8596 16.2906 32.2496 16.3306C32.5196 16.3506 32.7897 16.3806 33.0697 16.4206C33.0897 16.4206 33.1096 16.4306 33.1296 16.4306H33.1396C33.4196 16.4606 33.6997 16.5006 33.9797 16.5506C34.1197 16.5706 34.2697 16.5906 34.4097 16.6106C34.5397 16.6406 34.6697 16.6606 34.7997 16.6906C35.4697 16.8106 36.1297 16.9606 36.7997 17.1306C37.0397 17.1906 37.2696 17.2606 37.5096 17.3206C37.6096 17.3506 37.7197 17.3806 37.8197 17.4106C38.3497 17.5606 38.8797 17.7306 39.4197 17.9106C40.4497 18.2606 41.4797 18.6506 42.5297 19.0906C45.0197 20.1106 47.5597 21.3806 50.1497 22.8706C51.0597 23.3906 51.9596 23.9406 52.8596 24.5206C55.5296 26.2006 58.1697 28.1206 60.7797 30.2406C61.0297 30.4406 61.2797 30.6506 61.5197 30.8606C64.7397 33.5506 67.8196 36.6306 70.7596 40.0906C71.2596 40.2106 71.7597 40.4006 72.2697 40.6506C72.7697 40.9006 73.2697 41.1706 73.7797 41.4606C75.5597 42.4906 77.2197 43.7506 78.7797 45.2606C80.6797 47.0806 82.4097 49.2706 83.9697 51.8006C84.8997 53.3106 85.6996 54.8206 86.3596 56.3406C86.7596 57.2506 87.1097 58.1606 87.4097 59.0706C88.1497 61.2806 88.5997 63.4906 88.7697 65.7206C91.3597 68.2006 93.4796 71.2006 95.1396 74.7106C96.7896 78.2306 97.6196 81.6406 97.6196 84.9406Z" class="pr-icon-iso-duotone-primary-stroke" stroke-linejoin="round"/>
    <path d="M87.6299 98.2302C87.6299 99.7902 87.4699 101.23 87.1399 102.53C86.8199 103.83 86.3699 105.01 85.7899 106.08L82.6699 111.46L62.6699 121.46L65.7899 116.08C66.3699 115.01 66.8199 113.83 67.1399 112.53C67.4699 111.23 67.6299 109.79 67.6299 108.23C67.6299 106.33 67.3799 104.31 66.8699 102.16C66.4799 100.48 65.9599 98.7902 65.2899 97.0902L65.3999 97.0302H65.2699C65.0999 96.5702 64.91 96.1102 64.71 95.6502C64.14 94.4102 63.7099 93.1902 63.4199 91.9902C63.3099 91.5202 63.2199 91.0602 63.1599 90.5902C63.0399 89.8802 62.9899 89.1602 62.9899 88.4602C62.9899 87.1402 63.19 86.0202 63.58 85.0902C63.98 84.1702 64.4299 83.2702 64.9299 82.4102C65.5799 81.2102 66.1499 79.9302 66.6599 78.5702C67.1599 77.2102 67.4099 75.6702 67.4099 73.9302V55.1202C67.4099 53.0502 68.0199 51.6502 69.2499 50.9102C70.4699 50.1802 71.9799 50.3302 73.7799 51.3602C75.3599 52.2802 76.7299 53.6402 77.8799 55.4602C78.2099 55.9902 78.5099 56.5202 78.7799 57.0502C79.2099 57.9002 79.5499 58.7602 79.8099 59.6202L78.6799 60.1902L76.2799 61.3902L76.1799 61.4402L75.6 61.7302C75.06 62.0202 74.56 62.4102 74.1 62.8802C72.52 64.4802 71.73 66.8502 71.73 69.9902C71.73 74.1102 72.9899 78.3502 75.4999 82.6902C75.7599 83.1502 76.0399 83.5902 76.3099 84.0202C78.6699 87.6902 81.4599 90.4602 84.6699 92.3202C85.5299 92.8102 86.3499 93.2002 87.1499 93.5002C87.4699 95.1502 87.6299 96.7302 87.6299 98.2302Z" class="pr-icon-iso-duotone-primary-stroke" stroke-linejoin="round"/>
    <path d="M117.62 74.9397C117.62 79.0597 116.36 81.8397 113.84 83.2797L113.29 83.5497L93.8396 93.2797C96.3596 91.8397 97.6195 89.0597 97.6195 84.9397C97.6195 81.6397 96.7895 78.2297 95.1395 74.7097C93.4795 71.1997 91.3595 68.1997 88.7695 65.7197L108.77 55.7197C111.36 58.1997 113.48 61.1997 115.14 64.7097C116.79 68.2297 117.62 71.6397 117.62 74.9397Z" class="pr-icon-iso-duotone-primary-stroke" stroke-linejoin="round"/>
    <path d="M32.8901 35.1801V49.3801L24.8002 53.4201C27.3102 51.9801 28.5702 49.2001 28.5702 45.0701C28.5702 41.9401 27.7802 38.6501 26.2002 35.2201C24.6202 31.7901 22.6002 28.8301 20.1602 26.3501C20.1702 26.3101 20.1802 26.2701 20.2002 26.2301L23.2002 24.7201L25.5001 23.5801C25.8001 23.6901 26.1002 23.8401 26.4202 24.0201C28.2102 25.0601 29.7401 26.6601 31.0001 28.8301C32.2601 31.0001 32.8901 33.1201 32.8901 35.1801Z" class="pr-icon-iso-duotone-primary-stroke" stroke-linejoin="round"/>
    <path d="M37.9093 17.3701L37.8193 17.4101" class="pr-icon-iso-duotone-primary-stroke" stroke-linejoin="round"/>
    <path d="M11.8201 19.0898C11.6901 19.7298 11.59 20.3998 11.53 21.1198C9.83003 20.7898 8.34004 20.9098 7.04004 21.4798L11.8201 19.0898Z" class="pr-icon-iso-duotone-primary-stroke" stroke-linejoin="round"/>
</svg>