<svg width="48" height="48" viewBox="0 0 90 112" class="pr-icon-iso-duotone-secondary"
     xmlns="http://www.w3.org/2000/svg" stroke-width="1px" stroke-linecap="round" stroke-linejoin="round">
    <path d="M54.13 101.95V109.35L2.5 79.5501V20.3101L8.96 24.0401V75.8701L54.13 101.95Z" class="pr-icon-iso-duotone-primary-stroke" stroke-linejoin="round"/>
    <path d="M64.45 41.2702L57.99 37.5402L35.41 24.5002L28.96 20.7702L22.71 17.1702L22.5 17.0402L16.25 13.4402L15.41 12.9502V72.1902L15.83 72.4302L61 98.5202L67.03 102V42.7602L64.45 41.2702ZM54.13 68.6302L48.3 65.2602L44.45 63.0402V74.1502L37.99 70.4202V59.3102L35.41 57.8202L28.96 54.1002L28.32 53.7302V46.3202L28.96 46.6902L35.19 50.2902L35.41 50.4202L37.99 51.9102V40.8002L44.45 44.5302V55.6302L44.87 55.8702L51.33 59.6002L54.13 61.2202V68.6302Z" class="pr-icon-iso-duotone-primary-stroke" stroke-linejoin="round"/>
    <path d="M44.45 67.1904V74.1504L37.99 70.4204L44.25 67.2904L44.45 67.1904Z" class="pr-icon-iso-duotone-primary-stroke" stroke-linejoin="round"/>
    <path d="M35.1899 50.2903L28.9599 53.4103L28.3199 53.7303V46.3203L28.9599 46.6903L35.1899 50.2903Z" class="pr-icon-iso-duotone-primary-stroke" stroke-linejoin="round"/>
    <path d="M44.8699 55.8702L37.9899 59.3102L35.4099 57.8202L28.9599 54.1002L28.3199 53.7302L28.9599 53.4102L35.1899 50.2902L35.4099 50.4202L37.9899 51.9102L44.4499 48.6802V55.6302L44.8699 55.8702Z" class="pr-icon-iso-duotone-primary-stroke" stroke-linejoin="round"/>
    <path d="M51.33 59.6001L44.45 63.0401V67.1901L44.25 67.2901L37.99 70.4201V59.3101L44.87 55.8701L51.33 59.6001Z" class="pr-icon-iso-duotone-primary-stroke" stroke-linejoin="round"/>
    <path d="M44.45 44.5303V48.6803L37.99 51.9103V40.8003L44.45 44.5303Z" class="pr-icon-iso-duotone-primary-stroke" stroke-linejoin="round"/>
    <path d="M87.03 32.7603V92.0003L67.03 102V42.7603L87.03 32.7603Z" class="pr-icon-iso-duotone-primary-stroke" stroke-linejoin="round"/>
    <path d="M87.03 32.7602L67.03 42.7602L64.45 41.2702L57.99 37.5402L35.41 24.5002L28.96 20.7702L22.71 17.1702L22.5 17.0402L16.25 13.4402L15.41 12.9502L35.41 2.9502L87.03 32.7602Z" class="pr-icon-iso-duotone-primary-stroke" stroke-linejoin="round"/>
    <path d="M15.41 13.8604V20.8204L8.96 24.0404L2.5 20.3104L15.41 13.8604Z" class="pr-icon-iso-duotone-primary-stroke" stroke-linejoin="round"/>
    <path d="M74.13 98.4502V99.3502L54.13 109.35V101.95L61 98.5202L67.03 102L74.13 98.4502Z" class="pr-icon-iso-duotone-primary-stroke" stroke-linejoin="round"/>
    <path d="M15.83 72.4303L8.95996 75.8703V24.0403L15.41 20.8203V72.1903L15.83 72.4303Z" class="pr-icon-iso-duotone-primary-stroke" stroke-linejoin="round"/>
    <path d="M61 98.5202L54.13 101.95L8.95996 75.8702L15.83 72.4302L61 98.5202Z" class="pr-icon-iso-duotone-primary-stroke" stroke-linejoin="round"/>
    <path d="M54.13 61.2201V68.6301L48.2999 65.2601L44.45 63.0401L51.33 59.6001L54.13 61.2201Z" class="pr-icon-iso-duotone-primary-stroke" stroke-linejoin="round"/>
</svg>