<svg viewBox="0 0 93 116" class="pr-icon-iso-duotone-secondary" xmlns="http://www.w3.org/2000/svg" height="48"
     width="48" stroke-width="1px" stroke-linecap="round" stroke-linejoin="round">
    <path d="M65.28 74.438C66.61 73.678 68.2198 73.838 70.0898 74.918V51.478L58.8101 44.968L53.27 41.7679L22 23.718L2 12.168V35.608C3.87 36.688 5.48006 38.378 6.81006 40.678C8.14006 42.978 8.81006 45.208 8.81006 47.348C8.81006 47.518 8.81004 47.678 8.79004 47.838C8.70004 49.718 8.04006 51.018 6.81006 51.718C5.48006 52.478 3.87 52.318 2 51.238V74.678L70.0898 113.988V90.548C68.2198 89.468 66.61 87.778 65.28 85.478C63.95 83.178 63.28 80.948 63.28 78.798C63.28 76.648 63.95 75.198 65.28 74.438ZM43.8198 77.2679L45.4099 84.108L38.6499 74.288L36.04 70.498L33.3799 71.248L26.51 73.198L28.0999 68.198L30.0898 61.978L22 49.888L20.72 47.978L22 48.718L32.3 54.668L36.04 43.548L38.04 51.798L39.3899 57.328L39.79 58.988L46.5999 62.918L46.8101 63.038L46.8999 63.088L48.74 64.1479L49.8101 64.7679L51.3699 65.668L41.8298 68.758L43.8198 77.2679Z" class="pr-icon-iso-duotone-primary-stroke" stroke-linejoin="round"/>
    <path d="M48.7397 64.1481L36.0398 70.4981L33.3796 71.2481L26.5098 73.1981L32.9697 69.9681L36.1797 68.3581L46.5198 63.1781L46.8098 63.0381L46.8997 63.0881L48.7397 64.1481Z" class="pr-icon-iso-duotone-primary-stroke" stroke-linejoin="round"/>
    <path d="M51.3701 65.6681L41.8301 68.7581L49.8103 64.7681L51.3701 65.6681Z" class="pr-icon-iso-duotone-primary-stroke" stroke-linejoin="round"/>
    <path d="M43.8198 77.2679L45.4099 84.108L38.6499 74.288L36.04 70.498L48.74 64.1479L49.8101 64.7679L41.8298 68.758L43.8198 77.2679Z" class="pr-icon-iso-duotone-primary-stroke" stroke-linejoin="round"/>
    <path d="M38.0398 51.7979L32.2998 54.6678L36.0398 43.5479L38.0398 51.7979Z" class="pr-icon-iso-duotone-primary-stroke" stroke-linejoin="round"/>
    <path d="M39.3896 57.3281L30.0896 61.978L21.9998 49.8881L20.7197 47.978L21.9998 48.718L32.2998 54.668L38.0398 51.798L39.3896 57.3281Z" class="pr-icon-iso-duotone-primary-stroke" stroke-linejoin="round"/>
    <path d="M90.0898 80.5479V103.988L70.0898 113.988V90.5479L90.0898 80.5479Z" class="pr-icon-iso-duotone-primary-stroke" stroke-linejoin="round"/>
    <path d="M90.0901 80.5479L70.0901 90.5479C68.2201 89.4679 66.6103 87.7778 65.2803 85.4778C63.9503 83.1778 63.2803 80.9479 63.2803 78.7979C63.2803 76.6479 63.9503 75.1979 65.2803 74.4379C66.6103 73.6779 68.2201 73.8378 70.0901 74.9178L83.3003 68.3179C83.2803 68.4779 83.2803 68.6379 83.2803 68.7979C83.2803 70.9479 83.9503 73.1778 85.2803 75.4778C86.6103 77.7778 88.2201 79.4679 90.0901 80.5479Z" class="pr-icon-iso-duotone-primary-stroke" stroke-linejoin="round"/>
    <path d="M90.0898 41.478V64.918L83.3 68.308V68.3181L70.0898 74.918V51.478L90.0898 41.478Z" class="pr-icon-iso-duotone-primary-stroke" stroke-linejoin="round"/>
    <path d="M90.0898 41.478L70.0898 51.478L58.8101 44.968L53.27 41.7679L22 23.718L2 12.168L22 2.16797L90.0898 41.478Z" class="pr-icon-iso-duotone-primary-stroke" stroke-linejoin="round"/>
    <path d="M8.79004 47.8479C8.70004 49.7179 8.04006 51.0179 6.81006 51.7179C5.48006 52.4779 3.87 52.3179 2 51.2379L8.79004 47.8479Z" class="pr-icon-iso-duotone-primary-stroke" stroke-linejoin="round"/>
    <path d="M46.8098 63.0381L46.5198 63.1781L36.1797 68.3581L32.9697 69.9681L26.5098 73.1981L28.0996 68.1981L30.0896 61.9781L39.3896 57.3281L39.7898 58.9881L46.5996 62.9181L46.8098 63.0381Z" class="pr-icon-iso-duotone-primary-stroke" stroke-linejoin="round"/>
</svg>