<svg viewBox="0 0 85 119" class="pr-icon-iso-duotone-secondary" xmlns="http://www.w3.org/2000/svg" height="48"
     width="48" stroke-width="1px" stroke-linecap="round" stroke-linejoin="round">
    <path d="M52.3398 63.7061V93.806L36.49 101.726L45.8198 79.3361L51.1799 66.486L52.3398 63.7061Z" class="pr-icon-iso-duotone-primary-stroke" stroke-linejoin="round"/>
    <path d="M62.4099 47.3761V116.696L52.3398 110.876V63.7061L51.1799 66.4861L45.8198 79.3361L36.49 101.726L27.9299 96.7861L23.6899 81.8161L12.0698 40.7361V87.6261L2 81.8161V12.4961L15.5898 20.3461L22 43.4261L31.3899 77.2361L31.5698 77.8761L32.21 80.1961L40.3499 60.0061L45.7 46.7461L48.6499 39.4261L61.5999 46.9061L62.4099 47.3761Z" class="pr-icon-iso-duotone-primary-stroke" stroke-linejoin="round"/>
    <path d="M45.7 46.7457L40.3499 60.0057L32.21 80.1957L31.5698 77.8757L31.3899 77.2357L22 43.4257L15.5898 20.3457L22 17.1457L35.5898 10.3457L45.7 46.7457Z" class="pr-icon-iso-duotone-primary-stroke" stroke-linejoin="round"/>
    <path d="M82.4099 37.376V106.696L62.4099 116.696V47.376L82.4099 37.376Z" class="pr-icon-iso-duotone-primary-stroke" stroke-linejoin="round"/>
    <path d="M35.5898 10.3461L22 17.1461L15.5898 20.3461L2 12.4961L22 2.49609L35.5898 10.3461Z" class="pr-icon-iso-duotone-primary-stroke" stroke-linejoin="round"/>
    <path d="M82.4099 37.3758L62.4099 47.3758L61.5999 46.9058L48.6499 39.4258L68.6499 29.4258L82.4099 37.3758Z" class="pr-icon-iso-duotone-primary-stroke" stroke-linejoin="round"/>
    <path d="M23.6899 81.8163L12.0698 87.6263V40.7363L23.6899 81.8163Z" class="pr-icon-iso-duotone-primary-stroke" stroke-linejoin="round"/>
</svg>