<svg width="24" height="24" viewBox="0 0 102 113" class="pr-icon-iso-duotone-secondary" xmlns="http://www.w3.org/2000/svg" stroke-width="1px" stroke-linecap="round" stroke-linejoin="round">
    <path d="M9.72003 39.2749V48.135L2 43.6749V34.8149L9.72003 39.2749Z" class="pr-icon-iso-duotone-primary-stroke" stroke-linejoin="round"/>
    <path d="M9.72003 17.1149V25.9749L2 21.5149V12.6548L9.72003 17.1149Z" class="pr-icon-iso-duotone-primary-stroke" stroke-linejoin="round"/>
    <path d="M9.72003 61.4348V70.2948L2 65.8348V56.9749L9.72003 61.4348Z" class="pr-icon-iso-duotone-primary-stroke" stroke-linejoin="round"/>
    <path d="M22 33.0649V33.135L22.0701 33.105L22 33.0649Z" class="pr-icon-iso-duotone-primary-stroke" stroke-linejoin="round"/>
    <path d="M99.2402 47.2549V100.435L79.2402 110.435V57.2549L99.2402 47.2549Z" class="pr-icon-iso-duotone-primary-stroke" stroke-linejoin="round"/>
    <path d="M29.7197 32.625V38.135L9.71973 48.135V39.2749L21.9997 33.135L22.0698 33.105L25.1697 34.895L29.7197 32.625Z" class="pr-icon-iso-duotone-primary-stroke" stroke-linejoin="round"/>
    <path d="M29.72 51.4348L22 55.2948L9.72003 61.4348L2 56.9749L22 46.9749L29.72 51.4348Z" class="pr-icon-iso-duotone-primary-stroke" stroke-linejoin="round"/>
    <path d="M79.2404 57.2549V110.435L32.9004 83.6748V30.4949L33.4004 30.7848L52.9004 42.0448L79.2404 57.2549Z" class="pr-icon-iso-duotone-primary-stroke" stroke-linejoin="round"/>
    <path d="M45.1699 16.0347V24.3647L44.6699 24.6047L32.8999 30.4948V31.0347L29.7198 32.6248L25.1699 34.8948V26.0347L37.45 19.8948L45.1699 16.0347Z" class="pr-icon-iso-duotone-primary-stroke" stroke-linejoin="round"/>
    <path d="M25.1702 26.0347V34.8948L22.0702 33.1047L22.0001 33.0647L17.4502 30.4347V21.5747L17.9502 21.8647L25.1702 26.0347Z" class="pr-icon-iso-duotone-primary-stroke" stroke-linejoin="round"/>
    <path d="M45.1702 16.0347L37.4502 19.8948L25.1702 26.0347L17.9502 21.8647L17.4502 21.5747L29.2201 15.6847L29.7201 15.4447L37.4502 11.5747L45.1702 16.0347Z" class="pr-icon-iso-duotone-primary-stroke" stroke-linejoin="round"/>
    <path d="M29.7197 7.11475V15.4447L29.2197 15.6847L17.4498 21.5747V22.1147L9.71973 25.9747V17.1147L21.9997 10.9747L29.7197 7.11475Z" class="pr-icon-iso-duotone-primary-stroke" stroke-linejoin="round"/>
    <path d="M29.72 7.11487L22 10.9749L9.72003 17.1149L2 12.6548L22 2.65479L29.72 7.11487Z" class="pr-icon-iso-duotone-primary-stroke" stroke-linejoin="round"/>
    <path d="M22 33.0647V33.1348L9.72003 39.2747L2 34.8147L17.4501 27.0947V30.4347L22 33.0647Z" class="pr-icon-iso-duotone-primary-stroke" stroke-linejoin="round"/>
    <path d="M29.7197 51.4348V59.7649L29.2197 60.0049L17.4498 65.8949V66.4348L9.71973 70.2948V61.4348L21.9997 55.2948L29.7197 51.4348Z" class="pr-icon-iso-duotone-primary-stroke" stroke-linejoin="round"/>
    <path d="M25.1702 70.355V79.215L17.4502 74.755V65.895L17.9502 66.1849L25.1702 70.355Z" class="pr-icon-iso-duotone-primary-stroke" stroke-linejoin="round"/>
    <path d="M99.2404 47.2549L79.2404 57.2549L52.9004 42.0448L33.4004 30.7848L32.9004 30.4949L44.6704 24.6049L45.1704 24.3649L52.9004 20.4949L99.2404 47.2549Z" class="pr-icon-iso-duotone-primary-stroke" stroke-linejoin="round"/>
    <path d="M32.9001 58.1748V66.4949L25.1702 70.3549L17.9502 66.1848L17.4502 65.8949L29.2201 60.0049L29.7201 59.7649L32.9001 58.1748Z" class="pr-icon-iso-duotone-primary-stroke" stroke-linejoin="round"/>
    <path d="M32.8999 66.4949V75.3549L25.1699 79.2148V70.3549L32.8999 66.4949Z" class="pr-icon-iso-duotone-primary-stroke" stroke-linejoin="round"/>
</svg>