<svg width="24" height="24" viewBox="0 0 92 124" class="pr-icon-iso-duotone-secondary" xmlns="http://www.w3.org/2000/svg" stroke-width="1px" stroke-linecap="round" stroke-linejoin="round">
    <path d="M34.9149 83.0002C34.9149 86.2102 33.9349 88.3802 31.9749 89.5002C30.0149 90.6102 27.6349 90.3602 24.8349 88.7502C22.0349 87.1302 19.6549 84.6302 17.7049 81.2602C15.7449 77.8802 14.7649 74.5802 14.7649 71.3702C14.7649 68.1602 15.7449 65.9902 17.7049 64.8802C19.6549 63.7602 22.0349 64.0102 24.8349 65.6202V57.9202C20.5549 55.4402 16.8449 54.9102 13.7249 56.3102L12.9549 56.6902C9.68492 58.5602 8.04492 62.1602 8.04492 67.4902C8.04492 72.8202 9.68492 78.3102 12.9549 83.9602C16.2349 89.6102 20.1949 93.7702 24.8349 96.4602C29.4849 99.1402 33.4449 99.5502 36.7149 97.6802C39.9949 95.8102 41.6349 92.2102 41.6349 86.8802L34.9149 83.0002ZM46.4349 46.2402C46.5949 46.5702 46.7749 46.9002 46.9649 47.2302C47.1649 47.5802 47.3849 47.9202 47.6049 48.2502L46.4349 46.2402Z" class="pr-icon-iso-duotone-primary-stroke" stroke-linejoin="round"/>
    <path d="M61.7848 92.7297V95.2396L57.2248 87.3697L53.4948 80.9496L52.8848 79.8896L54.1548 80.6197L55.0648 81.1497C56.6948 82.0897 58.1248 83.4996 59.3348 85.3796C59.4948 85.6296 59.6548 85.8797 59.8048 86.1497C61.1248 88.4197 61.7848 90.6197 61.7848 92.7297Z" class="pr-icon-iso-duotone-primary-stroke" stroke-linejoin="round"/>
    <path d="M58.4254 48.4C58.4254 50.48 57.7853 51.9 56.5253 52.66C56.5053 52.68 56.4753 52.7 56.4553 52.71C55.1353 53.46 53.5553 53.3 51.7053 52.23C50.1453 51.34 48.7754 50.01 47.6054 48.25L46.4354 46.24C45.4654 44.32 44.9854 42.46 44.9854 40.65C44.9854 38.53 45.6454 37.09 46.9654 36.34L47.0454 36.3L47.3754 36.14C48.6054 35.63 50.0453 35.86 51.7053 36.82C53.5553 37.88 55.1353 39.55 56.4553 41.82C57.7653 44.09 58.4254 46.28 58.4254 48.4Z" class="pr-icon-iso-duotone-primary-stroke" stroke-linejoin="round"/>
    <path d="M51.0347 64.7495L50.7947 65.2095L47.7647 71.0495L40.1747 57.9495L38.2347 54.6195L36.7047 51.9795L33.4847 46.4095L31.0547 42.2295L36.8147 45.5595L42.7347 48.9695L44.8247 50.1795C44.8247 50.1795 44.8347 50.1795 44.8347 50.1895C46.4447 51.1195 47.8047 52.3895 48.9147 53.9895C49.5447 54.8895 50.0947 55.8995 50.5747 57.0195C51.8847 60.1295 52.0447 62.6995 51.0347 64.7495Z" class="pr-icon-iso-duotone-primary-stroke" stroke-linejoin="round"/>
    <path d="M69.175 118.97L64.385 121.7L58.925 112.28L55.065 110.05V105.62L47.375 92.3499L43.625 85.8899L43.455 85.5999L42.135 83.3199L38.485 81.2099L38.065 80.9699L34.915 79.1499C32.455 77.7299 30.545 75.4199 29.205 72.2399C27.865 69.0599 27.695 66.4399 28.705 64.3899L28.865 64.0899L29.205 63.4399L29.875 62.1699L28.105 59.1099L26.835 56.9199L23.605 51.3599L2.58496 15.0999L7.37496 12.3799L28.545 48.8899L29.445 50.4499L31.765 54.4499L34.855 59.7799L35.225 60.4199L45.305 77.7999L46.265 79.4599L48.565 83.4199L51.685 88.7999L52.315 89.8799L69.175 118.97Z" class="pr-icon-iso-duotone-primary-stroke" stroke-linejoin="round"/>
    <path d="M84.2351 111.439L84.3851 111.699L89.1751 108.969L84.2351 111.439ZM56.5251 52.6592C56.5251 52.6592 56.4751 52.6992 56.4551 52.7092L56.5351 52.6692L56.5251 52.6592Z" class="pr-icon-iso-duotone-primary-stroke" stroke-linejoin="round"/>
    <path d="M43.625 85.89L41.635 86.88L34.915 83L38.355 81.28L38.485 81.21L42.135 83.32L43.455 85.6L43.625 85.89Z" class="pr-icon-iso-duotone-primary-stroke" stroke-linejoin="round"/>
    <path d="M38.4846 81.2094L38.3546 81.2794L34.9146 82.9995C34.9146 86.2095 33.9346 88.3795 31.9746 89.4995C30.0146 90.6095 27.6346 90.3595 24.8346 88.7495C22.0346 87.1295 19.6546 84.6295 17.7046 81.2595C15.7446 77.8795 14.7646 74.5795 14.7646 71.3695C14.7646 68.1595 15.7446 65.9894 17.7046 64.8794C19.6546 63.7594 22.0346 64.0095 24.8346 65.6195L28.7546 63.6595L29.2046 63.4395L28.8646 64.0894L28.7046 64.3895C27.6946 66.4395 27.8646 69.0594 29.2046 72.2394C30.5446 75.4194 32.4546 77.7295 34.9146 79.1495L38.0646 80.9695L38.4846 81.2094Z" class="pr-icon-iso-duotone-primary-stroke" stroke-linejoin="round"/>
    <path d="M29.875 62.1699L29.205 63.4299V63.4399L28.755 63.6599L24.835 65.6199V57.9199L26.835 56.9199L28.105 59.1099L29.875 62.1699Z" class="pr-icon-iso-duotone-primary-stroke" stroke-linejoin="round"/>
    <path d="M81.7848 82.7297V85.2396L71.9048 90.1796L61.7848 95.2396V92.7297C61.7848 90.6197 61.1248 88.4197 59.8048 86.1497C59.6548 85.8797 59.4948 85.6296 59.3348 85.3796C58.1248 83.4996 56.6948 82.0897 55.0648 81.1497L54.1548 80.6197L52.8848 79.8896L63.0048 74.8297L67.9448 72.3596L72.8848 69.8896L75.0648 71.1497C76.9148 72.2197 78.4948 73.8797 79.8048 76.1497C81.1248 78.4197 81.7848 80.6197 81.7848 82.7297Z" class="pr-icon-iso-duotone-primary-stroke" stroke-linejoin="round"/>
    <path d="M71.0347 54.7495L67.7647 61.0495C67.7647 61.0495 65.6747 62.1195 62.8447 63.5595C60.0447 64.9895 56.5247 66.7795 53.5847 68.2495C50.4847 69.7995 48.0447 70.9895 47.7647 71.0495L50.7947 65.2095L51.0347 64.7495C52.0447 62.6995 51.8847 60.1295 50.5747 57.0195C50.0947 55.8995 49.5447 54.8895 48.9147 53.9895C47.8047 52.3895 46.4447 51.1195 44.8347 50.1895C44.8347 50.1795 44.8247 50.1795 44.8247 50.1795L42.7347 48.9695L36.8147 45.5595L31.0547 42.2295L41.1747 37.1695L46.1147 34.6995L51.0547 32.2295L52.9747 33.3395L51.9847 33.8295L47.3747 36.1395L47.0447 36.2995L46.9647 36.3395C45.6447 37.0895 44.9847 38.5295 44.9847 40.6495C44.9847 42.4595 45.4647 44.3195 46.4347 46.2395C46.5947 46.5695 46.7747 46.8995 46.9647 47.2295C47.1647 47.5795 47.3847 47.9195 47.6047 48.2495C48.7747 50.0095 50.1447 51.3395 51.7047 52.2295C53.5547 53.2995 55.1347 53.4595 56.4547 52.7095L56.5347 52.6695L61.4747 50.1995L70.0547 45.9095C70.2347 46.2595 70.4147 46.6395 70.5747 47.0195C71.8847 50.1295 72.0447 52.6995 71.0347 54.7495Z" class="pr-icon-iso-duotone-primary-stroke" stroke-linejoin="round"/>
    <path d="M64.3848 121.7L84.3848 111.7" class="pr-icon-iso-duotone-primary-stroke" stroke-linejoin="round"/>
    <path d="M47.3748 92.3496L36.7148 97.6796C39.9948 95.8096 41.6348 92.2096 41.6348 86.8796L43.6248 85.8896L47.3748 92.3496Z" class="pr-icon-iso-duotone-primary-stroke" stroke-linejoin="round"/>
    <path d="M89.175 108.97L84.235 111.44L69.175 118.97L52.315 89.8799L51.685 88.7999L48.565 83.4199L46.265 79.4599L45.305 77.7999L35.225 60.4199L34.855 59.7799L31.765 54.4499L29.445 50.4499L28.545 48.8899L7.375 12.3799L27.375 2.37988L46.115 34.6999L41.175 37.1699L31.055 42.2299L33.485 46.4099L36.705 51.9799L38.235 54.6199L40.175 57.9499L47.765 71.0499C48.045 70.9899 50.485 69.7999 53.585 68.2499C56.525 66.7799 60.045 64.9899 62.845 63.5599L67.945 72.3599L63.005 74.8299L52.885 79.8899L53.495 80.9499L57.225 87.3699L61.785 95.2399L71.905 90.1799L76.845 87.7099L89.175 108.97Z" class="pr-icon-iso-duotone-primary-stroke" stroke-linejoin="round"/>
    <path d="M26.8346 56.9203L24.8346 57.9203C20.5546 55.4403 16.8446 54.9104 13.7246 56.3104L23.6046 51.3604L26.8346 56.9203Z" class="pr-icon-iso-duotone-primary-stroke" stroke-linejoin="round"/>
    <path d="M78.4248 38.3996C78.4248 40.5196 77.7648 41.9596 76.4548 42.7096L76.0448 42.9096L70.0548 45.9096L61.4748 50.1996L56.5348 52.6696C57.7948 51.8996 58.4348 50.4796 58.4348 48.3996C58.4348 46.3196 57.7748 44.0896 56.4648 41.8196C55.1448 39.5496 53.5648 37.8796 51.7148 36.8196C50.0548 35.8596 48.6148 35.6296 47.3848 36.1396L51.9948 33.8296L52.9848 33.3396L66.9748 26.3396C68.2848 25.5896 69.8648 25.7496 71.7148 26.8196C73.5648 27.8796 75.1448 29.5496 76.4648 31.8196C77.7748 34.0896 78.4348 36.2796 78.4348 38.3996H78.4248Z" class="pr-icon-iso-duotone-primary-stroke" stroke-linejoin="round"/>
</svg>