<svg width="48" height="48" viewBox="0 0 98 110" class="pr-icon-iso-duotone-secondary"
     xmlns="http://www.w3.org/2000/svg" stroke-width="1px" stroke-linecap="round" stroke-linejoin="round">
    <path d="M75.6898 81.5349C75.6898 83.8449 75.5397 85.995 75.2397 88.015C74.7797 91.125 73.9698 93.905 72.7898 96.345C72.6198 96.705 72.4398 97.0651 72.2498 97.4051C70.3798 100.895 67.9298 103.505 64.9098 105.225C64.5698 105.415 64.2198 105.605 63.8698 105.775C60.7898 107.255 57.2398 107.835 53.2198 107.505C48.7298 107.135 43.9398 105.485 38.8398 102.545C36.0798 100.945 33.3797 99.055 30.7397 96.855C28.0997 94.665 25.5498 92.185 23.0898 89.425C22.1098 89.495 21.0798 89.375 19.9998 89.075C18.9298 88.775 17.8397 88.2949 16.7297 87.6649C13.1697 85.6049 10.1297 82.405 7.60974 78.065C5.09974 73.715 3.83984 69.5049 3.83984 65.4149C3.83984 61.3249 5.09974 58.565 7.60974 57.135L8.24976 56.815C10.6398 55.755 13.4597 56.175 16.7297 58.065C20.2997 60.115 23.3399 63.3149 25.8499 67.6649C28.3699 72.0049 29.6298 76.225 29.6298 80.305C29.6298 81.855 29.4298 83.245 29.0298 84.455C28.8598 84.955 28.6598 85.425 28.4298 85.855C29.8998 87.375 31.3998 88.735 32.9498 89.995C34.9098 91.585 36.8798 92.945 38.8398 94.085C47.0698 98.835 54.0398 99.585 59.7598 96.325C60.7198 95.775 61.5998 95.1451 62.3998 94.4051C64.3498 92.6551 65.8198 90.355 66.7998 87.545C67.8198 84.675 68.3198 81.2451 68.3198 77.2751L75.6898 81.5349Z" class="pr-icon-iso-duotone-primary-stroke" stroke-linejoin="round"/>
    <path d="M51.7401 67.7048C51.7401 71.4548 50.6802 74.0848 48.5702 75.5848C48.4902 75.6548 48.4102 75.7049 48.3202 75.7549C48.2002 75.8449 48.0802 75.9149 47.9602 75.9849C47.9302 76.0049 47.9001 76.0248 47.8601 76.0448C47.6601 76.1448 47.4501 76.2548 47.2401 76.3448C44.8701 77.3548 42.0702 76.9248 38.8402 75.0548C35.2802 72.9948 32.2402 69.7948 29.7202 65.4548C27.2102 61.1148 25.9502 56.8948 25.9502 52.8148C25.9502 50.7248 26.2802 48.9848 26.9402 47.5848C26.9602 47.5348 26.9801 47.4848 27.0101 47.4348C27.6301 46.1748 28.5402 45.2049 29.7202 44.5249L30.5101 44.1349C32.8701 43.1649 35.6502 43.6148 38.8402 45.4548C42.4102 47.5148 45.4502 50.7148 47.9602 55.0548C50.4802 59.3948 51.7401 63.6148 51.7401 67.7048Z" class="pr-icon-iso-duotone-primary-stroke" stroke-linejoin="round"/>
    <path d="M73.8501 55.0949C73.8501 58.7949 72.82 61.4049 70.76 62.9349C70.55 63.1049 70.3201 63.2449 70.0801 63.3849C67.5701 64.8149 64.5301 64.5049 60.9601 62.4549C57.4001 60.3949 54.3601 57.1949 51.8401 52.8549C49.3301 48.5049 48.0701 44.2949 48.0701 40.2049C48.0701 38.6549 48.27 37.2748 48.66 36.0548C48.79 35.6448 48.95 35.2649 49.14 34.9049C49.15 34.8649 49.1701 34.8348 49.2001 34.7948C49.2201 34.7348 49.24 34.6849 49.28 34.6449C47.81 33.1449 46.29 31.7749 44.75 30.5249C42.78 28.9249 40.8201 27.5648 38.8501 26.4248C36.0501 24.8048 33.4 23.6549 30.89 22.9749C27.87 22.1349 25.0601 21.9849 22.4601 22.5049C20.8701 22.8149 19.3701 23.3749 17.9401 24.1849C12.2301 27.4449 9.37 33.7949 9.37 43.2349L2 38.9849C2 33.1349 2.97003 28.1948 4.91003 24.1648C6.84003 20.1348 9.47003 17.1748 12.78 15.2848C13.14 15.0748 13.5 14.8849 13.88 14.7149L14 14.6549C17.04 13.2249 20.54 12.6749 24.48 13.0049C24.8 13.0349 25.1201 13.0649 25.4501 13.1049C28.5901 13.4849 31.87 14.4849 35.3 16.1049C36.47 16.6549 37.6501 17.2849 38.8501 17.9749C41.6201 19.5649 44.3201 21.4649 46.9601 23.6549C49.6001 25.8549 52.15 28.3249 54.61 31.0849C55.59 31.0149 56.6201 31.1349 57.6901 31.4349C58.7701 31.7449 59.8601 32.2149 60.9601 32.8549C64.5301 34.9049 67.5701 38.1049 70.0801 42.4549C72.6001 46.7949 73.86 51.0049 73.86 55.0949H73.8501Z" class="pr-icon-iso-duotone-primary-stroke" stroke-linejoin="round"/>
    <path d="M70.2402 23.2644L70.4503 23.1643V23.0244C70.3703 23.1044 70.3002 23.1844 70.2402 23.2644Z" class="pr-icon-iso-duotone-primary-stroke" stroke-linejoin="round"/>
    <path d="M95.6903 71.5343L87.3602 75.6943V75.7043L75.6903 81.5343L68.3203 77.2744L88.3203 67.2744L95.6903 71.5343Z" class="pr-icon-iso-duotone-primary-stroke" stroke-linejoin="round"/>
    <path d="M95.6902 71.5342C95.6902 77.3842 94.7302 82.3142 92.7902 86.3442C90.8602 90.3742 88.2302 93.3342 84.9102 95.2242L83.3502 96.0043L63.8701 105.774C64.2201 105.604 64.5702 105.414 64.9102 105.224C67.9302 103.504 70.3801 100.894 72.2501 97.4043C72.4401 97.0643 72.6202 96.7042 72.7902 96.3442C73.9702 93.9042 74.7801 91.1243 75.2401 88.0143C75.5401 85.9943 75.6902 83.8442 75.6902 81.5342L87.3601 75.7042L95.6902 71.5342Z" class="pr-icon-iso-duotone-primary-stroke" stroke-linejoin="round"/>
    <path d="M66.7997 87.5449C65.8197 90.3549 64.3497 92.655 62.3997 94.405C61.5997 95.145 60.7196 95.775 59.7596 96.325C54.0396 99.585 47.0697 98.835 38.8397 94.085C36.8797 92.945 34.9097 91.585 32.9497 89.995C31.3997 88.735 29.8997 87.375 28.4297 85.865L41.4297 79.365H41.4397L48.4197 75.875C49.8997 77.365 51.3997 78.735 52.9497 79.995C54.9097 81.585 56.8797 82.945 58.8397 84.085C61.6397 85.705 64.2897 86.8549 66.7997 87.5449Z" class="pr-icon-iso-duotone-primary-stroke" stroke-linejoin="round"/>
    <path d="M48.51 75.7146C48.48 75.7746 48.46 75.8146 48.42 75.8646L41.4401 79.3646H41.4301L28.4301 85.8546C28.6601 85.4246 28.86 84.9546 29.03 84.4546C29.43 83.2446 29.63 81.8546 29.63 80.3046C29.63 76.2246 28.3701 72.0046 25.8501 67.6646C23.3401 63.3146 20.3 60.1146 16.73 58.0646C13.46 56.1746 10.64 55.7546 8.25 56.8146L27.01 47.4346C27.01 47.4346 26.9601 47.5346 26.9401 47.5846C26.2801 48.9846 25.9501 50.7246 25.9501 52.8146C25.9501 56.8946 27.2101 61.1146 29.7201 65.4546C32.2401 69.7946 35.2801 72.9946 38.8401 75.0546C42.0701 76.9246 44.87 77.3546 47.24 76.3446C47.45 76.2546 47.66 76.1446 47.86 76.0446C47.9 76.0246 47.9301 76.0046 47.9601 75.9846L48.51 75.7146Z" class="pr-icon-iso-duotone-primary-stroke" stroke-linejoin="round"/>
    <path d="M30.8804 22.9746C29.8704 25.8446 29.3604 29.2646 29.3604 33.2346L9.36035 43.2346C9.36035 33.7946 12.2204 27.4446 17.9304 24.1846C19.3604 23.3746 20.8604 22.8147 22.4504 22.5047C25.0504 21.9847 27.8604 22.1346 30.8804 22.9746Z" class="pr-icon-iso-duotone-primary-stroke" stroke-linejoin="round"/>
    <path d="M28.4299 85.8643H28.4199" class="pr-icon-iso-duotone-primary-stroke" stroke-linejoin="round"/>
    <path d="M70.4503 23.1643V23.0244C70.3703 23.1044 70.3002 23.1844 70.2402 23.2644L68.6703 24.0443L54.6003 31.0843C52.1403 28.3243 49.5903 25.8544 46.9503 23.6544C44.3103 21.4644 41.6103 19.5643 38.8403 17.9743C37.6403 17.2843 36.4603 16.6543 35.2903 16.1043C31.8603 14.4843 28.5803 13.4843 25.4403 13.1043C25.1103 13.0643 24.7903 13.0344 24.4703 13.0044C20.5303 12.6744 17.0302 13.2244 13.9902 14.6544L33.3103 5.00435L34.0703 4.62435L34.1003 4.60433C37.1203 3.21433 40.5703 2.68435 44.4703 3.00435C48.9603 3.37435 53.7503 5.02432 58.8403 7.97432C61.6103 9.56432 64.3103 11.4644 66.9503 13.6544C69.5903 15.8544 72.1403 18.3243 74.6003 21.0843L70.4503 23.1643Z" class="pr-icon-iso-duotone-primary-stroke" stroke-linejoin="round"/>
    <path d="M93.8496 45.0939C93.8496 49.1839 92.5896 51.9439 90.0696 53.3839C89.7696 53.5539 89.4695 53.6938 89.1595 53.8138L70.7595 62.9338C72.8195 61.4038 73.8496 58.7939 73.8496 55.0939C73.8496 51.0039 72.5896 46.7939 70.0696 42.4539C67.5596 38.1039 64.5196 34.9039 60.9496 32.8539C59.8496 32.2139 58.7596 31.7438 57.6796 31.4338C56.6096 31.1338 55.5796 31.0139 54.5996 31.0839L68.6696 24.0438L70.2395 23.2639L70.4496 23.1638L74.5996 21.0839C75.5796 21.0139 76.6096 21.1338 77.6796 21.4338C78.7596 21.7438 79.8496 22.2139 80.9496 22.8539C84.5196 24.9039 87.5596 28.1039 90.0696 32.4539C92.5896 36.7939 93.8496 41.0039 93.8496 45.0939Z" class="pr-icon-iso-duotone-primary-stroke" stroke-linejoin="round"/>
    <path d="M89.4502 53.6738L89.1602 53.8138" class="pr-icon-iso-duotone-primary-stroke" stroke-linejoin="round"/>
    <path d="M70.7498 62.934C70.1198 64.274 69.1898 65.284 67.9598 65.984L67.1698 66.374L48.5098 75.714L47.9598 75.984C48.0798 75.914 48.1998 75.844 48.3198 75.754C48.4098 75.704 48.4898 75.654 48.5698 75.584C50.6798 74.084 51.7397 71.454 51.7397 67.704C51.7397 63.614 50.4798 59.394 47.9598 55.054C45.4498 50.714 42.4098 47.514 38.8398 45.454C35.6498 43.614 32.8698 43.164 30.5098 44.134L49.1898 34.7939C49.1898 34.7939 49.1398 34.8641 49.1298 34.9041C48.9398 35.2641 48.7798 35.644 48.6498 36.054C48.2598 37.274 48.0598 38.654 48.0598 40.204C48.0598 44.294 49.3198 48.504 51.8298 52.854C54.3498 57.194 57.3898 60.394 60.9498 62.454C64.5198 64.504 67.5598 64.814 70.0698 63.384C70.3098 63.244 70.5398 63.104 70.7498 62.934Z" class="pr-icon-iso-duotone-primary-stroke" stroke-linejoin="round"/>
</svg>