<svg width="48" height="48" viewBox="0 0 92 114" fill="#c8e7ff" xmlns="http://www.w3.org/2000/svg" stroke-width="1px" stroke-linecap="round" stroke-linejoin="round"><path d="M69.61 97.8V111.33L2.22998 72.42V58.89C2.22998 56.15 2.83998 53.99 4.06998 52.4C4.67998 51.61 5.39998 51.01 6.20998 50.6H6.21998C7.02998 50.2 7.93998 49.99 8.95998 49.97C13.32 49.99 17.74 50.67 22.23 52.01C26.72 53.36 31.29 55.37 35.92 58.04C40.55 60.72 45.12 63.98 49.61 67.82C54.1 71.66 58.52 76.09 62.88 81.1C64.77 83.31 66.31 85.8 67.5 88.56C67.6 88.76 67.68 88.97 67.77 89.18C69 92.19 69.61 95.06 69.61 97.8Z" stroke="#229EFF" stroke-linejoin="round"/><path d="M52.77 43.61C52.77 44.54 52.72 45.42 52.62 46.24C52.14 50.13 50.54 52.85 47.82 54.4C44.52 56.28 40.55 55.89 35.92 53.21C31.59 50.71 27.83 46.88 24.67 41.73C24.61 41.65 24.56 41.57 24.51 41.49C24.34 41.21 24.18 40.94 24.02 40.66C20.72 34.97 19.07 29.47 19.07 24.15C19.07 18.83 20.72 15.24 24.02 13.36L24.8 12.97C27.94 11.55 31.65 12.08 35.92 14.55C37.06 15.2 38.15 15.95 39.21 16.79C42.46 19.36 45.33 22.8 47.82 27.09C50.58 31.85 52.18 36.47 52.63 40.97C52.73 41.85 52.77 42.73 52.77 43.61Z" stroke="#229EFF" stroke-linejoin="round"/><path d="M72.77 33.61C72.77 38.92 71.12 42.52 67.82 44.4L67.04 44.79L58.02 49.3L47.82 54.4C50.54 52.85 52.14 50.13 52.62 46.24C52.72 45.42 52.77 44.54 52.77 43.61C52.77 42.73 52.73 41.85 52.63 40.97C52.18 36.47 50.58 31.85 47.82 27.09C45.33 22.8 42.46 19.36 39.21 16.79C38.15 15.95 37.06 15.2 35.92 14.55C31.65 12.08 27.94 11.55 24.8 12.97L44.02 3.36C47.32 1.47 51.29 1.87 55.92 4.55C60.55 7.22 64.52 11.4 67.82 17.09C71.12 22.79 72.77 28.29 72.77 33.61Z" stroke="#229EFF" stroke-linejoin="round"/><path d="M89.61 87.8V101.33L69.61 111.33V97.8C69.61 95.06 69 92.19 67.77 89.18C67.68 88.97 67.6 88.76 67.5 88.56C66.31 85.8 64.77 83.31 62.88 81.1C58.52 76.09 54.1 71.66 49.61 67.82C45.12 63.98 40.55 60.72 35.92 58.04C31.29 55.37 26.72 53.36 22.23 52.01C17.74 50.67 13.32 49.99 8.95998 49.97C7.93998 49.99 7.02998 50.2 6.21998 50.6L24.51 41.49C24.56 41.57 24.61 41.65 24.67 41.73C27.83 46.88 31.59 50.71 35.92 53.21C40.55 55.89 44.52 56.28 47.82 54.4L58.02 49.3C61.94 51.72 65.8 54.56 69.61 57.82C74.1 61.66 78.52 66.09 82.88 71.1C84.91 73.48 86.54 76.18 87.77 79.18C89 82.19 89.61 85.06 89.61 87.8Z" stroke="#229EFF" stroke-linejoin="round"/></svg>