<svg width="48" height="48" viewBox="0 0 88 105" class="pr-icon-iso-duotone-secondary"
     xmlns="http://www.w3.org/2000/svg" stroke-width="1px" stroke-linecap="round" stroke-linejoin="round">
    <path d="M34.1001 49.4899L38.4901 52.0199L39.8701 51.2399L47.5302 63.9699L54.9901 64.1999L65.6201 64.5299L63.5601 58.1899L52.5201 57.5299L48.6501 57.2999L40.5601 44.1199V38.5899L44.7301 36.5099L48.6501 34.5599L52.0901 38.3499L62.8501 50.1999L63.3801 50.7799L63.9801 49.6399L64.4202 48.7999L65.4501 46.8299L56.0801 36.3599L53.6702 33.6599L49.3501 28.8399L47.5302 26.7999L46.6201 27.2599L42.1501 29.5299L39.8701 30.6799L38.7501 28.4499L38.6901 28.4199L33.6702 25.5199V33.4199L31.3501 32.0799L29.8901 31.2399L22.6401 27.0599C21.9501 24.3499 20.7301 21.7499 18.9801 19.2599C17.2301 16.7699 15.2301 14.8699 12.9901 13.5799C10.4101 12.0899 8.18017 11.7399 6.30017 12.4999L6.22009 12.5399L5.67017 12.8099C3.66017 13.9599 2.66016 16.1799 2.66016 19.4699C2.66016 21.6499 3.16016 23.9799 4.16016 26.4699C5.17016 28.9599 6.45012 31.1499 8.00012 33.0299L14.4001 60.7999L16.7802 71.1199L6.1001 64.9499V76.8099L50.8901 102.68V90.8099L38.4901 83.6499L33.9301 71.3299L28.3401 56.2399L21.2601 37.1299C21.6101 36.8099 21.8801 36.4699 22.0801 36.1199C22.2801 35.7799 22.4701 35.3899 22.6401 34.9599L24.0101 35.7499L32.0001 40.3599L33.6702 41.3299V49.2399L34.1001 49.4899ZM15.4501 29.6799C14.7901 30.0499 13.9701 29.9599 12.9901 29.3899C12.0201 28.8299 11.2002 27.9799 10.5402 26.8399C9.88016 25.6999 9.55017 24.5699 9.55017 23.4499C9.55017 22.3299 9.88016 21.5799 10.5402 21.2099C11.2002 20.8299 12.0201 20.9199 12.9901 21.4899C13.9701 22.0499 14.7901 22.8999 15.4501 24.0399C16.1101 25.1799 16.4401 26.3099 16.4401 27.4299C16.4401 28.5499 16.1101 29.2999 15.4501 29.6799Z" class="pr-icon-iso-duotone-primary-stroke" stroke-linejoin="round"/>
    <path d="M16.4397 27.4299C16.4397 28.5499 16.1097 29.2999 15.4497 29.6799C14.7897 30.0499 13.9697 29.9599 12.9897 29.3899C12.0197 28.8299 11.1998 27.9799 10.5398 26.8399C9.87979 25.6999 9.5498 24.5699 9.5498 23.4499C9.5498 22.3299 9.87979 21.5799 10.5398 21.2099C11.1998 20.8299 12.0197 20.9199 12.9897 21.4899C13.9697 22.0499 14.7897 22.8999 15.4497 24.0399C16.1097 25.1799 16.4397 26.3099 16.4397 27.4299Z" class="pr-icon-iso-duotone-primary-stroke" stroke-linejoin="round"/>
    <path d="M59.85 20.64L47.53 26.8L46.62 27.26L42.15 29.53L39.87 30.68L38.75 28.45L41.28 27.18L44.0699 25.79L53.67 20.99L58.75 18.45L59.85 20.64Z" class="pr-icon-iso-duotone-primary-stroke" stroke-linejoin="round"/>
    <path d="M85.4502 36.8299L81.5602 38.7799L67.6802 45.7199L65.4502 46.8299L56.0802 36.3599L53.6703 33.6599L49.3502 28.8399L47.5303 26.7999L59.8502 20.6399L59.8702 20.6799L67.5303 16.7999L85.4502 36.8299Z" class="pr-icon-iso-duotone-primary-stroke" stroke-linejoin="round"/>
    <path d="M85.6206 54.5299L65.6206 64.5299L63.5605 58.1899L71.7406 54.0999L83.5605 48.1899L85.6206 54.5299Z" class="pr-icon-iso-duotone-primary-stroke" stroke-linejoin="round"/>
    <path d="M52.0906 38.3499L46.4606 41.1699L40.5605 44.1199V38.59L44.7306 36.5099L48.6506 34.5599L52.0906 38.3499Z" class="pr-icon-iso-duotone-primary-stroke" stroke-linejoin="round"/>
    <path d="M62.8506 50.1998L51.8406 55.6998L48.6506 57.2999L40.5605 44.1199L46.4606 41.1698L52.0906 38.3499L62.8506 50.1998Z" class="pr-icon-iso-duotone-primary-stroke" stroke-linejoin="round"/>
    <path d="M70.8906 80.8099V92.6799L50.8906 102.68V90.8099L70.8906 80.8099Z" class="pr-icon-iso-duotone-primary-stroke" stroke-linejoin="round"/>
    <path d="M58.4897 73.6499L47.4797 79.1599L38.4897 83.6499L33.9297 71.3299L28.3397 56.2399L21.2598 37.1299L24.0098 35.7499L31.9998 40.3599L33.6698 41.3299V49.2399L34.0997 49.4899L38.4897 52.0199L39.8698 51.2399L47.5298 63.9699L54.9897 64.1999L58.4897 73.6499Z" class="pr-icon-iso-duotone-primary-stroke" stroke-linejoin="round"/>
    <path d="M42.6398 17.06L28.2798 24.24L22.6398 27.06C21.9498 24.35 20.7297 21.75 18.9797 19.26C17.2297 16.77 15.2297 14.87 12.9897 13.58C10.4097 12.09 8.1798 11.74 6.2998 12.5L25.6698 2.80996C27.6798 1.66996 30.1197 1.91996 32.9897 3.57996C35.2297 4.86996 37.2297 6.76997 38.9797 9.25997C40.7297 11.75 41.9498 14.35 42.6398 17.06Z" class="pr-icon-iso-duotone-primary-stroke" stroke-linejoin="round"/>
    <path d="M58.7499 18.45L53.6699 20.99L44.0698 25.79L41.2799 27.18L38.7499 28.45L38.6898 28.42L33.6699 25.52L53.6699 15.52L58.7499 18.45Z" class="pr-icon-iso-duotone-primary-stroke" stroke-linejoin="round"/>
    <path d="M67.5297 16.7999L59.8496 20.6399" class="pr-icon-iso-duotone-primary-stroke" stroke-linejoin="round"/>
    <path d="M85.4498 36.83L83.3799 40.78L70.1599 47.39L65.0898 49.92L63.3799 50.78L63.9799 49.64V49.63L64.4199 48.8L65.4498 46.83L67.6798 45.72L81.5598 38.78L85.4498 36.83Z" class="pr-icon-iso-duotone-primary-stroke" stroke-linejoin="round"/>
    <path d="M83.5603 48.1899L71.7404 54.0999L63.5603 58.1899L52.5204 57.5299L48.6504 57.2999L51.8403 55.6999L62.8503 50.1999L63.3804 50.7799L65.0903 49.9199L70.1604 47.3899L83.5603 48.1899Z" class="pr-icon-iso-duotone-primary-stroke" stroke-linejoin="round"/>
    <path d="M46.3306 19.1899L33.6707 25.5199V33.4199L31.3506 32.0799L29.8906 31.2399L22.6406 27.0599L28.2806 24.2399L42.6406 17.0599L46.3306 19.1899Z" class="pr-icon-iso-duotone-primary-stroke" stroke-linejoin="round"/>
    <path d="M16.7797 71.1199L6.09961 64.9499L14.3997 60.7999L16.7797 71.1199Z" class="pr-icon-iso-duotone-primary-stroke" stroke-linejoin="round"/>
    <path d="M70.8903 80.8099L50.8903 90.8099L38.4902 83.6499L47.4802 79.1599L58.4902 73.6499L70.8903 80.8099Z" class="pr-icon-iso-duotone-primary-stroke" stroke-linejoin="round"/>
</svg>