<svg width="48" height="48" viewBox="0 0 123 104" fill="#c8e7ff" xmlns="http://www.w3.org/2000/svg" stroke-width="1px" stroke-linecap="round" stroke-linejoin="round"><path d="M74.02 99.7799C74.65 99.5099 75.2601 99.2099 75.8401 98.8699L74.02 99.7799Z" stroke="#229EFF" stroke-linejoin="round"/><path d="M86.0701 71.1799L85.4099 70.7999C84.3199 61.0099 80.8901 51.2999 75.0701 41.6799C74.7301 41.1099 74.38 40.5399 74.02 39.9699C73.98 39.8999 73.9299 39.8299 73.8899 39.7699C71.5299 36.0599 69.0201 32.7099 66.3601 29.6899C65.8601 29.1199 65.3501 28.5599 64.8401 28.0199C63.7801 26.8899 62.7001 25.8199 61.6001 24.8099C58.3601 21.8099 54.92 19.2599 51.29 17.1599C47.12 14.7599 43.2 13.2399 39.54 12.6199C35.57 11.9299 31.91 12.2999 28.55 13.7199C28.33 13.8099 28.1199 13.9099 27.9099 14.0099L27.8701 14.0299C27.2601 14.3199 26.6701 14.6399 26.1001 15.0099C24.5301 15.9699 23.16 17.1899 22 18.6399C19.45 21.7799 17.8399 26.0299 17.1599 31.3899L2 22.6399V33.9499L17.1599 42.6999C18.3099 53.0699 22.11 63.3499 28.55 73.5299C35 83.7099 42.58 91.3099 51.29 96.3399C59.99 101.36 67.57 102.51 74.02 99.7799L75.8401 98.8699C78.9801 97.0999 81.38 94.4399 83.03 90.8799C84.19 88.3899 84.9799 85.4699 85.4099 82.1099L96.48 88.4999L100.57 90.8599V79.5499L86.0701 71.1799ZM66.0701 85.0799L36.5 68.0099V39.7299L38.6499 40.9699L41.4299 42.5799V36.9199C41.4299 33.8099 42.3901 31.6999 44.3201 30.5999C46.2501 29.4999 48.57 29.7399 51.29 31.2999C52.29 31.8699 53.2401 32.5699 54.1201 33.3799C54.7601 33.9699 55.37 34.6099 55.95 35.3199C56.14 35.5399 56.32 35.7699 56.5 36.0099C57.14 36.8699 57.7501 37.7999 58.3101 38.8199C60.1601 42.1399 61.0999 45.4199 61.1399 48.6499V53.9599L66.0701 56.7999V85.0799Z" stroke="#229EFF" stroke-linejoin="round"/><path d="M66.0701 56.7998V60.8998L63.6201 62.1198L53.9299 66.9698C54.6299 66.5798 54.98 65.7598 54.98 64.5398C54.98 63.3198 54.6299 62.0998 53.9299 60.8998C53.6799 60.4698 53.4101 60.0698 53.1101 59.7098C52.5801 59.0698 51.97 58.5598 51.29 58.1598C50.33 57.6098 49.5101 57.4698 48.8501 57.7398L56.5 53.9098L61.1399 51.5898V53.9598L66.0701 56.7998Z" stroke="#229EFF" stroke-linejoin="round"/><path d="M61.1301 48.6499L56.49 50.9699L56.2 51.1099V45.4599C56.2 43.8499 55.73 42.2399 54.79 40.6099C53.98 39.2199 53.0101 38.1299 51.8801 37.3499C51.6901 37.2099 51.49 37.0799 51.28 36.9599C50.02 36.2299 48.95 36.0499 48.05 36.4099L54.1101 33.3799C54.7501 33.9699 55.3599 34.6099 55.9399 35.3199C56.1299 35.5399 56.31 35.7699 56.49 36.0099C57.13 36.8699 57.74 37.7999 58.3 38.8199C60.15 42.1399 61.0901 45.4199 61.1301 48.6499Z" stroke="#229EFF" stroke-linejoin="round"/><path d="M66.0701 63.5299V85.0799L36.5 68.0099L47.8201 62.3499L47.9199 62.2999C47.9599 62.4599 48.0201 62.6299 48.0901 62.7899C48.2401 63.1699 48.4199 63.5399 48.6399 63.9199C48.9999 64.5399 49.4001 65.0799 49.8601 65.5299C50.2901 65.9799 50.77 66.3499 51.29 66.6499C52.35 67.2599 53.2399 67.3699 53.9299 66.9699L63.6201 62.1199L66.0701 63.5299Z" stroke="#229EFF" stroke-linejoin="round"/><path d="M56.49 50.97V53.91L48.8401 57.74L48.6301 57.84C47.9301 58.23 47.5801 59.05 47.5801 60.27C47.5801 60.95 47.6899 61.63 47.9099 62.3L47.8101 62.35L36.49 68.01V39.73L38.6399 40.97L41.4199 42.58L46.3501 40.12V45.42L56.2 51.11L56.49 50.97Z" stroke="#229EFF" stroke-linejoin="round"/><path d="M54.1201 33.3798L48.0601 36.4098L47.77 36.5498C46.83 37.0898 46.3601 38.1598 46.3601 39.7698V40.1198L41.4299 42.5798V36.9198C41.4299 33.8098 42.3901 31.6998 44.3201 30.5998C46.2501 29.4998 48.57 29.7398 51.29 31.2998C52.29 31.8698 53.2401 32.5698 54.1201 33.3798Z" stroke="#229EFF" stroke-linejoin="round"/><path d="M56.2 45.4599V51.1099L46.3501 45.4198V39.7699C46.3501 38.1599 46.82 37.0899 47.76 36.5499L48.05 36.4099C48.95 36.0499 50.02 36.2299 51.28 36.9599C51.49 37.0799 51.6901 37.2099 51.8801 37.3499C53.0101 38.1299 53.98 39.2199 54.79 40.6099C55.73 42.2399 56.2 43.8499 56.2 45.4599Z" stroke="#229EFF" stroke-linejoin="round"/><path d="M96.47 88.4998C95.7 88.9898 94.88 89.4098 94.01 89.7798L75.8301 98.8698C78.9701 97.0998 81.37 94.4399 83.02 90.8799C84.18 88.3899 84.9699 85.4699 85.3999 82.1099L96.47 88.4998Z" stroke="#229EFF" stroke-linejoin="round"/><path d="M120.57 69.5498L110.07 74.7998L104.21 77.7198V77.7298L100.57 79.5498L86.0701 71.1798V70.4698L105.4 60.7998L120.57 69.5498Z" stroke="#229EFF" stroke-linejoin="round"/><path d="M105.4 60.7999L86.0601 70.4699L85.3999 70.7999C84.3099 61.0099 80.8801 51.2999 75.0601 41.6799C74.7201 41.1099 74.37 40.5399 74.01 39.9699C73.97 39.8999 73.9201 39.8299 73.8801 39.7699C71.5201 36.0599 69.0101 32.7099 66.3501 29.6899C65.8501 29.1199 65.3401 28.5599 64.8301 28.0199C63.7701 26.8899 62.6901 25.8199 61.5901 24.8099C58.3501 21.8099 54.91 19.2599 51.28 17.1599C47.11 14.7599 43.19 13.2399 39.53 12.6199C35.56 11.9299 31.9 12.2999 28.54 13.7199C28.32 13.8099 28.1099 13.9099 27.8999 14.0099L46.6201 4.67989C47.2301 4.31989 47.87 3.99988 48.54 3.71988C54.99 0.989882 62.57 2.13988 71.28 7.15988C79.98 12.1899 87.56 19.7899 94.01 29.9699C100.46 40.1499 104.25 50.4299 105.4 60.7999Z" stroke="#229EFF" stroke-linejoin="round"/><path d="M26.1001 15.0099C24.5301 15.9699 23.16 17.1899 22 18.6399C19.45 21.7799 17.8399 26.0299 17.1599 31.3899L2 22.6399L22 12.6399L26.1001 15.0099Z" stroke="#229EFF" stroke-linejoin="round"/><path d="M54.97 64.5398C54.97 65.7598 54.6199 66.5798 53.9199 66.9698C53.2299 67.3698 52.34 67.2598 51.28 66.6498C50.76 66.3498 50.2801 65.9798 49.8501 65.5298C49.3901 65.0798 48.9901 64.5398 48.6301 63.9198C48.4101 63.5398 48.2301 63.1698 48.0801 62.7898C48.0101 62.6298 47.9499 62.4598 47.9099 62.2998C47.6899 61.6298 47.5801 60.9498 47.5801 60.2698C47.5801 59.0498 47.9301 58.2298 48.6301 57.8398L48.8401 57.7398C49.5001 57.4698 50.32 57.6098 51.28 58.1598C51.96 58.5598 52.5701 59.0698 53.1001 59.7098C53.4001 60.0698 53.6699 60.4698 53.9199 60.8998C54.6199 62.0998 54.97 63.3098 54.97 64.5398Z" stroke="#229EFF" stroke-linejoin="round"/><path d="M120.57 69.5498V80.8598L100.57 90.8598V79.5498L104.21 77.7298V77.7198L110.07 74.7998L120.57 69.5498Z" stroke="#229EFF" stroke-linejoin="round"/></svg>