<svg width="48" height="48" viewBox="0 0 119 125" fill="#c8e7ff" xmlns="http://www.w3.org/2000/svg" stroke-width="1px" stroke-linecap="round" stroke-linejoin="round"><path d="M96.65 104.756L84.5 111.686L65.1 122.736L57.74 109.886L76.54 99.1761L25.67 69.8061C19.09 66.0061 13.51 60.1461 8.91 52.2061C4.31 44.2761 2 36.5361 2 28.9861C2 21.4361 4.31 16.3661 8.91 13.7461L10.14 13.1261C13.69 11.5961 17.78 11.8361 22.42 13.8561C23.47 14.3061 24.56 14.8561 25.67 15.4961L28.3 17.0161V29.0861L25.67 27.5661C24.64 26.9761 23.65 26.5161 22.7 26.2061C20.28 25.3961 18.16 25.5161 16.33 26.5561C13.79 28.0061 12.52 30.8361 12.52 35.0661C12.52 39.2961 13.79 43.5861 16.33 47.9761C18.87 52.3561 21.99 55.6061 25.67 57.7361L76.54 87.1061L68.34 72.8961L57.89 54.7861L57.74 54.5361L65.1 50.3361L72.61 63.2861L83.13 81.4361L89.83 92.9961L96.65 104.756Z" stroke="#229EFF" stroke-linejoin="round"/><path d="M48.2996 7.0161L28.2996 17.0161L25.6696 15.4961C24.5596 14.8561 23.4696 14.3061 22.4196 13.8561C17.7796 11.8361 13.6896 11.5961 10.1396 13.1261L28.9096 3.74611C33.5096 1.11611 39.0897 1.70611 45.6697 5.49611L48.2996 7.0161Z" stroke="#229EFF" stroke-linejoin="round"/><path d="M48.2998 7.01611V19.0861L32.5998 26.9361L28.2998 29.0861V17.0161L48.2998 7.01611Z" stroke="#229EFF" stroke-linejoin="round"/><path d="M76.5395 87.1061L25.6695 57.7361C21.9895 55.6061 18.8695 52.3561 16.3295 47.9761C13.7895 43.5861 12.5195 39.2861 12.5195 35.0661C12.5195 30.8461 13.7895 28.0061 16.3295 26.5561C18.1595 25.5161 20.2795 25.3961 22.6995 26.2061C23.6495 26.5161 24.6395 26.9761 25.6695 27.5661L28.2995 29.0861L32.5995 26.9361C32.9195 30.5561 34.1595 34.2361 36.3295 37.9761C38.8695 42.3561 41.9895 45.6061 45.6695 47.7361L57.8895 54.7861L68.3395 72.8961L76.5395 87.1061Z" stroke="#229EFF" stroke-linejoin="round"/><path d="M116.65 94.7561L96.6496 104.756L89.8296 92.9961L83.1296 81.4361L72.6096 63.2861L65.0996 50.3361L85.0996 40.3361L116.65 94.7561Z" stroke="#229EFF" stroke-linejoin="round"/><path d="M116.65 94.7561L85.0996 112.736L65.0996 122.736L84.4996 111.686L96.6496 104.756L116.65 94.7561Z" stroke="#229EFF" stroke-linejoin="round"/></svg>