<svg width="48" height="48" viewBox="0 0 86 115" class="pr-icon-iso-duotone-secondary"
     xmlns="http://www.w3.org/2000/svg" stroke-width="1px" stroke-linecap="round" stroke-linejoin="round">
    <path d="M27.1201 70.1099L29.3101 71.3799M46.3901 77.3199V78.0399L47.0501 77.6999L46.3901 77.3199Z" class="pr-icon-iso-duotone-primary-stroke" stroke-linejoin="round"/>
    <path d="M29.3099 55.6998V71.3698L27.1199 70.1098L26.1199 69.5298L22.4899 67.4298V59.5998L21.9999 59.3198L15.6499 55.6498V47.8198L16.0999 48.0798L20.1899 50.4398L21.9999 51.4798L29.3099 55.6998Z" class="pr-icon-iso-duotone-primary-stroke" stroke-linejoin="round"/>
    <path d="M8.83 43.8797V51.7097L2 47.7697V39.9297L8.83 43.8797Z" class="pr-icon-iso-duotone-primary-stroke" stroke-linejoin="round"/>
    <path d="M17.3601 27.2598V27.9798L7.12012 33.0998V21.3398L17.3601 27.2598Z" class="pr-icon-iso-duotone-primary-stroke" stroke-linejoin="round"/>
    <path d="M17.3601 27.98V39.01L11.0801 35.39L7.12012 33.1L17.3601 27.98Z" class="pr-icon-iso-duotone-primary-stroke" stroke-linejoin="round"/>
    <path d="M27.1201 70.1099L29.3101 71.3799" class="pr-icon-iso-duotone-primary-stroke" stroke-linejoin="round"/>
    <path d="M39.55 34.1898V42.0298L37.03 40.5798L35.65 39.7798L33.83 38.7298L32.73 38.0898V30.2598L33.16 30.5098L39.55 34.1898Z" class="pr-icon-iso-duotone-primary-stroke" stroke-linejoin="round"/>
    <path d="M59.55 24.1898L52.73 27.5998L52.28 27.8298L45.9 31.0198L42.49 32.7198L39.55 34.1898L33.16 30.5098L32.73 30.2598L36.37 28.4398L37.36 27.9498L42.49 25.3798L52.73 20.2598L59.55 24.1898Z" class="pr-icon-iso-duotone-primary-stroke" stroke-linejoin="round"/>
    <path d="M59.55 24.1899V27.8799L55.7001 29.8099L52.73 31.2899L45.9001 34.7099L42.9701 36.1699V40.3199L41.37 41.1199L39.55 42.0299V34.1899L42.4901 32.7199L45.9001 31.0199L52.28 27.8299L52.73 27.5999L59.55 24.1899Z" class="pr-icon-iso-duotone-primary-stroke" stroke-linejoin="round"/>
    <path d="M32.7299 30.73V38.09L28.8299 35.83L27.0199 34.79L25.8999 34.14L27.7099 33.23L31.3499 31.42L32.7299 30.73Z" class="pr-icon-iso-duotone-primary-stroke" stroke-linejoin="round"/>
    <path d="M47.5001 62.2899L42.4901 64.7899L37.3601 67.3599L29.3201 71.3799H29.3101V55.6999L31.1201 54.7899L32.9401 53.8799L33.8301 54.3999L39.5501 57.6999L42.4901 56.2299L42.9701 55.9899V59.6699L47.5001 62.2899Z" class="pr-icon-iso-duotone-primary-stroke" stroke-linejoin="round"/>
    <path d="M39.5499 49.8596V57.6996L33.8299 54.3997L32.9399 53.8797L25.8999 49.8196V34.1396L27.0199 34.7896L28.8299 35.8297L32.7299 38.0896V45.9196L35.6499 47.6096L39.5499 49.8596Z" class="pr-icon-iso-duotone-primary-stroke" stroke-linejoin="round"/>
    <path d="M22.4899 59.5999V60.0699L21.9999 60.3199L15.6499 63.4899V55.6499L21.9999 59.3199L22.4899 59.5999Z" class="pr-icon-iso-duotone-primary-stroke" stroke-linejoin="round"/>
    <path d="M26.12 69.5296L22.49 71.3496L22 71.0696L2 59.5296L8.83 56.1196V59.5496L15.65 63.4896L22 60.3196L22.49 60.0696V67.4296L26.12 69.5296Z" class="pr-icon-iso-duotone-primary-stroke" stroke-linejoin="round"/>
    <path d="M22 71.0698L2 59.5298V83.0298L22.49 94.8598V71.3498L22 71.0698ZM17.36 86.0198L7.12 80.1098V68.3498L17.36 74.2698V86.0198Z" class="pr-icon-iso-duotone-primary-stroke" stroke-linejoin="round"/>
    <path d="M17.3601 74.9897V86.0197L7.12012 80.1097L17.3601 74.9897Z" class="pr-icon-iso-duotone-primary-stroke" stroke-linejoin="round"/>
    <path d="M17.3601 74.2696V74.9896L7.12012 80.1096V68.3496L17.3601 74.2696Z" class="pr-icon-iso-duotone-primary-stroke" stroke-linejoin="round"/>
    <path d="M73.21 101.88V102.6L53.21 112.6V100.85L63.45 106.76L72.54 102.21L73.21 101.88Z" class="pr-icon-iso-duotone-primary-stroke" stroke-linejoin="round"/>
    <path d="M83.4499 88.9199V96.7599L73.2099 101.88L72.54 102.21L63.45 106.76V98.9199L66.3899 97.4499L73.2099 94.0399L76.1699 92.5599L83.4499 88.9199Z" class="pr-icon-iso-duotone-primary-stroke" stroke-linejoin="round"/>
    <path d="M73.21 71.25V83.01L65.94 86.64L53.21 93.01V81.25L56.14 79.79L62.29 76.71L66.39 74.66L73.21 71.25Z" class="pr-icon-iso-duotone-primary-stroke" stroke-linejoin="round"/>
    <path d="M73.2099 71.2495L66.3899 74.6595L62.2899 76.7095L56.1399 79.7895L53.2099 81.2495L47.0499 77.6995L46.3899 77.3195L60.9399 70.0495L63.4499 71.4995L66.3899 70.0295L68.9099 68.7695L73.2099 71.2495Z" class="pr-icon-iso-duotone-primary-stroke" stroke-linejoin="round"/>
    <path d="M83.4499 38V61.5L68.91 68.77L66.3899 70.03L63.45 71.5V48L68.0899 45.68L78.01 40.72L83.4499 38Z" class="pr-icon-iso-duotone-primary-stroke" stroke-linejoin="round"/>
    <path d="M83.45 37.9999L78.01 40.7199L68.09 45.6799L63.45 47.9999L62.97 47.7199L59.55 45.7499L54.09 42.5899L47.27 38.6499L46.82 38.3899L45.9 37.8599L42.97 36.1699L45.9 34.7099L52.73 31.2899L55.7 29.8099L59.55 27.8799L62.97 26.1699L83.45 37.9999Z" class="pr-icon-iso-duotone-primary-stroke" stroke-linejoin="round"/>
    <path d="M42.49 14.3398V25.3798L37.36 27.9498L36.37 28.4398L32.73 30.2598V30.7298L31.35 31.4198L27.71 33.2298L25.9 34.1398V46.1498L22.49 47.8498V24.3398L27.12 22.0298L37.03 17.0698L42.49 14.3398Z" class="pr-icon-iso-duotone-primary-stroke" stroke-linejoin="round"/>
    <path d="M42.49 14.3398L37.03 17.0698L27.12 22.0298L22.49 24.3398L22 24.0598L2 12.5098L22 2.50977L42.49 14.3398Z" class="pr-icon-iso-duotone-primary-stroke" stroke-linejoin="round"/>
    <path d="M22 24.0598L2 12.5098V36.0198L5.63 38.1198L12.47 42.0598L19.29 45.9998L19.73 46.2598L22.49 47.8498V24.3398L22 24.0598ZM17.36 39.0098L11.08 35.3898L7.12 33.0998V21.3398L17.36 27.2598V39.0098Z" class="pr-icon-iso-duotone-primary-stroke" stroke-linejoin="round"/>
    <path d="M46.3899 78.0396V89.0695L40.6699 85.7695L36.1399 83.1596L37.9699 82.2495L42.4899 79.9895L46.3899 78.0396Z" class="pr-icon-iso-duotone-primary-stroke" stroke-linejoin="round"/>
    <path d="M83.45 88.9198L76.17 92.5598L73.21 94.0398L66.39 97.4498L63.45 98.9198L53.21 93.0098L65.94 86.6398L73.21 83.0098L83.45 88.9198Z" class="pr-icon-iso-duotone-primary-stroke" stroke-linejoin="round"/>
    <path d="M63.4499 98.9197V106.76L53.2099 100.85V112.6L46.3899 108.65V96.8997L36.1399 90.9897V83.1597L40.6699 85.7697L46.3899 89.0697V78.0397L47.0499 77.6997L53.2099 81.2497V93.0097L63.4499 98.9197Z" class="pr-icon-iso-duotone-primary-stroke" stroke-linejoin="round"/>
    <path d="M42.49 64.7896V79.9895L37.97 82.2495L36.14 83.1596V88.0396L22.49 94.8596V71.3495L26.12 69.5295L27.12 70.1096L29.31 71.3795H29.32L37.36 67.3596L42.49 64.7896Z" class="pr-icon-iso-duotone-primary-stroke" stroke-linejoin="round"/>
    <path d="M15.6501 55.65V63.49L8.83008 59.55V51.71L12.9201 54.07L15.6501 55.65Z" class="pr-icon-iso-duotone-primary-stroke" stroke-linejoin="round"/>
    <path d="M12.47 42.0596L8.83 43.8796L2 39.9296L5.63 38.1196L12.47 42.0596Z" class="pr-icon-iso-duotone-primary-stroke" stroke-linejoin="round"/>
    <path d="M15.6501 48.2998V55.6498L12.9201 54.0698L8.83008 51.7098L15.6501 48.2998Z" class="pr-icon-iso-duotone-primary-stroke" stroke-linejoin="round"/>
    <path d="M19.2901 45.9996L15.6501 47.8196V48.2996L8.83008 51.7096V43.8796L12.4701 42.0596L19.2901 45.9996Z" class="pr-icon-iso-duotone-primary-stroke" stroke-linejoin="round"/>
    <path d="M32.9399 53.88L31.1199 54.79L29.3099 55.7L21.9999 51.48L20.1899 50.44L16.0999 48.08L15.6499 47.82L19.2899 46L19.7299 46.26L22.4899 47.85L25.8999 46.15V49.82L32.9399 53.88Z" class="pr-icon-iso-duotone-primary-stroke" stroke-linejoin="round"/>
    <path d="M62.97 47.7199L59.55 45.7499L54.09 42.5899L47.27 38.6499L46.82 38.3899L45.9 37.8599L42.97 36.1699V59.6699L47.5 62.2899L60.94 70.0499L63.45 71.4999V47.9999L62.97 47.7199ZM58.34 62.6599L49.31 57.4499L48.09 56.7499V44.9999L48.64 45.3099L49.31 45.6999L55.92 49.5099L58.34 50.9099V62.6599Z" class="pr-icon-iso-duotone-primary-stroke" stroke-linejoin="round"/>
    <path d="M58.3401 50.91V51.63L49.3101 56.14L48.0901 56.75V45L48.6401 45.31V45.32L49.3101 45.7L55.9201 49.51L58.3401 50.91Z" class="pr-icon-iso-duotone-primary-stroke" stroke-linejoin="round"/>
    <path d="M58.3401 51.6299V62.6599L49.3101 57.4499L48.0901 56.7499L49.3101 56.1399L58.3401 51.6299Z" class="pr-icon-iso-duotone-primary-stroke" stroke-linejoin="round"/>
    <path d="M42.9701 48.1499V55.9899L42.4901 56.2299L39.55 57.6999V49.8599L41.37 48.9499L42.9701 48.1499Z" class="pr-icon-iso-duotone-primary-stroke" stroke-linejoin="round"/>
    <path d="M42.97 40.3198V40.7998L41.82 41.3798L35.65 44.4598L34.55 45.0098L32.73 45.9198V38.0898L33.83 38.7298L35.65 39.7798L37.03 40.5798L39.55 42.0298L41.37 41.1198L42.97 40.3198Z" class="pr-icon-iso-duotone-primary-stroke" stroke-linejoin="round"/>
    <path d="M42.97 40.7998V48.1498L41.37 48.9498L39.55 49.8598L35.65 47.6098L32.73 45.9198L34.55 45.0098L35.65 44.4598L41.82 41.3798L42.97 40.7998Z" class="pr-icon-iso-duotone-primary-stroke" stroke-linejoin="round"/>
</svg>