<svg width="24" height="24" viewBox="0 0 89 124" class="pr-icon-iso-duotone-secondary" xmlns="http://www.w3.org/2000/svg" stroke-width="1px" stroke-linecap="round" stroke-linejoin="round">
    <path d="M65.0005 47.9999L57.9407 43.9199L50.8806 39.8499L43.8206 35.7699L37.9407 32.3799V64.7799L38.3906 65.0399L43.8206 68.1699L45.4604 69.1199L50.8806 72.2499L52.5105 73.1899L59.5806 77.2699L60.0305 77.5299L65.0005 80.3999L66.1807 81.0799V48.6799L65.0005 47.9999ZM59.1206 68.8999L57.9407 68.2199L52.9805 65.3599L50.8806 64.1399L45.9207 61.2799L45.0005 60.7499V44.5499L50.8806 47.9399L57.9407 52.0199L59.1206 52.6999V68.8999Z" class="pr-icon-iso-duotone-primary-stroke" stroke-linejoin="round"/>
    <path d="M52.5105 73.1901L50.8806 74.0101L45.0005 76.9501L43.8206 76.2701L37.9407 72.8801L45.4604 69.1201L50.8806 72.2501L52.5105 73.1901Z" class="pr-icon-iso-duotone-primary-stroke" stroke-linejoin="round"/>
    <path d="M29.7007 68.12L22.6406 64.04L2.64062 52.5V84.9L30.8806 101.2V68.8L29.7007 68.12ZM23.8206 89.03L9.70068 80.88V64.68L22.6406 72.15L23.8206 72.83V89.03Z" class="pr-icon-iso-duotone-primary-stroke" stroke-linejoin="round"/>
    <path d="M29.7007 27.62L22.6406 23.54L2.64062 12V44.4L10.1606 48.74L22.6406 55.94L29.7007 60.02L30.8806 60.7V28.3L29.7007 27.62ZM23.8206 48.53L22.6406 47.85L17.6707 44.98L9.70068 40.38V24.17L22.6406 31.65L23.8206 32.33V48.53Z" class="pr-icon-iso-duotone-primary-stroke" stroke-linejoin="round"/>
    <path d="M45.0005 76.9499V85.0499L37.9407 80.9799V72.8799L43.8206 76.2699L45.0005 76.9499Z" class="pr-icon-iso-duotone-primary-stroke" stroke-linejoin="round"/>
    <path d="M86.1807 103.48V111.58L66.1807 121.58V113.48L79.1206 107.01L86.1807 103.48Z" class="pr-icon-iso-duotone-primary-stroke" stroke-linejoin="round"/>
    <path d="M86.1807 103.48L79.1206 107.01L66.1807 113.48L59.5806 109.67L59.1206 109.41L71.6106 103.17L72.0605 102.94L79.1206 99.4102L86.1807 103.48Z" class="pr-icon-iso-duotone-primary-stroke" stroke-linejoin="round"/>
    <path d="M37.9407 80.98L45.0005 85.05V85.55L42.9106 86.6L37.9407 89.08V97.18L38.4006 97.44L30.8806 101.2V68.8L38.3906 65.04L43.8206 68.17L45.4604 69.12L37.9407 72.88V80.98Z" class="pr-icon-iso-duotone-primary-stroke" stroke-linejoin="round"/>
    <path d="M59.1206 53.6899V68.8999L57.9407 68.2199L52.9805 65.3599L50.8806 64.1399L45.9207 61.2799L45.0005 60.7499L49.9604 58.2699L57.9407 54.2799L59.1206 53.6899Z" class="pr-icon-iso-duotone-primary-stroke" stroke-linejoin="round"/>
    <path d="M86.1807 38.6799L78.6707 42.4399L66.1807 48.6799L65.0005 47.9999L57.9407 43.9199L50.8806 39.8499L43.8206 35.7699L37.9407 32.3799L43.8206 29.4399L50.8806 25.9099L57.9407 22.3799L86.1807 38.6799Z" class="pr-icon-iso-duotone-primary-stroke" stroke-linejoin="round"/>
    <path d="M45.0005 85.5498V93.1498L37.9407 89.0798L42.9106 86.5998L45.0005 85.5498Z" class="pr-icon-iso-duotone-primary-stroke" stroke-linejoin="round"/>
    <path d="M23.8206 72.8302V73.8202L22.6406 74.4102L9.70068 80.8802V64.6802L22.6406 72.1502L23.8206 72.8302Z" class="pr-icon-iso-duotone-primary-stroke" stroke-linejoin="round"/>
    <path d="M23.8206 73.8198V89.0298L9.70068 80.8798L22.6406 74.4098L23.8206 73.8198Z" class="pr-icon-iso-duotone-primary-stroke" stroke-linejoin="round"/>
    <path d="M38.3906 65.0402L30.8806 68.8002L29.7007 68.1202L22.6406 64.0402L2.64062 52.5002L10.1606 48.7402L22.6406 55.9402L29.7007 60.0202L30.8806 60.7002L35.8406 58.2202L37.9407 57.1702V64.7802L38.3906 65.0402Z" class="pr-icon-iso-duotone-primary-stroke" stroke-linejoin="round"/>
    <path d="M50.8806 18.2998V25.9098L43.8206 29.4398L37.9407 32.3798V57.1698L35.8406 58.2198L30.8806 60.6998V28.2998L50.8806 18.2998Z" class="pr-icon-iso-duotone-primary-stroke" stroke-linejoin="round"/>
    <path d="M23.8206 32.3299V33.3199L22.6406 33.9099L9.70068 40.3799V24.1699L22.6406 31.6499L23.8206 32.3299Z" class="pr-icon-iso-duotone-primary-stroke" stroke-linejoin="round"/>
    <path d="M23.8206 33.3198V48.5298L22.6406 47.8498L17.6707 44.9798L9.70068 40.3798L22.6406 33.9098L23.8206 33.3198Z" class="pr-icon-iso-duotone-primary-stroke" stroke-linejoin="round"/>
    <path d="M50.8806 18.3L30.8806 28.3L29.7007 27.62L22.6406 23.54L2.64062 12L22.6406 2L50.8806 18.3Z" class="pr-icon-iso-duotone-primary-stroke" stroke-linejoin="round"/>
    <path d="M79.1206 75.1001V83.2001L64.0806 90.7201L59.1206 93.2001V85.1001L64.0806 82.6201L65.0005 82.1601L71.6006 78.8601L72.0605 78.6301L79.1206 75.1001Z" class="pr-icon-iso-duotone-primary-stroke" stroke-linejoin="round"/>
    <path d="M86.1807 87.2802L66.1807 97.2802L65.0005 96.6002L59.1206 93.2002L64.0806 90.7202L79.1206 83.2002L86.1807 87.2802Z" class="pr-icon-iso-duotone-primary-stroke" stroke-linejoin="round"/>
    <path d="M66.1807 97.2798V105.38L59.1206 101.3V109.41L52.0605 105.33V113.43L45.0005 109.35V101.25L38.4006 97.4398L37.9407 97.1798V89.0798L45.0005 93.1498V85.0498L45.4604 85.3198L50.8806 88.4498L52.0605 89.1298V81.0298L52.5205 81.2898L52.9805 81.5598L57.9407 84.4198L59.1206 85.0998V93.1998L65.0005 96.5998L66.1807 97.2798Z" class="pr-icon-iso-duotone-primary-stroke" stroke-linejoin="round"/>
    <path d="M86.1807 87.2798V95.3798L79.1206 98.9098L78.6606 99.1398L72.0605 102.44L71.1406 102.9L66.1807 105.38V97.2798L86.1807 87.2798Z" class="pr-icon-iso-duotone-primary-stroke" stroke-linejoin="round"/>
    <path d="M79.1206 98.9102V99.4102L78.6606 99.1401L79.1206 98.9102Z" class="pr-icon-iso-duotone-primary-stroke" stroke-linejoin="round"/>
    <path d="M59.1206 52.6998V53.6898L57.9407 54.2798L49.9604 58.2698L45.0005 60.7498V44.5498L50.8806 47.9398L57.9407 52.0198L59.1206 52.6998Z" class="pr-icon-iso-duotone-primary-stroke" stroke-linejoin="round"/>
    <path d="M86.1807 38.6802V71.0802L78.6606 74.8402L72.0605 78.1402L71.1406 78.6002L66.1807 81.0802V48.6802L78.6707 42.4402L86.1807 38.6802Z" class="pr-icon-iso-duotone-primary-stroke" stroke-linejoin="round"/>
    <path d="M59.5806 77.2699L52.0605 81.0299V81.5199L50.8806 82.1099L45.0005 85.0499V76.9499L50.8806 74.0099L52.5105 73.1899L59.5806 77.2699Z" class="pr-icon-iso-duotone-primary-stroke" stroke-linejoin="round"/>
    <path d="M79.1206 75.0998L72.0605 78.6298L71.6006 78.8598L65.0005 82.1598L64.0806 82.6198L59.1206 85.0998L57.9407 84.4198L52.9805 81.5598L52.5205 81.2898L52.0605 81.0298L59.5806 77.2698L60.0305 77.5298L65.0005 80.3998L66.1807 81.0798L71.1406 78.5998L72.0605 78.1398L78.6606 74.8398L79.1206 75.0998Z" class="pr-icon-iso-duotone-primary-stroke" stroke-linejoin="round"/>
    <path d="M79.1206 99.4102L72.0605 102.94L71.6106 103.17L59.1206 109.41V101.3L66.1807 105.38L71.1406 102.9L72.0605 102.44L78.6606 99.1401L79.1206 99.4102Z" class="pr-icon-iso-duotone-primary-stroke" stroke-linejoin="round"/>
    <path d="M66.1807 113.48V121.58L59.1206 117.51V109.41L59.5806 109.67L66.1807 113.48Z" class="pr-icon-iso-duotone-primary-stroke" stroke-linejoin="round"/>
    <path d="M59.1206 109.41V109.9L52.0605 113.43V105.33L59.1206 109.41Z" class="pr-icon-iso-duotone-primary-stroke" stroke-linejoin="round"/>
    <path d="M52.0605 81.52V89.13L50.8806 88.45L45.4604 85.32L45.0005 85.05L50.8806 82.11L52.0605 81.52Z" class="pr-icon-iso-duotone-primary-stroke" stroke-linejoin="round"/>
</svg>