<svg width="24" height="24" viewBox="0 0 95 127" class="pr-icon-iso-duotone-secondary" xmlns="http://www.w3.org/2000/svg" stroke-width="1px" stroke-linecap="round" stroke-linejoin="round">
    <path d="M72.38 73.83C72.38 75.21 72.26 76.46 72 77.57C71.4 80.24 70.08 82.16 68.03 83.32C67.13 83.84 66.17 84.16 65.16 84.29C62.9 84.57 60.37 83.9 57.56 82.27L52.84 79.55L45.43 75.27L33.12 68.16L25.71 63.88L13.6 56.89L5.71 52.34V43.84L21.49 52.95L25.71 55.38L57.56 73.77C59.6 74.95 61.34 75.13 62.8 74.3C63.35 73.98 63.8 73.56 64.13 73.02C64.69 72.15 64.97 71 64.97 69.55C64.97 67.86 64.59 66.12 63.83 64.34C63.54 63.66 63.2 62.98 62.8 62.29C61.34 59.79 59.6 57.95 57.56 56.77L28.66 40.08L28.31 39.88L25.71 38.38L21.5 35.95L16.17 32.87L18.77 37.31L22.1 42.99L16.82 46L13.35 40.02L2 20.44L16.82 12L22.1 21L16.17 24.37L36.2 35.94L36.55 36.14L57.56 48.27C61.19 50.36 64.35 53.5 67.03 57.69C67.38 58.21 67.71 58.75 68.03 59.31C69.94 62.61 71.22 65.83 71.87 68.99C72.21 70.62 72.38 72.23 72.38 73.83Z" class="pr-icon-iso-duotone-primary-stroke" stroke-linejoin="round"/>
    <path d="M92.3799 89.33V114.83L72.3799 124.83V99.33L76.5999 97.22L84.4899 93.27L92.3799 89.33Z" class="pr-icon-iso-duotone-primary-stroke" stroke-linejoin="round"/>
    <path d="M42.0999 11L36.1699 14.37L16.1699 24.37L22.0999 21L26.7699 18.67L42.0999 11Z" class="pr-icon-iso-duotone-primary-stroke" stroke-linejoin="round"/>
    <path d="M42.1003 11L26.7703 18.67L22.1003 21L16.8203 12L36.8203 2L42.1003 11Z" class="pr-icon-iso-duotone-primary-stroke" stroke-linejoin="round"/>
    <path d="M64.97 69.55C64.97 71 64.69 72.15 64.13 73.02C63.8 73.56 63.35 73.98 62.8 74.3C61.34 75.13 59.6 74.95 57.56 73.77L25.71 55.38L21.49 52.95L5.70996 43.84L13.35 40.02L16.82 46L25.71 41.56L28.66 40.08L57.56 56.77C59.6 57.95 61.34 59.79 62.8 62.29C63.2 62.98 63.54 63.66 63.83 64.34C64.59 66.12 64.97 67.86 64.97 69.55Z" class="pr-icon-iso-duotone-primary-stroke" stroke-linejoin="round"/>
    <path d="M28.6603 40.08L25.7103 41.56L16.8203 46L22.1003 42.99L25.7103 41.19L28.3103 39.88L28.6603 40.08Z" class="pr-icon-iso-duotone-primary-stroke" stroke-linejoin="round"/>
    <path d="M92.3799 63.83C92.3799 68.5 90.9299 71.67 88.0299 73.32L87.2999 73.69L75.4999 79.58L68.0299 83.32C70.0799 82.16 71.3999 80.24 71.9999 77.57C72.2599 76.46 72.3799 75.21 72.3799 73.83C72.3799 72.23 72.2099 70.62 71.8699 68.99C71.2199 65.83 69.9399 62.61 68.0299 59.31C67.7099 58.75 67.3799 58.21 67.0299 57.69C64.3499 53.5 61.1899 50.36 57.5599 48.27L36.5499 36.14L36.1999 35.94L16.1699 24.37L36.1699 14.37L77.5599 38.27C81.6399 40.62 85.1299 44.3 88.0299 49.31C90.9299 54.31 92.3799 59.15 92.3799 63.83Z" class="pr-icon-iso-duotone-primary-stroke" stroke-linejoin="round"/>
    <path d="M28.3099 39.88L25.7099 41.19L22.0999 42.99L18.7699 37.31L16.1699 32.87L21.4999 35.95L25.7099 38.38L28.3099 39.88Z" class="pr-icon-iso-duotone-primary-stroke" stroke-linejoin="round"/>
    <path d="M92.38 89.33L84.49 93.27L76.6 97.22L72.38 99.33L68.44 97.05L48.62 85.61L28.89 74.22L25.71 72.39L5.70996 60.84L13.6 56.89L25.71 63.88L33.12 68.16L45.43 75.27L52.84 79.55L57.56 82.27C60.37 83.9 62.9 84.57 65.16 84.29C66.17 84.16 67.13 83.84 68.03 83.32L75.5 79.58L92.38 89.33Z" class="pr-icon-iso-duotone-primary-stroke" stroke-linejoin="round"/>
    <path d="M68.44 97.05L48.62 85.61L28.89 74.22L25.71 72.39L5.70996 60.84V86.34L72.38 124.83V99.33L68.44 97.05ZM25.43 89.23L13.12 82.11V73.61L21.01 78.17L25.43 80.72V89.23ZM45.16 100.61L32.84 93.5V85L40.73 89.55L45.16 92.11V100.61ZM64.97 112.05L52.66 104.94V96.44L60.55 101L64.97 103.55V112.05Z" class="pr-icon-iso-duotone-primary-stroke" stroke-linejoin="round"/>
    <path d="M21.0101 78.17L13.1201 82.11V73.61L21.0101 78.17Z" class="pr-icon-iso-duotone-primary-stroke" stroke-linejoin="round"/>
    <path d="M25.4301 80.72V89.23L13.1201 82.11L21.0101 78.17L25.4301 80.72Z" class="pr-icon-iso-duotone-primary-stroke" stroke-linejoin="round"/>
    <path d="M40.7298 89.55L32.8398 93.5V85L40.7298 89.55Z" class="pr-icon-iso-duotone-primary-stroke" stroke-linejoin="round"/>
    <path d="M45.1598 92.11V100.61L32.8398 93.5L40.7298 89.55L45.1598 92.11Z" class="pr-icon-iso-duotone-primary-stroke" stroke-linejoin="round"/>
    <path d="M60.5502 101L52.6602 104.94V96.4399L60.5502 101Z" class="pr-icon-iso-duotone-primary-stroke" stroke-linejoin="round"/>
    <path d="M64.9702 103.55V112.05L52.6602 104.94L60.5502 101L64.9702 103.55Z" class="pr-icon-iso-duotone-primary-stroke" stroke-linejoin="round"/>
</svg>