<svg width="48" height="48" viewBox="0 0 88 124" fill="#c8e7ff" xmlns="http://www.w3.org/2000/svg" stroke-width="1px" stroke-linecap="round" stroke-linejoin="round"><path d="M60.78 46.1801L39.01 33.61L37.8599 32.9401L36.6399 32.24L29.05 27.86L22 23.79L2 12.24V85.0701L65.46 121.71V48.88L60.78 46.1801ZM40.78 99.37L9.05005 81.05V24.41L22 31.89L29.05 35.9601L29.1199 36L37.8599 41.04L40.78 42.73V99.37Z" stroke="#229EFF" stroke-linejoin="round"/><path d="M17.8596 41.63V74L21.9998 71.9301L29.0498 68.41V71.05L21.9998 74.5801L9.0498 81.05V24.41L21.9998 31.89L29.0498 35.9601L29.1196 36L29.0498 36.04L21.9998 39.5601L17.8596 41.63Z" stroke="#229EFF" stroke-linejoin="round"/><path d="M40.7795 61.5601V62.3401L37.8594 64L29.0496 68.41L21.9995 71.9301L17.8594 74L21.9995 71.64L29.0496 67.62L31.9695 65.9601L37.8594 63.02L40.7795 61.5601Z" stroke="#229EFF" stroke-linejoin="round"/><path d="M31.9695 65.9601L29.0496 67.62L21.9995 71.64L17.8594 74V41.63L21.9995 48.77L29.0496 60.9301L31.9695 65.9601Z" stroke="#229EFF" stroke-linejoin="round"/><path d="M40.7795 42.73V61.5601L37.8594 63.02L31.9695 65.9601L29.0496 60.9301L21.9995 48.77L17.8594 41.63L21.9995 39.5601L29.0496 36.04L29.1194 36L37.8594 41.04L40.7795 42.73Z" stroke="#229EFF" stroke-linejoin="round"/><path d="M40.7798 77.8201V99.37L9.0498 81.05L21.9998 74.5801L29.0498 71.05L40.7798 77.8201Z" stroke="#229EFF" stroke-linejoin="round"/><path d="M85.46 38.88V111.71L65.46 121.71V48.88L85.46 38.88Z" stroke="#229EFF" stroke-linejoin="round"/><path d="M85.46 38.88L65.46 48.88L60.78 46.1801L39.01 33.61L37.8599 32.9401L36.6399 32.24L29.05 27.86L22 23.79L2 12.24L22 2.23999L85.46 38.88Z" stroke="#229EFF" stroke-linejoin="round"/></svg>