<svg width="48" height="48" viewBox="0 0 85 83" fill="#c8e7ff" xmlns="http://www.w3.org/2000/svg" stroke-width="1px" stroke-linecap="round" stroke-linejoin="round"><path d="M23.53 58.69C23.53 61.63 22.64 63.62 20.84 64.64C19.56 65.37 17.42 65.4 14.42 64.73C11.42 64.05 7.28 62.61 2 60.38C2.72 54.74 3.54 50.47 4.46 47.59C5.39 44.72 6.49 42.91 7.77 42.18L8.34 41.9C10.02 41.22 12.01 41.52 14.31 42.82C16.87 44.27 19.05 46.54 20.84 49.64C22.64 52.73 23.53 55.75 23.53 58.69Z" stroke="#229EFF" stroke-linejoin="round"/><path d="M52.06 70.62C51.76 71.59 51.24 72.28 50.52 72.69L37.68 80.01L32.76 64.2C36.55 64.68 39.8 64.79 42.49 64.52C45.18 64.25 48.17 63.47 51.45 62.19L52.22 67.22C52.42 68.52 52.37 69.65 52.06 70.62Z" stroke="#229EFF" stroke-linejoin="round"/><path d="M62.44 25.92C61.02 24.82 59.56 23.84 58.08 22.99C54.33 20.82 50.37 19.46 46.22 18.89C45.08 18.74 43.97 18.64 42.89 18.62C40.2 18.56 37.66 18.89 35.27 19.62C34.46 19.87 33.66 20.16 32.88 20.51L32.73 20.58C32.06 20.87 31.4 21.2 30.76 21.57C28.18 23.04 25.94 24.9 24.05 27.15C23.83 27.4 23.62 27.66 23.42 27.92C21.48 30.4 19.93 33.31 18.78 36.67C18.72 36.84 18.66 36.99 18.61 37.15L22.87 44.52L27.53 52.59L30.61 57.92C31.53 58.11 32.44 58.27 33.34 58.39C36.04 58.74 38.64 58.75 41.14 58.4C44.48 57.95 47.55 56.91 50.37 55.3C53.25 53.66 55.67 51.44 57.6 48.65C58.7 47.08 59.65 45.32 60.44 43.38C61.87 39.9 62.65 36.23 62.78 32.37C62.87 30.28 62.75 28.13 62.44 25.92ZM48.53 43.83C48.46 43.87 48.39 43.91 48.31 43.94C47.18 44.48 45.8 44.28 44.18 43.35C43.32 42.86 42.53 42.23 41.81 41.48C41.81 41.48 41.81 41.47 41.8 41.47C41.08 40.71 40.42 39.82 39.84 38.81C39.43 38.11 39.1 37.42 38.84 36.73C38.32 35.4 38.07 34.09 38.07 32.8C38.07 30.93 38.6 29.65 39.66 28.96C39.72 28.91 39.78 28.87 39.84 28.84C41.01 28.17 42.46 28.33 44.18 29.32C45.9 30.31 47.35 31.82 48.53 33.86C49.7 35.89 50.29 37.89 50.29 39.86C50.29 41.83 49.7 43.15 48.53 43.83Z" stroke="#229EFF" stroke-linejoin="round"/><path d="M25.3 17.18C22.53 19.35 20.35 21.5 18.77 23.64C17.18 25.79 15.64 28.6 14.15 32.1L2.84998 20.01L15.77 12.65L16.13 12.47C16.76 12.22 17.49 12.17 18.3 12.35C19.28 12.56 20.28 13.08 21.3 13.9L25.3 17.18Z" stroke="#229EFF" stroke-linejoin="round"/><path d="M72.0601 60.62C71.7601 61.59 71.2401 62.28 70.5201 62.69L57.6801 70.01L37.6801 80.01L50.5201 72.69C51.2401 72.28 51.7601 71.59 52.0601 70.62C52.3701 69.65 52.4201 68.52 52.2201 67.22L51.4501 62.19L54.7401 60.55L71.4501 52.19L72.2201 57.22C72.4201 58.52 72.3701 59.65 72.0601 60.62Z" stroke="#229EFF" stroke-linejoin="round"/><path d="M50.29 39.86C50.29 41.83 49.7 43.15 48.53 43.83C48.46 43.87 48.39 43.91 48.31 43.94C47.18 44.48 45.8 44.28 44.18 43.35C43.32 42.86 42.53 42.23 41.81 41.48C41.81 41.48 41.81 41.47 41.8 41.47C41.08 40.71 40.42 39.82 39.84 38.81C39.43 38.11 39.1 37.42 38.84 36.73C38.32 35.4 38.07 34.09 38.07 32.8C38.07 30.93 38.6 29.65 39.66 28.96C39.72 28.91 39.78 28.87 39.84 28.84C41.01 28.17 42.46 28.33 44.18 29.32C45.9 30.31 47.35 31.82 48.53 33.86C49.7 35.89 50.29 37.89 50.29 39.86Z" stroke="#229EFF" stroke-linejoin="round"/><path d="M45.3 7.17999C42.53 9.34999 40.35 11.5 38.77 13.64C37.64 15.16 36.54 17.01 35.47 19.21L32.88 20.51L32.73 20.58C32.06 20.87 31.4 21.2 30.76 21.57C28.18 23.04 25.94 24.9 24.05 27.15L14.15 32.1C15.64 28.6 17.18 25.79 18.77 23.64C20.35 21.5 22.53 19.35 25.3 17.18L45.3 7.17999Z" stroke="#229EFF" stroke-linejoin="round"/><path d="M45.3 7.18L25.3 17.18L21.3 13.9C20.28 13.08 19.28 12.56 18.3 12.35C17.49 12.17 16.76 12.22 16.13 12.47L35.77 2.65C36.48 2.24 37.33 2.14001 38.3 2.35001C39.28 2.56001 40.28 3.08 41.3 3.9L45.3 7.18Z" stroke="#229EFF" stroke-linejoin="round"/><path d="M71.45 52.19L54.74 60.55L51.45 62.19C48.17 63.47 45.18 64.25 42.49 64.52C39.8 64.79 36.55 64.68 32.76 64.2L52.76 54.2C56.55 54.68 59.8 54.79 62.49 54.52C65.18 54.25 68.17 53.47 71.45 52.19Z" stroke="#229EFF" stroke-linejoin="round"/><path d="M82.44 15.92L62.44 25.92C61.02 24.82 59.56 23.84 58.08 22.99C54.33 20.82 50.37 19.46 46.22 18.89C45.08 18.74 43.97 18.64 42.89 18.62C40.2 18.56 37.66 18.89 35.27 19.62C34.46 19.87 33.66 20.16 32.88 20.51L35.47 19.22L50.76 11.57C55.27 9.00001 60.43 8.10002 66.22 8.89002C72.01 9.68002 77.42 12.02 82.44 15.92Z" stroke="#229EFF" stroke-linejoin="round"/><path d="M80.44 33.38C78.24 38.76 74.88 42.73 70.37 45.3C69.67 45.71 68.94 46.07 68.2 46.39L67.96 46.5L50.37 55.3C53.25 53.66 55.67 51.44 57.6 48.65C58.7 47.08 59.65 45.32 60.44 43.38C61.87 39.9 62.65 36.23 62.78 32.37C62.87 30.28 62.75 28.13 62.44 25.92L82.44 15.92C83.32 22.19 82.65 28.01 80.44 33.38Z" stroke="#229EFF" stroke-linejoin="round"/><path d="M23.53 58.69C23.53 55.75 22.64 52.73 20.84 49.64C19.05 46.54 16.87 44.27 14.31 42.82C12.01 41.52 10.02 41.22 8.34003 41.9L18.78 36.68C18.72 36.84 18.66 36.99 18.61 37.15L22.87 44.52L27.53 52.59L30.61 57.92C31.53 58.11 32.44 58.27 33.34 58.39L20.84 64.64C22.64 63.62 23.53 61.63 23.53 58.69Z" stroke="#229EFF" stroke-linejoin="round"/></svg>