<svg width="24" height="24" viewBox="0 0 91 118" class="pr-icon-iso-duotone-secondary" xmlns="http://www.w3.org/2000/svg" stroke-width="1px" stroke-linecap="round" stroke-linejoin="round">
    <path d="M69 107.94V115.62L65.65 113.69C63.92 112.69 62.22 111.47 60.54 110.02C58.87 108.57 57.22 106.9 55.6 105C53.98 105.03 52.34 104.8 50.66 104.31C48.99 103.83 47.28 103.08 45.55 102.09C43.82 101.09 42.12 99.86 40.44 98.41C38.77 96.97 37.12 95.3 35.5 93.4C33.88 93.43 32.24 93.2 30.56 92.71C28.89 92.22 27.18 91.48 25.45 90.48C23.72 89.48 22.02 88.26 20.34 86.81C18.67 85.36 17.02 83.69 15.4 81.79C13.78 81.82 12.13 81.59 10.46 81.1C8.78 80.62 7.08 79.87 5.35 78.87L2 76.94V69.25L5.35 71.19C7.14 72.22 8.88 72.91 10.59 73.25C12.29 73.59 13.89 73.56 15.4 73.14C16.91 75.3 18.51 77.17 20.22 78.76C21.92 80.35 23.66 81.66 25.45 82.7C27.24 83.73 28.97 84.42 30.64 84.78C32.32 85.14 33.94 85.13 35.5 84.75C37.01 86.9 38.61 88.77 40.32 90.37C42.02 91.96 43.77 93.27 45.55 94.3C47.34 95.33 49.07 96.03 50.74 96.39C52.42 96.74 54.04 96.73 55.6 96.36C57.17 98.54 58.79 100.44 60.46 102.04C62.14 103.65 63.87 104.97 65.65 106L69 107.94Z" class="pr-icon-iso-duotone-primary-stroke" stroke-linejoin="round"/>
    <path d="M69 84.8699C68.94 85.1999 68.87 85.5099 68.79 85.8199C68.32 87.8099 67.59 89.4899 66.58 90.8699C66.46 91.0399 66.33 91.2099 66.2 91.3699C65.99 91.6299 65.78 91.87 65.55 92.09C64.86 92.81 64.11 93.39 63.29 93.85L62.69 94.15C62.22 94.37 61.73 94.5499 61.21 94.6899C60.97 94.4399 60.73 94.1799 60.49 93.9199C59.66 92.9799 58.88 91.98 58.16 90.91C57.24 89.55 56.38 88.1599 55.6 86.7399C54.32 87.6699 52.82 88.1799 51.12 88.2899C49.42 88.3999 47.56 87.87 45.55 86.71C43.7 85.64 41.97 84.1799 40.36 82.3199C40.22 82.1599 40.08 82 39.94 81.83C38.21 79.75 36.73 77.51 35.5 75.14C34.27 76.1 32.79 76.62 31.06 76.71C29.33 76.8 27.46 76.26 25.45 75.1C23.6 74.03 21.86 72.57 20.26 70.71C20.11 70.55 19.97 70.3899 19.84 70.2299C18.11 68.1399 16.63 65.91 15.4 63.53C14.62 64.04 13.77 64.4499 12.85 64.7499C12.1 64.9899 11.28 65.0999 10.4 65.0499C10.2 65.0499 10 65.0199 9.79 64.9999C7.84 62.2099 6.17 59.1799 4.81 55.9299C3.44 52.6699 2.5 49.4199 2 46.1899L31.87 63.4299L33.24 64.22L39 67.5499L51.86 74.9799H51.87L53.34 75.83L59.09 79.15L69 84.8699Z" class="pr-icon-iso-duotone-primary-stroke" stroke-linejoin="round"/>
    <path d="M32.1496 13.6199V57.8299L7.35961 43.5099L5.34961 42.3499L32.1496 13.6199Z" class="pr-icon-iso-duotone-primary-stroke" stroke-linejoin="round"/>
    <path d="M89 97.9399V105.62L69 115.62V107.94L82.17 101.35L89 97.9399Z" class="pr-icon-iso-duotone-primary-stroke" stroke-linejoin="round"/>
    <path d="M89.0006 97.9398L82.1806 101.35L69.0006 107.94L65.6506 106C63.8706 104.97 62.1406 103.65 60.4606 102.04C58.7906 100.44 57.1706 98.5398 55.6006 96.3598L60.4906 93.9198C60.7306 94.1798 60.9706 94.4398 61.2106 94.6898C61.7306 94.5498 62.2206 94.3698 62.6906 94.1498L63.2906 93.8499L66.1506 92.4198L76.3206 87.3298C77.6606 89.1098 79.0406 90.6798 80.4606 92.0398C82.1406 93.6498 83.8706 94.9698 85.6506 95.9998L89.0006 97.9398Z" class="pr-icon-iso-duotone-primary-stroke" stroke-linejoin="round"/>
    <path d="M89 74.8699C88.5 77.5299 87.57 79.6899 86.2 81.3699C85.2 82.5999 84.04 83.5199 82.73 84.1299L82.62 84.1799L76.32 87.3299L66.15 92.4199L63.29 93.8499C64.11 93.3899 64.86 92.8099 65.55 92.0899C65.78 91.8699 65.99 91.6299 66.2 91.3699C66.33 91.2099 66.46 91.0399 66.58 90.8699C67.59 89.4899 68.32 87.8099 68.79 85.8199C68.87 85.5099 68.94 85.1999 69 84.8699L77.85 80.4399L89 74.8699Z" class="pr-icon-iso-duotone-primary-stroke" stroke-linejoin="round"/>
    <path d="M52.1504 3.61987V5.19989L49.4004 6.56989L37.1804 12.6799C37.5804 14.1799 37.9804 16.0799 38.4004 18.3699C38.7204 20.2299 39.0604 22.3499 39.4004 24.7199C40.1504 30.0299 40.5304 34.9899 40.5304 39.5999C40.5304 40.1099 40.5304 40.6099 40.5104 41.1099C40.4804 43.0199 40.3704 44.8899 40.2004 46.6999C40.0004 48.7199 39.7204 50.6799 39.3504 52.5699C39.2204 53.2199 39.1004 53.8299 38.9804 54.4099L36.5704 55.6199L32.1504 57.8299V13.6199L52.1504 3.61987Z" class="pr-icon-iso-duotone-primary-stroke" stroke-linejoin="round"/>
    <path d="M40.5097 41.1099C40.5297 40.6099 40.5297 40.11 40.5297 39.6C40.5297 34.99 40.1497 30.03 39.3997 24.72C39.0597 22.35 38.7197 20.2299 38.3997 18.3699C37.9797 16.0799 37.5797 14.1799 37.1797 12.6799C38.2997 13.7099 39.4197 14.84 40.5297 16.08C42.8097 18.6 45.0797 21.5699 47.3497 24.9899C49.0297 27.5199 50.6297 30.16 52.1497 32.9C53.6697 35.66 55.1197 38.5399 56.4797 41.5099C57.2097 43.0999 57.8997 44.6899 58.5497 46.2999C59.4497 48.4999 60.2697 50.72 61.0297 52.95C61.7897 55.18 62.4797 57.4299 63.0997 59.6899C63.1197 59.7799 63.1497 59.87 63.1697 59.96C64.7697 65.88 65.5997 71.4499 65.6397 76.6699C65.6497 76.6999 65.6497 76.7299 65.6397 76.7599C65.6497 76.8999 65.6497 77.0299 65.6497 77.1699L37.1797 60.7299C37.4897 60.0899 37.7997 59.1699 38.1197 57.9899C38.3997 56.9899 38.6797 55.8099 38.9797 54.4199C39.0997 53.8299 39.2197 53.2199 39.3497 52.5699C39.7197 50.6799 39.9997 48.72 40.1997 46.7C40.3697 44.89 40.4797 43.0199 40.5097 41.1099Z" class="pr-icon-iso-duotone-primary-stroke" stroke-linejoin="round"/>
    <path d="M85.6497 67.1699L80.2997 69.85L65.6497 77.1699C65.6497 77.0299 65.6497 76.8999 65.6397 76.7599C65.6497 76.7299 65.6497 76.6999 65.6397 76.6699C65.5997 71.4499 64.7697 65.88 63.1697 59.96C63.1497 59.87 63.1197 59.7799 63.0997 59.6899C62.4797 57.4299 61.7897 55.18 61.0297 52.95C60.2697 50.72 59.4497 48.4999 58.5497 46.2999C57.8997 44.6899 57.2097 43.0999 56.4797 41.5099C55.1197 38.5399 53.6697 35.66 52.1497 32.9C50.6297 30.16 49.0297 27.5199 47.3497 24.9899C45.0797 21.5699 42.8097 18.6 40.5297 16.08C39.4197 14.84 38.2997 13.7099 37.1797 12.6799L49.3997 6.56995L52.1497 5.19995L57.1797 2.67993C60.5797 5.79993 63.9697 9.89993 67.3497 14.9899C70.7297 20.0799 73.7697 25.5899 76.4797 31.5099C79.1897 37.4299 81.3997 43.4899 83.0997 49.6899C84.7997 55.8999 85.6497 61.7199 85.6497 67.1699Z" class="pr-icon-iso-duotone-primary-stroke" stroke-linejoin="round"/>
    <path d="M89 74.87L77.85 80.44L69 84.87L59.09 79.15L53.34 75.83L51.87 74.98H51.86L39 67.55L33.24 64.22L31.87 63.43L2 46.19L7.36 43.51L32.15 57.83L36.57 55.62L38.98 54.42C38.68 55.81 38.4 56.99 38.12 57.99C37.8 59.17 37.49 60.09 37.18 60.73L65.65 77.17L80.3 69.85L89 74.87Z" class="pr-icon-iso-duotone-primary-stroke" stroke-linejoin="round"/>
    <path d="M20.26 70.71L15.4 73.14C13.89 73.56 12.29 73.59 10.59 73.25C8.88 72.91 7.14 72.22 5.35 71.19L2 69.25L10.4 65.05C11.28 65.1 12.1 64.99 12.85 64.75C13.77 64.45 14.62 64.04 15.4 63.53C16.63 65.91 18.11 68.14 19.84 70.23C19.97 70.39 20.11 70.55 20.26 70.71Z" class="pr-icon-iso-duotone-primary-stroke" stroke-linejoin="round"/>
    <path d="M40.3604 82.3199L35.5004 84.7499C33.9404 85.1299 32.3204 85.14 30.6404 84.78C28.9704 84.42 27.2404 83.73 25.4504 82.7C23.6604 81.66 21.9204 80.3499 20.2204 78.7599C18.5104 77.1699 16.9104 75.3 15.4004 73.14L20.2604 70.71C21.8604 72.57 23.6004 74.03 25.4504 75.1C27.4604 76.26 29.3304 76.8 31.0604 76.71C32.7904 76.62 34.2704 76.1 35.5004 75.14C36.7304 77.51 38.2104 79.75 39.9404 81.83C40.0804 82 40.2204 82.1599 40.3604 82.3199Z" class="pr-icon-iso-duotone-primary-stroke" stroke-linejoin="round"/>
    <path d="M60.49 93.9198L55.6 96.3598C54.04 96.7298 52.42 96.7398 50.74 96.3898C49.07 96.0298 47.34 95.3298 45.55 94.2998C43.77 93.2698 42.02 91.9598 40.32 90.3698C38.61 88.7698 37.01 86.8998 35.5 84.7498L40.36 82.3198C41.97 84.1798 43.7 85.6398 45.55 86.7098C47.56 87.8698 49.42 88.3998 51.12 88.2898C52.82 88.1798 54.32 87.6698 55.6 86.7398C56.38 88.1598 57.24 89.5499 58.16 90.9099C58.88 91.9799 59.66 92.9798 60.49 93.9198Z" class="pr-icon-iso-duotone-primary-stroke" stroke-linejoin="round"/>
</svg>