<svg width="24" height="24" viewBox="0 0 104 117" class="pr-icon-iso-duotone-secondary" xmlns="http://www.w3.org/2000/svg" stroke-width="1px" stroke-linecap="round" stroke-linejoin="round">
    <path d="M61.8798 60.4876L59.2798 60.7076L61.5298 59.5876L61.8798 60.4876Z" class="pr-icon-iso-duotone-primary-stroke" stroke-linejoin="round"/>
    <path d="M78.69 66.6476C78.2 65.0576 77.67 63.4776 77.09 61.9176C76.05 59.0876 74.87 56.2976 73.55 53.5776C72.51 51.4076 71.38 49.2776 70.16 47.1776C69.96 46.8276 69.75 46.4876 69.53 46.1376C66.09 40.3376 62.07 34.9876 57.49 30.0676C52.63 24.8576 47.44 20.6576 41.92 17.4676C36.39 14.2776 31.21 12.4876 26.35 12.0876C26.32 12.0876 26.29 12.0876 26.26 12.0876C22.25 11.7676 18.68 12.2976 15.53 13.6476L13.67 14.5776C10.08 16.6176 7.24 19.8276 5.14 24.1876C3.05 28.5576 2 33.9076 2 40.2376C2 46.5676 3.05 53.1376 5.14 59.9176C7.24 66.7076 10.08 73.1976 13.67 79.3876C17.27 85.5876 21.49 91.2876 26.35 96.4976C31.21 101.708 36.39 105.908 41.92 109.098C47.44 112.288 52.63 114.078 57.49 114.478C62.34 114.878 66.57 114.048 70.16 111.998C73.15 110.298 75.62 107.798 77.57 104.488C77.96 103.818 78.34 103.118 78.69 102.388C80.64 98.3276 81.68 93.4376 81.82 87.6876C81.83 87.5276 81.83 87.3676 81.83 87.1976C81.84 86.9176 81.84 86.6276 81.84 86.3376C81.84 79.9976 80.79 73.4376 78.69 66.6576V66.6476ZM48.67 56.1976L56.55 55.5876L59.88 55.3276L60.26 56.2976L60.58 57.1376L61.53 59.5876L61.88 60.4876L59.28 60.7076C60.08 61.7776 60.71 62.9676 61.18 64.2676C61.64 65.5676 61.88 66.7876 61.88 67.9276C61.88 69.8376 61.29 71.1276 60.13 71.7876C58.97 72.4576 57.55 72.3076 55.89 71.3476C54.29 70.4276 52.93 69.0276 51.8 67.1476C50.67 65.2776 50.03 63.3876 49.9 61.4776L47.91 61.6976L46.37 57.6376L45.91 56.4176L48.67 56.1976ZM22.53 38.1476L21.96 37.4376L22.37 36.8476L23.95 34.5876L27.63 39.1176L37.03 50.7076L37.93 51.8076L35.93 54.7776L33.93 52.2576C33.8 54.0076 33.17 55.1776 32.04 55.7376C30.91 56.3076 29.54 56.1376 27.95 55.2076C27.48 54.9376 27.04 54.6276 26.61 54.2676C25.51 53.3776 24.54 52.2076 23.7 50.7576C22.54 48.7476 21.96 46.7876 21.96 44.8876C21.96 43.7376 22.19 42.7876 22.66 42.0276C22.78 41.8276 22.91 41.6476 23.06 41.4876C23.46 41.0376 23.96 40.7676 24.55 40.6576L22.53 38.1476ZM52.12 92.0776L21.86 74.5976C23.32 70.1776 25.85 67.2676 29.44 65.8676C30.09 65.6076 30.76 65.4276 31.45 65.3076C33.64 64.9376 36.02 65.2376 38.58 66.2376C39.66 66.6576 40.77 67.1976 41.92 67.8576C46.64 70.5876 50.8 74.7276 54.39 80.2676C57.98 85.8176 60.51 91.6476 61.98 97.7676L52.12 92.0776Z" class="pr-icon-iso-duotone-primary-stroke" stroke-linejoin="round"/>
    <path d="M37.9302 51.8076L35.9302 54.7776L33.9302 52.2576L37.0302 50.7076L37.9302 51.8076Z" class="pr-icon-iso-duotone-primary-stroke" stroke-linejoin="round"/>
    <path d="M27.63 39.1176L24.55 40.6576L22.53 38.1476L21.96 37.4376L22.37 36.8476L23.95 34.5876L27.63 39.1176Z" class="pr-icon-iso-duotone-primary-stroke" stroke-linejoin="round"/>
    <path d="M37.03 50.7076L33.93 52.2576C33.8 54.0076 33.17 55.1776 32.04 55.7376C30.91 56.3076 29.54 56.1376 27.95 55.2076C27.48 54.9376 27.04 54.6276 26.61 54.2676C25.51 53.3776 24.54 52.2076 23.7 50.7576C22.54 48.7476 21.96 46.7876 21.96 44.8876C21.96 43.7376 22.19 42.7876 22.66 42.0276C22.78 41.8276 22.91 41.6476 23.06 41.4876C23.46 41.0376 23.96 40.7676 24.55 40.6576L27.63 39.1176L37.03 50.7076Z" class="pr-icon-iso-duotone-primary-stroke" stroke-linejoin="round"/>
    <path d="M38.5799 66.2376L33.3699 68.8376L21.8599 74.5976C23.3199 70.1776 25.8499 67.2676 29.4399 65.8676C30.0899 65.6076 30.7599 65.4276 31.4499 65.3076C33.6399 64.9376 36.0199 65.2376 38.5799 66.2376Z" class="pr-icon-iso-duotone-primary-stroke" stroke-linejoin="round"/>
    <path d="M61.9799 97.7676L52.1199 92.0776L21.8599 74.5976L33.3699 68.8376L38.5799 66.2376C39.6599 66.6576 40.7699 67.1976 41.9199 67.8576C46.6399 70.5876 50.7999 74.7276 54.3899 80.2676C57.9799 85.8176 60.5099 91.6476 61.9799 97.7676Z" class="pr-icon-iso-duotone-primary-stroke" stroke-linejoin="round"/>
    <path d="M61.8799 67.9276C61.8799 69.8376 61.2899 71.1276 60.1299 71.7876C58.9699 72.4576 57.5499 72.3076 55.8899 71.3476C54.2899 70.4276 52.9299 69.0276 51.7999 67.1476C50.6699 65.2776 50.0299 63.3876 49.8999 61.4776L59.5599 56.6476L60.2599 56.2976L60.5799 57.1376L61.5299 59.5876L59.2799 60.7076C60.0799 61.7776 60.7099 62.9676 61.1799 64.2676C61.6399 65.5676 61.8799 66.7876 61.8799 67.9276Z" class="pr-icon-iso-duotone-primary-stroke" stroke-linejoin="round"/>
    <path d="M60.2602 56.2976L59.5602 56.6476L49.9002 61.4776L47.9102 61.6976L46.3702 57.6376L45.9102 56.4176L48.6702 56.1976L56.5502 55.5876L59.8802 55.3276L60.2602 56.2976Z" class="pr-icon-iso-duotone-primary-stroke" stroke-linejoin="round"/>
    <path d="M101.84 76.3276C101.84 82.6576 100.79 88.0076 98.6898 92.3776C96.5998 96.7376 93.7498 99.9476 90.1598 101.988L70.1598 111.988C73.1498 110.288 75.6198 107.788 77.5698 104.478C77.9598 103.808 78.3398 103.108 78.6898 102.378C80.6398 98.3176 81.6798 93.4276 81.8198 87.6776C81.8298 87.5176 81.8298 87.3576 81.8298 87.1876C81.8398 86.9076 81.8398 86.6176 81.8398 86.3276C81.8398 79.9876 80.7898 73.4276 78.6898 66.6476C78.1998 65.0576 77.6698 63.4776 77.0898 61.9176C76.0498 59.0876 74.8698 56.2976 73.5498 53.5776C72.5098 51.4076 71.3798 49.2776 70.1598 47.1776C69.9598 46.8276 69.7498 46.4876 69.5298 46.1376C66.0898 40.3376 62.0698 34.9876 57.4898 30.0676C52.6298 24.8576 47.4398 20.6576 41.9198 17.4676C36.3898 14.2776 31.2098 12.4876 26.3498 12.0876C26.3198 12.0876 26.2898 12.0876 26.2598 12.0876C22.2498 11.7676 18.6798 12.2976 15.5298 13.6476L33.6698 4.57761C37.2698 2.52761 41.4898 1.6976 46.3498 2.0976C51.2098 2.4976 56.3898 4.28761 61.9198 7.47761C67.4398 10.6676 72.6298 14.8676 77.4898 20.0776C82.3398 25.2876 86.5698 30.9876 90.1598 37.1876C93.7498 43.3776 96.5998 49.8676 98.6898 56.6576C100.79 63.4376 101.84 69.9976 101.84 76.3376V76.3276Z" class="pr-icon-iso-duotone-primary-stroke" stroke-linejoin="round"/>
</svg>