<svg width="48" height="48" viewBox="0 0 94 120" fill="#c8e7ff" xmlns="http://www.w3.org/2000/svg" stroke-width="1px" stroke-linecap="round" stroke-linejoin="round"><path d="M62.83 43.5L55.93 36.5601L36.64 17.12L22 14.96L2 12.02V42.3301C2 54.9201 5.26 68.2501 11.8 82.3301C18.33 96.4201 26.61 107.8 36.64 116.49C43.88 118.58 50.21 118.21 55.62 115.38C57.71 114.29 59.66 112.84 61.48 111.02C62.48 110.02 63.41 108.94 64.24 107.8C68.94 101.48 71.28 92.9901 71.28 82.3301V52.02L62.83 43.5ZM49.63 94.1801L41.57 89.52L23.65 79.1801V54.3301L25.41 55.34L27.98 56.8301V51.87C27.98 49.13 28.83 47.2801 30.52 46.3201C32.22 45.3501 34.26 45.5501 36.64 46.9301C37.51 47.4301 38.34 48.04 39.12 48.76C39.69 49.27 40.22 49.8301 40.73 50.4501C41.46 51.3201 42.13 52.3 42.76 53.38C43.09 53.95 43.39 54.53 43.65 55.09C44.75 57.41 45.3 59.67 45.3 61.87V66.8301L49.63 69.3301V94.1801Z" stroke="#229EFF" stroke-linejoin="round"/><path d="M45.3001 61.87V62.17L43.6501 62.99L40.9701 64.3301V59.37C40.9701 57.96 40.56 56.54 39.73 55.11C39.02 53.88 38.17 52.93 37.17 52.24C37 52.12 36.82 52.01 36.64 51.9C35.53 51.26 34.59 51.1 33.8 51.42L39.12 48.76C39.69 49.27 40.22 49.8301 40.73 50.4501C41.46 51.3201 42.13 52.3 42.76 53.38C43.09 53.95 43.3901 54.53 43.6501 55.09C44.7501 57.41 45.3001 59.67 45.3001 61.87Z" stroke="#229EFF" stroke-linejoin="round"/><path d="M39.12 48.76L33.8 51.4201L33.55 51.5401C32.72 52.0201 32.31 52.96 32.31 54.37V54.6701L27.98 56.8301V51.87C27.98 49.13 28.83 47.2801 30.52 46.3201C32.22 45.3501 34.26 45.5501 36.64 46.9301C37.51 47.4301 38.34 48.04 39.12 48.76Z" stroke="#229EFF" stroke-linejoin="round"/><path d="M40.9701 59.37V64.33L32.3101 59.33V54.37C32.3101 52.96 32.7201 52.02 33.5501 51.54L33.8001 51.42C34.5901 51.1 35.5301 51.26 36.6401 51.9C36.8201 52.01 37.0001 52.12 37.1701 52.24C38.1701 52.93 39.0201 53.88 39.7301 55.11C40.5601 56.54 40.9701 57.96 40.9701 59.37Z" stroke="#229EFF" stroke-linejoin="round"/><path d="M49.6299 72.63V94.1801L41.5699 89.52L23.6499 79.1801L43.6499 69.1801L49.6299 72.63Z" stroke="#229EFF" stroke-linejoin="round"/><path d="M43.6499 62.99V69.1801L23.6499 79.1801V54.3301L25.4099 55.34L27.9799 56.8301L32.3099 54.67V59.3301L40.9699 64.3301L43.6499 62.99Z" stroke="#229EFF" stroke-linejoin="round"/><path d="M91.2801 42.02V72.3301C91.2801 84.9201 88.0201 94.48 81.4801 101.02C79.4401 103.06 77.2301 104.64 74.8401 105.77L55.6201 115.38C57.7101 114.29 59.6601 112.84 61.4801 111.02C62.4801 110.02 63.4101 108.94 64.2401 107.8C68.9401 101.48 71.2801 92.9901 71.2801 82.3301V52.02L91.2801 42.02Z" stroke="#229EFF" stroke-linejoin="round"/><path d="M91.2799 42.02L71.2799 52.02L62.8299 43.5L55.9299 36.5601L36.6399 17.12L56.6399 7.12L91.2799 42.02Z" stroke="#229EFF" stroke-linejoin="round"/><path d="M56.64 7.12L36.64 17.12L22 14.96L2 12.02L22 2.02002L56.64 7.12Z" stroke="#229EFF" stroke-linejoin="round"/></svg>