<svg width="24" height="24" viewBox="0 0 134 113" class="pr-icon-iso-duotone-secondary" xmlns="http://www.w3.org/2000/svg" stroke-width="1px" stroke-linecap="round" stroke-linejoin="round">
    <path d="M12.3696 13.3799L10.8896 14.1199C11.3696 13.8399 11.8696 13.5899 12.3696 13.3799Z" class="pr-icon-iso-duotone-primary-stroke" stroke-linejoin="round"/>
    <path d="M54.5398 87.9399C53.6798 88.4899 52.7498 88.95 51.7598 89.33L54.5398 87.9399Z" class="pr-icon-iso-duotone-primary-stroke" stroke-linejoin="round"/>
    <path d="M82.1702 51.4299L62.1702 61.4299C60.7502 52.5899 57.2803 43.9299 51.7603 35.4499C46.2403 26.9799 39.7801 20.5999 32.3901 16.3299C29.3501 14.5699 26.4702 13.3599 23.7502 12.6799C19.5702 11.6399 15.7801 11.8699 12.3701 13.3799L30.8901 4.11992C36.8201 0.739923 43.9801 1.47993 52.3901 6.32993C59.7801 10.5999 66.2403 16.9799 71.7603 25.4499C77.2803 33.9299 80.7502 42.5899 82.1702 51.4299Z" class="pr-icon-iso-duotone-primary-stroke" stroke-linejoin="round"/>
    <path d="M111.4 96.82L106.47 99.63L87.0901 110.68L78.4299 95.9201L88.1499 90.38L70.29 80.0601L69.98 79.8801L62.1699 75.37C61.8599 76.94 61.46 78.38 60.95 79.71C59.58 83.34 57.4799 86.06 54.6499 87.88L54.54 87.94L51.76 89.3301C46.24 91.4301 39.7799 90.3501 32.3899 86.0801C23.9799 81.2201 16.8199 73.69 10.8899 63.46C4.95989 53.24 2 43.3101 2 33.6601C2 24.0101 4.95989 17.5 10.8899 14.12L12.3699 13.3801C15.7799 11.8701 19.57 11.64 23.75 12.68C26.47 13.36 29.3499 14.5701 32.3899 16.3301C39.7799 20.6001 46.24 26.98 51.76 35.45C57.28 43.93 60.7499 52.59 62.1699 61.43L80.05 71.75L88.1499 76.43L82.0701 65.8301L78.5801 59.7401L87.0901 54.89L98.7 74.92L103.43 83.07L111.4 96.82Z" class="pr-icon-iso-duotone-primary-stroke" stroke-linejoin="round"/>
    <path d="M131.4 86.8199L111.4 96.8199L103.43 83.0699L98.6997 74.9199L87.0898 54.8899L87.6597 54.5999L107.09 44.8899L131.4 86.8199Z" class="pr-icon-iso-duotone-primary-stroke" stroke-linejoin="round"/>
    <path d="M88.1499 76.4299L80.05 71.7499L62.1699 61.4299L82.1699 51.4299L87.6599 54.5999L87.0901 54.8899L78.5801 59.7399L82.0701 65.8299L88.1499 76.4299Z" class="pr-icon-iso-duotone-primary-stroke" stroke-linejoin="round"/>
    <path d="M131.4 86.8198L107.09 100.68L87.0898 110.68L106.47 99.6298L111.4 96.8198L131.4 86.8198Z" class="pr-icon-iso-duotone-primary-stroke" stroke-linejoin="round"/>
    <path d="M70.2905 80.0599L54.6504 87.8799C57.4804 86.0599 59.5804 83.3399 60.9504 79.7099C61.4604 78.3799 61.8604 76.9399 62.1704 75.3699L69.9805 79.8799L70.2905 80.0599Z" class="pr-icon-iso-duotone-primary-stroke" stroke-linejoin="round"/>
</svg>