<svg width="24" height="24" viewBox="0 0 73 117" class="pr-icon-iso-duotone-secondary" xmlns="http://www.w3.org/2000/svg" stroke-width="1px" stroke-linecap="round" stroke-linejoin="round">
    <path d="M30.8701 72.8746V96.4746L38.5701 92.2246L45.3101 103.845L26.0601 114.815L6.82007 81.6246L13.55 77.6446L21.25 90.9246V67.3246C15.72 62.8346 11.13 57.0346 7.47998 49.9146C3.82998 42.7946 2 35.8746 2 29.1546C2 21.5246 4.35004 16.3646 9.04004 13.6946L10.29 13.0746C13.84 11.5246 17.91 11.7246 22.49 13.6546C23.65 14.1446 24.8401 14.7446 26.0601 15.4446C32.7201 19.2846 38.3901 25.2546 43.0801 33.3446C47.7701 41.4346 50.1201 49.2946 50.1201 56.9346C50.1201 63.6546 48.2901 68.4646 44.6401 71.3746C44.1601 71.7646 43.6501 72.1046 43.1401 72.4146L41.97 72.9946C41.73 73.1046 41.49 73.2046 41.25 73.2946C40 73.7546 38.66 73.9846 37.24 74.0146C35.28 74.0446 33.1501 73.6646 30.8701 72.8746Z" class="pr-icon-iso-duotone-primary-stroke" stroke-linejoin="round"/>
    <path d="M65.3103 93.8446L45.4602 103.775L45.3103 103.845L38.5703 92.2246L38.7202 92.1546L50.8704 86.0746L58.5703 82.2246L65.3103 93.8446Z" class="pr-icon-iso-duotone-primary-stroke" stroke-linejoin="round"/>
    <path d="M65.3105 93.8446L46.0605 104.815L26.0605 114.815L45.3105 103.845L45.4604 103.775L65.3105 93.8446Z" class="pr-icon-iso-duotone-primary-stroke" stroke-linejoin="round"/>
    <path d="M21.2498 73.7947V90.9247L13.5498 77.6447L21.2498 73.7947Z" class="pr-icon-iso-duotone-primary-stroke" stroke-linejoin="round"/>
    <path d="M50.8701 68.5546V86.0746L38.72 92.1546L38.5701 92.2246L30.8701 96.4746V72.8746C33.1501 73.6646 35.28 74.0446 37.24 74.0146C38.66 73.9846 40 73.7546 41.25 73.2946C41.49 73.2046 41.73 73.1046 41.97 72.9946L43.1401 72.4146L50.8701 68.5546Z" class="pr-icon-iso-duotone-primary-stroke" stroke-linejoin="round"/>
    <path d="M70.1201 46.9346C70.1201 53.6546 68.2901 58.4646 64.6401 61.3746C63.8801 61.9846 63.08 62.4846 62.24 62.8746L62.02 62.9846L50.8701 68.5546L43.1401 72.4146C43.6501 72.1046 44.1601 71.7646 44.6401 71.3746C48.2901 68.4646 50.1201 63.6546 50.1201 56.9346C50.1201 49.2946 47.7701 41.4346 43.0801 33.3446C38.3901 25.2546 32.7201 19.2846 26.0601 15.4446C24.8401 14.7446 23.65 14.1446 22.49 13.6546C17.91 11.7246 13.84 11.5246 10.29 13.0746L29.04 3.69462C33.73 1.01462 39.4101 1.60462 46.0601 5.44462C52.7201 9.28462 58.3901 15.2546 63.0801 23.3446C67.7701 31.4346 70.1201 39.2946 70.1201 46.9346Z" class="pr-icon-iso-duotone-primary-stroke" stroke-linejoin="round"/>
</svg>