<svg width="24" height="24" viewBox="0 0 80 122" class="pr-icon-iso-duotone-secondary" xmlns="http://www.w3.org/2000/svg" stroke-width="1px" stroke-linecap="round" stroke-linejoin="round">
    <path d="M70.5908 107.88V109.84L50.5908 119.84V117.88L68.7708 108.79L70.5908 107.88Z" class="pr-icon-iso-duotone-primary-stroke" stroke-linejoin="round"/>
    <path d="M70.5913 107.88L68.7712 108.79L50.5913 117.88L45.4912 109.08C48.3612 110.74 50.8512 111.2 52.9412 110.47L53.0913 110.4C53.3013 110.34 53.4912 110.25 53.6912 110.14L53.9512 110.01L67.8113 103.09L70.5913 107.88Z" class="pr-icon-iso-duotone-primary-stroke" stroke-linejoin="round"/>
    <path d="M56.541 58.7701C55.491 55.0701 53.491 51.7501 50.551 48.8101C45.991 44.2501 40.3311 39.9301 33.5811 35.8401L34.4609 34.3201L36.1311 31.4601L39.011 33.1201L47.1909 37.8401V31.9901L44.4509 30.4101L23.8311 18.5001L22.531 17.7501L13.1709 12.3401V18.2001L17.0911 20.4701H17.1011L22.9609 23.8501L29.3311 27.5301L26.781 31.9101C25.471 31.2001 24.2009 30.5401 22.9609 29.9501C18.2609 27.6801 14.0009 26.2201 10.1909 25.5601C8.63092 25.2901 7.32099 25.4001 6.26099 25.8901L6.03101 26.0101C3.98101 27.0701 2.96094 29.6701 2.96094 33.7801V70.8701C2.96094 74.7001 4.11089 78.6001 6.41089 82.5701C8.70089 86.5301 11.5311 89.4701 14.8711 91.4001L9.771 94.3101V96.2701L16.571 100.19L23.3811 96.3101L23.821 96.5601L36.981 104.17L43.791 115.91L50.5911 119.84V117.88L45.491 109.08C48.361 110.74 50.8509 111.2 52.9409 110.47L53.0911 110.4C53.3011 110.34 53.4909 110.25 53.6909 110.14L53.9509 110.01C54.0709 109.94 54.181 109.88 54.291 109.8L54.3311 109.78C56.3711 108.41 57.4011 105.91 57.4011 102.29V65.2101C57.4011 62.9501 57.111 60.8001 56.541 58.7701ZM34.051 88.7301C33.971 88.8001 33.881 88.8601 33.791 88.9101C32.801 89.4801 31.6009 89.3501 30.1809 88.5301C28.7609 87.7101 27.561 86.4501 26.571 84.7401C25.571 83.0201 25.0811 81.3601 25.0811 79.7301C25.0811 78.1001 25.571 77.0101 26.571 76.4401C27.251 76.0501 28.0409 75.9901 28.9309 76.2501C29.3209 76.3801 29.7409 76.5601 30.1809 76.8201C31.6009 77.6401 32.801 78.9001 33.791 80.6101C33.831 80.6701 33.8611 80.7301 33.8911 80.7901C34.0611 81.1001 34.2211 81.4001 34.3511 81.7001C34.9811 83.0401 35.281 84.3401 35.281 85.6201C35.281 87.1001 34.881 88.1401 34.051 88.7301ZM50.5911 76.8901L46.4309 74.4901L22.9609 60.9401L9.771 53.3201V41.6101L20.6411 47.8901L22.9609 49.2301L50.5911 65.1801V76.8901Z" class="pr-icon-iso-duotone-primary-stroke" stroke-linejoin="round"/>
    <path d="M35.281 85.6201C35.281 87.1001 34.881 88.1401 34.051 88.7301C33.971 88.8001 33.881 88.8601 33.791 88.9101C32.801 89.4801 31.6009 89.3501 30.1809 88.5301C28.7609 87.7101 27.561 86.4501 26.571 84.7401C25.571 83.0201 25.0811 81.3601 25.0811 79.7301C25.0811 78.1001 25.571 77.0101 26.571 76.4401C27.251 76.0501 28.0409 75.9901 28.9309 76.2501C29.3209 76.3801 29.7409 76.5601 30.1809 76.8201C31.6009 77.6401 32.801 78.9001 33.791 80.6101C33.831 80.6701 33.8611 80.7301 33.8911 80.7901C34.0611 81.1001 34.2211 81.4001 34.3511 81.7001C34.9811 83.0401 35.281 84.3401 35.281 85.6201Z" class="pr-icon-iso-duotone-primary-stroke" stroke-linejoin="round"/>
    <path d="M50.5916 65.1802V76.8901L46.4314 74.4902L22.9614 60.9401L9.77148 53.3201L20.6416 47.8901L22.9614 49.2302L50.5916 65.1802Z" class="pr-icon-iso-duotone-primary-stroke" stroke-linejoin="round"/>
    <path d="M20.6416 47.8901L9.77148 53.3201V41.6101L20.6416 47.8901Z" class="pr-icon-iso-duotone-primary-stroke" stroke-linejoin="round"/>
    <path d="M67.1914 21.9902V27.8402L61.1614 30.8602L47.1914 37.8402V31.9902L56.2114 27.4802L61.7615 24.7102L67.1914 21.9902Z" class="pr-icon-iso-duotone-primary-stroke" stroke-linejoin="round"/>
    <path d="M67.1909 21.9901L61.761 24.7101L56.2109 27.4801L47.1909 31.9901L44.4509 30.4101L23.8311 18.5001L22.531 17.7501L13.1709 12.3401L33.1709 2.34009L67.1909 21.9901Z" class="pr-icon-iso-duotone-primary-stroke" stroke-linejoin="round"/>
    <path d="M39.011 33.12L35.4609 34.9L33.5811 35.84L34.4609 34.3199L36.1311 31.46L39.011 33.12Z" class="pr-icon-iso-duotone-primary-stroke" stroke-linejoin="round"/>
    <path d="M6.03125 26.01L5.90137 26.07" class="pr-icon-iso-duotone-primary-stroke" stroke-linejoin="round"/>
    <path d="M29.3308 27.5302L26.7808 31.9102C25.4708 31.2002 24.2007 30.5402 22.9607 29.9502C18.2607 27.6802 14.0007 26.2202 10.1907 25.5602C8.63067 25.2902 7.32074 25.4002 6.26074 25.8902L17.0908 20.4702H17.1008L22.9607 23.8502L29.3308 27.5302Z" class="pr-icon-iso-duotone-primary-stroke" stroke-linejoin="round"/>
    <path d="M77.4011 55.2101V92.2901C77.4011 96.1301 76.2509 98.7101 73.9509 100.01C73.8309 100.08 73.7211 100.14 73.6011 100.2L73.481 100.26L67.811 103.08L53.9509 110.01C54.0709 109.94 54.181 109.88 54.291 109.8L54.3311 109.78C56.3711 108.41 57.4011 105.91 57.4011 102.29V65.2101C57.4011 62.9501 57.111 60.8001 56.541 58.7701C55.491 55.0701 53.491 51.7501 50.551 48.8101C45.991 44.2501 40.3311 39.9301 33.5811 35.8401L35.4609 34.9001L39.011 33.1201L47.1909 37.8401L61.1609 30.8601C64.6809 33.4201 67.811 36.0701 70.551 38.8101C75.111 43.3601 77.4011 48.8301 77.4011 55.2101Z" class="pr-icon-iso-duotone-primary-stroke" stroke-linejoin="round"/>
    <path d="M23.8213 96.5601L16.5713 100.19L23.3813 96.3101L23.8213 96.5601Z" class="pr-icon-iso-duotone-primary-stroke" stroke-linejoin="round"/>
    <path d="M73.4805 100.26L67.8105 103.09" class="pr-icon-iso-duotone-primary-stroke" stroke-linejoin="round"/>
</svg>