<svg width="24" height="24" viewBox="0 0 85 76" class="pr-icon-iso-duotone-secondary" xmlns="http://www.w3.org/2000/svg" stroke-width="1px" stroke-linecap="round" stroke-linejoin="round">
    <path d="M62.6697 39.6862L57.4995 42.6362L57.0796 42.8763L56.6597 42.1463L50.6997 31.8562V69.4063L30.7896 57.9163L22.8096 53.3063L10.7896 46.3663V73.8463L2.80957 69.2363V32.6062L22.8096 44.1562L30.7896 48.7563L42.7197 55.6463V27.2563L36.7495 30.6562L36.3296 30.8963L35.9097 30.1663L30.7495 21.2563L46.7097 12.1562L62.6697 39.6862Z" class="pr-icon-iso-duotone-primary-stroke" stroke-linejoin="round"/>
    <path d="M30.7891 57.9163V63.8463L10.7891 73.8463V46.3663L22.8091 53.3063L30.7891 57.9163Z" class="pr-icon-iso-duotone-primary-stroke" stroke-linejoin="round"/>
    <path d="M57.5291 42.6462L57.0791 42.8762L57.499 42.6362L57.5291 42.6462Z" class="pr-icon-iso-duotone-primary-stroke" stroke-linejoin="round"/>
    <path d="M70.6992 36.0663V59.4063L50.6992 69.4063V31.8563L56.6592 42.1463L57.0791 42.8763L57.5291 42.6463L62.7192 40.0563L70.6992 36.0663Z" class="pr-icon-iso-duotone-primary-stroke" stroke-linejoin="round"/>
    <path d="M82.6692 29.6863L77.0791 32.8763L62.7192 40.0563L57.5291 42.6463L57.499 42.6363L62.6692 39.6863L62.7192 39.6663L70.6992 35.6763L76.8992 32.5663L82.6692 29.6863Z" class="pr-icon-iso-duotone-primary-stroke" stroke-linejoin="round"/>
    <path d="M82.6699 29.6862L76.8999 32.5663L70.7 35.6763L62.72 39.6663L62.6699 39.6862L46.71 12.1562L66.71 2.15625L82.6699 29.6862Z" class="pr-icon-iso-duotone-primary-stroke" stroke-linejoin="round"/>
    <path d="M42.7197 34.0962V55.6462L30.7896 48.7562L22.8096 44.1562L2.80957 32.6062L22.8096 22.6062L35.9097 30.1662L36.3296 30.8962L36.7495 30.6562L42.7197 34.0962Z" class="pr-icon-iso-duotone-primary-stroke" stroke-linejoin="round"/>
</svg>