<svg width="24" height="24" viewBox="0 0 87 123" class="pr-icon-iso-duotone-secondary" xmlns="http://www.w3.org/2000/svg" stroke-width="1px" stroke-linecap="round" stroke-linejoin="round">
    <path d="M2 75.3101V84.2501L64.37 120.26V111.31L2 75.3101Z" class="pr-icon-iso-duotone-primary-stroke" stroke-linejoin="round"/>
    <path d="M60.4704 68.81L44.8804 59.81V91.1201L21.4904 77.61V46.3L5.90039 37.3L33.1804 12.8L35.8804 18.34L60.4704 68.81Z" class="pr-icon-iso-duotone-primary-stroke" stroke-linejoin="round"/>
    <path d="M84.3691 101.31V110.26L64.3691 120.26V111.31L76.0591 105.46L84.3691 101.31Z" class="pr-icon-iso-duotone-primary-stroke" stroke-linejoin="round"/>
    <path d="M84.37 101.31L76.06 105.46L64.37 111.31L2 75.3101L21.49 65.5701V77.6101L44.88 91.1201L48.28 89.4201L56.58 85.2701L84.37 101.31Z" class="pr-icon-iso-duotone-primary-stroke" stroke-linejoin="round"/>
    <path d="M80.4697 58.81L64.8797 66.6101L60.4697 68.81L35.8797 18.34L33.1797 12.8L53.1797 2.80005L80.4697 58.81Z" class="pr-icon-iso-duotone-primary-stroke" stroke-linejoin="round"/>
    <path d="M64.8809 66.6101V81.1201L56.5809 85.2701L48.2809 89.4201L44.8809 91.1201V59.8101L60.4709 68.8101L64.8809 66.6101Z" class="pr-icon-iso-duotone-primary-stroke" stroke-linejoin="round"/>
</svg>