<svg width="24" height="24" viewBox="0 0 115 112" class="pr-icon-iso-duotone-secondary" xmlns="http://www.w3.org/2000/svg" stroke-width="1px" stroke-linecap="round" stroke-linejoin="round">
    <path d="M92.3701 106.13C92.3701 107.47 91.9802 108.36 91.1902 108.81C90.4002 109.26 89.43 109.15 88.26 108.48C87.1 107.8 86.1201 106.79 85.3401 105.43C84.5501 104.07 84.1602 102.73 84.1602 101.39C84.1602 100.05 84.5501 99.1602 85.3401 98.7102L85.5801 98.5902C86.3201 98.2902 87.22 98.4502 88.26 99.0502C89.43 99.7202 90.4002 100.74 91.1902 102.09C91.9802 103.45 92.3701 104.8 92.3701 106.13Z" class="pr-icon-iso-duotone-primary-stroke" stroke-linejoin="round"/>
    <path d="M84.1599 63.6802V87.2502L92.3699 91.9902L94.8699 90.7402L95.9399 90.2102V91.3602L75.9399 101.36V63.6503L95.9399 53.6503V57.7902L84.1599 63.6802Z" class="pr-icon-iso-duotone-primary-stroke" stroke-linejoin="round"/>
    <path d="M112.37 96.1303C112.37 97.4703 111.98 98.3602 111.19 98.8102L91.1902 108.81C91.9802 108.36 92.3701 107.47 92.3701 106.13C92.3701 104.79 91.9802 103.45 91.1902 102.09C90.4002 100.74 89.43 99.7202 88.26 99.0502C87.22 98.4502 86.3201 98.2902 85.5801 98.5902L105.34 88.7102C106.12 88.2602 107.1 88.3802 108.26 89.0502C109.43 89.7202 110.4 90.7402 111.19 92.0902C111.98 93.4502 112.37 94.8003 112.37 96.1303Z" class="pr-icon-iso-duotone-primary-stroke" stroke-linejoin="round"/>
    <path d="M112.37 58.4202L104.16 62.5303L95.9402 66.6403L92.3701 68.4202L84.1602 63.6802L104.16 53.6802L112.37 58.4202Z" class="pr-icon-iso-duotone-primary-stroke" stroke-linejoin="round"/>
    <path d="M92.3701 68.4202V91.9902L84.1602 87.2502V63.6802L92.3701 68.4202Z" class="pr-icon-iso-duotone-primary-stroke" stroke-linejoin="round"/>
    <path d="M68.9 59.5902L49.85 48.5902C49.54 47.3802 49.1799 46.1702 48.7799 44.9702C47.0599 39.8702 44.5301 34.9102 41.1801 30.0802C40.4401 29.0102 39.67 27.9802 38.88 27.0002C35.27 22.5202 31.19 18.9502 26.64 16.3302C25.24 15.5202 23.89 14.8502 22.58 14.3302C17.96 12.4702 13.8699 12.3401 10.2999 13.9401L9.17993 14.5002C4.38993 17.2302 2 22.5302 2 30.3902C2 38.2502 4.38993 46.3001 9.17993 54.5701C13.9799 62.8401 19.8 68.9502 26.64 72.9002C32.19 76.1002 37.0301 77.1101 41.1801 75.9301C41.9701 75.7001 42.71 75.4201 43.41 75.0701L43.63 74.9602C46.48 73.4702 48.56 70.9701 49.85 67.4401L53.9401 69.8001L67.7198 77.7602V96.6202L75.9401 101.36V63.6502L68.9 59.5902ZM34.41 52.2202C34.03 53.3002 33.3698 54.1002 32.4498 54.6202C30.8398 55.5402 28.9 55.3501 26.64 54.0401C24.38 52.7401 22.45 50.7001 20.84 47.9201C19.23 45.1501 18.4299 42.4702 18.4299 39.8702C18.4299 37.2702 19.23 35.5202 20.84 34.6102C21.89 34.0102 23.09 33.8802 24.41 34.2402C25.12 34.4202 25.86 34.7401 26.64 35.1901C28.9 36.4901 30.8398 38.5301 32.4498 41.3101C34.0598 44.0801 34.86 46.7702 34.86 49.3602C34.86 50.4602 34.71 51.4202 34.41 52.2202Z" class="pr-icon-iso-duotone-primary-stroke" stroke-linejoin="round"/>
    <path d="M34.8597 49.3603C34.8597 50.4603 34.7098 51.4202 34.4098 52.2202C34.0298 53.3002 33.3696 54.1003 32.4496 54.6203C30.8396 55.5403 28.8998 55.3502 26.6398 54.0402C24.3798 52.7402 22.4497 50.7002 20.8397 47.9202C19.2297 45.1502 18.4297 42.4703 18.4297 39.8703C18.4297 37.2703 19.2297 35.5203 20.8397 34.6103C21.8897 34.0103 23.0898 33.8803 24.4098 34.2403C25.1198 34.4203 25.8598 34.7402 26.6398 35.1902C28.8998 36.4902 30.8396 38.5302 32.4496 41.3102C34.0596 44.0802 34.8597 46.7703 34.8597 49.3603Z" class="pr-icon-iso-duotone-primary-stroke" stroke-linejoin="round"/>
    <path d="M69.8499 38.5902L49.8499 48.5902C49.5399 47.3802 49.1798 46.1702 48.7798 44.9702C47.0598 39.8702 44.5299 34.9102 41.1799 30.0802C40.4399 29.0102 39.6699 27.9802 38.8799 27.0002C35.2699 22.5202 31.1899 18.9502 26.6399 16.3302C25.2399 15.5202 23.8898 14.8502 22.5798 14.3302C17.9598 12.4702 13.8698 12.3402 10.2998 13.9402L29.1799 4.50023C33.9799 1.77023 39.7999 2.38019 46.6399 6.33019C52.1899 9.53019 57.0299 14.1202 61.1799 20.0802C65.3199 26.0502 68.2099 32.2202 69.8499 38.5902Z" class="pr-icon-iso-duotone-primary-stroke" stroke-linejoin="round"/>
    <path d="M95.9402 53.6503L75.9402 63.6503L68.9001 59.5902L49.8501 48.5902L69.8501 38.5902L95.9402 53.6503Z" class="pr-icon-iso-duotone-primary-stroke" stroke-linejoin="round"/>
    <path d="M53.9399 69.8002L43.6299 74.9602C46.4799 73.4702 48.5599 70.9702 49.8499 67.4402L53.9399 69.8002Z" class="pr-icon-iso-duotone-primary-stroke" stroke-linejoin="round"/>
    <path d="M112.37 58.4202V81.9902L95.9402 90.2102L94.8701 90.7402L92.3701 91.9902V68.4202L95.9402 66.6403L104.16 62.5303L112.37 58.4202Z" class="pr-icon-iso-duotone-primary-stroke" stroke-linejoin="round"/>
</svg>