<svg width="48" height="48" viewBox="0 0 105 124" class="pr-icon-iso-duotone-secondary"
     xmlns="http://www.w3.org/2000/svg" stroke-width="1px" stroke-linecap="round" stroke-linejoin="round">
    <path d="M102.91 92.9609V110.481C102.91 110.481 83.1902 119.681 82.9102 120.481V102.961L83.8302 102.501L92.7502 98.0409L96.8202 96.0109L102.91 92.9609Z" class="pr-icon-iso-duotone-primary-stroke" stroke-linejoin="round"/>
    <path d="M80.0098 79.7305V83.8505L74.2798 86.7205L73.6598 87.0205L67.5698 90.0705L66.6498 90.5305L63.8298 91.9405V104.9L60.0098 106.81V89.7305L60.9198 89.2805L69.8398 84.8105L73.8998 82.7805L80.0098 79.7305Z" class="pr-icon-iso-duotone-primary-stroke" stroke-linejoin="round"/>
    <path d="M80.0099 79.7304L73.8999 82.7804L69.8399 84.8104L60.9199 89.2804L60.0099 89.7304L57.1099 88.0604L56.8199 87.8904L43.9499 80.4604L40.9199 78.7104L45.6499 76.3504L49.0499 74.6504L51.3799 75.9904L57.1099 79.3004L60.9199 81.5004L63.8299 83.1804L66.6499 81.7704L69.5999 80.3004L75.6999 77.2404L80.0099 79.7304Z" class="pr-icon-iso-duotone-primary-stroke" stroke-linejoin="round"/>
    <path d="M60.0099 89.7309L57.1099 88.0609L56.8199 87.8909L43.9499 80.4609L40.9199 78.7109V104.991L46.6499 108.301V99.5409L51.0399 102.071L52.1099 105.571L54.2799 112.711L60.0099 116.011L56.5699 104.831L60.0099 106.811V89.7309ZM54.2799 97.3809L51.3299 95.6809L46.6499 92.9709V88.5909L50.7099 90.9409L54.2799 93.0009V97.3809Z" class="pr-icon-iso-duotone-primary-stroke" stroke-linejoin="round"/>
    <path d="M50.7099 90.9408L46.6499 92.9708V88.5908L50.7099 90.9408Z" class="pr-icon-iso-duotone-primary-stroke" stroke-linejoin="round"/>
    <path d="M54.2799 93.0004V97.3804L51.3299 95.6804L46.6499 92.9704L50.7099 90.9404L54.2799 93.0004Z" class="pr-icon-iso-duotone-primary-stroke" stroke-linejoin="round"/>
    <path d="M63.83 82.3005V83.1805L60.92 81.5005L57.11 79.3005L51.38 75.9905L49.05 74.6505L45.65 72.6805L45.24 72.4505L39.93 69.3805L32.29 64.9705L29.12 63.1405L28.06 62.5305L12.29 53.4205V79.0505C9.3 74.0405 6.97 68.7805 5.28 63.2805C3.59 57.7805 2.75 52.3705 2.75 47.0405C2.75 39.7405 5.28 33.2605 10.34 27.6005C14.58 22.8505 20.65 18.6605 28.55 15.0205C30.06 14.3205 31.64 13.6405 33.29 12.9805C33.52 13.3405 33.75 13.6905 33.97 14.0505C43.87 29.5105 51.29 42.8605 56.24 54.1005C56.87 55.5205 57.45 56.9105 58 58.2705C59.58 62.1805 60.84 65.8205 61.77 69.2005C63.15 74.1405 63.83 78.5005 63.83 82.3005Z" class="pr-icon-iso-duotone-primary-stroke" stroke-linejoin="round"/>
    <path d="M83.83 72.3005V73.1805L75.7 77.2405L69.6 80.3005L66.65 81.7705L63.83 83.1805V82.3005C63.83 78.5005 63.15 74.1405 61.77 69.2005C60.84 65.8205 59.58 62.1805 58 58.2705C57.45 56.9105 56.87 55.5205 56.24 54.1005C51.29 42.8605 43.87 29.5105 33.97 14.0505C33.75 13.6905 33.52 13.3405 33.29 12.9805L39.96 9.65047L53.29 2.98047C63.53 18.9005 71.18 32.6005 76.24 44.1005C81.3 55.6005 83.83 65.0005 83.83 72.3005Z" class="pr-icon-iso-duotone-primary-stroke" stroke-linejoin="round"/>
    <path d="M53.2898 2.98047L39.9598 9.65047L33.2898 12.9805C31.6398 13.6405 30.0598 14.3205 28.5498 15.0205L44.9298 6.79047L46.2898 6.10047C48.4698 5.02047 50.8098 3.98047 53.2898 2.98047Z" class="pr-icon-iso-duotone-primary-stroke" stroke-linejoin="round"/>
    <path d="M102.91 92.9604L96.8201 96.0104L92.7501 98.0404L83.8301 102.5L82.9101 102.96L79.7101 101.11L78.2401 100.26L75.8601 98.8904L72.5301 96.9704L66.6501 93.5704L63.8301 91.9404L66.6501 90.5304L67.5701 90.0704L73.6601 87.0204L74.2801 86.7204L80.0101 83.8504L83.8301 81.9404L102.91 92.9604Z" class="pr-icon-iso-duotone-primary-stroke" stroke-linejoin="round"/>
    <path d="M79.7101 101.11L78.2401 100.26L75.8601 98.8904L72.5301 96.9704L66.6501 93.5704L63.8301 91.9404V118.22L69.5501 121.52V112.76L77.6801 117.46L82.9101 120.48V102.96L79.7101 101.11ZM77.1901 110.6L74.2401 108.9L69.5501 106.19V101.81L69.7601 101.93L73.6201 104.16L77.1901 106.22V110.6Z" class="pr-icon-iso-duotone-primary-stroke" stroke-linejoin="round"/>
    <path d="M73.6198 104.161L69.5498 106.191V102.041L69.7598 101.931L73.6198 104.161Z" class="pr-icon-iso-duotone-primary-stroke" stroke-linejoin="round"/>
    <path d="M77.1898 106.22V110.6L74.2398 108.9L69.5498 106.19L73.6198 104.16L77.1898 106.22Z" class="pr-icon-iso-duotone-primary-stroke" stroke-linejoin="round"/>
    <path d="M77.6798 117.461L69.5498 121.521V112.761L77.6798 117.461Z" class="pr-icon-iso-duotone-primary-stroke" stroke-linejoin="round"/>
    <path d="M27.9502 71.2208L19.9302 66.5908V92.8708L37.1102 102.791V76.5108L27.9502 71.2208ZM31.3802 92.9108L25.6502 89.6108V76.4708L31.3802 79.7708V92.9108Z" class="pr-icon-iso-duotone-primary-stroke" stroke-linejoin="round"/>
    <path d="M31.3799 86.75V92.91L25.6499 89.61L31.3799 86.75Z" class="pr-icon-iso-duotone-primary-stroke" stroke-linejoin="round"/>
    <path d="M31.3799 79.7707V86.7507L25.6499 89.6107V76.4707L31.3799 79.7707Z" class="pr-icon-iso-duotone-primary-stroke" stroke-linejoin="round"/>
    <path d="M28.06 62.5309L19.93 66.5909V75.2309L12.29 79.0509V53.4209L28.06 62.5309Z" class="pr-icon-iso-duotone-primary-stroke" stroke-linejoin="round"/>
    <path d="M45.2402 72.4503L39.9302 75.1003L37.1102 76.5103L27.9502 71.2203L19.9302 66.5903L28.0602 62.5303L29.1202 63.1403L32.2902 64.9703L39.9302 69.3803L45.2402 72.4503Z" class="pr-icon-iso-duotone-primary-stroke" stroke-linejoin="round"/>
    <path d="M49.0499 74.6502L45.6499 76.3502L40.9199 78.7102V100.89L37.1099 102.79V76.5102L39.9299 75.1002L45.2399 72.4502L45.6499 72.6802L49.0499 74.6502Z" class="pr-icon-iso-duotone-primary-stroke" stroke-linejoin="round"/>
    <path d="M63.8298 104.9V114.1L60.0098 116.01L56.5698 104.83L60.0098 106.81L63.8298 104.9Z" class="pr-icon-iso-duotone-primary-stroke" stroke-linejoin="round"/>
    <path d="M52.1099 105.57L46.6499 108.3V99.54L51.0399 102.07L52.1099 105.57Z" class="pr-icon-iso-duotone-primary-stroke" stroke-linejoin="round"/>
</svg>