<svg xmlns="http://www.w3.org/2000/svg" width="24" height="24" viewBox="0 0 576 512"><path class="pr-icon-duotone-secondary" d="M0 64C0 46.3 14.3 32 32 32l512 0c17.7 0 32 14.3 32 32s-14.3 32-32 32L32 96C14.3 96 0 81.7 0 64z"/><path class="pr-icon-duotone-primary" d="M54.6 278.6c-12.5 12.5-32.8 12.5-45.3 0s-12.5-32.8 0-45.3l96-96c12.5-12.5 32.8-12.5 45.3 0l96 96c12.5 12.5 12.5 32.8 0 45.3s-32.8 12.5-45.3 0L160 237.3 160 448c0 17.7-14.3 32-32 32s-32-14.3-32-32l0-210.7L54.6 278.6zm320 0c-12.5 12.5-32.8 12.5-45.3 0s-12.5-32.8 0-45.3l96-96c12.5-12.5 32.8-12.5 45.3 0l96 96c12.5 12.5 12.5 32.8 0 45.3s-32.8 12.5-45.3 0L480 237.3 480 448c0 17.7-14.3 32-32 32s-32-14.3-32-32l0-210.7-41.4 41.4z"/></svg>