<svg xmlns="http://www.w3.org/2000/svg" width="24" height="24" viewBox="0 0 512 512"><path class="pr-icon-duotone-secondary" d="M0 56L0 456c0 13.3 10.7 24 24 24l16 0c13.3 0 24-10.7 24-24L64 56c0-13.3-10.7-24-24-24L24 32C10.7 32 0 42.7 0 56zm160 0l0 400c0 13.3 10.7 24 24 24l16 0c13.3 0 24-10.7 24-24l0-400c0-13.3-10.7-24-24-24l-16 0c-13.3 0-24 10.7-24 24zm288 0l0 400c0 13.3 10.7 24 24 24l16 0c13.3 0 24-10.7 24-24l0-400c0-13.3-10.7-24-24-24l-16 0c-13.3 0-24 10.7-24 24z"/><path class="pr-icon-duotone-primary" d="M96 48c0-8.8 7.2-16 16-16s16 7.2 16 16l0 416c0 8.8-7.2 16-16 16s-16-7.2-16-16L96 48zm160 8c0-13.3 10.7-24 24-24l16 0c13.3 0 24 10.7 24 24l0 400c0 13.3-10.7 24-24 24l-16 0c-13.3 0-24-10.7-24-24l0-400zM400 32c8.8 0 16 7.2 16 16l0 416c0 8.8-7.2 16-16 16s-16-7.2-16-16l0-416c0-8.8 7.2-16 16-16z"/></svg>