<svg xmlns="http://www.w3.org/2000/svg" width="24" height="24" viewBox="0 0 448 512">
    <path class="pr-icon-duotone-secondary" d="M160 80l0 160c0 26.5 21.5 48 48 48l32 0c26.5 0 48-21.5 48-48l0-160c0-26.5-21.5-48-48-48l-32 0c-26.5 0-48 21.5-48 48z"/>
    <path class="pr-icon-duotone-primary" d="M368 480c-26.5 0-48-21.5-48-48l0-352c0-26.5 21.5-48 48-48l32 0c26.5 0 48 21.5 48 48l0 352c0 26.5-21.5 48-48 48l-32 0zM48 416c-26.5 0-48-21.5-48-48L0 80C0 53.5 21.5 32 48 32l32 0c26.5 0 48 21.5 48 48l0 288c0 26.5-21.5 48-48 48l-32 0z"/>
</svg>