<svg xmlns="http://www.w3.org/2000/svg" width="24" height="24" viewBox="0 0 512 512">
    <path class="pr-icon-duotone-secondary" d="M0 64L0 400c0 44.2 35.8 80 80 80l400 0c17.7 0 32-14.3 32-32s-14.3-32-32-32L80 416c-8.8 0-16-7.2-16-16L64 64c0-17.7-14.3-32-32-32S0 46.3 0 64z"/>
    <path class="pr-icon-duotone-primary" d="M352 64c-17.7 0-32 14.3-32 32l0 64c0 17.7 14.3 32 32 32s32-14.3 32-32l0-64c0-17.7-14.3-32-32-32zm-64 96c0-17.7-14.3-32-32-32s-32 14.3-32 32l0 64c0 17.7 14.3 32 32 32s32-14.3 32-32l0-64zm-96 96c0-17.7-14.3-32-32-32s-32 14.3-32 32l0 64c0 17.7 14.3 32 32 32s32-14.3 32-32l0-64zM480 96c0-17.7-14.3-32-32-32s-32 14.3-32 32l0 224c0 17.7 14.3 32 32 32s32-14.3 32-32l0-224z"/>
</svg>