<svg xmlns="http://www.w3.org/2000/svg" width="24" height="24" viewBox="0 0 512 512"><path class="pr-icon-duotone-secondary" d="M0 256a256 256 0 1 0 512 0A256 256 0 1 0 0 256zm144 24c0-13.3 10.7-24 24-24s24 10.7 24 24l0 8c0 26.5 21.5 48 48 48s48-21.5 48-48l0-136c0-13.3 10.7-24 24-24s24 10.7 24 24l0 136c0 53-43 96-96 96s-96-43-96-96l0-8z"/><path class="pr-icon-duotone-primary" d="M312 128c13.3 0 24 10.7 24 24l0 136c0 53-43 96-96 96s-96-43-96-96l0-8c0-13.3 10.7-24 24-24s24 10.7 24 24l0 8c0 26.5 21.5 48 48 48s48-21.5 48-48l0-136c0-13.3 10.7-24 24-24z"/></svg>