<svg xmlns="http://www.w3.org/2000/svg" viewBox="0 0 448 512"><path class="pr-icon-duotone-secondary" d="M448 224A224 224 0 1 1 0 224a224 224 0 1 1 448 0zM200 120l0 104c0 6.4 2.5 12.5 7 17l48 48c9.4 9.4 24.6 9.4 33.9 0s9.4-24.6 0-33.9l-41-41 0-94.1c0-13.3-10.7-24-24-24s-24 10.7-24 24z"/><path class="pr-icon-duotone-primary" d="M248 120c0-13.3-10.7-24-24-24s-24 10.7-24 24l0 104c0 6.4 2.5 12.5 7 17l48 48c9.4 9.4 24.6 9.4 33.9 0s9.4-24.6 0-33.9l-41-41 0-94.1zM448 224c0 123.7-100.3 224-224 224S0 347.7 0 224L0 464c0 26.5 21.5 48 48 48l352 0c26.5 0 48-21.5 48-48l0-240z"/></svg>