<svg xmlns="http://www.w3.org/2000/svg" width="24" height="24" viewBox="0 0 576 512">
    <path class="pr-icon-duotone-secondary" d="M32 96l288 0 0 32 0 288 0 32L32 448 32 96z"/>
    <path class="pr-icon-duotone-primary" d="M96 32c0-17.7 14.3-32 32-32l96 0c17.7 0 32 14.3 32 32l64 0c17.7 0 32 14.3 32 32s-14.3 32-32 32L32 96C14.3 96 0 81.7 0 64S14.3 32 32 32l64 0zM0 480c0-17.7 14.3-32 32-32l288 0c17.7 0 32 14.3 32 32s-14.3 32-32 32L32 512c-17.7 0-32-14.3-32-32zM320 128l224 0c17.7 0 32 14.3 32 32l0 128c0 17.7-14.3 32-32 32s-32 14.3-32 32l0 32c0 17.7-14.3 32-32 32l-160 0 0-288zm72 56l0 16c0 8.8 7.2 16 16 16l16 0c8.8 0 16-7.2 16-16l0-16c0-8.8-7.2-16-16-16l-16 0c-8.8 0-16 7.2-16 16zm112-16c-8.8 0-16 7.2-16 16l0 16c0 8.8 7.2 16 16 16l16 0c8.8 0 16-7.2 16-16l0-16c0-8.8-7.2-16-16-16l-16 0zM392 344l0 16c0 8.8 7.2 16 16 16l16 0c8.8 0 16-7.2 16-16l0-16c0-8.8-7.2-16-16-16l-16 0c-8.8 0-16 7.2-16 16z"/>
</svg>