<svg xmlns="http://www.w3.org/2000/svg" width="24" height="24" viewBox="0 0 384 512">
    <path class="pr-icon-duotone-secondary" d="M0 64C0 28.7 28.7 0 64 0L320 0c35.3 0 64 28.7 64 64l0 384c0 35.3-28.7 64-64 64L64 512c-35.3 0-64-28.7-64-64L0 64zM64 96l0 64c0 17.7 14.3 32 32 32l192 0c17.7 0 32-14.3 32-32l0-64c0-17.7-14.3-32-32-32L96 64C78.3 64 64 78.3 64 96zM96 352a96 96 0 1 0 192 0A96 96 0 1 0 96 352z"/>
    <path class="pr-icon-duotone-primary" d="M96 64l192 0c17.7 0 32 14.3 32 32l0 64c0 17.7-14.3 32-32 32L96 192c-17.7 0-32-14.3-32-32l0-64c0-17.7 14.3-32 32-32zM224 352a32 32 0 1 0 -64 0 32 32 0 1 0 64 0zM96 352a96 96 0 1 1 192 0A96 96 0 1 1 96 352z"/>
</svg>