<svg xmlns="http://www.w3.org/2000/svg" width="24" height="24" viewBox="0 0 512 512"><path class="pr-icon-duotone-secondary" d="M64 176l0 288c0 26.5 21.5 48 48 48l64 0c26.5 0 48-21.5 48-48l0-288c0-26.5-21.5-48-48-48l-64 0c-26.5 0-48 21.5-48 48zm224 0l0 160c0 26.5 21.5 48 48 48l64 0c26.5 0 48-21.5 48-48l0-160c0-26.5-21.5-48-48-48l-64 0c-26.5 0-48 21.5-48 48z"/><path class="pr-icon-duotone-primary" d="M0 24C0 10.7 10.7 0 24 0H488c13.3 0 24 10.7 24 24s-10.7 24-24 24H24C10.7 48 0 37.3 0 24z"/></svg>