<svg xmlns="http://www.w3.org/2000/svg" viewBox="0 0 384 512"><path class="pr-icon-duotone-secondary" d="M0 384c0 17.7 14.3 32 32 32l32 0 0-64-32 0c-17.7 0-32 14.3-32 32zm128-32l0 64 160 0c17.7 0 32-14.3 32-32s-14.3-32-32-32l-160 0z"/><path class="pr-icon-duotone-primary" d="M64 64c0-17.7 14.3-32 32-32l144 0c79.5 0 144 64.5 144 144s-64.5 144-144 144l-112 0 0 128c0 17.7-14.3 32-32 32s-32-14.3-32-32l0-128-32 0c-17.7 0-32-14.3-32-32s14.3-32 32-32l32 0L64 64zm64 192l112 0c44.2 0 80-35.8 80-80s-35.8-80-80-80L128 96l0 160z"/></svg>