<svg xmlns="http://www.w3.org/2000/svg" width="24" height="24" viewBox="0 0 448 512"><path class="pr-icon-duotone-secondary" d="M128 192l0 256c0 17.7 14.3 32 32 32l160 0c70.7 0 128-57.3 128-128l0-288c0-17.7-14.3-32-32-32s-32 14.3-32 32l0 288c0 35.3-28.7 64-64 64l-128 0 0-224c0-17.7-14.3-32-32-32s-32 14.3-32 32z"/><path class="pr-icon-duotone-primary" d="M0 64C0 46.3 14.3 32 32 32l160 0c70.7 0 128 57.3 128 128l0 160c0 17.7-14.3 32-32 32s-32-14.3-32-32l0-160c0-35.3-28.7-64-64-64L64 96l0 352c0 17.7-14.3 32-32 32s-32-14.3-32-32L0 64z"/></svg>