<svg xmlns="http://www.w3.org/2000/svg" viewBox="0 0 448 512"><path class="pr-icon-duotone-secondary" d="M0 96L0 416c0 35.3 28.7 64 64 64l320 0c35.3 0 64-28.7 64-64l0-320c0-35.3-28.7-64-64-64L64 32C28.7 32 0 60.7 0 96zM160 248c0-13.3 10.7-24 24-24l48 0c13.3 0 24 10.7 24 24l0 88 8 0c13.3 0 24 10.7 24 24s-10.7 24-24 24l-80 0c-13.3 0-24-10.7-24-24s10.7-24 24-24l24 0 0-64-24 0c-13.3 0-24-10.7-24-24zm96-88a32 32 0 1 1 -64 0 32 32 0 1 1 64 0z"/><path class="pr-icon-duotone-primary" d="M224 128a32 32 0 1 1 0 64 32 32 0 1 1 0-64zM160 248c0-13.3 10.7-24 24-24l48 0c13.3 0 24 10.7 24 24l0 88 8 0c13.3 0 24 10.7 24 24s-10.7 24-24 24l-80 0c-13.3 0-24-10.7-24-24s10.7-24 24-24l24 0 0-64-24 0c-13.3 0-24-10.7-24-24z"/></svg>