<svg xmlns="http://www.w3.org/2000/svg" width="24" height="24" viewBox="0 0 640 512">
    <path class="pr-icon-duotone-secondary" d="M0 80l0 48c0 17.7 14.3 32 32 32s32-14.3 32-32l0-32 96 0 0 320-32 0c-17.7 0-32 14.3-32 32s14.3 32 32 32l128 0c17.7 0 32-14.3 32-32s-14.3-32-32-32l-32 0 0-320 96 0 0 32c0 17.7 14.3 32 32 32s32-14.3 32-32l0-48c0-26.5-21.5-48-48-48L192 32 48 32C21.5 32 0 53.5 0 80z"/>
    <path class="pr-icon-duotone-primary" d="M384 288l0 16c0 17.7-14.3 32-32 32s-32-14.3-32-32l0-32c0-26.5 21.5-48 48-48l224 0c26.5 0 48 21.5 48 48l0 32c0 17.7-14.3 32-32 32s-32-14.3-32-32l0-16-64 0 0 128 16 0c17.7 0 32 14.3 32 32s-14.3 32-32 32l-96 0c-17.7 0-32-14.3-32-32s14.3-32 32-32l16 0 0-128-64 0z"/>
</svg>