<svg xmlns="http://www.w3.org/2000/svg" width="24" height="24" viewBox="0 0 24 24">
    <path d="M12.792 13.392c-0.096-0.096-0.096-0.192-0.192-0.192-0.504-0.312-1.104-0.192-1.488 0.192l-4.008 6c0 0.216-0.096 0.408-0.096 0.6 0 0.6 0.384 1.008 0.984 1.008h8.016c0.192 0 0.384-0.096 0.6-0.192 0.504-0.312 0.6-0.912 0.288-1.416l-4.104-6zM19.008 3h-14.016c-1.704 0-3 1.296-3 3v9c0 1.704 1.32 3 3 3h0.816c0.6 0 0.984-0.408 0.984-1.008s-0.384-0.984-0.984-0.984h-0.816c-0.6 0-0.984-0.408-0.984-1.008v-9c0-0.6 0.384-1.008 0.984-1.008h14.016c0.6 0 0.984 0.408 0.984 1.008v9c0 0.6-0.384 1.008-0.984 1.008h-0.816c-0.6 0-0.984 0.384-0.984 0.984s0.384 1.008 0.984 1.008h0.816c1.704 0 3-1.296 3-3v-9c0-1.704-1.32-3-3-3z"></path>
</svg>
