<svg xmlns="http://www.w3.org/2000/svg" width="24" height="24" viewBox="0 0 24 24">
    <path d="M7.008 9c-0.6 0-1.008 0.408-1.008 1.008s0.408 0.984 1.008 0.984h9.984c0.6 0 1.008-0.384 1.008-0.984s-0.408-1.008-1.008-1.008h-9.984zM3 7.008h18c0.6 0 1.008-0.408 1.008-1.008s-0.408-1.008-1.008-1.008h-18c-0.6 0-1.008 0.408-1.008 1.008s0.408 1.008 1.008 1.008zM16.992 16.992h-9.984c-0.6 0-1.008 0.408-1.008 1.008s0.408 1.008 1.008 1.008h9.984c0.6 0 1.008-0.408 1.008-1.008s-0.408-1.008-1.008-1.008zM21 13.008h-18c-0.6 0-1.008 0.384-1.008 0.984s0.408 1.008 1.008 1.008h18c0.6 0 1.008-0.408 1.008-1.008s-0.408-0.984-1.008-0.984z"></path>
</svg>
