<svg xmlns="http://www.w3.org/2000/svg" width="24" height="24" viewBox="0 0 24 24">
    <path d="M12 1.992c0 0 0 0 0 0-5.496 0-10.008 4.512-10.008 10.008s4.512 10.008 10.008 10.008 10.008-4.512 10.008-10.008-4.512-10.008-10.008-10.008zM6.408 10.008c0 0 0 0 0 0-0.408-0.408-0.408-1.104 0-1.512 0.384-0.408 0.984-0.408 1.392 0 0 0 0 0 0 0 0.408 0.408 1.008 0.408 1.392 0 0.408-0.408 1.008-0.408 1.416 0 0.384 0.408 0.384 1.008 0 1.392 0 0 0 0 0 0-1.104 1.2-3 1.2-4.2 0.12zM15.312 15.408l-4.2 1.488c-0.504 0.192-1.104-0.096-1.32-0.6-0.192-0.504 0.12-1.104 0.6-1.296l4.2-1.512c0.504-0.192 1.104 0.12 1.296 0.6 0.216 0.6 0.024 1.2-0.576 1.32zM17.592 10.008c-1.2 1.2-3.096 1.2-4.2 0 0 0 0 0 0 0-0.384-0.408-0.384-1.008 0-1.416 0.408-0.384 1.008-0.384 1.416 0 0.384 0.408 0.984 0.408 1.392 0 0.408-0.384 1.008-0.384 1.392 0 0.408 0.312 0.408 1.008 0 1.416z"></path>
</svg>
