<svg xmlns="http://www.w3.org/2000/svg" width="24" height="24" viewBox="0 0 24 24">
    <path d="M18.408 8.592c-0.216-0.384-0.6-0.6-0.912-0.6h-4.488l1.296-4.704c0-0.6-0.312-1.080-0.792-1.296-0.12 0-0.216 0-0.312 0h-7.008c-0.48 0-0.792 0.312-0.984 0.696l-2.712 10.008c-0.096 0.504 0.216 1.104 0.696 1.2 0.12 0 0.216 0 0.312 0h3.792l-1.8 6.696c-0.096 0.504 0.216 1.104 0.696 1.2 0.408 0.096 0.72 0 1.008-0.288l10.896-12c0.408-0.096 0.408-0.504 0.312-0.912zM19.512 13.008h-1.008c-1.704 0-3 1.296-3 3v4.992c0 0.6 0.408 1.008 1.008 1.008s0.984-0.408 0.984-1.008v-1.992h3v1.992c0 0.6 0.408 1.008 1.008 1.008s0.984-0.408 0.984-1.008v-4.992c0.024-1.704-1.296-3-2.976-3zM20.496 16.992h-3v-0.984c0-0.6 0.408-1.008 1.008-1.008h0.984c0.6 0 1.008 0.408 1.008 1.008v0.984z"></path>
</svg>
