<svg xmlns="http://www.w3.org/2000/svg" width="24" height="24" viewBox="0 0 24 24">
    <path d="M19.992 10.992h-15.984c-0.6 0-1.008 0.408-1.008 1.008s0.408 1.008 1.008 1.008h15.984c0.6 0 1.008-0.408 1.008-1.008s-0.408-1.008-1.008-1.008zM12 15c-0.6 0-1.008 0.408-1.008 1.008s0.408 0.984 1.008 0.984 1.008-0.384 1.008-0.984-0.408-1.008-1.008-1.008zM12 19.008c-0.6 0-1.008 0.384-1.008 0.984s0.408 1.008 1.008 1.008 1.008-0.408 1.008-1.008-0.408-0.984-1.008-0.984zM12 9c0.6 0 1.008-0.408 1.008-1.008s-0.408-0.984-1.008-0.984-1.008 0.384-1.008 0.984 0.408 1.008 1.008 1.008zM12 4.992c0.6 0 1.008-0.384 1.008-0.984s-0.408-1.008-1.008-1.008-1.008 0.408-1.008 1.008 0.408 0.984 1.008 0.984zM4.008 15c-0.6 0-1.008 0.408-1.008 1.008s0.408 0.984 1.008 0.984 0.984-0.384 0.984-0.984-0.384-1.008-0.984-1.008zM4.008 19.008c-0.6 0-1.008 0.384-1.008 0.984s0.408 1.008 1.008 1.008 0.984-0.408 0.984-1.008-0.384-0.984-0.984-0.984zM4.008 9c0.6 0 0.984-0.408 0.984-1.008s-0.384-0.984-0.984-0.984-1.008 0.384-1.008 0.984 0.408 1.008 1.008 1.008zM4.008 4.992c0.6 0 0.984-0.384 0.984-0.984s-0.384-1.008-0.984-1.008-1.008 0.408-1.008 1.008 0.408 0.984 1.008 0.984zM7.992 4.992c0.6 0 1.008-0.384 1.008-0.984s-0.408-1.008-1.008-1.008-0.984 0.408-0.984 1.008 0.384 0.984 0.984 0.984zM16.008 4.992c0.6 0 0.984-0.384 0.984-0.984s-0.384-1.008-0.984-1.008-1.008 0.408-1.008 1.008 0.408 0.984 1.008 0.984zM7.992 19.008c-0.6 0-0.984 0.384-0.984 0.984s0.384 1.008 0.984 1.008 1.008-0.408 1.008-1.008-0.408-0.984-1.008-0.984zM16.008 19.008c-0.6 0-1.008 0.384-1.008 0.984s0.408 1.008 1.008 1.008 0.984-0.408 0.984-1.008-0.384-0.984-0.984-0.984zM19.992 15c-0.6 0-0.984 0.408-0.984 1.008s0.384 0.984 0.984 0.984 1.008-0.384 1.008-0.984-0.408-1.008-1.008-1.008zM19.992 19.008c-0.6 0-0.984 0.384-0.984 0.984s0.384 1.008 0.984 1.008 1.008-0.408 1.008-1.008-0.408-0.984-1.008-0.984zM19.992 7.008c-0.6 0-0.984 0.384-0.984 0.984s0.384 1.008 0.984 1.008 1.008-0.408 1.008-1.008-0.408-0.984-1.008-0.984zM19.992 4.992c0.6 0 1.008-0.384 1.008-0.984s-0.408-1.008-1.008-1.008-0.984 0.408-0.984 1.008 0.384 0.984 0.984 0.984z"></path>
</svg>
