<svg xmlns="http://www.w3.org/2000/svg" width="24" height="24" viewBox="0 0 24 24">
    <path d="M20.496 3c-0.6 0-0.984 0.408-0.984 1.008v15.984c0 0.6 0.384 1.008 0.984 1.008v0c0.6 0 1.008-0.408 1.008-1.008v-15.984c0-0.6-0.408-1.008-1.008-1.008zM16.512 10.992c-0.6 0-1.008 0.408-1.008 1.008s0.408 1.008 1.008 1.008 0.984-0.408 0.984-1.008-0.384-1.008-0.984-1.008zM12.504 10.992c-0.6 0-1.008 0.408-1.008 1.008s0.408 1.008 1.008 1.008 0.984-0.408 0.984-1.008-0.384-1.008-0.984-1.008zM8.496 10.992c-0.6 0-1.008 0.408-1.008 1.008s0.408 1.008 1.008 1.008 1.008-0.408 1.008-1.008-0.408-1.008-1.008-1.008zM4.512 10.992c-0.6 0-1.008 0.408-1.008 1.008s0.408 1.008 1.008 1.008 0.984-0.408 0.984-1.008-0.408-1.008-0.984-1.008zM16.512 19.008c-0.6 0-1.008 0.384-1.008 0.984s0.408 1.008 1.008 1.008 0.984-0.408 0.984-1.008-0.384-0.984-0.984-0.984zM12.504 19.008c-0.6 0-1.008 0.384-1.008 0.984s0.408 1.008 1.008 1.008 0.984-0.408 0.984-1.008-0.384-0.984-0.984-0.984zM8.496 19.008c-0.6 0-1.008 0.384-1.008 0.984s0.408 1.008 1.008 1.008 1.008-0.408 1.008-1.008-0.408-0.984-1.008-0.984zM4.512 19.008c-0.6 0-1.008 0.384-1.008 0.984s0.408 1.008 1.008 1.008 0.984-0.408 0.984-1.008-0.408-0.984-0.984-0.984zM4.512 15c-0.6 0-1.008 0.408-1.008 1.008s0.408 0.984 1.008 0.984 0.984-0.384 0.984-0.984-0.408-1.008-0.984-1.008zM4.512 7.008c-0.6 0-1.008 0.384-1.008 0.984s0.408 1.008 1.008 1.008 0.984-0.408 0.984-1.008-0.408-0.984-0.984-0.984zM12.504 15c-0.6 0-1.008 0.408-1.008 1.008s0.408 0.984 1.008 0.984 0.984-0.384 0.984-0.984-0.384-1.008-0.984-1.008zM12.504 7.008c-0.6 0-1.008 0.384-1.008 0.984s0.408 1.008 1.008 1.008 0.984-0.408 0.984-1.008-0.384-0.984-0.984-0.984zM16.512 3c-0.6 0-1.008 0.408-1.008 1.008s0.408 0.984 1.008 0.984 0.984-0.384 0.984-0.984-0.384-1.008-0.984-1.008zM12.504 3c-0.6 0-1.008 0.408-1.008 1.008s0.408 0.984 1.008 0.984 0.984-0.384 0.984-0.984-0.384-1.008-0.984-1.008zM8.496 3c-0.6 0-1.008 0.408-1.008 1.008s0.408 0.984 1.008 0.984 1.008-0.384 1.008-0.984-0.408-1.008-1.008-1.008zM4.512 3c-0.6 0-1.008 0.408-1.008 1.008s0.408 0.984 1.008 0.984 0.984-0.384 0.984-0.984-0.408-1.008-0.984-1.008z"></path>
</svg>
