<svg xmlns="http://www.w3.org/2000/svg" width="24" height="24" viewBox="0 0 24 24">
    <path d="M12 1.896c-5.496 0-10.008 4.512-10.008 10.008s4.512 9.984 10.008 9.984 10.008-4.488 10.008-9.984c0-5.496-4.512-10.008-10.008-10.008zM7.992 9.888c-0.6 0-0.984-0.384-0.984-0.984s0.384-1.008 0.984-1.008 1.008 0.408 1.008 1.008-0.408 0.984-1.008 0.984zM10.992 11.904c-0.6 0-0.984-0.408-0.984-1.008s0.384-1.008 0.984-1.008 1.008 0.408 1.008 1.008-0.408 1.008-1.008 1.008zM10.992 7.896c-0.6 0-0.984-0.408-0.984-1.008s0.384-0.984 0.984-0.984 1.008 0.384 1.008 0.984-0.408 1.008-1.008 1.008z"></path>
</svg>
