<svg xmlns="http://www.w3.org/2000/svg" width="24" height="24" viewBox="0 0 24 24">
    <path d="M9 3c-1.104 0-1.992 0.888-1.992 1.992v0.096l-0.6-0.096c-0.6-0.096-1.2 0.096-1.704 0.504s-0.696 0.912-0.696 1.512c0 0.288 0.096 0.6 0.192 0.888l-0.696 0.504c-0.912 0.504-1.512 1.488-1.512 2.592 0 1.2 0.72 2.304 1.92 2.808l-0.408 0.6c-0.312 0.504-0.504 1.008-0.504 1.608 0 1.68 1.296 3 3 3 0.408 0 0.696-0.12 0.696-0.12l0.408 0.912c0.408 0.696 1.104 1.2 1.896 1.2 1.104 0 1.992-0.912 1.992-1.992v-1.512c0-0.792-0.48-1.608-1.296-1.896-0.504-0.192-0.792-0.696-0.6-1.296 0.192-0.504 0.696-0.816 1.296-0.6 0.216 0.096 0.504 0.192 0.72 0.288v-1.584c0-0.816-0.504-1.608-1.32-1.896-0.48-0.216-0.792-0.72-0.6-1.32 0.216-0.48 0.72-0.792 1.32-0.6 0.096 0.216 0.288 0.312 0.48 0.408v-4.008c0-1.104-0.888-1.992-1.992-1.992zM22.008 10.992c0-1.104-0.6-2.088-1.512-2.592l-0.696-0.504c0.096-0.288 0.192-0.6 0.192-0.888 0-0.6-0.288-1.104-0.696-1.512s-1.104-0.6-1.704-0.504l-0.6 0.096v-0.096c0-1.104-0.888-1.992-1.992-1.992s-1.992 0.888-1.992 1.992v4.008c0.192-0.096 0.384-0.192 0.696-0.312 0.504-0.192 1.104 0.12 1.296 0.6 0.192 0.504-0.096 1.104-0.6 1.32-0.792 0.288-1.296 0.984-1.296 1.896v1.488c0.192-0.096 0.384-0.192 0.696-0.288 0.504-0.216 1.104 0.096 1.296 0.6s-0.096 1.104-0.6 1.296c-0.792 0.288-1.296 1.008-1.296 1.896v1.512c0 1.080 0.888 1.992 1.992 1.992 0.816 0 1.512-0.504 1.8-1.104l0.408-0.888c0 0 0.288 0.096 0.696 0.096 1.704 0 3-1.296 3-3 0-0.6-0.192-1.104-0.504-1.608l-0.384-0.6c1.104-0.6 1.8-1.704 1.8-2.904z"></path>
</svg>
