<svg xmlns="http://www.w3.org/2000/svg" width="24" height="24" viewBox="0 0 24 24">
    <path d="M22.992 1.992h-0.984v-0.984c0-0.6-0.408-1.008-1.008-1.008s-1.008 0.408-1.008 1.008v0.984h-0.984c-0.6 0-1.008 0.408-1.008 1.008s0.408 1.008 1.008 1.008h0.984v0.984c0 0.6 0.408 1.008 1.008 1.008s1.008-0.408 1.008-1.008v-0.984h0.984c0.6 0 1.008-0.408 1.008-1.008s-0.408-1.008-1.008-1.008zM12 10.992c-1.104 0-1.992 0.912-1.992 2.016s0.888 1.992 1.992 1.992 1.992-0.912 1.992-1.992-0.888-2.016-1.992-2.016zM19.008 7.008h-1.296l-0.312-0.912c-0.096-0.288-0.192-0.504-0.408-0.792 0 0 0 0 0-0.096 0 0-0.096-0.12-0.096-0.12-0.6-0.696-1.392-1.080-2.304-1.080h-5.184c-0.504 0-1.104 0.192-1.512 0.48-0.096 0-0.096 0.12-0.192 0.12 0 0 0 0 0 0-0.504 0.384-0.912 0.888-1.104 1.488l-0.288 0.912h-1.32c-1.68 0-3 1.296-3 3v7.992c0 1.704 1.296 3 3 3h14.016c1.68 0 3-1.296 3-3v-7.992c0-1.704-1.32-3-3-3zM12 16.992c-2.208 0-4.008-1.8-4.008-3.984s1.8-4.008 4.008-4.008 4.008 1.8 4.008 4.008c0 2.184-1.8 3.984-4.008 3.984z"></path>
</svg>
