<svg xmlns="http://www.w3.org/2000/svg" width="24" height="24" viewBox="0 0 24 24">
    <path d="M21.792 11.4l-4.992-6c-0.192-0.312-0.504-0.408-0.792-0.408h-11.016c-1.704 0-3 1.296-3 3v8.016c0 1.68 1.32 3 3 3h11.016c0.288 0 0.6-0.12 0.792-0.408l4.992-6c0.312-0.312 0.312-0.912 0-1.2zM12.696 14.688c-0.384 0.408-1.008 0.408-1.392 0 0 0 0 0 0 0l-1.296-1.296-1.32 1.296c-0.384 0.408-0.984 0.408-1.392 0-0.408-0.384-0.408-0.984 0-1.392l1.296-1.296-1.296-1.296c-0.408-0.408-0.408-1.008 0-1.416 0.408-0.384 1.008-0.384 1.392 0l1.32 1.32 1.296-1.32c0.408-0.384 1.008-0.384 1.392 0 0.408 0.408 0.408 1.008 0 1.416l-1.296 1.296 1.296 1.296c0.408 0.408 0.408 1.008 0 1.392z"></path>
</svg>
