<svg xmlns="http://www.w3.org/2000/svg" width="24" height="24" viewBox="0 0 24 24">
    <path d="M12 1.992c0 0 0 0 0 0-5.496 0-10.008 4.512-10.008 10.008s4.512 10.008 10.008 10.008 10.008-4.512 10.008-10.008-4.512-10.008-10.008-10.008zM11.592 14.496c-0.504 0.912-1.488 1.512-2.592 1.512-1.704 0-3-1.32-3-3v-2.016c0-1.704 1.296-3 3-3 0.792 0 1.608 0.312 2.112 0.912 0.192 0.192 0.288 0.384 0.48 0.6 0.312 0.504 0.12 1.104-0.288 1.392-0.504 0.312-1.104 0.096-1.392-0.288 0-0.12-0.12-0.12-0.12-0.216-0.384-0.384-0.984-0.384-1.392 0-0.312 0.096-0.408 0.312-0.408 0.6v2.016c0 0.288 0.12 0.48 0.312 0.696 0.408 0.384 1.008 0.384 1.392 0 0.096-0.096 0.096-0.096 0.192-0.216 0.312-0.48 0.912-0.6 1.416-0.384 0.384 0.288 0.6 0.888 0.288 1.392zM17.592 14.496c-0.48 0.912-1.488 1.512-2.592 1.512-1.704 0-3-1.32-3-3v-2.016c0-1.704 1.296-3 3-3 0.792 0 1.608 0.312 2.112 0.912 0.192 0.192 0.288 0.384 0.48 0.6 0.312 0.504 0.12 1.104-0.288 1.392-0.504 0.312-1.104 0.096-1.392-0.288 0-0.12-0.12-0.12-0.12-0.216-0.384-0.384-0.984-0.384-1.392 0-0.288 0.096-0.408 0.312-0.408 0.6v2.016c0 0.288 0.096 0.48 0.312 0.696 0.384 0.384 0.984 0.384 1.392 0 0.096-0.096 0.096-0.096 0.216-0.216 0.288-0.48 0.888-0.6 1.392-0.384 0.384 0.288 0.6 0.888 0.288 1.392z"></path>
</svg>
