<svg xmlns="http://www.w3.org/2000/svg" width="24" height="24" viewBox="0 0 24 24">
    <path d="M12.504 19.008v0c-0.6 0-1.008 0.384-1.008 0.984v1.008c0 0.6 0.408 1.008 1.008 1.008s0.984-0.408 0.984-1.008v-1.008c0.024-0.6-0.384-0.984-0.984-0.984zM8.496 19.992v0c-0.6 0-1.008 0.408-1.008 1.008v1.008c0 0.6 0.408 0.984 1.008 0.984s1.008-0.384 1.008-0.984v-1.008c0-0.6-0.408-1.008-1.008-1.008zM8.496 15v0c-0.6 0-1.008 0.408-1.008 1.008v0.984c0 0.6 0.408 1.008 1.008 1.008s1.008-0.408 1.008-1.008v-0.984c0-0.6-0.408-1.008-1.008-1.008zM12.504 13.992v0c-0.6 0-1.008 0.408-1.008 1.008v1.008c0 0.6 0.408 0.984 1.008 0.984s0.984-0.384 0.984-0.984v-1.008c0.024-0.6-0.384-1.008-0.984-1.008zM22.992 7.008h-1.104c-0.096-0.6-0.384-1.2-0.696-1.8l0.816-0.816c0.384-0.384 0.384-0.984 0-1.392-0.408-0.408-1.008-0.408-1.416 0l-0.792 0.792c-0.504-0.384-1.104-0.6-1.8-0.696v-1.104c0-0.6-0.408-0.984-1.008-0.984s-0.984 0.384-0.984 0.984v1.104c-0.6 0.096-1.2 0.408-1.704 0.696l-0.816-0.792c-0.384-0.408-0.984-0.408-1.392 0s-0.408 1.008 0 1.392c0 0 0 0 0 0l0.792 0.816c-0.096 0.192-0.192 0.288-0.288 0.48 1.896 0.504 3.504 1.8 4.488 3.6 1.416 0.6 2.52 1.704 3 3.12l0.504 0.48c0.408 0.408 1.008 0.408 1.416 0 0.384-0.384 0.384-0.984 0-1.392l-0.816-0.792c0.408-0.504 0.6-1.104 0.696-1.8h1.104c0.6 0 1.008-0.408 1.008-1.008s-0.408-0.888-1.008-0.888zM16.008 10.488c-1.416-3-4.896-4.392-7.92-3-1.896 0.816-3.192 2.616-3.48 4.608-1.92 0.504-3 2.4-2.4 4.296 0.288 1.608 1.704 2.616 3.288 2.616h1.512c-0.6-0.504-1.008-1.2-1.008-2.016v-0.984c0-1.416 1.104-2.52 2.496-2.52 0.6 0 1.2 0.216 1.704 0.6 0.504-1.296 1.896-1.992 3.192-1.488 1.008 0.408 1.608 1.296 1.608 2.4v1.008c0 0.792-0.408 1.488-1.008 1.992 0.312 0.288 0.6 0.6 0.816 1.008 2.4-0.12 4.296-2.016 4.2-4.416 0-1.896-1.32-3.504-3-4.104z"></path>
</svg>
