<svg xmlns="http://www.w3.org/2000/svg" width="24" height="24" viewBox="0 0 24 24">
    <path d="M19.008 1.992h-14.016c-1.704 0-3 1.296-3 3v10.008c0 1.704 1.32 3 3 3h11.616l3.696 3.696c0.384 0.408 0.984 0.408 1.392 0 0.216-0.192 0.312-0.384 0.312-0.696v-16.008c0-1.704-1.32-3-3-3zM7.992 10.992c-0.6 0-0.984-0.384-0.984-0.984s0.384-1.008 0.984-1.008 1.008 0.408 1.008 1.008-0.408 0.984-1.008 0.984zM12 10.992c-0.6 0-1.008-0.384-1.008-0.984s0.408-1.008 1.008-1.008 1.008 0.408 1.008 1.008-0.408 0.984-1.008 0.984zM16.008 10.992c-0.6 0-1.008-0.384-1.008-0.984s0.408-1.008 1.008-1.008 0.984 0.408 0.984 1.008-0.384 0.984-0.984 0.984z"></path>
</svg>
