<svg xmlns="http://www.w3.org/2000/svg" width="24" height="24" viewBox="0 0 24 24">
    <path d="M21.696 20.304l-5.904-5.904h1.608c0.6 0 1.008-0.408 1.008-1.008s-0.408-0.984-1.008-0.984h-4.008c-0.288 0-0.504 0.096-0.696 0.288l6.408-6.408c0.384-0.384 0.384-0.984 0-1.392s-1.008-0.384-1.416 0l-6.384 6.408c0.192-0.192 0.288-0.408 0.288-0.696v-4.008c0-0.6-0.384-1.008-0.984-1.008s-1.008 0.408-1.008 1.008v1.608l-5.904-5.904c-0.384-0.408-0.984-0.408-1.392 0-0.408 0.384-0.408 0.984 0 1.392l5.904 5.904h-1.608c-0.6 0-1.008 0.408-1.008 1.008s0.408 0.984 1.008 0.984h4.008c0.288 0 0.48-0.096 0.696-0.288l-6.408 6.384c-0.192 0.216-0.288 0.408-0.288 0.72 0 0.6 0.384 0.984 0.984 0.984 0.312 0 0.504-0.096 0.696-0.288l6.408-6.408c-0.192 0.192-0.288 0.408-0.288 0.696v4.008c0 0.6 0.384 1.008 0.984 1.008v0c0.6 0 1.008-0.408 1.008-1.008v-1.608l5.904 5.904c0.384 0.408 0.984 0.408 1.392 0 0.408-0.384 0.408-1.008 0-1.392z"></path>
</svg>
