<svg xmlns="http://www.w3.org/2000/svg" width="24" height="24" viewBox="0 0 24 24">
    <path d="M19.008 13.008v0.984c0 0.216-0.096 0.408-0.216 0.6l1.416 1.416c0.504-0.504 0.792-1.2 0.792-2.016v-7.992c0-1.704-1.296-3-3-3h-10.8l10.008 10.008h1.8zM21.696 20.304l-3.288-3.312-2.016-1.992-1.992-1.992-9.696-9.72c0 0 0 0 0 0l-1.008-0.984c-0.096-0.096-0.192-0.216-0.288-0.216-0.408-0.192-0.816-0.096-1.104 0.216s-0.408 0.696-0.192 1.104c0 0.096 0.096 0.192 0.192 0.288l1.008 1.008c-0.216 0.384-0.312 0.792-0.312 1.296v7.992c0 1.704 1.296 3 3 3h3v2.016h-3c-0.6 0-1.008 0.384-1.008 0.984s0.408 1.008 1.008 1.008h12c0.408 0 0.792-0.312 0.912-0.696l1.392 1.392c0.192 0.216 0.504 0.312 0.696 0.312s0.504-0.096 0.696-0.312c0.408-0.384 0.408-1.008 0-1.392zM13.008 19.008h-2.016v-2.016h2.016v2.016zM6 15c-0.6 0-1.008-0.408-1.008-1.008v-0.984h6.6l2.016 1.992h-7.608zM15 19.008v-2.016h0.6l1.992 2.016h-2.592z"></path>
</svg>
