<svg xmlns="http://www.w3.org/2000/svg" width="24" height="24" viewBox="0 0 24 24">
    <path d="M4.992 9.192c-1.488 0-2.784 1.2-2.784 2.808s1.2 2.808 2.784 2.808 2.808-1.2 2.808-2.808c-0.096-1.512-1.296-2.712-2.808-2.808zM4.992 2.208c-1.488 0-2.784 1.296-2.784 2.784s1.296 2.808 2.784 2.808 2.808-1.296 2.808-2.808c-0.096-1.488-1.296-2.688-2.808-2.784zM19.008 7.8c1.488 0 2.784-1.2 2.784-2.808s-1.296-2.784-2.784-2.784-2.808 1.296-2.808 2.784c0.096 1.512 1.296 2.712 2.808 2.808zM12 2.208c-1.488 0-2.808 1.2-2.808 2.784s1.2 2.808 2.808 2.808 2.808-1.2 2.808-2.808c-0.12-1.488-1.296-2.688-2.808-2.784zM12 16.2c-1.488 0-2.808 1.2-2.808 2.808s1.2 2.784 2.808 2.784 2.808-1.2 2.808-2.784c-0.12-1.512-1.296-2.712-2.808-2.808zM19.008 9.192c-1.512 0-2.808 1.2-2.808 2.808s1.2 2.808 2.808 2.808 2.784-1.2 2.784-2.808c-0.096-1.512-1.296-2.712-2.784-2.808zM12 9.192c-1.488 0-2.808 1.2-2.808 2.808s1.2 2.808 2.808 2.808 2.808-1.2 2.808-2.808c-0.12-1.512-1.296-2.712-2.808-2.808z"></path>
</svg>
