<svg xmlns="http://www.w3.org/2000/svg" width="24" height="24" viewBox="0 0 24 24">
    <path d="M12.696 11.904l3.816-3.816v-1.68c-1.416 0.288-2.712-0.6-2.904-1.92 0-0.192-0.096-0.288-0.096-0.48h-8.52c-0.384 0-0.888 0.096-1.296 0.288l7.608 7.608c0.384 0.384 1.008 0.384 1.392 0zM22.704 3.288l-3-3c-0.408-0.384-1.008-0.384-1.416 0 0 0 0 0 0 0l-3 3c-0.384 0.408-0.384 1.008 0 1.416 0.408 0.384 1.008 0.384 1.416 0l1.296-1.296v5.592c0 0.6 0.408 1.008 1.008 1.008s0.984-0.408 0.984-1.008v-5.592l1.296 1.296c0.408 0.384 1.008 0.384 1.416 0 0.408-0.408 0.408-1.008 0-1.416zM21.504 6.408v2.592c0 1.392-1.104 2.496-2.496 2.496-0.816 0-1.608-0.408-2.016-1.104l-2.784 2.808c-1.2 1.2-3.096 1.2-4.2 0 0 0 0 0 0 0l-7.704-7.512c-0.192 0.408-0.312 0.912-0.312 1.32v9.984c0 1.704 1.32 3 3 3h14.016c1.68 0 3-1.296 3-3v-9.984c0-0.216 0-0.312-0.12-0.504-0.096 0-0.288 0-0.384-0.096z"></path>
</svg>
