<svg xmlns="http://www.w3.org/2000/svg" width="24" height="24" viewBox="0 0 24 24">
    <path d="M9.912 8.496c-0.408-0.408-1.008-0.408-1.416 0s-0.384 1.008 0 1.392l5.712 5.712c0.192 0.192 0.384 0.288 0.696 0.288v0c0.288 0 0.504-0.096 0.696-0.288 0.408-0.408 0.408-1.008 0-1.392l-5.688-5.712zM8.496 14.088l-4.488 4.512v-1.608c0-0.6-0.408-0.984-1.008-0.984s-1.008 0.384-1.008 0.984v4.008c0 0.6 0.408 1.008 1.008 1.008h4.008c0.6 0 0.984-0.408 0.984-1.008s-0.384-1.008-0.984-1.008h-1.608l4.512-4.488c0.384-0.408 0.384-1.008 0-1.416-0.408-0.384-1.008-0.384-1.416 0zM21 1.992h-4.008c-0.6 0-0.984 0.408-0.984 1.008s0.384 1.008 0.984 1.008h1.608l-4.488 4.488c0 0 0 0 0 0-0.408 0.408-0.408 1.008 0 1.392 0.384 0.408 0.984 0.408 1.392 0l4.488-4.488v1.608c0 0.6 0.408 0.984 1.008 0.984v0c0.6 0 1.008-0.384 1.008-0.984v-4.008c0-0.6-0.408-1.008-1.008-1.008z"></path>
</svg>
