<svg xmlns="http://www.w3.org/2000/svg" width="24" height="24" viewBox="0 0 24 24">
    <path d="M13.992 7.008h4.416l-5.4-5.4v4.392c0 0.6 0.384 1.008 0.984 1.008zM21 19.008h-6.192c-0.312-0.816-1.008-1.512-1.8-1.8v-2.208h3c1.704 0 3-1.296 3-3v-3h-5.016c-1.68 0-3-1.296-3-3v-4.992h-3c-1.68 0-3 1.296-3 3v7.992c0 1.704 1.32 3 3 3h3v2.208c-0.792 0.288-1.488 0.984-1.8 1.8h-6.192c-0.6 0-1.008 0.384-1.008 0.984s0.408 1.008 1.008 1.008h6.192c0.6 1.608 2.304 2.4 3.816 1.8 0.792-0.312 1.488-1.008 1.8-1.8h6.192c0.6 0 1.008-0.408 1.008-1.008s-0.408-0.984-1.008-0.984zM12 21c-0.6 0-1.008-0.408-1.008-1.008s0.408-0.984 1.008-0.984 1.008 0.384 1.008 0.984-0.408 1.008-1.008 1.008z"></path>
</svg>
