<svg xmlns="http://www.w3.org/2000/svg" width="24" height="24" viewBox="0 0 24 24">
    <path d="M15 7.992h4.392l-5.4-5.4v4.416c0 0.6 0.408 0.984 1.008 0.984zM22.608 13.896c-0.216-0.192-0.504-0.288-0.816-0.192-0.792 0.192-1.584 0-2.184-0.504-0.408-0.312-0.816-0.312-1.2 0-0.6 0.504-1.416 0.6-2.208 0.504-0.504-0.096-1.104 0.192-1.2 0.792 0 0.096 0 0.096 0 0.192v2.304c0 1.512 0.696 2.808 1.8 3.696l1.608 1.2c0.384 0.312 0.792 0.312 1.2 0l1.584-1.2c1.2-0.888 1.8-2.184 1.8-3.696v-2.304c0-0.384-0.096-0.696-0.384-0.792zM13.512 16.896v-2.304c0-1.392 1.080-2.496 2.496-2.496 0.192 0 0.384 0 0.504 0.096 0.384 0.096 0.696 0 0.984-0.192 0.696-0.504 1.704-0.6 2.496-0.312v-1.68h-4.992c-1.704 0-3-1.32-3-3v-5.016h-4.992c-1.704 0-3 1.296-3 3v14.016c0 1.68 1.296 3 3 3h9.192l-0.192-0.216c-1.608-1.104-2.496-2.904-2.496-4.896zM9 7.992h1.008c0.6 0 0.984 0.408 0.984 1.008s-0.384 1.008-0.984 1.008h-1.008c-0.6 0-1.008-0.408-1.008-1.008s0.504-1.008 1.008-1.008zM10.512 18h-1.512c-0.6 0-1.008-0.408-1.008-1.008s0.408-0.984 1.008-0.984h1.512c0.6 0 0.984 0.384 0.984 0.984s-0.408 1.008-0.984 1.008zM11.496 13.992h-2.496c-0.6 0-1.008-0.384-1.008-0.984s0.408-1.008 1.008-1.008h2.496c0.6 0 1.008 0.408 1.008 1.008s-0.408 0.984-1.008 0.984z"></path>
</svg>
