<svg xmlns="http://www.w3.org/2000/svg" width="24" height="24" viewBox="0 0 24 24">
    <path d="M15 7.992h4.392l-5.4-5.4v4.416c0 0.6 0.408 0.984 1.008 0.984zM13.2 16.8v0l3.6-3.6c0.888-0.912 2.208-1.008 3.192-0.312v-2.88h-4.992c-1.704 0-3-1.32-3-3v-5.016h-4.992c-1.704 0-3 1.296-3 3v14.016c0 1.68 1.296 3 3 3h5.688c-0.096-0.312-0.192-0.72-0.192-1.008v-2.4c0-0.696 0.288-1.296 0.696-1.8zM9 7.992h1.008c0.6 0 0.984 0.408 0.984 1.008s-0.384 1.008-0.984 1.008h-1.008c-0.6 0-1.008-0.408-1.008-1.008s0.408-1.008 1.008-1.008zM9 18v0c-0.6 0-1.008-0.408-1.008-1.008s0.408-0.984 1.008-0.984 1.008 0.384 1.008 0.984c0 0.6-0.408 1.008-1.008 1.008zM9 13.992c-0.6 0-1.008-0.384-1.008-0.984s0.408-1.008 1.008-1.008h4.008c0.6 0 0.984 0.408 0.984 1.008s-0.384 0.984-0.984 0.984h-4.008zM21.696 16.704c0 0 0 0 0 0l-2.4-2.4c-0.384-0.408-0.984-0.408-1.392 0 0 0 0 0 0 0l-3.6 3.6c-0.216 0.192-0.312 0.384-0.312 0.696v2.4c0 0.6 0.408 1.008 1.008 1.008h2.4c0.288 0 0.504-0.096 0.696-0.312l3.6-3.6c0.408-0.408 0.408-1.008 0-1.392z"></path>
</svg>
