<svg xmlns="http://www.w3.org/2000/svg" width="24" height="24" viewBox="0 0 24 24">
    <path d="M3.696 2.304c-0.384-0.408-0.984-0.408-1.392 0-0.408 0.384-0.408 0.984 0 1.392l2.808 2.808c-0.72 0.6-1.104 1.392-1.104 2.304v0.984c0 0.408 0.096 0.816 0.192 1.104 0.096 0.312 0.312 0.6 0.6 0.792l5.4 5.4v3.912c0 0.6 0.408 1.008 1.008 1.008 0.192 0 0.288 0 0.384-0.096l3.6-1.824c0.312-0.192 0.6-0.48 0.6-0.888v-1.992l4.512 4.488c0.408 0.408 1.008 0.408 1.392 0 0.408-0.384 0.408-0.984 0-1.392l-18-18zM6 9.6v-0.792c0-0.408 0.312-0.72 0.6-0.816l1.488 1.512h-2.088zM19.2 6h-9l1.992 1.992h7.008c0.504 0 0.792 0.312 0.792 0.816v0.792h-6.192l4.8 4.8 2.592-2.592c0.216-0.216 0.408-0.504 0.504-0.816 0.216-0.384 0.312-0.792 0.312-1.2v-0.984c0-1.608-1.2-2.808-2.808-2.808z"></path>
</svg>
