<svg xmlns="http://www.w3.org/2000/svg" width="24" height="24" viewBox="0 0 24 24">
    <path d="M19.008 6h-6.312l-0.288-0.912c-0.408-1.296-1.512-2.088-2.808-2.088h-4.608c-1.704 0-3 1.296-3 3v13.008c0 1.704 1.32 3 3 3h14.016c1.68 0 3-1.296 3-3v-10.008c0-1.704-1.32-3-3-3zM15.696 12.696l-3.984 4.008c-0.408 0.384-1.008 0.384-1.416 0 0 0 0 0 0 0l-1.992-2.016c-0.408-0.384-0.408-0.984 0-1.392s1.008-0.408 1.392 0l1.296 1.296 3.312-3.288c0.408-0.408 1.008-0.408 1.392 0 0.408 0.384 0.408 0.984 0 1.392z"></path>
</svg>
