<svg xmlns="http://www.w3.org/2000/svg" width="24" height="24" viewBox="0 0 24 24">
    <path d="M14.904 6.6h3.6l-0.816 0.792c-0.384 0.408-0.384 1.008 0 1.416 0.408 0.384 1.008 0.384 1.416 0l2.496-2.52c0.408-0.384 0.408-0.984 0-1.392l-2.496-2.496c-0.408-0.408-1.008-0.408-1.416 0-0.384 0.408-0.384 1.008 0 1.392l0.816 0.816h-3.6c-0.6 0-1.008 0.384-1.008 0.984s0.504 1.008 1.008 1.008zM19.392 13.008c-0.192 0-0.384-0.12-0.696-0.12-0.384-0.096-0.888-0.192-1.296-0.384-1.008-0.312-1.992 0.096-2.496 0.984l-0.216 0.504c-1.992-1.104-3.6-2.688-4.68-4.704l0.504-0.288c0.888-0.408 1.392-1.512 0.984-2.496-0.192-0.408-0.288-0.912-0.384-1.296-0.024-0.216-0.12-0.408-0.12-0.72-0.192-1.392-1.488-2.496-3-2.496h-3c-0.888 0-1.704 0.408-2.184 1.008-0.6 0.696-0.816 1.608-0.696 2.496 0.48 4.2 2.4 7.992 5.4 10.992s6.888 4.92 10.992 5.424c0.888 0.096 1.704-0.216 2.4-0.72 0.6-0.6 0.984-1.392 0.984-2.184v-3c0-1.608-0.984-2.808-2.496-3z"></path>
</svg>
