<svg xmlns="http://www.w3.org/2000/svg" width="24" height="24" viewBox="0 0 24 24">
    <path d="M21.696 10.296l-9-7.992c-0.384-0.312-0.888-0.312-1.296 0l-9 7.992c-0.408 0.408-0.504 1.008-0.096 1.392s0.984 0.504 1.392 0.12l0.312-0.408v9.6c0 0.6 0.384 1.008 0.984 1.008h14.016c0.6 0 0.984-0.408 0.984-1.008v-9.6l0.312 0.312c0.384 0.384 0.984 0.288 1.392-0.12 0.408-0.288 0.408-0.984 0-1.296zM12 10.992c1.512 0 2.712 1.2 2.712 2.712 0 1.488-1.2 2.688-2.712 2.688-1.488 0-2.688-1.2-2.688-2.688s1.2-2.712 2.688-2.712zM7.008 19.992c0-0.096 0-0.096 0.096-0.192 2.208-2.712 6.192-3.192 8.904-1.008 0.384 0.312 0.696 0.6 0.984 1.008 0 0 0 0.096 0.096 0.192h-10.080z"></path>
</svg>
