<svg xmlns="http://www.w3.org/2000/svg" width="24" height="24" viewBox="0 0 24 24">
    <path d="M18.312 11.808c-0.12 0-0.216 0-0.312 0.096v2.496l-1.488-1.512c-1.104-0.984-2.808-0.984-3.912 0l-0.696 0.72-2.496-2.52c-1.104-0.984-2.808-0.984-3.912 0l-1.488 1.512v-5.592c0-0.6 0.384-1.008 0.984-1.008h5.52c0-0.696 0.192-1.392 0.48-1.992h-6c-1.704 0-3 1.296-3 3v12c0 1.704 1.32 3 3 3h12c1.704 0 3-1.296 3-3v-5.712c-0.288-0.096-0.504-0.288-0.792-0.504l-0.888-0.984zM21.696 10.296l-1.704-1.704c1.296-1.992 0.6-4.704-1.392-6s-4.704-0.6-6 1.416c-1.296 1.992-0.6 4.68 1.392 6 1.416 0.888 3.216 0.888 4.512 0l1.704 1.68c0.384 0.408 0.984 0.408 1.392 0 0.504-0.384 0.504-0.984 0.096-1.392zM16.296 8.592c-1.296 0-2.304-0.984-2.304-2.304s1.008-2.28 2.304-2.28 2.304 0.984 2.304 2.28-1.008 2.304-2.304 2.304z"></path>
</svg>
