<svg xmlns="http://www.w3.org/2000/svg" width="24" height="24" viewBox="0 0 24 24">
    <path d="M21.096 12h-1.992c-0.6 0-1.008 0.408-1.008 1.008s0.408 0.984 1.008 0.984v2.016h-1.2c0.096-0.312 0.192-0.72 0.192-1.008 0-1.704-1.296-3-3-3-1.104 0-2.088 0.6-2.592 1.488-0.312 0.504-0.096 1.104 0.384 1.416 0.504 0.288 1.104 0.096 1.416-0.408 0 0 0 0 0 0 0.192-0.288 0.504-0.504 0.888-0.504 0.6 0 1.008 0.408 1.008 1.008s-0.408 1.008-1.008 1.008-0.984 0.384-0.984 0.984 0.384 1.008 0.984 1.008 1.008 0.408 1.008 1.008-0.408 0.984-1.008 0.984c-0.384 0-0.696-0.192-0.888-0.504-0.312-0.48-0.912-0.6-1.416-0.384s-0.6 0.888-0.384 1.392c0 0 0 0 0 0 0.792 1.392 2.688 1.896 4.104 1.104 0.888-0.504 1.488-1.512 1.488-2.592 0-0.312-0.096-0.72-0.192-1.008h1.2v3c0 0.6 0.384 1.008 0.984 1.008s1.008-0.408 1.008-1.008v-7.008c0.6 0 1.008-0.384 1.008-0.984s-0.504-1.008-1.008-1.008zM14.112 7.008h0.984c0.6 0 1.008 0.384 1.008 0.984v1.008c0 0.6 0.384 1.008 0.984 1.008s1.008-0.408 1.008-1.008v-1.008c0-1.704-1.296-3-3-3h-1.008c-0.6 0-0.984 0.408-0.984 1.008s0.408 1.008 1.008 1.008zM9.096 11.208c0.096 0.48 0.696 0.888 1.2 0.696s0.912-0.696 0.696-1.2l-1.8-7.008c-0.192-1.2-1.488-1.896-2.688-1.608-0.792 0.216-1.512 0.816-1.704 1.608l-1.8 7.008c0 0.6 0.288 1.104 0.792 1.296 0.504 0.096 1.104-0.192 1.2-0.696 0 0 0 0 0 0l0.6-2.304h2.904l0.6 2.208zM6.096 7.008l0.696-2.808c0-0.096 0.216-0.192 0.408-0.192 0.096 0 0.096 0.096 0.192 0.192l0.6 2.808h-1.896zM10.104 16.008h-1.008c-0.6 0-1.008-0.408-1.008-1.008v-1.008c0-0.6-0.384-0.984-0.984-0.984s-1.008 0.384-1.008 0.984v1.008c0 1.704 1.296 3 3 3h1.008c0.6 0 1.008-0.408 1.008-1.008s-0.504-0.984-1.008-0.984z"></path>
</svg>
