<svg xmlns="http://www.w3.org/2000/svg" width="24" height="24" viewBox="0 0 24 24">
    <path d="M21.408 17.592c0-0.096-0.12-0.192-0.216-0.288l-3-3c-0.384-0.408-0.984-0.408-1.392 0-0.408 0.384-0.408 0.984 0 1.392l1.296 1.296h-14.592c-0.6 0-1.008 0.408-1.008 1.008s0.408 1.008 1.008 1.008h14.592l-1.296 1.296c-0.408 0.384-0.408 0.984 0 1.392s1.008 0.408 1.392 0c0 0 0 0 0 0l3-3c0.312-0.288 0.408-0.792 0.216-1.104zM8.496 9.888v4.008c0 0.6 0.408 1.008 1.008 1.008s1.008-0.408 1.008-1.008v-10.008h1.992v10.008c0 0.6 0.408 1.008 1.008 1.008s0.984-0.408 0.984-1.008v-10.008h1.008c0.6 0 0.984-0.384 0.984-0.984s-0.384-1.008-0.984-1.008h-7.008c-2.208 0-4.008 1.8-4.008 4.008s1.824 3.984 4.008 3.984zM8.496 3.888v4.008c-1.104 0-1.992-0.888-1.992-1.992s0.888-2.016 1.992-2.016z"></path>
</svg>
