<svg xmlns="http://www.w3.org/2000/svg" width="24" height="24" viewBox="0 0 24 24">
    <path d="M7.512 7.992h13.992c0.6 0 0.984-0.384 0.984-0.984s-0.384-1.008-0.984-1.008h-13.992c-0.6 0-1.008 0.408-1.008 1.008s0.408 0.984 1.008 0.984zM21.504 10.992h-10.008c-0.6 0-1.008 0.408-1.008 1.008s0.408 1.008 1.008 1.008h10.008c0.6 0 0.984-0.408 0.984-1.008s-0.384-1.008-0.984-1.008zM21.504 16.008h-6c-0.6 0-1.008 0.384-1.008 0.984s0.408 1.008 1.008 1.008h6c0.6 0 0.984-0.408 0.984-1.008s-0.384-0.984-0.984-0.984zM3.504 6c-0.6 0-1.008 0.408-1.008 1.008s0.408 0.984 1.008 0.984 0.984-0.384 0.984-0.984-0.384-1.008-0.984-1.008zM7.512 10.992c-0.6 0-1.008 0.408-1.008 1.008s0.408 1.008 1.008 1.008 0.984-0.408 0.984-1.008-0.408-1.008-0.984-1.008zM11.496 16.008c-0.6 0-1.008 0.384-1.008 0.984s0.408 1.008 1.008 1.008 1.008-0.408 1.008-1.008-0.408-0.984-1.008-0.984z"></path>
</svg>
