<svg xmlns="http://www.w3.org/2000/svg" width="24" height="24" viewBox="0 0 24 24">
    <path d="M19.512 3.504h-4.008c-0.6 0-1.008 0.384-1.008 0.984s0.408 1.008 1.008 1.008h1.608l-2.4 2.4c-3.12-2.304-7.512-1.704-9.816 1.392-2.304 3.12-1.704 7.512 1.416 9.816s7.488 1.704 9.792-1.416c1.896-2.496 1.896-5.88 0-8.4l2.4-2.4v1.608c0 0.6 0.384 1.008 0.984 1.008s1.008-0.408 1.008-1.008v-4.008c0-0.6-0.384-0.984-0.984-0.984zM13.992 16.992c-1.992 2.016-5.088 2.016-7.104 0-1.992-1.992-1.992-5.088 0-7.104s5.112-1.992 7.104 0c0.912 0.912 1.512 2.208 1.512 3.504 0 1.416-0.504 2.712-1.512 3.6z"></path>
</svg>
