<svg xmlns="http://www.w3.org/2000/svg" width="24" height="24" viewBox="0 0 24 24">
    <path d="M19.296 18.888c1.416-1.080 2.112-3 1.8-4.8l-1.104-5.592-0.384-2.4c-0.408-2.4-2.496-4.104-4.92-4.104h-5.376c-2.4 0-4.512 1.704-4.92 4.104l-1.488 7.992c-0.312 1.8 0.288 3.72 1.8 4.8l-1.392 1.416c-0.408 0.408-0.408 1.008 0 1.392 0.384 0.408 0.984 0.408 1.392 0 0 0 0 0 0 0l1.896-1.896c0.408 0.096 0.792 0.192 1.2 0.192h8.4c0.408 0 0.792-0.096 1.2-0.192l1.896 1.896c0.408 0.408 1.008 0.408 1.416 0 0.384-0.408 0.384-1.008 0-1.392l-1.416-1.416zM7.992 16.008c-0.6 0-0.984-0.408-0.984-1.008s0.384-1.008 0.984-1.008 1.008 0.408 1.008 1.008-0.408 1.008-1.008 1.008zM16.008 16.008c-0.6 0-1.008-0.408-1.008-1.008s0.408-1.008 1.008-1.008 0.984 0.408 0.984 1.008-0.384 1.008-0.984 1.008zM12 10.992c-2.304 0-4.488-0.984-6-2.688l0.312-1.8c0.288-1.512 1.584-2.496 3-2.496h5.4c1.392 0 2.688 0.984 2.88 2.4l0.408 1.896c-1.488 1.704-3.696 2.688-6 2.688z"></path>
</svg>
