<svg xmlns="http://www.w3.org/2000/svg" width="24" height="24" viewBox="0 0 24 24">
    <path d="M18.504 16.992v-9.984c0-1.704-1.296-3-3-3h-10.008c-1.704 0-3 1.296-3 3v9.984c0 1.704 1.296 3 3 3h10.008c1.704 0 3-1.296 3-3zM14.496 13.008c0 0.6-0.384 0.984-0.984 0.984-0.216 0-0.504-0.096-0.72-0.192l-1.296-1.104-1.392 1.104c-0.408 0.408-1.104 0.288-1.392-0.096-0.216-0.216-0.216-0.408-0.216-0.6v-7.104h6v7.008zM21.504 7.992v0c-0.6 0-1.008 0.408-1.008 1.008v10.008c0 1.704-1.296 3-3 3h-9.984c-0.6 0-1.008 0.384-1.008 0.984s0.408 1.008 1.008 1.008h9.984c2.808 0 5.016-2.208 5.016-4.992v-10.008c0-0.6-0.408-1.008-1.008-1.008z"></path>
</svg>
