<svg xmlns="http://www.w3.org/2000/svg" width="24" height="24" viewBox="0 0 24 24">
    <path d="M19.008 6.096h-6v-2.496h4.584c0.6 0 1.008-0.408 1.008-1.008s-0.408-0.984-1.008-0.984h-11.184c-0.6 0-1.008 0.384-1.008 0.984s0.408 1.008 1.008 1.008h4.584v2.496h-6c-1.68 0-3 1.296-3 3v9.504c0 1.704 1.296 3 3 3h14.016c1.68 0 3-1.296 3-3v-9.504c0-1.704-1.32-3-3-3zM13.008 19.608h-2.016v-4.8h2.016v4.8zM19.992 12.792h-15.984v-3.696c0-0.6 0.384-1.008 0.984-1.008h14.016c0.6 0 0.984 0.408 0.984 1.008v3.696z"></path>
</svg>
