<svg xmlns="http://www.w3.org/2000/svg" width="24" height="24" viewBox="0 0 24 24">
    <path d="M12 1.992c-5.496 0-10.008 4.512-10.008 10.008 0 4.104 2.52 7.608 6 9.192v-10.2c-0.6 0-0.984-0.384-0.984-0.984s0.384-1.008 0.984-1.008h2.016c0.6 0 0.984 0.408 0.984 1.008s-0.384 0.984-0.984 0.984v3h3.984v-3c-0.6 0-0.984-0.384-0.984-0.984s0.384-1.008 0.984-1.008h2.016c0.6 0 0.984 0.408 0.984 1.008s-0.384 0.984-0.984 0.984v10.2c3.504-1.488 6-5.088 6-9.192 0-5.496-4.512-10.008-10.008-10.008zM10.008 21.792c0.6 0.096 1.296 0.216 1.992 0.216s1.392-0.096 1.992-0.216v-5.784h-3.984v5.784z"></path>
</svg>
