<svg xmlns="http://www.w3.org/2000/svg" width="24" height="24" viewBox="0 0 24 24">
    <path d="M21.696 7.392c0 0 0 0 0 0l-5.088-5.088c-0.408-0.408-1.008-0.408-1.416 0-0.384 0.384-0.384 0.984 0 1.392v0l1.8 1.8-5.4 5.496-0.984-0.984c-1.2-1.2-3.096-1.2-4.2 0 0 0 0 0 0 0l-3.504 3.384c-0.6 0.6-0.912 1.416-0.912 2.112v3.504c0 1.704 1.32 3 3 3h3.504c0.792 0 1.608-0.312 2.112-0.912l3.384-3.408c1.2-1.2 1.2-3.096 0-4.2 0 0 0 0 0 0l-0.984-0.984 5.496-5.496 1.8 1.8c0.384 0.384 0.984 0.384 1.392 0 0 0 0 0 0 0 0.408-0.408 0.408-1.008 0-1.416z"></path>
</svg>
