<svg xmlns="http://www.w3.org/2000/svg" width="24" height="24" viewBox="0 0 24 24">
    <path d="M12 1.992c0 0 0 0 0 0-5.496 0-10.008 4.512-10.008 10.008s4.512 10.008 10.008 10.008 10.008-4.512 10.008-10.008-4.512-10.008-10.008-10.008zM15 9c0.6 0 1.008 0.408 1.008 1.008s-0.408 0.984-1.008 0.984-1.008-0.384-1.008-0.984 0.408-1.008 1.008-1.008zM9 9c0.6 0 1.008 0.408 1.008 1.008s-0.408 0.984-1.008 0.984-1.008-0.384-1.008-0.984 0.408-1.008 1.008-1.008zM16.8 16.608c0 0 0 0 0 0v0c-0.288 0.384-1.008 0.504-1.392 0.192 0 0 0 0 0 0l-0.696-0.504-0.72 0.504c0 0-0.096 0-0.096 0.096 0 0-0.096 0-0.096 0.096-0.288 0.096-0.696 0.096-1.008-0.096l-0.792-0.696-0.696 0.504c-0.408 0.288-0.792 0.288-1.2 0l-0.696-0.504-0.72 0.504c-0.384 0.288-1.080 0.192-1.392-0.216-0.288-0.384-0.192-1.080 0.192-1.392 0 0 0 0 0 0l1.32-1.008c0.384-0.288 0.792-0.288 1.2 0l0.696 0.504 0.696-0.504c0.408-0.288 0.792-0.288 1.2 0l0.696 0.504 0.696-0.504c0.408-0.288 0.816-0.288 1.2 0l1.296 1.008c0.504 0.408 0.624 1.104 0.312 1.512z"></path>
</svg>
