<svg xmlns="http://www.w3.org/2000/svg" width="24" height="24" viewBox="0 0 24 24">
    <path d="M20.808 7.896l-2.016-2.496c-0.192-0.312-0.48-0.408-0.792-0.408h-4.992v-1.992c0-0.6-0.408-1.008-1.008-1.008s-1.008 0.408-1.008 1.008v1.992h-3c-0.6 0-0.984 0.408-0.984 1.008v4.992c0 0.6 0.384 1.008 0.984 1.008h3v7.992h-1.992c-0.6 0-1.008 0.408-1.008 1.008s0.408 1.008 1.008 1.008h6c0.6 0 1.008-0.408 1.008-1.008s-0.408-1.008-1.008-1.008h-1.992v-7.992h4.992c0.312 0 0.6-0.096 0.792-0.408l2.016-2.496c0.288-0.288 0.288-0.888 0-1.2z"></path>
</svg>
