<svg xmlns="http://www.w3.org/2000/svg" width="24" height="24" viewBox="0 0 24 24">
    <path d="M12 1.992c-5.496 0-10.008 4.512-10.008 10.008s4.512 10.008 10.008 10.008 10.008-4.512 10.008-10.008c0-5.496-4.512-10.008-10.008-10.008zM16.512 16.008c0 0.6-0.408 0.984-1.008 0.984s-1.008-0.384-1.008-0.984v-1.704l-3.984 2.304c-1.008 0.6-2.208 0.192-2.712-0.72-0.192-0.288-0.288-0.6-0.288-0.984v-5.808c0-1.104 0.888-1.992 1.992-1.992 0.408 0 0.696 0.096 1.008 0.288l3.984 2.304v-1.704c0-0.6 0.408-0.984 1.008-0.984s1.008 0.384 1.008 0.984v8.016z"></path>
</svg>
