<svg xmlns="http://www.w3.org/2000/svg" width="24" height="24" viewBox="0 0 24 24">
    <path d="M21 10.992h-3.192c-0.504-1.584-2.208-2.4-3.816-1.8-0.888 0.312-1.488 1.008-1.8 1.8h-9.192c-0.6 0-1.008 0.408-1.008 1.008s0.408 1.008 1.008 1.008h9.192c0.504 1.584 2.208 2.4 3.816 1.8 0.888-0.312 1.488-1.008 1.8-1.8h3.192c0.6 0 1.008-0.408 1.008-1.008s-0.408-1.008-1.008-1.008zM15 13.008c-0.6 0-1.008-0.408-1.008-1.008s0.408-1.008 1.008-1.008 1.008 0.408 1.008 1.008c0 0.6-0.408 1.008-1.008 1.008z"></path>
</svg>
