<svg xmlns="http://www.w3.org/2000/svg" width="24" height="24" viewBox="0 0 24 24">
    <path d="M18.312 7.104c0 0 0 0 0 0l1.392-1.416c0 0 0 0 0 0l1.992-1.992c0 0 0 0 0 0 0.408-0.408 0.408-1.008 0-1.392-0.384-0.408-0.984-0.408-1.392 0l-1.992 1.992c-3.6-3-8.904-3.096-12.6 0-0.216 0.096-0.408 0.312-0.624 0.504v-1.8c0-0.6-0.384-1.008-0.984-1.008s-1.008 0.408-1.008 1.008v4.488c0 0.6 0.408 1.008 1.008 1.008h4.488c0.6 0 1.008-0.408 1.008-1.008s-0.408-0.984-1.008-0.984h-2.4c2.52-2.616 6.504-3.312 9.816-1.416 0.288 0.216 0.6 0.408 0.888 0.6l-11.184 11.208c-1.104-1.392-1.704-3.096-1.704-4.896 0-0.6-0.408-1.008-1.008-1.008s-1.008 0.408-1.008 1.008c0 2.304 0.816 4.608 2.304 6.288l-1.992 2.016c-0.192 0.192-0.312 0.384-0.312 0.696 0 0.6 0.408 1.008 1.008 1.008 0.312 0 0.504-0.096 0.696-0.312l2.016-1.992c0 0 0 0 0 0l1.392-1.416c0 0 0 0 0 0l11.208-11.184zM19.896 15.504h-4.488c-0.6 0-1.008 0.384-1.008 0.984s0.408 1.008 1.008 1.008h2.4c-2.208 2.4-5.808 3.192-8.904 1.896l-1.512 1.512c1.416 0.696 3 1.104 4.608 1.104 2.592 0 4.992-1.008 6.888-2.808v1.8c0 0.6 0.408 1.008 1.008 1.008s1.008-0.408 1.008-1.008v-4.512c0-0.6-0.504-0.984-1.008-0.984zM19.392 8.904c0.408 0.984 0.6 1.992 0.6 3.096 0 0.6 0.408 1.008 1.008 1.008s1.008-0.408 1.008-1.008c0-1.608-0.408-3.192-1.104-4.608l-1.512 1.512z"></path>
</svg>
