<svg xmlns="http://www.w3.org/2000/svg" width="24" height="24" viewBox="0 0 24 24">
    <path d="M17.592 5.688c-1.68-1.080-3.6-1.68-5.592-1.68-5.496 0-10.008 4.488-10.008 9.984 0 2.016 0.6 3.912 1.704 5.616 0.216 0.192 0.504 0.384 0.816 0.384h15c0.288 0 0.6-0.192 0.792-0.384 3.096-4.608 1.896-10.8-2.712-13.92zM16.704 11.688l-2.808 2.808c0.312 1.008-0.288 2.112-1.392 2.4-0.408 0.096-0.696 0.096-1.104 0l-0.792 0.792c-0.408 0.408-1.008 0.408-1.416 0-0.384-0.384-0.384-0.984 0-1.392l0.816-0.792c-0.312-1.008 0.288-2.112 1.392-2.4 0.408-0.096 0.696-0.096 1.104 0l2.784-2.808c0.408-0.408 1.008-0.408 1.416 0s0.408 1.008 0 1.392z"></path>
</svg>
