<svg xmlns="http://www.w3.org/2000/svg" width="24" height="24" viewBox="0 0 24 24">
    <path d="M15.504 3h-2.016c-3.888 0-6.984 3.096-6.984 7.008v3h-1.008c-0.6 0-1.008 0.384-1.008 0.984s0.408 1.008 1.008 1.008h1.008v1.992h-4.008c-0.6 0-1.008 0.408-1.008 1.008v1.992c0 0.6 0.408 1.008 1.008 1.008s1.008-0.408 1.008-1.008v-0.984h12c3.888 0 6.984-3.12 6.984-7.008v-1.992c0.024-3.912-3.096-7.008-6.984-7.008zM14.496 15c-2.184 0-3.984-1.8-3.984-4.008s1.8-3.984 3.984-3.984 4.008 1.8 4.008 3.984-1.8 4.008-4.008 4.008z"></path>
</svg>
