<svg xmlns="http://www.w3.org/2000/svg" width="24" height="24" viewBox="0 0 24 24">
    <path d="M15 19.008c0 0.6-0.408 0.984-1.008 0.984h-9.984c-0.6 0-1.008-0.384-1.008-0.984v-4.008h1.008c0.6 0 0.984-0.408 0.984-1.008s-0.384-0.984-0.984-0.984h-1.008v-1.008c0-0.6 0.408-1.008 1.008-1.008h0.984v-1.992h-0.984c-1.704 0-3 1.296-3 3v7.008c0 1.704 1.296 3 3 3h9.984c1.704 0 3-1.296 3-3v-2.016h-1.992v2.016zM6 18h1.008c0.6 0 0.984-0.408 0.984-1.008s-0.384-0.984-0.984-0.984h-1.008c-0.6 0-1.008 0.384-1.008 0.984s0.408 1.008 1.008 1.008zM19.992 1.992h-9.984c-1.704 0-3 1.296-3 3v7.008c0 1.704 1.296 3 3 3h9.984c1.704 0 3-1.296 3-3v-7.008c0-1.704-1.296-3-3-3zM18.504 10.608c-0.312 0.192-0.6 0.384-1.008 0.384-0.384 0-0.696-0.096-0.984-0.384-0.6 0.6-1.608 0.48-2.112-0.12-0.6-0.6-0.504-1.584 0.096-2.088s1.416-0.504 2.016 0c0.6-0.6 1.584-0.504 2.088 0.096s0.504 1.608-0.096 2.112z"></path>
</svg>
