<svg xmlns="http://www.w3.org/2000/svg" width="24" height="24" viewBox="0 0 24 24">
    <path d="M2.712 12.696c0.192 0.096 0.384 0.096 0.6 0.192 1.296 0.72 2.784 0.72 4.080 0 0.816-0.384 1.8-0.384 2.616 0 1.296 0.72 2.784 0.72 4.104 0 0.792-0.384 1.8-0.384 2.592 0 0.6 0.408 1.296 0.6 2.088 0.6 0.72 0 1.416-0.192 2.016-0.6 0.192-0.096 0.384-0.192 0.6-0.192 0.504-0.192 0.792-0.696 0.696-1.2-0.192-0.504-0.696-0.792-1.2-0.696-0.408 0.096-0.696 0.288-1.008 0.408-0.696 0.384-1.488 0.384-2.088 0-1.416-0.816-3.096-0.816-4.512 0-0.696 0.384-1.488 0.384-2.088 0-1.416-0.816-3.096-0.816-4.512 0-0.6 0.384-1.392 0.384-2.088 0-0.312-0.216-0.696-0.312-1.008-0.408-0.504-0.192-1.104 0.096-1.2 0.696s-0.192 1.008 0.312 1.2zM20.688 15.696c-0.384 0.096-0.696 0.312-0.984 0.408-0.696 0.384-1.512 0.384-2.112 0-1.392-0.816-3.096-0.816-4.488 0-0.696 0.384-1.512 0.384-2.112 0-1.392-0.816-3.096-0.816-4.488 0-0.6 0.384-1.416 0.384-2.112 0-0.288-0.216-0.696-0.312-0.984-0.408-0.504-0.192-1.104 0.096-1.2 0.696s0.096 1.104 0.696 1.2c0.192 0.096 0.384 0.096 0.6 0.216 1.296 0.696 2.784 0.696 4.104 0 0.792-0.408 1.8-0.408 2.592 0 1.296 0.696 2.808 0.696 4.104 0 0.792-0.408 1.8-0.408 2.592 0 0.6 0.384 1.296 0.6 2.112 0.6 0.696 0 1.392-0.216 1.992-0.6 0.192-0.12 0.408-0.216 0.6-0.216 0.504-0.192 0.792-0.696 0.696-1.2-0.504-0.504-1.104-0.792-1.608-0.696zM2.712 7.704c0.192 0.096 0.384 0.096 0.6 0.192 1.296 0.696 2.784 0.696 4.080 0 0.816-0.408 1.8-0.408 2.616 0 1.296 0.696 2.784 0.696 4.104 0 0.792-0.408 1.8-0.408 2.592 0 0.6 0.408 1.296 0.6 2.088 0.6 0.72 0 1.416-0.192 2.016-0.6 0.192-0.096 0.384-0.192 0.6-0.192 0.504-0.216 0.792-0.696 0.696-1.2-0.192-0.504-0.696-0.816-1.2-0.696-0.408 0.096-0.696 0.288-1.008 0.384-0.696 0.408-1.488 0.408-2.088 0-1.416-0.792-3.096-0.792-4.512 0-0.696 0.408-1.488 0.408-2.088 0-1.416-0.792-3.096-0.792-4.512 0-0.888 0.312-1.704 0.312-2.4 0-0.288-0.192-0.696-0.384-1.008-0.504-0.48-0.096-1.080 0.216-1.296 0.72-0.096 0.48 0.216 1.080 0.72 1.296z"></path>
</svg>
