<svg xmlns="http://www.w3.org/2000/svg" width="24" height="24" viewBox="0 0 24 24">
    <path d="M11.496 5.904c1.104 0 2.016-0.912 2.016-2.016s-0.912-1.992-2.016-1.992-1.992 0.912-1.992 1.992 0.888 2.016 1.992 2.016zM19.008 19.896h-1.008v-4.992c0-0.6-0.408-1.008-1.008-1.008h-4.992v-1.992h4.992c0.6 0 1.008-0.408 1.008-1.008s-0.408-1.008-1.008-1.008h-4.992v-1.992c0-0.6-0.408-1.008-1.008-1.008s-0.984 0.408-0.984 1.008v7.008c0 0.6 0.384 0.984 0.984 0.984h5.016v5.016c0 0.6 0.384 0.984 0.984 0.984h2.016c0.6 0 0.984-0.384 0.984-0.984s-0.384-1.008-0.984-1.008zM12.192 18.288v0c-1.296 1.8-3.792 2.112-5.592 0.816-1.008-0.816-1.608-1.896-1.608-3.216 0-1.584 0.912-3 2.4-3.696 0.504-0.192 0.696-0.792 0.504-1.296s-0.792-0.696-1.296-0.504c-3 1.32-4.392 4.896-3.096 7.896 1.296 3.024 4.896 4.416 7.896 3.12 1.008-0.408 1.8-1.104 2.4-1.92 0.288-0.384 0.192-1.080-0.192-1.392-0.408-0.288-1.104-0.192-1.416 0.192z"></path>
</svg>
