<svg width="48" height="48" viewBox="0 0 118 90" fill="#229EFF" xmlns="http://www.w3.org/2000/svg" stroke-width="1px" stroke-linecap="round" stroke-linejoin="round"><path d="M60.9399 43.6598V47.2097C60.5299 47.1197 60.14 46.9897 59.77 46.8197C59.6 46.7497 59.43 46.6597 59.27 46.5697L55.8799 44.6097V40.7397L60.9399 43.6598Z" stroke="white" stroke-linejoin="round"/><path d="M112.93 31.1498L65.7603 3.9198C63.9103 2.8498 61.6604 2.3098 59.0304 2.2998C56.4004 2.2998 54.1704 2.8298 52.3204 3.8898L5.45028 30.9598C3.61028 32.0198 2.69028 33.3098 2.70028 34.8298C2.71028 36.3498 3.64031 37.6398 5.49031 38.7098L16.0804 44.8198L52.6602 65.9498C54.5102 67.0198 56.7602 67.5598 59.3902 67.5598C60.3002 67.5598 61.1603 67.4998 61.9703 67.3698C63.5203 67.1398 64.8904 66.6698 66.1004 65.9698L80.6602 57.5598L102.35 45.0398L112.97 38.9098C114.8 37.8598 115.72 36.5598 115.72 35.0498V35.0298C115.71 33.5198 114.78 32.2198 112.93 31.1498ZM42.4202 36.0198C41.4702 36.0198 40.6302 35.7998 39.9002 35.3798C39.1702 34.9598 38.8004 34.4798 38.8004 33.9298C38.8004 33.3798 39.1602 32.8898 39.8802 32.4698L52.4403 25.2198L51.2203 24.5198L49.9102 23.7698C49.1802 23.3398 48.8204 22.8598 48.8104 22.3098C48.8104 21.7598 49.1702 21.2798 49.9002 20.8598C50.6202 20.4398 51.4602 20.2298 52.4102 20.2298C53.3602 20.2298 54.2003 20.4398 54.9303 20.8698L57.5304 22.3698L59.9903 23.7798C60.7203 24.2098 61.0904 24.6898 61.0904 25.2398C61.0904 25.7898 60.7303 26.2698 60.0003 26.6898L52.4403 31.0598L44.9403 35.3898C44.2103 35.8098 43.3702 36.0198 42.4202 36.0198ZM79.3802 38.8498L74.3304 41.7698L69.3104 44.6598L65.9903 46.5798C65.9903 46.5798 65.9703 46.5898 65.9603 46.5998C65.4403 46.8898 64.8703 47.1098 64.2503 47.2398C63.7503 47.3498 63.2102 47.3998 62.6402 47.3998C62.0402 47.3998 61.4703 47.3398 60.9403 47.2098C60.5303 47.1198 60.1403 46.9898 59.7703 46.8198C59.6003 46.7498 59.4303 46.6598 59.2703 46.5698L55.8802 44.6098L52.4403 42.6198L50.8504 41.6998C50.4104 41.4498 50.0804 41.1798 49.8504 40.8898C49.5604 40.5398 49.4202 40.1698 49.4102 39.7598C49.4102 39.0198 49.8804 38.3698 50.8304 37.8298L52.4403 36.8998L64.2203 30.0898C65.1703 29.5498 66.2904 29.2698 67.5804 29.2798C68.8604 29.2798 69.9803 29.5498 70.9403 30.1098L79.3604 34.9698C80.3204 35.5198 80.8004 36.1698 80.8004 36.9098C80.8004 37.6498 80.3302 38.2998 79.3802 38.8498Z" stroke="white" stroke-linejoin="round"/><path d="M52.4402 25.2197V31.0597L44.9402 35.3897C44.2102 35.8097 43.3702 36.0197 42.4202 36.0197C41.4702 36.0197 40.6301 35.7997 39.9001 35.3797C39.1701 34.9597 38.8003 34.4797 38.8003 33.9297C38.8003 33.3797 39.1601 32.8897 39.8801 32.4697L52.4402 25.2197Z" stroke="white" stroke-linejoin="round"/><path d="M61.0906 25.24C61.0906 25.79 60.7305 26.27 60.0005 26.69L52.4404 31.06V25.22L51.2205 24.52L49.9104 23.77C49.1804 23.34 48.8205 22.86 48.8105 22.31C48.8105 21.76 49.1704 21.28 49.9004 20.86C50.6204 20.44 51.4604 20.23 52.4104 20.23C53.3604 20.23 54.2004 20.44 54.9304 20.87L57.5305 22.37L59.9905 23.78C60.7205 24.21 61.0906 24.69 61.0906 25.24Z" stroke="white" stroke-linejoin="round"/><path d="M74.3306 35.9297V41.7697L69.3105 44.6597V38.8297L74.3306 35.9297Z" stroke="white" stroke-linejoin="round"/><path d="M74.3301 35.9298L69.3101 38.8298L64.25 35.9098L69.28 33.0098L74.3301 35.9298Z" stroke="white" stroke-linejoin="round"/><path d="M69.3101 38.8297V44.6597L65.99 46.5797C65.99 46.5797 65.97 46.5897 65.96 46.5997V40.7597L64.25 39.7697V35.9097L69.3101 38.8297Z" stroke="white" stroke-linejoin="round"/><path d="M65.96 40.7598L64.25 41.7498L60.9399 43.6599L55.8799 40.7398L60.8999 37.8398L64.25 39.7698L65.96 40.7598Z" stroke="white" stroke-linejoin="round"/><path d="M65.9604 40.7598V46.5998C65.4404 46.8898 64.8705 47.1098 64.2505 47.2398C63.7505 47.3498 63.2104 47.3998 62.6404 47.3998C62.0404 47.3998 61.4704 47.3398 60.9404 47.2098V43.6598L64.2505 41.7498L65.9604 40.7598Z" stroke="white" stroke-linejoin="round"/><path d="M80.8003 36.91C80.8003 37.65 80.3301 38.3 79.3801 38.85L74.3303 41.77V35.93L69.2803 33.01L64.2502 35.91V39.77L60.9001 37.84L55.8801 40.74V44.61L52.4402 42.62L50.8503 41.7C50.4103 41.45 50.0803 41.18 49.8503 40.89C49.5603 40.54 49.4202 40.17 49.4102 39.76C49.4102 39.02 49.8803 38.37 50.8303 37.83L52.4402 36.9L64.2202 30.09C65.1702 29.55 66.2903 29.27 67.5803 29.28C68.8603 29.28 69.9802 29.55 70.9402 30.11L79.3604 34.97C80.3204 35.52 80.8003 36.17 80.8003 36.91Z" stroke="white" stroke-linejoin="round"/><path d="M115.72 35.0496V55.0296C115.73 56.5496 114.81 57.8496 112.97 58.9096L66.1003 85.9696C64.2503 87.0396 62.0201 87.5696 59.3901 87.5596C56.7601 87.5596 54.5102 87.0196 52.6602 85.9496L5.49023 58.7096C3.64023 57.6396 2.7102 56.3496 2.7002 54.8296V34.8296C2.7102 36.3496 3.64023 37.6396 5.49023 38.7096L16.0803 44.8196L52.6602 65.9496C54.5102 67.0196 56.7601 67.5596 59.3901 67.5596C60.3001 67.5596 61.1602 67.4996 61.9702 67.3696C63.5202 67.1396 64.8903 66.6696 66.1003 65.9696L80.6602 57.5596L102.35 45.0396L112.97 38.9096C114.8 37.8596 115.72 36.5596 115.72 35.0496Z" stroke="white" stroke-linejoin="round"/></svg>