<svg viewBox="0 0 113 74" xmlns="http://www.w3.org/2000/svg" height="48" width="48" stroke-width="1px"
     stroke-linecap="round" stroke-linejoin="round">
    <path d="M110.705 34.7439V34.7639C110.705 34.9139 110.685 35.0639 110.645 35.2039C110.495 35.8239 110.005 36.3739 109.175 36.8439C108.145 37.4339 106.935 37.7339 105.545 37.7339C104.145 37.7239 102.935 37.4339 101.895 36.8339L94.6053 32.6139L87.3453 36.8038C86.3253 37.3938 85.1153 37.6938 83.7153 37.6938C82.3153 37.6938 81.1053 37.3938 80.0753 36.7938C80.0553 36.7838 80.0453 36.7739 80.0253 36.7639C79.5553 36.4839 79.1953 36.1939 78.9553 35.8739C78.6653 35.5039 78.5253 35.1138 78.5153 34.6938C78.5153 33.9838 78.9053 33.3639 79.6853 32.8239C79.7253 32.7939 79.7653 32.7639 79.8153 32.7439C79.8853 32.6939 79.9553 32.6539 80.0253 32.6139C80.0353 32.6039 80.0453 32.6039 80.0553 32.5939L87.3053 28.4039L80.0053 24.1938C79.9353 24.1538 79.8753 24.1139 79.8153 24.0739C78.9153 23.5039 78.4553 22.8439 78.4453 22.0839C78.4453 21.3339 78.8953 20.6639 79.8153 20.1039C79.8753 20.0639 79.9253 20.0239 79.9853 19.9939C81.0153 19.3939 82.2253 19.1039 83.6153 19.1039C85.0053 19.1039 86.2253 19.4039 87.2553 20.0039L94.5553 24.2139L101.805 20.0339C102.835 19.4339 104.045 19.1439 105.445 19.1439C106.845 19.1439 108.045 19.4438 109.085 20.0438C110.115 20.6438 110.635 21.3439 110.645 22.1439C110.645 22.9539 110.135 23.6539 109.105 24.2439L101.855 28.4338L109.155 32.6439C109.995 33.1339 110.495 33.6838 110.645 34.3038C110.685 34.4438 110.705 34.5939 110.705 34.7439Z" class="pr-icon-iso-solid-stroke" stroke-linejoin="round"/>
    <path d="M79.8152 28.2739L78.4452 27.4838L76.3752 26.2839C74.3752 25.1239 73.3651 23.7238 73.3551 22.0838C73.3451 20.4338 74.3351 19.0339 76.3351 17.8839L76.7851 17.6238C78.7251 16.5038 79.7252 15.2239 79.8152 13.7739C79.8952 12.3139 78.7251 10.8838 76.2851 9.48383C68.5651 5.02383 59.0751 2.65385 47.8351 2.37385C36.5851 2.08385 26.4252 4.56377 17.3652 9.79377C14.6452 11.3638 12.3151 13.3239 10.3951 15.6639C8.46513 18.0039 6.90513 20.7038 5.70513 23.7438C4.50513 26.7838 3.70516 30.1838 3.30516 33.9238C3.02516 36.5038 2.92516 39.2238 2.99516 42.1038V42.1838C3.02516 43.4638 3.08517 44.7638 3.18517 46.1038C3.25517 46.8438 3.56515 47.5438 4.10515 48.2038C4.15515 48.2638 4.20517 48.3238 4.25517 48.3738C4.77517 48.9738 5.42513 49.4938 6.21513 49.9438C7.06513 50.4338 8.06514 50.8339 9.21514 51.1539C10.3751 51.4739 11.5851 51.6538 12.8551 51.6838C16.2551 51.8338 20.6851 51.9338 26.1351 51.9738C31.2451 52.0138 36.6152 51.8339 42.2452 51.4039C42.6352 51.3839 43.0251 51.3538 43.4151 51.3238C44.8051 51.2238 46.8552 50.9838 49.5452 50.6238C51.5052 50.3638 53.5752 50.0339 55.7452 49.6439C56.5552 49.5039 57.3851 49.3538 58.2251 49.1938C61.3151 48.6038 64.3151 47.9138 67.2151 47.1138C70.0951 46.3238 72.4151 45.4238 74.1551 44.4238C74.1751 44.4138 74.1851 44.4039 74.2051 44.3939C75.7751 43.4839 76.7252 42.5138 77.0552 41.4838C77.0952 41.3438 77.1251 41.2038 77.1351 41.0638V40.8138C77.0951 40.0538 76.5751 39.2238 75.5751 38.3638C75.4751 38.2638 75.3751 38.1838 75.2651 38.0938C74.6551 37.6038 74.1751 37.0738 73.8451 36.4938C73.5051 35.9138 73.3351 35.3138 73.3351 34.6838C73.3251 33.9138 73.5851 33.1638 74.0951 32.4538C74.6051 31.7338 75.3751 31.0738 76.4051 30.4838L77.1752 30.0339L78.4452 29.3038L79.8152 28.5139L80.0251 28.3939L79.8152 28.2739ZM54.5751 30.4438C52.5851 31.5938 50.1552 32.1739 47.3152 32.1639C44.4652 32.1639 42.0351 31.5738 40.0251 30.4238C38.0151 29.2638 37.0152 27.8638 37.0052 26.2138C36.9952 24.9038 37.6251 23.7539 38.8851 22.7639C39.2051 22.5039 39.5752 22.2639 39.9852 22.0239C41.9752 20.8639 44.3952 20.2938 47.2452 20.3038C50.0952 20.3038 52.5251 20.8838 54.5351 22.0438C55.0351 22.3338 55.4751 22.6438 55.8451 22.9638C56.9751 23.9238 57.5452 25.0139 57.5552 26.2539C57.5652 27.8939 56.5751 29.2938 54.5751 30.4438Z" class="pr-icon-iso-solid-stroke" stroke-linejoin="round"/>
    <path d="M57.555 26.2539C57.565 27.8939 56.5749 29.2939 54.5749 30.4439C52.5849 31.5939 50.155 32.1739 47.315 32.1639C44.465 32.1639 42.035 31.5738 40.025 30.4238C38.015 29.2638 37.015 27.8639 37.005 26.2139C36.995 24.9039 37.6249 23.7539 38.8849 22.7639C39.2049 22.5039 39.575 22.2639 39.985 22.0239C41.975 20.8639 44.395 20.2938 47.245 20.3038C50.095 20.3038 52.525 20.8838 54.535 22.0438C55.035 22.3338 55.475 22.6439 55.845 22.9639C56.975 23.9239 57.545 25.0139 57.555 26.2539Z" class="pr-icon-iso-solid-stroke" stroke-linejoin="round"/>
    <path d="M77.1348 40.8138V40.5839" class="pr-icon-iso-solid-stroke" stroke-linejoin="round"/>
    <path d="M94.6057 32.6139V52.6139L87.3456 56.8038C86.3256 57.3938 85.1156 57.6938 83.7156 57.6938C82.3156 57.6938 81.1056 57.3938 80.0756 56.7938C79.0356 56.1938 78.5256 55.4938 78.5156 54.6938V34.6938C78.5256 35.1138 78.6656 35.5039 78.9556 35.8739C79.1956 36.1939 79.5556 36.4839 80.0256 36.7639C80.0456 36.7739 80.0556 36.7838 80.0756 36.7938C81.1056 37.3938 82.3256 37.6938 83.7156 37.6938C85.1056 37.6938 86.3256 37.3938 87.3456 36.8038L94.6057 32.6139Z" class="pr-icon-iso-solid-stroke" stroke-linejoin="round"/>
    <path d="M110.705 34.7639V54.7439C110.715 55.5539 110.205 56.2539 109.175 56.8439C108.145 57.4339 106.935 57.7339 105.545 57.7339C104.145 57.7239 102.935 57.4339 101.895 56.8339L94.6055 52.6139V32.6139L101.895 36.8339C102.935 37.4339 104.145 37.7239 105.545 37.7339C106.935 37.7339 108.145 37.4339 109.175 36.8439C110.005 36.3739 110.495 35.8239 110.645 35.2039C110.685 35.0639 110.705 34.9139 110.705 34.7639Z" class="pr-icon-iso-solid-stroke" stroke-linejoin="round"/>
    <path d="M110.645 22.1439V34.3038C110.495 33.6838 109.995 33.1339 109.155 32.6439L101.855 28.4338L109.105 24.2439C110.135 23.6539 110.645 22.9539 110.645 22.1439Z" class="pr-icon-iso-solid-stroke" stroke-linejoin="round"/>
    <path d="M80.0252 28.3939V32.6139C79.9552 32.6539 79.8853 32.6939 79.8153 32.7439C79.7653 32.7639 79.7253 32.7939 79.6853 32.8239C78.9053 33.3639 78.5152 33.9838 78.5152 34.6938V49.2639L77.1352 50.0638V40.8138C77.0952 40.0538 76.5752 39.2239 75.5752 38.3639C75.4752 38.2639 75.3752 38.1839 75.2652 38.0939C74.6552 37.6039 74.1752 37.0739 73.8452 36.4939C73.5052 35.9139 73.3352 35.3138 73.3352 34.6838C73.3252 33.9138 73.5852 33.1639 74.0952 32.4539C74.6052 31.7339 75.3752 31.0739 76.4052 30.4839L77.1753 30.0339L78.4453 29.3038L79.8153 28.5139L80.0252 28.3939Z" class="pr-icon-iso-solid-stroke" stroke-linejoin="round"/>
    <path d="M87.3053 28.4039L80.0553 32.5939C80.0553 32.5939 80.0353 32.6039 80.0253 32.6139V28.3939L79.8153 28.2739L78.4453 27.4839V22.0839C78.4553 22.8439 78.9153 23.5039 79.8153 24.0739C79.8753 24.1139 79.9353 24.1538 80.0053 24.1938L87.3053 28.4039Z" class="pr-icon-iso-solid-stroke" stroke-linejoin="round"/>
    <path d="M77.1356 41.0638V60.8439C77.1556 61.0639 77.1256 61.2739 77.0556 61.4839C76.7256 62.5139 75.7756 63.4839 74.2056 64.3939C72.4556 65.4039 70.1256 66.3139 67.2156 67.1139C64.3156 67.9139 61.3156 68.6038 58.2256 69.1938C55.1356 69.7838 52.2456 70.2639 49.5456 70.6239C46.8556 70.9839 44.8056 71.2239 43.4156 71.3239C37.3556 71.8039 31.5956 72.0139 26.1356 71.9739C20.6856 71.9339 16.2556 71.8338 12.8556 71.6838C11.5856 71.6538 10.3756 71.4739 9.21558 71.1539C8.06558 70.8339 7.06558 70.4338 6.21558 69.9438C5.35558 69.4538 4.65559 68.8739 4.10559 68.2039C3.56559 67.5439 3.25561 66.8439 3.18561 66.1039C3.05561 64.2639 2.98559 62.4939 2.97559 60.7739V60.4539C2.97559 60.1539 2.9756 59.8639 2.9856 59.5739V42.1838C3.0256 43.4638 3.08561 44.7639 3.18561 46.1039C3.25561 46.8439 3.56559 47.5439 4.10559 48.2039C4.15559 48.2639 4.20562 48.3239 4.25562 48.3739C4.77562 48.9739 5.42558 49.4938 6.21558 49.9438C7.06558 50.4338 8.06558 50.8339 9.21558 51.1539C10.3756 51.4739 11.5856 51.6538 12.8556 51.6838C16.2556 51.8338 20.6856 51.9339 26.1356 51.9739C31.2456 52.0139 36.6156 51.8339 42.2456 51.4039C42.6356 51.3839 43.0256 51.3539 43.4156 51.3239C44.8056 51.2239 46.8556 50.9839 49.5456 50.6239C51.5056 50.3639 53.5756 50.0339 55.7456 49.6439C56.5556 49.5039 57.3856 49.3538 58.2256 49.1938C61.3156 48.6038 64.3156 47.9139 67.2156 47.1139C70.0956 46.3239 72.4156 45.4238 74.1556 44.4238C74.1756 44.4138 74.1856 44.4039 74.2056 44.3939C75.7756 43.4839 76.7256 42.5139 77.0556 41.4839C77.0956 41.3439 77.1256 41.2038 77.1356 41.0638Z" class="pr-icon-iso-solid-stroke" stroke-linejoin="round"/>
    <path d="M79.8156 13.7739V20.1039C78.8956 20.6639 78.4456 21.3339 78.4456 22.0839V27.4839L76.3756 26.2839C74.3756 25.1239 73.3655 23.7239 73.3555 22.0839C73.3455 20.4339 74.3355 19.0339 76.3355 17.8839L76.7855 17.6239C78.7255 16.5039 79.7256 15.2239 79.8156 13.7739Z" class="pr-icon-iso-solid-stroke" stroke-linejoin="round"/>
</svg>