<svg width="48" height="48" viewBox="0 0 108 95" fill="#229EFF" xmlns="http://www.w3.org/2000/svg" stroke-width="1px" stroke-linecap="round" stroke-linejoin="round"><path d="M54.291 56.3678C51.051 58.2378 49.431 60.4878 49.451 63.1178V73.5678L30.791 62.7878V42.7878L54.291 56.3678Z" stroke="white" stroke-linejoin="round"/><path d="M77.8011 69.9379V89.9379C74.5611 91.8079 70.6611 92.7479 66.1011 92.7379C61.5411 92.7279 57.6312 91.7779 54.3712 89.8979C51.1012 88.0079 49.4612 85.7479 49.4512 83.1179V63.1179C49.4512 65.7479 51.1012 68.0079 54.3712 69.8979C57.6312 71.7779 61.5411 72.7279 66.1011 72.7379C70.6611 72.7479 74.5611 71.8079 77.8011 69.9379Z" stroke="white" stroke-linejoin="round"/><path d="M42.3203 22.4778V22.6178C42.4103 22.6178 42.5003 22.6178 42.5803 22.6178L42.3203 22.4678V22.4778Z" stroke="white" stroke-linejoin="round"/><path d="M104.971 38.7578C104.971 37.9278 104.691 37.1278 104.131 36.3578C103.571 35.5878 102.771 34.8978 101.731 34.2978L50.1108 4.48779C47.9508 3.24779 45.3408 2.62779 42.2908 2.61779C39.2308 2.60779 36.6208 3.2278 34.4808 4.4678L7.23079 20.1978C5.09079 21.4378 4.02078 22.9378 4.03078 24.7078C4.04078 26.4678 5.12078 27.9778 7.28078 29.2178C5.90078 30.0178 4.82078 30.8778 4.03078 31.8078C2.96078 33.0778 2.4208 34.4678 2.4308 35.9778C2.4408 37.4678 2.97078 38.8378 4.03078 40.0878C4.43078 40.5678 4.91079 41.0378 5.48079 41.4878C6.02079 41.9178 6.65078 42.3478 7.35078 42.7478C10.6208 44.6378 14.5308 45.5778 19.0808 45.5878C23.6408 45.5978 27.5408 44.6678 30.7908 42.7878L54.2908 56.3678C51.0508 58.2378 49.4308 60.4878 49.4508 63.1178C49.4508 65.7478 51.1008 68.0078 54.3708 69.8978C57.6308 71.7778 61.5408 72.7278 66.1008 72.7378C70.6608 72.7478 74.5608 71.8078 77.8008 69.9378C79.9608 71.1778 82.5708 71.8078 85.6208 71.8078C87.8108 71.8078 89.7708 71.5078 91.4908 70.8678C92.1408 70.6378 92.7508 70.3578 93.3208 70.0278C93.3608 70.0078 93.3908 69.9878 93.4308 69.9678L101.901 65.0778C102.931 64.4778 103.731 63.7978 104.281 63.0278C104.621 62.5478 104.861 62.0478 104.991 61.5478C105.061 61.2478 105.091 60.9378 105.091 60.6278L104.971 38.7578ZM23.9308 38.8378C22.5708 39.6178 20.9408 40.0078 19.0508 40.0078C17.1608 40.0078 15.5408 39.6078 14.1608 38.8178C13.3208 38.3378 12.7408 37.7978 12.4208 37.1978C12.2008 36.8278 12.1008 36.4178 12.1008 35.9978C12.0908 34.9078 12.7708 33.9678 14.1308 33.1778C15.5008 32.3878 17.1208 31.9978 19.0108 32.0078C19.7508 32.0078 20.4408 32.0678 21.1008 32.1878C22.1308 32.3778 23.0608 32.7178 23.9008 33.1978C25.2708 33.9878 25.9608 34.9278 25.9608 36.0178C25.9708 37.1078 25.2908 38.0478 23.9308 38.8378ZM46.3108 24.7778L42.5808 22.6278C42.5008 22.6278 42.4108 22.6278 42.3208 22.6278V22.4878L30.6408 15.7378L42.3208 8.9978L57.9908 18.0478L48.2908 23.6478L46.3108 24.7878V24.7778ZM54.1508 29.3078L56.3008 28.0678L65.8308 22.5578L81.5008 31.6078L71.9708 37.1178L69.8208 38.3578L65.8308 36.0578L54.1508 29.3078ZM70.9508 65.9778C69.5808 66.7678 67.9608 67.1578 66.0708 67.1578C64.1808 67.1478 62.5508 66.7578 61.1808 65.9578C59.8108 65.1678 59.1208 64.2278 59.1208 63.1378C59.1108 62.0478 59.7908 61.1078 61.1508 60.3278C62.5108 59.5378 64.1408 59.1478 66.0308 59.1478C67.9208 59.1478 69.5408 59.5478 70.9208 60.3378C72.2908 61.1378 72.9808 62.0778 72.9808 63.1678C72.9908 64.2578 72.3108 65.1878 70.9508 65.9778ZM89.3408 49.6278L77.6608 42.8778L79.8108 41.6378L89.3408 36.1378L93.2608 38.3978L93.3208 49.4378V51.9278L89.3408 49.6278Z" stroke="white" stroke-linejoin="round"/><path d="M72.9812 63.1677C72.9912 64.2577 72.3112 65.1877 70.9512 65.9777C69.5812 66.7677 67.9612 67.1577 66.0712 67.1577C64.1812 67.1477 62.5512 66.7577 61.1812 65.9577C59.8112 65.1677 59.1212 64.2277 59.1212 63.1377C59.1112 62.0477 59.7912 61.1077 61.1512 60.3277C62.5112 59.5377 64.1412 59.1477 66.0312 59.1477C67.9212 59.1477 69.5412 59.5477 70.9212 60.3377C72.2912 61.1377 72.9812 62.0777 72.9812 63.1677Z" stroke="white" stroke-linejoin="round"/><path d="M105.091 60.6279V80.6279C105.101 81.4579 104.831 82.2579 104.281 83.0279C103.731 83.7979 102.931 84.4779 101.901 85.0779L93.4308 89.9679C91.2808 91.2079 88.6808 91.8179 85.6208 91.8079C82.5708 91.8079 79.9608 91.1779 77.8008 89.9379V69.9379C79.9608 71.1779 82.5708 71.8079 85.6208 71.8079C87.8108 71.8079 89.7708 71.5079 91.4908 70.8679C92.1408 70.6379 92.7508 70.3579 93.3208 70.0279C93.3608 70.0079 93.3908 69.9879 93.4308 69.9679L101.901 65.0779C102.931 64.4779 103.731 63.7979 104.281 63.0279C104.621 62.5479 104.861 62.0479 104.991 61.5479C105.061 61.2479 105.091 60.9379 105.091 60.6279Z" stroke="white" stroke-linejoin="round"/><path d="M81.5011 31.6079L71.9711 37.1179L69.8211 38.3579L65.8311 36.0579V22.5579L81.5011 31.6079Z" stroke="white" stroke-linejoin="round"/><path d="M65.8304 22.5579V36.0579L54.1504 29.3079L56.3004 28.0679L65.8304 22.5579Z" stroke="white" stroke-linejoin="round"/><path d="M42.3206 8.98779V22.4778L30.6406 15.7278L42.3206 8.98779Z" stroke="white" stroke-linejoin="round"/><path d="M57.9903 18.0378L48.2903 23.6378L46.3103 24.7778L42.5803 22.6278L42.3203 22.4778V8.98779L57.9903 18.0378Z" stroke="white" stroke-linejoin="round"/><path d="M25.9607 36.0177C25.9707 37.1077 25.2907 38.0477 23.9307 38.8377C22.5707 39.6177 20.9407 40.0078 19.0507 40.0078C17.1607 40.0078 15.5407 39.6078 14.1607 38.8178C13.3207 38.3378 12.7407 37.7978 12.4207 37.1978C12.2007 36.8278 12.1007 36.4177 12.1007 35.9977C12.0907 34.9077 12.7707 33.9677 14.1307 33.1777C15.5007 32.3877 17.1207 31.9978 19.0107 32.0078C19.7507 32.0078 20.4407 32.0677 21.1007 32.1877C22.1307 32.3777 23.0607 32.7178 23.9007 33.1978C25.2707 33.9878 25.9607 34.9277 25.9607 36.0177Z" stroke="white" stroke-linejoin="round"/><path d="M30.7906 42.7878V62.7878C27.5406 64.6678 23.6406 65.5978 19.0806 65.5878C14.5306 65.5778 10.6206 64.6378 7.35065 62.7478C4.09065 60.8678 2.45066 58.6078 2.43066 55.9778V35.9778C2.44066 37.4678 2.97064 38.8378 4.03064 40.0878C4.43064 40.5678 4.91065 41.0378 5.48065 41.4878C6.02065 41.9178 6.65065 42.3478 7.35065 42.7478C10.6206 44.6378 14.5306 45.5778 19.0806 45.5878C23.6406 45.5978 27.5406 44.6678 30.7906 42.7878Z" stroke="white" stroke-linejoin="round"/><path d="M7.28125 29.2178C5.90125 30.0178 4.82125 30.8778 4.03125 31.8078V24.7078C4.04125 26.4678 5.12125 27.9778 7.28125 29.2178Z" stroke="white" stroke-linejoin="round"/><path d="M89.3411 36.1377V49.6277L77.6611 42.8777L79.8112 41.6377L89.3411 36.1377Z" stroke="white" stroke-linejoin="round"/><path d="M93.3308 51.9277L89.3408 49.6277V36.1377L93.2609 38.3977L93.3209 49.4377L93.3308 51.9277Z" stroke="white" stroke-linejoin="round"/></svg>