<svg width="48" height="48" viewBox="0 0 106 83" fill="#229EFF" xmlns="http://www.w3.org/2000/svg" stroke-width="1px" stroke-linecap="round" stroke-linejoin="round"><path d="M99.39 20.6202C96.91 17.0202 93.1899 13.8002 88.2399 10.9402C83.2899 8.08018 77.6999 5.94018 71.4799 4.50018C65.2599 3.07018 58.94 2.34018 52.52 2.33018C46.1 2.32018 39.79 3.02018 33.58 4.43018C27.38 5.85018 21.82 7.97018 16.9 10.8102C11.98 13.6502 8.28991 16.8602 5.84991 20.4502C3.39991 24.0302 2.17995 27.6702 2.19995 31.3802C2.21995 34.7402 3.24991 38.0502 5.28991 41.3102C5.49991 41.6502 5.72996 41.9902 5.95996 42.3302C8.44996 45.9202 12.1699 49.1402 17.1199 52.0002C22.0699 54.8602 27.6599 57.0102 33.8799 58.4402C40.0999 59.8802 46.42 60.6002 52.84 60.6102C59.26 60.6302 65.57 59.9202 71.78 58.5102C77.98 57.1002 83.54 54.9702 88.46 52.1302C93.38 49.2902 97.0699 46.0802 99.5099 42.5002C99.6999 42.2202 99.8899 41.9402 100.06 41.6502C102.12 38.3702 103.15 35.0402 103.15 31.6502V31.5602C103.13 27.8602 101.88 24.2102 99.39 20.6202ZM66.9299 27.3802L55.5499 33.9502H61.9699C63.2799 33.9602 64.4399 34.2602 65.4499 34.8402C66.4599 35.4302 66.9699 36.1002 66.9799 36.8502C66.9799 37.6102 66.4799 38.2802 65.4699 38.8602C64.4599 39.4402 63.3099 39.7302 61.9999 39.7302H55.5499L48.3899 39.7002H43.4499C42.0199 39.6902 40.8299 39.4102 39.8799 38.8602C38.9199 38.3102 38.4399 37.6202 38.4399 36.8002L38.3799 26.0902C38.3799 25.3402 38.8799 24.6702 39.8899 24.0902C40.8899 23.5002 42.0499 23.2102 43.3599 23.2202C44.6699 23.2202 45.83 23.5102 46.84 24.1002C47.86 24.6802 48.3699 25.3502 48.3699 26.1102L48.3899 29.8202L59.77 23.2502C60.12 23.0502 60.4799 22.8802 60.8699 22.7602C61.6099 22.5002 62.43 22.3802 63.33 22.3802C64.7 22.3802 65.89 22.6702 66.9 23.2602C67.14 23.4002 67.3599 23.5402 67.5399 23.7002C68.1299 24.1702 68.4299 24.7202 68.4299 25.3202C68.4399 26.1102 67.9299 26.8002 66.9299 27.3802Z" stroke="white" stroke-linejoin="round"/><path d="M48.3899 29.8202V39.7002H43.4499C42.0199 39.6902 40.8299 39.4102 39.8799 38.8602C38.9199 38.3102 38.4399 37.6202 38.4399 36.8002L38.3799 26.0902C38.3799 25.3402 38.8799 24.6702 39.8899 24.0902C40.8899 23.5002 42.0499 23.2102 43.3599 23.2202C44.6699 23.2202 45.8299 23.5102 46.8399 24.1002C47.8599 24.6802 48.3699 25.3502 48.3699 26.1102L48.3899 29.8202Z" stroke="white" stroke-linejoin="round"/><path d="M66.9798 36.8502C66.9798 37.6102 66.4798 38.2802 65.4698 38.8602C64.4598 39.4402 63.3098 39.7302 61.9998 39.7302H55.5498V33.9502H61.9698C63.2798 33.9602 64.4398 34.2602 65.4498 34.8402C66.4598 35.4302 66.9698 36.1002 66.9798 36.8502Z" stroke="white" stroke-linejoin="round"/><path d="M68.4301 25.3201C68.4401 26.1101 67.9301 26.8001 66.9301 27.3801L55.5501 33.9501V39.7201L48.3901 39.7001V29.8201L59.7701 23.2501C60.1201 23.0501 60.4801 22.8801 60.8701 22.7601C61.6101 22.5001 62.4301 22.3801 63.3301 22.3801C64.7001 22.3801 65.8901 22.6701 66.9001 23.2601C67.1401 23.4001 67.3601 23.5401 67.5401 23.7001C68.1301 24.1701 68.4301 24.7201 68.4301 25.3201Z" stroke="white" stroke-linejoin="round"/><path d="M103.15 31.6501V51.5601C103.17 55.2701 101.96 58.9101 99.5102 62.5001C97.0702 66.0801 93.3802 69.2901 88.4602 72.1301C83.5402 74.9701 77.9802 77.1001 71.7802 78.5101C65.5702 79.9201 59.2602 80.6301 52.8402 80.6101C46.4202 80.6001 40.1002 79.8801 33.8802 78.4401C27.6602 77.0101 22.0702 74.8601 17.1202 72.0001C12.1702 69.1401 8.45021 65.9201 5.96021 62.3301C3.48021 58.7401 2.2202 55.0901 2.2002 51.3801V31.3801C2.2202 34.7401 3.25016 38.0501 5.29016 41.3101C5.50016 41.6501 5.73021 41.9901 5.96021 42.3301C8.45021 45.9201 12.1702 49.1401 17.1202 52.0001C22.0702 54.8601 27.6602 57.0101 33.8802 58.4401C40.1002 59.8801 46.4202 60.6001 52.8402 60.6101C59.2602 60.6301 65.5702 59.9201 71.7802 58.5101C77.9802 57.1001 83.5402 54.9701 88.4602 52.1301C93.3802 49.2901 97.0702 46.0801 99.5102 42.5001C99.7002 42.2201 99.8902 41.9401 100.06 41.6501C102.12 38.3701 103.15 35.0401 103.15 31.6501Z" stroke="white" stroke-linejoin="round"/></svg>