<svg width="48" height="48" viewBox="0 0 129 93" xmlns="http://www.w3.org/2000/svg" stroke-width="1px"
     stroke-linecap="round" stroke-linejoin="round">
    <path d="M101.43 32.4901L87.2999 32.4601L66.7 32.4301L62.15 29.8001C60.68 28.9601 59.9399 27.9601 59.9399 26.8201V6.82007C59.9399 7.96007 60.68 8.96007 62.15 9.80007L101.43 32.4901Z" class="pr-icon-iso-solid-stroke" stroke-linejoin="round"/>
    <path d="M126.32 36.7V36.72C126.32 37.85 125.59 38.84 124.15 39.67L111.96 46.71L87.5598 60.79L72.7698 69.33C71.3198 70.17 69.5998 70.58 67.6298 70.58C65.6598 70.58 63.9298 70.15 62.4698 69.31C60.9998 68.46 60.2698 67.47 60.2598 66.33C60.2598 65.19 60.9798 64.2 62.4398 63.36L66.9498 60.76L81.3298 52.45L91.3498 46.67L101.48 40.82L81.1598 40.78L9.74976 40.65C7.85976 40.65 6.17979 40.22 4.71979 39.38C3.24979 38.53 2.51977 37.56 2.50977 36.47C2.50977 35.38 3.22976 34.41 4.68976 33.57C6.13976 32.73 7.80977 32.32 9.69977 32.32L66.6998 32.43L87.2997 32.46L101.43 32.49L62.1498 9.80003C60.6798 8.96003 59.9398 7.96003 59.9398 6.82003C59.9298 5.68003 60.6597 4.69003 62.1097 3.85003C63.5697 3.01003 65.2798 2.59003 67.2598 2.60003C69.2298 2.60003 70.9497 3.02003 72.4197 3.87003L124.11 33.72C125.58 34.56 126.31 35.55 126.32 36.7Z" class="pr-icon-iso-solid-stroke" stroke-linejoin="round"/>
    <path d="M126.32 36.72V56.7C126.33 57.84 125.6 58.83 124.15 59.67L72.7698 89.33C71.3198 90.17 69.5998 90.58 67.6298 90.58C65.6598 90.58 63.9298 90.15 62.4698 89.31C60.9998 88.46 60.2698 87.47 60.2598 86.33V66.33C60.2698 67.47 60.9998 68.46 62.4698 69.31C63.9298 70.15 65.6498 70.58 67.6298 70.58C69.6098 70.58 71.3198 70.17 72.7698 69.33L87.5598 60.79L111.96 46.71L124.15 39.67C125.59 38.84 126.32 37.85 126.32 36.72Z" class="pr-icon-iso-solid-stroke" stroke-linejoin="round"/>
    <path d="M101.48 40.82L91.3498 46.67L81.3298 52.45L66.9498 60.76L9.74976 60.65C7.85976 60.65 6.17979 60.22 4.71979 59.38C3.24979 58.53 2.51977 57.56 2.50977 56.47V36.47C2.51977 37.56 3.24979 38.53 4.71979 39.38C6.17979 40.22 7.85976 40.65 9.74976 40.65L81.1598 40.78L101.48 40.82Z" class="pr-icon-iso-solid-stroke" stroke-linejoin="round"/>
</svg>