<svg viewBox="0 0 111 86" fill="#229EFF" xmlns="http://www.w3.org/2000/svg" height="48" width="48" stroke-width="1px" stroke-linecap="round" stroke-linejoin="round"><path d="M95.3098 13.3554C95.3198 14.1754 94.7897 14.8954 93.7397 15.5054L68.1597 30.2754L49.1296 41.2654L46.8896 39.9754L41.6497 36.9454L86.2598 11.1854C87.3098 10.5754 88.5497 10.2754 89.9797 10.2754C91.4097 10.2754 92.6597 10.5854 93.7197 11.1954C94.7797 11.8154 95.3098 12.5254 95.3098 13.3554Z" stroke="white" stroke-linejoin="round"/><path d="M2.74973 26.5856V25.9756C2.70973 26.1856 2.70973 26.3856 2.74973 26.5856Z" stroke="white" stroke-linejoin="round"/><path d="M105.64 9.49525L96.5698 4.25524C94.6398 3.14524 92.3297 2.54524 89.6597 2.47524C86.9897 2.39524 84.5997 2.82525 82.4897 3.74525L28.3599 28.4152L11.1797 22.8952C10.0497 22.5352 8.89973 22.4552 7.71973 22.6652C6.53973 22.8852 5.48981 23.2552 4.55981 23.7952C3.50981 24.4052 2.90976 25.1252 2.74976 25.9752V26.5852C2.86976 27.1752 3.31987 27.7053 4.11987 28.1553L34.4297 45.6553L47.8198 53.3852L55.2998 57.7053L64.1597 62.8152C65.2197 63.4352 66.5098 63.7152 68.0398 63.6652C69.5598 63.6052 70.8797 63.2653 71.9897 62.6153C72.9197 62.0853 73.5198 61.4653 73.7998 60.7653C73.8898 60.5353 73.9397 60.3052 73.9397 60.0752V60.0553C73.9297 59.6053 73.7399 59.1452 73.3699 58.6952L66.2498 51.3753L63.8098 48.8753L89.1797 30.3152L97.0698 24.5452L106.52 17.6253C107.95 16.5453 108.69 15.3352 108.74 13.9952V13.4853C108.61 11.9453 107.57 10.6152 105.64 9.49525ZM93.7397 15.5052L68.1597 30.2752L49.1296 41.2653L46.8896 39.9752L41.6497 36.9452L86.2598 11.1852C87.3098 10.5752 88.5497 10.2752 89.9797 10.2752C91.4097 10.2752 92.6597 10.5852 93.7197 11.1952C94.7797 11.8152 95.3098 12.5252 95.3098 13.3552C95.3198 14.1752 94.7897 14.8952 93.7397 15.5052Z" stroke="white" stroke-linejoin="round"/><path d="M106.52 37.6251L73.9397 61.4651V60.0551C73.9297 59.6051 73.7399 59.1451 73.3699 58.6951L66.2498 51.3751L63.8098 48.8751L89.1797 30.3151L97.0698 24.5451L106.52 17.6251C107.95 16.5451 108.69 15.3351 108.74 13.9951V33.4851C108.87 35.0251 108.13 36.4051 106.52 37.6251Z" stroke="white" stroke-linejoin="round"/><path d="M73.9398 60.075V80.075C73.9398 80.305 73.8899 80.535 73.7999 80.765C73.5199 81.465 72.9198 82.085 71.9898 82.615C70.8798 83.265 69.5599 83.605 68.0399 83.665C66.5099 83.715 65.2198 83.435 64.1598 82.815L4.11996 48.155C3.05996 47.545 2.59985 46.815 2.74985 45.975V26.585C2.86985 27.175 3.31996 27.705 4.11996 28.155L34.4298 45.655L47.8199 53.385L55.2999 57.705L64.1598 62.815C65.2198 63.435 66.5099 63.715 68.0399 63.665C69.5599 63.605 70.8798 63.265 71.9898 62.615C72.9198 62.085 73.5199 61.465 73.7999 60.765C73.8899 60.535 73.9398 60.305 73.9398 60.075Z" stroke="white" stroke-linejoin="round"/><path d="M73.9397 80.1252V80.0752" stroke="white" stroke-linejoin="round"/></svg>