<svg width="48" height="48" viewBox="0 0 122 93" xmlns="http://www.w3.org/2000/svg" stroke-width="1px"
     stroke-linecap="round" stroke-linejoin="round">
    <path d="M94.6051 34.26C93.4351 33.58 92.0951 33.24 90.5851 33.24L66.7351 33.2V53.2H66.8451L66.7651 39.84L90.6251 39.89C92.1251 39.89 93.4651 39.56 94.6251 38.89C95.7851 38.21 96.3651 37.44 96.3651 36.57C96.3551 35.7 95.7751 34.93 94.6051 34.26Z" class="pr-icon-iso-solid-stroke" stroke-linejoin="round"/>
    <path d="M119.185 36.74V56.93C119.145 61.1 117.745 65.19 114.985 69.22C112.165 73.35 107.925 77.05 102.245 80.33C96.5752 83.6 90.1651 86.06 83.0051 87.69C75.8551 89.31 68.5752 90.12 61.1752 90.11C53.7752 90.1 46.4851 89.26 39.3151 87.61C32.1351 85.95 25.6952 83.48 19.9952 80.18C14.2852 76.89 9.99513 73.17 7.13513 69.03C4.26513 64.89 2.81517 60.68 2.79517 56.4V36.4C2.81517 39.75 3.70515 43.05 5.46515 46.31C5.94515 47.22 6.50513 48.13 7.13513 49.03C9.99513 53.17 14.2852 56.89 19.9952 60.18C25.6952 63.48 32.1351 65.95 39.3151 67.61C44.5851 68.82 49.9152 69.6 55.3052 69.93C57.2552 70.05 59.2152 70.11 61.1752 70.11C63.1352 70.11 64.9451 70.06 66.8251 69.96C72.2851 69.65 77.6751 68.9 83.0051 67.69C90.1651 66.06 96.5752 63.6 102.245 60.33C107.925 57.05 112.165 53.35 114.985 49.22C115.555 48.39 116.065 47.55 116.525 46.71C118.295 43.44 119.185 40.12 119.185 36.74Z" class="pr-icon-iso-solid-stroke" stroke-linejoin="round"/>
    <path d="M114.855 23.99C111.985 19.85 107.695 16.13 101.995 12.84C96.2851 9.54 89.8451 7.07 82.6751 5.41C75.4951 3.76 68.2151 2.92 60.8051 2.91C53.4051 2.9 46.1251 3.7 38.9751 5.33C31.8151 6.96 25.4051 9.42001 19.7351 12.69C14.0651 15.96 9.81515 19.67 6.99515 23.8C4.17515 27.93 2.77513 32.13 2.79513 36.4C2.81513 39.75 3.70512 43.05 5.46512 46.31C5.94512 47.22 6.5051 48.13 7.1351 49.03C9.9951 53.17 14.2851 56.89 19.9951 60.18C25.6951 63.48 32.1351 65.95 39.3151 67.61C44.5851 68.82 49.9151 69.6 55.3051 69.93C57.2551 70.05 59.2151 70.11 61.1751 70.11C63.1351 70.11 64.9451 70.06 66.8251 69.96C72.2851 69.65 77.6751 68.9 83.0051 67.69C90.1651 66.06 96.5751 63.6 102.245 60.33C107.925 57.05 112.165 53.35 114.985 49.22C115.555 48.39 116.065 47.55 116.525 46.71C118.295 43.44 119.185 40.12 119.185 36.74V36.61C119.165 32.34 117.715 28.13 114.855 23.99ZM94.6251 38.89C93.4651 39.56 92.1251 39.89 90.6251 39.89L66.7651 39.84L66.8451 53.2V53.62C66.8451 54.49 66.2651 55.26 65.1051 55.93C63.9451 56.6 62.6151 56.93 61.1051 56.93C59.5951 56.93 58.2551 56.59 57.0851 55.91C55.9151 55.24 55.3351 54.47 55.3251 53.6L55.2551 39.82H55.1451L31.3951 39.78C29.8851 39.78 28.5551 39.44 27.3851 38.76C26.2151 38.09 25.6251 37.32 25.6251 36.45C25.6151 35.57 26.1951 34.8 27.3551 34.13C28.5151 33.46 29.8551 33.13 31.3651 33.13L55.2151 33.17L55.1651 23.06L55.1451 19.4C55.1351 18.53 55.7151 17.76 56.8751 17.09C58.0351 16.42 59.3751 16.09 60.8851 16.09C62.3951 16.09 63.7251 16.43 64.8951 17.1C66.0651 17.78 66.6551 18.55 66.6551 19.42L66.6751 23.09L66.7351 33.2L90.5851 33.24C92.0951 33.24 93.4351 33.58 94.6051 34.26C95.7751 34.93 96.3551 35.7 96.3651 36.57C96.3651 37.44 95.7851 38.21 94.6251 38.89Z" class="pr-icon-iso-solid-stroke" stroke-linejoin="round"/>
    <path d="M66.7352 33.2V53.2L66.6552 39.42C66.6552 38.55 66.0651 37.78 64.8951 37.1C63.7251 36.43 62.3851 36.09 60.8851 36.09C59.3851 36.09 58.0351 36.42 56.8751 37.09C55.9351 37.63 55.3752 38.24 55.2152 38.91V33.17L55.1652 23.06L55.1451 19.4C55.1351 18.53 55.7151 17.76 56.8751 17.09C58.0351 16.42 59.3751 16.09 60.8851 16.09C62.3951 16.09 63.7251 16.43 64.8951 17.1C66.0651 17.78 66.6552 18.55 66.6552 19.42L66.6752 23.09L66.7352 33.2Z" class="pr-icon-iso-solid-stroke" stroke-linejoin="round"/>
    <path d="M55.2152 33.17V39.82H55.1451L31.3951 39.78C29.8851 39.78 28.5551 39.44 27.3851 38.76C26.2151 38.09 25.6251 37.32 25.6251 36.45C25.6151 35.57 26.1952 34.8 27.3552 34.13C28.5152 33.46 29.8552 33.13 31.3652 33.13L55.2152 33.17Z" class="pr-icon-iso-solid-stroke" stroke-linejoin="round"/>
</svg>