<svg width="48" height="48" viewBox="0 0 121 92" xmlns="http://www.w3.org/2000/svg" stroke-width="1px"
     stroke-linecap="round" stroke-linejoin="round">
    <path d="M114.64 23.4599C111.76 19.3099 107.45 15.5599 101.71 12.2499C95.9699 8.93987 89.5 6.44987 82.29 4.78987C75.07 3.11987 67.76 2.28987 60.31 2.26987C52.87 2.25987 45.56 3.06987 38.36 4.70987C31.17 6.34987 24.7199 8.80987 19.0299 12.0999C13.3199 15.3999 9.04994 19.1099 6.20994 23.2699C3.37994 27.4199 1.96998 31.6399 1.99998 35.9399C2.00998 39.1399 2.81996 42.2999 4.41996 45.4199C4.48996 45.5599 4.55993 45.6999 4.63993 45.8399C5.13993 46.7799 5.70996 47.7099 6.34996 48.6299C9.23996 52.7899 13.5499 56.5199 19.2799 59.8399C25.0199 63.1499 31.4899 65.6399 38.6999 67.3099C45.9099 68.9699 53.24 69.8099 60.68 69.8199C68.12 69.8399 75.4399 69.0199 82.6299 67.3899C89.8199 65.7499 96.2699 63.2899 101.97 59.9899C107.67 56.6999 111.94 52.9799 114.77 48.8199C115.35 47.9699 115.88 47.1099 116.34 46.2499C116.42 46.1099 116.5 45.9599 116.57 45.8199C118.19 42.6699 119 39.4799 119 36.2399V36.1499C118.97 31.8499 117.52 27.6299 114.64 23.4599ZM92.2599 42.7199C91.0999 43.3999 89.75 43.7399 88.23 43.7399L47.2699 43.6599H41.5099C40.8899 43.6499 40.3099 43.5999 39.7699 43.5099H39.7599C39.2199 43.4099 38.72 43.2799 38.25 43.0999C37.94 42.9799 37.6499 42.8499 37.3799 42.6799C36.2699 42.0499 35.7199 41.2499 35.7099 40.2999L35.6299 26.6899C35.6299 26.1599 35.8399 25.6699 36.2799 25.2199C36.5499 24.9199 36.9299 24.6399 37.3899 24.3699C37.7699 24.1499 38.1699 23.9599 38.5899 23.8199C39.1899 23.6099 39.8299 23.4599 40.5099 23.3999C40.7999 23.3699 41.1 23.3599 41.41 23.3599C42.21 23.3599 42.97 23.4599 43.67 23.6499C44.3 23.8199 44.8899 24.0599 45.4399 24.3799C46.6199 25.0599 47.2099 25.8399 47.2099 26.7099L47.2699 36.9799L88.1899 37.0499C89.7199 37.0499 91.06 37.3999 92.24 38.0699C93.41 38.7499 93.9999 39.5199 94.0099 40.4099C94.0099 41.2799 93.4199 42.0499 92.2599 42.7199Z" class="pr-icon-iso-solid-stroke" stroke-linejoin="round"/>
    <path d="M94.01 40.4099C94.01 41.2799 93.42 42.0499 92.26 42.7199C91.1 43.3999 89.75 43.7399 88.23 43.7399L47.27 43.6599V36.9799L88.19 37.0499C89.72 37.0499 91.0601 37.3999 92.2401 38.0699C93.4101 38.7499 94 39.5199 94.01 40.4099Z" class="pr-icon-iso-solid-stroke" stroke-linejoin="round"/>
    <path d="M47.2699 36.9799V43.6599H43.6899C42.9799 43.4599 42.2199 43.3699 41.4099 43.3599C41.0999 43.3599 40.7999 43.3599 40.5099 43.3999C40.2599 43.4199 40.0099 43.4599 39.7699 43.5099H39.7599C39.2199 43.4099 38.7199 43.2799 38.2499 43.0999C37.9399 42.9799 37.6499 42.8499 37.3799 42.6799C36.2699 42.0499 35.7199 41.2499 35.7099 40.2999L35.6299 26.6899C35.6299 26.1599 35.8399 25.6699 36.2799 25.2199C36.5499 24.9199 36.9299 24.6399 37.3899 24.3699C37.7699 24.1499 38.1699 23.9599 38.5899 23.8199C39.1899 23.6099 39.8299 23.4599 40.5099 23.3999C40.7999 23.3699 41.0999 23.3599 41.4099 23.3599C42.2099 23.3599 42.9699 23.4599 43.6699 23.6499C44.2999 23.8199 44.8899 24.0599 45.4399 24.3799C46.6199 25.0599 47.2099 25.8399 47.2099 26.7099L47.2699 36.9799Z" class="pr-icon-iso-solid-stroke" stroke-linejoin="round"/>
    <path d="M119 36.2399V56.2399C119 59.4799 118.19 62.6699 116.57 65.8199C116.06 66.8199 115.45 67.8299 114.77 68.8199C111.94 72.9799 107.67 76.6999 101.97 79.9899C96.27 83.2899 89.8199 85.7499 82.6299 87.3899C75.4399 89.0199 68.12 89.8399 60.68 89.8199C53.24 89.8099 45.91 88.9699 38.7 87.3099C31.49 85.6399 25.02 83.1499 19.28 79.8399C13.55 76.5199 9.23998 72.7899 6.34998 68.6299C5.61998 67.5699 4.96998 66.4999 4.41998 65.4199C2.81998 62.2999 2.01 59.1399 2 55.9399V35.9399C2.01 39.1399 2.81998 42.2999 4.41998 45.4199C4.48998 45.5599 4.55995 45.6999 4.63995 45.8399C5.13995 46.7799 5.70998 47.7099 6.34998 48.6299C9.23998 52.7899 13.55 56.5199 19.28 59.8399C25.02 63.1499 31.49 65.6399 38.7 67.3099C45.91 68.9699 53.24 69.8099 60.68 69.8199C68.12 69.8399 75.4399 69.0199 82.6299 67.3899C89.8199 65.7499 96.27 63.2899 101.97 59.9899C107.67 56.6999 111.94 52.9799 114.77 48.8199C115.35 47.9699 115.88 47.1099 116.34 46.2499C116.42 46.1099 116.5 45.9599 116.57 45.8199C118.19 42.6699 119 39.4799 119 36.2399Z" class="pr-icon-iso-solid-stroke" stroke-linejoin="round"/>
</svg>