<svg width="48" height="48" viewBox="0 0 102 81" xmlns="http://www.w3.org/2000/svg" stroke-width="1px"
     stroke-linecap="round" stroke-linejoin="round">
    <path d="M59.7695 30.1093C59.7795 30.8493 60.2495 31.5093 61.2195 32.0793V28.1293C60.2495 28.6893 59.7695 29.3493 59.7695 30.1093Z" class="pr-icon-iso-solid-stroke" stroke-linejoin="round"/>
    <path d="M95.7898 19.6693C93.3998 16.2193 89.8297 13.1293 85.0797 10.3893C80.3297 7.63925 74.9698 5.57925 68.9998 4.20925C63.0298 2.82925 56.9698 2.12925 50.7998 2.11925C44.6398 2.10925 38.5798 2.77925 32.6298 4.13925C26.6698 5.49925 21.3398 7.53925 16.6198 10.2593C11.8898 12.9893 8.35978 16.0693 6.00978 19.5093C3.65978 22.9493 2.49979 26.4393 2.51979 29.9993C2.52979 33.3593 3.60976 36.6693 5.73976 39.9293C5.85976 40.1293 5.98976 40.3193 6.11976 40.5093C8.50976 43.9593 12.0797 47.0493 16.8297 49.7893C21.5797 52.5393 26.9398 54.5993 32.9098 55.9693C33.4098 56.0793 33.8998 56.1893 34.3998 56.2993C39.8898 57.4593 45.4598 58.0492 51.1098 58.0592C52.6998 58.0592 54.2898 58.0193 55.8698 57.9293C60.3998 57.6793 64.8698 57.0493 69.2798 56.0393C75.2398 54.6793 80.5798 52.6393 85.2998 49.9193C90.0198 47.1893 93.5498 44.1093 95.8998 40.6693C95.9998 40.5293 96.0898 40.3893 96.1698 40.2493C98.3198 36.9793 99.3998 33.6593 99.3998 30.2693V30.1793C99.3798 26.6193 98.1698 23.1193 95.7898 19.6693ZM71.4998 30.1293L68.0797 32.0993C67.1197 32.6593 65.9798 32.9293 64.6598 32.9293C63.3398 32.9293 62.2098 32.6492 61.2398 32.0892C61.2298 32.0892 61.2297 32.0793 61.2197 32.0793C60.2497 31.5093 59.7798 30.8493 59.7698 30.1093C59.7698 29.3493 60.2497 28.6893 61.2197 28.1293L54.3497 24.1693L40.6997 32.0493L47.5598 36.0093C48.5298 35.4593 49.6697 35.1793 50.9797 35.1793C52.2897 35.1793 53.4398 35.4593 54.4098 36.0293C55.1798 36.4693 55.6398 36.9793 55.7998 37.5393C55.8598 37.6893 55.8798 37.8393 55.8798 37.9993C55.8798 38.7593 55.3998 39.4193 54.4298 39.9793L51.0198 41.9492C50.0498 42.5092 48.9097 42.7893 47.5997 42.7793H47.5598C46.3298 42.7693 45.2497 42.5192 44.3197 42.0192C44.2697 41.9892 44.2198 41.9693 44.1698 41.9393L40.6997 39.9393L30.4397 34.0093C29.4597 33.4393 28.9797 32.7793 28.9697 32.0293C28.9697 31.2693 29.4498 30.6093 30.4198 30.0493L43.6398 22.4193L50.8898 18.2293C51.8598 17.6693 52.9998 17.3893 54.3098 17.3993C55.6198 17.3993 56.7698 17.6793 57.7398 18.2393L67.5098 23.8793L71.4697 26.1693C72.4497 26.7393 72.9397 27.3993 72.9397 28.1493C72.9397 28.8993 72.4598 29.5693 71.4998 30.1293Z" class="pr-icon-iso-solid-stroke" stroke-linejoin="round"/>
    <path d="M55.8795 37.9992C55.8795 38.7592 55.3996 39.4192 54.4296 39.9792L51.0195 41.9492C50.0495 42.5092 48.9095 42.7892 47.5995 42.7792H47.5596V36.0092C48.5296 35.4592 49.6695 35.1792 50.9795 35.1792C52.2895 35.1792 53.4395 35.4592 54.4095 36.0292C55.1795 36.4692 55.6396 36.9792 55.7996 37.5392C55.8596 37.6892 55.8795 37.8392 55.8795 37.9992Z" class="pr-icon-iso-solid-stroke" stroke-linejoin="round"/>
    <path d="M47.5593 36.0093V42.7793C46.3293 42.7693 45.2492 42.5193 44.3192 42.0193C44.2692 41.9893 44.2193 41.9693 44.1693 41.9393L40.6992 39.9393V32.0493L47.5593 36.0093Z" class="pr-icon-iso-solid-stroke" stroke-linejoin="round"/>
    <path d="M72.9397 28.1493C72.9397 28.9093 72.4598 29.5693 71.4998 30.1293L68.0797 32.0993C67.1197 32.6593 65.9798 32.9293 64.6598 32.9293C63.3398 32.9293 62.2097 32.6493 61.2397 32.0893C61.2297 32.0893 61.2297 32.0793 61.2197 32.0793V28.1293L54.3497 24.1693L40.6997 32.0493V39.9393L30.4397 34.0093C29.4597 33.4393 28.9797 32.7793 28.9697 32.0293C28.9697 31.2693 29.4498 30.6093 30.4198 30.0493L43.6398 22.4193L50.8898 18.2293C51.8598 17.6693 52.9998 17.3893 54.3098 17.3993C55.6198 17.3993 56.7697 17.6793 57.7397 18.2393L67.5098 23.8793L71.4697 26.1693C72.4497 26.7393 72.9397 27.3993 72.9397 28.1493Z" class="pr-icon-iso-solid-stroke" stroke-linejoin="round"/>
    <path d="M99.3995 30.2693V50.1793C99.4195 53.7393 98.2495 57.2293 95.8995 60.6693C93.5495 64.1093 90.0196 67.1893 85.2996 69.9193C80.5796 72.6393 75.2395 74.6793 69.2795 76.0393C63.3295 77.3993 57.2695 78.0693 51.1095 78.0593C44.9495 78.0593 38.8795 77.3493 32.9095 75.9693C26.9395 74.5993 21.5795 72.5393 16.8295 69.7893C12.0795 67.0493 8.50951 63.9593 6.11951 60.5093C3.73951 57.0593 2.52953 53.5593 2.51953 49.9993V29.9993C2.52953 33.3593 3.6095 36.6693 5.7395 39.9293C5.8595 40.1293 5.98951 40.3193 6.11951 40.5093C8.50951 43.9593 12.0795 47.0493 16.8295 49.7893C21.5795 52.5393 26.9395 54.5993 32.9095 55.9693C33.4095 56.0793 33.8995 56.1893 34.3995 56.2993C39.8895 57.4593 45.4595 58.0493 51.1095 58.0593C52.6995 58.0593 54.2895 58.0193 55.8695 57.9293C60.3995 57.6793 64.8695 57.0493 69.2795 56.0393C75.2395 54.6793 80.5796 52.6393 85.2996 49.9193C90.0196 47.1893 93.5495 44.1093 95.8995 40.6693C95.9995 40.5293 96.0896 40.3893 96.1696 40.2493C98.3196 36.9793 99.3995 33.6593 99.3995 30.2693Z" class="pr-icon-iso-solid-stroke" stroke-linejoin="round"/>
</svg>