<svg width="24" height="24" viewBox="0 0 129 99" xmlns="http://www.w3.org/2000/svg" stroke-width="1px" stroke-linecap="round" stroke-linejoin="round">
    <path d="M88.6699 53.3696V60.8196L87.6299 60.4996C87.4399 59.8196 87.1899 59.1996 86.8799 58.6296C86.5699 58.0596 86.1898 57.4696 85.7598 56.8596L87.7898 55.0496C87.8998 54.9596 87.9898 54.8596 88.0698 54.7596C88.4698 54.3296 88.6699 53.8596 88.6699 53.3696Z" class="pr-icon-iso-solid-stroke" stroke-linejoin="round"/>
    <path d="M63.7598 38.8096V46.6597C63.2798 46.6297 62.7898 46.6596 62.2898 46.7196L60.0698 47.0397C58.8998 47.2197 57.9598 47.5796 57.2598 48.1296C56.6498 48.5996 56.3499 49.1296 56.3599 49.7296V52.3596C55.9799 52.5196 55.6198 52.6896 55.2698 52.8696C54.8598 53.0596 54.4698 53.2696 54.0898 53.4896C53.2898 53.9596 52.5599 54.4496 51.8799 54.9896L48.0898 54.8196C46.8498 54.7396 45.7398 54.9196 44.7598 55.3496C43.7698 55.7696 43.1298 56.3196 42.8198 56.9996L42.2698 58.1696C42.1898 58.3796 42.1599 58.5797 42.1499 58.7797V66.4596C42.1499 66.4596 42.0698 66.5097 42.0298 66.5297C40.8598 67.1997 39.7798 67.9097 38.7998 68.6597C37.8198 69.3997 36.9597 70.1696 36.2197 70.9496C35.4797 71.7296 34.3298 72.1996 32.7598 72.3596C31.1798 72.5196 29.8698 72.2896 28.8198 71.6796L5.32983 58.1296C3.28983 56.9496 2.26977 55.5196 2.25977 53.8496V33.8496C2.26977 35.5196 3.28983 36.9496 5.32983 38.1296L15.2297 43.8396L28.8198 51.6796C29.8698 52.2896 31.1798 52.5196 32.7598 52.3596C34.3298 52.1996 35.4797 51.7296 36.2197 50.9496C36.9597 50.1696 37.8198 49.3997 38.7998 48.6597C39.7798 47.9097 40.8598 47.1997 42.0298 46.5297C42.4098 46.3097 42.7899 46.0996 43.1799 45.8896C45.4499 44.6796 47.9299 43.6696 50.6099 42.8596C53.7499 41.8996 57.0199 41.2296 60.4099 40.8396C61.4199 40.7496 62.1998 40.5297 62.7698 40.1497C63.1098 39.9397 63.3698 39.6696 63.5498 39.3496C63.6598 39.1696 63.7298 38.9896 63.7598 38.8096Z" class="pr-icon-iso-solid-stroke" stroke-linejoin="round"/>
    <path d="M66.2297 72.8597V92.8597C65.0597 92.7497 63.9797 92.5997 62.9897 92.4197C61.9997 92.2397 60.9799 92.0298 59.9299 91.7798V71.7798C60.9799 72.0298 61.9997 72.2397 62.9897 72.4197C63.9797 72.5997 65.0597 72.7497 66.2297 72.8597Z" class="pr-icon-iso-solid-stroke" stroke-linejoin="round"/>
    <path d="M79.6499 93.0399C79.7699 93.7499 79.4898 94.3798 78.7798 94.9398C78.0698 95.4898 77.1297 95.8499 75.9597 96.0299L73.7397 96.3398C72.6297 96.4798 71.5498 96.4298 70.4998 96.1798C69.4498 95.9198 68.6498 95.4999 68.0898 94.8899L66.2297 92.8599V72.8599L68.0898 74.8899C68.3098 75.1299 68.5699 75.3399 68.8599 75.5199C69.3199 75.7999 69.8598 76.0198 70.4998 76.1798C71.4498 76.4098 72.4299 76.4699 73.4299 76.3699C73.5299 76.3599 73.6397 76.3498 73.7397 76.3398L75.9597 76.0299C77.1297 75.8499 78.0698 75.4898 78.7798 74.9398C79.3798 74.4598 79.6799 73.9399 79.6799 73.3499L79.6499 90.7198V93.0399Z" class="pr-icon-iso-solid-stroke" stroke-linejoin="round"/>
    <path d="M84.1499 68.0796V88.0796C83.4799 88.6096 82.7399 89.1096 81.9399 89.5696C81.2299 89.9796 80.4599 90.3696 79.6499 90.7196L79.6799 73.3496C79.6799 73.2496 79.6699 73.1497 79.6499 73.0397L79.3599 70.8496C80.2699 70.4596 81.1299 70.0396 81.9199 69.5796C81.9299 69.5796 81.9299 69.5696 81.9399 69.5696C82.7399 69.1096 83.4799 68.6096 84.1499 68.0796Z" class="pr-icon-iso-solid-stroke" stroke-linejoin="round"/>
    <path d="M126.86 42.6198V42.6398C126.86 44.2998 125.85 45.7298 123.83 46.8898L113.9 52.6298L109.72 55.0398C108.67 55.6398 107.44 55.9397 106.02 55.9397C104.6 55.9397 103.37 55.6298 102.31 55.0198C101.26 54.4198 100.73 53.6998 100.73 52.8798C100.72 52.0598 101.25 51.3498 102.29 50.7498L106.47 48.3397L109.03 46.8597L49.6099 12.5597L34.8499 21.0797L44.7498 26.7898L49.6099 29.5997L62.7 37.1598C63.34 37.5398 63.6998 37.9498 63.7598 38.4098V38.8097C63.7298 38.9897 63.6599 39.1697 63.5499 39.3497C63.3699 39.6697 63.1098 39.9398 62.7698 40.1498C62.1998 40.5298 61.42 40.7497 60.41 40.8397C57.02 41.2297 53.7499 41.8997 50.6099 42.8597C47.9299 43.6697 45.45 44.6798 43.18 45.8898C42.79 46.0998 42.4099 46.3098 42.0299 46.5298C40.8599 47.1998 39.7799 47.9098 38.7999 48.6598C37.8199 49.3998 36.9598 50.1697 36.2198 50.9497C35.4798 51.7297 34.3298 52.1997 32.7598 52.3597C31.1798 52.5197 29.8699 52.2897 28.8199 51.6797L15.2298 43.8397L5.32991 38.1298C3.28991 36.9498 2.26984 35.5197 2.25984 33.8497C2.24984 32.1697 3.25987 30.7497 5.28987 29.5797L49.5699 4.00977C51.5999 2.83977 54.0598 2.25977 56.9598 2.25977C59.8598 2.26977 62.3299 2.85979 64.3699 4.03979L123.79 38.3397C125.83 39.5197 126.85 40.9398 126.86 42.6198Z" class="pr-icon-iso-solid-stroke" stroke-linejoin="round"/>
    <path d="M126.86 42.6396V62.6196C126.86 64.2896 125.86 65.7196 123.83 66.8896L109.72 75.0397C108.67 75.6397 107.44 75.9396 106.02 75.9396C104.6 75.9396 103.37 75.6297 102.31 75.0197C101.26 74.4197 100.73 73.6996 100.73 72.8796V52.8796C100.73 53.6996 101.26 54.4197 102.31 55.0197C103.37 55.6297 104.6 55.9396 106.02 55.9396C107.44 55.9396 108.67 55.6397 109.72 55.0397L113.9 52.6296L123.83 46.8896C125.85 45.7296 126.86 44.2996 126.86 42.6396Z" class="pr-icon-iso-solid-stroke" stroke-linejoin="round"/>
    <path d="M49.6099 12.5596V29.5996L44.7498 26.7897L34.8499 21.0796L49.6099 12.5596Z" class="pr-icon-iso-solid-stroke" stroke-linejoin="round"/>
    <path d="M109.03 46.8596L106.47 48.3396L102.29 50.7496C101.25 51.3496 100.72 52.0596 100.73 52.8796V62.0696L88.6699 55.1096V53.3696C88.6699 53.2796 88.6599 53.1896 88.6499 53.0996C88.5599 52.4096 88.0797 51.8096 87.2097 51.3096L85.7297 50.4496C84.8597 49.9496 83.8399 49.6596 82.6699 49.5896C81.6299 49.5296 80.6497 49.6396 79.7197 49.9396L63.7598 40.7296V38.4097C63.6998 37.9497 63.34 37.5397 62.7 37.1597L49.6099 29.5996V12.5596L109.03 46.8596Z" class="pr-icon-iso-solid-stroke" stroke-linejoin="round"/>
    <path d="M93.7998 64.1499V84.1698C93.7998 84.3898 93.7599 84.6198 93.6699 84.8398L93.2097 86.0698C92.9097 86.7398 92.2598 87.2898 91.2798 87.7198C90.2898 88.1398 89.18 88.3199 87.95 88.2499L84.1499 88.0798V68.0798L87.95 68.2499C88.2 68.2599 88.4399 68.2699 88.6699 68.2499C89.6199 68.2299 90.4898 68.0598 91.2798 67.7198C92.2598 67.2898 92.9097 66.7398 93.2097 66.0698L93.6699 64.8398C93.7599 64.6098 93.7998 64.3799 93.7998 64.1499Z" class="pr-icon-iso-solid-stroke" stroke-linejoin="round"/>
    <path d="M59.9299 71.7798V91.7798L56.7 92.9998C55.65 93.3898 54.5399 93.5497 53.3699 93.4697C52.1999 93.3997 51.1798 93.1097 50.3098 92.6097L48.8298 91.7598C47.9598 91.2598 47.4799 90.6597 47.3799 89.9597C47.3699 89.8797 47.3599 89.8097 47.3599 89.7397V69.7397C47.3599 69.8097 47.3599 69.8797 47.3799 69.9597C47.4799 70.6597 47.9598 71.2598 48.8298 71.7598L50.3098 72.6097C51.1798 73.1097 52.1999 73.3997 53.3699 73.4697C53.6199 73.4897 53.8599 73.4897 54.0999 73.4697C55.0099 73.4697 55.88 73.2897 56.7 72.9897L59.9299 71.7698V71.7798Z" class="pr-icon-iso-solid-stroke" stroke-linejoin="round"/>
    <path d="M50.2798 66.1998L48.2498 68.0099C47.6398 68.5499 47.3499 69.1299 47.3599 69.7399V82.2499L44.8799 81.4899C43.8299 81.1699 43.0699 80.6998 42.6099 80.0698C42.2999 79.6598 42.1499 79.2398 42.1499 78.8198V58.8198C42.1499 59.2398 42.2999 59.6598 42.6099 60.0698C43.0699 60.6998 43.8299 61.1699 44.8799 61.4899L48.4099 62.5698C48.4899 62.8798 48.5897 63.1899 48.7097 63.4799C48.8397 63.8199 48.9899 64.1398 49.1599 64.4398C49.4699 65.0098 49.8398 65.5998 50.2798 66.1998Z" class="pr-icon-iso-solid-stroke" stroke-linejoin="round"/>
    <path d="M42.1499 78.8799V78.8198" class="pr-icon-iso-solid-stroke" stroke-linejoin="round"/>
    <path d="M93.3799 62.9697C92.9499 62.3597 92.1999 61.8996 91.1499 61.5696L88.6699 60.8196L87.6299 60.4997C87.4399 59.8197 87.1899 59.1997 86.8799 58.6297C86.5699 58.0597 86.1898 57.4697 85.7598 56.8597L87.7898 55.0496C87.8998 54.9596 87.9898 54.8597 88.0698 54.7597C88.4698 54.3297 88.6699 53.8597 88.6699 53.3697C88.6699 53.2797 88.6599 53.1897 88.6499 53.0997C88.5599 52.4097 88.0797 51.8096 87.2097 51.3096L85.7297 50.4496C84.8597 49.9496 83.8399 49.6597 82.6699 49.5897C81.6299 49.5297 80.6497 49.6396 79.7197 49.9396C79.5897 49.9796 79.4598 50.0196 79.3398 50.0696L76.1099 51.2897C75.0599 51.0397 74.0398 50.8197 73.0498 50.6397C72.0598 50.4597 70.9798 50.3197 69.8098 50.2097L67.95 48.1796C67.39 47.5696 66.5798 47.1397 65.5298 46.8897C64.9498 46.7497 64.3598 46.6797 63.7598 46.6597C63.2798 46.6297 62.7898 46.6597 62.2898 46.7197L60.0698 47.0397C58.8998 47.2197 57.9598 47.5797 57.2598 48.1297C56.6498 48.5997 56.3499 49.1297 56.3599 49.7297C56.3599 49.8197 56.3599 49.9197 56.3899 50.0197L56.6799 52.2197C56.5699 52.2697 56.4699 52.3097 56.3599 52.3597C55.9799 52.5197 55.6198 52.6897 55.2698 52.8697C54.8598 53.0597 54.4698 53.2697 54.0898 53.4897C53.2898 53.9597 52.5599 54.4497 51.8799 54.9897L48.0898 54.8196C46.8498 54.7396 45.7398 54.9197 44.7598 55.3497C43.7698 55.7697 43.1298 56.3197 42.8198 56.9997L42.2698 58.1696C42.1898 58.3796 42.1599 58.5797 42.1499 58.7797V58.8196C42.1499 59.2396 42.2999 59.6596 42.6099 60.0696C43.0699 60.6996 43.8299 61.1697 44.8799 61.4897L48.4099 62.5696C48.4899 62.8796 48.5897 63.1897 48.7097 63.4797C48.8397 63.8197 48.9899 64.1396 49.1599 64.4396C49.4699 65.0096 49.8398 65.5996 50.2798 66.1996L48.2498 68.0097C47.6398 68.5497 47.3499 69.1297 47.3599 69.7397C47.3599 69.8097 47.3599 69.8797 47.3799 69.9597C47.4799 70.6597 47.9598 71.2597 48.8298 71.7597L50.3098 72.6097C51.1798 73.1097 52.1999 73.3997 53.3699 73.4697C53.6199 73.4897 53.8599 73.4897 54.0999 73.4697C55.0099 73.4697 55.88 73.2897 56.7 72.9897L59.9299 71.7697C60.9799 72.0197 61.9997 72.2297 62.9897 72.4097C63.9797 72.5897 65.0597 72.7397 66.2297 72.8497L68.0898 74.8797C68.3098 75.1197 68.5699 75.3297 68.8599 75.5097C69.3199 75.7897 69.8598 76.0096 70.4998 76.1696C71.4498 76.3996 72.4299 76.4597 73.4299 76.3597C73.5299 76.3497 73.6397 76.3397 73.7397 76.3297L75.9597 76.0197C77.1297 75.8397 78.0698 75.4796 78.7798 74.9296C79.3798 74.4496 79.6799 73.9297 79.6799 73.3397C79.6799 73.2397 79.6699 73.1397 79.6499 73.0297L79.3599 70.8397C80.2699 70.4497 81.1299 70.0296 81.9199 69.5696C81.9299 69.5696 81.9299 69.5596 81.9399 69.5596C82.7399 69.0996 83.4799 68.5996 84.1499 68.0696L87.95 68.2397C88.2 68.2497 88.4399 68.2597 88.6699 68.2397C89.6199 68.2197 90.4898 68.0497 91.2798 67.7097C92.2598 67.2797 92.9097 66.7296 93.2097 66.0596L93.6699 64.8297C93.7599 64.5997 93.7998 64.3697 93.7998 64.1397C93.7998 63.7397 93.6599 63.3397 93.3799 62.9597V62.9697ZM75.4399 65.8196C73.4099 66.9896 70.9498 67.5796 68.0498 67.5696C67.7598 67.5696 67.4599 67.5596 67.1799 67.5496C65.5099 67.4696 63.9899 67.1896 62.6199 66.6896C61.9199 66.4496 61.2599 66.1497 60.6399 65.7897C58.5999 64.6097 57.5698 63.1897 57.5598 61.5097C57.5598 61.4197 57.5598 61.3297 57.5698 61.2397C57.6598 59.6897 58.6698 58.3497 60.5898 57.2497C60.9798 57.0197 61.3798 56.8197 61.8098 56.6397C62.4198 56.3697 63.0698 56.1497 63.7598 55.9897C65.0498 55.6497 66.4597 55.4897 67.9897 55.4997C70.8797 55.4997 73.3599 56.0897 75.3999 57.2697C77.4399 58.4497 78.4697 59.8796 78.4697 61.5496C78.4797 63.2296 77.4699 64.6496 75.4399 65.8196Z" class="pr-icon-iso-solid-stroke" stroke-linejoin="round"/>
    <path d="M78.4697 61.5494C78.4797 63.2294 77.4699 64.6494 75.4399 65.8194C73.4099 66.9894 70.9498 67.5794 68.0498 67.5694C67.7598 67.5694 67.4599 67.5594 67.1799 67.5494C65.5099 67.4694 63.9899 67.1894 62.6199 66.6894C61.9199 66.4494 61.2599 66.1495 60.6399 65.7895C58.5999 64.6095 57.5698 63.1895 57.5598 61.5095C57.5598 61.4195 57.5598 61.3295 57.5698 61.2395C57.6598 59.6895 58.6698 58.3495 60.5898 57.2495C60.9798 57.0195 61.3798 56.8195 61.8098 56.6395C62.4198 56.3695 63.0698 56.1495 63.7598 55.9895C65.0498 55.6495 66.4597 55.4895 67.9897 55.4995C70.8797 55.4995 73.3599 56.0895 75.3999 57.2695C77.4399 58.4495 78.4697 59.8794 78.4697 61.5494Z" class="pr-icon-iso-solid-stroke" stroke-linejoin="round"/>
    <path d="M88.6699 53.37V53.29" class="pr-icon-iso-solid-stroke" stroke-linejoin="round"/>
</svg>