<svg width="48" height="48" viewBox="0 0 112 87" xmlns="http://www.w3.org/2000/svg" stroke-width="1px"
     stroke-linecap="round" stroke-linejoin="round">
    <path d="M109.191 27.6838L109.141 47.2938V48.0038C109.011 48.6338 108.471 49.2238 107.551 49.7538L94.7906 57.1138C89.1606 60.3638 82.4707 62.1538 74.7307 62.4838C73.9107 62.5238 73.1007 62.5438 72.3007 62.5438V54.4638C67.8907 51.8438 62.7707 49.9338 56.9307 48.7338C55.8507 48.5138 54.7707 48.3138 53.6807 48.1438V39.0538C59.9607 41.6738 66.9807 42.8138 74.7307 42.4838C81.2407 42.2038 87.0107 40.8938 92.0307 38.5438C92.9807 38.1138 93.9006 37.6338 94.7906 37.1138L107.551 29.7538C108.641 29.1238 109.191 28.4438 109.191 27.6838Z" class="pr-icon-iso-solid-stroke" stroke-linejoin="round"/>
    <path d="M53.6803 39.0537V48.1437C49.3403 47.4437 44.9703 47.1637 40.5903 47.2937C40.1703 47.3037 39.7403 47.3237 39.3203 47.3437L40.4203 46.7137L53.6803 39.0537Z" class="pr-icon-iso-solid-stroke" stroke-linejoin="round"/>
    <path d="M109.141 48.0037V47.3037C109.201 47.5437 109.201 47.7737 109.141 48.0037Z" class="pr-icon-iso-solid-stroke" stroke-linejoin="round"/>
    <path d="M109.189 27.6338V27.1838" class="pr-icon-iso-solid-stroke" stroke-linejoin="round"/>
    <path d="M72.2998 54.464V74.464L64.7898 78.7939C58.5398 82.4039 51.0198 84.204 42.2398 84.184C33.4598 84.174 25.9198 82.344 19.6298 78.714L12.0698 74.3539C5.77982 70.7239 2.61984 66.3639 2.58984 61.2939V41.2939C2.60984 45.0039 4.30981 48.3339 7.67981 51.2639C8.91981 52.3539 10.3798 53.3839 12.0698 54.3539L19.6298 58.714C25.9198 62.344 33.4598 64.174 42.2398 64.184C43.1398 64.184 44.0298 64.1639 44.8898 64.1339C50.4498 63.9039 55.4798 62.894 59.9598 61.124C61.6498 60.454 63.2598 59.6839 64.7898 58.7939L72.2998 54.464Z" class="pr-icon-iso-solid-stroke" stroke-linejoin="round"/>
    <path d="M46.1298 34.6938L42.5898 36.7438L40.0898 38.1838V24.3938C40.1998 27.8438 41.9198 31.0238 45.2298 33.9338C45.5198 34.1938 45.8198 34.4438 46.1298 34.6938Z" class="pr-icon-iso-solid-stroke" stroke-linejoin="round"/>
    <path d="M109.19 27.6338V27.6838C109.19 28.4438 108.64 29.1238 107.55 29.7538L94.7899 37.1138C93.8999 37.6338 92.9799 38.1138 92.0299 38.5438C87.0099 40.8938 81.2399 42.2038 74.7299 42.4838C66.9799 42.8138 59.9599 41.6738 53.6799 39.0538L40.4199 46.7138L39.3199 47.3438C39.7399 47.3238 40.1699 47.3038 40.5899 47.2938C44.9699 47.1638 49.3399 47.4438 53.6799 48.1438C54.7699 48.3138 55.8499 48.5138 56.9299 48.7338C62.7699 49.9338 67.8899 51.8438 72.2999 54.4638L64.7899 58.7938C63.2599 59.6838 61.6499 60.4538 59.9599 61.1238C55.4799 62.8938 50.4499 63.9038 44.8899 64.1338C44.0299 64.1638 43.1399 64.1838 42.2399 64.1838C33.4599 64.1738 25.9199 62.3438 19.6299 58.7138L12.0699 54.3538C10.3799 53.3838 8.91991 52.3538 7.67991 51.2638C4.30991 48.3338 2.60994 45.0038 2.58994 41.2938C2.56994 36.2238 5.67991 31.8838 11.9299 28.2738L19.4399 23.9438C23.9699 26.4838 27.2799 29.4438 29.3699 32.8138C31.4499 36.1838 32.2599 39.5738 31.7699 42.9838L40.0899 38.1838L42.5899 36.7438L46.1299 34.6938C45.8199 34.4438 45.5199 34.1938 45.2299 33.9338C41.9199 31.0238 40.1999 27.8438 40.0899 24.3938C40.0699 23.7838 40.0999 23.1638 40.1799 22.5438C40.7499 18.0638 43.8499 14.2038 49.4799 10.9538L62.2399 3.59379C63.8599 2.65379 65.7299 2.41381 67.8299 2.86381C69.9399 3.32381 71.0899 4.22379 71.2799 5.56379L72.2599 13.0638L86.6599 12.2738C88.2899 12.2038 89.6999 12.5138 90.8999 13.2038C91.9399 13.8038 92.4799 14.5038 92.5199 15.3038V15.5338C92.5199 15.5338 92.5199 15.6138 92.5199 15.6538L91.1499 23.9638L92.5299 24.0238L104.14 24.5338C106.46 24.6438 108.02 25.3038 108.81 26.5238C109.07 26.9138 109.2 27.2838 109.2 27.6338H109.19Z" class="pr-icon-iso-solid-stroke" stroke-linejoin="round"/>
    <path d="M92.5197 15.5337V24.0237L91.1396 23.9637L92.5096 15.6537C92.5096 15.6537 92.5096 15.5737 92.5096 15.5337H92.5197Z" class="pr-icon-iso-solid-stroke" stroke-linejoin="round"/>
</svg>