<svg width="24" height="24" viewBox="0 0 122 93" xmlns="http://www.w3.org/2000/svg" stroke-width="1px" stroke-linecap="round" stroke-linejoin="round">
    <path d="M118.671 30.301C116.271 26.181 109.541 20.931 98.4615 14.531C87.7715 8.36105 78.7214 4.56105 71.3014 3.12105C63.8714 1.68105 57.5115 2.49105 52.2015 5.56105L15.7214 26.611C11.9514 28.791 10.0715 31.381 10.0915 34.391C10.1015 37.391 12.0114 39.981 15.8114 42.181L10.0915 41.501L5.40146 40.941C4.12146 40.791 3.14141 41.0511 2.47141 41.7411C2.13141 42.0811 2.00146 42.4111 2.08146 42.7211C2.15146 43.0311 2.43141 43.321 2.91141 43.601L10.0915 47.751L12.4214 49.091L48.1214 69.701C49.0814 70.251 50.1615 70.341 51.3415 69.951C52.3115 69.641 52.7914 69.211 52.8014 68.661C52.8014 68.541 52.7814 68.401 52.7314 68.261L52.2314 66.871L50.5815 62.251C52.6315 63.431 54.8815 64.301 57.3315 64.851C59.4315 65.321 61.6815 65.551 64.0815 65.561C69.2815 65.571 73.7614 64.4811 77.5414 62.3011L81.3315 60.111L92.8514 53.461L111.261 42.8311L114.011 41.2411C117.811 39.0511 119.731 36.631 119.761 33.981C119.771 32.801 119.411 31.571 118.671 30.301ZM90.9314 45.6511L56.0815 25.531L54.2914 24.491L44.5714 18.881L56.0815 12.231L78.1314 24.961L102.451 39.001L90.9314 45.6511Z" class="pr-icon-iso-solid-stroke" stroke-linejoin="round"/>
    <path d="M56.0823 12.2311V25.5311L54.2922 24.4911L44.5723 18.8811L56.0823 12.2311Z" class="pr-icon-iso-solid-stroke" stroke-linejoin="round"/>
    <path d="M102.452 39.0011L90.932 45.6511L56.082 25.5311V12.2311L78.132 24.9611L102.452 39.0011Z" class="pr-icon-iso-solid-stroke" stroke-linejoin="round"/>
    <path d="M119.762 33.9811V53.9811C119.732 56.6311 117.812 59.0511 114.012 61.2411L77.542 82.3011C73.762 84.4811 69.282 85.5711 64.082 85.5611C59.862 85.5611 56.102 84.8311 52.802 83.3711V68.6611C52.802 68.5411 52.782 68.4011 52.732 68.2611L52.232 66.8711L50.582 62.2511C52.632 63.4311 54.882 64.3011 57.332 64.8511C59.432 65.3211 61.682 65.5511 64.082 65.5611C69.282 65.5711 73.762 64.4811 77.542 62.3011L81.332 60.1111L92.852 53.4611L111.262 42.8311L114.012 41.2411C117.812 39.0511 119.732 36.6311 119.762 33.9811Z" class="pr-icon-iso-solid-stroke" stroke-linejoin="round"/>
    <path d="M52.8005 68.6611V88.6411C52.8005 89.2011 52.3206 89.6411 51.3406 89.9511C50.1606 90.3411 49.0805 90.2511 48.1205 89.7011L2.91052 63.6011C2.34052 63.2711 2.06055 62.9211 2.06055 62.5511L2.08057 42.7211C2.15057 43.0311 2.43052 43.3211 2.91052 43.6011L10.0906 47.7511L12.4205 49.0911L48.1205 69.7011C49.0805 70.2511 50.1606 70.3411 51.3406 69.9511C52.3106 69.6411 52.7905 69.2111 52.8005 68.6611Z" class="pr-icon-iso-solid-stroke" stroke-linejoin="round"/>
    <path d="M2.08203 42.721V42.661" class="pr-icon-iso-solid-stroke" stroke-linejoin="round"/>
    <path d="M2.06055 62.711V62.551" class="pr-icon-iso-solid-stroke" stroke-linejoin="round"/>
    <path d="M15.8118 42.181L10.0918 41.501V34.391C10.1018 37.391 12.0118 39.981 15.8118 42.181Z" class="pr-icon-iso-solid-stroke" stroke-linejoin="round"/>
</svg>