<svg width="48" height="48" viewBox="0 0 120 92" xmlns="http://www.w3.org/2000/svg" stroke-width="1px"
     stroke-linecap="round" stroke-linejoin="round">
    <path d="M117.709 36.24V56.1C117.729 58.69 117.209 61.24 116.179 63.77C115.139 66.29 113.639 68.71 111.689 71.02C110.409 72.54 108.359 73.45 105.539 73.74C102.729 74.03 100.329 73.6 98.3594 72.46C96.9994 71.68 96.1494 70.74 95.7994 69.64C95.6994 69.32 95.6494 69 95.6494 68.69V48.7C95.6494 49 95.6994 49.32 95.7994 49.64C96.1494 50.74 96.9994 51.68 98.3594 52.46C99.0294 52.85 99.7494 53.15 100.519 53.37C102.009 53.81 103.689 53.93 105.539 53.74C108.359 53.45 110.409 52.54 111.689 51.02C113.009 49.46 114.119 47.85 115.019 46.19C115.459 45.4 115.839 44.59 116.179 43.77C117.189 41.29 117.709 38.78 117.709 36.24Z" class="pr-icon-iso-solid-stroke" stroke-linejoin="round"/>
    <path d="M100.82 36.07C100.79 36.97 100.69 37.85 100.5 38.73C100.31 39.65 100.03 40.56 99.6697 41.45C99.0297 43.03 98.0998 44.59 96.8698 46.12C96.7098 45.93 96.5498 45.74 96.3798 45.55C95.8198 44.89 95.5298 44.21 95.5098 43.48V23.41C95.5098 23.71 95.5498 24 95.6498 24.29C95.7898 24.72 96.0298 25.14 96.3798 25.55C97.8198 27.15 98.9097 28.86 99.6697 30.66C100.42 32.47 100.81 34.27 100.82 36.07Z" class="pr-icon-iso-solid-stroke" stroke-linejoin="round"/>
    <path d="M91.1793 61.16V81.22C91.1693 81.51 91.1193 81.81 91.0293 82.12C90.5293 83.74 88.9593 84.92 86.3193 85.66C82.3193 86.79 78.1393 87.66 73.7593 88.26C69.3893 88.86 64.9593 89.15 60.4893 89.14C56.0793 89.17 51.6593 88.87 47.2493 88.24C42.8293 87.6 38.6193 86.71 34.6093 85.57C31.9593 84.82 30.3793 83.63 29.8593 82.01C29.7493 81.65 29.6893 81.29 29.6993 80.96V61.02C29.6993 61.34 29.7493 61.67 29.8593 62.01C30.3793 63.63 31.9593 64.82 34.6093 65.57C38.6193 66.71 42.8293 67.6 47.2493 68.24C51.6593 68.87 56.0793 69.17 60.4893 69.14C64.9593 69.14 69.3893 68.86 73.7593 68.26C78.1393 67.66 82.3193 66.79 86.3193 65.66C88.9593 64.92 90.5293 63.74 91.0293 62.12C91.1293 61.79 91.1793 61.47 91.1793 61.16Z" class="pr-icon-iso-solid-stroke" stroke-linejoin="round"/>
    <path d="M91.1802 61.16C91.1802 61.47 91.1302 61.79 91.0302 62.12C90.5302 63.74 88.9602 64.92 86.3202 65.66C82.3202 66.79 78.1402 67.66 73.7602 68.26C69.3902 68.86 64.9602 69.15 60.4902 69.14C56.0802 69.17 51.6602 68.87 47.2502 68.24C42.8302 67.6 38.6202 66.71 34.6102 65.57C31.9602 64.82 30.3802 63.63 29.8602 62.01C29.7502 61.67 29.7002 61.34 29.7002 61.02C29.7002 59.82 30.4802 58.76 32.0302 57.87C33.3802 57.09 35.0102 56.6 36.9002 56.41C38.8002 56.22 40.5702 56.36 42.2002 56.83C44.9902 57.66 47.9402 58.29 51.0602 58.73C54.1902 59.16 57.3102 59.38 60.4302 59.39C63.6202 59.35 66.7202 59.14 69.7402 58.73C72.7602 58.32 75.7302 57.71 78.6402 56.89C80.2602 56.43 82.0302 56.29 83.9302 56.49C85.8302 56.69 87.4602 57.18 88.8202 57.97C90.4002 58.88 91.1802 59.94 91.1802 61.16Z" class="pr-icon-iso-solid-stroke" stroke-linejoin="round"/>
    <path d="M117.71 36.1V36.24C117.71 38.78 117.19 41.29 116.18 43.77C115.84 44.59 115.46 45.4 115.02 46.19C114.12 47.85 113.01 49.46 111.69 51.02C110.41 52.54 108.36 53.4499 105.54 53.7399C103.69 53.9299 102.01 53.8099 100.52 53.3699C99.7498 53.1499 99.0297 52.8499 98.3597 52.4599C96.9997 51.6799 96.1497 50.74 95.7997 49.64C95.6997 49.32 95.6498 49 95.6498 48.7C95.6398 47.95 95.9298 47.25 96.4998 46.58C96.6298 46.43 96.7498 46.27 96.8698 46.12C98.0998 44.59 99.0297 43.03 99.6697 41.45C100.03 40.56 100.31 39.65 100.5 38.73C100.69 37.85 100.79 36.97 100.82 36.07C100.81 34.27 100.42 32.47 99.6697 30.66C98.9097 28.86 97.8198 27.15 96.3798 25.55C96.0298 25.14 95.7898 24.72 95.6498 24.29C95.5498 24 95.5098 23.71 95.5098 23.41C95.5098 23.1 95.5498 22.8 95.6498 22.49C95.9898 21.39 96.8297 20.45 98.1797 19.67C100.14 18.54 102.53 18.12 105.35 18.42C108.17 18.72 110.23 19.64 111.52 21.17C113.5 23.48 115.04 25.91 116.14 28.46C117.24 31.01 117.77 33.56 117.71 36.1Z" class="pr-icon-iso-solid-stroke" stroke-linejoin="round"/>
    <path d="M90.8098 10.87V10.91C90.8098 11.22 90.7598 11.52 90.6498 11.81C90.3598 12.65 89.6298 13.41 88.4798 14.07C87.1298 14.85 85.4998 15.34 83.6098 15.53C81.7098 15.73 79.9398 15.59 78.3098 15.11C70.6298 12.79 62.5197 12.03 53.9697 12.84C45.4297 13.64 38.0097 15.86 31.7197 19.49C25.5997 23.03 21.7898 27.18 20.2998 31.95C20.2598 32.08 20.2198 32.21 20.1798 32.34C18.8398 37.1 20.0098 41.62 23.7098 45.91C23.8398 46.07 23.9898 46.23 24.1298 46.39C24.7098 47.07 24.9998 47.78 24.9998 48.52C24.9998 48.83 24.9598 49.14 24.8598 49.45C24.5198 50.55 23.6798 51.49 22.3298 52.27C21.5998 52.69 20.8098 53.01 19.9598 53.23C18.5298 53.61 16.9297 53.71 15.1597 53.52C12.3397 53.22 10.2798 52.3 8.98976 50.77C7.51976 49.09 6.30974 47.4 5.34974 45.69C3.58974 42.55 2.67978 39.35 2.63978 36.08C2.61978 34.25 2.86977 32.41 3.37977 30.55C5.30977 23.54 10.6698 17.5 19.4598 12.42C28.2598 7.33996 38.7298 4.24996 50.8698 3.12996C63.0098 2.01996 74.6798 3.09996 85.8998 6.36996C88.5498 7.11996 90.1298 8.30996 90.6498 9.92996C90.7598 10.26 90.8098 10.57 90.8098 10.87Z" class="pr-icon-iso-solid-stroke" stroke-linejoin="round"/>
    <path d="M90.8097 10.91V30.96C90.7897 32.14 90.0097 33.19 88.4797 34.07C87.1297 34.85 85.4997 35.34 83.6097 35.53C81.7097 35.73 79.9397 35.59 78.3097 35.11C70.6297 32.79 62.5197 32.03 53.9697 32.84C45.4297 33.64 38.0097 35.86 31.7197 39.49C28.3397 41.44 25.6697 43.58 23.7097 45.91C20.0097 41.62 18.8397 37.1 20.1797 32.34C20.2197 32.21 20.2597 32.08 20.2997 31.95C21.7897 27.18 25.5997 23.03 31.7197 19.49C38.0097 15.86 45.4297 13.64 53.9697 12.84C62.5197 12.03 70.6297 12.79 78.3097 15.11C79.9397 15.59 81.7097 15.73 83.6097 15.53C85.4997 15.34 87.1297 14.85 88.4797 14.07C89.6297 13.41 90.3597 12.65 90.6497 11.81C90.7597 11.52 90.8097 11.22 90.8097 10.91Z" class="pr-icon-iso-solid-stroke" stroke-linejoin="round"/>
    <path d="M24.9996 48.52V68.53C24.9996 68.83 24.9596 69.14 24.8596 69.45C24.5196 70.55 23.6797 71.49 22.3297 72.27C20.3697 73.4 17.9796 73.82 15.1596 73.52C12.3396 73.22 10.2796 72.3 8.98962 70.77C4.75962 65.94 2.63965 60.97 2.63965 55.84V36.08C2.67965 39.35 3.58961 42.55 5.34961 45.69C6.30961 47.4 7.51962 49.09 8.98962 50.77C10.2796 52.3 12.3396 53.22 15.1596 53.52C16.9296 53.71 18.5297 53.61 19.9597 53.23C20.8097 53.01 21.5997 52.69 22.3297 52.27C23.6797 51.49 24.5196 50.55 24.8596 49.45C24.9596 49.14 24.9996 48.83 24.9996 48.52Z" class="pr-icon-iso-solid-stroke" stroke-linejoin="round"/>
    <path d="M91.1797 61.16V60.84" class="pr-icon-iso-solid-stroke" stroke-linejoin="round"/>
    <path d="M29.7002 61.02V60.84" class="pr-icon-iso-solid-stroke" stroke-linejoin="round"/>
    <path d="M25 48.52V48.14" class="pr-icon-iso-solid-stroke" stroke-linejoin="round"/>
    <path d="M95.6494 68.78V68.69" class="pr-icon-iso-solid-stroke" stroke-linejoin="round"/>
</svg>