<svg width="48" height="48" viewBox="0 0 119 91" fill="#229EFF" xmlns="http://www.w3.org/2000/svg" stroke-width="1px" stroke-linecap="round" stroke-linejoin="round"><path d="M113.52 31.4299L66.0199 4.00983C64.1499 2.92983 61.8898 2.38988 59.2398 2.37988C56.5898 2.37988 54.3398 2.90986 52.4898 3.97986L5.27987 31.2399C3.41987 32.3099 2.49985 33.6098 2.50985 35.1398C2.51985 36.6698 3.4499 37.9699 5.3199 39.0499L15.8597 45.1299L52.8199 66.4698C54.6899 67.5498 56.9497 68.0899 59.5997 68.0999C62.2497 68.0999 64.4997 67.5699 66.3497 66.4999L69.2598 64.8198L92.8697 51.1899L102.98 45.3499L113.56 39.2399C115.41 38.1799 116.33 36.8799 116.33 35.3599V35.3398C116.32 33.8098 115.39 32.5099 113.52 31.4299ZM96.6397 37.2598L92.8099 39.4698L82.6898 45.3099L79.7799 46.9899C78.8199 47.5499 77.6997 47.8198 76.3997 47.8198C75.0997 47.8198 73.9798 47.5399 73.0098 46.9799L69.9798 45.2299L56.0499 37.1899C55.0899 36.6299 54.5997 35.9799 54.5997 35.2299C54.5997 34.4799 55.0699 33.8298 56.0299 33.2798L69.0599 25.7598L72.8897 23.5499C73.8397 22.9999 74.9699 22.7198 76.2699 22.7198C77.5599 22.7298 78.6897 22.9999 79.6497 23.5599L96.6197 33.3499C97.5797 33.9099 98.0599 34.5599 98.0699 35.3099C98.0699 36.0599 97.5897 36.7098 96.6397 37.2598Z" stroke="white" stroke-linejoin="round"/><path d="M98.0698 35.3098C98.0698 36.0598 97.5896 36.7097 96.6396 37.2597L92.8098 39.4697L82.6897 45.3098L79.6497 43.5598C78.6897 42.9998 77.5598 42.7297 76.2698 42.7197C74.9698 42.7197 73.8396 42.9997 72.8896 43.5497L69.9797 45.2297L56.0498 37.1898C55.0898 36.6298 54.5996 35.9797 54.5996 35.2297C54.5996 34.4797 55.0698 33.8297 56.0298 33.2797L69.0598 25.7597L72.8896 23.5497C73.8396 22.9997 74.9698 22.7197 76.2698 22.7197C77.5598 22.7297 78.6897 22.9998 79.6497 23.5598L96.6196 33.3497C97.5796 33.9097 98.0598 34.5598 98.0698 35.3098Z" stroke="white" stroke-linejoin="round"/><path d="M116.33 35.3597V55.3397C116.34 56.8697 115.42 58.1697 113.56 59.2397L66.3496 86.4997C64.4996 87.5697 62.2496 88.0997 59.5996 88.0997C56.9496 88.0897 54.6898 87.5497 52.8198 86.4697L5.31982 59.0497C3.44982 57.9697 2.51977 56.6696 2.50977 55.1396V35.1396C2.51977 36.6696 3.44982 37.9697 5.31982 39.0497L15.8596 45.1297L52.8198 66.4697C54.6898 67.5497 56.9496 68.0897 59.5996 68.0997C62.2496 68.0997 64.4996 67.5697 66.3496 66.4997L69.2598 64.8196L92.8696 51.1897L102.98 45.3497L113.56 39.2397C115.41 38.1797 116.33 36.8797 116.33 35.3597Z" stroke="white" stroke-linejoin="round"/></svg>