<svg width="48" height="48" viewBox="0 0 125 82" xmlns="http://www.w3.org/2000/svg" stroke-width="1px"
     stroke-linecap="round" stroke-linejoin="round">
    <path d="M122.089 14.8699V34.8699C122.089 36.0499 121.499 37.1598 120.329 38.2098L96.5793 59.8699C95.9893 60.3599 95.1594 60.6498 94.0994 60.7198C93.4994 60.7698 92.9495 60.7299 92.4595 60.6099V49.3898C92.4395 46.7098 90.7695 44.4099 87.4495 42.4899C84.1195 40.5699 80.1395 39.6099 75.4995 39.5999C70.8595 39.5899 66.8893 40.5398 63.5793 42.4498C60.2793 44.3598 58.6394 46.6498 58.6494 49.3298V60.2698C57.6294 60.5198 56.5594 60.6199 55.4194 60.5999C53.3694 60.5499 51.5693 60.0898 50.0393 59.2098L41.2595 54.1398L33.2495 40.2698C32.9095 39.6898 32.2295 39.3398 31.1995 39.1998C30.1695 39.0698 29.2993 39.2098 28.5693 39.6298L26.8994 40.5898V25.8499L36.5095 31.3998L50.0393 39.2098C51.5693 40.0898 53.3694 40.5499 55.4194 40.5999C57.4794 40.6399 59.3295 40.2598 60.9795 39.4598C65.4095 37.2898 70.5394 36.2598 76.3794 36.3898C82.2094 36.5098 87.2194 37.7798 91.4094 40.1998C92.1394 40.6198 93.0394 40.7998 94.0994 40.7198C95.1594 40.6498 95.9893 40.3599 96.5793 39.8699L105.51 31.7198L111.659 26.1099L120.329 18.2098C121.499 17.1598 122.089 16.0499 122.089 14.8699Z" class="pr-icon-iso-solid-stroke" stroke-linejoin="round"/>
    <path d="M92.4595 49.3896V49.4096C92.4595 50.3096 92.2695 51.1697 91.8895 51.9797C91.1595 53.5797 89.7096 55.0096 87.5196 56.2696C86.6896 56.7496 85.8095 57.1696 84.8895 57.5296C82.1695 58.5996 79.0794 59.1297 75.6094 59.1197C72.1294 59.1197 69.0194 58.5697 66.2894 57.4897C65.3694 57.1297 64.4895 56.7097 63.6595 56.2297C61.5995 55.0397 60.1794 53.7097 59.3894 52.2297C58.8994 51.3197 58.6595 50.3497 58.6495 49.3297C58.6395 46.6497 60.2794 44.3597 63.5794 42.4497C66.8894 40.5397 70.8596 39.5897 75.4996 39.5997C80.1396 39.6097 84.1195 40.5697 87.4495 42.4897C90.7695 44.4097 92.4395 46.7096 92.4595 49.3896Z" class="pr-icon-iso-solid-stroke" stroke-linejoin="round"/>
    <path d="M92.4595 49.4098V69.3898C92.4695 72.0698 90.8295 74.3598 87.5195 76.2698C84.2195 78.1798 80.2494 79.1299 75.6094 79.1199C70.9694 79.1199 66.9794 78.1499 63.6594 76.2299C60.3294 74.3099 58.6594 72.0098 58.6494 69.3298V49.3298C58.6594 50.3498 58.8994 51.3199 59.3894 52.2299C60.1794 53.7099 61.5994 55.0399 63.6594 56.2299C64.4894 56.7099 65.3693 57.1299 66.2893 57.4899C69.0193 58.5699 72.1294 59.1099 75.6094 59.1199C79.0794 59.1299 82.1694 58.5998 84.8894 57.5298C85.8094 57.1698 86.6895 56.7498 87.5195 56.2698C89.7095 55.0098 91.1594 53.5799 91.8894 51.9799C92.2694 51.1699 92.4595 50.3098 92.4595 49.4098Z" class="pr-icon-iso-solid-stroke" stroke-linejoin="round"/>
    <path d="M41.9397 55.5999V55.6399C41.8797 55.8599 41.6596 56.0499 41.2896 56.1899C40.6896 56.4099 40.1296 56.3699 39.5996 56.0699L27.8296 49.2699L23.0696 52.0199C22.3396 52.4399 21.4597 52.5799 20.4397 52.4399C19.4097 52.3099 18.7296 51.9499 18.3896 51.3799L15.5896 46.5399L9.75977 36.4399C9.70977 36.3299 9.67969 36.2399 9.67969 36.1399C9.67969 35.8599 9.90961 35.6299 10.3496 35.4599C10.9496 35.2299 11.5096 35.2699 12.0396 35.5799L23.8096 42.3799L26.8997 40.5899L28.5696 39.6299C29.2996 39.2099 30.1697 39.0699 31.1997 39.1999C32.2297 39.3399 32.9098 39.6899 33.2498 40.2699L41.2598 54.1399L41.8796 55.2099C41.9396 55.3499 41.9697 55.4799 41.9397 55.5999Z" class="pr-icon-iso-solid-stroke" stroke-linejoin="round"/>
    <path d="M122.089 14.8699C122.089 16.0499 121.499 17.1598 120.329 18.2098L111.659 26.1099L105.509 31.7198L96.579 39.8699C95.989 40.3599 95.1591 40.6498 94.0991 40.7198C93.0391 40.7998 92.1391 40.6198 91.4091 40.1998C87.2191 37.7798 82.2091 36.5098 76.3791 36.3898C70.5391 36.2598 65.4092 37.2898 60.9792 39.4598C59.3292 40.2598 57.4791 40.6399 55.4191 40.5999C53.3691 40.5499 51.569 40.0898 50.039 39.2098L36.5092 31.3998L26.8991 25.8499C23.7891 26.7199 20.4792 26.9998 16.9692 26.6898C13.4492 26.3798 10.399 25.4699 7.79901 23.9799C4.47901 22.0599 2.80901 19.7598 2.79901 17.0798C2.77901 14.3998 4.42918 12.1098 7.72918 10.1998C11.0292 8.28983 15.0091 7.33985 19.6491 7.34985C24.2891 7.35985 28.269 8.31987 31.589 10.2399C34.189 11.7399 35.749 13.4998 36.289 15.5298C36.439 16.0598 36.5092 16.5698 36.5092 17.0798V17.1199C36.5092 18.5699 35.949 19.9498 34.829 21.2698L36.5092 22.2399L55.9792 33.4799C61.1992 31.3099 67.0091 30.1198 73.4091 29.9198C79.8091 29.7198 85.859 30.5098 91.569 32.2798L97.7092 26.6698L102.209 22.5598L110.759 14.7499L99.1891 8.06982C98.0591 7.41982 97.4892 6.64978 97.4892 5.76978C97.4792 4.88978 98.0391 4.12986 99.1691 3.47986C100.289 2.82986 101.609 2.50977 103.139 2.50977C104.669 2.50977 105.989 2.83987 107.119 3.48987L118.689 10.1698C120.549 11.2498 121.649 12.5298 121.989 14.0198C122.049 14.3098 122.089 14.5899 122.089 14.8699Z" class="pr-icon-iso-solid-stroke" stroke-linejoin="round"/>
    <path d="M122.089 35.3198V34.8699" class="pr-icon-iso-solid-stroke" stroke-linejoin="round"/>
    <path d="M122.089 14.8699V14.5898" class="pr-icon-iso-solid-stroke" stroke-linejoin="round"/>
    <path d="M110.759 14.7499L102.209 22.5598L97.7092 26.6698C97.5592 26.3898 97.4893 26.0898 97.4893 25.7698V5.76978C97.4893 6.64978 98.0592 7.41982 99.1892 8.06982L110.759 14.7499Z" class="pr-icon-iso-solid-stroke" stroke-linejoin="round"/>
    <path d="M26.8989 25.8499V40.5898L23.8088 42.3798L12.0388 35.5798C11.5088 35.2698 10.9489 35.2298 10.3489 35.4598C9.90888 35.6298 9.67896 35.8598 9.67896 36.1398V44.9198C9.02896 44.6398 8.39883 44.3299 7.79883 43.9799C4.47883 42.0599 2.80883 39.7598 2.79883 37.0798V17.0798C2.80883 19.7598 4.47883 22.0599 7.79883 23.9799C10.3988 25.4699 13.449 26.3798 16.969 26.6898C20.479 26.9998 23.7889 26.7199 26.8989 25.8499Z" class="pr-icon-iso-solid-stroke" stroke-linejoin="round"/>
    <path d="M36.5093 17.1199V22.2399L34.8291 21.2698C35.9491 19.9498 36.5093 18.5699 36.5093 17.1199Z" class="pr-icon-iso-solid-stroke" stroke-linejoin="round"/>
    <path d="M41.9492 75.4298V75.6099C41.8992 75.8499 41.6791 76.0398 41.2891 76.1898C40.6891 76.4098 40.1291 76.3698 39.5991 76.0698L27.8291 69.2698V49.2698L39.5991 56.0698C40.1291 56.3698 40.6891 56.4098 41.2891 56.1898C41.6591 56.0498 41.8792 55.8598 41.9392 55.6398V75.4298H41.9492Z" class="pr-icon-iso-solid-stroke" stroke-linejoin="round"/>
    <path d="M41.9492 75.6398V75.6099" class="pr-icon-iso-solid-stroke" stroke-linejoin="round"/>
    <path d="M27.8296 49.2697V69.2697L23.0696 72.0197C22.3396 72.4397 21.4597 72.5797 20.4397 72.4397C19.4097 72.3097 18.7296 71.9496 18.3896 71.3796L9.75977 56.4397C9.70977 56.3297 9.67969 56.2396 9.67969 56.1396V36.1396C9.67969 36.2396 9.70977 36.3297 9.75977 36.4397L15.5896 46.5397L18.3896 51.3796C18.7296 51.9496 19.4097 52.3097 20.4397 52.4397C21.4597 52.5797 22.3396 52.4397 23.0696 52.0197L27.8296 49.2697Z" class="pr-icon-iso-solid-stroke" stroke-linejoin="round"/>
    <path d="M9.67969 56.1897V56.1396" class="pr-icon-iso-solid-stroke" stroke-linejoin="round"/>
    <path d="M9.67969 36.1398V36.0498" class="pr-icon-iso-solid-stroke" stroke-linejoin="round"/>
</svg>