<svg width="48" height="48" viewBox="0 0 112 88" xmlns="http://www.w3.org/2000/svg" stroke-width="1px"
     stroke-linecap="round" stroke-linejoin="round">
    <path d="M72.3997 12.6101V32.5901C72.4097 33.4601 71.8598 34.2101 70.7498 34.8501C69.6398 35.4901 68.3396 35.8101 66.8296 35.8101C65.3196 35.8101 64.0197 35.4801 62.9097 34.8401L58.3296 32.2001V19.3601C58.3196 17.5801 57.2296 16.0701 55.0696 14.8301L49.4297 11.5701V5.76001C49.4397 6.63001 49.9996 7.38003 51.1096 8.03003L62.9097 14.8401C64.0197 15.4801 65.3296 15.8101 66.8296 15.8101C68.3296 15.8101 69.6398 15.4901 70.7498 14.8501C71.8498 14.2201 72.3997 13.4701 72.3997 12.6101Z" class="pr-icon-iso-solid-stroke" stroke-linejoin="round"/>
    <path d="M27.7097 30.6201C26.6097 31.2601 25.2996 31.5801 23.7996 31.5701C22.2996 31.5701 20.9896 31.2501 19.8696 30.6001C19.8596 30.6001 19.8596 30.5901 19.8496 30.5901V26.0801L22.4497 27.5801L27.7097 30.6201Z" class="pr-icon-iso-solid-stroke" stroke-linejoin="round"/>
    <path d="M35.5791 35.16V55.16C33.9491 56.1 32.1592 56.8 30.1992 57.28L26.6392 51.1101L25.6792 49.4501L25.3591 48.89C25.0291 48.32 24.3591 47.9701 23.3491 47.8401C23.1691 47.8201 22.9891 47.8 22.8191 47.79C22.0291 47.77 21.3393 47.92 20.7493 48.26L18.5891 49.51L16.0591 50.9701L7.54907 46.05L7.11914 45.8101V28.3201C7.13914 30.3101 8.0692 32.08 9.9292 33.64C10.5392 34.16 11.2491 34.6501 12.0591 35.1201C14.3491 36.4401 16.9391 37.3001 19.8491 37.7001C21.1191 37.8701 22.4391 37.9601 23.8291 37.9701C28.4091 37.9701 32.3191 37.04 35.5791 35.16Z" class="pr-icon-iso-solid-stroke" stroke-linejoin="round"/>
    <path d="M109.349 30.79V50.77C109.359 52.54 108.289 54.05 106.139 55.29L95.7793 61.27C94.8693 61.79 93.8593 62.2001 92.7493 62.5001C91.6393 62.8001 90.4692 63.0101 89.2292 63.1201L87.6292 63.2201V55.6201C87.6192 52.9801 85.9692 50.7201 82.6892 48.8201C79.4192 46.9301 75.4892 45.9801 70.9192 45.9701C66.3392 45.9601 62.4292 46.9 59.1692 48.78C55.9192 50.66 54.2991 52.9201 54.3091 55.5601V64.8201C54.0891 64.7901 53.8792 64.7401 53.6592 64.7001C52.0292 64.3501 50.6192 63.84 49.4392 63.16L35.5791 55.16V35.16L49.4392 43.16C50.6192 43.84 52.0292 44.3501 53.6592 44.7001C53.6692 44.7001 53.6792 44.7001 53.6892 44.7101C55.3192 45.0401 56.9391 45.16 58.5591 45.05L88.7292 43.15H88.8992L89.2292 43.1201C90.4692 43.0101 91.6393 42.8001 92.7493 42.5001C93.8593 42.2001 94.8693 41.79 95.7793 41.27L96.3291 40.9501L106.139 35.29C108.279 34.06 109.349 32.55 109.349 30.79Z" class="pr-icon-iso-solid-stroke" stroke-linejoin="round"/>
    <path d="M70.7192 10.3301L58.9292 3.52C57.8092 2.87 56.4993 2.55003 54.9993 2.55003C53.4993 2.54003 52.1891 2.86011 51.0891 3.50011C49.9791 4.14011 49.4292 4.88999 49.4292 5.75999C49.4392 6.62999 49.9991 7.38001 51.1091 8.03001L62.9092 14.8401C64.0192 15.4801 65.3291 15.81 66.8291 15.81C68.3291 15.81 69.6393 15.4901 70.7493 14.8501C71.8493 14.2201 72.3992 13.4701 72.3992 12.6101V12.5901C72.3992 11.7301 71.8392 10.9701 70.7192 10.3301ZM33.8691 63.6201V64.18C33.9691 64.02 33.9691 63.8301 33.8691 63.6201Z" class="pr-icon-iso-solid-stroke" stroke-linejoin="round"/>
    <path d="M106.089 26.2302L98.2292 21.6901C97.1092 21.0501 95.7991 20.7302 94.2991 20.7202C92.7991 20.7202 91.4892 21.0401 90.3892 21.6801C89.2792 22.3201 88.7292 23.0701 88.7292 23.9401C88.7392 24.8101 89.2992 25.5601 90.4092 26.2101L98.2793 30.7502L88.7292 36.2502L87.9192 36.7202L58.3291 38.5201H58.2393L57.1592 38.5901L43.3892 30.6501L45.5391 29.4101L49.8291 26.9301L55.1191 23.8801C55.7491 23.5201 56.2893 23.1302 56.7393 22.7202C57.7993 21.7302 58.3291 20.6201 58.3291 19.3801V19.3602C58.3191 17.5802 57.2291 16.0701 55.0691 14.8301L49.4292 11.5701L47.1992 10.2801C42.8792 7.79009 37.6393 6.53008 31.4993 6.52008C25.3593 6.51008 20.1391 7.75016 15.8391 10.2302L8.0293 14.7402C6.9193 15.3802 6.36914 16.1302 6.36914 17.0002C6.37914 17.8702 6.93907 18.6201 8.04907 19.2701L11.9792 21.5401C8.72925 23.4201 7.10914 25.6801 7.11914 28.3201C7.13914 30.3101 8.0692 32.0801 9.9292 33.6401C10.5392 34.1601 11.2491 34.6502 12.0591 35.1202C14.3491 36.4402 16.9391 37.3001 19.8491 37.7001C21.1191 37.8701 22.4391 37.9602 23.8291 37.9702C28.4091 37.9702 32.3191 37.0401 35.5791 35.1601L49.4392 43.1601C50.6192 43.8401 52.0292 44.3501 53.6592 44.7001C53.6692 44.7001 53.6792 44.7001 53.6892 44.7101C55.3192 45.0401 56.9391 45.1601 58.5591 45.0501L88.7292 43.1501H88.8992L89.2292 43.1202C90.4692 43.0102 91.6393 42.8002 92.7493 42.5002C93.8593 42.2002 94.8693 41.7901 95.7793 41.2701L96.3291 40.9501L106.139 35.2901C108.279 34.0601 109.349 32.5501 109.349 30.7901V30.7701C109.339 28.9901 108.249 27.4802 106.089 26.2302ZM23.7991 31.5701C22.2991 31.5701 20.9891 31.2502 19.8691 30.6002C19.8591 30.6002 19.8591 30.5901 19.8491 30.5901C19.0391 30.1201 18.5191 29.5802 18.3091 28.9902C18.2391 28.7802 18.1992 28.5601 18.1992 28.3401C18.1892 27.4701 18.7391 26.7201 19.8491 26.0801L22.4492 27.5801L27.7092 30.6202C26.6092 31.2602 25.2991 31.5801 23.7991 31.5701Z" class="pr-icon-iso-solid-stroke" stroke-linejoin="round"/>
    <path d="M19.8483 26.0801V30.5901C19.0383 30.1201 18.5182 29.5801 18.3082 28.9901C18.2382 28.7801 18.1984 28.5601 18.1984 28.3401C18.1884 27.4701 18.7383 26.7201 19.8483 26.0801Z" class="pr-icon-iso-solid-stroke" stroke-linejoin="round"/>
    <path d="M33.8687 63.62V64.1799C33.7687 64.3399 33.5786 64.4699 33.2886 64.5799C32.6986 64.7999 32.1487 64.7599 31.6187 64.4599L20.0188 57.7599L15.3286 60.4699C14.6186 60.8799 13.7488 61.0199 12.7388 60.8899C11.7188 60.7599 11.0488 60.4099 10.7188 59.8399L2.20874 45.11C2.15874 45.01 2.13867 44.9099 2.13867 44.8199C2.14867 44.5399 2.36858 44.3199 2.79858 44.1499C3.37858 43.9299 3.93874 43.9699 4.45874 44.2699L7.11865 45.8099L7.54858 46.0499L16.0586 50.9699L18.5886 49.5099L20.7488 48.2599C21.3388 47.9199 22.0286 47.7699 22.8186 47.7899C22.9886 47.7999 23.1686 47.8199 23.3486 47.8399C24.3586 47.9699 25.0286 48.3199 25.3586 48.8899L25.6787 49.4499L26.6387 51.11L30.1987 57.2799L33.8687 63.62Z" class="pr-icon-iso-solid-stroke" stroke-linejoin="round"/>
    <path d="M98.2786 30.75L88.7285 36.25V23.9399C88.7385 24.8099 89.2984 25.56 90.4084 26.21L98.2786 30.75Z" class="pr-icon-iso-solid-stroke" stroke-linejoin="round"/>
    <path d="M72.3984 12.6101V12.5901" class="pr-icon-iso-solid-stroke" stroke-linejoin="round"/>
    <path d="M58.3286 19.3799V38.5199H58.2388L57.1587 38.59L43.3887 30.6499L45.5386 29.4099L49.8286 26.9299L55.1187 23.8799C55.7487 23.5199 56.2888 23.13 56.7388 22.72C57.7988 21.73 58.3286 20.6199 58.3286 19.3799Z" class="pr-icon-iso-solid-stroke" stroke-linejoin="round"/>
    <path d="M11.9792 21.5399C8.72925 23.4199 7.10914 25.6799 7.11914 28.3199V38.58C6.62914 38.1 6.37914 37.58 6.36914 37V17C6.37914 17.87 6.93907 18.6199 8.04907 19.2699L11.9792 21.5399Z" class="pr-icon-iso-solid-stroke" stroke-linejoin="round"/>
    <path d="M33.2883 84.5801C32.6983 84.8001 32.1484 84.7601 31.6184 84.4601L20.0186 77.76V57.76L31.6184 64.4601C32.1484 64.7601 32.6983 64.8001 33.2883 64.5801C33.5783 64.4701 33.7684 64.3401 33.8684 64.1801V83.6201C34.0684 84.0301 33.8783 84.3501 33.2883 84.5801Z" class="pr-icon-iso-solid-stroke" stroke-linejoin="round"/>
    <path d="M20.0191 57.76V77.76L15.3289 80.4701C14.6189 80.8801 13.7491 81.02 12.7391 80.89C11.7191 80.76 11.049 80.4101 10.719 79.8401L2.20904 65.1101C2.16904 65.0301 2.14898 64.95 2.14898 64.88V44.8201C2.13898 44.9101 2.15904 45.0101 2.20904 45.1101L10.719 59.8401C11.049 60.4101 11.7191 60.76 12.7391 60.89C13.7491 61.02 14.6189 60.8801 15.3289 60.4701L20.0191 57.76Z" class="pr-icon-iso-solid-stroke" stroke-linejoin="round"/>
    <path d="M82.6888 48.82C79.4188 46.93 75.4887 45.98 70.9187 45.97C66.3387 45.96 62.4287 46.9 59.1687 48.78C55.9187 50.66 54.2986 52.92 54.3086 55.56C54.3086 56.07 54.3788 56.57 54.4988 57.06C55.0188 59.07 56.6088 60.8401 59.2488 62.3601C61.0488 63.4001 63.0488 64.16 65.2488 64.63C67.0388 65.01 68.9688 65.2 71.0188 65.21C74.3788 65.22 77.3789 64.71 80.0289 63.7C80.9889 63.33 81.8988 62.9 82.7688 62.4C85.5488 60.8 87.1388 58.9101 87.5188 56.7401C87.5988 56.3801 87.6287 56.01 87.6287 55.64V55.6201C87.6187 52.9801 85.9688 50.72 82.6888 48.82ZM75.4688 57.4801C75.2988 57.6101 75.1087 57.7401 74.8987 57.8601C73.7987 58.5001 72.4888 58.82 70.9888 58.82C69.5788 58.81 68.3486 58.53 67.2886 57.97C67.2086 57.93 67.1286 57.8901 67.0586 57.8501C65.9486 57.2101 65.3887 56.45 65.3787 55.58C65.3787 54.71 65.9286 53.96 67.0386 53.32C68.1386 52.68 69.4488 52.3601 70.9488 52.3701C72.4588 52.3701 73.7587 52.69 74.8787 53.34C75.9887 53.98 76.5486 54.7301 76.5586 55.6001C76.5586 56.3101 76.1988 56.9301 75.4688 57.4801Z" class="pr-icon-iso-solid-stroke" stroke-linejoin="round"/>
    <path d="M87.6287 56.7401V75.6201C87.6387 78.2601 86.0188 80.52 82.7688 82.4C79.5088 84.28 75.5988 85.2201 71.0188 85.2101C66.4488 85.2001 62.5188 84.2501 59.2488 82.3601C55.9688 80.4701 54.3186 78.2001 54.3086 75.5601V55.5601C54.3086 56.0701 54.3788 56.5701 54.4988 57.0601C55.0188 59.0701 56.6088 60.8401 59.2488 62.3601C61.0488 63.4001 63.0488 64.16 65.2488 64.63C67.0388 65.01 68.9688 65.2001 71.0188 65.2101C74.3788 65.2201 77.3788 64.7101 80.0288 63.7001C80.9888 63.3301 81.8988 62.9 82.7688 62.4C85.5488 60.8 87.1388 58.9101 87.5188 56.7401H87.6287Z" class="pr-icon-iso-solid-stroke" stroke-linejoin="round"/>
    <path d="M76.5588 55.6001C76.5588 56.3101 76.199 56.9301 75.469 57.4801C75.299 57.6101 75.1089 57.7401 74.8989 57.8601C73.7989 58.5001 72.489 58.8201 70.989 58.8201C69.579 58.8101 68.3488 58.5301 67.2888 57.9701C67.2088 57.9301 67.1288 57.8901 67.0588 57.8501C65.9488 57.2101 65.3889 56.4501 65.3789 55.5801C65.3789 54.7101 65.9288 53.9601 67.0388 53.3201C68.1388 52.6801 69.449 52.3601 70.949 52.3701C72.459 52.3701 73.7589 52.6901 74.8789 53.3401C75.9889 53.9801 76.5488 54.7301 76.5588 55.6001Z" class="pr-icon-iso-solid-stroke" stroke-linejoin="round"/>
</svg>