<svg width="24" height="24" viewBox="0 0 117 89" xmlns="http://www.w3.org/2000/svg" stroke-width="1px" stroke-linecap="round" stroke-linejoin="round">
    <path d="M29.33 36.87V56.87L22.71 60.7V40.7L29.28 36.9L29.33 36.87Z" class="pr-icon-iso-solid-stroke" stroke-linejoin="round"/>
    <path d="M40.9902 45.52V65.52L39.3402 66.48C38.4002 67.02 37.2903 67.29 36.0203 67.28C34.7503 67.28 33.6403 67.01 32.7003 66.46C31.7503 65.92 31.2803 65.28 31.2803 64.54V44.54C31.2803 45.28 31.7503 45.92 32.7003 46.46C32.9303 46.6 33.1703 46.71 33.4303 46.82C34.1803 47.12 35.0103 47.27 35.9403 47.28H36.0203C36.9203 47.28 37.7402 47.15 38.4802 46.88C38.7802 46.77 39.0702 46.64 39.3402 46.48L40.9902 45.52Z" class="pr-icon-iso-solid-stroke" stroke-linejoin="round"/>
    <path d="M69.7902 31.58V39.22L68.1702 38.29L65.7501 36.89L60.8501 34.06L65.7501 32.7L69.7902 31.58Z" class="pr-icon-iso-solid-stroke" stroke-linejoin="round"/>
    <path d="M95.7001 33.16V40.81C95.7001 40.81 95.6101 40.76 95.5701 40.73L92.3 38.84L89.04 36.96V29.32L92.3 31.2L95.7001 33.16Z" class="pr-icon-iso-solid-stroke" stroke-linejoin="round"/>
    <path d="M29.3297 36.87L29.2798 36.9L22.7097 40.7L20.0498 39.16L16.0498 36.85L22.6698 33.03L26.6698 35.34L29.2798 36.84L29.3297 36.87Z" class="pr-icon-iso-solid-stroke" stroke-linejoin="round"/>
    <path d="M98.2899 43.97C98.2899 43.88 98.2599 43.8 98.2399 43.71C97.9099 42.6 97.06 41.62 95.7 40.81C95.66 40.78 95.61 40.76 95.57 40.73L92.3 38.84L89.04 36.96L85.6499 35L79.7599 31.6L79.0199 31.18L75.92 29.39C74.91 28.81 73.7699 28.38 72.4899 28.11C71.9399 27.99 71.3699 27.91 70.7699 27.85C69.0099 27.67 67.3299 27.78 65.7499 28.17C65.5399 28.21 65.3299 28.26 65.1299 28.32L61.17 29.41L55.8 30.88L52.2 31.87L51.79 31.98C51.35 32.11 50.9099 32.27 50.4599 32.46C50.0199 32.65 49.6099 32.85 49.2199 33.08L49.18 33.1L42.56 36.93L42.5199 36.95L35.94 40.75L32.68 42.63C31.74 43.17 31.2699 43.81 31.2799 44.54C31.2799 45.28 31.75 45.92 32.7 46.46C32.93 46.6 33.17 46.71 33.43 46.82C34.18 47.12 35.01 47.27 35.94 47.28H36.0199C36.9199 47.28 37.7399 47.15 38.4799 46.88C38.7799 46.77 39.0699 46.64 39.3399 46.48L40.9899 45.52L42.56 46.43L52.05 51.91L67.6299 60.9L65.9799 61.86C65.0399 62.4 64.5699 63.03 64.5799 63.77C64.5799 64.5 65.0499 65.14 65.9999 65.69C66.9399 66.23 68.05 66.51 69.32 66.51C70.59 66.51 71.6999 66.24 72.6399 65.7L76.82 63.28L83.44 59.46L88.4099 56.6L89.18 56.15C89.57 55.92 89.9299 55.69 90.2599 55.43C90.5899 55.18 90.8599 54.92 91.0799 54.67L93.4099 51.84L95.7 49.06L97.43 46.96C98.06 46.22 98.3799 45.46 98.3799 44.66C98.3799 44.43 98.3499 44.2 98.2899 43.97ZM57.5799 43.63C56.6399 44.17 55.5399 44.44 54.2599 44.44C53.2999 44.44 52.44 44.29 51.67 43.97C51.41 43.87 51.17 43.76 50.94 43.62C50 43.08 49.5199 42.44 49.5199 41.7C49.5099 40.97 49.98 40.33 50.92 39.79C51.23 39.61 51.5599 39.46 51.9099 39.35C52.6099 39.1 53.3799 38.98 54.2299 38.98C54.7899 38.98 55.31 39.03 55.8 39.14C56.44 39.27 57.02 39.49 57.56 39.8C58.5 40.35 58.9699 40.98 58.9799 41.72C58.9799 42.45 58.5199 43.09 57.5799 43.63ZM77.56 55.17C77.29 55.33 77 55.46 76.69 55.57C75.96 55.84 75.1399 55.98 74.2399 55.98C72.9699 55.98 71.86 55.7 70.92 55.16C69.98 54.61 69.4999 53.97 69.4999 53.24C69.4899 52.72 69.73 52.24 70.2 51.82C70.39 51.64 70.6299 51.48 70.8999 51.32C71.8399 50.78 72.9399 50.51 74.2099 50.51C75.4899 50.52 76.59 50.79 77.54 51.34C78.48 51.88 78.9499 52.52 78.9599 53.25C78.9599 53.99 78.5 54.63 77.56 55.17ZM89.04 47.56L87.4799 49.44L69.79 39.22L68.17 38.29L65.7499 36.89L60.8499 34.06L65.7499 32.7L69.79 31.58L74.79 34.47L79.0199 36.91L81.4599 38.31L85.67 40.75L88.1099 42.16L89.04 42.69L91.7699 44.27L89.04 47.56Z" class="pr-icon-iso-solid-stroke" stroke-linejoin="round"/>
    <path d="M78.9598 53.2499C78.9598 53.9899 78.4999 54.6299 77.5599 55.1699C77.2899 55.3299 76.9999 55.4599 76.6899 55.5699C75.9599 55.8399 75.1398 55.9799 74.2398 55.9799C72.9698 55.9799 71.8599 55.7 70.9199 55.16C69.9799 54.61 69.4998 53.9699 69.4998 53.2399C69.4898 52.7199 69.7299 52.2399 70.1999 51.8199C70.3899 51.6399 70.6298 51.4799 70.8998 51.3199C71.8398 50.7799 72.9398 50.5099 74.2098 50.5099C75.4898 50.5199 76.5899 50.7899 77.5399 51.3399C78.4799 51.8799 78.9498 52.5199 78.9598 53.2499Z" class="pr-icon-iso-solid-stroke" stroke-linejoin="round"/>
    <path d="M58.9796 41.72C58.9796 42.45 58.5196 43.09 57.5796 43.63C56.6396 44.17 55.5397 44.44 54.2597 44.44C53.2997 44.44 52.4397 44.29 51.6697 43.97C51.4097 43.87 51.1697 43.76 50.9397 43.62C49.9997 43.08 49.5197 42.44 49.5197 41.7C49.5097 40.97 49.9797 40.33 50.9197 39.79C51.2297 39.61 51.5597 39.46 51.9097 39.35C52.6097 39.1 53.3796 38.98 54.2296 38.98C54.7896 38.98 55.3097 39.03 55.7997 39.14C56.4397 39.27 57.0197 39.49 57.5597 39.8C58.4997 40.35 58.9696 40.98 58.9796 41.72Z" class="pr-icon-iso-solid-stroke" stroke-linejoin="round"/>
    <path d="M92.2996 19.74L86.8795 22.87L85.6796 23.56L85.5995 23.51L84.4496 22.85L79.0195 19.72L85.5995 15.92L85.6395 15.9L92.2996 19.74Z" class="pr-icon-iso-solid-stroke" stroke-linejoin="round"/>
    <path d="M9.39001 33.01V53.01L2.72998 49.16V29.16L9.39001 33.01Z" class="pr-icon-iso-solid-stroke" stroke-linejoin="round"/>
    <path d="M42.5599 29.23V36.93L42.5199 36.95L35.9399 40.75V33.05L42.5199 29.25L42.5599 29.23Z" class="pr-icon-iso-solid-stroke" stroke-linejoin="round"/>
    <path d="M42.5603 29.23L42.5203 29.25L35.9403 33.05L33.2803 31.52L29.2803 29.21L35.9003 25.39L39.9003 27.7L42.5203 29.21L42.5603 29.23Z" class="pr-icon-iso-solid-stroke" stroke-linejoin="round"/>
    <path d="M49.1801 25.41V33.1L42.5601 36.93V29.23L42.52 29.21V21.57L47.9501 24.7L49.1 25.36L49.1801 25.41Z" class="pr-icon-iso-solid-stroke" stroke-linejoin="round"/>
    <path d="M67.6302 60.9L65.9802 61.86C65.0402 62.4 64.5702 63.03 64.5802 63.77V79.14L40.9902 65.52V45.52L42.5603 46.43L52.0503 51.91L67.6302 60.9Z" class="pr-icon-iso-solid-stroke" stroke-linejoin="round"/>
    <path d="M98.3801 44.66V64.64C98.3901 65.44 98.0702 66.22 97.4302 66.96L91.0801 74.67C90.8601 74.92 90.5901 75.18 90.2601 75.43C89.9301 75.69 89.5702 75.92 89.1802 76.15L72.6401 85.7C71.7001 86.24 70.5902 86.51 69.3202 86.51C68.0502 86.51 66.9401 86.23 66.0001 85.69C65.0501 85.14 64.5801 84.5 64.5801 83.77V63.77C64.5801 64.5 65.0501 65.14 66.0001 65.69C66.9401 66.23 68.0502 66.51 69.3202 66.51C70.5902 66.51 71.7001 66.24 72.6401 65.7L76.8202 63.28L83.4402 59.46L88.4102 56.6L89.1802 56.15C89.5702 55.92 89.9301 55.69 90.2601 55.43C90.5901 55.18 90.8601 54.92 91.0801 54.67L93.4102 51.84L95.7002 49.06L97.4302 46.96C98.0602 46.22 98.3801 45.46 98.3801 44.66Z" class="pr-icon-iso-solid-stroke" stroke-linejoin="round"/>
    <path d="M98.3799 44.66V44.38" class="pr-icon-iso-solid-stroke" stroke-linejoin="round"/>
    <path d="M91.77 44.27L89.04 47.56L87.48 49.44L69.79 39.22V31.58L74.79 34.47L79.02 36.91L81.46 38.31L85.67 40.75L88.11 42.16L89.04 42.69L91.77 44.27Z" class="pr-icon-iso-solid-stroke" stroke-linejoin="round"/>
    <path d="M114.96 19.8V39.78C114.97 41.28 114.06 42.56 112.24 43.61L98.3801 51.61V44.66C98.3801 44.43 98.3502 44.2 98.2902 43.97C98.2902 43.88 98.2601 43.8 98.2401 43.71C97.9101 42.6 97.0602 41.62 95.7002 40.81V33.16L101.54 29.79L112.24 23.61C114.05 22.57 114.96 21.29 114.96 19.8Z" class="pr-icon-iso-solid-stroke" stroke-linejoin="round"/>
    <path d="M55.8 21.59L50.38 24.72L49.1801 25.41L49.1 25.36L47.9501 24.7L42.52 21.57L49.1 17.77L49.14 17.75L55.8 21.59Z" class="pr-icon-iso-solid-stroke" stroke-linejoin="round"/>
    <path d="M85.65 35L79.76 31.6L79.02 31.18V19.72L84.4501 22.85L85.6 23.51L85.62 28.24L85.65 35Z" class="pr-icon-iso-solid-stroke" stroke-linejoin="round"/>
    <path d="M85.6 8.22998V15.92L79.02 19.72V31.18L75.92 29.39C74.91 28.81 73.77 28.38 72.49 28.11C71.94 27.99 71.37 27.91 70.77 27.85C69.01 27.67 67.33 27.78 65.75 28.17V19.69L85.6 8.22998Z" class="pr-icon-iso-solid-stroke" stroke-linejoin="round"/>
    <path d="M55.8002 21.59V30.88L52.2002 31.87L51.7902 31.98C51.3502 32.11 50.9101 32.27 50.4601 32.46C50.0201 32.65 49.6101 32.85 49.2201 33.08L49.1802 33.1V25.41L50.3801 24.72L55.8002 21.59Z" class="pr-icon-iso-solid-stroke" stroke-linejoin="round"/>
    <path d="M65.7501 19.69V28.17C65.5401 28.21 65.3301 28.26 65.1301 28.32L61.1702 29.41L55.8002 30.88V21.59L49.1401 17.75L49.1001 17.77V10.08L65.7501 19.69Z" class="pr-icon-iso-solid-stroke" stroke-linejoin="round"/>
    <path d="M22.7097 40.7V60.7L16.0498 56.85V36.85L20.0498 39.16L22.7097 40.7Z" class="pr-icon-iso-solid-stroke" stroke-linejoin="round"/>
    <path d="M35.9403 33.05V40.75L32.6803 42.63C31.7403 43.17 31.2703 43.81 31.2803 44.54V50.36L29.3302 49.24V36.87L29.2803 36.84V29.21L33.2803 31.52L35.9403 33.05Z" class="pr-icon-iso-solid-stroke" stroke-linejoin="round"/>
    <path d="M49.1001 10.08V17.77L42.5201 21.57V29.21L39.9001 27.7L35.9001 25.39L29.2802 29.21V36.84L26.6702 35.34L22.6702 33.03L16.0502 36.85V49.16L9.39014 53.01V33.01L49.1001 10.08Z" class="pr-icon-iso-solid-stroke" stroke-linejoin="round"/>
    <path d="M114.96 19.78V19.8C114.96 21.29 114.05 22.57 112.24 23.61L101.54 29.79L95.7001 33.16L92.3 31.2L89.04 29.32L92.3 27.44L94.88 25.94L105.58 19.76L85.6 8.22997L65.75 19.69L49.1 10.08L9.39001 33.01L2.72998 29.16L42.4401 6.22997C44.2601 5.17997 46.4701 4.65996 49.0701 4.66996C51.6701 4.66996 53.88 5.19996 55.72 6.25996L65.71 12.03L78.9401 4.37997C80.7601 3.32997 82.9701 2.80997 85.5701 2.81997C88.1701 2.81997 90.39 3.34997 92.22 4.40997L112.2 15.94C114.03 17 114.95 18.28 114.96 19.78Z" class="pr-icon-iso-solid-stroke" stroke-linejoin="round"/>
    <path d="M105.58 19.76L94.8801 25.94L92.3002 27.44V19.74L85.6401 15.9L85.6001 15.92V8.22998L105.58 19.76Z" class="pr-icon-iso-solid-stroke" stroke-linejoin="round"/>
    <path d="M92.3002 19.74V27.44L89.0402 29.32V36.96L85.6501 35L85.6201 28.24L85.6001 23.51L85.6802 23.56L86.8801 22.87L92.3002 19.74Z" class="pr-icon-iso-solid-stroke" stroke-linejoin="round"/>
</svg>