<svg width="48" height="48" viewBox="0 0 118 90" fill="#229EFF" xmlns="http://www.w3.org/2000/svg" stroke-width="1px" stroke-linecap="round" stroke-linejoin="round"><path d="M115.679 29.77C115.679 30.31 115.319 30.79 114.609 31.2C113.889 31.62 113.059 31.83 112.119 31.82C111.179 31.82 110.339 31.61 109.619 31.2L105.369 28.74C104.669 32.93 102.779 36.91 99.6989 40.68C99.5189 40.91 99.3288 41.13 99.1388 41.35C96.1188 44.85 92.1687 48.01 87.2887 50.83C87.0387 50.97 86.7887 51.11 86.5387 51.24C81.5387 54.05 75.9289 56.3 69.7089 57.99C69.5189 58.04 69.3288 58.09 69.1388 58.14C64.3888 59.41 59.4387 60.31 54.2987 60.84C52.5687 61.02 50.8187 61.16 49.0387 61.26L53.2887 63.72C53.6087 63.91 53.859 64.1 54.029 64.31C54.149 64.45 54.2387 64.6 54.2987 64.75C54.3487 64.88 54.3788 65.02 54.3788 65.16C54.3788 65.3 54.3587 65.44 54.2987 65.57C54.1687 65.95 53.8287 66.29 53.2987 66.6C52.5887 67.01 51.7588 67.22 50.8088 67.22C49.8588 67.22 49.0388 67.01 48.3188 66.59L46.3388 65.45L37.4789 60.33C37.3289 60.24 37.1787 60.15 37.0587 60.05C36.3987 59.58 36.0587 59.03 36.0587 58.41C36.0487 57.67 36.5189 57.04 37.4589 56.49L43.4789 53.02L48.2289 50.28C48.7789 49.96 49.3988 49.76 50.0888 49.7C50.1788 49.68 50.2788 49.67 50.3688 49.67C50.4888 49.66 50.5989 49.66 50.7189 49.66C51.6589 49.66 52.4889 49.87 53.2189 50.28C53.9389 50.7 54.2987 51.18 54.2987 51.73V51.75C54.2987 52.28 53.9389 52.76 53.2289 53.16L46.1088 57.28C48.8988 57.18 51.6287 56.97 54.2987 56.64C56.2187 56.42 58.1189 56.13 59.9789 55.78C61.9189 55.43 63.8189 55.01 65.6989 54.53C69.5489 53.54 73.1489 52.32 76.4789 50.87C78.5089 49.97 80.4487 49 82.2887 47.94C83.3287 47.34 84.3189 46.72 85.2589 46.08C88.7289 43.75 91.5389 41.17 93.6989 38.36C96.4489 34.79 98.0389 31.01 98.4589 27.05L91.3388 31.16C90.6188 31.58 89.7888 31.78 88.8488 31.78C87.9088 31.78 87.0688 31.57 86.3488 31.15C85.6288 30.74 85.2689 30.26 85.2589 29.71C85.2589 29.17 85.6188 28.69 86.3388 28.27L97.1088 22.06C98.0388 21.52 99.1489 21.25 100.429 21.25C101.709 21.25 102.809 21.52 103.749 22.07L114.589 28.33C115.309 28.74 115.679 29.22 115.679 29.77Z" stroke="white" stroke-linejoin="round"/><path d="M105.369 28.7402V48.7402C104.669 52.9302 102.779 56.9102 99.6992 60.6802C96.6192 64.4502 92.4791 67.8302 87.2891 70.8302C82.0991 73.8202 76.2392 76.2102 69.7092 77.9902C64.7992 79.3302 59.6892 80.2802 54.3792 80.8302V65.1602C54.3792 65.0202 54.3491 64.8802 54.2991 64.7502C54.2391 64.6002 54.1493 64.4502 54.0293 64.3102C53.8593 64.1002 53.6091 63.9102 53.2891 63.7202L49.0391 61.2602C50.8191 61.1602 52.5691 61.0202 54.2991 60.8402C59.4391 60.3102 64.3892 59.4102 69.1392 58.1402C69.3292 58.0902 69.5192 58.0402 69.7092 57.9902C75.9292 56.3002 81.5391 54.0502 86.5391 51.2402C86.7891 51.1102 87.0391 50.9702 87.2891 50.8302C92.1691 48.0102 96.1192 44.8502 99.1392 41.3502C99.3292 41.1302 99.5192 40.9102 99.6992 40.6802C102.779 36.9102 104.669 32.9302 105.369 28.7402Z" stroke="white" stroke-linejoin="round"/><path d="M67.1191 8.56998C59.6691 4.26998 50.7892 2.10998 40.4892 2.08998C30.1792 2.06998 21.3291 4.19998 13.9291 8.46998C6.52914 12.75 2.84909 17.86 2.87909 23.81C2.89909 27.43 4.28902 30.75 7.05902 33.75C8.72902 35.57 10.9091 37.29 13.5991 38.88C13.7591 38.98 13.9291 39.08 14.0991 39.18C21.5491 43.48 30.4192 45.64 40.7292 45.66H40.8891C44.1991 45.66 47.3591 45.44 50.3691 44.99C51.0891 44.88 51.7892 44.76 52.4892 44.63C57.9292 43.61 62.8592 41.83 67.2792 39.28C70.1192 37.64 72.4091 35.88 74.1491 33.99C76.9491 30.98 78.3391 27.65 78.3391 24.01V23.94C78.2991 17.99 74.5591 12.87 67.1191 8.56998ZM62.2692 34.37C61.7692 34.72 61.2191 35.07 60.6091 35.43C57.5391 37.2 54.1291 38.47 50.3691 39.26C50.2191 39.29 50.0791 39.32 49.9291 39.34C47.1091 39.9 44.0991 40.18 40.8891 40.19H40.6992C38.2492 40.18 35.9091 40.02 33.6891 39.69C33.4491 39.66 33.2192 39.63 32.9892 39.59C31.1192 39.29 29.3291 38.87 27.6191 38.34C26.4491 37.98 25.3192 37.56 24.2192 37.09C23.0092 36.58 21.8492 35.99 20.7292 35.35C19.8592 34.85 19.059 34.33 18.319 33.79C16.139 32.22 14.559 30.51 13.579 28.67C12.729 27.09 12.3191 25.41 12.3491 23.63C12.4391 19.09 15.3292 15.24 21.0092 12.08C25.1192 13.75 29.6591 14.94 34.6191 15.64C39.5791 16.33 44.559 16.46 49.539 16.02V16.18C49.539 18.55 50.1691 20.83 51.4291 23.01C51.9191 23.87 52.5192 24.72 53.2092 25.55C55.6892 28.55 59.2092 31.1 63.7592 33.22C63.2592 33.64 62.7692 34.02 62.2692 34.37Z" stroke="white" stroke-linejoin="round"/><path d="M50.3691 30.6098V39.2598C50.2191 39.2898 50.0792 39.3198 49.9292 39.3398C47.1092 39.8998 44.0992 40.1798 40.8892 40.1898V30.5898C40.8992 31.3298 41.3691 31.9698 42.3191 32.5098C43.2591 33.0598 44.3692 33.3298 45.6392 33.3398C46.9192 33.3398 48.0292 33.0698 48.9592 32.5298C49.1792 32.3998 49.3691 32.2698 49.5391 32.1298C50.0891 31.6798 50.3691 31.1698 50.3691 30.6098Z" stroke="white" stroke-linejoin="round"/><path d="M50.3691 30.6104C50.3691 31.1704 50.0891 31.6804 49.5391 32.1304C49.3691 32.2704 49.1792 32.4004 48.9592 32.5304C48.0292 33.0704 46.9192 33.3404 45.6392 33.3404C44.3692 33.3404 43.2591 33.0604 42.3191 32.5104C41.3691 31.9704 40.8992 31.3304 40.8892 30.5904C40.8892 29.8604 41.3591 29.2204 42.2991 28.6804C43.2291 28.1304 44.3391 27.8604 45.6191 27.8704C46.8891 27.8704 47.9992 28.1404 48.9392 28.6904C49.1692 28.8204 49.3691 28.9604 49.5391 29.1004C50.0891 29.5404 50.3591 30.0504 50.3691 30.6104Z" stroke="white" stroke-linejoin="round"/><path d="M63.7593 33.2197C63.2593 33.6397 62.7693 34.0197 62.2693 34.3697C61.7693 34.7197 61.2191 35.0697 60.6091 35.4297C57.5391 37.1997 54.1291 38.4697 50.3691 39.2597V30.6097C50.3591 30.0497 50.0891 29.5397 49.5391 29.0997V16.1797C49.5391 18.5497 50.1692 20.8297 51.4292 23.0097C51.9192 23.8697 52.5192 24.7197 53.2092 25.5497C55.6892 28.5497 59.2093 31.0997 63.7593 33.2197Z" stroke="white" stroke-linejoin="round"/><path d="M49.5391 16.0201V29.1001C49.3691 28.9601 49.1692 28.8201 48.9392 28.6901C47.9992 28.1401 46.8891 27.8701 45.6191 27.8701C44.3391 27.8601 43.2291 28.1301 42.2991 28.6801C41.3591 29.2201 40.8892 29.8601 40.8892 30.5901V36.2101C38.7992 36.1201 36.7091 35.9301 34.6191 35.6401C34.3091 35.6001 33.9992 35.5501 33.6892 35.4901V20.9801C33.6892 20.2501 33.2193 19.6101 32.2693 19.0601C31.3293 18.5201 30.2192 18.2401 28.9392 18.2401C27.6592 18.2401 26.5591 18.5101 25.6191 19.0501C24.6791 19.5901 24.2192 20.2301 24.2192 20.9701V33.2601C23.1192 32.9001 22.0493 32.5001 21.0093 32.0801V12.0801C25.1193 13.7501 29.6591 14.9401 34.6191 15.6401C39.5791 16.3301 44.5591 16.4601 49.5391 16.0201Z" stroke="white" stroke-linejoin="round"/><path d="M33.6892 20.9802V21.0002C33.6892 21.5502 33.4192 22.0602 32.8792 22.5002C32.7092 22.6402 32.5091 22.7702 32.2891 22.9002C31.3491 23.4402 30.2492 23.7102 28.9692 23.7102C28.2792 23.7102 27.6391 23.6302 27.0491 23.4602C26.5491 23.3302 26.0792 23.1402 25.6392 22.8902C24.6992 22.3402 24.2192 21.7002 24.2192 20.9702C24.2192 20.2402 24.6791 19.5902 25.6191 19.0502C26.5591 18.5102 27.6692 18.2402 28.9392 18.2402C30.2092 18.2402 31.3293 18.5202 32.2693 19.0602C33.2193 19.6102 33.6892 20.2502 33.6892 20.9802Z" stroke="white" stroke-linejoin="round"/><path d="M33.6892 20.9997V39.6897C33.4492 39.6597 33.2193 39.6297 32.9893 39.5897C31.1193 39.2897 29.3291 38.8697 27.6191 38.3397C26.4491 37.9797 25.3192 37.5597 24.2192 37.0897V20.9697C24.2192 21.6997 24.6992 22.3397 25.6392 22.8897C26.0792 23.1397 26.5491 23.3297 27.0491 23.4597C27.6391 23.6297 28.2792 23.7097 28.9692 23.7097C30.2492 23.7097 31.3491 23.4397 32.2891 22.8997C32.5091 22.7697 32.7092 22.6397 32.8792 22.4997C33.4192 22.0597 33.6892 21.5497 33.6892 20.9997Z" stroke="white" stroke-linejoin="round"/><path d="M21.0093 12.0801V32.0801C20.0293 32.6301 19.1292 33.1901 18.3192 33.7901C16.1392 32.2201 14.5592 30.5101 13.5792 28.6701C12.7292 27.0901 12.3192 25.4101 12.3492 23.6301C12.4392 19.0901 15.3293 15.2401 21.0093 12.0801Z" stroke="white" stroke-linejoin="round"/><path d="M54.2993 51.75V56.64C51.6293 56.97 48.8994 57.18 46.1094 57.28L53.2295 53.16C53.9395 52.76 54.2993 52.28 54.2993 51.75Z" stroke="white" stroke-linejoin="round"/><path d="M78.3389 24.0096V43.9396C78.3489 46.3896 77.729 48.7096 76.479 50.8696C73.149 52.3196 69.549 53.5396 65.699 54.5296C63.819 55.0096 61.919 55.4296 59.979 55.7796C58.119 56.1296 56.2188 56.4196 54.2988 56.6396V51.7296C54.2988 51.1796 53.939 50.6996 53.219 50.2796C52.489 49.8696 51.659 49.6596 50.719 49.6596C50.599 49.6596 50.4889 49.6596 50.3689 49.6696C50.2789 49.6696 50.1789 49.6796 50.0889 49.6996C49.3989 49.7596 48.779 49.9596 48.229 50.2796L43.479 53.0196L37.459 56.4896C36.519 57.0396 36.0488 57.6696 36.0588 58.4096V65.4896C27.7088 64.9196 20.3989 62.8196 14.0989 59.1796C6.64888 54.8796 2.90891 49.7596 2.87891 43.8096V23.8096C2.89891 27.4296 4.28884 30.7496 7.05884 33.7496C8.72884 35.5696 10.9089 37.2896 13.5989 38.8796C13.7589 38.9796 13.9289 39.0796 14.0989 39.1796C21.5489 43.4796 30.419 45.6396 40.729 45.6596H40.8889C44.1989 45.6596 47.3589 45.4396 50.3689 44.9896C51.0889 44.8796 51.789 44.7596 52.489 44.6296C57.929 43.6096 62.8591 41.8296 67.2791 39.2796C70.1191 37.6396 72.4089 35.8796 74.1489 33.9896C76.9489 30.9796 78.3389 27.6496 78.3389 24.0096Z" stroke="white" stroke-linejoin="round"/><path d="M98.4592 27.0498C98.0392 31.0098 96.4492 34.7898 93.6992 38.3598C91.5392 41.1698 88.7293 43.7498 85.2593 46.0798V29.7098C85.2693 30.2598 85.6291 30.7398 86.3491 31.1498C87.0691 31.5698 87.9091 31.7798 88.8491 31.7798C89.7891 31.7798 90.6191 31.5798 91.3391 31.1598L98.4592 27.0498Z" stroke="white" stroke-linejoin="round"/><path d="M115.679 29.7702V49.7702C115.679 50.3102 115.319 50.7902 114.609 51.2002C113.889 51.6202 113.059 51.8302 112.119 51.8202C111.179 51.8202 110.339 51.6102 109.619 51.2002L105.369 48.7402V28.7402L109.619 31.2002C110.339 31.6102 111.179 31.8202 112.119 31.8202C113.059 31.8302 113.889 31.6202 114.609 31.2002C115.319 30.7902 115.679 30.3102 115.679 29.7702Z" stroke="white" stroke-linejoin="round"/><path d="M54.3792 65.1602V85.1602C54.3792 85.7002 54.0191 86.1802 53.2991 86.6002C52.5891 87.0102 51.7591 87.2202 50.8091 87.2202C49.8591 87.2202 49.0391 87.0101 48.3191 86.5901L37.4792 80.3302C36.5392 79.7902 36.0591 79.1502 36.0591 78.4102V58.4102C36.0591 59.0302 36.3991 59.5802 37.0591 60.0502C37.1791 60.1502 37.3292 60.2402 37.4792 60.3302L46.3391 65.4501L48.3191 66.5901C49.0391 67.0101 49.8691 67.2202 50.8091 67.2202C51.7491 67.2202 52.5891 67.0102 53.2991 66.6002C53.8291 66.2902 54.1691 65.9502 54.2991 65.5702C54.3591 65.4402 54.3792 65.3002 54.3792 65.1602Z" stroke="white" stroke-linejoin="round"/></svg>