<svg width="24" height="24" viewBox="0 0 111 86" xmlns="http://www.w3.org/2000/svg" stroke-width="1px" stroke-linecap="round" stroke-linejoin="round">
    <path d="M104.11 21.85C101.5 18.08 97.5999 14.69 92.4099 11.7C87.2099 8.69999 81.3501 6.44998 74.8301 4.93998C68.3001 3.42998 61.6699 2.66998 54.9299 2.65998C48.1899 2.64998 41.57 3.37999 35.06 4.86999C28.55 6.34999 22.71 8.57999 17.55 11.56C12.39 14.54 8.52995 17.91 5.95995 21.67C3.38995 25.43 2.12013 29.25 2.14013 33.14C2.16013 36.49 3.14006 39.79 5.07006 43.05C5.38006 43.58 5.72007 44.1 6.08007 44.63C8.69007 48.39 12.59 51.78 17.79 54.78C20.93 56.59 24.3099 58.13 27.9399 59.4C30.3099 60.23 32.7901 60.94 35.3701 61.53C37.5601 62.04 39.77 62.46 41.99 62.79C46.37 63.47 50.79 63.8 55.26 63.81C62 63.81 68.6201 63.09 75.1301 61.61C81.6401 60.12 87.4801 57.89 92.6401 54.91C97.8001 51.93 101.67 48.56 104.23 44.8C104.54 44.34 104.84 43.88 105.12 43.42C107.08 40.14 108.06 36.8 108.06 33.42V33.33C108.03 29.44 106.72 25.61 104.11 21.85ZM45.6501 17.01C47.2101 16.12 49.08 15.67 51.26 15.67C53.44 15.68 55.3201 16.13 56.8801 17.03C58.4401 17.94 59.23 19.02 59.24 20.28C59.24 21.19 58.84 22.01 58.03 22.73C57.72 23.01 57.3499 23.27 56.9199 23.52C55.3599 24.41 53.49 24.86 51.31 24.86C49.13 24.85 47.2499 24.4 45.6899 23.5C45.5099 23.39 45.3399 23.29 45.1799 23.18C43.9499 22.34 43.3401 21.36 43.3301 20.25C43.3201 18.99 44.1001 17.91 45.6501 17.01ZM62.99 48.19C62.47 49.07 61.3301 49.62 59.5801 49.83C55.0301 50.36 50.5599 50.18 46.1599 49.29C41.7499 48.4 37.8901 47 34.5801 45.08C31.2001 43.13 28.75 40.88 27.24 38.32C25.73 35.76 25.4699 33.15 26.4499 30.48C26.7599 29.51 27.6601 28.88 29.1501 28.6C30.6501 28.31 31.9601 28.49 33.0901 29.15C33.5901 29.43 33.9301 29.76 34.1201 30.12C34.3101 30.48 34.34 30.88 34.22 31.31C33.73 33.25 34.01 35.15 35.05 37.01C36.09 38.87 37.7999 40.48 40.1699 41.85C42.5499 43.23 45.35 44.21 48.56 44.81C51.78 45.41 55.0699 45.57 58.4399 45.29C59.1199 45.18 59.7801 45.18 60.4001 45.29C61.0301 45.4 61.5901 45.6 62.0901 45.89C63.2201 46.54 63.52 47.31 62.99 48.19ZM83.1999 38.69C81.6399 39.59 79.7701 40.03 77.5901 40.03C75.4101 40.03 73.53 39.57 71.97 38.67C70.4 37.77 69.6201 36.68 69.6101 35.42C69.6001 34.16 70.3799 33.08 71.9299 32.19C73.4899 31.29 75.36 30.84 77.54 30.85C79.72 30.85 81.5999 31.3 83.1599 32.21C84.7299 33.11 85.51 34.19 85.52 35.45C85.52 36.71 84.7499 37.79 83.1999 38.69Z" class="pr-icon-iso-solid-stroke" stroke-linejoin="round"/>
    <path d="M62.9899 48.19C62.4699 49.07 61.33 49.62 59.58 49.83C55.03 50.36 50.5598 50.18 46.1598 49.29C41.7498 48.4 37.89 47 34.58 45.08C31.2 43.13 28.7499 40.88 27.2399 38.32C25.7299 35.76 25.4699 33.15 26.4499 30.48C26.7599 29.51 27.6601 28.88 29.1501 28.6C30.6501 28.31 31.96 28.49 33.09 29.15C33.59 29.43 33.9301 29.76 34.1201 30.12C34.3101 30.48 34.3399 30.88 34.2199 31.31C33.7299 33.25 34.01 35.15 35.05 37.01C36.09 38.87 37.7999 40.48 40.1699 41.85C42.5499 43.23 45.35 44.21 48.56 44.81C51.78 45.41 55.0699 45.57 58.4399 45.29C59.1199 45.18 59.7801 45.18 60.4001 45.29C61.0301 45.4 61.59 45.6 62.09 45.89C63.22 46.54 63.5199 47.31 62.9899 48.19Z" class="pr-icon-iso-solid-stroke" stroke-linejoin="round"/>
    <path d="M85.5201 35.45C85.5201 36.71 84.75 37.79 83.2 38.69C81.64 39.59 79.7702 40.03 77.5902 40.03C75.4102 40.03 73.5301 39.57 71.9701 38.67C70.4001 37.77 69.6202 36.68 69.6102 35.42C69.6002 34.16 70.38 33.08 71.93 32.19C73.49 31.29 75.3601 30.84 77.5401 30.85C79.7201 30.85 81.6 31.3 83.16 32.21C84.73 33.11 85.5101 34.19 85.5201 35.45Z" class="pr-icon-iso-solid-stroke" stroke-linejoin="round"/>
    <path d="M59.2401 20.28C59.2401 21.19 58.8401 22.01 58.0301 22.73C57.7201 23.01 57.35 23.27 56.92 23.52C55.36 24.41 53.4902 24.86 51.3102 24.86C49.1302 24.85 47.25 24.4 45.69 23.5C45.51 23.39 45.34 23.29 45.18 23.18C43.95 22.34 43.3402 21.36 43.3302 20.25C43.3202 18.99 44.1002 17.91 45.6502 17.01C47.2102 16.12 49.0801 15.67 51.2601 15.67C53.4401 15.68 55.3202 16.13 56.8802 17.03C58.4402 17.94 59.2301 19.02 59.2401 20.28Z" class="pr-icon-iso-solid-stroke" stroke-linejoin="round"/>
    <path d="M108.06 33.42V53.33C108.08 57.22 106.8 61.05 104.23 64.8C101.67 68.56 97.8001 71.93 92.6401 74.91C87.4801 77.89 81.6401 80.12 75.1301 81.61C68.6201 83.09 62 83.82 55.26 83.81C48.53 83.8 41.8901 83.04 35.3701 81.53C28.8401 80.03 22.98 77.78 17.79 74.78C12.59 71.78 8.69008 68.39 6.08008 64.63C3.48008 60.86 2.16014 57.03 2.14014 53.14V33.14C2.16014 36.49 3.14007 39.79 5.07007 43.05C5.38007 43.58 5.72008 44.1 6.08008 44.63C8.69008 48.39 12.59 51.78 17.79 54.78C20.93 56.59 24.3099 58.13 27.9399 59.4C30.3099 60.23 32.7901 60.94 35.3701 61.53C37.5601 62.04 39.77 62.46 41.99 62.79C46.37 63.47 50.79 63.8 55.26 63.81C62 63.81 68.6201 63.09 75.1301 61.61C81.6401 60.12 87.4801 57.89 92.6401 54.91C97.8001 51.93 101.67 48.56 104.23 44.8C104.54 44.34 104.84 43.88 105.12 43.42C107.08 40.14 108.06 36.8 108.06 33.42Z" class="pr-icon-iso-solid-stroke" stroke-linejoin="round"/>
</svg>