<svg width="48" height="48" viewBox="0 0 124 87" xmlns="http://www.w3.org/2000/svg" stroke-width="1px"
     stroke-linecap="round" stroke-linejoin="round">
    <path d="M113.58 54.9299L113.29 55.0999L113.47 55.2C113.95 55.47 114.46 55.6799 115.02 55.8199V52.96C115.02 53.72 114.54 54.3699 113.58 54.9299Z" class="pr-icon-iso-solid-stroke" stroke-linejoin="round"/>
    <path d="M72.3903 23.28L72.1003 23.44L65.2903 27.38L55.8903 32.8C54.5603 32.72 53.2004 32.68 51.8204 32.68C50.4404 32.68 49.2104 32.71 47.9404 32.77L31.3604 23.2101C34.2004 21.5701 37.3903 20.3601 40.9203 19.5701C44.4403 18.7901 48.0603 18.38 51.7603 18.36C55.4703 18.33 59.1203 18.73 62.7103 19.56C63.1503 19.66 63.5804 19.77 64.0004 19.88C67.0804 20.7 69.8803 21.83 72.3903 23.28Z" class="pr-icon-iso-solid-stroke" stroke-linejoin="round"/>
    <path d="M121.75 33.2401C121.75 33.9901 121.27 34.6502 120.31 35.2102C119.34 35.7702 118.2 36.0402 116.89 36.0402C115.58 36.0402 114.44 35.7602 113.47 35.2002L65.46 7.4801C64.49 6.9201 64 6.26012 64 5.50012C64 4.74012 64.48 4.09015 65.44 3.53015C66.41 2.97015 67.55 2.7002 68.86 2.7002C70.17 2.7002 71.31 2.98016 72.28 3.54016L120.29 31.2601C121.26 31.8201 121.75 32.4801 121.75 33.2401Z" class="pr-icon-iso-solid-stroke" stroke-linejoin="round"/>
    <path d="M39.8401 56.7704C39.8401 57.5304 39.3601 58.1904 38.3901 58.7404C37.4301 59.3004 36.2902 59.5804 34.9802 59.5804C33.6702 59.5704 32.5302 59.2903 31.5602 58.7303L11.1602 46.9604L8.08014 45.1804L4.12018 42.8904C3.15018 42.3304 2.67016 41.6704 2.66016 40.9204C2.66016 40.1604 3.14016 39.5004 4.10016 38.9504C5.07016 38.3904 6.21014 38.1104 7.52014 38.1104C7.71014 38.1104 7.90014 38.1204 8.08014 38.1404C9.16014 38.2104 10.1102 38.4804 10.9402 38.9604L17.9802 43.0204L38.3702 54.8004C39.3402 55.3604 39.8301 56.0204 39.8401 56.7704Z" class="pr-icon-iso-solid-stroke" stroke-linejoin="round"/>
    <path d="M113.56 50.9798L112.27 50.2398C111.64 49.8798 110.89 49.6197 110 49.4697C109.12 49.3197 108.22 49.3498 107.31 49.5398L104.57 50.0598L99.8802 50.9599L95.7601 48.5798L82.7402 41.0598L85.8602 39.2598L92.6802 35.3198L92.9602 35.1598C94.8202 34.0898 95.7601 32.7698 95.7601 31.2398V31.2197C95.7501 29.6697 94.8002 28.3498 92.9202 27.2598L79.2001 19.3497C74.6501 16.7197 69.5902 14.8698 64.0002 13.7998C60.1802 13.0598 56.1202 12.6898 51.8202 12.6798C41.2202 12.6598 32.1202 14.8498 24.5102 19.2498L10.8802 27.1198C9.00021 28.1998 8.07016 29.5098 8.08016 31.0598C8.09016 32.5998 9.03018 33.9198 10.9202 35.0098L21.3902 41.0498L45.2102 54.8098C47.1002 55.8998 49.3802 56.4398 52.0602 56.4498C54.7302 56.4498 57.0102 55.9198 58.8802 54.8298L62.9702 52.4697L86.3602 63.5198C86.9502 63.7998 87.5702 64.0297 88.2102 64.2197C89.6702 64.6597 91.2501 64.8498 92.9501 64.8098C95.4001 64.7498 97.5102 64.2098 99.2702 63.1998L113.29 55.0997L113.58 54.9298C114.54 54.3698 115.02 53.7199 115.02 52.9599C115.02 52.1999 114.53 51.5498 113.56 50.9798ZM72.1002 23.4398L65.2902 27.3798L55.8902 32.7998L51.9402 35.0798L47.9402 32.7698L31.3602 23.2099C34.2002 21.5699 37.3902 20.3598 40.9202 19.5698C44.4402 18.7898 48.0602 18.3798 51.7602 18.3598C55.4702 18.3298 59.1202 18.7298 62.7102 19.5598C63.1502 19.6598 63.5802 19.7698 64.0002 19.8798C67.0802 20.6998 69.8802 21.8298 72.3902 23.2798L72.1002 23.4398Z" class="pr-icon-iso-solid-stroke" stroke-linejoin="round"/>
    <path d="M121.75 33.24V53.24C121.75 53.99 121.27 54.6501 120.31 55.2101C119.34 55.7701 118.2 56.04 116.89 56.04C116.22 56.04 115.6 55.9701 115.02 55.8201V52.9601C115.02 52.2001 114.53 51.55 113.56 50.98L112.27 50.24C111.64 49.88 110.89 49.62 110 49.47C109.12 49.32 108.22 49.35 107.31 49.54L104.57 50.0601L95.7599 44.97V31.22C95.7499 29.67 94.8 28.35 92.92 27.26L79.2 19.35C74.65 16.72 69.59 14.87 64 13.8V5.5C64 6.26 64.49 6.91998 65.46 7.47998L113.47 35.2001C114.44 35.7601 115.58 36.04 116.89 36.04C118.2 36.04 119.34 35.7701 120.31 35.2101C121.27 34.6501 121.75 33.99 121.75 33.24Z" class="pr-icon-iso-solid-stroke" stroke-linejoin="round"/>
    <path d="M95.7602 31.2402V48.5803L82.7402 41.0603L85.8602 39.2603L92.6802 35.3203L92.9602 35.1603C94.8202 34.0903 95.7602 32.7702 95.7602 31.2402Z" class="pr-icon-iso-solid-stroke" stroke-linejoin="round"/>
    <path d="M115.02 55.8198V72.9598C115.02 73.7198 114.54 74.3698 113.58 74.9298L99.2697 83.1998C97.5097 84.2098 95.3997 84.7498 92.9497 84.8098C90.4997 84.8698 88.3097 84.4398 86.3597 83.5198L62.9697 72.4697V52.4697L86.3597 63.5198C86.9497 63.7998 87.5697 64.0297 88.2097 64.2197C89.6697 64.6597 91.2497 64.8498 92.9497 64.8098C95.3997 64.7498 97.5097 64.2098 99.2697 63.1998L113.29 55.0997L113.47 55.1998C113.95 55.4698 114.46 55.6798 115.02 55.8198Z" class="pr-icon-iso-solid-stroke" stroke-linejoin="round"/>
    <path d="M62.9701 52.4705V72.4705L58.8801 74.8306C57.0101 75.9206 54.7301 76.4506 52.0601 76.4506C49.3801 76.4406 47.1001 75.9005 45.2101 74.8105L39.8401 71.7106V56.7705C39.8301 56.0205 39.3401 55.3605 38.3701 54.8005L17.9801 43.0205L10.9401 38.9606C10.1101 38.4806 9.16008 38.2105 8.08008 38.1405V31.0605C8.09008 32.6005 9.0301 33.9205 10.9201 35.0105L21.3901 41.0505L45.2101 54.8105C47.1001 55.9005 49.3801 56.4406 52.0601 56.4506C54.7301 56.4506 57.0101 55.9206 58.8801 54.8306L62.9701 52.4705Z" class="pr-icon-iso-solid-stroke" stroke-linejoin="round"/>
    <path d="M39.8401 56.7699V76.7699C39.8401 77.5299 39.3601 78.1899 38.3901 78.7399C37.4301 79.2999 36.2902 79.58 34.9802 79.58C33.6702 79.57 32.5302 79.2899 31.5602 78.7299L4.12018 62.8899C3.15018 62.3299 2.67016 61.6699 2.66016 60.9199V40.9199C2.67016 41.6699 3.15018 42.3299 4.12018 42.8899L8.08014 45.1799L11.1602 46.96L31.5602 58.7299C32.5302 59.2899 33.6702 59.57 34.9802 59.58C36.2902 59.58 37.4301 59.2999 38.3901 58.7399C39.3601 58.1899 39.8401 57.5299 39.8401 56.7699Z" class="pr-icon-iso-solid-stroke" stroke-linejoin="round"/>
</svg>