<svg width="48" height="48" viewBox="0 0 113 77" xmlns="http://www.w3.org/2000/svg" stroke-width="1px"
     stroke-linecap="round" stroke-linejoin="round">
    <path d="M79.9902 40.5599L73.0503 44.5599L65.9502 40.46L60.4802 37.2999V34.4999C60.4702 33.8499 60.1703 33.2899 59.5703 32.8199V26.46C59.5703 27.97 60.5302 29.2799 62.4202 30.4099C62.4602 30.4299 62.5003 30.4599 62.5403 30.4799L72.8904 36.46L79.9902 40.5599Z" class="pr-icon-iso-solid-stroke" stroke-linejoin="round"/>
    <path d="M110.73 32.5801V52.5801C110.73 54.1201 109.761 55.4601 107.791 56.5901L104.321 58.5901C103.401 59.1301 102.241 59.39 100.851 59.39C99.4606 59.39 98.3006 59.1201 97.3706 58.5801L93.8806 56.5601C93.7006 56.4601 93.5306 56.35 93.3906 56.23V42.5901C93.3806 41.7401 93.0805 40.96 92.4805 40.23V34.55C92.4805 35.36 92.9506 36.0301 93.8806 36.5601L97.3706 38.5801C98.3006 39.1201 99.4606 39.39 100.851 39.39C102.241 39.39 103.401 39.1301 104.321 38.5901L107.791 36.5901C109.761 35.4601 110.73 34.1201 110.73 32.5801Z" class="pr-icon-iso-solid-stroke" stroke-linejoin="round"/>
    <path d="M110.73 32.5801C110.73 34.1201 109.76 35.4601 107.79 36.5901L104.32 38.5901C103.4 39.1301 102.24 39.39 100.85 39.39C99.4602 39.39 98.3002 39.1201 97.3702 38.5801L93.8802 36.5601C92.9502 36.0301 92.4801 35.36 92.4801 34.55C92.4701 33.75 92.9302 33.08 93.8602 32.55L79.9 24.49L72.97 28.49L79.94 32.52L86.44 36.27L90.41 38.5701C91.3 39.0801 91.9901 39.64 92.4801 40.23C93.0801 40.96 93.3802 41.7401 93.3902 42.5901V42.61C93.3902 43.46 93.0901 44.25 92.4801 44.98C92.0001 45.56 91.32 46.1 90.46 46.6L87.0001 48.5901L80.0701 52.5901H80.0501C78.0901 53.7401 75.7702 54.3 73.1102 54.3C70.6202 54.29 68.4301 53.79 66.5401 52.79C66.4001 52.73 66.2702 52.6601 66.1402 52.5801L60.4801 49.3101L45.21 40.49C45.21 40.49 45.1302 40.44 45.0902 40.42C43.1902 39.29 42.2401 37.98 42.2301 36.47C42.2201 34.93 43.2 33.5901 45.16 32.4601L48.6302 30.4601C49.5602 29.9201 50.7102 29.66 52.1002 29.66C53.4902 29.66 54.6602 29.93 55.5902 30.47L58.95 32.41L59.0802 32.49C59.2602 32.59 59.4301 32.7001 59.5701 32.8201C60.1701 33.2901 60.4701 33.85 60.4801 34.5C60.4801 35.15 60.1801 35.7101 59.5701 36.1801C59.4301 36.3001 59.2702 36.4 59.1002 36.5L59.5701 36.77L60.4801 37.3L65.95 40.4601L73.0501 44.5601L79.9901 40.5601L72.8902 36.4601L62.5401 30.48C62.5401 30.48 62.46 30.43 62.42 30.41C60.53 29.28 59.5701 27.9701 59.5701 26.4601C59.5601 24.9701 60.4601 23.6801 62.3001 22.5701C62.3701 22.5301 62.4301 22.4901 62.5001 22.4501L66.41 20.1901L72.9 16.4501C74.87 15.3101 77.1802 14.75 79.8502 14.75C82.5202 14.76 84.8401 15.33 86.8101 16.47L107.75 28.5601C109.73 29.7001 110.72 31.0401 110.73 32.5801Z" class="pr-icon-iso-solid-stroke" stroke-linejoin="round"/>
    <path d="M66.4099 6.39001V6.41003C66.4099 7.54003 65.6599 8.54002 64.1699 9.40002L38.1599 24.42C35.2699 26.08 31.8 26.91 27.74 26.91C25.37 26.9 23.1899 26.61 21.2099 26.03C19.8099 25.63 18.5 25.08 17.3 24.38L6.83004 18.3301C3.92004 16.6601 2.45991 14.65 2.44991 12.3C2.42991 9.96005 3.86997 7.95004 6.75997 6.29004L8.49996 5.29004C9.99996 4.42004 11.7399 3.98999 13.7099 3.98999C15.6799 3.98999 17.4199 4.43005 18.9299 5.30005C20.4399 6.18005 21.1999 7.18007 21.2099 8.32007C21.2099 9.46007 20.4699 10.4601 18.9599 11.3301L17.2299 12.3301L21.2099 14.63L27.6999 18.37L53.6999 3.35999C55.1999 2.48999 56.9399 2.06006 58.9099 2.06006C60.8799 2.07006 62.6201 2.5 64.1401 3.38C65.6501 4.25 66.4099 5.26001 66.4099 6.39001Z" class="pr-icon-iso-solid-stroke" stroke-linejoin="round"/>
    <path d="M93.3901 42.61V62.5901C93.4001 64.1301 92.42 65.46 90.46 66.6L80.05 72.6C78.09 73.74 75.7701 74.3 73.1101 74.3C70.4401 74.29 68.1201 73.7201 66.1401 72.5801L45.21 60.49C43.23 59.35 42.24 58.01 42.23 56.47V36.47C42.24 37.98 43.1901 39.29 45.0901 40.42C45.1301 40.44 45.17 40.47 45.21 40.49L60.48 49.3101L66.1401 52.5801C66.2701 52.6601 66.4 52.73 66.54 52.79C68.43 53.79 70.6201 54.29 73.1101 54.3C75.7701 54.3 78.09 53.74 80.05 52.6H80.0701L87 48.5901L90.46 46.6C91.32 46.1 92 45.56 92.48 44.98C93.09 44.25 93.3901 43.46 93.3901 42.61Z" class="pr-icon-iso-solid-stroke" stroke-linejoin="round"/>
    <path d="M60.48 34.5V37.3L59.5701 36.77L59.1001 36.5C59.2701 36.4 59.4301 36.3001 59.5701 36.1801C60.1801 35.7101 60.48 35.15 60.48 34.5Z" class="pr-icon-iso-solid-stroke" stroke-linejoin="round"/>
    <path d="M66.4102 6.41016V20.1902L62.5002 22.4502C62.4302 22.4902 62.3703 22.5302 62.3003 22.5702C60.4603 23.6802 59.5603 24.9702 59.5703 26.4602V32.0602L58.9502 32.4102L55.5903 30.4701C54.6603 29.9301 53.5003 29.6602 52.1003 29.6602C50.7003 29.6602 49.5604 29.9202 48.6304 30.4602L45.1602 32.4602C43.2002 33.5902 42.2202 34.9301 42.2302 36.4701V42.0702L38.1602 44.4202C35.2702 46.0802 31.8002 46.9102 27.7402 46.9102C23.6902 46.9002 20.2003 46.0601 17.3003 44.3801L6.83032 38.3302C3.92032 36.6602 2.4602 34.6502 2.4502 32.3002V12.3002C2.4602 14.6502 3.92032 16.6602 6.83032 18.3302L17.3003 24.3801C18.5003 25.0801 19.8102 25.6302 21.2102 26.0302C23.1902 26.6102 25.3702 26.9002 27.7402 26.9102C31.8002 26.9102 35.2702 26.0802 38.1602 24.4202L64.1702 9.40015C65.6602 8.54015 66.4102 7.54016 66.4102 6.41016Z" class="pr-icon-iso-solid-stroke" stroke-linejoin="round"/>
    <path d="M21.21 8.32007V14.63L17.23 12.3301L18.96 11.3301C20.47 10.4601 21.21 9.46007 21.21 8.32007Z" class="pr-icon-iso-solid-stroke" stroke-linejoin="round"/>
    <path d="M79.9397 32.52L72.9697 28.49L79.8997 24.49L79.9397 32.52Z" class="pr-icon-iso-solid-stroke" stroke-linejoin="round"/>
    <path d="M93.8601 32.55C92.9301 33.08 92.47 33.75 92.48 34.55V40.23C91.99 39.64 91.2999 39.0801 90.4099 38.5701L86.4399 36.27L79.9399 32.52L79.8999 24.49L93.8601 32.55Z" class="pr-icon-iso-solid-stroke" stroke-linejoin="round"/>
</svg>