<svg width="24" height="24" viewBox="0 0 119 91" xmlns="http://www.w3.org/2000/svg" stroke-width="1px" stroke-linecap="round" stroke-linejoin="round">
    <path d="M78.9397 63.3001V83.2801C78.9497 84.6201 78.0597 85.8001 76.2697 86.8301C74.4897 87.8601 72.4397 88.3801 70.1197 88.3701L12.0097 88.2701C10.7397 88.2701 9.60968 88.1301 8.60968 87.8501C7.60968 87.5801 6.67972 87.2001 5.83972 86.7101C4.98972 86.2201 4.32968 85.6901 3.85968 85.1101C3.37968 84.5301 3.1397 83.8801 3.1297 83.1501L2.94971 49.6401V29.5901L3.04968 48.8501L3.1297 63.1501C3.1397 63.8801 3.37968 64.5301 3.85968 65.1101C4.32968 65.6901 4.98972 66.2201 5.83972 66.7101C6.67972 67.2001 7.60968 67.5801 8.60968 67.8501C9.60968 68.1301 10.7397 68.2701 12.0097 68.2701L20.8397 68.2901L70.1197 68.3701C72.4397 68.3801 74.4897 67.8601 76.2697 66.8301C76.4597 66.7201 76.6397 66.6101 76.8097 66.5001C78.2297 65.5601 78.9397 64.4901 78.9397 63.3001Z" class="pr-icon-iso-solid-stroke" stroke-linejoin="round"/>
    <path d="M78.9397 63.2801V63.3001C78.9397 64.4901 78.2297 65.5601 76.8097 66.5001C76.6397 66.6101 76.4597 66.7201 76.2697 66.8301C74.4897 67.8601 72.4397 68.3801 70.1197 68.3701L20.8397 68.2901L12.0097 68.2701C10.7397 68.2701 9.60968 68.1301 8.60968 67.8501C7.60968 67.5801 6.67972 67.2001 5.83972 66.7101C4.98972 66.2201 4.32968 65.6901 3.85968 65.1101C3.37968 64.5301 3.1397 63.8801 3.1297 63.1501L3.04968 48.8501L2.94971 29.5901C2.94971 28.2601 3.77972 27.0701 5.45972 26.0401C7.13972 25.0101 9.23971 24.5001 11.7697 24.5001C14.0797 24.5101 16.1397 25.0301 17.9397 26.0601C19.7297 27.1001 20.6297 28.2901 20.6397 29.6201L20.9497 57.9801L40.8997 58.0501L70.0697 58.1601C72.3797 58.1701 74.4397 58.6601 76.2297 59.6301C78.0297 60.6101 78.9297 61.8201 78.9397 63.2801Z" class="pr-icon-iso-solid-stroke" stroke-linejoin="round"/>
    <path d="M116.72 41.4901V61.4701C116.73 62.8101 115.84 63.9901 114.06 65.0201C112.27 66.0501 110.22 66.5601 107.91 66.5601L78.9398 66.5101V63.2801C78.9298 61.8201 78.0297 60.6101 76.2297 59.6301C74.4397 58.6601 72.3798 58.1701 70.0698 58.1601L40.8998 58.0501L40.7397 27.7801V7.78009L40.8398 27.0201L40.9197 41.3301C40.9197 42.0601 41.1598 42.7201 41.6398 43.2901C42.1198 43.8701 42.7798 44.4101 43.6198 44.8901C44.4698 45.3801 45.3898 45.7601 46.3898 46.0401C47.3898 46.3101 48.5297 46.4501 49.7897 46.4501L58.6298 46.4701L107.91 46.5601C110.22 46.5601 112.27 46.0501 114.06 45.0201C115.83 44.0001 116.72 42.8201 116.72 41.4901Z" class="pr-icon-iso-solid-stroke" stroke-linejoin="round"/>
    <path d="M116.72 41.4701V41.4901C116.72 42.8201 115.83 44.0001 114.06 45.0201C112.27 46.0501 110.22 46.5601 107.91 46.5601L58.6299 46.4701L49.7898 46.4501C48.5298 46.4501 47.3899 46.3101 46.3899 46.0401C45.3899 45.7601 44.4698 45.3801 43.6198 44.8901C42.7798 44.4101 42.1199 43.8701 41.6399 43.2901C41.1599 42.7201 40.9198 42.0601 40.9198 41.3301L40.8399 27.0201L40.7398 7.78008C40.7298 6.44008 41.5598 5.26008 43.2398 4.23008C44.9198 3.20008 47.0298 2.68008 49.5498 2.69008C51.8698 2.69008 53.9199 3.21008 55.7199 4.25008C57.5199 5.29008 58.4198 6.47008 58.4198 7.81008L58.7398 36.1701L107.85 36.3501C110.17 36.3501 112.22 36.8401 114.02 37.8201C115.81 38.7901 116.71 40.0101 116.72 41.4701Z" class="pr-icon-iso-solid-stroke" stroke-linejoin="round"/>
</svg>