<svg viewBox="0 0 110 85" xmlns="http://www.w3.org/2000/svg" height="24" width="24" stroke-width="1px" stroke-linecap="round" stroke-linejoin="round">
    <path d="M107.344 26.6467V46.6467C107.334 49.3467 105.674 51.6367 102.384 53.5367C101.054 54.3067 99.5643 54.9267 97.9243 55.3967C96.2743 55.8767 94.4641 56.1668 92.4941 56.2668V36.2668C94.4641 36.1668 96.2743 35.8767 97.9243 35.3967C99.3243 34.9967 100.614 34.4868 101.784 33.8568C101.824 33.8468 101.874 33.8267 101.914 33.7867C102.074 33.7167 102.234 33.6267 102.384 33.5367C105.674 31.6367 107.334 29.3467 107.344 26.6467Z" class="pr-icon-iso-solid-stroke" stroke-linejoin="round"/>
    <path d="M62.2437 40.9468V46.5468C60.7137 46.3368 59.1638 46.1768 57.5938 46.0768C53.7538 45.7968 49.7836 45.7968 45.7036 46.0768C43.3236 46.2368 41.0137 46.4968 38.7837 46.8368L38.7637 33.0568C38.7637 33.0568 38.8338 33.0068 38.8738 32.9968C38.9238 33.2468 38.9937 33.4968 39.0737 33.7568C39.7137 35.6968 41.2737 37.3868 43.7637 38.8168C46.2437 40.2568 49.1737 41.1567 52.5337 41.5267C54.0937 41.7067 55.6338 41.7568 57.1438 41.6868C58.8838 41.6068 60.5737 41.3568 62.2437 40.9468Z" class="pr-icon-iso-solid-stroke" stroke-linejoin="round"/>
    <path d="M102.404 19.7468C102.234 19.6468 102.074 19.5568 101.914 19.4768C101.774 19.3968 101.634 19.3367 101.494 19.2767C101.214 19.1467 100.914 18.9867 100.594 18.8067C101.424 17.6767 101.864 16.5267 101.914 15.3367V14.8668C101.894 14.3168 101.784 13.7567 101.604 13.1967C100.964 11.2567 99.3945 9.5668 96.9145 8.1368C94.4345 6.6968 91.5045 5.79671 88.1445 5.42671C84.7745 5.04671 81.5343 5.24679 78.4343 6.00679C78.1143 5.82679 77.8444 5.65677 77.6244 5.48677C77.3944 5.31677 77.1244 5.14675 76.8044 4.96675C73.4944 3.04675 69.5044 2.09677 64.8444 2.10677C60.1744 2.11677 56.2045 3.07676 52.9145 4.97676C51.5845 5.74676 50.5243 6.60674 49.7343 7.57674C48.9443 8.54674 48.4243 9.58672 48.1843 10.6867C46.2143 10.7867 44.3943 11.0667 42.7143 11.5267C41.0343 11.9767 39.5243 12.5968 38.1943 13.3568C34.9043 15.2568 33.2644 17.5667 33.2844 20.2767C33.2944 22.9867 34.9644 25.2968 38.2744 27.2168C38.5944 27.3968 38.8945 27.5567 39.1745 27.6767C39.4645 27.8067 39.7644 27.9667 40.0844 28.1467C39.1244 29.4567 38.6843 30.8067 38.7643 32.1867C38.7843 32.4567 38.8144 32.7268 38.8744 32.9968C38.9244 33.2468 38.9944 33.4968 39.0744 33.7568C39.7144 35.6968 41.2743 37.3867 43.7643 38.8167C46.2443 40.2567 49.1744 41.1567 52.5344 41.5267C54.0944 41.7067 55.6345 41.7567 57.1445 41.6867C58.8845 41.6067 60.5743 41.3567 62.2443 40.9467C62.5643 41.1267 62.8344 41.2968 63.0544 41.4668C63.2844 41.6368 63.5544 41.8068 63.8744 41.9868C67.1844 43.9068 71.1644 44.8568 75.8344 44.8468C78.7844 44.8368 81.4544 44.4567 83.8544 43.6867C85.2544 43.2467 86.5543 42.6768 87.7643 41.9768C89.0943 41.2068 90.1543 40.3468 90.9443 39.3768C91.7343 38.4068 92.2543 37.3668 92.4943 36.2668C94.4643 36.1668 96.2745 35.8767 97.9245 35.3967C99.3245 34.9967 100.614 34.4868 101.784 33.8568C101.824 33.8468 101.874 33.8267 101.914 33.7867C102.074 33.7167 102.234 33.6267 102.384 33.5367C105.674 31.6367 107.334 29.3467 107.344 26.6467C107.364 23.9567 105.714 21.6568 102.404 19.7468ZM83.5344 25.2668C82.9944 26.6568 81.7745 27.9068 79.8945 28.9868C77.2345 30.5268 74.0645 31.2867 70.3845 31.2867C66.7045 31.2767 63.5244 30.4967 60.8444 28.9567C58.1744 27.4167 56.8344 25.5767 56.8144 23.4567C56.8144 23.3867 56.8144 23.3268 56.8244 23.2668C56.8844 21.2168 58.2144 19.4468 60.7844 17.9668C63.4444 16.4268 66.6144 15.6667 70.2944 15.6667C73.9744 15.6767 77.1544 16.4568 79.8344 17.9968C82.5044 19.5368 83.8444 21.3768 83.8644 23.4968C83.8644 24.1168 83.7544 24.7068 83.5344 25.2668Z" class="pr-icon-iso-solid-stroke" stroke-linejoin="round"/>
    <path d="M83.8645 23.4968C83.8645 24.1168 83.7544 24.7068 83.5344 25.2668C82.9944 26.6568 81.7745 27.9068 79.8945 28.9868C77.2345 30.5268 74.0645 31.2867 70.3845 31.2867C66.7045 31.2767 63.5245 30.4968 60.8445 28.9568C58.1745 27.4168 56.8345 25.5768 56.8145 23.4568C56.8145 23.3868 56.8145 23.3268 56.8245 23.2668C56.8845 21.2168 58.2144 19.4468 60.7844 17.9668C63.4444 16.4268 66.6144 15.6667 70.2944 15.6667C73.9744 15.6767 77.1545 16.4568 79.8345 17.9968C82.5045 19.5368 83.8445 21.3768 83.8645 23.4968Z" class="pr-icon-iso-solid-stroke" stroke-linejoin="round"/>
    <path d="M81.6443 54.3368C81.5843 55.2568 81.0341 56.0668 79.9941 56.7768C78.9541 57.4968 77.7342 58.0669 76.3342 58.5069C72.1942 59.9769 67.8743 61.0368 63.3743 61.6868C57.8143 62.4968 51.9843 62.6869 45.8843 62.2469C40.4143 61.8569 35.3142 60.9968 30.5942 59.6568C25.7742 58.2968 21.3342 56.4469 17.2842 54.1069C17.2842 54.1069 17.2875 54.1035 17.2942 54.0968C21.2942 51.7868 25.6841 49.9669 30.4441 48.6269C30.7741 48.5369 31.1041 48.4469 31.4341 48.3569C33.5141 47.8069 35.6543 47.3468 37.8743 46.9768C38.1743 46.9368 38.4742 46.8868 38.7842 46.8368C41.0142 46.4968 43.3241 46.2368 45.7041 46.0768C49.7841 45.7968 53.7542 45.7968 57.5942 46.0768C59.1642 46.1768 60.7141 46.3368 62.2441 46.5468C67.0541 47.1768 71.6742 48.2768 76.1042 49.8168C76.4742 49.9468 76.8343 50.0768 77.1743 50.2168C78.2443 50.6468 79.1942 51.1368 80.0142 51.6968C81.0942 52.4268 81.6443 53.3068 81.6443 54.3368Z" class="pr-icon-iso-solid-stroke" stroke-linejoin="round"/>
    <path d="M31.4341 35.2368C31.3841 36.0668 31.2642 36.9068 31.0942 37.7568C30.6142 40.0968 29.6642 42.3368 28.2642 44.4468C25.9142 48.0068 22.2542 51.2268 17.2942 54.0968C17.2942 54.0968 17.2908 54.1001 17.2842 54.1068C17.2842 54.1068 17.2141 54.1467 17.1841 54.1667C12.0741 51.2167 8.31431 47.9168 5.91431 44.2568C4.53431 42.1668 3.59425 39.9667 3.10425 37.6467C2.83425 36.4067 2.7041 35.1868 2.7041 33.9868C2.7041 29.0068 4.99422 24.3668 9.57422 20.0668C10.3342 19.2668 11.3242 18.5568 12.5642 17.9568C13.7942 17.3568 15.2042 17.0368 16.7942 17.0068C18.5742 17.0068 20.0943 17.3168 21.3643 17.9468C22.6443 18.5668 23.7243 19.3268 24.6143 20.2068C28.9243 24.3168 31.2041 28.7167 31.4341 33.4067C31.4741 34.0067 31.4641 34.6168 31.4341 35.2368Z" class="pr-icon-iso-solid-stroke" stroke-linejoin="round"/>
    <path d="M101.914 14.8668V14.6868" class="pr-icon-iso-solid-stroke" stroke-linejoin="round"/>
    <path d="M101.914 15.3368V19.4768C101.774 19.3968 101.634 19.3367 101.494 19.2767C101.214 19.1467 100.914 18.9868 100.594 18.8068C101.424 17.6768 101.864 16.5268 101.914 15.3368Z" class="pr-icon-iso-solid-stroke" stroke-linejoin="round"/>
    <path d="M38.7642 33.0568L38.7842 46.8368C38.4742 46.8868 38.1743 46.9368 37.8743 46.9768C34.8343 45.1068 33.2942 42.8767 33.2842 40.2767V20.2767C33.2942 22.9867 34.9642 25.2968 38.2742 27.2168C38.5942 27.3968 38.8943 27.5568 39.1743 27.6768C39.4643 27.8068 39.7642 27.9667 40.0842 28.1467C39.1242 29.4567 38.6842 30.8068 38.7642 32.1868V33.0568Z" class="pr-icon-iso-solid-stroke" stroke-linejoin="round"/>
    <path d="M92.4941 36.2668V56.2668C92.2541 57.3668 91.7341 58.4068 90.9441 59.3768C90.1541 60.3468 89.0942 61.2068 87.7642 61.9768C85.9342 63.0368 83.8943 63.7968 81.6443 64.2668V54.3368C81.6443 53.3068 81.0942 52.4268 80.0142 51.6968C79.1942 51.1368 78.2443 50.6468 77.1743 50.2168C76.8343 50.0768 76.4742 49.9468 76.1042 49.8168C71.6742 48.2768 67.0541 47.1768 62.2441 46.5468V40.9468C62.5641 41.1268 62.8342 41.2968 63.0542 41.4668C63.2842 41.6368 63.5543 41.8068 63.8743 41.9868C67.1843 43.9068 71.1642 44.8568 75.8342 44.8468C78.7842 44.8368 81.4542 44.4568 83.8542 43.6868C85.2542 43.2468 86.5542 42.6768 87.7642 41.9768C89.0942 41.2068 90.1541 40.3468 90.9441 39.3768C91.7341 38.4068 92.2541 37.3668 92.4941 36.2668Z" class="pr-icon-iso-solid-stroke" stroke-linejoin="round"/>
    <path d="M81.6443 54.3368V74.3368C81.5843 75.2568 81.0341 76.0667 79.9941 76.7767C78.9541 77.4967 77.7342 78.0668 76.3342 78.5068C67.0842 81.7868 56.9343 83.0368 45.8843 82.2468C34.8443 81.4568 25.3042 78.7468 17.2842 74.1068C17.2542 74.1268 17.2141 74.1467 17.1841 74.1667C9.16408 69.5367 4.46425 64.0267 3.10425 57.6467C2.83425 56.4067 2.7041 55.1868 2.7041 53.9868V33.9868C2.7041 35.1868 2.83425 36.4067 3.10425 37.6467C3.59425 39.9667 4.53431 42.1668 5.91431 44.2568C8.31431 47.9168 12.0741 51.2167 17.1841 54.1667C17.2141 54.1467 17.2542 54.1268 17.2842 54.1068C21.3342 56.4468 25.7742 58.2967 30.5942 59.6567C35.3142 60.9967 40.4143 61.8568 45.8843 62.2468C51.9843 62.6868 57.8143 62.4968 63.3743 61.6868C67.8743 61.0368 72.1942 59.9768 76.3342 58.5068C77.7342 58.0668 78.9541 57.4967 79.9941 56.7767C81.0341 56.0667 81.5843 55.2568 81.6443 54.3368Z" class="pr-icon-iso-solid-stroke" stroke-linejoin="round"/>
    <path d="M2.7041 33.9868V33.4067" class="pr-icon-iso-solid-stroke" stroke-linejoin="round"/>
    <path d="M31.4338 35.2368V48.3568C31.1038 48.4468 30.7738 48.5368 30.4438 48.6268C25.6838 49.9668 21.2939 51.7868 17.2939 54.0968C22.2539 51.2268 25.9139 48.0068 28.2639 44.4468C29.6639 42.3368 30.614 40.0968 31.094 37.7568C31.264 36.9068 31.3838 36.0668 31.4338 35.2368Z" class="pr-icon-iso-solid-stroke" stroke-linejoin="round"/>
</svg>