<svg width="48" height="48" viewBox="0 0 124 82" fill="#229EFF" xmlns="http://www.w3.org/2000/svg" stroke-width="1px" stroke-linecap="round" stroke-linejoin="round"><path d="M39.9401 29.2205L36.79 31.0405L41.27 33.6305V27.4005C41.27 28.1005 40.8301 28.7105 39.9401 29.2205Z" stroke="white" stroke-linejoin="round"/><path d="M65.7704 33.2405L60.1604 33.2705C59.2704 33.2705 58.4605 33.4205 57.7205 33.7305C57.5005 33.8205 57.2905 33.9205 57.0905 34.0405C56.2005 34.5505 55.7604 35.1504 55.7604 35.8104V41.9905L48.1904 37.6205L44.8604 35.7004V20.1205C44.8704 20.8205 45.3204 21.4304 46.2104 21.9504L48.1005 23.0405L53.6204 26.2305L57.4504 28.4404L60.3604 30.1205L65.7704 33.2405Z" stroke="white" stroke-linejoin="round"/><path d="M80.9897 40.2205L80.9598 46.3805L80.9799 49.4105L74.7898 52.9805L55.7598 41.9905V35.8104C55.7598 36.5404 56.2097 37.1505 57.1097 37.6405C58.0097 38.1305 59.0298 38.3705 60.1898 38.3705L76.6097 38.4005C76.9997 38.4005 77.3698 38.3804 77.7198 38.3304C78.4998 38.2304 79.1798 38.0104 79.7598 37.6804C80.5898 37.2104 81.0098 36.6005 81.0098 35.8905L80.9897 40.2205Z" stroke="white" stroke-linejoin="round"/><path d="M54.0602 56.5905V76.5905C54.0602 77.2905 53.6202 77.8905 52.7202 78.4105C51.8302 78.9205 50.7802 79.1804 49.5702 79.1804C48.3602 79.1804 47.3102 78.9205 46.4102 78.4005L5.24011 54.6305C3.50011 53.6205 2.63012 52.4105 2.62012 50.9805V30.9805C2.63012 32.4105 3.50011 33.6205 5.24011 34.6305L16.2302 40.9705L22.5702 44.6305L27.8701 47.7004L29.0802 48.3905L46.4102 58.4005C47.3102 58.9205 48.3602 59.1804 49.5702 59.1804C49.9802 59.1804 50.3602 59.1505 50.7302 59.0905C51.4702 58.9805 52.1302 58.7505 52.7202 58.4105C53.6202 57.8905 54.0602 57.2905 54.0602 56.5905Z" stroke="white" stroke-linejoin="round"/><path d="M81.0104 35.8605V35.8905C81.0104 36.6005 80.5904 37.2104 79.7604 37.6804C79.1804 38.0104 78.5005 38.2304 77.7205 38.3304C77.3705 38.3804 77.0004 38.4005 76.6104 38.4005L60.1904 38.3705C59.0304 38.3705 58.0104 38.1305 57.1104 37.6405C56.2104 37.1505 55.7604 36.5404 55.7604 35.8104C55.7604 35.1504 56.2005 34.5505 57.0905 34.0405C57.2905 33.9205 57.5005 33.8205 57.7205 33.7305C58.4605 33.4205 59.2704 33.2705 60.1604 33.2705L65.7704 33.2405L60.3604 30.1205L57.4504 28.4404L53.6204 26.2305L48.1005 23.0405L46.2104 21.9504C45.3204 21.4304 44.8704 20.8205 44.8604 20.1205C44.8604 19.4205 45.3004 18.8104 46.1904 18.3004C47.0904 17.7904 48.1405 17.5305 49.3505 17.5305C50.5605 17.5305 51.6104 17.7904 52.5104 18.3104L53.7804 19.0405L57.4504 21.1605L66.6604 26.4805L68.2604 27.4105L72.0604 29.6005L72.0404 26.3204C72.0404 25.6504 72.4705 25.0704 73.3405 24.5704C73.6805 24.3704 74.0605 24.2105 74.4705 24.0905C75.0905 23.9105 75.7704 23.8204 76.5304 23.8204C77.6904 23.8204 78.7104 24.0805 79.6104 24.6005C80.1004 24.8805 80.4604 25.1905 80.6704 25.5105C80.8704 25.7805 80.9604 26.0705 80.9604 26.3805L81.0104 35.8605Z" stroke="white" stroke-linejoin="round"/><path d="M121.47 31.1904V31.2104C121.47 32.6304 120.61 33.8504 118.89 34.8304L107.87 41.2004L95.2802 48.4705L81.1301 56.6405C80.9901 56.7205 80.8502 56.8005 80.7002 56.8605C79.0502 57.7205 77.0902 58.1305 74.8202 58.1305C72.3502 58.1205 70.2401 57.6205 68.5001 56.6105L62.6902 53.2605L55.7601 49.2605L41.2701 40.8905L35.1602 37.3605L30.5001 34.6704C29.9101 34.3304 29.4202 33.9704 29.0302 33.5804C28.2602 32.8204 27.8801 31.9705 27.8701 31.0305C27.8701 29.6005 28.7302 28.3805 30.4602 27.3805L33.6101 25.5704C34.5001 25.0504 35.5501 24.8004 36.7601 24.8004C37.9701 24.8004 39.0202 25.0604 39.9202 25.5804C40.4702 25.9004 40.8502 26.2505 41.0602 26.6305C41.2002 26.8705 41.2701 27.1305 41.2701 27.4005C41.2701 28.1005 40.8302 28.7105 39.9402 29.2205L36.7902 31.0405L41.2701 33.6305L41.4502 33.7305L44.8601 35.7004L48.1902 37.6205L55.7601 41.9905L74.7902 52.9805L80.9802 49.4105L88.9402 44.8104L101.53 37.5405L106.26 34.8104L68.2601 12.8705L65.1101 14.6904C64.2201 15.2004 63.1702 15.4604 61.9602 15.4604C60.7502 15.4604 59.7002 15.2004 58.8002 14.6804C57.9002 14.1604 57.4502 13.5505 57.4502 12.8505C57.4502 12.1505 57.8902 11.5505 58.7802 11.0305L68.2202 5.58044C69.9502 4.58044 72.0502 4.09045 74.5302 4.09045C77.0102 4.09045 79.1102 4.60046 80.8502 5.60046L118.85 27.5405C120.59 28.5505 121.47 29.7704 121.47 31.1904Z" stroke="white" stroke-linejoin="round"/><path d="M54.0603 56.5905C54.0603 57.2905 53.6203 57.8905 52.7203 58.4105C52.1303 58.7505 51.4703 58.9805 50.7303 59.0905C50.3603 59.1505 49.9803 59.1804 49.5703 59.1804C48.3603 59.1804 47.3102 58.9205 46.4102 58.4005L29.0803 48.3905L27.8702 47.7004L22.5703 44.6305L16.2303 40.9705L5.2402 34.6305C3.5002 33.6205 2.6302 32.4105 2.6202 30.9805C2.6102 29.5505 3.47028 28.3405 5.20028 27.3405L46.1102 3.72046C47.0102 3.20046 48.0602 2.95044 49.2702 2.95044C50.4802 2.95044 51.5303 3.21047 52.4303 3.73047C53.3303 4.25047 53.7802 4.86042 53.7802 5.56042C53.7802 6.26042 53.3403 6.86049 52.4503 7.38049L11.5402 31.0005L22.5202 37.3405L27.8702 40.4304L28.8602 41.0005L35.6003 44.8905L41.1202 48.0704L52.7003 54.7605C53.6003 55.2805 54.0503 55.8905 54.0603 56.5905Z" stroke="white" stroke-linejoin="round"/><path d="M68.2601 12.8705V27.4105L66.6602 26.4805L57.4502 21.1605V12.8505C57.4502 13.5505 57.9002 14.1604 58.8002 14.6804C59.7002 15.2004 60.7502 15.4604 61.9602 15.4604C63.1702 15.4604 64.2201 15.2004 65.1101 14.6904L68.2601 12.8705Z" stroke="white" stroke-linejoin="round"/><path d="M121.47 31.2104V51.1904C121.48 52.6204 120.62 53.8404 118.89 54.8304L81.1301 76.6405C79.4001 77.6405 77.2902 78.1305 74.8202 78.1305C72.3502 78.1205 70.2401 77.6205 68.5001 76.6105L54.0602 68.2705V56.5905C54.0502 55.8905 53.6002 55.2805 52.7002 54.7605L41.1201 48.0704L35.6002 44.8905L28.8601 41.0005L27.8701 40.4304V31.0305C27.8801 31.9705 28.2602 32.8204 29.0302 33.5804C29.4202 33.9704 29.9101 34.3304 30.5001 34.6704L35.1602 37.3605L41.2701 40.8905L55.7601 49.2605L62.6902 53.2605L68.5001 56.6105C70.2401 57.6205 72.3502 58.1205 74.8202 58.1305C77.0902 58.1305 79.0502 57.7205 80.7002 56.8705C80.8502 56.8005 80.9901 56.7205 81.1301 56.6405L95.2802 48.4705L107.87 41.2004L118.89 34.8304C120.61 33.8504 121.47 32.6304 121.47 31.2104Z" stroke="white" stroke-linejoin="round"/><path d="M53.78 5.56042V19.0405L52.51 18.3104C51.61 17.7904 50.5601 17.5305 49.3501 17.5305C48.1401 17.5305 47.0901 17.7904 46.1901 18.3004C45.3001 18.8104 44.86 19.4205 44.86 20.1205V31.7605L41.4501 33.7305L41.27 33.6305V27.4005C41.27 27.1305 41.2001 26.8705 41.0601 26.6305C40.8501 26.2505 40.47 25.9004 39.92 25.5804C39.02 25.0604 37.97 24.8004 36.76 24.8004C35.55 24.8004 34.5 25.0504 33.61 25.5704L30.4601 27.3805C28.7301 28.3805 27.87 29.6005 27.87 31.0305V40.4304L22.52 37.3405L11.54 31.0005L52.4501 7.38049C53.3401 6.86049 53.78 6.25042 53.78 5.56042Z" stroke="white" stroke-linejoin="round"/><path d="M106.26 34.8104L101.53 37.5405L88.9398 44.8104L80.9897 40.2205L81.0098 35.8905V35.8605L80.9598 26.3805C80.9598 26.0705 80.8698 25.7805 80.6698 25.5105C80.4598 25.1905 80.0997 24.8805 79.6097 24.6005C78.7097 24.0805 77.6898 23.8204 76.5298 23.8204C75.7698 23.8204 75.0898 23.9105 74.4698 24.0905C74.0598 24.2105 73.6798 24.3704 73.3398 24.5704C72.4698 25.0704 72.0398 25.6504 72.0398 26.3204L72.0598 29.6005L68.2598 27.4105V12.8705L106.26 34.8104Z" stroke="white" stroke-linejoin="round"/></svg>