<svg width="24" height="24" viewBox="0 0 106 83" xmlns="http://www.w3.org/2000/svg" stroke-width="1px" stroke-linecap="round" stroke-linejoin="round">
    <path d="M69.7998 23.8835C70.0198 24.0835 70.2097 24.2835 70.3597 24.4935V24.0035C70.1697 23.9535 69.9898 23.9135 69.7998 23.8835Z" class="pr-icon-iso-solid-stroke" stroke-linejoin="round"/>
    <path d="M103.22 31.2834V51.1934C103.24 54.8734 102.03 58.4934 99.5999 62.0534C97.1699 65.6134 93.5099 68.8034 88.6199 71.6234C83.7299 74.4534 78.2099 76.5634 72.0399 77.9634C65.8799 79.3734 59.6099 80.0634 53.2299 80.0534C46.8499 80.0434 40.5699 79.3234 34.3899 77.8934C28.2099 76.4734 22.6599 74.3434 17.7399 71.5034C12.8199 68.6634 9.12991 65.4534 6.65991 61.8834C4.18991 58.3234 2.93992 54.6934 2.91992 51.0134V31.0134C2.93992 34.3634 3.97991 37.6734 6.02991 40.9234C6.22991 41.2434 6.43991 41.5634 6.65991 41.8834C9.12991 45.4534 12.8199 48.6634 17.7399 51.5034C20.4599 53.0734 23.3799 54.4334 26.4899 55.5534C27.5499 55.9534 28.6299 56.3134 29.7299 56.6434C31.2399 57.1134 32.7999 57.5234 34.3899 57.8934C35.2699 58.0934 36.1499 58.2834 37.0299 58.4534C42.1699 59.4734 47.3799 60.0034 52.6499 60.0434C52.8399 60.0534 53.0399 60.0534 53.2299 60.0534C56.3299 60.0534 59.3999 59.8934 62.4399 59.5634C65.6699 59.2234 68.8699 58.6934 72.0399 57.9634C78.2099 56.5634 83.7299 54.4534 88.6199 51.6234C93.5099 48.8034 97.1699 45.6134 99.5999 42.0534C99.7799 41.7934 99.9499 41.5334 100.11 41.2734C102.18 37.9934 103.22 34.6634 103.22 31.2834Z" class="pr-icon-iso-solid-stroke" stroke-linejoin="round"/>
    <path d="M99.4801 20.3137C97.0101 16.7437 93.3201 13.5437 88.4001 10.7037C83.4801 7.86366 77.9301 5.73366 71.7501 4.30366C65.5701 2.87366 59.2902 2.16366 52.9102 2.14366C46.5302 2.13366 40.2601 2.83366 34.1001 4.23366C27.9301 5.64366 22.4001 7.75366 17.5201 10.5737C12.6301 13.3937 8.97016 16.5837 6.54016 20.1437C4.11016 23.7037 2.90017 27.3237 2.92017 31.0137C2.94017 34.3637 3.98015 37.6737 6.03015 40.9237C6.23015 41.2437 6.44016 41.5637 6.66016 41.8837C9.13016 45.4537 12.8201 48.6637 17.7401 51.5037C20.4601 53.0737 23.3801 54.4337 26.4901 55.5537C27.5501 55.9537 28.6301 56.3137 29.7301 56.6437C31.2401 57.1137 32.8001 57.5237 34.3901 57.8937C35.2701 58.0937 36.1502 58.2837 37.0302 58.4537C42.1702 59.4737 47.3801 60.0037 52.6501 60.0437C52.8401 60.0537 53.0401 60.0537 53.2301 60.0537C56.3301 60.0537 59.4002 59.8937 62.4402 59.5637C65.6702 59.2237 68.8702 58.6937 72.0402 57.9637C78.2102 56.5637 83.7301 54.4537 88.6201 51.6237C93.5101 48.8037 97.1701 45.6137 99.6001 42.0537C99.7801 41.7937 99.9501 41.5337 100.11 41.2737C102.18 37.9937 103.22 34.6637 103.22 31.2837V31.1937C103.2 27.5137 101.95 23.8837 99.4801 20.3137ZM79.5502 28.7437C79.3202 29.4237 78.6102 29.9237 77.4302 30.2237C77.1502 30.2937 76.8702 30.3537 76.5802 30.3937C75.6702 30.5137 74.7502 30.4537 73.8002 30.2137C72.8502 30.0137 72.1402 29.6137 71.6602 29.0337C71.1902 28.4537 71.0101 27.7937 71.1201 27.0437C71.2401 26.2937 71.0502 25.5437 70.5802 24.7937C70.5202 24.6937 70.4501 24.5937 70.3601 24.4937C70.2101 24.2837 70.0202 24.0837 69.8002 23.8837C69.3502 23.4537 68.7802 23.0337 68.0902 22.6337C66.0102 21.4437 63.9801 20.7837 62.0101 20.6537C60.0301 20.5337 58.2701 20.9137 56.7401 21.7937C56.5101 21.9337 56.3001 22.0737 56.1101 22.2137C55.4101 22.7537 55.0401 23.3537 55.0001 24.0337V24.3937C55.0201 24.6137 55.0802 24.8437 55.1602 25.0737C55.6402 26.3637 57.0702 28.3837 59.4502 31.1137C60.9002 32.9037 61.8801 34.4937 62.3801 35.9037C62.8201 37.1337 62.8902 38.2137 62.5902 39.1537C62.4202 39.6737 62.2002 40.1737 61.9102 40.6537C61.0902 42.0337 59.7602 43.2537 57.9302 44.3037C57.0902 44.7937 56.2301 45.2137 55.3701 45.5637C54.8401 45.7837 54.3101 45.9837 53.7701 46.1537C51.6401 46.8137 49.4402 47.1037 47.1702 47.0137C47.0702 47.0137 46.9601 47.0137 46.8601 47.0037C42.9601 46.7837 39.2702 45.9837 35.7802 44.5737L35.5402 44.7137L34.4502 45.3437C33.6302 45.8137 32.5901 46.0537 31.3501 46.0537C30.7601 46.0537 30.2201 45.9937 29.7301 45.8837C29.1801 45.7637 28.6901 45.5737 28.2501 45.3237C27.4201 44.8537 27.0001 44.2537 27.0001 43.5337C27.0001 42.8137 27.4101 42.2237 28.2301 41.7437L29.7301 40.8837C27.9501 39.3137 26.8902 37.6937 26.5602 36.0437C26.2302 34.3837 26.5901 32.7037 27.6401 31.0037C28.0501 30.3537 28.8602 29.9037 30.0702 29.6537C31.2802 29.4037 32.4502 29.4237 33.5702 29.7337C34.6302 30.0137 35.4001 30.4537 35.8801 31.0737C36.3601 31.6837 36.4202 32.3637 36.0702 33.1137C35.6902 33.9037 35.5102 34.6637 35.5402 35.3837V35.4537C35.5602 35.9237 35.6701 36.3837 35.8701 36.8237C36.3801 37.9637 37.4002 38.9837 38.9402 39.8737C40.9002 41.0037 43.0302 41.7037 45.3302 41.9837C45.7502 42.0437 46.1702 42.0637 46.5702 42.0637C48.4002 42.0837 50.1102 41.6337 51.7002 40.7137C52.9802 39.9837 53.6701 39.1137 53.7701 38.1137C53.8101 37.7837 53.7802 37.4337 53.6802 37.0637C53.6602 36.9937 53.6401 36.9237 53.6201 36.8537C53.1601 35.4037 51.7901 33.2737 49.5201 30.4837C47.2601 27.7537 46.1701 25.4237 46.2501 23.4937C46.2701 23.1237 46.3302 22.7537 46.4502 22.3837C46.9302 20.8837 48.2901 19.4937 50.5201 18.2037C52.9301 16.8137 55.9402 16.0337 59.5402 15.8737C63.1502 15.7037 66.7501 16.2937 70.3601 17.6237L71.6902 16.8637C72.5102 16.3837 73.5402 16.1537 74.7802 16.1537C76.0202 16.1537 77.0601 16.3937 77.8901 16.8737C78.7201 17.3537 79.1401 17.9537 79.1401 18.6637C79.1401 19.3737 78.7302 19.9837 77.9102 20.4537L76.5802 21.2237C78.0702 22.2137 79.0301 23.3837 79.4801 24.7337C79.7101 25.4037 79.8202 26.0537 79.8202 26.7137C79.8502 27.3937 79.7502 28.0737 79.5502 28.7437Z" class="pr-icon-iso-solid-stroke" stroke-linejoin="round"/>
    <path d="M62.5901 39.1536C62.4201 39.6736 62.2 40.1736 61.91 40.6536C61.09 42.0336 59.7601 43.2536 57.9301 44.3036C57.0901 44.7936 56.23 45.2136 55.37 45.5636C55.29 45.3936 55.22 45.2236 55.16 45.0736C55.08 44.8436 55.02 44.6136 55 44.3936V24.3936C55.02 24.6136 55.08 24.8436 55.16 25.0736C55.64 26.3636 57.0701 28.3836 59.4501 31.1136C60.9001 32.9036 61.88 34.4936 62.38 35.9036C62.82 37.1336 62.8901 38.2136 62.5901 39.1536Z" class="pr-icon-iso-solid-stroke" stroke-linejoin="round"/>
    <path d="M79.8201 26.7136C79.8501 27.3936 79.75 28.0736 79.55 28.7436C79.32 29.4236 78.6101 29.9236 77.4301 30.2236C77.1501 30.2936 76.8701 30.3536 76.5801 30.3936V21.2236C78.0701 22.2136 79.03 23.3836 79.48 24.7336C79.71 25.4036 79.8201 26.0536 79.8201 26.7136Z" class="pr-icon-iso-solid-stroke" stroke-linejoin="round"/>
    <path d="M79.1404 18.6636C79.1404 19.3836 78.7304 19.9836 77.9104 20.4536L76.5804 21.2236V30.3936C75.6704 30.5136 74.7504 30.4536 73.8004 30.2136C72.8504 30.0136 72.1404 29.6136 71.6604 29.0336C71.1904 28.4536 71.0104 27.7936 71.1204 27.0436C71.2404 26.2936 71.0504 25.5436 70.5804 24.7936C70.5204 24.6936 70.4504 24.5936 70.3604 24.4936V17.6236L71.6904 16.8636C72.5104 16.3836 73.5404 16.1536 74.7804 16.1536C76.0204 16.1536 77.0604 16.3936 77.8904 16.8736C78.7204 17.3536 79.1404 17.9536 79.1404 18.6636Z" class="pr-icon-iso-solid-stroke" stroke-linejoin="round"/>
    <path d="M53.77 38.1136V46.1536C51.64 46.8136 49.44 47.1036 47.17 47.0136C47.07 47.0136 46.96 47.0136 46.86 47.0036C42.96 46.7836 39.27 45.9836 35.78 44.5736L35.54 44.7136V35.4536C35.56 35.9236 35.67 36.3836 35.87 36.8236C36.38 37.9636 37.4001 38.9836 38.9401 39.8736C40.9001 41.0036 43.0301 41.7036 45.3301 41.9836C45.7501 42.0436 46.1701 42.0636 46.5701 42.0636C48.4001 42.0836 50.1101 41.6336 51.7001 40.7136C52.9801 39.9836 53.67 39.1136 53.77 38.1136Z" class="pr-icon-iso-solid-stroke" stroke-linejoin="round"/>
    <path d="M29.73 40.8835V45.8835C29.18 45.7635 28.69 45.5735 28.25 45.3235C27.42 44.8535 27 44.2535 27 43.5335C27 42.8135 27.41 42.2235 28.23 41.7435L29.73 40.8835Z" class="pr-icon-iso-solid-stroke" stroke-linejoin="round"/>
    <path d="M36.0698 33.1136C35.6898 33.9036 35.5098 34.6636 35.5398 35.3836V44.7136L34.4498 45.3436C33.6298 45.8136 32.5897 46.0536 31.3497 46.0536C30.7597 46.0536 30.2197 45.9936 29.7297 45.8836V40.8836C27.9497 39.3136 26.8898 37.6936 26.5598 36.0436C26.2298 34.3836 26.5897 32.7036 27.6397 31.0036C28.0497 30.3536 28.8598 29.9036 30.0698 29.6536C31.2798 29.4036 32.4498 29.4236 33.5698 29.7336C34.6298 30.0136 35.3997 30.4536 35.8797 31.0736C36.3597 31.6836 36.4198 32.3636 36.0698 33.1136Z" class="pr-icon-iso-solid-stroke" stroke-linejoin="round"/>
    <path d="M53.7705 38.1136V37.9236" class="pr-icon-iso-solid-stroke" stroke-linejoin="round"/>
    <path d="M70.3602 17.6238V24.0038C70.1702 23.9538 69.9902 23.9138 69.8002 23.8838C69.3502 23.4538 68.7803 23.0338 68.0903 22.6338C66.0103 21.4438 63.9802 20.7838 62.0102 20.6538C60.0302 20.5338 58.2702 20.9138 56.7402 21.7938C56.5102 21.9338 56.3002 22.0738 56.1102 22.2138C55.4102 22.7538 55.0402 23.3538 55.0002 24.0338V36.4838C54.5202 36.5838 54.0602 36.7138 53.6202 36.8538C53.1602 35.4038 51.7902 33.2738 49.5202 30.4838C47.2602 27.7538 46.1702 25.4238 46.2502 23.4938C46.2702 23.1238 46.3303 22.7538 46.4503 22.3838C46.9303 20.8838 48.2902 19.4938 50.5202 18.2038C52.9302 16.8138 55.9402 16.0338 59.5402 15.8738C63.1502 15.7038 66.7502 16.2938 70.3602 17.6238Z" class="pr-icon-iso-solid-stroke" stroke-linejoin="round"/>
    <path d="M55 45.0736V44.3936" class="pr-icon-iso-solid-stroke" stroke-linejoin="round"/>
</svg>