<svg width="48" height="48" viewBox="0 0 125 85" xmlns="http://www.w3.org/2000/svg" stroke-width="1px"
     stroke-linecap="round" stroke-linejoin="round">
    <path d="M2.36008 60.38V59.84C2.32008 60.01 2.32008 60.19 2.36008 60.38Z" class="pr-icon-iso-solid-stroke" stroke-linejoin="round"/>
    <path d="M122.87 35.87V55.82C122.89 59.76 120.491 63.13 115.661 65.92C110.831 68.7 105.001 70.09 98.1705 70.08C91.3405 70.07 85.4905 68.66 80.6305 65.85C78.4405 64.59 76.7405 63.21 75.5405 61.71V52.12C75.5605 52.02 75.5505 51.93 75.5405 51.83C75.4805 51.4 75.2406 51.01 74.8306 50.65C74.6506 50.49 74.4305 50.34 74.1705 50.19C73.8805 50.03 73.5905 49.87 73.3105 49.7V35.73C73.3205 37.55 73.8505 39.24 74.8905 40.82C76.0605 42.61 77.8905 44.24 80.3905 45.71C80.4705 45.76 80.5505 45.8 80.6305 45.85C85.4905 48.66 91.3405 50.07 98.1705 50.08C100.891 50.08 103.451 49.87 105.851 49.42C109.481 48.76 112.751 47.59 115.661 45.92C115.711 45.89 115.761 45.86 115.801 45.84C120.521 43.07 122.87 39.75 122.87 35.87Z" class="pr-icon-iso-solid-stroke" stroke-linejoin="round"/>
    <path d="M83.8597 11.73C74.6097 7.00001 66.9298 4.14001 60.8298 3.17001C54.7198 2.20001 49.5697 2.91999 45.3797 5.33999L12.2098 24.49C8.83983 26.44 7.15979 28.8 7.16979 31.56C7.18979 34.33 8.88978 36.69 12.2898 38.65L7.16979 38.03L6.76976 37.98C5.88976 37.88 5.08973 37.94 4.35973 38.16C3.62973 38.37 3.08974 38.68 2.73974 39.09C2.39974 39.49 2.26973 39.92 2.35973 40.38C2.44973 40.83 2.81983 41.25 3.45983 41.62L7.16979 43.76L10.4598 45.66L38.7698 62.01C39.3698 62.35 40.0098 62.55 40.7298 62.62C40.7898 62.62 40.8598 62.64 40.9198 62.64C41.7098 62.69 42.4498 62.62 43.1498 62.42C43.8498 62.22 44.3898 61.91 44.7698 61.49C44.9998 61.25 45.1298 60.98 45.1498 60.69C45.1698 60.5 45.1398 60.3 45.0698 60.1L43.9098 56.91C46.0498 58.14 48.4598 58.99 51.1498 59.45C52.7398 59.72 54.4198 59.85 56.1898 59.86C58.9898 59.87 61.5497 59.54 63.8697 58.87C65.5197 58.4 67.0398 57.76 68.4298 56.95L73.3098 54.14L73.4598 54.05L74.4498 53.48C75.1398 53.09 75.4998 52.63 75.5398 52.12V51.83C75.4798 51.4 75.2398 51.01 74.8298 50.65C74.6498 50.49 74.4298 50.34 74.1698 50.19C73.8798 50.03 73.5898 49.87 73.3098 49.7C71.5198 48.65 69.9598 47.49 68.6398 46.24C67.1098 44.78 65.8998 43.23 65.0198 41.58C64.7998 41.18 64.5998 40.78 64.4398 40.37C64.0798 39.59 63.8198 38.8 63.6398 38.01C63.3698 36.81 63.3197 35.59 63.4897 34.35C63.6097 33.67 63.4698 33.01 63.0898 32.35C62.6998 31.69 62.0998 31.12 61.2798 30.65L49.2098 23.68L48.9198 23.51L38.4398 17.46L48.9198 11.42L67.0098 21.86C67.8898 22.37 68.9298 22.6 70.1298 22.55C71.3198 22.5 72.3599 22.23 73.2299 21.72C74.4499 21.02 75.7798 20.35 77.2098 19.73C78.6298 19.11 80.0997 18.57 81.6197 18.1C83.9497 17.5 85.3598 16.51 85.8498 15.15C85.9498 14.86 86.0098 14.58 86.0098 14.31C86.0098 13.31 85.2897 12.45 83.8597 11.73ZM38.5398 35.67C39.9898 34.84 41.7198 34.42 43.7298 34.41H43.7898C45.8298 34.41 47.5898 34.84 49.0498 35.68C50.5098 36.53 51.2498 37.54 51.2598 38.72C51.2598 39.9 50.5398 40.91 49.0798 41.75C48.5098 42.08 47.8997 42.34 47.2397 42.54C46.2197 42.85 45.0798 43.01 43.8398 43.01C41.7898 43.01 40.0398 42.58 38.5798 41.73C37.1098 40.89 36.3797 39.87 36.3697 38.69C36.3597 37.51 37.0898 36.51 38.5398 35.67Z" class="pr-icon-iso-solid-stroke" stroke-linejoin="round"/>
    <path d="M51.2593 38.72C51.2593 39.9 50.5393 40.91 49.0793 41.75C48.5093 42.08 47.8992 42.34 47.2392 42.54C46.2192 42.85 45.0793 43.01 43.8393 43.01C41.7893 43.01 40.0393 42.58 38.5793 41.73C37.1093 40.89 36.3792 39.87 36.3692 38.69C36.3592 37.51 37.0893 36.51 38.5393 35.67C39.9893 34.84 41.7193 34.42 43.7293 34.41H43.7893C45.8293 34.41 47.5893 34.84 49.0493 35.68C50.5093 36.53 51.2493 37.54 51.2593 38.72Z" class="pr-icon-iso-solid-stroke" stroke-linejoin="round"/>
    <path d="M115.55 25.69C110.63 22.85 104.75 21.44 97.9196 21.46C93.5196 21.48 89.5496 22.06 86.0096 23.2C84.0496 23.84 82.2196 24.65 80.5196 25.63C79.0496 26.48 77.7996 27.38 76.7796 28.35C74.4496 30.52 73.2996 32.98 73.3096 35.73C73.3196 37.55 73.8496 39.24 74.8896 40.82C76.0596 42.61 77.8896 44.24 80.3896 45.71C80.4696 45.76 80.5496 45.8 80.6296 45.85C85.4896 48.66 91.3396 50.07 98.1696 50.08C100.89 50.08 103.45 49.87 105.85 49.42C109.48 48.76 112.75 47.59 115.66 45.92C115.71 45.89 115.76 45.86 115.8 45.84C120.52 43.07 122.87 39.75 122.87 35.87V35.82C122.85 31.87 120.41 28.5 115.55 25.69ZM91.1196 41.83C90.8996 41.96 90.6496 42.06 90.3696 42.12C90.3096 42.14 90.2496 42.15 90.1896 42.15C89.9396 42.21 89.6596 42.23 89.3696 42.23C88.6696 42.23 88.0796 42.09 87.6096 41.82C87.1496 41.55 86.9096 41.21 86.9096 40.81C86.9096 40.41 87.1397 40.07 87.5997 39.8C88.0697 39.53 88.6497 39.4 89.3497 39.4C90.0497 39.4 90.6396 39.53 91.1096 39.8C91.5696 40.08 91.8096 40.41 91.8096 40.82C91.8096 41.23 91.5796 41.56 91.1196 41.83ZM108.58 31.75L98.0997 37.79C97.6397 38.06 97.0497 38.2 96.3497 38.2C95.6497 38.2 95.0697 38.06 94.5997 37.79C94.1297 37.52 93.8896 37.18 93.8896 36.78C93.8896 36.38 94.1197 36.04 94.5897 35.77L105.06 29.72C105.53 29.45 106.11 29.32 106.81 29.32C107.51 29.32 108.1 29.45 108.57 29.72C109.03 30 109.27 30.33 109.27 30.74C109.27 31.15 109.04 31.48 108.58 31.75Z" class="pr-icon-iso-solid-stroke" stroke-linejoin="round"/>
    <path d="M109.27 30.7401C109.27 31.1401 109.04 31.4801 108.58 31.7501L98.0997 37.7901C97.6397 38.0601 97.0497 38.2001 96.3497 38.2001C95.6497 38.2001 95.0697 38.0601 94.5997 37.7901C94.1297 37.5201 93.8896 37.1801 93.8896 36.7801C93.8896 36.3801 94.1197 36.0401 94.5897 35.7701L105.06 29.7201C105.53 29.4501 106.11 29.3201 106.81 29.3201C107.51 29.3201 108.1 29.4501 108.57 29.7201C109.03 30.0001 109.27 30.3301 109.27 30.7401Z" class="pr-icon-iso-solid-stroke" stroke-linejoin="round"/>
    <path d="M91.8102 40.82C91.8102 41.22 91.5801 41.56 91.1201 41.83C90.9001 41.96 90.6501 42.06 90.3701 42.12C90.3101 42.14 90.2502 42.15 90.1902 42.15C89.9402 42.21 89.6601 42.23 89.3701 42.23C88.6701 42.23 88.0801 42.09 87.6101 41.82C87.1501 41.55 86.9102 41.21 86.9102 40.81C86.9102 40.41 87.1402 40.07 87.6002 39.8C88.0702 39.53 88.6502 39.4 89.3502 39.4C90.0502 39.4 90.6401 39.53 91.1101 39.8C91.5701 40.08 91.8102 40.41 91.8102 40.82Z" class="pr-icon-iso-solid-stroke" stroke-linejoin="round"/>
    <path d="M48.9204 11.42V23.51L38.4404 17.4601L48.9204 11.42Z" class="pr-icon-iso-solid-stroke" stroke-linejoin="round"/>
    <path d="M86.0099 14.31V23.2C84.0499 23.84 82.2199 24.65 80.5199 25.63C79.0499 26.48 77.7999 27.38 76.7799 28.35C74.4499 30.52 73.2999 32.98 73.3099 35.73V41.68C73.3099 41.68 73.26 41.71 73.23 41.72C72.36 42.23 71.3199 42.5 70.1299 42.55C68.9299 42.6 67.8899 42.37 67.0099 41.86L64.4399 40.37C64.0799 39.59 63.8199 38.8 63.6399 38.01C63.3699 36.81 63.3199 35.59 63.4899 34.35C63.6099 33.67 63.47 33.01 63.09 32.35C62.7 31.69 62.0999 31.12 61.2799 30.65L49.21 23.68L48.9199 23.51V11.42L67.0099 21.86C67.8899 22.37 68.9299 22.6 70.1299 22.55C71.3199 22.5 72.36 22.23 73.23 21.72C74.45 21.02 75.78 20.35 77.21 19.73C78.63 19.11 80.0999 18.57 81.6199 18.1C83.9499 17.5 85.36 16.51 85.85 15.15C85.95 14.86 86.0099 14.58 86.0099 14.31Z" class="pr-icon-iso-solid-stroke" stroke-linejoin="round"/>
    <path d="M86.0098 14.3101V14.0801" class="pr-icon-iso-solid-stroke" stroke-linejoin="round"/>
    <path d="M75.5402 52.12V71.83C75.6302 72.46 75.2702 73.01 74.4502 73.48L68.4302 76.95C65.0602 78.9 60.9702 79.87 56.1902 79.86C51.9702 79.85 48.2901 79.09 45.1501 77.57V60.69C45.1701 60.5 45.1402 60.3 45.0702 60.1L43.9102 56.91C46.0502 58.14 48.4601 58.99 51.1501 59.45C52.7401 59.72 54.4202 59.85 56.1902 59.86C58.9902 59.87 61.5501 59.54 63.8701 58.87C65.5201 58.4 67.0402 57.76 68.4302 56.95L73.3102 54.14L73.4602 54.05L74.4502 53.48C75.1402 53.09 75.5002 52.63 75.5402 52.12Z" class="pr-icon-iso-solid-stroke" stroke-linejoin="round"/>
    <path d="M45.1504 60.69V60.54" class="pr-icon-iso-solid-stroke" stroke-linejoin="round"/>
    <path d="M45.1504 60.69V80.47C45.1804 80.83 45.0504 81.18 44.7704 81.49C44.3904 81.91 43.8504 82.22 43.1504 82.42C42.4504 82.62 41.7104 82.69 40.9204 82.64C40.1304 82.59 39.4204 82.38 38.7704 82.01L3.46045 61.62C2.82045 61.25 2.45035 60.83 2.36035 60.38V40.38C2.45035 40.83 2.82045 41.25 3.46045 41.62L7.17041 43.76L10.4604 45.66L38.7704 62.01C39.3704 62.35 40.0105 62.55 40.7305 62.62C40.7905 62.62 40.8604 62.64 40.9204 62.64C41.7104 62.69 42.4504 62.62 43.1504 62.42C43.8504 62.22 44.3904 61.91 44.7704 61.49C45.0004 61.25 45.1304 60.98 45.1504 60.69Z" class="pr-icon-iso-solid-stroke" stroke-linejoin="round"/>
    <path d="M12.2899 38.6501L7.16992 38.0301V31.5601C7.18992 34.3301 8.88992 36.6901 12.2899 38.6501Z" class="pr-icon-iso-solid-stroke" stroke-linejoin="round"/>
</svg>