<svg width="48" height="48" viewBox="0 0 110 92" xmlns="http://www.w3.org/2000/svg" stroke-width="1px"
     stroke-linecap="round" stroke-linejoin="round">
    <path d="M57.6501 55.5159C56.4401 54.8159 55.8303 53.9859 55.8203 53.0459V61.5259L61.9402 57.9859L57.6501 55.5159Z" class="pr-icon-iso-solid-stroke" stroke-linejoin="round"/>
    <path d="M83.3599 61.6758V81.3658C83.3899 81.6558 83.3297 81.9458 83.1797 82.2558C82.7197 83.2258 81.6698 83.8458 80.0298 84.1358L46.1797 89.4358C45.3997 89.5658 44.8097 89.4258 44.4197 89.0358C44.2697 88.8858 44.1897 88.7258 44.1797 88.5858V68.5658C44.1797 68.7158 44.2597 68.8758 44.4197 69.0358C44.8097 69.4258 45.3997 69.5658 46.1797 69.4358L55.8198 67.9258L64.5898 66.5558L80.0298 64.1358C81.6698 63.8458 82.7197 63.2258 83.1797 62.2558C83.2797 62.0558 83.3399 61.8658 83.3599 61.6758Z" class="pr-icon-iso-solid-stroke" stroke-linejoin="round"/>
    <path d="M67.5803 33.6259V44.8259L65.8704 45.8159L61.6003 48.2759L57.6204 50.5759C56.4204 51.2759 55.8203 52.0959 55.8203 53.0459V61.5259L44.6802 67.9559C44.4502 68.0859 44.3002 68.2259 44.2302 68.3659C43.1502 68.8859 41.9103 69.1359 40.5203 69.1259C38.8803 69.1259 37.4502 68.7759 36.2402 68.0759L6.22021 50.7359C3.86021 49.3759 2.68016 47.7359 2.66016 45.7959V25.7959C2.68016 27.7359 3.86021 29.3759 6.22021 30.7359L16.1602 36.4759L36.2402 48.0759C37.4502 48.7759 38.8803 49.1259 40.5203 49.1259C42.1603 49.1359 43.5803 48.7859 44.7903 48.0859L52.3901 43.6959L59.6501 39.5059L65.7703 35.9659C66.9103 35.3159 67.5103 34.5359 67.5803 33.6259Z" class="pr-icon-iso-solid-stroke" stroke-linejoin="round"/>
    <path d="M67.5804 33.6255C67.5104 34.5355 66.9103 35.3155 65.7703 35.9655L59.6502 39.5055L52.3902 43.6956L44.7903 48.0855C43.5803 48.7855 42.1603 49.1355 40.5203 49.1255C38.8803 49.1255 37.4503 48.7755 36.2403 48.0755L16.1602 36.4755L6.22028 30.7355C3.86028 29.3755 2.68022 27.7355 2.66022 25.7955C2.65022 23.8655 3.82022 22.2255 6.16022 20.8655L9.57038 18.8955C11.9904 17.5055 14.8304 16.5856 18.1104 16.1356C21.3804 15.6956 24.5903 15.7555 27.7303 16.3455C34.3603 17.6255 40.5203 19.2755 46.1903 21.2755C50.7503 22.8855 54.9902 24.7255 58.9302 26.8055C59.9002 27.3155 60.8503 27.8355 61.7803 28.3755C61.9903 28.4955 62.1902 28.6155 62.3902 28.7355C62.9602 29.0655 63.5103 29.3955 64.0303 29.7355C64.7503 30.1855 65.4602 30.6655 66.1802 31.1555C67.1802 31.8955 67.6504 32.7255 67.5804 33.6255Z" class="pr-icon-iso-solid-stroke" stroke-linejoin="round"/>
    <path d="M100.82 51.8163V52.0563C100.82 52.2263 100.78 52.3863 100.71 52.5663C100.35 53.5163 99.3597 54.1263 97.7197 54.4163L79.0398 58.0263L82.0398 59.7563C82.5498 60.0463 82.9099 60.3663 83.1199 60.7063C83.2599 60.8963 83.3299 61.1063 83.3599 61.3163V61.6763C83.3399 61.8663 83.2797 62.0563 83.1797 62.2563C82.7197 63.2263 81.6698 63.8463 80.0298 64.1363L64.5898 66.5563L55.8198 67.9263L46.1797 69.4363C45.3997 69.5663 44.8097 69.4263 44.4197 69.0363C44.2597 68.8763 44.1797 68.7163 44.1797 68.5663V68.5463C44.1797 68.4863 44.1997 68.4263 44.2297 68.3663C44.2997 68.2263 44.4497 68.0863 44.6797 67.9563L55.8198 61.5263L61.9397 57.9863L57.6497 55.5163C56.4397 54.8163 55.8298 53.9863 55.8198 53.0463C55.8198 52.0963 56.4199 51.2763 57.6199 50.5763L61.5999 48.2763L65.8699 45.8163L67.5798 44.8263L74.6697 40.7363C75.8797 40.0363 77.2997 39.6963 78.9397 39.6963C80.5797 39.6963 82.0097 40.0563 83.2197 40.7563L95.8098 48.0163L99.4097 50.0963C100.29 50.5963 100.76 51.1863 100.82 51.8163Z" class="pr-icon-iso-solid-stroke" stroke-linejoin="round"/>
    <path d="M107.24 16.116V16.166C107.24 20.016 104.91 23.276 100.24 25.976C100.15 26.026 100.06 26.086 99.9598 26.136C95.3298 28.726 89.7298 30.026 83.1598 30.016C76.5498 30.006 70.8898 28.666 66.2098 26.006C66.1498 25.976 66.0999 25.946 66.0399 25.916C61.3199 23.186 58.9498 19.896 58.9298 16.026C58.9098 12.156 61.2498 8.87604 65.9298 6.16604C70.6198 3.46604 76.3099 2.11603 83.0099 2.12603C89.7099 2.13603 95.4198 3.50604 100.13 6.22604C104.85 8.95604 107.22 12.246 107.24 16.116Z" class="pr-icon-iso-solid-stroke" stroke-linejoin="round"/>
    <path d="M107.24 16.1664V36.1164C107.26 39.9864 104.93 43.2664 100.24 45.9764C98.8497 46.7764 97.3798 47.4564 95.8098 48.0164L83.2197 40.7564C82.0097 40.0564 80.5797 39.6964 78.9397 39.6964C77.2997 39.6964 75.8797 40.0364 74.6697 40.7364L67.5798 44.8264V33.6264C67.6498 32.7264 67.1797 31.8964 66.1797 31.1564C65.4597 30.6664 64.7498 30.1864 64.0298 29.7364C63.5098 29.3964 62.9596 29.0664 62.3896 28.7364C62.1896 28.6164 61.9898 28.4964 61.7798 28.3764C60.8498 27.8364 59.8997 27.3164 58.9297 26.8064V16.0264C58.9497 19.8964 61.3198 23.1864 66.0398 25.9164C66.0998 25.9464 66.1497 25.9764 66.2097 26.0064C70.8897 28.6664 76.5497 30.0064 83.1597 30.0164C89.7297 30.0264 95.3297 28.7264 99.9597 26.1364C100.06 26.0864 100.15 26.0264 100.24 25.9764C104.91 23.2764 107.24 20.0164 107.24 16.1664Z" class="pr-icon-iso-solid-stroke" stroke-linejoin="round"/>
    <path d="M100.82 52.0557V72.0057C100.82 72.1857 100.78 72.3757 100.71 72.5657C100.35 73.5157 99.36 74.1257 97.72 74.4157L83.3601 77.1957V61.3157C83.3301 61.1057 83.2601 60.8957 83.1201 60.7057C82.9101 60.3657 82.55 60.0457 82.04 59.7557L79.04 58.0257L97.72 54.4157C99.36 54.1257 100.35 53.5157 100.71 52.5657C100.78 52.3857 100.82 52.2257 100.82 52.0557Z" class="pr-icon-iso-solid-stroke" stroke-linejoin="round"/>
    <path d="M83.3604 81.5462V81.3662" class="pr-icon-iso-solid-stroke" stroke-linejoin="round"/>
</svg>