<svg width="48" height="48" viewBox="0 0 126 95" xmlns="http://www.w3.org/2000/svg" stroke-width="1px"
     stroke-linecap="round" stroke-linejoin="round">
    <path d="M112.031 46.4508V46.5808C112.031 46.5808 112.041 46.5208 112.041 46.4508H112.031ZM45.1106 35.5308L45.6006 35.8208V33.7308C45.6006 34.3708 45.4406 34.9708 45.1106 35.5308ZM34.1006 48.2708V48.5108C34.1006 48.4308 34.1106 48.3408 34.1106 48.2608H34.1006V48.2708Z" class="pr-icon-iso-solid-stroke" stroke-linejoin="round"/>
    <path d="M86.8901 39.6609V59.6609L79.6003 55.4509V53.3409C79.5903 51.8109 78.6503 50.5009 76.7803 49.4209C75.7503 48.8309 74.6103 48.4009 73.3503 48.1409V41.4909C73.3403 40.9009 73.0003 40.4109 72.3203 40.0209C71.9303 39.8009 71.5003 39.6309 71.0203 39.5309V35.2309C71.0203 34.6709 70.6502 34.1809 69.9202 33.7609C69.5302 33.5309 69.1001 33.3709 68.6501 33.2609C68.2501 33.1709 67.8204 33.1209 67.3704 33.1209C66.4104 33.1209 65.5603 33.3209 64.8303 33.7509L63.5503 34.4909L60.1902 36.4309L60.0903 33.8409C60.0603 33.5209 59.9202 33.2309 59.7002 32.9609V23.9509L63.5903 26.2009L64.0803 26.4809L68.6501 29.1209L76.3403 33.5609L83.9902 37.9809L84.4802 38.2709L86.8901 39.6609Z" class="pr-icon-iso-solid-stroke" stroke-linejoin="round"/>
    <path d="M91.6506 34.6708V40.8308L90.2908 41.6208V57.4508C89.8908 57.8508 89.4008 58.2008 88.8308 58.5308L86.8906 59.6608V39.6608L88.8308 38.5308C90.1908 37.7508 91.0607 36.8308 91.4507 35.7508C91.5807 35.3908 91.6506 35.0308 91.6506 34.6708Z" class="pr-icon-iso-solid-stroke" stroke-linejoin="round"/>
    <path d="M103.14 20.1208V37.3409C102.2 36.8409 101.23 36.3708 100.21 35.9408C98.9402 35.4008 97.6503 34.9109 96.3503 34.4909C96.3503 34.6009 96.3503 34.7009 96.3403 34.8109C96.2903 35.8009 95.9603 36.7708 95.3503 37.7108C94.6803 38.7608 93.6402 39.6809 92.2302 40.5009L91.6501 40.8309V34.6409C91.6501 33.9409 91.4102 33.2309 90.9202 32.5209C90.0702 31.3109 89.0303 30.1609 87.8103 29.0709C86.7303 28.0909 85.4502 27.1708 83.9902 26.2808V20.0909C84.0002 21.6209 84.9403 22.9209 86.8103 24.0009C88.6803 25.0809 90.9403 25.6309 93.5903 25.6309C96.2403 25.6309 98.5004 25.1008 100.36 24.0308C102.22 22.9608 103.14 21.6508 103.14 20.1208Z" class="pr-icon-iso-solid-stroke" stroke-linejoin="round"/>
    <path d="M123.531 31.9208V51.9008C123.541 53.4308 122.621 54.7308 120.761 55.8008C118.901 56.8808 116.641 57.4108 113.991 57.4108C113.321 57.4108 112.671 57.3708 112.051 57.3008L112.031 46.6908V46.5808C112.031 46.5808 112.041 46.5208 112.041 46.4508C112.041 45.7308 111.811 45.0208 111.321 44.3008C110.461 43.0908 109.431 41.9408 108.211 40.8408C107.121 39.8708 105.851 38.9508 104.391 38.0608V31.8608C104.391 33.3908 105.331 34.7008 107.201 35.7808C109.071 36.8608 111.341 37.4008 113.991 37.4108C116.641 37.4108 118.901 36.8808 120.761 35.8008C122.611 34.7408 123.531 33.4408 123.531 31.9208Z" class="pr-icon-iso-solid-stroke" stroke-linejoin="round"/>
    <path d="M112.051 57.3009V66.4109V66.5209C112.041 66.8509 111.981 67.2009 111.851 67.5309C111.461 68.6009 110.591 69.5309 109.241 70.3109L107.301 71.4309V51.4309L109.241 50.3109C110.591 49.5309 111.461 48.6009 111.851 47.5309C111.951 47.2509 112.011 46.9709 112.041 46.6909L112.061 57.3009H112.051Z" class="pr-icon-iso-solid-stroke" stroke-linejoin="round"/>
    <path d="M63.3506 72.8708V92.8708L36.1504 77.1708V57.1708L39.2004 58.9308L60.4504 71.2008L60.9404 71.4808L63.3506 72.8708Z" class="pr-icon-iso-solid-stroke" stroke-linejoin="round"/>
    <path d="M34.1006 48.2709V48.5109C34.1006 48.4309 34.1106 48.3409 34.1106 48.2609H34.1006V48.2709ZM112.031 46.4509V46.5809C112.031 46.5809 112.041 46.5209 112.041 46.4509H112.031Z" class="pr-icon-iso-solid-stroke" stroke-linejoin="round"/>
    <path d="M103.14 20.1209C103.14 21.6509 102.22 22.9609 100.36 24.0309C98.5004 25.1009 96.2504 25.6309 93.5904 25.6309C90.9304 25.6309 88.6804 25.0809 86.8104 24.0009C84.9404 22.9209 84.0003 21.6209 83.9903 20.0909C83.9803 18.5509 84.9103 17.2509 86.7603 16.1809C88.6203 15.1009 90.8804 14.5709 93.5304 14.5809C96.1904 14.5809 98.4504 15.1209 100.32 16.2009C102.19 17.2809 103.13 18.5909 103.14 20.1209Z" class="pr-icon-iso-solid-stroke" stroke-linejoin="round"/>
    <path d="M45.6003 33.7109V33.7309C45.6003 34.3709 45.4404 34.9709 45.1104 35.5309C44.6604 36.3109 43.9003 37.0109 42.8303 37.6209C40.9703 38.6909 38.7103 39.2309 36.0603 39.2209C33.4003 39.2209 31.1403 38.6709 29.2703 37.6009C27.4003 36.5209 26.4602 35.2109 26.4502 33.6809C26.4502 32.1409 27.3702 30.8409 29.2302 29.7709C31.0902 28.7009 33.3402 28.1609 36.0002 28.1709C37.1802 28.1709 38.2803 28.2809 39.3003 28.5009C40.5803 28.7609 41.7403 29.1909 42.7803 29.7909C42.9803 29.9009 43.1703 30.0209 43.3403 30.1409C44.8403 31.1509 45.5903 32.3409 45.6003 33.7109Z" class="pr-icon-iso-solid-stroke" stroke-linejoin="round"/>
    <path d="M82.7403 8.34086V8.36086C82.7403 9.89086 81.8103 11.1909 79.9703 12.2509C78.1103 13.3209 75.8503 13.8609 73.2003 13.8509C70.5403 13.8509 68.2802 13.3109 66.4102 12.2309C64.5402 11.1509 63.6004 9.84086 63.5904 8.31086C63.5804 6.78086 64.5104 5.47086 66.3704 4.40086C68.2304 3.33086 70.4802 2.79086 73.1402 2.80086C75.7902 2.80086 78.0502 3.35086 79.9202 4.43086C81.7902 5.51086 82.7303 6.81086 82.7403 8.34086Z" class="pr-icon-iso-solid-stroke" stroke-linejoin="round"/>
    <path d="M123.53 31.9009V31.9209C123.53 33.4409 122.61 34.7409 120.76 35.8009C118.9 36.8809 116.64 37.4109 113.99 37.4109C111.34 37.4009 109.07 36.8609 107.2 35.7809C105.33 34.7009 104.39 33.3909 104.39 31.8609C104.38 30.3309 105.3 29.0309 107.16 27.9509C109.02 26.8809 111.28 26.3509 113.93 26.3509C116.58 26.3609 118.85 26.9009 120.72 27.9809C122.59 29.0609 123.52 30.3609 123.53 31.9009Z" class="pr-icon-iso-solid-stroke" stroke-linejoin="round"/>
    <path d="M112.04 46.4508H112.03V46.6908C112 46.9708 111.94 47.2508 111.84 47.5308C111.45 48.6008 110.58 49.5308 109.23 50.3108L107.29 51.4308L104.88 50.0408L104.39 49.7608L96.74 45.3408L91.6499 42.4008L90.29 41.6208L91.6499 40.8308L92.23 40.5008C93.64 39.6808 94.6801 38.7608 95.3501 37.7108C95.9601 36.7708 96.2901 35.8008 96.3401 34.8108C96.3501 34.7008 96.3501 34.6008 96.3501 34.4908C97.6501 34.9108 98.94 35.4008 100.21 35.9408C101.23 36.3708 102.2 36.8408 103.13 37.3408C103.37 37.4708 103.6 37.6008 103.83 37.7308C104.02 37.8408 104.21 37.9508 104.39 38.0608C105.85 38.9508 107.12 39.8708 108.21 40.8408C109.43 41.9408 110.46 43.0908 111.32 44.3008C111.81 45.0208 112.05 45.7308 112.04 46.4508Z" class="pr-icon-iso-solid-stroke" stroke-linejoin="round"/>
    <path d="M91.6501 34.6409V34.6709C91.6501 35.0309 91.5802 35.3909 91.4502 35.7509C91.0602 36.8309 90.1903 37.7509 88.8303 38.5309L86.8901 39.6609L84.4802 38.2709L83.9902 37.9809L76.3403 33.5609L68.6501 29.1209L64.0803 26.4809L63.5903 26.2009L59.7002 23.9509L61.6401 22.8309C62.2401 22.4809 62.8903 22.1909 63.5903 21.9609C64.4603 21.6609 65.4202 21.4509 66.4602 21.3309C67.1902 21.2409 67.9201 21.2009 68.6501 21.2209C69.7801 21.2309 70.9203 21.3709 72.0503 21.6309C74.1503 22.1209 76.1403 22.7209 78.0403 23.4309C79.6803 24.0409 81.2502 24.7509 82.7402 25.5709C82.9702 25.6909 83.2002 25.8209 83.4302 25.9509C83.6202 26.0609 83.8002 26.1709 83.9902 26.2809C85.4502 27.1709 86.7303 28.0909 87.8103 29.0709C89.0303 30.1609 90.0702 31.3109 90.9202 32.5209C91.4102 33.2309 91.6501 33.9409 91.6501 34.6409Z" class="pr-icon-iso-solid-stroke" stroke-linejoin="round"/>
    <path d="M73.3503 41.4909C73.3503 41.6509 73.3303 41.8009 73.2803 41.9409C73.1403 42.3409 72.8303 42.6709 72.3403 42.9609C71.9503 43.1809 71.5203 43.3409 71.0203 43.4309C70.6503 43.5009 70.2403 43.5409 69.8003 43.5409L60.4402 43.5209H57.7703C56.4103 43.5109 55.2804 43.2509 54.3804 42.7309C53.4704 42.2009 53.0103 41.5509 53.0103 40.7709V40.0909L52.9702 33.8209C52.9702 33.2409 53.3102 32.7509 53.9802 32.3609C54.6102 32.0009 55.3803 31.8009 56.3003 31.7809C56.3703 31.7709 56.4503 31.7709 56.5203 31.7709C57.5403 31.7809 58.3703 31.9809 59.0203 32.3909C59.3003 32.5709 59.5302 32.7609 59.7002 32.9609C59.9202 33.2309 60.0603 33.5209 60.0903 33.8409L60.1902 36.4309L63.5503 34.4909L64.8303 33.7509C65.5603 33.3209 66.4104 33.1109 67.3704 33.1209C67.8204 33.1209 68.2501 33.1709 68.6501 33.2609C69.1001 33.3709 69.5302 33.5309 69.9202 33.7609C70.6502 34.1809 71.0203 34.6709 71.0203 35.2309V35.2509C71.0203 35.7909 70.6502 36.2809 69.9302 36.6909L68.6501 37.4309L67.9702 37.8209L66.6802 38.5709L65.2903 39.3709H69.8604C70.2704 39.3909 70.6603 39.4409 71.0203 39.5309C71.5003 39.6309 71.9303 39.8009 72.3203 40.0209C73.0003 40.4109 73.3403 40.9009 73.3503 41.4909Z" class="pr-icon-iso-solid-stroke" stroke-linejoin="round"/>
    <path d="M112.03 46.4509V46.3309" class="pr-icon-iso-solid-stroke" stroke-linejoin="round"/>
    <path d="M107.29 51.4309V71.4309L90.29 61.6209V41.6208L91.6499 42.4009L96.74 45.3408L104.39 49.7609L104.88 50.0409L107.29 51.4309Z" class="pr-icon-iso-solid-stroke" stroke-linejoin="round"/>
    <path d="M91.6504 34.6409V34.2509" class="pr-icon-iso-solid-stroke" stroke-linejoin="round"/>
    <path d="M68.6501 18.4909C66.9201 18.4909 65.2203 18.6409 63.5903 18.9709C63.4103 19.0009 63.2403 19.0309 63.0603 19.0709C61.2503 19.4609 59.6502 20.0609 58.2402 20.8709L56.3003 21.9909L39.3003 12.1809L41.2402 11.0609C42.5902 10.2809 44.2003 9.77086 46.0603 9.55086C47.9303 9.32086 49.7902 9.43086 51.6602 9.85086C53.7502 10.3509 55.7401 10.9409 57.6401 11.6509C59.5301 12.3509 61.3303 13.2009 63.0303 14.1809C63.2203 14.2909 63.4103 14.4009 63.5903 14.5209C64.5103 15.0609 65.3601 15.6509 66.1401 16.2609C67.0701 17.0009 67.9101 17.7409 68.6501 18.4909Z" class="pr-icon-iso-solid-stroke" stroke-linejoin="round"/>
    <path d="M82.7402 8.36085V25.5709C81.2502 24.7509 79.6803 24.0409 78.0403 23.4309C76.1403 22.7209 74.1503 22.1209 72.0503 21.6309C70.9203 21.3709 69.7801 21.2309 68.6501 21.2209V18.4909C67.9101 17.7409 67.0701 17.0009 66.1401 16.2609C65.3601 15.6509 64.5103 15.0609 63.5903 14.5209V8.31085C63.6003 9.84085 64.5402 11.1509 66.4102 12.2309C68.2802 13.3109 70.5402 13.8509 73.2002 13.8509C75.8502 13.8609 78.1102 13.3209 79.9702 12.2509C81.8102 11.1909 82.7402 9.89085 82.7402 8.36085Z" class="pr-icon-iso-solid-stroke" stroke-linejoin="round"/>
    <path d="M68.6501 18.4908V21.2208C67.9201 21.2008 67.1902 21.2408 66.4602 21.3308C65.4202 21.4508 64.4603 21.6608 63.5903 21.9608C62.8903 22.1908 62.2401 22.4808 61.6401 22.8308L59.7002 23.9508V32.9608C59.5302 32.7608 59.3003 32.5708 59.0203 32.3908C58.3703 31.9808 57.5403 31.7808 56.5203 31.7708C56.4503 31.7708 56.3703 31.7708 56.3003 31.7808V21.9908L58.2402 20.8708C59.6502 20.0608 61.2503 19.4608 63.0603 19.0708C63.2403 19.0308 63.4103 19.0008 63.5903 18.9708C65.2203 18.6408 66.9201 18.4908 68.6501 18.4908Z" class="pr-icon-iso-solid-stroke" stroke-linejoin="round"/>
    <path d="M56.3003 21.9908V31.7808C55.3803 31.8008 54.6102 32.0008 53.9802 32.3608C53.3102 32.7508 52.9702 33.2408 52.9702 33.8208L53.0103 40.0908L45.6003 35.8208V33.7108C45.5903 32.3408 44.8403 31.1508 43.3403 30.1408C43.1703 30.0208 42.9803 29.9008 42.7803 29.7908C41.7403 29.1908 40.5803 28.7608 39.3003 28.5008V12.1808L56.3003 21.9908Z" class="pr-icon-iso-solid-stroke" stroke-linejoin="round"/>
    <path d="M45.6003 35.8208V53.7108C45.6003 53.9608 45.5803 54.2108 45.5203 54.4508C44.6503 54.4008 43.7902 54.4408 42.9202 54.5408C41.0602 54.7708 39.4503 55.2708 38.1003 56.0508L36.1501 57.1708V59.2208H36.0603C35.3803 59.2208 34.7303 59.1808 34.1003 59.1108V48.5108C34.1003 48.4308 34.1104 48.3408 34.1104 48.2608C34.1204 47.5408 33.8704 46.8308 33.3804 46.1108C32.5304 44.9108 31.4903 43.7509 30.2703 42.6609C29.1903 41.6809 27.9102 40.7608 26.4502 39.8808V33.6808C26.4602 35.2108 27.4003 36.5208 29.2703 37.6008C31.1403 38.6708 33.4003 39.2208 36.0603 39.2208C38.7103 39.2308 40.9703 38.6908 42.8303 37.6208C43.9003 37.0108 44.6604 36.3108 45.1104 35.5308L45.6003 35.8208Z" class="pr-icon-iso-solid-stroke" stroke-linejoin="round"/>
    <path d="M34.1104 48.2609H34.1003V48.5109C34.0703 48.7809 34.0102 49.0609 33.9102 49.3409C33.5202 50.4209 32.6503 51.3509 31.3003 52.1309L29.3604 53.2509L26.9502 51.8609L26.4502 51.5709L2.16016 37.5509L4.10034 36.4209C5.45034 35.6409 7.06017 35.1409 8.92017 34.9209C10.7902 34.6909 12.6503 34.7909 14.5203 35.2209C16.6103 35.7109 18.6002 36.3109 20.5002 37.0209C22.4002 37.7209 24.1901 38.5609 25.8901 39.5509C26.0801 39.6609 26.2602 39.7709 26.4502 39.8809C27.9102 40.7609 29.1903 41.6809 30.2703 42.6609C31.4903 43.7509 32.5304 44.9109 33.3804 46.1109C33.8704 46.8309 34.1204 47.5409 34.1104 48.2609Z" class="pr-icon-iso-solid-stroke" stroke-linejoin="round"/>
    <path d="M29.3604 53.2508V73.2508L2.16016 57.5508V37.5508L26.4502 51.5708L26.9502 51.8608L29.3604 53.2508Z" class="pr-icon-iso-solid-stroke" stroke-linejoin="round"/>
    <path d="M68.1006 67.8909V87.9809C68.0806 88.3109 68.0204 88.6409 67.9004 88.9709C67.5104 90.0409 66.6405 90.9709 65.2905 91.7509L63.3506 92.8709V72.8709L65.2905 71.7509C66.6405 70.9709 67.5104 70.0409 67.9004 68.9709C68.0404 68.6109 68.1006 68.2509 68.1006 67.8909Z" class="pr-icon-iso-solid-stroke" stroke-linejoin="round"/>
    <path d="M68.1006 67.7508V67.8908C68.1006 68.2508 68.0404 68.6108 67.9004 68.9708C67.5104 70.0409 66.6405 70.9708 65.2905 71.7508L63.3506 72.8709L60.9404 71.4809L60.4504 71.2008L39.2004 58.9308L36.1504 57.1708L38.1006 56.0509C39.4506 55.2709 41.0604 54.7709 42.9204 54.5409C43.7904 54.4409 44.6505 54.4008 45.5205 54.4508C46.5105 54.4908 47.5105 54.6208 48.5105 54.8508C50.0505 55.2108 51.5505 55.6308 52.9805 56.1108C53.4905 56.2808 54.0005 56.4608 54.4905 56.6408C56.3905 57.3508 58.1904 58.1908 59.8904 59.1708C60.0804 59.2808 60.2604 59.3908 60.4504 59.5008C61.9104 60.3808 63.1905 61.3109 64.2705 62.2909C64.7205 62.6909 65.1505 63.1108 65.5405 63.5308C66.2305 64.2408 66.8406 64.9808 67.3806 65.7408C67.8406 66.4208 68.0806 67.0808 68.1006 67.7508Z" class="pr-icon-iso-solid-stroke" stroke-linejoin="round"/>
    <path d="M79.6003 53.3409V73.3409C79.6003 74.8709 78.6803 76.1709 76.8203 77.2509C74.9603 78.3209 72.7103 78.8509 70.0503 78.8509C69.3803 78.8509 68.7303 78.8109 68.1003 78.7409V67.7509C68.0803 67.0809 67.8404 66.4209 67.3804 65.7409C66.8404 64.9809 66.2303 64.2409 65.5403 63.5309C65.1503 63.1109 64.7203 62.6909 64.2703 62.2909C63.1903 61.3109 61.9102 60.3809 60.4502 59.5009V53.3009C60.4602 54.1909 60.7701 55.0009 61.4001 55.7309C61.8601 56.2709 62.4903 56.7609 63.2703 57.2209C64.3103 57.8209 65.4703 58.2609 66.7603 58.5209C67.7803 58.7409 68.8803 58.8509 70.0503 58.8509C71.2203 58.8509 72.3303 58.7509 73.3503 58.5309C74.6303 58.2709 75.7903 57.8409 76.8203 57.2509C77.8903 56.6309 78.6503 55.9409 79.1003 55.1609C79.4303 54.6009 79.6003 53.9909 79.6003 53.3409Z" class="pr-icon-iso-solid-stroke" stroke-linejoin="round"/>
    <path d="M73.3506 41.9609V48.1409C72.6106 47.9709 71.8405 47.8709 71.0205 47.8209C70.6805 47.8009 70.3405 47.7909 69.9905 47.7909C68.8705 47.7909 67.8206 47.8809 66.8406 48.0809C65.5006 48.3409 64.2905 48.7809 63.2205 49.4009C61.3605 50.4709 60.4404 51.7709 60.4504 53.3009V59.5009C60.2604 59.3909 60.0804 59.2809 59.8904 59.1709C58.1904 58.1909 56.3905 57.3509 54.4905 56.6409C54.0005 56.4609 53.4905 56.2809 52.9805 56.1109V53.8209L53.0105 40.7709C53.0105 41.5509 53.4706 42.2009 54.3806 42.7309C55.2806 43.2509 56.4105 43.5109 57.7705 43.5209H60.4404L69.8005 43.5409C70.2405 43.5409 70.6505 43.5009 71.0205 43.4309C71.5205 43.3409 71.9506 43.1809 72.3406 42.9609C72.8306 42.6709 73.1405 42.3409 73.2805 41.9409C73.3005 41.9409 73.3306 41.9409 73.3506 41.9609Z" class="pr-icon-iso-solid-stroke" stroke-linejoin="round"/>
    <path d="M79.6004 53.3409C79.6004 53.9909 79.4304 54.6009 79.1004 55.1609C78.6504 55.9409 77.8904 56.6309 76.8204 57.2509C75.7904 57.8409 74.6304 58.2709 73.3504 58.5309C72.3304 58.7509 71.2304 58.8509 70.0504 58.8509C68.8704 58.8509 67.7803 58.7409 66.7603 58.5209C65.4703 58.2609 64.3103 57.8209 63.2703 57.2209C62.4903 56.7609 61.8602 56.2709 61.4002 55.7309C60.7702 55.0009 60.4603 54.1909 60.4503 53.3009C60.4403 51.7709 61.3603 50.4709 63.2203 49.4009C64.2903 48.7809 65.5004 48.3409 66.8404 48.0809C67.8204 47.8809 68.8703 47.7909 69.9903 47.7909C70.3403 47.7909 70.6803 47.7909 71.0203 47.8209C71.8403 47.8709 72.6104 47.9709 73.3504 48.1409C74.6104 48.4009 75.7504 48.8309 76.7804 49.4209C78.6504 50.5009 79.5904 51.8109 79.6004 53.3409Z" class="pr-icon-iso-solid-stroke" stroke-linejoin="round"/>
    <path d="M71.02 35.2509V39.5309C70.66 39.4409 70.2701 39.3909 69.8601 39.3809H65.29L66.6799 38.5709L67.97 37.8209L68.6499 37.4309L69.9299 36.6909C70.6499 36.2809 71.02 35.7909 71.02 35.2509Z" class="pr-icon-iso-solid-stroke" stroke-linejoin="round"/>
    <path d="M34.1003 48.5109V68.1109C34.1303 68.5209 34.0602 68.9309 33.9102 69.3409C33.5202 70.4209 32.6503 71.3509 31.3003 72.1309L29.3604 73.2509V53.2509L31.3003 52.1309C32.6503 51.3509 33.5202 50.4209 33.9102 49.3409C34.0102 49.0609 34.0703 48.7809 34.1003 48.5109Z" class="pr-icon-iso-solid-stroke" stroke-linejoin="round"/>
</svg>