<svg width="48" height="48" viewBox="0 0 119 91" fill="#229EFF" xmlns="http://www.w3.org/2000/svg" stroke-width="1px" stroke-linecap="round" stroke-linejoin="round"><path d="M101.23 56.6799V76.6599C101.24 77.4099 100.77 78.0499 99.8098 78.5999C98.8598 79.1499 97.7397 79.4199 96.4497 79.4199C95.1597 79.4199 94.0398 79.1399 93.0798 78.5899L89.6997 76.6399C88.7497 76.0899 88.2698 75.4399 88.2598 74.6899V54.6899C88.2598 55.4399 88.7497 56.0899 89.6997 56.6399L92.3599 58.1699L93.0798 58.5899C94.0398 59.1399 95.1597 59.4199 96.4497 59.4199C97.7397 59.4199 98.8598 59.1499 99.8098 58.5999C100.76 58.0599 101.23 57.4199 101.23 56.6799Z" stroke="white" stroke-linejoin="round"/><path d="M101 13.9099V33.8899C101.01 34.6399 100.53 35.2899 99.5798 35.8399L96.2297 37.7699C95.2697 38.3199 94.1499 38.5999 92.8599 38.5899C92.7999 38.5899 92.7497 38.5899 92.6997 38.5799V35.3099C92.6897 34.2699 92.5598 33.2499 92.2898 32.2499C91.6798 30.0299 90.4097 27.9299 88.4797 25.9499C88.3397 25.7999 88.1998 25.6599 88.0498 25.5299V15.8199C88.0498 16.5599 88.5297 17.2099 89.4897 17.7599C90.4497 18.3099 91.5699 18.5899 92.8599 18.5899C94.1499 18.5999 95.2697 18.3199 96.2297 17.7699L99.5798 15.8399C100.52 15.2999 101 14.6499 101 13.9099Z" stroke="white" stroke-linejoin="round"/><path d="M63.9299 7.77994V27.7499C63.9399 28.5299 63.4901 29.1799 62.6001 29.6899C62.0801 29.9899 61.4901 30.1999 60.8301 30.3199V18.4799C60.8301 18.0099 60.6001 17.5699 60.1501 17.1499C59.3401 16.3899 58.1699 16.0199 56.6599 16.0499C55.9099 16.0799 55.1599 16.1199 54.4199 16.1899V7.68994C54.4299 8.45994 54.8901 9.11994 55.8201 9.65994C56.7501 10.1899 57.89 10.4599 59.23 10.4699C60.58 10.4699 61.7001 10.2099 62.6001 9.68994C63.4801 9.18994 63.9299 8.53994 63.9299 7.77994Z" stroke="white" stroke-linejoin="round"/><path d="M30.3101 15.71V25.71C29.6301 26.38 29.04 27.08 28.52 27.81C27.48 29.26 26.7601 30.77 26.3801 32.32C26.1401 33.26 26.03 34.22 26.04 35.19V38.46C25.87 38.47 25.7 38.47 25.52 38.47C24.23 38.47 23.1101 38.19 22.1501 37.64L18.78 35.69C17.82 35.14 17.3401 34.49 17.3301 33.74V13.74C17.3301 14.49 17.82 15.14 18.78 15.69L22.1501 17.64C23.1101 18.19 24.23 18.47 25.52 18.47C26.81 18.47 27.9401 18.2 28.8901 17.65C29.8401 17.1 30.3101 16.46 30.3101 15.71Z" stroke="white" stroke-linejoin="round"/><path d="M64.1504 62.72V65.59C64.1604 65.54 64.1602 65.49 64.1602 65.44V62.72H64.1504Z" stroke="white" stroke-linejoin="round"/><path d="M101 13.8899V13.9099C101 14.6499 100.52 15.2999 99.5798 15.8399L96.2297 17.7699C95.2697 18.3199 94.1499 18.5999 92.8599 18.5899C91.5699 18.5899 90.4497 18.3099 89.4897 17.7599C88.5297 17.2099 88.0498 16.5599 88.0498 15.8199C88.0498 15.0799 88.5197 14.4199 89.4697 13.8699L92.8298 11.9399C93.7798 11.3899 94.8997 11.1099 96.1897 11.1199C97.4797 11.1199 98.5998 11.3999 99.5598 11.9499C100.52 12.4999 101 13.1499 101 13.8899Z" stroke="white" stroke-linejoin="round"/><path d="M116.35 35.3101V35.3301C116.35 36.0901 115.89 36.7501 114.98 37.2701C114.05 37.8001 112.92 38.0701 111.57 38.0701H106.86C105.51 38.0601 104.39 37.7901 103.49 37.2701C102.59 36.7501 102.13 36.1101 102.13 35.3301C102.12 34.5501 102.58 33.9001 103.51 33.3601C104.43 32.8301 105.57 32.5601 106.91 32.5701H111.63C112.86 32.5801 113.94 32.8501 114.87 33.3801C115.8 33.9201 116.29 34.5601 116.35 35.3101Z" stroke="white" stroke-linejoin="round"/><path d="M101.23 56.6599V56.6799C101.23 57.4199 100.76 58.0599 99.8098 58.5999C98.8598 59.1499 97.7397 59.4199 96.4497 59.4199C95.1597 59.4199 94.0398 59.1399 93.0798 58.5899L92.3599 58.1699L89.6997 56.6399C88.7497 56.0899 88.2698 55.4399 88.2598 54.6899C88.2598 53.9499 88.7297 53.2999 89.6797 52.7499C90.4197 52.3199 91.2697 52.0599 92.2097 51.9699C92.3697 51.9499 92.5297 51.9399 92.6997 51.9399C92.8097 51.9299 92.9298 51.9299 93.0398 51.9299C94.3298 51.9299 95.4597 52.2099 96.4197 52.7599L99.7898 54.7099C100.75 55.2699 101.23 55.9199 101.23 56.6599Z" stroke="white" stroke-linejoin="round"/><path d="M92.7002 35.3099V35.4099C92.7002 36.4899 92.5502 37.5399 92.2502 38.5699C91.6502 40.6699 90.4404 42.6799 88.6304 44.5899C88.3804 44.8499 88.1304 45.1099 87.8604 45.3499C86.0304 47.0999 83.8002 48.6199 81.1802 49.9099C80.0202 50.4899 78.7802 51.0199 77.4702 51.5099C76.2902 51.9299 75.0603 52.0299 73.7703 51.7999C72.4803 51.5699 71.4903 51.0999 70.8103 50.3899C70.4603 49.9999 70.2803 49.5999 70.2803 49.1999C70.2803 48.8899 70.3903 48.5899 70.5903 48.2699C71.0703 47.5399 71.8602 46.9499 72.9802 46.4999C73.9202 46.1299 74.8004 45.7299 75.6104 45.2899C77.5704 44.2599 79.1604 43.0299 80.4004 41.6299C80.6704 41.3299 80.9104 41.0199 81.1404 40.7099C82.4004 38.9899 83.0303 37.1599 83.0203 35.2399C83.0203 32.9799 82.1304 30.8699 80.3804 28.9199C78.6304 26.9799 76.2104 25.3699 73.1104 24.0999C71.9904 23.6399 71.2002 23.0599 70.7502 22.3399C70.5402 22.0199 70.4402 21.6999 70.4402 21.3899C70.4402 20.9899 70.6004 20.5999 70.9004 20.2099C71.4604 19.4899 72.3704 19.0199 73.6304 18.7799C74.8904 18.5399 76.0902 18.6099 77.2102 18.9999C81.6902 20.6699 85.3103 22.8499 88.0503 25.5299C88.2003 25.6599 88.3402 25.7999 88.4802 25.9499C90.4102 27.9299 91.6803 30.0299 92.2903 32.2499C92.5603 33.2499 92.6902 34.2699 92.7002 35.3099Z" stroke="white" stroke-linejoin="round"/><path d="M63.9296 7.75V7.78C63.9296 8.54 63.4797 9.19 62.5997 9.69C61.6997 10.21 60.5796 10.47 59.2296 10.47C57.8896 10.46 56.7497 10.19 55.8197 9.66C54.8897 9.12 54.4296 8.46 54.4196 7.69V4.97C54.3996 4.25 54.8597 3.63 55.7897 3.1C56.7097 2.56 57.8198 2.28 59.1098 2.25C60.4498 2.26 61.5897 2.52 62.5197 3.06C63.4497 3.6 63.9096 4.25 63.9196 5.03V7.75H63.9296Z" stroke="white" stroke-linejoin="round"/><path d="M64.1504 62.7199V65.5899C64.1004 66.2399 63.6403 66.8099 62.7803 67.3099C62.2603 67.6099 61.6703 67.8299 61.0203 67.9699C60.5403 68.0799 60.0202 68.1399 59.4602 68.1499C59.1702 68.1499 58.8904 68.1399 58.6204 68.1099C57.6404 68.0199 56.7803 67.7599 56.0503 67.3399C55.1203 66.8099 54.6504 66.1499 54.6504 65.3699V62.6499C54.6304 62.0299 54.9102 61.5099 55.4702 61.0599C55.6102 60.9299 55.7802 60.8199 55.9702 60.7099C56.8702 60.1899 57.9903 59.9399 59.3303 59.9399C59.9403 59.9399 60.4903 59.9899 61.0103 60.0999C61.6503 60.2399 62.2303 60.4499 62.7403 60.7499C63.6703 61.2799 64.1304 61.9399 64.1404 62.7199H64.1504Z" stroke="white" stroke-linejoin="round"/><path d="M30.5199 54.5901C30.5199 55.3301 30.05 55.9801 29.1 56.5301L26.4198 58.0801L25.7399 58.4701C24.7899 59.0201 23.67 59.2901 22.38 59.2901C21.09 59.2901 19.9599 59.0101 19.0099 58.4601C18.0499 57.9001 17.57 57.2501 17.57 56.5101C17.56 55.7601 18.0399 55.1201 18.9899 54.5701L22.34 52.6301C23.29 52.0801 24.4099 51.8101 25.7099 51.8101C25.8199 51.8101 25.9299 51.8101 26.0399 51.8201C26.1999 51.8201 26.3599 51.8301 26.5199 51.8501C27.4699 51.9401 28.33 52.2101 29.08 52.6401C30.03 53.1901 30.5099 53.8401 30.5199 54.5901Z" stroke="white" stroke-linejoin="round"/><path d="M16.4399 35.0801C16.4399 35.8501 15.9801 36.5101 15.0601 37.0401C14.1401 37.5701 12.9999 37.8401 11.6599 37.8401H6.93994C5.70994 37.8301 4.62995 37.5601 3.69995 37.0201C2.76995 36.4801 2.26996 35.8401 2.20996 35.1001C2.20996 34.3201 2.67009 33.6701 3.59009 33.1301C4.52009 32.6001 5.65 32.3301 7 32.3401H11.71C13.06 32.3501 14.1801 32.6101 15.0801 33.1301C15.9801 33.6501 16.4399 34.3001 16.4399 35.0801Z" stroke="white" stroke-linejoin="round"/><path d="M30.3101 15.71C30.3101 16.46 29.8401 17.1 28.8901 17.65C27.9401 18.2 26.82 18.47 25.52 18.47C24.22 18.47 23.1101 18.19 22.1501 17.64L18.78 15.69C17.82 15.14 17.3401 14.49 17.3301 13.74C17.3301 13 17.8 12.35 18.75 11.8C19.71 11.25 20.8301 10.98 22.1201 10.98C23.4101 10.98 24.53 11.26 25.49 11.81L28.8701 13.76C29.8201 14.32 30.3001 14.97 30.3101 15.71Z" stroke="white" stroke-linejoin="round"/><path d="M61.0097 52.02V52.05C61.0097 52.51 60.7897 52.94 60.3497 53.35C59.5397 54.11 58.3798 54.48 56.8598 54.44C56.1298 54.41 55.3996 54.36 54.6796 54.3C51.4896 54.05 48.4397 53.53 45.5297 52.74C41.9597 51.78 38.7398 50.47 35.8698 48.82C33.9198 47.7 32.2598 46.47 30.8698 45.15C29.9998 44.33 29.2497 43.47 28.5997 42.58C27.6297 41.24 26.9297 39.85 26.5197 38.41C26.1997 37.36 26.0397 36.29 26.0397 35.19C26.0297 34.22 26.1398 33.26 26.3798 32.32C26.7598 30.77 27.4797 29.26 28.5197 27.81C29.0397 27.08 29.6297 26.38 30.3097 25.71C31.7597 24.21 33.5696 22.85 35.7296 21.6C38.5796 19.95 41.7797 18.66 45.3397 17.71C48.2297 16.94 51.2496 16.43 54.4196 16.19C55.1596 16.12 55.9096 16.08 56.6596 16.05C58.1696 16.02 59.3398 16.39 60.1498 17.15C60.5998 17.57 60.8297 18.01 60.8297 18.48C60.8297 18.86 60.6798 19.25 60.3798 19.65C59.7098 20.52 59.0997 21.39 58.5497 22.28C57.5297 23.9 56.7097 25.56 56.0797 27.25C55.8197 27.96 55.5896 28.67 55.4096 29.39C54.8996 31.31 54.6496 33.26 54.6596 35.24C54.6596 35.55 54.6696 35.86 54.6896 36.17C54.7896 38.57 55.2896 40.93 56.1696 43.24C56.4096 43.87 56.6796 44.5 56.9796 45.12C57.8996 47.08 59.0997 48.99 60.5497 50.85C60.8497 51.25 60.9997 51.64 61.0097 52.02Z" stroke="white" stroke-linejoin="round"/><path d="M116.35 35.3301V55.3101C116.36 56.0801 115.9 56.7401 114.98 57.2701C114.05 57.8001 112.92 58.0701 111.57 58.0701H106.86C105.51 58.0601 104.39 57.7901 103.49 57.2701C102.59 56.7501 102.13 56.1101 102.13 55.3301V35.3301C102.13 36.1101 102.59 36.7501 103.49 37.2701C104.39 37.7901 105.51 38.0601 106.86 38.0601H111.57C112.92 38.0701 114.05 37.8001 114.98 37.2701C115.89 36.7501 116.35 36.0901 116.35 35.3301Z" stroke="white" stroke-linejoin="round"/><path d="M16.4399 35.0801V55.0801C16.4399 55.8501 15.9801 56.5101 15.0601 57.0401C14.1401 57.5701 12.9999 57.8401 11.6599 57.8401H6.93994C5.70994 57.8301 4.62995 57.5601 3.69995 57.0201C2.76995 56.4801 2.26996 55.8401 2.20996 55.1001V35.1001C2.26996 35.8401 2.76995 36.4801 3.69995 37.0201C4.62995 37.5601 5.70994 37.8301 6.93994 37.8301H11.6599C12.9999 37.8401 14.1401 37.5701 15.0601 37.0401C15.9801 36.5101 16.4399 35.8501 16.4399 35.0801Z" stroke="white" stroke-linejoin="round"/><path d="M30.5203 54.5901V74.5901C30.5203 75.3301 30.0503 75.9801 29.1003 76.5301L25.7402 78.4701C24.7902 79.0201 23.6704 79.2901 22.3804 79.2901C21.0904 79.2901 19.9603 79.0101 19.0103 78.4601C18.0503 77.9001 17.5703 77.2501 17.5703 76.5101V56.5101C17.5703 57.2501 18.0503 57.9001 19.0103 58.4601C19.9603 59.0101 21.0904 59.2901 22.3804 59.2901C23.6704 59.2901 24.7902 59.0201 25.7402 58.4701L26.4202 58.0801L29.1003 56.5301C30.0503 55.9801 30.5203 55.3301 30.5203 54.5901Z" stroke="white" stroke-linejoin="round"/><path d="M54.6401 84.8701V83.5901" stroke="white" stroke-linejoin="round"/><path d="M64.1599 85.4401C64.1699 86.1501 63.71 86.7701 62.78 87.3101C61.86 87.8401 60.75 88.1201 59.46 88.1501C58.12 88.1501 56.98 87.8801 56.05 87.3401C55.12 86.8101 54.6501 86.1501 54.6501 85.3701V83.5901L54.6401 82.5501V74.3001L54.6501 65.3701C54.6501 66.1501 55.12 66.8101 56.05 67.3401C56.78 67.7601 57.6401 68.0201 58.6201 68.1101C58.8901 68.1401 59.17 68.1501 59.46 68.1501C60.02 68.1401 60.54 68.0801 61.02 67.9701C61.67 67.8301 62.26 67.6101 62.78 67.3101C63.64 66.8101 64.1001 66.2401 64.1501 65.5901V85.4401H64.1599Z" stroke="white" stroke-linejoin="round"/><path d="M61.01 52.0499V60.0999C60.49 59.9899 59.9401 59.9399 59.3301 59.9399C57.9901 59.9399 56.87 60.1899 55.97 60.7099C55.78 60.8199 55.61 60.9299 55.47 61.0599C54.91 61.5099 54.6301 62.0299 54.6401 62.6499V65.3699L54.6501 74.2999C51.4701 74.0499 48.43 73.5299 45.53 72.7399C41.96 71.7799 38.7401 70.4699 35.8701 68.8199C33.7601 67.5999 31.98 66.2699 30.52 64.7999V54.5899C30.52 53.8399 30.0301 53.1899 29.0801 52.6399C28.3301 52.2099 27.47 51.9399 26.52 51.8499C26.36 51.8299 26.2 51.8199 26.04 51.8199V35.1899C26.04 36.2899 26.2 37.3599 26.52 38.4099C26.93 39.8499 27.6301 41.2399 28.6001 42.5799C29.2501 43.4699 30.0001 44.3299 30.8701 45.1499C32.2601 46.4699 33.9201 47.6999 35.8701 48.8199C38.7401 50.4699 41.96 51.7799 45.53 52.7399C48.44 53.5299 51.4899 54.0499 54.6799 54.2999C55.3999 54.3599 56.1301 54.4099 56.8601 54.4399C58.3801 54.4799 59.5401 54.1099 60.3501 53.3499C60.7901 52.9399 61.01 52.5099 61.01 52.0499Z" stroke="white" stroke-linejoin="round"/><path d="M60.8301 18.48V38.48C60.8301 38.86 60.6802 39.25 60.3802 39.65C59.0002 41.43 57.87 43.26 56.98 45.12C56.68 44.5 56.41 43.87 56.17 43.24C55.29 40.93 54.79 38.57 54.69 36.17C54.67 35.86 54.66 35.55 54.66 35.24C54.65 33.26 54.9 31.31 55.41 29.39C55.59 28.67 55.8201 27.96 56.0801 27.25C56.7101 25.56 57.5301 23.9 58.5501 22.28C59.1001 21.39 59.7102 20.52 60.3802 19.65C60.6802 19.25 60.8301 18.86 60.8301 18.48Z" stroke="white" stroke-linejoin="round"/><path d="M61.0098 52.05V52.02" stroke="white" stroke-linejoin="round"/><path d="M70.29 69.2301V69.0901" stroke="white" stroke-linejoin="round"/><path d="M92.7 35.4099V51.9399C92.53 51.9399 92.3701 51.9499 92.2101 51.9699C91.2701 52.0599 90.42 52.3199 89.68 52.7499C88.73 53.2999 88.2601 53.9499 88.2601 54.6899V64.9599C85.5601 67.6599 81.9601 69.8499 77.4701 71.5099C76.2901 71.9299 75.0601 72.0299 73.7701 71.7999C72.4801 71.5699 71.4902 71.0999 70.8102 70.3899C70.4302 69.9599 70.2501 69.5299 70.2901 69.0899V49.1999C70.2801 49.5999 70.4602 49.9999 70.8102 50.3899C71.4902 51.0999 72.4801 51.5699 73.7701 51.7999C75.0601 52.0299 76.2901 51.9299 77.4701 51.5099C78.7801 51.0199 80.02 50.4899 81.18 49.9099C83.8 48.6199 86.0302 47.0999 87.8602 45.3499C88.1302 45.1099 88.3802 44.8499 88.6302 44.5899C90.4402 42.6799 91.6501 40.6699 92.2501 38.5699C92.5501 37.5399 92.7 36.4899 92.7 35.4099Z" stroke="white" stroke-linejoin="round"/><path d="M83.02 35.2399C83.03 37.1599 82.4001 38.9899 81.1401 40.7099C80.9101 41.0199 80.6701 41.3299 80.4001 41.6299C79.1601 43.0299 77.5701 44.2599 75.6101 45.2899C74.8301 44.8599 74.0001 44.4599 73.1101 44.0999C71.9901 43.6399 71.2 43.0599 70.75 42.3399C70.54 42.0099 70.4399 41.6799 70.4399 41.3599V21.3899C70.4399 21.6999 70.54 22.0199 70.75 22.3399C71.2 23.0599 71.9901 23.6399 73.1101 24.0999C76.2101 25.3699 78.6301 26.9799 80.3801 28.9199C82.1301 30.8699 83.01 32.9799 83.02 35.2399Z" stroke="white" stroke-linejoin="round"/><path d="M70.4399 21.39V21.25" stroke="white" stroke-linejoin="round"/></svg>