<svg width="48" height="48" viewBox="0 0 120 87" xmlns="http://www.w3.org/2000/svg" stroke-width="1px"
     stroke-linecap="round" stroke-linejoin="round">
    <path d="M86.97 36.9559C85.91 36.3359 84.67 36.0359 83.24 36.0359C81.82 36.0259 80.58 36.3358 79.53 36.9358C78.48 37.5458 77.96 38.2559 77.96 39.0859C77.96 39.9059 78.4998 40.6258 79.5498 41.2358C80.6098 41.8458 81.85 42.1459 83.28 42.1459C84.7 42.1559 85.94 41.8558 86.99 41.2458C88.04 40.6358 88.5598 39.9259 88.5598 39.0959C88.5498 38.2759 88.02 37.5659 86.97 36.9559Z" class="pr-icon-iso-solid-stroke" stroke-linejoin="round"/>
    <path d="M75.0896 57.4858V77.4858L54.9497 83.7259C52.8397 84.3659 50.6596 84.5859 48.3896 84.3859C46.1296 84.1859 44.1597 83.6059 42.4797 82.6359L35.0198 78.3259C32.9698 77.1459 31.9397 75.7059 31.9297 74.0259V54.0259C31.9397 55.7059 32.9698 57.1459 35.0198 58.3259L42.4797 62.6359C44.1597 63.6059 46.1296 64.1859 48.3896 64.3859C50.6596 64.5859 52.8397 64.3659 54.9497 63.7259L75.0896 57.4858Z" class="pr-icon-iso-solid-stroke" stroke-linejoin="round"/>
    <path d="M34.9697 49.7358C32.9397 50.9158 31.9197 52.3458 31.9297 54.0258V67.9858L27.5098 65.4358V45.4358L34.9697 49.7358Z" class="pr-icon-iso-solid-stroke" stroke-linejoin="round"/>
    <path d="M27.51 45.4358V65.4358C25.48 66.6058 22.9998 67.1958 20.0898 67.1858C17.1698 67.1858 14.6899 66.5858 12.6399 65.4058L4.8999 60.9358C3.4699 60.1058 2.57998 59.0258 2.22998 57.6858C2.13998 57.3358 2.08984 56.9958 2.08984 56.6558V36.7158C2.09984 37.0358 2.14998 37.3558 2.22998 37.6858C2.57998 39.0258 3.4699 40.1058 4.8999 40.9358L11.9199 44.9958L12.6399 45.4058C14.6899 46.5858 17.1698 47.1858 20.0898 47.1858C22.9998 47.1958 25.48 46.6058 27.51 45.4358Z" class="pr-icon-iso-solid-stroke" stroke-linejoin="round"/>
    <path d="M114.78 23.0459C111.67 21.2559 108.15 20.0059 104.21 19.2959C100.27 18.5959 96.3502 18.3959 92.4502 18.7159L73.79 7.94585C68.07 4.63585 61.25 2.98587 53.31 2.96587C45.38 2.95587 38.5701 4.58583 32.8901 7.86583C30.8501 9.04583 28.8401 10.3459 26.8701 11.7759C24.8901 13.2059 22.7602 14.9159 20.4802 16.9159C18.2002 18.9159 15.6501 21.3058 12.8501 24.0658C10.0401 26.8358 6.82014 30.1658 3.19014 34.0658C2.44014 34.8758 2.08005 35.7559 2.09005 36.7159C2.10005 37.0359 2.15018 37.3558 2.23018 37.6858C2.58018 39.0258 3.47011 40.1058 4.9001 40.9358L11.9201 44.9958L12.6401 45.4059C14.6901 46.5859 17.17 47.1858 20.09 47.1858C23 47.1958 25.4802 46.6058 27.5102 45.4358L34.9702 49.7358C32.9402 50.9158 31.9201 52.3459 31.9301 54.0259C31.9401 55.7059 32.9702 57.1459 35.0202 58.3259L42.4802 62.6358C44.1602 63.6058 46.1301 64.1858 48.3901 64.3858C50.6601 64.5858 52.8402 64.3659 54.9502 63.7259L75.09 57.4858L78.1101 58.3658L85.6101 60.5658C86.2601 60.7358 86.9 60.8358 87.54 60.8758C88 60.9058 88.4601 60.9058 88.9101 60.8658C89.9901 60.7758 90.9402 60.5059 91.7402 60.0359L111.2 48.8058C112.24 48.2058 112.77 47.4958 112.77 46.6758V46.6559C112.77 45.8359 112.24 45.1158 111.18 44.5058L106.8 41.9759V39.8559L106.74 32.2059C107.67 31.8159 108.58 31.4859 109.48 31.2259C110.38 30.9559 111.29 30.6958 112.22 30.4458C112.65 30.3458 113.1 30.2059 113.56 30.0459C114.03 29.8859 114.45 29.6958 114.82 29.4858C116.35 28.6058 117.12 27.5359 117.12 26.2859V26.2659C117.12 25.0159 116.34 23.9459 114.78 23.0459ZM75.7702 29.2558C74.3402 29.2558 73.1 28.9459 72.05 28.3359L65.3701 24.4858L60.8501 21.8758C59.8001 21.2658 59.2702 20.5459 59.2602 19.7259C59.2602 18.9059 59.78 18.1859 60.83 17.5759C61.88 16.9759 63.12 16.6758 64.55 16.6758C65.98 16.6758 67.2102 16.9859 68.2702 17.5959L79.4602 24.0558C80.5202 24.6658 81.05 25.3859 81.05 26.2059C81.06 27.0259 80.5302 27.7459 79.4802 28.3459C78.5002 28.9159 77.36 29.2158 76.05 29.2458C75.96 29.2558 75.8702 29.2558 75.7702 29.2558ZM86.9902 41.2458C85.9402 41.8558 84.7002 42.1559 83.2802 42.1459C81.8502 42.1459 80.61 41.8458 79.55 41.2358C78.5 40.6258 77.9702 39.9059 77.9602 39.0859C77.9602 38.2559 78.4802 37.5458 79.5302 36.9358C80.5802 36.3358 81.8202 36.0259 83.2402 36.0359C84.6702 36.0359 85.9102 36.3359 86.9702 36.9559C88.0202 37.5659 88.55 38.2759 88.56 39.0959C88.56 39.9259 88.0402 40.6358 86.9902 41.2458Z" class="pr-icon-iso-solid-stroke" stroke-linejoin="round"/>
    <path d="M81.0496 26.2058C81.0596 27.0258 80.5297 27.7458 79.4797 28.3458C78.4997 28.9158 77.3596 29.2158 76.0496 29.2458C75.9596 29.2558 75.8698 29.2558 75.7698 29.2558C74.3398 29.2558 73.0996 28.9458 72.0496 28.3358L65.3696 24.4858L60.8496 21.8758C59.7996 21.2658 59.2698 20.5458 59.2598 19.7258C59.2598 18.9058 59.7796 18.1858 60.8296 17.5758C61.8796 16.9758 63.1196 16.6758 64.5496 16.6758C65.9796 16.6758 67.2098 16.9858 68.2698 17.5958L79.4597 24.0558C80.5197 24.6658 81.0496 25.3858 81.0496 26.2058Z" class="pr-icon-iso-solid-stroke" stroke-linejoin="round"/>
    <path d="M112.77 46.6758V66.6558C112.78 67.4858 112.25 68.1958 111.2 68.8058L91.74 80.0358C90.94 80.5058 89.9899 80.7758 88.9099 80.8658C87.8299 80.9558 86.7199 80.8658 85.6099 80.5658L75.0898 77.4858V57.4858L78.1099 58.3658L85.6099 60.5658C86.2599 60.7358 86.8998 60.8358 87.5398 60.8758C87.9998 60.9058 88.4599 60.9058 88.9099 60.8658C89.9899 60.7758 90.94 60.5058 91.74 60.0358L111.2 48.8058C112.24 48.2058 112.77 47.4958 112.77 46.6758Z" class="pr-icon-iso-solid-stroke" stroke-linejoin="round"/>
    <path d="M117.12 26.2859V46.2659C117.13 47.5259 116.36 48.5958 114.82 49.4858C114.45 49.6958 114.03 49.8859 113.56 50.0459C113.29 50.1359 113.03 50.2259 112.77 50.2959V46.6559C112.77 45.8359 112.24 45.1159 111.18 44.5059L106.8 41.9759V39.8559L106.74 32.2059C107.67 31.8159 108.58 31.4859 109.48 31.2259C110.38 30.9559 111.29 30.6959 112.22 30.4459C112.65 30.3459 113.1 30.2059 113.56 30.0459C114.03 29.8859 114.45 29.6958 114.82 29.4858C116.35 28.6058 117.12 27.5359 117.12 26.2859Z" class="pr-icon-iso-solid-stroke" stroke-linejoin="round"/>
    <path d="M2.08984 56.8958V56.6558" class="pr-icon-iso-solid-stroke" stroke-linejoin="round"/>
</svg>