<svg width="48" height="48" viewBox="0 0 118 90" xmlns="http://www.w3.org/2000/svg" stroke-width="1px"
     stroke-linecap="round" stroke-linejoin="round">
    <path d="M112.85 31.1299L65.5597 3.82987C63.6997 2.75987 61.4597 2.21987 58.8197 2.21987C56.1797 2.20987 53.9397 2.73986 52.0897 3.80986L5.09969 30.9399C3.25969 31.9999 2.33969 33.2999 2.34969 34.8199C2.34969 36.3399 3.28974 37.6399 5.14974 38.7099L15.7197 44.8099L41.9597 59.9599L50.2597 64.7599L52.4297 66.0099C54.2897 67.0899 56.5397 67.6299 59.1697 67.6299C59.3497 67.6299 59.5397 67.6299 59.7097 67.6199C62.1197 67.5599 64.1797 67.0299 65.8997 66.0399L69.3897 64.0199L74.7597 60.9299L82.2697 56.5899L102.29 45.0299L112.89 38.9099C114.73 37.8399 115.65 36.5499 115.65 35.0299C115.64 33.4999 114.7 32.2099 112.85 31.1299ZM82.3297 37.9299L81.8297 39.0999C81.5497 39.7099 80.9797 40.1999 80.1097 40.5799C79.2397 40.9499 78.2497 41.0999 77.1297 41.0299H76.8397L75.1297 40.9399L73.6697 40.8799C72.9997 41.3999 72.3297 41.8499 71.6597 42.2399C70.9897 42.6199 70.2097 43.0099 69.3097 43.3999L69.4497 44.4599L69.5697 45.3899C69.6897 46.0399 69.4097 46.6199 68.7397 47.1399C68.6697 47.1999 68.5897 47.2499 68.5097 47.2899C67.8697 47.7299 67.0797 48.0199 66.1397 48.1599L64.2897 48.4399C63.2797 48.5699 62.2797 48.5099 61.2997 48.2699C60.3197 48.0199 59.5697 47.6299 59.0597 47.0699L57.3697 45.2199C56.2997 45.1199 55.3197 44.9899 54.4197 44.8299C53.5197 44.6699 52.5897 44.4699 51.6397 44.2399L49.4797 45.0499L48.7797 45.3099C48.7797 45.3099 48.7097 45.3299 48.6797 45.3399C48.6297 45.3599 48.5897 45.3799 48.5397 45.3899C47.6597 45.6799 46.7197 45.8099 45.7097 45.7599C45.2197 45.7399 44.7497 45.6699 44.3197 45.5599C43.7997 45.4399 43.3197 45.2499 42.8897 44.9999L42.8597 44.9799L41.5397 44.2199C40.7497 43.7699 40.2997 43.2299 40.1797 42.6199C40.0697 41.9999 40.3197 41.4199 40.9297 40.8699L42.8597 39.1699C42.4597 38.6199 42.1197 38.0799 41.8397 37.5699C41.5597 37.0499 41.3297 36.4799 41.1597 35.8599L37.9497 34.8899C36.9997 34.5899 36.3197 34.1699 35.9297 33.6199C35.8397 33.4999 35.7697 33.3799 35.7197 33.2599C35.5097 32.8199 35.4897 32.3799 35.6597 31.9199L36.1597 30.7499C36.4397 30.1399 37.0097 29.6399 37.8797 29.2699C38.7497 28.8999 39.7397 28.7499 40.8697 28.8199L43.2297 28.9199L44.3197 28.9699C44.9897 28.4499 45.6597 27.9999 46.3297 27.6099C46.9997 27.2199 47.7897 26.8399 48.6797 26.4499L48.5997 25.8299L48.4197 24.4599C48.2997 23.8099 48.5797 23.2299 49.2497 22.7099C49.9197 22.1899 50.7897 21.8499 51.8497 21.6899L53.6997 21.3999C54.7097 21.2799 55.7097 21.3399 56.6897 21.5799C57.3097 21.7299 57.8397 21.9499 58.2697 22.2299C58.5197 22.3799 58.7397 22.5699 58.9297 22.7699L60.6197 24.6199C61.6897 24.7199 62.6697 24.8499 63.5697 25.0199C64.4697 25.1799 65.3997 25.3799 66.3497 25.6099L67.7397 25.0899L69.2097 24.5399C70.1597 24.1899 71.1797 24.0399 72.2797 24.0899C73.3697 24.1399 74.3097 24.3899 75.0997 24.8399L76.4497 25.6199C77.2397 26.0799 77.6897 26.6199 77.8097 27.2299C77.9197 27.8499 77.6797 28.4299 77.0597 28.9799L76.0397 29.8799L75.1297 30.6799C75.5297 31.2299 75.8697 31.7599 76.1497 32.2799C76.4397 32.7999 76.6597 33.3699 76.8397 33.9799L80.0397 34.9599C80.9997 35.2599 81.6697 35.6799 82.0697 36.2299C82.4597 36.7799 82.5497 37.3499 82.3297 37.9299Z" class="pr-icon-iso-solid-stroke" stroke-linejoin="round"/>
    <path d="M82.3298 37.9299L81.8298 39.0999C81.5498 39.7099 80.9798 40.1999 80.1098 40.5799C79.2398 40.9499 78.2498 41.0999 77.1298 41.0299H76.8398V33.9799L80.0398 34.9599C80.9998 35.2599 81.6698 35.6799 82.0698 36.2299C82.4598 36.7799 82.5498 37.3499 82.3298 37.9299Z" class="pr-icon-iso-solid-stroke" stroke-linejoin="round"/>
    <path d="M76.8399 33.9799V41.0199L75.1299 40.9399V30.6799C75.5299 31.2299 75.8699 31.7599 76.1499 32.2799C76.4399 32.7999 76.6599 33.3699 76.8399 33.9799Z" class="pr-icon-iso-solid-stroke" stroke-linejoin="round"/>
    <path d="M77.0596 28.9799L76.0396 29.8799L75.1296 30.6799V40.9399L73.6696 40.8799C72.9996 41.3999 72.3296 41.8499 71.6596 42.2399C70.9896 42.6199 70.2096 43.0099 69.3096 43.3999L69.4496 44.4599C69.3696 44.4799 69.2897 44.5099 69.2097 44.5399L68.5096 44.7999V34.9399C68.4996 33.6099 67.7796 32.4399 66.3496 31.4499V25.6099L67.7396 25.0899L69.2097 24.5399C70.1597 24.1899 71.1797 24.0399 72.2797 24.0899C73.3697 24.1399 74.3096 24.3899 75.0996 24.8399L76.4496 25.6199C77.2396 26.0799 77.6896 26.6199 77.8096 27.2299C77.9196 27.8499 77.6796 28.4299 77.0596 28.9799Z" class="pr-icon-iso-solid-stroke" stroke-linejoin="round"/>
    <path d="M48.6798 26.4499V45.3399C48.6298 45.3599 48.5898 45.3799 48.5398 45.3899C47.6598 45.6799 46.7198 45.8099 45.7098 45.7599C45.2198 45.7399 44.7498 45.6699 44.3198 45.5599V28.9699C44.9898 28.4499 45.6598 27.9999 46.3298 27.6099C46.9998 27.2199 47.7898 26.8399 48.6798 26.4499Z" class="pr-icon-iso-solid-stroke" stroke-linejoin="round"/>
    <path d="M42.8595 39.1699V44.9799L41.5395 44.2199C40.7495 43.7699 40.2995 43.2299 40.1795 42.6199C40.0695 41.9999 40.3195 41.4199 40.9295 40.8699L42.8595 39.1699Z" class="pr-icon-iso-solid-stroke" stroke-linejoin="round"/>
    <path d="M44.3195 28.9799V45.5699C43.7995 45.4499 43.3195 45.2599 42.8895 45.0099L42.8595 44.9899V39.1799C42.4595 38.6299 42.1195 38.0899 41.8395 37.5799C41.5595 37.0599 41.3295 36.4899 41.1595 35.8699L37.9495 34.8999C36.9995 34.5999 36.3195 34.1799 35.9295 33.6299C35.8395 33.5099 35.7695 33.3899 35.7195 33.2699C35.5095 32.8299 35.4895 32.3899 35.6595 31.9299L36.1595 30.7599C36.4395 30.1499 37.0095 29.6499 37.8795 29.2799C38.7495 28.9099 39.7395 28.7599 40.8695 28.8299L43.2295 28.9299L44.3195 28.9799Z" class="pr-icon-iso-solid-stroke" stroke-linejoin="round"/>
    <path d="M60.6196 24.6198V29.5198C60.0896 29.4598 59.5396 29.4298 58.9696 29.4298C56.3296 29.4298 54.0896 29.9598 52.2396 31.0198C50.3896 32.0898 49.4796 33.3798 49.4796 34.9098V45.0498L48.7797 45.3098C48.7797 45.3098 48.7096 45.3298 48.6796 45.3398V26.4498L48.5996 25.8298L48.4196 24.4598C48.2996 23.8098 48.5796 23.2298 49.2496 22.7098C49.9196 22.1898 50.7896 21.8498 51.8496 21.6898L53.6996 21.3998C54.7096 21.2798 55.7096 21.3398 56.6896 21.5798C57.3096 21.7298 57.8396 21.9498 58.2696 22.2298C58.5196 22.3798 58.7396 22.5698 58.9296 22.7698L60.6196 24.6198Z" class="pr-icon-iso-solid-stroke" stroke-linejoin="round"/>
    <path d="M68.5095 34.9399V34.9599C68.5095 36.2999 67.7895 37.4699 66.3495 38.4399C66.1595 38.5699 65.9595 38.6999 65.7495 38.8199C64.2895 39.6699 62.5795 40.1799 60.6195 40.3499C60.1095 40.3999 59.5795 40.4199 59.0295 40.4199C56.3895 40.4199 54.1395 39.8699 52.2795 38.7999C50.4295 37.7299 49.4895 36.4299 49.4795 34.9099C49.4795 33.3799 50.3895 32.0899 52.2395 31.0199C54.0895 29.9599 56.3295 29.4299 58.9695 29.4299C59.5395 29.4299 60.0895 29.4599 60.6195 29.5199C62.5595 29.6999 64.2495 30.2099 65.7095 31.0499C65.9395 31.1799 66.1495 31.3099 66.3495 31.4499C67.7795 32.4399 68.4995 33.6099 68.5095 34.9399Z" class="pr-icon-iso-solid-stroke" stroke-linejoin="round"/>
    <path d="M68.5095 34.9599V47.2899C67.8695 47.7299 67.0795 48.0199 66.1395 48.1599L64.2895 48.4398C63.2795 48.5698 62.2795 48.5099 61.2995 48.2699C60.3195 48.0199 59.5695 47.6299 59.0595 47.0699L57.3695 45.2199C56.2995 45.1199 55.3195 44.9899 54.4195 44.8299C53.5195 44.6699 52.5895 44.4699 51.6395 44.2399L49.4795 45.0499V34.9099C49.4895 36.4299 50.4295 37.7299 52.2795 38.7999C54.1395 39.8699 56.3895 40.4098 59.0295 40.4198C59.5795 40.4198 60.1095 40.3998 60.6195 40.3498C62.5795 40.1798 64.2895 39.6699 65.7495 38.8199C65.9595 38.6999 66.1595 38.5698 66.3495 38.4398C67.7895 37.4698 68.5095 36.2999 68.5095 34.9599Z" class="pr-icon-iso-solid-stroke" stroke-linejoin="round"/>
    <path d="M66.3496 25.6099V31.4499C66.1496 31.3099 65.9397 31.1799 65.7097 31.0499C64.2497 30.2099 62.5596 29.6999 60.6196 29.5199V24.6199C61.6896 24.7199 62.6696 24.8499 63.5696 25.0199C64.4696 25.1799 65.3996 25.3799 66.3496 25.6099Z" class="pr-icon-iso-solid-stroke" stroke-linejoin="round"/>
    <path d="M115.65 35.0399V55.0399C115.65 56.5599 114.73 57.8499 112.89 58.9199L65.8997 86.0499C64.0497 87.1099 61.8096 87.6499 59.1696 87.6399C56.5396 87.6399 54.2896 87.0999 52.4296 86.0199L5.14966 58.7199C3.28966 57.6499 2.34961 56.3499 2.34961 54.8299V34.8299C2.34961 36.3499 3.28966 37.6499 5.14966 38.7199L15.7196 44.8199L41.9597 59.9699L50.2596 64.7699L52.4296 66.0199C54.2896 67.0999 56.5396 67.6399 59.1696 67.6399C59.3496 67.6399 59.5397 67.6399 59.7097 67.6299C62.1197 67.5699 64.1797 67.0399 65.8997 66.0499L69.3896 64.0299L74.7596 60.9399L82.2697 56.5999L102.29 45.0399L112.89 38.9199C114.73 37.8499 115.65 36.5599 115.65 35.0399Z" class="pr-icon-iso-solid-stroke" stroke-linejoin="round"/>
</svg>