<svg width="24" height="24" viewBox="0 0 117 90" xmlns="http://www.w3.org/2000/svg" stroke-width="1px" stroke-linecap="round" stroke-linejoin="round">
    <path d="M79.3799 64.4905L79.5099 64.5105V63.7905C79.5099 64.0305 79.4699 64.2705 79.3799 64.4905Z" class="pr-icon-iso-solid-stroke" stroke-linejoin="round"/>
    <path d="M79.5101 63.7905C79.5101 64.0305 79.4701 64.2705 79.3801 64.4905C79.1601 65.0805 78.6501 65.6006 77.8501 66.0706C77.1201 66.4806 76.3001 66.7705 75.3801 66.9205C74.4601 67.0705 73.4402 67.0505 72.3202 66.8505L42.4202 61.7106L29.7201 59.5305L24.4302 58.6205C23.5102 58.4705 22.6501 58.2605 21.8601 57.9905C21.0701 57.7205 20.3502 57.4005 19.6902 57.0205C19.6402 56.9905 19.5902 56.9605 19.5402 56.9305C18.9402 56.5705 18.4201 56.1805 18.0001 55.7605C17.5401 55.3105 17.1702 54.8105 16.9102 54.2805L11.1301 43.0706L2.65015 26.6305C2.46015 26.2605 2.37012 25.9205 2.37012 25.5905C2.37012 25.3205 2.43016 25.0905 2.54016 24.8605C2.80016 24.3305 3.29013 23.8606 4.01013 23.4406C5.13013 22.8006 6.44008 22.4805 7.96008 22.4805C9.48008 22.4805 10.7902 22.8106 11.9102 23.4506C12.2402 23.6406 12.5002 23.8506 12.7002 24.0806C12.9002 24.3106 13.1002 24.5606 13.3002 24.8206L18.1101 34.1605L18.6602 35.2205L27.5502 52.4805L38.6501 54.3905L48.3501 56.0505L75.4502 60.7106C75.6502 60.7506 76.4402 61.0105 77.8202 61.5105C78.9402 62.1605 79.5101 62.9205 79.5101 63.7905Z" class="pr-icon-iso-solid-stroke" stroke-linejoin="round"/>
    <path d="M95.2504 54.7107C95.2504 55.5807 94.7004 56.3406 93.5804 56.9806C92.8604 57.4006 92.0404 57.6807 91.1204 57.8307C90.2004 57.9807 89.1804 57.9606 88.0604 57.7706L45.4603 50.4507L40.1704 49.5406C39.2404 49.3806 38.3903 49.1706 37.6003 48.9106C36.8103 48.6406 36.0804 48.3107 35.4204 47.9307C35.3704 47.9007 35.3204 47.8706 35.2704 47.8406C34.6704 47.4806 34.1604 47.0907 33.7404 46.6807C33.2804 46.2207 32.9104 45.7307 32.6404 45.1907L26.8704 33.9906L18.3904 17.5406C18.2004 17.1806 18.1104 16.8406 18.1104 16.5206C18.1104 16.2606 18.1704 16.0106 18.2804 15.7806C18.5404 15.2406 19.0304 14.7706 19.7504 14.3506C20.8604 13.7106 22.1804 13.3906 23.6904 13.3906C25.2004 13.4006 26.5204 13.7206 27.6404 14.3706C27.9704 14.5606 28.2404 14.7706 28.4404 15.0006C28.6304 15.2206 28.8304 15.4706 29.0304 15.7406L32.7604 22.9706V22.9906L33.3403 24.1006L43.2904 43.3906L91.1804 51.6206C91.3804 51.6606 92.1704 51.9307 93.5604 52.4207C94.6804 53.0707 95.2404 53.8307 95.2504 54.7107Z" class="pr-icon-iso-solid-stroke" stroke-linejoin="round"/>
    <path d="M114.6 46.3807C114.59 46.6307 114.52 46.8607 114.39 47.0807C114.1 47.5907 113.59 48.0606 112.87 48.4706C112.15 48.8906 111.35 49.1806 110.46 49.3506C109.57 49.5206 108.57 49.5107 107.45 49.3207L105.94 49.0607L55.8998 40.4507C54.9798 40.3007 54.1198 40.0907 53.3298 39.8207C52.5398 39.5507 51.8198 39.2306 51.1598 38.8506C50.4998 38.4706 49.9397 38.0506 49.4697 37.5906C49.0097 37.1306 48.6498 36.6406 48.3798 36.1106L41.4298 22.6307L33.0298 6.35063C32.8498 6.00063 32.7598 5.68065 32.7598 5.37065V5.33073C32.7698 5.08073 32.8397 4.84064 32.9697 4.61064C33.2597 4.10064 33.7697 3.63062 34.4897 3.22062C35.2097 2.80062 36.0098 2.51062 36.8998 2.34062C37.7898 2.17062 38.7898 2.18065 39.9098 2.37065L91.4597 11.2406C92.3797 11.3906 93.2398 11.6006 94.0298 11.8706C94.8198 12.1406 95.5398 12.4606 96.1998 12.8406C96.8598 13.2206 97.4198 13.6406 97.8898 14.1006C98.3498 14.5506 98.7097 15.0507 98.9797 15.5807L114.34 45.3406C114.53 45.7106 114.62 46.0607 114.6 46.3807Z" class="pr-icon-iso-solid-stroke" stroke-linejoin="round"/>
    <path d="M95.2504 54.7106V74.7106C95.2504 75.5806 94.7004 76.3405 93.5804 76.9805C92.8604 77.4005 92.0404 77.6806 91.1204 77.8306C90.2004 77.9806 89.1804 77.9605 88.0604 77.7705L79.5104 76.3005V63.7905C79.5104 62.9205 78.9404 62.1605 77.8204 61.5105C76.4404 61.0105 75.6504 60.7506 75.4504 60.7106L48.3503 56.0505L38.6504 54.3905L27.5504 52.4805L18.6604 35.2205L18.1104 34.1605V16.5205C18.1104 16.8405 18.2004 17.1805 18.3904 17.5405L26.8704 33.9905L32.6404 45.1906C32.9104 45.7306 33.2804 46.2205 33.7404 46.6805C34.1604 47.0905 34.6704 47.4805 35.2704 47.8405C35.3204 47.8705 35.3704 47.9005 35.4204 47.9305C36.0804 48.3105 36.8103 48.6405 37.6003 48.9105C38.3903 49.1705 39.2404 49.3805 40.1704 49.5405L45.4603 50.4506L88.0604 57.7705C89.1804 57.9605 90.2004 57.9806 91.1204 57.8306C92.0404 57.6806 92.8604 57.4005 93.5804 56.9805C94.7004 56.3405 95.2504 55.5806 95.2504 54.7106Z" class="pr-icon-iso-solid-stroke" stroke-linejoin="round"/>
    <path d="M18.1104 16.5206V16.3506" class="pr-icon-iso-solid-stroke" stroke-linejoin="round"/>
    <path d="M79.5101 64.5109V83.7909C79.5101 84.6609 78.9601 85.4209 77.8501 86.0709C77.1201 86.4809 76.3001 86.7709 75.3801 86.9209C74.4601 87.0709 73.4402 87.0508 72.3202 86.8508L24.4302 78.6208C23.5102 78.4708 22.6501 78.2608 21.8601 77.9908C21.0701 77.7208 20.3502 77.4009 19.6902 77.0209C19.0302 76.6409 18.4601 76.2209 18.0001 75.7609C17.5401 75.3109 17.1702 74.8109 16.9102 74.2809L2.65015 46.6309C2.46015 46.2609 2.37012 45.9208 2.37012 45.5908V25.5908C2.37012 25.9208 2.46015 26.2609 2.65015 26.6309L11.1301 43.0709L16.9102 54.2809C17.1702 54.8109 17.5401 55.3109 18.0001 55.7609C18.4201 56.1809 18.9402 56.5709 19.5402 56.9309C19.5902 56.9609 19.6402 56.9909 19.6902 57.0209C20.3502 57.4009 21.0701 57.7208 21.8601 57.9908C22.6501 58.2608 23.5102 58.4708 24.4302 58.6208L29.7201 59.5309L42.4202 61.7109L72.3202 66.8508C73.4402 67.0508 74.4601 67.0709 75.3801 66.9209C76.3001 66.7709 77.1201 66.4809 77.8501 66.0709C78.6501 65.6009 79.1601 65.0808 79.3801 64.4908L79.5101 64.5109Z" class="pr-icon-iso-solid-stroke" stroke-linejoin="round"/>
    <path d="M2.37012 45.8408V45.5908" class="pr-icon-iso-solid-stroke" stroke-linejoin="round"/>
    <path d="M114.6 46.3806V66.3506C114.59 66.6106 114.52 66.8507 114.39 67.0807C114.1 67.5907 113.59 68.0606 112.87 68.4706C112.15 68.8906 111.35 69.1806 110.46 69.3506C109.57 69.5206 108.57 69.5107 107.45 69.3207L95.2498 67.2206V54.7107C95.2398 53.8307 94.6798 53.0707 93.5598 52.4207C92.1698 51.9307 91.3798 51.6606 91.1798 51.6206L43.2898 43.3906L33.3397 24.1006L32.7698 22.9906V22.9706L32.7598 5.37061C32.7598 5.68061 32.8498 6.00059 33.0298 6.35059L41.4298 22.6306L48.3798 36.1106C48.6498 36.6406 49.0097 37.1306 49.4697 37.5906C49.9397 38.0506 50.4998 38.4706 51.1598 38.8506C51.8198 39.2306 52.5398 39.5507 53.3298 39.8207C54.1198 40.0907 54.9798 40.3007 55.8998 40.4507L105.94 49.0607L107.45 49.3207C108.57 49.5107 109.57 49.5206 110.46 49.3506C111.35 49.1806 112.15 48.8906 112.87 48.4706C113.59 48.0606 114.1 47.5907 114.39 47.0807C114.52 46.8607 114.59 46.6306 114.6 46.3806Z" class="pr-icon-iso-solid-stroke" stroke-linejoin="round"/>
</svg>