<svg width="48" height="48" viewBox="0 0 130 96" xmlns="http://www.w3.org/2000/svg" stroke-width="1px"
     stroke-linecap="round" stroke-linejoin="round">
    <path d="M80.3799 71.2101C80.3799 71.9401 79.9197 72.5701 78.9797 73.1101C78.0497 73.6501 76.9497 73.9202 75.6797 73.9202C74.4097 73.9202 73.3099 73.6401 72.3699 73.1001L23.3599 44.8102L19.8098 42.7601L2.71973 32.8901L9.30981 29.0801L19.8098 35.1401L29.9497 41.0001L78.9597 69.3002C79.8997 69.8402 80.3699 70.4801 80.3799 71.2101Z" class="pr-icon-iso-solid-stroke" stroke-linejoin="round"/>
    <path d="M125.06 35.02L71.9996 4.38C70.1696 3.33 67.9697 2.80004 65.3797 2.79004C62.7897 2.79004 60.5796 3.30999 58.7696 4.35999L22.5196 25.29C20.6996 26.34 19.7997 27.61 19.8097 29.1C19.8197 30.6 20.7297 31.87 22.5597 32.92L33.2496 39.09L58.5396 53.7L67.3697 58.8L75.6197 63.5601C77.4497 64.6201 79.6596 65.14 82.2496 65.15C84.8396 65.15 87.0397 64.63 88.8497 63.59L114.37 48.85L125.1 42.65C126.91 41.62 127.81 40.35 127.81 38.86V38.84C127.8 37.35 126.89 36.07 125.06 35.02ZM95.1795 37.76C95.1195 37.82 95.0596 37.87 94.9896 37.92C94.9896 37.92 94.9795 37.93 94.9495 37.95C94.9295 37.97 94.8997 37.99 94.8497 38.02C94.8097 38.05 94.7595 38.09 94.6995 38.13C94.6595 38.15 94.6197 38.18 94.5797 38.21C93.9197 38.59 92.4896 39.2801 90.2396 39.4301H90.1795L67.8597 38.8101L63.1695 38.6801C61.8495 38.6701 60.7497 38.42 59.8597 37.91C58.9797 37.4 58.5296 36.76 58.5296 36L58.5697 27.84C58.5597 27.14 59.0296 26.52 59.9596 25.98C60.8996 25.44 61.9695 25.17 63.1795 25.17C64.5095 25.17 65.6096 25.45 66.4896 25.99C67.3796 26.53 67.8197 27.15 67.8297 27.85L67.8597 33.29L87.4996 33.33H91.3297C92.6497 33.34 93.7695 33.6 94.6795 34.13C95.5895 34.66 96.0497 35.3001 96.0597 36.0601C96.0597 36.7001 95.7695 37.26 95.1795 37.76Z" class="pr-icon-iso-solid-stroke" stroke-linejoin="round"/>
    <path d="M96.0593 36.0601C96.0593 36.7001 95.7692 37.26 95.1792 37.76C95.1192 37.82 95.0593 37.87 94.9893 37.92C94.9893 37.92 94.9792 37.93 94.9492 37.95C94.9292 37.97 94.8994 37.99 94.8494 38.02C94.8094 38.05 94.7592 38.09 94.6992 38.13C94.6592 38.15 94.6193 38.18 94.5793 38.21C93.9193 38.59 92.4893 39.2801 90.2393 39.4301H90.1792L67.8594 38.8101V33.29L87.4993 33.33H91.3293C92.6493 33.34 93.7692 33.6 94.6792 34.13C95.5892 34.66 96.0493 35.3001 96.0593 36.0601Z" class="pr-icon-iso-solid-stroke" stroke-linejoin="round"/>
    <path d="M67.8594 33.2899V38.8099L63.1692 38.6799C61.8492 38.6699 60.7494 38.4199 59.8594 37.9099C58.9794 37.3999 58.5293 36.7599 58.5293 35.9999L58.5693 27.8398C58.5593 27.1398 59.0292 26.5199 59.9592 25.9799C60.8992 25.4399 61.9692 25.1699 63.1792 25.1699C64.5092 25.1699 65.6093 25.4499 66.4893 25.9899C67.3793 26.5299 67.8193 27.1499 67.8293 27.8499L67.8594 33.2899Z" class="pr-icon-iso-solid-stroke" stroke-linejoin="round"/>
    <path d="M127.81 38.8601V58.8401C127.82 60.3401 126.92 61.6101 125.1 62.6501L88.8496 83.5901C87.0396 84.6301 84.8395 85.1501 82.2495 85.1501C81.5995 85.1501 80.9796 85.1102 80.3796 85.0502V71.2101C80.3696 70.4801 79.8995 69.8402 78.9595 69.3002L29.9495 41.0001L19.8096 35.1401V29.1001C19.8196 30.6001 20.7296 31.8702 22.5596 32.9202L33.2495 39.0901L58.5396 53.7001L67.3696 58.8002L75.6196 63.5602C77.4496 64.6202 79.6595 65.1401 82.2495 65.1501C84.8395 65.1501 87.0396 64.6301 88.8496 63.5901L114.37 48.8501L125.1 42.6501C126.91 41.6201 127.81 40.3501 127.81 38.8601Z" class="pr-icon-iso-solid-stroke" stroke-linejoin="round"/>
    <path d="M80.3799 71.2101V91.2101C80.3799 91.9401 79.9197 92.5701 78.9797 93.1101C78.0497 93.6501 76.9497 93.9202 75.6797 93.9202C74.4097 93.9202 73.3099 93.6401 72.3699 93.1001L2.71973 52.8901V32.8901L19.8098 42.7601L23.3599 44.8102L72.3699 73.1001C73.3099 73.6401 74.4097 73.9202 75.6797 73.9202C76.9497 73.9202 78.0497 73.6501 78.9797 73.1101C79.9197 72.5701 80.3799 71.9401 80.3799 71.2101Z" class="pr-icon-iso-solid-stroke" stroke-linejoin="round"/>
</svg>