<svg width="24" height="24" viewBox="0 0 54 94" xmlns="http://www.w3.org/2000/svg" stroke-width="1px" stroke-linecap="round" stroke-linejoin="round">
    <path d="M40.0305 13.95V33.95L31.2605 39.0099L22.7905 34.1199L13.9404 29.0099L18.2605 26.52L25.7004 22.2199L40.0305 13.95Z" class="pr-icon-iso-solid-stroke" stroke-linejoin="round"/>
    <path d="M51.3304 53.45V53.47C51.3304 55.37 50.1804 56.99 47.8704 58.32L38.9705 63.46L30.5504 68.32L26.8304 70.47C25.6404 71.15 24.2304 71.5 22.6104 71.49C21.0004 71.49 19.5904 71.14 18.3904 70.45C17.1904 69.76 16.5904 68.94 16.5804 68.01C16.5804 67.08 17.1704 66.26 18.3604 65.58L22.0804 63.43L30.5006 58.57L39.4005 53.43L22.8504 43.87L14.3804 38.98L5.53058 33.87C3.20058 32.53 2.03057 30.9 2.02057 28.99C2.01057 27.08 3.16052 25.46 5.47052 24.12L18.0406 16.86L31.5604 9.05997L23.9605 9.03998C22.4205 9.03998 21.0404 8.68997 19.8404 7.99997C18.6404 7.30997 18.0406 6.51996 18.0406 5.61996C18.0306 4.72996 18.6304 3.93997 19.8204 3.24997C21.0104 2.55997 22.3805 2.21997 23.9305 2.21997L45.8804 2.25998C47.5704 2.25998 48.9804 2.58999 50.1104 3.23999C51.2304 3.88999 51.8004 4.70996 51.8104 5.67996L51.8804 18.36C51.8804 19.25 51.2904 20.04 50.0904 20.73C48.9004 21.42 47.5305 21.76 45.9805 21.76C44.4405 21.75 43.0604 21.41 41.8604 20.71C40.6604 20.02 40.0604 19.23 40.0604 18.34L40.0306 13.95L25.7005 22.22L18.2606 26.52L13.9405 29.01L22.7906 34.12L31.2606 39.01L47.8204 48.57C50.1504 49.91 51.3204 51.54 51.3304 53.45Z" class="pr-icon-iso-solid-stroke" stroke-linejoin="round"/>
    <path d="M39.4004 53.43L30.5005 58.57L22.0803 63.43L5.53052 53.87C3.20052 52.53 2.03051 50.9 2.02051 48.99V28.99C2.03051 30.9 3.20052 32.53 5.53052 33.87L14.3804 38.98L22.8503 43.87L39.4004 53.43Z" class="pr-icon-iso-solid-stroke" stroke-linejoin="round"/>
    <path d="M51.8801 18.36V38.36C51.8801 39.25 51.2901 40.0399 50.0901 40.7299C48.9001 41.4199 47.5302 41.7599 45.9802 41.7599C44.4402 41.7499 43.0601 41.41 41.8601 40.71C40.6601 40.02 40.0601 39.2299 40.0601 38.3399L40.0303 33.95V13.95L40.0601 18.3399C40.0601 19.2299 40.6601 20.02 41.8601 20.71C43.0601 21.41 44.4402 21.7499 45.9802 21.7599C47.5302 21.7599 48.9001 21.4199 50.0901 20.7299C51.2901 20.0399 51.8801 19.25 51.8801 18.36Z" class="pr-icon-iso-solid-stroke" stroke-linejoin="round"/>
    <path d="M31.5608 9.06L18.041 16.86V5.62C18.041 6.52 18.6408 7.31 19.8408 8C21.0408 8.69 22.4209 9.04001 23.9609 9.04001L31.5608 9.06Z" class="pr-icon-iso-solid-stroke" stroke-linejoin="round"/>
    <path d="M51.3301 53.47V73.45C51.3401 75.36 50.1901 76.98 47.8701 78.32L26.8301 90.47C25.6401 91.15 24.2301 91.5 22.6101 91.49C21.0001 91.49 19.5901 91.14 18.3901 90.45C17.1901 89.76 16.5901 88.94 16.5801 88.01V68.01C16.5901 68.94 17.1901 69.76 18.3901 70.45C19.5901 71.14 21.0001 71.49 22.6101 71.49C24.2301 71.5 25.6401 71.15 26.8301 70.47L30.55 68.32L38.9702 63.46L47.8701 58.32C50.1801 56.99 51.3301 55.37 51.3301 53.47Z" class="pr-icon-iso-solid-stroke" stroke-linejoin="round"/>
</svg>