<svg width="48" height="48" viewBox="0 0 95 76" fill="#229EFF" xmlns="http://www.w3.org/2000/svg" stroke-width="1px" stroke-linecap="round" stroke-linejoin="round"><path d="M65.6204 61.4199V62.37C65.5404 62.06 65.5304 61.7399 65.6204 61.4199Z" stroke="white" stroke-linejoin="round"/><path d="M92.5303 20.6099C92.5303 20.8899 92.4904 21.1698 92.4104 21.4398V21.4598C92.3004 21.8398 92.1203 22.2098 91.8503 22.5798L81.3203 36.2399L77.5503 41.1398L88.2205 47.2998L90.3503 48.5298C91.4503 49.1598 92.0005 49.9098 92.0105 50.7598C92.0105 51.6198 91.4704 52.3599 90.3704 52.9899C89.2804 53.6199 88.0005 53.9398 86.5105 53.9298C85.4105 53.9298 84.4105 53.7498 83.5205 53.3998C83.2105 53.2798 82.9204 53.1399 82.6404 52.9799L75.1804 48.6698L70.4504 45.9398L67.1304 44.0198C66.2904 43.5398 65.7904 42.9899 65.6204 42.3699C65.4604 41.7599 65.6003 41.1299 66.0503 40.4999L66.3704 40.0898L79.0005 23.7299L29.0603 36.6298L14.4304 40.4098C14.3204 40.4398 14.2103 40.4599 14.1003 40.4799C12.6603 40.7899 11.1603 40.8799 9.60034 40.7399C7.93034 40.5799 6.47049 40.1498 5.25049 39.4398C4.02049 38.7398 3.2705 37.8998 3.0105 36.9298C2.9305 36.6498 2.90039 36.3598 2.90039 36.0898C2.90039 35.4198 3.12031 34.7698 3.57031 34.1398L7.21045 29.4198L11.9004 23.3198L17.8704 15.5798L5.08032 8.18982C3.98032 7.55982 3.43041 6.81984 3.42041 5.95984C3.42041 5.09984 3.96029 4.35986 5.05029 3.72986C6.14029 3.09986 7.4304 2.78979 8.9104 2.78979C10.3904 2.78979 11.6903 3.10987 12.7803 3.73987L28.3003 12.6998C29.1403 13.1898 29.6403 13.7399 29.8003 14.3499C29.8403 14.5199 29.8704 14.6799 29.8704 14.8499C29.8704 15.0099 29.8403 15.1799 29.8003 15.3499C29.7303 15.6399 29.5904 15.9298 29.3804 16.2198L20.2405 28.0498L16.4204 32.9899L24.9705 30.7798L29.8003 29.5298L29.8704 29.5098L80.9905 16.3098C82.5405 15.9398 84.1503 15.8299 85.8203 15.9899C87.5003 16.1399 88.9504 16.5698 90.1804 17.2798C91.4104 17.9898 92.1504 18.8198 92.4204 19.7898C92.4904 20.0698 92.5303 20.3399 92.5303 20.6099Z" stroke="white" stroke-linejoin="round"/><path d="M92.0103 50.7598V70.7598C92.0103 71.6198 91.4701 72.3599 90.3701 72.9899C89.2801 73.6199 88.0003 73.9398 86.5103 73.9298C85.0303 73.9298 83.7401 73.6099 82.6401 72.9799L67.1301 64.0198C66.2901 63.5398 65.7901 62.9899 65.6201 62.3699V42.3699C65.7901 42.9899 66.2901 43.5398 67.1301 44.0198L70.4502 45.9398L75.1802 48.6698L82.6401 52.9799C82.9201 53.1399 83.2103 53.2798 83.5203 53.3998C84.4103 53.7498 85.4103 53.9298 86.5103 53.9298C88.0003 53.9398 89.2801 53.6199 90.3701 52.9899C91.4701 52.3599 92.0103 51.6198 92.0103 50.7598Z" stroke="white" stroke-linejoin="round"/><path d="M79.0005 23.73L66.3704 40.09L66.0503 40.5C65.6003 41.13 65.4604 41.76 65.6204 42.37V47.1899L65.5503 47.21L14.4304 60.4099C12.8904 60.7799 11.2803 60.89 9.60034 60.74C7.93034 60.58 6.47049 60.1499 5.25049 59.4399C4.02049 58.7399 3.2705 57.8999 3.0105 56.9299C2.9405 56.6599 2.90039 56.3999 2.90039 56.1399V36.09C2.90039 36.36 2.9305 36.6499 3.0105 36.9299C3.2705 37.8999 4.02049 38.7399 5.25049 39.4399C6.47049 40.1499 7.93034 40.58 9.60034 40.74C11.1603 40.88 12.6603 40.79 14.1003 40.48C14.2103 40.46 14.3204 40.4399 14.4304 40.4099L29.0603 36.6299L79.0005 23.73Z" stroke="white" stroke-linejoin="round"/><path d="M17.8699 15.58L11.8999 23.3199L7.20996 29.4199L5.07983 28.1899C3.97983 27.5599 3.42992 26.82 3.41992 25.96V5.95996C3.42992 6.81996 3.97983 7.55994 5.07983 8.18994L17.8699 15.58Z" stroke="white" stroke-linejoin="round"/><path d="M92.5308 20.6099V40.6298C92.5308 41.2998 92.3108 41.9498 91.8508 42.5798L88.2209 47.2998L77.5508 41.1398L81.3208 36.2399L91.8508 22.5798C92.1208 22.2098 92.3009 21.8398 92.4109 21.4598V21.4398C92.4909 21.1698 92.5308 20.8899 92.5308 20.6099Z" stroke="white" stroke-linejoin="round"/><path d="M65.54 41.9297L65.55 61.8698" stroke="white" stroke-linejoin="round"/><path d="M2.90039 36.09V35.9199" stroke="white" stroke-linejoin="round"/><path d="M29.8699 14.8499V29.5098L29.7998 29.5298L24.97 30.7798L16.4199 32.9899L20.24 28.0498L29.3799 16.2198C29.5899 15.9298 29.7298 15.6399 29.7998 15.3499C29.8398 15.1799 29.8699 15.0099 29.8699 14.8499Z" stroke="white" stroke-linejoin="round"/></svg>