<svg width="24" height="24" viewBox="0 0 105 83" xmlns="http://www.w3.org/2000/svg" stroke-width="1px" stroke-linecap="round" stroke-linejoin="round">
    <path d="M102.74 13.007V13.027C102.74 13.897 102.18 14.647 101.08 15.287C99.9602 15.927 98.6503 16.2469 97.1303 16.2469C95.6103 16.2469 94.3003 15.917 93.1703 15.267L91.1903 14.127L87.2501 16.397L91.1903 18.6769L98.0502 22.637C98.9802 23.167 99.5303 23.7869 99.6903 24.4969C99.7203 24.6369 99.7401 24.777 99.7401 24.907C99.7401 25.047 99.7203 25.177 99.6903 25.317C99.5803 25.727 99.3003 26.127 98.8703 26.517L96.9801 28.377L91.2003 34.037C91.1103 34.127 91.0203 34.207 90.9203 34.287C90.6703 34.487 90.3802 34.657 90.0402 34.787C89.7002 34.937 89.3203 35.057 88.8903 35.137C87.8703 35.347 86.8603 35.357 85.8703 35.167C85.0803 35.007 84.3102 34.977 83.5502 35.077C82.7902 35.167 82.1202 35.387 81.5302 35.727C80.8102 36.147 80.3801 36.597 80.2501 37.097C80.1201 37.587 80.1903 38.097 80.4603 38.637C80.6003 38.927 80.6703 39.2169 80.6703 39.4969C80.6703 39.7369 80.6202 39.967 80.5202 40.197C80.2902 40.717 79.8102 41.1369 79.0902 41.4869L42.0402 59.327C39.8102 60.387 37.2402 60.8769 34.3502 60.7969C31.4502 60.7169 28.9703 60.077 26.9303 58.897L14.1903 51.5469L5.7201 46.657C3.6701 45.467 2.56027 44.057 2.39027 42.397C2.21027 40.747 3.04026 39.2769 4.88026 37.9869L35.8803 16.537C36.4703 16.117 37.2002 15.837 38.0502 15.687C38.9102 15.537 39.8001 15.537 40.7201 15.687C41.5801 15.807 42.4302 15.8469 43.2902 15.8069C44.1402 15.7769 44.9002 15.567 45.5602 15.187C46.0202 14.927 46.3602 14.6269 46.6002 14.3069C46.6802 14.2169 46.7402 14.117 46.7902 14.017C47.0102 13.577 47.0302 13.1169 46.8302 12.6169C46.7102 12.4169 46.6402 12.2069 46.6002 11.9969V11.687C46.6102 11.417 46.7003 11.157 46.8703 10.877C47.2303 10.297 47.8702 9.84694 48.7902 9.54694L61.7003 5.06696C62.8203 4.64696 64.0101 4.49694 65.2601 4.61694C66.5101 4.72694 67.6002 5.05698 68.5202 5.58698L79.3202 11.827L79.5902 11.667L83.2601 9.54694L81.2802 8.40698C80.1602 7.75698 79.5902 6.99694 79.5902 6.11694C79.5902 5.23694 80.1401 4.48698 81.2601 3.84698C82.3701 3.19698 83.6903 2.87695 85.2003 2.87695C86.7203 2.88695 88.0403 3.20693 89.1603 3.85693L101.05 10.727C102.18 11.367 102.74 12.137 102.74 13.007Z" class="pr-icon-iso-solid-stroke" stroke-linejoin="round"/>
    <path d="M102.74 13.0273V33.0073C102.75 33.8873 102.19 34.6374 101.08 35.2874C100.66 35.5274 100.21 35.7273 99.7402 35.8673V24.9073C99.7402 24.7773 99.7204 24.6373 99.6904 24.4973C99.5304 23.7873 98.9803 23.1673 98.0503 22.6373L91.1904 18.6773V14.1273L93.1704 15.2673C94.3004 15.9173 95.6204 16.2473 97.1304 16.2473C98.6404 16.2473 99.9603 15.9274 101.08 15.2874C102.18 14.6474 102.74 13.8973 102.74 13.0273Z" class="pr-icon-iso-solid-stroke" stroke-linejoin="round"/>
    <path d="M99.7408 24.9072V44.9872C99.7108 45.5172 99.4209 46.0272 98.8709 46.5172L91.201 54.0372C90.681 54.5672 89.911 54.9372 88.891 55.1372C87.871 55.3472 86.8609 55.3572 85.8709 55.1672C85.0809 55.0072 84.3109 54.9772 83.5509 55.0772C82.7909 55.1672 82.1209 55.3872 81.5309 55.7272C81.1709 55.9372 80.881 56.1572 80.671 56.3772V39.4972C80.671 39.2172 80.601 38.9272 80.461 38.6372C80.191 38.0972 80.1208 37.5872 80.2508 37.0972C80.3808 36.5972 80.8109 36.1472 81.5309 35.7272C82.1209 35.3872 82.7909 35.1672 83.5509 35.0772C84.3109 34.9772 85.0809 35.0072 85.8709 35.1672C86.8609 35.3572 87.871 35.3472 88.891 35.1372C89.321 35.0572 89.7009 34.9372 90.0409 34.7872C90.3809 34.6572 90.671 34.4872 90.921 34.2872C91.021 34.2072 91.111 34.1272 91.201 34.0372L96.9808 28.3772L98.8709 26.5172C99.3009 26.1272 99.581 25.7272 99.691 25.3172C99.721 25.1772 99.7408 25.0472 99.7408 24.9072Z" class="pr-icon-iso-solid-stroke" stroke-linejoin="round"/>
    <path d="M80.6707 39.4971V59.4971C80.6707 59.7371 80.6205 59.9671 80.5205 60.1971C80.2905 60.7171 79.8106 61.1371 79.0906 61.4871L42.0405 79.3271C39.8105 80.3871 37.2406 80.8771 34.3506 80.7971C31.4506 80.7171 28.9707 80.0771 26.9307 78.8971L5.72046 66.6571C3.67046 65.4671 2.56063 64.0571 2.39062 62.3971V42.3971C2.56063 44.0571 3.67046 45.4671 5.72046 46.6571L14.1907 51.5471L26.9307 58.8971C28.9707 60.0771 31.4506 60.7171 34.3506 60.7971C37.2406 60.8771 39.8105 60.3871 42.0405 59.3271L79.0906 41.4871C79.8106 41.1371 80.2905 40.7171 80.5205 40.1971C80.6205 39.9671 80.6707 39.7371 80.6707 39.4971Z" class="pr-icon-iso-solid-stroke" stroke-linejoin="round"/>
    <path d="M46.6006 14.3071V11.9971" class="pr-icon-iso-solid-stroke" stroke-linejoin="round"/>
    <path d="M83.2598 9.54718L79.5898 11.6672V6.11719C79.5898 6.99719 80.1598 7.75723 81.2798 8.40723L83.2598 9.54718Z" class="pr-icon-iso-solid-stroke" stroke-linejoin="round"/>
    <path d="M91.1902 14.127V18.6769L87.25 16.397L91.1902 14.127Z" class="pr-icon-iso-solid-stroke" stroke-linejoin="round"/>
</svg>