<svg width="24" height="24" viewBox="0 0 119 93" xmlns="http://www.w3.org/2000/svg" stroke-width="1px" stroke-linecap="round" stroke-linejoin="round">
    <path d="M72.1201 70.4133C72.5501 70.3433 72.9701 70.2633 73.3901 70.1733C72.9101 70.1833 72.4801 70.2633 72.1201 70.4133Z" class="pr-icon-iso-solid-stroke" stroke-linejoin="round"/>
    <path d="M82.2998 46.5334C77.4198 43.7234 71.5597 42.3034 64.7097 42.2934C57.8597 42.2834 52.0097 43.6734 47.1697 46.4734C42.3197 49.2634 39.9097 52.6434 39.9397 56.6034C39.9497 58.4134 40.4598 60.0934 41.4898 61.6534C42.6498 63.4534 44.4798 65.0934 46.9898 66.5834C47.0898 66.6434 47.1798 66.6934 47.2798 66.7534C52.1498 69.5634 58.0197 70.9834 64.8697 70.9934C67.4297 70.9934 69.8497 70.8034 72.1197 70.4134C72.4797 70.2634 72.9097 70.1834 73.3897 70.1734C76.7097 69.4934 79.7097 68.3734 82.4097 66.8134C82.4697 66.7734 82.5296 66.7434 82.5896 66.7034C85.0896 65.2334 86.9296 63.6134 88.0896 61.8234C89.1296 60.2534 89.6397 58.5634 89.6397 56.7434V56.6934C89.6197 52.7334 87.1698 49.3534 82.2998 46.5334ZM75.2998 52.6034L68.2598 56.6634L67.2498 57.2534L67.2798 62.3634V63.3434C67.2898 63.7434 67.0496 64.0834 66.5896 64.3534C66.1196 64.6234 65.5296 64.7534 64.8296 64.7534C64.1296 64.7534 63.5399 64.6134 63.0699 64.3434C62.5999 64.0734 62.3697 63.7334 62.3697 63.3334V62.3534L62.3296 57.2434C62.3296 57.0234 62.3697 56.8034 62.4597 56.5934C62.5197 56.4234 62.6098 56.2634 62.7198 56.1034C62.9798 55.7534 63.3498 55.4434 63.8098 55.1734L71.7798 50.5734C72.2498 50.3034 72.8298 50.1634 73.5298 50.1734C74.2398 50.1734 74.8198 50.3034 75.2898 50.5734C75.7598 50.8534 75.9998 51.1834 75.9998 51.5934C75.9998 52.0034 75.7698 52.3334 75.2998 52.6034Z" class="pr-icon-iso-solid-stroke" stroke-linejoin="round"/>
    <path d="M76.0002 51.5934C76.0002 52.0034 75.7703 52.3334 75.3003 52.6034L68.2603 56.6634L67.2502 57.2534L67.2803 62.3634V63.3434C67.2903 63.7434 67.0501 64.0834 66.5901 64.3534C66.1201 64.6234 65.5301 64.7534 64.8301 64.7534C64.1301 64.7534 63.5403 64.6134 63.0703 64.3434C62.6003 64.0734 62.3701 63.7334 62.3701 63.3334V62.3534L62.3301 57.2434C62.3301 57.0234 62.3702 56.8034 62.4602 56.5934C62.5202 56.4234 62.6102 56.2634 62.7202 56.1034C62.9802 55.7534 63.3503 55.4434 63.8103 55.1734L71.7803 50.5734C72.2503 50.3034 72.8303 50.1634 73.5303 50.1734C74.2403 50.1734 74.8203 50.3034 75.2903 50.5734C75.7603 50.8534 76.0002 51.1834 76.0002 51.5934Z" class="pr-icon-iso-solid-stroke" stroke-linejoin="round"/>
    <path d="M113.86 36.4534L109.64 34.0134L99.7603 28.3134L106.77 24.2734C108.68 23.1634 109.64 21.8134 109.64 20.2434V20.2234C109.63 18.6334 108.66 17.2734 106.72 16.1534L92.6302 8.02338C90.6902 6.90338 88.3402 6.34338 85.5902 6.33338C82.8402 6.33338 80.5004 6.88338 78.5704 7.99338L71.5704 12.0334L57.4803 3.90338C55.5403 2.78338 53.1903 2.22338 50.4403 2.21338C47.6903 2.21338 45.3503 2.76338 43.4303 3.87338L4.91023 26.1134C2.98023 27.2234 2.02035 28.5734 2.03035 30.1634C2.04035 31.7534 3.01027 33.1034 4.95027 34.2234L15.2303 40.1534L27.5902 47.2934C28.5902 47.8734 29.8302 48.0834 31.3302 47.9334C32.8202 47.7934 33.9102 47.3434 34.6102 46.6034C35.3702 45.8234 36.2102 45.0834 37.1502 44.3734C38.0802 43.6634 39.0702 43.0134 40.1202 42.4034C46.8902 38.4934 55.0803 36.5434 64.6803 36.5634C74.2803 36.5834 82.4904 38.5534 89.3004 42.4934C91.0004 43.4734 92.5202 44.5534 93.8402 45.7234C95.1602 46.8834 96.2404 48.1134 97.0704 49.4034C97.6004 50.2434 98.5803 50.7834 100.02 51.0034C101.38 51.2134 102.56 51.0534 103.58 50.5134C103.64 50.4834 103.69 50.4534 103.75 50.4234L113.9 44.5634C115.82 43.4634 116.78 42.1134 116.78 40.5334V40.5134C116.77 38.9234 115.79 37.5734 113.86 36.4534ZM92.7103 24.2434L85.6202 20.1434L78.6202 16.1034L85.6202 12.0634L99.7203 20.2034L92.7103 24.2434Z" class="pr-icon-iso-solid-stroke" stroke-linejoin="round"/>
    <path d="M85.6201 12.0634V20.1434L78.6201 16.1034L85.6201 12.0634Z" class="pr-icon-iso-solid-stroke" stroke-linejoin="round"/>
    <path d="M99.7202 20.2034L92.7102 24.2434L85.6201 20.1434V12.0634L99.7202 20.2034Z" class="pr-icon-iso-solid-stroke" stroke-linejoin="round"/>
    <path d="M109.64 20.2434V34.0134L99.7598 28.3134L106.77 24.2734C108.68 23.1634 109.64 21.8134 109.64 20.2434Z" class="pr-icon-iso-solid-stroke" stroke-linejoin="round"/>
    <path d="M116.78 40.5333V60.5133C116.79 62.1033 115.83 63.4533 113.9 64.5633L103.75 70.4233C102.69 71.0333 101.45 71.2233 100.02 71.0033C98.5803 70.7833 97.6003 70.2433 97.0703 69.4033C96.2403 68.1133 95.1601 66.8833 93.8401 65.7233C92.6101 64.6333 91.2001 63.6233 89.6401 62.7033V56.6933C89.6201 52.7333 87.1703 49.3533 82.3003 46.5333C77.4203 43.7233 71.5602 42.3033 64.7102 42.2933C57.8602 42.2833 52.0102 43.6733 47.1702 46.4733C42.3202 49.2633 39.9102 52.6433 39.9402 56.6033V62.5133C38.9602 63.0933 38.0301 63.7033 37.1501 64.3733C36.2101 65.0833 35.3701 65.8233 34.6101 66.6033C33.9101 67.3433 32.8201 67.7933 31.3301 67.9333C29.8301 68.0833 28.5901 67.8733 27.5901 67.2933L4.9502 54.2233C3.0102 53.1033 2.04027 51.7533 2.03027 50.1633V30.1633C2.04027 31.7533 3.0102 33.1033 4.9502 34.2233L15.2302 40.1533L27.5901 47.2933C28.5901 47.8733 29.8301 48.0833 31.3301 47.9333C32.8201 47.7933 33.9101 47.3433 34.6101 46.6033C35.3701 45.8233 36.2101 45.0833 37.1501 44.3733C38.0801 43.6633 39.0701 43.0133 40.1201 42.4033C46.8901 38.4933 55.0802 36.5433 64.6802 36.5633C74.2802 36.5833 82.4903 38.5533 89.3003 42.4933C91.0003 43.4733 92.5201 44.5533 93.8401 45.7233C95.1601 46.8833 96.2403 48.1133 97.0703 49.4033C97.6003 50.2433 98.5803 50.7833 100.02 51.0033C101.38 51.2133 102.56 51.0533 103.58 50.5133C103.64 50.4833 103.69 50.4533 103.75 50.4233L113.9 44.5633C115.82 43.4633 116.78 42.1133 116.78 40.5333Z" class="pr-icon-iso-solid-stroke" stroke-linejoin="round"/>
    <path d="M89.6404 56.7434V76.6934C89.6604 80.6434 87.2504 84.0234 82.4104 86.8134C77.5604 89.6134 71.7204 91.0034 64.8704 90.9934C58.0204 90.9834 52.1505 89.5634 47.2805 86.7534C42.4005 83.9334 39.9604 80.5534 39.9404 76.6034V56.6034C39.9504 58.4134 40.4605 60.0934 41.4905 61.6534C42.6505 63.4534 44.4805 65.0934 46.9905 66.5834C47.0905 66.6434 47.1805 66.6934 47.2805 66.7534C52.1505 69.5634 58.0204 70.9834 64.8704 70.9934C67.4304 70.9934 69.8504 70.8034 72.1204 70.4134C72.5504 70.3434 72.9704 70.2634 73.3904 70.1734C76.7104 69.4934 79.7104 68.3734 82.4104 66.8134C82.4704 66.7734 82.5303 66.7434 82.5903 66.7034C85.0903 65.2334 86.9303 63.6134 88.0903 61.8234C89.1303 60.2534 89.6404 58.5634 89.6404 56.7434Z" class="pr-icon-iso-solid-stroke" stroke-linejoin="round"/>
</svg>