<svg width="24" height="24" viewBox="0 0 87 102" xmlns="http://www.w3.org/2000/svg" stroke-width="1px" stroke-linecap="round" stroke-linejoin="round">
    <path d="M72.0497 9.30014C63.9597 4.63014 54.3197 2.28014 43.1297 2.26014C31.9497 2.24014 22.3397 4.55014 14.2897 9.20014C6.23972 13.8401 2.2397 19.3901 2.2697 25.8501C2.2897 29.0601 3.29969 32.0601 5.31969 34.8301C7.34969 37.6301 10.3997 40.2001 14.4697 42.5501C14.6397 42.6501 14.8197 42.7501 14.9997 42.8401C18.1297 44.5901 21.5497 45.9801 25.2697 46.9901C26.1997 47.2501 27.1397 47.4801 28.0697 47.6901C28.2197 47.7201 28.3697 47.7501 28.5097 47.7801C31.3797 48.4101 34.2697 48.8101 37.1697 49.0001L37.1897 52.4201L37.2297 60.0001L37.3197 77.7301C37.3297 78.6701 37.9597 79.5101 39.2197 80.2401C40.4897 80.9701 41.9297 81.3301 43.5597 81.3401C45.1897 81.3401 46.6297 80.9801 47.8897 80.2501C48.8697 79.6901 49.4697 79.0501 49.6697 78.3501C49.7297 78.1701 49.7597 77.9701 49.7597 77.7801V77.7601L49.6997 67.1001L49.6697 59.9901L49.6297 52.4901L49.6097 49.0201C52.4597 48.8401 55.2797 48.4601 58.0797 47.8701C58.2297 47.8401 58.3697 47.8101 58.5097 47.7801C59.4997 47.5701 60.4897 47.3301 61.4797 47.0601C65.1197 46.0801 68.4797 44.7401 71.5297 43.0401C71.7697 42.9201 71.9997 42.7801 72.2297 42.6501C76.2097 40.3601 79.1997 37.8401 81.1997 35.1001C83.2297 32.3301 84.2497 29.3201 84.2497 26.1001V26.0001C84.2197 19.5401 80.1497 13.9801 72.0497 9.30014ZM71.5297 27.1001C71.2297 30.0401 69.6797 32.7001 66.8597 35.0501C65.8497 35.9101 64.6697 36.7201 63.3197 37.5001C61.7997 38.3801 60.1997 39.1301 58.5097 39.7601C58.4197 39.8001 58.3297 39.8401 58.2397 39.8601C53.8497 41.4801 48.8797 42.2901 43.3497 42.2801H43.2897C37.6897 42.2601 32.6597 41.4101 28.2097 39.7301C28.1597 39.7201 28.1097 39.7001 28.0697 39.6801C26.4097 39.0501 24.8297 38.3001 23.3297 37.4301C21.9297 36.6201 20.6997 35.7801 19.6497 34.8801C16.8497 32.5101 15.2997 29.8501 14.9997 26.9001C14.9597 26.5601 14.9397 26.2201 14.9397 25.8701C14.9097 21.3801 17.6697 17.5401 23.1997 14.3401C28.7397 11.1501 35.3997 9.56014 43.1697 9.57014C50.9497 9.58014 57.6197 11.2001 63.1897 14.4201C68.7697 17.6301 71.5597 21.4901 71.5897 25.9801C71.5897 26.3601 71.5697 26.7301 71.5297 27.1001Z" class="pr-icon-iso-solid-stroke" stroke-linejoin="round"/>
    <path d="M34.3798 25.91L29.9498 28.47C29.1198 28.94 28.5698 29.47 28.2898 30.06C28.1398 30.37 28.0698 30.69 28.0698 31.03V39.3C28.0298 39.16 28.0198 39.01 28.0198 38.86V20.77C28.0198 21.16 28.1198 21.54 28.3298 21.89C28.6298 22.42 29.1598 22.9 29.9198 23.33L34.3798 25.91Z" class="pr-icon-iso-solid-stroke" stroke-linejoin="round"/>
    <path d="M71.5897 25.9801C71.5897 26.3601 71.5697 26.7301 71.5297 27.1001C71.2297 30.0401 69.6797 32.7001 66.8597 35.0501C65.8097 34.1601 64.5897 33.3101 63.1897 32.5101C61.6897 31.6401 60.1097 30.8901 58.4497 30.2601V20.8201C58.4497 19.8401 57.8097 18.9801 56.5497 18.2501C55.2897 17.5201 53.7997 17.1601 52.0997 17.1501C50.3997 17.1501 48.9197 17.5101 47.6597 18.2401L43.9697 20.3601L43.2297 20.7901L42.4797 20.3601L38.7797 18.2201C37.5097 17.4901 36.0297 17.1201 34.3297 17.1201C32.6297 17.1201 31.1497 17.4801 29.8897 18.2001C28.6397 18.9301 28.0097 19.7801 28.0197 20.7701V30.1601C26.3297 30.8001 24.7197 31.5501 23.1997 32.4301C21.8497 33.2101 20.6697 34.0301 19.6497 34.8801C16.8497 32.5101 15.2997 29.8501 14.9997 26.9001C14.9597 26.5601 14.9397 26.2201 14.9397 25.8701C14.9097 21.3801 17.6697 17.5401 23.1997 14.3401C28.7397 11.1501 35.3997 9.56012 43.1697 9.57012C50.9497 9.58012 57.6197 11.2001 63.1897 14.4201C68.7697 17.6301 71.5597 21.4901 71.5897 25.9801Z" class="pr-icon-iso-solid-stroke" stroke-linejoin="round"/>
    <path d="M37.1697 49.0002V52.4202H37.1896L37.1697 49.0002Z" class="pr-icon-iso-solid-stroke" stroke-linejoin="round"/>
    <path d="M49.7596 77.7802V95.8502C49.7696 96.7902 49.1396 97.6202 47.8896 98.3402C46.6296 99.0702 45.1897 99.4302 43.5597 99.4302C41.9297 99.4202 40.4897 99.0602 39.2197 98.3302C37.9597 97.6002 37.3296 96.7602 37.3196 95.8202L37.1697 67.0902V59.9902C37.1697 59.9902 37.2097 59.9902 37.2297 59.9902L37.3196 77.7202C37.3296 78.6602 37.9597 79.5002 39.2197 80.2302C40.4897 80.9602 41.9297 81.3202 43.5597 81.3302C45.1897 81.3302 46.6296 80.9702 47.8896 80.2402C48.8696 79.6802 49.4697 79.0402 49.6697 78.3402C49.7297 78.1602 49.7596 77.9602 49.7596 77.7702V77.7802Z" class="pr-icon-iso-solid-stroke" stroke-linejoin="round"/>
    <path d="M37.1698 49.0001V67.0901C33.1698 66.8301 29.1998 66.1601 25.2698 65.0801C21.3398 64.0101 17.7398 62.5201 14.4698 60.6401C6.36979 55.9601 2.30978 50.4001 2.26978 43.9401V25.8501C2.28978 29.0601 3.29976 32.0601 5.31976 34.8301C7.34976 37.6301 10.3998 40.2001 14.4698 42.5501C14.6398 42.6501 14.8198 42.7501 14.9998 42.8401C18.1298 44.5901 21.5498 45.9801 25.2698 46.9901C26.1998 47.2501 27.1398 47.4801 28.0698 47.6901C28.2198 47.7201 28.3698 47.7501 28.5098 47.7801C31.3798 48.4101 34.2698 48.8101 37.1698 49.0001Z" class="pr-icon-iso-solid-stroke" stroke-linejoin="round"/>
    <path d="M84.2498 26.1001V44.0901C84.2898 50.5501 80.2799 56.1001 72.2299 60.7401C68.9899 62.6201 65.3999 64.0901 61.4799 65.1501C57.5899 66.2001 53.6698 66.8601 49.6998 67.1001L49.6699 59.9901L49.6298 52.4901L49.6099 49.0201C52.4599 48.8401 55.2798 48.4601 58.0798 47.8701C58.2298 47.8401 58.3698 47.8101 58.5098 47.7801C59.4998 47.5701 60.4899 47.3301 61.4799 47.0601C65.1199 46.0801 68.4798 44.7401 71.5298 43.0401C71.7698 42.9201 71.9999 42.7801 72.2299 42.6501C76.2099 40.3601 79.1998 37.8401 81.1998 35.1001C83.2298 32.3301 84.2498 29.3201 84.2498 26.1001Z" class="pr-icon-iso-solid-stroke" stroke-linejoin="round"/>
    <path d="M58.4496 20.8401V30.2601C58.4496 30.2601 58.3696 30.2201 58.3196 30.2101C58.0496 29.5801 57.4797 29.0101 56.6097 28.5101L52.1497 25.9401L56.5797 23.3801C57.2997 22.9701 57.8197 22.5001 58.1197 21.9901C58.3397 21.6301 58.4496 21.2401 58.4496 20.8401Z" class="pr-icon-iso-solid-stroke" stroke-linejoin="round"/>
    <path d="M43.2899 31.05V42.28C37.6899 42.26 32.6598 41.41 28.2098 39.73C28.1598 39.72 28.1098 39.7 28.0698 39.68V31.03C28.0798 32.01 28.7098 32.87 29.9698 33.6C31.2398 34.33 32.7199 34.69 34.4199 34.69C36.1299 34.7 37.6099 34.34 38.8599 33.61L43.2899 31.05Z" class="pr-icon-iso-solid-stroke" stroke-linejoin="round"/>
    <path d="M58.5096 31.0801C58.5096 31.2501 58.4896 31.4101 58.4496 31.5601C58.2896 32.3501 57.6796 33.0401 56.6296 33.6401C55.3796 34.3701 53.8996 34.7301 52.1996 34.7301C50.4896 34.7201 49.0096 34.3601 47.7496 33.6301L43.2897 31.0501L38.8597 33.6101C37.6097 34.3401 36.1297 34.7001 34.4197 34.6901C32.7197 34.6901 31.2397 34.3301 29.9697 33.6001C28.7097 32.8701 28.0796 32.0101 28.0696 31.0301C28.0696 30.6901 28.1397 30.3701 28.2897 30.0601C28.5697 29.4701 29.1196 28.9401 29.9496 28.4701L34.3796 25.9101L29.9197 23.3301C29.1597 22.9001 28.6296 22.4201 28.3296 21.8901C28.1196 21.5401 28.0196 21.1601 28.0196 20.7701C28.0096 19.7801 28.6396 18.9301 29.8896 18.2001C31.1496 17.4801 32.6196 17.1201 34.3296 17.1201C36.0396 17.1201 37.5097 17.4901 38.7797 18.2201L42.4797 20.3601L43.2297 20.7901L43.9697 20.3601L47.6597 18.2401C48.9197 17.5101 50.3997 17.1501 52.0997 17.1501C53.7997 17.1601 55.2897 17.5201 56.5497 18.2501C57.8097 18.9801 58.4496 19.8401 58.4496 20.8201V20.8401C58.4496 21.2401 58.3397 21.6301 58.1197 21.9901C57.8197 22.5001 57.2996 22.9701 56.5796 23.3801L52.1497 25.9401L56.6097 28.5101C57.4797 29.0101 58.0496 29.5801 58.3196 30.2101C58.3796 30.3301 58.4196 30.4601 58.4496 30.6001C58.4896 30.7501 58.5096 30.9201 58.5096 31.0801Z" class="pr-icon-iso-solid-stroke" stroke-linejoin="round"/>
    <path d="M58.5098 31.08V39.76C58.4198 39.8 58.3298 39.84 58.2398 39.86C53.8498 41.48 48.8798 42.29 43.3498 42.28H43.2898V31.05L47.7498 33.63C49.0098 34.36 50.4898 34.72 52.1998 34.73C53.8998 34.73 55.3798 34.37 56.6298 33.64C57.6798 33.04 58.2898 32.35 58.4498 31.56C58.4898 31.41 58.5098 31.25 58.5098 31.08Z" class="pr-icon-iso-solid-stroke" stroke-linejoin="round"/>
</svg>