<svg xmlns="http://www.w3.org/2000/svg" viewBox="0 0 640 512"><!--! Font Awesome Pro 6.7.2 by @fontawesome - https://fontawesome.com License - https://fontawesome.com/license (Commercial License) Copyright 2024 Fonticons, Inc. --><defs><style>.fa-secondary{opacity:.4}</style></defs><path class="fa-secondary" d="M80 80l48 0 0 48-48 0 0-48zm0 96l152 0 0 56L80 232l0-56zm0 104l48 0 0 56-48 0 0-56zm0 104l48 0 48 0 56 0 0 48L80 432l0-48zM176 80l160 0 0 48-56 0-48 0-56 0 0-48zm0 200l126.6 0c-7.1 17.5-12.1 36.3-13.9 56L176 336l0-56zM280 176l96.3 0c-11.3 10.8-22.7 23-33.3 36.3c-5 6.2-9.8 12.8-14.5 19.7L280 232l0-56zm0 208l10.7 0c2.8 16.8 7.9 32.9 14.8 48L280 432l0-48zM384 80l48 0 0 48-48 0 0-48z"/><path class="fa-primary" d="M176 80l0 48 56 0 48 0 56 0 0-48L176 80zm-48 48l0-48L80 80l0 48 48 0zM80 176l0 56 152 0 0-56L80 176zm0 160l48 0 0-56-48 0 0 56zm0 48l0 48 152 0 0-48-56 0-48 0-48 0zm96-48l112.7 0c-.5 5.2-.7 10.5-.7 15.8c0 11 .9 21.7 2.7 32.2L280 384l0 48 25.5 0c8.1 17.6 18.8 33.8 31.5 48L80 480l-48 0 0-48L32 80l0-48 48 0 352 0 48 0 0 48 0 66.6-27.4-27.4L431 132.7c-15.3 9.6-35 24.4-54.8 43.3L280 176l0 56 48.5 0c-9.9 14.6-18.9 30.7-25.9 48L176 280l0 56zM432 128l0-48-48 0 0 48 48 0zm16 32l64 64 32-32c76.8 64 96 133.3 96 160c0 88.4-71.6 160-160 160s-160-71.6-160-160c0-89.6 85.3-165.3 128-192zm96 240.2c0-48-64-96-64-96s-64 48-64 96c0 35.3 28.7 64 64 64s64-28.7 64-64z"/></svg>