<svg xmlns="http://www.w3.org/2000/svg" viewBox="0 0 448 512"><!--! Font Awesome Pro 6.7.2 by @fontawesome - https://fontawesome.com License - https://fontawesome.com/license (Commercial License) Copyright 2024 Fonticons, Inc. --><defs><style>.fa-secondary{opacity:.4}</style></defs><path class="fa-secondary" d="M48 80l0 368 48 0 0-32 64 0 0 32 32 0 0-32 64 0 0 32 32 0 0-32 64 0 0 32 32 0 0-32 32 0 0-32-32 0 0-64 32 0 0-32-32 0 0-64 32 0 0-32-32 0 0-64 32 0 0-48L48 80z"/><path class="fa-primary" d="M0 456l0 24 48 0 0-24L48 80l376 0 24 0 0-48-24 0L24 32 0 32 0 56 0 456zm96-40l0 64 64 0 0-64-64 0zm192 0l0 64 64 0 0-64-64 0zm-96 64l64 0 0-64-64 0 0 64zm192-64l0 64 64 0 0-64-64 0zm0-128l64 0 0-64-64 0 0 64zm0 32l0 64 64 0 0-64-64 0zm0-128l64 0 0-64-64 0 0 64z"/></svg>