<svg xmlns="http://www.w3.org/2000/svg" viewBox="0 0 448 512"><!--! Font Awesome Pro 6.7.2 by @fontawesome - https://fontawesome.com License - https://fontawesome.com/license (Commercial License) Copyright 2024 Fonticons, Inc. --><defs><style>.fa-secondary{opacity:.4}</style></defs><path class="fa-secondary" d="M32 96l32 0 0-32 32 0 0 32 64 0 0-32 40 0 0 168L32 232l0-40 32 0 0-64-32 0 0-32zm0 184l168 0 0 168-40 0 0-32-64 0 0 32-32 0 0-32-32 0 0-32 32 0 0-64-32 0 0-40zM248 64l40 0 0 32 64 0 0-32 32 0 0 32 32 0 0 32-32 0 0 64 32 0 0 40-168 0 0-168zm0 216l168 0 0 40-32 0 0 64 32 0 0 32-32 0 0 32-32 0 0-32-64 0 0 32-40 0 0-168z"/><path class="fa-primary" d="M384 480l0-64 64 0 0 64-64 0zm0-96l0-64 64 0 0 64-64 0zM0 384l0-64 64 0 0 64L0 384zM448 192l-64 0 0-64 64 0 0 64zM0 192l0-64 64 0 0 64L0 192zM448 96l-64 0 0-64 64 0 0 64zM64 96L0 96 0 32l64 0 0 64zM0 480l0-64 64 0 0 64L0 480zM352 96l-64 0 0-64 64 0 0 64zM288 480l0-64 64 0 0 64-64 0zM160 96L96 96l0-64 64 0 0 64zM96 480l0-64 64 0 0 64-64 0zm104 0l0-24 0-176L24 280 0 280l0-48 24 0 176 0 0-176 0-24 48 0 0 24 0 176 176 0 24 0 0 48-24 0-176 0 0 176 0 24-48 0z"/></svg>