<svg xmlns="http://www.w3.org/2000/svg" viewBox="0 0 448 512"><!--! Font Awesome Pro 6.7.2 by @fontawesome - https://fontawesome.com License - https://fontawesome.com/license (Commercial License) Copyright 2024 Fonticons, Inc. --><defs><style>.fa-secondary{opacity:.4}</style></defs><path class="fa-secondary" d="M48 208l0 224 352 0 0-224L48 208zm11.6-48L200 160l0-80L95.2 80 59.6 160zM248 80l0 80 140.4 0L352.8 80 248 80z"/><path class="fa-primary" d="M59.6 160L95.2 80 200 80l0 80L59.6 160zM248 160l0-80 104.8 0 35.6 80L248 160zm152 48l0 224L48 432l0-224 352 0zM384 32L64 32 0 176 0 432l0 48 48 0 352 0 48 0 0-48 0-256L384 32z"/></svg>