<svg xmlns="http://www.w3.org/2000/svg" viewBox="0 0 640 512"><!--! Font Awesome Pro 6.7.2 by @fontawesome - https://fontawesome.com License - https://fontawesome.com/license (Commercial License) Copyright 2024 Fonticons, Inc. --><defs><style>.fa-secondary{opacity:.4}</style></defs><path class="fa-secondary" d="M112 192l32 0 16 0 320 0 16 0 32 0c-61.9 0-112 50.1-112 112c0 31.3 12.9 59.7 33.6 80L424 384c-9.3 26.7-18.7 53.3-28 80l-152 0-28-80-25.6 0c20.7-20.3 33.6-48.7 33.6-80c0-61.9-50.1-112-112-112z"/><path class="fa-primary" d="M248 0l0 24 0 40 144 0 0-40 0-24 48 0 0 24 0 40 104 0 0 80 0 48-16 0-32 0-16 0-320 0-16 0-32 0-16 0 0-48 0-80 104 0 0-40 0-24 48 0zm12.8 512L244 464l152 0-16.8 48-118.4 0zM112 224a80 80 0 1 1 0 160 80 80 0 1 1 0-160zM224 512L0 512l32-96 160 0 32 96zM448 304a80 80 0 1 1 160 0 80 80 0 1 1 -160 0zM608 416l32 96-224 0 32-96 160 0z"/></svg>