<svg xmlns="http://www.w3.org/2000/svg" viewBox="0 0 512 512"><!--! Font Awesome Pro 6.7.2 by @fontawesome - https://fontawesome.com License - https://fontawesome.com/license (Commercial License) Copyright 2024 Fonticons, Inc. --><defs><style>.fa-secondary{opacity:.4}</style></defs><path class="fa-secondary" d="M48 256a208 208 0 1 0 416 0A208 208 0 1 0 48 256zm128-91.5L236.3 131l5.4-3 6.2 0 8 0 24 0 0 24 0 184 56 0 0 48-80 0-80 0 0-48 56 0 0-147.7L187.7 213 176 219.5l0-54.9z"/><path class="fa-primary" d="M256 48a208 208 0 1 1 0 416 208 208 0 1 1 0-416zm0 464A256 256 0 1 0 256 0a256 256 0 1 0 0 512zM241.8 128l-5.4 3L176 164.5l0 54.9 11.7-6.5L232 188.3 232 336l-56 0 0 48 80 0 80 0 0-48-56 0 0-184 0-24-24 0-8 0-6.2 0z"/></svg>