<svg xmlns="http://www.w3.org/2000/svg" viewBox="0 0 512 512"><!--! Font Awesome Pro 6.7.2 by @fontawesome - https://fontawesome.com License - https://fontawesome.com/license (Commercial License) Copyright 2024 Fonticons, Inc. --><defs><style>.fa-secondary{opacity:.4}</style></defs><path class="fa-secondary" d="M48 256a208 208 0 1 0 416 0A208 208 0 1 0 48 256zm80.1-128l52.4 0L256 300.2 331.5 128l52.4 0L278 369.6 271.7 384l-31.4 0L234 369.6 128.1 128z"/><path class="fa-primary" d="M256 48a208 208 0 1 1 0 416 208 208 0 1 1 0-416zm0 464A256 256 0 1 0 256 0a256 256 0 1 0 0 512zM383.9 128l-52.4 0L256 300.2 180.5 128l-52.4 0L234 369.6l6.3 14.4 31.4 0 6.3-14.4L383.9 128z"/></svg>