<svg xmlns="http://www.w3.org/2000/svg" viewBox="0 0 512 512"><!--! Font Awesome Pro 6.7.2 by @fontawesome - https://fontawesome.com License - https://fontawesome.com/license (Commercial License) Copyright 2024 Fonticons, Inc. --><defs><style>.fa-secondary{opacity:.4}</style></defs><path class="fa-secondary" d="M48 256a208 208 0 1 0 416 0A208 208 0 1 0 48 256zM160 128l24 0 92 0c50.8 0 92 41.2 92 92l0 24-3.2 0c-10.6 39.2-46.3 68-88.8 68l-68 0 0 48 0 24-48 0 0-24 0-72 0-136 0-24zm48 48l0 88 68 0c24.3 0 44-19.7 44-44s-19.7-44-44-44l-68 0z"/><path class="fa-primary" d="M256 48a208 208 0 1 1 0 416 208 208 0 1 1 0-416zm0 464A256 256 0 1 0 256 0a256 256 0 1 0 0 512zM184 128l-24 0 0 24 0 136 0 72 0 24 48 0 0-24 0-48 68 0c42.5 0 78.3-28.8 88.8-68l3.2 0 0-24c0-50.8-41.2-92-92-92l-92 0zm92 136l-68 0 0-88 68 0c24.3 0 44 19.7 44 44s-19.7 44-44 44z"/></svg>