<svg xmlns="http://www.w3.org/2000/svg" viewBox="0 0 512 512"><!--! Font Awesome Pro 6.7.2 by @fontawesome - https://fontawesome.com License - https://fontawesome.com/license (Commercial License) Copyright 2024 Fonticons, Inc. --><defs><style>.fa-secondary{opacity:.4}</style></defs><path class="fa-secondary" d="M48 256a208 208 0 1 0 416 0A208 208 0 1 0 48 256zm48 0c0-59.2 32.2-110.9 80-138.6l52 90.1c-16.7 9.7-28 27.8-28 48.5L96 256zm80 138.6l52-90.1c8.2 4.8 17.8 7.5 28 7.5s19.8-2.7 28-7.5l52 90.1c-23.5 13.6-50.9 21.4-80 21.4s-56.5-7.8-80-21.4zM288 256a32 32 0 1 1 -64 0 32 32 0 1 1 64 0zm-4-48.5l52-90.1c47.8 27.7 80 79.4 80 138.6l-104 0c0-20.7-11.3-38.8-28-48.5z"/><path class="fa-primary" d="M256 48a208 208 0 1 1 0 416 208 208 0 1 1 0-416zm0 464A256 256 0 1 0 256 0a256 256 0 1 0 0 512zM200 256c0-20.7 11.3-38.8 28-48.5l-52-90.1C128.2 145.1 96 196.8 96 256l104 0zm28 48.5l-52 90.1c23.5 13.6 50.9 21.4 80 21.4s56.5-7.8 80-21.4l-52-90.1c-8.2 4.8-17.8 7.5-28 7.5s-19.8-2.7-28-7.5zM312 256l104 0c0-59.2-32.2-110.9-80-138.6l-52 90.1c16.7 9.7 28 27.8 28 48.5zm-56 32a32 32 0 1 0 0-64 32 32 0 1 0 0 64z"/></svg>