<svg xmlns="http://www.w3.org/2000/svg" viewBox="0 0 512 512"><!--! Font Awesome Pro 6.7.2 by @fontawesome - https://fontawesome.com License - https://fontawesome.com/license (Commercial License) Copyright 2024 Fonticons, Inc. --><defs><style>.fa-secondary{opacity:.4}</style></defs><path class="fa-secondary" d="M48 256a208 208 0 1 0 416 0A208 208 0 1 0 48 256zm80 0c0-70.7 57.3-128 128-128c45.9 0 86.2 24.2 108.7 60.5L324 213.8c-14.2-22.8-39.3-37.8-68-37.8c-44.2 0-80 35.8-80 80s35.8 80 80 80c28.7 0 53.8-15.1 68-37.8l40.8 25.4C342.2 359.8 301.9 384 256 384c-70.7 0-128-57.3-128-128z"/><path class="fa-primary" d="M256 48a208 208 0 1 1 0 416 208 208 0 1 1 0-416zm0 464A256 256 0 1 0 256 0a256 256 0 1 0 0 512zM176 256c0-44.2 35.8-80 80-80c28.7 0 53.8 15.1 68 37.8l40.8-25.4C342.2 152.2 301.9 128 256 128c-70.7 0-128 57.3-128 128s57.3 128 128 128c45.9 0 86.2-24.2 108.7-60.5L324 298.2c-14.2 22.8-39.3 37.8-68 37.8c-44.2 0-80-35.8-80-80z"/></svg>