<svg xmlns="http://www.w3.org/2000/svg" viewBox="0 0 512 512"><!--! Font Awesome Pro 6.7.2 by @fontawesome - https://fontawesome.com License - https://fontawesome.com/license (Commercial License) Copyright 2024 Fonticons, Inc. --><defs><style>.fa-secondary{opacity:.4}</style></defs><path class="fa-secondary" d="M48 256c0 59 24.6 112.2 64 150.1l0-71.7 0-32 32 0 16 0c.9-52.3 43.5-94.4 96-94.4c34.8 0 65.3 18.5 82.1 46.2c4.2 4.2 8.4 8.4 12.5 12.5l22.6 22.6L395.9 312l-16 16 9.4 9.4L411.9 360l-22.6 22.6-9.4 9.4 9.4 9.4c2.5 2.5 5.1 5.1 7.6 7.6c41.3-38 67.1-92.5 67.1-153c0-114.9-93.1-208-208-208S48 141.1 48 256zm46.3-75.7l18.7-15 80-64 18.7-15 30 37.5-18.7 15-80 64-18.7 15-30-37.5zm176-56.5l30-37.5 18.7 15 80 64 18.7 15-30 37.5-18.7-15-80-64-18.7-15z"/><path class="fa-primary" d="M48 256C48 141.1 141.1 48 256 48s208 93.1 208 208c0 60.5-25.8 115-67.1 153l15 15-22.6 22.6-52.3 52.3C438.7 465.1 512 369.1 512 256C512 114.6 397.4 0 256 0S0 114.6 0 256c0 94.5 51.2 177 127.3 221.4c-9.8-18-15.3-38.6-15.3-60.5l0-10.7C72.6 368.2 48 315 48 256zm208-48c-52.5 0-95.1 42.1-96 94.4l24 0 21.7 0 51.7-51.7L280 228.1l22.6 22.6 9.4 9.4 16-16 10.1 10.1C321.3 226.5 290.8 208 256 208zm-14.3-84.3l-30-37.5-18.7 15-80 64-18.7 15 30 37.5 18.7-15 80-64 18.7-15zm47.3 15l80 64 18.7 15 30-37.5-18.7-15-80-64-18.7-15-30 37.5 18.7 15zM302.6 296L280 273.4l-11.3 11.3L184 369.4l0-15 0-20-40 0 0 20 0 29.6 0 20 0 12.8c0 52.6 42.6 95.2 95.2 95.2c25.2 0 49.5-10 67.3-27.9l48.8-48.8L366.6 424 344 401.4l-11.3 11.3-24 24-9.4-9.4 56-56L366.6 360 344 337.4l-11.3 11.3-56 56-9.4-9.4 72-72L350.6 312 328 289.4l-11.3 11.3-72 72-9.4-9.4 56-56L302.6 296z"/></svg>