<svg xmlns="http://www.w3.org/2000/svg" viewBox="0 0 512 512"><!--! Font Awesome Pro 6.7.2 by @fontawesome - https://fontawesome.com License - https://fontawesome.com/license (Commercial License) Copyright 2024 Fonticons, Inc. --><defs><style>.fa-secondary{opacity:.4}</style></defs><path class="fa-secondary" d="M48 256c0 81.7 47.1 152.4 115.7 186.4c-2.4-8.4-3.7-17.3-3.7-26.4c-34.9-26.2-58.7-66.3-63.2-112l63.2 0 32 0 128 0 32 0 63.2 0c-4.5 45.8-28.4 85.8-63.2 112c0 9.2-1.3 18-3.7 26.4C416.9 408.4 464 337.7 464 256c0-114.9-93.1-208-208-208S48 141.1 48 256zm75.8-13.9l10.1-30.4 15.2 5.1c1.7 .6 3.2 1.1 4.7 1.6c9.2 3.1 15.8 5.3 22.7 5.6c4.9 .2 9.8-.9 12.7-2.6c1.3-.8 1.9-1.5 2.2-1.9c.2-.3 .6-1.2 .6-3.2c0-.6 0-1.3-2.6-3c-3.7-2.4-9.3-4.2-17.6-6.7l-1.5-.4c-7-2.1-16.2-4.9-23.6-9.1c-8.7-5-17.7-13.7-18.6-28c-1-16.7 8.3-27.8 18.7-33.8c4.3-2.5 9-4.2 13.6-5.3l0-17.8 32 0 0 17.7c4.1 .8 8.1 1.7 11.7 2.7l15.5 4.1-8.2 30.9-15.5-4.1c-7.3-1.9-14.1-3.3-20.1-3.4c-4.4-.1-9.6 1-13 2.9c-1.5 .9-2.1 1.6-2.4 2c-.1 .2-.4 .7-.3 2.4c.1 .2 .8 .9 2.6 1.9c4.1 2.3 9.8 4.1 18.6 6.8c7.3 2.2 17.2 5.2 25.1 10.2c8.9 5.6 17.2 15 17.6 29.4c.4 16.1-8 27.3-18.6 33.5c-4.1 2.4-8.5 4.1-12.9 5.2l0 17.8-32 0 0-18.2c-6.5-1.5-12.5-3.6-17.6-5.3c-1.4-.5-2.7-.9-3.9-1.3l-15.2-5.1zm160 0l10.1-30.4 15.2 5.1c1.7 .6 3.2 1.1 4.7 1.6c9.2 3.1 15.8 5.3 22.7 5.6c4.9 .2 9.8-.9 12.7-2.6c1.3-.8 1.9-1.5 2.2-1.9c.2-.3 .6-1.2 .6-3.2c0-.6 0-1.3-2.6-3c-3.7-2.4-9.3-4.2-17.6-6.7l-1.5-.4c-7-2.1-16.2-4.9-23.6-9.1c-8.7-5-17.7-13.7-18.6-28c-1-16.7 8.3-27.8 18.7-33.8c4.2-2.4 8.7-4.1 13.1-5.2l0-17.9 32 0 0 17.7c4.3 .8 8.3 1.8 12.1 2.8l15.5 4.1-8.2 30.9-15.5-4.1c-7.3-1.9-14.1-3.3-20.1-3.4c-4.4-.1-9.6 1-13 2.9c-1.5 .9-2.1 1.6-2.4 2c-.1 .2-.4 .7-.3 2.4c.1 .2 .8 .9 2.6 1.9c4 2.3 9.8 4.1 18.6 6.8c7.3 2.2 17.2 5.2 25.1 10.2c8.9 5.6 17.2 15 17.5 29.4c.4 16.1-8 27.3-18.6 33.5c-4.3 2.5-8.8 4.2-13.3 5.3l0 17.7-32 0 0-18.2c-6.3-1.5-12.2-3.5-17.1-5.2c-1.4-.5-2.7-.9-3.9-1.3l-15.2-5.1z"/><path class="fa-primary" d="M348.3 442.4c2.4-8.4 3.7-17.3 3.7-26.4c34.9-26.2 58.7-66.3 63.2-112L352 304l-32 0-128 0-32 0-63.2 0c4.5 45.8 28.4 85.8 63.2 112c0 9.2 1.3 18 3.7 26.4C95.1 408.4 48 337.7 48 256C48 141.1 141.1 48 256 48s208 93.1 208 208c0 81.7-47.1 152.4-115.7 186.4zm-44.4 16C292.2 471.7 275.1 480 256 480s-36.2-8.3-47.9-21.5c-5.7-6.4-10.2-14-12.9-22.4c-2.1-6.3-3.2-13-3.2-20l0-80 128 0 0 80c0 7-1.1 13.7-3.2 20c-2.8 8.4-7.2 16-12.9 22.4zM256 512A256 256 0 1 0 256 0a256 256 0 1 0 0 512zM146.9 135.2c-10.4 6-19.7 17.1-18.7 33.8c.9 14.3 9.9 23 18.6 28c7.4 4.3 16.6 7 23.6 9.1l1.5 .4c8.3 2.5 13.9 4.4 17.6 6.7c2.6 1.7 2.6 2.4 2.6 3l0 .1c.1 1.9-.4 2.7-.6 3c-.3 .4-.8 1.1-2.2 1.9c-3 1.7-7.9 2.8-12.7 2.6c-7-.2-13.5-2.4-22.7-5.6c-1.5-.5-3.1-1-4.7-1.6l-15.2-5.1-10.1 30.4 15.2 5.1c1.2 .4 2.5 .9 3.9 1.3c5.1 1.8 11.1 3.8 17.6 5.3l0 18.2 32 0 0-17.8c4.4-1.1 8.8-2.8 12.9-5.2c10.7-6.2 19.1-17.4 18.6-33.5c-.4-14.4-8.6-23.7-17.6-29.4c-8-5-17.8-8-25.1-10.2l-.3-.1c-8.5-2.6-14.3-4.4-18.3-6.7c-1.8-1-2.4-1.7-2.6-1.9c0 0 0 0 0 0c0 0 0-.1 0-.2c-.1-1.4 .2-1.9 .3-2.1c.2-.4 .8-1.1 2.4-2c3.4-1.9 8.6-3 13-2.9c6.1 .1 12.8 1.4 20.1 3.4l15.5 4.1 8.2-30.9-15.5-4.1c-3.6-1-7.6-1.9-11.7-2.7l0-17.7-32 0 0 17.8c-4.6 1.1-9.2 2.8-13.6 5.3zM320 129.9c-4.4 1.1-9 2.8-13.1 5.2c-10.4 6-19.7 17.1-18.7 33.8c.9 14.3 9.9 23 18.6 28c7.4 4.3 16.6 7 23.6 9.1l1.5 .4c8.3 2.5 13.9 4.4 17.6 6.7c2.6 1.7 2.6 2.4 2.6 3l0 .1c.1 1.9-.4 2.7-.6 3c-.3 .4-.8 1.1-2.2 1.9c-3 1.7-7.9 2.8-12.7 2.6c-7-.2-13.5-2.4-22.7-5.6c-1.5-.5-3.1-1-4.7-1.6l-15.2-5.1-10.1 30.4 15.2 5.1c1.2 .4 2.5 .9 3.9 1.3c5 1.7 10.8 3.7 17.1 5.2l0 18.2 32 0 0-17.7c4.5-1.1 9.1-2.8 13.3-5.3c10.6-6.2 19.1-17.4 18.6-33.5c-.4-14.4-8.6-23.7-17.5-29.4c-8-5-17.8-8-25.1-10.2l-.3-.1c-8.5-2.6-14.3-4.4-18.3-6.7c-1.8-1-2.4-1.7-2.6-1.9c0 0 0 0 0 0c0 0 0-.1 0-.2c-.1-1.4 .2-1.9 .3-2.1c.2-.4 .8-1.1 2.4-2c3.4-1.9 8.6-3 13-2.9c6.1 .1 12.8 1.4 20.1 3.4l15.5 4.1 8.2-30.9-15.5-4.1c-3.8-1-7.8-2-12.1-2.8l0-17.7-32 0 0 17.9zM268.7 359.6l0-15.6-24 0 0 15.8c-3.2 .8-6.5 1.9-9.6 3.6c-7.7 4.1-15.2 12.1-14.4 24.7c.7 10.8 7.9 17 14.2 20.4c5.5 3 12.4 4.9 17.7 6.4l1.1 .3c6.2 1.8 10.5 3.1 13.4 4.8c1.1 .7 1.6 1.1 1.7 1.3l0 .1c0 1-.2 1.3-.2 1.4c-.1 .2-.5 .6-1.5 1.2c-2.3 1.3-6.1 2-9.9 1.9c-5.4-.2-10.4-1.8-17.3-3.9c0 0 0 0 0 0c-1.1-.4-2.3-.7-3.5-1.1l-11.5-3.6-7.1 22.9 11.5 3.6c.9 .3 1.9 .6 3 .9c0 0 0 0 0 0c3.7 1.2 8 2.6 12.7 3.6l0 17 24 0 0-16.6c3.3-.8 6.6-1.9 9.7-3.6c7.9-4.3 14.7-12.3 14.3-24.4c-.3-10.8-6.9-17.5-13.5-21.4c-5.9-3.5-13.3-5.6-18.8-7.1c0 0 0 0 0 0l-.2-.1c-6.4-1.8-10.8-3.1-13.9-4.7c-.9-.5-1.4-.9-1.7-1.1c0-.2 0-.3 0-.3l0-.1c.1-.1 .5-.6 1.7-1.3c2.6-1.4 6.7-2.2 10.1-2.1c4.7 .1 9.8 1 15.3 2.4l11.6 2.9 5.8-23.3-11.6-2.9c-2.8-.7-5.8-1.4-8.9-1.9z"/></svg>