<svg xmlns="http://www.w3.org/2000/svg" viewBox="0 0 512 512"><!--! Font Awesome Pro 6.7.2 by @fontawesome - https://fontawesome.com License - https://fontawesome.com/license (Commercial License) Copyright 2024 Fonticons, Inc. --><defs><style>.fa-secondary{opacity:.4}</style></defs><path class="fa-secondary" d="M128 256l0 32 174.1 0-39-39-17-17L280 198.1l17 17 80 80 17 17-17 17-80 80-17 17L246.1 392l17-17 39-39L128 336l0 32 48 0 0 96 288 0 0-304-112 0 0-112L176 48l0 208-48 0z"/><path class="fa-primary" d="M464 464l-288 0 0-96-48 0 0 96 0 48 48 0 288 0 48 0 0-48 0-336L384 0 176 0 128 0l0 48 0 208 48 0 0-208 176 0 0 112 112 0 0 304zM297 215l-17-17L246.1 232l17 17 39 39L24 288 0 288l0 48 24 0 278.1 0-39 39-17 17L280 425.9l17-17 80-80 17-17-17-17-80-80z"/></svg>