<svg xmlns="http://www.w3.org/2000/svg" viewBox="0 0 384 512"><!--! Font Awesome Pro 6.7.2 by @fontawesome - https://fontawesome.com License - https://fontawesome.com/license (Commercial License) Copyright 2024 Fonticons, Inc. --><defs><style>.fa-secondary{opacity:.4}</style></defs><path class="fa-secondary" d="M48 48l176 0 0 112 112 0 0 304L48 464 48 48zM80 192l0 24 0 80 0 64 0 24 48 0 0-24 0-40 24 0-1 1 55 55-23 23-17 17L200 449.9l17-17 23-23 23 23 17 17L313.9 416l-17-17-23-23 23-23 17-17L280 302.1l-17 17-23 23-31.1-31.1c11.9-7.1 21.2-18 26.5-30.9l4.7 0 0-24c0-35.3-28.7-64-64-64l-72 0-24 0zm48 48l48 0c8.8 0 16 7.2 16 16s-7.2 16-16 16l-48 0 0-32z"/><path class="fa-primary" d="M48 48l176 0 0 112 112 0 0 304L48 464 48 48zM256 0L48 0 0 0 0 48 0 464l0 48 48 0 288 0 48 0 0-48 0-336L256 0zM104 192l-24 0 0 24 0 80 0 64 0 24 48 0 0-24 0-40 24 0-1 1 55 55-23 23-17 17L200 449.9l17-17 23-23 23 23 17 17L313.9 416l-17-17-23-23 23-23 17-17L280 302.1l-17 17-23 23-31.1-31.1c11.9-7.1 21.2-18 26.5-30.9l4.7 0 0-24c0-35.3-28.7-64-64-64l-72 0zm72 80l-48 0 0-32 48 0c8.8 0 16 7.2 16 16s-7.2 16-16 16z"/></svg>