<svg xmlns="http://www.w3.org/2000/svg" viewBox="0 0 576 512"><!--! Font Awesome Pro 6.7.2 by @fontawesome - https://fontawesome.com License - https://fontawesome.com/license (Commercial License) Copyright 2024 Fonticons, Inc. --><defs><style>.fa-secondary{opacity:.4}</style></defs><path class="fa-secondary" d="M48 80l0 232.4L108.2 192 432 192l0-48-160 0-19.9 0-14.1-14.1L188.1 80 48 80z"/><path class="fa-primary" d="M272 96L208 32 48 32 0 32 0 80 0 432l0 48 48 0 336 0 64 0L576 224l-448 0L48 384 48 80l140.1 0 49.9 49.9L252.1 144l19.9 0 160 0 0 48 48 0 0-48 0-48-48 0L272 96z"/></svg>