<svg xmlns="http://www.w3.org/2000/svg" viewBox="0 0 640 512"><!--! Font Awesome Pro 6.7.2 by @fontawesome - https://fontawesome.com License - https://fontawesome.com/license (Commercial License) Copyright 2024 Fonticons, Inc. --><defs><style>.fa-secondary{opacity:.4}</style></defs><path class="fa-secondary" d="M2.9 462.5c4.1-29.7 8.2-59.4 12.3-89.1l23.2-6.3 88-24 17.7-4.8 0-18.3 0-96.2L254.3 72.2l24.7 15.4L211.6 195.3l-3.6 5.8 0 6.9 0 88 0 24 48 0 0-24 0-80 40 0 0 173.3L26.2 456.7 2.9 462.5zM344 216l40 0 0 80 0 24 48 0 0-24 0-88 0-6.9-3.6-5.8L361.1 87.6l24.7-15.4L496 223.8l0 96.2 0 18.3 17.7 4.8 88 24 23.2 6.3c4.1 29.8 8.2 59.4 12.2 89.3c-7.7-2.2-15.5-4.1-23.2-6.1L344 389.3 344 216z"/><path class="fa-primary" d="M241.7 7.8l19 11.9 59.3 37 59.3-37 19-11.9 13.2 18.1 128 176 4.6 6.3 0 7.8 0 85.7 70.3 19.2 23.2 6.3-12.6 46.3-23.2-6.3-88-24L496 338.3l0-18.3 0-96.2L385.7 72.2 361.1 87.6l67.3 107.6 3.6 5.8 0 6.9 0 88 0 24-48 0 0-24 0-80-40 0 0 173.3 269.8 67.5 23.3 5.8-11.6 46.6-23.3-5.8L320 432.7 37.8 503.3l-23.3 5.8L2.9 462.5l23.3-5.8L296 389.3 296 216l-40 0 0 80 0 24-48 0 0-24 0-88 0-6.9 3.6-5.8L278.9 87.6 254.3 72.2 144 223.8l0 96.2 0 18.3-17.7 4.8-88 24-23.2 6.3L2.5 327.2l23.2-6.3L96 301.7 96 216l0-7.8 4.6-6.3 128-176L241.7 7.8zM296 168l24 0s0 0 0 0l24 0 10.7 0L320 112.5 285.3 168l10.7 0z"/></svg>