<svg xmlns="http://www.w3.org/2000/svg" viewBox="0 0 576 512"><!--! Font Awesome Pro 6.7.2 by @fontawesome - https://fontawesome.com License - https://fontawesome.com/license (Commercial License) Copyright 2024 Fonticons, Inc. --><defs><style>.fa-secondary{opacity:.4}</style></defs><path class="fa-secondary" d="M48 48l224 0 0 416L48 464l0-48 88 0 24 0 0-48-24 0-88 0 0-48 88 0 24 0 0-48-24 0-88 0L48 48zm48 88l0 48 40 0 0 40 48 0 0-40 40 0 0-48-40 0 0-40-48 0 0 40-40 0zM263.3 488.7l35.1-80.3 0 .4c-11.6 26.6-23.3 53.2-35.1 79.8z"/><path class="fa-primary" d="M48 48l0 224 88 0 24 0 0 48-24 0-88 0 0 48 88 0 24 0 0 48-24 0-88 0 0 48 224 0 0-416L48 48zM0 0L48 0 272 0l48 0 0 48 0 311L253.1 512 48 512 0 512l0-48L0 48 0 0zM136 96l48 0 0 40 40 0 0 48-40 0 0 40-48 0 0-40-40 0 0-48 40 0 0-40zM352 272a80 80 0 1 1 160 0 80 80 0 1 1 -160 0zM520 384l56 128-288 0 56-128 176 0z"/></svg>