<svg xmlns="http://www.w3.org/2000/svg" viewBox="0 0 512 512"><!--! Font Awesome Pro 6.7.2 by @fontawesome - https://fontawesome.com License - https://fontawesome.com/license (Commercial License) Copyright 2024 Fonticons, Inc. --><defs><style>.fa-secondary{opacity:.4}</style></defs><path class="fa-secondary" d="M80 48l0 416 128 0 0-80-48 0c0-53 43-96 96-96s96 43 96 96l-48 0 0 80 128 0 0-416L80 48zm48 48l64 0 0 64-64 0 0-64zm0 96l64 0 0 64-64 0 0-64zm96-96l64 0 0 64-64 0 0-64zm0 96l64 0 0 64-64 0 0-64zm96-96l64 0 0 64-64 0 0-64zm0 96l64 0 0 64-64 0 0-64z"/><path class="fa-primary" d="M512 0L0 0 0 48l32 0 0 416L0 464l0 48 512 0 0-48-32 0 0-416 32 0 0-48zM432 464l-128 0 0-80 48 0c0-53-43-96-96-96s-96 43-96 96l48 0 0 80L80 464 80 48l352 0 0 416zM192 96l-64 0 0 64 64 0 0-64zm32 0l0 64 64 0 0-64-64 0zm160 0l-64 0 0 64 64 0 0-64zM128 192l0 64 64 0 0-64-64 0zm160 0l-64 0 0 64 64 0 0-64zm32 0l0 64 64 0 0-64-64 0z"/></svg>