<svg xmlns="http://www.w3.org/2000/svg" viewBox="0 0 576 512"><!--! Font Awesome Pro 6.7.2 by @fontawesome - https://fontawesome.com License - https://fontawesome.com/license (Commercial License) Copyright 2024 Fonticons, Inc. --><defs><style>.fa-secondary{opacity:.4}</style></defs><path class="fa-secondary" d="M80 80l0 352 416 0 0-261.5L387.9 219.7 320 250.5l0-74.5 0-5.5L211.9 219.7 144 250.5l0-74.5 0-96L80 80z"/><path class="fa-primary" d="M192 123.3L192 80l0-48-48 0L80 32 32 32l0 48 0 352 0 48 48 0 416 0 48 0 0-48 0-283.3L544 96l-48 21.8-80 36.4L368 176l0-27.3 0-25.5L368 96l-48 21.8-80 36.4L192 176l0-52.7zm128 47.3l0 5.5 0 74.5 67.9-30.8L496 170.5 496 432 80 432 80 80l64 0 0 96 0 74.5 67.9-30.8L320 170.5z"/></svg>