<svg xmlns="http://www.w3.org/2000/svg" viewBox="0 0 640 512"><!--! Font Awesome Pro 6.7.2 by @fontawesome - https://fontawesome.com License - https://fontawesome.com/license (Commercial License) Copyright 2024 Fonticons, Inc. --><defs><style>.fa-secondary{opacity:.4}</style></defs><path class="fa-secondary" d="M144 384l352 0 0 48-352 0 0-48zm48-176c0-70.7 57.3-128 128-128s128 57.3 128 128l0 96-256 0 0-96zm32 0l32 0c0-35.3 28.7-64 64-64l0-32c-53 0-96 43-96 96z"/><path class="fa-primary" d="M69.3 36l-20-13.3L22.7 62.7 42.7 76l48 32 20 13.3 26.6-39.9L117.3 68l-48-32zM597.3 76l20-13.3L590.7 22.7 570.7 36l-48 32-20 13.3 26.6 39.9 20-13.3 48-32zM24 192L0 192l0 48 24 0 48 0 24 0 0-48-24 0-48 0zm544 0l-24 0 0 48 24 0 48 0 24 0 0-48-24 0-48 0zM448 208l0 96 48 0 0-96c0-97.2-78.8-176-176-176s-176 78.8-176 176l0 96 48 0 0-96c0-70.7 57.3-128 128-128s128 57.3 128 128zM144 432l0-48 352 0 0 48-352 0zM96 336l0 48 0 48 0 48 48 0 352 0 48 0 0-48 0-48 0-48-48 0-352 0-48 0zM320 144l0-32c-53 0-96 43-96 96l32 0c0-35.3 28.7-64 64-64z"/></svg>