<svg xmlns="http://www.w3.org/2000/svg" viewBox="0 0 576 512"><!--! Font Awesome Pro 6.7.2 by @fontawesome - https://fontawesome.com License - https://fontawesome.com/license (Commercial License) Copyright 2024 Fonticons, Inc. --><defs><style>.fa-secondary{opacity:.4}</style></defs><path class="fa-secondary" d="M48 130.6l0 282.8 120-40 0-282.8-120 40zm168-40l0 282.8 144 48 0-282.8-144-48zm192 48l0 282.8 120-40 0-282.8-120 40z"/><path class="fa-primary" d="M168 373.4l-120 40 0-282.8 120-40 0 282.8zm192 48l-144-48 0-282.8 144 48 0 282.8zm48 0l0-282.8 120-40 0 282.8-120 40zM0 480l48-16 144-48 192 64 192-64 0-333.4L576 32 528 48 384 96 192 32 0 96 0 429.4 0 480z"/></svg>