<svg xmlns="http://www.w3.org/2000/svg" viewBox="0 0 576 512"><!--! Font Awesome Pro 6.7.2 by @fontawesome - https://fontawesome.com License - https://fontawesome.com/license (Commercial License) Copyright 2024 Fonticons, Inc. --><defs><style>.fa-secondary{opacity:.4}</style></defs><path class="fa-secondary" d="M48 112l480 0 0 288L48 400l0-288zM192 256a96 96 0 1 0 192 0 96 96 0 1 0 -192 0z"/><path class="fa-primary" d="M48 112l0 288 480 0 0-288L48 112zM0 64l48 0 480 0 48 0 0 48 0 288 0 48-48 0L48 448 0 448l0-48L0 112 0 64zm288 96a96 96 0 1 1 0 192 96 96 0 1 1 0-192z"/></svg>