<svg xmlns="http://www.w3.org/2000/svg" viewBox="0 0 512 512"><!--! Font Awesome Pro 6.7.2 by @fontawesome - https://fontawesome.com License - https://fontawesome.com/license (Commercial License) Copyright 2024 Fonticons, Inc. --><defs><style>.fa-secondary{opacity:.4}</style></defs><path class="fa-secondary" d="M176 112l0 64 288 0 0-64-288 0zm0 224l0 64 160 0 0-64-160 0z"/><path class="fa-primary" d="M0 512L0 0 48 0l0 512L0 512zM176 176l288 0 0-64-288 0 0 64zm-48-64l0-48 48 0 288 0 48 0 0 48 0 64 0 48-48 0-288 0-48 0 0-48 0-64zm48 288l160 0 0-64-160 0 0 64zm-48-64l0-48 48 0 160 0 48 0 0 48 0 64 0 48-48 0-160 0-48 0 0-48 0-64z"/></svg>