<svg xmlns="http://www.w3.org/2000/svg" viewBox="0 0 512 512"><!--! Font Awesome Pro 6.7.2 by @fontawesome - https://fontawesome.com License - https://fontawesome.com/license (Commercial License) Copyright 2024 Fonticons, Inc. --><defs><style>.fa-secondary{opacity:.4}</style></defs><path class="fa-secondary" d="M48 48l0 256 80 0 0-176 176 0 0-80L48 48zM208 384l0 80 256 0 0-256-80 0 0 176-176 0z"/><path class="fa-primary" d="M48 48l256 0 0 80 48 0 0-80 0-48L304 0 48 0 0 0 0 48 0 304l0 48 48 0 80 0 0-48-80 0L48 48zM160 384l0 80 0 48 48 0 256 0 48 0 0-48 0-256 0-48-48 0-80 0 0 48 80 0 0 256-256 0 0-80-48 0zm96-32l48 0 48 0 0-48 0-16-48 0 0 16-48 0 0 48zm96-144l0-48-48 0-16 0 0 48 16 0 0 48 48 0 0-48zM224 352l0-48-16 0 0-48-48 0 0 48 0 48 48 0 16 0zM160 208l0 16 48 0 0-16 48 0 0-48-48 0-48 0 0 48z"/></svg>