<svg xmlns="http://www.w3.org/2000/svg" viewBox="0 0 640 512"><!--! Font Awesome Pro 6.7.2 by @fontawesome - https://fontawesome.com License - https://fontawesome.com/license (Commercial License) Copyright 2024 Fonticons, Inc. --><defs><style>.fa-secondary{opacity:.4}</style></defs><path class="fa-secondary" d="M160 352l208 0 0 33.1c-15.2 2.1-29.6 7.2-42 14.9l-166 0 0-48zM240 48l352 0 0 85c-26.6 8.9-53.1 17.7-79.7 26.6l-37.6-46.6L456 89.8l-18.7 23.1-63.7 78.9-10.3-14L344 151.4l-19.4 26.4L255.6 272 240 272l0-224zm32 64a32 32 0 1 0 64 0 32 32 0 1 0 -64 0z"/><path class="fa-primary" d="M592 48L240 48l0 224 15.6 0 69.1-94.2L344 151.4l19.4 26.4 10.3 14 63.7-78.9L456 89.8l18.7 23.1 37.6 46.6L368 207.6 368 320l-128 0-48 0 0-48 0-224 0-48 48 0L592 0l48 0 0 48 0 69-48 16 0-85zM160 400l166 0c-2.2 1.4-4.4 2.9-6.5 4.5c-13.8 10.3-25.3 25.3-29.7 43.5L160 448l-24 0-24 0-64 0L0 448l0-48L0 160l0-48 48 0 64 0 24 0 24 0 0 48 0 72 0 88 0 8 0 72zM304 80a32 32 0 1 1 0 64 32 32 0 1 1 0-64zM112 208l0-48-64 0 0 48 64 0zm0 192l0-48-64 0 0 48 64 0zm0-96l0-48-64 0 0 48 64 0zM640 152l0 33.3 0 48 0 160c0 1-.1 2.1-.2 3c.1 1.2 .2 2.5 .2 3.7c0 26.5-28.7 48-64 48s-64-21.5-64-48s28.7-48 64-48c5.5 0 10.9 .5 16 1.5l0-87-144 48 0 149.5 0 1.2c0 1.8-.2 3.5-.6 5.2c-4.2 23.5-31 41.6-63.4 41.6c-35.3 0-64-21.5-64-48s28.7-48 64-48c5.5 0 10.9 .5 16 1.5l0-120.3 0-48 0-17.3 16.4-5.5 192-64L640 152z"/></svg>