<svg xmlns="http://www.w3.org/2000/svg" viewBox="0 0 640 512"><!--! Font Awesome Pro 6.7.2 by @fontawesome - https://fontawesome.com License - https://fontawesome.com/license (Commercial License) Copyright 2024 Fonticons, Inc. --><defs><style>.fa-secondary{opacity:.4}</style></defs><path class="fa-secondary" d="M97.3 352l26.7 0 40.8-54.4L172 288l12 0 59.7 0c-46.9-36.9-93.8-73.9-140.7-110.8l23.7 71.2 2.5 7.6-2.5 7.6L97.3 352zM239.8 48l41.5 145.4 .8 2.9L400.3 288 502 288c9.7 0 26-4.4 39.8-12.8C557 266.1 560 258.4 560 256c0-.6-.2-2.8-3.3-6.7c-3.1-3.9-8.1-8.2-14.9-12.3c-14-8.5-30.2-13-39.7-13l-113.5 0-13.9 0-6.9-12.1L274.1 48l-34.3 0zm0 416l34.3 0L334 359.1c-17.5-13.8-34.9-27.5-52.4-41.3l-.2 .7L239.8 464z"/><path class="fa-primary" d="M462.1 336l39.9 0c20.2 0 44.9-7.8 64.5-19.6C585 305.4 608 285.1 608 256c0-14.7-6.3-27.2-13.9-36.7c-7.6-9.5-17.4-17.3-27.5-23.3c-19.6-11.9-44.3-20-64.6-20l-99.5 0L308.8 12.1 301.9 0 288 0 208 0 176.2 0l8.7 30.6L218 146.5 48.4 14.8 29.4 .1 0 38 19 52.7 591.5 497.2l19 14.7L639.9 474l-19-14.7L462.1 336zM282.2 196.3l-.8-2.9L239.8 48l34.3 0 93.7 163.9 6.9 12.1 13.9 0L502 224c9.6 0 25.8 4.6 39.7 13c6.7 4.1 11.8 8.4 14.9 12.3c3.1 3.9 3.3 6.1 3.3 6.7c0 2.4-3 10.1-18.1 19.2C528 283.6 511.8 288 502 288l-101.7 0L282.2 196.3zm89.9 192.9l-38.1-30L274.1 464l-34.3 0 41.5-145.4 .2-.7L243.7 288 184 288l-12 0-7.2 9.6L124 352l-26.7 0 29.5-88.4 2.5-7.6-2.5-7.6L103 177.2 34.4 123.1l6.8 20.5L78.7 256 41.2 368.4 30.7 400 64 400l72 0 12 0 7.2-9.6L196 336l30.5 0L184.9 481.4 176.2 512l31.8 0 80 0 13.9 0 6.9-12.1 63.3-110.7z"/></svg>