<svg xmlns="http://www.w3.org/2000/svg" viewBox="0 0 640 512"><!--! Font Awesome Pro 6.7.2 by @fontawesome - https://fontawesome.com License - https://fontawesome.com/license (Commercial License) Copyright 2024 Fonticons, Inc. --><defs><style>.fa-secondary{opacity:.4}</style></defs><path class="fa-secondary" d="M112 160l0 192 128-96L112 160z"/><path class="fa-primary" d="M64 448l0-60 0-264 0-60 48 36L280 226l40 30-40 30L112 412 64 448zM240 256L112 160l0 192 128-96zM432 88l0 336 0 24-48 0 0-24 0-336 0-24 48 0 0 24zm144 0l0 336 0 24-48 0 0-24 0-336 0-24 48 0 0 24z"/></svg>