<svg xmlns="http://www.w3.org/2000/svg" viewBox="0 0 384 512"><!--! Font Awesome Pro 6.7.2 by @fontawesome - https://fontawesome.com License - https://fontawesome.com/license (Commercial License) Copyright 2024 Fonticons, Inc. --><defs><style>.fa-secondary{opacity:.4}</style></defs><path class="fa-secondary" d="M80 112l0 352 224 0 0-352L80 112zm24 24l32 0 0 32-32 0 0-32zm0 48l32 0 0 32-32 0 0-32zm0 48l80 0 0 80-80 0 0-80zm48-96l32 0 0 32-32 0 0-32zm0 48l32 0 0 32-32 0 0-32zm48-48l32 0 0 32-32 0 0-32zm0 48l32 0 0 32-32 0 0-32zm48-48l32 0 0 32-32 0 0-32zm0 48l32 0 0 32-32 0 0-32z"/><path class="fa-primary" d="M208 0l0 16 0 16 112 0 0 32 32 0 0 48 0 352 32 0 0 48-32 0-48 0L80 512l-48 0L0 512l0-48 32 0 0-352 0-48 32 0 0-32 112 0 0-16 0-16 32 0zM80 464l224 0 0-352L80 112l0 352zm24-328l32 0 0 32-32 0 0-32zm0 48l32 0 0 32-32 0 0-32zm80-48l0 32-32 0 0-32 32 0zm-32 48l32 0 0 32-32 0 0-32zm80-48l0 32-32 0 0-32 32 0zm0 48l0 32-32 0 0-32 32 0zm16-48l32 0 0 32-32 0 0-32zm32 48l0 32-32 0 0-32 32 0zM104 232l80 0 0 80-80 0 0-80z"/></svg>