<svg xmlns="http://www.w3.org/2000/svg" viewBox="0 0 512 512"><!--! Font Awesome Pro 6.7.2 by @fontawesome - https://fontawesome.com License - https://fontawesome.com/license (Commercial License) Copyright 2024 Fonticons, Inc. --><defs><style>.fa-secondary{opacity:.4}</style></defs><path class="fa-secondary" d="M56 184.2C56 126.7 102.7 80 160.2 80l3.8 0c29.3 0 55.8 11.6 75.3 30.6L256 126.8l16.7-16.3C292.2 91.6 318.7 80 348 80l3.8 0C409.3 80 456 126.7 456 184.2c0 61.9-28.2 117.1-72.4 153.8l-17.1 14.2 12.9 18.2 4.5 6.3 9.3 13.1-26.1 18.5-9.2-13.1L348.3 382c-3.5-4.9-6.9-9.8-10.4-14.7l-16.8-23.8-22.2-31.4-11.8-16.6-11.5-16.3L256 251.7l-19.6 27.6-23.3 32.9-22.2 31.4 38 6.2c8.9 1.4 17.9 2.2 27.2 2.2c4 0 8-.1 11.9-.4l21 29.7c-10.7 1.8-21.7 2.7-33 2.7c-22.8 0-44.6-3.8-65-10.8l-17-5.8L163.7 382l-9.3 13.2-9.2 13.1L119 389.8l9.2-13.1 4.5-6.3c4.3-6.1 8.6-12.1 12.9-18.2c6-8.5 12-16.9 18-25.4l15.6-22L225.1 240c9.7-13.7 14.9-30.1 14.9-46.9l0-5.1c0-42-34-76-76-76l-3.8 0C120.3 112 88 144.3 88 184.2c0 41.7 15.3 79.8 40.4 109.1l-19 26.8C76.3 284.5 56 236.7 56 184.2zM272 188l0 5.1c0 16.8 5.2 33.2 14.9 46.9l45.9 64.9 15.6 22 20.1-18.1c34-30.7 55.5-75.1 55.5-124.6c0-39.9-32.3-72.2-72.2-72.2l-3.8 0c-42 0-76 34-76 76z"/><path class="fa-primary" d="M56 184.2c0 52.5 20.3 100.3 53.5 135.9l19-26.8C103.3 264 88 225.9 88 184.2c0-39.9 32.3-72.2 72.2-72.2l3.8 0c42 0 76 34 76 76l0 5.1c0 16.8-5.2 33.2-14.9 46.9l-45.9 64.9-15.6 22s0 0 0 0l-18 25.4s0 0 0 0l-12.9 18.2-4.5 6.3L119 389.8l26.1 18.5 9.2-13.1 9.3-13.2L174 367.4l17 5.8c20.3 7 42.2 10.8 65 10.8c11.2 0 22.3-.9 33-2.7l-21-29.7c-3.9 .3-7.9 .4-11.9 .4c-9.2 0-18.3-.7-27.2-2.2l-38-6.2 22.2-31.4 23.3-32.9L256 251.7l19.6 27.6 11.5 16.3 11.8 16.6 22.2 31.4L338 367.4s0 0 0 0L348.3 382l9.3 13.1 9.2 13.1L393 389.8l-9.3-13.1-4.5-6.3-12.9-18.2L383.6 338c44.3-36.7 72.4-92 72.4-153.8C456 126.7 409.3 80 351.8 80L348 80c-29.3 0-55.8 11.6-75.3 30.6L256 126.8l-16.7-16.3C219.8 91.6 193.3 80 164 80l-3.8 0C102.7 80 56 126.7 56 184.2zM81.2 360C36.1 315.1 8 253 8 184.2C8 100.1 76.1 32 160.2 32l3.8 0c34.4 0 66.2 11.2 92 30c25.8-18.9 57.6-30 92-30l3.8 0C435.8 32 504 100.1 504 184.2c0 68.7-28.1 130.9-73.2 175.8l15.3 21.6 13.9 19.6L440.3 415l-65.3 46.2-19.6 13.9-13.9-19.6-1.8-2.6s0 0 0 0l-20.6-29.1C299 429.2 277.8 432 256 432s-43-2.8-63.2-8.1l-22.5 31.7-13.9 19.6-19.6-13.9L71.6 415.1 52 401.2l13.9-19.6 1.9-2.6s0 0 0 0l13.5-19zM136 184.2c0 25.3 7.9 48.9 21.4 68.3l28.5-40.2c4-5.6 6.1-12.3 6.1-19.1l0-5.1c0-15.5-12.5-28-28-28l-3.8 0c-13.4 0-24.2 10.8-24.2 24.2zM320 188l0 5.1c0 6.9 2.1 13.5 6.1 19.1l28.5 40.2c13.5-19.4 21.4-42.9 21.4-68.3c0-13.4-10.8-24.2-24.2-24.2l-3.8 0c-15.5 0-28 12.5-28 28zm28-76l3.8 0c39.9 0 72.2 32.3 72.2 72.2c0 49.4-21.5 93.9-55.5 124.6l-20.1 18.1-15.6-22L286.9 240c-9.7-13.7-14.9-30.1-14.9-46.9l0-5.1c0-42 34-76 76-76z"/></svg>