<svg xmlns="http://www.w3.org/2000/svg" viewBox="0 0 448 512"><!--! Font Awesome Pro 6.7.2 by @fontawesome - https://fontawesome.com License - https://fontawesome.com/license (Commercial License) Copyright 2024 Fonticons, Inc. --><defs><style>.fa-secondary{opacity:.4}</style></defs><path class="fa-secondary" d="M71.6 424.2l71.1-79c9.1 10.2 18.3 20.3 27.4 30.5L105 448 71.6 424.2zM96 142.9l11.8-17.2 16.5 18.4L376.4 424.2 343 448 96 173.6l0-30.7zm181.8 52.2l45.9-51 16.5-18.4L352 142.9l0 30.7-46.8 52c-9.1-10.2-18.3-20.3-27.4-30.5z"/><path class="fa-primary" d="M352 142.9l-11.8-17.2-16.5 18.4-45.9 51-32.3-35.9L288 112 224 48l-64 64L415.7 396.1 448 432l-39.3 28.1L336 512 48 192l0-64L136 0l40 0 48 0 48 0 40 0 88 128 0 64-62.5 69.4-32.3-35.9 46.8-52 0-30.7zM142.8 345.1l-71.1 79L105 448l65.2-72.4 32.3 35.9L112 512 39.3 460.1 0 432l32.3-35.9 78.2-86.8 32.3 35.9zM96 142.9l0 30.7L343 448l33.4-23.8L124.3 144.1l-16.5-18.4L96 142.9z"/></svg>