<svg xmlns="http://www.w3.org/2000/svg" viewBox="0 0 576 512"><!--! Font Awesome Pro 6.7.2 by @fontawesome - https://fontawesome.com License - https://fontawesome.com/license (Commercial License) Copyright 2024 Fonticons, Inc. --><defs><style>.fa-secondary{opacity:.4}</style></defs><path class="fa-secondary" d="M266.9 240l55.3 0L459.1 83.6c3.2-3.6 4.9-8.3 4.9-13.1c0-10.4-7.9-19-18.2-19.8c-6.2-.5-12.3 1.9-16.5 6.6L266.9 240z"/><path class="fa-primary" d="M322.2 240l-55.3 0L429.3 57.2c4.1-4.7 10.2-7.1 16.5-6.6c10.2 .9 18.2 9.5 18.2 19.8c0 4.8-1.8 9.5-4.9 13.1L322.2 240zM344 288L495.2 115.2C506 102.8 512 86.9 512 70.5c0-35.3-27-64.7-62.2-67.6C428.5 1 407.7 9.4 393.5 25.3L202.7 240 160 288l64.2 0L344 288zM0 512s288-16 288-192l-112 0L0 512zm248-48l-24 0 0 48 24 0 48 0 24 0 0-48-24 0-48 0zm128 0l-24 0 0 48 24 0 48 0 24 0 0-48-24 0-48 0zm128 0l-24 0 0 48 24 0 48 0 24 0 0-48-24 0-48 0z"/></svg>