<svg xmlns="http://www.w3.org/2000/svg" viewBox="0 0 640 512"><!--! Font Awesome Pro 6.7.2 by @fontawesome - https://fontawesome.com License - https://fontawesome.com/license (Commercial License) Copyright 2024 Fonticons, Inc. --><defs><style>.fa-secondary{opacity:.4}</style></defs><path class="fa-secondary" d="M54.7 176l46.9 0c-10.9-8.6-21.9-17.2-32.8-25.8L54.7 176zM112 368l0 96 224 0 0-96-224 0zm2.6-301.8L256 176l329.3 0L515.5 48l-391 0-9.9 18.2z"/><path class="fa-primary" d="M515.5 48l69.8 128L256 176 114.6 66.2 124.5 48l391 0zM76.2 36.4L48.4 14.8 29.4 .1 0 38 19 52.7 591.5 497.2l19 14.7L639.9 474l-19-14.7L576 424.4 576 224l16 0 48 0 0-48L544 0 96 0 76.2 36.4zM528 387.2L317.9 224 528 224l0 163.2zM54.7 176l14.1-25.8L30.5 120 0 176l0 48 48 0 16 0 0 264 0 24 24 0 272 0 24 0 0-24 0-89.5L284.3 320 112 320l0-96 50.5 0-60.9-48-46.9 0zM552 512l-.2 0 .5 0-.2 0zM112 464l0-96 224 0 0 96-224 0z"/></svg>