<svg xmlns="http://www.w3.org/2000/svg" viewBox="0 0 512 512"><!--! Font Awesome Pro 6.7.2 by @fontawesome - https://fontawesome.com License - https://fontawesome.com/license (Commercial License) Copyright 2024 Fonticons, Inc. --><defs><style>.fa-secondary{opacity:.4}</style></defs><path class="fa-secondary" d="M48 256l0 208 224 0 0-208c0-26.5-21.5-48-48-48L96 208c-26.5 0-48 21.5-48 48zm176 80A64 64 0 1 1 96 336a64 64 0 1 1 128 0z"/><path class="fa-primary" d="M224 0L96 0l0 128 128 0L224 0zm0 208c26.5 0 48 21.5 48 48l0 208L48 464l0-208c0-26.5 21.5-48 48-48l128 0zM96 160c-53 0-96 43-96 96L0 464l0 48 48 0 224 0 48 0 0-48 0-208c0-53-43-96-96-96L96 160zM224 336A64 64 0 1 0 96 336a64 64 0 1 0 128 0zM320 64a32 32 0 1 0 -64 0 32 32 0 1 0 64 0zm64 32a32 32 0 1 0 0-64 32 32 0 1 0 0 64zM512 64a32 32 0 1 0 -64 0 32 32 0 1 0 64 0zM480 192a32 32 0 1 0 0-64 32 32 0 1 0 0 64zm32 64a32 32 0 1 0 -64 0 32 32 0 1 0 64 0zM384 192a32 32 0 1 0 0-64 32 32 0 1 0 0 64z"/></svg>