<svg xmlns="http://www.w3.org/2000/svg" viewBox="0 0 448 512"><!--! Font Awesome Pro 6.7.2 by @fontawesome - https://fontawesome.com License - https://fontawesome.com/license (Commercial License) Copyright 2024 Fonticons, Inc. --><defs><style>.fa-secondary{opacity:.4}</style></defs><path class="fa-secondary" d="M48 80l352 0 0 352L48 432 48 80zm80 48l0 24 0 146.5 0 61.5 0 24 48 0 0-24 0-52.3 29.1-32.5L277.2 384l57.6 0-4.8-7.3L238.3 238.3l97.9-109.1 1-1.1-64.5 0-82.5 92L176 235.8l0-83.8 0-24-48 0z"/><path class="fa-primary" d="M48 80l0 352 352 0 0-352L48 80zM0 32l48 0 352 0 48 0 0 48 0 352 0 48-48 0L48 480 0 480l0-48L0 80 0 32zm337.1 96l-1 1.1L238.3 238.3 330 376.7l4.8 7.3-57.6 0L205.1 275.2 176 307.7l0 52.3 0 24-48 0 0-24 0-61.5L128 152l0-24 48 0 0 24 0 83.8L190.1 220l82.5-92 64.5 0z"/></svg>