<svg xmlns="http://www.w3.org/2000/svg" viewBox="0 0 448 512"><!--! Font Awesome Pro 6.7.2 by @fontawesome - https://fontawesome.com License - https://fontawesome.com/license (Commercial License) Copyright 2024 Fonticons, Inc. --><defs><style>.fa-secondary{opacity:.4}</style></defs><path class="fa-secondary" d="M48 80l352 0 0 352L48 432 48 80zm82.9 251.4l5.4 10c14.1 26.2 41.5 42.6 71.2 42.6l33 0c35.5 0 65.6-23.3 75.8-55.5l3.7 0 0-24c0-40.2-30.1-74.1-70-78.9l-56-6.7 3.9-42.9 82.1 0 24 0 0-48-24 0-104 0-21.9 0-2 21.8-8 88L142 261.1l23.2 2.8 79.1 9.5c15.8 1.9 27.7 15.3 27.7 31.2c0 17.4-14.1 31.5-31.5 31.5l-33 0c-12.1 0-23.2-6.7-29-17.3l-5.4-10-42.3 22.7z"/><path class="fa-primary" d="M48 80l0 352 352 0 0-352L48 80zM0 32l48 0 352 0 48 0 0 48 0 352 0 48-48 0L48 480 0 480l0-48L0 80 0 32zm176 96l104 0 24 0 0 48-24 0-82.1 0L194 218.9l56 6.7c39.9 4.8 70 38.7 70 78.9l0 24-3.7 0c-10.2 32.2-40.2 55.5-75.8 55.5l-33 0c-29.8 0-57.1-16.4-71.2-42.6l-5.4-10 42.3-22.7 5.4 10c5.7 10.7 16.9 17.3 29 17.3l33 0c17.4 0 31.5-14.1 31.5-31.5c0-15.9-11.9-29.3-27.7-31.2l-79.1-9.5L142 261.1l2.1-23.2 8-88 2-21.8 21.9 0z"/></svg>