<svg xmlns="http://www.w3.org/2000/svg" viewBox="0 0 448 512"><!--! Font Awesome Pro 6.7.2 by @fontawesome - https://fontawesome.com License - https://fontawesome.com/license (Commercial License) Copyright 2024 Fonticons, Inc. --><defs><style>.fa-secondary{opacity:.4}</style></defs><path class="fa-secondary" d="M48 80l0 352 352 0 0-352L48 80zM96 192l256 0 0 32L224 352 96 224l0-32z"/><path class="fa-primary" d="M48 432L48 80l352 0 0 352L48 432zM0 480l48 0 352 0 48 0 0-48 0-352 0-48-48 0L48 32 0 32 0 80 0 432l0 48zM96 224L224 352 352 224l0-32L96 192l0 32z"/></svg>