<svg xmlns="http://www.w3.org/2000/svg" viewBox="0 0 448 512"><!--! Font Awesome Pro 6.7.2 by @fontawesome - https://fontawesome.com License - https://fontawesome.com/license (Commercial License) Copyright 2024 Fonticons, Inc. --><defs><style>.fa-secondary{opacity:.4}</style></defs><path class="fa-secondary" d="M48 80l0 352 352 0 0-352L48 80zm38.1 89.5l32.4-35.4 17.7 16.2 96 88L251.5 256l-19.3 17.7-96 88-17.7 16.2L86.1 342.5l17.7-16.2L180.5 256l-76.7-70.3L86.1 169.5zM192 336l24 0 112 0 24 0 0 48-24 0-112 0-24 0 0-48z"/><path class="fa-primary" d="M400 80l0 352L48 432 48 80l352 0zM48 32L0 32 0 80 0 432l0 48 48 0 352 0 48 0 0-48 0-352 0-48-48 0L48 32zM86.1 169.5l17.7 16.2L180.5 256l-76.7 70.3L86.1 342.5l32.4 35.4 17.7-16.2 96-88L251.5 256l-19.3-17.7-96-88-17.7-16.2L86.1 169.5zM216 336l-24 0 0 48 24 0 112 0 24 0 0-48-24 0-112 0z"/></svg>