<svg xmlns="http://www.w3.org/2000/svg" viewBox="0 0 448 512"><!--! Font Awesome Pro 6.7.2 by @fontawesome - https://fontawesome.com License - https://fontawesome.com/license (Commercial License) Copyright 2024 Fonticons, Inc. --><defs><style>.fa-secondary{opacity:.4}</style></defs><path class="fa-secondary" d="M48 80l0 352 352 0 0-352L48 80zm48 80l112 0 0 32 0 24 0 56 0 8c0 39.8-32.2 72-72 72l-24 0 0-48 24 0c13.3 0 24-10.7 24-24l0-8-64 0 0-112zm144 0l112 0 0 32 0 24 0 56 0 8c0 39.8-32.2 72-72 72l-24 0 0-48 24 0c13.3 0 24-10.7 24-24l0-8-64 0 0-112z"/><path class="fa-primary" d="M400 80l0 352L48 432 48 80l352 0zM48 32L0 32 0 80 0 432l0 48 48 0 352 0 48 0 0-48 0-352 0-48-48 0L48 32zM208 160L96 160l0 112 64 0 0 8c0 13.3-10.7 24-24 24l-24 0 0 48 24 0c39.8 0 72-32.2 72-72l0-8 0-56 0-24 0-32zm32 0l0 112 64 0 0 8c0 13.3-10.7 24-24 24l-24 0 0 48 24 0c39.8 0 72-32.2 72-72l0-8 0-56 0-24 0-32-112 0z"/></svg>