<svg xmlns="http://www.w3.org/2000/svg" viewBox="0 0 640 512"><!--! Font Awesome Pro 6.7.2 by @fontawesome - https://fontawesome.com License - https://fontawesome.com/license (Commercial License) Copyright 2024 Fonticons, Inc. --><defs><style>.fa-secondary{opacity:.4}</style></defs><path class="fa-secondary" d=""/><path class="fa-primary" d="M128 6.1l17 17 88 88 17 17L216 161.9l-17-17-47-47L152 432l144 0 0-376 0-24 24 0 192 0 24 0 0 24 0 156 0 202.1 47-47 17-17L633.9 384l-17 17-88 88-17 17-17-17-88-88-17-17L424 350.1l17 17 47 47L488 212l0-132L344 80l0 376 0 24-24 0-192 0-24 0 0-24 0-358.1L57 145l-17 17L6.1 128l17-17 88-88 17-17z"/></svg>