<svg xmlns="http://www.w3.org/2000/svg" viewBox="0 0 640 512"><!--! Font Awesome Pro 6.7.2 by @fontawesome - https://fontawesome.com License - https://fontawesome.com/license (Commercial License) Copyright 2024 Fonticons, Inc. --><defs><style>.fa-secondary{opacity:.4}</style></defs><path class="fa-secondary" d="M65 464l318 0L348.5 352 99.5 352 65 464zm79-336a80 80 0 1 0 160 0 80 80 0 1 0 -160 0z"/><path class="fa-primary" d="M224 48a80 80 0 1 1 0 160 80 80 0 1 1 0-160zm0 208A128 128 0 1 0 224 0a128 128 0 1 0 0 256zM99.5 352l249.1 0L383 464 65 464 99.5 352zM384 304L64 304 14.8 464 0 512l50.2 0 347.6 0 50.2 0-14.8-48L384 304zM640 512L576 320l-153.6 0 56.2 182.6 2.9 9.4L640 512zM432 256c61.9 0 112-50.1 112-112s-50.1-112-112-112c-24.8 0-47.7 8.1-66.3 21.7C377.4 75.9 384 101.2 384 128c0 35.6-11.6 68.5-31.3 95.1C373 243.4 401 256 432 256z"/></svg>