<svg xmlns="http://www.w3.org/2000/svg" viewBox="0 0 448 512"><!--! Font Awesome Pro 6.7.2 by @fontawesome - https://fontawesome.com License - https://fontawesome.com/license (Commercial License) Copyright 2024 Fonticons, Inc. --><defs><style>.fa-secondary{opacity:.4}</style></defs><path class="fa-secondary" d="M64.5 464l19.2-64 280.6 0 19.2 64L288 464l-64-48-64 48-95.5 0zm54.1-293.8l.9-13.8L200 171.5l0 95.9-9.9-1.7c-8.4-48.3-43-79.4-71.5-95.4zM125 120c13.6-42 52.9-72 99-72s85.4 30 99 72L125 120zm123 51.5l80.5-15.1 .9 13.8c-28.5 16-63.1 47.1-71.5 95.4l-9.9 1.7 0-95.9z"/><path class="fa-primary" d="M323 120C309.4 78 270 48 224 48s-85.4 30-99 72L323 120zm5.5 36.4L248 171.5l0 95.9 9.9-1.7c8.4-48.3 43-79.4 71.5-95.4l-.9-13.8zm-209 0l-.9 13.8c28.5 16 63.1 47.1 71.5 95.4l9.9 1.7 0-95.9-80.5-15.1zM96 70C123.1 27.7 170.5 0 224 0c80.1 0 146.5 62.2 151.7 142.2l8.3 128.2 1.4 21.4-21.2 3.7-136 24c-2.8 .5-5.6 .5-8.3 0l-136-24-21.2-3.7L64 271.2 64 256 64 16 64 0 80 0 96 0l16 0 0 32L96 32l0 38zM64.5 464l95.5 0 64-48 64 48 95.5 0-19.2-64L83.7 400 64.5 464zM48 352l352 0 33.6 112L448 512l-50.1 0L50.1 512 0 512l14.4-48L48 352z"/></svg>