<svg xmlns="http://www.w3.org/2000/svg" viewBox="0 0 448 512"><!--! Font Awesome Pro 6.7.2 by @fontawesome - https://fontawesome.com License - https://fontawesome.com/license (Commercial License) Copyright 2024 Fonticons, Inc. --><defs><style>.fa-secondary{opacity:.4}</style></defs><path class="fa-secondary" d="M64.5 464l79.5 0 0-32 0-16 32 0 0 16 0 32 32 0 0-32 0-16 32 0 0 16 0 32 32 0 0-32 0-16 32 0 0 16 0 32 79.5 0-19.2-64L83.7 400 64.5 464zM112 112l0 160 32 0 0-32 32 0 0 32 32 0 0-32 32 0 0 32 32 0 0-32 32 0 0 32 32 0 0-160-224 0zm96 64a32 32 0 1 1 -64 0 32 32 0 1 1 64 0zm96 0a32 32 0 1 1 -64 0 32 32 0 1 1 64 0z"/><path class="fa-primary" d="M240 16l0-16L208 0l0 16 0 48-96 0L64 64l0 48 0 160 0 48 48 0 224 0 48 0 0-48 0-160 0-48-48 0-96 0 0-48zm96 96l0 160-32 0 0-32-32 0 0 32-32 0 0-32-32 0 0 32-32 0 0-32-32 0 0 32-32 0 0-160 224 0zM83.7 400l280.6 0 19.2 64L304 464l0-32 0-16-32 0 0 16 0 32-32 0 0-32 0-16-32 0 0 16 0 32-32 0 0-32 0-16-32 0 0 16 0 32-79.5 0 19.2-64zM160 512l64 0 64 0 109.9 0 50.1 0-14.4-48L400 352 48 352 14.4 464 0 512l50.1 0L160 512zM32 128L0 128 0 256l32 0 0-128zm416 0l-32 0 0 128 32 0 0-128zM208 176a32 32 0 1 0 -64 0 32 32 0 1 0 64 0zm64 32a32 32 0 1 0 0-64 32 32 0 1 0 0 64z"/></svg>