<svg width="48" height="48" viewBox="0 0 117 89" class="pr-icon-iso-duotone-secondary"
     xmlns="http://www.w3.org/2000/svg" stroke-width="1px" stroke-linecap="round" stroke-linejoin="round">
    <path d="M114.35 34.7302V54.6402C114.37 58.7602 113.03 62.8102 110.31 66.7902C107.59 70.7602 103.5 74.3302 98.0398 77.4802C92.5798 80.6402 86.3998 83.0002 79.5098 84.5702C72.6198 86.1402 65.6098 86.9102 58.4798 86.9002C51.3498 86.8902 44.3297 86.0802 37.4297 84.4902C30.5197 82.9002 24.3198 80.5102 18.8198 77.3402C13.3298 74.1702 9.19976 70.5902 6.43976 66.6002C3.67976 62.6102 2.27977 58.5602 2.25977 54.4402V34.4402C2.27977 37.7902 3.19975 41.0902 5.02975 44.3502C5.44975 45.1002 5.91976 45.8502 6.43976 46.6002C9.19976 50.5902 13.3298 54.1702 18.8198 57.3402C24.3198 60.5102 30.5197 62.9002 37.4297 64.4902C44.3297 66.0802 51.3498 66.8902 58.4798 66.9002C65.6098 66.9002 72.6198 66.1402 79.5098 64.5702C86.3998 63.0002 92.5798 60.6402 98.0398 57.4802C103.5 54.3302 107.59 50.7602 110.31 46.7902C110.78 46.1102 111.2 45.4302 111.59 44.7402C113.43 41.4502 114.35 38.1102 114.35 34.7302Z" class="pr-icon-iso-duotone-primary-stroke" stroke-linejoin="round"/>
    <path d="M110.18 22.4901C107.41 18.5001 103.29 14.9201 97.7897 11.7501C92.2897 8.57007 86.0897 6.19007 79.1897 4.60007C72.2797 3.00007 65.2597 2.20007 58.1297 2.19007C50.9997 2.17007 43.9897 2.95007 37.0997 4.52007C30.2097 6.09007 24.0397 8.45007 18.5697 11.6001C13.1097 14.7601 9.01972 18.3201 6.29972 22.3001C3.58972 26.2801 2.23974 30.3301 2.25974 34.4401C2.27974 37.7901 3.19973 41.0901 5.02973 44.3501C5.44973 45.1001 5.91973 45.8501 6.43973 46.6001C9.19973 50.5901 13.3297 54.1701 18.8197 57.3401C24.3197 60.5101 30.5197 62.9001 37.4297 64.4901C44.3297 66.0801 51.3497 66.8901 58.4797 66.9001C65.6097 66.9001 72.6197 66.1401 79.5097 64.5701C86.3997 63.0001 92.5797 60.6401 98.0397 57.4801C103.5 54.3301 107.59 50.7601 110.31 46.7901C110.78 46.1101 111.2 45.4301 111.59 44.7401C113.43 41.4501 114.35 38.1101 114.35 34.7301V34.6401C114.33 30.5301 112.94 26.4801 110.18 22.4901ZM63.0497 43.7001L55.1497 43.6801H47.3597L45.3597 43.6701H42.5097L42.4797 37.2601H46.3597L55.1497 37.2801L46.3597 32.2101L38.4697 27.6501L46.3597 23.0901L63.0497 32.7201L63.0097 25.4001L74.0997 25.4201L74.1997 43.7201L63.0497 43.7001Z" class="pr-icon-iso-duotone-primary-stroke" stroke-linejoin="round"/>
    <path d="M63.0497 43.7001V32.7201L63.0098 25.4001L74.0998 25.4201L74.1998 43.7201L63.0497 43.7001Z" class="pr-icon-iso-duotone-primary-stroke" stroke-linejoin="round"/>
    <path d="M46.3597 23.0901V32.2101L38.4697 27.6501L46.3597 23.0901Z" class="pr-icon-iso-duotone-primary-stroke" stroke-linejoin="round"/>
    <path d="M63.0497 32.7201V43.7001L55.1497 43.6801V37.2801L46.3597 32.2101V23.0901L63.0497 32.7201Z" class="pr-icon-iso-duotone-primary-stroke" stroke-linejoin="round"/>
    <path d="M55.1497 37.28V43.68L47.3597 43.67H45.3597L42.5097 43.66L42.4797 37.26L46.3597 37.27L55.1497 37.28Z" class="pr-icon-iso-duotone-primary-stroke" stroke-linejoin="round"/>
</svg>