<svg width="48" height="48" viewBox="0 0 83 99" class="pr-icon-iso-duotone-secondary" xmlns="http://www.w3.org/2000/svg"
     stroke-width="1px" stroke-linecap="round" stroke-linejoin="round">
    <path d="M51.3503 30.7522H51.2405L51.5603 88.5122V68.5122L51.3503 30.7522ZM31.5703 65.9422V85.9422L31.6304 96.8722V76.8722L31.5703 65.9422Z" class="pr-icon-iso-duotone-primary-stroke" stroke-linejoin="round"/>
    <path d="M41.6199 96.8822L31.6299 96.8722V76.8722L41.51 76.8822L41.6199 96.8822Z" class="pr-icon-iso-duotone-primary-stroke" stroke-linejoin="round"/>
    <path d="M31.5701 65.9422V85.9422C28.8201 85.2322 26.2203 84.3822 23.7603 83.4022C21.3003 82.4222 18.9602 81.2822 16.7302 80.0022C11.8102 77.1622 8.13019 73.9522 5.69019 70.3922C3.24019 66.8322 2.01023 63.2122 1.99023 59.5422V39.5422C2.01023 42.8922 3.03008 46.1922 5.08008 49.4522C5.27008 49.7722 5.47019 50.0822 5.69019 50.3922C8.13019 53.9522 11.8102 57.1622 16.7302 60.0022C18.9602 61.2822 21.3003 62.4222 23.7603 63.4022C26.2203 64.3822 28.8201 65.2322 31.5701 65.9422Z" class="pr-icon-iso-duotone-primary-stroke" stroke-linejoin="round"/>
    <path d="M80.0903 15.9122V35.9122C73.2803 38.6322 67.9703 42.0622 64.1603 46.2222C63.1603 47.3122 62.3002 48.4322 61.5702 49.5622C59.5402 46.4122 58.5104 43.1122 58.5004 39.6422C58.4804 36.7222 59.1803 33.9122 60.5903 31.2222C61.4903 29.5122 62.6803 27.8422 64.1603 26.2222C67.9703 22.0622 73.2803 18.6322 80.0903 15.9122Z" class="pr-icon-iso-duotone-primary-stroke" stroke-linejoin="round"/>
    <path d="M80.3501 63.4522C76.0401 65.2022 71.4303 66.4922 66.5303 67.3222C64.6003 67.6522 62.6602 67.9122 60.7002 68.0922C57.6902 68.4022 54.6401 68.5322 51.5601 68.5122L51.3501 30.7522L51.2402 10.7522C56.3302 10.7222 61.3102 11.1422 66.1902 12.0122C71.0702 12.8822 75.7001 14.1822 80.0901 15.9122C73.2801 18.6322 67.9702 22.0622 64.1602 26.2222C62.6802 27.8422 61.4901 29.5122 60.5901 31.2222C59.1801 33.9122 58.4802 36.7222 58.5002 39.6422C58.5002 43.1122 59.5401 46.4122 61.5701 49.5622C62.3301 50.7622 63.2401 51.9322 64.3101 53.0822C68.1601 57.2522 73.5001 60.7122 80.3501 63.4522Z" class="pr-icon-iso-duotone-primary-stroke" stroke-linejoin="round"/>
    <path d="M80.3506 63.4522V83.4522C76.0406 85.2022 71.4308 86.4922 66.5308 87.3222C61.6308 88.1522 56.6405 88.5522 51.5605 88.5122V68.5122C54.6405 68.5322 57.6907 68.4022 60.7007 68.0922C62.6607 67.9122 64.6008 67.6522 66.5308 67.3222C71.4308 66.4922 76.0406 65.2022 80.3506 63.4522Z" class="pr-icon-iso-duotone-primary-stroke" stroke-linejoin="round"/>
    <path d="M51.25 10.7422V30.7422" class="pr-icon-iso-duotone-primary-stroke" stroke-linejoin="round"/>
    <path d="M41.6204 76.8822H31.6304L31.5703 65.9422C28.8203 65.2322 26.2205 64.3822 23.7605 63.4022C21.3005 62.4222 18.9605 61.2822 16.7305 60.0022C11.8105 57.1622 8.13043 53.9522 5.69043 50.3922C5.47043 50.0822 5.27032 49.7722 5.08032 49.4522C3.03032 46.1922 2.01048 42.8922 1.99048 39.5422C1.97048 35.8622 3.17031 32.2522 5.57031 28.6922C7.97031 25.1422 11.6205 21.9522 16.5105 19.1322C18.7205 17.8522 21.0505 16.7322 23.5005 15.7522C25.9305 14.7922 28.5105 13.9522 31.2305 13.2522C31.2505 13.2522 31.2605 13.2422 31.2805 13.2422L31.2305 2.42224H41.2104L41.6204 76.8822Z" class="pr-icon-iso-duotone-primary-stroke" stroke-linejoin="round"/>
    <path d="M31.2305 13.2522V2.42224" class="pr-icon-iso-duotone-primary-stroke" stroke-linejoin="round"/>
</svg>