<svg width="48" height="48" viewBox="0 0 131 96" class="pr-icon-iso-duotone-secondary"
     xmlns="http://www.w3.org/2000/svg" stroke-width="1px" stroke-linecap="round" stroke-linejoin="round">
    <path d="M68.1797 33.5705V45.0805C67.3397 45.0305 66.4896 45.0105 65.6196 45.0105C65.3696 45.0105 65.1296 45.0105 64.8896 45.0105V39.3005L68.1797 33.5605V33.5705Z" class="pr-icon-iso-duotone-primary-stroke" stroke-linejoin="round"/>
    <path d="M100.27 59.541V79.321C100.27 76.681 99.4097 74.161 97.6997 71.771C95.9997 69.391 93.5697 67.281 90.4097 65.411V59.321C90.3897 55.391 87.9496 52.021 83.1096 49.221C82.1596 48.681 81.1697 48.181 80.1497 47.751H80.1396C78.7096 47.121 77.1996 46.611 75.6196 46.211C75.3696 46.141 75.1096 46.071 74.8496 46.011V40.041C77.6496 40.511 80.3296 41.171 82.8896 42.021C85.4596 42.861 87.8496 43.921 90.0696 45.201C93.3996 47.131 95.9397 49.311 97.6997 51.771C99.4597 54.231 100.32 56.821 100.27 59.541Z" class="pr-icon-iso-duotone-primary-stroke" stroke-linejoin="round"/>
    <path d="M64.8896 39.3105V45.0205C58.3896 45.1005 52.8197 46.4805 48.1897 49.1605C46.5797 50.0905 45.2497 51.0805 44.1797 52.1305C42.1797 54.1005 41.1295 56.2905 41.0095 58.7005C40.9895 58.8805 40.9895 59.0505 40.9895 59.2305V65.2305C39.2595 66.2305 37.7397 67.3305 36.3997 68.5305C35.0097 69.7805 33.9096 71.1005 33.0996 72.5105V52.5105C33.9096 51.1005 35.0097 49.7805 36.3997 48.5305C37.7897 47.2905 39.3797 46.1505 41.1797 45.1205C41.4197 44.9805 41.6497 44.8505 41.8997 44.7305C42.8797 44.1805 43.8997 43.6805 44.9597 43.2205C47.2397 42.2305 49.6896 41.4305 52.2896 40.8305C56.3896 39.8805 60.5896 39.3705 64.8896 39.3105Z" class="pr-icon-iso-duotone-primary-stroke" stroke-linejoin="round"/>
    <path d="M83.1104 49.2208C82.1604 48.6808 81.1704 48.1808 80.1504 47.7508H80.1404C78.7104 47.1208 77.2004 46.6108 75.6204 46.2108C75.3704 46.1408 75.1103 46.0707 74.8503 46.0107C72.7503 45.5207 70.5304 45.2107 68.1804 45.0807C67.3404 45.0307 66.4904 45.0107 65.6204 45.0107C65.3704 45.0107 65.1304 45.0107 64.8904 45.0107C58.3904 45.0907 52.8204 46.4708 48.1904 49.1508C46.5804 50.0808 45.2504 51.0708 44.1804 52.1208C42.1804 54.0908 41.1303 56.2807 41.0103 58.6907C40.9903 58.8707 40.9902 59.0408 40.9902 59.2208C41.0002 61.0508 41.5403 62.7608 42.6003 64.3408C43.7803 66.1108 45.6104 67.7307 48.1104 69.2007C48.1704 69.2307 48.2303 69.2708 48.3003 69.3108C53.1403 72.1108 58.9703 73.5108 65.7803 73.5308C72.5903 73.5408 78.4005 72.1607 83.2205 69.3807C83.2505 69.3607 83.2803 69.3407 83.3103 69.3307C85.8003 67.8707 87.6303 66.2608 88.8003 64.5008C89.8803 62.9208 90.4104 61.2008 90.4104 59.3608V59.3108C90.3904 55.3808 87.9504 52.0108 83.1104 49.2108V49.2208ZM78.1504 60.7108L64.6604 60.6808V57.8608H65.7205L74.8503 57.8807H80.5303L80.5503 60.7108H78.1504Z" class="pr-icon-iso-duotone-primary-stroke" stroke-linejoin="round"/>
    <path d="M128.47 43.2605L111.15 53.2605L100.27 59.5405C100.32 56.8205 99.4602 54.2305 97.7002 51.7705C95.9402 49.3105 93.4001 47.1305 90.0701 45.2005C87.8501 43.9205 85.4601 42.8605 82.8901 42.0205C80.3301 41.1705 77.6501 40.5105 74.8501 40.0405L78.23 34.2505L80.73 29.9705C81.02 29.4605 81.0202 28.9605 80.7202 28.4505C80.4302 27.9505 79.9601 27.5105 79.3201 27.1405C78.6801 26.7705 77.92 26.5005 77.05 26.3305C76.17 26.1605 75.3002 26.1605 74.4302 26.3305L66.98 27.7605L41.9001 32.5705L42.0901 32.2305L45.7002 25.8205C45.9902 25.3205 46.0301 24.8005 45.8301 24.2805C45.6201 23.7605 45.19 23.3205 44.55 22.9505L34.04 16.8805L58.4102 2.81055L128.47 43.2605Z" class="pr-icon-iso-duotone-primary-stroke" stroke-linejoin="round"/>
    <path d="M128.47 43.2607V63.2607L100.27 79.5408V59.5408L111.15 53.2607L128.47 43.2607Z" class="pr-icon-iso-duotone-primary-stroke" stroke-linejoin="round"/>
    <path d="M90.4104 59.3705V79.3204C90.4304 83.2504 88.0305 86.6004 83.2205 89.3904C78.4005 92.1704 72.5903 93.5505 65.7803 93.5405C58.9703 93.5205 53.1403 92.1204 48.3003 89.3204C43.4503 86.5204 41.0202 83.1605 40.9902 79.2305V59.2305C41.0002 61.0605 41.5403 62.7705 42.6003 64.3505C43.7803 66.1205 45.6104 67.7404 48.1104 69.2104C48.1704 69.2404 48.2303 69.2804 48.3003 69.3204C53.1403 72.1204 58.9703 73.5205 65.7803 73.5405C72.5903 73.5505 78.4005 72.1704 83.2205 69.3904C83.2505 69.3704 83.2803 69.3505 83.3103 69.3405C85.8003 67.8805 87.6303 66.2704 88.8003 64.5104C89.8803 62.9304 90.4104 61.2105 90.4104 59.3705Z" class="pr-icon-iso-duotone-primary-stroke" stroke-linejoin="round"/>
    <path d="M80.5503 60.7103H78.1504L64.6604 60.6804V59.3203L64.6504 57.8604H65.7205L74.8503 57.8803H76.1104L80.5303 57.8903L80.5503 60.7103Z" class="pr-icon-iso-duotone-primary-stroke" stroke-linejoin="round"/>
    <path d="M80.7302 29.9706L78.2302 34.2507L74.8503 40.0406V46.0106C72.7503 45.5206 70.5304 45.2106 68.1804 45.0806V33.5706L41.9004 38.5306V32.5706L66.9802 27.7606L74.4304 26.3306C75.3004 26.1606 76.1703 26.1606 77.0503 26.3306C77.9203 26.5006 78.6803 26.7706 79.3203 27.1406C79.9603 27.5106 80.4305 27.9506 80.7205 28.4506C81.0205 28.9606 81.0202 29.4606 80.7302 29.9706Z" class="pr-icon-iso-duotone-primary-stroke" stroke-linejoin="round"/>
    <path d="M68.1799 33.5704L64.8899 39.3104C60.5899 39.3704 56.3898 39.8804 52.2898 40.8304C49.6898 41.4304 47.24 42.2304 44.96 43.2204C43.9 43.6804 42.8799 44.1804 41.8999 44.7304C41.6499 44.8504 41.4199 44.9804 41.1799 45.1204C39.3799 46.1504 37.7899 47.2904 36.3999 48.5304C35.0099 49.7804 33.9099 51.1004 33.0999 52.5104L31.8999 51.8204L20.0298 44.9704L2.70996 34.9704L27.0798 20.9004L34.0398 24.9204L35.3999 25.7004L34.0398 28.0704L29.4299 36.1204C29.0899 36.6604 29.0298 37.1804 29.2698 37.6904C29.4998 38.1904 29.9699 38.6404 30.6699 39.0504C31.3099 39.4204 32.07 39.6704 32.95 39.8104C33.74 39.9404 34.5599 39.9204 35.3999 39.7604C35.4799 39.7404 35.5699 39.7304 35.6499 39.7104L38.1299 39.2404L41.8999 38.5304L68.1799 33.5704Z" class="pr-icon-iso-duotone-primary-stroke" stroke-linejoin="round"/>
    <path d="M45.7002 25.8209L42.0901 32.2309L41.9001 32.5709V38.5309L38.1301 39.2409L35.4001 37.6709V25.7009L34.04 24.9209V16.8809L44.55 22.9509C45.19 23.3209 45.6201 23.7609 45.8301 24.2809C46.0301 24.8009 45.9902 25.3209 45.7002 25.8209Z" class="pr-icon-iso-duotone-primary-stroke" stroke-linejoin="round"/>
    <path d="M35.4004 25.7002V39.7602C34.5604 39.9202 33.7404 39.9402 32.9504 39.8102C32.0704 39.6702 31.3104 39.4202 30.6704 39.0502C29.9704 38.6402 29.5003 38.1902 29.2703 37.6902C29.0303 37.1802 29.0904 36.6602 29.4304 36.1202L34.0403 28.0702L35.4004 25.7002Z" class="pr-icon-iso-duotone-primary-stroke" stroke-linejoin="round"/>
    <path d="M33.0999 52.5107V72.5107L2.70996 54.9707V34.9707L20.0298 44.9707L31.8999 51.8207L33.0999 52.5107Z" class="pr-icon-iso-duotone-primary-stroke" stroke-linejoin="round"/>
</svg>