<svg width="48" height="48" viewBox="0 0 127 96" fill="#c8e7ff" xmlns="http://www.w3.org/2000/svg" stroke-width="1px" stroke-linecap="round" stroke-linejoin="round"><path d="M75.4609 69.8076V82.2276C75.4609 82.2276 75.4109 82.1976 75.3809 82.1776L75.4609 69.8076Z" stroke="#229EFF" stroke-linejoin="round"/><path d="M68.7117 73.6277V93.6277L62.0415 89.7777C59.7115 88.4277 57.7115 86.9577 56.0315 85.3577C54.3615 83.7577 53.0315 82.0277 52.0215 80.1677V60.1677C53.0315 62.0277 54.3615 63.7577 56.0315 65.3577C57.7115 66.9577 59.7115 68.4277 62.0415 69.7777L63.2815 70.4877L68.7117 73.6277Z" stroke="#229EFF" stroke-linejoin="round"/><path d="M118.261 29.5577L108.321 23.8177L118.261 18.0777L98.2612 6.52768L88.3213 12.2677L71.6514 2.6377L49.7812 15.2677L39.8013 12.4677L21.7812 31.2377C24.5612 32.8377 27.7413 33.9277 31.3213 34.4877C33.3013 34.8077 35.2812 35.0177 37.2412 35.1377C38.8012 35.2177 40.3614 35.2477 41.9114 35.2077C41.8914 35.4777 41.8813 35.7477 41.8813 36.0177C41.8813 37.7677 42.3014 39.5377 43.1514 41.3277C44.1314 43.3877 45.9613 45.1877 48.6213 46.7277C51.2913 48.2677 54.4112 49.3277 57.9912 49.8877C61.5612 50.4577 65.0913 50.6977 68.5813 50.6077C68.5613 50.8777 68.5513 51.1477 68.5513 51.4177C68.5513 53.1677 68.9713 54.9377 69.8213 56.7177C70.8013 58.7877 72.6814 60.6177 75.4614 62.2277L94.3713 56.1777L107.971 51.8277L107.061 50.7477L103.121 46.0577L117.601 37.6977L118.261 37.3177L124.991 33.4377L118.261 29.5577ZM110.941 33.8477L98.6113 40.9677L90.0312 31.2777L85.0713 25.6877L71.6914 21.7377L58.6013 17.8677L71.6914 10.3177L111.691 33.4177L110.941 33.8477Z" stroke="#229EFF" stroke-linejoin="round"/><path d="M71.6917 10.3176V21.7376L58.6016 17.8676L71.6917 10.3176Z" stroke="#229EFF" stroke-linejoin="round"/><path d="M111.691 33.4176L110.941 33.8476L98.6113 40.9676L90.0312 31.2776L85.0713 25.6876L71.6914 21.7376V10.3176L111.691 33.4176Z" stroke="#229EFF" stroke-linejoin="round"/><path d="M124.991 33.4377V53.4377L107.971 63.2578V51.8278L107.061 50.7477L103.121 46.0577L117.601 37.6978L118.261 37.3177L124.991 33.4377Z" stroke="#229EFF" stroke-linejoin="round"/><path d="M25.3513 44.7677V64.7677C22.1313 64.1877 19.1413 63.4177 16.3613 62.4477C13.5913 61.4877 11.0314 60.3277 8.70142 58.9877L2.03125 55.1377V35.1377L8.70142 38.9877C11.0314 40.3277 13.5913 41.4877 16.3613 42.4477C18.0913 43.0477 19.8913 43.5777 21.7812 44.0277C22.9412 44.2977 24.1313 44.5477 25.3513 44.7677Z" stroke="#229EFF" stroke-linejoin="round"/><path d="M52.0215 60.1676V80.1676C48.8015 79.5876 45.7915 78.8076 42.9915 77.8276C40.1915 76.8476 37.6516 75.6976 35.3716 74.3776C33.0916 73.0676 31.1016 71.5976 29.4116 69.9776C27.7116 68.3676 26.3516 66.6276 25.3516 64.7676V44.7676C25.6616 45.3376 26.0016 45.8976 26.3816 46.4476C27.2216 47.6876 28.2316 48.8676 29.4116 49.9776C31.1016 51.5976 33.0916 53.0676 35.3716 54.3776C35.7916 54.6276 36.2316 54.8676 36.6716 55.0976C38.3216 55.9676 40.0917 56.7576 41.9817 57.4576C42.3117 57.5876 42.6515 57.7076 42.9915 57.8276C45.7915 58.8076 48.8015 59.5876 52.0215 60.1676Z" stroke="#229EFF" stroke-linejoin="round"/><path d="M75.3313 69.8076L68.7712 73.5876L68.7114 73.6276L63.2812 70.4876L62.0413 69.7776C59.7113 68.4276 57.7112 66.9576 56.0312 65.3576C54.3613 63.7576 53.0312 62.0276 52.0212 60.1676C48.8012 59.5876 45.7912 58.8076 42.9912 57.8276C42.6512 57.7076 42.3114 57.5876 41.9814 57.4576C40.0914 56.7576 38.3214 55.9676 36.6714 55.0976C36.2314 54.8676 35.7913 54.6276 35.3713 54.3776C33.0913 53.0676 31.1014 51.5976 29.4114 49.9776C28.2314 48.8676 27.2213 47.6876 26.3813 46.4476C26.0013 45.8976 25.6613 45.3376 25.3513 44.7676C24.1313 44.5476 22.9412 44.2976 21.7812 44.0276C19.8913 43.5776 18.0913 43.0476 16.3613 42.4476C13.5913 41.4876 11.0314 40.3276 8.70142 38.9876L2.03125 35.1376L8.66138 31.3076L15.3313 35.1576C17.2513 36.2676 19.4012 37.2276 21.7812 38.0276C22.2812 38.2076 22.8013 38.3676 23.3213 38.5276C26.1213 39.3676 29.1012 39.9676 32.2812 40.2976C32.5113 40.3276 32.7414 40.3476 32.9714 40.3676C33.5314 42.3576 34.6212 44.1976 36.2412 45.8876C37.7812 47.5176 39.6713 48.9876 41.8813 50.2876C41.9713 50.3476 42.0714 50.4076 42.1614 50.4576C44.5014 51.8076 47.1313 52.9476 50.0713 53.8776C53.0113 54.8176 56.2014 55.4376 59.6414 55.7676C60.2014 57.7476 61.2713 59.6076 62.8313 61.3376C64.3613 63.0376 66.2613 64.5576 68.5513 65.8876C68.5913 65.9076 68.6314 65.9376 68.6714 65.9576L75.3313 69.8076Z" stroke="#229EFF" stroke-linejoin="round"/><path d="M107.971 51.8276V71.8276L75.4609 82.2276V62.2276L94.3708 56.1776L107.971 51.8276Z" stroke="#229EFF" stroke-linejoin="round"/><path d="M41.9114 35.2078C41.8914 35.4778 41.8813 35.7478 41.8813 36.0178V50.2878C39.6713 48.9878 37.7812 47.5178 36.2412 45.8878C34.6212 44.1978 33.5314 42.3578 32.9714 40.3678C32.7414 40.3478 32.5113 40.3278 32.2812 40.2978C29.1012 39.9678 26.1213 39.3678 23.3213 38.5278C22.8013 38.3678 22.2812 38.2078 21.7812 38.0278V31.2378C24.5612 32.8378 27.7413 33.9278 31.3213 34.4878C33.3013 34.8078 35.2812 35.0178 37.2412 35.1378C38.8012 35.2178 40.3614 35.2478 41.9114 35.2078Z" stroke="#229EFF" stroke-linejoin="round"/><path d="M75.4609 62.2277V69.8077L75.3809 82.1777L75.3308 89.8077L68.7109 93.6277V73.6277L68.7708 73.5877L75.3308 69.8077L68.6709 65.9577C68.6709 65.9577 68.5908 65.9077 68.5508 65.8877V51.4177C68.5508 53.1677 68.9708 54.9377 69.8208 56.7177C70.8008 58.7877 72.6809 60.6177 75.4609 62.2277Z" stroke="#229EFF" stroke-linejoin="round"/><path d="M118.26 18.0776V29.5576L108.32 23.8176L118.26 18.0776Z" stroke="#229EFF" stroke-linejoin="round"/><path d="M68.5808 50.6076C68.5608 50.8776 68.5508 51.1476 68.5508 51.4176V65.8876C66.2608 64.5576 64.3608 63.0376 62.8308 61.3376C61.2708 59.6076 60.2009 57.7476 59.6409 55.7676C56.2009 55.4376 53.0108 54.8176 50.0708 53.8776C47.1308 52.9476 44.5009 51.8076 42.1609 50.4576C42.0709 50.4076 41.9709 50.3476 41.8809 50.2876V36.0176C41.8809 37.7676 42.3009 39.5376 43.1509 41.3276C44.1309 43.3876 45.9608 45.1876 48.6208 46.7276C51.2908 48.2676 54.4107 49.3276 57.9907 49.8876C61.5607 50.4576 65.0908 50.6976 68.5808 50.6076Z" stroke="#229EFF" stroke-linejoin="round"/><path d="M41.8809 36.0176V35.3176" stroke="#229EFF" stroke-linejoin="round"/><path d="M68.5508 51.4177V50.8877" stroke="#229EFF" stroke-linejoin="round"/></svg>