<svg width="48" height="48" viewBox="0 0 125 98" class="pr-icon-iso-duotone-secondary"
     xmlns="http://www.w3.org/2000/svg" stroke-width="1px" stroke-linecap="round" stroke-linejoin="round">
    <path d="M48.5498 51.3343L53.5198 54.3643V48.3043L48.5498 51.3343Z" class="pr-icon-iso-duotone-primary-stroke" stroke-linejoin="round"/>
    <path d="M62.4299 2.21436L2.75 38.5744L19.1599 48.5744L35.8499 58.7444L40.8599 61.7944L52.54 68.9044L62.8098 75.1644L63.8 74.5643L67.1099 72.5444L72.0898 69.5144L82.4299 63.2144L93.4099 56.5244L106.08 48.8044L122.49 38.8044L62.4299 2.21436ZM57.6899 18.3144L74.3699 28.4844L73.55 28.9844L69.3999 31.5144L58.29 24.7344L57.6899 24.3744L52.72 21.3444L57.6899 18.3144ZM47.6199 45.7144L45.99 44.7243L41.02 41.6944L40.98 41.7144L36.01 44.7444L34.3799 45.7344L34.3098 45.6944L29.3799 42.6844L34.3098 39.6844L36.01 38.6444L35.74 38.4743L34.3098 37.6044L29.3398 34.5744L34.3098 31.5444L40.71 35.4444L40.98 35.6143L47.6199 31.5744L52.6199 34.6244L47.6199 37.6744L45.99 38.6644L47.6199 39.6544L52.6599 42.7243L47.6899 45.7543L47.6199 45.7144ZM65.23 61.4944L61.8098 59.4144L53.52 54.3643L48.55 51.3344L53.52 48.3044L61.8098 53.3544L70.2 58.4644L65.23 61.4944ZM73.52 56.4444L61.8098 49.3144L56.8398 46.2844L58.8298 45.0744L61.8098 43.2543L72.3799 49.6944L78.49 53.4144L73.52 56.4444ZM92.8999 40.7744H89.5698L89.55 41.5944L89.4299 46.5444H82.5598L82.45 46.5344L82.4199 40.8544H73.1099L73.0798 36.5844L82.5598 36.5043V34.4743L82.53 30.8244L89.52 30.8444L89.55 36.5144L98.8599 36.5344L98.8799 40.7844H92.8999V40.7744Z" class="pr-icon-iso-duotone-primary-stroke" stroke-linejoin="round"/>
    <path d="M82.5601 36.5044V46.5344H82.4502L82.4202 40.8544L73.1101 40.8444L73.0801 36.5844L82.5601 36.5044Z" class="pr-icon-iso-duotone-primary-stroke" stroke-linejoin="round"/>
    <path d="M89.5503 36.5143V41.5943L89.4302 46.5443L82.5601 46.5343V36.5043L82.5503 34.4743L82.5303 30.8243L89.5203 30.8443L89.5503 36.5143Z" class="pr-icon-iso-duotone-primary-stroke" stroke-linejoin="round"/>
    <path d="M98.8796 40.7844L92.8997 40.7744H89.5696L89.5498 41.5944V36.5144L98.8596 36.5344L98.8796 40.7844Z" class="pr-icon-iso-duotone-primary-stroke" stroke-linejoin="round"/>
    <path d="M70.1995 58.4643L65.2295 61.4943L61.8093 59.4143L53.5195 54.3643V48.3043L61.8093 53.3543L70.1995 58.4643Z" class="pr-icon-iso-duotone-primary-stroke" stroke-linejoin="round"/>
    <path d="M61.8098 43.2544V49.3144L56.8398 46.2844L58.8298 45.0744L61.8098 43.2544Z" class="pr-icon-iso-duotone-primary-stroke" stroke-linejoin="round"/>
    <path d="M78.4897 53.4144L73.5198 56.4444L61.8096 49.3144V43.2544L72.3796 49.6944L78.4897 53.4144Z" class="pr-icon-iso-duotone-primary-stroke" stroke-linejoin="round"/>
    <path d="M34.3098 31.5443V37.6043L29.3398 34.5743L34.3098 31.5443Z" class="pr-icon-iso-duotone-primary-stroke" stroke-linejoin="round"/>
    <path d="M40.9797 35.6143V41.7143L36.0098 44.7443V38.6443L35.7397 38.4743L34.3096 37.6043V31.5443L40.7097 35.4443L40.9797 35.6143Z" class="pr-icon-iso-duotone-primary-stroke" stroke-linejoin="round"/>
    <path d="M36.01 38.6444V44.7444L34.3799 45.7344L34.3098 45.6944L29.3799 42.6844L34.3098 39.6844L36.01 38.6444Z" class="pr-icon-iso-duotone-primary-stroke" stroke-linejoin="round"/>
    <path d="M52.6602 42.7243L47.6902 45.7543L47.6201 45.7143L45.9902 44.7243V38.6643L47.6201 39.6543L52.6602 42.7243Z" class="pr-icon-iso-duotone-primary-stroke" stroke-linejoin="round"/>
    <path d="M47.6204 31.5743V37.6743L45.9905 38.6643V44.7243L41.0205 41.6943L40.9805 41.7143V35.6143L47.6204 31.5743Z" class="pr-icon-iso-duotone-primary-stroke" stroke-linejoin="round"/>
    <path d="M52.6201 34.6243L47.6201 37.6743V31.5743L52.6201 34.6243Z" class="pr-icon-iso-duotone-primary-stroke" stroke-linejoin="round"/>
    <path d="M57.6897 18.3143V24.3743L52.7197 21.3443L57.6897 18.3143Z" class="pr-icon-iso-duotone-primary-stroke" stroke-linejoin="round"/>
    <path d="M74.3694 28.4843L73.5496 28.9843L69.3994 31.5143L58.2896 24.7343L57.6895 24.3743V18.3143L74.3694 28.4843Z" class="pr-icon-iso-duotone-primary-stroke" stroke-linejoin="round"/>
    <path d="M122.49 38.8043V58.8043L62.8096 95.1643V75.1643L63.7998 74.5643L67.1096 72.5443L72.0896 69.5143L82.4297 63.2143L93.4097 56.5243L106.08 48.8043L122.49 38.8043Z" class="pr-icon-iso-duotone-primary-stroke" stroke-linejoin="round"/>
    <path d="M62.8098 75.1643V95.1643L2.75 58.5743V38.5743L19.1599 48.5743L35.8499 58.7443L40.8599 61.7943L52.54 68.9043L62.8098 75.1643Z" class="pr-icon-iso-duotone-primary-stroke" stroke-linejoin="round"/>
</svg>