<svg width="24" height="24" viewBox="0 0 126 95" class="pr-icon-iso-duotone-secondary" xmlns="http://www.w3.org/2000/svg" stroke-width="1px" stroke-linecap="round" stroke-linejoin="round">
    <path d="M2.71094 54.3646L2.76096 54.3945V54.3346L2.71094 54.3646ZM21.4009 45.1646L12.111 50.5245V70.5245L21.4009 65.1646L30.7509 70.5646V50.5646L21.4009 45.1646Z" class="pr-icon-iso-duotone-primary-stroke" stroke-linejoin="round"/>
    <path d="M82.0902 64.1046V84.1046L72.7402 78.7046V58.7046L82.0902 64.1046Z" class="pr-icon-iso-duotone-primary-stroke" stroke-linejoin="round"/>
    <path d="M72.7417 58.7046V78.7046L49.5117 92.1146V72.1146L55.4117 68.7046L72.7417 58.7046Z" class="pr-icon-iso-duotone-primary-stroke" stroke-linejoin="round"/>
    <path d="M114.602 45.3345V65.3345L82.0918 84.1045V64.1045L114.602 45.3345Z" class="pr-icon-iso-duotone-primary-stroke" stroke-linejoin="round"/>
    <path d="M86.4414 18.3447V18.4047L86.5014 18.3748L86.4414 18.3447Z" class="pr-icon-iso-duotone-primary-stroke" stroke-linejoin="round"/>
    <path d="M77.1509 12.9746L86.4409 18.3446V18.4045L78.4709 23.0146L30.7509 50.5646L21.4009 45.1646L12.111 50.5245L10.7409 49.7346L2.76096 45.1246L12.0609 39.7646L2.71094 34.3646L58.451 2.18457L67.801 7.58459L77.0909 2.2146L86.4409 7.61462L77.1509 12.9746Z" class="pr-icon-iso-duotone-primary-stroke" stroke-linejoin="round"/>
    <path d="M113.22 44.5347L114.6 45.3347L82.0901 64.1047L72.7401 58.7047L55.4102 68.7047L49.5102 72.1147L40.1602 66.7247L54.0402 58.7147L63.3902 53.3147L62.0102 52.5148L54.0402 47.9147L78.5302 33.7747L86.5002 29.1647L86.5602 29.1348L95.9102 34.5347L114.49 23.8047L123.84 29.2047L105.25 39.9347L113.22 44.5347Z" class="pr-icon-iso-duotone-primary-stroke" stroke-linejoin="round"/>
    <path d="M123.84 29.2046V49.2046L114.6 54.5345V45.3346L113.22 44.5345L105.25 39.9346L123.84 29.2046Z" class="pr-icon-iso-duotone-primary-stroke" stroke-linejoin="round"/>
    <path d="M49.5102 72.1146V92.1146L40.1602 86.7246V66.7246L49.5102 72.1146Z" class="pr-icon-iso-duotone-primary-stroke" stroke-linejoin="round"/>
    <path d="M63.391 53.3146L54.041 58.7146V47.9146L62.011 52.5146L63.391 53.3146Z" class="pr-icon-iso-duotone-primary-stroke" stroke-linejoin="round"/>
    <path d="M86.5 18.3745V29.1644L78.53 33.7744L54.04 47.9144V57.1145L30.75 70.5645V50.5645L78.47 23.0145L86.44 18.4044L86.5 18.3745Z" class="pr-icon-iso-duotone-primary-stroke" stroke-linejoin="round"/>
    <path d="M86.4404 7.61475V18.3447L77.1504 12.9747L86.4404 7.61475Z" class="pr-icon-iso-duotone-primary-stroke" stroke-linejoin="round"/>
    <path d="M21.4004 65.1646V45.1646" class="pr-icon-iso-duotone-primary-stroke" stroke-linejoin="round"/>
    <path d="M12.1117 50.5244V70.5244L2.76172 65.1245V45.1245L10.7417 49.7345L12.1117 50.5244Z" class="pr-icon-iso-duotone-primary-stroke" stroke-linejoin="round"/>
    <path d="M12.0609 39.7648L2.76096 45.1248V54.3347L2.71094 54.3647V34.3647L12.0609 39.7648Z" class="pr-icon-iso-duotone-primary-stroke" stroke-linejoin="round"/>
</svg>