<svg width="48" height="48" viewBox="0 0 138 103" class="pr-icon-iso-duotone-secondary"
     xmlns="http://www.w3.org/2000/svg" stroke-width="1px" stroke-linecap="round" stroke-linejoin="round">
    <path d="M37.8997 57.4998V77.4998L2.34961 56.9697V36.9697L19.6697 46.9697L37.8997 57.4998Z" class="pr-icon-iso-duotone-primary-stroke" stroke-linejoin="round"/>
    <path d="M72.7095 43.5101V51.6602L70.5195 49.2702L60.5396 50.7501V55.6101C60.2496 55.7301 59.9697 55.8601 59.6997 56.0001C59.2897 56.2001 58.9095 56.4001 58.5295 56.6201C57.7295 57.0901 56.9996 57.5801 56.3196 58.1201L48.3596 57.7802L45.7996 63.5501V70.0501C44.1096 71.0801 42.6196 72.1801 41.3496 73.3601C39.9096 74.6901 38.7597 76.0701 37.8997 77.5001V57.5001C38.7597 56.0701 39.9096 54.6901 41.3496 53.3601C42.7896 52.0301 44.4995 50.7902 46.4695 49.6602C46.8495 49.4402 47.2396 49.2202 47.6296 49.0202C50.9596 47.2402 54.6695 45.8901 58.7495 44.9801C61.7495 44.3001 64.7796 43.8602 67.8596 43.6602C69.4596 43.5402 71.0795 43.4901 72.7095 43.5101Z" class="pr-icon-iso-duotone-primary-stroke" stroke-linejoin="round"/>
    <path d="M52.8496 65.6998V70.9498L50.2896 73.1698V84.9198L45.7996 83.5498V63.5498L52.8496 65.6998Z" class="pr-icon-iso-duotone-primary-stroke" stroke-linejoin="round"/>
    <path d="M64.3696 74.9102V94.9102L57.7195 97.4601V77.4601L64.3696 74.9102Z" class="pr-icon-iso-duotone-primary-stroke" stroke-linejoin="round"/>
    <path d="M70.6697 75.9901V95.9901C69.4997 95.8801 68.4197 95.73 67.4297 95.55C66.4397 95.37 65.4196 95.1602 64.3696 94.9102V74.9102C65.4196 75.1602 66.4397 75.37 67.4297 75.55C68.4197 75.73 69.4997 75.8801 70.6697 75.9901Z" class="pr-icon-iso-duotone-primary-stroke" stroke-linejoin="round"/>
    <path d="M84.3796 78.5801V98.5801L74.3896 100.05V80.05L77.9397 79.5302L84.3796 78.5801Z" class="pr-icon-iso-duotone-primary-stroke" stroke-linejoin="round"/>
    <path d="M94.6196 56.1602V64.4102L92.0696 63.6301C91.8796 62.9501 91.6296 62.3301 91.3196 61.7601C91.0096 61.1901 90.6297 60.6001 90.1997 59.9901L92.5796 57.9301L94.6196 56.1602Z" class="pr-icon-iso-duotone-primary-stroke" stroke-linejoin="round"/>
    <path d="M96.5596 71.5499V91.5499L88.5896 91.21V71.21L94.6196 71.47L96.5596 71.5499Z" class="pr-icon-iso-duotone-primary-stroke" stroke-linejoin="round"/>
    <path d="M108.62 61.3602V81.3602C108.31 80.2602 107.839 79.1702 107.219 78.1002C106.589 77.0302 105.82 75.9802 104.89 74.9502V54.9502C105.82 55.9802 106.589 57.0302 107.219 58.1002C107.839 59.1702 108.31 60.2602 108.62 61.3602Z" class="pr-icon-iso-duotone-primary-stroke" stroke-linejoin="round"/>
    <path d="M113.469 49.99L110.91 51.47L104.89 54.95V65.04L94.6196 59.11V56.16L87.1897 51.87L84.1196 53.0499L72.7095 46.46V43.51L54.0496 32.73V15.6899L113.469 49.99Z" class="pr-icon-iso-duotone-primary-stroke" stroke-linejoin="round"/>
    <path d="M54.0496 15.6899V32.73L49.1897 29.9299L39.2896 24.21L54.0496 15.6899Z" class="pr-icon-iso-duotone-primary-stroke" stroke-linejoin="round"/>
    <path d="M135.65 45.7599L118.33 55.7599L108.62 61.3599C108.31 60.2599 107.839 59.1699 107.219 58.0999C106.589 57.0299 105.82 55.9798 104.89 54.9498L110.91 51.4698L113.469 49.9899L54.0496 15.6898L39.2896 24.2098L49.1897 29.9298L54.0496 32.7299L72.7095 43.5099C71.0795 43.4899 69.4596 43.5399 67.8596 43.6599C64.7796 43.8599 61.7495 44.2999 58.7495 44.9799C54.6695 45.8899 50.9596 47.2399 47.6296 49.0199C47.2396 49.2199 46.8495 49.4399 46.4695 49.6599C44.4995 50.7899 42.7896 52.0299 41.3496 53.3599C39.9096 54.6899 38.7597 56.0699 37.8997 57.4999L19.6697 46.9698L2.34961 36.9698L61.3896 2.87988L135.65 45.7599Z" class="pr-icon-iso-duotone-primary-stroke" stroke-linejoin="round"/>
    <path d="M135.65 45.7598V65.7598L108.62 81.3597V61.3597L118.33 55.7598L135.65 45.7598Z" class="pr-icon-iso-duotone-primary-stroke" stroke-linejoin="round"/>
    <path d="M82.9097 64.68C82.9197 66.36 81.9096 67.78 79.8796 68.95C77.8496 70.12 75.3895 70.71 72.4895 70.7C72.2595 70.7 72.0296 70.7 71.8096 70.68C70.0196 70.63 68.4095 70.33 66.9695 69.8C66.2995 69.56 65.6696 69.26 65.0796 68.92C63.0396 67.75 62.0095 66.3201 61.9995 64.6401C61.9995 64.5401 61.9995 64.44 62.0095 64.34C62.1195 62.8 63.1195 61.4701 65.0295 60.3801C65.4195 60.1601 65.8195 59.9501 66.2395 59.7801C68.0195 59.0001 70.0797 58.6201 72.4297 58.6301C72.5297 58.6301 72.6195 58.6301 72.7095 58.6401C75.4795 58.6701 77.8696 59.2601 79.8396 60.4001C81.8796 61.5801 82.9097 63.01 82.9097 64.68Z" class="pr-icon-iso-duotone-primary-stroke" stroke-linejoin="round"/>
    <path d="M57.7195 77.46V97.46L50.2896 93.1699V73.1699L57.4397 77.2999L57.7195 77.46Z" class="pr-icon-iso-duotone-primary-stroke" stroke-linejoin="round"/>
    <path d="M74.3896 80.0497V100.05L70.6697 95.9897V75.9897L73.1096 78.6498L74.3896 80.0497Z" class="pr-icon-iso-duotone-primary-stroke" stroke-linejoin="round"/>
    <path d="M99.1096 65.7798V85.7798L96.5596 91.5497V71.5497L99.1096 65.7798Z" class="pr-icon-iso-duotone-primary-stroke" stroke-linejoin="round"/>
    <path d="M94.6196 64.41L92.0696 63.63C91.8796 62.95 91.6296 62.33 91.3196 61.76C91.0096 61.19 90.6297 60.6 90.1997 59.99L92.5796 57.9299L94.6196 56.16L87.1897 51.87L84.1196 53.0499L80.5496 54.4199C79.4996 54.1699 78.4795 53.95 77.4895 53.77C76.4995 53.59 75.4195 53.45 74.2495 53.34L72.7095 51.66L70.5195 49.27L60.5396 50.75L61.1196 55.35C60.9196 55.43 60.7296 55.52 60.5396 55.61C60.2496 55.73 59.9697 55.86 59.6997 56C59.2897 56.2 58.9095 56.4 58.5295 56.62C57.7295 57.09 56.9996 57.58 56.3196 58.12L48.3596 57.78L45.7996 63.5499L52.8496 65.7C52.9296 66.01 53.0296 66.31 53.1396 66.6C53.2796 66.94 53.4296 67.2599 53.5996 67.5699C53.9096 68.1399 54.2795 68.73 54.7195 69.33L52.8496 70.95L50.2896 73.1699L57.4397 77.2999L57.7195 77.46L64.3696 74.91C65.4196 75.16 66.4397 75.3699 67.4297 75.5499C68.4197 75.7299 69.4997 75.88 70.6697 75.99L73.1096 78.65L74.3896 80.0499L77.9397 79.53L84.3796 78.58L83.7996 73.98C84.7196 73.59 85.5796 73.16 86.3796 72.7C86.7496 72.48 87.1195 72.26 87.4595 72.03C87.8595 71.76 88.2296 71.49 88.5896 71.21L94.6196 71.47L96.5596 71.5499L99.1096 65.78L94.6196 64.41ZM79.8796 68.95C77.8496 70.12 75.3895 70.71 72.4895 70.7C72.2595 70.7 72.0296 70.6999 71.8096 70.6799C70.0196 70.6299 68.4095 70.3299 66.9695 69.7999C66.2995 69.5599 65.6696 69.2599 65.0796 68.9199C63.0396 67.7499 62.0095 66.32 61.9995 64.64C61.9995 64.54 61.9995 64.44 62.0095 64.34C62.1195 62.8 63.1195 61.47 65.0295 60.38C65.4195 60.16 65.8195 59.95 66.2395 59.78C68.0195 59 70.0797 58.62 72.4297 58.63C72.5297 58.63 72.6195 58.63 72.7095 58.64C75.4795 58.67 77.8696 59.26 79.8396 60.4C81.8796 61.58 82.9097 63.0099 82.9097 64.6799C82.9197 66.3599 81.9096 67.78 79.8796 68.95Z" class="pr-icon-iso-duotone-primary-stroke" stroke-linejoin="round"/>
    <path d="M88.5896 71.21V91.21C87.9196 91.74 87.1796 92.24 86.3796 92.7C85.7496 93.06 85.0796 93.41 84.3796 93.72V78.58L83.7996 73.98C84.7196 73.59 85.5796 73.16 86.3796 72.7C86.7496 72.48 87.1195 72.26 87.4595 72.03C87.8595 71.76 88.2296 71.49 88.5896 71.21Z" class="pr-icon-iso-duotone-primary-stroke" stroke-linejoin="round"/>
    <path d="M54.7195 69.3297L52.8496 70.9497V65.6997C52.9296 66.0097 53.0296 66.3097 53.1396 66.5997C53.2796 66.9397 53.4296 67.2597 53.5996 67.5697C53.9096 68.1397 54.2795 68.7297 54.7195 69.3297Z" class="pr-icon-iso-duotone-primary-stroke" stroke-linejoin="round"/>
</svg>