<svg width="48" height="48" viewBox="0 0 106 83" fill="#c8e7ff" xmlns="http://www.w3.org/2000/svg" stroke-width="1px" stroke-linecap="round" stroke-linejoin="round"><path d="M94.7095 34.5981V34.6182C94.7095 36.0282 93.8396 37.2382 92.1096 38.2382C90.3896 39.2182 88.3194 39.7182 85.9194 39.7382H85.8096C83.3596 39.7382 81.2595 39.2281 79.4995 38.2081C77.7395 37.1981 76.8596 35.9781 76.8496 34.5681C76.8496 33.5481 77.2995 32.6381 78.1995 31.8281C78.5495 31.5081 78.9695 31.2081 79.4595 30.9281C81.2095 29.9281 83.2995 29.4281 85.7495 29.4281C86.2695 29.4281 86.7695 29.4482 87.2595 29.5082C89.0795 29.6682 90.6796 30.1581 92.0696 30.9581C93.8196 31.9681 94.6995 33.1881 94.7095 34.5981Z" stroke="#229EFF" stroke-linejoin="round"/><path d="M103.299 49.7982V69.7782C103.309 70.6682 102.719 71.4582 101.529 72.1382C100.339 72.8282 98.9792 73.1682 97.4392 73.1582C94.2192 73.1582 90.7293 73.1182 86.9893 73.0482C83.2393 72.9882 80.5294 73.0281 78.8494 73.1881C76.4694 73.4281 74.2994 73.8881 72.3394 74.5681C70.3794 75.2581 68.4992 76.1182 66.6792 77.1682C64.1692 78.6182 61.1993 79.6681 57.7693 80.3081C54.3393 80.9481 50.9092 81.0881 47.4792 80.7181C45.5892 80.5081 43.6394 80.2282 41.6394 79.8882C39.6494 79.5382 37.6592 79.1182 35.6992 78.6282V58.6282C37.6592 59.1182 39.6494 59.5382 41.6394 59.8882C43.0094 60.1182 44.3492 60.3282 45.6692 60.4982C45.7892 60.5182 45.8993 60.5282 46.0093 60.5382C46.4993 60.6082 46.9892 60.6681 47.4792 60.7181C50.9092 61.0881 54.3393 60.9481 57.7693 60.3081C61.1993 59.6681 64.1692 58.6182 66.6792 57.1682C68.4992 56.1182 70.3794 55.2581 72.3394 54.5681C73.7394 54.0881 75.2394 53.7081 76.8494 53.4481L77.0593 53.4182C77.6493 53.3282 78.2394 53.2481 78.8494 53.1881C80.5294 53.0281 83.2393 52.9882 86.9893 53.0482C89.5593 53.0982 92.0194 53.1282 94.3494 53.1482H94.7092C95.6392 53.1582 96.5492 53.1582 97.4392 53.1582C98.9792 53.1682 100.339 52.8282 101.529 52.1382C102.709 51.4682 103.299 50.6782 103.299 49.7982Z" stroke="#229EFF" stroke-linejoin="round"/><path d="M46.0198 42.2482V52.6781L39.7397 56.2982L35.6997 58.6282V71.3281L27.1797 76.2482V56.2482L42.1497 47.6082C44.5997 46.1982 45.8798 44.4982 46.0098 42.5182C46.0198 42.4082 46.0198 42.3482 46.0198 42.2482Z" stroke="#229EFF" stroke-linejoin="round"/><path d="M56.7801 12.6981C56.7801 14.1081 55.92 15.3281 54.17 16.3281C52.42 17.3381 50.3302 17.8382 47.8802 17.8382C45.4202 17.8382 43.3201 17.3181 41.5601 16.3081C39.8101 15.2981 38.93 14.0782 38.92 12.6682C38.91 11.2482 39.7801 10.0382 41.5201 9.02822C43.2701 8.02822 45.3702 7.51822 47.8202 7.52822C50.2702 7.52822 52.3702 8.03813 54.1302 9.05813C55.8902 10.0681 56.7701 11.2781 56.7801 12.6981Z" stroke="#229EFF" stroke-linejoin="round"/><path d="M64.2292 30.2982C64.2292 31.7182 63.3593 32.9281 61.6193 33.9381C59.8993 34.9181 57.8391 35.4181 55.4291 35.4381H55.3193C52.8693 35.4381 50.7692 34.9282 49.0092 33.9082C47.2592 32.8982 46.3693 31.6782 46.3693 30.2682C46.3593 29.2482 46.8091 28.3382 47.7091 27.5282C48.0591 27.2082 48.4792 26.9082 48.9692 26.6282C50.7192 25.6282 52.8192 25.1282 55.2692 25.1282C55.7892 25.1282 56.2892 25.1481 56.7792 25.2081C58.5892 25.3681 60.1893 25.8582 61.5793 26.6582C63.3393 27.6682 64.2192 28.8882 64.2292 30.2982Z" stroke="#229EFF" stroke-linejoin="round"/><path d="M87.2603 16.9982V17.0182C87.2603 18.4282 86.3902 19.6382 84.6602 20.6282C82.9102 21.6382 80.8104 22.1382 78.3604 22.1382C75.9104 22.1282 73.8103 21.6282 72.0503 20.6082C70.2903 19.5982 69.4102 18.3782 69.4102 16.9682C69.4102 15.5482 70.2703 14.3381 72.0103 13.3281C73.7603 12.3281 75.8603 11.8181 78.3103 11.8281C80.7603 11.8281 82.8604 12.3382 84.6204 13.3582C86.3704 14.3682 87.2603 15.5782 87.2603 16.9982Z" stroke="#229EFF" stroke-linejoin="round"/><path d="M103.299 49.7782V49.7982C103.299 50.6782 102.709 51.4682 101.529 52.1382C100.339 52.8282 98.9792 53.1682 97.4392 53.1582C96.5492 53.1582 95.6392 53.1582 94.7092 53.1482H94.3494C92.0194 53.1282 89.5593 53.0982 86.9893 53.0482C83.2393 52.9882 80.5294 53.0281 78.8494 53.1881C78.2394 53.2481 77.6493 53.3282 77.0593 53.4182L76.8494 53.4481C75.2394 53.7081 73.7394 54.0881 72.3394 54.5681C70.3794 55.2581 68.4992 56.1182 66.6792 57.1682C64.1692 58.6182 61.1993 59.6681 57.7693 60.3081C54.3393 60.9481 50.9092 61.0881 47.4792 60.7181C46.9892 60.6681 46.4993 60.6082 46.0093 60.5382C45.8993 60.5282 45.7892 60.5181 45.6692 60.4981C44.3492 60.3281 43.0094 60.1182 41.6394 59.8882C39.6494 59.5382 37.6592 59.1181 35.6992 58.6281L39.7393 56.2982L46.0093 52.6781L46.9592 52.1281L52.2493 49.0781C54.0593 48.0281 56.1894 47.2081 58.6394 46.6081C59.3094 46.4381 59.9792 46.2981 60.6492 46.1881C61.8292 45.9881 63.0192 45.8681 64.2292 45.8181C64.8492 45.8081 65.4694 45.8081 66.0994 45.8281L76.8494 46.0182L94.7092 46.3181L97.3992 46.3681C99.0092 46.4181 100.399 46.7681 101.559 47.4381C102.719 48.1081 103.299 48.8882 103.299 49.7782Z" stroke="#229EFF" stroke-linejoin="round"/><path d="M46.0203 42.1682V42.2482C46.0203 42.3482 46.0203 42.4082 46.0103 42.5182C45.8803 44.4982 44.6001 46.1982 42.1501 47.6082L27.1802 56.2482C25.5002 55.6782 23.8302 55.0381 22.1802 54.3281C21.5302 54.0481 20.9003 53.7581 20.2903 53.4581C19.3503 53.0081 18.4503 52.5382 17.6003 52.0482C16.1903 51.2382 14.8704 50.3582 13.6404 49.3982C12.4104 48.4482 11.3103 47.4882 10.3203 46.5182L25.2903 37.8682C26.1303 37.3882 27.0302 36.9782 27.9902 36.6582C28.1202 36.6082 28.2504 36.5582 28.3904 36.5282C30.1104 35.9782 32.0204 35.6882 34.1104 35.6382C37.5404 35.5682 40.4102 36.1982 42.7302 37.5382C44.9302 38.8082 46.0203 40.3182 46.0203 42.1682Z" stroke="#229EFF" stroke-linejoin="round"/><path d="M28.3899 24.8682C28.3499 25.8382 28.0598 26.7781 27.5198 27.6781C27.3798 27.9181 27.2098 28.1682 27.0298 28.4082C25.9898 29.7882 24.5597 30.9982 22.7397 32.0482L15.7297 36.0981L6.19971 41.5981C5.34971 40.4581 4.62978 39.3182 4.01978 38.1682C3.41978 37.0082 2.93984 35.8481 2.58984 34.6781C2.41984 34.0981 2.3198 33.4982 2.2998 32.9082V32.4082C2.3398 31.2182 2.67984 30.0281 3.33984 28.8281C4.41984 26.8681 6.20974 25.1581 8.72974 23.7081C10.5397 22.6581 12.0397 21.5681 13.2197 20.4381C14.4097 19.3081 15.2099 18.0581 15.6199 16.6881C15.8299 15.7581 15.8898 14.1982 15.7998 12.0182C15.7198 9.83819 15.6797 7.80812 15.6697 5.94812C15.6597 5.05812 16.2497 4.27813 17.4397 3.58813C18.6297 2.90813 19.9898 2.56812 21.5298 2.56812C23.0698 2.56812 24.4399 2.91815 25.6299 3.60815C26.8299 4.29815 27.4297 5.08815 27.4297 5.97815L28.3699 24.0482C28.3999 24.3282 28.3999 24.5982 28.3899 24.8682Z" stroke="#229EFF" stroke-linejoin="round"/><path d="M27.1802 56.2482V76.2482C25.5002 75.6782 23.8302 75.0381 22.1802 74.3281C20.5302 73.6181 19.0003 72.8582 17.6003 72.0482C16.1903 71.2382 14.8704 70.3582 13.6404 69.3982C12.4104 68.4482 11.3103 67.4882 10.3203 66.5182V46.5182C11.3103 47.4882 12.4104 48.4482 13.6404 49.3982C14.8704 50.3582 16.1903 51.2382 17.6003 52.0482C18.4503 52.5382 19.3503 53.0081 20.2903 53.4581C20.9003 53.7581 21.5302 54.0481 22.1802 54.3281C23.8302 55.0381 25.5002 55.6782 27.1802 56.2482Z" stroke="#229EFF" stroke-linejoin="round"/><path d="M6.19971 41.5981V61.5981C5.34971 60.4581 4.62978 59.3182 4.01978 58.1682C3.41978 57.0082 2.93984 55.8481 2.58984 54.6781C2.41984 54.0981 2.3198 53.4982 2.2998 52.9082V32.9082C2.3198 33.4982 2.41984 34.0981 2.58984 34.6781C2.93984 35.8481 3.41978 37.0082 4.01978 38.1682C4.62978 39.3182 5.34971 40.4581 6.19971 41.5981Z" stroke="#229EFF" stroke-linejoin="round"/><path d="M2.2998 53.2181V52.9082" stroke="#229EFF" stroke-linejoin="round"/><path d="M2.2998 32.4082V32.1881" stroke="#229EFF" stroke-linejoin="round"/><path d="M28.3894 24.8682V36.5282C28.2494 36.5582 28.1193 36.6082 27.9893 36.6582C27.0293 36.9782 26.1293 37.3882 25.2893 37.8682L10.3193 46.5182V59.2181L6.19922 61.5981V41.5981L15.7292 36.0981L22.7393 32.0482C24.5593 30.9982 25.9893 29.7882 27.0293 28.4082C27.2093 28.1682 27.3793 27.9181 27.5193 27.6781C28.0593 26.7781 28.3494 25.8382 28.3894 24.8682Z" stroke="#229EFF" stroke-linejoin="round"/><path d="M28.3896 24.8682V24.6981" stroke="#229EFF" stroke-linejoin="round"/><path d="M56.78 12.6981V25.2081C56.29 25.1481 55.79 25.1282 55.27 25.1282C52.82 25.1282 50.72 25.6282 48.97 26.6282C48.48 26.9082 48.06 27.2082 47.71 27.5282C46.81 28.3382 46.3601 29.2482 46.3701 30.2682V37.7582C44.5501 37.5882 42.9501 37.1081 41.5601 36.3081C39.8101 35.2981 38.9299 34.0782 38.9199 32.6682V12.6682C38.9299 14.0782 39.8101 15.2981 41.5601 16.3081C43.3201 17.3181 45.4201 17.8281 47.8801 17.8381C50.3301 17.8381 52.4199 17.3381 54.1699 16.3281C55.9199 15.3281 56.78 14.1081 56.78 12.6981Z" stroke="#229EFF" stroke-linejoin="round"/><path d="M87.2603 17.0182V29.5082C86.7703 29.4482 86.2702 29.4281 85.7502 29.4281C83.3002 29.4281 81.2102 29.9281 79.4602 30.9281C78.9702 31.2081 78.5502 31.5081 78.2002 31.8281C77.3002 32.6381 76.8503 33.5481 76.8503 34.5681V42.0581C75.0403 41.8881 73.4403 41.4082 72.0503 40.6082C70.2903 39.5982 69.4102 38.3781 69.4102 36.9681V16.9681C69.4102 18.3781 70.2903 19.5982 72.0503 20.6082C73.8103 21.6282 75.9104 22.1282 78.3604 22.1382C80.8104 22.1382 82.9102 21.6382 84.6602 20.6282C86.3902 19.6382 87.2603 18.4282 87.2603 17.0182Z" stroke="#229EFF" stroke-linejoin="round"/><path d="M94.7095 34.6182V46.3181L76.8496 46.0182V34.5681C76.8596 35.9781 77.7395 37.1981 79.4995 38.2081C81.2595 39.2281 83.3596 39.7382 85.8096 39.7382H85.9194C88.3194 39.7182 90.3896 39.2182 92.1096 38.2382C93.8396 37.2382 94.7095 36.0282 94.7095 34.6182Z" stroke="#229EFF" stroke-linejoin="round"/><path d="M64.23 30.2982V45.8181C63.02 45.8681 61.8299 45.9881 60.6499 46.1881C59.9799 46.2981 59.3101 46.4382 58.6401 46.6082C56.1901 47.2082 54.06 48.0281 52.25 49.0781L46.96 52.1282C46.56 51.5482 46.3701 50.9282 46.3701 50.2682V30.2682C46.3701 31.6782 47.26 32.8982 49.01 33.9082C50.77 34.9282 52.8701 35.4381 55.3201 35.4381H55.4299C57.8399 35.4181 59.9001 34.9181 61.6201 33.9381C63.3601 32.9281 64.23 31.7182 64.23 30.2982Z" stroke="#229EFF" stroke-linejoin="round"/><path d="M46.0195 42.1682V41.8582" stroke="#229EFF" stroke-linejoin="round"/></svg>