<svg width="48" height="48" viewBox="0 0 99 82" fill="#c8e7ff" xmlns="http://www.w3.org/2000/svg" stroke-width="1px" stroke-linecap="round" stroke-linejoin="round"><path d="M66.3896 40.0999V49.6199L62.4497 47.3398C59.5597 49.0098 56.3797 50.2699 52.8997 51.1099C49.2597 52.0099 45.2998 52.46 41.0098 52.45C40.1098 52.45 39.2196 52.4299 38.3496 52.3799V36.3899L58.5696 39.0699L66.3896 40.0999Z" stroke="#229EFF" stroke-linejoin="round"/><path d="M38.3494 36.3899V52.3799C31.1094 52.0399 24.8295 50.3299 19.5195 47.2599L20.4294 46.7299L30.4995 40.9199L38.3494 36.3899Z" stroke="#229EFF" stroke-linejoin="round"/><path d="M96.6694 22.6099V42.6099L86.6094 48.4199V28.4199L87.9094 27.6699L87.9995 27.6199L96.6694 22.6099Z" stroke="#229EFF" stroke-linejoin="round"/><path d="M96.6699 22.61L88 27.62L87.9099 27.67L86.6099 28.42L72.74 26.59L58.5698 24.71L48.51 30.52L58.5698 31.88L62.6299 32.4301L76.4399 34.29L66.3899 40.1L58.5698 39.0701L38.3499 36.39L30.5 40.92L20.4299 46.73L19.52 47.26C24.83 50.33 31.1099 52.04 38.3499 52.38C39.2199 52.43 40.11 52.4501 41.01 52.4501C45.3 52.4501 49.2599 52.01 52.8999 51.11C56.3799 50.27 59.56 49.01 62.45 47.34L66.3899 49.62L71.0698 52.3201C70.4698 52.6701 69.86 53.0001 69.24 53.3201C68.31 53.8001 67.3599 54.2601 66.3899 54.6801C62.5199 56.3901 58.3499 57.6401 53.8599 58.4401C49.8499 59.1601 45.5698 59.52 41.0498 59.51C38.4798 59.51 35.9998 59.38 33.5898 59.14C29.0598 58.7 24.8098 57.84 20.8398 56.55C17.7598 55.57 14.8499 54.34 12.1099 52.85C11.7199 52.65 11.33 52.43 10.95 52.21L6.73999 49.77L3.43994 47.87L2.33984 47.23L3.43994 46.6L23.6599 34.9301L24.3799 34.51L23.6599 34.41L3.43994 31.6801L13.5999 25.8101L23.6599 27.17L34.5498 28.64L44.6099 22.83L23.6599 20L33.72 14.2001L54.77 16.96L79.3899 2.75L88 7.71997L68.74 18.85L88 21.4401L96.6699 22.61Z" stroke="#229EFF" stroke-linejoin="round"/><path d="M71.0698 52.3201V72.3201C62.7198 77.1301 52.7198 79.53 41.0498 79.51C29.3898 79.49 19.35 77.06 10.95 72.21L2.33984 67.23V47.23L3.43994 47.87L6.73999 49.77L10.95 52.21C11.33 52.43 11.7199 52.65 12.1099 52.85C14.8499 54.34 17.7598 55.57 20.8398 56.55C24.8098 57.84 29.0598 58.7 33.5898 59.14C35.9998 59.38 38.4798 59.51 41.0498 59.51C45.5698 59.51 49.8499 59.1601 53.8599 58.4401C58.3499 57.6401 62.5199 56.3901 66.3899 54.6801C67.3599 54.2601 68.31 53.8001 69.24 53.3201C69.86 53.0001 70.4698 52.6701 71.0698 52.3201Z" stroke="#229EFF" stroke-linejoin="round"/><path d="M88.0002 7.71997V21.4401L68.7402 18.85L88.0002 7.71997Z" stroke="#229EFF" stroke-linejoin="round"/><path d="M24.3794 34.5101L23.6594 34.9302L3.43945 46.6001V31.6802L23.6594 34.4102L24.3794 34.5101Z" stroke="#229EFF" stroke-linejoin="round"/><path d="M44.6101 22.83L34.55 28.64L23.6602 27.17V20L44.6101 22.83Z" stroke="#229EFF" stroke-linejoin="round"/><path d="M76.4407 34.29V54.29L71.0706 57.39V52.3201L66.3906 49.62V40.1L76.4407 34.29Z" stroke="#229EFF" stroke-linejoin="round"/><path d="M86.6104 28.42V48.42L76.4404 47.0701V34.29L62.6304 32.4301L58.5703 31.88V24.71L72.7405 26.59L86.6104 28.42Z" stroke="#229EFF" stroke-linejoin="round"/><path d="M58.5696 24.71V31.88L48.5098 30.52L58.5696 24.71Z" stroke="#229EFF" stroke-linejoin="round"/></svg>