<svg width="24" height="24" viewBox="0 0 127 99" class="pr-icon-iso-duotone-secondary" xmlns="http://www.w3.org/2000/svg" stroke-width="1px" stroke-linecap="round" stroke-linejoin="round">
    <path d="M70.4197 58.0005V61.3605L70.4597 61.3905V58.0305L70.4197 58.0005ZM70.4197 58.0005V61.3605L70.4597 61.3905V58.0305L70.4197 58.0005ZM70.4197 58.0005V61.3605L70.4597 61.3905V58.0305L70.4197 58.0005ZM70.4197 58.0005V61.3605L70.4597 61.3905V58.0305L70.4197 58.0005ZM70.4197 58.0005V61.3605L70.4597 61.3905V58.0305L70.4197 58.0005ZM70.4197 58.0005V61.3605L70.4597 61.3905V58.0305L70.4197 58.0005ZM70.4197 58.0005V61.3605L70.4597 61.3905V58.0305L70.4197 58.0005ZM70.4197 58.0005V61.3605L70.4597 61.3905V58.0305L70.4197 58.0005ZM70.4197 58.0005V61.3605L70.4597 61.3905V58.0305L70.4197 58.0005ZM70.4197 58.0005V61.3605L70.4597 61.3905V58.0305L70.4197 58.0005ZM70.4197 58.0005V61.3605L70.4597 61.3905V58.0305L70.4197 58.0005ZM70.4197 58.0005V61.3605L70.4597 61.3905V58.0305L70.4197 58.0005ZM70.4197 58.0005V61.3605L70.4597 61.3905V58.0305L70.4197 58.0005ZM50.1997 73.5305V77.4705L50.2397 77.5005V73.5005L50.1997 73.5305Z" class="pr-icon-iso-duotone-primary-stroke" stroke-linejoin="round"/>
    <path d="M124.46 38.0703V58.0703L93.8701 75.7303V55.7303L107.14 48.0703L124.46 38.0703Z" class="pr-icon-iso-duotone-primary-stroke" stroke-linejoin="round"/>
    <path d="M93.87 55.7305V75.7305C93.42 75.3405 92.94 74.9805 92.43 74.6505C91.92 74.3305 91.35 73.9905 90.73 73.6305L89.65 73.0105V65.3105C89.64 64.4305 89.47 63.5905 89.15 62.7905C88.37 60.8105 86.64 59.0505 83.99 57.5205L77.57 53.8105L77.2 53.6005L70.46 57.4905V57.9105L70.42 57.9405V49.6905L63.64 45.7705C61.31 44.4205 58.67 43.4905 55.73 42.9805V37.3105C58.23 37.6105 60.62 38.1005 62.92 38.7705C63.12 38.8205 63.32 38.8805 63.51 38.9405C64.21 39.1505 64.89 39.3805 65.55 39.6305C67.26 40.2605 68.87 41.0105 70.38 41.8805L90.73 53.6305C91.35 53.9905 91.92 54.3305 92.43 54.6505C92.94 54.9805 93.42 55.3405 93.87 55.7305Z" class="pr-icon-iso-duotone-primary-stroke" stroke-linejoin="round"/>
    <path d="M73.8799 63.3604V70.4903C72.8499 70.7103 71.7299 70.8204 70.5399 70.8204H70.4599C69.8299 70.8104 69.2299 70.7804 68.6499 70.7104C68.1199 70.6604 67.6099 70.5804 67.1299 70.4704V67.2504L70.4199 65.3503L70.4599 65.3304L73.4099 63.6303L73.8799 63.3604Z" class="pr-icon-iso-duotone-primary-stroke" stroke-linejoin="round"/>
    <path d="M63.6798 53.5807V57.4707L55.7298 52.8907L53.5198 51.6107L49.6898 53.8207L46.7798 55.5007V59.3907L43.4098 57.4507C41.5498 56.3707 40.6098 55.0707 40.5998 53.5407C40.5898 52.6507 40.9098 51.8407 41.5298 51.1107C41.9798 50.5807 42.5898 50.0907 43.3698 49.6407C45.2198 48.5707 47.4698 48.0307 50.1198 48.0407C51.4798 48.0407 52.7398 48.1807 53.8898 48.4707C54.5398 48.6307 55.1498 48.8307 55.7298 49.0907C56.1298 49.2507 56.5198 49.4407 56.8898 49.6607L63.6798 53.5807Z" class="pr-icon-iso-duotone-primary-stroke" stroke-linejoin="round"/>
    <path d="M43.4498 65.2505V85.2505L36.6698 81.3405C32.9398 79.1805 31.0598 76.5805 31.0498 73.5205V53.5205C31.0598 54.6505 31.3198 55.7105 31.8298 56.7205C32.2098 57.4805 32.7498 58.2105 33.4298 58.9005C34.2798 59.7705 35.3598 60.5805 36.6698 61.3405L40.9498 63.8105L43.4498 65.2505Z" class="pr-icon-iso-duotone-primary-stroke" stroke-linejoin="round"/>
    <path d="M50.1997 61.3604V81.3604L43.4497 85.2504V65.2504L46.7797 63.3304L48.0997 62.5704L50.1997 61.3604Z" class="pr-icon-iso-duotone-primary-stroke" stroke-linejoin="round"/>
    <path d="M33.4299 40.0005V48.1005C31.8299 49.7105 31.0399 51.5105 31.0499 53.5205V61.1105C30.6499 61.3205 30.2299 61.5605 29.7999 61.8005C27.9999 62.8405 26.4699 63.9805 25.2099 65.2405C23.9499 66.4905 23.0099 67.8105 22.3999 69.2105V49.2105C23.0099 47.8105 23.9499 46.4905 25.2099 45.2405C25.5599 44.8905 25.9199 44.5605 26.3099 44.2405C27.3299 43.3605 28.4899 42.5505 29.7999 41.8005C30.4199 41.4505 31.0099 41.1205 31.5699 40.8305C32.1299 40.5405 32.7499 40.2605 33.4299 40.0005Z" class="pr-icon-iso-duotone-primary-stroke" stroke-linejoin="round"/>
    <path d="M89.6497 65.3101V65.4301C89.6497 67.6201 88.6597 69.5701 86.6797 71.2901C85.9497 71.9501 85.0798 72.5601 84.0698 73.1401C82.7198 73.9201 81.2697 74.5501 79.7097 75.0501C77.9097 75.6201 75.9598 76.0001 73.8798 76.1801C73.4398 76.2301 72.9997 76.2601 72.5497 76.2801C71.8997 76.3201 71.2398 76.3301 70.5698 76.3301H70.4597C69.3097 76.3201 68.1998 76.2701 67.1298 76.1601C63.2898 75.7801 59.9197 74.7601 57.0197 73.0901L50.2397 69.1701L52.0298 68.1401L56.9798 65.2801L63.6797 69.1501L63.7598 69.2001C64.7698 69.7801 65.8898 70.2001 67.1298 70.4701C67.6098 70.5801 68.1197 70.6601 68.6497 70.7101C69.2297 70.7801 69.8297 70.8101 70.4597 70.8201H70.5398C71.7298 70.8201 72.8498 70.7101 73.8798 70.4901C75.1398 70.2301 76.2798 69.8101 77.2898 69.2201C78.3398 68.6101 79.0997 67.9301 79.5497 67.1701C79.8897 66.5901 80.0598 65.9801 80.0598 65.3201C80.0498 64.5301 79.7997 63.8001 79.2997 63.1301C78.8297 62.5001 78.1498 61.9301 77.2498 61.4101L70.8297 57.7001L70.4597 57.4901L77.1998 53.6001L77.5698 53.8101L83.9897 57.5201C86.6397 59.0501 88.3697 60.8101 89.1497 62.7901C89.4697 63.5901 89.6397 64.4301 89.6497 65.3101Z" class="pr-icon-iso-duotone-primary-stroke" stroke-linejoin="round"/>
    <path d="M89.6497 65.4302V85.3102C89.6997 88.3602 87.8398 90.9602 84.0698 93.1402C80.3698 95.2802 75.8598 96.3402 70.5698 96.3302C65.2698 96.3202 60.7497 95.2402 57.0197 93.0902L50.2397 89.1702V69.1702L57.0197 73.0902C59.9197 74.7602 63.2898 75.7802 67.1298 76.1602C68.1998 76.2702 69.3097 76.3202 70.4597 76.3302H70.5698C71.2398 76.3302 71.8997 76.3202 72.5497 76.2802C72.9997 76.2602 73.4398 76.2302 73.8798 76.1802C75.9598 76.0002 77.9097 75.6202 79.7097 75.0502C81.2697 74.5502 82.7198 73.9202 84.0698 73.1402C85.0798 72.5602 85.9497 71.9502 86.6797 71.2902C88.6597 69.5702 89.6497 67.6202 89.6497 65.4302Z" class="pr-icon-iso-duotone-primary-stroke" stroke-linejoin="round"/>
    <path d="M73.8798 63.3604L73.4098 63.6303L70.4598 65.3304L70.4198 65.3503L67.1298 67.2504L63.6798 65.2604L46.7798 55.5004L49.6898 53.8204L53.5198 51.6104L55.7298 52.8904L63.6798 57.4704L70.4198 61.3604L70.4598 61.3904L73.8798 63.3604Z" class="pr-icon-iso-duotone-primary-stroke" stroke-linejoin="round"/>
    <path d="M63.4 2.82031L2.72998 37.8503L20.05 47.8503L22.4 49.2103C23.01 47.8103 23.95 46.4903 25.21 45.2403C25.56 44.8903 25.92 44.5603 26.31 44.2403C27.33 43.3603 28.49 42.5503 29.8 41.8003C30.42 41.4503 31.01 41.1203 31.57 40.8303C32.13 40.5403 32.75 40.2603 33.43 40.0003L29.78 37.9003L43.26 30.1103L47.02 32.2803L55.73 37.3103C58.23 37.6103 60.62 38.1003 62.92 38.7703C63.12 38.8203 63.32 38.8803 63.51 38.9403C64.21 39.1503 64.89 39.3803 65.55 39.6303C67.26 40.2603 68.87 41.0103 70.38 41.8803L90.73 53.6303C91.35 53.9903 91.92 54.3303 92.43 54.6503C92.94 54.9803 93.42 55.3403 93.87 55.7303L107.14 48.0703L124.46 38.0703L63.4 2.82031ZM63.57 34.0503L53.76 28.3903L50 26.2203L63.49 18.4403L77.06 26.2703L73.22 28.4903L63.57 34.0503ZM93.57 40.2403L83.93 45.8103L70.36 37.9703L80 32.4003L83.84 30.1903L97.41 38.0203L93.57 40.2403Z" class="pr-icon-iso-duotone-primary-stroke" stroke-linejoin="round"/>
    <path d="M55.7298 37.3104V42.9203L55.6398 42.9704C53.8998 42.6704 52.0498 42.5204 50.0898 42.5204C44.7998 42.5104 40.2898 43.5804 36.5898 45.7204C35.3098 46.4604 34.2498 47.2503 33.4298 48.1003V40.0004L29.7798 37.9004L43.2598 30.1104L47.0198 32.2803L55.7298 37.3104Z" class="pr-icon-iso-duotone-primary-stroke" stroke-linejoin="round"/>
    <path d="M63.57 34.0504L53.76 28.3904L50 26.2204L63.49 18.4404L63.51 22.8904L63.57 34.0504Z" class="pr-icon-iso-duotone-primary-stroke" stroke-linejoin="round"/>
    <path d="M77.0598 26.2704L73.2198 28.4904L63.5698 34.0504L63.5098 22.8904L63.4897 18.4404L77.0598 26.2704Z" class="pr-icon-iso-duotone-primary-stroke" stroke-linejoin="round"/>
    <path d="M83.9299 45.8104L70.3599 37.9704L79.9999 32.4004L83.8399 30.1904L83.8699 34.6304L83.9299 45.8104Z" class="pr-icon-iso-duotone-primary-stroke" stroke-linejoin="round"/>
    <path d="M97.4099 38.0204L93.5699 40.2404L83.9298 45.8104L83.8698 34.6304L83.8398 30.1904L97.4099 38.0204Z" class="pr-icon-iso-duotone-primary-stroke" stroke-linejoin="round"/>
    <path d="M70.4199 58.0004V57.9404" class="pr-icon-iso-duotone-primary-stroke" stroke-linejoin="round"/>
    <path d="M70.4202 57.9404L70.3602 57.9704L70.4202 58.0004V61.3604L63.6802 57.4704V53.5804L70.4202 49.6904V57.9404Z" class="pr-icon-iso-duotone-primary-stroke" stroke-linejoin="round"/>
    <path d="M67.1298 67.2505V70.4705C65.8898 70.2005 64.7698 69.7805 63.7598 69.2005L63.6798 69.1505L56.9798 65.2805L52.0298 68.1405L50.2398 69.1705V73.5005L50.1998 73.5305V61.3605L46.7798 59.3905V55.5005L63.6798 65.2605L67.1298 67.2505Z" class="pr-icon-iso-duotone-primary-stroke" stroke-linejoin="round"/>
    <path d="M70.4199 49.6901L63.6799 53.5801L56.8899 49.6601C56.5199 49.4401 56.1299 49.2501 55.7299 49.0901C55.1499 48.8301 54.5399 48.6301 53.8899 48.4701C52.7399 48.1801 51.4799 48.0401 50.1199 48.0401C47.4699 48.0301 45.2199 48.5701 43.3699 49.6401C42.5899 50.0901 41.9799 50.5801 41.5299 51.1101C40.9099 51.8401 40.5899 52.6501 40.5999 53.5401C40.6099 55.0701 41.5499 56.3701 43.4099 57.4501L46.7799 59.3901L50.1999 61.3601L48.0999 62.5701L46.7799 63.3301L43.4499 65.2501L40.9499 63.8101L36.6699 61.3401C35.3599 60.5801 34.2799 59.7701 33.4299 58.9001C32.7499 58.2101 32.2099 57.4801 31.8299 56.7201C31.3199 55.7101 31.0599 54.6501 31.0499 53.5201C31.0399 51.5101 31.8299 49.7101 33.4299 48.1001C34.2499 47.2501 35.3099 46.4601 36.5899 45.7201C40.2899 43.5801 44.7999 42.5101 50.0899 42.5201C52.0499 42.5201 53.8999 42.6701 55.6399 42.9701C55.6699 42.9801 55.6999 42.9801 55.7299 42.9801C58.6699 43.4901 61.3099 44.4201 63.6399 45.7701L70.4199 49.6901Z" class="pr-icon-iso-duotone-primary-stroke" stroke-linejoin="round"/>
    <path d="M80.06 65.3202C80.06 65.9802 79.89 66.5902 79.55 67.1702C79.1 67.9302 78.34 68.6102 77.29 69.2202C76.28 69.8102 75.14 70.2302 73.88 70.4902V63.3602L70.46 61.3902V57.4902L70.83 57.7002L77.25 61.4102C78.15 61.9302 78.83 62.5002 79.3 63.1302C79.8 63.8002 80.05 64.5302 80.06 65.3202Z" class="pr-icon-iso-duotone-primary-stroke" stroke-linejoin="round"/>
    <path d="M22.4 49.2101V69.2101L2.72998 57.8501V37.8501L20.05 47.8501L22.4 49.2101Z" class="pr-icon-iso-duotone-primary-stroke" stroke-linejoin="round"/>
</svg>