<svg width="24" height="24" viewBox="0 0 107 96" class="pr-icon-iso-duotone-secondary" xmlns="http://www.w3.org/2000/svg" stroke-width="1px" stroke-linecap="round" stroke-linejoin="round">
    <path d="M60.5114 42.2681V55.298C60.5114 55.298 60.4813 55.298 60.4713 55.308C58.3113 55.748 55.9914 55.958 53.5114 55.958C51.0314 55.958 48.5713 55.7181 46.3613 55.2381V42.248L60.5114 42.2681Z" class="pr-icon-iso-duotone-primary-stroke" stroke-linejoin="round"/>
    <path d="M83.9009 44.7479V59.8379C83.6509 59.9979 83.401 60.1579 83.141 60.3179C82.831 60.5079 82.5209 60.6979 82.2009 60.8779C79.5609 62.3979 76.741 63.6679 73.761 64.6779C67.731 66.7379 61.0109 67.7579 53.5809 67.7479C46.0609 67.7379 39.241 66.6679 33.141 64.5379C30.231 63.5279 27.471 62.2679 24.881 60.7679C24.501 60.5479 24.121 60.3279 23.761 60.0979C23.501 59.9379 23.251 59.7879 23.001 59.6179V44.6379C23.051 45.8779 23.311 47.0779 23.771 48.2279C24.611 50.3779 26.1609 52.3679 28.4009 54.1879C29.4509 55.0479 30.661 55.8679 32.021 56.6479C33.211 57.3379 34.4409 57.9479 35.7209 58.4979C38.9709 59.8979 42.511 60.8579 46.361 61.3779C48.651 61.6879 51.0409 61.8479 53.5409 61.8579C55.9709 61.8579 58.291 61.7179 60.511 61.4279C64.371 60.9379 67.9209 59.9979 71.1709 58.6279C72.5009 58.0679 73.781 57.4379 75.011 56.7279C76.311 55.9779 77.471 55.1979 78.481 54.3579C80.731 52.5579 82.291 50.5779 83.131 48.4379C83.601 47.2579 83.8609 46.0279 83.9009 44.7479Z" class="pr-icon-iso-duotone-primary-stroke" stroke-linejoin="round"/>
    <path d="M60.451 30.628L60.5111 42.268L46.3611 42.248L46.301 30.358L46.2711 24.558L28.291 29.748L53.2211 2.90796L78.451 29.8479L60.421 24.588L60.451 30.628Z" class="pr-icon-iso-duotone-primary-stroke" stroke-linejoin="round"/>
    <path d="M104.141 44.3678V44.4578C104.141 47.8378 103.121 51.1678 101.061 54.4478C100.881 54.7478 100.681 55.0478 100.481 55.3478C98.851 57.7478 96.6609 59.9778 93.9209 62.0378C92.5509 63.0778 91.041 64.0778 89.391 65.0278C87.451 66.1478 85.4209 67.1478 83.2809 68.0478C79.9709 69.4478 76.421 70.5678 72.631 71.4278C71.191 71.7578 69.7409 72.0478 68.2909 72.2978C63.4609 73.1378 58.571 73.5578 53.611 73.5478C48.551 73.5278 43.551 73.0878 38.621 72.1978C37.261 71.9578 35.9109 71.6778 34.5609 71.3678C30.6709 70.4678 27.031 69.2878 23.631 67.8378C21.581 66.9578 19.611 65.9778 17.741 64.8978C16.001 63.8878 14.411 62.8478 12.981 61.7578C10.311 59.7178 8.16088 57.5278 6.53088 55.1778C6.28088 54.8178 6.05093 54.4678 5.83093 54.1078C3.80093 50.8478 2.78099 47.5378 2.76099 44.1878C2.74099 40.4578 3.95089 36.7978 6.41089 33.2078C8.87089 29.6078 12.571 26.3778 17.511 23.5278L19.121 22.5978C19.651 22.2878 20.2509 22.0178 20.9109 21.7778L25.771 27.0578L24.7009 27.6778C16.7209 32.2778 12.7509 37.7878 12.7909 44.2078C12.7909 44.9978 12.861 45.7678 12.981 46.5178C13.421 49.2378 14.631 51.7778 16.611 54.1478C18.231 56.0878 20.361 57.9178 23.001 59.6178C23.251 59.7878 23.501 59.9378 23.761 60.0978C24.121 60.3278 24.501 60.5478 24.881 60.7678C27.471 62.2678 30.231 63.5278 33.141 64.5378C39.241 66.6678 46.0609 67.7378 53.5809 67.7478C61.0109 67.7578 67.731 66.7378 73.761 64.6778C76.741 63.6678 79.5609 62.3978 82.2009 60.8778C82.5209 60.6978 82.831 60.5078 83.141 60.3178C83.401 60.1578 83.6509 59.9978 83.9009 59.8378C86.5409 58.1478 88.6709 56.3378 90.2809 54.4078C92.2609 52.0478 93.4809 49.5078 93.9109 46.7978C94.0509 45.9978 94.111 45.1778 94.111 44.3478C94.081 37.9378 90.041 32.4178 82.021 27.7778L80.9409 27.1578L85.751 21.8978C86.411 22.1378 87.0109 22.4078 87.5409 22.7278L89.1609 23.6578C94.1309 26.5278 97.871 29.7678 100.361 33.3778C102.861 36.9778 104.121 40.6478 104.141 44.3678Z" class="pr-icon-iso-duotone-primary-stroke" stroke-linejoin="round"/>
    <path d="M104.141 44.458V64.368C104.161 68.088 102.941 71.748 100.481 75.348C98.0307 78.948 94.3307 82.168 89.3907 85.028C84.4507 87.878 78.8607 90.018 72.6307 91.428C66.4007 92.848 60.0607 93.558 53.6107 93.548C47.1607 93.528 40.8107 92.808 34.5607 91.368C28.3207 89.918 22.7107 87.768 17.7407 84.898C12.7607 82.028 9.03064 78.788 6.53064 75.178C4.04064 71.568 2.78074 67.908 2.76074 64.188V44.188C2.78074 47.538 3.80069 50.848 5.83069 54.108C6.05069 54.468 6.28064 54.818 6.53064 55.178C8.16064 57.528 10.3107 59.718 12.9807 61.758C14.4107 62.848 16.0007 63.888 17.7407 64.898C19.6107 65.978 21.5807 66.958 23.6307 67.838C27.0307 69.288 30.6707 70.468 34.5607 71.368C35.9107 71.678 37.2607 71.958 38.6207 72.198C43.5507 73.088 48.5507 73.528 53.6107 73.548C58.5707 73.558 63.4606 73.138 68.2906 72.298C69.7406 72.048 71.1907 71.758 72.6307 71.428C76.4207 70.568 79.9706 69.448 83.2806 68.048C85.4206 67.148 87.4507 66.148 89.3907 65.028C91.0407 64.078 92.5507 63.078 93.9207 62.038C96.6607 59.978 98.8507 57.748 100.481 55.348C100.681 55.048 100.881 54.748 101.061 54.448C103.121 51.168 104.141 47.838 104.141 44.458Z" class="pr-icon-iso-duotone-primary-stroke" stroke-linejoin="round"/>
    <path d="M25.7714 36.7779C23.9414 39.0079 23.0114 41.4279 22.9914 44.0379C22.9914 44.2379 22.9914 44.4379 23.0014 44.6379V48.7179C20.3514 50.4079 18.2314 52.2179 16.6114 54.1479C14.6314 51.7779 13.4214 49.2379 12.9814 46.5179C12.8614 45.7679 12.7913 44.9979 12.7913 44.2079C12.7513 37.7879 16.7213 32.2779 24.7013 27.6779L25.7714 27.0579V36.7779Z" class="pr-icon-iso-duotone-primary-stroke" stroke-linejoin="round"/>
    <path d="M46.2711 24.5579V44.5579L36.1311 47.4879V38.0879L30.811 32.4479C29.891 33.0379 29.051 33.6479 28.291 34.2779V29.7479L46.2711 24.5579Z" class="pr-icon-iso-duotone-primary-stroke" stroke-linejoin="round"/>
    <path d="M78.4509 29.8479V34.3279C77.6909 33.7079 76.8609 33.1079 75.9509 32.5279L70.7009 38.1579V47.5879L60.511 44.6179V42.2679L60.4509 30.6279L60.4209 24.5879L78.4509 29.8479Z" class="pr-icon-iso-duotone-primary-stroke" stroke-linejoin="round"/>
    <path d="M94.1115 44.3479C94.1115 45.1779 94.0514 45.998 93.9114 46.798C93.4814 49.508 92.2614 52.048 90.2814 54.408C88.6614 52.468 86.5414 50.6379 83.9014 48.9279V44.748C83.9114 44.478 83.9115 44.1979 83.8915 43.9279C83.8115 41.3479 82.8214 38.958 80.9414 36.748V27.158L82.0215 27.778C90.0415 32.418 94.0815 37.9379 94.1115 44.3479Z" class="pr-icon-iso-duotone-primary-stroke" stroke-linejoin="round"/>
    <path d="M36.1311 38.0879V50.3279C35.3311 49.6079 34.7011 48.8479 34.2211 48.0379C33.7511 47.2479 33.4311 46.4279 33.2611 45.5579C33.1911 45.2079 33.1511 44.8679 33.1411 44.5279C33.0111 42.2479 34.0111 40.0979 36.1311 38.0879Z" class="pr-icon-iso-duotone-primary-stroke" stroke-linejoin="round"/>
    <path d="M73.7512 44.828C73.7412 45.088 73.7011 45.358 73.6511 45.628C73.4811 46.508 73.1612 47.358 72.6812 48.168C72.1912 48.998 71.5312 49.788 70.7012 50.528V38.158C72.9112 40.238 73.9412 42.458 73.7512 44.828Z" class="pr-icon-iso-duotone-primary-stroke" stroke-linejoin="round"/>
    <path d="M83.9011 44.748C83.8611 46.028 83.6012 47.258 83.1312 48.438C82.2912 50.578 80.7312 52.558 78.4812 54.358C77.4712 55.198 76.3112 55.978 75.0112 56.728C73.7812 57.438 72.5011 58.068 71.1711 58.628C67.9211 59.998 64.3712 60.938 60.5112 61.428C58.2912 61.718 55.9711 61.858 53.5411 61.858C51.0411 61.858 48.6512 61.688 46.3612 61.378C42.5112 60.858 38.9712 59.898 35.7212 58.498C34.4412 57.948 33.2112 57.338 32.0212 56.648C30.6612 55.868 29.4511 55.048 28.4011 54.188C26.1611 52.368 24.6112 50.378 23.7712 48.228C23.3112 47.078 23.0512 45.878 23.0012 44.638C22.9912 44.438 22.9912 44.238 22.9912 44.038C23.0112 41.428 23.9412 39.008 25.7712 36.778C26.4712 35.908 27.3111 35.078 28.2911 34.278C29.0511 33.648 29.8912 33.038 30.8112 32.448L36.1312 38.088C34.0112 40.098 33.0112 42.248 33.1412 44.528C33.1512 44.868 33.1912 45.208 33.2612 45.558C33.4312 46.428 33.7512 47.248 34.2212 48.038C34.7012 48.848 35.3312 49.608 36.1312 50.328C36.9612 51.108 37.9811 51.838 39.1611 52.528C41.3011 53.758 43.6912 54.658 46.3212 55.228C46.3312 55.228 46.3412 55.228 46.3612 55.228C48.5712 55.708 50.9512 55.948 53.5112 55.948C56.0712 55.948 58.3112 55.738 60.4712 55.298C60.4812 55.288 60.5012 55.288 60.5112 55.288C63.2112 54.728 65.6512 53.828 67.8212 52.568C68.9412 51.928 69.9012 51.238 70.7012 50.518C71.5312 49.778 72.1912 48.988 72.6812 48.158C73.1612 47.348 73.4811 46.498 73.6511 45.618C73.7011 45.348 73.7412 45.078 73.7512 44.818C73.9412 42.448 72.9112 40.228 70.7012 38.148L75.9512 32.518C76.8612 33.098 77.6912 33.698 78.4512 34.318C79.4112 35.098 80.2412 35.908 80.9412 36.738C82.8212 38.948 83.8112 41.338 83.8912 43.918C83.9112 44.188 83.9111 44.468 83.9011 44.738V44.748Z" class="pr-icon-iso-duotone-primary-stroke" stroke-linejoin="round"/>
    <path d="M46.3615 42.2479V55.2379C46.3615 55.2379 46.3314 55.2379 46.3214 55.2379L46.2715 44.5679V24.5679L46.3014 30.3679L46.3615 42.2579V42.2479Z" class="pr-icon-iso-duotone-primary-stroke" stroke-linejoin="round"/>
</svg>