<svg width="48" height="48" viewBox="0 0 103 82" class="pr-icon-iso-duotone-secondary"
     xmlns="http://www.w3.org/2000/svg" stroke-width="1px" stroke-linecap="round" stroke-linejoin="round">
    <path d="M68.1404 59.2212V79.2212L2.03027 41.0512V21.0512L68.1404 59.2212Z" class="pr-icon-iso-duotone-primary-stroke" stroke-linejoin="round"/>
    <path d="M85.2607 47.4312V67.4312L77.5308 62.9712V53.8012L35.7109 29.6512L22.4609 22.0012V11.1712L51.3708 27.8612L85.2607 47.4312Z" class="pr-icon-iso-duotone-primary-stroke" stroke-linejoin="round"/>
    <path d="M77.5303 53.8012L69.5903 58.3812L68.1404 59.2212L2.03027 21.0512L11.4204 15.6312L22.4604 22.0012L35.7104 29.6512L77.5303 53.8012Z" class="pr-icon-iso-duotone-primary-stroke" stroke-linejoin="round"/>
    <path d="M100.791 2.21118L93.6409 23.0312L85.2607 47.4312L51.3708 27.8612L22.4609 11.1712L100.791 2.21118Z" class="pr-icon-iso-duotone-primary-stroke" stroke-linejoin="round"/>
    <path d="M100.79 2.21118V22.2112L85.2598 67.4312V47.4312L93.6399 23.0312L100.79 2.21118Z" class="pr-icon-iso-duotone-primary-stroke" stroke-linejoin="round"/>
    <path d="M77.5305 53.8012V73.8012L68.1406 79.2212V59.2212L69.5906 58.3812L77.5305 53.8012Z" class="pr-icon-iso-duotone-primary-stroke" stroke-linejoin="round"/>
</svg>