<svg width="24" height="24" viewBox="0 0 113 84" class="pr-icon-iso-duotone-secondary" xmlns="http://www.w3.org/2000/svg" stroke-width="1px" stroke-linecap="round" stroke-linejoin="round">
    <path d="M86.9702 58.3732V78.3732L75.1201 71.5332V51.5332L85.2002 57.3531L86.9702 58.3732Z" class="pr-icon-iso-duotone-primary-stroke" stroke-linejoin="round"/>
    <path d="M61.7102 23.0234V31.3334L61.1201 30.9934L53.1101 34.6735V42.9734L45.2002 38.4034L21.3601 49.5535V61.9834L14.1201 65.3834V45.3834L19.3201 42.9434L61.7102 23.0234Z" class="pr-icon-iso-duotone-primary-stroke" stroke-linejoin="round"/>
    <path d="M110.39 28.2831V29.8031C110.21 32.8931 109.04 35.863 106.89 38.713C106.09 39.753 105.17 40.7831 104.11 41.7931L86.9705 58.373L85.2004 57.353L75.1204 51.5331L68.5903 55.3031L61.4004 59.453L57.1404 61.9131L42.6704 53.5531L35.4705 57.703L33.2305 56.4031L21.3604 49.5531L45.2004 38.4031L53.1104 42.973L57.0205 45.223L57.0505 45.243L57.3303 45.083L61.7104 42.5531L64.2405 41.093L61.7104 39.633L53.1104 34.6731L61.1204 30.993L61.7104 31.333L78.6704 41.123L85.8604 36.973L61.7104 23.0231L19.3203 42.943L14.1204 45.383L2.90039 38.9031L18.3704 29.973C18.0504 26.193 19.0205 22.5431 21.2805 19.0431C23.5505 15.5431 26.9904 12.4631 31.6104 9.79308C40.6004 4.60308 51.4005 2.02308 64.0305 2.04308C76.6605 2.06308 87.4905 4.69308 96.5405 9.91308C104.081 14.2631 108.56 19.3931 109.97 25.2931C110.21 26.3031 110.35 27.3031 110.39 28.2831Z" class="pr-icon-iso-duotone-primary-stroke" stroke-linejoin="round"/>
    <path d="M110.391 29.8027V49.2827C110.311 53.7027 108.211 57.8627 104.111 61.7927L86.9707 78.3727V58.3727L104.111 41.7927C105.171 40.7827 106.091 39.7526 106.891 38.7126C109.041 35.8626 110.211 32.8927 110.391 29.8027Z" class="pr-icon-iso-duotone-primary-stroke" stroke-linejoin="round"/>
    <path d="M75.1206 51.5332V71.5332L57.1406 81.9132V61.9132L61.4006 59.4531L68.5906 55.3032L75.1206 51.5332Z" class="pr-icon-iso-duotone-primary-stroke" stroke-linejoin="round"/>
    <path d="M57.1399 61.9127V81.9127L42.6699 73.5527V53.5527L57.1399 61.9127Z" class="pr-icon-iso-duotone-primary-stroke" stroke-linejoin="round"/>
    <path d="M42.6707 53.5527V73.5527L35.4707 77.7026V57.7026L42.6707 53.5527Z" class="pr-icon-iso-duotone-primary-stroke" stroke-linejoin="round"/>
    <path d="M35.4705 57.7026V77.7026L21.3604 69.5527V49.5527L33.2305 56.4027L35.4705 57.7026Z" class="pr-icon-iso-duotone-primary-stroke" stroke-linejoin="round"/>
    <path d="M64.2405 41.0928L61.7104 42.5529L57.3303 45.0828L57.0205 45.2228L53.1104 42.9728V34.6729L61.7104 39.6328L64.2405 41.0928Z" class="pr-icon-iso-duotone-primary-stroke" stroke-linejoin="round"/>
    <path d="M85.8608 36.9734L78.6709 41.1234L61.7109 31.3334V23.0234L85.8608 36.9734Z" class="pr-icon-iso-duotone-primary-stroke" stroke-linejoin="round"/>
    <path d="M14.1204 45.3833V65.3833L2.90039 58.9033V38.9033L14.1204 45.3833Z" class="pr-icon-iso-duotone-primary-stroke" stroke-linejoin="round"/>
</svg>