<svg width="48" height="48" viewBox="0 0 110 101" class="pr-icon-iso-duotone-secondary"
     xmlns="http://www.w3.org/2000/svg" stroke-width="1px" stroke-linecap="round" stroke-linejoin="round">
    <path d="M69.0601 56.533V70.9431C64.9401 71.7831 60.5401 72.213 55.8701 72.243V56.483C55.8801 57.523 56.5301 58.423 57.8401 59.173C59.1401 59.923 60.6902 60.303 62.4902 60.303C64.2802 60.313 65.8301 59.9331 67.1201 59.1931C67.4801 58.9931 67.78 58.773 68.04 58.543C68.72 57.943 69.0601 57.273 69.0601 56.533Z" class="pr-icon-iso-duotone-primary-stroke" stroke-linejoin="round"/>
    <path d="M67.7102 30.873C67.5402 31.873 67.4502 32.863 67.4402 33.843V50.9431C60.7402 52.5331 53.8402 53.273 46.7002 53.203V43.603C46.6902 42.563 46.0402 41.673 44.7402 40.913C43.4302 40.163 41.8801 39.783 40.0901 39.783C38.3001 39.783 36.7402 40.153 35.4502 40.903C34.1502 41.643 33.5103 42.543 33.5103 43.573V52.063C30.8803 51.623 28.2802 51.063 25.7302 50.373L25.1802 50.6931L25.4001 42.723L25.7302 30.373C26.7502 30.643 27.77 30.9031 28.8 31.1331C29.5 31.2931 30.2102 31.443 30.9202 31.583C36.0102 32.593 41.2501 33.133 46.6401 33.203C53.8901 33.283 60.9102 32.513 67.7102 30.873Z" class="pr-icon-iso-duotone-primary-stroke" stroke-linejoin="round"/>
    <path d="M91.8303 59.553C91.0303 60.593 90.0303 61.563 88.8303 62.473C87.6303 63.383 86.2803 64.263 84.8003 65.123C81.7003 66.913 78.3603 68.363 74.8003 69.483C73.0703 67.793 71.6305 66.003 70.4805 64.123C69.9305 63.223 69.4603 62.323 69.0603 61.413V56.513C69.0603 55.573 68.5204 54.753 67.4404 54.043V33.963C67.4404 37.423 68.4605 40.813 70.4805 44.123C73.1005 48.423 77.2404 52.203 82.8904 55.463C84.3204 56.283 85.7705 57.0331 87.2205 57.6931C88.6805 58.3631 90.2203 58.983 91.8303 59.553Z" class="pr-icon-iso-duotone-primary-stroke" stroke-linejoin="round"/>
    <path d="M46.7002 43.603V43.623C46.7002 44.643 46.0503 45.543 44.7603 46.283C43.4703 47.023 41.9201 47.4029 40.1301 47.3929C38.3301 47.3929 36.7802 47.0129 35.4802 46.2629C34.1702 45.5129 33.5203 44.6129 33.5103 43.5729C33.5103 42.5429 34.1502 41.643 35.4502 40.903C36.7402 40.153 38.2901 39.783 40.0901 39.783C41.8901 39.783 43.4302 40.163 44.7402 40.913C46.0402 41.673 46.6902 42.563 46.7002 43.603Z" class="pr-icon-iso-duotone-primary-stroke" stroke-linejoin="round"/>
    <path d="M69.0601 56.5131V56.5331C69.0601 57.2731 68.72 57.9431 68.04 58.5431C67.78 58.7731 67.4801 58.9931 67.1201 59.1931C65.8301 59.9331 64.2802 60.3131 62.4902 60.3031C60.6902 60.3031 59.1401 59.9231 57.8401 59.1731C56.5301 58.4231 55.8801 57.5231 55.8701 56.4831C55.8701 55.4531 56.5101 54.5531 57.8101 53.8131C59.1001 53.0631 60.6502 52.6931 62.4502 52.6931C64.2502 52.6931 65.7901 53.0731 67.1001 53.8231C67.2201 53.8931 67.3302 53.9631 67.4402 54.0431C68.5202 54.7531 69.0601 55.5731 69.0601 56.5131Z" class="pr-icon-iso-duotone-primary-stroke" stroke-linejoin="round"/>
    <path d="M25.7301 30.373L25.4001 42.723L25.1801 50.6931C21.4301 52.8531 18.5302 55.213 16.4902 57.773C14.4602 55.223 13.2701 52.483 12.9301 49.553C12.8601 48.983 12.82 48.413 12.82 47.833C12.79 41.183 16.9101 35.4631 25.1801 30.6931L25.7301 30.373Z" class="pr-icon-iso-duotone-primary-stroke" stroke-linejoin="round"/>
    <path d="M107.56 48.093V68.003C107.58 71.863 106.31 75.6529 103.77 79.3929C101.22 83.1229 97.38 86.463 92.26 89.423C87.13 92.383 81.3399 94.593 74.8799 96.063C68.4199 97.543 61.8399 98.263 55.1499 98.253C48.4699 98.243 41.8799 97.493 35.4099 95.993C28.9299 94.503 23.11 92.263 17.96 89.283C12.8 86.313 8.92984 82.953 6.33984 79.213C3.74984 75.473 2.43992 71.673 2.41992 67.813V47.813C2.43992 51.163 3.41988 54.463 5.37988 57.723C5.66988 58.223 5.98984 58.713 6.33984 59.213C8.00984 61.613 10.1999 63.863 12.9299 65.943C14.4399 67.113 16.12 68.223 17.96 69.283C23.11 72.263 28.9299 74.503 35.4099 75.993C41.8799 77.493 48.4699 78.243 55.1499 78.253C55.6399 78.253 56.1299 78.253 56.6199 78.233C60.7799 78.183 64.89 77.833 68.96 77.193C70.95 76.893 72.9199 76.513 74.8799 76.063C77.0099 75.573 79.0798 75.013 81.0598 74.353C85.0898 73.053 88.82 71.403 92.26 69.423C97.38 66.463 101.22 63.1229 103.77 59.3929C104.06 58.9629 104.34 58.533 104.6 58.103C106.57 54.813 107.56 51.483 107.56 48.093Z" class="pr-icon-iso-duotone-primary-stroke" stroke-linejoin="round"/>
    <path d="M46.7002 43.623V63.603C46.7102 64.633 46.0603 65.533 44.7603 66.283C43.4703 67.023 41.9201 67.403 40.1301 67.393C38.3301 67.393 36.7802 67.013 35.4802 66.263C34.1702 65.513 33.5203 64.613 33.5103 63.573V43.573C33.5203 44.613 34.1702 45.513 35.4802 46.263C36.7802 47.013 38.3301 47.393 40.1301 47.393C41.9201 47.403 43.4703 47.023 44.7603 46.283C46.0503 45.543 46.7002 44.643 46.7002 43.623Z" class="pr-icon-iso-duotone-primary-stroke" stroke-linejoin="round"/>
    <path d="M28.7998 17.083V17.593V21.513" class="pr-icon-iso-duotone-primary-stroke" stroke-linejoin="round"/>
    <path d="M103.64 36.603C101.05 32.863 97.18 29.503 92.02 26.523C90.22 25.483 88.31 24.523 86.3 23.643C84.53 22.873 82.7301 22.193 80.8901 21.603C80.6301 21.513 80.3701 21.433 80.1101 21.353C80.5701 20.273 80.8301 19.2031 80.8901 18.1331V17.1831C80.8201 16.0231 80.5102 14.8831 79.9702 13.7431C78.7802 11.2331 76.5402 9.03307 73.2502 7.13307C68.1002 4.15307 61.9302 2.66303 54.7402 2.65303C47.5602 2.63303 41.41 4.10307 36.29 7.06307C32.95 8.99307 30.7401 11.2231 29.6401 13.7531C29.0801 15.0431 28.8 16.323 28.8 17.593C28.8 18.863 29.0601 20.043 29.5801 21.263C29.3201 21.343 29.06 21.423 28.8 21.513C26.97 22.093 25.1802 22.773 23.4202 23.533C21.4102 24.403 19.5102 25.353 17.7202 26.393C12.6002 29.343 8.7602 32.6931 6.2102 36.4231C3.6602 40.1531 2.40016 43.9531 2.42016 47.8131C2.44016 51.1631 3.42012 54.463 5.38012 57.723C5.67012 58.223 5.99008 58.713 6.34008 59.213C8.01008 61.613 10.2002 63.8631 12.9302 65.9431C14.4402 67.1131 16.1202 68.223 17.9602 69.283C23.1102 72.263 28.9301 74.5031 35.4101 75.9931C41.8801 77.4931 48.4701 78.2431 55.1501 78.2531C55.6401 78.2531 56.1301 78.253 56.6201 78.233C60.7801 78.183 64.8902 77.8331 68.9602 77.1931C70.9502 76.8931 72.9201 76.5131 74.8801 76.0631C77.0101 75.5731 79.0801 75.013 81.0601 74.353C85.0901 73.053 88.8202 71.403 92.2602 69.423C97.3802 66.463 101.22 63.123 103.77 59.393C104.06 58.963 104.34 58.533 104.6 58.103C106.57 54.813 107.56 51.483 107.56 48.093V48.0031C107.54 44.1431 106.23 40.343 103.64 36.603ZM88.8301 62.473C87.6301 63.383 86.28 64.2631 84.8 65.1231C81.7 66.9131 78.36 68.363 74.8 69.483C72.95 70.063 71.0401 70.5531 69.0601 70.9431C64.9401 71.7831 60.5401 72.2131 55.8701 72.2431C55.6301 72.2531 55.3701 72.2531 55.1201 72.2531C43.6101 72.2331 33.6901 69.813 25.3601 65.013C21.5201 62.793 18.5702 60.383 16.4902 57.773C14.4602 55.223 13.2702 52.4831 12.9302 49.5531C12.8602 48.9831 12.8201 48.413 12.8201 47.833C12.7901 41.183 16.9102 35.4631 25.1802 30.6931L25.7302 30.3731C26.7502 30.6431 27.77 30.9031 28.8 31.1331C29.5 31.2931 30.2102 31.443 30.9202 31.583C36.0102 32.593 41.2501 33.133 46.6401 33.203C53.8901 33.283 60.9102 32.5131 67.7102 30.8731C67.5402 31.8731 67.4502 32.863 67.4402 33.843V33.963C67.4402 37.423 68.4602 40.8131 70.4802 44.1231C73.1002 48.4231 77.2401 52.203 82.8901 55.463C84.3201 56.283 85.7702 57.0331 87.2202 57.6931C88.6802 58.3631 90.2201 58.9831 91.8301 59.5531C91.0301 60.5931 90.0301 61.563 88.8301 62.473Z" class="pr-icon-iso-duotone-primary-stroke" stroke-linejoin="round"/>
    <path d="M80.8901 17.183V16.733" class="pr-icon-iso-duotone-primary-stroke" stroke-linejoin="round"/>
    <path d="M80.8901 21.603V18.1331" class="pr-icon-iso-duotone-primary-stroke" stroke-linejoin="round"/>
</svg>