<svg viewBox="0 0 104 82" class="pr-icon-iso-duotone-secondary" xmlns="http://www.w3.org/2000/svg" height="48"
     width="48" stroke-width="1px" stroke-linecap="round" stroke-linejoin="round">
    <path d="M97.8147 20.0201C95.3847 16.5001 91.7448 13.3501 86.9048 10.5501C82.0648 7.76014 76.5946 5.66015 70.5146 4.25015C64.4246 2.85015 58.2446 2.14013 51.9646 2.13013C45.6746 2.13013 39.5048 2.80012 33.4348 4.19012C27.3648 5.57012 21.9147 7.65015 17.1047 10.4301C12.2947 13.2101 8.69468 16.3501 6.29468 19.8501C3.90468 23.3601 2.71462 26.9201 2.73462 30.5501C2.75462 33.9101 3.79477 37.2101 5.88477 40.4601C6.05477 40.7301 6.2348 40.9901 6.4148 41.2601C8.8448 44.7801 12.4847 47.9301 17.3247 50.7301C18.4447 51.3801 19.6047 51.9901 20.7947 52.5501C22.7447 53.5001 24.7848 54.3401 26.9248 55.0801C29.0948 55.8301 31.3546 56.4802 33.7146 57.0302C37.5946 57.9202 41.5046 58.5301 45.4646 58.8601C47.7246 59.0501 49.9947 59.1501 52.2747 59.1501C58.5547 59.1601 64.7247 58.4801 70.7947 57.0901C73.8747 56.3901 76.8047 55.5101 79.5647 54.4401C82.2347 53.4201 84.7548 52.2201 87.1248 50.8501C91.9348 48.0701 95.5448 44.9301 97.9348 41.4301C98.0748 41.2301 98.2147 41.0201 98.3447 40.8201C100.445 37.5401 101.495 34.2101 101.495 30.8201V30.7301C101.475 27.1001 100.255 23.5301 97.8147 20.0201ZM73.1948 42.7201L73.0547 42.8001L62.6848 48.7901L48.6348 40.6901L45.1748 38.6901L45.3547 38.3701L48.6348 32.6501L39.8848 27.6001L22.4846 37.6401L17.2346 34.6101L36.3047 23.6001L55.5046 12.5101L76.5146 24.6401L75.8848 25.7401L73.0547 30.6801L83.5547 36.7401L73.1948 42.7201Z" class="pr-icon-iso-duotone-primary-stroke" stroke-linejoin="round"/>
    <path d="M83.5547 36.7402L73.1948 42.7202L73.0547 42.6402V30.6802L83.5547 36.7402Z" class="pr-icon-iso-duotone-primary-stroke" stroke-linejoin="round"/>
    <path d="M48.6348 32.6501V40.6901L45.1748 38.6901L45.3547 38.3701L48.6348 32.6501Z" class="pr-icon-iso-duotone-primary-stroke" stroke-linejoin="round"/>
    <path d="M55.5044 12.5103V32.5103L48.6345 36.4803V32.6503L39.8845 27.6003L22.4844 37.6403L17.2344 34.6103L36.3044 23.6003L55.5044 12.5103Z" class="pr-icon-iso-duotone-primary-stroke" stroke-linejoin="round"/>
    <path d="M76.5149 24.6403L75.885 25.7403L73.0549 30.6803V42.6403L55.5049 32.5103V12.5103L76.5149 24.6403Z" class="pr-icon-iso-duotone-primary-stroke" stroke-linejoin="round"/>
    <path d="M101.494 30.82V50.73C101.514 54.36 100.335 57.9201 97.9346 61.4301C95.5446 64.9301 91.9345 68.07 87.1245 70.85C82.3145 73.63 76.8644 75.7101 70.7944 77.0901C64.7244 78.4801 58.5544 79.1601 52.2744 79.1501C45.9844 79.1401 39.8044 78.4301 33.7144 77.0301C27.6344 75.6201 22.1645 73.52 17.3245 70.73C12.4845 67.93 8.84455 64.78 6.41455 61.26C3.97455 57.75 2.75437 54.18 2.73438 50.55V30.55C2.75437 33.91 3.79452 37.2101 5.88452 40.4601C6.05452 40.7301 6.23455 40.99 6.41455 41.26C8.84455 44.78 12.4845 47.93 17.3245 50.73C18.4445 51.38 19.6044 51.99 20.7944 52.55C22.7444 53.5 24.7846 54.34 26.9246 55.08C29.0946 55.83 31.3544 56.4801 33.7144 57.0301C37.5944 57.9201 41.5044 58.53 45.4644 58.86C47.7244 59.05 49.9944 59.1501 52.2744 59.1501C58.5544 59.1601 64.7244 58.4801 70.7944 57.0901C73.8744 56.3901 76.8045 55.51 79.5645 54.44C82.2345 53.42 84.7545 52.22 87.1245 50.85C91.9345 48.07 95.5446 44.9301 97.9346 41.4301C98.0746 41.2301 98.2145 41.02 98.3445 40.82C100.444 37.54 101.494 34.21 101.494 30.82Z" class="pr-icon-iso-duotone-primary-stroke" stroke-linejoin="round"/>
</svg>