<svg width="48" height="48" viewBox="0 0 112 99" class="pr-icon-iso-duotone-secondary"
     xmlns="http://www.w3.org/2000/svg" stroke-width="1px" stroke-linecap="round" stroke-linejoin="round">
    <path d="M23.9397 56.0098V64.5497L16.5498 60.2798L23.9397 56.0098Z" class="pr-icon-iso-duotone-primary-stroke" stroke-linejoin="round"/>
    <path d="M30.9297 76.8099V96.8099L2.25977 80.25V60.25L10.8999 65.24L23.9397 72.77L30.9297 76.8099Z" class="pr-icon-iso-duotone-primary-stroke" stroke-linejoin="round"/>
    <path d="M59.1099 2.59961L19.9297 25.2196C13.6397 28.8496 10.2099 33.1996 9.63989 38.2496C9.59989 38.6496 9.56982 39.0496 9.56982 39.4496V40.0297C9.65982 43.4497 11.1799 46.6296 14.1099 49.5596C14.8899 50.3496 15.7798 51.1296 16.7698 51.8796L10.2097 55.6597L9.66968 55.9696L9.61987 55.9996L2.25977 60.2496L10.8999 65.2396L23.9397 72.7697L30.9297 76.8096L38.0498 72.6896L23.9397 64.5496L16.5498 60.2797L23.9397 56.0096C30.4297 58.8696 37.6897 60.2596 45.7097 60.1696C46.3097 60.1696 46.9198 60.1496 47.5398 60.1296C49.1498 60.0696 50.7298 59.9497 52.2598 59.7797C55.9598 59.3597 59.4199 58.6097 62.6299 57.5397C65.2899 56.6497 67.7799 55.5296 70.1099 54.1896L70.5999 53.9097L77.7197 49.7996L84.8398 45.6896L91.9597 41.5696L109.28 31.5696L59.1099 2.59961ZM87.8699 35.6597L69.9497 25.3096L66.8799 27.0796L62.8298 29.4196L80.7498 39.7697L77.6697 41.5496L73.6199 43.8796L62.8699 37.6796L59.2898 35.6096L52.1597 39.7196L62.9197 45.9196L65.8999 47.6497L66.4998 47.9896L63.4297 49.7697L62.9397 50.0496C62.2897 50.4296 61.6498 50.7596 61.0198 51.0496C60.3998 51.3396 59.7298 51.6297 59.0198 51.8997L52.1597 47.9396L47.7297 45.3796C46.8897 44.8996 46.2799 44.3197 45.8899 43.6497C45.4999 42.9797 45.3898 42.3196 45.5698 41.6696C45.7798 40.6796 45.7598 39.6996 45.4998 38.7296C45.3398 38.1496 45.0998 37.5696 44.7798 36.9996C43.9498 35.5496 42.6298 34.2596 40.8098 33.1696C40.7098 33.0996 40.6198 33.0496 40.5198 32.9896L30.6597 27.2996L59.1499 10.8496L94.9897 31.5496L87.8699 35.6597Z" class="pr-icon-iso-duotone-primary-stroke" stroke-linejoin="round"/>
    <path d="M65.8999 47.6498L62.9197 45.9197L52.1597 39.7197V47.9397L59.0198 51.8998C59.7298 51.6298 60.3998 51.3397 61.0198 51.0497C61.6498 50.7597 62.2897 50.4297 62.9397 50.0497L63.4297 49.7698L66.4998 47.9897L65.8999 47.6498Z" class="pr-icon-iso-duotone-primary-stroke" stroke-linejoin="round"/>
    <path d="M59.1499 10.8496V30.8496L45.4998 38.7296C45.3398 38.1496 45.0998 37.5696 44.7798 36.9996C43.9498 35.5496 42.6298 34.2596 40.8098 33.1696C40.7098 33.0996 40.6198 33.0496 40.5198 32.9896L30.6597 27.2996L59.1499 10.8496Z" class="pr-icon-iso-duotone-primary-stroke" stroke-linejoin="round"/>
    <path d="M94.9897 31.5496L87.8699 35.6597L69.9497 25.3096L66.8799 27.0796L62.8298 29.4196L62.8499 32.9896L59.1499 30.8496V10.8496L94.9897 31.5496Z" class="pr-icon-iso-duotone-primary-stroke" stroke-linejoin="round"/>
    <path d="M80.75 39.77L77.6699 41.5499L73.6201 43.88L62.8701 37.6799L62.8501 32.99L62.8301 29.4199L80.75 39.77Z" class="pr-icon-iso-duotone-primary-stroke" stroke-linejoin="round"/>
    <path d="M109.28 31.5693V51.5693L70.1096 74.1893C63.8096 77.8193 56.2896 79.7994 47.5396 80.1294C44.2496 80.2494 41.0896 80.1394 38.0496 79.7794V72.6893L23.9395 64.5493V56.0094C30.4295 58.8694 37.6895 60.2593 45.7095 60.1693C46.3095 60.1693 46.9196 60.1494 47.5396 60.1294C49.1496 60.0694 50.7295 59.9494 52.2595 59.7794C55.9595 59.3594 59.4196 58.6094 62.6296 57.5394C65.2896 56.6494 67.7796 55.5293 70.1096 54.1893L70.5996 53.9094L77.7195 49.7993L84.8396 45.6893L91.9595 41.5693L109.28 31.5693Z" class="pr-icon-iso-duotone-primary-stroke" stroke-linejoin="round"/>
    <path d="M38.0498 72.6895V92.6895L30.9297 96.8094V76.8094L38.0498 72.6895Z" class="pr-icon-iso-duotone-primary-stroke" stroke-linejoin="round"/>
    <path d="M9.66992 56.0098V55.9697" class="pr-icon-iso-duotone-primary-stroke" stroke-linejoin="round"/>
    <path d="M16.7698 51.8793L10.2097 55.6593L9.66968 55.9692L9.56982 40.0293C9.65982 43.4493 11.1799 46.6292 14.1099 49.5592C14.8899 50.3492 15.7798 51.1293 16.7698 51.8793Z" class="pr-icon-iso-duotone-primary-stroke" stroke-linejoin="round"/>
</svg>