<svg width="48" height="48" viewBox="0 0 113 91" class="pr-icon-iso-duotone-secondary"
     xmlns="http://www.w3.org/2000/svg" stroke-width="1px" stroke-linecap="round" stroke-linejoin="round">
    <path d="M85.3 44.3503V48.9203C84.44 48.7903 83.5401 48.7303 82.6101 48.7303H82.55C79.33 48.7303 76.56 49.4003 74.22 50.7503L64.0601 56.6103L64.03 56.5904V50.8703L64.02 50.1903L68.6401 47.5303C70.0101 46.7303 71.54 46.0803 73.23 45.5503C74.19 45.2603 75.2 45.0003 76.27 44.7903C79.2 44.2003 82.21 44.0603 85.3 44.3503Z" class="pr-icon-iso-duotone-primary-stroke" stroke-linejoin="round"/>
    <path d="M110.24 29.9503L102.76 34.2703L100.31 35.6803L85.3001 44.3502C82.2101 44.0602 79.2001 44.2003 76.2701 44.7903C75.2 45.0003 74.19 45.2603 73.23 45.5503C71.54 46.0803 70.0102 46.7303 68.6402 47.5303L64.0201 50.1903L59.3701 47.5103C58.6101 47.0703 57.8301 46.6803 57.0201 46.3303C53.7801 44.9203 50.1 44.1802 45.98 44.1202C45.81 44.1102 45.6302 44.1102 45.4602 44.1102C44.0602 44.1102 42.7102 44.1903 41.4102 44.3403C37.7202 44.7703 34.4501 45.8003 31.5801 47.4603L26.9602 50.1302L32.5401 53.3502L37.1502 50.6803C39.4902 49.3303 42.27 48.6603 45.48 48.6603C47.63 48.6603 49.6001 48.9702 51.3601 49.6002C52.2301 49.8902 53.0601 50.2603 53.8301 50.7103L59.0701 53.7302L64.0301 56.5903L64.0601 56.6102L74.22 50.7502C76.56 49.4002 79.3301 48.7202 82.5501 48.7302H82.6101C83.5401 48.7302 84.4401 48.7903 85.3001 48.9203C87.3801 49.2003 89.2402 49.8203 90.9002 50.7803L92.4102 51.6503L93.6902 52.3903L85.3001 57.2302L78.9102 60.9203C74.4102 63.5103 69.4601 65.4403 64.0401 66.6903C62.5501 67.0403 61.03 67.3303 59.47 67.5703C55.67 68.1703 51.6602 68.4703 47.4402 68.4603C42.1202 68.4503 37.1102 67.9602 32.4302 66.9902C26.3802 65.7402 20.8702 63.6803 15.9002 60.8103C11.5302 58.2903 8.24008 55.5203 6.05008 52.5103C3.79008 49.4603 2.66017 46.1503 2.64017 42.5903C2.60017 35.5303 6.95022 29.4803 15.7002 24.4303L54.5 2.03027L61.9302 6.32031L36.0701 21.2502L43.5 25.5503L61.9302 14.9103L76.76 6.35022L84.1902 10.6403L61.9302 23.4902L59.48 24.9103L50.9402 29.8403L53.3902 31.2502L58.3802 34.1302L84.1902 19.2302L95.3201 12.8003L102.76 17.1002L84.1902 27.8203L81.75 29.2302L65.8101 38.4303L68.26 39.8403L73.25 42.7203L102.76 25.6803L102.81 25.6503L110.24 29.9503Z" class="pr-icon-iso-duotone-primary-stroke" stroke-linejoin="round"/>
    <path d="M110.24 29.9502V49.9502L93.6902 59.5101V52.3901L92.4102 51.6501L90.9001 50.7802C89.2401 49.8202 87.38 49.2002 85.3 48.9202V44.3501L100.31 35.6802L102.76 34.2701L110.24 29.9502Z" class="pr-icon-iso-duotone-primary-stroke" stroke-linejoin="round"/>
    <path d="M93.6902 52.3903V72.3903L78.9102 80.9203C70.1602 85.9703 59.6702 88.4803 47.4402 88.4603C35.2102 88.4403 24.7001 85.8903 15.9001 80.8103C7.10015 75.7303 2.68014 69.6503 2.64014 62.5903V42.5903C2.66014 46.1503 3.79005 49.4603 6.05005 52.5103C8.24005 55.5203 11.5301 58.2903 15.9001 60.8103C20.8701 63.6803 26.3802 65.7402 32.4302 66.9902C37.1102 67.9602 42.1202 68.4503 47.4402 68.4603C51.6602 68.4703 55.67 68.1703 59.47 67.5703C61.03 67.3303 62.55 67.0403 64.04 66.6903C69.46 65.4403 74.4102 63.5103 78.9102 60.9203L85.3 57.2302L93.6902 52.3903Z" class="pr-icon-iso-duotone-primary-stroke" stroke-linejoin="round"/>
    <path d="M64.03 56.5905L59.0701 53.7303L53.8301 50.7104C53.0601 50.2604 52.2301 49.8903 51.3601 49.6003C49.6001 48.9703 47.63 48.6704 45.48 48.6604C42.27 48.6604 39.4901 49.3304 37.1501 50.6804L32.54 53.3503L26.9602 50.1304L31.5801 47.4604C34.4501 45.8004 37.7202 44.7705 41.4102 44.3405C42.7102 44.1905 44.0602 44.1104 45.4602 44.1104C45.6302 44.1104 45.81 44.1104 45.98 44.1204C50.1 44.1804 53.78 44.9204 57.02 46.3304C57.83 46.6804 58.6101 47.0704 59.3701 47.5104L64.02 50.1904V56.5905H64.03Z" class="pr-icon-iso-duotone-primary-stroke" stroke-linejoin="round"/>
    <path d="M102.76 17.1001V25.6802L73.25 42.7202L68.26 39.8402L65.8101 38.4302L81.75 29.2301L84.1902 27.8202L102.76 17.1001Z" class="pr-icon-iso-duotone-primary-stroke" stroke-linejoin="round"/>
    <path d="M84.1902 10.6401V19.2301L58.3801 34.1301L53.3901 31.2501L50.9402 29.8402L59.48 24.9102L61.9302 23.4901L84.1902 10.6401Z" class="pr-icon-iso-duotone-primary-stroke" stroke-linejoin="round"/>
    <path d="M61.9302 6.32031V14.9103L43.5 25.5503L36.0701 21.2502L61.9302 6.32031Z" class="pr-icon-iso-duotone-primary-stroke" stroke-linejoin="round"/>
</svg>