<svg width="48" height="48" viewBox="0 0 116 105" fill="#c8e7ff" xmlns="http://www.w3.org/2000/svg" stroke-width="1px" stroke-linecap="round" stroke-linejoin="round"><path d="M93.5105 71.6788C93.4705 71.8488 93.4305 72.0088 93.3705 72.1688C93.4505 72.1788 93.5405 72.1788 93.6205 72.1788V70.7288C93.6205 71.0588 93.5805 71.3688 93.5105 71.6788ZM79.4404 65.3088V68.7088L79.4604 68.7288L79.4404 65.3088Z" stroke="#229EFF" stroke-linejoin="round"/><path d="M69.5103 82.9888V102.989L59.4902 102.969V82.9688L69.4003 82.9888H69.5103Z" stroke="#229EFF" stroke-linejoin="round"/><path d="M92.5305 28.6388V28.6888C92.5305 31.8488 90.6105 34.5388 86.7705 36.7488C85.6605 37.3988 84.4905 37.9288 83.2605 38.3688C83.0005 38.4588 82.7304 38.5588 82.4504 38.6388C81.4604 38.9588 80.4104 39.2188 79.3104 39.4288V37.8188L79.1904 17.7988C80.6004 18.0688 81.9205 18.4288 83.1505 18.8688C84.3905 19.3088 85.5604 19.8588 86.6804 20.4988C90.5604 22.7388 92.5105 25.4588 92.5305 28.6388Z" stroke="#229EFF" stroke-linejoin="round"/><path d="M113.71 40.8688V40.8888C113.71 44.0588 111.79 46.7588 107.95 48.9788C106.68 49.7088 105.31 50.3188 103.85 50.7988C103.25 50.9988 102.64 51.1688 102 51.3288C99.4904 51.9488 96.7104 52.2288 93.6704 52.1788C93.0004 52.1688 92.3403 52.1388 91.6903 52.0988C86.8903 51.7888 82.7804 50.6488 79.3604 48.6688L79.3403 45.3188C82.0903 45.0188 84.6804 44.4888 87.1104 43.7388C88.0304 43.4488 88.9204 43.1388 89.7804 42.7688C90.7304 42.4088 91.6504 41.9888 92.5304 41.5288C92.9704 41.3088 93.4103 41.0688 93.8303 40.8288C96.2803 39.4088 98.2204 37.7988 99.6504 35.9888C101.08 34.1788 101.93 32.2788 102.21 30.2788C103.33 30.5888 104.34 30.9488 105.26 31.3788C106.17 31.7988 107.03 32.2488 107.86 32.7288C111.74 34.9688 113.69 37.6788 113.71 40.8688Z" stroke="#229EFF" stroke-linejoin="round"/><path d="M69.5104 82.9888H69.4004L59.4904 82.9688L59.4104 68.8488L58.8003 69.2088L22.8003 48.4188L2.32031 36.5988L12.1504 30.9288C14.1304 29.7788 16.4704 29.0288 19.1704 28.6588C21.8704 28.2888 24.5003 28.3488 27.0903 28.8288C32.5503 29.8788 37.6104 31.2388 42.2804 32.8888C46.0304 34.2088 49.5304 35.7288 52.7704 37.4388C53.5704 37.8588 54.3504 38.2888 55.1104 38.7288C55.8204 39.1388 56.5303 39.5588 57.2303 39.9988C57.5703 40.2088 57.9003 40.4188 58.2303 40.6288C58.5803 40.8688 58.9204 41.0988 59.2604 41.3288L59.2404 37.0588L59.1304 36.9988L58.6204 36.6988C54.7404 34.4588 52.7904 31.7488 52.7704 28.5688C52.7504 25.3788 54.6704 22.6788 58.5304 20.4488L59.1504 20.0988L59.0503 2.52881H69.0803L69.5104 82.9888Z" stroke="#229EFF" stroke-linejoin="round"/><path d="M79.5305 81.1787V101.179L79.4404 84.9287V68.7087L79.4604 68.7287L79.5305 81.1787Z" stroke="#229EFF" stroke-linejoin="round"/><path d="M93.6205 70.2589V70.7289C93.6205 71.0589 93.5805 71.3689 93.5105 71.6789C93.4705 71.8489 93.4305 72.0089 93.3705 72.1689C92.9605 73.4289 92.0005 74.4889 90.5005 75.3589L85.8004 78.0689L82.1505 80.1789L79.9705 81.4289L79.5305 81.1789L79.4604 68.7289L79.4404 65.3089V64.9289C80.3904 63.9689 81.1005 62.9289 81.5905 61.8189C81.8305 61.2789 82.0205 60.7289 82.1505 60.1589C82.2605 59.6689 82.3305 59.1789 82.3405 58.6689C82.4005 57.3689 82.1505 56.0189 81.5905 54.6189C82.9105 55.5889 84.1305 56.5589 85.2305 57.5589H85.2405C86.3505 58.5389 87.3605 59.5389 88.2605 60.5489C88.8905 61.2589 89.4805 61.9689 90.0205 62.6789C91.0205 63.9889 91.8704 65.3089 92.5604 66.6289C93.2204 67.9389 93.5705 69.1489 93.6205 70.2589Z" stroke="#229EFF" stroke-linejoin="round"/><path d="M113.71 40.8889V60.8689C113.72 64.0489 111.8 66.7489 107.95 68.9789C104.09 71.2089 99.3304 72.2689 93.6704 72.1789H93.6204V70.2589C93.5704 69.1489 93.2203 67.9389 92.5603 66.6289C91.8703 65.3089 91.0204 63.9889 90.0204 62.6789C89.4804 61.9689 88.8904 61.2589 88.2604 60.5489C87.3604 59.5389 86.3504 58.5389 85.2404 57.5589H85.2303C84.1303 56.5589 82.9103 55.5889 81.5903 54.6189V61.8189C81.1003 62.9289 80.3903 63.9689 79.4403 64.9289V68.7089C79.4403 68.7089 79.3904 68.6889 79.3604 68.6689V48.6689C82.7804 50.6489 86.8903 51.7889 91.6903 52.0989C92.3403 52.1389 93.0004 52.1689 93.6704 52.1789C96.7104 52.2289 99.4904 51.9489 102 51.3289C102.64 51.1689 103.25 50.9989 103.85 50.7989C105.31 50.3189 106.68 49.7089 107.95 48.9789C111.79 46.7589 113.71 44.0589 113.71 40.8889Z" stroke="#229EFF" stroke-linejoin="round"/><path d="M92.5306 28.6887V41.5287C91.6506 41.9887 90.7306 42.4087 89.7806 42.7687C88.9206 43.1387 88.0306 43.4487 87.1106 43.7387C84.6806 44.4887 82.0906 45.0187 79.3406 45.3187L79.3606 48.6687V55.9187L79.3105 39.4287C80.4105 39.2187 81.4606 38.9587 82.4506 38.6387C82.7306 38.5587 83.0006 38.4587 83.2606 38.3687C84.4906 37.9287 85.6606 37.3987 86.7706 36.7487C90.6106 34.5387 92.5306 31.8487 92.5306 28.6887Z" stroke="#229EFF" stroke-linejoin="round"/><path d="M59.4904 82.9689V102.969L59.4104 88.8489L58.8003 89.2089V69.2089L59.4104 68.8489L59.4904 82.9689Z" stroke="#229EFF" stroke-linejoin="round"/><path d="M58.8003 69.2089V89.2089L2.32031 56.5989V36.5989L22.8003 48.4189L58.8003 69.2089Z" stroke="#229EFF" stroke-linejoin="round"/><path d="M59.2605 41.3288C58.9205 41.0988 58.5805 40.8688 58.2305 40.6288C57.9005 40.4188 57.5705 40.2088 57.2305 39.9988C56.5305 39.5588 55.8205 39.1388 55.1105 38.7288C54.3505 38.2888 53.5705 37.8588 52.7705 37.4388V28.5688C52.7905 31.7488 54.7405 34.4588 58.6205 36.6988L59.1305 36.9988L59.2405 37.0588L59.2605 41.3288Z" stroke="#229EFF" stroke-linejoin="round"/><path d="M79.9702 81.4287V101.429L79.5303 101.179V81.1787L79.9702 81.4287Z" stroke="#229EFF" stroke-linejoin="round"/><path d="M93.6202 72.1787V90.7287C93.6202 91.0587 93.5803 91.3687 93.5103 91.6787C93.2003 93.1487 92.1902 94.3787 90.5002 95.3587L79.9702 101.429V81.4287L82.1503 80.1787L85.8002 78.0687L90.5002 75.3587C92.0002 74.4887 92.9602 73.4287 93.3702 72.1687C93.4502 72.1787 93.5402 72.1787 93.6202 72.1787Z" stroke="#229EFF" stroke-linejoin="round"/><path d="M93.6201 90.9688V90.7288" stroke="#229EFF" stroke-linejoin="round"/><path d="M82.3403 58.6689C82.3303 59.1789 82.2604 59.6689 82.1504 60.1589C82.0204 60.7289 81.8303 61.2789 81.5903 61.8189V54.6189C82.1503 56.0189 82.4003 57.3689 82.3403 58.6689Z" stroke="#229EFF" stroke-linejoin="round"/></svg>