<svg width="48" height="48" viewBox="0 0 119 91" fill="#c8e7ff" xmlns="http://www.w3.org/2000/svg" stroke-width="1px" stroke-linecap="round" stroke-linejoin="round"><path d="M41.0601 49.7422V51.0322H41.0701V49.7422H41.0601ZM41.1301 62.2222L41.1001 57.2722H40.9902L41.0203 63.5623H41.1401V62.2222H41.1301ZM41.0601 69.7422L41.0901 76.0422H41.1602V69.7422H41.0601ZM41.1301 82.2222L41.1602 88.5122V82.2222H41.1301Z" stroke="#229EFF" stroke-linejoin="round"/><path d="M48.5498 20.3927L71.4199 7.19275L63.75 2.7627L2.75 37.9727L10.4299 42.4027L33.2998 29.2028C35.4098 30.4128 37.96 31.0327 40.96 31.0327C43.95 31.0427 46.4998 30.4327 48.5898 29.2227C50.6798 28.0227 51.73 26.5528 51.73 24.8328V24.8127C51.72 23.0827 50.6598 21.6127 48.5498 20.3927Z" stroke="#229EFF" stroke-linejoin="round"/><path d="M73.4302 24.8529V24.8929C73.4302 27.2429 72.6501 29.5529 71.0801 31.8629C69.4901 34.1729 67.1202 36.253 63.9402 38.083C60.7602 39.923 57.1702 41.293 53.1602 42.203C52.6802 42.313 52.2102 42.4129 51.7302 42.5129C51.5102 42.5529 51.3001 42.5929 51.0801 42.6329C47.7501 43.2629 44.4003 43.573 41.0203 43.563L40.9902 37.2729C43.7902 37.2729 46.5202 36.9829 49.1602 36.3729C50.0502 36.1729 50.9002 35.933 51.7302 35.653C53.3602 35.123 54.8803 34.453 56.2703 33.653C58.3603 32.443 59.9302 31.083 60.9802 29.553C62.0202 28.033 62.54 26.453 62.53 24.833H67.3501L71.4202 24.8529H73.4302Z" stroke="#229EFF" stroke-linejoin="round"/><path d="M95.0303 24.8931V25.0231C95.0303 28.9631 93.7204 32.813 91.1304 36.613C88.5104 40.463 84.5603 43.9031 79.2803 46.9431C76.9503 48.2931 74.4904 49.4931 71.8904 50.5231C68.6104 51.8531 65.1104 52.9431 61.4004 53.7831C58.5304 54.4431 55.6305 54.9531 52.7205 55.3131C48.8805 55.8131 45.0103 56.0531 41.0903 56.0431V52.8931L41.0703 51.0331V49.743C43.4803 49.743 45.8705 49.6431 48.2305 49.4131C51.3405 49.1231 54.3904 48.6431 57.4004 47.9531C59.1004 47.5631 60.7403 47.1231 62.3203 46.5931C63.9303 46.0831 65.4805 45.5031 66.9705 44.8431C68.5805 44.1431 70.1304 43.3631 71.6104 42.5131C72.2404 42.1531 72.8504 41.7731 73.4304 41.3931C76.7204 39.2631 79.2503 36.9031 81.0303 34.3131C83.1203 31.2631 84.1504 28.113 84.1404 24.873L95.0303 24.8931Z" stroke="#229EFF" stroke-linejoin="round"/><path d="M116.65 24.9331V25.0731C116.65 30.6131 114.85 36.0431 111.24 41.3431C110.42 42.5631 109.49 43.7531 108.46 44.9131C107.58 45.9231 106.61 46.9131 105.57 47.8831C102.55 50.7031 98.9104 53.3431 94.6404 55.8031C93.0804 56.7031 91.4903 57.553 89.8503 58.353C83.6703 61.383 76.9203 63.7331 69.5903 65.3931C66.6903 66.0531 63.7703 66.6031 60.8303 67.0531C54.3803 68.0431 47.8304 68.5231 41.1704 68.5131L41.1504 63.5631V62.223C46.5504 62.233 51.8503 61.8631 57.0503 61.1331C59.9303 60.7231 62.7803 60.2031 65.6003 59.5631C71.0803 58.3231 76.1904 56.6231 80.9304 54.4631C83.0204 53.5231 85.0305 52.493 86.9705 51.373C90.0405 49.613 92.7105 47.7331 95.0205 45.7531C97.5005 43.6331 99.5404 41.3931 101.14 39.0331C104.24 34.4831 105.78 29.7731 105.75 24.9131L116.65 24.9331Z" stroke="#229EFF" stroke-linejoin="round"/><path d="M116.65 25.0723V44.9323C116.68 50.5223 114.88 56.0023 111.24 61.3423C107.61 66.6923 102.07 71.5122 94.6399 75.8022C87.1999 80.0922 78.8598 83.2922 69.5898 85.3922C60.3298 87.4922 50.8599 88.5322 41.1699 88.5122V68.5122C47.8299 68.5122 54.3798 68.0422 60.8298 67.0522C63.7698 66.6022 66.6898 66.0522 69.5898 65.3922C76.9198 63.7322 83.6699 61.3822 89.8499 58.3522C91.4899 57.5522 93.0799 56.7022 94.6399 55.8022C98.9099 53.3422 102.55 50.7022 105.57 47.8822C106.61 46.9122 107.58 45.9222 108.46 44.9122C109.49 43.7522 110.42 42.5623 111.24 41.3423C114.85 36.0423 116.65 30.6123 116.65 25.0723Z" stroke="#229EFF" stroke-linejoin="round"/><path d="M10.4299 42.4027V62.4027L2.75 57.9727V37.9727L10.4299 42.4027Z" stroke="#229EFF" stroke-linejoin="round"/><path d="M71.4297 7.19238V24.8523H67.3596L62.5396 24.8324C62.5496 26.4524 62.0297 28.0324 60.9897 29.5524C59.9397 31.0824 58.3695 32.4423 56.2795 33.6523C54.8895 34.4523 53.3697 35.1223 51.7397 35.6523V24.8124C51.7297 23.0824 50.6696 21.6123 48.5596 20.3923L71.4297 7.19238Z" stroke="#229EFF" stroke-linejoin="round"/><path d="M41.0996 56.0332V76.0332" stroke="#229EFF" stroke-linejoin="round"/><path d="M73.4294 24.8926V41.3926C72.8494 41.7726 72.2394 42.1526 71.6094 42.5126C70.1294 43.3626 68.5795 44.1427 66.9695 44.8427C65.4795 45.5027 63.9293 46.0827 62.3193 46.5927C60.7393 47.1227 59.0994 47.5626 57.3994 47.9526C54.3894 48.6426 51.3395 49.1226 48.2295 49.4126C45.8695 49.6426 43.4793 49.7426 41.0593 49.7426L41.0195 43.5626C44.3995 43.5726 47.7493 43.2626 51.0793 42.6326C51.2993 42.5926 51.5095 42.5526 51.7295 42.5126C52.2095 42.4126 52.6794 42.3126 53.1594 42.2026C57.1694 41.2926 60.7595 39.9226 63.9395 38.0826C67.1195 36.2526 69.4893 34.1725 71.0793 31.8625C72.6493 29.5525 73.4294 27.2426 73.4294 24.8926Z" stroke="#229EFF" stroke-linejoin="round"/><path d="M33.2996 29.2031V49.2031L10.4297 62.4031V42.4031L33.2996 29.2031Z" stroke="#229EFF" stroke-linejoin="round"/><path d="M51.73 24.833V35.653C50.9 35.933 50.0499 36.1729 49.1599 36.3729C46.5199 36.9829 43.79 37.2729 40.99 37.2729L41.02 43.563L41.0598 49.7429V51.033H40.96C37.96 51.033 35.4098 50.413 33.2998 49.203V29.203C35.4098 30.413 37.96 31.033 40.96 31.033C43.95 31.043 46.4998 30.4329 48.5898 29.2229C50.6798 28.0229 51.73 26.553 51.73 24.833Z" stroke="#229EFF" stroke-linejoin="round"/><path d="M41.0796 52.8932L41.0596 51.0332" stroke="#229EFF" stroke-linejoin="round"/><path d="M95.0295 25.0225V44.8925C95.0295 45.1825 95.0298 45.4624 95.0098 45.7524C92.6998 47.7324 90.0297 49.6124 86.9597 51.3724C85.0197 52.4924 83.0097 53.5225 80.9197 54.4625C76.1797 56.6225 71.0696 58.3225 65.5896 59.5625C62.7696 60.2025 59.9196 60.7224 57.0396 61.1324C51.8396 61.8624 46.5396 62.2324 41.1296 62.2224L41.0996 57.2725V56.0425C45.0096 56.0525 48.8797 55.8125 52.7197 55.3125C55.6297 54.9525 58.5297 54.4425 61.3997 53.7825C65.1097 52.9425 68.6096 51.8525 71.8896 50.5225C74.4896 49.4925 76.9495 48.2925 79.2795 46.9425C84.5595 43.9025 88.5096 40.4624 91.1296 36.6124C93.7196 32.8124 95.0295 28.9625 95.0295 25.0225Z" stroke="#229EFF" stroke-linejoin="round"/></svg>