<svg width="48" height="48" viewBox="0 0 121 95" fill="#c8e7ff" xmlns="http://www.w3.org/2000/svg" stroke-width="1px" stroke-linecap="round" stroke-linejoin="round"><path d="M65.7315 31.2877C64.7215 30.7077 63.5415 30.4177 62.1815 30.4077C60.8215 30.4077 59.6415 30.6977 58.6415 31.2777C57.6415 31.8477 57.1415 32.5277 57.1515 33.3177C57.1515 34.0977 57.6615 34.7777 58.6615 35.3677C59.6715 35.9477 60.8515 36.2377 62.2115 36.2377C63.5715 36.2377 64.7515 35.9577 65.7515 35.3777C66.7515 34.7977 67.2515 34.1177 67.2415 33.3377C67.2415 32.5477 66.7315 31.8677 65.7315 31.2877Z" stroke="#229EFF" stroke-linejoin="round"/><path d="M118.871 33.4277V53.4277L73.0114 79.9077V68.1077L69.0114 65.7977L65.9014 64.0077L97.5913 45.7177L105.091 41.3877L108.191 39.5977L118.871 33.4277Z" stroke="#229EFF" stroke-linejoin="round"/><path d="M65.9512 72.1877V83.9777L65.9012 84.0077L65.9512 84.0377V92.1877L51.7412 83.9777V63.9777L61.9512 69.8777L65.9512 72.1877Z" stroke="#229EFF" stroke-linejoin="round"/><path d="M108.191 27.2577L104.661 25.2177L108.191 23.1777L72.6613 2.66772L16.1613 35.2877L9.05127 31.1877L1.99121 35.2577L26.4213 49.3677L44.6312 59.8777L57.3212 52.5477L60.8612 50.5077L90.8712 33.1777L97.5912 29.2977L104.701 33.3977L97.9712 37.2777L97.5912 37.5077L51.7412 63.9777L61.9512 69.8777L65.9512 72.1877L73.0112 68.1077L69.0112 65.7977L65.9012 64.0077L97.5912 45.7177L105.091 41.3877L108.191 39.5977L118.871 33.4277L108.191 27.2577ZM65.7512 35.3777C64.7512 35.9577 63.5712 36.2377 62.2112 36.2377C60.8512 36.2377 59.6713 35.9477 58.6613 35.3677C57.6613 34.7777 57.1512 34.0977 57.1512 33.3177C57.1412 32.5277 57.6412 31.8477 58.6412 31.2777C59.6412 30.6977 60.8213 30.4077 62.1813 30.4077C63.5413 30.4077 64.7212 30.7077 65.7312 31.2877C66.7312 31.8677 67.2412 32.5477 67.2412 33.3377C67.2512 34.1177 66.7512 34.7977 65.7512 35.3777Z" stroke="#229EFF" stroke-linejoin="round"/><path d="M73.0112 68.1077V88.1077L65.9512 92.1877V72.1877L73.0112 68.1077Z" stroke="#229EFF" stroke-linejoin="round"/><path d="M108.191 27.2577V23.1777" stroke="#229EFF" stroke-linejoin="round"/><path d="M104.701 33.3977L97.9708 37.2777L97.5908 37.5077V29.2977L104.701 33.3977Z" stroke="#229EFF" stroke-linejoin="round"/><path d="M97.5908 29.2977V37.5077L51.7408 63.9777V75.7677L44.6309 79.8777V59.8777L57.3208 52.5477L60.8608 50.5077L90.8708 33.1777L97.5908 29.2977Z" stroke="#229EFF" stroke-linejoin="round"/><path d="M44.6312 59.8777V79.8777L1.99121 55.2577V35.2577L26.4213 49.3677L44.6312 59.8777Z" stroke="#229EFF" stroke-linejoin="round"/></svg>