<svg width="24" height="24" viewBox="0 0 123 84" class="pr-icon-iso-duotone-secondary" xmlns="http://www.w3.org/2000/svg" stroke-width="1px" stroke-linecap="round" stroke-linejoin="round">
    <path d="M84.9709 32.2208V52.2208L81.9409 51.8608V37.4008L68.4609 35.7908V30.2808L81.151 31.7708L84.9709 32.2208Z" class="pr-icon-iso-duotone-primary-stroke" stroke-linejoin="round"/>
    <path d="M89.6207 24.0806V44.0806L84.9707 52.2206V32.2206L87.2307 28.2606L89.6207 24.0806Z" class="pr-icon-iso-duotone-primary-stroke" stroke-linejoin="round"/>
    <path d="M120.92 15.5704L111.03 17.4504L107.77 23.1604L91.2202 13.6104L81.3502 19.3104L89.6202 24.0804L87.2302 28.2604L84.9702 32.2204L81.1503 31.7704L68.4602 30.2804L65.2903 24.7504L55.7102 22.9304L52.2803 13.2504L66.1202 10.5204L74.7302 15.4804L97.7502 2.19043L120.92 15.5704Z" class="pr-icon-iso-duotone-primary-stroke" stroke-linejoin="round"/>
    <path d="M81.9406 37.4002L74.2106 50.9602L71.2706 56.1202L68.3806 61.1902L28.0906 37.9302L2.18066 22.9702L43.3806 14.9502L47.6506 27.0102L52.2806 27.9202L55.7106 28.6002L57.8906 29.0302L59.5406 31.8202L61.3906 34.9402L65.2906 35.4102L68.4606 35.7902L81.9406 37.4002Z" class="pr-icon-iso-duotone-primary-stroke" stroke-linejoin="round"/>
    <path d="M81.9408 37.4004V57.4004L68.3809 81.1904V61.1904L71.2709 56.1204L74.2108 50.9604L81.9408 37.4004Z" class="pr-icon-iso-duotone-primary-stroke" stroke-linejoin="round"/>
    <path d="M120.92 15.5703V35.5703L111.03 37.4503V17.4503L120.92 15.5703Z" class="pr-icon-iso-duotone-primary-stroke" stroke-linejoin="round"/>
    <path d="M111.031 17.4502V37.4502L107.771 43.1602V23.1602L111.031 17.4502Z" class="pr-icon-iso-duotone-primary-stroke" stroke-linejoin="round"/>
    <path d="M107.771 23.1603V43.1603L91.2207 33.6104V13.6104L107.771 23.1603Z" class="pr-icon-iso-duotone-primary-stroke" stroke-linejoin="round"/>
    <path d="M91.2206 13.6104V33.6104L89.6206 34.5303V24.0803L81.3506 19.3104L91.2206 13.6104Z" class="pr-icon-iso-duotone-primary-stroke" stroke-linejoin="round"/>
    <path d="M65.291 24.7507V35.4106L61.391 34.9407L59.541 31.8206L57.891 29.0306L55.7109 28.6006V22.9307L65.291 24.7507Z" class="pr-icon-iso-duotone-primary-stroke" stroke-linejoin="round"/>
    <path d="M68.4609 30.2805V35.7905L65.291 35.4105V24.7505L68.4609 30.2805Z" class="pr-icon-iso-duotone-primary-stroke" stroke-linejoin="round"/>
    <path d="M55.7102 22.9305V28.6005L52.2803 27.9205V13.2505L55.7102 22.9305Z" class="pr-icon-iso-duotone-primary-stroke" stroke-linejoin="round"/>
    <path d="M68.3806 61.1902V81.1902L2.18066 42.9702V22.9702L28.0906 37.9302L68.3806 61.1902Z" class="pr-icon-iso-duotone-primary-stroke" stroke-linejoin="round"/>
</svg>