<svg width="24" height="24" viewBox="0 0 125 95" class="pr-icon-iso-duotone-secondary" xmlns="http://www.w3.org/2000/svg" stroke-width="1px" stroke-linecap="round" stroke-linejoin="round">
    <path d="M76.0415 54.1101V54.0901L76.0615 54.1101H76.0415ZM76.0415 54.1101V61.9201H76.0515L76.0415 54.1101ZM101.602 52.3601L101.661 52.3901V52.3301L101.602 52.3601Z" class="pr-icon-iso-duotone-primary-stroke" stroke-linejoin="round"/>
    <path d="M62.5217 61.9198V65.3898L58.6717 63.1698L57.9717 62.7698V59.2998L61.6817 61.4298L62.5217 61.9198Z" class="pr-icon-iso-duotone-primary-stroke" stroke-linejoin="round"/>
    <path d="M86.6017 48.0198V68.0198L76.0516 61.9298L76.0417 54.1098L76.0616 54.0998L76.0417 54.0898V48.8698L73.6716 47.5098L71.4816 46.2498L68.4316 48.0198V37.5298L79.7016 44.0298L85.7516 47.5298L86.5117 47.9698L86.6017 48.0198Z" class="pr-icon-iso-duotone-primary-stroke" stroke-linejoin="round"/>
    <path d="M62.5816 72.3699V92.3699L47.4417 83.6299V63.6299L48.8716 64.4599L48.9016 64.4699L52.6516 66.6399L53.4417 67.0899L57.9516 69.6999L57.9716 69.7099L62.5216 72.3399L62.5816 72.3699Z" class="pr-icon-iso-duotone-primary-stroke" stroke-linejoin="round"/>
    <path d="M38.2916 47.9299V67.9299L23.1816 59.2V42.6799L23.1116 42.6499L20.1316 40.92V37.4399L23.1116 39.17L37.4616 47.4399L38.2216 47.8799L38.2916 47.9299Z" class="pr-icon-iso-duotone-primary-stroke" stroke-linejoin="round"/>
    <path d="M23.1216 42.6499V42.7099L23.1816 42.6799L23.1216 42.6499ZM67.0116 59.2899V59.3299L67.0416 59.3099L67.0116 59.2899ZM23.1216 42.6499V42.7099L23.1816 42.6799L23.1216 42.6499ZM23.1216 42.6499V42.7099L23.1816 42.6799L23.1216 42.6499ZM23.1216 42.6499V42.7099L23.1816 42.6799L23.1216 42.6499ZM23.1216 42.6499V42.7099L23.1816 42.6799L23.1216 42.6499ZM23.1216 42.6499V42.7099L23.1816 42.6799L23.1216 42.6499Z" class="pr-icon-iso-duotone-primary-stroke" stroke-linejoin="round"/>
    <path d="M67.0117 59.2899V59.33L63.2517 61.4999L62.5217 61.92L61.6817 61.4299L57.9717 59.2999L62.4917 56.6899L67.0117 59.2899Z" class="pr-icon-iso-duotone-primary-stroke" stroke-linejoin="round"/>
    <path d="M122.762 37.6301L107.722 46.3201L104.652 44.5501L101.662 42.8201L104.652 41.0901L110.692 37.6101L101.592 32.3601L107.612 28.8901L122.762 37.6301Z" class="pr-icon-iso-duotone-primary-stroke" stroke-linejoin="round"/>
    <path d="M66.9516 43.6298L62.4416 46.2298L57.9016 43.6098L62.3716 41.0298L62.4116 41.0098L66.9516 43.6298Z" class="pr-icon-iso-duotone-primary-stroke" stroke-linejoin="round"/>
    <path d="M77.3416 11.4099L71.3216 14.8799L62.2316 9.63992L53.2116 14.8499L47.1616 11.3499L62.2016 2.66992L77.3416 11.4099Z" class="pr-icon-iso-duotone-primary-stroke" stroke-linejoin="round"/>
    <path d="M77.3417 21.8301L71.3217 18.3501L62.2617 13.1201H62.2417L53.2117 18.3501L47.1617 21.8401L44.2017 23.5501L47.1617 25.2601L52.4417 28.3001L53.2117 28.7501L58.5017 31.8001L61.5317 33.5401L62.2917 33.9801L62.3717 34.0301L63.1017 33.6101L66.1117 31.8701L71.3217 28.8701L72.1317 28.4001L77.3417 25.3901L80.4317 23.6101L77.3417 21.8301ZM71.3217 23.6201L67.5817 25.7801L62.3417 28.8101L62.2917 28.7801L62.2417 28.7501L56.9617 25.7001L53.2617 23.5601L62.2417 18.3801L62.2917 18.3501L71.3217 23.5601L71.3717 23.5901L71.3217 23.6201Z" class="pr-icon-iso-duotone-primary-stroke" stroke-linejoin="round"/>
    <path d="M62.2917 18.3501V28.7801L62.2317 28.7501L56.9617 25.7001L53.2617 23.5601L62.2317 18.3801L62.2917 18.3501Z" class="pr-icon-iso-duotone-primary-stroke" stroke-linejoin="round"/>
    <path d="M71.3215 23.5601V23.6201L67.5815 25.7801L62.3415 28.8101L62.2915 28.7801V18.3501L71.3215 23.5601Z" class="pr-icon-iso-duotone-primary-stroke" stroke-linejoin="round"/>
    <path d="M76.0415 48.8701V54.0901L75.2215 53.6101L71.5215 51.4801L76.0415 48.8701Z" class="pr-icon-iso-duotone-primary-stroke" stroke-linejoin="round"/>
    <path d="M75.2216 53.6097L76.0416 54.0897V54.1097L71.5416 56.7097L70.7016 56.2197L68.4316 54.8997L67.0116 54.0797L62.4916 56.6897L57.9516 54.0697L56.3416 54.9897L54.1716 56.2497L53.4416 56.6697L48.9016 54.0497L49.6316 53.6297L53.4116 51.4497L48.8616 48.8197L51.0916 47.5297L53.3816 46.2197L56.3416 47.9297L57.9316 48.8397L60.1616 47.5497L62.4416 46.2297L64.6116 47.4897L66.9716 48.8597L68.4316 48.0197L71.4816 46.2497L73.6716 47.5097L76.0416 48.8697L71.5216 51.4797L75.2216 53.6097Z" class="pr-icon-iso-duotone-primary-stroke" stroke-linejoin="round"/>
    <path d="M76.0615 54.0999L76.0415 54.1099V54.0898L76.0615 54.0999Z" class="pr-icon-iso-duotone-primary-stroke" stroke-linejoin="round"/>
    <path d="M122.761 37.6299V57.6299L107.721 66.3199V46.3199L122.761 37.6299Z" class="pr-icon-iso-duotone-primary-stroke" stroke-linejoin="round"/>
    <path d="M101.591 35.8398L86.4714 27.1099L80.4214 30.5999L69.1514 37.1099L68.4214 37.5298L79.6914 44.0298L85.7414 47.5298L86.5014 47.9698L86.5914 48.0198L87.3214 47.5999L101.591 39.3599L104.641 37.5999L101.591 35.8398ZM86.5614 42.7899L86.5014 42.7599L80.4214 39.2498L77.4714 37.5498L80.4214 35.8499L86.5014 32.3398L95.5814 37.5799L86.5614 42.7899Z" class="pr-icon-iso-duotone-primary-stroke" stroke-linejoin="round"/>
    <path d="M95.5815 37.5799L86.5615 42.7899L86.5115 42.7599V32.3398L95.5815 37.5799Z" class="pr-icon-iso-duotone-primary-stroke" stroke-linejoin="round"/>
    <path d="M86.5114 32.3398V42.7599L80.4314 39.2498L77.4714 37.5498L80.4314 35.8499L86.5114 32.3398Z" class="pr-icon-iso-duotone-primary-stroke" stroke-linejoin="round"/>
    <path d="M104.652 41.0898V37.5999L101.592 35.8398V32.3599L110.692 37.6099L104.652 41.0898Z" class="pr-icon-iso-duotone-primary-stroke" stroke-linejoin="round"/>
    <path d="M104.652 37.6001V41.0901L101.662 42.8201V52.3301L101.592 52.3601L101.662 52.3901V59.3301L86.5916 68.0201V48.0201L87.3216 47.6001L101.592 39.3601L104.652 37.6001Z" class="pr-icon-iso-duotone-primary-stroke" stroke-linejoin="round"/>
    <path d="M107.722 46.3198V66.3198L101.662 62.8198V42.8198L104.652 44.5498L107.722 46.3198Z" class="pr-icon-iso-duotone-primary-stroke" stroke-linejoin="round"/>
    <path d="M71.5515 56.7101V60.2001L67.0415 62.8V59.3101L67.0115 54.0801L68.4315 54.9001L70.7014 56.2201L71.5515 56.7101Z" class="pr-icon-iso-duotone-primary-stroke" stroke-linejoin="round"/>
    <path d="M80.4316 23.6099V30.5999L69.1616 37.1099L68.4316 37.5298V45.2899L66.9616 46.1399L66.9516 43.6299L62.4116 41.0099L62.3716 41.0298V34.0298L63.1016 33.6099L66.1116 31.8698L71.3216 28.8698L72.1316 28.3998L77.3416 25.3899L80.4316 23.6099Z" class="pr-icon-iso-duotone-primary-stroke" stroke-linejoin="round"/>
    <path d="M55.4916 37.02L44.1916 30.49L38.1816 27.02L23.1116 35.71L20.1216 37.44L23.1116 39.17L37.4516 47.44L38.2116 47.88L38.2916 47.93L39.0216 47.51L45.0316 44.04L56.3416 37.51L55.4916 37.02ZM44.2016 39.28L38.2716 42.7L38.2216 42.67L29.1916 37.46L38.2216 32.25L44.2016 35.7L47.3016 37.49L44.2016 39.28Z" class="pr-icon-iso-duotone-primary-stroke" stroke-linejoin="round"/>
    <path d="M38.2214 32.25V42.67L29.1914 37.46L38.2214 32.25Z" class="pr-icon-iso-duotone-primary-stroke" stroke-linejoin="round"/>
    <path d="M47.2914 37.49L44.2014 39.28L38.2714 42.7L38.2214 42.67V32.25L44.2014 35.7L47.2914 37.49Z" class="pr-icon-iso-duotone-primary-stroke" stroke-linejoin="round"/>
    <path d="M62.3714 41.0298L57.9014 43.6098L57.9114 46.2498L56.3514 45.3498V37.5098L55.4914 37.0198L44.2014 30.4898V23.5498L47.1614 25.2598L52.4414 28.2998L53.2114 28.7498L58.4914 31.7998L61.5314 33.5398L62.2914 33.9798L62.3714 34.0298V41.0298Z" class="pr-icon-iso-duotone-primary-stroke" stroke-linejoin="round"/>
    <path d="M56.3515 37.5098V47.9297L53.3815 46.2198L51.1015 47.5298L48.8715 48.8198V61.8298L38.3015 67.9297V47.9297L39.0315 47.5098L45.0415 44.0398L56.3515 37.5098Z" class="pr-icon-iso-duotone-primary-stroke" stroke-linejoin="round"/>
    <path d="M20.1315 40.9197L23.1115 42.6497V42.7097L20.1315 44.4397L17.1615 46.1497L2.02148 37.4097L17.0615 28.7197L23.1115 32.2197L14.0915 37.4297L20.1315 40.9197Z" class="pr-icon-iso-duotone-primary-stroke" stroke-linejoin="round"/>
    <path d="M23.1115 32.2197V35.7097L20.1316 37.4397V40.9197L14.0916 37.4297L23.1115 32.2197Z" class="pr-icon-iso-duotone-primary-stroke" stroke-linejoin="round"/>
    <path d="M23.1816 42.6797V62.6797L17.1616 66.1497V46.1497L20.1316 44.4397L23.1216 42.7097L23.1816 42.6797Z" class="pr-icon-iso-duotone-primary-stroke" stroke-linejoin="round"/>
    <path d="M17.1615 46.1501V66.1501L2.02148 57.4102V37.4102L17.1615 46.1501Z" class="pr-icon-iso-duotone-primary-stroke" stroke-linejoin="round"/>
    <path d="M67.0115 54.0801V59.2901L62.4915 56.6901L67.0115 54.0801Z" class="pr-icon-iso-duotone-primary-stroke" stroke-linejoin="round"/>
    <path d="M67.0115 59.3301V62.8201L66.2815 63.2401L62.5415 65.4001L62.5215 65.3901V61.9201L63.2515 61.5001L67.0115 59.3301Z" class="pr-icon-iso-duotone-primary-stroke" stroke-linejoin="round"/>
    <path d="M77.6314 63.6902L76.0514 64.6002L76.0414 64.6102L72.3414 66.7401L71.5514 67.2002L67.0414 69.8001L67.0114 69.8202L62.5814 72.3701L62.5214 72.3401L57.9714 69.7101L57.9514 69.7002L53.4414 67.0901L52.6514 66.6402L48.9014 64.4702L48.8714 64.4601L47.4414 63.6302L48.8714 62.8102L48.9014 62.7902L53.4414 60.1702L53.4614 60.1602L57.9514 62.7502L57.9714 62.7701L58.6714 63.1702L62.5214 65.3902L62.5414 65.4001L66.2814 63.2401L67.0114 62.8202L67.0414 62.8001L71.5514 60.2002L71.5714 60.1902L76.0414 62.7701L76.0514 62.7802L77.6314 63.6902Z" class="pr-icon-iso-duotone-primary-stroke" stroke-linejoin="round"/>
    <path d="M66.9714 48.8599L64.6214 47.4899L62.4414 46.2299L66.9514 43.6299L66.9614 46.1399L66.9714 48.8599Z" class="pr-icon-iso-duotone-primary-stroke" stroke-linejoin="round"/>
    <path d="M62.4914 56.6898L57.9714 59.2998L57.9514 54.0698L62.4914 56.6898Z" class="pr-icon-iso-duotone-primary-stroke" stroke-linejoin="round"/>
    <path d="M62.4414 46.2299L60.1614 47.5498L57.9314 48.8398L57.9114 46.2498L57.9014 43.6099L62.4414 46.2299Z" class="pr-icon-iso-duotone-primary-stroke" stroke-linejoin="round"/>
    <path d="M77.6316 63.6899V83.6899L62.5815 92.3699V72.3699L67.0116 69.8199L67.0416 69.7999L71.5515 67.2L72.3416 66.7399L76.0416 64.61L76.0515 64.5999L77.6316 63.6899Z" class="pr-icon-iso-duotone-primary-stroke" stroke-linejoin="round"/>
    <path d="M76.0415 54.1099V62.7698L71.5715 60.1898L71.5515 60.1999V56.7098L76.0415 54.1099Z" class="pr-icon-iso-duotone-primary-stroke" stroke-linejoin="round"/>
    <path d="M76.0515 62.7797V61.9297" class="pr-icon-iso-duotone-primary-stroke" stroke-linejoin="round"/>
    <path d="M57.9514 54.0698V62.7498L53.4614 60.1598L53.4414 60.1698V56.6698L54.1714 56.2498L56.3514 54.9898L57.9514 54.0698Z" class="pr-icon-iso-duotone-primary-stroke" stroke-linejoin="round"/>
    <path d="M53.4414 56.6698V60.1698L48.9014 62.7898V54.0498L53.4414 56.6698Z" class="pr-icon-iso-duotone-primary-stroke" stroke-linejoin="round"/>
    <path d="M53.4116 51.4498L49.6316 53.6298L48.9016 54.0498V61.8098L48.8716 61.8298V48.8198L53.4116 51.4498Z" class="pr-icon-iso-duotone-primary-stroke" stroke-linejoin="round"/>
    <path d="M48.8716 62.8101V61.8301" class="pr-icon-iso-duotone-primary-stroke" stroke-linejoin="round"/>
    <path d="M77.3415 11.4102V21.8302L71.3215 18.3502V14.8802L77.3415 11.4102Z" class="pr-icon-iso-duotone-primary-stroke" stroke-linejoin="round"/>
    <path d="M71.3215 14.8801V18.3501L62.2615 13.1201L62.2314 13.1301V9.64014L71.3215 14.8801Z" class="pr-icon-iso-duotone-primary-stroke" stroke-linejoin="round"/>
    <path d="M62.2314 9.64014V13.1301L53.2114 18.3501V14.8501L62.2314 9.64014Z" class="pr-icon-iso-duotone-primary-stroke" stroke-linejoin="round"/>
    <path d="M53.2116 14.8501V18.3501L47.1616 21.8401V11.3501L53.2116 14.8501Z" class="pr-icon-iso-duotone-primary-stroke" stroke-linejoin="round"/>
</svg>