<svg width="48" height="48" viewBox="0 0 134 99" class="pr-icon-iso-duotone-secondary"
     xmlns="http://www.w3.org/2000/svg" stroke-width="1px" stroke-linecap="round" stroke-linejoin="round">
    <path d="M13.0799 47.3036V67.3036L13.0499 61.4336L2.87988 61.4136V41.4136L13.0499 41.4336L13.0799 47.3036Z" class="pr-icon-iso-duotone-primary-stroke" stroke-linejoin="round"/>
    <path d="M33.4803 59.0836V79.0836L33.4503 73.2136L23.2803 73.1936V53.1936L33.4503 53.2136L33.4603 55.5336L33.4803 59.0836Z" class="pr-icon-iso-duotone-primary-stroke" stroke-linejoin="round"/>
    <path d="M64.0799 76.7435V96.7435L64.0499 90.8735L53.8799 90.8635V70.8635L64.0499 70.8735L64.0799 76.7435Z" class="pr-icon-iso-duotone-primary-stroke" stroke-linejoin="round"/>
    <path d="M131.66 37.7336V57.7336L64.0801 96.7436V76.7436L70.4101 73.0836L77.1701 69.1936L83.9201 65.2936L90.6901 61.3836L97.4501 57.4836L111.28 49.5036L131.66 37.7336Z" class="pr-icon-iso-duotone-primary-stroke" stroke-linejoin="round"/>
    <path d="M121.49 37.7136L121.46 31.8436L111.29 31.8236L111.26 25.9536L101.09 25.9336L101.06 20.0636L90.8899 20.0436L90.8599 14.1736L80.6899 14.1536L80.6599 8.28356L70.4899 8.26356L70.4599 2.39355L2.87988 41.4136L13.0499 41.4336L13.0799 47.3036L23.2499 47.3236V49.6436L23.2799 53.1936L33.4499 53.2136V55.5336L33.4799 59.0835H43.6499L43.6799 64.9736H53.8499L53.8799 70.8636H64.0499L64.0799 76.7436L70.4099 73.0835L77.1699 69.1936L83.9199 65.2936L90.6899 61.3836L97.4499 57.4836L111.28 49.5036L131.66 37.7336L121.49 37.7136ZM73.7299 59.4036L70.7799 61.1036L47.2999 47.5436L37.0999 41.6536L36.7299 41.4436L29.9799 37.5436L36.7299 33.6436L43.8499 37.7536L50.2499 41.4536L77.5399 57.2036L73.7299 59.4036ZM87.2499 51.5936L84.2899 53.3036L60.8199 39.7436L50.6099 33.8536L50.2499 33.6436L43.4899 29.7436L50.2499 25.8436L57.3699 29.9536L63.7699 33.6536L91.0499 49.4036L87.2499 51.5936ZM101.08 43.6036L97.8099 45.4936L64.1299 26.0536L63.7699 25.8436L57.0099 21.9436L63.7699 18.0436L104.57 41.5936L101.08 43.6036Z" class="pr-icon-iso-duotone-primary-stroke" stroke-linejoin="round"/>
    <path d="M63.7697 18.0435V25.8435L57.0098 21.9435L63.7697 18.0435Z" class="pr-icon-iso-duotone-primary-stroke" stroke-linejoin="round"/>
    <path d="M104.57 41.5935L101.08 43.6035L97.8095 45.4935L64.1295 26.0535L63.7695 25.8435V18.0435L104.57 41.5935Z" class="pr-icon-iso-duotone-primary-stroke" stroke-linejoin="round"/>
    <path d="M50.2502 25.8435V33.6435L43.4902 29.7435L50.2502 25.8435Z" class="pr-icon-iso-duotone-primary-stroke" stroke-linejoin="round"/>
    <path d="M91.05 49.4035L87.25 51.5935L84.29 53.3035L60.82 39.7435L50.61 33.8535L50.25 33.6435V25.8435L57.37 29.9535L63.77 33.6535L91.05 49.4035Z" class="pr-icon-iso-duotone-primary-stroke" stroke-linejoin="round"/>
    <path d="M36.7295 33.6436V41.4436L29.9795 37.5436L36.7295 33.6436Z" class="pr-icon-iso-duotone-primary-stroke" stroke-linejoin="round"/>
    <path d="M77.5395 57.2036L73.7295 59.4036L70.7795 61.1036L47.2995 47.5436L37.0995 41.6536L36.7295 41.4436V33.6436L43.8495 37.7536L50.2495 41.4536L77.5395 57.2036Z" class="pr-icon-iso-duotone-primary-stroke" stroke-linejoin="round"/>
    <path d="M53.8797 70.8636V90.8636L53.8497 84.9836L43.6797 84.9736V64.9736L53.8497 64.9836L53.8797 70.8636Z" class="pr-icon-iso-duotone-primary-stroke" stroke-linejoin="round"/>
    <path d="M43.6795 64.9735V84.9735L43.6495 79.0935L33.4795 79.0835V59.0835L43.6495 59.0935L43.6795 64.9735Z" class="pr-icon-iso-duotone-primary-stroke" stroke-linejoin="round"/>
    <path d="M23.2801 53.1935V73.1935L23.2501 67.3235L13.0801 67.3035V47.3035L23.2501 47.3235L23.2601 49.6435L23.2801 53.1935Z" class="pr-icon-iso-duotone-primary-stroke" stroke-linejoin="round"/>
</svg>