<svg width="48" height="48" viewBox="0 0 127 96" fill="#c8e7ff" xmlns="http://www.w3.org/2000/svg" stroke-width="1px" stroke-linecap="round" stroke-linejoin="round"><path d="M109.439 66.7058V86.7058C109.429 87.1358 109.339 87.5658 109.179 87.9958C108.649 89.4458 107.489 90.6858 105.669 91.7358L103.069 93.2358V73.2358L103.909 72.7558L105.669 71.7358C107.489 70.6858 108.649 69.4458 109.179 67.9958C109.339 67.5658 109.429 67.1358 109.439 66.7058Z" stroke="#229EFF" stroke-linejoin="round"/><path d="M107.31 18.1357V38.1357L86.7499 50.0057C85.5799 49.6657 84.3899 49.3457 83.1699 49.0557C80.6599 48.4857 78.1599 48.3557 75.6699 48.6557C73.1699 48.9557 71.0098 49.6258 69.1998 50.6758L66.5898 52.1758V61.6557L43.8799 74.7657V54.7657L107.31 18.1357Z" stroke="#229EFF" stroke-linejoin="round"/><path d="M61.0297 10.2057V30.1857C61.0397 32.2357 59.7997 33.9858 57.3097 35.4258C54.8097 36.8658 51.7896 37.5857 48.2296 37.5757C47.3296 37.5757 46.4496 37.5258 45.6196 37.4258V29.6657C45.6196 28.7157 45.2896 27.7657 44.6396 26.8157C43.8696 25.7157 42.9796 24.6557 41.9696 23.6257C41.4996 23.1357 40.9996 22.6557 40.4696 22.1857C39.0096 20.8757 37.2996 19.6357 35.3496 18.4557V10.1357C35.3596 12.1957 36.6196 13.9458 39.1296 15.3958C41.6296 16.8458 44.6696 17.5657 48.2296 17.5757C51.7896 17.5857 54.8097 16.8658 57.3097 15.4258C59.7897 13.9958 61.0297 12.2457 61.0297 10.2057Z" stroke="#229EFF" stroke-linejoin="round"/><path d="M124.86 47.0357V47.0557C124.86 49.1057 123.62 50.8457 121.13 52.2757C118.64 53.7157 115.62 54.4357 112.06 54.4257C108.5 54.4157 105.46 53.6957 102.95 52.2457C100.45 50.7957 99.1897 49.0457 99.1797 46.9857C99.1697 44.9357 100.41 43.1857 102.9 41.7457C105.39 40.3057 108.42 39.5957 111.98 39.5957C115.54 39.5957 118.57 40.3357 121.08 41.7857C123.58 43.2257 124.84 44.9857 124.86 47.0357Z" stroke="#229EFF" stroke-linejoin="round"/><path d="M109.439 66.3356V66.7056C109.429 67.1356 109.339 67.5656 109.179 67.9956C108.649 69.4456 107.489 70.6856 105.669 71.7356L103.909 72.7556L103.069 73.2356L74.7994 56.9156L66.5894 52.1756L69.1993 50.6756C71.0093 49.6256 73.1694 48.9556 75.6694 48.6556C78.1594 48.3556 80.6594 48.4856 83.1694 49.0556C84.3894 49.3456 85.5794 49.6656 86.7494 50.0056C88.2694 50.4456 89.7495 50.9356 91.1895 51.4656C93.7295 52.4156 96.1394 53.5456 98.4194 54.8556C98.6794 55.0056 98.9294 55.1556 99.1794 55.3056C101.139 56.4956 102.849 57.7356 104.299 59.0356C104.819 59.5056 105.319 59.9856 105.799 60.4756C106.799 61.5056 107.699 62.5656 108.469 63.6656C109.079 64.5556 109.409 65.4456 109.439 66.3356Z" stroke="#229EFF" stroke-linejoin="round"/><path d="M107.31 18.1355L43.8795 54.7655L42.8995 54.1955L39.2395 52.0855L34.7695 49.4955L39.2395 46.9155L42.9995 44.7455L45.6195 43.2355L98.1995 12.8755L107.31 18.1355Z" stroke="#229EFF" stroke-linejoin="round"/><path d="M61.0297 10.1856V10.2056C61.0297 12.2456 59.7898 13.9956 57.3098 15.4256C54.8098 16.8656 51.7897 17.5856 48.2297 17.5756C44.6697 17.5656 41.6297 16.8456 39.1297 15.3956C36.6197 13.9456 35.3597 12.1956 35.3497 10.1356C35.3397 8.08562 36.5796 6.33563 39.0696 4.89563C41.5596 3.45563 44.5897 2.74561 48.1497 2.74561C51.7097 2.75561 54.7397 3.48563 57.2497 4.92563C59.7597 6.37563 61.0197 8.12561 61.0297 10.1856Z" stroke="#229EFF" stroke-linejoin="round"/><path d="M45.6195 29.6655C45.6195 30.1555 45.5295 30.6555 45.3495 31.1455C44.8195 32.5955 43.6595 33.8355 41.8395 34.8855L40.0795 35.9055L39.2395 36.3855L2.76953 15.3255L5.36951 13.8255C7.17951 12.7755 9.33948 12.1055 11.8395 11.8055C14.3395 11.4955 16.8395 11.6355 19.3395 12.2055C22.1395 12.8655 24.8195 13.6755 27.3595 14.6155C29.8995 15.5655 32.3195 16.6955 34.5995 18.0055C34.8495 18.1555 35.0995 18.3055 35.3495 18.4555C37.2995 19.6355 39.0095 20.8755 40.4695 22.1855C40.9995 22.6555 41.4995 23.1355 41.9695 23.6255C42.9795 24.6555 43.8695 25.7155 44.6395 26.8155C45.2895 27.7655 45.6195 28.7155 45.6195 29.6655Z" stroke="#229EFF" stroke-linejoin="round"/><path d="M43.8795 54.7656V74.7656L34.7695 69.4956V49.4956L39.2395 52.0856L42.8995 54.1956L43.8795 54.7656Z" stroke="#229EFF" stroke-linejoin="round"/><path d="M103.069 73.2355V93.2355L66.5894 72.1755V52.1755L74.7994 56.9155L103.069 73.2355Z" stroke="#229EFF" stroke-linejoin="round"/><path d="M39.2395 36.3857V46.9157L34.7695 49.4957V53.8057L2.76953 35.3257V15.3257L39.2395 36.3857Z" stroke="#229EFF" stroke-linejoin="round"/><path d="M109.439 87.5156V86.7056" stroke="#229EFF" stroke-linejoin="round"/><path d="M109.439 66.3356V65.7756" stroke="#229EFF" stroke-linejoin="round"/><path d="M124.86 47.0556V67.0356C124.87 69.0956 123.63 70.8356 121.13 72.2756C118.64 73.7156 115.62 74.4356 112.06 74.4256C111.15 74.4256 110.28 74.3756 109.44 74.2756V66.3356C109.41 65.4456 109.08 64.5556 108.47 63.6656C107.7 62.5656 106.8 61.5056 105.8 60.4756C105.32 59.9856 104.82 59.5056 104.3 59.0356C102.85 57.7356 101.14 56.4956 99.1797 55.3056V46.9856C99.1897 49.0456 100.45 50.7956 102.95 52.2456C105.46 53.6956 108.5 54.4156 112.06 54.4256C115.62 54.4356 118.64 53.7156 121.13 52.2756C123.62 50.8456 124.86 49.1056 124.86 47.0556Z" stroke="#229EFF" stroke-linejoin="round"/><path d="M45.6193 29.6655V43.2355L42.9993 44.7455L39.2393 46.9155V36.3855L40.0792 35.9055L41.8392 34.8855C43.6592 33.8355 44.8192 32.5955 45.3492 31.1455C45.5292 30.6555 45.6193 30.1555 45.6193 29.6655Z" stroke="#229EFF" stroke-linejoin="round"/><path d="M45.6196 29.6656V29.2156" stroke="#229EFF" stroke-linejoin="round"/></svg>