<svg width="24" height="24" viewBox="0 0 127 95" class="pr-icon-iso-duotone-secondary" xmlns="http://www.w3.org/2000/svg" stroke-width="1px" stroke-linecap="round" stroke-linejoin="round">
    <path d="M85.2305 36.4534V45.4934L83.2104 44.3334L77.4004 40.9734L83.2104 37.6234L85.2305 36.4534Z" class="pr-icon-iso-duotone-primary-stroke" stroke-linejoin="round"/>
    <path d="M75.3906 30.7734L83.2107 26.2534V35.2834L75.3906 30.7734Z" class="pr-icon-iso-duotone-primary-stroke" stroke-linejoin="round"/>
    <path d="M116.521 18.3834V38.3834L102.541 46.4534L97.0408 43.2734L93.0508 45.5734V31.9334L99.2007 28.3834L116.521 18.3834Z" class="pr-icon-iso-duotone-primary-stroke" stroke-linejoin="round"/>
    <path d="M81.3901 52.3034L79.7202 53.2734L73.5703 56.8234V67.7934L69.5801 65.4934V45.4934L77.0603 49.8034L81.3901 52.3034Z" class="pr-icon-iso-duotone-primary-stroke" stroke-linejoin="round"/>
    <path d="M30.4602 68.0734V88.0734L2.91016 72.1635V52.1635L20.2302 62.1635L30.4602 68.0734Z" class="pr-icon-iso-duotone-primary-stroke" stroke-linejoin="round"/>
    <path d="M69.5798 45.4934V65.4934L61.76 70.0034L53.9299 65.4834V54.5234L51.9199 53.3634L44.0898 48.8434L51.9199 44.3234L61.76 50.0034L69.5798 45.4934Z" class="pr-icon-iso-duotone-primary-stroke" stroke-linejoin="round"/>
    <path d="M101.12 72.7334V92.7334L73.5703 76.8234V56.8234L79.0801 60.0034L90.8901 66.8234L101.12 72.7334Z" class="pr-icon-iso-duotone-primary-stroke" stroke-linejoin="round"/>
    <path d="M124.59 59.1834L107.27 69.1834L101.12 72.7334L90.8901 66.8234L79.0801 60.0034L73.5703 56.8234L79.7202 53.2734L81.3901 52.3034L77.0603 49.8034L69.5801 45.4934L61.7603 50.0034L51.9202 44.3234L44.0901 48.8434L51.9202 53.3634L53.9302 54.5234L51.9202 55.6834L30.4602 68.0734L20.2302 62.1634L2.91016 52.1634L26.3801 38.6134L34.2002 43.1234L36.2202 44.2934L44.0403 39.7834L34.2002 34.0934L57.6702 20.5434L65.5002 25.0634L67.5103 26.2234L75.3401 21.7134L65.5002 16.0334L88.9702 2.47339L116.52 18.3834L99.2002 28.3834L93.0503 31.9334L83.2102 26.2534L75.3901 30.7734L83.2102 35.2834L85.2302 36.4534L83.2102 37.6234L77.4001 40.9734L83.2102 44.3334L85.2302 45.4934L89.2102 47.7934L93.0503 45.5734L97.0403 43.2734L102.54 46.4534L124.59 59.1834Z" class="pr-icon-iso-duotone-primary-stroke" stroke-linejoin="round"/>
    <path d="M93.05 31.9334V45.5734L89.21 47.7934L85.23 45.4934V36.4534L83.21 35.2834V26.2534L93.05 31.9334Z" class="pr-icon-iso-duotone-primary-stroke" stroke-linejoin="round"/>
    <path d="M124.59 59.1833V79.1833L101.12 92.7334V72.7334L107.27 69.1833L124.59 59.1833Z" class="pr-icon-iso-duotone-primary-stroke" stroke-linejoin="round"/>
    <path d="M61.75 50.0034V70.0034" class="pr-icon-iso-duotone-primary-stroke" stroke-linejoin="round"/>
    <path d="M53.9299 54.5234V74.5234L30.46 88.0734V68.0734L51.9199 55.6834L53.9299 54.5234Z" class="pr-icon-iso-duotone-primary-stroke" stroke-linejoin="round"/>
    <path d="M51.9199 53.3634V44.3234" class="pr-icon-iso-duotone-primary-stroke" stroke-linejoin="round"/>
    <path d="M44.0403 39.7834L36.2202 44.2934L34.2002 43.1234V34.0934L44.0403 39.7834Z" class="pr-icon-iso-duotone-primary-stroke" stroke-linejoin="round"/>
    <path d="M75.3398 21.7134L67.51 26.2234L65.5 25.0634V16.0334L75.3398 21.7134Z" class="pr-icon-iso-duotone-primary-stroke" stroke-linejoin="round"/>
</svg>