<svg width="24" height="24" viewBox="0 0 95 103" class="pr-icon-iso-duotone-secondary" xmlns="http://www.w3.org/2000/svg" stroke-width="1px" stroke-linecap="round" stroke-linejoin="round">
    <path d="M53.4897 80.1948V100.195L42.4197 100.175V80.1748L53.3796 80.1948H53.4897Z" class="pr-icon-iso-duotone-primary-stroke" stroke-linejoin="round"/>
    <path d="M42.4197 80.1746V100.175L42.2698 74.2546C37.4598 73.9046 32.8296 73.1046 28.3696 71.8646C23.9096 70.6146 19.8296 68.9246 16.1296 66.7846C7.26964 61.6746 2.81954 55.5746 2.77954 48.4946V28.4946C2.79954 32.0546 3.9397 35.3746 6.1897 38.4346C8.1097 41.0446 10.8296 43.4646 14.3696 45.7146C14.9396 46.0746 15.5196 46.4346 16.1296 46.7846C19.8296 48.9246 23.9096 50.6146 28.3696 51.8646C29.5296 52.1846 30.6996 52.4746 31.8796 52.7446C32.0296 52.7746 32.1896 52.8146 32.3496 52.8446C34.7796 53.3646 37.2696 53.7646 39.8096 54.0346C40.6196 54.1246 41.4398 54.1946 42.2698 54.2546V56.2646L42.3496 67.7346L42.4197 80.1746Z" class="pr-icon-iso-duotone-primary-stroke" stroke-linejoin="round"/>
    <path d="M79.2096 10.3747C70.3496 5.25469 59.7894 2.68467 47.5294 2.66467C35.2694 2.64467 24.7396 5.1747 15.9296 10.2547C7.1296 15.3347 2.74945 21.4247 2.77945 28.4947C2.79945 32.0547 3.93961 35.3747 6.18961 38.4347C8.10961 41.0447 10.8295 43.4647 14.3695 45.7147C14.9395 46.0747 15.5195 46.4347 16.1295 46.7847C19.8295 48.9247 23.9095 50.6147 28.3695 51.8647C29.5295 52.1847 30.6995 52.4747 31.8795 52.7447C32.0295 52.7747 32.1895 52.8147 32.3495 52.8447C34.7795 53.3647 37.2695 53.7647 39.8095 54.0347C40.6195 54.1247 41.4397 54.1947 42.2697 54.2547V56.2646L42.3495 67.7347L42.4196 80.1747L53.3795 80.1946H53.4897L53.4596 74.2646L53.4196 67.7447V65.5447L53.3595 56.7447V54.2747C53.4695 54.2647 53.5896 54.2547 53.6996 54.2447C55.3496 54.1247 56.9795 53.9547 58.5795 53.7247C60.1095 53.5147 61.6095 53.2447 63.0995 52.9347C64.4895 52.6447 65.8696 52.3147 67.2296 51.9347C67.9896 51.7247 68.7396 51.5046 69.4696 51.2646C73.0496 50.1146 76.3596 48.6647 79.4096 46.9047C79.9496 46.5947 80.4696 46.2847 80.9696 45.9647C84.5096 43.7347 87.2396 41.3247 89.1496 38.7247C91.4196 35.6547 92.5595 32.3346 92.5595 28.7646V28.6647C92.5195 21.5847 88.0696 15.4847 79.2096 10.3747ZM80.9796 31.4446C80.3796 34.0646 78.8997 36.4747 76.5197 38.6747C75.1397 39.9647 73.4596 41.1846 71.4796 42.3246C70.8196 42.7046 70.1596 43.0646 69.4696 43.3946C66.0396 45.1146 62.2796 46.3447 58.1796 47.0947C56.7296 47.3647 55.2396 47.5747 53.6996 47.7147C51.7996 47.9047 49.8194 47.9847 47.7794 47.9847C47.0994 47.9847 46.4197 47.9846 45.7597 47.9546C44.2497 47.9046 42.7795 47.8046 41.3495 47.6446C40.8295 47.5946 40.3195 47.5246 39.8095 47.4546C37.2595 47.1046 34.8297 46.5846 32.5197 45.8846C32.2997 45.8246 32.0895 45.7546 31.8795 45.6946C29.7995 45.0246 27.8096 44.2147 25.9296 43.2547C25.2796 42.9347 24.6397 42.5947 24.0197 42.2347C23.8397 42.1347 23.6697 42.0347 23.4997 41.9247C21.6797 40.8447 20.1295 39.6947 18.8395 38.4847C18.5395 38.2047 18.2597 37.9246 17.9897 37.6446C16.0997 35.6446 14.8895 33.4946 14.3695 31.1946C14.1595 30.3246 14.0595 29.4346 14.0595 28.5146C14.0295 23.1946 17.2995 18.6347 23.8695 14.8347C30.4395 11.0447 38.3395 9.15468 47.5695 9.17468C56.7895 9.18468 64.7095 11.1047 71.3295 14.9247C77.9395 18.7347 81.2595 23.3146 81.2895 28.6446C81.2995 29.6046 81.1896 30.5346 80.9796 31.4446Z" class="pr-icon-iso-duotone-primary-stroke" stroke-linejoin="round"/>
    <path d="M67.4097 21.7646V35.4247L61.5295 32.0247L45.7598 41.1346V47.9547C44.2498 47.9047 42.7796 47.8047 41.3496 47.6447C40.8296 47.5947 40.3196 47.5247 39.8096 47.4547V37.6946L42.1997 36.3147L45.6396 34.3347L53.9797 29.5146L63.0996 24.2547L67.4097 21.7646Z" class="pr-icon-iso-duotone-primary-stroke" stroke-linejoin="round"/>
    <path d="M53.6997 45.7148V47.7148C51.7997 47.9048 49.8195 47.9848 47.7795 47.9848C47.0995 47.9848 46.4198 47.9848 45.7598 47.9548V41.1348L49.1997 43.1148L53.6997 45.7148Z" class="pr-icon-iso-duotone-primary-stroke" stroke-linejoin="round"/>
    <path d="M69.4697 36.6144L67.4097 37.8044L63.9797 39.7844L53.6997 45.7144L49.1997 43.1144L45.7598 41.1344L61.5295 32.0244L67.4097 35.4244L69.4697 36.6144Z" class="pr-icon-iso-duotone-primary-stroke" stroke-linejoin="round"/>
    <path d="M69.4697 36.6147V43.3947C66.0397 45.1147 62.2797 46.3447 58.1797 47.0947C56.7297 47.3647 55.2397 47.5747 53.6997 47.7147V45.7147L63.9797 39.7847L67.4097 37.8047L69.4697 36.6147Z" class="pr-icon-iso-duotone-primary-stroke" stroke-linejoin="round"/>
    <path d="M39.8096 37.6947V47.4547C37.2596 47.1047 34.8298 46.5847 32.5198 45.8847C32.2998 45.8247 32.0896 45.7547 31.8796 45.6947V33.1147L35.3196 35.1047L39.8096 37.6947Z" class="pr-icon-iso-duotone-primary-stroke" stroke-linejoin="round"/>
    <path d="M45.6396 18.3046L36.9097 23.3446L25.9297 29.6846L21.8596 27.3346L17.9897 25.1046L37.6997 13.7246L45.6396 18.3046Z" class="pr-icon-iso-duotone-primary-stroke" stroke-linejoin="round"/>
    <path d="M25.9297 29.6845V43.2545C25.2797 42.9345 24.6398 42.5945 24.0198 42.2345C23.8398 42.1345 23.6698 42.0345 23.4998 41.9245C21.6798 40.8445 20.1296 39.6945 18.8396 38.4845C18.5396 38.2045 18.2597 37.9245 17.9897 37.6445V25.1045L21.8596 27.3345L25.9297 29.6845Z" class="pr-icon-iso-duotone-primary-stroke" stroke-linejoin="round"/>
    <path d="M45.6396 18.3047V25.1747L37.1497 30.0746L31.8796 33.1147V45.6946C29.7996 45.0246 27.8097 44.2147 25.9297 43.2547V29.6847L36.9097 23.3447L45.6396 18.3047Z" class="pr-icon-iso-duotone-primary-stroke" stroke-linejoin="round"/>
    <path d="M67.4097 21.7645L63.0996 24.2546L53.9797 29.5145L45.6396 34.3345L42.1997 36.3146L39.8096 37.6945L35.3196 35.1046L31.8796 33.1146L37.1497 30.0745L45.6396 25.1746L49.9197 22.6945L59.4697 17.1846L67.4097 21.7645Z" class="pr-icon-iso-duotone-primary-stroke" stroke-linejoin="round"/>
    <path d="M81.2895 28.6444C81.2995 29.6044 81.1897 30.5344 80.9797 31.4444C80.3797 34.0644 78.8997 36.4745 76.5197 38.6745C75.1097 37.3545 73.3696 36.1045 71.3296 34.9245C70.0696 34.1945 68.7596 33.5444 67.4096 32.9544V21.7644L59.4697 17.1845L49.9196 22.6944L45.6396 25.1745V18.3045L37.6997 13.7245L17.9897 25.1045V37.6444C16.0997 35.6444 14.8896 33.4944 14.3696 31.1944C14.1596 30.3244 14.0595 29.4344 14.0595 28.5144C14.0295 23.1944 17.2996 18.6344 23.8696 14.8344C30.4396 11.0444 38.3395 9.15447 47.5695 9.17447C56.7895 9.18447 64.7096 11.1045 71.3296 14.9245C77.9396 18.7345 81.2595 23.3144 81.2895 28.6444Z" class="pr-icon-iso-duotone-primary-stroke" stroke-linejoin="round"/>
    <path d="M92.5596 28.7646V48.6647C92.5996 55.7347 88.2097 61.8247 79.4097 66.9047C75.7297 69.0247 71.6697 70.7047 67.2297 71.9347C62.8097 73.1547 58.2297 73.9346 53.4597 74.2646L53.4197 67.7447V65.5447L53.3596 56.7447V54.2747C53.4696 54.2647 53.5897 54.2547 53.6997 54.2447C55.3497 54.1247 56.9796 53.9547 58.5796 53.7247C60.1096 53.5147 61.6096 53.2447 63.0996 52.9347C64.4896 52.6447 65.8697 52.3147 67.2297 51.9347C67.9897 51.7247 68.7397 51.5046 69.4697 51.2646C73.0497 50.1146 76.3597 48.6647 79.4097 46.9047C79.9497 46.5947 80.4697 46.2847 80.9697 45.9647C84.5097 43.7347 87.2397 41.3247 89.1497 38.7247C91.4197 35.6547 92.5596 32.3346 92.5596 28.7646Z" class="pr-icon-iso-duotone-primary-stroke" stroke-linejoin="round"/>
    <path d="M42.2698 54.2549V74.2549" class="pr-icon-iso-duotone-primary-stroke" stroke-linejoin="round"/>
</svg>