<svg width="48" height="48" viewBox="0 0 131 98" class="pr-icon-iso-duotone-secondary"
     xmlns="http://www.w3.org/2000/svg" stroke-width="1px" stroke-linecap="round" stroke-linejoin="round">
    <path d="M74.79 75.36V95.36L2.04004 53.36V33.36L19.3601 43.36L46.6401 59.11L56.76 64.9501L74.79 75.36Z" class="pr-icon-iso-duotone-primary-stroke" stroke-linejoin="round"/>
    <path d="M121.64 39.7901L107.19 31.4501L121.64 23.1001L92.55 6.30005L78.0901 14.6501L56.26 2.05005L2.04004 33.36L19.3601 43.36L46.6401 59.11L56.76 64.9501L74.79 75.36L111.69 54.05L129.01 44.05L121.64 39.7901ZM73.8701 47.1301L72.7 46.9801L68.5601 46.4501L40.1702 42.8401L66.22 27.8L72.7 24.0601L76.3601 33.6501L81.8901 48.1501L73.8701 47.1301ZM99.9102 27.2501L92.5901 23.0201L85.3601 18.8501L92.5901 14.6801L107.14 23.0801L99.9102 27.2501Z" class="pr-icon-iso-duotone-primary-stroke" stroke-linejoin="round"/>
    <path d="M92.5903 14.6801V23.0201L85.3604 18.8501L92.5903 14.6801Z" class="pr-icon-iso-duotone-primary-stroke" stroke-linejoin="round"/>
    <path d="M107.14 23.0801L99.9099 27.2501L92.5898 23.0201V14.6801L107.14 23.0801Z" class="pr-icon-iso-duotone-primary-stroke" stroke-linejoin="round"/>
    <path d="M72.6997 24.0601V46.9801L68.5598 46.4501L40.1699 42.8401L66.2197 27.8L72.6997 24.0601Z" class="pr-icon-iso-duotone-primary-stroke" stroke-linejoin="round"/>
    <path d="M81.8904 48.1501L73.8704 47.1301L72.7002 46.9801V24.0601L76.3604 33.6501L81.8904 48.1501Z" class="pr-icon-iso-duotone-primary-stroke" stroke-linejoin="round"/>
    <path d="M129.01 44.05V64.05L74.79 95.36V75.36L111.69 54.05L129.01 44.05Z" class="pr-icon-iso-duotone-primary-stroke" stroke-linejoin="round"/>
    <path d="M121.64 23.1001V39.7901L107.189 31.4501L121.64 23.1001Z" class="pr-icon-iso-duotone-primary-stroke" stroke-linejoin="round"/>
</svg>