<svg width="48" height="48" viewBox="0 0 118 102" fill="#c8e7ff" xmlns="http://www.w3.org/2000/svg" stroke-width="1px" stroke-linecap="round" stroke-linejoin="round"><path d="M68.371 51.75V71.75L65.3311 70V50L68.371 51.75Z" stroke="#229EFF" stroke-linejoin="round"/><path d="M46.501 71.3V91.3C46.291 91.31 46.081 91.3101 45.871 91.3101C43.241 91.3001 41.001 90.7701 39.141 89.7001C37.291 88.6301 36.3611 87.3301 36.3511 85.8101V65.8101C36.3611 67.3301 37.291 68.6301 39.141 69.7001C41.001 70.7701 43.241 71.3001 45.871 71.3101C46.081 71.3101 46.291 71.31 46.501 71.3Z" stroke="#229EFF" stroke-linejoin="round"/><path d="M46.5911 79.0199V99.0199L46.501 91.2998V71.2998L46.5911 79.0199Z" stroke="#229EFF" stroke-linejoin="round"/><path d="M56.001 79.04V99.04L46.5911 99.02V79.02L55.891 79.04H56.001Z" stroke="#229EFF" stroke-linejoin="round"/><path d="M115.301 44.0299L88.3411 48.4598L68.371 51.7499L65.3311 49.9999L65.251 35.1299L65.151 15.0698L115.301 44.0299Z" stroke="#229EFF" stroke-linejoin="round"/><path d="M56.001 79.0398H55.891L46.5911 79.0198L46.501 71.2997C46.291 71.3097 46.081 71.3097 45.871 71.3097C43.241 71.2997 41.001 70.7697 39.141 69.6997C37.291 68.6297 36.3611 67.3297 36.3511 65.8097C36.3411 64.2897 37.2611 62.9997 39.1011 61.9297C40.9411 60.8697 43.181 60.3397 45.811 60.3497C46.001 60.3497 46.1811 60.3498 46.3611 60.3698L46.291 54.4797L38.9811 50.2598L13.501 35.5497L38.761 30.5897L46.261 19.2598L46.171 2.17969L55.5811 2.19971L56.001 79.0398Z" stroke="#229EFF" stroke-linejoin="round"/><path d="M115.301 44.0298V64.0298L68.371 71.7498V51.7498L88.3411 48.4597L115.301 44.0298Z" stroke="#229EFF" stroke-linejoin="round"/><path d="M46.3611 60.3699C46.1811 60.3499 46.001 60.3499 45.811 60.3499C43.181 60.3399 40.9411 60.8698 39.1011 61.9298C37.2611 62.9998 36.3411 64.2898 36.3511 65.8098V68.7399L21.621 60.2399V46.3799C21.621 44.8599 20.6811 43.5599 18.8311 42.4899C17.3111 41.6199 15.541 41.0998 13.501 40.9398V35.5498L38.9811 50.2599L46.291 54.4799L46.3611 60.3699Z" stroke="#229EFF" stroke-linejoin="round"/><path d="M21.6209 46.38V46.4C21.6209 47.91 20.7009 49.2 18.8709 50.25C17.3509 51.13 15.5609 51.6501 13.5009 51.7901C13.0709 51.8301 12.621 51.84 12.161 51.84C9.52097 51.84 7.28099 51.3 5.43099 50.23C3.57099 49.16 2.64094 47.86 2.63094 46.34C2.62094 44.82 3.54094 43.53 5.38094 42.47C7.23094 41.4 9.46103 40.87 12.101 40.88C12.581 40.88 13.0509 40.9 13.5009 40.94C15.5409 41.1 17.311 41.62 18.831 42.49C20.681 43.56 21.6109 44.86 21.6209 46.38Z" stroke="#229EFF" stroke-linejoin="round"/><path d="M21.621 46.3999V66.3799C21.631 67.8999 20.711 69.1899 18.871 70.2499C17.031 71.3199 14.791 71.8498 12.161 71.8398C9.52101 71.8398 7.28103 71.2999 5.43103 70.2299C3.57103 69.1599 2.64098 67.8598 2.63098 66.3398V46.3398C2.64098 47.8598 3.57103 49.1599 5.43103 50.2299C7.28103 51.2999 9.52101 51.8398 12.161 51.8398C12.621 51.8398 13.071 51.8299 13.501 51.7899C15.561 51.6499 17.351 51.1299 18.871 50.2499C20.701 49.1999 21.621 47.9099 21.621 46.3999Z" stroke="#229EFF" stroke-linejoin="round"/><path d="M65.3311 49.9999V69.9999L65.151 35.0698V15.0698L65.251 35.1299L65.3311 49.9999Z" stroke="#229EFF" stroke-linejoin="round"/></svg>