<svg width="48" height="48" viewBox="0 0 120 91" class="pr-icon-iso-duotone-secondary"
     xmlns="http://www.w3.org/2000/svg" stroke-width="1px" stroke-linecap="round" stroke-linejoin="round">
    <path d="M29.02 2.20996L2.66992 17.43L19.99 27.43L73.0298 58.05L91.0798 68.47L91.3298 68.33L100.11 63.26L117.43 53.26L29.02 2.20996ZM91.27 58.16L91.02 58.3L73.2798 48.05L64.5 42.98L64.75 42.84L73.2798 37.91L99.8098 53.22L91.27 58.16Z" class="pr-icon-iso-duotone-primary-stroke" stroke-linejoin="round"/>
    <path d="M99.8093 53.2199L91.2695 58.1599L91.0195 58.2999L73.2793 48.0499V37.9099L99.8093 53.2199Z" class="pr-icon-iso-duotone-primary-stroke" stroke-linejoin="round"/>
    <path d="M73.2798 37.9099V48.0499L64.5 42.9799L64.75 42.8399L73.2798 37.9099Z" class="pr-icon-iso-duotone-primary-stroke" stroke-linejoin="round"/>
    <path d="M91.0798 68.4699V88.4699L2.66992 37.4299V17.4299L19.99 27.4299L73.0298 58.05L91.0798 68.4699Z" class="pr-icon-iso-duotone-primary-stroke" stroke-linejoin="round"/>
    <path d="M117.43 53.26V73.26L91.0801 88.47V68.47L91.3301 68.33L100.11 63.26L117.43 53.26Z" class="pr-icon-iso-duotone-primary-stroke" stroke-linejoin="round"/>
</svg>