<svg width="48" height="48" viewBox="0 0 120 92" fill="#c8e7ff" xmlns="http://www.w3.org/2000/svg" stroke-width="1px" stroke-linecap="round" stroke-linejoin="round"><path d="M53.11 69.2499V89.2499L46.96 63.65V43.65L53.11 69.2499Z" stroke="#229EFF" stroke-linejoin="round"/><path d="M74.4703 45.9399V65.9399L53.1104 89.2499V69.2499L58.4103 63.46L70.9004 49.83L72.3704 48.23L74.4703 45.9399Z" stroke="#229EFF" stroke-linejoin="round"/><path d="M117.48 50.1299V70.1299L74.4697 65.9399V45.9399L77.1897 46.2L78.8698 46.37L90.7597 47.53L117.48 50.1299Z" stroke="#229EFF" stroke-linejoin="round"/><path d="M98.5096 39.18L89.3496 33.89L86.4196 32.2L109.1 7.77997L66.7997 20.87L35.7397 2.93994L42.7797 26.9999L42.9997 27.77L37.6296 29.41L2.63965 40.11L41.6696 43.23L46.9597 43.65L53.1096 69.2499L58.4096 63.46L70.8997 49.83L72.3697 48.23L74.4696 45.9399L77.1896 46.2L78.8697 46.37L90.7596 47.53L117.48 50.1299L98.5096 39.18ZM72.8697 38.99L72.3697 38.9399L68.1197 38.52L66.2196 40.54L59.4096 47.79L57.1096 37.79L59.2896 36.53L81.0797 23.96L72.3697 33.47L78.7697 37.17L83.8097 40.08L72.8697 38.99Z" stroke="#229EFF" stroke-linejoin="round"/><path d="M81.0794 23.96L72.3694 33.47V38.9399L68.1194 38.52L66.2194 40.54L59.4094 47.79L57.1094 37.79L59.2894 36.53L81.0794 23.96Z" stroke="#229EFF" stroke-linejoin="round"/><path d="M83.8101 40.08L72.8701 38.99L72.3701 38.9399V33.47L78.7701 37.17L83.8101 40.08Z" stroke="#229EFF" stroke-linejoin="round"/><path d="M42.9993 27.77L37.6292 29.41L35.7393 22.9399V2.93994L42.7793 26.9999L42.9993 27.77Z" stroke="#229EFF" stroke-linejoin="round"/><path d="M46.9597 43.65V63.65L2.63965 60.11V40.11L41.6696 43.23L46.9597 43.65Z" stroke="#229EFF" stroke-linejoin="round"/><path d="M109.1 7.77997V27.78L98.5099 39.18L89.3499 33.89L86.4199 32.2L109.1 7.77997Z" stroke="#229EFF" stroke-linejoin="round"/></svg>