<svg width="24" height="24" viewBox="0 0 125 94" class="pr-icon-iso-duotone-secondary" xmlns="http://www.w3.org/2000/svg" stroke-width="1px" stroke-linecap="round" stroke-linejoin="round">
    <path d="M14.9199 47.1601V67.1601L2.85986 67.0801V47.0801L14.9199 47.1601Z" class="pr-icon-iso-duotone-primary-stroke" stroke-linejoin="round"/>
    <path d="M2.85995 47.0799V67.0799L2.72998 42.4299V22.4299L2.83997 42.4299L2.85995 47.0799Z" class="pr-icon-iso-duotone-primary-stroke" stroke-linejoin="round"/>
    <path d="M79.7899 62.0099L79.5898 61.8899V45.1799L79.7299 52.1399V52.4899L79.7899 62.0099Z" class="pr-icon-iso-duotone-primary-stroke" stroke-linejoin="round"/>
    <path d="M122.42 52.2201V72.2201L88.35 72.1601V66.9501L85.3 65.1901L79.79 62.0101L79.73 52.4901V52.1401L96.2 52.1701L110.26 52.2001L122.31 52.2201H122.42Z" class="pr-icon-iso-duotone-primary-stroke" stroke-linejoin="round"/>
    <path d="M88.3499 66.95V86.95L79.8398 91.86V71.86L88.3499 66.95Z" class="pr-icon-iso-duotone-primary-stroke" stroke-linejoin="round"/>
    <path d="M122.42 52.22H122.31L110.26 52.2L96.2001 52.17L79.7301 52.14L79.5901 45.18L84.11 45.19L101.79 45.22L36.8 7.70004L45.3101 2.79004L110.3 40.31L110.23 27.49L122.29 27.57L122.42 52.22Z" class="pr-icon-iso-duotone-primary-stroke" stroke-linejoin="round"/>
    <path d="M79.8401 71.8601V91.8601L14.9201 54.3801V47.1601L14.8901 42.4501L14.8501 34.3401L28.9501 42.4801L41.0401 49.4601L79.7201 71.7901L79.8401 71.8601Z" class="pr-icon-iso-duotone-primary-stroke" stroke-linejoin="round"/>
    <path d="M88.35 66.9499L79.84 71.8599L79.72 71.7899L41.04 49.4599L28.95 42.4799L14.85 34.3399L14.89 42.4499L14.92 47.1599L2.85995 47.0799L2.83997 42.4299L2.72998 22.4299L36.8 22.4899L45.42 22.5099L45.43 22.8599L45.56 29.4699L39.85 29.4599L23.36 29.4299L45.56 42.2499L79.59 61.8899L79.79 62.0099L85.3 65.1899L88.35 66.9499Z" class="pr-icon-iso-duotone-primary-stroke" stroke-linejoin="round"/>
    <path d="M101.79 45.22L84.11 45.1899L79.5901 45.18V52.4L45.5601 32.7599V29.47L45.4301 22.86L45.4201 22.5099L36.8 22.49V7.69995L101.79 45.22Z" class="pr-icon-iso-duotone-primary-stroke" stroke-linejoin="round"/>
    <path d="M45.5599 29.4699V42.2499L23.3599 29.4299L39.8499 29.4599L45.5599 29.4699Z" class="pr-icon-iso-duotone-primary-stroke" stroke-linejoin="round"/>
</svg>