<svg width="24" height="24" viewBox="0 0 136 86" class="pr-icon-iso-duotone-secondary" xmlns="http://www.w3.org/2000/svg" stroke-width="1px" stroke-linecap="round" stroke-linejoin="round">
    <path d="M81.4501 63.52V83.52L61.67 72.1V59.6899L39.3301 46.79L32.7301 42.98L28.5801 40.58V33L32.6801 35.37L39.3 39.1899L45.9 43L81.4501 63.52Z" class="pr-icon-iso-duotone-primary-stroke" stroke-linejoin="round"/>
    <path d="M61.6704 59.6901L55.1005 63.4801L32.7704 50.5801L28.5804 48.1702L26.1604 46.7701L19.5504 42.9501L2.23047 32.9501L54.7704 2.62012L61.3805 6.44006L15.4104 32.9801L26.1205 39.1602L28.5804 40.5801L32.7305 42.9801L39.3304 46.7902L61.6704 59.6901Z" class="pr-icon-iso-duotone-primary-stroke" stroke-linejoin="round"/>
    <path d="M81.1201 2.66992L61.3801 14.0698L28.5801 32.9999L32.6801 35.3699L39.3 39.1898L45.9 42.9999L81.4501 63.5199L96.9601 54.5599L110.1 46.9799L116.67 43.1898L133.99 33.1898L81.1201 2.66992ZM110.06 39.3799L107.68 40.7499L97.6801 34.9799L84.55 27.3999L86.9301 26.0199L97.6801 19.8099L120.81 33.1699L110.06 39.3799Z" class="pr-icon-iso-duotone-primary-stroke" stroke-linejoin="round"/>
    <path d="M97.6808 19.8101V34.98L84.5508 27.4L86.9308 26.02L97.6808 19.8101Z" class="pr-icon-iso-duotone-primary-stroke" stroke-linejoin="round"/>
    <path d="M120.811 33.17L110.061 39.38L107.681 40.75L97.6807 34.98V19.8101L120.811 33.17Z" class="pr-icon-iso-duotone-primary-stroke" stroke-linejoin="round"/>
    <path d="M133.99 33.1899V53.1899L81.4502 83.52V63.52L96.9602 54.5601L110.1 46.98L116.67 43.1899L133.99 33.1899Z" class="pr-icon-iso-duotone-primary-stroke" stroke-linejoin="round"/>
    <path d="M61.3802 6.43994V14.0699L28.5802 33V40.58L26.1202 39.16L15.4102 32.98L61.3802 6.43994Z" class="pr-icon-iso-duotone-primary-stroke" stroke-linejoin="round"/>
    <path d="M55.1005 63.4802V83.4802L2.23047 52.9502V32.9502L19.5504 42.9502L26.1604 46.7703L28.5804 48.1703L32.7704 50.5802L55.1005 63.4802Z" class="pr-icon-iso-duotone-primary-stroke" stroke-linejoin="round"/>
    <path d="M61.6705 59.6899V79.6899L55.1006 83.48V63.48L61.6705 59.6899Z" class="pr-icon-iso-duotone-primary-stroke" stroke-linejoin="round"/>
</svg>