<svg width="48" height="48" viewBox="0 0 132 98" fill="#c8e7ff" xmlns="http://www.w3.org/2000/svg" stroke-width="1px" stroke-linecap="round" stroke-linejoin="round"><path d="M73.4202 75.4498V95.4498L59.3203 87.3098V67.3098L73.4202 75.4498Z" stroke="#229EFF" stroke-linejoin="round"/><path d="M94.4299 63.32V83.32L87.4299 79.28V67.37L87.3799 67.34V59.25L94.4299 63.32Z" stroke="#229EFF" stroke-linejoin="round"/><path d="M129.46 43.0999V63.0999L108.44 75.2299V55.2299L112.13 53.0999L129.46 43.0999Z" stroke="#229EFF" stroke-linejoin="round"/><path d="M30.9495 26.6699L23.9395 22.6199L16.9395 26.6699L23.9895 30.7399L30.9495 26.7099L30.9895 26.6899L30.9495 26.6699ZM44.9595 18.5799V18.6199L44.9995 18.5999L44.9595 18.5799ZM58.9695 2.3999L44.9595 10.4899L52.0095 14.5599L59.0095 10.5099L66.0596 14.5799L73.0696 10.5399L58.9695 2.3999ZM30.9895 42.8699V42.9699L31.0793 42.9199L30.9895 42.8699Z" stroke="#229EFF" stroke-linejoin="round"/><path d="M87.1594 18.6799L80.1594 22.7198L73.1094 18.6498L80.1194 14.6099L87.1594 18.6799Z" stroke="#229EFF" stroke-linejoin="round"/><path d="M44.9592 18.5798V18.6198L37.9993 22.6498L30.9492 18.5798L37.9492 14.5298L44.9592 18.5798Z" stroke="#229EFF" stroke-linejoin="round"/><path d="M16.9797 34.78L16.9397 34.8L9.97974 38.83L2.92969 34.76L9.92969 30.71L16.9397 34.76L16.9797 34.78Z" stroke="#229EFF" stroke-linejoin="round"/><path d="M45.1792 51.06L38.1692 55.11L31.1191 51.04L38.1292 46.99L45.1792 51.06Z" stroke="#229EFF" stroke-linejoin="round"/><path d="M59.2798 59.1998L52.2698 63.2399L45.2197 59.1699L52.2297 55.1299L59.2798 59.1998Z" stroke="#229EFF" stroke-linejoin="round"/><path d="M87.4302 67.3701L87.3801 67.4L73.4202 75.45L59.3203 67.3101L66.3301 63.27L73.3701 67.34L80.3801 63.3L87.3801 67.34L87.4302 67.3701Z" stroke="#229EFF" stroke-linejoin="round"/><path d="M129.459 43.1L112.129 53.1L108.439 55.23L90.5193 44.88L83.4692 40.81L80.1592 38.9L76.4192 36.74L73.1992 34.88L80.1592 30.86L87.1592 26.82L94.2092 22.75L129.459 43.1Z" stroke="#229EFF" stroke-linejoin="round"/><path d="M101.44 59.2798V79.2798L94.4297 83.3198V63.3198L101.44 59.2798Z" stroke="#229EFF" stroke-linejoin="round"/><path d="M101.44 59.28L94.4299 63.32L87.3799 59.25L94.3899 55.21L101.44 59.28Z" stroke="#229EFF" stroke-linejoin="round"/><path d="M87.4299 67.3699V87.3699L73.4199 95.4498V75.4498L87.3799 67.3998L87.4299 67.3699Z" stroke="#229EFF" stroke-linejoin="round"/><path d="M52.2698 63.2399V83.2399L45.2197 79.1699V59.1699L52.2698 63.2399Z" stroke="#229EFF" stroke-linejoin="round"/><path d="M59.2795 59.2V79.2L52.2695 83.24V63.24L59.2795 59.2Z" stroke="#229EFF" stroke-linejoin="round"/><path d="M45.1799 51.0601V71.0601L38.1699 75.11V55.11L45.1799 51.0601Z" stroke="#229EFF" stroke-linejoin="round"/><path d="M38.1692 55.11V75.11L31.1191 71.04V51.04L38.1692 55.11Z" stroke="#229EFF" stroke-linejoin="round"/><path d="M9.97974 38.83V58.83L2.92969 54.76V34.76L9.97974 38.83Z" stroke="#229EFF" stroke-linejoin="round"/><path d="M16.9795 34.7798V54.7798L9.97949 58.8298V38.8298L16.9395 34.7998L16.9795 34.7798Z" stroke="#229EFF" stroke-linejoin="round"/><path d="M24.0693 46.9699V66.9699L17.0293 62.8999V42.8999L20.2393 44.7599L23.9893 46.9199L24.0693 46.9699Z" stroke="#229EFF" stroke-linejoin="round"/><path d="M23.9895 30.7399V38.8699L17.0295 42.8999V46.7199L16.9795 46.6899V34.7799L16.9395 34.7599V26.6699L23.9895 30.7399Z" stroke="#229EFF" stroke-linejoin="round"/><path d="M31.0801 42.9199V62.9199L24.0703 66.9699V46.9699L27.7703 44.8299L30.9902 42.9699L31.0801 42.9199Z" stroke="#229EFF" stroke-linejoin="round"/><path d="M30.9893 42.8699V42.9698L27.7693 44.8298L24.0693 46.9698L23.9893 46.9199L20.2393 44.7599L17.0293 42.8998L23.9893 38.8699L24.0293 38.8499L30.9893 42.8699Z" stroke="#229EFF" stroke-linejoin="round"/><path d="M30.9902 26.6899V42.8699L24.0303 38.8499L23.9902 38.8699V30.7399L30.9502 26.7099L30.9902 26.6899Z" stroke="#229EFF" stroke-linejoin="round"/><path d="M37.9993 22.6498V42.6498L30.9893 38.5999V26.6899L30.9492 26.6699V18.5798L37.9993 22.6498Z" stroke="#229EFF" stroke-linejoin="round"/><path d="M30.9492 26.7099V26.6699" stroke="#229EFF" stroke-linejoin="round"/><path d="M66.0598 14.58V34.58L59.0098 30.51V10.51L66.0598 14.58Z" stroke="#229EFF" stroke-linejoin="round"/><path d="M73.0696 10.54V30.54L66.0596 34.58V14.58L73.0696 10.54Z" stroke="#229EFF" stroke-linejoin="round"/><path d="M45 18.5999V38.5999L38 42.6498V22.6498L44.96 18.6199L45 18.5999Z" stroke="#229EFF" stroke-linejoin="round"/><path d="M59.0098 10.51V30.51L52.0098 34.56V14.56L59.0098 10.51Z" stroke="#229EFF" stroke-linejoin="round"/><path d="M52.01 14.56V34.56L45 30.51V18.6L44.96 18.58V10.49L52.01 14.56Z" stroke="#229EFF" stroke-linejoin="round"/><path d="M108.439 55.2299V75.2299L101.439 71.1899V59.2798L94.3892 55.2098L87.3792 59.2499V63.0699L73.1992 54.8799V34.8799L76.4192 36.7399L80.1592 38.8998L83.4692 40.8099L90.5193 44.8799L108.439 55.2299Z" stroke="#229EFF" stroke-linejoin="round"/><path d="M80.1594 22.7199V30.8599L73.1995 34.8799V38.6999L73.1094 38.6499V18.6499L80.1594 22.7199Z" stroke="#229EFF" stroke-linejoin="round"/><path d="M87.1602 18.6799V26.8199L80.1602 30.8599V22.7199L87.1602 18.6799Z" stroke="#229EFF" stroke-linejoin="round"/></svg>