<svg width="24" height="24" viewBox="0 0 120 91" class="pr-icon-iso-duotone-secondary" xmlns="http://www.w3.org/2000/svg" stroke-width="1px" stroke-linecap="round" stroke-linejoin="round">
    <path d="M57.6584 49.2344V54.1743L55.7283 53.0543L53.3784 51.7043L57.6584 49.2344Z" class="pr-icon-iso-duotone-primary-stroke" stroke-linejoin="round"/>
    <path d="M57.7581 49.3644C57.7381 49.5444 57.6982 49.7244 57.6582 49.8944V49.2344C57.6582 49.2344 57.7281 49.3244 57.7581 49.3644Z" class="pr-icon-iso-duotone-primary-stroke" stroke-linejoin="round"/>
    <path d="M24.2683 68.5043V88.5043L16.9482 84.2842V64.2842L24.2683 68.5043Z" class="pr-icon-iso-duotone-primary-stroke" stroke-linejoin="round"/>
    <path d="M31.5486 64.3047V84.3047L24.2686 88.5048V68.5048L31.5486 64.3047Z" class="pr-icon-iso-duotone-primary-stroke" stroke-linejoin="round"/>
    <path d="M36.5784 67.2147V87.2147L31.5483 84.3047V64.3047L36.5784 67.2147Z" class="pr-icon-iso-duotone-primary-stroke" stroke-linejoin="round"/>
    <path d="M61.988 56.6748V76.6748L36.5781 87.2148V67.2148L41.8381 65.0348L57.6582 58.4749L61.988 56.6748Z" class="pr-icon-iso-duotone-primary-stroke" stroke-linejoin="round"/>
    <path d="M93.4683 41.2346V49.2747C93.0383 49.4347 92.6084 49.5746 92.1584 49.7146C91.4084 49.9446 90.6284 50.1446 89.8284 50.3046V43.3446L89.1584 42.9546L82.5083 39.1146C82.1983 38.9346 81.8783 38.7646 81.5483 38.6046V30.6846C81.5583 32.1646 82.1183 33.5146 83.2183 34.7346C83.9583 35.5546 84.9284 36.3146 86.1484 37.0146L93.4683 41.2346Z" class="pr-icon-iso-duotone-primary-stroke" stroke-linejoin="round"/>
    <path d="M89.8286 43.3447V50.3047C87.5886 50.7847 85.1686 51.0148 82.5786 51.0148H82.5586V47.5447L89.8286 43.3447Z" class="pr-icon-iso-duotone-primary-stroke" stroke-linejoin="round"/>
    <path d="M82.5585 47.5447V51.0148C82.2185 51.0148 81.8885 51.0148 81.5585 51.0048C76.2785 50.8648 71.7484 49.7048 67.9584 47.5148C66.9184 46.9148 66.3986 46.2148 66.3986 45.4048C66.3886 44.5948 66.8984 43.8947 67.9384 43.3047C68.3584 43.0547 68.8085 42.8647 69.2985 42.7247C69.9985 42.5147 70.7585 42.4047 71.5785 42.4147C71.7685 42.4147 71.9486 42.4147 72.1286 42.4147C73.2986 42.4847 74.3384 42.7847 75.2284 43.3047L81.5485 46.9547L82.5084 47.5048L82.5585 47.5347V47.5447Z" class="pr-icon-iso-duotone-primary-stroke" stroke-linejoin="round"/>
    <path d="M117.168 37.0646V37.1347C117.168 40.8647 115.409 44.1947 111.889 47.1047C110.799 48.0147 109.539 48.8746 108.119 49.6946L104.629 51.7046L104.479 51.7946C103.289 52.4846 102.039 53.1047 100.749 53.6547C99.5985 54.1547 98.4085 54.5947 97.1885 54.9747C95.9885 55.3547 94.7485 55.6746 93.4685 55.9446C92.2885 56.2046 91.0786 56.4146 89.8286 56.5746C88.5886 56.7346 87.3085 56.8546 86.0085 56.9346C84.8985 56.9946 83.7686 57.0247 82.6086 57.0247H82.5586C74.0586 56.9947 66.7685 55.2246 60.6785 51.7146C60.0085 51.3246 59.4285 50.9446 58.9385 50.5546C58.4885 50.2046 58.0985 49.8047 57.7585 49.3647C57.7285 49.3247 57.6887 49.2747 57.6587 49.2347L53.3787 51.7046L55.7285 53.0546L57.6587 54.1746L61.9885 56.6746L57.6587 58.4747L41.8386 65.0346L36.5786 67.2146L31.5486 64.3046L24.2686 68.5047L16.9485 64.2846L24.2285 60.0746L19.0386 57.0846L16.9087 55.8547L9.62866 60.0546L4.54858 57.1147L2.30859 55.8246L4.54858 54.5346L9.57861 51.6247L4.54858 48.7146L22.1985 34.5446L22.8086 34.0546L24.5986 35.0846L31.4087 39.0247L34.2085 37.4047L35.6885 36.5546C35.4785 36.5046 35.2786 36.4447 35.0786 36.3847C34.4686 36.2147 33.9087 36.0246 33.3987 35.8146C32.7287 35.5246 32.0587 35.1946 31.3887 34.8046C29.8987 33.9446 28.5985 33.0447 27.4685 32.1047C23.9685 29.1847 22.2185 25.8647 22.1985 22.1447C22.1685 17.2247 25.1885 13.0147 31.2485 9.51469L34.8887 7.41459C40.9587 3.91459 48.2485 2.17461 56.7585 2.18461C65.2785 2.20461 72.5885 3.97467 78.6885 7.49467C81.7385 9.25467 83.2686 11.3646 83.2886 13.8246V13.8446C83.2886 16.2946 81.7785 18.4047 78.7585 20.1447C75.7285 21.8947 72.0786 22.7647 67.8186 22.7547C63.5686 22.7447 59.9086 21.8647 56.8586 20.1047L49.5386 15.8747L56.8086 11.6746L64.1387 15.8947C65.1687 16.4947 66.3886 16.7946 67.7886 16.8046C69.1886 16.8046 70.4085 16.5046 71.4385 15.9146C72.4685 15.3146 72.9785 14.6146 72.9785 13.8046C72.9685 13.0046 72.4487 12.2946 71.4087 11.6946C67.3887 9.37462 62.5086 8.20462 56.7986 8.19462C51.0786 8.18462 46.2185 9.3347 42.2085 11.6447L38.5786 13.7447C34.5686 16.0547 32.5786 18.8646 32.5986 22.1646C32.6086 24.1146 33.3185 25.8947 34.7385 27.5047C35.6985 28.6147 36.9887 29.6246 38.6187 30.5746C38.6387 30.5846 38.6485 30.5947 38.6685 30.6047C39.6985 31.2047 40.9186 31.5047 42.3186 31.5047H42.4685C43.8085 31.4847 44.9785 31.1947 45.9685 30.6147C46.5585 30.2747 46.9785 29.9047 47.2185 29.4947C47.4185 29.1847 47.5085 28.8647 47.5085 28.5147C47.4985 27.7047 46.9785 27.0047 45.9385 26.4047L42.1785 24.2347L38.6187 22.1746L45.8987 17.9747L49.5386 20.0746L53.2185 22.2046C53.2185 22.2046 53.3086 22.2547 53.3486 22.2747C56.1786 23.9447 57.6586 25.9246 57.8086 28.2046C57.8186 28.3146 57.8186 28.4246 57.8186 28.5346V28.5546C57.8186 29.6846 57.4986 30.7346 56.8586 31.7046C56.1086 32.8546 54.9186 33.9046 53.2886 34.8446L50.5186 36.4446L46.8787 38.5446L39.6086 42.7447L38.7385 43.2447L46.0586 47.4747L46.7986 47.0446L54.1587 42.7946L57.8186 40.6846L57.8787 40.6447L60.6086 39.0746C62.5686 37.9446 64.7886 37.1746 67.2686 36.7846C68.1686 36.6346 69.0986 36.5347 70.0686 36.4947C70.5486 36.4647 71.0486 36.4546 71.5486 36.4546C75.1886 36.4646 78.3887 37.1147 81.1487 38.4047C81.2887 38.4647 81.4186 38.5347 81.5486 38.6047C81.8786 38.7647 82.1985 38.9347 82.5085 39.1147L89.1587 42.9546L89.8286 43.3446L82.5586 47.5446L82.5085 47.5147L81.5486 46.9646L75.2285 43.3146C74.3385 42.7946 73.2987 42.4946 72.1287 42.4246C71.9487 42.4246 71.7686 42.4246 71.5786 42.4246C70.7586 42.4146 69.9986 42.5247 69.2986 42.7347C68.8086 42.8747 68.3585 43.0646 67.9385 43.3146C66.8985 43.9046 66.3887 44.6046 66.3987 45.4146C66.3987 46.2246 66.9185 46.9247 67.9585 47.5247C71.7485 49.7147 76.2786 50.8747 81.5586 51.0147C81.8886 51.0247 82.2186 51.0247 82.5586 51.0247H82.5786C85.1686 51.0247 87.5886 50.7946 89.8286 50.3146C90.6286 50.1546 91.4087 49.9547 92.1587 49.7247C92.6087 49.5847 93.0385 49.4446 93.4685 49.2846C94.6785 48.8446 95.8187 48.3246 96.8987 47.7146C96.9887 47.6746 97.0687 47.6246 97.1587 47.5746L100.749 45.5047L100.799 45.4747C102.229 44.6547 103.399 43.7646 104.309 42.8146C105.959 41.1046 106.779 39.1846 106.769 37.0546C106.749 33.7546 104.728 30.9447 100.698 28.6147C99.6685 28.0247 98.4486 27.7146 97.0486 27.7146C95.6486 27.7146 94.4387 28.0147 93.3987 28.6047C92.3687 29.2047 91.8586 29.9046 91.8586 30.7146C91.8586 31.5146 92.3885 32.2246 93.4285 32.8246L100.749 37.0446L93.4685 41.2447L86.1487 37.0247C84.9287 36.3247 83.9585 35.5647 83.2185 34.7447C82.1185 33.5247 81.5586 32.1746 81.5486 30.6946C81.5486 30.3846 81.5687 30.0746 81.6187 29.7846C81.7987 28.6046 82.3586 27.5147 83.2886 26.5147C83.9986 25.7547 84.9286 25.0347 86.0786 24.3747C89.1086 22.6247 92.7586 21.7547 97.0186 21.7647C101.279 21.7747 104.929 22.6546 107.979 24.4146C114.079 27.9446 117.148 32.1646 117.168 37.0746V37.0646Z" class="pr-icon-iso-duotone-primary-stroke" stroke-linejoin="round"/>
    <path d="M117.168 37.1348V57.0647C117.198 61.9847 114.179 66.1947 108.119 69.6947L104.479 71.7947C98.4185 75.2947 91.1286 77.0348 82.6086 77.0248C74.6886 77.0048 67.8185 75.4747 61.9885 72.4347V56.6747L57.6587 54.1747V49.8948C57.6987 49.7248 57.7385 49.5447 57.7585 49.3647C58.0985 49.8047 58.4885 50.2047 58.9385 50.5547C59.4285 50.9447 60.0085 51.3247 60.6785 51.7147C66.7685 55.2247 74.0586 56.9948 82.5586 57.0248H82.6086C83.7686 57.0248 84.8985 56.9947 86.0085 56.9347C87.3085 56.8547 88.5886 56.7347 89.8286 56.5747C91.0786 56.4147 92.2885 56.2047 93.4685 55.9447C94.7485 55.6747 95.9885 55.3547 97.1885 54.9747C98.4085 54.5947 99.5985 54.1548 100.749 53.6548C102.039 53.1048 103.289 52.4847 104.479 51.7947L104.629 51.7047L108.119 49.6947C109.539 48.8747 110.799 48.0147 111.889 47.1047C115.409 44.1947 117.168 40.8648 117.168 37.1348Z" class="pr-icon-iso-duotone-primary-stroke" stroke-linejoin="round"/>
    <path d="M106.768 37.045C106.778 39.175 105.958 41.0951 104.308 42.8051C103.398 43.7551 102.228 44.6451 100.798 45.4651L100.748 45.4951V37.035L93.4282 32.8151C92.3882 32.2151 91.8684 31.5051 91.8584 30.7051C91.8584 29.8951 92.3684 29.1951 93.3984 28.5951C94.4384 28.0051 95.6483 27.7051 97.0483 27.7051C98.4483 27.7051 99.6682 28.0151 100.698 28.6051C104.728 30.9351 106.748 33.745 106.768 37.045Z" class="pr-icon-iso-duotone-primary-stroke" stroke-linejoin="round"/>
    <path d="M100.749 37.0342V45.4943L97.1589 47.5642C97.0689 47.6142 96.9889 47.6642 96.8989 47.7042C95.8189 48.3142 94.6788 48.8343 93.4688 49.2743V41.2343L100.749 37.0342Z" class="pr-icon-iso-duotone-primary-stroke" stroke-linejoin="round"/>
    <path d="M57.8184 28.5547V40.6847L54.1584 42.7947L46.7983 47.0447L46.0583 47.4747L38.7383 43.2448L39.6084 42.7448L46.8784 38.5447L50.5183 36.4447L53.2883 34.8447C54.9183 33.9047 56.1084 32.8547 56.8584 31.7047C57.4984 30.7347 57.8184 29.6847 57.8184 28.5547Z" class="pr-icon-iso-duotone-primary-stroke" stroke-linejoin="round"/>
    <path d="M83.2886 13.8447V26.5048C82.3586 27.5048 81.7987 28.5948 81.6187 29.7748C81.5687 30.0648 81.5486 30.3747 81.5486 30.6847V38.0048C81.4186 38.1348 81.2887 38.2748 81.1487 38.4048C78.3887 37.1148 75.1886 36.4647 71.5486 36.4547C71.0486 36.4547 70.5486 36.4648 70.0686 36.4948C69.0986 36.5348 68.1686 36.6347 67.2686 36.7847C64.7886 37.1747 62.5686 37.9447 60.6086 39.0747L57.8787 40.6448C57.8787 40.6448 57.8386 40.6247 57.8186 40.6147V28.5347C57.8186 28.4247 57.8186 28.3147 57.8086 28.2047C57.6586 25.9247 56.1786 23.9448 53.3486 22.2748C53.3086 22.2548 53.2585 22.2347 53.2185 22.2047L49.5386 20.0747V15.8748L56.8586 20.1047C59.9086 21.8647 63.5686 22.7448 67.8186 22.7548C72.0786 22.7648 75.7285 21.8948 78.7585 20.1448C81.7785 18.4048 83.2886 16.2947 83.2886 13.8447Z" class="pr-icon-iso-duotone-primary-stroke" stroke-linejoin="round"/>
    <path d="M35.6882 36.5544L34.2083 37.4045L31.4084 39.0245L24.5984 35.0845L22.8083 34.0544L22.1982 34.5444V22.1445C22.2182 25.8645 23.9683 29.1845 27.4683 32.1045C28.5983 33.0445 29.8984 33.9444 31.3884 34.8044C32.0584 35.1944 32.7284 35.5245 33.3984 35.8145C33.9084 36.0245 34.4684 36.2145 35.0784 36.3845C35.2784 36.4445 35.4782 36.5044 35.6882 36.5544Z" class="pr-icon-iso-duotone-primary-stroke" stroke-linejoin="round"/>
    <path d="M9.62866 60.0542V80.0542L2.30859 75.8242V55.8242L4.54858 57.1143L9.62866 60.0542Z" class="pr-icon-iso-duotone-primary-stroke" stroke-linejoin="round"/>
    <path d="M9.57886 51.6249L4.54883 54.5348V48.7148L9.57886 51.6249Z" class="pr-icon-iso-duotone-primary-stroke" stroke-linejoin="round"/>
    <path d="M16.9089 55.8545V75.8545L9.62891 80.0544V60.0544L16.9089 55.8545Z" class="pr-icon-iso-duotone-primary-stroke" stroke-linejoin="round"/>
    <path d="M24.2285 60.0745L16.9485 64.2844V75.8745L16.9087 75.8545V55.8545L19.0386 57.0845L24.2285 60.0745Z" class="pr-icon-iso-duotone-primary-stroke" stroke-linejoin="round"/>
    <path d="M72.9787 13.8044C72.9787 14.6144 72.4686 15.3144 71.4386 15.9144C70.4086 16.5044 69.1887 16.8044 67.7887 16.8044C66.3887 16.8044 65.1688 16.4945 64.1388 15.8945L56.8087 11.6744L49.5387 15.8745V20.0744L45.8988 17.9744L38.6188 22.1744V30.5744C36.9888 29.6244 35.6987 28.6145 34.7387 27.5045C33.3187 25.8945 32.6088 24.1144 32.5988 22.1644C32.5788 18.8644 34.5688 16.0544 38.5788 13.7444L42.2086 11.6445C46.2186 9.33447 51.0787 8.1844 56.7987 8.1944C62.5087 8.2044 67.3888 9.3744 71.4088 11.6944C72.4488 12.2944 72.9687 13.0044 72.9787 13.8044Z" class="pr-icon-iso-duotone-primary-stroke" stroke-linejoin="round"/>
    <path d="M47.5085 28.5149C47.5085 28.8649 47.4185 29.1849 47.2185 29.4949C46.9785 29.9049 46.5585 30.2749 45.9685 30.6149C44.9785 31.1949 43.8085 31.4849 42.4685 31.5049H42.3186C40.9186 31.5049 39.6985 31.2049 38.6685 30.6049C38.6485 30.5949 38.6387 30.5848 38.6187 30.5748V22.1748L42.1785 24.2349L45.9385 26.4049C46.9785 27.0049 47.4985 27.7049 47.5085 28.5149Z" class="pr-icon-iso-duotone-primary-stroke" stroke-linejoin="round"/>
</svg>