<svg width="24" height="24" viewBox="0 0 136 101" class="pr-icon-iso-duotone-secondary" xmlns="http://www.w3.org/2000/svg" stroke-width="1px" stroke-linecap="round" stroke-linejoin="round">
    <path d="M107.42 55.5301V75.5301L94.3203 67.9701V63.0901L85.2903 57.8801L81.0703 55.4401V40.3201L85.2102 42.7101L98.3901 50.3201L107.42 55.5301Z" class="pr-icon-iso-duotone-primary-stroke" stroke-linejoin="round"/>
    <path d="M54.8003 40.27V55.48L50.6501 57.88L41.7903 62.99V67.78L28.6201 75.39V55.39L37.4802 50.27L50.5703 42.71L54.8003 40.27Z" class="pr-icon-iso-duotone-primary-stroke" stroke-linejoin="round"/>
    <path d="M133.6 40.41L116.28 50.41L107.42 55.53L98.3901 50.32L85.2102 42.71L81.0703 40.32L89.9402 35.2L94.0803 32.81L107.25 25.2L133.6 40.41Z" class="pr-icon-iso-duotone-primary-stroke" stroke-linejoin="round"/>
    <path d="M94.0811 17.59L76.761 27.59L67.8909 32.71L58.8611 27.5L41.541 17.5L67.731 2.38L94.0811 17.59Z" class="pr-icon-iso-duotone-primary-stroke" stroke-linejoin="round"/>
    <path d="M54.8005 40.27L50.5706 42.71L37.4805 50.27L28.6204 55.39L19.5906 50.17L2.27051 40.17L28.4504 25.06L41.5405 32.62L45.7705 35.06L54.8005 40.27Z" class="pr-icon-iso-duotone-primary-stroke" stroke-linejoin="round"/>
    <path d="M133.6 40.41V60.41L107.42 75.53V55.53L116.28 50.41L133.6 40.41Z" class="pr-icon-iso-duotone-primary-stroke" stroke-linejoin="round"/>
    <path d="M94.3208 63.09V83.09L68.1406 98.21V78.21L77.0007 73.09L90.1008 65.53L94.3208 63.09Z" class="pr-icon-iso-duotone-primary-stroke" stroke-linejoin="round"/>
    <path d="M94.321 63.09L90.1011 65.53L77.001 73.09L68.1409 78.21L59.1111 72.99L45.9409 65.39L41.791 62.99L50.6509 57.88L54.801 55.48L63.751 50.32L67.8909 47.93L67.9709 47.88L72.1111 50.27L81.071 55.44L85.291 57.88L94.321 63.09Z" class="pr-icon-iso-duotone-primary-stroke" stroke-linejoin="round"/>
    <path d="M68.1409 78.21V98.21L41.791 82.99V62.99L45.9409 65.39L59.1111 72.99L68.1409 78.21Z" class="pr-icon-iso-duotone-primary-stroke" stroke-linejoin="round"/>
    <path d="M28.6204 55.39V75.39L2.27051 60.17V40.17L19.5906 50.17L28.6204 55.39Z" class="pr-icon-iso-duotone-primary-stroke" stroke-linejoin="round"/>
    <path d="M94.0808 17.59V32.81L89.9407 35.2L81.0708 40.32V45.1L72.1108 50.27L67.9707 47.88L67.8906 47.93V32.71L76.7607 27.59L94.0808 17.59Z" class="pr-icon-iso-duotone-primary-stroke" stroke-linejoin="round"/>
    <path d="M67.8909 32.71V47.93L63.751 50.32L54.801 45.15V40.27L45.771 35.06L41.541 32.62V17.5L58.8611 27.5L67.8909 32.71Z" class="pr-icon-iso-duotone-primary-stroke" stroke-linejoin="round"/>
</svg>