<svg width="24" height="24" viewBox="0 0 130 97" class="pr-icon-iso-duotone-secondary" xmlns="http://www.w3.org/2000/svg" stroke-width="1px" stroke-linecap="round" stroke-linejoin="round">
    <path d="M72.2896 74.48V94.48L2.76953 54.35V34.35L20.0896 44.35L39.2096 55.38L53.1095 63.41L56.5896 65.42L70.4995 73.45L72.2896 74.48Z" class="pr-icon-iso-duotone-primary-stroke" stroke-linejoin="round"/>
    <path d="M58.0396 2.43994L2.76953 34.3499L20.0896 44.3499L39.2096 55.3799L53.1095 63.4099L56.5896 65.4199L70.4995 73.4499L72.2896 74.4799L110.24 52.5699L127.56 42.5699L58.0396 2.43994ZM59.8396 23.4799L65.0696 20.4599L78.9696 28.4799L73.7395 31.4999L65.1595 36.4599L65.1095 36.4299L51.2495 28.4299L59.8396 23.4799ZM47.7996 46.3799L33.9795 38.3999L47.7996 30.4299L61.6996 38.4499L47.8795 46.4299L47.7996 46.3799ZM65.2595 56.4699L65.1996 56.4399L65.1796 56.4199H65.1595L51.3595 48.4399L65.1195 40.4899H65.1295L65.1796 40.4599L79.0796 48.4899L65.2595 56.4699ZM91.1195 41.5399L82.5396 46.4899L82.4895 46.4599L68.6295 38.4699L77.2196 33.5099L82.4496 30.4899L96.3495 38.5199L91.1195 41.5399Z" class="pr-icon-iso-duotone-primary-stroke" stroke-linejoin="round"/>
    <path d="M65.1794 40.46V56.42L65.1594 56.41L51.3594 48.44L65.1194 40.49H65.1294L65.1794 40.46Z" class="pr-icon-iso-duotone-primary-stroke" stroke-linejoin="round"/>
    <path d="M79.0797 48.49L65.2596 56.47L65.1997 56.44L65.1797 56.42V40.46L79.0797 48.49Z" class="pr-icon-iso-duotone-primary-stroke" stroke-linejoin="round"/>
    <path d="M47.7996 30.4299V46.3799L33.9795 38.3999L47.7996 30.4299Z" class="pr-icon-iso-duotone-primary-stroke" stroke-linejoin="round"/>
    <path d="M61.6998 38.4499L47.8798 46.4299L47.7998 46.3799V30.4299L61.6998 38.4499Z" class="pr-icon-iso-duotone-primary-stroke" stroke-linejoin="round"/>
    <path d="M65.11 36.43L51.25 28.43L59.8401 23.48L65.0701 20.46L65.0901 26.51L65.11 36.43Z" class="pr-icon-iso-duotone-primary-stroke" stroke-linejoin="round"/>
    <path d="M78.9694 28.48L73.7393 31.5L65.1593 36.46L65.1093 36.43L65.0894 26.51L65.0693 20.46L78.9694 28.48Z" class="pr-icon-iso-duotone-primary-stroke" stroke-linejoin="round"/>
    <path d="M82.4899 46.46L68.6299 38.47L77.22 33.51L82.45 30.49L82.47 36.54L82.4899 46.46Z" class="pr-icon-iso-duotone-primary-stroke" stroke-linejoin="round"/>
    <path d="M96.3491 38.52L91.1191 41.54L82.5392 46.49L82.4891 46.46L82.4692 36.54L82.4492 30.49L96.3491 38.52Z" class="pr-icon-iso-duotone-primary-stroke" stroke-linejoin="round"/>
    <path d="M127.559 42.5699V62.5699L72.2891 94.4799V74.4799L110.239 52.5699L127.559 42.5699Z" class="pr-icon-iso-duotone-primary-stroke" stroke-linejoin="round"/>
</svg>