<svg width="48" height="48" viewBox="0 0 118 96" class="pr-icon-iso-duotone-secondary"
     xmlns="http://www.w3.org/2000/svg" stroke-width="1px" stroke-linecap="round" stroke-linejoin="round">
    <path d="M115.53 53.5399V73.5399L95.1201 85.33V65.33L115.53 53.5399Z" class="pr-icon-iso-duotone-primary-stroke" stroke-linejoin="round"/>
    <path d="M84.6006 70.0399V70.0599C84.6006 70.9499 84.0206 71.74 82.8706 72.4C81.7206 73.07 80.3505 73.4 78.7905 73.4C77.2205 73.39 75.8507 73.06 74.6807 72.38C73.5207 71.71 72.9407 70.92 72.9307 70.02C72.9307 69.11 73.5006 68.32 74.6606 67.65C75.8206 66.99 77.1805 66.65 78.7505 66.66C80.3205 66.66 81.6906 66.9999 82.8506 67.6699C84.0106 68.3399 84.6006 69.1299 84.6006 70.0399Z" class="pr-icon-iso-duotone-primary-stroke" stroke-linejoin="round"/>
    <path d="M115.53 53.5399L95.1201 65.33L95.02 65.27L86.9102 60.58L95.02 55.9L107.32 48.7999L115.53 53.5399Z" class="pr-icon-iso-duotone-primary-stroke" stroke-linejoin="round"/>
    <path d="M72.3403 33.32L68.9304 31.35C71.2004 28.62 72.3403 25.75 72.3403 22.74V22.67C72.3303 21.66 72.2004 20.64 71.9404 19.59C70.8904 15.42 67.6002 11.73 62.0502 8.52005C55.2102 4.57005 47.0001 2.58998 37.4501 2.56998C27.8901 2.54998 19.7104 4.50996 12.9104 8.42996C6.11035 12.36 2.7202 17.09 2.7502 22.6C2.7702 26.27 4.30028 29.59 7.33028 32.56C8.86028 34.07 10.7703 35.48 13.0603 36.81C16.9803 39.07 21.3303 40.6901 26.1003 41.6501C28.0703 42.0501 30.1202 42.3401 32.2402 42.5201C38.1202 43.0101 43.7102 42.72 48.9902 41.64C50.2102 41.4 51.4103 41.1101 52.6003 40.7801L69.5502 50.57L70.4702 51.1L69.4802 51.67L54.1403 60.5201L62.3603 65.2701L77.7001 56.4101L95.0202 46.4101L72.3403 33.32ZM49.0202 23.68C48.6902 25.11 47.6102 26.3501 45.7702 27.4101C43.5302 28.7101 40.8003 29.35 37.5903 29.34C34.3903 29.34 31.6503 28.68 29.3903 27.38C27.5303 26.3 26.4303 25.05 26.1103 23.6C26.0303 23.29 25.9902 22.97 25.9902 22.64C25.9802 20.79 27.1003 19.22 29.3403 17.92C31.5903 16.63 34.3102 15.98 37.5202 15.99C40.7302 15.99 43.4602 16.65 45.7202 17.95C47.9802 19.26 49.1203 20.83 49.1303 22.69C49.1303 23.03 49.1002 23.36 49.0202 23.68Z" class="pr-icon-iso-duotone-primary-stroke" stroke-linejoin="round"/>
    <path d="M49.1304 22.6899C49.1304 23.0299 49.1003 23.3599 49.0203 23.6799C48.6903 25.1099 47.6103 26.35 45.7703 27.41C43.5303 28.71 40.8004 29.35 37.5904 29.34C34.3904 29.34 31.6504 28.68 29.3904 27.38C27.5304 26.3 26.4304 25.05 26.1104 23.6C26.0304 23.29 25.9903 22.97 25.9903 22.64C25.9803 20.79 27.1004 19.2199 29.3404 17.9199C31.5904 16.6299 34.3103 15.98 37.5203 15.99C40.7303 15.99 43.4603 16.6499 45.7203 17.9499C47.9803 19.2599 49.1204 20.8299 49.1304 22.6899Z" class="pr-icon-iso-duotone-primary-stroke" stroke-linejoin="round"/>
    <path d="M52.6001 40.78V60.78C46.2701 62.54 39.48 63.12 32.24 62.52C25 61.91 18.6101 60.0099 13.0601 56.8099C6.22006 52.8499 2.78 48.12 2.75 42.6V22.6C2.77 26.27 4.30008 29.5899 7.33008 32.5599C8.86008 34.0699 10.7701 35.4799 13.0601 36.8099C16.9801 39.0699 21.3301 40.69 26.1001 41.65C28.0701 42.05 30.12 42.34 32.24 42.52C38.12 43.01 43.71 42.72 48.99 41.64C50.21 41.4 51.4101 41.11 52.6001 40.78Z" class="pr-icon-iso-duotone-primary-stroke" stroke-linejoin="round"/>
    <path d="M72.3406 22.74V33.3199L68.9307 31.35C71.2007 28.62 72.3406 25.75 72.3406 22.74Z" class="pr-icon-iso-duotone-primary-stroke" stroke-linejoin="round"/>
    <path d="M95.0203 46.41V55.9L86.9104 60.58V71.09L84.6003 72.4299V70.0399C84.6003 69.1299 84.0103 68.3399 82.8503 67.6699C81.6903 66.9999 80.3202 66.66 78.7502 66.66C77.1802 66.65 75.8204 66.99 74.6604 67.65C73.5004 68.32 72.9304 69.11 72.9304 70.02V79.1699L62.3604 85.27V65.27L77.7002 56.41L95.0203 46.41Z" class="pr-icon-iso-duotone-primary-stroke" stroke-linejoin="round"/>
    <path d="M95.1201 65.33V85.33L86.9102 80.58V60.58L95.02 65.27L95.1201 65.33Z" class="pr-icon-iso-duotone-primary-stroke" stroke-linejoin="round"/>
    <path d="M84.6006 70.0599V90.0399C84.6006 90.9399 84.0306 91.73 82.8706 92.4C81.7206 93.07 80.3505 93.4 78.7905 93.4C77.2205 93.39 75.8507 93.06 74.6807 92.38C73.5207 91.71 72.9407 90.92 72.9307 90.02V70.02C72.9407 70.92 73.5207 71.71 74.6807 72.38C75.8507 73.06 77.2205 73.39 78.7905 73.4C80.3505 73.4 81.7206 73.07 82.8706 72.4C84.0206 71.74 84.6006 70.9499 84.6006 70.0599Z" class="pr-icon-iso-duotone-primary-stroke" stroke-linejoin="round"/>
    <path d="M62.3606 65.27V85.27L54.1406 80.52V60.52L62.3606 65.27Z" class="pr-icon-iso-duotone-primary-stroke" stroke-linejoin="round"/>
    <path d="M70.4705 51.1L69.4805 51.6699L54.1406 60.52V61.6699L52.6006 60.78V40.78L69.5505 50.5699L70.4705 51.1Z" class="pr-icon-iso-duotone-primary-stroke" stroke-linejoin="round"/>
</svg>