<svg xmlns="http://www.w3.org/2000/svg" viewBox="0 0 320 512"><!--! Font Awesome Pro 6.7.2 by @fontawesome - https://fontawesome.com License - https://fontawesome.com/license (Commercial License) Copyright 2024 Fonticons, Inc. --><defs><style>.fa-secondary{opacity:.4}</style></defs><path class="fa-secondary" d=""/><path class="fa-primary" d="M177 7c-9.4-9.4-24.6-9.4-33.9 0L47 103c-9.4 9.4-9.4 24.6 0 33.9s24.6 9.4 33.9 0l55-55 0 348.1L81 375c-9.4-9.4-24.6-9.4-33.9 0s-9.4 24.6 0 33.9l96 96c9.4 9.4 24.6 9.4 33.9 0l96-96c9.4-9.4 9.4-24.6 0-33.9s-24.6-9.4-33.9 0l-55 55 0-348.1 55 55c9.4 9.4 24.6 9.4 33.9 0s9.4-24.6 0-33.9L177 7z"/></svg>