<svg xmlns="http://www.w3.org/2000/svg" viewBox="0 0 512 512"><!--! Font Awesome Pro 6.7.2 by @fontawesome - https://fontawesome.com License - https://fontawesome.com/license (Commercial License) Copyright 2024 Fonticons, Inc. --><defs><style>.fa-secondary{opacity:.4}</style></defs><path class="fa-secondary" d="M48 256c0 114.9 93.1 208 208 208c48.8 0 93.7-16.8 129.1-44.9L92.9 126.9C64.8 162.3 48 207.2 48 256zM126.9 92.9l47.7 47.7c5.8-7.7 15.1-12.6 25.5-12.6l80 0c53 0 96 43 96 96c0 32.1-15.8 60.6-40 78l83.1 83.1C447.2 349.7 464 304.8 464 256c0-114.9-93.1-208-208-208c-48.8 0-93.7 16.8-129.1 44.9zm41.1 173L222.1 320l-6.1 0 0 40c0 13.3-10.7 24-24 24s-24-10.7-24-24l0-64 0-30.1zM216 176l0 6.1 85.1 85.1C317 259.3 328 242.9 328 224c0-26.5-21.5-48-48-48l-64 0z"/><path class="fa-primary" d="M256 464C141.1 464 48 370.9 48 256c0-48.8 16.8-93.7 44.9-129.1L385.1 419.1C349.7 447.2 304.8 464 256 464zm80-162c24.2-17.4 40-45.9 40-78c0-53-43-96-96-96l-80 0c-10.4 0-19.6 4.9-25.5 12.6L126.9 92.9C162.3 64.8 207.2 48 256 48c114.9 0 208 93.1 208 208c0 48.8-16.8 93.7-44.9 129.1L336 302zm-120-120l0-6.1 64 0c26.5 0 48 21.5 48 48c0 18.9-11 35.3-26.9 43.1L216 182.1zM256 512A256 256 0 1 0 256 0a256 256 0 1 0 0 512zM168 265.9l0 30.1 0 64c0 13.3 10.7 24 24 24s24-10.7 24-24l0-40 6.1 0L168 265.9z"/></svg>