<svg xmlns="http://www.w3.org/2000/svg" viewBox="0 0 640 512"><!--! Font Awesome Pro 6.7.2 by @fontawesome - https://fontawesome.com License - https://fontawesome.com/license (Commercial License) Copyright 2024 Fonticons, Inc. --><defs><style>.fa-secondary{opacity:.4}</style></defs><path class="fa-secondary" d="M48 64c0-8.8 7.2-16 16-16l256 0c8.8 0 16 7.2 16 16l0 351.7c4.6-8.2 10.2-15.9 16.5-22.7c-17.4 19.2-29 43.8-31.8 71c-.4 0-.6 0-.7 0l-80 0 0-64c0-26.5-21.5-48-48-48s-48 21.5-48 48l0 64-80 0c-8.8 0-16-7.2-16-16L48 64zm40 40l0 48c0 8.8 7.2 16 16 16l48 0c8.8 0 16-7.2 16-16l0-48c0-8.8-7.2-16-16-16l-48 0c-8.8 0-16 7.2-16 16zm0 128l0 48c0 8.8 7.2 16 16 16l48 0c8.8 0 16-7.2 16-16l0-48c0-8.8-7.2-16-16-16l-48 0c-8.8 0-16 7.2-16 16zM216 104l0 48c0 8.8 7.2 16 16 16l48 0c8.8 0 16-7.2 16-16l0-48c0-8.8-7.2-16-16-16l-48 0c-8.8 0-16 7.2-16 16zm0 128l0 48c0 8.8 7.2 16 16 16l48 0c8.8 0 16-7.2 16-16l0-48c0-8.8-7.2-16-16-16l-48 0c-8.8 0-16 7.2-16 16zM320.1 471.5c.1-2.5 .3-5.1 .5-7.6c-.3 2.4-.4 4.9-.5 7.6z"/><path class="fa-primary" d="M64 48l256 0c8.8 0 16 7.2 16 16l0 351.7c11.3-20 27.9-36.7 48-47.9l0-95.9L384 64c0-35.3-28.7-64-64-64L64 0C28.7 0 0 28.7 0 64L0 448c0 35.3 28.7 64 64 64l256 0c3.2 0 6.4-.2 9.5-.7c-6-10-9.5-21.8-9.5-34.4c0-4.4 .2-8.7 .7-13c-.2 0-.4 0-.7 0l-80 0 0-64c0-26.5-21.5-48-48-48s-48 21.5-48 48l0 64-80 0c-8.8 0-16-7.2-16-16L48 64c0-8.8 7.2-16 16-16zm24 56l0 48c0 8.8 7.2 16 16 16l48 0c8.8 0 16-7.2 16-16l0-48c0-8.8-7.2-16-16-16l-48 0c-8.8 0-16 7.2-16 16zM232 88c-8.8 0-16 7.2-16 16l0 48c0 8.8 7.2 16 16 16l48 0c8.8 0 16-7.2 16-16l0-48c0-8.8-7.2-16-16-16l-48 0zM88 232l0 48c0 8.8 7.2 16 16 16l48 0c8.8 0 16-7.2 16-16l0-48c0-8.8-7.2-16-16-16l-48 0c-8.8 0-16 7.2-16 16zm144-16c-8.8 0-16 7.2-16 16l0 48c0 8.8 7.2 16 16 16l48 0c8.8 0 16-7.2 16-16l0-48c0-8.8-7.2-16-16-16l-48 0zm344 56a80 80 0 1 0 -160 0 80 80 0 1 0 160 0zM352 477.1c0 19.3 15.6 34.9 34.9 34.9l218.2 0c19.3 0 34.9-15.6 34.9-34.9c0-51.4-41.7-93.1-93.1-93.1l-101.8 0c-51.4 0-93.1 41.7-93.1 93.1z"/></svg>