<svg xmlns="http://www.w3.org/2000/svg" width="24" height="24" viewBox="0 0 512 512">
    <path class="pr-icon-duotone-secondary" d="M48 256a208 208 0 1 0 416 0A208 208 0 1 0 48 256zm112-32c0-53 43-96 96-96s96 43 96 96l0 64c0 53-43 96-96 96s-96-43-96-96l0-64zm48 0l0 64c0 26.5 21.5 48 48 48s48-21.5 48-48l0-64c0-26.5-21.5-48-48-48s-48 21.5-48 48z"/>
    <path class="pr-icon-duotone-primary" d="M256 48a208 208 0 1 1 0 416 208 208 0 1 1 0-416zm0 464A256 256 0 1 0 256 0a256 256 0 1 0 0 512zm0-384c-53 0-96 43-96 96l0 64c0 53 43 96 96 96s96-43 96-96l0-64c0-53-43-96-96-96zm-48 96c0-26.5 21.5-48 48-48s48 21.5 48 48l0 64c0 26.5-21.5 48-48 48s-48-21.5-48-48l0-64z"/>
</svg>