<svg xmlns="http://www.w3.org/2000/svg" viewBox="0 0 512 512"><!--! Font Awesome Pro 6.7.2 by @fontawesome - https://fontawesome.com License - https://fontawesome.com/license (Commercial License) Copyright 2024 Fonticons, Inc. --><defs><style>.fa-secondary{opacity:.4}</style></defs><path class="fa-secondary" d="M48 256a208 208 0 1 0 416 0A208 208 0 1 0 48 256zm103-33l88-88c9.4-9.4 24.6-9.4 33.9 0l88 88c9.4 9.4 9.4 24.6 0 33.9s-24.6 9.4-33.9 0l-47-47L280 360c0 13.3-10.7 24-24 24s-24-10.7-24-24l0-150.1-47 47c-9.4 9.4-24.6 9.4-33.9 0s-9.4-24.6 0-33.9z"/><path class="fa-primary" d="M256 48a208 208 0 1 1 0 416 208 208 0 1 1 0-416zm0 464A256 256 0 1 0 256 0a256 256 0 1 0 0 512zM361 223l-88-88c-9.4-9.4-24.6-9.4-33.9 0l-88 88c-9.4 9.4-9.4 24.6 0 33.9s24.6 9.4 33.9 0l47-47L232 360c0 13.3 10.7 24 24 24s24-10.7 24-24l0-150.1 47 47c9.4 9.4 24.6 9.4 33.9 0s9.4-24.6 0-33.9z"/></svg>