<svg xmlns="http://www.w3.org/2000/svg" viewBox="0 0 512 512"><path class="pr-icon-duotone-secondary" d="M48 256a208 208 0 1 0 416 0A208 208 0 1 0 48 256zm96-88c0-13.3 10.7-24 24-24l152 0c13.3 0 24 10.7 24 24s-10.7 24-24 24l-94.1 0L361 327c9.4 9.4 9.4 24.6 0 33.9s-24.6 9.4-33.9 0l-135-135L192 328c0 13.3-10.7 24-24 24s-24-10.7-24-24l0-160z"/><path class="pr-icon-duotone-primary" d="M256 48a208 208 0 1 1 0 416 208 208 0 1 1 0-416zm0 464A256 256 0 1 0 256 0a256 256 0 1 0 0 512zm64-368l-152 0c-13.3 0-24 10.7-24 24l0 160c0 13.3 10.7 24 24 24s24-10.7 24-24l0-102.1L327 361c9.4 9.4 24.6 9.4 33.9 0s9.4-24.6 0-33.9l-135-135 94.1 0c13.3 0 24-10.7 24-24s-10.7-24-24-24z"/></svg>