<svg xmlns="http://www.w3.org/2000/svg" width="24" height="24" viewBox="0 0 448 512">
    <path class="pr-icon-duotone-secondary" d="M0 168c0 13.3 10.7 24 24 24l112 0c13.3 0 24-10.7 24-24l0-112c0-13.3-10.7-24-24-24l176 0c-13.3 0-24 10.7-24 24l0 112c0 13.3 10.7 24 24 24l112 0c13.3 0 24-10.7 24-24l0 176c0-13.3-10.7-24-24-24l-112 0c-13.3 0-24 10.7-24 24l0 112c0 13.3 10.7 24 24 24l-176 0c13.3 0 24-10.7 24-24l0-112c0-13.3-10.7-24-24-24L24 320c-13.3 0-24 10.7-24 24L0 168z"/>
    <path class="pr-icon-duotone-primary" d="M160 56c0-13.3-10.7-24-24-24s-24 10.7-24 24l0 88-88 0c-13.3 0-24 10.7-24 24s10.7 24 24 24l112 0c13.3 0 24-10.7 24-24l0-112zM24 320c-13.3 0-24 10.7-24 24s10.7 24 24 24l88 0 0 88c0 13.3 10.7 24 24 24s24-10.7 24-24l0-112c0-13.3-10.7-24-24-24L24 320zM336 56c0-13.3-10.7-24-24-24s-24 10.7-24 24l0 112c0 13.3 10.7 24 24 24l112 0c13.3 0 24-10.7 24-24s-10.7-24-24-24l-88 0 0-88zM312 320c-13.3 0-24 10.7-24 24l0 112c0 13.3 10.7 24 24 24s24-10.7 24-24l0-88 88 0c13.3 0 24-10.7 24-24s-10.7-24-24-24l-112 0z"/>
</svg>