<svg xmlns="http://www.w3.org/2000/svg" viewBox="0 0 512 512"><path class="pr-icon-duotone-secondary" d="M120 256a24 24 0 1 1 -48 0 24 24 0 1 1 48 0zm160 0a24 24 0 1 1 -48 0 24 24 0 1 1 48 0zm160 0a24 24 0 1 1 -48 0 24 24 0 1 1 48 0z"/><path class="pr-icon-duotone-primary" d="M416 280a24 24 0 1 1 0-48 24 24 0 1 1 0 48zm0-88a64 64 0 1 0 0 128 64 64 0 1 0 0-128zM256 280a24 24 0 1 1 0-48 24 24 0 1 1 0 48zm0-88a64 64 0 1 0 0 128 64 64 0 1 0 0-128zM120 256a24 24 0 1 1 -48 0 24 24 0 1 1 48 0zm-88 0a64 64 0 1 0 128 0A64 64 0 1 0 32 256z"/></svg>