<svg xmlns="http://www.w3.org/2000/svg" viewBox="0 0 512 512"><!--! Font Awesome Pro 6.7.2 by @fontawesome - https://fontawesome.com License - https://fontawesome.com/license (Commercial License) Copyright 2024 Fonticons, Inc. --><defs><style>.fa-secondary{opacity:.4}</style></defs><path class="fa-secondary" d="M48 256c0 59 24.6 112.2 64 150.1L112 288c0-13.3 10.7-24 24-24s24 10.7 24 24l0 152.6c28.7 15 61.4 23.4 96 23.4s67.3-8.5 96-23.4L352 288c0-13.3 10.7-24 24-24s24 10.7 24 24l0 118.1c39.4-37.9 64-91.1 64-150.1c0-114.9-93.1-208-208-208S48 141.1 48 256zm57-53.7c14.5-15.5 35.2-22.3 54.6-22.3s40.1 6.8 54.6 22.3c7.6 8.1 7.1 20.7-.9 28.3s-20.7 7.1-28.3-.9c-5.5-5.8-14.8-9.7-25.4-9.7s-19.9 3.8-25.4 9.7c-7.6 8.1-20.2 8.5-28.3 .9s-8.5-20.2-.9-28.3zM208 320c0-26.5 21.5-48 48-48s48 21.5 48 48l0 32c0 26.5-21.5 48-48 48s-48-21.5-48-48l0-32zm89-117.7c14.5-15.5 35.2-22.3 54.6-22.3s40.1 6.8 54.6 22.3c7.6 8.1 7.1 20.7-.9 28.3s-20.7 7.1-28.3-.9c-5.5-5.8-14.8-9.7-25.4-9.7s-19.9 3.8-25.4 9.7c-7.6 8.1-20.2 8.5-28.3 .9s-8.5-20.2-.9-28.3z"/><path class="fa-primary" d="M400 406.1L400 288c0-13.3-10.7-24-24-24s-24 10.7-24 24l0 152.6c-28.7 15-61.4 23.4-96 23.4s-67.3-8.5-96-23.4L160 288c0-13.3-10.7-24-24-24s-24 10.7-24 24l0 118.1C72.6 368.2 48 315 48 256C48 141.1 141.1 48 256 48s208 93.1 208 208c0 59-24.6 112.2-64 150.1zM256 512A256 256 0 1 0 256 0a256 256 0 1 0 0 512zM159.6 220c10.6 0 19.9 3.8 25.4 9.7c7.6 8.1 20.2 8.5 28.3 .9s8.5-20.2 .9-28.3C199.7 186.8 179 180 159.6 180s-40.1 6.8-54.6 22.3c-7.6 8.1-7.1 20.7 .9 28.3s20.7 7.1 28.3-.9c5.5-5.8 14.8-9.7 25.4-9.7zm166.6 9.7c5.5-5.8 14.8-9.7 25.4-9.7s19.9 3.8 25.4 9.7c7.6 8.1 20.2 8.5 28.3 .9s8.5-20.2 .9-28.3C391.7 186.8 371 180 351.6 180s-40.1 6.8-54.6 22.3c-7.6 8.1-7.1 20.7 .9 28.3s20.7 7.1 28.3-.9zM208 320l0 32c0 26.5 21.5 48 48 48s48-21.5 48-48l0-32c0-26.5-21.5-48-48-48s-48 21.5-48 48z"/></svg>