<svg xmlns="http://www.w3.org/2000/svg" width="24" height="24" viewBox="0 0 448 512">
    <path class="pr-icon-duotone-secondary" d="M129.4 208l94.6 0c26.5 0 48 21.5 48 48l0 94.6 98.7-241.4L129.4 208z"/>
    <path class="pr-icon-duotone-primary" d="M224 208c26.5 0 48 21.5 48 48l0 94.6 98.7-241.4L129.4 208l94.6 0zm-48 48L48 256c-15.3 0-28.4-10.8-31.4-25.8s5.1-30 19.3-35.8l352-144c11.9-4.9 25.6-2.1 34.7 7s11.9 22.8 7 34.7l-144 352c-5.8 14.2-20.8 22.2-35.8 19.3s-25.8-16.1-25.8-31.4l0-128 0-48-48 0z"/>
</svg>