<svg xmlns="http://www.w3.org/2000/svg" viewBox="0 0 320 512"><!--! Font Awesome Pro 6.7.2 by @fontawesome - https://fontawesome.com License - https://fontawesome.com/license (Commercial License) Copyright 2024 Fonticons, Inc. --><defs><style>.fa-secondary{opacity:.4}</style></defs><path class="fa-secondary" d="M64 144a96 96 0 1 0 192 0A96 96 0 1 0 64 144z"/><path class="fa-primary" d="M64 144a96 96 0 1 1 192 0A96 96 0 1 1 64 144zM184 286c68.1-11.4 120-70.7 120-142C304 64.5 239.5 0 160 0S16 64.5 16 144c0 71.4 51.9 130.6 120 142l0 202c0 13.3 10.7 24 24 24s24-10.7 24-24l0-202z"/></svg>