<svg xmlns="http://www.w3.org/2000/svg" viewBox="0 0 512 512"><!--! Font Awesome Pro 6.7.2 by @fontawesome - https://fontawesome.com License - https://fontawesome.com/license (Commercial License) Copyright 2024 Fonticons, Inc. --><defs><style>.fa-secondary{opacity:.4}</style></defs><path class="fa-secondary" d="M48 193.1l0 125.7c0 8.5 3.4 16.6 9.4 22.6L170.5 454.6c6 6 14.1 9.4 22.6 9.4l125.7 0c8.5 0 16.6-3.4 22.6-9.4L454.6 341.5c6-6 9.4-14.1 9.4-22.6l0-125.7c0-8.5-3.4-16.6-9.4-22.6L341.5 57.4c-6-6-14.1-9.4-22.6-9.4L193.1 48c-8.5 0-16.6 3.4-22.6 9.4L57.4 170.5c-6 6-9.4 14.1-9.4 22.6zM175 175c9.4-9.4 24.6-9.4 33.9 0l47 47 47-47c9.4-9.4 24.6-9.4 33.9 0s9.4 24.6 0 33.9l-47 47 47 47c9.4 9.4 9.4 24.6 0 33.9s-24.6 9.4-33.9 0l-47-47-47 47c-9.4 9.4-24.6 9.4-33.9 0s-9.4-24.6 0-33.9l47-47-47-47c-9.4-9.4-9.4-24.6 0-33.9z"/><path class="fa-primary" d="M57.4 170.5c-6 6-9.4 14.1-9.4 22.6l0 125.7c0 8.5 3.4 16.6 9.4 22.6L170.5 454.6c6 6 14.1 9.4 22.6 9.4l125.7 0c8.5 0 16.6-3.4 22.6-9.4L454.6 341.5c6-6 9.4-14.1 9.4-22.6l0-125.7c0-8.5-3.4-16.6-9.4-22.6L341.5 57.4c-6-6-14.1-9.4-22.6-9.4L193.1 48c-8.5 0-16.6 3.4-22.6 9.4L57.4 170.5zM23.4 136.6L136.6 23.4C151.6 8.4 171.9 0 193.1 0L318.9 0c21.2 0 41.6 8.4 56.6 23.4L488.6 136.6c15 15 23.4 35.4 23.4 56.6l0 125.7c0 21.2-8.4 41.6-23.4 56.6L375.4 488.6c-15 15-35.4 23.4-56.6 23.4l-125.7 0c-21.2 0-41.6-8.4-56.6-23.4L23.4 375.4C8.4 360.4 0 340.1 0 318.9L0 193.1c0-21.2 8.4-41.6 23.4-56.6zM175 175c9.4-9.4 24.6-9.4 33.9 0l47 47 47-47c9.4-9.4 24.6-9.4 33.9 0s9.4 24.6 0 33.9l-47 47 47 47c9.4 9.4 9.4 24.6 0 33.9s-24.6 9.4-33.9 0l-47-47-47 47c-9.4 9.4-24.6 9.4-33.9 0s-9.4-24.6 0-33.9l47-47-47-47c-9.4-9.4-9.4-24.6 0-33.9z"/></svg>