<svg xmlns="http://www.w3.org/2000/svg" viewBox="0 0 512 512"><!--! Font Awesome Pro 6.7.2 by @fontawesome - https://fontawesome.com License - https://fontawesome.com/license (Commercial License) Copyright 2024 Fonticons, Inc. --><defs><style>.fa-secondary{opacity:.4}</style></defs><path class="fa-secondary" d="M69.6 286.7C68.8 296 76.2 304 85.6 304l2.4 0 80 0 2.4 0c9.4 0 16.7-8 15.9-17.3l-4.1-49.3C180.9 220.8 167 208 150.4 208l-44.8 0c-16.6 0-30.5 12.8-31.9 29.3l-4.1 49.3zm250 49.3l128.7 0L415.1 219.6c-2-6.9-8.2-11.6-15.4-11.6l-31.4 0c-7.1 0-13.4 4.7-15.4 11.6L319.6 336z"/><path class="fa-primary" d="M192 64A64 64 0 1 0 64 64a64 64 0 1 0 128 0zM105.6 208l44.8 0c16.6 0 30.5 12.8 31.9 29.3l4.1 49.3c.8 9.3-6.6 17.3-15.9 17.3l-2.4 0-80 0-2.4 0c-9.4 0-16.7-8-15.9-17.3l4.1-49.3C75.1 220.8 89 208 105.6 208zM144 352l0 136c0 13.3 10.7 24 24 24s24-10.7 24-24l0-139.7c26.5-9.5 44.7-35.8 42.2-65.6l-4.1-49.3C226.7 191.9 192 160 150.4 160l-44.8 0c-41.6 0-76.3 31.9-79.7 73.4l-4.1 49.3c-2.5 29.8 15.7 56.1 42.2 65.6L64 488c0 13.3 10.7 24 24 24s24-10.7 24-24l0-136 32 0zM448 64A64 64 0 1 0 320 64a64 64 0 1 0 128 0zM368.3 208l31.4 0c7.1 0 13.4 4.7 15.4 11.6L448.4 336l-128.7 0 33.3-116.4c2-6.9 8.2-11.6 15.4-11.6zm0-48c-28.6 0-53.7 18.9-61.5 46.4L267.7 343.2c-5.8 20.4 9.5 40.8 30.8 40.8l21.6 0 0 104c0 13.3 10.7 24 24 24s24-10.7 24-24l0-104 32 0 0 104c0 13.3 10.7 24 24 24s24-10.7 24-24l0-104 21.6 0c21.3 0 36.6-20.3 30.8-40.8L461.3 206.4c-7.8-27.5-33-46.4-61.5-46.4l-31.4 0z"/></svg>