<svg xmlns="http://www.w3.org/2000/svg" viewBox="0 0 512 512"><!--! Font Awesome Pro 6.7.2 by @fontawesome - https://fontawesome.com License - https://fontawesome.com/license (Commercial License) Copyright 2024 Fonticons, Inc. --><defs><style>.fa-secondary{opacity:.4}</style></defs><path class="fa-secondary" d="M48 192c0 43.3 9.2 81.3 23 107.7c14.4 27.5 30.1 36.3 41 36.3l212.7 0c-3-4.5-5.7-9.3-8.2-14.1C298.5 287.4 288 241.5 288 192s10.5-95.4 28.5-129.9c2.5-4.8 5.3-9.5 8.2-14.1L112 48c-10.9 0-26.6 8.9-41 36.3C57.2 110.7 48 148.7 48 192zM160 384l0 32 48 0 0 40c0 4.4 3.6 8 8 8l240 0c4.4 0 8-3.6 8-8l0-104.9c-16.6 19.3-38.1 32.9-64 32.9l-240 0zM336 192c0 43.3 9.2 81.3 23 107.7c14.4 27.5 30.1 36.3 41 36.3s26.6-8.9 41-36.3c13.8-26.3 23-64.3 23-107.7s-9.2-81.3-23-107.7C426.6 56.9 410.9 48 400 48s-26.6 8.9-41 36.3c-13.8 26.3-23 64.3-23 107.7zm40 0c0-26.5 10.7-48 24-48s24 21.5 24 48s-10.7 48-24 48s-24-21.5-24-48z"/><path class="fa-primary" d="M71 84.3C85.4 56.9 101.1 48 112 48l212.7 0c-3 4.5-5.7 9.3-8.2 14.1C298.5 96.6 288 142.5 288 192s10.5 95.4 28.5 129.9c2.5 4.8 5.3 9.5 8.2 14.1L112 336c-10.9 0-26.6-8.9-41-36.3C57.2 273.3 48 235.3 48 192s9.2-81.3 23-107.7zM400 48c10.9 0 26.6 8.9 41 36.3c13.8 26.3 23 64.3 23 107.7s-9.2 81.3-23 107.7c-14.4 27.5-30.1 36.3-41 36.3s-26.6-8.9-41-36.3c-13.8-26.3-23-64.3-23-107.7s9.2-81.3 23-107.7C373.4 56.9 389.1 48 400 48zm64 303.1L464 456c0 4.4-3.6 8-8 8l-240 0c-4.4 0-8-3.6-8-8l0-40-48 0 0 40c0 30.9 25.1 56 56 56l240 0c30.9 0 56-25.1 56-56l0-264c0-49.5-10.5-95.4-28.5-129.9C466 28.7 437.7 0 400 0L112 0C74.3 0 46 28.7 28.5 62.1C10.5 96.6 0 142.5 0 192s10.5 95.4 28.5 129.9C46 355.3 74.3 384 112 384l288 0c25.9 0 47.4-13.6 64-32.9zM424 192c0-26.5-10.7-48-24-48s-24 21.5-24 48s10.7 48 24 48s24-21.5 24-48z"/></svg>