<svg xmlns="http://www.w3.org/2000/svg" viewBox="0 0 640 512"><!--! Font Awesome Pro 6.7.2 by @fontawesome - https://fontawesome.com License - https://fontawesome.com/license (Commercial License) Copyright 2024 Fonticons, Inc. --><defs><style>.fa-secondary{opacity:.4}</style></defs><path class="fa-secondary" d="M49.3 464c8.9-63.3 63.3-112 129-112l91.4 0c34.3 0 65.4 13.2 88.7 34.8c-14.3 3.3-27.7 9.2-38.8 17.6c-17.6 13.2-31.5 34-31.5 59.5L49.3 464zM304 128a80 80 0 1 1 -160 0 80 80 0 1 1 160 0z"/><path class="fa-primary" d="M304 128a80 80 0 1 0 -160 0 80 80 0 1 0 160 0zM96 128a128 128 0 1 1 256 0A128 128 0 1 1 96 128zM49.3 464L288 464s0 0 0 0c0 19.1 7.7 35.4 18.9 48L29.7 512C13.3 512 0 498.7 0 482.3C0 383.8 79.8 304 178.3 304l91.4 0c36.3 0 70.1 10.9 98.3 29.5l0 51.6c-3.2 .4-6.5 1-9.6 1.7C335.1 365.2 304 352 269.7 352l-91.4 0c-65.7 0-120.1 48.7-129 112zM630 164.5c6.3 4.5 10 11.8 10 19.5l0 48 0 160c0 1.2-.1 2.4-.3 3.6c.2 1.5 .3 2.9 .3 4.4c0 26.5-28.7 48-64 48s-64-21.5-64-48s28.7-48 64-48c5.5 0 10.9 .5 16 1.5l0-88.2-144 48L448 464c0 26.5-28.7 48-64 48s-64-21.5-64-48s28.7-48 64-48c5.5 0 10.9 .5 16 1.5L400 296l0-48c0-10.3 6.6-19.5 16.4-22.8l192-64c7.3-2.4 15.4-1.2 21.6 3.3z"/></svg>