<svg xmlns="http://www.w3.org/2000/svg" viewBox="0 0 640 512"><!--! Font Awesome Pro 6.7.2 by @fontawesome - https://fontawesome.com License - https://fontawesome.com/license (Commercial License) Copyright 2024 Fonticons, Inc. --><path d="M256 448c10.8 0 21.5-.5 32-1.6c.3-15.8 4.4-31.7 12.9-46.4c16-27.7 43.7-44.4 73.2-47.5l16.7-29.2c-4.3-11-6.7-22.9-6.7-35.4c0-53 43-96 96-96c9.1 0 17.8 1.3 26.2 3.6C481.1 102.1 378.6 32 256 32C114.6 32 0 125.1 0 240c0 49.6 21.3 95.1 56.9 130.8L16 480l150.4-45.1c27.9 8.5 58.1 13.1 89.6 13.1zm72.6-32c-17.7 30.6-7.2 69.7 23.4 87.4s69.7 7.2 87.4-23.4c1.5-2.6 2.8-5.3 3.9-8l73.3 0c1.1 2.7 2.4 5.4 3.9 8c17.7 30.6 56.8 41.1 87.4 23.4s41.1-56.8 23.4-87.4c-13.4-23.2-39.1-34.8-64-31.4l-17.6-30.7c-11 11.7-25 20.6-40.6 25.6l16.5 28.9c-3.8 4.8-6.8 10-9 15.6l-73.4 0c-2.2-5.6-5.3-10.8-9-15.6l33-57.7c4.1 .8 8.4 1.3 12.8 1.3c35.3 0 64-28.7 64-64s-28.7-64-64-64s-64 28.7-64 64c0 13.4 4.1 25.8 11.2 36.1l-34.6 60.5c-25-3.4-50.6 8.3-64 31.4z"/></svg>