<svg width="24" height="24" viewBox="0 0 24 24" fill="none" xmlns="http://www.w3.org/2000/svg">
<path d="M3 21H21V3.00046L3 3V21Z" stroke="#141B34" stroke-width="1.5" stroke-linejoin="round"/>
<path d="M14.0027 7.99609H15.9967C16.0023 7.99609 16.0067 8.00057 16.0067 8.00609V10.4923L17.0013 11.9883C17.0036 11.9917 17.0036 11.996 17.0013 11.9994L16.0067 13.4954V15.9831C16.0067 15.9886 16.0023 15.9931 15.9967 15.9931H14.0088M10.0001 15.9931H8.02215C8.01663 15.9931 8.01215 15.9886 8.01215 15.9831V13.4955L7.00561 11.9972C7.00334 11.9938 7.00334 11.9894 7.00562 11.986L8.01215 10.4945V8.00609C8.01215 8.00057 8.01663 7.99609 8.02215 7.99609H10.0052" stroke="#141B34" stroke-width="1.5"/>
</svg>
