<svg width="24" height="24" viewBox="0 0 24 24" fill="none" xmlns="http://www.w3.org/2000/svg">
<path d="M12 4.05493C11.6717 4.01863 11.338 4 11 4C6.02944 4 2 8.02944 2 13C2 17.9705 6.02944 22 11 22C15.9705 22 20 17.9705 20 13C20 12.662 19.9814 12.3283 19.9451 12" stroke="#141B34" stroke-width="1.5" stroke-linecap="square"/>
<path d="M18.5 2V9M22 5.5L15 5.5" stroke="#141B34" stroke-width="1.5" stroke-linecap="square"/>
<path d="M14 9.5H11M11 9.5H8V13H14V16.5H11M11 9.5V8M11 16.5H8M11 16.5V18" stroke="#141B34" stroke-width="1.5" stroke-linecap="square"/>
</svg>
