<svg width="24" height="24" viewBox="0 0 24 24" fill="none" xmlns="http://www.w3.org/2000/svg">
<path d="M12 4.5C12 3.11929 10.8807 2 9.5 2C8.11929 2 7 3.11929 7 4.5C5.34315 4.5 4 5.84315 4 7.5C4 8.06866 4.15822 8.60037 4.43304 9.0535C3.04727 9.31855 2 10.537 2 12C2 13.463 3.04727 14.6814 4.43304 14.9465C4.15822 15.3996 4 15.9313 4 16.5C4 18.1569 5.34315 19.5 7 19.5C7 20.8807 8.11929 22 9.5 22C10.8807 22 12 20.8807 12 19.5" stroke="#141B34" stroke-width="1.5"/>
<path d="M12 19.4999C12 20.8806 13.1193 21.9999 14.5 21.9999C15.8807 21.9999 17 20.8806 17 19.4999C18.6569 19.4999 20 18.1567 20 16.4999C20 15.9312 19.8418 15.3995 19.567 14.9464C20.9527 14.6813 22 13.4629 22 11.9999C22 10.5369 20.9527 9.31843 19.567 9.05338C19.8418 8.60024 20 8.06854 20 7.49988C20 5.84302 18.6569 4.49988 17 4.49988C17 3.11917 15.8807 1.99988 14.5 1.99988C13.1193 1.99988 12 3.11917 12 4.49988" stroke="#141B34" stroke-width="1.5"/>
<path d="M15 8.99988H9V14.9999H15V8.99988Z" stroke="#141B34" stroke-width="1.5" stroke-linecap="round"/>
<path d="M10.5 14.9999V16.9999M13.5 14.9999V16.9999M10.5 6.99988V8.99988M13.5 6.99988V8.99988M9 10.4999H7M9 13.4999H7M17 10.4999H15M17 13.4999H15" stroke="#141B34" stroke-width="1.5" stroke-linejoin="round"/>
</svg>
