<svg width="24" height="24" viewBox="0 0 24 24" fill="none" xmlns="http://www.w3.org/2000/svg">
<path d="M9.95552 2.51378C3.32444 2.88475 -0.343341 10.8061 3.66715 17.4702L2.08344 21.459M9.95552 2.51378C10.119 2.50464 10.2843 2.5 10.4513 2.5M9.95552 2.51378L13.9216 2.5M13.4258 2.5C18.3834 2.5 20.8622 6.50378 21.3579 8.0052C23.3409 15.0118 20.3664 18.5151 17.3919 20.0165C15.0598 21.5905 8.18544 21.3836 6.54192 20.0165L2.08344 21.459M2.08344 21.459C2.05294 21.5372 2.00395 21.484 2.08344 21.459Z" stroke="#141B34" stroke-width="1.5"/>
<path d="M8.25614 13.1876L10.0804 8.53227L11.9038 13.1876M8.25614 13.1876L7.30762 15.6635M8.25614 13.1876H11.9038M11.9038 13.1876L12.9177 15.6635M15.4748 8.23755V15.8124" stroke="#141B34" stroke-width="1.5" stroke-linejoin="bevel"/>
</svg>
