<svg width="24" height="24" viewBox="0 0 24 24" fill="none" xmlns="http://www.w3.org/2000/svg">
<path d="M18.0506 20.0928H2.24121" stroke="#141B34" stroke-width="1.5" stroke-linejoin="round"/>
<path d="M20.8039 4.09473L17.7509 4.19253C17.7459 4.1927 17.7418 4.19664 17.7414 4.20172L17.4498 7.63094L8.45911 8.74539C5.20281 9.44476 3.75894 12.226 3.39345 14.3315C3.26864 15.3392 3.35732 15.5243 3.50233 15.7446C3.72927 16.0894 4.10529 16.3936 4.94275 16.1297L11.2267 14.3455L13.4891 16.0952C13.4914 16.097 13.4944 16.0977 13.4973 16.097L18.3006 14.9343C18.3085 14.9324 18.3109 14.922 18.3046 14.9168L15.6901 12.7231L22.239 10.3818C22.2437 10.3801 22.2464 10.3751 22.2453 10.3701L20.8138 4.10251C20.8127 4.09784 20.8086 4.09458 20.8039 4.09473Z" stroke="#141B34" stroke-width="1.5"/>
</svg>
