<svg width="24" height="24" viewBox="0 0 24 24" fill="none" xmlns="http://www.w3.org/2000/svg">
<path d="M2 2.02295L22 21.9996" stroke="#141B34" stroke-width="1.5" stroke-linejoin="round"/>
<path d="M8.202 5.03894C8.54905 3.76434 9.33867 2.86445 11.0113 2.00073C13.9186 3.43629 14.1273 5.11973 14.0242 9.05306L19.9602 12.5196L20.0009 15.4682C20.0045 15.5354 19.796 15.485 19.7307 15.4682L18.224 15.0711M7.98834 7.98959C7.98749 8.34483 7.98327 8.65023 7.98834 9.05306L2.00693 12.5186V15.3818C2.00333 15.449 1.98013 15.5288 2.04542 15.512L8.73673 13.8345L9.00609 17.5102L6.04032 19.9544C6.00504 19.9834 6.02081 20.0088 6.04032 20.05L6.98014 21.9396L6.98267 21.945C7.00227 21.9867 7.00363 21.9895 7.05023 21.9723L10.9947 20.487L14.9083 21.9487C14.9568 21.9666 15.0031 21.9954 15.0252 21.9487L15.9489 20.0575L15.9502 20.0547C15.969 20.0149 15.9833 19.9847 15.9489 19.9563L12.9967 17.5102L13.2721 13.8343L14.0124 14.0192" stroke="#141B34" stroke-width="1.5"/>
</svg>
