<svg width="24" height="24" viewBox="0 0 24 24" fill="none" xmlns="http://www.w3.org/2000/svg">
<path d="M19.9883 6V12M17.9898 4H5.99854M9.99562 20H5.99854M4 18V6" stroke="#141B34" stroke-width="1.5" stroke-linejoin="round"/>
<path d="M21.9854 4C21.9854 5.10457 21.0907 6 19.9869 6C18.8831 6 17.9883 5.10457 17.9883 4C17.9883 2.89543 18.8831 2 19.9869 2C21.0907 2 21.9854 2.89543 21.9854 4Z" stroke="#141B34" stroke-width="1.5" stroke-linejoin="round"/>
<path d="M5.99708 4C5.99708 5.10457 5.10231 6 3.99854 6C2.89478 6 2 5.10457 2 4C2 2.89543 2.89478 2 3.99854 2C5.10231 2 5.99708 2.89543 5.99708 4Z" stroke="#141B34" stroke-width="1.5" stroke-linejoin="round"/>
<path d="M5.99708 20C5.99708 21.1046 5.10231 22 3.99854 22C2.89478 22 2 21.1046 2 20C2 18.8954 2.89478 18 3.99854 18C5.10231 18 5.99708 18.8954 5.99708 20Z" stroke="#141B34" stroke-width="1.5" stroke-linejoin="round"/>
<path d="M15.5496 19.4433C15.276 19.1549 14.9205 18.9939 14.4906 18.9939C13.6618 18.9939 12.99 19.6628 12.99 20.488C12.99 21.3132 13.6618 21.9822 14.4906 21.9822C15.3194 21.9822 15.9912 21.3132 15.9912 20.488C15.9912 20.0908 15.8035 19.7109 15.5496 19.4433ZM15.5496 19.4433L17.9959 16.9914M22 16.9914L19.9939 15.0029C19.99 14.999 19.9837 14.999 19.9798 15.0029L17.9959 16.9914M17.9959 16.9914L19.4862 18.4346" stroke="#141B34" stroke-width="1.5"/>
</svg>
