<svg width="24" height="24" viewBox="0 0 24 24" fill="none" xmlns="http://www.w3.org/2000/svg">
<circle cx="12" cy="10" r="7" stroke="#141B34" stroke-width="1.5"/>
<ellipse cx="12" cy="10" rx="4" ry="3" stroke="#141B34" stroke-width="1.5"/>
<path d="M18.5 7L19.0001 7.00002C20.6569 7.00007 22 8.3432 22 10C22 11.6569 20.6569 13 19 13H18.5" stroke="#141B34" stroke-width="1.5"/>
<path d="M5.50195 13L5.00185 13C3.34504 12.9999 2.00195 11.6568 2.00195 9.99999C2.00195 8.34314 3.3451 7 5.00195 7L5.50195 7" stroke="#141B34" stroke-width="1.5"/>
<path d="M20.5 7V2.5" stroke="#141B34" stroke-width="1.5"/>
<path d="M15 17H9C8.07003 17 7.60504 17 7.22354 17.1022C6.18827 17.3796 5.37962 18.1883 5.10222 19.2235C5 19.605 5 20.07 5 21H19C19 20.07 19 19.605 18.8978 19.2235C18.6204 18.1883 17.8117 17.3796 16.7765 17.1022C16.395 17 15.93 17 15 17Z" stroke="#141B34" stroke-width="1.5" stroke-linejoin="round"/>
</svg>
