<svg width="24" height="24" viewBox="0 0 24 24" fill="none" xmlns="http://www.w3.org/2000/svg">
<path d="M6 20.0078C8.20914 20.0078 10 18.2161 10 16.0059C10 13.7956 8.20914 12.0039 6 12.0039C3.79086 12.0039 2 13.7956 2 16.0059C2 18.2161 3.79086 20.0078 6 20.0078Z" stroke="#141B34" stroke-width="1.5"/>
<path d="M18 20.0078C20.2091 20.0078 22 18.2161 22 16.0059C22 13.7956 20.2091 12.0039 18 12.0039C15.7909 12.0039 14 13.7956 14 16.0059C14 18.2161 15.7909 20.0078 18 20.0078Z" stroke="#141B34" stroke-width="1.5"/>
<path d="M6 16.0059H11L16 8.00195" stroke="#141B34" stroke-width="1.5"/>
<path d="M12.5 13.5051L7 7.00195M7 7.00195H5M7 7.00195H10" stroke="#141B34" stroke-width="1.5"/>
<path d="M18.0425 16.0122L14.999 4.0123C16.4289 4.0126 19.3744 3.84238 20.0184 6.23955" stroke="#141B34" stroke-width="1.5"/>
</svg>
