<svg width="24" height="24" viewBox="0 0 24 24" fill="none" xmlns="http://www.w3.org/2000/svg">
<path d="M10.6986 3.10599C20.8497 2.19061 23.8294 13.7662 18.1773 18.5793M17.0069 16.0258L16.9333 19.5816L20.5066 19.5185M13.3003 21.0155C3.198 21.8187 0.169527 10.3553 5.8216 5.54221M6.99201 8.09576L7.06558 4.53989H3.45229" stroke="#141B34" stroke-width="1.5" stroke-linecap="square"/>
<path d="M10.4431 14.6873V9.34448M12.0068 9.34448V8.00879M12.0068 16.023V14.6873M10.4431 12.0159H13.5704M13.5704 12.0159C14.0886 12.0159 14.5086 12.4644 14.5086 13.0176V13.6855C14.5086 14.2388 14.0886 14.6873 13.5704 14.6873H9.50488M13.5704 12.0159C14.0886 12.0159 14.5086 11.5674 14.5086 11.0141V10.3462C14.5086 9.79299 14.0886 9.34448 13.5704 9.34448H9.50488" stroke="#141B34" stroke-width="1.5" stroke-linecap="square"/>
</svg>
