<svg width="24" height="24" viewBox="0 0 24 24" fill="none" xmlns="http://www.w3.org/2000/svg">
<path d="M20.3581 19.3968L21.9982 21.0019M21.1781 16.5878C21.1781 14.5933 19.526 12.9763 17.488 12.9763C15.45 12.9763 13.7979 14.5933 13.7979 16.5878C13.7979 18.5824 15.45 20.1993 17.488 20.1993C19.526 20.1993 21.1781 18.5824 21.1781 16.5878Z" stroke="#141B34" stroke-width="1.5" stroke-linejoin="round"/>
<path d="M2.00098 6.43776L8.16596 11.4597M8.19673 11.4792L14.2768 6.57109C14.3327 6.52692 14.3261 6.44165 14.264 6.40631L8.30079 3.01277C8.23246 2.97388 8.14676 3.02213 8.14676 3.09949V11.2637C8.14676 11.348 8.12969 11.5322 8.19673 11.4792ZM8.19673 11.4792L11.2416 13.9963M8.19673 11.4792C8.12986 11.4252 8.14676 11.4453 8.14676 11.5301M8.14676 11.5301L8.14678 19.9087C8.14678 19.9869 8.23416 20.035 8.30247 19.9944L11.0176 18.3813M8.14676 11.5301L2.01487 16.4882" stroke="#141B34" stroke-width="1.5"/>
</svg>
