<svg width="24" height="24" viewBox="0 0 24 24" fill="none" xmlns="http://www.w3.org/2000/svg">
<path d="M15.208 7L20.2092 2L22.0008 3.79161L16.9996 8.79161" stroke="#141B34" stroke-width="1.5" stroke-linecap="round" stroke-linejoin="round"/>
<path d="M13.002 16L10.002 22L7.50195 19.5M8.00195 11L2.00195 14L4.50195 16.5M4.50195 16.5L7.00195 15M4.50195 16.5L7.50195 19.5M7.50195 19.5L9.00195 17" stroke="#141B34" stroke-width="1.5" stroke-linejoin="round"/>
<path d="M14.5005 6.5L15.0308 5.96967L14.5005 5.43934L13.9701 5.96967L14.5005 6.5ZM17.5005 9.5L18.0308 10.0303L18.5611 9.5L18.0308 8.96967L17.5005 9.5ZM14.5005 17L13.97 17.5302C14.1749 17.7352 14.4796 17.8038 14.7525 17.7064C15.0255 17.609 15.2179 17.363 15.2467 17.0746L14.5005 17ZM7.00391 9.5L6.92923 8.75373C6.64092 8.78258 6.39501 8.97493 6.29758 9.24781C6.20015 9.52069 6.26862 9.82528 6.47345 10.0302L7.00391 9.5ZM15.0005 12L14.4701 11.4697L14.2808 11.659L14.2542 11.9254L15.0005 12ZM12.0005 9L12.0751 9.74628L12.3415 9.71962L12.5308 9.53033L12.0005 9ZM13.9701 7.03033L16.9701 10.0303L18.0308 8.96967L15.0308 5.96967L13.9701 7.03033ZM15.0309 16.4698L7.53436 8.9698L6.47345 10.0302L13.97 17.5302L15.0309 16.4698ZM16.9701 8.96967L14.4701 11.4697L15.5308 12.5303L18.0308 10.0303L16.9701 8.96967ZM13.9701 5.96967L11.4701 8.46967L12.5308 9.53033L15.0308 7.03033L13.9701 5.96967ZM7.07858 10.2463L12.0751 9.74628L11.9258 8.25373L6.92923 8.75373L7.07858 10.2463ZM15.2467 17.0746L15.7467 12.0746L14.2542 11.9254L13.7542 16.9254L15.2467 17.0746Z" fill="#141B34"/>
</svg>
