<svg width="24" height="24" viewBox="0 0 24 24" fill="none" xmlns="http://www.w3.org/2000/svg">
<path d="M12.5 10.544C13.2611 10.1947 14.1078 10 15 10C18.3137 10 21 12.6863 21 16C21 19.3137 18.3137 22 15 22C14.4821 22 13.9794 21.9344 13.5 21.811" stroke="#141B34" stroke-width="1.5" stroke-linejoin="round"/>
<path d="M17.991 15H18M15 15H15.009M16.4955 13L16.5045 13" stroke="#141B34" stroke-width="1.5" stroke-linecap="round" stroke-linejoin="round"/>
<path d="M5.88423 6.68165L5.45498 4.51648C5.19688 3.21462 6.18394 2 7.5 2C8.81606 2 9.80312 3.21462 9.54502 4.51648L9.11577 6.68165C8.47015 9.93816 10.2277 11.8914 11.4499 14.5961C11.9824 15.7743 12.1332 17.0919 11.8809 18.3615L11.8803 18.3645C11.6642 19.4523 11.3239 21.1648 10.6053 22H4.39466C3.67611 21.1648 3.33582 19.4522 3.11968 18.3645L3.11909 18.3615C2.86681 17.0919 3.01761 15.7743 3.55006 14.5961C4.77234 11.8914 6.52985 9.93816 5.88423 6.68165Z" stroke="#141B34" stroke-width="1.5" stroke-linecap="round"/>
<path d="M6 9H9" stroke="#141B34" stroke-width="1.5" stroke-linejoin="round"/>
</svg>
