<svg width="24" height="24" viewBox="0 0 24 24" fill="none" xmlns="http://www.w3.org/2000/svg">
<path d="M11.9944 12H12.0034M7.99774 12H8.00671" stroke="#141B34" stroke-width="2" stroke-linecap="square" stroke-linejoin="round"/>
<path d="M21.6559 8.98092C23.3895 15.5097 18.2087 21.0077 12.0034 21.0077C10.5787 21.0077 9.22365 20.7245 7.99706 20.214L4.02002 21.9991C4.01232 22.0026 4.00406 21.9955 4.00627 21.9874L5.00755 18.2904C3.16432 16.5092 2.00262 14.178 2.00262 11.4989C2.00262 5.99859 7.06379 0.988541 14.009 2.17603" stroke="#141B34" stroke-width="1.5"/>
<path d="M16.4999 9.99976H13.9992V7.49976L19.4937 2.00684C19.4977 2.00293 19.504 2.00293 19.5079 2.00684L21.9945 4.49269C21.9984 4.4966 21.9984 4.50293 21.9945 4.50684L16.4999 9.99976Z" stroke="#141B34" stroke-width="1.5"/>
</svg>
