<svg width="24" height="24" viewBox="0 0 24 24" fill="none" xmlns="http://www.w3.org/2000/svg">
<path d="M18.9996 2L21.9996 5L18.9996 8M14.9996 2L11.9996 5L14.9996 8M21.7155 5H12.3428" stroke="#141B34" stroke-width="1.5"/>
<path d="M3.77685 11.9812L7.99158 8.01246L5.00618 2.00355C5.00336 1.99786 4.99593 1.99629 4.99095 2.00023C2.8245 3.71561 1.79846 5.55375 2.03096 7.16793C2.33413 9.27274 3.52878 12.5921 6.66532 15.8698C7.79383 17.2216 9.78575 19.0186 12.0897 20.2616M12.0897 20.2616C14.5042 21.5642 17.2649 22.8058 19.6019 21.3389C20.1167 21.0158 21.5157 19.7631 21.9997 19.0439C22.003 19.0389 22.0011 19.0324 21.9957 19.0297L16.0058 16.0189L12.0897 20.2616Z" stroke="#141B34" stroke-width="1.5"/>
</svg>
