<svg width="24" height="24" viewBox="0 0 24 24" fill="none" xmlns="http://www.w3.org/2000/svg">
<path d="M17.0001 2.99956V10.9996M21.0001 6.99956H13.0001" stroke="#141B34" stroke-width="1.5"/>
<path d="M3.77685 11.9814L7.99158 8.01263L5.00618 2.00372C5.00336 1.99803 4.99593 1.99645 4.99095 2.00039C2.8245 3.71577 1.79846 5.55392 2.03096 7.1681C2.33413 9.27291 3.52878 12.5922 6.66532 15.87C7.79383 17.2217 9.78575 19.0188 12.0897 20.2618M12.0897 20.2618C14.5042 21.5644 17.2649 22.806 19.6019 21.3391C20.1167 21.0159 21.5157 19.7633 21.9997 19.0441C22.003 19.0391 22.0011 19.0326 21.9957 19.0299L16.0058 16.0191L12.0897 20.2618Z" stroke="#141B34" stroke-width="1.5"/>
</svg>
