<svg width="24" height="24" viewBox="0 0 24 24" fill="none" xmlns="http://www.w3.org/2000/svg">
<path d="M12.9996 10.9991L19.7213 4.27749M14.9996 3.99915H19.9996V8.99915" stroke="#141B34" stroke-width="1.5"/>
<path d="M3.77685 11.9813L7.99158 8.01258L5.00618 2.00367C5.00336 1.99799 4.99593 1.99641 4.99095 2.00035C2.8245 3.71573 1.79846 5.55387 2.03096 7.16805C2.33413 9.27286 3.52878 12.5922 6.66532 15.8699C7.79383 17.2217 9.78575 19.0187 12.0897 20.2617M12.0897 20.2617C14.5042 21.5644 17.2649 22.8059 19.6019 21.339C20.1167 21.0159 21.5157 19.7632 21.9997 19.044C22.003 19.039 22.0011 19.0325 21.9957 19.0298L16.0058 16.019L12.0897 20.2617Z" stroke="#141B34" stroke-width="1.5"/>
</svg>
