<svg width="24" height="24" viewBox="0 0 24 24" fill="none" xmlns="http://www.w3.org/2000/svg">
<path d="M2.5 16.9999L2.05801 15.0262C1.4248 9.13648 6.05622 4 12 4C17.9438 4 22.5752 9.13648 21.942 15.0262L21.5 16.9999" stroke="#141B34" stroke-width="1.5" stroke-linecap="round" stroke-linejoin="round"/>
<path d="M8.0157 11C7.81291 7.79507 9.59813 4 12 4M16 11C16.2028 7.79507 14.4176 4 12.0157 4" stroke="#141B34" stroke-width="1.5" stroke-linejoin="round"/>
<path d="M12 4V1.99994" stroke="#141B34" stroke-width="1.5" stroke-linejoin="round"/>
<path d="M21.5 17.0093C13.5 14.5243 10.5 14.1427 2.5 17.0093L4 22C4 22 8 20 12 20C16 20 20 22 20 22L21.5 17.0093Z" stroke="#141B34" stroke-width="1.5" stroke-linecap="round" stroke-linejoin="round"/>
</svg>
