<svg width="24" height="24" viewBox="0 0 24 24" fill="none" xmlns="http://www.w3.org/2000/svg">
<path d="M5 16H2V18.5H5V21H2" stroke="#141B34" stroke-width="1.5" stroke-linecap="square" stroke-linejoin="round"/>
<path d="M13 16H16V21H13V16Z" stroke="#141B34" stroke-width="1.5" stroke-linecap="round" stroke-linejoin="round"/>
<path d="M7.5 16H10.5V21H7.5V16Z" stroke="#141B34" stroke-width="1.5" stroke-linecap="round" stroke-linejoin="round"/>
<path d="M22 16V21H21.5L19 16H18.5V21" stroke="#141B34" stroke-width="1.5" stroke-linecap="square"/>
<path d="M17 8C17 5.23858 14.7614 3 12 3C9.23858 3 7 5.23858 7 8C7 10.7614 9.23858 13 12 13C14.7614 13 17 10.7614 17 8Z" stroke="#141B34" stroke-width="1.5" stroke-linecap="round"/>
<path d="M13.5 8.5L12 8V5.5" stroke="#141B34" stroke-width="1.5" stroke-linecap="square"/>
</svg>
