<svg width="24" height="24" viewBox="0 0 24 24" fill="none" xmlns="http://www.w3.org/2000/svg">
<path d="M13.0037 11.0263C13.0037 12.1341 12.1078 13.0321 11.0026 13.0321C9.89748 13.0321 9.00159 12.1341 9.00159 11.0263C9.00159 9.91853 9.89748 9.02051 11.0026 9.02051C12.1078 9.02051 13.0037 9.91853 13.0037 11.0263Z" stroke="#141B34" stroke-width="1.5" stroke-linejoin="round"/>
<path d="M20.0071 9.15183C19.1369 5.06634 15.4799 2 11.1006 2C6.07321 2 1.99768 6.0411 1.99768 11.026C1.99768 16.011 6.07321 20.0521 11.1006 20.0521C11.5776 20.0521 12.046 20.0157 12.5032 19.9456" stroke="#141B34" stroke-width="1.5" stroke-linejoin="round"/>
<path d="M17.3691 4.64355L15.2467 6.77008" stroke="#141B34" stroke-width="1.5" stroke-linejoin="round"/>
<path d="M6.75878 15.2803L4.63635 17.4068" stroke="#141B34" stroke-width="1.5" stroke-linejoin="round"/>
<path d="M20.6259 18.1257C21.5213 17.5099 22.0023 16.5693 22.0023 15.4214C22.0023 13.5432 20.4369 12.0205 18.5059 12.0205C16.5748 12.0205 15.0094 13.5432 15.0094 15.4214C15.0094 16.5242 15.549 17.5043 16.3853 18.1257M20.6259 18.1257C20.0561 18.5177 19.2568 18.8224 18.5059 18.8224C17.7085 18.8224 16.9735 18.5628 16.3853 18.1257M20.6259 18.1257L21.4686 21.877C21.4857 21.9531 21.4134 22.0188 21.3395 21.9942L18.5059 21.0512L15.683 21.9941C15.6092 22.0187 15.5368 21.9533 15.5537 21.8772L16.3853 18.1257" stroke="#141B34" stroke-width="1.5"/>
</svg>
