<svg width="24" height="24" viewBox="0 0 24 24" fill="none" xmlns="http://www.w3.org/2000/svg">
<path d="M4 2H22V22H4V2Z" stroke="#141B34" stroke-width="1.5" stroke-linejoin="round"/>
<path d="M6 6H2M6 12H2M6 18H2" stroke="#141B34" stroke-width="1.5" stroke-linejoin="round"/>
<path d="M13.5612 16.1175L15.4999 13.9862L18.4962 15.4812C18.502 15.4841 18.5034 15.4919 18.4992 15.4968C17.3926 16.8044 16.76 17.0697 15.8844 16.9529C14.7375 16.8 13.024 16.0603 11.3888 14.5092C10.7166 13.9199 10.0635 13.0971 9.34662 11.9692M9.34662 11.9692C8.79037 10.7033 7.96011 9.32727 8.93516 8.09351C9.14843 7.82366 9.55543 7.2659 9.98449 7.00661C9.98946 7.00361 9.99586 7.00554 9.99846 7.01074L11.4967 10.0072L9.34662 11.9692Z" stroke="#141B34" stroke-width="1.5"/>
</svg>
