<svg width="24" height="24" viewBox="0 0 24 24" fill="none" xmlns="http://www.w3.org/2000/svg">
<path d="M5 9.08333C5 7.91667 6 7.5 6.5 7.5C7.49411 7.5 8 8.25383 8 9.08333C8 11.0163 6.65685 12 5 12C3.34315 12 2 10.433 2 8.5C2 6.567 3.34315 5 5 5H19C20.6569 5 22 6.567 22 8.5C22 10.433 20.6569 12 19 12C17.3431 12 16 11.0163 16 9.08333C16 8.25383 16.5059 7.5 17.5 7.5C18 7.5 19 7.91667 19 9.08333" stroke="#141B34" stroke-width="1.5" stroke-linejoin="round"/>
<path d="M21 19H3V22H21V19Z" stroke="#141B34" stroke-width="1.5" stroke-linejoin="round"/>
<path d="M13 9H11" stroke="#141B34" stroke-width="1.5" stroke-linejoin="round"/>
<path d="M9.5 19L9.5 15M14.5 19L14.5 15" stroke="#141B34" stroke-width="1.5" stroke-linejoin="round"/>
<path d="M19 5V2H5.00018L5 5" stroke="#141B34" stroke-width="1.5" stroke-linejoin="round"/>
<path d="M5 12V19H19V12" stroke="#141B34" stroke-width="1.5" stroke-linejoin="round"/>
</svg>
