<svg width="24" height="24" viewBox="0 0 24 24" fill="none" xmlns="http://www.w3.org/2000/svg">
<path d="M5 9C5 5.68629 8.13401 3 12 3C15.866 3 19 5.68629 19 9" stroke="#141B34" stroke-width="1.5" stroke-linejoin="round"/>
<path d="M19 17V21H12" stroke="#141B34" stroke-width="1.5" stroke-linejoin="round"/>
<path d="M6.99343 15.9921V10.0238L4.99492 9.01002L2.04391 11.0193C2.01655 11.0379 2.00017 11.0689 2.00017 11.1021L2 14.959C2 14.9925 2.01675 15.0238 2.04463 15.0423L4.9622 16.9833C4.99236 17.0034 5.03101 17.0055 5.06319 16.9889L6.99343 15.9921Z" stroke="#141B34" stroke-width="1.5"/>
<path d="M17.0066 15.9821V10.0138L19.0051 9L21.9561 11.0093C21.9834 11.0279 21.9998 11.0589 21.9998 11.092L22 14.9489C22 14.9825 21.9832 15.0138 21.9554 15.0323L19.0378 16.9733C19.0076 16.9934 18.969 16.9955 18.9368 16.9789L17.0066 15.9821Z" stroke="#141B34" stroke-width="1.5"/>
</svg>
