<svg width="24" height="24" viewBox="0 0 24 24" fill="none" xmlns="http://www.w3.org/2000/svg">
<ellipse cx="11" cy="5" rx="8" ry="3" stroke="#141B34" stroke-width="1.5" stroke-linejoin="round"/>
<path d="M11 15C6.58172 15 3 13.6569 3 12" stroke="#141B34" stroke-width="1.5" stroke-linejoin="round"/>
<path d="M10 11.4768C8.91806 11.4262 7.90321 11.2946 7 11.0986M10 18.4768C8.91806 18.4262 7.90321 18.2946 7 18.0986" stroke="#141B34" stroke-width="1.5" stroke-linejoin="round"/>
<path d="M11 22C6.58172 22 3 20.6569 3 19V5M19 5V10.5" stroke="#141B34" stroke-width="1.5" stroke-linejoin="round"/>
<path d="M19.5 16.5V15C19.5 13.8954 18.6046 13 17.5 13C16.3954 13 15.5 13.8954 15.5 15V16.5M14 16.5H21V22H14V16.5Z" stroke="#141B34" stroke-width="1.5"/>
</svg>
