<svg width="24" height="24" viewBox="0 0 24 24" fill="none" xmlns="http://www.w3.org/2000/svg">
<path d="M19.5 19.5C19.5 20.8807 18.3807 22 17 22C15.6193 22 14.5 20.8807 14.5 19.5C14.5 18.1193 15.6193 17 17 17C18.3807 17 19.5 18.1193 19.5 19.5Z" stroke="#141B34" stroke-width="1.5"/>
<path d="M9.5 19.5C9.5 20.8807 8.38071 22 7 22C5.61929 22 4.5 20.8807 4.5 19.5C4.5 18.1193 5.61929 17 7 17C8.38071 17 9.5 18.1193 9.5 19.5Z" stroke="#141B34" stroke-width="1.5"/>
<path d="M14.5 19.5H9.5M19.5 19.5H22V15C22 11.4101 19.0899 8.5 15.5 8.5M11 6H15V18M2 12V19.4885L4.5 19.5" stroke="#141B34" stroke-width="1.5"/>
<path d="M8 8L6.5 6.95V4M2 6.5C2 8.98528 4.01472 11 6.5 11C8.98528 11 11 8.98528 11 6.5C11 4.01472 8.98528 2 6.5 2C4.01472 2 2 4.01472 2 6.5Z" stroke="#141B34" stroke-width="1.5"/>
</svg>
