<svg width="24" height="24" viewBox="0 0 24 24" fill="none" xmlns="http://www.w3.org/2000/svg">
<path d="M12.0059 22V3" stroke="#141B34" stroke-width="1.5" stroke-linejoin="round"/>
<path d="M9.00781 22H15.002" stroke="#141B34" stroke-width="1.5" stroke-linejoin="round"/>
<path d="M17.0013 2.00417L12.0159 2.00391C12.0103 2.00391 12.0059 2.00838 12.0059 2.01391V6.99195C12.0059 6.99748 12.0103 7.00195 12.0158 7.00195H17.0013L19.0078 4.49936L17.0013 2.00417Z" stroke="#141B34" stroke-width="1.5"/>
<path d="M17.0013 12.0003L12.0159 12C12.0103 12 12.0059 12.0045 12.0059 12.01V16.988C12.0059 16.9936 12.0103 16.998 12.0158 16.998H17.0013L19.0078 14.4955L17.0013 12.0003Z" stroke="#141B34" stroke-width="1.5"/>
<path d="M7.01039 7.00124L11.9959 7.00098C12.0014 7.00098 12.0059 7.00545 12.0059 7.01098V11.989C12.0059 11.9945 12.0014 11.999 11.9959 11.999H7.01039L5.00391 9.49643L7.01039 7.00124Z" stroke="#141B34" stroke-width="1.5"/>
</svg>
