<svg width="24" height="24" viewBox="0 0 24 24" fill="none" xmlns="http://www.w3.org/2000/svg">
<path d="M11.5 10L9 9L7.5 12.5" stroke="#141B34" stroke-width="1.5" stroke-linejoin="round"/>
<path d="M14 6C12.8954 6 12 5.10457 12 4C12 2.89543 12.8954 2 14 2C15.1046 2 16 2.89543 16 4C16 5.10457 15.1046 6 14 6Z" stroke="#141B34" stroke-width="1.5" stroke-linejoin="round"/>
<path d="M15.5 19.4826C14.3982 21.0072 12.6003 22 10.5696 22C7.21743 22 4.5 19.295 4.5 15.9582C4.5 15.0829 4.66357 14.251 5 13.5" stroke="#141B34" stroke-width="1.5" stroke-linejoin="round"/>
<path d="M12.649 8L10.5 14H15.9996L19.4996 20" stroke="#141B34" stroke-width="1.5" stroke-linejoin="round"/>
</svg>
