<svg width="24" height="24" viewBox="0 0 24 24" fill="none" xmlns="http://www.w3.org/2000/svg">
<path d="M15.5 17.75L17 19.75C17 19.75 19.8658 18.8516 22 17.25C22 8.25 19.5 5.68722 19.5 5.68722C19.5 5.68722 17.5 4.75 15 4.25L14.3979 5.4807C14.3979 5.4807 13.2853 5.25 12 5.25C10.7147 5.25 9.60211 5.4807 9.60211 5.4807L9 4.25C6.5 4.75 4.5 5.68722 4.5 5.68722C4.5 5.68722 2 8.25 2 17.25C4.13419 18.8516 7 19.75 7 19.75L8.5 17.75" stroke="#141B34" stroke-width="1.5"/>
<path d="M17.5 16.75C17.5 16.75 15.2049 18.25 12 18.25C8.79507 18.25 6.5 16.75 6.5 16.75" stroke="#141B34" stroke-width="1.5" stroke-linecap="square" stroke-linejoin="round"/>
<path d="M17.25 12.25C17.25 13.3546 16.4665 14.25 15.5 14.25C14.5335 14.25 13.75 13.3546 13.75 12.25C13.75 11.1454 14.5335 10.25 15.5 10.25C16.4665 10.25 17.25 11.1454 17.25 12.25Z" stroke="#141B34" stroke-width="1.5"/>
<path d="M10.25 12.25C10.25 13.3546 9.4665 14.25 8.5 14.25C7.5335 14.25 6.75 13.3546 6.75 12.25C6.75 11.1454 7.5335 10.25 8.5 10.25C9.4665 10.25 10.25 11.1454 10.25 12.25Z" stroke="#141B34" stroke-width="1.5"/>
</svg>
