<svg width="24" height="24" viewBox="0 0 24 24" fill="none" xmlns="http://www.w3.org/2000/svg">
<path d="M15 9L9 15" stroke="#141B34" stroke-width="1.5" stroke-linejoin="round"/>
<path d="M14.5088 14.5H14.498M9.50099 9.5H9.49023" stroke="#141B34" stroke-width="2" stroke-linecap="square" stroke-linejoin="round"/>
<path d="M11.9397 2.02302L8.99098 4.46219H4.58319C4.5278 4.46219 4.48289 4.50709 4.48289 4.56249V8.98468L2.02351 11.9112C1.9923 11.9484 1.99215 12.0025 2.02316 12.0398L4.4868 15.0045L4.46017 19.4251C4.45983 19.4807 4.50484 19.526 4.56047 19.526H9.00424L11.9638 21.9769C12.0013 22.008 12.0556 22.0076 12.0927 21.9762L14.9893 19.5169H19.4247C19.4801 19.5169 19.525 19.472 19.525 19.4166V15.0001L21.9767 12.0623C22.0077 12.0251 22.0078 11.9711 21.9768 11.9339L19.5248 8.9847V4.56249C19.5248 4.50709 19.4799 4.46219 19.4245 4.46219H15.0017L12.0678 2.02317C12.0307 1.99234 11.9769 1.99227 11.9397 2.02302Z" stroke="#141B34" stroke-width="1.5"/>
</svg>
