<svg width="24" height="24" viewBox="0 0 24 24" fill="none" xmlns="http://www.w3.org/2000/svg">
<path d="M6.5 5C4.22182 5 2.375 6.62504 2.375 8.62963C2.375 10.6342 3.5 11.7407 6.5 11.7407C9.5 11.7407 11 12.7778 11 15.3704C11 17.963 8.98528 19 6.5 19M6.5 5C8.77817 5 10.625 6.62504 10.625 8.62963M6.5 5L6.5 3M6.5 19C4.01472 19 2 17.375 2 15.3704M6.5 19L6.5 21" stroke="#141B34" stroke-width="1.5" stroke-linejoin="round"/>
<path d="M14 12L21.5379 12M19 15L22 12L19 9" stroke="#141B34" stroke-width="1.5"/>
</svg>
