<svg width="24" height="24" viewBox="0 0 24 24" fill="none" xmlns="http://www.w3.org/2000/svg">
<path d="M10.7113 8.14648C9.69637 7.53403 9.01758 6.41964 9.01758 5.14648C9.01758 3.21348 10.5823 1.64648 12.5124 1.64648C14.4426 1.64648 16.0073 3.21348 16.0073 5.14648C16.0073 6.41964 15.3285 7.53403 14.3136 8.14648" stroke="#141B34" stroke-width="1.5"/>
<path d="M10.5633 21.6291V19.6459L6.34409 14.0888C6.2508 13.9659 6.16794 13.8339 6.12224 13.6866C6.03819 13.4156 6.01329 13.1366 6.0253 12.872C6.03544 12.6489 6.11001 12.4332 6.23017 12.2448C6.3001 12.1352 6.36696 12.0439 6.43514 11.9627C6.8498 11.4685 7.59001 11.3182 8.18883 11.559C8.35502 11.6258 8.49346 11.7053 8.59174 11.81C9.37064 12.6395 9.85272 13.1439 10.679 14.0568V6.40396C10.679 5.95104 10.8243 5.46838 11.1666 5.1714C11.9782 4.46721 12.7146 4.47572 13.5417 5.17172C13.8973 5.47106 13.9768 5.93932 13.9768 6.40396V9.77293C16.307 9.5979 18.8883 10.6999 20.1242 11.8533C20.6009 12.2981 20.9578 12.8965 20.9907 13.5473C21.0035 13.8024 20.9941 14.0729 20.9769 14.3244C20.9445 14.7979 20.848 15.2656 20.7151 15.7213C20.3606 16.9358 20.1873 17.3094 19.0082 19.6459V21.6465" stroke="#141B34" stroke-width="1.5"/>
<path d="M8.50619 4.64804L3.55398 4.6786M5.51646 2.14844L2.99805 4.68203L5.5124 7.14844" stroke="#141B34" stroke-width="1.5"/>
</svg>
