<svg width="24" height="24" viewBox="0 0 24 24" fill="none" xmlns="http://www.w3.org/2000/svg">
<path d="M8.55358 21.7424V19.7592L4.33433 14.2021C4.24103 14.0792 4.15817 13.9472 4.11248 13.7999C4.02843 13.5289 4.00352 13.2499 4.01554 12.9853C4.02567 12.7622 4.10024 12.5465 4.22041 12.3581C4.29033 12.2485 4.3572 12.1572 4.42538 12.076C4.84003 11.5818 5.58024 11.4315 6.17907 11.6723C6.34526 11.7391 6.48369 11.8186 6.58197 11.9233C7.36087 12.7528 7.84295 13.2571 8.66923 14.1701V6.51724C8.66923 6.06432 8.81456 5.58166 9.15684 5.28469C9.96846 4.58049 10.7049 4.589 11.5319 5.28501C11.8876 5.58435 11.967 6.0526 11.967 6.51724V9.88621C14.2972 9.71118 16.8785 10.8132 18.1145 11.9665C18.5911 12.4114 18.948 13.0098 18.9809 13.6605C18.9938 13.9157 18.9843 14.1862 18.9671 14.4377C18.9347 14.9112 18.8383 15.3789 18.7053 15.8346C18.3509 17.0491 18.1776 17.4226 16.9984 19.7592V21.7598" stroke="#141B34" stroke-width="1.5"/>
<path d="M8.69621 8.25977C7.67979 7.64732 7 6.53293 7 5.25977C7 3.32677 8.567 1.75977 10.5 1.75977C12.433 1.75977 14 3.32677 14 5.25977C14 6.53293 13.3202 7.64732 12.3038 8.25977" stroke="#141B34" stroke-width="1.5"/>
<path d="M13.4603 4.75709H19.9887M17.4949 2.25195L20.0098 4.7688L17.4949 7.26758" stroke="#141B34" stroke-width="1.5"/>
</svg>
