<svg width="24" height="24" viewBox="0 0 24 24" fill="none" xmlns="http://www.w3.org/2000/svg">
<path d="M7.75 13.7031C7.75 13.7031 8.65546 12.4814 9.25 12.2031C11.0448 11.363 11.4099 10.9979 12.25 9.20312C12.5283 8.60859 13.75 7.70312 13.75 7.70312M10.25 16.2031C10.25 16.2031 11.4717 15.2976 11.75 14.7031C12.5901 12.9083 12.9552 12.5432 14.75 11.7031C15.3445 11.4248 16.25 10.2031 16.25 10.2031" stroke="#141B34" stroke-width="1.5" stroke-linejoin="round"/>
<path d="M3.90334 17.4531L3.03779 18.3187C2.32074 19.0357 2.32074 20.1983 3.03779 20.9153C3.75483 21.6324 4.9174 21.6324 5.63445 20.9153L6.5 20.0498" stroke="#141B34" stroke-width="1.5" stroke-linejoin="round"/>
<path d="M17.5 3.85646L18.3656 2.99091C19.0826 2.27386 20.2452 2.27386 20.9622 2.99091C21.6793 3.70795 21.6793 4.87052 20.9622 5.58757L20.0967 6.45312" stroke="#141B34" stroke-width="1.5" stroke-linejoin="round"/>
<path d="M21.9707 8.39723L15.5759 1.98261C15.5369 1.94347 15.4736 1.94327 15.4344 1.98216L12.0298 5.35473C11.9903 5.39385 11.9901 5.45766 12.0293 5.49704L18.436 11.9236C18.4751 11.9629 18.5386 11.963 18.5778 11.9238L21.9705 8.53929C22.0098 8.50012 22.0098 8.4365 21.9707 8.39723Z" stroke="#141B34" stroke-width="1.5"/>
<path d="M11.9707 18.3972L5.57592 11.9826C5.53691 11.9435 5.47364 11.9433 5.43438 11.9822L2.02975 15.3547C1.99026 15.3939 1.99006 15.4577 2.02931 15.497L8.43603 21.9236C8.47514 21.9629 8.5386 21.963 8.57782 21.9238L11.9705 18.5393C12.0098 18.5001 12.0098 18.4365 11.9707 18.3972Z" stroke="#141B34" stroke-width="1.5"/>
</svg>
