<svg width="24" height="24" viewBox="0 0 24 24" fill="none" xmlns="http://www.w3.org/2000/svg">
<path d="M3.12759 16.6114C1.16104 12.8506 1.76719 8.09708 4.94283 4.93254C8.6204 1.26784 14.4364 1.037 18.3673 4.24499L15.8897 5.3039M20.8724 7.3886C22.839 11.1494 22.2328 15.9029 19.0572 19.0675C15.3796 22.7322 9.56364 22.963 5.63272 19.755L8.10753 18.6989" stroke="#141B34" stroke-width="1.5" stroke-linejoin="round"/>
<path d="M18.0607 13.4759L17.989 9.99982M17.989 9.99982L11.966 7.01959C11.9632 7.01821 11.9599 7.01821 11.9571 7.0196L6.03094 9.96224C6.02363 9.96587 6.02352 9.97627 6.03075 9.98006L8.53385 11.2903M17.989 9.99982L15.4656 11.2903M15.4656 11.2903L11.9616 12.9836L8.53385 11.2903M15.4656 11.2903V15.0478L11.9666 17.0176C11.9635 17.0194 11.9597 17.0193 11.9566 17.0175L8.53385 14.986V11.2903" stroke="#141B34" stroke-width="1.5"/>
</svg>
