<svg width="24" height="24" viewBox="0 0 24 24" fill="none" xmlns="http://www.w3.org/2000/svg">
<path d="M20.2 20.2L22 22M21.1 17.05C21.1 14.8132 19.2868 13 17.05 13C14.8132 13 13 14.8132 13 17.05C13 19.2868 14.8132 21.1 17.05 21.1C19.2868 21.1 21.1 19.2868 21.1 17.05Z" stroke="#141B34" stroke-width="1.5" stroke-linejoin="round"/>
<path d="M22 12C22 6.47715 17.5228 2 12 2C6.47715 2 2 6.47715 2 12C2 17.5228 6.47715 22 12 22" stroke="#141B34" stroke-width="1.5" stroke-linejoin="round"/>
<path d="M20 5.69899C19.0653 5.76636 17.8681 6.12824 17.0379 7.20277C15.5385 9.14361 14.039 9.30556 13.0394 8.65861C11.5399 7.6882 12.8 6.11636 11.0401 5.26215C9.89313 4.70542 9.73321 3.19045 10.3716 2" stroke="#141B34" stroke-width="1.5" stroke-linejoin="round"/>
<path d="M2 11C2.7625 11.6621 3.83046 12.2682 5.08874 12.2682C7.68843 12.2682 8.20837 12.7649 8.20837 14.7518C8.20837 16.7387 8.20837 16.7387 8.72831 18.2288C9.06651 19.1981 9.18472 20.1674 8.5106 21" stroke="#141B34" stroke-width="1.5" stroke-linejoin="round"/>
</svg>
