<svg width="24" height="24" viewBox="0 0 24 24" fill="none" xmlns="http://www.w3.org/2000/svg">
<path d="M12 5L14 2.20004C13.3538 2.06886 12.6849 2 12 2C6.47715 2 2 6.47715 2 12C2 17.5228 6.47715 22 12 22C17.5228 22 22 17.5228 22 12C22 8.72836 20.4289 5.82368 18 3.99927" stroke="#141B34" stroke-width="1.5" stroke-linejoin="round"/>
<path d="M7.98166 13.0166H10.4395M7.51367 11.1139V10.1117C7.51367 10.0565 7.55844 10.0117 7.61367 10.0117H10.5215V16.0107H7.61367C7.55844 16.0107 7.51367 15.966 7.51367 15.9107V14.8978M13.07 16.1104H16.4149C16.4701 16.1104 16.5149 16.0656 16.5149 16.0104V10.1117C16.5149 10.0565 16.4701 10.0117 16.4149 10.0117H13.07C13.0147 10.0117 12.97 10.0565 12.97 10.1117V16.0104C12.97 16.0656 13.0147 16.1104 13.07 16.1104Z" stroke="#141B34" stroke-width="1.5"/>
</svg>
