<svg width="24" height="24" viewBox="0 0 24 24" fill="none" xmlns="http://www.w3.org/2000/svg">
<path d="M11.4921 13.4524H13.3954C13.569 13.4524 13.8502 13.4246 14.0051 13.3717M14.0051 13.3717C14.5823 13.1747 14.9978 12.6866 14.9978 12.0616V10.3513M14.0051 13.3717V15.1548C14.0051 15.7798 13.5734 16.2725 12.9963 16.4696M10.8074 16.5522H12.3733C12.547 16.5522 12.8414 16.5225 12.9963 16.4696M12.9963 16.4696L12.9963 18.1829C12.9102 19.1714 12.2212 19.6545 11.4139 19.6545H4.97415C3.33268 19.6545 2.11457 18.3508 2.00195 16.7835L2.00195 7.75742L7.55027 4.16137C9.82311 2.81991 11.2996 4.2689 13.8623 7.10786M14.9978 10.3513H12.0065M14.9978 10.3513H20.2523C20.5246 10.3513 20.7706 10.3184 20.9956 10.2509C21.9804 9.95533 22.308 8.65322 21.6656 7.85063C21.393 7.51004 21.0402 7.26805 20.6549 7.26805L9.49075 7.26805" stroke="#141B34" stroke-width="1.5"/>
</svg>
