<svg width="24" height="24" viewBox="0 0 24 24" fill="none" xmlns="http://www.w3.org/2000/svg">
<path d="M9.99305 5.99473H4M4 5.99473V2M4 5.99473L4.00117 17.9789H9.99305" stroke="#141B34" stroke-width="1.5" stroke-linejoin="round"/>
<path d="M13.1214 9.98847H19.8964C19.9516 9.98847 19.9963 9.94376 19.9963 9.8886V4.53674L17.4798 1.98438H13.1214C13.0662 1.98438 13.0215 2.02909 13.0215 2.08424V9.8886C13.0215 9.94376 13.0662 9.98847 13.1214 9.98847Z" stroke="#141B34" stroke-width="1.5"/>
<path d="M13.1214 21.9807H19.8964C19.9516 21.9807 19.9963 21.9359 19.9963 21.8808V16.5289L17.4798 13.9766H13.1214C13.0662 13.9766 13.0215 14.0213 13.0215 14.0764V21.8808C13.0215 21.9359 13.0662 21.9807 13.1214 21.9807Z" stroke="#141B34" stroke-width="1.5"/>
</svg>
