<svg width="24" height="24" viewBox="0 0 24 24" fill="none" xmlns="http://www.w3.org/2000/svg">
<path d="M5.14286 14C4.41735 12.8082 4 11.4118 4 9.91886C4 5.54539 7.58172 2 12 2C16.4183 2 20 5.54539 20 9.91886C20 11.4118 19.5827 12.8082 18.8571 14" stroke="#141B34" stroke-width="1.5" stroke-linejoin="round"/>
<path d="M17.0003 16H7C7 16.9319 7 17.3978 7.15224 17.7654C7.35523 18.2554 7.74458 18.6448 8.23463 18.8478C8.60218 19 9.06812 19 10 19H14.0003C14.9322 19 15.3981 19 15.7657 18.8478C16.2557 18.6448 16.6451 18.2554 16.8481 17.7654C17.0003 17.3978 17.0003 16.9319 17.0003 16Z" stroke="#141B34" stroke-width="1.5"/>
<path d="M15 19L14 22H10L9 19" stroke="#141B34" stroke-width="1.5" stroke-linejoin="round"/>
<path d="M12 16L12 10" stroke="#141B34" stroke-width="1.5" stroke-linejoin="round"/>
</svg>
