<svg width="24" height="24" viewBox="0 0 24 24" fill="none" xmlns="http://www.w3.org/2000/svg">
<path d="M15 21C14.6917 19.8005 14.1618 18.6686 13.4412 17.6532M13.4412 17.6532C12.825 16.7848 12.0694 16.0016 11.1937 15.3342C9.14549 13.7729 6.57381 12.9466 3.93756 13.0027C3.62454 13.0019 3.31177 13.0127 3 13.0351M13.4412 17.6532C14.3464 16.9792 15.2871 16.5074 16.2449 16.2449" stroke="#141B34" stroke-width="1.5" stroke-linejoin="round"/>
<path d="M16.5 9C17.3284 9 18 8.32843 18 7.5C18 6.67157 17.3284 6 16.5 6C15.6716 6 15 6.67157 15 7.5C15 8.32843 15.6716 9 16.5 9Z" stroke="#141B34" stroke-width="1.5"/>
<path d="M2 2L22 22" stroke="#141B34" stroke-width="1.5" stroke-linejoin="round"/>
<path d="M3 3V21H21M6.2058 3H21V17.8394" stroke="#141B34" stroke-width="1.5" stroke-linejoin="round"/>
</svg>
