<svg width="24" height="24" viewBox="0 0 24 24" fill="none" xmlns="http://www.w3.org/2000/svg">
<path d="M8 10L2 16L4 18L10 12" stroke="#141B34" stroke-width="1.5" stroke-linejoin="round"/>
<path d="M12.5 22L14 19H18L19.5 22M11 22H21" stroke="#141B34" stroke-width="1.5" stroke-linejoin="round"/>
<path d="M20 11.6364L22 10M20 14.9091L22 16" stroke="#141B34" stroke-width="1.5" stroke-linejoin="round"/>
<path d="M9.83612 2.00391L8.79642 3.05603M8.79642 3.05603C10.1684 4.12383 13.0905 6.7103 13.3086 6.96994C13.5677 7.18868 15.8556 9.82343 16.92 11.198M8.79642 3.05603L5.05375 6.78964M5.05375 6.78964L3.99707 7.84377M5.05375 6.78964C5.63096 7.49521 6.50128 8.55786 7.27354 9.46519C8.25958 10.6237 9.34588 11.7125 10.5021 12.7013C11.4093 13.4771 12.4723 14.352 13.177 14.9314M17.9747 10.161L16.92 11.198M16.92 11.198L13.177 14.9314M13.177 14.9314L12.1203 15.9854" stroke="#141B34" stroke-width="1.5"/>
</svg>
