<svg width="24" height="24" viewBox="0 0 24 24" fill="none" xmlns="http://www.w3.org/2000/svg">
<path d="M3 2V22H21V2H3Z" stroke="#141B34" stroke-width="1.5" stroke-linejoin="round"/>
<path d="M8 17H16" stroke="#141B34" stroke-width="1.5" stroke-linejoin="round"/>
<path d="M5.99219 7.01173H11.9854M11.9854 7.01173H17.9985M11.9854 7.01173V13.999M11.9854 13.999H13.9915M11.9854 13.999H10.0057M15.9816 7.33215C15.4361 8.11289 14.4036 9.29122 14.5156 10.1692C14.5371 10.3377 14.5952 10.5011 14.6685 10.6543C14.8995 11.137 15.5163 11.7293 16.6315 11.3647C17.0099 11.1587 17.7062 10.512 17.464 9.57357C17.2555 8.76588 16.0749 7.76281 15.8574 7.01121C15.8288 6.91238 16.0406 7.24781 15.9816 7.33215ZM8.23247 7.01179C7.71824 7.74778 6.57808 9.07379 6.51076 9.99827C6.4902 10.2806 6.58953 10.5634 6.74008 10.8032C7.01894 11.2471 7.61862 11.6924 8.62089 11.3647C8.9993 11.1587 9.69558 10.512 9.4534 9.57357C9.24496 8.76588 8.44999 8.13957 8.23247 7.38797C8.20387 7.28913 8.2914 6.92744 8.23247 7.01179Z" stroke="#141B34" stroke-width="1.5"/>
</svg>
