<svg width="24" height="24" viewBox="0 0 24 24" fill="none" xmlns="http://www.w3.org/2000/svg">
<path d="M19.5 10.5L22 12C22 6.47715 17.5228 2 12 2C7.89936 2 4.3752 4.46819 2.83209 8M4.5 13.5L2 12C2 17.5228 6.47715 22 12 22C16.1006 22 19.6248 19.5318 21.1679 16" stroke="#141B34" stroke-width="1.5" stroke-linejoin="round"/>
<path d="M12 11H12.009" stroke="#141B34" stroke-width="2" stroke-linecap="round" stroke-linejoin="round"/>
<path d="M12 6.99995C9.79086 6.99995 8 8.80888 8 11.0403C8 12.3162 8.5 13.3083 9.5 14.1945C10.2049 14.8191 11.4873 16.159 12 17C12.5386 16.1757 13.7951 14.8191 14.5 14.1945C15.5 13.3083 16 12.3162 16 11.0403C16 8.80888 14.2091 6.99995 12 6.99995Z" stroke="#141B34" stroke-width="1.5" stroke-linejoin="round"/>
</svg>
