<svg width="24" height="24" viewBox="0 0 24 24" fill="none" xmlns="http://www.w3.org/2000/svg">
<path d="M4.00195 13.5V8.5H12.0096V13.5" stroke="#141B34" stroke-width="1.5" stroke-linejoin="round"/>
<path d="M19.0157 13C19.0157 14.1046 18.1194 15 17.0137 15C15.9081 15 15.0118 14.1046 15.0118 13C15.0118 11.8954 15.9081 11 17.0137 11C18.1194 11 19.0157 11.8954 19.0157 13Z" stroke="#141B34" stroke-width="1.5"/>
<path d="M10.0077 4C10.0077 5.10457 9.11144 6 8.00581 6C6.90019 6 6.00391 5.10457 6.00391 4C6.00391 2.89543 6.90019 2 8.00581 2C9.11144 2 10.0077 2.89543 10.0077 4Z" stroke="#141B34" stroke-width="1.5"/>
<path d="M13.5098 17.5H22.0179V22H18.0141" stroke="#141B34" stroke-width="1.5" stroke-linejoin="round"/>
<path d="M16.0297 21.9951H12.0761M12.0761 21.9951H3.96531C3.96097 21.9951 3.95713 21.9924 3.95579 21.9882L2.02198 16.0523C2.01988 16.0458 2.0247 16.0392 2.0315 16.0392H9.99739C10.0017 16.0392 10.0054 16.0419 10.0068 16.0459L12.0761 21.9951Z" stroke="#141B34" stroke-width="1.5"/>
</svg>
