<svg width="24" height="24" viewBox="0 0 24 24" fill="none" xmlns="http://www.w3.org/2000/svg">
<path d="M9.43406 2.0428C2.70541 2.42398 -0.312326 10.8027 3.5417 16.1956L2.14884 19.8436C2.11873 19.9224 2.19385 20.0008 2.27392 19.9741L6.28286 18.636C6.6988 18.8255 7.15633 19.1414 7.98821 19.3099M9.43406 2.0428C9.59083 2.03392 9.74932 2.02942 9.90946 2.02942M9.43406 2.0428L12.9079 2.03058M12.9079 2.03058L13.2373 2.02942M12.9079 2.03058C12.8595 2.02981 12.8108 2.02942 12.7619 2.02942M12.9079 2.03058C17.6785 2.10654 19.8713 5.89582 20.3684 7.37533C20.5788 8.12805 20.7111 8.87686 20.8116 9.54828" stroke="#141B34" stroke-width="1.5"/>
<path d="M17.0969 11.0436C20.9356 11.261 23.2871 15.646 20.8621 19.7264L21.6724 21.8316C21.7027 21.9103 21.6279 21.9889 21.5477 21.9625L19.2065 21.1899C18.2127 22.0269 13.8944 22.0977 12.729 21.3464C11.1974 20.4919 9.09968 18.5068 10.2024 14.406C10.4862 13.3507 11.9699 11.0825 14.9064 11.0359M17.0969 11.0436C16.9981 11.038 16.8982 11.0352 16.7972 11.0352M17.0969 11.0436L14.9064 11.0359M14.9064 11.0359L14.6988 11.0352M14.9064 11.0359C14.937 11.0354 14.9677 11.0352 14.9986 11.0352" stroke="#141B34" stroke-width="1.5"/>
</svg>
