<svg width="24" height="24" viewBox="0 0 24 24" fill="none" xmlns="http://www.w3.org/2000/svg">
<path d="M15.9102 2L21.872 8M15.9102 8L21.872 2" stroke="#141B34" stroke-width="1.5" stroke-linejoin="round"/>
<path d="M11.9309 12.5H11.9398M15.901 12.5H15.91M7.96075 12.5H7.96967" stroke="#141B34" stroke-width="2" stroke-linecap="square" stroke-linejoin="round"/>
<path d="M9.80555 3.01576C3.06561 3.22274 -0.472069 12.0415 3.6096 18.0345L2.15586 21.8C2.12545 21.8788 2.20033 21.9574 2.28051 21.931L6.45535 20.5521C8.06834 21.9217 14.815 22.129 17.1038 20.5521C19.6675 19.231 22.3546 16.3921 21.6228 10.9581M9.80555 3.01576C9.96599 3.0066 10.1282 3.00195 10.2921 3.00195M9.80555 3.01576L11.2251 3.01073L12.5362 3.00195" stroke="#141B34" stroke-width="1.5"/>
</svg>
