<svg width="24" height="24" viewBox="0 0 24 24" fill="none" xmlns="http://www.w3.org/2000/svg">
<path d="M7.45496 14.93H17.3756M7.45496 9.95703H13.4074" stroke="#141B34" stroke-width="1.5" stroke-linejoin="round"/>
<path d="M15.8878 6.97297L18.864 9.95675L21.8402 6.97297M18.864 2V9.38794" stroke="#141B34" stroke-width="1.5"/>
<path d="M9.93301 2.99891C2.34642 3.7339 -0.237282 12.4463 3.61065 17.9109L2.02342 21.7923C1.99075 21.8722 2.06782 21.9531 2.14921 21.9245L6.41371 20.4216C8.98218 21.8525 15.03 21.9618 17.2663 20.4492C19.2501 19.3505 22.1277 17.5085 21.82 11.4419M9.93301 2.99891C10.0893 2.98991 10.2474 2.98535 10.4071 2.98535M9.93301 2.99891L11.3161 2.99397H13.8986" stroke="#141B34" stroke-width="1.5"/>
</svg>
