<svg width="24" height="24" viewBox="0 0 24 24" fill="none" xmlns="http://www.w3.org/2000/svg">
<path d="M11.9998 9C10.8952 9 9.99976 9.67157 9.99976 10.5C9.99976 11.3284 10.8952 12 11.9998 12C13.1044 12 13.9998 12.6716 13.9998 13.5C13.9998 14.3284 13.1044 15 11.9998 15M11.9998 9C12.8706 9 13.6114 9.4174 13.886 10M11.9998 9V7.5M11.9998 15C11.129 15 10.3882 14.5826 10.1136 14M11.9998 15V16.5" stroke="#141B34" stroke-width="1.5" stroke-linejoin="round"/>
<path d="M13.5003 2.5H2.49976V21.5H21.5003V10.5" stroke="#141B34" stroke-width="1.5" stroke-linejoin="round"/>
<path d="M21.5002 2.52441L16.8513 7.16137M16.512 2.99833V7.49981H21.0001" stroke="#141B34" stroke-width="1.5"/>
</svg>
