<svg width="24" height="24" viewBox="0 0 24 24" fill="none" xmlns="http://www.w3.org/2000/svg">
<path d="M5.98438 10.0312L6.98079 17.063C9.6624 19.7419 14.2633 19.7419 16.945 17.063L17.9414 10.0312" stroke="#141B34" stroke-width="1.5"/>
<path d="M19.9641 9.02451L11.9296 13.049L1.99574 8.03869C1.98839 8.03498 1.9884 8.02441 1.99575 8.02072L11.9296 3.02832L21.9866 8.0206C21.9941 8.02429 21.994 8.03501 21.9866 8.03865L19.9641 9.02451ZM19.9641 9.02451V17.0522M19.9641 17.0522L17.9754 21.0157C17.9721 21.0224 17.9769 21.0303 17.9843 21.0303H21.8769C21.8842 21.0303 21.889 21.0225 21.8858 21.0158L19.9641 17.0522Z" stroke="#141B34" stroke-width="1.5"/>
</svg>
