<svg width="24" height="24" viewBox="0 0 24 24" fill="none" xmlns="http://www.w3.org/2000/svg">
<path d="M16 18C16 20.2091 14.2091 22 12 22C9.79086 22 8 20.2091 8 18" stroke="#141B34" stroke-width="1.5" stroke-linejoin="round"/>
<path d="M22 22L2 2" stroke="#141B34" stroke-width="1.5"/>
<path d="M20.1489 16.9669C20.6445 16.6701 21.097 16.3466 21.5 16L19.5 12.5V9.49998C19.5 5.35785 16.1421 1.99998 12 1.99998C10.1025 1.99998 8.36953 2.70466 7.0486 3.8666M5.59533 5.59532C4.90044 6.73269 4.5 8.06957 4.5 9.49998V12.5L2.5 16C4.61145 17.8156 8.07958 19 12 19C14.1896 19 16.2381 18.6305 17.988 17.988" stroke="#141B34" stroke-width="1.5"/>
</svg>
