<svg width="24" height="24" viewBox="0 0 24 24" fill="none" xmlns="http://www.w3.org/2000/svg">
<path d="M11 10L20 6L11 2L2 6L11 10Z" stroke="#141B34" stroke-width="1.5" stroke-linecap="round" stroke-linejoin="round"/>
<path d="M15.5 4L6.5 8" stroke="#141B34" stroke-width="1.5" stroke-linejoin="round"/>
<path d="M5 12L7 13" stroke="#141B34" stroke-width="1.5" stroke-linejoin="round"/>
<path d="M17.5 18.5L19.5 16.5M22 18C22 20.2091 20.2091 22 18 22C15.7909 22 14 20.2091 14 18C14 15.7909 15.7909 14 18 14C20.2091 14 22 15.7909 22 18Z" stroke="#141B34" stroke-width="1.5"/>
<path d="M2 6.00784V18.0268L10.8705 21.9873C10.9367 22.0168 11.0113 21.9683 11.0113 21.8958V10.0477M20 5.99609V12.0173" stroke="#141B34" stroke-width="1.5"/>
</svg>
