<svg width="24" height="24" viewBox="0 0 24 24" fill="none" xmlns="http://www.w3.org/2000/svg">
<path d="M18.0046 6.99854L17.9983 6.99219" stroke="#141B34" stroke-width="2" stroke-linecap="round" stroke-linejoin="round"/>
<path d="M20.8266 9.8158C19.2631 11.375 16.7283 11.375 15.1648 9.8158C13.6013 8.25659 13.6013 5.72861 15.1648 4.1694C16.7283 2.6102 19.2631 2.6102 20.8266 4.1694C22.39 5.72861 22.39 8.25659 20.8266 9.8158Z" stroke="#141B34" stroke-width="1.5"/>
<path d="M13.9925 8.49023L11.4903 10.4865M16.4947 10.4865L13.4921 12.9819" stroke="#141B34" stroke-width="1.5"/>
<path d="M3.18242 16.0009L9.94601 9.55791C9.9869 9.51896 10.052 9.5215 10.0897 9.56352L14.4272 14.397C14.4627 14.4366 14.4608 14.4975 14.4216 14.5336C13.1685 15.6882 11.2029 15.3991 10.4607 15.0055L7.71785 17.7578C7.71785 18.3992 7.54559 19.094 7.45946 19.3612C6.99063 20.287 5.31225 21.7555 3.32629 20.5482C1.877 19.6672 1.85137 18.3041 2.15757 17.375C2.3391 16.8242 2.76202 16.4014 3.18242 16.0009Z" stroke="#141B34" stroke-width="1.5"/>
</svg>
