<svg width="24" height="24" viewBox="0 0 24 24" fill="none" xmlns="http://www.w3.org/2000/svg">
<path d="M4.14188 14.0088C2.66818 15.3348 2.21059 18.5886 5.30594 19.3969C7.36339 19.934 10.7032 20.6946 12.0011 21.0145C13.299 20.6946 16.6388 19.934 18.6962 19.3969C21.7916 18.5886 21.334 15.3348 19.8604 14.0088" stroke="#141B34" stroke-width="1.5"/>
<path d="M14.0013 8.00374L12.0011 7.00293L10.0009 8.00358C10.0009 9.50481 10.7763 10.6014 12.0011 11.0061C13.2259 10.6014 14.0013 9.50497 14.0013 8.00374Z" stroke="#141B34" stroke-width="1.5" stroke-linecap="round" stroke-linejoin="round"/>
<path d="M20.1489 7.98943C18.5418 6.36911 14.367 4.0906 12.0063 3.01758C9.64922 4.0906 5.4143 6.36911 3.8072 7.98943C2.43343 9.37451 1.59976 10.2687 2.15383 12.0488C2.59709 13.4729 3.87925 14.0247 4.44304 14.0247H19.513C20.0768 14.0247 21.359 13.4729 21.8022 12.0488C22.3563 10.2687 21.5226 9.37451 20.1489 7.98943Z" stroke="#141B34" stroke-width="1.5"/>
</svg>
