<svg width="24" height="24" viewBox="0 0 24 24" fill="none" xmlns="http://www.w3.org/2000/svg">
<path d="M10.5 5C5.80558 5 2 8.80558 2 13.5C2 18.1944 5.80558 22 10.5 22C15.1944 22 19 17.6944 19 13C17 13 14.75 14.842 14.75 16.9M10.5 5H19C19 10.5 15.3747 11.8 12.2 11.8H10.5C9.09167 11.8 7.95 12.9417 7.95 14.35C7.95 15.7583 9.09167 16.9 10.5 16.9H14.75M10.5 5V8.4M14.75 16.9V18.5M5.4 20.3L8.8 16.9M3.275 9.25L7.95 13.075" stroke="#141B34" stroke-width="1.5"/>
<path d="M13.5 8L13.491 8" stroke="#141B34" stroke-width="2" stroke-linecap="round" stroke-linejoin="round"/>
<path d="M9 2.00012H20.1608C21.321 2.00012 22.1912 3.0512 21.9637 4.17777C21.6689 5.63739 20.3433 6.67844 18.9189 7.00012" stroke="#141B34" stroke-width="1.5" stroke-linejoin="round"/>
</svg>
