<svg width="24" height="24" viewBox="0 0 24 24" fill="none" xmlns="http://www.w3.org/2000/svg">
<path d="M12.999 5C12.999 5.35099 12.9388 5.68791 12.828 6.00096L17.9981 6.00096V11.171C18.3111 11.0603 18.6481 11 18.999 11C20.6559 11 21.999 12.3431 21.999 14C21.999 15.6569 20.6559 17 18.999 17C18.6481 17 18.3111 16.9397 17.9981 16.829V21.999H12.8287C12.939 21.6865 12.999 21.3503 12.999 21C12.999 19.3431 11.6559 18 9.99904 18C8.34219 18 6.99904 19.3431 6.99904 21C6.99904 21.3503 7.05908 21.6865 7.16941 21.999H2.00024L2 16.8296C2.31251 16.94 2.64876 17 2.99904 17C4.6559 17 5.99904 15.6569 5.99904 14C5.99904 12.3431 4.6559 11 2.99904 11C2.64876 11 2.31251 11.06 2 11.1704L2.00058 6.00096H7.17008C7.05932 5.68791 6.99904 5.35099 6.99904 5C6.99904 3.34315 8.34219 2 9.99904 2C11.6559 2 12.999 3.34315 12.999 5Z" stroke="#141B34" stroke-width="1.5"/>
</svg>
