<svg width="24" height="24" viewBox="0 0 24 24" fill="none" xmlns="http://www.w3.org/2000/svg">
<path d="M12 22C17.5228 22 22 17.5228 22 12C22 6.47715 17.5228 2 12 2C6.47715 2 2 6.47715 2 12C2 17.5228 6.47715 22 12 22Z" stroke="#141B34" stroke-width="1.5"/>
<path d="M12.0082 7.99219L12.0083 7.24219C11.6803 7.24216 11.3903 7.45532 11.2924 7.76841L12.0082 7.99219ZM9.5025 16.0077L8.83026 16.3402C8.96616 16.6149 9.25554 16.7793 9.56109 16.7554C9.86665 16.7314 10.1269 16.524 10.2183 16.2314L9.5025 16.0077ZM7.50931 11.9786L8.18155 11.646C8.07486 11.4303 7.87117 11.279 7.6339 11.239C7.39662 11.199 7.15458 11.2753 6.98312 11.4441L7.50931 11.9786ZM16.9676 14.9759L16.8111 15.7094L16.8885 15.7259H16.9676V14.9759ZM15.7812 13.6047L15.0916 13.8996L15.107 13.9355L15.126 13.9697L15.7812 13.6047ZM14.9091 11.6724L14.2464 12.0235H14.2464L14.9091 11.6724ZM16.0283 12.2809L15.4537 11.7989L15.4474 11.8064L15.4414 11.814L16.0283 12.2809ZM17.9879 7.24267L12.0083 7.24219L12.0082 8.74219L17.9877 8.74267L17.9879 7.24267ZM11.2924 7.76841L8.78666 15.7839L10.2183 16.2314L12.7241 8.21597L11.2924 7.76841ZM10.1747 15.6751L8.18155 11.646L6.83707 12.3111L8.83026 16.3402L10.1747 15.6751ZM6.98312 11.4441L5.4699 12.934L6.52228 14.0029L8.0355 12.513L6.98312 11.4441ZM17.6946 14.2259H16.9676V15.7259H17.6946V14.2259ZM17.1241 14.2424C16.9323 14.2015 16.8674 14.1305 16.8014 14.0212C16.7552 13.9446 16.7138 13.8524 16.6554 13.713C16.604 13.5905 16.5306 13.4088 16.4364 13.2397L15.126 13.9697C15.1702 14.0491 15.2081 14.1405 15.2722 14.2933C15.3292 14.4293 15.4077 14.6148 15.5171 14.7961C15.7624 15.2027 16.1522 15.5688 16.8111 15.7094L17.1241 14.2424ZM16.4708 13.3098C16.3783 13.0937 16.2828 12.8746 16.1901 12.665L14.8183 13.2717C14.9089 13.4766 15.002 13.69 15.0916 13.8996L16.4708 13.3098ZM16.1901 12.665C15.913 12.0383 15.6462 11.4616 15.5718 11.3213L14.2464 12.0235C14.2907 12.1071 14.5346 12.6303 14.8183 13.2717L16.1901 12.665ZM15.5718 11.3213C15.462 11.1139 15.2773 10.7143 14.8252 10.4749C14.4286 10.2648 13.9153 10.221 13.2857 10.221V11.721C13.5856 11.721 13.789 11.7338 13.9299 11.754C14.0703 11.7741 14.1177 11.7976 14.1231 11.8004C14.1242 11.801 14.1204 11.7989 14.1155 11.7945C14.1112 11.7907 14.1126 11.7909 14.1204 11.8014C14.1454 11.8353 14.1723 11.8837 14.2464 12.0235L15.5718 11.3213ZM18.0031 10.221C17.4152 10.221 16.9208 10.4506 16.5132 10.7502C16.115 11.0428 15.7647 11.428 15.4537 11.7989L16.603 12.7628C16.8989 12.41 17.1547 12.1402 17.4015 11.9589C17.6389 11.7844 17.8283 11.721 18.0031 11.721V10.221ZM15.4414 11.814C15.2574 12.0453 15.0761 12.2887 14.9038 12.5189L16.1046 13.4178C16.2815 13.1814 16.448 12.9581 16.6153 12.7478L15.4414 11.814ZM14.9038 12.5189C14.5194 13.0324 14.1808 13.4759 13.8323 13.7971C13.4861 14.1162 13.2235 14.2259 13.0031 14.2259V15.7259C13.7661 15.7259 14.3783 15.3338 14.8488 14.9002C15.3171 14.4686 15.7374 13.9084 16.1046 13.4178L14.9038 12.5189Z" fill="#141B34"/>
</svg>
