<svg width="24" height="24" viewBox="0 0 24 24" fill="none" xmlns="http://www.w3.org/2000/svg">
<path d="M15.6899 22.0023L14.0098 20.9359C11.8262 21.0156 8.75475 20.9518 7.37174 19.2941C6.83443 18.5889 6.65196 17.471 6.79137 16.1767C6.9766 14.4571 7.24826 13.4551 8.409 11.649L3.80797 9.00643C3.03723 8.56376 2.77053 7.57902 3.21224 6.80679C3.65423 6.03405 4.63805 5.76691 5.40906 6.21028L13.2678 10.7294C13.1073 9.62639 12.8885 9.30681 12.7168 8.14227C12.6699 7.8239 12.7219 7.49907 12.8511 7.20439C13.1701 6.4765 13.9831 6.10389 14.7414 6.33809L14.7728 6.34778C15.2547 6.49662 15.6382 6.86454 15.8076 7.3404L17.9996 13.4992L19.9986 14.5894" stroke="#141B34" stroke-width="1.5"/>
<path d="M21.0007 5.99894C20.0976 4.22115 18.761 3.05308 16.9297 2.36663C15.6549 1.88877 14.236 1.90405 12.9416 2.3256C11.9537 2.60558 10.6769 3.43675 9.8754 4.45205M9.50098 1.99805V5.00245H12.0095" stroke="#141B34" stroke-width="1.5"/>
</svg>
