<svg width="25" height="24" viewBox="0 0 25 24" fill="none" xmlns="http://www.w3.org/2000/svg">
<path d="M15.5 4.99481C14.2351 3.18447 11.8787 2 9.5 2C5.63401 2 2.5 5.12859 2.5 8.98789C2.5 12.6794 5.36736 15.7198 9 15.9758" stroke="#141B34" stroke-width="1.5"/>
<path d="M9.5 5.99345V9.4874L7.5 10.9848" stroke="#141B34" stroke-width="1.5"/>
<path d="M12.6693 15.4309C10.6089 11.9408 13.316 10.3106 13.8398 9.82935C14.2578 9.44521 15.8505 8.53363 16.4968 7.9511C17.045 8.45562 18.8296 9.49524 19.1477 9.81051C19.4658 10.1258 22.535 11.9796 20.3105 15.4309M12.6693 15.4309H20.3105M12.6693 15.4309H10.5H22.5H20.3105M12.6693 15.4309V21.9951H16.4899M20.3105 15.4309V21.9951H16.4899M16.4899 21.9951V19.1621" stroke="#141B34" stroke-width="1.5"/>
</svg>
