<svg width="24" height="24" viewBox="0 0 24 24" fill="none" xmlns="http://www.w3.org/2000/svg">
<path d="M19.7453 13C20.5362 11.8662 21 10.4872 21 9C21 5.13401 17.866 2 14 2C10.134 2 7 5.134 7 9C7 10.0736 7.24169 11.0907 7.67363 12" stroke="#141B34" stroke-width="1.5" stroke-linejoin="round"/>
<path d="M12 5.5L13.9993 8.05556M13.9993 8.05556L15.9993 5.5M13.9993 8.05556V12.5M16 9.83333H12" stroke="#141B34" stroke-width="1.5" stroke-linecap="square"/>
<path d="M3 14H6L8.5 15.3751H9.5C11 15.3751 12 16.524 12 17.4998L9 18.4998L6 17.4998M11.9993 17L16.2103 15.5963C17.2149 15.2615 18.3064 15.7677 18.6997 16.7509L18.9993 17.5L9.99931 22L3 20.0199" stroke="#141B34" stroke-width="1.5" stroke-linejoin="round"/>
</svg>
