<svg width="24" height="24" viewBox="0 0 24 24" fill="none" xmlns="http://www.w3.org/2000/svg">
<path d="M19.5 17.5C19.5 18.8807 18.3807 20 17 20C15.6193 20 14.5 18.8807 14.5 17.5C14.5 16.1193 15.6193 15 17 15C18.3807 15 19.5 16.1193 19.5 17.5Z" stroke="#141B34" stroke-width="1.5"/>
<path d="M9.5 17.5C9.5 18.8807 8.38071 20 7 20C5.61929 20 4.5 18.8807 4.5 17.5C4.5 16.1193 5.61929 15 7 15C8.38071 15 9.5 16.1193 9.5 17.5Z" stroke="#141B34" stroke-width="1.5"/>
<path d="M14.5 17.5H9.5M15 16V4H2L1.9998 17.5H4.5M15.5 6.5H18.9998L21.9998 11L22 17.5H19.4998" stroke="#141B34" stroke-width="1.5"/>
</svg>
