<svg width="24" height="24" viewBox="0 0 24 24" fill="none" xmlns="http://www.w3.org/2000/svg">
<path d="M2.5 7.5V6.75C2.2788 6.75 2.06889 6.84764 1.92638 7.01682C1.78388 7.186 1.72332 7.40945 1.7609 7.62743L2.5 7.5ZM5 22L4.2609 22.1274L4.36824 22.75H5V22ZM21.5 7.5L22.2391 7.62743C22.2767 7.40945 22.2161 7.186 22.0736 7.01682C21.9311 6.84764 21.7212 6.75 21.5 6.75V7.5ZM1.7609 7.62743L4.2609 22.1274L5.73909 21.8726L3.2391 7.37257L1.7609 7.62743ZM5 22.75H11V21.25H5V22.75ZM2.5 8.25H21.5V6.75H2.5V8.25ZM20.7609 7.37257L19.8126 12.8726L21.2908 13.1274L22.2391 7.62743L20.7609 7.37257Z" fill="#141B34"/>
<path d="M17.5 7.5C17.5 4.46243 15.0376 2 12 2C8.96243 2 6.5 4.46243 6.5 7.5" stroke="#141B34" stroke-width="1.5"/>
<path d="M4.5 17.5H11" stroke="#141B34" stroke-width="1.5"/>
<path d="M13.5 15L17 18.5M17 18.5L20.5 22M17 18.5L13.5 22M17 18.5L20.5 15" stroke="#141B34" stroke-width="1.5" stroke-linejoin="round"/>
</svg>
