<svg width="24" height="24" viewBox="0 0 24 24" fill="none" xmlns="http://www.w3.org/2000/svg">
<path d="M4 21V14.3936C4 11.7663 4 10.4526 4.35874 9.3043C4.86959 7.66915 6.67366 5.92188 8.07257 4.90416C8.96802 4.25271 11.4481 3.70275 13.5 2.99976L17.7348 4.36952C18.4651 4.66966 18.8346 5.48739 18.5771 6.23385C18.3041 7.02521 17.433 7.43653 16.6485 7.14452M10.1089 8L13.5 6.49976L16.6485 7.14452M12 21C12.3639 19.5 14.1801 18.7963 14.1801 18.7963C15 18.5 16.2035 17.9258 16.7268 17.5L19.5607 15.6506C20.1896 15.1388 19.8804 14.3849 19.3133 14.0088C17.4785 12.7921 15.719 13.853 14.0259 14.6951C12.5527 15.4278 10.6179 14.3622 10.6179 12.7238C10.6179 10.4887 14.1046 9.45724 15.8849 10.1656L18.0793 10.8095C18.8889 11.0471 19.7378 10.5779 19.9513 9.77491C20.1441 9.04982 19.7492 8.29862 19.0358 8.03306L16.6485 7.14452" stroke="#141B34" stroke-width="1.5" stroke-linejoin="round"/>
</svg>
