<svg width="24" height="24" viewBox="0 0 24 24" fill="none" xmlns="http://www.w3.org/2000/svg">
<path d="M19 6V2H5V6M19 18V22H5V18" stroke="#141B34" stroke-width="1.5" stroke-linejoin="round"/>
<path d="M9 2L10 5H14L15 2" stroke="#141B34" stroke-width="1.5"/>
<path d="M10.5 19H13.5" stroke="#141B34" stroke-width="1.5" stroke-linejoin="round"/>
<path d="M4 8.5C4 8.5 5 8.846 5 9.8125C5 10.779 4 11.0335 4 12C4 12.9665 5 13.221 5 14.1875C5 15.154 4 15.5 4 15.5" stroke="#141B34" stroke-width="1.5" stroke-linejoin="round"/>
<path d="M20 8.5C20 8.5 19 8.846 19 9.8125C19 10.779 20 11.0335 20 12C20 12.9665 19 13.221 19 14.1875C19 15.154 20 15.5 20 15.5" stroke="#141B34" stroke-width="1.5" stroke-linejoin="round"/>
</svg>
