<svg width="24" height="24" viewBox="0 0 24 24" fill="none" xmlns="http://www.w3.org/2000/svg">
<path d="M9 5L9.95918 2C5.96094 2.8116 2.8116 5.96094 2 9.95918M19 9L22 9.95918C21.1884 5.96094 18.0391 2.8116 14.0408 2M15 19L14.0408 22C18.0391 21.1884 21.1884 18.0391 22 14.0408M9.95918 22C5.96094 21.1884 2.8116 18.0391 2 14.0408L5 15" stroke="#141B34" stroke-width="1.5" stroke-linejoin="round"/>
<path d="M15.3333 12C15.3333 13.8409 13.8409 15.3333 12 15.3333M15.3333 12C15.3333 10.1591 13.8409 8.66667 12 8.66667M15.3333 12H17M12 15.3333C10.1591 15.3333 8.66667 13.8409 8.66667 12M12 15.3333V17M8.66667 12C8.66667 10.1591 10.1591 8.66667 12 8.66667M8.66667 12L7 12M12 8.66667V7M14.357 9.64299L15.5355 8.46448M9.64298 14.357L8.46447 15.5355M14.357 14.357L15.5355 15.5355M9.64298 9.64299L8.46447 8.46448" stroke="#141B34" stroke-width="1.5" stroke-linejoin="round"/>
</svg>
