<svg width="24" height="24" viewBox="0 0 24 24" fill="none" xmlns="http://www.w3.org/2000/svg">
<path d="M22 12C22 17.5228 17.5228 22 12 22C6.47715 22 2 17.5228 2 12M8.5 2.62961C9.58934 2.22255 10.7687 2 12 2C13.2313 2 14.4107 2.22255 15.5 2.62961" stroke="#141B34" stroke-width="1.5" stroke-linejoin="round"/>
<path d="M8 15C8.91212 16.2144 10.3643 17 12 17C13.6357 17 15.0879 16.2144 16 15" stroke="#141B34" stroke-width="1.5" stroke-linejoin="round"/>
<path d="M6.98032 5.03446C7.0102 4.98857 6.99053 4.9885 7.02053 5.03431L8.06365 6.83174L9.93104 7.2917C9.98009 7.30597 10.0185 7.30836 9.99628 7.32844C9.99305 7.33136 9.98968 7.33416 9.98669 7.33732L8.64109 8.75854L9.15196 10.9681C9.15291 10.9722 9.15362 10.9765 9.15349 10.9807C9.15205 11.0276 9.09683 10.9767 9.04792 10.9577L7.00885 10.1077L4.95157 10.9577C4.8459 10.9981 4.839 11.0137 4.84106 10.9644C4.84124 10.9599 4.84187 10.9555 4.84287 10.9512L5.34955 8.75567L4.03513 7.35396C4.03156 7.35016 4.0276 7.34678 4.02358 7.34345C4.00869 7.33109 3.97587 7.29809 4.02983 7.28399L5.93888 6.81594L6.98032 5.03446Z" stroke="#141B34" stroke-width="1.5"/>
<path d="M16.9803 5.03446C17.0102 4.98857 16.9905 4.9885 17.0205 5.03431L18.0636 6.83174L19.931 7.2917C19.9801 7.30597 20.0185 7.30836 19.9963 7.32844C19.993 7.33136 19.9897 7.33416 19.9867 7.33732L18.6411 8.75854L19.152 10.9681C19.1529 10.9722 19.1536 10.9765 19.1535 10.9807C19.1521 11.0276 19.0968 10.9767 19.0479 10.9577L17.0089 10.1077L14.9516 10.9577C14.8459 10.9981 14.839 11.0137 14.8411 10.9644C14.8412 10.9599 14.8419 10.9555 14.8429 10.9512L15.3496 8.75567L14.0351 7.35396C14.0316 7.35016 14.0276 7.34678 14.0236 7.34345C14.0087 7.33109 13.9759 7.29808 14.0298 7.28399L15.9389 6.81594L16.9803 5.03446Z" stroke="#141B34" stroke-width="1.5"/>
</svg>
