<svg width="24" height="24" viewBox="0 0 24 24" fill="none" xmlns="http://www.w3.org/2000/svg">
<path d="M13.0011 2.00012C14.1051 2.00012 15 2.93138 15 4.08015V6.50012L9 10.0001L3 6.50012V4.07994C3 2.93129 3.89483 2.00012 4.99866 2.00012" stroke="#141B34" stroke-width="1.5" stroke-linejoin="round"/>
<path d="M9.00024 14.0001V17.4999C9.00024 19.9853 11.0151 22.0002 13.5006 22.0002C15.986 22.0002 18.0009 19.9853 18.0009 17.4999V16.0001" stroke="#141B34" stroke-width="1.5" stroke-linejoin="round"/>
<path d="M14.0002 7.00012L12.0002 12.0001L8.96984 14.0001L6.00024 12.0001L4.00024 7.00012" stroke="#141B34" stroke-width="1.5"/>
<path d="M21.0002 13.0001C21.0002 14.657 19.6571 16.0001 18.0002 16.0001C16.3434 16.0001 15.0002 14.657 15.0002 13.0001C15.0002 11.3433 16.3434 10.0001 18.0002 10.0001C19.6571 10.0001 21.0002 11.3433 21.0002 13.0001Z" stroke="#141B34" stroke-width="1.5"/>
<path d="M18.009 13.0001L18 13.0001" stroke="#141B34" stroke-width="2" stroke-linecap="round" stroke-linejoin="round"/>
</svg>
