<svg width="24" height="24" viewBox="0 0 24 24" fill="none" xmlns="http://www.w3.org/2000/svg">
<path d="M2.99902 10.5043V21.5014H20.999V10.5043" stroke="#141B34" stroke-width="1.5" stroke-linejoin="round"/>
<path d="M5.99902 18.0023H10.999" stroke="#141B34" stroke-width="1.5"/>
<path d="M9.13638 10.2695C7.93711 11.5779 6.25359 11.5771 5.27947 11.4023C3.77281 11.1319 2.63279 9.93676 2.00078 9.0276C1.99902 9.02506 1.99857 9.02191 1.99949 9.01896L4.0489 2.49854H19.9537L22 8.99799C22.0009 9.00088 22.0006 9.00389 21.9989 9.0064C21.1211 10.3211 18.666 12.8199 15.2156 10.6568L14.7278 10.4347M9.13638 10.2695C9.655 9.70364 10.0831 8.893 10.324 7.74573M9.13638 10.2695C9.72723 10.9364 11.3695 12.0306 13.4048 11.2313C13.9574 11.0142 14.388 10.7422 14.7278 10.4347M14.7278 10.4347C15.5834 9.6602 15.8632 8.66042 16.0667 7.74573" stroke="#141B34" stroke-width="1.5"/>
</svg>
