<svg width="24" height="24" viewBox="0 0 24 24" fill="none" xmlns="http://www.w3.org/2000/svg">
<path d="M3 10.0024V21.0024H13M21 10.0024V13.0024" stroke="#141B34" stroke-width="1.5" stroke-linejoin="round"/>
<path d="M16 16.0024L19 19.0024M19 19.0024L22 22.0024M19 19.0024L16 22.0024M19 19.0024L22 16.0024" stroke="#141B34" stroke-width="1.5" stroke-linejoin="round"/>
<path d="M6 17.0024H11" stroke="#141B34" stroke-width="1.5" stroke-linejoin="round"/>
<path d="M9.13638 9.76532C7.93711 11.0732 6.25359 11.0724 5.27947 10.8977C3.77281 10.6275 2.63279 9.43275 2.00078 8.52395C1.99902 8.52142 1.99857 8.51826 1.99949 8.51531L4.0489 1.99744H19.9537L22 8.49435C22.0009 8.49724 22.0006 8.50025 21.9989 8.50276C21.1211 9.81697 18.666 12.3147 15.2156 10.1525L14.7278 9.93048M9.13638 9.76532C9.655 9.19973 10.0831 8.3894 10.324 7.24258M9.13638 9.76532C9.72723 10.432 11.3695 11.5257 13.4048 10.7268C13.9574 10.5098 14.388 10.2379 14.7278 9.93048M14.7278 9.93048C15.5834 9.15631 15.8632 8.15691 16.0667 7.24258" stroke="#141B34" stroke-width="1.5"/>
</svg>
