<svg width="24" height="24" viewBox="0 0 24 24" fill="none" xmlns="http://www.w3.org/2000/svg">
<path d="M9.70195 8.01214V11.0092M9.70195 8.01214H11.3896M9.70195 8.01214V4.84057C9.70195 4.56863 9.75917 3.44024 9.6227 2.99946C9.1977 2.0009 7.98753 1.69488 7.18639 2.33636C6.84642 2.60858 6.60484 3.13369 6.60484 3.51843V14.1258M11.3896 8.01214C12.1529 8.01214 12.6129 8.59622 12.8606 9.45169L14.4529 9.51069M11.3896 8.01214C12.1721 8.06867 12.778 8.72018 12.778 9.50496V12.0181M7.12716 21.999V19.9952C5.68961 18.2245 4.79519 17.3384 3.71777 15.6662C2.14664 13.4596 3.20176 11.6655 6.42273 9.17233M14.4529 9.51069C15.142 9.48187 15.8913 10.342 16.0038 10.9524L17.7165 11.0238C18.7031 11.1097 19.0589 12.1479 18.994 12.9621L18.9468 16.0772C18.994 18.1185 17.5786 19.092 16.8532 19.9828V21.9829M14.4529 9.51069L14.6507 9.54666C15.3626 9.67616 15.8801 10.2965 15.8801 11.0204V12.9916" stroke="#141B34" stroke-width="1.5"/>
<path d="M15.001 4.50227H20.3661M18.501 2L21.001 4.50227L18.501 7.00454" stroke="#141B34" stroke-width="1.5"/>
</svg>
