<svg width="24" height="24" viewBox="0 0 24 24" fill="none" xmlns="http://www.w3.org/2000/svg">
<path d="M13.8182 12.4211V10.5C13.8182 10.3247 13.7881 10.1564 13.7328 10M16.9091 12.9737V11.5C16.9091 11.3247 16.879 11.1564 16.8237 11M10.7273 9V11.4211M10.7273 9H12.3182C12.9713 9 13.5269 9.4174 13.7328 10M10.7273 9V3.57895C10.7273 2.70692 10.0353 2 9.18182 2C8.32829 2 7.63636 2.70692 7.63636 3.57895V14.0655L5.96696 12.3546C5.23449 11.6039 4.02795 11.6724 3.38085 12.5014C2.88571 13.1357 2.87204 14.033 3.3476 14.6829L7.63636 22H17C18.6569 22 20 20.6569 20 19V12.5C20 11.6716 19.3284 11 18.5 11H16.8237M13.7328 10H15.4091C16.0622 10 16.6178 10.4174 16.8237 11" stroke="#141B34" stroke-width="1.5"/>
<path d="M15 4.5L20.3536 4.5M18.5 2L21 4.5L18.5 7" stroke="#141B34" stroke-width="1.5"/>
</svg>
