<svg width="24" height="24" viewBox="0 0 24 24" fill="none" xmlns="http://www.w3.org/2000/svg">
<path d="M18.5 2.00195V7.40285M16 5.50195L18.5 8.00195L21 5.50195" stroke="#141B34" stroke-width="1.5"/>
<path d="M12.7971 12.5089V10.6056C12.7971 10.4319 12.7693 10.1508 12.7164 9.99586M12.7164 9.99586C12.5194 9.41868 12.0313 9.00318 11.4063 9.00318H9.69599M12.7164 9.99586H14.4995C15.1246 9.99586 15.6173 10.4275 15.8143 11.0047M15.897 13.1936V11.6276C15.897 11.454 15.8673 11.1596 15.8143 11.0047M15.8143 11.0047H17.5277C18.5161 11.0907 18.9992 11.7798 18.9992 12.5871V19.0268C18.9992 20.6683 17.6955 21.8864 16.1282 21.999H7.10214L3.50609 16.4507C2.16464 14.1779 3.61362 12.7014 6.45259 10.1387M9.69599 9.00318V11.9945M9.69599 9.00318V3.7487C9.69599 3.47637 9.66313 3.23036 9.59561 3.00536C9.30006 2.02054 7.99795 1.69297 7.19536 2.33538C6.85476 2.60799 6.61278 2.96074 6.61278 3.34603V14.5102" stroke="#141B34" stroke-width="1.5"/>
</svg>
