<svg width="24" height="24" viewBox="0 0 24 24" fill="none" xmlns="http://www.w3.org/2000/svg">
<path d="M16.9987 12C16.9987 14.7614 14.7601 17 11.9987 17C9.23724 17 6.99866 14.7614 6.99866 12C6.99866 9.23858 9.23724 7 11.9987 7" stroke="#141B34" stroke-width="1.5" stroke-linejoin="round"/>
<path d="M13.9987 2.20004C13.3525 2.06886 12.6836 2 11.9987 2C6.47581 2 1.99866 6.47715 1.99866 12C1.99866 17.5228 6.47581 22 11.9987 22C17.5215 22 21.9987 17.5228 21.9987 12C21.9987 11.3151 21.9298 10.6462 21.7987 10" stroke="#141B34" stroke-width="1.5" stroke-linejoin="round"/>
<path d="M16.0028 7.98759V5.00474L18.9716 2.04531C18.9773 2.03969 18.9869 2.04258 18.9885 2.05037L19.487 4.47326C19.4878 4.47716 19.4908 4.48022 19.4947 4.48103L21.9831 5.0011C21.9909 5.00273 21.9937 5.01239 21.9881 5.018L18.9877 7.9847C18.9858 7.98655 18.9833 7.98759 18.9807 7.98759H16.0028ZM16.0028 7.98759L11.9874 12.0015" stroke="#141B34" stroke-width="1.5"/>
</svg>
