<svg width="24" height="24" viewBox="0 0 24 24" fill="none" xmlns="http://www.w3.org/2000/svg">
<path d="M4 10.0056V18.5006M8 10.0056V18.5006" stroke="#141B34" stroke-width="1.5" stroke-linecap="square" stroke-linejoin="round"/>
<path d="M10.9997 18.5005H2.00028L2 21.9984H10.9997" stroke="#141B34" stroke-width="1.5" stroke-linejoin="round"/>
<path d="M21.5 14.5029L14.5 21.4988" stroke="#141B34" stroke-width="1.5" stroke-linejoin="round"/>
<path d="M15.25 16.0012C15.6642 16.0012 16 15.6658 16 15.2521C16 14.8383 15.6642 14.5029 15.25 14.5029C14.8358 14.5029 14.5 14.8383 14.5 15.2521C14.5 15.6658 14.8358 16.0012 15.25 16.0012Z" stroke="#141B34" stroke-width="1.5" stroke-linecap="square" stroke-linejoin="round"/>
<path d="M20.75 21.498C21.1642 21.498 21.5 21.1626 21.5 20.7489C21.5 20.3351 21.1642 19.9998 20.75 19.9998C20.3358 19.9998 20 20.3351 20 20.7489C20 21.1626 20.3358 21.498 20.75 21.498Z" stroke="#141B34" stroke-width="1.5" stroke-linecap="square" stroke-linejoin="round"/>
<path d="M2.00551 7.0115L11.9844 2.00253C11.9872 2.00111 11.9906 2.00111 11.9934 2.00252L21.9945 7.0115C21.9979 7.01319 22 7.01665 22 7.02043V10.0056H2V7.02042C2 7.01664 2.00213 7.01319 2.00551 7.0115Z" stroke="#141B34" stroke-width="1.5"/>
</svg>
