<svg width="24" height="24" viewBox="0 0 24 24" fill="none" xmlns="http://www.w3.org/2000/svg">
<path d="M15.4993 14.5501C15.4992 13.6932 16.0078 11.991 18.2524 12.0269C20.497 12.0628 21.0713 14.1041 20.9801 14.988V16.0824M20.9801 16.0824H17.31C16.6766 16.1376 14.7915 16.7051 15.0306 19.1699C15.1878 19.7856 15.8206 21.0127 17.2565 21.1967C18.5759 21.3657 19.2321 20.7323 19.5693 20.522C20.0375 20.2302 20.9349 19.3158 20.9801 18.106M20.9801 16.0824V18.106M20.9801 18.106V21.9558" stroke="#141B34" stroke-width="1.5"/>
<path d="M11.0147 2.95801H6.9712M6.9712 2.95801H3.01592M6.9712 2.95801V11.9758M6.9712 11.9758H7.01463M6.9712 11.9758H4.05349M7.01463 11.9758H9.97576M7.01463 11.9758L7.00071 21.0495M7.00071 21.0495H11.0151M7.00071 21.0495H2.98633" stroke="#141B34" stroke-width="1.5"/>
</svg>
