<svg width="24" height="24" viewBox="0 0 24 24" fill="none" xmlns="http://www.w3.org/2000/svg">
<path d="M17.9901 16.0128L8.0127 6.04199" stroke="#141B34" stroke-width="1.5" stroke-linejoin="round"/>
<path d="M1.00144 12.9376C0.998168 12.9409 0.998226 12.9462 1.00157 12.9495L4.61604 16.4893C5.28253 15.8177 5.79822 15.392 7.00488 15.6825C7.88457 15.8942 8.42091 16.7561 8.48628 17.5306C8.51723 17.8972 8.45705 18.2796 8.28797 18.605C8.16523 18.8412 7.95581 19.1321 7.60997 19.4564L11.1839 22.9984C11.1873 23.0017 11.1926 23.0017 11.1958 22.9984L22.9986 11.1048C23.0018 11.1015 23.0018 11.0962 22.9985 11.0929L19.4245 7.55096C19.1028 7.89927 18.8135 8.11097 18.5782 8.23559C18.254 8.40726 17.8719 8.47058 17.5047 8.44271C16.7293 8.38383 15.8623 7.85505 15.6431 6.97775C15.3424 5.77434 15.7641 5.25546 16.4306 4.58385L12.8584 1.00139C12.8551 0.998082 12.8497 0.998069 12.8465 1.00137L1.00144 12.9376Z" stroke="#141B34" stroke-width="1.5"/>
</svg>
