<svg width="24" height="24" viewBox="0 0 24 24" fill="none" xmlns="http://www.w3.org/2000/svg">
<path d="M8.96484 3.5V20.5" stroke="#141B34" stroke-width="1.5" stroke-linecap="square" stroke-linejoin="round"/>
<path d="M10.0659 3.5H21.991C21.9965 3.5 22.001 3.50452 22.001 3.51007L21.9653 9.51469C20.841 9.51469 20.0503 9.59325 19.2862 10.8527C18.7291 11.7709 19.0079 12.9433 19.6069 13.6459C19.8904 13.9785 20.2635 14.2475 20.6796 14.3771C20.9816 14.4712 21.4023 14.5379 21.9653 14.5177V20.49C21.9653 20.4955 21.9608 20.5 21.9553 20.5H10.8785M13.9341 3.5H2.00897C2.00346 3.5 1.99899 3.50452 1.99902 3.51007L2.03471 9.51469C3.15904 9.51469 3.94968 9.59325 4.71383 10.8527C5.27092 11.7709 4.99209 12.9433 4.39313 13.6459C4.10957 13.9785 3.73648 14.2475 3.32042 14.3771C3.01838 14.4712 2.59774 14.5379 2.03471 14.5177V20.49C2.03471 20.4955 2.03916 20.5 2.04466 20.5H13.1215" stroke="#141B34" stroke-width="1.5"/>
</svg>
