<svg width="24" height="24" viewBox="0 0 24 24" fill="none" xmlns="http://www.w3.org/2000/svg">
<path d="M13.7258 12.5098L13.7258 10.6066C13.7258 10.4329 13.698 10.1517 13.6451 9.99684M13.6451 9.99684C13.4481 9.41965 12.96 9.00416 12.335 9.00416H10.6247M13.6451 9.99684L15.4282 9.99684C16.0533 9.99684 16.546 10.4285 16.743 11.0057M16.8257 13.1945V11.6286C16.8257 11.4549 16.796 11.1606 16.743 11.0057M16.743 11.0057H18.4564C19.4448 11.0917 19.928 11.7807 19.928 12.588V19.0278C19.928 20.6693 18.6242 21.8874 17.0569 22L8.03085 22L4.4348 16.4517C3.09335 14.1788 4.54233 12.7024 7.3813 10.1396M10.6247 9.00416V11.9955M10.6247 9.00416V3.74968C10.6247 3.47735 10.5918 3.23134 10.5243 3.00634C10.2288 2.02152 8.92666 1.69395 8.12407 2.33635C7.78348 2.60897 7.54149 2.96172 7.54149 3.34701L7.54149 14.5112" stroke="#141B34" stroke-width="1.5"/>
</svg>
