<svg width="24" height="24" viewBox="0 0 24 24" fill="none" xmlns="http://www.w3.org/2000/svg">
<path d="M5.45455 14.7273L4 13.2727M5.45455 14.7273L4 16.1818L6.90909 19.0909L9.81818 19.8182M5.45455 14.7273L12.7273 7.45455M12.7273 7.45455L11.2727 6M12.7273 7.45455L14.1818 6L17.0909 8.90909L17.8182 11.8182M9.81818 19.8182L14.1818 22L20 16.1818L17.8182 11.8182M9.81818 19.8182L17.8182 11.8182M9.81818 19.8182L9.09091 22M17.8182 11.8182L20 11.0909M15.6364 10.3636L16.8622 9.13777M8.36364 17.6364L7.21356 18.7864M12.3636 11.4545L9.45455 14.3636" stroke="#141B34" stroke-width="1.5" stroke-linejoin="round"/>
<path d="M3 2H21" stroke="#141B34" stroke-width="1.5" stroke-linejoin="round"/>
</svg>
