<svg width="24" height="24" viewBox="0 0 24 24" fill="none" xmlns="http://www.w3.org/2000/svg">
<path d="M3 21.0002V3L21 21.0002H3Z" stroke="#141B34" stroke-width="1.5" stroke-linejoin="round"/>
<path d="M17.0244 9.06769L20.5672 12.5691M20.9933 10.004L20.9933 12.9903L17.9927 12.9903M14.9168 6.98638L11.429 3.4294M13.9961 3.01375L11.0099 3.00195L10.998 6.00255M17.0438 6.971L20.5672 3.4294M21.0047 6.00111L20.9795 3.01496L17.979 3.04035" stroke="#141B34" stroke-width="1.5"/>
<path d="M17.3672 8C17.3672 8.75614 16.7542 9.36914 15.998 9.36914C15.2419 9.36914 14.6289 8.75614 14.6289 8C14.6289 7.24386 15.2419 6.63086 15.998 6.63086C16.7542 6.63086 17.3672 7.24386 17.3672 8Z" stroke="#141B34" stroke-width="1.5" stroke-linejoin="round"/>
</svg>
