<svg width="24" height="24" viewBox="0 0 24 24" fill="none" xmlns="http://www.w3.org/2000/svg">
<path d="M17 20C18.1046 20 19 19.1046 19 18C19 16.8954 18.1046 16 17 16C15.8954 16 15 16.8954 15 18C15 19.1046 15.8954 20 17 20Z" stroke="#141B34" stroke-width="1.5" stroke-linejoin="round"/>
<path d="M7 20C8.10457 20 9 19.1046 9 18C9 16.8954 8.10457 16 7 16C5.89543 16 5 16.8954 5 18C5 19.1046 5.89543 20 7 20Z" stroke="#141B34" stroke-width="1.5" stroke-linejoin="round"/>
<path d="M16.9998 11H21.9998V18H18.9998M14.9998 18H8.99983M6.99805 11H13.9438V4H1.99805L1.99983 18H4.99983" stroke="#141B34" stroke-width="1.5" stroke-linejoin="round"/>
<path d="M14 6L19 6.00002L22 11" stroke="#141B34" stroke-width="1.5" stroke-linejoin="round"/>
<path d="M9.50098 8.50098L6.99707 11.001L9.50088 13.5011" stroke="#141B34" stroke-width="1.5"/>
</svg>
