<svg width="24" height="24" viewBox="0 0 24 24" fill="none" xmlns="http://www.w3.org/2000/svg">
<path d="M2 21H17C17 16.9066 13.6421 13.5882 9.5 13.5882C5.35786 13.5882 2 16.9066 2 21Z" stroke="#141B34" stroke-width="1.5"/>
<path d="M13.25 6.70588C13.25 8.75258 11.5711 10.4118 9.5 10.4118C7.42893 10.4118 5.75 8.75258 5.75 6.70588C5.75 4.65918 7.42893 3 9.5 3C11.5711 3 13.25 4.65918 13.25 6.70588Z" stroke="#141B34" stroke-width="1.5"/>
<path d="M17.5 8V6.5C17.5 5.67157 18.1716 5 19 5C19.8284 5 20.5 5.67157 20.5 6.5V8M16 8H22V13H16V8Z" stroke="#141B34" stroke-width="1.5"/>
</svg>
