<svg width="24" height="24" viewBox="0 0 24 24" fill="none" xmlns="http://www.w3.org/2000/svg">
<path d="M16 7C16 9.20914 14.2091 11 12 11C9.79086 11 8 9.20914 8 7C8 4.79086 9.79086 3 12 3C14.2091 3 16 4.79086 16 7Z" stroke="#141B34" stroke-width="1.5"/>
<path d="M4 21H20C20 17.134 16.4183 14 12 14C7.58172 14 4 17.134 4 21Z" stroke="#141B34" stroke-width="1.5"/>
<path d="M19.5 14.5L22 12L19.5 9.5M17 12H21.2566" stroke="#141B34" stroke-width="1.5"/>
<path d="M4.5 14.5L2 12L4.5 9.5M7 12H2.69969" stroke="#141B34" stroke-width="1.5"/>
</svg>
