<svg width="24" height="24" viewBox="0 0 24 24" fill="none" xmlns="http://www.w3.org/2000/svg">
<path d="M17 15.8462C17 14.8266 17.8954 14 19 14C20.1046 14 21 14.8266 21 15.8462C21 16.2137 20.8837 16.5561 20.6831 16.8438C20.0854 17.7012 19 18.5189 19 19.5385M18.9902 22V20.5" stroke="#141B34" stroke-width="1.5" stroke-linejoin="round"/>
<path d="M15 20H3C3 16.134 6.58172 13 11 13C12.4571 13 13.8233 13.3409 15 13.9365M15 6C15 8.20914 13.2091 10 11 10C8.79086 10 7 8.20914 7 6C7 3.79086 8.79086 2 11 2C13.2091 2 15 3.79086 15 6Z" stroke="#141B34" stroke-width="1.5"/>
</svg>
