<svg width="24" height="24" viewBox="0 0 24 24" fill="none" xmlns="http://www.w3.org/2000/svg">
<path d="M17 13C17 10.2386 14.7614 8 12 8C9.23858 8 7 10.2386 7 13" stroke="#141B34" stroke-width="1.5" stroke-linecap="square" stroke-linejoin="round"/>
<path d="M11.9998 4H12.0088" stroke="#141B34" stroke-width="2" stroke-linecap="round" stroke-linejoin="round"/>
<path d="M18.3671 6.63268L18.3734 6.63903" stroke="#141B34" stroke-width="2" stroke-linecap="round" stroke-linejoin="round"/>
<path d="M5.63658 6.63978L5.64293 6.63343" stroke="#141B34" stroke-width="2" stroke-linecap="round" stroke-linejoin="round"/>
<path d="M21.0039 12.9959L21.0039 13.0049" stroke="#141B34" stroke-width="2" stroke-linecap="round" stroke-linejoin="round"/>
<path d="M3.00391 12.9959L3.00391 13.0049" stroke="#141B34" stroke-width="2" stroke-linecap="round" stroke-linejoin="round"/>
<path d="M10 21V21.75H10.75V21H10ZM6 21H5.25C5.25 21.4142 5.58579 21.75 6 21.75V21ZM9.25 16V21H10.75V16H9.25ZM10 20.25H6V21.75H10V20.25ZM6.75 21V16H5.25V21H6.75Z" fill="#141B34"/>
<path d="M13 16L15 21H16L18 16" stroke="#141B34" stroke-width="1.5"/>
</svg>
