<svg width="24" height="24" viewBox="0 0 24 24" fill="none" xmlns="http://www.w3.org/2000/svg">
<path d="M4.40041 18.5C2.9039 16.752 2 14.4815 2 12C2 6.47715 6.47715 2 12 2C17.5228 2 22 6.47715 22 12C22 14.4815 21.0961 16.752 19.5996 18.5" stroke="#141B34" stroke-width="1.5" stroke-linejoin="round"/>
<path d="M8 8L9.5 9.45195L8 11M16 8L14.5 9.45195L16 11" stroke="#141B34" stroke-width="1.5"/>
<path d="M7 19C7.47273 16.7178 9.53167 15 12 15C14.4683 15 16.5273 16.7178 17 19" stroke="#141B34" stroke-width="1.5" stroke-linejoin="round"/>
<path d="M12 19L12 21" stroke="#141B34" stroke-width="1.5" stroke-linejoin="round"/>
<path d="M8.46546 16.5C8.46546 18.4882 8.85751 20.7325 7 22" stroke="#141B34" stroke-width="1.5" stroke-linejoin="round"/>
<path d="M15.534 16.5C15.534 18.4808 15.1447 20.7344 17 22" stroke="#141B34" stroke-width="1.5" stroke-linejoin="round"/>
</svg>
