<svg width="24" height="24" viewBox="0 0 24 24" fill="none" xmlns="http://www.w3.org/2000/svg">
<path d="M21.5 12.7038C21.5 18.3233 17.0228 22.8789 11.5 22.8789C5.97715 22.8789 1.5 18.3233 1.5 12.7038C1.5 7.08424 5.97715 2.52869 11.5 2.52869C12.6688 2.52869 13.7907 2.73272 14.8333 3.10768" stroke="#141B34" stroke-width="1.5" stroke-linejoin="round"/>
<path d="M13 12.7032C13 11.8603 12.3284 11.1769 11.5 11.1769C10.6716 11.1769 10 11.8603 10 12.7032C10 13.5461 10.6716 14.2294 11.5 14.2294C12.3284 14.2294 13 13.5461 13 12.7032Z" stroke="#141B34" stroke-width="1.5" stroke-linejoin="round"/>
<path d="M19.507 9.17998C19.507 10.5926 18.3918 11.7377 17.0162 11.7377C15.6405 11.7377 14.5254 10.5926 14.5254 9.17998C14.5254 7.76733 15.6405 6.62222 17.0162 6.62222C18.3918 6.62222 19.507 7.76733 19.507 9.17998ZM19.507 9.17998C19.507 9.17998 19.4536 2.29141 19.5411 0.873844C19.7332 2.27855 20.4203 4.59957 22.4985 4.59957" stroke="#141B34" stroke-width="1.5"/>
</svg>
