<svg width="24" height="24" viewBox="0 0 24 24" fill="none" xmlns="http://www.w3.org/2000/svg">
<path d="M2 21.1932C2.68524 22.2443 3.57104 22.2443 4.27299 21.1932C6.52985 17.7408 8.67954 23.6764 10.273 21.2321C12.703 17.5694 14.4508 23.9218 16.273 21.1932C18.6492 17.5582 20.1295 23.5776 22 21.5842" stroke="#141B34" stroke-width="1.5" stroke-linejoin="round"/>
<path d="M20.5 10.5714C20.5 5.83754 16.6944 2 12 2C7.30558 2 3.5 5.83754 3.5 10.5714C3.5 13.1315 4.5625 15.3929 6.6875 17C10.9031 16.8643 15.1787 14.536 16.25 12.2857M20.5 10.5714C18.1101 7.38761 13.6105 5.87623 11.15 6.38125M20.5 10.5714C20.5 13.1315 19.387 15.4294 17.6223 17M3.74089 12.6076C6.33333 13.7187 9.16667 13.25 11.575 10.8393M11.575 10.8393C10.4445 6.60327 10.8525 3.60714 12.2973 2M11.575 10.8393C15.5599 10.355 18.2775 13.3929 19 15M8.22222 12.9196C6.61885 11.1308 6.15896 6.86333 7.76217 3.28571" stroke="#141B34" stroke-width="1.5" stroke-linejoin="round"/>
</svg>
