<svg width="24" height="24" viewBox="0 0 24 24" fill="none" xmlns="http://www.w3.org/2000/svg">
<path d="M14.6245 5.74923C14.8983 4.99948 15.7302 4.6129 16.4825 4.88579C17.2348 5.15868 17.6227 5.98769 17.3489 6.73744L16.6878 8.5475M14.6245 5.74923L15.2855 3.93917C15.5594 3.18942 15.1715 2.3604 14.4192 2.08752C13.6668 1.81463 12.835 2.20121 12.5612 2.95096L12.0656 4.30857M14.6245 5.74923L12.8066 10.7269M12.0656 4.30857C12.339 3.55897 11.9511 2.73032 11.199 2.4575C10.4466 2.18461 9.61479 2.57119 9.34097 3.32094L6.54389 10.9791L5.6097 8.97429C5.19981 8.09467 4.11484 7.7678 3.28416 8.27368C2.64856 8.66075 2.35475 9.42786 2.56986 10.1386L5 16.5L4.17597 18.8707M12.0656 4.30857L10.4129 8.83372M12.8032 22L13.5 20C13.5 20 15.3694 19.1322 15.7097 18.7412C16.2963 18.0673 16.6555 17.0838 17.3739 15.1169L19.4122 9.53572C19.686 8.78596 19.2981 7.95695 18.5458 7.68406C17.7935 7.41118 16.9616 7.79775 16.6878 8.5475M15.2004 12.6201L16.6878 8.5475" stroke="#141B34" stroke-width="1.5"/>
<path d="M21.3307 13C21.877 14.6354 21.0574 16.4263 19.5 17" stroke="#141B34" stroke-width="1.5"/>
</svg>
