<svg width="24" height="24" viewBox="0 0 24 24" fill="none" xmlns="http://www.w3.org/2000/svg">
<path d="M22 7.20203L22.6073 7.64216C22.8219 7.34604 22.7916 6.93831 22.5357 6.67711L22 7.20203ZM2 7.20203L1.46432 6.67711C1.20836 6.93831 1.17811 7.34604 1.39272 7.64216L2 7.20203ZM12 3.75C15.7077 3.75 19.0585 5.27188 21.4643 7.72696L22.5357 6.67711C19.8594 3.94598 16.1271 2.25 12 2.25V3.75ZM2.53568 7.72696C4.94146 5.27188 8.29233 3.75 12 3.75V2.25C7.87292 2.25 4.14061 3.94598 1.46432 6.67711L2.53568 7.72696ZM1.39272 7.64216L11.3927 21.4401L12.6073 20.5599L2.60728 6.76191L1.39272 7.64216ZM19.13 12.4401L22.6073 7.64216L21.3927 6.76191L17.9154 11.5599L19.13 12.4401Z" fill="#141B34"/>
<path d="M21.0002 15L15.0002 21M21.0002 21L15.0002 15" stroke="#141B34" stroke-width="1.5" stroke-linejoin="round"/>
</svg>
