<svg width="24" height="24" viewBox="0 0 24 24" fill="none" xmlns="http://www.w3.org/2000/svg">
<path d="M12 21L11.3927 21.4401C11.5338 21.6348 11.7596 21.75 12 21.75C12.2404 21.75 12.4662 21.6348 12.6073 21.4401L12 21ZM22 7.20203L22.6073 7.64216C22.8219 7.34604 22.7916 6.93831 22.5357 6.67711L22 7.20203ZM2 7.20203L1.46432 6.67711C1.20836 6.93831 1.17811 7.34604 1.39272 7.64216L2 7.20203ZM12 3.75C15.7077 3.75 19.0585 5.27188 21.4643 7.72696L22.5357 6.67711C19.8594 3.94598 16.1271 2.25 12 2.25V3.75ZM2.53568 7.72696C4.94146 5.27188 8.29233 3.75 12 3.75V2.25C7.87292 2.25 4.14061 3.94598 1.46432 6.67711L2.53568 7.72696ZM1.39272 7.64216L11.3927 21.4401L12.6073 20.5599L2.60728 6.76191L1.39272 7.64216ZM12.6073 21.4401L22.6073 7.64216L21.3927 6.76191L11.3927 20.5599L12.6073 21.4401Z" fill="#141B34"/>
<path d="M9.10412 17.3145C10.9776 16.5618 13.0224 16.5618 14.8959 17.3145L15.455 15.9226C13.2227 15.0258 10.7773 15.0258 8.54498 15.9226L9.10412 17.3145ZM6.70194 13.9308C10.0694 12.3564 13.9307 12.3564 17.2981 13.9308L17.9334 12.572C14.1633 10.8093 9.83666 10.8093 6.06662 12.572L6.70194 13.9308ZM4.57185 10.8605C9.25471 8.0465 14.7453 8.0465 19.4282 10.8605L20.2008 9.57478C15.0425 6.47507 8.95755 6.47507 3.79924 9.57478L4.57185 10.8605Z" fill="#141B34"/>
</svg>
