<svg width="24" height="24" viewBox="0 0 24 24" fill="none" xmlns="http://www.w3.org/2000/svg">
<path d="M12 11L12.6431 10.6141C12.5076 10.3882 12.2634 10.25 12 10.25C11.7366 10.25 11.4924 10.3882 11.3569 10.6141L12 11ZM18 21V21.75C18.2702 21.75 18.5195 21.6047 18.6526 21.3695C18.7858 21.1344 18.7821 20.8458 18.6431 20.6141L18 21ZM6 21L5.35688 20.6141C5.21786 20.8458 5.21422 21.1344 5.34735 21.3695C5.48048 21.6047 5.7298 21.75 6 21.75V21ZM11.3569 11.3859L17.3569 21.3859L18.6431 20.6141L12.6431 10.6141L11.3569 11.3859ZM18 20.25H6V21.75H18V20.25ZM6.64312 21.3859L12.6431 11.3859L11.3569 10.6141L5.35688 20.6141L6.64312 21.3859Z" fill="#141B34"/>
<path d="M12 18.5H12.009M12 15.5V16.5" stroke="#141B34" stroke-width="1.5" stroke-linecap="square" stroke-linejoin="round"/>
<path d="M18.5 10C14.7324 6.66667 9.5 6.66667 5.5 10" stroke="#141B34" stroke-width="1.5" stroke-linejoin="round"/>
<path d="M2 7C8.31579 1.66669 15.6842 1.66668 22 6.99989" stroke="#141B34" stroke-width="1.5" stroke-linejoin="round"/>
</svg>
