<svg width="24" height="24" viewBox="0 0 24 24" fill="none" xmlns="http://www.w3.org/2000/svg">
<path d="M6.50256 17.4971L6.49622 17.5034" stroke="#141B34" stroke-width="1.5" stroke-linecap="square" stroke-linejoin="round"/>
<path d="M6.53145 21.4957C6.52756 21.4996 6.52126 21.4997 6.51734 21.4958L2.49907 17.5292C2.49513 17.5253 2.4951 17.5189 2.49901 17.515L9.74034 10.2469C8.77141 6.85634 10.7044 3.93772 13.2977 2.9258C14.8604 2.31602 16.6643 2.3761 17.9917 3.01986C17.5364 3.48022 16.8871 4.09505 16.3054 4.68145C15.6913 5.3006 15.0716 5.89067 14.7531 6.29192C13.3917 8.48441 15.9136 10.434 17.6375 9.27594C17.9219 9.08493 18.3556 8.57712 18.8641 8.09065C19.5963 7.39024 20.2333 6.7218 20.9465 6.01509C21.6586 7.67186 21.6489 9.33041 21.0551 10.7508C20.4803 12.126 19.3536 13.2789 18.0591 13.9344C16.7378 14.3924 15.4276 14.7886 13.753 14.259L6.53145 21.4957Z" stroke="#141B34" stroke-width="1.5"/>
</svg>
