<svg width="24" height="24" viewBox="0 0 24 24" fill="none" xmlns="http://www.w3.org/2000/svg">
<path d="M11.9836 1.99824L5.44207 4.52817C5.43556 4.53069 5.43356 4.53894 5.4382 4.54416L11.2096 11.0294L11.9971 2.00845C11.9978 2.00107 11.9905 1.99557 11.9836 1.99824Z" stroke="#141B34" stroke-width="1.5"/>
<path d="M19.998 11.983L16.9396 7.68048C16.9354 7.67456 16.9265 7.67495 16.9228 7.68122L13.9772 12.7078L19.991 11.9988C19.9985 11.9979 20.0024 11.9892 19.998 11.983Z" stroke="#141B34" stroke-width="1.5"/>
<path d="M16.4302 20.3625L19.509 16.5299C19.5136 16.5241 19.5105 16.5154 19.5033 16.5138L13.9928 15.3345L16.4134 20.3606C16.4166 20.3672 16.4256 20.3682 16.4302 20.3625Z" stroke="#141B34" stroke-width="1.5"/>
<path d="M7.15147 20.0293L12.1396 22.0018C12.1465 22.0045 12.154 21.9989 12.1532 21.9915L11.5683 16.0093L7.14843 20.0125C7.14294 20.0175 7.14458 20.0265 7.15147 20.0293Z" stroke="#141B34" stroke-width="1.5"/>
<path d="M4.48054 10.5224L4.00016 16.5173C3.99955 16.5249 4.00735 16.5304 4.0143 16.5272L10.0044 13.7854L4.49563 10.5146C4.48926 10.5108 4.48113 10.515 4.48054 10.5224Z" stroke="#141B34" stroke-width="1.5"/>
</svg>
